P2
# Generated by OpenCV 4.2.0
92 112
255
 158 154 150 147 144 142 137 136 134 133 132 134 136 140 141 143 146 148 150 152 152 153 153 152 151 148 146 144 142 141 139 138 138 138 146 133 102 117 123  98  73 106 118 112  99  86 119 117  97 100  96  86 123  98  45  61  57  48 127 174 165 167 167 167 167 168 168 168 168 168 168 168 167 168 166 165 164 163 160 158 156 156 154 153 154 153 155 156 157 159 159 161
 162 159 155 151 150 146 144 142 140 140 141 140 141 143 145 148 149 151 151 152 152 152 151 151 147 147 145 144 141 139 143 142 137 137 119  87  93 113 100 104 104 105 119 100 104  92 106 101  93  88  95  93 101  85  65  86  86  48  85 146 172 170 166 167 166 168 168 169 168 168 167 168 169 168 167 166 164 163 160 158 156 153 153 152 153 152 152 154 157 156 159 160
 163 162 160 157 155 153 150 148 147 146 147 146 147 149 150 152 152 154 152 151 151 150 150 146 143 145 143 141 140 142 142 121 111 107  84  86 119 146  89  79 109 101  88  87 102 131 104 111 112  90  91 102 106  98 111 111  88  64  68  60 123 165 175 170 167 168 169 168 169 168 168 168 168 167 168 167 166 162 160 160 156 153 152 150 150 150 151 152 153 155 157 158
 165 166 163 162 159 157 155 155 154 153 153 153 154 154 153 154 154 152 151 150 149 148 147 143 141 140 140 140 142 129 100 104  97  82  80  90  93 109 140  78  60  83  82  82 112 132 109 120 129  95 101 102  96 108  97  95  71  70  98  80  47  65 129 164 175 169 168 168 169 169 169 170 169 168 168 166 165 164 162 158 156 153 150 150 149 149 149 151 152 153 155 157
 168 167 165 163 163 161 160 160 159 157 157 157 159 157 156 154 154 152 150 149 148 144 143 142 139 138 141 128 100  86  99 104  92  91  90  96  94  93 114 117  59  86  96  99 108 126 122 147 126 113 113  92  86 100  74  77  54  75 105 101 100  62  55  91 144 170 170 169 170 169 168 169 169 169 170 168 165 165 161 158 157 152 150 151 148 147 149 150 151 153 154 155
 168 169 168 166 165 164 165 163 162 160 158 160 157 156 156 155 152 151 149 148 145 142 139 140 140 125 103  81  86  94  94  95 110 123 137 151 131 128 125 122  96  91 115 127 139 156 157 158 134 130 124 101  95  81  81  77  67  85  84  87 116  97  82  93  83 134 175 168 170 169 170 170 170 171 170 168 165 164 161 159 156 152 151 149 149 149 148 148 151 152 153 155
 170 168 169 167 166 166 165 164 165 161 161 159 157 156 154 152 149 148 146 144 142 140 140 140 104  72  83  93 100  90  96 132 170 180 195 198 169 160 176 159 146 103 136 179 178 190 205 168 165 151 155 139 117 104 105  84  90  80  68  97 120 106  94 125 121  84 139 168 169 169 170 169 171 170 170 168 166 164 163 159 157 154 152 149 150 150 149 149 152 153 153 157
 170 168 168 168 168 166 166 164 164 163 160 159 156 155 152 149 147 145 142 142 139 141 133  92  76  95  97  95  97 126 161 178 196 199 200 216 210 181 207 215 176 149 152 182 223 220 239 212 191 175 193 182 147 129 137 118 111  90  78 118 140 151 144 118 129 108  85 134 168 169 170 170 172 171 170 168 167 165 163 160 155 154 154 150 150 149 148 150 152 153 153 155
 168 168 167 167 166 167 166 164 161 159 157 157 153 150 148 147 144 143 141 140 142 130  77  77  90  97  91 115 157 183 184 182 190 200 200 231 231 202 213 215 193 179 175 199 238 240 230 233 219 195 199 189 177 162 170 160 133 144 147 150 148 156 173 155 130 117 104  97 148 171 172 171 171 171 171 167 166 166 164 160 157 156 154 153 150 151 150 150 153 154 156 157
 166 165 164 163 164 164 163 161 158 156 154 152 149 147 147 144 143 140 140 141 132  74  73  98  98  99 139 180 192 184 180 184 195 208 216 226 226 204 206 216 218 204 211 224 227 233 236 236 233 212 220 202 187 187 188 187 177 183 175 163 165 160 164 168 165 146 122  91 108 158 169 170 172 171 170 168 167 166 164 160 159 157 156 154 152 152 152 153 155 157 158 158
 163 162 161 161 159 158 158 157 156 151 150 149 146 144 142 141 140 139 140 130  76  76 102  94 114 152 185 195 187 183 182 187 200 208 229 225 217 219 222 230 224 225 215 231 224 234 242 229 224 215 217 207 199 199 198 201 199 194 185 184 192 183 178 172 175 174 162 131 101 109 157 168 170 171 168 168 168 166 164 161 159 158 158 155 154 153 154 156 157 158 160 161
 158 158 157 155 156 154 153 151 149 147 146 144 143 141 140 139 139 139 119  70  79 100  91 127 169 186 189 183 179 184 180 186 207 217 225 228 228 234 229 233 229 244 232 224 234 231 234 225 218 218 219 213 202 204 207 207 208 204 199 194 196 193 189 182 181 182 183 177 146 100  93 152 171 170 170 168 167 167 164 163 160 159 159 157 156 156 157 159 160 162 163 164
 153 152 151 150 150 149 147 145 146 144 143 141 140 137 136 138 137 115  98  99  98  89 129 184 188 182 187 185 182 183 187 204 215 219 217 223 231 236 226 234 237 243 249 237 230 232 228 219 217 222 220 215 211 209 211 210 216 208 199 197 197 190 188 188 187 186 184 182 175 152  99  98 151 173 172 171 168 165 165 163 161 160 161 158 159 159 161 162 164 164 165 164
 147 148 147 144 145 144 143 142 142 141 139 138 136 137 136 140 106  75  90 100  99 125 184 186 186 184 190 186 187 187 192 212 217 221 224 234 233 235 235 234 244 244 243 238 242 234 231 215 213 221 212 213 211 207 204 207 213 205 201 198 195 190 188 187 186 186 181 183 181 186 150  94 104 167 174 171 171 165 165 165 165 165 162 161 160 160 162 164 165 166 166 166
 143 143 143 142 141 141 139 138 137 137 136 135 134 135 141 111  60  73  82 102 128 174 184 185 183 185 193 190 188 192 197 207 215 216 221 232 233 237 240 238 235 231 226 222 230 227 218 212 212 212 213 209 203 202 201 201 204 204 199 194 193 192 189 186 185 188 181 179 181 183 186 149  91 125 177 173 170 168 166 165 164 165 163 162 161 162 164 163 165 166 168 168
 139 139 139 139 138 139 138 136 135 135 134 134 134 135 115  59  57  66  93 119 168 187 183 181 176 184 190 184 185 194 191 200 212 218 221 232 236 229 227 229 224 224 218 214 216 211 208 206 206 207 202 199 193 191 195 198 197 199 196 191 189 188 185 186 181 181 181 176 177 175 181 190 128  73 137 168 170 169 168 166 166 165 164 164 163 164 165 168 168 168 167 166
 136 137 136 136 137 136 135 134 135 135 135 135 136 130  66  55  45  76 113 160 185 182 177 174 177 182 187 184 186 187 184 186 204 219 224 229 231 224 222 216 211 211 210 214 213 210 203 202 201 199 191 187 189 190 193 196 194 192 191 188 183 182 180 184 184 175 173 173 172 171 173 182 169  96 100 148 167 171 170 169 166 166 167 165 165 166 167 166 167 167 166 166
 135 135 135 135 137 135 135 135 135 135 136 137 139  93  57  52  58 103 139 175 176 175 173 171 174 178 181 177 180 180 183 180 190 207 210 219 215 215 214 210 206 204 207 203 201 199 199 197 194 191 191 189 189 186 185 185 189 187 188 184 180 182 180 178 179 172 165 167 168 169 169 171 180 153  94 114 160 166 171 169 166 168 168 165 166 166 168 167 167 167 166 165
 135 135 135 134 135 135 137 135 135 135 136 140 125  55  43  48  87 123 163 171 172 173 170 171 171 173 177 172 174 171 175 177 181 193 201 205 205 205 205 203 201 198 191 191 191 189 190 191 192 190 191 188 184 186 186 188 186 185 190 187 180 180 181 178 174 165 162 160 165 168 166 167 173 181 128  77 132 166 170 169 167 167 167 165 166 168 167 166 166 168 167 165
 135 136 136 136 138 138 137 137 137 137 140 144  96  32  35  58  88 146 166 168 168 167 166 170 167 167 168 170 172 168 165 170 177 183 190 192 195 200 198 196 195 189 183 185 184 183 183 185 186 189 187 186 186 190 189 188 189 186 189 189 181 179 181 178 175 166 161 159 161 163 163 161 164 174 165 102  95 162 167 171 168 168 168 167 166 168 168 167 168 168 166 165
 139 139 138 140 139 140 140 140 140 141 145 125  48  30  36  59 111 158 165 162 158 158 156 164 167 166 163 162 168 159 157 165 168 169 181 184 183 187 187 183 182 184 185 180 180 184 186 185 189 193 189 189 188 188 184 184 186 189 184 185 179 180 180 175 174 167 159 159 160 162 164 159 160 164 174 133  72 123 169 171 171 167 167 167 167 166 168 168 168 168 167 167
 142 142 142 140 142 143 142 142 142 145 133  44  25  30  42  82 128 162 157 156 152 148 151 155 160 164 164 157 159 159 161 162 161 161 170 175 174 172 177 179 180 180 182 180 180 184 187 191 196 193 189 192 195 193 192 191 188 192 191 187 184 183 179 176 170 169 163 158 153 159 159 153 157 164 165 165  97  62 142 175 169 167 168 168 168 167 170 170 169 169 168 167
 141 143 143 143 143 144 143 144 144 144  61  21  32  29  56 101 149 159 158 154 142 141 149 145 152 155 156 156 158 160 156 151 149 149 157 161 161 159 167 173 179 179 181 180 177 188 188 190 192 195 196 196 198 202 202 196 198 192 188 188 183 183 181 177 171 163 163 160 153 159 158 150 155 155 153 165 142  61  62 162 174 169 168 168 167 169 170 170 170 170 169 169
 142 143 144 144 143 144 143 144 150  85  22  41  24  39  62 119 157 151 154 147 132 133 137 147 153 153 155 151 152 155 151 143 144 143 147 147 153 152 158 166 172 181 185 180 182 185 188 191 198 201 199 195 195 193 197 196 193 190 190 192 191 187 187 183 178 167 159 157 155 159 158 155 152 152 150 152 162 100  31  98 174 171 169 168 167 169 171 171 172 173 172 171
 141 143 143 144 144 145 144 146 124  29  34  33  25  42  73 136 158 152 151 137 121 126 137 139 147 145 147 148 145 155 150 146 146 143 150 154 161 158 159 167 172 184 184 180 184 186 192 198 206 198 191 194 195 197 196 193 197 199 196 192 190 186 188 180 176 172 164 155 159 164 159 156 153 150 146 143 164 136  62  48 146 174 169 167 168 169 170 170 172 172 172 173
 141 142 141 141 143 144 143 149  84  29  33  25  33  47  89 143 157 152 144 130 117 117 117 119 132 141 145 146 145 142 146 155 154 152 154 156 159 160 158 167 174 176 179 180 185 190 193 197 199 193 188 190 196 200 198 195 195 193 187 181 183 179 175 174 172 165 165 161 160 159 158 154 151 150 142 137 154 152  78  25 129 179 169 167 166 168 170 171 172 173 176 175
 140 139 141 140 140 141 142 142  63  29  23  26  29  47  98 142 147 143 135 123 116 101 101 114 119 126 137 143 147 143 148 149 152 150 149 154 159 159 161 169 173 182 182 182 190 192 192 199 205 198 192 193 192 190 186 182 184 180 184 185 188 188 182 180 174 164 165 165 163 160 160 154 151 149 142 136 143 153 101  31  71 176 169 167 166 167 169 170 171 173 175 176
 138 138 140 140 141 140 146 123  40  22  21  23  24  56 111 135 132 131 121 108 101  99 103 108 118 126 137 145 146 142 144 146 148 152 152 154 164 166 170 174 176 184 183 183 180 180 179 186 189 186 181 182 179 179 182 183 186 188 192 191 187 188 184 177 171 172 168 167 166 163 157 159 155 145 140 132 132 150 121  57  27 139 176 168 166 166 168 170 170 173 174 176
 137 137 138 141 144 145 136  93  51  36  23  20  26  65 115 120 122 117 109 104  98 101 103 107 116 130 140 143 144 142 141 144 148 153 159 158 160 167 169 175 180 184 186 185 181 182 186 188 186 183 176 178 188 191 190 188 187 188 187 188 189 191 180 177 176 174 168 166 167 167 158 157 156 146 137 129 130 143 134  66  25  78 176 167 167 165 166 168 169 171 174 175
 135 136 137 142 139 129 133  81  58  24  18  17  29  67 101 116 115 107 109 101 101 102 109 116 120 121 125 133 138 144 138 140 142 146 155 161 167 172 178 184 188 183 182 185 188 187 190 190 189 190 184 188 192 193 192 187 188 192 189 188 191 190 184 176 174 165 162 162 168 171 161 158 158 148 138 129 126 136 139  84  30  27 134 173 164 164 165 167 168 170 171 173
 133 134 133 140 135  98  99  52  36  16  19  16  26  60  97 110 108 106 102 102 101 104 106 113 120 119 124 136 135 135 135 136 145 156 166 164 169 176 176 183 182 182 183 188 190 191 194 192 198 196 187 189 192 195 192 192 194 190 193 194 191 190 190 184 175 171 164 163 166 166 160 158 158 150 140 131 124 133 139 100  37  14  78 174 164 164 165 166 167 170 169 172
 133 133 134 135 143 107  50  30  32  18  17  18  25  57  88  98 105 109  98 100 100  99 110 112 120 125 127 130 134 142 148 146 148 150 149 158 165 164 169 174 177 180 188 190 189 194 191 193 200 196 180 192 198 197 198 198 195 193 191 187 186 185 187 186 179 176 172 172 173 172 163 159 153 148 140 131 123 133 137 106  44  17  44 163 168 168 166 164 166 169 170 171
 132 133 135 135 138 104  54  35  47  25  15  17  28  53  72  86  95  97  93  98  97  97 106 113 118 123 126 136 143 148 150 147 146 145 152 154 157 156 158 168 173 180 187 186 188 196 198 201 205 190 179 193 198 195 193 193 195 195 192 195 195 189 192 192 188 181 175 171 174 171 169 162 152 146 135 131 123 130 132 104  53  19  27 139 172 166 166 165 167 167 169 169
 131 132 135 135 141 106  51  46  41  19  17  17  32  50  62  82  84  90  96  93  94 100 108 114 113 122 133 136 137 140 147 151 147 147 151 150 152 150 153 163 170 179 181 183 190 192 194 197 201 189 177 191 200 188 186 201 203 201 202 200 197 192 194 186 188 188 182 181 178 170 168 167 160 148 136 133 124 126 127 103  52  20  10  61 175 168 165 167 165 166 167 168
 133 132 135 137 139 129  56  50  47  10  14  19  30  39  52  77  85  86  89  87  98 105 108 110 117 124 131 135 142 143 147 147 137 143 146 148 150 150 149 155 159 167 169 170 192 194 196 198 202 186 170 196 199 191 195 196 194 200 194 185 184 188 184 180 186 186 184 178 177 178 168 165 159 150 141 135 123 128 123  98  51  27  13  52 141 168 167 166 166 167 168 168
 134 134 135 136 139 137  84  34  37  24  17  18  23  28  50  72  87  84  90  91  98 104 104 108 114 124 133 134 139 147 145 145 145 140 141 150 145 142 144 147 151 158 165 158 171 180 186 196 199 180 165 187 192 186 188 179 178 182 179 178 177 175 179 184 187 179 176 177 175 174 165 165 158 151 144 135 123 124 118  93  44  29  17  61 116 121 173 168 168 168 169 168
 134 135 138 138 141 124  63  28  43  23  22  19  25  29  45  70  86  82  90  97 104 105 102 108 113 129 133 135 142 144 151 151 148 145 141 143 137 131 130 137 145 154 161 154 157 169 171 178 183 173 164 173 177 180 180 174 171 173 172 168 166 165 171 175 168 169 169 163 165 164 158 163 160 152 142 133 121 123 113  88  40  24  27  65  88 114 176 169 170 170 170 171
 136 135 139 139 142 101  40  21  24  29  28  18  19  30  53  69  69  76  89 100 104 107 107 112 118 130 134 143 146 141 144 133 138 135 126 120 112 111 113 124 129 139 145 142 150 160 166 172 180 164 155 172 167 170 178 173 165 166 170 164 157 150 137 132 119 132 132 114 118 124 132 155 164 149 142 134 123 123 110  85  42  17  42  51  56 147 176 170 170 170 170 171
 140 137 138 139 145 109  45  22  29  32  25  22  19  38  57  62  65  77  92 100 104 110 109 115 119 127 133 137 130 127 142 132 114 108  91  91  88  79  71  80  84  88 112 126 135 147 163 172 175 162 150 166 173 168 169 158 147 159 154 130 106 101  86  77  86  79  69  79  91  84  76 109 163 156 136 129 125 123 111  84  39  16  33  45 101 158 176 171 172 171 171 170
 141 140 140 136 146 118  51  40  35  11  24  26  32  49  58  60  62  76  91 104 104 110 113 115 126 137 135 119 109 107 100  92  89  86  75  69  53  41  40  41  42  56  84  99 121 138 151 161 163 157 154 168 171 169 161 138 115 130 103  76  51  44  45  46  49  47  45  55  72  66  57  52  95 156 137 121 122 118 103  77  37  18  20  39  95  93 145 175 172 172 171 171
 142 141 142 132 128 113  81  43  34  15  19  35  41  47  57  55  59  81  92 104 106 108 112 116 130 138 113  75  71  61  64  75  77  55  42  38  26  20  21  23  28  39  57  79  99 129 142 154 160 157 154 165 172 164 144 127  90  88  66  51  40  31  29  31  31  40  49  53  60  57  57  53  50  82 125 129 117 114  92  55  33  22  32  31  40  84 136 162 174 173 173 172
 144 143 141 144 117  86  48  36  26  29  30  38  34  39  49  48  58  79  95 106 107 113 115 120 120  98  62  60  59  58  62  58  46  31  26  20  18  19  21  22  25  32  37  62  84 115 131 150 162 157 156 173 169 161 138 117  87  65  45  42  31  25  24  22  23  26  28  33  40  38  46  41  42  36  57 100 119 119  94  48  33  27  36  74 122 118 116 146 172 173 173 173
 149 145 142 141 134 101  45  24  41  52  49  33  29  35  48  52  57  77  98 109 106 109 114  99  73  48  46  51  40  31  24  17  12  11  16  19  23  26  28  32  36  41  40  47  71  98 129 152 160 161 161 168 164 155 135 108  86  56  41  39  33  28  26  25  24  22  24  25  26  23  26  31  34  41  47  71 108 120  97  50  35  20  68 119  85  99 149 159 162 175 173 173
 149 147 145 142 139  97  63  53  52  43  37  24  30  32  52  53  53  81 104 115 111 109  99  75  56  40  32  22  22  21  22  29  43  67  92  90  75  58  42  38  36  43  47  48  64  92 119 146 158 163 168 167 169 160 139 111  74  52  47  41  40  47  66  92 100  81  64  52  37  27  24  28  32  35  44  60  96 118  94  52  36  14  75  94  89 138 164 164 162 172 173 173
 149 148 147 146 129  99  68  61  57  41  37  42  29  32  41  49  58  90 110 113 113 109  93  70  46  32  28  27  28  30  48  80 109 117 108  96  85  68  56  58  62  53  44  46  58  82 112 140 159 168 178 180 174 160 146 113  68  56  63  65  64  72  92 111 135 155 157 141 113  83  56  52  45  35  34  65  99 116  93  50  42  37  43  98 164 150 153 164 166 172 173 173
 153 150 147 150 142 107  58  27  36  48  56  57  25  26  36  56  69 100 115 118 116 104  89  51  38  33  34  36  39  57  80  81  68  45  25  36  54  69  82  78  64  66  59  51  53  71  99 134 160 177 191 195 183 161 139 114  87  81  83  78  78  79  75  69  73  80 115 152 154 135 104  71  54  45  31  47 106 128  96  44  30  39  54 152 160 120 147 166 170 172 173 173
 155 153 149 150 149 109  63  33  23  18  16  31  19  29  36  54  76 110 114 119 118 105  80  45  36  38  41  46  55  62  46  25  14   9  35  47  33  53  50  80  97  78  63  57  61  71  92 126 157 175 198 198 186 167 143 128 100  80  84  77  47  13  29  56  16  21  30  61 104 136 127  84  66  51  44  56 109 140  99  47  27  32  46 111 107 129 150 171 172 173 174 174
 154 154 150 148 150 132 109  34  17  15  11  25  17  24  41  54  87 112 114 110 107 103  71  46  37  43  49  54  48  36  24  23  18   9  14  27  39 121 108  62  78 108  88  61  75  91  99 123 151 173 197 199 188 172 156 146 122 111 102  54  31  26   9  18  25  45  55  25  28  68 112 110  81  66  68  69 106 134 110  61  35  35  33  85 154 145 158 175 174 174 175 175
 158 158 156 152 155 130  71  41  25  17  19  19  14  17  44  68  96 117 118 117 112 102  65  53  56  59  56  47  30  24  25  44  31  27  22  32  82 179 171 134  68  69 139 105  92 102 105 128 148 172 195 200 191 174 164 163 168 152  67  97  75  46  35  35  40  92 111  68  24  24  57 108 105  86  87  80 104 129 116  74  56  31  37 113 149 155 176 172 173 175 175 175
 160 160 159 159 160 136  85  75  47  25  22  15  12  18  47  73  98 123 124 127 115 100  81  70  64  65  63  55  47  34  45  79  74  56  56  77 152 180 169 153 133 117 139 125 107 107 108 128 152 169 186 192 189 172 164 164 172 162 113 130 134 108  96  83 108 149 133  98  66  45  28  66 114 110 101  97 106 130 124  67  51  31  50 139 175 182 178 175 176 175 177 178
 165 165 163 165 150 133 164 101  47  38  19  12  11  26  42  67  98 122 125 123 110  91  85  87  88  85  89 100  78  63  83  87  97 102 119 127 141 148 164 170 172 161 135 123 121 108 108 134 150 161 179 185 181 173 162 163 170 178 190 161 138 143 146 144 142 127 121 115 105  92  71  53  88 120 111 105 112 133 135  75  44  40  70 158 182 180 178 178 178 178 178 179
 171 170 171 169 166 121 141 104  43  24  14  13  16  34  47  78 102 121 127 125 112  93  76  92  93  93 109 112 104 107 108 107 105 114 138 151 165 162 160 163 158 140 131 129 125 108 114 132 140 158 177 182 178 173 167 166 175 176 176 159 135 122 116 118 121 126 131 142 132 124 140 131 101 110 133 129 127 138 139  82  41  48  73 165 181 181 181 180 179 181 182 182
 177 176 175 173 177 163 117  73  43  23  13  11  15  35  61  84 107 122 123 125 118 105  97  98 100 114 117 120 116 112 112 116 126 136 142 147 153 151 156 162 156 146 139 139 125 109 119 126 129 153 181 190 181 168 166 168 175 184 176 165 157 145 129 126 137 145 157 164 158 157 165 169 143 118 127 143 144 137 138  87  41  30  53 127 174 186 183 182 182 182 183 184
 180 180 179 180 181 129  68  51  40  24  17  17  25  32  56  83 109 115 119 125 122 122 117 114 132 132 126 124 115 110 101 102 107 118 134 147 157 159 159 160 155 152 149 136 118 113 122 121 124 150 188 199 190 165 162 169 173 189 194 185 181 176 166 146 133 127 128 133 146 157 167 166 166 153 140 148 144 139 141  97  43  26  64 143 153 180 187 184 184 184 185 186
 185 185 185 187 180  89  46  44  34  24  24  26  32  32  53  85 106 114 120 121 119 128 134 143 147 151 152 143 140 140 146 141 140 151 152 159 165 166 169 164 158 156 146 130 113 116 121 118 120 147 182 197 190 163 156 165 171 190 195 194 193 186 184 183 173 165 160 152 147 153 163 164 172 173 155 156 148 141 141 107  50  33  77 144 131 147 188 188 187 188 189 189
 189 189 189 193 172  73  48  44  42  36  23  35  38  33  54  85 110 112 115 118 125 135 144 139 146 160 156 153 148 147 148 154 162 166 162 165 162 160 170 165 163 152 142 123 115 119 119 117 121 144 185 195 176 160 154 164 172 181 195 200 198 195 194 194 192 188 189 193 184 180 184 179 186 177 167 163 163 150 142 107  49  46  83  91 101 120 180 195 192 192 192 192
 194 192 191 198 172  76  50  48  52  51  36  38  36  31  49  79 103 111 115 119 127 138 137 139 143 146 153 159 156 155 153 158 164 168 166 164 164 159 158 161 159 150 135 125 123 120 119 121 130 164 191 196 181 164 161 166 174 175 187 198 200 198 197 195 197 197 193 191 182 184 182 184 185 179 170 162 163 153 143 110  47  50  61  47  65  98 174 198 195 193 193 194
 193 193 195 200 164  81  57  50  45  42  43  37  31  35  48  71  93 107 114 120 125 130 131 139 133 142 152 160 161 159 156 154 160 166 159 160 165 164 159 162 159 147 138 134 131 122 121 124 155 200 198 199 187 171 167 168 176 183 186 191 196 193 195 195 191 196 199 199 194 189 187 184 179 174 173 161 156 151 139 114  53  43  47  50  57  87 173 201 197 196 195 196
 195 195 196 202 160  83  70  61  49  35  29  30  27  33  37  66  97 111 113 116 122 129 133 131 138 146 148 157 162 163 162 158 166 162 159 165 168 164 164 159 154 149 145 130 123 120 119 138 191 203 196 193 190 181 164 166 175 190 200 200 196 192 193 192 192 195 198 201 198 192 194 186 170 176 176 165 157 147 137 110  60  65  69  51  58  97 177 202 199 199 199 199
 197 197 196 202 165  80  73  68  50  37  31  31  30  30  26  55  95 113 112 113 122 127 127 130 146 147 147 162 173 169 164 160 166 165 170 172 171 167 165 158 155 151 132 116 110 114 132 165 200 195 196 192 194 185 168 162 168 174 188 203 203 202 196 192 194 196 194 194 196 197 194 187 173 177 182 168 159 143 133 103  61  63  91  76  87 119 182 204 201 201 200 199
 198 199 197 201 179  93  73  66  59  57  44  33  25  36  26  48  96 113 104 112 121 127 134 136 151 156 168 181 183 179 166 163 163 169 173 170 166 167 169 164 152 128 112 111 105 116 150 171 179 188 191 194 197 189 174 166 167 172 158 165 191 215 210 199 194 192 196 196 193 194 191 193 186 176 175 171 157 142 130  94  49  53 102 146 146 158 188 205 202 202 202 201
 198 198 199 199 188 107  73  75  71  65  48  33  21  34  30  44  86 105  97 112 119 128 134 139 149 163 174 178 179 181 180 171 170 175 171 170 168 168 171 162 134 103 109 123 112 118 146 163 171 180 199 210 206 197 183 173 160 174 160 129 157 186 209 211 201 194 192 195 196 193 192 191 183 171 162 162 157 140 130  95  45  44 103 164 168 168 187 205 202 202 203 204
 199 199 198 199 190 112  85  98  74  56  43  33  22  26  30  43  80 101  98 109 110 128 131 133 147 166 172 173 179 184 179 174 170 173 173 174 179 176 162 144 112 110 124 133 118 114 128 142 153 173 203 206 205 200 188 172 152 170 176 150 128 153 185 205 206 203 197 194 195 193 191 188 180 172 163 157 156 140 121  85  43  50 131 151 163 165 189 206 206 205 204 205
 201 199 198 201 190 117 105 111  76  52  47  59  25  24  29  46  80 100  98 103 112 113 125 136 150 159 168 175 179 183 179 170 169 177 174 175 174 165 153 133 112 110 127 137 127 104  99 110 124 148 162 169 181 179 170 156 150 179 179 167 136 132 158 185 202 207 204 199 193 191 193 191 183 177 161 153 151 138 116  70  28  73 162 159 167 174 193 208 207 206 206 205
 201 201 200 202 193 120 108 117  90  59  72  82  40  23  29  46  83 103  96  99 106 107 120 136 148 159 161 168 172 174 174 176 168 172 179 174 169 150 135 127 107 105 120 133 129 105  78  71  87 111 131 145 150 148 142 130 154 183 175 164 157 135 145 165 190 200 204 205 202 195 194 189 181 177 164 151 140 131 114  58  30 105 179 184 170 185 195 208 207 206 207 207
 202 203 203 203 199 131 104 120  97  66  72  69  60  35  38  57  84 100 101  98 100 102 113 128 147 156 160 164 159 160 163 165 165 166 169 167 160 142 133 124  93  99  99 103 102  89  69  59  63  81  97 102 105 116 115 107 127 143 149 151 176 158 147 158 178 192 199 201 203 197 195 187 181 174 169 151 133 124 107  57  55 121 170 192 173 186 198 210 207 207 207 206
 204 203 202 202 205 140  99 126 109  68  62  73  73  44  35  56  82  96  98  97  99 107 107 125 140 145 149 152 150 151 156 160 161 161 157 148 145 134 142 129  82  80  74  59  47  35  25  27  45  61  62  62  71  81  57  36  46  68  94 127 188 183 155 157 168 184 194 194 197 195 193 186 178 171 165 152 128 116  95  58  98 137 172 190 166 187 200 211 209 209 209 208
 205 203 203 204 210 159  95 116 119  75  69  85  78  56  48  70  75  83  96  95  93  97 108 124 130 132 140 140 143 149 155 150 153 151 142 130 127 139 144 128  70  48  51  39  17   5   3   4  14  43  52  51  58  34   3   4  22  41  59 124 201 193 156 150 163 176 184 185 192 193 191 185 177 170 162 150 130 121  85  59 120 156 182 186 160 189 204 210 209 209 210 210
 204 204 206 206 209 178 110  92 114 130 139 120  70  53  57  64  77  93  91  91  89  90 108 114 121 124 135 136 141 144 144 145 142 138 130 119 128 142 132 119  82  44  37  32  24  18  16  12   8  15  37  41  40  53  48  45  48  63  96 154 193 195 171 147 152 167 174 178 181 186 184 179 172 167 158 138 123 113  80  80 150 161 191 177 160 190 209 212 211 211 211 212
 203 206 205 205 209 192 135  89  92 145 146 124  66  59  48  69  89  92  86  89  94  93 102 110 112 120 128 132 135 137 136 133 128 112  95 104 132 134 124 107  96  84  71  68  65  63  57  50  38  39  28  38  83 104  97  95 107 127 155 161 178 188 180 158 143 153 165 168 177 179 176 179 173 164 152 135 130 113  76  94 146 155 190 170 161 190 213 213 211 211 211 212
 204 205 207 206 209 195 146 118 124 134 115 107  82  63  54  68  73  87  91  85  85  85  92 104 106 119 123 121 123 125 123 108  95  74  86 116 124 125 117 111 110  88  74  71  73  75  80  92  89 111  71  82 131 121 108  98  98 116 125 146 156 180 186 157 130 131 147 163 171 174 175 174 166 158 150 137 131 114  83 108 154 163 177 153 166 189 213 212 211 213 215 212
 208 207 208 208 209 198 152 160 150 126 108 111 112  72  54  63  66  82  87  78  76  82  93 102 104 113 117 113 116 109 102  77  50  72 113 119 116 112 101 107 106  78  70  77  72  73  84  91 149 117  72  70  94 128 125 103 106 100 108 141 142 162 178 165 110  84 106 137 152 162 171 168 160 157 149 126 120 103  73 115 164 177 167 156 171 186 214 216 212 215 215 215
 210 208 208 209 211 205 166 152 146 133 132 132 111  83  68  63  71  80  83  75  75  87  90  91  99 105 109 115 114  97  67  37  61 107 109 104 100 100  96 101  82  76  83  86  64  93  96 110 128  87  68  56  86 122 134 109 103  88 105 131 141 147 153 161 132  67  61  96 133 158 165 159 156 146 136 123 114  95  64 120 166 180 187 177 175 185 216 216 213 215 216 216
 208 208 209 207 209 209 161 129 132 145 145 113  83  68  48  49  72  74  79  75  76  87  78  83  94  98 106 107  99  69  34  62  98  99  85  89  88  87  87  91  81  91  95  84  81  92  98 119  92  79  71  52  95 118 121 105  91  97 101 113 129 138 137 138 139 103  52  75 115 150 163 161 157 131 113 117 109  90  82 145 168 184 198 195 179 187 217 217 217 218 218 218
 210 211 211 210 211 212 142 104 114 117 103  82  58  58  39  49  74  65  55  57  67  74  70  73  82  99 105  99  82  40  48  83  81  77  78  74  74  80  78  80  87  90  82  77  88  90  92  91  92  84  80  72  98 121 122 102 107 113 100 101 122 133 128 122 119 116  81  69 109 144 154 150 143 122  96 104  97  88 100 171 173 176 193 199 182 179 216 218 218 218 219 220
 212 211 211 210 211 218 172  82  69  68  61  51  71  90  46  55  62  54  51  56  68  63  71  73  84 104  96  90  62  52  80  86  68  62  66  71  70  72  75  86  85  87  74  84 100  91 110 122 100 110 106 114 122 123 114 115 125 110  91  91  98 120 128 112  96 118 105  62  90 138 147 140 127 111  91  91  95  63  75 133 164 176 183 182 165 170 217 219 220 219 220 220
 214 212 211 211 213 212 215 178 118 104 115 110 101  87  44  52  55  54  55  45  58  59  55  62  87  91  92  67  36  61  77  75  68  72  67  72  71  74  80  75  85 100  91  99 118 110 119 137 132 130 138 169 164 165 157 127 135 122  98  85  88 104 117 117 121 111  99  66  84 135 138 138 110  98  93  83  83  60  92  95 112 157 167 160 141 185 224 219 221 221 222 222
 212 212 211 213 213 211 210 213 216 215 212 195 143 110  56  42  49  59  50  45  55  45  49  60  88  83  97  55  42  67  73  66  60  63  66  69  63  67  71  70  79 104 100  84  82  84  90 105 108 116 127 131 132 134 130 134 137 133 106 104  98  96 110 114 121 102 101  75  75 128 139 139 112  94  89  76  76  53 140 193 107  99 117 122 160 218 222 220 221 220 221 221
 212 212 210 210 209 208 209 208 209 208 202 191 155 128  68  42  53  55  49  51  55  42  60  58  79  92  89  56  51  59  56  52  35  43  47  53  47  52  61  73  70  70  57  49  49  49  49  51  54  59  60  62  65  66  73  78  88 107 104 113 104  94 101 104  97  94  97  81  71 116 136 136 108  85  79  77  77  60 157 228 221 190 186 204 225 224 221 220 221 222 223 223
 206 207 207 207 206 207 208 207 206 203 207 178 145 153  74  48  53  54  54  53  52  44  48  56  80  87  74  53  54  64  51  36  32  34  28  37  45  45  53  55  42  35  34  36  29  34  36  35  29  30  33  34  33  26  32  33  40  58  82 114 108  98  80  73  79  78  92  80  79 120 134 126  84  70  75  76  65  82 195 226 224 227 228 224 223 224 223 222 221 223 223 223
 202 203 203 202 203 203 205 204 204 200 197 186 140 133  79  49  55  52  48  49  53  52  40  50  62  73  75  51  44  61  54  40  22  17  18  26  31  32  30  29  23  14  24  35  30  46  58  52  33  27  29  30  23  19  22  16  18  30  47  71  79  82  72  45  61  72  90  87  89 122 125 110  83  62  72  79  61 105 206 226 222 222 222 221 221 223 223 223 222 225 223 221
 197 197 198 197 198 198 198 198 199 193 184 193 164 148  86  48  54  51  48  53  50  47  37  36  67  77  80  56  45  45  43  37  17   9   8   6   3   5  10  21  38  55  75  93 101 114 115 116 115 122 127 121 100  75  48  26  15   9  14  26  36  38  44  34  58  79  89  91  90 114 103  85  78  81  74  76  54 124 222 222 221 221 221 221 221 222 221 222 223 222 220 220
 190 191 191 192 192 192 193 193 192 186 180 191 150 122  86  51  51  52  55  54  46  42  36  24  54  79  77  63  39  35  34  32  32  34  41  29  19  27  50  83 107 121 130 137 140 153 157 156 174 183 185 186 181 171 162 137 108  78  57  48  52  41  33  49  74  79  89  98  96 114  98  82  70  81  73  70  59 139 214 221 217 218 216 217 218 219 218 218 218 217 218 219
 182 183 184 184 185 185 185 186 186 182 175 184 169 113  79  57  51  49  51  48  47  50  36  24  43  68  73  73  47  34  33  48  69  76  67  64  65  76  97 109 124 139 146 149 156 166 175 181 189 189 189 189 190 187 186 181 172 154 138 118 109 104  81  97  91  70  79  96 103 100 100  90  71  85  77  70  62 171 211 212 212 214 213 213 216 216 214 216 216 215 214 215
 172 175 174 176 177 177 178 178 179 178 172 170 181 129  84  61  43  39  46  49  44  51  44  33  44  63  76  56  45  43  38  64  90 100  87  81  84 101 117 117 118 135 140 128 128 130 134 147 146 147 159 155 155 161 153 156 154 151 143 141 145 147 144 114  89  73  76  95 106  90  86  93  81  78  81  77  83 187 209 207 208 210 209 210 211 210 208 209 211 211 210 210
 167 167 167 167 168 169 173 172 170 172 170 166 168 141 104  64  43  41  44  45  43  42  41  33  36  63  55  70  68  41  38  64  91 100  91  88  87  94  95 106 105 103 103  91  83  90  95  97 101  99  97 112 122 129 134 137 133 144 142 137 139 141 146 112  75  65  74  76  83  88  75  76  78  72  69  70 111 200 205 205 204 204 205 205 203 204 204 205 206 205 204 205
 159 159 160 160 161 162 163 164 163 164 164 159 156 127  92  67  51  45  42  46  46  42  37  23  28  51  54  70  49  25  35  55  74  81  84  77  78  66  75  83  90  92  81  72  76  82  85  84  84  96  81  96 107 112 116 113 121 124 130 139 142 119 105  89  75  62  65  66  63  75  64  71  64  66  71  60 136 198 197 197 197 198 196 197 198 198 199 200 200 199 199 200
 148 149 150 149 152 152 152 154 154 155 155 156 157 113  77  52  49  48  40  44  43  48  33  24  32  41  51  52  34  34  42  44  55  78  88  83  59  53  61  59  66  77  73  79  75  73  72  70  70  90  78  74  77  95 105 111 110 126 127 132 143 109  75  63  52  44  60  58  46  61  56  63  64  62  61  66 147 190 189 190 190 191 191 193 192 191 191 192 192 193 193 193
 140 140 141 142 143 144 145 145 146 146 147 148 141  91  67  43  45  37  39  31  32  40  28  34  31  31  40  50  53  54  43  36  54  79  87  73  62  54  49  47  55  67  70  76  72  77  71  71  73  91  92  84  86 109 122 122 113 128 126 121 113 101  71  55  47  45  54  52  41  51  55  49  54  58  53 102 174 182 182 183 183 183 183 184 184 185 185 184 184 186 185 186
 136 136 137 137 137 139 140 140 140 141 141 143 131  87  65  39  38  39  36  33  32  30  33  38  22  22  35  64  63  38  30  40  56  69  73  71  78  70  63  59  69  69  69  68  62  70  74  79  80  99 106 105 118 130 149 153 144 132 114 110  92  76  81  70  64  53  56  45  46  47  50  49  53  52  52 130 174 174 173 175 175 174 173 175 175 176 177 177 176 177 177 178
 137 138 138 138 139 139 139 139 140 140 141 142 131  76  64  43  40  47  42  29  28  26  32  34  23  20  33  47  45  31  29  42  49  48  61  75  86  87  87  75  75  76  71  68  67  73  76  85 104 117 131 147 174 167 171 168 152 122  88  81  83  76  76  68  45  44  55  38  50  51  54  62  53  35  85 159 165 164 166 165 166 166 165 166 167 167 169 169 170 170 169 171
 137 137 138 138 139 140 141 141 142 141 141 144 131  85  64  40  32  37  33  28  28  21  25  26  23  20  21  36  45  40  40  43  39  33  49  66  66  94  96 103 106 105 101 109 103 103 120 140 156 161 166 178 199 193 174 145 128 104  88  82  81  60  64  87  56  43  45  41  44  47  47  51  55  49 110 159 155 154 154 153 155 157 157 158 158 158 159 160 161 162 161 163
 136 137 138 138 140 140 140 141 142 142 142 145 120  82  73  41  31  33  30  35  25  24  25  29  34  23  30  43  35  47  40  37  32  31  42  60  69  85 100 118 119 132 132 130 121 130 151 158 166 178 186 184 175 183 177 137 117  96 100  87  65  67  66  68  53  45  43  38  37  35  39  48  48  75 133 150 147 148 148 148 149 149 149 150 152 151 152 152 153 154 154 154
 136 137 138 138 138 140 141 141 141 142 144 142 101  83  86  47  29  34  28  24  26  24  19  22  30  24  28  34  35  33  32  33  31  41  44  44  62  70  97 113 117 123 121 125 133 146 162 155 172 174 178 201 180 161 163 141 114  96  84  81  61  81  75  68  61  49  43  40  38  31  31  47  39  76 145 148 146 146 145 145 146 146 146 147 147 147 148 148 148 150 149 150
 135 137 138 138 139 139 140 140 141 142 142 137  96  80  90  58  31  33  37  24  28  24  21  23  23  23  22  20  28  37  36  39  45  37  39  44  59  70  76  96 118 105 104 139 138 149 165 179 200 200 180 192 188 149 132 132  88  85  84  76  73  66  56  54  54  49  49  45  38  32  34  42  50 102 145 146 146 145 145 144 145 145 146 146 147 147 148 148 147 149 148 150
 137 137 139 139 139 139 140 140 140 141 146 133  84  80  80  61  39  30  35  26  23  31  31  19  19  23  21  20  27  33  30  31  39  44  35  39  64  65  72  82  96 102 111 132 129 149 172 184 177 196 184 181 186 165 139 125  87  74  79  69  71  71  60  40  38  47  45  40  35  32  33  43  65 130 148 147 145 145 145 144 146 145 146 146 146 147 148 149 149 149 149 150
 138 139 140 140 139 140 141 140 141 144 134  99  71  82  83  66  42  27  28  26  21  25  23  21  20  18  25  25  21  27  21  22  31  38  30  44  54  54  63  70  73  97 113 123 131 147 160 170 169 198 187 152 153 171 152 105  82  70  79  73  74  65  62  47  33  41  48  36  33  34  32  53  76 136 150 147 146 145 145 144 145 145 146 146 147 147 148 149 149 150 150 151
 139 139 141 140 140 140 141 143 141 113  71  58  74  83  78  70  47  29  32  30  20  20  21  23  18  18  25  21  22  23  15  26  36  31  34  42  44  52  51  57  73  93 109 120 135 121 136 156 173 171 168 140 129 140 120  90  71  64  84 105  84  57  55  38  39  39  45  33  26  26  32  52  84 141 147 146 145 145 144 144 145 145 146 148 146 147 148 149 149 149 150 150
 140 140 140 140 140 141 145 136  99  77  54  49  80  81  75  73  56  31  27  35  24  18  22  22  17  17  20  20  22  19  23  39  34  29  48  41  43  46  50  51  59  85 110 114 132 114 122 136 150 153 146 128 123 135 111  86  83  79  64  79  89  44  32  34  37  38  36  29  26  30  37  54  85 145 148 145 145 145 144 144 144 145 145 146 146 148 148 148 150 150 150 151
 140 140 139 140 141 142 140 105  80  66  39  55  85  76  72  67  55  39  29  36  31  18  18  18  18  25  21  17  19  18  16  23  24  23  37  27  37  41  44  40  46  85  99  98 117 126 110 119 139 143 129 127 132 115  96  77  97  71  47  57  72  40  24  30  27  22  31  27  26  34  52  64 104 148 145 145 144 145 144 144 144 145 145 146 147 147 147 149 149 151 151 150
 140 141 141 141 140 144 119  87  75  58  37  57  80  76  73  66  62  57  38  31  31  22  16  19  21  22  17  15  23  16  12  20  18  21  21  28  29  30  39  32  51  63  69  86 109 113 115 110 111 113 105 112 112  90  69  63  66  65  53  59  49  34  25  25  23  23  24  23  28  40  63  71 122 150 145 146 145 144 144 144 144 146 145 146 146 149 149 150 151 151 151 152
 142 142 142 141 143 138 105  85  74  59  45  69  73  65  67  70  65  65  55  33  34  26  20  16  16  17  17  16  14  12  18  21  14  20  19  23  23  26  29  25  37  47  54  75  89  91 100 100  94  88  91  91  74  66  61  59  54  56  56  45  43  32  22  20  18  18  29  26  33  47  61  68 130 147 145 146 145 145 144 145 145 146 147 147 147 149 151 150 152 151 151 152
 142 143 143 142 145 125 100  82  73  62  54  84  70  64  63  70  66  55  46  39  42  34  22  17  15  16  16  17  13  13  15  16  13  12  14  23  25  23  24  26  28  33  47  61  71  73  70  69  69  71  80  69  54  57  59  47  38  42  38  37  37  28  15  20  21  19  27  28  41  56  59  72 136 146 147 146 145 145 146 145 146 147 147 148 150 151 151 151 152 152 151 151
 142 142 143 142 140 115  99  75  69  66  65  68  60  65  66  66  61  60  46  36  33  27  24  22  19  16  15  17  17  15  14  13  12  12  13  21  21  18  24  24  25  26  36  41  48  54  46  54  54  57  62  43  39  42  46  32  30  34  27  29  34  21  19  19  20  26  28  33  52  67  61  90 142 147 147 147 145 146 146 146 146 146 147 150 150 150 151 151 151 152 152 151
 142 143 142 145 129 107  88  71  70  64  64  70  61  68  66  69  56  59  51  36  33  28  22  20  23  19  17  15  17  16  15  14  14  13  12  11  12  15  17  18  21  25  31  26  36  31  30  40  44  35  35  33  28  23  30  25  25  25  20  18  17  16  21  19  20  28  30  37  52  72  66  82 140 147 147 147 146 146 146 146 146 147 147 149 150 150 151 151 152 152 152 152
 142 142 145 139 107 101  85  74  70  73  60  59  65  67  70  65  62  64  58  42  31  26  23  23  21  18  18  15  16  15  15  15  16  12  14  13  12  12  15  16  16  21  26  21  23  20  19  20  23  23  23  28  38  32  22  25  20  18  22  14  14  16  16  20  24  35  37  47  54  67  57  43 113 154 147 146 148 147 146 146 147 147 148 149 150 151 151 151 153 152 152 151
 143 144 145 112 102  97  76  72  69  70  62  56  63  63  67  66  64  62  57  50  37  29  21  17  21  19  15  16  15  17  16  15  15  14  15  14  11  10  11  13  15  17  15  16  17  17  15  17  16  19  19  21  27  27  15  17  14  15  18  15  14  18  20  20  26  33  45  52  65  61  54  28  35 128 152 146 146 146 147 147 147 148 148 149 150 151 152 152 151 152 152 152
 143 149 132  88 100  84  74  79  75  71  61  51  65  65  63  61  56  58  56  50  45  34  23  18  18  18  17  15  15  15  15  15  14  14  13  14  13  13  13  14  13  13  12  13  13  14  13  13  13  14  14  14  13  13  13  13  13  15  16  17  17  21  25  25  27  39  57  62  75  72  70  27  15  58 146 150 147 147 147 148 148 147 148 149 150 151 152 152 151 152 151 152
 147 132  99  95  98  73  74  75  74  72  58  45  67  67  62  59  54  59  60  45  40  35  29  26  20  17  17  16  15  15  16  16  14  16  16  14  13  13  11  10  11  11  11  12  12  12  13  14  13  10  11  13  14  12  13  12  13  16  16  20  21  23  26  32  35  46  67  82  76  76  62  24  21  22  95 155 147 147 147 147 148 148 149 149 151 151 151 152 152 152 152 152
 121  99  88 105  85  68  73  66  68  70  69  46  56  61  59  63  62  60  60  53  43  42  38  29  26  18  17  18  17  15  15  16  16  16  15  13  14  15  13  12  12  12  14  13  14  12  16  16  14  12  12  15  14  14  15  16  17  17  21  26  31  35  29  36  41  56  81  82  76  85  50  21  21  19  40 134 152 147 147 147 148 149 149 150 152 151 152 151 152 152 152 153
  92  88  92  96  75  66  67  69  67  65  71  56  52  64  61  67  66  63  65  57  46  41  36  29  22  18  16  18  19  17  15  15  16  14  14  15  14  14  15  14  13  13  13  13  14  14  14  13  13  13  14  17  16  14  17  19  18  22  26  29  30  36  36  45  51  61  78  72  82  89  42  17  19  19  20  82 153 148 148 147 148 148 150 150 150 151 152 152 152 153 152 152
  81  81  91  81  73  66  70  64  61  61  72  68  51  62  64  59  64  65  63  56  49  42  33  30  26  22  21  19  20  19  18  15  15  16  16  15  14  13  14  14  16  15  15  15  15  14  13  13  15  15  16  16  17  17  19  20  21  25  29  31  33  34  46  57  62  70  79  72  85  75  30  19  22  19  20  34 124 152 149 149 148 148 150 149 151 150 151 152 153 153 153 152
