P2
# Generated by OpenCV 4.2.0
92 112
255
 159 151 148 140 120  84  50  38  36  37  36  36  34  35  36  37  36  36  38  39  40  42  48  49  46  41  38  41  43  46  45  55  44  39  37  34  32  35  41  34  46  56  48  48  67  60  67  61  59  38  29  43  38  31  37  45  43  42  41  41  40  39  40  40  40  40  40  41  41  40  40  41  41  41  41  41  41  41  41  41  42  44  43  42  44  43  43  43  42  42  43  43
  69  61  60  55  47  39  36  36  36  35  37  35  35  35  35  36  36  37  37  38  38  38  38  39  38  38  39  42  48  48  59  46  42  40  37  41  46  47  43  51  60  60  53  60  63  66  64  57  50  46  44  42  41  42  41  38  46  45  45  44  41  40  39  39  40  40  40  40  40  40  41  41  41  41  41  41  41  41  41  41  42  43  42  42  43  42  42  42  42  44  44  44
  32  32  32  33  35  36  35  35  35  36  37  35  35  36  36  36  36  37  37  37  38  38  38  38  37  39  40  44  51  57  69  48  50  44  47  47  56  58  52  64  73  73  65  64  66  68  62  54  57  55  54  54  55  54  56  46  45  46  42  47  49  42  42  42  42  40  40  41  41  41  41  40  40  41  41  41  41  41  41  41  42  43  42  42  43  43  43  42  42  43  43  43
  36  36  35  35  35  35  35  35  35  36  35  35  35  36  37  37  37  37  38  37  38  38  37  39  42  41  40  49  56  65  72  51  55  54  56  59  66  68  64  80  87  80  71  64  71  73  61  62  63  61  68  69  76  75  68  62  56  55  57  49  51  54  50  43  41  41  40  42  41  41  40  40  40  41  41  41  41  41  41  41  42  42  41  42  43  43  43  43  43  43  42  43
  36  36  35  35  35  35  35  35  35  35  35  34  35  35  37  37  37  38  38  37  38  39  41  43  42  44  49  52  61  71  72  60  62  66  65  70  78  77  76  90  96  88  75  72  70  84  62  70  68  70  78  86  93 100  94  86  77  70  64  57  55  56  57  50  47  43  40  41  40  40  40  40  40  41  41  41  41  41  41  41  42  42  41  41  42  43  43  43  43  44  44  44
  35  35  35  34  35  35  36  35  35  34  35  34  34  35  36  36  37  37  38  37  38  39  41  46  44  41  52  63  62  69  79  80  72  76  70  74  80  90  90 102 114 107  92  86  75  84  77  70  78  75  85 100 108 115 114 114 105  97  90  68  59  57  55  54  58  55  46  42  41  40  40  40  40  41  41  41  41  41  42  42  43  42  42  43  43  43  43  43  43  44  44  43
  35  35  34  34  34  35  34  34  35  35  35  35  35  35  35  36  37  37  38  37  38  38  37  41  54  54  57  69  89 107 108  97  87  81  91  98 101 106 111 111 120 120 109 105 106  92  93  82  83  92  95 112 126 137 140 133 123 115 111  94  78  68  65  64  65  59  54  45  43  42  41  41  41  41  41  41  42  42  43  43  43  43  43  43  43  43  42  43  43  44  45  43
  35  35  33  35  34  35  35  35  35  35  35  35  34  35  35  36  37  38  38  38  39  41  49  44  52  68  71 103 153 161 147 131 116  96 107 122 131 138 137 130 131 130 130 126 128 128 117 106 109 112 113 131 139 145 146 145 140 127 130 130 113  87  72  71  67  64  60  55  44  44  42  42  42  42  42  42  42  43  43  43  43  43  43  44  43  43  43  43  43  44  46  44
  35  35  34  35  35  36  37  35  35  35  35  35  34  35  35  36  37  38  40  40  46  57  52  49  56  71 120 145 169 177 177 170 150 122 126 152 160 166 168 163 162 162 165 159 159 160 145 145 150 149 149 157 157 157 157 155 149 146 148 143 134 121  99  70  62  68  69  57  47  44  43  42  42  42  42  41  42  43  43  43  42  42  42  42  42  43  43  43  43  43  43  44
  34  35  34  34  35  36  37  35  35  35  35  35  36  37  36  37  37  40  42  41  45  47  45  52  65 127 171 168 169 187 194 191 177 161 157 173 189 184 182 183 186 185 186 181 179 185 175 173 182 182 175 174 170 166 166 164 165 162 155 149 145 139 128 103  71  63  69  64  52  48  42  42  42  41  42  42  42  41  42  41  43  42  42  41  41  42  42  43  43  43  43  43
  34  35  35  36  36  36  37  37  37  36  36  35  35  36  37  38  38  42  43  43  42  50  62  76 130 167 179 188 189 191 191 195 193 182 186 191 198 197 194 196 193 195 198 201 193 195 195 190 188 189 185 183 180 170 168 165 164 165 163 157 151 144 136 124 101  77  69  78  61  52  42  42  42  41  42  42  43  41  41  42  42  43  42  42  42  42  42  42  43  43  44  43
  35  35  36  37  36  36  37  37  37  37  37  36  35  36  38  37  37  45  44  40  46  70  82 133 158 170 188 195 196 196 191 193 198 202 200 204 207 205 206 209 206 205 206 206 204 200 201 198 193 189 189 186 184 176 171 166 161 162 163 158 154 144 141 139 122  99  75  74  78  54  47  42  42  41  42  42  44  42  41  41  42  43  42  42  41  42  42  42  43  43  44  43
  34  34  35  35  35  36  36  36  37  37  37  37  38  37  38  39  39  41  44  43  70  85 127 157 164 175 190 192 192 190 195 198 199 204 204 205 206 207 211 213 211 212 209 205 205 202 201 199 193 190 190 187 182 177 174 172 163 159 158 158 154 146 146 150 141 121  88  68  72  63  49  51  42  40  41  42  43  43  42  42  41  41  42  42  41  41  41  42  43  43  45  43
  35  35  36  35  35  35  35  35  37  38  38  37  37  37  37  38  40  38  37  71  76 115 155 159 169 177 192 192 190 194 197 197 195 198 203 205 210 211 212 210 208 207 209 208 206 206 204 196 195 196 191 186 183 179 174 171 163 158 156 155 151 147 144 149 150 136 110  79  62  71  60  54  50  40  42  43  43  43  42  42  41  41  41  41  41  41  41  42  43  43  44  44
  35  35  35  35  35  35  35  36  36  38  38  38  37  37  37  38  39  37  64  77  98 151 160 164 166 181 187 187 190 192 194 195 199 204 207 208 212 212 211 208 205 208 208 208 207 206 203 199 198 196 194 191 186 181 176 174 167 162 161 153 148 146 144 143 154 145 126 106  73  64  75  52  56  50  38  40  42  41  41  40  41  42  41  42  42  42  42  42  43  43  44  44
  34  35  35  35  36  36  37  37  35  38  36  37  36  35  35  38  41  50  72  84 142 155 164 163 168 179 182 186 190 194 195 199 205 205 203 206 211 211 212 212 210 210 208 208 209 206 206 203 199 197 196 196 188 184 179 177 173 166 166 160 151 145 142 140 148 151 138 123  96  72  65  59  42  56  47  32  36  41  41  41  42  42  43  43  42  42  42  43  43  43  42  43
  34  35  35  35  35  36  37  37  37  36  37  37  37  35  35  35  46  66  71 126 152 158 161 164 174 182 185 188 193 198 201 207 208 207 205 206 210 212 211 212 211 209 208 207 207 206 203 202 200 197 195 193 193 189 178 174 176 171 165 166 161 153 147 145 141 147 147 135 119  83  68  69  52  33  50  40  33  41  42  42  41  41  42  43  44  43  42  43  43  43  43  43
  34  34  34  34  34  35  35  36  37  35  37  37  37  37  36  36  54  68 100 149 152 159 163 172 178 184 187 191 200 203 205 207 209 212 211 211 211 212 213 209 208 207 206 203 205 202 200 201 200 198 197 196 196 191 182 173 171 176 174 170 163 159 151 148 141 133 142 137 133 106  77  71  66  43  36  47  42  42  42  41  40  41  42  43  43  43  43  43  43  43  44  44
  35  34  34  34  34  35  35  35  35  36  37  37  36  38  38  35  58  91 137 148 157 163 171 176 180 186 191 198 202 205 208 209 211 211 212 211 210 211 212 209 209 206 205 201 203 200 200 201 199 199 199 199 198 192 183 179 172 172 176 170 163 158 154 151 148 135 132 136 137 125  85  77  70  48  25  33  43  41  42  41  42  42  42  43  42  42  43  43  43  43  44  43
  34  34  34  35  35  35  35  35  35  36  37  37  37  37  38  45  76 118 151 153 165 168 174 179 184 189 195 198 202 205 210 210 210 210 211 210 211 211 210 210 208 206 205 205 206 204 204 205 199 199 200 199 198 194 186 183 178 175 177 171 167 160 159 158 151 144 125 133 139 136 102  79  82  66  41  27  19  27  39  41  41  43  43  43  43  42  42  41  43  44  44  43
  34  34  34  35  35  35  35  35  35  35  37  37  37  38  33  52  95 139 151 162 167 172 176 183 185 190 198 201 207 208 209 211 209 209 210 209 209 209 209 210 208 207 208 208 211 207 208 206 203 201 201 199 197 196 190 184 182 177 177 173 169 161 158 157 147 142 127 132 144 137 118  84  79  73  61  42  22  25  32  39  41  43  44  44  43  43  42  42  43  44  44  44
  34  34  34  35  35  36  36  36  35  37  37  37  37  37  31  70 120 147 154 167 167 172 176 181 184 192 197 203 205 206 209 209 208 210 207 208 212 210 211 211 210 210 207 208 209 208 206 204 204 205 201 197 196 194 189 186 184 180 178 175 171 169 162 155 147 138 130 130 144 139 122  90  71  70  55  39  21  19  28  39  41  42  44  44  43  42  42  43  45  44  44  44
  34  34  35  35  35  36  36  37  37  37  37  37  36  33  46  92 135 143 158 168 169 176 180 182 184 193 201 201 205 208 207 206 207 210 208 208 211 212 213 213 210 207 207 210 209 208 207 205 205 204 201 197 192 188 189 188 182 181 179 176 175 170 165 160 149 138 135 134 149 147 133 101  71  60  67  43  32  23  27  36  39  42  43  42  42  41  41  43  44  44  46  47
  34  35  35  35  35  36  36  36  37  37  37  36  37  33  73 109 144 142 157 167 175 178 183 185 187 193 202 202 206 210 208 208 208 210 209 208 210 213 213 213 212 214 214 212 214 208 208 205 204 205 202 201 197 193 190 187 183 183 180 177 174 171 165 159 149 138 135 136 146 152 144 121  80  61  69  53  25  26  26  33  39  40  42  43  42  42  43  43  45  46  47  47
  34  34  34  35  34  34  35  35  36  36  38  38  35  43  93 127 139 143 160 168 174 181 184 185 186 194 198 200 205 207 208 207 208 209 209 207 208 212 213 214 212 210 212 210 211 211 211 210 206 204 204 200 196 196 191 187 185 183 181 178 174 171 168 158 148 138 139 135 144 149 144 136  90  69  70  61  30  26  28  31  35  39  41  42  42  42  43  43  43  44  44  44
  35  34  34  35  35  35  35  35  35  35  39  37  32  58 106 141 137 141 164 170 176 184 187 189 188 193 197 197 199 206 209 207 209 212 209 208 208 211 215 213 213 209 209 209 215 216 214 210 204 199 199 197 196 191 192 189 186 184 183 180 179 174 167 160 152 140 143 140 144 144 140 143 108  68  78  59  36  34  28  36  35  36  43  42  42  42  42  42  42  42  43  43
  35  35  35  35  35  35  35  35  35  34  37  41  36  73 119 148 135 145 165 173 180 183 184 186 188 190 194 197 199 207 210 209 210 212 211 211 210 213 213 211 210 212 213 213 216 213 210 210 207 201 200 198 197 193 189 188 186 186 181 181 183 176 166 160 156 142 136 142 146 143 142 142 124  80  66  43  29  32  23  23  42  35  41  42  42  43  42  42  42  42  43  43
  34  35  33  32  33  33  32  34  34  34  34  38  45  80 127 141 133 145 165 174 180 179 182 188 192 193 197 201 202 210 212 208 209 212 213 214 216 217 216 215 211 209 207 209 212 213 210 208 211 206 201 200 198 196 191 187 190 191 185 181 181 179 172 161 152 143 134 138 148 144 142 134 120  88  69  43  26  21  16  33  45  31  40  43  43  43  43  42  43  42  43  44
  31  32  36  41  43  48  52  47  46  43  40  31  49  92 133 135 133 150 164 173 183 182 186 190 196 196 197 203 206 209 209 210 210 210 210 209 214 216 213 214 210 208 206 207 211 210 210 208 210 207 203 201 197 190 184 184 188 189 184 183 181 179 170 165 154 145 138 141 150 149 142 132 111  83  75  54  39  30  21  31  32  32  40  43  43  44  45  44  43  43  43  43
  56  90 121 112  95 119 132 103  87 100 111  79  59 101 138 132 140 155 163 176 184 185 187 190 194 199 201 207 207 206 207 206 205 208 208 208 210 211 214 212 211 209 209 208 211 211 212 212 212 210 206 200 194 189 191 188 190 187 182 184 178 177 166 159 154 149 144 141 148 147 143 132 106  85  69  51  36  38  39  33  35  33  38  42  43  45  47  46  43  44  44  43
 117 160 183 148 116 160 180 129  98 151 185 123  67 104 133 132 141 155 163 176 182 187 188 189 186 190 197 200 202 207 209 206 209 210 210 211 210 209 213 213 211 211 210 209 212 213 212 215 215 213 211 206 202 201 197 194 197 189 188 187 181 176 165 157 153 152 148 140 146 145 145 134  98  84  71  44  32  30  32  31  28  34  35  41  42  43  44  44  43  44  44  43
 111 152 169 110  71 156 183 105  68 157 191 123  68  96 128 134 141 154 166 179 183 182 180 183 188 196 202 203 209 212 211 209 210 211 212 212 214 214 212 212 213 213 213 213 213 213 211 212 211 213 211 210 205 200 198 196 197 193 191 189 184 181 168 160 156 152 148 140 142 143 144 132  98  71  72  49  32  17  21  39  40  43  31  36  41  42  43  43  44  43  44  45
  55 113 139  73  45 146 174  89  46 139 164  94  61  91 128 135 143 157 168 174 178 184 188 192 198 202 206 207 210 210 211 212 211 213 213 212 214 213 213 213 213 215 217 216 216 214 213 215 215 216 211 213 212 207 207 202 196 197 195 195 183 177 172 165 161 154 148 140 140 143 143 125 101  73  63  50  23  20  32  52  47  44  26  32  38  42  43  43  43  43  44  44
  32 107 138  76  46 144 169  86  46 128 139  75  63  95 129 133 147 163 166 175 185 193 193 195 199 202 203 203 208 210 212 213 212 212 217 217 215 212 212 214 215 211 213 217 218 220 220 218 218 217 212 214 215 210 207 202 201 199 197 195 186 177 171 166 159 154 145 140 143 146 140 117  97  82  64  46  28  33  44  53  46  43  26  26  36  42  42  42  43  43  44  45
  31 101 137  79  43 137 167  86  43 124 141  77  63  89 127 136 149 164 167 175 184 191 193 192 195 200 202 201 205 210 213 213 212 216 216 217 218 212 211 218 216 210 214 218 220 223 223 221 219 216 210 216 213 208 205 198 201 199 197 195 187 180 171 167 162 157 141 140 141 144 133 113  92  81  71  38  27  34  31  41  37  45  22  23  33  39  42  43  43  43  43  43
  29  92 129  80  41 130 164  87  43 119 139  80  66  98 136 144 152 163 167 174 185 190 188 187 188 194 200 201 206 208 211 213 211 217 218 218 219 210 209 219 218 220 222 217 222 222 220 216 212 215 210 207 208 202 188 180 167 168 176 198 192 178 169 168 161 158 147 143 141 135 128 110  87  62  63  45  21  29  44  35  48  36  16  20  28  37  42  43  44  43  43  43
  29  82 120  77  39 121 159  91  40 113 140  79  64 108 141 144 154 163 168 176 185 186 186 192 195 195 199 198 199 203 209 215 209 215 219 221 220 206 207 218 221 223 219 210 215 215 211 210 205 201 191 164 154 150 126 115 108  98 104 165 197 181 169 164 160 160 145 137 143 132 121 106  92  57  46  51  29  29  33  36  36  17  18  19  25  35  41  43  44  43  43  44
  29  73 111  75  35 105 147  90  38 111 145  89  60 110 122 140 157 166 166 176 178 161 158 169 176 185 185 183 186 193 205 210 205 213 216 218 220 203 205 216 216 220 217 208 207 209 207 204 187 149 123 109  96  82  73  63  65  69  63  80 139 178 172 163 159 159 144 134 144 126 118 104  85  61  53  46  35  26  29  21  16  15  17  19  24  34  41  43  43  43  44  44
  30  64 100  72  32  88 137  88  37 105 139  89  49  93 117 140 159 168 166 173 138 107 103 109 124 141 154 161 157 170 173 176 189 199 209 215 217 200 201 216 216 215 206 189 192 190 181 157 121  92  77  67  63  67  66  70  62  55  62  65  58 110 159 161 158 161 154 142 145 130 116  88  75  67  70  35  34  29  27  21  14  16  17  18  24  35  41  44  45  44  44  44
  32  55  84  67  34  83 131  89  39 105 135  81  56  94 112 138 160 169 167 143 102  95  85  90  95 101 108 101 100  99 102 137 172 188 195 211 209 198 201 213 214 211 192 176 157 154 141 100  76  66  56  48  45  54  56  65  67  60  52  55  60  51  86 143 155 165 160 149 147 135 106  82  67  73  78  34  40  37  12  15  17  18  18  17  26  35  41  45  47  45  44  43
  32  50  74  65  35  82 131  92  40  92 119  77  66  89 107 141 160 159 120  87  86  77  74  75  80  78  72  64  58  56  69 105 139 169 192 198 201 197 203 210 210 203 181 166 146 134 122  91  70  60  65  80  88  92  97 101  95  74  57  51  58  65  48  90 139 161 155 152 147 134 109  80  61  82  68  39  38  38  18  22  35  25  16  19  27  37  43  45  48  45  43  43
  32  47  73  64  35  80 136  99  42  87 120  87  53  71 102 144 152 109  64  62  71  67  68  67  69  58  40  31  31  38  48  70 107 150 181 190 197 197 203 212 206 198 179 166 155 137 110 104 119 140 154 172 181 183 181 173 149 120 113  96  75  59  49  55 102 151 154 154 149 135 116  84  70  70  39  41  52  37  21  25  25  17  18  21  31  38  44  46  46  46  45  43
  33  44  72  65  36  77 136 106  43  92 131  94  50  59  91 145 124  78  50  41  45  52  55  63  80 100 113 120 128 129 105  87  84 116 166 192 200 199 204 210 202 194 177 162 160 141 139 170 183 184 178 179 188 192 191 186 176 167 150 137 131 104  72  56  78 128 149 154 152 140 122  86  61  51  37  43  56  40  12  12  14  16  18  24  34  39  44  47  46  47  46  43
  33  44  71  67  37  71 132 105  46  84 123  91  49  53  89 149 118  62  30  38  53  71 105 130 153 179 197 200 197 185 185 176 145 110 149 184 195 199 204 207 201 190 179 169 154 150 179 185 171 153 136 127 136 139 149 167 171 165 158 143 127 114 104  89  83 120 147 152 150 141 123  97  67  60  53  49  54  38  13  18  18  16  20  30  37  44  44  46  47  47  46  44
  32  45  74  72  37  65 125 102  41  68 117  92  57  49  86 152 130  69  43  65  85 109 136 157 172 161 145 134 126 123 147 161 168 143 131 168 191 203 209 208 202 186 172 162 152 160 164 150 146 132 103  77  60  53  40  57 100 142 154 146 138 125 114  97  83 109 153 155 147 143 129 100  67  62  74  55  46  33  19  16  21  16  21  32  39  43  45  47  47  47  47  47
  33  45  77  76  41  59 117 100  43  68 115  98  56  36  93 151 139  88  72  88 108 127 134 138 101  57  46  47  45  47  81 124 143 146 124 141 183 209 214 212 202 185 168 160 159 156 141 140 134 129 174 102  63  63  45  41  52  60 111 141 147 142 137 122 113 113 145 160 147 149 137 103  70  48  58  54  51  54  55  61  63  36  20  31  40  42  44  47  45  44  44  45
  34  44  77  75  43  58 113 100  44  66 118  99  52  51 114 156 126  94 101 114 119 122 101  57  58 111  60  62  72  53  81 137 146 157 129 144 179 207 216 214 200 183 166 164 159 151 160 147 132 191 236 151  60  43  46  99 139  64  53 113 147 156 151 126 120 125 145 159 158 154 140 113  76  64  41  58  61  79  95 116 109 103  63  34  41  43  44  47  47  45  43  44
  33  41  74  75  43  55 115 106  47  65 113 102  72  63 121 160 140 111 121 128 115  82  51  52 152 190  88  47  43  56 123 186 126 156 143 151 183 209 214 211 201 184 165 162 162 149 166 141 145 159 180 181 131 104  98 136 134 119  89 103 143 154 152 149 147 143 152 161 161 153 142 115  70  71  56  46  46  65  89  96 101 136 125  49  38  43  45  46  47  44  43  43
  33  39  71  75  45  52 116 111  51  61 121 110  86  62 121 162 145 127 135 138 121  86  85 109 122 153 130  95 114 129 139 149 145 148 146 159 192 212 211 206 197 181 168 158 161 158 174 182 170 164 160 154 158 150 135 141 137 133 141 142 143 148 164 167 167 168 156 162 160 152 139 115  82  53  73  65  47  58  83  77  88 113 135  78  36  44  43  45  46  44  43  43
  33  39  69  76  46  47 108 107  50  53 115 114  92  66 131 163 154 138 147 148 124 128 135 133 117 118 145 156 169 175 171 171 168 154 152 167 201 210 210 201 194 174 167 159 159 160 168 173 165 159 160 165 175 178 159 159 156 155 167 171 158 153 160 167 178 178 164 164 161 150 133 112  83  38  42  66  47  47  61  86 114 109 140 104  37  43  44  45  46  45  44  44
  35  38  66  75  49  45  95  95  51  51 101  96  72  80 134 164 164 159 155 147 135 151 158 156 165 167 174 180 185 181 173 171 163 162 161 175 201 209 206 199 191 177 166 162 158 166 167 165 167 170 173 174 177 179 177 171 168 167 175 178 174 175 172 176 181 181 169 163 157 144 137 115  87  58  36  61  67  82 129 127 154 151 152 120  38  42  46  48  47  47  47  46
  35  39  64  75  48  39  82  93  58  53  87  75  75  84 130 160 165 171 168 163 155 158 161 162 168 175 178 181 182 181 177 174 171 173 170 181 197 207 204 200 190 175 167 164 162 170 179 176 169 179 183 184 182 182 178 174 175 177 181 178 175 187 180 180 181 180 175 161 150 143 132 111  92  63  41  62  56 119 191 153 153 167 167 130  35  36  44  48  48  44  47  46
  34  38  64  80  62  45  83  96  57  41  71  84  77  68 121 155 163 173 171 176 169 159 167 169 168 175 182 187 189 189 187 186 186 177 175 184 197 208 209 202 184 170 173 168 162 171 186 186 184 181 185 192 191 191 191 188 182 184 187 183 189 191 192 178 178 181 173 158 150 140 126 114  95  62  51  58  44  84 172 159 137 167 175 146  32  28  38  43  48  47  44  46
  34  36  62  76  58  44  78  87  52  40  73  87  82  66 117 152 164 169 171 183 182 177 181 186 187 191 191 191 196 199 199 196 189 178 179 186 195 211 209 201 183 168 175 179 172 172 183 193 198 195 190 194 197 198 195 195 185 188 191 189 195 193 192 187 171 175 171 159 147 137 124 113  84  51  53  61  52  85 125 119 120 174 177 158  34  22  34  44  49  46  44  46
  34  35  57  75  54  36  74  93  58  40  73  88  86  51 104 151 160 169 176 183 187 185 183 184 189 195 197 198 196 203 203 197 187 182 185 185 192 211 209 196 182 168 172 185 183 176 179 192 198 196 199 197 194 197 196 196 195 193 193 189 193 188 190 190 177 170 167 157 144 132 124 108  68  41  52  64  53  97 128 120 136 163 176 163  35  16  31  42  47  45  45  46
  35  35  56  75  53  37  81 103  65  41  69  66  89  52  90 146 158 166 177 184 187 193 192 191 198 201 203 203 202 202 200 195 187 188 188 188 197 213 207 196 181 170 170 182 195 191 189 187 193 192 195 196 196 197 198 199 201 195 196 192 185 183 190 185 180 169 159 150 139 131 125 105  54  43  51  72  63  88 123 153 163 148 172 164  39  14  29  39  45  45  47  46
  36  36  58  78  57  36  79 106  69  44  66  61  85  68  78 142 156 164 177 181 187 194 197 197 198 201 203 203 202 199 196 192 194 192 183 186 203 213 206 198 181 166 166 176 191 202 204 203 194 191 193 196 196 199 199 198 198 199 197 192 186 184 190 182 175 168 159 148 137 127 126 102  56  48  57  64  50  79 156 177 189 149 161 163  38  12  27  39  44  45  47  46
  37  34  63  95  69  35  72 102  70  43  65  61  69  66  73 137 152 162 177 179 182 193 199 200 198 201 201 203 200 197 194 197 194 183 178 189 205 211 204 200 187 169 156 166 182 198 208 215 203 198 197 192 194 197 196 195 195 198 199 195 191 183 181 180 172 166 156 146 138 128 116  86  63  56  51  61  59  49 119 147 174 158 159 159  31  13  23  35  43  45  47  46
  36  34  69 106  78  36  69 103  71  45  74  53  62  57  71 131 145 162 174 180 177 192 197 200 197 197 200 201 199 203 200 198 184 175 179 195 210 212 203 198 192 179 161 157 176 182 189 198 209 215 205 196 193 194 193 195 193 196 195 194 190 180 173 171 166 165 159 141 133 125 109  76  62  59  53  60  58  31  45 102 160 152 164 145  18  14  23  35  43  45  46  46
  36  34  67 107  80  36  68 103  72  41  58  51  49  50  76 124 139 163 176 178 183 192 192 192 193 198 201 201 202 204 202 187 173 178 186 201 214 208 203 197 195 190 168 151 170 171 170 180 190 207 217 206 194 193 192 194 192 190 191 188 184 183 175 169 166 158 145 134 130 126 107  72  54  52  60  57  67  48  21  53 156 145 164 131  11  16  22  35  44  45  47  48
  36  34  62 107  84  39  67 102  74  39  49  36  42  49  71 112 131 153 170 173 181 188 190 193 196 199 204 205 206 203 193 172 174 177 187 201 213 209 206 202 198 189 163 150 172 170 162 168 175 185 205 216 204 201 198 193 188 186 185 186 183 179 172 170 160 150 130 124 122 115  98  68  44  47  48  53  51  52  33  53 138 141 165 108   9  16  21  35  43  44  47  48
  36  34  62 111  90  38  64  97  69  45  55  51  37  56  70 102 129 151 166 176 178 184 191 196 198 202 203 202 212 208 182 170 181 170 181 197 211 223 228 212 195 179 158 163 186 178 163 156 172 179 188 206 219 208 200 196 192 188 185 180 179 177 176 166 147 137 127 116 112 105  86  58  40  46  45  45  39  35  35  63 117 136 168  84  11  18  22  34  43  45  48  48
  36  33  62 114  97  41  64  95  65  42  64  42  41  57  64  98 128 151 169 175 179 189 195 199 200 201 201 207 213 197 168 175 188 163 157 180 195 201 208 191 175 162 157 184 188 178 167 147 164 176 183 197 214 219 208 202 197 187 185 177 174 174 175 166 143 127 119 106  98  91  76  53  45  45  51  49  42  36  58  80 109 139 163  69  12  18  22  35  42  45  46  48
  36  33  61 116 101  42  62 107  78  45  54  53  56  53  66 102 115 128 154 175 181 191 196 200 199 203 205 212 210 190 166 170 178 163 136 156 177 180 175 168 156 147 152 162 164 168 162 145 162 184 181 189 207 219 211 203 199 192 188 179 174 172 169 162 140 117 106  97  95  81  62  47  50  35  44  62  60  38  72  75 118 141 152  57  11  18  22  35  43  44  44  47
  36  32  60 119 106  43  62 107  78  49  48  47  58  64  67  90 108 119 153 176 184 191 195 199 199 204 207 210 205 189 171 155 138 117 102 117 151 155 154 150 132  99  73  82 110 139 146 136 162 193 187 187 202 216 211 204 200 195 189 181 175 171 168 157 135 117 104  88  81  76  60  44  55  34  36  56  64  50  53  76 141 150 140  42  11  17  23  35  45  44  46  47
  34  34  55 114 108  45  55  91  79  49  41  47  65  59  60  88 108 125 153 174 184 190 196 197 199 204 208 210 205 192 174 149 143 142 111  77  92 123 124 125 107  74  56  84 128 137 129 129 165 192 195 187 195 205 212 206 198 191 189 183 175 172 164 144 134 116 107  92  71  60  62  41  46  42  28  43  50  50  56  95 166 162 120  28  12  17  24  36  45  46  47  48
  38  31  49 110 106  49  51  94  94  47  50  49  57  51  57  83 101 116 148 175 183 192 197 199 200 206 209 206 198 195 190 166 134 106  60  41  55 110 122 120 115  83  46  46  82 118 142 151 164 183 192 194 185 191 204 203 201 191 185 183 177 171 166 144 122 107  99  92  71  54  53  49  39  49  32  43  47  36  61 115 161 170 105  15  14  18  25  37  44  46  47  47
  85  45  47 113 110  52  51  95  88  46  44  47  45  52  57  77  87 113 153 174 184 191 195 195 196 200 195 191 197 193 168 134  97  56  49  53  79 117 106 104 114  76  54  37  50  84 129 147 151 169 185 190 182 177 190 203 199 193 184 183 180 171 157 137 110  98  84  72  57  56  49  47  47  50  47  41  39  28  86 129 150 157  66   8  17  18  26  37  43  46  46  46
 131  91  81 141 132  55  50 108 102  54  32  37  42  57  59  71  86 109 142 173 182 185 188 187 186 180 174 183 192 176 122  83  62  61  59  59  83  93  65  81 105  90  70  56  56  69  85 111 129 144 163 168 167 157 156 182 200 196 188 183 177 170 150 125 104  94  79  70  56  51  47  50  55  50  54  41  34  27 101 134 136  80  17  15  17  18  28  39  44  47  47  47
 122 113 122 173 163  86  85 158 138  81  42  26  35  47  50  58  78 102 142 170 175 178 179 177 168 144 159 177 166 133  85  59  58  64  51  60  86  92  63  67  92  87  77  61  57  66  66  80 104 124 135 134 135 126 106 141 186 199 196 186 170 150 131 116 110  92  76  68  58  59  42  51  48  51  47  33  27  23  60  62  37  14  14  16  16  18  28  40  46  48  48  47
  76  84 104 152 150 118 132 165 149  85  43  21  40  59  48  55  62  94 139 159 162 181 173 129  95  99 132 134 115  84  65  59  64  56  50  63  86  73  62  60  69  79  73  52  48  66  67  69  93 103 105 115 119 104  81  85 135 181 195 180 165 139 110  95  93  84  73  64  66  62  51  33  44  35  31  23  20  21  20  14  12  15  16  17  18  19  29  40  45  47  48  48
  41  44  51  74  89  88 107 117  97  58  34  21  39  53  54  48  61  88 127 139 159 159 117  69  75 106 112  97  82  64  65  65  68  49  53  64  78  66  57  61  62  76  74  52  50  62  56  63  75  85  84  86  90  90  82  63  84 149 179 162 153 130  98  91  94  85  82  73  63  48  49  32  38  35  19  15  15  17  23  18  17  16  16  18  17  19  31  42  43  45  48  48
  35  36  36  33  36  41  45  47  44  38  24  25  45  44  43  46  69  91 110 132 143 104  73  69  84 106  98  74  80  61  63  62  58  56  63  66  74  62  51  62  72  63  67  63  58  65  49  57  68  71  76  77  74  77  81  73  54 106 148 151 138 114  84  79  75  75  71  72  59  44  41  34  34  29   9  14  15  12  18  18  16  18  18  17  16  21  33  42  43  44  48  48
  34  36  37  36  36  37  36  42  38  35  25  42  53  40  53  60  69  81  90 111  94  70  68  84 102  96  82  73  78  59  49  56  63  54  56  70  67  67  54  66  83  81  54  67  62  56  57  51  66  62  57  64  78  65  64  70  60  61 120 151 132 101  78  72  71  64  57  54  59  44  39  27  29  19  19  23  23  13  15  14  16  17  17  17  20  28  36  42  43  45  47  48
  35  34  36  36  38  38  38  43  36  33  36  46  48  46  57  58  73  75  86  80  67  56  76  79  82  70  81  69  57  49  44  58  67  56  58  65  65  77  68  78  85  78  63  71  59  56  56  63  63  69  66  51  65  61  52  61  70  51  79 121 119  90  73  72  79  64  45  38  39  40  30  24  19  19  22  23  18  13  12  15  16  17  17  19  25  32  40  44  45  47  47  48
  33  33  34  34  36  37  37  37  41  38  36  41  53  45  49  62  77  78  72  65  63  62  77  74  69  58  64  60  61  51  58  59  52  68  61  63  72  73  75  76  70  72  68  59  58  60  69  71  65  66  77  67  62  68  55  59  76  48  46  90  98  94  61  70  62  57  41  37  28  39  31  25  18  14  13  23  20  12  12  16  18  19  22  26  33  37  43  46  46  46  47  47
  31  33  34  34  35  37  38  37  39  34  36  44  48  47  56  65  70  63  60  72  69  74  73  66  59  58  51  47  63  63  68  54  46  56  56  65  75  77  73  69  67  59  46  42  61  70  78  76  75  74  81  72  68  72  68  53  64  45  39  58  70  77  70  64  61  60  49  32  22  27  27  29  31  10   6   7   8  15  16  18  17  19  26  31  37  41  43  45  46  46  47  47
  31  32  33  33  34  36  36  36  35  35  32  51  54  59  57  62  62  51  69  82  69  64  59  57  67  65  46  33  59  71  63  64  53  33  53  70  81  84  79  72  69  47  28  39  54  63  70  71  72  74  85  70  71  72  74  56  54  56  49  47  51  50  55  66  63  59  49  38  23  30  32  33  29  22  19   7   6  12  16  17  18  19  25  33  39  42  45  44  45  46  47  47
  31  31  32  33  34  36  36  37  35  33  41  55  40  50  53  47  45  53  68  68  56  51  54  59  60  65  53  50  64  75  65  64  52  41  65  98 127 130 131 131 117  96  78  83  82  88  97  93  90  83  71  65  73  76  81  67  52  60  51  39  44  47  40  47  53  55  62  60  48  48  36  32  40  32  19  10   5  13  17  21  18  20  27  34  41  43  43  44  43  44  45  46
  30  30  31  32  35  36  35  35  38  39  51  39  24  42  46  42  41  41  59  67  54  55  66  62  51  48  48  60  64  75  77  81  87 106 144 140 152 164 171 179 181 172 165 156 146 146 118 108  97  82  62  60  61  75  79  73  46  59  55  36  32  39  49  48  56  49  58  57  59  49  34  31  45  34  17   9   7  19  22  22  17  19  25  34  41  44  43  43  43  43  44  44
  29  30  32  32  34  34  34  34  37  42  36  29  30  34  37  37  36  41  67  62  57  67  66  57  48  41  49  71  81  94 103 101 111 125 141 114 104 103 116 133 138 134 137 131 128 120 108 115  95  84  81  73  54  66  66  72  55  56  51  38  29  46  49  50  52  42  48  45  51  41  37  50  39  38  30  18  17  24  21  22  19  20  27  34  40  43  44  43  43  44  44  43
  29  30  31  32  34  34  34  34  36  39  32  30  39  31  25  36  37  45  74  61  51  60  48  48  39  43  77  88 104 112 116 103  91  87  93  91  81  75  89 104 102  97  99  89  97 104 106 108 105  96  87  85  70  57  47  58  56  42  59  63  44  46  40  39  35  43  43  35  31  31  33  38  35  25  37  31  33  20  20  21  16  19  28  35  41  43  43  43  45  44  44  43
  30  30  31  32  33  33  35  34  35  38  38  36  44  37  19  35  47  40  59  54  43  50  41  37  43  52  66  98 116 109 107 107  81  81  96  89  93  84  81  91  92  99  84  76  78  98  97 112  96  97  75  71  64  51  43  37  61  49  53  72  53  51  42  36  31  38  33  22  23  23  21  26  31  28  47  36  25  19  21  19  16  22  29  36  42  44  42  43  43  44  44  44
  30  31  31  31  33  33  35  35  35  36  34  40  43  33  31  39  50  40  48  55  49  49  31  32  44  55  67 103 110 102 116 109  85  99  99  91  88  77  93 117  92  98  87  92  81 108  93  95  97  85  77  61  44  44  51  33  23  51  50  53  54  52  43  31  36  34  19  14  13  20  28  25  27  21  36  39  21  18  18  25  22  23  29  37  42  43  43  43  43  44  44  44
  29  30  31  31  33  34  37  36  35  35  39  37  33  33  31  30  45  52  60  66  54  40  30  25  29  48  71 111  97 109 122  97  87 107 106  89  82  80 106 104  69  95  96  95  90  99 102  82  85  84  77  55  42  29  36  42  18  31  47  43  43  54  38  28  33  33  24  15  13  17  22  19  22  25  24  30  15  20  22  24  24  26  33  39  39  42  43  44  43  44  45  46
  29  31  31  31  32  34  36  36  36  36  36  30  24  27  35  38  38  58  71  54  50  51  20  24  42  53  82 104  78 100 105  89 100 118 105  86  64  71  82  73  71  89 110  94  96  93  90  85  77  66  63  51  46  29  30  40  28  29  37  38  49  56  46  43  35  31  29  25  10  11  21  15  13  23  15  22  16  25  30  19  18  27  37  41  42  43  43  43  43  45  47  47
  29  29  30  30  32  33  36  36  35  34  31  27  17  20  28  29  23  50  64  56  35  44  26  32  42  49  84  80  74 101  85  82 117 116  76  71  70  77  86  94  77  80  96 104  89  84  73  77  72  64  47  24  36  39  34  43  29  28  24  35  46  46  45  53  34  27  19  16   5  16  23  18  21  23  15  28  21  19  28  19  20  28  36  41  42  43  43  43  44  47  47  47
  29  29  30  31  32  33  35  36  34  34  32  25  17  24  14  13  13  32  39  43  39  30  30  47  43  61  72  72  86  89  75  83 108  90  74  85  78  75  92 105  92  88  85 109  93  92  79  58  67  67  34  13  37  50  45  45  33  31  22  27  46  43  32  39  28  25  23   6   6   7  12  14  20  17  19  19  19  20  29  20  24  29  36  40  41  42  43  43  44  46  47  46
  28  28  30  31  31  32  33  35  36  35  36  16  16  18  15  17  13  31  31  36  35  22  35  55  57  56  51  63  65  55  61  82  91  75  79  82  73  74  92 112  94  90 105  94  80  89  96  62  48  60  30  29  44  71  43  25  26  42  52  25  37  49  42  18  21  33  36   7  11   9  13  11  11  16  18  28  15  17  24  20  24  30  36  38  40  42  43  43  43  44  46  47
  28  28  30  30  31  33  33  32  38  39  29  11  15  14  18  20  16  38  44  46  40  28  46  58  53  50  51  56  46  52  74  73  63  77  74  74  87  92 107 107  98  98  94  85  76  76  79  65  29  46  29  32  37  80  59  27  20  36  51  50  29  20  54  47  19  22  32  20   9  14  14  20  22  22  11  26  19  20  24  19  23  30  32  36  39  41  43  43  42  42  42  44
  29  28  29  31  31  31  32  32  36  45  31  21  23  15  19  20  25  54  52  37  33  23  36  66  48  43  41  59  69  61  76  62  62  72  81  85  85  93  95  98 101 100  83  75  71  75  68  55  30  42  32  28  29  71  98  42  18  17  39  46  30  33  32  36  33  16  22  27  23  27  22  26  26  12  23  66  64  17  18  18  22  27  29  35  39  43  43  43  43  43  43  44
  28  29  30  31  31  31  32  33  34  39  38  32  22  20  21  19  31  40  30  15  39  26  46  65  47  32  35  58  66  53  59  58  56  78  97  87  80  96 103  96  87  87  92  93  55  65  69  40  38  45  45  40  50  69 105  56  28  19  26  39  25  33  37  14  30  18  17  25  30  28  23  30  24  12  56 143 156  43  10  18  19  23  30  36  40  44  44  44  44  46  44  44
  28  29  30  31  31  32  33  33  34  33  34  30  23  20  21  18  24  31  29  13  49  57  54  65  42  27  46  58  60  60  61  58  68  94 107  85  68 102  94  94  84  69  91  94  55  59  64  44  57  54  54  42  46  74  77  44  40  31  30  22  36  27  16  23  22  14  19  17  24  29  17  20  17  33  80 170 202 101   1  13  14  17  26  36  44  46  46  46  46  47  44  44
  28  28  29  31  32  32  32  33  34  42  48  29  16  14  13  19  29  30  20  22  42  70  51  61  46  38  42  65  67  64  42  58  68  80  81  74  71  90  78  83  85  72  81  72  51  57  57  48  57  43  55  68  46  52  79  39  35  28  31  28  30  41  19  20  11  12  18  13  21  34  21  15  25  54 108 186 214 171  25   7  12  12  13  17  28  44  49  46  47  45  44  44
  28  30  29  30  32  32  32  33  37  53  38  28  20  17  12  15  32  32  26  37  45  55  42  63  40  41  58  75  76  57  33  69  53  69  70  64  76  76  74  75  75  79  76  68  53  54  45  48  56  40  45  61  69  53  55  56  43  23  27  35  27  20  30  11   9   9   9   6  12  23  25  33  42  61 117 199 216 209  92   1  15  15  15  13   9  16  34  46  45  44  43  44
  29  30  29  30  32  32  32  33  32  56  49  33  28  16  16  17  24  23  24  59  48  45  40  67  43  45  63  80  82  48  29  54  58  57  56  53  71  66  68  64  68  78  70  43  54  71  65  74  72  26  43  73  70  45  46  45  20  23  23  28  20  23  24  20  13  12  12   9  16  20  20  50  50 107 159 200 213 212 176  36   6  15  15  15  15  12  10  31  48  46  45  44
  30  31  29  31  32  32  32  33  33  39  45  39  21  13  17  14  26  30  28  61  42  43  50  58  58  58  73  65  66  40  45  54  48  47  33  57  68  53  62  58  71  82  45  35  55  86  76  85  54  34  45  63  67  52  50  39  29  27  28  36  37  14  11  14  13  18  17  13  12  18  24  44  56 161 206 215 212 213 217 133   9  13  15  14  15  18  15   9  35  50  47  47
  29  31  29  30  32  32  32  34  34  34  38  41  29  14  22  15  33  38  22  34  28  21  54  88  64  80  96  89  77  33  48  54  33  37  38  58  57  52  50  47  73  57  31  40  64  67  64  89  57  50  73  65  67  70  43  41  49  28  41  39  32  15   4   2   5  21  16  11  11  24  35  41 104 207 223 220 215 217 216 202  58   5  15  13  14  16  17   9  12  44  49  48
  28  29  29  30  31  32  34  34  34  35  37  39  38  27  23  16  39  36  10  24  26  11  63  92  53 107 109 110  84  50  52  44  32  34  41  59  54  48  33  47  52  41  50  54  60  46  67  77  74  80  88  72  58  72  36  37  31  29  40  30  18  12   7   9  10  18  13  10  16  33  32  60 158 225 227 222 221 218 215 219 133   1   5  12  12  15  19  12   5  22  46  47
  28  29  29  29  31  32  34  35  34  35  40  39  29  33  24  17  32  38  15  23  36  30  63  77  55  83  90  99  76  56  47  33  37  37  37  55  45  44  34  48  54  52  46  41  31  40  63  67  71  88  96  56  62  84  62  40  42  21  34  38  15  15  10  16  21  18  17  19  22  19  33 138 213 227 225 222 223 223 218 216 192 112  41   1   8  18  19  14   9   6  32  46
  30  31  30  29  31  32  34  35  34  34  37  39  37  38  25  27  29  26  30  28  26  41  42  60  57  92  93  87  57  49  44  40  39  46  34  41  53  49  46  56  58  38  30  38  19  63  68  72  46  77  96  79  86  62  56  53  47  32  25  16  24  21  14   7  13  18  20  55  43  14 117 218 228 226 224 224 222 225 220 216 204 196 193 104  30  21  19  15  11   7  12  39
  30  31  31  29  31  32  34  35  34  33  38  42  47  40  30  22  18  18  17  28  30  25  26  56  77  95  68  70  61  30  36  39  30  51  28  44  47  53  62  52  37  23  43  32  30  90  76  88  58  77 115  82  55  30  31  39  18  35  16   5   7  11  18  20  25  20  48  74  34  99 220 237 230 229 226 225 225 226 224 221 213 191 187 212 109  11  18  16  11  10   8  20
  30  31  31  30  31  32  34  35  34  36  38  47  38  34  35  32  25  22  21  21  40  37  39  58  71  68  83  60  79  54  33  33  24  31  37  54  26  32  46  31  25  43  53  40  60  89  54  92  89  78  94  67  40  38  44  38  34  38  31   9   8   9  16  34  29  29  70  71  79 199 232 233 234 232 229 227 227 227 227 225 217 206 189 156  42  15  17  15  12  12  12  11
  31  31  32  31  31  32  33  34  35  37  39  47  35  32  36  33  21  31  21  34  35  33  31  32  37  86 104  76  65  56  55  39  31  35  52  39  24  27  40  41  44  71  39  49  59  71  44  60  80  49  82  75  55  49  49  40  26  17  29  13   7  13  16  42  36  43  79 103 188 234 232 234 234 233 231 227 228 228 228 227 221 215 214 106   9  20  17  14  13  12  11  12
  32  32  32  33  32  32  32  33  33  35  37  42  35  31  29  37  27  18  20  21  26  37  31  16  32  76  84  78  82  66  61  57  49  45  43  36  19  22  33  30  33  50  36  34  53  54  65  44  70  49  81  76  33  28  21  15  14  22  34  24  22  19  43  43  78 108 165 204 244 242 236 235 235 232 231 228 229 231 229 228 229 230 201  38  14  18  16  15  14  15  15  12
  26  26  26  26  26  27  28  32  33  35  34  34  37  33  29  30  38  24  19  20  17  21  13  20  55  63  83  72  75  63  59  60  48  33  45  56  21  25  29  25  35  41  50  44  53  35  48  17  28  48  65  50  21  16  16  16  14  25  26  18  19  24  49 110 184 206 234 239 237 238 237 235 236 235 233 228 233 235 233 232 233 244 135   7  20  19  17  15  16  15  13  14
  65  69  75  80  85  92 100 109 115 114 105  81  59  37  30  27  32  30  22  22  26  15  22  21  40  61  75  61  60  43  66  43  52  53  47  53  46  27  23  32  31  40  58  53  50  40  48  36  26  63  49  33  41  22  18  17  20  21  14  12  24  82 135 176 218 240 244 244 241 241 239 238 237 236 235 234 237 236 234 237 243 210  45  16  21  18  17  15  15  15  12  13
 169 173 178 182 187 190 196 202 205 205 200 186 156 105  52  30  26  21  26  23  28  31  25  51  43  47  61  48  59  50  47  43  61  37  35  45  59  49  27  25  32  31  41  39  42  44  33  24  44  35  24  36  40  31  20  26  29  50  86 113 130 196 222 228 245 246 244 245 243 242 241 241 240 240 239 238 239 240 241 243 246 110   8  21  17  17  17  18  15  15  14  14
 216 216 215 214 219 221 223 225 226 225 227 226 217 200 143  60  22  27  23  64 103  41  12  24  35  35  48  62  60  31  34  50  52  19  26  51  37  49  33  21  34  29  23  32  23  30  29  17  33  19  17  24  25  46  29  29  50 122 196 239 243 237 240 249 247 247 247 245 243 243 243 243 242 242 242 240 239 242 244 251 201  27  16  18  16  16  17  16  15  16  15  15
 218 216 215 214 217 220 222 224 224 224 228 237 238 200 115  42  36  38   5  89 162  78  41  31  21  38  49  50  47  13  28  54  41  30  34  51  35  33  21  17  20  32  24  24  21  30  33  50  27  18  26  28  25  32  46  64 120 182 228 244 251 249 247 248 248 247 247 246 246 247 246 245 245 243 242 241 241 244 245 254 113   8  22  20  18  16  17  15  15  17  15  15
 216 215 214 215 215 220 221 222 229 238 227 176  98  41  19  23  20  14   1 112 213 162 140  99  21  16  21  28  30  26  30  36  43  27  29  31  23  22  18  21  24  28  27  22  21  23  24  43  50  22  21  34  38  76 104 145 208 236 249 246 248 248 249 249 249 248 248 249 249 250 251 248 246 244 242 240 244 245 247 193  31  17  18  19  18  17  17  16  15  17  17  17
 218 216 215 215 217 218 220 221 197 136  62  13   5  22  24  17  15  17   1 126 241 228 221 196  81  23  32  25  27  47  47  42  21   7  17  22  35  30  18  19  17  17  27  32  23  24  23  32  38  36  45  73 108 144 197 231 247 251 250 249 249 249 250 251 250 250 251 250 250 250 250 249 246 245 244 245 247 245 215  70  11  22  21  20  19  18  17  17  17  15  18  19
