P2
# Generated by OpenCV 4.2.0
92 112
255
  44  43  43  45  43  44  45  45  44  44  44  43  43  44  44  45  45  45  44  44  45  44  45  47  45  46  46  46  46  45  50  58  48  49  67  62  57  55  52  58  55  52  42  54  54  45  44  51  49  50  61  62  64  63  62  60  56  52  49  48  45  45  45  46  45  46  47  47  45  47  46  47  46  46  45  45  46  46  46  46  45  48  47  48  46  47  45  44  46  47  46  45
  44  44  44  45  44  44  44  44  46  45  44  44  46  45  44  44  44  45  44  44  44  44  45  45  45  46  47  47  45  46  47  63  60  58  70  62  57  56  57  57  58  55  52  63  80  66  52  55  55  54  51  51  54  60  67  69  63  50  54  52  47  48  48  47  47  47  47  46  45  45  46  46  46  45  45  46  47  47  48  48  46  47  47  46  45  47  47  46  47  47  47  45
  44  44  43  44  44  44  44  44  45  44  43  44  45  44  44  44  44  46  45  43  45  44  45  45  45  46  47  47  48  57  53  82  94  61  60  65  60  57  59  63  69  70  82  80  89  90  82  76  75  82  88  75  62  56  51  57  64  59  55  54  50  58  56  53  48  48  46  46  46  45  46  46  44  44  46  46  46  45  48  48  46  45  46  47  48  48  47  46  46  47  46  46
  44  44  44  44  44  44  44  44  45  45  44  45  45  44  44  45  45  45  45  44  44  44  45  46  45  45  46  48  46  46  62  81  92  65  59  67  68  68  67  67  75  84  98  93  96  94 112 101  88 101 107 100  85  80  65  57  54  55  57  56  54  50  48  55  50  44  46  47  45  45  47  46  46  45  46  45  45  45  46  45  46  45  46  46  45  46  45  45  45  47  45  47
  44  45  45  43  44  45  45  45  44  44  44  45  44  44  44  45  45  44  45  45  44  45  44  47  45  48  46  43  58  98  89  71  77  63  58  73  90  83  93 102 122 114  89  91 114 108 109 129 113 117 115 112 103  94  91  75  62  54  52  54  48  53  49  46  48  49  48  46  47  45  45  46  45  45  46  46  46  46  45  44  47  45  47  45  45  46  46  46  46  46  45  46
  43  45  45  43  45  45  44  44  44  44  45  44  45  44  44  45  44  44  46  46  44  45  46  44  46  54  62  83 123 110  77  73  80  78  74  92  97  83  92  98 109 127 139 126 112 106 112 122 127 124 112 105 113 105 106  86  76  82  68  59  63  50  46  41  41  44  49  49  48  46  44  46  45  45  46  46  45  44  44  46  47  46  45  46  45  46  45  46  46  46  46  46
  44  43  44  44  45  45  45  45  44  43  45  44  45  44  45  45  44  45  44  46  45  46  45  54  61  68  86 103  96  71  74  90  98  88  83  93  94  92  92  94  96  92 103 108 118 119 135 125 108 101 113 111 114 107 103  97  82  82  72  66  73  58  48  39  39  38  43  48  48  46  46  46  45  46  46  45  45  46  46  45  46  45  45  46  45  46  46  46  47  46  45  46
  44  45  45  44  45  44  44  46  45  45  44  46  45  45  44  44  44  45  45  47  46  46  48  59  68  76  75  90  91  92 118 138 125  90  89  88  78  79  91 106 103 101  95  93  95  99  79  78  85  98 117 109 120 127 124 123 115 112 101  80  64  62  58  48  45  34  30  42  47  47  47  46  45  45  46  45  46  45  46  46  48  45  44  45  46  46  46  47  48  45  46  45
  46  46  44  45  45  44  45  46  44  43  45  44  45  45  44  44  45  46  47  47  48  54  54  57  79  67  72  82 104 145 149 155 133 102  91  98  84  69  79  77  80  85  73  74  71  68  83  88  87  88 108 115 123 123 133 136 122 123 115  98  87  67  54  48  53  44  33  37  45  47  46  47  46  46  47  46  47  46  46  45  46  45  45  45  45  45  46  47  46  46  46  46
  45  45  44  44  45  44  46  46  46  45  45  44  44  45  46  46  46  47  45  44  57  71  55  60  73  70  89 131 169 176 166 152 137 128 102  95  96  93  82  79  88  85  77  74  75  67  76  94 106  85  89 102 121 123 127 136 130 131 123 109 101  86  66  53  43  41  49  40  42  47  50  47  46  46  46  47  46  46  47  46  46  47  47  45  46  47  47  46  46  46  46  46
  44  44  45  45  45  44  45  46  46  44  45  46  46  46  44  46  46  45  45  57  65  67  72  79  78  95 140 175 171 171 166 168 149 154 116  93  93  89  91  99 108  93  84  70  65  65  65  73  89  81  81  99 123 132 135 144 138 139 134 125 108  97  83  55  43  38  45  49  39  43  49  50  45  46  46  46  47  46  46  46  46  46  48  48  48  46  47  47  47  46  46  46
  45  44  44  45  44  44  44  45  46  44  46  46  47  45  44  45  45  46  49  80  72  58  65  83 106 148 153 169 169 182 177 158 140 122 107 107 113 108  93  86  79  75  78  76  70  65  67  77  72  89  96  99 119 129 145 145 142 143 140 130 134 118 105  80  60  47  48  48  39  37  48  51  50  46  46  47  47  45  46  46  45  46  47  46  47  46  46  46  46  47  46  46
  44  45  43  44  44  45  43  44  44  44  45  46  45  44  45  46  47  43  67  76  60  50  68 109 167 174 150 158 145 153 150 146 143 113 109 114 126 137 132 115 105 100  78  67  75  74  71  78  82  75  87 107 123 132 145 153 147 144 138 136 143 136 113 105  94  77  51  49  35  31  37  46  46  49  46  46  46  45  45  45  47  46  48  47  47  46  47  47  45  47  47  47
  44  45  44  44  44  44  45  45  45  45  44  45  45  45  46  48  44  47  72  50  70  88 118 184 201 197 178 158 134 139 146 144 145 145 130 130 128 143 156 145 134 129 117  98  86  94 106 101 105 107  94 113 131 136 142 151 151 141 144 142 134 133 128 122 106  92  67  56  39  31  23  30  36  43  51  48  48  46  45  46  45  47  46  47  47  48  47  47  46  47  47  46
  44  45  45  45  46  44  45  46  46  45  44  45  44  45  45  45  52  73  56  68  93 106 196 207 204 203 200 193 172 150 161 167 154 165 154 150 158 160 166 164 155 144 140 133 126 126 120 115 110 122 115 119 138 136 139 143 156 152 148 140 138 134 131 126 124 117  90  68  48  34  22  18  30  38  46  52  47  46  46  46  46  47  47  45  46  47  48  46  45  46  47  47
  45  45  45  45  46  45  46  45  45  45  45  45  45  45  44  44  84  87  75  90  78 175 212 208 203 203 209 210 211 188 175 173 170 169 168 175 183 176 174 178 170 166 151 145 141 152 141 124 130 136 136 128 133 136 145 146 150 153 150 143 140 135 129 132 132 127 104  72  59  39  29  22  21  32  35  46  49  45  46  46  46  47  47  46  45  46  46  47  46  46  47  48
  44  45  45  44  44  46  46  45  44  46  47  45  45  47  45  47  86 101 100  73 146 218 210 214 206 209 215 219 218 209 196 189 191 189 189 189 193 190 182 173 174 171 160 157 143 148 149 140 140 149 151 145 136 144 144 142 144 149 152 147 140 137 136 133 140 129 114  90  64  50  39  26  22  22  28  36  43  46  47  46  44  45  46  46  47  47  48  46  47  45  45  46
  45  44  44  44  44  44  44  44  45  45  46  45  46  47  46  65  90  96  75 114 215 210 210 211 210 214 218 217 219 212 211 207 205 200 198 199 199 193 192 186 177 168 170 171 158 151 158 153 147 142 151 159 146 140 140 139 138 144 147 149 145 129 139 137 131 133 126 103  81  58  39  27  24  24  27  30  33  43  46  44  44  45  46  46  46  46  47  45  46  47  47  48
  45  44  43  45  45  45  45  44  45  46  46  46  45  43  54  88 104  89  89 186 214 206 212 212 213 214 214 215 216 214 213 211 210 203 204 205 198 198 199 195 188 171 172 173 170 166 158 152 153 149 147 152 154 142 135 138 139 141 143 148 146 135 122 121 134 136 130 111  96  68  40  29  21  23  29  29  25  33  45  46  45  46  46  46  46  46  46  46  47  46  46  47
  45  45  45  44  44  45  45  46  46  45  45  48  46  45  55  68 111  87 152 213 204 209 211 211 214 214 214 215 214 213 214 211 207 202 200 203 201 202 197 193 189 181 174 174 176 170 167 164 157 156 158 156 157 151 152 151 150 148 147 143 140 136 129 119 128 135 127 116 104  85  55  42  32  21  22  28  25  24  41  46  46  46  45  45  46  46  44  46  47  47  46  46
  44  45  44  44  45  47  46  46  45  44  45  47  47  46  53  87  84  92 190 207 205 209 210 214 215 216 215 214 213 212 213 210 207 206 203 205 204 199 196 196 189 187 189 179 173 181 180 176 165 163 157 145 148 147 150 151 151 147 145 142 137 131 129 126 123 133 132 118 108 103  73  37  43  27  23  30  23  16  33  44  47  45  45  45  45  47  46  46  46  45  45  47
  44  44  45  44  45  45  47  45  44  45  44  46  47  44  68 111  85 149 206 204 207 208 213 214 215 216 215 214 213 212 210 209 206 207 206 205 201 196 196 195 187 189 191 187 184 188 183 180 177 174 169 162 161 157 156 153 152 146 145 144 136 125 124 122 123 130 136 113 109 108  87  44  33  29  23  25  31  11  22  45  48  46  47  45  46  46  45  46  46  47  47  46
  44  45  46  46  45  45  45  45  44  44  44  46  45  45  87 104 105 175 201 204 207 209 209 211 213 218 219 217 211 212 209 206 206 208 207 203 198 196 197 197 193 190 184 185 187 186 182 177 175 175 171 166 163 160 156 155 149 143 144 142 136 130 125 126 125 122 130 113 107 108  94  65  32  34  26  22  30  20  12  40  46  45  46  46  47  45  44  45  46  46  45  45
  43  44  44  45  45  45  45  46  45  45  44  45  47  63  91  79 127 201 198 204 203 203 204 209 213 219 220 221 215 211 207 204 205 208 205 200 196 195 196 197 194 192 188 183 184 181 178 174 174 175 171 169 164 160 155 149 146 145 143 140 134 130 129 126 127 119 115 114 110 112 102  77  37  38  38  31  28  23  13  35  45  46  45  45  46  45  45  46  46  46  46  46
  45  45  44  43  44  47  46  46  46  45  46  45  48  72  92  89 164 200 195 202 201 201 204 207 208 214 220 222 212 208 206 204 206 205 199 197 196 196 196 194 191 187 185 187 185 183 182 180 174 171 167 163 164 158 146 143 141 140 139 140 132 128 129 124 125 120 108 105 108 111 107  89  53  32  35  28  29  23  21  30  43  47  46  45  46  46  45  46  46  47  46  45
  45  43  44  44  45  46  44  45  47  46  44  47  58  71 102 124 183 192 191 202 200 201 205 208 207 212 215 214 208 205 204 204 205 202 198 195 195 195 195 192 191 189 185 181 182 180 181 175 170 169 169 163 161 154 145 137 132 136 139 138 131 127 128 124 124 121 110  98 106 112 109  94  64  35  32  25  28  18  17  22  35  47  47  46  47  47  46  46  47  47  45  46
  45  44  45  44  44  45  44  44  44  46  46  46  50  71  96 124 194 188 190 202 202 198 197 202 207 213 212 210 207 204 202 200 200 199 197 195 193 193 194 194 190 187 186 181 181 179 177 172 169 168 183 164 156 150 144 137 132 132 138 138 136 127 127 126 125 121 112  99 103 110 105  98  63  42  28  20  43  26  12  18  29  42  48  47  47  47  46  46  46  46  46  46
  45  44  44  45  44  44  45  44  45  44  46  46  47  72  89 142 195 185 188 197 198 193 196 200 204 208 210 208 206 202 201 198 197 197 194 192 192 193 195 191 187 185 185 182 182 176 174 173 165 161 166 162 157 150 144 141 137 136 138 140 137 128 130 127 117 114 105  94  99 112 109 102  76  45  31  16  34  35  14  21  23  36  47  47  46  46  47  47  46  47  46  46
  46  45  44  45  45  44  45  45  45  44  45  45  47  72  86 158 194 184 192 196 196 198 200 200 200 203 204 205 202 198 196 196 194 195 193 193 194 192 191 190 189 183 179 179 182 175 173 168 161 163 162 160 157 150 145 140 137 133 135 135 133 132 132 125 112 110  99  94  98 113 108 102  85  50  37  21  21  28  26  26  20  37  46  48  45  45  45  46  48  47  46  46
  45  45  45  44  45  45  45  45  46  46  45  47  53  70  87 162 188 181 193 196 195 196 199 196 195 201 202 198 197 195 192 195 194 194 193 195 193 192 190 189 188 181 176 177 180 177 170 163 163 161 158 154 154 150 140 137 134 133 136 136 133 134 133 124 114 105  97  94 101 107 105 101  89  59  42  20  18  24  31  24  21  38  48  49  46  46  45  45  47  46  46  46
  44  45  45  44  45  45  44  44  45  45  46  46  59  65  78 164 182 177 184 194 194 196 193 190 189 193 192 192 194 194 193 194 196 197 192 191 190 188 187 183 181 177 174 177 179 174 168 167 164 156 154 149 146 138 138 140 132 129 133 134 133 129 129 123 110  94  97  96  97 102 103  95  92  68  39  23  22  20  23  25  22  33  46  47  46  46  46  46  46  46  46  47
  46  46  45  46  45  46  45  45  45  46  46  47  57  69  97 167 178 175 181 190 194 192 188 191 190 184 183 184 186 191 193 192 190 192 188 187 187 188 183 181 175 173 171 174 179 171 170 167 158 154 150 148 145 138 142 142 133 131 137 135 134 131 124 116 108  91  93  93  91 100  98  96  95  69  35  27  27  24  24  27  28  36  42  46  47  48  46  45  46  44  46  47
  43  45  45  45  45  45  46  45  46  46  45  50  53  70 101 167 176 175 182 188 191 186 192 195 193 194 194 188 189 189 191 192 190 188 188 186 186 185 185 183 181 177 173 176 175 170 169 161 151 152 149 146 144 142 140 135 132 131 133 134 131 127 124 111 106  94  92  88  91  95  92  96  93  67  39  27  30  25  24  30  23  37  49  48  46  46  45  45  45  45  46  47
  43  44  44  44  45  46  46  45  46  46  46  53  60  68 101 161 175 176 183 188 190 191 195 194 197 197 198 191 190 189 191 194 193 191 190 188 184 185 186 188 185 174 173 168 174 167 158 157 154 150 149 146 146 144 142 136 131 129 131 129 127 121 114 106 105  96  92  86  83  88  91  93  85  64  36  25  35  24  22  27  20  29  45  49  47  46  45  46  46  47  46  46
  44  44  44  45  46  47  46  45  46  47  46  45  59  84  96 155 172 177 184 187 188 190 193 195 197 198 193 193 191 192 192 191 192 193 193 186 183 186 189 191 179 171 172 173 171 165 164 169 158 154 156 152 145 139 139 134 132 132 132 133 128 121 111 103  99  94  82  77  80  86  89  89  76  58  32  18  26  20  22  21  15  21  41  47  46  46  46  46  46  46  46  45
  44  44  45  45  45  46  45  45  45  48  50  32  61  95  82 153 174 174 179 182 183 188 191 193 197 194 192 199 195 192 188 187 186 185 183 183 179 180 183 180 175 172 172 175 176 178 171 164 155 150 149 144 144 142 141 136 133 134 129 130 129 122 113 103  94  89  80  74  82  88  87  87  71  50  28  23  28  16  19  20  19  21  42  46  44  45  45  46  47  44  45  46
  45  44  45  44  44  45  45  45  44  45  45  50  73  75  66 147 179 178 180 182 185 186 187 189 193 195 200 197 192 187 186 191 191 188 185 186 182 180 187 189 186 176 174 175 177 175 166 163 158 154 148 150 150 149 144 138 138 137 130 131 128 122 110 104  95  89  81  74  78  83  84  75  63  39  27  23  22  15  16  22  22  24  38  44  41  45  45  44  45  45  45  45
  46  44  44  44  44  44  44  45  45  45  44  54  72  60  74 142 178 178 180 184 187 184 184 187 188 192 193 191 194 202 198 197 196 195 190 187 185 191 196 194 185 176 174 177 177 173 167 165 164 159 155 153 145 138 138 133 136 134 125 124 122 116 104  99  89  85  83  75  77  82  81  70  58  40  23  18  17  15  12  20  22  25  38  41  37  45  44  43  44  47  47  46
  44  44  45  44  44  43  44  46  45  45  44  48  61  55  88 133 175 179 181 183 188 190 191 194 199 196 196 199 201 199 195 195 195 193 190 187 182 187 194 186 182 174 175 177 179 176 167 169 169 166 162 153 150 146 145 141 139 134 126 121 115 110 102  92  89  86  83  71  75  80  73  66  55  41  23  15  11  11  11  16  16  24  37  36  41  46  46  44  47  46  46  45
  44  45  45  44  44  46  46  46  47  46  45  44  58  76  84 120 175 183 183 190 194 191 188 185 183 191 193 192 195 194 196 196 193 192 190 186 179 181 191 184 180 174 175 177 181 176 170 169 166 167 159 154 153 148 140 140 141 134 132 126 117 107  97  90  91  92  85  67  73  77  73  62  47  36  20  13  12  12  13  14  15  21  34  41  45  45  45  45  44  45  45  45
  44  45  44  45  45  45  45  45  46  46  46  45  55  81  98 129 172 179 184 191 187 188 188 182 184 186 185 184 182 185 188 191 193 191 186 183 173 180 188 183 176 177 176 175 179 171 171 169 165 165 159 154 149 150 144 141 139 134 132 124 114 111 103  93  90  93  80  64  75  81  71  57  36  27  15  16  18  14  13  14  14  16  33  44  46  46  46  46  45  45  44  45
  44  45  45  46  46  45  44  45  45  45  45  46  51  77 121 135 173 180 187 192 188 188 187 178 181 177 178 178 175 180 183 184 182 181 184 180 167 173 187 181 174 174 173 179 182 176 169 164 159 156 147 150 150 152 148 143 140 135 131 127 117 110 103  96  92  86  72  70  83  78  65  49  25  20  16  15  11  13  13  16  15  15  29  39  45  47  45  46  46  46  44  45
  46  46  46  46  45  44  44  45  45  45  45  44  45  87  99 101 179 182 184 179 187 192 187 178 177 170 174 177 175 173 171 174 175 178 179 174 158 169 184 174 165 165 170 173 174 164 157 153 148 144 141 150 149 148 145 136 141 137 132 128 119 109 104  93  89  89  76  79  83  71  59  45  22  23  21  12  11  14  14  16  18  18  28  38  45  46  44  46  46  46  45  45
  45  45  45  45  45  44  44  46  46  46  46  45  46  82  79  99 180 184 160 160 192 197 191 192 186 180 175 173 168 164 158 162 171 172 170 164 150 158 174 166 155 148 153 163 157 149 146 144 144 144 147 149 143 141 141 138 137 134 133 133 121 111 102  94  87  87  80  77  73  70  57  42  26  21  20  14  14  16  15  16  18  21  32  44  45  44  44  45  46  46  45  46
  44  45  45  44  44  44  44  44  45  46  46  45  49  80  84  99 184 165 143 165 183 174 180 185 182 178 168 163 159 160 155 159 159 155 159 152 139 150 161 154 150 145 143 148 140 137 138 138 139 145 152 147 144 138 135 131 129 129 130 133 122 114 103  90  79  78  74  64  71  70  62  43  24  18  16  19  13  16  20  17  17  20  26  36  39  44  45  45  46  46  45  46
  44  43  45  45  44  44  45  43  45  46  45  45  45  62  92 119 183 162 163 172 143 125 129 121 125 133 144 149 146 148 147 143 153 151 151 143 131 143 154 149 149 137 130 138 136 132 131 129 129 132 130 124 122 108 104 107 104 106 118 132 126 113 102  85  75  73  68  66  76  76  60  37  26  19  15  14  11  16  20  23  18  21  34  40  43  44  45  45  45  45  45  45
  47  45  45  45  45  44  44  44  45  46  46  46  44  67  80 117 185 179 151 108  90  82  78  87  99 103 111 106 108 110 108 115 136 145 146 139 124 135 149 141 139 131 127 130 132 129 123 116 103 100  84  76  69  64  64  70  67  68  89 113 121 116 100  84  73  74  73  76  77  76  57  38  29  20  18  14  11  11  13  16  11  26  35  39  43  44  46  46  45  45  44  45
  47  46  46  45  45  45  44  45  45  45  46  45  43  55  84 125 189 135  65  71  69  71  88  83  78  74  65  53  51  49  59  88 102 126 141 132 118 134 145 139 132 123 106 108 120 101  87  78  66  57  57  53  56  52  47  50  56  57  57  65 101 111  98  86  73  77  77  79  79  74  61  47  31  20  14  15  12  10  11  12  20  46  57  53  47  46  46  45  44  45  45  46
  45  45  46  47  44  43  44  44  45  45  46  45  41  64  99 142 176  79  58  64  65  65  52  46  46  43  31  27  19  21  25  47  77 110 129 118 111 137 141 134 126 107  94  83  72  64  45  39  38  27  28  32  36  41  41  33  28  25  29  31  48  69  87  86  73  77  77  78  83  76  65  50  30  18  11  14  15  15  13  17  52  66  75  77  62  49  45  45  44  44  45  46
  46  45  44  47  46  44  44  43  45  46  45  46  45  57  86 153 175 105  55  44  42  31  23  26  22  17  17  19  19  21  24  26  57 100 117 112 121 140 143 135 124 100  83  72  50  39  30  25  21  18  18  16  13  14  18  26  30  19  18  22  23  28  44  65  73  77  78  86  89  79  69  51  29  18  14  13  14  16  10  32  63  71  69  65  63  53  46  46  46  46  46  46
  46  44  45  45  47  46  46  45  45  45  45  47  52  70  81 158 182 136  70  42  45  51  57  63  65  62  52  30  18  20  25  30  38  82 109 114 132 138 140 129 113  97  78  63  48  38  35  33  29  30  37  57  68  58  43  35  28  18  13  17  19  20  24  40  65  73  79  87  87  76  71  56  31  19  17  16  11  10  14  41  60  52  38  36  42  47  48  46  47  46  45  45
  45  46  46  45  47  47  44  45  45  45  44  45  58  81  73 167 192 145  79  66  83  82  78  66  49  30  12  41  39  10  20  36  40  62 102 121 139 141 134 120 108  91  76  60  47  42  50  55  47  34  24  46  89 106 109  96  69  42  29  22  17  16  21  29  43  73  81  86  85  76  73  62  31  19  15  15  13  16  23  43  41  24  15  16  26  44  48  45  45  45  46  45
  43  46  45  46  47  46  45  46  46  46  45  46  68  52  64 166 188 155 107  96  90  51  17  12  27  27  13  17  18  22  39  53  65  69  96 131 151 149 140 128 110  83  71  61  50  42  47  55  49  40  45  23  58  17  36  63  75  75  58  40  30  23  23  27  36  53  70  83  77  77  78  68  36  22  15  11  18  18  31  37  31  33  26  21  25  44  48  46  45  45  46  46
  44  44  46  45  45  46  45  45  45  46  44  47  57  51  46 154 186 163 129 103  61  37  46  52  64  75  48  55  50  56  82  77  71 114 111 129 158 167 163 145 119  87  69  65  55  43  59  65  55 128 131  31  18  15  12  10  17  36  57  56  44  35  30  28  38  46  54  71  76  81  78  69  47  30  26  18  20  18  37  40  42  50  41  34  39  56  52  46  45  46  46  45
  45  46  46  46  45  45  45  44  45  45  45  47  53  54  45 146 188 163 128  99  96 130 129  99  83  91  97 109 110 105  98 100 115 129 126 138 162 176 174 151 127 103  81  84  71  77 107  81 110 141 167  97  38  33  34  54  53  22  17  40  56  49  38  38  41  41  56  71  78  79  73  65  56  33  26  16  14  19  38  48  60  65  50  42  50  65  52  45  46  46  45  45
  46  46  46  46  45  44  46  46  45  46  46  46  47  46  48 141 185 171 152 150 176 183 172 143 123 113 120 122 125 115 101 109 133 133 134 149 170 181 177 157 136 111  91  99  92 106 126 122 116 127 124 139 113  86  86  94  83  55  30  22  40  57  56  53  49  62  76  74  74  76  71  66  60  39  21  13  12  20  43  55  62  65  56  45  50  65  55  45  45  45  43  45
  46  45  46  47  47  46  46  46  45  47  45  47  48  49  56 133 181 165 171 187 166 172 172 163 132 109 110 108 108 109 107 125 138 142 145 160 187 191 178 161 139 114  95  97 104 101 110 107 101 101  91  86  82  76  63  70  69  58  58  65  54  54  67  70  72  84  79  77  81  75  71  67  58  44  26  16  13  19  32  46  56  57  58  53  52  68  59  45  46  45  45  45
  47  46  46  45  46  46  46  46  46  46  46  46  48  54  62 131 180 176 179 163 186 174 175 166 142 125 125 126 127 132 144 151 149 150 149 178 205 192 175 157 136 113  98  95 113 113 114 123 121 102  91  91  85  82  78  71  65  68  97 114 109  91  81  83  86  87  80  81  82  73  71  65  54  41  28  18  12  17  18  24  36  43  60  67  55  72  60  44  45  45  45  45
  46  44  46  44  45  46  47  46  47  47  45  47  48  53  53 120 184 182 171 174 170 166 165 159 153 147 137 136 145 158 161 156 155 153 162 199 202 190 173 153 134 112 103  97 118 125 131 132 138 138 130 101  85  83  78  70  75  94 114 113 117 131 112 108 110 105  98  89  79  75  68  63  52  32  20  14  14  20  24  18  22  33  58  76  53  72  58  44  45  45  45  44
  44  43  44  45  45  46  46  46  45  47  46  47  49  61  54 116 185 177 172 166 177 191 182 177 168 164 164 170 169 175 172 166 162 157 182 197 204 188 170 151 133 113 110 104 110 137 147 146 142 143 143 142 133 129 121 118 108 113 119 118 133 134 127 120 117 117 107  93  83  72  66  60  47  29  22  16   8  25  41  31  24  29  55  73  49  69  53  43  46  45  44  45
  43  43  44  44  45  45  45  47  46  46  48  51  61  69  61 128 180 175 178 179 186 184 182 176 170 173 183 192 192 188 180 173 174 184 192 193 198 186 168 150 126 114 116 111 111 143 154 149 155 147 141 145 145 140 143 138 130 138 138 135 145 135 127 122 114 114 108  95  81  70  63  56  43  29  23  14  10  35  53  42  32  34  60  66  49  71  50  45  45  45  46  44
  44  45  45  44  44  44  44  45  45  46  50  56  60  57  57 130 173 172 187 190 181 180 183 182 183 187 193 191 188 185 185 189 197 194 189 190 189 187 167 144 119 112 116 117 120 130 149 155 159 154 148 148 150 150 151 142 143 144 141 145 140 126 123 121 115 108 101  93  80  69  60  55  41  30  25  14  10  46  53  45  35  42  68  61  59  74  48  45  44  45  45  44
  45  45  45  45  44  44  44  45  46  46  48  53  55  62  66 127 173 177 192 190 188 196 198 194 195 195 198 193 190 189 204 206 197 188 186 186 186 185 158 135 113 104 114 127 130 132 143 153 156 156 154 151 147 154 153 155 151 147 147 144 133 125 126 120 116 108  99  91  79  67  61  55  40  33  21  16  16  40  48  49  35  49  81  59  67  73  44  45  44  46  45  43
  46  46  46  44  45  44  45  45  47  44  47  54  55  69  76 136 172 178 185 191 205 211 195 196 195 196 196 191 197 205 208 200 192 189 193 191 192 182 152 132 109 105 117 128 135 141 142 148 157 155 155 154 151 153 153 151 149 147 146 137 129 130 134 120 115 108  99  83  72  68  60  49  36  28  14  16  24  39  45  49  47  72  72  50  74  69  43  44  45  45  45  44
  43  44  44  43  45  45  45  45  45  47  48  48  55  69  80 136 172 178 187 197 205 203 198 199 194 193 192 193 197 201 186 173 174 197 203 207 199 178 160 144 119 118 122 121 127 142 149 153 150 155 156 155 156 156 155 155 153 151 143 143 136 129 124 118 112 100  89  82  68  63  57  43  26  17  12  16  32  42  42  66  76  68  52  56  87  64  44  44  43  45  43  44
  44  45  45  44  44  46  46  45  46  50  48  47  61  74  58 122 171 176 188 200 202 196 194 192 191 192 190 186 185 168 147 126 163 200 207 217 199 182 166 150 129 122 114 108 106 112 131 144 147 157 155 154 155 155 159 156 154 152 146 144 136 126 112 109 105  92  87  79  69  61  57  42  23  13  12  16  32  49  64  81  81  72  64  75  89  55  44  45  43  44  44  45
  45  44  44  44  45  47  50  49  48  48  46  47  57  57  42 128 164 157 190 198 194 192 190 185 186 189 184 170 157 137 106 108 193 202 214 216 193 178 164 154 140 124 107 102 113  94  88 115 142 157 157 158 156 156 157 158 156 153 147 141 132 126 115 102  99  86  75  70  63  59  52  36  19  13  12  16  23  45  67  76  90  95  92  93  83  48  45  43  44  43  42  44
  46  46  45  44  45  47  47  46  45  45  47  50  47  32  54 126 130 154 192 193 188 186 183 180 177 171 162 152 136 114  86 166 208 203 219 210 189 174 164 153 145 132 107 111 135 125  94  92 123 142 153 153 150 151 154 156 152 148 145 137 132 130 113  99  88  75  65  64  58  54  46  27  15  15  12  15  24  37  55  74  88  99 104  95  73  47  45  45  45  44  43  43
  44  45  45  44  45  44  44  47  46  45  47  55  45  38  82 115 116 155 188 185 179 177 174 170 162 156 148 136 120  95 133 218 200 199 209 195 184 173 157 149 144 128  99 112 142 141 120  88 103 124 143 149 143 152 151 151 148 149 143 139 129 122 112  94  80  68  63  58  54  50  40  23  18  17  11  11  16  44  63  78  88  95 103  89  60  46  46  46  45  46  45  45
  44  44  44  44  42  43  44  45  45  45  44  47  45  60  99  99 112 157 183 180 174 168 160 150 145 143 136 125 108 101 192 216 194 191 196 191 188 175 158 149 142 114  88 118 148 140 121  84  85 115 128 139 148 149 149 146 145 144 140 130 122 113 106  94  72  63  59  51  46  42  34  22  19  19  16  13  14  49  68  79  91  89  87  72  50  46  45  45  44  45  45  45
  44  44  45  43  43  44  44  45  46  46  44  44  49  79 100 101  98 150 178 172 164 156 150 138 134 129 123 114 100 137 194 196 181 182 180 173 169 158 148 139 124  93  90 140 148 131 107  80  74 106 122 131 135 143 144 145 141 140 137 130 118 107  98  88  70  59  53  52  42  34  27  20  19  21  18  16  14  26  50  70  74  71  62  50  45  45  44  45  44  45  45  45
  44  43  44  45  44  44  44  46  46  46  46  45  75  96  89  88  94 142 175 165 156 147 133 125 122 118 108  97 121 161 153 146 152 155 155 144 137 136 127 115  93  73 100 135 122 105  90  72  66 100 118 122 130 139 138 138 137 134 134 123 116 106  96  85  66  59  51  43  39  32  25  19  20  24  18  15  16  22  35  43  47  46  44  45  44  44  45  45  45  44  45  45
  44  45  44  45  45  44  45  46  46  45  46  64 100 100  86  77  89 136 164 156 140 133 119 111 101  87  73 103 147 155 133  72  57  86 124 116 121 119 100  81  63  59  71  70  64  61  62  58  68  96 106 118 126 131 129 132 133 129 125 118 112 102  88  74  62  53  45  36  32  29  23  23  24  21  15  15  21  29  37  38  39  43  45  43  44  45  45  44  44  45  45  45
  46  45  45  44  44  43  45  45  46  48  56  72  89 102  75  63  80 126 159 148 129 117 101  80  51  39  79 129 142 134 141 165  65  22  55  82  80  78  67  50  29  15   9   6   9  23  37  57  82  93  99 109 117 122 124 125 126 123 120 115 104  96  84  77  61  49  39  33  29  20  22  22  22  20  13  11  17  27  35  41  44  45  43  44  46  46  45  44  45  45  45  45
  44  44  45  43  43  43  46  45  44  47  48  77  97  81  59  73  79 115 146 138 117  96  69  39  30  64 117 132 131 119 125 140 119  52  33  43  43  37  33  19   8  10  12  14  22  42  61  69  85  92  99 101  99 107 117 121 123 121 116 111  98  94  85  70  60  46  40  31  27  21  18  19  20  19  12  10  10  22  35  42  44  45  45  45  45  45  44  44  46  46  45  44
  44  45  46  46  45  45  47  47  46  46  56  86  88  51  51  64  81 101 120 122  93  59  42  53  71  84  97 114 111 120 130  98  73  61  53  48  38  21  13  14  25  24  27  31  42  57  57  72  94  99 105 102  84  83 101 116 116 118 112 106  98  91  79  64  63  50  35  28  23  25  18  16  17  16  15   9   8  18  32  42  44  44  45  44  44  44  45  46  45  45  45  45
  44  44  45  45  44  46  44  47  52  52  69  84  77  51  45  54  86  86  95  99  72  59  70  77  87  84  95 102 111 128 116  84  84  75  60  54  44  30  28  44  52  39  34  41  44  54  53  71  82  84  94 103  93  64  64  90 107 111 107 102  90  77  68  60  56  50  33  28  24  17  18  15  15  17  14  10  13  25  35  42  46  45  45  45  44  45  46  45  46  46  45  45
  44  44  45  43  44  44  45  45  50  53  61  80  79  47  40  65  65  65  77  79  72  72  77  95  83  75  80 105 116 117  91  66  75  64  53  45  43  33  34  58  56  41  39  38  36  41  51  70  67  72  76  80  80  67  55  50  90 107 109  99  80  66  59  53  54  47  37  30  25  16  14  14  10  13  14  11  13  28  39  44  45  45  45  45  44  46  46  44  45  45  45  45
  44  44  44  45  44  45  44  50  50  55  69  85  57  32  49  62  42  61  73  70  65  77  80  73  65  66  92 106 114  85  82  74  61  60  50  53  51  35  36  50  60  38  33  35  34  43  36  50  60  60  68  65  57  58  53  38  53  96  99  90  75  73  58  45  42  49  39  30  22  17  13   9   8   8  10  10  11  30  39  44  44  44  44  44  44  44  45  44  45  45  45  45
  45  44  44  44  44  46  49  47  45  55  72  72  48  42  54  47  47  56  57  51  64  80  69  47  57  84  98  91  89  78  76  64  64  69  59  58  44  40  36  54  52  45  34  35  32  46  39  39  45  49  55  55  53  57  54  54  37  64  94  88  77  56  51  51  33  41  48  27  19  15  12   8   8   8   9  10  12  30  39  43  44  44  45  44  45  45  44  44  43  44  44  44
  45  44  45  44  44  46  47  46  45  48  62  57  51  46  53  44  41  42  41  53  60  77  51  41  58  89  90  87  81  59  75  62  49  64  48  34  32  39  43  58  54  49  35  34  36  36  38  35  37  35  44  53  50  51  58  50  48  41  69  84  75  55  47  41  37  33  43  27  15  14  12   7   8   7   7  10  16  33  40  42  44  45  45  42  43  45  44  43  43  41  43  42
  44  44  46  45  44  45  46  46  46  50  56  55  46  43  42  29  33  36  39  43  54  41  40  35  48  51  56  70  69  42  58  38  44  45  28  28  37  35  48  62  51  40  34  30  29  30  38  34  36  31  41  52  49  49  47  44  41  39  40  56  63  61  48  39  37  31  33  25  13  13  13   8   9   7   8  12  23  38  43  45  44  44  43  42  44  45  45  44  44  42  43  42
  44  44  45  44  43  45  44  45  46  49  54  47  44  39  30  28  26  35  35  43  47  40  25  25  27  39  43  60  55  42  38  25  28  29  34  32  27  32  54  64  44  36  30  25  27  40  40  34  30  34  36  48  43  48  44  38  31  42  37  43  44  49  47  34  33  37  25  17  14  12  11   9   8   8   9  14  27  41  43  44  45  44  43  44  44  45  45  44  42  43  43  42
  44  45  44  43  44  45  45  46  46  57  57  42  42  31  34  30  31  38  36  42  47  23  19  21  21  16  33  43  29  31  36  18  28  32  27  22  26  40  55  49  33  25  20  24  34  39  41  34  27  31  26  37  37  38  37  34  36  39  32  35  37  32  40  31  32  29  19  13   9  10  11   9   9  10  10  10  26  42  44  44  45  44  45  45  46  45  45  45  44  44  42  42
  44  44  44  43  44  45  44  46  50  64  52  44  40  29  34  29  31  34  44  30  23  12  18  19  12  12  34  43  30  29  29  18  19  13  10  11  16  18  16  16  17  17  20  30  38  35  34  25  25  26  19  26  31  31  31  27  37  30  34  31  29  29  33  31  24  31  17  12   9   9   9   9   9  10  10  10  26  42  44  44  44  45  44  45  45  45  45  45  44  44  44  45
  45  44  44  45  45  44  45  45  49  48  50  50  38  26  27  32  24  17  18  19  21  16  27  25  20  42  50  50  49  51  48  43  38  46  66  82  86  77  64  60  40  25  17  17  21  23  19  18  22  20  14  18  23  24  29  32  28  22  27  30  24  29  28  21  17  20  13  11  11  10   9   8  10   9   8  13  29  42  44  43  45  44  44  44  44  45  45  44  45  45  44  44
  46  44  44  44  45  44  45  45  47  47  55  51  35  25  24  33  31  24  22  21  25  38  41  30  31  37  50  58  87  87  64  89 107 107 121 130 134 131 119 115  99  73  54  42  34  28  23  18  16  13  10   7  12  17  22  28  24  26  21  23  21  27  25  17  16  16  14   8   9   8   9  11  11   9   9  15  33  43  44  44  45  45  45  45  44  46  45  46  45  44  43  43
  44  43  44  44  46  45  44  44  46  46  53  52  42  28  22  36  41  39  36  50  34  36  27  18  38  49  70  91  95  90  83  90 102 114 116 125 129 131 125 120 109 106 100  86  71  52  43  33  22  19  15  14  19  21  14  12  22  25  18  22  23  25  26  13  12  14  10   7   9   8   9  10  12  11   9  15  34  45  44  44  45  45  45  46  44  45  45  44  45  45  43  41
  45  44  43  45  45  44  45  45  45  46  54  51  47  38  24  30  34  29  34  31  20  11  13  36  68  80  77  70  70  96  93  87  79  85  77  81  84  88  87  87  94  88  80  78  82  64  60  59  47  34  29  29  21  20  19  14  17  17  17  19  20  20  22  14  11  13  10   8  10   6   7   6  10  11   9  21  48  42  44  44  44  42  44  44  43  45  43  44  43  44  44  41
  44  44  45  45  44  44  45  45  45  46  55  50  45  43  29  26  30  20  25  25  11  13  23  40  68  71  70  63  95  86  99  95  70  75  70  80  71  67  66  70  77  63  74  87  68  67  62  63  65  50  41  36  34  18  26  19  16  13  13  13  13  14  17  14  11  11  10  10  10   7   6   7   8   8  10  23  67  43  44  44  44  42  45  44  43  44  43  42  41  43  43  41
  45  44  45  45  44  45  44  44  44  50  48  48  47  42  35  30  33  38  26   9  12  24  35  41  52  54  61  65  89  91  79  67  77  77  69  75  70  63  59  75  69  65  59  70  74  69  61  66  63  48  35  39  34  17  25  22  24  18  12  11  11  11  17  14   9   8   9   8   9   9   7   7   7   6   8  22 116  62  41  44  44  45  43  43  44  44  43  41  40  41  42  43
  45  44  45  45  45  44  43  44  44  45  45  44  44  44  35  33  34  26  16  11  28  42  45  50  44  32  46  68  82  72  54  81  79  85  69  69  57  56  65  72  67  70  57  63  65  61  67  64  48  51  32  31  24  28  28  26  31  18  10  11  12  11  12  12   8   6   7   7  10  10   8   6   5   6   6  24 136 102  38  47  46  45  45  44  43  44  43  42  41  41  42  41
  43  45  46  45  45  44  44  44  45  44  45  45  45  47  41  31  35  32  16  10  30  37  59  47  29  31  42  65  53  49  52  59  65  49  43  53  61  50  54  70  70  69  55  66  59  56  66  61  50  46  24  19  22  21  20  24  30  22   8  12  11   9  10  14   8   8   9   9  10   9   7   6   5   6   7  37 138 137  43  39  47  44  46  44  46  43  43  44  43  43  43  41
  43  44  44  45  46  44  45  45  44  44  45  45  45  45  47  41  36  36  23  13  13  40  60  23  32  32  37  47  37  49  59  51  49  48  59  65  57  52  74  76  59  63  48  61  48  57  58  51  37  30  25  17  35  22  13  24  23  24  13  12  10  10   9   9  12   9   8   9   9   8   6   6   6   9   8  51 147 151  75   5  39  49  45  45  45  44  44  44  44  43  42  41
  44  44  44  44  45  45  45  45  44  44  44  45  46  46  46  47  46  43  31  20  18  40  39  14  26  31  46  49  66  52  65  59  66  60  71  62  57  63  70  57  56  52  48  63  54  50  50  47  26  19  22  21  43  24  12  21  23  11  12   9   9  10   8   7  10   9   9  10   7   5   4   6   9  13  12  65 156 142 137  20   7  33  48  45  44  43  45  44  44  43  42  40
  44  46  44  44  44  45  45  45  44  43  44  44  44  47  45  48  54  48  39  29  17  46  40  24  32  29  45  50  51  53  67  78  67  59  70  64  65  70  69  55  46  52  58  55  47  46  42  27  18  15  20  20  47  32   9   8  24  10   6   7   9  10   7   6   7   7   8   7   5   4   7   8  13  21  23  85 160 139 152  89   0  10  32  47  43  43  43  43  44  42  42  41
  44  45  43  44  45  45  44  44  44  43  45  44  44  45  46  46  48  48  47  39  49  48  32  33  49  49  62  78  58  67  77  63  62  66  71  62  62  66  70  57  56  58  54  38  34  39  40  29  26  17  19  18  30  31  16  17  26  10   4   7   9   7   7   7   7   7   7   6   6   5   6   8  17  30  32 109 161 141 144 147  23   5   9  31  47  45  42  42  44  43  42  41
  46  45  44  44  46  45  44  44  44  44  44  45  44  44  46  47  44  48  51  51  43  33  33  47  66  65  70  83  60  67  47  51  76  77  78  82  76  74  80  60  60  57  46  34  34  30  29  29  29  19  20  14  17  20  12  17  26  13   4   4   6   6   7   8   7   8   6   4   3   4   6   7  21  35  43 139 156 142 146 161  90   0  10  10  27  45  43  43  43  42  42  41
  46  44  43  44  45  44  45  44  45  44  44  44  45  44  44  47  45  45  48  50  44  33  21  54  61  74  69  78  60  35  42  59  77  77  79  82  83  94  95  79  62  54  46  48  42  32  30  26  20  16  19  12  21  22   8  11  13  13   5   5   7   6   8   8   8   6   6   4   3   5   7  12  30  32  72 161 149 146 151 153 150  25   5  10   7  22  43  45  42  41  42  42
  46  45  43  45  44  44  44  44  45  45  44  45  44  44  44  45  47  46  50  64  66  45  18  49 112  77  46  49  54  49  49  53  57  71  85  62  73  89  87  76  67  49  36  40  37  29  30  26  22  21  27  38  20  38  14  15  12   9   5   4   9   7   7   7   7   6   5   4   4   6  12  20  36  37 128 165 147 151 154 151 166  87   0  11  10   7  17  39  45  43  41  42
  45  44  44  44  44  44  44  44  44  44  45  44  44  46  46  47  49  52  60  59  75  90  18  52  84  79  63  33  43  39  44  42  53  63  58  57  63  74  67  86  58  40  33  27  32  23  25  26  24  18  19  33  23  28  14   9  11   4   6  11  11   6   5   7   7   5   4   4   4  10  19  30  33  70 163 153 148 153 156 153 160 134   7   9  10  10   8  12  30  44  41  42
  44  45  45  44  43  44  45  44  45  45  45  45  47  46  47  49  58  60  60  47  60 193  59  55  71  81  66  53  39  42  37  46  57  61  64  50  49  60  54  54  45  41  35  35  26  27  22  18  27  22  25  34  34  21  14   7   6   7   9   6   5   6   6   5   7   7   5   6   6  14  26  30  33 135 161 148 148 155 157 154 154 157  33   6  11  10  10  10   9  24  43  43
  43  44  43  44  43  44  45  46  45  45  46  45  46  49  54  60  59  59  56  39  66 245 156  40  63  54  86  71  47  41  51  44  61  59  48  41  47  45  34  39  41  44  46  27  22  32  21  14  36  28  35  45  30  14  11   9   8  12  11   5   4   4   6   5   5   6   5   6   9  22  32  19 102 168 149 147 154 158 158 155 153 167  56   2  11  11  10  11  11   9  18  35
  45  44  43  44  44  45  45  46  46  46  47  49  53  59  58  57  57  57  53  33  98 254 220  78  40  48  83  53  58  34  37  52  46  43  36  30  32  36  41  48  37  37  23  15  27  43  23  18  56  42  35  42  37  12  10   7  14  18   7   5   5   5   5   4   3   6   6   7  16  30  18  78 165 158 149 153 159 158 159 156 155 170  75   2  10  10  10  10  10  11  10  14
  44  45  43  45  45  46  45  46  48  49  49  53  58  57  55  55  57  55  52  27 136 254 248 181  55  49  65  44  41  35  16  26  31  38  31  21  32  28  47  43  26  22  19  24  45  44  24  44  62  12  51  31  23  11   9   8  10  10   8   7   6   5   3   3   4   6   6  11  23  15  59 159 161 151 152 159 161 159 158 155 157 170  91   4  10  11  12  10  11  11  13  11
  44  46  45  46  52  50  49  48  47  47  52  57  56  57  56  54  56  53  47  24 169 254 237 242 124  38  56  76  43  30  21  29  27  26  24  23  33  23  31  31  22  28  19  23  32  36  51  43  38  13  46  34  15   7   9   8   7   8   7   6   7   4   3   3   6   7  10  18  14  52 153 165 153 152 159 160 160 160 159 157 159 169 101   8   9  12  11  11  11  12  13  12
  44  46  49  49  59  50  46  45  45  49  52  52  54  54  54  55  56  51  46  28 189 251 237 245 227 106  51  72  61  28  27  27  30  25  22  21  26  22  20  20  22  21  18  19  18  28  29  33  32  31  19  14  19  14   8   7   7   7   5   7   6   5   5   8   9  10  14  10  55 150 165 155 152 156 160 160 160 162 161 159 160 169 106  11  10  12  12  12  13  12  11  12
  48  49  51  50  46  47  46  44  50  51  50  51  51  51  52  56  54  50  46  33 200 249 237 237 237 222 108  62  58  30  32  31  42  21  22  16  19  20  22  22  19  17  17  17  18  22  34  23  16  21  10   8   6   6  11  10  10   6   6   6   7   7   9  10   9   9   8  60 150 161 155 154 156 159 160 162 162 163 162 162 162 167 108  13  11  12  12  11  11  12  11  12
  51  51  48  45  45  45  44  47  49  47  48  49  50  50  51  53  51  48  45  36 207 248 237 237 235 240 196  95  21  30  38  29  43  30  28  14  16  17  17  21  17  15  12  12  15  16  42  17  17   9   9  10   6   9  10  11   9   7   6   6   6   9  12  15   7   5  79 155 163 156 156 158 159 160 163 164 164 163 164 164 164 168 109  16  10  12  12  12  11  12  12  12
  49  46  45  45  45  44  48  49  46  46  47  48  49  52  52  51  50  48  41  39 209 248 236 236 236 236 243 208 112  39  36  22  23  26  19  10  13  14  13  13  15  17  19  20  13  25  24  21  15  10   7   7   7   7   8   8   7   6   5   6   6  13  19  10  14  97 163 163 160 159 160 160 160 161 163 164 167 167 167 166 165 167 111  20  10  13  12  12  12  12  12  11
  45  44  44  45  45  46  47  45  43  44  47  50  50  50  51  50  48  46  40  35 213 247 237 236 237 236 233 242 236 139  63  40  27  31  23  18  13  14  15  13  15  16  23  20  24  34  18  19  23  10   6   6   8   7   5   7   7   6   5   7  10  14   8  31 116 165 163 162 163 164 164 164 164 165 165 165 166 166 169 169 167 166 107  21  11  13  11  12  12  12  12  12
  42  44  44  44  45  45  45  43  44  46  48  50  48  48  50  49  47  46  38  35 213 247 236 236 237 236 236 235 237 235 191 171  82  31  35  28  20  20  16  14  18  16  17  19  17  10  19  24  15   7   6   6   5   6   6   6   5   7   8  14  15  14  55 131 161 162 163 166 166 167 167 169 168 167 166 166 166 167 171 170 167 164 101  23  11  14  12  12  13  13  12  12
