P2
# Generated by OpenCV 4.2.0
92 112
255
  36  38  38  37  38  38  38  38  35  37  36  31  36  38  38  38  34  37  34  36  38  41  45  49  52  57  62  66  76  62  69  75  71  76  78  82  73  91  93  88  76  77  69  89  64  78  68  77  84  93 106 110 105 100  91  78  59  63  57  55  58  53  45  39  39  37  38  38  36  38  37  35  37  38  38  39  37  36  36  38  38  39  37  35  36  39  34  39  38  37  34  98
  35  37  37  37  37  38  38  38  37  37  35  35  37  38  37  36  37  38  39  41  43  40  48  54  55  62  70  76  93  77  75  84  70  83  87  87  85  95 110 109  85  86  72  84  76  74  75  87  89 109 116 129 128 128 120 108  87  75  70  66  61  63  58  51  38  39  37  37  39  38  37  38  37  39  37  39  38  38  39  37  38  39  38  39  38  38  39  38  40  39  37  21
  37  36  36  35  36  38  38  39  38  38  38  37  38  37  36  36  37  38  41  38  43  55  53  52  61  69  91  97  98  96  79  87  81  87  91 105  95 105 118 120 103  98 102  91  93  81  89  93 103 120 136 147 148 145 136 130 123 107  82  71  69  63  64  58  39  38  40  37  37  36  38  38  37  36  36  38  35  34  38  39  39  39  39  38  38  39  36  38  38  39  40  12
  37  36  36  37  36  38  38  38  38  39  38  38  38  37  38  37  38  37  38  42  46  59  66  72  69 117 137 134 118 103 102  92  96 107 114 125 120 124 121 135 120 117 116 114 110  99  97 106 113 134 144 157 155 154 151 140 141 138 123  92  71  67  67  68  54  40  41  40  38  37  39  38  36  36  35  36  38  38  38  38  37  37  37  37  38  37  37  37  37  38  37  15
  36  38  39  39  39  38  36  38  39  36  38  38  37  38  38  37  39  46  47  57  55  65  65  87 135 144 158 168 153 139 131 107 108 129 133 142 149 141 139 143 141 142 133 148 137 130 133 134 139 151 158 161 164 164 159 158 155 155 144 132 103  73  67  67  62  51  41  39  38  36  36  36  38  39  38  37  36  38  38  37  39  38  39  39  39  37  37  38  38  37  36  38
  38  38  38  37  38  37  38  38  37  35  38  37  36  38  40  41  37  44  53  51  60  56  84 146 155 155 169 180 177 173 162 134 120 148 159 163 167 165 166 168 172 171 166 165 169 155 163 168 170 173 174 173 173 171 171 166 162 160 154 145 138 108  80  69  73  55  46  40  36  38  35  36  37  37  38  38  34  38  39  38  38  38  38  39  38  36  37  37  37  36  37  34
  38  38  37  37  37  37  35  35  38  38  38  38  37  39  39  36  39  46  50  59  55  90 145 159 168 177 161 180 192 189 182 168 159 165 184 187 182 183 186 189 185 190 181 187 188 180 185 189 186 182 181 178 173 175 171 172 168 165 159 153 147 131 107  79  71  77  54  51  36  37  37  37  39  39  41  37  38  37  36  37  38  38  39  38  40  39  38  37  39  37  37  35
  37  38  37  36  37  36  37  37  38  37  39  38  38  40  40  36  41  41  60  70  98 141 154 171 178 187 180 183 192 195 193 182 174 178 192 197 193 194 191 190 195 197 196 192 200 195 190 192 193 188 186 184 176 174 170 170 171 169 162 157 149 150 130  99  72  76  64  53  46  38  37  37  39  39  39  35  38  37  38  37  37  37  38  37  38  39  39  37  38  37  36  36
  35  37  36  33  36  38  38  36  36  36  37  38  37  39  43  35  37  66  76  87 146 155 159 170 180 190 191 194 193 189 194 199 199 199 203 205 204 204 207 201 202 205 204 203 202 200 199 196 193 194 190 187 179 177 173 169 169 167 163 156 152 157 150 124  95  63  72  57  50  45  39  40  38  37  37  36  36  38  38  37  37  38  38  37  39  39  38  39  38  39  38  36
  35  37  37  38  37  37  35  36  36  38  37  34  38  37  41  42  57  84  75 141 152 153 166 173 184 192 190 188 190 195 195 201 203 202 203 207 208 208 211 207 210 207 205 203 202 201 201 197 192 191 191 187 183 180 174 169 168 166 162 156 153 158 154 148 118  79  67  73  56  55  46  33  35  41  37  37  35  38  38  38  38  38  38  37  39  39  39  38  37  37  39  38
  37  37  37  37  38  38  38  37  36  37  38  37  39  38  39  45  82  58 123 147 156 163 170 176 183 190 189 192 194 197 198 200 200 202 205 210 208 209 211 208 208 205 208 205 206 204 198 197 195 193 191 186 185 179 179 171 167 164 159 155 155 154 157 156 138 110  72  68  70  44  58  42  31  37  36  35  38  38  40  38  39  39  37  38  40  39  38  37  37  36  38  39
  38  38  38  38  38  37  38  37  37  37  37  38  36  39  41  68  67  99 144 153 160 166 171 175 186 191 189 191 194 197 196 198 201 203 207 212 211 210 208 204 207 206 206 207 208 204 199 199 196 196 195 189 185 183 180 174 169 167 162 156 152 150 151 159 147 133  96  83  69  54  34  48  40  37  38  38  37  35  37  38  37  37  38  36  38  37  38  38  38  37  39  38
  37  38  37  37  37  36  38  36  37  37  37  37  38  47  57  70  76 136 150 156 166 167 167 174 184 187 189 192 194 194 196 201 206 206 207 209 207 210 211 207 205 208 208 207 205 203 202 199 196 196 195 193 189 185 183 179 173 170 168 162 157 152 152 152 151 141 124  81  79  70  43  34  38  39  36  38  36  37  37  37  37  38  37  37  38  37  38  38  40  38  37  38
  39  39  37  38  37  36  37  37  36  37  36  38  38  52  59  68 112 152 149 160 166 167 169 179 185 185 188 192 195 198 201 206 207 205 208 208 211 213 211 208 206 206 205 205 203 203 201 198 195 196 197 194 191 187 181 182 178 172 171 166 161 155 151 140 149 144 138 113  79  76  55  30  31  39  37  36  37  38  39  39  38  38  39  38  36  38  38  39  38  36  37  38
  37  37  37  36  36  37  38  37  34  37  39  36  39  39  68  72 151 147 156 162 164 168 172 177 184 187 188 192 198 202 205 207 207 205 206 209 210 212 212 207 204 206 201 202 201 200 199 199 196 194 194 193 191 186 180 177 178 179 171 166 162 156 154 149 142 144 140 132  80  84  62  44  37  24  40  38  38  38  38  39  39  37  40  40  38  37  39  38  38  37  37  39
  38  37  37  36  36  36  36  37  36  38  36  38  40  46  75 122 143 151 156 163 169 173 176 178 183 186 191 197 203 204 206 208 207 208 209 210 210 211 208 205 203 204 201 200 200 197 197 196 195 197 197 194 193 187 181 175 176 179 174 168 163 159 158 152 144 138 145 142 111  72  77  64  40  26  35  28  34  38  37  39  37  39  38  39  37  39  39  37  38  38  38  38
  36  38  37  37  37  34  35  37  36  35  39  37  35  71  90 145 151 151 160 166 168 172 177 180 184 190 194 198 198 202 208 209 207 210 209 207 207 211 209 206 206 203 200 198 198 195 200 194 194 196 195 194 192 187 182 180 177 176 176 173 166 164 161 156 147 134 146 145 133  83  80  50  43  26  27  32  31  36  38  38  36  36  39  39  37  37  38  40  39  36  37  36
  38  36  37  35  36  36  37  38  37  38  37  35  36  86 120 149 146 155 164 167 171 173 180 180 185 188 193 197 204 204 206 208 208 208 208 207 209 208 207 205 204 203 201 203 201 199 200 199 195 195 198 194 192 191 183 183 177 179 179 173 167 164 161 154 145 137 142 148 135  94  63  70  40  35  33  30  33  36  37  38  37  36  40  39  36  38  39  38  38  37  38  38
  38  37  37  37  36  36  38  38  38  37  35  34  50  91 142 147 147 161 165 170 172 176 179 181 186 192 195 200 204 204 204 205 207 207 206 204 204 206 206 203 204 202 202 202 204 202 202 199 197 199 195 196 192 190 185 179 178 180 179 177 170 166 163 151 144 136 142 147 144 112  73  58  61  28  31  33  35  34  35  38  38  38  37  36  38  36  38  38  38  37  37  37
  35  38  38  36  36  35  38  38  37  38  33  34  78  99 146 143 146 164 163 168 172 174 177 179 185 191 196 199 203 204 205 203 204 206 203 203 204 206 206 206 206 205 202 204 204 203 202 202 199 200 197 195 191 188 184 182 182 181 179 175 171 166 163 153 142 140 142 148 149 133  80  69  57  43  29  33  38  33  33  37  37  37  38  39  38  38  39  38  39  37  35  36
  36  36  37  38  36  36  36  40  39  37  30  51  93 121 147 136 147 162 168 170 174 175 177 179 184 193 194 197 200 204 202 203 203 205 206 205 205 208 210 207 206 205 205 205 206 204 204 201 201 199 197 192 191 189 187 184 182 183 182 178 174 167 161 153 142 141 141 147 146 144 105  73  73  55  22  43  54  26  33  37  37  38  37  38  37  38  39  38  39  39  39  39
  38  38  38  37  37  35  36  39  41  38  32  62  98 139 147 137 149 159 168 169 175 179 180 182 185 192 195 197 201 205 203 204 206 205 204 205 205 207 211 210 210 210 210 210 211 204 204 202 198 200 197 196 193 189 189 184 184 184 182 178 172 168 162 155 145 144 139 144 147 145 127  63  76  54  39  39  33  49  31  37  38  38  38  38  38  37  38  38  39  39  39  40
  38  36  37  37  39  38  36  36  51  62  37  78 101 145 146 135 149 162 168 171 176 179 182 180 183 190 192 195 200 203 203 204 206 206 205 205 204 207 209 210 207 208 206 206 207 206 206 203 200 200 199 196 192 190 186 183 183 182 181 176 172 170 162 155 149 142 140 146 147 145 137  82  65  42  31  28  34  61  25  37  34  39  38  38  37  37  38  37  37  36  38  39
  39  37  36  35  31  62  87 121 184 194  19  76 123 149 143 137 144 162 169 171 175 178 181 181 184 188 190 190 193 200 202 203 206 205 205 205 206 209 210 209 208 205 205 204 210 211 207 204 198 195 196 193 192 188 188 184 185 184 181 179 176 172 161 157 153 140 140 144 146 140 133  93  72  44  30  25  33  41  32  37  38  38  38  38  38  37  39  38  37  37  39  39
  35  38  38  84 167 209 171 108 108  68  43  78 126 144 142 135 144 160 173 173 177 178 180 183 184 187 189 190 193 202 205 206 206 206 207 205 205 207 207 208 206 205 208 206 212 208 204 205 202 198 198 194 191 190 187 186 185 187 181 180 178 170 166 154 149 139 138 145 145 142 126  98  74  55  34  36  26  36  36  35  36  38  37  37  38  37  39  38  36  37  39  38
  26  60 172 206 182  96  37  28  58  28  55  90 131 141 140 135 145 160 166 175 176 177 181 185 185 190 190 195 196 202 206 206 206 206 207 209 209 209 209 209 207 204 205 203 206 207 206 205 205 202 196 194 192 190 187 187 186 189 181 178 178 170 165 157 150 141 141 146 146 141 125  97  69  61  36  39  44  36  43  33  34  38  38  39  39  39  39  39  38  39  38  41
 108 219 216 109  34  37  39  41  47  18  67  89 137 139 135 137 145 158 165 174 178 177 180 185 187 188 193 195 197 203 206 204 205 206 207 206 209 210 208 207 204 202 201 203 205 206 204 202 203 201 200 201 198 191 185 184 185 187 181 179 175 172 162 156 148 143 141 145 144 143 120  90  83  45  29  34  40  36  53  33  34  35  35  39  37  36  38  38  37  38  39  37
 227 200  31  28  36  36  36  40  49  39  67 100 137 137 134 141 150 158 166 175 181 183 182 186 191 191 192 201 201 202 203 202 204 205 206 204 204 206 206 209 207 206 205 204 206 206 204 205 206 204 202 197 190 188 185 184 188 187 181 178 172 172 161 155 152 147 141 143 143 142 126  86  84  56  38  29  35  62  47  34  33  32  36  38  37  38  37  39  39  38  37  38
 190  32  38  40  37  40  37  39  42  50  72 100 133 136 134 143 154 157 165 175 179 181 181 186 187 188 194 196 199 202 203 203 205 206 207 206 206 205 207 208 206 206 205 205 209 209 206 208 208 208 207 201 198 196 194 190 191 189 185 183 176 168 161 155 154 148 139 139 142 140 121  93  62  44  34  28  33  63  47  37  30  32  37  38  40  39  39  39  38  39  40  43
  31  40  40  32  39  40  37  38  57  42  67  92 128 136 135 140 149 155 164 173 177 179 178 180 180 184 190 192 198 204 206 204 205 206 207 209 208 206 206 207 207 207 206 208 206 209 207 206 208 206 207 201 200 198 193 187 193 188 183 185 178 172 163 155 153 146 140 139 139 137 117  92  66  57  35  31  48  61  48  42  32  32  32  38  39  36  38  38  37  37  37  39
  32  40  34  37  40  37  36  37  68  43  54  86 123 131 135 140 150 158 166 172 174 177 178 181 184 192 197 197 201 205 207 206 207 206 208 209 209 209 208 208 210 208 210 209 209 210 206 206 207 206 207 203 203 198 196 194 190 190 190 186 180 173 166 158 156 146 139 142 144 138 114  88  72  61  22  40  37  42  36  48  29  30  32  33  39  38  38  40  38  38  38  37
  43  36  39  39  35  38  39  42  62  48  56  78 124 136 134 142 153 160 164 171 176 185 182 183 187 193 195 197 201 205 206 206 207 208 210 208 209 209 206 209 207 210 210 210 212 209 212 211 209 208 204 198 204 202 198 198 191 192 190 187 181 175 170 161 153 144 139 141 139 134 117  86  70  65  24  24  43  43  60  32  30  28  30  33  37  38  39  38  36  37  38  38
  42  39  38  38  37  39  38  38  60  45  60  74 125 130 138 145 158 158 164 172 179 187 185 185 188 191 193 195 197 203 203 206 205 206 210 212 213 209 203 209 212 209 204 210 211 214 214 210 208 206 202 199 207 203 199 194 193 188 191 189 181 174 168 164 155 147 145 142 137 130 110  86  52  56  44  34  43  45  35  30  28  29  27  34  38  38  36  38  39  37  35  38
  37  37  38  39  39  35  39  42  45  46  59  77 119 138 141 147 154 160 165 172 178 184 185 183 186 190 192 190 193 199 202 205 203 207 211 211 210 211 201 208 212 209 206 210 209 213 211 207 208 206 203 203 202 197 197 193 185 190 184 190 184 175 169 161 154 149 143 139 136 126 102  89  53  44  44  34  36  34  32  30  28  27  27  33  36  36  37  38  38  38  39  39
  41  40  39  38  38  39  38  38  43  68  48  80 115 144 140 148 152 158 164 171 180 179 183 182 180 182 189 189 192 193 195 202 201 203 210 209 212 207 195 203 213 212 213 204 202 207 203 202 198 193 196 190 186 190 177 164 157 145 153 180 186 179 169 159 150 150 138 139 133 119 105  81  46  62  44  33  33  33  28  28  26  27  28  33  38  38  37  37  38  38  38  39
  40  41  39  39  38  38  39  44  27 107  34  83 109 132 141 149 155 159 167 172 181 177 178 177 183 184 187 185 187 188 192 201 200 197 203 208 212 204 194 200 209 209 210 200 196 196 195 195 193 182 173 159 130 121 117 100  99  91  91 115 180 177 172 159 150 149 144 142 137 115  92  71  61  71  38  39  26  35  28  26  27  25  27  32  36  38  36  39  37  39  40  38
  39  38  39  40  38  38  34  54  68  75  39  65 106 126 142 150 159 159 163 171 176 165 164 166 171 172 175 168 172 177 182 193 190 193 197 208 205 202 188 198 206 203 204 192 190 188 187 182 170 152 114  98  92  86  75  73  63  68  65  62  82 162 166 152 149 154 148 145 140 116  88  68  70  77  39  45  34  32  28  37  29  27  28  32  36  39  37  38  38  37  36  35
  38  37  37  37  39  38  37  34  57  70  48  66  99 122 139 149 162 159 160 169 157 112 104 105 113 135 137 143 146 149 158 158 165 179 186 201 202 197 187 194 206 202 195 181 167 170 168 152 118  90  80  64  61  60  63  67  66  55  52  61  53  67 137 161 147 153 150 148 141 119  88  60  69  63  42  43  30  40  45  35  28  27  30  34  36  37  38  39  40  39  38  38
  39  38  38  37  38  38  38  50  49  63  49  68  91 116 141 151 162 159 157 162 110 104  86  86  91  96  99 105  85  96  87 103 139 163 176 188 194 191 187 194 200 197 190 172 154 135 137 112  80  59  57  52  45  49  49  60  59  58  52  50  52  59  53 122 144 156 149 152 141 131  91  63  71  41  45  50  39  34  28  31  30  29  31  35  37  37  38  38  39  38  39  37
  39  37  39  38  37  38  42  47  49  63  49  56  79 112 142 147 158 150 138 110  76  83  72  73  72  77  74  65  60  57  61  76 104 135 163 179 186 184 186 193 197 196 185 162 147 128 119  94  76  60  64  79 100 104 108 104  94  81  66  41  46  56  53  59 125 151 151 154 146 133 100  59  53  39  46  39  40  34  28  30  31  31  32  35  38  40  38  36  37  38  38  38
  37  39  38  38  38  38  35  41  40  64  56  49  65 104 144 148 161 122  81  69  76  69  68  68  64  71  55  36  33  36  39  57  72 112 140 172 179 186 185 193 198 191 183 162 150 138 117 101 117 143 162 168 180 183 182 171 155 128 112  99  80  60  53  51  85 130 150 155 149 133 112  62  56  51  39  41  37  34  33  31  31  32  36  36  36  40  38  38  38  36  38  38
  39  39  38  38  38  37  40  40  43  66  61  45  49  94 148 155 137  75  68  50  54  57  60  54  55  72  86 101 117 136 131  94  89  79 118 158 175 190 190 192 194 186 179 165 156 141 127 155 170 154 138 116 122 140 163 170 170 163 148 129 117 102  78  63  76 115 147 153 150 142 113  79  47  65  51  37  71 111 127  99  38  35  38  38  40  38  39  38  39  37  40  39
  39  39  39  39  37  38  40  42  40  64  62  48  52  94 148 156 124  83  54  39  44  58  69 103 123 149 170 188 180 159 160 159 155 129 104 147 171 182 190 196 195 190 178 166 157 143 146 161 147 127  89  72  34  43  29  36  82 129 147 138 114 103  92  84  83 100 148 152 146 147 129  90  47  57  54  59  85 112 142 125  95  36  42  39  38  39  39  39  39  38  40  40
  38  37  39  39  37  37  38  41  32  87  57  42  49 107 145 152 133  61  43  42  74  71 113 129 140 139 113  57  57  67 102 125 131 141 125 121 157 183 194 199 199 190 176 166 154 147 143 124 126 115 156  95  48 132  89  53 112  46  65 117 135 118 113  99 100 108 130 154 152 147 136  92  61  42  53  54  78  97 107  99 121  50  41  39  40  38  39  39  39  38  37  38
  39  37  38  37  38  37  37  41  37 100  62  44  62 106 148 151 138 100  61  68  86 104 115 108  57  48  34  59  84  80  59 105 132 131 126 121 142 175 198 204 204 194 178 162 157 150 145 141 143 140 210 147  60  51  45  63 150 124  65  51 109 137 138 120 115 119 133 151 153 149 136 100  63  62  44  52  74  76  70  93 127  76  39  39  36  37  37  38  39  39  37  37
  38  40  36  38  37  37  37  37  39  97  90  53  68 115 154 148 127  96  83  94 106 108  87  39  62 152  51  55 178  93  82 194 116 148 142 122 140 172 196 207 207 195 179 162 158 155 149 167 128 140 166 175 117  97  89 124 143 128 116 102 101 132 140 131 129 138 142 151 155 150 135 107  72  55  63  44  52  80  82  95 125 103  30  38  36  37  38  38  37  40  39  39
  38  38  38  37  38  39  37  39  36 108  84  61  75 120 148 153 134 110 107 111 105  84  51  77 118 148  86  64  36  75 116 167 138 122 153 130 151 175 197 210 207 198 182 166 155 158 152 169 168 155 158 147 144 149 137 118 136 133 136 138 137 134 139 147 152 158 150 154 155 146 134 110  68  33  53  55  75  96 117 143 142 126  12  33  38  38  39  39  39  37  40  39
  39  36  40  36  37  37  37  37  45  97  99  84  61 131 147 152 133 128 123 129 119 112  96 114 108 116 129 130 146 150 149 151 165 160 147 141 156 182 201 207 203 197 181 166 157 154 155 165 167 152 146 142 142 147 152 135 151 151 153 164 165 148 143 150 155 167 161 156 155 143 135 112  78  40  56  60 123 146 144 162 153 145   8  37  34  36  41  39  38  38  40  37
  38  38  38  38  38  38  41  41  38  98 118  73  68 121 147 155 143 131 132 144 124 131 138 138 140 129 143 153 161 166 165 155 167 158 153 151 159 190 201 206 202 197 184 167 160 157 159 164 161 160 156 155 160 165 166 165 161 156 154 167 169 170 166 166 171 169 162 160 150 142 133 111  80  46  48  56  84 158 138 173 151 158  28  30  31  32  37  38  40  40  41  38
  38  38  39  40  40  37  40  46  52  85 104  78  75 121 148 151 157 149 147 146 143 147 155 147 150 165 158 171 164 173 170 166 165 161 158 159 167 190 203 206 199 193 182 168 163 159 163 171 169 166 172 177 170 164 163 162 154 160 168 171 172 168 181 169 173 173 169 163 151 145 125 114  76  58  60  52  87 137 124 137 154 163  34  31  31  34  36  38  39  40  39  40
  35  42  46  43  39  47  50  44  44  79 122  68  73 120 140 150 155 160 161 158 154 151 157 159 152 154 164 164 169 173 176 173 172 171 166 164 170 183 195 202 198 194 178 170 164 161 165 177 178 173 175 178 181 181 179 180 181 175 178 177 176 183 182 181 170 171 170 156 148 141 128 111  62  55  61  58 105 125 106 133 160 183  21  32  31  30  38  38  38  39  40  39
  40  39  44  53  47  46  39  39  29 108  99  71  72 110 141 150 157 163 160 167 169 160 165 170 169 171 176 178 184 184 186 181 181 182 172 167 173 181 195 205 203 195 171 170 167 165 164 180 183 187 186 181 184 187 186 186 184 179 179 185 181 187 182 185 173 167 167 157 148 138 127 103  55  43  67  53  69 113 137 154 165 191  24  28  30  31  37  37  38  39  39  40
  38  39  39  37  38  38  36  40  25 124  86  88  58  89 129 147 156 164 165 172 174 176 175 177 180 181 184 184 185 186 190 188 189 183 176 170 176 178 191 205 202 191 173 167 172 173 170 175 186 194 191 189 191 190 189 188 189 186 185 187 185 187 180 182 179 167 164 154 146 134 129  95  46  46  53  68  66 116 166 158 158 180  42  28  28  27  37  38  38  39  39  40
  43  37  36  39  38  40  39  38  39  90  44  95  65  72 136 143 150 160 163 175 176 181 181 180 181 184 190 193 194 188 194 194 191 183 176 174 179 178 189 206 201 190 174 165 171 182 180 178 184 189 188 192 189 188 191 192 188 191 190 189 186 182 180 183 174 169 159 151 141 133 122  95  48  50  55  48  46 126 167 163 147 178  25  30  28  30  36  37  36  38  39  40
  42  39  36  40  38  39  39  38  31  79  54  85  78  68 125 137 152 158 165 172 176 181 188 188 187 192 193 195 196 196 192 194 189 184 178 179 182 180 192 206 202 190 174 168 170 183 187 188 188 188 190 187 191 190 191 193 192 193 192 189 185 177 180 180 174 167 160 151 141 132 119  90  62  54  56  56  45  98 144 157 142 197   0  26  27  28  33  36  38  39  37  38
  56  40  38  37  37  37  39  39  41  71  64  58  78  46 122 139 145 156 167 172 172 184 188 191 189 192 195 195 194 197 193 190 187 186 184 181 179 182 198 207 202 194 178 169 167 177 188 196 201 198 189 189 190 192 191 190 192 190 191 193 190 185 178 172 174 163 157 149 138 133 113  69  65  58  49  53  43  40 111 136 149 163  18  27  25  25  31  37  37  38  39  38
  78  60  35  41  40  38  41  41  41  91  57  52  68  58 120 130 145 155 165 173 174 177 190 193 192 194 192 197 199 197 195 191 187 184 180 176 176 187 200 208 204 196 183 170 164 169 180 187 199 200 199 196 192 192 192 191 192 189 191 189 190 184 177 165 162 158 159 147 133 129 114  71  53  56  58  51  53  32  73 133 150 150   6  24  24  24  31  33  36  38  38  37
  98  99  52  37  40  38  39  45  40  93  72  50  53  52 119 131 136 155 169 173 177 179 190 191 189 193 193 197 195 197 195 190 183 179 171 172 176 190 203 207 202 196 191 179 164 165 174 173 178 185 205 209 196 192 192 189 191 192 189 189 184 179 175 167 166 158 146 132 124 125 107  74  49  41  59  54  50  41  82 109 162 135   1  23  22  23  27  33  36  38  37  33
 121 137 142  53  40  40  42  37  42  96  49  40  49  50 102 122 129 142 162 171 177 181 186 190 192 194 195 198 199 196 198 193 179 163 171 176 181 195 208 207 203 194 190 184 170 165 173 167 166 167 185 200 205 197 192 193 194 193 187 184 183 180 176 168 159 148 139 126 119 111  95  62  42  43  44  40  35  54  63  90 137 125   6  20  21  23  26  32  34  36  35  36
  97 152 167 139  53  33  38  40  40  62  52  37  42  50  86 111 123 138 157 168 175 181 185 191 195 195 198 200 200 200 197 185 162 159 171 177 184 195 207 207 202 196 191 188 167 159 177 170 166 163 165 183 202 204 200 197 192 187 185 183 181 177 173 169 157 142 132 115 108 105  89  57  52  45  41  45  42  75  63  98 140 110  12  21  20  21  28  32  33  31  33  37
 111  77 172 201 141  75  32  44  43  67  70  30  46  56  83  99 121 139 158 168 173 183 190 192 194 195 200 200 201 205 200 174 154 174 174 170 179 189 204 211 211 203 193 182 162 165 185 176 167 158 161 173 186 205 209 198 196 194 188 185 179 173 171 168 157 139 118 109 102  92  73  57  46  38  45  56  40  75  70 125 149  89   8  17  21  22  24  32  31  32  34  34
  84  77  69 184 198 184  92  44  42  82  69  36  50  59  76 101 120 131 152 168 174 185 190 194 195 196 197 198 203 202 185 158 165 179 182 158 171 179 198 211 215 206 185 167 155 173 186 176 169 150 174 164 180 194 208 204 199 194 188 185 179 172 170 164 156 136 113 101  88  92  66  51  42  44  39  64  52  61  61 144 153  62  16  20  19  20  25  28  29  29  29  32
  34  61  68  70 122 157 127  84  45  67  47  54  57  61  70  98 107 115 138 167 178 186 191 194 196 196 196 202 207 196 171 163 162 175 175 151 137 161 176 177 183 176 167 150 145 169 171 167 154 144 177 165 174 184 201 205 196 199 191 188 179 173 170 164 153 133 115  94  82  78  66  47  45  49  29  45  50  58  59 152 160  60  19  15  17  19  26  28  28  28  27  28
  40  37  45  61  60  69  92 100  53  54  46  48  72  62  61  86 107 117 148 169 178 187 188 193 195 196 201 206 201 188 161 181 155 151 146 128 121 132 149 163 159 154 142 131 118 105 101 133 148 139 176 183 173 182 191 201 196 197 191 188 182 175 171 165 143 125 114 100  80  63  53  46  40  46  36  43  42  59 116 141 155  45  15  17  19  21  26  27  28  27  26  29
  39  40  37  37  44  47  48  62  63  40  47  51  54  61  59  82 101 117 143 166 179 184 188 192 190 192 198 201 193 176 177 182 150 124 109 101  74  82 117 129 129 129 117  77  60  82 124 126 130 140 174 183 178 176 182 193 193 191 190 185 181 176 170 165 143 122 108  89  80  63  55  47  43  51  43  39  39  63 111 126  94  16  19  16  16  18  24  26  27  30  28  29
  40  37  39  41  45  41  38  48  37  48  42  50  50  53  59  78  91 110 136 168 179 183 188 191 188 189 190 192 184 184 187 181 169 128 128 130  88  53  61 101  99 106  98  70  49  74 112 132 145 157 169 176 182 172 171 181 189 189 187 182 178 177 169 161 145 115  99  83  66  48  54  45  45  45  37  28  32  66  84  65  12  18  10  18  18  20  26  28  24  25  26  26
  39  38  39  40  39  39  42  42  33  40  30  51  40  61  55  74  87 110 143 164 177 179 182 183 183 182 177 172 173 184 189 178 166 156 127  95  55  55  71 107 113 107 111  74  59  49  73 112 141 144 160 170 176 174 162 161 173 184 186 183 179 175 172 155 137 108  89  81  65  57  53  37  39  39  51  24  21  32  22  13  16  17  17  16  18  20  26  29  28  27  28  29
  39  37  40  39  39  40  42  39  34  39  32  36  38  52  54  66  80 104 128 162 174 175 178 176 174 168 153 149 160 172 178 159 138 103  97  62  56  67  93 113  77  95 105  79  60  50  58  79 115 135 140 151 163 168 153 133 141 166 180 184 178 174 162 147 122 110  91  71  69  60  55  41  51  38  35  31  26  21  22  19  18  16  18  18  19  21  26  28  28  29  28  28
  39  37  39  38  39  39  41  41  40  39  27  26  46  51  49  53  71  98 130 158 167 169 167 163 152 139 116 138 156 162 164 146 103  85  66  67  58  70  76  88  68  76 102  83  75  68  55  70  85 106 130 131 141 137 141 115  92 134 169 184 182 171 154 128 105  93  86  74  63  57  56  44  30  43  26  22  21  24  23  19  16  15  16  17  16  20  24  28  28  31  31  30
  38  39  36  38  41  45  42  40  37  33  25  27  50  54  57  60  60  88 124 150 162 156 159 157 123  80  91 118 131 133 124 109  76  77  63  67  59  71  86  80  61  65  86  71  77  65  56  70  75  82  99 112 115 118 118 101  81  82 134 171 175 164 148 118  92  88  83  75  74  48  50  41  27  36  21  19  18  21  18  18  19  17  18  17  19  21  26  27  28  29  30  29
  39  39  38  39  39  39  39  37  37  40  23  26  43  53  45  45  62  88 117 130 149 139 150 133  71  67  93 107 104 110 104  81  67  68  64  58  50  67  83  73  58  61  76  82  74  59  52  73  68  73  91  91  91 101  95  92  81  57  96 141 156 143 137 114  85  70  83  68  73  54  47  19  36  31  16  21  21  22  21  16  17  17  17  17  22  24  26  28  28  31  30  29
  39  39  38  38  40  39  43  42  38  32  25  53  47  45  40  57  74  84 100 115 130 125 130  84  69  79  81 101  98  92  84  66  61  60  70  54  56  69  74  72  58  70  75  67  61  61  57  61  57  71  77  91  82  76  88  74  80  71  65 120 136 140 119  99  78  81  61  58  40  52  41  34  28  19  21  20  21  21  20  17  16  18  17  17  21  25  24  26  29  29  26  29
  41  40  38  39  37  37  39  38  38  34  37  40  49  45  59  54  70  64  87  99 104 100  74  71  65  75  91 101  77  69  81  60  59  56  77  47  71  60  75  66  51  56  86  57  66  63  61  68  51  59  57  76  62  77  79  72  58  81  53  69 111 130 110  84  73  71  63  46  36  30  38  30  27  15  18  22  24  22  23  17  17  16  20  18  23  26  27  28  29  27  25  26
  40  38  37  40  40  40  40  38  39  38  39  42  58  40  54  51  67  74  84  86  87  64  69  54  65  89  94  77  61  63  70  60  45  52  64  51  70  66  64  66  51  66  70  76  68  65  58  55  58  58  70  69  63  56  76  63  68  59  74  51  85 114 105  74  53  69  63  45  33  33  33  38  27  12  16  15  19  20  19  17  18  19  19  21  27  27  27  26  26  27  28  28
  38  38  38  38  37  36  37  42  42  39  40  39  63  36  61  51  53  76  62  78  64  62  71  56  75  68  69  44  67  56  57  49  40  60  56  61  46  71  56  77  71  70  69  69  56  58  52  55  61  55  66  60  76  55  69  69  50  75  66  45  59  88  83  75  52  56  46  49  44  21  24  32  28  18  12  12  14  17  19  18  17  18  21  23  27  27  28  28  30  28  27  28
  39  38  39  38  39  39  37  42  37  36  42  40  45  50  55  61  50  67  68  59  55  62  59  63  69  61  51  54  46  51  50  45  48  54  49  56  60  68  69  71  68  70  61  58  55  56  51  52  60  65  66  61  75  73  63  68  64  65  77  50  43  63  65  63  62  60  52  62  41  27  23  31  24  28  17  18  15  19  19  17  17  20  20  23  26  27  28  28  29  28  29  28
  39  39  38  38  38  39  39  36  39  37  41  49  45  49  58  54  51  60  61  43  68  73  61  62  63  51  52  42  40  28  53  55  55  48  44  56  41  49  65  72  63  63  57  46  48  41  48  64  63  73  64  62  81  60  67  70  69  52  54  52  52  47  51  49  41  55  48  56  57  38  43  34  32  36  18  11  22  20  21  16  17  19  20  21  25  26  26  26  27  26  29  27
  39  38  39  39  39  39  40  39  42  45  53  37  39  35  46  50  51  45  49  49  60  67  61  51  54  50  48  53  31  34  51  56  51  56  46  39  40  60  71  75  68  60  61  58  26  35  45  59  72  65  69  57  79  64  68  74  69  50  62  64  48  44  52  47  48  38  42  48  70  58  44  34  30  31  21  17  22  20  19  14  17  17  18  22  27  27  27  27  27  27  27  26
  39  39  38  37  38  38  37  37  39  42  49  31  26  37  44  41  45  47  35  45  61  55  50  47  46  46  43  51  43  52  58  67  57  59  59  37  44  83 111 127 133 121 103  82  75  74  74  74  81  64  68  68  65  48  52  69  78  81  49  60  55  36  38  48  45  49  56  36  56  42  46  33  41  29  30  22  20  17  17  15  17  15  18  25  27  27  27  27  27  27  25  27
  37  38  39  39  40  38  38  38  35  40  46  31  45  24  37  35  31  43  32  52  57  54  50  55  50  43  32  31  45  54  57  64  62  72  75  62 102 113 144 153 172 178 162 154 153 134 127 101  95  67  75  62  55  44  47  63  75  79  46  58  55  34  26  44  43  40  50  41  44  36  42  31  34  28  26  16  26  14  18  18  18  17  22  24  26  27  28  26  26  27  27  25
  39  38  40  39  38  37  37  37  37  30  30  37  38  39  25  32  24  48  27  50  60  55  44  50  40  36  29  48  66  81  92  88  95  88  88 102 112  96 100 105 112 129 117 116 119 113 105  98  96  87  89  78  61  57  41  49  47  61  56  45  53  66  20  46  34  41  34  41  43  30  34  25  33  34  33  27  22  22  21  20  15  18  20  23  25  27  28  28  28  27  26  27
  38  38  40  38  38  38  38  37  35  40  37  44  44  44  28  31  33  55  26  45  59  43  48  42  29  29  41  55  78 101 108 103  97  80  74  85  87  85  81  83  89 112  97  87  89  82  85  99 100 102  91  83  64  53  48  41  26  26  57  35  57  58  43  60  36  36  31  40  32  24  24  23  26  29  23  25  26  19  24  19  16  19  23  24  25  27  27  29  28  27  27  27
  39  37  39  37  38  39  39  38  37  35  32  43  38  41  29  30  39  36  58  29  49  54  41  46  24  32  34  60  91 110  93 102 104  82  66  83  88  82  88  81  76  97  88  81  79  70  79  98  93  98  88  75  63  64  35  20  32  35  20  41  43  58  47  52  42  31  33  33  24  22  18  19  27  25  23  18  34  19  17  15  20  21  24  26  25  26  25  29  29  27  27  27
  36  36  38  39  38  40  38  38  32  33  33  36  30  32  28  22  40  34  51  52  53  51  46  37  27  31  38  57  96  94  83 119  95  90  87 102  87  78  81  69  83 100  85  93  85  88  83 100  86  78  96  81  66  59  35  35  26  47  28  23  37  49  30  50  40  33  30  35  32  25  17  17  20  19  17  17  34  22  27  19  19  22  26  26  27  27  25  28  27  29  28  26
  40  39  39  39  39  39  37  36  36  34  35  32  27  22  28  30  42  34  46  59  57  42  47  45  22  31  49  55 110  84  92 106  90  75 110  87  91  64  85  79 111  95  57 103  95  99  93  88  89  94  71  80  64  55  36  49  27  40  30  37  32  31  40  23  47  31  36  32  27  23  15  21  25  22  24  27  27  19  26  17  20  21  25  27  27  26  26  26  27  28  27  27
  39  38  38  38  37  36  38  40  37  25  34  30  24  26  28  27  22  16  37  48  62  43  37  27  38  44  46  81  75  62 108  85  81  87 116  84  93  69  65  78  86  72  60  80 100  96  96  86  80  74  74  66  57  26  25  51  29  41  29  41  26  33  35  33  29  46  36  33  21  14  15  26  26  23  23  23  19  21  19  16  19  24  21  24  28  28  27  26  26  27  26  26
  40  39  39  38  38  38  39  37  36  15  32  24  21  19  19  20  18  15  30  33  41  47  33  28  31  57  56  65  71  76  86  75  73 109 121  88  74  65  73  83  77  98  58  80  81 118  82  82  67  59  64  67  40  25  21  58  35  41  36  34  26  26  34  45  27  25  31  24  23   7  14  15  19  20  21  18  23  27  18  17  20  21  24  24  26  27  26  26  27  27  27  27
  39  37  37  37  39  37  36  41  48  19  25  21  23  26  17  19  18  15  25  48  29  30  37  24  33  58  43  57  60  71  69  73  76  99  97  65  75  88  84  83  78 109  82  78  83  99  82  84  91  62  53  67  34  25  28  56  67  32  22  29  53  56  24  32  54  19  20  25  29  14  20  15  18  19  25  27  22  19  17  16  19  20  22  23  26  27  29  27  27  27  27  27
  39  39  38  40  38  39  38  38  40  28  21  18  33  21  17  19  20  23  38  50  30  39  40  27  43  49  53  52  51  43  37  59  76 100  63  71  83  83  66  64  95 115  77  96 101  91  69  67  72  76  30  50  31  29  32  36  98  46  26  28  29  51  38  19  34  61  28  25  25  26  23  24  22  28  26  21  18  18  17  14  16  17  19  24  26  28  28  26  27  26  27  26
  41  39  39  41  39  39  38  39  40  26  34  34  26  23  20  19  23  28  52  49  43  27  37  24  34  59  53  26  57  29  49  62  68  53  63  74  80  72  91  90 100 118  88  94  86  84  72  65  57  61  33  43  43  32  23  40 101  84  32  22  29  49  21  24  30  16  31  26  21  26  32  29  24  34  27  22  16  15  14  15  15  16  18  25  27  28  28  27  27  27  27  28
  40  38  39  39  38  39  39  39  37  39  35  29  25  25  22  18  17  22  42  29  25  18  45  19  48  63  47  18  42  51  53  57  64  53  62  80  66 101  77  91  85  99 100 102  79  74  53  65  69  55  30  32  52  38  50  25  82  88  36  20  27  24  23  18  26  21  26  26  21  19  25  28  23  39  35  26  20  12  15  11  14  14  17  22  26  25  28  26  26  27  26  28
  39  38  38  40  39  37  40  40  40  35  35  33  24  20  26  20  14  24  29  27  28  26  35  63  46  60  38  30  44  62  46  54  41  54  62  84  96  80  85  84  99 100  90  83  81  96  58  42  72  50  30  49  53  53  38  64  83  57  35  30  31  30  21  38  11  19  31   9  22  19  21  26  28  33  54  23   9  13  10  13  11  13  17  22  27  27  27  26  28  26  27  27
  36  38  38  39  39  37  44  44  37  44  35  21  21  22  23  16  17  23  30  31  24  27  15  72  48  60  40  38  39  50  59  52  53  57  65  95 104  84  64  94  92  88  89  77  68  90  54  47  68  38  51  48  53  55  58  43  48  84  22  32  34  20  29   7  40  16  13  14  14  16  17  25  29  45  79  62  15  12  13  10  12  10  15  17  28  27  26  29  28  28  25  26
  39  38  36  38  38  40  32  37  48  57  28  27  16  23  18  18  15  22  40  25  26  28  22  51  28  70  31  37  49  67  58  63  32  59  63  84  72  87  70  82  81  73  94  83  60  72  50  33  64  46  34  49  47  34  63  71  35  39  43  36  15  33  25  24  23  18  11  13  15  14  19  23  25  48  86 149   0  16  11  11  12  13  15  17  23  26  27  27  28  28  29  27
  40  38  38  39  38  36  42  35  58  36  34  37  22  21  22  18  18  24  32  29  32  66  35  56  29  66  46  29  61  75  75  52  22  55  31  71  69  64  69  74  70  72  67  84  66  67  57  39  61  48  59  57  29  45  75  66  49  31  40  22  19  24  34  21  20  16  11  15  18  14  17  20  32  38 105 194   5  14   7  10  14  12  18  18  15  21  27  27  27  25  26  27
  39  38  40  41  39  39  37  40  50  50  38  40  25  23  22  24  20  17  30  27  23  79  47  46  52  51  65  37  58  78  69  51  19  50  60  46  71  44  66  65  65  65  50  67  80  40  40  52  83  45  77  57  32  44  71  70  32  40  33  26  28  28  32  43   9  12   8  13  24  17  18  32  19  69 147 197 122   2  10  12  11  10  15  18  16  15  23  26  26  28  27  28
  40  38  40  41  40  39  40  40  34  48  39  46  21  18  25  23  20  17  36  36  24  38  33  25  42  59  76  46  96  40  75  49  33  58  38  50  38  39  68  49  46  52  63  68  66  29  36  54  65  45  81  47  41  60  51  62  49  40  31  50  17  40  30  25  11  10   8  16  18  19  19  23   1 133 187 190 177  26   9   3   9  12   9  24  16  15  15  22  27  26  28  28
  43  37  38  39  40  38  37  40  36  42  47  43  31  20  32  26  16  23  30  36  19  24  26  15  33  87  64  78 108  75  92  34  36  52  29  37  30  37  65  50  54  51  47  73  41  41  42  52  69  80  74  72  70  66  60  51  71  33  44  30  27  45  26  18  17  10  15  26  21  26  22  26  73 191 194 196 176 182 156  60   4   6  13  18  24  19  12  14  22  25  27  26
  36  42  39  37  39  39  38  41  42  37  44  43  54  39  24  22  15  30  26  46  34  48  23  18  26  91  44  76  64 106  90  54  37  55  40  39  33  39  61  51  43  32  46  42  39  51  52  47  36  56  48  64  77  86  65  45  79  51  41  40  33  32  37  17  25  17  15  16  23  27  35  27 173 211 204 196 182 179 188 174 154  59   4  18  31  20  18  16  16  24  26  27
  42  42  38  40  41  41  42  39  42  39  45  40  37  45  35  24  26  24  23  34  25  36  22  44  48  55  43  83  58 109  64  49  35  28  30  36  32  36  48  41  43  34  43  52  48  34  34  16  57  64  51  56  76  75  69  80  70  68  44  48  30  22  15  10  18  16  24  19  23  29  19 103 204 209 208 196 183 180 186 186 172 178 162  72   2  21  18  16  12  15  22  27
  41  29  18  33  33  19  22  40  30  13  35  42  26  35  38  24  19  26  36  24  17  24  33  22  25  26  64  82  89  71  49  50  29  41  33  40  32  43  42  45  44  42  43  54  36  25  44  20  68  53  85  34  62 104  79  70  27  33  39  13  39  21  15  12   7  20  19  33  27  23  42 205 216 214 211 202 190 184 187 197 203 171 177 199  65  21  17  17  14  15  14  20
  30 143 178 176 174 181 181 179 179 184 180 171 184 123  33  36  25  34  39  26  23  24  24  32  46  36  77  50  75  49  61  33  29  40  27  34  34  32  41  49  52  59  48  35  33  42  32  28  97  51  94  72  60  94  70  41  36  33  37  34  22  27  19  14  17  17  25  43  29  39 188 218 221 222 213 205 196 190 190 203 214 220 152 180 118  26  20  18  16  16  16  16
  18 183 230 224 225 225 224 222 223 223 224 221 207  30  31  37  33  54  41  29  21  35  36  47  24  31  45  48  75  68  64  64  34  36  31  33  32  33  54  19  34  40  23  34  36  46  42  54  59  66  58  77  45  76  57  49  40  33  40  23  19  22  22  25  19  24  49  46  39 163 218 218 220 220 214 209 200 196 194 207 218 218 208 163 153   3  21  17  16  14  14  14
  33 181 222 220 223 224 219 216 210 222 215 226  93  32  41  26  40  53  47  43  23  16  27  29  24  31  16  35  93  92  65  50  56  51  31  29  25  46  36  17  25  27  37  29  61  29  38  39  45  75  37  74  50  53  72  47  38  14  26  17  19  25  23  27  29  35  53  46 141 209 218 212 221 221 216 212 204 204 197 210 225 226 226 192 157   0  22  16  15  14  15  12
  43 179 223 224 222 218 219 222 215 217 235 127   6  29  24  28  24  57  74  43  22  23  14  31  35  33  24  51  56  60  63  70  47  53  47  45  38  41  31  25  29  29  28  29  29  42  24  40  24  54  23  17  52  50  64  22  20  15  26  15  19  24  21  18  26  46  57 154 212 221 221 225 221 220 217 214 208 205 196 215 229 236 234 217 190   1  25  18  17  14  14  16
  37 168 223 223 228 221 223 227 218 228 152   7  35  28  24  28  28  36 150 117  68  30  24  16  19  10  27  34  27 114  63  49  40  66  45  41  28  29  55  24  24  26  28  23  40  36  44  49  38  55  41  28  41  47  29  29  34  16  19  20  19  30  28  44  71  63 186 226 226 224 227 229 226 224 221 214 212 213 200 217 226 234 243 229 204  51  24  19  17  17  14  17
  33 146 225 224 225 221 223 227 231 177  26  32  25  26  28  30  30  10 142 152 113  39  31  26  27  33  27  34  57  40  36  66  30  69  36  47  48  38  37  52  22  23  27  33  23  54  49  36  42  41  33  27  42  26  22  33  25  28  23  20  30  30  62  77  64 189 224 227 224 226 228 230 228 225 221 215 213 214 204 220 221 236 229 227 212  77  20  21  17  16  14  16
  44 152 227 222 224 219 223 230 159  10  35  27  25  27  27  27  26  26  80 194 149 122  18  33  38  26  50  42  45  39  37  64  45  43  29  54  26  30  43  40  52  29  23  12  31  29  30  30  25  30  16  18  33  17  15  20  19  40  23  23  34  56  66  52 196 229 226 230 230 231 232 233 228 224 220 219 217 213 206 224 214 233 231 221 195  72  21  22  19  18  15  15
  44 159 222 222 222 220 205 109  10  33  30  30  30  25  27  27  27  30  33 201 193 182  98  65  23  28  18  37  35  47  53  53  22  38  23  44  21  20  37  32  35  31  24  30  34  21  23  27  16  28  26  32  20  17  19  19  19  24  32  34  45  59  72 195 227 232 235 235 236 235 233 232 229 223 219 216 216 213 209 227 215 232 232 225 205  81  19  19  20  18  16  16
  37 145 228 231 212 100  30  26  32  32  32  29  27  25  26  28  27  24  17 125 224 212 194 145  89  40  33  36  43  46  52  35  26  25  43  38  38  31  45  31  35  23  21  15  25  23  27  17  19  16  27  37  37  14  18  21  31  31  40  61  73  66 186 233 236 238 239 239 237 236 233 230 227 221 220 218 216 214 216 234 217 229 231 225 212 123  11  20  20  17  16  17
  42 128 215 114  13  18  32  31  32  32  29  27  26  27  26  28  31  26  34  35 220 220 220 194 145  76  96  55  39  23  37  28  32  34  42  40  35  27  29  19  22  25  20  21  32  24  25  18  21  20  19  16  30  19  25  29  40  53  68  68  80 188 236 240 239 240 242 240 239 234 233 231 225 221 219 217 215 217 225 236 215 225 233 228 219 166  13  19  16  16  17  16
  39  58  13  19  25  30  26  35  29  29  30  30  28  26  27  30  29  29  32   3 187 224 217 212 216 211 191 173 107  20  25  30  53  42  52  38  30  17  24  44  25  23  18  19  21  18  37  27  22  22  24  25  30  46  57  64  79  84  95 113 199 236 241 243 242 242 245 242 241 238 231 227 221 219 218 217 215 221 234 235 214 224 226 227 221 182  14  20  19  16  19  17
