P2
# Generated by OpenCV 4.2.0
92 112
255
 160 160 161 158 160 158 159 159 162 159 161 160 161 161 163 162 162 160 162 160 162 162 162 160 161 159 160 160 161 159 157 160 159 160 156 148 150 151 154 152 159 149 147 140 141 148 156 155 159 160 159 160 156 154 158 157 159 159 161 160 165 163 161 163 162 156 157 162 162 162 160 161 161 163 163 163 165 162 161 161 158 162 164 165 165 168 168 170 176 177 184 189
 159 161 161 160 162 160 159 161 163 163 162 162 162 161 163 160 160 159 161 158 160 161 161 160 159 157 160 160 158 159 161 158 158 158 155 159 137 125 143 152 156 150 158 154 151 145 136 157 161 160 156 156 164 151 157 158 158 152 156 159 161 166 163 162 162 160 159 161 160 161 163 162 160 163 164 162 161 160 159 158 161 160 161 160 159 162 161 163 166 169 170 176
 160 162 163 161 161 161 160 161 163 163 160 161 161 164 163 161 162 157 159 159 158 160 160 163 163 162 159 160 161 162 161 156 149 140 132 107  94 101 107 115 105 106 111 112 118 122 113 120 110 120 136 134 138 132 137 148 154 156 156 157 158 162 165 163 163 162 159 160 160 161 162 161 162 164 163 162 163 160 158 161 163 162 160 160 160 159 158 161 165 163 163 167
 159 161 160 161 159 158 160 159 161 161 162 162 161 162 163 161 163 159 160 158 158 162 160 162 160 161 162 163 156 155 150 136 121 124  98  97 104 110 108 109 105 103 102 108 115 100  92  96  91  93 107  90  99 104 125 123 145 161 154 155 150 158 161 164 163 162 160 162 162 162 161 160 163 161 164 165 165 163 161 163 162 161 161 160 160 159 158 160 161 160 162 162
 160 160 160 160 160 159 160 160 161 160 160 160 159 161 161 161 162 161 161 159 157 159 158 163 163 159 159 157 147 155 155 116  88 106  96 100  93  86  93 116 112 109 126 118 115 107 101 100  95 116 110 108 101  97 100 112 115 132 156 145 164 160 158 163 164 163 162 163 162 164 163 164 162 160 162 162 163 163 163 161 163 163 163 161 160 160 161 163 162 160 160 160
 160 159 160 159 159 162 160 159 162 161 161 160 161 160 160 160 161 161 159 160 156 158 160 161 160 148 127 141 129 112  92  99 103  94  86  88  89  82 114 129 120 129 135 141 118 115 105  96 119 107  99  99 102  91  74  94 107  84 142 139 155 166 154 158 165 164 163 162 163 163 163 162 162 164 163 163 163 163 164 160 161 164 164 162 160 160 162 163 160 160 160 160
 158 161 160 161 159 162 160 161 161 161 158 160 158 159 160 160 162 162 159 163 160 156 137 135 118 120 128 112 108 109 113  99  94  93 109  95 100 113 109 120 134 114 121 137 117 118 101  97 114 105  94 126  92  82  95 104  89 112 112 117 140 159 137 148 157 164 162 163 163 161 161 160 161 164 164 164 164 162 160 157 161 162 162 160 158 160 162 161 159 161 162 161
 161 160 161 160 161 160 161 158 159 159 158 157 160 159 160 161 160 161 156 141 139 121 142 140 116 116 103  98  86 100  89 100 126 118 132 105 112 105 110 122 125 118 128 142 105 122  95  90 110  94  98  96  89 112 119 100 123 103  91 122 122 123 137 156 153 163 160 160 163 164 161 160 161 163 165 165 164 160 162 162 161 163 163 162 161 162 162 161 160 163 163 162
 160 160 161 162 160 158 158 157 160 160 160 159 159 159 161 163 158 139 148 162 157 140 145 104  86 101  90  92  98  96 129 135 129 133 100 136  86 101 102 118 152 115 124 147 113 110 102  96  84 116  85  85  79 101 111 119  94 125 134 114 114 109 115 129 124 143 159 161 164 164 164 163 163 164 164 165 165 164 165 165 164 165 163 165 164 161 164 162 163 164 164 162
 162 158 161 162 160 158 157 157 158 161 160 161 160 160 159 158 148 154 147 153 150 123  75  85  88  94 100  98 138 140 141 152 129 131 106 139  77 109 107 107 145 112 134 156 138 127 113  91 103  86  88  85  91 100  97  97 137 133 175 164 126 105 103 102 113  99 125 157 160 166 165 165 164 162 163 165 166 166 165 166 166 164 167 166 164 163 165 164 165 164 165 164
 160 160 161 160 158 158 157 157 160 160 159 157 158 159 157 149 158 159 140  89  89  83  97  88  81  88 123 147 185 184 158 154 156 128 131 116  93 101 113 114 143 127 140 160 179 135 124  97 122  97  91  80  93  87  89 114 143 158 173 183 182 159 114 103  94  99  81 129 141 151 167 165 166 164 168 168 166 165 165 164 164 163 164 166 165 165 166 162 163 165 164 164
 160 160 160 158 156 158 156 156 158 158 158 159 158 157 151 148 135 102  63  97  86  89  82  89  88 139 171 177 175 185 190 153 173 145 162 139  97 111 123 151 129 154 135 164 189 141 142 116 128 104 116  84 108  97  98 135 139 173 173 173 173 181 170 125 102  96  94  82 122 142 152 165 161 167 163 165 164 163 163 161 165 165 165 165 167 168 166 163 162 165 164 163
 160 158 160 158 158 157 157 158 160 158 158 158 157 153 155 118  94  72  95  76  79  79  84 104 156 176 184 175 187 187 204 191 172 155 163 157 119 114 126 153 157 174 142 164 190 146 159 141 120 121 138  96 128 102 114 146 155 179 174 178 187 186 191 181 135  90  99  91  89  99 124 150 167 165 164 166 166 164 163 164 163 165 166 166 165 165 167 165 165 165 166 164
 159 158 160 159 159 159 159 159 158 158 158 159 158 156 128 100  69  88  81  91  97  88 110 161 182 188 183 194 198 200 203 207 175 183 149 192 135 128 136 156 170 171 172 163 179 177 162 159 144 145 156 128 148 138 158 169 178 185 173 190 186 186 183 191 178 154  92  98  78  85 112 106 159 164 166 166 164 165 163 164 165 162 165 165 164 166 167 163 166 167 169 167
 157 159 159 158 159 158 160 159 160 158 158 159 157 140 114  75  80  81  82  75  76 115 172 191 191 204 197 203 207 206 193 200 204 172 189 161 179 144 150 175 193 176 182 185 169 191 179 175 169 175 170 167 167 175 186 186 196 186 190 192 194 189 191 189 188 180 141  89  97  72  69  89 139 167 166 165 167 165 164 165 164 165 165 165 164 167 163 167 166 165 166 166
 161 158 158 160 159 162 160 161 158 160 157 160 158 103  65  68  64  74  75  77 103 172 191 190 209 209 206 213 209 205 207 198 206 197 191 189 174 177 171 180 202 196 198 193 185 190 181 192 179 184 194 189 185 188 199 199 198 195 193 193 192 196 193 187 189 184 181 127  91  91  79  91 117 150 165 166 166 167 165 164 167 165 165 167 166 167 164 163 163 164 167 166
 160 158 160 161 161 160 160 160 162 157 160 159 152  67  49  53  66  73  79  89 155 186 188 207 211 207 209 211 212 209 211 207 210 206 190 195 203 186 188 198 201 207 196 204 204 195 204 191 196 196 203 199 203 205 202 212 205 202 198 200 193 193 195 191 185 196 187 177 115  92  75  55  93 115 171 163 166 166 164 163 165 165 166 165 166 167 165 166 166 166 168 166
 162 159 162 161 160 160 159 159 158 158 157 166  99  40  53  58  65  78  91 135 189 198 205 210 215 212 213 211 214 211 207 208 201 204 211 198 199 211 200 197 197 199 204 201 208 199 206 206 204 211 199 205 209 214 207 212 211 209 204 199 199 193 190 193 188 187 194 188 169  91  84  66  52  71 176 168 167 166 165 165 166 168 168 168 165 166 166 164 164 167 167 169
 159 157 160 161 163 162 160 158 159 157 166 121  80  73  48  59  98  98 121 176 198 207 214 216 212 212 216 212 216 211 209 212 214 207 207 212 205 202 207 209 210 206 200 198 203 209 211 209 206 210 209 207 212 214 212 214 210 210 210 204 199 196 193 190 188 190 189 192 185 150  82  84  53  39  90 164 167 166 162 166 169 167 167 166 166 167 167 164 164 167 167 167
 159 158 162 161 161 162 161 160 160 159 147  78  58  59  67  92  77  82 161 202 213 210 212 215 213 211 215 213 216 215 216 215 215 211 211 209 211 213 204 209 206 211 210 207 205 203 207 209 210 207 210 208 209 210 211 212 209 209 209 207 203 198 193 187 187 192 190 189 188 175 123  82  78  50  35 135 167 164 166 162 163 166 168 167 168 167 166 167 166 168 168 167
 161 159 159 158 159 159 159 159 162 162 131  61  58  60  69  73  82 129 190 215 209 209 214 214 215 214 216 218 215 218 217 215 212 212 213 210 208 208 203 201 207 206 203 206 204 204 206 207 212 212 207 211 208 210 211 212 211 210 207 207 206 207 198 194 194 188 187 189 190 184 163  97  72  55  39  59 160 166 161 163 165 165 167 166 167 167 167 167 168 166 167 169
 161 160 160 162 159 161 160 163 162 160 102  53  52  56  61  89 101 180 200 215 203 213 215 216 214 214 214 215 214 215 216 216 215 215 214 214 211 212 211 210 208 207 203 203 207 202 201 204 207 211 210 212 209 209 207 208 208 210 209 208 208 207 200 199 198 193 188 192 190 187 178 151  89  61  42  46 101 165 166 165 165 163 166 167 167 167 167 165 166 166 167 167
 160 159 159 159 159 161 161 162 157 171  85  43  59  50  88  80 145 185 214 205 208 212 213 213 210 213 215 213 214 211 211 213 213 214 213 212 213 212 210 209 207 206 204 206 206 203 204 204 206 206 208 205 204 208 204 206 205 208 209 207 207 199 200 200 196 196 194 190 192 190 183 171 114  85  42  60  56 162 165 161 165 164 167 166 166 167 165 165 165 166 166 168
 160 159 159 161 161 159 161 162 157 157  54  48  52  82  75  98 178 200 210 201 209 212 210 212 212 213 212 210 212 212 212 213 210 211 209 210 210 210 211 207 208 202 201 204 205 203 202 198 200 205 200 205 200 201 204 202 199 201 203 207 201 198 198 197 197 195 193 189 189 192 188 182 149  96  53  28  67 146 163 161 164 165 167 167 167 164 167 167 165 168 168 167
 160 160 157 160 161 162 161 162 162 133  56  43  54  63  77 134 193 202 203 206 211 212 209 210 209 208 208 206 206 209 209 207 207 210 206 208 208 207 206 205 203 203 200 199 202 199 197 197 200 202 205 203 201 201 198 195 198 195 198 204 198 193 191 193 195 192 191 189 189 192 186 179 176 110  74  47  20 123 161 166 164 165 168 167 166 167 167 165 165 166 165 167
 159 160 159 162 161 161 159 152 155  83  35  39  48  60 101 169 196 203 193 204 209 208 207 207 205 203 207 205 203 204 205 206 205 206 206 209 208 204 205 203 203 201 196 198 196 198 199 199 195 199 187 199 194 198 199 197 194 198 194 193 193 193 189 190 193 194 191 185 193 190 186 184 184 137  79  51  46  57 148 162 162 162 166 164 166 165 165 165 166 166 165 168
 161 160 159 161 160 161 160 155 146  48  45  40  44  82 126 171 194 200 196 205 206 205 205 204 203 202 200 197 198 202 204 202 203 205 201 203 202 203 202 197 197 198 196 199 198 199 197 196 193 196 198 198 196 200 197 192 192 192 196 194 187 189 191 189 190 191 189 185 192 185 184 177 188 168 106  59  53  46 127 154 159 162 164 163 165 165 164 164 165 167 166 165
 160 160 160 162 158 157 159 163 106  59  61  24  62  92 131 189 198 196 192 194 205 201 200 198 197 198 196 195 197 201 201 201 201 203 200 201 198 195 197 197 193 197 196 193 194 194 195 193 192 196 195 192 191 190 193 187 187 188 188 191 189 184 184 183 187 188 187 188 186 184 179 178 184 178 131  76  55  41  89 131 157 163 165 164 164 164 164 166 168 167 165 166
 160 161 159 161 158 158 157 155  82  53  43  37  83  92 157 191 197 194 189 193 194 196 200 195 196 194 190 194 195 196 197 197 195 198 196 195 199 196 192 195 194 190 192 194 193 194 193 194 195 190 187 193 192 188 189 186 189 186 185 183 186 185 182 181 184 185 187 184 185 178 177 175 182 182 149 104  54  42  43 123 148 164 165 162 164 163 163 165 163 166 168 168
 159 161 160 163 161 162 158 144  61  57  23  72  65  96 167 189 195 188 184 190 192 193 194 196 189 190 193 191 191 192 194 194 194 196 198 195 194 196 197 194 192 195 196 192 197 195 194 196 190 191 188 187 189 190 186 187 187 187 181 183 180 184 183 179 180 176 181 182 178 178 170 179 175 178 161 115  73  39  27 115 139 161 163 162 164 162 163 165 163 165 167 166
 157 159 161 160 161 161 156 111  90  23  53  66  65 129 177 189 193 183 177 184 185 192 193 192 195 192 194 194 192 189 193 194 190 190 193 193 193 194 196 198 196 191 201 198 198 193 196 198 199 191 189 195 192 186 185 186 183 180 181 186 185 181 180 183 188 180 185 180 181 169 168 169 173 176 165 107  77  43  50  85 137 158 161 161 164 163 162 164 165 163 165 167
 160 160 160 162 160 162 148 103  34  33  52  66  89 130 173 185 186 184 167 183 191 188 190 193 192 193 193 188 187 186 188 189 191 189 190 194 197 194 196 194 197 194 194 197 200 198 200 194 194 194 186 197 188 187 187 185 178 181 180 179 184 178 181 178 180 177 178 175 178 170 169 164 172 173 163 130  81  41  39  74 127 153 163 163 164 163 162 164 165 164 166 165
 161 160 158 159 161 157 154  78  41  33  50  54  94 132 169 181 189 184 175 178 177 185 187 193 187 189 192 184 188 186 191 186 186 182 186 190 192 196 193 194 198 193 196 195 203 194 195 195 190 191 191 195 186 189 181 173 173 175 175 176 177 178 178 180 182 184 181 178 172 166 168 167 168 167 170 134  72  50  26  77 121 143 162 161 162 163 162 164 163 165 164 166
 160 160 158 163 161 159 160  47  32  46  45  57  89 132 166 173 177 170 177 167 173 180 185 185 189 190 186 185 182 184 182 183 183 181 186 194 194 197 197 198 196 198 200 197 195 194 189 195 192 186 189 192 200 187 178 192 184 184 188 182 178 178 177 174 181 178 173 177 178 168 166 164 167 166 165 133  85  47  29  41 111 129 159 165 163 163 162 164 162 165 165 166
 160 158 160 160 160 157 160  40  49  31  36  52  85 132 160 169 171 175 165 170 171 175 180 184 181 182 181 187 191 193 189 191 190 190 183 195 192 192 195 193 197 201 192 197 198 194 192 191 194 188 188 187 185 192 192 188 185 181 183 176 184 185 181 177 183 180 178 178 174 170 169 166 164 165 157 128  95  59  28  41  86 115 154 162 163 162 161 163 162 165 164 165
 159 157 160 162 159 159 169  57  51  29  39  56  92 121 157 166 172 169 167 165 162 171 182 183 188 186 190 187 191 191 191 189 185 186 189 189 189 197 196 197 200 201 203 197 200 199 196 192 191 190 191 195 192 191 189 185 186 183 182 186 186 182 181 176 183 175 174 178 171 166 160 165 163 162 148 129  90  64  47  31  81 125 135 165 163 164 164 164 163 165 165 166
 157 158 160 159 159 160 161  66  25  26  54  50  77 106 150 164 163 165 163 174 172 174 183 188 187 188 188 189 192 192 189 189 190 192 193 194 198 195 196 190 197 190 195 194 194 186 192 196 193 195 189 190 192 191 189 183 187 186 183 180 176 164 172 174 176 170 167 165 166 166 161 163 162 161 146 115  82  64  39  44  87 122 126 161 164 165 164 165 166 165 165 166
 157 157 158 159 159 158 127  64  29  39  56  43  80 101 137 157 158 163 166 164 171 178 176 178 180 184 183 186 185 187 191 188 190 189 190 192 191 194 201 197 204 200 195 196 194 193 193 195 191 194 190 192 198 192 186 190 195 192 194 189 186 188 186 186 184 180 178 170 163 161 167 160 159 156 146 115  73  63  43  64  93 114 123 157 162 163 162 163 163 165 165 166
 159 159 157 157 157 156 137  48  28  39  45  60  68 103 131 138 160 163 161 169 178 181 181 183 186 185 181 178 181 174 175 181 182 182 191 200 204 196 197 202 200 198 195 195 193 194 195 195 196 191 192 194 194 196 189 190 192 188 187 186 186 182 182 179 185 181 175 170 170 164 160 158 157 149 141 101  77  49  51  51  97 117 121 155 165 165 163 165 165 163 165 166
 157 158 157 157 157 156 139  56  48  31  50  55  61  89 118 146 158 159 162 168 176 178 184 179 176 172 179 183 190 194 189 191 194 196 196 198 193 196 196 199 201 197 195 198 196 191 194 199 195 195 193 191 196 193 188 187 189 193 191 185 187 185 187 186 179 179 178 174 170 164 164 160 152 148 137 101  66  57  37  33  92 110 117 142 160 163 162 163 164 163 164 166
 157 158 159 157 160 158 139 106  47  35  36  48  44  74 114 144 146 149 165 169 176 177 172 179 187 192 193 189 190 185 188 195 189 192 191 197 194 196 198 201 200 198 196 196 195 193 194 202 196 197 195 193 197 195 191 192 188 184 183 180 185 183 185 180 180 179 173 175 172 171 163 161 156 149 135  91  62  42  28  32  96 103 113 135 158 162 162 161 162 162 162 161
 157 156 156 159 157 156 136 103  76  70  27  38  37  63 111 128 149 157 165 168 175 179 184 187 187 184 189 187 185 184 186 189 188 185 189 189 192 194 196 199 201 205 202 202 192 185 198 198 201 193 196 198 206 194 188 186 186 181 176 176 179 177 181 174 178 181 175 178 174 171 168 164 158 151 124  85  61  33  41  50  95  86 106 124 145 158 162 162 164 163 163 162
 157 157 156 158 156 153 130 131  89  33  22  25  21  59 104 114 143 165 167 167 172 174 177 183 185 186 185 181 177 179 181 182 178 180 183 187 190 195 195 193 195 196 197 197 191 189 197 205 191 192 194 192 203 195 183 178 178 180 174 178 177 171 176 171 177 169 177 181 178 169 166 162 162 151 121  74  52  38  30  27  76  76 105 115 137 160 161 159 161 159 161 161
 155 158 158 157 158 159 118 131  74  40  43  19  20  64  82 128 139 159 166 169 168 173 177 181 180 184 179 182 177 175 177 177 180 182 177 182 182 192 192 188 205 205 205 204 187 181 195 202 198 196 192 181 196 179 177 176 169 171 176 167 169 163 165 155 152 167 165 177 179 175 167 158 156 155 123  70  51  32  27  56  82  85 102 119 142 162 161 162 159 160 161 162
 156 158 158 157 158 159 112 112  51  41  47  49  23  68  75 110 138 156 165 171 173 176 183 186 181 182 183 183 180 180 173 175 173 171 179 178 178 186 188 181 192 191 203 201 176 176 189 202 185 193 178 179 179 173 169 162 163 162 150 146 129 134 114 119 109 105 127 162 180 173 167 157 157 158 137  76  41  32  39  67 100  68 115 120 146 161 159 162 159 160 162 163
 159 158 157 156 159 155 138  97  76  47  34  45  46  69  71 108 135 160 167 170 171 176 178 182 183 182 160 172 161 173 173 171 164 169 158 171 168 181 186 177 181 188 198 187 168 180 182 191 180 184 179 173 170 167 163 162 157 132 126  98  94  83  95  90  95 103  98 129 164 165 168 159 162 161 145  79  49  41  37  79  79  78 109 117 145 158 157 158 156 161 162 163
 156 156 157 154 154 155 134 126 105  54  47  41  35  56  74 109 141 160 171 176 173 173 182 180 176 147 121 109 124 111 130 141 145 137 152 153 156 158 162 162 168 177 179 181 168 166 180 187 185 174 170 163 162 167 146 130 105  86  87  83  86  79  64  81  81  82  90  80 105 150 163 163 162 163 146  70  39  45  35  57  67  81 113 115 143 158 158 158 158 161 162 163
 155 156 157 157 160 145 148 119  90  46  30  31  31  45  85 106 135 173 169 172 176 180 174 180 157 119  96 106  95 109 115 107 113 106  94 119 112  94 135 160 159 164 178 177 164 171 176 178 172 168 154 145 148 137 122  81  61  60  39  45  52  58  72  90  71  57  52  57  58  62 143 165 159 160 152  89  47  48  52  64  79  80 113 116 141 152 156 159 158 161 162 162
 156 157 156 159 156 156 155 121 119  54  51  37  43  39  62 106 152 171 173 170 170 171 165 138 116 107  91  80  96 100  92  80  76  62  55  48  61  84 123 121 135 161 169 166 154 172 175 177 169 158 147 138 104 117  76  60  40  35  31  28  32  44  49  49  60  43  48  51  54  78  64  90 156 167 167 107  71  27  36  72  78  74 117 120 140 143 154 161 160 164 163 162
 157 154 156 156 156 158 159 143  76  65  33  32  30  51  45 103 163 172 175 174 166 114 104  84  85  75  68  83  79  79  58  59  57  39  27  30  41  59  77 115 124 150 157 161 159 169 178 176 162 157 138 128 107  87  63  56  71  95 118 136 139 139 132 114  93  84  69  57  58  60  94  95 134 165 169 116  72  42  29  38  81  92 116 120 134 136 153 163 163 161 164 164
 155 156 154 154 153 153 154 158 130  60  51  34  47  35  53 116 172 171 174 169 107 100  80  74  77  67  59  71  66  64  55  60  71  84  89  85  72  60  57  81 115 139 155 163 169 170 180 180 159 151 133 118 109  90 104 137 147 136 133 143 154 155 143 137 132 110 101  95  83  54  61 103 140 163 167 136  65  52  52  53  84 104 149 117 131 137 155 163 165 162 163 163
 158 157 156 152 155 154 138 131 162 105  45  25  28  29  50 138 167 171 178 159 128  97  59  68  65  65  70  67  92 109 139 172 159 150 133 132 133 129 128  92 109 136 156 169 171 175 174 169 157 145 136 120 103 130 147 121  98  84  54  34  34  32  71 110 124 122 108  90  69  62  75 107 152 164 161 149  69  40  44  43  78 103 142 131 131 141 160 161 161 161 163 165
 158 157 154 152 154 146 161 154 156  97  46  39  44  49  68 144 170 167 176 151 141  85  70  66  73  80  99 117 130 133 102  63  54  53  74 100 104 126 134 127 103 126 152 170 174 179 184 165 158 145 136 116 119 134 113 103  75  47  42  84  68  40  76  25  49 102 119 108 102  90  81 104 123 147 164 161  81  36  39  40  65  96 122 131 132 144 163 160 163 162 163 165
 157 155 157 154 152 157 148 154 102  95  78  56  49  32  70 156 170 170 166 157 127  94  88  83 100 106 114  94  53  33  27  41  57  52  43  98  94 123 115 132 129 129 152 171 177 184 193 172 161 141 128 119 122 103 131  97 176  67  50  39  38  55 118 121  32  33  79 113 101  91  91 104 130 158 167 166  99  43  56  63  90  90 132 134 131 149 163 162 164 162 162 164
 157 154 153 154 151 154 157 158 125  91  75  41  38  37  82 162 174 174 166 150 112  92  89  99 112 112  80  44  60 124  51  52  74  46  64 183 133 104 147 134 124 139 148 170 181 191 193 180 168 150 133 127 127 153  96 149 185 140  65  59  50  72 144 117  76  55  45  89 116 115 107 120 148 163 165 168 102  50  47  54 107 129 140 135 126 148 163 165 165 162 161 163
 156 155 154 156 153 155 153 153 142 114  71  71  44  45 101 165 173 174 170 154 126 126 123 123 113  90  54  47 106 137  64  55  42  55  80 171 128 103  99 158 127 147 156 169 183 194 197 187 176 156 138 133 131 154 108 112 121 131 115 104  99 121 123 100 108  94  80  93 105 117 133 138 153 157 168 165 113  65  39  56  90 132 154 136 123 143 162 164 164 162 164 165
 158 156 157 156 155 157 153 156 148 132 114  88  36  58 122 165 174 175 168 155 138 136 133 127 121 106  98 109  90  94 104 101 110 124 125 123 134 155 145 158 135 152 159 175 186 198 201 196 185 162 139 138 135 148 169 150 144 138 132 115 103 108 102 107 126 123 128 119 109 111 128 144 154 162 172 166 120  76  51  63  95 101 154 134 118 133 160 163 164 162 164 166
 156 154 153 153 154 152 150 151 157 145 130  71  40  58 126 160 170 172 167 162 150 148 145 132 127 138 146 128 127 123 135 135 141 153 150 153 145 154 157 160 144 153 161 175 189 200 200 196 191 169 143 136 143 142 152 150 136 129 131 138 142 140 120 128 130 138 152 152 141 138 144 147 153 161 168 168 115  85  52  72  90  95 153 131 109 120 148 163 162 163 163 164
 156 156 153 154 153 154 151 154 168 150 137  60  39  66 124 153 162 165 174 169 158 150 156 144 155 165 156 155 138 146 143 152 161 158 161 156 152 162 156 160 157 158 164 178 191 198 199 195 192 172 154 137 148 157 148 162 159 152 140 136 130 132 128 131 137 150 151 151 165 155 153 157 163 167 165 166 117  71  52  56 106  90 167 145 106 111 134 161 161 162 161 163
 158 155 155 151 154 153 153 153 179 160 160  47  41  65 109 150 168 171 178 174 169 171 158 163 167 170 171 166 161 153 152 150 150 150 156 164 165 164 160 159 167 164 167 185 188 200 201 194 191 181 159 145 149 158 157 148 163 166 155 156 146 143 136 137 139 153 152 162 166 172 163 165 168 166 169 158 107  69  42  51  75 117 159 148 106 109 127 159 163 161 164 163
 157 156 153 153 154 152 152 154 172 168 145  33  52  60  97 146 159 170 172 174 176 168 174 176 171 165 161 162 162 156 154 164 173 177 174 172 173 169 170 176 169 167 177 183 189 200 198 194 192 181 165 152 149 163 171 166 163 162 169 168 160 162 157 167 161 168 167 167 173 170 173 166 164 166 165 160  99  64  59  39  80 132 158 157 106 106 122 157 162 162 163 163
 154 154 156 154 152 151 153 153 173 167 156  72  55  65  89 138 163 164 175 174 174 174 177 173 177 179 178 177 176 174 174 176 175 176 180 180 178 179 182 179 172 173 180 183 191 197 195 194 192 176 164 161 156 170 171 175 174 169 168 169 169 164 167 159 158 170 165 176 171 168 167 168 165 163 166 161 107  64  54  48 100 145 165 144 106 106 119 156 161 162 162 163
 156 154 154 153 152 150 153 152 170 167 176  95  36  61  85 127 157 166 167 175 176 176 175 183 182 175 176 175 174 171 176 179 180 181 181 186 187 188 184 179 175 179 180 178 186 196 200 194 187 174 164 164 163 165 174 178 179 183 179 176 174 171 171 171 171 174 177 178 172 168 164 168 162 161 164 154  90  67  42  61 126 144 160 147 104 106 117 153 160 163 164 166
 154 153 156 153 154 153 155 156 170 161 186 117  37  48  71 126 162 160 171 169 174 175 179 178 178 180 180 176 173 178 178 180 182 191 182 184 187 188 185 181 179 179 177 175 180 188 195 192 182 171 159 165 174 171 171 177 180 183 181 182 174 177 178 176 172 175 176 171 171 178 172 165 165 158 160 154  93  62  45  81 148 137 161 128 107 107 117 153 162 161 163 163
 155 155 156 156 154 156 158 157 162 162 182 151  48  48  73 129 158 165 164 170 174 176 175 176 178 181 180 182 175 177 178 188 187 186 186 186 188 190 187 183 184 179 179 183 182 191 199 191 187 174 165 169 173 178 178 183 183 185 185 186 181 180 178 173 175 172 177 171 172 175 168 167 153 159 158 147  82  60  33  89 157 138 158 125 106 105 116 153 162 164 162 165
 156 156 158 158 156 159 156 158 162 177 176 174  64  33  68 112 164 159 167 172 169 173 176 176 174 178 182 178 181 179 182 188 188 188 190 190 186 191 186 185 184 182 184 193 193 197 198 197 200 183 170 168 168 175 183 186 185 185 188 190 192 186 187 181 181 176 168 177 171 168 162 166 160 160 155 145  78  64  39 117 166 133 167 127 107 106 116 153 161 162 161 165
 157 158 159 158 157 160 158 158 159 186 158 170  94  43  59 106 151 153 165 161 174 173 177 175 171 175 184 186 187 186 188 189 191 192 192 194 190 188 185 176 174 181 185 193 198 201 202 197 196 192 180 169 161 159 168 179 178 184 189 193 195 193 189 189 184 185 179 176 167 164 161 160 154 155 153 143  93  53  67 152 160 143 176 129 104 104 114 152 161 159 163 162
 159 158 155 158 160 160 160 160 160 187 164 157 157  42  50 110 154 161 161 165 163 175 174 182 182 187 190 190 188 191 186 195 195 196 195 192 188 180 169 158 167 177 189 194 199 199 206 198 204 199 190 175 165 156 144 163 175 190 182 185 190 195 194 194 192 191 184 179 170 154 156 157 156 145 150 134  83  53  98 167 146 161 183 124 105 106 115 154 161 160 162 164
 159 157 158 158 159 159 160 161 157 182 178 164 189  61  68 101 154 157 161 163 174 175 180 177 189 194 193 191 194 190 196 197 190 194 186 189 186 172 156 156 169 183 189 192 204 204 204 199 199 204 198 186 172 172 141 139 159 178 191 183 182 189 188 195 192 187 183 185 173 171 155 158 144 148 154 131  81  48 100 181 184 170 186 127 103 103 116 155 162 160 162 163
 161 157 157 159 159 161 160 159 159 175 190 200 182  99  79 104 143 162 160 162 165 174 169 187 192 194 189 192 194 191 190 195 191 187 190 187 166 159 141 169 178 184 195 197 201 199 200 192 193 195 198 187 170 186 178 141 146 159 188 194 177 183 187 189 187 190 188 184 175 169 165 160 148 146 152 121  84  48  99 176 186 194 193 120 104 105 119 155 160 161 163 165
 158 157 155 156 157 157 158 156 156 191 202 195 188 161  59 115 143 157 157 166 168 165 179 185 194 193 196 197 193 187 190 190 187 188 194 180 164 154 159 183 189 183 193 193 196 198 197 192 192 188 192 181 172 192 191 163 146 150 163 177 188 179 177 183 189 186 187 181 179 174 162 152 152 151 156 111  71  58 142 174 189 191 188 127 103 102 118 154 160 161 160 163
 157 157 155 155 155 155 158 157 159 187 192 189 185 181 115 116 145 149 157 170 164 165 173 194 191 193 197 193 189 190 181 189 192 193 182 159 151 156 180 197 194 182 181 188 192 197 208 194 188 181 179 160 171 200 188 171 150 149 159 173 181 176 180 183 182 183 183 180 178 168 165 152 149 156 142 103  60  65 167 182 196 185 179 122 101 100 115 153 159 161 161 163
 155 156 155 154 152 156 156 156 155 173 183 191 186 183 129 122 139 155 164 159 163 169 178 190 195 192 191 190 190 187 184 190 192 184 167 163 158 166 185 192 186 166 157 172 177 186 186 183 182 163 156 143 165 178 170 159 159 168 161 160 184 177 178 176 178 180 180 173 180 170 165 157 147 151 142 107  69  84 138 165 175 167 146  96 101 100 116 154 158 159 159 161
 154 156 154 152 154 153 154 153 155 157 166 182 185 170 128 107 142 152 160 163 164 168 186 188 189 184 186 181 182 181 184 191 191 173 167 154 173 166 170 173 168 158 139 135 150 158 164 165 160 150 124 129 138 145 138 143 151 176 164 163 170 189 178 174 179 181 173 173 174 172 158 148 156 149 140 103  84  98 123 139 142 135 111  94  97  98 114 154 157 158 158 159
 154 154 152 151 153 153 156 155 153 156 143 147 158 143 115 116 128 141 149 162 167 168 179 185 183 184 183 184 183 177 186 190 179 163 163 186 176 160 147 128 115 106  94 111 132 139 139 136 132 123  94  77  93 103 112 124 153 168 170 157 164 168 167 167 165 174 170 174 168 170 162 149 146 134 130 104  87 100 102 107 110  97  96  96  96  98 115 154 155 159 160 158
 153 155 152 153 152 153 155 153 153 151 155 148 129 120 103 108 130 144 156 154 167 170 175 177 185 181 185 184 180 178 180 179 168 157 175 182 178 173 126 117 114 110 105  73  97 119 116 111 110  78  52  83 105 101 115 143 159 158 161 167 158 170 170 164 170 167 166 167 166 161 161 152 136 137 129  96  91  99  99  96 101  98  97  97  97  97 114 155 158 159 159 159
 153 155 151 151 153 153 155 151 152 153 151 152 132 111 110 102 127 140 149 150 157 168 171 178 179 173 175 175 171 171 172 157 149 167 182 183 179 172 153 113 111  95  94 103  86  96 104 102 107 102  84 104 104 132 152 152 161 159 158 155 153 151 158 167 163 162 168 169 162 162 152 139 146 142 121  95  88 100  97  97  98  97  97  97  99  97 113 155 157 160 158 159
 157 153 153 151 154 154 153 154 150 150 149 153 132 110 111  93 129 139 141 157 158 161 167 180 175 170 172 170 167 161 150 140 150 170 175 178 177 165 170 150 129 118 111 109 119 128 105 107 129 106 111 113 117 134 154 150 154 156 154 153 129 131 132 149 158 156 158 157 155 153 140 137 144 128 130  99  92 100  97  97  95  95  95  98  98  98 112 152 157 157 157 159
 155 154 153 149 152 153 153 152 151 150 150 152 131 110 112  96 128 127 148 150 160 163 165 174 171 168 165 158 159 139 122 137 158 170 171 171 168 175 164 148 141 136 145 143 145 149 107  95 126 129 123 131 140 151 149 151 153 156 145 148 132 114  87 127 146 146 159 163 158 146 129 137 140 127 119  93  91 100  97 101  96  93  94  98  99  97 115 151 155 157 157 160
 154 152 151 152 154 152 153 154 154 153 152 151 136 108 111  96 114 131 143 148 149 152 165 169 166 165 158 152 131  94 122 148 153 163 161 162 164 167 155 147 149 132 149 141 150 151 103 100 131 138 131 115 141 156 141 138 143 145 146 133 132 114 105 106 149 152 152 153 151 139 128 119 117 114 122  94  94  97  96  97  95  97  95  96  95 101 129 155 157 156 157 158
 156 153 154 152 152 153 155 154 153 151 153 154 140 115 111 104 103 125 124 138 144 143 154 150 166 159 153 138  81 125 149 142 148 156 154 162 152 149 145 147 142 130 146 152 151 129 100  99 121 130 128 138 128 127 140 135 141 136 141 140 125 126 106  82 125 152 154 145 153 136 127 113 123 104 111  74  94  99  96  97 102 109 102 102 107 122 144 157 155 157 157 156
 154 153 151 153 152 152 155 152 154 151 152 153 149 128 119 116 107 134 140 131 136 122 156 153 150 150 146 116  94 128 129 137 142 145 140 138 157 138 140 129 136 137 144 152 152 112 118 111 108 145 123 130 127 133 123 128 132 135 132 134 122 143 112 105  84 151 149 145 139 136 119 115 110 117 111  78  93  95  99  97 117 133 124 125 129 144 154 157 156 158 159 157
 155 152 152 153 153 153 155 155 156 155 153 155 159 153 147 146 109 119 133 134 132 127 136 145 146 135 138  77 113 126 135 140 128 134 125 146 135 129 124 129 137 150 139 133 143 116 122 126 119 154 126 135 136 146 122 111 116 122 133 128 137 123 103 120  87 139 147 138 133 121 110 109 112  93  87  80  91  95  97  99 127 149 144 145 147 151 154 159 157 158 156 158
 155 155 151 153 153 151 154 154 157 157 159 163 169 177 179 186 147 116 126 123 128 123 122 143 143 141 132  96 124 124 117 112 118 135 124 125 125 125 129 125 128 139 136 146 141 125 136 137 150 153 133 139 131 136 128 116 101 117 125 121 114 109 113 110  84 149 138 129 120 109 111 108 108 111  81  79  94  95  96  99 131 151 151 150 151 152 157 157 156 158 156 156
 154 153 149 150 149 148 152 155 157 160 168 173 183 194 204 208 202 100 125 121 108 119 115 131 142 150 134  99 124 110 110 109 113 108 119 122 126 111 122 138 136 146 161 155 149 157 145 152 166 148 144 146 140 141 134 122 110 123 110 100 107  91 104 111  90 132 134 130 116 115  97 107 116 110  80  83  92  94  98  97 133 150 148 149 150 150 152 152 155 156 156 151
 151 150 148 150 150 148 154 159 162 171 183 190 199 210 218 220 223 105 114 119 114  95 101 119 133 145 141 103 129 112  97  86  87 103 109 115 119 120 132 134 143 141 126 120 132 144 156 148 119 111 114 119 140 140 132 118 115 114 107  90  82  96 123 116 104 137 140 111 115  91 111 125 110 100  68  87  90  93  93  95 138 148 150 153 151 153 151 154 152 155 153 153
 150 150 149 147 152 154 160 169 180 190 201 209 217 222 224 226 230 165 115 125 113 114  95 118 126 147 147 122 100 104  94  77  78  78  94 111 114 117 125 119  99  98 106 102  98  98 106  96  95 101  99  99  91  93  93 107 117  91  88  75  96  95 100 106 120 131 125 107 103  92 107 111 108  94  68  91  90  91  91 103 143 152 150 151 152 154 153 151 152 148 150 153
 151 151 152 151 156 163 171 181 195 204 214 220 226 228 229 227 229 214 103 118 116 114 104 107 129 122 141 124  98 102 110 114 120 127 110  96  87  72  73  77  86  91  95  94  88  87  90  91  90  95  90  81  78  72  68  68  94 102  99 119 129 110 108 114 138 122 120 108 101 102 105 107 102  91  75  94  93  93  94 111 149 152 152 152 152 153 154 154 151 149 152 152
 148 150 151 154 162 172 184 197 209 216 222 226 228 229 231 231 229 231 106 109 109 103 103 101 118 122 126 128 113  88 105 135 134 138 130 137 121 123 117 119 126 131 138 141 143 140 135 139 132 127 124 126 129 123 119 120 124 123 120 131 117 111 100 113 117 118 108 103  97 107 104 102  94  75  74  91  91  93  94 117 152 153 151 151 151 152 154 155 154 154 154 154
 152 154 153 159 172 185 199 211 219 223 227 229 230 231 233 231 231 235 107 104 100 107 115  82  93 120 119 118 101  87  93 122 146 139 134 135 147 151 141 144 155 153 153 152 153 153 158 150 149 141 140 145 146 138 130 121 120 125 123 128 127 103  81 100 114 108 101  86  92 107  96 102  93  73  87  92  94  93  96 124 152 154 151 154 153 155 154 154 153 155 155 154
 153 156 161 173 185 200 212 220 226 228 231 231 230 232 232 231 232 231 133  84  97  93 107  98  81  96  95  99 103  84  97 119 121 140 145 136 130 145 146 154 165 160 158 152 161 162 168 162 161 153 155 148 129 126 128 125 123 125 116 134 112  98  89  91  90  93  86  79  96 107  97  86  74  78 107  93  93  95  99 132 154 153 152 152 152 155 156 155 155 155 158 155
 160 166 177 188 201 212 220 225 228 228 231 231 230 233 231 231 232 236 146  80  85  95 103 107  88  82  92  87  92  85 101 101 127 145 138 142 123 123 136 128 123 136 130 120 125 120 127 126 131 117 124 119 118 113 118 128 125 131 117 101 104  95  79  93 100  84  64  77 101 100  91  83  69  77  94  93  95  96  99 142 154 153 151 152 152 154 155 155 154 153 155 155
 166 179 190 205 216 221 225 229 230 230 231 231 233 232 233 233 235 229 168  85  92  73  78  94  92  61  79  81  95  83  94  76  96 128 139 145 140 116 127 103 109 113  99  92 104  97 101  96 107 100 105 108 108 116 121 124 127 122 110 108  88  89  74  88  69  80  67  92  94 104  85  77  70  77 121  93  95  94 104 148 155 153 149 152 151 152 154 156 154 153 156 153
 181 194 206 216 223 226 228 231 230 231 231 229 232 234 233 234 232 231 165  91  81  87  81  88  89  78  62  73  83  91  90  98  89 107 115 137 140 129 109 113 102 100 109  97 110 103 104  92 106  92  96  98 113 129 127 125 122 104 103  98  78  88  71  93  69  68  86 103 101  91  71  66  87  93 111  91  97  93 109 151 155 154 152 150 150 152 154 153 156 155 155 157
 197 209 216 223 227 230 231 231 232 231 232 232 232 233 231 234 232 229 177  97  85  70  65  91  94  89  72  78  79  97  78  90  83 110 109 139 136 144 132 127 120 109 105  93  89 103 103  99 111 110 112 118 138 134 135 119 121 105 104  97  79  74  88  87  70  71  78  91  86  84  60  69  80  95 116  93  97  94 119 155 153 152 154 152 151 151 153 155 155 154 156 157
 209 217 222 225 229 231 231 230 231 231 231 233 233 233 233 231 230 230 177 104  89  73  81  77  77 103  83  76  75  85  84  77 100 101 116 123 146 150 146 137 135 126 116 107 105 103 106 104 109 127 124 138 140 143 123 106 123 115  98  74  78  75  74  87  68  64  80  85  68  77  67  78  87 109 118  85  96  94 121 155 152 154 154 153 155 153 153 156 155 155 157 157
 218 223 226 229 231 231 229 229 230 231 230 232 234 234 233 231 230 228 187 118  99  86  78  72  78  85  89  80  87  84  94  73  95 116 115 134 135 145 160 164 152 147 127 124 119 110 118 124 130 138 154 152 146 137 131 106 111 113  89  87  86  88  73  80  68  68  92  82  70  63  53  76  79 118 121  40  92  95 126 155 154 155 154 153 155 152 152 156 155 153 157 157
 223 227 228 230 231 232 231 231 232 234 232 233 232 231 232 230 230 230 187 115 101  84  76  83  62  76  85  90  68  86  96  96  81 101 101 105 120 131 156 171 168 162 158 158 144 150 153 153 160 149 167 163 154 130 138 130 117  91  93  85  90  77  69  77  72  79  82  90  70  61  69  84  92 115 119  23  90  99 129 154 156 156 153 152 154 155 153 156 155 156 155 157
 228 230 230 230 230 229 232 231 233 232 234 233 232 232 231 231 230 236 188 114 111  94  81  77  78  67  75  94  66  79  90  88  84  98 105 111 108 131 143 163 161 156 165 155 155 161 161 163 160 167 164 155 159 152 138 113 102  90  97  82 104  77  63  56  63  76  80  66  59  61  89 108 111 109 123  26  76  96 128 156 155 153 150 150 150 154 154 154 156 155 157 157
 228 232 231 230 231 230 231 233 233 234 232 232 231 231 230 230 234 231 186 129 112  94  87  82  72  73  85  82  97  77  99  86 106  76 102 126 123 131 152 156 161 160 163 165 168 166 169 167 164 163 166 153 151 126 129 114 110  79  73  78  92  86  59  62  57  85  58  62  50  76  83  98 106 120 127  29  51  76 131 153 154 153 151 151 152 155 156 155 154 154 156 157
 227 231 230 231 232 232 231 231 232 234 231 231 231 229 230 230 232 232 206 130 125 113  93  83  75  72  71  76  75  71  73  92  93  84 108 119 123 117 134 148 167 160 165 170 171 178 178 173 169 165 160 159 148 149 127 116  94 107  92  88  87  63  64  65  77  59  63  54  58  81 107 116 120 114 116  33  54  32  66 160 155 152 154 152 152 154 153 155 155 154 154 157
 230 229 231 229 230 231 233 232 232 231 230 231 229 230 230 230 233 233 188 135 122 114  90  94  80  65  67  75  73  69  61  72  85  85  97 131 130 122 123 140 158 160 173 173 175 173 176 173 168 175 168 156 150 126 121 122  91 100 101  87  70  57  43  53  58  55  54  48  88  97 120 127 121 119  77  37  52  31  37  74 155 156 152 154 153 154 154 156 155 152 152 154
 232 232 230 232 231 233 230 229 232 230 228 229 229 229 232 231 230 231  86 142 120 120 110  98  76  63  73  69  75  69  73  59  81  88 104 100 110 106 127 131 148 162 168 176 173 177 183 177 167 165 159 149 125 117 109 108 107  98  86  71  63  44  43  49  54  47  44  77  98 107 129 126 125 118  32  43  49  31  27  40 122 156 156 154 154 154 156 153 152 150 149 148
 231 230 229 230 231 231 231 232 231 232 229 230 232 231 231 232 236 118  86 140 127 116 104 110 108  72  68  78  70  65  53  60  57  67  84  91  95 106  91 127 151 154 165 164 158 168 165 171 171 163 158 142 135 107  95  92 115  88  77  59  41  31  50  37  45  53  56  83  99  95 106 115 119  79  31  37  50  34  19  39  46 150 151 153 152 151 155 154 154 153 151 148
 232 232 230 230 230 231 231 232 233 232 231 230 232 231 230 230 228  30  85 147 134 117 118 111  95  90  69  55  66  68  51  57  50  52  83  76  93  92  99 120 144 152 154 156 152 155 156 155 159 138 133 121  98  96  97 103  77 100  65  48  35  42  41  41  42  47  94  96 100 122 112 122 100  28  37  41  47  35  16  35  40  92 157 153 154 151 156 154 153 152 151 152
 230 231 233 232 231 230 233 231 232 233 232 232 231 229 233 233 189  22  95 158 137 119 118 112 114  97  90  75  53  67  55  62  40  42  53  68  63  91  92 109 123 136 141 151 132 130 137 145 133 131 125 108  93  82  84  71  96  75  47  23  44  30  38  44  44  68  94 104 108 122 128 115  46  29  37  39  48  34  15  31  39  48 114 152 151 156 152 151 154 151 151 149
 230 231 233 232 232 231 230 231 233 232 232 231 232 234 231 246 121  27 102 154 138 133 125 119 109 107  90  73  65  56  58  54  62  47  40  66  62  77  96 107 117 121 135 126 122 123 127 125 128 123 106 106  92  73  72  70  69  49  28  27  29  42  35  39  63  83 111 115 116 119 130  72  24  32  38  41  48  33  12  29  37  40  50  93 151 155 148 153 152 153 152 155
 226 228 228 231 231 230 228 227 229 230 232 233 235 234 235 160  46  23  99 154 145 138 124 133 119 115  99  79  71  63  59  51  59  60  46  38  63  56  61  77  93 110 112 117 122 115 115 116 112  99  84  90  80  68  56  65  56  25  28  29  36  36  35  74  79 112 119 118 127 111 115  24  28  37  38  40  47  33  14  26  34  40  42  50  68 142 155 152 153 153 153 155
 228 229 227 229 230 230 228 228 228 230 231 231 233 230 199  44  56  20  92 155 146 131 125 118 123 120 103 106  82  71  66  71  54  52  50  45  37  47  54  64  62  83  90 100  98  97  81  92  91  81  82  70  64  60  36  33  16  27  33  30  37  38  57  88 110 127 125 127 108 108  54  24  31  34  38  40  46  31  14  26  30  36  41  42  49  48  88 152 156 153 153 152
 231 231 227 228 232 230 228 228 229 231 232 232 231 238  65  42  51  23  80 153 146 133 134 133 130 107 115 101 102  76  76  67  57  60  53  45  41  39  31  33  55  56  75  73  72  63  68  73  74  65  64  50  35  25  32  30  37  33  50  37  46  60  75 112 112 129 138 133 118  97  19  26  32  36  39  37  46  33  14  23  31  35  38  43  42  46  45  56  76 116 156 156
 231 231 227 228 231 229 227 228 231 231 232 233 236 153  40  36  55  22  66 144 151 141 140 135 134 123 120 108 113  98  81  69  69  67  58  52  57  57  48  44  38  29  31  29  36  28  33  30  35  36  24  30  23  37  36  41  38  38  46  51  78  73 109 112 129 122 129 127  98  45  21  28  34  37  39  38  46  31  14  24  31  33  37  38  40  40  46  46  47  48  62 117
 233 234 230 230 230 230 228 230 228 230 233 232 229  47  41  32  52  35  56 120 149 144 135 130 134 138 130 114 111 111 103  80  67  55  61  52  52  62  52  58  47  49  53  50  48  46  40  47  37  46  37  49  40  38  44  34  52  55  56  85  86 104 118 134 125 125 132 112  78  17  23  30  35  34  38  40  46  28  14  25  31  33  37  37  38  41  43  46  44  49  50  43
