P2
# Generated by OpenCV 4.2.0
92 113
255
 115 118 121 120 117 118 117 116 115 119 116 118 126 124 121 123 133 129 128 132 127 124 130 129 130 129 127 126 112 109  98 113 127  90  74  58  39  56  48  48  58  47  57  56  50  49  44  51  48  48  45  48  42  41  58  51  53  48  47  77 112 102 105 127 137 143 148 145 142 145 142 143 143 146 151 153 148 145 144 147 146 147 148 147 150 149 151 151 148 145 143 142
 113 117 119 119 119 116 115 116 117 120 118 118 127 126 120 123 131 130 130 132 131 128 131 130 122 123 121 120 120 102  87  93  91  82  58  36  31  51  55  52  63  53  54  48  52  58  48  48  39  52  48  43  31  59  56  58  71  73  61  49  43  89 122 129 131 139 145 143 142 145 142 143 141 146 151 150 148 145 144 147 148 146 145 147 148 149 150 150 150 146 141 140
 115 119 121 116 119 114 112 114 118 122 117 118 125 125 121 125 132 135 135 132 132 126 127 124 122 120 116 114 122  90  81  73  60  74  48  30  32  53  57  51  51  54  47  48  48  60  48  41  53  56  38  32  52  54  42  69  89  90  92  67  61  46  92 138 124 131 139 138 144 145 141 143 143 148 151 146 148 144 143 147 150 145 144 148 146 145 147 148 152 146 141 139
 115 119 122 120 114 124 123 115 117 123 121 120 129 129 125 127 134 140 136 128 129 129 129 125 119 121 117 106  87  71  73  69  47  50  49  33  44  49  51  57  52  57  59  54  55  55  54  50  50  52  56  59  56  41  56  65  78  87  80  80  80  60  48  78 116 135 128 128 140 141 148 141 141 143 145 145 146 146 146 146 146 147 147 146 147 146 145 150 146 150 151 143
 122 122 123 122 116 124 121 117 115 121 118 116 125 129 125 126 134 140 134 127 128 126 125 125 127 114  98  93  88  66  67  70  53  52  48  38  53  53  55  71  71  78  80  72  61  66  66  58  50  51  52  42  39  55  62  59  70  78  80  91  80  79  71  46  56 108 149 142 141 142 143 142 141 144 146 148 148 148 148 148 146 146 146 147 142 146 148 146 149 153 152 146
 127 124 120 120 118 122 119 117 118 122 118 115 121 128 126 125 129 138 136 129 126 121 117 116 117 107  92  89  87  67  65  65  49  54  59  54  56  67  78  94 104 104 105  99  88  90  88  81  69  62  54  49  52  58  59  56  53  71  82  67  84  85  78  86  66  58  99 149 142 142 136 143 139 143 148 150 148 148 148 148 146 145 145 145 142 145 146 146 149 152 152 146
 127 122 115 115 118 122 117 117 121 127 120 117 118 126 128 125 124 134 134 133 126 118 109 107  93  94  92  85  78  69  86  92  84  86  82  62  66  90 113 125 138 133 128 131 128 126 120 116 122 102  85  91  72  74  84  81  82  73  71  63  76  73  79  58  65  66  64 103 142 141 133 141 140 144 150 153 145 146 146 145 143 144 144 144 144 143 142 147 145 150 150 142
 125 121 122 118 120 121 122 121 126 123 122 120 118 129 121 118 122 134 138 130 113 107 111  91  79  79  67  89 113 122 131 130 118 122 111  99 108 133 146 148 147 157 147 150 151 145 145 144 148 137 134 133 125 121 122 119 113 116 101  83  71  68  84  73  54  57  59  65 100 130 134 137 137 144 146 146 148 146 145 147 147 143 142 143 145 142 140 143 149 150 148 147
 121 118 122 123 124 119 117 122 124 124 122 120 117 126 122 120 125 131 121 124 121 102  93  83  76  61  96 132 146 150 153 150 143 138 143 138 147 159 167 169 163 164 168 164 161 170 164 160 160 153 153 153 151 148 148 143 139 134 136 121  95  88  72  76  83  58  49  57  62  79 111 131 138 145 144 144 145 143 144 145 144 144 144 146 145 143 143 143 148 149 149 147
 120 117 123 123 127 124 122 126 123 123 121 121 119 123 124 120 129 124 121 126 111  84  90  74  55 104 130 143 148 151 155 156 158 155 159 160 155 155 166 173 174 172 176 173 171 176 171 168 164 159 161 159 156 152 153 148 147 137 137 141 131 119  82  72  71  80  69  51  72  65  79 105 137 138 137 145 145 144 143 145 145 146 147 146 143 145 146 145 146 148 150 148
 122 119 122 121 121 123 124 122 121 121 123 122 119 121 126 123 114 116 129 104  87  80  78  67 100 127 149 159 160 160 160 160 165 171 163 164 170 160 167 178 177 176 171 175 184 171 174 174 172 170 170 165 164 160 160 156 151 154 141 139 139 146 122  80  85  65  70  61  26  56  79  84 121 135 142 140 149 147 146 148 144 148 150 146 144 146 148 144 145 148 149 151
 119 117 122 123 120 123 124 121 124 122 121 122 117 118 123 118 111 114 119  85  77  93  59  92 129 138 155 165 161 161 161 163 162 163 167 168 169 168 170 173 176 177 178 176 176 175 176 176 177 175 171 168 170 167 163 159 157 152 146 146 138 140 138 128  97  59  50  57  58  43  54  75  91 122 142 143 146 144 144 145 145 149 148 145 145 146 147 147 149 148 151 147
 126 123 127 128 122 124 125 123 126 125 124 126 121 118 121 117 114 125 100  68  75  55  84 132 144 152 162 167 159 159 159 158 162 162 167 169 171 171 171 176 178 179 180 178 180 180 180 180 183 182 181 179 179 176 173 170 163 160 154 151 141 139 138 138 128 103  57  52  61  55  36  45  80 105 131 147 147 145 145 146 144 146 148 148 146 146 147 148 147 146 150 143
 122 119 124 125 117 121 123 119 127 126 126 127 130 124 124 123 114 110  60  58  45  95 126 145 147 152 157 157 156 158 160 163 166 168 170 172 174 174 176 179 180 181 182 180 182 182 182 182 181 180 181 181 178 177 175 172 168 166 160 153 152 145 135 129 136 139 110  63  52  60  60  44  50  74 116 147 147 145 144 146 147 146 146 148 148 148 150 151 145 147 149 139
 120 116 121 122 121 124 125 123 125 124 124 124 133 124 121 118 113  71  51  53  77 125 146 140 144 149 154 153 153 157 163 170 170 171 175 178 177 176 178 181 181 182 183 182 180 180 180 181 179 180 182 184 178 177 176 174 168 167 163 153 147 147 144 140 128 128 145 106  51  30  59  59  60  51  79 123 147 144 144 146 152 147 143 146 143 143 144 145 143 145 149 136
 117 120 124 125 125 127 128 126 130 126 124 126 119 119 115  98  69  47  44  65 129 137 138 140 150 155 151 152 161 163 166 169 171 173 175 178 175 177 180 183 185 186 186 186 185 186 183 182 186 182 182 183 181 179 178 178 174 172 165 157 151 149 149 143 133 128 128 135 104  40  32  49  52  47  71 103 129 147 143 145 143 144 145 146 145 145 145 144 146 146 143 139
 124 122 120 123 122 125 128 128 127 126 125 127 119 112  93  61  49  48  52 122 133 136 134 142 150 154 155 157 163 165 167 171 174 175 176 178 176 178 181 183 182 182 184 182 182 183 185 185 186 185 184 186 182 180 178 178 179 177 171 164 154 149 147 141 141 136 126 133 151  90  30  25  46  50  56  89 114 137 145 148 141 142 143 144 143 143 143 143 147 142 138 138
 124 121 119 122 123 124 128 128 125 126 123 118 112  91  58  44  60  53 111 135 130 136 141 150 152 151 158 162 166 168 171 174 178 178 178 178 178 178 181 182 182 183 184 182 183 183 184 185 186 185 184 185 182 180 179 179 177 175 171 164 162 153 149 145 139 144 133 131 124 122  66  28  36  56  57  60  87 112 138 153 141 142 143 143 139 139 139 139 144 140 136 136
 119 123 126 123 126 126 127 125 124 123 119 110 100  52  54  40  42  76 141 131 135 143 148 150 152 150 161 165 168 171 174 176 181 181 180 179 178 179 179 180 185 186 187 186 186 185 183 183 184 181 182 183 184 182 180 181 180 180 174 168 170 157 152 149 144 146 128 137 130 126 114  48  31  40  44  48  71  90 120 139 145 144 145 147 144 144 144 144 138 141 138 132
 116 118 119 118 120 125 126 127 121 126 110  89  54  34  47  57  63 117 134 139 142 145 148 152 154 158 164 168 170 172 176 179 179 180 182 183 183 182 183 185 183 182 182 182 184 186 187 185 185 185 185 185 183 182 180 178 176 174 170 169 165 161 154 151 149 146 136 136 133 128 121  88  31  30  37  42  43  79  97 127 135 145 147 144 141 147 144 144 140 132 136 136
 118 121 122 121 122 125 122 119 121 120  87  57  19  41  69  50 108 134 130 138 144 145 148 151 155 158 164 168 168 172 176 179 180 181 182 183 181 180 180 183 183 183 184 183 185 186 187 185 184 184 185 184 182 182 180 178 179 177 171 166 162 159 156 156 147 151 145 137 136 127 124 111  63  23  48  41  27  44  75 119 129 140 144 144 146 140 147 144 140 140 138 136
 121 124 126 125 120 125 127 127 100  96  76  42  27  51  39  69 132 127 137 140 144 145 149 152 154 157 163 167 169 172 176 179 181 182 183 184 181 180 180 183 184 184 184 184 185 186 187 185 181 181 181 181 184 183 181 180 178 179 174 167 164 161 160 159 149 154 149 140 136 134 131 114  84  26  36  42  31  26  43 102 129 140 143 143 146 142 146 144 135 119 146 134
 117 119 121 120 122 124 124 125 110  76  54  25  48  54  48 113 119 132 143 146 145 147 150 153 154 158 163 168 168 171 174 179 183 184 184 185 183 182 183 186 185 185 186 186 185 185 187 185 186 187 186 187 186 184 182 181 174 178 177 169 167 163 159 159 153 156 148 142 134 130 125 118 113  53  24  49  37  37  25  63 135 144 144 141 141 149 143 143 125  71 135 140
 112 120 118 119 114 124 119 116  95  80  36  35  45  46  84 123 128 132 140 146 146 149 152 155 159 157 160 166 172 177 176 179 182 183 184 185 186 186 186 186 186 186 184 184 182 183 182 182 185 187 189 188 183 183 182 178 175 170 165 168 172 169 164 158 159 152 153 150 137 133 125 119 112  84  27  39  52  33  21  34 115 140 148 144 144 145 143 145 128  54 103 137
 114 120 120 121 118 122 117 111 105  57  27  38  44  47 105 128 128 133 141 146 146 148 151 155 159 160 165 170 174 174 171 179 184 183 182 183 185 185 185 185 183 183 185 187 183 184 183 183 184 185 184 182 182 183 181 179 174 170 167 168 174 171 164 158 159 154 153 150 145 138 128 120 119 105  43  36  41  40  33  24  72 145 139 146 150 146 147 147 123  51  85 125
 116 123 122 123 123 120 114 106  80  33  27  38  45  74 122 119 130 133 141 147 149 152 155 158 159 163 167 168 171 172 170 176 178 180 183 186 183 184 184 184 182 182 184 184 183 183 184 183 182 183 182 180 181 182 183 180 177 176 174 172 171 170 165 163 160 154 154 151 145 139 130 122 126 121  78  36  41  44  47  36  42 117 141 144 149 140 144 142 109  56  71 115
 118 124 125 125 118 113 106  95  41  25  30  36  35  98 128 113 132 135 141 148 148 150 153 156 160 163 165 162 166 172 172 172 182 181 181 181 182 182 183 183 184 184 183 181 183 183 183 183 179 182 184 183 179 182 181 181 174 175 174 170 167 168 167 167 160 155 155 151 141 137 130 124 130 126 106  36  46  36  36  33  25  72 151 146 152 138 144 140 106  57  58  97
 117 123 119 119 116 111 111  85  41  23  34  47  50 120 113 114 120 132 145 148 150 154 152 157 162 164 165 167 168 173 178 179 183 181 178 178 183 183 181 180 185 183 183 182 182 182 182 182 183 184 186 184 181 184 186 185 178 175 170 166 165 163 169 169 164 160 160 157 143 136 127 121 125 129 109  68  42  39  28  31  30  45 113 144 134 141 140 153  90  91  71  63
 121 123 120 122 118 106 105  64  31  26  33  45  71 117 120 117 120 130 142 145 151 155 154 157 164 164 164 163 173 172 173 179 182 179 179 179 181 181 182 183 183 184 186 187 183 183 184 183 184 186 185 184 182 184 185 184 182 179 173 167 168 166 171 170 166 161 160 156 149 141 129 121 122 128 117  91  36  38  34  26  31  15  68 132 138 137 143 152  77 115 100  50
 123 123 118 122 120 106  93  47  18  24  31  55  89 119 120 116 121 130 142 144 149 157 157 156 160 161 164 165 171 169 171 174 180 179 179 181 183 182 184 185 183 185 185 186 184 184 184 184 187 188 187 184 184 184 184 183 184 181 176 173 172 170 175 172 167 161 159 154 151 143 132 125 122 128 124 111  37  35  36  30  30  24  28  91 141 144 139 155  70 125 136  59
 119 119 114 121 112 105  76  35  24  28  27  58  92 124 115 112 125 134 144 146 148 158 159 156 155 159 163 167 172 177 180 178 179 178 178 181 186 186 183 183 185 183 181 181 185 186 186 186 189 189 187 183 184 185 185 181 182 180 179 178 175 173 175 174 169 161 159 154 150 144 135 130 126 129 125 116  50  39  40  44  37  31  20  43 122 153 139 143  75 120 155  75
 120 126 117 118 118  80  60  36  24  26  35  60  97 115 115 118 131 137 139 144 150 155 160 161 158 160 165 168 174 178 180 178 180 181 183 186 181 183 184 182 183 187 183 182 186 186 183 182 182 190 189 185 185 185 185 186 181 188 185 183 183 177 177 172 166 164 159 155 145 138 137 129 123 134 128 108  64  31  30  45  35  40  30  36  75 129 145 140  65 129 150 119
 129 128 119 121 115  68  57  30  23  39  38  62 106 117 117 119 129 136 138 144 152 154 156 157 161 163 167 172 177 178 179 180 183 185 187 188 185 187 188 186 185 189 184 185 184 184 184 183 185 194 194 189 188 186 184 182 178 181 180 180 176 182 174 174 171 168 161 152 148 142 140 132 124 132 126 109  75  33  26  44  36  43  33  38  50 116 141 136  65 133 154 142
 123 126 125 113  87  76  50  22  21  27  28  66 111 114 117 121 128 136 140 146 154 154 155 158 164 166 171 175 181 180 180 183 184 186 188 190 186 187 188 186 185 186 181 183 187 186 188 189 187 199 200 192 189 186 182 178 179 177 181 179 170 174 171 172 171 167 161 152 150 143 142 134 125 132 127 114  82  39  27  38  27  38  29  31  40  95 138 131  62 136 148 149
 124 119 114 107  85  68  39  30  33  32  43  70 109 109 116 123 126 135 139 147 155 154 157 165 165 168 173 177 177 174 174 178 183 183 187 188 191 192 192 191 190 188 183 187 191 191 194 194 190 203 204 195 191 187 181 177 171 168 174 170 159 155 162 161 166 163 159 154 148 142 140 131 126 131 126 116  82  43  31  35  25  38  28  30  50  81 136 129  64 144 147 146
 121 119 120 104  88  54  40  31  33  29  33  69 110 114 119 124 126 135 141 146 147 149 156 164 167 165 167 171 176 174 175 179 179 184 187 191 186 198 200 194 200 193 183 188 195 191 188 197 192 199 199 199 190 189 175 150 136 132 121 118 123 109 110 129 141 160 162 154 144 143 132 134 126 133 127 114  71  44  36  31  29  29  36  29  50  76 129 112  63 147 148 143
 123 119 120 103  69  43  35  36  42  35  37  73 109 112 118 121 123 137 142 144 150 155 163 168 170 168 168 169 176 174 171 167 174 176 183 189 185 194 198 197 206 198 184 186 197 197 195 198 185 192 193 189 177 171 146 111  84  88  86  72  55  76  76  71  71 106 162 166 146 143 130 132 121 130 127 115  69  54  36  28  31  25  30  27  44  70 117 105  65 160 151 142
 129 126 127 100  49  41  39  37  41  38  41  72 105 109 116 122 125 136 141 146 152 157 163 164 162 160 160 162 160 149 144 154 168 155 160 169 178 185 192 203 208 199 184 186 198 200 197 194 179 185 180 167 152 122  83  65  65  64  64  67  77  68  72  63  64  61 105 157 146 141 130 136 123 126 120 114  71  58  35  13  33  29  34  32  34  61 108 104  81 160 143 144
 125 125 127  89  46  36  28  32  34  36  41  64  97 103 115 125 130 134 136 148 150 155 160 157 141 135 126 120 124 112  97  92  87  74 101 142 161 171 179 200 207 198 184 189 197 201 199 190 179 161 142 146 128  96  61  54  48  52  55  60  63  76  71  56  52  75  50 124 151 142 128 134 132 124 113 115  72  52  45  20  20  21  28  19  24  51  91  91  83 158 149 140
 122 125 115  58  39  30  26  30  32  34  33  68  94 113 116 123 134 131 135 147 152 163 138 104  88  89  96 103  89  82  68  56  54  59  89 114 161 132 186 181 198 193 183 186 193 198 192 178 179 153 118 121  96  53  53  56  53  44  47  47  40  60  63  59  46  50  51  72 121 142 131 137 121 132 108  88  74  50  36  27  20  27  29  16  22  33  62  70  75 130 136 141
 104 115  95  52  48  38  28  35  30  35  35  65  90 108 115 125 131 128 133 144 157 138  91  71  98 117  99  67  68  70  53  50  46  73  89  94 148 129 177 173 187 189 186 186 200 190 190 174 174 148 132 111  93  87  82  75  72  66  69  77  89  84  66  58  61  36  41  44  66  92 122 137 122 124 106  80  68  39  26  20  26  31  30  23  13  24  35  77  97 111 139 147
  99 105  77  45  43  53  38  19  21  39  43  59  80 103 115 129 132 131 134 145 157  98  74  84  94  82  56  58  67  53  37  41  43  49  73  87 113 135 164 168 187 190 187 190 198 186 183 169 164 145 143 118 115 116 113 134 141 150 161 176 175 152 115  90  62  61  57  51  47  43  72 119 121 121 113  81  62  35  25  20  21  22  26  27  22  24  29  92 143 140 146 146
 109  98  74  46  41  59  45  19  28  36  36  61  84 105 112 124 129 127 132 142 106  92  83  70  63  56  58  63  47  36  53  59  69  84  81  94  90 119 158 170 188 185 181 188 189 188 176 167 156 147 148 137 131 158 178 168 174 180 174 168 176 168 158 136 106  84  71  64  52  45  44  70 113 113 118  86  59  38  31  24  24  21  16  17  18  27  32  66 126 149 139 154
 103  95  74  48  40  36  23  29  29  33  37  49  73  91 105 116 129 127 135 127  68  65  76  71  74  59  44  69  98 113 129 134 151 150 141 124 113 123 148 171 181 183 182 190 197 184 176 169 162 141 137 140 169 181 158 162 157 152 175 177 166 168 158 154 141 126  94  80  71  62  63  85 116 133 122  89  52  46  40  24  21  20  20  24  20  38  60  33 104 149 144 150
 105  97  76  53  47  35  31  25  20  31  23  58  61  77 110 119 126 136 125  74  57  57  58  49  45  70 105 154 174 176 177 175 171 169 160 151 147 121 135 161 169 176 182 190 192 180 172 163 153 140 140 158 165 160 147 134 132 114 141 145 160 165 160 153 151 141 123  99  86  70  63  85 130 139 123  93  52  43  40  21  18  17  22  26  13  39  58  68  75 153 148 149
 103  96  75  53  52  43  36  21  18  25  21  53  60  80 113 127 130 124  81  44  46  43  49  63 102 141 165 171 173 166 152 146 136 160 177 169 152 125 134 151 162 173 180 181 185 175 167 154 143 144 144 155 159 137 131 130  98  77  56  77  64 104 140 151 153 146 126 115  97  88  78  84 119 133 125  98  48  32  35  28  20  22  19  18  20  28  41 102  64 130 141 144
 101  93  74  50  30  40  33  21  24  14  31  38  62  86 105 124 120 108  45  46  37  51  73  98 127 151 157 143 132 125 118 120 131 138 146 156 157 137 128 140 151 168 180 182 180 172 165 149 152 145 131 141 141 142 122  75  49  55  75  40  37  42  69 109 134 150 138 140 112  94  79  86 118 136 130 100  56  26  29  26  22  25  27  26  34  24  21  83  84 106 137 147
 100  92  73  43  23  31  30  28  23  21  25  43  59  88 114 122 124  82  48  47  56  84  96 124 144 140 116 115  85  81  90  86  85 109 141 146 146 145 126 142 141 160 175 182 188 174 162 139 147 151 122 146 160 130 136 162  76  60 169  44  54 118  67  56  96 137 144 143 122 125  99  91 105 130 126 101  66  42  22  30  13  21  27  28  28  25  18  45  85  93 141 143
  98  90  64  34  18  25  33  42  58  33  21  42  54  88 115 124 124  90  67  65  69 105 126 138 128 110  84  41  41  50  45  38  78 120 114 157 154 149 115 151 139 158 175 183 183 174 160 143 138 150 120 141 120 112 172 189  82  53  68  41  72 158 148  41  51  92 138 145 144 141 131 104  97 121 127 115  69  51  33  35  10  21  17  19  15  19  18  30  54  52  83  73
 103  92  57  31  25  29  31  36  38  39  40  38  50  86 117 126 121  82  77  92 107 128 130 123 112  73  45  65  50  75 157  47 138 212 124 118 137 136 120 145 139 158 173 180 177 174 158 147 130 143 129 136 116 112 138 120 121 126 126 101  96 117  91  92  57  65 110 144 150 139 132 114  93 116 132 116  68  47  34  51  36  22   9  18  20  18  24  34  41  36  77  89
 102  90  48  23  25  31  31  25  26  32  36  33  47  85 118 127 118  84  85  91 105 129 130 100  45  36 103  82  62  46  84  81 116 133 119 125 119 124 143 138 141 160 172 176 172 172 155 150 128 138 146 135 154 169 151 154 146 157 146 140 121 109 121 117 118 102 112 137 143 145 138 123 117 120 126 123  96  53  20  46  31  12  18  20  13  26  41  39  40  55 119 141
 103  77  38  23  25  37  34  29  40  34  29  31  50  93 117 125 105  92 104 126 127 132 113  67  57  82  71  97 116 143 148 166 145 137 148 138 137 133 141 132 147 157 163 177 179 177 161 150 133 135 143 139 136 148 152 150 156 156 164 157 157 149 139 137 138 137 135 133 129 142 149 143 136 122 130 126 103  52  48  39  34  24  28  20  24  26  25  26  27  47 127 131
  98  68  27  23  23  34  33  23  25  32  28  30  60  99 121 124 107 114 140 145 134 128 118 108 122 136 130 144 138 157 155 164 166 151 146 137 125 144 145 131 148 155 165 176 180 178 163 152 146 132 144 151 150 137 142 152 154 149 152 160 156 156 154 148 153 151 147 145 144 140 137 142 144 127 130 128 105  51  52  38  32  27  33  22  27  25  24  30  24  43 113 138
  92  57  19  26  26  28  32  23  30  38  28  29  46  90 119 128 123 125 140 141 137 132 129 138 137 141 144 154 156 165 162 164 154 144 139 138 154 155 137 137 150 153 166 177 179 177 162 151 154 136 141 157 168 150 145 149 151 156 155 151 149 143 140 145 151 152 155 155 156 145 137 142 144 128 130 124 106  56  51  38  26  29  38  18  18  18  26  36  30  45  88 121
  79  71  47  31  32  24  28  29  34  42  32  41  49  95 128 142 132 129 140 139 132 137 142 142 141 136 141 141 151 155 155 155 155 155 154 153 167 148 134 141 152 152 167 179 175 174 159 147 152 147 137 154 166 173 164 154 147 157 155 156 160 161 159 158 158 157 157 157 161 154 145 141 146 135 139 124 104  63  43  37  36  22  25  20  15  20  30  34  43  50  68  86
  91  70  43  29  32  34  38  36  30  26  34  39  53  94 132 134 132 134 136 137 142 148 146 150 155 153 153 156 160 162 163 165 165 166 169 174 167 142 134 149 147 148 159 173 177 168 157 148 148 151 146 148 156 167 176 171 163 161 159 157 158 155 153 154 157 156 156 156 159 157 151 144 147 144 132 129 111  69  34  33  36  23  17  26  31  36  28  44  36  51  78 127
  89  69  45  36  29  33  34  36  25  23  25  31  42  90 128 135 138 146 140 143 155 155 152 151 149 147 148 151 162 162 163 162 170 176 180 173 161 140 145 152 145 150 160 173 177 169 155 143 147 157 160 156 151 156 164 168 166 163 158 153 154 156 156 153 158 158 158 158 151 158 157 147 147 143 133 128 120  75  32  24  28  44  46  53  85  79  40  34  35  78 107 136
  67  52  34  29  38  42  32  35  26  18  19  25  48  98 131 136 140 140 140 147 150 149 152 153 161 161 160 164 170 171 173 173 170 177 175 163 153 149 155 149 142 147 162 174 175 171 158 144 138 148 166 174 168 165 163 162 164 162 162 161 158 160 161 156 160 160 160 160 150 157 160 152 143 139 130 126 125  76  31  20  24  38  48  72 103 108  54  24  30  87 107 124
  53  49  37  30  31  39  30  40  39  29  25  32  56 105 129 130 144 132 146 155 141 140 157 165 157 156 156 159 161 163 168 172 173 174 169 157 148 165 157 140 140 149 163 175 174 173 164 149 142 138 158 179 181 181 176 169 172 169 166 164 166 162 160 162 162 162 162 162 156 158 159 154 148 144 134 132 122  75  32  24  24  23  35  51  73 108  61  21  53 102 102 125
  63  44  40  28  19  23  22  33  32  33  35  40  52 110 125 135 135 142 148 145 141 148 155 157 158 157 160 163 174 173 172 173 175 163 161 163 174 158 142 138 142 160 171 175 179 174 166 157 149 135 147 165 179 194 193 187 182 178 174 169 168 166 164 166 163 163 161 161 167 156 149 153 151 142 136 125 118  75  32  23  25  22  29  53  70  90  94  33  68  94  98 120
  60  42  37  23  24  34  34  41  26  33  39  41  53 110 125 134 137 142 146 145 148 153 159 159 164 164 167 169 177 175 174 176 171 168 171 171 170 154 137 139 149 164 174 176 179 177 172 165 160 140 140 149 161 173 185 193 200 195 184 173 173 171 168 168 169 166 164 161 160 152 147 148 151 143 135 122 114  71  36  28  30  29  23  64 100 106 113  45  64  88  98 124
  53  36  32  21  22  32  32  39  37  39  41  37  49 107 121 130 135 139 144 147 154 159 166 166 172 171 173 176 177 177 175 177 179 181 183 172 159 146 137 143 153 166 174 179 181 178 173 166 166 144 141 145 143 144 159 178 191 195 194 188 180 177 173 174 172 170 166 164 161 159 153 147 155 147 137 124 116  73  42  31  35  41  29  62 105 105 119  66  66  84  98 130
  45  29  30  24  23  27  26  36  33  32  32  37  44 103 117 124 130 133 142 152 156 163 171 172 174 174 175 177 185 184 182 185 186 186 181 155 142 139 140 148 160 172 181 190 188 185 178 169 162 144 147 157 152 142 152 168 175 186 195 195 185 180 177 176 171 170 170 169 160 161 155 146 149 141 133 118 102  61  42  36  41  48  41  48 113 128 134  68  63  76  92 123
  36  31  29  27  26  28  38  52  37  32  40  34  46  98 116 127 135 133 143 146 164 167 173 180 181 174 176 182 185 183 190 193 188 185 165 143 140 143 142 145 153 172 186 199 202 198 169 168 157 147 160 166 155 146 140 162 174 177 184 193 193 184 185 182 175 175 172 167 165 158 159 146 140 136 123 116  93  49  43  40  49  61  49  38 103 144 152  72  55  68  90 118
  41  30  26  27  20  23  29  45  33  33  39  36  43  94 116 121 132 132 147 153 168 171 177 182 184 179 186 192 194 191 193 185 173 172 157 145 155 161 142 137 139 155 168 176 181 181 161 153 145 152 160 168 163 155 141 159 172 175 180 187 198 192 187 180 176 176 173 170 166 158 157 147 125 125 120 110  94  54  49  41  48  55  57  49 109 149 157  73  60  57  58 109
  40  27  23  26  12  31  36  43  37  38  37  41  43  97 124 124 116 122 146 161 172 175 180 183 183 182 189 192 198 194 190 177 165 167 149 147 157 162 149 142 126 141 163 168 159 162 154 148 146 154 156 152 156 153 138 157 173 174 178 183 194 194 185 176 178 178 176 171 168 156 156 148 125 107  99  98  86  52  53  43  51  54  54  56  97 144 157  69  59  69  65 106
  36  28  27  22  20  28  27  47  52  46  33  48  41  96 130 130 119 124 147 162 171 175 178 181 189 186 192 192 194 184 179 173 172 172 149 149 159 149 143 126 112 124 146 149 146 154 145 115  87  69  83 116 136 142 132 160 177 176 178 182 192 198 188 178 180 179 177 174 169 156 154 148 131 110 101  89  74  48  55  44  55  59  41  54  87 142 166  81  69  95  86 117
  49  35  27  22  19  29  20  45  52  30  45  47  45  94 129 122 118 127 150 168 173 174 176 179 185 192 195 192 183 176 168 171 178 169 140 136 143 121 108  76  38  65 126 132 131 140 110  60  38  30  80  98 119 119 123 152 165 171 177 177 184 193 195 186 184 181 175 171 168 159 152 142 130 119 102  99  76  43  52  58  59  39  47  61  97 138 150  73  97 113 100 125
  64  51  41  34  31  28  22  60  82  50  47  39  44  85 114 111 117 135 156 167 172 174 179 183 186 189 190 183 177 166 172 174 170 166 141 120 130 115 108  98  52  32  64 107 122 114  91  87  61  58  74  86  99 116 132 154 157 169 178 176 181 191 196 187 184 180 176 171 166 165 157 138 126 107  97 109  59  41  41  54  46  41  42  68 110 137 152  72  90 117 108 124
  74  62  54  43  41  28  15  52 101  61  47  32  46  78 102 103 117 140 157 164 173 176 183 187 186 186 180 169 163 159 172 171 160 150 136 111 102  89  70  66  59  57  94 119 102 113 106  92  64  57  69 100 107 126 135 141 150 161 173 176 172 180 187 186 185 181 176 171 168 158 152 145 128 106 102 109  56  41  31  47  37  38  37  75 127 140 154  57 100 119 104 122
  67  61  55  45  36  29  18  44  97  58  46  35  36  61  84  91 120 143 152 161 169 171 174 176 177 176 165 149 148 158 163 161 154 135 130 120 111 106  78  73  75  90 125 119  77  99 101  90  89  74  79  90  93 109 115 129 140 145 157 169 166 166 172 181 183 182 176 172 167 162 154 141 121 109 115 113  68  37  29  40  37  32  50  99 140 144 156  34  94 120 110 125
  76  59  51  47  36  32  14  39  87  51  43  28  28  62  71  94 114 133 151 158 170 159 176 173 174 163 143 137 159 152 156 151 145 130 124 105  88  78  72  87  93 116 121  83  78  89 106 106  87  92  84 109 107  76 107 116 127 131 146 153 152 145 149 161 184 171 175 169 162 154 149 135 113  99 112 109  66  45  30  28  43  48  73 135 145 150 138  35  45  92 118 136
  71  58  55  47  38  31  15  35 104  46  41  32  30  52  66  94 116 137 153 160 166 156 170 168 149 130 117 136 152 155 140 121 118 115 101  90  95  80  68  89  93  97 110  80  83  67  80  80  85 110  95  99  87  89 113 105 106 124 127 136 127 127 104 138 168 176 180 169 165 148 144 130 110 116  92  97  57  41  26  44  55  67  91 143 130 153 128  38  34  37  64 100
  67  59  59  46  30  29  26  34 115  50  40  27  27  41  59  84 108 133 152 157 164 163 163 153 114 109 117 137 133 132 116 114 104  68  79  77  90  86  81  94  98  87 102  97  69  88  70 103 112 108 126 106  81  84  90  99 107 125 114 116 126 119  77  93 170 178 169 165 164 144 130 118  91 123 100  71  51  43  46  67  83 104 131 141 147 161 116  63  80  60  58  59
  63  60  62  46  30  35  36  22 124  77  52  25  34  41  63  78  93 122 147 153 157 163 153 125  85  90 111 132 117 106 102  94  77  88  84  80  81  84  86  99  92  98 103  82  86  95 101 113 123  88 131 130  97  92  73  97  99 108 101  98 103  99  82  65 125 173 178 158 150 144 118 115  86  84  96  68  53  36  68 111 141 141 165 141 152 160 109  68  87  90 102 107
  65  54  53  43  27  48  31  32 104 103  73  36  32  50  76  74  92 120 130 150 164 155 145  99  73  89 105  99 102  98  91  88  82  86  79  77  80  94 109 105 111 122  70 107  76 107 114 118  78 105 130 128 124  98  95  83  78  80  87 103 103  89  91  92  67 121 174 158 154 134 113  89  82  76  95  92  58  36  89 144 148 154 162 158 156 147 112  56  82  97 112 111
  67  55  54  44  32  45  34  25  88 115  93  52  38  57  71  65 102 115 123 142 153 154 110  71  80 102  97  91  91  82  78  85  91  79  89  94 101 101 121 126 148 133 117 137 117 148 150 154 141 142 136 128 128 120 115  87  75  68  75  96 110 109 100 106  68  99 174 158 153 120 105  89  99  85  72  78  60  39 117 160 140 147 163 166 156 151 100  53  95 112 124 121
  61  53  57  53  35  34  36  30  79 126 112  99  40  48  69  71 106 104 120 145 146 160  97  64  88  87  94  93  83  83  89  85  96  77  98 122 109 117 135 139 146 164 165 165 165 169 160 168 176 153 161 157 135 124 112 100 104  79  73  84 103 104  84  89  82  81 162 161 155 118  94  75  92  92  69  60  55  44 154 169 159 156 161 162 156 159 104  43  92 115 120 114
  76  66  67  58  52  31  33  25  64 133 135 139  60  41  76  91  95  86 104 123 137 158  95  63  82  89  92 105  96  91  91  86 102  85  92 125 113 121 117 138 132 120 118 133 122 112 121 122 122 128 130 131 128 119 113 116 118  95  94 101  97  92  81  90  80  60 127 158 143 124  88  71  82  86  73  58  60  50  97 131 173 164 163 165 159 151 109  55  92 120 121 111
  89  85  78  61  57  51  32  29  55 131 138 139  60  46  67  75  85  69  98 110 123 150  85  68  91 120 126  89  87  90  84  94 103  85 100 132 121 112 121 108 106 151 153 127 115 176 168 162 108 129 140 101 122 112 111 126 126  93  96 106  80  82 103 110  51  82 102 147 137 126  97  83  89  84  65  60  51  42  15  38 133 154 163 152 150 122  87  91 109 129 119 122
 107 100  89  70  60  52  35  27  60 136 146 137  62  46  52  57  66  65  80 115 132 152  77  58 104 118 117  82  89  69  72  93 102  90  97  97 115 125 168 154 159 214 219 193 199 215 215 213 174 209 177 141 157 101  90 108 111 106 102  92  87 104  97 110  85  78 110 119 114  99  77  71  71  74  68  57  50  36  20   8  30  80 113 103  90  73  67  95 116 133 126 127
 117 108  96  76  56  50  36  38  92 143 140 141  59  40  51  66  72  74  62  94 125 145  93  70 104 141 120  71  79  70  80  96  87  59  59  88 173 188 199 196 185 208 210 206 199 214 233 210 192 213 193 182 186 123 105  74  76  84  83  70  80  95 103 102  98  85 125 123 110  83  62  64  75  78  74  50  42  41  23  21   9  12  14  25  42  54  74 104 120 132 131 129
 121 114 104  85  65  49  31  41  96 135 135 149  76  38  60  74  61  74  65  90 111 129 112  75 107 126 121  69  74  91  78  42  24  29  55 127 168 169 183 202 176 187 209 201 167 170 186 160 165 181 160 162 165 115 104  72  66  84 102  77  78  83  94  93  80  95 119 133 114  80  65  78  78  76  72  50  40  32  17  13  31  35  32  37  43  55  75 101 116 127 127 126
 115 122 108  91  68  54  37  36  58 106 135 122  67  44  51  82  82  69  62  90  91 137 112  86  80  96  77  86 100 114 118 100  91  84  94 111 137 129 140 149 144 133 143 141 146 140 134 128 126 123 124 123 124 122 115 120 136 126 131 104  82  95  81  86  87 101 125 107  93  74  68  89  81  83  65  55  41  32  17  23  38  34  23  34  50  58  71  87 112 119 125 123
 121 125 111  95  72  60  46  37  22  41  55  49  31  38  52  79  90  67  65  67  95 122 119  86  86  93  71 102 120 125 126 121 112 120 129 125 133 151 155 153 147 163 163 159 177 169 161 164 158 158 157 157 148 144 138 137 139 129 121 120 115 118  97  93  92  92 121  96  85  70  85  87  81  75  66  55  38  25  15  19  26  23  19  30  47  45  57  85 106 118 126 121
 125 127 111  99  76  63  54  40  34  16  12  17  15  34  44  64  68  87  78  85  91  92 110 100 102  89  65 101 123 123 125 124 136 129 132 140 148 177 175 170 169 173 189 191 183 190 184 177 172 169 164 159 155 141 123 126 131 124 111 121 133 118  85  76 100  88 110  93  73  62  86  84  72  58  63  54  35  18  12  16  16  13  21  34  35  42  61  79 100 114 125 118
 125 127 109  98  78  59  54  44  29  21  33  28  27  21  38  55  60  92  84 101  79  79 101  98  90  63  62  98 104 114 119 111 102 110 121 118 136 144 144 155 141 141 139 156 158 165 153 147 137 136 133 132 128 130 123 119 126 120 116 111 115  89  59  66  99  86  91  87  77  63  76  92  86  60  63  46  39  15  14  15  18  15  32  46  46  48  62  83 101 110 119 119
 128 124 119 100  82  68  58  52  42  43  30  28  27  31  37  61  71  78  80  92  57  70  97 102  85  56  58  72  90 120 116 110 113 109 104 108 114 101 123 119 128 126 126 134 113 131 129 127 121 120 139 122 120 117 110 113 120 118 104 109 103  71  58  63  82  92  79  78  87  83  75  95  81  72  62  41  29  22  15  18  30  33  39  49  52  52  63  93 108 108 112 118
 124 123 120 103  87  68  54  51  43  40  35  36  33  31  34  57  67  79  81  91  57  61  78  41  57  47  52  70  96 108 111 107 111 101  95  96  88 112 130 102 114 119 116 132 110 126 124 104 107  98 114 107 118 122 116 104 109 104 115  79  84  62  37  61  76  83  69  72  72  90  85  77  63  73  61  41  30  26  24  35  45  46  49  53  48  59  79 108 123 120 117 118
 119 121 123 110  97  78  59  50  43  37  35  37  39  33  35  48  58  75  71  72  54  48  60  43  65  46  58  54  71 104 124 107 100  90  94 100 101 110 108  99 103 115 114 124 106  97  99 104 104  90 101 103 115 112 113 132 131 115 131  80  62  59  57  55  55  72  65  62  60  79  67  67  62  72  58  40  23  25  30  39  43  43  46  49  49  71  95 116 126 124 123 123
 115 119 124 115 108  91  72  54  49  39  40  40  40  37  41  41  42  68  64  65  63  60  42  59  50  60  58  49  63  93 101 107 113 101 111 118 122 108  99 104  95 108 116 109  95  96 118 112 117 104 115 120 117 122 122 124 110  83  87  73  53  58  44  41  50  62  56  64  78  85  59  66  75  57  43  34  20  30  38  38  39  42  48  58  67  93 115 121 129 125 119 116
 122 124 128 115 101  95  76  53  47  46  43  43  43  42  40  39  34  42  63  62  67  61  56  49  43  58  32  48  57  66  86 110  99 103 112 124 127 116 126  97 110 123 119 105 127 111 114 108 121 124 121 123 121 129 120  97  97  77  62  54  38  55  39  28  51  42  54  72  67  74  60  73  82  46  36  25  35  38  39  38  37  39  52  63  80 103 122 123 126 127 121 112
 119 120 121 109 101  88  69  51  46  42  39  39  39  36  34  33  36  47  57  58  63  70  56  46  41  43  34  39  46  41  63  90 100 135 126 133 126 125 136 109 108 123 121 121 116 117 126 129 132 135 130 128 124 114  83  83  83  71  50  53  48  40  39  41  37  44  55  58  58  62  62  71  63  48  33  33  39  37  35  36  32  36  51  68  81  99 114 123 132 132 127 119
 120 118 118 109 105  91  70  53  39  39  38  40  44  41  38  34  38  51  52  52  59  73  58  49  39  32  49  47  50  37  60  82  93 109 121 137 148 135 132 119 107 120 124 129 130 134 136 133 144 148 141 130 112 105  74  74  53  60  45  38  43  44  40  48  57  47  39  52  66  58  51  64  54  49  29  34  38  34  34  36  40  42  52  66  79  92 105 119 134 134 131 124
 122 119 122 119 111 102  84  63  53  47  37  33  38  34  32  26  27  43  38  40  50  53  50  47  42  39  56  45  37  38  49  69  85  98 123 132 121 120 125 128 121 127 138 131 135 131 146 141 134 143 135 119  99  90  82  74  58  53  47  37  37  37  43  38  45  45  38  51  56  67  53  55  43  41  34  41  29  32  37  38  41  46  56  72  82  98 111 123 130 131 128 121
 119 119 128 127 120 112  92  70  58  46  38  29  34  35  26  22  25  37  38  27  45  49  54  58  31  35  42  33  30  39  54  52  61  83  99 108 104 110 125 132 131 136 122 138 149 141 151 150 143 121 124 122  79  69  69  60  75  38  42  47  37  26  32  26  31  53  36  40  52  54  65  45  41  30  49  48  33  35  33  40  48  57  84  96  99 111 126 131 126 130 127 126
 122 121 125 124 118 113  97  77  58  45  38  37  35  34  26  19  21  27  32  31  36  39  61  47  31  38  45  37  26  33  32  33  47  72  85 100 116 129 136 127 133 147 150 162 170 161 136 156 132 100 108 100  69  48  52  51  56  36  37  56  54  36  33  27  33  42  40  45  43  49  53  38  41  30  50  52  34  39  42  51  64  84 112 118 115 122 129 128 125 128 124 123
 127 124 125 121 117 115 105  90  70  54  48  47  45  43  30  22  26  27  34  39  30  40  55  41  41  37  37  30  40  51  37  41  53  62  89  93  97 108 117 132 145 157 156 154 159 145 104 146 149 111 119 106  78  63  57  54  45  33  31  52  52  37  33  37  39  40  43  43  37  40  40  31  34  26  46  47  37  49  58  69  81 104 119 113 114 121 128 130 126 127 121 124
 131 126 125 117 117 116 112 101  88  74  63  55  48  46  31  22  24  26  33  34  23  41  31  40  41  28  26  32  34  59  44  52  50  51  46  66  94 104 113 143 162 167 167 164 166 176 149 136 140 111 108  97  58  76  66  57  59  43  41  47  43  35  31  36  46  49  38  36  40  40  35  31  33  24  44  47  39  56  70  83  96 108 107 106 115 123 130 128 130 128 123 127
 119 123 123 117 113 116 115 107 102  92  71  57  51  43  34  27  26  38  26  31  26  24  26  32  30  34  33  36  44  67  27  63  64  48  53  68 101 133 135 141 151 172 156 156 170 155 152 131 110 123  86  67  59  80  78  73  85  52  48  45  41  35  35  31  38  31  38  42  40  36  35  29  24  40  55  46  34  61  78  95 101 106 106 120 118 130 130 126 121 122 128 134
 118 120 122 121 118 121 121 116 112  98  79  72  64  54  38  28  26  37  25  25  29  30  29  25  22  26  26  28  41  39  49  63  52  46  63  67 100 121 107 144 162 158 156 172 161 181 162 121  58 102 108  82  59  76  73  76  81  50  50  47  49  35  28  25  27  26  32  37  39  37  33  28  33  44  56  44  38  66  85 103 106 111 110 123 122 126 125 128 126 124 124 129
 121 118 118 123 123 125 122 122 121 110  94  87  80  67  45  29  29  39  22  21  29  29  26  19  15  22  23  22  35  19  58  64  63  52  52  58  78 104 135 158 154 141 151 167 164 169 150 131 103  80 109  76  76  75  54  50  59  43  51  43  43  31  26  23  28  26  25  26  34  40  31  28  28  40  57  48  54  78  90 102 104 110 114 130 126 126 122 127 128 122 120 127
 127 119 116 121 126 123 119 117 117 115 106  95  87  72  46  26  35  43  26  20  21  19  19  19  16  26  26  25  31  35  42  58  63  64  39  49  75 106 134 140 139 111 115 163 161 134 152 132 119  90  67  73  65  62  47  64  81  50  42  40  23  23  31  30  27  30  26  28  32  40  29  24  35  47  61  54  58  82  93 104 108 113 112 126 126 128 125 124 125 119 117 127
 127 124 121 123 124 123 117 111 110 110 105  92  85  78  49  31  40  32  21  18  18  16  18  22  19  21  21  19  25  33  32  47  61  54  37  63  92  95 106 119  99 100 138 144 130 142 137 126 102  97  69  78  51  43  63  48  87  59  34  39  26  19  31  25  30  21  24  29  33  28  31  24  41  64  56  46  68  94  93 105 113 120 117 123 127 130 128 126 127 123 122 128
 124 122 121 122 123 121 118 112 106 107 105  94  82  73  49  30  38  49  26  26  15  15  18  23  12  15  17  15  22  30  29  43  50  47  53  52  57 101 103 115  97 124 155 124  99 131 125 113  85  95  66  71  49  40  65  40  65  47  26  34  19  20  20  15  28  23  26  31  26  17  21  23  45  57  51  49  61  87  87 100 111 120 118 121 128 124 131 129 128 125 125 127
 121 121 121 118 122 121 118 114 108 104  93  80  77  66  49  34  40  60  33  34  23  20  19  21  10  12  13  12  16  23  20  34  44  41  55  37  41  86  86 100  90 116 131 105  86 112 109  95  86  83  86  52  45  34  75  51  41  37  25  34  24  21  22  18  25  22  30  33  28  22  31  35  54  56  51  54  56  84  86  99 108 120 119 119 127 121 133 132 130 128 128 129
 117 119 119 116 120 121 118 114 106 100  88  78  75  59  48  36  44  53  43  39  38  32  23  17  16  18  18  16   8  16  16  26  38  37  38  47  44  59  82  70  89  92  86  85 101  85  90  73  82  69  76  40  56  35  53  36  28  32  21  30  32  12  27  24  21  22  33  37  29  34  50  49  66  62  57  55  59  87  90 103 105 120 119 118 120 125 130 133 131 131 130 128
 121 124 123 118 117 117 120 113 103  97  96  91  81  61  48  36  51  50  47  36  36  30  22  19  12  18  20  17  16  13  15  18  23  21  36  43  36  49  63  58  81  76  55  69  64  72  75  72  63  58  44  42  43  36  53  46  13  17  24  26  21  13  24  24  22  30  32  37  39  36  42  47  81  70  61  52  57  83  99 108 119 117 119 121 131 132 128 129 138 127 133 136
 121 119 119 121 119 119 122 115 100 101 104  98  95  73  54  39  56  59  46  47  32  29  23  21  18  17  16  18  19  18  18  20  17  19  28  33  29  36  45  48  62  58  52  59  39  58  47  49  51  39  41  40  31  25  40  32  17  20  23  26  20  20  21  27  34  37  34  33  33  49  52  60  85  71  63  57  61  90 105 112 123 122 122 125 130 131 126 127 129 127 131 135
 121 119 118 122 119 120 125 118 109 109 108  95  90  74  61  44  54  67  56  67  47  42  38  36  33  24  15  12  21  19  18  19  12  16  19  21  22  26  28  38  36  36  41  44  37  31  33  36  44  22  30  25  19  17  29  17   9  26  35  21  23  26  24  29  33  35  33  39  54  58  49  74  84  76  72  66  70 100 115 118 125 125 125 128 129 130 124 124 131 134 135 136
 120 122 122 119 120 121 127 120 112 108 106  98  99  83  68  48  60  74  67  69  53  48  40  37  35  29  21  19  19  17  15  15  12  17  12  15  12  18  20  27  19  28  25  32  35  27  25  34  37  19  21  15  18  20  30  15  14  26  33  25  33  19  27  34  33  33  31  40  55  47  48  84  80  83  82  69  77 110 123 124 124 123 124 126 128 129 122 121 131 139 134 132
 122 125 125 120 117 121 125 115 108 103 104 104 105  88  67  49  65  79  68  65  67  64  57  50  28  27  21  19  21  15  20  22  22  22  20  16  11  12  12  15  16  11  30  30  21  36  16  26   7  27  11  20  24  22  21  24  26  22  25  34  49  29  29  28  25  32  35  45  58  90  58  70  90 100  64  77  79 118 127 122 126 128 124 126 135 134 124 124 132 138 137 134
 125 127 124 117 118 121 126 118 113 107 106 102 104  93  74  61  70  91  83  72 101  78  61  56  54  42  28  27  21  18  20  22  20  26  26  18  20  19  18  17  19  15  24  21  12  18  16  22  27  17  29  14  33  30  29  29  38  34  33  39  40  33  28  30  40  45  56  60  80  87  73  95  88  94  90  70  79 108 124 125 131 131 124 124 132 130 122 122 132 139 137 134
