P2
# Generated by OpenCV 4.2.0
92 112
255
 123 124 123 122 125 125 123 126 125 121 121 123 125 122 123 125 122 123 124 122 125 126 127 129 127 123 122 123 122 115 119 104  60  53  58  54  49  47  46  53  55  55  40  45  49  51  51  53  52  48  43  50  36  45  57  52  45  39  49  54  58  64  59  56  49  71  94 123 133 131 129 129 133 131 128 135 140 137 136 133 136 134 134 138 138 140 136 138 142 144 144 140
 122 123 123 123 124 124 123 124 125 124 124 125 126 124 124 124 122 123 125 123 124 127 126 128 125 121 123 117 113 106  97  73  44  45  55  48  48  50  51  44  55  58  50  52  50  53  55  51  47  52  43  45  39  50  49  48  40  44  55  52  55  54  58  55  56  57  58  74 111 123 129 128 131 132 128 133 138 136 133 133 138 138 136 137 138 138 136 139 144 146 143 138
 123 123 124 124 123 124 121 121 125 128 127 125 125 127 126 126 124 124 123 123 124 127 126 125 123 120 100  80  76  67  52  45  51  50  51  54  55  51  49  37  52  60  58  62  52  56  60  57  56  56  49  46  45  56  50  39  41  54  54  46  47  64  69  66  78  70  58  50  67  86 100 124 130 132 127 131 133 132 132 133 137 137 136 140 138 136 135 136 145 147 139 138
 124 124 124 124 126 126 124 122 125 127 126 123 124 128 127 124 123 124 123 121 124 128 124 115 110  88  78  63  48  41  40  48  52  56  57  63  63  52  43  32  50  62  63  60  55  57  65  64  57  55  56  44  54  64  48  42  57  55  50  56  61  59  59  65  69  73  72  67  58  81  92  96 117 131 131 133 131 132 134 137 140 136 136 140 136 137 141 138 143 142 137 139
 123 123 124 124 127 127 125 123 125 126 124 125 126 129 127 123 123 123 125 125 124 124 116 110  87  67  63  52  48  45  49  54  53  58  65  69  77  67  45  33  46  63  61  70  61  61  73  68  66  52  56  55  64  57  41  58  66  59  60  56  57  49  50  53  65  78  83  83  76  65  90  95  88 108 128 133 132 132 136 139 140 134 134 137 135 138 141 142 145 144 141 139
 125 125 123 123 125 125 125 124 125 125 123 124 127 128 126 124 123 122 123 122 124 119 109  82  60  56  57  59  55  52  57  69  72  74  77  68  72  69  44  36  50  63  64  73  76  76  79  80  68  57  63  70  67  55  49  60  56  71  79  90  74  51  48  49  57  72  83  72  62  58  67  86  96  89 105 124 136 134 135 136 139 134 132 137 138 139 141 143 147 145 141 140
 124 124 122 122 124 124 123 123 125 123 123 124 125 128 126 125 124 120 118 124 119  98  82  58  54  57  47  45  50  68  86  99  98  87  85  84  67  72  46  43  58  70  82  84  89 105  91  85  66  71  67  65  53  57  57  46  63  86  96 113 102  91  70  49  46  45  50  56  52  49  50  69  97 104 106 114 129 134 136 137 138 135 136 140 138 140 143 144 146 142 140 141
 121 122 124 122 124 123 123 125 124 123 126 126 125 126 125 125 124 120 122 118  90  64  48  45  55  51  38  52  86 114 121 118 116 111 105  85  73  80  53  52  73  82  93  97 108 125 106  89  84  92  78  67  62  65  56  57  79  90 107 126 124 133 120  83  45  39  44  59  59  56  44  47  81 103 115 118 124 129 135 139 139 135 137 137 138 141 143 143 143 142 138 139
 121 123 124 122 125 123 123 124 123 122 125 125 123 123 123 123 123 121 116  89  50  35  43  57  47  43  61  98 121 131 136 140 146 140 127 102  98 101  73  67  91 110 117 116 129 126 124 105 108 109  89  91  80  64  79  76  98 105 120 144 151 150 140 130  95  55  36  41  52  58  54  50  48  85 108 125 126 127 132 135 136 137 137 139 139 140 143 145 143 143 139 137
 124 125 124 121 124 122 120 123 121 121 124 125 122 122 125 124 125 114  86  42  32  40  46  40  36  62 115 138 140 138 151 162 172 159 146 126 118 130 104  90 107 129 140 146 142 138 142 125 130 125 110 118 105 102 123 121 127 134 141 155 163 160 157 148 133 111  72  39  50  60  54  47  36  50  94 126 128 127 126 131 135 137 136 141 141 143 144 145 142 142 139 138
 124 123 123 122 124 122 120 121 121 122 125 123 121 126 126 125 114  89  45  31  48  44  41  39  73 115 140 150 145 152 163 170 177 170 158 153 153 152 120 113 127 145 154 161 161 160 157 147 144 150 141 148 144 139 159 160 151 156 159 163 169 167 166 160 152 141 120  76  39  45  60  57  34  30  62 120 133 131 125 128 133 135 134 137 141 142 139 143 142 142 141 138
 123 123 123 125 125 123 121 120 121 122 123 122 122 124 122 116 100  54  40  55  53  46  45  79 116 134 151 151 154 168 170 174 176 176 176 174 164 164 149 140 152 167 173 173 174 175 167 173 158 170 166 164 170 161 172 172 166 168 167 167 166 165 168 167 161 150 140 128  65  27  39  57  56  38  41  96 137 129 128 125 132 135 134 137 138 138 136 142 143 143 142 141
 122 123 126 126 124 122 119 122 120 121 123 123 122 122 114  89  52  45  61  55  40  41  84 121 141 152 157 155 165 172 174 184 181 178 181 182 170 168 176 161 172 183 184 187 180 178 171 174 178 175 175 170 176 179 173 169 174 177 175 167 168 168 164 167 168 159 150 148 123  62  25  36  61  59  38  57 122 132 127 125 131 134 134 136 136 137 137 139 137 138 139 141
 122 123 124 124 123 121 120 121 121 120 123 125 120 113  77  34  29  41  39  34  32  67 124 142 151 163 158 159 171 174 181 181 185 180 180 181 181 179 182 175 178 187 190 188 184 187 185 175 185 186 179 180 177 180 179 177 176 177 176 174 171 169 165 161 164 164 155 147 153 125  52  28  38  58  49  40  71 118 128 125 132 133 134 131 133 138 137 137 134 134 138 140
 122 122 122 122 122 121 121 123 123 122 123 120 113  71  30  26  38  38  33  43  51 103 136 146 155 159 161 170 174 176 179 183 182 180 177 183 189 184 182 182 178 187 188 189 189 190 191 189 189 190 185 186 185 182 186 184 183 182 178 178 175 173 170 163 156 158 156 150 152 151 106  46  33  43  48  37  34  62 110 127 132 130 130 131 133 139 138 139 137 136 139 140
 122 121 120 120 121 121 121 123 124 121 116 115  81  29  23  34  36  40  64  62  90 138 147 151 160 167 170 175 176 174 179 185 181 182 186 186 187 188 190 190 185 185 187 192 191 192 191 191 192 190 188 191 191 190 189 186 187 185 180 178 177 174 170 166 159 155 156 153 146 153 144  86  44  41  42  38  28  28  68 124 130 127 127 131 136 139 137 135 138 138 137 140
 122 121 121 121 122 121 119 122 119 111 112  96  42  19  32  41  46  51  64  71 123 149 152 155 165 170 172 172 173 174 180 183 182 184 187 187 187 188 189 192 190 185 187 194 195 195 193 192 190 193 192 193 190 192 189 188 189 187 186 180 178 176 173 171 166 162 155 151 146 146 152 131  73  34  52  46  32  21  36  97 132 126 125 130 137 139 135 132 135 135 135 136
 122 119 118 120 121 119 117 118 112 114 106  51  21  26  35  49  47  57  60 108 148 158 154 157 164 167 170 171 171 175 180 182 182 184 185 185 185 185 186 190 191 191 190 191 192 194 194 192 190 191 192 196 196 194 192 191 191 189 189 184 180 177 175 173 167 162 159 153 152 147 143 148 110  46  34  47  29  24  18  56 126 131 133 133 133 137 134 132 132 135 133 132
 122 120 121 122 122 120 119 117 117 116  76  26  23  29  35  37  41  55  86 138 157 157 149 159 166 170 166 168 171 177 180 180 183 184 182 184 187 189 192 191 190 190 191 191 194 197 198 195 194 193 195 197 197 195 195 195 191 192 189 186 183 178 174 172 170 162 160 158 154 151 144 140 132  75  32  45  35  28  20  35 107 134 135 134 130 137 136 133 136 136 133 133
 122 120 121 122 122 120 122 114 109 102  43  20  21  26  29  39  56  66 116 143 161 150 153 161 166 167 164 168 174 179 181 181 182 182 184 189 189 190 193 194 195 193 193 192 192 198 198 196 195 194 196 195 197 197 196 196 194 190 187 184 185 181 172 167 168 166 162 159 152 151 153 136 134 107  46  42  54  34  26  26  67 125 135 132 130 134 137 135 138 136 132 131
 123 122 122 121 121 121 118 111 111  78  24  20  21  29  34  37  55  92 135 150 153 147 158 165 164 168 169 172 178 176 179 180 179 184 187 190 187 190 192 195 196 193 194 193 196 198 197 194 194 193 196 196 197 195 194 195 192 190 191 187 187 183 176 169 165 167 161 159 155 151 153 147 131 129  70  36  45  43  39  34  38 101 136 133 132 134 138 137 137 135 131 131
 125 124 122 121 120 121 116 110 101  50  17  23  29  28  31  47  61 113 145 153 144 149 161 164 168 170 168 173 175 175 177 179 182 186 190 189 188 192 194 196 193 192 194 196 198 199 199 199 198 198 195 192 192 197 194 196 193 191 190 191 188 185 178 173 167 166 163 163 156 153 155 149 136 134  96  37  38  31  35  30  31  68 122 135 132 137 140 139 137 133 132 133
 126 125 121 120 119 118 117 111  76  37  20  29  20  24  45  57  81 132 145 151 139 152 163 167 172 167 170 172 175 178 177 180 184 188 188 189 190 194 194 196 195 193 196 198 202 203 201 201 202 199 196 197 199 197 197 198 195 188 187 191 188 185 179 175 172 169 166 163 158 152 152 147 137 132 124  58  41  35  21  27  27  27  75 127 135 137 142 141 136 134 134 132
 124 123 122 119 119 116 115 102  66  34  25  28  20  30  47  59  97 138 153 149 139 155 166 168 169 169 174 171 174 179 179 183 184 185 189 192 192 193 195 194 194 197 195 200 201 201 200 200 200 197 198 202 201 198 198 197 195 189 191 190 187 184 181 175 173 168 170 165 163 159 153 148 137 133 137  98  47  48  28  20  30  26  30  87 133 139 142 138 134 134 135 130
 123 123 121 120 120 118 115  88  63  36  24  22  25  30  49  64 106 144 155 142 143 157 165 168 165 169 173 174 176 177 178 183 185 188 191 193 193 195 198 196 197 197 197 201 200 200 202 203 204 204 202 197 201 199 198 196 194 191 193 190 185 183 180 174 173 170 172 165 166 161 156 149 138 134 138 123  54  45  45  28  30  34  37  47 106 136 139 136 134 137 134 129
 123 122 120 124 124 120 114  85  55  33  30  27  25  29  43  73 123 148 150 137 142 152 161 164 167 169 175 175 172 174 179 180 185 188 188 191 193 197 196 199 202 199 201 204 203 203 206 207 207 206 201 197 198 199 201 197 195 195 192 189 186 182 177 175 175 169 170 165 167 165 157 150 139 135 135 133  80  42  46  37  29  30  25  44  85 127 138 138 137 137 133 130
 122 120 120 124 122 117 104  72  50  38  31  25  22  30  46  94 133 149 145 135 141 153 157 157 169 173 173 172 173 175 177 180 185 190 188 190 195 197 198 203 199 197 203 204 209 208 210 208 209 210 207 202 202 204 201 196 196 193 191 187 186 186 181 175 175 172 173 167 166 162 161 151 139 132 135 136 101  40  43  34  31  30  22  42  76 116 137 141 140 137 135 133
 123 122 122 122 119 112  75  56  47  28  26  23  23  36  43  97 137 148 143 137 140 152 150 161 168 169 172 174 177 177 178 180 185 188 189 191 195 199 200 200 202 202 204 206 208 212 212 213 215 212 208 206 201 205 200 197 197 191 190 190 187 185 183 178 175 173 170 167 163 162 162 154 141 131 134 138 118  54  53  42  30  33  27  46  68 105 139 141 141 138 137 131
 125 126 123 121 120 103  64  59  39  28  27  24  23  34  52 105 136 145 145 140 137 143 150 166 166 170 173 176 178 174 179 180 184 185 187 190 193 197 200 202 205 203 208 204 205 208 211 213 212 208 204 203 201 204 202 201 197 194 189 188 184 182 179 180 179 173 170 171 167 163 159 151 143 130 134 139 121  66  47  39  29  31  34  48  64 100 138 141 139 138 136 130
 125 123 114 115 116  88  64  53  35  31  34  26  18  28  53 108 134 144 144 141 135 139 154 162 164 169 172 174 180 179 181 180 185 186 187 187 191 198 201 206 207 206 205 206 210 211 211 209 205 206 203 200 199 204 207 200 195 196 190 186 185 179 176 180 179 174 174 169 170 168 158 149 143 132 134 142 125  66  36  36  25  26  29  31  56 113 137 140 138 139 135 131
 124 120 118 121 117  82  62  49  34  39  28  21  24  33  60 108 132 141 138 135 135 140 153 162 167 170 171 175 176 178 179 181 184 186 187 188 191 198 202 205 203 201 204 209 210 209 208 202 202 205 200 196 198 202 200 198 195 194 193 189 184 178 181 180 177 175 177 173 169 170 164 151 144 134 135 141 127  82  45  38  31  27  34  31  56  91 127 138 135 137 135 132
 121 120 119 120 113  81  63  36  28  27  23  28  36  34  64 115 137 140 136 133 133 143 151 159 162 170 172 171 172 177 180 181 180 185 187 189 188 193 199 201 203 203 211 213 212 211 212 208 209 205 198 196 194 197 199 201 195 191 191 189 185 186 183 179 175 175 181 174 169 170 167 153 143 133 134 139 134  89  49  27  28  30  36  36  40  56 103 132 133 133 132 129
 121 120 120 120 104  81  57  31  20  22  25  34  34  38  70 113 136 135 133 133 135 145 151 157 161 166 174 172 174 177 180 181 183 182 187 188 188 195 199 207 206 208 211 204 203 205 205 204 203 201 200 197 195 196 197 197 195 192 195 192 187 185 180 172 173 174 177 172 169 167 165 154 144 135 137 140 128  91  48  18  17  23  29  25  34  50  83 130 130 132 131 132
 120 121 121 119 105  66  45  33  24  26  30  36  37  39  65 109 128 134 134 133 137 150 154 152 159 167 174 176 174 174 179 181 184 185 189 192 194 199 200 201 198 195 197 196 197 199 200 199 197 200 202 198 195 194 199 200 195 197 196 195 190 185 179 178 177 180 180 176 173 166 162 150 144 137 132 139 125  96  55  12  23  22  15  17  23  50  50 115 134 134 132 132
 121 123 121 115 100  50  39  34  50  41  29  22  39  47  61  99 127 138 137 132 140 148 150 155 156 160 171 174 175 173 177 179 180 185 186 188 188 194 196 195 198 199 201 201 203 203 203 201 203 204 203 200 195 196 200 198 196 198 196 195 193 187 184 179 180 179 182 177 173 169 165 153 146 139 129 137 128  83  56  21  21  31  33  19  20  46  58  86 136 132 133 130
 120 120 116 116  96  47  40  34  41  38  30  23  36  45  51  88 126 134 132 130 141 141 152 158 162 165 172 172 173 171 174 176 177 183 185 186 189 195 198 198 198 199 201 203 205 205 207 205 208 206 205 201 201 199 200 200 196 195 195 193 193 190 187 181 184 182 179 175 175 170 166 157 148 137 129 136 128  81  45  32  19  20  27  22  21  34  77  67 124 135 133 131
 120 118 116 116  89  50  42  25  29  33  38  32  31  40  47  89 121 129 130 133 139 141 155 160 166 168 169 169 172 174 177 181 184 186 191 194 194 198 200 198 198 201 202 205 200 204 208 205 204 210 209 206 205 203 204 202 195 196 195 193 191 190 192 187 188 184 182 178 175 172 163 159 146 135 130 132 124  79  38  17  19  23  20  18  21  29  66  80 113 133 130 131
 118 116 116 115  86  37  39  38  41  34  32  18  23  45  56  81 111 127 125 134 140 143 156 160 162 165 168 171 178 183 180 181 184 188 191 192 195 199 198 200 205 207 207 209 204 204 205 200 205 209 209 206 204 204 206 206 200 196 196 193 191 190 191 188 186 183 180 177 173 172 165 159 148 137 135 129 106  64  27  18  22  14   9  12  26  32  44  76 108 132 125 127
 115 113 111 118  84  35  38  23  35  33  19  20  27  34  45  60 102 119 128 136 138 144 153 158 160 165 172 175 179 181 181 180 188 191 191 191 192 194 201 203 205 206 206 209 207 209 205 200 206 211 208 199 201 209 211 208 202 196 194 190 187 190 189 184 182 177 177 172 172 172 168 157 148 138 135 128  95  52  30  22  25  17  20  21  33  34  39  67  91 129 129 118
 114 102 111 112  64  31  26  26  46  39  23  19  27  27  28  54  96 116 136 138 139 143 149 156 159 164 171 178 180 184 182 179 185 188 189 190 190 194 199 204 204 204 211 210 207 207 206 197 205 216 207 205 204 202 211 205 198 196 189 188 188 183 183 183 168 157 150 152 154 175 173 159 145 138 131 130 103  50  33  25  34  36  41  42  41  29  39  49  89 130 134 111
 112 109 106  90  52  26  26  33  44  48  31  21  26  24  14  53  85 115 132 136 142 146 148 154 157 167 169 176 181 181 181 183 181 184 190 188 189 193 194 198 201 199 206 215 217 214 205 195 201 212 206 204 204 195 204 199 192 191 184 182 174 164 142 140 124 116 103  94  99 141 175 164 145 136 132 133 102  49  38  30  25  29  36  37  28  30  42  47  85 130 134 108
 104 108  97  97  53  22  22  32  33  45  40  26  16  19  17  50  73  99 122 132 141 148 151 154 157 167 172 179 174 176 178 178 184 186 188 186 186 182 189 195 199 198 196 208 208 212 203 193 200 207 201 200 197 195 196 195 192 186 180 164 138 121 106  88  83  83  86  76  73  91 145 164 146 136 137 138 106  45  37  33  25  16  20  31  22  44  55  42  91 129 134 122
 103 109 100  96  34  13  19  30  33  34  33  38  50  28  24  42  59  88 112 136 143 147 154 151 154 166 174 168 139 140 146 150 156 166 170 170 169 175 186 190 193 190 192 198 200 202 200 189 195 203 197 196 195 190 191 191 180 168 147 111  79  73  83  80  85  80  71  66  65  62  88 131 140 136 138 137 114  48  33  24  31  25  27  23  27  45  41  29  87 132 132 133
 115 104 101  90  40  20  29  30  35  39  34  35  47  48  27  40  51  86 114 142 145 146 153 145 152 169 168 128  97  93 107 116 136 132 130 138 139 151 158 153 162 176 184 187 196 200 196 189 192 199 198 194 189 180 174 172 156 131  93  60  64  62  63  67  63  71  64  47  39  43  52  76 108 119 141 138 115  61  35  41  31  14  17  25  24  39  58  34  69 130 133 130
 109 103 102  89  50  32  35  43  34  35  29  25  30  42  47  36  49  82 121 139 148 150 153 144 153 164 134  98  99  96  99 112 100  85  92  93  72  72  72  73 115 159 169 176 189 195 189 186 193 197 195 193 182 177 153 138 124  87  57  55  45  44  56  68  73  61  58  55  51  38  36  39  50  62  93 126 122  80  44  40  38  16  17  23  25  48  50  36  76 116 120 128
 115 105  99  74  38  37  52  49  41  44  27  28  33  33  35  34  36  76 122 141 146 147 149 145 138 113 106  99  95  89  94  95  83  73  74  67  45  38  42  62  83 135 151 166 184 185 186 191 193 199 195 188 175 173 146 119  84  68  76 107 127 151 163 172 173 150 127  98  79  64  56  44  36  44  77 128 135  87  38  32  28  19  24  28  23  45  39  46  88 103 121 133
 117 100  86  57  46  57  50  35  34  42  26  23  35  59  36  34  41  73 120 143 147 147 147 114  80  75  71  58  80  86  80  66  55  58  60  63  61  70  64  64  72  89 133 161 179 180 187 192 192 198 192 184 172 163 145 114 108 148 168 165 161 144 138 153 157 170 167 154 134 103  85  73  60  58  95 137 135  98  47  35  33  27  43  29  24  36  30  76 110 109 127 135
 115 105  74  55  49  40  41  56  58  30  31  40  26  34  32  30  41  82 127 145 151 149 118  64  68  55  40  50  56  52  54  56  87 132 148 155 154 159 157 137 124 104 109 151 176 186 191 193 195 195 187 179 170 155 131 131 168 167 144 115  79  51  42  46  60  72 112 152 152 134 107  84  77  72 100 137 139 111  57  36  17  32  41  29  55  36  41  64 105 114 128 136
 110  97  75  58  48  40  46  42  51  38  35  43  27  25  22  23  41  93 130 143 151 151 116  66  44  33  51  58  57  78 106 139 148 137 121 120 124 133 143 163 169 156 127 134 166 182 190 193 198 195 187 178 167 149 132 154 153 139 129  89  62  85  73  56 108 117  48  69 137 145 133 111  98  92  97 129 142 125  69  45  33  45  37  70 101  72  63  74  81 107 128 133
 102  95  59  45  52  45  41  24  34  46  48  28  22  39  32  29  46  91 131 143 146 148 112  69  64  77  82  94 111 126 130 105  78  53  54  65  63  83 119 147 154 163 152 135 151 175 188 196 197 198 189 176 158 142 140 145 147 146 168 152  81  68  62  61 113 190 129  40  61 128 145 135 130 116  97 119 140 133  77  49  47  57  54  75  97  88  73  93  91 104 122 132
  93  74  55  54  40  39  35  27  37  55  57  48  43  38  40  34  48  89 130 145 147 145 108  76  88  97 105 134 133 122  97  62  65  49  72  79  56 121 161 139 155 163 159 141 150 165 183 194 198 194 185 176 155 147 142 156 163 137 193 181 100  81  73  75 150 163 132  99  52  86 141 147 140 128 125 134 139 133  86  43  57  48  71 106 120 102  66  79  90 115 128 133
  86  88  75  47  37  40  33  27  26  40  45  45  56  39  23  27  51  94 134 147 151 142 113  99 110 117 130 133 112  76  49 141 124  63  61  67  68 155 207 149 141 170 164 144 159 164 179 192 201 201 188 176 158 151 148 161 155 143 159 159 146 149 139 125 139 125 116 113 111 123 134 142 147 147 142 137 146 135  85  49  46  49  81 116 132 112  70  81  94 115 128 134
 108  94  65  44  33  30  32  33  31  36  44  47  36  23  18  24  42  89 135 147 152 144 121 129 147 145 135 127 106  57 100 141 123  87  78  87 109 147 154 145 139 157 167 148 160 162 178 190 199 203 193 178 159 149 153 168 169 179 170 161 151 154 141 140 130 132 130 131 142 148 139 137 147 150 152 141 146 136  89  52  27  40  81 142 144 124  62  76  92 112 128 131
 111  93  57  26  28  40  26  34  41  43  36  34  36  35  28  29  40  96 136 151 159 148 137 143 154 157 145 145 127 111 132 119 115 132 153 157 166 164 160 168 176 176 170 156 159 162 176 189 199 202 193 180 162 146 154 163 168 170 164 157 160 166 162 163 153 144 140 150 160 157 151 145 147 157 156 147 145 138 100  46  32  23  53 122 142 130  61  78  88 104 122 133
 124 106  81  62  53  48  37  37  26  37  48  42  42  41  35  36  56 113 137 150 157 155 151 147 155 158 148 147 148 150 144 136 149 159 170 174 178 180 171 168 171 169 165 162 158 160 177 189 195 196 190 180 164 146 153 162 163 166 170 169 169 166 165 161 157 154 155 161 166 159 164 157 153 160 161 154 148 140  99  41  32  30  36  83 133 121  61  75  93 106 123 136
 122 110  99  93  79  52  40  30  28  39  60  49  43  47  41  42  65 116 134 148 152 155 157 158 160 158 153 160 164 164 159 152 158 164 173 175 174 177 172 169 172 170 168 169 156 160 179 186 193 196 189 180 170 150 149 166 173 169 173 180 177 172 174 170 163 163 165 170 169 164 168 166 161 165 167 156 146 138 101  41  30  38  41  50 118 131  64  79  93 108 124 134
 118 108  97  88  80  55  36  34  29  39  51  51  53  53  48  48  62 102 133 144 152 157 161 168 168 158 163 162 165 170 169 167 162 167 171 176 181 181 180 178 174 174 176 168 158 166 176 180 191 195 192 182 171 156 148 163 180 179 173 177 182 183 180 179 178 179 173 174 170 171 173 172 166 162 163 155 145 133  95  42  37  53  62  46 118 139  71  77  94 108 123 133
 113 107  98  87  80  49  34  37  34  39  51  59  56  57  50  45  59  96 137 145 151 157 162 170 167 159 165 167 168 168 175 178 177 179 183 187 187 185 183 182 180 183 179 166 159 170 176 180 190 195 194 183 169 164 152 156 180 180 183 180 179 185 187 185 185 180 174 176 174 176 176 175 173 162 158 155 144 132  89  47  44  59  79  52 101 142  70  76  94 107 120 130
 113 107  98  86  73  45  37  40  38  42  59  58  52  43  34  35  58  86 130 144 149 156 164 169 164 165 170 172 173 177 180 179 183 183 189 188 187 187 190 189 188 187 175 162 162 172 173 178 190 199 194 182 164 162 161 155 168 183 188 186 182 184 186 186 184 183 182 180 176 177 173 175 174 170 157 150 147 132  77  57  52  61  72  64  84 134  69  75  93 107 119 128
 113 107  94  83  75  50  39  36  31  33  50  52  44  40  34  49  54  82 121 139 146 154 164 166 165 171 173 176 175 178 181 180 183 188 191 190 193 188 196 194 190 185 173 163 166 171 172 175 188 197 192 180 165 158 164 164 162 175 183 188 186 184 183 185 186 186 184 181 181 178 172 175 176 169 162 152 142 130  83  58  58  67  50  65  88 128  64  78  96 104 118 128
 113 105  94  86  80  54  37  46  27  32  51  58  51  40  44  52  58  72 120 137 145 155 161 160 164 171 176 177 179 180 182 184 187 191 191 193 195 194 194 192 188 182 171 167 170 172 170 172 185 196 190 176 163 158 166 174 172 172 179 184 183 184 182 186 186 184 183 182 182 177 170 176 176 170 161 150 142 126  78  61  58  63  46  54  86  99  60  90 100 104 115 128
 114 106  93  84  78  63  39  33  27  28  53  67  79  67  51  42  54  72 119 138 146 155 153 160 168 175 174 174 178 183 185 185 186 190 194 195 195 195 192 189 185 174 171 174 173 171 170 173 184 193 187 178 162 159 162 176 182 181 182 181 183 183 183 188 186 185 184 187 183 182 181 176 172 167 160 152 138 119  62  62  64  63  47  52  97  92  66  92 104 110 117 129
 110 102  90  79  73  67  48  31  26  24  49  86 121  92  46  41  61  74 105 135 142 148 152 159 168 173 175 174 176 187 187 186 186 188 189 190 192 192 189 186 182 178 180 177 172 164 168 174 185 194 190 179 165 155 153 166 180 188 191 185 186 183 182 182 185 188 186 186 183 183 182 172 163 163 157 154 141 116  63  57  48  58  46  56 112 104  78  99 108 118 120 126
 103  97  86  75  67  62  56  42  39  35  56 115 122  90  42  59  68  72 105 135 136 147 151 158 170 171 176 175 177 184 184 186 185 187 188 191 193 192 190 186 183 185 181 172 163 161 166 174 183 191 190 182 171 158 147 153 165 183 192 195 195 188 185 184 185 186 185 187 186 184 178 170 163 163 159 141 132 112  59  44  51  48  45  63 127 114  87  98 109 121 126 130
  98  90  81  72  62  59  55  46  39  32  56 123 121  89  52  75  61  56  94 127 136 145 144 155 171 177 178 177 185 184 184 184 184 183 189 194 193 193 193 193 190 184 173 163 156 159 168 179 184 191 190 185 176 166 152 147 151 158 182 198 205 193 186 182 184 184 188 186 183 183 179 174 165 160 155 137 122 100  53  36  42  50  56  88 142 121  91 103 114 122 129 132
  95  87  77  67  60  57  55  46  44  32  38 118 136  79  56  82  51  38  83 118 132 141 148 155 168 176 173 176 185 184 183 182 184 189 193 191 194 194 197 199 192 175 160 162 155 164 173 182 189 194 191 187 179 172 162 149 157 148 167 187 199 205 195 185 187 185 185 183 185 184 177 172 168 150 142 136 108  91  53  33  42  59  81 128 153 121  94 112 118 122 128 132
  94  86  75  65  59  58  53  38  29  33  26 106 161  96  62  55  29  42  82 125 135 141 141 152 166 167 175 178 182 183 185 185 188 190 192 194 198 201 203 194 183 163 158 162 157 167 175 183 188 193 194 190 180 175 166 151 166 157 161 177 187 202 202 193 189 186 183 182 186 182 178 173 174 151 127 118 105  69  45  28  58  98 142 162 164 122  99 117 125 129 130 134
  93  89  76  67  61  58  54  49  34  31  23  90 167 117  51  35  32  44  67 111 135 134 131 154 162 165 171 177 180 185 189 191 188 190 196 199 200 206 198 185 179 165 168 172 160 165 175 182 193 205 202 191 184 179 162 154 178 167 154 175 182 191 201 199 190 189 188 184 184 181 178 171 168 153 128 117 106  72  40  54  96 139 172 174 170 128 102 122 133 131 131 134
  96  90  81  71  63  57  54  58  44  34  32  82 148 138  85  37  31  40  54  96 121 135 148 154 148 158 175 180 182 187 191 193 193 194 197 204 207 201 186 175 173 164 176 181 164 157 171 182 199 211 203 194 183 172 154 163 182 172 153 173 185 189 196 197 194 191 188 184 184 180 174 169 166 156 138 120 109  70  35  94 144 163 178 171 167 124 100 120 132 134 134 131
 104  98  86  75  65  59  56  55  47  42  47  81 149 162 129  53  27  37  46  83 106 131 148 145 134 153 174 180 184 189 190 192 193 194 199 206 204 194 183 184 172 163 178 184 172 153 150 167 181 186 188 185 168 155 148 162 166 161 150 172 192 189 193 196 194 187 181 186 183 181 174 171 159 148 134 129 107  67  48 111 165 173 175 166 138 102 100 116 128 135 136 131
 112 106  95  84  75  66  59  58  54  49  43  69 152 164 152  94  34  31  51  75  93 133 143 138 142 152 169 176 186 187 186 190 194 196 200 205 195 185 183 190 167 159 165 154 144 131 128 148 164 171 170 164 154 126 112 123 131 143 142 173 188 187 190 196 196 190 185 185 182 180 174 170 160 143 117 120 104  52  46  84 137 155 149 114  84  90 105 116 131 137 136 133
 120 116 107  96  88  77  67  58  54  53  42  54 126 155 154 140  94  33  38  68  95 125 131 126 140 153 169 179 184 184 188 193 194 195 200 198 189 184 193 190 167 143 152 143 137 116  86 105 146 146 146 144 109  77 103 148 155 136 144 173 179 189 189 191 192 191 187 187 181 179 175 168 158 144 129 112  84  48  44  47  61  74  65  59  73  92 105 119 134 137 138 135
 127 124 116 106  98  87  76  64  57  55  50  41  64 123 144 150 130  40  39  69  72 112 111 117 139 157 169 179 184 185 191 192 193 196 194 188 183 191 195 185 175 151 143 157 159 131  88  78 100 129 130 118  85  65  86 117 134 148 158 166 172 184 189 184 188 191 189 186 181 178 175 168 157 136 130 106  66  44  46  54  52  55  50  58  75  89 104 120 132 135 136 137
 130 127 122 111 103  93  81  67  60  58  53  48  45  57  79  86  65  38  43  53  75  92 105 131 137 151 165 177 183 184 187 188 190 189 180 172 178 189 184 175 160 157 154 143 105  93  94  74 117 137 133 115 111  74  86 117 124 135 150 161 166 173 179 178 180 185 188 184 183 179 171 165 148 129 125 100  66  43  47  49  53  55  57  57  70  85 100 119 132 133 137 137
 131 129 122 113 106  96  82  69  62  61  57  55  55  53  50  46  41  37  31  49  71  89  97 113 132 150 166 177 179 176 183 186 186 171 153 168 179 177 177 169 156 149 142 134 108 100  96 111 147 135 119 137 109  98  86  95 121 135 137 146 157 160 167 163 154 165 182 185 183 178 169 155 142 109 100  84  64  43  52  53  52  54  53  56  65  82 100 118 128 132 137 137
 132 127 121 119 111  99  84  70  62  59  56  56  55  55  53  50  43  34  34  58  61  83  89 107 124 148 165 176 174 178 181 178 156 138 142 162 169 170 164 156 145 148 135 120 123 115 112 152 160 124  99 131 140 121 102 104 113 111 130 137 147 149 150 151 130 129 176 182 180 178 167 148 134 103  71  66  52  45  51  55  53  53  53  56  67  87 106 120 128 132 137 139
 132 126 123 122 114 102  89  72  63  56  55  55  55  56  56  52  46  32  44  54  56  81  87  88 116 135 159 170 172 177 173 155 112 120 139 154 151 149 144 139 145 135 120 120 101 116 136 153 173 102  76 129 137 114 106 114 124 108 121 129 139 145 137 141 126  94 142 188 181 172 164 149 117 100  89  67  43  41  41  48  51  53  52  58  75  95 110 125 135 138 143 140
 130 128 126 124 118 109  96  81  67  56  53  53  51  54  50  47  45  40  44  41  62  77  80  82 115 137 148 158 172 168 160 108  89 115 144 138 133 138 136 134 125 102 115 108 106 104 134 121 141  94  74  88 109 110 129 122  98  98 115 131 131 138 131 122 119  90  91 152 180 166 159 136 108  81  85  60  45  51  46  48  50  52  51  60  81  98 114 131 140 139 143 139
 131 131 131 129 123 115 103  91  75  59  53  54  48  43  43  42  45  38  41  38  48  68  83  87 120 119 139 155 170 158 115  81 109 131 121 118 128 123 130 133 108 101  93 111 106 110 122 121 101  95  86  80 120 119 130 122  95  99 100 113 127 119 116 114 109 104  86 100 163 172 160 127  88  76  65  46  40  49  49  48  50  50  50  63  84 101 120 133 141 140 142 140
 131 131 132 129 125 118 106  92  80  64  56  55  50  41  31  34  36  26  31  37  36  60  67  91 101 101 135 142 162 159  92  82 111 116 117 119 113 114 123 115 102 118 101 105  96 109 109 112 107  95 102 107 127 118 119 136 109  95  97 112 104 105 110 121 115 111  97  87 152 172 158 137  90  62  62  50  45  48  43  46  51  51  51  63  84 101 119 133 141 140 139 139
 131 132 131 129 125 117 105  90  79  67  56  53  50  46  37  38  36  27  25  30  43  53  62  74  76  89 120 119 154 147  78  89 100 104 101 115 107 111 113 110 115 117 103  94 106 116 114 122 117 103 106 129 137  99 120 133 119 111 107 101  94  97 106 109 110  97  89  81 105 162 150 130  93  68  53  51  42  47  48  48  51  51  52  64  81 100 121 133 140 139 141 140
 131 132 131 128 124 116 105  90  79  64  54  50  43  45  42  47  43  32  30  38  51  50  78  70  67  84  93 135 155 127  73  89 115 124 108 101  94 102 103 113 119 101 116 113 111 124 137 158 126 125 137 160 143 118 125 139 134 128 116 108 101  98 118  98 100 101  93  73 101 128 124  94  61  61  57  45  48  46  46  50  53  52  52  63  80 100 120 132 139 137 140 140
 134 134 131 126 124 118 109  98  83  65  54  50  41  40  43  47  44  35  33  33  40  50  75  80  76  62  85 128 145 129  89 101 118 114  95  77  79  81  96 115 118 103 123 129 124 135 134 147 155 158 161 155 144 143 135 141 135 123 130 131 123 106 103  90  96 120 111  74 105 121 111  80  51  58  59  44  45  46  46  50  52  52  53  62  81 102 119 133 139 138 138 139
 134 132 130 127 127 121 113 104  87  71  60  54  48  44  45  44  43  39  29  36  41  43  61  73  63  59  83 115 126 122  99  98 127 115  78  73  77  72  80 107 112 106 108 115 108 116 124 124 131 136 133 130 137 136 129 119 107  99 111 112 103 102  89  95 103 105 103  89 117 121 114  68  64  63  49  53  50  50  49  50  53  52  53  65  87 109 124 134 138 139 139 140
 131 130 130 128 125 124 119 110  97  82  67  57  51  46  43  46  48  42  31  34  30  42  54  72  69  59  72  96 135 121 103  98 108  98  96 109 126 115  93 100 100  93 100 110 120 125 129 126 119 122 124 124 126 120 114 111 112 107 114 119 101 107  87  98  99 104 105  85 119 117  87  52  58  63  55  42  43  53  51  51  53  53  59  77  99 117 131 139 140 139 139 140
 130 130 130 127 127 127 124 115 102  88  71  61  56  47  49  50  53  46  27  26  29  40  52  69  68  80  89  84 113 111  96 113  96  80 103 131 147 146 133 131 137 129 139 150 155 165 170 170 162 163 168 170 155 143 146 154 153 154 155 149 138 131 122  93 103  97 104  98 117 111  72  51  53  51  53  41  44  54  58  60  65  68  83  99 113 125 136 143 141 138 141 140
 131 130 129 129 128 127 123 116 105  93  80  70  61  51  46  47  42  37  28  29  36  34  44  55  62  82  76  63  90 111 106 103  75  73 100 128 144 147 147 147 157 160 151 164 169 173 173 171 169 170 166 165 165 166 175 178 166 154 146 149 144 125 137 122 108  90  93 104 101  85  58  63  56  50  49  44  52  59  70  77  88  99 111 120 128 134 140 143 141 139 141 139
 130 129 131 130 128 128 125 112  96 100  93  81  70  53  37  30  27  30  33  35  26  26  46  43  69  76  51  47  72  89  74  80  66  63  88 103 127 149 150 140 147 147 157 172 183 183 178 180 181 183 183 182 180 178 174 159 149 136 140 145 139 126 120 105  87  67  73  84  85  64  54  62  51  47  49  39  50  67  79  93 110 122 127 130 135 139 141 139 139 139 140 139
 130 132 133 128 129 130 127 102  83 105 103  95  83  68  47  26  31  41  39  31  30  36  29  38  48  55  47  42  55  57  46  53  49  73  76  96 134 146 142 134 131 141 137 139 154 152 136 142 148 156 153 149 147 140 141 134 135 134 136 135 129 121 104  86  74  52  52  71  57  41  46  52  54  55  36  38  50  70  87 104 122 132 135 137 137 139 141 138 143 143 140 139
 131 132 131 128 131 132 123  85  79 112 112 107 100  91  64  33  40  51  43  34  36  23  27  43  43  43  56  56  54  34  38  58  71  70  55  80 116 127 148 130 122 121 115 124 121 110 110 118 119 130 125 117 120 128 131 129 132 128 128 124 122 112  83  79  64  53  54  53  47  44  49  53  47  57  35  38  52  72  90 107 123 132 135 139 140 141 143 141 145 144 136 138
 131 131 129 129 132 134 113  71  79 118 123 120 116 111  87  45  48  64  46  35  29  30  34  31  35  42  58  55  65  44  37  46  53  49  60  74  98 130 132 117  96 109 113 111 102 114 113 110 121 115 114 115 110 116 123 120 116 127 142 117 111 103  80  54  64  55  42  40  31  45  48  48  57  38  34  42  53  69  89 105 120 132 135 138 139 139 142 144 144 141 136 139
 128 129 128 128 130 130 101  72  83 120 130 128 127 125 102  56  52  67  49  35  40  29  30  32  36  45  36  47  64  47  36  42  37  49  55  57  72  92 106 126 124 107 110 105 113 109  95 105 114 102  96 106 107 100 110 110 127 129 126 114  83  87  64  51  44  48  33  37  32  34  38  51  62  30  33  44  55  68  87 103 117 130 138 139 137 138 141 145 146 141 139 141
 124 126 126 126 129 120  95  89  83 119 135 132 130 126 103  58  55  69  54  36  52  43  33  36  30  31  31  43  47  56  48  50  45  68  59  47  48  68 118 134 124 130 127 116 118 105 109 104 107 101  93  99 103 115 124 132 139 122  96  93  80  65  50  57  37  37  29  34  33  30  32  36  39  32  36  52  58  71  88 103 120 132 139 138 137 138 143 144 143 141 139 141
 117 126 128 127 128 107 101 104  80 112 134 135 129 117  97  54  46  50  43  39  52  48  26  22  29  40  28  32  53  52  37  36  43  46  36  45  49  85 111 108 126 144 138 145 137 131 115 123 112 114 120 116 120 129 132 143 138 105  76  77  65  68  58  44  34  32  33  18  32  31  35  43  29  27  50  49  57  74  90 107 120 132 138 135 136 139 142 141 139 141 140 140
 103 123 129 130 125  96 110 111  77 107 133 132 123 109  86  47  38  45  40  46  52  50  26  25  30  35  26  27  47  30  46  35  36  40  36  42  60  71  76  99 115 129 162 165 156 142 129 133 130 133 133 144 155 155 150 146 133 109  84  72  68  52  54  45  37  28  23  25  33  39  26  31  28  34  54  53  63  72  92 113 123 132 141 137 138 143 144 143 140 142 142 138
  84 112 129 132 113  95 119 112  77 103 134 129 119 104  81  45  45  59  51  43  50  46  32  29  27  19  22  29  36  30  40  37  41  29  33  46  49  44  66  73  98 116 141 154 148 147 147 147 153 170 154 158 155 169 161 146 123  98  75  74  76  42  38  69  50  27  19  40  49  37  33  27  27  48  62  55  63  81 100 116 127 136 141 140 142 144 145 143 141 141 141 138
  72 100 127 125  99 106 130 118  78  99 132 128 116 103  83  45  47  65  57  42  56  55  40  35  26  23  23  35  29  28  25  24  22  24  34  48  79  66  59  73  89 120 129 133 137 161 159 150 165 166 169 163 168 161 150 149 124  79  64  60  62  44  40  52  43  21  26  23  41  24  25  28  38  57  69  57  64  93 107 116 126 137 140 143 142 140 141 142 139 137 136 138
  73  84 120 113  95 123 136 123  82  92 127 126 115 105  86  47  52  77  55  34  66  67  53  46  41  32  19  29  27  22  24  21  25  29  29  69  71  60  85  78  94 112 126 150 154 165 163 168 157 164 182 182 183 159 128 141 121  84  68  57  69  42  50  47  38  22  30  19  22  17  25  29  50  70  67  62  34  89 120 126 139 140 139 138 143 165 182 185 180 167 149 140
  87  76 102  99 104 135 137 125  85  87 124 129 120 111  91  51  56  76  29  38  70  80  65  56  37  29  17  18  18  22  25  28  27  16  32  47  40  63  83  74  77  83 122 135 147 155 149 175 179 183 187 160 169 167 125 134 114  88  79  74  90  69  49  56  31  19  21  18  22  21  30  39  47  70  76  60  14  39 124 183 186 140 133 147 194 225 229 226 230 227 180 134
 106  81  76  87 118 135 134 126  88  84 125 134 125 117 101  56  63  51  10  38  78  87  83  72  44  28  22  16  23  29  20  21  24  20  29  26  49  66  80  75  59  70 105 129 131 149 174 186 183 183 185 151 139 163 137 134 111  72  81  66  81  67  39  51  21  17  15  15  20  22  35  49  50  69  89  60  11   7  51 206 197 127 142 197 234 200 151 156 197 232 181 129
 119  94  66  90 128 133 134 129  91  79 121 134 128 122 103  62  49  26  13  36  95 100  90  70  64  46  36  27  20  20  19  18  13  13  14  24  46  63  80  63  68  76 113 145 150 160 182 184 186 183 190 182 149 149 132 114  86  66  69  67  68  41  32  21  13  18  16  22  28  35  48  85  70  71  80  52  11  10  10 114 185 124 171 231 209 121 116 132 147 207 178 131
 125 110  85 107 129 131 134 129  96  73 103 123 127 125  99  48  27  18  14  36  93 100 101  81  93  61  50  34  22  14  18  18  15  10  14  27  42  58  68  74  69  72  97 132 146 147 177 176 171 167 175 167 146 106 103 115  89  62  59  57  58  64  38  22  15  23  17  23  30  41  58  76  73  77  85  54  10   9  10  15 104 168 201 235 166 116 147 145 140 180 158 138
 127 123 115 123 128 130 133 131 117 108 113 122 130 125  64  22  24  17  14  34  95 110  99  86  97  97  65  51  36  24  14  17  21  17  14  14  16  40  60  81  63  58  80 120 130 152 165 156 145 157 159 164 137 101  91  95  75  72  67  52  44  57  38  20  17  15  18  21  41  62  71  83  85  92  86  60  11   9  12   9  23 148 228 229 150 130 145 141 138 145 126 154
 129 128 130 131 130 130 133 132 133 134 134 134 134  79  18  21  21  17  14  27  90 123 107  97  85 101  82  52  48  36  15  11  16  20  14  11  14  26  43  61  63  56  80 103 130 142 143 127 113 149 144 136 130 109  92  77  64  53  51  47  29  31  19  20  19  19  21  36  66  77  82  79  83  88  88  74  13   8  11  13  10  49 211 235 151 137 144 142 144 142 142 172
 129 131 132 131 131 133 133 133 134 133 131 136 107  26  20  23  20  18  15  22  82 123 105 103  94  95  91  57  43  46  29  15  16  19  15  18  22  20  39  39  57  51  66  90 112 117 113  96 117 137 122 125 120 106  78  75  55  50  44  39  26  25  17  15  17  28  31  52  80  90  94  59  74  96 105  89  19   7  10  11  13  13  82 176 150 143 146 173 201 205 201 192
 130 132 132 131 133 135 133 132 133 132 131 127  50  21  26  20  19  19  16  15  66 122 117 101  93 104  89  84  60  40  46  28  13  18  18  16  20  12  17  25  39  52  43  60  94 101  83  99 131 108  95 108 108  90  70  69  48  42  28  39  23  16  23  19  16  30  40  82  98  99 118  72  72  96 111  89  19   6  10  10  13  16  12  32  63  99 140 173 215 241 205 163
 132 132 132 133 134 134 132 132 133 132 136  89  25  30  29  21  15  19  18  14  46 122 128 120 116 110 118  87  87  71  68  50  22  21  20  25  20  15  13  16  19  31  30  34  58  57  72  83  91  70  66  76  76  58  49  44  40  29  18  19  18  23  21  18  31  43  64 106 110  99 111  75  95 102  94  78  26   8   8  11  13  14  18  18  23  23  55 105 193 246 195 152
 134 133 133 134 134 134 133 135 136 136 120  42  29  30  27  18  14  19  18  17  22 104 126 130 112 121 125  95 116  75  73  53  49  29  28  24  13  20  21  15  11  21  29  25  29  41  51  44  41  43  43  39  34  49  42  29  20   9  17  18  17  24  24  30  28  49  82 119 105 109 116  96 105  97 108  97  31   8   9  11  15  13  16  18  22  25  18  26  73 116 104 104
 119 117 115 115 114 113 112 113 112 111  66  25  32  28  27  18  13  18  18  19  12  67 134 138 119 132 119 112 124  81  92  90  63  51  33  23  21  16  22  27  11  13  22  18  26  34  25  34  28  28  25  23  25  36  28  18   9  19  30  22  30  25  31  39  46  71  95 114 115 120 107  95 105 116 113 100  34   7   9  11  13  13  15  19  19  23  22  20  19  17  16  21
  84  83  84  84  83  82  83  85  87  73  31  27  29  31  29  21  11  16  20  18  17  28 117 143 130 129 120 108 120  90  92 117  71  85  55  31  24  19  18  31  27  16  13  12  18  12  16  23  14  12  20  12  18  16  11  15  24  24  30  39  44  42  34  43  62  99 106 109 140 116 106 109 112 127 111 105  58   9  10  11  12  13  14  17  18  21  24  20  20  21  25  26
 106 108 113 113 114 115 118 119 101  45  28  28  27  31  31  19  12  15  19  18  18  12  66 143 137 143 120 114 124  86 103 115  72  92  95  80  70  34  28  27  36  34  28  22  17  26  28  21  21  30  23  27  33  22  27  45  44  48  65  57  43  31  37  70  73 121 106 132 148 123  91 109 120 116 104 120  76  12   9  10  13  13  13  15  17  20  23  26  23  23  23  26
 131 132 134 133 133 134 137 126  56  22  32  28  28  31  31  25  12  14  19  18  17  17  21 109 149 154 124 118 126  92 105 122  85  85  92  87  81  75  59  51  45  39  41  41  44  55  45  41  38  39  36  36  33  47  61  59  67  77  60  38  36  45  68  87  85 109  96 131 151 130  97 115 126 118 111 111  89  24   6  10  13  12  14  14  17  19  19  27  30  27  25  23
