P2
# Generated by OpenCV 4.2.0
92 112
255
 153 153 154 158 159 162 165 170 174 175 171 171 175 180 190 198 204 209 213 216 218 218 215 212 206 195 185 173 169 161 153 152 157 156 149 143 122 103  94  86  98  91 101  90  90  93  91 104  83  80 109 110 121 105  80  65  98 118 115  63  71  89 128 141 142 145 146 148 148 145 140 133 122 114 101  91  82  79  78  81  89  92  92  88  81  73  63  55  53  54  59  69
 154 153 155 156 156 157 157 159 161 162 161 161 166 174 181 191 199 205 210 213 212 211 208 205 197 192 182 172 165 158 146 130 118 107  80  71  73  72  82  96 101 109 108 107 106  96 110 103  84  85  80  74  73  80  70  59  92 136  97 100  92  88 106 136 143 144 146 148 147 144 140 133 124 114 101  89  81  78  76  80  88  94  98  95  89  81  71  63  59  58  62  71
 154 155 157 156 155 155 153 151 149 147 147 152 159 165 177 188 194 198 202 204 202 200 197 194 188 185 180 175 164 139  98  62  58  73  71  71  75  82  83  83 117 129 118 124 112 125 118  99 105  99  69  77  77  77  55  49 119  92  80 149  84  85  87 111 140 144 146 147 146 144 141 134 124 113 101  89  80  76  74  78  88  95 100 102  97  90  82  71  66  64  66  72
 155 156 158 158 156 154 153 151 146 140 141 147 154 162 173 181 185 192 195 195 190 185 179 174 176 174 175 154 110  79  55  60  66  63  68  87  88  94 118 132 118 136 129 121 115 129 107  96 110  94  77  86  72  65  54  59  83  59  79 118 107 103  94  90 127 144 145 145 146 146 142 135 126 114 103  93  84  76  73  77  87  96 101 106 103  97  90  80  74  73  71  73
 155 156 160 158 156 154 151 150 146 140 139 145 153 162 168 174 177 181 182 179 176 168 161 155 157 166 132  72  51  69  73  77  82  99 113 126 152 131 117 143 140 140 136 128 123 133  95 101  90  89  86  90  67  63  63  67  77  60  71 100 112 108  89 107 109 132 145 145 147 147 143 137 129 119 109  99  90  83  79  77  85  96 103 108 109 105  99  92  83  80  77  75
 157 159 160 158 155 153 151 147 144 141 146 151 155 160 166 169 171 170 167 161 159 155 148 143 145 113  50  57  73  77  90 102 121 147 153 146 164 159 137 124 137 138 138 121 114 100  88  96  94  93 105  83  77  69  66  59  83  69  61  86 110 114 100 105 106  97 125 146 150 148 144 139 131 125 117 107  97  91  88  84  83  95 104 111 113 111 107 100  92  86  82  80
 159 159 160 158 154 153 151 148 147 148 152 153 154 159 163 166 167 162 157 150 145 136 132 143 101  47  59  76  72  84 113 136 151 161 168 158 162 174 149 135 119 126 127 105 103  91  92 100 105 104 119  83  82  70  72  76  87  75  70  87 124 139 119 111 109  97  85 107 142 152 148 141 135 129 122 114 105 100  97  94  88  89 103 110 115 116 114 108 102  95  90  87
 158 160 160 159 159 155 152 152 155 155 154 153 152 154 157 160 158 154 148 140 130 120 126  92  41  58  75  84 107 142 153 163 171 168 175 177 171 187 171 147 133 138 130  99  97 109 102 110 123 119 130 104  94  76  81  94  83  73  86  90 119 155 148 150 114  99 103  84  95 111 126 141 141 134 128 122 114 107 104 104  96  90  97 110 117 120 121 116 111 105  97  91
 159 162 161 162 161 158 155 157 157 156 155 152 152 152 151 151 149 143 136 129 123 117  76  38  58  70  86 126 159 171 179 184 192 189 188 197 197 206 195 164 153 155 140 101  99 127 120 131 139 135 143 123 108 106  96 104  89  85  93  92 118 153 173 179 159 133 110  88  91  97  92 109 143 141 137 129 122 115 110 110 103  95  93 104 115 120 125 123 118 112 104  97
 160 162 162 162 161 159 159 161 159 157 155 151 150 149 147 141 137 131 126 125 121  75  34  53  64  95 131 165 180 186 194 196 195 203 210 204 201 211 205 184 168 172 160 116 109 143 132 154 153 157 156 142 124 124 113 108 123 101  96 105 121 156 182 185 190 183 155 115  81  83  85  70 104 145 142 136 129 122 116 110 106  96  92  99 111 120 125 126 124 119 111 102
 158 160 160 160 158 157 159 162 160 157 154 150 148 146 140 130 125 119 119 117  69  39  56  66  95 141 169 177 193 207 204 200 205 210 214 216 200 203 206 198 188 189 173 142 123 149 150 173 165 176 178 167 151 147 146 124 137 138 119 132 134 169 187 196 199 198 195 156 104  94  97  88  58 107 147 141 133 126 118 113 108  95  87  92 105 115 123 126 126 123 117 110
 155 156 156 157 157 156 159 157 157 155 150 149 146 140 128 123 115 112 109  63  38  54  69  99 149 173 188 198 202 208 209 203 205 206 212 213 205 198 208 209 207 198 187 174 156 164 170 199 186 184 195 188 173 170 174 171 157 171 156 163 175 192 203 205 206 206 198 196 173 115  91  92  67  67 122 146 138 127 119 114 107  93  82  85  98 110 121 127 128 126 121 116
 150 151 152 154 152 153 156 155 154 152 148 145 140 129 117 113 111 109  62  36  58  84  98 151 185 191 197 200 207 209 207 201 205 210 209 207 211 205 208 212 214 200 196 197 191 185 188 209 206 196 201 204 198 191 185 197 182 190 187 191 208 207 211 213 209 203 203 202 198 170 114  89  78  54  85 135 140 129 121 114 107  89  74  74  88 104 114 124 128 128 126 122
 144 145 148 148 146 146 148 148 146 144 137 135 129 118 107 104  97  70  46  66  72  97 125 175 194 203 206 208 209 209 201 204 211 215 214 213 213 214 207 208 212 208 206 208 209 205 201 210 213 208 204 211 208 204 200 202 199 207 208 205 210 215 217 215 208 202 203 204 201 197 174  97  78  57  46  93 122 129 123 115 104  84  65  61  77  92 106 117 125 130 129 127
 137 138 138 139 135 135 138 138 135 133 128 125 118 110 104  93  53  35  54  67  75 117 170 193 201 206 207 207 207 207 205 211 211 211 214 215 214 214 210 205 208 217 218 212 214 218 205 212 211 213 209 215 214 210 212 208 209 212 212 208 213 215 217 219 214 210 206 202 204 197 197 156  86  72  43  67 108 109 115 111 101  81  56  51  66  83  98 111 122 129 132 131
 128 127 126 125 122 123 125 126 124 121 119 113 109 106  91  57  37  46  52  64 104 156 190 198 194 202 202 206 212 214 211 212 210 212 213 213 210 211 215 215 212 214 218 215 213 218 213 216 210 215 211 212 217 216 217 214 216 212 212 210 217 217 219 219 219 214 211 205 200 199 192 198 145  73  66  47  82 114 116 109 102  78  51  42  56  72  88 103 117 125 130 132
 116 115 114 112 110 110 113 114 114 112 108 103 101  84  50  48  47  48  63  89 133 167 179 191 195 202 207 209 212 214 211 211 210 212 213 211 210 215 218 215 214 214 216 216 214 215 212 211 209 214 218 216 210 212 219 214 217 215 216 215 218 219 219 218 216 216 215 209 199 197 193 194 195 118  72  54  55  84 119 112  94  71  43  35  48  63  79  95 110 120 127 131
 103 102 100  99  97  96  97 101 101 100  97  92  83  47  40  41  41  53  73 111 155 188 189 202 206 202 207 208 209 216 215 211 212 211 214 215 216 218 219 216 216 216 214 215 214 214 215 214 214 211 217 218 215 214 215 214 216 217 215 217 216 218 217 217 216 215 215 212 205 196 193 192 198 180  95  74  49  77 104 116  96  67  40  27  39  57  76  96 109 119 125 131
 100  98  94  93  91  86  85  86  86  87  87  86  51  29  27  43  51  66  96 129 180 194 199 207 209 201 203 207 208 213 212 209 212 212 216 215 215 217 217 216 216 216 215 216 216 219 219 215 216 213 210 218 218 214 210 212 216 217 216 217 215 215 217 216 217 215 215 213 210 199 193 190 186 196 153  83  61  54  90 100  97  64  33  24  36  60  81  97 109 120 129 135
 106 106 104 100  96  92  89  87  87  87  85  57  31  27  30  37  56  81 111 165 188 192 200 208 205 201 206 208 209 211 208 207 212 214 214 216 213 212 214 213 217 218 215 215 217 216 216 216 217 213 210 216 217 214 212 211 215 214 215 215 215 215 213 215 216 214 213 213 210 201 195 190 186 189 185 116  73  46  53  89  94  62  33  30  47  66  84 101 114 125 131 137
 120 118 115 110 107 103 100  98  96  98  58  45  39  31  32  53  61  80 135 188 196 195 204 208 200 203 207 210 209 208 211 211 212 212 209 212 213 211 212 213 213 215 212 215 216 215 217 215 215 215 211 213 217 214 213 211 212 213 213 213 213 214 212 212 212 212 213 213 204 202 196 192 189 187 187 160  84  49  28  79 106  77  56  54  63  72  84 105 119 129 133 139
 132 129 126 124 121 117 114 111 114  76  46  57  35  43  58  54  64 100 157 196 193 195 205 200 197 204 207 209 209 210 210 209 208 208 207 207 211 207 209 207 209 212 209 211 211 213 213 211 213 215 212 213 216 212 209 207 209 212 213 213 211 211 210 209 209 209 211 212 205 198 197 196 190 186 185 182 130  63  32  54 112 102  86  82  83  87 100 114 125 135 142 145
 143 141 138 135 132 130 127 129 107  37  59  35  36  49  58  53  64 123 176 190 194 198 199 192 197 203 208 206 207 208 207 206 205 207 207 206 207 206 209 210 208 206 207 210 211 214 213 211 212 213 212 215 213 210 209 210 210 210 206 208 210 209 209 208 209 209 211 210 205 195 193 196 190 184 185 185 164  94  37  33  95 120 108 108 105 107 115 122 132 140 144 147
 152 152 149 147 145 143 141 136  54  25  31  27  47  48  47  54  80 129 175 192 198 199 195 187 195 203 205 204 203 203 204 204 203 205 207 204 204 207 206 207 205 206 207 209 210 210 211 208 210 211 213 213 212 208 210 211 210 206 206 207 207 208 212 208 207 206 209 208 205 197 190 194 195 185 184 182 179 127  62  28  64 124 127 122 122 121 124 129 135 138 141 145
 161 160 159 158 153 150 152  94  13  20  24  38  42  30  52  66  82 131 178 188 197 199 191 187 194 196 196 202 201 201 199 201 201 203 203 201 200 205 203 205 205 208 209 208 208 209 206 208 209 208 211 208 209 209 212 207 205 206 208 207 204 206 210 206 200 204 207 208 205 199 192 194 196 187 185 181 178 159  93  36  32 112 145 137 134 133 134 135 137 138 138 140
 167 166 164 163 160 153 119  68  66  12  46  49  45  46  62  57  83 144 181 187 196 199 191 183 189 192 198 200 200 200 197 198 200 198 196 201 201 200 201 202 204 206 204 204 208 210 205 207 209 208 206 206 206 208 211 206 205 207 207 205 204 199 204 203 200 205 206 206 205 201 194 192 195 191 187 183 171 174 115  50  23  77 155 149 146 143 141 141 138 136 136 138
 167 166 166 163 162 152 105  99  52  32  58  57  55  56  55  71  93 149 174 188 196 194 184 182 183 191 194 194 195 195 198 196 196 196 197 198 197 197 199 202 202 202 205 207 208 209 209 207 208 206 209 207 206 209 211 208 207 206 202 201 200 201 202 203 204 205 202 202 202 199 193 194 197 194 188 184 169 173 143  68  27  19 119 166 153 149 144 140 137 135 136 137
 166 165 164 163 161 148 133  90  64  57  46  58  40  37  48  66 100 150 176 190 193 193 183 178 177 187 189 192 194 193 197 198 196 196 198 197 195 195 199 203 202 200 205 207 208 208 206 206 208 207 209 210 209 210 210 208 205 203 204 204 201 202 200 203 203 201 200 199 196 196 192 193 195 194 190 184 169 168 166  91  36  13  64 167 160 152 147 145 140 137 136 135
 165 165 164 162 162 157 148 116  90  32  37  36  34  27  47  66 110 154 177 187 188 189 183 175 171 181 191 194 194 194 195 195 195 197 197 194 195 196 198 199 199 200 204 206 209 206 206 208 209 209 205 207 209 209 209 209 203 203 202 204 204 200 202 201 199 199 197 198 194 193 190 194 199 192 189 184 170 162 171 116  47  24  32 147 165 155 151 148 144 142 139 137
 166 165 164 163 163 159 159 129  68  13  28  31  18  27  41  74 119 160 176 180 187 186 183 176 169 177 182 189 190 190 192 193 196 198 198 191 196 194 196 194 196 200 202 207 211 209 208 208 209 207 203 205 208 207 208 208 201 203 201 204 203 201 203 201 196 199 197 195 195 191 191 195 195 190 186 184 168 158 172 133  61  25  39 150 163 157 155 150 146 143 141 141
 167 166 165 164 164 164 163 135  64   3  15  24  22  34  41  72 117 161 171 178 183 181 179 173 175 171 174 182 191 192 192 191 195 200 197 194 194 195 198 193 197 198 199 205 211 209 209 210 209 210 208 207 206 205 208 206 205 204 202 199 201 201 197 198 194 195 195 195 193 195 193 193 194 190 188 180 169 157 166 142  66  33  38 151 167 159 158 156 153 150 149 148
 167 167 166 166 165 164 161 164  90   2   5  27  20  32  35  55 116 150 171 179 178 176 175 169 167 167 171 179 185 189 192 191 189 192 192 194 194 197 197 195 194 200 201 206 210 210 210 210 210 209 210 208 206 205 206 204 206 201 201 200 204 202 198 200 201 199 201 199 195 195 189 191 194 192 192 182 169 155 162 147  77  42  18 114 173 163 162 160 158 155 156 155
 168 168 168 168 166 165 164 165  94  24  24  25  27  37  34  59 118 152 169 176 171 175 175 172 167 170 170 175 183 183 188 192 191 189 196 196 197 197 193 196 196 199 198 204 207 206 206 207 207 210 210 208 205 206 208 205 201 199 200 202 202 202 202 201 200 198 197 193 193 193 192 192 190 188 191 185 170 156 159 150  72  25  31 100 173 166 164 163 161 160 159 158
 169 170 169 170 168 167 165 168 109  36  33  23  46  40  37  80 117 150 167 170 173 172 172 171 174 169 172 174 180 187 191 194 193 192 194 193 194 197 197 195 197 201 201 206 208 208 208 211 212 209 205 206 205 206 206 204 200 202 201 203 203 204 200 197 197 197 194 195 197 197 193 193 193 189 190 185 173 159 156 149  79  47  81 136 171 168 167 165 164 165 164 163
 170 169 169 169 169 168 168 174 128  36  27  32  49  40  56  93 113 128 157 164 168 165 170 172 172 171 173 178 176 184 188 193 195 194 190 195 196 196 200 196 197 203 207 209 211 207 202 206 205 205 201 205 206 201 201 203 207 207 202 201 200 200 198 195 199 200 197 197 196 191 188 190 191 182 187 183 170 159 155 145  83  60  89 148 169 169 169 168 168 167 167 168
 171 170 170 170 170 169 169 176 125  31  19  34  58  43  55  78  81 112 147 155 153 158 164 173 173 174 173 176 178 180 178 183 190 194 191 192 192 195 196 198 196 201 202 202 207 206 204 205 204 207 208 208 207 202 202 205 206 204 204 202 201 204 202 200 204 204 202 200 192 188 191 194 194 184 179 176 168 158 156 143  82  51  85 161 173 170 169 168 168 169 169 169
 172 171 171 171 170 170 170 175 139  37  12  51  57  39  50  58  72 106 146 151 145 160 160 173 166 169 181 179 183 184 183 188 191 192 189 187 192 191 191 195 196 197 198 203 209 206 203 206 207 207 207 205 206 205 206 208 202 203 202 201 205 204 202 203 203 203 203 201 197 194 193 199 197 191 183 174 165 158 153 134  72  39  92 170 173 172 170 170 169 170 170 170
 172 171 171 171 172 171 170 171 149  50  13  51  49  34  35  52  70 107 131 143 146 158 156 161 167 172 179 181 181 185 186 187 189 188 187 188 193 197 197 198 201 205 205 207 210 207 204 203 208 208 208 207 205 204 208 208 205 203 203 203 203 203 201 200 199 202 202 199 197 193 190 193 195 192 186 176 168 160 151 122  56  33  91 175 173 172 171 172 172 171 171 171
 172 172 172 172 173 172 171 171 147  53  26  48  38  24  42  48  69  99 117 142 141 154 158 164 173 173 178 183 181 181 184 186 191 193 196 195 193 193 193 195 200 203 202 210 210 210 209 209 207 209 207 205 205 202 204 208 207 202 204 203 202 202 200 202 203 199 201 198 196 196 195 193 192 191 190 179 171 159 152 119  47  30 108 177 172 172 172 172 173 173 173 173
 172 173 173 172 172 172 171 174 148  53  34  41  51  30  44  41  65  96 117 131 136 155 163 168 174 173 174 179 177 182 190 193 191 192 195 194 193 190 192 198 198 200 198 203 209 208 215 212 210 208 206 205 207 199 201 210 206 196 198 202 205 208 203 199 199 197 196 190 194 195 198 196 196 193 188 180 173 157 152 112  36  34 133 173 171 173 172 174 174 174 174 174
 174 173 174 173 172 172 171 171 157  78  24  47  53  43  32  37  69  97 113 128 137 148 163 172 176 176 174 181 179 186 188 193 193 193 193 196 193 188 194 197 196 195 195 197 205 210 218 214 211 206 206 204 206 198 202 209 206 193 188 199 205 206 201 193 192 193 189 185 192 192 192 193 196 193 191 183 173 160 153 102  19  41 148 170 172 173 173 174 174 174 174 175
 173 173 174 173 173 173 172 173 164  92  40  50  42  41  21  23  70  94 104 119 138 149 161 167 173 178 172 179 178 185 191 193 193 196 197 195 191 184 188 191 192 192 191 196 199 202 208 206 210 213 209 207 204 193 196 212 205 193 192 192 202 204 194 187 184 184 188 191 191 192 190 187 190 187 190 187 177 160 154 104  15  67 153 172 173 175 174 174 174 174 174 174
 170 171 172 173 174 174 173 172 178 113  43  52  44  25  15  28  62 102  94 109 134 153 159 167 172 175 176 180 182 186 193 192 193 196 197 194 192 192 193 190 191 190 187 193 191 193 199 197 196 208 207 209 202 188 193 209 200 191 197 186 192 194 183 182 180 176 182 183 181 188 186 179 177 181 184 191 180 155 154 109  24  88 160 174 171 173 174 174 174 174 174 174
 166 170 172 174 174 174 173 171 174 139  57  52  39  24  22  46  64  79  93 110 134 154 162 172 172 177 180 180 180 187 193 196 196 196 190 194 189 186 191 193 189 181 177 177 183 188 196 194 188 195 199 201 196 184 188 204 197 189 193 184 187 187 181 174 172 167 154 141 135 140 131 134 126 128 156 193 182 157 155 105  21 104 173 173 172 173 174 174 174 174 174 174
 165 171 173 174 174 175 173 172 176 145  60  45  41  33  32  40  52  64  98 108 134 152 165 173 174 178 180 175 176 185 190 195 198 178 154 156 145 156 150 157 161 154 157 166 170 173 180 175 178 185 193 192 191 177 179 200 194 188 187 180 180 182 180 170 161 134 110 101  98  86  77  85  88  85 102 163 184 161 161  99  18 122 180 172 172 173 173 174 174 174 174 174
 163 169 173 173 173 174 174 172 177 143  48  36  47  53  45  33  46  63  94  95 136 156 172 175 171 176 179 176 179 189 193 194 185 128 107 104 108 113 121 118 118 129 121 119 127 121 121 142 165 170 184 193 187 174 179 193 194 186 179 165 159 169 152 124  98  81  69  60  65  68  68  65  68  70  67  95 157 161 161 103  33 131 179 171 172 173 172 173 174 174 174 175
 153 162 171 173 174 174 174 174 177 146  56  28  36  48  25  32  41  52  74  91 143 166 172 172 173 177 179 179 179 185 190 176 134  96  93  95  86  93  96  76  76  78  61  50  56  61  78 118 137 154 176 186 180 168 181 190 187 180 171 154 132 129 113  83  49  45  48  46  52  60  60  60  53  49  43  51  81 128 158 104  46 146 178 173 173 174 174 174 174 174 174 175
 137 151 163 171 174 174 174 174 173 164  85  29  35  34  29  26  38  53  72 103 141 169 172 177 174 178 176 175 161 150 142 112  93  91  89  73  83  83  67  63  58  49  35  26  35  51  61  89 121 150 171 172 167 172 184 189 185 178 157 148 119  92  72  44  23  21  24  30  40  40  38  34  45  35  23  40  37  61 123 116  53 148 175 172 173 174 173 174 174 174 174 174
 118 135 151 163 171 173 172 173 183 177 116  45  30  14  23  26  34  49  82 119 158 173 178 178 175 177 161 121  97  98  73  69  78  63  59  77  66  47  47  42  34  27  29  44  49  44  56  72 106 141 162 163 169 179 184 189 182 168 152 133 110  67  50  67  87 103 105 103 103 104  91  71  62  52  36  33  42  37  70  98  84 173 178 171 171 172 173 174 174 174 174 174
  93 113 135 151 161 170 173 185 192 189 174  99  31  14  21  27  39  46  77 131 169 172 176 180 177 174 139  96  89  73  56  51  46  45  49  48  37  54  69  92 113 125 121 130 122 110  99  86 100 137 158 171 175 182 185 186 174 160 148 123  92  91 126 148 148 148 148 156 167 165 154 140 114  83  58  42  40  49 102 122  98 192 189 173 172 172 173 174 174 174 174 174
  75  93 116 135 151 162 173 178 166 170 189 163  90  20  25  34  52  57  78 144 168 171 173 179 181 170 138 109  74  55  48  45  55  71  90 104 113 138 159 153 134 118 114 119 136 145 136 115 107 133 155 170 183 181 182 183 172 160 145 114 106 133 131 115  93  75  50  49  61  79 131 151 138 113  90  68  49  62 116 140 108 179 179 168 172 174 173 175 175 174 174 175
  64  76  98 119 139 154 165 145 117 115 153 182 145  51  32  41  59  55  95 151 170 171 172 170 170 165 139 100  83  76  58  63  88 109 128 140 133 108  67  36  31  48  59  71 102 119 129 126 120 132 152 173 187 197 194 190 174 154 133 111 114 114 106  77  32  40  64  34  28  41  22  66 122 131 101  79  62  66 110 144 119 156 135 144 174 175 173 174 174 174 174 174
  57  67  84 106 127 147 158 140 137 133 125 162 161 111  49  39  59  58 113 155 172 177 177 171 166 158 119  87  79  80  83 108 123 122 108  71  26  10  15  60  43  65 128  80 100 124 120 123 124 138 147 167 184 198 202 195 179 160 129 117 118 125 115 118  60  42  35  43  50 130  84   8  39 107 127 107  82  85 120 147 110 107 102 144 176 174 173 173 173 174 174 174
  53  60  72  92 116 141 170 159 163 157 145 144 166 168  79  30  42  68 115 159 170 175 178 176 169 156 136 124 113 116 122 123 108  70  26  26  62  36  30  25  39  84 195 145  94 115 148 134 128 155 156 168 182 196 206 201 184 164 132 122 145 120 130 165  83  63  43  40  83 152 122  66  24  42 110 126 106  98 125 152 101 109 138 163 173 173 174 174 173 174 174 174
  46  52  61  78 102 134 174 169 175 161 171 164 151 169 111  30  33  68 117 165 169 174 177 176 164 158 154 141 133 130 125 112  80  47  51  89 106  75  67  69  75 111 140 127 123 117 151 147 135 163 161 168 183 196 203 205 197 171 140 136 150 130 129 139 139 137 118 104 121 115 105 100  81  59  85 123 134 132 145 163 114 134 162 169 172 174 173 174 173 174 174 174
  41  46  53  67  93 127 173 176 181 165 180 184 145 151 139  42  42  65 136 167 171 173 171 172 162 156 145 145 148 138 125 128 127 123 133 120 110 123 131 135 136 144 145 139 147 161 162 154 149 165 165 173 184 194 206 208 201 181 152 143 151 155 159 144 141 134 127 114 105 100 111 118 122 126 105 108 127 140 151 166 118 133 182 175 171 173 173 174 175 174 174 174
  41  44  48  56  80 114 172 180 178 175 194 192 164 135 142  61  40  70 141 160 163 171 171 172 168 161 150 150 148 138 147 158 159 157 148 135 140 143 154 159 158 166 164 146 148 154 157 153 163 165 164 173 188 196 203 205 201 189 160 147 151 144 146 139 129 134 140 135 135 139 130 132 152 161 147 131 131 143 152 166 121 124 185 177 170 172 173 174 174 174 174 174
  41  42  45  50  66  98 169 183 173 185 197 204 179 137 138  72  43  81 128 160 167 172 174 176 171 165 169 166 158 159 168 167 169 167 159 155 153 150 157 162 155 154 154 151 157 160 160 165 176 166 164 177 193 196 201 205 199 190 171 153 161 157 151 158 153 145 138 134 135 132 136 146 159 159 165 164 153 160 162 164 121 124 183 177 171 172 173 174 174 174 174 174
  42  42  44  47  57  88 172 182 169 189 184 188 170 123 128  72  50  77 119 161 168 168 169 168 170 170 173 168 168 175 173 167 165 163 164 163 155 151 154 161 170 171 169 172 168 169 172 180 179 168 170 182 191 192 201 206 202 194 179 159 163 176 169 165 170 168 156 148 149 143 142 149 159 161 169 176 170 170 170 168 119 132 183 178 171 173 172 173 174 174 174 174
  42  41  43  46  50  74 169 184 175 191 171 157 135 127 146  75  53  79 115 153 163 168 167 169 169 174 174 173 173 176 178 179 177 178 181 182 181 178 182 187 184 182 179 180 180 183 191 186 178 169 175 186 189 190 201 206 205 198 179 163 162 183 182 175 172 177 176 171 169 171 175 171 173 171 177 181 179 172 167 168 114 137 184 179 170 173 172 173 174 174 174 174
  39  40  42  43  45  63 161 184 186 196 172 154 158 173 163  90  55  94 120 146 160 164 167 170 171 175 176 178 175 176 183 182 176 181 183 180 178 183 188 187 184 179 187 191 188 193 194 189 177 175 181 188 187 190 198 204 206 198 176 166 163 179 186 188 184 181 182 182 179 177 173 176 179 180 184 182 180 171 165 164 111 148 185 178 172 172 172 173 174 174 174 174
  36  39  41  38  43  52 147 188 184 195 178 173 194 186 178 121  82  98 119 151 164 166 164 167 174 174 175 175 182 181 181 182 186 186 184 183 187 190 190 192 192 186 194 195 194 193 190 186 177 178 180 185 187 187 197 206 203 193 173 165 168 171 183 189 191 189 188 185 185 184 182 182 183 184 185 180 177 174 165 163 115 143 182 177 171 172 172 173 174 174 174 174
  34  38  41  40  41  46 121 186 179 198 177 174 186 189 192 154  95  81 110 148 161 162 161 163 169 171 174 171 178 175 179 184 188 189 189 191 191 190 194 194 192 195 194 192 194 192 187 181 179 183 183 183 187 185 192 206 201 189 171 164 173 176 178 185 190 189 191 189 188 189 184 180 184 183 181 183 180 172 165 157 124 148 177 179 169 172 172 173 174 174 174 174
  33  35  39  40  42  49  99 176 175 203 182 170 172 175 192 176  99  81 104 146 164 162 157 155 169 169 171 173 176 182 184 181 190 194 191 190 190 187 192 189 190 195 194 194 192 189 186 183 186 186 184 183 186 189 194 205 203 193 176 171 177 181 185 186 188 191 193 192 192 189 184 181 183 182 179 181 180 175 163 154 129 158 175 178 170 172 172 172 174 174 174 174
  32  34  38  39  39  53  93 175 174 197 191 168 162 154 186 190 130 104 125 146 159 157 153 157 170 169 176 180 179 185 188 179 185 189 190 189 189 191 188 192 193 196 192 194 189 191 188 189 187 185 183 184 187 192 198 206 204 201 185 176 175 179 187 193 192 194 195 194 194 193 189 191 184 180 188 180 174 172 163 149 128 167 175 175 171 173 172 172 173 174 174 175
  30  33  35  34  37  57  93 167 179 178 202 178 163 156 182 195 153 124 127 140 147 153 149 159 166 165 174 188 186 189 192 188 194 192 188 190 191 189 191 198 200 198 196 196 193 193 189 182 177 179 180 185 188 193 199 205 207 202 193 178 171 164 172 186 188 194 197 199 198 196 194 193 192 186 187 182 170 164 161 148 129 163 177 175 171 172 172 172 173 174 174 173
  28  31  34  34  35  57  93 154 191 167 185 197 202 173 184 192 159 129 129 139 146 155 148 155 162 164 176 184 188 189 193 195 197 193 191 191 191 192 199 200 199 198 197 199 194 187 173 165 168 171 180 187 191 195 195 202 204 203 200 188 178 159 145 165 185 196 195 197 197 195 198 198 195 190 187 182 173 166 155 145 117 151 179 176 170 171 171 172 172 172 171 169
  30  31  32  33  36  55  92 141 192 179 182 203 212 196 188 183 159 128 127 137 142 158 154 152 158 164 171 181 186 190 196 196 195 192 194 195 194 199 201 202 202 204 198 196 181 167 150 161 175 173 184 189 191 200 194 204 206 205 203 194 187 175 144 141 175 190 196 193 192 195 198 198 194 195 190 185 172 165 151 143 148 168 185 175 169 172 173 172 171 169 164 159
  33  32  33  34  37  56  93 132 187 199 203 206 204 192 178 185 168 133 126 129 138 155 156 157 156 165 173 178 185 188 192 196 195 196 196 198 196 192 202 205 201 199 192 177 163 150 149 167 176 178 186 193 194 199 203 204 206 204 200 199 191 179 178 145 153 179 193 192 190 196 196 194 196 194 189 183 174 159 149 140 180 200 194 174 168 172 173 172 168 161 155 147
  32  33  35  37  39  55  91 127 182 202 207 205 200 189 185 190 173 136 135 134 146 148 150 151 160 162 170 174 185 190 193 196 194 198 199 199 198 198 201 205 195 188 178 170 157 153 164 183 188 185 187 191 194 197 202 209 209 204 199 196 187 176 197 172 149 167 184 188 190 192 194 195 195 192 188 180 174 158 148 137 176 200 203 181 167 170 167 163 158 150 142 132
  33  36  37  40  41  56  90 122 172 196 202 202 194 187 191 198 172 132 137 149 151 145 149 152 164 163 160 171 184 188 196 198 194 194 194 197 200 199 197 199 195 184 172 157 163 166 179 189 196 196 183 179 188 196 208 221 209 198 194 190 171 176 204 188 161 163 177 189 184 187 194 196 193 190 186 177 171 160 147 140 178 193 201 188 168 167 160 154 147 138 127 115
  33  37  39  41  42  54  85 118 154 186 191 195 197 189 192 196 171 134 136 138 146 148 152 158 162 161 165 174 176 184 190 191 192 191 192 194 198 200 198 193 187 180 170 165 171 166 183 185 195 196 179 162 169 179 190 196 188 189 183 170 153 175 190 175 164 174 177 184 184 187 189 189 190 191 186 177 169 156 146 143 182 196 195 180 163 160 153 145 134 122 109  92
  30  34  38  39  42  51  78 116 138 156 174 182 188 176 168 169 167 134 137 136 141 141 145 156 162 165 169 173 171 182 185 190 190 186 191 197 196 197 193 189 180 171 170 178 171 159 173 172 174 176 168 156 147 149 163 170 171 169 158 143 132 145 152 148 166 179 175 181 184 187 184 186 191 188 183 179 166 158 151 139 166 184 176 157 157 150 141 131 119 105  88  67
  26  29  33  35  38  47  75 114 142 145 141 146 152 143 135 147 149 128 131 132 137 140 144 154 162 168 168 168 175 182 186 187 185 190 194 195 195 196 191 184 173 170 189 191 176 147 146 145 122 103  90  73  94 135 146 149 148 144 131  95  93  97 107 136 170 171 169 173 182 186 184 182 184 182 180 175 167 159 143 124 133 145 139 145 148 137 127 113 100  83  64  45
  26  27  30  34  36  44  73 111 140 160 161 154 148 151 163 168 146 126 133 136 139 142 144 153 157 160 165 166 173 176 184 184 182 186 188 190 193 186 173 165 166 184 194 187 179 156 130 117 113  94  66  41  51  86 121 120 119 114  67  53  90 110 124 154 168 170 175 168 172 177 179 178 182 181 178 172 166 153 139 135 132 138 146 142 132 121 109  93  77  57  41  34
  25  26  28  32  34  45  77 113 140 159 168 168 168 170 167 167 151 115 125 130 135 143 143 153 159 156 162 164 171 175 182 183 173 175 181 180 173 156 142 146 168 184 183 181 174 163 161 142 126 113  97  98 100  92  99  98  95  88  83  94 111 137 150 151 161 165 170 167 163 168 179 181 179 178 176 171 162 151 141 151 157 148 139 127 116 102  87  68  52  36  30  31
  24  25  27  29  33  47  79 116 143 160 167 167 166 166 167 167 156 114 121 127 132 144 147 148 154 162 161 160 166 178 182 178 172 173 173 157 132 119 133 162 175 175 177 175 167 159 155 150 139 130 127 126 135 138 114  88 119 125 129 126 132 135 140 145 153 163 166 155 140 145 166 176 175 175 171 168 159 152 142 147 145 133 122 110  96  79  62  45  32  27  28  28
  27  27  27  29  33  52  87 123 148 161 167 167 167 166 167 166 157 117 114 129 133 133 147 145 147 156 161 162 168 175 175 173 173 168 147 114 112 136 157 166 172 166 166 165 163 163 153 147 142 143 146 147 154 149 126  86 136 155 150 140 143 141 140 147 154 155 158 142 111 112 147 163 172 175 175 166 149 146 136 140 129 116 104  87  71  52  38  25  22  23  24  24
  26  27  27  28  34  59  98 131 151 162 167 166 167 166 166 167 162 121 109 122 133 134 142 148 141 150 150 158 163 165 172 173 161 145  96 109 145 156 156 155 162 156 158 161 162 157 147 147 151 154 152 156 157 162 122  83 125 159 147 144 145 145 146 150 148 151 147 136 125 106 138 165 173 176 175 160 146 142 133 127 113  97  80  60  41  26  17  16  17  18  20  21
  27  28  28  29  41  74 111 138 155 163 167 167 169 167 166 166 167 123 107 124 132 134 140 143 140 151 146 146 152 163 169 167 156 113 105 148 154 154 146 143 154 151 148 153 161 154 150 160 157 155 155 158 160 154 116 102 118 147 144 139 144 148 152 150 143 152 147 141 133 119 113 161 174 170 166 157 143 139 126 110  94  76  55  33  18  12  11  12  13  15  16  18
  27  27  27  29  51  89 122 146 158 165 166 167 167 166 165 165 167 133  97 116 130 133 136 142 141 141 142 136 152 158 166 161 139  98 135 147 155 152 142 139 147 149 148 149 146 148 153 159 161 156 152 163 168 140 110 120 117 151 141 137 137 145 149 149 149 154 154 140 133 129 109 145 171 166 163 154 143 141 113  90  71  51  29  12   7   8   9   9   9  11  11  13
  27  27  28  37  68 106 133 153 163 166 165 165 166 165 165 165 166 140  94 101 132 134 135 141 153 144 134 140 150 159 164 164 132 119 150 148 139 137 135 138 146 148 149 146 150 156 157 153 149 151 148 151 146 138 121 123 132 155 146 142 145 148 145 140 144 152 142 137 142 133 123 140 170 168 163 141 136 134  95  68  48  26  10   6   4   5   5   5   6   7   9  10
  27  27  30  48  85 119 143 158 164 166 166 166 166 166 166 166 166 143 104 113 131 134 132 136 149 141 138 139 141 156 165 161 138 131 164 156 137 125 123 135 135 144 156 157 150 150 146 150 139 146 146 147 152 147 133 134 149 165 149 139 152 150 142 136 136 144 142 143 136 137 135 143 171 166 152 134 130 123  73  45  24   8   3   2   2   2   3   3   4   5   8   9
  26  25  34  63 101 130 150 162 165 166 166 166 165 166 166 166 164 145 115 106 120 137 133 127 140 147 141 132 131 148 160 170 159 137 159 152 120  96  95 112 120 128 135 142 142 137 140 148 140 144 154 161 167 159 149 151 164 170 155 150 154 154 143 137 138 143 136 130 127 140 138 146 164 158 148 129 137 109  44  21   7   3   2   1   1   2   2   2   5   6   6   7
  24  25  43  78 113 138 157 165 166 166 166 166 167 166 166 166 163 145 122  97 113 129 131 130 141 149 137 131 132 148 158 165 169 143 138 139 118  73  65  80  94 116 117 124 137 131 142 150 150 149 148 143 146 157 160 158 150 137 135 141 151 158 142 133 133 130 114 107 122 138 138 156 167 158 139 133 140  78  18   7   4   3   3   2   2   3   2   3   4   6   6   6
  24  29  54  92 125 147 162 165 166 166 166 166 167 166 165 165 164 145 129 102 110 124 128 125 134 139 138 130 128 144 158 166 170 155 133 139 137 120 113 120 114 106 104 105 108 109 111 113 107 103 103  99 107 115 123 120 111 109 106 100 110 116 112 121 120 103  75 106 136 140 137 157 170 148 129 134 126  41   4   7   7   5   6   4   4   4   4   5   5   5   6   6
  25  37  70 106 135 153 162 166 164 165 166 166 166 165 164 164 163 143 132  98 102 121 132 128 131 128 136 132 126 135 144 154 166 155 137 130 131 145 143 155 151 137 122 108 106 104 102 102 111 120 123 121 115 109 107 102  98 101  92  80  73  69  68  89  93  86 112 134 131 130 148 167 162 136 125 133  94  13   8   8   7   6   6   6   6   6   8   7   6   5   6   6
  30  51  89 121 144 158 164 165 164 165 165 163 163 161 161 161 160 144 140 104  94 116 129 121 119 122 128 134 124 115 125 139 156 149 131 119 124 146 157 165 159 154 155 158 163 157 153 157 161 166 167 170 164 159 157 154 142 138 129 119 116 116 126 130 120 124 146 139 133 141 158 163 149 128 123 128  51   1   7   6   5   5   4   5   5   5   6   7   7   6   5   4
  39  69 106 133 152 161 164 165 163 161 158 156 155 153 152 152 152 142 141 110  91 106 122 118 120 120 117 129 118 103 110 127 130 137 130 118 117 126 148 158 155 149 151 159 170 169 165 174 175 170 168 164 164 163 162 151 151 152 152 158 162 157 151 146 144 149 149 141 131 144 147 149 135 114 124 109  12   1   4   4   3   3   3   6   5   6   5   4   5   3   2   2
  56  90 123 145 158 163 160 159 156 152 148 146 143 142 140 139 138 132 141 118  94 101 112 119 117 118 118 125 119 116  96 112 123 113 120 131 118 113 131 159 163 163 148 146 148 154 163 167 181 183 173 174 179 174 181 176 176 173 174 171 163 149 143 145 146 142 143 136 127 129 138 132 112 111 128  65   0   2   3   3   2   3   3   3   3   2   1   1   1   1   0   0
  77 107 135 153 161 161 156 149 145 140 135 130 127 125 123 122 119 128 145 126  98  94 105 117 113 108 107 115 124 119 100  96 105 114 128 131 128 111 112 141 157 164 158 148 132 130 133 138 137 148 143 131 136 141 151 152 150 147 152 147 140 138 138 142 138 134 134 128 116 128 131 107 106 119 108  20   0   0   3   0   0   1   0   1   2   0   1   0   0   0   0   0
  99 123 146 158 160 154 147 139 132 124 118 114 112 111 111 109 107 123 151 136 108 100 106 111 111 106 104 119 125 130 122 104  89 104 123 129 130 139 119 128 146 150 152 157 141 127 121 125 126 124 112 108 112 114 113 116 114 117 120 124 131 141 147 150 139 126 131 119 118 121 110  94 116 120  65   0   0   1   0   0   0   0   0   0   0   0   0   0   0   0   0   0
 113 137 154 159 154 146 137 126 117 110 105 105 104 104 104 104 102 122 147 141 117  98  94 103 117  97  96 122 124 131 118 120 105 101 116 117 131 144 134 129 136 144 149 157 156 140 128 115 110 123 114 115 115 104 105 117 113 108 114 127 142 146 142 131 130 121 121 121 114 103  85 103 125 116  33   1   0   0   0   0   0   0   0   0   0   0   0   0   0   0   0   0
 124 146 158 154 147 137 125 113 105 101  99  98 100 100 101 101 101 124 140 140 123 107 100 103 111 110 109 109 121 116 122 123 117 109 120 117 125 131 135 140 121 138 148 150 159 148 142 132 120 121 112 111 105 103 107 116 116 121 135 143 144 140 131 120 123 124 124 117 108  95 100 113 114 102  29   0   1   0   0   0   0   0   0   0   0   0   0   0   0   0   0   0
 133 151 157 148 139 126 112 101  95  93  94  95 100 104 106 105 106 126 148 142 128 105 107 103 116 116 117 113 111  99 125 117 115 118 110 118 125 121 138 144 132 133 143 146 157 158 154 143 130 119 108 107 106 103 104 115 124 135 148 154 145 129 137 124 120 126 127 115 101  93 110 119 104 103  36   0   3   4   3   1   1   0   0   0   0   0   0   0   0   0   0   0
 138 150 153 145 132 118 103  93  87  89  94 101 110 115 118 118 115 125 150 143 131 108 107 106 112 108 117 115 113 114 120 123 131 123 103 110 134 131 130 137 141 140 149 159 159 163 162 154 137 124 117 110 114 112 111 122 140 150 153 160 141 132 137 129 122 124 120 109  95  98 110 121  94 118  43   1   6   6   3   3   3   3   0   0   0   0   0   0   0   0   0   0
 139 146 147 139 124 107  94  86  85  89 103 116 124 129 130 126 120 135 148 139 135 121 121 107 110 110 112 109 109 122 114 125 134 128 109 109 124 122 130 133 131 145 146 156 153 168 173 168 160 147 145 140 146 142 146 148 161 166 160 155 148 146 138 124 130 131 119 107 100 104 114 106  96 126  40   1   6   6   3   3   3   3   0   0   0   0   0   0   0   0   0   0
 137 140 141 133 117  99  86  81  84  98 114 125 133 137 136 123 175 155 135 140 146 130 127 120 117 110 114 108 107 113 121 125 128 136 113 105 114 121 145 145 144 137 153 157 155 161 172 172 161 165 166 165 168 170 170 167 169 176 174 155 156 146 135 130 129 133 129 102  99 112 108  83 108 127  41   1   6   5   3   3   3   3   0   0   0   0   0   0   0   0   0   0
 130 134 134 127 113  94  82  80  88 105 120 130 137 142 130 159 232 146 130 141 143 139 130 119 116 108 113 108 109 114 116 118 116 123 111 104 105 115 126 125 140 145 152 160 164 169 169 167 166 173 173 169 169 168 171 174 175 171 170 158 147 135 133 128 118 120 113  85  96 112  89  91 128 121  32   2   5   3   3   3   2   2   0   0   0   0   0   0   0   0   0   0
 124 127 128 123 108  89  79  79  92 111 124 133 139 138 127 219 211 134 140 148 141 135 135 136 127 112 100 110 107 106 107 116 113 112 119 102 105 109 121 134 144 147 157 157 145 158 171 175 176 178 176 183 177 179 180 183 183 172 163 164 144 135 131 138 116 111  96  83  92  98  86 118 131 137  49   0   4   3   3   2   1   1   0   0   0   0   0   0   0   0   0   0
 117 120 122 119 107  89  80  80  93 112 123 132 140 131 152 248 179 136 143 148 140 131 137 139 130 123 119 104  99  97 101 108  99 109 116 103 103 108 120 133 139 146 158 149 144 157 171 179 178 179 183 188 186 190 190 180 182 177 167 161 143 148 135 129 120 100  75  80  88  77  99 124 122 164 124   0   3   3   1   1   0   0   0   0   0   0   0   0   0   0   0   0
 111 115 117 114 105  89  80  81  93 111 125 131 138 124 185 242 169 142 148 151 145 142 139 137 134 131 119 107 102 104 104 108 104 101 108 104  99 105 115 121 138 135 136 135 138 146 165 172 175 183 185 184 188 183 180 176 175 177 171 143 129 138 126 120 117  86  71  83  81  80 122 131 117 179 188   1   1   3   0   0   0   0   0   0   0   0   0   0   0   0   0   0
 124 122 119 111 104  91  81  79  88 108 120 128 132 124 211 235 145 145 150 151 142 143 143 145 134 122 128 122 113 110  94  93 105 106 116 106  85  95 108 121 137 131 127 138 132 139 156 162 173 179 178 180 182 185 181 172 170 168 158 136 125 122 117 111  98  81  74  75  71 114 130 132 122 195 237  26   0   3   0   0   0   0   0   0   0   0   0   0   0   0   0   0
 168 161 142 119 106  93  85  80  83 101 114 121 123 120 226 228 110 152 153 151 153 144 140 141 136 130 132 124 119 115  99  90  96 104 109 103  88  96  96 106 118 130 127 131 124 126 152 167 172 179 176 173 176 177 171 170 166 161 148 129 121 118 118 109  78  66  79  69  92 129 127 134 135 218 255  72   0   3   0   0   0   0   0   0   0   0   0   0   0   0   0   0
 204 194 172 139 111  99  89  81  81  90 103 112 112 124 234 243 115 153 160 153 153 151 149 148 145 144 142 133 126 113 105 102  88  94 106 108 106  96  87  90 103 129 127 132 121 125 140 158 159 167 170 160 166 169 167 165 156 143 126 117 109 100 103  89  74  74  64  87 128 140 138 129 143 245 255 138   0   0   0   0   0   0   0   0   0   0   0   0   0   0   0   0
 225 212 190 151 111 100  95  89  85  84  90 101  98 140 238 255 172 131 168 160 155 155 152 150 144 146 143 138 133 119 108 109  94  88  94  99  98 112 100  81  82 109 110 111 121 129 133 140 144 153 156 156 150 156 154 150 142 129 109 109 107  92  97  76  74  59  74 122 133 136 143 131 187 255 250 196  27   0   0   1   0   0   1   0   0   1   0   0   0   0   0   0
 231 215 187 143 107  97  99  96  91  88  89  95  74 150 242 249 238 142 160 167 164 156 152 145 150 143 141 140 133 125 125 113 106  97  96  85  87  99  92  82  80  81 101 104 107 108 119 131 134 136 137 141 141 138 135 132 123 112 116 107  95  89  83  65  57  87 126 140 136 138 143 147 243 254 239 225  67  21   4   0   0   0   0   0   0   0   0   0   0   0   0   0
 221 196 160 117  90  93 102 105 101  96  97  89  40 178 243 239 255 206 144 168 169 161 158 146 146 146 140 136 134 142 137 129 121 110 107 101  88  81  79  81  92  79  77  95  98 101 103 117 120 124 127 131 128 124 118 122 113 107 106  95  89  75  55  65 102 127 142 146 137 149 134 193 255 246 233 239  88  27  38  11   0   0   0   0   0   0   0   0   0   0   0   0
 185 150 106  70  67  83 105 114 113 106 105  52  40 209 240 235 247 254 187 156 170 168 160 155 151 141 138 138 146 146 133 134 129 121 110 110 106  94  81  73  78  74  63  70  71  81  88  96 111 113 110 115 113 115 114 107  98  97  83  60  55  59  82 113 128 135 146 138 151 143 157 248 253 240 233 247 118  14  41  42  20   1   0   0   0   0   0   0   0   0   0   0
 105  70  37  33  55  83 105 120 125 123  76  21  72 230 237 233 238 253 250 176 155 163 160 171 163 151 146 138 140 141 134 142 137 128 130 127 115 115 103  90  83  72  67  67  57  47  54  61  71  73  69  79  83  81  82  84  73  61  55  61  77  93 118 130 136 144 147 155 150 139 228 255 247 235 234 247 155  16  33  42  43  28   7   0   0   0   0   0   0   0   0   0
  26  20  19  25  48  78 104 122 139  91  33  16 115 244 236 235 234 241 254 245 177 153 159 164 160 155 149 150 149 148 138 147 150 144 133 126 126 124 122 115 106  96  92  91  84  82  82  76  70  72  68  66  71  71  70  71  72  80  93 105 109 118 124 138 145 153 153 158 147 215 255 249 242 238 238 245 190  26  27  38  39  39  37  23   3   0   0   0   0   0   0   0
  21  22  23  23  36  68  98 121  91  34  29  18 149 246 236 237 235 235 243 255 247 188 157 162 157 157 152 151 156 154 146 147 152 148 139 136 130 127 133 128 115 121 116 117 111 113 113 112 109 114 110 111 111 109 110 108 105 108 107 117 116 123 135 140 150 154 158 150 206 255 252 246 243 241 241 243 214  46  21  32  37  38  37  40  33  18   9   3   1   1   1   0
