P2
# Generated by OpenCV 4.2.0
92 112
255
 206 201 204 206 206 207 208 209 209 211 211 213 214 214 215 216 217 218 220 222 219 220 221 221 220 222 223 223 223 225 233 215 217 218 197 116 123 111  32  35  45  45  44  35  44  40  43  69  72  79 108 167 213 235 233 233 236 229 237 233 236 236 238 238 238 238 238 238 239 238 241 242 241 241 241 241 241 240 243 243 243 243 243 243 243 244 244 245 245 245 245 246
 205 205 206 206 205 208 207 208 209 211 211 213 214 214 215 216 217 217 215 216 218 219 217 218 220 220 222 223 221 216 213 204 187 133  85  39  39  20  23  19  38  38  62  65  43  35  40  41  45  33  66  59 101 102 156 232 234 236 233 238 236 237 237 238 238 238 237 238 239 239 241 241 241 241 241 242 241 240 243 243 243 244 243 243 243 244 245 244 245 245 245 246
 205 205 205 207 208 207 209 209 209 211 210 212 214 214 215 216 217 218 212 222 220 219 217 225 222 224 225 204 214 190 141  68  52  38  28  25  22  25  25  42  53  65  99  90  69  45  48  56  48  41  46  47  47  59 101  85 119 194 228 228 235 232 236 237 237 239 235 234 238 239 241 239 241 241 241 241 240 241 243 243 243 243 242 243 243 244 245 244 245 245 245 246
 205 205 205 206 207 208 208 210 211 211 212 212 214 214 215 216 217 216 219 218 218 223 220 217 226 221 201 186 105  36  37  52  32  23  25  28  22  32  45  41  68  90  71  71  78  78  52  51  56  52  46  67  62  53  61  50  62  55 115 188 224 238 233 246 239 238 234 239 240 238 241 240 241 241 241 242 240 243 242 244 243 243 242 244 245 245 245 245 245 245 246 246
 203 205 205 208 207 208 207 210 211 211 212 212 214 214 214 216 216 218 218 217 223 213 218 209 156  75  77  45  33  21  31  34  40  35  35  37  28  53  71  63  58  67  69  79  92  90  68  71  53  75  71  71  81  62  64  46  65  34  69 102 132 165 242 230 235 238 240 239 239 238 240 241 241 241 240 240 240 243 243 242 243 243 242 244 245 245 245 245 245 246 246 246
 204 206 206 207 208 208 208 211 210 212 212 212 214 214 215 216 216 217 215 218 213 221 210  83  52  35  30  12  21  36  29  36  65  40  52  34  41  64  92  75  80  66  81  49  71  70  52  42  49  43  50  64  93  79  88  79  66  82  59  44  48  68 109 207 226 237 237 235 238 238 241 241 241 241 240 240 240 244 242 243 243 243 242 244 245 245 245 245 245 246 246 246
 205 205 205 207 208 208 208 210 211 210 211 212 214 214 216 215 215 220 220 215 222 159 101  43  37  23  13  24  28  33  32  39  60  73  57  46  57  57  94  58  84  66  68  55  54  55  47  65  56  36  58  61  78  73  73 107  89  77  86  65  46  39  46  68  93 150 222 238 236 239 239 238 243 240 242 239 241 243 243 243 243 243 242 244 245 245 245 245 245 246 246 246
 204 205 206 207 210 208 208 210 211 212 212 213 214 215 210 218 221 206 229 217 169  25  26  18  18  21  25  46  49  53  57  55  67  60  40  65  76  74  68  35  68  52  61  79  69  47  82  66  45  67  76  76  63  55  83  92 117 112 101  90  69  56  39  35  60  44  58 161 239 238 229 248 230 241 241 242 242 243 243 243 242 245 245 244 245 245 244 245 245 246 246 246
 204 205 206 207 209 208 208 210 210 212 212 213 214 214 218 215 213 210 157 104  31  17  17  14  17  24  44  47  61  50  58  42  69  38  49  61  64  50  76  54  44  74 116  50  74 112 108  59  50  74  74  86  91  28  54  81 115 117 110 108  85  85  64  32  27  82  43  36 162 237 242 233 230 242 242 242 242 242 242 244 242 245 246 245 245 245 245 245 245 245 246 246
 204 205 206 207 209 207 208 210 210 211 211 213 214 213 215 219 202 153 113  17  29   8  18  21  35  51  55  97  79  65  54  55  79  54  89  87  62  42  66  47  40  61  86  43 102 129  55  44  46  45  52  92  21  64  25  58  69  95 100 123 116 109  91  65  39  24  49  38  25 107 240 215 227 242 242 242 242 243 243 242 242 245 246 244 245 244 245 245 246 246 245 246
 204 205 206 207 209 208 208 210 210 212 213 212 213 214 213 200 146  48  16   9  25  12  23  47  46  61  93 107  65  86  89  88  84  65  92 117  58  46  66  56  71  62  46  46 113 106  99  65  69  71  30  58  82  23  42  32  59  65 124 115 108 133 109  86  70  54  34  36  32  31  81 191 245 240 240 241 242 243 242 242 241 245 245 244 244 244 245 244 245 245 245 245
 204 205 206 207 209 208 208 210 210 212 212 210 217 207 205 122  15  14  20  14  12  24  36  50  66  84 103 113  62 101 104 131  92  95  90 127  81  39  57  52  75  77  75  51  74 107  83 107  54  84  64  51  46  59  54  33  46  80 130 120 121 117 128 115 101  93  45  35  23  23  24  48 153 237 226 251 241 240 241 243 245 244 245 246 244 245 245 246 246 246 248 248
 204 205 206 207 209 208 208 210 209 213 210 211 216 211  91  40  33  22  16  16  16  31  61  68  88  80 126  98  80 125 110 133 118 105  90 117  88  55  27  48  65  62  73  53 115  71 118 138  55  41  80  58  49  46  68  66  45  92 108 124 131 135 130 129 114 105  82  38  40  19  30  25  95 144 232 240 242 242 243 243 245 245 245 245 246 245 245 245 246 246 247 248
 204 205 206 207 208 208 208 210 210 214 215 208 211 140  41  32  22  11  21  17  36  48  61  77  92 105 123 102  88 104 140 141 121  95 102 136  98  62  31  40  39  67  77  72 112  74 119  89 101  54  88  55  72  46  76 103  60  42  52  73 112 144 130 138 124 115 102  77  33  32  39  16  38  94 191 241 243 242 243 243 245 245 245 245 245 245 245 246 246 246 247 248
 203 204 206 206 208 207 207 209 209 211 215 215 183  62  23  29  17   9  12  29  49  63  79  89  97 136 116 125 126 130 133 141 125 132 128 128  95  83  48  33  87  56  87  71 104  93 110 122 116  87  69 100 100  89 122 114  79  87 120  60  78 113 152 144 130 122 120 108  60  34  34  27  20  31  93 229 245 241 242 242 245 245 245 245 243 244 244 245 245 245 248 248
 205 207 207 209 210 208 210 211 212 209 214 218  61  18  24  16  11  14  32  38  63  90 101 102 110 121 121 133 132 145 124 127 146 148 136 122 105  67  55  53  71  99 105  90  84 148 112 122 143 126  87 119 119 115  87 116  88 102 127 118  98 112 138 139 134 126 124 131  94  52  30  32  20  33  27 132 243 245 239 248 238 245 243 243 246 246 246 247 248 248 248 248
 204 207 207 209 209 208 208 210 210 212 224 149  26  19  25  24  18  26  27  61  77 108 111 119 124 135 137 147 143 162 132 137 115 145 136 118 113  72 113  74 122  98 136 116  89  92 107 132 142 124 128 114 145  79 112 123 125 126 127 139 117 135 126 142 135 130 120 123 104  72  41  38  28  31  30  14 195 242 246 241 242 244 245 244 246 245 246 247 248 248 248 248
 205 207 207 209 209 207 208 209 211 209 203  75  14  36  16  36   8  44  42  88 103 129 112 118 144 141 154 155 148 163 153 139 132 123 166 142  93  96 119 108  88 124 160 141 120 109 150 144 164 148 144 116 133 127 133 153 144 132 121 132 150 149 134 142 136 133 125 125 131  95  66  31  42  31  42  50  81 240 242 238 247 245 243 243 246 246 246 247 248 248 248 248
 203 207 207 208 209 206 208 209 208 206 156  16  32  33  30  16  17  40  55  78 133 120 116 131 137 140 148 146 144 155 150 147 129 152 147 164 109  96 119 119  72  87 100 109 143 134 162 138 157 156 159 165 165 184 160 170 161 137 142 153 143 141 146 146 138 134 130 122 120 126  63  39  31  13  33  48  55 186 244 241 242 245 244 243 246 246 246 247 248 248 248 248
 204 207 207 209 209 207 210 214 210 212  64  24  20  29  40  20  38  56  69 108 123 110 119 131 138 145 150 142 151 147 143 161 137 162 155 171 139  75 118 130 148 126 139 159 168 178 153 177 169 168 178 178 183 186 182 175 175 157 166 159 157 160 152 149 145 135 135 129 117 118  98  45  47  36  33  38  51 100 239 245 236 242 244 243 246 246 246 247 248 248 248 248
 205 207 207 209 208 210 209 209 222 117  38  36  39  31  34  34  41  61  92 112 115 105 121 135 141 138 136 149 153 160 154 149 164 151 179 156 175 141  94 147 148 148 157 174 185 200 186 180 190 190 186 195 190 187 188 185 180 171 173 173 162 161 155 149 147 145 141 135 137 106 109  81  47  43  28  49  30  64 235 245 242 245 244 242 246 246 246 247 248 248 248 248
 203 207 206 209 209 206 210 213 201  70  23  32  37  25  50  33  30  64 104 121 100 120 130 135 140 132 145 155 156 166 156 174 157 163 164 187 178 168 120 151 179 184 182 193 196 205 194 178 193 195 196 197 195 195 194 188 186 174 172 168 170 158 159 155 143 146 140 134 138 126  95  98  68  44  39  50  40  68 183 240 243 245 244 244 246 245 246 247 248 248 248 248
 204 207 207 209 209 210 204 212 202  50  30  46  34  29  29  34  54  66 107 118  97 120 129 137 143 149 152 156 158 168 170 165 169 164 175 165 187 190 187 134 184 192 192 191 198 203 190 195 192 198 199 195 201 202 198 190 185 176 177 175 168 154 153 154 153 147 142 136 134 137 112 110  78  57  47  39  50  60 114 244 241 244 244 242 246 246 246 246 248 248 248 248
 204 206 206 207 210 206 210 210 193  47  39  42  28  38  27  56  60 108 131  90 103 130 136 147 149 151 151 155 155 158 168 167 174 174 174 188 184 182 188 180 180 176 190 195 207 206 191 194 185 206 200 208 204 201 199 195 188 185 177 180 173 162 154 154 157 146 140 137 134 134 124  92 108  48  62  63  49  33  57 215 250 242 244 244 245 245 246 247 248 248 248 248
 206 205 206 207 208 211 203 212 194  28  51  51  23  31  49  64  81 103 120  85 113 132 143 149 149 147 158 158 165 169 171 175 180 180 179 183 190 193 201 192 185 190 192 191 199 200 198 201 199 205 199 194 197 198 199 192 194 192 188 187 179 172 158 152 154 153 144 140 141 128 126 105 114  67  60  40  30  58  46 136 240 243 245 245 246 245 246 247 248 248 248 248
 206 205 207 207 208 204 209 208  94  28  51  42  33  21  44  65 104 106 106  92 117 137 144 149 151 154 156 158 166 168 173 176 179 180 182 181 190 199 198 199 196 199 202 204 205 206 211 204 213 200 198 197 204 197 202 189 193 190 191 184 185 174 161 159 152 152 145 140 142 129 123 113 111  91  59  49  39  31  41 136 243 243 245 245 246 246 246 247 248 248 248 248
 206 205 206 207 209 209 206 200  25  36  33  20  33  35  55  71  89 110  99 102 111 131 145 150 150 154 159 159 168 166 174 173 176 183 190 189 195 196 200 201 204 205 204 205 214 206 210 212 208 206 211 208 206 202 207 198 189 185 198 185 183 175 166 166 158 156 149 146 141 137 123 117 119 115  74  41  42  39  40  97 239 244 245 245 246 245 246 248 248 248 248 248
 205 204 206 206 208 210 199 177  83  53  43  28  35  37  33  90 109 114 100 100 115 132 139 150 151 157 160 164 169 165 173 179 184 185 190 193 195 199 200 205 206 204 209 208 203 205 211 214 212 217 211 209 207 202 200 195 199 197 189 184 184 178 172 168 156 160 155 147 145 139 117 115 109 118  91  53  40  37  30 109 240 243 244 245 247 246 244 246 248 248 248 248
 207 206 207 208 209 208 205 159  90  79  49  33  35  28  57  97 110 103 106  97 120 127 139 149 155 157 157 162 166 168 172 181 177 181 183 193 199 198 197 207 213 204 218 215 211 214 212 223 216 210 205 213 217 212 201 194 198 195 191 184 185 176 174 160 155 154 162 155 144 137 125 116 112 103  95  57  39  41  30  99 236 246 241 242 247 247 248 248 248 248 248 248
 207 206 207 208 209 212 204 156  84  77  24  28  26  42  64  91 103 111 108 101 112 120 143 146 153 152 156 164 163 163 169 174 186 185 192 197 203 202 214 208 202 211 219 221 219 223 224 218 216 214 210 213 208 217 204 200 201 195 189 185 178 173 173 166 162 157 155 150 144 135 123 114 113 113  94  66  49  46  34  62 193 237 248 245 246 245 246 248 248 248 248 248
 207 206 207 208 209 205 211 163  72  35  34  25  29  45  69  92 100 106 102  96 109 124 139 143 154 154 163 168 159 170 172 177 191 186 191 197 200 204 206 205 206 222 219 220 221 224 226 231 225 213 210 211 221 206 208 200 196 191 191 188 189 179 172 164 164 160 157 151 146 132 125 111 111 113  94  60  44  42  40  87 178 191 243 247 242 247 249 248 248 248 248 248
 207 205 206 209 209 207 209 201  89  44  32  41  44  44  63  91 102  99  99 100 117 122 134 146 151 154 156 169 160 173 172 177 175 187 185 193 203 204 214 220 223 218 217 218 221 223 226 223 221 215 215 207 214 213 196 203 192 190 190 186 178 180 179 173 160 162 162 154 148 134 132 113 111 114  97  58  54  59  51  95 180 207 242 248 241 247 248 248 248 248 248 248
 206 208 209 208 208 206 208 209 179  36  39  30  38  48  63  86  97 106 112 102 116 122 132 142 156 160 162 166 167 172 172 180 180 190 181 190 199 209 212 212 214 217 217 215 222 226 224 222 217 215 214 208 221 200 207 203 191 185 191 181 179 175 178 167 168 159 159 157 149 136 125 117 107 110 104  56  45  64  38  87 142 199 238 235 253 245 245 246 248 248 248 248
 206 208 208 208 209 211 205 214 192  43  22  29  37  40  57  83 100  97 105 101 111 122 130 140 151 157 155 158 160 167 177 173 178 181 186 188 198 203 204 212 211 211 210 218 219 218 217 216 223 206 213 214 223 206 206 199 200 187 187 184 181 176 174 169 162 163 159 153 150 138 129 118 107 117 113  74  44  33  41  52  84 199 223 241 243 246 246 247 248 249 248 248
 206 208 208 208 208 203 202 186 172  37  30  29  35  30  57  77 101  97  98 107 113 126 130 138 148 156 145 155 165 168 170 167 180 177 185 189 198 201 204 216 208 214 226 231 221 217 224 219 213 202 211 195 207 211 200 201 197 193 188 185 182 181 177 167 181 167 152 156 154 135 122 117 111 124 106  77  50  53  31  64  79 135 228 238 244 246 246 245 248 248 248 248
 206 208 208 209 209 216 207 196 180 129  36  36  29  43  46  71  95  98  96 116 112 123 122 131 143 154 160 153 159 169 172 176 175 179 180 184 194 199 214 205 222 228 222 215 224 225 215 222 204 202 200 208 201 206 205 185 199 194 188 191 186 175 170 162 166 165 163 154 143 132 123 118 108 118  91  67  56  54  54  37  49 142 212 225 244 245 246 247 247 248 248 248
 206 209 208 208 208 208 209 189 166 140  35  39  42  37  42  75  93 100  98 112 104 125 131 134 141 152 151 158 156 166 165 177 176 180 192 194 201 196 199 198 192 203 203 201 204 210 205 205 220 206 205 205 199 208 202 197 201 198 187 184 178 176 176 174 174 168 162 154 146 128 125 128 105 115  89  59  42  43  38  44  61 132 189 231 235 247 246 245 246 248 248 248
 206 208 207 208 209 205 215 206 129  32  31  33  29  40  35  49  89  81  89 110 104 124 129 136 147 155 153 163 160 168 163 171 176 174 177 181 194 192 194 202 203 201 208 214 212 207 207 203 213 210 208 207 211 211 202 200 201 201 200 191 186 177 177 174 179 169 166 159 152 139 130 122 101 117  86  47  43  28  42  57  72 118 135 213 237 245 245 245 247 247 248 248
 206 208 208 208 209 208 203  97 107  44  47  25  23  28  30  55  76  79  95  98 112 127 136 139 144 144 147 159 158 163 171 172 179 183 182 187 202 200 202 206 211 208 216 211 215 213 216 219 214 216 205 204 212 209 207 199 201 197 201 186 192 176 180 177 173 163 167 163 149 142 131 118 102 110  76  42  40  33  36  52  67  89  90 198 241 243 244 247 248 246 247 248
 206 208 208 207 208 206 191  49 150 104  34  36  35  22  30  48  62  92 108  93 113 120 131 133 140 145 151 165 165 167 172 174 181 188 191 195 206 202 205 205 209 210 212 216 218 215 212 214 218 213 214 212 208 212 197 196 202 198 202 191 196 187 186 184 180 172 168 160 149 138 128 122 111 106  74  48  35  40  28  43  59  75  61 190 238 241 244 245 246 246 248 249
 206 208 207 208 207 209 178  86  99 128  25  30  28  25  36  46  69  79  99 100 113 120 131 132 139 150 154 165 168 167 172 182 188 189 191 195 202 202 207 214 217 213 217 221 215 215 212 220 228 216 220 215 212 219 190 197 205 201 198 185 194 190 184 177 170 165 168 162 154 143 128 122 111 105  80  45  37  44  33  45  47  42  92 188 221 239 245 246 247 245 246 248
 206 207 208 209 208 214 194 107  67  39  24  18  22  24  48  35  55  88  97  96 115 118 123 128 138 149 156 167 177 168 163 174 185 186 183 193 198 203 209 210 217 219 219 223 218 214 209 216 224 220 210 220 219 221 214 207 203 198 194 191 195 182 175 171 161 169 155 162 156 138 123 117 103 109  70  40  44  53  30  44  62  64 110 162 216 237 247 246 250 246 248 249
 206 207 208 208 208 209 200  84  74  96  48  33  23  20  22  41  58  80  95 102 117 126 124 131 142 150 166 160 163 168 173 168 174 187 188 192 201 204 212 214 209 213 211 213 214 207 207 215 215 203 207 218 217 221 212 202 200 192 190 192 176 178 161 151 146 134 127 160 159 142 121 117 110 113  65  35  47  39  55  50  42  54  93 143 214 233 244 245 249 245 248 249
 206 207 208 208 209 205 197 193  77  64  54  18  27  26  27  40  56  69  96 109 115 124 120 127 144 148 159 148 166 163 174 178 183 184 180 184 194 195 207 204 209 224 214 222 216 204 201 206 219 213 208 203 204 204 191 201 194 182 182 168 154 160 133 107 105 107  84 112 157 148 125 115 114 111  87  42  46  52  43  50  47  72  80 146 199 230 243 245 249 245 248 249
 206 207 208 208 209 207 204 192 135  39  24  42  24  30  32  32  46  68  94 116 116 124 114 123 143 148 142 106 125 109 138 150 159 171 179 163 171 191 190 203 194 198 213 215 203 198 202 203 206 201 207 197 193 201 193 188 190 178 160 138 116  86  79  68  97  89  82  69 117 127 120 115 112 117  90  51  41  59  38  89  64  73  78 130 192 228 240 244 249 245 248 249
 205 207 208 208 209 210 202 170 201  59  15  29  24  19  41  26  43  82 105 112 108 120 110 126 140 132  95  75  82  97  80 109 126 122 132 143 161 166 191 185 189 195 194 201 204 187 194 205 198 197 202 193 193 186 189 184 165 128 100  91  72  51  72  93  59  64  51  49  34  67 105 108 107 109  77  49  47  49  44  55  36  61  98 123 193 223 236 244 249 245 247 247
 203 207 209 208 209 203 220 214 127  38  31  31  29  27  32  19  53  88 100 114 110 103 101 120 106 101  87  82  76  92  78  68  76 101 111 105 115 135 128 153 171 178 198 193 195 185 191 198 197 192 189 179 183 177 167 126 101  72  57  51  55  68  81  90  69  51  45  35  47  41  43  73 117 103  92  55  46  52  54  46  74  92  93 117 180 212 232 242 248 246 248 248
 205 207 208 208 208 208 202 202 183  42  14  34  23  24  29  28  42  87  99 123 100  92  60  55  61  39  49  55  57  91  77  63  65  58  43  53  47  51  87 138 159 163 184 192 185 181 193 199 190 192 184 178 164 136 122  86  46  41  36  48  64  74  85  79  79  63  51  42  49  48  44  39  80 101 103  82  54  50  53  39  53  93 105 103 161 210 233 244 247 245 248 248
 204 207 208 208 209 207 205 195 151  73  26  22  25  32  20  29  54  84 100 128  98  89  30  32  21  36  48  52  67  52  62  64  55  41  32  30  39  42  55  82 115 145 174 181 180 184 189 195 192 187 169 161 151 128  78  69  59  77 106 136 160 162 167 156 137 121  96  95  75  46  34  44  78 110 110  74  46  48  46  43  61  97  92  92 147 199 227 240 246 247 247 248
 205 206 206 209 209 207 198 184 144  70  29  26  20  35  30  29  68  67 104 115 117  67  41  27  36  38  46  82  83 100  97 105 138 135 140 140  89  70  64  63 101 135 165 169 184 190 179 193 187 182 166 152 130 106 104 136 146  87  57  49  37  37  67  55 131 139 135 124 104  69  45  48  90 101 112  75  42  45  35  39  68 140 111  87 135 188 223 240 243 246 248 245
 207 207 206 209 208 205 209 111  82  37  34  20  19  29  10  35  76  81 110 107 112  71  44  59  88  83  83 123 140 130 128 115  80  45  30  53  86 134 143 135  81 126 153 181 182 184 186 190 184 171 156 143 125 116 149 137 121 100  67  60  54  70 159 136  44  81 132 109 122 113  85  64  83 112 110  84  38  49  45  31  61 163 124  65 115 160 202 217 222 234 245 249
 205 207 207 208 208 204 201 178  73  55  49  19  16  23  17  36  67  95 105 122 103  73  61  69  95 100 117 110  99  42  54  73  62  51  62  74 108 118 105 136 136 103 137 157 174 190 188 187 183 173 153 138 121 145 121 144 165 140  71  43  43  68  97 179 111  56  61 133 119 121 103  73  75 117 109  89  47  43  38  47  85 160 131  52 102 145 188 200 205 219 239 247
 207 206 207 209 210 211 196 179 163  81  54   9  13  12  17  33  71  96 106 124  99  70  69  88  99 103 107  80  44  86 195  72  54  70  42  80 200 150 137 147 151 126 132 152 171 189 193 198 181 168 147 131 135 147 178 137 227 203  90  82  71  64 169 138 125  89  50 109 147 132 117 115 114 118 115  78  52  44  41  40  99 182 136  59 106 154 193 212 218 225 241 245
 204 206 207 209 208 203 210 160 173 100  68  28   8  27  20  37  80 102 113 125  96 106 125 126 117 106 100  66  69 113 131  88  60  54  50  98 179 137 123 146 175 134 134 143 166 189 199 192 177 166 142 136 135 158 138 127 152 147 148 142 140 134 125 103  98  95 110 120 135 139 135 131 122 119 120  97  52  38  49  38  99 174 145  71 108 156 192 213 226 237 243 247
 202 206 205 206 205 212 207 204 143  93  63  27  26  17  39  38  71 103 114 120 120 120 120 137 135 123 119 101 110 100 100 101 130 137 135 150 152 142 156 155 167 135 146 147 161 179 198 205 183 163 142 137 150 173 162 186 152 152 146 147 130 124  91 126 115 114 140 137 132 131 137 140 126 121 130  73  77  40  63  42 114 163 129  63 103 145 177 204 226 235 244 250
 191 203 207 206 210 210 207 208 195 120  47  40  37  19  31  34  85  94 112 113 128 130 131 135 126 128 129 124 128 112 140 125 148 156 167 158 154 151 167 163 172 147 150 141 160 174 185 197 184 163 143 135 149 170 168 155 156 145 156 164 154 148 120 128 128 139 152 149 148 142 150 146 134 135 118  96  73  48  38  59 134 166 109  58 105 157 184 211 235 243 247 248
 179 202 208 204 204 202 215 203 210 166  79  46  38  39  38  45  71  97 109 112 125 139 146 145 138 139 134 147 142 131 147 140 161 165 163 169 160 158 159 166 159 147 146 140 155 168 191 195 185 164 142 124 147 158 159 173 180 158 161 156 150 145 150 129 140 155 148 158 163 146 151 148 145 128 121  93  50  46  53  61 115 169  89  47  87 141 183 216 238 244 248 246
 187 201 208 196 191 200 204 212 201 200 129  53  45  55  25  45  68  84 101 109 126 135 153 135 131 143 138 145 145 147 133 153 160 150 159 157 167 160 169 161 155 154 133 137 156 170 175 186 175 157 141 129 134 146 169 174 169 181 169 162 169 155 151 150 158 156 158 168 167 151 148 144 138 127 116 100  65  33  48  60 110 169  82  50  66 110 171 218 238 244 245 247
 200 201 206 187 168 180 207 210 212 195 130  63  53  32  36  45  61  87 102 109 125 141 134 136 139 148 144 148 155 150 164 162 165 171 174 176 177 174 167 154 165 153 127 142 158 170 183 194 171 157 147 130 125 148 175 173 166 177 183 179 172 172 164 153 163 169 161 168 162 160 150 138 136 131 115  90  62  49  67  55  93 158  78  58  65  81 144 207 237 244 246 247
 201 206 202 184 150 161 199 210 209 198 130  49  47  28  52  60  67  77 101 108 124 139 138 141 144 144 149 149 162 155 166 167 171 179 173 172 176 170 161 168 165 143 137 140 155 156 178 191 178 160 148 127 126 146 174 167 175 165 177 189 189 189 168 158 169 166 166 166 159 162 155 146 133 127 115  92  71  76  47  60 120 150  87  61  80  80 132 199 236 242 246 247
 202 206 196 183 153 159 188 206 211 195 137  81  30  36  30  41  66  83 100 110 125 127 135 137 147 152 153 150 159 157 166 177 175 177 172 173 180 180 175 170 158 141 131 148 156 161 179 188 178 165 142 135 129 132 158 177 179 176 175 173 181 178 188 191 186 174 168 158 155 164 156 152 134 122 119  92  75  59  51  68 141 154  81  49  70  90 135 197 239 246 245 247
 185 201 186 173 151 151 174 208 207 190 140 104  30  32  22  50  59  88  96 104 114 125 135 138 149 146 142 155 165 162 166 180 171 181 185 171 180 181 181 170 157 138 141 152 150 161 179 213 178 164 135 133 140 142 141 157 173 176 168 174 174 181 177 177 179 176 166 147 148 160 150 148 129 125 112  78  65  35  49  72 145 148  75  36  58  89 148 209 239 243 247 246
 171 194 182 172 173 148 163 195 211 189 149 113  39  20  21  39  54  77  95 103 113 124 132 141 142 148 144 160 170 172 175 174 176 179 179 185 179 176 174 163 150 144 142 153 159 150 178 200 185 166 140 135 142 148 149 155 169 171 171 172 170 176 175 175 183 178 172 161 154 158 153 141 135 124 106  83  47  33  42 102 137 141  74  33  47  89 160 215 240 244 245 247
 175 190 177 177 187 167 158 184 210 190 147 110  53  21  20  34  58  79  94 106 114 124 131 131 144 146 142 161 164 169 169 170 170 173 180 182 178 176 170 159 156 157 157 152 156 152 178 204 182 157 136 141 151 164 164 162 165 165 172 169 176 179 175 178 175 178 167 172 159 146 137 136 132 116 108  66  42  24  35 122 162 140 103  35  45  95 168 219 241 246 245 246
 173 181 176 192 208 190 161 168 196 181 154 109  96  23  24  36  53  70  91 102 118 117 142 146 153 146 154 153 157 167 167 168 170 176 181 183 174 172 170 161 161 160 147 151 153 154 172 188 174 160 139 139 142 159 167 178 177 171 173 168 165 174 172 173 174 179 171 171 162 151 142 139 128 112 107  61  38  30  50 121 153 144 100  41  45  95 168 218 237 245 246 244
 169 177 177 195 208 200 177 172 191 186 156 107 119  34  21  23  35  66  88 101 114 118 135 144 136 149 154 160 158 167 165 160 174 187 185 179 182 180 176 168 158 150 144 140 147 158 173 183 178 168 136 128 130 148 152 178 181 188 183 175 170 174 172 177 175 170 170 166 162 148 137 129 124 124 100  66  44  38 108 150 143 136  59  38  45  91 168 217 238 246 244 246
 176 186 189 200 208 209 196 189 197 196 174 104 128  54  20  14  34  52  91 110 112 125 139 130 145 142 155 159 156 165 165 173 187 184 181 188 191 185 172 158 141 139 129 141 143 164 175 192 176 168 141 130 121 134 133 149 169 197 198 182 174 170 167 173 175 172 163 169 154 149 142 132 125 110  90  50  44  68 137 143 138 101  38  41  43  91 167 218 239 244 245 245
 191 202 202 206 207 206 208 209 209 206 204 137  98  90   9  22  28  52  81 104 113 117 133 135 142 139 153 161 169 175 171 177 184 185 197 202 189 171 166 138 134 138 129 133 145 168 172 181 176 172 146 134 118 139 136 127 156 174 193 198 179 168 175 173 167 171 166 169 156 151 147 129 120 110  82  64  48  93 130 119  85  39  34  37  47  88 165 215 237 245 245 245
 204 204 209 208 209 206 207 208 209 210 202 185 132  96  33  20  31  37  74  96 110 117 117 128 136 142 155 162 170 175 169 173 193 205 201 190 180 170 152 132 132 136 129 141 151 168 178 189 182 168 153 147 122 137 150 136 147 162 180 195 195 179 174 175 173 170 168 163 152 146 142 116 111 107  73  61  53  44  63  47  36  40  38  35  49  88 166 217 237 245 243 245
 204 204 209 206 208 209 207 208 211 205 202 178 148  97  64  40  37  42  61  86 111 116 123 128 141 151 167 170 172 179 184 188 203 200 190 182 161 157 157 133 147 144 132 144 155 170 182 200 193 172 162 155 122 140 155 142 142 166 168 176 199 190 181 179 183 168 167 160 145 136 139 122 131 100  65  54  34  36  28  41  35  36  38  41  46  91 168 218 238 244 245 244
 206 205 207 207 207 206 207 209 209 209 201 181 148 101  65  33  27  32  55  74 106 112 117 124 145 152 157 170 164 184 181 195 193 191 175 175 159 165 146 142 161 151 136 142 166 169 190 217 193 173 163 155 116 158 162 133 114 177 172 175 180 186 190 177 180 166 172 163 148 140 132 127 126  99  59  49  32  28  29  32  35  33  35  37  45  95 171 219 237 243 244 244
 206 206 206 208 208 207 208 208 210 207 204 186 159 113  68  43  24  32  46  77  86 100 110 124 141 153 160 168 167 176 184 188 178 178 167 166 165 176 131 151 161 166 127 144 159 173 201 211 189 182 159 144 126 169 162 147 110 185 180 177 177 184 187 169 182 174 168 157 147 142 131 117 108  84  63  57  37  28  28  30  34  34  35  38  48 100 175 222 238 242 243 245
 206 204 205 206 207 206 207 207 208 209 205 191 167 127  72  48  22  31  49  63  78  98 107 125 136 151 160 156 164 170 175 177 173 168 157 166 186 177 126 136 144 151 141 117 133 164 184 175 181 163 149 119 126 142 130 121 119 181 178 172 172 177 185 173 172 161 167 161 146 136 127 117 112  74  51  46  29  28  28  30  31  34  37  38  50 105 180 223 240 245 242 243
 206 205 205 206 207 205 206 208 208 210 206 196 176 140  86  49  27  25  45  51  79  84 107 123 135 145 151 161 174 169 166 165 162 155 154 174 186 167 142 118 129 128 110  85 100 137 154 160 164 135 110  74 104 127 120 106 141 167 174 178 173 169 176 168 175 158 164 157 148 138 121 112 109  68  49  52  33  27  27  27  30  31  36  38  51 109 181 223 238 243 243 243
 205 204 205 206 206 206 206 208 208 209 206 202 186 153 101  50  31  23  28  44  55  83 102 120 137 144 154 148 157 154 152 148 135 139 161 171 165 155 136 137 135 150 134  93  82  96 119 128 119 101  56  67 109 128 140 148 147 149 165 179 164 159 168 169 170 166 163 156 145 140 115 112 102  75  45  52  31  26  27  28  28  29  35  37  51 111 184 223 237 243 242 244
 202 204 205 205 205 206 208 208 208 211 209 206 194 165 113  59  33  18  23  45  53  71 109 111 131 137 140 138 147 142 129 115 124 150 158 149 151 139 126 139 146 120  82  80  92  92  87  95  97  72  89  75  89 103 125 113 136 137 155 164 156 154 151 163 167 166 163 155 141 121  88  82  64  58  56  40  28  26  28  29  29  29  33  36  53 113 185 225 238 243 241 243
 202 203 204 204 206 207 206 208 209 207 210 209 201 175 121  63  33  19  17  35  46  87  93 106 123 138 142 127 133 118  91 101 120 135 143 135 146 130 133 125 103 107  87  83  96 125  98 106 118 116  97  67  88  95 108 120 138 137 141 144 140 124 113 162 162 168 164 154 135 114 100  50  54  41  48  37  29  26  28  27  29  27  30  36  53 111 183 225 238 242 242 242
 201 204 203 205 203 207 206 208 206 204 209 208 204 187 134  67  31  20  24  36  47  68  88 115 110 128 132 121 115  70  75  99 119 128 124 106 122 121 127 128  86  97  85 108 117 102  83  69 113  87 121  87 111 112  78 112 139 132 124 119 120 112  90 127 151 168 163 149 135  84  72  67  57  50  56  29  29  25  28  28  29  26  30  34  51 110 181 222 238 242 241 241
 202 204 202 204 203 207 206 207 206 205 212 209 205 188 137  78  41  27  24  21  48  62  62  76  97 115 122 124  69  67 101  93  93 105 108 113 102  96 115  84  91  87  70  81 112 102  84  66 121 122 118  87 106  93  81 102 121 116 130 114 111  84 104  79 150 163 151 145 125  93  58  53  38  42  37  39  25  25  28  28  29  26  29  35  51 109 180 221 237 242 240 241
 202 204 204 205 207 204 207 208 208 208 209 210 206 190 143  82  37  18  23  40  53  43  70  85  88  85 124 111  53  67  70 100  96  89  95 114  83 113  85  98  82  60  74  98 101 123 100  47  91 113  99  83  76  80  77 121 123 121 105 101 121  77  78  62  74 138 153 132 133  69  54  43  42  50  49  30  25  27  27  28  28  28  31  38  54 107 187 221 236 241 242 243
 202 202 204 204 205 206 205 207 206 208 208 208 206 192 149  86  41  13  20  38  47  44  66  74  82 106 107  72  57  77  76  94 102  78  92  88  96  96  88  80  84  64  67  96 109  96  76  84  77 102  92 102  97  83  91  84 101 107 111  91 106  62  96  86  74 115 136 131 101  84  59  55  30  47  42  24  26  25  29  28  28  27  30  35  61 125 194 225 237 240 240 241
 202 203 202 204 205 203 204 206 207 207 207 207 207 195 153  88  49  17  23  32  44  54  40  45  73 111 109  89  46  79  64  75  69  87  74  81  82  94  84  86  76  75  70  78  98  94  78  77  72  85  95  99 109  76  84  79  94  94  97  87  90  99  91  73  71  89 129 125  87  67  44  50  54  45  34  29  24  28  28  27  32  37  44  59  97 152 202 227 237 242 239 240
 199 201 202 204 205 204 204 205 206 208 207 208 209 195 161 102  62  19  26  30  43  46  54  52  77  92 118  80  74  71  94  68  64  80  73  74  80  63  64  73  74  73  74  73 102 113  60  72 115 103 105  78  96  92  79  89  85  94  92  91  97  86  86  98  52  71  97 103  71  57  40  37  54  41  32  22  33  26  31  31  45  63  87 108 142 183 215 230 236 241 240 240
 200 203 203 204 204 203 203 205 207 207 208 209 205 200 167 126  79  19  30  17  34  46  59  44  69  87 104  99  64  77  80  56  57  54  48  68  79  84  64  66  90  70  88 101 113  89  92  81 111 112 104  90  98  87  93  91  91  90  87  93  80  84  93  78  60  72 109  99  72  52  58  50  37  41  29  27  29  28  28  42  70 104 138 158 183 206 225 233 240 240 238 241
 202 202 202 203 204 202 204 204 205 206 207 208 206 202 177 148 102  25  26  24  26  65  65  70  43  73  87  85  67  65  58  76  58  71  68  69  65  71  63  81  74  86 103  98  99  90 124 112 115 102  94  88 106  92  98 118  99  82  86  64  64  73  84  82  95  86  97  87  72  57  53  64  31  38  28  26  26  28  29  52  98 146 178 193 203 221 233 236 238 238 239 241
 202 202 201 201 202 203 203 204 204 206 206 207 207 206 190 172 124  22  19  15  34  51  54  69  44  37  87  74  81  59  55  69  78 128 129  94  92  78  67  58  58  74  92  86  90  88 101 102  94  96  95  78  80  80  77  97  88  76  73  69  67  82  88  68 107  96 108  60  61  50  48  39  44  29  26  26  28  30  31  63 125 178 203 214 221 230 236 234 240 236 237 238
 199 201 202 202 203 201 201 203 204 207 206 206 208 207 197 187 141  24  20  22  28  23  62  63  46  31  53  59  59  44  65  49  95  98 118 119 118 106 101 123 119 118 133 118 111  86  77  82  88  93  90  89  96 119 108 109 119 106 134 122  92  90  68  79  91  97  68  64  34  41  44  38  48  30  24  27  28  28  36  78 143 193 216 225 227 233 238 237 241 235 236 239
 201 200 200 201 201 201 203 204 205 204 204 206 208 202 212 196 177  26  25  14  34  16  48  57  37  30  25  49  48  34  30  62  87 108 114 120 113 125 128 119 127 134 137 153 149 155 138 165 141 130 116 120 132 132 137 125 115 132 108 105 105  73  60  63  77  91  47  41  48  38  38  50  43  28  23  25  26  29  42  87 156 207 227 230 232 235 235 239 236 236 237 238
 199 201 201 201 200 203 203 205 205 204 206 206 207 208 203 209 189  49  25  25  28  38  47  39  41  43  26  33  44  38  35  65  58  80 109 111 107 101 117 125 154 150 141 143 131 141 131 133 131 132 134 149 157 148 130 112 123 117 111  96  70  59  43  62  61  62  31  33  35  36  42  42  33  28  27  27  29  28  44  94 165 211 230 234 235 235 235 237 238 238 237 239
 200 198 199 201 200 203 204 203 204 204 204 205 206 209 205 204 187  24  20  18  30  35  25  39  59  42  29  17  38  45  44  28  57  84 107 112  88  89 109 112 139 147 159 151 158 160 167 160 162 164 153 149 130 120 118 119 109 122 114  69  62  57  32  49  53  45  32  38  33  40  51  39  32  25  26  24  26  30  48 103 173 214 232 233 237 233 234 236 235 238 238 237
 199 199 200 199 200 202 201 203 203 203 203 204 205 203 208 207 167  27  23  23  30  23  33  29  45  47  41  25  32  35  25  40  61  63  92  95  87  96  76  97 104 126 115 110 117 116 136 131 125 123 118 118 105 116 110 114  98 104  95  78  54  46  26  42  25  20  30  35  38  42  44  37  40  25  28  28  28  31  57 116 182 217 232 231 236 234 235 234 236 235 238 239
 199 198 199 200 200 200 202 203 204 203 204 200 206 206 208 205  84  31  10  25  22  33  32  21  38  39  37  30  17  17  29  44  36  44  63  90 107  72  83  91  86 104  85  95  85  92 111  89 111 103  92  98 108 109  92 116  95  90  82  52  50  48  36  34  22  20  30  28  39  39  30  29  28  23  24  26  25  32  64 129 192 218 233 234 235 233 234 234 235 235 237 238
 198 198 199 200 202 201 201 203 203 205 201 214 203 205 208 146  21  36  21  26  12  37  27  22  33  36  52  29  12  18   8  33  34  52  52  79  94  80  89 103  72  76 103  78  78  84  96  79  80 107  84 101  86  89 103  98  93  80  63  58  36  33  38  33  20  17  20  52  36  33  34  35  29  27  27  28  27  35  74 141 197 221 232 231 236 233 234 234 235 233 235 235
 198 198 199 200 200 200 201 201 203 195 205 200 209 203 202  12  35  37  30  25  36  21  26  14  45  36  43  20  33  17  33  25  32  37  61  66  89 109 108 105  81  86  82  75  79  75  82  68  83  79  79  95 105 131 116  82  75  64  57  63  41  33  36  14  19  20  16  37  29  31  42  39  20  27  28  27  28  38  87 153 203 223 234 231 235 233 234 234 234 234 235 236
 197 197 197 199 200 199 200 201 203 208 203 203 197 208 106  20  28  44  40  13  24  28  21  64  31  17  37  62  36  29  31  35  26  48  40  46  49  83 101 105 103  91  74  75  84  80  81  92  84  91 108 115 121 129 115  87  87  64  43  54  48  38  34  18  24  25  18  42  21  26  20  34  14  24  27  26  31  48  98 165 211 226 233 229 231 233 234 234 235 234 233 234
 197 199 198 200 201 200 201 201 203 211 204 196 185  27  19  21  28  49  50  17  29  22  24  22  27  48  40  29  49   9  14  26  29  27  62  64  64  67 103 120 136  92 100  88  90  90  91  90 125 113 108 122 140  85 111  60  90  69  52  44  47  28  23  12  24  19  26  31  42  26  42  25  13  20  26  24  32  52 113 179 214 227 233 229 232 233 235 234 234 234 233 235
 196 195 197 197 199 200 201 202 203 207 200 124   8  16   9  22  37  48  65  43  27  27  26  16  16  14  27  36  41  24   8  15  34  50  35  60  84  73  79 104 122 121 101 115 120 101 134  75 137 113 132 144 127 130  71  62  47  73  46  40  38  32  25  16  17  17  23  28  28  23  28  36  15  20  21  24  35  68 128 190 214 231 231 231 231 233 232 234 235 235 234 233
 195 197 197 198 198 200 199 201 201 205 156   7  13   7  12  18  42  43  68  60  29  30  26  36  17  16  18  42  28  21  17   4  28  39  59  53  94  72  91 113 126 109 115 142 132 140 151 121 145 163 129 138 100  61  83  82  68  63  22  46  27  25  19  15  26  24  34  23  29  39  39  29  10  13  22  17  43  81 150 200 220 230 231 231 232 232 232 233 234 234 234 234
 196 194 195 197 198 197 198 200 202 193   6   6   8  13   9  10  35  47  60  59  35  27  42  31  27  17  35  22  33  30  13  14  31  26  54  55  36  62  83 103 105 121 138 139 156 144 154 147 170 110 128 116 114  66  99  79  69  55  37  36  28  22  21  23  10  11  18  28  24  40  32  22  14  15  18  14  29 100 166 208 224 230 230 230 231 230 232 233 234 234 234 233
 193 195 196 197 197 198 199 199 200 140  24   5   2  10  10  14  19  51  71  63  56  42  35  43  31  27  15  24  32  14  24   6  12  22  51  21  61  49  72  71 122 118 121 110 158 164 150 146 133 140 136 125 105  81  75  44  62  38  50  57  30  12  20  22  23  21  25  25  43  52  39  27   9  14  12  19  14  73 181 213 226 228 230 230 231 231 231 232 234 234 234 234
 195 195 196 197 197 196 200 197 203  33   5  14   8   7   8  16  14  44  80  81  63  39  37  38  25  29  20  14  23  26  21  16  18  16  41  46  49  29  65  78 106 119 127 152 156 165 157 155 137 149 124 103 102  78  65  65  47  50  34  36  23  14  15  18  28  21  14  27  49  42  49   9  14  15  14  17  19  16 152 222 225 230 229 229 231 230 230 231 232 232 232 233
 195 194 195 196 197 198 201 195 197   5   9   9   9  10   8  11  11  26  53  76  64  61  55  54  36  28  20  16  29  26  22  17  20  12  14  33  43  47  68  73  83 128 142 136 142 135 174 169 122 133 119 129  62  69  62  42  52  42  35  24  22  25  14  19  19  36  33  46  58  49  43  13  17  10  16  23  15  26  66 219 229 227 228 226 224 229 230 230 232 233 233 233
 192 194 194 196 196 197 188 213 123  11  10   7  15   7   8  12  15  19  57  85  86  66  53  65  42  25  27  13  16  18  15  19  15  15  20  29  28  38  42  68  88 111 123 128 126 129 113 122 142 117  88 106  87  64  41  78  57  42  42  25  28  12  15  12  20  21  42  67  53  46  42  14  14  11  19  24  14  19  14 159 224 232 224 228 232 229 229 230 231 231 231 232
 194 192 194 195 195 197 201 182  16  11   5   9  10   9  12   7  11  16  30  74  84  71  77  50  53  41  46  39  21  17  27  32  15  19  19  14  39  32  33  77  81 109 108 120 102 112 131 109 123  99  83  91  73  61  38  65  62  22  20  15  15  17  24  26  32  50  85  77  50  53  47  15  18  13  24  20  16  11  23  29 190 220 232 231 229 229 229 229 231 231 231 232
 193 194 194 195 194 195 195  92  19   6   8  11  11   9  11   9   8  13  16  84 108  78  68  76  88  72  51  32  39   9  13  12   6  11  15   9  14  49  41  52  69  66  95 107 112 110 135 120  88 103  82  75  37  54  32  31  39  27  18  24  22  10  23  13  17  61  89  75  55  56  51  27  19  12  24  19  15  18  19  24  29  49 106 198 220 222 235 222 233 234 231 231
 193 198 186 196 197 196 137  10   4   5   9  10  11  10  11  12  12  11  20  41  96 105  89  73  77  59  92  67  41  43  12  18  18  18  10   9  17  46  40  30  63  57  74  92  68 116  83 107  93  84  63  51  49  32  48  10  24  23  11  17  13  15  17  29  63  86  81  73  62  60  44  26  11  12  24  15  16  25  21  25  26  14  34  35  37  71 146 210 225 233 231 235
 193 188 196 190 201 121   9   8  23   9   9   7  10  13  12  12  11  12  13  29  86 100 108  86  79  82  45  73  59  42  32  14   4  13  15  12  13  24  19  19  45  41  65  61  72  77  54  70  72  51  60  54  34  34  30  24  11  21  15  19  19  29  25  50  81 104  87  77  53  66  49  25  12  14  23  16  20  20  17  24  23  20  15  27  26  24  23  38  63 113 186 229
 191 191 198 185  81  14   9  12   3   6   9  11  11  14  11  10  12  11  14  20  48 113 107 108  88  69  80  69  64  71  54  53  36  22  12  16   9  12  10  17  19  26  39  55  50  46  33  45  55  50  41  28  41  24  20   7   7  15  19  20  25  29  61  85 101  91  96  80  66  71  48  33  39  16  18  17  16  16  19  19  24  25  21  23  25  28  22  25  26  29  36  55
 187 190 130  22  13   7  10   9   2   7   8  11  12  17  13  11  11  12  15   7  15  88 114 101  93  82  78  96  61  76  85  92  64  46  39  33  14  12  10  16  10  24  18  25  24  35  27  30  27  30  29  31  21   8   7  21  15  19  24  23  37  51  83  62  87 100  90  70  75  69  55  41  35  14  15  13  13  20  22  17  23  24  23  12  18  24  25  22  23  25  25  30
 189  72   0  16   8   8   9   9   4   9   9   8  10  15  14  13  13  15  15   7  21  38 112 112 109  97  72  85  94  90  78  89  86  92  59  54  64  29  51  20  15  15  13  10   8  13  11   3  18  20  14   4  19  18  37  34  43  23  35  67  63  80  90  70  89 104  95  91  82  72  55  49  33  15  19  11  15  19  25  21  22  23  25  17  13  18  24  25  23  23  22  25
  26  14  13   8  13   8   9   4   5   9   9   8  12  13  13  10  15  15  11  14  21  18  86 110 102 116 113  88  94 102 105 107 109 119  85  99  65  83  51  84  76  35  44  21  25  29  22  21  15  15  28  38  39  49  81  60  44  43  64  60  70  77  87  73  90  93  93  92  81  71  54  51  46  16  17  14  15  22  24  23  20  25  26  21  15  13  19  25  25  22  21  24
  17   7  14   7   7   4   4   6   5   9   9  11  15  15  15  15  15  17  18  14  10  19  22 113 124  98  94 115 107 100  75  56  91  96 116 103  89  76  61  90 102  99  80  84  66  63  78  50  51  58  50  47  37  48  44  46  52  52  81  92 103  69  99  92  92 100 109  84  81  81  66  57  60  20  15  11  16  21  17  22  21  24  25  25  18  15  16  21  24  23  24  17
