P2
# Generated by OpenCV 4.2.0
92 112
255
 226 227 229 230 227 229 229 226 226 225 228 225 226 226 226 226 227 224 226 225 225 226 227 226 228 227 224 224 226 226 226 221 227 224 226 226 231 221 230 230 225 220 227 228 223 218 228 223 222 223 221 219 220 221 220 214 215 217 217 215 218 216 214 214 213 217 212 208 210 212 210 218 216 217 214 212 208 214 215 204 209 208 201 212 205 206 201 191 189 190 185 194
 227 224 226 229 226 228 227 225 226 226 226 227 227 226 226 227 228 227 226 225 226 225 227 226 227 226 224 225 226 226 226 225 225 228 220 223 226 228 226 227 225 223 224 229 223 221 223 221 224 225 215 221 221 220 217 217 220 219 219 216 215 217 217 216 214 215 218 212 214 214 210 215 212 212 210 214 214 215 208 210 209 210 210 206 204 201 199 202 195 184 189 191
 228 225 226 228 228 228 227 227 226 226 227 228 229 228 228 229 229 227 227 226 226 225 227 226 227 226 225 226 227 227 226 226 225 224 218 222 216 216 206 203 195 217 221 219 225 216 218 220 220 223 222 212 215 219 220 224 220 215 221 217 214 213 215 213 211 215 217 214 214 212 212 214 210 211 207 214 215 214 215 205 205 206 209 203 205 207 205 197 194 190 186 186
 228 227 229 230 230 230 228 231 226 226 227 227 227 227 226 226 228 227 228 227 227 225 226 226 226 225 225 228 227 228 228 227 227 217 225 218 221 211 213 222 186 203 195 217 209 188 216 224 220 222 224 216 218 219 218 219 216 222 218 217 215 214 215 215 211 214 213 214 217 216 218 215 213 213 210 214 212 214 214 211 214 210 206 200 198 207 196 192 196 191 194 185
 229 227 229 230 230 230 228 227 228 228 228 227 228 228 225 226 226 228 228 225 225 227 224 227 224 226 227 225 227 225 231 232 222 182 120 140 155 119 159 114 111 117 121 117 122 128 171 170 160 161 211 223 215 219 216 200 211 219 216 214 219 214 213 213 213 215 213 214 217 217 213 212 214 213 213 215 213 213 216 215 208 209 203 203 203 203 196 190 196 192 190 191
 229 227 228 228 229 230 229 227 228 228 228 228 228 228 229 226 226 231 228 224 225 224 224 225 226 224 227 229 232 208 181 172 121 116  98 131 126  99 105  96  93  95  80  83 105  85  67 120  97 108 179 206 196 211 216 200 213 214 220 221 213 214 212 212 213 215 212 214 216 214 210 215 215 213 215 216 212 215 213 215 209 208 201 207 202 205 191 194 195 193 191 189
 229 229 228 228 227 228 229 229 229 229 229 229 229 229 228 229 229 230 228 226 225 227 225 227 225 227 224 213 216 204 154 105  97  93  96  81  91  94 101  85  96  89  91  99  86  76  86  94  88  77  86 106 142 150 196 191 207 206 189 215 206 216 215 216 219 215 212 213 213 215 214 216 214 212 217 217 213 215 213 214 211 209 205 202 206 198 197 186 195 196 199 185
 230 229 229 227 227 229 229 229 227 229 229 230 226 227 228 228 229 227 225 225 223 220 225 229 224 219 211 219 212 139  90  93  70  99  93 100 108 106 106 110  89  92 106  97  94 108  95  85  71  95  82 109 107 116 136 144 166 131 156 219 220 213 211 211 219 213 208 223 216 214 211 210 214 217 218 219 214 215 216 211 208 209 209 208 206 201 203 192 192 194 193 190
 230 231 230 227 227 228 228 227 228 227 228 229 226 228 227 226 227 226 221 232 229 228 226 221 201 196 193 146 109 101  86  62  79 102 102 131 114 123  89 118  96 104 105  97  95  99  68  91  91  96 116 104  86 128 114 124 128 102 119 129 144 176 204 226 210 212 212 215 215 213 214 215 216 215 214 216 217 219 213 216 213 210 209 209 207 201 205 200 198 192 187 194
 230 231 232 229 228 230 229 229 228 228 229 229 227 228 228 228 228 228 229 228 207 203 192 191 169 146  95  92  91  84  83  81 103  95 112 112 109 119 101 111 100  79 106  81  87  78  91  97  95 118 112 102 141 155 127  94 103  98  99 132  98  86 108 140 214 191 212 217 218 214 215 214 215 218 222 217 215 218 213 215 214 210 208 208 205 205 203 203 199 190 195 190
 231 231 231 229 230 230 228 228 227 228 228 228 226 227 227 234 223 232 236 219 204 204 163 152 154 115  87  84  84 104  94  84  90 121 104 108 114 119  99  95  90 112  84  79  69  82 100  90 104  91 116 129 158 170 158 150 123  91  94  87  83  85 125  97  97 175 181 207 226 213 217 219 214 215 215 218 217 218 210 216 208 210 204 201 207 204 199 202 202 194 195 195
 229 231 231 231 230 229 228 229 229 227 226 230 228 225 230 224 228 207 203 203 173 209 119 109 108  88  93 110 100 118  76  91  90 122 107 114 114 132  97 102  91  87 104  69  68  91 108  88  85 125 133 145 175 176 168 170 161 148 113  90  88  89  91  93 139 104 189 176 193 225 215 219 218 217 217 218 217 216 212 212 208 208 209 211 206 200 201 196 195 200 194 194
 229 231 230 231 230 229 230 228 230 228 227 230 230 229 226 223 199 232 232 222 167 120 118 102  78 104 112 114 121 110  70  98  93 117 107 119 132 141 119 125  92  91 104  81  97  92  93  92  97 155 146 170 182 175 168 170 166 167 160 122  94  79  84  98  92  97  98 160 152 217 221 218 219 218 219 217 217 215 213 211 210 210 201 207 208 203 203 200 198 197 195 199
 230 231 230 231 231 229 230 230 230 229 230 229 230 229 224 198 227 210 197 140 101 108  83  82 108 124 146 119 125  94  69  97 101 128 121 111 145 164 128 150  96 115 104 105  76 101  97 105 118 147 169 180 179 186 179 180 185 179 171 156 131 105  90  67  79  61  75 103 150 214 213 218 217 217 217 218 218 214 211 211 208 206 200 208 205 206 201 202 203 204 203 188
 231 231 231 232 228 228 229 226 230 229 231 233 231 230 217 219 222 155 109 108 117  94  78 116 147 151 134 127 130 114  88 101 119 122 127 125 138 170 141 141 111 114 125 129  89 116 106 114 140 154 176 186 189 193 187 182 183 182 178 172 162 136 107  85  66  57  55  83 117 144 223 214 219 220 218 217 215 216 214 211 209 209 202 203 204 207 209 203 208 202 201 196
 231 231 231 232 229 228 230 228 228 230 230 228 230 229 204 186  97 113 128  86  81  76 119 157 161 149 165 140 152 137  94 100 120 133 132 138 148 159 146 154 136 122 132 154 116 143 134 144 166 181 187 179 191 197 196 190 186 188 182 183 176 159 130  99  78  71  70  44  49 188 144 222 220 220 214 214 217 216 215 212 211 213 210 210 205 202 205 206 200 201 204 199
 231 231 232 232 230 230 231 230 228 227 229 229 228 225 198 151  94 113  75  78  96 130 158 161 176 186 157 160 146 164 106 117 122 156 142 156 150 160 160 161 159 139 148 152 134 161 163 179 186 194 190 192 199 195 197 200 193 191 187 182 187 181 160 122  94  75  56  48  47  53 151 218 218 215 213 216 217 213 216 216 213 205 206 207 201 207 206 208 206 205 197 202
 230 231 232 232 231 230 231 230 230 232 228 230 231 208 152  80 100 103  91  92 131 153 165 173 187 186 184 160 150 175 143 134 146 164 163 164 175 163 176 161 174 166 174 180 175 175 178 192 195 199 200 192 206 197 194 202 200 197 190 184 186 185 177 158 127  84  68  55  44  45  51 213 223 220 215 218 217 214 215 215 211 209 205 206 203 205 203 205 201 204 198 196
 231 231 232 232 232 230 232 231 229 226 228 228 230 167 103 129  89  80  69 124 167 177 171 195 187 174 196 175 174 154 169 156 151 179 187 189 176 172 178 179 178 169 185 192 189 184 193 196 206 205 205 206 198 201 200 192 195 199 198 188 184 198 190 168 145 108  79  69  48  37  25  80 218 212 219 217 215 215 213 214 208 209 212 206 209 206 204 206 199 199 197 197
 230 229 230 230 230 230 230 230 230 227 227 232 216 119  71  63  74  78 111 168 180 178 193 198 199 192 195 193 183 179 169 165 182 179 193 186 194 192 185 194 185 192 191 200 190 198 202 199 204 207 207 205 203 205 198 195 192 194 194 192 185 190 200 186 162 143  96  72  67  47  32  34 117 231 215 219 218 214 215 214 209 207 210 207 204 207 197 200 203 201 197 198
 231 228 229 229 228 230 232 230 230 229 233 239 150  78  57  64  74  72 153 178 185 180 200 203 203 199 183 199 190 190 190 177 184 186 201 197 197 196 194 195 197 194 199 189 203 203 208 204 207 205 206 211 203 199 203 196 195 190 192 192 187 181 195 196 173 158 130  80  53  45  45  31  54 171 231 217 221 211 209 214 212 215 206 205 207 208 207 203 203 203 201 197
 230 229 230 230 229 231 233 232 233 231 224 198 165  58  72  80  78 127 168 181 192 199 196 199 200 198 195 190 201 193 190 207 188 196 192 187 188 193 199 204 198 199 198 206 196 201 206 205 206 200 203 201 204 204 201 199 195 199 194 191 193 186 179 195 186 165 162 115  78  44  33  28  25  97 211 217 219 215 215 215 210 210 211 211 204 209 209 204 201 198 205 201
 229 230 230 229 230 230 231 232 233 232 231 166  98  65  76  91  99 169 180 195 194 197 199 202 201 198 203 199 196 204 196 188 190 200 199 200 197 199 193 192 204 205 201 195 199 200 203 203 205 204 202 205 202 200 202 198 199 197 199 195 197 195 188 176 193 174 168 144 100  67  42  28  27  61 220 220 217 214 215 214 213 214 209 209 210 208 209 205 205 199 207 202
 231 230 231 231 231 232 231 232 227 235 228 148  81  59  84  72 144 187 185 199 195 197 202 200 207 202 205 202 203 206 200 205 205 191 205 197 200 196 198 195 199 200 201 203 200 201 200 200 198 204 204 198 200 202 205 201 196 197 198 198 195 196 194 185 175 182 175 161 118  75  49  28  36  10 140 216 214 217 220 215 211 212 211 211 211 204 206 204 206 202 201 197
 231 231 229 231 231 229 233 232 232 228 228  88  51  58  75 103 174 184 187 203 201 201 203 204 208 208 205 205 203 203 199 200 195 196 197 191 196 201 195 191 193 201 202 198 200 201 200 195 199 197 200 202 199 197 199 200 199 196 201 195 194 192 194 195 180 174 183 176 143  91  55  44  43  33  22 199 224 210 216 213 210 214 212 209 209 203 207 203 205 204 204 203
 231 229 227 231 231 230 232 233 231 231 191  62  44  78  73 138 187 173 196 201 201 201 204 206 206 207 208 208 207 207 205 203 201 200 195 194 197 197 195 193 194 191 197 196 198 194 197 197 191 190 194 200 197 194 194 193 194 195 193 192 192 194 195 196 190 171 187 186 154 110  73  50  29  34  23 130 222 218 212 211 213 209 212 213 209 203 206 200 205 203 204 194
 231 232 230 230 230 230 232 232 232 230 175  42  51  84  95 168 180 180 198 200 195 200 200 206 198 203 203 205 203 206 202 202 199 199 196 193 194 194 195 188 186 193 192 200 191 191 193 188 191 193 187 193 191 192 190 190 191 192 193 197 190 194 195 190 191 166 184 191 175 135  92  59  54  22  34  71 221 222 209 215 216 210 211 211 206 209 209 203 204 204 202 201
 231 232 229 230 230 231 230 231 226 247  85  37  69  65 142 178 173 184 193 195 196 200 195 200 201 200 200 198 198 201 201 196 198 196 194 192 189 193 188 190 190 194 188 192 190 191 193 188 189 191 191 187 190 186 189 187 191 193 192 191 190 187 193 189 180 175 174 185 182 151 114  59  54  55  22  21 220 202 212 214 212 212 219 211 207 205 206 203 205 209 202 206
 232 232 232 232 231 232 230 228 232 224  57  41  61  89 160 180 173 187 191 193 193 192 193 198 198 192 194 200 197 202 198 197 198 198 197 190 193 187 192 190 195 186 188 187 190 190 197 190 187 187 190 192 188 182 186 192 189 186 194 188 189 191 187 187 174 170 174 182 183 160 135  81  56  56  22  17 113 226 212 216 217 216 214 212 216 209 208 200 205 208 203 202
 231 229 230 232 232 232 230 225 231 195  41  34  67 119 167 172 181 191 193 192 190 192 192 191 193 193 196 194 195 198 195 195 191 191 192 195 187 190 190 189 188 188 191 192 192 191 193 190 185 185 183 185 188 186 186 184 175 186 188 190 185 180 186 179 173 171 174 178 178 162 144  89  65  57  45  26  62 217 215 211 213 218 216 215 206 208 205 212 207 204 206 202
 230 229 231 231 231 230 234 225 202 177  47  44  85 140 171 170 185 189 191 190 186 184 186 190 191 190 194 197 194 195 191 189 192 184 190 188 187 189 187 186 183 192 194 196 189 187 190 185 184 189 187 176 188 183 179 172 180 181 177 185 181 185 179 175 168 171 162 181 178 160 150 110  68  35  36  25  67 198 210 212 210 219 209 211 208 211 207 203 203 207 208 198
 230 231 232 233 229 232 229 232 222 108  62  53  92 148 173 167 180 185 183 183 186 186 185 185 193 192 190 191 192 191 191 186 191 186 180 183 191 190 187 187 190 195 184 184 191 191 185 184 185 186 181 173 179 178 183 187 182 185 179 184 182 180 183 169 165 159 162 172 174 168 151 111  66  41  24  27  51 172 209 215 215 208 214 210 208 211 208 205 204 208 208 209
 231 231 231 232 230 232 229 226 229 130  65  63 105 158 171 166 176 183 186 181 180 172 183 184 185 186 186 190 188 193 190 189 192 181 191 189 191 193 197 187 193 187 192 195 197 196 191 183 184 185 179 178 183 180 174 178 177 185 175 183 179 175 177 172 170 160 162 164 164 168 146 118  75  52  26  22  27 102 206 217 208 208 214 212 209 210 215 209 208 207 210 207
 232 229 231 231 232 232 233 214 173 153  31  64 109 164 168 162 177 180 180 180 176 182 181 183 184 189 185 190 192 185 192 193 190 199 185 192 195 192 192 186 200 210 207 199 202 191 187 189 179 185 182 183 178 178 180 173 180 177 183 179 186 185 169 173 167 159 156 169 165 165 147 126  87  54  33  23  24  90 183 207 207 215 213 215 206 211 210 214 211 207 209 211
 233 230 232 232 232 230 232 235 171  76  56  78 126 166 164 156 172 179 178 179 182 182 179 179 178 184 183 183 186 191 191 191 192 191 188 188 190 195 192 189 193 197 195 197 186 204 197 200 184 183 180 176 177 181 178 175 177 180 180 181 179 181 177 172 166 161 155 163 165 158 141 106  90  64  47  27  25  46 201 207 219 215 211 215 214 216 215 211 208 208 211 208
 233 231 232 234 231 234 231 238 171  40  45  90 130 162 161 151 172 175 175 176 181 179 174 174 174 176 179 180 185 189 192 191 189 190 187 187 193 194 195 190 193 195 202 190 205 209 210 187 187 175 182 186 177 174 177 178 175 177 179 178 179 182 175 172 167 163 157 160 161 156 137 115  79  62  43  35  26  64 194 211 219 220 216 215 218 219 217 212 213 207 211 211
 235 232 232 234 234 232 234 231 177  29  37  82 125 159 160 148 159 168 172 177 170 179 173 177 177 177 184 175 182 188 189 194 191 190 193 196 195 194 189 187 192 203 195 199 205 188 190 185 193 192 182 181 180 182 181 180 178 183 180 178 182 181 172 166 163 159 152 158 158 149 143 106  76  53  54  34  43  65 180 216 216 213 216 212 214 217 218 216 216 209 213 213
 232 233 234 234 232 232 231 232 157  26  56  74 132 150 147 151 146 162 170 173 174 173 173 171 174 179 178 182 180 186 189 190 192 193 191 198 193 195 192 194 193 198 196 192 187 192 204 194 188 186 185 178 184 181 180 175 172 175 174 173 173 176 172 168 162 163 152 151 154 152 130  97  78  53  59  30  42  80 164 181 213 219 217 220 216 214 216 213 216 211 210 214
 233 231 232 232 233 233 231 229 179  34  44  71 119 146 149 143 146 159 170 170 164 171 178 178 177 176 180 180 180 184 189 196 194 192 191 198 198 195 193 191 194 185 186 191 196 188 193 192 189 191 190 181 180 176 168 177 181 188 184 180 175 172 169 160 164 162 147 148 148 151 127  88  67  59  48  33  25  83 195 169 212 212 218 219 212 217 216 215 216 217 214 214
 233 231 232 232 231 231 232 231 187  62  42  70 110 146 151 145 148 149 162 170 172 173 177 178 179 175 178 178 182 185 194 191 190 189 189 184 189 192 187 185 189 194 191 189 191 197 192 193 189 195 190 194 185 185 182 185 185 184 184 182 175 173 170 165 165 159 154 142 148 145 126  98  56  50  58  22  39  81 177 159 183 214 217 215 220 219 215 218 215 218 215 215
 232 233 235 232 231 229 232 240 165  49  40  61  99 140 147 143 154 153 167 172 172 167 177 178 181 181 176 185 186 188 189 189 188 186 195 193 195 190 190 186 191 198 194 192 189 198 195 198 196 195 192 190 187 187 185 183 180 183 179 181 179 178 168 166 166 156 153 147 149 140 118  81  55  44  35  32  28  25 119 151 160 214 217 221 219 219 217 219 216 219 215 213
 232 233 234 233 234 232 229 237 150  51  46  65  93 129 140 146 148 156 157 163 168 173 169 173 175 181 177 181 180 182 194 187 192 192 189 193 192 186 189 191 191 193 193 196 197 193 197 196 190 193 193 193 188 188 186 187 190 184 180 178 176 173 176 172 157 158 151 150 153 141 111  80  49  49  26  38  32  40  89 168 150 217 218 218 217 216 219 217 219 216 213 222
 233 232 232 234 231 229 232 232 163  65  54  59  79 115 136 141 151 155 157 171 169 178 170 170 166 174 178 176 180 196 192 197 189 192 194 192 195 196 188 189 195 198 205 199 193 202 198 190 198 195 191 190 189 189 187 188 180 180 183 179 180 178 172 171 168 160 154 156 148 141 109  64  57  34  23  26  30  61 166 114 181 214 217 217 219 216 219 218 216 220 217 217
 231 230 231 233 230 233 232 218 159 102  37  47  66 110 135 143 143 155 165 162 168 162 172 177 183 178 186 189 185 195 189 193 193 193 194 191 192 194 192 188 199 198 210 202 199 199 205 200 196 193 191 183 182 184 180 180 181 180 178 180 180 187 175 167 165 156 154 149 144 148 113  78  50  35  31  27  39  43  89 128 181 215 216 217 221 218 218 220 220 217 221 216
 231 233 233 232 231 229 231 231 182 132  34  43  42 109 124 138 147 156 157 159 170 177 177 178 176 178 184 185 186 190 187 191 194 195 198 196 197 198 184 189 196 209 199 193 219 204 215 204 190 187 182 177 188 183 175 176 170 171 171 171 174 180 179 172 161 153 155 147 152 153 124  83  52  30  42  29  30  37  80  92 195 211 214 220 222 217 217 218 220 218 219 219
 232 234 234 234 232 229 228 223 174 125  45  32  40  91 127 138 149 156 160 170 170 175 175 176 176 180 179 177 179 182 188 192 192 188 192 193 202 202 194 187 197 201 202 204 207 204 202 188 190 179 183 176 178 172 168 159 147 138 131 137 154 185 179 174 168 153 153 155 154 151 137  68  46  39  38  42  42  46  86  64 182 212 215 220 217 217 218 218 218 216 220 220
 234 231 232 232 230 228 226 226 181 187  61  32  36  65 119 142 150 155 158 163 174 174 176 172 172 180 174 176 177 179 183 183 188 193 197 200 206 205 194 180 193 205 198 197 189 191 187 178 174 170 175 168 153 127 116 111 108  95  90  95 113 150 169 165 160 153 157 155 159 156 141 100  54  47  40  29  42  43  43  47 140 197 217 215 219 220 221 219 219 218 216 220
 231 233 233 232 233 234 233 213 172 121  89  41  42  60 106 134 151 152 151 163 169 171 174 170 167 168 176 173 174 173 177 183 182 180 191 185 198 200 181 178 187 190 189 192 182 182 175 179 174 175 149 142 102  94  86  81  87  89  90  96  83  99 133 157 165 154 159 153 154 158 152 121  77  60  25  49  21  64  33  45 125 159 209 215 219 217 220 220 218 220 214 220
 231 233 233 231 230 237 236 205 178 166 103  51  74  38  93 135 149 153 157 165 168 173 170 172 171 169 169 165 167 168 168 174 182 178 180 191 191 194 173 179 186 170 189 188 183 170 173 169 152 127  93  80  70  72  70  68  66  61  57  63  69  56  57  83 109 144 151 149 166 163 157 133  82  58  45  40  53  54  49  60 112 128 168 222 214 220 218 221 219 220 216 217
 231 233 232 232 235 231 228 227 215 159 105  56  46  42  89 138 149 152 151 165 168 161 158 159 159 161 154 153 148 156 157 172 173 170 174 177 179 189 171 168 180 186 171 173 159 163 158 141 123  81  58  44  42  44  50  68  80  82  71  46  48  55  62  65  68  76 138 152 160 164 158 149  98  56  43  24  36  49  46  73 103 112 138 217 217 218 218 222 218 220 219 217
 233 231 232 231 230 232 230 213 219 137  91  67  32  60  70 142 147 152 154 164 162 132 109 121 107 117 128 124 135 131 148 109 130 158 158 161 179 178 168 172 178 171 171 171 154 136 134 123  81  62  46  40  51  65  88 114 116 109  87  85  76  70  72  63  69  84 117 147 162 168 162 157 115  59  32  32  52  37  79  97 131 137 142 201 215 218 221 224 218 219 219 215
 233 231 230 229 230 231 225 224 218 150 189  78  34  64  57 144 150 152 149 164 152 105  89  87  99 102  97 104  74  62  56  68 105 120 143 154 167 171 162 171 171 169 175 161 152 144 107 112  84  75 102 135 146 164 185 184 157 146 147 124 116 108  94  73  57  80 115 145 162 159 167 162 130  72  38  40  49  46 100 109 158 159 159 187 213 216 219 220 218 218 217 218
 232 230 230 230 227 230 226 222 214 180 128  94  32  44  51 145 149 146 147 139 106 106  81  84  97  79  75  78  66  41  40  51  57  98 112 144 159 160 166 163 171 188 165 160 146 138 126 110 118 152 142 116  87  56  47  46  70  98 122 141 126 111  93  95  91  84 101 123 148 161 166 161 138  86  48  22  31  66  69  91 142 164 178 172 210 215 216 218 215 215 213 216
 228 230 230 227 231 225 225 218 230 213 153  96  30  33  53 152 150 147 112  86  79  57  72  69  69  52  66  57  37  37  51  47  47  48  80 124 149 170 166 161 173 173 161 161 154 140 129 121 150 134 111  79  60  62  74  49  48  56  33  51 110 120 126 117  94 106 117 121 152 169 161 159 143  98  59  56  36  64 118 112 121 136 171 163 214 216 217 219 220 218 219 212
 228 229 230 231 228 230 228 227 217 197 203 100  36  29  39 152 152 110  73  68  68  59  54  57  49  63  93 124 160 149 137 127 130 123  97 100 142 158 169 171 175 171 166 160 154 141 123 133 120 118 111 156 141  52  39  32  52 108 115  59  43  78 120 133 128 124 125 144 162 163 163 160 146 105  72  59  34  37  92 118 137 146 148 161 212 215 220 219 216 216 217 217
 226 230 230 231 229 229 227 226 217 223 190 101  49  42  47 152 158 109  85  62  54  54  68  89 112 133 137 111  66  52  56  81 120 117 133 111 119 151 164 177 171 175 177 158 148 139 136 133 128 131 114 182 192  91  60  59  59 129 111 113  89  72 111 124 132 138 148 162 160 162 167 159 149 113  85  65  38  41  72 112 140 157 157 164 211 215 215 217 213 216 218 217
 225 228 228 229 229 230 229 215 219 207 201 137  73  45  51 159 150 128  86  62  66  73  96 115 113  74  49  24  43  64  41  49 101 146 135 132 122 140 168 174 184 184 179 165 154 147 135 143 160 111 111 124 136 133 123 134 109 113 110 130 125 126 124 124 127 131 141 149 158 161 163 158 149 114  86  51  45  42  73  74 149 165 148 170 202 213 215 218 218 218 218 218
 226 230 228 229 228 224 227 218 219 208 205 175  64  48  59 158 158 136  96  82  77  98 107  91  34  62 142  54  43  56  50  69 191 123 123 165 134 139 157 178 183 187 177 170 157 153 154 141 163 162 156 140 141 134 132 135 143 144 132 136 151 154 160 153 143 149 156 155 161 165 161 157 144 116  78  65  34  46  50 102 159 179 149 170 195 208 210 216 218 219 214 214
 231 226 228 229 227 225 228 225 217 206 207 199 118  65  73 158 158 128 100  90 101 112 101  46  43 105 140  88  60  61  81  97 125 120 103 159 125 147 157 174 190 194 182 171 163 149 153 147 172 157 149 138 136 144 157 151 154 145 139 145 157 165 144 169 172 161 156 170 169 164 164 153 145 115  71  64  48  34  68 114 158 176 145 176 194 207 214 215 218 214 212 215
 226 222 229 232 228 227 226 229 220 218 203 204 161  71  79 152 156 136 135 126 116 119  97  77  97  84  89  95 129 128 152 149 154 160 164 167 139 146 154 176 193 195 190 177 167 146 147 157 157 160 164 165 155 145 136 141 144 133 138 146 152 149 166 175 173 174 167 161 167 167 163 153 146 119  79  49  48  59  89 127 159 168 143 171 195 202 205 211 214 212 213 209
 227 228 228 230 227 226 226 223 220 217 204 190 173  61  80 153 151 145 139 136 140 125 123 129 130 126 140 147 158 151 169 163 156 160 167 159 148 141 158 177 191 185 188 180 167 156 145 157 165 165 160 157 167 160 170 166 173 170 172 168 170 165 172 170 164 167 165 171 161 164 159 149 141 116  70  66  38  82 125 129 164 166 144 163 198 199 204 207 211 210 210 212
 222 228 230 230 229 227 228 221 222 217 213 205 178  51  75 139 145 150 144 133 140 131 153 158 144 139 145 151 155 153 156 156 156 161 160 152 160 146 163 175 190 189 183 180 176 160 152 159 159 171 170 169 164 177 173 174 173 180 162 162 174 171 174 171 166 163 168 168 163 158 162 149 139 110  81  55  42  75 129 121 155 172 139 172 183 197 201 205 200 208 211 208
 229 230 228 226 231 231 227 226 224 221 201 206 173  41  74 129 148 157 157 158 149 154 154 156 155 149 146 146 150 155 160 171 171 167 156 163 157 150 166 175 186 185 184 184 179 166 157 153 167 175 170 177 179 168 173 182 177 177 175 169 177 175 175 173 177 173 164 166 167 167 151 153 139 101  83  47  40  90 126 127 157 155 155 176 185 192 199 202 206 205 206 205
 229 226 225 222 211 215 217 224 216 209 188 177 173  52  77 117 146 153 159 159 161 170 157 160 164 162 164 161 167 169 173 170 174 164 171 173 158 149 165 175 189 194 187 182 178 170 168 160 164 174 175 180 179 179 174 175 180 183 181 178 171 174 170 168 176 177 174 167 161 158 155 150 142 108  76  47  37  99 156 169 155 152 168 178 179 185 202 202 206 210 208 202
 194 214 216 216 212 219 220 222 224 213 205 177 166  80  61  99 146 154 159 157 160 155 175 159 161 162 164 166 166 166 184 177 179 175 175 168 155 162 162 174 190 195 191 181 171 165 167 170 167 169 173 178 178 175 181 174 178 177 177 176 180 178 177 175 175 168 165 172 161 166 155 147 143 114  59  49  35 135 168 184 176 168 172 175 178 189 196 199 206 200 206 198
 205 206 201 197 191 193 198 183 196 186 175 186 171 109  44  84 141 148 156 157 162 174 159 174 166 164 166 170 174 177 179 177 181 181 177 168 157 163 156 168 185 188 189 179 173 160 167 175 174 175 177 176 179 181 180 183 180 179 180 180 176 174 176 176 171 171 171 165 158 153 143 141 139  98  76  50  42 142 167 184 184 187 188 171 179 187 195 198 201 198 209 207
 115 116 130 148 142 160 179 172 168 170 155 154 141 142  54  82 145 149 151 160 160 159 165 168 173 171 170 170 177 181 179 181 177 180 176 165 163 160 159 163 178 189 185 179 170 165 170 169 170 181 184 184 176 182 183 187 181 183 182 181 180 187 182 176 168 172 163 169 157 150 151 147 132  99  67  53  39 147 170 179 180 182 187 162 176 185 186 197 199 204 200 187
 154 142 134 151 148 148 146 154 179 135 118 118 115 133  59  58 148 146 157 160 157 163 164 174 174 177 170 172 176 180 178 179 179 178 172 166 169 162 167 165 180 189 185 187 178 167 171 163 167 173 188 185 189 187 177 183 189 188 187 187 185 185 185 179 183 180 164 169 150 151 150 143 126 101  60  44  27 152 173 173 186 185 177 156 181 180 183 199 188 189 174 166
 104 156 134 144 118 132 126 119 158 142 110  91  76 110  91  49 131 143 152 160 159 165 158 171 175 174 175 179 177 184 183 180 179 180 174 169 160 165 171 176 185 188 187 184 184 175 167 165 164 154 158 165 182 203 192 181 184 183 181 188 184 181 185 182 178 172 176 162 156 156 142 148 121  94  57  42  55 159 171 178 183 175 148 137 170 178 180 188 175 173 178 161
 147 167 157 122 147 151 154 118 159 173 140 140 146 126 129  43 123 138 146 154 163 168 173 180 177 179 178 173 185 186 189 185 181 175 165 154 149 161 169 183 184 190 186 185 189 183 172 164 174 157 143 142 160 170 188 197 186 191 189 180 178 186 182 183 181 174 169 156 147 155 147 131 110  94  61  63  90 131 142 155 157 143 125 160 145 167 170 158 159 168 171 161
 157 150 149 203 170 177 151 159  99 130 143 109  88 111 149  61 112 139 146 163 166 164 177 186 182 182 180 185 186 183 183 183 181 172 165 143 152 161 174 185 181 195 184 191 195 189 184 164 177 174 161 150 151 157 172 193 209 186 181 184 183 181 179 181 175 174 165 154 152 145 145 137 114 103  95  97 110  75 121 118 120 127 145 153 151 158 152 147 150 168 140 141
 132 150 158 188 179  98 118 159 129 111  94 150 133 123 168  89  98 139 142 154 159 174 178 179 182 179 180 183 182 181 183 177 177 167 157 140 161 170 174 185 188 188 185 182 181 188 183 169 178 180 182 145 158 151 157 168 186 193 189 182 185 183 179 173 178 170 163 152 152 154 145 131 109  97  99 106 103  85 136 143 149 130 134 146 156 144 159 136 136 125 155 127
 161  98 125 158 194 161 117 137 141 112 117 135 145 150 178 127  94 136 141 151 154 169 179 179 181 184 175 177 183 180 180 193 179 163 151 157 170 167 179 180 184 187 188 186 187 185 180 170 189 188 184 159 158 157 159 164 171 198 196 181 181 176 178 174 171 169 168 146 146 144 132 126 106 103 103 104 110 105 141 140 132 132 128 144 138 136 128 141 127 156 123 136
 105 106  90  96 131 206 165 106 130 173 129 111 144 147 160 174 118 126 146 139 152 172 176 176 181 174 179 178 177 184 186 182 165 157 154 176 180 164 173 177 190 193 210 192 178 177 159 165 188 179 172 160 156 174 160 161 161 173 182 178 182 178 165 172 165 171 155 154 142 131 139 125  98 102  93 108 110 117 139 132 132 123 135 118 121 122 132 124 167 151 131 143
 150 109  95  95 131 116 189 146 147 159 146 137 150 123 152 167 125 121 137 140 153 169 173 177 176 181 175 175 176 183 190 174 167 164 155 179 180 155 163 174 176 187 190 186 167 157 146 157 166 156 148 147 151 173 161 158 155 163 172 172 172 176 168 170 166 161 156 146 136 140 137 121  99 113 109  88 116 102 125 128 119 126 117 107 103 123 111 136 124 175 130 138
 176 129 104 130 137 133 116 184 149 139 152 124 117 130 142 136 119 120 138 138 150 161 171 172 168 170 171 173 173 189 185 174 158 180 150 164 164 151 135 152 165 159 166 164 151 139 125 113 106 108 114 123 146 162 168 160 155 159 166 173 171 163 166 167 164 164 145 139 137 142 125 118 118 105 104  85 112  78 101 129 103 107 103 107 112 119 125 123 139 120 124 116
  99 151 118 133 122 148 122 115 189 128 130 122 150 163 130 123 118 108 130 137 147 161 167 167 169 170 172 170 169 183 172 167 178 178 150 129 121 114 107 109 135 143 141 133 130 109  73  81 100 115 134 150 158 151 158 162 158 151 154 163 163 161 160 157 156 151 144 132 141 137 123 111 109 111 106  94 101  72 111 116 102 102 101 111 109 112 110 118 127 118 116 118
  81 114 116 115 107 108 143  99 106 140 130 150 140 141 146 113 115  93 127 137 145 159 161 159 174 169 166 168 166 174 162 161 178 168 163 124 115 123 114  71  88 113 110 112 105 104 110 112 120 132 156 143 148 158 154 161 151 133 111 132 145 161 166 160 166 151 139 126 112 125 108 121 103 110  91  90 106  89 100 122 106 112 103 105 112 103 119 133 145 115 119 119
  91 120 106 145 107 127 101  99 137 109 127 129 152 133 149 132 108  97 129 126 134 146 160 159 158 162 159 161 157 151 148 162 163 163 159 158 139 124 106 105  93 101 109 104 102 119 117 119 120 140 140 147 153 153 149 149 142 136 117  98 141 157 163 163 156 144 140 121 112 123 106 110 107  95 106  89 111 104 103 114 110 108 106 107 109 103 120 148 140 116 123 120
  86 111 112 120 116 128  94 107 115 125 111 109 138 115 128 149 112  95 116 126 133 149 157 162 151 158 157 156 135 127 145 163 160 158 153 156 132 126 121 123 118 132 137  93 126 136 136 134 135 151 141 143 140 140 153 138 139 131 125 125  95 146 157 154 155 147 128 117 114 117 119 102 107  98 102  88 109  92 101 102 108 116 109 109 103 116 125 115  95 124 117 112
 113 102 105 106 118 140 126  99 135 101 106 106 118 155 117 148 117  98 118 128 138 138 158 150 155 148 145 112 102 126 148 159 153 149 153 156 141 128 121 133 146 160 143 100 123 157 133 129 142 145 145 134 134 138 143 134 132 129 132 118 104 105 159 157 148 140 132 120 118 121 105 107  92  98  98  88  94  94 106 102 104 114 111 116 136 110 122  99  98 130 119 111
 111 110 100 107 124 130 130 145 121 111 122 116 133 139 127 122 137 118  98 119 118 143 146 155 147 142 125  81 138 133 143 140 139 149 146 142 141 135 113 138 138 153 141  92 104 134 138 139 141 126 127 130 138 130 145 139 131 121 126 108 131  82 151 150 146 130 117 127 121 120 113 104 102 110  94  78 104  89 105 114 114 112 112 118 111 116 114  99 109 127 108 103
 144 156 139 121 119 123 131 125 142 126 114 111 115 129 121 141 128 124 103 115 117 122 135 147 149 139 102 111 120 135 136 146 134 129 134 123 124 120 113 132 137 159 107 126  92 138 132 141 134 136 119 120 119 119 121 146 132 137 113 111 117  83 149 148 137 130 124 113 112 122 104 103 100  99  93  83  96  92 107 116 118 117 125 115 112 114 119 117 101 116 109 116
 144 113 122 136 150 137 140 176 144 149 143 120 113 131 129 132 120 113  92 104 106 107 129 141 133 135  84 113 129 124 114 123 128 128 120 121 114 120 113 129 127 125 116 132 110 143 136 141 145 143 135 119 101 118 128 137 125 119 100 118 119  99 134 142 140 129 108 109 132 110 119 104  91  90  88  86 105  94 108 106 118 117 117 118 121 122 106 114 124 109 103 121
 122 126 131 138 133 130 149 179 172 170 153 153 137 127 146 122 149 115 120 113 108 100 128 136 135 143 100 126 114 115 115 119 120 126 117 113 110 127 128 130 137 137 130 146 133 146 136 136 135 137 137 123 111 129 123 116 105 103 108 135 135 112 142 150 121 113 106 108 118 115 108 117  95  86  90  83 106  96  95 102 116 116 110 110 124 112 110 118 120 121 125 121
 144 138 129 137 141 165 140 127 142 154 145 146 163 150 131 140 123 131 134 100 104 104 108 130 146 150  96 123 107 107  99 105 115 112 112 108 126 106 129 130 130 142 147 142 151 158 139 141 138 149 139 134 115 124 115 111  81  83 100 116 110 140 141 141 135 114 100 122 112 116 104  96  99  93  82  74  98 102  98 104 110 123 113 111 106 126 110 120 126 113 124 116
 135 126 130 130 138 138 145 152 170 158 147 147 144 158 166 147 141 137 135 110 109  91  86 114 140 155 126 112 119  97  80  85  99 106 117 104 107 130 128 143 142 127 142 149 148 118 111 114 111 130 113 119 115 107  94  95 130 112 129 123 120 132 146 131 116 109  98 120 109 107  98 101 108 104  84  93  98 103  76 103 120 126 111 102 121 115 109 117 113 128 119 118
 130 134 127 129 132 130 128 128 140 137 140 146 145 156 156 150 139 142 136 132 101  96  91 107 119 140 153  97 104 104 116  95  77  97  98 108 117 123 116  97 102  95  99 110 103  98  98  98  88  80  78  80  82 117 130 130 145 134 120 105 128 123 137 121 111  94 106 128 109 109 100  75  78  80  97 100 102 112  78  95 121 117 130 110 104 117 113 106 119 115 115 107
 124 127 135 130 127 134 136 132 134 136 141 142 138 142 142 143 141 133 142 141 122  99  96  90 122 127 137 121  98 104 118 139 133 105 100  84  75  69  75  85  96  93  84  90  88  90 104 107 116 124 124 126 132 132 129 146 131 138 126  96  98 116 112 107 101  80 108 121  97  96  96  84  76  83  85  93 116 113  34  28  76 114 116 112 111 119 113 109 120 112 117 118
 132 127 119 141 118 125 125 125 132 133 132 144 144 137 139 142 144 144 146 146 132  87  93  94  85 117 127 118 100  85 114 137 146 137 116 121 118 123 127 136 144 159 145 153 161 168 152 139 138 151 144 144 127 125 137 142 138 131 137  89  98  98 103  94  66  73 101 115 103  91  84  87  96  90  80  93 114 124  37  13  19  68 117 113 110 106 114 109 114 119 119 113
 119 117 128 120 123 132 131 120 128 129 130 129 140 140 142 145 147 141 139 140 128  95  82  96  68  91 105 108 107  78  91 125 135 137 129 132 137 126 147 152 144 136 133 141 146 144 159 155 161 152 134 130 135 145 139 137 119 114  95  98  81  93  97  85  68 106 119 110 101  73  70  77  97  82  93  97 111 132  48  20  15  33  98 109 108 107 110 112 110 116 114 113
 112 115 121 120 119 119 119 127 124 126 128 131 134 134 137 137 136 144 142 128 131 143  82  92  98  74  81  92  96  80 100 101 121 134 144 118 129 135 151 159 154 153 160 163 165 168 156 147 139 126 120 119 131 141 136 144 115 112 104 103  76 109  75  63  69 105 105 106 101  73  72  83  93  86  90 109 133 119  66  17  13  36  69 100 105 105 110 115 118 114 108 105
 108 112 110 111 114 114 119 115 118 124 127 127 129 131 132 132 134 134 133 131 129 119 106  66  73  86  49  72  83  80  84  81 113 132 139 138 111 128 120 131 125 118 123 122 122 122 115 119 114 110 113 128 143 134 130 123 103 111  69  94  95  87  82  77  78  91 107  85  86  71  80  89  73  91  95 116 123 128  84  20  22  42  39 101 106 107 113 113 107 101 109 104
 104  97 107 108 107 113 111 117 115 121 119 120 122 124 127 122 127 125 131 128 124 122 117  81  87  83  67  48  61  75  87  79  78 115 124 129 136 109 104 113 102 100 101 102 103 108 103  97 106 108 131 142 129 135 119 104 123 112  88  83  88  84  74  56  85 113  94  91  71  71  72  71  92  84  99 104 123 135  94  36  35  38  35  55  86 108 106 103 106 106 104 107
  99  97  98 108 106 106 105 107 109 113 113 119 125 126 128 128 125 124 125 124 122 113 116 111  59  78  79  73  60  73  67  92  81  96 107 135 139 127 114 110  97 102 112 105 104  96 107 111 112 135 146 152 139 117 143 121  99  89  94 109  81  76  83  81  97 105 112  89  76  73  77  87 104 106 114 114 137 139  80  39  40  36  36  38  34  50  89 103 106 102  97 101
  86  88  88  86  93  97 102 103 105 107 110 110 112 112 119 118 118 119 117 119 119 120 117 109  89  50  62  87  50  54  69  67  82  99 106 110 133 143 134 130 117 106  97 104 101 113 113 123 131 136 144 143 126 124 121 124 101 100 117  79  94  80  83  88  99 111 102  70  70  69  77  93 101  99 106 118 139 133  46  35  35  35  36  37  32  35  45  92  97  97  97  94
  77  88  80  80  86  88  89  93  91  98 103  99 104 108 111 110 114 118 117 116 114 105 114 105 105  74  60  62  80  54  66  83  78 109 107 118 131 140 144 142 136 122 111 113 115 107 116 125 145 157 149 144 143 143 128 102 102  90 113 100  85  75  63  80  99  85  91  66  60  83  79  93 119 107 110 128 139  68  33  36  32  31  33  36  33  35  29  60  87  88  95  92
  69  68  72  74  71  75  82  78  83  87  95  98  99  99  99 100 112 113 116 114 115 107 109  98 100  99  48  56  79  67  68  62  73  93  96 101 112 132 162 154 156 139 144 130 129 136 152 149 164 168 164 125 155 127 116 100 110  96  83  98  88  79  73  69  96  90  73  54  74  80 103 130 121 118 117 128  57  34  32  33  33  31  30  31  25  39  36  35  91  85  91  88
  71  69  71  69  71  73  73  73  79  78  83  85  88  94  96 103 109 107 112 114 110 118 106  98  99 106  55  59  67  82  55  70  64  87 101 107  95 126 145 161 158 156 157 151 155 164 163 162 163 164 160 155 156 131 121 104  96  89  96  96  54  76  79  77  93  82  57  51  73  99 101 113 125 115 116  55  27  34  34  32  32  30  30  29  19  34  36  29  52  87  86  84
  74  72  70  70  68  68  72  74  72  72  75  82  82  82  93  97  98 108 108 103 105 106 104 103 104  97  74  48  58  57  79  68  71  75  88 110 123 120 151 144 152 163 155 152 155 161 157 170 164 161 153 140 128 142 112 115  97 100  92  75  65  52  57  85  58  53  54  56  89 102 102 106 104 102  30  29  34  30  31  31  31  30  28  24  25  30  34  34  30  58  84  87
  76  76  71  71  74  74  74  70  69  69  73  79  78  77  86  90 101  96 102 105 108 108 100  99  94  93  95  52  49  61  71  55  68  73  90 119 108 106 146 152 156 168 160 164 172 174 178 168 158 165 163 159 149 126 124  88 114  86  85  93  50  56  77  60  60  59  51  80  96 102 123 103  86  25  35  31  33  34  31  31  31  30  25  20  32  34  30  29  33  34  49  80
 103  82  79  76  71  70  70  74  72  71  72  73  78  78  86  88  92  99 100  99 103 103 104 101 101  96  96  60  52  60  61  58  51  70  82 116 123 118 127 154 147 157 160 175 170 182 167 168 161 171 167 144 138 122 101 120  92  80  79  64  56  65  72  56  50  47  47  95  96 103 120  77  27  26  33  33  31  29  31  30  31  31  25  20  31  37  32  30  30  35  35  42
 104  93  86  88  79  84  85  75  73  73  75  68  73  71  78  88  87  91  94 103  97 101  98 103 100 110  76  79  55  53  65  47  39  54  92  85 105 107 123 136 157 164 173 169 180 178 176 173 163 157 147 138 118 114 111 126 100  91  69  61  47  63  57  51  46  37  65  95 122 117  70  22  26  31  32  32  30  31  30  29  27  30  17  26  29  35  29  30  31  29  32  35
 144  95  96  82  93  94  92  80  73  75  77  76  70  73  73  82  93  93  99  95 105 101 108 105 100  97  32  76  83  61  49  55  53  42  59  79  82 100 114 134 150 153 165 159 162 165 177 166 165 165 141 130 108 114 111  85  98  77  42  50  72  40  44  41  37  62  98 126 107  73  12  23  31  31  32  32  30  29  27  26  24  22  19  25  30  31  26  30  29  31  37  34
  91  73  77  78  91  95 103  93  88  84  86  85  75  70  75  72  82  98  95  99  97 106 107 107 108  69  23  62  90  69  48  50  42  36  39  83  78  93 106 143 150 155 157 157 166 163 164 165 144 145 123 105 101 105  85 105  84  58  41  45  41  36  40  36  69 106 117 134  87  18  25  28  30  30  33  29  31  28  28  25  25  20  20  29  28  27  30  31  30  31  36  34
  68  69  74  73  77  91  97  92  90 104  88  88  98  87  79  80  74  87  91  98 107 107 114 110 106  32  17  29  92  82  54  42  57  54  43  38  72  83  95 120 141 150 160 138 136 137 154 141 140 131 104 108  77  88  80  92  49  35  35  33  29  31  35  62 110 114 135  87  12  24  25  31  32  30  28  31  28  28  25  28  25  17  24  31  31  29  30  30  34  31  32  36
  71  68  67  69  73  74  80  81  88  84  87  99  97  96  93  75  73  80  91  95 105 114 113 115  83  24   9  20  92 102  80  61  37  53  48  42  54  72  98 108 124 135 135 133 130 138 132 130 121 102 113 111  79  73  76  52  27  37  36  27  22  47  68 109 120 122  89  25  23  21  28  31  30  30  29  28  30  27  27  25  22  19  27  26  27  29  30  31  30  33  32  37
  68  68  70  72  71  72  70  70  70  81  89  97  85 113 111  92  83  84  76 100  98 109 108 136  42  19  10  12 111 101  78  54  56  44  42  46  34  49  48  69 102 113 123 124 132 116 124 116 111 102  95  75  70  68  29  30  37  30  26  32  66  97 104 133 135 109  12  26  25  27  28  30  31  30  31  31  31  24  24  25  18  26  25  29  32  26  30  30  32  31  34  36
  66  70  68  73  73  70  68  67  70  70  80  92  99  99 120 107  91  81  85  80  94 103 110 115  33  24   7   9 103  95 106  87  63  52  45  40  42  30  35  46  63  80  98  99 100  86  94  88  90  76  71  55  38  22  32  27  27  37  52  70 100 131 131 137 121  25  22  25  25  29  29  28  30  30  27  31  29  24  23  19  19  27  28  28  27  27  28  29  33  32  34  36
  71  65  72  76  74  71  67  71  67  72  74  83  98 103 105 102  92  91  79  88  73  92 108  74  35  22  10   6  91 103 109 102  98  69  51  43  37  37  36  28  40  45  60  57  57  54  60  58  60  44  39  28  18  26  18  28  51  79 101  99 129 134 135 120  15  24  20  28  28  30  31  28  28  28  29  28  28  26  24  17  24  28  30  31  27  31  31  31  31  32  34  35
  69  69  67  79  84  76  73  79  70  67  70  70  78  88  88  97 108  96 101  77  85  93 108  40  36  17  18   9  76 109  99 100  96  96  76  62  55  42  43  37  36  23  24  21  24  18  21  19  25  23  27  28  36  24  65  73  91 106 104 125 143 128 119  20  30  19  28  28  31  31  30  31  29  30  30  28  29  25  23  16  26  26  31  33  31  31  30  32  32  32  33  36
  71  69  68  82 116  97  81  84  75  71  71  74  70  77  77  89 102 101 107  91 101  81  88  34  30  15  20   6  48 107 108  93 102 104  85  66  66  65  50  57  47  40  41  32  40  37  43  47  36  40  37  50  75  79  88  98 114 110 113 132 136 104  20  21  25  25  26  28  29  31  30  31  30  28  29  26  26  25  19  22  28  29  29  29  30  31  30  30  33  33  36  36
