P2
# Generated by OpenCV 4.2.0
92 112
255
 178 185 195 188 172 164 172 167 161 189 190 156 144 152 159 172 198 203 208 199 169 171 170 155 159 176 176 181 185 176 175 173 179 180 171 165 160 155 143 139 145 118  46  50  89 112  97  99 131 132 137 137 131 124 113  89  99  95 103  90  80  80  76  70  67  59  56  63  62  61  61  59  62  60  57  56  56  57  56  56  56  54  55  57  57  56  55  56  55  55  54  55
 172 170 174 196 188 170 174 170 170 191 182 164 163 168 173 177 187 174 172 177 165 169 174 163 169 176 168 172 181 171 160 162 179 176 163 163 161 170 167 155 132  75  54  80 118  99  73  91 114 135 147 130 112 125 103  74  85  81 103  93  83  80  78  71  64  63  57  60  61  59  61  59  61  60  56  55  56  58  57  56  56  59  55  55  57  56  54  55  56  55  55  56
 181 181 184 211 201 188 187 175 171 173 172 169 166 171 170 171 172 167 158 165 164 171 179 173 183 183 174 180 184 156 141 168 180 170 161 166 182 162 147 127  74  65  82 104  83  68  58  83 128 132 123  98  97  98  75  68  67  63  67  79  80  71  71  72  65  65  63  61  60  58  59  59  59  59  57  56  55  58  57  56  56  60  56  54  56  55  56  56  55  55  54  55
 208 208 189 181 187 192 186 182 178 190 201 174 175 164 170 183 192 200 175 164 161 186 185 177 189 197 189 175 193 188 169 151 156 162 158 159 163 128 123  82  53  70 100  80  80  87  73  77  91  95  71  88  53  59  52  65  52  68  83  72  63  60  76  85  71  63  68  62  60  60  56  58  60  60  60  57  57  58  57  57  56  56  55  55  55  56  55  55  56  56  54  55
 204 205 194 191 196 179 181 192 197 204 192 182 181 173 181 170 184 178 162 168 176 191 183 163 173 192 182 170 174 179 187 174 148 157 158 153 143 137 136  78  59  94  94  66  69  81  82  87  69  48  88  91  32  73  42  58  84  99  87  84  87  80  89  76  76  65  60  60  61  60  58  57  59  60  59  58  59  58  57  57  57  56  56  55  56  57  56  56  56  55  55  56
 186 190 188 189 185 178 198 209 215 208 185 187 178 170 173 157 164 164 165 173 177 185 170 156 165 180 183 182 173 150 137 138 123  89 105 110  97 110  97  67  73  99  70  97  63  69  64  57  63  69 105  69  44  83  43  64  78  86 111 106  85 101  91  78  85  69  59  57  59  58  57  56  59  60  57  55  56  58  57  56  56  56  54  57  57  56  55  56  56  55  55  55
 176 196 201 197 171 169 181 183 191 189 186 187 183 174 169 172 176 179 172 162 171 167 159 184 194 198 201 187 155 130 129  71  73  93 100  86 120  94  66  60  51  52  82  88  71  69  57  69  63  79 109  61  64  57  47  75  83  78  87 105  90  95  87  91  99  74  79  71  60  60  58  56  58  59  57  56  57  58  57  56  56  55  54  55  56  55  55  55  56  56  55  56
 202 223 219 205 177 162 180 174 161 162 161 159 168 179 172 178 181 188 171 161 184 197 200 221 220 201 192 177 114 100  88  69  54  75  53  54  99  51  48  34  30  80  89  66  62  33  75  88  57  90  98  70  63  60  79  83  90  80  57  96 118  90  91  96  90  87  85  75  60  61  62  64  70  63  57  57  57  56  57  56  56  57  56  55  55  56  55  55  55  55  54  55
 186 195 218 227 195 166 198 219 212 196 185 167 180 194 190 204 207 204 183 180 215 226 211 194 186 173 187 147  50  52  93 117 113 100  34  50  61  55  45  27  60  85  74  70  52  42  72  65  87 108  68  63  66  81  92  88  73  74  78  95 151  91  72 107  72  97  92  58  59  61  61  61  65  62  57  57  58  58  56  56  56  56  56  56  55  56  55  56  55  54  54  54
 196 181 182 204 214 199 181 176 202 207 213 217 222 207 200 206 192 205 192 189 208 204 196 194 178 182 148  70  56 105 132 108  96  69  51  59  65  52  29  46  92  90  77  55  37  47  62  71  86  65  69  97  88  82  86  86  77  79  95  91 125  89  49  78  61  88 112  68  57  62  62  58  57  57  57  56  56  57  57  56  55  55  55  55  55  56  56  56  56  55  54  53
 213 203 201 195 188 192 199 190 177 161 165 178 189 178 174 189 190 211 208 187 197 202 189 153 185 169 114  85 131 144 112  95  81  59  33  35  32  41  73 111 125  78  46  28  38  77  93  74  31  38 103 101  64  39  33  59  76  64 117  94  82 130  55  56  68  94 121 122  59  59  62  62  58  57  56  56  57  56  56  56  57  56  55  55  57  55  56  55  56  54  54  55
 202 190 194 201 182 174 181 197 201 191 198 185 185 183 184 201 204 214 196 183 203 203 148 158 154 115  86 113 165 130  87 129 120  81  62  73  95  89  94  81  61  45  66  84  79  60  37  30  37  62  84  63  42  27  25  44  34  38  94  90 104 115 110  55  47  62  85 118  90  57  60  58  59  57  56  57  57  55  55  57  57  56  54  55  56  57  55  56  56  54  55  56
 181 187 194 186 173 173 196 209 208 193 203 205 205 203 208 212 195 197 184 202 208 180 132 139  80  76  65 110 104  47  57 113 135 107 109 105  86  57  43  29  47  87  79  98  92  67  57  58  42  44  59  38  28  30  17  29  38  28  58  71  78 105 131  56  27  58  55  69 121  84  92  76  57  56  57  57  57  55  55  57  56  54  54  56  56  55  55  57  56  54  56  56
 175 185 202 206 183 185 195 194 201 198 178 179 201 207 194 182 187 204 193 208 194 146  97  62  60  57  57  51  55  69  78  78  78  86  93  67  36  21  23  45  65  62  76  73  82  95  90  93  82  59  44  57  56  39  35  62  95  85  77  77  77  93 112  78  38  62  56  47  71  78  68  98  84  59  55  56  57  56  56  56  54  54  54  56  55  54  55  56  56  54  56  57
 180 184 196 183 161 167 169 149 165 196 188 169 184 191 187 188 193 189 191 193 161 110  61  59  74  78  60  61  73  56  48  38  51  63  56  37  33  26  45  52  49  63  67  66  79 101 115 110 134 142 122  90  58  40  46  79  88  68  76  74  52  59 103  94  67 116  99  72  53  70  59  68  71  66  54  57  57  55  56  56  55  54  55  55  55  54  54  55  55  54  57  57
 170 175 188 186 172 167 175 179 176 186 188 170 191 192 175 183 190 175 188 198 137  81  63  69  65  78  93  77  47  39  44  40  30  23  18  39  45  48  62  76  85  73  80 110 125 136 148 148 145 128 105  97  92  86  59  37  29  31  23  48  39  26  79 124  70  53  98  92  62  54  54  69  66  57  63  66  55  61  56  56  56  54  55  55  55  57  57  56  56  54  56  57
 181 188 192 192 183 182 194 199 187 198 211 188 205 195 179 190 220 209 187 169 114  75  60  65  71  70  59  39  33  22  26  26  18  19  32  47  39  47  42  46  54  52  52  64  87 116 107  97  87  68  73  78  87  90  57  42  29  46  49  48  58  52  35  94  90  42  35  64  63  56  48  45  51  51  80  71  55  65  58  54  55  55  54  54  54  55  56  57  55  56  57  59
 186 188 199 196 180 173 175 171 179 183 175 178 196 196 173 186 192 195 147 131  96  65  64  65  44  41  33  35  38  43  50  49  38  29  39  28  23  23  25  25  32  41  47  65 117 121  92  99  68  45  56  41  35  44  42  38  34  33  57  84 123  98  56  55  69  52  44  45  46  59  57  42  48  48  65  76  62  59  63  54  56  54  54  56  54  54  56  56  56  55  57  59
 192 193 195 195 192 179 171 185 193 183 190 191 192 203 158 198 184 144 111 115 100  79  77  64  53  35  44  52  46  50  46  48  48  38  56  30  41  33  27  39  49  46  55  80  84 117 105  93  82  68  81  71  61  58  41  33  39  45  49  69 115 124  92  68  51  48  40  38  30  53  43  50  55  46  53  67  67  53  64  55  56  54  54  56  54  53  54  56  56  57  57  60
 185 191 191 189 193 186 178 187 184 182 204 208 196 194 175 153 109  86  84  89  73  66  70  80  44  37  49  25  21  29  40  45  39  38  46  37  64  62  61  76  69  64  70  52  83 123  99  68  62  81  83  90  93 121 103  81  42  39  56  69  75  99  89  74  55  52  55  44  43  43  40  51  67  96 112 119 123  89  64  53  56  54  54  54  55  55  54  55  56  56  58  61
 172 185 195 204 204 177 171 171 178 181 172 171 184 185 177  87  75 103 104  95  83  69  63  59  53  44  22  14  17  20  37  41  46  57  58  76  65  52  62  68  61  49  48  57  83  63  41  70  93 103  78  87  83  68  82  91  87  62  39  51  71  78  94  74  63  65  59  68  68  63  40  40  77  92  67  78  88  79  63  55  55  54  54  56  55  55  56  56  56  56  58  61
 183 188 188 202 205 193 175 161 161 184 189 178 183 197 118  83  96 101  94  94  88  73  67  52  47  34  22  15  15  19  28  29  46  42  54  81  84  63  94  72  80  87  90 105  84  73 112 118  87  83 110 104  90 107 116  84 108  94  50  63  68  88  86  72  64  54  61  71  77  74  91  72  55  39  46  52  57  73  51  57  54  53  52  63  55  54  56  57  56  58  59  62
 206 208 193 181 170 186 191 181 167 181 196 192 203 163  84  83  92 100  98 100  79  62  56  39  34  34  24  16  15  13  16  14  35  30  37  67  81  85  88  90 106 115  83  76  98 110 109 103  93  92 102 102  94 106 112 108 118 113  76  63  66  78  97  67  64  55  56  63  82  92 115 134 130  84  53  69  49  51  69  63  53  54  54  63  57  54  57  59  58  59  62  63
 195 202 201 174 172 197 199 187 177 176 194 204 186  98  82 107 107 103 102  87  51  40  37  35  40  35  30  19  17  17  13  13  24  27  29  34  33  37  35  56  56  93  67  49  60  56  53  70  62  46  51  87  77  73  77  92  86  57  73  62  74  82 120 108  79  64  69  75  87 115 119 124 145 170 152 114  94  43  61  86  63  55  55  65  57  53  56  58  58  60  62  64
 196 197 193 186 193 219 231 203 183 181 180 198 140  94 119 118  91 115 111  65  41  42  48  32  28  37  43  29  18  23  21  17  16  14  18  12  16  23  48  51  30  43  41  25  16  25  28  22  13  35  64  54  61  60  72  82  60  54  43  39  54  71  83 100  87  70  71  82  93 146 109  57  85 154 172 137 105  95  91  86  69  56  57  68  54  53  60  60  58  60  62  64
 195 199 181 180 176 193 217 212 203 190 185 198 148 117 126  97 116 151 101  62  34  43  39  34  21  40  43  52  35  17  20  16  13  15  22  12  15  17  37  83  53  27  15  11  18  34  27  17  20  31  28  22  28  39  54  66  67  82  92  77  54  55  95  97  58  76  92  91  62  94 132 105  72  90 113 143  97  95  96  91  63  55  68  62  53  55  57  57  58  60  61  65
 201 215 210 197 183 189 194 199 221 215 196 206 165 134 112 100 148 112  85  81  33  32  35  36  32  32  41  33  44  21  25  23   8  11  13  15  20  21  47  63  28  12   9   9  12  21  13  10  18  11  17  35  38  54  64  63  59  54  61  72  71  74 104 129  72  77 103 110  72  79  96  99  87  87  81  85 106  86  66  81  78  60  59  54  54  55  54  55  56  59  65  66
 185 195 214 221 226 220 199 199 207 203 198 210 191 141 108 112 118  92  90 102  64  44  62  54  34  42  51  39  35  26  26  21  14  16  10  16  26  25  31  46  30  14   9   9  25  36  11  15  36  23  22  26  31  42  37  47  61  57  45  42  57  73  73 116 115  90 112 119  89  76  84  63 100 104  76  61  71  81  64  64 101  82  45  53  53  54  54  56  57  60  64  66
 191 177 185 196 211 233 220 197 198 208 208 207 186 122 117 113 106  99 109  93  98  87  83  68  57  64  59  54  53  37  23  24  12  15  18  17  27  27  52  43  26  12  18  17  27  30  16  40  50  20  19  17  24  20  16  34  46  52  66  48  45  53  61  90 129  99  95 114 104  89  76  55  66 105 103  72  55  84  71  51  72  82  68  51  52  55  55  56  57  58  62  64
 195 196 193 191 192 212 234 231 212 212 223 229 200 110 122 115 105 107  93 115  86 102  93  76  93  85  77  69  62  44  31  23  20  21  21  25  32  31  62  61  38  14  22  21  20  31  21  53  59  25  23  23  12  15  19  15  19  32  43  74  56  46  54  61  98 124 106 119  90  67  56  65  70  92 142 128  80  88  75  64  85  85  72  57  52  55  54  54  56  57  61  63
 206 212 219 209 205 206 199 201 206 209 210 211 191 132 130 128 123 107 101  99  89  84  99  79  70  81  94  94  85  56  42  36  29  28  37  36  41  39  58  58  53  34  25  23  20  32  24  46  59  45  31  27  22  29  22  23  26  28  24  50  77  59  48  45  63  88 110 136 114 110  69  55  79 109 142 154 135 113  83  84 109  82  75  61  48  54  54  55  56  58  59  61
 211 205 209 207 204 207 199 198 201 207 200 201 168 145 152 144 116 110  82  73  94  86  76  75  82  86 104 116 112  91  69  59  57  45  57  65  48  48  44  48  45  46  35  32  33  39  39  49  60  65  43  43  30  44  53  41  49  38  27  24  49  68  54  66  70  77  80 135 133 134 105  67  86 117 133 154 125 137 117 101 106  64  71  70  47  53  54  55  55  57  59  61
 207 208 208 203 203 212 208 201 192 207 211 209 155 130 171 135 115  99  75  96  93  77  64  64  77  97 110 108 106  93  84  76  80  80  70  64  65  53  44  36  41  43  55  55  52  58  66  71  77  91  76  74  45  62  76  74  97  95  69  42  38  71  56  60  79  82  68  96 145 156 131  84 108 119 134 163 132 145 138 132 117  62  79  69  47  52  55  55  54  56  58  59
 206 206 208 205 202 212 204 202 192 201 215 213 133 127 172 127 109  88  97 116  64  38  60  58  65  84 110 110  97  95  87  97  96  91  79  72  67  60  59  59  56  65  69  81  82  99 113 120 118 112 105 110  79  94 102 103 120 140 114  75  69  55  54  35  54  75  72  84 124 172 136 112 102 118 137 166 152 165 144 147 139  86  75  55  44  53  54  54  54  56  58  58
 212 219 205 194 196 210 213 209 211 204 215 191 105 133 167 121  98 104 109  86  37  40  48  70  94 100 115 134 134 146 145 144 148 139 131 120 112 102 102 112 126 142 156 153 152 166 174 179 186 186 155 145 146 125 144 132 137 140 125 106 109  79  72  79  40  53  68 100 137 160 149 130  96 136 148 147 157 173 153 136 146  92  83  51  32  54  53  54  53  56  58  57
 207 222 218 199 201 206 207 211 217 216 217 170 111 156 170 140  93  80  74  40  48  47  76 119 122 141 162 166 181 184 187 189 191 201 207 203 197 187 181 187 199 205 214 225 226 223 216 213 215 215 207 183 186 182 172 173 164 149 140 135 136 149 102 103  72  34  58  84 146 144 128 131 115 152 152 136 162 180 157 140 134 125  86  48  18  43  54  53  54  56  57  56
 221 221 210 201 207 206 215 217 205 206 207 161 144 176 173 147 106  94  67  50  56  57 103 122 130 158 175 187 195 202 202 207 206 210 215 217 222 226 230 224 222 224 224 231 231 225 221 216 221 221 215 213 206 203 202 192 183 172 156 140 143 172 143 109  85  45  62  79 100 116 136 147 132 148 145 125 136 154 140 178 145 132 101  76  35  35  49  52  53  54  55  55
 201 221 223 202 198 209 214 208 206 208 202 163 158 185 176 137 101 103  94  76  51  75 112 132 150 169 183 192 199 207 210 210 208 213 217 216 221 225 228 226 226 225 225 227 225 225 224 222 221 220 218 217 216 212 200 193 188 180 168 152 160 169 167 136 105  72  49  77  93  83  99 133 144 139 141 139 111 135 122 167 166 131 101  55  67  55  33  47  53  54  54  54
 189 205 225 221 210 211 209 201 196 197 209 167 166 185 173 146 111 117 121  85  67 100 122 146 159 178 188 195 198 203 209 207 211 216 219 220 224 230 228 227 229 228 228 227 228 230 230 229 223 222 219 219 217 214 208 192 190 193 182 170 177 177 178 163 120  92  78  74  82 101 109 108 158 147 127 169 120 120 148 148 160 138 122  47  21  34  29  42  53  54  54  54
 200 203 213 216 204 202 214 213 206 201 215 187 174 178 172 148 132 134 127 109 124 139 147 151 164 177 188 195 201 201 204 209 214 214 219 223 224 225 229 230 229 228 234 232 229 232 231 229 226 222 218 217 217 212 208 201 189 185 185 186 187 172 179 171 148 100  83 107 119 119 154 143 154 159 146 184 139 131 153 167 131 123 136  85  19  21  26  36  52  54  54  53
 199 199 210 214 201 200 215 222 220 212 209 195 178 174 176 150 137 126 116 114 143 154 158 161 163 176 189 194 199 200 198 205 211 212 216 218 219 224 226 230 223 226 232 231 227 226 227 225 222 218 215 211 212 206 200 195 192 189 192 190 192 185 184 175 157 129  95 108 131 121 110 146 154 163 161 173 137 140 150 163 158 124 111 103  31  20  25  34  50  55  54  53
 191 188 199 213 206 201 198 210 220 219 208 194 179 176 180 155 127 122 118 114 140 152 159 165 165 175 182 182 193 197 195 200 208 210 213 216 218 222 224 226 223 226 226 228 229 225 225 220 216 217 211 211 208 205 201 195 194 190 192 189 193 200 185 176 162 135 109 107  99 121 116 115 157 174 178 159 146 153 149 154 177 171 107  84  31  20  24  34  49  53  54  53
 188 185 191 201 207 187 180 201 213 208 206 201 179 188 168 157 123 122 123 118 140 152 167 170 164 173 175 180 191 192 189 198 203 204 203 208 214 220 222 222 223 226 223 221 225 225 221 222 218 216 208 207 206 200 199 199 195 192 192 193 198 196 186 175 164 137 111 109  91 100  90  98 167 177 163 139 148 141 134 159 184 201 119  35  29  24  24  34  49  54  54  53
 214 209 202 190 207 202 191 192 201 200 212 216 185 193 157 135 124 114 120 117 138 151 167 169 165 174 177 181 191 188 185 190 197 205 202 205 211 216 219 221 221 221 220 219 217 218 215 216 213 213 203 204 199 193 194 195 191 196 199 197 199 194 184 175 160 136 107 108 101  96  84  82 140 165 144 137 130 105 116 172 167 195 121  14  21  24  25  35  51  54  52  53
 216 216 207 182 194 205 207 209 205 209 225 231 199 183 152 121 112 125 129 124 134 150 164 171 168 170 177 184 184 186 181 185 188 194 196 195 196 204 206 210 211 209 208 204 203 198 199 199 198 194 192 194 191 196 196 191 191 198 200 194 195 191 180 173 156 142 127 119 106 104  80  80 115 124 121 123 108 109 137 177 145 191  96  18  19  22  26  36  51  55  53  53
 169 170 202 206 199 196 205 211 204 204 208 227 210 183 153 130 117 128 128 125 133 146 163 176 171 169 178 189 189 190 188 188 193 200 204 208 205 206 208 211 214 210 210 213 215 213 214 214 212 205 209 210 205 205 205 200 204 212 204 197 196 189 178 165 156 149 138 146 116 107  96  90  96 105 103 111 107 118 167 153 149 158  71  20  24  22  24  36  49  51  52  53
 183 175 183 198 207 207 196 198 209 202 196 223 210 168 151 121 117 114 122 123 132 146 161 175 179 175 181 186 193 195 195 199 204 206 203 209 219 220 219 221 222 222 223 223 217 214 215 212 213 213 209 206 208 205 201 203 209 207 202 197 192 186 175 157 150 152 149 139 133 112 110 106  91 101 102 115 120 129 159 154 162 129  61  25  25  22  22  35  45  48  50  52
 203 217 208 174 188 209 193 199 206 193 196 214 216 155 141 127 105 110 117 129 133 148 165 174 182 183 183 187 195 198 194 201 207 209 205 209 215 218 217 219 222 221 220 214 210 212 213 213 219 213 209 205 200 197 199 203 203 204 199 191 187 183 168 155 155 151 154 145 132 122 110  87  86  89  99 123 123 132 159 171 163 106  32  16  21  22  24  34  46  50  51  53
 183 202 215 195 190 192 194 211 214 200 182 192 218 180 132 115  85 111 128 133 138 147 161 176 183 186 187 189 194 199 201 203 209 210 209 214 217 219 214 219 221 222 222 212 212 215 211 213 209 205 208 211 213 213 215 217 217 214 206 197 190 176 162 165 169 165 161 141 128 124 103  89  90  91  92 112 129 136 173 170 166  68  17  23  21  22  23  32  47  54  52  52
 185 185 188 193 194 200 205 207 219 217 203 216 233 213 143  99  71 120 138 134 138 145 159 179 183 187 197 198 197 199 203 208 211 214 213 219 226 226 221 218 222 227 225 218 216 211 212 218 221 221 222 221 219 221 221 219 219 212 202 198 190 177 166 167 171 171 162 150 133 119 100 100  92  86  95 112 118 130 186 187 152  52  22  21  21  22  22  27  44  53  52  53
 171 169 188 192 197 198 196 208 215 209 211 225 229 230 167  95  72 126 141 138 138 144 160 179 184 195 201 202 203 208 209 214 213 214 219 225 228 225 224 229 231 232 230 225 226 224 222 225 229 227 224 223 222 220 222 221 217 210 204 197 187 178 168 167 166 164 156 160 143 117 103  87  87  87 104 106 108 150 194 196 103  21  25  20  21  20  22  28  43  52  52  53
 180 184 203 200 212 209 202 217 213 213 218 214 213 220 198 108  77 129 141 139 137 145 163 179 187 199 203 200 203 206 209 214 215 216 216 221 229 229 222 226 233 231 232 230 231 228 229 227 226 224 226 224 224 216 213 215 211 209 203 196 190 180 173 170 164 166 163 158 151 126 110  94  68  92 113 100 116 160 200 196  59  15  21  20  21  21  24  34  47  52  51  51
 201 200 203 210 210 200 198 222 229 222 221 211 225 221 211 134  78 130 138 137 136 144 166 181 186 197 199 198 196 200 205 210 210 210 220 222 221 227 223 218 217 224 224 228 228 229 225 223 229 227 226 222 220 215 212 207 202 200 200 196 191 184 178 168 167 170 168 165 155 147 136 118  73  92 105  81 101 147 199 164  27  17  22  20  22  21  24  40  51  53  52  52
 192 211 209 212 222 209 211 220 228 225 222 215 224 230 226 147  78 130 138 136 135 151 164 156 160 183 194 194 191 195 199 205 209 205 208 221 220 218 215 211 211 215 215 217 221 223 223 229 231 225 222 219 206 202 195 182 182 187 189 195 198 194 181 167 169 173 167 170 165 153 153 140  83  92  98  74  98 141 153 182 151  35  17  21  21  20  27  45  53  52  53  53
 182 204 211 195 208 212 215 211 217 209 211 222 216 222 223 152  86 125 138 135 139 149 142 138 137 147 158 165 177 178 183 194 199 202 202 210 219 212 207 213 214 207 200 205 210 212 215 215 215 210 203 190 168 157 142 144 151 168 179 193 195 188 179 177 170 171 168 172 169 158 160 149  88  93  94  67  88 121 152 185 192  99  13  21  21  21  30  47  54  52  51  52
 194 198 209 207 206 212 203 203 210 211 208 210 209 214 221 179  95 122 140 141 136 120 121 122 111  94  86  97 108 109 125 141 166 179 190 194 201 203 203 204 204 200 196 190 196 190 189 170 139 135 129 118 102  92  87 107 126 152 167 167 173 173 179 181 171 171 174 176 168 167 167 161  99  82  89  66  82 120 141 112 142 122  16  20  20  22  34  49  52  53  52  54
 185 197 214 213 211 216 214 209 206 215 209 191 195 214 211 193 107 123 139 143 119  96  97 104 103  95  76  57  45  49  62  66  87 117 157 181 191 194 198 201 197 196 189 184 179 161 146 122  74  50  50  50  56  76 101 115 111 118 140 153 148 156 164 171 166 167 166 169 166 169 170 161 100  73  77  78  80 118 127 130 156  97  12  19  21  26  39  52  53  52  53  56
 180 187 211 213 215 220 217 210 211 207 201 201 207 213 206 199 123 117 140 130 100  96 116 139 152 166 169 158 138 124 115  96  78  73 113 155 173 182 190 201 199 195 187 174 159 143 117  83  71  88 113 134 152 173 182 176 161 139 122 132 132 130 134 152 154 154 159 175 170 172 169 163 108  75  70  71  77 142 155 152 192  82  10  19  21  30  45  52  54  56  58  59
 194 184 195 203 206 208 201 195 206 216 209 214 220 216 209 216 143 107 143 130 110 107 133 158 174 187 190 203 213 217 214 203 179 143 107 110 141 161 183 194 194 193 187 170 152 127 104 111 145 168 179 190 206 211 207 200 179 157 135 131 129 122 122 138 149 147 170 179 167 175 169 164 119  75  68  79 146 194 165 161 193  47  13  19  22  35  50  54  56  59  60  63
 214 204 209 211 215 210 198 196 199 207 210 198 205 215 219 229 164 106 141 134 128 125 134 145 149 132 117 109 110 101 108 113 132 148 139 108 106 138 166 184 191 197 189 172 142 109 111 131 130 120  95  69  77  85  83  81  98 126 139 133 135 139 141 140 140 157 182 179 166 173 168 159 114  71  61  97 191 193 166 178 143  22  19  21  26  43  54  58  60  62  65  69
 212 196 195 210 225 222 217 209 208 206 215 208 205 204 218 233 178 116 140 137 137 135 122  91  52  33  81  47  26  36  39  45  89 104 110 110 102 119 159 195 209 200 178 151 127 112  99  98  93  74  81 123  57  45  27  22  46  56  69  92 119 130 136 143 149 169 182 170 169 169 162 148  98  69  50  92 171 188 171 191  74  12  20  20  32  51  57  59  63  67  72  75
 211 199 182 188 202 211 216 210 207 204 209 212 218 207 216 227 195 128 134 140 140 127  95  55  42  88 164 129  46  46  51 118 173 122 136 152 118 121 158 210 230 208 178 164 147 118 130 115 118 122 165 202  98  47  43  53 126 119  61  70 100 120 127 140 151 170 178 164 172 166 158 143  89  58  45 111 174 184 187 147  20  17  20  21  32  52  59  63  65  71  75  78
 198 219 210 195 200 200 213 209 199 190 197 197 207 208 209 215 215 169 133 147 148 127 107 100  92 104 134 163 110  83 105 164 165 136 131 176 163 131 172 220 236 218 187 184 165 160 174 140 134 136 144 168 158  95  85 116 141 118 101 112 122 124 129 142 169 182 171 170 169 162 156 132  85  56  82 136 178 191 188  80  10  20  19  20  28  46  59  65  69  72  74  76
 187 209 210 204 207 208 207 207 203 192 197 207 211 209 215 209 220 204 138 149 162 147 152 151 138 134 125 122 139 157 171 190 181 162 176 177 166 148 185 222 236 223 196 194 167 171 194 199 170 158 156 149 142 148 144 145 131 133 134 160 176 181 170 177 192 195 181 176 167 159 149 117  82  94 158 178 190 215 158  26  15  19  19  20  24  37  57  64  68  69  71  72
 200 213 209 218 216 211 209 211 207 204 201 211 218 210 216 212 211 227 148 146 171 163 168 174 167 169 171 168 174 187 195 195 177 178 184 168 144 167 192 219 230 218 207 198 178 178 189 179 183 175 174 184 179 175 175 186 174 159 168 190 200 186 197 204 204 205 187 178 162 152 142 119 105 167 199 192 209 224 111  15  18  19  20  21  21  33  55  64  65  67  69  70
 201 204 207 214 216 201 200 199 197 210 218 219 217 210 211 214 207 230 162 145 166 166 171 177 185 190 182 184 188 185 186 187 183 189 184 158 148 176 193 220 225 215 210 197 183 186 180 180 182 185 185 191 196 197 199 197 190 189 197 197 198 193 209 212 213 203 184 175 157 140 142 125 155 191 193 187 224 206  54  13  19  19  19  19  21  33  55  62  62  63  63  64
 214 197 201 203 202 208 212 199 190 195 211 218 216 212 212 211 207 222 170 141 159 171 173 177 181 188 199 200 201 201 201 199 192 194 181 161 159 181 204 221 218 218 210 193 197 199 196 197 182 183 202 211 212 210 209 207 204 204 203 206 208 210 218 215 209 194 177 170 149 139 138 130 178 172 178 200 216 153  25  15  19  19  19  19  20  36  56  61  60  59  59  60
 227 204 194 198 191 192 214 221 217 205 203 213 214 215 217 214 205 207 166 137 159 180 178 183 186 185 196 206 213 203 195 200 200 195 175 164 160 189 210 220 220 221 209 193 199 209 204 209 202 181 191 211 219 220 220 212 209 210 218 214 217 221 215 215 205 194 173 159 145 143 141 134 171 174 210 189 190 121  10  18  19  19  19  19  23  41  55  57  58  56  57  57
 211 211 205 200 185 187 203 209 219 224 213 212 211 209 211 211 206 208 172 134 163 179 180 183 190 191 193 199 202 197 199 208 206 193 174 165 159 193 206 219 222 223 210 188 198 199 196 210 224 204 178 173 199 216 218 211 213 221 220 219 219 217 218 211 207 190 169 156 142 144 144 130 167 210 216 191 201  63  10  19  19  19  18  19  28  46  53  55  54  55  54  54
 194 194 205 215 211 212 207 189 200 225 229 227 206 199 204 202 203 217 181 129 157 176 184 187 192 194 192 200 202 205 212 214 209 186 168 162 163 188 207 217 218 214 209 196 196 187 194 208 226 227 215 195 186 194 196 201 209 206 213 212 210 217 219 213 207 182 162 157 143 148 147 127 175 221 199 202 140  16  18  20  19  19  18  21  36  50  51  53  52  53  53  53
 205 197 193 198 195 205 211 196 191 198 206 226 232 218 201 201 212 220 182 128 147 168 180 194 196 196 199 202 203 204 211 211 205 182 166 159 161 183 210 219 220 212 204 193 190 188 193 202 215 223 230 228 222 212 207 207 214 218 218 212 217 221 216 207 193 169 156 154 144 153 148 129 174 192 182 185  50  13  18  19  20  19  18  27  45  50  51  51  51  50  52  52
 218 201 191 192 179 193 215 216 209 201 188 195 210 222 221 211 213 219 183 128 139 160 165 180 191 194 200 204 205 209 211 212 206 181 166 156 160 183 210 225 225 217 200 189 189 190 191 197 214 223 226 229 227 226 224 225 228 223 218 212 208 208 200 195 176 162 160 151 146 154 147 127 183 185 198 104  10  19  18  19  19  19  20  35  50  52  52  52  51  51  50  51
 215 209 194 199 192 192 200 205 224 225 211 200 191 197 218 222 216 214 189 130 135 153 166 174 188 195 201 203 206 208 209 217 206 181 166 161 164 187 213 225 226 220 201 191 186 183 183 200 213 221 227 229 230 232 227 227 224 224 216 207 202 198 191 184 174 174 158 147 147 154 142 132 184 196 155  28  18  19  20  18  19  17  23  42  52  53  52  50  50  51  51  51
 197 205 193 197 203 198 198 198 205 213 209 209 203 193 202 206 223 227 204 133 135 148 168 178 190 192 197 202 208 205 207 214 204 175 154 158 167 193 206 217 223 223 207 191 182 175 177 198 210 222 227 229 231 233 230 227 222 220 217 213 214 212 202 192 183 175 154 143 149 152 140 135 175 159  50  13  20  19  19  19  18  20  31  48  51  51  51  52  52  51  52  52
 222 212 192 190 202 201 195 197 192 198 202 193 216 198 190 208 209 222 214 132 136 149 165 176 185 188 193 204 208 206 207 208 201 170 144 154 163 189 203 217 225 217 206 186 176 172 169 184 204 215 219 227 230 231 230 226 222 219 215 215 212 206 200 192 182 169 150 146 152 149 136 116 107  47  13  21  20  19  19  19  19  19  36  50  52  50  51  52  51  50  52  51
 213 225 217 200 201 220 219 202 197 197 207 191 199 217 198 200 202 204 212 135 132 144 164 176 182 187 197 208 208 205 201 196 192 169 153 155 164 189 204 222 228 219 207 185 178 185 175 168 185 199 209 221 226 229 225 220 216 216 214 211 205 202 195 185 176 163 148 149 149 143 140  69  11  16  20  20  20  20  19  18  18  23  43  52  52  50  50  51  51  51  51  51
 186 195 219 220 196 204 208 221 221 198 189 191 183 204 212 204 200 196 209 140 127 140 159 172 180 185 195 201 200 201 194 179 168 162 165 163 166 182 199 217 222 219 211 187 184 194 187 156 163 177 189 203 211 216 220 217 212 206 204 200 195 195 186 171 155 152 144 150 147 140 133  52  15  21  21  19  21  21  19  18  18  29  48  51  51  50  51  52  51  51  51  51
 203 187 185 216 220 211 195 195 216 222 207 189 174 183 202 213 220 220 221 148 123 137 151 166 176 185 188 191 195 191 179 168 172 162 169 163 157 176 192 216 225 222 206 189 181 193 191 154 158 175 172 185 191 202 207 209 197 188 190 178 177 173 164 155 149 146 147 150 139 135 131  38  18  20  19  20  21  20  19  17  21  36  50  52  51  51  50  51  51  51  51  51
 194 192 183 204 223 217 200 195 195 193 212 209 181 170 190 207 214 224 230 162 116 131 141 160 169 182 184 186 186 185 181 181 189 156 140 150 163 181 203 219 226 217 203 182 170 179 170 142 166 184 175 164 175 189 192 189 188 186 177 169 163 151 144 138 142 146 146 144 144 138 118  27  20  20  20  21  21  20  18  18  27  44  52  53  52  51  51  50  51  50  51  51
 184 188 197 203 218 214 207 209 200 188 204 218 207 182 177 200 209 204 219 178 109 126 131 149 164 175 179 183 185 179 183 194 195 181 127 120 154 189 205 204 207 201 182 156 127 111 113 144 199 207 198 175 168 177 184 181 177 173 167 159 146 131 122 131 142 144 136 143 147 139 101  18  20  20  20  21  20  20  19  22  38  50  51  53  52  51  50  49  51  51  51  51
 182 187 193 186 204 212 205 211 206 204 204 205 202 204 200 199 209 200 202 192 113 121 123 135 154 168 175 177 180 186 194 199 197 194 168 126 107 150 171 167 173 159 122  93  84  95 132 182 212 219 214 202 181 169 170 173 169 167 159 148 135 122 129 150 151 143 135 141 142 138  78  13  20  20  20  21  22  20  20  31  47  51  51  51  51  49  51  51  50  50  51  51
 213 197 191 187 190 203 205 206 207 197 184 184 194 213 217 208 209 199 199 205 124 116 125 123 139 157 168 173 177 187 191 189 188 185 157 144 127 104 107 111 114  96  97 131 149 150 173 189 200 215 223 216 200 165 138 137 144 154 157 150 139 143 160 166 158 142 142 143 143 136  52  12  20  20  20  20  20  20  24  41  52  51  50  50  49  49  51  50  49  49  51  51
 218 217 205 195 192 195 207 215 212 203 188 187 188 198 211 217 215 205 195 214 152 106 127 126 129 147 160 162 165 176 168 168 167 166 154 154 150 146 127 112 112 118 158 173 178 183 187 183 190 211 216 207 201 192 172 148 141 146 151 152 154 161 166 167 155 147 145 138 136 124  31  15  20  21  21  20  21  24  33  50  53  49  50  51  49  48  49  50  50  49  51  50
 212 217 219 207 198 194 203 218 217 207 203 202 203 197 210 213 206 214 199 205 186 103 120 130 130 148 156 158 161 161 148 152 154 152 151 159 151 153 158 155 157 152 162 185 189 193 200 190 183 200 203 196 189 185 184 168 160 156 159 164 169 170 167 162 154 142 141 137 134 102  16  19  21  22  21  22  28  34  44  52  53  50  50  51  50  48  49  50  50  49  49  49
 201 204 207 215 207 196 202 214 218 207 207 208 211 205 213 209 197 204 209 205 202 119 113 130 130 147 161 155 150 149 147 147 152 139 152 155 158 163 170 157 135 142 173 196 195 191 184 184 181 176 185 185 182 165 159 156 153 166 169 171 171 173 172 161 150 141 141 134 135  70  13  20  22  22  20  24  39  46  49  53  52  50  50  50  50  47  49  50  49  49  50  49
 201 198 198 205 211 198 190 203 211 214 205 208 213 206 207 203 198 199 206 211 218 159 100 126 134 148 166 152 132 147 151 139 137 145 156 152 160 170 167 152 135 144 153 177 192 184 173 179 178 172 172 172 176 168 163 162 163 191 185 169 171 173 168 160 152 144 132 132 120  29  16  20  22  22  19  26  48  53  52  54  52  49  50  49  49  48  50  49  49  49  50  50
 216 216 194 192 207 204 194 198 203 204 204 203 210 209 204 198 197 204 206 205 214 204 108 120 130 143 167 161 129 141 134 131 130 139 158 154 153 172 184 149 153 161 136 164 191 188 182 184 159 181 155 147 168 162 159 152 174 202 195 188 176 172 171 162 148 135 133 131  78  12  19  19  20  20  18  29  51  54  52  52  51  49  50  49  49  49  49  51  49  48  49  48
 175 204 217 202 201 197 209 202 197 200 206 204 213 207 201 202 192 205 200 192 202 213 141 101 129 132 160 162 130 132 125 134 149 157 158 162 171 189 199 183 180 168 164 185 181 189 187 181 157 149 142 150 153 141 130 153 193 209 198 185 168 172 171 152 144 131 131 113  29  14  18  19  19  19  19  33  54  53  52  52  50  49  50  50  48  50  50  50  49  49  49  48
 173 182 204 222 215 197 205 200 202 198 202 213 216 212 200 206 200 197 197 187 189 200 188 107 117 129 141 163 140 127 120 108 112 126 134 146 155 168 177 197 181 182 193 198 190 188 182 171 167 159 137 118 110 113 142 177 203 204 197 181 168 171 162 152 136 121 119  82  10  17  19  19  20  21  20  37  54  51  53  53  52  49  49  50  51  50  51  50  51  50  48  48
 204 193 188 208 225 212 202 199 200 201 203 206 211 215 213 211 204 203 200 193 191 202 207 117  99 127 132 152 160 147 137 135 130 100  74  73  86  93 102 116 127 146 135 124 116 113 109 109 110 111 119 135 143 156 175 190 209 203 189 172 169 165 157 146 119 111 111  47  13  18  19  19  20  19  22  41  51  51  53  54  52  50  49  49  49  50  51  51  49  49  48  46
 214 204 191 189 206 216 209 207 196 201 217 208 209 212 217 214 216 209 211 199 206 200  75  30  82 116 132 142 163 153 144 149 143 137 133 117 122 127 125 120 103  97 100 107 103  92  92 105 112 115 143 162 178 182 187 189 197 195 179 164 158 152 141 123 110 107 108  36  16  18  20  19  19  19  25  45  53  52  52  52  51  49  48  49  49  49  50  51  49  48  48  46
 204 205 206 193 186 201 213 216 206 189 200 209 211 212 208 200 211 215 213 213 189  52   6  34  57 101 120 135 154 156 143 150 153 123 117 145 155 164 164 173 174 167 166 168 162 160 154 136 115 136 173 182 180 184 189 187 185 182 167 154 146 137 124 113 108 100 102  36  16  18  20  19  20  19  29  48  53  53  52  52  49  47  48  49  49  50  50  49  49  48  47  45
 187 188 207 207 185 191 203 219 222 207 192 195 204 213 215 208 210 214 214 199  61   0  33  36  78  98 109 125 138 153 146 143 152 153 112 112 150 170 167 162 161 163 155 159 157 156 129 108 133 171 184 181 183 194 193 185 181 166 150 137 130 117 109 119 101 101 106  33  27  17  21  19  20  20  35  50  52  52  52  52  49  47  48  48  49  49  50  48  47  48  47  45
 193 178 186 207 209 204 202 212 223 223 202 191 202 209 220 217 207 219 214  81   5  13  44  31  93 111  96 111 134 149 154 148 142 158 146 103 100 127 133 121 104 105 103 113 119 112  98 136 170 182 179 180 191 187 183 180 164 147 133 119 118 112 113 106  86 128 100  20  41  20  19  19  19  24  41  52  54  52  51  50  49  48  49  49  47  49  49  49  47  47  46  45
 218 205 198 207 208 215 210 210 217 223 215 212 214 210 213 225 218 209  83   9  14  20  47  28  85 125  98  94 123 146 158 155 148 146 149 135 104  88 101 109 114 109 115  98  93 104 141 167 177 177 176 184 193 184 177 172 164 141 114 107 121 132 124  86 100 149  95  16  47  26  20  19  19  28  46  51  54  53  51  50  50  47  48  49  48  48  48  48  46  46  46  45
 205 217 220 213 195 212 218 208 212 221 215 219 222 220 209 224 220  80   9  21  11  33  45  32  67 133 112  89 109 142 166 159 155 151 150 149 148 130 112 106 108 113 115 112 121 140 157 169 177 175 185 194 179 182 181 163 156 121 107 122 127 130 109  86 133 142 101  21  47  33  22  22  21  35  49  52  52  51  50  50  49  46  48  49  48  48  47  47  46  46  46  43
 202 202 211 205 200 200 204 213 207 212 213 212 214 212 228 196  67  13  23  20  13  39  42  35  49 122 134 102 101 125 154 163 159 158 159 153 154 156 142 129 134 135 135 132 137 152 162 175 176 178 193 183 163 181 169 151 144 118 117 126 131 121  84 115 149 136 105  27  47  45  19  27  29  43  52  53  52  50  49  49  48  47  48  50  48  47  47  47  45  46  46  43
 224 206 189 195 205 204 201 213 225 216 207 217 216 223 198  56  13  25  20  20  14  38  40  35  36 109 141 122  94 117 146 153 155 160 171 172 159 168 184 192 193 191 190 190 192 195 185 180 179 195 189 179 169 165 144 152 131 119 127 128 130  94  89 144 137 133  99  29  47  54  20  26  33  49  53  53  52  52  52  50  48  47  47  48  48  48  48  46  44  44  44  42
 226 223 197 190 212 210 205 207 223 231 225 227 236 179  42  14  28  23  21  19  15  37  40  37  28  87 136 138 107  94 123 140 142 166 174 180 173 173 193 201 209 210 209 212 209 203 198 198 197 199 183 173 170 161 141 136 120 130 136 119  98  80 134 147 132 130  81  30  47  56  26  24  29  46  55  53  53  51  50  51  47  47  48  48  48  48  46  44  45  45  44  43
 203 225 234 199 203 217 204 207 224 237 240 239 162  33  14  27  29  24  24  17  19  37  40  38  24  63 133 143 124  90 112 124 151 153 166 169 168 171 187 198 210 211 216 214 205 202 205 214 215 195 181 185 173 165 159 125 121 130 106  88  69 113 159 141 130 123  61  34  50  54  29  26  28  32  54  56  51  51  50  49  47  47  47  48  48  47  47  45  44  44  43  42
 199 206 227 229 223 229 224 215 190 153 115  73  20  17  26  28  28  24  25  15  19  37  38  39  26  46 117 137 145 107  86 111 140 155 162 162 179 173 175 192 204 205 202 202 202 204 213 218 213 188 169 177 176 163 142 119 108 111  97  73 101 156 152 142 137 115  43  41  50  49  25  26  30  26  38  55  52  51  49  48  48  48  48  47  46  46  45  45  44  44  44  41
 217 215 218 228 215 160 104  63  31  12   8  11  21  24  26  28  25  23  26  14  18  34  37  40  31  28  89 128 144 141  91 108 145 156 164 163 177 176 169 176 189 200 195 193 202 210 206 208 203 184 168 175 178 166 137 109 108  96  70  95 152 153 142 144 138  91  37  45  51  44  24  31  30  28  28  44  55  51  49  48  48  50  48  46  46  46  45  44  43  43  42  40
 216 174 115  73  38  14  10  15  21  22  24  23  23  23  25  29  27  24  27  10  19  32  34  39  34  22  53 120 133 153 130  92 125 153 153 151 157 170 172 171 179 183 180 190 198 200 194 193 184 177 169 180 169 151 110 100  89  69  94 154 154 145 142 146 127  67  33  46  50  41  21  33  30  29  28  29  46  51  48  49  50  49  47  46  47  47  45  45  43  43  42  40
  50  27  13  12  19  21  22  23  25  24  23  23  24  26  26  28  25  26  26   9  20  30  32  40  33  25  25  96 129 140 162 129  95 137 151 142 142 145 153 159 165 164 169 174 178 175 170 168 163 170 159 171 159 118  88  76  66 102 158 155 143 144 148 142 104  38  38  48  48  36  23  33  31  29  28  28  30  47  50  50  49  48  46  45  46  47  45  44  43  42  41  40
  20  21  22  24  22  23  23  24  24  22  23  26  24  24  25  29  27  29  25   9  22  30  31  38  33  28  20  60 127 139 140 165 116  91 132 137 131 134 137 156 157 153 157 155 155 151 148 140 150 157 149 147 110  72  62  64 119 167 156 146 140 147 146 132  69  30  48  46  47  32  23  30  30  32  29  30  30  34  49  50  47  47  45  44  45  45  45  43  42  42  41  40
  26  23  25  24  22  22  25  24  23  23  22  23  23  25  29  29  28  29  23   8  21  31  32  37  33  28  27  25 101 140 137 152 171  98  89 106 125 146 143 152 143 147 141 137 130 137 145 145 140 143 113  93  66  49  79 146 173 160 153 148 150 154 146 108  33  38  52  44  43  25  26  33  29  29  30  30  30  29  38  49  48  47  45  45  45  45  44  44  42  41  42  40
  23  25  25  24  24  23  26  23  24  24  23  22  26  28  28  29  29  31  24   7  20  31  33  37  36  31  28  20  51 128 139 146 166 173 102  62  75  90 104 118 127 130 131 128 125 120 122 112  95  79  58  44  55 101 161 170 164 160 150 149 155 152 138  55  26  44  46  44  40  21  31  34  30  28  27  30  32  30  29  35  45  48  47  47  45  45  45  44  43  42  41  40
  26  27  24  24  26  25  25  25  26  24  25  25  27  26  28  28  30  31  27   9  19  28  33  35  37  32  28  28  18  81 142 144 145 170 173 114  75  56  58  65  77  87  98  81  78  67  56  50  36  32  51  83 128 157 164 174 168 151 151 164 157 153  85  21  42  48  45  43  33  21  33  33  32  29  29  30  32  31  33  30  37  42  45  46  46  45  44  42  42  42  40  39
  29  28  26  27  28  24  23  26  25  23  23  27  27  29  29  30  31  33  30   9  17  26  33  35  36  31  30  29  23  24 115 149 149 147 166 163 135 111  78  55  48  44  41  33  29  27  35  46  67  97 120 139 156 170 179 179 158 150 160 161 161 110  24  32  47  46  44  44  27  27  34  29  29  31  31  30  32  31  32  31  35  41  39  39  42  45  45  43  43  42  41  39
  30  32  33  32  31  27  25  27  28  28  26  26  28  30  30  30  31  34  31   9  14  29  36  34  36  32  29  28  33  22  47 144 157 159 152 163 159 143 145 126  98  78  75  73  83 100 115 130 138 135 135 158 180 183 175 171 164 162 161 164 131  33  28  40  48  44  41  43  21  29  36  32  31  31  30  31  34  31  31  35  31  38  42  37  37  40  42  43  42  41  40  39
  32  31  33  32  26  28  28  27  27  26  25  27  28  29  31  31  32  38  33  11  14  31  36  35  39  33  30  36  30  16  11  95 163 159 163 158 161 155 139 130 123 116 116 125 132 132 137 135 136 140 164 182 180 180 183 171 170 166 159 144  43  25  41  43  48  42  42  38  21  36  34  33  33  31  28  30  33  33  32  35  33  34  39  39  37  39  40  41  41  44  41  40
  33  32  32  28  25  28  28  29  28  29  31  30  33  34  33  33  36  39  32  14  18  31  31  33  41  37  38  20   4   3  15  28 104 160 168 169 159 160 163 159 158 151 145 147 154 161 157 159 160 168 183 189 191 192 185 178 170 155 136  52  22  38  43  46  44  41  42  30  25  37  34  33  32  31  30  29  34  32  32  35  35  34  40  41  38  39  40  40  39  41  41  40
