P2
# Generated by OpenCV 4.2.0
92 112
255
  48  49  49  49  48  48  49  50  49  49  49  49  50  50  48  49  48  49  48  49  49  49  50  49  48  49  49  50  50  49  50  49  50  51  51  52  52  52  37  22  16  13   5   3  11   3   1   5   8  14  24  33  21  21  16  13  25  28  31  42  34  20  35  45  26  14  30  47  48  47  38  51  46  40  49  49  48  48  49  48  47  48  47  47  48  48  48  47  46  47  45  45
  49  48  49  49  48  47  49  49  48  49  49  49  49  50  50  50  49  50  50  50  49  49  49  49  49  49  49  49  51  49  46  47  51  47  41  42  44  33  13  18  26  12   7  10  16  32  32  20  12  21  18  10   5   6   8   8   9  15  37  37  25  25  34  32  24  20  22  38  42  42  31  32  32  30  40  46  48  47  47  47  48  48  49  47  48  47  47  48  47  47  46  46
  49  50  48  49  49  49  49  49  48  48  49  49  49  49  49  49  49  50  49  49  49  49  49  48  49  50  52  51  37  29  32  34  26  27  38  49  33   9  16  25  16  21  40  52  60  65  43  31  20  12  21  14  14  10   5   4   6   8  12  21  26  35  32  27  22  24  28  23  31  29  39  30  25  27  32  48  47  47  48  48  48  48  48  48  47  46  47  50  48  47  47  46
  49  48  49  49  48  49  50  49  49  48  49  49  49  49  49  49  49  50  49  50  49  49  48  49  50  56  52  33  24  31  29  30  25  27  34  28  22  28  30  17  25  50  57  54  71  86  71  49  25  14  28  40  13   6   7   7   4   8   8  21  30  24  22  17  13  32  30  12  23  26  36  42  27  25  41  50  49  48  48  48  49  49  49  48  47  48  48  47  48  46  47  46
  49  49  48  49  49  48  49  49  49  49  49  48  49  49  51  49  49  50  49  48  50  49  54  53  43  33  24  21  28  40  22  18  29  28  36  41  55  53  34  33  45  40  27  30  30  35  42  44  29  20  17  20  14  14   8   4   6   6  13  21  19  17  11   6  22  31  22  49  38  22  37  40  25  44  49  61  49  49  49  49  49  49  49  49  49  49  48  48  48  47  47  47
  49  48  48  49  49  49  49  48  48  49  50  49  49  50  51  50  51  49  49  50  50  61  60  50  48  43  53  41  21  22  27  16  36  57  60  50  47  45  51  43  41  35  42  36  31  27  17  30  35  21  16  12  11  13  10   6   8  13  21  23  20  13  10  14  33  59  53  56  26  28  28  26  31  59  52  75  47  50  50  48  49  49  48  49  49  49  49  48  47  48  47  47
  48  49  49  49  48  48  49  47  48  50  49  49  49  49  50  49  51  50  51  46  45  42  35  51  50  56  41  43  42  48  47  61  75  60  54  48  46  52  41  31  36  45  50  46  41  29  17  21  33  50  51  34  21  13  15  12  18  38  31  18  25  38  38  26  27  54  50  39  34  56  41  42  54  61  63  65  47  50  49  50  53  49  48  48  49  48  48  47  47  47  47  47
  48  49  48  47  47  48  49  49  49  50  49  49  49  50  50  50  51  52  40  32  38  12  31  51  52  46  43  48  25  29  25  68  61  54  75  53  31  33  25  24  30  35  27  29  26  25  23  26  33  33  33  28  41  32  30  38  36  29  16  19  33  38  20  15  30  43  31  33  61  69  55  69  55  57  54  49  49  48  51  53  50  49  49  49  49  48  48  48  49  49  48  48
  47  47  48  47  46  48  50  49  49  49  50  50  49  50  52  48  58  45  27  41  29  40  71  56  41  47  39  19  12  19  50  71  52  70  47  21  38  51  41  33  31  30  18  29  34  40  44  40  51  64  73  55  61  58  33  25  25  18  29  27  23  10  16  29  40  23  21  50  49  33  37  28  24  41  52  49  50  54  54  49  48  50  48  49  48  47  47  48  49  48  47  47
  49  48  48  49  48  49  50  49  50  48  50  51  49  53  51  60  62  24  41  40  37  70  71  34  51  38  20  14  24  72  85  41  21  25  40  46  59  49  35  26  18  18  24  22  26  35  32  28  24  33  46  29  33  24  14  17  22  18  23  32  29  21  21  26  13  10  21  35  20  21  17  20  23  15  41  52  52  52  50  50  50  50  49  49  49  49  48  48  49  48  47  48
  48  47  48  49  49  49  48  47  44  47  48  49  46  50  49  70  37  29  32  48  62  54  29  25  44  30  21  18  75 101  50   6  19  54  58  29  22  25  27  18  23  53  48  33  28  26  32  34  37  30  24  24  19  19  28  14  12  14  13  20  24  38  43  45  37  36  19  15  13  17  17  21  23  18  17  43  52  49  51  53  50  50  49  49  49  49  49  48  50  49  48  49
  48  48  49  48  49  48  46  41  42  50  50  46  44  49  55  51  35  47  60  43  36  23  23  22  49  43  25  88  80  40   2  12  41  45  13   7  46  68  46  41  42  44  38  36  55  59  50  34  31  26  25  50  78  56  33  25  33  39  37  32  24  29  30  24  18  13   8   8  14  17  26  29  25  22  12  22  44  50  49  49  49  49  49  48  48  49  48  48  49  49  49  49
  49  49  49  49  48  49  47  36  43  49  46  38  37  37  44  36  31  39  41  20  29  24  14  21  43  30  54  44   0  19  30  23  14   6  21  31  49  56  33  22  16  26  33  35  46  50  48  29  37  50  48  52  53  41  40  44  33  33  35  27  22  24  24  18   7   4   9  15  19  19  28  48  31  31  29  18  33  49  50  50  49  49  50  50  49  49  48  48  49  49  50  49
  49  49  49  49  49  50  49  40  39  42  37  30  32  46  42  27  23  35  29  23  23  19  20  30  30  42  22   4  23  45  28  21  24  58  41  36  25  15  24  30  23   8  13  46  48  48  43  49  55  53  48  37  35  37  30  20  16  23  30  26  20  19  22  47  66  45  23  22  32  44  29  28  36  27  31  42  29  42  50  49  50  50  50  49  49  49  49  49  48  49  48  48
  48  48  49  48  49  50  51  48  41  35  41  32  41  54  33  25  18  27  26  22  16  23  31  36  25  17  30  25  20  35  44  55  54  42  26  31  20  24  44  31  20  30  46  35  47  65  52  39  37  35  28  26  29  31  29  31  31  22  22  28  32  35  31  10  17  57  67  40  22  22  37  32  24  24  17  36  39  36  38  42  43  46  50  49  49  49  47  48  49  49  48  48
  49  50  49  48  47  48  48  47  50  44  37  36  52  48  25  22  24  21  15  15  18  17  17  15  15   7   5  12  21  23  32  43  31  26  30  30  50  63  40  22  29  53  56  58  47  40  48  45  27  18  14  11   7   8   4   8  18  30  38  36  31  36  33  30  11   5  37  57  42  24  22  36  33  17  17  28  25  20  23  49  47  46  49  49  49  49  49  49  49  49  49  48
  49  49  50  48  49  49  46  43  45  56  44  29  38  39  24  27  24  18  17  18  21  20  10  10  10   8   6   7  10   9  12   7   7   8   8  20  36  20  14  18  24  27  37  43  30  20  23  17   7  12  12  13  18  14  27  38  25  10  14  37  41  30  20  15  24   9   8  29  39  27  22  26  24  23  14  25  32  14  24  48  53  50  49  50  48  49  50  49  48  49  49  48
  49  50  48  49  49  48  48  47  40  37  41  21  31  30  25  21  25  21  24  22  23  17  13  15   9  11  10   8   8  13   9   6   9  11   8  11  16  37  33  23  47  35  50  40  33  22   7  14  27  18  23  17  16  35  30  19  16  10   3  10  24  19  32  15   9  10   6  13  29  10  22  37  23  24  19  17  18  12  24  43  49  50  50  44  39  43  51  50  46  48  49  48
  48  49  48  49  49  48  47  49  43  29  47  42  30  32  31  23  25  27  30  19  25  22  14  10  15  12  10  10  12  16  10  13  12  11   8   8   9  18  25  27  25  34  33  25  22  30  34  27  30  31  16  23  42  17  12  13   5   9  10   7  11  18  15  21  15  15  20  12  26  37  35  30  35  24  25  19  17  13  12  42  58  49  45  71 119  83  45  49  56  48  41  46
  48  48  49  49  49  49  48  44  33  40  53  67  55  35  33  30  31  28  25  22  28  32  15  12  18  10  13   8  16  13  12  15   8   6   7   8  16  12  15  22  24  31  42  41  27  43  30  31  36  20  36  30  23  12   8   5  11  14  14  13   8  20  19   1   9  19  28  27   7  19  60  48  26  23  23  21  15  29  24  47 107  56  59 136 114 143  74  46 145 100  83  70
  48  49  48  46  48  48  48  45  33  48  45  41  76  60  45  41  56  37  36  28  38  36  20  11  22  14  14  10  17  14  16  14   9   7  10  10  11  15  18  25  31  34  22  55  49  27  29  34  31  41  29  26  18  10  13  19  25  18  12  11   9  14  14   9   5   9   9  15  23   4  12  34  41  11  11  10  32  48  45  24  40  52  67 147  76 137  87  64 171 163 174 102
  50  49  48  47  44  50  52  45  32  28  43  46  45  53  55  68  84  71  56  41  42  44  41  22  22  17  14  14  17  17  23  16   7  14  17   8   7   8  15  23  36  62  60  28  31  25  25  36  38  28  28  21  24  30  30  27  13  10  18  23  14  11  13  10   4   5   9   8  14  17   5   6  30  44  29  28  34  48  45  48  30  55  49  98 147 118  49  82 127 138 159  71
  50  51  50  51  53  59  41  37  36  35  41  53  57  44  46  48  62  60  57  58  61  56  55  51  39  21  21  23  20  19  23  19   9  22  14  13  13  16  25  19  30  53  52  32  17  32  30  16  30  43  19  31  40  25  13  13  23  22  12  16  13   7  11  18  18  15  10  11  10  12  11   6  13  37  65  41  20  47  44  51  46  27  45  47  56  48  47  54  52  56  97  58
  51  51  49  51  51  49  46  38  39  37  26  34  55  52  63  59  48  34  69  76  73  56  57  43  55  47  37  23  27  25  26  26  22  21  14  13  11  18  30  23  21  48  26  12  35  42  21  24  26  15  19  26  21  12  26  29  29  17  13  17  13  11  13  16  25  23  13  10   9  10  12   9  12  14  36  45  27  35  46  32  51  29  35  47  46  48  49  47  48  48  46  55
  51  50  49  49  49  46  47  39  24  30  32  34  50  54  46  44  49  34  52  59  64  66  61  35  29  44  47  37  39  31  24  24  26  26  24  13  14  20  31  30  31  34  30  13  25  35  29  24  21  19  19  18  30  40  38  38  24  22  20  17  21  34  39  22  12   9  13  14  12   6   9  13  11  10  16  37  22  42  37  22  29  36  36  39  46  50  49  49  50  49  49  49
  49  50  49  49  45  50  44  25  32  30  14  24  29  31  31  43  55  44  34  50  49  67  79  49  30  37  37  37  48  52  39  31  27  26  44  39  24  26  35  36  38  40  27  29  32  28  40  43  27  37  56  45  60  49  54  38  33  25  33  38  37  30  19  16  30  34  17   7   7   5   5  10  15  13  24  36  18  31  58  14  20  23  34  50  49  50  49  49  50  51  51  50
  50  50  49  46  50  62  42  35  31  18  16  26  26  30  36  48  52  62  48  48  66  66  74  63  45  42  42  43  54  64  55  40  42  45  51  55  50  49  47  37  37  46  31  46  58  43  55  71  60  64  93  85  94  82  64  65  66  40  33  25  19  13  10  14  54  33  17  22  16  11   4   5  16  16  18  27  26  26  51  27  14  18  31  51  49  50  50  50  51  50  51  49
  50  50  50  46  52  44  38  32  25  19  27  30  34  34  33  45  59  63  82  96  70  66  71  65  61  51  49  68  75  84  69  57  54  65  69  56  57  69  77  67  51  45  40  71  77  75  86  99  98 106 117 129 122 117 113 112  94  69  67  64  53  35  22  44  38  20  18  20  25  28  25  14  17  25  17  14  18  28  40  29  17  20  34  59  54  44  45  47  49  49  49  50
  49  50  50  49  44  37  40  36  25  20  18  30  27  27  49  63  59  82 101  73  63  75  76  76  93 101 104 111 114 117 120 113 102  98  97  82  82  82  85  91  88  76  86 114 117 125 139 142 135 141 150 158 147 156 157 143 139 119  89  73  64  50  64  64  36  33  25  24  27  49  50  41  21  15  18  13  17  17  18  39  36  27  33  84 136  86  68  93  54  50  51  49
  50  50  49  48  48  43  44  58  52  38  22  15  20  43  52  73  77  75  61  66  68  66  77  98 117 123 127 132 133 135 139 152 150 140 137 127 131 144 141 141 147 148 154 163 170 170 174 178 176 174 174 174 171 172 174 168 153 124 104  88  72  67  78  78  83  74  60  41  37  35  28  34  32  17   7   7  15  22  12  22  40  36  15  45  86 135 162 117  52  51  52  49
  49  48  52  50  43  41  50  64  64  63  53  33  43  57  56  66  68  55  60  66  68  84 106 123 119 116 126 132 137 137 147 152 153 158 157 154 157 170 172 175 178 183 187 191 194 194 195 195 189 182 180 176 176 179 177 171 164 147 126 117 109 106 105 108 111 117 100  77  54  43  42  43  34  25  14   5   8  23  25  19  20  30  33  59  53 124 117  47  48  50  51  49
  49  48  48  51  44  37  31  56  91  87  54  59  62  59  67  72  68  69  66  68  77 106 116 117 120 124 127 129 145 155 159 159 163 163 166 167 165 168 172 175 179 187 196 194 193 196 194 196 191 185 181 178 179 178 175 173 170 170 166 155 148 144 136 126 125 134 121 112  91  58  41  45  49  36  21  12   8  30  24  21  23  10  23  36  92 154  99  46  46  52  49  51
  49  48  51  64  65  61  46  34  34  44  80  98  80  72  70  76  72  76  82  78  86 115 118 128 127 131 132 142 151 158 160 164 165 165 168 167 166 171 174 176 181 189 193 195 194 191 186 186 187 186 185 183 183 179 175 174 170 173 170 165 158 153 150 137 129 138 136 127 121  84  52  64  59  39  23  13  21  42  24  12  22  22  22  43 150 159 124  57  63  52  51  51
  50  49  49  51  56  53  37  23  27  40  49  61  83  84  84  97  84  80  83  72  91 117 130 129 127 141 142 148 152 157 161 162 165 165 165 169 171 175 179 181 189 197 193 193 194 195 194 192 192 193 191 190 186 182 181 178 174 174 169 166 161 156 152 148 140 138 139 136 123 102  74  70  63  33  24  15  27  33  22  11  18  26  47 113 158 167 154 143 119  53  49  51
  52  52  49  46  41  38  34  25  24  49  55  72  84  86  95  91  86  92  84  70  93 121 128 132 134 144 145 148 155 157 160 165 162 163 166 174 176 177 185 191 194 199 200 199 201 201 205 202 196 197 195 190 188 185 183 181 175 177 169 164 163 158 153 154 151 146 138 130 124 114  73  65  60  33  16  15  20  20  12  17  12  17  66 105 115 142 162 161  95  51  49  50
  51  50  47  45  43  42  37  26  40  65  64  75  79  94  95  96  88  94  82  65  91 123 130 136 138 143 145 147 154 156 161 165 167 168 171 174 179 179 186 195 194 199 202 205 204 201 207 203 198 194 193 191 189 182 184 178 179 177 170 164 161 159 159 157 154 153 145 138 135 117  84  75  61  30  14  11   9  12  12  17  21   8  36  50  54  63  74  82  66  50  50  50
  49  48  46  45  42  40  35  32  73  60  68  84  83 104 103  89  78  80  74  66  88 120 133 136 142 145 148 150 153 159 161 163 168 167 171 178 181 182 188 194 198 201 205 207 204 201 202 199 202 199 194 194 193 187 184 179 182 178 172 167 162 163 159 156 155 162 154 142 134 114  89  92  70  29  20   9   9   9   9   8  19  11  20  46  48  46  44  45  48  49  50  50
  50  50  46  45  44  42  32  49  88  64  78  94  98  94  83  86  86  87  80  66  87 122 131 135 145 149 148 151 160 161 160 165 168 166 169 180 185 187 185 192 202 202 200 202 202 203 202 199 202 204 197 195 195 192 186 181 178 178 171 167 167 163 161 160 158 159 154 150 137 114  86  93  74  29  27  11  18  14   7   7   9  15  17  42  50  51  50  50  50  50  49  51
  51  50  49  48  46  43  35  63  78  64  98  92  89  84  92  90  82  82  83  79  86 119 130 137 146 152 150 154 160 160 163 168 166 164 168 176 184 190 184 187 198 200 195 200 202 201 198 200 198 196 192 188 189 186 182 178 177 173 169 170 169 164 166 165 164 162 157 150 139 113  84  91  75  46  42  27  18  21  13  10  10  11  18  43  50  49  50  52  49  51  52  52
  50  50  49  47  46  42  35  65  72  75 106  84  89  95  88  78  81  88  96  82  81 112 127 136 147 153 154 155 161 160 163 166 169 168 167 170 182 187 184 180 180 187 187 190 192 190 188 185 184 182 180 179 180 178 175 174 176 174 174 171 167 165 166 168 163 163 158 150 139 113  94  88  80  72  71  47  31  33  20  12  14  16  24  49  50  50  50  51  50  51  52  52
  51  49  49  48  48  51  44  73  83  82  95  96  98  90  81  76  78  87  92  87  80 105 125 139 147 155 156 158 160 165 167 165 167 171 169 170 177 186 186 184 178 178 184 186 189 188 186 188 188 192 193 193 192 188 182 183 184 179 178 174 169 168 175 170 163 163 157 149 139 115  94  92  95  76  68  60  46  43  28  17  25  29  42  54  48  49  50  51  49  44  42  41
  51  51  50  48  48  46  38  67  70  68  86  94  94  82  78  75  82  96  95  95  87  98 122 138 149 156 159 156 158 164 168 165 171 174 173 176 181 190 191 192 190 199 203 202 203 202 202 202 195 192 194 194 192 191 186 184 182 181 178 174 174 175 175 172 167 163 156 146 133 112 102  93  94  86  67  64  53  49  39  21  25  41  49  41  46  51  52  46  51  86 116 118
  50  49  47  42  38  32  27  57  67  63  84  89  86  91  76  73  87  96  98  97  93  95 120 138 149 154 161 162 161 163 164 167 173 174 174 179 183 188 183 185 198 201 201 202 204 206 205 201 192 187 189 192 189 193 189 184 184 179 177 175 175 176 173 171 166 160 153 146 123 111 115 101  83  87  82  58  54  49  39  25  31  42  30  37  45  50  44  65 155 214 234 235
  50  48  44  39  35  32  22  37  66  58  81  91  81  87  64  70  85  95 101 107  96  98 118 134 148 154 161 165 164 163 165 171 176 173 174 177 186 180 175 184 193 195 198 202 209 206 203 198 183 186 193 189 190 190 185 181 183 183 178 175 177 180 175 172 165 160 155 140 122 122 121 111  88  85  78  50  46  40  37  28  43  84  80  33  45  44  61 173 238 239 224 221
  49  48  45  40  36  31  22  22  49  48  85  90  77  66  65  67  85  98  95 101 102  99 115 134 145 156 161 162 167 169 166 169 172 175 177 178 179 175 175 185 194 197 198 199 199 199 200 194 182 183 185 184 187 188 182 181 182 185 183 179 179 181 178 169 166 160 151 139 127 126 120 115 103  90  72  63  48  38  34  27  39 113 162  57  42  43 129 235 234 172  97  90
  49  48  45  41  38  30  23  15  23  38  80  81  76  64  60  70  82  93  97 100  98 101 114 132 143 156 162 164 168 172 172 171 170 173 177 177 176 176 175 186 199 206 200 198 197 203 204 194 189 189 184 185 192 193 188 186 186 182 182 181 180 179 176 168 165 159 150 137 127 127 119 114 112 100  67  54  50  44  34  28  36  98 185 105  36  57 184 241 188  62  40  44
  50  50  47  44  40  34  25  21  23  34  69  75  80  66  67  84  82  92  97  99 100 101 112 129 139 153 163 166 168 169 170 170 174 174 176 179 178 176 180 194 210 205 202 202 210 206 204 203 198 200 190 191 192 193 189 188 188 184 181 179 179 176 172 169 167 159 148 138 130 125 124 117 111 101  65  50  46  55  32  42  54 103 185 126  44  70 205 240 141  41  52  51
  53  51  48  47  42  36  26  16  17  31  53  72  77  72  61  87  89  92  98 101 100  98 111 127 138 152 161 166 169 170 170 171 172 171 176 181 178 177 185 197 212 212 214 207 206 201 206 210 207 204 198 195 192 189 188 187 185 184 183 174 173 175 171 169 164 159 151 139 129 125 123 122 110 100  71  50  28  40  33  45  57 123 168 154  48  76 213 238 127  42  50  45
  53  51  48  49  45  37  28  16  12  32  38  64  68  68  49  64  76  88 104 100  96  95 109 125 140 154 158 165 170 169 166 167 169 168 172 178 179 181 186 199 199 202 204 207 191 190 201 204 213 207 199 188 188 188 187 185 183 177 174 173 168 164 160 162 160 157 152 141 127 127 128 124 119 106  74  55  40  41  43  34  60  95 155 163  53  88 220 235 116  42  47  94
  52  47  57  55  45  37  27  15   9  36  34  54  65  60  40  61  82  90 103 100  97  92 108 124 141 144 138 148 160 167 167 167 166 167 169 172 177 181 181 189 201 188 183 180 183 184 184 191 192 194 191 188 190 192 191 184 180 178 173 167 160 152 146 148 151 160 153 145 125 128 130 125 124 113  81  68  38  34  28  34  42  67 170 148  44  99 228 231 103  39 118 215
  35  90 161  77  39  36  25  13   7  19  28  42  62  56  36  35  80  92  99  97  98  90 112 130 139 127 118 125 138 143 149 158 159 158 164 169 170 174 177 179 188 184 174 173 178 178 178 173 177 177 184 183 178 175 175 175 170 156 147 137 131 129 133 149 149 153 150 144 134 128 122 127 127 114  90  77  40  28  30  42  64 101 124 111  38 110 233 225  86  80 217 239
 103 185 142  50  39  34  23  12   7  12  18  32  48  51  44  32  71  95  99 100  96  91 113 118 123 122 109 107 101 102 105 113 109 114 125 135 154 161 167 169 174 175 171 170 168 168 173 167 162 170 174 164 154 125 104  97 108 100  90  83  84 105 117 134 145 141 141 137 139 134 122 122 125 116 102  79  41  27  24  55 100 105  84  61  38 118 236 220  77  80 196 207
 219 144  47  46  42  33  22  12   7  10  13  28  42  56  35  30  64  93 103 105  93  94  96  93 100 107  99  93  82  63  53  60  55  60  59  65  86 118 144 155 166 168 165 170 167 165 168 162 161 163 156 137 122  96  59  42  35  48  65  75  90 103 101 109 129 128 128 129 130 129 124 117 122 116 103  85  41  22  22  38  59  45  78  56  39 106 232 232 109  32  65  85
 195  68  46  50  43  35  23  12   7   7   5  21  27  28  21  28  59  88 103 104  93  83  75  85 101 105 118 132 130 109 104  92  75  66  56  51  55  75 116 142 156 159 161 170 174 168 165 161 157 148 139 122  90  70  66  76  92 115 141 151 151 143 129 113 109 119 119 116 116 122 120 113 125 116 106  90  61  24  19  30  48  83 109  50  45  72 204 241 193  87  47  58
 175  61  50  49  44  35  25  14   9   6   5  11  29  20  31  21  57  85  95 104  87  68  70  91 120 136 144 152 161 163 168 178 176 173 164 145 116  87  84 112 139 151 156 163 172 166 163 159 151 140 124 100  92 119 148 166 186 191 191 181 168 160 149 136 121 113 109 108 108 110 114 122 132 112 107  92  77  35  13  50  92 144 111  43  52  45 127 234 239 213 177 189
 115  53  50  50  46  38  28  17  11  10   7   6  42  25  28  19  55  86  92  99  84  79  80 104 125 134 146 151 160 165 167 172 180 181 177 174 170 156 111  84 109 133 146 155 167 168 165 157 148 128  98 105 133 136 128 113  95 109 125 132 141 138 139 141 136 131 124 119 117 118 118 133 134 110 108  93  63  50  41 115 124 165  89  41  52  49  51 143 224 240 241 240
  47  50  52  51  48  41  31  22  12   7   7   1  40  57  22  14  51  84  96  97  95 101 100 106 118 123 124 114  93  80  66  58  54  62  80 106 115 124 129 107  88 111 136 154 170 170 165 150 133 106 102 108 103 101  85  68  50  18  45  30  23  37  48  85 108 115 121 121 124 121 128 140 131 111 107  93  57  41  92 148 133 145  53  44  51  54  48  47  96 154 179 170
  49  50  50  51  51  44  37  25  14   8   6   2  16  67  26  16  48  80  98 103  99 110 109 103 102  85  65  38  41  36  13  24  41  40  80  94 112 112 108 116  98 102 125 156 183 181 163 144 128 114 106 119 118  99  90 149 123  47  32  32  36 102  89  27  52  83 106 111 115 117 127 144 128 116 108  92  51  43 121 144 137 103  33  48  51  52  52  51  42  45  53  52
  50  50  50  51  50  48  38  28  17   9   7   6   2  59  43  22  53  80  98 112 113 110 114 101  94  70  35  51 129  99  30  31  37  64 152 140 103 127 154 141 104 109 128 159 189 188 165 149 142 119 129 138 124 114 121 157 147  73  44  46  87 148 124  83  62  84 101 108 117 125 140 140 125 120 108  83  40  43 133 150 126  54  34  47  49  51  52  53  52  51  48  51
  50  50  50  50  51  48  41  31  19  10   7   6   0  50  52  22  54  79  98 118 125 119 112 100  95  67  66 110 135 143  82  50  64 112 156 141 119 119 143 168 128 108 139 167 191 191 171 155 142 127 145 143 141 130 131 130 141 133 123 110 125 121 118 113 111 116 118 114 117 137 150 142 132 120 102  68  40  50 138 158  96  25  35  45  49  51  51  51  52  52  51  52
  49  49  50  49  50  48  43  35  22  12   7   7   0  42  56  14  47  75  99 121 138 132 118 108 104 110 109 122 123 116 116 113 136 145 151 153 145 158 158 150 130 109 148 172 190 190 176 164 147 129 143 166 174 163 151 149 151 139 137 132 124 141 144 139 137 147 149 146 144 147 154 148 137 118  98  63  32  62 159 169  54  16  35  42  48  51  51  52  51  52  53  51
  49  49  49  50  50  50  47  38  27  16  10   7   0  41  78  17  41  69  97 121 145 145 127 131 134 138 134 145 148 146 145 147 152 165 173 168 170 163 154 130 110 124 158 169 192 189 176 167 150 133 134 159 161 161 164 164 163 164 158 164 162 163 155 152 153 155 148 156 160 159 158 148 136 111  89  52  22  94 184 159  22  17  30  37  44  50  48  48  48  51  51  51
  50  50  50  50  50  49  48  40  32  22  14   8   2  29 103  33  22  63  88 115 148 149 136 140 142 151 155 154 153 159 162 166 164 173 169 166 171 163 153 117 114 139 153 160 188 187 176 166 154 137 135 146 155 153 162 167 172 171 163 167 164 165 164 163 155 158 153 159 160 165 161 145 130 107  86  47  42 130 194 136  22  14  40 107  89  50  74  75  67  57  51  51
  50  51  50  50  50  52  50  44  37  29  17  10   5   7  97  51  13  58  85 111 143 148 145 143 145 153 160 167 167 166 170 173 173 167 170 173 171 164 144 128 124 142 155 170 188 184 178 169 152 147 145 148 158 155 158 176 188 188 177 176 177 172 169 163 161 163 163 165 164 163 158 142 124 100  81  54  80 156 183  89  18  10  72 135 133  60 129 163 142  73  47  52
  49  50  51  51  50  50  51  48  41  34  24  15   7   2  67  65  17  49  80 106 137 145 150 151 144 155 159 164 171 179 179 182 182 183 184 177 174 159 140 132 129 145 166 179 186 186 182 170 158 152 151 157 157 162 159 164 183 192 189 185 179 173 169 167 170 166 171 171 169 164 156 139 114  93  77  80 126 152 136  46  43  19  76 144 128  51 136 188 154  57  48  52
  50  50  50  51  51  49  51  50  46  40  32  18  10   0  62  89  37  45  70  98 126 145 154 158 150 158 162 161 167 173 180 188 181 175 180 181 167 155 141 133 129 148 168 176 180 183 187 176 158 149 151 154 160 168 163 156 154 172 190 191 182 173 176 177 172 170 173 174 169 165 156 132 104  86  73 108 156 130 106  16  27  26  44 105  81  43  96 136 110  46  49  50
  49  49  49  50  49  51  51  50  50  44  37  23  12   0  46 113  82  48  62  89 116 145 157 155 157 160 165 161 167 169 178 180 177 180 183 173 162 152 139 132 126 152 168 172 178 183 180 174 162 151 149 152 165 177 173 170 161 161 175 180 176 174 176 173 171 172 174 174 169 164 152 121  99  82  73 129 164 139  76   1  14  26  33  35  43  50  44  47  50  49  50  51
  49  50  48  49  49  50  50  49  50  46  39  28  14   3  28 104  96  52  63  85 108 139 154 155 159 161 165 168 168 169 176 177 177 178 177 171 165 150 134 128 129 152 164 176 182 186 177 169 160 148 145 149 163 176 178 179 181 180 179 179 176 178 174 177 174 170 173 175 166 159 144 112  98  83  79 132 151 112  26  44  66  30  77 122  69  52  75  71  52  50  50  49
  49  49  50  49  49  50  49  49  50  49  41  32  18   7   9  78  84  54  60  87  98 130 148 152 160 168 168 167 168 168 172 170 165 171 171 169 166 148 136 130 125 141 161 172 186 191 177 168 156 146 146 153 162 170 178 183 180 181 183 185 186 189 186 182 180 171 170 168 164 150 129 109  96  85  85 119 124  60  14  60  92  42 118 189  99  65 166 112  47  50  47  77
  49  48  49  49  49  49  49  50  50  50  43  35  22  10   0  67  91  53  57  88  94 120 142 143 153 164 168 168 168 169 173 172 169 171 170 170 163 144 137 132 125 139 160 174 186 188 177 166 156 146 142 150 163 174 183 185 183 185 182 179 184 191 186 178 175 166 163 158 154 143 122 109  93  88  84 113 114  21  15  84  94  40 126 180  78  76 188 100  43  50  44 108
  49  49  49  47  48  48  49  49  50  50  47  36  23  12   2  38  83  54  58  84  98 108 136 141 144 154 161 166 168 170 172 171 170 164 171 177 164 147 139 130 128 141 160 171 185 192 183 170 155 143 140 148 167 177 195 191 188 191 189 181 179 180 179 179 169 161 158 153 147 134 122 109  88  89  84 124  84   3  10  43  48  40  73  93  63  65 119 101  49  49  42 100
  49  49  49  49  48  48  49  50  51  50  46  37  25  12   5   6  52  57  58  80 100 104 129 140 148 154 162 165 165 168 167 171 169 166 173 176 166 146 125 120 123 138 163 167 176 189 182 170 155 139 138 144 161 175 195 196 189 188 188 183 180 179 178 176 170 164 160 154 143 128 125 107  91  92  87  99  21   5  14  22  34  48  49  46  50  51  48  53  51  50  48  58
  49  49  50  49  49  49  50  50  50  51  47  38  28  15   7   2   6  46  61  74 104 106 122 137 147 154 162 161 164 163 166 171 168 169 172 176 168 142 111 116 115 134 157 165 179 191 181 166 156 133 132 135 159 177 191 191 189 184 184 186 181 179 178 176 169 163 158 149 136 130 126 108  94  93  69  26   1  10  17  29  39  48  52  51  51  50  51  50  50  50  50  49
  49  49  49  48  49  49  49  49  49  51  50  41  29  17   8   6   0  28  64  70 107 109 118 132 142 150 161 161 161 162 168 170 171 171 171 173 170 137 113 121 116 134 154 164 176 184 174 170 158 133 138 137 143 164 178 184 188 184 181 182 178 177 173 173 169 160 153 142 132 131 127 110  94  95  36   0   7  11  21  34  43  50  50  50  50  50  51  50  50  50  49  49
  49  50  49  49  49  51  50  49  49  50  50  43  32  18   8   4   2  19  62  68 102 110 112 127 140 147 157 158 162 166 170 171 170 167 166 160 155 128 121 135 125 136 151 163 173 180 173 166 155 136 142 138 128 148 159 168 178 176 176 174 177 175 172 166 162 156 150 139 128 132 128 106  96  90  24   2   8  13  24  36  46  52  52  51  50  50  52  51  50  50  49  49
  49  48  49  49  49  48  48  49  49  50  49  44  34  22  11   5   3  12  57  66  97 112 107 121 137 148 153 155 160 166 167 168 166 162 154 146 141 121 130 141 123 132 150 161 172 188 184 166 151 134 136 143 128 148 151 151 163 168 169 174 175 169 162 160 153 151 147 134 129 129 123 104  97  83  15   4   9  16  29  39  48  52  51  52  51  50  51  51  50  50  50  50
  50  49  49  48  48  48  49  49  49  50  50  46  37  24  12   6   4   8  52  66  89 112 108 112 131 146 150 154 160 161 165 166 163 157 143 152 151 109 114 132 115 133 151 167 183 209 191 168 151 130 135 143 123 150 158 144 148 157 162 166 167 161 154 152 147 146 137 133 136 132 115  98 100  75   9   6  10  19  33  42  49  49  51  52  52  49  50  50  49  50  50  50
  51  49  49  50  49  49  49  48  50  49  50  47  39  26  13   8   5   4  49  67  81 109 109 106 126 142 148 154 159 159 160 161 160 153 151 158 164 112  63  72  93 123 151 166 172 178 172 157 132 111  98  97 111 163 170 160 142 146 156 159 158 156 155 146 148 143 136 132 137 126 106  99 104  62   5   7  13  25  36  46  51  51  52  51  51  52  52  50  49  50  50  50
  48  49  50  50  49  49  50  49  49  48  49  48  40  29  14   8   5   2  41  69  73 104 116 107 122 140 147 151 154 156 158 158 153 157 162 161 163 150 108  73  35  61 123 148 148 152 147 116  71  51  74  93 140 176 177 172 157 148 155 157 155 156 151 146 143 139 133 133 135 119  98 101 104  47   1  12  18  30  40  48  50  50  51  50  50  51  51  49  50  50  50  49
  48  50  49  49  49  49  50  48  48  48  49  49  42  31  18  10   6   1  31  71  69  95 118 111 115 132 143 148 150 152 156 157 156 164 168 166 164 153 144 141 104  54  51  91 112 110  84  66  70 104 139 152 162 170 178 176 172 159 153 154 153 152 150 147 142 134 128 135 131 112  98 105 100  33   2  13  22  33  43  48  50  50  50  49  49  50  50  52  50  50  49  48
  49  48  48  49  49  49  49  49  49  49  49  49  44  34  22  12   7   2  22  70  67  91 115 115 111 127 139 143 148 153 154 159 161 161 162 161 153 147 137 134 135 133  96  56  59  63  78 117 143 144 150 144 150 163 171 176 181 168 156 152 151 149 148 146 141 135 131 137 133 107  97 108  91  20   6  16  28  38  47  50  49  49  49  49  49  50  50  50  50  50  49  49
  48  49  48  48  47  48  49  49  50  49  49  50  45  38  26  14   8   3  12  63  67  84 114 117 115 122 132 141 146 154 153 156 157 152 149 151 145 140 140 141 136 139 145 139 128 132 151 147 147 153 151 145 143 152 166 170 170 164 160 149 151 148 148 146 144 139 141 140 129 102 100 106  75  10  10  21  34  42  48  49  49  49  49  50  50  50  50  50  50  49  49  49
  47  48  48  48  47  49  49  49  49  49  49  50  49  41  30  19  11   6   4  50  71  76 113 117 118 121 132 141 142 148 147 147 149 139 147 147 139 145 146 147 144 148 147 147 151 152 149 152 154 155 154 153 147 149 155 159 159 158 159 150 151 149 151 150 146 146 143 135 120  97 101 103  54   5  17  28  37  45  49  50  50  49  50  50  49  49  49  50  50  49  49  49
  48  49  48  48  47  47  48  48  50  49  49  49  48  42  33  23  13   8   2  34  73  70 101 120 120 121 132 141 142 140 140 143 141 136 138 138 136 142 146 138 142 149 152 155 144 138 148 159 158 154 149 153 151 148 150 155 157 154 150 148 153 153 154 151 150 147 141 134 115  98 101  96  31   9  23  33  41  47  49  50  49  49  50  50  49  50  51  49  49  49  49  49
  48  47  48  48  48  48  48  49  50  49  49  49  48  45  37  27  17   9   3  16  63  69  94 118 121 125 134 143 146 135 130 138 138 140 130 124 135 135 143 141 138 143 151 148 140 138 147 161 162 155 154 153 151 147 147 149 156 150 145 146 151 158 157 155 150 142 137 128 109 102 101  75  16  16  29  38  44  49  48  50  50  49  49  49  49  49  50  50  49  49  49  49
  48  48  47  49  48  48  48  48  49  48  49  49  49  47  39  30  19  12   6   4  46  71  87 114 118 124 137 148 147 137 127 129 134 135 131 121 125 132 140 141 146 148 151 144 140 142 140 152 160 162 155 149 152 151 141 146 152 151 146 147 149 159 161 154 143 141 131 118 108 103  95  47   9  21  31  40  47  49  49  49  49  49  50  49  49  49  49  49  49  48  49  49
  50  49  48  48  48  49  48  48  49  49  49  50  49  46  40  32  20  12   8   2  24  61  82 110 115 121 136 147 151 143 128 128 133 127 123 115 119 121 137 140 149 163 166 154 155 150 153 160 163 162 155 152 146 139 137 149 152 145 145 147 148 165 166 151 144 139 129 123 110  97  81  22  11  24  35  43  49  49  49  49  49  49  48  49  49  49  49  49  48  48  49  49
  48  49  48  48  48  49  49  48  48  48  48  49  48  47  41  32  22  14   8   4   7  42  72 104 114 116 130 145 148 137 129 126 126 120 100  93 116 127 136 141 152 163 170 174 167 161 171 177 171 167 158 155 150 142 136 132 142 141 138 142 150 169 162 151 142 135 131 119 106  87  50   7  15  27  36  43  49  49  49  49  50  49  49  49  48  49  49  49  48  48  49  49
  48  47  47  47  48  48  48  48  49  49  49  49  48  47  41  33  23  14   8   5   2  21  57  93 111 113 123 138 148 145 135 129 127 120 113  84  62  71  85  98 110 124 132 153 164 171 160 151 141 131 117 108 101  94  91 103 128 135 134 142 159 172 163 148 136 131 129 115 101  70  16   8  18  29  38  44  49  49  49  49  49  49  49  49  48  49  49  49  49  48  48  49
  47  47  48  48  49  47  47  48  47  48  49  49  48  46  42  34  25  15   9   7   4   9  38  75 100 111 117 132 142 149 147 141 142 149 148 131 108  87  65  63  62  69  77  80  94 105  91  79  70  67  62  65  76  98 132 138 130 136 144 153 165 167 160 145 131 130 124 113  86  35   3  12  19  30  39  45  49  49  49  48  49  49  49  49  48  49  48  48  49  49  48  48
  45  46  46  47  48  48  48  48  47  47  49  50  48  48  43  35  26  17   8   9   7   5  21  56  92 104 113 125 140 151 152 148 148 149 147 124 118 122 117 119 116 117 119 105  92 100 105 107 107 111 119 133 146 149 151 150 147 151 156 161 169 163 149 135 127 124 116  99  58   8   6  13  21  31  39  45  49  48  49  49  49  48  48  49  48  48  48  48  49  50  49  48
  46  46  46  46  48  48  47  48  47  45  47  48  48  48  44  38  28  15  12  18  11  12  13  28  79  96 106 121 135 151 149 144 148 147 146 126 106 118 130 137 134 137 147 150 151 151 151 146 141 136 138 140 135 138 146 154 159 161 159 159 164 155 145 129 121 118 105  81  25   2   8  15  23  33  41  47  49  49  49  48  48  48  48  48  47  48  47  48  48  48  48  48
  47  45  46  48  48  47  48  48  47  46  46  49  48  48  45  38  19   9  15  20  14  28  33   7  56  90  93 109 125 139 147 144 147 139 144 137 111 109 124 138 147 147 150 155 154 155 155 148 146 146 138 132 131 143 153 158 158 159 156 156 152 148 135 125 116 112  94  54   3   6   9  15  25  35  42  47  49  49  49  48  48  47  48  49  48  47  47  48  47  47  47  48
  48  47  47  47  48  46  47  47  47  47  48  48  47  48  45  25   9   9  16  20  16  35  71  16  24  82  88  96 113 133 144 147 146 135 138 140 120 101 103 121 136 136 132 127 135 133 140 144 145 143 128 122 131 146 155 154 154 158 156 153 150 142 125 118 110  96  76  25   2   8  10  17  28  37  43  48  49  49  49  49  49  48  48  48  47  48  48  47  48  48  48  48
  45  46  45  46  46  46  47  47  46  47  47  47  48  49  32   8   8  12  18  19  17  39  89  61   8  55  87  83 104 126 139 143 139 136 133 135 129 106  83  92 109 111 108 105 101 105 109 117 122 114 109 124 141 149 150 150 157 158 155 153 142 124 120 110 100  87  52  15   5   6  11  19  29  39  44  48  49  49  49  48  49  48  48  48  47  48  47  48  48  48  48  48
  44  44  46  46  45  45  46  46  45  48  48  47  49  39  10   9   9  15  18  16  16  43  89  97  37  20  80  78  95 119 138 143 138 134 136 130 127 121 104  84  86  98 104 108 106 110 103  99 100 103 120 134 144 145 143 153 159 152 149 148 134 125 116 100  91  69  31  19  10   8   9  22  34  40  46  49  48  48  48  47  47  47  48  48  47  48  47  47  47  48  48  48
  45  46  46  46  46  46  45  47  47  47  48  49  46  18   8  11  11  15  16  16  15  34  87 105  93  17  47  79  85 114 136 142 145 142 140 136 133 128 127 117 106  99 100 104 104 107 108 112 117 128 134 139 142 143 150 164 161 155 151 147 138 127 104  92  82  39  34  28  13  12   9  14  34  42  47  49  47  46  47  48  48  48  48  48  48  48  48  48  47  46  48  48
  46  46  45  45  46  46  45  45  46  46  47  49  28   7  10  11  10  14  18  16  18  23  83 107 115  65  12  65  77  99 125 141 146 147 141 145 146 136 136 137 134 134 134 131 124 126 130 131 136 141 144 149 147 157 169 164 149 151 152 140 131 110  89  83  52  23  54  37  16  17  10   7  25  44  48  49  48  47  49  48  48  48  48  46  48  48  47  49  48  48  47  48
  44  45  46  45  46  45  45  45  44  46  48  34   9   8  11  11   9  14  17  16  17  15  68 114 114 115  28  26  64  85 116 134 140 141 145 153 159 149 139 140 149 158 157 159 156 156 160 160 158 155 158 154 163 177 168 158 151 151 143 138 121  94  81  60  26  38  76  40  16  21  10   8  11  41  48  48  48  48  48  48  48  47  48  47  48  48  48  48  48  48  47  47
  46  45  45  45  46  46  46  47  44  48  38  12   8  10  10  11  10  13  15  15  17  13  44 116 115 129  87   9  35  63  97 121 128 131 139 145 152 157 144 134 148 159 164 167 169 169 169 166 162 159 165 164 177 172 161 155 147 144 133 129 102  75  56  29  28  63  90  36  15  23  14  10   7  26  50  48  47  48  47  47  47  47  47  48  49  47  47  48  48  47  47  48
  45  45  44  44  46  46  45  45  49  38  14   9   9  11  11  12  11  13  14  15  18  17  19  98 123 120 131  51  15  39  68 107 117 127 130 136 142 146 140 134 147 162 175 174 177 180 174 165 162 159 170 175 170 156 156 148 140 138 125 104  79  57  31  25  53  89  94  33  16  24  16  11   8   9  40  48  47  47  48  48  48  47  47  46  47  46  47  48  48  47  47  47
  44  45  44  44  44  44  45  48  34  13   7  10  10   9  12  12  10  11  14  16  18  19  13  59 124 120 128 118  26  25  40  76 106 117 127 131 130 135 141 135 144 157 170 170 171 169 166 162 160 167 174 175 163 145 149 140 136 136 114  75  54  37  28  53  80 105  90  34  17  23  16  11  10   8  19  47  48  47  47  48  47  46  46  46  47  46  46  45  47  47  46  44
  46  44  45  44  45  44  46  32  10   8   9  10  10  11  12  11   8  11  13  16  17  18  18  26 103 127 119 139  99  15  34  38  80 108 121 127 126 133 140 140 139 148 153 157 161 161 157 159 163 169 171 172 155 141 132 134 130 115  79  47  36  27  62  79 100 106  83  37  16  22  14  10  10   9   6  21  46  48  48  47  46  47  46  45  46  46  45  46  47  48  46  45
  44  44  43  44  46  44  30   9   7  10   9  11   9  11  12  12  10  11  14  15  17  18  19  15  58 125 128 126 142  69  12  38  37  83 118 117 122 126 131 139 138 144 146 148 150 154 155 160 164 164 160 156 147 133 128 138 125  84  44  34  26  66  94  85 107 102  82  39  16  23  14  10  11  10   8   6  21  44  48  47  47  45  47  46  45  46  46  46  46  47  46  45
  43  43  44  45  43  28   9  10  10  10  10  10  11  11  12  12  10  11  13  14  16  18  18  19  19  86 132 129 131 139  58  11  35  38  88 113 111 117 121 129 128 131 136 143 147 149 151 155 152 148 148 142 132 124 127 123  89  42  32  27  72 111  86  95 113  98  81  39  15  23  13  11  11   8   9   9   6  16  42  48  46  47  45  46  46  47  46  44  45  45  45  46
  44  43  38  24  15   8  10  10   9  10   9  12  11  12  12  12  10  10  12  14  16  16  17  19  14  35 113 136 137 142 136  45   8  31  38  86 107 105 106 111 118 124 129 126 135 138 139 147 144 129 128 124 117 116 114  78  33  26  24  79 129  97  79 107 113  95  82  36  14  23  14   9  12   9   8   8   9   7  17  39  48  48  45  46  46  47  46  45  44  45  45  45
  33  22  11   7   7   9  11  11   9   9  10  11  11  11  12  13  10  10  12  13  14  15  17  17  19  13  61 131 140 146 142 129  47   4  25  34  64  87 100 111 116 124 123 120 124 123 121 120 124 116 113 112 107  88  52  24  18  34  91 141 124  80  94 121 115  94  80  24  17  25  16  11  11  10   9   9   9   9   6  11  24  39  45  47  47  45  45  45  44  46  45  45
  10   8   8   9   9   9  11  11  11  10  11  12  10  12  11  12  11  11  12  12  14  14  14  15  17  16  16 101 137 140 148 147 134  54   4  21  33  38  49  68  86 103 113 116 116 111 107 100  99  98  90  73  50  28  17  20  52 116 153 133  98  76 111 124 114 104  63  13  18  24  16   9  12   9   9   9   9   9   8   7   7  12  20  31  39  45  47  46  45  44  46  46
   9   9   9   9  10   9  12  11  11  11  11  11  11  11  11  12  10  10  12  13  13  14  14  15  17  17  11  36 129 135 149 154 145 131  58   4  16  46  48  41  38  41  54  68  74  73  64  54  46  39  33  23  20  22  34  74 132 156 143 125  81  88 121 126 114  97  39  12  16  22  17  10  12   9   8   8   9   9   9   8   8  10  10   9  12  24  37  46  47  45  46  46
  10  11  10  10   9  10  11  12  11  10  10  10  10  12  12  13  12  11  12  12  12  13  13  16  18  18  16   8  70 138 140 144 156 154 132  73  13   6  32  57  67  65  54  45  45  43  45  48  39  28  24  25  34  59  99 137 150 145 139 111  76 110 125 129 112  88  26  14  18  23  15  10  13  11   8   9   9   9   9   9   9   9  12  11  11   9  10  19  30  42  46  45
  11  11   9  10   9  10  12  10  10  11  10  11  11  10  11  12  12  10  12  12  12  13  13  16  16  18  19  15  17 102 141 140 143 148 151 134  97  44  11   9  17  33  44  49  51  45  39  34  31  37  50  75 101 121 139 145 147 155 134  84  85 119 132 130 113  71  14  18  20  21  15  10  12  11   9   9   9   9   9   8   9   9  10  11  11  13  11   9   9  15  26  39
  12  10  10   9   9  10  10  11  11  11  12  11  12  10  11  13  12   9  12  13  13  13  14  14  15  17  18  21  16  28 113 145 146 138 148 153 143 122  96  67  50  35  34  42  45  55  61  69  89 107 123 129 132 136 149 156 156 146 114  76 101 130 136 129 110  43  11  17  19  20  15   9  13  11   9   9   9   9   9   9   8   7   9  11  12  12  12  12  12  10   8  15
