P2
# Generated by OpenCV 4.2.0
92 112
255
 174 238  85 244 113 160 255 185  89 118  91 185 209 221 109 251 251 252 254 254 254 253 255 251 250 254 255 195 141  97  87  95  90  95 104  97 110 111 103 106 113  94  57  84 124  25 123 115  74  72 118 111 116 130 108 164 119 102 134 134 129 100 102  90  92 140 145 108 117 165 101  88 108 152 134 184 187 162 173 255 217 122 166 159 111 137 112 141 197 216 188 141
 164 253 171 248  91 139 251 236  93 116 101 143 225 205 132 243 252 246 252 255 255 254 251 251 254 248 226 131 127 102 100  98 103 101  90  89 104  89 119  95 129  98  60  82 117  38 138 104  95  81  66 126 135 101 122 154 101  96  93 147 124 106  94  88 102 134 130  95 116 155 130 132 117  88 134 202 153 155 252 142 119 154 145 144 126 127 162 191 214 145 218 116
 238 155 254 114 113 248 252 243  71 121 140 145 254 189 149 255 244 254 253 252 253 251 250 252 247 171 152 126 119 108 102  94 107  90  83 101  92 101  94  92 135 122  50  75 102  75 120  97 113  76  67 126 128  99 151 148  95  71  90 132 109  85  86  94 103 121 116  83 127 173 122 138 121  96 141 172 202 179 214 185 114 162 116 153 125 133 122 178 232 186 147 171
 223 172 247 118 123 211 246 238  61 115 121 208 231  51 178 250 252 252 250 255 252 250 252 247 177 129 138 123 117  98  94  90  65  98  83  74 114  81  82  93  84 146  68  68 102 101  80  91  98  89  89 107 117 108 137 150 107 116 134 119 125  80  97  84 109 129 108  90 108 167  90  75  87 104 105 171 193 169 188 151 153 150 138 129 132 115 220 130 149 168 144 144
 225 105 166 118 168 224 248 243  71 119  81 240 184 122 172 254 245 252 254 249 250 253 241 162 117 146 131 124 115  90  84  89  98  89  68  96  87  86  74  82  69 151  99  73  78  98  66  90  76  90  82 123 121 109  93 140  85  61  76 140 122  88  79  75 116 136 103  93 120 164 142 128  86  98  84 180 183 169 210 176 158 151 123 135 135 210 164 196 203 199 150 144
 237 121 109 158 253 243 151 242  89 112 126 218 143 168 214 242 254 248 252 250 254 223 141 137 134 122 110 103 105  99 111  92  96  72  77 109  83  69  75  71  69 110 121  74  71 101  84  92  71  82 109 108 115 128  91 118 107  69  58 114 128  81  76  92 108 148 102  91 126 169 129 152 111 138  79 143 175 208 183 243 158 132 134 148 141 144 189 177 188 125 153 222
 226 142 122 210 245 254 175 246  93 125 195 225 157 166 181 252 247 248 253 242 206 145 136 131 119 119 101  98 101  96  85 100  99  62 105  88  76  79  67  69  72  92  93 107  58  86  79 118  97  87  96  81 108  98  83 137 130 107  92 155 127  87  83  68  86 133 122  73 101 180 147 157 139 124  89 125 137 168 202 195 150 142 154 195 168 147 164 253 156 203 194 188
 196 138  99 220 233 255 217 247 125 108 208 235 222 197 129 253 244 247 239 157 122 132 138 127 124 101 108 106 108 111 109 106  79  81 104  88  60  86  81  83  80  73  80  75 138  58 123  78 107 102  70  65  71  62 139 118 123 109 127 119 138 117  69  77  79 139 132 110  89 143 162 119 157 136 139  90 115 181 185 211 136 173 176 142 202 134 125 206 255 180 153 240
 144 141 115 222 254 249 216 245  93 177 200 224 242 194 251 232 254 239 163 124 127 138 146 104 101  89 137 109 104  92  87  79  70  89  92  63 105  52 114  72  82  83  75  85  82  84  89  89  73  74  70  64  86  75 109  85 120 110 104 119 153 103  93  71  87 107 143 111  99 130 167 103 173 153 176 143 126 147 184 154 154 180 144 206 119 190 151 193 246 214 186 207
 196 135 111 229 240 249 240 226  95 175 215 234 231 222 209 238 250 175 131 155 145 124 128 132 128 123 103  80  74  85  77  90  97  81  92  88  57 128  75  65  84  51  75  69  65  81  80  73  82  65  54  55  72 100  81 101 108  96  95 112 115 117 120  81 103  97 146 100 115 118 168 149 161 161 120 149 146 146 181 165 180 168 213 169 201 229 204 231 234 212 201 162
 167 147 142 254 249 252 225 213  93 157 255 240 230 167 230 254 159 174 125 114 110 123 109 120 117  99  98  92  99  96  79  81  71  84  89  79 107  51  75  74  73  73  57  57  77  70  84  81  80  69  52  62  77  87  80  79  78  87  94  88  93 100  95 109  69 116 112 131 112 135 118 179 164 166 161 128 142 175 168 154 174 190 190 235 144 229 228 232 250 215 242 221
 212 119 138 239 245 247 149 226  76 135 212 235 186 168 255 206 120 125 136 124 122 109 109 117 105 107  95 111  97  84  84  78  94  86  87 114 103  76 108  81  68  67  94  72  60  59  72  53  58  68  72  74  71  67  77  82  61  84  90  87  80  62 113  78  91 111 104 131 108 119 136 135 190 164 168 168 151 134 149 148 170 191 229 240 238 224 244 249 218 206 246 245
 255 126  93 243 242 249 176 208  71 183 219 228 141 175 220 148 132 127 112 112 102 101  98  96  91  82 108 101  95  97  86 100  94 113 119  85  67 112  64  63  67  73  59  73  82  68  86  67  84  76  90  81  75  77  81  75  81  66  95 100  51 149  74 103  90  90  98 109 126 135 157 126 172 172 150 169 159 171 147 148 176 146 195 240 248 254 253 242 248 245 251 251
 217 131  81 221 245 254 214 248  61 226 186 209 131 121 122 121 127 100  96  94  91  92  88 106 103 107 105  98  85  95 100  69 110 119  81  69  76  85  73  62  76  75  76  86  83  75  84  76  83  75  70  71  74  86 113  89  79  87  84  75 130 137 103  68  96 110  89 116 103 130 122 135 133 152 153 176 148 158 163 161 149 147 179 198 252 250 247 253 247 255 253 250
  78 143 108 198 252 247 233 244 154 234 169 176 124 127 126  80  96  81  76  81  77  85  99  91  74  94  75  85  83  69  64 102  99  76  80  84  73 108  68  81  67  65  56  74  68  77  93  88  67  82  76  86  66  65  58  46  73  80  64  87  91 118 109 110  62  51 108 117  82 125 130 122 113 161 177 131 211 115 146 143 141 156 171 161 215 251 255 250 253 250 252 254
  86 130 125 148 251 218 245 207 152 209 158 123 114 134  79 116  62  70  70  62  75  78  75  70  69  71  80  73  75  64  93  75  81  75  69  74  65  79  86  51  48  58  64  68  72  65  57  51  63  88  72  91  89  76  74  80  63  90  98  67  91 121  48  96  72  61  66 115  82 107 133 115 153 135 164 161 154 197 117 132 116 150 135 148 197 240 250 251 250 252 253 253
 135 114 131 212 247 165 200 142 118 164 102 100  99 128  90  98  73  73  69  59  62  62  59  67  75  66  85  81  81  88  82  73  62  51  56  58  63  61  58 110  92  97  85  68  71  78  62  66  69  78  85  65  72  93  66  67  99  78  59  70 116  88  68  99  97  75  94  66 108 114  97 125 148 159 184 145 147 179 151  96 101 121 126 143 175 208 250 251 251 253 254 254
 108 116 128 180 235 194 153 153 125 109 111 111 104 115  92  87  86  77  64  73  64  67  68  67  62  63  57  63  53  59  51  49  53  65  42  49  56  54  52  54  69  74  94  86  87  54  80  73  65  75  70  64  75  90  83  72  58  62  53  80 139  96 113  89  90  87 112  78  78 118 101 116 117 147 141 122 102 160 165 148 118  79 127 138 128 206 248 252 253 254 254 254
 118 114 150 168 237 162 153 127 117 108 101 102  97  92  92  73  73  80  74  67  64  65  82  79  64  62  59  50  57  58  47  42  44  55  47  40  46  46  50  54  77  60  59 121  65  72  60  54  55  68  54  82  52  69  61  60  43  94  76  79  93 101  83 101  90  97  93  92 134 100 105 106  73 146 172 186  94 115 154 159 152  90  96 112 154 187 242 246 252 254 254 254
 173  92 161 178 160 137 122 156 108 109  99  90  93  68  93  67  87  65  65  68  63  55  43  51  53  51  57  58  51  52  51  56  50  47  44  42  52  53  42  53  53  64  55  46  63  51  53  60  51  46  53  70  70  68  58  73  79  79  89  96  88 105  98  91  83 124  86 105 116 105  75 125 122  67 175 170 156 104  92 166 144  91 137 103 182 149 240 250 249 252 253 254
 247 107 127 164 157 135 124 129 129  96  97 110 100  85 103  79  87  70  50  66  79  70  70  56  56  66  68  56  47  47  41  43  49  55  43  43  55  42  41  40  49  56  73  59  51  51  53  50  46  41  40  44  45  52  48  58  74  81  80  87 120 112 108  78 100 122 111  91 109 108  89  97 154 111 117 198 181  72  95 157 142 110 101 128 121 183 243 239 248 251 253 253
 251  76 121 197 149 132  84 116 124 108  99  93  99  89  94  71  62  91  77  61  66  67  64  84  64  83  81  62  60  47  41  47  50  50  55  60  60  40  51  59  67  70  63  60  62  41  40  38  34  34  42  37  44  53  51  55  50  54  73  71  85  90  98  79 110 131 127 125  87 119  94 104 147 130  94 205 160 115 103  83 175 110 108 111 162 250 242 228 235 252 254 254
 238 102 115 133 167 139 140 108  94 106  98  90  88  88  62  78  52  69  74  77  68  65  74  56  74  63  61  71  63  63  58  59  59  43  46  35  52  71  60  55  65  60  62  63  57  51  48  48  63  58  65  59  55  58  54  54  41  60  83  88  67  78  80 105 106 138 145 118 110  97  75 100 128 155 138 139 190 119  91  68 127 160 104 140 203 244 185 240 245 249 254 254
 234  91 140 127 162 203 101 110 128 118  88  97  84  65  64  70  57  43  71  53  66  64  51  49  44  54  51  47  42  41  39  36  36  34  47  42  47  52  46  63  52  49  46  54  50  47  55  68  42  57  70  49  40  45  51  53  65  50  83 100  60  81  95 116  97 136 104  92  90  75 104  89 123 110 159  90 149 139 126  95  89 144 123 154 249 202 246 249 212 253 254 254
 236  92 134 174 150 179 143 113  89  73  93 102  81  81  76  71  84  65  47  78  48  66  66  53  51  49  43  43  42  41  36  36  32  34  38  43  50  54  41  43  59  49  59  62  51  42  51  59  71  49  49  42  49  54  59  59  53  67  98  74 112  80  66 112 113  98  73 101  77  76 108  90  99 124 137 148 170 165 142  97 118 138 122 128 144 251 224 236 253 254 254 254
 228 124 172 139 138 142  93 120 118  98  97 109  97  90  71 100  80  71  57  55  71  59  53  47  46  45  41  37  35  33  28  31  35  41  48  47  59  42  51  42  46  48  46  55  52  50  51  54  55  51  56  53  45  43  47  43  45  50  75  64  96  59  76  67  50  60  77  75  68  80  90 118 120 137 126 139 127 115 145 120 110 107 135 151 149 177 246 248 246 252 254 254
 253  98 152 175 176 171 167  76  89 103 110 123 110 106  96  91 105  73  71  55  61  54  52  52  46  41  47  40  37  35  34  38  48  60  57  47  41  40  47  45  40  49  38  40  43  40  42  47  53  45  40  52  61  49  52  43  45  53  56  76  79  57  62  58  62  71  77  76  79  88  68  99 111 138 111 132 144 148 158 136 101 120 112 148 177 180 212 242 254 253 253 254
 242  95 117 149 206 165 201 121  96  97 112 123 125 102 117 119 127  98  61  75  82  64  53  60  46  46  51  41  37  36  38  40  44  34  27  50  42  34  32  41  37  42  41  40  39  38  44  41  48  57  47  39  48  54  58  61  43  43  45  44  81  90 100  93  59  89  92  93  88  82  69 103 117 137 122 123 179 150 128 175 105 119 139 124 175 185 231 223 232 254 255 254
  45 148  95 145 190 228 137 128 116 109 120 123 119 117 120 149 135 125  73  74  94  94  92  71  59  47  41  44  42  51  57  34  48  48  44  38  43  43  36  37  41  40  44  46  38  39  38  39  40  44  48  44  46  47  57  49  61  49  41  48  43  52  50  71 115 128 100 121 102  79  84  88 108 123 135 120 165 148 125 200 110 144 147 143 178 249 201 208 249 253 254 254
 237 138  73 143 162 188 127 132 142 123 130 125 118 109 130 131 137 148 116  53 104 101  96 105  78  73  56  61  60  60  63  41  46  45  47  44  48  45  43  42  42  42  42  44  47  49  49  41  45  42  38  41  42  40  41  55  51  55  47  62  55  62  58  97 101  98  92 103  71  86  73  66 132  86 104 130 148 151 154 201 136 146 126 174 153 196 179 233 253 254 254 255
 231 142  48 147 144 152 158 145 164 130 139 125 119 119 135 146 149 143 146  65  85 129 106  87  93  89  74  94  74  81  70  55  57  52  54  58  55  50  51  51  48  50  52  56  52  52  53  49  47  39  40  40  29  40  34  38  50  54  72  72  72  60  54  80  88  78 107 148  89  88  50  98  94  74 102 120 118 158 157 191 159 157 163 158 155 201 198 229 253 253 254 254
 210 177  78 144 160 164 149 156 151 138 134 128 130 121 151 146 149 148 139 135  44 125 113 107  96  94  92 103  92  82  77  72  70  65  66  68  64  65  64  65  62  58  58  60  58  56  62  57  55  48  45  42  37  42  41  32  41  45  69  76  81  74  72  73 106 130 127  55  67  90  67  78  82  79 116 121 105 172 157 179 149 188 170 181 197 130 218 242 254 253 253 254
 226 249  13 228 197 160 158 164 157 160 135 122 135 134 161 141 148 146 142 150  98  94 127 118 107 106  97  96  87  76  81  82  82  78  75  71  75  70  71  72  70  68  65  64  66  63  67  60  59  56  54  53  48  39  49  45  43  50  60  89  92 102 101  90  85  73 112  97  97 113  90  93  82  74 108 147 124 180 181 168 167 169 175 158 189 191 227 249 254 254 253 253
 142 218 101 211 203 170 166 141 162 128 125 145 141 150 147 154 147 143 144 143 152  61 132 136 113 113 104  95  90  84  71  91  84  88  74  73  82  78  77  76  72  72  73  75  75  71  72  66  66  67  63  57  67  61  41  53  49  47  59  98  89  91  97 102  77  76 114 125 143 102 125  77  69  75 105 116 164 177 148 197 163 148 193 182 190 189 232 249 250 248 239 238
  90 199 129 198 176 173 163 159 141 142 148 141 122 144 152 146 144 140 139 141 133 135  87 123 126 121 116 110  90  73  60  88  95  83  82  93  87  89  87  86  85  86  85  81  79  79  76  78  72  76  69  74  74  78  58  62  74  63  51  75 105 108 108  96  85  86  74 126  81 140  94  97  52 110 109 133 152 171 152 187 200 188 208 221 142 248 219 253 242 236 242 239
  61 245 117 191 138 196 153 171 157 156 129 139 136 146 151 145 148 147 146 145 153 133 125 134 125 119 117 110 115 113  86  59  74  91  85  87  88  93  88  85  86  89  86  83  78  83  79  82  80  83  83  85  80  84  88  62  82  98  78  70  85  99 105  96  86  69  81  75 128 138 108  87  92 117 106 137 161 167 151 210 217 193 187 200 190 200 213 241 252 231 186 224
  46 222  88 211 175 154 173 164 151 138 143 134 128 145 155 156 147 143 145 149 144 146 146 140 138 134 127 120 113 113 104  98  93  78  83 102  98  96  90  88  87  87  85  82  79  80  80  80  81  78  82  94  89  87  89  84  77  75  85  97  74  81  89  91  81  54  86  81 117 116 173 106 121 132 160 133 130 209 137 182 201 217 216 185 213 218 218 239 242 216 219 241
  69  47 185 196 236 127 181 165 130 137 125 126 134 153 154 145 146 146 147 146 148 149 147 146 142 139 132 129 125 121 119 116 102 110 106  97 102 104  99 100 102  97  97  95  95  90  96  91  98  95  94 101 103 104 107 112 103 100  84  78  83  84  64 111  93  73  60 120 102 149  95 159 107 130 126 153 164 164 145 168 181 207 174 216 222 200 191 254 210 214 251 174
  74  78 159 221 239 176 187 143 131 118 131 140 139 151 155 148 142 143 146 147 148 147 138 137 134 132 130 129 130 127 123 126 122 115 118 114 115 118 107 106 107 107 103  99 103 101 101 101 101 102  96 104 104 110 110 107 110 111 110 102 114  95 107 116 108  84  71  82 115 155 135 131 129 103 126 114 138 185 177 174 164 206 195 197 237 202 206 246 252 250 251 216
  75 128  78 242 219 178 180 162 153 148 134 127 152 152 148 139 144 140 134 135 129 132 134 131 124 121 121 117 113 119 117 117 113 117 110 114 110 109 108 106 108 107 106 105 104 104 106 106  98 100  97  99  97 100  94  93  93  95 109 118 133 156 160 146 118  87  83  66 130 134 172 105 145 123 119 118 162 169 208 174 187 160 201 156 215 195 186 255 252 253 253 244
  80 181  87 244 240 190 144 186 148 133 115 141 134 150 151 150 152 152 153 157 164 154 137 130 123 120 117 110 104  99  90  95  89  88  93  91  72  76  84  80  83  81  82  83  81  85  85  87  92  95 102 107 112 111 110 115 120 115 112 109 115 158 173 147 115  83  90  97  79 139 186 122 146 110 113 129 113 156 182 199 228 197 184 224 215 198 231 247 250 254 252 249
  33 130 188 233 250 209 101 215 138 136 145 115 147 147 161 150 151 152 151 149 152 150 148 146 148 149 147 148 146 144 144 134 125 126 128 129 124 122 126 124 123 120 120 120 116 120 122 123 125 107 110 117 123 119 116 116 127 136 140 152 148 140 144 155 126  88  71  77 109 119  93 185 145 122 110 110 140 139 145 162 189 156 161 205 202 205 250 244 243 243 252 239
  35  85 216 231 254 226 161 247 137 135 125 140 133 155 162 150 146 145 146 137 138 138 141 144 140 134 130 130 134 135 135 137 135 135 131 131 128 122 121 119 116 115 113 114 114 113 112 114 107 106  96  91  94  95  97  98 100 108 134 144 159 179 166 136 128  90  84  61  83  92 133 122 157 173 129 140 106 128 148 195 172 160 168 198 172 198 237 241 216 220 228 218
  56 177 198 219 254 136 203 234 157 157 143 134 125 154 156 152 156 157 158 151 145 142 143 147 138 134 134 132 129 131 123 118 117 117 119 116 113 113 111 109 104 106 103  96  91  89  87  90  91  97 112 121 126 126 136 141 148 138 132 125 151 164 162 157 122  94  92  72  63  81  81  73  99 107 147 154 142 170 143 200 170 152 177 209 213 205 233 230 212 207 217 228
  20 157 214 209 247 124 186 209 169 166 130 133 121 152 161 150 153 157 159 161 159 154 146 141 141 144 147 147 140 140 140 132 125 115 114 121 127 124 117 114 111 109 105 105 109 115 124 129 137 129 130 133 138 140 140 142 150 164 166 169 150 161 156 157 141 112  97  89  67  76  76  75  76 100 104 119 149 128 112 142 194 148 179 187 223 240 242 242 240 222 218 196
   1 195 164 235 218 160 192 164 171 186 142 120 115 163 163 155 155 150 156 152 152 156 159 162 153 143 140 147 147 144 140 139 140 146 142 138 139 128 121 126 130 130 124 132 139 135 134 131 124 128 126 126 130 133 142 156 149 157 166 185 174 175 163 160 162 135 109 102  92  75  87  69  79  85  86 121 159 174 157 158 169 157 194 243 200 211 246 231 234 239 227 241
   4 207 179 222 224 214  74 183 218 215 153 129  88 172 165 151 150 149 151 151 149 148 157 153 154 156 148 144 143 142 140 138 137 140 135 133 124 121 123 126 129 122 128 136 121 125 126 127 126 126 120 120 127 123 121 122 144 161 156 180 177 162 164 159 160 150 131 109 105  91  83 102 101 110  99 103 159  64 119 157 161 174 244 230 156 192 193 230 223 170 233 186
  24 190 229 184 219 227  26 126 217 219 171 145  81 184 160 150 150 148 149 149 152 150 151 156 152 147 144 145 138 131 132 135 130 129 124 126 122 124 123 122 125 135 134 127 139 140 138 137 138 132 134 134 138 136 140 157 145 130 147 154 168 172 163 161 157 149 147 132 114 108 109  82  93  94 122 144 111 154 154 173 169 206 235 198 176 177 137 225 178 187 180 154
  48 132 176 245 191 159 164 241 150 236 192 154  90 181 154 158 128 121 131 137 138 144 142 148 143 147 148 142 144 141 133 135 126 122 116 120 124 123 126 125 138 133 136 143 143 135 131 132 133 127 123 123 131 130 143 154 140 148 172 144 155 168 165 162 167 157 162 149 133 124 113 120  98 102  92 117 133 150 158 157 225 240 253 200 170 124 134 234 161 176 186 166
  25  91 107 226 223  80 196  96 131 188 203 141 111 178 163 128 116 105  98 102 112 128 125 133 138 138 144 136 133 136 136 132 128 123 116 116 126 125 128 129 131 141 143 130 131 127 130 130 126 110 103  91  87  89 107 135 163 165 138 186 162 163 165 171 163 163 158 158 162 140 126 106  90  94 111 104 157 112 175 190 231 248 201 230 177 145 218 178 171 175 161 148
  94 155  42 241 233 175 169 171 192 170 226 135 122 184 153 131 109  93  79  82  75  85  94 107 117 125 126 135 132 135 135 133 128 119 119 123 120 126 127 133 124 127 123 116 111 103 109 101  95  86  86  77  72  75  83 107 137 168 186 134 173 159 223 180 170 165 165 159 163 157 148 132  92  84 136 125 159 177 166 198 212 232 219 239 172 204 216 215 142 182 138 140
  75   9 232 165 249 226 121 230 145 162 210 182 138 177 134 105  94  75  70  57  51  62  59  59  69  83 104 108 116 122 128 121 121 118 120 120 119 122 119 122 120 115 102  92  70  59  51  53  50  48  49  56  60  66  73 107 118 144 175 178 151 190 149 222 152 191 169 163 181 166 148 151 115 102 141 114 191 176 198 191 209 202 159 228 106 150 148 187 200 204 186 206
  96   0 196 160 244 226 211 155 147 233 244 198 133 170 130  95  81  97  95  90  76  59  43  38  37  51  61  83 103 112 116 122 116 117 117 112 116 118 116 116 106  95  83  72  61  51  47  44  53  60  69  79  81  81  67  86 108 126 146 177 184 159 158 196 222 197 197 189 190 180 170 155 124 109 159 178 221 133 238 231 170 123 143 210 154 154 189 186 203 153 182 217
 119  31 137 188 238 238 182 192 131 219 220 197 123 161 117 111 112 110 110 108 101  98  88  90  76  62  50  55  83  99 108 112 110 113 113 108 112 111 114 111  96  84  75  65  59  68  69  85  81  92  95  94  98 109 100  89  94 119 132 157 182 188 186 163 235 212 210 212 209 199 185 168 126 131 155 187 200 166 167 196 178 103 149 194 123 223 223 194 146 196 139 121
 118  28  31 184 216 213 231 202 111 216 249 156 167 160 135 112 108 113 111 101  96  91  84  90  90  90  87  75  69  79 105 102 101 111 113 110 108 108 105 100  86  81  81  81  84  94  91  90  82  91  91  98 104 102 104 105  97  95 111 147 174 188 201 157 200 212 202 204 215 223 207 169 151 134 149 150 210 178 202 164 201 113 176 144 238 225 221 220 236 167 174 239
 129  42  43 119 176 246 203 204 175 118 227 106 198 165 136 120 108 103 100  68  71  50  57  67  84  89  84  83  91  86  84  89  96 103 108 103 103 104  98  91  91  91  90  85  85  86  82  85  87  77  90  89  91  97  97  93 101 109 107 119 151 162 190 179 179 219 208 218 218 234 213 205 165 133 107 147 211 155 138 113 213 133 185 186 219 202 238 239 189 171 238  60
  64  51  40  29 188 182 195 217 247 137 181 119 151 148 141 114 112 107  48  54  60  69  60  47  42  49  67  77  79  77  92  93  98  96 103 107 105 103  98  96  91  86  85  83  72  72  76  86  79  50  43  47  49  60  72  92 100 102 105 107 127 157 155 171 171 213 216 227 221 228 234 206 187 158 135 164 137 137 127 126 210 122 212 206 246 162 235 199 207 213 203 141
  92  47  33  39  77 197 227 225 161 168 232 130 133 142 138 119 109  68  66  51  27  56  60  27  38  27  41  44  55  61  69  89  97  95 105 103 101  98  94  94  94  86  72  67  70  74  56  41  42  57  50  49  60  60  72  56  55  79  96  98 117 127 144 159 165 187 210 225 222 225 243 218 147 180 134 171 152 109 104 114 201 140 163 242 220 160 160 151 155 133 168 151
 184  54  31  47  18 135  95 240 131 138 240 193 152 163 154 111  87  60  53  53  95 116  37  46  15  34  24  44  54  55  57  71  98 101 117 118 113 103  96  96  89  72  60  62  54  56  52  61  41  36  39  36  34  36  34  65  72  54  66  87  87 109 138 144 162 168 205 231 230 233 231 197 166 163 127 168  96  99 112 123 173 225 242 174 119 144 230 130 129 150 135 175
 184  62  54  36  48  37  48 202 217 195 149 227 193 219 150 136 114  89 101  87  88 129  96  29  51  44  36  54  41  64  64  63  94 113 137 135 122 107  98  90  79  68  60  57  66  54  54  48  97  71  36  32  32  41  55  53  63  74  62  75  84  93 114 121 135 151 199 222 226 220 212 169 170 164 163 210 111  99 109 135 212 200 169 131  88 128 140 143 203 109 181 177
 238  93  63  57  51  30  21 171 165 207 111 224 196 230 141 129 106 122 141 133  97  91 120  57  40  40  58  62  44  53  97  94 104 130 148 137 129 118 108 100  85  77  69  62  49  61  57  74 102  90  40  57  54  44  88  84  57  66  71  75  88  91 109 111 121 157 185 224 230 219 200 170 142 166 189 173 116 100 121 147 239 170 139  97 193  90  85 182 202 196 183 182
 249 149  82  59  49  43  32  18 197 168 179  38 213 133 147 117 144 157 146 144 128 105  81  96 107  95  97  77  82  95  92 122 111 142 156 145 134 125 115 112  84  98  80  73  60  63  62  68  83 104  72  38  42  62 110  82 117 106  87  86 100  97 118 124 134 167 202 216 229 223 197 142 155 176 216 157 111 100 135 186 225 162 151 147 168 135 118  89 182 164 150 188
 253 161 109  73  76  32  44 104   8  67 214  60 218 138 139 139 151 151 161 141 142 133 121 107 102  92  87  86  80  69  63 109 132 157 159 148 141 136 123 126  92 104  77  72  80  77  88  76  93  80 101  97 107 108 108 137 150 135 123 123 128 123 129 134 144 167 196 229 228 206 170 166 195 175 196 112 113 151 147 213 184 156 167 161 228 202 185 199  84 162 185 177
 222 164 157  87  97  34  49  40 149 206 179 182 208 105 172 159 160 131 129 148 143 146 138 126 108  98  80  77  74  79  95 122 142 156 155 143 145 143 140 131 114 109  88  75  75  87  87 102  99  93  99  87 119 124 132 146 148 145 146 153 130 148 140 139 153 180 198 225 213 207 202 178 190 178 206 163 226 163 161 219 240 190 254 155 252 146 208 213 231 236  75 101
 251 210 189  50 124  39  50  96 119 123 181 232 178  88 178 162 118 147 156 123 121 111 102  96  93  96  96 100  89 100 130 133 152 150 153 144 148 146 146 134 124 121  96  75  86  82  92  93 101 104 111 120 117 118 122 137 148 144 143 150 150 153 146 149 179 197 206 232 216 191 212 197 223 200 167 159 236 163 176 235 223 182 253 180 247 121 183 156 125 226 185 205
 173 203 203  87 126  40  44  59  34  51 175 230 127 178 156 144 160 140 131 141 146 146 136 129 113 102 102  99 117 145 137 143 161 148 143 145 156 153 144 143 135 126 128  92  78  91  91  98 103 105 110 113 116 130 137 153 151 137 146 165 149 171 159 163 187 211 223 236 227 224 230 216 197 208 139 162 232 170 198 243 148 255 251 201 134 199 215 176 204 202 160 247
 230 208 185  57 116  44  37  28  41  22 194 232 162 171 166 162 154 147 142 138 129 126 126 120 106 103 111 135 152 140 142 155 165 156 144 142 155 158 150 141 149 138 140 136 103  82  97 102 111 113 118 126 124 127 126 133 136 144 129 166 156 174 163 165 193 218 221 230 229 223 234 211 191 211 169 171 237 173 227 204 182 254 253 138 227 219 209 209 228 229 184 225
 188 184 181 105 108  52  34  32  38  60 221 235 162 135 168 150 149 155 145 137 125 124 119 112 116 123 138 148 146 144 142 155 159 158 145 148 149 160 163 153 152 145 137 136 142 108  94  97 113 122 126 131 132 142 153 157 164 163 144 150 154 159 170 177 199 222 216 229 229 231 224 222 183 189 167 215 235 236 238 106 248 250 245 212 254 174 197 218 228 192 223 241
 223 184 177  52 105  44  35  39  29  86 188 241 159  58 173 153 150 155 152 142 135 129 128 128 132 143 145 144 144 146 143 159 157 149 148 147 152 160 161 155 155 147 135 127 140 148 114  91  92 103 120 128 134 139 143 145 148 153 162 161 169 162 173 186 201 218 215 233 225 232 204 241 163 157 194 239 239 129 166 213 227 228 244 184 242 168 236 207 156 243 222 234
 194 166 179 100 113  55  28  41  40  95 201 242 164 135 180 155 142 146 144 152 148 144 147 144 141 144 135 138 147 143 141 160 157 152 148 145 151 164 164 157 153 142 129 133 128 147 142 129  98 102 111 118 122 129 146 147 151 157 161 153 156 162 171 177 208 219 216 233 238 221 213 236 184 187 223 232 182 254   6 239 230 192 234 192 173 251 208 167 247 244 230 236
 216 179 218  82 109  59  39  46  30  73 177 218 134 103 171 155 153 150 149 151 158 154 154 152 144 137 136 137 143 143 143 159 152 152 148 152 150 162 163 156 153 145 142 127 129 127 148 152 145 120 111 108 121 127 130 141 138 152 151 159 154 163 172 172 194 212 215 226 230 220 220 213 198 210 209 192 236 246 146 169 212 199 238  79 236 249 255 176 253 251 196 248
 234 184 194  80 130  65  39  35  33  58 167 238  47 135 158 151 153 156 158 152 154 155 153 150 137 135 136 138 140 146 146 151 158 154 156 157 157 159 161 155 152 154 145 128 124 122 128 135 145 151 133 130 118 124 136 143 142 146 148 159 152 158 171 171 197 215 220 225 231 207 229 202 164 168 226 164 215 230 170 135 233 154 170 249 213 231 249 153 254 250 209 244
 225 228 228 121 152  66  50  44  30  64 163 229  21 222 123 157 151 152 154 151 153 154 151 144 131 132 132 142 146 148 145 153 160 156 158 156 168 172 168 160 153 149 149 141 126 131 129 125 134 145 147 146 135 133 132 131 143 140 148 149 150 151 164 182 193 209 217 229 226 234 233 226 209 247 176 255 222 217  63 245 109 182 254 109 254 234 239 219 189 248 242 172
 208 187 208 107 170  75  42  43  23 115 151 210  42 233 136 155 152 146 148 148 142 142 140 138 132 134 128 125 128 142 147 157 166 161 156 157 171 183 178 169 158 151 149 146 127 126 132 133 137 142 146 149 146 139 138 143 141 141 143 142 143 153 176 176 191 203 212 229 224 217 218 229 236 159 217 208 203 225 114 159 223 137 179 218  48 241 221 229 183 254 175 211
 207 172 241  68 187  68  41  64  42  48  74 187  17 249 130 157 145 144 144 143 143 136 138 130 123 113 107  96 106 138 152 157 156 153 153 158 168 183 183 173 160 142 136 135 129 124 129 130 131 136 138 144 148 148 145 149 151 150 151 149 151 155 169 173 190 205 216 227 201 218 231 222 199 215 214 165 191 180 206 130 234 164 198 166 240 104 227 223 187 126 184 218
 236 157 210  80 169  75  36  46  50  22  58 153  31 247 122 172 143 139 137 137 134 122 123 117 112 102  88  88 114 147 149 156 161 158 158 168 176 193 189 171 158 146 130 115 112 114 124 131 134 135 137 141 142 144 146 149 153 154 161 152 168 174 166 168 197 214 214 216 212 195 230 203 208 182 234 244 223 238 163 207 164 185 224 161 145 177 227 224 109 204 242 251
 240 220 226 120 149 148  25  47  38  33  73 118  60 151 201 174 143 133 127 132 124 111 106 105  92  87  68  76 108 147 150 155 162 154 158 158 161 186 186 171 158 150 143 105  97 103 114 123 129 130 134 134 140 141 143 151 153 155 166 164 186 187 159 166 203 217 211 207 213 220 235 201 238 209 242 235 185 135 166 245 136 133 183 246 191 199  80 117 203 221 235 226
 253 182 217 178  93 174  43  33  60  32  79 174 149  78 189 145 128 133 123 127 116  99  95  92  78  63  78  79 139 145 151 152 160 157 158 162 175 182 185 183 172 164 159 111  78  82  99 110 120 122 125 126 126 135 129 139 146 151 173 179 204 201 179 175 213 210 205 207 199 237 218 249 248 207 244 166 205 219 186 213 164 162 154 175 246 214 113 149 186 210 183 182
 242 233 227 200  70 143  78  21  64  30  86  34 164  94 170 135 120 126 127 118 108  99  91  85  72  78  82 104 146 145 153 148 158 154 157 163 175 187 186 186 172 167 171 117  72  81  79  92 107 113 119 123 123 123 124 127 134 150 165 168 189 177 174 194 224 195 214 190 201 216 247 234 243 194 131 237 174 235 249 252 234 152 158 164  86 198 212  82 201 165 247 227
 146 189 233 225  65 164  88  19  59  40  42  65  78 133 187 151 143 129 127 110  96  91  79  81  77  75 101 115 134 137 155 149 158 152 163 168 181 188 185 184 175 179 177 121  81  87  78  78  88  99 111 115 116 111 115 117 124 137 138 157 188 189 177 203 220 203 181 215 227 198 241 242 171 122 255 189 180 222 248 250 246 182 223  97 193 167  94 139  81 229 195 205
   0 247 225 202  59 133 106  36  36  38  65  73  99 177 147 160 140 119 125 107  95  82  79  72  79 106 116 132 127 137 148 164 145 143 146 153 167 175 172 165 162 163 162 110  88  99  93  77  78  87  98 101 106 109 116 118 123 134 142 154 169 167 185 211 218 190 182 211 203 227 246 177 172 249 248 181 195 247 246 253 234 205 249 247 209 135 105 125 112 112 178 210
 167 248 213 213 105 100 112  38  28  49  55  25  90 184 147 129 177 130 127 116  97  81  65  73  90 103 124 118 126 123 138 125 136 129 121 129 148 154 154 149 136 111 111  94 106 102 102  95  79  80  90  97 100 102 112 119 120 125 131 140 148 152 187 214 209 186 202 200 202 220 209 210 246 246 242 248 236 243 239 252 236 245 249 251 245 250 252 135 224 163 114 103
 253 221 183 184 189  23 122  32  34  55  36  57 115  99 146 137 199 113 121 121  87  66  66  97  97 105 109 111 117  96 116 117 108 105 110 111 115 133 104  42  55  65  97  98 101 112 110 107  98  81  80  87  98 105 107 113 122 122 119 124 140 162 179 213 190 166 195 178 224 238 160 245 242 243 209 221 234 241 246 253 230 251 250 249 247 251 230 211 163 211 163 200
 204 234 191 153 217  29 123  25  43  47  39  55  87 115 183 171 252 108 122 125  98  72  92 109  87  99 110 111  94  97  86  92  76  87  81  97 102  59  50  73  81  98  96 104 109 109 117 113 108  95  80  80  88  95 107 118 130 130 124 122 141 161 203 219 188 177 214 199 191 248  28 253 228 233 199 235 242 241 249 236 217 253 235 252 232 251 236 255  55 218 248 103
 187 170 212 153 193  52 114  56  51  43  40  54 129  75 211 148 186 212  99 121 108  99 104  97  86  79 104  92 101  98  93 110  80  70  77  71  51  57  73  88  71  87  97 106 107 102 107 105 104 104  96  78  83  94 104 116 129 135 130 130 141 161 204 205 183 192 194 213 196 234 245 146 238 174 255 244 240 239 252 198 125 252 249 238 246 250 233 252 136 193 207 139
 208 202 210 193 200 102 110  65  35  52  35  39 123  65 214 141 229 188 120 123 116 115  96  76  69  64  89  79  99  91  91  91  76  62  41  52  67  60  68  76  73  98 100 108 104  96  89 112 101 103 109  98  79  93 101 117 129 132 133 134 136 184 204 202 204 197 181 211 209 227 218 148 153 253 238 247 242 255 169 185 254 248 247 236 248 240 223 249 134 195 169 223
 214 173 208 194 188 161  37  73  39 111  53  35 140  82 207 141 231 231 161 115 114 116  97  77  71  67  77  92  90  95  88  76  71  63  63  50  72  67  66  82  67  79  97 120  98 104  95 111  92 105  95 113  91  91 103 125 130 140 129 133 140 183 199 203 185 173 210 208 219 228  60 249 154 242 226 229 246 147 233 245 252 247 248 243 252 247 236 241  71 200 198 255
 206 223 222 204 203  96  61  39  45  25   0  56 170  46 172 165 240 231 191  98 120 115 115  80  69  56  51  88  84  84  81  83  70  48  42  45  52  65  66  65  90  88  98 108  95  98  89  97 106 107 102 108 108  89 102 119 129 132 144 128 142 187 210 181 188 188 190 205 220 242 134 246 156 212 245 237 134 251 241 252 253 248 246 245 246 241 242  78 236 150 226 243
 150 148 235 175 220 179  71  65  92 118  10  42 188  86  22 219 228 229 204 135 123 116 110 108  94  83  68  87  87  81  92  77  68  55  47  40  50  59  68  82  79  89 101  90  96  92  87  94  93  99 118  98 122  93 108 114 130 128 132 124 151 176 204 169 193 156 193 200 219 235 174 246 246 144 201 159 254 253 250 255 250 235 249 235 253 231  49 236 146 248 239 235
 221 144 215 188 219 201  47  41  60 124  15  47 181 160  51 222 244 239 249 157  92 130 117  94  97 103 112 114 104  74  91  94  94  54  62  49  61  64  74  71  71  80  93 102 104  88  89  88  76  86 107 107 118 102 109 120 137 126 124 126 159 190 168 161 146 174 180 212 223 222 183 208 239 205 182 245 255 248 253 246 253 239 250 251 133  84 221 246 223 232 246 251
 162 182 224 227 206 205   4  61  78 135  14  43 189 168 123 248 244 228 190 193 179 116 117 113  96 112 121 118 116 114  90  63  72  88  87  77  94  92  77  79  75  76  89 101  95 115  85  71  74  80  93  95 103  94 111 120 133 130 122 127 132 166 162 139 166 202 171 210 213 224 196 217 250 154 254 244 242 242 252 254 250 252 210  24 183 250 252 242 242 232 246 234
 128 201 207 192 221 180   0  91  57 143   9  30 145 178 157 227 187 198 209 251 248 118 125 112 104 111 125 129 118 122 114 114  70  41  52  72  67  75  75  72  66  75  65  69  67  58  40  45  66  62  76  80  90 100 118 122 130 135 118 144 169 180 153 152 189 162 186 202 222 225 136 212 207 192 240 236 222 243 245 249 255 121 109 254 244 228 243 244 234 240 246 234
 199 179 154 207 206 170  98  73 128  91  14  35 139 191 127 215 225 227 226 230 251 214  92 111 108 119 127 128 119 127 124 110 116  94  72  52  46  34  34  30  39  43  37  58  55  81  83  73  68  72  78  87 101 102 116 127 134 131 127 146 170 149 144 160 202 159 199 204 210 228 176  12  33  99 195 247 244 240 249 195  42 165 253 243 250 226 239 234 233 230 244 236
 216 170 169 194 203 161 117  65 103  65  14  43  59 204 142 199 220 234 230 246 250 247 121 116 100 110 126 127 119 121 128 116 107  98  92  90  81  68  67  65  68  73  86 101 100  98 101  99  98  86  91  90 103 110 126 124 130 124 138 155 158 174 135 174 155 167 191 203 208 211 242  32  38 112 112 228 236 248 188  93 233 249 238 246 246 225 245 236 232 234 247 237
 203 165 160 192 173 194  99  65  57  53  24  36  48 234 134 214 239 227 232 241 245 254 206 102 109 110 110 119 121 115 109 115 112 109 107  94  90  87  84  89 100 102 110 112 106 104 107 107 107 105  98  97  95 108 112 130 122 123 131 136 159 143 156 179 151 178 195 200 201 221 236  63  28 101 124 156 253 153 109 252 245 246 251 243 241 228 249 237 241 242 237 244
 180 190 176 195 170 140 153  42 101  98  28  30  43 241 153 217 238 236 240 244 254 218 235  84  93 110 115 125 118 106  96  96  82  81  84  99  96 100 100 107 113 107 105 102 107 108 114 110 106 102  96  97  96 105 105 115 113 114 103 137 118 170 179 148 155 173 177 200 200 208 214 166  23 104 122 137 122 136 252 247 241 251 252 245 242 234 253 234 238 235 249 250
 194 208 179 159 192 137 199  22 101 125  37  24  38 224 140 157 212 255 247 255 110 206 128  84  87  91  94 125 122 110  99  82  68  84  69  64  75  84  98 107 101  92  94  93 107 110 112 110 106 108 104  91  93 104 118 104 108 115 134 141 173 182 120 142 158 169 184 189 201 202 183 119  74 107 118 136 190 254 252 247 242 248 251 249 236 231 248 229 222 233 244 248
 220 169 169 181 171 126 170  25  64 165  64  12  64 122 177   0 181 255 229 160 251 172  38  57  91  84  91 103 115 112 111  81  73  74  59  77  59  70  70  70  81  83 102 103 112 108 108 112 105 101 101  99  97  99  89  91 107 110 146 154 171 139 147 133 160 169 166 186 195 185 141  82  85 105 122 116 146 247 253 242 237 241 244 239 229 232 245 232 246 252 245 244
 172 137 158 173 183 142 197   0 129 162 164  12  59 114 193 135 211 128 190 252 227   0  46  55  67  45  74  98 110 110 110  98  82  84  74  74  79  67  61  65  78  91 103 100 100  98  98  99 106 107  93  94  94 130  82 110 105 124 186 165 173 124 122 139 155 165 172 183 185 145  94  67  80 114 108 117 124 247 250 249 240 240 240 243 229 236 242 219 214 205 240 253
 161 135 192 158 141 159 137  81 102 159 133  26  44 133 203 162 120 229 235 241  73  54  25  27  83  74  66  99 114 111 107 107  90  71  62  78  70  67  63  67  78  89  97  95  97 101 101 104  96  98  92  90 106 125 130  79  96 118 152 154  93 126 129 138 155 155 167 168 145 103  74  69  99 113 116 128 123 164 253 251 245 247 244 249 227 236 249 252 252 250 249 249
 186 113 144 156 144 164 158  36 141 162  88  23  33  97 195 201 197 237 198 130  41  32  19  15  25  69  97  83 113 116 129 127 105  94  72  74  83  54  63  70  79  81  89  93  88  99 104 104  89  86  93  98 131 123 122  86  98 128 123 145 122 125 119 138 140 150 155 136 111  80  50  80 107 112 116 125 117 106 232 246 245 244 243 245 225 240 246 248 253 247 252 249
 105 151 170 145 114 117 156  12 158 167 112  21  22  49 234 116   4   6  39  52  46  25  20   8   0 112  70 105  78 112 126 125 128 115 109  91  91  80  95  97 107 105 102 108 108 114 105 109 102  89  70  75 122 124  61 110 113 132 116 120 110 114 130 131 132 133 121 106  85  55  54  93 105 112 118 120 109 131 136 250 242 244 249 241 236 234 205 245 252 252 251 254
 182 160 149 172 158 142 182   0 240 137 152  12  51  83  44  29  36  64  60  52  31  25   8  16   6  36  90 109 107  93 118 127 135 124 124 120 125 131 125 128 124 126 116 117 122 107  97 111  98  93  73 111 124 145 100  78 122 122 114 107 118 117 121 120 118 107 108  93  59  44  71 101 105 111 115 110 118 108 113 194 231 215 217 229 231 210 171 243 250 253 251 252
 168 159 164 133 136 144 200   0 197 170 138  56  60  42  30  33  61  64  53  46  30  22  17  14  17   0  99 103  98 101 115 107 123 120 118 123 117 120 126 132 128 126 130 127 103 105 130  78 101  95  90  80  99  87  63 108 124 113  94 114 112 113 120 114 105 105  94  72  44  55  86 102 112 112 114 111 102 125 114 101 203 218 209 244 217 223 155 252 254 250 250 250
 132 191 159 145 146 154 172 109  17   4  57  50  42  31  39  39  74  57  47  37  26  19  16   9  11  17  24 140  70  83  94 138 122 100 105 116 110 117 116 108 126 124 116 135 106 100  89  89  89  93 112  95 103  92 115 103  70  93 109 115 115 114 106 103 100  96  84  55  45  78  97  99 116 108 112 107 114 113 114 119 107 253 243 229 241 251 255 248 249 249 250 251
 176 171 141 142 157 148  55  35  59  50  34  28  30  32  50  67  50  51  36  26  24  12  10  12  11  10   1  79 137  99 103 106 104  97  95  97 102 102  97 117 111 109 112 130 118 126  81 107 124  94 138 135 108  73  62  75  94 105 108 109 108 110 102  99  96  83  62  42  63  96  96 104 107 116 110 108 107 109 120 117 101 139 255 248 254 250 253 250 251 255 249 253
 159 200 129 128  22  39  28  51  49  34  36  32  30  54  63  56  45   8  10  15  22  15  14  12  12  12  17  10 109  90  90  92 100 116  87 105 101 101 106  90 120 106 113 112 114 112  71 100 106 151  68  80 100  55  80 104  93 102 101 108 113 100 100  93  88  68  45  45  79  84  97 112 107 108 112 112 107 104 116 113 104 123 119 176 235 254 252 247 249 250 249 253
 101  96  49  24  50  45  52  51  27  28  30  34  39  64  53  38  11   8   5  10  27  11  11  12  12  11   7  20  45  99  86 104  83  85 101  88  99  95  84 101  81  83  76  94 112  59 100 113 101 109  68  66  71  70  81  88  98 103 107 109 103  92  94  90  81  60  56  59  86  92 119  95 107 115 107 110 104 104 107 113 120 100 121  78  41 204 254 247 250 251 254 253
  56  38  39  49  36  46  40  32  33  27  38  39  59  62  30   3  15   7  10  11  25  10  14  12  12  11  18  15  61  65  73  63  94  76  79  51 107  74  92  66  78  77  80  69  77 100 114  99 110  75  76  62  73  81  92  89  98 111 109  98  96  93  89  82  64  41  39  10  17  18  60 110 111 105 104 106  97 102 103 115 104 115 101 126  53  97 147 236 228 218 221 231
  50  38  38  40  42  38  34  24  24  41  48  56  56  15   8   9   9   4   8   7  25  15  13  11  10  12  11  22  57  68  81  69  56  77  94  79  72  69  51  78  42  65  78  55 105 106  88  88  53  66  65  73  91  83  81  99 109 112 104  93  94  89  82  67  30  86  24  16  16  19   7   0  77 122 106 101 104 102 102 109 113 110 103  96 109  60 108  98 242 255 255 255
  41  32  45  36  36  23  31  32  39  47  54  47  12   5  10   7   5  11  10   2  25  28  12  11   8  10   9  27  50  69  74  67  74  69  79  81  47  73  50  80  40  62  37  49  38  70  43  44  53  60  81  80  67  91 110 115 109 104  97  90  87  83  79  49  54  55   6  19  11  10  15  22   0  85  98 108  89  88  98 108 113 108 111 101 110  41 134  92  87 247 251 251
  30  43  45  31  29  37  29  40  53  51  48   6   9   6   6  10   7   5   7   3  11  19  19  21  16  15  12  33  47  67  73  79  77  78  80  66  65  52  47  47  47  45  39  43  63  66  71  74  69  65  59  90 109 112 113 114 109  98  94  94  88  79  48  45  63  14  23  16  11  21  17  17  16  11  93 113 111 102  99 101 105 111 103 111  87  94 109 106  62 112 253 249
