P2
# Generated by OpenCV 4.2.0
92 112
255
 242 242 242 242 242 242 242 242 242 242 243 243 244 245 244 244 244 244 244 244 244 244 244 245 246 245 245 245 245 245 246 245 245 245 246 247 246 247 248 242 191 176 206 188 158 144 138 155 178 171 165 187 176 175 167 229 252 249 252 251 250 250 251 250 251 251 252 251 251 251 252 252 253 252 253 253 253 253 253 253 253 253 254 254 254 254 254 254 255 254 254 254
 242 242 242 242 242 242 242 242 242 242 243 242 243 244 244 244 244 244 244 244 243 244 244 245 245 245 245 244 244 245 245 245 244 245 246 246 246 248 248 230 164 123 122 154 146 170 152 147 139 117 141 158 177 175 153 180 245 253 252 253 250 250 250 251 250 248 251 253 252 252 253 252 253 253 253 253 253 253 253 253 253 254 254 254 254 254 254 254 255 255 254 254
 242 242 242 242 242 242 242 242 242 242 242 244 244 245 244 244 244 244 244 245 244 245 245 245 245 245 245 245 244 245 245 245 246 246 246 246 247 248 244 191 133 114 137 165 160 182 154 152 151 145 146 136 137 160 137 134 201 203 168 231 255 255 252 252 250 246 252 253 253 253 253 253 254 253 253 253 253 253 253 253 254 254 254 254 254 254 254 254 254 254 254 254
 242 242 242 242 242 242 242 242 243 242 243 244 244 244 244 244 245 244 244 244 244 245 245 246 245 244 245 245 245 245 248 250 247 238 241 248 249 250 189 151 168 129 155 151 140 142 131 123 144 152 113  88 122 142 125 116 154 144 127 166 179 207 227 247 251 246 252 252 252 254 253 253 253 253 253 253 253 253 254 254 254 254 254 254 254 254 254 254 254 254 254 254
 242 242 242 242 242 242 242 242 243 243 243 244 243 244 244 244 245 244 244 244 245 245 245 245 245 245 245 245 246 250 240 204 188 191 214 237 247 206 133 132 131 133 132 140 127 113 119 135 133 116  80  92 112  98  98 111 161 134 119 147 131 142 200 219 236 249 251 249 251 252 252 253 253 253 253 254 254 253 254 254 254 254 254 254 254 254 254 254 254 254 254 254
 242 242 242 242 242 242 242 242 243 243 244 244 244 244 244 244 244 244 244 245 245 244 246 245 245 245 245 245 252 226 175 167 196 203 186 168 148 115 107 119 147 138 133 100  77 115 126 138 121 112 132 152 102  66 112 142 109  96 139 155 140 136 166 165 215 243 252 250 249 249 252 252 253 253 253 254 254 254 254 254 254 254 254 254 254 254 254 254 254 254 254 254
 242 242 242 242 242 242 242 242 242 242 243 244 244 244 243 244 244 245 245 245 245 245 245 245 245 245 244 250 232 158 166 188 195 148 121 125 100  99  95 137 118 101  75  66  98 116 115  98 115 125 115 126 116  73 133 111 106 112 142 136 118 141 129 134 220 239 252 247 248 251 253 253 254 253 254 254 254 254 254 254 254 254 254 254 254 254 254 254 254 255 255 255
 242 242 242 242 242 242 242 242 242 243 244 243 244 244 244 244 244 245 246 241 235 241 245 245 245 245 246 248 171 147 180 179 134 106 112  95  82  88 117 104  96 107 111 116 114 102  67  81 120  95  83  90  99 115  94  93 100 121 136 122 107 142 134 139 210 231 245 240 251 252 252 254 254 253 254 254 254 254 254 254 254 254 254 254 254 254 254 254 254 255 255 255
 242 242 242 242 242 242 242 242 242 243 244 244 244 244 244 243 244 246 242 228 238 245 245 245 245 245 250 218 140 180 185 126  84  78  73  57  76 121 101 115 129 105 105 102  79  46  69 117  93  63  67  82 109  98 111 122 102 109 114 103 101 138 129 135 177 223 242 245 246 248 252 249 248 251 252 252 254 254 254 254 254 254 254 254 254 254 254 254 255 255 255 255
 242 242 242 242 242 242 242 242 242 242 244 244 244 244 244 244 244 245 230 235 246 247 246 244 246 249 248 162 147 137 110  81  74  45  52  83 104 102 114 114  90  75  73  55  77  83  94  88  46  54  76  96 127 110 118 141 138 124 126 113 103 134 117 137 150 207 243 238 231 230 222 226 226 245 253 254 253 254 254 254 254 254 254 254 254 255 254 255 255 255 255 255
 242 242 242 242 242 242 242 242 242 242 243 243 244 244 246 245 239 232 228 244 250 236 245 247 242 243 206 112  91 102 134 131  63  68 100 103 122 132 114 104  86  65  64 103 120  79  55  48  56  96  93 128 128  95  91 118 110 108 116 125 113 123 137 139 132 185 206 182 171 171 157 162 188 219 243 250 255 254 254 255 254 254 254 254 254 255 254 255 255 255 255 255
 241 242 242 242 242 242 242 242 242 242 242 243 244 245 233 236 239 228 233 234 186 214 224 214 205 174 123 109 123 114 114 110  83 114 109 109 128 130 117 111 109 111 111  96  72  57  63  78  99 100 117 106  87  84  93  83  78  78  68  87  98  92 109 134 117 149 149 146 154 125 109 114 144 136 194 251 246 249 253 254 254 254 254 254 254 254 255 255 255 255 255 255
 240 241 241 242 242 242 242 242 241 242 242 242 244 236 222 226 223 224 235 176 180 227 206 211 176 142 129 145 112  84  93 106 113 102 118 117  96 101  84  79  99  90  98  99  77  92  98  99  95 128 106  85  87  85  73  62  46  51  70  85  96  65  77 121 103 110 120 138 137 111 133 148 141 142 196 227 235 248 254 254 254 253 254 254 254 255 255 255 255 255 255 255
 240 240 240 241 241 242 242 242 242 242 242 242 246 225 189 183 206 210 188 132 172 194 193 160 143 146 152 107  79 107  94  87  95 117 115  88  77  70  73 102  79  78 103 111  94 101 103 107 107 100  74  79  96  82  71  39  54  66  61  67  72  58  70 109  95  90 122 129 116 124 143 146 148 177 191 206 244 253 254 254 254 253 254 254 254 255 254 255 254 255 255 255
 240 240 240 240 241 241 242 241 243 242 242 242 248 174 164 209 209 178 145 115 149 160 151 148 136 137 121  60  99 109  65  77  95  78  75  72  58  64  85  61  55  77  93  83  85  89  93 105  92  94  97 100  99  94  77  78  85  51  53  71  61  60  87  93  93 106  84  99 115 115 118 129 153 157 148 170 228 254 254 254 254 254 254 254 254 254 254 254 254 254 255 255
 239 240 240 240 240 240 241 241 242 242 243 243 243 176 208 223 221 181  92 107 143 132 138 135 107 103  54  43  89  73  45  70  64  52  56  58  50  65  60  33  66  89  81  63  88  89 103 103 126 142 117  95  81  84  91 102  77  46  55  70  82  86  76  79  80  66  90  96  98 107 118 124 126 137 156 140 220 255 254 254 254 253 254 254 254 254 254 254 254 254 254 255
 239 238 240 241 241 240 240 240 241 242 242 244 238 188 200 217 220 158  72 104 170 165 132  90  85  74  34  39  57  35  42  53  41  34  47  49  40  37  35  28  47  60  57  55  52  52  84  82 111  91  85  62  74  84  93  99  85  99  96  80  76  58  59  63  61  71  75  84  97 112 105 111 118 131 141 131 209 246 246 251 253 254 254 254 254 255 254 254 254 254 254 254
 238 238 239 239 240 240 240 240 240 241 242 244 231 168 199 201 201 126  90 137 242 183  95  62  79  60  29  16  34  24  38  46  33  32  60  42  29  30  22  28  11  30  49  37  15  30  49  96  64  63  76  64  83  83  85  96  93  95 104 105  69  73  94 107 110  92  80 110 112  99 102 114 120 113  92 128 193 231 243 252 254 254 254 254 254 254 254 254 254 254 254 254
 239 239 239 239 240 240 241 241 241 241 241 243 245 175 172 170 145 114 147  77 134 111  66  57  57  38  19  18  24  16  31  50  32  32  57  29  41  52  41  25  15  21  37  14   4  12  29  80  45  57  70  76  79  82  84  74  70  65  85 108 122 119 110 110 106 115 103  85 102 116 116 113  98  76  91 135 169 222 244 252 254 254 254 254 254 254 254 254 254 254 254 254
 238 237 239 239 239 240 240 240 241 242 241 242 245 215 132 128 114 109 109  67  67  83  50  41  43  24  15  17  24  13  31  54  21  18  59  36  55  55  47  22  17  17  23  15  10  19  47  63  39  35  42  38  30  51  74  73  91 108 113 132 138 100  84  79  85  89  85  83  72 104  99  85  88  90 100 127 159 195 246 251 255 254 254 254 254 254 254 255 254 254 254 254
 238 238 239 239 239 239 240 241 241 241 242 245 237 199 129 123 118 108 101  79  58  53  36  36  37  22  21  19  25  13  22  60  28  13  56  51  57  56  47  20  17  12  16  15  14  34  47  49  30  17  23  16  23  59  95 103 102  87  71  76  86  70  99  93  79  81  80  88  74  80  84  78  95  86 101 131 159 187 242 239 254 254 253 254 254 254 254 254 254 254 254 254
 238 239 239 239 240 240 235 239 240 241 239 221 225 180 129 140 113 116 114  98  64  44  36  32  31  29  28  35  38  20  29  64  33  14  39  54  55  50  56  27  17  19  30  21  27  33  32  40  29  22  36  47  59  65  67  70  55  34  44  59  70  67  63  80  84  78  81  86  90  84  80  85  97 111 136 135 121 158 177 214 253 251 253 254 253 254 254 254 254 254 254 254
 238 238 238 240 239 240 229 224 239 243 227 216 227 144 103 116 108 106 105 102  87  62  45  41  25  33  38  42  46  28  50  61  46  14  35  50  50  39  56  47  25  20  26  43  37  27  28  25  27  42  47  48  40  24  42  52  43  55  59  73  69  68  75  95 115 107  99  97 106 108  99  93 100 108 101  95 112 136 197 236 249 254 255 254 254 254 254 254 254 254 254 254
 238 238 238 238 239 239 228 215 239 242 214 208 175 121  85 114 101 108 110 102 103  71  54  45  30  45  41  54  53  37  61  67  35  35  17  43  52  48  47  55  45  34  41  51  29  33  30  21  25  29  14  19  18  41  44  35  37  40  63  63  60  78  88  92 100  94 102  93  78  79  76  68  63  61  80 100 126 187 250 251 254 254 254 254 254 254 254 254 254 254 254 254
 237 237 238 238 238 240 232 206 226 238 208 191 139  99  41 117 145 136 133 105  91  79  55  48  46  47  38  54  63  50  62  79  55  36  42  41  52  59  52  47  58  48  52  61  35  37  35  23  22  19  25  25  28  48  41  24  22  40  40  58  68  66  56  64  77  74  61  82  97  78  66  56  61  86  99 105 128 170 227 255 252 253 254 254 254 253 254 254 254 254 254 254
 237 237 238 238 238 238 224 183 195 210 196 194 142  86  35  71 102 111 112 106  97  81  56  57  54  45  46  54  67  62  62  69  67  51  45  53  48  57  51  34  47  54  42  66  53  50  43  39  20  21  28  31  32  33  35  11  10  15  29  63  53  24  28  36  51  59  56  86  85  75  84  86  79  74  83  96 141 154 161 240 255 251 252 253 253 253 253 254 254 254 254 254
 237 237 237 237 239 238 210 164 153 170 193 179 144  78  46  53  88 101 103  82  75  92  81  64  61  58  59  45  71  67  62  60  56  64  60  49  44  46  55  42  38  58  40  54  57  60  60  44  29  26  31  28  25  30  26  19  16  26  35  30  19  22  27  32  41  60  71  77  76  50  74  86  94  88  93 109 117 136 138 162 244 254 252 253 253 253 253 253 253 253 253 253
 237 237 237 238 238 237 204 171 121 162 160 191 141  84  60  55  70 101 113  71  77  99  98  78  65  62  62  57  66  75  66  61  54  60  63  58  52  45  50  50  36  47  45  40  46  42  41  42  37  28  33  26  19  30  29  19  21  27  18  30  31  17  20  32  40  53  54  67  84  84  74  82  88  82  87  99  98 109 112 162 241 254 252 252 252 253 253 253 253 253 253 253
 237 237 237 238 238 239 167 162 119 162 187 206 154  90  61  30  40  65  91  53  77  91  86  84  86  70  59  57  66  74  61  58  59  55  51  57  56  43  34  45  47  49  48  29  36  42  39  34  33  32  35  35  27  27  32  22  21  23  28  41  29  29  46  64  72  81  77  68  81  98  83  80  88  85  84  99  84  75  82 132 243 254 252 252 251 252 252 253 253 253 253 253
 237 236 237 238 240 238 166 153 143 102 167 171 147 115  94  40  20  53  69  44  59  75  71  77  87  82  73  62  61  62  64  55  53  56  48  50  54  47  42  39  41  43  45  43  38  34  32  36  40  35  43  44  37  28  27  32  32  30  32  24  31  41  41  41  43  66  83  99  83  68  77  69  79  85  82  74 101  96  95  93 184 255 252 252 251 252 253 253 253 253 253 253
 237 239 238 239 239 240 211 141 144 124 112 105 114 118 105  96  58  17  58  61  60  79  72  77  76  78  78  77  66  59  50  52  54  56  51  44  45  47  50  47  44  47  37  39  43  39  32  29  33  39  47  45  40  43  37  37  47  45  38  29  35  31  19  19  29  41  54  62  83  74  51  74  81  82  84  83  78  95 100  71 142 255 253 251 252 251 251 252 253 253 253 253
 237 239 238 237 238 241 240 172  99 187 126 103  99 104 114 127 130  77  31  56  70  68  73  73  72  79  80  73  70  62  53  48  41  40  45  48  43  50  46  47  53  53  46  42  40  40  36  35  32  39  45  55  63  57  61  58  60  59  50  40  38  27  27  33  41  39  49  70  63  58  68  47  59  83  71  74  82  85  77  94 154 242 255 251 252 251 251 252 253 253 253 253
 238 238 238 238 239 237 241 228 120 115 178 197 158 108 116 125 131 131  86  43  57  67  58  57  63  70  89  89  87  80  82  64  56  46  39  42  46  48  49  48  46  49  50  48  49  51  48  54  57  58  64  80  96  96  93  90  78  80  64  52  47  41  35  41  52  54  47  52  71  56  54  60  62  73  69  60  62  86  67  66 112 220 255 253 251 252 251 251 252 253 253 253
 237 238 239 234 236 240 239 230 194 110 136 136 132 120 122 129 122 108 100  95  71  53  55  55  56  74  95 104 105 109 106  93  83  80  73  64  63  63  66  70  68  67  61  65  69  79  84  88  99 111 113 121 125 126 126 126 113 103  85  75  69  60  50  44  45  62  71  53  36  49  44  50  51  46  49  53  66  89 104 104 108 199 251 248 252 251 251 251 252 252 253 253
 238 239 239 234 226 227 227 210 214 139 107 131 126 107 109 117 107 103 106 115 129  94  61  54  67  82  99 107 117 130 133 125 117 103  99  95  88  88  88  88  92  93 100 106 108 112 126 132 139 149 152 150 151 152 151 153 141 126 110 108  99  89  77  64  68  66  74  73  46  20  27  36  46  33  22  39  64  91 114 107 114 182 235 232 249 252 252 251 251 251 253 253
 238 238 238 233 233 230 221 195 189 205 136 130 124 109 105 101 107 100 101 118 125 136 137 108 103 113 118 129 144 150 154 152 145 137 125 119 114 112 110 117 121 121 129 137 141 144 151 157 160 164 165 168 169 167 165 166 158 148 136 132 126 108  96  84  80  90  87  77  53  31  22  27  35  42  27  34  55  78  79  64  91 162 214 214 244 253 252 251 252 251 253 252
 239 239 240 231 222 225 212 199 186 186 191 139 126 131 119 102 103  98 103 116 127 162 183 179 165 153 152 155 160 163 166 165 157 156 153 149 146 144 142 145 147 148 152 157 163 165 166 171 173 175 175 176 175 176 176 171 167 160 155 146 137 125 109  99  92  99 110  92  60  35  19  15  28  41  44  58  79  76  70  81 103 128 169 178 246 253 251 251 253 252 253 252
 240 240 240 241 237 228 229 221 198 174 194 157 119 114 122 106 112 121 113 125 148 172 191 191 183 176 171 171 169 171 174 166 160 162 161 160 162 164 164 165 168 167 170 171 171 172 175 177 178 180 181 181 178 177 176 174 171 167 162 157 148 134 121 117 105 108 118 120  82  58  30   5  25  31  46  65  73  55  60  92 121  96 122 205 254 250 250 252 252 252 252 251
 242 242 242 242 242 243 243 245 237 210 197 154 123 114 122 121 119 126 135 143 153 175 195 193 188 183 179 177 174 173 172 167 167 168 167 169 171 170 169 172 172 171 171 172 174 175 177 180 181 179 175 176 177 175 172 172 172 167 166 163 155 145 135 129 120 117 122 127 100  74  66  22  27  53  59  66  79  70  70 106 136  81 110 236 253 249 251 252 252 252 252 252
 242 242 243 242 242 242 243 243 244 250 239 171 135 133 139 131 135 141 151 145 151 176 194 193 191 186 180 178 177 178 173 172 176 177 173 174 175 175 173 174 176 174 175 176 177 177 178 179 181 179 176 177 179 178 177 174 174 167 167 164 159 151 143 135 134 130 126 123 111  78  75  50  53  58  68  71  73  77  76  94 118 110 139 240 248 249 251 251 251 251 252 252
 242 242 242 242 242 243 244 244 243 248 213 164 164 150 138 142 153 144 139 138 154 176 193 191 191 191 185 179 179 177 173 174 177 176 176 177 176 175 176 177 178 176 175 178 178 176 175 176 177 180 183 181 178 180 179 178 177 170 170 165 162 153 148 146 146 143 135 129 127 107  79  63  62  63  59  72  77  85  64  73 105 107 174 250 248 247 251 252 251 251 251 252
 241 242 242 242 242 242 243 244 244 245 194 165 160 145 137 149 153 152 147 147 154 173 189 192 192 188 180 174 175 169 173 173 171 170 171 169 170 172 169 172 173 174 175 173 174 175 175 174 172 172 175 172 173 172 172 174 169 165 170 166 161 154 154 155 152 152 153 149 150 144  97  69  63  78  75  66  82 100 108  72 105 111 176 238 240 250 252 252 252 252 252 251
 240 241 242 242 242 242 241 242 243 240 178 138 130 135 148 151 147 135 141 154 162 174 187 190 186 182 181 179 176 172 169 170 167 163 163 164 165 168 168 166 169 170 171 169 169 168 171 169 168 165 162 166 164 164 166 164 161 162 163 162 160 163 161 159 162 161 163 160 160 161 120  71  66  69  86  93  88  97 105 105 118 159 208 237 245 252 251 251 252 252 252 252
 240 240 240 241 242 242 242 243 243 233 154 125 126 146 157 132 121 135 156 159 170 173 182 182 181 180 178 174 171 166 159 158 158 160 160 159 156 157 159 157 156 153 159 158 161 160 157 156 154 155 153 151 151 153 154 150 150 153 153 154 155 160 157 160 166 166 171 169 165 158 130  83  68  71  81  92  90  92  95  98 108 172 220 246 252 251 251 251 251 251 251 251
 240 240 240 240 241 242 242 240 244 231 138 112 128 148 138 119 131 147 155 161 170 171 172 173 175 177 179 179 175 170 169 171 169 165 162 160 159 159 164 169 166 163 162 160 163 163 160 160 160 159 158 154 156 155 153 151 153 160 161 157 160 159 159 166 170 169 172 169 169 163 132  89  72  78  81  74  82  75  79  77 107 177 238 247 251 250 250 250 251 250 250 250
 241 240 240 241 242 242 242 240 243 241 159 104 129 129 115 123 135 137 148 162 169 169 171 176 178 181 185 184 175 175 175 176 176 175 176 177 177 175 172 176 180 182 183 180 179 179 177 179 178 172 169 166 168 168 166 167 168 168 167 165 164 160 166 172 172 172 175 172 168 163 138 100  77  75  81  82  81  84  88 100 105 206 252 249 250 250 250 251 250 250 250 250
 240 240 241 242 242 242 241 239 243 245 202 129 134 108 118 115 112 124 144 156 162 170 176 178 179 180 179 176 177 176 174 173 177 175 176 176 175 171 173 173 175 177 174 174 174 174 172 166 165 167 163 162 161 160 160 165 166 168 169 166 164 166 171 172 174 177 174 172 169 156 143 115  85  74  83  84  77  73  88  93 119 220 255 248 249 249 250 251 250 250 250 250
 242 242 242 242 242 242 242 242 242 244 231 147  87  93 106  99  94 121 143 149 156 171 177 176 177 179 176 173 177 174 171 175 178 182 181 179 177 179 178 178 177 176 173 171 172 174 169 165 167 166 163 169 169 166 170 170 170 169 168 164 163 165 168 170 171 170 169 169 165 153 149 128  84  78  91  96  85  64  84 103 136 231 254 249 249 249 249 249 249 249 249 250
 241 243 242 242 242 242 242 243 242 241 247 186  77  85  90  81  80 114 136 148 163 174 178 177 181 181 184 183 182 184 184 179 175 180 183 185 186 187 187 188 189 187 182 173 169 168 171 171 171 170 171 171 169 171 171 173 174 173 173 173 171 172 173 173 176 173 168 167 162 160 157 137  92  79  88  94 102  70  89 131 170 249 250 249 249 249 249 249 249 249 249 249
 240 242 241 242 242 242 242 241 241 242 245 237 133  79  79  83  76 106 134 150 168 177 180 183 182 184 187 186 182 186 186 190 191 191 187 187 185 185 190 192 190 191 189 186 185 182 178 179 175 175 182 180 183 186 189 190 189 187 183 179 178 178 177 175 176 175 175 169 164 167 165 142  99  75  91  99 110  78  90 117 193 255 249 249 249 249 249 249 249 249 249 249
 238 239 239 239 240 241 242 241 242 242 241 244 204 120 113  66  54  80 136 158 172 180 182 183 183 188 188 185 184 184 184 186 185 188 190 190 191 188 185 186 189 191 186 185 186 186 180 174 175 179 187 192 194 193 191 189 188 186 180 180 179 180 180 178 175 174 172 170 165 165 165 146 110  81  90  85 104  90  81 113 227 252 248 249 249 249 249 249 249 249 249 249
 232 233 235 235 237 237 239 239 241 241 241 242 240 183 118  73  62  85 156 174 176 181 183 187 189 191 187 187 191 188 185 180 179 179 183 185 184 186 184 181 180 180 185 182 176 178 175 170 175 180 184 186 187 189 187 183 182 182 179 178 180 185 186 185 180 177 171 171 170 164 164 153 123  93  82  78  96  78  84 146 254 248 247 248 248 249 249 249 249 249 249 249
 224 225 226 228 229 231 232 234 235 237 238 238 242 206 129  85  68  94 166 178 180 183 187 195 194 195 193 193 194 191 187 184 180 179 177 176 177 178 175 180 172 168 172 173 172 166 165 169 171 174 177 179 179 178 177 176 177 179 180 180 182 186 186 186 184 180 176 172 172 166 165 154 129  95  65  83  89  71  93 184 255 248 248 248 248 249 248 248 248 248 248 248
 208 212 213 216 218 221 223 225 228 230 231 234 240 207 125  88  73 103 170 179 179 183 194 200 201 192 180 171 173 176 178 179 175 176 174 172 174 173 167 163 169 170 165 163 161 158 156 160 166 168 172 172 171 172 176 178 176 179 177 180 184 187 186 187 187 184 183 178 175 170 166 156 127  96  83  83  69  83  88 215 253 247 247 248 247 247 247 247 248 248 248 248
 178 185 192 196 200 204 209 212 216 219 222 225 229 216 127  98  69  99 174 184 187 190 197 196 191 179 164 146 139 141 146 152 164 164 162 169 172 169 168 159 163 163 159 156 153 154 156 155 158 161 158 160 166 170 177 182 180 177 174 172 173 174 169 173 180 182 186 187 182 177 172 162 134  99  79  58  73  98 116 223 249 245 247 246 246 246 245 246 246 246 246 246
 153 154 158 162 166 171 178 185 193 201 207 212 217 219 145  92  67  91 179 190 192 194 194 184 169 159 141 126 122 110 105 117 122 116 125 134 145 152 154 152 156 155 152 146 148 149 148 146 146 150 150 152 158 159 164 165 167 167 154 145 140 138 140 148 165 179 187 185 186 186 178 171 154 132  79  42  83 105 116 201 251 246 245 246 246 246 246 245 246 246 246 246
 152 153 154 153 153 154 154 156 160 167 175 183 191 202 171  99  60  84 181 187 188 191 183 166 150 132 110  96  87  73  58  56  56  54  58  64  80 102 116 131 138 143 145 139 141 142 139 140 134 135 142 142 140 135 119 104 108 117 117 106 108 111 117 132 145 157 171 177 179 185 185 175 170 168  92  39  99 105  94 211 251 245 245 245 245 244 245 245 245 245 245 245
 153 153 154 154 155 156 156 155 156 155 156 157 160 164 179 138  59  82 184 188 187 183 166 150 126 105  98  95  91  86  74  59  50  47  45  45  47  55  73  96 117 125 129 128 140 139 136 135 127 129 127 114 101  87  70  57  53  55  50  54  63  79  98 113 132 140 143 160 170 173 182 181 178 185 104  48 112 106 131 239 247 245 245 245 245 246 245 244 245 245 245 245
 153 153 153 154 155 156 157 156 157 158 158 157 157 156 162 148  73  95 183 193 186 172 150 134 118 110 104 108 109 109 107 109 106 102  92  85  76  66  67  77  90 104 111 117 134 139 135 130 119 113 102  87  73  60  55  51  49  49  46  54  60  67  75  79  93 113 123 131 148 157 171 179 182 190 112  66 138 116 176 248 243 243 244 243 244 244 244 244 244 244 244 245
 152 153 152 153 153 155 157 157 158 158 158 158 158 158 157 141  88  96 181 193 178 162 145 131 120 111 108 109 105 110 112 108  98  97  98  95  93  87  75  69  75  88  98 111 123 132 130 125 108  96  86  75  64  60  63  66  71  79  93 100 101  95  84  75  70  79  95 103 121 135 152 175 185 193 112  72 139 138 216 246 242 242 242 242 242 243 243 244 244 244 243 243
 153 153 153 153 153 154 155 156 157 157 157 159 158 157 160 153  82  80 178 189 179 160 141 131 119 105  80  66  56  46  30  19  21  23  33  41  51  61  69  65  66  79  91 103 123 128 128 120 100  84  71  55  52  53  51  48  36  31  41  50  59  73  77  74  75  83  86  94 111 128 151 170 186 191 108  82 137 179 242 242 241 241 241 242 242 242 242 242 242 242 242 242
 152 152 153 153 154 154 155 156 157 158 157 158 157 156 156 168 119  77 172 191 179 162 146 127  97  61  44  45  36  59  20  17  21  24  22  46  53  55  56  54  61  79  95 113 135 143 136 119  94  78  60  44  49  50  38  41  39  18  17   8   8  20  37  41  52  61  79  94 114 129 143 164 186 185  96  82 144 219 243 240 240 240 240 240 240 240 241 241 241 241 241 240
 153 152 153 153 153 153 154 155 156 157 157 157 157 158 156 167 159  90 164 192 178 163 147 120  88  87  86  78  73 108  70  27  30  32  60  91  58  65  78  83  80  92 112 131 154 167 154 125 105  89  69  68  65  48  41  69  88  41  28  26  30  69  61  40  52  52  62  88 106 127 145 162 186 181  76  89 168 241 239 238 239 239 239 240 240 240 240 240 240 240 240 240
 153 153 153 153 152 152 152 154 154 155 157 157 157 157 157 162 178 126 159 193 183 168 149 133 131 141 148 156 142 126 110  83  70  76 100 107  90  82  83 119 125 112 126 154 169 175 164 143 128 113 101  96  77  74  82  89  94  93  83  76  87  97  94  97  99  97  92  96 112 134 143 163 187 177  84 114 198 243 236 237 237 238 238 239 238 238 239 239 239 239 240 240
 151 152 153 152 152 153 153 153 153 153 155 154 156 157 157 159 177 165 165 188 182 177 164 166 181 183 176 166 168 154 133 128 127 126 124 122 117 108 114 105 130 123 143 174 185 185 171 160 143 126 121 109 112 109 109 110 118 115 119 121 122 135 143 145 138 149 147 139 139 149 157 167 188 173 116 143 217 241 237 237 237 237 237 237 238 237 237 238 237 238 238 238
 151 151 152 152 152 152 153 154 153 153 153 154 154 155 156 157 175 195 177 182 185 181 181 181 178 187 187 177 160 152 151 150 146 139 136 124 109 105 103 101 121 136 169 189 195 194 183 177 159 133 127 112 106 105 104 110 121 130 136 146 149 151 144 138 147 157 152 157 162 166 171 173 189 167 138 173 235 238 236 235 236 237 237 237 237 237 237 237 237 237 237 237
 149 150 151 151 151 152 152 153 154 155 155 155 155 155 157 156 173 201 185 181 190 189 183 179 184 171 165 171 168 154 143 134 128 120 114 112 112 113 119 139 141 156 185 192 193 191 190 184 169 149 143 129 116 114 111 109 105 104 108 117 119 119 128 146 153 162 169 165 165 175 177 178 186 179 152 198 239 235 235 235 235 235 235 236 236 236 236 237 237 237 237 237
 149 149 150 150 151 151 152 153 154 154 157 157 158 158 158 158 166 198 191 181 186 185 185 180 166 168 171 161 149 147 142 138 135 133 131 128 130 138 156 161 159 173 191 195 189 189 193 192 174 162 154 154 145 130 123 128 133 134 128 131 135 145 157 168 168 165 176 177 174 172 177 186 186 180 162 221 237 232 234 234 233 233 233 234 234 234 234 235 236 235 235 235
 149 149 150 150 151 151 151 152 155 158 157 158 159 159 159 158 160 193 190 179 182 186 182 180 178 171 165 165 164 160 160 160 157 144 135 138 153 171 172 165 170 181 193 196 193 188 189 193 183 171 163 164 170 157 139 129 132 147 154 158 159 163 170 174 172 167 167 173 178 176 174 186 183 169 194 231 233 234 234 234 233 233 234 233 234 234 234 234 235 234 234 234
 148 149 149 150 150 150 151 151 153 157 159 159 159 160 160 158 159 188 198 180 182 186 192 193 189 178 174 168 161 155 150 149 145 142 148 162 176 178 174 172 176 185 193 194 193 192 191 193 186 172 167 165 170 178 170 151 132 137 148 149 152 158 164 166 175 180 179 177 178 176 170 179 169 164 212 228 228 231 233 233 232 234 233 234 234 234 234 234 234 234 234 234
 148 148 150 151 150 150 150 149 151 154 157 158 158 159 160 161 160 175 194 182 179 185 187 185 190 184 176 167 160 152 152 152 148 156 166 175 172 172 174 173 175 184 192 195 193 191 192 192 184 171 162 162 163 171 181 178 159 146 146 150 154 161 163 171 174 174 176 180 175 167 164 174 163 187 215 218 221 225 228 230 232 233 233 233 233 233 234 234 234 234 234 234
 147 149 150 149 150 149 149 149 150 151 153 155 156 158 159 161 161 164 173 182 179 175 174 173 169 170 173 170 161 154 158 158 160 165 169 171 171 172 173 169 173 179 186 193 195 193 195 188 179 169 159 158 165 166 170 183 183 171 163 157 157 160 164 169 171 174 175 171 168 158 157 168 174 191 197 205 211 217 220 225 227 229 231 232 233 233 233 233 233 234 234 234
 149 149 150 149 149 151 149 148 150 149 150 152 153 155 157 158 160 159 166 184 180 168 163 166 162 159 163 166 168 171 168 170 174 174 174 173 171 170 173 171 170 175 178 190 195 197 198 186 170 161 155 159 161 166 166 171 182 183 181 172 162 162 166 166 165 166 164 156 152 146 155 169 179 178 173 182 193 203 210 216 220 222 225 229 231 233 233 233 232 233 233 233
 151 151 152 151 151 150 150 150 149 148 149 149 150 151 154 156 157 161 151 179 176 172 170 169 171 171 170 174 176 180 180 182 181 178 174 170 169 171 174 176 176 176 179 187 196 198 195 186 174 166 158 159 163 170 171 171 171 179 182 178 174 167 168 163 157 152 148 142 138 142 155 173 177 170 168 169 172 180 192 202 209 214 219 221 225 228 230 232 232 233 232 233
 153 154 154 155 154 153 152 152 150 149 149 149 149 150 151 153 157 139  87 168 179 180 183 178 182 182 183 184 183 187 186 185 181 174 170 170 168 170 173 182 185 182 187 191 199 198 195 186 182 172 163 165 167 166 170 175 177 177 180 181 182 177 173 169 164 154 144 137 133 141 155 176 171 169 169 169 168 169 170 179 189 199 206 212 217 221 225 228 230 231 232 233
 152 154 156 155 155 156 155 153 152 151 150 150 148 149 149 152 152  90  42 161 183 179 185 188 185 184 184 183 184 189 185 183 177 170 168 163 153 144 150 173 186 190 195 193 193 196 197 192 187 176 164 160 159 162 168 174 179 180 177 182 182 182 179 174 170 163 153 143 140 145 156 175 170 169 169 169 168 169 168 168 170 175 185 195 204 212 216 221 223 228 230 231
 151 152 154 154 154 155 155 154 154 153 152 151 150 150 149 153 131  60  35 153 187 177 180 185 184 182 179 180 183 182 177 176 173 167 156 141 131 123 152 172 181 190 198 196 196 199 200 197 191 174 159 153 140 144 158 167 177 179 179 181 180 178 176 175 171 165 159 155 148 147 158 172 170 168 168 168 168 168 169 169 168 167 169 173 184 195 205 213 217 221 224 227
 150 150 152 152 152 154 153 152 153 153 152 152 151 150 150 151  99  50  32 140 189 178 176 178 177 176 176 175 175 174 170 167 163 156 140 124 113 130 177 188 182 183 191 196 199 198 193 190 188 173 167 171 144 118 134 152 164 168 171 170 174 173 170 169 168 166 164 161 151 150 161 170 168 167 168 169 168 169 169 169 168 168 167 167 169 174 185 197 205 212 218 222
 148 149 150 151 151 151 151 152 152 152 151 151 149 149 150 143  77  47  23 121 189 178 171 170 167 168 167 167 167 164 160 155 147 136 117 101  98 125 194 203 194 185 191 195 197 199 198 194 192 180 187 194 150  96 100 120 142 153 158 162 163 161 161 157 156 160 160 159 154 154 158 171 168 167 168 169 169 169 169 169 169 168 168 167 168 168 170 176 187 198 208 213
 147 147 147 148 150 151 151 152 151 152 153 152 150 150 152 134  68  50  16 100 190 172 164 158 158 159 156 157 156 151 144 140 131 114  94  96 108 147 207 207 202 192 196 194 196 202 204 203 194 184 193 203 167 100  91  91 115 127 144 153 155 148 145 140 141 144 150 154 161 154 160 172 169 169 169 169 169 170 170 171 171 169 169 168 168 168 168 169 171 177 188 199
 152 151 150 150 149 149 150 151 153 153 153 152 153 151 154 124  63  46  14  76 188 168 153 147 155 152 150 145 142 137 130 124 115  99  97 120 135 150 166 189 198 199 201 200 200 200 200 201 194 183 188 197 171 116 103  84  91 110 127 137 138 137 137 135 129 129 139 146 156 154 161 172 172 170 170 170 170 170 170 171 171 172 171 169 169 169 169 168 169 169 171 178
 156 156 155 155 154 152 152 152 153 153 154 154 154 154 157 106  57  41  11  50 180 171 150 140 145 144 140 134 131 126 116 107  96  96 117 137 148 148 104 104 169 190 194 195 193 187 179 177 181 174 164 131 130 130 123 101  78  91 108 119 121 124 127 126 122 118 123 138 152 149 165 174 172 172 172 170 169 169 169 169 171 172 170 170 170 169 169 169 170 169 168 170
 158 157 157 156 157 156 156 155 155 156 157 157 157 160 150  82  50  37  11  24 165 174 157 145 144 136 132 128 121 114 100  92  96 117 143 160 164 158 144  99  90 140 163 165 159 156 155 147 138 121  86  94 128 140 139 127 100  85  95 103 112 121 123 123 116 111 119 135 151 147 168 173 172 172 172 171 170 170 169 169 171 171 171 171 171 170 170 170 169 168 168 168
 159 159 158 157 157 158 158 158 158 159 159 159 161 160 112  67  48  30  14   5 142 177 158 148 147 142 130 117 109  98  84 101 126 141 158 171 171 164 156 145 114 105 116 117 111 111 111 100  83  69  97 138 143 153 154 147 134 102  84  94 104 112 123 130 127 126 128 138 146 146 171 171 171 171 171 171 170 169 168 169 169 171 172 171 170 169 170 170 170 170 169 168
 159 159 159 159 159 159 159 159 159 160 160 161 165 121  78  66  47  36  16   0  99 178 159 148 149 145 140 122  93  83 107 135 146 152 163 168 172 171 164 151 138 120 100  82  72  68  70  75  86 104 132 147 155 159 161 153 143 135 102  88 101 118 129 136 133 133 132 140 142 152 172 170 170 170 170 169 169 168 168 169 169 170 170 170 170 170 170 170 169 170 170 169
 157 157 158 159 160 161 161 160 161 162 161 166 142  77  68  59  44  25  14   0  60 170 163 146 147 151 144 118 104 117 137 148 154 155 162 168 171 168 161 152 146 133 104  81  71  67  68  82 111 132 143 153 159 164 162 151 146 144 135 102 101 116 129 139 143 133 129 142 145 162 171 170 169 169 168 167 167 167 166 167 167 167 168 169 168 168 170 170 169 169 170 169
 157 157 156 158 158 160 161 162 162 163 167 156  92  64  70  55  39  25   7   0  50 152 164 153 145 151 145 128 130 138 145 149 155 159 165 171 169 169 158 155 155 138 114  91  82  86  91 104 125 141 145 153 158 159 159 155 149 142 143 133 112 122 136 140 141 129 130 145 146 168 170 167 167 167 167 167 166 166 166 166 166 166 166 166 167 167 168 169 169 169 169 169
 158 156 156 156 158 158 159 159 161 167 156 101  65  62  70  50  34  26  14   1  47 136 159 155 142 142 141 136 139 141 147 143 134 129 140 154 159 162 155 153 141 125 113  97  92  91 100 114 123 140 145 152 155 157 154 149 149 149 143 145 122 126 134 132 131 127 134 143 156 170 166 166 166 165 165 165 165 166 167 166 166 165 165 166 165 166 167 167 168 168 168 168
 155 156 157 157 157 158 160 158 165 152 100  71  64  66  71  50  38  26  16   0  47 123 150 152 141 142 140 139 146 138 126 107  94  89 103 125 136 144 145 144 134 115 103  96  93  90  92 112 121 133 147 149 154 146 131 125 133 139 142 141 130 134 137 131 129 130 139 125 107 161 166 164 163 162 162 162 162 164 162 164 165 165 165 165 166 166 167 167 166 167 168 168
 153 154 156 155 156 157 158 163 146  92  69  67  57  64  66  44  34  25  13   4  47 112 143 147 134 133 138 140 149 138 112  93  80  63  68 114 130 129 133 132 125 118 116 107 103 107 111 119 121 127 130 131 134 120 111 112 116 125 138 135 136 141 143 133 127 130 142  82  43 129 167 162 161 160 160 160 160 160 159 161 162 163 163 164 164 164 165 166 165 166 166 166
 151 153 155 155 156 158 161 143  87  64  67  64  50  63  62  43  34  22  11   7  41 100 132 143 137 131 139 141 144 139 125 121 117 103  97 102 103 117 129 132 130 134 138 141 138 139 145 145 139 137 127 131 129 126  95  69  84  98 109 129 141 144 137 128 123 136 114  26  32  80 154 164 160 159 158 157 157 158 159 159 160 160 161 162 162 162 162 162 163 164 164 165
 150 153 154 154 159 157 133  81  59  63  66  64  55  67  58  38  34  17   6   5  38  91 122 135 138 130 136 144 147 144 131 127 128 128 140 138 109  78  57  67  83 100 107 116 127 138 131 131 122 112 103  90  77  74  71  75  86  99 112 133 142 141 137 129 127 134  41  12  33  46 115 166 162 160 159 157 157 156 156 158 158 159 159 160 160 160 160 160 160 161 162 162
 148 150 153 159 142 103  75  59  57  60  64  62  56  64  54  41  30  16   8   5  33  83 111 128 137 131 132 145 149 143 129 129 139 148 152 148 151 135  88  32  13  15  41  51  65  73  61  48  31  21  21  34  66 110 128 116 112 117 125 139 142 136 134 128 137  81   0  16  30  37  71 155 169 164 162 160 159 157 157 157 157 158 157 158 159 159 159 158 157 158 159 159
 148 151 155 127  86  71  60  60  64  61  61  55  55  66  45  37  22  17   7   4  31  76 102 121 127 134 131 140 147 140 133 133 141 153 154 149 147 154 158 130  80  42  31  22  17  15  13  13  19  44  81 121 139 134 130 134 131 129 136 139 138 136 129 126 113  16   1  15  29  42  46 119 172 167 164 163 162 161 160 160 160 160 160 159 158 158 158 158 158 158 158 158
 150 152 117  68  70  69  58  60  61  59  60  53  59  66  49  32  22  18   8   3  30  74  95 113 115 130 134 133 143 143 137 139 149 154 154 148 145 146 151 160 154 131 114  96  80  77  84  90 105 128 139 138 129 127 137 142 135 130 132 135 132 129 126 131  47   0   7  16  29  37  37  83 166 169 166 165 164 164 163 162 162 163 163 163 162 161 160 159 159 159 160 159
 152 122  69  63  65  58  53  52  52  61  60  50  56  63  46  29  22  18   6   2  24  70  94 103 111 114 130 134 143 147 135 135 143 148 148 147 139 139 152 156 150 154 157 155 152 151 149 146 145 138 131 118 118 133 140 137 134 136 131 127 126 124 127  92   2   1   5  20  26  29  34  50 139 173 167 166 165 164 163 164 163 163 162 163 163 163 163 163 162 163 164 164
 103  73  63  72  58  58  50  50  52  59  55  48  53  50  39  31  27  14   7   1  20  63  95  99 111 104 117 132 139 146 143 137 137 141 142 142 135 125 142 149 131 131 130 136 135 129 124 122 122 121 109 105 120 135 138 136 137 136 131 121 117 122 119  23   0   2   7  16  26  36  39  44 108 174 167 166 165 166 163 164 163 163 163 163 163 163 164 163 165 166 166 167
  72  59  65  65  54  56  53  50  53  55  51  47  51  51  39  26  25  14   9   4  14  61  93 101 105 105 102 123 137 149 143 139 144 148 147 136 133 122 107  97  91  93  80  79  85  82  87  91 100  99  90 106 124 128 128 140 137 129 129 137 128 123  58   0   2   2   9  15  24  34  42  45  76 156 170 166 165 164 163 163 162 163 164 163 162 164 165 164 166 167 167 168
  59  57  66  58  51  50  48  48  49  54  53  46  51  59  37  24  18   9  10   7   7  52  84 103 101 102  97 105 128 141 137 139 147 151 149 139 131 125 111  87  69  64  58  58  57  56  57  62  69  81 101 116 121 125 134 142 137 134 133 137 136  95   4   2   3   2  10  14  21  29  40  43  46 116 172 167 166 164 163 162 161 161 162 164 163 164 164 164 165 166 167 167
  50  59  63  54  50  47  45  44  45  54  51  46  53  49  32  24  13  11  10   8   4  41  79 104 101 107 100  96 108 128 133 132 139 155 157 148 138 131 124 110  85  72  67  68  69  68  64  70  83  99 114 120 126 143 151 143 136 133 129 127 115  20   0   4   4   4  10  13  21  29  35  40  43  75 160 172 167 166 162 162 161 161 161 163 163 164 165 165 165 166 166 166
  47  60  54  47  44  45  44  45  45  47  47  48  50  41  31  19  12   9   9   9   6  20  74  92 106 101 107  93  94 108 119 126 143 154 163 167 156 146 142 128 111  95  87  82  79  80  84  93 106 118 129 136 145 158 153 144 137 124 127 119  36   0   1   2   3   1   8  15  21  23  24  38  43  50 127 176 170 167 165 164 163 162 162 162 163 164 164 164 164 164 165 164
  42  56  49  45  46  40  43  46  46  48  45  46  58  40  24  10  10   9   9  11   9   7  59  88 107  99 105 103  85  89 105 120 146 156 157 168 172 176 172 164 158 149 137 128 126 123 126 139 148 150 156 160 167 162 154 147 134 119 120  64   0   0   1   3   2   6  14  14  14  20  26  37  47  50  87 142 160 168 169 167 165 163 163 163 163 163 163 164 164 164 164 164
  42  51  45  40  41  42  41  43  48  49  48  54  51  33  19  10   7   8   8  11  10   5  33  87  98 106  95 106  97  82  88 109 134 154 155 162 176 184 179 181 179 172 167 163 161 163 167 171 175 173 171 175 168 157 149 141 128 108  61  19   7   0   0   2   2   8  11   5  12  19  22  27  38  53  68  91  96 124 151 166 168 167 165 164 164 164 163 164 164 163 164 163
  47  48  44  43  46  43  39  45  50  48  47  60  52  32  16  10   9  10  10  11  14  11  10  72  89 107 102  98 103  91  77  86 122 147 153 160 167 173 173 182 182 175 172 169 170 172 173 173 170 171 175 174 161 148 141 131 112  79   6  14   9   0   0   1   5   6   5  12  16  20  20  26  47  55  58  78  69  69  86 117 144 161 169 167 166 165 165 164 164 163 164 163
  46  43  40  39  41  39  42  45  43  46  47  57  40  26  14   7   8   9   9  12  14  12   5  41  85  91 107  93  99 101  90  72  85 126 144 147 152 162 170 170 169 168 166 165 167 164 161 161 167 169 170 166 151 136 129 112 111  75   3  20  13   0   0   2   4   6  13  13  13  20  21  38  55  56  48  73  71  59  61  68  86 110 135 160 168 169 167 165 164 163 163 162
  42  43  39  38  42  41  44  45  44  45  53  57  33  23  13   9   8   9   8  10  12  14   8  12  73  78  97  99  88  99  96  84  71  90 126 129 139 144 152 153 158 155 149 156 155 150 149 156 162 164 158 148 131 119 110 107 125  69   6  31  13   0   0   4   3  10  13   8  11  15  23  37  45  55  61  76  68  62  58  58  63  72  83 104 132 156 168 169 166 164 163 162
  41  36  37  40  37  40  40  46  47  45  57  49  28  20  15   9   7   8   8   8  11  10  10   1  34  78  77 105  96  88  98  92  81  71  81 102 115 121 129 130 133 131 133 138 137 144 146 146 151 146 133 116 100  93 105 123 125  62   4  28  14   0   0   3   5   6   6   7   7  13  20  23  31  37  53  82  85  63  60  54  55  59  69  74  82 101 129 155 167 167 165 164
  39  35  36  43  38  44  42  44  44  49  64  46  26  15  11  10   9   9   9   8  10  14  13   5   7  54  72  86 108  94  90  97  89  77  67  70  76  92 100  99  96 102 109 107 120 130 134 127 117 105  86  77  81 102 123 124 120  55   2  18  15   0   0   0   3   1   5   6   6  12  13  15  17  18  28  50  83  78  57  60  51  53  57  62  68  76  84 101 130 158 168 166
  34  36  38  37  38  39  42  42  44  49  61  36  21  16   9  12  12  10   7   8  10  14  17  11   5  16  64  72  95 111  97  89  92  87  78  70  65  63  68  76  75  76  76  83  84  86  88  80  66  57  60  81 105 121 124 121 112  44   6  26  16   7  24  37  38  35  31  31  42  55  55  55  56  58  63  64  72  89  56  57  55  52  52  52  57  68  73  77  82 109 144 163
  34  37  37  38  39  39  42  44  41  54  51  29  19  15  10  10  11  13   9  11  11  13  18  15  20   9  25  67  80 104 110  99  89  91  87  77  73  70  60  54  55  63  64  57  49  47  48  48  59  76  94 106 116 127 123 122 102  29  16  29  19  29  40  50  55  59  59  53  47  46  45  45  41  49  47  43  38  69  62  51  57  47  50  52  54  58  61  68  73  79  91 124
  32  34  35  40  39  38  38  40  42  62  43  25  16  12  12  12  12  14  15  12  10  12  16  18  27  20   4  33  74  85 104 112 102  91  92  90  80  74  73  68  63  59  57  55  57  59  64  74  84  94 102 109 122 127 126 127  94  22  15  43  64  16  14  30  39  35  36  28  17  12  12  14  12  14  13  13  14  51  59  50  53  47  45  49  49  49  54  61  63  71  75  78
  34  33  36  37  38  43  40  40  44  51  32  21  18  14  14  14  15  17  14  13  11  11  17  17  21  20   6   9  50  87  95 109 113 106  97  93  93  87  78  75  73  72  71  70  70  75  77  86  93  99 106 117 128 127 132 132  83  15   2 103 167  34   4  17  36  32  26  22  15  14  13  12   7   9   9   8  24  67  58  51  50  56  43  41  45  45  47  54  57  59  67  71
