P2
# Generated by OpenCV 4.2.0
92 112
255
 119 124 126 129 134 142 149 156 162 165 170 174 175 177 180 183 188 190 194 199 201 206 212 210 162 131 124  63  75 126 145 144 181 137 126 141 129 154 143 124 110 132 112 130 120 144 152 144 150 168 183 158 149 130 135  87  57 133  91  31  75  73 157 171 174 165 151 166 169 169 173 174 174 172 172 172 172 172 172 172 172 172 172 172 172 172 172 172 172 172 172 172
 118 123 125 128 134 142 150 157 165 169 174 176 179 179 182 187 193 195 196 202 207 214 177 154 160 144 111 109 127 148 141 152 109 134 143 139 142 118 102 112 139 129 141 153 118 116 117 117 137 137 109 126 134 134 118  91 127 135 148 119 110  88  43 128 159 147 166 158 161 160 152 161 168 172 173 173 172 172 172 172 172 172 172 172 172 172 172 172 172 172 172 172
 118 120 124 130 135 143 153 159 164 172 175 178 180 180 187 191 196 198 201 206 214 199 165 190 160 119 131 122 140 153 134 112 114 123 135 139 136 138 137 119 141 128 124 126 124 112 106 126 152 139  93  89  99 108 114 106 102 116 122 134 118 110 100  94  99  96 102  90  91 132 166 155 151 158 164 169 172 173 173 173 172 172 172 172 172 172 172 172 172 172 172 172
 120 122 124 128 136 144 154 159 166 173 177 179 181 183 189 195 199 204 202 206 210 173 190 191 138 138 141 140 151 141 138 126 149 133 132 139 131 146 133 122 118  96 101 130 134 151 177 177 156 117 117 112 125 103 139 152 113  71  60  75  78  89 107  81  83  75  54  31  28  45 109 156 156 150 157 162 162 161 165 168 172 171 172 172 172 172 172 172 172 172 172 172
 119 120 122 130 140 145 152 156 164 171 176 177 180 187 192 195 199 210 219 225 196 192 201 191 147 105  99 155 181 180 179 167 150 128 118 106 118 117 108 115 116 126 135 134 128 137 129 118  96  75  84  93 134 132 107 133 153 126  67  50  37  46  65  80  97 103  89  73  41  37  51  58 126 171 164 159 151 150 156 162 172 174 172 172 172 172 173 172 172 172 172 172
 120 123 124 130 139 143 148 154 159 165 171 176 180 187 191 201 215 212 217 225 237 237 213 191 149 176 128 127 102 122 153 126 118 119  72  74  94  71  70  69  90  77  75  96  95 111 125 147 133 121 108 103 113 125  78  55  81  94  45  36  37  46  48  41  32  43  90 136 126  67  96 104  67  90 145 162 164 155 153 158 162 169 173 173 172 172 172 172 172 172 172 172
 126 128 130 130 136 140 146 152 155 162 167 172 176 182 195 218 225 226 222 237 229 213 188 135 157 172 131 160 214 122 143 147 134 137 116 146 160 151 125 135 139 120 122 111 112 144 139 137 130 132 162 157 160 134 121  97  96  94  44  41  47  44  51  41  43  34  23  51 105 141 103  84 130  71  45 151 156 154 161 149 151 156 164 167 169 172 172 172 172 172 172 172
 126 127 131 132 134 140 144 149 154 158 163 170 173 185 211 203 216 221 229 226 209 207 177 153 184 157 142 146 159 185 196 185 183 173 153 117 140 161 153 140 141 137 146 124  89  81  45  55  97 129 109 106 117 122 116  95  94  92  89 104  79  58  55  61  76  90  76  49  30  57  87  53  76 133  81 111 167 137 148 152 149 155 159 163 169 171 172 173 173 172 171 170
 125 126 129 133 136 140 142 146 152 155 158 161 186 209 221 224 226 220 221 221 220 202 184 178 190 170 170 146 103 126 146 152 151 153 149 131 109 124 132 128 114 101 111 101  92  86  83  86  95  98  74  61  67  74  72  78  50  40  56  77  79  50  37  47  61  54  56  63  54  48  80  71  32  48 112 132 150 167 138 149 149 151 155 162 168 170 171 173 174 172 169 169
 122 125 126 131 133 136 144 148 150 152 153 170 226 228 208 208 206 224 211 215 181 173 184 184 174 182 126 140 145 148 132 135 104  95  89  93 123 122 105 106 100  89 109 109 117 109 120 131 110  83  60  44  72  95  60  47  64  63  17  15  35  43  43  36  45  41  31  16  33  60  60  72  66  47  44 108 130 145 153 140 147 148 155 160 165 170 172 173 172 171 171 169
 120 124 125 126 127 134 140 143 146 149 148 192 214 195 199 213 229 227 203 187 192 200 205 143 167 176 125 173 165 161 141 159 157 128 146 152 142 127 119 107 105 136 144 141 104 105 148  91  66  75  87  81  69  46  50  66  62 109  95  63  38  16  19  25  27  29  28  30  18  26  58  65  66  51  30  49 103 124 143 137 148 149 154 159 166 170 174 174 173 170 168 168
 115 121 122 121 123 130 134 140 143 143 159 196 160 189 203 206 200 177 188 210 227 207 190 161 189 188 141 164 166 153 144 142 165 151 151 122  97 112 119 144 145 114  87  87 107 119  85  77  91  94  70  71  67  77  75 103 113  75 113 115  64  51  34  35  28  37  38  33  24  16  17  58  55  41  36  26  61 118 109 138 140 148 154 158 164 169 174 174 174 171 168 167
 117 120 119 117 118 123 130 136 139 141 160 169 167 177 204 197 169 178 207 192 207 223 183 186 185 178 176 168 164 135 160 133 119 126 110  64 104 122 149 102  86  80 105  98  88  82  71  53  74  88  67  86  75  78  77  85  78  73  77 116  98  75  49  27  28  23  28  34  33  17  15  22  76  71  48  27  27 109  83 109 158 141 151 158 163 169 173 174 172 171 167 164
 114 117 116 117 117 121 126 128 136 126 146 204 198 215 219 191 195 197 164 168 207 211 204 172 162 187 158 138 145 122 115 104 112  83  75 124 151 165 151 110 117 103  92  66  74  94  71  62  77 115 102 105  67  46  56  61  44  54  51  45  63  63  72  48  29  19  35  47  33  22  17  12  40  80  76  30  33  67  99  93 147 140 148 155 161 167 171 172 169 168 167 161
 113 113 112 116 115 118 122 124 124 122 192 221 226 199 171 176 173 156 182 186 198 197 192 154 158 192 173 143 118 116  85  85  95  87 176 183 175 171 138 107  99  70  97 126 107  70  82  82  89  68  91 108 108  87  68  78  55  50  32  23  24  24  33  66  61  46  37  34  22  18  17  25  12  25  81  46  29  50  79  72 123 141 142 150 154 159 163 162 162 163 163 160
 113 113 112 111 112 116 118 119 138 192 214 193 130  79 158 182 166 182 200 190 203 170 154 160 167 192 194 153 142 118  93 122 113 187 193 191 173 128 105 100 120 114 102  86 106 109  94  99  86  60  61  80  96  72  61  59  47  48  58  75  60  36  37  42  36  87  55  21  18  12  13  20  17  11  53  55  13  36  50 103 134 130 134 140 144 148 151 151 154 155 155 154
 106 108 111 111 114 116 116 124 191 190 132 148 110 170 211 174 178 212 178 194 180 157 151 172 169 133 174 153 137 108 142 183 184 200 195 190 155 110  79  92 100 133 118  93  86  79  93  92  75  94 109 108  73  64  72  61  49  72  69  51  63  72  69  43  68  88  50  24  27  19  18  14  15  16  28  74  46  17  60 118 142 141 123 133 135 136 137 141 144 146 149 148
 103 105 108 110 111 111 112 128 204 150 156 194 170 209 203 170 207 154 158 159 131 155 138 174 202 150 142 141 151 180 224 206 174 144 129 124 127 122 139 148 127 121 116  99  99  85  59  68 108  95  69  64  95 102  87 102  85  63  48  40  43  71  38  30  50  37  50  46  33  37  25  16  14  11  12  51  62  51  45  28 103 157 139 127 126 126 128 136 141 146 147 140
 100 103 105 105 105 108 107 136 196 150 183 214 203 200 155 183 129 107 161 118 137 139 124 130 159 183 188 175 204 227 201 119  81  81  87  90 103 105  94  95  98  91  96 136 125 102  98 110 102  83  71  65  74  92  92  87  72  58  40  34  35  39  23  34  41  26  65  78  71  56  27  67  40  16  10  31  35  46  38  48  73 108  98 105 115 124 132 139 143 147 145 138
  97 101 104 101 107 108 102 144 148 134 196 193 177 134 177 128  73 128 107 113 127 122 141 117 146 173 192 167 182 168 103  49  48  41  32  26  35  42  48  70  66  56  91 103 107 123 139 138 125 110 103  99 102  98  75  55  54  87  72  59  35  22  52  68  39  35  46  50  48  62  58 105  90  40   8  13  42  47  65  51 103 119 114 101 110 120 132 140 144 145 141 136
  95  98  99  99 113 106 104 163 131 144 174 165 130 163 135  99 125  98  82  97  90 120 124 148 174 164 137 128 139  72  31  24  28  26  19  20  27  41  41  33  24  20  25  40  58  86 100  87  86  96 112 106 111  93  71  77  80  78  93  94  50  56  71  57  52  50  43  38  40  51  53  78  81  46   9  21  38  46  66 100 135  91 116 101 111 120 128 133 138 139 139 136
  93  96  96 100 114  98 111 156 112 121 161 131 165 139  89 107 100  67  81  92  96 108 116 136 160 168 117 104  74  24  25  31  32  33  29  32  29  31  24  19  19  25  33  50  56  71  83  65  56  49  30  32  32  35  31  31  30  35  52  69  85  82  44  59  26  36  62  53  32  25  31  46  33  45  33  29  52  74  65  85  97 106 127  78  96 111 119 127 130 130 132 134
  90  93  97  99 101  94  96 130 135 139 151 152 121  57  80  78  60  56  76  85  77 108 124 149 152 140 115 111  57  46  31  36  33  31  30  27  25  27  18  21  21  22  32  30  25  28  21  14  12  13  14  16  15  22  46  69  60  36  36  42  54  50  65  81  44  37 114  64  21  18  17  23  22  42  74  43  22  78  84  74  47 124 140  89  79  94 107 118 126 126 127 131
  90  95  97  93  96  91  97 122 150 169 135 110  63  33  69  64  41  64  77  82  90 104 148 167 148 128  99  86 106  89  63  52  55  42  37  31  32  29  23  22  21  22  22  25  22  21  16  18  18  16  15  14  20  21  26  32  36  28  26  20  17  34  53  53  50  61  81  81  89  43  29  23  42  61  65  51  25  25  45  49  57  88 141 170 114  99 102 116 125 129 131 134
  90  93  94  92 100 100 116 155 160 158 133  63  35  27  63  56  44  53  57  64  95 120 174 144 155 164 123  80 159 139 115  80  67  50  37  38  40  36  33  27  26  23  24  28  21  18  16  19  17  18  18  16  16  17  15  13  23  26  15  16  19  30  31  28  32  35  50  81  99  50  37  25  43  66  75  67  34  28  32  33  44  57  56 111 185 143 101 122 127 131 135 135
  91  90  91  90  85  78  96 123 150 158 113  36  26  39  55  81  42  45  53  66 106 165 144 145 175 198 193 154 169 150 132 120 100  80  58  49  51  46  42  39  27  30  29  27  27  25  22  18  17  20  18  17  17  16  17  19  22  33  20  13  11  19  30  39  40  38  52  80  78  47  47  62  50  49  93  51  24  59  64  48  44  66 124 143 199 131 112 132 140 143 141 137
  89  88  87  87  86  79 104 134 149 107  88  25  25  39  50  89  64  60  52  76 132 165 148 172 181 196 215 197 182 168 149 135 119 100  90  86  84  68  55  54  47  36  28  29  34  35  34  29  25  22  21  21  18  16  14  14  19  20  22  17  15  11   7  14  44  45  44  57  43  68  62  82  48  51  91  29  21  68  98  98  50  56 119 174 174 117 120 137 150 155 151 149
  88  85  85  86  85  76 100 151 149 138  66  21  31  52  53  67 101  70  73 104 149 158 186 186 193 211 216 201 190 181 160 142 133 116 113 116 110 107  91  71  63  50  50  42  41  44  44  40  33  30  27  28  28  26  25  24  35  42  19  16  15  16  13   7  14  35  43  37  35  84  60  66  48  74  80  29  29  64  68  94  84  54  76 140 163 134 125 137 152 160 164 161
  86  82  83  84  81  82 118 151 146 145  54  21  34  70 100 127  97  65  77 124 146 131 180 192 207 213 210 204 198 179 162 154 143 136 137 141 137 125 108 100  94  84  81  68  68  65  63  61  50  48  43  40  43  41  38  34  27  39  24  17  19  22  20  15   9  14  46  44  17  61  61  47  62  68  66  39  41  40  36  68  71  48  68 105 191 149 136 136 151 163 170 167
  79  81  80  80  78  98 135 170 131 141  50  77  77  92 153 145  65  70 121 161 131 138 157 175 202 210 215 207 195 179 171 166 156 163 152 155 157 146 141 123 115 115 101  96 106  99  95  83  77  66  65  60  60  54  46  46  39  36  30  24  19  28  26  21  16  11  11  38  46  28  66  65  49  55  60  35  33  36  29  58  61  52  93  83 173 150 127 134 149 162 170 173
  80  80  80  80  79  81 137 177 171 132  93 137 161 196 162  92  72  87 149 140 154 169 169 187 206 216 222 206 200 191 185 178 167 166 163 161 165 155 153 151 137 124 124 130 124 113 107  95  90  86  81  71  67  66  59  55  54  45  32  27  21  31  30  26  20  14  12  13  38  49  44  55  86  58  32  36  41  40  30  40  37  51 110 107 156 161 123 136 152 164 171 175
  81  82  82  79  77  74 129 200 200 143 161 161 203 201 137 106  91 110 148 129 151 184 190 196 209 215 215 198 195 190 186 188 177 166 166 175 176 158 152 157 156 152 143 143 137 127 121 112  97  96  91  85  79  76  73  63  51  45  40  39  23  27  35  31  25  17  15  12  20  25  31  43  83  48  36  29  49  60  43  40  39  75 104  79 146 145 133 144 155 168 171 173
  84  86  82  82  79  85 160 223 185 175 190 210 218 173 152 125 131 172 147 146 160 177 184 198 211 211 208 202 195 188 190 184 183 180 171 173 176 165 153 153 157 151 139 139 138 134 134 122 113 107 100  95  94  96  85  80  57  59  59  43  31  32  41  36  34  23  17  14  14  13  23  32  32  46  31  26  48  53  42  30  39  56  80 112 166 177 149 145 150 166 169 166
  87  88  88  88  85  96 118 168 177 201 232 244 215 177 161 165 179 158 139 129 156 183 211 208 206 207 210 208 200 196 189 182 177 177 177 169 168 164 162 161 161 162 156 147 141 142 139 126 119 119 111 101 103 105  99  90  82  76  66  50  41  40  47  40  37  30  20  16  11   8  10  29  41  35  16  27  50  29  12  16  27  42  74 160 173 138 125 135 145 156 162 157
  90  93  95  93  93  86 117 196 192 210 238 213 168 182 189 200 163 125 124 145 185 212 215 204 201 202 202 199 197 197 194 186 181 181 185 183 174 175 173 174 169 164 162 153 146 147 141 132 126 122 115 112 113 113 106  97  88  78  74  57  52  50  51  44  43  36  26  18  14  11   7  11  24  24  21  34  49  12  13  27  37  58  96 149 149 103 128 137 133 143 147 145
  95  96  98  96  96  90 119 165 194 217 220 176 166 201 211 182 150 140 166 190 202 209 202 189 191 193 196 201 207 201 197 189 180 182 188 181 173 175 179 174 171 171 167 156 157 153 150 142 138 137 129 120 124 119 109 101  96  87  75  70  67  61  55  48  45  40  32  21  13  13  10   9  15  20  30  46  36  19  23  43  58  78 118 175 143 107 114 129 129 132 132 133
  98  99 100 101 100  96 105 137 180 229 190 167 188 200 196 149 131 160 200 197 196 192 190 188 191 187 194 202 205 202 197 193 181 184 184 177 177 173 177 171 168 163 159 157 153 150 146 142 141 133 131 125 129 121 113 108 109 100  85  80  76  68  61  54  53  44  38  33  24  16  12  13  15  25  50  68  30  34  29  46  77  85 144 185 113 101 119 126 127 126 123 121
 103 104 105 105 103 100 110 141 141 220 186 170 201 198 170 156 165 174 175 176 185 186 192 200 195 189 186 198 200 195 194 195 188 184 187 183 180 178 170 158 160 159 159 150 150 147 145 147 139 133 135 133 135 123 117 115 111 103  94  86  81  72  65  56  59  51  42  40  36  32  26  26  36  55  81  79  30  35  27  34  75  90 159 206 129 105 116 122 126 126 120 114
 104 105 108 107 105 116 126 130 139 208 209 160 190 166 182 183 184 158 151 169 176 197 201 202 206 188 184 184 183 189 190 189 184 180 177 174 169 165 167 163 162 160 152 144 143 135 139 138 133 126 129 134 131 119 116 111 108 106  97  88  86  75  66  61  61  56  50  47  43  40  38  38  45  58  93  87  31  23  32  35  43  91 156 197 129 109 117 120 124 122 117 110
 104 108 112 112 111 113 113 123 148 195 214 177 167 181 206 166 166 163 171 180 185 192 197 197 187 186 185 180 184 187 190 197 203 195 187 187 189 188 182 176 166 161 157 150 143 143 134 127 123 115 119 121 111 105 104  97  92  86  80  76  71  67  61  57  56  55  54  46  45  47  46  46  47  53  99  88  37  28  39  64  68 105 169 190 127 114 119 120 119 116 108 100
 108 110 113 114 115 114 113 118 160 169 184 192 159 211 195 167 178 175 172 175 184 186 183 184 186 193 199 191 191 185 190 197 197 191 185 190 189 193 195 195 195 192 189 187 180 178 171 169 158 148 154 148 140 139 135 123 112 102  93  91  82  76  68  67  67  63  60  55  58  58  53  50  51  67  92  74  44  41  38  53  88 111 172 161 104 122 124 121 117 110 100  90
 111 111 114 117 119 123 124 130 165 163 151 186 179 205 187 178 165 145 159 166 164 173 174 177 185 195 198 191 193 193 197 196 191 194 193 188 185 188 192 189 189 190 190 183 177 175 170 165 156 152 152 150 150 142 132 124 115 115  99  88  90  84  76  78  77  70  64  59  61  58  53  51  49  73 109  67  45  46  56  53  98 130 161 141 118 125 127 123 116 106  92  82
 109 111 116 121 125 132 134 155 195 181 141 195 212 200 170 155 148 153 154 157 162 174 173 181 185 192 195 192 189 195 199 195 194 194 194 190 189 191 194 196 193 192 190 186 182 177 170 154 142 136 140 139 134 125 122 115 110 111  95  97 105  95  83  81  75  69  64  65  67  66  61  55  53  79 108  72  52  56  56  64 103 142 168 125 128 129 130 122 115 103  89  78
 110 115 121 129 138 145 148 218 255 255 225 201 199 183 156 173 146 124 139 156 166 171 177 186 191 193 200 195 202 207 207 208 208 202 202 205 201 194 186 189 195 196 194 193 192 186 184 169 152 133 137 139 132 126 124 107 100 108 107 113 115 103  97  94  92  84  80  81  80  76  73  76  70  86 135  98  60  57  54  55  88 170 164 124 133 136 131 118 111  98  86  70
 115 124 133 141 149 152 167 245 245 247 254 229 183 152 145 153 127 130 152 168 176 184 184 186 195 201 207 209 206 204 201 207 208 196 200 201 201 202 203 204 198 194 189 188 189 192 188 178 169 160 170 167 160 157 139 120 124 133 133 139 141 131 118 110  98  92  88  89  88  83  80  81  88 107 131 108  73  53  44  34  77 167 140 132 138 138 130 116 108  94  82  66
 123 134 144 153 159 161 180 224 177 189 217 229 215 160 140 154 139 141 165 179 180 187 189 184 198 204 214 218 213 207 210 210 202 197 198 193 192 189 190 192 193 192 193 188 183 180 180 175 160 157 172 175 163 149 132 127 142 147 141 146 143 128 119 113 104  98  94  95  92  93  92  86  93 128 134 113 108 103  62  37  95 214 197 150 137 138 128 118 106  91  79  67
 137 146 155 162 167 172 186 203 127 126 153 193 214 160 141 166 141 163 185 184 185 187 190 193 201 213 223 227 221 220 217 211 208 211 206 198 189 180 177 172 174 177 176 179 178 170 165 162 160 158 159 158 146 132 130 133 143 137 139 142 131 115 110 110 106  97  94  98  97  87  88  87  89 139 165 130 128 139  93  53 124 198 244 185 135 140 130 118 105  92  80  68
 149 158 165 172 177 180 188 217 145 120 114 148 197 143 101 151 168 184 196 195 195 191 186 199 211 221 232 228 221 225 221 215 211 207 207 197 190 183 175 170 168 166 164 163 161 164 155 142 148 152 150 136 123 126 128 134 132 137 133 121 117 116 116 119 111 107 101 101  97  95  90  96  90 136 181 144 138 154 111  77 135 110 167 204 137 141 131 118 103  91  81  69
 160 166 173 179 182 186 193 223 156 124 129 121 167 141 111 148 173 197 205 202 200 204 204 212 221 231 229 220 224 209 199 194 178 171 172 171 174 173 166 169 166 164 166 164 148 148 146 142 137 134 130 117 112 116 123 129 129 131 120 125 127 128 125 118 107  99 101  95  91  93 101  99 119 152 198 169 156 171 118  70 112  76 119 202 138 139 129 113 101  93  83  72
 169 175 179 184 188 191 194 225 176 141 161 134 147 149 131 124 146 190 205 202 202 211 211 220 230 230 219 201 194 184 176 155 129 104  97 107 115 128 138 150 158 165 169 164 154 140 133 141 130 122 110 107 111 106 117 118 112 116 119 124 128 129 120 103  80  66  58  54  57  67  79 103  94 129 214 212 168 180 122  73 103  59 163 171 134 136 127 107 100  95  87  76
 177 182 185 190 194 197 199 221 197 168 170 141 147 153 131  77 115 187 208 205 203 205 211 221 225 217 192 175 182 163 148 122 108  95  82  80  81  86  87  91 104 126 139 144 143 128 126 132 119 105 104 104 101  96 108 111 107 108 108 108 103  88  71  53  33  26  25  30  38  46  64  92 106  97 160 220 190 170 131 111  89  82 195 135 131 134 124 108 100  95  89  80
 182 187 190 195 198 203 204 214 212 196 171 136 113 128 133  63 101 179 209 208 201 194 213 219 215 191 163 174 168 144 124 111  92  80  65  53  51  52  62  58  58  67  82  92  85 105 117 116 109  94 108 101  93  89  95 109 105  93  82  78  58  44  43  37  30  26  26  32  42  53  61  67  92 119 125 180 210 185 159 128  67 128 187 121 130 127 120 107  99  96  90  81
 189 191 195 199 202 206 209 216 226 202 161 124 100 116 135  79  93 177 208 207 203 204 209 205 196 177 168 168 142 125 109  95  97  85  80  69  58  49  47  46  49  49  53  58  55  78 101 106  96  91 116  96  88  86  86 106  92  67  53  46  34  26  28  33  43  54  58  56  55  56  59  69  75 104 122 143 195 197 168 107  78 179 139 116 124 124 117 107  99  97  92  81
 195 196 200 204 207 211 216 218 229 211 159 107  95 125 126 109  93 182 206 208 209 213 200 194 189 166 148 138 110 106 103 102 107 110 109  96  86  79  74  72  76  81  78  76  70  71  83  96  86  94 115  97  86  78  81  88  74  56  49  46  54  60  61  58  64  65  59  65  69  63  56  61  69  96 110 125 178 213 146  87 145 159 102 116 121 121 114 104 100  96  93  84
 203 204 207 209 212 216 218 218 230 226 161 104  95 125 130 180 121 182 209 209 212 205 191 193 173 156 131 122 105 106 102 108 112 107 104  98  90  76  70  68  75  77  79  79  74  72  80  88  88 100 111 100  84  72  71  75  61  54  57  57  57  56  55  55  55  60  62  57  50  50  56  63  66  67  90 108 136 207 113  94 182 119 100 113 117 118 108 105 100  96  94  84
 209 210 211 214 216 218 220 219 231 233 177 113 101 128 152 230 195 190 208 213 214 203 194 180 131 116 104 109 105  97  85  63  49  39  46  47  21  19  19  20  30  46  55  55  57  62  72  86  93 103 115 105  85  64  56  46  34  38  38  34  34  31  32  20  16  24  28  31  37  43  44  61  70  61  75  88 139 197  80 122 149  89 103 110 114 111 104 104  99  98  94  82
 214 215 217 218 219 220 220 220 225 229 200 148 103 123 161 232 230 211 211 219 219 203 198 165 118 100  87  73  59  54  33  14  30  65  86  37  38  19  16  14  31  33  59  49  43  53  59  82  93 114 133 115  80  51  33  24  25  25  29  33  46  75  89  38  14   4   9  16  17  16  36  61  60  62  65  72 149 200  77 122  94  89 103 106 109 106 104 101  99  99  92  80
 216 218 219 219 221 221 221 221 222 227 205 194 144 122 178 228 232 223 210 213 214 207 198 168 127  99  76  70  74  78  68  59  43  61 103  68  59  27  17  16  23  14  25  55  50  47  57  76  98 130 152 133  79  35  26  26  24  19  16  18  27  76 101  73  30  10  15  19  16  15  27  49  47  47  43  68 155 196  93 111  83  95 105 107 107 104  98  97  96  94  86  76
 218 219 222 221 222 223 222 222 220 229 188 188 235 196 187 220 223 215 207 209 213 208 196 177 147 123 121 124 131 135 122 113  96  73  57  61  34  26  31  36  35  28  33  50  79  78  59  78 119 159 175 145  84  37  24  25  24  21  18  19  24  25  32  25  13  13  15  22  28  28  27  32  30  33  36  73 156 174 103 117  84  98 103 104 101  98  91  92  92  90  80  73
 218 219 221 223 223 222 222 221 220 228 202 195 252 221 186 213 217 204 204 205 210 203 199 193 172 166 168 168 167 168 153 135 129 126 102  80  71  78  72  59  48  44  57  61  70  80  63 110 151 183 194 164 110  59  28  24  23  26  29  32  34  39  38  30  35  32  36  42  43  38  37  34  34  35  42  83 169 160 121 115  85  94  97  98  96  90  86  87  89  83  74  69
 220 220 221 222 222 222 221 220 218 225 219 206 237 219 200 201 212 202 199 199 205 209 212 202 197 200 190 188 181 174 169 154 134 124 125 116 105  92  88  76  62  62  63  67  71  70  91 149 176 192 191 166 131  93  42  26  22  28  31  35  37  42  47  47  50  53  54  53  45  41  39  38  44  46  57 113 185 158 149  93  89  93  93  93  91  85  85  84  84  78  67  71
 219 219 220 220 221 221 221 219 219 223 224 212 225 219 234 211 208 201 195 202 206 208 216 213 215 212 204 199 189 174 170 167 165 143 130 122 107 100  89  87  88  79  72  92  95  95 129 173 192 195 184 162 148 120  70  36  33  39  44  41  39  43  46  51  56  55  51  47  46  44  45  44  48  58  85 147 179 185 120  79  86  88  87  88  85  79  78  80  80  71  68  71
 217 217 217 217 218 218 219 218 218 219 224 226 244 207 203 195 203 205 194 204 209 209 207 215 220 216 211 202 192 188 181 173 168 167 163 151 139 132 122 114 103  95 114 127 122 134 159 184 195 196 178 159 155 137  91  56  49  46  50  54  55  59  59  56  57  54  52  54  55  51  54  58  66  78  98 170 196 173  86  79  77  77  78  81  76  70  70  73  73  69  70  73
 214 214 214 214 216 215 214 216 216 216 218 229 243 208 177 187 208 203 192 207 209 205 202 210 211 210 205 203 202 194 185 179 171 169 168 162 156 143 130 119 110 128 152 141 140 158 178 193 204 200 178 164 153 142 107  79  63  61  55  61  71  76  77  80  78  72  71  67  70  67  63  70  82  92 106 173 205 138  76  78  72  71  76  74  70  65  65  67  69  67  70  74
 211 211 212 213 213 212 212 212 213 213 213 222 237 227 209 219 216 208 194 201 210 202 200 198 203 206 197 191 192 184 181 176 168 163 158 153 152 139 124 115 135 154 155 153 162 171 178 194 203 199 189 179 167 150 111  88  69  59  67  63  66  76  86  93  94  85  85  90  89  84  81  81  92 100 112 175 179  96  74  72  67  66  70  66  63  58  61  65  66  65  69  73
 210 210 210 211 210 211 210 209 210 211 210 215 221 217 219 216 214 212 193 199 204 201 196 197 196 192 194 194 185 175 173 168 162 159 156 155 143 132 123 136 155 151 150 160 168 176 175 190 198 198 189 179 165 143 103  87  66  55  76  76  67  65  82  94  92  90  90  93  90  90  91  93  96  99 115 176 137  68  70  64  60  61  61  59  57  54  60  62  64  65  70  77
 207 208 208 209 209 208 207 207 207 208 208 208 208 190 177 162 190 207 191 194 201 194 190 188 183 179 171 173 176 170 162 153 152 149 147 143 133 129 139 153 148 147 153 161 161 173 174 183 193 196 193 183 161 127  94  80  59  59  73  82  84  79  80  86  88  87  90  90  93  89  88  92  92  94 115 166 129  60  61  56  54  55  55  56  52  56  59  61  64  69  75  77
 206 207 207 207 207 205 204 204 205 204 205 204 206 206 176 145 199 206 189 191 195 188 179 173 165 157 153 149 152 155 155 148 145 137 142 144 141 144 149 152 151 148 153 164 168 172 173 178 186 201 203 194 166 126  87  67  62  58  66  83  93  93  89  90  88  87  94 100  95  87  88  85  82  83 112 162 116  55  57  52  52  52  51  52  53  56  57  60  66  73  77  75
 204 205 205 207 206 204 202 202 202 201 201 202 203 202 207 208 219 208 188 198 203 185 172 163 147 141 144 141 134 132 137 139 137 142 149 157 162 162 160 154 148 155 162 167 174 179 182 183 191 203 205 194 172 142 102  77  60  60  75  87  95 104 107  99  92  94 105  98  96  84  79  73  69  77 106 159  99  51  52  49  50  51  50  51  54  53  57  63  71  71  70  72
 203 204 204 204 204 202 201 200 200 199 199 200 200 200 200 201 215 213 187 196 201 185 169 158 148 139 135 137 137 136 136 144 143 153 165 173 172 167 158 152 155 164 169 173 179 186 187 194 204 207 212 197 173 147 123  87  60  61  75  93 101 109 119 110 103 101 100  93  81  65  65  63  67  75 108 152  75  49  51  50  50  51  53  53  49  50  56  63  66  67  67  70
 203 203 204 204 203 201 201 199 199 197 196 197 198 199 199 199 214 207 196 197 196 184 169 160 151 137 134 138 141 148 154 153 161 172 180 182 178 163 151 155 159 160 147 147 172 184 192 202 211 216 211 195 178 154 133  87  55  57  78 102 111 119 126 121 116 111 101  91  78  67  60  61  68  74 121 139  66  51  51  52  53  52  53  50  47  50  55  58  62  61  64  66
 204 204 203 204 203 201 200 199 198 195 192 189 195 199 199 197 215 215 194 181 186 188 175 160 145 139 137 139 145 150 158 165 172 178 177 180 172 159 155 147 141 125 117 143 172 184 192 202 217 222 217 200 180 161 145  81  42  39  76 103 113 124 121 128 127 118 114  99  81  66  56  58  59  74 130 125  58  53  52  56  55  53  51  48  47  51  56  58  58  58  59  60
 204 204 202 203 202 202 200 198 197 194 193 186 186 191 199 199 207 218 200 181 184 185 172 162 151 138 143 145 152 151 162 171 179 180 174 169 161 153 145 124 110 105 139 177 186 188 188 199 209 213 219 211 183 153 138  83  45  30  64  98 116 126 126 134 127 121 117 100  82  59  52  53  51  87 121 117  51  53  52  56  55  53  52  49  48  53  55  57  56  56  57  56
 205 204 204 203 202 200 203 201 198 196 194 190 180 178 174 185 199 216 196 184 174 181 170 166 153 144 145 153 153 157 162 169 172 173 170 160 151 140 121  99  90 104 153 202 206 208 190 198 205 211 218 212 187 168 148 113 109  34  42  86 113 121 122 124 121 119 110  94  75  62  54  48  57  97 121 113  46  54  54  56  56  54  51  50  50  54  54  55  52  54  53  52
 205 205 205 204 204 204 203 202 199 196 193 192 175 156 137 110 124 212 200 173 173 178 170 164 162 150 147 153 154 159 164 165 161 157 155 148 135 121  95  80  88  95 169 210 216 220 201 204 212 211 211 213 199 187 165 121 149  76  37  76  99 109 109 112 114 102  96  82  64  64  58  47  69  90 126  91  46  54  53  55  55  55  51  49  51  54  54  52  50  51  48  49
 205 205 204 205 206 205 205 204 205 195 180 173 165 147 110  74  53 192 207 176 169 166 168 167 165 154 150 155 160 163 159 157 154 149 138 129 112  94  76  87 110 107 171 199 202 209 208 212 215 211 208 206 194 180 156 125 141 108  50  74  90  92  91 103 102  85  73  66  59  61  57  58  87  86 127  80  47  52  52  54  54  53  51  52  53  53  52  51  50  48  48  48
 207 206 205 206 207 206 205 205 204 201 179 147 126 114  87  72  48 161 206 180 172 156 162 166 158 156 156 161 170 164 158 148 145 139 127 109  97  81  89 120 140 142 135 120 138 177 194 198 210 209 202 186 169 151 125 101  97  75  51  64  81  90  88  89  85  75  62  56  54  60  57  69  96  79 121  58  47  49  53  54  53  53  55  54  53  53  50  51  50  50  51  49
 207 207 205 206 207 207 206 204 201 195 186 152 102  69  67  62  54 164 215 177 167 153 164 159 156 157 160 161 171 164 157 144 137 128 114  98  81  92 124 146 158 171 148  79  59  91 133 162 182 182 168 151 131 107  72  65  65  48  51  60  70  87  88  86  79  69  59  54  54  57  57  80  90  92 113  40  48  51  52  51  52  56  57  56  54  55  53  54  52  54  53  50
 204 205 205 207 207 205 206 201 190 171 135 109  79  60  47  42  39 123 212 186 156 143 143 148 158 147 155 165 161 156 146 140 129 114  99  93  96 129 153 167 176 178 165 114  54  40  58  98 125 133 115 108  92  70  43  31  33  51  60  61  65  82  90  84  78  67  58  52  53  50  55  96  77 111 100  38  49  48  51  54  55  57  60  57  59  58  57  57  59  58  53  50
 201 203 205 204 204 205 203 200 179 141  97  48  45  48  43  46  37  88 206 171 156 149 141 158 159 142 150 164 158 146 141 132 122 113 100 102 133 153 169 182 189 189 172 132  82  45  39  49  78  84  81  80  64  35  18  18  30  60  68  68  66  67  85  80  72  65  60  51  48  45  61  96  59 125  94  43  40  51  57  56  55  57  59  60  61  59  61  63  63  58  54  52
 199 202 203 204 203 202 200 199 181 153  97  41  38  34  38  41  27  89 218 166 153 148 153 154 151 137 146 154 154 141 131 124 119 107 102 138 157 162 167 176 188 193 167 118  81  66  40  44  45  56  59  45  32  21  15  19  35  57  73  78  75  58  69  80  73  63  58  51  49  47  67  90  64 134  91  53  55  55  49  51  55  59  62  65  64  65  65  67  63  58  59  54
 198 199 202 202 198 194 189 194 166 110  93  64  54  41  29  32  24  83 223 187 151 139 145 153 149 139 144 148 146 137 131 118 103  96 121 158 157 155 167 165 175 178 145 103  87  66  61  56  40  42  46  40  45  35  13  12  30  48  67  73  72  61  53  69  71  66  58  55  50  48  88  75  88 124  90 100  66  39  47  51  55  58  67  68  68  68  67  68  64  62  60  56
 197 199 200 198 194 194 192 160 101  59  43  51  47  46  41  42  21  95 217 196 155 140 145 151 150 140 140 144 141 139 135 118  99 108 142 159 151 143 148 154 161 138 104 100  77  66  62  47  37  51  57  51  50  36  15  16  24  33  56  61  65  61  44  56  75  68  59  53  47  58  90  56 115 116 125 134  78  57  49  53  56  59  68  72  72  69  68  66  65  67  66  61
 195 195 193 190 186 186 162 108  92  83  50  31  31  43  43  31  43 125 201 190 147 124 138 147 152 125 131 136 135 141 131 112 104 125 150 157 145 119 135 136 108  98  86 100  79  63  47  50  39  48  63  45  44  36  19  15  21  35  46  49  58  54  44  47  74  71  63  58  53  74  87  79  95  66  86 114 136  91  59  69  55  59  65  71  71  71  69  68  68  69  68  66
 193 192 191 181 151 125 116  79  60  58  54  32  20  30  30  21  71 138 202 180 166 117 117 152 159 131 129 129 137 137 125 111 118 134 144 145 115 102 119  79  73 100  87  71  75  71  58  54  31  31  62  57  53  34  18  15  22  34  32  38  64  61  44  43  67  72  65  63  52  76  80  97  46  24  36  60 115 102  83  68  50  55  64  66  68  69  66  69  72  72  73  67
 191 187 189 173 113  63  47  43  41  45  32  29  18  16  16  26  96 170 204 171 175 125 116 140 150 133 127 128 131 132 121 122 127 130 118 113  86 112  78  61  72  73  80  68  45  70  55  43  25  32  43  52  53  44  24  19  22  20  25  28  45  72  39  38  61  73  59  54  52  88 104  87  18  27  31  32  63  97  83  82  58  64  65  61  63  64  65  69  73  75  75  70
 186 181 181 169 106  50  33  31  31  27  22  19  20  13  10  34  90 144 198 171 176 162 115 124 146 134 123 128 129 127 123 129 126 112  77  72  72  62  62  62  77  70  67  72  49  67  54  35  23  25  33  41  49  44  19  21  25  27  30  29  46  45  34  41  71  75  58  51  58  95  97  57  21  12  14  20  37  57  70  77  65  60  54  54  59  62  62  69  74  76  75  68
 184 179 175 171 154 113  59  37  42  31  21  17  14  17  20  48  76 122 187 174 162 163 121 107 138 139 122 112 119 117 124 137 114  85  60  69  68  64  62  65  82  84  88  93  75  94  99  55  34  53  55  58  50  45  30  30  38  38  46  48  49  29  32  45  72  69  56  47  70 117  83  19  11  14  28  34  39  59  62  56  47  47  51  51  55  57  60  65  72  75  73  68
 179 176 172 175 153 113  66  32  20  22  17  16  17  20  15  39  86 110 165 177 159 155 151  99 126 132 122 112 120 116 131 130 124  82  60  61  54  48  41  32  27  42  46  55  64  75  86  81  78  90  77  72  64  57  44  38  32  22  31  49  50  38  46  53  69  64  57  50  85  94  21   7  23  25  33  33  50  78  92  67  45  43  46  48  50  51  57  62  69  72  70  70
 176 170 167 163 150 101  54  34  38  29  14  12  25  30  18  19  98  62  88 162 160 138 148 130 108 126 107 111 116 118 130 126 123  87  67  57  57  67  83  82  55  35  32  30  27  30  31  36  50  60  48  38  31  26  18  16  20  30  32  34  43  44  46  60  67  60  58  71 104  39   2  14  16  16  26  39  70  88  90  84  51  42  45  46  47  49  54  59  65  69  67  67
 173 164 163 161 141 104  75  54  44  39  36  35  28  23  23   8  70  73  31 122 159 140 124 168 132 127 109 106 123 126 122 130 122  90  81  86  84 102 105 102 107  98  77  70  69  56  45  33  32  34  29  20  19  18  18  33  39  43  41  38  45  51  52  74  69  55  56  89  82  12  14  14  17  25  34  34  43  50  73  97  68  46  47  46  43  47  49  55  59  61  62  65
 165 161 153 152 136 106  73  50  39  39  43  37  31  21  24  15  27  49  21  78 145 142 124 158 164 130 128 107 115 127 117 110 108  89  79 106 111 113 114 109 107 113 121 119 111  93  92  74  58  51  43  36  35  38  38  40  46  50  46  47  50  47  55  71  61  59  61  99  45   1   7   9  18  23  24  31  46  51  60  75  61  39  41  41  42  43  47  50  53  52  57  65
 163 154 143 138 128 114  91  73  44  33  35  35  30  30  21  19  22  34  18  58 117 130 129 112 154 136 146 122 100 114 120 109 103 100  88 112 121 121 124 114 104 103 122 140 147 135 127 115  99  81  80  72  61  53  44  43  51  53  52  53  51  48  54  58  53  59  76  74  20  11  14  11  24  25  22  39  46  54  65  59  51  44  40  40  41  41  43  47  46  46  52  60
 156 149 137 124 108 110 121  91  53  35  40  44  34  25  22  19  22  32  15  47  96 104 124 104 126 151 129 114 102 114 111 109 103  96 104 109 114 118 117 112 102  95 107 125 115 109  98  81  71  69  72  70  57  51  44  52  59  59  55  55  52  54  48  44  52  63  95  35  12  23  15  24  56  48  17  28  48  57  52  44  51  49  41  42  40  38  38  40  40  42  48  55
 154 142 130 114  95  80 111  89  43  42  46  38  25  16  18  15  21  27  10  36  89  74 108 113  96 129 134 128 111 123 116 114 119 107 104 103 106 113 112 105 102  96  92  85  69  63  54  36  45  42  32  37  44  45  49  63  67  60  59  56  53  59  47  38  50  74  74   8  19  20  22  32  40  32  29  22  41  68  76  79  83  51  45  43  41  38  35  35  37  40  46  52
 146 134 120 102  79  92 102  78  61  44  24  24  21  13  12  11  22  23   8  38  88  90  91 112  95  79 124 136 125 126 111 119 130 126 130 116  93 112 107  99  98  95  92  79  57  48  52  47  47  33  44  49  43  58  58  63  67  60  67  64  60  50  50  50  52  77  42  12  24  34  26  27  38  29  29  43  46  67  78  85  76  53  49  47  42  36  32  31  32  37  43  49
 139 126 110  88  63  96  91  99  61  38  20  15  17  14  13  16  24  22  20  31  47 125  88 106 103  66  83 142 115 117 126 126 117 129 129 125 120 117 109 106  99  98  95 100  76  57  55  55  48  50  51  57  63  65  65  60  62  64  62  54  61  51  52  64  62  54   4  16  19  27  25  25  28  26  33  52  60  71  77  77  71  57  54  48  42  37  31  29  28  34  40  44
 133 118  96  68  70 114  62  81  44  37  36  42  24  13  13  13  27  30  21  22  36  85  59 100  89  72  43 107 131 115 116 127 137 128 117 127 121 118 123 118 112 104 107  96  83  62  52  51  53  53  44  43  56  61  63  59  66  67  56  46  53  50  67  83  72  14   2  12  28  25  29  25  27  19  32  64  60  59  64  61  61  60  55  47  42  34  31  29  29  33  36  40
 121 110  96 107 144  88  29  41  21  23  55  45  22  12  28  33  34  28  16  19  29  28  53 112  62  48  46  54  93 104 122 108  91 108  95 105 112 128 133 129 119 105 114 108 100  84  53  46  40  41  43  38  37  45  52  57  68  62  51  43  40  46  81  87  25   0  16  24  29  28  32  22  26  39  40  73  73  57  62  66  66  60  54  50  43  33  29  28  29  32  35  36
 154 116 144 163 130  43  34  35  21  44  52  36  25  30  43  39  24  22  10  11  21  15  46  70  48  17  29  68  55  68 114 111  88  84  94 116 129 125 113 130 135 138 139 135 133 107  65  44  30  40  46  44  38  35  44  52  62  51  49  44  41  57  85  23   7  28  41  37  19  33  28  30  30  21  27  73  73  64  61  64  69  62  54  50  42  34  29  26  26  30  32  33
 138 125 108  96  90  36  32  41  44  32  28  26  25  38  35  30  18  16   8   8  13  15  20  29  46  31  17  98 106  58  86  95 100  89 102 125 127 130 143 137 137 148 148 154 152 126  89  73  51  55  60  54  48  38  49  58  54  47  52  43  52  70  30   6  20  22  21  22  19  31  31  28  25  29  20  60  70  59  63  63  62  61  54  49  43  36  29  27  26  29  31  35
  80 113 107 100  62  61  23  41  29  21  33  16  15  27  29  19  24  19  14  14  22  20  18  27  29  39  39  69  97  67  66  81 101 115 121 123 135 140 139 145 150 146 138 147 151 127 112  90  69  63  73  55  53  63  65  67  50  39  43  43  76  28   6  17  14   9   4  14  16  25  24  21  13  23  39  57  67  54  61  65  63  58  53  49  43  34  29  27  29  29  34  37
  80  80  90  76  87  47  26  36  24  27  16  12   5  15  20  22  27  22  10  25  40  23  19  27  23  35  42  62  73  89  66  53  80 114 131 112 132 132 146 152 170 163 170 156 146 113 107  96  63  59  73  68  69  68  56  69  58  47  55  85  53   1   8   9   8   7   6  10   7  19  15  12  10   7  29  57  81  63  58  64  61  57  54  48  42  36  32  30  30  31  37  37
 117  95  93  77  51  38  37  22  17  25  22  21  12  12  12  15  21  42  39  37  29  19  17  12  16  20  18  28  37  66  89  48  35  71  96 111 124 136 144 134 128 158 171 141 112 105 102  95  77  69  86  88  82  73  50  80  72  46  76  70   4   4   8  12   7   4   6   8   4  15  14   8  12   9  14  26  96 116  60  56  60  56  54  49  41  37  38  34  33  37  38  37
  49  82  59  83  71  64  49  32  19  18  24  15  11   8  13  15  20  31  28  13  23  21  15  10  12  13  18  18   6  23  43  45  30  28  45  81 116 135 113 125 110 118 111  98 100 107 106 116 105  76  83  83  83  72  60  92  69  64  67   7   1   6   8  10   5   8   6   4   8   9  17   4   6   9  14  30  53 102 101  82  54  55  56  49  47  43  40  39  41  43  39  38
  67  74  70  61  49  35  55  33  17  31  20   8  11   9  15  13  11  29  27  27  15  11   8  11   9  10  20  24  24  26  28  28  19  12   9   6  56 112 106 103 107  98  74  92 115 116  88 101 104  86  72  69  59  54  55  87  69  62  16   0   4   5   9   5   7  11   7   5   5   2  15  12   4   8  12  22  29  61  80 120 129  71  47  53  53  48  46  46  46  44  40  39
 117  43  44  62  52  68  54  29  23  16  20  24  14  14  16  14  16  32  40  27  24   8   7  18  18  15  17  19  16  20  28  23  32  28  10   4   0  69 106 100  88  76  74  91  92  93  69  78 105  89  79  85  51  44  63  84  45   6   0   4   7   7   4   3   5   7   4   9   3   3   5  13   7  10  17  25  19  71  40  50 114 119  55  49  56  54  52  51  49  45  43  41
  48  82  61  65  74  50  38  36  19  19  25  18  10  10   9  11  16  14  25  24  24  28  14  29  22  16  15  24  22  21  23  14  27  42  22  10   8   1  51 116  90  84  94  80  93  76  74  83  87  68  71  80  66  55  81  53   0   1   4   4   5   5   3   3   3   2   4   7   3   4   5   9  10   9  16  19  13  51  50  65  39  95 142 102  58  55  57  54  52  49  45  42
  19  66  64  61  54  34  46  32  32  15  20  15  21  13   9  10   9  10   9  12  26  30  20  26  15  11   7  11  20  19  17  15  18  22  18  12   8   6   6  29  34  62  79  87  87  80  83  76  79  69  44  72  63  51  42   9   3   4   3   5   4   4   3   2   2   3   4   5   2   3   3   7   7   8  16  22  17  35  49  22  42  45  92 145 110  58  51  56  52  50  47  45
  47  35  90  65  84  56  50  38  34  21  16  17  20  11   7  10   8  12   6   7  12   2  18  35  10   2   3   4  10  13  18  21  19  13  13  12  10  24  17   7   1  15  29  64  49  58  55  60  49  52  26  29  32   7   1   2   4   4   4   5   4   4   3   2   3   4   2   2   2   3   4   4   6  12  22  28  12  23  41  35  45  51  48  69 127 136  79  45  50  50  47  46
  79  53  71  56  31  38  30  39  21  22  16  17  19  19  13  12  10   6   4   6   2   0  25  35   3   3   6   8  11  17  16  14  23  22  27  21  15  18  21  21   9   1   1   3   6  10  13  15  14   9   4   1   2   2   1   3   4   3   4   2   4   3   3   3   4   2   2   2   3   4   5   6   6   5  21  20  16  16  27  35  29  38  33  61  87 122 138 123  67  39  46  42
 116  72  35  38  68  57  42  44  21  33  16  12  11  14  14   7   8   5   4   7   4   6   9   7   4   5   5   3   6  11  11  14  20  25  30  20  13   5  13  16   7   4   3   2  12  16  15  11   9   2   3   4   3   3   3   3   5   4   4   3   4   4   2   2   4   3   3   3   4   2   4   6   6   6  18  19  12  15  24  27  23  35  45  57  43  44  74 141 147  99  50  42
