P2
# Generated by OpenCV 4.2.0
92 112
255
  46  46  46  47  47  46  47  48  47  48  47  49  49  50  50  50  51  51  52  50  51  50  64  32  30  47  63  35  43  11  11  25  16   8   9  20  15  21  13  22  17  20  50 115 129  86  80  28   2  31  43  53  46  31  25   8  12  25  42  19  51  57  41  28  21  59  42  32  47  53  47  54  70  60  57  55  56  56  55  56  57  57  57  56  56  56  56  55  56  56  54  61
  46  46  46  47  47  47  47  48  48  49  49  49  50  50  51  51  51  51  51  51  53  54  56  26  38  24  33  33  19   4  13  10   6   6  11  22  16  19  31  30  28  38  61  88  86  79  68  61  39  39  50  59  55  46  45  29  40  67  74  51  31  33  49  45  29  39  61  21  39  50  56  56  50  50  53  57  56  55  56  57  57  57  57  56  56  57  56  56  56  54  56  54
  46  47  47  47  47  48  48  48  48  49  50  50  50  50  51  51  51  52  54  52  55  57  34  18  20   7  20  20   2  15   7  17  26  26  12  17  18  14  24  35  21  11   9  11  15  27  44  51  59  31  15  13  56  67  54  40  35  25  24  23  12   4  15  36  30  12  40  26  24  39  41  44  54  50  53  53  56  56  57  57  57  57  57  57  57  58  55  56  57  56  56  56
  47  47  47  48  47  48  48  48  49  50  50  50  51  51  52  52  53  52  54  53  50  58  26   9   8  30  19   4  14  16  11  13  29  36  31  25  22  28  26  32  53  40  20   8  17  28  12   5  24  51  49  30  26  30  41  41  25   8   3   7   8   7   3   7  11  17  14   5   6  21  20  37  48  53  60  57  57  57  57  57  58  57  57  58  57  57  57  56  57  56  58  56
  47  47  48  47  47  48  48  48  49  50  50  51  51  52  52  53  53  52  56  53  55  45  14   7  16  29  15  25  30  25  25  16  18  32  38  42  28  24  26  31  40  45  51  56  44  45  27  29  34  35  46  47  28  28  41  53  40  26  17   4   5   7   7  10   7   7   8   7   8  17  27  29  35  26  45  58  58  57  59  58  58  57  57  57  57  57  58  57  57  57  57  57
  47  47  48  46  48  49  50  48  49  50  50  51  51  52  52  53  50  61  72  52  56  37  16  16  33  28  26  37  54  33  12  10  21  22  30  33  38  37  28  33  24  29  43  59  42  61  55  30  49  77  82  79  73  58  43  45  82  77  33  17   6  11   8   9   5   6   5   6   9   7  26  23  25  23  29  49  45  38  52  58  58  58  58  58  58  57  58  57  57  58  57  57
  47  47  47  48  49  50  49  50  50  49  51  51  53  52  51  47  43  58  60  38  26  26  21  30  30  23  18  35  33  15   9  24  23  38  31  29  51  60  45  34  27  20  14  34  33  29  29  42  27  25  47  70  74  65  66  53  52  62  59  38  21  17   8  11  13   8   5   4   9   8  16  38  34  32  29  34  27  23  31  60  58  58  59  59  58  58  58  58  58  58  57  58
  47  48  48  48  49  49  49  49  49  51  51  51  53  55  52  51  68  61  44  21  18  25  48  44  33  53  53  26  35  52  41  55  33  41  37  32  34  45  29  22  36  44  43  36  48  48  17   8  16  21  45  69  43  33  44  42  46  28  25  32  30  21  17  10   9   9   8  13  12  10  12  28  36  41  23  25  30  37  33  57  56  57  58  59  58  58  59  58  58  58  58  57
  47  48  48  48  48  50  50  50  51  51  50  53  52  33  29  43  34  44  32  19  34  54  40  44  47  52  59  67  73  51  50  40  32  17  21  31  33  39  31  33  41  48  78  92  80  58  69  39  14   9  14  46  64  56  36  15  24  41  21  21  28  30  22  19  30  22  13  11   3   9   7   7  12  39  36  30  48  43  42  56  55  58  61  60  59  58  60  59  58  59  58  57
  47  48  48  50  49  49  50  51  51  51  54  45  18   7  21  25  29  10  13  48  61  48  25  16  25  42  45  39  30  32  36  46  50  28  21  16  22  34  35  44  42  54  60  56  54  47  40  42  32  21  15  53  50  39  52  38  36  51  44  53  60  46  43  35  24  70  42  15  15  31  39  40  36  31  46  39  36  40  38  47  44  57  61  58  59  59  59  59  59  58  58  58
  48  48  48  50  49  50  50  52  51  53  52  19   5  13  21  18  35  15  12  27  35  29  14   4   5  25  21  27  13  15   7  13  16   9  26  47  60  59  48  35  32  29  43  34  16  18  21  23  12  22  26  17  56  67  43  46  38  37  51  59  83  62  36  55  56  56  75  61  25  18  26  40  46  31  21  48  40  33  57  39  23  40  62  60  59  59  59  58  58  59  59  58
  48  48  48  49  50  50  51  51  51  55  35  12  20  19  17  18  24  17  15  42  43  48  21  10  26  38  11  10  19  14   1  18  12  19  43  43  48  54  59  68  63  29  26  30  28  26  22  23  17  16  44  11   9  29  57  44  37  39  40  36  48  72  32  31  62  79  82  64  50  29  29  36  21  19  18  36  41  10  22  26  34  21  29  60  60  59  59  59  58  59  59  58
  49  50  50  49  51  52  51  52  52  53  24  19  40  43  25  13  11  17  38  55  34  54  69  43  33   8  17  17  27  61  63  42  24  41  87  78  43  20  21  59  49  47  45  37  26  19  28  36  30  18  35  29  11   2  13  46  58  38  34  27  14  42  46  30  37  70  78  61  69  67  67  71  52  13  16  34  44  28  17  27  30  29  15  40  64  59  59  60  60  59  59  58
  49  50  50  50  51  51  52  52  53  39  20  16  26  26   6   8   7  15  15  10  10  13  20  41  48  47  47  16  19  20  35  19  15  41  48  49  39  46  27  36  34  36  55  50  42  31  26  43  33  28  54  51  34  17  15  50  70  33  32  22  20  20  40  23  39  51  56  50  53  66  86  56  47  43  18  18  60  47  17  33  34  13  15  37  61  61  59  60  60  59  59  59
  49  50  49  50  51  51  52  53  50  29  34  15   8   5   6   4   4   8   4   1   2   1   0   0   5  25  57  54  31  16   5   9  11   8  18  35  26  43  37  42  42  18  41  33  46  45  45  53  35  26  37  72  48  55  35  40  44  49  34  15  16  23  30  40  28  61  55  40  25  35  49  60  57  43  38  18  43  80  15   7  27  20  22  53  60  60  60  60  60  60  59  59
  49  50  52  51  49  50  53  45  35  27  29  25   8   8   5   5   4   3   5   4   5   5   5   4   5  11  19  58  69  46  23  10  15  35  28  64  76  28  29  40  65  32  20  38  35  63  65  67  42  26  43  70  55  63  70  70  29  37  44  33   7  13  20  46  43  53  72  52  22  16  24  37  54  60  37  26  20  49  54   8  18  20  28  50  54  60  59  59  60  59  60  60
  50  50  50  51  49  52  31  18  34  31  18  26  29  14   7   6   7   6   5   5   5   6   3   5  13  14  11  18  23  31  30   8  10  22  25  36  65  40  31  32  53  54  25  42  57  64  66  62  46  36  53  78  65  51  53  82  63  34  23  52  26   2   3  21  51  31  48  66  33  22  17  27  33  41  61  29  12  22  57  37  36  31  26  30  56  62  54  60  61  59  60  59
  49  50  51  52  49  40  11  35  49  56  26  21  35  20  14   5   6  11   7   5   5   5   5   6   7  15  20  23  13  16  43  20   6  17  16   5  11  23  22  55  61  63  39  29  50  70  61  52  45  63  36  58  64  60  43  35  61  60  26  39  40  12   3   9  27  38  33  61  48  26  20  18  22  20  38  50  21  14  23  40  41  36  21  41  56  60  49  52  55  61  61  59
  50  50  50  52  53  39   5  26  54  61  25   6  22  22  22  13   9   9  13   7   6   8   5   5   5  16  28  36  32  22  40  32  15  11  13  11   9   8   3  33  52  48  51  24  24  33  48  41  46  69  67  35  63  69  57  40  54  43  48  20  60  38  19   6  13  32  56  33  48  27  25  14  11  17  11  32  39  12  10   7  20  30  23  33  52  48  54  64  55  53  57  59
  50  50  51  52  53  49  24  10  18  26  26  24  42  39  37  27  18  11  15  15   8  11  16  10   7  11  22  32  37  42  36  25  27  14  11  10  11  16   8   5  40  36  42  26  25  32  30  37  46  66  75  57  46  70  64  41  33  26  29  33  50  70  34  16   6  21  55  29  30  47  28  23  20  14  18  15  25  26  13   7  17  29  29  38  28  39  62  62  60  51  52  60
  51  52  52  52  53  55  45  22  22  15  19  49  57  51  33  41  32  28  22  23  18  13  18  23  17  19  23  25  44  50  44  34  21  14  13  11  12  20  21   6  23  28  43  70  62  59  44  19  17  61  68  74  58  60  55  51  37  22  41  37  32  51  49  27  12  13  49  41  15  40  53  34  27  15  11  20  11  22  24   6  21  43  21  41  46  53  55  63  50  46  57  59
  51  52  52  52  52  53  54  19  11  31  39  61  52  37  40  37  44  39  35  29  25  23  24  27  28  24  25  32  37  45  43  41  34  22  20  23  28  28  35  36  25  22  19  69  88  55  42  45  11  43  68  41  49  65  33  27  42  41  22  47  26  29  53  40  41  16  26  53  24  15  64  53  48  28   7  12  14  12  30  29   6  51  54  24  41  54  52  58  51  62  63  61
  51  51  52  52  53  53  54  22  17  17  45  77  36  30  35  50  52  57  48  33  34  36  32  30  32  37  33  37  44  53  52  46  50  58  52  50  56  54  45  60  52  28   8  33  64  47  42  62  47  18  44  35  33  57  34  19  22  51  36  21  33  10  28  40  50  41  22  60  53  12  31  59  70  52  11   8  13   9  22  38   6  10  56  35  25  35  44  58  61  59  61  61
  52  51  51  52  52  55  54  27  16  16  14  29  32  36  42  55  77  92  81  60  53  63  61  55  57  65  69  62  68  83  86  85  90 102 113 117 108  89  71  64  63  42  19  26  74  44  28  32  40  43  35  30  39  50  42  16  20  32  51  45  18  16   2  23  38  36  29  53  82  33  10  30  60  56  23   8   9  11  14  32  17   3  23  49  39  49  61  61  52  58  63  61
  51  52  52  52  53  53  57  39   4   5  11  19  29  37  54  87 115 126 115 108  98 104 115 119 121 126 123 115 113 126 131 137 138 139 146 152 145 128 106  75  70  62  28  15  67  56  29  21  35  39  46  31  30  36  58  13  15  41  43  62  51  13  11   3  21  29  33  40  97  57   9  16  31  48  39   6   7   9  10  16  18   6  13  23  39  42  45  48  57  63  62  61
  51  53  52  52  53  53  54  56  14   9  22  29  33  50  92 128 156 149 134 131 138 145 147 154 153 155 154 148 156 163 158 158 162 164 168 165 161 157 144 117  93  78  41  14  63  83  48  16  23  30  42  37  14  23  56  36  13  36  63  48  75  44  13   8   1  25  28  31  89  92  29  16  16  36  46  30   1   7   9  15  13   6   6   8  35  57  62  64  63  62  62  61
  52  52  52  52  53  54  53  57  36   8  21  32  32  74 116 144 163 156 155 159 162 166 164 167 171 172 167 168 166 169 171 169 173 181 178 182 174 174 166 155 130 103  65  23  46  93  85  44   6  25  30  40  22   6  34  64  11  51  47  89  53  66  42  11   1   5  19  35  74  91  76  29  13  29  32  54  11   3   4  10  12   4   3   8  15  47  53  59  61  60  61  61
  52  53  53  54  54  54  53  64  55  28  38  41  43 101 132 150 162 162 165 170 177 174 176 180 186 181 180 181 180 175 173 174 176 185 191 190 190 182 173 165 151 132 100  56  40  74  94  94  34  10  30  27  29   5  17  84  54  28  70  55 130  50  42  32   6   2   3  16  74  79 104  57  12  13  17  43  22   3   5   5  28  40   9   4  10  37  56  60  62  62  62  61
  53  53  53  53  53  54  56  65  39  35  41  51  62 128 139 150 161 163 168 174 177 177 179 182 188 188 187 185 187 181 183 180 183 186 192 191 187 185 176 166 162 149 130 100  60  73  90  89  71  17  35  53  23  24  12  64  90  44  69  69  94 135  58  29  18   5   2   1  43  78  71  86  19   6  12  23  27  10   7   4  21  72  55   2  14  29  55  59  62  62  62  61
  52  52  52  54  53  53  55  56  32  30  53  41 100 140 139 151 159 163 166 171 177 180 180 181 183 187 185 182 184 184 182 183 184 186 186 185 184 186 185 179 174 165 149 123  93  89  89  81  82  45  26  74  54  23  19  33  88  83  56  68  58  62  85  80  34  12   4   1   6  60  48  74  52   9  12  12  30  21  16   6   5  50  84  27   3  24  60  61  62  62  62  61
  52  53  52  54  53  52  64  55  28  47  53  59 125 138 141 148 156 163 167 170 174 179 182 182 183 186 184 187 185 186 185 185 187 186 189 190 189 190 191 188 185 177 165 143 120 111 104  91  86  70  19  62  84  61  24  14  46  60  76 102 107 110 126 115  79  35  11   5   0  21  39  38  64  23   3   3  33  48  17   8   8  24  88  74   4  26  65  60  61  62  61  61
  53  53  53  53  53  54  57  51  42  74  59  78 136 137 141 150 161 165 171 170 173 179 184 184 187 190 184 186 187 185 184 182 191 186 189 191 191 189 191 189 188 182 179 161 141 137 119 104  90  85  63  52  80  84  70  44  52  57 109 151 157 152 141 125  93  63  22  10   9   1  20  22  40  36   7   6  17  49  15  12  13  17  58  81  17  32  65  62  62  62  62  61
  52  52  53  53  52  51  53  59  74  96  70 101 141 138 144 156 161 162 169 169 168 180 182 181 184 184 186 181 184 184 184 182 184 186 184 184 185 187 187 187 184 183 183 169 155 154 135 124 101  95  95  79  85  91  78  85  87  93 134 157 155 148 140 117  84  81  53  17  12   1   8  17  16  35  19  14  16  33  17  16  18  16  37  64  19  45  65  63  62  62  62  61
  51  52  53  53  54  66  69  66  66  82  72 108 140 140 143 154 157 160 167 166 162 175 181 180 177 179 181 181 180 185 183 182 180 183 185 183 182 180 178 180 178 175 173 165 162 153 141 138 125 117 103  92 112 116 115 118 117 131 145 157 153 147 134 105  87  98  88  35  18  12   9  11   7  24  22  21  18  24  19  31  29  17  31  55  18  36  67  63  62  62  62  61
  52  52  53  54  57  57  75  75  93  80  73 108 142 147 145 154 156 164 165 160 161 168 175 178 175 178 176 180 169 173 179 178 174 168 168 170 165 162 159 159 159 155 156 151 153 148 147 145 145 136 119 115 128 141 146 144 141 146 151 153 151 143 120  99  89  94  96  72  37  49  45  37  17  13  24  17  19  14  14  30  40  28  25  38  31  29  64  63  62  62  62  62
  52  53  52  53  52  60  75  74  78  69  66 109 142 149 147 156 155 160 167 167 162 165 169 170 168 164 161 165 162 164 166 169 171 173 175 175 174 175 177 182 181 177 174 178 182 178 176 173 169 157 150 151 158 163 160 156 157 153 154 153 151 139 116  95  90 102  89  96  70  45  59  50  28  22  24  19  17  16  12  18  39  33  23  25  29  34  66  63  63  63  63  62
  53  53  53  53  54  54  56  68  72  67  65 104 145 152 148 148 158 161 161 165 164 166 171 182 186 188 182 180 180 182 186 189 192 196 195 198 193 192 190 190 190 192 190 187 184 183 176 173 170 169 163 167 171 172 168 167 168 160 155 148 142 126 103  90  86  97  95  94  94  64  50  38   8  14  30  21  21  25  15  17  31  30  17  17  30  45  64  62  63  62  63  63
  51  51  53  53  53  56  58  86  71  74  72  98 137 154 156 156 167 172 173 180 183 186 188 186 184 188 189 187 184 181 185 183 180 180 182 183 179 178 180 179 180 184 187 183 186 186 181 180 179 174 180 179 173 172 174 171 170 160 153 148 135 113  92 100  87  94  92  82 100  85  56  46  21   8  34  21  18  23  22  18  26  30  22  12  32  44  63  63  62  63  62  62
  52  52  53  53  53  54  63  98  89  81  81  97 137 158 161 151 163 170 172 178 181 183 188 186 181 183 185 183 177 178 178 178 176 178 179 176 174 180 180 180 182 186 185 185 185 180 176 174 177 175 181 178 176 177 170 165 163 157 154 145 123  95  91 103 107  97  89  78  75  86  65  60  30  16  28  22  27  20  24  19  28  31  25  11  34  39  65  62  63  63  63  62
  52  52  54  53  54  53  54  65  74  76  88  96 138 150 161 158 163 168 177 179 180 182 186 188 185 185 184 181 176 175 180 181 181 183 182 179 181 184 183 184 184 183 182 183 184 185 186 183 183 183 188 185 184 186 178 169 165 157 149 135 112 100 114 117 119 108  85  71  64  72  64  50  39  30  25  21  25  24  25  25  28  33  27  24  25  28  65  64  62  63  63  62
  52  52  53  53  53  53  55  59  53  66  73  95 141 149 158 163 160 166 175 179 180 184 185 187 188 192 193 188 180 177 177 182 186 187 184 187 187 185 186 188 192 194 194 191 187 190 186 185 185 186 187 186 184 182 176 174 168 157 145 127 120 121 128 127 122 119  85  73  63  57  53  53  45  38  41  10  19  28  26  29  27  30  29  20  23  31  62  63  63  62  63  62
  52  52  53  53  53  53  54  54  76  78  59  86 141 156 161 170 169 165 171 175 179 181 182 185 184 189 189 190 188 186 188 187 190 185 186 190 194 195 194 197 198 198 192 188 185 183 183 187 185 186 188 187 183 179 174 172 163 156 145 135 121 120 131 132 117 104  84  70  66  56  45  51  52  33  40  12  23  29  31  29  24  33  33  22  24  34  64  66  62  63  63  62
  53  53  53  53  54  55  57  58  57  59  53  85 142 159 165 169 172 175 176 180 181 179 179 180 185 187 191 185 180 182 186 187 181 181 183 187 191 193 191 194 194 191 186 185 183 181 186 184 187 190 189 187 185 177 174 169 165 153 147 138 124 124 121 117 105  97 109  78  58  52  46  47  45  29  35  24  20  30  30  27  16  31  33  22  44  61  80  68  61  62  63  62
  53  54  53  53  54  54  53  57  61  46  42  85 144 160 165 167 169 171 173 175 177 181 180 179 178 179 185 188 180 175 179 181 179 180 182 184 184 188 189 191 187 183 186 183 182 183 185 183 186 187 186 185 178 177 174 171 161 154 149 142 131 123 111 107 111 110 108  91  58  43  47  46  39  32  28  19  19  27  38  31  20  26  19  20  43  45  65  66  62  63  63  62
  53  53  53  54  53  53  54  56  76  57  45  88 143 162 169 172 167 164 168 170 172 172 174 179 179 175 174 180 177 174 171 170 173 178 178 179 183 186 186 184 182 185 184 184 186 186 190 186 184 186 186 184 180 175 171 167 166 156 150 142 132 119 114 112 118 113 114 104  76  52  53  51  40  38  26  21  23  26  39  30  23  23  16  26  55  56  71  65  62  62  62  62
  52  53  53  53  53  53  54  52  78  61  34  86 153 160 168 171 170 166 165 166 165 170 167 168 175 179 174 173 172 168 163 163 167 174 175 176 178 177 181 180 181 184 182 184 188 183 182 185 188 185 181 174 174 173 171 165 163 158 153 145 133 118 119 117 118 113 114 102  97  73  48  49  40  39  29  29  22  22  26  35  30  28  25  31  51  64  63  63  63  62  63  62
  52  53  53  53  54  54  55  51  76  73  25  97 157 162 166 170 170 167 165 165 163 165 170 167 167 173 174 171 167 158 161 162 166 168 168 167 170 175 176 179 184 189 188 188 187 180 177 176 177 167 164 162 167 172 166 169 166 160 158 145 135 126 123 124 120 117 113 109 103  84  66  57  43  31  27  27  26  27  21  33  26  21  23  44  56  64  63  62  63  63  63  62
  52  53  54  54  53  54  54  53  60  79  52 109 144 142 154 165 162 163 160 162 162 166 169 169 162 169 171 171 160 155 159 160 157 152 154 159 156 164 171 169 182 182 182 179 174 162 151 149 134 133 132 135 161 156 157 167 166 159 151 142 140 139 130 124 125 117 114 120 112  96  81  71  53  35  19  14  23  26  22  24  14   8  23  43  58  62  63  62  62  62  63  61
  51  53  54  53  52  53  54  54  54  76  64 111 126 133 123 124 122 131 133 138 141 143 157 159 155 158 161 159 154 152 149 148 149 148 141 143 150 152 159 156 149 143 139 139 136 124 108 109 112 104 111 112 127 142 141 154 159 156 141 136 135 134 128 122 130 120 120 126 111 107  95  83  67  41  26  14  29  22  20   2  23  76 123 128  83  60  60  62  62  62  62  62
  52  53  53  53  53  53  54  54  53  62  69  92  99 111 107  83  82  72  74  82  86  87 103 113 133 144 149 152 148 149 148 140 141 139 130 134 140 133 133 130 108  89  67  65  65  73  84  65  73  92 101 117 120 131 125 132 131 132 131 133 127 123 113 112 128 120 122 123 106 110 102  92  74  48  28  18  14  22  35  66 124 162 146 126  99  70  60  62  63  62  62  61
  52  52  52  53  54  54  53  53  56  54  65  67  67  73  73  54  44  31  27  31  36  49  46  56  81 111 131 137 132 143 153 146 143 139 127 119 118 106  89  77  58  40  37  34  31  33  37  48  47  54  69  69  88 107 111 107 102  98 114 121 114 110 103 105 110 108 121 122 104 110 108  93  74  51  26  24  13  13  75 131 141 121  84  56  62  74  62  61  62  62  63  62
  51  52  53  52  53  54  53  54  55  55  54  58  60  60  60  56  51  47  39  31  31  34  32  34  43  59  89 105 110 125 148 153 148 139 127 106  84  72  60  49  41  36  34  34  36  38  38  51  60  60  61  63  60  68  79  85  85  80  86  93  93 101 103 107  96 102 120 119 108 111 101  86  79  63  27  18  14  15  97 110  85  49  25   8  30  67  64  62  61  61  62  62
  51  52  54  52  52  54  53  54  54  55  56  53  58  61  66  73  82  76  75  69  61  54  48  45  38  39  49  68  81 107 130 147 147 140 124  98  73  60  53  45  39  39  44  49  53  57  67  83 100 124 137 115  88  63  49  55  62  62  57  66  74  85  96  99  93 106 126 116 104 114 105  87  81  77  35  16  14  43 102  78  35  44  41  17  32  62  63  62  62  62  62  62
  51  52  53  53  53  54  54  54  55  55  55  62  57  68  78  99 110 110 112  91  69  55  52  50  48  44  38  42  58  81 114 140 145 145 131  97  70  57  48  37  37  43  44  41  34  34  28  30  49  68 103 122 115  90  68  53  51  52  52  56  68  81  85  85  97 108 130 110 103 114 110  90  83  82  65  20  13  64  73  42  52  72  52  30  67  68  62  61  62  61  62  61
  52  52  52  52  53  53  54  55  55  55  54  71  64  64  81  81  66  63  44  25   7   8  18  15  23  32  31  29  35  58 113 145 148 143 126  94  63  53  45  37  34  34  31  31  28  22  19  40  17   0   0   7   9  17  29  36  42  48  59  64  69  70  71  82  95 109 128 102 105 112 112  89  88  78  85  36  14  52  52  72  85  91  62  44  86  66  62  62  61  61  62  61
  52  51  51  52  53  53  54  54  54  56  54  69  70  54  55  30  15  11  24  20  12   4  12  12   4  19  28  28  27  36 110 167 175 158 128  94  67  60  52  43  31  31  40  35  27  34  59  93  44  15   7   8   6   7  21  11  14  19  32  49  52  56  66  70  78 105 110  97 105 109 105  86  89  74  69  44  24  32  55  83  86  94  68  60  77  60  62  63  62  61  62  61
  51  52  52  52  53  53  53  54  55  55  53  61  73  56  41  22  13  21  59  72  19  16   5  14   8  28  23  40  32  33 123 183 189 181 158 135 114  96  73  61  61  46  26  46  52  43  72 114 102  29   9   9  15  45  46  29  29  39  35  38  49  55  59  67  82 112 110  99 107 111  94  83  82  68  45  34  29  23  23  47  76  94  74  83  71  61  62  62  62  62  62  60
  51  51  52  51  52  52  53  54  54  54  55  52  66  64  44  28  38  63  96 136  78  31  28  40  52  46  24  42  72  73 160 187 193 185 172 162 148 123  98  97  92  79  69  66  73  78  88 118 142 123  87  91  99  92  70  56  61  80  70  60  56  60  69  88 107 117 110 111 109 107  94  81  75  67  40  23  31  32  27  48  72  95  83  80  62  62  62  62  62  61  62  61
  51  52  53  52  53  53  52  54  54  54  56  50  69  87  55  48  74 104 105 123 135 118 119 138 131 102  78  85  89 128 189 193 197 188 180 178 170 141 110 122 108 111 107 100 109 115 109 119 112 131 132 132 128 110 102  98  96 105 114 116 108  96 101 119 135 139 132 119 110 101  94  83  70  67  36  19  41  54  37  54  73  93  88  70  60  63  62  62  62  61  61  60
  52  52  52  52  53  53  53  53  54  55  55  52  67 102  80  86  92 126 128 124 130 138 132 140 136 128  98  87  83 164 189 193 197 187 189 185 178 154 135 139 134 117 110 117 125 130 139 137 133 134 133 138 140 139 124 127 128 135 145 144 139 140 136 136 147 146 135 123 113  87  85  83  71  58  31  28  72  80  59  58  86 110  82  60  62  62  62  61  61  61  61  61
  50  53  52  52  53  52  52  53  53  55  55  52  63 117 108 112 119 109 124 131 138 136 134 131 130 124 127 113 127 172 181 189 193 187 181 182 179 167 154 154 152 139 128 133 137 139 141 145 145 149 152 144 143 140 147 155 151 150 152 143 152 155 155 158 158 151 134 119  99  78  79  82  72  47  29  42  83 100  83  83 110 127  71  58  62  62  62  61  61  61  62  61
  51  51  51  53  51  52  52  53  54  55  55  54  59 124 131 126 137 139 122 120 129 130 130 136 150 153 156 147 155 170 177 185 194 192 179 175 176 174 162 162 169 161 148 140 140 151 163 162 160 164 168 166 170 172 173 165 161 163 161 155 164 161 165 168 166 152 128 105  82  76  76  76  63  43  24  52  98 111  91 101 131 119  59  62  62  61  61  61  61  60  61  60
  51  51  52  52  51  53  53  53  55  55  55  54  58 128 144 139 141 155 164 165 166 170 171 162 156 156 161 164 159 177 183 182 188 194 181 171 169 173 168 164 170 173 162 151 147 160 171 178 176 176 179 183 179 177 177 173 172 170 171 164 173 173 173 172 168 149 118  98  79  80  74  65  54  36  27  71 109 100  90 117 154  96  52  62  61  61  61  61  61  60  60  60
  51  51  49  51  52  52  53  52  54  54  55  54  57 127 151 148 154 159 167 175 176 174 164 160 159 163 169 156 163 180 189 187 191 195 178 169 167 169 169 165 168 178 174 168 154 159 169 176 173 175 182 180 181 180 175 179 177 173 174 174 175 176 174 167 160 140 106  92  83  71  68  58  50  30  41  83  94  89  95 126 106  54  60  61  61  61  61  62  61  61  61  59
  51  51  51  52  52  52  53  53  54  54  55  55  56 125 157 152 158 159 165 167 170 169 157 152 160 169 165 149 165 179 189 190 194 197 179 168 164 161 158 157 166 171 175 178 168 156 154 163 169 173 181 175 178 177 181 183 177 172 178 175 172 173 172 160 152 134  94  79  78  68  64  58  47  35  57  78  80 103  97  75  60  61  62  61  62  61  61  61  61  61  60  59
  51  50  51  51  52  52  52  52  53  54  54  55  54 122 157 151 157 155 155 157 163 155 149 153 163 163 153 147 170 179 188 194 193 187 177 165 156 154 150 156 158 157 169 179 181 173 157 149 157 164 167 168 170 174 176 173 171 173 175 171 174 168 164 156 146 114  76  77  74  67  59  58  45  37  59  84 110 121  91  89  88  60  62  61  60  61  61  61  60  60  60  60
  50  50  50  51  51  52  52  53  53  54  54  55  51 112 156 150 150 152 150 148 150 145 148 157 163 157 142 143 167 180 194 194 199 187 170 162 153 148 145 144 145 154 166 174 179 182 180 168 156 154 156 157 163 164 164 168 168 166 168 167 167 163 156 151 128  93  71  85  77  58  60  55  51  39  58 104 120 101  87 101  67  59  61  63  61  61  60  61  60  60  60  60
  50  50  50  50  51  51  51  53  53  54  54  54  50  90 140 149 147 144 143 141 143 143 147 158 159 149 138 135 164 181 188 200 199 180 167 158 145 136 139 138 147 153 161 166 167 180 187 186 178 167 159 151 153 153 157 163 161 162 165 164 159 153 145 134 108  69  68  85  64  53  62  57  51  41  61  87  83  69  82  73  57  62  63  61  61  62  61  61  60  60  60  59
  50  50  49  51  50  50  52  52  53  53  54  55  51  70 115 136 149 147 142 141 143 146 153 160 155 151 133 133 163 181 191 199 195 178 168 156 145 139 135 136 142 152 160 168 170 172 179 185 185 182 172 161 156 160 161 161 157 156 159 153 147 139 128 108  79  60  76  80  54  56  62  61  45  47  82  83  68  71  71  60  60  61  61  61  61  61  61  60  60  60  59  59
  49  49  49  49  51  51  51  52  53  52  55  54  55  55  87 118 128 142 145 147 149 158 162 162 156 146 135 140 165 182 189 198 189 176 168 159 150 141 134 131 141 159 167 175 176 175 171 176 182 181 176 170 166 163 157 153 153 150 148 142 134 124 110  87  68  66  76  65  50  61  67  61  46  53  90  93  79  74  60  60  60  61  61  61  61  60  60  60  60  60  59  59
  49  49  49  50  50  51  51  51  52  53  53  53  54  52  65  99 115 135 145 153 157 165 164 160 162 149 133 146 169 178 189 195 192 178 170 162 149 142 139 138 144 161 169 171 176 179 181 178 180 180 179 178 169 164 161 156 150 144 138 129 118 108  92  73  68  73  67  56  52  65  68  63  49  58  84  85  67  57  60  61  61  61  61  61  60  60  60  60  60  60  59  59
  49  49  49  50  50  51  51  52  52  52  54  54  54  54  54  83 116 135 149 156 163 167 164 161 164 149 126 152 172 174 186 195 191 178 171 162 148 138 134 134 131 149 163 174 180 179 180 181 177 176 180 180 178 170 164 155 149 142 134 124 112  95  78  69  71  72  63  55  56  68  69  62  47  47  60  57  54  60  61  60  60  61  61  60  60  60  60  60  59  59  59  59
  49  49  50  50  50  50  51  52  52  53  54  54  53  54  53  66 103 132 146 158 162 166 162 161 160 147 117 148 169 177 188 196 187 177 169 158 138 126 131 124 121 133 149 167 174 176 181 181 179 181 181 178 176 173 167 158 150 140 131 120 104  84  72  76  77  71  61  58  62  70  65  54  43  42  50  57  61  62  61  61  59  60  60  60  59  60  60  59  59  59  59  59
  48  49  50  49  50  50  51  51  52  53  53  53  53  54  53  58  86 121 143 153 158 163 163 160 151 139 124 149 166 177 187 189 181 172 166 156 140 131 139 138 138 132 133 148 165 170 180 180 176 178 179 175 171 171 168 160 151 137 122 107  89  74  76  78  79  72  62  62  65  68  66  51  39  49  62  61  61  60  61  61  60  60  60  60  61  60  60  59  59  59  58  58
  48  49  50  50  49  49  50  51  52  52  52  54  53  53  54  57  71 108 138 150 157 161 160 157 147 138 141 149 167 177 187 184 174 177 167 154 144 144 162 168 158 130 113 108 121 150 165 170 167 171 171 172 170 164 160 151 142 127 112  96  79  77  81  85  85  71  62  65  68  68  65  51  37  54  63  60  60  60  62  60  60  60  60  60  59  61  59  58  59  58  58  58
  48  48  49  49  49  49  52  51  51  52  53  52  53  54  53  55  66  91 129 144 155 155 155 152 143 137 151 152 166 176 185 185 173 170 165 152 144 148 161 167 156 132  90  87  86 108 139 153 155 159 163 162 157 155 150 142 125 114  98  86  78  80  84  95  85  66  62  70  67  68  63  48  39  57  61  59  60  61  60  61  59  59  58  59  59  59  59  59  58  58  58  58
  49  49  49  49  49  49  50  50  51  52  52  52  52  53  53  52  66  81 120 136 145 150 151 144 130 140 151 154 166 175 188 196 180 162 158 148 142 145 166 165 148 124  77 101 109  76  95 130 139 150 157 156 150 146 138 125 110 101  88  82  82  90  92  91  84  65  66  70  64  69  61  46  39  60  60  59  59  59  59  59  59  59  59  58  58  59  59  59  60  59  58  58
  48  48  48  49  49  49  50  50  51  51  51  52  53  54  52  51  64  82 106 133 140 143 144 140 129 127 140 162 179 178 178 180 174 166 156 137 129 131 151 144 123  95  69 113 137 112  76  98 127 142 147 147 141 132 120 103  99  90  82  88  98 110 105  89  78  66  69  68  69  69  55  41  42  60  59  59  59  59  58  59  59  60  59  58  58  58  59  58  58  58  57  57
  48  47  48  48  49  49  50  50  52  51  52  52  52  52  53  53  56  85 101 125 135 140 140 134 132 143 135 157 176 173 164 165 158 144 121 100 100  97  78  72  68  63  86 146 158 152 123  84 105 126 133 133 133 131 119 109 107  88  92  97 111 113 101  85  74  63  72  70  72  65  53  41  44  61  59  60  59  59  58  59  59  59  59  57  59  58  58  58  57  57  57  57
  48  48  48  48  48  48  49  51  51  51  51  53  52  53  53  54  51  79  99 120 130 135 133 128 138 152 142 123 145 136 142 143 116  76  61  56  40  23  12  15  30  50 104 156 165 163 153 118  96 113 125 129 133 124 118 117 103  97  98 108 115 112  99  83  67  65  70  73  68  64  51  37  48  61  58  58  59  59  58  58  58  58  57  58  58  59  58  58  58  58  58  57
  47  47  49  47  48  48  49  49  50  51  51  51  52  52  52  53  50  72  94 114 127 128 132 138 154 157 159 107  79  81  86  79  57  41  34  22  18  22  23  29  42  74 110 149 171 171 164 154 119 106 117 122 123 122 119 114 102 103 109 117 115 113  97  79  64  70  69  74  76  62  46  36  50  60  58  58  58  58  58  59  57  58  58  58  58  58  58  58  57  57  57  57
  47  47  48  48  48  48  49  49  50  49  51  51  51  52  52  53  51  63  92 107 125 130 136 148 157 163 162 118  49  41  44  42  42  33  25  30  39  43  48  60  71  85 114 152 168 177 171 172 151 116 114 112 116 120 117 117 110 107 108 112 114 109  92  76  71  71  68  70  68  58  46  36  53  59  57  58  58  58  58  58  58  58  58  57  58  58  58  58  57  57  57  56
  47  47  48  48  48  49  49  48  49  51  51  51  50  52  52  52  52  54  87  99 118 125 134 150 153 155 154 122  70  38  31  31  29  30  35  43  54  60  68  79  90 101 127 148 164 171 169 169 164 137 113 119 118 118 121 117 113 116 116 111 117 103  88  73  72  75  72  66  58  51  40  38  55  59  58  58  57  58  57  57  57  58  57  57  57  58  57  57  57  57  56  56
  47  47  47  48  48  47  49  49  49  50  50  50  52  51  52  52  52  49  76  97 103 112 132 148 144 151 147 124  95  62  35  33  32  36  45  54  65  75  83  98 114 127 139 149 161 164 160 159 157 155 121 111 122 123 121 120 112 110 111 112 113 101  80  70  68  67  72  68  55  46  38  42  55  58  58  57  58  58  58  57  56  57  57  56  57  57  57  57  56  56  56  55
  46  46  48  48  48  49  48  48  48  50  51  51  51  51  52  52  53  50  64  91 104 108 130 138 138 146 141 131 108  89  56  39  41  42  48  54  70  81  93 106 122 139 147 151 152 152 155 158 153 152 142 116 119 124 122 117 114 108 108 111 107  93  77  68  72  71  73  65  52  43  37  47  54  57  57  57  58  58  58  58  57  57  57  58  58  57  55  56  57  57  56  55
  46  46  47  47  47  48  48  48  49  49  49  50  50  51  51  51  52  50  54  82 102 111 129 133 129 139 134 134 119 103  80  53  44  45  50  63  74  86 114 120 130 143 152 150 148 141 142 147 150 140 140 131 128 124 121 114 110 108 111 107  99  83  67  69  74  67  66  52  49  36  42  47  55  57  56  57  57  57  56  57  57  57  57  56  57  56  56  56  56  57  55  55
  46  46  46  46  47  47  48  48  49  49  49  49  50  51  51  52  51  52  50  70  96 109 120 129 127 127 126 129 120 105  89  65  51  47  50  61  81 104 121 132 134 138 133 140 134 127 134 147 145 136 139 134 129 129 127 123 112 111 111  99  91  76  66  72  70  66  64  47  46  33  52  45  55  57  56  56  57  57  56  56  56  57  56  56  56  56  55  55  56  55  56  55
  46  46  47  47  47  45  47  48  49  50  49  49  50  51  51  51  51  50  50  55  87 110 113 114 115 109 117 117 115 113 103  81  66  54  57  60  86 105 127 129 118 127 129 131 113 110 129 137 132 128 135 132 131 135 128 119 110 105 100  88  79  75  72  70  66  64  55  47  37  42  55  44  56  57  57  56  56  57  56  56  55  55  56  56  57  56  55  56  56  56  55  55
  46  46  46  46  46  47  47  47  47  49  48  49  50  51  50  50  51  51  51  50  73 108 109 100  85  71  80 102 112 114 113 103  88  77  71  80 100 118 132 132 120 128 130 112  90  96 118 122 126 126 130 135 132 133 127 116  95  97  91  84  83  73  74  65  57  54  47  39  33  51  51  44  49  57  56  56  56  56  57  56  55  55  55  56  56  56  55  56  56  55  55  55
  45  46  46  45  46  46  47  47  48  47  48  48  49  51  50  50  51  51  51  49  55 101  98  87  75  58  73  98 108 119 124 129 116  97 102 126 136 138 141 134 131 137 125 101  92  99  95 118 121 128 124 127 129 139 129 114  99  97  83  78  75  66  65  62  56  49  42  33  39  54  51  47  34  41  56  56  55  54  55  55  55  55  55  56  55  54  55  55  55  55  55  55
  46  46  46  46  46  46  46  47  48  49  48  49  49  49  49  50  50  50  50  51  49  85  89  53  48  36  38  75  99 116 127 131 136 128 136 144 145 133 123 115 108 103  90  79  73  60  72  98 118 115 113 113 125 139 127 112  99  90  74  72  69  61  64  55  51  44  36  33  49  52  51  47  38  23  42  56  56  55  55  55  56  56  56  55  55  55  55  54  55  55  55  55
  46  45  46  46  46  46  47  47  47  48  48  48  49  48  49  50  50  49  49  51  48  64  96  69  43  30  31  33  26  39  58  74  92 113 127 115  86  68  49  40  27  18  16  17  19  19  39  66  85  84  91 102 117 133 129 109  97  80  72  74  67  66  59  52  47  40  32  44  49  53  50  45  50  18  27  45  55  55  55  56  55  55  55  55  55  54  55  55  55  54  54  54
  44  46  46  46  46  46  46  47  47  47  47  47  47  48  48  50  48  49  50  50  49  52  92  92  79  81 101  98  51  30  15  13  20  34  54  43  23  14   9   9  14  16  19  22  38  72  99  87  69  72  86 104 119 130 123 108  93  76  74  74  66  60  55  52  45  34  39  50  50  54  52  49  54  28  12  37  48  57  55  55  54  55  55  55  55  55  55  54  54  53  53  54
  45  46  46  46  46  45  47  46  46  47  48  47  48  47  48  49  47  49  50  49  49  47  70  85  89 113 114 112 120 109 100  71  51  33  18  17  21  34  50  60  63  70  92 103 121 142 139 115  94  88  94 110 120 127 118 100  86  77  70  70  63  57  54  47  38  35  47  49  52  54  52  52  52  47  11  34  38  53  53  55  55  55  55  55  55  55  54  53  53  53  53  53
  45  45  46  46  46  47  46  46  46  47  47  47  48  48  48  48  49  48  49  50  49  47  51  75  87 101 114  98 121 136 140 140 143 140 113  90 106 123 119 110 108 115 132 128 123 121 120 119 115 104 105 110 111 121 112  94  83  74  65  67  62  57  47  41  32  43  51  51  51  53  53  55  51  59  27  28  39  49  55  54  53  55  54  54  54  54  54  53  53  53  53  53
  44  45  47  45  45  47  46  46  46  46  47  47  46  47  48  47  48  48  48  49  49  50  47  64  86  88  97  84 102 144 148 148 151 154 156 147 145 144 134 134 129 118 115 108 103 111 117 126 129 117 116 107 107 103  88  84  77  68  67  69  61  52  44  36  37  50  53  53  53  53  55  57  53  61  40  27  39  39  54  54  54  53  53  54  54  54  54  54  53  53  52  53
  44  44  46  45  44  46  46  46  46  46  46  47  47  47  47  48  47  49  48  48  48  49  49  56  76  80  78  78  72 113 125 127 123 122 133 132 136 136 135 135 125 112  97  86  95 110 118 118 116 112 117 104  99  94  83  81  72  62  64  59  54  49  40  32  45  53  52  54  51  53  56  57  54  63  52  28  36  33  45  52  55  53  53  53  54  54  53  52  53  52  53  52
  44  43  44  46  46  46  46  46  45  45  46  47  47  47  47  47  47  47  48  48  48  48  48  50  82  87  67  64  52  47  55  53  40  40  52  50  68  86  99 105  92  74  67  74  90 105 103 102  99 112 121 111 100  84  74  68  68  62  59  55  49  43  33  41  52  51  55  54  52  56  61  58  59  67  58  33  40  36  38  42  47  54  54  54  53  53  52  52  53  52  52  52
  44  44  43  44  45  45  45  46  46  46  46  46  47  47  47  47  47  47  48  48  49  48  48  47  73 100  85  60  44  35  31  31  27  27  27  26  27  38  46  48  44  42  48  62  79  86  85  83  96 107 102 107 101  91  74  61  62  60  58  48  44  35  36  49  52  55  57  54  54  57  61  57  62  74  62  36  38  38  41  39  39  45  54  55  52  52  52  52  52  52  51  51
  43  44  44  44  44  45  45  46  46  46  46  46  46  46  47  47  46  47  48  47  48  48  48  46  58  89  98  86  64  48  40  34  29  28  26  27  26  24  28  29  33  38  45  51  55  59  56  62  96 104 100  96  85  84  78  89  68  54  47  41  34  34  45  49  51  57  56  55  60  61  63  60  65  75  63  42  41  35  42  44  40  40  44  49  52  53  51  51  51  51  50  51
  43  44  44  43  43  44  45  47  46  45  46  46  46  46  46  46  46  46  47  47  47  48  48  53  55  61  90 107 113  94  69  56  50  50  52  49  43  38  32  31  35  39  46  52  55  53  70 107 119 107 100  97  94  88  81  76  54  49  38  32  32  42  47  51  54  57  56  60  61  61  65  62  67  76  56  40  39  35  40  41  45  42  38  40  53  56  51  51  51  51  51  50
  42  43  43  43  43  43  44  45  45  46  46  46  46  46  46  47  46  46  47  48  49  46  49  56  47  42  82 104 114 129 116  95 102 114 119 112 111  95  86  84  73  65  67  74  77 103 140 137 122 109 106 100  86  79  67  56  45  38  30  29  38  46  52  53  55  55  55  62  62  63  64  62  70  74  46  42  39  39  40  36  44  44  42  40  40  51  53  52  50  51  50  50
  42  43  43  43  43  44  44  46  45  46  46  45  46  46  45  46  46  48  49  47  41  42  53  49  42  33  50  98 115 130 119 113 130 139 141 139 140 139 135 124 111 109 119 122 132 145 145 132 128 116 108  94  74  72  61  43  34  27  28  39  43  49  54  53  54  55  61  63  62  64  65  65  71  66  40  47  38  40  41  38  40  43  43  44  36  36  40  52  51  49  50  50
  42  42  43  43  43  43  43  45  44  45  45  45  44  46  48  48  47  44  41  35  39  58  53  41  39  28  22  82 113 124 124 118 135 142 143 141 142 143 140 132 125 133 149 154 160 140 130 122 120 114  96  93  75  57  39  33  28  29  36  42  47  49  52  53  54  59  62  61  63  65  66  68  72  55  39  43  36  38  41  43  41  43  42  46  44  40  44  53  61  51  49  49
  42  42  42  42  43  43  44  44  45  44  44  46  51  53  48  44  41  39  35  37  54  56  50  41  35  27  17  44 104 110 128 116 121 133 138 140 137 136 134 133 136 143 155 161 150 136 132 132 117 105  96  84  64  35  28  27  31  35  40  48  51  52  53  51  54  60  61  63  65  68  69  72  71  45  44  42  35  39  41  45  45  47  45  47  49  44  37  45  44  56  49  47
  42  42  42  42  41  43  43  42  43  47  49  51  47  44  40  39  37  37  37  52  55  53  45  42  35  24  16   8  69  96 110 115 102 112 119 130 133 131 130 132 143 148 149 151 143 129 123 114  98  97  76  61  41  30  28  30  38  41  45  47  53  55  53  55  60  61  62  68  69  69  74  73  58  45  48  39  37  39  46  46  45  44  49  42  47  49  39  40  45  50  57  47
  42  42  43  42  41  41  44  51  57  53  44  44  44  43  39  34  38  40  47  58  52  54  42  40  28  23  13   5  24  68  78  94  95  91 101 111 114 119 125 134 134 137 133 130 123 114 102  86  96  79  59  41  30  28  33  36  40  43  47  51  52  53  54  59  60  62  65  69  72  71  68  70  49  47  46  41  41  42  46  47  46  45  49  48  42  50  49  39  55  59  60  57
  42  42  41  42  45  51  60  58  46  42  42  48  45  40  37  39  39  44  61  57  49  41  43  33  29  22  19  12   0  37  47  49  53  64  81  86  88 100 113 111 119 116 115 107 100  93  85  79  75  57  43  32  30  34  35  38  45  48  51  50  50  54  61  62  62  64  70  69  72  69  71  65  44  51  42  40  41  45  49  47  47  48  47  45  48  50  52  40  42  42  39  58
  40  42  46  49  52  53  46  40  43  42  47  52  43  35  37  37  38  57  57  50  46  41  41  31  32  18  20   3   0  45  55  39  40  46  56  55  59  68  79  84  84  79  78  74  68  63  59  55  46  38  32  32  34  36  39  45  50  52  51  52  53  60  62  62  63  65  71  71  76  75  75  56  50  52  45  40  41  46  47  50  51  50  47  45  47  50  50  48  42  52  50  59
  49  53  49  48  49  46  41  43  45  47  49  44  40  39  38  38  56  59  56  48  42  45  35  34  22  18  12   0   5  55  67  55  47  41  40  42  43  42  46  46  46  41  39  39  38  38  37  40  34  34  34  34  35  40  46  50  52  54  56  56  62  62  62  64  66  72  72  75  75  74  70  46  53  48  43  43  45  46  47  50  55  50  49  47  49  48  51  51  42  52  60  56
  53  47  44  46  44  42  43  43  49  53  43  39  41  40  35  55  59  53  43  43  46  46  33  32  18  20   7   1  12  63  63  56  56  55  44  40  36  34  35  33  31  31  34  33  32  33  34  33  35  37  38  37  40  45  50  54  57  55  61  67  63  60  65  66  70  74  69  75  74  77  55  52  58  46  43  44  46  46  47  52  55  54  55  50  48  52  52  52  49  46  42  37
  44  45  46  43  45  44  45  52  51  41  38  40  38  36  49  63  54  47  45  44  49  34  29  24  21  23  10   1  26  73  59  58  64  63  50  42  31  30  32  32  31  33  35  35  36  35  37  37  37  38  37  40  45  50  55  57  58  59  64  64  60  62  66  68  71  66  67  74  82  63  47  59  51  45  45  46  45  48  51  52  56  56  60  54  48  52  53  53  52  42  53  54
