P2
# Generated by OpenCV 4.2.0
92 112
255
 193 195 199 200 198 197 199 198 198 201 205 206 205 201 201 201 198 199 200 207 206 204 209 214 210 206 206 208 210 215 214 209 204 203 207 208 210 214 209 132  80  63  91  89  59  61 117 141 106 103  47  52  83  84  24  42  72  63  43  66  99 140 143 149 133 133 133 135 130 140 148 120  89 110 117  82  61  39  46  54  43  49  71  79  44  37  39  41  47  49  47  46
 193 195 196 196 196 195 197 199 199 201 206 206 204 202 201 200 201 204 198 201 201 203 208 213 209 205 207 201 196 189 201 215 206 200 208 214 202 198 138  81  80  51  79  72  60  65  91  91  92  80  54  62  99  63  52  72  65  50  75  62  91 109  87 112 135 127 130 142 140 130 142 135 130 169 147  82  72 104  72  58  60  48  51  54  55  49  47  47  55  61  55  51
 187 192 194 190 193 194 198 199 198 197 198 201 202 203 199 199 207 208 201 205 201 203 205 208 207 202 205 206 204 197 186 199 205 207 211 198 179 110  72 105  81  57  39  63  63  64  70  77  86  34  57  89  59  58  76  81  80  82 111 101  75  67  65  70 153 146 127 134 138 127 125 124 145 169 122  66 139 204 124  54  70  53  48  55  57  55  55  56  60  60  54  54
 182 191 195 190 191 193 196 196 194 192 195 201 202 202 200 199 208 206 201 206 207 206 203 207 209 206 203 202 200 209 200 168 192 193 186 173 117  52  59  99  73  52  52  49  58  62  81 101  69  31  56  55  36  62  66  59  89  87  78  92  73  71  99 112 148 156 135 126 132 134 118 103  99  99  82  81 137 169  94  48  60  89  94  59  49  53  55  54  56  52  49  52
 180 187 190 187 193 194 192 195 195 195 197 200 201 202 202 198 202 201 201 205 206 204 208 213 213 208 203 196 182 155 142 130 135 164 135  97  51  39  76  71  44  40  24  36  85  73  88  93  57  43  51  39  71  61  61  48  62  77  84  82  87  54  80 114 142 155 149 132 119 122 110  96  88  89  87  68  71  86  85  77  60 105 118  64  56  59  57  59  58  57  59  58
 183 185 184 187 194 190 186 189 194 199 199 201 202 201 200 198 199 202 206 211 207 206 213 215 214 211 211 166 148 122  59  80  93  97  67  49  22  53  81  58  52  34  21  45  71  75  98  64  55  51  47  74  99  51  65  65  60  92 127  86  98  88  72  75 135 156 142 125 126 152 181 128  75 106 142 118  70  67 123 148  83  63  79  65  60  64  60  62  55  61  72  65
 185 183 185 189 194 188 182 185 194 199 201 201 203 201 199 197 202 207 211 217 217 216 206 205 211 218 194 106  84  70  77  74  76  51  61  41  53  90  83  58  36  30  48  66  66  68  50  60  96  63  59  71  60  61  81  68  83  54 125  83  58  86  68  50 100 155 139 139 133 128 155 136  95 104 145 140  86  73  95 111  82  68  82  85  69  67  56  68 105 100  73  58
 186 184 181 191 201 200 192 193 199 201 202 201 200 198 197 198 202 208 214 220 216 188 197 200 200 191 140 109  86 113 114  92  54  43  55  78 110 110  63  36  27  54  68  74  57  14  26  86  81  47  27  13  30  62  59  94  98  49 100  99  27  70  40  65  69 108 135 137 125  97 105 147 142 106  98  94  84  84  72  66  73  79  69  67  77  80  98 142 159 107  54  54
 190 185 184 192 202 205 199 200 201 202 202 202 202 200 199 199 201 207 214 221 175 182 172 175 188 161 150 107 124 150 102  60  79  77  65  61  41  53  49  65  95  71  42  20  18  22  41  71  39  28  14  11  23  24  23  81  79  87  75 119  62  38  42  45 110  93 136 146 128 100  95 124 116  86  78  82  85  81  76  72  75  82  87  94 140 136 109 113  88  62  62  59
 184 184 188 194 201 204 202 206 206 201 198 201 204 203 203 204 202 205 212 188 166 154 153 181 138 135  71  58 107 123 102  94  64  42  22  14  23  57  70  69  73  74  89  82  51  33  41  40  30  22  12   8  18  42  29  37  53  60  73 114  95  32  21  10  57  91 118 171 162 142 129  94  89 105  89  88  90  76  71  76 108 129 128 108 104 120 141 108  72  74  62  48
 183 191 199 206 204 201 200 206 208 206 200 199 203 205 205 209 208 203 190 157 123 120 181  94  77  66  48  57  60  62  76  41  15   6  17  33  42  40  60  68  62  78  90  94 113 134  99  66  55  39  20  24  56  91  85  81  66  61  67  90  98  41   3  14  60  50  78 132 171 208 181 111 131 152 123  99  86  77  85  83  90 105 133 158 119 115 181 152  76  73  60  85
 183 193 203 206 203 198 201 206 205 202 201 202 204 207 204 211 211 199 191 115  93 150 115  48  51  46  41  31  26  22  12  24  26  31  43  63  72  58  65  77  97 114 127 140 139 131 104  93  76  49  44  45  46  34  20  27  33  33  26  68  98  64  28  64  71  52  42  78 111 156 149 161 193 159 123 122 129 115  90  95 136 187 216 210 148 108 120  93  57  64  66 109
 178 185 192 197 198 198 197 198 198 197 199 203 206 204 204 208 204 202 174  76  88 106  83  74  40  19  17  15   7   0  18  25  27  35  30  30  29  33  32  59 101 112  98  93  74  79  74  80  72  83  79  33   7   1   9   7  13  15   7  31 104  92  44  80 116  82  53  38  69  57  78 161 197 130 112 159 180 142 141 191 218 214 187 132  96 109 112  96  77  63  63  70
 173 176 185 193 195 194 188 192 199 197 195 199 201 200 206 203 201 199 159  65  63  64  48  30  33  33  35  40  19  14  20  12   7   5   5   4   8  24  43  68 104 111  97  79  49  34  39  37  27  44  51  39  22   9  23  37  48  66  47  23  67 103  65   6  25  69  48  36  45  44  50  78 135 127 124 136 138 185 223 203 148 116 110 102 114 128 127 112  97  76  69  62
 172 176 185 189 190 192 188 191 199 199 196 198 201 202 205 197 195 195 108  52  54  48  32  20  31  31  35  30  13  17  16  10   5   1  15  23  37  34  63  54  78 122  90  61  45  47  51  45  34  12   4   9  11  18  22  40  77 113  90  66  29  50  64  34  15  23  40  27  36  23  33  49  60 114 129  97  99 169 177 121  89  95 104 137 165 163 160 147 131 108  92  85
 180 182 186 188 189 192 193 194 196 198 198 188 199 201 201 194 184 183 116  65  44  27   5   6   7  15  19  20  16  40  38  27  44  45  56  60  55  53  33  45 100  86  49  38  58  73  58  67  67  95  90  49  23   7  22  25  45  73 101  74  51  36  36  27  23  28  29  31  33  29  13  30  38  57 108  98 106 131 117 125 139 136 127 126 139 143 143 140 146 154 130 115
 184 188 188 189 195 195 193 195 196 198 203 167 200 211 202 196 149 124 101  66  40   8   2   3   5  12  17  29  35  50  64  74  57  61  57  51  50  53  66  75  42  22  57  92  88  89  77  82  62  55  70  83  57  25  16  22  38  46  66  69  61  55  35  35  33  19  14  22  23  20  20  36  24  32  60  53  80 121 113 137 143 152 165 146 137 128 113 129 166 192 174 139
 191 196 193 192 195 191 187 192 196 196 198 178 172 208 187 145  96  91  57  29  22  10   5   5   6   7  10  22  10  30  56  71  70  75  66  80  86  73  87  92  80 101 115 105  95 116 112  93  81  85 103  72  76  90  44  25  40  60  70  93  63  42  38  40  37  43  44  34  17  18  23  46  71  86  94  89  49  80 104 113 109 122 133 141 170 164 132 130 150 174 193 182
 193 196 192 194 194 190 187 190 197 199 193 198 177 135  99  63  47  43  27  20  20  10   7   6   4   3   1  12  14  19  25  23  21  23  53  61  94  63  45  58  65  51  61  78  75  67  81  77  79 104 101  95 113 113  80  38  57  49  60  63  50  51  37  43  46  56  50  47  41  20  31  60  79  65  89  91  67  65 117 113  99 103 100 101 124 132 130 129 126 130 161 170
 188 190 188 192 194 195 192 193 198 199 199 189 133  86  53  31  39  30  15  19  17  20   7  10   7   5   3   6   6   4   1   7  13  29  23  13  37  35  18  11   4   4  12  18  17  31  65  82  73  81  73  61  75  59  69  55  44  53  70  95  57  48  51  44  39  54  67  64  81  80  66  24  15  28  35  56  49  35 105 139 116 110 116 108 101 102 118 118 108  95  96  95
 188 192 194 196 198 197 205 205 201 205 186 107  79  79  44  26  36  32  14  18  27  32  24  11   9   6   5   2   8   7   2   2   4  34  55  25  15  10   3   3  14  15  10   2  16  38  29  19  31  46  69  60  53  60  48  38  40  54  57  99  90  60  56  41  47  51  65  85 109 121 120  92  48  34  33  19  31  27  76 149 134 124 126 129 134 134 137 125 112 104  94  85
 186 191 198 200 200 204 210 210 208 186 112  91 116  98  56  26  38  34  17   7  26  32  34  21   4  10   5   3   6   6   3   3   3  37  42  15   2   1   3   4   3   6   8   4   3   1   7  13  20  35  57  65  61  61  69  52  36  26  49  60  69  64  51  41  59  64  96 116 105  85 104 166 168 114  93  38   5  35  72 132 142 148 143 137 153 153 156 149 134 128 120 110
 179 188 201 202 204 207 205 202 200 133 110 136 110  89  70  28  26  21  14  13  18  33  25  28   9  17   3   4   3   2   6   8   7  18  22   6   3   2   2   2   7   4   1   4   5   8  17  16  26  39  46  54  55  41  45  55  60  50  60  97  82  38  49  71  76  48  63 107 107  58  38 107 150 147  97  94  45  34  48 126 152 165 188 174 163 143 149 159 148 143 136 129
 176 185 197 201 199 198 199 199 191 136 120 128  98 114  81  60  46  43  32  24  28  44  41  23  10   9  12   4   6   3   7  13   4  14  17  11   4   5   4   7  14   5   6   9  11   5   8  11  19  16  16  29  45  62  50  30  52  75  81  89 115  49  43  80  86  59  49  79 104  97  50  56  74 125 108  67  71  65  64  98 139 159 182 174 163 149 153 160 153 148 143 136
 181 184 189 193 193 191 196 196 196 150 143 116 125 109  89  84  84  75  55  46  57  52  53  48  19  14  14   1   6   8   5   8  12  30  17  13   1  10  11   7  12   5  14  23   9   4   7   6   2   1  15  29  19  33  59  48  35  46  61  60 111 100  62  79 101  87  53  70  71  74  76  60  60  63  99  96  56  49  69  56 109 147 146 163 161 155 155 173 167 142 154 137
 189 189 191 193 194 195 195 192 196 170 143 130 126 104 110  70  90  67  63  84  82  74  73  59  33  20  17  16  22  26  31  18  14  37  39  28   4   7   9   7  10   6  14  31  16   6   9   3   4   9   6   4   9  16  26  64  56  36  38  39  88 120  92  71  94 104  85  78  55  33  76  79  47  54  37  90  68  52  51  54  36 116 161 176 171 159 165 202 182 158 186 146
 195 193 192 195 198 201 195 194 198 197 159 120 100  93  94  74  77  77  61  65  68  79  95  90  63  43  40  37  34  56  53  49  30  42  41  35  28  11   9   8  14   8  14  31  29  16   9   8  12   9   8  11  14  17  10  35  75  65  34  26  56 102 131  82  93  78  69  38  44  36  35  67  74  51  31  53  65  47  33  50  45  79 176 169 168 173 195 206 161 156 173 123
 197 194 188 193 197 198 194 197 201 201 150 107 111  85  79  70  76  82  74  70  73  94 121 122 100  79  74  77  60  71  83  66  52  37  34  26  33  29  21  18  23  22  22  30  47  30  22  13  20  38  31  30  43  23  16  11  30  64  52  50  48  65  99  83 112  89  77  55  45  52  52  53 110  90  59  31  64  56  32  27  80 103 163 178 174 186 198 177 130 133 123  97
 193 188 186 192 195 192 190 194 196 196 150 138 111  84  72  84  76  61  57  67  94 112 108 111 102  92  81  85  87  71  59  87  67  44  36  27  32  46  53  42  46  51  51  58  70  61  50  35  26  59  53  64  80  87  58  25  16  57  68  62  77  70  83  84 122 115 105  89  52  41  50  68  95 140 123  73  66  56  42  39  69  73 107 175 183 170 154 136 120 117 114 104
 194 192 189 189 189 188 189 192 197 194 160 144 111  88  86  95  61  53  50  57  72 109 117 101  87  76  90  91  91  79  75  63  57  60  61  53  54  56  74  81  82  97 110 107 108  93  98  80  53  80  80 103 116 134 118  66  48  45  56  41  66  81  87  69  91 126 132 114  82  56  66  82  89 143 128 130  94  74  47  67  86  87  67 112 176 162 128 131 124 119 123 113
 191 194 193 189 187 187 189 196 204 183 164 124 116  93 116  83  27  44  57  77  84  97 121 123 130 134 137 138 131 123 111 111 100 102 117 131 139 154 147 145 155 166 175 182 187 161 135 145 109 123 129 127 137 149 131  93  93  69  46  53  32  58  71  86  71 111 156 135 108  77  83  90  98 148 128 113 114 106  62  90  75  83  85  88 156 173 150 140 131 128 127 129
 182 190 194 192 186 189 194 202 206 161 157 112 117 118 110  35  28  70 103 109 126 139 155 171 180 184 186 190 198 203 202 195 188 181 187 200 204 211 222 221 220 216 216 217 218 216 194 177 186 163 161 167 157 147 141 135 124 119  80  76  60  20  48  80  95 105 167 153 135  85  70  97 104 162 148 125 130 116 112 107  69  44  63  84 147 179 165 147 134 138 145 155
 177 187 193 188 184 193 200 204 188 150 164 112 100  82  38  28  34  86 115 117 145 169 183 193 198 201 206 206 213 218 219 223 226 225 221 221 223 222 225 227 225 224 222 220 222 220 216 211 204 207 199 196 184 171 162 153 142 169 144  96 100  54  35  65  90 130 159 139 141  95  83 123 129 147 145 147 157 121 148 131 100  68  66  76 132 175 163 145 143 150 147 152
 184 188 192 190 189 197 200 202 169 140 175 135 112  79  47  47  51  96 113 129 161 184 191 199 207 209 211 211 215 220 220 222 224 224 225 224 225 224 224 223 223 222 221 221 222 221 221 219 218 212 208 201 191 185 174 157 155 174 172 138 116  76  40  60  74 136 175 148 142 128  96 144 157 137 140 165 173 142 139 168 106  53  49  92 127 163 160 148 144 148 150 154
 186 191 196 193 193 198 195 197 160 159 182 135 114 109  89  52  57 104 126 151 180 188 198 204 210 213 213 215 220 222 222 225 227 225 226 227 226 225 224 224 226 227 229 226 225 224 223 221 219 220 210 198 198 196 183 167 171 182 179 167 131 109  60  43  68 107 118 131 158 149 106 145 160 122 134 170 183 140 124 147 123  83  60  84 121 148 165 161 148 157 168 170
 185 191 192 187 189 192 195 199 160 182 191 149 120 123 108  58  91 123 144 171 183 192 201 205 207 212 215 218 220 224 225 226 228 227 227 228 228 230 227 227 229 231 231 229 229 226 224 224 222 220 217 205 200 203 193 181 188 187 188 184 159 120 103  62  58  80  85  93 115 142 129 135 159 139 112 157 152 135 142 151 138 112  95 111 114 131 157 163 160 173 171 165
 177 183 186 190 191 194 201 203 166 190 192 165 141 144 133 114 140 155 164 173 183 195 203 207 208 209 214 218 219 222 223 224 226 226 228 227 227 229 229 228 230 231 231 229 228 225 222 223 221 216 213 210 205 200 197 197 201 183 188 188 177 148 104  95  97  90  92 136 118 126 153 137 143 167 132 128 139 131 143 166 129 140  93 126 122 119 131 147 160 172 170 170
 171 179 191 197 196 193 194 194 168 188 191 177 164 148 131 138 160 163 167 172 184 194 198 205 207 206 212 217 220 221 223 223 228 226 228 226 226 229 230 229 228 228 227 225 227 224 221 221 218 214 210 207 207 205 205 201 204 197 193 192 176 166 140  99 120 150 122 148 191 142 163 164 155 198 170 122 142 155 139 167 161 144 106  94 112 121 113 126 154 167 175 177
 165 175 189 198 195 185 186 196 174 186 196 174 153 132 127 138 158 166 173 174 184 186 192 204 205 205 211 215 215 218 220 223 226 227 227 227 229 228 228 229 229 228 228 226 226 222 220 222 216 216 213 210 208 203 204 201 204 209 199 189 182 166 148 128 125 143 143 122 157 169 166 173 156 193 173 130 150 162 164 139 144 148 132 109 106 121 107 120 154 160 167 168
 170 174 185 195 193 187 190 199 186 189 203 178 136 132 133 141 160 175 179 175 182 184 195 202 199 201 208 212 214 216 218 222 225 227 226 228 228 226 227 227 229 229 229 228 228 224 220 223 216 213 212 212 207 206 205 204 207 208 201 187 182 173 148 129 133 105 127 138 119 154 171 185 181 188 160 139 159 164 170 141 128 120 134 123 108 110 104 133 160 158 161 156
 169 175 178 184 191 193 193 196 192 197 193 175 135 139 131 140 159 176 179 177 184 188 195 202 200 198 204 207 211 213 215 218 222 224 225 226 224 223 225 223 221 222 223 223 223 218 217 215 211 209 212 208 208 211 211 207 208 206 197 191 183 171 146 124 139 113 121 104 100 134 197 200 200 171 153 172 171 166 169 156 171 111 110 122 107 104 110 138 156 164 173 158
 169 175 177 185 191 186 189 196 190 207 189 155 136 129 133 138 161 174 182 180 181 192 197 197 199 197 201 205 211 214 216 213 216 219 219 220 219 218 219 220 219 219 219 219 216 215 218 213 214 215 211 207 208 212 210 206 208 205 193 187 178 168 149 121 122 121 123  85 107 114 199 210 191 158 161 174 174 158 159 178 196 147 109 117 102 101 115 140 157 171 177 162
 173 174 177 188 185 178 181 188 191 207 181 137 138 143 137 136 159 176 186 182 182 195 201 203 205 207 209 212 217 219 223 224 225 224 227 226 226 227 229 228 228 228 228 228 227 225 224 222 220 218 215 214 219 221 212 209 207 203 193 186 174 166 155 151 146 125 127  93  94 113 176 179 176 155 159 142 144 140 166 178 188 181 125 102 116 103 119 149 166 174 171 166
 177 176 174 182 182 185 190 186 192 199 176 153 144 146 136 135 160 175 188 191 190 196 199 205 206 207 211 215 216 217 221 224 226 225 225 227 228 228 228 226 225 227 224 226 227 226 223 221 221 219 215 219 219 217 214 211 207 200 190 183 168 171 166 155 169 149 131 116 101  98 145 137 147 146 153 127 127 142 190 161 174 188 123  99 128 124 127 149 166 169 170 175
 181 182 178 187 187 190 198 197 196 194 180 148 133 126 131 138 163 180 187 194 195 197 201 209 210 210 215 216 217 219 221 222 224 225 226 229 228 226 225 225 227 226 226 229 224 223 222 217 214 215 215 217 216 216 210 206 202 196 189 176 166 165 166 169 156 159 137 131 114 109 109 115 124 138 144 125 130 171 185 137 180 182 102  90 118 124 134 150 164 167 172 177
 180 186 187 191 191 187 190 192 197 182 170 145 119 117 130 141 162 179 189 194 198 201 202 207 210 215 218 218 219 220 224 226 225 223 225 226 227 229 227 224 223 222 224 221 220 223 225 224 223 224 224 224 224 222 214 207 200 194 182 173 177 173 166 168 164 152 146 137 110 100  91  99 106 140 142 134 138 180 171 148 166 148 100 100 110 121 138 153 167 175 185 177
 182 187 186 186 187 184 182 186 197 185 155 142  98 119 132 142 160 177 192 194 202 209 209 210 213 216 218 220 222 224 225 228 228 228 227 227 231 230 229 226 223 223 226 228 228 229 228 226 227 226 226 225 226 220 213 211 202 192 179 181 183 182 178 174 155 146 142 130 103  86 102  90  90 134 128 136 143 165 176 165 160 116 115 111 114 128 141 159 172 179 185 177
 182 184 179 182 187 186 186 188 199 199 160 116  80 120 135 142 161 180 192 198 209 210 211 214 216 220 222 220 221 224 228 230 227 228 231 232 233 234 229 230 230 228 229 231 231 230 229 227 227 227 228 227 226 218 213 210 203 193 182 182 181 184 180 173 165 151 137 124 105 103  95  89  89 118 119 147 143 165 179 163 153 121 129 125 136 127 123 159 181 180 175 169
 181 183 183 183 192 193 190 192 201 206 177 113  80 120 134 145 163 181 193 203 211 211 209 213 215 220 219 220 222 222 226 231 229 226 229 233 232 231 230 230 230 231 231 232 232 232 230 229 226 223 225 225 221 219 214 209 203 194 185 184 179 179 176 170 173 162 140 125 106 103  92  89  87 110 117 141 146 181 177 165 161 125 136 135 146 130 119 160 180 179 175 167
 189 189 189 190 201 201 194 195 201 205 191 119  78 119 135 144 164 186 195 203 209 209 207 208 211 215 218 216 217 225 225 226 228 226 224 224 229 228 230 229 230 230 231 233 233 232 231 229 227 224 222 221 218 217 213 207 203 198 190 186 179 179 180 175 169 169 148 123 118  98  84  89 101 109 118 118 146 192 191 178 152 137 135 139 149 137 125 156 169 174 185 173
 190 189 192 195 197 197 198 203 203 201 199 137  80 117 135 145 170 174 170 187 203 206 202 206 208 211 216 216 213 219 226 225 224 223 226 224 224 222 224 226 230 232 233 233 231 230 231 224 224 224 212 209 208 208 208 209 206 202 195 184 181 183 183 180 177 170 158 144 126 116  75  91 120 108 120 127 175 195 198 184 134 138 144 141 143 125 128 163 174 181 189 180
 185 186 194 197 190 193 204 214 214 203 202 160  82 117 135 154 166 155 154 157 166 173 183 186 186 195 207 212 212 215 221 224 219 219 223 223 218 215 220 224 225 227 224 228 229 223 214 198 196 185 181 185 191 197 204 210 210 208 195 184 180 187 183 181 181 174 167 163 149 138  90  91 124 109  97 128 168 196 212 189 125 141 148 123 125 121 144 177 184 185 185 183
 182 186 191 190 193 201 205 209 211 206 208 177  98 123 137 145 140 140 134 115  96  96 108 106 122 136 162 180 193 205 211 215 217 215 217 216 219 210 210 210 206 208 189 157 153 152 150 141 133 128 138 161 181 191 194 199 204 199 195 194 187 180 183 180 181 181 168 163 167 154  99  91 119  91  85 125 154 200 209 159 102 145 140 124 129 136 162 188 187 186 188 190
 180 188 190 189 193 200 202 201 203 203 211 184 119 128 141 122 113 113 113 103  85  63  45  46  62  67  80 111 156 193 205 209 211 217 216 213 214 208 206 196 186 167 143  86  67  63  57  66  78  86 109 130 144 169 180 178 179 184 193 197 190 180 184 183 185 181 172 171 171 158 110  88 104  83  81 117 148 165 189 118 116 153 134 129 134 147 175 188 189 191 191 193
 184 191 195 197 194 192 193 195 199 201 209 188 118 132 134  99 108 131 155 171 180 171 146 125 119 111  92  81 107 159 186 200 204 213 218 213 213 207 195 182 170 145 112  86  86  98 109 123 150 175 179 165 150 141 156 168 163 170 176 185 185 181 184 182 183 176 176 177 175 169 112  82 115  91  70  92 131 147 183 179 170 147 134 129 120 143 176 186 186 188 186 190
 191 193 200 199 193 187 186 193 197 199 208 196 120 131 129  98 128 164 184 196 205 206 220 225 225 220 212 186 142 120 148 177 194 208 213 213 213 206 194 179 160 139 128 154 182 196 212 218 224 220 216 207 192 165 147 154 147 144 150 168 173 175 173 174 185 177 178 178 179 169 116  76  94  97  66  82 116 156 189 184 180 163 139 129 117 151 190 194 188 183 182 189
 194 192 195 194 193 192 193 197 200 203 209 208 141 129 138 118 133 161 184 195 201 195 192 181 180 189 191 192 191 160 121 143 176 196 205 213 217 208 197 174 141 131 157 178 182 176 170 172 189 197 209 212 205 186 164 158 153 147 146 157 169 168 168 183 190 178 182 179 178 166 122  84  77  82  78  72 135 162 136 111 144 176 147 134 136 172 199 198 194 192 190 195
 190 190 190 191 193 193 196 201 206 203 206 210 159 126 144 145 140 150 152 132  95  67  44  39  53  58  56 108 137 134 130 121 156 195 215 220 215 201 183 159 141 141 134 126 116  98  61  69  49  55  58  61  95 144 170 166 164 168 167 164 164 161 177 194 190 175 183 179 174 173 130  83  69  78  86  76 120 137 132 136 140 167 147 139 153 185 199 200 201 196 193 194
 186 192 195 195 193 192 196 203 206 200 199 202 172 127 148 156 154 128  69  31  45 134  78  33  44  58  61 125 127 140 145 122 142 195 229 232 215 199 182 170 147 125 120 124 108 100 159 179  70  53  29  22  49  64  76 111 146 158 165 171 167 178 191 199 186 175 181 179 172 171 131  74  69  79  94  80 124 178 164 152 163 168 145 155 168 186 197 200 202 201 191 189
 191 195 192 190 191 195 197 200 199 198 196 201 179 126 151 161 150 100  44  58 120 190 156  54  47  58 106 202 157 153 191 150 152 204 233 234 221 204 202 193 156 174 155 138 154 172 212 216 101  52  44  57 140 144  65  74 112 143 152 162 168 175 191 195 180 181 180 175 167 164 113  68  65  78  89 141 196 198 170 155 194 174 151 167 180 191 198 197 201 206 197 195
 191 192 187 186 188 194 198 197 194 198 195 198 190 138 154 163 143 118 115 107 117 147 173 128 104 131 175 179 156 153 196 188 172 214 234 235 225 208 209 194 187 204 183 165 161 163 170 199 173 107  99 126 163 136 117 127 138 137 144 156 168 182 197 187 180 182 178 170 168 153  98  73  63  73 116 207 209 198 176 155 194 171 162 177 191 199 201 200 201 204 198 198
 188 185 182 185 188 196 201 198 191 194 194 196 198 161 157 180 164 163 166 161 157 144 145 164 185 204 218 194 182 200 195 183 193 217 231 233 225 217 214 194 194 210 218 204 188 184 176 167 162 176 171 164 148 151 156 178 183 184 175 169 186 203 199 185 185 183 178 171 165 148  97  68  52  73 106 167 193 192 165 167 185 165 169 189 198 199 203 206 206 204 201 199
 187 182 178 186 193 199 204 201 195 192 193 197 201 173 156 188 181 186 189 186 192 192 193 200 202 209 206 195 197 201 182 175 201 216 229 227 220 219 212 200 200 207 205 200 200 193 201 200 198 198 201 207 194 180 187 202 215 211 207 209 209 211 210 195 191 182 174 172 163 137 109  64  54 114 153 158 187 192 173 183 179 159 169 185 192 200 206 207 206 206 205 201
 187 186 189 194 195 198 201 197 194 195 195 194 199 183 158 190 189 193 198 205 204 200 204 204 200 202 205 204 204 195 176 184 208 223 225 225 223 216 208 203 205 202 205 205 204 205 209 210 218 221 219 216 205 204 213 212 217 205 217 219 219 217 212 198 193 179 169 171 152 143 107  56  95 170 193 170 184 192 186 188 167 162 166 172 184 197 203 204 204 205 203 199
 187 190 197 198 195 197 198 196 195 198 198 195 195 190 164 183 191 195 198 202 210 217 216 217 216 217 213 210 208 193 181 194 218 225 224 226 224 212 209 214 215 213 214 208 205 216 222 223 228 227 225 223 221 221 218 220 225 212 221 220 222 218 207 194 190 178 167 163 159 152  98 107 166 201 214 180 190 203 191 180 164 165 166 165 180 198 203 204 206 204 201 200
 182 185 194 197 197 196 199 199 197 198 197 197 198 194 165 179 199 199 203 200 204 215 221 222 211 210 214 216 206 190 181 200 217 223 225 228 226 213 205 214 218 215 220 221 209 206 219 229 231 232 230 224 222 220 223 223 224 226 224 225 219 213 200 190 188 171 159 157 160 152 119 174 198 213 219 195 202 215 183 168 161 165 166 163 178 201 207 204 205 205 204 207
 183 190 193 193 197 198 199 197 195 195 196 196 198 197 164 183 201 200 205 206 207 210 215 214 210 216 220 216 202 191 185 202 215 222 224 224 224 215 206 213 211 213 220 230 222 207 197 211 228 233 233 227 227 229 229 226 227 227 225 224 216 212 199 183 177 166 159 156 156 148 142 199 198 218 211 194 209 213 174 169 159 161 165 164 182 204 207 207 207 204 205 208
 192 193 185 185 197 196 195 196 196 194 195 198 198 198 162 184 197 201 204 209 207 208 213 214 219 223 223 217 196 187 183 200 218 223 222 221 220 216 210 208 203 211 221 232 234 226 213 204 212 220 223 225 227 226 226 227 224 224 225 220 216 211 194 180 170 162 159 158 157 147 150 204 201 209 193 197 222 194 168 168 161 159 165 168 191 208 207 207 208 206 209 211
 196 192 179 178 195 195 191 192 194 193 195 199 200 202 155 173 196 203 208 208 210 211 214 215 217 220 220 214 193 185 183 200 219 226 226 223 218 210 207 206 206 210 216 229 234 235 232 229 220 219 220 223 224 224 225 221 221 225 225 221 217 206 186 175 173 164 157 160 157 144 157 199 178 191 193 209 201 174 169 168 167 164 165 175 199 215 214 208 206 210 214 213
 193 193 187 182 190 191 190 192 193 198 199 200 201 204 153 162 188 196 205 208 210 214 214 215 217 219 221 212 194 184 185 203 221 227 228 225 215 209 206 207 208 208 216 226 233 235 234 231 230 230 230 229 231 230 226 222 222 225 222 218 209 197 176 174 175 162 160 161 155 146 159 187 182 207 200 180 183 180 167 169 171 167 168 185 208 217 217 211 206 208 211 214
 189 191 191 190 187 185 186 192 194 198 201 200 202 206 155 148 182 185 195 204 208 213 214 216 216 220 223 211 193 187 191 208 219 222 225 227 220 211 205 203 201 205 219 229 232 234 235 232 232 231 231 233 233 227 224 218 216 217 213 210 199 184 175 176 173 161 165 162 155 146 149 191 216 217 194 193 199 174 168 172 174 173 176 197 215 218 217 210 206 206 208 215
 191 192 192 190 188 188 189 190 189 195 199 198 199 204 162 140 175 186 192 202 207 210 213 215 215 221 223 210 185 182 188 207 215 221 225 223 219 209 204 198 197 205 221 227 230 234 233 233 235 233 229 229 229 228 222 215 212 209 205 201 190 185 184 176 169 163 162 163 155 140 142 198 213 197 192 200 183 174 176 179 178 176 184 207 217 217 216 214 208 205 207 211
 190 195 195 191 189 191 195 194 196 199 196 192 196 202 172 137 162 186 193 199 201 208 214 215 216 217 217 206 177 179 189 207 217 225 229 224 215 205 196 199 195 198 213 224 231 231 233 232 233 234 231 229 226 224 223 221 218 215 208 200 194 193 190 173 165 162 162 162 150 135 159 203 196 181 194 190 178 176 175 176 176 174 190 213 218 218 217 215 210 206 206 206
 186 190 193 190 190 196 196 197 200 201 196 190 193 200 179 143 158 178 190 197 198 207 215 215 214 213 212 204 184 183 192 204 215 223 224 223 217 203 195 203 199 195 198 211 222 228 235 234 233 234 230 228 226 222 221 220 217 213 209 203 197 195 186 173 164 162 161 161 150 140 176 207 192 189 189 180 175 173 169 168 169 176 200 216 219 221 217 211 208 207 205 206
 188 186 185 182 192 200 195 195 199 199 195 193 195 199 187 145 152 173 187 193 199 209 212 212 212 206 195 191 191 186 185 197 212 223 223 221 215 203 199 204 208 194 182 192 201 214 225 229 231 229 227 225 224 221 219 216 213 211 204 199 197 192 183 170 163 163 162 157 146 145 175 195 186 180 179 177 172 169 167 166 168 184 208 220 222 219 214 207 208 207 206 208
 188 185 183 184 195 200 195 193 197 197 195 198 200 202 192 147 150 165 184 190 195 204 207 208 205 194 183 185 187 178 185 203 220 227 231 222 210 199 196 202 209 194 169 178 189 191 205 216 220 224 225 223 219 215 213 208 209 209 204 195 188 187 181 168 162 161 159 151 145 140 158 171 162 171 179 174 170 168 167 167 174 194 213 222 222 217 212 211 214 213 211 210
 188 186 186 193 198 196 194 198 199 196 195 198 204 205 201 143 149 156 177 188 195 197 202 204 199 188 195 176 159 177 195 215 225 226 232 217 208 190 186 196 204 182 157 187 202 182 186 199 208 215 217 216 203 207 204 196 199 199 195 186 177 178 174 163 162 160 154 149 142 138 139 156 171 180 175 170 169 170 166 170 185 205 216 222 223 217 216 217 218 218 214 208
 192 190 185 188 197 195 193 200 201 195 193 198 205 208 206 144 145 150 170 185 195 195 198 201 196 198 203 193 140 140 183 208 202 206 210 194 179 160 146 147 153 149 155 205 211 200 175 178 196 206 207 206 205 200 192 188 189 182 185 183 183 175 171 162 160 155 148 146 139 153 168 168 171 171 171 166 168 167 166 176 196 211 217 219 220 218 221 221 217 217 214 209
 194 192 185 183 193 198 195 196 196 192 190 195 202 207 209 147 136 149 163 182 191 195 199 198 195 204 205 207 194 147 129 159 172 176 171 153 120 109 115 119 117 133 195 221 217 217 196 170 181 196 199 199 199 196 191 190 180 179 176 177 178 170 165 158 156 154 144 147 143 150 165 164 164 167 169 169 169 168 168 185 209 218 216 216 216 219 224 223 216 215 214 213
 192 187 185 187 192 196 196 195 194 195 195 196 199 204 210 162 125 152 155 177 187 193 195 199 204 206 205 205 190 165 130 113 122 124 127 104 123 152 151 135 148 191 206 209 218 221 216 197 180 185 195 197 197 192 187 179 175 169 165 170 171 163 154 151 153 158 151 143 140 156 169 168 169 172 174 175 173 167 171 194 216 221 217 215 215 217 224 224 216 214 215 213
 190 187 190 187 186 189 190 192 193 195 196 199 199 197 207 180 119 149 149 170 182 191 195 201 205 200 194 191 174 156 157 150 135 130 136 135 174 178 177 182 188 196 195 204 219 222 222 219 193 176 184 188 190 195 189 181 172 161 161 171 171 161 152 144 150 157 147 139 140 162 175 174 173 174 177 175 170 165 181 208 219 220 217 215 215 217 225 226 217 217 218 213
 187 186 190 186 181 185 187 190 194 191 193 197 195 194 203 191 118 143 149 160 179 191 195 195 193 181 178 173 167 167 160 165 162 158 171 166 180 192 193 197 200 197 193 201 215 219 217 215 209 187 173 182 188 193 190 186 175 171 172 175 173 157 149 150 150 156 143 140 140 171 178 180 173 168 171 172 171 178 200 218 220 216 218 219 219 220 226 227 219 216 218 218
 183 184 188 187 185 185 189 190 191 189 191 195 193 195 200 200 122 131 153 159 175 186 191 190 178 165 168 162 163 170 165 166 173 165 162 161 167 193 200 200 204 204 195 192 203 206 208 205 202 203 183 171 181 191 191 188 184 182 182 181 172 161 152 155 154 154 148 136 141 178 176 175 166 161 166 172 183 199 211 218 218 215 218 221 221 223 227 226 217 214 218 221
 190 186 188 190 185 184 186 188 187 188 191 194 191 193 197 203 147 114 147 156 176 187 190 175 163 162 168 160 167 174 176 181 180 166 145 154 177 203 200 203 186 190 190 190 184 196 198 199 195 194 194 181 182 188 190 189 191 189 178 175 166 159 153 153 152 146 149 134 151 175 168 165 163 162 173 186 199 213 216 217 219 217 216 217 220 223 228 224 214 215 218 218
 196 190 186 188 186 187 187 187 188 191 191 194 194 193 196 200 172 112 140 151 174 191 183 167 165 165 155 161 174 171 174 181 182 169 147 160 161 178 200 198 188 185 188 183 186 189 188 197 194 180 192 192 190 190 193 196 191 189 181 177 165 156 149 150 153 149 140 133 155 167 159 158 165 181 194 203 214 221 217 217 218 217 215 215 216 221 226 222 212 214 216 212
 197 197 187 184 185 189 191 188 189 191 193 193 195 196 195 196 192 118 128 148 169 190 177 153 169 159 147 154 173 174 170 189 203 175 174 181 162 165 200 198 191 196 181 175 190 166 174 197 195 197 200 202 194 200 198 193 187 186 180 173 163 155 153 152 152 142 137 134 172 178 169 166 175 201 212 216 222 221 218 217 216 216 214 214 216 218 221 219 212 212 213 208
 194 194 187 183 186 189 190 192 195 189 192 191 192 198 194 193 202 139 115 145 164 188 180 154 161 146 157 169 173 180 187 204 211 203 200 194 187 200 196 196 197 196 183 170 159 170 185 201 191 191 193 196 192 210 209 191 184 183 178 172 165 158 153 146 142 145 133 133 201 209 203 200 208 226 231 231 232 230 229 228 224 224 222 222 221 223 227 224 215 211 212 212
 187 185 187 191 192 195 189 191 196 189 188 189 191 196 195 194 204 173 108 137 154 181 183 155 157 159 157 154 154 158 167 177 183 202 198 197 208 212 203 200 198 189 186 189 185 184 173 171 181 178 176 191 200 215 207 199 189 183 182 176 167 154 148 150 140 136 121 132 218 222 220 219 230 241 242 242 241 240 241 240 240 239 238 238 238 238 239 237 228 217 214 216
 182 181 190 199 198 199 193 189 196 194 188 188 194 197 195 198 204 199 123 121 144 173 177 156 151 146 125  82  64  65  76  83  98 114 127 151 147 137 128 123 116 118 119 122 119 114 119 135 154 167 180 196 210 220 207 194 181 179 186 173 160 154 144 149 138 128 114 139 221 221 219 221 233 242 243 243 243 243 242 243 242 243 243 243 242 241 241 241 237 222 217 219
 184 182 184 192 195 196 195 191 195 195 190 190 197 196 194 198 202 201 149 107 134 155 177 163 156 147 141 135 110 103 104 111 116 112 102  95  94  99 102  99  91  81  97 122 135 167 187 185 182 189 195 204 216 215 207 194 181 183 184 169 163 153 142 136 129 119 105 160 221 220 219 222 235 243 242 242 242 242 242 242 242 241 239 235 232 231 231 231 225 217 218 220
 187 183 182 187 190 195 197 194 191 192 193 193 196 196 196 196 197 196 172 114 120 144 168 175 169 162 158 160 156 151 143 161 170 180 182 174 178 186 183 174 168 166 181 189 183 192 195 198 204 203 202 210 220 210 199 188 185 184 179 172 165 142 133 125 116 106 127 166 219 220 219 223 237 243 242 241 242 242 242 242 241 235 227 220 217 218 218 220 215 213 217 220
 191 188 184 186 188 190 194 195 191 193 194 192 192 196 196 195 196 195 182 133 107 136 156 177 173 167 169 165 138 143 160 173 177 184 192 197 202 201 193 196 197 188 179 165 172 191 197 211 212 207 206 210 215 208 198 183 182 179 173 166 152 136 129 123 101 105 148 168 224 219 219 226 239 243 242 242 241 242 242 241 235 222 218 215 215 217 219 220 217 216 217 219
 190 189 186 186 188 184 191 198 195 194 195 190 189 197 195 193 195 194 187 157 105 119 147 171 171 167 170 176 157 131 150 175 182 177 173 176 175 181 188 188 187 166 150 156 182 202 208 211 207 209 207 207 203 199 187 184 175 172 163 155 141 128 127 104  90 144 154 146 208 223 219 230 241 243 242 242 241 242 243 240 231 221 218 216 216 216 217 220 220 220 217 218
 187 185 185 185 183 182 189 197 191 187 191 190 190 198 198 192 192 192 189 174 131 109 133 154 168 167 168 171 177 146 124 143 158 157 141 133 141 138 154 157 145 132 151 177 195 203 208 209 210 213 209 203 199 193 181 176 165 169 156 143 138 134 113  87 132 162 154 107 100 227 223 232 241 242 242 242 242 243 242 239 233 226 218 217 219 219 219 218 221 222 217 217
 187 187 184 185 181 182 189 192 187 183 187 191 192 194 196 191 188 190 190 182 156 114 118 145 162 169 168 166 175 163 127 109 132 140 152 148 154 153 128 125 131 154 182 197 203 203 205 210 212 209 205 202 197 179 174 166 162 151 141 127 131 129  85 114 165 155 156 123  18 157 243 240 242 242 241 243 242 242 241 236 232 226 219 218 220 221 219 216 218 221 219 219
 189 189 183 186 185 185 189 192 189 185 187 190 191 191 192 192 190 188 190 191 171 135 104 134 157 169 169 165 164 163 154 130 115 130 139 142 151 154 144 145 164 189 195 199 201 200 202 210 209 202 199 197 184 173 168 154 146 145 137 129 125  92  98 161 156 154 153 137  21  39 145 246 250 242 242 242 242 242 242 233 226 222 220 220 220 220 218 213 214 219 219 217
 194 191 185 187 192 192 191 192 194 192 190 189 189 192 192 193 192 190 194 199 181  70  69 123 156 176 168 166 163 163 164 162 151 136 131 137 139 144 144 162 185 189 196 199 199 205 210 214 208 207 198 193 188 178 154 142 133 137 142 135 111  83 151 163 159 155 146 144  39  19  15  83 232 251 242 242 242 242 240 229 219 217 220 221 220 222 223 215 213 215 217 216
 185 187 189 187 190 194 194 192 192 195 191 186 188 192 190 187 187 190 194 198  85   1  47 112 142 170 177 173 172 173 169 171 168 156 149 150 150 151 153 165 179 189 199 198 198 211 217 207 200 211 202 182 179 160 135 135 139 137 133 123  80 123 160 157 159 153 144 146  57  16  41   0  57 229 250 242 242 243 239 225 216 217 220 221 222 227 228 220 213 215 216 215
 178 178 187 190 187 187 193 194 192 190 185 184 188 192 189 185 184 188 202 113   0  16  29  89 133 162 173 178 176 184 187 176 183 189 196 198 197 198 197 201 203 200 200 200 214 221 211 204 201 206 187 175 174 153 137 134 135 132 124  89  90 168 166 159 153 149 144 143  69  15  44  23   0  79 244 246 242 242 236 222 216 217 220 220 222 227 227 219 215 217 216 216
 184 176 181 188 184 183 190 193 191 189 187 186 188 193 191 186 185 202 156  12   0  23  27  85 119 147 161 164 182 191 192 187 188 206 214 217 216 215 217 218 212 208 211 210 221 216 210 205 196 187 168 174 166 141 138 132 126 131 100  75 152 179 163 160 155 149 144 137  64  19  42  36   4   2 118 251 243 241 236 221 217 215 218 218 218 221 222 215 215 217 216 217
 186 179 179 184 182 185 190 186 187 195 194 188 187 190 192 187 197 168  32   0   5  27  20  89 102 123 145 161 175 181 189 184 185 199 211 220 221 225 221 213 208 208 218 220 219 212 204 197 192 187 161 158 145 128 137 136 120  99  72 131 187 164 160 156 145 144 141 130  55  18  39  38  10   5   9 177 251 241 234 220 214 214 216 216 214 217 216 215 216 217 218 220
 184 183 178 180 184 188 190 182 182 192 192 184 185 188 186 193 177  43   0   3  10  30  17  78 123 104 124 153 162 176 175 187 184 196 209 215 216 220 218 213 210 215 219 222 215 201 208 202 191 184 177 145 131 134 132 105  84  59 114 190 177 165 163 148 146 141 141 115  39  22  35  36  13   9   5  37 218 250 231 217 212 213 216 215 214 215 217 217 216 217 220 221
 180 180 179 183 183 183 189 185 183 188 189 188 187 185 192 183  57   0   7   3  18  31  19  44 136  97 108 148 166 170 180 194 183 181 197 207 211 208 206 208 213 217 223 222 208 193 188 193 191 175 159 138 116 115 108  82  62 106 180 182 169 168 162 145 142 139 142  97  27  28  35  33  13   8  13   3  63 235 240 214 212 215 215 212 213 215 218 218 217 217 221 221
 179 177 176 179 179 178 183 185 187 187 187 190 188 191 190  71   1   6   7   2  19  28  23  16 110 131 102 145 160 168 174 187 185 179 186 198 200 200 204 214 218 215 212 209 203 189 183 196 186 174 150 124 106 100  85  62 105 176 184 171 168 168 155 151 146 144 144  77  21  30  32  29  13   8  13  14   2  77 223 220 214 219 217 212 211 213 214 214 216 217 219 220
 180 177 175 174 177 179 178 178 183 185 186 187 193 195  81   1   8   5   7   3  18  25  25   9  59 141 118 114 153 155 160 171 179 178 179 188 189 186 200 199 203 200 200 194 190 182 187 187 175 162 130 107  98  79  61 110 177 184 176 172 168 159 152 154 152 147 132  56  20  34  31  26  10  12  12  11  12   2  72 213 224 219 217 211 209 208 209 213 217 218 218 218
 182 181 181 179 181 181 183 182 181 183 187 194 201  95   1   7   9   8   7   3  18  24  24  12  20 107 144 107 127 156 151 155 158 165 169 171 173 180 183 190 184 182 175 173 179 175 172 183 165 135  97  86  65  61 118 177 184 175 175 170 162 154 147 156 153 142 114  32  21  32  32  24   7  13  13  12  13  11   2  82 220 225 216 211 208 207 208 214 220 220 216 216
 182 178 179 181 182 183 188 190 185 189 202 203 105   2   5  10   9   7   7   3  17  22  25  18   9  62 132 144 101 125 144 140 146 157 173 166 164 168 165 163 163 164 149 156 172 162 160 156 125  85  72  55  78 134 167 188 180 175 176 163 157 150 155 154 153 139  83  12  30  28  30  22   7  14  12  12  13  11  11   2  91 223 221 210 208 208 208 212 218 218 214 216
 179 174 176 179 179 182 192 199 193 170 141  76   3   5  10   9   9   9   7   3  15  20  24  20  10  24  99 145 143  93 104 133 156 158 166 155 157 151 148 139 146 150 153 149 158 145 123 106  73  43  55 105 142 167 180 175 177 175 164 159 151 154 154 154 151 121  34  18  34  27  29  18   7  12  10  12  13  11  13  12   2  97 221 220 210 210 209 209 215 215 212 215
 179 179 179 182 187 185 162 121  71  26   3   0   5   7   8   9   8   8   7   2  14  17  21  21  14   6  59 125 145 148  77  67  97 114 135 143 141 139 138 132 130 128 125 112 100  87  64  45  51  92 125 135 158 179 170 173 181 169 166 156 150 154 156 153 150  79  10  31  34  26  26  12   7  14  12  10  11  11  12  12   9   2  81 174 213 223 215 208 211 213 210 214
 184 192 188 160 114  64  22   3   1   2   5   6   6   7   8  10   8   9   6   2  10  14  20  22  11   6  15 102 131 156 169  99  57  52  65  79  90 104  94  83  77  63  62  61  42  34  43  71 119 140 126 151 177 171 181 183 175 170 166 157 156 158 158 160 133  25  14  30  29  25  22   8  11  16  13  11  11   9  11  14  13  11   3  14  70 144 202 223 223 214 212 213
 166 132  74  27   3   1   5  10  10   8   8   7   8   8   9   9   9  10   7   2  11  14  17  21  12  12   5  49 122 139 170 189 156  98  60  46  50  52  48  44  38  36  35  36  52  84 122 136 136 131 148 172 165 176 179 177 179 170 161 156 156 156 160 159  63   8  26  29  26  26  20   6  12  14  13  11  10  11  11  12  12  13  13  10   8  13  42 101 169 215 228 220
  28   8   2   4   8   8   9  10   9   8   9   8   7   8   9  10  11  12   6   2  10  15  17  21  14  13   7   9  80 131 142 168 188 177 140 112  88  67  69  63  68  89 102 121 137 137 134 133 140 162 169 167 169 172 184 187 176 162 158 163 159 158 168 108   7  21  32  29  27  27  15   6  15  11   9  10  11  10  11  13  13  11  13  13  15  20  16   7  16  61 131 190
