P2
# Generated by OpenCV 4.2.0
92 112
255
 202 204 205 203 205 207 207 205 209 210 208 206 209 208 205 206 205 206 207 201 168 153 190 215 219 201 193 143 189 139 152 126 156 125 146  59  86 106  60  70  23  54  58  80  92  23   5   8  22   4  36  77  77 154  84  64  62  27  33  43  84 105  24  30  29  16  38  37  61  48  44  51 160 207 221 206 206 206 206 206 207 207 206 205 207 206 205 204 204 204 205 204
 204 202 203 205 204 207 207 208 209 210 208 207 209 209 205 203 206 204 188 156 180 170 130 111  98 106 105  48 111 164 152 128 139 130 155 119  87 148 118  46  52  44  39  72  60  26   0  19  37  33  38  80  59 115  78  80  58  39  18  43  81  45  23  38  36  32  34  48  42  29  34  45 108 142 185 214 206 206 207 205 207 206 206 206 205 205 205 205 205 205 205 204
 204 205 202 206 207 206 208 208 206 208 209 208 209 209 206 208 209 200 143 169 192 196 186  80  72  88  79  67  66 146 126 110 120 106 113 149  72 120 145  67  48  44  39  38  42  31  35  66  78  56  58  61  28  54  80  65  58  59  16  26  57  62  52  62  64  36  37  31  24  45  51  31  56  42  75 194 212 205 207 206 206 205 206 206 204 206 205 203 204 205 205 205
 202 207 203 207 206 205 208 208 206 208 210 207 210 209 207 209 209 154 147 189 190 189 184 108  66  45  70  71  40  63  97 101  84  74  75  62  32  82 128  64  41  80  70  34  28  69  79  52  97  59  65 107  25  32  65  51  58  53  22  23  47  64  64  98  58  45  36  34  25  41  31  34  30  54  81 133 220 207 207 207 206 206 206 206 206 205 203 204 204 204 206 205
 204 204 206 207 207 207 208 206 207 207 210 209 212 208 208 209 172 175 210 211 204 205 199 115  85  72  63  57  55  51  63  67  54  50  74  48  53  58  46  45  64  86  65  70  51  87 112  77  83  74  55 118  64  29  50  50  34  35  13  18  56  38  53  78  64  73  68  72  35  44  21  25  33  39 131 157 204 209 205 206 207 207 206 205 205 206 204 205 205 205 207 205
 205 204 207 207 207 207 207 206 207 207 208 212 210 208 207 191 178 217 210 206 209 207 190 123  75  54  56  76  70  39  59  23  11  56  51  27  68  20  55  65  84  88  60  94  91  52  73  78  71  73  77  91  62  38  68  39  31  13   9  39  53  40  65  74  76  79  83  64  51  38  26  48  39  35 101 180 205 204 205 208 207 205 206 207 207 206 205 205 205 206 206 207
 204 204 206 208 207 207 207 206 208 208 208 211 210 208 210 184 197 213 208 205 205 201 175 117  61  55  50  77  68  51  48   8  22  34  36  98  44  41  52  58  50  79  57  78  82  39  24  25  26  13  41  98  57  59  38  23  34  20  25  51  11  21  48  74  52  58  85  50  41  41  44  49  39  45  59 101 182 224 212 206 207 206 207 207 207 206 205 206 206 205 206 206
 205 205 206 207 206 207 206 207 208 207 208 208 211 208 210 201 209 210 207 205 207 206 172  78  70  70  26  72 106  83  49  14  22  21  67  66  19  43  48  48  47  72  70  31  36  38  12  10  24  18   1  34  69  50  16  10  15  19  28  37  32  62  82  52  45  84  92  56  56  47  37  42  35  48  75  70  55 129 207 212 205 206 208 207 207 208 207 206 206 206 208 206
 207 207 206 207 207 207 206 206 208 209 210 210 210 208 209 212 211 209 207 207 217 194 105  72  84  97  27  92 125  89  14  18  30  38  32  13  11  24  32  79 104  74  63  11  13  24  17  11   6   8   1   2  29   9  10  16  10  11  14  15  33  84  67  42  58 116  73  72  56  44  42  54  49  49 103 137  33  42 113 205 208 207 206 205 207 207 207 205 207 207 206 205
 206 205 207 206 208 209 207 206 209 210 211 210 211 210 209 209 207 199 188 187 180 124  87  85  94  78  51  56  74  35  29  37  34  23  13  25  56  59  63 100  56  49  63  31   8  12   4   5  10  15   0   1   0  15  39  25  15  11   1  18  33  29  57  39  49  99  65  76  53  50  47  65  66  95 133 110  91  57  86 135 211 205 207 207 206 207 206 206 208 206 207 206
 206 205 207 206 207 211 206 208 210 210 210 211 212 210 211 210 220 212 201 180 156 163  90  90  81  82  44  16  24  24  42  27  16  42  80 107 102  43  70  59  17  38  35  18   6   0   0   2  16   7   0   0   5  44  31   4   6  22  20  38  42  47  32  20  47  57  73  97  74  57  46  81  75 110 134 122 128 110  80 115 180 209 207 208 206 208 206 208 207 207 208 209
 205 206 207 207 210 210 208 207 209 212 211 213 211 208 212 191 148 141 146 139 154 105  68  85  70 140  65  27  36  32  31  28  36  51 101  95  28  32  61  42  26  30  24  16   8  13   9  27   3   0  11  27  18   9   6  21  43  48  35  34  16  20  13  14  38  75  78  61  64  70  88  86  91 107 151 142 141 106  89 116 143 215 211 209 207 208 208 208 207 207 208 207
 206 206 207 208 207 208 209 207 211 212 212 211 211 212 200 151 179 201 211 166 133  78  84  63  58 131  60  21  30  38  35  42  42  32  29  15  33  60  23  15  26  12  12  23  20  23  23   5   1  30  23  14   6  17  14  21  28  26  16  17  24  16   3  15  40  58  93  92  82  88 104 107  88  87 126 156 128  91 138 136  91 188 216 209 208 208 209 210 208 208 208 208
 207 207 208 209 207 208 208 210 212 213 212 211 208 212 174 168 190 189 125  90  44  47  58  23  28  65  37  51  34  33  38  37  21   9  26  79  97  34   6   8  15  31  33  43  24  12   9  33  55  38  11  13  20  21  24  22  50  30  20  19  15  17  25  22  35  45  52  69  69  55  66  87  79  83 121 117  72 140 148 131  81 136 213 209 207 208 206 211 209 209 208 208
 204 209 209 209 207 207 210 212 211 211 211 209 210 214 158 163 222 161 116 109  75  53  39  38  42  29  41  45  12  26  33  14  28  51  74  67  48  34  23  15  23  27  31  22  14  17  33  46  33  45  43  22  27  34  51  79  41  46  39  14  18  17  22  19  34  41  46  49  73  69  38  44  62  84  90  73 133 165 152 128  74 143 190 209 208 209 205 206 207 209 209 208
 208 210 209 209 210 211 210 212 211 211 212 212 207 206 174 180 178  77 111 143 124  73  61  73  55  36  21  11  15  15   9  24  43  44  36  52  87 114 111  93  75  59  63  51  45  25  22  17  11  11  19  29  34  30  41  67  68  65  83  37  20  19  16  34  49  38  57  90  94  73  55  38  32  51  90  96 147 134 152 130  81 161 195 215 205 209 204 198 204 210 209 207
 209 208 209 210 210 209 211 212 211 212 213 211 205 207 213 156  92 110  83  98  79  75  81  72  89  79  30  26  24  28  27  18  19  30  22  26  34  43  45  56  79  71  76  75  66  38  30  19  25  26  12  16  29  43  62  53  71 103 104 120  97  40  26  56  32  34  39  32  62  76  73  41  35  35  45  67  95 128 135  94 105 145 176 210 210 210 209 202 204 209 208 209
 209 207 211 210 209 210 212 213 213 213 213 203 199 211 223 159  26  80  86  50  55  59  51  37  27  35  36  27  24  24  15  12  13  12  16  16  11  16  30  30  22  28  46  45  36  43  28  28  29  34  15  14  29  31  45  68  61  33  72 103  92  64  30  29  24  31  43  64  85  80  78  78  63  43  35  33  45  95  93 116 113  92 102  95 209 211 211 182 195 211 208 208
 209 210 211 210 209 212 213 213 214 210 190 190 205 201 124  44  58  67  44  61  52  51  31  36  45  38  32  29  23  29  36  36  39  40  42  45  41  34  40  25  16   1   4  28  45  31  30  30  24  41  69  62  35  22  29  45  54  57   9   0  15  79  81  28  30  40  42  46  76  94  90  62  62  66  50  31  51  55  49  51  61  61  69  42 178 218 218 143 172 216 209 208
 210 212 212 212 213 212 213 214 210 182 194 211 214  73  26  43  75  51  52  92  65  31  15  23  36  51  28  23  28  32  33  33  39  24  23  31  29  10  23  31  39  52  45  18  14  22  31  52  39  31  50  57  69  85  88  91  88 104  91  33   0   5  66  35  23  17  18  45  24  38  71  87  46  49  73  55  16  33  38  34  36  97 187 163 119 216 211 118 176 215 208 209
 212 211 212 212 211 212 212 216 180 196 218 191 148  87  91  76  76  40  57  79  47   8  30  46  43  38  35  28  41  29  21  23  27  24   1  25  29  13  13  15   8  56 102  62  13  25  39  57  63  44  58  60  55  69  90  86  98  88 108  61  17   5   1  11   9   9  10  19  51  46  66  74  81  45  42  79  64  35  43  51  64  77 166 207 110 207 164 121 185 217 209 209
 214 212 212 213 212 204 200 199 162 189 169 106  95 105  95  85  63  38  47  32  23  44  59  43  42  43  24  21  33  32  27  28  26  36  37  40  39  47  28  28  27  37  79  50  21  38  26  23  34  64  64  50  78  66  85  85  95  88  61  44  24  23   7   2   5   2  10  23  44  65  76  50  57  68  71  33  68  83  61  62  59  73  71  82 125 171 153 177 190 212 208 207
 212 212 210 212 213 208 195 177 127 132 114  70  59  79  78  76  65  63  45  37  41  59  40  38  27  28  51  29  38  41  34  25  15  35  63  48  38  67  41  23  49  47  24  38  60  65  50  28  21  34  59  80 105 106  91 126 136 105  65  38  15  12  24  28   1  14   6  22  28  25  45  40  50  66  66  89  41  89  68  64  54  44  29  36  98 152 198 145 204 211 208 208
 211 213 211 212 210 210 152 148 101  68  66  76  88  84  70  68  86  61  55  30  42  40  43  50  34  21  58  52  36  49  51  24  23  20  58  56  18  28  52  24  38  49  33  52  65  60  65  57  63  50  25  66  81  85 122  99  93  69  56  54  39  12  26  50   7  15  14   8  24  18  22  27  56  72  75  90  81  51  84  92  80 107  76  65 121 203 129 169 216 209 207 207
 208 213 210 211 211 190 170  97 110 115  81  81  80  66  68  67  72  52  44  31  50  73  40  24  21  21  31  57  70  55  55  49  30  31  44  72  54  23  56  60  18  29  20  24  58  94  77  70  65  43  43  48   9  12  22  14  36  44  36  75 116  28  19  32  26   6   7  12  20  28  12   5  35  74  91  74  57  67  41  76 104  96 145  91  84 100 165 219 207 209 209 208
 211 213 211 214 207 191 113  86 118 112  66  72  60  71  62  55  58  53  41  40  91  89  33  20  14  14  14  17  40  93  70  39  64  41  32  20  62  57  48  55  31  19  10   6   4  32  48  56  68  70 130 109  47  34  23  10  26  47  43  71 110  26   5   4  30  26   1   1   3   8   8   2   7  42  92  45  90  71  67  44  56  51  63  60  64 181 216 205 207 207 207 208
 210 212 211 216 211 136  82 166  81  51  79  83  90  86  62  48  61  65  51  83 112  48  37  45  26  23  23  15   5  22 113  88  61  72  41  11   6  18  14  14  17  21  14   6  19  32  48  91  82  85  82  70  68  61  40  38   8   8  17  22  82  36  12  10  10  23  14  11   7   9  16  28  16  17  42  37  77  76  60  81  57  60  94  93 101 200 212 207 208 208 207 207
 212 211 212 216 212  85 176 134 117  97  74 100  97  77  47  49  65  71  95 137 106  56  49  57  50  47  51  37  28   7  15  97  92  54  87  52  27  28  11  36  31  27  31  21  29  43  45  75 105  66  36  30  28  31  36  37  20  12   7  12  31  22   7  21   9  22  23  12   6  11   7  23  22  24  22  32  56  88  43  61  70  54 100  93 121 191 214 208 206 208 207 207
 211 211 212 219 188 102 144 135 125  73  80  83  86  75  61  68  73  74  77  77  84  80  86  85  89  81  91  75  60  44  17  22  57  51  89  80  33  46  39  31  33  23  40  43  42  61  41  39  55  80  81  59  41  35  27  11   9   9   2   4  10  26  10  10   3  16  27  33  34  23   5  12  18  14  10  25  32  70  48  47  55  22  27  72 119 199 207 204 203 204 206 206
 209 210 213 217 186 125 118 125  81  58  54  66  87  95  96  80  56  63  90 110  88 111 121 131 142 142 129 126 114  94  76  49  37  35  64 105  53  29  61  44  30  30  28  43  44  37  41  35  18  10  32  43  44  25  16  15  16  12  10   0   3  25  11  12  10   5  13  28  54  66  19  12  16  37  18  22  18  27  45  19  42  44   4  64 141 205 205 202 203 205 204 206
 211 209 214 216 207 124 130 114 118  76  59  76  95 103 100  67  58  78  92 138 122 141 159 166 165 170 170 167 161 143 127  99  66  43  31  71  97  41  44  64  46  36  35  43  32  14  41  42  21  11   4  10  13  13  13  23  37  22   3   2   3  19   9   6  14  15   9  12  34  38  35  14  10  18  29  15  22  15  36  33  19  57  20  77 215 196 202 202 205 204 205 204
 209 210 212 215 213 136 107  96 116  83  48  80 102  90  75  67  72  75 101 116 143 149 165 178 177 179 184 191 185 172 151 140 115  88  69  49  70  74  46  63  84  59  50  46  34  33  42  62  51  36  31  21  11   8   8   5   4   8  14  17   7  14   6   0   6  16  15  13  35  15   9   5  14  23  10  13  15  25  23  41  42  50  42  61 163 202 199 199 202 204 203 203
 210 212 211 214 210 135 114  95  84  56  44  74  89  78  85  75  58  84 105 103 128 146 168 180 184 178 182 193 197 187 177 168 161 140 113  93  56  53  61  45  62  55  39  40  57  50  47  53  74  66  45  31  10  13  16   9   1   1   3  13  13  10   4   4   8   7  20  28  41  17   2   2   9  24  27  16  27  31  39  16  24  35  57  38  40 163 208 197 201 202 201 202
 215 213 209 218 200 122 109  87  70  60  57  90  88  85 104  83  64  79  88 106 115 152 173 180 185 174 183 191 199 196 192 184 184 179 165 144 115  65  60  30  28  64  83  91  84  64  61  57  60  58  44  30  24  26  12   7   5   2   1   2   8   8   3   5   8   2   9  23  46  34  16   2  10  15  22  28  16  28  48  41  22  19  55  49  56 106 204 196 200 199 200 201
 212 211 211 218 187 115  81  71  80  76  90 106 104  97 101  95  85  80  87  99 123 157 169 174 178 179 184 192 198 190 192 193 198 198 197 179 165 127  61  53  28  30  57 101 106  81 104 107  90  80  75  66  41  28  30  17  18  21  12   8   7   0   1   4  10   5   6  19  47  44  33   8   8  20  19  13  25  28  29  56  44  37  55  59  78 117 190 187 189 195 200 199
 214 214 212 218 188 117  77  72  83  85 104 112 107 105  91  87  92  97  97 110 133 152 168 173 175 183 186 188 191 194 197 198 202 204 213 203 182 166  98  69  57  30  15  37  84  99 155 160 156 147 133 116  91  79  39  23  20  13  10   1   0   1   0   1  10   8  13  16  28  41  38  27   1  11  28  22  21  24  23  39  53  50  72  62  69 134 163 195 179 176 183 200
 212 214 215 216 181 136  83  86  85  99  89  96 100  99  91 100  92 105 102 110 142 158 172 175 178 182 186 190 194 198 201 204 203 202 212 216 208 188 135 112 101  68  58  52  45  50  91 143 148 136 135 138 146 108  40  30  28  14   6   5   1   5   3   0   1  14   5   8   5   7  19  38  30  38  33  29  23  16  12  26  40  53  63  72  76  95 166 199 181 152 159 190
 211 204 205 207 132 159 110  81  86 104  93  99 112 113 103 113 103 108 102 123 146 160 175 178 178 180 187 191 193 194 199 204 203 201 210 220 214 206 163 161 149 106  76  90  88 115 134 152 145 153 165 166 148 134 115  93  67  40  18  11   4   2   4   1   0   3   5  11  12   5  21  18  47  56  59  51  41  19  14  52  45  46  74  83  60 136 186 195 194 156 150 190
 210 181 127 109  68 156 167 114 101 102  95 103 116 120 113 105  99 111 100 116 140 166 175 178 185 178 183 190 192 191 197 200 200 203 211 213 203 194 172 187 180 158 112 103 103 117 125 134 138 139 142 154 161 170 178 175 139 111  87  65  56  52  24   5   1  12   9   4  16   3  29  71  92  55  49  51  82  89  69  63  55  35  79 124 103 118 180 195 190 147 140 192
 210 181  94  52  67 109 177 159 123 101  94  99 101 118 107  85  96 110 111 115 138 164 172 181 184 185 185 192 191 191 196 198 197 196 203 212 194 170 184 190 185 181 176 175 166 169 177 180 180 176 181 186 185 180 180 185 174 163 154 139 145 157 127  47   4  12  30  13  11  31  58 102 131  79  32  27  54  68  71  52  58  54  50  78 114 140 168 177 157 100 146 198
 208 213 194 112  90  78  94 142 147 126 107 102 102 122  99  81 107 114 125 122 134 163 171 178 182 187 184 186 191 192 189 196 195 189 192 199 190 178 173 173 178 186 185 187 187 193 196 196 197 194 196 195 191 188 193 193 190 191 185 175 183 183 183 140  52   7   6  13  21  46 131 123  87  35  23  28  39  48  39  40  48  64  59  60  59 101 149 169 122  66 177 198
 212 214 217 188 103  81  87  97 106  93  89 109 116 108  90 103 127 117 133 123 128 155 167 178 191 195 190 190 199 204 198 203 204 201 206 211 215 205 203 208 213 208 213 216 217 220 219 215 216 213 218 216 213 211 210 204 197 192 186 186 194 184 187 190 160  74  18  18  32  61 138  97  41  21   8  20  24  39  40  58  40  39  48  89  87  73  78 104  79 100 200 193
 212 211 215 211 132 125 110  86  75  78 117 123 109 107  97 115 115 128 138 130 132 150 171 178 188 199 194 190 195 199 202 206 210 209 212 217 219 216 219 217 219 217 222 217 216 214 212 203 203 209 211 208 210 208 204 201 193 191 188 188 191 187 186 184 182 159  75  21  28  56 104  57  23  20  21   9  42  90  56  60  75  49  51  63 127 116 109 120  89 159 202 192
 214 211 214 216 175 164 100  71  75 119 121 109 115  98 103 114 111 135 140 141 140 151 171 182 187 194 199 196 194 195 203 206 209 210 214 216 217 217 218 213 211 213 213 213 210 212 208 199 209 215 209 211 211 201 199 196 197 193 191 196 195 194 188 182 174 166 123  52  22  18  40  25  22  20  24  23  51  95  89  73  87  79  55  44  99 124 132 126 132 193 190 192
 213 212 213 214 206 168 103  99 127 147 125 116 123  98 102  96 125 134 134 139 144 154 168 182 191 193 198 198 194 196 202 205 208 209 213 220 218 218 222 218 210 208 204 211 212 220 207 201 213 209 208 213 210 206 207 206 206 202 199 202 201 198 190 185 177 158 138 111  67  20  19  28  14  31  36  26  21  56  82  79  92  86  38  53  86  96 105 136 187 186 185 189
 211 213 212 214 200 157 132 145 179 161 136 135 133 108  90 103 131 122 142 142 144 157 170 178 192 199 201 204 205 204 206 203 205 209 211 211 219 219 227 228 222 221 222 219 223 223 208 212 216 214 216 221 220 211 208 204 201 203 203 202 200 195 189 185 176 158 143 133 119  61  22  21  25  31  28  30  36  59  80  77  91  52  35  62  98 114 127 141 140 175 188 188
 212 212 213 212 195 165 154 167 198 174 116 134 138  98  99 102 124 133 151 150 150 161 170 180 192 201 202 204 206 207 209 210 210 211 213 210 211 217 228 226 217 222 228 228 220 217 214 219 225 220 217 217 213 206 205 203 203 201 200 204 202 197 190 183 174 160 145 135 131  96  47  25  13  13  19  36  52  88  93  70  72  28  40  70 117  96 103  91 107 157 178 186
 212 212 214 214 206 182 164 177 182 159 114 153 149 101 102  91 113 134 153 153 154 166 176 187 193 201 205 207 207 205 204 204 207 209 213 214 214 212 215 216 214 214 213 213 211 214 217 222 218 217 211 208 208 206 207 204 206 203 198 202 202 195 191 184 174 159 148 136 133 127  86  37  14   8   9  20  47  62  64  56  35  37  39  62 109  94 100 109 138 161 170 184
 212 213 214 215 210 201 167 171 161 145 115 181 155  96 105  97 118 134 149 152 157 171 181 189 196 201 207 210 212 208 203 206 202 206 210 207 209 214 211 207 209 207 202 198 201 209 210 211 216 210 206 205 207 206 205 205 206 204 201 201 195 193 193 183 176 166 155 139 144 142 109  56  23  18  10  10  28  51  50  43  41  49  30  51  80  85 119 147 150 159 181 183
 207 213 212 213 209 214 180 158 148 132 125 180 154 106 126 129 125 136 158 153 157 170 184 193 204 200 202 211 211 212 204 205 201 204 209 209 206 206 211 207 202 197 191 191 194 202 204 206 205 201 207 212 211 210 207 205 199 195 195 184 178 184 188 185 182 178 165 143 146 142 125  84  42  26   9  12  13  34  49  41  45  47  34  51  68  88 116 122 131 165 178 181
 210 212 212 210 215 207 190 155 140 120 124 171 157 117 101  98 125 147 162 155 157 172 182 191 192 176 176 189 195 200 200 200 199 204 210 210 211 205 206 205 202 192 189 193 191 195 195 198 194 199 201 201 203 204 204 198 184 179 164 161 158 163 173 180 184 176 163 153 147 143 138 115  57  27   7  11  30  62  41  35  44  53  46  55  69  92  93 111 151 169 173 178
 211 211 211 209 199 183 185 151 131 118 115 143 151 127 101  83 119 156 156 152 159 173 180 175 173 168 165 161 161 170 176 166 164 171 185 192 197 197 199 198 194 192 192 185 187 191 188 182 192 191 189 175 142 126 143 136 130 125 117 131 152 165 171 168 175 169 156 156 151 145 147 124  78  51  40  54  72  57  36  32  53  57  46  57  70 106 117 147 161 164 172 176
 211 210 212 207 183 173 168 155 129 117 111 132 146 140 121  72 120 163 162 159 155 156 150 149 151 147 140 119  99 100 107  98  92  96 116 139 155 171 181 189 185 185 188 174 177 183 179 179 181 166 163 128  81  56  52  46  51  51  64  83 110 140 155 155 137 136 143 146 139 136 133 123 120 106 102  93  55  39  31  40  82  50  52  67  72  99 117 129 143 161 171 176
 212 211 210 210 209 200 167 154 111  88 102 121 126 120 104  68 113 160 166 157 145 129 123 125 122 121 103  94  61  53  53  51  46  47  59  74  98 129 157 173 171 177 190 183 176 178 177 172 154 127 113  81  60  43  36  32  35  64  91 102  99  95 104 122 123 107 110 127 132 123 128 132 102  71  64  34  32  45  30  87  74  32  46  64  78  95 112 130 144 157 166 174
 214 210 209 210 208 211 186 126  86  54  42  86 132 103  81  64 102 149 163 152 126 114 115 118 122 136 145 155 139 124 107  87  75  61  48  45  59  84 111 139 150 168 184 189 181 177 168 154 118  85  71  49  42  43  56  84 132 179 191 173 132  99  83  83  96  94 100 110 124 118 137 132 105  60  16   8  41  40  60  90  56  31  47  59  77 100 116 132 137 149 161 170
 212 210 211 209 208 208 213 141  79  96  73  66 131 135  93  37  87 147 152 153 125 102 113 130 139 158 178 183 187 192 176 144 124 111  94  79  62  52  64  89 120 155 172 184 185 180 165 132  86  56  42  42  50  47  38  44  75 101 105 125 124  99  83  86  88  84  82  96 108 112 144 127 107  53  13  16  24  29  67  73  46  37  42  60  79  93 109 123 131 144 155 168
 212 211 210 208 206 205 210 158  72  58  81  64  75 158 121  44  79 144 148 149 139 116 115 128 148 143 111  73  69  47  41  23  19  36  51  57  61  57  45  57  93 144 178 189 188 172 135  84  46  28  32  44  44  35  46  21   0   0   0   0  23  34  51  50  64  80  88  93  99 113 144 120 110  66  21  24   8  34  76  56  32  25  34  59  78  92 106 118 126 139 151 164
 209 208 208 206 206 206 204 204 167 107  79  62  57 115 143  83  79 136 145 140 130 119 117 105  79  53  16  31  26   0   0   8  23  62  71  71  79  70  62  69 104 159 197 214 202 165 107  76  51  44  75  66  66  87 147  99  42  15  35  57  81  38  37  47  40  65  73  85  97 132 138 116 108  71  41  30  21  53  60  40  20  33  49  58  78  91 100 115 121 132 145 160
 210 208 208 206 205 204 201 200 204 191 117  48  43  45 121 130  86 128 146 144 124 123 100  56  43  44  48 104 130  54  44  51  89 160 131  87 113 153 135 117 156 188 210 226 212 181 158 147 110 140 118  99 128 156 193 185 114  81 103 161 163 121  69  79 102  93  89  97 122 154 129 117 106  74  36  29  36  42  44  38  22  27  43  55  71  85  96 108 119 133 144 153
 209 209 208 207 204 204 200 200 193 190 146  53  44  36  56 102 108 124 145 164 156 129 111 111 114 100 145 172 202 158 123 135 171 205 183 159 154 179 207 169 170 202 216 228 215 190 176 162 154 163 181 194 193 199 184 202 197 185 181 183 171 160 122 111 150 156 137 138 158 161 143 125 101  75  33  33  38  26  43  26  28  26  36  50  59  77  89 102 115 131 140 153
 209 209 208 208 205 205 201 198 194 190 177  83  54  47  39  32  70 121 150 170 179 158 158 171 170 157 184 186 168 171 187 204 193 196 206 200 199 175 180 180 178 207 218 228 212 196 190 166 155 173 195 198 194 190 190 177 173 184 170 177 183 170 159 170 178 175 181 169 173 175 151 120  93  72  39  34  25  20  45  28  27  22  39  43  56  70  83  96 109 124 136 147
 208 210 209 209 205 202 200 195 193 188 193 123  34  35  28  30  58 114 149 171 190 179 183 197 198 189 181 191 192 196 196 195 198 194 190 188 185 188 174 173 195 200 212 228 209 198 193 173 163 172 193 192 189 190 193 191 187 195 193 186 178 174 179 178 178 177 188 184 191 181 147 112  90  73  35  19  25  26  40  24  29  31  30  38  50  64  78  91 105 118 132 145
 209 211 208 208 204 201 198 194 190 187 186 180  84  19  27  40  51 105 138 168 194 192 185 191 197 201 195 186 184 191 194 189 187 189 191 193 195 201 184 180 196 197 213 230 211 197 185 178 171 178 190 191 183 187 196 203 201 200 199 192 189 184 174 185 194 184 190 189 195 176 138 112  87  63  27  36  23  36  32  24  24  23  27  34  45  60  73  88 101 112 129 142
 210 210 208 205 204 201 196 194 189 184 178 182 176  75  34  56  45  99 140 166 191 192 186 185 191 189 195 201 200 194 195 200 204 207 201 200 205 202 189 187 192 206 223 234 213 200 184 176 182 177 190 197 193 191 202 210 208 204 202 196 189 185 195 195 193 196 194 191 189 169 132 109  81  53  18  32  35  45  24  20  21  19  24  32  44  53  70  83  96 110 126 139
 209 209 208 205 206 202 196 192 188 184 180 176 172 158  92  62  53  91 140 158 182 192 192 182 191 196 191 194 205 210 215 210 202 198 198 204 202 192 188 183 193 210 228 237 224 205 188 176 179 176 186 194 189 182 179 191 201 203 205 196 195 201 199 189 196 199 190 189 183 167 123  93  76  53  15  39  39  42  19  20  32  19  22  27  40  50  64  77  90 104 123 136
 209 209 207 207 204 198 192 189 185 183 178 171 162 166 158  88  61  85 137 149 170 191 197 190 188 197 194 194 194 196 198 193 188 195 203 199 196 187 184 177 195 211 226 234 225 209 189 171 167 166 173 190 197 186 176 157 178 193 194 192 194 196 190 193 193 190 195 186 180 148 109  91  80  55  15  42  39  47  40  27  18  15  16  25  38  47  60  73  84 101 116 132
 211 208 206 205 202 196 189 185 182 179 174 170 164 156 155 120  73  84 132 144 161 186 194 190 191 196 198 194 190 192 194 195 202 204 200 197 187 179 177 174 193 209 230 228 220 201 183 172 161 147 160 186 193 195 199 196 186 183 186 187 189 186 191 182 187 191 192 185 168 125 100  89  83  59  34  62  44  20  16   4   7   9  14  23  33  45  57  68  78  95 112 130
 210 207 207 203 199 197 192 184 179 176 173 165 157 151 148 133  87  82 129 142 154 178 189 193 194 196 193 195 194 194 196 196 194 198 195 190 180 173 169 170 186 203 226 233 219 195 180 164 150 143 162 176 187 196 202 205 203 202 198 193 193 196 192 185 187 188 181 168 144 106 106  87  88  60  54  71  22  17   9   5   6   7  13  23  32  43  56  65  75  89 107 125
 207 207 206 202 200 195 189 184 181 175 169 162 157 154 143 135 101  77 122 143 146 169 175 183 192 196 196 193 194 195 192 192 194 196 182 173 170 169 166 168 184 197 219 238 222 196 178 161 151 148 157 166 184 195 199 199 199 201 200 200 204 195 189 183 179 172 160 150 122 110 107  81  93  61  60  50   6   8   5   6   7   7  10  16  29  41  51  61  73  86 103 120
 206 204 201 202 200 194 186 182 178 172 169 163 157 148 140 136 114  80 110 138 136 151 170 170 177 184 188 193 195 194 197 194 190 194 186 178 171 169 168 172 186 200 215 236 219 194 180 166 153 142 152 177 190 197 199 200 204 201 199 202 202 198 191 182 176 164 154 140 121 129  99  78  91  57  59  24  10   8   9   8   7   8   8  15  24  38  50  57  67  83  98 118
 206 204 203 201 198 194 185 180 177 175 169 160 151 143 137 131 118  90 106 135 138 141 163 169 174 180 190 194 200 199 198 196 188 193 196 189 172 166 169 173 189 202 207 224 215 202 186 165 147 142 150 174 189 199 200 203 204 203 201 201 202 197 193 188 182 174 163 140 132 129  86  79  91  74  37   3   6   7   8   8   7   8   7  13  24  36  46  54  65  79  95 116
 204 203 203 201 197 191 185 180 177 175 166 159 151 141 133 126 118 101 106 130 143 142 155 170 180 185 190 194 197 200 199 196 192 192 196 187 162 147 159 171 192 198 201 220 221 202 188 162 133 131 137 164 187 200 199 200 201 202 205 200 198 198 194 188 182 174 166 148 143 118  82  83  94  52   3   5   3   4   5   4   5   7   7  11  21  32  42  51  63  77  96 113
 203 202 201 199 194 189 186 183 177 170 165 158 151 138 131 125 113 101 105 121 143 148 157 171 176 185 187 190 191 196 199 195 193 189 188 179 153 143 160 169 185 193 205 223 218 198 188 165 133 137 132 157 183 195 197 198 196 199 200 197 194 192 192 186 180 173 164 151 139 109  83  87  88  21   1   6   5   6   6   5   5   7   8  10  18  27  38  50  62  75  92 111
 204 203 201 197 193 188 188 180 175 168 163 158 152 139 130 125 114  97 102 117 138 145 159 171 175 181 186 189 192 190 191 194 192 186 178 173 156 162 175 170 183 193 200 210 213 196 193 166 148 173 154 136 160 175 185 191 188 189 189 193 188 184 181 174 170 167 156 139 121 108  86  89  81  17   2   5   5   4   6   6   6   6   6  11  16  25  36  49  62  74  88 107
 201 200 199 196 192 188 183 176 174 169 164 159 152 148 139 128 116  98  98 110 133 144 152 165 173 179 181 185 190 190 187 187 182 176 167 163 154 174 187 172 179 187 192 200 221 208 188 162 150 175 173 123 142 153 161 173 175 180 183 181 173 165 167 158 155 148 133 122 117 103  86  83  72  11   3   5   4   7   6   5   6   6   7   9  14  22  33  48  61  73  89 102
 200 199 198 195 190 187 182 177 175 168 165 161 154 148 140 129 116  98  92 103 124 142 142 157 169 175 176 181 188 186 181 179 171 163 155 159 157 178 187 172 178 184 193 201 223 210 183 162 144 165 169 126 150 151 136 150 161 166 169 168 162 154 148 135 136 121 113 111 112  94  81  86  68   4   3   4   4   5   6   6   6   7   7   8  13  21  32  46  61  73  86 100
 199 200 199 193 189 186 182 176 173 167 166 160 155 149 142 128 116  99  91 102 119 137 134 145 161 167 172 174 171 177 172 170 166 153 163 183 150 127 167 168 178 189 198 201 206 201 180 144 129 137 119 103 158 166 144 125 135 147 153 155 152 148 137 133 117 102  93  98 104  84  77  89  56   3   5   4   5   4   5   5   6   6   7   8  13  20  29  45  59  73  86 101
 203 199 196 192 190 186 182 177 173 168 165 161 154 149 143 130 118 100  87  98 109 133 128 129 151 162 165 170 163 163 163 159 154 160 179 196 173  65  54 104 155 184 186 181 183 173 138 100  67  47  48  76 163 180 166 138 121 134 143 146 145 138 127 113  96  83  81 101 107  81  75  83  47   2   4   4   4   4   5   6   7   7   6   9  13  18  28  42  57  73  88 102
 201 198 194 192 190 185 181 178 175 168 163 159 154 149 144 133 119 101  85  99 102 122 128 119 135 152 154 159 160 158 157 151 154 180 190 198 184  77   8   4  52 128 145 137 137 117  71  23   4   5   9  57 157 181 179 173 144 114 119 130 126 122 121 116 101  93  98 114 103  74  76  83  35   0   3   4   5   5   5   5   6   7   6   9  14  21  29  42  58  72  89 101
 199 195 191 191 189 184 182 177 173 169 167 161 154 150 139 131 117 103  85  94  97 111 126 119 118 137 148 151 153 148 148 156 175 190 197 204 191 132  79  35   3  17  66  85  80  42   4   2   6  19  46  92 161 185 189 188 177 149  98  98 123 131 129 123 111 114 120 124  99  72  74  75  20   2   5   4   4   5   5   5   6   6   7  10  16  24  35  46  59  74  89 104
 196 195 191 189 187 181 180 176 172 165 165 162 154 147 136 128 113 102  85  85  92 102 125 120 118 122 135 145 149 148 150 173 183 181 193 195 194 169 140 108  60  10   2  13  13   1   2   7  26  77 111 131 159 179 181 173 166 167 150  96  94 126 135 128 123 122 124 125  93  65  74  64   8   4   4   5   3   5   5   5   5   7  10  12  21  28  39  48  62  75  90 105
 196 194 193 189 185 181 180 176 172 167 162 158 153 146 137 128 116 103  90  80  92  93 122 128 127 127 133 138 136 137 156 178 174 173 177 182 185 176 167 147 121  75  20   0   0   3   9  40  92 131 142 140 155 174 162 162 162 155 155 151 115 117 136 138 132 121 125 117  82  64  78  51   2   5   6   4   5   6   4   5   6   9  11  17  24  34  44  53  65  78  91 105
 198 195 193 189 186 181 179 176 171 167 164 157 151 146 136 128 118 105  93  79  89  90 108 135 131 129 138 141 131 142 162 171 161 158 176 173 172 167 166 168 152 124  77  33  15  18  47  94 133 140 140 143 154 158 155 150 156 153 148 154 148 138 149 146 125 116 124 105  77  70  76  33   1   7   6   4   6   5   6   6   7   9  14  22  30  39  49  59  69  82  93 107
 194 195 193 188 185 180 179 176 170 167 162 157 151 146 139 131 121 109  98  82  82  92  97 127 134 136 139 146 144 144 154 164 156 156 168 169 157 164 169 165 155 135 106  72  57  65 102 126 135 142 141 143 148 149 147 130 145 150 146 145 136 156 164 135 109 112 120  98  77  71  67  12   3   5   5   5   5   5   5   6   9  12  18  25  35  43  54  61  74  85  97 110
 197 196 194 189 185 181 180 175 170 167 163 159 152 147 142 133 124 116 102  86  77  85  90 120 129 133 145 150 150 143 142 156 152 144 145 156 157 155 162 153 151 138 108  89  84  80 111 140 136 142 145 139 140 128 100 111 136 128 129 132 131 172 173 141 112 120 117  96  74  73  50   0   5   6   5   4   5   5   6   7  12  18  23  30  40  50  58  67  79  88  99 113
 196 196 192 188 186 181 180 176 170 167 163 158 153 148 141 134 131 124 108  94  81  79  84 106 124 125 139 150 158 144 143 143 128 108 105 126 139 149 151 148 141 149 139 115 108 112 119 131 139 138 130 127 116  94  79  66  64  83  98 116 146 185 169 133 106 120 110  89  70  72  22   2   5   5   4   5   5   5   6  11  16  23  28  35  43  53  61  71  82  91 105 119
 197 196 193 189 185 182 179 175 170 166 164 158 153 150 143 138 133 124 112 100  88  78  79  92 116 124 128 146 161 141 125 115  99  78  83 114 125 144 148 149 156 173 174 157 159 167 176 158 153 141 128 123 107  78  32  26  70 104 124 144 165 183 158 121 101 112 101  80  71  55   1   4   4   4   4   5   5   5   9  15  21  28  33  41  49  59  67  75  85  98 109 121
 197 197 192 190 188 183 180 176 172 167 164 158 153 151 145 142 134 126 117 106  96  82  76  80 103 119 120 130 155 144 112  97  79  43  24  51 101 123 138 145 149 159 156 168 180 176 169 149 132 112  92  63  31  12  60 133 150 158 163 160 178 173 138 107 112 115  93  73  72  21   1   4   5   5   5   5   5   6  13  20  26  33  39  47  55  63  70  79  92 102 114 130
 196 195 194 190 188 185 181 177 173 168 165 159 155 151 150 143 136 130 121 112 102  89  77  77  88 111 121 126 139 157 145 138 138 119  92  57  11  12  27  42  51  65  72  89 110 108  71  41  21   7   1   4  33  89 139 162 176 169 164 166 179 165 127 103 113 104  79  75  47   0   5   4   5   5   5   5   6  10  17  25  31  38  43  52  59  66  74  87  96 107 120 133
 198 195 192 191 187 186 182 178 174 171 165 160 158 155 150 146 141 134 125 116 108  96  82  75  77 102 118 128 135 156 157 149 157 161 164 151 113  64  32  10   3   0   0   0   0   0   2   9  25  48  74 117 140 124 143 168 180 169 162 166 169 150 116  96 100  89  70  75  18   2   5   5   5   6   5   5   8  13  21  29  37  44  51  58  65  72  80  92 103 114 126 139
 197 193 193 192 188 187 184 179 175 172 167 162 160 158 152 148 144 136 126 117 111 102  91  81  72  83 102 125 137 149 154 147 158 165 173 148 151 169 164 145 121 105  93  82  77  96 135 152 154 155 162 150 117 126 160 168 168 165 166 164 155 136 108  92  94  77  70  75  23   2   5   5   6   5   5   7  13  18  26  36  44  51  58  64  71  78  86  96 112 122 135 146
 195 194 192 192 189 186 185 180 176 172 170 165 162 160 157 151 145 137 128 117 115 108  98  85  78  75  95 108 126 136 147 144 152 160 164 149 123 147 165 175 178 187 198 197 197 199 194 177 165 161 140 116 102 141 167 168 167 169 166 157 142 119  95  82  83  69  72  69  40   2   5   6   6   6   5   9  16  23  32  41  48  55  61  67  74  84  95 104 118 132 142 151
 195 194 193 191 190 188 185 181 177 174 171 167 164 162 158 154 148 141 133 125 121 114 103  96  80  64  84  99 116 138 149 153 157 161 162 158 125 112 137 160 171 176 177 176 181 168 158 154 148 142 115  79 117 154 166 165 170 160 155 150 124  96  84  78  71  70  62  66  56   6   3   5   6   7   7  13  20  27  37  45  54  61  67  74  83  90 102 114 125 138 149 155
 196 194 193 192 190 189 187 182 179 176 172 167 166 164 159 155 149 146 135 125 122 118 108 101  83  57  73  89 103 129 143 142 156 157 155 157 138 101 110 134 153 149 139 127 127 120 111 117 123 107  64  88 146 158 153 157 170 158 147 143 121  89  80  71  72  69  57  63  66  30   2   7   7   6  10  17  26  32  42  51  60  66  73  80  87  97 110 121 133 143 150 158
 194 195 193 193 191 189 186 182 179 177 175 172 168 165 162 157 150 146 140 127 124 121 114 108  87  61  55  80  96 122 139 148 148 148 149 153 149 122  81  80  94  99  82  70  61  60  65  72  68  48  73 131 146 151 153 167 169 156 151 134 116  88  67  71  75  55  60  61  63  58  18   4   6   6  13  21  30  38  47  57  64  70  77  86  95 107 118 128 140 148 155 160
 196 195 195 193 192 190 187 184 181 179 176 175 172 167 161 158 154 146 143 136 132 125 120 115  91  66  52  59  88 107 142 150 151 151 158 156 147 139 107  63  53  60  62  76  78  73  76  58  56  73 114 131 144 154 170 181 160 145 148 120 100  78  67  71  61  50  60  58  60  59  52  13   1  11  20  27  33  42  52  61  68  76  83  92 103 114 127 137 143 151 157 163
 195 196 192 194 193 189 189 186 183 182 179 175 172 169 165 161 157 151 146 142 138 132 125 118  91  73  62  46  73  94 125 142 150 156 157 166 159 149 134 108  75  60  63  68  71  74  74  81  91 108 123 137 152 166 185 176 154 143 125 110  84  64  65  67  52  56  57  56  56  53  58  54  21  10  22  29  38  46  57  64  74  79  88  99 110 123 133 141 149 155 159 163
 196 196 194 193 193 190 188 186 184 182 180 177 173 171 166 163 159 156 152 148 140 132 131 115  91  81  68  55  56  83 115 137 137 145 156 167 176 166 157 143 115  97  89  87  89  89  94 106 114 137 149 167 172 193 190 167 153 136 117  95  72  61  69  54  52  55  55  55  52  50  51  61  72  45  24  29  39  46  59  63  76  85  95 106 119 129 139 146 153 156 163 166
 196 196 195 194 192 192 190 188 187 185 182 178 175 171 168 164 160 156 151 149 145 139 135 110  92  86  74  65  49  63  94 124 129 134 156 165 186 188 180 176 166 159 155 159 159 164 168 168 183 183 178 187 192 199 174 151 142 126 110  75  65  73  57  45  54  55  53  51  50  52  53  61  73  85  77  78  72  74  75  96  94  83 102 116 126 136 144 150 156 162 166 168
 197 196 194 193 194 192 192 188 188 186 183 179 176 173 171 166 163 158 153 150 147 145 131 104  97  92  83  71  59  49  69 100 130 146 155 154 168 193 197 189 186 189 197 192 190 189 193 195 192 184 177 194 196 181 157 148 129 121  92  64  69  68  44  50  54  54  51  47  50  54  57  65  77  87  99 111 117  89  98 123 163 118 102 117 132 142 148 155 160 164 168 169
 195 195 195 195 194 194 191 189 189 187 183 180 177 175 174 169 164 159 157 152 149 145 122 110 102  94  87  79  71  55  49  75 102 126 143 147 159 181 189 183 191 190 193 197 188 192 198 193 192 178 183 195 190 167 139 125 119 101  72  68  67  45  46  52  52  52  46  47  52  54  60  69  81  94 113 123 136 142 108  74 157 187 155 137 134 144 151 158 162 165 168 171
 197 195 195 195 194 193 192 191 189 187 187 182 180 177 174 171 165 165 160 152 155 140 119 116 103  97  93  84  76  62  45  56  87 105 138 136 147 156 176 181 178 190 192 193 191 188 186 181 176 177 190 189 177 150 125 115 116  81  69  71  45  43  50  48  50  46  46  49  50  56  66  77  89 106 129 139 145 155 165 153 144 187 192 184 165 154 154 158 161 167 169 173
 195 197 196 194 194 193 193 191 191 189 185 184 183 180 176 173 170 165 161 158 153 130 125 118 108 103  98  90  81  71  54  34  59 100 115 132 133 137 165 178 168 177 184 175 178 178 171 168 172 180 183 175 157 135 105 109  97  76  66  48  39  45  49  46  46  43  46  51  53  61  74  83  97 119 133 149 157 163 168 175 168 177 185 195 195 184 178 180 173 169 170 173
 195 196 195 195 195 194 194 192 191 189 188 186 183 180 177 175 171 165 163 161 138 132 131 123 109 104 101  95  87  79  67  46  22  56 106 116 117 129 143 155 159 161 160 163 158 162 169 168 165 176 171 155 132 107  95  91  80  62  40  36  42  48  44  43  39  41  47  54  56  69  77  89 111 135 139 152 164 171 181 181 179 181 190 192 192 184 188 194 190 191 178 175
 195 196 195 194 195 194 194 195 193 189 188 186 184 181 179 176 172 176 177 148 138 142 138 128 115 106 107 101  92  84  75  62  36  11  56 104 102 110 123 137 143 140 143 156 154 153 157 160 163 153 139 119  91  77  80  82  64  36  30  36  48  45  40  39  42  44  50  58  63  73  88 103 122 138 145 155 166 179 189 189 189 189 192 193 186 181 188 187 191 200 201 191
 195 195 196 195 194 195 193 192 192 191 188 187 185 183 179 177 191 158 144 144 149 149 143 133 121 112 110 106  98  86  77  68  56  27   5  41  92  85  92 109 112 117 119 126 121 134 139 139 138 116  94  70  69  82  72  48  33  26  31  42  42  38  38  37  41  47  57  64  69  82 103 116 132 143 152 162 171 183 190 195 197 189 194 200 185 184 194 189 186 195 196 202
 196 195 195 194 194 195 194 192 193 192 189 188 187 184 181 182 189 139 152 157 154 153 141 134 127 116 115 108 100  92  80  69  62  49  25   5  22  60  81  87  86  89 100  93 103  98  92  96  80  69  70  68  65  56  45  30  23  28  32  36  38  38  35  40  47  56  66  69  78  93 113 131 140 150 159 165 173 184 194 198 187 189 201 191 183 192 194 200 196 193 194 202
 196 195 195 196 194 195 196 194 194 192 191 189 188 186 176 187 196 162 159 165 159 152 147 142 135 124 117 113 104  97  89  78  72  55  43  23   9   5  31  59  72  76  82  86  88  76  70  71  66  61  58  53  47  41  32  24  25  25  31  36  35  35  38  44  54  61  69  80  90 108 124 142 149 157 161 171 182 188 195 201 192 191 202 181 185 195 206 203 200 187 190 198
 195 194 196 196 196 196 195 195 194 193 192 191 186 183 190 185 200 178 163 171 165 155 149 145 137 127 123 115 108 103  98  81  79  68  55  33  16  16  10  13  33  48  55  63  62  66  63  55  50  44  42  43  40  29  25  23  21  25  31  30  35  37  42  53  61  68  77  92 102 117 133 146 150 160 165 177 184 189 200 199 195 197 204 196 187 189 204 198 197 197 187 191
 196 196 196 194 195 195 196 194 194 194 192 187 180 190 199 186 192 201 176 174 169 159 151 148 144 137 131 126 115 106  99  86  78  80  66  46  26  13  16  17  16  24  29  30  34  37  37  35  35  38  36  33  29  26  21  18  21  22  21  29  38  42  49  61  71  80  91 107 119 126 140 146 163 169 175 183 188 195 200 198 199 199 206 197 184 195 203 199 208 203 200 195
 195 196 197 196 195 197 194 194 196 195 185 188 189 189 195 188 193 202 192 178 167 161 155 152 148 140 129 130 121 113 107  96  87  83  79  62  44  25  11  16  20  24  25  24  24  27  26  22  21  25  29  31  24  19  16  19  20  17  20  33  44  51  57  70  83  94 107 117 126 135 144 155 165 172 179 182 195 200 202 206 201 193 199 192 184 203 200 196 195 208 207 195
 194 195 196 197 197 197 197 197 195 185 182 191 197 185 190 190 193 207 206 185 171 164 161 157 156 147 136 132 127 120 118 109  95  87  87  77  58  42  22  12  15  18  22  23  24  24  24  25  24  24  25  23  18  17  17  15  13  14  23  39  51  58  68  84 101 112 120 127 133 143 150 160 169 171 181 186 196 202 200 200 209 200 200 188 189 213 203 201 202 201 204 202
