P2
# Generated by OpenCV 4.2.0
92 112
255
  59  63  65  70  75  74  75  77  79  77  80  70  81  82  84  89  76  73  44  61  40  24  25  29  26  37  35  47  39  61  52  42  28  31  20  29  40  83  72  25   3  24  69  68  75  67  49  43  51  89 108  69  68  62 116 166 156  91  61  92  81  67  49  67  76  33  36  38  35  69  85  26  18  31  56  57  49  52  60  62  68  64  65  73  82  78  66  52  54  56  59  55
  61  70  71  74  76  76  79  79  79  79  75  83  80  89  89  85  55  37  49  35  13  19  27  24  24  48   9  38  75  63  41  29  22  28  19  21  57  70  23  12  79  26  52  61  58  47  57  70  51  47  43  32  41  43  41  94 112  91 104 108  77  73  66  63  39  34  62  83  69  55  99  58  44  30  44  48  53  51  59  54  64  62  62  70  74  79  67  58  49  52  56  55
  62  74  75  77  81  83  87  83  81  79  81  78  93  87  89  83  62  42  21   6  12  20  30  26  40  43  29  64  60  54  44  33  31  30  30  15  86  52  20  56  38  53  60  78  61  40  41  43  28  13  10  17  25  47  70  88  71  93  97  99 104 103  89  71  61  53  44  87  97  50  59  70  79  82  64  48  64  65  57  59  66  63  56  62  79  75  57  53  42  45  48  47
  71  74  74  77  83  82  87  88  81  81  83  91  91 104  55  46  54  36  21  20  22  26  38  33  58  33  46  59  42  68  75  32  51  39  12   9  58  31  42  21  42  31  84  82  12  27  59  35  35  27  36  43  44  45  41  62  83 103 100  92  91  69  80  59  12  34  71  82  52  50  54  69  95  93  76  33  11  47  55  53  56  54  62  75  74  73  74  58  54  58  54  52
  68  69  71  78  82  79  83  91  82  81  79  91 103  28  53  40  35  48  29  55  51  28  44  31  47  35  17  55  73  72  35  51  39  30  38  39  49  39  37  55  33  47  65  31  20  32  44  24  33  37  34  47  46  70  79  78  63  71  86  95  84  92  71  97  94  77  74  73  53  49  51  93  78  77  78  41  28  13  31  52  60  61  70  75  74  73  78  67  56  58  55  54
  65  66  66  75  80  80  80  79  78  77  80  79  25  26  30  38  42  32  54  45  22  42  37  30  25  25  41  37  71  49  23  67  48  61  62  28   9  21  71  42  17  43  45  44  53  41  54  40  39  30  56  57  37  32   0   1   3  21  14  29  60  26  28  42  58  72  52  66 106  96 112  87  79  49  27  24  31  23  15  35  59  59  74  74  74  79  82  73  66  64  58  55
  68  69  65  71  75  78  76  67  70  75  81  26  16  14  31  30  35  44  36  33  19  43  29  12  23  34  33  64  26  55  27  71  34  57  26  43  37  38  59  13  45  33  68  63  42  32  36  33  18  55  57  22  41  40   5  38  15  24  30  31  52  52  16  30  31  31  72  86  89  81  59  49  26  16  13  12  16  26  12  26  54  61  74  79  76  81  82  71  72  72  60  51
  66  65  70  73  67  69  69  72  69  73  48   4  26  29  24  46  45  35  20  24  46  31  24  16  29  16  32  59  41  46  42  43  33  26  51  51  17  29  47  31  52  42  29  14  19  42  57  38  24  31  35  29  42  60  32  26  49  69  79  58  53  84  92  68  76  98 107  90  66  43  44  34  19  18  19  26  19  15  14  19  48  67  62  60  75  74  74  70  69  72  61  54
  61  66  65  70  73  71  71  70  73  58  11  20  23   4  17  46  19  36  13  31  30  18   7  18  33  17  30  32  88  28  22  14  35  71  43  13  29  53  31  32  29  22  19  25  36  55  18  35  18  15  28  32  19  49  25  41  47  74  82  86  51  30  17  70  54  71  85  70  35  22  22  25  12  21  11  11  11  18  18  35  79  57  65  50  58  59  59  61  58  64  53  51
  74  79  74  76  74  73  71  72  73   9  14  22  12   1  23  46  22  36   6  32  22  13  16  17  27  16  43  55  43  24  19  20  56  66  16  43  34  26  12  16  23  12  17  21  55  63  51 120  15  52  36  52  30  38  24  26  38  61  72  69  78  73  57  34  43  65  90  64  30  24   6  17  14  20  15  16  10  14  22  30  65 115  51  61  52  56  61  58  59  60  52  52
  93  87  83  85  79  77  71  69  36   2  19  26   1   8  27  34  16  10  19  25  32  15   0  34  28  43  57  61  45  47  27  42  40  31  28  20  13  12   9   6   2  35  19  29  40  54  39  50  47  41  50  14   6  13  21  15  40  32  63  61  39  26  21  25  28  31  34  50  27  25  18  10  19  19  18  14  20  22  23  62  70 115  95  54  57  53  55  54  54  53  51  56
 103  96  85  81  78  68  73  57   0   3  20   6   6  16  16  23   6   4  23  27  20   1  16  33  41  51  50  55  66  51  59  28  28  32  17   7   8  27   6  34  55  55  37  35  43  34  29  36  45  59  48  66  27  19  42  54  30  33  18   3  16  13  11  22  22  15  15  21  26  22  21  11  18  21  26  22  25  21  27  56  61 100 121  57  57  53  53  53  54  58  56  68
 101  99  85  80  74  71  68   1   5   5   7   4   8  10  14  11   5  13  23  19   4   0  16  31  44  45  48  56  62  59  65  31  54  11   2   7  31  46  93  47  49  24  11  11  12  16  25  44  66  58  34   1  26  30  40  44  33  23   6  18   9  11   6  11  17  14  15  22  24  35  24  12  15  24  24  22  32  34  52  79  97  71 107 109  66  66  64  60  53  59  66  73
 103  98  79  80  70  81  20   5   3   3   1  11   0   2   3   5   3  11   5   7   0   3  11  30  45  45  43  49  53  56  50  51  42  12  16  29  37  19  14  37  31   5   9  10   4  16  25  30  58  65  50  12  14  19  19  22  21  20  14  12  12  17  23  20  16  20  38  17  26  38  30  15  26  31  33  45  37  47  77  72  88 102  66 114  82  80  65  72  65  62  65  74
  98  86  73  76  73  55   0   1   2   0   3   5   0   2   0   2   2   8   1   7   1   5  16  35  45  43  43  47  44  50  44  48  36  24  24   1  12  11  18   9  19  13  12  13  17  25  27  34  14  25  22  25  17  13  14  20  20  16  17  10  21  32  24  27  25  30  25  34  36  48  34  31  39  53  54  42  57  62 117  92  90  62  76  91  65  70  76  78  66  64  62  74
  75  70  79  66  71   2  16   4   5   3   2   0   0   0   0   4   4   1   1   1   3   5  10  30  46  46  43  52  39  46  43  35  19   6   0   3   8  19  12  30  23  26  39  54  56  32  36  34  43  41  22  17  15  17  19  13  25  25  22  18  28  29  26  40  42  57  46  43  40  55  52  44  66  72  85  76  76  96 102  94  79  49  69  81  75  42  72  71  63  63  59  66
  70  73  70  77  18   7   1   4   3   0   0   1   1   0   1   3   5   2   5   3   6   2   3  21  41  44  48  58  46  43  32  15   7   5   1   4  12  20  14  20  13  21  32  37  53  35  22  22  30  45  35  24  29  23  29  28  35  34  35  29  39  40  45  56  57  57  57  54  85  62  96  83  91 103 107  89 103 116 133 128  95  84  61  68  90  42  75  54  61  61  59  63
  76  75  68  63   0   6   2   6   3   0   1   0   0   1   7   4   3   1   7  11   6   4   4  16  28  33  42  39  37  30  11   1   1   1   1   3   7  12   6   9  17  27  37  32  33  31  36  26  29  29  32  40  53  51  52  45  53  52  56  44  59  59  67  60  62  75  65  70  88 152 132 140 125 130 120 140 145 162 171 160 135  96  72  59  69  51  66  69  68  65  62  67
  80  71  85  17   6   9   1   7   2   1   1   0   0   2   3   2   0   3  10  11   9   6   8   5   8  11  16  14  14  10   1   0   1   5   5  10  13  10   4   5   9  35  38  50  42  28  28  31  46  38  47  59  59  53  66  71  78  84  77  66  74  66  65  80  94 105 103 137 180 159 168 150 157 173 191 208 216 220 228 166  64  87  75  43  67  60  43  70  67  65  62  67
  78  80  76   0  11   3   4   3   4   4   0   1   1   0   4   6   2   3  10   6  12   8  11   7   2   3   4   1   1   7   8   5   8   6   8  16  17  10  10  11  41  42  28  26  45  54  47  48  57  66  66  82  86  98 125 119 128 134 128 128 138 150 147 150 147 164 177 174 200 220 227 240 223 238 231 240 240 234 237 230 152  72  63  44  30  71  29  61  67  68  68  76
  81  82  51   7   9  11   9  18  21  20   5   0   1   1   0   0   0   7   3   5   6   9  13   7   0   5   3   2   2   1   1   8   8  14  19   9  14  11  13  21  37  33  33  40  43  49  55  65  64  89  91 107 127 153 170 173 173 187 199 189 197 213 203 213 229 227 226 240 251 253 255 249 245 248 249 241 245 244 241 238 220  74  91  39  24  52  34  67  68  69  67  66
  85  91  28   7   8   7   8  17  16  19  13   0   2   3   9  10   8   4   5   8  11  12   9   1   0   3   0   1   1   1   9   7   5  11  12  11  12  24  15  36  29  39  42  50  60  62  68  75  91 109 126 151 164 173 186 203 186 203 211 226 219 223 228 234 236 235 242 252 254 252 254 255 253 254 252 247 245 245 245 237 231 177  50  72  23  30  29  61  69  70  69  70
  87  85   8  11   6   9   8  15  18  19  16   1  12   9  12  11   7   2   0   2   6   1   4   6  11  13   3   4   6   9   8   5  12  14  11  16  32  33  44  32  38  58  48  57  64  71  77  96 106 124 150 171 171 181 189 199 216 215 230 237 232 235 229 241 240 246 245 249 253 253 255 255 253 254 253 254 247 243 242 238 232 235  84  72  29  21  29  61  67  71  72  69
  86  81   4   9  11   8   5   4  13  10   7   9  11  13  12  13   8   7   4   7   7   3   8  17  16  14  14  12   5  11   6  13  11  13  24  35  28  21  40  41  55  65  56  67  79  86  88 101 112 142 163 170 188 187 197 205 212 220 221 240 241 238 237 243 245 243 248 251 251 255 255 254 254 250 251 253 249 249 246 240 233 233 178  63  36  23  26  52  69  72  61  69
  78  76   8  11  12   4   6   7   6  12  10   5   4  12  12  12   6   3   6   1   3   8  14  17  14  15  15   7  16  15   7  20  12  20  39  36  22  20  33  61  63  69  68  76  83  99 101 110 133 148 163 161 187 192 206 212 212 220 228 232 239 240 243 247 248 244 246 252 254 255 255 255 255 255 253 248 246 246 244 244 238 232 242  77  38  28  18  63  73  65  62  72
  71  71   7  11   6   4   5   5   5  12   9   8   6   8   7   5   3   8   6   1   7   6  12  14  15  15  14   9  20  12   7  14  18  34  32  27  20  38  64  72  72  91  91  91  89 100 111 125 135 139 162 178 181 183 203 203 214 213 222 224 231 233 234 243 248 245 245 250 249 253 253 253 252 253 251 246 249 246 244 243 238 233 230 149  45  33  34  55  84  86  70  66
  69  59   0  15   7   7   7   3   7  10   8   9   9   8   7   5   9  10   6   7   7   8  13  10  15  12  15  19  25   9  13  14  27  29  23  28  29  62  70  76 100 100 106 110 102 105 115 128 129 133 152 176 182 187 201 209 214 224 227 227 232 233 231 241 244 243 243 248 249 251 251 250 251 251 248 249 249 247 243 244 234 236 239 202  58  30  45  45  90  57  68  64
  74  64   8   7   4   7  10   9   8  14   7   9   9   6   9  12  11   8  10   2   6   7  10  15  16  13  17  26  24   3  19  23  34  31  45  38  54  66  80 101 115 121 111 120 114 109 124 132 135 140 157 179 188 180 187 208 214 227 228 231 239 235 231 235 238 244 244 247 246 247 249 248 250 252 249 248 245 243 241 243 235 235 228 224 128 106  62  50  79  72  59  59
  77  65   6  15   5   7   9  12  14  13  11  14  17  12  15  13  13   8  11  10   8  16  13   8   7   7  14  20  12  15  27  33  48  40  41  55  77  86 110 109 121 139 131 125 122 131 130 136 139 146 160 173 186 164 188 206 211 218 222 222 230 230 227 230 235 243 239 239 238 242 245 244 245 247 247 245 246 244 241 241 237 236 235 232 172 197  85  62  59  60  60  64
  75  60  10   7   9   3   6  21  14  11  20  18  24  17  19  16  12  16  13   9   7   3   9   6   3   3  26  16  14  33  29  45  48  52  67  77  85 100  93 124 129 140 130 138 139 142 131 142 145 141 152 165 185 164 178 201 208 213 211 216 225 222 226 229 229 237 240 239 233 240 246 241 243 241 243 237 243 245 245 245 239 237 236 224 194 216 186  62  59  55  53  59
  77  69  21   8  10   7   4  54  54  68  43  26  31  35  13  23  24  13  10  13  14   5   7   4   3  21  15  12  24  21  50  58  59  63  64  78  85 107 108 125 134 143 150 151 152 153 142 126 141 133 139 141 159 153 146 177 185 186 192 199 195 210 213 218 220 229 238 233 232 225 230 240 239 241 239 246 245 242 240 241 243 244 236 232 190 198 210 141  50  58  51  55
  79  73  37   5   5  12  17  47  65  76  54  20  23  24  34  45  40  31  12  14   6  11  10   8  32  20  27  21  29  41  63  61  64  56  74  91  93 109 116 122 135 146 149 155 169 164 150 146 155 166 187 193 195 200 175 175 200 204 213 210 215 208 213 214 212 218 231 224 219 224 232 235 232 234 232 232 236 241 245 243 239 237 235 224 218 202 211 155  70  53  53  54
  86  77  55   6   3   7  14  89  81  87  84  59  80  53  72  72  59  33   9  13  14  13  18  23  51  33  27  52  48  63  58  79  58  83  91  91  99 101 112 124 140 164 158 162 168 186 181 151 158 162 173 182 194 204 198 207 222 220 220 224 216 226 234 242 243 247 252 253 253 252 251 249 254 250 254 251 250 252 246 246 247 247 241 226 219 207 199 174 104  69  75  53
  81  79  65  11   8  11  19  97  67  71  69 106  92  92  91  89 101  41  27  17  26  19  41  53  44  81  73  85  81  61  85  71  76  87  92  94  93 100 111 127 142 152 159 165 179 176 194 182 160 179 188 201 203 218 202 218 220 218 217 218 218 219 225 225 231 241 245 246 246 250 250 248 250 253 253 252 252 251 249 246 247 248 247 224 221 201 190 229  71  54  62  86
  86  82  74  12   7   6  29  77  64  95  86 115 101 111  88 107 109  66  53  48  47  63  65  59  84  62 104 144 110  67  77  76  97  91  90  97  94  94 104 119 134 144 159 165 165 173 179 178 147 163 163 179 189 211 201 222 231 224 217 216 213 206 220 239 230 240 245 246 245 248 250 250 249 253 254 254 253 251 250 249 250 245 247 233 199 200 169 203  85  71  68  86
  83  79  79  32   8  14  44  68  74  87 104 110 102 101 114 117 117  84  92  70  56  85  88  82  59  80 114 133  91  78  73 100  79  99 104 100 101  98 102 119 130 145 158 171 190 192 193 187 192 187 193 213 221 220 213 212 218 228 221 221 228 213 223 244 242 239 241 243 243 249 251 252 254 254 254 254 253 252 250 248 252 247 247 234 190 197 194 165  68  70  75  79
  81  81  85  28   9  13  25  77  85  84 110 109  91 106 100 126 103  96  76  77  88  72  62 102  87  75  77  73  76  74  87  76  93 104 116 114 119 110 105 108 123 149 161 179 187 195 206 201 197 193 196 194 206 217 225 223 239 245 238 235 234 229 228 241 249 249 249 250 249 249 253 253 255 255 255 254 252 251 251 253 253 253 246 235 194 183 184 126  66  70  66  73
  84  89  97  32  27  24  18  58  90  98 103 113  90 108  94 121  89  82  76  97  87  74  81  92  66  73  93  95  76  80  84  85  95 111 120 124 112 109 109 117 126 138 164 177 181 195 203 213 194 229 192 206 198 207 219 217 226 237 235 236 246 242 233 235 241 246 249 249 246 247 252 255 255 255 255 252 251 250 253 253 253 253 247 245 173 172 171  75  74  80  75  74
  96  99 105  54  26  23  25  46  79  98 122 101 101 105 103  91  83  85 101 104  90  96 108  64  59  82  95  83  76  94  98 102 104 110 114 113 116 117 111 124 134 143 163 179 191 204 206 214 195 209 186 206 203 204 208 210 216 220 229 232 235 242 240 236 234 237 243 246 244 245 246 249 251 251 251 246 246 247 250 253 253 253 248 240 190 156  86  70  74  74  77  75
  99 104 109  77  21  30   7  43  77  98 132  93  90 106 107  92  66  79 112  91  87  80  65  74  73  78  73  79  79  90 101 102 112 116 117 116 113 115 121 125 131 147 159 177 180 197 204 210 214 209 207 208 213 209 208 200 206 193 206 221 230 228 233 230 228 216 224 238 234 234 235 247 245 246 243 240 245 247 248 251 251 252 251 246 186 126  72  71  68  75  75  79
 102 104 101 100  36  17  11  20  72  84 106  88  93 117 115  81  87  95  95  98  79  73  74  61  64  69  80  83  94  99 105 113 120 118 115 115 116 118 125 131 138 144 167 175 186 192 191 202 204 201 211 201 202 206 215 201 213 203 204 190 220 224 226 224 217 211 208 219 230 230 235 234 235 239 240 240 239 241 247 249 247 243 252 245 202  68  65  69  69  77  78  79
 108 110 103 105  86  14  15   3  34  88  82  73 101  96  66  86  89  79  83  69  76  65  50  66  74  81  91  97 112 118 112 119 122 117 119 114 122 119 124 131 145 157 166 169 173 186 186 187 192 201 207 208 199 214 213 218 219 215 210 194 209 200 217 216 206 206 207 207 218 224 231 230 233 237 241 241 240 239 242 244 235 223 230 246 201  63  67  65  67  72  71  70
 111 105 103 101 103  58  10   3  37  70  57  56  90  77  62  72  79  68  51  80  62  43  60  64  80 110 102 113 119 119 118 122 122 120 118 120 121 136 132 135 151 149 152 170 168 159 167 159 154 151 158 174 151 189 194 203 209 208 205 200 200 197 208 200 192 197 203 207 202 217 234 223 228 230 235 232 222 226 214 183 201 198 218 237 207  51  69  66  64  69  64  64
  98  95  95  94  95 109  33   1  17  38  34  31  55  46  63  84  79  41  66  75  52  64  56  73 103 119 120 117 116 126 125 131 122 124 118 122 142 142 135 127 126 136 163 157 154 140 136 133 126 116 116 116 109 128 136 145 140 151 172 193 193 199 200 184 190 189 201 199 197 207 211 212 202 210 185 154 144 152 149 160 171 188 199 208 201  62  65  69  67  54  58  59
  98  93  93  93  89 103  77 124 168 184 163  94  25  50  64  65  69  46  87  43  57  53  57  87 118 126 129 126 130 125 122 119 119 118 128 128 117 131 125 117 123 115 132 133 135 142 140 137 145  89  77  75  72  77  57  65  75  97 129 148 176 196 186 161 198 186 213 192 190 195 194 176 146 109  90  80  77  82  84  80 157 161 178 188 198  56  77  81  77  75  50  58
  91  93  91  91  98  96 130 132 135 145 166 156 139 108  50  73  59  58  54  46  56  45  72  95 122 132 128 126 126 120 123 130 127 126 119 113 108 120 106 117 119 112 101 106 118 112 123  86  84  80  59  56  49  44  55  51  55  71  83 109 135 180 143 156 175 192 221 166 162 166 149 122  81  71  70  90  82 106 127 185 187 200 185 192 200  72  81  76  80  83  69  57
  96  87  83  95  82 121 135 124 107 119 130 125 132 127  81  84  61  59  54  49  47  61  71 109 133 132 128 127 129 128 123 128 133 125 120 104 102 104 102  97  96  96  89  94 102  98  87  99 101  95 100  84  69  65  57  58  57  64  74  87 108 135 123 151 168 198 227 162 128 132  99  88 108 127 171 183 192 211 223 238 230 221 215 205 188  51  86  75  81  77  75  55
  99  89  88  87  92 121 136  49  49  93 111 116 113 123 120  87  62  76  46  42  54  62  76 124 132 130 127 129 129 127 127 136 137 124 112 103  95  98  96  89  86  89  93  90  89  89 102 107 125 142 138 138 111  94  81  68  57  58  70  78  89 100 110 149 173 214 216 173 123 103 105 123 141 171 160 197 236 213 210 206 240 230 215 214 194  51  68  73  77  81  64  56
  94  91  92  96  95 134  93  37  56  99 111  90  84 123 121 103  78  66  35  48  60  56  81 131 127 128 126 127 134 129 125 133 133 123  95 103  88  88  86  85  88  88  89  87  86 100  94  90  68  54  66  29  22  35  47  65  66  50  54  58  72  80  99 143 178 209 226 164  98  93  99  81  74  62  63  34  16  63  76  94 164 209 214 223 158  54  70  82  80  59  55  48
  98  97  95  97  99 111  91  29  39 105  90  75  62  99 129 131  97  65  34  48  50  48  89 120 124 119 129 130 132 130 123 126 129 106 104  98  89  90  88  90  92  97 101  87  53  41  44  29  18  29  65  30  64  29  54  63  52  50  51  53  59  69  85 121 206 241 230 148  86  78  87  91  76  75  55  44  68  40  41  43  57 166 205 223 119  71  70  77  77  57  53  49
 103 104 108 103 105 116 110  39  36 104  96  76  80  95 132 137 125 100  60  58  35  49  90 115 126 123 129 129 131 129 124 117 111 112  97  94  83  82  79  76  64  47  27  18  41  61  77  60  45  53  45  53  98  32  23  52  74  48  48  50  63  64  89 140 224 243 245 174 139 159 116  90 111 142  98  76  82  48  78  61  68 118 213 239  84  74  72  78  72  66  47  51
 104 108 110 108 106 109 109  46  43 133 102  92 116 128 114 134 116 104  91  38  46  54  85 108 122 122 126 129 128 127 130 126 117 118  93  78  82  79  70  59  44  41  45  47  68  96 115 103  79  82 106 117 102  90  69  63  64  70  54  60  65  76  96 146 213 251 251 221 230 166 134 138 147 169 144  81  75 117 192 160 162 165 219 252  64  81  78  77  80  63  53  55
 108 114 115 107 104 118 109  73  59 128 103  93 108  95  87 110 122 103 101  43  46  57  68 105 115 118 122 124 122 122 116 106  96  97  88  84  69  58  59  57  58  59  61  75  85 101 102 111 119 146 135 176 182 150 136 122 101  72  70  55  74  95 125 163 216 249 255 246 200 199 227 220 217 204 202 222 185 166 199 211 212 186 226 244  54  78  80  84  79  52  53  56
 110 114 118 114 113 114 109  87  63 133 112  84  65  56  69  67 105  96 113  68  49  70  79  99 115 115 111 119 121 125 124 126 132 127 125 113  98  90  86  92  82  84  75  82  93 124 137 166 180 191 196 198 181 152 147 118 114  70  73  61  79 103 142 187 210 245 255 254 183 139 141 177 193 223 220 209 208 225 228 234 239 224 233 225  41  70  71  70  60  55  58  62
 105 111 116 119 115 106 117  84  70 139  90  77  50  38  37  48  87  99 107  90  50  58  81 109 115 111 112 115 113 115 120 125 136 143 147 135 122 119 117  91 108 111 107 108 104 104 120 125 137 162 147 162 165 160 151 140 112  76  88  66  90 105 149 193 229 241 253 249 243 176 172 192 193 196 209 226 215 224 238 248 249 239 240 211  45  63  62  65  59  60  54  56
 102 109 116 112 108 107 101  96  71 143  81  62  37  32  32  74  89 128 116  97  75  71  98 108 107 109 107 110 107 110 123 125 140 160 178 167 169 140 143 141 129 141 135 136 139 157 159 166 186 187 207 226 209 186 168 167 108 109  95  81 105 102 157 208 229 241 249 252 245 247 180 213 219 235 234 235 242 251 252 250 250 249 250 199  49  67  63  60  59  59  54  56
 113 111 113 107 100  99  99 106  72 136  96  68  39  33  40  59  63 137 119 112  92  78  98 104 103 114  99 105 108 109 110 115 142 164 193 188 182 172 182 155 156 165 156 164 160 173 186 196 211 224 233 220 213 186 169 147 140 113 104  99 103 118 166 207 236 248 251 254 250 251 231 209 226 234 254 255 255 254 251 251 248 249 246 202  50  64  61  56  57  57  56  63
 106 110 105  98 100  97  99 102  82 140 100  65  33  27  35  47  49 136 116 119  95  82 103 105 101 103 100 103 106 111 112 121 132 152 184 189 189 200 186 196 185 171 181 197 192 203 203 208 215 229 217 210 190 193 156 153 125 116 103 103 101 102 152 201 239 245 248 251 252 242 255 224 208 223 247 252 254 254 251 249 251 249 249 213  52  66  60  57  55  56  55  61
 102 104  97  93  97  93  94  93  93 118 110  68  37  29  28  36  37 137 113 117 102  92 107  95 105 104 104 105 103 114 112 109 127 149 171 179 190 196 191 199 204 203 194 188 192 202 205 209 215 220 224 185 182 163 165 159 107 113 101  98 103 108 137 177 227 244 249 253 253 248 246 247 219 209 218 245 245 245 248 250 250 250 246 214  67  81  65  54  55  56  58  62
 102 102  97  91  91  85  86  89 101 101 131 120  82  31  25  34  40 121 165 151 106 106 107 107 104 106 106 106 106 114 107 100 115 130 159 170 188 189 197 198 198 200 205 204 196 202 204 209 211 214 201 186 188 186 182 152 107  88  93  99 106 109 121 150 209 231 248 254 251 246 241 247 246 225 220 233 240 242 250 251 250 250 254 210  58  77  72  58  53  59  65  64
 113 109 105  99  86  81  86  93 108  98 111 130 128 142 111  60  29  96 169 118 101 111 109  98 105 110  97 101 103 108 108 102 104 112 130 155 178 176 189 190 191 198 199 210 208 198 210 214 213 210 217 199 207 187 170 144 106  94  97 105 100 103 116 142 194 225 247 255 254 242 238 244 247 239 224 225 235 238 246 248 250 250 251 186  64  72  72  57  51  63  71  72
 108 108 101 100  84  82  88  94  98 114  88  84 110 144 163 124  80  56 123 123 109 109 106 105 103 108 106 101 102 112 105 101 100  98 116 145 153 162 164 181 187 191 194 212 218 225 211 212 216 220 213 214 203 197 162 144 101  92 102 100 104 114 116 150 177 222 247 253 254 245 239 240 245 248 242 234 236 235 244 248 250 250 246 160  59  71  68  48  49  59  70  71
 106 107 101 100  87  92  91 106 106 113 105  83  69 119 153 143 128 113 118 108 114 105 103 117 111 108 107 106 103 101 100 100  90  86 101 112 128 141 156 169 172 183 195 213 215 227 223 220 221 226 222 210 207 199 169 149 114  97  96 102 109 113 139 162 190 228 245 254 254 247 242 239 243 250 249 245 244 245 246 245 245 242 249 116  70  65  54  48  55  54  64  71
 117 107 106  97  86  96  93 103 113 115 121 109  95 109 134 132 135 142 141 106 104 110 113 130 113 108 116 135 115 103 103 102  94  92  93  98 110 124 134 141 156 166 179 203 217 229 228 224 224 224 228 219 211 209 171 151 122 102  92 100 105 116 132 168 201 225 245 253 253 249 239 241 242 244 250 254 252 250 248 243 238 239 240  56  61  52  52  52  54  52  59  63
 114 109 101  83  88 101 100 107 115 116 131 111 121 142 120 117 108  98  91  97 101 103  99 108 107 105 141 171 126 103 100  99  95  96  91  92 106 113 123 142 154 169 186 208 220 224 227 228 225 225 228 219 220 204 178 130 105  87  86  91  89 105 122 178 193 213 242 255 254 249 238 240 245 240 249 251 254 254 250 247 242 240 221  49  57  56  52  53  52  57  60  61
 101  99  97  93  93 110 117 121 117 120 120 119 114 130 124 112 106  94  92 105 102 100 114 113 104 112 121 123 105  96 102  98  97  99  93  92  99 110 133 143 158 171 187 209 219 228 229 229 227 226 218 219 207 201 178 127  82  70  78  86  94  99 129 173 188 212 236 252 253 249 227 232 240 242 244 253 254 253 250 250 246 236 191  41  52  55  52  53  58  59  68  73
 104 100  98  97  91 109 120 122 118 122 123 121 122 109 128 120 109 101 121 122 102 106 110 111 107 116  99 104 107 104  99  94 100 100  96  93  91 112 126 136 155 167 186 204 218 223 223 225 232 226 216 216 212 188 159  93  74  91 102 115 108 112 126 162 211 222 236 254 255 248 239 215 228 241 243 248 251 253 251 250 240 234 129  46  56  55  52  54  62  65  74  78
  98  96 100  95 102 116 119 127 133 135 127 122 118 116 113 117 116 114 126 110  94 113 107 116 115 103 108 106 103 105 100  98 100 101  98  94  94 103 114 128 146 158 179 185 209 214 225 218 217 216 210 208 189 154 112  70  72 117 147 150 125 125 119 168 187 223 243 254 254 247 242 228 211 230 242 248 251 251 249 249 234 235  70  56  53  54  53  54  62  66  76  83
  97  94  93  98  99 112 117 129 135 128 126 122 107 113 109 102  95 109 115  94  87  91 106 114 100 105 111 120 103  98 102 104 104 100 103  95 100  98 118 120 142 141 150 168 181 204 212 210 213 200 195 190 157 121  76  51  87 125 144 172 136 123 114 152 162 204 234 254 253 247 240 241 200 230 236 240 249 251 245 241 234 233  52  55  53  52  52  55  65  75  78  89
 100  94  94  95  96 106 118 125 121 123 119 121 112 107 108 101  94  91  83  78  74  99 102 103  97  99 102 109 103 100 101  99  97 105 102  99  90 102 105 118 124 126 138 149 170 171 193 203 198 182 174 167 117  91  62  54  88 107 123 134 111  97  98 112 125 170 222 240 255 248 235 238 180 199 230 241 244 245 243 243 229 218  34  57  56  52  52  59  66  76  84  94
 100  95  95  90  94  94  96 111 114 115 115 115 112 103 105 104  97  89  86  84  79  98 105 105 109 104 103 101  90 101  99 100 106 104 101 100  95 102  97 107 107 120 122 130 144 151 175 185 184 171 165 116  92  81  60  43  80  77  84  76  83  85  83  83  85 113 170 205 218 243 222 204 158 188 214 231 236 240 239 237 236 165  42  60  51  51  55  61  68  76  87 107
 102  94  93  85  91  90  92 104 118 114 107 101 101 100 104 103 102 100  84  82  83  86 100  92 112 110 101 101 104 103  99  98 102 105 109 107 105 101  97 101 102 116 122 115 141 145 153 162 163 156 120 103  99  88  73  45  53  77  63  34  26  27  45  64  69  80 114 162 173 185 222 240 184 182 210 221 234 240 241 236 238  91  58  56  58  63  64  69  74  81  91 110
 101  95  93  86  82  88  91  88  92  91  88  91  96 100 100 102 102 105  81  79  73  92  92  98 107 102 108 101 110 100  93  97 103 104  99 105 111 106 102 103 101 106 110 116 121 139 145 156 158 136 113 105 102  87  76  52  36  33  39  43  38  44  60  44  56  75  82  87 112 216 254 250 220 167 199 213 228 236 239 236 247  53  54  53  64  65  65  71  83  84  98 108
  99  94  96  92  88  92  92  92  87  86  84  84  86  87  96  99  93 100  84  78  80  86  95  96  95  91 105 100 104  94  90  97  98 103 104 106 109 106 102  97 100  99 101 104 116 133 148 142 144 126 116 107  99  95  73  64  50  41  21  21  29  30  46  56  67  77 120 159 211 233 251 253 245 201 193 208 225 233 237 235 236  31  59  55  61  63  67  72  77  80  97 104
  99  95  96  95  94  90  90  88  86  82  84  85  89  96  99 103  95  95  89  79  74  79 100  90  97  95 100  96  95  95  90  96  93 103 100  99 109 110 103  93 100 100 107 104 116 126 135 140 133 126 125 109 102  85  86  58  54  45  34  32  29  36  48  65  87 147 190 171 176 182 249 252 251 235 199 209 225 231 235 232 211  30  54  52  57  64  65  67  83  84  86 104
  98  93  96  89  88  90  90  87  84  81  81  91  97 100  96 103  94  73  85  78  80  76  90  95  94  99  94  99  96  94  90  86  84  99  97 104 112 108  98 100 101 107 105 116 122 132 132 124 111 118 110 101  97  79  73  67  51  46  37  45  45  54  73 125  80 121 133 175 163 214 242 238 250 248 219 204 221 228 229 226 128  57  58  50  54  65  66  66  70  78  86  95
  98  89  92  82  87  87  93  89  85  87  87  93  91  98 110 111 109  61  72  82  82  83  89  92  87  95  93 102  99  88  85  95  95  96  97 103 104 111 105 101 105 109 119 122 123 128 132 111 116 110 111 107  81  72  60  60  62  50  63  65  62  58  86 108  83 102 152 189 182 202 194 219 249 249 236 210 221 232 228 233  70  54  52  45  48  52  51  54  59  76  87  95
  97  83  84  84  83  89  91  95  85  87  79  93 104 112 124 104 104  78  53  94  78  80  84  95 104  94  99  88  89  87  92  91  92  92 101  94 106 105 102 109 109 109 112 131 135 136 107 110 102 101 101  81  66  71  58  63  60  50  61  63  78  75 115 123  69  84 148 172 173 171 183 195 220 238 235 217 220 232 233 240  50  59  52  48  47  50  54  53  57  68  80  90
 100  84  82  79  80  84  81  86  83  83  85  89  94  76  89  87  79  70  48  88  80  80  89  85  95  88  90  81  85  85  78  84  85  88  91  91  98 106 111 109 116 115 117 136 148 130 101 107  95 104 101  68  62  55  59  57  60  64  64  85 102 118 105  87  61  76 128 145 155 158 180 185 201 239 234 215 227 233 230 192  38  57  54  45  49  52  53  53  62  67  74  87
  96  89  77  68  69  78  77  76  81  82  78  90  74  45  48  73  75  50  26  90  90  81  93  85  90  89  91  88  89  85  81  87  84  82  89  98  99 107 115 116 124 130 152 144 157 106 103 106 109  80  53  63  57  63  65  69  52  58  71 122 101  97 132  98  65  66 123 128 136 186 155 171 150 194 242 222 229 231 235 127  53  55  54  51  50  54  50  55  62  68  69  77
  98  88  76  70  70  71  74  75  75  77  79  76  62  32  19  21  20  11  15  85  88  81  91  88  87  90  91  87  85  87  84  90  85  88  90  86  90 101 114 116 121 135 145 157 134 101 103  81  94  56  63  62  55  61  62  62  57  86 104 105  83  98 121  86  50 105 124 140 158 151 152 185 198 176 209 227 231 228 222  44  53  50  59  66  67  66  53  54  57  63  65  70
 101  91  76  72  70  68  69  69  73  72  72  72  41  28   4   3   5   7  11  89  82  79  83  82  86  86  87  91  69  84  83  86  90  83  79  88  94 101 102 121 107 128 154 156 123 100  80  79  84  69  65  48  51  61  62  61  57  80  84  73  84  94 180  83  51  98 157 152 121 148 167 120 139 158 204 235 231 236 176  47  54  47  68  71  74  74  69  53  55  56  59  60
 103  91  77  71  71  69  71  70  70  74  72  72  48  21   7   3   0   4  12  87  84  81  76  82  84  83  78  88  80  82  88  85  89  88  91 101  94  96 110 114 119 143 144 161  98 103  76  53  58  71  59  55  62  63  63  68  65  74  79  95 109 123 177 162 118 105 172 195 174 177 195 139 157 153 192 241 229 234  85  58  48  58  73  71  76  77  68  45  51  54  52  51
 107  96  82  72  71  67  66  70  66  54  48  33  20  11   3   4   2   4   9  87  88  82  84  85  85  84  84  82  80  90  85  81  85  87  87  91  99 101 103 110 126 136 148 156  99  87  75  70  87  80  56  57  52  43  38  46  49  54  54  62  67  77 128 149 146 140 133 120 112 111 142 117 155 168 209 232 224 220  35  55  58  45  66  71  73  75  59  45  44  44  45  49
 109  95  85  72  69  69  65  66  66  62  52  14   0   2   1   4   6   6   8  87  87  81  86  83  80  82  85  77  78  81  79  82  82  87  86  95  94  99  97 120 137 144 156 163 108 112  77  92  81  74  38  13   4   5  10   7  23  14  38  49  55  69  72  91  82  52  38  16  40  79  71  99 134 161 223 232 220 133  48  57  56  50  52  69  70  57  48  47  44  44  48  54
 110 101  94  80  75  72  67  66  65  67  48  10   0   2   1   4   2   3   6  88  86  82  83  76  85  72  77  77  78  76  78  72  76  90  86  94  87  94 103 105 132 140 147 145 121  86  93  83  85  80  81  74  56  53  48  43  31  28  27  30  28  24  25  37  50  75 101 139 174 226 174 166 166 193 235 228 221  48  60  56  50  48  44  47  45  44  43  45  48  50  52  53
 114 101  98  82  80  71  73  76  69  65  42  12   7   1   3   8   2   6   5  82  79  84  86  81  73  86  80  82  81  78  73  77  78  80  87  86  90  86  95  96 108 123 150 161 133 117 108 103  99  92  92 100 100 108 105  91  85  89 111 122 131 147 161 191 205 212 215 207 237 225 224 209 207 229 230 227 141  38  48  53  51  50  45  43  44  45  46  43  45  49  48  53
 128 109 106  90  79  71  80  75  59  44  33  15  10   2   1   1   1   1   4  83  87  89  86  81  76  80  88  80  80  75  77  69  76  81  78  79  90  91  90  90 107 121 143 152 147 130 121 120 110 103  96 100 101 113 122 134 123 132 159 181 208 218 217 221 236 235 237 235 219 216 241 216 210 232 228 219  55  64  65  59  52  42  45  45  43  41  45  46  45  51  48  51
 129 113 103  91  82  73  78  78  72  65  75  72  18   0   1   1   2   2  10  82  88  86  86  82  79  79  84  81  77  76  82  78  77  87  83  78  91  82  83  92  98 112 125 139 142 131 136 123 124 112 114  99  98 100 105 109 129 152 172 186 196 215 208 238 232 235 243 230 210 233 232 217 206 227 225 131  32  66  59  57  55  48  44  43  45  43  45  43  46  49  50  51
 125 114 105  96  85  76  80  81  82  75  70  26   1   2   1   0   1   1  10  75  88  90  88  84  81  79  81  80  74  74  80  83  72  67  75  75  86  79  82  93  95 109 113 132 130 138 138 118 120 111 123  93  94  90  94 108 109 125 146 162 176 167 187 175 206 218 216 213 218 228 227 221 224 206 217  35  58  64  57  58  50  44  40  43  44  44  45  46  46  48  48  49
 123 108  98  90  87  80  80  82  87  94  66  50  21   1   1   0   1   0  18  72  85  89  86  83  81  77  75  75  74  67  72  75  71  62  76  76  77  85  85  79  89 101 123 123 135 141 134 120 113 113 112 102  83  76  72  70  87  99 108 131 106  76 102 124 113 164 171 207 222 226 228 222 211 215 163   3  31  46  55  51  45  42  44  44  43  43  48  48  48  50  49  47
 112  98  91  86  87  92  90  90  96  96  79  62  39   2   0   1   9  14  37  71  90  86  86  85  81  75  82  79  75  69  70  70  71  70  72  81  76  75  87  87  90  98 111 124 129 137 134 122 113 107 106 104  88  77  69  65  77  71  90  84  70 100 102  96  81 147 167 175 221 218 221 216 213 220  68  34  41  41  49  47  44  41  42  45  49  47  52  58  61  57  55  50
  96  95  88  87  87  91  85  93  93  86  71  53  26   0   2   7  27  26  60  70  93  93  87  80  84  74  78  82  78  69  69  71  74  73  78  65  62  67  74  86  93  90 116 131 139 137 131 139 102  95  95  92  85  74  72  68  66  63 111 112  99 127  86 172 112 120 183 207 215 226 226 222 230 176   5  38  39  52  47  39  44  44  43  48  52  51  55  62  67  59  65  54
 100  99  88  87  95  94  95  93  94  91  77  59  35   0   9  26  35  31  45  72  85  97  91  84  81  81  67  76  81  75  74  66  74  67  67  66  70  68  79  80  96 112 138 124 136 136 131 147 137 102 101  93  94  84  81  76  64  75 116  70 100 123  90 136 136 177 199 216 219 226 242 242 229  78  25  50  64  55  43  44  45  42  46  49  53  51  57  64  61  66  62  61
  97  97  94  96 102 105 105 107  96  98  91  95  47   5  13  28  29  25  30  75  78  96  94  82  81  74  81  74  76  78  73  67  63  73  65  59  64  61  60  54  85  87 114 121 138 141 102 125 147 132 102 108  92  93  82  79  71  74 100  87 110  85  96 137 181 217 222 221 223 236 228 232 199  25  45  73  64  51  41  44  43  44  46  50  48  54  57  65  68  66  69  58
 104  99  98 105 114 107 105 108 104  93  96  76  40  12  16  25  28  32  28  65  66  93  93  78  82  81  80  75  71  78  73  69  67  68  65  73  54  54  59  58  87  91  83 116 118 113  93 123 135 153 157 109 115 109  93  81  71  88 127 145 135 156 163 216 230 236 231 239 228 223 231 227 159  13  36  52  49  50  50  44  45  50  49  49  50  50  56  58  72  68  66  62
  98  99 101 110 110 113 110 111  97  86  92  37  37  25  20  28  26  26  24  51  62  74  84  74  77  82  77  70  71  69  72  74  66  63  71  65  59  64  59  60  50 106  85  97 100 106  96 111 127 154 173 169 120 138 122 129 144 187 179 186 184 197 202 211 241 230 237 231 235 212 190 215  43  29  38  50  53  54  55  58  54  48  50  50  51  48  51  55  57  62  56  57
  96  99  99 111 110 108 102  98  96  88  27  16  32  36  12  34  28  24  23  35  67  68  66  63  69  77  70  70  65  69  70  70  67  71  64  65  64  58  97  79  64  60  83  73  88  95 112  95 105 130 166 182 162 180 150 127 169 178 226 207 198 205 206 222 223 239 234 229 211 233 211 113  16  10  30  53  54  57  65  63  63  56  52  49  48  46  49  52  61  60 112 136
  89  93  92 102 110 109 106  99  82  89  53  16  40  26  23  10  26  27  24  33  46  60  50  54  59  73  72  69  64  68  62  65  67  63  61  65  62  59  87  70  61  62  56  79  96  85 103 105 113 113 130 168 192 189 180 174 145 151 229 184 197 191 224 215 223 225 222 212 202 222 173  29  11  11  18  37  56  57  67  64  62  58  56  45  41  42  43  47  50  59 112 123
  86  84  83  90  99 103  98  93  92  42  45  15  35  23  29   1   9  13  23  16  17  34  41  46  52  62  62  63  61  62  62  65  67  63  65  69  66  68  65  55  47  55  56  71  79  88  96 104 106  92 133 147 170 192 183 180 169 145 196 151 185 189 212 199 225 231 231 245 217 221  54  26  12  17  17  48  63  65  69  76  61  57  56  43  39  44  43  45  43  43  48  44
  80  79  79  84  91  95  87  89  64  22  42  33  25  26  32  17   3   0   1   1   5  14  44  43  53  56  48  57  56  56  58  61  62  63  64  66  66  73  62  59  51  61  61  65  68  88  95  84  97  93 115 156 142 156 189 169 201 178 160 164 176 195 210 199 220 227 251 230 222  93  21   3   9  15  44  76  53  66  65  80  67  63  50  42  41  40  39  41  44  50  47  44
  87  72  78  86  86  91  95  72  21  40  60  23  20  40  38   9  16   3   0   0   0   5  35  48  48  47  46  47  55  57  58  56  61  63  63  62  60  60  59  57  64  66  56  69  72  87  84 101  87  69 106 157 164 134 113 216 166 194 156 160 209 200 218 189 222 224 230 216 215  21  16  12   7   3  13  32  32  85  92  63  55  57  51  39  39  43  44  44  45  46  46  45
  88  74  76  85  93  91  62   5  18  26  38  24  19  15  30  19   9   0   0   0   0   0  10  40  45  43  37  44  46  45  50  57  55  61  58  54  63  60  57  57  61  59  56  65  67  84  74  76  75  78  95 127 155 105 123 145 177 124 137 135 225 162 208 183 210 211 192 232  49  23  12   1   9   6   5  22  44  40  70 129  89  69  49  50  39  40  37  42  45  46  45  46
  70  73  83  70  59  51  12  38  28  36  31  20  30  25  24  32  16   8   0   0   0   0   3  24  32  38  35  36  45  44  48  45  56  60  56  56  53  57  59  54  55  59  56  58  66  84  80  71  79  73  86  95  89  97 122 127 157 193 161 181 194 189 193 171 209 143 238 135  16  11  15  21  45  55  25  27  48  55  64  78 152  85  84  53  37  43  37  42  44  46  45  42
  77  83  51  30  30  36  47  27  46  22  46  37  13  12  30  18  34   9   1   2   0   0   0   8  26  30  30  29  37  36  40  46  49  47  53  56  53  52  55  56  53  59  53  54  50  69  67  77  75  68  70  95  77  81  85 135 120 173 150 179 175 146 188 175 220 198 134   1  15  14  15  33  88  97  42  34  66  74  75  63  62  66 100 110  88  42  32  50  47  46  44  47
  56  16  35  30  27  31  39  28  36  28  34  15  15  20  21  22  17  24  10   4   0   1   1   1   6  21  28  25  23  27  39  36  49  43  41  42  52  46  43  48  51  57  54  58  52  59  54  56  66  62 100  67  82  98  84 148  86  89 175 135 176 152 181 197 196 111  20  40   4   2   6  22  53  47  20  32  50  63  76  80  68 148  89  82  68  95 108  41  47  47  51  46
  13  33  35  31  47  19  34   3  31  40  30  32  25  27  23  21  23  17  19   4   4   0   0   0   0  10  13  18  14  19  27  33  32  42  41  38  37  45  40  33  41  47  47  49  51  47  49  47  50  49  83  78  80 107 102 105  80 114 113 127 168 149 140 102  65  19  31   8   9  13  19  14   6   6  23  40  67  82  64  81  72  13  32 117  86 104  68 139 105  59  50  52
  15  20  31  32  27   8  31  23  30  15  44  33  30  19  19   9  20  25  32  13   2   0   0   1   2   0   4  14   6  12  21  23  30  32  33  32  29  28  37  36  27  33  36  40  41  48  48  45  38  36  38  40  51  72  71  72  78  84 103  59  60  38  25  20   5  14   9   0   1  14   6   9   8  32  40  61  76  67  74  67  86 109  86  68  79 116  78  69  99 132  65  37
  29  23  36  20  35   8  24  35  26   7  33  14   7  21   8   6   5  14  26  15   1   1   0   0   3   0   0   0   0   6  12  11  27  42  23  17  23  25  19  32  25  28  37  38  36  40  40  43  45  42  45  42  42  36  59  74  92  61  36  41  44  36  23   0   1   7  16   0  16   5   2   3   8  38  52  55  58  64  76  80  60  44  79  94  68  39  88  78  42  69 145 120
  11  23  41  20  30  10  37  19  26  16  16  31  14  24  21  15  18  12  14  16  10   4   0   0   0   6   1   0   0   0   4   9  20  22  23  19  16  19  20  21  25  33  30  31  26  35  39  38  44  48  48  45  52  61  86  96  81  38  42  40  50  42  13   1  13  17  18  24  27  13   4   2   4  43  41  42  64  62  70  71 100  98  53  54  87  85  70  70  60  69  79  96
  36  21  42  36  41  23  37  37  12  46   4  36  18  17  14   0  17   6  18   4  16  10   2   0   1   1   8   5   5   0   1   3   5  14  17  18  11  15  15  18  17  23  31  20  16  19  30  38  45  45  54  58  64  67  94  87  42  35  33  29  24  15  15   7   7  18  25  19  14   2   9   9  30  48  65  58  81  52  88  76  86  46  42  96  59  66  83  74  76  68  90  83
  47  42  59  41  33  41  16  28  12  38  19   5  19  17  12   8   6   6  11   9   8  14   7   3   7   3   2   3   0   0   0   2   4   2   8  13  18  10   3   6   2  13  16   8  12  19  36  31  30  34  36  41  53  75  92  64  37  33  29  34  21  10  14  12  10  22  14   3   6   5   5  18  35  48  64  66  56  63  61  24 133  90  78  62  72  52  49  86  81  76  80 105
