P2
# Generated by OpenCV 4.2.0
92 112
255
  71 101 123 146 159 165 165 159 145 126 102  74  44  24  22  33  63  90 111 129 140 148 147 140 124 105  82  57  40  49  75 104 109  78  55  60  65  42  39  26  21  35  66  58  42  35  45  59  60  35  52  56  65  52  74  66  57  54  39  74  88  83  83  94 103 117 113 125 130 141 107  80  56  38  34  30  28  25  22  19  20  16  17  21  20  24  33  53  81 102 122 134
  74 105 127 147 158 163 166 159 144 124 101  73  44  23  22  40  68  98 121 141 150 157 155 149 134 112  88  63  43  49  59  50  47  37  70  54  45  34   8  48  54  52  45  38  35  42  29  14  25  39  41  45  66  48  64  43  45  50  41  57 102 106  93  39 106  52 110 131  94  77 103  85  56  38  30  23  22  20  18  18  18  15  14  16  19  27  37  59  85 109 128 139
  78 107 128 147 159 163 165 157 143 125 103  72  41  22  25  38  71 103 125 144 153 158 160 152 140 115  94  62  50  37  68  53  59  59  52  38  39  21  50  61  48  61  36  61  46  59  43  49  30  22  28  24  43  44  53  46  54  35  36  53  50  58  62  63  60 102 132 164 151 130  97  86  52  36  29  21  17  16  16  17  16  14  15  16  15  27  39  61  85 109 129 143
  83 109 130 148 161 164 163 157 145 131 114  90  69  53  47  55  80 104 127 143 156 161 160 152 134 116  67  64  33  60  68  74  56  61  45  44  34  49  31  38  65  71  66  73  92  74  64  40  33  35  30  55  47  53  55  46  44  42  50  46  40  68  44  60  67  62  58 101 132 134 111  86  53  34  28  18  15  17  17  14  14  14  15  17  17  25  38  62  86 107 127 142
  84 111 130 148 160 163 163 157 144 141 124 109  95  78  69  78  92 109 129 146 155 161 155 151 126  78  72  72  67  71  90  81  56  43  37  36  16  38  61  67  62  57  58  64  54  62  51  47  42  41  42  48  53  66  61  58  59  54  41  47  52  90  83  65  56  38  61  65  81 100 110  87  53  30  27  25  14  14  15  14  14  13  14  17  18  21  32  55  77  99 118 132
  84 112 132 148 158 163 163 161 153 147 135 124 118 105  92  93 105 116 131 146 155 160 160 145 143  89  86  55  55  97  80  62  85  67  70  78  68  56  43  23  32  33  33  37  45  65  82  76  58  63  56  44  36  45  57  56  48  49  67  63  69  63  63  73  72  58  72  72  83  77 101  81  46  34  33  14  14  16  15  14  17  17  16  17  16  20  30  47  71  85 103 118
  84 114 133 150 160 163 161 158 155 151 144 140 133 119 106 105 110 120 132 147 155 158 154 150 127  74  75  71  98  76  93  76  56  54  56  55  45  59  51  39  43  47  61  55  55  73  84  72  63  68  43  37  40  60  53  61  68  60  60  48  71  69  58  68  52  55  56  62  66  55  64  73  57  62  15  26  14  15  13  17  16  18  17  17  16  17  25  34  52  68  84 101
  85 111 130 151 161 161 162 160 157 156 153 147 145 132 119 117 116 125 132 143 161 119 125  71  79  86  58  78  81  63  53  82  42  54  81  80  59  53  53  52  60  69  69  52  40  15  12  55  68  52  52  54  43  44  29  24  36  60  69  74  65  45  61  59  63  63  61  49  61  55  50  51  64  43  62  11  15  13  16  16  17  17  17  18  17  19  20  24  39  51  63  78
  75 102 120 141 154 159 162 162 161 159 158 156 155 141 124 122 118 123 140 120  82 107  66  52  64  69  91  49  59  61  48  56  41  41  48  58  66  49  52  70  65  68  66  67  70  55  70  36  40  59  65  47  44  45  72  68  60  61  54  41  56  62  46  72  37  33  43  36  51  39  50  44  42  60  51  42  15  19  13  17  17  17  17  17  17  18  16  18  25  34  43  55
  61  88 107 129 141 151 156 158 160 159 159 157 155 142 127 123 124 130 134  62  48  33  75  77  67  77  68  61  57  55  61  41  62  60  27  46  27  41  47  50  45  69  57  50  61  65  73  84  76  65  50  60  52  46  29  44  23  30  47  34  64  62  65  53  35  23  27  38  61  49  50  55  42  34  31  49  20  20  13  18  16  18  17  17  16  18  18  19  16  23  25  30
  45  68  90 112 124 137 144 153 156 156 157 156 155 141 129 121 125 125  92  52  51  61  52  86  87  84  49  42  61  38  48  64  57  41  36  36  39  41  53  59  46  71  72  73  65  74  47  51  55  41  48  57  66  77  83  85  81  65  72  84  76  63  28  59  30  38  39  46  43  61  40  54  78  41  49  34  33  16  13  18  18  18  17  16  18  19  19  19  17  18  19  22
  30  49  67  85  99 118 128 137 143 146 147 146 145 130 121 124 124  96  40  41  34  59  92  81  75  33   9  38  37  42  38  45  37  31  27  13  52  58  28  34  31  42  40  68  93  85 102 100  61  74  45  41  45  54  96  85  83  72  62  47  63  32  53  15  28  34  14  42  50  47  79  63  47  72  34  40  34  13  16  17  17  18  16  17  19  19  19  19  18  17  19  20
  17  25  43  60  74  94 106 114 122 127 130 130 126 115 104 106 105  24  41  47  84  89  76  89  46  55  60  27  43  40  52  46  46  44  45  49  37  52  52  31  50  45  53  49  62  73  96  86 113  90  88  87  64  57  66  75  71  48  50  63  49  61  65  47  36  28  28  38  38  39  37  61  81  58  67  37  61  61  47  19  15  20  16  17  19  19  19  19  18  18  18  20
  16  16  26  33  48  66  79  90  98 105 106 108 101  93  89  99  50  54  39  56  62  79  69  57  50  25  20  37  56  61  71  55  31  13  37  33  54  45  44  60  53  57  74  63  62  33  13  22  27  64 100  72  54  53  48  31  66  68  71  44  59  60  57  56  48  47  51  50  60  72  67  65  66  63  65  55  55  38  19  43  25  16  16  17  15  18  19  19  19  18  18  19
  17  17  17  17  24  38  52  64  71  76  81  82  79  72  82  67  55  44  44  45  66  58  55  40  40  58  47  50  52  37  43  42  61  76  71  62  52  72  66  59  70  61  63  70  73  45  66  68  44  58  45  63  82  79  54  60  35  59  57  58  45  49  58  65  64  67  74  92  87  95  92  76  71  59  77  43  61  65  38   8  34  16  16  17  17  16  16  16  16  17  19  19
  17  17  18  18  17  21  29  37  42  48  56  58  57  75  72  52  58  56  40  48  44  48  31  48  50  61  62  58  47  38  29  22  33  47  36  32  33  52  50  38  53  51  66  50  63  61  60  40  49  52  34  52  61  77  46  53  51  75  60  61  53  69  54  66  54  46  67  59  81  84  81  89  84  70  74  65  74  52  19  35  13  19  16  17  17  17  17  17  17  17  17  19
  17  15  16  17  16  16  16  20  21  27  30  22  51  66  53  61  47  42  32  44  36  29  36  32  32  36  14  30  32  31  41  35  21  44  69  43  79  69  59  54  70  55  45  48  67  78  89  79  39  38  36  46  39  65  81  57  56  47  61  85  63  76  52  71  54  57  67  72  70  76  86  66  60  68  59  83  87  85  56  26  18  14  16  17  15  17  17  17  18  16  16  17
  16  18  17  15  16  17  17  13  18  28  28  47  50  78  32  46  37  44  39  33  31  29  18  22  15  14  25  40  53  46  44  46  50  55  51  48  58  64  53  69  60  71  76  79  80  78  46  66  86 115  72  61  42  27  47  62  67  54  65  39  73  41  76  59  79  61  74  80  92  65 104  82  80  64  69  74  69  86  80  27  11  17  17  15  17  17  17  17  17  17  17  17
  17  16  16  15  15  15  14  14  23  33  26  53  60  66  37  46  44  51  35  34  33  10  27  21  14  19  19  37  36  35  33  37  46  53  42  51  50  61  62  50  44  54  75  67  72  75 102  83  74  78  80  74  55  60  56  55  41  74  57  53  62  44  54  63  64  59  69  75  91  96  86  84  84  77  74  64  69  72  57  33  40  14  15  12  14  17  17  17  17  17  17  17
  12  15  15  13  11  12  13  15  10  35  35  60  63  61  41  51  40  48  33  43  30  26  13  37  18  20  28  28  23  21  19  38  43  39  48  23  37  43  38  42  61  57  53  52  52  65  63  54  69  93  79  68  67  60  36  43  40  56  59  61  48  40  41  82  47  74  69  61  70  85  64  75  49  84  53  61  59  63  80  34  22  27  17  13  13  14  17  17  18  17  17  17
  16  15  13  11  11  11  11  14  16  30  36  60  34  50  67  68  47  57  61  50  44  39  32  53  39  17  28  29  33  22  34  41  43  36  49  34  46  53  37  48  53  43  44  41  62  44  48  56  43  68  76  83  60  73  62  43  27  43  54  76  45  50  37  46  81  55  73  71  65  61  92  78  83  57  49  54  84  66  60  74  11  20  17  12  14  17  18  17  17  16  17  17
  13  14  11  11  12  12  11  11  16  45  52  59  48  50  88  71  75  66  59  65  59  41  46  52  48  69  47  23  39  37  37  27  46  52  49  39  39  45  41  71  37  62  52  40  34  37  52  59  81  67  50  60  68  61  73  53  54  44  52  53  53  45  59  39  68  67  73  62  88 102  73  88 103 101  78  62  27  76  44  84  35  17  17  13  17  17  17  17  17  17  18  17
  14  12  11  10  12  12  12   5  16   8  57  68  76  73  76  90  86  65  90  79  59  50  35  59  50  52  32  42  22  37  52  40  46  39  45  57  41  42  38  48  43  73  70  47  53  59  65  45  54  37  68  57  78  72  73  46  54  52  61  33  42  51  43  56  56  83  87  82  95  86 101 116  87  92  75  55  64  53  61  41  26  14  14  12  16  11  16  16  17  17  16  16
  11  10   9  10  10   9   7   9   5  25  60  72  91  86  85  69  81  58  77  65  71  47  64  49  50  42  48  31  44  45  40  53  42  44  60  62  43  45  37  45  62  67  60  70  49  60  70  35  54  48  54  62  50  76  90  77  54  39  58  49  60  55  44  51  60  74  57  74  85 130 142 112  89  78  78  80  62  56  52  43  35  13  14  14  13  14  14  16  17  17  13  14
  10  10   7   7   7  13  22  20  23  51  94  82 109 107  93  99  86  73  60  72  72  43  51  53  34  54  60  51  42  56  48  45  57  47  44  46  52  41  41  46  59  52  56  42  43  35  44  43  57  71  62  61  44  31  47 101  72  64  53  35  66  70  69  46  63  80  64  89  97 106 103 112  93  69  78  60  66  82  41   9  52  10  14  14  14  14  14  16  16  17  12  14
   9   7   6   6   6   7  11  20  12  85  96 125 124 120 105  96  90  66  64  54  58  45  62  61  71  85  45  54  35  56  43  33  47  35  33  38  54  41  61  49  58  45  40  27  46  42  42  50  67  54  77  55  76  47  37  70  96  43  75  30  58  61  83  73  56  78  60  99  80 108  84  72  85  91  58  58  60  48  44  55  22  18  13  15  15  12  15  16  17  17  14  14
   6   7   6   3   7  11   5  37  55 105 115 110 109 115 107  81  96  67  46  42  47  38  55  54  66  55  59  68  32  42  48  41  58  50  47  45  47  51  54  37  33  49  50  41  39  51  38  57  69  57  80  79  69  70  52  51 101  62  73  91  59  60  85  74  64  87  71  93  81 100  83  71  71  64  79  54  51  42  43  49  50  18   9  15  13  15  16  12  13  13  14  14
   8   6   6   6   6   9  32  33  71 136 103  76  81  86 124  93  89 113  42  51  55  44  43  61  50  62  68  56  62  37  42  44  59  38  53  49  43  48  45  43  27  24  27  30  28  34  31  36  37  71  76  54  64  72  55  64  59  77  43  90  61  67  70 103  78  77  61  77 100  90  99  96  60  74  65  56  54  34  33  39  39  34  13  16  11  15  16  14  14  14  14  14
   4   5   8  18  24  18  14  33  88 116  81  84  77 104 114  98  83  83  68  39  40  61  51  47  72  58  63  70  57  52  46  51  53  51  51  43  45  43  40  36  36  26  22  13  24  33  37  45  62  52  73  52  70  67  54  73  40  85  33  67  76  61  65  52  91  70  80  73  74  84  64 101 101  76 109  96  45  43  38  48  41  32  21  15  17  14  16  14  14  14  14  14
   3   5   5   4  11  11  25  40 128 106  84  84 100 111 114 117 111  86  84  77  61  58  68  74  79  76  70  65  61  51  47  49  64  60  59  34  27  39  38  36  33  40  42  33  34  59  69  73  87  89  86  57  73  60  65  51  65  72  33  59  81  87  64  59  82 105  80  72 101  77  83  64 102  93  84 106  94  53  21  37  29  52  17  11  13  15  16  13  14  14  14  14
   3   2   4   9   8   7  13  58 119 111  73  90 137 144 126 126 119  99 114  90  81  77  78  79  93  95  85  65  55  60  61  65  63  57  55  55  45  36  37  46  37  43  60  73  82  81 104 132 124  86  80  96  56  62  63  56  81  55  83  54  64  66  84  63  67  70  78  83  89  72  70  48  27  99  90  91  86  53  66  48  51  26  27  17  13  14  13  14  14  14  13  14
   3   2   6   4   6  11  26  71 103  93  75 103 152 143 144 125 122 122 137 123 122 126 113 116 120 125 121 100  93  83  69  69  76  70  61  48  64  65  58  68  73  85  91 107 127 156 158 164 147 144 141  84  86  64  55  72  73  75  77  71  51  82  60  84  86  39  75  68  66  60  49 103  48  44  72  61  97  88  52  46  34  26  11  19  12  14  13  13  14  14  14  15
   6   3   6  10   3   8  57 117 118  63  76 127 117 133 121 145 128 132 143 150 159 148 155 165 165 159 159 168 158 143 139 136 137 130 116 105 108 114 112 123 148 151 177 190 187 189 195 180 176 175 110 133 106  92  88  86  80  88  74  88  53  75  35 103  88  75  59  61  58  53  54  69  84  37  63  36  56  76  92  95  65  65  21  14   8  11  13  13  14  14  14  14
   6   6   6   8   3  38   8 125 109  72  85  89 128 114 157 148 139 159 171 179 167 177 176 185 188 188 184 178 179 183 179 176 175 172 173 180 186 187 191 189 184 205 195 207 207 200 198 188 169 160 151 158 153 134  97  91  88  80  92  84  54  68  47  56 106  66  56  69  56  56  49  59  74  70  45  81  68  75 100 102  71  62  14  10   8   9   8  13  15  14  14  14
   6   6   6   8  26   8  14 134 105  69  78 111 127 150 131 151 135 170 182 182 190 181 190 192 193 194 198 196 194 193 194 188 189 195 196 196 196 204 205 203 199 207 207 209 207 206 200 194 195 191 161 168 163 165 135 109  97  97  94  88  72  22 101  55  69  57  46  46  62  62  40  64  31  52  70  84  84  54  91  95  91  75  34  17  17   9   9  13  14  14  14  14
   0   6   6   8   8   6   0 130  97  80  69 139 141 139 155 147 150 177 189 187 188 185 188 195 195 200 201 201 203 202 201 197 199 204 203 202 205 207 206 207 203 208 207 209 209 210 207 203 205 196 192 192 179 177 172 137 141  87  76  68  96  45  36  84 103  83  50  61  59  59  67  51  36  45  39  55 112 128  84  93 106  62  14  11   8  11  13  13  13  14  14  14
   3   3   4   3   4   5   0 134 105  63 133 138 152 158 150 164 160 183 193 191 189 196 198 196 200 201 203 202 205 203 203 201 203 201 199 205 207 210 207 205 205 209 211 212 213 212 212 211 207 204 203 198 195 194 179 173 167 162 108  73  54  96  45  64  86 112  96  48  51  65  75  72  26  22  36  65 127 120 123  78 107  94  16  10  10  12  11  13  13  14  14  13
   4   4   3   5   6  11   3 121 112  92 153 159 146 160 170 165 161 188 190 191 199 195 195 197 200 204 199 199 202 204 206 208 207 208 207 206 210 209 210 209 207 211 216 214 213 211 211 209 209 202 206 202 200 200 190 188 174 172 150 124 104 115 102 112  79  72  86  92  70  76  74  60  56  37  30  46  98 104 155  96 112 100  27   7  11  12  12  13  13  14  13  12
   2   3   3   5   1   8  15 111 131 163 160 143 175 164 153 166 159 184 193 195 194 192 194 197 200 202 199 202 201 201 203 206 206 206 206 206 206 208 210 210 209 210 214 213 211 211 212 210 210 207 208 208 203 197 200 191 180 183 181 152 163 177 163 170 181 187 167 126 119  99  96 100 107  45  25  21  63 100 153 112 102  95  40  30  11  11  11  12  14  14  13  13
   0   3   2   5   3   7  18 119 138 170 161 161 160 161 160 163 157 179 191 195 194 200 197 198 199 201 199 205 203 205 205 207 208 207 208 208 206 209 210 209 209 209 212 212 212 214 213 210 209 208 209 207 207 200 200 194 189 193 193 189 196 201 202 200 201 200 174 149 135 136 107 153 128  92  58  16  58  90 154 108  92 103  20  15  17   9  11  12  13  12  13  14
   3   3   3   3   5   3  14  94 150 163 166 161 152 154 159 169 163 173 188 194 195 198 195 194 195 196 199 206 204 201 202 205 206 205 205 205 206 205 208 207 208 208 210 210 210 210 210 209 207 207 204 205 207 199 201 196 196 198 203 205 204 208 206 207 199 192 178 141 150 142 136 112 141 100  77  69  44  83 127 113 113 110  13  11  13   9  12  13  14  13  14  14
   3   3   3   5   1   5  11  90 175 178 152 167 154 156 172 165 154 169 184 192 194 195 194 194 193 195 196 199 194 196 198 204 204 203 203 205 206 205 205 206 206 207 208 207 205 202 202 204 204 201 203 203 203 198 201 201 202 203 205 204 208 207 207 204 204 192 177 170 146 146 157 139 153  84  97 109  38  60 118 111 111 111  32  21  11  10  14  13  14  13  14  14
   3   3   3   6   6   3   2 114 175 152 177 134 161 166 165 169 168 163 179 190 193 197 196 193 199 194 192 196 197 193 193 197 204 203 198 195 200 204 199 205 202 200 200 200 200 198 199 197 195 190 190 196 193 196 198 202 199 201 206 207 207 205 206 204 200 191 175 161 156 144 138 131 126 119 108 104  49  69 134  92 102  92  27  23  12   9  10  10  12  12  13  13
   3   3   2   4   2   5   3  96 178 151 151 146 156 149 161 168 169 162 170 182 189 194 195 193 189 196 197 190 188 189 187 192 198 199 198 195 191 191 194 199 197 198 196 199 203 206 207 211 210 208 207 210 210 206 204 205 202 205 207 207 207 204 205 201 194 186 179 169 143 136 136 130 134 121 106  83  75  91 122 102 117 109  32  16   8  11  12  12  11  11  11  12
   3   3   2   9   5   5  28  74 166 163 137 159 153 143 158 170 165 159 166 182 191 198 202 197 194 200 199 200 199 202 202 204 206 209 209 209 209 211 212 212 212 213 213 209 205 205 204 205 207 207 207 205 206 207 210 210 210 210 208 209 210 210 204 199 192 184 184 174 159 116 117 113 113 113  81  97 101 112 112  87 107  30  33   1  11  12  11  12  12  12  12  11
   2   4   5   0   4   4   1  42 159 159 135 141 143 149 149 154 163 163 169 180 188 193 200 200 196 197 197 198 203 203 204 204 204 206 207 206 205 204 206 206 211 207 208 207 207 205 208 207 206 205 204 206 206 204 203 205 207 207 207 206 203 199 205 199 190 190 188 190 171 150 117  91  83 113  84 108 102 119 135 107 137   8   8   8   9  10  11  11  12  12  11  10
   3   3   6   2   5   5   5  24 155 161 129 119 159 152 141 142 154 167 170 179 188 194 199 202 201 196 197 202 203 201 202 204 204 202 201 201 205 206 208 206 204 209 201 203 204 207 210 208 207 207 207 205 205 209 207 214 214 214 212 210 207 203 205 197 186 195 197 194 182 168 137 111  86 105  74 107 102 114 132 130  95   5   6  14   9  10  10  12  12  13  12  11
   4   6   5   2   3   2   2  41 149 178 135 133 127 123 138 151 162 166 170 178 186 196 197 202 205 204 199 200 206 210 210 207 207 208 207 208 208 207 205 205 209 205 211 207 206 206 206 209 214 215 213 211 210 215 212 214 214 213 213 213 209 207 206 198 187 191 192 188 185 183 148 128 115  94  77 105 100 109 121 146  40   4   7   9  12  10  10  12  12  12  12  12
   6   5   5   2   3   1   0  28 139 167 154 125 121 124 150 162 169 168 170 180 188 198 197 200 205 207 210 208 209 204 204 202 206 207 209 212 211 211 214 212 213 210 210 207 210 216 217 217 217 216 213 212 211 212 211 214 213 212 212 209 205 205 200 194 191 191 188 188 188 189 171 144 132 104 102 110 116  96 144 143 185 203  81  22   8  11  11  11  12  12  11  11
   6   6   6   2   5   5   3  11 106 161 156 144 101 120 157 166 171 172 174 178 186 196 200 204 206 206 205 205 205 206 206 204 206 206 206 211 216 212 208 213 213 208 209 209 212 215 215 213 214 213 210 212 212 212 208 206 206 206 205 207 205 202 198 194 193 191 191 189 189 184 180 173 146 104  92  75 106 110 134 172 210 194 175   2  13  12  12  11  12  12  11  11
   4   6   6   2   4   6   4   0  92 149 157 135  87 123 157 166 170 171 175 184 188 196 199 205 205 201 200 197 196 200 202 204 202 204 205 201 212 214 210 208 209 205 205 208 211 210 211 211 214 213 211 208 212 211 207 206 205 207 203 207 203 202 199 195 195 190 193 189 189 190 183 175 167 137  80  67  95  92 123 190 184 142 165  17  11  12  12  12  12  12  12  11
   9   7   4   5   6   5   6  10  76 133 165 144 110 114 156 169 173 170 171 184 191 198 198 201 202 202 201 198 198 198 198 197 202 199 201 204 202 208 206 205 199 198 201 202 206 209 206 207 207 211 208 209 202 204 198 204 205 195 197 195 200 204 202 205 194 192 194 190 192 189 185 182 178 151  91  43  89  91 139 171 114  91 151  19  11  12  12  12  12  12  11  11
   9   9   9   8   5   4   8  13  59  80 163 130 134 118 160 167 172 172 179 187 190 185 172 182 192 191 194 191 189 192 195 201 200 195 198 200 202 197 199 196 193 193 194 199 200 203 207 208 207 210 210 205 203 200 191 178 184 173 181 191 204 205 201 197 195 200 195 195 193 196 188 180 173 150  79  78  89  71 140 139 122 129 153  14  11  12  12  12  11  12  13  13
   9   8   9   8   5   6   3   3   3  36 134 151 130 117 165 163 171 169 173 181 177 175 161 152 161 170 170 179 181 183 185 189 190 194 190 196 196 197 189 188 191 190 183 184 189 189 194 195 191 191 195 191 184 164 151 142 135 143 163 177 188 201 198 193 190 190 193 194 193 190 188 179 174 161  83  61  97 111 146 164 122 159 133   7  11  12  12  12  12  12  12  12
   7   6   7   6   5   4   6   3   3  30  60 142 127 101 162 174 172 171 167 166 157 152 146 147 130 124 126 142 135 141 153 170 174 179 180 183 185 185 182 182 181 181 181 174 176 185 182 182 171 143 129 123 124 115  91 101 108 124 134 158 172 180 176 186 190 188 174 188 185 189 185 181 176 166 124  71  97 169 170 172 134 164  77  19  11  11  12  12  12  12  12  12
   6   6   6   6   6   2   2   2   1   1  25 117 103  82 163 173 171 168 149 139 135 132 127 115 100  77  73  78  83  77  83 103 112 132 157 166 176 178 173 174 174 171 176 171 171 170 160 152 128  91  77  62  70  68  81 100 111 115 128 124 149 160 153 168 172 178 172 172 177 187 184 182 174 168 109  82  90 172 167 171 151 177  21  12  12  12  12  11  11  10  10  10
   6   6   6   6   6   3   2   2   1   1  20 107 106  67 165 162 168 154 130 126 115 119 130 134 132 126 113  86  67  66  63  57  65  93 126 152 161 166 166 175 179 172 171 162 156 150 141 113  97  81  81 104 122 153 169 164 160 159 153 135 125 135 146 140 154 156 162 166 180 189 184 186 178 166 101  77  81 135 156 168 159 111  10   9  12  12  12  11  11  11  10  10
   6   6   6   2   1   3   3   3   2   3   7  70 117  65 164 159 155 142 126 119 133 146 154 161 166 170 163 169 167 177 163 158 136  97  91 121 141 154 157 172 177 172 169 163 155 139 133 114 118 140 145 144 155 172 180 180 197 181 173 146 134 142 137 145 145 158 154 172 187 185 181 182 179 157 111  57  81 143 155 171 168  42   8  12  11  12  12  11  11  11  10  10
   3   3   0   2   0   1   0   0   0   3   6  29 126  67 157 167 156 150 137 127 139 144 154 161 157 160 170 160 156 148 164 149 151 156 130 102 108 135 149 162 171 173 170 164 149 133 112 113 119 109 101  82  32  34  41  53  41  48  72 112 142 141 137 135 155 158 166 172 179 178 178 182 173 159  95  60  80 138 152 177 151   4  11  12  11  12  12  10  11  10   9  10
   3   3   3   2   0   0   0   0   0   2  12  10 131  57 157 155 153 144 146 130 126 130 120  85  32  43  24  30  43  66  33  67 102  98 101 112 100 115 137 164 176 180 173 161 146 135 119  96  93 114  84  97 171  67  59  42  55  57 146  54  60  97 113 132 134 142 151 166 179 175 181 179 176 152  91  41 143 152 165 186  93   5  14  12  12  12  12  12  12  12  10  10
   0   0   0   3   0   0   0   0   2   6  25  44 118  62 142 160 158 153 139 132 116  92  72  52  63 143  69  51  34  62  70 169  99 123 149 125 104 121 136 170 193 195 183 170 160 145 128 141 141 126 193 145 186 127  72  59  67 121 160 125 119 111 120 129 133 145 165 175 179 183 184 177 167 150  74 112 151 165 182 192  36   8   8  12  12  12  12  12  12  12  11  10
   0   0   0   0   0   0   1   1   4  22  52  62  83  86 118 159 163 160 145 129 111 102  87 109 120 160 150  65  48  61 135 180 144 135 128 163 134 121 155 179 200 202 193 184 179 156 158 163 127 124 130 143 156 170 138 127 145 158 144 159 152 166 159 162 156 167 185 193 188 189 186 176 167 149 132 150 164 173 197 167  12  12  10   7  12  12  12  12  12  12  11  10
   0   0   0   0   0   0   0   3  21  48  69  82  94 139  84 155 167 172 161 147 131 140 152 144 141 147 155 138 117 152 160 164 142 141 154 161 168 125 165 190 206 208 203 191 184 158 170 167 175 160 148 144 143 143 149 154 141 167 175 181 177 188 197 187 190 189 191 194 191 189 176 171 168 152 148 166 156 186 197 139   2  11  12  12  12  12  12  11  12  12  11  10
   0   0   0   0   3  17  23  30  49  69  84  96  96 145 112 152 168 177 176 171 176 179 171 169 175 154 141 146 158 155 171 169 176 161 153 143 150 138 179 201 213 214 208 201 193 163 173 166 149 158 158 155 178 177 186 189 190 193 187 177 192 196 194 192 199 203 209 206 197 190 179 167 167 156 187 160 192 191 177  86   9  11  12  12  12  12  12  11  12  12  10  10
   0   1   1   8  18  34  40  74  99 107 112 118 117 148 159 150 168 182 184 180 181 183 185 179 176 177 170 171 179 176 185 173 159 154 161 149 139 162 189 198 208 210 209 205 195 169 175 161 148 149 159 158 170 180 179 185 180 186 189 195 194 199 201 203 203 204 208 208 198 192 179 169 165 158 199 173 198 184 175   8  14  11  12  10  12  12  12  11  11  11  11  10
   0   3   8  26  37  62  94 143 150 155 152 135 135 162 170 145 167 185 188 191 189 188 184 185 186 178 184 183 179 176 170 166 167 163 171 160 154 173 196 196 212 213 210 204 195 183 186 180 174 153 154 170 183 189 191 190 199 201 201 201 204 202 205 209 211 210 206 204 193 189 181 166 164 165 185 193 200 186 139   3  10  10  10  10  13  12  11   9  10  10  10  10
  13  19  30  40  62  86 153 160 171 174 171 165 156 158 179 145 161 178 194 194 189 182 186 190 191 198 199 191 188 186 184 171 170 174 179 172 170 179 202 204 209 208 208 206 199 194 194 193 195 179 157 168 189 201 201 205 206 205 201 201 205 207 208 210 211 210 207 203 191 182 174 168 167 161 192 202 193 185  41  14  11  10  10  10  12  12  12  10  10  10  10  10
  39  46  52  62  86 110 170 174 184 183 182 178 164 163 176 145 160 173 191 196 196 193 189 191 187 194 196 198 197 187 180 173 179 185 181 179 175 190 202 209 213 212 214 211 201 196 201 194 196 203 184 165 166 183 198 206 204 203 203 208 206 209 210 209 208 207 204 197 181 173 166 166 169 162 183 180 185 142  13  10   9  10  10  10  12  12  12  10  10  10  10  10
  63  69  70  79 102 125 171 183 192 189 188 182 168 167 176 149 157 167 188 192 192 189 186 189 181 189 186 189 186 172 168 184 187 186 176 182 176 192 204 210 212 211 214 212 203 195 196 198 197 204 204 195 166 167 185 189 194 198 204 207 205 207 209 205 206 204 203 192 178 178 164 171 173 164 174 178 192  42  11   9  12  10  10  10  11  10  10  11  10  10   9  10
  79  84  85  93 116 137 163 184 196 196 189 179 175 174 177 150 152 163 184 193 194 192 184 191 186 188 183 188 178 185 188 195 190 184 177 173 174 192 201 208 213 212 210 209 203 197 192 187 194 202 209 206 206 192 177 179 188 194 195 198 204 204 206 205 201 198 196 182 169 176 166 176 169 161 198 183 146  14   6  20   7  10  10  10  11  10  11  11  11  10  10  12
  95  95  97 105 125 146 158 180 188 192 183 179 177 187 161 154 151 159 173 180 187 191 191 187 183 181 180 183 176 178 187 186 188 183 173 173 172 188 200 210 214 213 209 208 200 194 192 192 194 200 204 210 209 209 206 202 195 195 201 203 201 197 201 202 195 189 182 173 172 170 170 178 170 162 188 174  55  14   9   5  12  10  10  10  11  10  11  11  11  10  10  12
 106 106 106 114 134 154 167 180 186 185 186 184 186 183 181 142 146 156 158 172 174 179 185 188 184 183 178 183 183 185 188 186 188 181 176 176 168 182 198 206 216 215 209 209 202 197 192 191 194 200 202 204 204 208 212 207 206 203 204 198 194 189 191 194 187 186 176 178 175 164 171 172 158 165 177  60  14   9   9  10   9  10  11   9  11  10  10  11  11  10  10  12
  99 102 109 118 139 159 175 182 189 189 187 188 187 186 187 174 145 155 146 165 168 173 175 174 178 184 185 187 190 193 189 190 188 181 179 177 174 184 197 205 215 217 209 210 205 198 193 190 197 202 203 208 207 210 210 202 207 200 201 199 191 188 190 187 185 180 177 176 169 162 171 172 164  88  25  10   4   9  10  10  10  10  12  12  12  12  12  10  12  12  12  12
  91 100 112 124 144 162 175 184 189 191 189 189 187 186 188 189 145 150 148 149 167 174 173 177 184 187 195 190 190 192 188 193 191 185 174 178 177 190 200 205 215 218 210 211 207 199 191 189 196 194 201 206 210 210 205 211 207 202 201 202 197 198 199 190 184 177 178 176 167 167 172 172 166  10  11   6  12  11   9  10  10  10  12  11  12  12  12  10  12  12  12  12
  84  97 114 128 147 164 177 187 191 190 188 188 188 185 185 186 148 145 152 152 159 175 179 184 184 192 193 191 189 188 188 191 186 170 153 164 179 190 200 203 211 215 214 210 206 192 190 180 184 190 199 204 206 207 204 204 203 202 201 203 202 202 197 187 186 182 178 173 170 169 173 172 155   0  12  10   9   9   9  10  10  10  10  11  12  12  11   9  12  12  12  12
  77  98 114 130 147 161 173 179 182 184 184 181 181 178 176 175 151 144 157 154 155 170 174 185 187 184 187 192 192 185 183 178 171 164 156 168 175 187 198 205 209 214 212 207 204 190 188 180 176 181 193 202 204 207 205 205 205 204 205 201 206 199 197 191 183 179 180 175 169 171 172 168 150   0   7   7   8  10  10  10   8   9  10  10  10  10  12  12  12  12  12  12
  83 101 119 132 148 161 169 176 176 176 175 174 172 170 167 165 155 146 148 155 154 164 172 178 181 188 190 193 191 189 183 174 165 163 161 177 182 188 195 204 210 215 211 208 206 192 195 198 171 169 173 181 195 200 198 200 199 201 200 199 197 190 192 192 182 176 180 177 167 171 171 169 141   2   9   9   8  10  10  10  10  12  11  10  10  10  12  13  12  12  12  12
  86 104 120 136 147 156 161 165 167 166 164 163 163 161 159 156 149 147 142 157 151 161 171 180 181 184 186 186 182 181 175 162 154 149 175 185 189 187 196 201 209 212 214 210 206 196 197 197 176 161 164 167 182 186 194 197 199 196 190 192 186 186 186 184 183 182 181 175 168 172 173 163 104   6   6   8   7  10  10  10  10  11  11  11  10  10  12  12  12  12  12  12
  90 105 121 137 148 153 152 155 158 156 154 152 150 148 149 145 139 149 144 160 155 157 169 176 178 180 182 182 176 171 164 153 159 157 180 193 182 191 197 203 209 217 214 208 205 193 192 199 180 165 174 164 162 166 181 192 193 192 186 183 179 177 177 182 186 186 178 175 171 170 172 164  69  10   8   7   7  10  10  10  10  10  10  10  10   9  12  13  12  12  12  12
  96 112 126 138 143 151 151 151 151 151 149 147 145 145 142 137 135 148 144 155 159 152 167 172 175 175 176 175 176 170 159 160 170 168 140 165 174 187 198 203 208 218 211 205 196 183 173 176 168 174 184 178 162 162 174 181 180 186 185 186 186 180 179 182 183 182 172 167 166 172 174 168  11   2   9   8   7  10  10  10  10  10  10  10  10  11  13  12  12  12  12  12
 100 120 127 137 140 144 143 141 141 139 138 137 134 133 131 130 126 141 147 146 163 156 168 174 175 174 174 172 173 162 166 174 175 178 155 102 131 165 188 187 187 189 189 180 167 155 124 120 158 190 195 190 176 161 166 180 180 179 183 185 179 178 178 178 176 175 171 167 166 171 168 153   5  11   8   9   6  10   9  10  10  10  10  10  10  11  12  12  12  12  12  12
 100 116 126 137 138 136 133 130 127 126 125 123 120 121 118 115 112 125 145 140 162 160 164 169 173 171 171 171 168 167 173 183 187 179 173 161 128 101 148 165 152 172 160 147 114 109 130 170 190 196 201 197 191 174 163 167 178 177 181 186 183 179 167 166 174 174 171 167 170 171 169 141   4   8   8   7   8  10  10  10   9  10  10  10  10  10  11  12  12  12  12  12
 105 113 119 123 129 124 122 115 114 111 107 104 102 102 101  96  93 103 140 143 156 160 159 163 168 167 167 166 167 172 177 187 190 188 174 162 152 138 119 121 124 134 126 126 157 157 165 181 187 195 201 203 203 193 174 168 172 176 176 177 179 178 176 179 177 175 170 167 171 165 153  92   9   3   7   7   6  10  10  10  10  10  10  10  10  10  10  11  11  11  11  12
 119 126 122 113 112 105 105  99  95  91  85  83  80  80  76  72  66  70 136 135 157 158 155 157 161 164 167 165 170 178 179 185 186 183 174 171 164 164 149 140 119 118 139 167 168 181 180 178 189 193 201 206 208 201 194 178 166 180 179 177 181 180 173 172 172 169 170 169 172 168 159  34   7  12   7   7   6  10  11  10  10  10  10  10  10  10  10  10  10  10  10  12
 129 130 124 108  99  87  82  72  67  67  62  59  54  51  49  43  42  48 102 129 145 156 153 154 157 157 159 159 170 174 177 180 184 183 175 169 172 169 160 155 154 154 157 173 179 187 187 188 195 190 198 194 195 191 195 189 171 167 174 174 181 179 178 172 169 169 168 176 167 157 152   5   7   3   6   7   6  10  10  10  10  10  10  10  10  10  10  10  10  10  10  12
 145 139 125 103  83  62  56  50  47  44  38  36  33  31  25  24  24  38  68 135 137 154 152 154 161 154 155 156 170 173 175 174 181 176 175 172 177 178 172 170 166 160 161 178 192 196 191 192 194 193 196 196 200 191 186 189 181 169 175 171 181 180 181 169 170 165 169 171 170 154  72   5  10   8   7   7   7   6   6   9   9  10  11  10  10  10  10  10  10  10  11  12
 152 142 126  99  68  40  33  29  28  27  21  19  14  12  12   9  20  42  60 114 130 142 149 150 154 153 150 159 174 174 171 178 181 171 177 176 172 175 172 171 154 146 156 176 179 189 186 191 193 195 188 189 194 192 190 184 186 177 173 178 179 176 177 171 169 166 169 170 158 138  10  18  12   7   7   7   7   6   7   8   9   9  10  10  10  10  10  10  10  10  12  12
 163 154 131 100  56  24  19  17  15  13  10   7   5   5   6   5  22  44  71  92 124 138 145 148 156 141 158 156 162 168 173 175 169 165 171 168 172 178 172 175 159 153 144 161 173 189 192 184 185 184 184 180 190 189 189 182 185 177 175 177 176 171 168 170 170 170 169 158 154 130  14  18  16   6   7   7   7   8   8   9   9   9   9  10  10  10  10  10  10  10  13  12
 172 161 135 100  56  18  13  11   8   6   6   4   5   3   2   4  20  47  71  92 107 127 135 140 148 152 155 155 147 151 148 147 148 155 161 166 169 169 181 178 167 173 162 158 175 185 184 182 179 174 179 177 186 180 168 177 181 175 186 187 178 176 170 169 168 169 160 155 142 191   3   0   5   7   7   7   7   7   7   7   9   9   9  10  10  10  10  10  10  10  10  10
 172 161 132  99  52  16  13   7   7   9   6   4   1   0   3   4  29  55  77  99 112 116 126 136 144 154 148 140 136 139 132 142 151 161 163 177 170 175 187 184 183 179 171 186 181 188 191 175 183 173 175 177 177 170 166 164 167 168 178 181 173 170 166 165 164 165 160 144 146 224 151  38   8  11   8   7   7   7   8   7   9   9   9  10  10  10  10  11  10  10  10  10
 173 160 130  95  50  15  14   9   7   9   5   3   1   1   4  11  36  58  82 101 113 112 122 120 128 149 161 147 123 105 102  95  96 134 159 164 158 172 171 165 188 189 191 197 186 185 175 178 183 181 173 140 121 132 142 147 167 179 187 185 183 165 168 166 165 163 145 137 161 231 236   3  45  15   6   6   7   7   7   7   9   8   9  10  10  10  10  11  10  10  10  10
 172 162 129  90  46  14  12   7   6   9   5   2   5   3   7  19  45  67  88 105 113 115  96 122 129 143 155 159 152 139 132 143 150 135  94  82  90  86 108 119 135 158 157 131 129 123 113 114 106 117 135 163 163 144 148 157 169 177 185 179 171 172 170 162 157 154 135 157 166 245 239  36  36  31  22   4   8   8   7   8   7   7   8  10  10  10  10  10  10  10  10  10
 172 157 128  89  42  14   8   8   7   6   5   5   3   3   9  24  50  73  93 106 114 103 141 111 118 136 153 157 151 147 147 153 146 133 144 144 139 143 133 120 116 103 103 113 107 135 136 140 174 177 174 169 168 167 165 168 170 182 188 181 175 169 165 159 151 144 146 167 209 240 240  45  26  29  36  11   6   6   6   9   7   7   8  10  10  10  10  10  10  10  10  10
 174 154 126  87  41  16  19  16  12   8   3   6   5   4  13  33  56  81  96 109 103  18 209 161 116 130 140 145 151 146 144 148 151 139 126 149 159 157 153 162 165 154 157 167 167 163 164 170 162 147 159 164 168 168 163 164 169 171 172 172 175 166 162 153 143 135 164 175 243 240 242  62  25  32  25  31   6   8   6   6   6   6   8   9   9  10  10  10  10  10  10  10
 174 153 125  85  35  23  27  24  20  13   6   5   2   4  16  41  64  87 102 105  25   2 221 214 129 120 129 139 146 153 159 145 144 143 128 125 153 165 157 155 160 168 166 163 171 168 170 152 137 147 167 165 165 164 174 177 170 174 171 169 161 154 153 153 142 145 166 235 234 241 245  83  28  35  14  43  10  11   8   8   7   6   7  11  10  11  11  12  11  11  10  10
 174 151 122  78  34  32  36  32  28  18   9   5   1  10  28  49  71  93 106  44  20  32 230 223 166 125 128 138 153 151 155 158 153 145 138 118 115 130 136 133 135 138 130 133 136 149 143 126 138 162 166 164 171 176 175 177 176 170 157 149 149 146 148 137 138 168 230 237 243 236 241 122  19  32  11  36  43   5   9   3   7   7   9  10  10  10  10   9  12  11  11  10
 169 147 117  74  37  45  47  40  35  26  16   7   4  16  37  59  79  99  74  21   6  29 231 233 220 121 135 145 162 165 172 164 162 153 145 141 126 105  97 104  99 100 103 102 108 108 123 146 151 151 154 158 175 185 182 174 169 170 175 167 159 144 145 132 187 237 244 242 230 236 242 138  27  33  11  31  44  45   8  14   5   7   9   7   9   9  10   9  12  11  10  10
 164 142 109  72  42  50  52  42  36  32  21   4   6  23  46  66  86  98  31  19  13  18 233 229 225 198 112 137 152 156 164 168 165 166 162 160 160 149 125 112 104 103 108 108 113 134 148 161 171 172 172 183 187 180 176 175 175 162 165 169 141 135 150 232 245 244 244 239 238 243 235 103  19  28   9  35  45  42  47   5   9   8   9   8   7   8  10   9  10  10  10   9
 146 128 101  68  40  49  53  45  43  34  22   6  10  29  50  76  92  44  26  17   8   3 223 231 217 220 176 117 142 148 156 164 170 182 182 178 176 175 168 162 157 154 152 164 168 168 178 178 185 186 192 198 193 183 173 176 167 158 166 142 127 134 190 242 249 243 242 234 226 236 240  40  27  22   9  34  41  43  39  45  14   6   4   6   6   8  10  10  10  10   9  12
 123 106  83  55  35  45  49  45  40  31  18  10  20  41  63  75  45  35  29   4  10  26 207 232 234 226 215 164 114 137 151 162 167 179 190 189 190 189 186 182 182 182 183 181 184 192 201 199 203 198 201 200 192 184 174 170 159 158 147 139 129 201 236 248 245 242 240 231 230 247 108  21  35  14  11  34  41  40  42  35  38   9   5   5   7   9   8   8   9  10   9  12
  95  84  64  45  33  38  44  42  35  27  15   9  28  49  67  40  28  29  27   7  10  29 106 234 234 217 234 216 152 112 139 157 159 171 181 191 186 189 187 186 193 191 192 196 196 200 204 198 203 205 204 187 184 172 168 169 161 144 135 130 193 245 238 248 245 244 239 231 236 163  17  15  28  13  12  35  39  43  40  36  41  41  12   4   9   6   7   9   9  10   8  12
  64  57  39  34  31  31  35  34  25  21  12  19  39  57  40  32  33  24  25   6  11  14  34 238 230 224 224 238 211 135 128 147 160 163 172 184 182 184 194 194 195 189 195 198 195 200 199 195 193 201 198 181 182 182 178 165 143 120 129 194 242 243 241 246 245 242 237 234 194  25  13  35  13  13  13  37  39  41  39  35  34  37  41  19   2  11   5  10  10   7   9   9
  36  33  27  23  25  25  26  20  16  10  12  18  45  40  29  33  30  26  26  12   6  13  29 141 237 224 226 229 238 180 135 137 152 159 166 175 184 174 179 184 192 186 194 190 185 186 194 195 196 189 187 176 160 171 161 151 133 148 182 242 241 244 239 248 243 239 234 189  15  18  30  13  15  12  18  32  37  42  40  36  39  34  39  40  33   8   5   8  11  10   9   8
  25  23  20  22  23  19  20  16  14  12  14  29  35  28  34  33  29  25  27  15  10   5  11  20 229 229 223 231 230 238 180 130 141 142 152 152 168 174 175 173 176 178 180 178 176 184 189 184 177 178 180 162 161 173 157 144 159 193 245 240 240 245 241 249 243 237 237  29  14  16  21  10  12  11  21  33  36  38  39  38  35  37  35  38  39  39  44  18  12  12   8   7
  19  17  18  16  17  17  14  15  13   7  19  31  33  29  31  30  27  28  23  17   5   8  11  20  79 233 223 232 232 235 222 162 126 130 138 146 150 152 158 164 169 169 171 173 178 174 174 174 167 163 149 150 159 145 142 165 199 247 245 242 242 245 242 246 235 239 162  29  11  34  15  13  16   6  26  32  36  38  39  36  36  36  37  38  36  37  40  46  45  32  13   4
  14  13  15  16  13  15  16  12  13  26  38  29  29  31  30  29  27  24  23  15   5  11   8  11  24 122 223 225 229 235 230 232 143 133 118 126 129 138 147 152 154 154 158 165 164 160 155 148 150 146 147 139 133 148 169 200 244 243 244 243 242 247 243 242 244 231   6  11  34  13  12  19  14  11  28  32  33  36  41  37  38  36  37  36  35  36  34  35  35  35  44  47
  16  12  11  10   9  10   9  15  24  34  31  31  31  31  31  29  26  27  20  21   6   7   3   8  11  12 147 233 228 238 233 231 218 157 145 126 117 126 131 144 144 142 151 146 148 141 148 139 129 130 129 130 146 169 200 242 245 240 243 240 242 248 243 245 242  45  14  29  22   9  18  22  14  14  29  32  34  38  41  37  38  38  36  36  34  35  35  32  33  38  32  35
  15  14  12  10  12  18  30  36  32  30  30  29  31  30  29  27  25  23  28  23   2  98   8  13  12  12   3 136 245 230 234 240 223 228 180 142 141 124 122 126 135 135 132 131 132 130 117 110 112 115 127 155 169 194 242 242 242 244 246 244 240 249 244 233  42  19  24  22  10  20  20  24   6  14  31  35  36  36  39  40  38  37  34  34  33  33  31  34  32  32  34  33
  11  15  16  28  41  41  36  29  29  32  31  30  30  30  28  28  24  26  20  19  12 142   4  10  15  12  13  11 104 228 240 237 233 226 236 225 174 150 137 128 128 112  92  89  77  82 100 112 130 144 169 179 188 241 244 244 243 245 245 247 240 246 245  22  33  27  18  18  15  21  23  28  88  25  32  32  35  38  38  41  38  35  38  37  35  36  33  31  32  34  33  32
  13  31  41  44  35  33  29  31  30  30  31  28  28  28  29  28  26  26  24  25  12  75 174   1  11   8  11   8  17  36 246 238 236 238 234 236 236 231 213 157 146 148 124 124 135 140 144 146 152 165 187 187 243 244 245 241 240 243 245 245 245 251 247  25  28  23  17  11  16  22   0 181  33  29  33  32  33  36  38  39  38  38  38  38  37  36  34  30  31  33  33  33
  43  46  37  31  29  29  29  28  31  30  30  28  28  28  28  28  26  26  26  23  16  50 207 142   6  13  10  10   2   0 235 238 237 235 237 236 235 234 239 231 186 167 163 149 133 142 154 149 155 158 186 232 247 244 243 242 241 244 250 249 246 246 249  31  22  13  13  17  19  10 121 208  43  28  27  33  35  33  35  35  37  40  36  36  35  34  33  32  29  33  33  32
  40  32  31  28  31  33  32  29  30  29  30  28  28  28  28  27  25  24  25  19  16  21 189 224  57   7  11  14   5   8 200 238 240 236 239 238 237 236 237 239 239 207 174 162 164 162 151 141 155 172 233 246 245 241 241 242 242 247 248 250 248 248 253  88  18  16   8  14   6 115 219 229   9  36  37  34  30  36  35  35  38  39  36  35  34  33  33  33  33  32  35  33
