P2
# Generated by OpenCV 4.2.0
92 112
255
  51  51  61  84  90 108 117 111 112 132 133 132 134 134 137 142 137 130 129 135 133 131 131 144 140 140 135 133 140 133 136 145 142 142 142 142 138 140 142 140 139 141 143 141 143 140 148 147 145 143 139 140 142 143 142 140 144 140 138 140 140 140 139 139 138 140 138 142 147 142 141 141 136 137 143 141 136 125 140 197 204 195 224 248 247 239 230 234 176 140 144 145
  46  55  67 100  88 110 113 111 115 129 130 130 130 132 133 138 134 134 134 137 132 134 133 136 135 142 138 129 136 139 140 141 146 146 145 141 138 144 145 142 144 145 148 143 141 134 132 146 141 141 140 139 139 141 142 142 140 137 140 139 141 139 140 140 142 140 140 142 144 142 140 141 142 143 143 139 161 201 226 238 227 207 207 208 206 197 185 179 154 143 145 144
  45  59  57  94  86 103 110 107 118 130 131 128 127 128 134 135 132 136 138 139 137 134 139 139 138 139 141 133 131 139 141 144 149 141 132 133 121 133 137 130 114 128 123 133 120 111 105 120 126 146 148 141 138 137 144 139 137 138 144 145 143 138 140 137 137 141 141 138 138 137 140 140 140 142 141 137 160 190 177 162 149 139 133 131 130 130 131 136 142 141 141 142
  33  46  31  49  74  96 110 105 114 126 131 132 130 129 132 134 134 137 136 135 136 134 141 143 141 137 139 140 136 141 140 143 127 115 102  88 100 127 138 152 119 116 124 129 130 150 166 170 172 166 150 152 153 133 137 144 140 130 128 136 146 140 142 142 140 142 143 139 138 140 140 140 143 141 140 140 137 130 131 135 134 134 135 141 136 133 139 143 140 140 141 143
  52  48  49  64  93  94 100  99 108 128 135 131 131 129 132 134 131 136 135 134 140 140 138 140 136 136 140 138 142 143 141 122 113 143 163 162 167 168 162 166 156 159 177 166 175 193 175 162 167 165 157 154 162 161 147 130 128 135 141 128 136 145 141 138 142 143 143 139 139 141 141 137 137 136 139 138 140 141 142 141 139 139 137 140 143 141 143 141 142 146 138 142
 127 119 116 135 143 122 108 104 110 134 131 126 133 132 132 137 137 136 135 132 134 138 139 139 143 136 140 147 127 117 140 155 165 164 169 169 163 166 162 155 171 173 176 180 177 182 187 193 197 187 140 130 160 149 155 161 124 105 126 140 128 128 146 142 144 142 145 143 140 140 140 140 143 141 141 138 139 143 141 140 141 141 137 137 141 142 142 144 145 146 141 144
 121 124 132 139 143 137 133 124 120 133 135 130 134 136 141 141 142 139 135 133 133 135 138 138 138 138 136 119  99 117 130 135 151 153 167 184 196 184 182 183 187 168 168 159 167 181 173 183 174 188 196 151 152 147 118 162 170 135 112 134 165 140 125 139 148 139 141 144 145 145 143 143 143 141 143 141 140 142 138 140 142 144 142 139 138 141 146 147 148 147 145 146
 134 131 132 136 137 137 140 140 134 136 133 130 133 138 138 139 134 134 137 140 139 135 141 137 147 162 152 141 160 154 137 137 174 187 182 189 200 210 211 214 210 201 189 181 185 187 190 183 167 162 182 187 145 169 115 123 155 153 151 128 131 178 162 126 137 145 146 147 144 144 145 146 141 141 143 143 140 141 141 140 136 140 141 137 141 151 146 142 143 144 144 144
 138 134 133 134 135 138 140 138 135 136 132 134 134 132 136 134 134 136 138 141 138 141 150 155 162 159 164 159 144 144 155 148 137 141 160 187 177 203 203 212 221 223 217 201 195 198 201 211 189 177 145 170 169 153 157 120 133 148 162 187 164 138 141 133 118 136 149 141 141 144 143 144 142 139 140 143 144 143 141 141 142 141 141 142 145 147 144 147 148 143 144 141
 133 132 137 137 134 136 136 134 135 137 135 136 136 138 138 136 137 143 140 141 146 146 150 150 144 171 173 128  74  66  69 118 104 108 125 165 191 171 191 199 200 211 228 228 207 198 194 205 218 208 184 152 181 169 154 158 148 161 146 167 190 188 148 110 108 121 145 140 127 132 143 140 140 140 139 142 144 141 144 147 144 143 142 141 141 141 143 147 145 142 146 145
 129 132 138 138 138 132 134 134 133 132 130 133 135 137 138 141 139 139 145 136 111 112 117 133 171 150 108  91  91 108 106 119 141 139 142 115 184 198 165 193 213 204 201 222 232 224 212 201 205 214 218 192 178 185 152 160 171 191 172 156 163 170 194 170 115 109 123 150 145 125 135 144 139 142 142 140 140 140 142 143 145 139 139 141 143 141 142 140 138 138 146 147
 126 131 134 135 137 134 135 134 134 135 134 135 134 134 133 138 139 139 137  94  74  91 115 145 161  94  69  65  91 103  95 132 131 152 189 161 119 188 201 171 186 209 208 216 223 225 224 227 199 192 225 221 183 176 183 170 163 185 184 152 148 139 131 156 176 136 118 128 146 135 129 138 141 143 142 140 140 141 142 142 143 146 141 141 145 147 143 142 143 141 141 147
 132 134 134 135 137 138 135 133 130 133 134 134 134 135 136 137 138 140 142 128 113 106 128 151 121  98  90  45  68 102 108 114 141 146 160 208 182 138 194 199 158 189 221 209 224 224 207 212 231 203 191 224 219 190 178 189 184 177 207 193 161 160 128 105 139 173 148 144 145 135 132 136 145 139 149 145 139 141 140 141 143 150 148 143 143 146 143 143 139 142 144 143
 136 135 133 133 137 141 136 135 133 134 135 135 133 136 143 143 140 117 114 132 146 123 101  64  60 116 113 106  75  61  79  92 117 155 164 176 219 187 153 201 194 178 211 208 187 221 226 207 204 225 209 193 232 224 195 177 183 174 180 215 217 176 163 157  91 112 152 145 142 143 137 137 146 145 148 144 141 141 148 143 142 146 146 145 142 145 144 145 143 143 143 143
 129 130 133 131 132 137 135 135 134 138 133 138 136 136 143 144 135 128 135 137 153 122 104  67  85 112  84 106 127 136 108  63  74 105 162 168 172 223 195 156 203 190 181 206 188 184 204 230 219 186 215 207 187 215 213 203 177 172 139 126 200 230 185 166 177 124  95 140 137 160 131 139 148 153 149 137 139 146 147 148 144 142 147 149 142 146 143 140 140 142 143 139
 130 128 132 134 136 137 135 134 132 133 136 135 137 138 140 133 125 151 175 158 135 131 144 124 122 128 112  77 107 131 156 156 126  84 100 144 157 166 229 202 165 191 176 188 202 187 165 180 215 214 170 209 201 157 193 208 201 196 177  99  92 185 218 177 128 165 131 100 128 150 132 137 146 145 142 140 143 153 151 150 145 142 143 146 147 146 143 143 138 137 141 136
 133 134 136 137 135 133 134 134 133 132 132 137 137 138 144 112 129 155 149 110 114 121 121 131 124 124 125 134  95  88 109 132 166 175  80 106 123 132 164 223 203 191 171 166 192 205 188 160 159 192 214 170 184 184 145 185 189 176 201 159  78  83 143 206 143  86 135 114 114 129 111 114 104  86  94 115 114 135 157 153 147 145 145 147 147 145 142 140 138 136 139 139
 131 139 140 145 146 144 140 137 134 131 135 134 136 140 146 134 137 135  92 108 124 136 128 124 135 147 148 153 141 100  93 114 110 131 109  88 109  98 118 157 211 202 179 162 168 194 198 190 167 151 171 204 157 172 173 144 157 172 154 203 143  71  69 132 180  93  97 113 105 107 119 101 100  92  86  81  68  69 113 151 153 145 143 143 144 142 144 143 142 139 137 137
 128 142 146 149 145 134 132 137 137 133 135 135 132 138 145 139 135 116 126 139 166 161 104  76  98 105 135 169 170 169 155  97  84  74  69  61  88  97  76 105 161 194 208 180 148 167 181 186 187 169 150 164 180 153 175 161 126 155 136 137 173 120  69  63 134 122  58  90  95  96 117 145 185 172 137 113  90  72  47  80 149 155 150 142 141 140 144 144 139 142 140 138
 159 114  81  76  71  58  80 121 136 136 134 140 154 156 145 147 132 118 127 140 152 143 127 128 113 107 103 104 127 160 189 185 164 116 104 107  94  89  92  95 123 144 179 190 169 161 172 176 180 180 169 164 169 173 151 167 151 137 149 120 138 147 107  57  96 131  92  85  93  88  82  89 119 166 190 160 131 127 110  60  88 156 150 141 141 138 137 139 135 139 137 137
 208  66  34  42  42  40  75 107 114 123 131 161 181 189 170 157 125 141 137 163 173 160 157 136  99  99  93  83  65  66 127 169 186 178 169 166 150 125 121 110 120 134 147 155 171 172 171 173 169 182 181 161 163 168 157 155 155 137 138 145 133 128 129 102  85 100 110 107  98  78  69 101 123 131 150 172 165 106  98  97  74 122 152 143 137 140 139 139 137 133 134 136
 204  68  40  54  48  49  82 107 105 107 123 148 151 161 162 142 130 146 148 152 150 152 149 127 101 102 106 129 125 108 104 133 150 156 162 162 158 166 156 143 137 158 165 169 171 180 178 175 176 180 186 183 170 166 168 158 164 147 138 141 131 126 126 113  86  92  98  98  91  52  45  93 108 154 162 142 168 175 125  84  89 107 145 143 135 138 142 138 142 138 135 137
 191  71  48  61  47  56  83 106 107 112 118 129 148 158 165 152 125 115 137 135 141 136 125 127 152 166 167 154 144 147 151 148 142 152 145 150 157 162 166 168 176 165 160 168 183 189 189 193 190 189 188 188 187 177 170 174 176 172 156 154 141 130 129 111 104 102 103  91  86  53  49 101 109 130 168 188 177 148 154 137  83  67 136 135 137 139 136 139 138 139 134 137
 168  61  48  61  51  64  89 111 129 140 147 161 173 162 142 138 118 123 131 128 135 129 132 143 136 106 117 136 132 139 159 161 163 157 155 154 152 155 163 169 175 170 176 193 194 193 191 190 190 193 195 196 194 187 187 184 178 185 172 164 154 141 133 133 126 110 114 114  99 102  69  98 135 140 162 186 211 206 146 134 119  80 119 143 143 141 135 135 138 136 140 133
 173  69  47  64  57  75 107 122 146 144 159 170 172 165 132 122 138 134 127 134 135 129 124 108 108 113 134 140 146 154 162 163 166 170 174 165 169 177 177 184 195 192 191 201 204 194 197 203 196 188 196 198 203 201 192 191 190 187 181 178 165 153 144 143 140 119 131 132 116 129 120  95 121 139 150 167 192 200 189 167 131  96 112 142 140 140 134 134 138 137 136 132
 185  70  55  55  60  75 109 125 129 140 168 173 187 166 146 122 124 137 132 109 102 117 120 128 138 154 163 158 163 176 181 183 178 182 186 179 179 184 181 182 192 197 203 210 208 203 203 205 204 198 200 199 201 208 202 190 194 187 181 178 171 155 151 139 138 136 144 140 126 118 137 135 123 155 176 167 164 178 162 150 162 108 103 128 138 140 139 135 136 135 135 133
 187  65  54  55  62  66  93 109 121 154 191 193 190 174 161 137 143 124 112 109 119 136 138 154 157 158 170 174 177 188 192 192 187 185 192 195 197 200 195 197 196 197 208 209 206 204 205 201 200 197 201 200 199 202 199 191 196 189 187 183 165 160 148 144 139 140 144 143 129 121 129 136 136 126 178 178 192 169 173 166 131 130 108 102 122 139 138 133 134 134 136 134
 206  79  54  54  62  71  84 106 130 174 204 195 201 181 154 132 131 101 126 133 144 141 149 163 163 167 169 178 190 193 190 184 186 193 196 199 198 196 203 201 200 208 208 209 209 201 204 204 201 200 203 201 201 198 196 192 192 190 183 177 167 166 155 137 135 137 141 142 130 129 132 127 151 143 134 179 175 196 186 158 144  98 111  99  95 128 136 138 133 133 134 133
 224  90  53  54  59  58  82  95 146 186 199 210 200 157 139 131 116 121 148 155 148 146 160 165 163 167 177 184 183 182 182 183 190 198 195 198 199 196 201 196 195 204 205 207 208 204 203 201 194 197 198 200 200 198 194 195 190 186 181 179 171 159 162 142 128 131 134 140 134 130 136 140 140 162 164 167 194 197 220 169 141 136 104 120 100 111 137 142 132 132 128 128
 230  85  43  51  45  72 105 136 167 172 221 217 206 169 148 140 127 152 163 168 161 163 173 163 160 171 181 178 180 187 192 186 189 190 189 197 200 198 202 202 195 205 205 208 203 197 198 198 201 205 202 200 204 203 200 195 188 189 178 181 172 164 158 149 134 133 132 134 135 130 140 147 142 126 180 193 189 190 212 209 145 122 126 100  86 115 130 137 134 134 128 130
 227  66  32  30  32  61 131 157 136 205 216 237 200 153 162 154 158 172 173 169 169 179 178 171 172 175 179 183 190 191 194 192 195 197 199 201 200 202 208 206 206 208 210 208 204 201 202 197 203 207 206 199 203 201 201 196 191 187 177 170 166 159 155 142 132 137 136 136 133 130 142 158 144 131 146 203 199 173 180 205 186 124 120  97  63 120 118 136 138 135 131 131
 152  66  64  67  82 115 152 118 181 201 220 204 161 179 181 164 175 178 175 174 170 174 176 185 181 180 184 185 193 193 192 200 204 202 204 206 203 208 207 207 215 216 217 218 215 207 208 208 207 205 204 200 197 192 196 191 184 181 173 173 163 157 154 140 132 133 130 138 135 134 142 160 157 142 139 177 220 202 149 168 189 180 127  81  43 103 108 134 140 135 136 134
 111 118 113 125 136 144  91 143 178 197 191 167 196 197 168 174 184 180 172 173 171 173 184 185 183 188 187 186 187 190 199 199 199 199 202 202 204 211 215 213 217 215 219 222 223 218 218 219 209 202 202 203 200 199 190 190 184 177 177 168 166 163 146 138 136 128 136 141 132 135 143 149 153 150 140 162 182 224 189 167 168 172 172 118  63  84  98 123 139 137 136 135
 125 127 122 120 129  94 115 173 167 171 160 195 199 160 175 178 184 179 179 176 173 182 188 184 181 183 187 187 183 189 195 195 192 198 203 204 205 209 211 212 213 216 214 217 214 216 218 213 211 211 203 205 195 198 189 187 183 179 179 167 164 164 158 137 134 130 137 133 130 140 147 152 159 162 161 175 143 171 210 179 167 148 170 153  59  69  97 115 133 138 131 131
 125 129 128 129 124 112 165 170 165 142 181 197 171 185 184 187 185 184 180 178 169 181 187 183 183 183 186 182 184 194 196 194 196 203 203 213 219 218 218 218 216 215 207 210 214 211 209 215 210 214 204 198 198 196 189 180 181 180 176 169 163 159 160 144 138 139 140 141 130 133 147 158 163 166 194 195 183 137 194 188 166 157 156 168  65  60  91 101 118 134 136 133
 125 130 126 125 130 135 147 168 135 153 187 182 194 199 192 191 186 188 180 176 175 180 188 186 189 190 183 186 188 189 195 193 202 203 202 211 219 221 221 218 213 210 209 210 215 212 204 210 210 206 204 203 196 191 194 184 183 174 169 164 164 161 160 148 140 142 149 140 133 134 148 157 161 166 201 215 212 172 137 196 180 158 142 178 106  64  95  93 105 128 134 137
 131 124 123 127 130 131 134 155 118 159 177 199 216 204 199 193 184 185 175 177 181 180 185 191 188 194 189 189 188 188 185 189 202 205 205 214 215 221 223 222 215 216 217 218 220 220 215 211 215 205 198 198 197 192 193 189 183 166 164 157 162 161 160 155 146 146 150 146 135 147 144 149 154 164 184 218 208 205 135 163 194 177 141 132 129  76  94  91  95 121 134 134
 127 129 134 130 129 143 145 153 142 170 198 215 206 203 201 186 184 181 178 178 177 179 186 197 193 190 186 191 192 192 188 200 209 211 214 221 221 220 221 224 224 225 220 221 222 219 213 210 213 210 207 199 200 196 191 179 175 172 171 160 161 163 162 159 146 148 154 149 146 149 141 146 165 158 172 203 214 217 166 117 178 191 170 119  87 112 109  89  93 117 136 135
 129 132 132 133 145 144 149 150 160 183 210 214 208 194 198 189 180 175 178 174 174 181 194 196 193 193 188 185 186 193 195 200 200 195 195 192 182 183 197 202 206 198 197 197 202 205 199 195 198 203 199 196 191 185 185 175 168 174 173 164 162 162 166 165 155 145 157 155 149 146 143 142 161 168 170 189 216 202 190 122 149 176 189 164 101 111 101  92  97 115 137 136
 129 131 123 129 137 147 152 150 166 200 204 207 205 206 195 188 183 175 176 182 182 187 192 197 191 193 193 188 187 191 195 202 199 198 197 184 176 191 198 201 204 200 200 196 194 201 204 205 200 199 198 195 194 188 184 181 178 180 174 166 171 176 179 170 166 153 157 161 158 141 144 147 164 183 178 192 203 199 198 166 148 147 164 143 128 107 106  91  93 109 136 138
 127 132 131 126 144 163 149 151 169 191 198 202 196 205 194 185 181 180 183 182 186 189 190 195 196 195 195 194 188 190 190 200 203 203 200 198 198 201 197 203 210 210 207 206 205 206 204 199 198 197 190 191 193 188 188 186 180 176 169 171 179 177 179 174 172 163 160 160 154 145 139 144 165 180 190 207 194 192 196 180 161 159 132 134 115 119 117  98  93 105 133 135
 126 131 131 121 143 165 161 171 160 195 196 192 191 192 185 174 176 182 186 184 187 191 194 195 203 197 191 196 197 193 193 199 200 200 201 199 197 196 202 206 210 211 208 201 201 204 205 203 200 197 192 190 189 194 196 190 184 183 179 178 182 178 176 176 174 172 163 156 151 151 137 135 151 172 201 212 197 177 193 205 164 161 150 146 107 107 119  96  90  96 125 135
 125 130 128 123 153 164 163 162 165 188 186 184 179 173 173 176 179 179 190 191 185 190 191 193 204 191 190 197 200 201 204 203 204 202 204 205 204 203 206 205 206 204 202 193 191 197 200 201 200 195 199 200 198 197 195 192 190 194 186 183 185 185 179 176 181 165 157 162 155 153 142 134 142 165 190 200 207 165 173 193 186 150 164 151 130  78 115  97  89  94 121 136
 131 129 127 128 160 172 155 155 175 177 180 176 171 172 172 167 173 180 190 193 188 186 193 196 195 185 191 196 197 202 204 208 211 207 209 205 199 202 200 201 207 207 200 194 193 201 202 198 201 202 202 201 195 191 192 189 188 188 189 189 188 178 180 178 172 164 155 157 154 154 141 130 143 156 176 189 202 177 158 154 160 150 166 153 149  98 104 103  92  94 120 139
 129 131 130 127 156 169 150 150 165 173 163 160 164 165 165 167 171 187 186 189 190 189 192 195 190 188 191 199 196 196 200 203 200 202 200 201 195 199 193 193 190 195 207 202 193 202 208 200 200 206 204 202 195 193 195 185 176 184 186 191 187 184 188 179 168 163 158 160 163 148 138 135 140 147 165 189 199 191 157 174 145 155 169 148 125 118  91  93  89  89 118 141
 129 130 131 124 141 169 149 149 172 170 156 147 155 165 169 173 176 186 180 185 191 193 187 192 198 203 202 201 199 202 200 205 204 209 211 212 208 207 198 197 194 197 204 203 198 200 208 211 216 211 205 207 197 198 198 186 180 184 187 187 188 187 183 183 173 158 149 160 156 145 142 142 131 132 151 164 182 176 166 165 141 151 172 156 127 118  89  90  88  85 111 136
 125 132 131 122 143 163 148 156 164 165 148 135 150 163 173 176 175 179 175 182 188 193 193 191 178 193 200 200 201 210 207 210 215 220 225 222 222 217 212 210 207 205 202 204 211 208 210 213 218 219 217 220 211 205 200 189 188 189 192 195 188 166 154 162 176 160 144 155 149 134 142 146 132 127 127 133 165 148 158 159 153 151 152 141 127 126  93  85  93  87  96 130
 130 132 126 121 147 178 171 158 159 168 144 152 159 160 159 169 175 180 170 176 190 196 191 160 134 139 145 162 193 206 207 211 215 214 213 214 219 211 209 216 220 217 212 206 204 217 219 211 204 201 205 213 217 208 203 196 193 179 162 159 151 131 127 128 152 162 146 150 149 127 148 157 133 129 123 114 152 145 156 162 152 149 139 143 139 129 101  79  82  87  96 121
 130 131 126 121 150 190 177 166 156 152 155 149 158 160 160 170 167 175 178 182 185 162 134 133 138 151 137  95 114 146 157 156 158 179 196 197 197 194 188 200 213 213 212 210 193 195 203 194 188 185 192 201 193 182 173 162 134 122 120 110 112 127 140 131 122 121 120 137 151 125 147 151 132 127 127 107 134 150 153 170 158 153 135 150 133 119 112  91  78  77  91 125
 126 126 130 123 143 186 185 175 152 134 140 144 156 160 163 169 173 176 173 162 154 146 140 150 148 153 165 137  91  92 121  98  86 100 135 161 161 164 183 186 195 197 201 202 181 175 185 182 177 168 154 131 113 100  74  71  78 103 109 137 143 142 154 151 131 121 107 112 131 125 131 145 126 127 128 108 114 141 149 161 146 150 143 152 125 112  93  86  81  81  87 118
 127 128 128 125 136 177 187 162 128 128 139 147 159 160 160 162 168 174 157 141 150 166 173 162 148 146 148 169 141 111 111  93  72  99 130 146 156 169 184 185 191 193 195 181 169 166 183 184 178 166 145 142 126  96  70  80 115 124 165 184 165 149 152 146 140 127 117 107 111 125 124 140 125 121 117 110 110 133 134 147 130 134 153 137 115 120  83  72  78  78  86 109
 129 126 129 120 126 186 191 158 119 136 143 148 162 161 161 162 172 166 159 155 152 159 159 169 165 164 167 187 187 172 155 134 129 139 153 162 169 165 181 186 185 190 188 173 164 167 176 174 171 164 162 153 142 138 144 150 168 182 194 180 172 170 161 148 150 150 135 124 111 132 126 130 129 124 117 105 111 138 128 141 136 136 142 130 136  99  72  70  69  67  84 113
 130 128 128 124 127 172 178 143 124 156 149 148 172 168 162 159 168 174 165 153 159 168 161 162 172 175 178 191 210 201 192 180 172 167 157 159 160 157 175 184 186 189 191 177 164 161 171 162 159 150 147 144 151 165 178 189 200 202 186 177 173 163 159 147 141 145 131 123 123 132 129 123 136 126 116  96 115 138 132 140 124 151 152 141 132  95  71  69  71  72  88 118
 129 128 124 128 142 158 164 126 142 175 148 152 173 173 171 165 165 183 171 161 164 166 166 151 159 175 184 192 207 190 186 178 167 159 148 143 145 152 165 179 186 187 184 168 163 158 151 148 140 132 139 155 167 170 176 187 192 193 186 183 178 160 150 145 142 143 140 131 136 138 136 123 126 129 117  95 111 135 142 125 123 152 156 147 129  85  74  70  67  70  90 121
 126 129 131 129 138 154 152 129 156 163 143 155 168 175 180 177 165 191 177 157 160 162 158 152 154 151 138 126 119 103  86  89  93 112 131 120 112 129 157 168 173 189 189 183 164 147 140 137 122 129 140 145 142 129 105 113 107 106 118 117 109 120 125 129 135 139 132 135 145 148 131 119 124 131 117  97 104 133 140 115 118 126 155 147 138  74  69  77  69  69  87 119
 130 126 125 128 127 139 151 147 169 134 143 151 163 170 173 168 163 162 171 163 152 159 146  99  71  46  26  25  37  18  19  29  37  64  91 100 108 111 139 164 178 203 204 200 169 151 140 127 115 125 125 115  78  57  44  52  43  62  32  29  22  41  59  86 121 137 121 124 146 152 140 119 119 128 103  92 116 148 132 136 100 142 149 134 103  63  69  75  71  73  91 118
 100 115 125 125 120 127 150 166 158 123 150 142 154 174 178 176 175 168 152 146 138 136  62  11  17  97  47  28 105  44  29 124 106  61 104 107 115 122 134 164 185 211 215 205 174 151 138 107 131 135 114  97  73  42 144  83  58 104  15   5  45  41   7  13  72 121 103 115 147 164 151 106 119 133 111  91 109 139 135 151 118 137 105  85  68  66  69  71  70  83 101 121
  86  94 107 123 122 119 149 190 156 145 153 140 147 163 176 181 174 166 148 128 112  77  82 114 135 153  97  31  21  24  42 162 179  84 106 140 152 148 145 162 175 205 210 200 176 144 128 107 149 146 116 107  78  95 175 118  51  53  57  79 127 137  89  62  74  81 112 146 165 163 140 112 122 131 113  98 100 122 151 148 105 108  80  85  66  67  71  70  69  82 106 123
  90  93  96 118 127 120 154 194 140 166 168 135 149 163 176 183 183 181 178 166 152 144 165 185 179 173 172 165 160 137 131 142 134 140 138 144 179 178 153 167 172 198 207 190 167 136 131 124 156 169 142 130 139 148 138 153 168 181 180 181 171 166 156 143 140 142 159 157 147 146 147 123 109 105  98  98 104 111 143 142  97 101 114 110  63  70  71  67  69  82 113 124
 115 112 116 123 126 120 149 187 140 182 171 136 139 159 176 183 180 188 188 186 182 187 170 168 184 185 186 187 199 190 179 172 157 143 155 182 195 167 162 170 176 195 202 195 168 133 132 136 152 184 164 146 150 159 175 187 197 205 195 189 176 167 162 147 156 170 179 175 158 148 141 135 113 108 108  97  91  93 139 133 105  96 146 132  62  72  67  63  65  84 126 127
 137 133 132 134 129 123 133 186 151 167 159 129 140 159 173 169 176 184 186 193 189 177 156 155 159 169 175 182 182 182 182 171 143 123 131 164 181 162 161 164 171 186 193 194 177 133 122 150 153 167 159 147 147 151 164 174 182 175 165 161 151 135 135 155 177 184 176 172 158 159 142 120 110  99  99  89  92 102 138 110 101 116 163 127  61  72  70  66  71  91 116 123
 130 128 129 138 131 122 120 169 176 166 142 134 140 157 172 179 185 186 186 185 180 180 183 182 170 157 155 159 154 152 151 145 140 150 158 170 169 160 159 161 176 180 188 191 177 134 109 144 163 172 180 170 163 152 146 144 143 133 141 137 143 160 175 188 183 177 176 175 170 164 159 128  89  83  92  81  99  84 124  92 114 112 156 114  62  74  70  70  74 104 119 123
 129 131 130 128 125 126 121 157 198 178 137 124 140 165 180 180 181 187 187 183 179 189 190 194 195 186 183 171 160 166 178 173 177 179 183 181 164 160 158 163 176 183 186 190 177 136 113 134 165 171 183 192 190 174 171 170 167 168 177 183 188 189 188 195 189 181 170 168 174 176 162 152 112  88  96  92  90  73  76  85 129 116 137  87  65  69  66  73  86 112 122 125
 133 130 128 128 131 129 123 173 209 199 155 118 137 162 176 173 183 189 187 189 190 194 193 197 192 184 185 186 188 191 195 198 193 193 192 179 172 157 153 165 175 183 187 182 168 136 119 122 166 171 177 181 185 185 186 192 191 188 191 195 191 193 195 194 194 186 170 172 168 164 156 133 112  92  96  90  69  52  66 145 149 130 114  70  66  69  72  77 104 121 119 117
 130 124 127 132 133 125 127 189 195 196 160 118 141 162 177 173 186 192 194 193 188 189 191 189 193 189 189 187 188 190 190 187 183 187 183 178 171 154 154 172 184 183 184 181 163 136 128 131 165 177 174 176 178 183 187 189 194 196 195 194 195 197 199 190 181 183 178 171 160 146 148 121 103  92  92  91  82  54 106 177 174 154  89  58  65  66  62  73 110 120 119 119
 126 124 128 131 128 121 129 192 178 155 134 121 141 164 179 175 185 193 198 199 188 189 190 187 196 194 190 189 184 183 186 189 179 179 185 187 176 169 170 168 178 182 180 169 160 133 123 150 167 180 187 185 189 185 180 181 188 192 200 194 190 193 198 192 183 181 173 166 157 148 145 130  98  88  95  92  80  76 114 172 184 176  95  55  62  67  63  74 114 121 119 119
 130 131 131 131 130 124 124 177 187 154 128 122 142 157 176 180 182 186 190 195 191 192 195 193 197 194 192 194 192 188 192 187 189 195 194 198 195 190 175 172 192 194 188 174 160 135 140 170 184 183 189 186 189 194 188 191 190 188 195 189 186 194 193 192 187 179 163 161 160 150 145 128 101  90  98  88  82  85 110 151 157 181 112  60  70  68  66  75 112 124 125 120
 131 132 130 131 130 130 130 155 194 189 127 120 145 153 165 177 179 184 186 191 197 196 195 196 201 194 195 201 199 195 196 193 199 207 203 202 201 190 173 184 202 200 195 188 171 143 131 159 178 187 189 199 202 207 199 197 192 192 189 186 191 197 193 186 179 177 164 163 154 150 141 123 105  88  83  76  89  82  83 132 144 183 128  61  65  64  60  76 119 125 124 116
 133 132 133 139 138 130 128 170 205 207 129 122 147 159 162 172 180 184 185 194 198 195 190 196 203 201 202 204 204 206 215 209 211 205 197 191 203 187 172 192 196 196 190 177 173 151 131 142 150 172 190 202 206 211 217 214 200 194 191 197 197 205 200 194 180 165 162 150 149 149 140 128 112  89  77  85  92  77  80 112 146 175 113  62  62  62  60  83 121 120 112 109
 132 132 129 139 136 125 128 190 218 196 127 126 148 159 161 169 180 184 189 192 192 196 199 204 208 208 207 207 216 220 217 206 204 173 165 178 193 176 173 188 195 194 184 180 176 153 135 134 149 144 159 174 176 180 215 234 227 211 212 209 195 201 203 197 186 171 161 149 153 140 137 128 116  98  79  91  92  89 115 129 175 132  93  63  62  63  66  92 124 117 111 110
 131 134 127 132 133 129 166 208 218 184 124 127 144 162 163 168 181 183 183 183 194 204 202 207 216 218 212 214 215 208 194 179 170 163 155 184 186 170 177 183 183 189 194 190 177 161 146 134 152 154 135 139 150 156 177 201 217 225 229 221 202 198 198 189 191 179 169 157 151 134 126 129 113  98  79  95  91  92 168 179 148 120 105  55  63  62  67  97 119 109 116 113
 136 134 130 130 122 136 198 214 216 174 130 134 144 160 157 159 176 183 174 180 197 203 202 199 215 216 209 201 185 170 156 138 139 157 168 189 186 176 186 188 195 204 204 197 181 169 154 138 155 161 129 117 133 125 145 167 181 202 222 226 208 192 189 187 187 179 175 161 154 139 119 131 112  96  79  98  91  87 154 194 153 131  94  51  62  60  71 106 116 114 117 115
 133 131 130 133 128 144 200 213 208 160 129 139 145 155 154 168 171 179 183 187 191 194 198 195 206 203 187 174 166 156 127 129 168 167 174 192 187 162 162 182 207 233 221 211 193 169 132 130 161 155 121 117 146 133 118 140 162 175 190 202 190 180 183 177 169 171 169 158 146 135 111 128 121  99  89  98  92  83 141 186 177 154  93  50  56  59  75 115 116 119 117 110
 128 129 128 129 131 134 182 207 199 166 126 142 149 158 157 166 167 177 173 181 184 180 185 189 193 186 172 166 156 124 126 161 187 180 159 184 183 150 124 153 177 191 183 183 175 155 114 114 136 133 100 123 155 167 159 130 138 158 170 175 173 176 172 171 165 167 155 148 140 133 115 123 118  98  93  93  92  83 132 177 186 176 115  52  53  58  69 108 117 117 113 114
 131 130 133 128 128 126 149 190 193 168 128 145 153 158 158 159 158 163 163 173 179 178 175 176 165 160 158 148 111 126 180 190 192 186 141 128 109  86  98 130 153 153 147 159 163 127  61  60  71  79  93 145 175 177 179 175 131 134 151 163 170 168 165 171 162 156 161 149 143 133 122 119 121 110  94  97  91  88 136 163 184 180 147  61  59  62  70 107 116 117 111 113
 135 129 135 134 128 125 129 162 197 161 131 144 151 154 158 162 159 161 163 163 172 174 175 173 159 152 128 104 129 181 191 199 201 197 168 114 113 120 108 108 126 133 136 147 123  53  46 103 120 121 146 168 179 173 171 182 179 130 130 153 164 160 159 160 155 153 158 149 143 129 124 124 126 116  99 100 100  84 157 165 173 177 142  58  54  52  61 106 117 111 111 107
 139 128 131 133 130 129 126 127 149 136 133 144 153 160 158 158 160 158 163 171 166 165 168 165 155 129  96 143 192 189 192 198 197 191 181 176 176 181 172 133 101  87  77  95  58  49 109 141 153 152 158 171 173 168 170 172 177 156 123 131 159 159 153 155 151 149 141 147 145 124 122 126 127 120 101  95  92  80 153 179 157 168 106  55  58  54  65 105 115 109 110 110
 130 129 126 129 128 128 127 126 126 121 132 150 158 161 162 159 157 152 159 171 171 168 161 162 138 107 146 190 185 184 184 186 178 173 178 178 176 179 183 175 156 131 103 114 101 113 144 155 155 149 160 162 160 165 161 157 159 167 149 123 134 157 155 155 147 141 137 139 144 140 123 126 139 131 102  93  91  81 135 184 151 128  63  53  61  58  70 104 113 113 112 114
 126 129 127 129 131 130 131 127 137 129 129 149 162 167 165 169 168 163 170 174 172 175 167 165 128 140 188 184 183 179 172 177 170 170 180 175 175 173 165 169 183 187 173 157 154 144 148 155 149 152 157 153 149 148 142 137 149 162 169 162 136 154 168 159 150 134 133 136 149 140 129 137 141 127 107  91  97  78 101 158 115  67  52  60  61  62  69 103 112 112 112 116
 125 128 134 132 129 127 127 126 129 127 128 138 162 172 168 176 172 175 174 172 176 178 174 150 135 163 173 176 178 169 165 167 166 159 167 174 172 173 170 165 166 167 168 164 164 158 150 149 149 156 153 141 149 143 136 136 145 154 171 170 159 148 167 168 161 142 143 152 165 153 134 140 149 133 107  81  91  81  57  70  58  57  59  60  63  59  71 109 112 105 106 109
 131 127 129 128 125 128 127 127 124 126 125 134 164 173 171 177 177 177 185 181 180 180 178 145 157 181 172 175 171 172 170 162 163 171 173 181 172 172 179 169 160 148 163 164 158 166 166 156 150 156 155 148 150 144 146 150 152 155 147 148 163 136 163 179 169 157 156 166 169 155 140 145 147 138 110  79  87  95  64  52  59  60  62  61  64  58  69 112 117 106 105 107
 126 127 128 123 122 126 123 127 123 124 128 135 158 172 168 175 181 185 187 193 190 195 182 157 176 178 175 180 176 178 189 187 183 183 182 179 177 173 173 174 164 165 174 172 179 180 179 166 163 176 165 156 160 160 168 158 145 149 153 176 178 133 164 191 166 148 163 177 177 167 146 149 146 134 108  75  82  92  68  61  63  61  67  62  61  58  61  95 113 113 108 105
 122 126 128 123 125 122 126 127 130 126 128 132 154 173 179 178 182 184 185 193 193 194 191 172 182 173 179 174 176 184 187 180 179 182 185 179 176 188 194 195 191 192 190 188 199 193 172 155 152 141 140 138 138 138 140 140 136 155 184 189 182 153 180 199 177 164 169 180 180 170 152 159 142 134 103  70  82  86  65  60  58  60  61  60  59  56  57  88 105 105 104 100
 121 123 126 128 130 129 127 130 126 126 129 129 150 162 183 181 182 180 190 195 190 189 197 185 193 188 170 136 101  71  54  91 114 102 117 123 121 128 132 131 132 138 141 138 117 104  96  88  80  98  89  68  51  37  42  38  56 109 164 182 181 175 202 203 186 175 178 184 176 170 164 151 140 132  92  71  86  82  64  62  60  62  59  57  58  54  62  96 116 108 109 105
 123 121 127 128 129 133 130 125 124 126 128 123 141 166 175 179 182 184 185 194 192 190 200 202 192 173 161 148 138 101  28  71 110  99 150 159 170 186 131 172 158 117  99 139 149 139 141 160 148 214 153 109 121  55  18  56 108 147 162 186 191 201 212 200 182 176 186 181 176 169 166 149 140 120  76  63  75  82  61  60  60  58  59  59  54  57  77 105 116 108 110 103
 125 124 128 131 127 130 128 125 128 127 133 127 126 161 178 185 188 186 188 195 195 196 202 210 190 169 168 159 166 185 153 105  88 106 120 115 163 228 209 250 251 231 202 252 248 222 219 211 159 151 105  76  92  99 118 162 175 167 167 188 201 209 211 192 180 181 181 176 184 174 164 148 132 109  59  58  75  80  62  62  63  62  58  59  58  65  89 108 111 101 103 103
 124 126 129 125 125 129 125 126 127 129 131 130 123 150 176 185 186 188 188 191 194 200 200 208 192 178 175 167 171 175 178 163 153 155 144 123 101 106 114 158 185 172 151 223 215 156 123 117  87  99 130 129 125 135 145 157 165 174 175 192 201 212 198 190 190 183 177 178 186 173 155 141 127  88  52  62  81  78  61  58  53  58  65  68  70  82  99 114 108 100 102 103
 125 124 128 128 125 126 126 124 125 128 126 132 121 137 168 181 184 194 187 176 195 200 200 208 199 180 179 175 184 181 181 171 162 165 161 166 162 146 125 112 112 109 115 130 125 121 118 125 142 146 141 134 137 139 150 161 171 175 179 200 209 202 194 192 192 182 182 178 180 175 157 144 121  72  45  61  81  74  63  59  56  57  72  87  90  95 111 107  99 102 104 102
 127 127 128 132 131 128 125 126 129 129 124 138 127 125 153 175 188 185 194 188 193 195 197 205 210 190 182 182 188 184 190 181 162 171 178 178 184 188 187 176 156 150 151 157 162 172 177 168 161 143 138 138 143 151 162 169 175 176 185 207 207 199 192 191 185 182 180 175 184 173 150 135 105  58  48  74  86  64  66  64  58  57  76 106 104 104 109 104 102 105 103 101
 125 126 125 126 131 135 130 131 133 128 128 136 135 116 137 169 183 185 193 193 192 195 190 198 206 201 177 178 178 184 194 196 192 177 172 169 177 186 184 182 175 178 180 182 183 184 182 173 159 151 153 150 158 158 173 175 180 179 186 201 198 190 192 191 184 176 175 180 179 159 137 116  76  41  51  92  88  65  67  62  60  61  83 114 109 105 105 102 100 105 101 100
 127 128 125 124 128 130 132 138 130 126 128 129 145 116 121 147 173 184 192 193 189 190 188 193 199 197 181 175 178 188 195 202 200 196 180 168 165 167 166 162 170 177 159 166 175 171 167 162 148 155 155 159 167 157 172 184 181 179 185 194 198 194 192 191 173 174 184 185 166 142 125  95  52  36  71 100  77  66  65  59  58  60  90 118 112 109 103 100 102 103 103  97
 131 127 126 131 131 128 134 134 132 133 126 127 144 131 106 140 167 179 184 194 187 187 191 190 191 188 186 182 183 190 192 200 199 203 202 191 177 165 167 169 180 178 168 181 185 181 166 155 154 162 166 176 170 167 172 187 186 182 177 176 191 183 191 187 164 172 177 175 161 129 107  67  38  56  93  99  74  61  58  61  55  54  93 112 108 104 103 106 103 101 104  96
 127 126 127 130 130 130 130 135 135 131 128 127 134 150 120 120 155 175 181 187 187 184 184 186 191 185 183 188 190 190 191 196 199 202 203 202 200 191 189 186 193 190 191 190 183 179 182 186 180 170 171 175 173 177 168 181 188 181 160 176 191 172 180 172 173 171 174 165 139 119  89  52  36  85 107 104  69  62  60  58  52  57  89 108 106  98 104 111 104 104 101 100
 125 128 127 126 131 135 136 134 139 137 128 127 128 151 147 111 135 169 178 185 188 184 183 177 180 178 183 191 188 190 193 195 199 199 197 204 211 197 200 201 197 198 193 193 196 191 199 200 187 180 183 181 172 182 173 161 171 171 158 180 180 172 171 172 181 174 170 149 126 100  68  31  58 104 110  96  61  58  64  57  52  58  92 104 104 102 100 102 102  99 103 102
 118 121 123 124 128 128 133 130 124 123 118 120 125 142 161 135 113 155 169 178 189 182 176 180 181 175 175 182 193 188 189 195 194 189 198 202 209 204 202 201 204 209 197 196 199 196 186 194 191 180 174 188 183 184 179 160 160 153 154 169 163 167 169 178 173 170 157 131 110  74  37  43 105 112 122  73  53  67  64  58  55  57  97 107 101 102 100  93  98 101 100 102
 110 111 109 104 104  95  94  94 100 108 113 120 137 137 155 161 124 124 155 168 179 192 181 176 175 176 171 169 186 192 190 196 193 187 198 206 207 198 183 184 185 196 196 194 195 193 189 186 186 181 172 187 193 190 188 174 155 141 150 156 157 168 175 178 162 149 140 115  84  49  37 100 118 122 126  34  13  72  67  58  53  65 101 111 108 106 102  95  93 101 104 104
 108 114 114 115 119 122 130 138 154 173 186 206 180  94 158 165 152 110 124 155 168 183 192 180 175 170 171 179 188 193 195 198 195 191 191 195 198 191 181 181 185 183 183 191 190 185 188 175 178 184 187 192 194 188 185 172 152 139 146 146 155 175 179 176 158 135 124  93  62  33  82 123 121 128  96   9   0  43  66  59  53  70 103 104 105 103 100  93  97 100 104 100
 182 188 195 206 215 222 230 236 241 246 248 252  62  46 166 163 167 146 112 131 159 173 188 191 173 163 164 176 185 191 189 192 191 187 183 174 190 184 190 190 194 191 192 194 191 180 178 174 180 187 187 189 187 187 177 157 144 132 138 146 159 169 176 173 146 128 102  64  40  74 124 124 130 117  87  27   0   3  62  66  57  84 104 105 106 101  97  93  99  99  99  97
 247 247 248 248 250 248 248 249 250 251 253 164   0  33 155 168 171 165 140 112 135 164 184 193 183 165 149 163 180 192 188 188 186 190 189 185 184 179 189 200 207 197 193 197 192 182 171 173 182 187 186 180 184 183 172 152 137 125 133 152 170 171 170 156 135 110  78  46  68 117 129 125 123  99 108  70   0   0  28  64  59  88 107 108 100 100  98  96 103  99  95  97
 248 248 248 247 248 248 247 248 245 249 242  32   0   7 133 174 172 167 158 134 110 138 160 180 188 179 153 143 166 170 188 189 184 188 195 193 195 191 189 203 204 201 195 192 191 182 178 181 174 179 185 184 184 172 159 144 121 107 129 157 165 165 148 138 115  92  63  59 118 134 129 115 120  76 146 105   0   0   0  47  70 101 107 107 102  96 100 102  95  99  97  94
 237 234 229 229 229 231 229 231 239 232  71   0   0   5 147 169 168 171 166 158 130 111 130 153 176 176 161 132 153 165 188 197 191 186 187 193 196 191 189 203 204 200 191 185 193 186 181 177 168 177 184 183 175 160 141 129 109 116 142 151 147 147 137 118  92  68  54 111 140 137 131 131 108  66 208 119   0   1   0  12  82 116 114 105 105 103 100  99  97  97 101  99
 232 232 235 238 239 239 237 247 244  74   0   2   0  19 210 158 162 172 170 165 160 131 114 129 154 167 168 142 135 157 174 191 195 187 179 197 197 198 200 204 203 208 210 203 200 194 181 167 165 185 182 178 164 137 113 113 112 139 154 149 143 136 121  97  72  62 105 140 139 137 139 130  63 115 247 136   0   0   0   1  40 125 121 108 107 101  99  97  98  99 105  99
 239 240 240 239 235 228 228 224  96   1   1   3   0  42 252 179 141 163 170 170 172 164 130 112 132 151 164 163 140 138 153 175 190 189 174 187 200 204 211 202 201 207 208 208 200 185 173 165 169 182 177 176 152 112 108 109 125 144 153 153 134 117 100  80  67 108 147 147 138 133 133  97  65 215 238 140   0   0   0   1   0  62 128 118 109 105 108 101  97  99 104  98
 167 151 135 112  99  83  72  26   1   1   2   2   0  88 255 236 136 147 170 174 176 177 158 131 122 136 143 153 155 141 139 154 175 184 184 181 185 191 200 208 197 190 185 187 186 178 156 165 174 177 164 154 120 100 116 118 135 142 152 140 114  99  86  72 100 140 144 140 137 138 121  60 158 251 216 143   4   0   0   0   0   0  50 118 122 112 104 103 101  97  99  96
  11   8  11  16  13   0   1   3   3   2   3   1   0 154 255 255 193 122 153 171 172 179 173 157 134 129 143 146 153 156 150 137 145 160 181 181 170 173 174 176 168 170 175 174 183 173 153 156 170 162 146 106  91 114 124 133 136 136 138 119 103  92  82  96 144 152 130 129 140 132  87 115 248 242 210 142   5   0   0   0   0   0   0  21  90 128 113 105 105 103 101  96
  48  46  35  23   8   4   4   4   4   5   3   0   7 214 255 255 255 161 131 157 170 165 174 166 152 134 138 153 147 155 154 154 136 130 153 165 166 163 166 162 158 167 169 165 163 157 156 149 146 138 100  85 119 133 137 135 135 128 122 105  98  86 101 146 155 137 121 123 136 101  98 233 248 231 206 147   9   0   1   0   0   0   0   1   1  58 116 119 113 108 102 102
  18   8   3   4   5   6   5   5   5   5   3   1  41 252 254 253 255 245 147 134 163 162 170 172 167 157 139 141 147 147 146 164 172 142 127 138 150 143 141 147 140 139 141 141 137 142 134 125 109  89 104 140 144 142 132 126 128 126 116  97  90 105 128 164 131 131 133 136 108  97 218 254 240 225 206 155  10   0   0   0   0   0   0   0   0   0  20  72 104 115 113 106
   2   4   6   7   7   8   6   2   4   7   4   0  66 255 255 254 254 255 233 137 144 155 168 171 170 172 155 139 154 155 150 156 168 176 157 133 124 124 116 112 107 108 109 111 105  98  93  89  97 134 160 157 142 128 122 124 125 121 107  95 104 120 141 143 136 135 140 118 107 218 255 248 233 225 208 154   8   0   0   1   0   0   0   0   1   0   0   0   9  45  80 107
   5   4   6   7   6   8   7   4   4   5   3   0  82 255 255 255 254 254 255 227 143 145 169 177 172 174 168 150 148 156 156 150 154 164 172 171 162 144 135 127 123 117 115 109 108 108 117 140 167 168 158 145 131 119 128 130 124 105  95 101 122 138 142 146 150 132 116 115 220 255 254 247 232 225 210 155   5   0   0   0   0   0   0   0   0   0   0   0   0   0   1  17
   5   7   7   9   9   9   6   4   5   6   2   0  82 255 255 255 254 254 255 254 225 143 155 174 171 167 167 162 154 146 157 157 151 152 157 159 162 167 172 169 166 168 163 159 165 167 172 171 158 149 144 134 128 125 129 132 120 101 104 120 135 149 152 149 146 112 117 230 255 255 253 242 228 223 218 160   3   0   0   0   0   0   0   0   0   0   0   0   0   1   2   2
  10   8   7   9  10  10   6   4  11  10   3   0  49 252 255 255 254 254 254 255 255 215 130 153 162 172 171 161 162 156 156 157 158 154 150 157 151 160 171 169 164 164 169 173 168 162 163 159 148 141 136 125 121 128 131 127 117 112 125 137 149 150 149 140 110 133 233 255 255 255 252 239 227 218 226 155   0   0   0   0   0   0   0   0   0   0   0   0   0   0   0   2
   6   7   8   7   7   7   5   5  14  11   3   0  19 222 255 255 254 254 254 255 255 255 204 136 150 155 167 168 167 168 158 159 160 161 156 156 155 157 158 158 157 157 154 153 150 152 153 148 143 134 130 126 129 130 129 124 123 130 142 143 145 144 142 128 164 248 255 255 255 254 251 238 223 215 227 137   0   0   0   0   0   0   0   0   0   0   0   0   0   0   0   1
