P2
# Generated by OpenCV 4.2.0
92 112
255
  81  79  79  84  71  88  64 202 214 109  84  74  79  81  95 110 114 117 117 130 127 129 128 131 132 130 134 132 135 133 134 133 133 134 134 134 136 136 129 133 135 134 133 132 135 134 134 133 136 134 135 137 133 135 134 134 135 134 134 134 137 137 137 132 134 136 137 135 135 134 133 135 136 134 134 134 135 136 137 135 136 136 136 169 186 225 179 131 138 137 136 137
  90  93 110 107 103 103  97 137 212  97  78  75  75  88  98 107 113 111 119 129 126 128 130 128 130 130 135 134 131 131 132 135 136 131 132 133 133 133 133 134 136 133 130 136 134 135 136 134 135 133 133 134 133 137 134 132 133 134 133 134 134 134 134 137 135 132 133 136 133 134 132 133 136 136 134 136 137 136 137 134 135 136 138 169 190 223 178 130 137 136 136 136
  95 104 122 100 114 110 117 120 205  88  68  78  73  98 100 105 115 109 118 129 126 128 130 132 132 129 132 132 132 132 131 132 132 130 131 130 132 131 136 135 135 133 133 132 131 132 136 133 133 131 131 133 134 140 134 131 132 132 135 134 135 133 133 134 134 134 135 135 132 134 132 131 136 135 137 135 136 137 137 133 137 138 141 172 194 225 176 132 136 136 135 137
  96 105 118 117 119 116 115 119 205  77  74  76  69  89  96 105 110 110 120 126 125 128 127 132 131 130 132 132 130 127 129 132 133 132 132 131 133 133 132 133 133 135 139 131 132 141 129 137 129 134 132 131 134 134 133 131 132 135 133 134 134 133 134 133 133 136 136 133 133 134 133 131 133 133 136 138 136 136 134 134 136 135 145 174 192 222 171 136 137 139 135 135
  97 106 118 118 119 119 119 119 134  57  68  65  65  74  92 106 111 114 119 127 126 127 124 130 130 130 132 133 134 129 129 131 130 133 133 129 133 132 136 134 133 133 129 139 127 133 135 127 131 132 134 134 134 133 134 133 134 133 135 134 135 134 134 135 133 134 136 134 133 135 134 134 133 133 134 138 137 135 134 135 136 132 146 175 193 225 171 137 137 138 133 135
  97 107 119 119 117 118 121 122 114 119 121 112 103 116 113 105 105 113 120 126 126 129 121 128 131 132 133 133 132 129 132 133 134 133 133 129 134 133 133 134 134 131 128 126 138 130 129 137 131 129 131 135 134 133 134 134 137 138 132 134 134 134 134 134 134 135 136 134 134 136 135 135 135 133 133 134 134 134 135 137 136 133 146 176 193 225 173 136 133 137 140 136
  99 109 120 117 117 117 121 124 118 124 109 123 122 135 129 119 111 111 123 128 126 128 125 129 131 132 133 130 133 131 133 134 133 133 133 130 133 133 131 137 137 135 140 134 134 135 139 133 140 136 134 135 138 136 134 131 131 134 135 136 135 134 135 134 132 134 135 134 131 133 134 134 132 133 134 132 134 134 135 136 135 133 147 176 193 225 171 133 135 138 137 132
  99 111 121 118 120 122 121 121 119 125 136 123 122 126 126 131 128 120 127 129 125 129 129 131 133 133 130 128 133 131 133 133 131 131 135 132 135 130 138 122 114 107  95 108 123 130 114 124 123 133 130 123 122 135 136 136 136 132 137 135 135 135 136 133 132 133 136 132 132 133 134 135 134 136 133 133 134 136 135 135 135 134 151 179 198 229 174 136 140 135 134 133
 101 112 122 118 120 120 120 123 123 122 129 125 129 131 129 129 130 129 126 127 129 132 133 133 132 130 128 130 130 134 131 137 130 129 134 135 133 136 131 134 143 149 158 146 143 151 136 129 128 126 128 137 147 133 124 147 138 132 136 132 138 134 126 136 129 138 130 134 133 133 135 136 136 134 134 133 136 134 131 136 136 136 154 179 203 229 183 128 141 134 136 136
 100 111 119 120 123 122 123 126 125 125 126 130 130 128 129 129 129 129 131 130 130 130 128 129 129 132 132 133 129 127 131 128 138 134 124 108 107 122 136 138 146 149 137 144 145 143 150 148 155 151 152 152 145 156 166 134 138 140 119 139 123 134 134 135 137 136 136 140 133 132 135 136 135 133 135 135 134 135 140 139 130 134 167 174 201 233 202 131 133 135 139 139
 104 114 118 120 122 121 122 125 126 124 125 128 132 130 129 129 131 131 127 128 129 132 131 129 129 129 131 132 120 138 136 147 146 141 140 138 133 126 130 156 150 157 164 160 160 153 159 155 158 154 157 163 163 155 146 141 141 143 142 131 135 132 124 125 134 130 135 134 134 133 135 136 136 135 135 136 136 136 130 147 171 184 199 191 180 200 221 181 157 154 139 135
 105 115 121 121 123 123 123 126 127 127 127 128 129 129 129 129 128 128 127 127 131 132 131 133 132 134 136 133 137 133 139 131 141 139 135 130 133 142 134 147 148 164 168 177 173 182 168 159 160 156 157 162 163 162 177 152 127 149 135 146 126 119 133 126 128 135 136 132 135 136 135 133 134 134 135 135 135 135 130 145 164 167 165 160 162 167 164 180 181 175 150 137
 102 112 121 122 125 125 125 127 126 128 131 129 126 132 130 129 127 126 132 130 130 129 125 129 132 134 125 113 108 113 129 145 148 136 113  80  76 102 122 114 137 157 145 174 176 185 188 185 172 167 168 166 159 169 143 172 146 142 132 126 163 121 111 129 135 124 133 129 136 135 135 133 133 132 134 133 134 134 139 137 129 132 133 140 126 134 134 135 125 126 133 137
 106 117 125 122 123 124 127 127 125 126 129 128 125 131 131 131 129 127 130 130 128 129 131 131 130 131 127 100 101 117 127 146 108  89  87 103 115 111 127 127 124 141 173 149 172 174 181 186 190 175 174 175 181 168 155 140 172 134 145 116 138 144 132 113 144 140 122 138 131 133 138 135 133 135 135 135 137 134 133 134 134 137 138 136 135 141 136 138 137 136 137 135
 107 115 122 125 124 123 123 124 129 125 127 129 127 126 127 127 129 130 130 132 131 130 134 132 126 125 127 122 119 116 138 109  96  91  84 105  93 118 126 140 154 109 160 172 152 176 177 179 193 188 177 169 182 171 187 138 157 148 150 134 126 138 150 159 119 156 144 123 140 138 132 136 137 136 136 135 135 135 136 134 134 135 135 133 133 133 134 134 135 136 135 136
 108 117 125 122 124 125 125 126 127 127 128 130 130 131 129 129 129 130 130 133 132 131 133 135 124 121 120 136 114  93  76  92 117 105  78  83 110 118 120 134 158 151 130 171 172 158 184 180 180 189 194 194 173 185 169 181 152 170 136 148 143 142 141 149 166 126 119 129 121 137 137 139 133 136 135 133 134 136 136 135 134 135 137 136 136 136 136 138 138 137 138 138
 108 117 125 124 125 125 126 128 128 132 132 132 129 126 125 126 129 131 128 129 133 132 130 119 134 148 139 136 124 124  91 112  95 105 117 100  83  87 118 146 133 175 173 131 181 159 160 184 186 188 186 184 194 164 184 192 164 164 152 146 156 164 150 144 153 167 137 111 125 134 129 126 138 135 135 132 133 135 135 136 136 136 136 137 135 135 135 137 138 137 138 138
 109 118 126 125 126 128 130 129 127 127 125 129 133 130 130 129 127 126 128 129 134 133 130 124 139 127 116 112 118 112 125 115 129  91 103 133 136 109  89 130 150 138 178 169 152 180 160 179 174 180 198 183 175 197 161 185 185 160 170 161 149 162 154 145 140 127 157 134 114 121 139 135 123 131 133 134 134 133 135 136 136 136 137 137 137 137 139 138 136 135 134 135
 113 123 129 121 127 131 127 131 182 114  92  89  85  89 107 124 130 130 128 129 129 133 128 129 120 110 111 125 116 120 122 124 114 131  96 108 118 143 137  74 122 128 139 199 146 165 177 161 184 161 176 195 184 175 184 173 192 187 162 173 154 173 173 144 153 125 125 154 137 118 126 129 132 130 135 133 135 133 134 135 134 136 136 132 133 134 135 135 136 136 136 133
 105 114 119 127 124 124 136 157 209  85  67  77  72  75  99 117 125 126 130 142 139 137 135 133 125 131 139 145 142 106 117 131 131 128 141  91 118 104 128 136  89 118 137 131 206 140 169 159 169 174 158 164 189 172 182 176 174 182 174 152 166 156 160 186 145 147 122  98 149 133 134 134 124 129 133 133 135 134 132 133 134 135 137 132 134 133 136 136 135 135 133 137
 198 200 200 205 201 202 208 217 189  80  77  77  68  78 100 109 113 120 143 160 157 150 142 122 124 124 139 136 120 117 111 103 118 141 151 143 128  93 104 111  98 120 106 125 157 184 164 156 155 180 166 157 159 186 151 174 165 153 172 183 157 152 116 154 184 153 162 130 106 138 120 136 128 130 133 135 137 133 133 133 133 136 137 134 134 135 136 137 133 132 133 137
 213 211 210 211 215 225 225 209 158  81  81  78  67  87 104 110 114 121 127 135 141 142 128 127 136 139 147 142 146 133 115 117  99  92 116 148 146 141 100 102  80  91 110  97 131 156 173 162 144 163 170 167 150 146 190 149 171 146 159 160 165 166 129  95 153 174 115 156 130 107 125 148 122 133 134 138 137 132 134 134 135 136 137 136 136 134 137 136 134 135 135 135
 210 211 219 206 192 191 214 225 143  83  72  81  72  89 103 116 124 127 143 147 150 149 136 126 132 137 133 131 139 133 102  98 105 124  67  97 142 151 158 135 142 114 103 105 125 128 166 170 147 151 159 162 165 152 134 178 136 166 140 144 154 157 156 111 103 128 183  85 138 105 125 139 116 130 130 136 135 130 136 136 135 136 135 135 137 135 136 137 135 135 135 133
  49  56  64  91 119 198 226 220 134  89  76  82  79 101 112 136 129 148 147 150 140 129 127 117 122 124 122 129 123 123 139 141 136 131 134 119 125 137 142 146 137 145 129 123 119 127 139 152 159 153 157 160 163 157 153 151 161 146 151 130 148 124 155 125  92  97 142 125  97 122 108 113 118 118 110 113 118 121 131 138 135 140 128 136 136 135 135 137 135 133 134 135
  72  71  66  60  59  42 188 224 114  89  77  79  81 108 122 120 141 148 160 155 143 127 124 128 120 131 137 127 129 125 116 113 131 126 134 141 140 137 140 140 143 148 147 139 135 144 151 153 156 159 160 157 158 163 151 152 156 144 149 142 136 133 124 144 117  79 112 121  88 100 103 109 112  84 116  89 114 100 113 135 136 131 144 137 137 136 134 132 132 131 132 133
  77  84  87  80  83  85 109 228 114  86  75  83  84  98 110 129 145 171 158 156 145 128 124 128 126 112 110 127 117 115 119 126 133 135 139 143 147 150 145 140 141 146 148 153 156 155 152 153 163 165 166 163 161 168 161 155 154 152 140 144 122 142 125 129 122  97  98 123  87  97 100  97 106 135 157 129 117  86  79  88 141 135 137 136 137 135 134 131 132 132 132 132
  93 104 112 128 103 126 113 205 116  84  79  82  81  95 113 136 167 171 169 165 150 135 138 124 114 116 124 123 131 139 143 148 145 148 152 155 156 156 160 154 151 154 155 152 160 159 160 170 169 168 167 169 170 167 168 164 158 156 150 150 135 137 132 124 125 118  97 100 116 102  94  97  96 104 119 160 136 132 124  90  82 141 134 133 133 133 134 135 134 134 134 134
  92 106 116 106 110 107 118 207  95  75  80  70  90 104 126 156 163 183 173 153 140 129 126 108 132 132 129 142 138 149 145 149 160 156 163 168 166 161 162 160 162 163 161 168 177 171 172 175 173 170 172 174 171 170 171 169 165 160 161 159 155 142 133 127 119 113 105 105  98 106  89  59  87 129 125 122 144 150 104 123  95 109 136 133 132 133 133 134 134 133 131 132
  94 109 117 118 120 115 120 173  80  72  64  71  97 131 137 151 179 177 177 153 137 132 124 137 141 140 138 139 151 148 150 160 159 170 169 165 165 166 169 171 171 172 172 168 172 173 181 183 177 178 179 179 174 177 173 174 173 166 162 161 158 154 146 135 127 122 112 107 114  98  84  74  97 104 123 156 129 154 134  91 103 104 138 131 133 132 133 131 130 130 128 130
  90 109 118 111 114 114 113 120 102  98  99 100 135 126 131 175 178 190 174 136 152 143 139 148 153 149 146 152 150 150 155 161 163 164 166 166 169 173 172 175 175 175 178 175 176 180 184 184 177 178 179 178 175 178 174 177 178 170 171 165 156 157 149 142 131 132 122 115 123 108 109  90 102 120 144 138 171 140 143 158  83 100 134 131 128 129 132 131 132 130 127 132
  91 110 117 116 115 119 119 116 122 117 123 129 114 121 160 160 181 161 149 166 158 148 160 156 154 155 157 159 153 154 160 162 162 165 166 168 170 172 172 173 174 175 177 169 174 181 183 178 180 180 179 178 176 177 177 176 176 172 170 168 162 161 147 143 135 134 128 126 125 115 121 112 106 111 133 144 164 178 154 118 127  84 125 127 128 129 131 131 131 131 131 134
  95 113 119 116 116 116 119 120 115 127 114 119 102 154 147 165 156 156 182 161 154 162 162 156 152 155 158 157 163 160 162 166 167 169 171 171 171 172 175 174 176 179 178 177 178 181 184 181 178 178 176 175 176 176 176 173 174 170 169 168 163 161 148 146 136 131 130 131 130 127 117 129 127 125 150 133 156 161 164 160 116 106 119 132 130 132 130 130 130 128 130 132
  97 114 117 118 123 121 124 120 120 130 126 120 150 143 152 133 161 181 150 156 167 158 167 159 158 158 161 165 166 163 165 167 167 168 171 175 175 178 180 178 181 185 183 178 179 181 182 178 177 176 176 176 178 174 176 174 172 172 170 166 157 160 153 149 139 131 130 133 133 124 121 125 132 120 140 156 161 139 167 133 149 102 125 124 131 132 129 130 131 130 129 129
  96 112 118 121 117 122 128 124 123 118 126 129 130 152 127 157 170 160 170 169 161 168 160 163 158 159 163 168 163 166 166 167 164 169 173 174 175 178 180 177 180 186 184 186 188 188 188 182 180 180 180 182 185 175 178 175 176 174 164 164 162 161 151 148 142 129 127 129 134 124 131 125 130 143 129 156 161 164 150 154 115 128 105 119 130 130 128 129 131 129 128 129
  98 114 123 120 119 125 125 123 128 124 129 127 132 137 131 157 169 172 177 172 171 167 166 159 158 159 162 166 165 164 165 167 166 171 173 173 175 180 179 180 182 185 185 186 188 187 194 191 185 185 183 181 179 174 177 173 175 169 166 161 158 154 150 145 136 128 132 130 128 129 128 131 133 130 153 145 166 164 171 128 149  91 131  98 124 125 128 128 129 130 129 127
 101 118 124 120 119 125 126 123 127 125 132 134 143 138 145 166 176 185 176 177 169 164 164 157 162 162 162 165 166 165 165 167 167 173 171 175 180 178 183 189 189 186 187 190 189 187 193 192 191 189 187 182 177 177 176 172 172 166 164 160 156 151 147 146 134 128 132 126 129 128 131 136 137 127 155 161 168 166 187 145 142 112 122  95 118 125 130 129 128 129 129 128
 102 116 121 120 121 123 125 125 125 124 135 139 144 144 160 174 178 182 171 173 166 162 162 160 162 160 163 171 169 168 167 169 168 169 165 174 183 177 185 191 189 191 192 189 186 182 187 186 189 189 187 184 180 179 175 173 169 165 161 158 155 153 149 142 134 130 127 131 134 125 130 144 141 137 136 182 164 158 173 168 114 128 111  95 116 125 131 129 125 125 126 128
 101 114 120 121 122 123 124 126 128 122 141 143 139 150 166 175 175 175 176 172 165 163 159 164 161 162 168 172 170 169 169 169 168 170 170 178 184 181 188 187 189 192 192 183 186 185 190 188 182 185 185 183 179 180 172 172 166 164 161 159 154 151 148 141 132 131 131 133 131 127 132 141 143 140 141 162 183 153 159 158 155 112 124  85 115 120 125 129 125 127 127 128
 101 115 120 123 124 123 125 124 124 124 146 148 146 151 166 172 173 175 176 167 162 159 158 164 163 166 171 173 170 172 171 169 170 172 175 180 183 182 192 188 191 196 194 191 192 190 193 189 185 186 183 181 176 176 171 169 165 163 161 157 154 151 146 148 134 132 133 129 128 128 137 137 145 148 136 157 169 185 143 157 146 141  98  84 110 116 126 129 128 129 128 127
 101 116 122 123 123 124 125 125 122 132 149 145 154 148 163 167 165 165 166 160 163 160 167 165 164 166 169 172 172 172 174 169 171 174 178 176 173 175 160 162 168 175 177 184 182 185 188 187 184 185 186 185 179 178 173 170 168 166 153 152 151 151 147 143 134 132 134 132 131 127 139 145 150 158 161 155 135 179 160 153 139 152 116  85 104 111 127 125 127 126 127 128
 104 116 121 120 120 121 126 127 123 139 153 143 145 154 159 162 160 158 160 157 160 162 167 168 167 169 171 173 178 169 174 173 172 172 176 178 178 179 173 173 177 182 183 177 176 176 180 180 174 177 180 179 175 175 172 169 166 162 156 151 148 150 150 147 138 137 140 136 126 137 136 148 148 153 179 173 148 164 166 150 145 151 121  79 100 105 122 126 127 127 127 127
 106 116 120 119 119 121 126 128 124 134 149 138 144 151 151 152 152 153 156 156 158 164 167 169 168 169 172 173 175 168 175 177 177 170 175 178 178 179 177 175 176 180 179 186 184 181 180 181 185 179 177 178 178 170 169 167 163 156 162 155 150 149 151 148 142 139 143 139 131 142 133 146 146 157 179 175 170 125 170 149 136 145 139  80 100 101 115 124 126 126 127 126
 107 118 120 120 122 123 126 127 123 134 146 139 146 153 152 145 147 156 150 153 155 164 165 170 168 168 171 173 168 169 175 176 178 177 181 181 178 178 177 175 178 181 180 182 181 178 178 184 178 176 173 175 173 172 170 169 166 159 160 155 152 153 154 150 142 141 144 139 137 138 133 144 152 158 171 173 181 139 158 160 147 127 146  91 103  98 110 121 127 127 127 126
 110 122 121 121 123 124 126 126 124 136 151 144 146 151 145 138 138 147 158 158 157 165 163 167 168 169 169 172 169 170 175 173 178 177 180 180 182 184 182 182 182 182 183 180 178 174 176 179 180 179 176 175 172 172 171 170 166 162 159 158 158 159 160 155 149 145 146 146 140 135 136 146 157 151 168 185 179 152 133 159 166 121 116  98 105 100 107 119 128 128 128 127
 110 121 121 122 123 123 125 126 122 148 161 151 141 151 140 142 145 151 151 156 161 162 156 165 165 163 167 179 168 174 174 173 175 177 175 175 177 177 175 177 177 177 178 182 176 173 178 179 176 177 177 176 176 174 174 172 168 167 159 160 160 159 157 155 153 146 147 145 139 137 139 148 159 154 172 181 169 165 141 141 165 148 109 112 107 104 106 119 128 127 126 124
 111 120 124 122 124 125 126 127 125 149 160 152 149 139 142 141 150 150 149 152 158 160 158 162 171 172 159 142 164 170 171 174 177 181 179 184 186 186 181 179 175 173 171 182 181 177 178 184 173 177 180 179 175 172 171 170 172 170 164 164 162 161 158 159 157 148 147 144 139 134 134 145 159 169 178 162 170 169 153 134 138 136 126 109 105 102 106 121 129 127 127 125
 112 118 124 121 124 124 125 126 122 142 160 153 139 130 136 138 147 144 154 153 157 159 160 166 151 141 136 139 127 135 157 179 171 176 183 186 187 192 193 188 184 181 177 178 179 178 177 182 182 182 180 179 177 169 172 167 163 166 165 166 164 161 159 160 157 148 147 143 144 135 130 141 159 174 177 156 170 169 151 153 121 129 113 119 108 103 105 117 128 127 126 124
 108 115 122 120 122 123 123 124 119 145 165 148 122 133 134 142 145 148 148 154 159 151 143 143 141 137 137 141 150 126 105 128 149 157 162 172 180 180 185 181 185 190 186 181 180 181 184 184 185 186 185 182 178 172 173 167 160 164 165 165 164 163 160 155 152 145 144 142 143 136 132 140 155 164 171 163 153 169 152 144 141 135 102 117 110 102 103 118 127 126 126 126
 105 119 119 119 119 121 124 122 125 147 155 139 125 141 135 146 150 152 148 154 156 149 141 144 153 151 141 140 138 154 126 112 124 113 112 139 165 167 167 168 177 187 188 185 183 184 189 188 182 182 187 184 180 177 170 165 164 165 163 167 163 161 160 155 152 143 148 146 135 132 133 137 145 167 163 171 148 149 163 134 153 135 110 108 106  97 100 115 126 125 126 127
 104  85 101 108 118 122 126 124 131 145 148 128 143 149 132 147 154 147 151 154 157 146 141 147 150 151 150 146 147 157 147 120 113 108  98 112 133 144 151 160 167 172 174 180 179 166 173 176 173 168 172 180 183 178 166 166 172 160 158 164 147 143 145 151 149 136 143 139 134 133 134 131 140 152 159 168 143 160 145 144 142 126 131 108 107  98 102 119 127 127 127 125
  66  72  51  84 114 119 121 124 129 138 138 123 157 139 137 157 149 154 151 149 164 150 147 146 148 140 154 151 153 156 169 161 146 127 123 134 142 149 155 162 168 170 170 173 168 157 164 167 162 155 154 152 145 144 149 142 130 135 126 131 126 130 127 143 144 137 143 135 131 134 131 126 130 135 154 149 146 146 131 145 155 126 125  99 103  99 100 120 128 126 125 123
  46  36  66  92 105 112 120 125 123 129 141 149 152 127 146 149 156 154 161 153 162 150 144 150 144 139 138 146 153 160 164 157 157 154 144 142 142 150 147 157 164 167 168 165 159 154 162 165 161 151 140 128 115 103  84  93 113 117 119 125 127 140 131 127 122 121 139 128 131 140 131 127 126 115 141 132 151 140 143 139 140 118 124 100  99  99  98 115 128 127 126 126
  62  79  87  96  97  98 112 119 125 124 146 148 125 137 143 139 156 154 152 149 152 154 148 143 144 137 136 138 137 141 142 136 137 137 139 140 136 140 143 154 163 167 168 164 154 153 154 151 152 146 144 144 138 118 117 126 123 135 155 148 135 140 135 125 119 113 129 127 127 137 126 128 124 116 139 132 149 138 142 129 134 124 128 100  96  98  98 111 125 126 125 125
  88  91 101  98 102 100 111 120 123 124 164 152 140 143 129 141 156 159 163 159 144 143 135 138 126  86  75  65  56  48  57  70  77  88 104 123 123 123 137 150 159 163 163 160 152 151 152 146 143 138 138 137 130 149 142 152 154 166 150 151 143 140 133 128 125 111 114 121 120 131 121 124 122 109 126 131 149 144 146 129 136 123 124 102  95  94  99 111 123 124 123 124
 116 119 119 122 121 120 120 121 120 125 172 131 147 151 135 140 154 157 154 152 143 130 121 105  86  78  88 141  60 113 101  70  83  62  89  99 121 116 123 143 154 165 167 163 151 144 138 135 126 128 137 141 148 158 155 161 163 153 146 147 155 144 128 139 132 122 117 124 119 127 123 119 118 111 122 132 139 139 138 129 137 122 115  98  93  91  93 111 123 124 123 124
 123 123 122 124 126 124 124 125 120 129 168 134 157 147 132 136 152 159 164 169 166 155 145 130 142 158 141 135  89  44  47  66 136 163  79 119 107 121 125 139 156 174 177 173 154 142 136 128 121 131 128 128 131 115 135 137 151 149 156 144 134 138 135 133 130 123 120 129 119 125 124 119 114 104 131 119 133 127 129 139 119 117 109  89  89  92  93 110 122 121 121 123
 123 124 125 124 124 123 126 130 124 127 158 150 144 139 133 143 155 160 150 157 162 162 160 161 147 156 159 163 142 157 140 125 131 115 119 108 145 140 137 146 158 179 181 176 158 141 134 118 124 120 113 105  87  89 102  73  93 105 109 113 126 131 122 131 130 127 129 132 122 121 125 121 110 111 128 126 131 123 133 132 129 125  95  85  88  86  90 109 122 120 120 123
 122 121 120 123 128 127 122 120 123 124 153 162 140 130 132 142 151 153 161 163 165 165 166 154 145 149 155 162 160 164 158 150 150 137 136 153 150 165 143 148 155 171 177 168 154 132 126 116 144 121 113  94  77 137  76  96 109  39  37  62  73 106 114 128 123 126 136 135 125 117 123 120 107 111 123 130 122 123 150 128 133 108  89  89  87  82  95 113 121 119 118 120
 128 128 127 125 122 120 126 131 122 128 163 168 157 128 132 145 158 163 164 165 167 165 159 165 164 158 147 141 158 148 161 153 151 140 129 132 165 155 149 153 158 169 177 160 147 126 129 133 144 120 119 105 111 146  95  53  32  60  57  96  39  50 102 123 115 123 139 136 124 116 122 117 105 106 123 127 115 121 135 127 142  99  89  84  84  85 102 119 119 118 117 119
 126 127 126 124 123 124 128 128 123 132 168 167 163 128 129 148 155 157 162 164 167 169 168 167 169 171 166 158 152 147 147 146 140 140 137 147 155 150 150 148 157 167 168 166 141 127 135 137 154 143 136 138 137 135 143 143 135 132 135 140 121  91  89 102 114 137 146 141 116 115 127 109  98 110 131 129 121 117 138 123 128  91  83  85  86  85 101 117 117 116 117 120
 125 128 129 126 125 127 127 127 119 139 169 143 145 124 136 153 160 155 167 169 172 171 172 167 169 168 166 169 163 158 161 163 159 157 161 160 150 151 151 152 157 165 164 159 144 123 139 141 151 143 136 141 145 158 164 167 163 161 151 142 136 135 137 133 137 139 139 135 120 116 125 112 102 104 130 129 122 127 116 106  95  78  85  86  85  90 105 118 117 116 115 117
 125 128 130 125 127 128 129 125 121 140 160 153 128 129 138 150 158 158 166 172 174 170 165 172 167 169 170 163 168 167 170 174 171 164 166 163 154 147 149 153 160 166 165 160 142 117 137 146 156 152 143 143 142 148 152 155 154 152 145 145 142 138 146 150 156 148 142 137 122 110 107 104 105 100 127 131 114 111  92  95  79  81  87  86  86  95 110 117 117 117 116 117
 129 129 127 128 127 128 130 130 127 143 155 171 129 126 139 147 158 165 160 166 170 171 170 169 168 173 174 166 168 164 163 165 160 165 163 163 157 149 146 155 161 163 162 159 137 121 133 150 153 165 167 158 146 139 139 138 138 135 140 138 147 160 157 153 155 143 140 131 127 114 107 103 104  96 115 130 108 103 113 107  80  89  82  84  87 101 114 116 116 116 115 116
 130 129 128 128 126 128 132 132 119 157 174 173 125 128 143 146 154 154 165 165 167 170 173 175 177 175 173 176 171 167 170 170 167 163 167 165 157 150 150 160 165 163 161 151 134 130 134 153 150 159 162 163 163 168 164 163 166 169 162 167 165 160 164 156 157 152 151 137 111 105 107 104  97 100 114 128 107 101 134 113  74  86  78  84  86 105 118 115 115 115 114 115
 128 129 129 128 129 129 129 130 142 166 178 157 130 130 144 149 153 159 162 165 170 172 171 170 175 179 175 179 173 172 171 170 172 171 171 171 170 168 153 160 165 162 155 149 133 127 144 154 158 160 161 164 170 168 169 169 168 171 168 166 168 170 164 158 150 155 150 142 127  97 101  96 100  86 126  98 110 108 142 100  80  90  78  83  89 112 120 115 114 116 112 114
 130 128 128 128 127 127 127 129 168 180 177 145 131 133 148 147 151 161 163 165 173 174 172 174 178 182 177 178 179 181 180 180 183 185 173 173 171 161 165 169 170 164 158 146 130 137 160 153 167 165 168 168 163 168 165 170 174 171 176 173 171 166 165 155 157 151 149 138 127 109 100  97  97  89  92  94 123 107 139  83  85  87  83  87  98 115 117 117 114 114 113 115
 130 127 127 128 127 127 129 131 171 178 172 135 135 134 145 145 149 158 162 162 167 175 178 178 183 188 182 182 186 187 184 178 175 163 159 172 170 157 166 170 172 167 161 152 135 137 158 164 161 164 170 174 168 171 168 171 175 170 170 172 170 161 161 156 156 139 139 131 108 105 103  99  87  77  84 128 126 111 108  80  85  81  89  92 106 116 116 117 116 112 113 116
 128 127 128 127 127 128 130 132 165 169 170 129 135 138 142 144 149 153 160 160 166 173 176 174 182 188 183 184 176 174 168 162 160 149 156 169 160 157 167 168 168 162 155 153 136 130 146 155 170 175 179 179 176 171 169 170 171 168 172 169 170 166 159 149 149 139 139 132 112  99 100  98  93  77 125 147 139 119  84  85  86  82  91 103 113 116 115 116 115 111 114 116
 126 126 128 128 127 126 125 126 151 158 170 127 138 142 143 149 152 153 159 161 167 169 167 170 175 177 167 165 155 147 138 140 148 152 162 166 153 162 164 166 169 166 163 150 137 133 144 141 150 164 176 182 190 174 175 172 171 174 178 169 163 163 156 147 145 143 137 123 109  97 103  98  91  94 122 154 148 117  85  81  79  80  81 110 114 113 116 116 115 113 114 115
 122 126 128 126 127 127 126 126 131 160 155 126 140 142 146 146 147 149 150 154 163 160 163 164 169 165 157 152 149 132 129 149 160 149 168 165 159 165 165 171 175 168 161 146 146 133 135 140 130 148 150 164 188 198 185 178 180 173 180 172 171 160 153 148 143 139 132 123 110  99  93  91  96  92 124 128 149 117  86  81  85  80  93 112 113 114 116 118 116 115 115 115
 125 127 127 124 127 126 126 125 123 131 133 131 139 144 146 147 149 151 148 152 158 157 159 158 150 147 147 146 122 138 152 164 163 151 163 157 133 147 163 184 191 180 168 157 135 132 147 145 118 129 139 145 162 183 192 196 186 172 178 173 171 160 152 143 138 136 129 124 109  98  90  96  97  84 118 121 150 121  83  83  85  80  99 115 116 115 117 115 117 117 117 116
 125 126 127 126 127 127 127 126 127 126 119 133 146 148 147 149 148 148 149 155 155 156 154 155 150 140 126 113 144 166 166 164 169 136 128 131 119 132 145 157 156 157 154 139 125 133 143 135 119 132 134 128 147 156 170 188 191 179 168 168 166 161 153 144 139 135 126 123 111  99  91 103 100  99 102 132 144 110  80  79  80  80 102 117 117 115 114 115 115 115 114 115
 127 127 126 126 127 126 127 126 126 131 128 129 138 148 147 148 149 147 152 153 152 153 148 151 134 113 125 160 166 163 169 176 164 148 121 114 114 113 137 138 136 146 144 132  94 106 120 118 113 143 145 138 131 150 157 170 174 164 165 164 160 162 157 145 140 131 122 119 114  97  98 104 100 132 142 147 116  93  80  80  79  88 109 114 112 112 112 111 113 113 113 113
 128 126 125 126 124 125 125 125 125 120 122 127 142 152 151 156 157 155 157 158 156 156 149 142 122 144 167 155 162 165 164 165 164 160 157 155 152 131 114 124 127 135 120  75  84 106  93  99 131 154 153 163 142 133 147 156 155 158 159 158 150 150 149 141 137 127 118 120 113  92 104 101  98 140 154 118 121 108  79  79  80  95 113 115 114 115 115 116 114 113 114 113
 126 125 122 127 125 125 124 122 125 125 125 128 143 151 157 155 159 158 160 156 160 158 152 137 137 156 160 158 158 155 159 156 158 161 156 158 157 154 126 102  92 101  77  93 122 135 133 143 149 152 154 154 158 136 132 144 155 156 149 157 151 149 141 136 134 123 119 119 113  98 104 102 101 140 154 138 123  80  79  82  74 103 111 110 113 114 111 114 115 114 115 113
 121 119 122 126 124 126 126 125 125 126 127 130 144 152 155 155 162 163 168 163 164 162 153 135 159 156 156 159 154 154 157 154 156 157 158 157 153 153 163 155 140 133 121 128 139 140 138 147 148 150 150 151 154 155 125 141 150 148 148 151 143 145 142 138 131 123 123 118 111  99 102  98  97 138 148 152 126  76  75  81  83 111 112 112 114 114 111 112 113 112 112 113
 124 120 122 124 125 127 127 126 124 126 127 130 143 152 159 162 166 164 169 170 170 166 147 155 160 155 157 147 151 150 151 150 150 160 156 156 156 148 157 156 149 146 140 136 138 141 142 148 141 147 147 145 144 147 144 117 144 148 144 145 140 140 138 137 130 122 125 121 112 103 103 103 105 139 146 150 139  83  74  79  83 109 109 112 111 112 113 114 114 113 113 113
 127 125 124 126 125 127 128 127 124 127 128 125 138 148 158 163 164 160 168 169 170 171 155 162 155 159 164 161 163 162 158 159 157 159 152 157 162 153 142 142 144 147 145 141 136 138 143 142 136 139 138 137 137 150 149 141 129 144 144 142 139 135 133 135 130 120 122 122 114 106 102 104 108 149 145 145 139  85  79  79  85 110 112 112 111 111 115 114 114 112 111 111
 126 127 124 126 126 127 127 126 125 127 125 124 136 153 159 160 164 163 172 168 166 177 167 170 164 151 133 142 152 155 155 163 163 159 158 155 153 153 147 151 154 147 149 157 143 140 142 137 139 135 131 132 138 139 154 157 139 144 150 142 134 129 132 138 135 123 122 130 116 107  97  98 106 156 135 141 120  70  73  74  84 111 110 114 113 112 115 113 116 117 114 113
 127 124 125 126 124 123 124 126 127 123 132 125 131 150 164 162 167 165 168 172 171 173 177 164 151 147 129 105  38  83 116 112 121 127 141 159 164 172 167 167 157 172 163 155 142 149 151 139 138 139 138 141 140 142 139 144 147 142 154 152 141 140 140 145 138 128 131 127 117 105 100 101 100 150 131 116  84  72  77  75  91 109 108 108 111 110 111 111 112 112 113 112
 125 125 125 125 126 126 124 123 126 123 127 125 125 147 161 163 168 167 167 173 176 177 180 161 157 147 149 160 133  97 114 118 163 138 140 120 109 121 137 137 151 141 145 139 138 135 127 137 136 139 137 140 133 142 144 154 149 135 164 156 144 145 151 152 138 130 135 131 116 100  91  97  81 117  96  76  74  74  77  75  92 109 113 112 110 109 111 112 113 114 111 111
 125 122 123 124 127 128 127 126 128 127 127 131 123 139 156 162 167 168 164 171 174 175 176 160 161 156 151 153 150 138 122 128 117 126 196 189 199 191 147 118 143 132 114 127 106 106 111  80  70  69  99 112 126 145 160 163 151 147 166 157 145 150 156 158 140 134 138 130 121 100  91  99  73  72  73  71  78  80  79  78 100 112 108 111 111 110 111 113 113 113 110 109
 127 127 125 123 126 126 128 130 124 126 123 134 117 130 150 160 165 169 169 173 175 177 179 172 159 161 163 159 158 148 148 143 146 116 112 133 161 191 192 183 202 201 171 185 149 179 156 122 129  74  48  55  85 136 157 158 158 168 171 163 153 159 160 158 143 140 137 127 112  89  92  99  78  77  81  78  74  75  77  78 106 112 104 110 111 111 111 112 113 113 113 110
 127 126 123 126 126 124 127 128 122 126 122 137 117 126 146 159 163 168 171 173 174 175 180 173 162 163 168 162 165 152 150 156 148 152 158 131 118 120 125 148 168 177 121 141 109 102 113  98  89 109 122 151 146 146 163 166 174 178 172 166 157 162 159 157 147 145 133 122 112  86  94  89  76  77  72  80  78  77  79  76 103 111 106 110 107 106 107 110 112 113 113 111
 122 124 124 124 126 128 129 127 129 121 126 130 129 121 139 156 163 166 169 168 171 169 174 174 163 161 163 165 170 167 158 155 160 162 160 161 153 140 133 133 131 127 127 120 128 130 136 130 129 129 136 144 152 151 165 171 178 181 168 162 161 163 160 154 149 137 134 120  90  84  93  82  77  76  76  74  74  74  73  78  99 106 106 106 109 108 109 109 106 108 109 110
 126 125 126 127 132 136 134 132 135 124 123 131 144 121 129 152 157 168 167 166 169 168 169 169 164 164 165 168 173 171 170 162 152 157 162 163 160 157 158 155 157 160 161 148 144 135 133 127 134 138 144 151 155 158 168 176 182 171 169 166 162 160 159 155 149 137 124 108  80  81  88  80  75  76  75  74  74  74  75  82 104 108 108 109 108 106 107 109 108 110 109 109
 122 121 121 123 123 125 127 127 128 126 129 127 141 131 121 149 157 164 166 165 164 166 168 165 164 166 167 168 174 173 175 171 161 152 153 150 151 162 151 154 158 157 152 155 146 140 139 140 139 144 151 155 157 164 175 175 174 170 168 167 163 158 160 154 139 130 119  92  77  84  90  83  78  76  75  74  74  73  80  92 108 110 111 110 107 106 107 109 110 109 108 110
 124 121 120 116 113 110 112 115 120 115 126 125 145 141 123 136 154 157 166 163 161 164 163 161 167 168 168 171 172 173 175 175 173 167 161 155 157 163 152 156 161 159 153 148 142 144 145 148 144 151 157 160 159 167 176 173 167 170 167 164 159 159 159 156 137 126 110  78  76  84  87  78  76  76  76  78  80  81  88 100 107 105 106 108 105 107 107 107 108 107 108 109
 183 179 176 176 174 171 167 166 162 164 171 141 126 146 131 123 145 155 162 162 158 164 161 158 167 170 170 173 170 176 177 176 178 170 168 171 172 169 168 165 163 159 151 153 149 156 154 156 148 155 163 164 161 168 171 172 174 167 166 159 157 159 158 141 130 119  93  74  79  88  87  77  75  74  77  82  89  96 100 109 111 103 104 107 103 109 108 105 107 105 108 108
 223 223 223 218 222 221 221 220 216 223 211  30 152 145 145 121 129 146 155 166 164 156 157 159 152 168 169 168 171 172 171 174 178 181 177 174 175 175 170 165 171 167 172 166 158 156 157 154 159 153 166 165 161 155 168 168 167 168 152 156 159 161 146 130 119 103  69  69  86  94  79  78  79  75  74  96 104 100 107 105 103 106 106 107 107 107 107 109 106 108 106 109
 218 220 219 216 222 213 225 222 215 230  15  49 141 139 148 142 119 139 149 161 164 161 158 156 157 168 168 173 174 167 171 177 176 177 172 171 175 177 174 172 173 167 166 168 165 162 164 156 163 151 155 167 156 146 167 157 167 161 155 156 154 153 137 117 105  82  67  81  99  88  79  77  75  75  79 103 109 106 106 104 105 108 105 105 104 105 105 107 108 108 107 109
 197 196 198 199 202 202 202 197 236  71  37  29 139 145 148 148 130 121 140 156 166 159 150 147 156 165 166 168 173 169 168 170 172 170 164 163 167 169 167 169 171 168 166 168 162 159 167 163 163 156 145 152 143 158 160 156 155 154 157 156 149 139 122 112  87  65  80  98  99  77  77  76  76  71  83 107 110 107 104 104 105 106 104 105 105 107 106 107 107 106 105 106
 214 213 213 210 210 207 219 208  44  27  41  37 134 146 150 147 147 123 128 143 162 164 156 143 148 161 167 166 167 171 167 165 168 167 166 168 168 167 168 170 166 166 163 164 162 159 170 166 165 162 147 140 141 157 149 157 153 157 154 153 141 128 111  93  71  71  96 103  96  79  76  75  73  70  86 105 106 105 105 104 104 105 104 105 105 106 106 107 109 105 106 108
 191 194 196 198 195 205 170  22  32  40  42  47 198 133 152 153 150 140 119 130 146 157 155 141 139 148 163 165 164 167 170 172 167 163 169 177 176 171 172 172 164 164 160 163 168 166 175 163 165 156 149 137 140 141 149 151 159 156 143 142 128 111  96  71  65  95 104 102  82  75  71  75  73  72  91 106 104 104 111 108 106 106 105 104 105 104 105 106 107 102 105 106
  49  55  60  64  76  63  26  41  33  40  27  94 219 132 147 150 152 145 140 121 132 149 151 144 130 151 154 172 170 163 172 171 176 172 170 179 177 174 174 171 165 158 158 163 166 162 163 164 162 149 140 132 139 136 147 154 157 152 130 128 113  99  76  64 104 105 111 106  39  81  73  78  70  77  97 106 103 105 105 105 105 105 107 107 105 103 102 105 105 104 103 107
  77  66  60  41  32  31  34  40  32  40   4 172 220 159 140 157 154 155 149 128 124 136 148 152 135 140 150 165 166 166 168 173 173 168 170 178 176 171 170 170 166 160 160 158 163 161 164 160 151 145 134 124 130 142 150 154 154 145 131 111 100  77  73 102 113 108 106  86   4  62  76  72  75  81  99 106 104 104 102 102 102 104 106 105 107 108 107 106 105 103 105 107
  34  35  35  34  39  38  39  29  37  33  64 210 208 213 123 154 156 154 157 145 128 128 139 143 144 133 141 155 163 164 160 173 173 177 177 176 178 179 169 172 167 159 157 158 160 160 161 151 142 136 122 119 130 146 150 146 142 130 111 100  79  75 107 121 118 113 105  56  14  31  76  70  71  88 103 107 106 106 100 101 103 106 107 105 103 104 104 105 106 104 105 105
  38  39  35  42  38  32  37  41  43  24 157 213 216 237 167 150 147 156 154 155 140 131 132 135 147 140 137 143 157 162 160 168 173 179 179 175 178 182 179 177 167 156 151 159 161 159 156 139 125 122 113 122 133 137 139 134 129 117 107  82  78 111 119 118 112 117  83  96  23  11  68  82  68  95 106 106 105 105 101 102 105 106 105 107 104 103 104 108 106 107 107 102
  33  36  38  36  34  38  35  39  33  39 208 209 207 221 234 133 156 153 149 155 147 133 131 142 138 148 142 131 140 151 163 155 157 161 170 166 166 164 167 163 157 151 151 155 156 152 143 120 115 116 122 140 140 134 135 126 115 101  87  80 118 126 121 117 115  99 105 112  12  21  29  71  79  98 106 105 105 104  99 100 104 104 102 100 101 101 103 104 104 107 106 101
  36  37  39  38  36  32  33  37  42  37 214 216 215 216 235 196 132 153 153 160 149 151 132 136 137 140 143 148 128 135 151 150 151 153 148 150 155 157 156 159 148 144 154 151 148 140 125 111 119 119 129 136 138 127 120 108 106  83  88 123 124 129 127 126 120  82 171  94  18  16  17  65  85 102 104 103 102 102 107 103 102 102 104 104 103 103 104 107 106 105 103 103
  35  38  38  36  33  34  37  36  37  55 227 215 219 218 223 248 174 150 158 153 159 155 150 135 143 141 143 153 158 132 128 141 142 143 142 145 147 145 145 144 140 142 145 145 130 110 107 119 123 123 129 132 131 114 105 104  84 101 131 128 134 125 124 130  81 128 181 101  18  22  17  39 112 106 104 108 103 102 103 101 102 101 102 104 104 103 104 104 103 100 102 105
  38  37  37  35  33  37  40  37  38  55 227 215 224 216 227 229 237 146 154 161 155 151 154 142 142 144 144 146 152 157 140 130 120 124 120 122 128 130 129 132 137 132 122 113 102 111 130 128 129 127 127 125 114 113 100 102 106 129 131 130 130 128 132  93 111 204 152 103  25  20  22  14  75 109  98 101 105 100 102 101 104 103 101 103 103 102 103 103 102 100 101 104
  39  35  36  34  34  38  39  39  37  50 209 215 221 224 213 233 240 222 137 154 154 155 150 148 141 143 146 139 144 146 151 152 138 126 122 115 115 114 111 107 103 105 107 119 133 139 132 130 124 122 123 118 109 104 100 111 137 139 125 120 131 136 109 114 201 176 165  78  24  26  11  31  16 102 112 101 101 105 105 101 103 102 102 102 101 101 100 102 105 106 104 105
  38  34  34  36  38  38  37  37  37  50 195 212 224 216 226 228 234 246 183 137 153 153 149 147 147 146 144 147 143 144 145 140 153 150 149 145 137 126 125 127 128 135 144 144 142 133 122 117 123 121 120 114 101 105 114 135 135 123 126 128 138 107 125 214 191 180 156  73  32  22  25  17  31  18  94 108  98 107 103  99 100  99 101 101  98 100 101 104 102 100 100 103
  37  38  39  36  40  42  40  38  30  68 169 208 215 220 221 227 233 235 244 169 143 146 160 156 155 148 151 140 146 146 144 144 147 149 147 148 154 156 152 151 149 145 140 135 130 126 124 122 123 122 110 101 109 121 122 136 133 132 133 135 113 140 214 202 187 179 160  64  26  23  18  22  19  24  14  86 111  95 104 100  98  99  99 102 104 102 100 100 100  99  97  98
  37  37  38  39  39  39  36  36  27  79 175 201 215 221 221 227 232 235 239 237 161 141 154 153 156 152 143 149 146 145 144 142 145 142 141 142 142 141 142 142 143 140 133 131 128 125 124 123 123 115 108 111 121 129 129 143 137 132 135 108 181 224 213 199 189 176 157  44  28  24  18  22  21  21  20  13  64 110 100 101 101 111 102 100 102 102 102 101 102 101 100 101
  37  36  37  38  34  34  36  37  22 100 182 192 211 220 224 224 229 234 238 238 243 158 147 155 156 153 156 142 148 145 144 142 141 137 136 139 140 138 136 136 138 135 130 125 125 123 126 128 123 117 119 128 133 137 141 137 144 124 128 208 234 217 206 198 189 174 159  31  31  23  18  19  22  20  24  24  17  48  89 106  97  95 105 103 102 103 103 103 101  99  98  98
  37  35  31  31  31  32  35  37  21 126 190 194 206 218 224 223 226 234 235 239 235 249 158 140 158 157 160 153 152 149 148 145 140 139 135 133 131 128 132 131 132 131 128 130 128 125 125 125 124 125 132 138 137 136 139 145 111 163 236 226 220 214 208 198 183 173 142  25  28  24  18  20  21  20  21  22  23  18  14  53  94 115 103  97 100  99  99  98 101 100 102 102
  37  35  32  29  31  31  34  34  23 148 199 202 205 220 223 222 226 233 239 241 240 240 247 177 131 155 153 158 155 150 150 146 139 138 133 129 130 130 129 127 126 128 128 126 125 125 129 130 132 136 139 141 142 143 126 146 217 236 230 223 221 219 205 192 183 170 111  16  27  24  20  19  20  22  18  22  25  22  22  22  23  40  84 107 105 102 102 101  98  99 100 101
  29  31  33  26  38  45  28  44  31 179 200 210 213 216 226 223 223 230 234 241 242 242 240 248 177 143 155 157 158 155 151 148 142 139 133 129 126 125 126 125 125 127 126 126 131 131 129 137 140 137 142 144 138 130 191 243 234 230 229 226 221 214 203 188 179 174  70  34  28  23  20  21  21  19  20  22  24  23  22  25  29  29  22  35  72 103 102 100 103  95 100 102
  30  29  29  27  34  35  31  37  45 189 206 213 216 217 226 226 222 224 234 242 243 242 242 242 250 184 139 151 156 151 161 147 145 138 133 130 127 125 128 124 128 130 129 134 135 135 144 138 148 152 149 128 185 232 246 234 234 234 228 225 221 211 197 180 174 166  47  36  29  26  20  22  18  18  18  20  20  21  20  24  26  29  31  31  22  26  57  93 109 102  95  99
  33  31  29  30  33  31  36  35  61 201 211 218 225 219 227 229 224 222 231 241 246 246 245 244 237 251 192 153 150 157 151 151 142 140 134 132 129 128 125 124 127 132 132 134 146 139 145 152 148 138 164 233 244 241 233 243 233 234 227 224 219 207 190 176 176 142  29  34  31  26  21  19  18  19  20  22  23  23  24  23  24  27  32  27  33  31  20  29  46  82 101  99
