P2
# Generated by OpenCV 4.2.0
92 112
255
 129  89 118 165 106  91  91 131 129 109 137 144  98 138 161 157 148 178 225 189 146 170 167 141 169 185 136 146 171 169 140 140 148 153 149 153 143 126 129 131 114 113 104 106 105 108 120  83  96 101  86  94  84  79  66  62  90  62  46  56  62  61  43  40  40  39  38  38  38  39  39  39  39  39  39  42  44  41  39  39  38  41  42  41  41  40  40  41  41  41  42  43
 195 169 149 138 136 120 171 194 161 137 180 136 132 168 163 152 122 149 142 153 134 157 152 140 143 171 151 168 149 156 159 153 146 148 130 158 158 122 138 118 100 114 120 111 100 105  99  98  97  88  92 105  91  86  81  64  65  68  69  56  43  47  48  40  43  41  39  39  39  39  39  39  39  39  39  40  41  39  38  38  38  41  42  41  41  40  40  41  41  40  41  42
 149 149 131 167 142 145 168 156 137 175 177 154 166 161 184 135 159 128  95 136 137 128 129 172 173 193 174 161 153 149 141 147 153 161 131 130 126 135 122 109 100 120 125 124 103 109 106 112 101  88  95  91  73  81  85  76  59  58  69  63  70  53  49  48  43  40  40  41  39  39  39  38  38  38  39  39  39  38  37  38  39  41  42  40  41  40  40  42  41  41  40  40
 107 156 155 116 120 181 177 128 189 190 152 130 140 153 109 137 163 111 103 124 133 156 178 187 147 168 147 156 160 165 142 155 153 121 105  92  94 112 111 109  98 106 113 125 119 111 120 110  96  94 106 106  73  64  66  71  64  57  48  53  79  58  43  53  45  41  42  40  40  40  42  41  39  39  39  39  39  38  37  38  39  42  42  41  41  42  42  41  41  41  41  42
 186 165 128 155 177 180 162 175 182 130 139 174 187 140 156 150 139 107 145 181 178 176 165 162 136 159 167 161 131 151 185 152 100 106 103  93  84  92 111 122 123 126 134 145 156 157 140 141 134 118 109  95  90  76  64  65  70  71  62  56  53  62  47  62  51  46  51  44  43  41  41  43  40  39  39  38  39  40  39  38  39  41  41  41  41  42  42  42  42  42  42  43
 121 146 150 154 161 165 190 186 158 151 154 173 152 171 147 110 110 166 158 155 126 116 141 168 156 176 159 165 137 144 126 110 104 119 123 123 132 149 157 157 160 161 169 160 147 145 141 145 146 136 137 142 127 105  77  53  55  59  49  61  66  49  48  49  47  48  50  44  41  42  37  36  41  41  40  38  39  39  39  38  40  41  41  40  41  42  41  42  42  42  41  41
 140 135 145 168 198 198 178 171 159 168 140 151 145 149 189 173 167 154 121 112 124 143 183 151 146 166 165 163 160 147 125 122 139 135 142 161 169 169 172 177 179 176 178 184 180 167 158 157 145 136 138 160 146 138  99  75  68  74  51  59  61  45  44  56  45  46  49  44  44  52  45  40  40  41  41  40  39  38  39  38  39  41  42  42  42  42  41  39  39  39  40  41
 141 173 160 169 161 153 164 149 164 162 161 170 169 156 146 174 195 182 154 128 173 192 201 154 140 150 183 163 147 139 153 151 147 149 163 173 170 175 177 181 182 179 182 186 195 202 193 179 161 146 141 148 151 157 157 125  99  69  46  54  56  64  58  53  49  58  47  52  42  47  43  41  41  41  41  41  40  38  39  39  39  40  40  41  41  41  39  39  39  39  40  41
 149 165 159 177 182 189 161 161 146 140 153 156 164 164 112 155 145 133 148 195 145 171 168 130 160 173 142 155 146 158 147 149 161 175 172 169 167 176 175 173 175 189 193 191 189 193 205 206 198 176 152 140 161 157 175 170 141 128  97  68  50  60  42  47  50  49  48  50  44  39  46  39  41  41  41  42  41  40  38  39  39  39  39  41  40  40  39  39  39  39  40  41
 146 155 181 196 172 147 153 158 171 177 179 155 152 149 141 182 125  88 116 157 140 156 154 158 167 144 137 155 153 148 149 168 167 169 174 164 158 165 168 176 169 172 180 191 197 197 194 201 206 193 174 162 160 164 163 157 156 147 141 122 108  81  50  61  71  65  52  52  52  39  45  44  41  41  42  41  40  40  41  42  42  40  40  40  40  40  41  42  42  41  42  41
 148 152 183 161 134 159 163 165 161 138 184 150 141 144 124 188 174 151 177 163 158 161 170 165 148 147 144 132 138 149 164 169 171 171 169 162 165 171 166 181 191 187 179 179 188 199 205 191 189 198 185 167 164 160 166 165 155 147 128 122 126 133 104  60  50  60  54  64  52  49  40  50  43  41  42  42  41  41  39  42  43  42  42  40  40  40  41  43  43  42  43  40
 176 182 162 157 172 186 156 139 176 176 165 183 182 166 156 167 190 187 175 164 189 173 136 145 150 137 122 128 144 165 174 174 171 172 174 179 174 175 168 164 186 196 194 182 156 166 184 190 172 170 167 170 169 164 171 172 168 159 137 124 129 131 132 113  65  57  67  58  62  67  48  53  41  42  41  37  41  43  42  40  41  40  40  40  40  40  40  40  40  41  43  42
 167 196 177 162 170 161 144 164 157 160 170 172 156 161 186 163 138 129 146 161 167 155 143 153 136 114 128 159 170 167 158 161 170 172 177 184 181 178 182 168 184 201 194 193 179 166 153 160 173 158 147 168 165 157 171 173 159 166 163 137 130 141 145 133 135  87  48  59  58  52  52  57  46  38  40  42  35  37  44  41  40  39  39  40  39  40  40  39  39  41  43  41
 144 152 142 154 172 152 149 169 162 161 150 122 137 159 137 114 112 159 171 166 144 141 144 139 116 130 155 150 131 129 131 135 143 155 163 171 171 175 186 179 165 198 184 190 194 191 165 142 148 160 158 140 142 150 155 164 164 159 161 153 132 108 129 133 127 139  89  66  63  44  45  45  44  42  42  54  47  38  42  41  41  40  40  40  40  39  40  40  40  41  43  41
 147 162 154 165 189 168 160 171 136 162 164 148 150 152 150 160 141 125 128 133 117 120 116 105 125 154 109  82  88 103 121 132 130 143 158 168 177 174 171 171 167 185 205 173 183 190 170 155 149 143 150 147 141 137 134 140 158 169 161 151 129 108  99 120 123 129 127  79  58  46  60  46  40  56  43  49  66  41  41  41  42  40  40  40  40  39  40  40  40  41  41  40
 157 157 157 170 185 160 151 140 130 164 151 155 181 128 174 163 140 180 151 101 115 109  90 100 143 107  63  77  88  99 118 138 147 145 144 167 181 187 171 177 185 170 197 191 164 183 173 166 148 141 144 144 149 150 135 126 130 135 146 158 128 116  90  98 113 112 107 113  51  42  53  47  40  54  53  39  44  40  37  42  42  41  41  40  40  40  40  43  43  40  37  38
 130 130 138 147 155 141 133 136 146 148 135 159 178 147 164 178 188 203 132 106 126  95  94 124  99  74  90  94 105 111  98 123 150 159 155 148 161 179 181 178 176 179 181 197 173 157 171 177 165 155 148 141 140 139 134 133 122 118 131 143 135 136 117  90 107  96  95 127  84  42  47  54  36  46  45  40  43  48  38  40  43  40  41  41  40  40  41  43  43  41  39  40
 149 156 168 149 160 160 158 130 146 159 151 139 139 130 164 161 162 124 106 129 110 117 132 110  88  99 108 108 109 106  96  88 119 135 159 169 151 157 167 173 170 165 183 192 193 177 159 162 158 160 160 150 149 157 144 146 144 128 124 131 129 133 130 110 108 106 108 104 110  62  70  83  75  69  48  43  41  41  40  41  43  41  40  40  40  41  42  41  43  42  40  40
 171 167 181 166 177 175 162 149 161 180 167 160 194 186 185 184 153 105 121 130 144 153 124 103 111 101 102  98 103 117 135 123 112 136 139 159 155 141 156 156 172 161 161 166 190 192 179 162 155 150 148 144 143 143 149 153 154 149 139 136 121 120 124 135 105 112 114 109 121  92  72  62  79  61  64  50  42  40  44  42  44  42  42  42  42  42  43  41  42  42  40  39
 170 177 168 178 175 165 164 188 200 185 173 166 173 170 194 199 145 119 148 154 150 113 119 110  98 101 108 103 118 119 129 150 137 124 122 142 152 145 131 143 149 156 168 142 152 170 182 184 174 166 160 154 160 157 151 144 143 148 147 137 140 123 127 132 136 113 104 113 123  90  70  66  56  50  53  53  51  55  41  41  42  43  43  41  41  40  41  41  42  42  41  40
 207 190 177 189 201 199 170 164 180 172 157 171 172 166 158 150 140 140 156 162 122 111 119  98 102 107 118 120 139 138 142 136 138 144 122 115 145 156 147 135 140 149 154 166 138 152 160 167 177 180 176 170 174 171 162 155 147 148 138 130 123 123 133 126 125 131 108 124 123 132 127 104  74  45  45  44  57  54  41  41  43  43  43  40  40  41  41  42  42  41  41  40
 192 192 174 175 167 180 183 165 167 177 188 180 176 196 157 143 137 151 164 146 141 126 109  96 120 115 117 135 145 138 131 129 115  99 101  92 109 131 153 145 129 146 151 158 159 144 154 160 159 165 169 164 162 162 166 168 162 156 147 146 142 127 131 132 102 128 114 116 138 148 164 167 149  82  46  41  44  49  50  50  40  42  41  41  41  41  42  42  42  41  41  41
 181 186 184 157 156 168 169 173 187 184 194 182 168 153 157 137 139 168 166 166 147 122  96 115 116 109 112 130 128 136 131 126 110  99  96  84  81  92 112 133 134 139 148 145 168 165 155 163 162 160 163 166 162 158 158 159 159 158 159 155 151 138 132 135 117 110 105 124 132 132 159 175 184 178 105  48  46  60  50  61  42  40  42  43  43  43  40  40  41  41  43  42
 182 175 195 185 184 191 174 165 164 184 186 171 152 151 143 146 163 162 156 147 135 118 109 117  89 103 114  97  79  87 100 107 107 117 121 115 113 105 108 120 131 135 141 152 156 165 170 170 169 168 168 166 166 165 164 164 162 162 162 156 152 152 133 128 121 124 111 131 138 156 170 181 182 184 194 117  48  61  39  44  41  40  44  43  43  42  40  41  40  41  43  41
 175 186 160 172 179 184 162 182 194 173 140 140 145 144 142 145 149 137 140 145 140 116 114  94  98 118 100  75  57  60  86 103 117 131 137 131 130 118 120 133 134 139 144 158 160 166 170 177 176 176 175 174 177 178 172 171 169 172 172 165 162 159 141 131 123 137 144 149 147 145 153 177 196 188 191 210 103  53  40  41  46  39  43  43  42  42  40  40  39  40  43  42
 177 183 194 158 155 175 155 178 181 168 150 143 142 126 115 113 114 147 161 135 130  95  97  99 105 122  96  82  73  83 108 122 131 128 129 129 120 125 136 141 138 138 157 163 167 174 179 180 180 183 183 180 178 176 176 175 175 176 176 170 168 160 150 143 138 138 153 154 146 154 153 161 186 199 178 180 190  96  44  40  40  41  41  43  43  42  41  42  41  41  42  41
 176 183 181 184 192 189 163 170 161 156 133 112  98  86  86 109 132 149 145 134 111  85 107 107 114 131 129 149 153 142 127 115 110 113 124 132 137 141 141 144 143 144 166 170 179 187 191 182 183 185 185 185 186 188 187 185 185 181 177 175 170 163 156 146 144 141 149 146 144 165 183 164 161 188 197 168 159 171  63  32  44  48  41  43  43  43  41  42  42  41  42  41
 186 194 181 167 170 175 156 188 177 140 114 109 101  90 113 131 140 138 127 118  93  93 111  99 108 106  81  96 104 120 144 147 146 145 147 146 153 156 158 161 154 169 180 184 188 191 192 189 190 191 192 193 194 195 190 188 185 183 180 177 174 166 163 155 147 144 144 141 143 153 158 177 178 163 191 205 144 145 144  46  42  42  41  43  43  41  41  41  41  41  41  41
 164 183 202 172 178 177 174 183 162 153 128 148 129 100 111 119 126 126 119  96  89  96  86  74  94  79  75  79  63  79  88 111 127 138 140 149 157 158 160 162 165 176 179 188 191 191 191 193 194 194 195 193 190 187 185 186 185 185 182 181 177 171 167 162 150 148 144 140 145 145 148 152 178 182 182 201 193 120 154  89  34  35  43  44  43  41  42  40  41  41  41  41
 179 197 208 188 192 189 171 172 167 151 133 134 131 130 130 120 115 115 120  94  79  87  83  81  87  75  87  94  91 111 126 135 142 151 152 160 167 170 174 178 178 182 184 189 191 195 198 195 195 193 191 189 188 187 186 188 192 192 189 185 180 172 166 165 155 150 148 145 143 143 148 152 157 186 179 193 203 167 117 120  28  41  43  43  43  41  41  41  41  41  40  41
 195 178 182 194 180 178 183 188 172 150 142 132 130 134 135 134 135 121 108  88  80  86  79  78  84  77  90  99  96 120 133 137 141 156 165 164 165 171 182 188 183 189 191 193 195 200 202 202 201 200 198 197 193 194 195 194 194 192 189 185 182 172 163 162 154 148 147 145 142 145 149 148 161 184 181 176 197 194 123 116  53  38  46  43  43  42  42  41  41  41  39  41
 200 187 200 183 179 194 196 198 174 157 131 139 139 135 138 138 125 116 110  89  89  93  75  75  81  75  97 100 103 117 135 145 155 166 169 173 178 181 186 190 190 196 200 198 197 204 205 202 202 203 202 199 198 200 200 198 196 192 188 185 180 170 161 160 152 148 147 143 144 142 149 165 163 173 196 186 174 191 165 104  71  32  43  42  42  43  43  41  41  41  40  41
 187 182 186 173 191 199 201 201 185 160 150 130 122 127 141 137 138 138 120 112  97  91  75  67  72  79  93 104 118 126 142 162 168 166 175 184 190 193 195 198 199 200 201 203 206 208 209 209 208 209 207 205 204 204 205 202 198 192 187 182 177 169 162 156 149 144 139 144 146 139 145 171 181 176 193 196 176 162 195 145  66  31  42  40  41  43  43  41  41  41  41  42
 180 208 190 161 174 174 179 170 149 159 151 111  85 122 151 146 145 139 131 130 121  81  78  76  77  89 107 123 131 140 149 163 172 179 188 194 194 198 202 207 207 207 207 207 208 211 211 211 211 212 210 207 205 204 203 200 197 191 186 180 175 169 162 155 145 144 140 146 146 142 145 164 181 183 192 186 192 176 173 163  89  26  40  41  43  43  43  40  41  41  42  43
 216 205 193 167 173 202 167 164 167 157 128  88 108 166 174 163 153 160 159 149 133  73  74  85  77 100 119 122 141 152 156 163 171 181 189 191 189 192 195 200 203 202 201 205 208 210 210 209 211 211 209 208 205 204 199 197 192 189 185 179 175 168 160 152 146 147 141 147 147 147 148 160 166 184 192 196 192 189 169 160 110  33  34  41  43  43  43  41  41  41  42  42
 187 220 215 178 171 194 216 215 205 198 130  91 147 170 182 174 157 163 162 145 105  71  59  70  83 106 120 131 143 153 158 169 176 184 188 188 193 196 199 205 206 206 208 206 206 209 210 209 208 208 207 207 204 201 197 193 192 187 183 179 173 165 158 151 144 145 140 147 148 149 150 156 175 188 199 194 205 193 187 169 104  51  31  41  44  46  43  41  41  41  42  43
 177 178 194 207 198 160 157 165 180 187 125 132 152 176 185 174 170 168 157 137  98  77  57  68  79 112 131 140 145 163 165 169 179 190 184 191 195 197 203 206 205 211 213 210 207 207 207 209 208 207 208 207 205 200 195 189 192 183 179 176 171 163 167 160 145 143 146 151 144 146 154 160 175 184 192 200 193 199 191 170 100  57  29  39  45  43  42  43  42  42  42  43
 203 206 194 176 181 202 207 175 162 152 119 133 145 169 178 175 178 180 165 141 135 103  80  86  96 126 149 157 163 170 169 173 180 189 185 191 197 198 198 196 198 208 205 205 211 210 210 213 214 211 209 205 203 201 199 191 190 183 179 176 170 164 165 161 152 148 149 153 144 145 151 156 169 180 190 198 195 200 195 163 115  49  23  32  42  41  41  43  43  42  44  43
 179 193 194 178 173 179 192 190 210 199 147 131 145 162 178 169 183 186 177 170 156 138 118 116 131 144 156 165 171 175 170 178 185 188 184 190 201 205 206 209 212 210 215 223 223 222 221 217 217 217 214 210 209 205 207 195 189 180 179 174 170 161 156 157 155 147 148 155 149 147 149 152 173 186 201 205 186 191 200 176 119  73  50  39  48  44  42  43  43  42  44  45
 191 194 180 167 189 216 214 190 170 176 138 112 137 155 171 187 192 187 191 180 150 148 137 135 141 154 165 174 178 176 176 179 181 186 186 190 196 201 207 214 213 210 217 218 218 219 217 213 214 211 203 197 199 196 198 193 190 183 178 177 174 170 169 167 165 158 155 155 152 150 148 147 164 185 194 219 194 192 192 178 143 117  53  41  43  51  45  43  44  44  44  44
 193 208 189 172 191 161 163 202 199 170 134 107 126 147 171 186 188 191 193 182 158 144 141 143 147 159 168 176 178 176 180 178 177 183 187 190 184 186 193 197 191 197 197 196 198 200 201 199 201 196 191 192 195 197 192 192 192 189 184 180 176 177 175 171 167 165 159 154 154 153 149 146 162 194 189 207 196 194 177 181 156 112  38  38  36  47  46  43  46  44  45  44
 198 193 157 164 170 161 147 175 184 165 129 113 132 142 169 181 185 193 190 185 163 140 142 146 154 166 169 178 180 179 178 178 179 180 184 188 190 191 194 196 194 196 197 199 199 201 203 200 201 195 191 193 195 196 196 196 192 190 189 185 181 180 179 174 171 169 166 161 157 154 151 147 161 187 197 189 200 186 180 163 165 125  61  35  31  47  45  42  45  46  47  46
 173 187 188 179 177 193 192 188 205 185 135 113 121 143 167 179 184 194 194 182 161 141 146 152 159 169 171 180 183 181 176 177 180 178 183 187 193 195 193 193 194 197 199 199 200 202 201 202 203 198 192 193 195 196 198 197 196 195 192 189 186 184 180 177 174 174 170 165 161 156 151 146 152 180 200 193 202 181 171 160 172 146  94  65  26  38  44  42  47  46  46  47
 197 190 196 179 191 191 187 188 193 185 149  95 121 154 171 179 186 190 189 178 148 143 153 158 158 170 175 181 185 183 175 177 183 185 189 194 199 198 199 200 198 201 201 203 202 200 198 203 201 197 198 199 198 200 200 197 195 195 193 189 188 187 181 177 174 177 172 161 156 154 150 146 156 182 202 189 197 180 164 164 175 157  87  65  41  32  46  44  48  50  49  49
 197 195 194 172 175 163 181 183 174 176 145  95 130 151 168 175 174 189 189 173 149 151 157 162 162 170 174 180 185 179 175 179 186 192 194 199 202 202 204 203 195 199 198 202 203 205 205 204 203 203 203 203 204 204 201 199 196 194 193 189 187 186 184 178 176 173 165 159 156 153 153 149 149 175 195 202 191 176 169 171 171 165  92  38  40  29  43  46  50  50  51  51
 196 193 198 193 182 182 203 181 204 217 164 114 137 145 162 163 171 187 183 154 150 150 156 165 165 172 174 180 183 175 173 182 189 191 194 199 199 200 200 201 201 201 202 202 203 209 210 205 208 211 208 206 205 206 201 198 196 193 192 190 189 187 185 182 177 171 158 158 164 161 153 147 143 159 183 197 191 181 178 170 167 177 123  44  23  30  45  45  49  50  52  50
 191 192 187 189 180 183 186 174 178 182 158 137 134 146 157 161 176 183 162 147 143 147 163 166 166 172 173 178 182 172 179 186 188 186 191 194 200 204 204 208 209 210 212 206 207 209 211 213 208 218 216 211 208 211 199 196 196 194 191 189 189 192 186 183 179 171 154 153 158 155 154 155 152 144 155 176 186 171 175 178 169 176 112  43  25  28  39  46  49  49  52  50
 187 196 214 193 172 166 167 178 178 166 160 150 133 146 152 166 173 166 147 143 143 151 167 164 171 170 175 179 174 173 185 184 186 190 194 197 203 202 205 212 213 218 221 214 213 207 210 218 219 225 222 216 213 215 204 195 195 184 178 186 193 194 182 173 160 165 160 154 153 148 153 160 155 144 145 152 180 167 171 180 182 168 121  31  23  20  34  43  47  48  53  50
 190 189 199 202 189 170 150 178 192 187 158 147 133 134 150 159 160 142 139 141 142 153 164 159 171 162 172 172 157 168 176 177 184 187 190 195 200 199 201 209 210 212 216 222 220 222 216 201 216 217 214 205 201 204 202 194 193 187 184 180 176 164 160 158 144 149 156 144 150 151 152 160 148 141 144 142 156 168 164 179 185 170 125  39  26  25  28  40  49  51  53  50
 205 192 170 166 186 188 175 168 194 198 164 151 130 137 150 157 153 137 137 137 141 153 157 153 156 161 160 151 139 139 142 147 163 174 176 179 185 197 200 195 195 197 198 211 212 217 211 190 202 202 195 190 187 191 191 182 177 167 161 157 153 148 152 163 152 146 141 129 143 146 144 155 145 140 143 142 145 156 149 172 183 159 129  48  19  29  26  37  51  53  53  51
 204 195 167 189 207 192 185 178 181 186 171 152 133 142 135 153 142 135 131 138 145 151 156 157 154 154 143 131 132 145 148 137 129 123 134 152 141 153 170 172 172 187 191 196 201 209 199 184 186 196 190 182 168 164 147 144 131 123 144 149 151 167 163 158 158 151 142 137 139 141 139 145 144 137 140 136 137 145 144 168 182 159 117  41  17  27  31  38  47  51  55  53
 194 194 188 199 227 217 188 184 174 195 181 140 131 130 119 134 136 131 125 131 141 150 149 146 143 143 141 134 146 162 160 160 144 123 117 113 111 129 147 160 174 184 188 189 195 202 189 179 180 188 183 181 172 157 146 139 120 132 154 171 179 182 171 161 161 153 146 144 140 131 139 131 140 134 136 130 139 145 131 167 174 164 118  20  25  22  28  40  49  50  54  52
 198 171 177 166 200 205 211 199 179 193 164 139 145 122 119 131 140 127 133 136 143 148 145 144 141 149 152 142 148 152 157 187 193 169 147 129 136 143 151 161 168 172 181 187 190 198 186 178 178 182 170 167 162 150 150 152 159 170 178 187 190 190 180 166 160 154 155 145 143 135 135 125 138 140 137 127 144 150 125 162 172 159 144  44  23  22  30  42  52  51  52  49
 211 205 195 189 192 194 195 216 193 199 158 142 139 127 130 144 134 136 137 133 135 137 141 143 142 148 155 148 163 166 176 192 207 199 182 175 164 155 148 148 152 157 174 188 193 196 186 178 174 176 164 150 144 148 155 172 175 185 194 203 196 192 177 165 155 155 154 143 141 148 139 137 138 143 144 134 146 153 136 161 169 169 161  70  14  23  35  43  51  52  52  49
 207 207 214 225 199 191 196 200 184 197 172 133 141 140 148 157 149 127 134 131 134 139 141 147 150 149 154 155 162 177 184 195 198 199 192 187 172 169 156 152 142 145 163 182 192 199 194 181 175 169 156 145 155 160 167 171 163 172 170 177 183 183 178 165 157 157 152 148 145 149 153 152 140 140 144 139 148 151 149 167 166 172 139  42  18  24  31  45  48  49  53  51
 178 188 187 209 225 198 184 200 208 204 192 138 137 146 147 156 144 122 134 134 137 140 155 154 144 144 150 154 152 167 179 181 182 164 144 139 139 139 153 149 129 135 158 169 189 208 209 188 176 166 148 146 148 141 135 121  85  88  84  70  77  91  95 111 132 143 143 140 148 157 157 151 142 145 141 136 155 157 152 169 175 173 141  31  21  24  30  44  47  51  51  49
 193 193 196 191 209 218 211 209 211 211 207 158 132 138 145 150 136 123 135 140 142 141 169 167 155 147 144 154 152 126 103  80  70  65  60  73  73  92 112 127 128 133 152 165 183 204 209 197 180 161 140 141 139 124 103  81  88  92  37 122  79  12  61  55  55  91 129 135 136 149 157 158 145 151 140 133 164 162 158 149 165 170 101  29  20  21  30  44  46  50  48  46
 215 213 203 203 196 184 195 198 197 189 196 168 124 141 153 145 136 124 138 142 144 147 160 175 162 149 149 131  80  63  54  22  88 114  39 136 113  87 129 134 142 139 152 167 177 201 202 192 175 157 137 147 153 128 108  79 160 165  61  72  55  47 123 114  66  62  93 119 145 165 169 157 139 146 139 133 163 167 167 134 151 143  26  20  23  20  31  44  47  50  48  45
 197 206 207 203 204 199 196 204 204 201 195 169 133 152 156 149 124 123 138 148 143 152 153 152 151 149 128  75  62 120 130  42  54  59  53 179 185  92 123 163 171 154 156 163 174 196 194 186 162 157 145 156 168 143 131 130 143 142 136 134 139 149 153 159 144 138 124 130 149 157 152 144 136 141 137 128 162 169 156 153 135 117  22  20  23  24  31  45  46  48  46  45
 211 203 202 202 209 204 193 194 206 204 217 183 144 148 145 140 132 118 133 145 152 162 170 157 138 121  92 112 150 153 144 127 117 117 122 156 148 142 143 158 183 166 155 163 170 185 187 183 157 151 153 157 186 170 161 162 165 169 177 190 190 180 172 175 165 155 152 162 166 159 150 150 140 140 133 121 145 171 154 137 112 129  30  19  23  24  30  43  46  47  46  44
 201 207 204 208 205 195 193 192 198 206 216 182 144 138 156 133 146 114 123 140 145 156 157 156 153 142 136 148 168 162 168 177 182 185 173 170 166 162 169 187 195 158 154 159 168 176 180 178 164 139 152 159 170 164 154 158 166 178 195 199 185 184 183 164 154 151 162 175 170 167 159 148 143 138 131 127 139 171 143 109 146 151  33  18  23  24  29  41  44  44  44  42
 213 198 194 200 211 208 207 205 192 206 199 181 152 139 148 157 147 118 125 137 150 153 164 168 165 163 164 155 156 166 172 172 181 188 185 182 169 150 156 179 174 155 155 150 162 171 178 177 166 145 148 170 177 177 168 157 146 143 151 156 151 146 143 139 142 164 181 178 171 153 152 148 137 138 133 125 136 165 145 133 167 167  37  15  19  22  32  40  43  42  44  43
 217 209 193 206 202 199 201 210 203 206 210 179 172 159 137 156 145 119 122 132 140 147 158 157 163 178 173 152 155 158 151 152 165 159 156 156 154 161 169 174 169 154 148 146 155 170 181 185 165 146 140 166 170 177 187 179 168 158 155 155 155 156 166 186 187 182 176 172 169 163 150 147 132 127 127 123 125 153 140 147 171 179  43  16  20  26  34  42  45  42  44  43
 213 203 201 207 199 213 208 200 196 200 214 185 177 176 131 160 144 117 125 136 139 140 150 156 165 173 166 164 166 172 167 163 169 163 169 176 178 180 182 181 168 155 140 150 155 169 177 174 161 147 139 155 169 176 184 183 182 180 175 176 185 189 190 188 194 193 179 163 162 162 167 149 140 129 127 132 119 120 149 149 185 185  43  17  20  27  34  42  46  43  43  43
 224 211 195 193 210 206 200 205 200 189 195 192 172 179 127 164 152 121 131 135 142 142 153 162 161 162 162 176 180 186 189 186 186 189 188 188 184 188 183 172 167 150 143 152 156 163 167 166 162 151 148 153 167 177 176 181 184 185 185 183 186 190 193 197 194 193 188 177 174 169 157 149 132 124 124 134 108 116 162 151 170 179  38  19  20  29  41  42  44  43  43  43
 212 217 214 207 213 204 199 192 200 211 210 196 176 164 147 163 139 129 129 134 141 137 145 164 168 171 174 187 186 187 185 186 187 189 189 189 186 181 175 172 163 154 158 150 159 172 173 168 156 144 156 169 173 180 185 188 187 182 189 191 193 190 190 195 198 190 184 179 179 169 155 147 131 127 120 129 104 132 169 164 160 158  23  22  20  31  45  43  45  43  43  43
 206 213 209 200 201 212 209 203 198 208 217 206 174 139 156 186 133 127 121 123 142 143 151 172 170 173 188 194 190 188 187 187 185 185 186 186 180 170 168 174 165 168 162 151 174 183 185 179 159 147 164 180 180 185 190 193 193 188 191 194 195 194 192 196 198 191 182 173 172 164 153 152 137 127 125 123 106 152 199 182 171 115  13  25  20  32  44  43  43  43  43  43
 198 211 213 196 197 212 216 211 202 194 201 214 174 147 165 193 146 127 114 120 139 141 159 170 177 184 188 192 189 189 189 189 186 185 184 182 178 180 181 180 178 170 149 165 179 181 178 182 169 151 157 175 181 191 195 198 197 190 190 193 196 194 194 196 198 191 180 170 169 164 155 156 140 128 127 115 107 165 212 200 180  69  10  23  19  30  43  42  43  43  43  43
 190 198 210 204 202 201 209 212 209 200 196 217 178 163 180 180 136 127 113 126 141 148 167 170 174 185 184 188 189 189 189 191 193 189 180 183 181 192 194 186 185 173 143 170 173 178 178 182 177 156 150 161 174 187 199 204 201 197 196 194 199 195 198 201 194 192 183 165 161 158 152 148 144 127 122 108 106 158 199 190 186  66  10  23  20  32  45  44  44  43  43  43
 190 190 203 205 183 182 203 205 197 205 210 211 189 175 186 195 133 124 120 125 135 151 159 160 164 179 185 188 191 189 190 193 193 186 188 195 194 200 198 185 177 168 144 158 163 178 183 183 180 170 153 152 163 168 180 201 204 219 217 205 204 202 203 202 197 191 175 167 156 150 154 157 146 128 121 110 105 139 181 165 187  86  10  22  20  31  44  44  45  43  42  43
 206 204 192 210 198 187 199 198 199 211 210 206 200 161 148 170 124 119 127 129 134 151 162 162 167 182 187 190 193 194 194 199 195 190 200 202 203 203 184 163 170 159 144 146 165 185 192 194 189 177 159 158 167 160 160 173 182 199 212 217 208 206 203 195 195 186 178 171 162 155 151 150 144 129 120 114 112 135 155 153 186 104  14  22  19  30  43  44  45  43  42  43
 225 196 174 201 204 201 213 201 207 218 214 214 199 145 141 134 114 121 128 133 138 147 160 163 165 182 189 191 192 196 198 197 195 200 207 211 199 192 173 155 165 156 144 150 173 209 223 211 194 174 155 161 162 152 147 144 146 168 188 202 215 211 193 189 190 182 181 175 162 158 150 147 142 126 118 111 107 143 140 163 166 100  10  21  22  33  44  44  45  44  44  43
 189 210 199 197 195 210 202 195 196 207 217 201 182 140 160 150 123 119 123 133 135 143 155 162 164 174 183 193 194 198 200 201 200 206 213 203 179 176 157 162 166 163 136 151 173 201 204 194 180 168 148 164 172 154 149 156 138 142 168 179 194 205 190 183 186 178 173 173 163 160 146 143 145 124 117 114 109 171 181 178 158  93  11  19  28  39  44  43  45  45  44  44
 166 188 209 212 200 199 200 206 191 202 209 201 191 142 163 183 128 115 122 129 138 145 151 156 165 168 178 192 193 195 200 210 212 207 195 168 155 171 153 161 169 174 146 141 163 168 163 162 173 155 116 114 137 129 153 162 168 144 149 158 173 186 178 176 181 175 171 170 160 158 145 141 144 127 121 118 117 177 193 172 164  84  12  20  26  38  44  44  45  45  44  44
 218 200 167 200 209 190 201 203 192 198 209 226 214 156 176 182 127 118 124 124 138 143 148 152 165 167 180 186 185 187 204 211 204 193 173 157 162 186 166 146 156 117  69  90 143 159 154 165 156 109 113 136 101 132 162 167 182 182 147 142 167 173 171 170 170 172 169 165 157 157 144 139 143 129 128 123 114 166 189 173 170  66  11  22  27  38  44  44  45  44  44  44
 215 215 192 197 187 199 216 207 192 177 197 223 199 152 177 180 126 117 125 123 134 138 148 152 162 169 177 181 182 183 201 196 178 174 152 153 174 187 172 135 128 120 111 102 109 134 125 128 115 105 136 146 140 166 164 162 172 175 178 142 143 160 168 169 170 169 165 162 154 154 143 142 144 132 130 121 128 170 185 179 176  67  10  25  25  40  46  44  45  44  44  44
 196 188 200 203 204 202 207 212 209 201 221 224 176 164 181 171 120 112 120 125 135 140 140 151 155 161 172 177 180 179 176 173 168 147 143 174 182 186 188 159 144 162 162 162 125 113 105 113 120 135 149 157 158 166 171 169 172 169 177 169 136 150 169 162 163 163 161 159 153 153 142 143 142 136 129 121 141 181 179 174 185 117  13  22  23  40  46  44  45  44  44  44
 176 188 192 197 198 196 204 206 200 206 219 222 171 170 179 167 122 115 118 123 136 146 145 144 148 158 166 172 176 179 168 164 157 144 166 188 193 190 187 175 171 171 165 165 160 165 153 155 148 145 159 166 159 165 171 165 169 159 166 179 152 134 156 166 160 160 158 156 154 154 143 141 142 142 131 121 140 189 168 173 183 127  12  20  21  40  48  44  44  44  44  44
 182 202 195 212 204 207 215 207 210 207 206 211 176 152 160 176 127 121 121 121 140 146 151 150 148 153 163 167 170 168 167 158 148 166 178 185 191 181 178 176 172 169 169 154 159 171 167 158 164 162 155 158 156 164 164 158 158 153 157 171 168 139 137 169 161 159 157 150 149 153 144 139 142 144 134 115 141 189 164 167 185  92   9  20  22  38  45  44  44  44  44  44
 187 208 202 205 196 197 223 218 213 207 208 220 203 153 147 180 129 123 116 123 140 147 151 148 142 152 160 164 164 164 165 155 161 178 180 181 177 173 169 168 167 170 171 165 168 166 162 173 169 171 172 164 162 166 156 154 150 148 144 159 172 165 139 159 167 165 165 151 146 156 149 144 143 142 134 114 136 191 168 168 144  31  15  19  24  37  44  44  44  44  44  44
 209 198 216 218 198 205 217 217 216 212 211 215 222 189 138 153 124 124 117 124 135 153 143 147 151 157 157 162 163 175 171 159 185 187 180 176 168 164 164 168 173 167 171 175 174 170 172 179 177 179 176 165 162 167 159 154 146 137 132 150 156 171 161 157 174 171 164 157 157 164 151 141 145 143 128 117 122 183 171 144  39  11  18  19  26  39  46  44  44  44  44  44
 205 210 195 210 207 215 204 213 202 212 208 205 213 205 183 147 127 121 117 125 140 151 154 156 161 164 165 171 169 175 172 170 181 180 177 171 164 165 170 170 174 174 170 178 179 181 180 178 180 182 177 170 166 172 162 161 155 150 142 154 157 163 170 149 176 178 166 161 163 167 150 142 148 142 127 114  70 102  96  32  15  23  20  21  28  41  46  46  46  45  45  45
 192 206 204 205 208 201 204 210 202 206 204 208 207 209 206 222 157 121 122 130 149 155 164 170 163 170 172 174 176 178 171 181 176 174 170 165 162 162 169 179 178 175 181 187 189 184 189 201 191 181 168 152 152 147 146 148 157 159 153 157 164 170 172 137 177 181 171 171 171 171 160 150 151 140 128 119  42   5  13  16  21  21  20  19  24  41  48  46  50  48  47  47
 192 211 209 208 212 205 203 202 213 208 185 197 208 201 211 210 159 118 119 126 142 154 159 172 168 177 179 181 185 178 170 185 182 169 166 170 177 177 176 179 165 163 160 158 151 147 150 139 126 122 124 129 120 123 114  96  96 108 136 159 179 179 175 155 190 184 175 180 168 167 166 157 149 142 129 113  36  17  26  20  19  20  20  18  21  39  47  47  52  55  51  49
 192 215 209 212 216 215 207 206 199 200 195 197 209 196 198 213 148 122 124 119 132 151 160 173 176 181 185 188 190 182 170 181 180 172 171 175 156 135 124 124 122 126 148 128 151 141 123 143 165 162 192 205 189 202 169 142 137  73  72 108 149 169 172 174 195 185 175 179 174 173 164 152 143 141 126 103  25  22  23  19  20  21  20  20  22  40  49  52  55  58  57  54
 166 201 204 203 205 204 200 211 213 207 214 213 208 203 205 217 167 119 125 121 135 159 168 173 175 177 182 185 187 190 174 178 173 171 145 109  90 116 125 177 166 168 203 178 222 217 174 211 219 197 204 218 156 205 182 167 179 109  89 129 146 172 182 190 197 187 180 182 175 173 167 154 145 138 117  93  24  18  22  21  19  20  20  20  24  43  56  56  59  61  63  57
 188 199 206 203 202 196 199 200 209 201 191 208 209 215 204 208 182 117 128 118 130 159 165 173 177 178 185 189 188 196 190 189 179 166 132  74  93 152 156 149 110 139 153 140 163 158 117 131 144 134 131 147 109 101  87 120 113 120 154 169 159 179 187 196 198 185 182 177 173 172 165 154 142 134 117  77  15  22  23  18  18  21  20  19  32  52  57  61  65  63  63  59
 200 208 214 222 213 209 208 203 200 216 198 195 201 217 213 209 192 122 126 116 125 152 163 172 177 178 186 189 187 194 194 189 178 172 170 166 125 107 111  87 119 126 134 144 124 129 139 137 133 142 150 132 123 129 142 130 133 151 152 159 167 180 191 196 194 186 184 179 178 176 167 157 138 123 120  60  11  20  21  19  20  22  25  28  40  54  62  66  70  67  67  58
 186 182 189 206 214 218 208 206 204 207 212 209 201 213 212 208 201 123 123 115 119 148 163 174 175 178 185 188 187 189 198 187 178 177 172 176 167 145 136 144 145 140 131 140 145 137 158 187 168 152 145 138 146 145 142 142 151 153 161 171 177 186 196 198 190 189 186 183 178 173 162 149 135 114 105  42  13  21  22  22  24  25  29  37  50  57  59  66  68  64  63  56
 219 201 194 194 195 210 206 196 195 200 192 204 201 205 211 209 209 131 120 119 113 138 160 171 177 180 184 187 188 190 197 187 174 164 175 176 174 165 162 152 143 149 156 160 155 155 149 147 150 152 164 167 152 137 151 157 157 157 160 169 174 184 196 198 190 188 187 181 178 171 158 138 127 110  93  29  20  22  21  22  29  34  38  46  56  58  56  59  62  60  55  52
 206 212 198 207 202 207 204 205 195 200 201 208 210 211 197 208 219 152 118 123 110 128 154 166 175 180 180 186 189 194 192 187 176 168 168 173 175 167 164 168 164 166 168 177 181 178 176 176 175 177 176 168 163 166 165 160 159 161 160 171 171 180 190 191 188 184 185 178 173 163 152 133 119 102  88  18  22  23  19  22  34  44  47  50  52  55  56  55  59  56  50  48
 213 203 211 209 208 210 208 207 204 199 210 207 199 215 203 209 225 174 118 122 113 121 142 161 167 178 180 185 188 192 192 184 178 177 169 172 170 172 167 166 168 171 174 175 176 179 180 181 180 179 181 177 171 175 168 169 168 167 171 177 175 176 184 187 185 183 181 172 167 158 145 129 105 102  67  17  23  23  19  23  37  45  46  48  51  53  52  52  55  53  48  45
 208 209 212 217 200 201 204 201 211 210 212 208 201 208 203 205 221 190 119 119 112 114 132 158 165 177 181 186 188 190 191 186 176 174 172 181 179 183 183 173 168 172 174 173 174 180 183 181 180 181 178 171 169 171 170 177 176 172 178 183 176 174 180 184 181 183 179 167 160 152 142 117  95 109  36  16  24  23  19  25  39  47  46  45  49  53  49  49  51  49  46  42
 198 201 202 203 205 201 192 189 194 211 211 205 205 206 200 203 217 216 136 126 116 104 118 148 160 166 180 183 185 188 180 177 173 179 179 180 178 182 186 186 184 184 182 183 184 185 186 190 186 184 181 182 184 177 175 178 178 177 177 182 178 164 175 183 178 176 178 168 155 140 128  99  96 100  20  17  20  21  21  26  39  49  48  47  48  48  46  46  46  45  44  43
 182 189 207 200 201 216 214 207 202 206 207 208 209 208 207 196 204 228 155 120 127 108 111 143 153 163 177 179 183 182 180 169 175 183 184 185 182 184 186 191 195 195 196 195 192 193 193 194 187 193 195 194 194 187 181 178 176 176 181 179 172 157 172 168 175 173 173 161 144 131 114  91 110  58  15  17  20  23  22  32  42  49  46  46  45  46  46  46  44  43  44  45
 219 195 192 194 185 199 208 220 208 200 213 209 205 205 204 195 197 211 180 120 132 129 107 117 152 168 171 174 178 177 173 165 169 179 180 185 184 185 186 189 189 195 198 198 199 199 201 197 187 193 192 187 189 183 177 177 179 184 185 177 160 162 172 165 169 173 162 154 136 125 106 105 123  65  10  22  22  23  23  35  46  46  43  43  44  44  44  45  44  43  44  45
 203 208 213 196 199 207 197 201 220 219 210 193 201 200 198 195 207 212 204 125 134 143 127  98 137 159 166 175 175 175 167 164 160 171 179 183 182 185 188 189 192 196 199 196 196 194 193 194 191 188 186 188 190 179 170 176 184 188 185 175 158 170 172 172 171 169 162 145 128 113  99 120 123 203  79   6  20  23  27  40  47  44  43  43  43  44  44  43  45  44  44  44
 198 197 202 208 208 209 188 194 205 211 225 214 199 196 203 205 208 208 218 148 121 147 145 104 108 149 158 177 176 179 173 163 156 158 165 176 181 186 188 188 194 192 190 190 190 188 187 191 191 191 190 189 182 179 178 181 184 187 178 171 159 162 163 170 173 166 157 142 122 107 115 125 110 224 225  46  10  20  28  46  46  44  45  44  44  43  43  41  44  45  43  43
 199 190 203 181 189 214 212 201 193 192 197 217 218 205 203 215 212 201 211 190 121 141 144 144  92 112 149 172 178 180 175 160 156 162 166 177 180 187 190 186 187 186 185 186 188 192 195 194 190 186 183 180 180 187 185 185 186 183 171 167 154 149 156 169 169 159 144 134 114 120 132 134  96 192 248 189  18  14  37  45  47  45  45  44  44  45  42  41  45  45  43  43
 206 194 199 183 190 203 210 214 215 195 193 192 195 218 213 202 200 193 211 191 116 142 145 152 140  93 117 152 165 179 178 156 157 154 165 169 167 175 185 187 181 180 179 185 188 195 199 196 189 180 177 181 184 183 182 181 179 177 169 162 150 152 162 168 159 150 143 123 113 134 135 136  89 153 214 251 128   4  41  46  45  45  46  46  47  46  43  41  45  44  43  42
 214 198 197 202 199 198 192 210 215 209 205 195 198 197 201 213 205 212 218  87  69 149 144 145 154 140  98 125 155 169 171 161 150 146 153 165 170 169 180 187 183 181 179 179 188 197 197 196 191 186 184 182 181 175 179 179 176 174 160 153 143 159 166 162 152 148 131 115 127 135 142 135 105 145 179 229 233  57  31  47  45  45  45  43  44  45  44  44  45  43  42  42
 203 196 187 206 192 193 204 193 197 196 196 209 180 201 198 204 217 235 137  21  44 124 144 146 156 157 129  96 126 147 158 165 151 132 139 146 169 171 172 177 181 182 182 178 190 204 200 200 186 189 186 177 173 173 178 178 173 166 146 149 150 161 161 153 143 133 117 130 140 145 140 130 106 146 157 202 254 158  21  46  47  46  43  41  43  44  45  45  44  41  40  41
 211 203 195 199 207 203 184 195 198 214 181 202 204 185 206 196 224 170  28  32  27  76 148 140 151 161 156 131  94 118 143 157 152 136 131 137 158 169 162 167 174 178 182 188 187 189 202 200 190 190 188 171 168 177 180 173 166 156 141 146 151 157 155 146 135 118 126 142 144 149 137 116 115 142 156 173 243 236  63  37  47  46  45  42  44  44  44  44  44  42  40  40
 203 223 214 194 204 214 213 202 188 197 196 182 207 203 200 211 153  36  24  39  32  45 128 147 147 151 150 161 130 101 116 136 145 140 121 128 142 164 159 165 171 176 182 185 185 185 186 187 186 182 175 168 166 177 177 171 162 152 146 140 147 153 149 139 124 126 144 147 142 145 140 111 153 147 166 164 228 254 144  26  48  46  46  43  44  44  44  44  44  42  41  40
 188 186 217 202 198 189 195 216 210 195 192 174 190 204 226 164  36  28  28  35  35  26  91 135 151 148 152 157 157 131  94 115 134 139 129 123 132 140 155 164 172 180 178 180 182 185 180 177 176 176 166 156 168 174 168 163 151 150 147 140 149 151 136 122 127 140 141 145 152 149 137 120 182 160 162 158 214 244 225  49  42  49  43  45  43  43  43  44  44  43  42  43
 206 185 195 222 215 200 197 203 203 213 196 176 180 222 155  29  23  25  29  36  37  21  60 113 145 156 147 157 157 152 127  99 109 124 131 131 129 129 140 155 175 179 172 174 176 172 164 174 173 171 167 161 167 166 158 151 147 152 144 142 147 143 127 124 141 150 150 152 154 139 134 122 165 171 158 164 201 237 254 113  32  45  45  44  43  42  43  44  44  43  42  43
 196 192 195 213 212 197 199 201 180 195 213 211 185 119  21  21  27  28  33  36  35  23  28 100 134 152 152 152 160 165 150 122 100 118 119 129 134 132 132 137 155 164 163 164 167 169 165 163 162 161 163 161 158 153 143 144 152 148 144 144 143 131 120 133 147 154 149 147 143 137 142 121 137 177 163 158 205 236 248 182  35  45  48  44  44  43  43  44  44  43  42  44
 184 196 202 209 211 201 210 206 200 217 228 202  98  15  23  30  29  30  32  35  35  30  10  70 122 138 156 157 161 161 154 156 128 109 127 126 132 138 148 136 128 131 137 141 143 148 148 145 144 146 148 145 140 142 154 158 156 150 140 138 139 127 130 140 151 149 147 148 139 141 141 125 125 174 167 160 225 226 228 227  58  40  44  43  43  43  42  44  44  43  43  43
 188 194 185 186 207 201 200 206 223 181 107  45  21  27  32  29  29  28  30  35  37  31  26  21 103 142 136 154 157 153 158 159 151 120 115 129 132 138 152 154 149 141 140 135 131 132 134 141 139 143 142 140 154 159 162 158 154 147 139 135 127 129 137 150 154 148 145 153 150 151 145 132 103 131 170 170 243 212 228 245  70  34  48  44  45  47  46  44  44  43  43  44
 208 196 201 196 193 206 219 214 122  35  14  24  32  31  33  32  30  28  29  35  36  26  26  20  30 128 133 142 148 151 160 158 159 149 117 125 134 135 140 157 156 160 161 164 165 160 153 151 152 154 155 168 163 157 159 156 152 148 140 133 124 139 146 152 155 147 145 152 153 148 145 134  81  90 159 182 248 201 239 255 102  26  45  43  45  44  45  44  44  43  43  44
 211 218 202 191 188 220 180  61  14  29  33  29  30  32  32  34  33  31  29  35  34  30  31  28   7  88 164 127 139 150 162 157 154 156 150 125 117 135 137 140 144 155 158 163 169 166 163 162 164 165 165 164 158 164 156 154 151 150 143 129 139 150 152 155 154 146 155 151 153 153 150 129  93 104 126 203 234 201 243 255 135  20  40  37  36  37  42  43  44  43  42  43
 210 206 207 212 205 133  28  18  33  32  30  33  33  33  34  34  34  33  32  33  35  36  27  25  18  53 211 178 139 136 151 157 152 155 157 147 127 127 139 137 139 149 156 159 161 166 169 163 163 164 163 159 159 159 152 151 149 144 136 145 152 155 154 156 158 152 151 159 157 156 147 134 106  77 112 221 216 213 247 255 168  24  42  41  35  38  39  40  43  43  43  45
