P2
# Generated by OpenCV 4.2.0
92 112
255
 134 136 136 140 142 143 127  75  72  46  37  46  49  50  47  51  51  46  40  34  38  65  85  71  73 105 104  80  61  53  45  37  52  88  59 109 112 145 117 101  90  57  79  95 103  99 113  96 152 151 141 164 148 132 137 137 145 157 166 213 208 176 123 170 104 102 111 166 148 146 169 123  81  82 134 142 107 130  95 119 156 129 112 102  75 101 126 127 134 135 134 128
 130 132 136 143 144 144  99  54  51  42  43  43  42  44  45  40  38  42  44  40  41  50  77  91  86  90  89  87  80  68  51  44  37  92  58 110  98 132 120  88  92  78  73  83  96 118 115  99 142 150 130 156 145 145 130 139 133 154 157 188 210 197 145 143 128 100  96 157 136 119 138 135  88  77 116 134 104 119  98 117 152 152 134 113  99  79  90 112 134 136 132 130
 132 133 137 141 144 134  62  47  45  46  43  42  39  38  42  41  34  31  35  42  41  45  64  90 102 115 113  87  75  62  64  57  45  63  81  82 123  94 124  95  76 105  83  85  87 118 102 100 138 157 130 144 144 144 133 132 132 135 160 170 187 181 163 145 149 101  97 136 142 100 117 120  86  87 105 115 106 111  98 103 128 147 146 142 112  84  71  72 128 137 129 127
 137 138 138 140 148 126  43  47  45  42  38  34  33  28  38  38  44  41  34  41  48  41  58  74  92 100 110 107 107  90  71  67  67  46  96  72 106  94  95 121  90  92 103  97  89 119 113 107 136 159 146 132 158 141 140 138 142 135 153 166 159 188 165 158 144 116 110 113 142 105 110 120  80  88  91 106 115  97  87  97 106 150 171 164 137 110  99  78  83 133 128 123
 136 137 140 143 148 114  43  46  41  37  34  29  26  29  39  41  37  40  41  37  42  44  46  64  54  84  94  82  78  86  84  76  77  70  80 107  70 104 103  88 105  99  94 107 117 133 133 124 139 157 165 147 153 153 148 146 147 144 151 173 158 170 171 159 148 132 121 123 127 111 104 117  87  94 100  98 108  97  95 103 101 128 137 152 164 159 123  93  60  93 139 131
 131 139 144 149 145 104  41  40  38  35  33  27  26  28  34  46  47  46  44  36  32  41  45  52  53  42  84  91  69  58  62  55  65  73  59 118 115  88 112 115  92  90 110 105 120 136 146 138 150 164 161 168 160 151 153 151 145 152 156 165 166 163 171 159 152 145 129 130 124 122 115 118 107 107 108 101 113  99  95  82  84  90  97 126 144 148 137 107  65  62 117 134
 133 142 143 142 143  97  47  39  34  34  27  27  35  39  32  32  41  51  53  46  40  34  39  47  56  58  54  68  76  70  58  52  49  65  57  79 126 117  86 109 117  96  90 104 115 136 155 152 154 166 162 157 172 162 153 153 155 164 165 162 172 158 170 162 152 149 145 146 139 134 122 129 118 113 117 107 110  96  95  72  73  73 108 149 159 138 109  77  52  46  82 133
 136 137 138 139 141  79  54  35  36  30  29  40  41  33  30  26  30  40  51  59  53  38  37  40  41  59  65  61  69  89 100 108  91  87  95  91 103 116 119 122 117 122 114 128 136 140 157 165 167 170 168 163 169 178 166 159 167 167 168 168 173 166 167 167 157 161 167 154 149 137 120 131 122 132 121 112 112  86  86  91  97 102 123 157 173 164 142 126 108  72  46 109
 140 136 131 129 105  51  43  35  35  30  42  38  30  28  27  27  26  35  35  47  65  63  50  51  61  65  59  72  71  71  66  78  89  92  90 103 102 114 119 128 131 130 130 133 136 147 161 167 169 173 167 167 174 178 178 171 172 170 171 167 166 172 167 171 171 166 167 166 160 144 130 130 145 135 122 117 107  94  94 106 103  85  94 106 152 182 171 147 114 102  66  57
 143 144 147 100  46  40  41  37  35  42  38  28  31  32  28  26  28  32  38  39  50  54  67  64  59  63  64  60  66  65  72  76  75  80  91 106 115 118 131 116 118 129 143 141 148 158 172 180 174 173 177 178 179 178 180 174 176 173 175 169 165 169 169 170 177 175 172 179 159 152 155 150 145 147 135 132 114  98  96 103 101  92  96 119 159 182 189 177 146 101  82  57
 144 145 152 108  45  47  37  45  45  42  36  39  38  31  30  27  30  33  37  40  40  40  42  49  64  67  52  60  72  72  80  92 100 111 128 132 132 129 130 144 140 142 149 155 163 170 179 183 187 181 184 188 185 182 176 184 192 190 181 181 179 174 175 172 180 176 173 171 162 172 169 158 156 154 140 147 123 112 112 106 103  95 107 113 121 153 183 195 191 147  88  73
 143 147 152 105  58  54  45  47  43  41  44  42  37  34  32  30  28  35  39  43  43  45  47  45  60  64  63  70  73  87 100 106 116 123 118 118 119 121 129 141 148 160 165 170 171 174 183 188 189 189 196 192 189 193 193 197 199 193 189 189 183 183 184 178 181 176 177 173 168 168 166 166 157 153 162 161 146 131 124 121 106  94  83  84  90  86 132 166 167 146 106  77
 149 148 142 135  84  48  51  47  46  49  46  40  42  39  39  34  34  36  40  40  42  43  45  48  58  52  57  67  79  89 101 106 102 114 120 126 137 141 140 148 153 149 159 163 163 177 182 183 193 197 200 200 190 199 206 204 199 194 191 195 194 191 193 185 184 185 185 181 171 169 167 168 158 161 167 163 149 140 132 118  96  63  55  59  91 110  91 111 142 140 122  86
 148 148 153 137  76  56  49  49  55  50  42  47  42  43  40  38  38  41  43  41  44  46  49  51  58  55  64  76  88  96 104 110 109 116 127 143 141 142 151 158 157 157 162 171 178 184 181 186 190 197 199 201 191 196 205 208 206 200 192 194 193 193 196 194 195 191 186 176 175 170 163 171 170 166 166 156 160 163 132 118 123  92  70  74  66  94 137 106 108 124 104  97
 146 150 144  90  63  54  46  52  59  45  45  44  55  52  42  41  42  44  42  46  48  49  51  50  58  62  71  81  92 102 108 118 125 135 144 154 154 155 162 161 167 168 163 175 186 188 186 184 185 193 191 195 195 202 206 202 201 190 193 193 195 195 196 200 199 193 188 184 178 167 170 169 175 167 168 165 167 172 155 132 130 133 133 143 156 137 132 142 104 106 113  80
 151 158 101  66  63  48  46  56  53  53  51  56  53  51  53  48  48  46  45  47  51  52  51  50  57  67  75  84  88 103 111 124 132 142 147 152 158 165 171 168 177 179 176 181 185 187 188 185 185 192 195 200 194 197 195 189 182 184 194 195 197 193 198 200 199 198 195 186 174 173 170 160 168 166 167 165 170 172 165 148 137 127 120 132 161 190 190 179 155  97  98  95
 157 134  66  65  49  43  50  58  63  64  59  49  62  64  57  48  50  49  48  49  52  55  57  56  62  67  73  80  91 103 112 130 133 142 149 147 155 164 173 175 176 179 184 189 190 181 183 188 184 181 195 191 192 191 187 183 189 191 191 196 194 198 199 200 196 200 200 192 179 181 171 163 166 163 159 164 173 175 170 166 154 136 108 104 144 164 173 192 190 146  77  83
 155 107  58  50  42  43  57  64  65  54  48  57  61  64  66  57  50  49  49  49  52  57  61  64  65  69  71  87  96 106 113 123 134 139 148 154 156 164 163 167 181 182 183 187 186 182 182 186 184 184 188 192 189 188 194 189 187 192 195 203 201 204 202 201 197 200 204 194 189 184 176 165 166 161 160 168 172 175 175 175 168 151 139 130 132 170 177 170 171 150 105  63
 158 103  56  43  40  50  69  76  58  56  69  64  68  71  70  57  52  49  49  51  54  62  63  69  70  72  76  85  95 105 110 125 139 149 149 151 153 157 160 172 182 184 183 184 184 179 186 185 181 187 188 186 182 192 191 186 184 194 197 198 200 202 206 205 203 202 201 197 189 182 172 168 170 171 167 168 172 176 178 179 175 159 143 135 162 185 189 183 151 174 129  74
 157  87  59  41  44  61  68  76  63  69  65  65  73  78  68  54  52  49  50  53  59  64  66  69  75  71  76  87  91  95 108 120 133 147 143 140 143 146 160 168 177 178 180 181 187 180 188 190 178 178 187 179 183 189 187 187 189 197 192 194 203 202 205 207 200 200 199 198 191 185 176 164 170 168 169 169 168 174 176 180 174 169 166 160 130 174 206 196 165 139 149  89
 154  69  46  41  57  67  65  64  70  62  54  62  73  73  63  56  55  54  52  54  62  68  73  75  71  73  80  89  92  97 114 124 136 138 136 150 154 159 164 169 176 176 178 184 179 182 190 187 180 170 178 180 177 182 187 187 191 192 194 195 197 197 199 202 200 200 197 197 193 182 174 171 171 169 173 168 167 172 176 172 166 165 171 198 163 128 194 210 181 128 103 106
 141  76  46  47  62  71  76  68  64  53  56  63  73  74  64  59  55  53  54  53  64  72  73  71  73  78  81  86  87 105 116 130 134 139 147 152 157 159 158 171 175 176 181 184 182 192 190 182 175 180 179 173 173 177 189 187 192 189 192 194 191 199 199 199 203 200 192 192 190 186 177 174 173 170 175 164 169 175 177 175 169 162 155 183 220 159 159 205 194 163  95  82
 114  93  50  56  64  72  72  66  54  56  64  65  70  62  53  54  55  54  54  57  64  72  74  72  76  79  78  83  87 101 114 128 128 136 147 148 153 165 163 169 174 174 183 179 184 193 186 178 174 177 180 173 175 178 188 190 198 197 194 193 195 200 203 204 201 193 195 190 184 189 180 173 176 172 175 173 170 169 175 181 180 174 165 161 210 213 154 200 195 170 124  69
 114  73  42  61  74  71  66  66  61  53  53  59  56  51  50  52  54  55  56  60  65  75  77  71  78  82  76  81  88  98 101 110 122 143 141 142 154 161 165 167 177 174 177 179 179 183 187 178 174 169 167 174 173 169 184 189 191 199 199 192 189 194 200 198 198 197 190 183 183 186 184 175 176 172 176 172 173 172 179 180 182 179 171 173 193 231 162 167 202 179 139  81
  92  46  48  68  73  67  71  60  47  48  54  56  57  57  53  54  57  54  56  59  70  78  81  80  82  77  81  84  86  96 102 105 120 140 143 142 158 163 165 164 170 170 178 178 177 181 185 181 174 173 174 176 176 178 182 184 188 190 193 193 190 192 197 191 192 194 192 193 192 185 180 177 173 175 165 168 173 177 180 183 181 178 172 175 190 221 214 149 208 188 147  78
  61  44  57  71  69  70  67  55  59  66  63  58  60  58  54  56  59  58  57  63  73  78  86  85  84  82  83  82  86  94  94  97 121 134 141 146 151 158 159 167 174 174 174 170 171 179 186 182 174 173 178 179 177 176 182 189 188 188 191 188 191 190 196 191 189 187 193 191 192 187 180 169 174 178 173 170 172 182 176 183 181 179 181 181 198 209 226 172 186 173 145  78
  43  48  61  69  61  70  65  71  75  64  57  59  58  57  56  55  57  63  60  68  73  78  90  83  84  92  85  77  80  91  95  94 110 118 120 130 138 141 146 153 166 168 163 158 161 168 174 170 160 161 161 164 167 164 169 178 184 190 191 188 195 191 198 194 192 194 193 190 193 192 187 175 177 183 181 178 176 182 175 185 186 182 182 195 201 214 212 181 172 172 135  97
  40  54  63  66  60  75  67  71  58  53  55  57  55  56  54  56  62  64  63  71  73  85  93  88  93  96  98  92  93  99 110 119 129 130 134 139 143 152 150 150 160 166 164 155 149 156 154 155 151 157 155 149 155 157 163 160 164 168 168 176 183 185 184 192 194 191 189 188 187 189 192 185 179 186 185 176 178 184 179 182 189 192 177 202 211 221 210 184 171 176 128 113
  43  57  59  60  68  61  58  58  52  50  52  56  55  53  55  59  68  67  66  74  77  87  96  98  93  96  99 101 100 102 105 119 132 140 149 157 162 170 170 179 183 186 190 184 191 192 177 176 169 170 174 171 177 187 195 195 191 189 182 177 180 182 178 183 187 189 187 186 186 194 195 192 187 184 183 184 184 180 179 183 191 200 197 197 221 225 205 183 162 175 129 101
  43  59  56  62  72  63  65  58  53  50  51  58  55  52  56  63  70  70  72  75  80  90  99 104  94  92 102 111 106 105 102 114 127 136 152 158 158 159 164 167 175 187 181 186 195 199 194 196 181 174 163 166 170 188 191 190 197 194 196 201 206 203 201 202 201 198 201 200 200 195 193 198 191 182 189 185 185 179 180 185 191 194 213 195 217 228 206 182 156 164 137  87
  46  57  48  69  68  61  63  52  45  49  62  58  50  54  53  63  74  72  72  75  84  91  98 103  89  93 108 116 117 116 110 122 134 142 154 165 167 164 166 165 174 181 177 180 188 194 199 195 189 177 158 160 172 184 191 187 196 194 195 196 198 206 207 207 203 200 203 204 205 201 200 197 195 186 185 186 185 175 174 185 195 197 209 204 201 228 208 182 159 155 140  87
  56  51  56  81  63  64  54  39  46  59  61  51  52  52  54  64  70  72  75  77  85  88 102 100  86  96 107 110 118 116 116 131 136 143 149 160 167 167 169 171 184 180 184 175 178 187 194 189 190 168 159 168 177 180 185 188 184 188 192 197 204 207 207 210 208 207 205 202 200 201 201 201 198 192 190 193 191 179 174 184 196 204 204 223 204 222 207 184 159 151 146  94
  79  54  62  78  65  67  48  39  48  56  52  51  52  52  54  64  66  71  73  79  81  93  98  93  90  98 103 111 104 111 127 131 147 152 147 157 161 164 168 179 183 181 185 179 181 183 184 196 180 174 163 168 175 178 187 194 190 193 202 207 205 210 212 211 206 205 208 206 204 202 200 201 195 189 192 193 193 185 178 182 193 201 207 229 216 212 208 179 147 142 143 106
  58  52  71  62  70  61  47  42  46  54  55  52  53  52  60  66  66  69  76  80  75  89  93  90  98 100 102 121 111 108 118 128 140 152 148 159 165 168 171 181 190 197 196 187 183 182 188 188 177 183 175 169 173 176 188 196 201 202 206 210 209 211 213 211 205 206 207 207 204 201 202 198 195 192 193 192 188 188 180 181 199 194 200 228 220 207 194 178 150 127 127 110
  48  42  69  63  73  58  47  35  43  51  58  53  53  55  59  65  64  67  73  78  84  92  90  92 109 116 112 113 114 113 117 133 135 135 142 156 165 167 176 188 195 201 197 188 190 192 196 185 189 185 171 170 175 180 188 196 200 208 205 207 211 211 213 212 209 209 206 206 207 203 199 201 197 193 191 192 187 182 181 185 196 191 186 218 217 202 183 170 157 123 106  97
  49  44  66  65  71  59  40  34  46  52  55  55  50  55  57  58  60  65  66  79  90  88  86  90 112 118 113 105 110 116 113 128 131 139 138 150 161 168 176 184 194 206 204 195 202 203 196 182 193 186 168 172 175 180 192 197 202 205 207 211 211 217 215 211 210 208 206 208 207 205 198 197 194 194 193 193 188 184 182 184 190 190 174 204 211 201 179 159 146 122 105  82
  69  48  65  68  63  55  39  36  46  57  53  55  50  54  58  56  54  63  71  80  83  80  80  61  81  94  94 103 112 112 120 120 131 135 138 145 150 163 171 176 186 197 204 201 202 202 193 190 194 184 172 171 182 177 186 192 198 201 209 213 212 211 213 211 209 210 207 207 203 203 202 197 196 193 192 188 184 180 185 187 185 187 162 180 211 193 178 159 139 107  98  82
 115  70  66  64  56  55  42  34  45  57  55  53  53  53  56  56  58  63  74  78  73  64  53  53  57  58  67  93 106 105 118 115 120 131 133 134 136 150 152 162 177 189 197 199 198 196 191 191 191 185 171 170 175 167 175 184 187 196 202 205 205 207 204 210 207 205 209 202 191 187 195 199 193 192 194 189 181 181 187 186 184 187 161 155 198 184 176 157 132 103  85  82
  92  72  64  53  52  51  41  35  45  53  56  53  51  56  57  54  55  59  65  60  55  49  51  54  58  56  55  57  73  74  80  90  94 120 140 134 133 145 149 156 162 186 188 192 197 189 188 189 180 183 170 168 177 170 157 162 174 181 186 188 190 196 200 201 196 190 183 169 159 165 192 202 196 191 194 190 178 179 189 183 183 186 161 142 176 174 165 149 127 100  85  87
  83  63  57  46  53  49  35  37  47  49  55  52  49  51  53  54  52  52  52  50  54  57  56  58  66  70  54  47  46  49  56  62  56  69  98 119 136 139 140 143 153 171 176 186 190 181 183 191 176 173 164 160 175 173 154 152 169 173 178 187 183 181 182 169 165 156 154 149 156 162 159 179 192 188 189 192 178 179 186 182 179 182 161 139 158 159 149 146 130 101  81  77
  85  64  50  49  54  51  41  43  46  50  52  52  49  53  52  53  51  49  52  55  58  64  63  66  70  69  63  51  44  44  41  44  42  44  51  74  96 112 124 128 135 151 166 176 172 175 180 193 171 162 158 164 169 160 125 125 136 129 140 136 122 126 130 132 133 132 155 169 162 160 158 144 149 170 185 190 184 179 189 176 174 182 158 139 150 141 134 142 132 105  87  78
  62  67  51  49  49  47  45  42  51  51  52  52  51  52  56  54  50  49  53  57  59  63  68  69  76  76  83  81  68  59  53  45  46  50  55  67  81  92 121 126 117 132 162 167 161 166 177 191 175 141 153 165 165 152 113  99  95  96  93  85  79  96 104 103 116 145 160 163 170 168 167 164 155 148 172 186 183 174 185 181 180 184 159 135 147 134 121 132 126 108  86  90
  60  63  50  45  44  48  45  41  52  51  52  51  53  53  54  52  52  54  56  58  60  67  74  82  88  99 104 110 111  90  71  58  54  56  62  66  77  82  87 107 116 133 157 157 153 160 173 183 185 133 137 160 155 150 126 119 115  99  83  79  81  88  93 106 131 144 142 146 157 161 164 163 162 162 164 176 184 177 182 179 181 186 156 135 147 134 116 121 126 123 101  87
  91  75  54  45  44  51  44  40  52  54  53  53  54  54  53  52  56  51  54  58  61  68  72  84  98 113 113 120 135 122  94  71  54  50  56  55  59  68  72  84 104 129 143 141 146 160 175 177 189 163 137 154 155 141 128 121 118 104  98  96  99 104 114 125 131 144 157 154 160 176 174 177 179 171 163 171 184 179 180 183 184 186 161 129 142 144 117 121 116 120 131 116
 130  95  59  48  53  51  42  42  52  54  52  54  55  54  59  57  53  53  52  56  57  62  69  76  83  94  95 100 101  94  91  70  52  47  49  52  51  51  57  66  86 109 125 138 149 160 174 177 174 177 154 148 144 127 117 115 110 107  95 101 117 128 146 152 146 152 161 162 163 170 167 168 176 178 179 170 181 180 176 182 183 181 165 131 138 153 118 113 127 128 131 141
 137 113  69  54  53  49  47  45  53  56  51  52  54  56  56  56  49  49  49  52  54  63  59  51  45  37  33  32  30  41  55  70  66  44  45  53  50  46  45  53  67  95 114 138 147 159 177 181 165 162 153 152 136 113 108 105 107 109  96  93 110 123 142 157 177 183 182 165 158 161 165 171 168 173 177 175 176 182 184 184 182 183 163 136 132 133 140 132 137 158 182 180
 154 131  68  44  54  48  46  44  52  55  55  50  52  55  53  53  48  46  45  48  56  49  36  34  38  31  29  22  68  74  45  57  56  62  39  45  54  47  40  45  54  70 101 137 156 173 192 189 180 167 159 145 111  98  96  98 100  86  65  53  62  59  55  63 100 139 162 181 174 159 158 164 161 159 165 163 176 177 184 183 179 185 167 145 130 107 122 144 160 180 186 191
 165 159  73  43  53  49  48  46  53  51  52  55  56  58  57  53  48  43  43  53  49  36  32  56  65  42  45  22  53 175  97 133  73  45  63  46  47  48  42  39  49  59  94 140 167 188 202 202 194 185 172 131  93  87  87  85  66  46  39  44  38  28  30  36  22  33  47  79 124 151 142 142 139 135 151 162 171 184 186 183 186 182 173 162 148  97  78 103 132 155 166 180
 154 159  86  37  48  50  55  47  55  51  52  55  57  65  71  63  56  46  42  41  36  43  62  76  77  45  49  35  26  61  68 170 160  56  51  70  52  47  43  42  49  56  85 152 187 211 220 216 211 194 175 125  92  87  79  67  66  58  74  82  41  36  27 121 124  65  90  48  45  87 141 135 121 116 132 155 178 187 182 185 185 177 171 170 162 119 124 128 128 159 167 165
 156 155 101  41  52  54  59  47  53  52  51  52  60  68  67  66  57  51  45  39  40  55  82 104 106  70  41  39  38  33 117 197 183 120  48  51  70  64  46  43  50  59  83 147 181 206 226 218 213 200 181 143 110  94  88  92  78  60 114 102  54  50  17  64 115  67 173 136  68  55  97 151 150 142 140 156 176 181 177 181 177 176 170 180 151 129 138 129 134 143 158 157
 155 153 112  46  52  57  57  47  54  53  53  56  58  70  78  84  73  67  58  48  47  58  76  89 112 118 106  92  86 122 164 154 136 118  92  64  59  85  70  44  51  59  81 139 182 206 217 218 210 205 191 189 171 145 100 108  89  85 119 104  56  52  40  34  23 117 196 167 147 119  88 113 165 175 187 191 189 184 174 175 178 175 167 174 147 144 140 127 139 140 152 163
 155 147 131  54  45  63  65  46  54  55  52  53  59  72  78  80  79  77  72  68  53  56  70  82 102 107 116 128 137 148 144 139 153 154 150 130 111 102  75  48  55  62  79 131 183 209 209 212 208 211 196 196 196 171 145 125 120 132 132 136 122 101  89  98 130 184 185 191 177 181 179 159 166 184 194 192 185 181 178 177 170 168 169 167 131 130 131 140 121 134 146 150
 156 155 142  51  31  60  68  47  55  55  53  54  61  66  75  77  85  87  82  83  76  60  59  67  84 103 104 116 134 149 162 165 168 145 129 111 114  96  62  57  62  68  88 143 184 204 211 206 207 212 196 196 183 158 137 118 110 126 139 143 151 153 165 176 193 196 207 201 187 201 203 199 193 184 180 181 186 187 179 179 175 168 167 161 135 120 133 162 107  89 141 137
 155 156 123  38  27  41  66  53  58  54  53  55  59  62  72  82  93 100  95  94  83  81  76  69  69  74  85  98 106 118 132 138 133 119 117 124 116  83  68  67  70  74  98 145 181 195 206 206 204 207 200 201 201 159 118 105  93 102 123 137 150 156 168 173 190 195 188 184 196 197 193 195 203 205 196 194 194 185 178 180 178 169 168 149 116 135 144 170 104  85 133 139
 159 156 110  33  27  31  63  59  59  54  53  57  61  68  77  87  97 108 115 108  92  90  96  91  77  75  81  88  88  94 104 106 117 129 131 120 103  87  78  73  72  81 101 145 178 196 207 209 203 205 204 202 208 196 160 133 109  92 103 111 122 132 147 156 165 178 178 187 193 195 200 206 200 199 195 191 194 190 189 184 177 172 162 136 124 153 161 161 145 133 130 122
 162 158 116  39  29  27  51  61  61  57  53  57  64  74  81  88 103 111 118 117 118 113 106 116 121 102  98 105 109 113 116 122 132 136 134 118 110  94  87  71  72  86 108 134 168 197 207 211 204 200 203 207 208 210 203 163 139 118 105  98 105 114 124 136 149 159 160 167 176 187 188 188 206 197 191 194 189 190 188 179 179 169 156 138 146 161 170 167 180 138 136 117
 163 161 116  46  35  31  41  61  61  54  57  58  68  73  87  97 102 106 116 127 136 134 128 132 155 137 118 120 124 133 143 137 142 143 132 123 107 104  86  74  75  87 112 141 171 202 215 212 205 202 203 209 209 213 214 202 174 149 144 121 111 108 114 124 127 144 160 180 188 189 195 191 192 198 192 195 192 184 182 170 177 169 155 153 149 170 183 172 186 155 154 147
 163 164 106  41  45  36  40  62  61  53  56  56  61  66  80  96  97 107 112 127 144 144 148 162 164 164 147 130 144 146 152 150 148 151 143 120 108 105  80  70  74  87 115 145 178 204 219 209 199 197 200 212 211 209 207 211 210 193 185 179 172 161 166 170 172 184 197 204 197 197 194 195 201 189 194 194 189 181 182 174 170 172 167 139 142 162 190 169 179 165 157 160
 164 170 105  40  47  37  41  61  61  53  52  55  61  73  84  93 102 108 111 128 141 152 163 167 170 175 168 154 145 151 148 145 152 151 141 122 120 103  81  69  70  89 119 150 182 205 216 208 200 197 201 210 207 204 205 213 212 205 200 202 201 192 193 190 179 192 196 201 205 203 199 197 203 202 203 191 187 182 180 177 174 167 166 142 134 149 184 170 168 168 150 157
 167 172 118  47  43  37  45  58  59  54  53  57  61  70  84  92  99 101 114 126 141 150 168 169 173 171 162 162 150 149 146 148 146 140 132 124 116  98  83  75  73  93 124 146 178 206 215 205 204 202 200 207 204 207 207 207 205 205 200 202 202 195 192 186 182 194 195 203 207 204 203 201 201 202 208 204 187 185 182 171 170 159 152 150 139 134 170 169 149 161 152 158
 164 170 107  38  39  37  43  55  58  55  52  59  61  70  83  91  96  96 111 121 136 147 160 168 174 165 158 157 147 147 147 146 131 131 128 124 111  95  91  75  71  91 128 156 180 205 213 201 198 195 201 206 207 207 210 210 205 204 201 197 201 199 196 190 190 199 204 206 210 213 208 196 204 206 198 194 187 178 170 169 167 156 166 136 131 140 179 161 142 153 155 158
 163 158  59  37  39  36  43  54  59  56  51  59  59  68  83  88  92 103 105 113 129 147 147 161 165 172 162 152 141 136 144 141 121 123 124 126 107  95  86  77  81 104 141 168 183 203 207 200 201 205 212 215 212 214 217 216 213 206 206 203 205 207 202 199 199 209 210 213 216 211 209 206 208 203 190 189 189 176 168 168 167 159 158 111 116 155 184 144 142 154 156 154
 170 134  41  41  39  36  39  54  59  56  50  51  58  64  74  82  90 109 109 110 125 140 150 157 165 163 150 149 140 135 140 133 129 133 117 110  99  80  75  73  94 118 157 180 191 210 209 194 202 209 214 212 212 214 217 208 211 211 210 207 209 210 209 202 204 210 212 217 214 211 213 209 203 203 189 185 179 179 172 168 163 156 161 140 156 187 160 136 144 157 156 155
 172 129  39  42  40  36  38  54  59  56  52  50  58  65  70  77  86  98 106 110 120 137 146 156 160 154 141 140 136 136 133 126 128 130 109  91  82  69  63  70 103 126 158 187 191 214 213 201 198 209 208 205 199 198 209 213 195 208 214 213 214 212 210 209 210 212 212 215 215 215 216 207 199 198 190 186 178 174 171 167 158 154 173 196 191 181 149 138 140 156 152 154
 166 149  50  39  40  39  43  52  56  56  53  51  56  61  73  76  81  97 104 110 119 137 142 153 157 152 138 135 133 135 125 131 129 118 103  73  65  62  58  72 105 122 151 179 194 203 208 203 198 205 206 192 177 180 187 195 194 201 203 213 213 216 210 208 215 215 216 217 214 216 210 204 201 199 191 188 189 176 170 167 153 154 183 211 197 173 153 134 136 155 158 156
 160 169  94  35  44  43  42  55  58  55  50  51  55  60  71  76  80  93 103 114 123 127 136 154 153 149 141 141 138 138 134 121 122  99  75  54  65  57  55  71  95 120 157 180 192 198 212 205 198 201 208 197 159 145 153 164 166 186 193 208 211 213 211 211 213 217 215 214 215 216 206 190 199 192 184 185 184 172 167 162 154 161 191 199 199 187 156 115 135 156 160 157
 156 161 150  55  42  40  39  53  59  56  51  52  52  59  69  71  78  87  94 107 123 127 135 151 151 142 135 135 141 138 128 121 105  85  51  59  74  61  59  68  90 117 152 176 192 211 218 208 195 197 207 209 183 115 124 157 144 161 184 199 205 207 209 211 212 218 217 213 214 211 201 192 195 183 184 177 184 174 163 160 151 159 185 194 197 189 165 130 154 156 159 156
 158 157 169 128  41  35  36  50  57  57  53  52  52  58  67  66  77  84  94 100 114 129 136 144 146 140 141 136 129 138 127 119  99  67  50  74  74  63  66  75  88 112 143 174 199 215 219 214 201 199 202 203 207 143  94 117 122 145 165 182 190 200 203 210 211 217 219 216 216 209 199 192 182 184 186 177 176 170 163 161 157 164 187 195 193 191 174 160 159 155 151 156
 158 160 163 172 123  56  45  55  57  57  53  50  51  54  64  66  71  79  90 102 117 119 130 145 145 144 138 137 131 118 106  87  71  46  53  74  67  64  64  73  90 114 145 167 193 206 216 220 206 198 201 203 204 167  86  77  89 113 144 161 173 190 196 204 211 214 217 217 214 204 197 187 185 188 182 180 172 168 156 161 168 170 194 194 190 189 176 163 160 155 150 159
 157 159 163 167 174 162 146  76  54  56  51  49  50  53  58  68  73  77  91 100 111 111 118 141 140 146 138 131 129 111  90  68  52  40  57  67  63  61  56  68  94 116 150 164 178 189 210 218 205 190 194 199 201 169 105  62  68  88 115 142 155 174 188 194 207 205 212 213 212 203 197 188 187 184 173 172 171 157 157 169 164 185 200 193 190 186 174 165 164 154 156 159
 158 160 162 166 166 170 166  81  51  58  51  50  52  53  59  60  72  77  93  96 106 110 115 131 134 134 140 132 126 107  80  62  52  39  52  63  62  58  55  57  78  99 135 145 153 165 179 192 194 190 188 191 193 179 143  87  53  74  94 114 141 162 178 183 196 201 204 207 206 197 198 189 186 188 175 170 169 163 157 168 155 185 203 187 189 180 156 147 163 143 146 157
 160 160 162 165 163 164 167  91  48  55  52  51  52  55  57  63  69  74  87  96 102 112 114 126 135 127 140 131 115  95  74  68  54  39  46  58  53  45  39  49  60  81 114 132 125 143 163 177 167 123 138 163 185 189 176 138  71  55  77  94 116 146 162 169 177 191 194 191 190 189 190 188 185 183 173 173 174 160 158 167 156 170 191 187 179 168 128 133 163 159 144 145
 160 156 160 163 164 164 170 108  49  53  52  53  56  55  57  60  63  72  83  91  98 100 106 110 116 123 124 122 104  87  80  73  56  42  42  47  40  28  25  36  50  67  90 102 106 124 144 159 118  67  90 157 201 200 192 175 135  63  57  81  98 120 148 154 169 180 189 180 182 186 184 185 180 178 165 161 170 155 158 161 159 155 176 179 165 111 132 151 160 160 159 161
 159 156 160 162 167 165 169 128  53  55  51  51  56  53  56  56  62  71  76  87  99 102 103 103 102 113 110 105 107  98  84  74  62  47  44  42  39  38  41  44  45  57  73  80  80  91 120 144 144 172 181 204 209 202 201 194 172 120  56  63  83  96 125 140 155 163 181 183 182 180 175 177 179 172 168 164 164 161 164 164 151 120 146 146  94  65 163 166 160 160 159 159
 159 157 158 161 166 165 167 137  56  55  51  53  53  51  56  60  59  69  77  80  92 102 108 111 112 110 114 112 111 101  89  80  69  57  50  47  43  42  42  41  41  44  63  67  77 117 151 160 170 195 213 211 211 208 207 199 184 160 108  55  65  85 104 125 144 156 164 172 169 171 178 171 174 173 164 169 164 165 166 166 139  72  80  61  35 124 179 165 163 163 158 155
 156 155 155 161 164 160 167 152  57  51  51  52  50  52  55  54  55  62  74  82  89  97 102 109 111 112 127 121 109  98  89  87  74  60  55  51  49  48  48  47  46  57  80 123 136 156 167 181 197 204 209 205 212 204 200 201 193 184 164 100  56  70  91 111 127 143 153 160 163 167 170 170 167 165 166 167 169 169 164 163 125  43  37  22  80 176 170 166 162 162 158 156
 149 151 154 159 161 157 164 159  64  51  53  51  51  54  58  55  59  68  70  78  91  97 105 107 115 126 123 120 110  89  84  77  70  60  61  60  61  61  59  57  59  77 109 132 152 146 165 189 198 198 200 204 211 202 199 206 196 187 177 144  84  65  80  90 111 124 141 155 157 154 155 171 162 154 166 169 171 166 164 171 123  37  30  75 154 173 164 165 160 160 159 156
 151 155 157 159 158 155 160 165  76  49  54  52  52  56  56  60  62  73  72  82  97  97 108 124 137 145 123 117 109  98  82  69  64  64  69  71  64  68  72  66  87  98 108 121 151 140 169 193 201 192 194 202 202 207 198 194 192 181 176 177 131  69  83  99 109 123 134 147 154 157 163 167 167 167 169 166 170 167 169 166 114  72 124 161 165 163 164 166 160 157 156 155
 157 160 160 162 161 158 158 168  86  49  52  53  54  58  55  61  60  73  78  91 102 101 107 137 146 129 111 116  96  86  78  80  70  74  71  72  79  68  70  77  93 121 133 131 152 120 155 183 194 195 201 202 193 197 191 189 187 181 183 186 177 102  76 116 132 128 138 148 156 161 151 163 171 165 169 167 169 165 166 159 161 171 169 160 162 162 166 166 159 153 151 156
 156 155 157 161 164 162 161 171  98  45  50  51  51  57  57  62  66  74  83  98 102 104 108 136 144 121 101 100  95  76  79  76  79  89  84  82  95  80  75  86 107 125 134 125 134 122 152 167 175 187 186 188 195 193 183 179 185 186 177 172 184 150  78 108 150 145 146 150 152 165 155 159 167 168 171 170 172 170 166 158 170 168 157 157 159 163 167 163 158 154 151 156
 155 153 153 156 164 162 159 171 119  44  51  50  52  56  58  63  74  82  88 101 107 104 126 140 125 109 105 101  92  73  77  77  77  85  92  89  89  89  83 102 128 140 141 134 120 112 156 165 168 183 174 181 191 200 192 190 184 185 179 179 179 180 102  86 142 170 159 161 165 173 177 169 166 167 170 169 165 167 163 161 167 162 159 159 159 162 166 166 163 157 156 156
 158 155 151 159 166 164 163 167 138  53  49  52  52  55  57  64  79  92  94 113 112 121 142 140 109  94  93 102  91  74  72  84  89  87  92  96  89  94 103 122 152 177 170 160 152 133 166 184 187 191 198 200 198 201 201 197 201 190 181 161 165 184 114  72 134 176 180 172 175 176 176 172 169 169 168 169 163 165 158 162 164 163 165 162 160 162 163 169 170 162 160 159
 159 153 149 155 160 163 166 169 158  64  49  53  54  60  61  60  75  89 103 118 112 139 156 126 107 105 100  94  89  82  82  91  95  88 104 110  99  99 108 121 133 161 179 183 173 163 164 157 142 157 165 175 185 192 198 204 204 189 184 171 173 192 147  68 135 183 182 174 177 182 180 181 178 174 161 165 162 170 158 163 166 165 169 164 161 166 164 168 171 162 162 160
 157 152 150 152 154 160 166 167 173  87  46  53  54  56  57  61  78  89 107 113 108 143 151 122 112 111  96  88  65  57  66  65  59  57  61  69  69  71  75  82  81  91 105 119 131 123 123 116 113 120 121 126 126 124 136 150 156 146 116 133 148 177 179 102 139 188 188 182 184 188 184 184 182 180 172 164 161 160 159 172 170 166 166 167 164 165 161 164 164 159 160 158
 153 152 150 149 153 157 160 161 174 119  46  55  55  55  55  61  79  84 101 119 100 133 152 131 128 128 104  80  40  34  36  33  32  34  40  47  48  51  59  65  68  68  67  62  69  74  86  99  94  79  79  87  86  81  81  77  91  98  66  83 130 164 182 150 161 191 193 188 180 191 189 183 178 181 168 166 163 151 166 173 169 163 163 166 165 162 158 159 156 155 157 158
 152 151 151 150 154 158 158 157 168 161  60  51  53  54  54  56  70  86 106 116  98 127 140 127 134 134 108  83  60  58  57  58  62  68  73  90  96 111 120 123 117 115 108  92  87  94 101 111 117 124 139 159 169 162 151 156 181 192 153 117 142 173 176 167 181 192 195 192 183 189 186 179 175 179 171 162 159 156 177 173 168 162 164 166 164 160 157 153 151 150 153 156
 149 148 148 149 151 154 158 161 166 178  94  44  53  55  56  60  68  81 102 104  95 126 144 122 119 127 111  83  75  73  67  69  80  93  89 106 110 124 153 166 178 172 174 175 171 166 160 166 183 200 197 189 184 183 183 188 189 190 183 143 152 175 179 172 191 200 192 195 192 190 181 183 180 181 173 156 155 168 179 180 175 166 168 170 165 159 159 159 155 153 154 155
 148 146 146 150 150 152 157 161 164 174 140  48  51  54  57  61  60  72  93 103  98 119 146 128 114 119 102  82  84  86  72  64  62  72  86  99 113 127 140 161 178 178 183 183 182 179 181 182 186 185 180 180 185 189 188 182 193 200 195 162 147 172 177 174 191 196 192 194 192 186 186 185 184 182 170 152 153 170 175 179 177 171 168 169 165 159 159 160 161 159 158 157
 146 143 144 145 148 153 156 157 158 166 174  86  47  56  54  58  63  70  85  96  99 116 131 127 118 113 100  87  86  94  86  80  67  58  60  70  89 107 114 133 146 155 156 167 180 181 187 193 195 191 190 188 184 180 188 194 204 204 201 183 161 166 172 168 174 191 195 199 187 183 184 183 181 178 160 147 163 176 176 175 174 171 167 169 166 163 164 162 163 164 160 159
 147 144 143 144 147 152 155 154 157 166 174  86  47  54  53  58  61  68  79  85  95 117 120 115 109 101  91  90  90 100  97  98  93  73  57  56  65  83  90  99 105 112 111 115 129 136 143 163 175 180 178 177 174 183 196 199 204 203 205 198 174 173 177 176 181 189 191 197 188 187 183 181 175 173 148 149 173 178 177 174 174 170 166 169 168 167 168 164 159 159 161 161
 148 147 147 150 152 153 152 151 152 168 107  26  50  55  55  57  55  65  73  78  83 106 110 107  94 100  94  92  97 104 103 114 108 101  80  65  60  73  87  98  96  92 100 105 107  98  99 119 138 149 161 175 179 190 193 194 203 205 203 198 177 167 164 180 180 182 189 182 188 191 179 178 173 164 142 155 183 179 176 173 173 170 166 167 166 167 167 164 160 156 158 160
 145 147 148 152 153 153 153 153 160 136  38  21  42  57  54  53  57  63  61  70  76  83  97  98  92 106  98  96 100 102 102 114 115 111 101  97  85  77  94 105  97 101 111 129 127 105  87 101 129 139 157 177 195 197 201 199 197 199 202 199 191 167 159 170 171 179 177 181 181 179 176 175 161 148 143 183 182 178 174 173 172 170 168 169 168 166 166 166 164 157 155 157
 145 148 148 151 151 155 157 161 162  72  20  24  34  59  54  53  58  56  57  68  73  73  85  86 100 117 107  98  98 106  99 106 112 106 106 122 125 117 121 128 126 113 127 141 146 135 121 148 162 173 181 189 201 200 198 200 197 194 201 198 192 183 167 162 179 175 168 174 179 173 171 167 146 137 141 186 189 178 176 172 171 171 172 171 170 170 168 168 166 160 157 157
 148 148 149 151 153 156 157 167 125  31  25  24  31  57  57  52  55  55  55  63  68  60  61  80  89  96 112 116 106 106 108  97 108 118 125 122 149 143 143 137 145 143 136 143 153 163 152 166 181 188 198 202 207 206 203 200 201 207 203 195 183 175 174 160 161 162 165 163 173 177 169 156 148 139 126 168 195 180 179 174 168 169 170 169 168 169 168 167 168 162 160 158
 146 146 148 153 154 156 158 160  69  23  26  24  30  53  55  53  54  57  54  55  55  52  51  65  74  87  97 106 111 112 117 108 112 113 129 134 151 146 148 147 166 182 174 179 179 188 189 180 189 192 198 204 207 206 200 199 206 210 203 200 183 171 169 161 150 154 154 165 158 163 162 136 141 132 105 143 201 185 175 176 171 167 163 161 165 169 167 166 168 164 160 159
 147 148 149 152 157 158 164 131  35  26  25  24  28  51  53  55  52  56  53  53  48  49  49  53  65  82  92  95  99 108 113 118 121 125 123 130 146 145 151 155 158 182 192 202 197 197 211 208 205 201 199 200 203 208 206 207 200 202 198 179 167 173 175 163 163 153 151 157 156 155 147 135 134 141  97 114 206 193 169 173 172 170 165 163 166 169 167 167 167 164 158 157
 147 151 149 148 156 156 162  86  25  26  25  23  27  48  51  52  51  49  56  52  50  48  48  48  54  59  73  93  91  93 106 119 123 141 134 137 132 137 155 163 167 166 180 193 198 195 203 207 208 206 209 204 198 206 209 204 199 196 188 160 164 176 169 158 161 157 153 157 153 148 138 140 134 149 101 101 196 203 177 177 171 170 169 166 167 168 169 171 167 164 157 153
 147 146 144 146 149 157 142  51  27  25  24  23  25  47  51  50  48  50  53  54  51  49  48  46  50  51  58  79  92  98  97 113 119 141 140 139 130 126 152 160 164 174 173 188 196 206 206 206 203 202 201 207 204 204 207 204 198 191 187 176 174 177 171 157 157 149 154 141 139 133 136 142 142 152 111  84 188 214 145 127 165 176 174 168 165 166 169 169 162 160 155 150
 150 147 142 145 150 140  72  38  28  24  24  23  23  46  50  49  49  51  53  51  54  49  47  48  51  56  65  72  84  81  80  99 107 125 129 131 135 105 133 164 158 180 166 171 191 198 202 205 203 196 201 210 205 209 200 197 200 189 180 176 178 174 167 154 153 151 149 135 122 134 139 143 140 157 133  83 177 217 145  13  50  93 138 162 171 171 167 165 162 158 154 154
 146 144 145 152 144  66  35  40  26  24  24  23  23  41  50  50  52  51  53  54  52  48  47  49  48  51  53  64  76  76  71  82  95 101 122 118 123 110 112 141 153 168 188 177 188 199 196 200 202 202 200 203 204 195 200 198 180 178 177 171 162 158 148 144 155 145 133 118 127 146 147 144 140 168 146 106 169 205 207  92   9   4  23  54  95 144 175 174 166 158 154 154
 146 147 148 121  59  20  48  36  26  24  23  23  21  37  48  50  52  50  50  53  52  48  48  49  50  48  50  55  63  73  78  71  79  86 116 130 130 117 116 150 144 152 169 175 182 187 194 201 195 186 185 197 195 191 188 187 173 172 172 168 158 143 130 136 140 130 113 116 145 150 151 145 154 180 135 104 163 204 202 202 156  93  26   6  15  34  84 131 161 165 157 157
 140 113  75  31  19  30  52  34  27  24  23  23  22  32  46  48  50  50  51  50  53  52  53  48  48  44  47  46  49  67  81  74  64  69  99 114 126 118 113 131 146 150 156 155 173 179 173 189 185 172 180 184 188 190 185 184 175 163 149 144 141 134 130 125 114 104 122 143 155 157 154 150 171 181 108  82 152 207 199 202 201 187 163  78  13  15  16  24  54 105 159 165
  52  30  19  21  22  37  52  33  27  25  23  23  23  29  42  46  47  48  49  50  51  53  56  52  52  55  52  51  55  60  66  71  71  63  71  87 108 120 116 116 122 134 142 153 170 166 166 171 171 169 183 180 181 183 179 178 173 147 123 115 108 112 102  91  82 124 148 148 162 154 151 157 182 167  84  82 149 205 200 202 201 178 167 194 132  26  14  23  17  17  89 169
  19  22  24  25  22  46  50  31  25  23  23  23  22  25  38  44  45  45  46  49  49  50  52  52  55  55  57  57  57  56  58  68  73  61  57  71  92 109 125 113 104 116 116 130 150 162 165 170 172 170 176 182 178 161 157 162 142 122 106 102  86  74  74  94 129 147 153 152 149 151 155 177 180 154  57 109 155 207 201 201 200 204 173 153 191 163  38  12  23  22  21 121
  24  24  24  24  24  52  47  30  26  23  23  23  22  23  32  41  43  43  41  47  50  47  50  52  52  50  53  58  60  59  52  59  68  61  55  76  90  97 106 117 108 117 112 108 123 131 142 159 162 160 156 171 164 151 152 131 110 108  89  82  72  84 117 138 147 151 156 153 155 153 163 181 172 122  47 134 156 205 203 203 205 203 204 167 142 194 175  40  12  24  17  64
  24  24  24  23  28  56  42  30  27  24  23  23  24  23  27  37  42  42  43  44  49  48  49  51  51  50  51  51  55  63  60  50  55  58  58  70  73  82  84  86  98  96  91  98 114 123 134 146 145 149 149 148 141 139 129 106 103  90  71  75 102 127 136 145 153 156 156 160 160 160 177 175 163  88  57 131 156 206 204 202 206 204 204 199 149 149 203 173  37  14  24  36
  24  24  25  22  32  58  40  28  26  24  23  23  23  23  24  31  39  40  43  43  47  48  49  49  50  49  49  51  50  57  58  58  61  54  54  60  65  74  75  71  72  80  78  84  99 122 137 137 131 124 128 133 119 113  96 100  95  77  84 106 127 139 151 152 155 160 162 160 162 179 175 170 140  61  63 110 160 205 205 201 206 207 203 208 177 135 164 208 164  29  19  29
  23  24  24  23  36  57  41  31  27  25  23  24  23  22  23  27  35  39  41  42  43  46  48  48  47  47  48  48  48  51  58  59  60  59  56  58  59  62  62  68  59  60  63  65  88  97 103 105  95  98  98  96  95 106 101 103  92  94 107 121 135 147 151 153 153 158 163 159 164 175 170 159 110  44  71 128 165 204 201 200 207 207 206 205 200 148 145 187 211 130  19  27
  23  24  24  21  38  59  41  32  28  26  23  23  23  24  24  24  31  37  39  41  43  43  44  47  46  46  48  45  45  50  52  59  59  53  52  53  53  50  52  52  52  48  52  59  67  75  73  74  75  82  83  87  97 100 109 109 105 111 125 135 148 150 151 153 151 155 156 170 180 169 168 143  89  34  98 156 167 205 202 198 204 206 207 206 206 171 139 182 200 193  66  22
  23  24  24  21  41  59  43  35  31  27  24  24  23  23  23  24  28  36  38  39  42  43  42  45  46  45  45  46  45  48  50  53  59  62  56  53  50  50  48  46  47  48  47  54  58  64  67  72  76  81  84  92  94 109 127 128 118 119 136 149 156 156 155 153 157 147 154 176 171 158 152 121  72  35 130 151 175 206 201 200 205 206 206 206 209 181 137 176 196 201 100  20
  23  23  24  21  40  62  46  40  34  28  25  23  23  23  24  24  26  33  36  38  40  42  42  43  45  45  44  46  47  47  48  50  57  62  63  60  59  58  57  53  53  57  60  60  62  76  77  79  78  77  80  88 102 135 139 132 135 134 139 143 151 155 159 164 151 151 164 167 161 153 133 101  52  52 139 132 186 205 203 201 205 206 204 204 209 184 142 171 185 198  99  22
  23  23  24  21  42  65  54  48  40  30  27  23  23  24  23  24  25  29  34  36  38  41  41  43  43  45  44  45  45  47  48  49  54  55  58  61  58  61  61  59  56  57  62  60  62  73  75  72  63  72  80  94 119 147 147 138 136 138 141 144 150 154 145 147 159 159 157 162 150 133 109  81  41  82 132 139 191 206 200 202 202 204 206 204 209 187 142 153 174 185  80  22
