P2
# Generated by OpenCV 4.2.0
92 112
255
  74  72  73  71  72  70  70  70  70  72  70  70  70  69  69  68  67  66  68  69  68  67  69  67  67  68  68  67  67  68  68  68  67  68  67  66  68  67  66  66  65  65  67  65  65  65  65  65  65  65  65  66  65  63  64  64  64  64  65  64  65  65  65  65  65  65  66  65  64  64  64  64  64  64  64  64  64  64  64  64  63  64  64  64  64  64  64  65  65  64  64  64
  73  72  72  72  71  71  70  70  71  71  70  70  70  70  69  68  67  67  68  69  69  68  69  68  68  68  68  68  67  67  67  68  68  68  66  67  66  66  66  65  66  66  65  65  66  66  65  65  65  64  66  66  67  65  65  64  65  63  64  65  65  65  65  65  65  65  65  65  65  64  64  64  64  63  64  65  64  64  64  64  64  64  64  64  64  63  64  64  64  64  64  63
  72  73  72  72  70  71  71  71  71  71  71  71  70  70  70  69  69  69  68  69  69  69  67  68  68  69  67  67  68  68  68  68  67  66  66  67  65  66  67  66  66  66  65  67  67  66  65  65  65  66  65  66  67  66  66  65  67  65  62  65  65  65  64  64  65  65  65  65  65  64  63  64  64  64  64  64  64  65  65  64  65  64  64  65  64  63  64  64  63  63  63  64
  73  73  72  72  71  71  72  71  72  72  70  72  70  71  71  70  68  70  69  69  69  68  69  68  69  69  67  67  68  68  68  67  67  67  65  66  68  67  68  67  67  67  66  67  66  64  65  66  66  67  71  69  66  66  66  65  66  70  63  64  65  63  62  64  65  65  66  65  66  64  64  63  63  63  65  64  64  65  63  64  64  64  64  63  64  63  63  63  63  63  64  64
  74  74  72  72  72  73  72  71  71  71  71  71  71  71  70  70  70  69  70  69  67  68  69  68  69  68  67  67  67  68  67  68  68  67  68  68  69  68  68  70  70  69  69  68  68  70  68  69  68  69  78  73  66  65  67  65  69  68  63  65  65  63  65  66  64  65  64  63  63  63  63  63  63  62  63  64  64  63  65  64  63  64  64  64  63  63  63  64  64  63  64  64
  73  72  72  72  72  73  72  73  70  70  72  72  70  70  69  70  70  69  71  69  69  68  69  68  69  68  67  68  69  69  69  70  68  65  71  70  68  71  69  71  75  74  79  80  75  73  78  64  71  62  68  76  75  69  69  71  76  76  64  67  64  64  65  68  65  65  63  63  64  64  63  64  63  61  63  64  64  64  65  64  64  64  64  63  63  64  64  63  64  64  64  64
  73  73  73  72  72  72  71  72  71  71  71  72  70  70  71  70  70  70  72  70  69  69  67  69  69  70  70  67  67  69  69  68  68  65  58  59  62  64  75  82  77  69  73  77  77  73  76  89  73  72  74  79  66  68  81  81  75  67  65  69  67  64  69  78  66  63  63  63  64  63  63  63  62  63  62  64  63  64  64  64  64  64  64  64  64  64  64  64  63  63  64  64
  73  74  74  75  72  72  72  73  72  72  71  71  71  71  70  71  70  69  70  69  69  70  70  71  73  68  74  71  65  67  70  67  65  61  55  48  52  62  64  55  70  75  76  60  64  66  73  69  70  69  60  68  65  66  71  68  75  75  74  83  86  91  91  78  70  64  63  64  63  64  65  64  63  64  63  63  64  63  64  64  63  64  64  63  64  63  64  63  64  63  63  63
  73  72  74  73  73  72  72  73  72  73  72  71  71  70  70  70  70  70  70  69  70  72  73  67  60  68  75  69  56  59  76  83  84  72  60  65  56  59  69  66  59  63  69  71  82  79  73  73  77  79  67  51  79  89  87  81  69  71  88  98 101  86  68  62  63  64  62  68  67  66  64  65  68  62  64  62  63  63  64  64  64  64  64  63  64  63  63  64  64  64  64  64
  73  72  73  73  72  72  72  72  72  72  71  71  70  70  71  70  70  71  70  73  74  68  61  49  55  71  61  58  59  65  70  77  81  74  62  54  54  60  72  76  63  66  66  73  85  93  83  69  84  89 101  63  62  77  93  78  83  74  65  78  95  60  51  52  49  57  73  77  71  66  71  71  64  62  64  63  64  64  64  65  64  64  64  64  64  64  64  63  63  63  64  64
  73  73  73  72  73  73  71  73  73  72  72  71  70  71  71  70  71  70  71  71  77  69  45  51  57  59  57  63  73  69  76  83  73  78  79  76  76  87  84  82  82  87  92  82  85  84  86  79  71  82  93  91  76  76  68  70  63  78  68  62  66  59  45  53  61  58  68  72  71  70  73  65  63  62  63  63  64  63  64  64  64  64  64  64  64  64  64  64  64  64  64  64
  73  73  73  72  73  72  72  72  73  71  72  72  70  70  72  73  73  73  72  70  65  65  64  65  72  75  70  73  79  88  89  89  77  80  91 100 106 100  96  94  93  94 102 107  98  92  91  95  98  91  86  83  77  88  82  71  68  80  74  73  54  56  60  67  82  59  55  67  64  72  64  64  63  64  63  63  62  64  64  64  65  64  63  64  63  64  65  64  64  64  63  63
  75  72  73  74  73  73  72  72  72  73  74  72  72  72  71  72  72  77  72  61  57  61  67  77  81  91  95  92  98 112 123 134 132 111 116 108 111 130 136 104  87  94  87 107  87  84  99  96  98 107 107  86  87  86 105 100  74  80  68  70  70  59  65  58  71  63  54  66  59  48  66  71  65  63  63  63  63  64  64  64  65  64  64  64  64  63  64  64  64  64  63  63
  75  74  72  73  73  73  72  72  72  73  73  73  73  72  72  72  70  71  75  66  67  70  70  81  91  99 102 105 101 115 118 138 153 142 134 129 120 131 140 138 122 104  91  93 101  83  93  89 116 105 106  95  87  97  77 105  98  75  77  64  66  63  48  59  56  63  60  75  67  55  63  65  64  64  63  63  64  65  65  64  64  65  65  64  64  64  64  64  63  63  63  63
  75  74  73  72  72  72  72  72  72  73  73  72  72  71  72  73  71  60  53  74  68  65  60  62  79  93 100 104 121 121 117 119 133 137 141 138 130 123 120 120 130 117 108  97  95 100  95  76 111 128 106  97 107  92  73  83 114  99  87  93  43  58  47  43  52  51  58  75  69  54  45  59  53  60  63  60  64  64  64  64  65  64  64  64  64  65  64  64  64  63  64  64
  73  75  74  73  72  72  72  72  71  72  73  73  72  72  71  67  62  51  40  47  58  60  60  58  71  94 101 108 127 134 128 124 120 139 122 121 128 126 118 110 111 115 111 109  87  92 113  87  77 119 115  97 109 110  81  60 102 121  95  96  77  42  55  69  49  46  45  75  70  47  54  55  62  60  60  59  62  62  65  64  65  64  63  64  64  65  63  64  64  64  64  64
  75  76  74  73  72  72  71  72  72  73  74  75  77  74  68  65  51  45  53  36  46  60  64  63  69  83 109 107  97 114 130 127 147 142 142 124 122 136 127 124 118 115 116 106 102  88 122 121  87  97 114 113 118  94  81  58  69 123 113  79  96  78  56  67  62  40  45  57  53  59  70  65  67  62  62  64  64  65  64  64  64  65  65  65  65  65  64  64  64  64  64  64
  75  75  75  73  72  73  72  71  74  74  74  76  78  68  61  61  58  54  74  62  33  49  84  69  84  67  82 105 119 107 126 126 142 166 158 133 119 110 130 130 128 122 111 104  99  74  88 129  99  85  96 112 113  98  91  86  63  90 122 109  74  64  75  58  60  41  36  50  58  54  56  61  70  63  63  64  68  64  64  64  64  65  65  65  65  65  65  65  65  65  64  65
  75  76  75  73  73  72  72  72  73  74  73  78  76  58  58  51  50  57  69  84  63  44  81  91  90  94  67  64 114 142 127 137 126 122 149 159 138 123 123 124 112 120 126 105 108  89  72 107  99  76  87  84  94 102  86  90  69  82 115 130 105  50  46  55  48  39  50  43  50  50  51  61  55  68  68  61  63  64  62  64  65  64  65  65  65  66  65  66  66  66  66  66
  75  75  75  74  74  73  73  73  74  73  69  72  75  68  67  63  57  60  61  68  76  66  50  71  96 119 108  72  66 124 143 133 132 128 122 142 151 132 124 124 106 105 135 114 110 100  89  95  97  83  89  67  75  84  94  73  75  88  91 102 113  75  40  59  51  36  45  33  33  40  48  60  60  70  76  69  66  64  65  65  66  67  65  65  65  65  62  61  61  59  58  56
  74  76  75  75  74  74  73  75  77  74  69  69  73  64  61  60  58  67  76  50  61  94  70  76  94 101 132 113  63  68 114 136 128 129 125 126 145 142 126 132 119 109 122 116 104 107  93  78  84  85  88  66  55  68  86  79  61  95  87  70  98  83  51  48  46  31  31  32  24  28  44  54  51  52  75  74  60  59  53  52  52  51  48  48  45  44  43  41  41  40  39  38
  76  75  76  75  75  75  74  73  77  72  67  59  60  68  61  65  77  73  78  57  40  78  93  93 110  96 105 117 100  62  94 117 137 127 128 131 130 143 134 129 118 117 117 119 105 105  94  79  78  82  81  74  53  64  72  90  65  78  90  68  84  87  63  39  41  34  28  28  25  28  39  37  49  55  57  53  46  43  38  39  39  38  38  39  40  39  39  40  40  41  41  42
  77  76  76  76  76  77  75  75  73  71  65  63  56  62  53  63  70  75  86  69  55  60  96  97 102  88  95  96 126 102  78  97 131 144 128 131 124 115 126 126 116 109 107 110 115 107  98  77  71  79  90  77  60  65  69  86  82  77  91  76  67  83  67  39  38  37  39  27  25  36  34  32  48  66  58  55  46  41  42  41  39  38  38  36  35  35  36  36  35  34  32  33
  76  76  75  76  77  75  76  74  72  69  66  59  60  60  75  87  97  80  87  57  50  67  88 119 105  74  80 101  93 127 119  77 108 137 144 141 139 135 123 120 112 112 118 113 108 114 106  94  74  71  70  80  75  70  74  85  90  80  92  90  52  74  63  41  39  39  43  36  37  33  32  47  50  51  66  65  50  29  17  15  12  11  11   9   7   8   8   6   6   5   5   4
  77  77  76  77  77  76  74  70  67  66  61  51  58  61  92 103  98  84  89  69  37  61  69 108 131 104  56  84 124 109 131 109 101 115 126 123 133 145 144 132 129 119 115 120 116 118 120 109  96  87  84  77  80  73  80  88  77  72  76  85  67  65  58  42  42  42  45  54  69  56  45  36  43  55  60  52  58  30   6   3   4   3   4   3   3   4   4   4   5   4   4   4
  64  62  61  60  59  57  55  56  54  58  60  59  66  67  86  97 103  83  63  79  55  41  72  70 109 135 103  63 100 130 127 130 126 123 127 121 123 127 141 139 129 123 117 110 109 111 116 119 108  95  89  89  88  88  80  86  86  85  77  79  71  71  80  67  56  51  52  60  63  52  61  46  34  47  62  52  55  49  33   7   6   7   8   8   7   9   9   9   9   9  11  14
  55  54  54  54  54  53  52  53  57  62  61  63  68  61  81  78  90  85  74  70  86  66  63  75  65  91 122  96  81 108 122 128 134 140 137 135 131 124 118 128 132 128 122 114 100  97 103 106 107  96  98  93  94  98  89  89 106  98  75  73  76  82  87  86  87  83  80  52  48  60  55  79  67  46  40  45  52  44  34  17  10  10  10  10   9   9   9   7   7   7   8   8
  50  50  47  44  41  37  40  49  66  73  62  58  70  87  79  72  66  78  78  82  83  84  75  77  95  72  84 124 116 110 121 126 122 122 124 125 127 123 124 128 134 129 126 121 117 115 113 106 104 106 111 103  98 107  96  98 108 104  90  85  84  89  85  82  78  85 101  90  62  72  56  67  86  73  41  35  45  55  26   7   5   5   4   3   3   2   2   3   2   2   1   1
  12  11   8   6   5   4  14  33  54  69  49  46  52  76  75  77  74  72  81  74  75  75  71  73  87 105  93  95 107 115 119 127 133 131 132 133 132 128 125 133 134 119 122 121 121 123 122 120 121 122 123 117 113 112 110 112 110 104 104 101  96  91  80  89  79  74  84  83  77  72  56  38  60  80  75  60  45  57  41  12   3   2   3   3   4   3   3   4   4   4   4   5
   5   4   5   6   6   6  14  28  54  66  66  66  65  71  85  70  72  58  63  68  78  79  73  67  72  68  87 103 107 118 128 132 133 135 138 136 137 140 137 135 130 128 128 131 130 128 129 121 115 122 122 118 112 111 120 119 110 115 111 102  96  99  83  77  92  88  71  39  63  76  91  76  45  44  79  88  62  50  43  17   8   5   6   6   7   7   8   8   7   8   7   7
   9   9   9   9   8  12  17  22  52  66  68  74  78  74  68  72  66  60  64  70  84 106 114 112 104 100  93  98 108 117 133 136 138 139 142 138 139 144 143 144 143 136 134 132 128 131 139 139 129 124 123 117 116 116 123 121 121 126 119 111  98  81  98  93 105 101  90  69  53  73  71 105  84  50  48  70  65  46  47  20   6   8   7   6   6   6   5   5   5   6   5   4
   4   4   4   4   3  10  20  34  57  72  64  65  63  61  54  57  70  75  94  94  82  78  88 114 118 107 108 111 118 121 122 128 138 136 138 140 145 150 149 147 142 136 135 129 134 132 130 131 134 130 126 123 127 125 126 129 131 126 131 122 114  83  86  88 101 118  98  97  95  75  70  85  89  75  58  56  76  66  52  28   2   7   6   5   5   5   3   4   5   4   4   3
   4   4   4   5   4   2   7  30  59  77  62  63  54  48  62  56  56  51  58  74  89  97 100 104 113 116 112 121 130 126 130 136 139 142 145 148 148 144 147 146 145 140 134 130 138 131 127 129 130 129 125 130 127 123 126 127 129 129 131 124 115  98  85  88  88 110 122  95  92 102  82  85  94  77  93  68  70  87  72  42   6   6   4   5   4   4   3   4   3   4   4   3
   3   3   3   3   4   5   5  11  54  81  68  74  76  71  59  58  46  52  72  85  97 106 108 112 116 124 123 125 129 132 141 143 148 151 146 148 147 146 145 140 141 143 138 141 144 143 139 139 135 132 126 127 129 126 127 123 129 130 132 131 114 104  96  97  87  97 117 120  87  93 103  74  89  98  87  86  68  71  70  55  19   6   2   4   4   4   4   4   4   5   4   4
   3   4   3   3   5   6  10  20  49  69  81  98  87  67  62  57  45  58  68  90  97 101 113 117 120 128 116 114 123 134 145 148 149 146 140 140 142 143 138 138 144 146 139 146 153 147 145 143 140 134 132 130 131 128 129 128 127 127 132 135 123 108 104 105 101  89 106 117 100  95  97  89  82  82  93  92  74  66  70  73  35   2   3   2   5   5   4   4   6   6   5   4
   2   2   2   3   2   3   6  20  40  61 100 120  98  82  79  52  47  60  79  99  99 100 113 123 125 117 119 127 137 143 145 144 143 139 134 140 142 138 134 137 144 146 143 151 155 150 144 147 144 138 134 137 136 133 135 133 131 133 132 132 128 114 109 109 112  98  91 119 117 119 103  99  89  78  76  80  84  69  70  78  45   8   2   3   2   3   5   4   4   4   4   4
   2   3   1   2   2   4   5  12  39  79 121 124  99  95  75  43  49  65  87  98 104 117 124 126 119 123 136 133 137 138 141 137 135 138 143 141 134 134 135 144 148 144 148 154 154 149 146 148 148 139 132 137 135 133 138 136 131 135 136 137 126 114 110 112 114 106 105 100 117 128 126 104 116 124  97  79  81  74  68  72  59  16   6   4   2   3   4   4   4   4   4   5
   2   2   1   1   2   5   4  20  46 111 124 122  99  91  71  46  53  71  87 102 113 117 117 116 120 131 134 136 139 137 138 133 133 136 134 133 132 134 142 148 150 147 155 153 150 153 151 147 143 142 141 138 136 135 133 137 135 139 138 137 128 118 112 117 132 123 110 101 114 115 125 125 137 133 115  99  88  70  82  84  59  13   7   2   3   3   2   4   4   4   4   5
   2   0   1   1   3   3   8  18  63 117 133 129 102  97  64  46  59  73  86 100 113 114 108 116 123 132 139 140 139 140 139 134 136 132 127 132 138 145 148 149 153 154 158 157 154 152 154 152 144 139 141 142 136 137 135 135 138 141 143 148 135 124 117 117 132 133 114  99 108 123 124 138 142 134 115  89  91  71  86  96  72  15   5   4   4   3   3   4   5   4   4   5
   3   1   0   1   2   4   4  11  87 115 141 126 107  82  59  50  61  73  90 101 114 119 120 124 124 136 142 142 141 142 144 140 132 133 133 133 141 147 148 149 146 152 158 158 155 158 156 156 155 143 138 142 139 138 139 134 138 146 145 149 145 126 122 127 131 131 135 118 105 101 132 140 134 116 121 113  86  79  71  94  80  37   5   3   2   4   3   3   5   4   4   5
   3   1   0   2   4   5   0  27  95 124 137 130 116  68  50  56  63  71  87 106 116 122 123 123 126 133 139 141 145 147 146 140 138 134 136 141 140 145 151 151 145 155 163 163 155 154 153 154 155 150 145 142 141 139 139 138 145 146 143 148 144 132 123 140 131 135 134 148 132 105 114 134 133 124 111 122 101  93  72  89  99  31   2   4   3   2   3   3   3   3   4   4
   3   0   0   1   3   2   2  44  95 122 141 141 103  57  47  62  68  73  83 103 115 115 122 124 126 131 137 139 144 147 143 137 138 138 140 143 141 149 154 154 154 153 162 159 158 154 156 157 152 148 145 146 148 148 144 134 145 147 144 147 141 135 126 142 141 139 141 149 145 145 126 119 121 129 113 110 108  96  84  73  95  49   2   4   2   3   3   2   2   3   2   4
   1   0   1   1   2   2   3  35  93 116 138 122 101  53  51  71  70  73  87 106 111 115 120 125 126 130 136 142 143 141 139 137 133 138 143 142 145 150 153 151 154 156 162 157 157 157 156 158 159 153 144 142 152 155 145 139 143 152 151 150 144 133 132 139 150 150 153 146 135 139 145 131 117 107 118 104 100  96  90  70  87  50   2   2   3   3   2   2   2   4   4   5
   2   1   2   1   2   2   5  54  92 114 115 123  90  50  55  73  76  76  91 104 110 118 121 128 126 131 137 138 136 136 143 138 138 143 144 146 145 148 152 156 155 158 162 163 162 160 157 155 158 160 154 149 149 151 152 150 147 152 152 156 146 134 142 139 150 151 155 156 143 128 116 122 119 113 112 103  96 106  84  75  85  66   2   3   2   3   2   2   3   4   4   4
   2   1   1   1   1   1  10  71  94 103 113 113  73  50  59  74  82  83  93  99 103 118 127 130 132 134 140 140 136 140 146 139 143 146 141 140 139 148 151 151 150 156 152 156 154 154 153 153 152 155 158 157 148 154 153 150 146 149 150 154 147 137 147 137 151 155 147 157 152 151 123  97 113 112 113 115 100  99  89  71  82  81   9   1   1   2   3   2   3   3   5   5
   1   0   1   1   3   3  19  76  91  99 108  91  56  50  60  80  86  89  94  95 104 122 127 130 134 140 144 142 137 137 144 144 144 138 130 129 141 147 148 142 146 152 152 157 159 157 160 158 156 153 155 159 158 155 156 154 153 147 149 152 148 147 151 144 148 163 160 143 146 154 150 113 107 113 104 124 111 100  91  73  76  79  13   1   3   2   2   2   2   3   4   2
   2   2   0   1   1   1  25  67  93 100 101  82  53  51  63  86  91  92  91  99 106 114 120 125 130 131 133 134 132 136 138 137 135 132 129 137 144 150 154 154 157 159 164 163 161 160 159 156 158 159 160 159 155 155 161 157 155 146 144 152 152 146 150 151 149 157 160 155 144 155 153 127 117 104  95 118 119 112  92  74  64  74  36   5   2   2   2   2   2   3   6   3
   1   1   0   2   1   2  14  51  98 100  93  67  49  55  66  88  93  98  96 101 104 107 117 126 128 131 135 137 140 144 143 140 141 132 126 139 148 151 155 152 152 162 164 167 161 158 159 160 155 158 161 158 154 152 161 156 158 150 143 152 150 147 145 161 144 148 153 151 148 147 154 137 136 117 117 119 116 109  93  80  65  83  35   6   2   2   2   3   3   3   3   3
   3   1   0   2   2   6  10  52 103 106  88  65  47  61  71  91  95  94 101  97 101 110 120 126 127 129 137 143 144 143 147 146 140 129 133 140 148 150 150 156 161 165 169 165 164 164 161 161 157 154 159 159 160 158 159 156 156 155 151 153 147 145 145 149 147 136 157 143 147 139 142 148 149 140 120 126 119  95  84  85  67  78  31   4   2   2   3   2   2   3   3   3
   5   2   0   4   4   5   6  57 111 102  82  55  45  63  75  94  97  94 103  99 102 113 122 129 130 133 140 143 140 140 144 147 140 130 134 139 144 152 158 163 167 164 165 165 162 165 164 161 162 159 156 156 153 159 155 154 157 153 154 153 144 144 141 139 144 139 148 152 142 148 142 149 147 141 114 127 123  96  85  89  73  68  15   3   3   2   3   2   2   3   4   4
   3   3   1   0   2   2   2  40 111 101  77  48  45  68  76  91  94  93 106 106 110 121 125 129 131 134 135 139 143 141 142 143 143 141 138 139 145 155 161 159 159 163 169 170 168 166 161 161 162 158 157 156 146 152 157 152 153 154 157 151 143 140 142 131 131 134 129 145 136 144 142 141 144 134 117 113 132  99 100  90  80  59   8   7   3   3   3   3   4   3   5   6
   3   3   3   1   1   1   3  21  98 106  77  46  48  71  75  88  91  94 104 104 110 115 122 127 128 133 136 141 141 145 149 141 148 145 141 142 152 156 159 160 174 174 173 173 170 165 169 156 141 146 162 152 145 147 155 152 144 155 157 155 146 144 146 135 129 132 126 128 133 132 141 141 142 126 125 120 123 107 114  95  89  55   7   5   3   3   4   4   3   2   5   6
   4   2   2   2   1   2   6  12  94 111  77  44  51  70  73  83  89  95 102 103 104 115 121 127 132 137 143 146 145 150 150 145 150 147 147 146 147 158 160 162 169 171 174 172 167 151 127 113 125 127 132 140 138 144 148 152 143 150 157 154 146 142 140 137 133 129 123 126 127 139 142 138 134 124 129 127 121 118 117 111  83  54  10   4   5   5   5   4   3   3   4   6
   5   3   2   2   2   1   0   9  80 111  77  47  55  69  73  83  89 102 105 107 109 121 124 127 134 137 144 153 153 154 152 148 154 150 145 147 145 149 153 155 160 161 157 140 121 102 103 118 133 135 129 127 123 132 139 147 145 139 154 153 147 137 126 130 133 136 124 127 123 126 129 130 128 124 126 130 126 128 111  93  64  50  16   5   5   4   3   3   3   3   3   5
   5   5   4   6   8   8  11  26  75 104  87  59  60  63  71  80  77  95 102 108 115 122 128 130 134 135 138 148 152 155 151 151 153 147 138 144 147 137 138 132 120 108  84  90  87 107 136 133 138 136 136 139 129 122 127 134 147 140 143 147 147 139 131 127 134 135 131 126 127 118 119 130 128 129 132 131 121 117 116  89  45  33   8   4   3   2   3   2   3   2   3   4
   4  16  36  46  50  56  71  74  88  86  87  83  68  57  66  56  47  51  76 102  97 100 127 128 127 136 135 140 147 151 148 153 155 145 136 144 144 122 102  98  81  71  78  95 100 126 139 141 138 143 141 136 134 131 135 135 146 146 136 138 145 140 136 131 133 133 137 130 136 119 119 111 119 135 128 128 118 112 111  99  42  11   3   5   3   3   3   2   3   3   2   3
   5  18  33  35  38  40  46  47  58  66  86  97  74  55  46  34  43  62  50  60  59  58  78  97 105 119 129 131 138 146 147 151 156 147 139 143 142 134 120 119 108 103 110 119 125 131 137 148 146 144 140 141 146 137 138 135 137 149 137 144 143 136 138 136 132 133 139 129 129 112 109 117 115 123 128 132 124 105 104 123  34   3   4   4   4   4   4   2   3   3   2   2
   4   8   9   8   8   8  10  11  12  24  67 102  73  44  40  45  55  74  83  65  61  57  49  61  85 104 122 126 132 141 141 146 154 156 140 142 143 140 134 128 125 122 122 131 137 138 139 146 143 138 139 142 141 140 138 134 137 144 142 145 136 137 138 136 131 133 138 127 125 117 110 101 115 115 116 119 107  98 105 140  52   0   4   4   2   2   3   3   2   2   3   2
   3   3   2   3   3   2   3   4   2   9  42  83  71  43  48  63  71  77  97 110  87  88  79  79  84  93  99 113 126 127 136 143 151 153 153 146 143 137 132 127 123 118 117 118 121 114 127 129 136 139 135 132 136 131 130 135 139 139 146 140 130 139 142 133 131 129 133 129 129 127 121 101 118 131 109 112 129 116 124 150  86   1   4   3   3   2   3   3   2   2   3   3
   3   3   3   3   4   3   3   4   4   4  29  78  78  45  50  57  73  92 109 129 137 135 126 110  96  83  77  82 109 124 135 140 147 150 153 149 144 138 125 115 111 103  79  66  55  50  56  42  51  75  96 113 122 119 117 128 134 142 146 134 138 145 137 134 129 125 126 129 124 118 120 114 118 131 109 113 157 133 122 157 113   1   3   4   3   4   3   2   3   4   3   3
   4   2   3   3   2   2   3   3   3   4  18  63  71  55  53  58  75  97 115 123 139 133 121 102  91  91  84  64  69 108 133 141 151 155 151 150 147 133 110  98  94  74  51  53 113  84  18  52  40  27  45  68 104 117 125 129 133 144 148 137 139 140 137 136 131 124 129 119 126 116 114 121 109 118 115 127 159 133 121 160 124   7   5   3   4   3   3   3   3   4   3   3
   3   3   3   3   3   2   3   3   4   3   9  44  75  73  69  55  70  91  94  75  57  44  39  45  59  61  70  80  53  69 128 146 158 158 154 153 152 133 102  90  82  74  67 118 171 100  24  32  40  56  87  70  85  97 122 140 149 150 149 144 131 133 138 132 127 124 123 122 122 125 112 107 113 116 117 135 152 138 120 160 125   1   3   4   3   3   3   2   3   3   3   3
   4   3   2   3   2   3   4   3   1   2   4  37  79  66  87  60  70  80  35  37  76  43  25  66  46  47  63  73  76  47  99 143 157 156 155 154 152 135 118  97  87  81  84  97 121 100  61  69 102 123 117 123 120 113 125 141 151 152 151 146 131 132 136 133 126 124 127 130 107 114 113  98 108 118 120 160 158 144 123 161 101   0   4   3   3   3   4   3   3   2   3   2
   3   3   3   3   3   3   4   4   4   4   3  31  69  58  70  69  69  55  32  91 125  45  25  37  42  93 107  67  91  53  82 140 154 155 150 150 148 136 141 130 102  91  93  91  97 100 111 141 157 138 130 139 141 142 142 149 145 152 152 145 137 136 136 133 129 121 124 130  96 104  97  99 100 120  96 139 163 157 119 157  66   0   5   4   3   4   4   3   3   3   2   2
   3   3   3   3   4   4   6   9  21  24  10  29  65  71  86  74  54  39  63  88 104  77  51  68  85 106 102  74 103  70  69 132 149 148 143 149 147 133 138 134 107  87  97 113 120 126 133 142 140 140 143 140 145 145 143 149 152 148 147 148 143 133 134 137 131 118 121 117 103 112  87  97 104 140 115 135 162 165 120 137  32   0   3   3   4   4   4   4   3   3   3   4
   2   4   3   3   4   4   4   9  21  19  12  24  59  71  99  95  63  50  52  81  87  96 100 120 129 125 119 116 124  72  70 129 142 139 143 145 145 138 137 135 105  93  98 113 122 129 132 137 147 149 146 147 151 147 148 147 148 154 145 139 142 133 125 131 129 113 121 120 111  99  99 108 119 150 144 131 153 162 127 115  20   0   2   3   4   4   3   5   4   3   3   3
   3   3   3   4   3   1   2   3   6   6   6  10  51  68  94 101  94  84  64  72  87  96 108 123 133 123 112 127 113  56  79 129 138 141 140 138 137 142 140 139 132 121 116 116 120 126 131 136 136 138 143 145 148 141 144 151 151 145 150 141 139 137 124 121 127 122 123 120 109 103 106 114 134 135 149 133 143 150 131 113  18   1   5   5   5   5   4   5   5   4   5   5
   3   3   3   2   2   1   2   2   1   2   1   6  48  67  89  98 106  95  89  86  88  96 105 112 121 119 123 118  88  54  86 129 138 142 141 136 135 138 145 146 148 139 131 131 131 134 135 136 133 136 143 144 144 143 150 155 157 146 144 143 140 137 126 121 125 124 120 117 109 107 106 116 138 133 136 127 132 138 133 116  23   8  10  12  12  11  12  13  12  11  12  12
   3   4   3   2   1   2   3   2   1   3   1   4  38  63  81 101 110 104 103 110 111 115 120 120 119 124 126 111  81  56  94 129 140 142 139 136 136 143 146 147 147 145 135 131 132 130 132 129 134 135 139 142 144 149 150 157 156 154 148 135 128 134 134 118 117 118 118 119 111 108 111 117 127 148 134 119 120 143 136 112  19  11  14  13  14  13  14  14  15  14  14  14
   3   4   5   6   5   4   5   5   5   5   5   4  33  59  79 101 112 112 111 114 120 124 124 123 126 126 121 105  68  59 104 131 141 139 136 136 134 144 148 145 145 144 141 138 133 129 126 129 134 136 144 153 156 154 158 157 150 148 146 132 121 126 128 123 123 119 114 115 110 111 112 115 122 159 133 107 122 141 126 100   7  13  13  13  14  14  13  14  14  13  13  13
   3   4  12  16  15  14  13  12  12  13  13  13  33  58  82  99 103 110 114 122 132 132 123 122 129 122 114  88  59  64 110 132 142 140 142 137 138 144 148 145 144 144 144 140 134 132 131 133 133 143 150 152 159 160 160 157 146 145 136 131 123 124 127 127 119 114 115 112 114 112 106 117 113 124 123 117 153 129 132  73   4  14  12  13  14  13  14  13  13  12  13  13
   3   5  14  20  17  16  16  16  15  16  16  16  34  59  82  93  92 106 120 131 136 135 129 125 121 111  95  80  56  70 112 130 142 140 134 128 139 147 146 148 148 147 138 132 138 140 138 134 133 145 154 153 163 160 156 158 149 146 140 131 121 126 126 124 117 114 119 117 118 117 112 116  94 129 155 136 135 130 133  41   6  14  14  13  14  13  13  14  14  13  13  13
   4   6  13  21  20  19  18  19  19  18  18  17  39  59  77  88  93 109 124 133 133 128 124 119 109  96  96  77  55  85 122 132 137 137 137 141 146 154 157 160 157 152 142 138 143 144 141 137 142 143 149 159 164 156 153 155 149 141 135 132 122 126 123 117 117 118 119 119 117 116 114 109 127 155 160 151 130 129 120  22   9  12  13  13  15  14  14  13  14  13  13  13
   3   4  13  22  22  21  21  20  20  19  19  18  37  58  76  89  98 113 124 129 130 124 113 106  99 100 106  71  59 114 134 139 139 138 137 140 149 158 162 162 160 151 149 151 148 146 141 142 149 149 141 154 162 152 153 152 147 145 136 135 125 128 125 117 119 117 118 126 117 119 111 107 134 157 158 156 149 134  93   6  11  12  15  15  14  14  14  12  14  13  13  13
   2   4  12  23  22  21  20  20  21  21  20  16  32  59  76  92  98 106 117 125 129 123 110 102 105 118 114  63  71 126 136 137 137 137 135 131 142 151 154 151 154 152 149 154 155 151 149 148 150 160 157 153 154 159 142 145 146 148 136 138 135 127 123 114 117 122 125 128 118 119 115 112 132 143 158 153 155 155  85   3  17  17  20  18  18  18  18  18  19  19  18  18
   4   3   7  15  15  12  12  10  10  10   9   6  17  57  73  82  94  99 111 124 125 121 112 112 122 132 126  55  78 123 130 134 135 132 133 125 125 133 140 148 138 148 144 151 158 157 155 157 161 168 170 170 157 148 144 146 142 141 137 135 133 126 123 113 113 125 133 127 126 125 115 111 143 135 146 157 155 161  85   3  15  19  19  19  19  21  21  21  20  21  21  21
   3   3   4   3   4   3   1   1   1   1   1   1   7  53  71  75  87  99 113 124 126 125 122 126 132 140 121  44  84 123 131 140 134 130 133 127 121 125 132 141 130 124 133 146 150 153 155 166 166 175 178 178 158 151 146 147 144 139 133 137 130 127 124 118 117 128 133 130 124 126 114 107 152 167 134 149 155 157  51   1  14  16  15  16  17  16  17  17  16  17  18  19
   2   3   3   2   1   4   2   0   0   1   2   0   3  44  72  71  82 103 111 123 129 127 129 134 137 145 107  41  96 124 138 142 142 137 134 133 132 131 135 135 138 121 101 123 140 145 152 155 164 178 182 173 158 159 151 146 145 138 133 136 137 125 124 118 123 131 132 135 126 122 114 105 142 173 152 139 155 121  16   3  11  14  14  14  14  14  15  15  14  15  16  18
   3   3   3   3   3   3   2   1   1   3   2   1   1  38  70  67  77 101 114 124 130 129 134 136 141 142  83  48 106 133 139 156 175 147 133 137 146 141 140 131 128 156 129  93 119 138 145 147 150 159 163 160 157 156 150 145 141 135 131 130 135 124 121 124 124 130 133 137 130 121 113 107 126 164 155 139 126  42  16   5   9  12  13  14  14  14  15  14  13  14  16  17
   4   4   4   3   3   2   3   3   3   1   2   2   0  32  70  65  73 101 113 123 132 134 137 139 134 128  59  48 107 137 136 145 160 145 131 131 129 136 139 122 124 166 166 128  90 119 138 140 145 152 162 159 156 152 144 139 139 135 133 133 132 133 126 126 130 131 132 129 124 120 114 110 104 103 133 108  46  13  17   6  11  13  13  14  12  14  15  14  13  15  17  16
   5   4   5   4   4   3   3   3   2   3   3   3   2  21  64  65  73 100 117 122 132 136 140 142 135 129  60  29  84 127 125 132 143 135 115  99  92  97 103 115 149 161 168 166 129  92 116 132 138 143 156 155 151 153 144 136 136 137 135 137 134 135 131 122 130 133 131 126 126 113 107 108 116  42  53  76  50  17   6   6  11  13  13  14  13  14  14  14  16  17  18  18
   4   5   6   6   5   4   3   3   2   2   4   4   4  10  60  68  75  94 115 123 130 133 141 144 138 133  88  27  32  96 117 119 126 109 115 145 150 143 134 154 161 162 169 165 161 131  92 114 132 135 145 144 148 149 140 139 139 134 136 135 137 139 136 127 130 133 129 123 122 107 102 114 117  93  88 101  67  18   5   7  10  12  11  10  11  11  11  12  16  16  14  14
   4   5   7   7   7   4   2   3   2   4   5   5   5   6  47  68  71  91 108 119 123 131 137 141 138 128 118  72  22  21  64  71  80  86 125 143 144 149 156 156 158 160 161 160 158 158 137  95 114 131 139 144 144 142 142 144 145 143 138 138 139 139 137 130 135 129 125 115 117 115 113 114 115 107 102 103  85  24   9  11  13   4   0   2   4   3   4   4   4   5   5   5
   4   5   6   6   7   7   6   6   5   5   5   6   6   4  32  61  64  87 106 120 124 129 137 139 137 123 115 110  79  55  53  71  95 122 129 136 148 150 145 143 149 149 154 156 158 155 162 142 101 121 138 141 145 144 140 138 147 144 140 139 136 137 140 133 136 131 126 120 120 114 114 116 111 105 101 101  95  29   7   8  21  39  37  10   0   0   2   4   3   4   4   4
   5   4   6   5   7   6   6   5   4   5   4   4   5   2  14  50  63  80 104 118 126 132 139 140 133 119 112 101  95  98 102 106 125 134 125 131 138 142 140 141 144 142 145 146 143 148 152 165 146 112 141 149 148 144 148 150 151 145 141 137 139 141 143 138 137 132 129 125 123 120 114 118 106 107 103 103 108  46   8   9  23  42  69  56  38   8   0   3   3   4   3   3
   7   6   5   5   5   6   4   2   2   2   2   2   2   2   6  38  59  75  97 114 123 131 141 136 126 115 101  94  95 102 105 108 115 124 123 123 136 142 142 138 141 142 139 139 132 150 146 145 165 139 114 154 155 153 154 154 152 146 141 134 139 139 141 142 138 125 126 127 125 122 114 120 105 105 101 105 112  57   8  19  29  23  47  70  72  54  12   0   3   3   3   3
   5   5   5   5   5   4   3   2   2   3   2   2   2   2   3  29  58  75  94 113 120 135 142 128 119 107  92  92  94 104 104 115 125 123 120 118 140 143 139 142 142 141 142 144 145 155 155 147 151 162 116 135 162 157 156 153 156 155 149 141 146 140 140 143 135 122 123 123 123 118 122 120 100 107 100 107 115  71  12  26  29  22  23  47  69  71  52   7   1   4   5   5
   5   5   5   4   5   4   3   2   2   2   3   2   4   2   2  18  59  74  98 116 120 133 140 121 109 100  88  92 101 105 103 121 132 124 121 115 134 143 144 147 142 141 149 156 158 161 162 153 144 158 136 131 162 158 157 159 158 158 155 150 144 145 143 141 131 118 121 125 124 119 127 116  98 109  99 110 119  58  17  28  26  24  12  27  79  77  70  43   6   2   3   6
   5   5   5   4   5   5   2   3   2   2   2   2   2   3   3  10  47  76  98 118 124 135 134 116 112 102  86  91 102 103 116 130 139 130 122 122 137 140 144 139 140 134 131 135 128 117 110 109 120 147 143 140 165 165 155 160 160 154 152 154 142 143 143 140 128 115 123 127 120 117 128 114  99 119 103 117 103  18  24  28  25  25  12  49  95  83  71  62  49  52  59  73
   5   6   5   5   6   5   3   3   3   3   4   4   2   4   5   6  35  71  99 117 119 140 132 114 119  97  78  92 105 104 111 115 119 119 114 113 111 105 100  93  92  89  83  79  78  76 106 122 117 141 140 152 168 165 161 162 159 154 152 157 150 141 138 137 127 118 122 122 120 127 126 110 103 117 105 119  48  15  29  28  25  25  20  68  84  71  70  68  73 112 139 155
   4   5   5   6   8   6   3   3   2   3   3   3   3   4   5   4  23  62  91 117 118 137 132 118 117  97  52  58  65  70  72  81  83  79  75  73  78  88  88  87  87 100 102 101 108 133 149 143 127 138 144 161 166 163 164 160 160 160 157 155 150 143 139 133 126 115 119 117 123 133 125 106 105 116 108  68  14  29  28  27  28  17  47  87  81  79  66  65  60  71 121 127
   5   5   5   7   8   6   3   2   2   3   3   4   3   3   5   4  11  48  82 114 120 131 137 131 123 117  82  53  46  59  62  80  91  96 102  94  89  93 110 117 112 111 113 119 127 147 150 147 135 136 149 159 162 162 166 161 160 159 155 152 147 139 137 127 124 114 111 118 134 131 124 106 110 124  80  16  28  30  27  25  24  28  86  85  85  77  67  69  63  57 100 129
   5   5   7   7   9   6   2   3   2   3   3   4   5   3   4   5   5  36  72 106 122 125 138 130 132 116  97  75  79  77  79  94 106 105 105 101 101 113 126 130 122 127 128 140 147 150 148 147 142 144 155 162 162 165 166 163 161 156 154 149 147 139 129 124 119 109 111 131 130 134 126 108 123 105  26  25  30  27  25  26  18  58  95  82  68  79  76  66  68  61  64 127
   5   5   5   6   8   7   4   3   3   4  11   8   4   5   4   6   4  20  57  95 120 121 141 129 130 109  94  79  73  83  95 103 114 115 115 121 123 131 134 137 141 143 140 142 148 148 140 144 144 148 153 159 161 165 159 158 157 154 154 144 140 135 122 121 116 105 123 132 124 132 123 118 122  37  22  31  27  26  26  21  33  96  97  99 102  78  66  76  63  77  58  75
   5   5   5   6   8   8   5   5   7   7  32  27   3   6   6   7   6   9  44  78 109 119 135 133 124 104  91  94  81  74  97 108 117 123 121 125 120 127 137 143 145 149 151 151 154 149 134 128 146 153 154 157 160 159 157 159 157 157 154 143 136 128 120 119 102 112 134 127 130 133 124 117  50  20  30  28  25  25  24  21  82 111 104  96  81  83  82  69  77  70  76  71
   5   6   6   6   7   7   8  10  11   8  16  15   5   5   5   5   5   2  22  63  98 114 134 132 121  96  91  97  99  91  98 114 121 123 119 131 123 126 136 145 152 151 160 162 159 156 151 134 144 152 155 158 159 158 158 159 156 155 153 140 134 127 120 106 102 139 132 130 139 134 122  50  19  31  27  25  26  26  16  55  99  95  93  99 105  81  77  82  65  77  75  76
   6   7   7   6   7   7  11  14  11   8   6   6   7   5   4   4   4   2   5  46  86 111 123 128 114  97  94  97 100 106 115 122 128 128 127 138 137 140 151 158 160 157 160 160 160 159 160 159 152 150 150 156 158 154 157 155 151 153 145 137 130 123 113  95 126 130 131 138 139 123  63  23  32  30  27  26  26  21  27  86  88  87  87  90  78  85  85  77  86  74  72  77
   9   7   6   5   7   8  12  12   9   7   6   7   7   6   4   4   5   3   1  22  72 106 114 115 113 108 103 107 109 109 127 130 133 135 134 131 142 148 147 159 163 164 162 158 162 159 157 159 156 141 155 156 155 156 153 156 153 149 140 135 124 116  93 109 124 126 137 138 129  67  22  32  31  27  25  25  26  17  69 101  94  92  94  86  81  79  83  82  80  86  89  83
  16   7   7   6   6   9  11   9   7   7   6   6   6   6   5   3   3   4   2   4  48  93 112 103 100 109 112 108 115 121 128 137 133 135 143 139 142 152 152 162 167 165 164 164 161 159 159 161 161 154 157 156 153 152 147 151 148 144 136 128 119  97  99 121 118 134 135 132  74  23  32  32  27  25  24  25  22  33  99 101  96  92  92  90  82  82  78  84  96  92  88  85
  23  10   7   7   7  11  11   7   7   8   6   6   4   6   7   5   4   3   3   1  18  70  93  88  80 100 107 107 117 126 131 133 127 128 139 144 152 155 160 165 162 164 161 166 160 161 163 162 158 152 159 154 154 152 153 151 141 137 133 121 103  89 124 126 130 139 145  85  22  34  33  29  24  24  23  24  25  71 114 101  96  92  92  88  83  84  89  85  82  86  85  84
  28  12   8   6   8  15  15   9   7   8   6   5   5   5   6   6   5   3   3   2   1  36  86  73  63  85 102 106 117 127 125 118 129 128 141 146 153 159 165 165 159 163 167 166 160 164 164 160 150 153 154 154 149 153 153 151 138 130 124 107  83 106 126 126 141 149  92  24  35  36  31  26  24  23  25  20  51  94 122  99 101  98  96  87  83  81  87  80  80  86  87  83
  30  14   7   5   9  15  16  10   8   8   6   4   2   4   6   7   6   5   3   2   1   3  57  78  55  69  94 102 115 123 118 112 126 136 148 139 142 156 161 160 158 166 168 162 166 164 155 153 150 151 151 148 146 151 151 144 135 124 108  83 100 121 125 137 148  95  21  34  37  33  29  23  22  23  22  36  80  95 114  96 101  96  89  91  86  91  87  85  83  86  87  85
  31  17   8   7   9  14  12  10   9   8   8   7   4   5   8   8   8   5   4   4   3   1   9  62  60  55  85  91 100 116 115 114 125 135 148 145 148 152 159 159 153 160 166 163 162 161 158 153 144 140 142 140 143 142 136 124 119 105  81  87 113 123 137 151 103  23  31  37  34  29  24  22  23  24  19  71  87  99 106  91  90  90  90  91  85  91  92  88  91  91  91  94
  27  19   8   8  11  14  11  14  12  10   9  10  10  10  11  12  14  12   9   8   6   6   3  12  52  36  61  93  91 105 119 115 123 135 137 145 150 155 157 159 155 158 159 162 162 160 156 148 131 124 128 130 128 122 117 109  94  70  85 111 122 137 149 107  24  32  37  36  30  24  22  21  23  22  36 100  83 103 105  96  95  89  83  85  84  86  91  88  87  89  86  90
  25  20   8   8  11  12  12  14  13  11  11  10  12  13  12  12  16  14  10   9   7   7   8   3   9  24  27  75  93  90 114 118 120 131 135 139 149 154 154 154 156 164 159 156 149 150 139 130 116 117 124 127 121 112  98  77  63  88 117 121 131 151 110  23  30  38  37  33  27  23  20  21  23  18  65 113  79 110  96  90  96  91  90  86  84  90  88  84  87  87  84  83
  23  17   9   8  10  12  12  11  12  11   9  10  11  13  14  13  14  13  10   9   8   7   7   7   5   5   8  35  83  92  91 119 128 122 128 134 141 146 144 146 149 154 155 151 145 133 123 122 107 112 120 116 105  87  63  62  95 113 123 128 152 121  27  28  38  36  35  30  24  20  20  22  21  34 108 123  96 133 120 110  98  88  90  86  88  90  95  88  93  89  83  87
  22  17   9   7   9  12  10   9   9  10  10  10  10  12  16  15  13  11  10  10   8   7   7   8   7   7   5   3  39  93  90 109 126 130 128 130 127 131 132 138 143 140 142 147 135 113 113 113 112 112 108  97  79  58  69 100 109 126 135 154 125  28  26  37  37  35  32  26  22  19  20  24  18  52 114 113  79 108  90  90  99 107 104  99  94  90  94  88  85  92  94  95
  22  17   7   6  10  13  10   9  10  10  11  11  11  13  16  16  12   9  10  10   8   8   7   7   7   7   7   5   4  51  98  99 116 126 123 124 124 128 136 137 138 134 132 118  92  95 102 112 115 109  96  76  60  80 105 115 128 141 152 129  29  25  36  38  37  34  30  23  20  19  21  21  39  76 124 121  97 137 118 108  90  83  87  91  94 103 104 104 103 105 101 102
  22  18   9   7  10  13  11  10  10  11  11  12  12  13  16  17  14  10   9   9  10   9   7   7   7   7   7   8   6   2  31  69  92 110 111 107 107 113 119 119 113 105  91  87 101 108 114 117 113  98  79  65  90 113 120 135 143 156 132  31  23  35  37  40  38  35  28  23  19  19  22  22  37  49  95  84  61  85  79  96 104 111 109 104  94  95  96  92  96 100  97 103
  20  20  12   7  10  14  13  12  11  11  11  11  12  12  16  18  16  14  11   9  10   9   7   7   7   7   7   8   8   8   2   5  29  50  63  64  61  63  68  73  75  81 102 120 121 117 117 111 105  91  81  98 122 134 139 145 158 134  33  20  34  37  39  39  36  30  26  22  21  22  25  26  60  85 139 128 108 137 101  89  69  69  74  79  89 100 101 100 105  96  88  84
  19  19  12   8  11  16  15  14  13  11  11  12  12  13  12  16  17  15  14  10  10  10   8   8   8   8   6   7   8  10   6   1   0   9  38  71  79  68  77  88 100 115 124 115 110 107 107 104  97  87  98 121 136 143 149 158 120  29  17  30  34  38  39  36  33  28  23  21  21  23  24  35  88 103  98  78  66 110  95 109 112 111 108  94  88  86  85  80  84  92  93 102
  11  10   8   7   9  15  16  14  12  10  11  13  12  12  10  12  16  15  16  13  10   9   8   8   8   8   7   8   9   9   6   2   0   0   4  32  67  83  79  90  99  98 101  95  89  86  87  84  78  87 105 128 141 145 155 103  19  17  30  34  35  39  37  36  31  25  22  20  21  24  26  53  69  94 125 106 106 113  75  74  69  75  88  95 100 106 111 101 100  92  88  78
