P2
# Generated by OpenCV 4.2.0
92 112
255
  24  21  15   9   4   0   0   0   0   0   0   0   0   0   0   0   0   1   8  17  27  34  41  50  53  56  61  65  69  72  80  84  86  84  81  74  66  57  49  38  25  11   1   0   0   0   0   0   0   0   0   1   0   0   0   0   0   0   0   0   0   0   0   0   0   0   0   0   0   0   0   0   1   1   1   1   1   1   0   0   0   0   0   0   0   0   0   0   0   0   0   0
  25  24  19  10   4   0   0   0   0   0   0   0   0   0   0   0   0   1  11  18  27  36  44  50  52  54  59  64  70  76  82  84  86  84  83  79  70  61  53  44  31  18   8   0   0   0   0   0   1   0   0   0   0   0   0   0   0   0   0   0   0   0   0   1   0   0   0   0   0   0   0   0   0   1   1   1   1   1   0   0   0   0   0   0   0   0   0   0   0   0   0   0
  22  26  20  11   5   1   1   0   0   0   0   0   0   0   0   0   0   1  11  20  29  35  44  48  50  56  61  66  73  77  83  86  86  84  84  79  74  65  57  48  37  24  12   0   0   0   0   0   0   0   0   0   1   0   0   0   1   0   0   0   0   0   0   0   0   0   0   0   0   0   0   0   0   0   1   1   1   1   0   0   0   0   0   0   0   0   0   0   0   0   0   0
  22  25  21  14   6   1   0   0   0   0   0   0   0   0   0   0   0   0  10  23  30  36  43  47  49  54  63  69  75  80  85  86  85  85  82  79  75  69  59  44  32  23  20  21  43  67  85 109 123 124 119 100  78  49  12   0   1   0   0   0   0   0   0   0   0   0   0   0   0   0   0   0   0   0   1   1   1   1   0   0   0   0   0   0   0   0   0   0   0   0   0   0
  24  25  21  14   6   0   0   0   0   0   0   0   0   0   0   0   0   0  10  22  29  36  41  44  49  55  63  71  76  81  84  86  85  84  81  73  67  74  92 114 133 157 184 208 229 239 245 248 249 250 251 249 246 234 207 156  83  16   0   0   1   0   0   0   0   0   0   0   0   0   0   0   0   0   1   1   1   1   0   0   0   0   0   0   0   0   0   0   0   0   0   0
  24  25  20  14   7   1   0   0   0   0   0   0   0   0   0   0   0   4  13  24  32  36  38  43  48  57  63  72  76  80  84  85  79  80  92 120 160 194 219 236 241 244 245 245 243 240 242 243 242 243 243 244 244 244 248 252 249 206 112  17   0   0   0   0   0   0   0   0   0   0   0   0   0   0   1   1   1   1   0   0   0   0   0   0   0   0   0   0   0   0   0   0
  23  25  21  12   4   1   0   0   0   0   0   0   0   0   0   0   0   9  19  26  30  29  32  38  45  54  64  71  78  78  75  87 125 171 207 232 235 235 235 235 237 239 243 245 244 243 244 244 245 245 245 243 243 241 243 242 243 247 248 202  96   4   0   0   0   0   0   0   0   0   0   0   0   0   1   1   1   0   0   0   0   0   0   0   0   0   0   0   0   0   0   0
  18  20  17   9   3   0   0   0   0   0   0   0   0   0   0   0   2  11  18  22  25  27  30  34  43  53  64  69  69  83 140 198 230 234 233 229 230 229 230 234 236 239 242 244 243 243 245 247 247 247 245 244 244 243 242 243 243 241 240 246 247 179  64   0   0   0   0   0   0   0   0   0   0   0   1   1   1   0   0   0   0   0   0   0   0   0   0   0   0   0   0   0
  17  17  13   7   2   1   0   0   0   0   0   0   1   0   0   0   5  11  17  22  26  28  33  39  44  53  55  67 126 198 233 231 228 227 225 223 225 227 229 231 235 238 240 243 243 243 245 246 247 247 246 245 245 245 242 241 243 243 240 240 242 250 241 155  41   0   0   0   0   0   0   0   0   0   1   1   0   0   0   0   0   0   0   0   0   0   0   0   0   0   0   0
  17  16  11   4   2   1   0   0   0   0   1   0   0   0   0   2   8  15  23  26  30  33  38  43  49  48  83 175 228 230 225 223 226 224 223 220 220 221 225 227 230 234 236 239 241 243 244 246 245 246 246 245 245 245 243 241 242 242 242 240 240 240 243 250 225 127  18   0   0   0   0   0   0   0   1   0   0   1   0   0   0   0   0   0   0   0   0   0   0   0   0   0
  17  16  12   4   1   0   0   0   0   0   0   0   0   0   2   8  16  24  29  34  38  42  46  47  44 104 206 229 222 220 223 221 222 218 217 217 218 219 220 221 223 229 233 237 237 240 243 243 244 244 244 245 246 244 244 242 241 241 241 241 241 240 239 239 244 249 203  76   0   0   0   0   0   0   0   0   0   0   0   0   0   0   0   0   0   0   0   0   0   0   0   0
  18  17  12   6   1   0   0   0   0   0   0   0   1   5  12  18  22  29  34  38  40  44  44  39 113 213 220 215 215 217 218 214 212 212 211 212 212 213 218 220 222 225 229 231 234 236 241 242 242 243 244 243 245 245 245 244 242 238 237 239 240 238 237 237 236 237 243 243 147  19   0   0   1   1   0   0   0   0   0   0   0   0   0   0   0   0   0   0   0   0   0   0
  20  18  13   6   1   0   0   0   0   0   0   0   2  10  15  20  23  28  33  37  42  39  33 116 208 210 209 210 209 210 209 207 200 196 201 207 206 212 216 220 223 229 229 230 233 235 238 241 243 243 243 243 245 246 246 244 242 238 236 234 237 238 235 234 235 235 234 237 250 200  60   0   0   0   0   0   0   0   0   0   0   0   0   0   0   0   0   0   0   0   0   0
  24  19  13   6   1   0   0   0   0   0   0   0   4  13  17  21  24  26  28  31  27  24 112 209 204 200 205 199 196 199 198 198 193 190 194 202 205 210 212 216 218 225 224 221 226 231 234 239 242 244 243 243 245 247 246 244 242 240 237 234 235 237 235 235 233 229 228 230 234 245 234 102   0   0   0   0   0   0   0   0   0   0   0   0   0   0   0   0   0   0   0   0
  25  21  14   6   2   0   0   0   0   0   0   0   6  11  15  14  14  17  19  12  14 123 202 195 195 197 198 191 188 191 195 195 198 200 196 197 202 205 203 209 216 215 218 219 219 222 227 234 239 242 244 243 244 245 245 244 242 239 237 234 234 237 237 237 235 231 227 229 229 233 240 247 129   1   0   1   0   0   0   0   0   0   0   0   0   0   0   0   0   0   0   0
  22  20  14   7   1   0   0   0   0   0   0   0   1   3   6   6   7   9   1  15 136 202 187 181 189 191 190 193 193 191 197 199 198 196 196 193 195 200 201 206 212 212 213 215 219 218 222 229 233 237 240 244 245 243 245 243 241 238 237 235 233 236 238 238 234 232 228 226 224 229 230 240 249 142   1   0   0   0   0   0   0   0   0   0   0   0   0   0   0   0   0   0
  20  18  15   7   2   0   0   0   0   0   0   0   0   0   1   3   3   1  15 148 192 176 171 175 183 184 186 193 190 191 192 185 192 192 188 190 191 196 204 209 210 208 209 209 211 214 222 223 228 231 236 241 243 244 244 243 240 238 235 233 232 233 236 236 235 233 229 226 225 227 228 228 234 247 133   0   0   0   0   0   0   0   0   0   0   0   0   0   0   0   0   0
  18  17  13   7   2   0   0   0   0   0   0   0   1   0   1   2   0  15 151 190 167 169 160 164 171 174 183 184 187 185 182 176 185 187 189 190 189 194 202 205 207 209 207 205 209 216 219 214 219 224 230 237 241 243 244 243 239 236 232 231 232 232 233 233 235 232 229 228 228 226 227 220 222 233 241 107   0   0   0   0   0   0   0   0   0   0   0   0   0   0   0   0
  17  16  11   5   2   0   0   0   0   1   0   1   1   0   0   0   7 139 196 160 161 149 143 148 158 164 174 176 180 184 182 184 187 183 186 191 190 195 197 199 203 207 202 202 207 217 216 209 214 220 228 234 238 240 242 240 237 234 230 229 230 231 233 235 235 231 230 229 227 225 226 223 220 220 232 232  67   0   1   1   0   0   0   0   0   0   0   0   0   0   0   0
  17  15  11   4   2   0   0   0   0   0   0   0   0   0   1   1 104 198 158 150 144 132 133 138 146 153 166 172 172 182 183 188 191 188 182 186 190 193 195 197 203 207 204 204 208 211 210 208 212 215 227 232 235 236 236 234 231 228 228 227 227 230 230 229 231 229 228 228 228 227 229 230 224 218 220 233 200  23   0   1   0   0   0   0   0   0   0   0   0   0   0   0
  16  16  12   5   2   1   0   0   0   0   0   0   1   1   0  60 185 167 138 140 129 112 118 126 137 152 162 165 164 170 175 187 191 190 191 191 186 186 192 196 204 205 204 209 207 207 208 209 211 215 222 226 230 229 228 227 223 229 227 220 223 225 224 223 224 226 226 227 229 232 231 232 229 222 214 216 233 137   0   0   0   0   0   0   0   0   0   0   0   0   0   0
  16  16  15   7   3   1   0   0   0   0   0   0   0   0  18 149 171 152 136 134 120 103 111 123 139 149 160 161 162 161 166 172 185 189 191 194 189 188 186 190 198 197 199 208 205 204 207 208 210 214 216 216 221 220 220 218 227 229 217 213 216 217 218 218 217 220 225 225 230 235 235 235 231 226 216 211 219 222  55   0   0   0   0   0   0   0   0   0   0   0   0   0
  19  18  15   8   3   1   0   0   0   0   0   0   1   0  87 160 150 144 125 115 107 106 112 122 132 141 156 160 152 151 163 165 179 185 183 185 182 186 183 183 188 188 191 196 197 199 198 200 203 207 205 203 200 203 204 208 213 213 204 204 209 208 208 209 213 213 221 225 230 235 236 235 233 228 220 212 213 224 165   3   0   0   0   0   0   0   0   0   0   0   0   0
  24  21  15   9   3   2   0   0   0   0   0   0   0  22 130 135 126 120 111 107 100 107 108 112 121 130 139 148 142 137 146 156 166 171 177 178 174 176 173 170 181 182 185 181 182 188 185 188 189 188 188 186 184 183 188 194 192 192 192 192 203 204 201 206 210 211 220 226 232 235 236 237 235 229 222 214 212 214 222  69   0   0   0   0   0   0   0   0   0   0   0   0
  28  24  19  13   7   1   0   0   0   0   0   0   0  65 124 123 114 102 108 112 105 103 104 115 119 128 136 144 155 154 151 156 164 170 180 178 176 175 172 169 173 171 177 179 170 171 170 170 178 177 177 177 177 179 186 190 188 178 177 191 193 199 200 204 206 215 221 223 231 232 234 234 232 231 224 218 213 211 222 153   0   0   0   0   0   0   0   0   0   0   0   0
  28  25  20  13   6   1   0   0   0   0   0   0  13 100 117 118 105  99 109 112 111 104 103 116 126 138 148 153 157 159 158 153 161 165 169 176 178 175 175 175 177 172 175 184 177 169 171 170 174 176 169 168 173 175 174 176 176 171 178 193 190 196 205 205 202 212 218 224 229 228 229 230 231 231 226 220 216 213 214 206  36   0   0   0   0   0   1   0   0   0   0   0
  30  26  19  13   4   1   0   0   0   0   0   0  44 108 110 109 102 106 111 115 111 110  99 107 125 137 142 151 153 158 161 160 163 163 165 173 180 171 168 167 173 166 167 175 182 183 174 170 169 169 172 164 158 163 162 159 169 172 179 186 192 203 202 200 205 212 219 222 223 227 226 225 226 225 224 221 217 216 214 221  93   0   0   0   0   0   0   0   0   0   0   0
  28  23  17  13   5   1   0   0   0   0   0   1  67 102 105 107 104 106 113 117 114 110 103 107 122 132 144 158 159 168 174 175 173 167 169 173 177 171 168 168 170 176 178 178 182 191 188 176 168 167 167 168 157 153 157 161 164 171 176 175 188 203 204 200 204 210 216 217 218 221 221 217 220 220 215 216 217 215 213 218 152   2   0   1   0   0   0   0   0   0   0   0
  22  19  16  11   4   2   0   0   1   0   0  12  82 101 109 111 108 110 111 121 118 111 110 110 122 131 145 162 169 170 170 177 179 167 167 172 176 167 156 165 175 180 187 188 186 190 188 184 181 172 164 168 163 149 156 159 157 162 163 177 195 198 195 198 208 211 214 213 213 215 219 215 214 214 211 211 213 212 209 212 194  30   0   1   0   0   0   0   0   0   0   0
  18  18  12   7   4   2   0   0   0   0   0  24  97 100 107 115 107 113 113 121 115 114 115 108 124 136 145 158 164 169 172 172 179 171 155 150 146 147 143 146 158 170 180 189 195 200 197 194 192 186 173 163 168 156 159 165 161 158 162 178 186 188 181 191 210 209 212 210 210 211 210 209 209 209 206 205 206 209 208 208 213  71   0   1   0   0   0   0   0   0   0   0
  17  15  10   6   4   2   0   0   0   0   0  40  99  94 102 115 111 118 123 125 113 116 122 116 131 150 160 168 179 181 189 196 205 204 198 199 179 168 166 172 177 179 186 187 192 194 198 194 185 190 186 171 161 159 162 158 156 162 160 159 174 185 190 208 207 202 205 203 203 201 200 202 204 200 201 199 201 205 207 204 212 110   0   0   0   0   0   0   0   0   0   0
  16  13   9   5   4   2   0   0   0   0   1  53  96  96 106 117 117 120 120 128 124 120 128 123 129 143 155 163 173 176 182 190 200 195 198 213 213 204 192 185 191 201 208 209 207 204 202 198 184 177 181 169 156 163 159 163 166 160 162 161 173 185 198 204 196 193 197 198 195 192 194 190 192 194 194 197 194 196 203 199 207 143   0   0   0   0   0   0   0   0   0   0
  13  12   9   5   3   2   0   0   0   0   1  67 100 101 111 118 117 123 128 128 130 126 133 131 125 137 148 155 166 170 181 189 190 190 190 205 206 193 182 176 186 193 202 205 207 206 208 212 206 198 191 183 180 173 166 160 162 165 168 179 177 186 194 188 188 185 188 195 191 183 187 189 190 184 178 180 184 186 195 201 205 156   3   0   0   0   0   0   0   0   0   0
  13  12  10   6   4   2   0   0   1   0   7  80  99 101 113 114 117 124 127 131 132 126 136 140 128 131 132 139 154 165 181 196 197 190 186 197 199 188 178 176 183 191 196 193 195 196 192 196 198 192 186 186 195 193 188 166 157 170 183 192 192 186 184 186 186 180 186 187 189 180 179 183 183 181 175 170 176 180 188 197 201 170  15   0   0   0   0   0   0   0   0   0
  13  11   9   7   4   2   0   0   1   0  17  84  95 101 110 111 116 122 129 138 140 130 132 130 122 126 131 138 158 164 176 192 196 179 172 185 190 183 168 168 178 186 190 185 183 175 172 174 177 181 184 191 196 196 191 191 189 183 187 193 187 181 176 175 177 178 179 180 183 180 173 175 174 174 172 166 156 172 178 185 195 174  23   0   1   0   0   0   0   0   0   0
  11  10   9   7   4   2   0   0   0   0  23  85  96  99 107 112 124 131 135 138 141 137 132 131 119 125 131 127 138 150 168 176 180 160 160 165 178 169 153 158 166 169 169 161 148 151 152 158 168 171 178 193 201 206 212 214 217 215 199 183 180 179 179 175 168 171 176 176 179 177 177 174 170 169 164 158 151 164 172 181 190 177  27   0   1   0   0   0   0   0   0   0
  11  11  11   7   4   2   0   0   0   0  32  87  94  99 104 116 124 127 129 127 129 131 126 127 123 125 126 123 130 137 141 145 154 144 144 154 158 142 135 141 150 154 155 141 122 131 143 149 157 159 175 193 198 206 212 220 219 209 199 188 188 187 178 169 162 165 174 174 174 171 174 164 162 164 161 156 160 159 162 173 187 175  25   0   0   0   0   0   0   0   0   0
  13  11  11   7   4   2   0   0   0   0  39  84  90  99 108 114 113 115 105  92 100 113 120 123 124 127 131 123 115 116 113 116 128 134 133 142 128 130 132 129 134 145 152 151 153 152 154 146 148 168 184 189 193 203 209 211 209 199 192 190 180 180 177 163 154 160 177 177 172 170 163 161 156 150 154 156 148 150 155 160 183 174  27   0   0   0   0   0   0   0   0   0
  11   8  10   7   4   2   0   0   0   0  44  79  82  98 110 108  98  87  80  73  72  79  94 110 124 125 125 114 108 108  99  94 114 120 122 128 110 114 120 114 104 122 141 160 177 176 162 155 154 165 181 189 197 197 206 206 204 201 190 185 183 170 166 159 150 157 172 172 166 168 166 160 147 143 144 145 134 141 148 157 174 175  36   0   0   1   0   0   0   0   0   0
   9   6   9   4   4   3   0   0   0   0  50  74  82 103  98  81  74  73  73  75  72  60  61  67  79  86  89  99 101  86  74  82 101 106 110 115  99  92 102 100  89  98 128 144 159 157 158 164 173 169 176 176 175 178 182 181 185 192 191 187 181 168 151 147 147 151 150 160 161 170 173 164 148 139 148 149 133 138 143 141 159 180  47   1   0   0   0   0   0   0   0   0
   7   7   7   5   4   2   1   1   0   1  56  75  84  93  80  65  65  75  70  71  63  54  51  43  33  34  38  55  58  58  66  72  81  85 100 113  92  70  88  85  78  86 109 130 139 135 133 152 158 160 154 145 137 152 165 175 177 172 176 178 171 164 147 137 145 147 140 149 160 172 170 166 150 143 148 149 131 131 140 137 153 185  61   1   0   0   0   0   0   0   0   0
   6   7   7   6   3   1   0   0   0   5  59  72  81  79  70  65  73  78  74  67  57  55  49  37  24  22  27  37  42  47  54  64  59  67  91 104  95  63  67  73  64  60  69  88 106 109 104 100 106 107 106 121 126 128 132 144 159 158 165 166 163 160 157 144 140 138 147 149 155 151 162 157 147 135 127 137 133 122 133 138 153 183  81   0   0   0   0   0   0   0   0   0
   7   7   7   5   3   1   1   0   0  12  65  72  75  75  72  67  70  76  82  78  73  73  63  45  34  29  30  30  33  38  41  50  62  86  95  91  91  73  53  55  54  52  52  49  52  62  64  63  67  78  92 102 114 125 119 107 113 123 149 160 162 158 165 156 137 132 135 145 147 147 146 146 134 118 120 124 121 115 120 132 147 171  71   0   1   0   0   0   0   0   0   0
   7   5   5   5   4   1   1   0   0  17  75  76  70  71  66  62  64  64  60  55  53  48  45  30  19  16  13  18  22  25  31  40  72  99  97  94  94  85  58  46  47  45  46  45  36  34  37  44  56  77  92  97 111 118 111 107 106 103 110 130 152 159 168 163 148 141 133 146 151 147 136 133 135 126 118 111 118 120 114 129 142 155  53   0   1   0   0   0   0   0   0   0
   5   6   6   5   3   1   0   0   0  22  77  76  66  60  52  51  53  37  15   7   5   2   6  14  13   4   4   8  11  14  19  34  70 101 104 105 100  86  60  45  40  35  32  32  35  38  46  56  76  92  91  93 104 108 107 104 101  96  90  97 116 139 156 166 153 133 138 145 141 137 136 133 134 141 128 117 126 126 121 129 142 144  44   1   1   0   0   0   0   0   0   0
   7   6   6   4   3   1   0   0   0  29  78  74  64  55  44  37  35  10   2   2   0   0   0  24  39  23  10   7   8  10  15  23  76 139 154 154 125  95  70  47  32  22  21  19  17  19  28  46  69  77  77  85  90  88  88  91  91  87  77  78  89 109 123 146 155 149 138 137 133 133 140 140 143 138 131 122 128 121 119 127 136 135  25   0   1   0   0   0   0   0   0   0
   6   6   5   3   2   1   1   0   0  33  81  81  75  63  40  28  15   7  12   4   0   1   0  31  59  47  31  13  15  17  15  23  95 163 188 199 171 137  98  53  23  17  15  13   8   4   5   4   7  12  23  39  45  58  69  71  72  68  58  60  64  77  95 105 141 143 133 132 134 140 142 147 150 142 128 126 126 119 123 134 135 118  10   0   0   0   0   0   0   0   0   0
   4   4   4   3   2   1   1   0   0  39  82  85  88  70  49  41  29  31  51  28   0   1   5  55  74  57  30  14  11  19  25  36 112 168 191 204 173 135 100  63  29  22  19  11   8   4   8   0   0   0   1  22  29  23  30  41  52  51  44  43  51  57  69  86 120 135 128 127 135 136 138 148 155 145 127 124 123 122 128 140 140  88   1   1   0   0   0   0   0   0   0   0
   4   3   3   3   3   1   1   1   0  44  86  95  94  96  94  75  65  64  67  73  48  37  47  77  71  56  50  46  43  46  44  65 138 184 195 203 173 131 109  80  45  44  35   9   8   4   7   0   0   0   4  39  47  31  13  11  20  30  33  30  37  44  61  87 103 128 136 139 132 136 144 152 150 141 145 124 115 118 133 158 144  38   0   0   0   0   0   0   0   0   0   0
   4   3   2   2   2   2   2   0   1  47  88 101 113 116 109  98  95  87  67  81  87  84  80  84  83  81  85  87  86  83  77 104 158 185 200 209 176 132 114  97  65  68  72  54  46  43  35  22  12   9  35  52  46  36  22  14  10  12  22  28  41  56  73  84  99 131 144 141 130 139 141 139 150 154 149 118 110 121 129 144 141 137 168 101   3   1   0   0   0   0   0   0
   3   3   1   2   1   2   1   0   0  48  91 105 116 116 115 111 108 104  80  72  78  89  93  97 102  98  92  93 111 122 111 135 174 188 210 213 175 138 124 117  97 103 106  83  74  76  82  86  82  77  89  85  80  81  60  54  61  53  40  47  64  88 102  99 119 138 136 127 125 131 141 146 152 146 140 118 110 119 119 161 224 235 223 231 111   0   0   0   0   0   0   0
   3   3   2   2   3   3   1   1   1  53  99 107 116 123 123 123 118 112 114 106 101 102 101 106 106  98  98 116 141 135 125 157 186 201 215 193 152 139 132 131 129 132 133 111 104  91  91 100  96  97 102 107  97  88  90 113 124 116 101 111 120 124 126 131 137 135 140 135 116 122 130 141 147 138 125 113 105 111 160 221 223 189 182 192 193  23   0   0   0   0   0   0
   3   3   3   2   3   2   1   1   2  57  95 103 116 123 129 135 132 124 127 128 121 125 119 115 102  98 127 148 146 127 131 173 195 213 216 182 155 147 145 144 150 153 167 149 115 116 111 105 100  99  95  95  88  99 128 146 143 147 159 171 181 179 171 167 152 147 130 119 116 116 124 136 135 128 115 107  91 137 197 207 182 131  97  88 157  64   0   0   0   0   0   0
   3   3   3   2   2   2   2   1   3  61  89 108 117 121 129 141 142 136 133 138 127 117 103 106 110 133 157 151 138 126 147 182 202 223 219 186 164 158 148 148 166 170 184 182 142 115 126 134 138 141 142 145 143 145 150 158 170 186 196 199 205 203 189 176 163 148 126 120 125 119 121 130 133 122 118 107 111 165 170 159 110  40  39  59  99  75   0   0   0   0   0   0
   3   2   2   1   1   2   2   1   7  64  86  97 111 121 124 136 142 145 151 152 147 134 124 134 145 157 158 147 138 142 173 193 207 224 218 188 165 152 148 154 170 176 186 191 184 142 111 115 138 152 162 166 171 168 175 183 194 204 213 212 208 203 196 174 162 152 144 136 129 122 121 119 130 125 119 112 138 148 117 102  48  36  46  53  84  80   0   0   0   0   0   0
   3   2   1   2   2   3   2   2  10  61  81  89 106 117 126 134 141 155 157 147 145 149 154 154 156 152 155 140 128 163 193 204 215 228 220 197 176 157 159 168 173 181 194 191 186 182 157 134 129 146 165 169 184 198 201 207 213 216 219 211 204 192 177 171 157 141 140 137 130 121 120 119 123 126 115 122 135 100  91  65  51 108  83  42  87  80   0   1   0   0   0   0
   3   2   2   2   2   3   3   2  14  62  81  88 105 112 123 134 141 150 154 153 150 156 156 158 159 152 139 116 121 170 191 204 216 228 224 203 182 164 164 167 172 184 196 194 185 186 179 179 166 165 172 187 201 208 211 215 214 210 209 203 191 177 164 159 157 138 138 133 126 120 115 109 116 125 114 125  90  63  74  86 138 171 118  48 106  88   2   3   0   0   0   0
   1   2   2   1   2   3   3   1  19  65  77  86 100 109 112 121 136 141 149 158 162 162 161 162 154 149 112  98 140 174 191 203 215 227 220 204 187 159 152 145 158 179 184 196 194 189 185 186 180 177 177 187 192 196 203 204 196 191 189 187 180 169 154 149 148 139 132 126 123 120 113 107 119 124 119 125  67  57  59 115 163 182 131  70 133  86   7   9   3   0   0   0
   1   1   1   1   2   3   3   1  25  62  71  80  95 106 118 122 134 144 154 162 161 164 161 155 146 128  95 120 158 173 188 205 214 223 212 207 196 161 134 121 138 160 170 184 194 191 189 186 181 173 171 174 177 181 180 179 180 174 176 175 168 162 147 138 136 130 123 126 120 111 115 108 124 127 121 148 100  42  37  69 121 172 146 108 147  59  15  19   9   1   0   0
   2   0   0   1   2   3   3   2  33  61  64  82  92  97 116 124 139 148 160 165 161 157 151 142 129  94 102 130 139 155 165 182 200 200 202 206 194 184 163 126 113 139 173 179 189 196 194 190 187 179 171 164 164 166 166 163 162 162 159 155 157 149 139 128 117 121 119 117 117 114 111 108 117 125 128 177 134  31  27  64 117 163 163 148 123  35  24  20  13   5   2   0
   2   0   0   1   2   4   3   2  38  60  66  80  91 101 117 129 140 151 158 157 159 153 148 136 112  96 126  91 106 126 135 145 156 161 168 153 170 197 198 168 108 110 142 166 178 192 199 199 190 183 184 175 172 162 158 154 151 151 152 145 145 137 129 125 117 117 118 110 112 109 109 111 127 132 144 186 147  25  31  79 123 159 175 174  90  29  32  25  16  10   5   0
   1   0   0   1   2   3   2   4  48  61  64  72  87 100 111 127 138 149 157 149 148 141 134 126  96 105 105  73  79  91  97 104 110 110 112 102 129 171 188 183 127  92 123 143 167 183 189 196 189 177 186 185 179 168 155 149 144 150 144 138 133 129 118 116 123 120 112 116 112 110 106 108 132 144 163 185 143  25  36  87 125 163 191 191  64  31  36  31  22  16   9   2
   1   0   0   1   2   2   2   8  53  62  67  74  85  95 110 125 133 146 148 144 140 135 119  95  76  95  83  48  54  68  63  67  74  69  60  53  70 114 159 170 139  93 109 134 153 167 178 185 186 183 182 178 168 163 155 146 137 144 139 132 125 123 113 112 119 125 104 103 107 109 107 122 144 155 174 174 113  31  48  99 129 176 205 183  51  38  40  33  27  20  12   5
   1   1   1   0   2   2   2  11  60  62  71  76  86  95 110 125 130 135 142 136 133 127 103  69  77  82  58  20  11  48  54  53  54  45  18   1   9  57 114 143 132  98  88 114 142 153 166 174 179 178 173 172 167 161 148 135 140 132 129 123 122 117 106 107 114 110 104 103 105 108 122 136 149 153 167 144  85  77  90 135 157 186 205 174  43  39  39  34  29  23  17  11
   0   0   0   1   1   1   1  18  65  59  67  76  84  95 108 120 126 130 135 126 123 109  79  68  89  76  42  13   1  28  50  48  50  22   3   1   0  21  66  92 111 109  81  85 119 140 157 164 170 169 165 157 155 146 143 139 133 129 120 119 117 111 104 110 105 104 107 103 100 107 126 133 145 153 159 114 120 141 134 157 187 191 198 146  33  39  38  33  29  25  19  16
   0   0   0   0   0   0   1  24  68  59  65  77  80  93 104 111 115 117 114 113 108  84  61  82 102  86  43  28  23  25  34  40  39  18  10   6   5  19  47  55 100 134 103  74  98 125 143 150 157 160 157 153 145 137 137 136 130 131 112 110 117 115 102 103 108 109 105 106 105 112 129 145 148 152 147 142 174 170 172 191 205 156 189  99  30  38  35  33  29  26  19  16
   0   0   0   0   1   0   1  27  71  62  72  82  85  89 103 108 104 100  95  95  85  76  73 102 112  93  77  72  62  44  31  24  19  11   9  10  19  32  39  66 134 159 145  88  85 107 124 139 134 141 146 147 141 138 134 134 130 126 111 106 115 118 109 115 106 103 102 110 114 128 132 147 153 146 150 185 209 212 201 189 151 160 173  49  31  32  32  30  26  23  18  17
   0   0   0   0   0   0   0  30  75  63  72  81  83  88  98 103 105 101  94  84  80  73  94 122 120  97  92  89  73  58  43  29  21  19  30  43  66  81 102 146 168 175 172 126  76  97 113 126 127 136 137 131 131 130 133 129 124 121 115 111 110 115 111 109 102 102 107 113 123 123 133 148 153 147 150 190 198 187 190 184 151 190 104  18  29  28  26  26  24  22  18  17
   0   0   0   0   0   0   0  33  79  66  71  81  80  88  91  93 100  96  88  91  92  95 119 124 114 101  95  90  80  70  51  36  40  58  81  96 112 133 160 171 174 181 174 155  94  80  98 107 120 127 128 131 131 126 125 125 118 112 110 119 118 119 111 113 106 107 112 117 125 125 146 153 148 147 147 137 149 166 200 219 207 156  35  17  24  23  24  24  23  22  20  20
   0   0   0   0   0   0   0  34  78  66  71  77  79  80  88  88  91  90  88  98  98 118 127 118 115 106  96  91  88  77  58  53  62  90 116 132 145 159 173 177 175 178 177 171 125  81  93 113 119 119 125 130 125 117 116 119 123 120 115 114 121 117 112 122 119 118 124 126 128 130 139 150 150 141 163 161 153 172 190 217 224 102   7  18  18  18  19  22  23  22  22  23
   0   0   0   0   0   0   0  32  78  70  69  76  75  80  86  87  83  88 101 104 114 128 118 114 120 120 106  99  93  84  68  66  77 103 126 144 163 170 171 174 175 176 170 169 142  96  93 103 106 113 117 116 125 125 116 111 117 119 114 116 108 108 111 119 127 127 130 128 129 133 129 141 143 146 163 201 179 178 191 199 213  66   1  13  13  15  16  21  23  25  25  27
   0   1   0   0   0   1   0  30  77  74  72  76  77  84  90  86  81  85 100 107 123 125 110 109 121 125 117 116 115 115  94  93 104 127 143 160 164 173 172 165 174 172 160 163 151 114 100 106 104 106 111 116 119 117 116 113 111 117 111 111 112 111 114 120 131 131 128 122 125 128 127 131 130 144 141 177 206 184 181 178 179  47   0   8   9  13  18  21  25  27  26  30
   0   0   0   0   0   1   0  25  71  77  75  74  77  79  84  86  85  88  99 115 121 116 102 118 129 129 117 111 115 137 143 143 154 169 180 185 185 179 174 175 173 165 166 168 159 137 110 109 111 106 104 110 114 114 118 119 111 109 111 104 109 114 121 122 127 135 133 126 122 121 122 127 128 138 106 124 179 194 158 150 103  13   1   5   9  13  18  21  24  26  28  31
   0   0   0   0   0   1   0  19  69  78  76  75  75  78  83  85  87  98 110 116 108 102 106 103  78  69  65  62  58  74 116 130 114  97 101 124 156 180 191 190 178 154 153 164 158 141 116 114 115 104 102 104 112 114 111 118 120 112 112 105 105 119 129 129 131 140 133 125 120 119 119 124 123 131  78  89 128 155 123  88  19   0   2   4   8  11  16  19  25  28  32  34
   0   0   0   0   0   0   0  15  67  76  76  76  73  76  85  90  94 102 112 111 102  90  86  55  24  18  16  25  32  32  35  39  42  48  46  46  61  97 135 168 185 171 143 142 144 145 126 114 116 109 104 101 103 107 104 108 113 112 114 111 109 117 130 133 130 133 129 117 113 119 117 115 116 123  55  60  76  88  60  11   0   0   3   6   6   9  14  20  25  30  34  37
   0   0   0   0   0   0   0  10  57  74  77  79  76  74  83  86  91 105 112 105  93  70  40  17  10  18  31  36  28  18  15  14  15  25  23  19  24  29  37  70 120 154 143 123 134 142 127 114 115 115 102 100 102 106 116 109 105 114 114 108 111 115 122 132 129 133 132 111 100 113 112 106 106 116  33  23  37  24   4   0   1   1   3   7   8   9  15  21  25  29  34  38
   0   0   0   0   0   0   1   4  47  71  76  79  73  73  81  85  89 104 106  99  76  46  20  30  51  87 110 126 117  97  81  58  50  49  49  46  33  15  13  16  31  74 102 104 121 130 126 121 123 115 106  97  97  98 107 100  96 114 117 108 108 115 129 133 131 130 116 103  88  94  98  93 107 110  21   0   0   0   0   0   0   3   4   9   9   9  11  20  25  29  33  38
   0   0   0   0   0   0   1   2  37  69  79  77  71  73  84  92 102 107  97  82  59  45  66  86 101 106 120 130 148 154 154 159 164 169 168 156 133 100  76  45  17  13  27  51  85 116 139 124 122 111 102  95  89  90  97  95  96 105 111 104 113 116 119 127 129 121 103  94  92  93  90  92 110  94   7   0   0   1   0   1   2   4   7  11  10   9  12  18  22  26  30  35
   0   0   0   0   0   0   0   3  30  68  82  79  71  73  85  93 104 111  94  73  59  66  82  64  64  72  85  91  94  92 111 132 143 156 163 153 141 143 141 127 106  83  49  21  46  83 120 126 120 121 115 104  96  91  95  99  95  98 104 107 111 108 110 117 120 115  98  91  84  86  89  93 107  73   0   0   0   0   0   1   3   6  10  12  12  10  10  15  19  24  29  35
   0   0   0   0   0   0   1   1  26  62  79  78  73  75  83  93 102 106  96  75  69  84  85  73  59  54  53  52  47  37  50  56  61  77  96  98 105 111 115 114 114 112  99  56  45  72  94 123 125 119 116 109  97  92  96  98  93  91  96 102 100 104 109 111 110  98  89  78  69  75  77  89 105  52   0   0   1   1   2   2   5   7  10  13  12   6   6  12  16  22  28  34
   0   0   0   0   1   1   1   1  17  52  70  80  78  76  82  96 101  93  82  79  87  91  89  89  81  64  51  41  40  38  44  44  39  41  46  53  60  65  62  67  63  69  82  84  61  71  97 121 119 118 112 108 100  92  95  95  93  89  95  98  99  98 101 104  97  87  77  68  67  68  78  94 100  31   0   0   0   2   3   4   6   7   9  12   9   3   3   9  14  17  24  31
   0   0   0   0   0   0   1   2   7  42  65  81  80  80  82  90  97  94  82  83  88  82  82  85  83  78  74  60  52  55  54  54  45  38  40  44  46  49  56  63  71  79  88  96  87  74  86  91 103 115 112 103  93  89  91  94  95  89  92  98  93  93  92  93  84  79  69  60  55  71  83  90  94  16   0   1   0   2   4   3   5   6   7   9   7   2   1   5  10  15  22  28
   0   0   0   0   0   0   1   1   4  37  58  77  82  80  82  84  85  95  96  89  87  83  80  80  84  96  93  86  73  82  86  70  70  64  60  63  67  66  68  82  87  87  95  98  92  74  78  89  93  97 106 103  99  84  86  84  83  86  92  91  85  84  85  81  76  69  57  51  46  58  74  91  83   6   0   1   0   2   4   1   3   4   5   6   5   2   1   2   7  13  19  26
   0   0   0   1   1   1   1   2   1  28  51  75  82  78  76  79  83  90  92  99  90  82  84  88  99 106 103 108 120 137 127 116 109  94  90  93  97  93  86  82  85  79  84  91  93  77  68  80  93 100 101 103  95  85  78  75  81  88  89  86  82  79  74  75  71  58  46  46  49  58  79  92  56   0   0   0   0   0   1   2   1   2   2   3   2   1   1   1   5  10  16  24
   0   1   1   1   1   1   2   3   1  20  49  66  81  77  71  73  80  83  86  91  89  91 100 116 113 108 124 145 155 155 163 162 144 136 131 118 117 118 119 111  91  85  73  78  87  82  75  72  77  84  87  88  83  83  77  76  86  81  84  79  69  69  64  68  59  47  41  44  55  70  78  84  30   0   0   0   0   0   0   0   0   0   0   1   1   0   1   1   3   9  13  20
   0   1   1   1   1   1   1   2   0  10  47  59  77  72  66  61  69  77  86  92  94 104 112 123 125 129 140 145 155 161 164 166 160 160 150 148 147 142 145 148 127 129 135 110  85  82  78  73  68  74  75  75  79  78  76  80  86  81  78  75  72  64  58  55  45  38  38  47  62  71  79  82  14   0   0   0   0   0   0   0   0   0   0   0   0   0   0   0   1   6  11  18
   0   1   1   1   1   1   0   0   0   3  39  55  69  69  65  59  66  75  84  85  98 102 112 127 138 145 142 145 153 164 170 171 175 180 168 165 170 167 160 148 145 151 144 134 115 101  86  74  75  72  64  72  81  78  80  83  83  77  71  68  65  62  57  49  36  35  43  52  60  69  81  75   5   0   1   0   0   0   0   0   0   0   0   0   0   0   0   0   0   3   8  17
   0   2   2   1   1   1   0   0   0   0  30  53  57  65  64  62  65  74  79  80  92  99 113 123 138 137 137 146 141 155 170 172 179 183 177 171 173 173 172 163 161 149 127 126 126 113  92  83  81  74  74  65  69  81  88  86  82  74  67  62  60  55  52  40  34  40  52  57  58  74  89  73   1   0   0   0   0   0   1   0   0   0   0   0   1   0   0   0   1   3   7  14
   3   4   2   2   1   1   0   0   0   0  20  50  48  58  65  59  57  67  77  83  87  95 112 111 123 128 132 137 131 129 144 161 170 176 178 163 163 161 162 159 154 151 148 133 126 111  99  88  83  76  82  84  77  89  91  89  83  68  62  56  51  48  44  37  44  52  60  67  75  83 100  86   2   0   0   1   0   0   0   0   0   0   0   0   0   0   0   1   1   4   9  13
   4   4   2   1   1   1   0   0   1   0  12  49  46  49  59  60  53  58  66  70  78  91 103 100 103 118 111 100 104 109 125 138 143 155 159 144 134 145 150 145 145 140 136 125 118 114 107  99  88  76  76  82  88  90  83  80  76  63  59  51  46  44  40  42  59  65  70  74  78  81 101  63   0   0   0   0   0   0   1   0   0   0   0   0   0   0   0   1   2   5   8  13
   6   4   3   1   1   1   0   0   0   0   4  43  49  42  47  54  49  48  56  62  64  83  92  84  77  89  92  91  80  88 100 110 118 121 129 129 131 131 141 146 139 128 119 114 114 107 103  94  86  74  78  79  83  82  78  70  63  58  50  46  44  40  41  52  66  74  72  74  79  84 105  60   0   0   0   0   0   0   0   0   0   0   0   0   0   0   1   1   2   4   9  12
   5   4   3   3   1   1   0   0   0   0   1  39  50  37  39  45  45  39  42  50  57  73  76  78  74  76  74  81  82  78  76  83  89  96 107 107 119 125 131 131 127 118 109  99  98  97  96  89  81  72  75  78  75  77  62  55  51  50  43  42  42  45  52  67  73  78  79  77  82  87 116  73   0   0   0   0   0   0   0   0   0   0   0   0   0   0   1   2   3   4   8  14
   5   4   2   3   1   1   0   1   0   0   1  39  52  41  35  35  38  37  36  36  48  65  68  67  66  71  65  64  66  64  65  67  73  74  80  92  96  99 108 101  95  97  92  88  76  73  71  70  66  68  63  65  71  66  55  51  49  44  40  40  44  51  55  68  75  76  79  79  82  89 127  71   0   0   0   0   0   0   0   0   0   0   0   0   0   1   2   2   3   4   7  14
   7   5   2   3   1   1   1   1   1   1   5  47  51  45  35  34  31  30  30  32  34  48  58  60  64  66  61  59  54  57  56  58  67  64  65  78  80  72  75  79  68  67  64  64  58  48  43  49  51  50  52  52  51  49  44  46  46  43  41  42  49  59  67  71  73  69  71  78  83  91 134  65   0   1   1   0   0   0   0   0   0   0   0   0   0   1   2   3   5   5   8  13
   7   6   4   3   3   2   1   0   0  34 114  95  46  47  41  39  32  27  27  33  34  33  41  46  50  52  47  45  45  44  45  46  49  55  55  62  61  56  60  60  52  47  43  44  41  41  39  42  41  41  39  39  42  42  43  40  40  41  41  47  53  69  69  69  72  73  75  81  84  96 137  69   0   0   1   0   0   0   0   0   0   0   0   0   0   1   3   3   6   8   8  14
   8   6   5   3   2   2   0  12  84 154 173 103  47  46  43  41  36  31  28  31  35  34  34  35  39  39  37  35  38  39  38  37  40  44  43  43  46  46  48  46  42  36  36  37  34  36  37  38  38  37  36  38  39  38  40  40  38  38  44  49  54  63  67  70  73  81  77  75  85  96 137 158 109  47   6   0   0   0   0   0   0   0   0   0   0   1   3   3   6   7   9  13
   8   6   5   5   1   0  49 139 167 152 140  89  55  46  42  40  39  33  31  34  33  36  37  33  32  32  37  35  36  36  36  37  40  40  40  41  47  46  42  38  36  33  32  35  35  35  35  36  39  38  37  36  36  34  38  38  40  41  46  52  58  62  69  70  72  80  75  76  87  93 148 192 190 200 168 100  41   0   0   0   1   0   0   0   0   1   4   4   5   7   9  13
  10   8   2   0  19  96 162 158 151 137  99  66  57  50  37  40  35  32  34  32  33  37  38  39  37  32  28  32  32  33  33  36  39  38  40  44  42  37  30  28  32  32  34  38  40  39  37  37  35  37  34  34  34  35  37  37  38  39  42  51  61  59  61  66  69  77  77  78  91 107 168 182 169 190 203 202 201 144  66  13   0   0   0   0   0   1   3   5   7   8  11  13
   0   0  15  72 147 166 154 161 145 101  82  81  56  54  43  36  35  31  32  32  34  36  37  40  38  36  33  32  29  31  31  32  34  34  39  35  30  28  28  32  35  36  38  42  42  42  42  36  36  36  34  35  36  37  35  35  35  33  38  48  57  57  56  64  73  78  76  81  92 128 175 170 178 182 184 182 197 214 212 173  97  26   0   0   0   2   3   5   9   9  11  13
  47  89 140 162 152 146 150 158 114  77  96  83  61  54  53  40  34  34  33  36  34  31  31  38  39  37  37  35  34  33  33  35  33  34  35  32  32  30  29  36  40  40  39  39  43  43  38  37  39  37  37  36  34  32  31  32  35  35  41  48  51  52  61  68  67  69  81  89 104 160 160 159 175 180 184 182 175 181 195 205 211 187 117  28   0   0   0   1   3   9  11  13
 173 177 161 148 141 134 128 112  86  95 102  88  76  55  51  48  32  31  35  35  34  32  31  36  38  36  37  38  35  36  36  37  38  40  39  40  41  37  37  39  38  40  42  39  41  42  38  38  37  36  35  32  28  29  31  32  35  41  42  47  50  57  64  67  67  74  79  86 136 158 139 138 169 181 184 179 170 178 188 201 208 206 209 189 136  93  62  43  19   3   3   7
 160 146 139 141 135 128 101  89  86 108 104  88  63  58  49  48  44  28  31  32  34  32  31  32  35  37  35  35  38  36  37  36  39  42  40  40  40  40  41  41  40  39  39  39  37  40  40  40  37  35  32  30  28  31  31  31  37  44  45  48  54  58  61  63  69  72  67 115 138 128 126 136 163 181 191 187 182 182 176 186 195 206 201 206 213 216 213 206 183 140  99  58
 151 152 152 127  98 106 114 100  86 102 116  72  27  63  59  47  47  41  29  29  32  30  33  30  30  32  33  33  37  38  39  42  37  40  41  42  42  43  42  42  41  39  38  37  41  43  42  43  37  33  31  31  30  31  34  35  37  47  50  52  55  58  58  65  51  58 100 126 122 105 136 133 130 150 169 186 200 206 179 176 170 193 206 204 200 203 205 210 213 218 217 202
 120 132 139 117  92  87  95 103  88  83 102  52  27  51  70  53  44  41  37  29  26  31  33  33  28  28  31  33  33  34  37  38  38  41  42  42  46  47  43  43  43  43  40  43  45  45  42  40  33  29  32  33  32  35  38  40  46  51  47  48  47  53  53  46  62 104 114 116 103 108 143 144 144 148 161 181 188 206 187 169 170 178 186 197 198 206 206 203 205 210 211 213
 138 109  89 102 111 100  82  89  98  88  64  27  32  38  67  60  45  40  37  36  29  26  30  32  30  28  29  31  33  33  36  38  38  41  44  45  47  46  43  45  45  46  46  44  44  42  41  36  32  31  35  34  33  37  39  40  42  44  49  53  50  40  40  75 107 106 104 100  98 130 121 135 159 157 170 179 176 188 194 173 165 160 158 172 184 202 209 208 214 214 214 210
 122  96  90  91 106 111  98  95 103 104  44  17  28  32  56  65  49  42  37  37  35  29  23  21  28  30  29  28  29  33  36  39  39  40  44  43  45  46  45  46  46  48  46  45  44  38  39  38  38  35  35  37  38  38  41  43  45  45  45  37  40  59  89 106 107 104  98  94  96 141 153 156 175 172 157 168 168 191 198 195 182 169 173 181 186 189 199 209 215 212 210 206
 102 100 106  97 108 105  97 100  97  62  22  13  28  28  34  69  60  47  42  35  32  35  32  23  21  23  26  28  27  30  31  33  35  37  40  39  42  44  43  45  46  45  44  44  43  40  39  37  39  38  39  40  39  39  39  45  43  34  35  46  76 102 115 106  95  91  94  97  91 147 172 171 183 196 176 164 176 186 172 175 180 167 175 179 185 184 184 194 206 210 210 210
  98  95 109 121 109 109  88  78  68  38  18  13  24  32  24  49  69  54  46  39  33  29  35  34  27  26  20  21  25  28  30  31  32  29  32  34  35  38  39  39  39  41  44  42  42  43  42  40  40  41  42  41  39  38  37  34  33  41  64  85  97  97  91  89  86  96 114  91 118 157 167 176 174 179 192 171 176 174 167 169 187 167 173 171 171 192 190 197 213 217 215 209
  91  94  98 100  93  88  72  71  67  34  21  10  23  34  27  23  64  64  52  41  37  34  31  32  34  34  27  21  19  19  24  28  32  31  29  31  35  37  39  39  39  39  40  41  43  42  43  41  42  42  41  40  35  33  35  43  53  67  76  85  87  88  82  93 104 130 115  81 140 142 154 165 160 160 170 175 169 175 169 176 176 167 183 178 189 204 211 206 199 216 212 206
  94  90  86  77  86  79  73  70  56  22  16  10  23  37  31  13  47  63  60  50  37  36  32  29  34  35  31  28  24  18  20  22  22  26  27  29  33  36  37  37  39  41  39  38  41  42  41  38  38  34  30  32  38  43  50  60  65  69  71  78  82  84  98 122 149 132  56 110 156 143 152 165 172 165 146 157 166 180 177 170 169 176 178 166 177 198 191 182 191 209 202 203
  79  90  86  74  74  78  89  84  48  16  18  15  17  32  27  16  22  62  59  55  47  39  30  30  31  32  32  30  26  24  24  25  24  24  28  30  30  32  32  34  37  36  35  35  34  35  33  32  29  29  30  36  44  50  54  61  61  61  73  81  79 105 135 150 138  55  56 157 160 139 155 166 185 186 179 166 157 175 184 167 172 170 169 170 178 185 167 175 196 210 210 202
  74  80  87  85  79  76  80  79  46  23  24  22  20  25  25  27  10  35  59  52  49  45  41  36  33  32  34  30  28  28  26  24  25  23  24  30  33  32  32  34  35  33  35  34  34  33  32  31  33  36  40  43  46  50  55  54  58  61  72  88 120 141 138 119  54  32 119 167 147 134 158 167 181 173 168 179 171 162 177 165 170 184 178 179 175 172 173 174 177 188 198 203
