P2
# Generated by OpenCV 4.2.0
92 112
255
  20  19  19  20  20  20  21  20  18  18  22  21  21  31  28  23  22  22  24  20  21  23  22  22  20  20  21  20  22  23  23  22  23  21  26  35  30  21  22  20  22  20  31  33  23  26  28  26  29  30  28  28  22  22  23  23  26  35  35  23  21  21  22  20  22  24  24  25  24  21  21  23  20  19  22  21  29  30  22  21  24  29  28  24  25  20  21  23  26  23  25  22
  20  20  20  20  21  22  22  21  19  21  22  22  21  27  26  23  23  24  25  22  21  22  22  22  21  23  23  23  23  22  23  25  24  23  26  29  25  21  24  32  27  21  28  30  24  34  31  23  25  27  28  31  25  22  24  23  24  31  32  23  21  23  26  24  23  20  21  20  20  21  22  22  29  27  22  21  22  22  20  20  21  23  26  25  27  28  28  31  24  23  31  34
  19  20  20  20  21  20  22  22  21  22  24  22  26  26  21  22  24  26  24  21  22  24  22  21  20  23  22  22  23  22  23  29  27  25  23  22  22  22  24  42  34  16  14  18  20  13  10   7   8   9  11  18  24  27  26  24  21  23  23  23  24  24  24  25  25  22  21  22  19  20  23  25  50  42  21  22  22  24  24  23  22  26  26  28  28  27  22  30  24  22  27  32
  19  20  20  23  21  21  21  20  22  22  22  24  31  31  21  24  24  23  22  21  21  21  20  20  23  23  22  23  26  24  21  23  23  23  24  24  21  14  12  16  20  37  64  92 112 122 122 124 115  98  72  42  17  10  20  26  24  24  24  25  25  23  22  22  21  22  24  22  21  21  20  20  25  25  21  23  22  23  24  22  23  30  27  30  28  19  17  21  22  22  25  22
  20  19  20  22  20  21  21  21  22  24  24  21  25  30  25  24  22  21  25  27  24  23  21  22  23  23  22  23  25  25  24  23  23  18  10  11  29  59 104 153 180 209 225 232 235 237 236 236 238 236 230 213 175 109  49  13  14  24  24  26  25  24  23  21  23  27  24  22  23  24  23  23  22  22  21  22  23  22  22  22  23  25  21  30  30  20  15  29  34  25  28  22
  21  21  19  21  20  20  20  20  20  21  24  22  22  29  27  23  23  21  23  24  24  24  22  22  22  23  22  24  25  25  22   9   9  36  87 149 199 227 238 241 235 230 229 228 227 225 223 222 222 221 221 223 229 234 214 147  63  13  12  23  25  26  25  24  30  29  23  25  27  22  28  35  24  22  22  22  24  24  23  26  29  22  24  24  22  25  21  30  39  25  20  22
  22  22  21  22  22  20  21  22  23  22  22  23  25  31  29  24  23  25  26  24  22  25  25  22  23  22  22  25  17   8  29  88 152 211 241 244 237 230 228 226 227 227 228 227 227 225 224 223 222 222 221 221 218 216 218 229 220 159  68  14  15  26  26  25  28  24  24  25  23  26  28  28  22  30  33  26  28  22  20  25  30  25  28  30  27  25  23  24  29  28  23  29
  23  22  21  21  21  21  21  22  25  23  20  21  25  29  28  24  24  24  25  22  22  26  26  23  30  26  16   8  52 129 200 238 241 235 233 233 232 231 230 232 229 229 229 229 227 226 225 225 223 224 222 220 219 217 215 213 214 226 220 158  65  11  15  26  24  24  28  25  23  28  28  24  20  29  34  26  23  22  23  24  26  24  22  23  25  26  20  20  23  21  21  21
  20  21  21  22  22  22  20  21  22  26  23  21  23  26  25  24  23  22  22  24  26  27  26  25  24  10  43 142 221 241 235 231 234 232 232 233 234 233 233 232 230 230 231 230 230 228 227 225 224 227 226 224 221 218 215 213 212 211 211 224 217 147  51   7  23  26  26  23  23  23  23  25  25  27  27  28  24  33  51  30  21  21  22  24  21  23  23  30  26  19  20  20
  22  26  24  23  23  22  23  23  28  38  26  24  28  24  23  25  23  22  23  26  25  23  25  18  19 108 217 242 231 228 232 234 234 233 233 235 235 237 235 234 233 231 230 231 231 229 228 227 228 228 225 222 220 222 217 213 211 211 210 208 209 224 209 122  29  11  24  23  24  25  24  24  23  25  24  24  25  26  33  26  23  43  31  22  25  26  21  25  23  20  23  20
  23  23  25  25  23  31  35  26  22  24  23  25  29  21  19  24  25  26  27  25  23  25  11  39 174 243 232 227 232 234 234 235 234 233 233 234 234 237 234 234 232 231 231 230 229 229 228 226 227 226 224 223 221 220 218 215 214 210 210 211 208 206 209 223 183  77  11  18  25  25  23  23  25  36  33  24  23  22  20  22  38  69  43  24  27  22  17  21  28  24  24  25
  21  21  23  26  30  57  41  22  22  22  24  24  25  21  21  24  30  34  28  26  26   8  63 209 243 228 229 231 232 234 235 233 234 235 234 233 234 236 235 232 231 232 231 229 228 228 228 227 227 226 225 223 222 222 220 218 217 215 210 209 210 210 210 208 217 217 136  30  14  28  23  21  23  40  40  24  22  24  22  25  27  35  33  27  26  22  19  20  27  27  23  27
  24  29  27  25  27  42  30  22  24  24  24  25  25  21  22  25  24  25  27  30  12  82 224 240 227 230 231 233 233 235 234 235 234 235 235 235 235 236 236 235 230 232 231 230 230 230 229 229 227 226 225 223 222 223 221 220 218 215 212 208 209 211 211 212 211 212 220 180  59   9  26  26  24  23  26  22  28  35  27  20  22  61  60  24  22  22  18  19  21  22  20  21
  22  27  26  24  24  28  26  23  22  22  24  26  27  26  25  27  27  25  24  12  99 232 237 228 232 233 235 235 236 236 235 236 235 234 233 237 236 236 236 235 232 233 231 230 232 231 228 229 228 228 226 224 223 224 223 221 217 216 212 208 207 209 211 211 210 209 205 211 200  86  11  23  25  24  24  25  26  30  32  25  24  52  48  28  27  21  17  19  25  24  19  20
  22  22  23  23  23  25  25  25  24  23  23  26  25  23  23  25  27  24   7 107 239 236 230 231 233 235 236 236 238 237 238 236 235 236 236 237 236 238 235 232 232 232 231 230 229 230 229 228 227 226 226 225 225 224 224 222 218 216 212 210 208 208 209 209 209 209 209 205 207 211 108  13  20  24  26  25  23  22  27  27  25  27  24  23  25  22  19  22  26  26  29  30
  25  24  22  24  25  25  25  25  24  23  24  24  26  19  19  26  23   9 114 241 237 231 231 232 235 236 237 238 238 239 238 236 235 237 237 237 237 235 233 231 230 230 230 229 227 227 227 227 226 225 223 224 226 225 223 223 221 218 214 211 207 207 205 208 207 206 206 206 204 204 212 125  16  19  28  29  25  24  25  25  24  26  23  21  22  26  31  28  23  25  31  42
  24  25  24  25  24  24  23  23  22  23  25  26  34  40  37  24  11 122 241 235 231 231 231 234 236 237 238 238 238 238 236 237 237 237 236 236 235 232 229 229 229 228 226 224 223 224 223 223 225 224 223 227 226 225 224 224 222 220 216 211 208 207 205 206 206 205 203 201 203 202 202 212 132  20  22  25  27  30  29  28  23  24  26  23  22  32  34  30  25  41  74  51
  22  22  23  24  24  23  24  23  22  23  25  25  38  61  47  12 127 242 233 231 230 230 232 235 237 237 237 238 237 236 237 238 234 234 234 231 230 229 227 227 227 224 221 221 220 221 221 221 221 222 224 226 225 225 225 223 222 220 217 213 209 206 206 205 205 204 203 199 199 199 201 199 210 125  14  21  26  28  28  24  23  23  24  24  25  31  39  37  26  42 104  75
  24  23  24  24  26  25  24  24  23  24  24  26  25  20   8 123 243 232 230 228 229 229 234 235 234 237 237 235 234 233 232 231 229 230 229 227 227 225 223 222 222 220 218 218 219 218 220 221 221 220 223 223 223 223 222 221 220 219 217 214 212 208 205 204 203 203 203 202 199 199 201 202 197 207 109  16  27  26  26  24  25  26  25  25  22  23  36  44  27  23  40  38
  24  23  25  26  26  28  25  25  23  23  25  26  29   6 101 243 233 229 227 227 228 229 231 235 236 235 233 233 233 231 231 228 229 228 228 229 225 222 220 218 217 215 215 217 215 216 217 221 222 225 224 224 222 221 221 220 220 217 214 215 211 209 205 203 203 203 201 200 201 201 202 202 200 198 203  87  17  27  26  25  26  27  23  22  23  22  22  23  24  26  22  19
  24  24  25  25  25  25  25  25  24  24  26  27  14  67 233 237 229 227 225 227 225 224 227 233 234 233 231 231 231 231 230 231 230 227 226 221 217 218 216 216 217 219 219 220 219 217 217 219 223 225 224 223 220 219 218 219 217 216 214 212 211 208 205 203 202 203 200 198 201 202 202 202 205 199 200 185  47  16  24  24  25  29  25  24  26  28  26  21  22  24  25  24
  37  30  25  25  25  26  26  25  23  25  28  20  33 204 242 230 227 225 225 221 221 227 230 232 233 234 232 231 230 230 228 230 229 225 225 221 218 214 214 216 220 220 220 220 222 223 225 227 227 225 223 221 220 218 214 215 215 213 211 210 213 205 204 201 201 201 200 197 199 201 205 207 207 203 198 203 148  21  23  28  27  34  42  30  31  43  29  23  23  23  25  25
  29  28  24  25  25  29  28  26  25  24  28  14 148 245 230 229 225 222 223 222 220 219 223 227 230 230 231 228 226 225 224 224 225 223 221 221 221 217 218 220 220 217 219 222 223 225 225 224 225 225 225 220 217 214 208 207 208 208 205 205 207 203 201 201 200 200 197 196 198 202 207 212 210 206 202 194 203  94  13  30  29  29  34  28  24  28  28  29  28  23  22  20
  23  27  25  25  26  26  26  25  25  24  15  73 236 232 229 228 224 223 222 220 221 220 221 222 224 225 225 220 212 206 209 216 217 218 220 218 217 217 219 219 217 215 214 216 217 220 221 219 217 215 214 212 210 210 205 203 200 199 197 197 199 197 195 199 198 197 197 193 195 202 206 208 211 208 205 196 195 178  37  20  26  24  23  24  24  30  31  26  23  24  24  24
  25  27  26  26  26  28  28  25  25  26  21 181 241 228 226 224 222 219 218 221 220 211 209 214 215 215 210 199 194 201 206 205 202 203 204 207 209 212 208 204 201 202 205 209 209 211 212 209 204 202 200 199 198 200 198 200 200 202 197 197 195 193 192 191 191 194 195 192 196 199 205 207 209 210 208 202 193 201 113  13  26  26  24  23  22  23  27  27  26  25  24  24
  26  27  27  30  28  27  27  26  26  13  89 238 227 225 223 221 218 221 224 213 209 214 221 226 227 227 227 224 227 231 227 224 222 218 213 210 208 205 201 196 198 200 198 202 202 201 200 200 199 198 196 196 195 194 194 197 198 202 200 197 194 190 194 194 191 193 194 191 193 197 203 207 208 209 206 204 197 192 174  43  22  25  28  36  32  25  22  25  31  29  23  23
  29  29  26  26  26  27  27  27  26  17 173 234 223 224 220 216 218 221 215 218 223 224 223 225 230 231 228 225 222 218 216 215 214 214 214 215 213 212 212 215 217 215 214 213 211 209 207 205 204 202 199 198 200 197 197 188 185 191 194 195 197 191 189 191 195 195 194 189 191 196 200 203 203 204 203 202 200 193 196  98  14  28  30  34  28  24  25  28  26  25  25  27
  32  30  26  26  26  27  26  26  19  64 225 222 221 220 215 218 215 212 224 222 217 215 215 218 222 222 217 218 219 215 212 208 206 203 202 204 206 206 208 209 211 210 209 206 199 198 197 198 201 199 193 189 188 188 189 190 182 172 176 178 186 193 190 186 189 194 197 191 189 193 197 199 203 203 203 198 200 194 193 156  36  35  29  25  25  26  28  27  25  24  23  26
  28  27  26  26  25  27  28  27  10 124 235 220 220 217 218 213 213 224 220 214 215 216 218 218 219 216 214 213 212 210 209 209 209 203 198 196 198 205 205 205 204 202 197 196 198 199 197 196 196 191 190 191 191 187 179 186 187 182 181 179 173 177 186 185 188 186 189 193 195 195 195 197 200 201 198 194 195 196 190 185  67  20  27  27  27  28  31  29  26  25  23  24
  23  23  25  24  25  26  28  25  21 178 227 217 218 220 218 211 222 217 216 216 214 217 210 207 202 193 191 187 187 185 183 184 183 180 177 177 178 184 186 186 184 183 183 187 189 191 198 200 199 200 199 198 194 196 191 190 187 189 187 185 183 176 175 185 189 191 187 192 196 194 192 195 195 195 194 197 193 191 190 193 112  15  24  26  25  27  29  29  30  26  27  31
  33  27  25  24  26  26  26  20  48 208 219 218 219 221 220 219 213 215 221 211 215 217 215 217 220 221 219 222 222 219 216 213 212 209 202 195 185 175 167 167 165 167 171 180 185 184 182 178 178 177 178 179 174 175 180 178 181 182 184 188 188 189 180 173 186 190 191 193 193 191 190 190 192 191 190 191 192 189 189 190 151  27  27  36  33  24  27  34  31  30  30  31
  28  25  24  25  25  27  27  17  81 220 215 219 221 220 221 215 214 218 215 219 223 224 226 223 223 223 225 226 226 220 218 216 219 222 223 224 226 222 215 208 205 214 224 226 227 227 221 217 213 208 202 196 187 176 171 169 168 167 167 171 185 189 193 186 179 186 192 195 193 188 189 187 189 190 188 189 190 188 186 186 174  52  21  25  27  26  27  34  31  39  38  22
  24  25  24  26  25  26  29  16 116 226 216 219 221 220 220 214 217 216 221 224 224 228 228 223 222 221 220 218 215 213 210 209 203 200 201 205 209 213 218 220 222 222 224 220 217 215 211 210 207 209 211 213 216 214 205 197 195 194 188 179 175 180 191 194 191 186 191 190 191 187 188 185 183 183 184 185 184 181 179 179 186  89  16  26  24  31  33  25  25  28  32  31
  22  24  27  28  27  26  28  15 144 225 216 220 219 221 220 215 217 221 218 222 222 222 219 219 217 213 206 200 206 209 211 212 207 203 199 200 203 204 203 205 206 213 215 211 205 204 201 196 201 203 204 203 200 198 200 198 197 196 196 197 193 187 185 188 192 192 190 189 188 190 187 185 184 182 180 179 181 179 173 174 182 124  21  29  26  28  26  22  20  20  36  51
  24  25  30  29  27  25  26  22 165 223 219 219 218 220 218 213 218 214 219 222 222 219 222 222 221 223 224 223 226 224 221 220 221 220 215 212 207 205 208 208 213 214 209 207 209 209 209 211 211 205 199 195 195 193 194 198 202 202 202 200 198 195 190 184 184 191 191 190 188 187 185 184 186 178 179 174 176 176 174 170 173 143  29  29  30  28  32  35  33  29  34  32
  24  25  28  28  27  25  24  32 184 221 219 216 217 217 210 214 210 218 225 224 224 224 224 227 227 228 227 223 222 217 216 214 214 213 214 212 206 204 206 207 208 208 206 207 205 204 204 201 197 190 185 182 185 191 192 193 201 204 202 201 200 195 189 186 178 183 185 189 183 183 184 185 185 180 179 174 172 173 173 168 165 152  41  24  26  26  65  60  41  29  32  32
  25  26  26  27  27  26  21  37 195 219 215 214 216 213 210 213 214 223 220 212 205 204 215 222 219 215 216 213 206 203 203 201 200 199 203 201 205 204 201 201 202 204 205 200 199 198 196 193 190 190 192 196 195 193 192 193 193 197 196 198 195 195 190 185 177 178 180 179 182 179 184 181 180 181 179 174 171 169 172 166 160 157  51  22  24  23  61  50  29  32  29  29
  27  25  28  27  26  26  20  50 205 215 214 216 214 211 214 213 221 219 205 167 168 188 197 207 208 201 204 197 187 185 182 180 179 186 190 194 198 198 196 197 191 190 194 192 190 189 185 185 185 189 194 194 191 188 190 193 193 195 195 195 194 191 190 188 184 173 176 172 175 180 182 182 172 178 181 177 171 165 169 166 159 161  55  18  27  26  27  31  38  47  32  25
  27  25  25  26  26  25  20  58 209 212 212 215 211 209 211 216 216 208 191 166 157 160 158 170 180 178 181 169 168 165 164 169 169 171 176 182 185 185 187 183 187 185 184 177 169 163 164 168 170 169 165 169 172 176 177 180 188 182 180 180 187 192 192 189 181 177 170 171 168 172 178 176 173 178 180 178 171 163 168 164 157 160  68  18  27  31  25  23  27  35  38  30
  25  25  26  28  27  26  19  60 209 211 206 209 209 208 210 211 200 177 164 166 165 157 138 132 123 123 125 121 129 147 159 158 150 154 168 171 173 175 178 168 171 176 169 165 152 137 146 156 151 148 143 149 160 166 171 164 156 150 153 154 173 185 188 187 181 179 173 165 168 168 173 170 171 175 178 178 169 162 162 162 159 157  70  21  28  29  29  27  25  30  33  26
  28  25  24  27  27  27  19  62 210 208 205 206 206 208 207 191 177 167 159 156 141 126 111  95  81  77  83  84  81  96 116 122 123 145 157 160 161 165 168 156 150 156 149 144 137 134 145 143 141 143 148 148 144 145 145 142 140 144 146 137 147 172 180 177 182 175 175 165 167 172 169 168 170 174 177 172 169 163 162 162 157 154  67  21  36  38  34  33  31  28  30  28
  28  28  27  25  28  31  17  64 209 208 203 205 204 207 198 176 164 168 169 150 133 113 103  89  79  66  67  77  80  88  95 107 123 137 143 144 148 156 155 144 124 132 134 126 120 112 115 109 117 122 108 103 109 112 108 116 134 147 147 142 136 140 152 162 178 177 172 166 165 169 168 168 170 171 175 166 166 160 159 161 155 155  71  20  36  33  31  34  34  29  28  30
  27  30  32  29  28  27  17  61 206 204 202 201 204 205 186 167 169 166 160 151 142 120 115 107  91  80  74  75  80  85  95 104 116 136 138 128 140 146 141 135 114 107 117 111 108  95  90  80  75  74  70  70  76  74  78 103 121 127 135 136 129 132 138 142 157 172 172 170 164 160 160 163 168 169 171 167 166 157 152 154 155 153  72  20  36  30  23  27  30  29  32  32
  25  26  28  28  27  28  21  68 207 201 200 198 204 195 180 168 169 161 148 143 136 127 132 126 109 100  91  83  83  78  86  91 104 125 125 118 132 136 132 124 120 101  99  99 100  93  84  77  69  60  57  59  63  73  85  99 119 124 129 130 123 124 126 137 142 157 168 170 165 160 158 160 165 169 168 169 166 154 149 151 148 152  65  23  33  38  32  27  26  32  35  41
  27  27  27  27  30  28  18  68 209 201 198 201 199 189 176 161 158 150 134 121 125 131 131 132 119 114  98  83  78  76  78  81  96 113 125 138 141 133 124 118 116 107  85  89  87  80  75  68  66  66  71  80  93 108 118 119 126 133 132 133 128 128 128 130 140 156 164 166 164 163 161 161 165 167 162 163 166 151 147 151 146 148  62  29  29  31  41  37  33  28  28  38
  28  30  28  29  29  26  16  69 209 201 197 199 192 180 165 153 147 137 112 141 160 150 134 115 102  99  94  80  73  76  71  67  84 112 136 146 143 132 122 118 114 103  91  86  77  71  67  67  70  76  94 114 134 146 144 134 128 128 128 128 125 121 120 119 128 147 161 166 166 162 163 163 163 161 159 160 159 153 147 149 149 141  56  26  26  24  30  38  37  27  27  28
  29  32  30  31  30  19   0  68 213 200 195 196 186 170 145 133 126 115 141 145 117 106  92  75  63  60  51  55  69  71  64  58  65 102 128 146 148 141 134 127 116 101  92  85  73  62  59  66  74  83  91 108 123 136 147 154 151 141 130 124 123 118 110 107 117 128 147 158 161 165 164 160 156 157 161 163 160 149 146 147 146 134  44  32  33  29  36  39  30  30  29  26
  31  40  32  28  19  52 111 120 208 202 196 196 182 154 127 113 104 122 118  90  75  61  62  60  53  47  48  41  42  56  63  60  54  78 130 163 170 161 158 143 124 113  96  81  60  52  55  56  54  40  39  44  42  46  59  74  90 113 129 124 111 106 102  96 102 111 132 144 157 166 159 157 153 155 158 164 160 149 148 148 149 127  31  33  37  26  29  35  32  31  32  29
  31  32  26  22  37 181 246 221 198 199 197 191 173 144 105  84 106 118  70  40  20  42  18  38  68  62  47  42  49  48  53  59  56  67 132 183 210 206 196 176 156 128 107  83  56  52  47  37  25  20  21  35  24  33  41  39  41  45  66  99 113  97  91  83  89 100 118 137 155 159 153 153 157 154 156 164 160 146 143 148 153 118  26  26  29  31  33  30  29  30  29  26
  24  29  29  17  71 217 223 218 200 198 196 191 173 139 112  90 109  72  26  15  21  25  24  45 111 122  96  61  41  60  66  64  54  73 149 197 217 214 208 193 171 144 124  87  62  49  42  34  24  14  14  34  17  24  56  76  53  42  39  46  84 110  96  81  79  93 111 134 145 154 157 153 159 157 157 161 160 146 143 148 155  98  19  24  31  37  38  31  31  33  26  26
  23  26  29  26  59 169 216 213 200 196 198 197 184 160 121 102 106  67 114 123  48  22  31  42 113 141 138 102  48  45  66  74  81 116 162 199 225 224 214 200 176 152 130  96  85  77  53  31  14  19  16  12  15  24  65 115 101  87  53  41  34  72 112 101  83  86 104 124 137 156 156 155 152 158 157 161 162 150 147 147 152  64  25  44  33  35  38  33  30  31  27  27
  26  23  36  39  70 115 171 215 197 196 200 199 195 172 144 151 156 136 168 200 174 131 107 112 131 136 137 116  97  92  84 103 142 156 181 214 230 228 221 206 180 159 138 113 122 113  68  52  65  79  68  59  46  45  96 119 120 110 102 103  66  49  82 110 105 105 113 133 149 156 156 151 155 157 155 162 159 148 147 149 134  89 143 181 152  64  37  37  32  33  35  30
  27  26  27  21  69 104 100 205 199 198 201 206 204 200 202 210 190 177 152 142 157 159 149 150 137 129 121 102  90  98 114 131 134 169 200 222 232 229 226 211 186 163 148 123 119 109 109 102 103 120 134 137 131 124 133 131 130 136 141 125 127 124 105 127 134 129 132 142 154 155 155 159 156 155 158 159 154 143 147 150 171 188 192 178 193 148  44  31  27  38  44  29
  29  31  30  26  60 118  73 169 203 203 208 211 215 225 226 218 204 203 177 120  97  99  97 104 102  97  94  93  93 111 136 143 166 194 211 226 233 231 227 216 191 166 160 143 133 123 112 109 102 113 121 120 123 124 121 128 127 126 117 127 156 162 150 148 150 144 149 159 162 159 159 154 151 155 155 156 151 144 145 165 181 184 174 167 155 160  65  29  37  32  28  33
  28  27  28  23  54 138  81 153 205 203 212 218 226 227 224 220 215 212 202 172 139 109  91  84  83  87  98 120 145 156 165 185 196 206 218 231 234 231 223 211 185 166 165 158 153 151 129 121 119 106  93  85  86  92  92  95  96  99 119 151 160 165 166 165 174 169 168 173 175 169 166 163 155 150 151 153 149 144 151 172 174 176 155  93  58 119  88  27  39  32  29  33
  25  27  35  26  46 146  87 147 207 204 216 224 226 228 225 220 218 219 218 215 209 200 184 169 164 158 166 180 175 179 198 206 207 214 223 234 234 228 220 201 175 171 170 169 169 168 163 145 134 139 136 128 110  99  99 108 121 131 153 166 175 178 176 174 181 185 181 182 181 175 168 164 160 153 149 151 149 147 160 169 164 152 125  63  44  89  88  30  41  32  30  27
  24  26  30  27  40 154  97 153 207 210 218 221 225 229 227 224 223 221 213 214 214 209 199 197 194 187 191 184 193 208 216 218 214 216 226 233 232 227 217 197 178 178 177 179 181 177 181 175 158 144 146 147 150 149 150 148 156 164 168 172 175 178 186 188 185 186 189 187 184 182 175 162 161 154 146 152 149 151 168 155 149 137 147 120  54  83  89  28  31  31  32  31
  26  26  26  25  31 148 117 172 206 208 216 219 228 228 227 226 224 224 224 220 216 210 203 196 191 191 195 204 216 221 225 223 217 217 226 235 231 222 214 197 179 182 183 184 188 185 188 188 182 167 160 153 151 153 156 157 157 165 172 174 176 186 189 194 193 188 190 193 186 176 167 163 159 153 146 148 149 159 162 144 142 147 169 149  69  90  94  29  26  31  34  39
  26  31  32  30  21 120 138 187 207 207 212 221 225 226 226 226 225 226 225 223 218 211 206 204 202 203 213 221 223 226 227 223 219 219 230 236 232 223 213 194 177 176 181 188 190 188 192 193 192 187 183 181 175 170 170 169 174 184 190 192 195 195 195 194 189 194 191 188 186 174 155 159 162 147 152 148 147 162 145 127 140 174 180 154  82 104  93  20  26  30  28  28
  26  24  26  31  22  87 173 194 203 204 212 217 216 223 225 225 224 222 222 220 214 213 209 210 209 217 223 225 227 228 227 224 221 225 237 235 229 223 217 199 184 180 185 191 192 193 192 193 193 194 193 191 191 189 194 191 195 197 200 204 205 200 192 193 190 191 189 187 182 174 166 159 156 153 153 149 149 161 134 123 144 177 174 158  95 119  88  20  31  33  31  31
  27  27  27  29  23  50 195 210 200 199 206 208 209 220 222 221 221 222 220 214 213 213 213 213 218 225 227 228 228 230 226 214 218 231 236 234 226 221 218 206 194 181 184 187 188 195 194 196 198 199 199 199 197 197 197 200 201 199 201 201 199 195 191 186 188 189 186 184 176 171 163 162 157 154 152 148 151 166 140 101  97 135 167 168 105 137  71  22  29  41  35  29
  30  29  28  28  23  33 190 204 201 197 203 206 207 212 213 217 220 219 216 212 212 213 216 217 223 227 229 230 226 220 208 200 216 228 234 228 220 221 217 207 197 180 169 165 172 186 192 194 199 200 201 201 202 203 202 200 199 198 195 195 192 185 179 185 182 178 179 177 164 162 161 157 157 153 150 149 152 173 145  62  72 114 156 170 123 129  45  25  28  29  29  32
  27  28  29  29  23  54 201 196 201 197 201 204 204 206 207 213 213 210 210 211 214 214 219 224 228 231 231 227 217 193 175 208 220 227 230 221 219 215 211 205 199 184 153 134 144 168 185 192 192 198 201 201 204 203 201 195 194 194 192 189 184 183 181 179 175 172 172 169 162 156 157 156 152 152 152 150 154 182 148  47  88 117 143 165 148 102  24  28  30  25  36  34
  25  28  29  30  20  73 219 200 196 198 198 200 199 199 206 209 208 206 212 219 218 220 221 225 229 229 226 214 188 155 170 224 221 230 221 208 209 206 205 205 202 190 172 140 118 142 171 187 190 196 202 203 200 202 202 197 192 191 190 188 184 182 178 176 172 167 165 162 162 156 155 156 154 153 150 148 156 182 166  60  91 119 141 166 160  69  21  28  31  32  42  34
  29  34  32  29  21  73 223 205 193 195 196 198 196 197 200 203 207 210 217 220 221 224 223 226 227 224 210 188 156 119 205 220 212 209 195 190 186 193 191 193 184 179 189 175 113 107 139 161 179 190 198 198 199 197 197 199 197 196 193 187 184 176 175 172 169 167 161 163 153 154 153 155 155 155 153 153 159 182 168  73  83 105 131 170 160  56  28  30  30  31  31  27
  30  34  33  29  20  76 210 202 190 194 195 195 197 197 199 203 210 218 220 220 223 223 221 225 222 209 186 160 113 141 228 189 183 175 162 160 154 157 158 166 154 158 177 190 148  88 120 144 161 180 192 194 197 195 189 192 196 194 191 184 182 171 170 170 166 167 163 161 156 150 151 149 147 151 154 158 157 182 148  67  86 100 122 173 161  56  32  30  29  28  29  26
  30  33  30  27  17  85 215 200 191 193 194 195 195 194 201 208 210 218 220 220 219 221 223 219 211 194 175 149  98 184 214 172 158 139 125 117 116 122 125 129 140 139 154 179 165  95  91 125 143 156 169 184 191 190 190 191 191 183 184 182 177 172 169 167 159 158 158 159 154 154 152 141 140 149 155 159 156 174 136  80 100 119 141 179 160  42  27  33  34  28  26  26
  28  31  28  27  20  85 219 199 189 192 193 195 192 195 203 205 210 214 218 220 218 219 215 208 200 176 149 105  92 199 183 115  95 121  86  73  83  86  94 101  64  74 125 160 156 108  76  93 117 139 149 166 177 186 186 183 185 180 180 178 173 171 170 162 159 152 152 156 152 156 154 144 141 148 155 156 159 169 145 102 110 139 175 179 150  35  30  32  32  28  26  27
  26  26  29  31  24 129 225 197 188 195 197 193 191 199 201 206 214 217 218 218 217 213 209 200 181 148 111  81  97 181 133  53   3  60  79  57  61  67  72  26   0  11  73 125 141 108  81  73  98 126 142 152 167 174 180 180 182 178 174 169 174 166 165 168 162 153 147 152 150 148 149 144 144 148 154 154 158 162 165 173 162 179 176 164 125  29  33  28  27  28  26  26
  26  26  28  26  56 216 213 199 192 193 197 193 192 196 203 209 213 216 217 211 212 206 200 185 163 134  95  81 135 155  93  43   2  25  88  64  57  68  58  22   8  11  49  87 108 118 106  72  77 107 131 145 154 162 171 174 177 177 174 169 170 165 165 162 156 156 153 153 148 147 146 143 143 149 156 157 155 159 188 203 197 181 150 168  81  23  36  32  29  29  29  28
  27  27  27  18 120 238 207 197 194 193 193 194 194 193 206 211 210 214 213 211 206 199 186 171 147 114  82 109 169 161  85  47  35  71  81  64  57  69  68  64  55  50  51  72 107 136 121  96  70  88 114 133 141 152 155 162 164 168 170 165 167 163 159 162 156 149 152 155 149 152 145 139 148 154 154 156 151 161 186 179 185 182 173 161  37  20  32  30  29  28  32  33
  27  27  28  19 134 228 206 200 193 192 193 192 194 203 205 207 206 209 209 204 197 185 174 155 123  91  89 150 190 196 146 111 121 118 111  92  66  72  82  85  93 105 107 117 147 152 146 132  90  75 101 117 133 145 149 157 161 156 159 158 165 163 158 160 157 151 154 154 155 151 146 140 151 155 152 156 152 159 162 169 176 192 198 129  19  22  29  28  27  26  28  31
  27  27  29  18  95 220 207 201 198 192 195 195 198 204 204 202 203 204 200 191 183 163 151 126 103  86 128 188 206 207 199 185 172 160 158 144 122 104 104 116 123 136 149 148 157 159 162 153 126  78  84 105 119 131 140 142 153 152 150 154 156 157 157 158 152 149 151 153 151 147 146 145 151 155 152 154 149 162 161 164 172 185 200  91  15  32  32  27  28  26  26  28
  27  27  32  27  36 182 210 200 199 194 193 193 196 200 199 198 200 198 194 187 173 153 135 109  95 107 176 205 217 215 204 195 189 180 170 151 129 118 118 134 144 149 154 150 161 170 166 162 148 109  77  88 103 117 132 138 143 153 148 145 145 151 158 158 154 151 148 151 148 148 144 146 153 155 150 150 144 157 176 160 174 178 195  99  17  41  37  28  27  28  26  27
  27  26  26  28  16 116 216 199 196 195 191 190 195 199 195 197 196 194 190 184 160 143 124 107 103 154 200 213 216 215 209 204 199 191 177 148 124 121 130 140 152 155 159 161 165 167 168 166 160 143 100  84  96 112 121 131 139 143 147 144 144 142 150 154 149 152 152 147 146 149 145 145 155 157 150 147 131 137 187 169 168 175 184 110  16  34  32  26  26  26  26  26
  27  27  27  27  17  62 205 200 199 198 190 187 190 193 195 193 191 188 179 155 141 139 127 116 142 188 205 209 212 211 212 207 199 194 171 134 119 116 124 136 153 155 159 164 168 169 170 167 163 158 130  97  98 103 112 121 127 135 145 145 140 138 139 147 147 144 149 148 146 149 148 150 153 151 141 141 119 111 169 180 162 170 165  74  20  34  31  26  27  26  27  26
  27  27  26  26  21  56 198 199 198 197 187 185 182 188 192 184 181 181 168 151 149 144 137 142 177 198 202 206 212 209 208 206 198 187 159 130 115 117 129 139 148 155 158 163 162 166 167 164 157 157 145 113 100 105 106 112 119 128 129 134 135 142 137 137 146 136 141 147 147 149 149 153 154 152 140 140 111  94 143 172 159 156 118  29  23  32  31  26  26  29  29  27
  27  28  26  28  23  51 195 201 195 197 188 182 183 183 183 183 185 171 160 154 162 157 150 166 195 201 206 211 212 207 202 199 191 178 170 143 139 138 153 160 158 158 157 160 160 162 159 160 158 158 157 137 107 112 118 112 115 118 127 130 131 135 141 143 142 141 138 143 152 149 147 154 148 148 141 129  89  70 108 137 147 108  42  23  22  27  30  26  27  29  28  27
  28  29  27  27  23  35 183 202 192 195 190 181 183 186 182 188 185 170 161 162 168 162 158 185 199 204 200 204 202 203 204 198 205 206 198 180 177 184 193 186 174 178 184 175 169 164 158 153 153 153 157 156 126 117 130 125 120 121 126 133 124 128 142 145 142 147 142 137 143 149 148 152 141 138 136 124  72  46  75  95  80  34  22  29  25  25  29  26  28  28  27  26
  27  30  29  27  24  24 159 206 190 195 193 183 179 184 185 187 175 166 163 169 172 166 181 197 204 195 191 202 211 218 213 200 181 159 141 159 182 186 154 115 108 118 140 161 175 180 170 157 151 149 151 156 146 117 121 135 131 128 123 133 136 127 135 142 144 145 144 137 143 147 148 149 145 136 128 120  57  24  38  36  25  24  29  29  28  30  27  23  27  30  27  29
  28  28  25  25  29  19 136 207 190 190 186 182 178 180 182 186 178 171 173 179 183 176 192 201 197 180 194 215 208 175 143 111  88  78  73  77  88  86  69  69  69  68  72  90 114 143 167 172 156 141 137 148 155 132 128 140 142 135 137 139 141 139 130 136 145 140 142 138 138 146 150 145 141 131 123 114  42  23  24  25  29  29  29  29  28  34  28  22  24  29  27  25
  25  26  25  27  30  20 120 207 189 184 184 183 178 182 182 181 186 180 178 190 186 184 187 187 163 148 190 184 115  75  52  39  36  39  44  40  35  35  39  46  42  36  43  49  53  68 103 137 147 125 129 144 153 131 124 142 145 141 137 140 139 140 133 134 143 142 141 137 139 146 148 144 137 126 127  95  25  26  28  28  27  29  29  29  30  34  28  23  25  27  26  23
  26  27  29  30  33  22  97 204 187 181 181 181 180 181 179 183 184 181 180 193 188 192 187 159 130 113 140  90  38  29  36  50  65  76  67  58  48  43  36  35  37  38  40  35  31  30  36  65 101 100 110 132 153 148 127 147 150 143 139 140 143 146 147 141 141 138 143 140 139 146 144 139 132 119 123  69  21  28  28  28  27  30  29  28  30  31  27  24  26  27  26  26
  27  27  29  29  31  21  83 200 187 181 181 183 181 179 183 190 187 183 183 191 191 193 173 138  92  46  49  55  72 114 160 193 202 199 182 176 167 161 154 145 151 151 149 143 122 103  61  40  36  35  56  94 131 158 147 146 150 152 147 136 145 146 143 141 139 143 144 144 141 143 140 133 121 112 119  49  22  29  30  29  29  30  30  28  31  34  28  25  27  27  25  25
  26  27  29  29  31  23  66 192 187 178 179 182 181 179 183 187 186 178 185 198 193 172 145 105  57  81 151 181 203 214 211 207 198 197 202 191 186 191 193 191 186 178 169 166 162 160 155 140 121  97  65  75 112 147 150 145 147 156 156 143 146 146 140 136 139 143 137 139 142 137 132 125 110 114 111  31  25  28  30  29  29  30  28  28  29  29  28  27  26  26  26  25
  27  29  32  33  31  28  40 174 187 178 173 182 179 181 185 183 186 180 195 200 187 164 128  87  96 180 194 182 176 171 165 166 152 142 132 110 116 128 133 143 150 151 146 149 152 155 158 159 156 157 127  86 103 137 150 148 150 152 155 150 146 146 140 138 138 141 138 136 130 134 131 120 106 119  96  23  27  28  28  30  28  29  30  28  27  26  26  26  25  26  25  25
  28  28  30  30  32  32  20 144 191 179 173 178 178 178 184 185 183 187 198 193 183 156 124 108 154 191 185 173 149 122 115 110  94  81  66  60  76  76  69  75  88  99 111 118 123 123 131 131 134 151 155 117 105 128 143 148 161 156 153 153 145 144 141 141 141 140 137 130 127 129 121 106 102 124  80  20  28  27  29  29  27  27  29  28  28  27  26  25  26  27  25  26
  28  28  31  30  32  28  39 141 190 175 171 169 174 178 182 180 184 194 194 190 174 151 122 138 187 199 194 183 164 142 121  94  73  65  60  64  78  78  65  59  60  67  80  88  96 101 115 129 145 156 158 139 113 123 133 140 148 153 154 154 147 145 141 139 141 139 134 126 124 125 109  98 105 118  60  20  28  28  27  27  26  28  29  28  28  28  27  25  27  27  26  25
  27  31  32  32  24  66  88 110 184 171 165 162 170 179 181 178 182 189 183 177 164 151 146 176 195 192 187 179 168 154 150 133 110  97  91 103 103  88  79  73  70  71  72  83  86  92 116 135 141 149 157 146 121 123 137 138 141 151 151 152 146 145 142 140 137 136 133 123 118 120 102  97 103 111  43  22  28  29  27  27  27  27  29  28  28  28  27  26  27  27  26  25
  30  32  32  27  56 114  73  30 162 177 161 159 161 172 177 177 178 183 183 169 161 150 157 170 187 180 177 172 153 164 168 168 157 148 148 150 133 115 114 108  98  96  98 100 107 108 119 130 134 145 150 147 130 118 120 134 141 142 148 146 148 144 138 140 133 132 129 119 113 105  92  97 111  97  27  27  28  29  28  26  27  27  28  28  28  27  27  26  27  26  26  26
  37  34  30  37  87 103  72   6 110 189 162 156 152 168 179 178 180 178 169 156 157 158 166 179 179 175 170 170 165 183 189 180 182 196 202 193 179 175 162 143 126 119 124 127 124 126 127 127 127 131 140 140 137 121 113 125 132 135 137 140 142 139 135 137 132 125 119 113 104  92  92 101 114  82  21  27  27  28  27  27  28  28  27  26  27  26  27  26  27  28  26  26
  37  33  30  62  98 103  85  24  59 183 166 151 152 162 167 174 173 169 155 152 150 160 174 183 171 166 166 183 195 192 193 195 213 219 209 197 197 191 179 168 169 156 146 143 141 144 141 136 132 132 134 132 128 125 124 121 127 135 134 138 135 136 135 133 126 122 112 106  93  86 101 107 113  63  20  28  29  28  28  27  28  28  27  26  27  27  27  26  26  29  27  25
  26  29  34  70 127 140  96  68  16 146 176 157 147 160 162 165 166 158 155 146 143 149 147 162 170 177 190 199 199 200 201 213 221 211 201 199 194 183 174 177 177 174 169 161 152 159 155 150 151 159 151 134 121 126 122 121 127 133 132 131 132 135 131 125 115 119 110  99  85  93 105 109 113  43  23  29  28  28  28  26  25  27  26  25  25  24  24  25  26  28  27  25
  31  29  42 100 124 110  98 104  28  79 177 162 144 146 159 164 159 145 141 149 142 135 149 162 176 189 192 194 199 210 215 222 215 203 205 205 193 187 180 180 180 175 178 181 176 169 169 173 161 155 160 151 138 123 115 116 122 124 123 125 130 130 125 119 110 108  99  93  95  95 104 115  99  29  25  27  28  28  29  27  26  26  26  26  25  23  23  25  26  27  27  24
  31  15  74 122  84  77 124 106 105  32 144 167 151 135 150 153 148 138 125 133 134 137 155 166 184 185 191 196 204 211 214 213 204 200 197 196 198 190 182 183 177 172 163 172 175 177 171 172 166 155 155 152 141 129 113 113 112 121 119 117 126 124 118 112 108 100  93  94  92 102 105 118  80  21  27  27  28  28  29  27  27  28  26  26  28  27  24  25  28  28  27  26
  15  15  95  98  91 105 141  80  80  41  66 161 151 135 132 143 150 132 123 139 132 135 142 157 180 183 187 195 196 200 200 193 191 195 192 185 185 182 179 178 176 173 165 170 171 175 174 164 161 158 153 145 133 127 117 106 103 109 112 115 116 112 112 105 101  88  98  98  95 106 110 116  59  20  27  28  28  28  29  28  28  28  28  27  26  27  26  24  26  28  27  26
   3  19  85 103 151  83  75  80 104  87  50 118 146 135 128 124 132 128 125 127 121 135 146 157 162 172 180 188 187 188 197 191 175 171 176 172 161 163 166 162 167 164 159 166 166 165 161 156 150 150 141 141 134 118 114 109 101 101 107 107 109 105 100  97  85  93 106  99 104 111 112 108  40  23  27  27  28  28  28  27  27  27  26  27  27  26  25  25  27  28  26  25
   3  36  63  93  97  72  78 130 122  95  57  51 118 131 127 119 116 121 119 116 119 133 129 137 143 171 177 175 178 172 169 176 162 151 143 141 144 149 146 149 149 147 151 151 151 155 156 148 144 133 131 130 124 107  94  99  99  95 102 102  99  93  91  84  84 104  99 100 100 109 112  90  24  26  26  28  28  27  27  28  28  27  27  26  27  27  24  25  26  28  27  27
  11  45  26  29  48 115 145  94 100  52  88  61  62 125 126 116 100 107 105 106  96 104 111 122 138 153 176 186 165 156 148 155 147 137 123 124 122 127 134 132 131 131 136 147 145 148 152 144 136 126 117 120 110  95  89  91  87  93  99  98  89  84  80  74  97 109  97  92  93 101 106  68  18  27  26  28  28  27  26  27  27  27  27  26  27  25  24  23  25  27  27  28
  10  18  16  11  24  69  90  70  69  78 138  99  83  79 128 120 111  87  82  88  77  75  81  91 114 135 165 157 153 163 148 145 125 118 110 106  98  97 104 106 116 124 126 132 139 134 132 134 128 118 105  98  92  87  86  84  84  82  83  85  80  73  68  83 102 104  97  98  91  91 103  43  23  27  28  27  28  28  27  28  28  27  25  29  28  27  24  24  25  26  26  28
   7   6   9  11   6   8  34  72 104 104 123  83  58  41  68 111 117  95  66  57  55  58  54  71  93 118 133 134 144 138 130 131 102  95  93  79  79  79  85  87  97 108 112 113 122 121 112 114 112 100  93  82  74  72  73  74  73  69  65  65  64  62  70  90  97  97  91  95  88  92  86  25  26  28  28  27  27  29  29  29  27  29  29  29  27  26  25  24  26  26  26  27
   4   4   4  10   5   3   7  52 112  53  71  55  64  92  27  48  97 104  72  51  41  36  35  37  51  71  97 110 121 113 112 110  83  75  69  68  70  66  72  78  89  93 101 101 103 102  95  93  84  77  67  64  59  57  57  56  54  54  55  57  59  67  86  91  93  91  91  92  95 105  57  19  28  29  27  28  28  27  28  29  29  30  29  27  27  26  24  25  25  26  27  26
   1   1   2   4   6   4  13  11  24  38  49  31 133 127  93  34  20  85  92  40  51  43  27  25  31  37  51  76  88  86  88  83  65  56  52  50  50  54  55  65  77  81  78  81  84  85  77  70  62  60  53  50  52  53  52  48  47  48  50  56  64  78  88  89  91  91  93  95  95  94  51  26  26  26  27  29  29  28  29  31  31  28  27  27  26  26  24  25  26  27  27  26
  15   5   0   3   2   3   7  18  10  12  61 105 101  85  57  31  35  28  63  44  11  50  39  32  29  34  35  48  51  51  56  51  45  41  43  41  35  39  43  51  60  60  60  65  60  58  52  50  52  59  60  55  53  52  51  51  50  52  56  60  70  77  83  87  90  92  95  99  98  74  42  48  24  26  28  29  28  29  29  28  31  28  25  28  27  26  26  26  27  27  27  26
  39  32  18   7   3   0   1   8  12  11  29  52  29  59  31  63  99  41  28  15   2  10  22  30  38  32  35  41  42  37  35  37  35  35  34  35  35  33  36  40  40  43  44  44  46  47  53  59  59  61  65  60  59  53  55  59  59  60  61  64  71  74  83  85  89  95  94  96  98  45  14  63  58  24  28  28  28  27  27  27  28  27  25  27  26  22  25  28  29  27  28  26
  51  48  42  30  26  10   1   3   6  11   6  13  27  35  36 126 113  91  52  14   7   0   1   9  29  34  34  38  39  39  38  33  32  33  34  34  34  34  34  36  36  40  43  51  55  60  60  66  66  63  62  63  64  66  60  59  61  62  63  65  71  80  87  94  95  96  96 100  91  10  11  62  60  43  25  27  27  27  27  28  27  27  27  26  25  23  25  28  27  28  29  25
  58  47  41  41  44  39  25   8   0   3   9   7  14  75 101  57  65  44  37  47  28   2   0   1   8  27  35  36  35  37  37  34  34  31  33  34  36  36  36  35  41  48  56  59  54  56  59  59  60  63  64  65  67  68  67  65  64  61  60  67  73  76  87  91  94  99  99 107  61   0   6  21  29  54  36  27  28  27  26  28  28  27  27  26  25  26  28  29  27  29  30  26
  53  51  50  50  44  43  43  41  14   0   1   6  10  30  40  20  45  24  45 114  64  47   8   0   0  12  26  32  36  36  33  34  33  32  33  32  39  39  41  41  46  49  56  56  53  51  54  55  59  64  66  67  67  65  63  69  68  67  68  68  73  82  88  90  96  99 101  98  25   0   2   1  11  69  77  27  28  27  27  26  27  27  25  26  28  29  27  27  29  29  28  26
  49  50  52  49  49  47  42  47  39  27   9   1   1   2  12  17  46  48  94  95  63  49  27   8   2   3  13  23  28  32  30  30  32  34  33  32  35  37  40  44  44  43  47  52  56  49  46  51  54  60  69  69  72  70  65  66  70  73  77  74  77  85  87  88  94  96  98  66   3   5   5   0   8  47  61  44  25  27  29  28  28  28  27  26  27  28  26  26  28  28  27  25
  57  56  63  57  50  45  48  46  48  41  29  17   1   0   1  11  85  97  47  44  52  33  30  49  19   3   4  10  19  26  29  30  30  31  31  31  33  34  34  35  38  41  43  45  51  50  47  49  52  55  64  70  70  74  74  72  73  75  78  83  81  84  86  88  88  98  95  31   0   5   7   3   4   9   7  19  29  28  28  29  27  27  28  28  26  26  28  30  30  29  27  24
  52  58  56  53  55  53  48  49  54  55  44  33  21   5   0  11  20  36  33  26  33  12  91 108  68  33  10   1   5  11  23  24  27  29  30  30  30  32  30  31  34  34  36  42  43  46  48  48  51  55  57  65  71  73  74  78  74  74  76  83  85  88  89  89  95  96  82  11   2   5  10   8   2   3   4  32  61  36  36  26  24  27  28  29  26  25  26  26  27  27  26  25
  49  54  55  50  47  54  53  44  43  56  55  45  38  26   8   1   5  20  25  34  69  78  76  66  44  30  21  15   3   6  17  22  24  24  26  26  25  26  27  29  28  30  31  33  33  38  41  43  45  49  57  61  67  69  67  72  75  76  77  79  78  88  93  88  85  85  84  14   1   5   7   6   3   3   7  22  37  36  33  43  34  31  28  29  26  26  27  29  28  27  26  26
