P2
# Generated by OpenCV 4.2.0
92 112
255
  56  71  65  43  38  45  46  39  28  16  19  30  50  56  53  62  68  66  66  66  59  63  78  79  80  84  79  77  68  71  76  76  81  85  74  67  70  73  67  67  69  64  62  56  51  57  66  75  63  58  57  59  59  53  47  54  75  83  68  63  70  61  69  84  94  88  79  80  90  94  84  74  59  54  59  65  59  56  52  48  41  49  60  58  57  59  62  61  61  61  57  58
  67  76  63  52  54  56  56  50  35  21  35  51  60  63  67  68  73  72  71  62  56  67  80  83  84  80  73  78  75  78  75  80  86  80  70  68  74  66  63  64  63  62  64  56  58  61  74  71  56  61  63  61  59  53  50  65  88  89  73  69  66  69  81  95  93  80  75  83  91  88  79  71  63  63  61  60  56  55  54  46  41  56  62  55  56  60  62  63  60  56  48  50
  68  69  64  60  54  50  56  53  37  32  50  61  61  63  63  67  67  60  61  58  61  78  87  92  82  74  73  80  84  83  80  81  80  72  71  73  60  57  66  64  67  68  64  60  62  69  76  63  55  54  61  62  57  50  57  78  90  86  76  78  67  75  91  95  82  75  90  94  87  76  67  60  63  63  58  58  55  57  55  46  43  56  57  54  58  61  63  61  51  47  47  53
  69  65  55  52  39  45  53  43  34  40  57  59  62  62  62  57  55  55  59  62  69  82  90  90  82  75  74  85  87  86  83  81  79  72  76  68  58  61  63  62  67  70  65  66  72  76  74  57  54  58  61  63  58  55  71  93  92  80  74  69  70  77  87  82  75  79  92  89  73  61  55  56  62  58  55  50  51  52  52  42  44  57  57  56  60  60  61  54  50  55  62  65
  62  59  52  39  33  40  37  32  31  42  57  60  65  66  61  54  55  57  63  70  80  78  86  89  81  76  77  81  78  80  81  80  80  68  58  61  70  66  62  64  64  66  68  78  81  75  65  58  54  56  63  69  70  74  88  96  89  79  74  70  72  75  71  69  80  89  84  77  65  58  59  60  64  60  53  49  49  50  49  40  45  58  59  58  59  63  59  53  52  66  75  74
  57  65  66  43  30  29  24  23  26  45  61  67  67  62  54  52  59  65  74  77  81  81  74  72  76  76  76  73  74  73  80  78  68  52  40  59  72  66  67  68  68  64  70  86  73  60  55  55  58  66  78  82  86  93  97  93  83  73  76  78  74  66  64  72  90  93  77  71  68  65  61  62  61  56  52  49  47  48  44  41  48  58  61  58  58  61  55  50  56  72  77  74
  57  67  66  54  26  24  25  26  31  53  65  69  66  57  52  58  66  72  75  73  79  79  61  61  71  74  75  74  73  72  79  83  69  59  57  66  70  69  69  68  66  62  71  76  59  50  52  58  68  79  93  98  98  93  87  87  81  71  77  76  75  68  64  76  94  87  64  60  64  61  59  57  58  54  50  48  48  48  43  39  51  57  57  57  56  55  51  50  60  72  71  67
  58  66  60  46  25  32  39  35  44  63  61  62  59  58  60  65  65  64  64  69  77  69  59  65  74  75  76  74  73  79  87  80  75  68  70  71  71  70  69  66  63  65  76  64  52  52  59  63  75  95 104  97  92  90  84  88  80  70  76  77  76  71  61  69  84  81  63  62  65  65  61  59  56  51  49  47  46  48  45  48  56  57  58  58  65  55  47  55  62  64  64  60
  56  56  47  31  31  44  47  41  55  61  62  58  62  68  66  62  59  60  69  76  77  71  71  73  77  73  76  75  69  78  91  82  75  67  70  71  70  68  68  61  58  69  69  59  57  57  58  64  87 109 107  94  91  93  89  87  76  71  70  69  74  67  61  69  78  78  66  62  65  63  55  55  54  49  46  49  55  54  53  58  63  62  59  64  68  59  53  64  66  63  66  60
  49  43  37  34  45  52  51  57  61  64  64  60  71  76  66  62  66  72  76  80  76  73  74  74  73  72  72  74  72  79  87  86  78  82  74  74  71  69  63  56  61  71  61  57  59  62  64  78 102 113 101  93  90  92  88  77  73  72  65  67  75  67  63  70  74  74  61  59  61  54  50  53  53  46  45  54  57  58  53  56  59  61  60  68  68  66  59  64  66  64  64  66
  35  36  39  46  54  53  54  62  66  65  59  69  74  65  62  69  77  82  82  81  77  78  75  70  68  71  69  69  74  77  78  80  76  84  74  71  75  63  54  54  64  62  53  51  55  64  75  93 107 102  95  91  91  88  78  69  71  68  65  71  69  61  66  73  77  69  62  60  56  52  52  53  50  51  53  56  55  56  57  58  59  60  62  66  70  70  66  63  64  61  61  66
  34  43  53  55  48  41  52  64  65  60  67  71  63  61  65  78  82  81  85  79  78  83  81  67  68  73  76  73  76  82  78  75  72  73  70  65  61  60  63  65  72  59  54  55  59  71  88 106 111  98  96 103  97  78  66  69  70  70  73  74  62  61  68  78  77  68  62  58  55  52  51  47  48  48  50  52  52  49  49  53  58  64  61  63  65  68  71  64  60  57  57  62
  42  52  52  43  32  41  60  60  68  70  72  66  68  73  79  80  79  81  83  77  80  85  77  63  59  68  74  73  81  86  76  72  71  67  67  66  59  73  82  73  69  69  60  64  69  82  99 110 113 102 100 105  82  61  64  68  64  73  84  86  79  69  70  75  70  62  58  57  54  49  48  47  44  31  33  46  48  41  43  52  56  63  64  69  66  68  70  66  60  56  50  52
  40  44  34  23  28  50  67  72  79  75  66  78  87  83  81  81  82  81  75  70  76  78  68  60  57  59  62  73  88  80  74  69  67  64  64  65  66  77  80  69  66  66  67  76  83  97 102 108 106  97 103  93  71  65  69  68  64  77  87  93  91  80  74  83  68  58  55  51  48  46  46  37  30  18  20  26  31  30  40  55  59  63  66  73  71  69  66  64  60  56  50  52
  38  33  27  27  43  67  81  80  75  70  76  95  94  87  86  80  77  71  63  63  65  61  59  60  66  65  66  80  87  79  69  64  65  62  61  61  66  73  69  65  66  71  77  86  91  99  97 102  99  97 104  89  73  73  73  67  60  71  82  86  83  81  74  71  65  51  38  33  32  32  32  24  15  14  15  16  13  17  33  50  59  62  61  68  67  68  67  66  59  54  49  51
  32  36  38  36  53  80  78  70  67  75  87  95  89  82  75  67  60  58  61  58  53  52  60  64  69  68  75  85  81  74  67  64  61  58  58  64  70  74  73  74  74  78  83  84  89  96  95  99 102 106 100  80  69  76  76  67  67  68  83  80  76  69  67  64  57  42  24  16  13  15  14   8   8   9  25  22  21  20  28  41  58  64  61  69  70  66  63  66  61  56  52  54
  34  48  50  44  58  68  59  64  76  83  84  81  77  81  78  65  58  66  68  56  50  58  68  71  66  72  84  89  79  68  66  63  56  55  65  72  79  84  82  68  84  93 111 131 139 132 131 127 121 113  93  68  68  74  69  69  71  74  82  75  68  70  72  67  55  36  22  12   9  11  10   9   9  18  31  37  32  29  30  40  55  61  65  74  71  63  56  61  59  54  53  53
  44  51  47  49  50  50  62  78  82  82  76  66  66  73  73  70  68  77  70  59  57  66  70  71  66  85  90  84  75  64  61  61  58  62  71  79  91 104 129 178 188 212 218 218 221 228 229 221 212 195 163 126 103  85  72  70  77  83  82  77  72  76  82  77  63  43  30  25  20  18  16  17  23  32  40  41  37  31  33  45  48  51  70  78  72  58  53  61  57  54  54  55
  34  30  34  40  46  63  78  79  78  77  72  63  64  67  69  72  80  81  68  64  64  65  69  74  80  95  84  75  68  59  61  68  70  59 108 156 188 210 221 224 222 221 221 223 222 222 222 223 222 224 223 218 208 184 146 108  79  88  88  80  74  79  81  79  71  51  40  35  30  26  23  31  36  41  47  44  38  34  38  46  44  48  72  81  75  58  54  58  54  56  58  55
  26  27  34  48  69  84  82  78  77  72  70  65  69  71  75  77  82  76  67  68  68  67  68  72  85  86  77  72  63  56  58  68 103 174 209 221 223 221 217 216 216 214 217 216 218 219 219 222 224 222 220 221 222 222 220 214 192 143 104  76  74  80  77  69  59  50  43  38  36  34  33  40  47  50  51  47  41  40  48  51  51  57  78  82  72  61  57  54  53  54  56  57
  35  52  58  71  87  88  85  80  75  68  62  67  74  78  78  80  80  72  73  73  67  67  66  74  86  79  77  71  63  58  89 159 211 224 218 215 214 213 214 213 214 213 212 213 215 214 214 221 221 222 223 221 218 218 219 218 219 219 199 127  78  75  71  66  59  51  44  40  39  40  42  50  53  55  53  47  43  46  55  54  54  63  76  76  66  61  60  55  56  54  55  57
  60  74  77  80  85  89  86  81  73  60  54  66  80  83  83  83  77  70  72  72  63  56  65  85  89  77  75  67  70 137 205 220 216 214 212 212 210 209 210 210 210 209 212 212 213 215 216 217 219 220 221 222 220 218 219 217 219 218 215 213 191 144  96  63  57  48  42  43  46  47  49  55  55  56  52  43  43  55  63  65  60  60  66  68  62  61  59  54  54  54  58  58
  77  82  83  86  89  87  82  78  65  53  58  76  88  85  79  82  76  65  68  71  66  60  70  85  85  77  68 106 186 218 218 213 211 210 209 206 207 207 209 207 207 208 212 211 213 213 214 214 217 218 219 218 217 217 217 216 219 217 214 211 211 206 182 125  59  38  43  53  54  48  56  60  62  57  45  41  50  62  66  71  67  62  62  63  61  62  63  59  58  60  63  61
  84  83  83  86  87  83  77  65  51  53  64  76  86  79  70  76  78  65  65  69  67  71  83  84  81  75 137 213 223 218 214 213 212 208 207 207 203 203 206 207 208 209 211 210 212 212 211 214 216 216 215 216 218 215 216 215 215 212 213 212 209 206 207 203 165  93  47  60  61  59  62  61  57  46  38  44  56  60  62  65  69  72  68  65  66  71  67  60  62  64  63  62
  83  75  79  87  87  82  71  57  52  64  69  74  81  76  71  78  78  73  72  64  64  79  85  80  90 164 219 225 219 215 213 211 208 206 204 206 205 205 206 207 208 209 208 207 205 209 209 213 211 212 213 215 214 217 215 215 214 211 212 211 209 205 204 205 205 186 124  71  65  66  60  58  48  38  41  54  65  64  63  68  67  72  77  64  61  69  62  57  58  60  62  64
  74  72  79  85  87  73  63  60  69  72  70  70  76  78  78  82  81  79  74  65  72  86  83  84 176 228 224 221 216 213 210 206 204 207 207 206 203 206 206 206 204 205 203 204 205 206 208 209 211 210 210 211 211 213 212 214 211 213 213 213 209 207 205 208 211 205 198 141  76  63  58  51  40  41  52  61  67  67  69  66  61  67  76  65  59  61  61  60  60  55  58  65
  71  72  78  83  78  67  64  65  67  73  77  81  80  79  85  82  77  77  71  73  83  84  79 176 223 224 219 216 211 207 204 207 207 207 206 202 201 201 200 200 200 197 196 199 201 203 205 205 208 206 208 208 208 209 209 213 214 214 212 213 209 208 206 206 213 212 209 203 155  65  61  52  41  49  66  69  67  65  68  66  63  70  72  66  58  59  61  62  58  60  64  70
  69  74  79  78  71  65  65  66  75  82  91  93  86  81  87  82  70  70  78  94  88  77 147 225 225 221 216 211 207 207 207 209 206 202 201 202 199 197 195 193 192 192 192 192 192 195 197 201 203 204 205 203 203 204 205 208 213 211 210 210 209 207 204 207 212 215 214 206 202 155  75  56  49  61  71  74  72  68  66  62  63  69  68  62  64  59  60  63  62  66  68  68
  70  74  77  71  64  65  67  73  81  90  94  91  87  87  79  74  71  76  94  97  73 123 219 226 223 216 211 207 210 211 210 206 201 198 196 192 194 194 193 192 191 190 189 193 193 194 196 199 200 198 200 199 200 201 202 201 206 207 208 208 205 208 211 213 215 217 216 213 202 197 144  63  62  62  68  72  71  65  64  60  63  69  63  62  68  67  62  61  65  72  73  69
  71  72  73  70  63  63  72  83  88  84  87  87  88  85  75  73  78  88  94  78  81 195 230 223 215 211 210 209 207 205 202 200 197 192 188 186 187 189 190 188 189 187 186 189 192 193 192 194 193 191 193 194 193 197 197 193 200 200 202 204 203 207 212 215 214 216 214 213 208 200 193 122  71  67  67  69  65  63  59  64  69  66  63  62  64  68  61  64  66  70  70  61
  73  70  73  77  70  71  86  93  88  81  83  87  87  82  80  76  89 105 101  86 163 226 224 218 212 209 209 207 202 198 196 196 193 190 187 185 185 186 193 193 191 190 191 194 195 192 190 188 184 185 187 187 189 190 190 188 190 196 197 198 204 207 209 212 211 211 214 211 209 201 195 181  96  65  69  67  68  65  63  68  72  65  61  63  66  62  63  62  65  69  62  58
  74  76  77  75  76  76  78  78  78  82  86  87  80  72  75  84 102 102  83 158 226 223 218 216 208 205 203 200 198 198 197 195 196 190 183 183 190 191 191 191 192 192 192 191 189 187 186 184 180 177 180 183 185 183 182 187 190 190 193 199 202 206 208 210 210 209 211 210 207 204 194 190 162  66  68  67  69  61  64  70  70  63  63  65  65  61  63  63  68  65  62  70
  78  77  75  75  74  70  76  76  78  81  80  78  74  70  82  99 100  85 131 218 222 219 214 209 202 201 199 196 192 195 195 195 194 191 188 187 186 188 185 184 184 185 185 184 181 180 178 177 179 176 178 178 180 180 182 185 192 195 198 200 201 201 206 206 206 203 205 204 205 200 195 187 187 122  61  64  66  60  64  72  64  62  64  62  62  66  66  70  68  66  74  83
  76  79  73  71  72  78  88  79  74  77  73  72  71  75  92  97  79 101 199 226 218 213 207 202 195 195 193 188 185 187 185 183 182 186 186 183 184 180 176 177 179 178 177 176 170 169 170 174 170 174 175 179 174 175 185 187 191 194 198 199 200 199 203 202 202 200 199 196 191 183 189 184 185 164  82  64  64  64  67  68  66  62  62  61  65  72  71  67  63  67  78  85
  73  71  66  67  81  86  82  76  75  76  73  73  76  82  93  88  77 172 225 221 214 207 200 191 187 186 188 184 180 178 179 177 179 179 178 179 176 172 174 169 165 167 169 171 171 172 173 176 175 176 171 171 172 175 182 188 191 195 195 197 198 203 203 199 200 197 194 195 187 183 184 179 182 180 118  64  62  65  70  65  65  66  64  65  72  76  70  67  65  73  83  87
  70  63  68  77  89  90  79  75  74  71  74  79  85  97 104  97 145 221 223 215 209 203 189 181 177 177 179 179 178 170 170 167 169 172 175 173 171 175 177 175 173 170 173 175 178 178 177 175 175 179 177 171 172 173 181 188 194 196 198 199 197 198 200 195 195 193 191 189 182 182 178 177 176 182 155  69  63  59  62  64  67  68  68  68  70  71  67  79  80  80  89  90
  80  80  81  85  93  89  80  75  69  72  77  83  87 102 115 112 198 229 222 211 204 197 183 176 170 170 174 172 168 175 175 177 175 178 176 173 171 172 173 172 172 171 176 179 185 184 183 185 183 181 181 182 183 181 186 189 189 187 191 193 196 194 193 193 194 194 189 183 177 176 177 173 169 177 173  96  59  61  62  64  63  65  66  69  72  72  78  88  89  85  86  84
  89  91  86  87  94  89  77  72  74  80  88  90  96 105 104 150 222 222 216 205 198 192 180 171 169 170 168 175 181 185 184 180 178 179 174 174 175 174 174 171 173 181 184 188 190 188 190 188 187 193 192 192 188 189 190 189 188 189 187 185 188 190 189 189 186 189 185 178 176 172 173 171 165 174 174 127  58  65  68  67  68  67  68  72  76  80  91  95  93  85  74  58
  88  90  91  94  89  72  74  75  84  92  92  91 106  99 104 187 221 215 209 201 194 185 176 171 172 172 176 181 182 183 186 187 184 187 180 181 186 179 176 176 182 183 189 190 190 191 188 183 185 188 187 188 185 181 179 183 188 190 189 189 185 184 188 186 184 181 183 173 174 170 169 168 171 169 172 141  69  64  65  66  69  75  78  79  87  95  95  91  90  87  67  43
  84  91  91  89  74  60  72  83  86  88  86  87  90  84 121 209 221 212 203 197 194 182 179 173 169 173 177 180 185 189 192 194 197 193 187 184 181 173 171 175 176 192 196 199 198 196 196 192 192 194 191 194 194 195 189 188 187 183 184 185 184 182 183 183 181 178 177 173 174 171 168 167 172 170 169 155  71  61  62  69  73  77  80  84  92  96  86  81  84  76  55  40
  85  90  87  74  59  57  72  80  85  82  88  94  77  79 147 216 217 208 202 195 191 187 176 177 169 174 178 181 188 193 196 195 192 196 194 184 184 183 188 200 207 202 205 203 197 195 195 198 197 191 187 187 190 193 196 199 199 192 187 183 183 185 181 177 180 179 173 174 171 170 168 166 171 171 165 159  86  62  64  68  76  81  80  83  90  85  77  76  72  52  41  37
  90  83  72  61  61  64  79  79  81  82  91  85  74  86 173 217 213 205 199 193 184 180 178 179 174 177 183 178 189 192 198 201 207 209 206 200 203 205 199 200 197 198 198 191 188 187 185 181 177 181 181 187 189 191 188 194 195 196 192 185 183 184 179 179 178 181 178 177 176 176 168 167 173 172 165 160 105  61  65  70  77  77  78  86  88  80  79  74  58  45  41  34
  87  81  65  65  72  78  82  82  78  80  75  67  77  91 191 217 211 202 199 192 183 177 176 178 180 179 183 192 197 198 198 199 201 199 199 200 203 198 190 191 192 191 192 186 184 172 160 161 166 167 169 175 176 178 180 183 186 192 192 188 181 172 171 172 173 174 172 176 180 174 172 170 167 164 163 163 124  61  68  70  71  74  80  88  91  86  80  63  44  36  40  35
  88  83  73  74  82  85  86  86  84  76  59  70  84  95 201 212 204 202 198 186 179 181 179 179 187 188 190 191 189 188 191 192 194 196 195 193 197 192 187 185 181 180 179 174 163 153 146 157 160 163 165 165 168 165 159 161 173 179 181 183 183 171 159 165 167 168 169 173 179 178 174 165 162 159 161 167 147  66  61  69  79  86  86  81  83  80  68  47  30  27  36  37
  87  80  81  83  83  82  84  91  87  70  71  85  82 101 205 208 205 201 194 185 189 187 182 188 195 191 184 180 181 179 183 184 190 192 194 191 189 187 184 174 172 167 165 164 161 156 160 166 163 160 155 152 144 129 123 136 153 165 164 166 174 177 172 164 162 158 167 171 173 173 175 161 154 156 159 163 151  67  53  75  84  86  81  69  68  61  50  36  30  31  35  39
  80  82  88  91  94  91  85  75  70  77  90  93  84 109 208 210 203 199 193 188 186 187 193 198 197 191 182 173 171 164 172 184 184 185 182 177 180 176 173 162 155 153 156 160 164 168 170 169 160 156 148 135 125 119 125 128 130 137 150 157 162 168 175 170 161 159 168 176 170 167 166 161 155 156 157 160 152  70  64  73  73  67  69  62  59  56  44  36  31  31  35  45
  73  81  89  98 102  97  78  70  80  96  96  89  79 124 209 207 201 198 192 189 187 189 196 199 192 185 170 163 160 164 178 175 169 174 174 168 169 166 156 149 149 144 140 149 156 161 159 156 151 134 121 111 131 136 142 140 128 132 140 150 156 162 172 176 170 163 167 175 171 166 165 160 152 154 160 159 153  94  72  67  74  75  67  63  58  57  47  34  31  31  39  49
  75  86  94  99  94  97  95  92 102  99  84  76  74 129 203 204 201 192 185 187 189 193 199 199 190 179 169 162 166 167 164 160 157 158 158 155 155 149 135 135 138 137 125 126 140 139 139 130 116 105 100 109 127 137 151 149 143 134 132 136 145 154 159 167 170 170 170 168 168 167 172 161 152 154 157 159 157 100  71  66  70  70  63  56  48  41  36  34  37  42  52  54
  81  87  92  99 104 104 108 111 104  89  78  76  73 123 203 203 197 184 180 186 191 194 196 195 189 174 171 171 167 169 160 153 146 137 137 138 139 137 130 109 121 124 117 107 113 108 106  96  90  95  99 115 137 151 155 153 147 136 123 118 127 137 147 153 165 165 161 164 166 171 174 164 148 150 152 160 153  92  71  77  72  62  55  42  38  41  48  55  56  59  59  52
  78  78  93 109 112 110 110 106  95  81  75  81  74 107 199 198 193 176 181 189 194 193 186 176 171 171 168 167 165 166 154 146 137 125 114 120 122 123 138 107  93 107 106  95  92  89  85  80  84 101 124 140 145 148 150 152 147 136 122 108 112 120 134 147 152 158 161 166 164 169 174 170 159 155 152 158 151  83  83  76  64  56  50  45  49  59  63  61  55  55  51  50
  78  89 111 118 117 121 107  92  86  79  77  75  56  96 195 192 185 172 183 193 193 184 164 140 139 143 146 143 138 138 138 133 131 117 105 105  94 116 142 136  99  92  91  89  85  82  82  81  93 115 128 124 119 113 109 117 129 133 115  97 100 114 125 140 148 157 162 160 163 167 172 170 157 154 155 162 152 138 174 149  77  54  50  46  53  60  57  49  49  55  56  60
  98 112 123 121 123 122 100  84  84  80  71  55  51 104 189 188 178 177 189 191 175 166 152 140 136 112 104 105  97  97  96 104 101 101  95  87  95 125 137 146 133 110  99  86  77  80  85  81  73  68  69  65  44  33  42  36  48  79 112  98  93 102 113 133 147 159 162 160 161 164 170 161 149 152 158 166 189 199 190 187 140  52  41  44  51  52  48  50  59  64  62  65
 114 120 123 127 123 109  90  82  75  65  58  59  62  85 181 185 178 177 186 174 155 146 137 128 123 107  83  73  71  68  73  75  75  77  78  83 113 124 128 136 134 122 107  85  67  70  70  56  51  73 105 114  59  39  44  34  55  64  73  95 101 117 126 140 152 162 162 156 154 158 165 159 154 151 157 186 201 190 165 147 148  80  36  41  46  48  49  59  63  61  60  60
 125 125 130 131 118  93  84  71  63  54  53  64  68  56 179 181 175 177 180 162 144 142 129 118 103 103 101  91  84  80  75  65  59  56  62  82 113 134 155 162 150 137 114  86  65  65  59  55  58  92 140 146  86  44  46  69 109 112 110 114 128 131 146 157 165 161 166 163 159 158 157 157 153 150 160 185 185 168 127  84 118  94  38  42  45  51  53  58  60  62  60  57
 126 132 136 127 102  81  69  58  48  51  58  66  74  73 170 180 176 181 162 138 139 139 128 121 113 111 122 108  88  68  48  43  43  49  50  70 124 157 173 181 173 148 126  90  77  72  70  69  75  91 121 129 113  87 108 132 133 135 153 151 155 157 161 175 180 175 169 164 165 156 153 155 149 156 169 179 170 154 139 100 103 105  37  42  49  60  54  60  62  57  53  54
 132 137 132 107  86  66  51  43  48  60  70  78  75  72 151 187 178 175 146 132 140 139 116  99  89  81  73  53  24  18  22  31  43  49  54  71 136 168 188 191 181 154 138 107  93  95  98 102 104 115 120 120 126 134 136 133 134 152 170 170 175 182 182 186 189 186 175 163 165 160 148 149 148 159 173 166 163 154 165 134 100 116  36  45  53  66  60  60  60  57  58  52
 136 132 113  86  70  49  44  52  62  71  83  83  73  65 148 185 176 165 139 126 135 127  89  53  51  70  79  45  34  32  25  28  36  53  72  86 147 189 203 205 190 164 150 133 120 114 103 108 115 125 129 135 133 138 131 142 159 180 183 182 186 193 197 199 196 187 172 166 170 160 155 152 153 165 172 165 156 168 179 158 108 125  50  54  62  66  64  63  58  58  57  56
 131 112  89  71  53  48  63  70  72  79  85  75  71  72 139 187 176 162 129 110 119 101  56  36  61  89 110  80  41  41  46  55  61  70  81 103 162 195 205 207 196 169 158 153 150 150 136 119 120 133 142 145 151 157 165 170 180 183 188 192 197 201 202 199 196 188 169 166 168 163 156 156 160 170 171 156 148 177 181 171 124 133  70  64  70  66  64  63  54  51  54  57
 122  99  80  59  46  61  73  74  79  87  85  81  89  92 144 190 173 157 120 100 103  72  47  84  89  96 107 101  84  90  88  83  84  96  99 133 177 199 208 205 193 174 167 168 173 173 175 157 133 133 141 152 153 154 162 177 187 194 197 197 200 198 197 195 192 184 177 167 171 165 160 157 161 169 177 156 123 136 158 180 144 131  66  66  63  61  61  55  51  51  60  62
 109  86  64  46  54  64  66  72  80  81  86  99 106 110 187 189 174 163 137 111  89  77 106 128 117 110 109 111 109 107  97  92  98 109 125 158 188 203 209 206 193 183 181 179 181 181 181 185 175 161 158 159 169 177 184 194 199 202 202 197 194 195 195 193 186 180 170 163 157 161 161 158 164 171 184 169  77 109 140 165 168 122  64  61  64  63  59  57  59  61  73  81
  86  67  58  62  69  67  72  76  74  79  96 102  96 119 201 185 175 174 150 132 129 137 146 143 120 113 111 116 120 120 112 112 123 140 155 171 197 206 209 206 196 186 184 186 191 190 190 192 191 190 185 183 183 185 193 194 194 195 193 188 190 189 189 188 181 166 159 162 157 166 166 163 166 170 184 174  75 104 132 156 179 118  61  64  64  61  56  55  66  79  87  95
  67  58  67  76  75  78  77  66  77  91  98  90  83  92 149 182 182 180 169 182 174 167 169 163 151 148 144 140 143 138 128 143 160 167 172 187 204 210 207 207 197 190 185 187 189 190 192 196 200 200 198 197 192 190 190 192 190 188 184 185 185 183 178 177 171 166 164 163 164 169 167 166 172 173 180 191 102  92 121 143 181 128  68  73  70  65  62  65  78  88 100 109
  64  69  73  77  78  71  62  66  87  92  84  85  79  75 105 177 190 190 192 192 189 185 177 167 160 155 152 148 139 147 155 171 174 181 186 198 208 210 208 205 201 191 180 177 171 174 181 188 196 200 199 199 198 196 191 191 187 185 183 183 180 176 173 168 161 159 162 160 161 165 167 170 178 181 181 188  94  85 112 133 185 150  80  79  72  69  77  81  86  94 112 109
  68  73  76  77  74  54  64  89  90  76  74  75  68  67 103 154 199 195 191 196 196 192 184 175 169 163 158 150 153 166 179 181 185 184 187 204 209 209 210 208 205 196 180 164 146 146 167 184 191 198 200 199 199 196 195 193 189 183 181 178 180 173 168 163 157 155 158 159 159 167 169 173 181 181 181 179 107  92 121 151 188 150  77  76  73  79  88  86  90 106 115  97
  67  75  76  73  59  53  78  85  74  68  76  73  63  62  93 159 194 194 195 194 192 191 193 191 185 179 176 174 179 189 195 189 178 155 177 203 204 203 205 205 203 203 188 181 158 122 133 159 180 190 194 193 193 195 196 194 190 185 180 174 172 165 161 158 157 152 158 161 164 164 166 176 180 182 182 179 141 116 138 179 189 145  66  73  85  91  90  90 103 108  99  87
  71  74  73  69  58  61  74  72  73  82  88  73  61  55  85 150 194 192 193 187 184 187 190 191 187 184 183 184 189 197 195 178 139 125 191 200 192 188 189 190 195 192 181 190 187 137 110 136 163 177 184 193 191 194 196 190 183 182 174 173 168 157 155 154 159 156 156 162 165 165 169 179 181 186 183 177 172 183 192 185 178 137  71  79  93  91  91  97 107  96  84  76
  74  71  64  64  57  69  74  71  77  85  82  71  67  65  65 153 189 190 183 180 179 183 185 185 185 183 187 192 197 196 186 162 117 140 191 175 167 163 162 163 170 160 156 174 186 171 105 109 137 162 174 181 186 188 186 185 187 178 176 168 165 157 154 155 156 154 158 160 161 167 174 181 185 187 183 180 196 207 202 192 187 129  82  80  90  89  97 102  98  82  81  67
  67  66  63  60  65  78  80  75  79  80  76  82  77  76  68 132 188 183 176 172 172 176 174 175 178 187 191 195 195 190 172 142 109 170 166 144 131 131 132 139 144 139 131 138 159 169 118  88 107 141 160 175 180 182 182 181 182 178 175 165 163 155 149 152 155 157 164 161 164 172 180 187 185 187 182 178 188 192 197 205 199 123  96  88  92  94  91  86  80  74  72  59
  67  60  64  74  88  97  93  86  86  81  80  82  79  74  71 106 185 178 173 168 164 167 162 169 181 186 192 194 191 177 154 124 114 174 137 122 103 101 104 110 114  85  41  68 112 139 118  98  91 117 143 160 169 172 175 175 175 172 173 167 163 159 147 155 157 157 161 165 166 173 182 186 187 185 180 175 192 199 195 198 200 136 101  97  98  95  85  77  69  64  53  54
  60  60  71  84  99 106  97  85  81  84  81  81  82  75  72 104 182 182 170 159 160 164 167 174 184 189 190 189 177 164 150 122 112 155 100  77  83  83  82  89  83  34  19  36  79 103 114 123 106  97 125 145 156 163 169 170 165 168 171 165 164 155 152 154 159 160 161 165 174 178 181 183 185 183 180 177 187 209 197 193 194 150  97  90  98  95  77  72  63  48  46  50
  62  77  78  80  89  94  90  83  86  91  91  86  80  77  77  96 185 180 163 155 154 155 171 179 183 184 184 180 168 154 132 105 103 122  76  33  42  74  76  83  81  64  55  67  83 108 138 146 136 100 100 130 143 155 162 168 165 166 163 161 162 160 156 157 158 159 161 169 177 179 180 179 180 179 179 177 181 178 191 189 185 135  86  95  99  84  69  65  53  36  43  48
  66  81  86  88  91  90  86  90  93  95  88  82  76  81  78  94 183 179 164 157 153 161 174 178 180 183 183 172 158 142 122  98 110 104  73  47  52  70  72  75  75  73  88 106 118 136 152 160 155 126  94 109 131 147 157 163 168 161 164 163 161 161 158 157 159 158 166 172 179 181 179 181 180 182 176 175 176 145 157 174 162 100  79  89  81  69  62  57  43  39  46  55
  70  79 102 105 105  94  88  94  96  94  81  75  78  81  81  95 181 182 165 153 148 160 170 172 176 178 171 163 152 134 110  94 119 128  94  91  93  90  86  85  85 103 122 132 140 153 163 164 165 154 118 103 121 138 149 158 164 164 161 160 156 156 154 154 156 161 172 174 178 180 178 175 176 181 178 171 176 138 116 144 116  69  80  84  81  67  59  50  39  45  54  68
  75  94 111 102  91  86  79  88  96  82  66  69  75  74  75  91 186 185 165 150 148 160 170 172 174 170 165 153 139 124 100 102 137 148 137 132 124 122 115 110 111 125 142 148 152 162 166 169 169 166 145 116 122 130 138 148 157 158 158 161 159 155 155 156 156 164 173 170 174 176 177 173 172 174 179 172 175 156 117 124  65  66  79  80  74  61  55  50  43  53  67  71
  91 112 116 101  94  88  91 103  97  68  57  66  72  75  80  90 180 186 170 154 152 163 169 167 165 167 152 136 129 110  99 119 149 159 152 146 146 137 122 119 116 132 151 154 162 165 166 172 173 173 161 138 130 135 138 143 150 154 155 158 160 158 160 158 159 158 168 170 173 176 172 171 169 171 171 170 176 178 177 166  67  74  79  75  64  52  51  50  50  64  71  68
 101 116 113 102 100 100 105 104  73  55  65  81  85  83  82  90 167 186 171 155 154 162 166 161 159 152 137 125 115 104 105 135 159 161 159 158 158 143 125 119 120 139 155 167 171 172 175 175 177 178 177 161 135 140 148 146 152 151 154 152 156 157 157 155 157 161 170 172 174 173 169 168 168 170 167 171 175 173 176 176  97  79  84  73  60  51  51  55  63  74  70  66
 102 115 108 101 100 107 105  86  54  57  77  90  92  78  73 102 187 180 174 159 161 165 163 160 152 144 136 123 115 109 127 153 156 162 164 166 159 151 144 136 139 159 167 172 178 183 187 188 180 179 175 173 154 139 148 153 153 153 157 162 154 154 157 158 163 162 165 167 167 167 164 163 164 168 169 168 171 171 173 177 114  81  81  68  55  54  58  62  68  71  72  69
 110 116 108 100  99 100  86  60  57  72  87  91  83  74  77 124 194 181 175 164 163 166 163 154 145 141 127 118 113 124 144 159 164 172 176 174 175 167 158 160 155 139 122 123 129 139 155 171 183 174 167 176 165 147 153 157 156 154 154 155 155 155 156 157 162 163 165 163 163 164 156 157 157 160 162 163 170 166 171 181 136  74  68  61  52  55  62  66  68  68  72  64
 120 111 104  95  96  89  65  52  63  78  89  87  77  77  78 127 185 180 180 167 165 165 162 150 141 131 124 122 128 136 159 164 170 180 182 160 135 114 113 114 103  89  83  76  75  76  82 105 137 152 156 167 168 154 160 162 155 154 155 160 159 164 163 163 163 167 166 161 161 153 151 154 156 158 160 160 162 162 169 176 159  66  62  49  42  56  63  69  70  66  62  51
 111 101  94  87  79  62  56  57  65  79  80  74  81  91  84  85 163 182 180 167 167 156 157 143 135 127 124 128 132 148 165 168 179 167 128  98  80  72  68  61  56  52  51  42  42  49  55  65  77  99 112 138 162 162 163 171 166 159 157 161 161 163 163 165 159 158 163 162 157 149 151 154 150 150 150 157 159 158 167 173 164  72  58  42  66  69  65  65  69  64  49  52
  99  89  93  85  64  56  63  67  67  66  59  66  90  97  83  76 112 173 179 167 157 141 146 142 133 127 127 134 140 151 162 167 163 102  73  62  50  28  23  24  20  15  14  25  36  57  69  65  64  68  75 108 146 161 156 163 169 168 166 166 167 165 164 164 161 157 161 153 144 143 150 151 142 147 150 154 156 162 166 169 170  77  44  36  95  89  66  66  65  55  45  67
  94  93  99  82  62  63  70  73  65  53  59  81  95  87  76  77  83 144 179 167 150 139 144 140 128 126 133 137 144 151 147 145 112  67  56  44  35  25  24  25  23  29  50  86 115 126 131 128 127 126  99  97 126 147 151 165 171 173 172 167 168 169 167 161 163 160 160 144 139 148 151 148 144 140 152 156 155 164 159 166 152  65  35  30  82 111  77  66  54  47  63  90
  92  87  82  72  70  71  72  68  58  51  69  89  88  79  81  85  90 116 175 171 154 145 144 139 135 130 137 144 147 149 127  95  63  46  75  94  96  92  87  81  76  84 114 137 147 144 144 144 133 133 132 106 112 139 153 170 175 176 177 170 170 169 168 166 165 163 157 147 147 154 152 148 143 149 157 155 152 162 152 152 106  34  21  68 111 128  76  54  44  62  78  95
  87  71  59  63  80  85  79  76  70  63  82  86  84  87  86  86  94  98 155 173 154 147 145 140 138 138 142 145 150 147 112  69  67 115 142 147 151 140 134 131 136 138 142 143 137 140 135 135 134 135 132 125 109 125 149 157 169 176 179 174 171 170 169 168 165 162 156 152 150 154 154 143 145 157 158 157 155 152 141 132  56  22  53  95 108 102  79  46  54  76  81  94
  74  63  65  77  99 101  85  81  79  80  92  94  93  92  83  85  95  87 123 165 155 149 147 142 141 142 146 151 154 139  98  72  95 117 134 138 138 136 136 127 129 120 109 115 118 120 123 118 133 132 131 133 117 117 135 152 162 165 168 167 169 169 172 169 164 158 157 156 154 154 147 141 153 163 160 156 156 145 119  75  36  62  92  92 100  99  97  63  70  89  94  94
  70  72  81 100 101  90  82  79  72  76  91  98  93  83  80  86  87  78  86 156 157 149 147 146 145 145 150 158 147 114  88  82 100  99  93  88  91  87  85  76  74  78  77  85  92 102 110 113 124 123 125 130 127 115 120 136 151 157 159 163 162 168 170 168 164 163 159 158 161 150 139 133 159 162 154 153 154 115  86  48  82  92 113 109  91 116 103  90  87  96  95  86
  72  89 108 113  90  75  81  86  85  84  79  80  83  79  78  80  75  76  80 133 160 145 145 145 144 148 153 155 138 108  87  93 108 113 106  88  75  72  74  70  70  80  80  81  92  99 117 123 120 127 124 120 123 122 123 130 145 153 154 155 160 165 166 165 163 159 156 155 157 141 132 151 164 157 152 151 137  60  45  72 116 111  80  95 113 114 103  86  90  94  91  86
  92 112 126 115  93  86  89  93 101  96  82  79  80  76  75  72  66  69  81  95 147 147 140 141 144 144 155 155 131 106  89  99 115 121 121 110  95  88  83  86  89  92  97 101 107 117 127 141 139 139 138 133 129 125 123 128 135 144 150 147 151 161 166 164 163 160 157 158 145 132 139 156 154 147 145 144  99  56  94  91  95 103  91 113 106 110 107  81  93 106 100  85
 104 113 108  94  93  89  91  95  95  84  81  80  69  64  64  61  54  68  82  84 122 147 140 139 146 150 155 148 131 108 103 118 124 119 120 124 123 117 110 110 116 123 132 140 136 139 140 152 154 152 153 159 154 140 131 130 131 138 146 146 154 156 161 163 158 155 152 151 138 131 150 154 149 143 141 126  79  75 111 112  82  98 103 119 107 111 105 122 106 103  94  79
  94  99  84  72  73  76  77  84  77  72  77  67  57  54  59  61  66  81  86  83  93 135 137 142 148 152 147 136 125 119 123 123 125 120 133 141 139 139 144 145 151 159 168 172 173 170 160 168 168 166 165 161 162 149 136 133 130 133 137 141 147 155 156 155 153 143 148 145 131 143 150 149 142 134 131  88  92  74  73 116 114 120  90 110 108  94  99 129 145 114  82  77
  84  77  74  74  67  69  81  82  76  77  71  56  48  50  60  72  82  81  70  70  73 103 137 137 145 149 139 127 118 119 125 127 127 134 144 148 148 156 166 168 172 173 177 182 186 188 180 177 176 168 164 163 160 155 146 128 126 129 127 136 143 143 141 141 138 136 134 134 133 147 142 134 130 118  76  71 107 106  75 112  86 109 110 115  86  90 111 141 148 135  93  82
  84  75  83  79  68  74  85  88  83  69  55  41  42  53  64  75  77  65  58  64  74  62 116 139 138 140 128 123 114 118 118 126 131 141 153 160 161 168 169 172 177 175 182 181 184 190 187 178 168 163 161 160 157 150 142 129 117 120 125 133 135 140 132 131 127 130 130 120 139 145 132 123 112  83  56  69  93  87 103 108  97  91  94  97 101 106 122 134 155 138 135  94
  91  89  83  69  64  82  88  85  84  65  50  43  47  51  56  63  61  59  65  68  69  61  78 127 130 128 123 110 111 117 122 130 135 142 160 168 171 164 165 165 169 168 175 173 172 172 173 165 159 161 160 160 152 145 133 124 118 113 113 120 124 123 120 120 121 127 117 122 131 132 120 104  69  69  93  57  82  97  67  90 100 113  88  75  96 120 131 127 120 143 153 118
  90  85  76  76  82  84  73  72  68  52  46  44  46  52  65  71  73  73  71  65  62  71  70 106 132 125 113 103 110 116 120 125 137 141 145 161 165 161 156 159 153 151 157 157 152 151 151 147 150 159 158 153 145 135 120 111 107 106 105 106 107 108 112 113 116 114 110 123 119 110  90  57  50  71  77  96  97 104  61  98  75  80  84  71  60  75  95 102 121 152 147 145
  81  72  68  83  91  77  52  55  50  41  39  44  53  70  78  74  75  80  75  65  67  80  80  84 127 127 114 106 109 114 122 131 137 141 138 145 158 158 144 139 143 138 144 144 139 139 140 137 137 142 137 130 131 120 106  98  93  92  94  91  98 102 106 109 110 102 110 112 104  80  51  72  44  70  84  57  88  74  91 103  56  47  52  46  50  56  95 129 109 116 138 138
  83  74  75  78  71  50  40  51  58  50  48  60  73  78  78  74  75  81  77  72  80  85  83  77 110 131 112 106 109 112 115 123 129 141 150 131 129 138 133 125 119 122 124 128 133 131 133 126 129 132 120 113 111  98  96  92  90  91  92  93  97  95  97 102  98  99 101  93  63  49  69  83  74  77  93  62  84  71  64  65  43  42  31  67 108 105 122 157 131 124 158 121
  80  79  81  71  51  39  45  68  73  64  58  68  79  79  84  86  82  76  72  77  80  80  81  70  82 140 119 103  99 100 103 108 109 128 135 127 115 118 117 117 112 110 105 107 118 119 122 121 122 121 110  99  95  93  91  91  93  93  93  94  94  91  93  90  90  95  77  52  33  42  67  69  61  82  81  78  73  71  51  39  46  81  71 100 141 117 111 142 126 117 133 132
  76  68  57  46  40  45  63  75  68  56  58  66  77  87  87  83  79  73  72  76  67  72  74  71  59 118 140 105  85  85  82  90  98 107 111 115 101 103 101  97  90  92  93  97  89  98 105 107 102  99  91  85  86  93  96  92  96  96  94  91  90  88  86  76  81  61  38  57  60  34  63  57  31  84  66  67  89  60  45  37  72 113  97 107 150 137  93 115 103  89 109 121
  74  57  40  39  45  59  70  66  49  38  50  71  84  87  80  75  69  63  65  58  60  72  70  62  41  64 142 136  92  70  68  69  75  75  85  94  94  99  89  83  80  77  79  80  81  87  89  87  86  79  79  85  89  93 100  97  97  98 100  94  86  86  77  68  52  35  49  66  65  58  59  50  55  92  87  51  56  44  50  72  90 136 107  86 109 103  99 105 102 102 114 120
  65  44  39  49  60  68  67  53  40  45  60  79  84  78  74  70  66  50  41  47  70  84  71  62  37  29 119 142 123  83  62  61  69  71  70  69  70  77  74  69  69  65  61  64  65  68  69  70  71  75  86  93  92  94  96  95  99 101  92  90  83  69  57  27  45  40  30  48  42  46  48  47  74 107  81  45  31  51 111  87 103 141 136  85  75  89  99 104 109 110 110 111
  56  45  44  54  64  71  63  49  42  50  67  78  79  75  75  71  59  44  47  65  79  82  85  63  29  20  73 133 125 114  82  65  68  72  76  69  67  61  61  59  60  59  60  61  64  65  70  72  76  82  89  92  94  93  92  91  93  91  89  79  61  46  46  46  56  41  29  43  31  42  49  45  62  89  48  29  40  80 114  69  84 106  68  88  92 107 106 103 105 109 120 118
  60  60  62  60  67  65  51  44  54  66  70  74  81  77  73  65  52  53  67  79  82  83  91  36  20  22  28  98 120 120 101  82  76  78  79  75  78  73  69  65  60  60  64  65  66  71  74  80  84  84  85  90  91  90  90  90  87  79  65  47  28  49  42  55  47  34  37  37  44  65  69  74  64  59  40  41  63 122 143 105  59  83  95  98 107 111 105 103 107 108 121 128
  67  70  66  66  70  58  44  52  67  70  67  69  74  68  61  55  53  64  74  79  81 100  70  30  22  21  14  45 109 104  97  87  82  79  79  76  77  77  72  75  71  69  70  74  72  76  77  83  86  83  82  82  82  81  78  79  74  57  28  23  24  57  27  30  36  23  25  28  66  98  60  60  56  34  71  61  64 114  82  74  91  95  99 101 105 106 106 109 106 110 122 124
  64  67  65  70  76  59  59  64  68  65  67  71  67  52  46  55  63  72  76  74  82 113  56  20  21  16  14  17  77 102  96  91  90  83  77  74  69  69  67  73  71  71  71  72  75  77  76  79  80  78  74  73  73  77  72  55  40  37  46  33  42  54  29  30  32  23  39  61 102  96  48  41  26  37  93  98  60  68  81  91  96  97  98 104 105 108 111 106 114 117 118 125
  52  55  64  81  73  66  73  73  63  60  71  73  61  46  51  63  64  74  77  66  85 104  67  28  24  16  16  11  26  95  99  90  88  90  86  75  75  67  68  61  65  64  66  67  69  69  71  69  69  69  68  65  63  54  38  23  22  43  39  57  47  33  35  28  32  48  52  72  87  53  42  45  41  68  96  91  74  82  90  91  99  98  91 103 103 104 103 113 116 122 121 129
  47  55  69  80  63  68  67  61  60  65  74  74  59  56  61  72  80  87  99 114 129 102  72  35  29  23  14  10   8  59 101  97  86  89  91  84  75  69  66  63  58  57  58  59  60  62  61  62  59  60  58  49  33  16  26  21  23  45  24  24  31   9  21  56  58  74  75  65  46  27  38  63  52  62  69  64  87  90  86  92  92  92 102 101 105 111 117 112 120 123 120 110
  51  56  64  59  50  62  61  61  68  73  75  79  75  80  99 124 144 157 146 128 121 103  80  34  31  24  13  13   9  32  96  97  88  86  84  82  76  69  61  64  65  55  53  54  55  53  56  52  46  38  25  13  11  32  55  47  42  39  25  26  21  26  51  82  52  49  56  43  43  31  68  96  53  49  74  84  87  90  91  94  95 102 102 109 109 120 116 118 115 112 108  98
  64  72  63  49  58  67  69  66  69  83 112 133 148 173 164 152 151 163 171 118 122  92  91  58  33  26  22  18  11  23  89 104  91  77  74  68  64  60  54  51  50  48  44  42  39  33  30  18   4   4  13  18  23  36  34  33  37  22  18  15  32  47  82  81  46  40  35  45  40  46  66  59  64  79  84  87  95  92  91  92  94  92  98 105 110 116 118 108  98 101 104  96
  70  76  64  60  69  73  83  94 112 132 172 151 119 151 177 152 118  96 113 104 112  84  84  64  35  23  30  18  10  26  89 100  86  72  62  57  55  46  40  34  29  27  24  17   9   6   3   2   8  22  42  38  26  37  27  24  22  15  30  47  37  67  60  45  51  47  37  77  56  34  57  72  76  85  86  91  87  89  91  95 105 102 109 109 113 112 104 102  89  83 119 145
  71  69  68  76  88 113 131 159 139 108 131 166 124 134 145 157 117 117 105 113 107 108 100  86  48  35  24  14   8  47  83  88  86  69  61  48  39  31  25  24  22  20  18  15   8   1   7  14  25  35  43  42  43  38  27  18  26  52  59  65  73  73  38  35  43  54  86 107  60  59  73  82  84  91  91  90  92  89  98  94 103 113 111 109 111 100  91  90  84  96 126 146
  73  70  78 116 137 134 119 107 102  73  88 131 109 100  98 104 100  94  98 102 107 101  66  79  65  36  17   9  16  54  74  70  71  74  61  53  44  35  27  24  22  17  12   9  10  22  50  31  22  30  32  19  26  14  13  24  61  61  46  47  77  84  51  44  43  35  42  58  61  67  80  87  91  88  88  95 104 100 102 106 109 107 112 106 103  91  92 120 119 105 114 159
  71  85 104 127 111 103  84  58  58  37  65  72  61  64  92  87  99  96  97 113  96  85  99  90  78  54  26   8  30  63  68  62  62  57  52  44  39  30  24  17  14  10  13  15  31  46  53  49  42  32  19  16  20  29  33  58  83  75  37  36  64  47  74  75  45  33  52  63  73  81  90  90  88  91  96  94  95  96 103 106 108 102  99  93  88  84  97 133 126 103 118 144
