P2
# Generated by OpenCV 4.2.0
92 112
255
  25  28  26  24  23  20  20  20  20  22  22  24  25  30  30  30  30  22  21  18  15  17  21  23  23  26  28  27  26  26  26  27  26  26  20  25  28  24  26  28  26  23  24  20  21  22  23  29  29  29  29  27  31  32  26  22  22  22  22  22  20  21  22  20  22  22  22  21  25  26  24  21  19  23  37  45  47  39  35  28  23  21  19  18  16  24  23  24  24  25  26  23
  26  26  24  25  22  20  20  21  19  20  21  24  24  30  30  30  30  23  20  18  16  17  20  22  24  23  27  26  24  24  24  24  25  24  22  26  28  27  23  25  23  22  22  17  22  22  23  24  24  24  22  27  29  31  29  22  22  23  22  23  16  16  17  16  23  23  23  23  25  25  24  23  22  26  37  45  44  42  37  32  29  21  21  19  18  23  24  24  24  24  25  23
  24  24  22  22  20  20  20  18  18  17  20  21  22  28  28  28  28  25  21  18  17  17  19  22  23  24  25  24  23  22  23  23  23  23  21  27  29  26  22  23  20  18  19  17  20  21  22  19  20  21  20  26  28  29  25  22  23  23  23  22  15  16  16  15  23  23  23  22  23  26  26  28  28  34  40  41  40  39  37  34  33  26  24  22  22  24  24  24  24  24  24  21
  22  22  20  21  20  17  17  17  17  15  16  19  19  26  26  27  27  24  24  20  17  17  19  20  22  23  22  22  20  21  20  21  22  20  23  27  30  28  23  20  19  16  16  17  18  20  21  23  23  23  22  25  29  29  24  21  24  24  24  24  20  21  21  20  24  24  24  22  23  25  28  32  35  40  42  39  35  32  31  30  30  29  28  27  26  24  24  24  24  23  21  19
  22  23  23  22  21  19  17  17  16  15  17  17  17  24  23  25  25  21  21  19  17  17  18  20  20  21  23  22  20  19  18  20  22  23  22  28  32  30  25  16  15  13  23  21  16  20  16  25  24  27  27  21  29  29  30  23  26  25  24  23  25  26  26  25  23  24  22  23  21  23  28  32  35  39  38  34  32  24  25  26  27  30  29  29  28  25  23  23  22  22  21  19
  22  23  24  27  25  21  19  17  15  14  15  15  14  19  21  21  21  18  18  18  16  17  19  19  19  18  23  23  21  18  21  22  24  26  28  30  32  30  29  21  25  14  21  21  27  14  21  12  18  25  27  25  28  20  28  24  28  26  25  25  25  28  28  23  24  24  20  22  20  22  24  28  29  31  28  25  24  23  24  26  27  28  27  27  25  22  20  20  20  20  21  21
  20  22  23  25  25  23  21  17  16  19  18  18  17  19  18  19  20  18  17  18  16  16  17  19  19  19  21  22  22  22  24  24  24  23  27  29  31  30  25  25  39  33  22  15  13  18  11  10  18  21  26  17  34  26  20  31  28  26  25  24  26  30  29  26  25  22  22  21  19  22  25  26  26  22  22  22  20  22  26  26  27  26  25  23  23  19  18  18  16  19  22  23
  19  20  24  25  26  24  22  19  18  18  19  18  18  17  17  16  19  18  18  18  16  15  16  16  16  16  20  22  25  27  30  28  25  21  19  30  36  31  14  25  36  75  90 123 131 139 152 137 137 115 108  76  36  29  24  24  28  26  25  24  26  31  30  25  26  24  22  22  18  22  23  26  24  19  22  23  24  23  24  27  28  23  23  22  23  23  22  22  21  21  22  22
  18  19  22  24  26  24  22  18  17  17  17  17  17  14  14  17  16  17  16  16  16  16  17  16  17  17  18  23  26  28  34  29  26  21  22   6  10  47  92 169 163 176 151 141 142 145 139 144 155 144 152 148 133 138  99  57  27  26  24  24  26  31  30  26  26  25  23  22  18  20  22  26  24  20  24  28  28  21  25  26  27  23  24  22  22  27  28  28  25  25  23  23
  23  23  23  22  21  22  21  22  20  21  23  24  24  21  19  19  17  19  18  18  16  15  18  18  18  18  19  13  20  23  34  30  24  14  17 120 142 138 135 136 127 122 141 150 146 140 145 146 146 156 149 149 157 147 130 113 127  47   1  38  28  20  17  27  19  20  18  19  21  27  28  22  17  20  22  27  29  27  27  23  23  14  14  18  19  27  29  28  26  24  22  22
  22  22  22  22  22  21  21  19  20  20  21  21  23  19  20  16  15  19  19  19  16  16  17  18  19  18  17  19  18  23  19   6  79 127 141 125 132 116 118 126 126 135 122 127 144 139 147 147 146 160 176 173 160 145 155 131 125 148 130  63  15  31  12  23  22  21  23  24  25  26  26  22  21  25  27  28  29  23  22  19  18  14  17  19  19  26  27  25  25  23  23  23
  20  20  20  20  21  19  19  19  19  17  18  19  19  20  17  17  15  19  19  17  16  17  18  17  18  18  16  20  15  31  92 131 123 140 121 135 116 130 131 132 113 123 134 127 134 140 157 145 154 153 153 161 165 164 169 146 135 122 117 138 120  49  17  25  20  22  27  29  29  27  24  24  27  30  29  29  29  25  22  20  18  16  16  18  21  23  23  22  23  21  23  23
  17  17  17  17  18  20  19  17  17  18  18  18  20  21  16  15  14  18  19  18  16  17  17  19  17  18  17  14  67 122 128 126 131 135 134 134 123 120 125 125 136 132 134 129 124 132 158 143 153 149 158 168 165 158 161 147 137 135 133 122 131 139 110  27  19  24  29  34  33  27  21  25  30  33  31  28  27  29  29  24  23  15  16  21  23  23  23  22  22  21  23  22
  27  22  17  14  16  20  20  20  19  17  18  18  16  19  20  20  19  24  23  20  18  11  18  10  27  16  60 126 128 113 143 149 158 134 132 148 149 119 128 131 147 143 154 143 136 139 160 164 157 159 159 157 169 151 152 147 153 148 137 134 123 122 138 131  62   7  29  23  32  28  23  27  30  29  33  30  25  27  29  29  29  20  21  20  20  24  23  22  18  19  23  25
  22  21  19  18  18  20  20  20  18  17  18  18  17  22  22  22  21  22  20  19  17   7  20  18   6  85 142 135 119 139 125 157 167 137 142 146 135 125 146 149 142 152 137 142 140 138 148 166 160 163 165 161 167 151 146 145 149 143 136 142 144 125 126 132 127 105  18  28  32  27  27  24  23  32  34  31  27  29  29  28  29  21  22  22  22  23  23  23  21  21  22  23
  21  20  19  20  20  20  20  20  19  16  18  17  17  23  24  23  23  22  19  17  15  18  21  14 106 128 130 118 129 148 141 136 138 153 148 147 140 141 151 143 138 170 162 153 137 160 159 179 170 169 167 165 167 156 147 150 155 156 150 150 147 114 128 117 115 119 126  52  22  31  24  22  28  33  37  33  29  28  29  29  29  22  23  23  23  27  26  24  23  22  21  21
  19  18  22  23  22  22  22  22  21  19  20  20  19  23  23  23  23  19  18  15  13  22  12 108 111 119 142 121 139 136 137 141 155 153 137 151 160 165 165 154 161 160 162 166 154 179 171 176 172 176 180 166 165 166 156 165 163 160 149 149 150 108 131 121 115 113 119 116  64  24  17  27  26  33  37  33  30  28  29  29  30  21  22  22  22  28  27  25  23  22  21  20
  16  19  22  23  23  21  20  17  17  17  18  19  19  23  24  22  17  15   9   8   7  41 106 129 131 129 139 138 142 142 156 158 151 162 164 165 165 167 164 170 173 164 179 178 170 172 174 181 179 174 172 169 167 166 161 162 160 155 152 153 148 138 134 133 117 122 113 113 117 104  40  34  44  36  35  29  30  26  29  29  26  22  23  23  23  28  27  25  23  23  22  22
  18  19  21  24  23  21  20  17  18  18  19  20  20  22  23  22  16  16  20   6  50 121 129 139 143 143 139 142 146 148 155 165 161 169 177 177 180 181 177 180 176 163 171 176 173 175 181 181 179 176 173 172 169 166 163 161 160 161 157 150 141 136 135 138 126 111 118 108 117 109  88  34  44  39  38  32  25  24  29  30  24  21  23  22  22  23  24  27  27  26  23  23
  18  17  21  23  23  21  20  17  18  18  19  20  21  19  22  20  15  12   1  40 121 142 143 139 144 150 141 147 152 156 158 168 171 176 179 180 180 182 177 173 177 177 186 175 180 184 187 184 182 179 176 175 173 170 166 163 163 169 161 150 150 141 134 133 130 134 114 123  98 118  95  90  41  25  27  30  23  24  28  27  23  25  25  25  25  20  21  25  28  28  25  24
  14  17  19  21  22  21  19  18  18  17  20  20  21  17  21  18  12  14  36 123 143 142 138 136 142 147 143 151 159 164 165 167 168 171 172 172 173 175 176 179 180 182 184 182 189 189 186 186 184 181 178 178 176 173 171 167 167 168 162 156 161 146 136 132 126 128 126 114 113 101 111  99  75  37  18  24  20  24  27  27  23  27  27  27  27  23  22  25  24  25  25  26
  17  17  19  21  21  21  21  19  20  20  21  20  20  19  19  15   7  61 127 155 150 138 137 143 145 146 146 152 159 166 163 169 172 168 176 180 181 180 181 177 182 188 189 189 192 190 183 188 185 183 180 179 178 176 174 172 170 165 163 162 154 145 139 138 133 132 138 134 127 109 112  90  87  73  21  20  13  20  25  25  21  30  27  26  25  28  27  23  22  23  26  26
  20  20  20  20  19  22  23  25  25  25  22  22  20  19  13  10  35 137 145 151 139 135 139 142 145 145 147 153 159 163 168 171 173 176 175 183 178 179 184 183 184 187 187 188 192 189 184 186 184 182 180 182 182 183 180 177 171 168 163 162 158 153 148 144 145 141 134 127 136 107 128 114  80  79  59  12   9  20  21  22  22  30  30  28  28  30  29  26  23  23  26  26
  20  20  20  20  19  22  23  25  24  23  23  19  20  15  10  12 124 143 151 138 145 140 140 138 144 152 150 155 162 164 177 176 174 174 180 181 182 182 184 184 186 187 187 189 192 190 185 187 185 183 180 185 185 185 184 180 173 170 166 165 155 154 152 151 143 137 135 139 135 131 131 124 104  99  87  33  40  22  24  26  27  23  26  32  35  30  29  26  24  23  26  26
  20  21  20  20  19  22  23  26  24  22  21  20  19  20  10  78 143 146 149 144 149 144 141 141 145 150 150 156 161 166 177 176 178 179 184 181 184 186 183 184 187 187 188 190 193 190 184 187 185 183 181 183 182 182 182 180 175 172 168 167 158 155 153 150 151 144 138 136 133 131 134 132 116 104  87  86   3  28  27  30  31  23  28  34  38  33  29  26  24  23  26  26
  20  19  20  20  19  22  23  25  24  22  21  20  17  14  24 145 158 150 146 156 144 143 141 147 147 144 152 158 163 167 173 175 180 185 189 179 187 189 182 185 186 187 188 188 193 190 185 186 184 183 181 180 178 176 175 178 177 173 170 169 164 158 151 146 143 148 147 141 133 145 133 138 133 136 101 102  73  30  32  32  34  28  32  35  36  31  29  26  23  23  26  26
  18  17  14  13  13  17  21  17  13  20  20  12  16  25 130 155 129 148 155 146 153 140 140 145 151 154 154 159 165 166 165 179 188 187 187 188 185 184 185 186 188 187 188 193 191 191 190 191 187 184 182 181 182 182 184 182 178 174 170 167 166 155 148 150 149 149 150 150 136 139 137 134 145 135 123 111  90  26  27  32  32  23  26  28  29  27  27  26  25  25  23  21
  17  15  13  13  13  18  21  18  13  13  11  17   5  66 153 162 142 152 156 148 149 141 144 147 152 156 163 164 164 162 181 184 189 194 201 206 206 194 188 193 193 193 194 195 193 194 192 194 191 188 185 185 186 184 183 182 178 173 170 168 164 157 150 147 141 144 149 153 153 148 136 136 145 159 145 111  83  70  25  24  28  23  25  28  29  26  26  25  24  24  25  23
  16  15  16  11  13  18  21  18  13  20  12  12  18 138 144 140 153 157 159 147 147 142 145 150 155 160 168 168 167 166 172 184 202 217 204 211 217 213 206 203 204 206 206 200 200 198 198 199 197 194 192 192 190 186 183 181 178 173 169 167 160 157 149 143 137 140 145 148 155 151 137 139 145 141 143 150 104  98  34  22  16  22  24  26  29  26  25  23  25  23  27  24
  15  14  12   9  12  18  21  18  12  14  11  12  75 148 150 148 151 158 162 147 148 143 147 152 158 161 164 168 174 176 169 184 194 193 200 200 198 194 195 199 199 201 199 206 205 203 204 203 201 199 195 196 194 189 183 181 178 174 170 167 157 158 151 140 140 141 141 141 141 147 142 141 147 145 144 127 129 102  73   9  19  22  23  25  26  26  23  24  23  25  27  25
  19  18  17  18  19  19  18  15  16  16  15   2 141 152 152 149 153 162 158 153 146 146 142 160 156 162 167 166 166 165 175 187 198 199 199 200 204 208 205 202 205 207 210 197 201 198 193 197 195 195 194 195 185 190 192 180 176 172 166 165 155 151 146 144 143 143 143 143 139 138 139 142 140 141 144 135 133 117 109  24  16  24  24  22  23  21  22  22  22  22  21  25
  18  18  18  18  19  18  18  15  14  19   9  23 154 148 151 158 156 160 157 153 148 147 149 162 160 165 169 169 169 168 180 188 199 204 204 205 205 207 207 207 205 203 203 199 202 200 194 197 195 196 194 196 189 190 187 180 175 170 165 163 156 152 147 144 137 138 138 137 138 137 139 141 142 148 148 139 141 132 102  60  22  20  21  20  21  22  23  24  25  23  24  27
  18  18  18  18  19  18  16  15  15   9  11  95 160 147 158 161 165 157 156 153 151 150 157 164 170 168 171 171 171 170 176 181 188 198 202 202 201 199 204 208 205 202 202 200 203 201 195 196 195 196 193 194 194 187 182 179 174 170 164 162 156 152 147 144 135 135 136 135 136 137 138 140 143 150 149 142 148 148 114  98   7  21  21  22  20  24  25  25  27  26  28  29
  18  18  18  17  18  17  15  15  14  14   0 143 157 143 157 172 166 154 154 153 153 152 164 165 176 169 173 173 173 172 176 177 185 197 210 209 206 203 202 205 205 206 206 200 203 201 196 196 194 193 193 192 197 185 177 178 172 168 162 160 156 152 147 143 137 139 139 138 135 135 136 138 141 149 141 137 145 139 124 110  18  25  24  25  25  26  26  27  27  27  29  33
  15  16  18  18  18  17  16  16  15  40   0 156 141 150 155 166 162 154 151 147 157 153 165 166 177 174 173 180 171 172 175 183 187 190 207 206 204 203 206 210 208 205 207 202 199 201 205 192 191 201 203 200 196 192 183 173 167 164 160 159 153 152 148 146 140 139 139 138 136 142 137 134 136 145 131 144 144 137 142 119  64  23  19  25  25  24  23  24  25  27  29  29
  16  16  18  18  18  18  18  18  18  23  32 160 147 153 171 171 164 156 152 149 160 155 167 166 177 176 175 181 173 174 176 185 185 189 189 189 188 186 188 189 188 186 186 186 183 185 190 185 183 188 187 189 184 185 177 167 164 161 159 158 156 155 151 150 141 140 141 140 139 143 137 134 139 146 141 144 150 136 134 117  96  22  21  28  22  21  22  24  25  26  25  24
  16  16  18  18  18  18  18  18  17  23  78 166 156 158 160 152 156 156 150 158 163 160 168 168 180 178 180 180 180 178 180 184 185 193 200 200 197 197 194 193 193 194 195 192 188 190 194 201 193 194 188 185 180 182 176 166 164 161 158 156 161 159 156 155 145 144 144 143 142 141 138 136 136 134 140 125 137 136 128 118 129  25  23  29  19  20  21  22  24  23  20  18
  16  16  18  18  18  18  18  18  18  14 111 150 153 161 152 166 149 155 150 168 165 165 172 171 182 181 185 177 183 182 184 185 184 197 196 196 195 193 190 188 191 195 196 189 184 189 194 194 187 189 184 184 182 186 183 173 169 167 163 162 165 163 161 160 147 148 147 146 145 137 138 138 136 142 144 127 131 137 130 116 139  38  20  23  16  20  21  21  24  23  22  21
  16  16  18  17  17  16  17  17  17  10 107 144 140 160 161 141 153 155 151 171 167 168 173 172 182 181 186 176 184 185 184 184 185 196 194 193 193 191 189 190 190 196 196 192 191 191 197 190 186 189 185 179 177 183 181 174 174 171 169 168 168 165 163 162 151 148 148 147 146 137 138 139 130 139 134 120 119 136 131 118 137  52  21  17  20  18  20  22  23  23  23  24
  19  18  18  16  16  16  17  18  18   5 162 149 131 153 144 142 144 153 156 163 169 168 173 172 177 183 182 176 180 189 188 190 196 200 194 197 197 192 191 188 184 195 190 192 186 188 192 190 193 186 181 178 181 184 180 177 175 168 170 173 172 164 160 161 156 151 147 149 147 143 138 133 132 133 137 120 131 131 120 124 142  74  29  18  26  19  20  23  27  29  31  29
  19  19  18  16  18  17  19  19  19   2 151 120 139 142 140 142 145 154 163 166 172 167 167 171 181 184 182 178 180 187 181 185 189 193 196 198 201 198 197 188 195 195 205 193 189 191 197 196 197 191 186 188 188 187 183 180 174 169 171 172 172 164 160 161 160 154 150 153 147 143 136 130 131 129 136 131 120 127 117 123 131  96  22  22  22  24  25  27  31  33  34  33
  19  18  18  16  17  18  18  19  19   0 160 146 139 128 137 144 146 148 163 162 166 165 166 173 178 177 179 180 181 183 185 188 192 196 196 202 206 205 199 190 190 183 193 196 194 193 199 200 202 195 191 193 189 181 179 179 173 168 169 171 172 164 160 161 157 152 148 150 149 145 134 126 120 124 117 136 120 113 121 110 132 109  22  31  24  26  28  32  35  35  32  31
  19  18  16  14  16  18  19  19  21  14 164 134 149 119 133 144 146 142 161 157 160 166 169 176 173 171 180 182 182 181 185 187 192 196 197 202 208 210 207 215 196 192 194 199 195 196 200 203 206 199 194 194 185 175 174 177 172 167 168 170 171 162 160 162 151 147 143 145 149 145 133 121 113 107 110 122 140 127 115 106 118 115  27  37  29  26  29  33  37  35  27  25
  16  17  19  22  23  23  22  19  19  20 161 132 138 126 136 145 138 150 160 159 153 160 169 164 169 141 135 152 159 181 185 183 185 188 196 189 197 197 190 193 197 196 194 195 198 199 212 200 196 192 197 190 187 184 181 174 163 154 164 177 179 165 151 149 153 144 132 147 146 131 130 135 115 107 103 105 107 106 113 115 135 107  43  45  46  45  44  50  55  52  43  43
  18  18  21  24  22  20  18  17  17  33 156 139 120 128 137 147 139 144 156 154 153 159 147 118 119 119 122 121 115 118 149 161 156 168 182 178 179 189 188 185 189 190 191 191 190 188 197 198 190 181 177 190 176 179 179 165 164 158 153 154 128 133 127 131 144 142 133 136 146 121 129 138 110 110 108 103  95 122 100 122 125 144 100 102 105 105 106 109 113 112 109 108
  35  36  38  41  41  40  37  35  35  42 142 141 120 126 137 147 139 149 156 150 142 134 131 142 138 141 141 147 136 105  80 107 106 106 141 155 165 168 170 173 178 183 184 186 182 172 181 176 178 176 172 181 178 169 162 159 150 129 117 116 118 119 120 117 118 122 117 121 134 115 126 134 111 107 106  99  92 118  98 120 130 142 145 156 156 150 151 152 151 153 154 152
  89  91  94  96  98  99  97  96  95  93 136 146 127 125 136 147 138 143 151 147 141 150 154 151 130 143 140 151 151 128 100  96  95  97 111 126 133 143 158 163 171 177 179 181 174 163 165 178 170 153 134 120 117 120 121 108 100 114 122 121 126 138 140 137 130 116  98 108 121 117 123 126 116 100  97 100 102 114 115 103 130 159 167 167 175 168 169 167 166 166 166 165
 138 138 140 139 142 138 136 134 137 126 140 137 138 133 138 143 142 158 158 151 137 151 149 149 159 150 152 162 183 167 139 128 117 112 122 128 149 152 149 168 172 173 184 176 167 161 160 168 152 149 135 129 111  94  84  88 110 127 148 161 135 132 137 134 120 115 113 101  94 119 102 126 108 105  99  92  87 108 108 116 132 168 166 167 168 170 169 169 168 167 166 165
 158 160 160 161 160 162 162 169 130 136 148 149 124 139 148 146 151 152 163 156 163 157 162 161 161 165 171 173 172 176 171 163 153 144 122 121 133 142 145 161 171 167 170 173 160 155 161 148 146 135 131 122 118 108 118 128 130 153 169 173 159 156 157 153 131 133 113 113 116 125 116 118 110 105 100  95  93 106 109 115 132 168 167 167 169 169 170 169 169 167 166 166
 157 158 159 159 156 164 158 156  92 142 141 131 120 144 151 146 152 146 182 154 160 154 163 164 151 152 155 164 173 179 174 164 148 137 134 128 122 124 136 159 173 171 172 171 156 148 152 141 140 118 118 126 127 144 155 158 175 182 177 167 168 155 147 133 143 144 122 112 115 112 118 109 115 105  99  98 101 104 109 113 129 166 165 169 168 168 169 167 167 166 165 165
 160 161 162 162 161 162 162 152 119 108 132 112 129 136 143 148 149 144 161 154 154 148 144 139 143 146 135 127 134 129  84  80  86 108 123 126 116 115 128 147 164 173 184 180 168 151 139 134 120 120 126 142 148 145 152 166 168 172 172 170 175 163 156 142 145 134 132 121 123 125 125 117 116 106  98 100 110 101 109 111 129 165 164 166 167 168 167 167 166 165 164 163
 157 157 157 157 156 154 159 148 158 138 126 117 122 137 142 144 140 145 136 146 148 139 135 127  84  55  22  32  44  66  30  35  53  52  71  87 103 106 112 139 156 178 191 186 170 157 133 120 103 122 125 126 108 106  74  90  74  63 102 119 140 141 142 136 125 140 121 130 124 121 117 111 106 105  95 101 109 106 112 109 113 141 172 160 166 166 166 164 164 164 164 162
 156 156 156 156 155 156 157 146 168 161 121 120 112 127 140 153 160 158 163 150 134 130 119  56  52  76 139  32  45  65  39  61 128  73  90 105  95 114 122 148 160 186 197 193 172 157 130 117 106 130 114  90  80  62  69  70  36 107  24  34  28  46  69  85 117 126 117 119 131 135 128 119 119 114 106 109 116 101 113  98  95 103 145 167 165 165 165 163 163 163 163 161
 154 153 153 153 154 153 154 147 173 169 118 134 119 122 133 143 148 148 146 140 119  98  85 115 124 131 129  88  63  64  64  79 158 118  73 129 132 138 129 159 164 187 200 199 180 151 127 119 107 143 102  92  99  51 129 147  56  44  24  49  69  58  31  47  93 120  96 103 137 155 137 108 110 109 103 106 108 100 103  91 107 104 104 161 161 163 162 162 161 161 161 159
 151 151 151 150 152 151 151 148 179 187 135 134 105 129 138 148 150 163 166 168 161 146 140 136 161 153 147 146 169 150 147 138 143 138 145 143 151 176 157 165 163 184 197 191 179 142 123 115 129 159 131 138 133 153 140 130 134 131 137 124 142 121  97  83  82  78  96 137 154 146 120 106 111 109 109 108 108 111  96  99 105  77  60 135 161 163 160 160 159 158 159 157
 149 149 149 148 152 150 150 147 183 193 141 142 110 109 126 145 156 159 165 162 161 167 155 156 152 166 155 156 175 183 174 168 151 127 127 140 181 174 148 165 160 178 191 182 175 136 119 126 130 184 170 149 145 148 166 163 179 171 152 146 147 129 124 132 117 127 133 129 122 128 134 117 100  99 100  97  95 121  90  98  74  88  79 140 164 160 160 160 160 158 159 157
 151 150 150 150 148 154 154 143 189 178 153 139 104 114 133 148 146 152 154 160 166 173 163 141 144 158 153 158 154 145 144 151 134 128 130 148 172 166 155 161 164 175 183 180 176 143 114 139 140 153 152 152 143 139 148 156 153 147 141 138 138 146 148 147 135 146 154 146 144 129 126 117  96 101 101 100 103  98  99  86  82  88 102 130 168 161 162 162 161 161 160 159
 149 149 150 150 148 153 145 152 181 140 165 152 107 117 126 142 145 157 158 161 169 170 169 173 169 165 152 151 158 171 144 146 160 157 164 163 170 165 158 158 159 165 170 176 170 140 117 118 144 149 165 147 145 145 140 138 142 143 143 144 127 118 129 149 164 167 155 148 133 132 131 131 108 100 100  99 102  92  83  79 103 106 119 131 165 161 162 162 162 161 159 159
 150 149 148 149 148 150 144 152 163 148 168 149 105 118 133 143 153 143 153 162 163 166 173 168 168 168 179 181 177 171 182 187 181 175 182 173 170 166 158 155 156 164 170 173 165 137 119 123 150 150 163 176 173 169 165 160 153 154 153 153 162 158 160 166 172 167 153 147 136 128 131 110 105  92  92  91  95  96  75  95 114 114 128 130 163 162 162 162 162 161 159 159
 150 148 148 148 148 146 152 146 144 186 161 136 100 110 130 145 140 164 163 167 176 182 180 180 186 190 180 179 180 180 175 181 183 181 182 174 172 167 155 153 158 170 180 170 159 135 120 126 145 154 164 168 174 175 168 162 164 166 170 169 177 176 174 173 160 153 152 140 140 133 126 119  97  96  95  95  98  97  81 120 110 111 127 124 162 163 161 161 161 160 158 158
 149 150 151 152 153 150 151 152 142 178 183 125 101 112 125 154 143 155 160 169 175 181 191 190 180 179 172 176 180 183 181 183 174 173 171 175 171 165 160 159 165 171 173 167 159 131 128 127 151 165 172 160 166 173 176 173 175 171 166 179 175 176 177 168 166 154 138 141 142 142 125 115  99  93  95  97  93  97  82 103 114 119 137 146 161 162 161 161 161 162 162 162
 150 150 150 151 151 149 150 151 140 169 158 114 105 112 127 148 145 160 164 172 179 182 189 191 183 184 180 181 184 186 180 183 172 171 165 179 172 167 166 157 159 169 178 162 147 124 122 138 159 167 170 172 175 176 173 170 178 180 176 177 173 172 182 169 168 148 145 142 138 127 124  98  96  94  94  94  94  78 103 134 122 107 115 160 170 161 162 162 162 162 162 162
 148 148 148 149 151 148 150 150 141 163 149 106 109 111 130 141 149 159 163 171 177 179 187 191 186 188 183 184 183 184 173 178 171 173 173 182 177 171 163 162 178 179 172 169 153 137 126 140 160 168 170 175 177 176 170 168 172 177 177 169 177 177 171 168 159 156 141 137 126 127 109 100  85  94  94  88  95  83 116 149 137 109  95 162 157 162 162 162 162 162 162 162
 146 148 148 147 150 147 149 150 138 161 160 106 109 112 133 135 152 153 157 165 171 176 186 192 188 192 182 181 179 178 177 186 189 196 190 176 178 170 154 167 181 183 179 168 162 149 124 130 152 165 171 184 187 188 184 182 176 174 180 176 168 168 182 168 158 155 145 138 127 123 112  96  84  93  93  83  95 113 108 138 149 116 121 154 156 162 161 162 162 162 162 162
 144 146 149 153 152 151 154 148 136 161 166 112 114 116 133 139 145 154 158 165 171 180 188 184 185 198 194 187 188 194 210 204 204 208 203 179 177 171 160 167 162 182 167 165 175 142 133 112 146 149 168 187 183 208 189 192 178 182 191 171 172 175 171 165 160 151 137 140 132 118 112  93  92  87  86  90  95 106 113 128 118 114 132 159 163 161 162 162 162 162 162 162
 143 145 148 151 150 151 152 149 146 172 156 113 113 117 132 138 145 152 157 165 173 175 185 193 195 203 198 196 200 205 202 197 188 179 170 165 173 161 142 148 170 179 175 171 166 136 128 105 130 120 133 167 194 193 201 210 202 188 183 183 176 178 175 169 155 146 131 135 129 117 112  92  92  87  86  90  95 103 110 113 102 120 119 160 162 163 162 162 162 162 162 162
 140 143 145 148 148 151 149 152 165 184 138 118 113 117 132 139 144 150 154 162 168 170 182 197 203 208 203 205 207 208 204 195 179 165 160 159 164 157 150 154 184 181 181 178 167 150 143 114 127 136 112 149 165 179 178 189 210 209 193 187 179 181 178 173 150 145 128 131 125 114 111  94  94  88  87  91  94  92  90  94 107 116 115 163 159 162 162 162 162 162 162 162
 139 140 143 145 146 151 146 152 181 184 118 126 119 116 133 139 144 147 152 160 166 170 180 189 195 208 203 204 200 193 180 165 151 152 153 162 163 153 144 151 185 217 207 189 174 158 139 114 126 139 106 141 137 137 160 176 185 204 211 197 176 179 175 169 154 145 131 135 123 111 109  96  95  88  88  91  97  96 105 107 116  97 127 159 158 162 162 162 162 162 162 162
 136 138 140 142 143 153 142 154 185 188 114 119 118 119 138 136 144 145 149 155 168 172 179 180 189 202 194 197 191 177 159 133 135 157 147 161 164 145 127 155 157 175 181 181 163 153 115 105 117 117 102 101 137 112 139 159 170 174 201 198 172 171 170 165 154 148 136 134 120 106 110  98  94  88  91  94  95 111 139 128 112  91 146 160 160 161 162 162 162 162 162 162
 137 138 138 140 141 149 144 150 178 171 116 117 121 124 142 135 143 151 152 151 161 164 169 175 183 186 186 181 172 156 139 125 166 181 134 155 146 153 118 133 146 159 146 153 148 131  97  88 109 116  96 100 122 165 128 139 156 169 172 177 168 164 166 162 151 145 137 130 120 105 110  99  93  89  94  94  92 109 140 131 116 105 159 165 160 161 162 162 162 162 162 162
 137 138 139 139 143 141 148 142 163 161 121 122 127 126 140 137 144 150 152 148 158 158 162 168 168 168 164 163 151 132 110 146 179 178 147 107 110  49  29  86 138 132 127 135 113 101  67  65  60  70  95 119 139 168 171 131 138 150 176 164 162 158 161 156 148 143 134 127 119 104 110 100  95  93  96  94  90 111 134 134 126 122 167 167 162 161 162 162 162 162 162 162
 139 138 138 140 141 140 144 140 139 153 119 120 127 128 137 141 145 144 147 146 157 157 161 166 159 152 151 146 122 111 155 183 182 185 170 108  88 106 107  96  96 102 105 109  86  65  69  96  89  95 115 117 133 161 172 172 132 142 142 151 156 152 154 149 146 140 132 124 119 104 109  99  97  97  97  94  88 120 129 135 129 125 166 164 163 160 162 162 162 162 162 162
 138 137 138 141 138 144 139 142 122 123 114 122 119 131 136 144 146 153 152 145 148 151 163 167 158 146 126 114 111 150 190 169 189 182 171 160 158 156 174 126  89  64  58  70  68  78  80 112 112 114 115 133 142 170 173 179 143 120 140 149 153 149 152 146 146 140 131 124 119 104 109 100  98  99 101  94  87 128 129 134 128 122 161 161 163 162 162 162 162 162 162 162
 139 139 139 138 138 138 141 142 143 130 121 116 119 136 137 141 143 143 142 144 153 157 147 150 145 140 117 110 150 180 181 178 185 167 170 163 158 164 170 167 160 144 119  83  83  95 110 109 109 109 116 128 146 154 153 162 163 131 127 147 149 145 147 146 143 135 133 126 115 104 105 110 106 100  95  92  88 149 127 128 126 112 150 155 159 161 162 161 162 162 162 162
 138 139 138 138 138 138 140 141 143 141 115 125 135 138 141 144 146 143 143 145 148 151 149 138 146 135 109 155 176 180 164 162 171 166 158 160 162 158 152 147 153 152 145 129 129 130 114 113 111 117 126 137 139 137 142 151 159 158 129 132 144 147 143 142 138 128 128 125 116 106 107 111 106  99  95  88  83 137 124 124 119  94 167 164 160 162 162 162 162 162 162 162
 139 140 139 138 138 137 139 140 141 140 108 119 123 143 144 147 150 149 150 153 152 154 160 152 157 142 149 176 168 172 165 157 155 157 155 161 164 159 156 160 154 145 142 138 147 154 141 144 132 142 145 142 131 131 137 143 142 159 156 133 145 155 144 144 138 125 126 130 120 109 110 115 110  99  93  83  79 118 111 107  91 152 163 165 160 163 162 162 162 162 162 162
 137 139 139 138 137 136 138 140 140 141 116 119 114 147 148 150 151 155 159 164 156 155 154 170 158 142 167 176 167 166 163 154 150 163 165 166 166 163 161 165 155 141 147 151 154 155 157 152 132 141 138 136 129 137 142 140 150 152 158 141 150 165 149 149 141 128 128 136 123 112 112 117 109  98  91  81  70  97 102  76 128 164 152 168 162 160 161 161 161 161 161 162
 140 140 139 139 140 140 139 139 138 129 114 116 116 133 149 151 158 160 162 168 173 170 174 173 156 168 169 164 171 160 151 158 163 158 157 165 156 167 167 154 162 163 158 151 166 165 159 148 152 149 139 136 142 149 152 132 149 150 150 153 133 157 169 153 148 132 143 139 123 110 119 111 107 101  94  75 165 119  99 149 161 163 163 162 163 163 163 163 163 162 162 161
 140 140 139 139 139 139 139 139 139 142 111 113 104 127 154 148 157 161 163 169 173 176 177 176 160 164 160 165 167 157 172 165 173 170 177 169 166 170 180 165 167 173 174 178 165 153 138 126 125 123 132 130 133 139 142 132 143 153 162 150 136 174 166 157 148 138 146 142 126 114 120 111 107 101  89  66 163 156 167 165 166 162 163 163 163 163 163 163 163 162 161 161
 140 139 139 139 139 139 140 139 139 144 114 120 112 126 142 160 159 162 165 171 175 180 179 180 169 168 157 162 161 153 147 127 126 120 118 112 106 108 110 112 110 117 115 113  93 100  96  96  85  84  78  70  69  80  90 108 116 151 151 161 148 188 172 161 148 149 152 145 132 117 121 111 106  98  83  83 163 174 163 159 162 163 162 163 163 163 163 163 163 162 161 160
 140 139 139 140 140 139 140 140 140 134 111 110 106 121 141 163 160 163 167 172 177 180 176 182 182 179 185 156 127  95  68  52  56  72  82 104 100 117  98 111 114 110  94 133 140 121 172 137 131 159 132 108  87  63  34  39  83 146 165 178 171 190 183 163 149 158 157 148 136 120 122 112 106  94  76 128 161 161 162 165 160 163 163 162 163 163 163 163 163 161 159 159
 138 140 139 140 138 144 143 137 151  39 114 103 103 110 139 157 161 163 163 166 175 177 177 185 189 183 174 163 154 153 102  51  48 101 169 115 109 181 117 183 198 181 168 197 187 158 221 217 112 171 153 121 112  72  60 123 159 155 172 176 189 193 176 160 161 162 152 148 134 123 119 114 105  84  83 166 167 163 163 162 164 162 163 164 163 163 163 163 160 160 157 155
 138 139 139 140 140 137 132 147  52   6 110 113 107 105 135 156 158 164 161 165 172 180 181 185 187 178 173 164 157 158 150 125 112 104 112  75 180 167 191 188 159 136 191 158 127 112  87 155  96  69  70  98  85 124 143 144 158 163 178 179 190 192 176 163 166 165 155 153 137 125 117 107  98  76  64 164 163 164 164 164 164 164 164 164 164 163 164 161 161 159 156 155
 139 139 139 139 139 140 137  95  25  20 106 107 107 101 123 150 152 163 163 166 174 183 184 186 185 175 171 162 159 161 157 139 132 132 119 130 104 117 128 137 188 207 213 226 183 198 156 142 112 127 116 122 119 126 140 143 160 171 187 186 189 188 174 168 168 168 157 154 140 126 112  98  88  69  82 172 161 164 165 164 164 164 165 164 164 164 163 161 159 159 156 153
 139 140 139 139 140 136 118  23  37  15  96 124 110 104 107 137 151 159 159 160 170 178 181 185 188 179 169 163 162 164 166 158 155 143 141 146 140 138 138 126 125 116 133 131 123 115 115 123 123 118 129 112 126 128 144 152 169 172 189 190 186 185 174 173 162 164 153 149 134 120 109  95  82  66 137 165 161 164 165 164 164 164 164 164 164 162 161 159 159 157 154 154
 144 137 139 141 134 139  29  31  33  23  62 123 109 106  98 124 147 155 156 161 169 176 178 184 189 186 165 169 165 167 174 161 154 150 153 160 161 163 167 165 153 148 134 137 149 152 156 138 142 132 124 126 137 136 148 156 170 169 181 194 185 183 174 173 162 161 150 144 130 113 107  92  83  66 170 154 160 163 163 165 164 164 164 163 162 162 161 159 157 156 154 153
 130 147 145 136 135  46  32  37  28  19  42 133 108 104  96 113 123 151 155 163 170 175 178 182 186 188 166 176 171 162 170 165 161 157 147 151 157 161 160 154 157 159 169 165 168 163 156 149 150 135 134 139 140 138 155 168 163 162 178 194 181 181 174 166 163 157 148 138 129 106  94  83  67  90 166 162 164 163 163 163 162 165 162 161 162 159 158 157 155 155 154 154
 139 135 134 133  28  36  29  30  37  23  13 131 123 113  91 103 115 146 151 159 166 171 173 176 180 182 173 170 164 160 164 166 166 166 161 153 148 151 151 147 150 150 155 156 156 155 153 148 151 138 138 148 148 150 167 175 171 155 176 183 176 177 170 162 156 153 145 136 104 111  78  67  51 145 162 159 166 163 164 165 164 163 162 162 161 158 157 155 153 154 154 154
 141 149 132  37  41  32  29  31  26  27   6 108 130 120  99  95 124 143 147 155 163 166 167 171 176 176 177 179 164 166 167 168 171 171 173 168 160 158 156 166 166 178 170 169 162 158 158 151 151 149 142 156 161 158 159 167 171 157 168 175 173 173 167 157 157 150 137 126 103  88  78  70  65 174 171 158 165 164 164 165 164 162 163 162 161 157 156 154 153 153 154 154
 123 137  42  33  28  34  20  43  21  27   9  84 128 117 127  96 102 140 144 154 160 163 163 167 171 173 175 180 184 167 174 172 171 169 178 179 178 171 171 176 184 170 170 163 161 167 177 160 168 158 163 168 165 154 167 180 166 160 159 173 171 170 164 155 148 138 120 104  96  90  63  56 124 154 152 165 166 162 163 164 164 161 162 160 161 156 154 153 151 151 153 153
 138  44  34  32  31  32  27  26  30  25  24  28 123 126 134 104  89 130 136 149 166 163 160 153 160 168 168 175 175 173 179 169 175 183 171 183 185 183 185 188 188 180 170 169 175 177 163 169 170 162 161 169 163 171 164 166 167 159 152 173 163 164 157 142 152 133 114 100  77  72  53  53 178 166 167 168 166 159 164 165 159 162 164 163 155 154 154 155 155 155 154 155
  45  34  36  25  38  32  26  26  29  27  27   1  77 130 128 138  74 108 129 137 155 159 161 155 155 162 162 164 172 177 172 171 170 184 182 188 182 175 178 179 181 185 187 179 180 178 161 175 170 159 162 174 170 173 169 166 148 140 148 153 154 151 147 147 137 120 101  90  79  63  50  61 118 161 177 163 167 164 159 160 166 158 159 157 153 154 155 155 155 155 156 155
  29  31  29  35  36  32  26  27  29  31  23  14  15 110 127 139 108  69 111 130 144 161 163 157 148 157 164 146 159 179 171 173 174 183 187 185 168 157 168 178 177 176 175 171 172 171 154 157 170 170 169 173 176 169 169 160 138 126 141 145 145 142 140 138 122 107  91  81  62  55  69  44   7  24  60  79 103 119 136 154 161 169 158 152 158 155 155 155 155 155 155 155
  29  28  33  25  42  33  26  26  29  32  24  24  10  40 121 125 132 100  79 114 136 153 164 158 143 153 163 150 159 161 174 173 180 178 175 175 167 169 177 181 186 181 173 167 173 176 164 165 169 163 170 171 175 162 166 150 127 113 121 137 141 143 136 123  99  87  70  62  47  62  65  19  28  20  20  22  19  14  13  17  21  61  90 125 142 156 156 154 154 154 155 155
  25  26  28  30  30  31  28  25  24  30  31  25  17  10  50 131 121 133  78  95 112 135 137 163 141 137 144 150 151 156 151 163 167 183 183 167 172 165 183 192 192 177 162 163 167 169 161 168 160 174 162 170 164 168 153 132 108 107 131 131 135 134 124 107  85  73  60  58  49  66  58  21  16  21  25  20  11  20  22  24  27  25  26  24  21  46  89 140 155 153 156 153
  27  26  29  31  33  32  28  26  26  28  31  25  20  13  18  64 123 115 129  66  92 102 134 142 148 125 136 137 147 156 165 157 167 180 177 170 175 176 186 194 192 176 165 172 169 167 163 162 158 168 158 162 159 154 138 120 104 106 122 120 124 123 106  89  75  59  51  62  68  62  31  18  19  14  21  24  22  16  18  19  19  22  23  25  25  18  13  17  38  67 120 156
  27  26  29  31  33  33  31  26  25  27  31  30  25  14  20  12  59 116 116 114  65  84 104 127 135 132 109 118 134 130 155 164 152 170 178 180 176 174 179 190 192 190 187 180 164 160 161 154 157 161 153 159 156 141 121 106  94 101 110 107 109  98  82  68  55  57  62  61  60  69  11  14  23  11  16  26  31  19  18  16  14  20  21  22  24  24  22  26  32  35  20  11
  27  26  29  31  33  33  31  28  26  25  31  30  26  27  11  20  20  67 113 120 114  66  72  82 111 120 109 100 120 124 130 157 148 159 158 172 173 179 175 180 178 176 175 181 153 146 152 146 154 152 146 147 141 116  94  87  84  98  99  97  85  74  63  54  56  59  64  65  62  32  18  17  21  10  12  22  29  25  23  19  15  17  18  20  20  20  19  23  26  26  20  20
  26  25  28  31  31  32  32  30  28  27  28  28  25  28  19  15  19  10  45 117 112 118  68  67  76  97 109  89  90 105 114 141 150 158 150 166 161 170 179 173 165 163 144 150 138 136 138 155 142 145 150 142 113  91  82  74  87  91  86  81  71  56  50  56  65  61  72  65  45  16  11  17  23  11  11  19  20  26  28  23  18  18  17  17  16  22  22  21  20  23  21  20
  25  25  27  31  32  32  33  32  31  27  28  26  26  27  20  15  16  18  20  34 112 118 114  64  62  63  93 106  93  86  80 106 144 149 162 150 155 161 157 163 155 155 135 131 126 125 128 135 147 139 134 106  83  81  78  72  83  81  73  65  49  50  56  63  62  64  61  58  23  16  13  20  23  11   9  18  18  24  26  24  17  19  17  16  15  18  20  20  21  21  21  21
  26  25  28  31  32  32  32  32  31  30  29  28  27  26  24  20  17  20  26  26  28  87 108 123  79  47  70  83 100  96  89  74  97 129 148 146 144 142 139 136 123 134 128 128 127 125 123 128 124 121  97  69  70  80  81  75  74  66  57  53  45  56  61  59  63  68  61  33  10  14  19  22  21  14  10  17  14  20  25  25  21  20  18  17  15  18  18  17  19  20  20  20
  24  25  28  31  32  32  32  32  32  32  30  28  29  26  27  23  15  16  19  24  27  21  62 108 120  99  61  80  84  99  97 104  66  66 113 111 125 129 120 127 125 128 110 112 115 113 108 113 101  71  62  75  81  83  79  75  66  57  52  52  58  63  62  57  71  60  56   2  15  16  17  18  20  16  10  14  10  15  25  25  22  21  20  18  17  17  17  17  18  18  20  20
  24  26  27  30  31  32  33  33  32  32  32  30  28  23  28  25  17  19  24  19  23  33  25  45  98 113  83  54  74  78  98  97 120  92  52  62  69  77  88  77  59  69  71  83  84  82  78  60  55  69  87  90  87  78  70  69  61  54  54  58  63  64  70  66  61  62   4  24  21  18  13  14  19  18  10  13   8  15  21  23  23  21  20  18  17  16  15  15  17  17  19  18
  25  26  26  28  30  32  32  32  32  32  32  30  30  27  26  26  25  13  17  22  27  27  33  27  32  66 121  88  56  73  73  85 104 117 104 101  69  44  45  48  50  51  48  54  51  55  60  70  80  90  93  89  80  70  66  65  57  55  58  64  65  66  70  65  59  10  17  19  17  18  18  19  20  18  12  12  12  14  16  19  21  22  21  19  18  16  15  14  12  16  16  18
  25  26  26  28  30  32  32  32  32  33  32  31  29  30  28  26  25  19  18  19  25  25  33  40  33  34  60 108  88  59  59  70  74  89 112 112 115 113 107  95  81  73  72  68  69  74  82  88  87  85  83  77  71  61  59  60  58  63  67  71  65  73  63  63  21   9  19  18  18  18  18  18  18  18  12  10  13  13  15  18  20  22  21  19  17  17  16  15  15  13  16  17
  25  26  26  28  30  32  32  32  32  32  32  30  28  30  30  24  25  26  19  15  23  26  30  31  32  31  33  24  87  92  61  58  57  66  74  91  98 102 110 109 109 113 117 107  98  95  95  96  89  80  77  70  64  58  58  60  62  68  71  71  68  67  65  28   9  19  12  23  17  18  18  18  18  17  12  10  12  13  15  17  19  22  21  19  18  17  17  16  16  13  13  15
  25  26  26  28  30  32  32  32  32  32  32  31  29  33  29  27  25  30  19  13  20  26  25  29  36  33  31  35  20  40  89  61  50  49  49  64  74  84  93  96 104 104 101 103  95  91  93  85  73  64  63  67  63  58  61  65  70  73  69  63  76  64  41   7  25  18  19  11  17  18  18  18  19  16  10   9  11  13  14  16  18  22  21  19  17  17  18  17  15  14  12  13
  25  26  26  28  30  32  32  32  31  28  30  29  30  29  30  30  29  35  24  13  16  23  26  30  33  36  34  34  32  32  27  52  74  56  39  49  53  58  68  78  85  86  83  87  83  78  74  68  67  64  61  58  61  64  68  70  70  74  75  64  67  52   8  18  17  19  18  18  18  18  18  18  18  21  11   5  12  11  14  17  19  21  22  21  21  18  17  17  15  15  15  15
  25  26  26  28  30  31  31  31  30  28  29  29  29  29  29  29  30  26  25  24  20  20  25  28  32  35  36  33  32  32  27  22  31  54  65  46  37  39  39  48  57  63  65  62  60  63  64  62  60  60  59  58  59  63  68  69  77  73  61  67  57  12  13  13  18  18  18  18  18  18  19  18  18  22  14   5  12  11  12  17  18  21  21  21  21  21  19  17  16  15  15  16
  25  26  26  28  29  30  30  30  29  27  28  28  28  28  28  28  28  22  28  32  25  20  21  26  29  31  34  34  31  32  29  33  24  15  27  51  51  38  35  34  37  42  45  46  50  53  56  52  53  53  56  56  59  63  65  69  66  66  77  79  22  11  19  21  17  18  19  18  19  18  18  18  17  21  19   8   9   9  12  16  17  23  24  23  23  22  21  19  18  17  16  17
  25  26  26  27  28  28  28  28  27  25  26  26  26  27  27  27  27  25  27  30  30  24  19  23  26  30  35  34  31  32  28  26  27  26  22  18  36  51  48  41  35  36  40  40  41  42  45  45  47  51  52  55  58  62  66  64  72  86  59  20  16  22  20  22  16  18  18  18  18  18  18  18  16  21  21   7   8   8  11  15  17  24  25  25  25  24  22  21  19  18  17  17
  23  25  25  27  28  29  29  29  29  29  29  29  29  27  27  26  24  27  27  29  29  28  17  17  33  26  32  32  33  33  31  29  26  27  30  28  24  17  20  43  40  50  44  39  46  45  41  43  45  51  57  56  55  59  61  69  80  53  13  18  20  22  21  18  21  19  17  20  18  17  18  17  16  17  18  14   8   6   9  13  18  18  19  21  22  23  24  22  22  19  20  20
