P2
# Generated by OpenCV 4.2.0
92 112
255
  56  49  46  50  57  56 100 127 123 146 159 154 149 145 159 155 146 163 172 157 166 168 161 163 166 154 155 149 149 152 166 167 162 158 145 143 147 145 152 152 152 157 161 165 169 168 169 165 149 130 120 125 124 106 108 114 116 119 136 134 121 123 129 127 110 136 152 156 171 174 173 157 141 134 140 139 134 112  82  97  76  79 102  99  98  97  90  88  87  81  78  72
  55  54  52  50  60  93 118 133 146 158 153 158 160 162 158 158 153 148 172 164 158 170 172 167 170 168 167 160 155 153 155 158 162 168 163 154 147 139 139 141 144 142 139 138 155 158 156 158 152 146 136 137 132 125 127 128 125 122 122 135 140 121 119 125 129 136 141 152 148 144 150 154 171 168 150 146 142 134 123 106  99  81  92 102  96  95  89  87  87  82  77  71
  54  52  60  69  83 127 142 154 163 162 162 165 166 163 154 154 153 151 153 175 161 157 165 167 169 169 166 158 160 152 144 137 144 152 155 148 161 156 147 133 125 131 128 127 126 140 145 150 143 142 147 153 139 126 129 133 137 135 134 120 129 129 117 133 134 147 162 157 157 153 139 136 137 158 166 147 145 135 123 117 109  97  89 100  96  92  88  86  87  82  75  70
  56  55  67  86 109 140 153 158 159 165 160 151 151 151 154 152 150 150 148 158 176 155 150 157 169 170 163 152 149 148 140 141 139 131 140 135 126 132 136 144 143 135 138 139 132 130 134 135 134 130 131 130 141 142 132 113 113 125 135 131 125 129 124 133 139 155 163 168 173 181 170 155 134 123 135 154 141 126 127 118 107  98  93  91  95  93  92  88  87  81  76  73
  67  71  82 100 135 148 141 135 133 133 141 144 144 137 136 146 152 146 142 144 161 184 156 148 156 160 168 176 173 164 165 161 154 150 145 155 153 145 149 159 163 161 155 152 150 142 135 139 135 132 122 117 118 121 138 136 114 114 121 123 131 126 130 136 134 137 146 156 159 162 174 186 163 126 114 128 139 136 127 124 110  91 101  98  94  96  95  89  83  79  76  74
  87  87  95 126 136 129 133 128 130 132 132 132 137 143 139 138 152 151 139 139 143 162 183 167 147 147 150 146 154 166 174 173 167 168 164 159 161 159 151 152 150 151 150 151 151 150 141 142 140 135 131 119 126 121 120 127 124 120 124 122 135 135 150 159 168 165 159 142 144 153 149 159 183 171 132 120 112 133 139 127 125 103  90 102  97  92  91  85  80  78  76  74
  87  89 123 127 114 111 119 122 124 129 127 136 140 135 139 149 149 154 150 145 137 142 157 181 172 150 146 148 147 144 144 147 149 151 150 145 144 154 154 155 154 153 148 150 144 138 136 137 135 137 135 132 117 124 127 122 126 130 134 135 141 145 147 152 161 167 174 176 162 148 153 143 154 169 170 134 119 118 125 133 124 121  96  91  95  87  86  85  81  77  75  72
  66  97 128 109  94 102 113 126 130 129 121 121 123 136 141 136 139 153 155 153 151 155 161 156 176 177 165 157 158 157 149 147 150 157 166 165 166 168 164 163 158 152 151 145 144 142 136 143 144 139 141 139 135 131 127 124 129 136 141 139 152 153 138 139 148 157 163 175 180 176 153 141 137 138 134 158 137 131 118 133 129 119 117  96  94  74  78  85  83  76  74  71
  80 119 109  80  80  90  98 110 123 134 129 122 127 125 126 137 130 138 156 154 149 156 162 165 169 172 181 184 177 176 177 180 176 178 175 173 170 171 166 167 168 159 159 161 161 151 151 149 149 145 136 140 142 145 132 135 140 146 146 147 144 147 160 160 150 141 146 154 168 189 186 168 154 155 133 127 157 148 129 128 133 115 122 106  97  73  70  82  84  77  76  72
 113 117  92  91 100  91  98  93 106 119 124 122 127 144 147 138 134 138 144 151 145 147 149 150 168 175 171 173 175 171 171 177 177 174 173 172 171 168 165 167 168 166 162 161 157 153 155 154 154 158 140 135 140 150 145 143 145 150 148 151 153 151 151 166 169 160 145 141 148 159 174 196 161 148 167 161 124 149 140 131 131 123  98 107  98  79  71  80  78  76  76  74
 126 106  95 101  99 100 100  96  99 112 122 117 120 129 122 138 144 144 147 147 148 138 152 150 138 151 161 162 162 167 171 168 168 166 167 168 166 160 160 158 160 153 152 154 157 156 156 155 157 158 148 140 146 147 144 147 148 141 147 148 154 158 160 162 170 177 166 151 151 149 156 182 198 164 147 171 161 138 146 140 128 135 108  96 109  88  83  77  74  74  75  74
 121 108 101 103 109 109 115 120 119 110 106 118 123 129 132 127 125 127 131 140 146 142 142 151 141 136 145 152 149 153 155 158 155 163 162 159 159 158 157 157 157 151 157 158 160 158 161 163 161 160 156 151 148 149 141 141 140 147 151 146 142 148 150 153 147 156 180 167 146 151 162 171 186 193 172 146 165 161 149 127 124 118 120  96 100 111  83  74  72  70  71  72
 119 113 100  98  98 101 106 108 117 119 109 116 123 119 125 133 139 137 126 125 141 149 136 142 157 144 141 146 147 153 153 156 157 154 154 158 159 160 161 163 162 163 164 163 163 160 163 165 161 160 155 157 155 151 149 146 144 144 146 145 146 146 144 154 150 147 151 176 179 154 147 160 180 184 180 166 151 166 155 123 104 108  93 110  86 111  88  74  70  68  65  69
 101  95 106 100 100  97 110 117 121 122 135 139 132 122 123 121 126 139 142 134 133 142 147 141 155 169 160 151 151 152 154 161 161 161 166 166 164 167 163 161 164 164 163 162 163 161 165 165 160 155 157 160 157 152 149 155 150 146 143 148 147 144 146 144 151 155 148 154 175 179 170 148 149 179 181 162 166 148 153 131 104 109  92  90  76  71  89  79  63  66  71  68
  92 103 112 103 105 115 117 117 118 112 108 106 112 107  93 103 109 116 125 133 135 136 144 146 143 142 152 155 160 162 164 162 164 164 165 166 165 162 159 161 167 169 171 167 167 161 161 163 160 161 160 162 158 153 149 153 152 146 146 148 146 143 145 145 150 150 158 160 166 164 173 174 149 145 175 166 148 155 141 144 121 106 111  83  69  55  83  72  52  54  62  65
  88 103 101 103 105 110 113 119 124 108  92  93  99  97  88  91 101 106 109 118 125 132 133 139 135 141 149 151 156 163 167 164 165 167 167 166 166 169 170 172 170 168 171 166 164 164 164 165 163 166 159 159 157 154 153 152 153 145 144 144 144 143 141 142 147 155 160 165 167 178 156 171 179 144 142 179 145 148 148 134 123 107 107  91  80  58  71  79  52  46  52  59
 108  99  99  99 106 116 120 115 104  91  85  97 100 106 111 117 116 115 113 117 125 131 134 127 135 144 153 154 157 166 166 169 170 172 170 167 165 173 173 168 168 166 167 166 166 165 163 164 170 166 160 160 163 162 155 151 151 148 143 144 145 145 141 142 142 159 166 167 161 179 175 157 182 167 144 158 167 122 143 121 117 110 100  96  85  59  76  83  57  44  49  56
  98  96  99 105 107 122 124 114  99 104 106 108 109 113 113 120 121 120 123 133 133 127 130 133 141 142 150 157 169 172 170 166 168 172 173 173 173 173 168 164 164 163 165 170 166 163 163 164 170 165 160 164 161 160 153 149 153 150 146 143 147 143 142 143 140 150 159 163 170 157 179 172 159 181 166 150 168 138 120 120 105 114  90 115 109  68  63  81  59  43  46  51
  90  93  90  91 109 123 113  98  95  93  96 106 106 113 114 110 113 117 124 126 123 131 139 142 144 153 163 169 173 171 171 171 172 171 171 169 168 165 164 165 167 169 168 168 165 166 163 167 168 166 163 161 159 156 151 150 151 143 145 147 144 142 143 144 145 151 157 158 169 173 157 189 165 162 189 168 156 162 126 116 108 112  96  96 145 110  67  88  63  39  42  46
  96  86  88  90 115 123 106  75  84 105 110 109 106 102 105 114 126 130 131 132 138 142 141 142 156 156 160 166 167 172 173 172 172 172 172 168 169 167 166 169 169 170 169 167 170 167 162 168 167 166 163 161 162 158 154 150 149 147 151 150 144 143 143 145 148 152 158 169 169 184 172 165 195 162 189 187 163 152 156 125 117 103 108  77 109 136  94  95  88  60  48  43
  95  87  81  91 120 116 105 102  96  86  75  88  98 105 117 128 127 132 138 140 139 142 146 153 159 154 160 167 167 171 173 168 169 173 172 170 171 170 166 168 170 168 169 167 164 169 165 164 166 167 163 161 157 156 155 154 150 146 149 151 150 148 145 144 151 152 160 166 176 172 190 165 183 184 161 189 179 158 143 141 148 101 122 102  89 112  89  87  84  56  54  50
 106  85  78 109 123 123 121 108 111 111 113 114 116 121 126 128 130 133 135 136 143 152 151 160 160 160 166 170 169 173 171 170 170 172 167 173 174 169 169 170 171 166 172 173 165 172 168 170 167 165 169 165 161 153 149 152 151 147 150 149 151 148 150 145 151 154 163 168 167 171 163 190 157 191 174 182 188 184 144 138 142 137 114 128 100 117 112  71  73  54  42  47
 116 106 107 113 115 110 113 123 123 126 118 107 112 120 124 120 128 130 138 148 150 155 159 157 160 167 168 170 167 172 172 173 171 172 173 174 171 169 175 173 176 175 178 175 173 175 172 173 170 165 167 167 164 159 151 151 152 148 150 147 147 146 150 150 150 154 159 172 169 167 169 168 180 168 192 179 181 187 169 153 124 153 127 135 118 101 136 117  72  60  51  43
 108  99  81  84  93  83  69  76  68  82  76  78  97 108 119 132 136 140 145 144 147 157 159 159 166 166 165 167 168 175 177 179 178 178 180 179 173 176 177 180 179 175 171 178 176 174 173 175 169 169 165 166 166 162 158 152 151 150 153 152 149 144 152 150 144 149 159 165 175 176 181 169 181 171 189 178 173 174 166 160 148 132 139 155 142 113  80 115  95  48  48  40
  92  87  75  84  96  85  68  75  82  90  90 100 108 116 125 131 139 144 148 153 161 160 157 162 165 169 168 170 176 183 183 181 181 182 180 176 178 176 175 181 179 184 189 188 186 182 179 175 170 168 167 167 166 159 158 156 156 155 154 158 156 148 150 148 147 146 154 170 172 177 184 187 172 178 176 174 168 168 160 141 157 135 147 153 170 138  82  59 101  73  45  40
 101  92  81  86  93  84  72  85  86  92  91  99 114 124 131 132 145 150 157 160 167 170 169 169 171 171 175 176 180 184 177 176 177 179 174 176 174 175 179 178 171 176 179 174 182 186 186 179 170 166 166 168 166 160 156 156 157 159 157 157 152 151 154 152 147 146 150 161 177 168 172 187 180 173 176 183 165 164 163 146 145 157 144 143 173 155 127  83  53  66  57  39
  99  99  86  88  81  80  84  85  82  92 100 107 115 130 131 138 146 157 164 163 162 165 168 167 172 165 172 177 179 179 180 179 176 174 176 178 171 178 180 175 176 183 182 185 187 180 180 177 170 167 165 166 166 164 163 157 155 156 161 161 156 154 152 151 150 149 154 159 173 182 162 176 193 173 171 180 175 162 156 159 150 157 155 144 163 160 133 124  56  40  53  48
 110  97  84  85  81  76  82  84  88 100 108 111 120 122 131 139 147 156 159 157 160 163 165 165 168 172 177 176 178 175 178 183 178 171 174 176 178 179 181 185 178 179 176 179 178 176 176 178 172 165 166 163 166 170 168 163 158 157 161 160 158 159 157 150 151 150 151 155 164 185 169 163 186 179 166 167 177 171 151 158 158 159 168 162 154 165 141 139 102  45  41  43
 121 103  82  89  79  81  78  85  91 100 110 116 120 129 130 134 147 158 156 161 165 164 166 171 172 174 176 174 175 176 181 179 179 175 177 177 176 176 177 177 171 176 172 173 172 174 175 175 170 167 168 166 169 174 172 169 166 160 155 159 156 155 153 149 148 147 148 152 167 183 185 166 175 182 167 168 161 174 166 159 164 160 172 172 157 149 152 137 117  64  41  40
 132 127  96  85  80  77  73  93  93 103 107 115 124 133 131 136 145 157 158 164 163 165 170 170 172 176 175 174 175 176 180 179 180 177 177 177 182 179 180 183 184 196 191 187 183 177 177 171 170 167 168 172 171 168 172 175 173 168 158 158 159 159 158 154 152 147 147 156 166 173 189 172 174 180 172 168 167 165 165 151 160 163 163 170 167 152 148 138 122  89  50  45
 133 133 112  82  79  80  65  85  95 103 110 116 125 128 128 139 149 153 160 164 160 162 164 166 169 176 175 173 171 175 179 183 182 188 194 188 184 185 182 186 187 186 183 181 182 168 168 168 166 167 169 168 169 169 167 172 168 174 170 162 159 160 162 156 155 146 146 154 167 172 185 191 173 179 174 172 165 171 176 162 161 173 165 170 162 160 152 144 123 108  57  40
 141 131 114  91  65  71  74  76  92 109 116 124 131 128 131 137 143 142 155 161 159 161 162 169 170 173 177 178 176 176 191 192 187 188 191 176 168 163 166 166 167 163 163 166 166 167 167 175 174 171 174 172 168 172 167 170 169 165 166 164 164 160 159 158 155 150 147 152 158 165 175 188 183 177 169 178 167 173 176 168 162 175 169 180 164 160 164 160 123 110  67  40
 148 147 121 106  90  74  78  82 102 120 122 128 131 128 133 139 143 142 148 160 162 164 164 167 175 184 185 184 180 180 184 181 180 173 170 165 161 160 164 166 166 168 173 172 171 175 175 176 174 177 171 170 166 167 167 165 167 162 161 162 159 161 158 155 152 149 148 153 155 155 157 165 171 173 178 163 169 160 161 180 169 171 167 173 167 164 156 164 137 115  71  41
 148 152 140 138 124 104  91  96 112 123 129 127 134 133 136 141 143 143 151 161 164 165 166 170 171 172 172 174 164 169 167 165 166 167 161 160 158 164 164 163 168 173 173 176 175 179 179 181 177 175 170 168 166 164 162 163 158 162 162 159 157 163 160 154 156 152 152 154 148 148 150 152 163 161 168 164 159 156 147 169 172 170 166 165 167 164 150 160 147 121  74  39
 156 151 154 158 135 111 103 107 116 123 131 133 130 132 136 136 140 144 152 155 155 155 158 161 158 164 169 168 164 166 168 170 167 167 164 159 159 162 166 167 171 173 173 175 174 180 183 181 179 178 172 168 163 165 162 162 161 158 161 157 158 159 159 152 154 155 157 155 149 148 150 151 151 150 153 158 152 150 144 153 170 164 169 166 166 170 155 150 154 137  89  43
 150 152 165 161 128 112 109 109 118 126 133 134 133 136 134 134 139 143 149 149 147 151 158 158 160 163 169 167 168 166 171 172 168 168 164 159 161 167 170 173 176 175 175 182 182 183 186 181 177 176 173 173 169 166 164 168 165 162 160 152 154 158 155 151 158 159 163 154 149 150 151 154 148 149 145 144 149 145 143 149 167 163 163 170 155 167 165 153 150 144 131  63
 143 155 164 152 134 114 112 110 120 128 132 130 131 136 133 137 140 142 146 148 152 156 159 157 162 164 168 168 170 169 172 171 170 169 165 162 166 165 170 176 181 182 187 188 188 177 179 178 176 177 175 172 169 162 163 167 166 167 162 156 150 155 158 145 153 161 161 157 153 145 150 153 147 148 140 143 148 137 136 141 156 161 165 175 158 168 170 153 152 155 128  85
 144 152 158 162 136 112 115 117 125 129 135 134 134 133 134 134 136 138 142 147 155 158 160 160 158 162 172 172 170 166 169 168 175 168 171 168 168 173 177 179 188 189 189 183 181 176 178 175 180 175 176 177 173 171 163 161 169 165 164 160 153 150 154 145 141 157 161 152 144 141 144 147 150 143 142 143 146 144 127 130 136 160 171 171 152 160 162 156 168 159 131  90
 143 151 163 158 132 113 114 122 127 128 135 134 136 133 135 138 137 139 143 151 156 159 165 164 163 174 173 175 175 171 168 171 173 173 176 172 175 177 182 190 192 187 179 182 182 178 181 178 180 181 184 179 172 164 153 146 153 158 156 149 146 145 147 148 144 142 153 153 147 143 142 140 146 139 139 142 148 150 131 131 136 151 167 169 150 155 160 151 150 158 141 101
 144 147 159 150 125 112 118 120 127 129 134 139 142 133 133 138 142 143 147 157 163 165 165 165 165 167 168 174 172 173 175 181 175 173 179 178 181 187 183 192 195 194 188 191 195 186 179 182 181 178 173 159 152 147 153 145 142 148 143 135 138 139 139 145 147 138 140 151 147 144 141 141 139 136 135 138 150 149 140 134 139 142 159 173 158 160 157 159 147 142 145  90
 139 144 155 143 123 116 122 123 126 130 137 137 142 136 135 141 147 149 154 164 165 163 163 163 166 169 170 175 169 173 183 183 178 184 193 184 181 195 185 187 198 195 195 194 190 183 180 179 170 161 148 144 155 155 158 155 153 151 149 143 140 141 142 141 147 142 130 145 141 149 145 145 140 138 134 139 147 146 145 133 150 143 152 168 156 156 151 145 153 139 137  92
 134 142 152 140 120 115 122 127 123 133 134 137 140 134 137 144 147 151 156 158 161 160 167 166 167 174 179 185 183 184 185 182 187 199 202 186 182 185 180 174 176 181 186 186 182 174 164 155 150 145 144 152 154 156 159 155 153 149 146 146 150 145 142 140 142 140 130 137 140 143 146 147 145 141 138 141 152 148 149 144 147 150 145 150 144 142 149 151 145 135 139 124
 129 136 145 134 116 113 123 129 130 131 134 137 137 132 134 146 149 146 152 157 161 161 165 169 170 175 184 194 193 190 198 198 204 197 188 187 173 175 175 172 165 169 172 162 152 136 126 126 140 147 158 174 173 165 160 161 161 153 156 150 150 146 147 147 141 141 144 138 147 139 149 149 146 141 136 137 154 148 156 149 149 155 143 142 132 137 146 139 119 124 134 143
 131 134 140 128 112 114 125 128 130 131 131 135 134 134 138 146 151 148 150 159 158 161 162 163 167 170 176 186 186 191 192 200 204 188 174 177 168 164 169 166 152 148 137 126 124 117 110 126 133 151 166 178 185 172 160 167 154 149 155 152 149 145 149 152 151 150 150 142 139 143 149 146 143 137 136 137 153 154 156 152 148 155 143 140 134 134 141 119 118 142 151 146
 133 134 128 117 109 115 128 130 131 132 131 135 137 141 145 146 147 152 151 159 159 159 164 163 166 165 164 167 176 174 178 180 182 179 172 169 165 169 166 157 146 139 130 133 131 121 123 136 139 155 164 169 177 169 169 158 152 152 152 151 152 149 152 150 159 157 147 148 142 145 150 148 139 133 130 133 147 158 155 154 153 145 143 137 144 135 123 141 145 135 154 159
 127 127 122 108 110 115 128 124 130 129 132 134 133 141 143 141 147 148 150 152 157 163 163 161 162 166 167 164 164 165 168 173 180 176 170 164 162 166 163 156 154 147 139 139 133 136 144 150 155 162 165 174 175 173 166 157 151 154 152 149 149 147 141 149 161 152 150 153 141 139 152 147 136 135 133 131 144 153 153 152 153 140 140 139 139 126 132 179 162 134 154 169
 118 120 121 108 108 112 124 124 125 126 132 125 117 120 122 127 142 146 141 139 142 149 156 155 154 149 155 162 159 164 167 172 172 172 166 170 161 157 157 152 147 143 138 138 144 143 145 153 156 166 165 167 169 167 157 148 145 147 145 146 141 140 131 135 141 147 156 155 141 134 142 142 142 135 134 131 136 151 148 154 149 137 133 139 132 121 160 194 174 143 146 175
 121 114 121 104 101 111 122 120 123 131 124 109  99 104 104 103 110 112 113 127 117 116 121 130 139 143 150 155 154 161 167 168 167 171 167 165 171 166 154 150 146 144 143 143 141 143 141 137 130 122 106 104 100  92  91  95  97  99 108 122 133 135 133 140 152 157 157 148 139 134 138 141 134 128 131 132 129 134 148 147 158 132 130 138 132 126 148 172 173 147 140 181
 107 107 120 108 100 108 121 121 122 120 110  96 102 118 123 119 108 105 100 103 100  97 109 123 132 141 142 145 151 156 158 165 171 170 164 165 166 165 158 154 149 146 141 135 133 130 106  87  73  59  43  51  78  45  57  81  63  62  75  96 107 115 129 140 143 146 146 143 144 139 138 136 132 130 129 130 127 140 142 140 148 128 126 129 134 133 153 159 169 157 135 175
 105 101 117 111  98 105 116 114 112 108 110 106 117 128 135 133 131 125 116 113 107 111 117 120 124 128 128 131 141 148 154 162 170 171 172 169 172 164 159 152 148 141 132 126 119  98  79  69  98  73  63  41  57  69  97 128 123 116 127 128 132 134 140 146 151 146 148 150 147 141 141 133 134 133 132 128 120 138 133 138 134 115 116 122 140 139 169 167 164 167 134 163
 104 100 123 114 101 107 114 114 107 111 114 105 112 119 125 139 156 160 156 156 150 149 144 139 132 124 119 118 123 136 146 156 167 177 182 174 172 168 159 153 145 132 126 120 105 104  77  89 149 104  79  78 102 125 143 148 151 150 148 145 140 142 151 157 160 160 156 148 145 148 144 132 131 135 134 128 123 129 128 127 119 108 113 122 145 113 143 161 173 176 152 145
 128 102 126 119 102 100 105 107 109 111 120 117 126 129 140 144 158 171 176 179 177 170 158 154 150 140 125 115 113 119 131 150 169 182 185 175 172 171 162 159 144 140 128 123 118 110 104 113 117 120 124 133 150 155 161 166 160 159 157 145 149 156 158 162 153 151 150 152 137 129 135 130 124 131 135 124 128 133 126 110 109 111 113 128 141 108 136 168 190 186 166 136
 149 116 124 129 104  98 106 108 115 117 114 116 125 137 143 149 155 162 177 171 154 139 128 119 119 121 117 115 109 109 124 136 163 176 178 175 172 166 158 158 145 139 143 135 129 123 127 129 133 136 143 154 167 177 178 173 167 152 135 140 153 158 160 159 155 159 146 141 146 136 129 128 123 123 134 133 128 131 125 115 110 106 116 134 142 134 140 173 192 191 177 141
 154 136 124 135 108 102 111 115 117 116 116 121 122 128 139 143 141 143 121  95  81  85  90  83  94 100 104 115 121 108 116 132 158 165 174 173 166 159 152 156 148 146 158 158 137 129 133 140 144 150 156 160 169 166 165 157 136 129 140 157 160 159 162 162 157 161 163 148 140 140 134 127 125 127 129 138 132 129 123 117 111 109 118 130 146 166 148 168 184 183 179 144
 154 144 125 124 108 106 112 126 126 117 118 120 120 127 123 110  74  53  33  46  84  77 113 125 103 109 122 131 136 114 115 126 146 163 168 161 159 150 153 156 149 146 155 155 139 130 132 132 134 137 143 140 137 130 125 125 138 154 159 164 168 164 159 159 160 164 163 156 146 135 133 127 128 123 126 131 133 130 126 119 112 110 119 130 144 175 158 157 169 166 166 150
 157 150 131 123 110 110 113 128 141 131 122 123 124 117  79  54  66  46  52  44  72  75 142 195 152 103 105 124 141 129 116 123 144 155 159 161 154 147 144 148 154 152 155 161 156 151 142 134 130 127 124 127 123 130 136 151 158 157 164 177 174 169 163 167 169 159 154 149 148 136 126 130 127 123 120 128 131 130 127 115 112 112 123 130 144 160 165 154 161 148 153 155
 157 157 150 119 106 110 120 121 134 138 128 124 123  83  50  86 119  74  59  59  77  90 137 143 129 127 130 137 158 142 114 123 136 152 159 161 157 146 139 144 150 156 158 167 167 165 158 153 149 146 146 145 143 149 149 155 161 166 169 177 177 178 173 172 168 161 150 149 142 139 136 124 127 127 121 126 128 128 120 113 115 112 124 126 146 145 154 147 144 138 158 159
 154 156 154 120 104 113 119 120 123 127 123 123 105  76  97 117 118 114 108 114 130 141 142 135 139 148 152 162 167 131 113 122 131 151 158 154 156 155 141 139 141 154 163 159 163 165 165 160 157 153 149 147 148 152 155 157 163 168 175 175 178 181 173 170 169 160 153 151 147 145 132 129 132 134 127 128 124 125 120 115 120 112 122 123 139 150 155 141 134 135 162 148
 153 150 150 125 105 114 122 129 133 126 116 103  96 111 130 124 128 134 136 142 147 151 161 162 150 146 149 154 142 125 115 122 127 146 158 161 158 157 146 134 141 154 160 153 155 154 153 154 159 154 158 162 159 157 160 162 163 165 171 182 181 179 172 169 169 165 159 152 151 153 138 136 129 130 131 127 123 124 123 116 122 113 115 125 133 161 160 131 134 158 159 133
 150 155 157 134 111 108 119 125 122 124 123 121 122 126 135 137 139 142 139 148 155 166 165 153 144 148 147 140 136 124 112 121 133 148 156 162 157 149 148 139 137 146 154 152 156 156 159 158 155 154 158 160 164 165 164 164 164 168 176 182 183 178 169 163 166 163 155 152 144 148 141 133 132 129 127 126 127 124 125 120 121 114 116 124 135 147 151 147 152 179 156 139
 152 159 165 151 126 106 114 124 134 135 130 134 139 127 125 133 135 135 141 144 142 142 139 139 150 149 145 144 137 121 113 118 134 150 155 158 154 153 150 149 144 145 152 157 163 166 168 166 156 156 160 161 164 163 158 166 169 173 170 179 181 181 174 163 165 156 151 156 148 146 143 135 137 134 128 128 126 124 129 121 118 117 117 121 128 145 178 179 161 154 156 152
 156 162 164 158 136 107 112 126 135 131 133 144 145 133 121 123 123 121 124 130 129 135 145 154 152 151 151 140 130 117 110 120 134 146 152 157 153 148 149 146 153 157 160 164 168 170 176 171 163 162 166 162 162 165 158 162 169 171 175 181 181 174 172 170 155 155 152 151 150 146 147 141 132 132 129 126 127 125 130 124 122 115 117 122 134 157 176 182 176 153 154 147
 155 164 164 160 143 116 110 115 122 127 134 139 134 137 140 139 146 149 146 141 144 148 152 154 153 154 149 135 129 115 115 122 135 144 147 152 148 146 148 151 162 172 174 173 176 178 178 170 171 169 165 159 165 168 168 171 173 176 183 185 186 175 170 165 165 158 154 146 146 146 148 145 135 129 124 123 128 127 129 125 121 118 117 123 135 159 170 181 181 165 160 145
 159 166 167 162 162 128 112 116 122 127 128 125 134 141 146 151 159 158 158 157 152 152 152 153 152 144 136 132 123 120 120 121 140 151 153 154 146 144 148 152 163 173 178 182 185 188 188 179 175 171 176 173 174 173 173 177 176 182 186 186 189 179 174 170 165 155 154 149 141 142 146 142 134 132 125 125 128 132 126 126 125 122 118 124 145 156 170 177 179 176 170 150
 162 168 169 165 169 141 107 114 121 124 126 131 139 143 149 159 157 159 156 153 154 151 153 151 141 136 135 133 128 130 123 133 152 155 160 159 151 147 146 144 163 171 174 180 178 170 175 180 171 175 182 191 181 182 181 183 185 193 193 193 188 182 177 176 164 157 157 153 144 143 148 146 140 133 126 125 130 135 133 126 126 120 119 125 159 149 169 175 175 169 173 161
 165 166 165 164 169 151 109 111 115 124 128 138 146 150 154 156 158 158 157 155 154 151 146 143 140 138 137 137 138 129 123 140 156 155 158 156 150 147 147 141 149 162 159 163 166 158 158 168 163 160 168 181 177 186 188 195 208 211 208 199 187 178 173 170 163 157 157 155 144 140 145 150 141 133 133 126 137 136 138 127 126 120 117 122 163 163 153 177 179 172 171 166
 163 160 161 166 173 151 101 109 117 129 130 138 143 154 156 150 157 160 157 157 152 149 143 145 142 149 144 144 146 127 128 142 148 154 154 155 156 151 148 144 144 153 156 150 160 152 151 142 141 147 155 160 163 168 182 187 196 210 208 196 177 169 172 165 160 156 153 149 143 141 139 146 141 136 132 131 134 137 137 131 129 118 113 120 161 186 162 153 172 175 170 160
 164 162 163 168 170 157 103 110 119 130 134 140 139 149 152 150 156 161 161 160 157 150 149 145 148 157 156 151 146 131 130 140 146 154 157 160 160 158 155 149 149 149 153 154 156 151 149 140 133 128 133 144 150 151 159 163 165 172 183 181 169 167 168 161 155 154 156 149 143 141 143 142 137 142 137 132 133 136 135 137 135 122 111 116 156 185 175 159 161 170 165 150
 167 163 162 162 166 162 109 109 123 134 135 141 144 148 154 150 154 156 159 163 155 152 157 158 160 162 161 151 134 128 119 131 142 153 162 161 162 166 164 155 153 160 157 159 156 146 136 159 155 143 129 124 134 142 151 156 153 156 158 161 166 162 159 157 158 154 154 149 145 144 145 142 140 144 145 136 135 137 134 131 128 122 113 115 143 176 178 172 164 160 162 103
 161 162 163 163 167 168 114 105 123 127 129 137 143 146 154 154 159 158 164 162 159 161 166 165 164 168 162 141 129 128 115 131 151 157 170 171 174 175 171 151 152 167 161 164 157 144 133 163 160 170 183 158 134 129 139 145 148 150 154 155 162 156 152 155 154 150 150 152 143 140 141 144 143 140 147 138 135 136 133 129 125 121 116 116 132 166 178 171 157 154 121  50
 163 167 169 172 172 172 128  99 120 123 129 139 143 148 154 155 160 161 162 163 161 165 169 170 175 168 156 133 131 123 119 136 158 170 181 204 206 171 165 149 152 158 157 157 153 132 139 161 170 179 199 199 183 153 132 125 135 147 148 149 151 150 149 152 148 146 148 149 147 141 140 144 141 143 146 138 134 133 135 131 132 124 112 114 109 119 164 159 148 116  53  40
 164 162 165 170 172 172 136 100 116 123 128 137 142 148 154 161 164 167 164 165 166 164 170 173 164 156 144 131 128 119 120 135 152 167 172 182 178 161 152 141 135 123 131 133 121 129 155 157 164 177 189 193 184 173 166 141 122 134 141 143 145 147 148 149 148 146 146 145 151 146 143 143 143 145 144 140 138 137 128 129 126 120 111 110 115  59  85  99  74  47  44  43
 158 160 166 168 165 167 148 100 111 124 125 136 142 144 156 163 166 165 164 168 164 170 170 155 145 142 141 129 133 126 115 134 148 156 150 148 154 157 146 123 118 132 144 147 138 153 160 163 172 172 178 179 172 177 169 162 138 122 123 137 144 147 147 149 147 143 139 143 150 148 144 147 144 144 144 144 135 133 129 126 123 117 114 108 124  64  44  42  45  49  49  45
 164 173 173 167 166 171 165 102 104 117 123 134 138 148 154 155 160 161 162 168 164 169 163 148 141 140 144 131 129 134 118 122 136 146 141 143 148 143 124 115 144 144 146 153 158 157 163 167 167 165 168 171 161 154 160 161 158 158 130 124 138 146 151 151 148 146 143 146 152 152 146 149 144 148 147 147 137 134 129 125 120 118 115 110 118  66  51  52  50  49  48  46
 172 176 171 164 168 175 177 114 102 112 122 127 136 146 152 148 153 158 159 162 164 165 156 142 138 139 145 141 119 114 112 108 113 134 133 130 131 128 112 134 147 145 152 156 159 157 159 162 163 160 161 159 152 149 158 163 159 172 168 142 131 145 151 153 151 151 152 157 158 151 147 148 144 147 144 146 140 134 127 129 123 113 109 109 111  64  51  53  50  48  47  47
 170 170 166 167 173 175 181 125  99 107 120 127 136 143 146 148 148 155 157 154 159 151 140 132 137 144 147 147 133 113 121 121 109 107 112 108 106 115 135 154 144 147 156 156 158 154 156 159 156 156 154 152 149 145 145 150 149 151 162 157 136 136 157 159 159 157 156 159 159 154 151 149 146 148 146 145 144 137 124 128 124 115 113 109 105  55  51  55  50  48  49  49
 168 168 169 174 177 174 180 145  92 103 113 127 135 139 143 148 148 146 149 151 149 143 129 132 144 148 148 149 141 129 127 131 134 130 120 121 138 160 150 147 145 149 153 151 151 153 154 156 154 153 148 146 146 139 136 145 147 141 141 151 142 126 153 166 157 159 160 165 166 161 160 156 151 153 145 142 143 138 124 122 125 118 112 109 100  52  49  54  49  49  49  50
 168 174 173 174 176 174 179 164  98 101 110 121 128 134 140 142 145 145 139 141 144 135 130 139 150 153 149 145 142 132 129 130 132 130 137 143 142 156 153 152 153 155 153 152 154 158 157 151 153 156 148 148 144 142 141 145 149 145 137 149 156 131 143 167 163 166 166 168 166 165 164 158 156 152 147 141 145 135 125 122 121 117 112 110  99  52  52  52  45  46  47  47
 172 173 170 171 174 173 177 177 107 100 104 115 123 131 138 143 146 146 142 141 136 129 136 145 145 149 144 138 132 132 128 126 130 128 130 136 138 143 155 145 143 159 165 160 157 155 158 155 155 156 156 153 153 154 149 145 148 155 151 156 162 141 144 174 168 167 165 170 168 165 165 161 158 145 147 146 142 137 123 119 117 114 111 111  96  55  52  49  46  46  47  46
 170 172 171 175 178 179 180 182 123 100 104 113 119 127 133 137 140 144 141 141 134 132 141 143 142 140 132 130 129 132 131 127 131 133 136 137 145 144 155 153 148 157 162 161 160 155 168 163 156 159 160 152 152 150 150 149 155 156 149 144 151 148 145 174 173 171 168 170 173 167 168 161 162 156 146 143 144 137 119 117 117 115 114 112  90  53  49  48  48  47  44  48
 171 168 170 171 174 181 182 180 134  99 109 112 113 125 131 134 134 137 138 141 138 143 146 146 145 135 132 125 127 127 133 131 129 135 136 142 151 153 154 159 154 152 162 166 164 160 160 151 140 136 126 122 116 111 105 106 113 118 129 139 156 150 153 177 169 170 169 173 170 166 168 163 159 154 148 142 138 132 123 119 119 113 109 110  86  50  47  46  48  50  48  49
 175 170 169 171 172 178 180 181 148 102 111 111 112 122 129 133 134 135 145 149 140 147 147 144 138 133 131 127 129 130 135 134 132 137 145 152 158 163 156 157 155 162 165 154 141 129 120 123 133 130 124 148 131 128 120  80  82 107 130 145 158 152 167 181 173 171 174 171 170 168 171 165 160 156 148 141 137 132 122 117 114 108 106 106  86  50  48  47  48  47  47  50
 179 175 173 174 178 177 177 181 167 104 110 113 115 123 130 136 139 138 147 152 146 142 141 141 135 131 129 128 130 133 131 134 139 143 149 158 162 167 167 158 148 134 124 118 132 155 150 165 199 193 171 185 169 183 160  95 121 146 137 146 160 161 175 183 175 176 177 172 168 172 171 163 163 154 145 143 137 130 124 112 110 110 109 110  86  47  47  48  50  47  47  50
 174 174 173 172 175 173 170 173 177 115 108 120 122 125 133 139 143 151 153 151 152 149 142 136 131 130 131 134 135 138 136 137 140 144 139 138 133 125 119 115 117 130 160 161 197 233 205 196 213 207 184 179 160 148 122 123 152 149 142 148 161 166 175 179 175 181 181 171 174 169 169 163 156 152 142 139 132 128 125 112 109 107 112 110  76  44  47  48  49  47  49  54
 171 174 173 172 172 171 170 170 175 131 106 122 127 127 137 142 146 154 161 154 148 155 150 141 136 135 135 137 132 129 122 115 111 114 115 114 122 134 152 138 172 199 208 201 214 233 211 151 186 204 144 135 130 112 125 151 151 147 152 153 162 172 174 180 178 178 177 176 176 168 167 165 156 151 143 130 129 125 117 106 108 112 111 111  76  44  47  45  46  45  46  56
 169 172 173 173 175 173 174 172 172 145 105 123 132 130 144 150 151 157 165 155 150 152 153 147 140 130 120 103  87  85  99 126 145 144 163 164 183 200 212 186 196 212 212 188 155 178 157 129 120 142 133 121 122 130 143 150 151 156 156 157 169 175 183 178 178 176 174 174 174 167 165 161 154 148 139 131 128 122 113 103 109 109 113 114  77  46  44  45  49  48  45  56
 164 167 168 168 170 170 173 172 171 163 109 115 132 133 140 154 158 156 167 164 152 154 151 146 142 123  92  83  92 111 129 167 199 179 191 189 189 203 201 164 142 161 154 142 141 146 155 157 121 130 133 131 135 141 148 155 153 160 156 155 167 175 179 173 172 175 176 170 166 162 167 157 149 144 134 127 125 119 108 106 110 113 117 111  84  46  44  48  50  49  47  57
 168 168 168 167 168 167 165 164 164 168 121 111 128 137 142 151 159 159 164 177 162 161 161 151 144 136 115  94  86  95 114 154 187 107 156 159 151 171 155 138 152 178 186 183 199 163 129 124 131 132 136 134 147 157 154 148 149 152 152 155 166 174 174 175 170 169 170 168 166 161 158 157 149 139 133 128 124 120 106 106 107 115 120 112  95  46  38  52  53  49  49  59
 168 171 171 169 170 166 161 161 164 166 137 109 128 136 137 150 157 160 157 176 173 166 164 160 150 142 134 119  94  85  91 115 127  85 129 153 155 168 175 194 178 184 173 140 131 123 135 140 137 138 142 148 152 158 154 147 149 152 154 159 170 171 170 175 171 168 166 165 165 156 155 153 139 137 131 127 122 110 103 105 111 119 119 114 109 139  73  38  53  50  52  62
 168 170 173 173 170 165 162 166 170 168 155 111 124 131 138 147 156 162 161 164 179 172 162 156 155 148 136 132 117 104 105 111 115 119 116 124 128 132 131 140 133 126 122 126 139 147 146 146 147 155 157 155 152 159 155 150 159 162 163 167 168 165 171 169 167 168 169 165 164 160 156 145 138 135 124 123 116 103 102 109 121 121 123 118  95 170 217 112  38  47  53  66
 164 164 167 168 163 163 163 166 169 168 170 126 113 131 139 144 151 163 162 156 176 178 163 154 150 148 144 136 126 120 116 110 116 122 130 130 132 132 133 134 134 137 143 158 163 166 158 161 161 161 160 158 159 161 157 156 166 161 167 167 165 162 166 164 163 164 163 164 163 157 152 136 136 131 123 123 114 104 111 115 121 128 123 124 103 119 204 229 128  37  49  67
 155 157 158 158 157 165 170 169 165 165 170 152 112 131 141 140 150 157 163 158 169 175 164 155 147 142 140 140 131 123 125 122 119 124 133 138 144 142 143 150 153 158 157 162 166 166 162 160 162 161 162 167 165 165 162 162 164 165 170 166 165 161 165 165 165 162 160 165 158 153 143 134 134 129 124 120 107 107 113 120 125 125 125 127 113 104 156 199 235 124  38  63
 155 157 159 159 159 165 171 172 169 165 167 170 121 121 135 138 142 152 159 158 162 173 167 157 151 144 135 138 133 124 124 128 130 135 139 140 146 152 150 150 155 158 153 151 159 159 158 159 163 165 163 167 166 165 162 156 158 164 169 164 159 160 164 164 164 162 159 161 155 148 143 135 131 129 121 112 106 114 115 123 129 128 126 126 117 103 135 157 210 232 101  51
 166 166 168 166 166 167 165 167 168 165 168 169 142 111 132 141 140 147 156 162 163 173 170 159 151 146 136 138 134 127 126 126 130 133 138 140 147 160 157 150 150 159 162 157 155 164 165 173 174 172 167 169 166 159 162 159 160 169 163 160 158 166 166 157 164 161 161 158 154 144 140 135 130 125 114 106 110 117 122 129 134 132 128 126 122 104 139 134 175 224 213  80
 165 171 170 166 168 169 166 167 168 167 170 169 169 120 124 135 143 148 152 163 164 166 166 157 147 144 140 142 141 140 139 129 129 130 136 141 149 159 159 153 161 169 168 159 165 178 185 182 179 172 173 171 167 161 161 169 168 168 171 162 157 167 161 164 165 165 163 157 154 142 138 133 126 121 111 110 117 125 128 135 134 131 129 133 124 108 115 145 138 202 236 168
 158 164 166 163 164 166 163 161 163 166 167 167 177 146 112 131 141 148 151 160 162 161 157 150 145 149 142 143 145 142 141 140 140 140 143 149 151 157 161 160 170 174 175 176 180 181 184 182 184 173 165 162 161 167 168 169 172 168 162 161 158 158 163 161 161 162 163 160 151 139 137 130 122 113 112 117 122 128 132 134 136 131 133 132 124 119 104 142 126 167 218 223
 154 155 161 162 163 167 159 157 163 165 167 168 168 165 112 117 136 143 145 154 158 160 150 142 143 153 147 142 146 144 144 146 148 152 153 153 155 160 167 169 169 167 172 180 182 179 180 184 180 171 161 155 163 169 173 170 173 169 165 161 158 152 153 155 159 161 159 156 144 139 136 128 122 114 115 121 126 132 135 134 133 137 136 133 129 124 107 130 132 132 199 226
 148 153 161 161 163 167 164 166 173 169 161 163 162 160 138 106 127 140 143 144 154 158 148 136 144 148 151 152 141 141 148 146 147 155 157 159 161 162 162 168 172 172 176 169 175 175 173 172 168 165 159 158 165 171 171 173 168 159 164 158 155 150 151 158 159 160 150 142 143 138 131 124 116 117 120 126 131 135 140 134 134 140 136 132 129 126 111 120 143 127 166 222
 154 158 166 164 162 161 159 165 172 166 150 151 160 159 159 120 112 131 138 142 146 149 143 135 137 145 152 149 143 145 151 154 150 148 159 161 165 163 160 162 163 173 171 167 170 169 172 170 167 165 166 165 170 170 171 175 166 160 162 151 149 149 151 157 161 155 145 142 139 134 125 120 121 126 125 131 132 137 140 139 138 140 139 134 132 130 119 114 140 142 139 209
 159 158 164 167 167 160 153 156 163 157 152 157 162 164 163 153 109 121 135 140 146 146 141 132 127 134 141 146 146 146 148 153 151 150 156 159 155 151 148 156 160 167 167 173 180 177 170 168 169 167 171 171 173 171 169 169 165 157 157 146 145 147 154 156 155 147 147 144 133 126 122 120 127 130 133 134 133 136 141 140 139 144 143 140 133 131 123 111 130 153 132 190
 156 156 161 167 170 166 161 159 160 162 160 163 164 161 166 172 149 108 126 136 142 146 147 134 123 122 129 137 144 148 151 148 147 152 154 149 149 150 153 159 168 169 170 170 172 179 171 162 164 164 170 173 169 170 170 165 164 151 149 146 142 146 154 152 148 143 145 137 130 123 120 125 133 134 139 136 138 139 144 142 142 141 143 140 133 136 129 109 118 143 148 176
 153 150 156 164 168 166 160 159 162 164 161 165 170 170 172 174 178 138 103 127 139 145 148 138 123 120 127 134 142 149 152 153 149 148 151 146 146 151 153 161 173 160 162 166 165 169 167 168 166 161 169 170 169 168 168 168 157 139 139 144 142 146 151 151 148 140 136 129 125 121 122 132 132 137 136 139 141 141 145 145 142 142 140 141 133 138 130 115 104 126 164 171
 149 147 152 161 163 157 154 153 155 156 156 163 171 172 170 167 161 160 123 107 130 145 149 146 126 117 123 133 139 142 148 155 153 142 140 140 141 149 154 159 167 169 167 171 172 167 166 166 163 162 169 168 169 165 161 162 149 137 141 138 141 146 144 148 144 136 130 126 122 123 130 136 139 138 139 141 143 144 145 145 139 137 144 142 140 139 129 124  94 100 153 171
 155 153 158 166 165 156 152 155 154 150 148 157 164 162 160 159 151 147 153 114 100 128 141 147 135 118 113 121 133 133 138 146 146 145 142 140 136 145 156 156 164 168 164 175 185 179 174 165 161 163 175 172 171 168 158 156 145 141 143 137 141 142 143 144 137 132 127 123 123 129 135 138 143 143 146 141 140 143 144 142 140 142 146 146 141 137 133 128  99  96 134 146
 157 158 165 169 167 155 151 152 153 155 150 152 156 157 160 163 158 148 146 134  87  98 126 136 139 124 104 110 126 135 136 135 140 143 145 147 144 146 156 158 159 160 160 167 181 182 175 166 165 162 163 167 166 166 158 148 139 143 143 139 138 136 140 140 137 128 123 122 128 135 134 141 145 148 144 141 141 143 145 146 145 147 144 147 140 136 134 129 115  76  82 116
 156 162 171 168 159 152 152 151 152 153 151 153 159 163 167 166 162 156 155 147 117  87  94 118 133 132 115  97 107 125 136 129 133 141 145 149 143 145 150 159 161 162 165 171 170 170 165 161 158 158 163 166 163 161 150 140 142 142 140 137 131 137 137 136 133 126 124 126 133 140 136 142 146 145 143 143 147 146 144 152 151 154 147 148 139 138 137 134 119  78  71 143
 158 164 169 160 153 153 156 156 151 148 145 152 165 168 172 171 162 167 172 162  84  84 100  85  99 122 124 102  88 108 132 132 127 131 139 146 145 149 149 152 154 156 159 158 157 156 154 149 150 156 161 158 157 151 135 134 143 141 139 136 132 137 135 132 131 127 126 131 135 134 137 144 146 144 145 145 146 148 151 150 156 152 148 145 142 139 137 134 120  84  71 118
 162 164 162 155 152 155 156 156 152 144 141 153 164 167 172 172 172 176 180 126  51  54 105 111  85  86 111 116  99  90 115 130 127 129 128 139 145 151 155 157 151 156 155 149 149 150 144 144 144 150 154 151 149 134 128 140 144 143 142 136 135 133 131 132 133 130 127 131 139 137 140 146 147 149 149 143 142 147 152 155 151 149 148 145 146 143 136 133 123  95  74  88
 161 162 160 159 156 156 154 158 157 149 151 156 160 164 165 162 170 180 154  66  46  45  53 116 124  95  81  92 104  92  86 110 123 132 128 131 139 150 154 157 151 147 146 143 143 148 149 150 150 148 146 142 126 130 145 146 146 142 139 133 135 133 134 128 126 128 129 133 139 142 146 148 145 149 148 144 149 148 151 152 147 157 150 147 150 147 139 133 119  99  80  92
 160 165 165 166 167 163 158 163 164 161 165 167 161 159 159 156 163 157  85  46  53  51  31  65 125 128 114  94  80  86  84  89 105 121 135 137 134 139 144 146 141 138 142 141 139 140 140 143 141 134 128 121 130 146 146 143 140 137 134 136 134 135 134 130 126 127 132 136 143 144 148 150 150 149 145 150 150 152 154 151 149 154 155 144 147 144 144 134 119 105  89  98
 150 159 166 173 175 168 158 162 166 165 171 173 160 154 154 157 163 100  51  52  52  50  38  31  82 128 126 126 117  88  77  84  90  99 112 131 132 135 136 136 136 136 135 131 128 127 125 126 121 117 121 137 150 144 144 140 138 142 140 138 136 135 131 132 132 135 138 141 148 149 152 152 149 153 155 154 150 154 148 158 155 150 149 148 151 144 144 139 121 104  94 102
 142 148 160 170 170 164 158 164 165 161 165 168 163 162 164 165 116  56  55  52  49  53  41  35  40  99 125 128 134 131 106  88  84  93 102 105 110 112 118 118 122 121 119 114 113 115 118 118 122 131 145 149 144 143 143 139 139 140 138 138 138 132 136 136 140 145 146 149 150 150 153 151 154 155 155 153 157 151 150 157 151 151 153 152 151 147 146 140 127 109 100 107
