P2
# Generated by OpenCV 4.2.0
92 112
255
 238 241 242 242 241 241 242 243 243 243 242 243 244 244 245 245 244 244 245 245 245 245 245 244 246 250 254 255 251 246 245 245 245 245 245 246 246 246 246 246 246 246 246 246 246 246 248 246 248 248 248 248 249 247 248 248 248 248 248 248 248 249 249 248 249 249 249 249 249 249 247 248 249 249 249 249 249 249 249 250 249 249 249 249 249 249 249 249 249 249 249 250
 234 240 241 242 243 242 243 243 243 243 244 245 246 247 244 243 244 249 250 246 243 244 245 247 249 242 224 221 234 249 246 245 245 245 245 245 245 246 246 246 246 246 247 246 246 245 247 246 247 248 248 248 247 248 248 248 248 248 248 248 248 248 249 249 250 249 249 248 248 248 248 248 249 249 249 249 249 249 249 250 249 249 249 249 249 249 249 249 249 249 249 249
 241 244 241 241 244 248 246 242 243 242 242 244 242 239 238 244 240 219 207 223 244 245 247 247 188  98  62  56  85 185 247 246 245 245 245 245 245 245 246 245 246 245 245 245 246 247 248 248 246 245 248 248 248 248 248 247 246 248 247 246 248 249 248 249 249 248 248 249 249 248 248 248 249 249 249 249 249 249 249 249 249 249 249 248 249 249 249 250 251 249 249 249
 220 216 231 243 218 179 184 230 245 242 176 112 103 103 204 251 224  89  42 172 249 246 250 184  45   7  10  14  12  61 214 250 245 245 245 245 245 245 245 246 244 243 244 244 246 247 249 248 245 244 247 248 248 248 248 247 247 248 248 247 247 248 250 255 255 254 249 248 249 249 248 248 249 249 249 249 249 249 249 249 250 249 249 249 249 249 249 250 250 249 249 249
  61  90 215 250 164  23  82 228 247 244 114   5  10  21 174 254 216  50  18 178 251 248 233  85   9  59 135  88  23  24 166 252 246 246 245 245 245 245 245 245 242 242 242 242 243 244 245 243 242 244 245 248 248 248 246 247 249 248 248 247 247 251 243 187 162 208 250 248 248 249 248 248 250 249 249 249 249 248 249 249 249 249 248 249 249 249 249 249 249 249 249 249
   5  63 220 251 147   8  92 234 249 239 104  17  32  22 153 253 210  49  31 190 252 251 197  37  25 171 254 203  40  12 147 251 245 245 245 245 246 246 245 242 238 238 241 239 239 243 242 236 246 242 242 248 247 245 242 246 247 245 244 244 247 245 162 143 154 113 208 253 250 251 249 248 249 249 250 252 250 249 254 255 249 249 250 255 255 255 249 254 251 249 249 254
  11  78 227 248 136   8 106 238 249 235  91  22  89  40 126 253 204  41  39 200 251 250 170  20  52 214 255 215  67  40 162 251 247 247 249 250 244 235 235 230 233 239 240 243 233 231 241 230 231 230 230 239 247 246 236 235 241 245 247 244 248 207 161 250 255 221 224 250 253 248 253 250 248 254 244 228 252 253 218 213 249 251 250 201 177 226 250 219 241 252 248 206
  10  90 233 245 124   8 118 242 248 229  77  28 147  66  97 246 194  33  48 209 250 251 155  15  63 222 251 233 209 213 235 249 244 231 220 213 213 210 218 230 222 225 239 237 234 226 232 228 235 231 230 235 219 203 198 206 212 208 215 224 235 187 170 249 251 252 252 245 186 138 161 247 228 156 161 124 141 173 147 110 168 255 193 149 148 153 240 151 232 255 246 150
   8 103 238 241 111   9 130 246 248 222  65  33 181  92  74 236 187  28  57 217 251 248 142  10  71 227 251 252 252 250 226 202 163 128 125 122 135 152 143 171 189 200 216 231 224 210 214 230 213 196 181 164 137 127 124 129 132 137 146 167 202 209 136 183 238 252 252 227 184 219 142 204 208 113 223 237 113 174 254 221 136 241 152 234 255 240 233 150 239 253 241 150
   7 113 241 237  98  11 142 246 248 216  56  40 201 120  54 224 179  20  68 225 250 247 131   8  83 236 206 146 166 160 139 121 119 113 114 117  95  98 119 117 137 149 178 200 200 189 191 180 160 147 124 106 108 106 109  93  81  84  93 105 115 166 177 132 149 208 244 250 254 247 170 192 201 183 255 254 167 216 255 239 153 241 155 127 227 255 230 150 244 254 234 148
   8 127 243 232  85  13 154 247 248 207  45  48 214 148  41 208 171  16  79 229 249 245 119   5  94 243 152  80 108  97  92  98  91  83  77  81  86 101  79  80  98 123 133 137 134 137 145 142 147 148 132  89  68  71  74  86  83  80  76  76  81  81 109 145 142 150 218 232 181 147 101 201 195 184 255 249 163 216 255 232 153 243 241 150  96 197 228 154 249 254 228 148
   9 138 247 225  75  20 166 247 248 198  36  58 222 174  37 186 160  12  88 235 248 241 113  26 115 231 175 113  96 105 114 117  77  56  57  40  65  72  59  59  96 122 112 102 112 118 128 145 156 157 158 149 108  90  83  66  72  80  86  75  81  86  72  96 128 138 192 173 175 229 173 208 189 192 255 246 160 222 255 225 152 246 255 255 203 137 213 157 252 255 227 151
  12 151 249 219  66  27 178 247 249 188  29  66 227 196  39 157 147   9  99 239 248 237 101  28 128 214 139 107 120 137 132 111  85  58  59  67  43  41  67 100 116 102  84  79  77  96  88 114 137 144 151 151 153 120  88  77  71  71  67  76  73  68  62  69  92 106 121 153 223 241 173 214 181 197 255 243 157 228 255 218 156 237 227 255 238 163 218 133 245 255 174 137
  18 162 251 211  54  32 189 248 248 178  25  76 232 216  49 122 127   7 114 242 248 230  98  48 136 158 124 125 111  90  82  71  57  58  62  58  34  64  93  96  99  95  69  60  47  76  65  81 113 126 125 133 139 143 113  91  82  81  75  79  83  77  65  49  60  88  92 107 177 209 124 219 171 203 255 237 154 234 255 211 162 233 133 156 149 200 253 141 119 154 125 162
  24 173 252 202  45  40 198 248 249 165  20  87 235 230  69  78  91  20 130 242 249 223 105 101 143 135 112  79  75  72  62  53  61  73  49  43  73  83  71  90 106  94  63  52  40  72  76  81 115 142 152 136 124 128 124 100  87  84  89  94  84  95  86  63  49  55  93  89  95 157 183 230 209 227 252 243 211 243 251 235 223 252 222 174 206 251 251 243 203 214 247 245
  33 184 255 192  34  51 209 248 248 155  16  96 238 240  97  30  42  28 137 245 248 208 131 129 123  91  61  64  73  54  56  49  59  72  57  59  96  76  76 100 110  95  69  55  50  63  65  58  71 108 149 172 155 125 126 118  90  88  73  86  94  84  97  91  74  62  74  83  90 120 227 243 248 248 247 249 253 249 247 250 251 248 254 255 255 248 248 251 255 254 250 250
  24 161 241 143  16  76 225 246 246 143  14 106 241 247 123  13  25  33 153 248 230 169 104  71  68  55  65  86  61  66  75  84  77  90  92  94  98  84  92 113 115 112  83  52  43  66  52  45  57  72 104 129 155 148 121 120 106  88  90  65  82  92  82  90  87  75  58  77  88  91 135 229 243 246 246 248 247 248 248 248 248 248 248 248 248 248 249 250 248 248 249 249
  20  60 100  43  14 135 242 243 244 125   0 110 243 250 146  10  19  31 164 246 186 123  75  92  85  64  72  78  94 109 108 121 131 130 120 118 102  92 105 126 123 113  97  63  53  68  49  47  46  55  64  80 110 125 135 114 112  88  92  87  66  70  84  84  90  80  76  67  86  83  89 159 238 240 245 247 246 247 248 248 248 248 248 248 248 248 248 248 249 249 249 249
  24  12   7  13  84 214 245 243 240 149  79 159 241 245 194 123 130 141 209 218 144  83 104  86  50  59  92  99 132 106 104 120 122 135 146 131 121 116 116 119 127 117 118  93  72  71  62  51  52  51  62  85 113 118 117 125 127  99  70  87  79  67  70  83  84  92  75  73  74  86  88 100 194 245 243 248 248 249 249 248 248 248 248 248 248 248 248 248 248 248 248 248
 139 106 100 141 213 243 241 242 238 233 236 237 240 240 241 245 242 240 235 176 104  88  81  56  58  86  91 113 102 112 136 136 144 160 171 161 144 144 137 130 136 136 123 106  94  84  69  64  59  45  46  79  98 120 130 117 120 126  87  72  75  71  61  66  77  71  79  82  82  79 102  84 108 220 246 245 248 248 247 248 248 248 248 248 248 248 248 248 248 248 248 248
 242 236 236 243 244 241 241 242 241 243 246 244 242 241 243 240 236 240 217 148  95  85  68  83 104  95 105 107 125 146 140 159 175 183 188 186 180 164 157 158 152 144 136 121 117 105  86  76  72  50  37  45  93 112 124 115 108 114 113  80  62  56  62  57  63  71  68  83  84  70  87 102  89 142 232 241 246 247 246 248 248 248 248 248 248 248 248 249 248 248 248 248
 241 241 241 240 239 240 240 241 240 240 241 241 240 241 241 237 239 234 182 112  82  83  76  84  88  90  97 109 137 145 166 180 184 188 192 196 195 186 179 178 174 166 163 158 150 139 120 111  94  67  52  53  58 114 128 128 106  98 102 115  77  57  48  59  53  56  67  72  86  70  58  85 108 101 167 235 246 245 246 246 248 248 247 246 246 246 248 248 247 246 246 246
 239 239 239 239 240 241 241 241 241 241 241 242 241 241 239 238 229 191 129  72 108  81  93  82  74  91 106 118 147 168 181 188 187 194 197 194 194 198 191 191 195 191 187 186 182 179 171 154 142 125  97  77  73  87 111 129 124  91  92 108 107  80  58  47  56  56  55  60  74  74  64  58  85 103 117 196 239 245 248 246 247 248 247 246 245 245 246 247 246 245 245 245
 239 239 239 239 240 241 241 241 240 241 241 242 242 242 241 226 181 142  84 110  89  78 101  83  90 139 129 148 172 179 187 193 192 195 198 195 195 199 199 198 202 199 196 193 191 189 188 181 170 168 155 130  95 105 105 103 109  99  94  92 102  87  77  53  46  54  60  57  67  78  70  63  68  92 101 148 222 242 245 247 247 246 247 246 245 245 245 245 245 245 245 245
 238 238 239 239 239 241 241 241 241 241 241 241 241 241 233 190 129 116  99 101  43 119  82  90 139 164 158 176 182 185 192 194 195 198 197 199 199 200 200 200 204 205 201 198 194 191 186 183 178 173 166 164 137 127 139 107  98 103  89  85  88  94  73  67  41  37  50  58  59  69  71  70  71  73  96 111 177 233 242 246 247 245 245 245 244 245 245 245 245 245 245 245
 238 238 238 238 239 240 241 241 241 241 241 241 243 237 220 132 137 129  96  56  73 117  74 124 167 175 179 184 186 188 193 195 195 197 197 197 198 197 198 200 200 201 200 199 197 192 187 184 180 175 169 163 160 141 143 127  89 103  97  78  83  89  94  65  56  23  38  50  60  56  75  78  73  68  73 101 116 201 236 238 244 245 245 244 244 244 244 244 244 244 244 244
 238 238 238 238 239 239 241 241 241 241 242 241 241 235 147 139 164 108  78  43 104 104 124 161 178 178 181 183 189 191 195 193 197 197 199 198 200 198 199 201 201 199 198 197 194 192 187 184 185 179 171 164 160 159 147 145 104  76  94  83  67  71  95  86  60  53  26  30  44  60  55  78  78  69  67  88 103 136 226 233 236 244 245 244 242 243 242 243 243 242 242 242
 238 239 239 239 239 239 240 241 241 241 240 240 240 213 110 183 130  96  63  64 115 128 155 172 178 180 184 188 189 192 195 196 198 200 201 201 204 202 201 200 201 199 198 196 193 192 188 189 184 181 176 170 170 169 161 153 140  89  64  75  68  57  75 104  69  49  50  38  29  42  56  62  82  68  65  72  89 105 171 233 236 238 241 243 243 243 242 241 240 239 240 239
 238 239 238 239 239 239 240 242 241 241 240 240 244 167 150 169 110  82  61  91 124 149 165 172 178 182 184 188 189 194 194 196 197 197 201 203 204 202 199 199 197 198 198 196 197 195 189 187 187 180 177 178 179 176 171 162 153 126  83  61  67  62  57  89  95  50  42  49  49  34  44  50  66  83  72  69  71  99 120 200 226 233 235 237 241 241 241 239 238 237 237 236
 238 239 239 240 239 240 240 240 240 241 240 247 239 141 160 141  95  69  68 105 142 158 164 174 183 182 184 189 191 197 195 197 200 200 198 202 203 202 203 198 196 196 194 195 197 193 191 192 188 182 183 182 182 180 172 165 160 148 120  83  58  57  48  62  93  87  56  45  46  50  42  37  44  68  80  68  67  74 101 160 231 229 229 228 232 235 237 236 235 234 234 233
 237 238 239 239 238 239 239 239 241 247 239 201 150 128 139 123  77  57  67 132 157 159 165 179 184 187 190 192 194 198 199 199 203 202 199 204 206 202 202 200 201 201 195 193 194 192 190 189 188 183 186 187 183 183 181 173 162 153 147 127  92  60  46  44  74  98  80  45  47  48  44  41  32  52  71  80  70  72  86 115 202 237 233 236 229 229 232 234 233 232 231 230
 238 239 240 239 240 239 240 244 244 193 117  87  99 116 134 109  65  58  97 136 155 162 168 179 186 191 193 197 202 199 200 202 202 205 205 203 205 205 202 200 202 200 198 197 196 194 193 191 188 186 187 187 188 187 186 176 163 158 152 146 127  96  63  39  48  87  95  76  53  56  54  47  41  34  60  76  81  74  74 101 151 233 231 233 234 225 228 229 230 229 228 226
 238 237 239 239 238 239 244 235 128  59  91 145 125 128 126  85  57  71 111 128 150 164 169 182 191 195 195 198 200 198 199 207 215 210 205 208 208 209 206 204 200 195 195 196 195 197 196 194 190 188 189 188 188 187 183 179 172 164 154 149 138 125  96  60  40  59  96  84  61  44  42  47  54  43  48  71  78  73  73  85 109 200 235 229 229 229 224 226 226 226 225 225
 238 237 238 238 238 239 241 138  75 139 207 166 101 104 104  71  62  79 103 123 149 167 171 182 191 193 195 197 198 199 206 212 218 207 208 209 205 206 206 206 204 206 195 199 198 199 197 196 189 188 186 188 187 185 181 179 174 165 157 153 139 130 120  98  68  44  82  92  62  54  45  32  31  43  40  62  72  87  85  86  93 147 225 228 227 227 222 223 224 224 223 223
 237 237 239 239 237 248 180 102 158 215 173 172  97 118  91  61  65  78 100 134 154 167 175 183 194 194 195 197 201 205 208 211 210 214 218 214 209 206 207 209 206 209 201 202 204 203 199 196 195 193 190 188 188 186 184 181 175 167 159 153 143 132 124 118 104  61  56  93  68  52  45  56  41  23  26  42  66  73  88  86  90 105 192 233 223 225 219 220 221 220 222 221
 238 238 238 238 241 236 122 138 232 187 125 143 125 122  72  66  64  73 110 141 158 169 176 188 194 199 197 197 202 205 206 212 214 217 217 210 209 209 208 209 206 203 205 204 207 203 202 201 195 192 191 191 190 187 184 181 175 165 160 154 147 136 129 123 122 109  48  78  86  54  43  31  48  45  21  19  46  70  78  83  89  89 144 225 224 221 219 218 219 218 219 218
 238 238 238 238 248 193  83 212 212 154 150 143 123 102  58  59  60  85 112 141 161 172 179 185 193 203 198 198 203 204 207 215 217 217 213 212 209 212 210 213 206 202 205 205 207 204 198 198 193 190 189 193 191 184 181 182 175 166 162 158 147 140 133 130 129 130  82  55  94  63  54  37  23  29  42  25  22  54  82  78  91  84  98 189 228 220 217 215 216 215 214 215
 238 238 238 238 249 142 137 218 126 152 209 167  82  77  56  54  69  91 113 148 164 172 184 188 194 199 198 199 203 209 213 216 212 213 211 210 210 209 203 206 201 200 202 205 205 204 200 199 195 192 191 191 187 184 182 181 174 167 166 160 150 144 138 133 133 130 120  58  85  87  49  54  34  34  29  42  23  32  71  87  82  87  82 144 220 216 212 213 212 211 212 212
 238 238 238 237 241 120 179 147 137 163 225 147  82  71  65  59  68  85 125 155 167 176 179 189 197 199 201 204 203 207 209 204 204 208 204 201 202 201 200 200 199 199 198 202 205 201 199 200 198 195 189 186 187 182 180 177 170 169 165 160 154 148 141 140 133 126 130  86  65 100  54  50  49  34  31  34  37  26  44  77  88  87  84 103 199 215 209 211 210 210 210 211
 238 238 237 238 227 140 154 156 157 186 168  97  79  68  67  53  62  88 140 161 170 178 177 191 198 200 202 202 202 203 207 206 207 208 205 201 198 196 194 196 199 197 199 201 203 201 197 197 198 197 190 188 186 182 178 174 171 169 168 164 156 153 146 136 137 133 128 109  58  95  75  42  51  42  24  25  24  32  30  55  85  90  88  94 165 218 218 221 214 209 209 208
 238 238 239 241 213 137 131 207 152 143 112  98  79  71  65  56  64 103 153 163 173 179 179 189 194 198 198 203 202 204 207 209 208 206 207 204 202 200 196 193 196 193 197 199 202 203 203 196 198 198 195 190 188 185 181 174 176 173 165 165 160 156 149 137 142 138 124 110  68  73  88  56  45  58  29  17  24  29  35  34  72  93  94  89 130 175 154 150 175 208 207 206
 238 238 238 244 201  97 139 224 122  95 117  97  80  79  64  59  62 112 158 164 175 176 178 187 197 197 198 201 203 203 208 211 211 209 210 205 207 203 193 193 197 196 196 200 199 201 203 200 195 199 200 194 192 190 184 178 176 171 162 161 159 155 148 142 141 137 123 100  77  58  88  67  46  52  47  13  19  22  34  33  47  83  91  82 109 106  31  17 110 208 204 202
 238 238 237 243 181 108 174 182  90  96 104  71  86  88  73  60  65 122 161 163 172 173 178 188 197 196 197 199 200 203 209 219 219 218 218 210 204 202 198 198 197 198 196 200 201 201 202 202 201 198 200 197 196 192 185 184 176 170 165 161 156 154 152 146 140 133 118  91  83  57  75  68  52  47  59  33  12  22  46  50  33  64  85  82  98 112  47  20 110 208 201 199
 238 239 238 232 143 125 160 159  89  83  89  67  96 105  87  64  66 130 161 166 171 174 186 194 193 185 184 186 191 194 201 209 212 207 212 219 207 203 203 198 199 197 197 199 206 206 206 206 205 202 204 201 195 192 189 187 183 170 166 159 157 151 150 147 143 130 107  82  78  71  60  75  53  46  55  55  28  17  38  62  49  41  79  93  88 108  73  18 110 208 197 195
 239 239 236 220 141 142 138 131  81  77 102  80 105 123  91  52  72 135 160 163 169 170 181 172 166 158 162 154 157 164 171 163 174 177 191 211 214 206 206 200 197 197 200 204 205 204 208 210 208 208 210 202 194 191 190 190 184 175 169 160 158 151 147 146 140 127 102  79  75  87  53  70  56  44  53  50  47  26  36  64  73  43  65  96  84  98  89  21 116 205 195 186
 239 237 237 215 139 156 130  92  79 107  95  79 109 131 109  51  66 134 160 162 162 147 149 148 152 155 141 142 136 143 141 131 141 169 169 193 197 204 210 207 202 204 206 211 209 205 211 216 212 210 212 201 196 184 181 183 182 174 167 159 158 155 152 147 137 125  99  81  73  90  61  55  60  44  51  44  41  40  22  56  73  64  44  83  85  92 103  46 125 201 194 177
 239 236 237 225 130 148 120  72 106 110  80  79 119 135 129  53  58 132 162 156 135 145 157 165 167 172 167 166 161 144 135 139 135 154 159 181 180 202 207 207 210 212 212 218 214 205 211 215 213 207 206 194 183 174 165 147 141 132 129 129 132 127 129 134 139 125  97  78  71  83  78  51  60  42  48  47  24  46  47  50  46  54  39  69  94  83  97  70 137 196 190 170
 238 237 240 213 136 133  86 101 119  82  69  83 118 139 134  57  56 129 161 153 141 161 178 179 187 183 180 179 181 177 171 165 168 168 165 175 177 194 201 203 208 214 214 210 207 202 201 202 205 201 193 186 164 153 150 127 105  96  86  86  92  89  94 104 112 119 102  78  71  75  88  55  58  47  43  50  20  30  62  47  46  45  57  50  95  92  96  77 149 193 188 164
 239 237 236 197 172 126 102 165 136 104  54  90 124 135 130  58  54 128 158 153 153 165 175 175 174 173 172 172 174 169 174 167 171 176 173 172 180 187 190 193 198 202 204 200 201 198 192 192 196 189 179 165 138 129 114  98  92  92  93  81  78  78  83  81  78  88 100  92  72  68  87  65  52  57  38  41  27  21  39  58  37  51  86  42  77 105  90  83 153 190 188 157
 239 237 213 206 164 121 133 157 163 100  54 102 135 119 120  60  52 127 157 156 159 165 171 166 167 173 177 184 188 185 186 180 168 167 165 169 172 179 182 184 187 194 197 201 197 192 185 181 183 179 171 147 135 126 113 110 110 111 116 110 117 115 120 117  97  81  83  90  78  64  78  75  51  57  45  37  32  19  19  52  42  51 100  45  49  98  99  84 151 186 186 148
 238 236 209 208 109 124 145 155 135  87  70 118 133 120 107  59  50 125 156 157 159 158 157 158 167 179 184 192 199 197 196 197 189 177 162 158 159 164 171 178 185 192 195 200 193 185 175 173 168 164 152 137 131 121 118 127 132 139 144 147 144 137 137 136 125 113 110  97  80  68  72  76  58  43  52  52  24  21  21  32  51  74 104  59  32  76  95  90 147 182 183 139
 234 230 210 171  95 135 139 147 119  93  89 112 128 116  97  64  47 123 159 160 158 152 150 161 164 160 162 168 169 171 170 171 178 181 173 165 156 154 159 171 183 191 200 204 191 176 169 162 149 136 125 121 117 119 136 154 167 171 164 159 149 143 136 127 119 118 121 108  86  70  70  75  66  40  43  47  21  14  25  17  41  86  87  67  32  66  92  81 139 178 181 129
 236 219 202 131 115 125 181 149 125  81  62  99 120  99  90  67  45 121 159 161 159 158 156 155 145 151 156 156 163 157 151 139 129 147 164 166 162 156 151 157 175 194 208 215 198 168 158 138 120 106 106 116 131 150 175 182 172 166 162 160 157 146 142 129 123 117 118 114  91  72  69  74  67  44  39  43  30  12  20  25  34  79  78  54  29  49  91  89 119 175 180 120
 240 215 184 131 136 111 200 159  93  59  73  99 102  93  82  64  49 128 161 164 157 159 156 146 127 117 125 105  84  89  81  95 109 117 128 150 155 146 154 160 174 193 206 212 196 169 139 106  84  91 113 133 151 161 147 141 155 157 146 139 131 121 122 127 128 115 110 106  87  75  70  72  68  48  36  33  37  25  11  21  38  75  71  48  40  36  80 101 113 168 179 112
 244 216 164 172 152 144 165 118  77  76  79 104  96  79  71  61  56 127 165 163 157 157 153 115  95 130 171  91 125 113  39  82 103 112 111 124 135 141 155 169 177 187 202 205 190 160 110  66  66 101 127 144 150 138 141 168 179 176 156 136 125 113 104  98 109 118 110 102  88  79  72  71  65  48  30  34  30  37  17  17  47  65  57  36  53  38  62  97 109 152 178 107
 242 208 138 195 138 155 125  75  78 103  70  86  90  66  62  63  61 123 169 163 159 152 141 128 141 178 196  98 104  73  84 113 152 156 111 119 143 172 193 190 182 187 198 195 179 151  93  53  66 110 132 136 134 140 138 131 107 104  87  67  66  84  97 103  88 106 120 106  91  80  74  70  66  45  34  39  30  32  35  14  40  59  58  30  41  35  49  82 103 140 178 112
 245 193 134 190 155 153 125  96  80  88  62  57  72  62  57  64  64 124 167 167 169 164 162 155 152 164 188 150  99 111 117 118 165 157 136 139 162 210 217 199 185 184 191 190 172 149  99  53  62 127 158 140 119 116 144 196 120 122  71  42  70  74  77  67  92  98 117 108  94  83  76  70  65  43  41  43  30  25  43  47  40  55  67  41  36  36  41  66 100 138 173 132
 238 190 132 191 190 142 116 135 103  80  55  42  57  60  47  61  76 128 168 172 178 179 174 170 166 165 165 178 163 152 148 148 149 136 148 167 180 191 191 188 184 182 191 185 169 147 108  70  59 127 171 131 119 140 189 222 154  93  68  90  89 105 107  60  60  83  98 101  96  88  79  71  64  43  41  41  21  32  28  57  69  47  62  56  30  35  37  60  88 143 165 154
 237 197 129 188 212 127 111 171 144  90  53  40  46  57  38  56  72 131 169 177 185 184 183 178 170 170 173 176 175 172 167 149 150 153 164 174 181 185 182 182 180 179 189 185 166 151 114  89  66  94 150 166 172 171 167 175 172 145 124 105  95 119 113 102  89  80  80  89  96  92  83  76  66  46  50  47  11  21  34  34  49  61  59  63  40  29  32  53  80 143 161 157
 239 214 142 171 230 141 125 172 161  85  62  36  41  50  37  48  72 135 167 181 189 189 185 189 184 175 170 170 167 165 169 174 173 181 184 186 194 192 184 181 179 176 190 186 172 151 116 101  81  84 133 159 161 164 164 177 176 169 153 131 121 114 116 121 119 112 110 105 100  96  88  79  66  43  62  49  12  14  21  36  39  48  63  68  59  39  28  43  62 134 161 155
 243 221 164 155 232 168 119 147 172  72  59  41  39  55  36  45  79 136 168 184 193 190 188 186 190 194 191 189 188 193 196 196 189 191 197 201 197 193 186 185 178 182 193 191 177 152 115 102  93  89 109 147 172 176 167 157 157 156 151 144 141 126 119 117 112 117 126 122 111 104  94  83  66  39  64  50  13  19  17  30  38  51  53  62  67  57  40  35  45 119 162 154
 240 234 179 138 218 204 149 135 186  98  47  50  75  72  37  44  83 139 170 186 196 197 195 194 195 196 203 202 203 205 203 198 201 208 206 202 195 187 186 180 180 186 193 188 176 151 116 102  95  97 109 126 160 180 181 172 161 150 140 135 134 122 114 118 125 130 135 127 124 111 103  87  68  38  59  53  16  20  23  38  26  39  53  47  54  66  61  42  32  82 157 153
 237 238 222 149 181 218 157 145 189 106  48  79 115  80  36  40  88 140 171 186 194 200 199 200 197 199 202 203 207 201 201 206 209 213 204 195 192 187 184 179 180 184 187 185 173 151 119 105  97 100 109 119 146 171 179 176 164 159 156 155 151 143 142 142 142 133 137 135 131 122 104  90  70  38  59  56  23  24  23  40  28  45  67  45  25  55  72  62  52  44 124 155
 238 234 242 197 137 189 125 164 160 101  56  78  83  67  41  38 100 139 172 187 192 200 198 203 201 201 198 201 204 201 202 208 210 209 203 193 187 181 179 175 177 183 183 181 171 160 128 104 101 103 105 119 144 160 171 177 173 167 165 161 162 154 149 150 146 137 142 144 137 124 110  93  71  39  64  66  18  19  22  55  55  61  68  41  32  40  65  82  91  76 110 153
 236 234 237 241 148 123 116 193 150  86  62  66  52  81  48  41 111 139 171 185 192 193 196 205 203 203 203 206 206 208 207 210 213 206 200 191 184 182 177 174 184 190 189 184 176 168 146 113  99 102 106 113 137 158 167 174 176 172 175 174 170 169 165 163 156 150 149 145 140 128 114  95  71  40  64  60  19  19  17  19  39  71  57  39  35  48  69  68 112 151 143 144
 233 237 236 238 212  97 100 162 175  74  67  49  52  66  46  45 117 138 174 187 190 194 202 204 207 211 211 210 210 210 211 211 214 206 197 189 187 179 173 177 184 196 198 190 182 168 152 129 103  97  98 111 131 151 166 174 180 178 179 181 180 169 172 171 166 157 150 143 139 129 117  98  73  50  60  46  18  16  21  22  32  76  43  54  52  57  74  72  76 154 164 148
 237 237 233 238 217 149 100 111 155  75  52  37  30  63  48  63 104 132 171 185 188 192 197 202 208 210 213 209 209 212 213 212 212 205 196 189 180 174 174 180 193 218 216 200 186 169 149 139 116  97  96 100 124 144 163 174 182 181 181 180 180 168 171 170 165 155 150 144 136 128 116 100  71  53  49  33  15  21  23  29  64  72  38  58  66  65  70  83  71 114 150 144
 236 234 232 237 242 221 153 113 116  63  39  41  65  91  55 101 105 123 167 181 189 192 197 200 207 213 215 215 218 217 213 213 207 202 197 187 177 179 178 181 191 206 201 203 190 163 134 123 124 114 111  93 103 135 156 169 179 184 184 182 178 178 173 169 161 155 152 144 132 124 113  98  73  54  39  29  17  18  24  28  94  55  45  52  68  72  69  84  59  79 132 141
 236 235 234 232 233 191 154 124  79  52  59  68  62  55  86 113 103 125 163 176 186 191 199 203 207 214 216 220 219 216 214 205 206 203 199 183 183 184 180 173 168 163 168 177 170 137 110 102 112 119 120 108  84 116 153 171 182 188 186 183 180 179 175 169 162 154 152 145 131 119 111  95  73  51  34  28  20  16  19  53 105  54  62  61  78  74  75  88  62  61  98 144
 233 236 229 224 233 175 127  94  79  58  71  46  38  57 119 121 122 135 157 173 177 187 198 199 202 212 216 218 217 214 213 202 207 206 196 181 188 181 144 124 143 148 150 161 134 107  89  80  88 107 117 118  81  79 139 169 185 189 187 184 181 181 175 169 158 149 150 143 133 119 109  94  71  44  34  27  18  17  12  90  82  44  65  73  86  72  78 100  74  58  81 126
 230 227 214 206 172 147 127  98  85  61  62  41  30  62 118 165 160 138 154 168 173 184 198 198 202 213 213 212 218 215 211 207 208 204 194 182 180 125  47  18  26 107 136 127 107  73  21  11  31  81 109 113  80  53 110 164 186 186 186 184 179 178 172 167 159 147 145 140 131 119 105  92  65  39  40  32  26  20  25  89  46  36  67  78  90  67  74 110  77  68  72 107
 234 229 224 195 201 211 142 120  93  59  89  55  30  65 115 190 207 148 147 164 172 181 194 198 201 209 210 210 216 210 205 206 207 203 198 181 156 107 118 127  88 136 125  95  87  61  31  16  40  81 108  99  58  49  96 149 185 189 188 186 179 175 167 162 155 144 139 134 132 118 104  88  59  40  43  25  22  22  40  64  49  66  50  82  98  62  66 101  69  78  74  96
 234 214 213 209 222 143 103 111 105  85  92 126  97  81 132 185 196 145 143 161 168 182 186 191 200 204 208 208 207 208 202 202 203 198 197 195 155 131 166 197 195 172 143 109  77  67  74  78  77  85  89  62  46  69 105 138 176 193 191 182 173 172 164 158 151 141 139 130 129 114 100  83  57  44  38  30  36  43  52  56  55  77  37 100  96  59  66  91  56  80  79  89
 237 211 179 160 121 131 142 107 112  84  59  88 104  94 107 168 190 138 139 164 164 178 188 195 200 203 206 202 206 202 201 200 198 195 198 200 188 169 179 187 192 187 183 155 108 108 118 117 106 100  96  96  99 112 126 137 155 179 180 173 171 169 161 151 145 135 133 133 123 110  98  76  48  50  28  24  43  68  62  53  50  53  53 111  84  54  80  90  54  67  80  83
 237 239 224 162 167 214 132  98 103  97  60  63  89  78  90 156 188 132 138 163 161 170 183 192 200 201 205 203 204 200 198 196 196 195 201 201 200 198 183 184 192 201 201 179 162 156 147 139 131 133 126 124 130 131 131 142 145 149 166 177 171 169 159 148 135 130 125 122 117 109  97  67  39  48  41  38  58  67  52  44  31  44  72 107  72  57  94  89  61  57  72  75
 235 234 228 227 248 195  86 118 142 106  97  57  46  61  97 132 181 121 131 161 159 161 179 192 196 198 204 201 199 200 199 197 194 194 194 194 194 182 161 164 170 174 173 163 170 167 157 158 149 121 109 109 115 119 125 136 149 147 137 158 180 158 137 138 128 121 116 111 111 106  96  64  37  40  37  43  60  69  63  43  33  29  88  90  50  61  94  80  70  39  60  69
 234 226 227 238 224 112  83 207 166  49  97  86  60  65 103 119 166 109 118 163 163 157 172 188 193 192 199 202 200 198 195 195 191 186 185 189 170 154 149 155 159 166 149 150 169 170 164 161 136 123 108 101 106 111 113 124 140 141 144 132 125  98 117 139 127 115 108 101 102 107  95  62  39  37  34  42  54  68  61  30  38  45  87  57  67  77  75  84  58  39  66  73
 228 206 181 181 153 129 200 238  90  54  59  76  85  87  83 104 126  96 116 160 166 159 162 179 190 191 193 197 189 188 187 178 185 180 172 169 153 142 145 156 163 161 155 150 170 176 168 157 138 125 124  93  96 102 107 105 118 116 135 139 107  93 127 123 121 111 100  96 103 106  91  58  38  39  38  43  49  69  45  19  34  55  67  43  74  71  84  89  43  42  69  72
 230 226 198 188 190 194 225 203 106  61  35  37  40  49  41  69  72  82 124 159 162 160 155 170 182 188 180 171 154 165 163 163 174 169 165 155 154 154 158 162 167 164 148 150 175 181 178 166 150 132 130 103  98  96 106 116 123 114 110 119 121  95 111 128 118 107  92  93 103 105  91  54  39  37  40  45  51  70  28  29  37  50  50  45  64  62  94  67  39  41  66  66
 210 237 238 243 181 177 228 167 107  33  28  23  59  36  28  48  62  55 122 159 164 163 156 163 176 180 157 145 132 137 155 171 175 164 166 169 169 170 170 168 171 170 169 170 175 176 163 144 122 114 127 106  93  95 115 119 117 108  97 109 105  98  97 142 121 102  88  93 102 102  87  51  37  35  41  45  59  52  37  45  24  35  39  47  51  56  84  56  50  39  71  70
 171 228 240 209 152 219 237 143  59  57  48  84  63  36  57  15  57  67 119 159 165 169 159 158 170 167 156 157 149 154 162 170 173 175 177 167 156 157 162 159 140 149 156 148 143 120 111 107 103 102  99  87  86  81  95  96  86  94  86  99 113 105  90 135 129 101  85  94 103 106  85  46  34  32  35  37  32  50  41  28  31  40  40  49  41  73  58  51  70  63  80  83
 140 211 240 170 183 236 229 130  66  92 100  81  31  79  23  24  23  77 121 157 169 172 163 159 163 163 158 163 163 165 165 152 157 157 151 146 131 139 155 154 139 129 121 114 108  98  91 100  98  87  76  79  80  72  67  64  57  63  85 101 116 101  96 118 125 100  81  95 104 106  83  44  34  19  20  19  10  30  62  27  25  35  41  40  51  54  47  60  64  83  87  85
 154 186 210 156 223 236 240 212  92  75  97  23  84  41  38  62  21  56 113 160 170 174 170 161 157 158 158 151 156 152 149 133 122 106 110 113 102  91 102 116 110  96  95  92  90  90  78  77  80  76  68  70  64  54  46  40  37  81 126 126 131 105  96 119 113  89  78  98 106 102  78  47  35  11  11  25  40  29  28  31  27  37  34  42  37  47  50  57  76 102 111  99
 204 145 136 193 239 235 240 226  82  78  43  61  63  22 108  73  56  62  98 156 170 174 175 168 160 162 170 167 160 153 150 124 108 109 107 103 118 136 138 143 139 137 139 137 139 143 132 129 123 116 107  99  89  70  66  83 118 145 149 148 150 121  96 124  99  80  88 101 103  96  76  50  33  11   5   8  13  17  18  18  28  34  32  33  36  53  49  71  75  90 118 115
 241 132 122 233 236 233 235 230  85  39  32  90  38 114 111  87  98  75  96 155 172 175 174 180 168 158 172 174 170 174 184 188 184 170 153 150 158 159 160 174 171 167 158 150 157 159 146 140 121 111 105 101 100  98 104 119 135 132 136 158 168 130 104 116  86  78  98 103 101  88  63  44  36  15   9   8  10  14  18  20  27  36  37  40  42  46  47  56  41  54 110 116
 239 122 142 240 235 234 239 222  86  40  66  76  47 107 134 115 131 107  91 143 169 180 180 182 176 158 168 177 184 184 191 197 196 191 180 171 163 160 161 169 167 164 158 149 150 152 143 131 122 116 112 112 105 105 108 121 125 128 133 163 171 117 104 100  84  91 104 102  98  82  55  41  34  15   9  11  10  13  18  29  39  41  39  30  38  46  47  38  30  35  78 118
 183 125 138 224 238 234 240 217  99  49  74  67 149 211 135 120 136 113  86 142 171 182 183 186 182 163 165 179 186 189 190 194 196 194 189 185 182 183 183 181 178 177 167 160 155 155 148 142 138 128 122 118 115 113 117 115 125 132 140 163 144 106 105  83  87 103 102  96  95  85  71  54  34  17   8  12  12  13  17  18  24  32  36  35  46  60  52  34  23  34  45 100
 141 204 170 190 240 235 238 225 139  57  74 128 152 117  69 105 137  96  73 129 167 181 182 185 183 169 163 179 183 189 193 194 197 193 192 192 190 189 187 184 177 173 164 159 161 159 151 153 148 142 137 135 124 121 117 119 131 135 143 144 118 106  90  79  97 103  98  95  91  82  75  49  37  19   9  11  13  15  13  16  21  29  39  42  70  95  81  21  21  31  40  66
 185 235 195 162 234 237 235 238 194  99  49 111 123  42  65 117  99 108  90  99 153 174 181 185 185 177 161 171 179 185 192 193 194 193 193 196 193 190 190 185 182 181 171 167 177 163 169 170 166 161 162 138 123 112 121 128 131 135 139 123 107 103  89  96 104  97  94  93  83  75  66  41  29  20  15  10  13  19  24  18  17  26  36  42  68  82  86  84  40  43  33  40
 226 237 221 153 213 240 235 238 236 159 123 104  66  38  66  86  60  78  75  84 138 169 182 185 189 180 167 170 177 183 188 188 190 196 194 194 194 191 195 192 190 182 182 182 178 167 182 169 170 160 149 123 116 113 123 127 129 132 124 117 114  94  92 101 104  98  98  89  72  57  46  41  41  27  13  16  15  19  27  25  31  38  34  47  51  40  60  95  58  57  31  29
 235 236 237 171 178 238 236 238 235 162 203 234  95  26  58  73  59  76 112 126 102 152 178 181 187 182 173 173 178 182 189 186 189 191 189 189 191 191 192 188 189 171 175 175 172 170 181 162 165 150 135 116 119 120 123 130 130 126 117 117 108  95  98 104 101  98  95  82  70  55  44  39  39  37  15  20  15  14  39  30  26  33  34  26  35  41  45  50  45  74  45  29
 235 235 240 203 162 229 237 237 229 154 203 245  93  16  49  93 102 115 141 168  82 132 172 169 180 182 176 177 181 183 185 185 186 187 187 187 186 190 191 185 187 180 173 176 170 160 160 152 145 147 128 121 122 133 134 129 130 130 125 114 106  97  98 101 102  99  92  79  66  48  37  30  33  38  19  21  25   6  39  56  12  13  18  23  22  34  34  36  76 104  55  31
 235 235 236 231 213 230 236 236 230 193 219 247 111  28  61  81 130 115  84  80 101  94 150 170 176 182 178 177 180 182 184 185 189 185 189 192 193 193 196 193 187 178 179 173 167 157 153 137 152 153 121 127 132 143 139 135 137 139 128 114 102  99 106 105 100  93  89  75  61  40  36  31  34  24  20  20  33  11  22  62  41   9  14  20  28  29  32  36  50  66  43  43
 235 234 235 236 237 236 235 236 235 236 236 242 205  97 100 131 152 184 161  77  64  65 108 164 177 178 171 167 156 178 191 189 184 185 192 195 196 195 197 200 203 195 186 163 151 155 162 141 151 140 135 141 147 148 145 139 137 137 127 106 102  98  96 103  98  88  83  69  53  43  36  32  31  15  29  19  36  23  18  38  61  27  13  19  29  35  35  42  44  45  52  78
 234 234 235 235 235 235 235 235 236 237 236 234 243 240 211 210 219 225 229 139 102  60  77 128 172 173 160 152 154 174 192 183 186 186 192 198 198 201 203 202 199 194 190 166 154 168 157 149 141 137 149 160 156 156 158 143 135 124 130 106  93  94  90  93  85  80  68  61  48  39  30  36  24  21  27  20  33  32  13  25  48  51  22  19  27  43  39  31  36  54  89 109
 234 234 235 235 235 235 235 235 235 234 235 235 235 237 239 237 237 235 244 189 149  66  69  79 139 160 158 156 161 167 182 185 188 189 192 197 202 200 197 191 184 174 186 181 168 168 163 154 146 148 147 157 158 148 155 145 116 115 111 101  87  83  85  84  77  71  61  52  45  36  37  34   6  27  25  34  26  44   8  16  22  51  39  40  39  52  33  31  37  45 104 106
 234 234 234 234 234 234 235 234 236 235 235 235 236 235 234 235 244 237 196 116  30  57  69  56  83 141 160 150 154 164 168 180 184 177 183 187 187 180 184 179 180 178 189 183 174 176 169 159 141 137 151 141 153 144 140 143 106 101 100  97  79  74  72  71  69  65  54  39  36  42  45   9  16  27  17  49  25  53  21  14   8  33  46  40  60  69  43  45  40  33 104 106
 234 234 234 234 234 234 234 235 236 235 234 235 235 236 242 243 191  82  16   9  47  56  52  82  65  95 115 121 138 150 156 169 163 173 178 169 166 175 182 166 176 182 178 170 174 180 166 166 151 145 156 130 127 139 135 119  89  97  97 101  79  64  60  57  51  45  35  28  31  40  25   5  25  17  10  56  38  49  25  18  17  12  42  31  28  56  73  70  25  36 107 103
 234 234 234 234 234 235 235 234 235 235 234 235 236 241 217 116  20   9  15  10  25  64  31 102  96  68  83  98 113 125 145 148 152 162 170 163 162 169 174 166 172 180 164 161 165 164 165 151 150 152 147 127 122 112 124  96  80  80  86  72  63  59  50  46  34  29  29  26  35  37  17   8  21   8   5  46  56  41  17  14  20  19  30  49  17  16  33  22   6  57 108 101
 234 234 234 234 234 235 235 235 234 235 234 242 252 152  32  14  11  16  15  15   7  49  42 107 142 107  75  74  89 105 129 139 143 142 159 154 157 157 165 166 147 166 158 155 150 156 150 141 143 129 132 117 119 100 110  97  65  66  72  55  52  54  45  32  28  33  31  37  39  33  11  12  13   4   2  23  54  46  16   4  11  14  11  20  13   8   9   5  18  89 106  94
 235 234 234 235 234 235 236 234 234 235 249 221 110  18   8  16  15  13  14  12   9  20  33 100 157 155 115  55  80  85 104 131 131 127 141 156 146 140 154 160 137 152 161 142 150 152 148 137 138 127 126  98 104  88 111  79  55  55  61  51  47  36  30  29  35  39  37  38  36  28  10   9   6   3   3  13  30  43  17   6  11   9   7  12  14  12  10  14  73 111 105  84
 236 234 234 234 234 235 235 233 236 241 201  70   2  16  16  15  13  11  13  13  12   5  24 100 160 157 151  92  47  53  89 103  90 112 128 133 135 143 136 145 133 138 159 128 139 145 140 122 131 130 110  79  97  83  77  50  49  50  44  34  28  23  27  22  34  37  38  37  31  18   8   6   3   2   4   9  16  24  13  11  11   9  13  15  12  13  11  14  55 100 105  88
 234 233 234 233 234 234 234 237 255 139  18  11  17  15  17  13  13  12  12  12  11  12   1  80 162 164 169 130  73  41  62  80  78  96 114  98 114 119 137 127 122 136 133 122 117 128 127 123 123 117  91  71  70  79  55  38  50  45  33  18  16  18  26  29  34  35  37  36  27  10   4   3   3   3   3   6   8   7   7   8  12  11  10   9   8  11  11  14   6  60 106 100
 233 232 234 234 234 234 239 240 151  35   9  17  16  14  17  13  13  14  14  11  10  10   0  69 160 164 164 155 129  83  58  53  65  85 101  94  93  96 121 107 111 131 121 115 107 107 124 116 113 112  74  63  45  63  43  35  40  24  13  14  16  20  27  32  33  35  37  36  26   8   2   3   3   3   4   6   6   4   6  10  10  11  12   8   8   8   8  12  11  17  80 103
 233 233 233 233 234 238 241 110   7  12  18  16  14  15  14  14  12  12  11  11   9  10   4  66 155 160 162 164 143 121  92  66  53  54  76  80  74  90  93  88  99 110 105  98  87  98 121  94  86  95  63  52  39  51  33  28  25  18  15  17  22  26  28  31  34  34  36  34  25   7   2   3   3   6   6   8   8   6   9  10  10  13  10  10   9   9  12  13  11   8  27  88
 233 233 233 233 237 242 116   9  16  17  18  15  14  15  10  13  12  11   9  10   7  13   4  56 146 157 155 153 137 126 121  98  67  73  50  55  71  63  67  63  82  81  72  76  68  87  98  69  61  57  57  33  34  43  27  18  17  21  19  19  23  28  31  31  31  33  33  32  22   5   2   4   6   7   6   7   6   7  10  11  12  10   9  13  12  12  12  12  10  10   9  32
 233 233 233 234 253 159   9  16  15  16  17  14  15  12  11  13  12  10  10   8   9   8   1  40 143 151 159 161 150 147 141 124 127 103  60  73  64  46  48  73  57  39  41  66  65  73  63  56  52  54  44  23  34  31  18  18  17  18  20  21  22  27  29  30  30  32  32  29  17   5   4   4   7   9   6   7   8  10  10   9  10  11  12  13  10  11  11  11  12  12  11  10
 233 233 232 248 178  30  12  16  13  15  14  15  12  11  13  12   9  10   8   9   9   8   1  29 140 155 165 171 168 159 159 155 157 149 140 111  85  78  62  55  27  35  37  40  37  50  43  38  29  33  30  26  30  21  17  19  20  19  22  23  25  28  28  28  29  32  31  26  10   5   7   5   7  10   7   7   9   8   8  10  10   8  12  12   9  10  13  11  12  12  12  10
 233 232 247 201  30   8  16  14  14  14  12  14  11  13  12  10   9   8   8   9   8   7   2  34 133 156 166 168 177 179 172 166 163 158 173 158 151 138 103  69  49  38  32  30  26  39  22  22  20  24  20  20  21  21  18  20  21  21  22  24  27  29  29  30  32  34  31  18   5   5   6   6   7   8   8   8   7   4   6   9   6   6   9   9  10  10  10   8  10  11   8  10
 231 242 222  60  10  17  14  16  15  15  12  12  10  13   9   8   9   9  10   9  10   5   9  39 126 153 165 168 176 181 182 173 165 166 167 178 179 166 157 139 101  79  63  49  35  27  26  25  23  21  22  22  22  22  22  23  23  25  26  27  28  30  30  34  37  38  26   8   3   5   8   8   7   8   9  11   7   6   8   7   6   8   9   8   9   9   6   9  12  13  10  11
 239 233  78   3  18  15  15  14  13  13  13  12  12  12  10   7  11  10   7   9   7   7  14  26 119 156 165 175 178 180 184 172 162 166 164 172 177 176 170 166 146 122 104  82  63  50  45  39  34  30  29  28  27  25  25  27  29  33  33  31  33  38  38  41  46  36  14   4   6   7   8   7   7   7   8   9   6   8   9   6   9  12  10   8   9   8   7   9  11  11   7   9
 238 108   7  15  14  15  13  12  12  10  12  12  12  10  12   9   8   9   6   9   5   6  21  24 112 155 163 173 181 182 186 178 163 164 167 169 176 182 184 178 165 151 134 116  95  81  74  65  54  49  45  40  36  37  40  42  44  45  47  48  50  51  50  55  50  25   6   6   6   6   6   7   9   7   6   7   6   9  10   6   6   9   8   7   8   5  10   9  11   9   8   9
