P2
# Generated by OpenCV 4.2.0
92 112
255
 229 229 229 229 229 229 229 231 219 152 126 159 188 202 213 228 232 231 232 233 232 233 233 232 236 235 236 235 236 236 236 236 238 238 238 237 239 239 239 240 242 241 241 241 241 234 246 240 236 239 237 240 241 241 238 238 239 238 238 239 239 237 238 238 238 238 237 236 235 235 235 235 236 237 236 235 234 234 234 234 234 234 233 233 233 233 233 232 232 232 232 232
 229 228 229 229 230 231 230 231 197 132 141 174 194 203 218 231 232 232 232 233 233 233 234 235 235 234 236 236 236 236 237 236 237 239 240 239 239 240 241 243 241 241 241 242 231 194 170 190 235 242 241 241 241 240 240 241 240 239 239 239 239 240 238 239 239 238 238 238 236 236 237 235 236 236 235 236 236 234 234 234 234 234 233 233 233 233 233 232 232 232 232 232
 229 230 229 229 230 230 231 228 168 125 158 185 199 208 226 233 232 234 235 235 236 235 235 236 236 238 237 238 238 239 239 239 240 238 239 240 241 246 245 238 241 246 251 244 215 162 139 183 241 243 243 244 242 243 243 242 241 241 242 240 241 240 239 238 238 239 239 239 238 237 236 237 235 235 235 234 235 235 235 234 234 234 233 233 233 233 233 233 232 232 232 232
 230 230 230 230 231 231 234 213 140 134 168 189 201 214 231 235 233 236 236 235 235 235 236 236 237 237 238 239 239 240 241 241 242 239 238 240 251 210 151 154 209 239 193 181 211 156 158 202 216 216 221 220 225 236 242 246 249 247 247 246 243 242 241 241 240 239 240 239 238 238 237 237 237 236 237 235 236 235 234 234 234 234 233 233 233 233 233 233 233 233 233 233
 230 229 229 230 231 232 231 182 123 148 178 195 204 224 234 234 234 235 235 235 235 235 236 237 235 237 239 240 244 244 242 241 236 244 239 240 182 122 114 147 168 161 128 114 174 156 155 198 209 216 232 232 220 226 237 228 220 222 226 235 250 248 247 244 243 243 240 239 239 238 238 239 237 237 237 235 235 235 235 234 234 234 234 234 234 234 234 233 233 233 233 233
 230 231 230 230 232 233 221 147 127 162 186 199 210 230 234 235 235 236 236 236 236 236 237 238 234 239 239 246 220 161 135 127 138 165 193 199 128 140 151 152 131 118 116  96 113 140 147 166 187 186 193 217 227 199 165 153 177 180 189 184 182 212 206 196 205 230 247 241 240 240 239 239 238 238 238 236 236 235 235 235 235 235 234 233 234 234 233 234 233 233 233 233
 230 231 231 232 232 234 199 128 140 173 192 202 219 233 234 234 235 236 238 237 236 238 239 239 238 241 242 244 162 113  82  93 120 119 118 127 135 132 134 111  87  84  80  96 105 108 115 123 133 149 149 158 156 140 155 158 145 123 125 134 116 119 154 179 192 195 222 247 243 241 240 239 238 237 238 237 236 235 235 235 235 235 234 233 234 234 233 234 233 233 233 233
 230 230 230 231 233 227 167 124 156 182 196 207 228 235 235 235 235 236 238 238 238 240 241 242 242 243 252 205 131 106  92  98  96 104 113 115 106 107  62  69  49  57  94 116 105  91  96  92  84 100 125 134 142 144 151 156 142 110 105 104  90  99 125 135 140 157 165 202 248 243 241 240 240 239 238 238 237 236 236 235 235 235 236 235 235 235 234 234 233 233 233 233
 230 230 231 231 232 210 137 133 168 189 200 215 234 236 235 235 236 237 237 240 240 240 240 234 231 229 226 162 131 107  98 101 101 105 115  96 100  93  91  86  78  59  61  97 132 109  70  78  86  77  83 120 129 133 126 127 156 150 161 125  81  76 115 121 120 108 108 125 197 250 243 241 242 240 238 238 239 237 236 236 237 235 235 235 235 234 234 234 233 233 232 233
 230 232 232 233 233 183 123 147 177 195 206 224 236 235 235 235 237 238 238 239 240 239 238 183 139 111 108 112  90  91 106 115  93  88  95 116 127  95  66  86  95 109  78  71  99 123  99  74  77  98  79  80 107 117 122 103 122 149 154 152 117  79 112 121 129 131 101  88 109 206 249 242 241 240 239 239 238 239 236 234 235 235 236 235 235 234 235 235 234 232 233 233
 230 232 232 234 223 151 126 162 184 196 212 232 235 235 236 236 237 238 239 240 241 245 205 153 118  85  71  40  41  87 127  84  64  70  76  66 110 137  91  70  65 106 112  89  78 111 117  77  52  90  99  99  93 107 114 109  97 110 122 130 137 134 124 121 127 131 122  82  67 121 203 250 243 241 240 240 239 238 238 237 236 236 236 235 235 234 235 234 234 233 233 233
 230 231 232 234 200 128 139 171 191 202 220 234 235 236 236 237 239 240 241 241 242 244 191 189 139 110  89  59  81 104 103  71  33  41 101  86  75 122 117  97  54 109 106  80  57  87 119  81  99 104  78  64  62  87 109 110 108 105  97  95  93 114 128 107 119 130 102  91  90  82 119 213 249 243 242 242 239 239 238 238 237 237 236 235 235 235 235 234 234 234 233 233
 229 230 234 229 167 121 155 180 198 209 229 235 236 236 238 239 240 241 241 241 243 249 173 132 131 114  99  96 130 107  58  70  80  43  85 157 143 140  97 105  78 121  68  74  63 109  91  73 108 119  82  66  64  84 105  93  98 106 109 103  92  82 103 118 113 126 113  90  98  82  84 133 210 250 244 242 240 238 238 238 238 237 236 236 235 235 235 234 234 233 233 234
 229 230 234 213 137 130 167 190 202 217 233 236 237 236 238 239 241 242 242 242 250 201 112 131 134  95 105 139 127  84  91 103 113 116  96 108 133 156 151 138 133  95  47  93 125 114  46  63 115 106  58  64  96  93  90  73  70  86  90  96 108 103  77 109 140 156 144 123 102  79  71 111 134 211 248 243 241 240 239 239 238 237 237 236 236 235 235 234 234 234 233 233
 230 231 232 184 120 145 176 195 206 225 236 236 237 238 239 240 242 243 242 249 226 150 120 134 126 111 142 142 102  70 109 138 134 132 109  76  92  99  98 132 166 122 104 119 105  58  56  97  90  96 103  96  93  81  72  64  63  77  83  85 107 111 112  71  85  98 123 131 125 113  77 100 117 139 222 247 241 241 240 239 238 237 237 237 236 235 235 234 234 235 233 233
 233 233 222 151 122 158 184 198 213 232 237 236 238 239 240 241 241 242 251 238 160 111 122 117 108 145 146 129 102  90 127 141 137 139 140 121 117 124 127  90 103 131 121 104  72  70  92  88  99 119  88 101 119 114 100  81  68  68  69  59  77 111 124  97  65  48  43  74  93 108 114  93 102 127 161 237 245 242 241 239 237 237 237 237 235 235 235 236 235 233 234 234
 233 234 201 128 138 170 191 204 223 236 236 237 239 239 238 241 241 250 225 121  90 120 139 126 127 128 140 116  92 126 141 149 148 140 141 126 115 112 112 101  77  86  80  79  81  72  77  81  94  71  69  95 119 125 130 111  95  85  71  66  60  90 121 125 119 110  89  73  65  65  93 110  93 103 123 181 247 243 241 240 239 237 237 237 235 236 236 236 235 234 234 234
 235 229 166 120 153 180 198 210 230 237 238 238 239 242 242 241 250 225 108  87 117 152 146 141  98 118 124 104 134 146 146 144 139 140 136 123 102  86  93  89  52  52  65  58  65  66  67  65  49  64  85  82 107 108  95  99 111 119 104  96  89  85 126 121 113 109 122 106  77  60  40  92 100 119 107 129 211 251 244 242 239 239 238 237 237 236 236 235 235 234 234 234
 239 212 135 128 163 187 201 218 235 237 238 239 240 242 241 249 239 143  95 130 155 145 155 111  84 110 107 114 144 147 134 128 134 136 141 128 131 139 111  80  64  72  88  49  53  69  75  80  89 100 100 108 100 108 105  87  84 100 113 127 142 110 119 117 128 107 111 126 116  90  49  52 112 129 129 100 144 234 245 240 241 239 239 238 237 237 236 236 235 235 235 235
 236 185 120 141 172 195 206 226 236 236 238 240 242 241 246 229 158 102 118 165 136 138 125  81  98 116  97 104 116 122 120 116 115 131 136 142 155 121 127 121  82 112 140 130  77  81  83  82 103 117 109 120 123 112 119 115  89  86  89 115 136 148 126 114 127 134 113 116 137 139 110  61  96 133 115  94  89 200 250 243 241 241 240 238 238 236 237 236 235 235 235 235
 223 153 122 156 182 200 214 233 236 236 239 240 241 242 245 158 126 109 152 141 114 124 123 107  91 110 118 112 108 111 105 108 115 116 134 159 102  99 136 128 109 116 134 145 117  94 108 125 134 141 123 122 138 132 123 133 129 124 121 121 126 154 131 109 123 131 135 125 114 120 143 137 126 141 128  90  75 166 251 244 242 241 240 238 238 237 237 237 235 235 235 235
 193 128 135 168 191 205 222 235 236 239 239 240 240 250 200 115 133 142 147 104  98 128 119  93  79 110 121 110 102  95 103 104 102 112 138 121  89 123 134 116 121 117 114 134 130 117  98 112 123 132 137 129 125 133 122 115 125 129 131 136 141 149 129 126 146 132 135 149 137 117 128 142 145 148 131 105  86 144 244 246 242 241 240 240 239 238 237 237 236 235 235 235
 153 122 150 178 198 210 230 237 236 238 239 240 245 240 145 115 133 155 109  64  82 121 105  89  93 109 110  89 104 112 104 106 114 122 127 111 100 117 112 100 107 112 126 124 130 122 111 107 110  95 112 139 126 106 113 118 115 122 137 131 142 141 126 149 146 143 136 128 125 124 132 131  95  95 119 120  99 147 243 248 243 242 241 240 239 238 237 237 237 235 235 235
 123 131 162 187 202 218 236 237 236 238 239 241 248 187 114 122 127 122  68  60  97 120  91 100 116 117 117  94  82 102 102 124 123 125 128 141 121 114  95  90 117 123 109 127 114 121 118 103 108 122 108 113 132 137 135 128 132 135 140 138 136 125 137 148 138 121 126 142 132 116 104 120 119  79  73  83 104 147 236 245 244 242 241 241 239 238 238 238 237 236 235 235
 119 143 173 195 207 227 237 237 236 238 239 243 236 135 116 125 113  90  58  63 109 118  74 109 119 124 107  98  73  66  84 102 154 147 132 162 143 127 110  98 111 144 157 120 116 117 108 108 104 108 118 119 121 134 137 127 124 119 114 116 118 119 127 122 119 116 108 105 110 110  99  94 131 111  94  71  57 121 227 246 244 242 241 241 241 239 239 239 237 235 235 235
 126 153 183 200 214 233 237 237 238 239 241 247 218 104 119 116 101  80  56  75 107 108  78  95 108  83  69  64  99  91  42 116 178 173 140 164 158 129 114  97  85  97 133 154 129 123 123 106 103 104 100 102 110 123 127 128 113 108 107 109 108 112 104 111 112 109 108  96  90  84  83  93 122 110 106 101  73  57 188 249 246 243 242 241 240 238 239 238 237 236 235 235
 137 165 192 204 222 236 237 237 238 239 240 249 207 102 113 108  98  68  51  75 111 105  77  79  73  40  51  51  35  35  66 135 173 190 163 145 171 144 131 101  88  94 106 133 162 125 112 116 107 106 106 102 100 103 102 110 109 103  93  87 117 116 115 120 120 124 112  84  90  85  68  69  95 103  93 103 112  45  96 222 247 245 243 241 240 240 239 238 236 236 236 236
 150 177 198 209 230 237 236 237 238 239 240 251 192  98  98  97  96  72  64  83 108  99  61  54  31  31  64 101 103 102 134 162 178 196 192 159 160 156 137 118  78  67  91 118 134 164 109 107 101 104 110 104  92  94  95  93  87  77  71  80 126 155 150 142 139 147 135 100  69  75  62  60  69  93  93  80 111  89  72 144 232 247 242 241 240 240 239 238 238 237 236 235
 161 184 201 216 234 237 237 238 239 239 240 251 162  89  96  69  76  75  79  90 104  93  49  35  37  90 123 160 173 172 188 195 198 202 203 195 172 150 141 130 102  76  62  81 111 156 153 123 109  74  99  92  73  62  53  47  52  68  79  97 111 135 180 175 161 150 151 142  94  60  56  58  64  74  92  72  81  99  70  96 167 244 245 242 241 241 239 238 237 237 236 236
 172 192 205 226 236 236 237 239 240 240 242 238 113  87  96  72  65  58  53  72  87  81  67  68 120 160 173 185 191 196 200 206 206 207 207 205 199 180 154 138 112  93  79  69  68 103 146 142 133 120 104  92  87  95  85  85  80  90 101 105 128 139 158 192 193 182 168 152 131  78  67  58  68  79  87  86  74  78  77 101 111 205 248 244 241 241 239 237 238 237 235 235
 183 197 213 233 237 236 237 239 238 240 250 191  73  93  88  80  67  46  42  55  70  92 112 132 167 177 185 192 200 200 204 209 209 208 208 199 196 193 177 165 146 120 114 102  80  73  91 121 136 143 131 129 113 107 101  92 110 120 128 132 142 149 148 147 162 158 133 123 126  84  47  55  71  76  70  60  72  78  84 109  95 147 240 245 242 239 239 238 237 237 236 235
 192 201 221 234 236 236 237 239 239 240 249 181  87 110  82  65  59  53  37  45  62 102 146 168 179 188 193 200 204 205 205 207 208 208 205 198 195 193 186 179 169 153 136 128 122 103  74  74  99 116 133 141 156 146 139 124 118 113 113 110 116 112 123 127 125 124 122 103 104  97  42  37  87  67  46  42  48  60  77  98 107 111 215 246 242 240 240 238 237 238 237 235
 196 207 227 235 235 236 238 238 239 240 247 183 109 116  91  71  52  42  55  64  84 129 159 181 191 197 199 201 203 203 206 205 205 206 204 200 197 192 189 185 181 170 154 141 134 129  95  68  76  79  96 115 133 154 149 142 136 124 123 113 113 125 115 123 127 111 112 109  83  86  64  54  71  37  22  27  40  50  64  85 107 109 191 242 243 241 240 239 237 237 237 236
 200 215 233 235 235 237 237 238 239 240 243 150 116 115 107 102  90  89 100  94 116 146 166 186 194 202 201 201 200 204 207 207 205 205 205 204 201 193 189 185 191 183 175 161 146 150 121  85  74  95  91  86  96 110 131 136 133 121 121 114 111  96  82  73  87  96  87 102  98  92  79  63  48  26  16  19  26  39  51  66  77 102 191 240 243 243 241 239 238 237 237 236
 205 224 234 235 235 236 238 239 239 245 224 128 125 114 102 104 101  83  95 110 133 156 176 190 197 203 202 200 201 203 206 207 204 205 206 208 203 198 190 182 180 177 179 176 160 149 141 110  78  86 115 104  89  82  85  99 109 105 108  90  73  66  61  67  69  68  68  77 104 109  97  58  47  30  33  22  20  26  46  49  50  74 185 250 242 242 241 239 238 238 237 236
 213 229 234 235 236 236 238 239 239 247 205 116 120 121 111  85  75  71 101 116 143 167 180 191 202 205 203 200 202 204 206 206 207 205 203 206 204 203 202 198 191 174 172 181 173 158 146 139 107  74 103 100  82  61  62  74  81  87  86  82  73  74  60  59  64  62  50  66  77  85 100  68  59  43  42  48  39  33  32  45  53  56 149 245 244 241 239 240 239 237 238 238
 224 233 235 235 236 237 239 239 240 249 195 113 113 129 129  93  85  77  97 120 143 169 182 189 201 203 203 203 202 204 205 206 207 206 205 206 208 207 208 209 208 198 185 185 188 181 162 153 145 104  72  63  62  83 103  95  78  71  69  69  64  62  61  59  59  48  46  47  58  69  91  86  74  64  47  40  48  70  65  61  60  54 124 231 243 242 241 240 238 238 237 236
 231 235 235 236 237 238 238 238 240 250 179 108 115 126 116  92  81  78  93 118 154 179 186 187 197 199 200 201 199 203 207 207 204 206 206 207 208 207 207 205 205 203 199 194 189 188 178 158 150 142 121 110 123 126 120 115  99  75  73  66  61  61  58  59  55  56  59  45  51  82  91  97  91  73  54  46  37  45  63  83  86  68 116 239 246 242 242 241 239 237 237 236
 234 234 235 236 237 237 238 238 239 247 175 104 115 114  90  86  76  65  86 123 162 181 188 188 194 198 202 201 201 205 208 207 205 206 208 209 208 207 207 206 203 201 203 200 195 191 186 172 158 148 146 145 140 134 130 126 117 103  81  79  72  61  69  65  61  59  55  54  58  73  86 100 103  80  69  75  55  32  38  57  73  62 167 247 244 243 241 240 239 238 237 236
 233 234 234 236 236 236 238 238 240 246 171 100 107 112  81  64  63  59  91 135 163 178 189 189 193 198 202 202 203 207 207 207 208 209 210 209 207 208 209 209 209 209 208 203 203 200 194 189 179 171 169 168 160 149 143 136 128 121 106  90  87  82  73  76  64  53  52  55  69  77  87  92 100  89  78  63  56  45  47  47  57  84 230 245 243 242 241 239 239 238 238 236
 234 235 235 235 236 237 238 238 241 248 160  94 104 105  72  57  53  63 105 143 165 180 190 189 194 198 200 201 199 201 203 201 206 208 208 207 208 209 206 206 207 207 207 204 203 205 202 200 198 195 193 189 182 176 166 152 139 129 124 117  95  93  83  81  84  72  72  67  74  82  95 101 103 120  86  57  57  57  65  61  42  58 218 248 245 243 241 240 239 238 237 236
 234 234 235 235 236 237 238 237 241 249 170  87  96  99  61  52  48  68 116 146 168 183 188 189 197 200 199 198 197 197 200 201 199 199 203 205 209 208 209 208 207 207 203 205 205 205 203 200 199 197 200 197 193 191 188 180 166 150 144 137 120 111 105  97  98 100 109 109  99  87  88 102 106 132 109  50  43  54  67  83  58  14 160 254 244 243 241 239 238 237 237 236
 233 235 235 236 237 237 239 239 241 248 200  91  73  88  51  43  46  77 120 152 171 179 185 187 195 199 197 194 195 198 200 197 195 193 200 204 205 206 207 206 206 204 205 207 204 205 204 203 202 200 201 199 197 194 191 190 186 178 172 159 146 138 133 124 119 119 123 129 128 111 100 108 108 119 122  59  37  41  54  76  90  19 102 252 243 243 242 241 238 238 239 237
 234 235 235 236 237 239 240 240 240 246 230 113  70  67  42  47  50  83 123 153 169 179 183 185 189 192 193 193 191 195 196 193 193 194 199 205 203 201 202 205 203 201 201 200 204 204 204 203 202 202 201 198 199 199 197 195 193 189 185 178 169 162 157 155 148 146 141 142 141 127 118 122 108 103 121  98  39  43  41  62  89  40  82 243 246 242 242 240 238 238 239 237
 234 235 236 237 236 237 239 239 240 241 248 152  81  56  44  49  55  82 127 156 171 178 185 183 187 184 191 190 187 190 194 193 192 195 197 201 200 200 201 202 202 200 196 194 201 204 201 200 202 202 199 200 199 200 200 196 193 190 188 186 180 175 175 176 175 172 169 162 154 138 126 125 112  99 104 111  77  44  41  51  85  89 134 235 245 242 241 239 238 237 237 237
 233 234 236 236 236 238 238 240 242 240 241 201 101  44  48  49  54  84 137 163 172 174 182 184 190 191 194 188 184 190 195 194 196 196 199 197 197 198 201 200 198 194 194 198 200 201 202 202 203 200 200 201 199 200 198 197 193 192 191 188 183 183 181 183 184 182 180 172 162 145 129 115 109  97 103  93  99  64  39  33  82 200 232 241 244 242 241 239 238 237 236 237
 233 235 236 236 237 238 237 240 240 241 242 243 133  39  49  49  56  95 141 164 172 173 178 181 187 192 192 193 193 192 197 201 199 195 199 202 201 202 203 202 200 199 197 199 201 201 205 205 202 202 202 202 201 200 197 199 196 194 191 191 188 188 186 190 186 190 187 174 171 154 133 110  98  91  89  81  90  88  55  37  86 223 249 244 242 243 241 240 238 238 238 236
 233 234 236 236 235 237 238 240 239 239 241 244 145  49  54  50  64 101 144 160 168 170 174 177 183 191 194 196 196 197 200 204 209 203 203 206 208 208 206 205 204 201 202 202 201 204 206 204 202 204 203 201 203 204 203 202 198 198 194 192 193 194 190 191 189 189 187 178 174 156 132 113  94  90  78  71  78  85  55  40  72 200 247 244 241 241 242 240 238 237 238 236
 233 234 236 237 236 237 238 238 240 242 231 205 139  71  64  51  71 109 146 157 162 168 172 172 174 186 194 195 195 197 202 207 214 216 213 213 211 212 211 209 206 206 206 202 204 204 203 205 203 205 206 204 207 207 207 206 201 202 203 198 196 193 189 191 192 190 183 177 175 158 135 109  88  85  77  66  74  81  63  31  83 202 236 242 242 242 241 239 239 238 237 236
 233 234 236 236 236 237 238 239 240 244 219 170 168  97  67  53  72 113 149 156 162 168 171 173 178 187 193 191 198 201 205 207 211 213 212 213 214 216 215 213 208 207 206 203 207 207 202 205 205 207 209 210 211 212 212 211 211 208 206 205 199 194 193 192 191 186 175 173 174 165 144 103  71  77  78  63  67  74  78  38 116 229 238 239 241 241 241 240 240 238 237 236
 233 234 235 236 236 237 238 239 239 241 235 140 142 124  80  57  66 112 149 157 164 168 174 188 191 191 196 196 199 203 199 203 208 212 211 211 213 214 215 213 209 208 205 205 206 205 206 205 206 209 211 213 214 214 214 213 215 209 203 204 198 195 192 189 186 181 169 169 174 174 149 100  62  67  81  64  66  75  72  61 139 239 233 237 239 240 238 239 238 238 237 236
 234 234 235 236 236 237 238 238 238 239 247 151  98 119  88  57  67 114 147 154 162 175 189 199 205 204 207 207 207 205 201 206 206 209 208 209 210 212 213 211 209 210 206 206 207 207 207 205 206 209 209 211 214 213 213 211 212 209 206 204 200 196 195 194 187 178 168 166 167 166 143  98  52  64  71  59  61  89  79  75 166 235 233 235 238 239 239 239 238 238 237 236
 234 234 235 236 236 237 238 238 238 239 245 173  98 103  84  68  72 114 147 154 164 177 189 199 201 201 198 200 196 193 195 204 203 204 208 208 210 208 209 208 207 206 204 205 205 202 205 202 203 205 207 209 209 210 209 208 207 206 204 203 199 196 196 191 185 180 171 167 159 159 143  98  45  67  68  35  48  79  84  77 197 235 232 234 237 239 238 239 238 237 236 235
 234 234 235 236 236 237 238 238 239 238 242 181 106  94  79  74  82 119 149 154 166 173 171 168 167 170 169 163 164 168 167 170 185 195 198 202 208 209 204 206 206 202 201 200 201 200 201 200 204 204 205 207 204 205 206 207 206 202 199 201 197 195 198 193 189 184 173 169 162 156 141  98  54  72  68  38  41  74  76  84 213 232 231 234 236 239 239 239 237 237 236 235
 234 234 235 235 236 237 238 238 238 237 241 187 123 109  82  79  88 121 151 156 164 166 158 139 135 131 137 133 123 121 124 135 145 157 163 174 183 197 198 201 201 199 197 199 200 199 197 199 199 200 201 203 201 200 206 206 205 204 202 202 201 201 203 205 202 193 184 173 165 150 141 100  63  57  68  51  39  63  63 106 218 230 230 235 236 238 238 238 237 236 235 235
 234 235 235 235 235 236 238 238 237 237 239 195 137 138 107  87  88 121 156 163 162 161 157 140 129 120 119 115 106 101  87  88 102 109 122 137 149 172 183 186 192 193 192 193 196 196 196 194 195 197 198 199 193 191 196 197 194 190 187 183 185 188 187 194 208 206 195 182 167 152 142 102  53  47  59  58  43  52  64 120 224 230 229 233 235 238 238 238 237 236 235 235
 234 234 234 235 236 237 237 239 237 236 238 200 149 140 123  93  91 127 161 166 162 159 157 141 126 114 111 109 103 104  98  83  80  79  86 107 128 139 157 169 178 182 184 187 187 189 191 189 188 186 187 183 174 170 162 153 149 152 148 143 144 154 159 167 179 186 186 181 171 156 144 106  57  59  60  55  44  62  86 134 228 228 229 233 235 238 238 238 237 237 236 236
 234 234 234 235 236 237 237 237 236 235 235 218 149 121 106  96 101 130 162 165 166 169 154 121 110 112 111 108 106 109 106 102  99  91  89  96 111 121 139 152 160 163 172 175 174 175 176 175 175 175 170 160 154 135 117 108 104 101 100 104 102 105 124 132 131 145 165 174 168 155 147 110  66  72  66  64  53  83  95 153 233 226 229 231 235 237 238 238 237 236 236 236
 233 234 234 235 236 237 237 238 236 235 232 233 163 117 108  97 109 136 164 168 168 172 153 130 110 102 109 112 112 112 108 101 100 103 104 101 101 109 121 131 138 146 151 155 160 162 163 160 157 155 151 142 126 110  91  83  77  78  82  90  94 102 112 121 126 139 159 169 162 153 148 112  74  76  76  65  64 117 115 174 233 227 229 232 235 238 238 237 237 236 235 235
 233 234 234 235 236 236 237 239 236 235 232 235 179 143 119  97 109 137 167 173 171 163 139 125 102 112 119 109  99  87  90  84  82  79  93 104 104 100 102 110 121 128 136 144 154 158 154 149 139 136 129 117 105  98  96  97  99 105 115 121 127 130 128 127 132 145 158 167 165 157 152 115  86  80  77  69  92 142 119 187 232 227 229 232 236 238 238 237 236 236 235 235
 232 233 234 235 235 235 237 237 236 236 231 235 191 159 125  92 112 142 167 178 176 162 139 117 108  96  96 119  84  57  45  42  53  64  70  80 102 107  99  93  99 113 124 141 157 161 148 131 121 112 103  99  98 102 103  97  99 106 116 125 123 122 129 140 139 135 154 170 166 165 158 114  91  91  69  70 113 148 132 209 230 227 230 232 236 237 238 238 236 236 235 235
 232 233 234 235 235 236 237 237 236 235 232 235 200 158 127  91 108 144 169 178 178 172 163 143 135 132 138 156  88  65  60  61  61  98  90  68  80  95  94  91  88  97 125 158 177 179 158 127 102  94  96 100 101  89  77  74  70  78  88  98 111 107 106 105 130 146 161 172 169 169 159 116  98  95  77  84 128 154 165 226 227 226 229 232 235 238 238 237 237 236 235 235
 233 233 234 234 235 236 237 237 237 235 233 234 207 167 133  89 100 143 174 183 185 183 177 165 159 166 167 169 139  71  75  74  94 153 121  78  71  78  97 100  94  97 130 172 199 198 173 125  90  91  92  92  86  75  80  79  50  42  39  59  73 102 106 111 108 147 164 168 170 169 157 118 103  95  87 103 135 158 194 232 225 225 228 231 234 237 238 237 236 236 235 235
 233 233 234 235 235 235 235 236 237 235 233 233 212 166 165 105  89 143 178 187 188 192 188 179 166 157 159 159 171 148 120 126 153 146 127 112 103 106 136 134 111 116 146 188 214 213 187 129  98 107 110  91  83  78 112 131  71  67  66  63  79 139  89  87 112 124 157 170 169 170 159 119 105  99 108 123 149 166 217 228 225 225 226 230 234 235 237 237 236 236 235 235
 233 233 234 235 235 235 235 236 236 235 233 233 218 155 176 140  88 138 182 186 193 199 196 187 178 162 142 138 142 153 156 160 146 145 137 134 146 155 151 137 130 144 170 205 220 219 198 148 122 134 144 118 104 103 121 149 112  87  83  73 136 156 142 131 128 144 165 174 173 173 161 123 107 106 150 144 160 190 230 226 225 225 227 231 234 237 237 236 236 236 236 235
 233 233 233 233 234 235 236 236 236 236 235 234 225 180 170 151  88 121 182 187 193 205 204 197 188 173 154 136 124 124 127 130 135 134 137 153 165 172 175 163 160 160 180 212 221 221 207 171 154 152 160 158 146 132 133 147 159 156 142 150 170 159 158 165 171 178 182 182 178 174 159 126 109 119 151 146 167 207 230 225 225 226 230 234 235 236 236 236 236 236 236 235
 233 233 234 234 234 235 236 236 238 236 234 233 228 195 164 155 112 112 179 186 194 204 206 202 194 177 163 155 143 137 136 140 147 152 163 173 179 191 188 183 174 171 188 214 224 220 211 184 171 175 181 173 162 145 133 147 152 158 166 152 147 148 151 164 186 191 191 190 184 175 158 125 112 127 132 158 179 215 228 224 225 228 232 235 237 237 237 235 235 235 235 235
 233 233 234 234 235 235 235 235 235 235 234 233 230 187 160 152 138 110 172 180 189 200 208 211 206 195 187 176 169 166 165 167 169 172 174 181 197 201 195 188 175 174 191 213 221 219 210 189 178 184 189 189 177 172 151 136 131 129 132 135 136 142 155 173 184 191 197 193 185 179 160 121 112 135 166 175 172 222 224 225 226 228 231 235 237 237 237 235 235 235 235 235
 234 233 233 235 236 235 235 236 235 235 234 232 230 178 155 147 121 109 167 175 182 195 204 216 218 216 210 201 191 184 177 175 169 173 184 190 195 195 191 185 183 183 192 214 222 219 212 193 180 185 198 204 197 186 180 169 155 143 136 135 141 157 178 186 186 199 203 192 184 180 158 117 113 162 182 147 181 229 225 225 226 229 232 236 237 236 236 236 235 235 235 235
 233 233 234 235 235 236 236 237 236 234 231 229 231 182 158 162 146 119 159 171 174 183 197 208 214 217 217 213 208 200 194 186 187 187 193 195 191 185 183 186 186 186 194 211 221 221 212 193 181 184 197 201 204 198 188 182 175 170 170 166 169 174 180 186 199 208 205 192 184 182 154 119 136 167 175 161 206 229 224 224 226 230 233 236 237 236 236 236 235 235 235 235
 232 232 232 235 235 236 235 236 236 235 232 229 232 198 159 172 167 137 149 167 167 175 188 198 206 211 213 213 217 216 212 206 202 200 198 193 189 188 185 187 186 192 200 212 222 222 211 192 183 187 193 195 202 203 199 194 187 185 186 193 196 202 205 207 213 211 201 191 182 180 148 145 178 174 178 189 221 227 225 226 227 230 233 237 237 236 236 236 235 235 235 235
 232 232 232 235 235 236 235 235 236 236 233 229 228 222 157 158 169 150 149 162 161 174 183 191 199 206 210 211 212 215 215 212 205 202 198 198 194 189 187 191 195 197 207 215 221 221 212 196 187 190 191 192 199 205 205 207 205 204 209 212 214 216 220 220 217 209 197 188 178 178 140 150 174 170 177 200 228 225 226 227 229 232 236 238 238 237 237 236 236 235 235 235
 233 233 234 234 234 235 235 236 236 235 234 231 227 230 203 139 140 145 151 158 160 176 194 196 196 206 211 213 211 213 215 212 208 206 201 195 195 189 189 191 194 203 213 219 222 221 215 203 192 191 192 191 199 203 208 213 213 216 220 220 219 220 220 217 212 208 197 182 172 174 146 154 164 172 178 204 229 225 225 227 229 232 236 238 238 238 236 236 237 236 235 235
 233 233 234 234 234 235 236 236 236 235 234 231 227 225 230 209 163 138 152 159 155 170 186 191 197 201 206 210 210 211 213 210 206 209 205 197 192 184 182 187 192 207 215 221 222 222 216 207 194 188 186 189 199 204 207 211 213 216 214 210 212 221 217 211 208 203 191 175 172 170 163 176 176 182 177 209 229 225 225 227 230 233 236 238 238 238 236 236 237 237 235 235
 232 232 233 234 235 235 235 235 236 235 234 231 227 225 224 230 233 216 167 156 150 166 176 185 189 195 198 201 207 209 208 210 206 206 202 194 184 179 189 190 199 211 218 221 220 220 217 208 195 187 185 185 198 204 208 208 210 210 210 209 212 217 213 211 205 197 184 172 168 166 171 184 182 176 177 224 226 224 225 226 230 234 236 238 238 237 237 236 236 236 236 236
 232 234 233 234 235 235 235 236 236 235 233 231 227 226 224 225 227 231 180 160 149 158 160 171 178 182 189 193 199 203 202 206 198 196 188 181 179 197 211 198 201 209 213 218 219 219 218 208 197 194 196 182 192 198 201 207 209 202 205 209 208 209 209 206 203 195 182 169 169 165 172 178 168 149 195 232 225 226 226 227 231 235 238 238 238 238 238 237 237 236 236 235
 233 234 234 234 235 235 235 236 237 236 233 231 229 226 225 226 227 229 192 160 147 153 154 162 169 172 178 185 190 193 195 196 189 183 181 178 181 206 210 198 199 201 206 214 217 218 212 202 194 201 208 192 182 188 197 203 203 200 206 206 204 204 203 196 195 191 180 169 172 158 152 150 148 182 229 228 226 226 226 228 232 235 238 238 238 239 238 237 236 236 236 236
 233 234 234 235 235 235 235 235 236 235 236 232 229 226 226 226 227 229 191 159 146 150 151 154 161 166 170 175 179 180 183 181 178 177 183 181 184 200 199 187 186 191 197 201 201 206 202 193 184 195 208 194 178 182 187 191 196 199 197 199 198 196 193 189 183 178 173 169 173 157 182 201 220 233 229 225 226 224 226 228 233 236 238 239 239 238 238 238 238 237 237 236
 233 235 235 235 235 235 235 237 238 237 237 234 230 227 226 226 226 228 189 162 148 144 144 144 148 154 158 164 164 167 162 162 165 176 189 185 166 168 162 157 154 161 171 172 180 184 178 166 162 179 191 185 182 191 187 186 190 194 193 192 187 186 183 177 172 172 170 170 168 174 233 236 231 228 228 227 226 226 228 230 233 237 239 239 239 238 238 238 238 237 238 237
 234 234 234 234 235 236 235 236 237 237 237 236 231 229 227 226 226 231 199 162 146 137 138 134 134 139 148 154 150 152 148 152 167 184 187 185 154 119  98  90  98 117 128 137 151 153 139 126 126 144 158 163 179 189 182 182 191 194 187 182 179 174 170 166 163 165 166 169 164 185 232 230 229 229 227 225 227 229 228 232 235 237 241 240 240 240 239 238 238 238 238 238
 235 234 236 235 236 236 236 236 237 237 237 238 234 229 226 226 227 233 204 162 146 133 136 134 134 137 141 143 136 134 153 172 187 191 187 181 167 125  92  91  89  88 100 117 123 121 104  82  77  89 116 149 178 184 183 173 170 175 175 173 173 166 161 159 155 151 155 170 167 193 233 229 229 229 227 226 227 228 230 234 237 239 240 240 240 240 239 238 238 238 238 238
 234 235 236 235 235 236 236 236 237 238 238 237 234 230 226 226 226 231 211 163 151 136 133 136 132 138 136 128 131 159 178 187 191 195 190 183 174 153 129 114 115 104  91  96  99  91  83  88  92 103 134 172 186 193 193 176 151 153 174 179 170 156 154 148 143 142 149 168 165 198 232 229 229 229 228 227 229 229 232 236 239 241 242 242 240 242 240 239 239 239 239 239
 235 235 236 235 237 237 236 238 238 238 238 236 234 231 226 226 227 231 214 163 151 140 137 134 133 136 123 130 164 171 176 183 183 188 188 180 175 164 142 126 124 126 125 100  94  98 106 111 120 140 168 185 193 198 196 192 173 137 138 154 161 158 148 137 135 137 152 167 167 209 233 230 229 229 228 228 230 231 234 238 240 242 243 242 241 241 242 242 240 239 240 239
 235 235 236 236 236 237 236 238 238 239 239 237 235 231 227 227 228 231 216 164 157 147 144 135 134 133 130 156 167 165 172 176 176 186 188 183 177 169 153 142 135 125 121 112 115 116 121 122 135 153 171 178 187 196 196 192 184 169 132 120 152 168 145 135 131 137 159 165 170 216 234 230 229 229 229 229 231 232 236 240 242 243 243 242 242 242 242 242 241 240 240 240
 236 236 236 237 237 237 238 239 239 239 240 238 236 231 228 226 226 230 224 173 161 153 149 144 137 135 143 164 165 166 163 165 172 181 183 178 173 169 161 155 148 138 121 119 126 130 139 140 149 163 165 178 189 189 185 179 175 180 163 121 115 128 139 141 133 146 162 166 179 224 233 231 231 231 230 229 231 235 240 243 244 245 245 245 243 243 243 244 243 243 243 244
 236 236 236 238 238 238 239 239 239 240 241 239 236 231 229 227 227 229 231 181 162 157 152 149 143 145 155 162 152 150 147 151 161 168 174 176 168 165 159 162 161 155 138 134 138 146 155 155 159 167 169 181 187 185 183 174 165 167 161 138 113 116 137 145 140 156 165 162 179 234 236 236 236 234 231 232 234 238 242 246 247 247 246 246 244 243 243 241 241 240 238 236
 237 238 238 238 239 241 241 241 241 242 242 240 238 236 232 230 231 232 238 186 156 163 160 157 150 152 160 155 136 128 133 142 152 170 173 177 176 167 165 164 161 162 150 150 152 157 162 164 170 174 180 182 181 185 180 170 157 150 155 156 139 135 146 144 151 161 164 169 173 176 175 174 171 167 164 164 164 166 168 170 171 169 167 165 161 156 153 149 149 145 141 137
 238 238 237 237 238 238 236 236 237 237 235 232 227 223 217 215 213 213 217 190 155 163 165 161 155 157 164 158 134 119 120 118 119 133 143 152 158 168 166 162 165 174 178 186 183 181 176 171 175 178 173 170 169 174 171 155 139 128 139 157 155 151 151 148 160 162 162 174 124  60  64  63  63  61  60  64  72  86  99 108 114 116 116 118 117 116 115 115 118 120 120 122
 164 163 162 160 160 157 155 153 149 147 143 136 131 122 114 111 108 105  99 116 150 156 167 168 161 157 162 160 147 130 137 127 100  81  97 123 123 133 144 135 130 137 153 166 166 150 142 136 142 145 145 136 122 119 127 126 125 120 128 154 164 163 150 154 164 165 159 164  94  56  61  61  62  62  64  70  90 113 135 148 156 156 155 156 154 154 155 155 155 155 155 155
 113 112 113 113 114 116 116 117 118 117 118 114 103  88  74  63  60  58  56  63 125 150 161 162 165 162 158 161 167 156 150 151 149 137 109  95  89  82  93 105 107 110 107 109 105 103 115 112 106 101 105 110 107 100 102 127 148 142 144 163 169 162 153 162 161 163 160 146  77  65  67  67  68  67  70  81 100 122 141 153 157 157 158 157 155 156 156 155 154 154 154 155
 146 146 147 148 146 148 149 150 150 152 150 144 129 111  90  74  68  67  67  66  98 145 154 164 166 164 158 159 167 171 163 163 163 156 149 133 121 116 104  98  93  89  85  83  83  89  97 105 119 124 125 124 131 154 169 175 169 162 164 166 162 154 159 161 161 163 158 118  68  70  71  72  71  71  75  88 110 130 146 155 159 159 159 159 158 158 157 156 156 156 157 157
 146 146 147 147 148 148 147 149 150 152 150 146 135 117  99  81  72  70  71  71  84 132 151 160 167 167 156 151 158 171 177 175 172 162 151 147 148 146 150 159 160 161 154 152 153 159 165 169 169 166 164 170 174 178 170 178 170 166 167 158 153 157 163 159 162 160 149  92  71  75  76  76  74  76  82  96 117 136 151 159 161 160 159 159 159 158 159 158 158 158 158 159
 149 148 148 149 150 151 153 151 152 153 153 151 143 128 109  91  78  75  76  74  75 126 143 155 164 167 162 154 157 167 177 179 177 169 167 157 141 149 160 160 161 166 171 175 176 180 174 171 170 176 180 172 167 168 179 184 180 175 158 145 150 159 158 156 163 157 123  78  79  78  79  79  79  80  89 105 124 143 155 161 163 162 161 161 161 161 162 161 161 161 160 161
 152 151 152 151 152 153 153 154 154 156 158 156 152 139 124 105  90  82  80  80  75 131 142 143 156 164 163 159 164 172 178 178 176 173 167 166 153 145 142 147 153 158 161 163 163 165 165 172 171 168 166 167 168 178 183 187 184 174 155 144 150 158 158 158 157 147  97  82  85  84  84  84  84  86  97 114 132 149 160 164 165 164 163 163 163 164 164 164 163 163 163 163
 153 154 154 154 154 155 155 157 158 158 159 159 158 152 141 126 111  98  90  87  80 139 156 130 145 157 160 156 163 171 179 178 175 175 171 167 163 156 149 148 144 143 139 142 146 150 154 160 164 161 167 161 171 181 184 185 184 172 162 150 149 150 147 150 153 119  86  89  90  89  89  90  90  93 105 122 141 155 164 167 168 167 166 166 166 166 166 166 165 165 166 167
 157 157 157 157 157 158 159 161 162 161 161 162 161 160 157 149 139 123 111 100  85 134 171 135 136 151 156 153 159 166 172 174 175 171 171 168 165 159 156 150 144 140 140 154 150 153 155 153 161 152 160 170 173 178 183 185 176 168 163 151 146 143 145 139 144  99  93  96  94  94  94  94  96 102 116 135 151 163 169 170 171 170 168 169 168 168 168 168 168 168 167 168
 161 162 161 162 161 162 162 163 164 163 163 164 165 165 164 162 155 142 128 108 108 183 170 150 134 138 150 158 155 159 162 165 174 173 171 169 164 156 151 149 148 144 139 140 145 146 147 144 149 152 156 167 174 180 179 177 175 162 158 149 138 139 137 128 183 130  95 101 101 100 100 101 104 113 129 148 160 168 171 171 172 172 171 171 171 170 170 169 169 169 170 170
 164 163 163 164 164 164 164 165 165 165 165 166 167 167 167 167 163 152 137 111 189 223 164 161 148 131 138 153 157 159 166 167 170 175 178 180 172 165 162 159 153 151 140 127 134 140 143 143 155 156 163 172 181 179 173 165 169 157 157 144 136 129 125 136 217 200  96 105 105 106 108 111 119 134 149 161 169 174 173 173 173 174 173 172 173 173 171 171 171 172 171 171
 167 166 166 167 168 169 169 168 169 169 168 168 169 169 170 169 163 157 138 139 240 192 171 164 160 137 128 143 154 157 162 171 176 181 183 180 180 178 175 171 174 167 159 146 147 148 157 160 161 168 176 182 184 178 174 172 163 157 150 138 126 112 126 152 212 240 115 108 111 117 125 136 149 161 168 174 178 178 176 177 177 178 177 177 176 176 175 176 175 175 176 177
 172 170 170 170 170 170 170 171 170 171 171 172 172 172 172 172 167 160 139 176 243 170 174 167 166 155 129 120 136 153 160 169 179 191 191 192 195 197 198 195 201 205 202 198 196 193 194 187 180 188 195 196 189 181 173 163 156 156 137 126 113 115 140 160 212 247 142 129 136 146 158 170 181 186 189 191 192 192 191 190 190 190 191 191 190 190 192 193 191 191 193 194
 181 180 180 179 179 178 179 181 180 180 182 183 183 183 184 183 180 173 155 211 251 183 173 166 166 167 149 121 118 136 149 153 171 187 191 193 201 206 204 203 206 206 203 202 204 204 206 207 208 206 203 198 190 180 166 152 147 140 121 108 107 133 153 166 226 246 172 168 173 180 191 199 206 209 209 210 210 210 209 209 209 209 208 208 208 209 210 209 209 210 210 210
 196 197 198 197 198 199 200 200 201 201 203 203 203 204 205 204 203 197 187 233 255 207 173 169 166 171 165 145 118 107 129 144 155 172 181 185 193 200 204 204 204 204 199 197 200 200 205 206 206 203 197 190 181 170 161 148 124 118 114 104 128 148 154 188 251 243 198 188 191 198 205 212 216 218 218 219 219 218 218 218 218 217 217 216 217 217 217 216 216 216 216 216
 209 210 212 212 212 212 213 213 213 214 214 215 216 215 216 217 214 209 205 244 255 226 177 172 170 170 170 162 134  98 103 128 146 157 168 175 177 193 201 199 200 193 191 187 188 189 192 195 199 198 189 173 165 154 146 133 115  96 113 126 147 152 170 241 249 244 206 193 198 202 209 216 220 220 220 221 221 220 221 219 220 219 219 218 218 219 218 218 217 217 217 218
 215 215 214 215 215 216 216 217 217 218 218 218 219 219 219 219 218 213 211 249 255 245 186 173 171 170 169 170 153 117  97 104 128 142 150 159 159 170 183 182 189 184 176 175 171 174 174 176 180 176 166 159 140 127 128 118 100 100 122 141 146 167 233 255 240 253 181 118 207 205 212 217 220 221 222 221 222 222 221 222 220 221 221 219 219 220 220 219 219 219 219 218
 216 217 217 218 218 218 218 219 219 219 219 219 220 220 220 220 219 215 221 250 255 255 208 175 172 169 167 166 162 149 123 100 103 123 132 147 142 146 157 161 166 167 163 161 161 160 161 161 157 150 140 136 124 113 107  95 101 123 138 140 173 238 255 245 241 253 213  43 144 218 215 220 223 223 223 224 223 222 222 223 221 222 222 222 221 220 219 221 221 219 219 219
 218 219 220 219 219 219 220 221 220 221 221 221 222 221 222 222 223 220 230 249 253 255 229 180 175 172 169 168 163 156 148 113  92 101 110 124 120 133 143 145 142 151 155 150 148 147 144 139 132 120 116 108 108 105  89  99 125 131 135 186 246 255 245 241 245 250 241  67  52 194 224 221 224 225 224 226 225 224 225 223 222 222 223 222 222 221 221 221 221 219 219 220
 220 221 222 222 222 221 221 221 221 223 223 223 223 223 224 225 234 170 227 254 247 255 241 191 177 175 171 165 161 153 150 140 109  87  85  90 102 113 123 128 124 131 134 126 125 127 124 108 102 101  96  97  95  87 104 124 125 145 206 251 251 243 237 243 248 249 244  82  27 122 233 224 226 225 225 225 226 226 225 224 224 223 223 222 223 221 222 222 222 220 220 220
 221 222 222 223 222 222 223 224 224 223 224 224 224 226 226 239 173  97 251 255 250 254 249 195 180 175 170 164 158 156 149 144 138 113  89  70  68  71  80  93  98 106 106  98  92  92  87  86  84  89  82  75  82 110 126 139 181 229 249 244 238 235 240 246 247 248 240  75  33  59 197 235 226 226 226 226 227 227 225 226 226 225 224 224 224 223 223 223 223 222 221 222
 224 224 224 224 224 224 224 224 226 226 226 225 226 226 239 198  58 104 255 255 255 253 255 201 181 178 170 165 159 153 151 141 141 133 124 109  88  67  55  52  53  57  62  61  58  55  60  66  71  68  77 101 118 132 169 216 236 233 231 231 233 238 245 248 246 246 232  64  35  43 105 232 231 227 226 228 227 227 227 226 226 226 225 225 224 224 223 224 223 222 222 222
 225 226 226 226 226 226 226 226 227 228 228 227 227 239 201  80  32 114 255 255 255 253 255 223 173 182 172 165 161 157 151 142 137 136 133 132 129 118 107  94  81  72  71  71  75  82  89  91  94 108 117 122 152 203 229 226 223 226 229 235 242 247 248 247 245 250 215  46  37  45  47 142 244 230 229 229 229 229 228 227 228 227 226 226 225 225 225 225 224 224 223 223
 227 228 228 228 229 229 228 228 229 229 228 229 241 210  85  56  29 135 255 255 255 254 252 252 197 178 177 167 161 159 153 146 141 139 133 129 128 125 124 122 116 116 118 118 119 122 124 124 124 123 137 183 221 227 222 226 232 236 241 247 249 249 247 245 244 253 166  27  39  42  47  52 172 246 230 230 231 230 230 229 228 228 228 228 226 226 226 225 224 224 224 224
 229 229 229 229 230 230 230 230 231 230 231 237 210  94  59  54  28 189 251 218 247 254 252 253 248 195 179 170 163 158 154 150 143 140 135 128 122 118 117 115 118 122 122 120 123 125 126 124 133 171 213 225 223 223 228 238 243 245 248 249 249 247 245 244 243 242  95  27  37  40  46  48  61 187 240 234 232 231 231 230 230 230 229 228 227 228 227 226 225 225 225 224
