P2
# Generated by OpenCV 4.2.0
92 112
255
 122  68  41  46  46  45  47  54  59  66  74  82  86  89  90  91  87  84  90 100 113 118 122 120 118 122 128 130 129 125 119 116 133 155 166 171 167 166 162 173 180 187 185 187 188 185 185 185 195 199 198 189 183 181 188 179 179 179 181 179 179 183 181 180 179 176 168 164 162 161 159 153 150 152 155 151 140 139 149 150 150 139 128 116 100  89  85  90  95 100 108 116
  44  44  46  45  45  44  46  51  58  64  72  80  86  91  93  93  92  90  91  98 106 115 117 117 116 119 120 123 132 132 126 121 130 154 169 170 165 167 167 177 187 193 192 190 190 191 195 191 172 169 172 168 163 173 183 191 190 187 181 177 181 185 184 182 181 179 173 165 165 163 159 154 150 153 154 151 144 144 152 156 155 146 138 123 106  94  86  92  97 104 111 114
  43  43  44  44  44  46  45  48  53  59  68  78  86  90  91  95  97 101 101 104 108 117 121 123 133 133 125 119 135 139 136 142 150 163 177 178 176 176 178 186 196 201 200 196 195 187 157 151 152 166 168 159 159 165 175 183 183 183 183 189 191 188 189 188 182 180 176 172 168 166 161 152 148 150 151 150 146 149 154 159 162 154 146 131 112  95  86  90 100 108 111 112
  44  43  43  44  45  45  45  46  50  56  64  74  83  89  90  95 101 108 113 116 118 123 130 140 157 155 145 132 139 151 150 155 166 177 182 184 182 176 180 185 185 189 187 175 162 121 124 150 159 170 144 149 146 166 178 182 166 171 181 182 187 195 194 191 184 180 181 180 172 168 159 153 152 155 155 154 150 150 157 163 166 160 148 131 113  94  86  89 101 108 111 109
  43  43  44  44  45  44  43  44  47  53  61  70  80  89  93  98 102 108 113 119 119 121 130 144 162 168 159 151 148 153 159 166 160 168 153 150 155 154 163 172 172 157 148 147 147 128 126 133 146 153 128 141 163 166 169 176 167 176 188 172 170 181 191 188 187 182 182 180 177 171 163 164 165 170 164 162 159 155 161 169 170 164 148 129 111  94  86  87  97 106 108 104
  43  43  44  45  45  44  43  43  46  52  60  69  78  87  94 102 103 103 103 111 113 111 120 140 157 161 158 156 156 152 148 118 106 132 112 138 139 154 172 159 144 143 147 159 166 169 169 167 163 166 172 171 181 161 167 187 184 184 181 186 179 182 189 183 185 182 184 183 180 177 172 175 174 179 173 168 166 164 164 167 170 163 146 129 112  95  86  85  95 105 104 100
  44  44  45  45  45  45  43  43  44  51  61  71  78  83  90  98 100  95  94  99 102 102 110 131 144 151 152 155 156 157 117  45 110 161 149 142 152 170 169 141 150 134 126 134 149 160 170 156 149 158 177 191 203 193 189 187 183 167 149 153 161 159 162 169 177 188 197 188 184 184 178 179 176 173 169 168 168 166 164 163 166 163 149 132 114  97  86  84  92 100 100  98
  43  44  44  45  46  45  44  43  44  49  61  72  79  81  87  92  98  94  92  95 100 104 109 121 133 143 144 151 153 155  95  65 140 148 130 133 170 137 124 147 103  89  97 115 132 119 148 159 161 157 146 156 159 180 170 128 123 144 149 168 165 171 167 175 164 170 185 193 190 186 183 177 169 165 162 165 167 164 160 160 162 164 154 139 118 100  89  84  90  99 100 100
  43  43  43  46  46  45  43  44  44  48  58  70  78  81  86  92  97  98  97 101 108 110 110 116 123 134 141 153 157 120  83 138 157 137 134 166 145 108 130 137  95 107 109 106 139 168 186 182 161 173 154 155 152 160 176 169 168 163 162 165 174 161 180 187 178 157 154 175 197 192 185 177 168 162 159 163 168 166 157 151 156 161 157 144 122 102  93  85  92 101 104 103
  44  43  43  45  45  45  44  43  45  49  54  65  72  78  84  92  99 104 105 111 118 121 127 139 150 160 165 144 126 105 137 151 139 122 167 155 119 119 130  93 118 124 101 108 125 160 200 198 181 174 163 155 152 128 153 168 164 164 151 153 189 199 194 191 202 190 178 173 190 198 198 184 175 165 161 163 169 169 161 149 149 158 161 148 128 108  98  93  94 103 107 104
  43  43  43  44  44  44  44  44  46  49  51  56  65  73  78  86  96 103 107 116 126 146 158 162 165 161 135 106 125 143 150 136 120 153 150 128 101 109 115  96 122 106  86 100 139 186 214 210 165 149 145 149 148 155 158 172 172 166 170 183 194 193 182 176 152 129 150 177 188 187 203 200 182 172 162 163 169 170 165 153 148 159 162 152 136 118 104  97  95 104 108 103
  43  43  43  43  43  43  43  44  45  48  50  54  63  69  76  82  89  98 105 116 132 146 159 158 151 135 110 114 142 160 141 133 143 157 118 105  83 106  91 124 117  75  72  67  76 134 207 229 195 158 160 157 146 156 161 163 160 160 163 168 161 164 178 183 154 152 139 132 170 195 194 198 190 175 164 161 169 174 171 161 157 162 165 158 143 127 111 101  96 101 105 105
  43  43  43  43  43  43  43  43  45  47  52  58  64  71  76  80  85  93 103 123 145 156 168 158 131  96 107 141 155 118  88 136 115 145 102  77  89 100 111 128 103  71  67  45  52  87 144 202 218 185 152 140 142 142 144 135 137 136 142 148 158 164 192 204 179 166 167 149 147 187 192 188 193 186 173 168 169 175 173 166 165 164 167 160 147 136 120 104  96 100 106 108
  42  43  44  44  44  43  43  44  44  47  52  57  65  73  75  81  88  87 113 141 162 168 162 133 106  95 143 166 107  59  99 106 108 126  73  57  83  82  94 125 122  75  56  56  84  99 103 161 199 209 191 155 130 112  99  77 104 140 165 165 178 169 187 187 162 175 185 198 191 170 187 189 194 192 175 169 167 171 173 168 169 167 166 159 151 142 128 110  99 102 109 110
  43  44  45  45  45  44  43  43  45  47  53  58  64  73  80  83  85  99 139 170 162 141 125 111 105 141 153  94  55  70  82  58 112  96  51  42  69  56  61  98 123  85  59  56  50 100 121 136 172 179 188 176 147 151 170 155 160 159 168 166 169 158 186 151 158 171 168 168 179 178 188 182 161 190 184 169 165 168 167 166 167 167 166 159 154 148 137 120 105 104 112 113
  43  43  45  46  46  45  44  43  44  49  56  61  65  76  85  84 105 140 159 162 135 119 109 127 136 151 104  72  82  64  49  65  78  63  48  50  45  32  32  83 133 134  81  61  39  41 103 128 166 180 186 188 185 179 171 164 162 167 187 186 164 170 156 167 165 160 151 136 150 152 158 197 168 152 182 177 165 161 163 166 173 165 165 156 156 155 149 133 115 110 115 117
  43  44  45  46  46  46  45  44  46  54  60  63  68  78  79  99 136 147 136 143 115 113 118 123 126 113  81 102  91  67  49  64  54  59  60  62  54  67  54  43  68 117  96  69  62  32  71  97 144 159 169 184 181 182 178 179 168 175 180 184 202 193 179 173 178 172 187 151 108 128 114 147 196 152 153 181 175 165 168 167 174 172 166 158 165 166 160 147 125 115 114 116
  42  44  45  46  46  45  45  44  46  50  56  61  68  75  91 122 138 132 137 121 104  90  87 103 107  88  88 109  95  72  60  55  50  50  59  85  92  92  84  78  60  73 103  68  52  50  52  74 104 132 148 164 177 172 179 186 175 160 160 169 134 146 182 190 186 171 167 138 124 125 137 149 177 169 134 154 169 177 167 166 172 178 173 168 174 179 173 157 131 117 117 119
  43  44  45  45  46  45  46  45  45  52  54  56  66  91 123 137 130 144 120 102 104  63  82 114  76  73  91 112  90  87  69  60  59  44  70 110 128 130 118 102  94  70  97  97  54  44  54  64  73 103 138 160 165 167 177 180 169 165 164 169 169 172 175 170 149 147 163 164 174 185 191 202 192 173 162 160 150 157 148 138 156 167 182 178 178 182 176 158 134 120 121 125
  43  44  45  46  46  46  46  46  48  47  54  56  86 128 132 124 137 123 108 110  90  50  84 107  80  62  97 106  92 110  89  88  73  76 112 146 163 160 146 127 110  97  75  93  80  51  39  40  49  75 103 131 148 139 134 138 149 148 146 127 134 123 103 118 151 168 163 155 159 185 191 191 169 144 155 173 168 145 138 151 166 158 181 187 185 184 173 158 139 129 126 130
  43  44  45  46  46  46  46  48  58  51  50  56  98 122 110 140 127 101 127 102  86  66  87 103  91  64  92 116  88 102  93  99  93 134 153 174 194 183 170 155 136 120  97  81  96  69  44  32  41  58  74  83 111 131 148 144 127 102  82  78  72 104 120 131 145 146 159 166 172 180 188 182 192 185 185 193 205 185 176 167 161 160 165 184 180 188 178 165 147 137 134 134
  43  44  45  46  47  47  47  47  50  51  50  67 101 105 141 140 110 133 130  98  92  73  76 104 111  85  87 120 115  96 126 115 140 164 182 197 196 194 186 179 163 144 129 104  86  87  64  50  29  35  66  60  80  80  95 130 161 163 163 168 150 137 137 151 164 171 180 193 196 196 188 195 197 187 183 169 167 174 181 173 163 158 156 174 163 176 188 173 159 147 137 132
  44  44  45  47  47  48  47  46  46  47  53  75  83 119 139 107 130 138 110 111 101  97  87  82 112 110  90 107 105 114 151 132 145 176 221 216 208 202 202 197 189 176 156 138 104  90  86  69  55  41  55  71  60  75  75  77  90 119 137 133 144 152 152 145 154 152 153 160 155 151 159 171 162 173 149 144 115 130 156 144 137 126 157 163 176 183 194 178 169 153 139 133
  43  43  46  47  49  47  46  47  48  49  62  70  87 120 106 119 151 110 120 107 112 117 107  96  92 115 118 109 102 127 152 130 155 209 231 230 218 213 214 206 201 193 184 173 145 115  99  86  86  74  63  83  74  66  93  70  73  87 100 108 114 127 143 149 152 152 157 150 148 147 159 170 168 144 106 121 113 111 128 145 148 147 163 166 159 192 196 181 177 153 149 137
  44  44  45  47  48  47  46  46  51  58  65  74  98  82 102 164 119 121 152 107 141 111 102 111 111  92 116 124 119 130 140 153 188 216 231 226 216 218 221 219 213 208 199 189 174 150 130 115 103  97  82  83  92  91  82  88  52  77  88  84 107 112 125 146 171 171 168 182 182 181 133 112 110 111 121 101 113 119 132 134 138 150 162 141 146 180 185 187 190 170 160 144
  42  44  45  47  48  47  46  48  51  62  60  75  76  68 146 137 111 142 135 113 151 101  83 122 110 106 100 129 113 124 139 171 204 219 231 229 231 225 225 226 221 215 210 202 191 169 153 147 129 111  99  92  84 100  94 104  68  47  65  58  83 111 110 109 121 137 128 116 134 160 151 158 149 147 140 116 117 111 139 129 122 146 142 135 170 164 167 182 206 188 156 156
  42  43  44  47  48  48  46  49  53  56  59  65  52 102 128 114 135 120 108 110 145 102  82 123 127 125 119 146 126 121 140 170 207 223 231 234 234 224 221 227 223 221 218 213 201 186 172 164 154 142 132 119 109 101 102 107 104  80  61  78  55  81  92 108 107 112 129 108 108 118 118 129 172 154 139 147 148 154 146 158 137 144 165 177 169 164 169 171 202 197 168 163
  44  44  46  47  49  48  45  48  48  52  60  51  59 115 109 130 138  97 102 103 144 101  91 106  99 120 123 148 148 132 155 165 199 221 230 233 232 228 227 227 226 228 221 220 212 198 185 185 181 166 153 147 134 122 115 108  99 101  86  71  80  66  96 110 126 127 131 134 127 136 154 139 152 158 136 134 165 173 177 160 156 162 158 179 170 176 185 180 194 204 178 166
  44  43  46  48  49  50  46  47  46  49  45  41  83  94 119 140 125  95  99  89 139  92  89 105  69  94 114 121 150 152 169 176 207 225 228 233 235 231 229 229 230 229 225 222 216 213 200 199 196 186 175 165 153 138 135 125 114 101 100  99  95  89  88 108 130 138 124 135 136 137 146 157 152 159 167 145 154 162 174 161 160 162 166 182 174 185 182 177 188 201 177 169
  42  45  46  48  50  48  47  45  47  46  33  55  68  86 134 133 105 102 110 102 123  91  92  84  75  88 110 102 142 173 177 194 206 229 232 235 231 228 230 230 229 227 224 221 220 212 207 207 203 196 190 180 172 158 142 143 137 122 101  99 123 109  99  94 104 141 151 143 144 149 139 158 167 169 176 171 150 157 166 171 164 162 171 165 166 169 180 167 189 191 181 169
  43  44  46  48  49  49  47  47  51  47  35  50  51 108 129 116 108 131 118 112 114 106  82  72  82  79 118 103 141 172 189 213 212 220 228 231 227 228 231 230 226 224 224 223 220 214 208 207 206 205 203 190 185 176 157 152 152 136 121 119 115 110 111 113 103 104 146 157 149 147 157 172 153 135 154 179 167 157 168 172 165 165 157 154 150 174 174 170 186 184 182 165
  44  45  46  48  49  49  49  53  53  44  39  42  76 113 106 104 128 137 112 109 104 105  84  74  92  88 105 109 151 172 203 220 223 218 223 225 226 229 226 226 228 225 224 222 215 213 213 210 208 207 203 197 190 185 176 162 161 160 150 137 130 129 116 117 123 117 117 150 167 169 161 165 176 160 142 141 154 148 138 134 142 135 138 145 158 177 161 172 179 179 174 157
  45  46  46  49  49  49  50  52  55  44  33  54  96 104  92 112 143 128 106 102  97 101  87  90  82  82 101 113 160 188 218 220 220 218 224 226 227 225 223 226 225 224 222 217 214 215 215 213 213 211 208 199 195 192 189 179 167 170 166 159 143 143 141 123 112 118 117 119 120 156 180 178 176 180 190 170 168 176 144 131 144 141 146 150 159 161 158 163 173 179 168 158
  46  46  47  48  49  49  49  50  55  38  33  74  83  96  83 117 144 119  97 103 103  85  89  79  72  81 100 125 173 204 218 222 222 221 226 227 226 222 222 224 225 225 219 214 214 215 213 211 211 211 209 202 199 197 194 186 179 178 176 170 161 150 151 149 129 113 121 123 105  89 128 139 167 179 184 175 176 176 167 160 149 135 134 132 134 145 152 149 158 173 168 161
  46  46  47  49  49  49  51  52  49  30  53  79  56  87  70 117 141 107  90 108  79  73  69  75  68  81 104 144 188 206 212 223 224 221 219 221 220 217 217 222 221 221 216 215 217 213 215 213 213 208 208 206 199 201 200 195 186 178 175 175 175 164 150 151 148 123 116 125 132 102 110 117 115 141 149 155 154 147 159 162 150 154 151 130 134 145 134 148 138 166 175 158
  47  48  49  49  49  50  51  52  44  39  77  47  41  76  69 122 125  85  97  82  72  71  71  76  71  91 114 168 201 207 210 221 221 219 218 217 217 216 215 212 213 214 214 220 216 214 213 213 211 208 213 204 199 201 203 201 196 187 180 179 176 175 169 153 150 147 129 120 132 133 105 125 127 119 148 150 159 151 153 155 149 157 154 156 147 136 135 127 112 155 171 161
  49  51  51  52  51  50  49  49  42  56  64  21  44  66  70 117  99  71  78  64  67  61  71  65  74 103 151 189 208 217 218 221 216 216 214 216 214 214 214 211 211 212 217 221 216 213 213 212 211 210 205 194 196 198 199 195 198 195 189 184 180 180 183 173 155 149 151 139 129 142 127 106 125 126 120 138 168 167 141 156 128 104 111 116 122 129 147 125 106 161 164 162
  54  55  53  52  54  50  47  44  50  60  44  14  37  60  88 104  77  52  49  39  61  62  76  74  96 143 182 201 211 216 219 218 218 212 211 216 223 223 218 217 218 217 220 220 218 215 213 212 212 211 203 198 195 195 193 196 201 200 194 191 190 189 189 188 179 163 154 158 149 140 149 128 114 128 125 119 159 166 157 157 161 109  92  82  83  80  99 105 128 173 170 164
  57  56  54  51  55  51  46  46  52  45  24   8  29  52  89  69  38  41  36  42  60  66  66  85 140 178 194 203 208 211 211 215 217 214 214 214 218 221 223 222 224 224 225 224 221 219 218 214 213 210 203 203 203 202 204 208 207 200 199 202 201 198 194 193 192 184 170 165 162 156 153 156 133 135 141 134 139 154 163 165 176 165  96  70  71  69  84  89 144 179 175 171
  59  57  52  51  50  52  47  47  51  33  13   6  28  54  75  51  36  38  26  38  61  65  76 132 176 189 197 199 207 211 205 206 212 213 213 213 218 225 224 227 229 229 230 227 224 224 220 217 215 216 212 208 204 200 207 208 207 202 205 207 205 206 204 202 201 196 189 180 171 168 162 159 164 149 154 145 133 132 141 158 177 179 164  99  85  68  87 117 169 178 178 179
  57  54  51  49  58  59  51  58  43  25   7  18  20  46  49  36  33  32  15  30  52  71 110 171 185 189 197 199 202 208 214 215 209 210 213 216 221 229 226 226 226 221 221 226 225 224 222 220 216 219 217 209 203 204 208 210 209 206 206 209 207 211 210 209 209 202 198 197 187 179 171 169 165 162 161 165 168 163 162 161 171 171 178 158 106  93  93 139 180 179 177 179
  55  50  49  59  59  49  58  59  35  14  22  32  24  50  36  30  26  19  13  32  64  85 132 180 184 187 192 195 197 202 210 207 207 213 217 219 221 218 219 224 226 220 214 221 223 221 222 223 222 222 221 210 203 212 217 216 212 208 210 215 215 217 216 214 214 213 210 211 207 199 190 179 175 167 161 170 189 194 177 163 180 184 149 169 153 127 130 157 182 182 183 191
  52  50  53  53  45  48  55  40  29  15 104  90  61  45  29  24  15  13  18  35  76  91 152 184 184 188 192 194 193 193 203 204 208 213 217 217 215 211 213 211 216 225 224 220 221 218 221 221 222 222 221 213 207 215 220 220 214 214 217 219 221 221 219 217 215 218 217 214 215 210 207 201 196 191 189 189 195 197 180 158 170 182 156 131 172 160 158 176 188 186 184 181
  52  51  51  49  50  52  47  46  60  62 171 107  63  44  41  43  22  15  15  58  83 114 171 184 184 185 189 192 191 196 205 209 213 216 215 212 205 200 202 202 205 211 217 217 219 219 220 221 219 221 223 213 206 218 219 216 210 213 215 218 221 223 225 217 214 217 213 209 210 209 212 212 212 208 208 201 210 215 199 150 154 171 176 139 136 167 173 177 185 188 186 178
  57  64  68  53  50  58  53  49  76 105 158 128  76  37  51  37  32  32  34  96  89 133 172 179 182 181 186 191 191 198 204 208 212 215 213 208 208 204 202 208 205 204 210 214 215 217 218 214 213 216 219 212 206 221 218 208 203 207 215 214 217 221 224 217 214 214 213 213 213 212 216 215 216 219 217 210 211 226 208 131 140 138 189 158 125 131 134 169 189 188 180 182
  58  75  86  70  55  62  67  67  93 127 132 134  86  44  42  36  30  36  54 118 102 140 165 171 180 184 190 196 201 209 211 211 216 213 213 210 215 217 216 211 207 208 215 216 216 219 212 208 208 210 218 208 204 221 218 206 202 209 215 210 217 210 210 213 212 214 215 218 221 221 223 224 225 228 229 223 211 210 201 105 138 110 166 169 122 126 100 134 170 182 175 182
  63  49  55  70  91  94 100 122 134 134 121 102 100  81  65  56  49  31  68 113 115 145 173 169 177 185 190 197 203 216 221 225 225 227 232 229 230 233 229 222 226 224 223 225 223 219 214 203 197 209 215 200 205 218 211 209 206 207 209 211 210 201 206 218 220 220 224 224 228 230 233 236 240 239 239 229 212 203 195 102 111 121 134 175 146 120 111  91 139 162 164 166
  95  80  69  79 114 131 114 112 108 109 107  88  98 109  86  58  42  46  78 109 124 150 173 170 169 177 186 194 203 217 225 232 238 235 229 228 225 227 222 223 224 225 228 228 220 214 210 204 201 212 207 194 202 210 205 209 208 200 200 204 207 203 204 217 229 229 227 227 228 227 229 235 246 251 249 239 216 210 187 106  89  97 142 147 164 137 131 117 111 168 174 157
 111 116  88  89 128 124  94  85 107 112 114  76  87 113  78  51  56  60  80 122 138 156 170 176 171 179 190 198 211 222 219 211 208 213 207 200 198 188 186 191 187 191 198 192 195 194 194 202 207 206 197 187 190 193 195 206 203 188 190 195 202 200 192 191 198 213 212 209 211 207 208 212 219 236 251 253 233 207 180 100  91  73 121 143 153 156 138 129 143 160 166 161
  85  93 102  88  78  75  80  96  76  58  60  44  41  63  77  79  60  43  64 119 140 154 164 167 167 171 184 196 196 192 183 168 156 153 149 162 151 139 135 134 134 131 129 134 147 170 178 190 193 189 178 174 181 184 187 195 192 180 178 184 188 186 173 145 146 155 166 162 160 159 168 177 191 195 215 236 239 211 176  88  94  94  81 119 146 160 157 150 151 143 136 164
  70  66  63  51  45  70  94  69  40  37  10  22  46  45  68  69  47  34  66 118 143 145 151 150 155 166 178 183 167 158 150 145 126 116 110  99 100  94  84  78  86  88  79  85  99 131 153 156 159 161 156 167 174 175 178 186 186 174 165 167 169 167 147 115  98  99 102 103 109 111 113 124 134 143 168 202 230 219 170  69  79 110  98  96 118 140 137 137 121 131 137 154
  24  36  51  41  51  67  51  42  47  25  20  40  39  59  98 114  97  56  79 120 138 138 143 155 163 163 164 159 141 113 108 119 117 115 121 116 109 103  93  79  66  62  58  66  79  95 101 109 121 131 143 151 150 150 162 172 174 164 152 153 147 135 114  88  72  75  75  81  86 101 120 133 143 158 166 181 205 220 165  72  47 106 124 121 117 119 122 126 118  92 106 121
  42  49  60  76  63  54  47  57  42  38  50  39  29  35  53  99 109  82  77 117 146 140 144 155 166 165 161 151 132 113 109 119 141 164 172 169 159 147 138 119 110 100  82  80  79  77  75  80  88 104 117 115 116 132 158 163 156 144 135 127 112  96  87  85  89  97 109 122 140 157 173 187 192 198 195 182 202 215 157  56  56  81 110 126  98 126 137 121 109 101  89 131
  44  39  53  57  43  44  64  75  78  83  65  43  26  31  40  68  74  83  78 110 144 144 140 160 168 169 170 161 140 132 140 163 184 192 185 176 175 166 154 135 127 119 116 110 101  91  82  79  76  83  93 101 120 157 171 169 149 123 114  98  91  98 105 124 134 136 146 157 171 181 190 202 210 216 219 197 200 212 154  52  54  70 109 130  89  90 127 154 128 117 102 112
  32  24  22  16  31  42  49  59  69  76  71  62  51  40  40  61  61  53  73 105 143 143 143 163 174 171 173 166 145 144 166 159 136 120 119 113 105 105  97  87  74  68  78 100 112 112  98  86  79  81  92 108 139 183 203 193 168 131 104 101 107 113 116 104  92  88  95 108 115 126 139 152 166 198 224 209 206 209 151  56  49  63 112 119  89 102  86 134 145 120 113 105
  25  29  26  29  43  40  29  38  58  68  77  76  73  51  36  40  66  54  78 102 136 141 153 169 179 177 170 166 156 158 117  91 110 108  89  74  66  63  73  75  75  78  78  70  93 116 110  99  93 100 105 117 143 195 223 218 190 132 108 108 110 113  99  81  80  75  69  77  80  79  95  99 108 113 167 220 210 208 149  61  50  72  97 108  85  90  79  91 112 124 144 137
  69  52  23  30  34  28  30  48  71  86 103 101  83  63  42  31  52  63  83  93 130 144 159 167 181 180 164 149 135 107  80  88  77  96  70  34  47  15  43  47  96  89  68  73  79  95 104 114 110 113 122 131 163 206 229 231 213 145 119 113 109 105  83  70  72  34  43  17  32  49  79 115 120 131 111 187 215 212 155  59  56  89  90  98  97  58  77  90  94  95 123 157
  51  24  18  44  30   8  21  40  55  80 100 114 104  86  64  38  38  72  79  99 135 150 166 173 181 178 163 145 122 111 115  98  79 104 113  43  68  65  65  62 162 148  86  47  59  77 134 159 136 124 141 153 187 215 230 231 230 175 136 154 131  90  55  81 116  50  53  33  58  45 110 145 105 117 144 160 208 217 159  56  60  87  90 116 117  62  64  68  65  92 121 137
  17  12  27  50  62  43  32  45  48  54  66  96 100  85  66  43  50  83  75 101 140 156 173 179 185 182 173 156 143 144 138 141 159 162 160 104  75  87  77 120 147 130 122 117 127 137 162 175 141 142 157 163 192 217 232 231 230 212 151 164 153 126 107 108 114 103  95 102  76  85 164 158 160 172 158 176 203 221 171  66  60  99  89  87  99  57  43  77  81  93 132 169
  32  24  18  22  54  63  44  28  39  63  83 105  95  73  74  73  62  74  75 107 143 161 176 185 193 192 184 179 172 172 166 152 143 152 158 165 157 146 141 148 138 138 134 128 146 165 171 161 148 165 173 177 197 217 234 233 227 228 187 153 167 166 157 136 125 137 145 152 150 152 151 160 182 203 213 199 211 227 177  63  76 110  83  73  90  84  56  70 102 150 184 193
  35  25  25  34  44  47  45  43  53  64  70  65  69  64  65  68  58  70  87 113 148 167 178 186 194 196 196 196 195 190 183 175 148 128 128 126 133 132 134 134 137 142 142 146 158 170 175 167 174 183 189 188 196 210 236 237 230 235 216 178 169 160 156 144 129 139 145 144 157 150 157 167 183 211 227 220 224 232 191  65  86 122 101  88  66 108 103  73  99 145 178 184
  36  37  24  25  44  49  42  45  39  54  52  62  74  59  51  60  54  76 105 116 151 170 174 186 196 206 207 207 206 203 198 192 176 149 126 117 114 115 125 135 153 167 166 167 175 182 187 186 193 204 199 196 197 207 234 240 235 242 227 203 188 180 170 167 158 146 130 119 131 136 150 167 193 218 235 236 237 239 203  72 105 108 123  86  75 102 144 123 109 129 156 170
  46  36  27  24  24  33  40  37  29  53  45  62  75  65  51  45  52  83 120 122 160 172 173 187 196 205 214 215 217 217 212 204 196 181 168 160 156 161 170 180 184 180 174 170 186 202 200 201 207 215 209 199 199 208 235 242 238 244 236 213 208 201 190 179 177 183 180 172 162 162 167 185 207 221 227 231 243 245 216  86 120  85 128 100  90  89 105 137 119 120 171 168
  52  34  26  30  23  32  25  29  34  57  44  57  77  73  59  66  61  94 127 127 164 173 177 185 196 204 214 222 223 225 220 214 203 184 195 195 196 194 192 190 187 179 176 185 200 208 206 207 213 216 206 202 201 213 233 241 240 240 241 223 217 214 205 200 184 182 187 193 201 197 206 206 211 218 225 239 245 247 231 113 127  91 121 109  92 104 110  91 105  95 123 171
  64  49  14  30  36  36  30  23  21  54  56  67  89  82  78  74  53 104 124 126 167 175 177 184 193 198 211 223 223 225 226 221 214 212 212 207 202 200 195 187 181 172 181 202 208 209 208 207 213 211 206 203 207 221 231 238 239 239 243 234 222 223 220 216 205 189 186 191 196 200 207 215 215 226 234 240 247 246 235 138 121 108 124 134  93 101 107 121 108  76  83 111
  76  70  35  22  39  42  34  28  20  44  63  67  83  87  73  54  44 106 108 124 161 174 175 182 188 196 207 217 222 226 223 225 222 222 217 208 200 193 191 181 180 188 202 210 210 207 204 207 209 203 204 203 212 223 234 241 236 240 239 241 229 227 229 225 218 210 199 194 196 203 210 221 230 234 238 235 244 244 236 171  93  62 106 130 122 108 106 122 144 111  76  98
  63  82  60  44  42  30  11   9  12  30  65  61  77  79  61  48  61  99 101 107 150 168 172 180 186 192 198 208 211 217 223 224 223 222 215 210 202 199 200 201 202 209 214 215 211 210 204 201 202 199 196 200 211 223 238 242 239 239 238 247 242 230 231 229 225 225 218 212 215 216 216 217 225 233 237 242 244 237 233 183  81  35  87 117 122 121 103 120 159 173 169 131
  56  72  81  65  57  25  11  15  15  26  48  64  87  74  64  63  83  97 109  93 135 163 168 177 183 182 190 195 200 206 212 218 220 219 215 214 215 214 212 214 218 215 215 215 213 216 209 198 195 196 197 204 212 224 237 237 234 234 237 242 253 238 229 235 229 229 229 225 227 232 233 226 224 230 231 235 234 230 232 178  64  49  78 107 128 139 119 139 184 188 190 175
  45  60  68  73  61  28  18  17  15  16  35  67  94  74  62  70  85 106 119  93 115 158 168 172 175 181 183 184 189 196 202 209 211 211 214 219 215 215 217 219 222 220 218 217 217 212 207 200 193 199 209 209 212 221 229 226 223 224 229 233 250 247 227 234 236 232 231 229 222 216 228 234 223 221 224 229 225 221 232 160  60  64  74 104 115 152 148 163 185 186 177 179
  29  46  56  64  63  43  32  14   2   2  22  65 108  90  73  74  85 114 123 108 108 152 162 168 173 180 177 176 182 186 192 195 204 208 212 215 217 221 221 222 223 223 222 223 217 213 204 190 198 218 220 213 203 205 206 208 207 210 216 211 218 233 242 230 232 233 230 230 228 217 215 234 230 223 222 225 219 217 227 123  84 114  92  85 100 116 147 172 192 181 178 177
  34  44  42  49  59  54  37  13   2  17  43  70  99  89  72  71  85 114 126 113 109 152 157 165 169 173 174 174 175 182 188 190 192 202 213 215 221 223 223 221 224 223 222 218 221 219 200 186 208 221 219 206 177 162 156 165 172 175 184 181 179 201 239 240 222 225 229 229 228 228 227 230 230 229 225 221 217 213 219 106  76 113 111 108  98  91  92 127 166 185 178 172
  29  41  39  43  44  50  38  21  19  29  42  59  87  80  67  70  88  95 124 119 114 147 156 157 162 164 165 167 168 176 182 192 201 200 208 216 220 221 221 223 224 222 219 217 213 208 196 196 209 202 184 165 142 126 116 117 129 147 155 167 178 174 188 221 224 222 225 226 227 228 228 230 228 227 223 218 214 213 209 104 109 141 140 153 122 103  89  67  81 117 153 159
  28  38  36  39  40  34  34  27  20  31  39  47  76 104 107 115 115  82 112 125 123 150 158 155 158 162 165 163 167 169 173 187 194 197 208 213 215 217 223 224 221 217 215 213 213 206 197 194 193 162 120  75  60  65  89  98  98 119 128 152  97  63 119 184 219 213 221 225 224 225 226 226 225 224 226 221 212 214 198 107 131 158 163 142 130 102 101  91  65  57  87 106
  28  34  40  35  39  37  31  27  24  18  14  16  55  92 114 159 162 100  91 133 126 150 159 161 164 162 165 164 164 161 170 182 190 196 201 207 215 216 216 219 218 219 217 214 211 204 202 188 159 122  49   0   0   0  23  75  95  92 118  61   0   9  67 149 213 215 217 220 221 220 223 226 224 224 219 220 215 217 190 125 124 147 167 160 126  99 122 114  86  73 100 127
  25  34  39  37  36  34  31  37  33  19  10   4  39 101 123 168 182 158 136 136 125 146 158 165 166 159 158 163 158 158 161 170 179 188 197 203 213 212 212 216 217 217 217 213 208 205 200 173 135 107  65  35   7  35  69  76  91  96 119  61  40  63  86 137 215 219 211 214 222 223 225 225 225 222 216 212 214 218 189 159 156 152 150 151 141  99 100 100  88  81 104 134
  24  36  37  32  33  30  42  46  35  27  17  15  25 108 163 179 171 163 143 122 121 148 166 167 168 162 158 157 155 164 165 160 172 190 201 204 209 210 213 214 216 216 216 212 211 214 209 178 128 106  97  98  96 106  88  79  87 105 119 140 133 112 106 170 226 223 211 212 222 228 222 225 223 221 217 218 217 217 185 191 185 159 152 140 139 145 147 128 117 109 107 149
  26  34  38  31  30  35  48  38  26  26  22  23   9  82 178 183 167 152 137 128 134 150 157 169 170 164 166 160 159 154 157 168 179 185 191 201 205 210 217 214 215 215 216 215 218 216 213 197 151 110 112 127 134 131 127 125 122 146 168 172 165 148 174 220 225 226 220 206 206 215 229 227 223 220 221 222 219 218 181 196 175  69  80 113 146 148 181 198 177 158 162 170
  26  31  41  32  31  34  23  16  23  23  25  21  13  40 158 182 178 172 170 163 146 145 156 167 176 171 168 160 161 159 164 173 180 187 189 198 205 210 212 215 216 212 214 219 224 220 215 211 206 180 158 151 157 165 172 179 164 168 187 198 207 224 233 230 230 230 231 215 198 206 224 238 232 223 221 220 220 220 192 196 179 100 120 130 105 127 187 192 187 179 174 170
  24  29  42  37  30  27  16   5  18  26  24  17  14   9 103 186 189 188 186 171 153 143 156 168 172 176 164 162 163 167 173 177 180 182 194 197 205 211 209 213 215 212 215 225 225 224 222 221 218 216 205 188 190 182 175 176 167 171 182 200 211 222 232 231 228 229 231 226 209 186 195 212 235 229 220 223 222 219 201 213 168  91  89  65  79 154 188 187 182 177 177 176
  24  27  36  39  38  30  27  15   7  10  12  12  13   6  29 151 184 189 185 171 159 145 157 167 166 175 168 164 168 167 165 174 181 185 195 197 207 211 210 206 205 216 225 227 224 227 224 219 212 214 207 191 185 182 180 172 170 171 180 202 212 216 225 225 223 226 226 224 224 200 176 188 222 240 221 219 220 220 196 205  95  21  35  61 129 169 182 182 176 171 175 177
  24  25  31  39  46  47  32  18  14  15  17  16  11  13   0  52 146 167 168 163 157 145 157 165 170 169 171 169 167 158 161 170 180 189 193 203 207 207 206 199 212 223 222 220 218 217 216 214 217 206 199 190 188 187 191 185 183 183 183 194 207 214 212 215 216 216 217 212 215 221 200 186 200 217 221 218 218 220 197 138  32  30  59 132 171 170 177 175 167 166 172 175
  24  25  28  38  46  43  36  22  16  21  17  19  20  20   8   0  32  87 104 106 128 142 155 168 175 174 173 170 161 155 162 169 175 182 190 198 199 196 196 211 217 213 216 207 203 208 209 206 200 200 193 193 195 193 194 192 186 187 189 193 200 208 218 222 215 216 209 199 199 211 223 191 165 194 219 217 217 223 129  34  22  44  87 152 170 172 175 171 161 165 171 176
  23  26  31  34  34  37  38  34  32  33  34  38  34  27  22   9   0   0  14  10  45 138 162 171 172 177 173 165 160 157 159 165 171 181 186 193 189 185 198 207 200 207 203 196 197 194 198 202 196 190 197 202 197 196 200 197 191 194 195 206 212 211 222 230 221 214 211 200 185 189 209 189 177 191 207 213 215 227  89  13  38  52  94 143 148 163 175 169 164 171 175 179
  22  25  29  34  39  35  28  23  28  47  40  32  36  36  52  20  18  40  59  38  17 121 159 168 171 176 175 172 163 157 155 161 172 178 182 182 180 182 197 195 198 197 194 185 188 193 191 196 204 204 206 194 181 180 191 200 207 205 202 191 172 170 185 200 220 216 211 197 175 175 186 194 187 184 204 212 214 221 123  63  75 100  98  98 115 157 171 169 166 173 180 185
  23  25  30  33  35  28  17   7  10  20  15  26  37  43  86  43  41  61  67  44  27 105 156 166 168 174 175 172 165 161 155 163 168 167 175 173 174 186 190 191 188 188 184 177 180 177 183 186 180 169 149 134 118 106 110 122 129 142 119 102 106 116 128 134 141 181 200 183 152 157 171 188 191 181 201 210 216 219 129  71  58  61  54  60 100 152 173 170 166 173 181 184
  24  24  26  33  32  26  20  12  12   5  14  25  35  43 111  64  77  54  42  49  31  90 150 164 169 174 174 180 177 167 165 169 160 163 161 162 164 181 183 177 179 172 164 160 155 148 144 128 105  94  96 101 101  96  89  78  67  66  68  77  91  93  87 103 107 104 150 142 115 128 157 188 187 176 200 210 216 220 128  57  46  43  53  78  94 151 175 171 172 175 181 183
  24  24  27  30  33  34  36  34  32  24  26  31  60  48 106  81  71 119  39  13  21  77 153 159 170 177 179 178 179 176 173 172 161 163 157 152 158 170 176 165 159 153 140 122 108  98  76  74  75  54  38  39  45  45  41  36  25  26  41  49  55  59  58  55  66  79  71  49  87 119 150 186 184 179 204 213 217 221 147  97  89  99 100  77  97 163 173 175 174 177 181 181
  24  25  26  29  31  29  23  23  26  26  25  53  77  38  82  95  45  87 118  33   3  48 140 157 167 170 175 178 182 182 181 174 166 168 157 151 159 165 160 155 145 126 102  69  37  33  45  49  33  36  53  65  67  74  84  85  87  99 109 120 129 145 155 118  68  81  89  96 112 127 145 184 191 192 212 216 220 208 124 126 133 113  72  74 140 175 182 178 171 174 180 181
  24  25  28  30  28  26  26  27  24  25  36  53  51  41  62  85  55  33  79  91  24  32 122 147 166 171 179 180 182 185 183 178 173 169 163 158 158 159 162 155 140 126 104  74  67  71  74  75  94 119 134 143 146 145 150 149 153 160 164 168 177 188 198 201 191 185 176 165 153 143 152 187 196 201 211 219 221 192  73  64  67  46  58 128 171 183 182 176 169 172 182 186
  24  25  26  27  27  26  27  30  28  33  47  54  52  46  46  66  48  43  28  63  54  34 100 143 162 175 175 177 181 186 189 188 183 175 169 162 165 166 159 146 139 141 142 152 163 166 163 168 170 168 174 174 174 167 165 164 165 159 164 162 174 188 192 205 205 204 200 187 167 158 163 184 193 204 211 218 224 169  41  43  66  93 133 157 165 177 180 178 171 173 186 193
  23  23  25  26  26  26  25  26  28  34  39  50  53  45  53  57  38  41  38  22  33  45  87 138 154 164 176 182 181 185 188 186 180 176 170 166 170 173 163 156 147 150 159 173 178 180 178 177 172 167 169 165 159 154 150 144 141 140 144 142 161 173 179 196 208 211 207 204 190 171 170 186 199 207 214 216 220 161 107 134 158 172 166 159 160 173 177 175 172 173 188 196
  22  23  25  26  27  26  24  25  25  28  34  41  45  37  65  58  35  33  34  23   6  12  61 121 136 150 165 176 181 179 181 181 183 176 179 172 169 158 162 163 158 160 173 183 186 183 187 188 181 173 164 160 158 150 151 143 134 151 148 166 173 183 189 200 205 208 211 209 202 189 179 183 205 218 216 217 218 141 125 163 171 172 167 164 160 171 176 173 166 172 182 195
  22  22  24  25  25  24  24  25  25  28  32  32  29  25  31  67  41  30  31  19   9   0  34 116 123 141 158 156 167 175 179 179 189 186 184 176 172 161 162 164 169 174 183 188 190 186 180 180 179 174 169 168 166 159 150 144 149 155 154 163 168 176 182 181 200 203 210 208 207 197 190 190 203 213 216 221 203 113 118 168 173 169 162 164 165 179 180 171 162 165 176 185
  22  22  24  25  24  24  24  23  28  31  33  31  22  13  10  38  55  36  29   9   2   3  21 118 129 120 142 145 162 177 182 178 184 186 181 175 171 160 163 160 169 180 185 185 188 186 181 181 179 176 174 166 159 156 152 148 147 143 147 160 171 173 181 184 195 204 205 206 205 197 195 201 203 210 216 221 172 115 138 169 171 168 160 164 172 182 185 174 162 162 175 188
  21  22  23  24  24  23  23  23  34  41  30  30  28  20  15  19  42  50  24   2   4   8  10 102 144 108 120 141 151 167 180 181 181 182 179 179 171 161 159 165 177 179 178 178 179 180 178 175 172 172 169 167 167 166 158 152 151 155 158 161 167 174 176 188 195 201 208 208 203 190 194 205 203 205 212 208 138 140 168 169 169 166 161 165 179 190 190 177 165 166 177 188
  20  21  22  23  24  23  22  22  33  63  41  28  33  31  23  19  37  38  23  13  14  14   6  76 155 127 100 129 136 148 163 169 176 179 178 176 169 168 168 168 173 176 175 175 172 173 173 169 168 167 169 171 169 158 157 153 154 153 152 160 167 186 192 189 197 208 212 209 203 203 200 204 203 201 204 183 151 171 172 170 168 166 164 167 179 190 190 179 166 169 181 190
  20  21  21  23  24  22  22  22  22  51  69  50  42  36  37  49  52  29  14  10  15  10   2  51 143 160 119 100 124 141 149 164 171 169 170 171 171 170 164 162 162 164 169 174 174 174 175 172 173 173 175 170 171 170 179 176 166 178 184 194 191 180 195 201 207 214 214 210 209 211 205 207 201 202 196 175 182 179 171 169 168 166 164 167 178 188 191 180 169 170 180 188
  19  20  22  22  23  22  23  22  22  25  49  65  67  70  69  56  38  24  21  19  10   7   5  38 130 159 153  97 103 121 144 157 161 165 167 168 170 166 154 166 164 159 159 169 172 175 183 184 183 182 186 190 205 213 218 218 210 215 220 223 219 212 209 215 221 222 224 218 215 209 209 210 200 194 182 183 184 175 169 167 166 164 162 166 175 183 189 182 171 172 180 188
  18  19  21  22  21  22  22  22  24  25  29  31  36  42  31  22  29  27  29  20   7   8   6  32 120 151 163 140 103 105 120 139 151 156 162 163 163 161 157 165 169 167 165 164 173 184 187 199 197 197 208 216 218 219 219 215 213 214 217 221 224 234 232 231 235 231 225 218 213 204 209 203 192 180 174 180 180 173 167 164 162 161 162 165 173 183 189 184 172 172 182 191
  19  19  20  21  22  21  21  22  23  24  24  23  23  23  22  23  24  18  23  14   9   9  14  25 106 149 156 162 137 103  98 114 131 143 153 160 158 158 165 162 165 175 177 178 185 195 205 209 215 222 219 219 215 215 212 209 212 214 214 218 224 226 231 228 228 228 221 214 203 199 204 196 184 171 174 176 176 169 163 161 158 155 160 166 174 185 191 190 177 174 184 194
  19  19  20  20  22  21  21  22  23  23  23  23  24  23  24  26  26  16  12  11   7  10  22  23  91 148 152 155 151 132  94  92 112 129 137 143 149 155 154 159 164 173 186 187 196 205 206 202 211 217 218 219 213 211 210 208 201 202 204 209 207 217 224 222 223 221 221 214 202 194 191 177 177 171 174 176 178 172 164 160 157 154 160 166 177 191 195 196 183 177 186 198
  18  18  20  20  20  21  21  22  22  23  23  24  23  25  26  26  29  26  19  13   9   9  20  27  79 145 154 154 155 147 123  92  91 108 118 122 128 140 140 147 158 164 181 181 185 197 203 206 204 204 210 208 201 205 203 195 186 183 188 189 190 198 206 206 213 206 205 206 204 190 170 184 202 169 173 181 182 173 169 166 163 159 158 168 181 193 198 196 188 182 186 198
  18  18  19  20  20  20  21  22  22  22  23  24  25  26  25  26  25  26  25  24  20  11  20  32  72 139 152 154 156 150 141 128  96  90 109 110 113 121 121 129 147 151 156 164 173 180 189 193 185 186 190 193 187 187 188 179 174 168 170 169 175 179 184 186 192 204 191 193 194 169 176 213 206 171 175 184 183 176 173 173 172 168 162 171 184 194 197 195 190 185 182 192
  19  19  19  19  20  20  20  21  22  22  22  23  23  23  23  23  24  24  25  25  24  19  25  28  69 135 153 153 152 155 148 137 122  97 101 102 101 100 107 117 122 127 136 149 162 163 168 170 161 160 157 164 167 170 165 163 164 156 154 160 159 162 170 167 172 185 181 184 171 165 205 219 208 180 180 183 178 172 173 177 177 175 167 173 186 193 193 192 191 186 181 183
  18  18  19  19  21  20  20  21  22  23  23  23  22  23  23  23  24  25  24  24  24  25  26  23  67 132 150 152 151 152 148 141 133 119 104  84  89 102 111  97  95 111 125 128 139 141 143 143 142 144 146 147 151 149 152 158 151 148 151 145 133 138 145 148 166 170 180 173 164 193 209 220 211 183 183 184 176 170 172 178 180 174 169 171 183 188 187 190 190 184 180 180
  17  17  18  19  19  21  21  21  22  22  22  23  23  23  23  23  23  23  24  25  25  27  20  30  80 132 145 153 150 151 147 141 137 131 118 100  85  83  90  93  99  95  95 112 117 112 115 130 127 118 126 125 130 135 134 144 137 136 131 130 126 121 127 139 151 157 149 162 184 204 212 222 213 184 182 183 179 175 175 179 181 175 167 169 178 184 185 189 189 180 179 183
  17  17  19  19  20  20  20  20  21  21  22  22  22  21  22  23  22  23  24  24  24  21  51  97  92 133 142 151 153 149 147 144 141 135 126 116 108  95  71  73  81  94  93  90 100  92  95 107  97 108 107 104 114 113 115 119 118 117 115 124 121 116 115 127 128 145 144 176 196 206 214 222 212 180 181 185 183 181 180 182 182 177 167 165 171 181 186 187 185 177 176 186
  18  18  19  18  19  19  19  19  20  21  21  21  23  22  21  22  23  24  23  23  22  16 140 173  89 137 142 148 152 149 146 143 141 138 132 123 120 110  92  74  66  75  83  85  96  94  90  92  88  92  95 105 110 102 112 109 113 106  97 103 106 106 106 112 127 163 185 192 199 209 215 221 213 182 182 188 189 185 182 182 179 177 169 165 169 178 184 186 181 173 174 186
  17  17  17  18  18  19  19  20  20  22  21  21  21  22  22  22  23  23  23  24  19  31 192 234 157 134 146 147 148 146 145 142 141 139 136 130 120 113 106  92  79  75  72  67  76  80  76  74  76  87  83  87  86  93  86  95  91  82  76  81  78  87 110 145 188 205 206 203 201 210 219 222 212 183 183 188 189 188 184 181 178 174 169 166 170 179 183 185 178 169 173 187
  17  17  17  18  18  18  18  19  20  21  21  22  21  22  22  22  22  23  23  25  14  66 222 241 231 171 142 147 147 144 144 145 140 138 134 132 124 116 110 105  96  86  79  76  68  67  67  65  65  67  64  66  65  67  65  68  68  72  69  70  81 114 145 184 209 215 215 208 208 214 217 220 218 189 179 183 186 188 187 182 179 174 169 169 180 184 188 185 177 166 168 184
  17  17  17  16  17  18  18  19  20  20  20  21  21  21  21  22  22  23  23  23  14 128 238 238 245 237 184 147 146 145 144 146 142 134 131 133 131 122 113 108 102  94  89  81  76  70  69  68  67  69  65  64  66  69  66  59  66  71  70  77 104 135 168 189 208 219 219 212 210 211 216 216 231 230 176 173 178 185 189 187 184 178 171 175 187 187 193 187 177 163 161 178
  17  17  17  18  17  18  18  18  19  21  21  20  22  21  21  22  21  23  23  20  31 189 241 240 243 249 247 207 159 148 146 143 139 135 133 132 131 127 117 110 105  99  95  89  87  84  78  74  69  68  63  64  66  66  66  65  64  66  73  88 110 136 167 192 209 219 220 214 209 211 214 216 227 255 208 166 172 180 186 187 186 182 177 177 185 190 191 183 177 160 155 167
