P2
# Generated by OpenCV 4.2.0
92 112
255
  81  83  83  83  83  83  82  74  66  61  52  55  59  62  71  82  85  86  84  80  63  54  50  43  42  49  78  65  53  51  50  49  51  53  53  55  52  52  52  49  44  48  61  69  72  64  57  41  13  21  18  16  32  34  33  42  47  42  36  27  28  41  50  41  45  46  52  52  60  62  88 116  93 100 114 112 106 103 100  97  97  99 101 103 104 105 107 107 108 107 106 106
  79  82  84  84  84  85  83  74  67  63  58  59  60  59  66  78  86  89  83  68  58  52  45  44  49  61  84  65  54  46  43  42  45  47  49  47  49  42  33  25  25  29  33  39  53  54  44  35  23  24  33  26  29  31  31  35  43  48  54  56  47  35  37  38  46  46  45  49  51  55  63  84 106  94 102 115 109 105 102 101 100 100 102 102 104 105 106 106 107 108 107 105
  76  82  84  84  84  85  82  72  67  67  66  68  63  59  63  73  85  89  73  60  54  54  58  60  59  67  74  55  47  42  43  40  42  40  45  47  41  25  15  16  19  26  29  30  36  47  64  70  73  60  53  52  60  60  61  56  56  57  53  55  56  59  59  50  47  41  43  46  45  45  51  54  72  96  94 111 113 108 106 103 102 102 103 104 103 104 103 105 107 108 107 106
  72  81  84  84  84  84  81  71  66  68  72  74  67  61  60  68  79  80  64  57  62  65  59  48  45  55  61  39  39  37  37  32  34  30  35  37  26  10   5   7  11  19  26  27  27  33  42  55  72  80  68  46  36  39  31  21  16  24  42  54  55  56  55  56  59  52  42  43  44  46  46  44  51  72  92  95 114 110 107 105 102 102 102 103 103 103 101 103 105 107 107 108
  69  79  85  85  86  88  81  70  66  69  77  81  70  62  59  62  75  66  64  64  55  38  25  23  19  45  53  34  39  27  14   7   8  13  24  28  13   2   1   1   5   9  13  22  27  22  28  39  53  63  80  87  58  53  58  56  43  27  15  17  31  52  45  40  47  55  58  51  45  42  49  51  43  55  77  86  99 114 110 108 106 102 102 104 103 103 101 102 103 105 107 109
  64  75  83  86  87  87  80  71  66  70  80  85  76  64  58  64  63  56  56  43  26  26  28  24  22  44  44  27  23   6   1   1  14  19  34  22   6   0   0   0   6  12  20  26  32  35  30  31  39  54  64  80  93  70  48  50  64  70  65  55  32  18  35  42  40  39  43  48  47  49  52  52  59  49  60  80  84 107 113 109 108 106 105 104 104 103 102 102 103 105 110 110
  61  71  81  86  88  88  80  70  67  71  80  89  81  65  61  59  45  46  46  35  39  38  33  22  25  38  42  28  17   6   5  16  23  32  38  15   2   0   0   7  10  12  18  23  28  43  48  42  38  42  53  71  81  94  88  59  48  51  57  66  74  64  41  49  59  55  49  47  55  52  51  56  66  63  48  71  80  93 115 111 109 108 107 105 105 104 104 102 102 105 109 110
  57  65  79  87  89  88  79  70  68  71  83  91  81  72  65  49  45  52  42  45  46  32  23  18  15  25  32  31  22  10  17  27  28  54  34  12   1   0   5  11   8   9   8  13  20  29  42  51  60  54  46  55  66  79  94 104  89  73  68  64  64  67  78  71  60  59  65  60  53  54  51  40  55  70  62  64  77  80 104 113 111 110 109 107 106 105 103 103 104 107 109 111
  55  61  73  83  88  88  76  67  67  72  84  89  82  77  56  44  44  34  50  50  35  22  17  14  12  23  28  35  32  28  32  37  52  65  35  13   2   2  11  11  11   7   8  14  16  19  30  43  55  66  63  60  63  63  76 100 115  91  74  78  79  72  66  65  66  54  42  43  38  40  61  50  43  65  74  67  74  77  90 110 112 112 110 104 106 109 105 104 106 107 109 111
  58  62  70  80  86  84  73  65  65  69  80  83  82  67  39  40  39  51  60  48  38  33  37  37  40  42  44  40  42  46  48  53  64  66  44  20   4   5  15  13  10   7   6   5   8  12  18  26  39  60  72  71  64  71  65  72  94 112 101  79  81  96  95  77  74  68  49  38  41  42  51  70  58  64  78  73  77  78  82 100 114 111 112 106 105 107 104 105 107 108 110 111
  66  68  75  82  85  81  75  69  67  75  83  79  73  48  48  51  63  66  54  49  52  56  55  56  53  50  52  50  57  61  61  66  67  71  59  34   9  14  18  14  11   5   3   9  10  16  20  26  29  42  71  80  78  58  66  72  71  87 105 105  84  68  77  90  84  85  82  69  62  57  60  60  73  65  80  83  80  78  76  92 112 111 111 103 102 108 104 105 109 109 110 111
  74  75  81  84  84  83  80  73  77  82  79  75  53  54  56  60  65  59  56  60  61  58  52  47  50  52  62  67  65  70  73  74  71  72  74  64  27  22  26  19  13   8   6  12  14  16  19  27  40  43  57  80  80  75  51  52  67  72  80  93 102  96  70  61  62  68  78  81  72  70  68  62  64  72  70  84  84  75  76  78 106 111 110  97 102 105 106 105 108 109 110 112
  85  85  87  84  88  89  85  83  81  80  77  59  57  59  54  55  54  59  68  70  59  42  42  41  50  68  73  73  76  73  77  81  76  72  74  85  58  37  41  28  19  16  14  15  11   3   1   3  14  39  60  68  87  94  95  65  46  52  65  80  90 109 106  87  64  49  50  57  61  56  60  61  64  71  78  82  84  75  76  61  90 112 108  93 106 106 106 107 109 109 109 110
  94  94  89  91  92  91  90  90  80  76  62  54  60  47  44  46  59  74  71  50  37  38  50  69  89  93  84  71  77  83  87  93  86  77  74  77  71  56  59  47  29  24  22  21  16   3   1   0   1   5  30  66  80  94 105 111  85  62  55  57  64  76  96 107 103  79  53  41  40  48  49  50  54  56  74  84  87  83  73  57  72 107 102  98 109 108 108 108 109 110 110 110
  94  95  91  94  92  90  93  84  61  45  44  59  44  33  43  62  77  80  53  38  43  52  76 103 107  95  91  82  81  91 101 101 100  89  82  76  74  70  65  63  50  38  36  31  26  15   6   2   2   1   1  20  68  90 101 114 121  81  70  69  61  58  63  78  95 104  89  62  33  29  35  37  47  50  52  68  68  78  71  58  60  94  97 109 110 110 111 111 112 112 111 111
  95  94  90  94  94  91  80  72  59  53  47  37  25  34  53  66  94  75  38  39  46  75 108 107  97  97  95  98  94  91  97 100 106 111  96  86  82  86  85  76  75  63  48  39  31  28  21  11   5   3   2   1   9  65  94 103 113 115  61  62  71  71  65  61  65  80  96  95  70  34  24  25  32  39  40  54  66  58  56  49  42  81 107 113 113 113 112 111 113 114 113 113
  92  90  90  92  89  73  69  60  63  67  51  26  27  41  53  80  91  45  26  42  71 103 110  97  96 101 105 107 110 111 112 112 115 121 115 108 102  93  95  92  91  82  77  63  54  42  33  29  23  18  12  10   5   8  61 101 101 107 115  59  37  55  70  75  72  71  78  88  91  75  37  21  26  31  35  47  59  59  53  56  50  76 110 114 114 113 115 117 118 115 115 115
  81  80  78  79  69  58  56  56  60  51  33  27  32  36  51  70  65  35  47  72 100 106 106 106 106 107 113 117 123 128 128 132 134 132 135 129 125 122 122 115 114 105 104 102  90  75  62  52  45  40  32  27  22  14  15  70 113 102 100 114  70  30  35  56  69  75  75  77  87  87  77  48  38  36  33  46  44  59  53  50  54  68 108 113 115 116 119 119 118 118 117 116
  72  70  70  68  56  48  52  57  50  35  27  30  31  30  42  59  54  42  69  94 101 104 107 108 110 118 121 129 136 136 141 148 151 151 149 149 146 150 153 153 145 141 140 140 130 123 115  98  88  80  69  57  51  45  36  31  82 117  96  90 116  91  41  25  38  55  66  63  65  81  79  78  70  83  63  47  35  46  53  38  43  57  89 116 118 118 118 119 120 119 118 118
  70  71  70  58  47  52  60  63  44  27  27  29  23  26  46  59  40  49  85  99 103 104 108 109 117 122 125 132 136 141 145 146 148 148 150 152 155 152 154 159 160 159 156 156 153 142 137 128 117 106 102  95  90  82  68  54  48  87 126  91  86 113 103  63  30  22  38  54  56  70  82  77  73  83  85  59  33  32  45  39  34  51  65 101 119 118 119 119 121 121 120 119
  76  76  71  52  55  59  67  57  35  27  25  19  16  39  58  38  44  78  98 101 107 107 109 116 123 121 127 135 141 142 145 148 149 148 152 155 159 158 161 161 161 160 161 161 159 149 144 137 130 122 111 104 104 105  90  74  62  50  89 125  88  82 114 106  76  48  24  19  35  52  69  84  76  67  71  74  34  28  32  40  35  46  52  68 118 120 119 120 120 122 121 121
  88  88  69  61  71  67  57  37  29  27  18  22  47  54  47  54  74  96  97 102 111 113 110 117 123 123 130 135 141 139 146 149 144 153 156 154 156 162 161 160 163 164 163 160 158 158 154 144 137 132 121 110 104 104  98  86  74  59  52  94 113  78  82 106 106  94  63  31  16  22  36  60  76  70  61  69  40  17  28  35  32  44  62  55  88 121 122 123 123 122 121 122
  98  96  66  77  71  59  48  43  40  34  36  52  60  58  68  81  93 100  95 105 112 109 112 118 121 124 129 133 138 139 139 145 149 151 152 153 154 160 161 158 159 163 164 165 165 164 161 158 150 142 135 122 115 107 100  95  83  68  58  55  95 107  74  72 106 111  97  73  40  16  19  28  55  71  62  60  54   9  21  28  33  31  55  78  64  73 111 123 121 121 120 120
  96  83  60  71  50  43  40  41  46  56  57  56  60  70  70  78  95  99  96 105 110 110 116 118 120 122 129 132 132 136 144 149 155 153 151 152 156 155 160 165 163 165 168 168 168 167 165 162 160 152 143 135 130 117 105 104  93  82  70  51  60  96  98  67  65  96 113  99  75  42  21  25  32  53  62  64  54  13  13  21  26  31  29  54  84  66  70  95 102 104 117 121
  87  72  67  53  15  15  17  17  32  38  44  54  57  56  61  84 101  99  98 104 109 113 116 120 120 122 127 133 138 138 144 148 154 156 161 157 157 162 163 165 166 169 172 175 176 176 172 170 166 159 150 146 142 131 118 107 100  93  81  65  49  65  89  93  52  53  87 108  90  78  42  19  27  32  50  61  57  19   6  13  16  27  35  32  48  78  79  84  90 105 117 120
  87  75  51  17  14  16  12  14  19  35  40  41  59  60  65  87  96  97 100 104 111 116 117 118 119 125 126 128 137 143 143 148 152 158 159 164 166 163 167 166 167 170 171 174 179 179 177 175 172 165 163 158 149 142 133 121 111 100  90  78  61  49  66  86  79  40  44  78  97  90  79  41  23  27  42  55  58  27   4   7  12  12  28  40  39  53  64  84  92  94 108 122
  99  70  27  21  17  19  20   9  10  44  45  49  46  58  66  84  97  96  96 104 114 113 122 116 119 126 130 128 127 139 149 148 151 156 161 167 172 171 168 166 169 167 171 173 176 180 183 181 178 170 170 172 163 151 144 140 125 109  96  95  80  58  50  62  76  62  34  40  63  84  86  76  36  24  31  43  53  44   8   5   7  10  16  28  40  48  51  56  71  66  86 113
  99  41  25  19  24  26  21   4  16  45  51  38  40  48  64  75  90  91  94 105 117 120 120 121 120 123 132 139 136 135 144 154 154 156 161 166 167 172 170 168 173 170 171 175 178 179 181 178 175 175 174 179 170 164 161 153 143 123 109 105  90  74  56  49  62  69  50  34  37  54  73  82  68  32  27  33  45  51  29   6   6   8  12  24  36  42  38  50  62  57  57  71
  42  40  27  29  35  26  17  25  33  37  60  38  35  42  50  70  87  92  94 105 117 119 122 122 118 124 135 141 147 147 146 157 163 166 172 168 171 172 168 173 178 179 177 179 184 182 182 184 180 182 183 179 174 173 171 167 154 147 129 111 104  91  66  52  51  63  58  42  32  34  49  69  83  60  30  32  36  42  39  21   8   6   6  15  26  41  45  38  37  43  48  47
  29  49  29  38  43  26  23  25  37  34  48  50  28  37  52  75  88  91  95 101 114 123 123 125 123 130 140 144 147 152 157 165 177 178 164 168 175 176 174 173 173 178 178 178 182 185 185 184 185 182 181 182 181 176 175 176 165 155 140 125 114 107  84  61  48  54  60  52  43  27  31  44  69  74  44  36  37  37  35  22   8   7   8   7  23  38  43  42  32  24  30  35
  62  38  39  55  36  20  16  13  13  28  37  45  30  34  56  74  87  91  96 100 115 122 126 126 128 132 140 143 148 155 162 179 179 163 168 177 176 175 173 176 174 169 173 183 185 185 184 183 180 181 184 181 177 182 182 184 178 168 157 141 129 117 103  78  56  48  52  53  45  39  25  31  45  71  60  42  45  35  36  34  14  10  17  18  20  35  44  46  47  42  36  33
  58  29  50  60  27  17  12  12  17  20  40  40  31  37  55  74  87  92  98 102 112 120 125 130 130 133 139 143 152 159 166 178 161 162 176 176 179 177 180 179 180 186 187 185 188 186 184 183 181 178 183 187 182 186 189 189 185 181 163 150 139 127 113 101  80  55  46  50  46  38  33  25  30  47  61  42  40  41  37  37  26   5  15  26  23  27  32  38  41  46  49  49
  21  36  60  47  27  14  10  13  23  33  58  38  30  41  57  73  85  95 102 105 114 120 126 129 130 135 139 145 149 161 167 167 164 179 184 181 183 181 182 184 185 186 184 185 186 187 180 180 182 177 177 180 181 183 184 189 188 184 177 166 150 136 121 110 103  79  55  48  51  38  39  29  23  35  48  52  38  41  30  39  42  14   5  20  24  21  23  28  29  32  32  37
  20  34  50  53  25  10  10  21  21  52  59  39  34  40  55  74  85  93 102 106 113 121 131 133 131 134 141 146 155 156 165 165 171 179 178 180 182 183 180 180 178 179 182 183 186 184 182 181 183 182 182 180 183 185 181 182 184 183 177 177 167 152 132 121 115 104  77  53  48  45  35  37  23  26  37  50  39  36  28  30  47  39   6   2  16  17  20  24  27  23  21  25
  41  31  50  54  18   9  18  19  28  63  46  45  39  45  59  76  86  99 103 102 113 122 132 139 137 137 139 146 153 160 164 168 167 170 171 178 181 183 183 186 181 181 184 191 192 190 186 189 189 181 183 184 180 178 179 180 181 179 178 174 171 164 151 136 122 116 105  72  47  45  39  36  30  22  33  37  44  36  31  21  37  50  26   3   2   6  10  13  20  32  34  26
  62  43  62  43  16  14  18  20  51  51  40  50  42  50  69  83  88  97 103 104 111 117 129 143 136 133 141 147 152 159 161 161 167 169 173 179 181 179 177 180 178 178 180 186 189 192 192 193 189 185 185 181 175 175 177 178 177 175 170 172 173 163 160 156 143 119 114 101  62  46  40  37  30  26  28  35  48  36  29  21  27  36  55  33   6   2   8  15  18  29  43  27
  58  41  65  44  18  16  19  34  54  30  32  43  43  59  74  82  89  98 104 109 113 120 133 141 136 137 141 147 158 165 165 151 163 172 172 174 177 179 179 176 177 178 178 182 189 190 188 187 188 189 187 182 174 175 175 174 170 176 172 172 173 173 168 163 163 143 124 118  92  57  33  34  32  28  25  32  42  45  28  25  19  30  40  57  46  13   2  10  18  17  19  24
  57  70  45  33  13  18  22  45  34  21  28  41  47  61  70  84  94  98 108 108 110 127 137 142 145 145 142 146 156 161 159 156 167 173 170 174 174 174 176 176 178 184 182 185 186 180 188 188 183 189 185 181 177 176 177 177 176 179 181 183 178 178 182 173 168 162 153 132 111  72  39  30  35  26  21  30  30  45  44  24  15  26  35  36  54  52  32  15   7  12  23  33
  48  82  40  22  15  16  31  28  21  18  28  38  42  58  72  90  94  96 107 104 106 126 135 142 144 143 142 149 155 160 165 172 175 176 176 176 176 176 173 172 179 180 183 189 192 185 189 191 183 184 189 188 188 184 183 184 187 186 185 185 181 178 182 174 173 170 171 156 127  89  47  27  34  28  24  24  26  34  47  36  16  15  29  41  34  47  58  44  28  30  33  38
  28  48  32  27  14  21  22  15  16  13  28  32  40  56  79  90  94  98 105 105 108 123 135 140 141 143 145 146 155 162 170 175 173 178 179 181 185 183 178 175 183 187 187 192 195 191 191 192 191 190 190 190 192 185 192 192 192 192 188 185 186 184 185 179 175 176 174 167 151 111  55  31  21  25  28  22  23  28  38  46  30  21  23  32  48  39  43  48  53  56  51  51
  38  22  26  17  15  21  12  13  10  13  24  30  34  60  83  89  93  99 104 106 106 115 133 140 138 145 149 147 155 164 166 175 179 185 185 187 189 192 186 186 191 194 197 194 189 188 194 198 198 200 195 194 193 193 200 201 197 199 198 190 184 183 186 181 173 176 173 169 160 135  84  44  26  16  28  29  22  27  37  45  42  29  29  28  35  52  50  44  51  49  48  51
  65  35  17  13  16  15  10   8   6  11  24  28  35  62  84  89  93  96 103 101 101 118 139 141 137 147 150 153 156 165 164 180 186 185 192 192 194 199 201 201 200 200 200 195 192 198 201 206 201 201 197 202 204 202 203 202 201 205 204 195 186 179 184 180 169 173 174 165 157 143 117  72  40  19  21  30  26  28  38  41  39  35  34  31  27  30  42  51  55  52  56  62
  69  27   9  11  13   9   6   5   3  10  25  34  33  64  83  87  89  96 102  98 106 123 137 141 141 144 148 152 155 163 170 179 187 188 193 196 195 204 204 203 206 204 201 195 201 201 201 202 204 206 205 207 208 206 208 204 203 207 204 197 188 184 184 182 177 169 170 170 159 141 127 103  59  29  15  23  31  20  28  45  39  35  24  31  35  39  39  44  46  52  62  61
  30  10  11  13  11   5   3   2   2   6  27  36  30  64  81  86  86  95  98  99 115 129 134 131 121 122 123 124 124 128 141 152 154 162 172 184 187 194 197 202 203 202 204 204 203 199 202 204 209 210 207 206 206 206 201 197 193 183 178 177 170 165 166 166 166 166 162 160 162 146 125 121  85  46  20  10  31  26  19  43  37  33  38  33  32  32  38  42  53  49  51  44
  12  15  13   9   2   3   4   4   1   4  33  34  29  60  81  86  85  92  97 106 111 113 115 113 100  94  93  99  94  92  94 103 109 119 131 149 167 178 186 191 193 192 203 206 205 204 201 206 209 212 206 199 195 185 176 171 140 119 114 121 127 134 131 128 132 134 134 139 149 151 137 123 108  60  27   5  21  31  23  35  44  22  30  38  38  40  39  40  54  51  31  28
  13  13   7   1   1   2   5   2   3   7  30  34  30  64  79  84  84  92  94  86  87  91  89  98  93  79  73  60  60  73  77  79  83  94 109 130 136 161 171 179 183 184 193 198 197 200 197 197 201 197 198 192 177 166 165 152 118 104  95  94  93  94  97  99 101 103 111 116 110 111 118 116 119  79  33  11   7  26  25  30  39  30  25  28  41  38  36  56  56  56  38  52
  25  17   3   1   3   5   4   4   6  13  30  32  35  65  82  83  83  82  72  73  83  83  78  82  88  91  87  85  73  65  65  68  73  79  96 115 119 144 162 165 174 175 182 182 181 178 183 184 183 189 190 182 173 162 142 138 117  93  84  81  77  73  73  76  86  98 101  90  87  92  94 101 110  98  47  18   8   6  17  31  32  29  27  30  35  42  52  61  56  21  58  94
  32   7   3   2   2   1   3   4   3  12  23  35  32  59  86  82  82  82  73  78  91 103  99  99 108 112 108 115 113  96  85  80  80  88  98 105 117 128 151 156 165 167 168 170 173 174 175 177 176 177 177 174 172 153 130 130 115 108 101  93  97 109 118 129 137 143 142 124 118 130 135 101  86 102  75  31  12   5   7  19  32  31  31  33  43  52  48  52  33   0  33 109
   7  12  14   1   0   2   3   1   3  10  17  33  26  58  86  81  84  80  82  92 102 104 108 109 108 112 111 115 126 120 123 117  96  92  92  95 106 114 127 141 149 156 157 162 167 171 173 173 171 165 164 162 156 141 134 126 115 119 126 136 152 159 167 167 164 161 152 144 144 149 143 124  96 102  94  55  19   9   7  15  20  28  38  40  42  37  35  31  30   8  12  94
  14  16  10   2   2   3   2   3   7   7  13  26  26  61  86  83  83  81  84  89 101 103  98 100 109 117 129 142 152 152 152 158 144 127 108  90  86  91 100 112 127 139 149 157 163 168 168 169 166 165 156 145 133 123 118 117 126 144 160 171 175 174 174 169 171 166 158 148 138 135 136 127 111 105 106  80  37  15  16  26  29  25  30  36  33  27  22  13  29  26  25  92
  45  18   7   2   3   6   9  11   8   2   8  19  41  62  86  87  84  86  90  92  95  91  90 100 114 122 130 145 155 162 164 172 176 176 159 136 111  92  85  85 100 120 139 149 166 176 180 179 170 156 143 129 118 117 125 136 153 166 156 144 140 139 144 150 144 153 157 156 142 128 124 125 121 112 112 102  67  29  19  44  49  43  36  42  31  18  13  16  17  31  54  96
  68  23   8  11  15  12  14  11   5   3   5  25  49  54  86  85  86  90  89  93  90  86  92  97  93  94 103 116 136 141 144 140 132 134 151 160 152 136 120 101  89  96 120 148 174 192 202 196 184 157 133 126 125 135 143 151 141 116 108 127 144 146 153 152 138 131 119 129 138 127 123 131 128 118 112 115 104  62  31  38  56  59  44  48  35  21  11  12  12  19  59 108
  60  29  11  11  11  12   9   5   5   5   7  34  46  59  91  86  88  92  87  96  93  89  82  72  86 102 105  95  92  87  98 108 118 110 109 118 148 153 136 125 105  96 107 140 169 189 200 200 184 158 131 128 137 144 143 137 117 118 120 110  98  88  92  94 110 119 123 111 105 127 130 135 129 118 116 123 128  85  53  38  53  68  40  44  35  17  17   9   9   8  50 109
  90  52  14   8   7   3   2   4   7   8   5  35  47  68  90  92  92  95  87  91  94  81  68  74  77  69  67  35  46  68  69  76  77 108 113 105 116 129 128 131 123 117 110 131 159 180 188 188 179 152 138 141 139 137 136 127 117 104 109  62  71  70  59  76  44  69  81  94 107 119 134 133 128 122 120 124 133  88  68  50  49  73  33  34  33  13  20  10   6  14  66 110
  89  65  19  14   8   3  10  18  19  13   8  35  57  66  85  95  93  96  89  85  89  87  74  53  43  73  91  44  74  48  44  94  94 163 125  95  92 115 141 150 148 130 121 131 157 174 180 181 176 155 157 167 166 159 142 109  97 136 190 108  84  53  50  86  53 114  93  60  84 118 124 125 124 126 123 128 133  88  72  58  44  72  29  28  29  12  17  16   6   9  69 109
  79  66  25  10   7  11  18  19  19  26  30  40  65  63  81  95  94  97  89  89  88  81  68  69  89 116 139  79  70  84  87  72 132 199 161 124  93 110 168 192 173 137 128 135 151 168 174 174 172 159 163 183 207 193 143 129 137 154 176 152  95 105  98  71 100 158 128 101  82  98 106 118 127 132 127 132 136  91  77  71  39  50  35  27  27   7  10  21   9   7  72 109
  90  84  25   1   9  15  17  21  18  39  61  52  62  57  80  96  92  95  97 100  92  90  90  90 106 123 142 136  94  97 109 128 161 153 144 147 159 167 176 184 154 130 131 132 142 160 167 161 161 155 159 172 193 192 181 169 159 144 151 161 156 145 140 120 144 149 140 127 125 133 123 120 132 131 129 128 131  85  80  80  35  37  30  30  11   4  10  20  10  14  79 108
  92  88  50  10  10  19  21  20  24  32  59  65  61  58  80  91  94  99 105 112 111 108 104  97  99 116 123 129 141 142 146 156 151 156 141 133 149 161 164 161 136 137 132 128 140 158 163 160 164 152 158 160 177 183 173 168 151 138 148 154 159 158 173 155 149 152 144 140 140 146 152 141 138 140 136 128 131  86  83  90  31  29  25  28  11  11   9  14  11  39  98 105
  91  90  91  55  11   7  15  31  27  32  50  68  67  65  76  90  94 102 110 122 125 119 112 108 100 104 113 122 135 142 146 144 143 141 135 147 155 165 169 151 140 138 131 125 134 156 164 160 164 152 152 160 166 179 175 172 163 146 140 143 146 151 158 160 156 148 139 137 146 152 156 156 151 149 140 131 134  90  80 100  28  24  24  23  23  21   8  12  10  69 108 104
  90  91  93  90  52  12  13  42  33  53  89  76  69  68  70  88  93 103 118 130 130 124 123 124 118 110 110 113 117 126 130 141 153 160 155 165 170 170 161 147 144 142 133 123 127 157 171 171 162 150 149 157 161 169 184 181 180 179 175 167 154 141 139 144 140 140 145 153 158 166 157 157 158 154 143 129 134  94  74  93  35  23  21  24  28  22  20  13  17  83 107 102
  89  90  90  90  88  65   7  42  59  75 124 105  70  68  68  87  92 103 123 136 139 136 129 133 137 135 134 140 140 155 166 172 173 166 164 173 180 172 155 146 145 143 130 119 129 155 172 178 168 145 139 150 162 167 177 189 193 184 184 187 189 189 183 175 166 167 174 170 167 168 168 162 161 158 146 132 133  98  76  95  34  23  26  25  21  18  27  13  33  99 106 103
  88  89  89  89  90  92  67  62  81  91 131 115  80  65  69  88  92 105 124 140 145 144 136 140 133 135 150 157 165 175 176 176 176 164 174 182 175 167 147 140 142 133 120 117 129 154 169 172 168 148 138 146 158 166 169 180 195 196 187 183 186 190 190 184 178 175 175 178 170 172 176 171 165 155 142 133 135  95  82 104  32  26  26  23  25  29  29  21  66 106 102 102
  88  90  89  89  90  90  90  92  97  98 131 113  79  67  71  87  92 105 122 141 150 154 154 150 150 148 154 160 170 174 172 172 165 167 180 183 166 154 143 140 134 123 115 117 130 154 165 167 165 154 144 142 155 159 165 180 187 198 198 195 189 191 192 191 188 184 184 185 178 176 179 175 168 152 142 132 136  96  83 113  36  34  47  36  40  57  39  38  93 104 101 101
  88  89  89  89  90  90  89  90 114 102 119 100  78  71  72  85  90  99 116 138 150 158 160 160 158 156 160 166 169 172 170 169 170 182 185 177 167 151 146 140 126 118 114 118 134 149 156 160 157 151 143 141 149 156 163 179 186 191 198 201 196 192 194 197 195 193 190 187 185 182 183 175 169 153 143 134 134  99  87 117  48  48  73  76  78  88  52  79 104 102 100 100
  89  89  89  89  89  90  88  85 114 113 114 108  80  69  72  83  88  99 117 135 145 154 165 165 166 168 173 172 168 172 180 184 178 182 178 172 165 147 139 130 123 112 112 121 138 150 158 158 161 156 142 139 143 151 158 174 183 183 191 191 192 193 191 192 197 195 190 185 186 184 181 176 167 151 139 135 128 101  97 112  68  85  96 101 106 109  75 102 102 101 100  98
  88  88  89  89  89  89  88  84  97 126 129 113  85  65  75  80  88  96 109 125 135 148 162 168 169 169 172 174 181 187 185 189 182 174 173 173 162 149 136 127 119 110 116 126 144 158 165 166 169 166 150 138 140 145 156 172 180 184 193 192 188 195 197 183 187 197 193 189 185 187 184 174 162 150 136 130 126 101 112  99  80 117 107 109 102  92  92 102 102 101 100  99
  88  89  89  88  88  88  88  87  84 112 144 129  98  64  73  75  86  94 104 119 133 141 154 167 164 163 178 182 182 190 186 187 181 171 174 165 159 150 137 123 110 112 119 127 149 171 177 179 179 172 158 142 136 141 158 174 179 187 191 192 192 191 191 186 181 197 200 198 193 188 182 172 157 145 134 127 122 104 122  98  77 140 121 116  89  89  99 102 101 102 100  98
  88  87  88  89  88  88  88  87  82 101 150 137 125  75  58  73  84  94 101 110 124 136 149 164 165 167 178 187 185 185 179 180 177 170 171 169 160 145 132 116 111 117 124 136 164 186 194 195 197 181 166 144 135 137 146 179 183 181 186 190 191 192 193 197 195 193 195 194 191 188 176 168 155 138 130 126 118 100 130 113  71 108 124 145  96  92 101 101 101 101 100  99
  86  87  87  88  88  88  87  88  85  93 136 128 129 104  52  60  78  91  98 105 115 127 140 153 158 167 174 178 183 180 176 177 176 171 172 169 158 146 129 114 118 117 120 137 167 180 181 188 192 180 153 135 135 140 142 171 188 186 188 193 192 192 192 193 194 193 190 189 185 180 172 162 149 135 127 126 115  93 124 120  79  82 135 160 111  95  98  99 100 100  99  98
  85  85  87  88  89  89  88  87  88  88 127 130 114 122  74  47  72  88  93 101 110 123 132 145 155 158 167 174 181 175 175 176 173 172 164 160 161 153 126 115 118 114 101 107 128 146 151 165 166 145 129 125 131 140 139 158 188 193 191 194 193 194 193 195 197 192 191 184 180 169 167 157 150 135 127 119 111  97 110 106  98 113 141 141 114  97 100  99  99  99  98  97
  83  84  87  88  88  88  88  87  88  85 111 138 114 110 101  52  64  85  93  97 104 119 134 141 154 156 159 170 176 176 178 169 173 168 157 165 157 146 119 118 115 104  89  93 103 109 128 141 134 127 114 106 122 144 142 149 175 196 199 193 193 191 193 195 196 194 187 179 172 172 164 153 141 131 127 120 107  94  94 102 126 142 142 145 103  96 100  99 100  98  97  96
  83  84  86  88  88  88  88  88  88  87  94 121 125 123  99  66  63  83  89  94 100 107 119 132 141 150 156 163 166 173 176 172 175 168 162 171 161 142 116 119 110  56  17  23  60  91 102 113 114  86  22  15  67 131 144 148 172 190 195 197 193 191 195 194 194 193 192 183 172 170 162 148 137 130 122 117 104  95 100 131 160 141 157 139  94  96  99  98  99  98  96  94
  83  84  86  87  87  88  88  87  87  87  97 112 119 145 132  84  59  86  84  90  98 101 109 126 138 142 147 157 165 168 173 173 173 169 169 175 161 142 118 111 105  54  36   2  20  73  78  87  96  78  33  44  60 115 142 146 170 182 189 194 195 194 194 196 193 189 189 181 167 161 154 144 135 132 122 121 102  96 104 142 173 161 152 116  90  96  98  98  98  97  95  93
  82  84  84  85  87  87  86  86  87  86  92 128 130 141 149 107  57  85  85  89  96  98 104 115 134 137 144 156 163 166 172 176 172 173 173 170 160 145 123 103 121 114 128  93  97  88  75  79  97 113 126 141 112 114 124 149 172 181 184 193 197 195 192 192 193 187 183 178 168 161 155 141 133 129 125 125  96 112 126 133 175 176 158  98  90  94  96  97  96  96  94  91
  82  83  84  85  85  85  85  86  86  87  89 122 144 140 133 100  60  83  88  87  94  98 102 107 123 137 138 153 161 162 168 172 175 172 172 171 158 150 140 106 102 125 144 165 161 131 113 115 121 137 165 152 119 116 143 173 178 186 181 185 197 195 188 191 194 185 180 175 169 163 153 136 133 132 126 123  90 104 157 152 170 176 159  92  91  92  95  95  95  94  93  91
  82  83  84  84  85  85  85  85  85  86  85 119 145 147 143 122  70  78  88  87  92  96 100 107 117 122 138 154 160 167 167 168 177 176 181 172 160 161 166 149 123 134 147 165 181 184 166 159 173 175 170 163 164 173 181 185 188 188 187 188 191 195 194 190 186 184 172 173 165 157 148 137 137 133 130 123  94 100 148 173 176 180 145  86  91  91  92  95  94  93  91  91
  81  82  83  83  84  85  84  85  86  87  85 106 142 149 152 142  81  74  92  90  93  98 100 102 111 126 136 153 158 162 161 172 173 181 177 168 164 166 167 169 165 157 158 174 186 197 202 191 189 181 180 181 178 178 185 187 187 188 187 185 184 194 196 195 175 164 172 173 163 155 145 138 138 134 135 128  97 110 160 173 168 169 116  74  89  92  91  92  93  92  91  90
  81  82  82  83  84  85  86  84  85  87  85  92 133 151 157 139  92  69  88  87  91  95  99 103 107 123 131 144 151 160 165 171 175 175 169 164 165 167 169 169 167 154 160 173 173 184 180 179 178 178 180 175 165 160 169 178 183 182 182 184 179 181 187 191 173 134 162 171 159 156 143 134 137 138 138 132  99 107 157 172 164 139  90  79  86  92  91  91  90  91  90  90
  81  82  83  83  84  85  84  85  86  85  86  87 113 147 154 139 104  62  86  90  91  95  94  96 105 118 130 142 154 159 162 167 172 167 168 165 165 163 163 156 153 140 153 167 168 170 166 183 184 183 180 171 156 152 159 167 170 183 182 177 176 178 177 172 155 147 163 158 155 153 137 133 135 138 140 128  99 101 135 144 120  95  90  87  89  91  92  91  90  90  90  91
  81  83  83  84  84  83  83  84  85  86  87  88  90 115 132 134 101  61  82  88  92  98  95  93 101 115 126 134 154 160 157 161 163 163 167 163 161 161 155 136 133 136 149 161 169 180 182 187 186 179 177 163 150 140 134 150 156 164 174 174 171 177 175 173 169 176 158 149 156 144 131 129 133 135 138 125  96  76  47  38  40  69  93  90  89  91  91  91  90  89  90  93
  81  82  83  83  84  84  84  84  84  86  88  88  88  86  92  94  79  62  80  89  95  94  93  91  97 111 122 132 145 154 150 149 152 162 156 161 159 154 147 127 122 136 146 165 182 180 181 182 183 171 167 157 146 140 146 153 163 154 155 155 158 163 162 169 148 151 163 163 152 139 127 127 134 138 140 127  99  54  15  12  28  60  85  87  90  90  90  90  90  89  88  93
  82  83  84  84  84  84  83  83  84  86  87  88  88  90  84  59  49  60  76  92  95  93  93  90  89 101 116 130 140 143 144 137 147 147 140 145 147 145 139 121 129 138 150 170 177 176 173 177 176 171 169 166 158 156 155 149 159 165 157 155 161 161 161 161 138 132 152 152 142 133 124 129 136 145 139 132 102  52  15  19  26  52  81  86  89  90  90  89  90  89  88  94
  83  84  84  84  84  83  83  83  84  85  86  88  88  89  92  71  48  57  73  91  97  95  92  87  87  97 111 123 133 135 137 130 133 130 140 148 144 140 135 131 138 144 154 163 170 182 182 180 176 177 179 165 158 161 160 156 156 166 166 162 157 158 161 148 152 148 143 145 141 124 126 134 142 147 144 132  96  64  24  17  22  45  76  86  88  88  88  88  89  89  87  94
  82  83  84  84  83  81  81  81  83  84  85  86  88  88  92  81  51  52  67  90  99  97  98  87  84  88 104 119 130 128 132 122 123 129 142 148 144 136 136 142 146 145 141 139 150 156 162 170 166 146 139 132 140 141 138 132 134 151 156 148 140 145 152 145 139 147 146 143 131 121 127 138 142 143 139 128  94  57  23  15  22  46  70  84  87  89  89  89  89  89  88  95
  92  89  85  84  83  82  87  94  99 101 100  95  91  90  90  86  60  50  66  87  96 103 104  92  84  87  95 107 119 118 119 115 118 133 134 133 130 133 129 124 118 119 119 115 115 117 113 118 112 107 119 133 139 135 125 115 102 102 117 133 137 139 136 148 133 136 138 136 121 120 133 142 145 150 141 122  99  52  23  22  26  45  71  84  87  90  89  89  89  89  88  95
 112 103  90  85  88 103 123 135 144 146 145 138 123 104  92  89  73  52  64  88 100 109 110 100  89  84  87  97 108 114 105 115 132 139 127 118 106 101  99  97 100  98 111 124 117 105 100  86  86 102 103 110  99  87  87  95  89  87  80  69  78 101 133 150 141 122 125 131 123 127 141 147 148 154 140 120  93  51  27  30  26  46  77  88  88  87  88  88  89  90  89  97
 128 118  97  88 115 146 159 164 166 170 175 177 163 133 103  92  85  60  63  86 100 110 114 107 100  89  87  89  96  99 104 122 130 127 110  85  50  44  61  71  63  54  58  73  75  65  70  70  69  81  81  92  96 101  99  94  78  78  85 110 124 131 143 143 149 139 126 129 125 136 151 151 148 150 137 120  83  55  35  20  22  49  82  89  88  88  88  88  88  89  87  98
 140 131 107 112 154 172 171 170 170 174 183 189 179 156 120 104 109  69  60  83 100 110 120 115 106  94  89  87  92 100 116 130 128 125 110 101  87  74  62  58  67  85  93  99 111 118 125 133 141 142 140 147 148 148 146 139 130 133 154 168 177 177 155 144 150 151 135 129 131 146 154 151 148 144 126 117  78  54  27  12  29  58  87  88  87  87  87  86  87  88  85  99
 157 148 122 142 177 179 174 170 165 166 181 193 182 163 130 125 147  86  51  78  99 108 118 116 110 106  95  89  89 106 118 124 137 146 161 168 165 145 122 112 115 120 126 141 144 147 148 153 150 158 165 165 165 163 157 156 157 161 165 168 178 171 159 155 151 145 131 130 134 151 156 151 149 134 123 111  79  43  19  22  43  90 100  98 102 103 101 102 102  98  91 107
 182 169 148 168 187 185 176 155 129 125 155 181 171 149 139 150 170 109  40  75  97 106 117 122 120 117 105  94  87 102 112 126 142 158 163 165 163 152 146 140 139 146 150 159 166 174 168 173 176 181 183 185 190 186 183 180 176 173 170 171 178 179 165 158 152 143 137 133 144 157 153 149 144 135 120  98  62  40  24  41 100 128 118 119 132 145 147 145 140 130 118 131
 197 181 173 189 192 187 163 113  78  80 108 147 143 131 145 171 187 139  38  64  96 107 117 127 121 121 119 104  90  95 110 142 157 155 157 161 164 158 157 156 154 163 168 170 171 175 174 175 177 176 176 180 183 183 181 177 178 175 171 171 170 178 168 164 155 148 137 142 154 156 153 148 142 134 110  87  72  65  86 136 156 147 133 138 159 176 180 173 160 152 144 156
 199 185 187 202 196 185 140  85  75  82  88 112 116 115 148 183 197 160  38  46  88  99 113 126 125 120 123 113  97  95 111 133 149 154 157 160 159 152 158 161 160 163 165 170 169 172 173 168 175 175 176 180 179 181 181 173 172 168 167 167 168 168 165 159 150 145 140 140 152 155 157 148 139 126 102  80 101 127 168 187 178 166 147 153 176 192 195 187 167 154 156 177
 196 184 193 207 200 180 126  80  85  98 107 118 121 123 157 190 201 189  67  21  73  96 100 118 123 122 124 117 106  95 103 123 136 148 154 154 152 148 151 158 158 164 162 163 164 170 165 166 171 171 173 180 172 179 176 165 160 160 160 168 170 164 160 145 147 147 143 146 156 157 152 144 138 117  85  80 111 150 187 194 191 172 150 160 189 199 201 191 162 141 153 185
 192 185 191 206 202 177 121  81  95 114 135 155 152 139 169 198 202 186 118  20  46  91  94 111 126 125 124 121 110  99  93 109 123 135 145 146 146 151 148 151 154 163 164 157 156 162 165 164 153 159 161 169 172 168 166 164 159 161 162 168 165 160 164 152 149 149 148 147 154 155 147 144 134 103  68  94 115 146 185 196 192 168 135 152 188 196 196 183 145 118 134 179
 189 182 187 207 206 178 124  83  96 124 158 181 175 160 177 203 202 173 141  72  44  69  91 105 120 123 123 125 114 104  90  99 113 129 140 142 146 146 144 147 152 156 158 157 156 162 161 157 153 157 161 165 171 170 165 162 165 165 162 162 162 167 170 165 154 152 146 150 156 148 144 136 126  84  72 110 118 144 181 193 190 164 130 149 186 196 194 179 142 113 125 172
 185 174 187 208 208 182 129  85  93 131 175 198 191 178 186 201 203 189 154  96  35  43  72  91 106 117 121 120 120 110  96  99 109 121 135 140 144 138 143 146 146 152 155 159 162 161 159 158 159 159 165 171 174 175 174 168 167 168 166 168 167 166 170 162 160 153 145 151 157 144 131 123 107  78 103 121 119 146 182 194 190 163 130 151 190 205 202 187 155 130 134 176
 180 167 186 209 210 190 142  91  83 128 185 207 200 186 184 198 208 198 159 104  53  56  54  76  97 111 117 119 118 114 104 101 110 117 130 137 138 135 140 143 143 147 153 157 161 160 159 162 155 156 163 169 178 179 169 175 172 173 178 176 171 170 170 165 157 143 143 151 149 138 123 109  84  94 122 118 120 149 182 194 189 163 131 152 192 206 206 191 158 137 145 182
 176 156 173 201 211 200 162 110  81 116 179 206 200 181 170 190 207 202 174 123  86  85  67  55  81  98 102 117 121 110  95  91 103 122 129 134 140 137 143 146 148 154 156 156 164 170 173 169 148 163 176 181 185 179 171 183 184 180 183 181 175 173 169 164 152 145 137 146 142 132 110  89  85 114 128 119 120 152 183 194 189 161 131 154 191 204 206 191 157 135 145 184
 162 127 141 188 210 208 185 145 103 123 178 205 199 175 155 178 207 207 190 152 106  90  89  65  54  78 102 111 115 104  98 102 114 121 130 131 137 140 139 151 152 152 162 168 171 172 175 180 178 186 189 184 178 173 178 189 188 185 182 185 176 170 163 159 151 142 139 134 130 116  86  76 109 127 130 118 121 154 183 194 189 161 130 154 188 197 199 182 144 120 134 183
 135  91 107 166 199 207 199 179 154 160 192 207 197 170 137 158 198 207 200 181 155 127  89  89  57  52  83 107 111 104 110 102 101 115 123 131 139 145 150 159 165 166 174 172 163 166 174 178 184 188 184 183 179 174 172 176 181 182 177 174 169 166 151 147 142 132 133 125 114  94  73  95 129 132 131 119 123 158 183 194 189 161 131 156 188 193 186 160 120 106 130 182
 119  80  88 137 178 197 196 188 180 179 193 198 188 160 118 129 177 198 199 192 185 162  90  94  80  52  60  90 104  98  97 100 102 107 119 129 142 144 153 162 165 169 165 156 154 164 175 177 176 178 181 177 183 181 174 171 171 176 172 165 164 163 146 126 131 120 124 114  93  66  79 120 134 136 135 118 129 170 187 197 191 164 138 161 191 197 189 170 135 118 138 190
 106  83  83 102 140 172 184 182 175 173 178 181 171 142 101  97 143 178 189 186 181 168  97  90  96  72  44  57  82  93  92  93  94 103 107 121 129 140 152 154 155 164 158 152 151 170 183 182 182 181 178 176 177 178 172 171 165 168 166 165 156 146 144 127 123 119 110  90  68  70 108 131 134 139 135 120 136 180 188 195 190 168 151 167 191 200 199 188 159 140 155 198
  89  81  85  86 100 128 153 164 163 160 159 159 145 116  89  84 106 138 163 171 169 164 104  90 102  92  65  36  59  83  83  77  80  86  94 118 129 135 147 153 153 145 148 158 160 171 183 181 176 174 170 170 172 174 175 172 160 161 164 147 135 127 129 121 109 109  94  69  74 107 131 136 137 138 135 123 129 167 177 181 176 157 145 159 181 191 192 182 161 151 158 196
  82  84  88  87  86  92 107 121 130 131 126 120 105  88  83  88  87  97 116 133 139 141 102  89 102  95  81  56  47  56  69  74  75  82  92 113 124 120 136 149 139 134 145 160 164 170 171 172 165 158 153 157 163 170 166 159 150 158 163 142 123 116 106 105  90  81  69  69  96 120 132 138 142 138 135 122 119 143 157 164 156 137 127 140 161 175 175 166 154 147 143 178
  86  87  87  88  88  87  86  87  88  90  88  85  82  83  88  89  88  87  86  92  96  96  88  91 104 102  91  81  69  56  55  59  69  78  91  94  98 106 129 124 126 127 133 145 141 151 147 156 159 155 151 158 151 152 150 153 142 128 138 122 106 110  97  94  74  69  76 103 120 131 137 142 144 143 136 126 113 116 123 132 126 111 107 113 127 143 144 141 133 124 110 155
  89  88  88  89  88  90  88  86  85  84  84  86  87  89  90  89  89  90  88  85  83  84  84  90 104 108  99  93  86  78  63  53  55  62  65  71  94 110 106 112 125 116 119 129 136 141 141 152 151 155 141 153 134 148 140 133 138 121 113 118  99 103  90  74  73  86 104 121 128 135 138 144 146 144 137 128 104  86  89  92  92  87  86  88  93  94  94  97  97  90  75 139
  88  88  89  88  88  89  89  87  87  88  87  88  89  90  89  90  89  89  89  88  88  89  75  86 102 107 106 103  96  86  71  59  57  50  62  69  85  99  92 105  95  96 114 112 126 133 137 146 136 139 134 139 123 131 125 112 111 105  95  94  87  86  79  65  87 109 120 121 132 140 143 147 146 144 138 127 124  95  81  83  83  82  84  83  82  81  80  81  82  80  69 136
  88  87  88  88  88  88  89  88  87  86  87  88  89  90  90  91  90  91  90  89  92  53  39  88  99 108 107 110 102  88  76  67  66  63  54  58  71  71  77  89  87  90 111 101 122 121 136 129 121 122 124 124 125 121 107  93  93  91  86  72  64  78  81  95 112 125 126 129 138 141 148 151 147 143 139 124 152 146  80  88  88  87  86  86  86  87  87  87  87  86  74 141
  87  87  88  88  88  88  89  87  86  85  87  88  88  90  92  91  91  91  89  93  67   0  87 104  94 105 109 113 115  99  86  76  74  72  60  68  53  58  81  77  80  96 103  93 113 108 110 130 106 110 107  98 104 116  98  74  93  90  70  68  72  99 116 119 126 132 133 138 142 146 151 151 146 144 139 124 147 194  89  86  87  87  86  86  86  87  88  88  87  87  75 143
  87  86  87  86  87  89  88  87  87  87  87  87  87  90  90  91  92  92  93  84  16   0 146 115  88 103 110 115 120 112 101  96  93  81  72  67  56  61  68  58  70  77  82  90  94 100  97 102  85  82  87  87  85  96  83  71  77  69  74  86 105 122 128 126 136 138 137 140 145 147 153 150 145 146 142 125 135 220 118  81  86  86  86  86  86  88  88  88  87  88  76 144
  86  86  87  87  88  88  87  89  88  88  88  88  88  89  90  91  92  92  93  43   0  29 182 128  84 100 105 110 118 117 117 110  95  85  74  72  70  61  58  68  59  52  63  74  73  80  83  77  73  76  71  78  68  66  62  76  82  85 106 121 129 131 129 133 137 139 141 147 155 157 151 146 149 146 138 125 128 229 145  77  88  87  85  86  87  88  89  89  88  88  77 151
  87  87  87  87  86  87  88  88  89  89  89  89  89  89  90  90  91  94  67   7   0  72 196 144  82 100 105 109 114 118 120 114 108  98  88  81  76  71  70  64  58  54  51  52  49  44  52  49  44  48  45  46  48  54  64  80 100 119 127 132 132 132 129 132 136 141 147 152 154 152 148 147 150 141 137 122 129 233 170  64  89  87  87  86  88  89  90  90  90  89  79 157
