P2
# Generated by OpenCV 4.2.0
92 112
255
  38  36  36  37  37  35  36  36  36  34  33  33  33  34  33  32  32  31  30  30  29  27  28  27  27  28  27  25  41  46  37  43 107 153 148 141 123 132 120 118 121 125 141 130 111 113 107  97  95  79  62  68  77 100 126 139 143 145 144 144 144 142 142 141 141 141 141 141 141 141 141 141 140 140 139 139 140 139 139 138 138 138 138 138 138 138 137 138 139 138 136 149
  39  38  37  38  37  38  36  38  36  35  33  32  33  33  32  31  31  30  28  29  28  28  27  27  27  26  27  33  48  49  50  54  87 119 116 109 107 117 121 128 115 134 135 120 116 110  93  81  86  80  64  51  59  83 103 121 129 134 139 143 143 142 142 142 141 141 141 142 141 140 141 141 140 140 140 139 139 138 138 138 138 138 138 138 137 137 138 136 137 137 138 142
  39  37  37  36  38  38  37  36  35  36  34  34  34  33  32  32  32  31  31  31  28  27  25  25  30  36  58  70  73  73  86  93  83  74  85  88 106 122 125 137 134 138 128 115 108 100 103 113 104  98 104 103 103  97  89  92 100 119 133 135 140 140 141 142 142 142 143 141 141 142 141 140 140 140 140 139 139 138 138 138 138 138 138 138 138 137 137 137 137 137 137 137
  39  37  37  37  36  36  37  36  32  34  34  35  34  32  31  31  31  32  29  27  34  44  49  64  82  94 102 104  97 100 105 124 127 113 114 120 138 137 131 138 144 142 136 127 136 151 155 154 153 149 139 135 120 109 103 106 109 107 120 128 133 140 139 141 142 141 141 141 141 141 140 140 140 139 139 139 139 139 139 138 138 137 137 137 136 137 137 137 136 136 137 137
  39  38  37  36  37  36  35  36  36  33  34  34  31  32  32  30  31  29  30  49  77 101 108 112 117 125 132 131 127 129 108 120 139 141 138 135 134 139 144 142 143 140 129 123 122 128 140 147 140 126 123 127 111 107 104 104 105  99  91  97 117 119 133 141 142 141 141 141 141 140 140 140 140 140 139 138 140 139 138 138 138 137 137 137 136 137 137 136 137 136 138 137
  40  38  37  37  36  36  36  37  36  34  33  32  31  31  31  33  34  47  74 100 117 119 120 116 112 114 129 147 152 137 119 115 131 144 138 133 132 125 128 136 121 120 116 131 144 162 175 168 170 167 162 151 122 108 102 102 102 100  96  97 104 110 103 112 134 142 143 140 141 141 140 140 141 139 139 138 138 138 138 138 138 137 137 137 136 135 137 136 136 135 136 137
  38  37  37  37  36  36  35  36  36  34  35  34  33  30  37  38  42  84 105 114 103  80  93 127 141 138 126 128 151 154 120 114 115 127 127 124 122 115 137 138 143 164 183 181 181 189 201 196 190 180 173 166 162 154 144 126 115 107 105 102 105 109 112  97 101 119 139 143 141 140 140 140 139 139 139 138 139 138 138 138 137 138 138 137 137 136 136 136 136 136 136 137
  37  37  37  37  37  36  35  37  34  33  34  34  32  35  47  37  78 112 107 103  89 104 102 106 136 150 132 122 133 152 143 113  96 116 115 113 130 138 130 139 157 159 148 149 158 166 171 170 170 167 177 176 164 151 148 150 154 137 117 107 104  99 101 107  98  95 112 135 144 142 140 140 139 140 139 139 140 138 138 137 137 137 137 137 136 136 136 136 136 136 136 136
  38  38  37  37  37  36  37  36  35  34  32  32  31  35  36  64 119 108  83  74  58  82 127 118 119 141 150 114 109 130 146 116  85  88 114 120 129 121 140 160 152 125 124 127 125 130 125 123 121 133 152 157 158 157 153 140 142 150 148 120 108 112 103  95  96  86  85 101 124 139 141 140 140 139 139 139 137 138 138 137 137 137 137 136 136 136 136 136 136 136 136 136
  37  38  37  36  37  35  34  33  35  33  32  32  32  42  62 103 106  81  51  37  56  73 116 134 115 125 150 138  93 101 146 122  80  83 118 126 107 136 152 137 120 101  92  92  96  76  70  73  81  85  91 111 133 157 158 148 142 145 164 150 111  97 103  99  94  98  84  75  90 107 126 139 140 138 139 139 138 138 138 137 137 137 137 136 136 136 136 135 135 135 136 136
  37  37  37  37  37  35  34  33  34  33  33  31  32  57  84  90  81  66  55  69  73  67  83 111 126 123 124 141 112  97 139 116  82  99 132 107 112 144 135 103  80  59  60  72  52  47  49  42  43  44  60  67  72 105 134 145 142 139 147 166 159 123  97 100  98  98 107  95  79  78  90 117 141 140 139 138 138 138 138 138 137 137 136 135 136 135 135 135 135 135 135 135
  36  37  36  36  37  36  34  33  34  34  32  31  39  70  79  81  75  70  71  63  59  57  59  75 103 126 113 115 144 119 125 108  93 112 130 101 127 120 117  83  55  37  53  48  32  35  40  27  32  38  41  38  41  56  75 101 147 138 129 142 160 163 128  99 100  98  94 100  94  89  73  83 115 139 140 137 138 138 138 137 137 136 136 136 136 135 136 135 135 135 135 135
  37  37  36  36  37  37  34  33  32  32  31  33  65  83  85  83  77  80  82  75  66  66  66  75  97 108 125 105 122 144 129 112 106 117 117 110 123 108 116  70  51  36  49  44  29  40  29  25  31  36  31  31  34  35  33  40  80 116 133 139 147 162 157 127  96 104  95  98 103  98  91  80  89 115 138 138 138 138 138 137 137 136 136 136 136 136 136 135 135 135 135 135
  36  37  37  36  35  34  34  34  33  32  31  52  72  76  88  92 103  95  76  52  46  78 110 117 113 127 125 133 117 143 145 128 115 116 122 116 125 108 107  81  52  35  52  48  34  47  29  28  28  35  28  24  23  23  19  18  25  31  74 117 130 146 155 156 119  80 110 107  99 105  87  93  88  91 119 138 139 138 138 137 136 136 136 135 136 136 135 135 135 135 135 135
  37  37  36  34  33  34  34  34  33  32  39  59  75  90  94 106  77  59  34  46 107 140 139 127 105 110 125 139 153 153 162 148 124 127 128 118 125 124 108  95  65  46  59  56  51  59  33  36  31  34  19  19  22  18  13   8   9  16  22  60 107 135 143 151 145 104  76 107 105  93 102  94  97  90  98 127 137 139 138 137 137 135 136 136 136 135 135 135 135 135 135 135
  37  36  36  35  33  34  33  33  32  37  44  63  84  97 101  79  56  47  83 128 125 136 121  90  89  99 116 141 159 164 167 157 138 128 132 126 123 126 115  96  85  69  72  74  65  75  46  51  38  38  23  24  22  15  10   9   4   5  17  40  80 131 139 150 144 131 105  72 113 110  97  99  92  96  98 106 134 138 138 137 137 136 137 136 136 136 135 135 135 135 135 135
  36  36  36  35  35  34  33  33  34  35  48  68  81  97  79  67  73 103 134 106 113 123 102  90  89 114 156 173 174 170 179 170 149 142 135 135 132 125 122 106 101  93  87  90  84  83  66  65  54  50  35  38  26  25  27  20  14  13  11  26  79 116 137 132 150 139 128 106  70 110 110  95  96  91  99  99 125 137 138 138 137 136 136 136 135 135 134 135 135 135 135 135
  37  35  35  35  35  35  33  32  35  34  58  70  86  90  70  77 109 135 111 127 132 107 107 110 150 181 189 188 189 190 191 189 167 154 155 150 144 130 133 131 118 110 103 104 104  93  87  75  72  66  52  49  40  33  38  38  33  29  20  12  66 113 134 125 125 134 128 119  94  76 110 110 104  98  91  93 115 136 137 137 136 136 136 136 135 135 134 135 135 135 135 135
  37  35  33  35  34  36  32  33  37  39  60  70  92  76  70 105 133 107 116 152 103  95 104 143 191 198 194 199 203 205 202 199 192 177 172 171 163 152 143 143 137 131 125 118 113 103  94  95  92  85  75  66  60  57  51  53  48  42  37  17  38 109 135 128 112 113 128 115 112  82  86 111 108 107 106  95  98 128 136 137 136 136 136 136 135 135 135 134 135 135 135 135
  35  34  33  33  32  33  32  33  35  40  60  80  91  72  88 131 119 116 171 117  90  93 143 192 201 201 201 204 207 209 212 211 204 196 182 183 181 176 170 157 158 152 150 143 137 128 119 109 110 113 104  88  89  96  91  82  81  77  65  46  38  95 124 129  94 120 102 132 112 105  85 103 114 107 104 102  97 115 132 136 136 137 136 136 135 135 135 133 134 134 134 134
  34  36  34  33  31  31  34  38  35  45  67  99  83  72 113 108 119 164 159 107  91 129 187 197 204 204 205 208 212 213 214 217 217 211 204 196 198 196 195 187 183 187 187 180 178 172 168 155 142 140 137 129 124 127 137 129 121 111  96  79  58  75 104 116  93  94 125 107 129 109 101  80 110 112 110 115 106 113 130 136 138 136 135 135 135 135 135 134 134 134 134 134
  35  35  34  32  32  33  31  35  34  42  82 101  69  91  99 104 142 163 149  92  94 176 197 199 203 205 206 210 212 213 217 220 219 218 219 216 212 218 215 213 208 207 208 205 204 198 192 187 182 173 171 168 169 164 160 155 148 138 122 104  77  67  88  96  88  71 116 109 100 117 108  75  82 111 106 121 115 100 120 134 138 137 138 136 134 135 135 135 134 134 134 134
  35  34  33  32  33  32  31  30  34  47  98  92  87  98  83 114 136 155 133  91 147 194 197 200 201 204 208 212 213 214 217 220 221 222 224 227 226 224 223 223 221 217 216 212 211 209 205 200 199 195 192 190 187 185 179 173 165 154 139 118 101  73  77  84  85  65  84 112  82 105 112 105  63  92 112 114 117 111 103 123 133 137 137 133 135 135 134 134 134 134 134 134
  34  34  34  33  33  32  31  31  42  65 104  85  85  70  82 116 122 158 114 115 178 199 199 201 202 205 206 211 214 214 218 221 220 224 226 227 226 224 226 227 224 221 221 217 215 211 209 207 204 200 198 196 194 191 185 180 174 166 152 130 116  92  79  73  79  68  60  94  94  88 104 122 101  68 100 110 114 121 107 110 129 135 135 134 136 136 135 134 134 134 134 134
  33  33  32  31  32  32  29  31  47  76 105  85  69  62  93 101 116 153 108 148 191 201 202 202 204 205 206 209 211 215 217 218 220 222 223 224 226 226 225 225 224 222 220 217 214 214 212 209 207 203 203 200 197 195 189 184 181 171 161 145 130 113  86  70  72  73  60  66  97  82  86 109 131  95  75 111 114 119 128 107 125 131 134 134 136 135 136 137 136 134 134 134
  33  32  31  30  33  32  30  33  39  86 107  76  57  72  90  95 128 144 129 177 194 201 202 201 203 206 207 209 213 214 216 217 221 221 223 224 226 223 224 223 223 222 220 217 214 213 212 211 209 205 205 204 201 199 194 186 181 175 170 155 138 130 101  73  70  67  68  55  88  86  92  99 118 144  82  99 122 117 126 114 110 128 134 136 135 135 133 123 122 133 134 133
  32  33  32  31  32  34  32  28  51 102 104  64  60  73  88 106 130 142 163 189 191 199 202 201 203 206 208 212 213 213 215 217 219 221 224 225 224 224 224 222 221 220 219 217 215 213 211 209 208 208 208 207 204 199 196 189 183 182 177 164 150 137 123  86  62  65  59  61  65  95  79  89  98 139 135  79 108 122 124 120 106 123 132 135 135 135 133  90  89 134 135 134
  31  32  32  31  31  33  32  29  66 106  95  52  53  82 103 109 134 152 178 190 193 200 202 202 202 204 207 210 213 213 214 215 217 220 223 224 223 223 222 221 222 218 217 216 214 213 211 210 210 208 208 209 207 203 199 191 188 186 180 170 159 149 135 115  69  65  61  53  51  77  89  74  92 109 151  99  87 115 124 112 109 120 129 132 136 136 138  97  82 132 136 133
  32  32  34  32  30  30  28  36  77 101  73  64  83  97 103 118 146 157 180 188 193 200 202 203 203 204 207 209 211 211 214 216 217 220 221 222 221 221 218 217 216 216 213 213 213 213 210 210 210 208 209 210 210 207 202 196 191 189 182 175 163 154 144 133  95  60  66  56  48  44  85  85  75  95 117 114  77 100 120 113 107 109 121 134 135 137 139 109  78 127 136 134
  32  32  32  37  32  28  28  41  96  99  64  79 102 113 108 137 138 161 185 184 191 201 203 203 204 205 206 209 212 212 215 218 219 219 219 221 220 221 219 220 219 214 214 214 214 213 210 211 209 209 208 210 211 209 205 201 195 192 187 178 169 156 149 143 125  79  59  61  51  40  46  96  74  69  93 108  93  80 106 115 103 103 118 135 135 135 138 117  76 121 137 134
  31  33  32  31  41  36  27  57 103  85  78  96  99  89 117 136 125 166 181 184 192 201 204 203 204 206 206 210 212 214 215 218 219 217 218 221 221 217 219 219 215 215 215 214 213 212 212 211 209 210 209 210 209 208 206 202 197 196 191 181 172 164 157 153 143 118  65  52  58  56  31  45  93  78  81 109  97  90  94 104 117  89 113 123 139 135 136 125  77 113 137 135
  32  32  32  30  31  41  35  68  99  86  96  97  83  84 122 121 135 162 179 186 191 198 204 204 205 204 207 208 209 210 212 216 216 217 219 221 221 218 219 215 214 215 210 213 213 213 212 207 206 207 208 208 206 206 203 201 196 196 193 184 176 169 167 162 157 144  93  42  54  59  45  17  51 103  90 120 112  76  87  91 112  88  90 109 129 132 137 131  81 104 138 134
  32  31  32  31  29  28  36  84  78  62  63  68  80  86 117 120 137 159 177 187 188 197 203 204 206 204 205 206 207 209 211 215 214 216 219 219 218 218 216 216 218 209 210 213 212 211 209 206 205 206 207 206 204 206 204 201 197 195 192 185 184 179 173 172 167 159 125  56  33  56  59  43  10  71 106 116 127  84  66  85  98  92  85  91 113 128 135 135  82  88 135 135
  32  32  30  31  29  25  54  98  60  47  50  72  73  89 121 109 129 153 175 187 189 195 200 202 204 204 203 206 207 209 210 213 214 218 219 216 218 219 217 214 212 208 209 213 213 209 209 206 204 206 205 204 206 204 202 199 197 194 194 190 187 186 184 179 171 166 146  89  45  34  60  50  21  26  87 130 127  99  63  73  84  94  86  80  89 122 133 135 101  99 131 136
  32  33  31  29  31  40  83  84  58  56  67  73  64  88 104 101 129 154 176 187 190 195 203 203 200 201 203 207 208 209 210 213 215 218 217 217 218 215 217 214 209 208 209 212 210 208 210 207 205 205 206 207 204 204 203 199 198 196 197 194 193 191 189 184 177 169 153 105  74  49  44  46  28  21  55  98 141 111  78  71  79  77  79  84  74  97 126 132 127 125 121 117
  32  31  31  28  37  40  89  72  71  64  70  66  62  89  91 104 133 158 177 187 188 195 203 203 203 202 203 206 209 209 211 214 216 217 217 216 216 215 214 213 208 209 210 211 212 211 210 207 206 206 206 206 206 204 205 203 201 200 200 197 199 194 192 190 186 177 155 115  85  70  50  41  35  16  44  67 109 125  79  75  65  69  63  70  72  71 103 110 110 111 112 115
  31  31  31  30  29  59  90  50  50  57  61  59  60  79  90 104 132 159 177 187 190 194 198 199 204 201 201 207 208 211 211 212 217 218 218 218 216 215 215 214 209 210 210 211 212 211 209 208 207 208 205 208 208 205 205 203 200 201 200 198 199 196 190 192 192 184 158 126  97  73  53  40  40  23  31  63  77 112 100  76  76  67  56  61  77  67  77 111 132 131 132 134
  31  32  31  30  38  79  64  43  53  51  58  61  62  75  91 104 132 159 177 186 189 195 197 199 204 203 203 207 210 212 215 209 216 220 219 220 219 218 216 214 212 211 209 211 211 209 208 210 208 209 207 209 208 205 205 205 205 205 204 201 197 196 192 190 190 185 162 131 105  78  57  34  34  37  21  55  73  97 109  77  82  68  52  51  75  74  67  96 131 121 120 133
  32  32  30  39  45  78  49  50  49  54  64  65  57  83  86  95 129 159 178 187 190 192 199 200 204 206 207 208 209 216 220 216 216 219 216 219 219 217 217 214 214 213 212 212 213 209 209 210 212 213 212 211 211 209 207 206 207 203 203 204 199 197 191 193 188 181 161 134 112  83  65  44  26  31  24  42  69  89 101  78  73  84  53  47  58  72  64  72 114 114 110 134
  31  31  27  38  60  89  47  58  63  64  68  55  58  87  70  83 128 166 180 183 189 189 198 203 204 207 207 208 209 214 219 220 221 220 221 220 219 217 214 213 212 211 212 211 212 212 213 212 213 214 213 211 211 210 208 207 206 203 201 202 198 196 196 194 186 175 152 134 118  90  74  50  29  26  28  34  70  71 101  89  66  79  59  45  51  58  71  66  94 113 108 130
  29  30  30  31  68  75  52  64  72  63  55  52  65  82  60  88 134 170 180 183 187 187 194 202 206 206 206 207 210 212 215 221 220 221 223 223 221 219 215 213 213 209 210 211 211 211 214 213 211 213 212 210 210 208 207 206 204 202 201 201 201 199 197 193 181 167 146 135 125 101  80  55  39  31  34  30  55  59  81  84  71  76  67  40  48  52  57  72  77 107 119 129
  31  30  32  33  65  57  42  53  49  39  54  60  70  76  71  86 141 173 179 182 185 184 189 200 205 205 206 207 208 209 213 217 220 220 221 221 221 219 214 213 212 209 209 210 211 212 211 212 212 212 211 209 204 204 204 204 201 199 199 199 201 199 200 196 185 169 152 140 129 108  80  58  50  33  46  37  41  56  68  68  65  63  70  40  38  50  52  65  83  96 132 133
  31  30  32  36  56  42  45  44  29  37  68  50  62  87  78  77 144 171 176 177 181 182 188 202 205 205 207 210 209 210 211 213 219 219 221 220 219 215 214 211 211 208 209 212 211 211 211 212 213 211 209 206 202 202 202 202 200 199 199 201 203 204 205 203 195 178 153 141 125 103  79  61  49  33  65  56  29  46  63  65  51  57  58  46  32  45  52  57  85  86 123 132
  33  30  31  35  53  46  34  33  55  61  54  41  70  94  65  76 147 165 169 176 180 183 195 201 204 205 204 205 204 200 205 209 212 214 216 218 217 214 214 211 210 208 209 210 212 211 210 211 210 208 207 205 203 202 200 201 196 194 193 193 189 190 189 191 197 190 158 142 125 104  82  59  50  40  75  66  26  39  54  65  44  47  49  45  32  38  46  52  69  86 103 129
  32  33  34  36  48  46  44  72  74  65  66  80  76  92  58  75 145 159 164 175 178 190 202 204 198 186 178 175 180 174 174 182 191 182 188 207 210 211 212 210 208 208 210 211 210 211 210 210 207 206 206 202 190 189 174 166 162 155 158 153 149 155 155 161 170 177 170 150 125 100  77  60  55  49  67  60  23  36  42  56  48  37  45  45  39  29  45  51  59  94  97 125
  30  33  34  37  45  56  84 101 100 100 101  76  54  83  56  77 142 158 161 174 180 183 184 176 172 165 157 145 147 149 146 140 150 159 153 175 189 198 199 205 205 207 208 208 208 205 204 204 202 201 199 180 173 166 138 129 122 112 102 100  98 106 118 120 128 139 150 149 134  98  72  62  56  47  65  63  16  28  34  45  54  31  41  38  44  29  40  46  52  90  93 121
  35  31  35  46  63  78  83  91  96  95  75  46  37  70  69  71 141 156 158 170 172 159 152 143 134 138 139 127 109 111 113 107 106 122 134 148 158 172 184 191 196 201 203 203 202 199 195 193 195 191 182 168 158 146 125 101  92  78  79  79  78  89 102 102 101 101 117 138 130  93  69  63  56  43  62  56  10  26  30  34  51  32  31  39  38  41  31  41  44  75  99 112
  39  37  37  49  65  63  71  74  61  42  48  37  35  57  87  82 132 155 155 153 146 147 145 145 146 142 138 138 129 116 108  98  97 110 124 138 143 150 175 175 184 188 189 191 191 191 188 182 182 178 170 158 138 126 106  88  93  89 103 111 120 122 129 126 118 118 127 131 117  88  69  64  61  52  65  32  10  24  30  33  41  37  27  38  32  44  33  32  43  59  89  85
  30  32  36  47  61  49  43  31  29  36  56  70  62  45  61  86 129 147 151 150 144 149 153 157 155 152 148 147 149 145 139 136 124 125 130 133 137 142 161 167 169 172 176 181 184 183 179 170 165 162 153 140 125 115 106 111 121 134 145 151 154 153 154 149 142 134 132 128 118  91  71  66  65  60  51   9  17  22  28  33  34  37  30  36  31  33  37  29  42  50  53  38
  31  31  35  47  60  82  83  87 100 101 106  91  54  30  45  66 126 146 147 149 144 149 157 148 148 153 158 166 170 170 166 166 156 144 139 132 131 134 142 150 156 161 168 175 183 179 169 159 153 140 130 118 113 110 121 143 162 170 167 169 167 166 169 169 160 143 131 122 115  91  72  70  69  57  34  11  19  26  25  32  32  34  37  32  34  25  26  25  37  42  38  31
  31  32  40  45  42  35  40  62  68  67  60  42  28  16  49  66 122 148 148 151 150 142 147 143 150 169 181 184 186 183 181 181 179 172 161 144 129 122 121 130 142 152 162 174 186 182 165 150 134 119 110 106 115 127 147 152 141 139 142 143 147 140 136 131 147 147 129 119 117  97  74  70  69  53  30  19  21  29  31  27  32  30  35  34  35  26  24  29  34  47  41  45
  30  31  44  51  40  37  38  34  37  32  17  22  36  27  41  73 122 146 151 155 157 147 134 137 160 162 154 156 164 172 165 152 144 148 158 159 149 138 127 120 124 141 167 190 203 197 173 149 117 104 104 115 131 140 125 116 137 161 162 158 153 153 152 138 107 114 138 128 122 103  79  76  69  51  33  16  25  31  38  25  26  31  29  32  32  28  20  36  35  49  46  45
  30  32  46  50  42  39  39  37  39  24  23  23  33  34  44  79 120 151 154 160 158 156 143 150 138 142 168 172 168 163 157 142 135 115 113 131 151 150 138 130 124 134 167 198 213 206 190 156 108  96 109 122 128 125 121 133 126  96  97  75  72  74  97 124 125 104 122 134 124 107  83  80  72  58  38  18  18  26  41  35  21  31  30  31  31  36  24  31  37  40  38  27
  29  34  50  52  46  51  51  40  31  32  40  37  37  27  32  75 126 154 158 163 161 158 152 136 141 150 133 124  80  81  78  59  78 103 108 107 124 131 131 137 143 147 164 201 219 215 203 160 101 100 116 124 127 121 111 114 120  75  70  36  62  52  95  71  68 105 122 125 120 114  94  85  75  63  40  15  19  25  39  42  22  27  28  28  25  28  29  25  33  37  30  24
  29  34  50  51  59  57  44  45  49  41  33  36  46  41  36  86 121 150 162 168 161 149 145 143 119  84 107 128  65  76  37  62  76 126 119  97  99 122 151 168 171 167 177 205 219 217 211 174 110 112 145 159 124  94 103 163 184  96  82  74  81  68 137 119  99  91 109 112 118 122 104  87  74  64  46   5  23  25  36  50  32  19  28  28  26  26  27  24  33  35  30  23
  28  38  50  51  60  50  56  62  47  41  30  28  42  51  54  90 115 152 166 170 164 150 143 137 121 116 143 159  78  80  79  92 100 162 146 117 117 136 187 199 186 176 186 205 217 217 212 197 137 121 166 177 145 145 156 164 175 158 132 125 101 126 153 149 145 150 140 132 131 130 115  92  75  63  52   3  17  32  31  48  52  19  26  31  30  31  30  28  33  35  30  28
  29  44  41  44  66  63  75  62  49  42  15  42  57  67  84  83 123 150 166 172 170 161 158 162 166 167 165 176 148 110 129 136 142 162 150 153 173 186 190 190 184 186 190 203 214 216 210 202 169 135 153 184 189 187 173 164 168 175 171 162 157 143 143 141 141 151 157 159 152 143 130 100  77  68  55   7   9  22  37  48  65  29  19  29  26  26  28  28  39  41  25  29
  33  39  30  50  84  70  77  64  53  18   6  51  98  78  96  98 124 146 168 175 178 177 176 173 165 156 162 170 171 170 169 172 160 157 149 157 180 190 192 191 189 191 190 198 211 214 207 202 179 158 150 176 191 182 175 157 152 152 150 146 145 142 136 135 138 154 170 167 167 158 139 109  79  70  59   9  13  14  35  47  62  44  19  22  28  25  26  24  42  43  23  10
  35  38  29  51  74  82  72  61  30  16   7  36 103 109 131 107 119 145 169 176 184 187 185 182 176 156 143 141 147 151 145 144 143 148 163 183 189 198 200 196 197 193 189 192 212 216 210 202 181 163 159 164 187 190 183 178 167 151 135 125 118 122 125 138 158 164 167 172 176 171 150 119  87  70  60  15  17  12  29  55  59  55  24  20  26  28  33  43  40  34  22   5
  35  36  34  50  77  93  74  44  24  16  12  24 101 115 153 115 109 147 166 176 191 196 193 189 189 184 163 146 138 138 141 149 164 178 184 191 198 207 203 198 199 195 188 195 211 219 212 204 177 160 162 169 175 188 191 186 179 175 170 163 157 156 159 164 171 176 175 182 186 181 159 131  93  60  55  17  19  17  17  39  66  67  33  23  30  29  34  42  26  26  23   9
  33  36  30  47  80  89  72  39  30  19  11  18  96 131 151  99 112 143 166 175 193 200 200 196 194 191 189 184 179 178 182 188 194 192 192 196 207 207 201 197 198 191 188 196 211 217 212 205 182 163 162 171 175 184 191 190 187 179 176 175 174 173 173 175 178 181 183 188 191 183 164 135 101  60  45  23  29  33  15  21  50  92  53  21  25  27  27  31  25  30  29   9
  31  35  32  52  72  77  66  39  33  18  11  16  95 126 102  98 116 146 166 178 193 202 205 203 202 195 191 193 196 198 197 195 190 189 197 209 208 205 200 195 193 189 190 199 209 214 210 206 191 169 163 168 172 188 191 190 190 189 186 185 183 186 188 188 192 193 191 192 192 182 161 142 107  72  45  20  35  50  36  23  33 114  89  33  20  24  27  26  18  24  23   8
  34  36  39  46  65  69  70  40  35  20  12  17  80 106 129 118 107 144 162 174 190 201 205 208 206 204 201 200 199 199 194 191 191 200 205 209 207 203 197 191 187 187 192 201 208 210 209 205 197 175 166 170 170 185 190 190 192 194 193 193 194 198 198 195 196 197 197 197 190 178 159 143 112  74  48  22  29  45  41  26  30 113 117  68  23  26  36  27  22  18  13   9
  33  35  41  41  64  61  75  48  36  19  12  28  54 132 165 131 100 136 161 174 188 197 201 207 209 209 207 205 201 197 199 202 206 208 210 209 207 203 194 189 187 185 194 204 211 211 207 206 202 187 169 169 168 184 190 190 193 196 196 195 197 197 197 199 197 197 196 194 184 168 154 141 112  66  45  30  38  36  39  32  34  96 129  93  41  20  32  31  24  17  11  10
  30  36  34  36  66  56  78  57  38  23  20  43  36 126 176 113 109 131 154 168 179 189 195 203 209 211 210 208 208 209 209 211 210 209 211 209 205 201 193 187 184 187 195 204 215 215 208 204 203 197 177 174 173 183 191 193 194 196 195 195 195 194 192 199 199 194 191 189 180 162 146 139 116  62  43  33  48  44  44  41  38  78 126 116  71  24  23  22  18  11   6  13
  31  35  34  33  65  48  81  73  49  25  28  46  38 114 147 127 145 125 149 163 175 183 189 195 205 207 206 211 209 209 211 211 212 211 212 210 204 197 191 185 187 189 194 201 213 209 205 201 198 196 178 180 181 175 185 188 191 194 196 196 196 196 197 196 197 198 195 189 176 160 141 136 112  64  35  28  46  53  51  55  59  58 107 139 110  42  24  24  26   9   3  12
  30  34  35  31  61  42  80  79  66  28  45  47  41  92 133 166 162 122 133 158 171 176 182 188 195 201 204 208 210 211 210 211 211 210 212 210 206 198 188 191 191 185 190 198 205 200 200 197 183 169 153 169 186 181 182 183 188 193 196 197 197 195 196 193 195 196 194 190 173 154 139 135 105  64  38  39  60  59  42  39  71  65  90 130 135  71  31  23  20   7   2   9
  32  31  36  32  56  40  89  88  72  53  79  43  42  84 165 178 159 118 123 150 163 172 177 184 188 197 201 207 210 211 210 211 213 211 210 206 203 196 189 191 185 169 164 170 173 169 180 179 151 127 120 141 170 180 180 177 184 191 197 197 196 196 195 193 193 189 187 186 171 149 137 131 101  66  46  69  75  57  63  25  47  68  82 116 133  93  43  19  11   8   6   5
  31  30  35  35  54  46 101 100  68  85  91  50  52  76 138 170 164 125 116 143 152 165 173 184 193 199 201 204 208 210 210 211 212 212 205 204 198 193 186 182 168 147 138 138 131 142 153 139 123 107  94 114 143 162 171 180 179 189 193 194 195 192 191 189 188 186 180 176 167 147 134 126  97  69  51  77  93  64  57  30  40  63  77 105 121  97  52  22  13   9   8   4
  32  32  30  33  47  48 108 109  79 106  67  50  71  60 114 155 185 143 101 137 145 158 168 176 186 195 201 203 206 207 210 209 208 209 202 202 200 196 181 165 136  86  56  75 107 118 120 106  79  27  43  75 113 137 155 180 182 183 188 192 192 189 189 184 180 180 172 166 157 142 130 124  98  69  61  80 109  90  44  28  38  56  80  92 104 101  62  20   6   7   6   3
  31  30  28  28  39  53 108 120 103 105  49  67  68  51 121 171 187 166 110 133 144 152 162 167 182 191 195 197 204 205 205 206 206 205 204 200 198 200 174 138 104  86  63  26  78  98  90  91  58  46 100  95 100 115 145 176 182 179 188 194 193 188 184 179 176 173 162 159 150 133 126 126  94  75  66  75 117 112  44  22  33  53  87  95  92  94  71  29   7  10   5   3
  29  28  27  26  33  52  97 125 127  96  59  89  64  37 109 188 187 156 109 132 148 143 153 162 171 184 194 197 201 201 202 205 206 204 199 201 204 207 189 131 114 125 142 134 125 105  87  84  93 106 101  87 100 124 158 171 180 181 181 188 185 187 185 179 170 163 158 150 138 129 127 128  93  72  69  74 119 109  35  22  31  43  82  99  93  81  64  37  15   4   3   4
  29  28  27  25  32  48  87 126 134  91  79  99  58  41  96 183 189 150 112 135 151 140 147 157 166 179 189 191 198 201 200 203 204 202 199 201 204 205 206 165 121 134 155 164 152 143 116 112 120 122 117 124 153 165 167 173 180 185 180 176 182 188 189 189 174 156 149 139 129 125 126 131  96  67  66  77 111  77   8  25  36  42  74  98  94  71  60  43  25   2   1   4
  30  28  27  27  27  38  79 115 134 100  93  90  46  44  81 168 194 149 113 132 154 144 143 149 160 178 185 189 196 201 201 199 200 203 201 204 205 205 205 197 173 162 164 172 183 179 154 150 147 142 145 155 161 170 175 179 184 188 187 178 165 168 167 168 170 160 140 131 121 120 130 135 100  66  68  75  84  24   4  26  40  47  70  98 103  72  53  46  52  24   6   3
  28  27  27  27  25  23  65  98 127 116 107  85  43  52  64 122 199 170 124 132 156 154 144 146 155 172 185 186 193 199 199 199 200 200 203 206 205 205 207 202 199 178 170 175 168 169 153 156 144 148 150 146 146 154 166 177 184 189 190 187 175 152 155 167 183 160 133 123 116 118 132 134 103  66  71  56  21   5  16  32  49  49  67  99 107  73  45  43  48  26  11   8
  28  28  28  27  26  20  39  79 109 125 123  85  51  60  60  65 158 171 116 122 145 152 148 145 149 163 178 185 190 196 199 198 198 200 204 206 208 202 198 201 192 174 163 169 166 153 147 156 152 153 154 154 142 154 149 158 164 180 180 177 183 176 153 151 149 140 130 116 111 119 131 131  95  65  61  43   5  15  24  34  55  49  69  97 108  74  41  40  32  13  11  12
  28  27  27  26  26  23  23  62  94 120 130  90  58  61  62  41  62 111 101 114 133 146 150 147 140 152 170 185 189 195 193 192 197 203 206 203 202 193 195 188 176 174 173 179 175 149 149 160 161 165 164 161 151 164 152 156 160 166 167 168 170 171 162 138 131 131 121 109 108 122 134 138  94  67  65  53  12  16  31  37  58  48  68  93 104  72  34  44  47  14   5   5
  28  27  27  26  24  24  17  43  78  96 117  99  51  68  65  46  32  40  93  97 126 146 148 147 141 143 161 179 186 188 189 191 196 202 198 190 192 185 186 174 171 173 180 183 163 148 151 166 165 169 172 158 144 151 149 153 164 166 168 167 161 155 151 142 129 124 115 109 118 130 140 138  98  68  59  57  14  17  31  46  60  49  74  90  99  65  31  42  76  59  25  11
  27  26  27  26  24  25  21  27  65  66  94 106  77  65  60  56  45  54  92  90 112 141 148 145 142 133 147 168 178 178 186 187 185 189 180 182 189 183 170 165 159 163 168 159 160 163 165 183 180 166 136 121 121 123 131 139 149 156 163 148 146 131 145 143 129 125 113 109 125 136 140 131 101  72  67  54  19  19  31  55  55  59  84  91  92  65  36  40  59  69  50  24
  26  27  27  24  26  25  21  15  39  57  65  87  89  91  80  65  47  64  83  85  92 129 150 145 143 132 134 156 169 175 180 176 177 178 172 180 182 180 175 171 145 143 140 126 144 158 165 171 142 117 109 109 119 113 107 101 102 114 130 121 110 122 129 128 129 123 112 123 131 136 138 127  96  69  68  52  23  16  38  66  56  70  88  78  79  56  35  46  55  60  52  31
  26  28  29  27  25  22  20  15  13  49  61  64  79  86  81  89  76  61  71  80  77 117 148 150 150 141 130 140 157 171 174 168 169 167 169 165 169 168 158 147 127 120 109 102 113 116 109 110 101 112 120 117 104  95  98  97  91  81  77  86  94 117 115 114 120 121 121 133 136 140 138 123  92  71  60  45  24  22  54  74  61  82  79  58  69  39  31  44  63  47  43  39
  26  27  28  27  24  21  19  15   9  15  52  62  57  78  76  74  82  79  69  75  79 102 144 156 157 153 138 129 142 160 171 167 156 140 150 138 131 128 119 112 119 119 123 121 123 115 104 100  95  87  80  77  71  69  72  74  76  63  67  97 121 123 119 118 120 124 131 139 142 139 128 111  86  78  57  34  23  33  60  63  68  82  55  59  56  30  35  35  55  61  47  19
  27  26  26  24  24  22  19  13  10   4  14  34  41  55  65  68  53  51  50  67  92  98 138 156 161 159 150 133 131 146 154 144 140 135 128 106  84  78  95 101  86  78  87  87  82  85  89  88 104 109 120 128 133 132 119 103 104 114 126 134 142 139 130 132 124 126 141 139 141 128 118 102  73  75  57  33  21  30  57  78  83  56  52  68  32  30  33  33  37  50  66  50
  27  26  26  25  25  22  19  14   8  12  11   8  22  33  40  52  50  36  44  62  90 102 139 157 165 162 161 149 131 135 129 116 136 128 116  89  72  82  88  75  85 106 118 139 152 157 157 156 165 164 158 148 148 150 150 143 141 141 137 133 133 142 151 128 129 133 139 142 138 128 117  92  76  69  53  31  27  48  74  72  50  53  71  44  18  26  30  30  41  41  56  64
  26  26  25  25  24  22  18  14  11  10   7   4   6  24  32  36  48  55  59  50  80 107 139 157 162 164 162 158 138 136 136 131 133 130 125 130 148 154 140 134 146 149 152 163 163 167 169 171 170 174 167 166 167 169 162 145 140 140 141 136 134 140 141 133 131 136 141 141 138 132 109  84  73  52  48  34  38  61  62  47  56  66  45  19  22  27  29  28  39  40  26  30
  26  25  24  24  23  22  19  16  11   7   6   7   4  14  36  30  27  26  25  30  73  98 127 153 160 168 169 162 153 139 143 146 139 141 154 161 170 172 171 166 162 170 177 177 179 180 173 172 168 164 158 162 156 149 146 147 148 147 142 143 144 150 136 130 136 145 144 142 138 123  93  76  54  45  46  36  43  59  52  52  52  53  23  16  27  33  35  33  38  40  26  12
  26  25  24  23  23  23  21  18  13   8   6   6   8  15  38  46  23  16  18  22  61  92 113 152 161 170 165 167 167 151 137 149 157 163 165 176 181 180 180 178 176 171 172 168 164 163 158 155 163 164 169 167 164 165 162 151 146 146 148 147 151 155 151 143 138 141 140 138 139 110  77  63  47  51  48  42  40  31  27  22  19  45  53  32  27  34  31  46  52  40  29  22
  25  25  25  25  26  25  22  20  15  10   6   6   6   9  29  43  25  18  20  13  35  76  93 140 156 160 166 171 173 162 143 148 163 168 176 185 186 186 182 183 187 182 182 179 179 177 175 172 181 183 189 185 190 186 160 143 144 149 148 148 156 151 154 153 141 140 138 138 139 110  65  55  45  44  39  30  16  15  24  17  30  38  38  47  41  39  22  21  42  40  20  21
  26  25  25  23  24  23  23  20  17  12   8   6   6   7  20  37  25  17  15  17  30  70  81 124 146 148 165 169 171 168 153 142 155 166 176 184 184 183 183 183 184 183 182 185 182 178 174 176 178 177 183 183 177 175 152 143 148 145 149 153 161 155 150 149 143 138 139 135 126  98  63  55  46  37  20  14  11  26  20  26  43  40  22  25  35  38  23  12  31  36  22  12
  26  24  23  23  24  22  22  21  17  13   9   7   6   6  14  34  31  14  14  15  40  57  67 106 131 144 160 168 172 172 159 145 150 160 169 178 180 181 183 181 178 177 178 177 181 174 170 172 174 175 177 164 160 152 145 149 151 155 155 164 172 166 165 154 140 141 140 128 112  83  55  51  51  32  15  18  26  29  27  37  45  35  25  25  28  19  16  14  26  30  13  12
  26  23  25  25  24  23  22  22  19  15  11   7   6   5   9  22  30  20  20  18  40  33  42  84 104 125 142 161 170 171 166 152 151 159 169 178 178 179 178 174 172 173 173 172 175 163 167 164 175 167 159 166 165 157 145 152 160 173 166 167 179 174 163 163 148 137 135 119 102  76  48  45  48  27  14  20  28  31  34  35  41  25  20  22  22  10   7  15  24  30   6   6
  24  24  26  23  23  23  22  22  21  18  14   8   6   5   6  13  23  24  20  10  30  34  37  60  77  95 125 153 166 170 165 155 158 164 170 175 176 177 176 175 175 172 171 172 164 157 161 167 158 162 167 165 165 157 156 160 171 182 183 180 184 178 168 154 144 134 125 104  89  63  45  64  52  21  20  21  24  24  22  24  28  17  14  15  16   6   4   7  16  17   9   2
  23  24  24  22  23  22  22  22  21  19  15  10   8   5   5   8  10  14  16   9  27  42  35  42  56  66  99 132 157 166 163 150 162 168 176 177 178 183 181 180 182 180 178 177 171 171 175 179 166 157 187 173 169 169 172 181 183 185 186 183 183 176 173 166 139 121 108  86  77  58  74  96  61  12  16  14  14  16  18  13  26  14   9   9  10   5   4   4   6   9   7   4
  22  24  24  22  23  23  22  22  22  21  18  15  11   8   6   6   8  11  16  15  17  33  27  25  51  66  78  96 144 159 164 148 143 151 169 180 186 188 188 186 190 191 190 193 190 189 193 191 180 174 183 182 187 189 187 190 190 191 185 183 181 171 158 152 141 124  88  75  63  60  93 114  76   7  10  13  21  22  13  14  20  10   5   5   3   3   6   3   5   7   4   3
  25  26  24  22  22  22  20  21  21  22  21  18  14  11   7   6   7   7  10  15  16  40  35  20  31  55  62  72 111 144 155 144 141 144 158 181 189 186 192 192 197 200 208 206 198 195 196 193 184 185 178 182 191 191 187 188 190 186 186 182 172 167 154 142 124 119  80  59  59  72 111 138  91   4  12  23  27  15   8   8   8   7   4   2   2   2   4   3   3   3   3   3
  25  25  24  22  23  22  21  21  20  21  21  19  18  16  12   6   5   3   3  13  18  36  48  35  24  52  79  54  67 112 132 131 143 147 155 172 181 188 189 191 197 199 203 199 197 194 192 193 189 185 180 186 187 184 186 186 187 189 178 175 175 151 147 146 114  88  77  57  66  91 119 143 101   6  16  22  17   6   4   3   4   9   4   2   2   3   2   3   2   3   3   3
  25  23  24  22  23  22  23  22  20  21  19  20  20  19  15  11   7   5   4   9  21  26  47  47  24  42 109  71  59  75 105 126 129 135 158 170 180 184 184 186 191 194 192 194 191 188 193 185 183 178 184 194 186 183 175 178 181 179 188 171 175 154 131 126 103  80  66  65  88 112 131 146 113   8  10   9   5   5   3   3   4   9   5   3   2   3   3   3   2   3   3   4
  24  22  23  21  21  23  21  22  21  21  21  20  20  20  17  12   8   4   5   3  18  30  33  51  37  36 111 104  67  60  85 112 119 142 156 157 167 177 179 176 184 185 188 186 183 185 187 179 174 173 185 190 186 178 160 176 167 156 176 182 156 158 134 110 106  77  72  82 104 129 142 149 126  12   1   5   3   2   2   3   1   9   6   2   2   3   3   3   3   3   3   3
  24  24  23  22  22  22  21  20  21  22  21  20  19  20  19  14   9   6   6   2  15  30  28  39  49  56 120 130  99  60  63  88 109 135 129 153 160 168 177 157 173 174 179 172 161 175 175 170 165 161 159 175 178 169 149 175 163 142 168 172 157 155 127  90  78  69  80  93 124 150 151 152 133  15   1   6   5   2   3   3   2   8   7   2   3   3   3   3   3   3   4   4
  25  24  23  24  22  21  22  23  21  21  21  20  20  20  18  15  13   8   3   7  19  33  30  33  41  49 120 150 120  82  82  73  96 119 135 150 145 165 155 145 168 171 160 156 149 153 159 167 162 160 146 159 163 143 146 151 164 147 159 162 143 139 109  76  62  70  89 118 142 149 149 152 139  19   0   7   3   2   2   3   3   4   4   2   3   3   3   3   4   4   4   4
  26  25  23  23  22  22  22  22  20  20  21  20  21  19  16  18  14   8   6   6   9  23  34  33  32  26 108 156 147 114  94  91 101 106 120 137 150 169 127 136 159 153 149 153 138 154 148 156 152 154 138 141 144 135 125 130 146 153 157 146 124 110  94  80  60  77 103 134 143 147 149 153 147  36   0   3   2   3   3   3   3   2   3   3   3   3   3   3   4   4   4   5
  26  24  22  23  23  21  21  22  21  20  19  19  20  19  18  17  12   8   5   4   4   9  32  30  18   3  87 164 159 136 122 100  86 108 124 136 154 150 123 117 140 128 131 143 141 136 145 141 136 135 131 122 116 132 117 132 126 133 145 113 113  99  84  69  70  87 118 141 143 148 151 153 148  70  20   0   1   3   3   3   3   3   3   3   3   3   3   4   4   5   6   6
  26  25  22  22  22  22  20  21  21  20  19  19  20  19  17  16  14  11   8   5   5   4  11  14   2  19 144 157 162 156 143 128  91  79 103 120 120 125 120 107 123 124 118 123 130 127 126 133 133 146 119 113 119 121 122 125 109 123 137 101  86  90  83  67  82 105 131 141 145 148 151 153 153 115  57  28   0   1   2   3   3   3   3   3   3   3   3   3   6   6   6   6
  25  24  23  22  22  22  21  20  19  18  19  19  19  19  17  17  16  14  12   7   6   3   3   6   0  91 216 150 164 160 151 140 119  75  80 100 109 106 101 110 111 121 108 113 115 115 124 121 136 123 108 108 136 130 127 108 102 112  93  85  69  80  83  70 103 137 137 140 148 147 151 152 148 171  81  76  31   0   1   4   3   3   3   3   3   3   5   6   6   6   6   6
  21  22  22  22  22  21  21  21  21  20  20  19  19  19  19  19  17  16  13  10   7   5   4   2   0 162 230 151 163 164 162 159 136 102  98  99 106  98  97  94 100 107 102 100 102  92 101 117 104  84  92 114 125 128 110  92  94  91  71  70  77  82  76  82 119 139 139 144 148 147 153 150 142 195 112  70  83  34   0   0   2   2   3   4   4   6   6   8   8   8   8   6
  22  23  23  22  21  20  21  22  21  20  20  19  18  19  19  18  18  17  16  13  11   8   4   0  22 208 231 155 163 167 161 158 150 128 109  94  86  75  84  83  83  92 106  93  82  87  83  80  71  93  77  94 110 107  98  87  91  67  70  84  94  89  88 103 126 136 141 146 146 151 155 152 143 202 154  62  85  87  47   5   0   2   5   6   8   6   8   9   9   8   8   9
  23  24  25  23  23  22  21  21  21  20  19  18  18  19  19  18  17  17  17  16  13   9   2  16  79 230 232 158 162 166 164 162 160 149 120 102  83  74  75  77  75  83  91  82  80  88  83  74  72  88  81  96  94 105  84  66  63  65  88 103 102 100  99 124 137 138 142 144 147 149 149 151 146 207 180  63  81  87  89  63  22   2   4   7   7   8   9   9   9   8   7   7
  25  24  25  24  23  24  22  22  22  21  20  19  19  20  20  18  17  17  17  16  14   9  12  67 119 240 233 163 162 166 164 167 168 161 142 117  93  86  79  78  75  71  77  70  73  78  84  66  56  77  76  83  85  89  70  72  77  89  95 101 108 111 114 128 141 142 143 144 147 144 148 151 149 207 194  59  79  86  89  92  81  44   7   4   9   9   9   9   9   7   7   6
  23  23  24  24  23  25  22  22  23  21  20  20  20  19  19  18  17  18  17  17  16   9  45  91 143 246 236 169 162 166 168 168 166 163 156 139 116 103  90  74  77  73  65  62  53  67  57  57  65  67  80  70  60  55  61  72  77  87  98 112 121 124 133 140 141 145 145 147 148 148 152 152 147 206 215  72  73  86  88  88  85  84  60  17   4   7   9   9   7   7   8   6
  24  24  23  23  24  22  21  23  22  22  22  21  21  20  19  19  19  18  18  18  15  21  79  97 157 245 240 181 165 169 170 169 169 169 163 154 142 125 102  89  85  73  61  58  53  68  56  55  63  57  56  41  42  53  63  76  84 101 119 132 136 140 142 144 143 146 142 146 148 149 152 152 150 211 236 115  58  78  79  78  77  75  78  67  31   4   6   8   7   6   6   6
  25  25  24  24  23  23  22  22  22  23  22  22  22  20  20  21  20  19  18  18  14  53  97  97 171 239 247 198 171 170 172 170 171 167 165 166 159 148 134 111  96  88  83  79  68  58  51  48  48  44  42  39  52  63  85  99 111 123 134 137 147 146 142 144 148 148 144 144 147 151 152 142 150 220 236 161  54  75  79  79  81  79  78  81  77  44   8   4   7   6   6   5
  25  24  25  25  23  23  21  23  22  22  22  22  21  20  21  20  20  18  18  16  41  85 102  98 185 234 248 222 181 177 176 174 172 170 169 168 164 161 152 133 117 104  97  93  89  76  66  62  63  61  55  66  89 105 115 122 124 131 138 141 148 147 147 146 152 148 144 144 149 151 149 117 153 227 232 191  65  70  81  78  84  82  79  80  80  82  64  24   9   8   8   7
