P2
# Generated by OpenCV 4.2.0
92 112
255
  84  90  94  88  94  90  96  96  90  95 100 103  99  96  94 104  96 106  97 102 106 104 103 100 108 116 111 114 113 114 115 113 111 120 111 118 128 113 117 110 113 120 119 108 114 115 108 124 112 112 120 116 106  98 104 112 123 133 131 129 144 150 145 144 148 145 149 144 161 159 159 160 157 164 162 163 157 160 170 169 178 170 163 170 169 171 171 169 174 169 175 176
  93  92  87  91  95 102  98  97  99  94  97 100  98 102 101 100  98  98 103 103 102 105 105 107 105 106 112 112 107 113 112 116 114 111 112 119 117 118 112 114 109 103  87  83  88  84  75  97 121 118 107 109  96  83  80  86 105 131 144 145 141 145 149 145 154 148 154 157 152 155 164 165 163 162 160 163 168 164 160 163 169 170 170 171 171 176 173 172 176 176 174 177
  89  95  86  91  92  91  94  93  94  91  92 102 101 100  99 101  99 101 102 107 103 103 106 106 111 107 107 105 106 109 112 116 112 109 113 114 111  98  61  59  71  75  69  74  74  72  82  93 113 118 118 112  81  66  58  52  61  62  96 142 141 142 146 151 146 155 151 158 153 159 158 169 160 161 166 164 171 172 162 164 167 171 163 173 175 181 179 182 180 179 178 175
  85  88  89  91  97  89  97  94  94  94  96  94  91 102  99  98  99 106 100 100 106 109 109 105 113 112 106 103 111 114 113 108 114 111 107 104  94  72  63  60  69  89  87  93  96  93 100 106 128 127 115  91  82  74  65  52  43  38  38  69 130 154 145 153 153 157 155 153 160 161 160 160 162 161 168 165 166 171 166 175 170 166 166 172 173 176 173 173 178 178 176 179
  84  88  89  89  93  95  98  96  95  92  93  95  96  99  97  94  98 101 102 103 102 106 102 105 103 105 101 114 121 117 103  96  92  88  92  92  93 101 104  98  89 103 119 124 122 114 121 131 137 130 110  99  92  82  77  61  45  38  38  42  67 102 127 149 154 153 154 156 154 157 158 161 161 165 163 159 161 162 167 166 167 160 168 175 168 172 173 173 171 175 172 172
  87  85  88  92  90  90  89  91  96  90  88  98  94  95  98  98  96 101 101 101 101 101  99 109 106 108 113 117 119 125 126 117 113 116 104  98  99 109 127 133 126 110 115 137 135 132 135 124 141 130 115 110  97  85  81  75  63  69  62  51  50  48  45  85 139 150 154 152 155 162 156 154 153 167 160 157 160 162 161 169 167 164 170 172 172 180 176 173 178 171 177 189
  84  85  88  90  89  86  93  90  92  93  91  98  89  93 101 100  97 105  99  95 101  99 101 106 107 123 126 122 122 114 107 113 118 133 139 125 120 112 118 142 133 125 122 140 136 133 124 137 138 126 110  97 101  99  93  85  79  88  93  90  86  85  66  41  85 142 159 161 157 149 161 179 192 197 197 202 200 184 172 159 166 184 167 173 172 175 176 171 181 171 189 212
  86  88  90  91  91  97  97  94  95  93  97  91  88  97  95 100 103 104 100  98 102  99 109 109 118 127 114 108  95 102 122 122 121 121 142 148 131 118 120 141 132 133 137 126 121 132 144 150 137 127 119 138 151 150 136 127 122 116 110 106 108 108 106  94  73 124 148 141 164 204 241 222 195 179 172 181 198 221 240 206 221 217 161 173 173 171 173 170 176 180 176 179
  85  86  86  88  94  90  88  93  91  94  95  97  97  99  99  92  91  92  92  87  95 106 109 118 130 100  85  82  88 100 113 133 137 128 119 145 152 120 123 133 137 128 119 106 127 140 142 136 134 121 127 133 136 150 158 156 164 154 134 117 108 107 109 114 106  94 123 197 251 254 190 155 154 160 162 165 165 159 189 248 255 218 160 167 170 172 173 176 178 180 182 186
  77  90  92  86  90  90  90  90  92  98  94  92  97  92 113 163 176 179 185 192 191 149 108 107  92  57  64  79  79 117 120 131 150 137 122 136 154 130 112 125 120 112 105 108 102 103  99  90  77  55  69  81  91 106 100 101 103 113 121 120 115 116 107  95 111 103  92 170 241 177 153 159 163 166 163 171 169 168 161 176 248 225 167 173 173 174 182 176 177 177 182 183
  87  79  87  87  89  92  95  88  95  96  90  93  93  94 101 129 217 255 255 255 161 111  97  83  75  82  86  85  85 112 130 120 137 149 121 116 146 138 103  78 112 108  99  87  94 114 115 102  87  87  93  84  74  61  51  46  49  63  78 103 119 119 118  96  84 100 110  93 111 125 159 157 156 164 167 165 167 165 170 160 199 230 166 172 168 172 168 168 172 167 172 179
  82  83  84  90  88  91  89  87  91  92  87  92  90  96  94  84 105 234 255 255 152  92  95  91  97  96  81  71  67  81 118 114 122 150 128  92 116 139 103  76  99  98  94 115 140 146 158 170 182 194 196 190 173 152 113  82  59  37  38  56  84 106 112 112  95  90  98 106  97  97 127 157 162 162 161 165 166 165 165 164 172 193 160 167 170 173 173 173 176 176 177 173
  79  86  89  88  85  88  89  88  86  88  91  93  97  94  94  97  89 159 255 240 154  93 107 110  77  64  62  61  62  63  84 117 120 135 139  98 106 141 109  75  90 108 126 138 139 142 162 176 184 174 177 193 208 208 203 199 181 150 114  73  70  95 108 118 112  98  83  89  99  87  86 122 163 163 161 162 170 168 169 165 171 170 165 168 175 177 173 175 173 172 177 178
  87  88  81  88  83  88  95  91  88  90  92  92  87  93  97  95  96 106 224 196 145 114 111  81  83  94  90  60  58  82  93 112 126 115 132 117 122 142 104  97 111 138 126 120 155 179 170 150 138 140 158 178 194 199 197 194 186 175 163 144 106  78  95 122 131 127 104  83  94 107  91  81 110 160 165 158 161 166 167 165 162 172 169 164 170 165 165 175 176 174 177 178
  84  85  86  83  90  88  87  90  85  86  87  91  97  92  95  93  96 100 140 156 122 105  84  84  87  69  52  76 111 135 136 131 127 128 124 142 133 138 112 111 124 131 108 146 169 149 127 108 116 115 122 138 154 158 170 188 194 184 165 146 135 125 103  94 121 130 135 103  76  80  97  86  70  98 156 171 176 168 164 168 164 166 166 165 167 170 167 171 175 175 177 177
  80  78  88  84  93  88  81  90  85  88  89  93  95  88  95  95  95  96 100 124 107  89  91 100  99 102 125 158 168 152 133 132 138 153 145 150 160 148 123 121 129 128 126 150 153 115  89  82  76  87  93  83  83 104 115 140 167 182 177 160 142 132 126 105  99 120 126 117  91  76  80  87  80  64  86 153 171 163 162 166 175 163 167 176 172 172 169 175 172 172 174 176
  87  87  85  86  87  89  89  90  88  90  88  89  93  89  93  97  97  87  97 113  95  95 105 125 129 152 162 154 136 121 113 115 138 157 173 168 173 167 133 126 137 139 134 148 125  84  64  52  64  66  51  52  54  54  62  71 102 137 164 174 160 136 132 119 100  94 119 118 102  87  80  83  88  77  65  94 153 169 163 159 158 169 168 168 172 173 169 170 170 173 174 177
  80  81  84  87  86  92  88  84  86  89  92  87  90  96  95  95  95  85 111 108  93 109 126 133 143 155 152 132 122 127 144 157 170 178 180 183 181 176 144 130 150 141 138 147 123  71  61  50  58  48  44  52  38  32  46  61  61  80 123 153 162 157 137 122 110  93  95 110 105  86  85  85  88  82  74  76 110 157 163 155 158 201 169 166 164 172 165 163 176 170 167 171
  83  79  80  87  83  86  83  85  90  86  86  88  90  91  96  98  89  96 115  91  99 121 125 137 150 161 136 119 131 156 181 197 200 198 188 184 189 181 150 141 148 138 151 152 138  90  64  61  66  51  57  46  38  45  50  52  46  47  72 111 149 158 163 133 101 101  90  91  96  98  79  85  91  92  85  82  90 126 168 161 178 235 165 164 164 163 163 168 171 167 167 176
  79  81  84  86  84  85  89  91  86  86  83  87  92  89  93  94  89 117 104  89 106 107 126 153 168 154 124 133 161 191 205 210 204 202 199 193 200 191 162 150 156 145 149 164 160 116  84  89  78  69  77  57  55  49  53  41  38  43  44  47 102 148 149 163 140  93  91  91  85  81  98  77  76  94  93  91  87 107 144 164 232 249 164 166 168 167 171 169 167 171 168 175
  77  79  84  81  89  86  85  93  86  83  91  88  86  90  95  91 111 125 103  99  90 100 144 154 176 141 132 165 190 205 214 213 211 212 213 210 204 201 175 164 159 160 150 157 155 136 116 109  96  94 100  85  80  55  60  44  43  42  36  27  31  69 121 147 156 140  94  85  85  77  78  92  81  75 101  90  86  93 136 232 255 250 162 165 171 173 175 165 163 168 168 176
  77  81  85  80  87  88  81  87  91  92  90  88  87  92  94  92 122 116  86  81  89 126 135 156 172 133 151 192 201 207 216 216 216 216 219 222 218 212 198 182 180 176 159 153 152 150 133 124 120 114 120  99 107  76  65  65  58  51  47  38  25  21  59 113 137 142 124  87  84  81  70  75 101  82  85 101  82  85 159 217 181 220 171 170 171 168 171 169 171 169 176 203
  81  79  81  77  82  84  85  87  86  83  91  85  86  94  89  96 121  91  72  69 106 117 122 168 160 148 180 201 205 213 218 217 217 222 225 226 230 224 216 200 193 195 181 169 166 156 147 136 133 130 123 108 111 107  90  92  78  62  82  82  62  35  32  73 122 130 126  99  76  92  88  60  83  90  79  97  94  85 104 148 160 165 163 163 172 171 166 169 174 167 171 174
  79  83  81  82  84  83  87  85  84  90  90  90  89  83  91 105 110  72  56  84  98 100 127 173 155 170 193 205 210 215 215 216 220 224 228 228 229 231 225 216 206 204 196 189 182 172 169 161 152 139 128 127 120 116 105 101  95  82 101 105  96  81  38  54 129 125 122 114  77  78 101  77  64  95  88  82  98  89  92 126 157 163 164 168 165 171 167 170 169 174 172 172
  77  78  80  80  80  84  80  85  86  88  83  80  85  88  93 106  91  55  67  80  85 105 140 166 168 185 201 211 214 215 215 218 220 226 228 229 231 233 232 229 224 217 215 210 202 196 194 185 180 168 158 146 139 139 129 122 128 125 115 116 129 127  87  51 133 150 116 112 103  63  82 102  63  73 107  89 101  91  92 122 147 165 168 167 168 170 163 170 169 176 175 174
  78  79  81  86  86  81  84  87  89  89  87  86  80  87 106  92  64  47  70  87  99 117 147 169 186 195 205 214 215 216 218 218 223 229 228 229 232 232 232 233 234 229 230 228 221 216 216 215 210 205 200 190 176 170 163 147 148 163 168 164 169 161 137  94 114 159 116  97  98  77  62 102  92  63 101 104  88 106  85 118 138 161 163 164 167 165 166 165 171 175 172 176
  76  82  80  81  82  79  81  84  88  87  89  81  83  98 107  77  55  72  84  98 111 124 152 179 194 199 205 215 216 216 218 221 222 226 229 229 232 232 233 235 236 236 235 234 233 230 229 229 230 226 220 212 208 200 194 190 185 184 194 194 187 176 165 126 107 133 118  82  95  80  69  70 119  61  72 103  85 112 104  94 132 155 162 163 163 170 170 163 163 169 169 169
  78  78  80  79  76  82  79  81  85  87  91  84  84 103  93  69  70  99 111 112 114 143 168 183 196 201 205 214 216 216 219 221 222 226 228 229 232 232 234 235 236 236 235 236 236 234 233 233 232 230 227 226 224 220 217 215 213 208 205 200 192 186 176 142 100 106 113  81  90  79  75  60  99 101  46  91  95  98 119 101 111 149 164 166 168 169 175 174 172 171 170 169
  82  81  81  75  76  80  80  85  88  86  86  87 103 102  82  86 100 104 102 106 136 161 161 188 198 202 209 215 216 217 219 222 226 228 228 229 231 233 233 234 235 236 236 235 237 236 234 235 233 230 230 229 228 223 220 219 216 212 209 206 202 193 177 167 122  89  92  69  78  86  72  70  70 117  67  63 106 104 109 114  93 135 153 163 163 164 173 172 165 172 173 171
  79  75  77  81  76  79  80  84  85  83  89  93 118  82  65  79  96  93  86 104 150 135 162 193 196 201 211 216 216 216 220 224 227 228 228 230 231 232 233 234 235 235 236 235 236 235 235 234 233 232 232 231 227 225 222 219 216 215 213 210 204 194 183 175 141  89  82  68  59  84  61  70  63  98 112  51  84 113 102 113 100  94 148 163 163 158 169 163 168 162 159 164
  79  76  74  76  81  83  79  81  85  91  86 103 108  64  51  58  71  82  88 117 135 138 171 188 194 201 213 217 217 218 219 222 225 228 228 228 229 232 233 235 234 235 235 236 235 235 234 233 232 233 232 232 229 226 227 223 220 217 211 211 205 198 188 186 152  97  78  70  52  72  63  54  67  80 111  79  54 101 106 110 107  87 129 160 157 165 165 166 166 171 166 165
  74  74  74  81  82  84  82  84  88  87  89 108  82  56  53  65  78  79  79 117 134 143 169 189 196 201 213 219 217 220 220 223 226 227 228 229 230 232 233 236 235 235 235 235 233 234 234 233 232 232 231 230 229 228 228 227 224 219 214 208 205 203 193 185 168 108  83  71  52  54  68  50  63  80 111 101  58  78 107  99 106  98 113 148 157 167 162 167 166 164 169 170
  81  76  76  83  82  84  77  82  81  78  97  99  65  51  68  77  73  66  78 123 120 137 166 187 198 202 212 220 220 222 223 224 228 228 229 230 231 232 234 235 235 235 233 233 233 234 234 234 233 232 232 230 229 229 229 227 225 221 217 212 209 205 197 189 181 131  84  71  55  47  69  59  56  66 102 119  81  69  91  90  98 106  86 141 165 161 163 161 164 171 168 163
  80  78  77  80  79  81  78  79  82  86 103  88  58  49  64  67  63  66  88 112 110 136 168 187 199 202 212 220 221 221 221 225 229 228 230 231 231 232 233 234 234 235 234 234 233 234 233 233 233 232 232 231 232 230 230 230 228 225 218 216 214 208 201 194 191 167  93  76  55  45  56  64  55  59  87 124  95  66  75  92  87  96  88 117 157 159 163 168 165 162 169 169
  76  77  80  74  79  85  84  80  89  97 100  71  49  58  64  61  69  66  88  97 112 145 175 191 201 204 214 217 221 223 223 224 225 226 228 230 233 234 233 234 235 234 233 235 235 235 234 235 233 231 233 231 230 231 231 231 230 226 221 218 217 212 204 195 190 186 127  77  65  43  44  68  55  57  69 109 114  56  70  79  80  78  89  98 150 157 161 166 165 161 165 163
  77  82  78  81  81  81  82  84  80  95  97  59  57  66  66  73  73  59  81  95 120 152 177 192 201 206 213 219 219 221 223 224 225 226 228 229 233 232 234 235 236 234 235 234 235 235 234 234 234 234 234 232 232 230 232 233 230 227 225 221 219 217 208 197 188 187 171  91  75  49  35  45  65  53  66  75 119  70  58  70  80  72  74  77 135 163 160 162 161 161 159 162
  72  78  78  78  79  83  78  76  80  89  84  66  75  81  74  69  60  63  86 102 123 155 179 193 203 205 214 221 220 220 221 223 226 228 229 231 231 231 234 236 237 235 236 235 233 234 236 235 235 234 234 231 232 232 231 231 230 229 225 221 221 217 211 203 196 190 191 143  76  58  40  31  56  63  58  69  78  74  44  61  71  72  58  66 101 160 153 159 160 169 161 165
  78  79  78  75  80  82  79  84  88  80  68  60  67  66  60  61  59  65  94  92 116 156 182 195 203 205 214 217 220 222 222 224 226 227 228 231 232 234 236 236 237 239 238 235 237 236 237 237 235 234 233 231 230 232 231 230 231 228 226 223 221 216 211 207 203 198 195 190 111  63  50  35  33  67  63  67  70  66  55  56  65  60  55  60  74 127 154 156 160 164 165 169
  75  76  78  78  78  80  81  86  82  79  59  46  42  31  54  75  61  77  83  78 117 160 188 195 203 207 215 216 220 222 220 223 227 228 228 231 232 234 235 237 237 238 239 238 240 238 237 239 236 234 232 231 232 231 231 232 230 228 225 222 219 216 210 211 207 206 200 195 167  75  49  42  27  41  73  84 100  79  59  55  65  57  53  54  56 100 165 156 160 163 165 163
  82  77  79  81  78  80  77  76  75  67  41  38  52  64  74  64  51  85  79  86 131 175 192 196 205 208 214 217 222 222 221 226 227 228 228 230 232 233 235 236 236 238 239 240 236 235 237 238 234 234 232 231 230 232 231 231 229 227 223 220 220 218 215 213 212 209 204 198 181 124  55  47  39  22  55  77 102 102  53  44  56  67  46  55  56  66 143 162 161 160 160 165
  76  75  82  80  81  76  83  79  77  62  60  75  76  69  60  55  60  96  99  94 141 181 192 197 206 206 213 222 222 225 226 226 229 230 232 228 232 234 235 237 236 237 240 238 236 237 238 238 237 236 233 233 232 232 230 229 229 227 223 222 221 219 216 215 211 208 206 202 177 151 103  43  41  28  33  70  90  97  58  45  48  59  50  42  57  54 112 163 164 158 163 169
  79  77  79  78  84  82  88  82  74  71  82 102 108  95  92  95  81 103  97  89 150 181 190 198 205 205 214 222 225 226 227 228 228 231 234 232 232 234 235 237 237 236 237 237 235 235 237 239 237 236 234 232 231 231 231 229 229 227 224 223 223 220 219 215 214 211 209 200 176 151 132  70  39  34  32  57  82  95  66  53  49  49  54  37  44  57  74 134 157 169 162 164
  82  81  77  79  80  81  81  75  69  78  80  88 100 102  97  70  55  99  84  92 154 176 186 194 200 203 209 219 223 225 226 228 229 231 233 234 235 235 234 235 235 235 236 236 236 236 238 238 236 234 235 234 231 229 231 229 227 226 223 223 221 219 218 215 213 213 210 201 175 154 136  95  45  34  34  53  61  82  71  55  55  45  39  36  37  51  63 115 157 156 164 165
  77  80  77  78  84  80  78  70  66  51  51  59  61  61  62  46  43  88  83 103 156 173 181 194 197 201 209 220 224 224 226 228 229 231 233 234 235 236 236 234 234 234 235 236 236 237 237 238 235 233 235 234 232 231 230 229 227 227 227 226 225 221 219 215 213 213 209 199 174 155 137 109  60  38  35  50  62  61  66  52  56  55  33  33  34  43  51  92 149 161 165 162
  75  78  82  85  85  87  76  58  74  84  72  59  59  54  59  55  56  81  79 108 157 170 179 192 196 202 213 220 224 224 228 229 229 230 233 235 235 236 237 236 235 234 234 235 236 238 237 238 236 234 234 235 233 232 230 230 229 228 229 225 223 221 219 215 214 213 206 193 170 154 139 118  73  38  33  48  64  58  57  55  54  67  37  28  31  35  59  69 128 164 159 159
  79  85  81  78  81  83  76  56  51  52  79 109 110 109 113  99  70  66 100 114 156 171 177 191 198 209 219 220 218 217 221 226 228 230 231 234 236 236 238 239 238 234 235 237 236 237 237 236 236 238 236 235 235 232 233 231 231 229 228 225 221 222 218 215 215 209 201 183 168 157 147 121  85  48  36  41  60  63  55  51  46  60  40  27  31  32  57  68 110 155 159 161
  77  76  79  82  80  81  75  60  50  43  42  57  67  62  64  60  33  41  86 126 157 168 171 185 188 191 197 202 199 191 195 205 210 216 227 230 234 238 240 240 241 239 239 239 237 237 236 238 238 238 238 236 237 235 233 232 231 230 227 225 222 222 218 215 214 206 193 177 170 164 150 118  94  62  49  48  52  58  51  43  42  47  44  27  29  32  48  72  98 151 158 159
  82  75  80  82  80  85  82  61  54  54  46  46  44  33  24  45  35  39  74 116 156 161 168 160 162 164 165 159 165 173 167 174 185 185 197 214 214 225 236 240 242 240 239 237 235 238 237 239 238 238 239 237 238 237 233 232 230 230 226 221 220 221 217 215 214 204 189 175 171 160 144 115  91  75  81  64  46  53  55  36  41  43  45  31  26  35  46  73  84 145 159 165
  79  82  81  82  78  88  84  66  66  60  49  51  54  59  55  54  57  54  78 119 152 162 165 161 164 170 172 168 160 159 157 140 145 159 168 184 193 198 221 232 236 238 236 236 239 238 237 239 237 238 236 236 236 236 233 231 230 229 225 223 221 220 218 216 213 206 190 172 170 156 145 109  93  78 107  79  39  50  52  38  34  39  38  34  22  32  39  67  93 126 150 164
  71  77  82  82  78  92  78  72  59  61  67  61  56  40  46  60  62  59  86 127 158 164 168 169 169 183 187 190 192 188 184 173 149 142 135 141 166 178 194 212 221 227 231 235 236 236 235 237 236 235 234 234 234 229 225 223 216 213 211 209 209 201 199 197 197 203 194 177 169 153 135 104  93  89 108  70  37  48  47  33  30  37  29  26  23  26  37  58  95 119 157 164
  77  76  77  79  77  82  85  79  70  88  71  67  45  30  71  58  54  56  86 142 162 167 174 172 167 185 185 185 187 188 187 191 186 173 152 143 159 172 186 188 209 217 223 227 232 232 232 232 230 231 230 229 223 210 213 195 175 176 171 166 161 160 163 164 164 170 177 172 164 148 123 102 100  96 101  59  30  45  41  36  28  34  29  28  28  28  33  47  96 116 160 165
  77  78  79  79  83  80  95  86  82  87  78  44  21  30 143 133  91  61 112 148 165 173 177 173 168 168 173 180 188 193 198 200 195 193 190 176 175 175 181 183 205 211 215 220 223 226 224 224 222 223 224 220 213 204 196 180 161 145 133 122 119 115 126 138 135 126 129 134 145 136 117 105 105 103  90  33  32  36  37  34  23  30  23  25  30  25  27  41  98 121 151 162
  74  74  77  76  80  83  86  84  92  80  52  27  23  22 142 160 166 108 114 159 174 176 181 178 178 169 172 176 177 185 191 196 200 202 205 199 186 176 176 183 195 204 208 211 215 218 220 220 218 214 217 212 208 193 183 168 141 140 131 143 149 156 163 171 160 138 140 137 121 125 120 105 108 110  51  16  34  36  35  34  22  26  25  19  26  24  30  39  89 130 154 160
  75  78  78  77  79  81  84  91  96  65  41  31  21  25 139 165 184 133 128 157 173 179 183 177 180 176 170 167 181 197 195 198 205 204 193 187 195 191 175 166 172 186 199 204 207 213 216 215 210 207 204 201 191 183 178 168 171 176 182 190 194 193 190 188 183 179 176 151 126 123 117 109 117  92  29  30  28  37  36  32  24  26  27  16  17  24  31  32  82 133 157 161
  83  77  79  79  83  81  83  83  88  55  45  28  18  27 137 179 179 123 140 164 175 182 184 178 175 173 168 167 162 165 164 143 156 158 165 171 164 180 194 183 168 164 177 194 203 211 216 212 204 198 189 180 171 170 171 179 189 192 193 194 196 194 195 192 186 179 174 148 130 133 116 116 114  67  27  40  34  35  38  31  28  26  26  20  17  29  32  42  72 119 153 158
  80  74  77  79  82  76  73  76  83  54  45  22  19  42 102 149 126 105 135 162 179 184 191 186 181 177 164 132 139 188 165 114 124  86  88 127 154 156 178 186 182 172 163 179 207 222 228 216 202 181 166 164 169 177 183 179 177 183 192 194 197 188 178 172 176 177 163 135 136 142 120 121 112  73  26  34  46  34  36  32  30  30  29  23  12  31  35  41  61 113 157 161
  77  70  75  77  82  73  73  67  91  58  43  23  23  58  69 114 144 130 132 161 178 184 191 195 195 193 190 189 189 211 187 120 124 106 135 169 181 149 155 174 184 189 182 178 205 227 234 221 202 166 160 172 178 181 175 168 179 181 173 165 163 162 170 174 148 156 165 145 142 144 126 124 114  76  26  36  44  41  28  34  25  29  28  24  17  26  36  33  52 113 151 162
  76  73  79  76  77  69  76  63  94  77  47  28  36  59  52 172 211 141 127 170 178 182 196 204 204 200 189 191 197 198 209 159 142 158 152 203 198 168 161 191 224 219 202 189 208 230 233 226 198 167 179 181 176 172 164 165 177 148 118 111  85 103 107 134 147 159 169 149 143 149 132 122 122  78  18  42  49  44  28  31  31  27  26  29  20  23  37  34  52 100 146 165
  75  70  76  82  79  70  73  58  96  96  64  37  60  48  73 180 199 128 136 173 178 186 202 211 211 210 201 184 187 196 197 200 198 202 200 200 189 202 216 219 227 219 204 199 215 231 233 228 198 176 203 222 194 165 164 189 228 193 134 101 113 109 147 124  96 144 157 139 147 154 133 124 123  79  19  37  51  50  36  25  32  27  22  22  24  25  35  33  54 101 141 161
  76  72  76  73  74  71  75  66 100 101  75  55  66  41  86 146 144 158 144 171 177 189 206 216 216 212 213 206 185 180 189 197 198 200 196 199 202 213 220 224 221 210 205 204 216 229 231 226 208 184 208 227 214 200 193 193 207 213 156 155 131 133 185 170 140 151 160 155 159 158 136 124 132  73  25  35  58  61  56  22  29  29  24  30  26  43  45  33  56 101 142 158
  77  75  71  72  73  73  75  76 118 109  81  92  68  51  75 125 191 190 150 164 177 191 207 217 220 216 214 211 207 196 187 186 186 188 192 202 215 218 223 227 218 212 208 206 216 229 231 225 212 189 195 222 226 225 215 198 203 211 206 193 167 177 180 169 173 182 185 180 173 164 139 129 135  68  31  36  50  75  64  30  23  28  20  24  25  36  49  35  56 105 144 162
  73  71  71  69  69  77  69  90 136 120 107 119  64  67  70 119 200 176 154 159 176 191 209 218 222 222 218 214 212 215 210 208 209 212 214 216 219 226 230 224 216 216 209 205 215 228 230 225 210 190 189 208 228 221 214 201 196 199 199 203 200 184 182 174 175 192 193 187 181 164 139 129 122  65  55  61  48  66  77  53  18  23  20  21  30  39  43  34  54 112 152 161
  76  72  65  67  72  73  61  94 148 135 138  90  66  79  73 127 174 203 177 148 173 186 203 215 220 225 226 222 220 219 220 220 219 219 219 223 229 228 228 221 216 216 212 205 214 228 230 222 209 190 187 200 219 230 221 216 208 194 184 177 179 178 175 180 190 192 194 194 188 169 143 131 102  55  81  97  50  48  76  78  23  20  24  23  41  42  36  39  59 113 150 164
  64  70  69  68  65  65  58 103 154 146 126  70  80  79  76 139 181 203 174 139 165 184 201 211 218 227 229 227 227 223 221 220 221 223 226 228 231 228 224 219 216 214 208 205 214 229 232 225 208 187 187 198 207 224 232 223 215 211 205 197 192 190 193 199 198 194 200 202 192 171 143 138  99  60  66 102  77  53  69  98  41  18  24  26  33  25  33  27  55 116 155 165
  63  66  68  68  63  65  62 106 157 158 118  85 113  74  76 130 194 200 176 136 159 180 196 207 214 224 228 228 230 230 231 231 231 229 231 231 229 227 221 217 213 210 205 206 218 230 232 225 205 184 186 193 203 215 225 228 223 217 213 211 212 208 206 207 204 202 204 203 191 170 149 135  88  72  71  73  72  59  95 133  81  14  14  23  31  27  18  16  57 122 158 166
  70  70  69  70  66  63  61  99 140 161 126 110 124  62  68 119 206 212 172 118 150 173 191 202 212 217 224 227 230 231 231 232 233 232 231 231 228 226 218 212 207 205 204 209 221 230 230 224 207 191 187 191 196 213 220 226 226 224 223 222 222 223 219 217 216 211 207 199 187 165 149 129  78  71  88  82  71  61 105 147 106  40  17  35  34  24   5  21  64 136 162 165
  63  70  73  72  65  64  52  87 107 151 134 121  98  58  71 105 194 220 176 123 155 168 184 202 212 220 223 227 230 232 232 231 232 231 231 231 227 222 216 210 206 203 203 212 219 228 230 223 211 195 189 192 193 206 215 221 228 229 227 227 227 222 223 220 218 213 207 195 180 159 151 119  70  88 120  86  77  79  99 148 107  60  20  33  29  18   6  23  80 152 160 159
  65  65  66  66  67  68  51  66  83 126 138 118  81  62  86  81 164 217 172 132 162 167 177 197 211 223 224 227 230 232 232 232 232 231 230 229 226 220 214 208 203 201 205 212 222 227 227 222 216 198 188 189 193 203 212 220 228 230 229 230 230 220 217 221 218 212 206 194 172 152 145 112  75 103 116 106  73 102 104 126 139  78  30  30  22   7   6  38 109 158 162 157
  66  68  66  66  70  67  54  52  69 106 128 118  76  75  85  59 101 201 157 130 165 167 168 187 209 219 223 227 229 231 232 232 233 233 229 227 224 218 211 204 205 204 207 215 224 228 224 222 220 204 191 192 193 204 212 215 224 231 230 231 231 226 221 220 218 215 208 194 169 149 137 102  95 146 104  98  38  94 109 102 142 115  45  24  16   9   6  51 131 163 159 155
  63  68  64  64  64  63  51  43  63  94 113 123  71  84  80  67  47 114 146 125 159 169 161 179 201 216 220 222 227 228 229 230 232 232 224 223 218 214 206 207 210 205 210 216 224 230 227 224 220 208 192 198 198 202 214 215 221 228 231 232 231 228 224 219 219 216 210 195 168 149 137 106 105 168 134  77  42  76  98 103 131 137  68  20   7   9  12  73 139 161 165 156
  68  60  63  60  61  55  52  38  50  72  87 114  84  72  82  75  59  57  93 128 161 175 161 173 196 213 220 220 224 224 225 227 229 226 223 218 216 211 202 207 206 205 209 214 224 235 232 228 219 211 191 193 200 198 207 211 217 226 232 232 231 228 223 218 215 210 209 198 168 145 135 103 113 182 172  74  58  68 110 110 121 132  84  44  36  25  37 106 154 157 156 154
  69  63  63  65  68  61  51  36  30  55  62  98 103  83  65  75  65  54  78 120 153 176 167 166 192 205 211 216 219 219 220 223 226 222 218 214 213 212 201 203 202 199 196 207 219 222 226 224 212 199 179 181 192 191 200 208 214 220 225 228 229 224 220 218 216 209 203 194 166 143 129 109 110 181 168  53  53  64 109 126 104 114  85  62  59  22  67 133 156 154 161 159
  69  67  64  62  67  61  47  31  15  41  59  70  85  97  81  80  75  56  92 121 145 167 172 163 183 202 206 211 214 217 217 217 219 215 212 213 217 218 192 185 170 150 155 180 191 195 205 207 194 171 159 170 180 183 198 208 209 210 218 221 223 219 216 212 211 206 198 187 156 140 124 104 110 173 100  32  52  66 102 139 104 100  86  56  41  45 110 146 149 154 162 160
  69  62  59  64  64  62  52  30  16  13  52  64  65  87  89  98  85  72  96 107 137 164 176 161 171 193 200 205 210 213 210 213 211 213 214 217 218 221 197 161 148 141 111 108 151 170 183 176 140 102 103 135 159 165 199 204 201 203 211 216 213 212 210 205 204 198 189 176 146 138 115  92 106 110  26  42  61  61  85 130 111  93  77  57  50  98 148 150 159 151 159 162
  64  63  66  65  66  67  55  33  13  12  19  50  57  66  81  86  83  79  83  93 123 159 177 167 164 182 196 202 206 211 208 205 206 212 216 218 218 220 218 188 175 187 196 153 121 136 140 126 112 151 152 141 147 180 202 199 198 192 187 197 204 204 204 199 193 185 176 157 135 142 116  90  71  37  46  58  71  69  80 113 114  87  69  53  89 142 152 154 158 159 158 161
  62  63  64  62  65  68  59  34  15  14  19  22  35  39  51  66  65  62  76  80 102 153 172 168 160 172 190 201 206 204 200 205 214 216 217 218 220 219 220 219 207 199 201 207 191 152 138 157 185 190 184 192 199 208 203 200 198 195 178 169 191 202 202 193 182 171 156 135 128 141 110  89  75  47  75  56  81  71  74 102 117  84  62  54  91 138 154 153 159 157 163 168
  58  64  64  64  65  65  63  39  17  11  15  23  32  29  31  43  60  57  51  76 100 143 170 175 160 168 182 198 198 198 207 212 216 220 216 216 215 213 218 216 208 199 206 210 221 206 197 202 193 191 194 188 188 196 196 197 198 201 197 186 169 172 188 191 181 157 133 131 132 134  95  78  71  47  74  70  96  71  72 102 121  92  58  47  69 114 151 151 159 156 160 169
  64  64  62  63  64  63  63  47  24  12  11  23  35  33  38  33  29  36  41  77 109 132 171 178 169 169 176 194 195 200 204 200 207 208 209 211 208 212 210 203 196 189 197 199 202 193 201 197 183 190 184 180 178 177 183 191 194 193 188 197 197 169 159 181 173 145 137 147 141 132  99  81  72  46  63 106  99  70  71  97 116  92  52  43  54 112 154 155 158 153 157 163
  61  64  62  67  67  64  62  52  29  14  12  24  35  23  31  34  14  12  22  62 108 132 166 181 174 174 172 189 196 197 194 197 201 198 204 207 204 202 196 196 196 199 200 202 189 188 199 198 187 192 188 186 181 180 182 176 183 191 183 178 188 185 151 150 160 143 160 163 146 130  98  85  69  40  82 129  89  59  72  92 109  89  43  47  66 111 141 150 154 156 157 157
  61  64  58  61  65  66  66  59  38  20  13  19  33  24  26  36  22  17  12  49 108 142 164 177 179 179 172 184 195 200 192 190 188 196 203 213 205 197 190 191 203 205 207 200 191 197 206 204 200 202 196 188 190 184 186 185 190 191 184 169 164 176 173 170 181 156 174 160 147 125  97  88  74  56 120 135  74  73  83  87 101  77  42  50  94 130 141 140 155 163 156 162
  67  60  60  66  65  68  66  64  49  30  20  17  23  22  20  36  21  10  18  43 108 140 165 174 179 185 178 177 185 179 179 171 171 178 183 199 201 203 188 183 185 197 190 207 210 212 218 212 203 190 180 178 177 166 172 179 175 175 152 139 148 158 171 187 182 162 184 156 141 114  89  76  68  72 120 118  68  76  82  86 100  66  35  49  76 122 137 144 154 155 151 163
  62  61  64  63  65  63  64  65  62  39  23  16  16  15  17  27  22  16  24  41  92 129 158 172 178 183 184 171 166 153 170 169 163 140 120 146 161 164 158 155 164 161 161 175 184 194 201 180 164 161 161 171 156 156 152 140 118 118 133 154 161 153 153 183 171 175 187 153 145 108  88  72  47  94 102  91  75  84  83  84  88  40  31  46  58  93 119 135 150 157 157 165
  61  60  63  58  63  66  67  66  69  54  30  19  14  10  15  20  23  23  20  26  72 110 157 175 181 180 189 174 174 189 184 174 182 176 150 119 128 135 139 141 150 159 168 163 153 155 149 143 143 155 149 140 134 132 120 114 126 164 202 202 168 178 178 185 174 192 176 148 136  98  82  64  43  80 104  77  83  87  78  86  65  25  27  43  60  78 109 140 160 157 151 162
  56  61  65  64  62  65  66  65  69  66  55  30  19  12  12  15  20  23  12  14  59  99 146 168 174 183 193 182 174 199 203 205 209 211 209 188 158 148 146 146 145 150 151 150 153 152 149 155 155 156 152 154 154 151 147 160 187 200 203 200 192 208 191 170 181 195 158 136 105  78  78  59  51  63  93 102 102  78  78  78  28  32  32  43  48  89 126 146 159 154 155 158
  58  61  60  59  65  63  71  69  67  67  65  58  45  24  10  13  20  22  21  13  35  81 138 150 172 182 192 187 167 193 218 216 213 215 211 207 195 177 174 181 181 197 200 200 198 196 200 203 194 190 182 180 177 171 168 180 189 196 201 201 209 203 179 165 188 179 141 128  86  81  68  60  60  82 101  94  75  75  70  35  24  44  48  57  66  89 121 141 144 151 145 151
  52  61  62  63  65  63  65  69  65  64  64  71  69  53  24   9   6  11  20  28  35  61 119 142 167 182 188 193 176 179 209 216 218 217 216 212 205 198 186 184 181 189 194 206 210 212 213 212 202 191 186 187 186 186 187 189 189 195 202 207 209 191 162 182 191 158 142 114  87  82  59  57  65  90  85  68  75  60  34  27  30  37  50  68 104 124 120 127 146 144 151 151
  59  62  62  65  65  66  65  63  65  69  70  71  67  59  32  10   7   9  19  27  44  50  84 114 147 174 186 194 182 168 190 209 214 218 219 215 210 209 205 201 199 199 200 203 206 209 207 207 203 202 202 199 192 192 190 188 195 199 202 208 200 172 164 192 173 153 126  93  73  59  62  63  67  53  39  44  33  34  36  38  20  19  47  66 105 126 133 140 145 136 142 156
  64  62  63  64  61  62  63  66  66  69  64  69  67  58  39  15  11  12  11  29  36  45  60  78 109 159 181 190 190 176 177 198 206 215 217 219 215 213 211 210 208 205 205 205 204 203 205 205 205 206 207 206 205 197 190 193 199 200 201 199 188 164 181 183 159 155 104  73  66  49  48  46  35  26  31  36  30  29  24  26  25  26  50  49  57  96 121 138 141 138 142 151
  62  60  61  57  57  66  61  68  70  67  65  72  68  64  52  26  12   9   5  27  31  31  50  72  92 130 170 185 187 178 178 190 202 211 215 218 217 214 212 212 212 215 215 213 210 213 215 213 217 220 221 217 205 192 191 199 200 202 198 188 171 174 184 169 149 139  86  75  67  46  35  39  47  44  42  40  26  22  15   5  23  18  45  57  46  64  87 100 123 139 147 151
  64  61  60  63  64  62  66  62  70  65  69  65  65  71  58  32  10   8  15  31  35  25  37  53  85  93 143 175 182 173 184 191 195 206 210 213 214 215 211 214 211 216 214 214 210 210 217 213 213 217 206 202 196 199 198 204 204 203 198 192 171 177 180 164 137 107  72  70  63  41  31  42  36  31  35  18   9  18   8   4   7  15  28  44  69  68  92 129 144 138 147 149
  60  66  60  61  62  63  68  64  66  64  65  66  71  66  64  44  15  10  15  24  32  31  29  33  62  75 107 157 181 164 166 184 197 203 207 211 212 215 213 213 213 213 211 210 212 207 215 208 209 200 208 200 198 202 206 209 203 201 197 184 174 172 170 146 121  92  67  62  44  26  33  26  17  16  25  12  12   5   5   5  10  38  56  48  83 105 115 133 142 140 145 147
  58  60  61  61  63  68  59  68  68  66  68  71  68  68  68  59  39  20  11  10  24  38  26  16  57  87  73 117 157 160 160 170 194 202 205 211 213 216 216 216 214 207 209 210 209 204 205 203 202 204 210 202 204 206 211 209 204 209 196 174 166 168 157 119  99  78  68  80  30  15  19  12   6   1   6   9   5   2   3   7  12  52  68  65 104 122 127 134 139 137 138 143
  66  65  63  69  63  67  67  67  69  67  64  69  66  66  74  67  65  44  17   8   9  20  18   8  49 103  78  81 119 146 162 162 180 203 204 211 214 217 219 218 220 215 215 218 217 211 200 206 210 209 207 209 214 212 212 210 203 203 192 186 164 147 126  97  88  73 105 106  18   0   6   6   1   2   9  10   3   6   3  16  48  65  62  81 113 127 133 136 139 137 142 143
  69  65  64  63  66  63  63  67  69  72  67  64  69  65  67  67  72  61  32  10   6  12   7   7  46 111  95  71  94 128 143 159 174 193 207 211 213 218 221 226 225 220 217 219 223 220 212 209 210 210 207 214 215 212 213 208 203 203 189 174 167 141  95  81  72  87 154 122  31   7   9   1   1   2   4   8   3   5  17  53  94 104  80  91 120 126 133 130 139 137 134 137
  63  66  66  63  65  67  64  67  68  68  69  75  69  69  73  71  75  67  48  21   7   7   7   5  38 131 107  79  90 125 133 148 179 196 198 204 212 217 216 217 217 216 218 217 221 218 215 212 208 212 212 210 211 210 209 211 199 193 185 165 135 130  91  77  83 117 168 126  69  39   0   1   3   2   4   6   2   9  46  96 106 106  91  98 121 121 136 138 138 137 136 137
  63  65  62  65  65  68  75  66  73  69  67  72  68  72  67  70  70  67  59  36  10   4   7   0  80 162 131 101  98  96 127 160 174 182 196 202 203 206 210 211 212 213 214 219 217 209 208 206 213 214 209 206 205 208 207 202 200 180 169 166 128 114  97  74 112 155 169 150  97  73  26   0   2   2   2  15  44  59  66  84 110 112 106 121 133 129 130 137 137 139 134 141
  68  61  60  61  65  70  67  69  68  69  67  68  71  72  73  67  77  74  65  41  16   6   1  16 182 182 154 130 108  95 119 142 153 181 186 199 199 196 203 206 206 208 210 213 210 206 205 207 214 214 208 197 197 203 205 200 197 175 150 146 116  93  88 113 166 179 166 178 146  77  70  14   4  10  15  66 104 112 122 122 127 121 120 132 126 123 134 133 140 142 138 139
  64  65  64  67  67  66  65  67  70  69  77  71  71  72  73  70  76  76  63  43  23   6   9 101 238 179 168 155 131 107 123 136 154 175 177 194 191 184 193 205 201 196 198 203 200 197 200 200 207 207 201 188 194 184 188 201 189 181 149 125 108  81 106 167 195 187 169 188 167  80  85  67  47  63  73  92 111 116 126 128 123 123 127 127 128 131 138 135 139 131 138 136
  63  64  69  66  64  68  70  67  62  72  74  66  67  71  74  77  69  76  69  53  30  10  52 161 251 180 177 175 147 116 117 138 154 160 173 187 170 175 188 195 186 187 179 189 196 196 194 186 195 196 183 177 195 177 182 189 184 174 144 107  92 101 159 191 193 188 167 195 188  93  89  88  90 111 101 101 119 116 119 126 128 121 120 121 127 131 127 140 135 133 136 136
  65  63  63  62  65  69  68  66  66  70  73  72  74  69  69  72  75  76  78  72  54  43  98 185 254 181 177 185 184 142 101 117 142 164 183 178 154 165 171 172 180 182 183 183 193 193 195 184 185 183 175 167 180 175 176 186 172 150 121  88  84 148 189 194 194 188 166 205 205 109  96  96  85  96 120 120 123 116 127 134 124 123 127 123 130 129 132 137 138 140 137 138
  66  68  64  65  66  68  66  67  71  69  72  72  71  69  71  70  76  76  74  72  68  81 114 193 255 182 178 190 196 166 106  96 124 150 153 165 153 147 158 155 165 174 171 181 186 174 182 176 166 171 167 161 168 169 179 164 150 117 106  80 117 182 196 196 192 191 167 223 213 118 101 102  97  81  96 124 122 124 131 122 129 129 127 128 128 133 135 135 132 135 142 142
  66  65  65  65  66  66  67  66  69  73  66  71  73  70  71  78  74  76  71  72  76 101 116 189 255 190 181 192 190 182 138 105 116 132 137 133 138 138 148 154 157 159 162 168 171 177 187 160 170 163 161 162 150 159 171 136 129 116  90 117 166 190 200 199 199 189 177 240 213 127 106 105 101  93  73  95 120 124 131 123 121 124 130 128 130 142 137 131 132 141 144 136
  60  65  68  67  61  65  65  69  70  70  68  71  76  73  75  77  75  71  71  72  86 110 120 183 255 203 184 192 195 200 179 128 110 125 127 122 132 133 145 149 148 152 142 157 169 167 161 162 168 170 163 157 144 146 145 106 101 117 103 179 199 198 200 201 194 184 199 246 212 135 109 110 108 105  91  81  99 126 122 120 129 126 123 125 130 127 131 136 136 135 129 140
  67  65  68  69  64  69  67  66  68  67  78  77  71  71  70  71  74  74  74  86  98 116 122 184 255 215 194 198 198 197 192 147 106  97  95 106 116 119 129 150 137 141 130 135 133 139 139 147 168 164 161 137 127 123 106  99  87  92 132 192 202 202 202 201 192 184 221 242 214 137 105 107 107 103  95  91  82 100 123 127 129 124 132 126 133 139 136 141 143 132 130 135
  62  61  64  65  69  66  68  69  66  68  72  69  65  71  77  75  72  70  84  97 102 115 120 186 255 230 202 202 203 202 202 188 136  95 104 111 121 109 119 126 123 130 131 126 117 142 135 130 155 150 143 123 130  99  91  90  86 108 178 203 203 205 206 201 200 198 240 234 213 129 101 105 103 100  95  88  87  77  97 129 128 120 131 130 135 131 128 129 138 135 136 136
  69  68  66  65  63  65  69  70  68  71  70  69  74  74  74  76  76  82  91  94  95 106 109 178 252 244 207 209 204 205 205 201 183 134 109 101 119 114 109 118 109 114 128 119  99 123 123 132 141 156 119 103 102  86  90  90 108 142 193 207 204 203 204 204 201 218 250 226 210 117 102 103 103 109 103  94  88  87  79 101 125 124 135 131 125 133 131 140 134 134 141 141
  65  66  69  60  62  63  67  63  67  69  71  70  76  69  69  71  79  83  89  92  91 103 104 171 239 252 213 209 211 206 206 206 203 192 156 108 101 108 101 105  89 110 102  94  98 108 118 119 122 116 104 102  83  80 101 132 163 191 204 207 206 204 204 206 197 233 247 222 207 118 109 107 104 110 107  98  95  93  86  85 101 125 126 131 126 128 129 132 132 130 135 131
  57  63  66  62  61  64  62  64  69  68  67  67  66  69  70  77  80  77  86  95  99 103 107 165 229 253 237 203 213 212 207 207 211 209 190 152 113 104  99  91  91 110  93  91  97  93 109 101 100  80  73  79  93 122 163 188 202 210 209 207 207 205 207 200 199 246 239 220 200 112 113 112 109 108 106 101  97  96  95  93  88  97 110 112 116 126 125 125 132 128 128 134
  65  61  64  66  63  63  62  68  63  69  68  59  72  78  73  79  80  80  90  97  98 102 109 160 231 248 255 215 204 213 210 209 210 212 205 195 165 132 110 104 104  98  91  80  76  84  88  85  78  80 113 135 166 189 196 205 208 207 209 207 206 207 204 189 218 251 230 223 189 106 112 111 106 108 106  93  95  95  96  93  92  93  98  98 102 107 122 133 134 130 136 136
  61  59  65  64  63  61  66  66  61  68  77  87  93  81  81  85  86  86  98  96  94 101 109 144 230 243 255 241 200 210 213 211 211 210 212 213 209 188 166 157 157 136 123 114 100  89  91 116 130 156 180 189 195 201 203 206 208 207 208 209 208 206 197 194 241 249 223 227 172 106 116 111 107 111 109  99  98  93  92  88  91  92  90  87  96  95  98 112 126 132 131 129
  59  62  66  63  60  60  60  63  76  96 116 116  91  81  84  86  82  86  98  99 103 116 135 144 221 237 252 255 219 198 210 211 213 213 212 215 214 209 207 203 197 182 174 175 157 135 143 173 186 192 193 196 200 203 207 205 206 211 207 211 206 199 189 218 252 239 218 227 158 123 127 121 118 120 117 114 109 106 105 103 104 102 105  94  89  94  81  85  95 114 124 126
  55  60  59  64  61  67  82  98 111 122 113  99  91  92  93  93  92 103 109 108 109 124 141 141 211 233 247 255 250 206 203 209 212 214 214 216 216 212 208 206 204 206 206 199 194 193 195 196 197 199 200 203 203 204 209 210 211 212 210 208 203 195 202 244 249 230 221 221 143 133 127 121 122 124 120 116 108 108 109 108 108 107 112 106  94 100  94  84  84  84  90 102
