P2
# Generated by OpenCV 4.2.0
92 112
255
  64  54  45  40  34  25  15  11   8   6  10  19  27  32  34  30  38  51  53  51  50  34  71 115  49  26  29  32  33  39  41  48  50  62  73  91  55  46  33  28  22  27  31  34  64  39  68  56  45  84  49  80  67  33  33  46  39  36  37  29  16  13  12  12  12  12  13  12  12  12  20  39  54  95 144 171 185 184 164 126  85  54  40  34  26  15  15  14  14  12  11  13
  52  45  41  38  34  25  14   9   6   4   5  13  19  26  26  30  45  55  55  50  38  48 100  56  36  34  29  29  29  29  30  32  31  53  75  58  49  46  32  28  23  24  23  56  74  91  78  56  60  47  46  81  52  63  56  37  32  35  27  23  19  14  14  15  18  21  19  17  14  14  15  23  35  63 112 148 170 176 163 132  89  64  45  34  30  17  12  14  13  13  11  12
  42  40  45  47  42  33  20  12   5   3   3   8  14  17  19  35  51  56  56  45  30  86  62  44  47  39  34  31  27  22  18  21  42  65  53  54  38  34  19  27  28  27  59 100  75  45  46  49  32  27  69  67  67  58  30  32  44  34  22  25  18  23  18  20  26  26  25  24  19  15  15  16  18  27  62 108 141 155 155 137 103  75  52  39  33  19  10  12  13  13  11  11
  41  44  59  77  92  80  38  15   7   5   3   4   9  10  18  45  61  63  57  33  48  73  40  52  51  44  38  34  30  23  33  65  70  60  58  75  49  47  36  47  31  65 112  72  33  41  55  40  26  58  76  76  52  29  40  53  31  26  25  25  28  26  18  24  26  25  26  25  19  15  15  14  14  15  21  50  91 117 119 114  88  69  58  41  33  23  10  10  13  13  11  10
  40  55 110 168 182 162  91  21   9   5   2   3   5  12  32  50  60  61  50  32  62  47  42  54  54  48  41  35  39  47  58  46  46  42  35  50  85  73  56  58  79 128  94  54  48  60  55  36  65  86  90  61  39  39  40  22  20  31  22  36  28  18  17  17  20  21  19  18  14  13  14  14  14  15  14  17  34  63  78  81  67  65  62  44  36  28  12   9  13  12  11  10
  36 101 188 207 196 179 128  35   8   6   3   3   7  22  25  46  60  60  49  40  45  38  46  56  58  52  55  61  53  58  43  43  43  50  37  60  88  59  69  96 121 120  71  66  69  86  94 106 120 121  94  59  42  24   9  14  30  24  26  32  16  18  16  13  12  14  20  14  11  12  12  13  14  15  15  15  13  20  38  46  42  40  51  49  37  30  18   9  13  13  11   9
  43 131 190 204 205 192 127  42  12   8   5   3  17  10  22  50  61  60  52  30  38  42  50  58  60  61  59  53  56  56  48  65  47  60  61  79  62  79 109 114 132 105  91 102 129 142 137 135 136 139 132 124  97  81  63  42  30  23  25  19  15  15  15   9  13  23  21  11  12  12  12  12  15  16  14  14  16  13  14  22  28  27  43  45  38  33  22  12  13  13  11   9
  26 107 181 206 204 176 124  62  23   9   5   8  12   4  25  50  60  61  50  27  38  40  52  57  61  64  61  56  71  71  58  65  54  74  70  72  80 123 104 138 152 137 152 154 142 124 117 126 134 126 121 123 130 131 120  83  63  42  31  37  37  21  11  24  27  14   9  12  11  12  13  14  15  15  13  13  13  14  14  14  19  19  27  35  33  28  23  13  11  10  10   9
  15  70 150 170 168 164 141  90  41  15   6  12   5   4  25  50  60  64  52  35  32  35  55  64  69  67  62  61  83  70  80  76  75  69  72  81 116 132 155 164 153 151 134 118 113 115 114 103  94  97 102 117 134 135 130 128 128 119 110 101 109  68  45  42  16  11  12  12  16  18  15  15  15  15  14  14  14  14  14  13  13  14  18  26  24  20  18  12  10  10  10  10
  17  39 102 146 169 173 151 119  66  23  10  12   3   3  21  47  65  74  69  46  39  67  81  85  86  82  75  92  93  72 101  87  66  74  90 105 147 159 153 126 123 123 127 124 124 125 114 102  86  89 104 112 119 115 134 133 139 129 117 107  96  91  66  53  37  19  22  20  22  16  15  15  14  15  15  15  15  15  15  14  13  13  10  15  17  15  12  11  10   9   9   9
  15  23  53 111 150 158 150 127  80  30  13  10   1   2  15  38  59  69  80  66  76  91  91 114  91  99 100 110  87  87 105  89  85  78 104 136 157 134 125 132 134 138 132 127 125 123 133 136 127 126 128 128 130 118 120 130 144 142 139 117  83  73  77  68  58  30  19  22  20  13  15  14  15  15  15  13  13  15  15  15  14  14  11  10  12  12  12  12  10   8   9   9
  14  21  36  82 128 147 145 119  71  29  15  10   9   3   3  57  93  92  86  59  47  51  61  88 108 116 114 113 103 104 114 118  77 100 128 130 122 120 112 108 106 103 106 108 107 106 103  98 104 118 122 148 155 142 157 160 144 143 122  80  81  78  88  75  76  42  23  25  28  16  14  15  17  13  15  13  13  14  15  16  14  13  12  11  11  11  10  12   9   8   9   9
  14  18  27  57  97 117 113  83  45  22  13  10   1   8  63  76  63  64  58  35  27  40  49  76 116 131 132 122 110 117 129  97  96 131 105  97  93 108  99 113 118 129 125 119 120 103  91  88  94 109 117 152 153 166 171 145 157 135  70  85  87  84  96 101  92  77  50  21  17  16  13  14  17  15  16  15  13  14  13  13  13  13  13  12  11  12   9   9   9   8   8   8
  16  17  24  37  56  63  58  42  25  14   8   9   7  49  47  34  56  50  46  39  35  23  51 110 113 136 127 127 117 128  90  91 112  93  78  81 111 141 123 119 129 141 140 137 131 116 110 113 112 107 135 156 174 170 144 156 154  98  87 101 109  95  85  94  87  81  80  50  16  12  14  15  17  17  18  17  16  13  13  13  14  13  13  11  11  10   9   9   9   8   7   8
  17  19  22  26  29  29  25  18  10   9   8  11  41  41  23  35  34  38  47  45  31  54  86  99 134 127  99 121 119 100  78  88  93  78  90 115 168 149 106 119 127 123 117 118 115 112 114 123 134 146 165 180 171 142 150 155 111  99  99  96  99 108  81  70  76  72  75  77  49  29  17  14  17  19  18  17  15  14  13  13  13  13  14  12  12  10  10   9   9   8   7   7
  15  15  15  17  13  12   8   7   8  12  16  29  38  17  24  29  28  39  46  50  79  72  86 134 138 118 106 128 111 108 107  97  77  83 117 145 142 126 118 137 140 133 125 118 106  92  73  76 108 156 171 170 133 151 146 103  80  94 104 107 116 103  83  63  72  76  65  57  60  46  30  20  17  18  19  18  16  16  14  13  13  13  13  13  11  11  11  12  10   9   9   7
  26  23  14  11   8   4   7  10  16  18  20  44  27  20  23  25  24  37  72 114  58  64 140 144 123 118 133 137 122 112 125 107  97 110 118 145 136 137 129 131 139 138 135 133 124 124 108 110 146 154 149 123 130 143 112 114 115 101  85  85  92 102 104  74  53  66  73  59  43  46  41  35  22  18  19  18  16  15  13  13  13  13  13  13  13  12  12  12   9   9   9   9
  66  45  25  10  10  12  14  16  18  20  31  34  16  17  18  20  26  73  96  60  39 141 153 126 108 141 156 125 106 131 148 132 110  92 114 128 131 142 140 125 139 147 146 147 143 137 140 154 146 125 115 121 121 113 111 101 107  93  92  84  74  74  86  90  80  54  51  67  59  50  43  29  31  23  17  18  17  15  14  13  13  13  13  13  13  12  12  11   9   9  10  10
 148 123  61  22  15  18  20  19  19  19  40  22  10  12  17  31  72  82  66  67 136 169 149 110 143 164 134 111 112 153 145 123  63  60  91 120 123 122 123 143 147 132 132 138 137 134 128 126 122 126 114 101  98  98  98  94 115 106  92  89  78  70  70  84  94  79  57  50  55  57  41  29  25  28  20  19  18  16  14  14  14  13  13  13  13  13  11  10  10  10  10  11
 191 209 123  35  19  17  20  19  15  16  29  13  11  20  42  58  51  41  72 142 177 162 134 131 169 145 128 114 151 155 115  89  53  77 134 142 131 117 139 146 156 163 142 115 125 126 118 109 108 106 102  98  99 105  92  87  91  85  76  67  66  72  68  66  76  89  81  75  60  48  50  39  27  26  23  20  18  17  16  15  15  14  13  13  13  13  11  10   9   9  10  12
 211 217 127  39  22  15  14  12   9  12  12   6  10  45  72  17  32  96 170 189 162 149 126 156 153 137 123 127 160 122 100 107  94 103 137 137 123 152 131 131 116 120 149 117 105 109 107 108 104  98 102 103  92  91  81  83 103 106  93  67  57  60  64  69  71  81  85  91  97  75  45  43  42  25  22  21  19  18  17  16  15  15  13  14  13  13  12  11   9  10  12  13
 223 199 128  49  18  15  11   9   8   7   6   6  34  74  29  63 125 182 190 172 157 132 143 166 131 130 115 148 148 114 129 147 115 115 138 132 143 150 104  96  62  59 108 135 124 127 117 107 112 112 102 106  97  65  59  66  85 105 112 115  98  63  56  61  72  67  72  87  98  93  71  46  41  40  23  26  22  18  17  16  15  15  14  15  14  12  13  11   9   9  11  12
 230 220 198 110  20  17   9   8   8  11  15  23  58  54  97 140 171 182 182 168 150 134 164 145 126 120 125 158 129 129 145 131 130 138 137 137 141 130  89  75  53  53  60 104 120 123 128 119 111 103 108 111 113  87  62  72  65  65  75 100 123 117  74  64  61  67  69  79  88  94  88  62  41  42  34  23  26  23  17  18  16  15  15  15  14  13  13  12  10   9  11  13
 253 245 225 165  38  12   6   7   8   8  13  30  62 115 133 163 180 184 168 162 146 162 152 146 121 105 148 146  98 101 119 138 149 149 142 150 140 126  95  78  53  58  76 102 131 139 140 133 123 111  96 103 108 112  79  65  70  69  74  81  76  98 107  92  70  60  66  88  92  91  88  65  50  46  34  23  21  23  21  17  17  16  15  15  15  14  14  12  12  10  10  11
 251 250 246 194  60  12   8   9  10  10  17  65 117 113 144 169 171 184 162 153 149 155 154 142 109 102 156 122  96  95 121 139 136 149 153 152 147 130 113  88  68  72  76 103 116 121 128 125 128 126 117  97  96 105 100  67  60  70  74  77  63  52  72  93  97  77  62  66  83  95  98  91  54  33  29  25  20  19  26  19  16  16  15  16  16  14  15  13  12  12  11  11
 249 249 254 234 114  20   8  10  12   9  43 120  87 120 168 158 179 188 172 152 160 145 155 132 111 116 149 106 102 117 135 147 152 160 162 161 152 135 122 103  84  67  67  78 107  93  88 100 116 125 123 119 100  98 109  84  61  58  71  74  85  74  53  62  88  98  84  62  57  72  99  85  79  48  27  26  24  21  21  21  16  16  16  17  14  15  15  15  14  12   8  10
 249 249 252 250 158  30  11  10  11  12  91  93  98 161 144 165 188 182 160 167 162 137 145 126 106 136 130 112 128 149 162 166 170 168 170 172 164 153 137 120 100  87  81  86 106  85  99  97 103 116 119 118 124 103 101 102  74  71  69  70  69  74  65  55  60  83  89  87  64  47  71  92  64  60  37  24  24  19  18  20  19  15  15  15  15  15  15  15  13  12  11  10
 250 250 253 241 161  67  38  10  10  30 100  84 141 135 146 189 194 163 169 178 139 140 143 118 116 143 113 118 145 162 173 181 182 179 175 174 172 162 146 132 114 100 112 129 116  86  89  92  95 105 106 115 118 130 112 105  87  68  73  68  71  75  72  50  36  62  76  91  91  60  38  76  91  47  40  24  19  18  18  15  20  16  15  15  16  15  15  15  14  12  12   9
 250 251 242 211 132  81  44  14  14  54  88 103 126 131 171 182 172 160 177 143 130 147 146 121 134 128 121 139 160 174 181 182 185 185 183 183 181 173 155 137 128 114 106 126 127 113 115 115 115 101  96  91  97 106 130 121 110  60  57  73  75  77  77  74  36  32  65  77  88  90  55  49  90  67  26  29  19  20  17  13  16  19  14  16  15  16  15  15  15  13  11  10
 232 223 204 163  85  94  50   7  12  57  96 132 132 161 167 166 158 173 139 127 129 148 139 133 121 110 125 155 174 187 189 183 186 185 182 181 184 181 173 166 151 145 132 141 123 118 128 132 136 125 107  85  74  97 113 130 129  92  42  54  76  79  68  60  67  27  45  75  73  86  82  51  45  74  44  27  29  20  16  14  13  19  16  15  13  14  15  15  15  13  11  10
 206 192 160 107  50  91  45   4  25  82 133 137 140 157 160 158 161 141 112 102 127 128 129 128  89 109 154 176 185 189 189 186 183 180 179 178 179 178 177 176 172 166 157 154 134 136 133 124 130 126 113 104  86  78 112 108 134 122  65  35  59  88  82  51  53  61  35  54  78  77  87  83  51  36  69  24  22  22  16  15  14  16  19  16  15  15  16  15  15  13  11   9
 183 172 119  59  22  60  52  38  38 101 145 147 150 161 164 154 136 105  98 104 123 125 126  89  84 151 177 183 189 189 187 186 182 180 177 180 181 178 177 178 177 174 170 152 149 147 141 142 138 131 122 114 109  77  76  99 112 133 106  54  35  77  98  74  43  55  45  28  62  81  77  96  72  30  43  59  15  18  18  16  15  12  16  14  14  16  17  13  12  11  10  10
 148 110  50  44  55  49  96  81  80 139 157 147 147 167 166 138 106  98 102 113 120 119  94  69 130 176 183 184 184 187 187 186 183 181 177 178 178 175 177 179 175 174 167 149 157 157 145 146 145 137 141 141 126 105  91  94  86 111 114  74  45  45 101  99  59  31  49  30  41  68  67  94  87  46  15  63  37  14  12  12  15  15  17  13  13  13  14  14  11  10  10   9
  56  31   6  98 133  67 119 110 132 165 159 148 151 168 132 116  94 105 115 116 105  92  76 105 159 179 186 184 183 185 184 186 184 180 177 178 178 178 179 177 178 179 162 150 167 165 161 152 152 153 158 154 137 115 117 114  86  80  97  82  54  39  67 120  83  51  33  49  24  47  56  84  95  58  20  31  54  11   9   9  11  16  19  16  14  13  12  12  11  10   9  10
  19  24  11  60 119  78 124  85 124 141 146 146 157 149 131 124 122 118 111  96  92  87 103 135 163 179 187 186 185 184 184 183 183 179 177 178 180 180 179 177 179 179 159 157 167 170 167 159 149 149 152 153 143 127 115 121 104  79  78  85  57  44  47 100  99  70  31  40  35  28  44  61  91  71  31  20  53  27   9  11  10  11  14  14  15  14  13  14  14  10  11  13
  26  27  17  12  99 134 107  73 117 134 128 127 137 131 131 127 117 108  97  90  86 102 125 142 164 182 186 187 186 183 184 182 181 181 179 179 180 181 180 181 179 176 156 164 172 172 172 164 160 157 156 152 147 141 128 111 106  91  74  72  58  43  44  66 104  81  66  29  56  27  30  32  72  83  58  18  40  35   8  10  10  12  13  14  17  16  17  20  19  16  16  15
  29  19  22  25  36 123 117 103 130 144 118 120 116 119 117 106 100  80  72  76  94 121 143 145 160 180 187 184 182 181 182 184 183 180 180 182 179 180 182 182 184 175 156 175 177 173 171 171 164 164 166 161 158 153 152 134 112 111  86  72  54  38  42  41  81  85  90  48  48  35  20  26  41  76  72  34  23  27  10  12  10  10  13  15  24  19  13  19  24  23  15  13
  23  17  23  55  32  63 123 122 133 146 137 123 108  84  65  64  57  65  65  73 101 129 146 151 160 178 186 182 182 180 179 180 181 178 178 178 178 178 176 177 183 170 161 181 179 173 172 170 166 166 167 166 164 162 160 156 134 129 115  87  58  39  30  30  51  67  81  81  41  55  20  31  30  57  65  49  23  26  18  15   9   7  11  19  18  13  18  33  34  15   9  12
  19  20  16  48  74  66  87 130 127 133 130 123 104  67  46  38  60  76  61  72 102 132 150 155 162 175 183 181 180 178 179 181 179 179 180 179 180 178 178 180 181 161 170 183 178 173 173 174 169 167 164 163 164 165 159 160 153 146 130 108  72  43  29  24  31  47  54  78  51  54  27  24  30  40  49  46  33  30  25  16  16  18  22  22  18  32  45  46  36  18  11  12
  23  23  25  28  77 106  65 107 122 103  99 106  79  52  37  39  86  79  61  83 118 144 151 156 162 169 176 179 179 176 174 176 176 177 179 176 180 185 181 181 182 156 171 180 179 176 174 175 173 169 167 162 161 163 161 160 156 155 148 129  95  52  34  23  15  35  40  53  50  33  30  14  24  30  31  37  28  25  31  31  29  32  30  34  60  88  73  55  33  16  15  13
  31  36  41  46  55  74 103 109 103 111  96  66  53  35  33  63 116  92  65 104 134 145 150 157 163 168 174 174 176 174 173 174 170 172 173 175 182 179 181 182 183 167 162 169 173 171 175 175 175 170 168 165 162 161 161 158 159 155 150 147 132  75  42  40  19  24  40  40  41  26  26  15  17  23  24  33  31  25  31  33  30  34  46  83 106  88  50  21  20  15  13  14
  37  39  29  30  30  55 112 116 114 126  99  50  66  58  42  89 136 104  78 115 132 142 152 158 163 167 169 173 172 171 168 171 172 173 174 176 178 177 182 180 179 180 175 175 182 181 173 179 175 170 168 166 166 164 165 162 163 159 152 144 143 111  41  49  41  23  37  40  31  28  22  20  14  22  21  27  33  29  33  35  32  35  41  43  43  16   7  20  28  22  17  23
  40  35  24  28  37  67 120 123 114 100  57  72 105  55  47  87 131 120  81 111 133 145 148 156 164 168 167 169 171 170 167 167 171 172 173 174 175 181 185 183 182 181 185 184 182 186 181 182 179 174 175 170 167 166 165 165 164 158 154 147 140 138  78  28  40  32  29  39  29  28  20  19  14  14  14  22  35  36  38  53  57  44  28  28  59  46  38  35  36  22  25  27
  30  23  18  46  43 110 153 132 112  74  65  97  94  51  61  85 143 109  88 126 136 139 147 155 162 163 164 168 172 169 167 167 169 166 173 175 177 178 179 181 184 184 184 183 180 179 182 184 178 174 174 168 167 167 167 165 160 158 156 149 141 140 130  79  47  41  34  34  34  27  19  16  18  19  17  16  24  35  44  48  68  86  94  84  78  66  52  39  30  18  29  26
  26  19  26  64  17 107 150 117  86  63  68  67  57  50  64 116 160 125  91 119 129 143 150 154 160 162 161 159 167 170 167 169 171 171 175 174 176 178 176 179 180 181 181 181 175 176 182 183 183 175 173 170 168 168 165 163 161 159 155 152 143 138 134 134 118 115 110  73  38  26  26  15  13  15  18  20  16  15  40  67  66  69  91  97 102  88  56  37  23  19  25  18
  27  14  24  69  20  69 124 102  82  84  71  74  75  75  96 130 157 127  93 109 127 144 147 151 159 160 161 164 167 169 170 169 173 176 179 176 171 179 178 177 178 177 174 176 172 172 176 179 181 179 176 174 171 168 166 166 163 159 156 150 144 140 134 133 130 125 131 127  89  36  24  18  13  14  20  31  30  34  46  85 101 113 130 127 105  72  42  26  23  23  23  15
  25  13  11  74  35  41  56  50  88 105  85 110  95 109  94 109 139 104  86 108 130 139 143 149 158 155 158 166 166 168 171 170 171 174 180 179 178 182 179 176 176 174 171 170 173 170 170 175 177 176 174 173 173 169 167 165 163 158 155 154 148 144 143 136 133 129 129 125 115  74  39  22  20  19  25  35  41  49  82 104 113 117 107  74  49  25  15  18  22  24  21  23
  24  27  29  61  70  23  17  25  96 105  95 113 129 111  61 100 125  89  83 116 134 140 143 149 154 154 157 162 164 166 169 170 172 176 180 180 182 183 181 180 177 174 169 169 169 167 169 173 174 176 175 172 173 172 168 164 164 161 158 158 152 142 142 138 135 131 128 122 107  83  64  40  24  21  19  20  26  30  39  34  35  41  45  39  31  24  18  18  24  29  33  47
  10  20  22  21  75  71  32  46 101 101 102 122 141  95  56  99 115  95  79 117 133 138 142 148 152 152 153 157 165 165 169 174 174 173 176 179 179 179 179 181 182 178 172 168 170 167 170 172 172 174 176 173 172 174 171 166 167 164 162 161 153 145 142 139 137 135 128 118  99  79  74  63  46  26  27  17  13  15  14  17  19  17  22  34  37  34  32  29  32  35  52  34
  26  14   5   6  13  72  82  66 101  98 108 111 129  90  68 101 115  96  64 110 128 132 139 143 148 151 154 160 165 168 172 177 175 174 176 176 178 180 181 182 185 184 176 170 170 170 169 170 172 175 174 177 176 173 174 170 166 166 164 160 152 147 144 140 135 131 126 116  93  79  82  69  54  38  31  24  12  12  16  13  11  14  14  17  19  21  25  26  25  21  12   6
  10   6   6  10  11  18  58  87  97 101 105  98 120 107  81 103  97  72  68 107 120 132 136 144 147 151 165 170 168 173 177 179 178 176 176 173 176 180 183 187 192 194 192 182 173 170 171 169 179 179 180 178 180 179 177 174 166 165 166 161 153 147 142 139 131 126 124 115  90  76  77  69  56  39  36  32  17  11  15  15  17  20  15  17  13  10   9  12   9   5   5   8
   4   9   7   9  16  20  30  76  97  90 104  97 107 117  94 109 104  67  69 100 114 128 132 142 150 161 174 178 178 178 174 171 166 165 168 173 176 177 174 185 190 192 199 190 180 174 173 177 183 185 185 190 187 184 179 174 168 167 167 164 158 153 148 141 136 128 119 117  89  66  71  71  58  41  37  36  22  14  12  15  14  13  16  20  18  13  18  14  11   9   6   7
   4   5   5   8  12  38  55  81  92  72 106  83  82 109 102  91 113  85  68  97 114 124 129 142 155 169 173 169 165 159 150 143 136 130 136 140 143 151 144 154 179 183 187 191 188 180 181 185 188 186 193 197 188 179 178 171 162 161 154 154 150 141 126 118 115 116 102  93  87  63  64  68  53  43  39  36  22  14  13  11  12  11  14  19  20  19  28  18   8   5   6   6
   8  10  10  10  29  53  56  95  92  86 114 100  85 103 112  97 105 111  71  95 111 119 126 137 149 154 147 145 134 128 120 115 104 104  99 111 110 110 123 128 154 169 169 177 185 186 185 185 189 182 180 182 174 171 166 153 148 136 119 111 103  86  76  76  79  81  78  75  63  52  52  58  53  46  42  39  21  12  13  12  12  13  16  18  20  24  35  29   7   8   7   7
  11  14  16  16  29  45  71 104  88  90 107 110 103 102 115 119 119 149 130  97 108 118 129 133 141 145 139 141 138 135 132 131 128 124 111 106 104 103 115 121 124 146 161 163 169 175 176 177 173 174 169 167 167 163 154 148 127 107  99  90  82  71  60  62  65  72  55  47  42  38  38  48  55  45  47  38  17  13  17  15  12  14  14  15  18  23  35  27   9  10   7  12
  17  17  14  17  28  41  72 104  94  96 115 115 101  86 117 115 129 149 153 107 104 116 130 133 137 137 136 139 143 143 140 136 137 145 140 138 128 128 127 131 129 138 153 152 161 160 163 164 164 165 164 163 162 156 150 136 111 103  91  90  98 110 113 114 121 123 103  80  73  55  33  39  55  50  58  35  15  13  19  21  23  18  10  16  21  21  25  24  19  14  23  23
  22  21  19  16  23  29  59 102  92 100 119 110 103  85 115 114 106  95 110  93  98 115 128 134 137 136 141 134 131 134 138 140 145 149 149 155 149 136 134 134 134 138 145 150 156 155 159 162 162 159 156 154 150 148 133 119 121 114 117 126 136 142 137 133 128 124 118 108  96  73  41  39  52  62  60  28  15  13  18  25  42  62  77  55  34  40  53  64  47  32  41  24
  16  18  19  10  13  17  56  99  84 106 121 109 109  93 108 110 122  80  65  74  81 112 130 138 139 139 132 123 131 140 141 141 147 150 149 150 154 153 146 135 127 124 126 136 148 153 156 164 168 158 152 146 137 125 116 116 119 124 134 138 135 130 128 122 118 120 113 101  89  74  46  43  52  67  58  20  14  17  23  28  43  80 130 139 101  74  67  59  34  41  50  37
  11  12  18  11   4  16  78 100 101 133 118 127 118  83  99 107 109 101  55  54  68 107 130 136 140 138 128 122 120 119 116 111 109 115 121 113 108 110 128 136 134 130 124 120 128 147 158 168 182 161 145 130 113 107 111 116 118 114 107 104 114 120 110  97  86  84  89  97  85  67  50  44  56  67  57  21  13  15  19  26  43  76 115 119  89  71  51  28  25  46  48  49
  11   9  14  38  40  62  96 110 131 106 100 135 113  95 111 109  79  99  63  48  60 107 132 136 138 137 126 112  97  99  95  89  69  77  59  64  81  91  91 108 127 125 127 123 120 132 156 171 180 160 137 107  96 108 112 107 101  92  94  89  81  80  66  64  71  72  62  67  91  72  52  44  59  70  49  24  10  13  16  18  30  43  94 131  90  62  55  53  47  44  65  73
  11  14  19  28  66  75  84 123  98  81 109 120 112 101 113 109  69  98  76  50  60 109 134 137 132 127 119 102  89  85 141 106  68  64  63  68 103 125 104  98 107 115 125 130 127 125 148 170 173 159 130  89  99 114 111 110 100  96 120  86  58  61  50  47  69  66  55  54  82  78  52  45  60  77  56  27  10  13  13  21  29  44  64  64  57  50  49  43  42  48  51  53
  13  20  29  42  44  47  79 102  90 103 105 121 124 100 124 108  63  93  89  50  71 115 136 141 136 126 119 110 111 127 158 117  72  77  81  90 154 177 134 105 103 135 160 148 128 131 150 169 172 157 129  87 102 132 140 116 111 129 174 123  73  69  77  58 104 100  58  47  61  67  56  50  69  66  69  37   9  16  18  25  30  56 109 104  65  44  38  41  41  37  35  52
  22  34  44  33  41  50  82  90 101 114 102 125 130 127 143 104  60  81  89  65  97 122 138 148 148 141 138 136 134 139 146 154  99  82  86 109 161 141 119 119 125 152 170 148 129 139 149 164 170 154 135  97  97 143 153 119 117 128 144 141  86  90  72  83 130 103  80  53  59  62  67  54  64  66  68  44   7  15  19  22  29  47  90 104  83  57  41  37  35  39  43  54
  22  23  23  25  56  58  71  71  95 117 110 135 148 153 140 106 111 118  85  87 114 128 145 156 160 159 154 146 140 140 136 139 136 120 129 143 138 129 126 136 145 148 147 131 135 143 146 161 169 154 137 105  91 117 148 143 144 139 128 147 140 119  99 111 102  94  83  75  81  87  81  61  62  67  58  34  11  13  16  19  28  53  94 102  76  54  43  39  41  38  49  67
  21  21  26  24  90  82  74  98 116 106 114 138 144 153 160 161 152 119  84  89 120 134 150 163 167 166 161 154 145 138 139 137 142 142 148 145 136 142 145 144 146 154 143 137 147 145 146 160 176 156 137 112  89 100 134 147 140 138 134 144 146 139 133 125 109 111 100  88  91 101  97  70  61  66  66  37  10  17  20  20  29  42  64  74  56  43  38  41  42  36  53  76
  14  16  29  61 117  65  68 107 106 108 125 131 150 161 155 138  94  87  85  94 125 139 153 167 171 171 165 162 161 151 142 139 140 141 139 141 148 152 151 157 159 156 148 152 153 151 149 159 178 163 141 115  90  91 114 147 157 152 148 141 132 130 126 129 125 114 105 102 106 109 106  78  60  75  71  40  10  16  22  29  33  39  41  37  38  34  37  43  40  33  36  49
   7  14  46  70 112  79  71 104  72  98 119 138 155 123  93  81  67  85  82 104 129 143 158 169 175 176 168 160 163 157 157 153 147 147 149 153 162 156 157 167 166 157 155 158 159 155 149 161 178 171 149 114  88  90 105 125 152 163 161 153 143 136 130 129 126 122 120 114 110 116 112  88  70  67  65  38  14  19  17  24  36  48  60  63  51  51  51  45  34  35  30  29
   8  18  32  43 107 106  94 123 116 127 148 165 142 106  87  84  94  96  97 109 130 145 158 168 176 178 175 171 169 164 163 162 159 155 159 162 161 164 170 169 162 156 154 161 157 152 150 163 179 173 151 118  88  88 101 112 136 156 162 157 147 137 131 133 130 128 126 122 118 121 115  90  72  71  68  37  15  20  21  25  36  55  76  83  70  54  54  45  36  33  32  32
   8  17  52  53  74 117 122 133 151 152 145 123 104 101  96 106 102  96 120 120 131 144 156 168 176 178 176 175 172 170 165 163 162 163 161 160 161 167 167 166 159 157 158 157 153 149 152 164 175 171 155 130  94  87  99 106 131 143 152 156 149 143 137 137 136 134 135 131 128 127 115  88  70  79  62  31  21  20  24  29  38  61  80  86  76  62  52  34  30  27  21  17
  10  25  52  45  47  67 116 129 135 120 109 111 124 119 103 101 108 120 130 127 133 142 156 163 170 173 175 176 176 172 170 166 162 163 165 166 166 167 166 167 163 159 157 155 150 145 152 164 174 169 158 139 108  84  95 105 122 138 143 152 149 148 147 143 141 140 141 137 132 125 112  88  64  80  68  29  27  28  29  28  41  57  79  93  80  59  49  38  33  24  12   7
  11  39  18  37  73  82  86 101 110 106 130 156 146 122 106  96 123 141 128 126 131 140 152 156 165 170 171 171 173 173 172 172 169 170 168 171 165 165 169 165 166 163 159 154 149 143 157 172 177 170 160 148 125  90  84  99 119 134 143 152 151 151 151 148 138 143 142 142 132 126 109  83  66  76  53  25  40  53  32  28  41  50  69  90  79  58  42  41  52  32  24  18
  30  46  34  70 101  89  86 112 126 147 165 161 136 123 117 103 128 139 124 137 130 138 149 155 161 165 169 169 171 170 171 176 170 169 170 170 169 169 171 168 166 165 161 150 145 150 164 172 176 172 164 150 135 103  84  91 123 137 146 150 153 152 148 150 144 143 141 137 132 126 105  80  63  56  41  26  31  65  38  28  44  62  78  75  78  59  43  57  49  35  39  38
  35  70  80  63  77  93 114 138 155 166 164 166 146 114 115 117 133 131 122 146 140 133 143 153 157 161 164 166 169 167 170 174 171 169 169 168 171 173 173 173 168 163 154 145 148 157 166 165 171 175 167 159 141 115  87  87 114 139 144 148 152 153 150 149 149 147 141 133 130 120 102  75  57  47  38  27  28  33  30  23  36  70  92  70  52  59  53  49  39  34  36  38
  22  51  86  86  86  66  82 128 165 166 159 153 150 119 120 121 149 142 114 119 132 128 138 148 155 158 163 165 165 168 169 172 173 170 168 170 172 172 173 171 170 164 147 153 160 162 161 162 170 179 178 167 143 117  88  85  96 135 149 151 154 154 151 151 149 144 143 133 128 115  96  74  55  44  31  27  35  37  31  26  28  48  75  87  60  48  58  46  35  33  33  33
  29  34  74 110 107 102 117 148 159 157 150 144 142 123 115 134 151 160 144 115 107 122 133 145 153 155 161 164 167 171 170 170 171 169 172 171 173 171 170 168 166 162 150 162 162 153 148 146 151 152 156 155 131 107  97  93  85 117 151 156 158 155 154 154 149 145 141 132 128 113  88  72  52  34  40  41  38  39  31  38  43  45  47  64  75  53  48  67  58  31  22  26
  14  13  34  90 115 120 126 134 133 141 138 134 134 113  92 139 169 162 166 137  99 110 136 137 149 153 157 158 164 168 168 169 168 169 172 173 172 171 169 170 167 159 150 158 152 129 114 122 134 133 141 134 106  76  86 109  97 105 144 157 163 157 156 153 149 145 143 136 124 111  81  66  47  54  68  79  73  37  31  43  60  83  77  54  60  70  55  57  78  65  32  20
   6  10  21  60  93 104 117 116 115 125 118 126 114 107  74 115 172 162 155 142 103 102 131 139 144 151 153 155 160 164 166 167 169 170 171 172 174 175 174 172 169 163 147 152 129 101  60  58 101 125 125 111  62  94 122 117 112 106 139 151 164 163 157 152 148 143 140 134 119 105  80  64  42  87 101  90 106  47  21  30  41  63  64  49  52  59  65  58  62  67  63  61
   7  10  16  36  72  84  89  87  97 106 101 109 112 100  68 112 165 159 152 156 123 101 126 141 142 148 151 157 157 161 167 167 171 173 172 174 176 176 176 174 172 170 149 139 133 148 126 104 109 114 109  92  97 128 129 117 100 120 139 143 162 168 156 151 151 147 138 131 118 102  74  60  51 114 130 105 110  53  27  31  28  33  42  51  57  57  58  57  52  51  51  61
  12  17  24  27  42  69  76  81  87 102 110 103 113  97  76  97 152 165 155 152 134 120 131 145 147 148 151 154 158 160 162 168 174 176 175 172 174 177 176 174 172 173 162 136 131 138 150 154 138 127 113 108 126 115  97 102 117 131 138 144 153 166 161 154 147 145 138 131 116  97  67  53  63 125 138 136 113  35  36  41  33  31  31  36  42  61  77  70  50  43  34  36
  22  29  32  33  46  50  89  89  79  71  62  68  83 109 125 113 123 161 165 165 159 135 128 146 149 148 148 153 157 160 165 171 175 174 173 175 177 177 176 174 172 172 173 161 143 140 146 154 159 158 139 135 134 119 114 116 125 129 134 141 144 151 162 164 149 125 131 127 111  89  67  50  68 136 139 136  85  14  31  44  47  48  47  47  56  62  42  28  28  23  18  13
  31  35  33  34  40  71  69  85  82  58  43  40  80 133 134 118 106 126 154 163 165 141 126 143 146 149 149 153 158 163 168 171 174 174 175 177 177 176 175 174 174 175 175 172 169 159 159 163 170 169 156 150 144 130 119 115 119 125 128 134 140 142 146 159 147 107 121 121 108  81  65  54  60 127 126  97  25   9  20  28  42  49  51  51  50  39  22  19  17  13  13   9
  33  35  37  33  39  65  56  87 117 105 100 120 151 141 117 112 100  66 114 117 111 106 123 140 145 151 152 150 157 163 166 170 175 177 177 174 175 174 176 175 173 173 173 171 172 168 166 166 171 163 158 159 152 137 123 117 116 121 126 132 139 142 139 139 140 134 116 113 103  72  65  55  34  45  41  19   5  10  13  20  26  25  24  21  18  19  18  16  15  13   8   5
  31  30  34  34  42  84  99  87  81  95 121 139 137 134 127 120  93 110 117  75  42  40 112 138 143 149 150 150 152 159 164 168 171 174 175 175 175 175 175 172 171 169 172 171 170 169 170 173 173 162 159 167 159 146 131 123 118 119 125 126 130 136 137 135 123 131 126 112  97  68  68  57  24  16  24  22  26  24  23  32  26  22  23  20  15  18  16  15  13  10   6   6
  30  29  28  30  50 110  88  67  97 117 126 126 134 135 135 116 126 144 113  92  61  73 107 136 143 145 147 150 146 151 159 165 167 168 172 170 169 170 168 167 167 168 170 171 170 171 171 174 172 157 155 160 159 153 137 129 126 117 119 126 128 137 141 134 106 111 129 112  89  67  71  63  28  21  36  26  24  26  27  30  26  28  31  25  18  13  13  11   8   7   6   6
  30  30  29  29  45 109 109 110 118 130 134 130 120 122 133 141 156 136 122  92  81  84 103 136 142 145 145 144 143 147 156 161 165 167 165 166 168 166 166 166 167 165 167 172 172 173 172 169 168 160 154 159 153 139 125 123 119 114 108 119 117 132 144 131 119 110 121 109  82  67  69  65  28  15  32  30  17  15  14  20  32  43  42  31  18  12   9   8   7   7   6   5
  31  31  29  31  43  76 101 103 116 123 112 105 113 126 142 150 139 138 125  94  88  75  87 137 140 142 144 143 144 145 148 156 160 163 160 163 168 165 164 161 160 160 163 163 159 155 152 149 149 147 140 136 121 116 121 121 111 104  91  97 104 123 136 136 125 107 116 104  68  66  74  67  27  12  22  25  23  22  26  39  55  63  54  36  21   8   8   8   7   7   6   5
  32  32  33  33  35  39  53  63  72  87  97 109 120 133 131 123 116 114  97  89  97  84  66 132 140 145 148 146 145 145 145 149 153 158 162 164 166 163 158 149 148 148 141 134 133 138 133 129 127 113 109 102 103 108 106  93  90  95  90  82  74  93 127 143 135 108 111  91  62  71  76  66  26  13  24  27  29  26  34  52  63  66  54  43  13   6   7   7   6   9   7   5
  33  33  34  38  43  48  50  46  43  54 102 124 122 118 113 113 112  96  93 107 104  78  57 124 141 148 151 150 148 145 142 141 145 151 158 161 161 159 149 135 126 117 116 116 107 101 102  97  95  92  75  83  95  91  81  79  75  69  67  65  80 124 147 148 141 113 108  83  69  78  80  65  23  12  28  44  43  40  42  50  65  60  51  31  27  10   7   6   6   7   7   5
  33  32  36  42  49  55  54  52  39  47  70  84 108 117 117 121 118 108 119 109  91  85  61 114 142 147 151 153 152 144 142 138 140 146 155 158 158 148 122  93  82  89  93  93  90  99 106 112 115 119 116 122 122 120 111 104  96  87  81  89 118 145 153 153 141 113 101  79  80  84  79  57  20  17  25  38  53  49  47  54  56  58  34  11  38  22   8   6   6   6   6   5
  35  37  40  44  49  49  44  34  28  37  60 105 111 115 121 115 113 130 113  83 109  91  65 106 143 148 151 151 152 154 148 141 139 146 151 155 154 145 134 129 121 107 104 115 124 132 140 142 142 139 132 135 136 128 120 111 103  99 100 106 121 138 144 148 136 113  94  79  87  90  73  51  16  11  35  47  41  55  50  40  43  43  20  13  29  30  11   4   5   6   7   4
  38  41  44  43  44  40  33  22  31  28  48  97  97 102 108 113 123 107  81 109 123 100  71 102 136 146 151 153 154 155 152 142 139 145 150 154 153 153 159 162 158 151 145 139 139 139 143 148 147 142 139 134 139 130 128 126 122 116 112 113 123 137 137 138 129 113  89  84  88  84  67  40  15  24  24  59  74  42  41  35  40  45  22  17  30  35  15   4   2   9   8   3
  41  41  38  35  35  30  22  20  23  10  48  34  32 100 124 119  98  89 113 134 119 100  75 107 131 140 148 155 154 155 153 144 138 144 149 153 157 157 158 159 157 159 158 156 153 150 146 146 144 138 137 136 133 132 133 135 131 121 115 114 125 133 133 130 123 109  88  85  86  81  63  28  16  40  40  39  44  45  28  32  53  47  23  27  39  50  20   7   4  15   4   3
  38  42  48  41  32  27  20  17  13  51  75  64 111 140 115  97  96 132 150 130 113 100  74 101 134 131 146 154 153 155 153 146 140 142 151 153 157 159 160 162 162 158 158 158 155 153 151 146 142 141 141 142 141 144 141 141 137 121 113 118 126 128 129 124 112 106  90  83  84  77  54  17  23  43  49  51  33  28  37  49  54  42  34  30  47  49  21   7   9   8   3   4
  51  67  71  67  52  36  43  38  31  72  75  82 125 119 121 112 139 154 117 110 106  86  78 111 138 127 137 146 148 151 151 148 141 140 149 152 154 159 158 159 160 159 160 158 154 155 154 150 149 150 148 143 144 144 143 141 133 124 122 121 122 126 125 118 109 102  86  83  83  70  36   8  24  42  59  52  43  42  57  64  50  36  34  31  40  25  16   6   6   3   3   4
  70  85  77  84  71  59  67  43  34  18  11  84 149 131 134 158 143  97  89  91  88  86 113 113 140 131 126 142 147 149 150 148 141 139 146 151 153 157 158 155 156 155 155 155 154 154 153 154 152 150 151 146 143 145 144 143 134 132 128 124 126 123 119 115 109  94  79  86  79  56  17  10  27  34  41  42  44  50  55  54  48  34  31  33  37  18  13   5   4   3   3   3
  55  83  91 102  96  69  66  42  32  18   0  55 105 123 150 110  69  63  57  73  96 116 105  89 136 148 121 132 144 146 147 148 144 142 144 151 153 152 154 157 154 152 152 153 153 156 156 154 152 150 149 145 141 142 150 145 139 135 132 129 125 119 115 113 102  81  78  83  67  35  10  25  35  46  36  32  36  38  44  39  39  37  34  26  15   9   7   4   3   3   3   3
  26  49  93 102  89  63  49  38  25  12   6   1  55 104  70  43  47  63  82 109 119 112  99  80 134 154 134 116 135 143 148 147 146 142 144 149 152 154 153 152 153 152 153 154 154 159 159 161 157 158 150 147 149 147 152 143 139 137 133 131 124 117 116 108  92  72  77  74  47  16  34  38  38  47  57  45  42  58  53  56  54  40  31   7   6   6   5   3   3   3   3   3
  17  31  83  78  64  47  25  15  10   8   5  43  75  36  29  36  66 102 112 107  86  82  77  76 132 152 152 124 117 135 145 147 146 142 143 151 152 155 154 152 152 152 155 158 159 160 163 168 172 173 169 161 157 149 141 142 145 139 133 132 125 117 113 102  82  68  74  58  23  24  84  59  36  45  45  47  41  43  57  75  66  52  25   1   4   3   3   3   3   3   3   3
  22  29  48  64  47  32  13   6   8   5  26  64  42  20  38  81 110 114  97  63  53  54  64  81 128 152 153 146 115 114 134 142 143 144 145 148 154 156 154 153 154 155 160 161 164 169 170 170 172 173 170 167 161 153 146 141 141 139 133 127 120 111 106  92  73  68  62  28  26  43  72  93  62  52  43  42  44  53  68  78  67  62  17   1   3   3   3   3   3   3   3   3
  52  24  23  29  28  14   7   8   8   6  21  31  11  11  38  73 103  94  60  52  51  61  82  96 130 150 150 153 143 109 110 131 137 138 142 146 150 153 156 159 160 163 165 167 173 174 172 172 171 172 171 170 166 162 155 145 139 135 127 122 111 105  97  78  67  64  30  24  67  51  48  68  70  56  52  50  52  60  77  79  69  52   9   4   3   3   3   3   2   2   3   3
  94  16  15  10   7   7   9   8   8   8   5   3   8   8   7  18  56  61  59  59  71  91  90 102 129 150 152 152 154 141 106 109 122 124 131 139 145 152 156 157 159 165 167 166 170 170 170 171 173 173 171 170 168 165 160 153 140 133 120 113 103  97  85  69  58  29  31  74  75  52  47  41  46  53  57  54  55  65  72  65  68  43   4   6   4   3   3   3   3   3   3   3
  42  12  10   8   8   9  10   9   9   9   9   9   9   9   7   5  22  56  65  74  88  89  82  78 119 150 152 155 152 154 139 108 100 111 121 129 138 142 147 153 154 158 165 164 164 168 170 171 173 167 164 162 163 162 161 152 138 125 113 104  93  84  72  56  29  39  82  91  71  45  39  42  42  41  45  49  52  55  59  62  78  20   3   6   6   6   4   3   2   3   3   3
  13  10   9   8   9   9   9   9   9   9   9   9   9   9   7   6   6  51  95  93  88  77  79  56 111 152 152 154 154 153 153 142 117  95 100 117 124 128 136 144 147 152 157 155 157 160 161 165 165 162 160 158 155 156 155 145 134 118 106  94  91  78  52  27  46  91  95  88  70  37  32  43  39  42  42  42  44  50  54  53  18   3   5   5   6   6   4   3   4   4   5   5
  17  10   8   8   9   9   9   9   9   9   9   9   9   9   9   7   8  27  82  79  75  62  64  94 141 148 150 153 153 155 157 153 146 131 103  91 104 114 123 136 140 140 146 150 149 151 152 154 154 154 154 153 149 147 144 135 123 112  95  87  74  49  26  52  97 101  96  88  70  33  18  28  29  35  34  35  38  36  30   9   2   5   5   6   4   5   5   3   5   6   6   6
  40  26  14  10   8   9   9   9  10   9   9   9   9   9   9  10  12   7  20  52  67  32  76 172 148 147 151 151 154 160 160 155 150 149 146 120  88  86 103 118 133 134 132 138 136 143 144 145 144 143 145 141 141 142 134 121 110  98  90  70  36  26  56 100 106 104 100  87  70  29   8  13  15  20  21  18  15  11   6   5   6   6   6   6   6   4   4   6   6   6   7   7
  71  56  32  17  10   9   9   9   9   9   9   9   9  10  11  11  11  11   8  12  18  39 173 175 135 148 151 152 154 162 162 159 154 151 151 152 136 105  76  79 104 120 121 126 124 128 135 134 129 130 132 127 128 126 117 110  99  81  62  27  31  60  93 107 109 109 102  88  68  26   7   9  11  10   9   8   7   7   9   8   8   7   6   6   6   6   5   6   6   6   9   9
 104  91  61  30  14  10  10   9   9   9  10   9  10  12  12  12  12  12  12   7  12 144 198 135 123 151 151 154 154 158 161 162 158 155 153 151 150 146 127  96  72  69  83  98  99 106 112 109 110 105 103  96  85  78  70  58  44  31  31  49  70  89 101 112 112 111 100  87  67  22   7   9  10  12  11   9   9   9   9   9   9   9   8   6   5   6   6   6   6   7   9  10
 124 118  92  51  23  11  10  10  10  10  12  12  12  12  12  12  12  12  10  13  43 193 178  91 115 154 151 156 156 157 161 163 161 159 159 157 155 151 148 144 130 101  78  63  59  61  58  56  58  56  58  56  58  59  61  67  75  86  89  86  82  91 100 111 113 106  96  85  64  17   7   9   9   9  10  10  10   9   9   9   9   9   9   8   7   6   5   6   5   9  10  12
 134 133 115  77  37  14  10  13  12  12  12  13  15  15  12  12  13  11  10  17  52 203 169  76 120 158 152 154 156 155 158 161 162 161 159 160 158 155 152 149 146 144 144 137 128 118 110 109 116 121 124 130 138 143 146 145 135 123 106  85  77  89 104 113 109 103  95  81  60  27   6   8   9  10  12  12  12  11  11  10   9   9   9   9   8   7   6   6   6   9  11  12
 137 141 129 102  60  24  11  11  13  14  16  15  15  15  12  12  13  11  16  23  52 204 182  73 123 159 153 153 154 156 161 160 159 162 162 161 161 160 157 153 151 148 150 155 158 157 159 159 160 164 160 155 156 156 154 145 132 118 103  86  75  87 111 114 110 104  93  82  52  90  44   1  11  12  12  12  12  12  12  11   9   9   9   9   9   9   8   6   7   9  10  11
 137 143 141 121  82  42  17  13  15  18  18  17  16  15  13  13  13  11  30  28  40 193 204  81 116 158 153 155 154 155 158 162 163 160 160 164 164 164 159 156 154 151 149 153 155 154 156 157 158 159 161 157 153 155 151 140 133 118  98  85  75  85 105 111 110 107  95  80  50 124 120   9   8  12  12  12  12  12  12  13  11  10   9   9   9   9   9   7   5   9   8  10
 134 143 145 135 101  61  28  16  18  19  19  17  15  15  16  16  15  11  82  45  24 160 221 141 109 156 156 156 155 154 156 158 161 162 161 163 166 165 160 157 154 153 153 152 155 155 153 154 155 157 160 158 155 154 149 141 130 114  96  83  75  86 102 108 108 104  96  77  51 117 165  61   2  12  12  12  12  12  12  12  12  11   9   9   9   9   9   6   6   8   8   9
