P2
# Generated by OpenCV 4.2.0
92 112
255
  37  37  38  37  38  37  35  33  31  31  29  29  28  27  23  21  21  17  15  18  27  40  45  48  49  50  50  49  49  59  56  52  49  42  30  29  26  27  36  39  38  30  32  28  27  39  42  32  26  30  34  42  44  42  40  38  32  22  29  41  41  45  45  46  49  45  49  59  68  76  77  75  72  69  68  67  67  64  65  64  64  65  67  69  70  72  70  67  59  49  40  32
  31  33  32  32  33  33  31  28  26  25  23  21  20  19  19  19  17  18  23  27  30  34  37  41  48  66  72  68  56  50  49  47  43  42  31  25  19  21  33  33  24  22  23  23  23  26  38  44  35  31  35  38  43  45  45  44  32  26  33  43  44  46  48  49  47  43  52  63  70  77  78  74  72  69  68  67  66  64  66  64  63  62  65  68  68  72  71  66  60  51  42  33
  25  26  26  25  25  24  22  20  18  17  14  13  12  11  15  18  23  25  25  25  25  28  31  34  36  44  48  48  46  44  45  45  38  38  27  29  30  31  32  26  27  25  23  21  23  23  16  27  41  37  39  42  47  48  51  45  39  39  43  46  50  48  46  46  42  41  52  63  72  79  78  75  71  68  67  66  65  64  65  62  61  61  63  65  68  72  71  67  63  54  44  36
  20  20  20  19  20  19  19  17  16  16  13  12  12  13  16  24  27  25  27  31  29  29  33  35  35  35  37  37  36  31  33  39  34  35  28  34  25  25  24  25  24  25  27  30  26  23  24  31  36  49  46  41  43  58  70  76  77  75  79  71  63  56  49  48  42  46  53  64  73  78  79  75  71  69  68  67  65  65  64  62  60  63  63  64  68  71  70  69  64  56  48  42
  19  19  19  19  20  20  20  18  18  18  16  15  17  16  23  26  26  28  30  30  31  32  36  37  38  42  47  50  49  54  51  44  37  31  40  30  21  24  19  18  18  23  27  29  31  30  34  37  45  46  42  49  82  86  86  93 104 121 123 110  99  95  79  57  46  54  62  67  72  76  76  74  71  67  67  64  63  64  62  60  60  61  61  62  65  67  68  67  64  57  50  44
  17  16  17  18  19  21  21  21  20  21  20  20  21  21  24  26  29  30  34  37  40  37  39  46  51  51  47  48  45  42  43  43  35  28  30  23  23  17  12  17  19  19  19  19  29  28  26  35  31  33  39  46  65  79  85  98 101 103 122 127 113 105  94  84  69  57  61  64  69  74  74  73  69  65  63  61  62  61  59  57  57  57  59  61  63  65  67  67  64  58  51  45
  16  17  17  18  18  20  23  23  25  25  26  26  26  27  27  29  31  32  41  40  43  50  52  44  38  35  33  38  37  37  37  32  21  25  15  15  18  19  22  25  21  22  21  22  29  26  27  34  29  31  33  40  44  54  53  58  71  81  89 102  87  74  74  74  69  60  58  61  69  72  72  69  65  64  61  61  61  59  57  56  55  55  55  58  62  65  67  67  65  60  52  44
  18  18  19  20  21  22  26  26  26  28  28  29  29  29  30  30  33  35  37  43  50  45  39  38  35  41  41  31  35  34  27  24  24  27  15  17  24  25  20  19  20  21  23  30  31  21  22  33  31  33  35  34  37  40  52  50  43  63  80  90 102  95  93  86  68  71  78  66  62  70  68  66  65  63  63  61  62  59  58  56  56  56  54  56  61  63  65  65  64  61  54  46
  24  24  23  24  22  22  25  27  26  27  27  28  27  27  31  33  33  38  47  46  40  38  43  45  44  44  37  33  29  26  33  31  28  25  20  28  27  26  27  23  25  23  28  24  24  26  24  30  40  47  37  39  41  38  46  55  47  47  59  77  95  92  93 102  96 103  94  92  79  67  70  66  65  64  63  61  61  59  57  55  55  56  55  56  60  63  63  65  65  61  54  46
  32  31  29  26  24  21  23  25  25  26  26  24  24  25  27  26  37  44  41  38  40  43  44  42  47  45  47  45  39  35  42  34  28  24  26  23  12  18  25  27  24  28  27  21  20  22  27  31  32  34  36  39  47  45  44  41  42  51  61  67  77  86  87  82  73  79  81  90 116  99  81  68  64  64  63  61  61  60  57  54  55  55  55  57  60  62  62  64  65  60  52  44
  43  43  39  32  25  22  19  19  19  19  19  20  24  22  20  34  42  28  32  42  55  67  69  67  65  63  55  46  41  39  34  30  31  23  22  23  32  31  27  30  26  23  21  23  26  19  22  33  33  28  33  40  44  58  62  49  45  41  55  63  78  97  99 117  98  72  68  58  65  79  97  86  64  62  62  62  61  60  58  54  54  53  56  58  59  60  60  62  63  58  51  44
  59  58  52  43  32  22  17  15  15  15  15  17  17  14  29  47  30  31  47  58  60  73  74  70  66  66  56  50  45  35  31  37  28  26  29  33  36  28  21  21  22  23  22  17  22  26  18  21  30  35  37  42  41  49  65  70  63  55  50  59  71  74  91  99  80  70  68  59  50  46  65  74  72  62  60  58  60  59  56  53  54  54  56  56  57  59  59  60  60  57  51  43
  64  61  53  47  38  24  16  15  14  15  15  14  12  21  45  35  26  33  36  40  58  82  87  89  88  82  67  57  48  40  33  35  29  31  39  36  32  39  38  27  27  19  29  27  16  22  25  20  25  32  37  48  57  64  63  77  80  72  59  64  65  65  77  80  80  81  69  55  49  39  33  41  53  56  53  51  59  58  54  52  51  52  54  54  56  58  58  60  59  57  51  44
  69  64  54  44  38  26  16  15  18  20  21  22  22  34  30  17  26  34  45  66  83  80  79  80  81  69  57  46  46  58  45  44  38  47  57  32  32  32  37  42  31  25  20  28  24  15  23  29  25  27  35  40  56  74  62  79 102  96  81  72  71  79  94  89  78  65  61  54  43  39  29  27  32  44  50  43  43  54  53  51  51  51  51  53  56  59  58  59  59  57  52  45
  79  72  59  46  36  26  17  21  24  27  28  25  24  37  20  24  37  48  60  74  84  85  81  80  80  55  41  54  55  52  74  76  64  80  63  39  31  36  28  37  37  26  19  25  27  16  17  29  30  24  33  47  47  55  63  57  81 106 119  93  71  74  97 104 113  92  67  53  38  31  29  25  23  29  43  41  36  40  52  50  49  50  51  53  55  59  58  59  59  59  55  48
  81  75  64  51  36  21  20  27  30  27  23  24  34  34  25  36  45  54  76  90 114 124 100  83  72  64  58  58  47  52  61  74  75  92  71  44  43  38  37  23  45  32  24  26  25  20  17  27  36  25  26  34  50  42  51  67  52  58 101 130  98  74  76  85  94 108 123  87  52  34  27  27  22  25  36  38  36  33  41  51  50  51  51  54  56  59  59  61  62  61  56  49
  72  69  63  50  31  19  24  27  27  24  24  28  37  35  31  39  60  89  98 118 126 121  93  80  76  74  61  56  57  58  60  64  59  74  78  63  62  39  41  32  42  50  26  27  26  24  19  20  30  34  23  24  28  43  47  55  80  62  66  90 110 110  67  54  72  95 108 132 111  54  35  35  28  24  27  33  34  40  33  45  52  53  54  58  60  62  63  66  68  65  59  51
  61  60  58  44  26  19  23  24  25  24  25  37  42  34  42  53  71  81  98 115 118 109  92  90  88  93  67  59  52  50  51  56  64  70  79  81  69  39  41  49  41  53  37  23  27  26  23  17  20  35  32  25  26  28  44  50  57  70  51  71  77 101 118  79  62  70  90 107 126 114  60  29  27  21  23  26  28  35  35  41  53  56  55  58  62  65  65  66  68  66  58  52
  54  53  52  39  23  18  20  22  25  26  30  43  34  40  50  51  61  64  90 106 100  98  97 108 124  67  48  73  78  77  76  79  97 100  90  69  55  35  41  55  45  46  48  24  31  26  24  23  19  25  35  31  22  29  32  36  47  65  68  60  66  78  74 101  90  81  63  75 112 124 108  50  23  26  19  18  26  28  32  35  48  56  56  58  61  64  65  64  67  66  59  53
  57  53  46  30  21  19  21  21  22  24  30  38  33  39  43  52  53  72  90  78 102  92 123 140  70  51  99 105 106 114 115 122 122 120 112  68  56  50  43  57  43  43  62  31  34  27  28  24  26  23  30  37  27  21  29  29  35  69  80  67  44  59  76  62  90  86  87  56  51  80 121 101  42  27  28  23  18  22  23  27  43  56  57  59  61  65  66  64  66  65  62  56
  62  53  36  24  24  21  22  19  19  24  28  34  36  35  35  44  56  69  69  78 108 105 130  82  53  92 108 113 116 121 133 141 135 135 136 106  70  76  59  74  66  40  71  46  32  28  32  25  27  29  30  41  39  23  31  31  27  52  77  73  65  45  79  74  48  75  69  87  58  37  49  83  94  59  29  28  24  21  20  25  33  45  53  57  60  66  67  66  66  64  62  58
  62  50  34  25  23  21  23  22  21  25  25  37  41  33  38  43  45  54  63  84 100  89  91  79  80 103 110 121 125 135 143 149 143 147 149 145 103  92  76  67  82  52  72  57  32  28  33  27  25  28  33  43  47  36  30  33  29  35  61  77  82  59  58  89  53  52  60  62  74  53  39  31  49  81  62  25  24  26  22  23  23  34  43  51  56  62  66  65  64  60  59  56
  63  53  38  28  22  21  22  24  30  28  35  41  36  33  43  34  40  61  63  89  85  77 110  90  96 107 115 126 131 139 141 142 151 153 153 145 131  99 110  78  81  78  78  76  39  32  37  31  30  32  31  41  46  43  31  33  36  30  41  77  84  73  52  84  85  51  50  47  54  63  42  30  35  33  52  55  28  22  31  33  23  25  34  43  51  57  60  61  60  59  58  55
  72  62  48  33  24  20  22  27  39  37  37  32  36  32  36  44  46  52  72 103  70  90  94 106 110 108 124 133 136 138 139 143 149 153 158 162 162 133 130 125  97  95  88  88  47  36  42  37  37  36  30  42  42  47  35  34  39  39  39  59  94  90  51  73  91  75  47  50  44  42  57  46  26  30  30  47  52  30  30  33  29  31  29  31  46  51  53  57  63  66  66  60
  77  66  52  38  27  22  24  29  31  37  38  35  30  32  41  49  56  61  78  98  69  84  93 114 112 120 131 130 137 140 141 146 151 154 157 163 167 144 102 169 131  99  95 107  54  41  47  44  40  41  42  42  50  53  49  32  42  43  41  40  98 117  56  49  82  78  51  45  59  48  32  42  50  27  27  32  47  44  33  33  32  32  33  25  38  48  51  60  70  79  79  69
  74  63  51  45  36  33  35  38  40  39  40  27  22  29  35  39  49  54  73  78  63  69 104 113 111 132 136 133 141 147 147 147 156 155 164 166 167 140 105 118 174 119  99 115  75  46  55  54  42  48  47  45  58  49  62  40  32  39  47  37  67 127  82  52  62  71  66  46  52  65  60  49  49  49  24  16  30  40  40  31  28  35  38  29  31  44  53  65  78  87  87  77
  66  60  57  59  57  54  64  56  40  38  26  28  31  31  45  45  38  65  95  68  65  67 108 114 116 130 131 140 145 150 145 144 153 160 167 164 159 146 124  89 143 165 113 116 105  60  61  61  55  62  62  43  62  57  71  46  36  40  44  46  49 108 109  62  61  60  65  59  49  48  48  72  60  46  44  32  22  28  41  35  28  44  46  41  30  43  56  69  83  94  94  82
  59  62  67  70  71  70  79  69  43  35  28  26  29  34  36  41  67 114  99  65  67  76 118 120 124 126 134 140 144 146 140 151 159 163 167 166 163 148 135 127 107 151 146 125 128  86  77  72  73  80  78  48  69  67  76  61  39  43  49  52  46  79 128  67  51  67  61  57  54  50  43  45  47  50  51  40  29  26  36  30  27  33  48  45  35  41  53  66  81  95  97  84
  57  66  77  80  81  81  90  75  44  37  26  29  35  35  29  64  94 132  90  84  82 105 127 127 129 131 137 139 143 148 152 156 159 164 164 168 173 159 153 134 125 127 145 143 138 100  90 102  85  82  99  78  73  91  78  81  44  47  49  51  52  69 118  91  60  61  66  67  53  56  56  49  37  26  34  40  37  28  28  22  23  21  34  40  32  40  47  57  73  90  90  73
  60  73  87  97  98  98 103  77  41  34  26  30  29  28  39  58  79 119  91  87  99 106 120 128 131 132 139 142 145 149 152 155 159 164 169 171 172 156 165 151 136 133 133 137 140 120 103 120 108  86  94 103  80 108  75  85  53  48  55  66  68  69 112 111  61  72  66  72  62  56  63  49  42  35  25  22  31  36  37  26  20  19  21  31  32  34  40  49  65  80  80  65
  62  74  87 101 108 117 112  73  39  33  28  27  23  23  40  52  83  95  87  79  94 111 126 130 131 134 139 145 147 148 149 158 162 166 169 176 177 169 163 174 154 141 148 140 124 122 123 125 130 108 104 115 106 110  91  90  71  56  61  64  72  85  98 126  58  70  83  68  74  56  71  51  41  28  26  21  17  22  32  42  27  15  20  26  30  30  35  50  60  66  65  56
  69  79  88  99 111 118 110  63  39  33  27  34  30  31  40  63  80  69  73  79  89 116 128 131 136 139 138 141 150 154 159 163 167 167 169 175 177 181 172 168 174 155 146 163 134 116 144 134 139 110 104 114 122 123 107 108  86  68  70  71  74  81  93 120  67  60  88  81  69  75  81  63  41  27  22  17  17  18  17  27  41  27  16  21  36  38  36  48  54  55  53  45
  82  92 104 108 115 117 103  62  35  36  31  35  32  32  46  73  76  58  78  81  89 111 127 134 137 139 136 147 156 159 162 162 168 176 180 178 182 183 185 178 178 176 162 156 143 120 138 147 132 132 101 118 126 130 120 122  93  80  86  79  97  84  94 118  81  74  76  96  84  79  83  91  50  27  25  18  16  16  14  15  23  41  27  20  39  43  37  48  53  52  43  33
  95 110 122 124 121 115  94  56  36  34  33  31  30  30  51  70  66  61  80  91  96 111 136 142 141 140 144 152 156 158 162 164 173 184 182 176 183 188 188 188 182 182 188 175 155 138 119 148 126 126 119 112 115 130 126 136 109 106 100  85 112 113  95 129  95  92  87  82 103  84  91  94  83  33  22  20  18  18  16  13  17  27  36  28  35  46  43  50  55  52  42  32
  99 117 131 129 124 116  88  45  33  31  38  29  26  30  50  59  54  63  84  92 100 118 135 140 144 143 148 152 158 162 166 172 185 175 174 183 186 190 188 187 185 181 184 190 182 165 131 134 128  95 107 120  98 111 131 136 122 130 130 117 110 124 103 129 109 100 100  66  92 102 102  94  94  54  30  22  19  19  20  19  19  19  25  36  34  41  44  50  48  45  37  26
  99 113 125 125 120 116  81  38  34  31  40  36  27  30  45  49  50  71  87  95 108 122 133 141 143 148 146 157 162 165 170 176 179 174 182 186 184 192 188 187 187 193 200 195 200 189 172 135 126  91  81  93 113  95 122 124 131 137 131 131 121 121 110 120 124 120 124  78  52 100 115 100 110  59  27  30  24  17  19  21  22  20  23  30  37  39  42  48  38  29  21  16
  92 109 120 120 115 102  65  38  36  28  40  36  31  33  40  44  53  75  86  96 113 124 135 145 149 152 151 160 163 168 169 171 173 182 190 193 194 193 193 197 201 206 203 201 206 203 196 175 129 100  77  75  97 109  98 113 125 136 146 138 130 126 105 117 139 131 132 111  59  84  95  94 129  68  17  22  28  27  18  19  19  21  27  28  36  40  37  40  30  19  12  10
  79  97 112 113 108  91  55  37  42  40  42  44  36  32  38  47  57  76  87 100 115 124 137 146 153 155 155 161 162 159 165 170 178 179 188 191 193 195 194 196 203 204 204 203 204 202 196 197 172 113  84  74  69  85 104  92 105 114 139 130 132 127 106 104 125 141 118 125  85  95  66  72 122  73  17  19  22  29  25  14  16  18  27  34  46  41  36  31  25  15  12  10
  65  79  94 102 100  79  50  37  46  52  67  71  33  27  40  45  60  78  89 102 118 125 136 141 154 159 156 160 162 159 169 173 176 176 184 187 192 197 197 204 202 200 201 207 210 208 202 202 201 169 105  76  72  61  73  72  83  99 111 131 134 134 105 101  99 137 110 107  89  92  67  54 117  76  29  34  31  24  29  30  27  46  41  41  50  41  32  22  18  11  12  12
  51  63  79  85  82  68  43  34  48  49  64  65  33  31  42  47  65  79  93 105 121 128 138 144 153 158 157 156 160 164 172 176 175 178 183 187 193 192 193 198 194 196 199 205 206 207 207 202 198 198 163 101  80  70  57  64  67  78  83 101 100 123 102  87  72 109 101  83  70  84  73  48 101  81  42  41  30  33  29  38  38  90  54  47  46  43  31  16  10   9  10  14
  44  53  63  67  69  66  42  47  53  44  47  44  46  46  37  51  71  86  97 106 127 126 139 151 154 158 156 158 163 167 174 175 167 178 183 183 188 189 189 185 188 194 193 197 201 204 203 203 201 199 196 152 103  84  67  63  57  56  69  88  79  98  91  67  48  66  80  61  56  70  70  45  87  81  58  65  50  41  29  28  36  84  62  51  41  42  36  16  13  11  14  17
  43  49  56  57  64  65  58  51  52  55  72  76  76  53  37  60  78  90  97 106 122 126 137 148 152 156 160 162 164 165 173 173 173 182 183 182 184 183 185 180 186 192 191 192 197 203 202 196 196 199 198 194 156 111  87  67  59  56  59  72  67  60  67  60  47  46  55  46  49  63  63  44  75  73  55  71  81  61  37  26  26  56  64  54  37  38  36  20  10  17  19  21
  42  49  56  62  71  64  45  38  68  76 106  89  89  50  41  64  80  90  98 114 125 127 136 150 155 158 163 163 165 168 173 177 180 182 185 186 183 184 182 180 185 187 188 193 195 195 194 196 191 193 193 193 191 174 143 108  75  58  56  63  63  45  56  51  41  38  38  40  39  51  55  46  65  58  50  76  77  71  55  22  25  33  50  50  39  30  36  27   9  12  23  25
  46  49  53  63  66  62  38  43  78  98 115  92  93  49  45  63  79  88 101 114 123 125 135 149 156 157 162 164 165 169 177 179 180 180 185 185 188 186 183 182 187 192 191 193 193 192 192 193 193 190 192 195 190 196 199 182 167 137 100  68  66  52  49  43  37  37  31  33  32  34  36  39  54  47  44  75  83  60  48  28  22  34  41  48  46  23  30  30  23  15  14  21
  52  53  57  64  68  68  48  52  78  86  96  95  91  52  46  66  80  87 101 114 121 123 132 151 154 154 160 165 168 172 177 176 182 189 189 189 191 194 192 188 190 193 195 195 192 194 195 195 196 199 192 195 196 195 197 201 202 198 186 142  91  63  42  38  30  32  27  27  24  28  31  28  38  39  40  53  64  64  49  37  28  37  40  56  43  22  26  34  21  14  14  18
  60  62  75  75  66  78  68  51  73  65  82 119 103  55  49  69  81  90 100 114 118 119 138 147 147 147 149 157 163 167 173 181 187 190 191 196 199 201 206 204 201 198 197 196 195 206 204 204 203 198 199 202 202 202 199 198 200 196 191 189 153  81  50  42  33  26  26  24  23  21  28  27  30  38  44  41  55  66  51  41  33  34  34  49  31  16  18  35  26   8  14  17
  59  58  72  73  72  81  64  51  63  68  85 151 125  61  55  76  82  88  95 110 115 118 134 131 129 137 133 137 136 138 150 162 175 179 178 195 201 205 217 215 210 201 199 198 203 207 210 210 209 207 209 213 208 204 200 198 199 198 190 184 185 148  78  48  39  30  26  22  25  24  22  25  27  33  40  34  50  63  49  38  38  32  35  39  26  18  23  26  37  11  12  16
  40  48  70  70  71  69  70  64  65  68  93 145 143  78  59  80  86  85  91 109  98  90  97 103 108 108 102 105 107 113 122 128 144 156 150 169 194 204 204 217 220 214 208 206 213 212 214 219 223 223 218 217 212 203 194 187 182 183 180 180 172 157 126  87  67  37  28  24  25  25  20  23  29  25  35  34  45  69  46  33  32  30  36  29  27  28  22  15  37  22   7  13
  45  39  56  66  71  69  74  66  58  59  80 113 120  79  66  81  90  83  87  88  67  75  91  92  97 108 116 108  97 106 115 125 132 133 137 142 171 192 190 198 216 218 223 216 215 216 213 219 225 225 216 211 195 185 174 160 143 136 140 127 115 102 102 110  93  66  50  33  29  26  23  24  29  28  32  50  43  59  43  30  29  31  31  33  33  19  16  13  27  28   7  11
  52  46  36  48  57  56  53  49  52  53  62  76  98  99  61  82  87  83  86  71  76  99 123 137 142 144 153 156 152 141 129 121 122 119 129 131 144 164 185 186 196 202 211 212 209 209 212 207 205 203 202 195 183 169 153 146 129 121 117 101  86  66  83  86  90  71  56  43  36  30  26  28  28  33  31  66  74  62  44  30  23  32  30  28  21  18  15  18  24  24   8  11
  39  50  48  49  52  43  43  45  43  50  50  52  93 106  62  80  86  84  84  75  90 120 133 139 152 154 151 150 156 159 153 149 141 143 143 147 143 150 179 172 181 189 191 194 197 197 198 198 196 196 191 182 177 164 143 143 119 114 111 110 114 106 108 122 136 120  90  84  68  45  36  42  40  48  36  69 125  78  69  30  21  24  23  28  20  17  16  18  23  23   8  12
  25  38  43  42  58  65  58  39  37  44  43  46  76 101  65  78  88  84  83  84  89 121 138 138 141 142 144 145 151 151 151 158 152 148 151 152 154 157 168 169 180 183 184 186 189 190 190 190 188 187 183 179 165 152 153 139 129 135 141 154 162 162 161 164 166 157 146 137 109  72  52  64  68  78  64  52 105  95  82  49  30  22  26  27  20  17  18  18  21  27  11  11
  27  34  38  32  46  56  48  35  40  38  37  38  63  89  70  77  89  86  85  86  93 118 131 130 132 139 145 151 161 165 166 166 166 158 151 145 144 149 154 165 173 177 180 182 189 188 186 184 180 179 177 170 155 156 157 150 153 157 163 170 170 169 162 158 157 150 143 135 127  91  58  75  78  85  83  50  51  89  88  67  50  37  31  28  23  14  17  19  23  26   9  11
  47  43  44  37  39  47  41  35  38  41  32  40  48  84  73  74  94  86  90  86  90 111 120 121 130 132 135 135 143 152 157 157 163 169 168 156 147 140 139 144 159 170 177 180 188 189 187 181 178 175 165 154 148 150 146 149 158 161 157 154 155 155 152 153 155 149 140 130 128  98  67  71  79  89  94  88  56  65  70  67  60  43  41  39  33  19  26  29  28  19   8   6
  51  51  51  43  39  44  33  33  35  34  39  46  49  73  73  76  98  92  93  88  99 117 120 120 111 105 109 112 115 124 137 140 131 125 136 152 155 151 145 140 137 149 168 179 189 197 189 179 173 158 146 139 142 146 148 146 138 136 143 144 139 132 121 116 119 126 134 126 116  94  77  77  80  98 103 101  86  69  49  54  52  60  70  56  49  35  31  24  27  15   8   7
  58  54  58  50  48  49  30  28  37  38  39  41  53  69  70  85 115  94  95  89 102 119 117 114  94  88  93 103  73  79  88  86 109 125 123 119 143 153 149 149 137 133 147 172 187 199 192 179 164 140 135 141 145 144 139 127 128 135 139 139 133 118 117 113 108  96 104 127 117  99  80  79  90 110 101  97 107  81  33  46  54  60  73  53  45  35  25  25  32  20   8   7
  66  64  62  57  52  47  35  29  30  38  53  57  65  99  95  91 123  99  95  92 103 119 120  99  80  88 141 128  84  83  63  73 101 136 132 124 126 136 141 150 151 141 132 158 179 190 184 172 148 124 139 146 143 136 129 124 124 117  85  68  58  58  69  89  92  97  86 120 128 105  80  81  89 112  92  87 111  61  23  27  19  12  15  30  34  33  31  25  35  29  13   9
  69  70  67  62  53  54  41  32  30  34  50  95 103 105 136 111 114 102  97 101 113 115 109  96 103 132 164 125  88  82  54  99 124 191 176 151 132 143 167 174 157 144 130 149 171 182 175 165 136 123 147 158 150 146 132 128 158 165  95  71  42  70  78 113  98  64  74 101 122 105  83  84  95 119  87  77 123  42  17  21  20  15  12   8  20  30  31  32  41  41  24  17
  54  59  65  62  59  56  42  35  36  39  40  75 145 139 136 128 107 101  99 109 123 121 117 111 107 135 155 159  94 100 105 103 155 206 184 161 143 142 184 206 171 138 132 147 166 171 166 162 130 122 156 198 183 145 137 159 196 196 113  91  60  97  70 134 146 103  72  69  91  97  93  89 103 118  76  79 116  32  17  24  27  29  30  19  23  25  28  44  54  50  39  34
  49  55  61  67  62  58  51  36  44  50  61  68  98 158 133 117 101 102 107 117 132 137 133 127 112 124 141 163 153 110 119 144 181 168 152 151 163 172 188 183 151 132 135 142 157 167 160 155 133 118 150 193 192 160 150 146 159 181 148 103 109  82 115 166 142 127 100 101 107 106 108  91  97 113  73  62  81  19  19  26  26  27  29  23  23  18  22  53  62  60  49  44
  45  49  57  62  60  61  51  42  48  49  63 112 127 107 112  99  89 104 115 123 138 146 139 132 127 132 134 132 144 146 163 175 174 172 171 172 168 169 171 158 135 139 134 137 155 162 156 153 135 122 128 166 188 177 175 174 152 171 169 161 126 122 149 135 126 119 121 125 136 132 118 103  98 108  78  46  61  19  16  20  28  24  26  24  21  30  43  60  70  67  53  51
  42  47  52  56  61  60  65  52  51  48  71  81 120 111  73  73  76  95 116 129 144 150 145 142 140 139 139 144 152 145 156 159 164 177 179 172 170 175 172 144 143 141 131 135 153 164 153 153 141 125 121 144 181 185 174 174 176 177 163 162 155 155 138 130 139 137 130 131 146 145 133 113 102 108  92  49  56  22  20  19  29  33  34  34  25  42  62  77  72  59  62  58
  40  43  48  56  57  75  94  57  56  49  52  78  85  76  65  63  63  90 116 130 147 152 142 145 152 151 150 152 160 164 167 171 171 170 169 180 185 177 160 149 147 144 137 132 150 164 159 157 144 130 124 129 157 190 191 178 177 173 164 161 158 157 159 151 146 139 140 144 153 149 144 119 101 108 100  60  70  20  28  25  28  36  40  46  41  46  67  70  54  58  59  60
  39  43  48  55  65 119  93  58  53  55  62  77  88  90  62  46  50  82 118 132 151 154 145 151 150 155 164 163 164 167 169 170 169 168 177 185 187 171 155 149 149 148 136 134 151 165 166 162 143 128 125 132 141 171 193 192 185 180 173 169 164 160 159 158 155 156 154 153 158 158 149 127 111 108  91  67  59  16  32  39  38  35  26  25  29  28  61  75  69  62  57  61
  40  38  44  52  83 104  66  57  60  75  86  87  91  77  85  48  42  77 116 130 147 154 159 160 160 161 164 170 168 167 169 171 171 179 191 187 175 162 148 148 151 142 133 134 152 164 166 163 144 124 125 133 138 150 177 192 190 180 174 168 168 167 168 165 164 163 160 157 161 163 153 130 116 117  85  64  45  18  28  53  58  56  47  32  35  45  64  79  82  68  62  66
  37  42  45  52  67  63  75  70  64  74  73  96  94  76  69  58  56  85 115 129 148 157 161 163 164 164 166 171 170 169 169 168 174 179 181 180 165 156 150 151 146 135 126 135 147 161 164 161 145 127 124 134 136 149 167 180 190 186 177 170 162 164 167 164 166 168 170 165 166 165 157 128 111 116  94  53  36  28  29  30  56  74  88  82  76  75  85  79  72  67  73  90
  37  47  44  47  53  61  76  74  60  53  61  97 123  77  58  59  65  91 107 124 146 153 163 168 169 169 171 170 171 173 172 173 176 179 175 171 164 156 151 147 139 129 122 133 146 156 158 157 141 124 122 133 138 147 166 171 181 185 182 175 172 170 172 171 171 175 172 170 172 169 154 129 110 116  88  45  38  44  53  24  28  46  53  66  93  94  82  72  76  81  94 109
  39  41  42  48  53  54  60  64  45  42  56  80 131 100  57  61  59  92 109 118 142 153 161 170 172 174 174 173 174 176 176 179 173 173 173 169 163 155 151 148 137 117 118 135 149 154 158 156 148 122 115 130 138 146 162 167 170 182 180 178 179 174 174 175 176 179 175 173 169 166 152 125 104 112  82  49  41  39  53  42  34  40  37  22  18  52  59  36  51  71  89 108
  36  39  38  44  51  49  55  50  43  52  48  56 122 109  76  54  59  85 110 119 138 151 161 170 173 175 178 180 177 179 179 178 174 171 173 164 162 163 158 147 128 112 126 140 152 160 166 163 156 136 113 125 129 149 161 168 173 180 178 179 183 181 173 175 177 179 178 172 171 161 145 120 101 119  92  57  38  60  60  60  54  42  50  42  20  84 125 104 106  94  83  91
  31  37  36  31  37  40  44  48  54  51  43  45  83  90  78  56  58  88 106 118 133 146 158 167 171 172 179 182 178 180 177 175 175 173 174 175 170 163 159 141 115 115 131 139 160 171 175 170 164 150 121 119 120 150 169 172 176 177 178 179 178 182 174 175 176 178 175 172 171 160 140 119  97 129 104  55  31  59 102  80  57  51  41  47  46  55  71  89 122 146 131 138
  32  33  36  37  40  44  46  45  42  39  50  65  61  97  85  54  41  92 106 116 132 143 155 161 168 171 176 179 177 174 172 174 173 172 177 177 171 166 154 121 115 127 137 147 170 191 195 185 170 158 135 118 115 135 170 173 172 175 176 178 177 179 179 179 178 174 171 172 166 154 137 109 101 118  82  32  62  76  91  92  49  53  68  67  54  57  80 115 139 161 132 120
  35  34  34  35  43  39  34  33  28  30  47  44  55  93  62  52  34 104 109 111 126 140 154 160 169 172 172 178 177 173 174 174 174 175 175 176 175 171 141 124 134 137 147 162 181 197 207 203 173 159 137 126 131 126 163 178 175 176 179 178 178 178 179 179 178 175 171 169 160 149 136 107 102  83  47  27  60 118  92  90  40  46  71  91  79  73  93 140 154 153 115  90
  35  31  32  37  38  33  30  25  25  31  40  33  52  73  56  62  35  96 104 108 123 137 147 156 168 172 171 174 172 174 179 176 177 173 172 176 172 168 131 135 148 146 145 150 165 171 176 184 162 146 135 135 136 127 143 178 182 179 183 180 180 182 182 177 178 173 172 170 157 142 128 105  96  64  40  39  51  91 118  75  34  35  58  68  86  99  81  76  83  96  80  68
  33  33  34  36  37  42  46  40  33  34  41  44  49  53  62  56  39  66  91 104 118 131 140 151 163 167 168 170 172 173 177 176 176 174 176 178 175 157 131 146 141 122 121 137 147 150 162 159 146 128 108 111 138 139 130 169 184 186 185 181 184 184 181 178 178 172 171 169 154 137 120 105  84  48  60  57  64  71  82  88  64  41  49  61  60  71  99 102 101  94  64  68
  29  29  31  30  32  41  48  48  44  45  46  49  45  56  66  53  59  58  84 108 113 127 136 145 156 164 167 170 174 173 174 174 177 180 182 179 175 159 135 151 131 113  70  71 117 138 142 138 110  55  75 115 135 151 128 162 181 188 187 183 181 181 181 178 177 176 167 161 151 133 114 102  76  47 106 116  66  77  79  93  89  65  61  54  63  54  56  73  83  72  52  69
  28  28  28  30  30  38  47  47  44  45  44  41  50  55  58  69  75  58  86 108 110 124 133 142 152 163 164 169 172 174 171 175 180 181 182 179 176 167 136 154 162 187 149 111 112 118 124 119  97 103 166 183 159 147 126 169 177 185 189 188 184 180 180 177 174 172 164 155 147 127 110 100  74  59 134 165 123  79  84  94 103 103  92  73  71  72  64  60  66  57  56  76
  28  27  26  27  29  35  44  47  46  41  44  42  43  54 100  97  75  72  95 104 115 122 132 139 147 150 158 168 169 174 172 172 181 183 180 175 173 174 146 138 162 177 176 175 154 135 126 121 141 165 165 158 148 126 150 179 174 177 190 193 181 180 179 178 173 170 161 153 143 119 103  98  66  77 134 176 170 122  67  75  94 113 111  93  86  78  75  73  65  58  55  75
  28  27  26  26  27  33  42  47  45  44  44  34  35  38 103 100  57  97 104  91 112 120 129 137 141 150 161 167 168 169 170 177 182 183 178 171 170 173 171 147 148 158 167 181 181 173 158 160 173 172 155 141 143 161 177 177 176 176 187 191 186 182 176 177 173 168 159 147 138 117 108  94  71 123 133 162 170 128  40  49  74 115 128 119 101  79  68  65  54  53  51  90
  28  26  26  26  28  31  40  46  45  43  38  36  32  39  43  57  53  94 101  82 110 121 129 136 140 150 158 164 164 168 174 180 181 177 173 172 174 174 174 171 168 164 171 181 191 196 182 182 184 178 167 162 167 176 176 178 176 174 175 185 191 189 178 158 163 163 156 141 129 110 110  95  63 111 121 115 106  43  22  43  45  36  44  60  60  52  47  46  51  65  86 104
  28  26  26  26  27  29  38  45  47  40  35  33  37  43  47  33  23  27  37  76 109 121 130 131 136 143 155 160 165 173 175 179 176 174 173 173 175 175 175 171 175 171 177 182 190 196 192 190 190 183 172 170 166 171 174 174 170 171 170 175 182 191 185 135 151 161 150 139 120 107 111 102  60  20  25  25  12  21  37  34  38  48  42  37  33  34  39  38  44  88 103 100
  26  26  26  26  27  31  36  45  46  42  38  31  41  49  41  28  27  26  33  73 107 120 130 129 130 139 149 154 167 173 175 178 175 176 175 174 174 173 172 170 175 174 180 186 190 191 195 194 190 183 175 171 167 169 171 170 171 174 174 173 172 175 174 161 152 148 147 134 110 107 113  99  59  21  47  71  42  45  53  35  31  35  58  55  44  45  47  63  87 108  91  93
  26  26  26  26  26  28  34  44  47  43  44  38  47  55  47  49  47  39  42  68 105 118 127 128 124 131 144 154 165 171 171 175 173 175 175 175 173 174 173 174 176 177 183 191 197 197 197 197 190 187 178 175 170 166 169 172 169 170 169 171 169 168 168 168 155 143 144 125 106 113 113 102  63  54  80 107  66  47  50  49  37  37  60  77  79  79  83 101 111 100  69  89
  26  26  26  26  26  26  34  41  46  43  45  39  57  84  82  70  54  41  47  63 102 118 123 124 118 125 138 152 162 167 168 170 171 170 173 175 176 176 177 179 178 178 180 191 196 193 195 194 189 186 179 175 172 172 170 173 171 168 168 170 174 170 147 139 159 151 135 118 109 119 117 109  63  62  89 121  79  63  49  47  39  35  38  55  71  83  86  89  80  60  53  94
  26  26  26  26  26  26  32  39  44  44  45  47  79 111 100  79  63  51  58  61  97 121 126 123 119 118 136 149 157 158 166 172 174 174 173 176 175 175 175 176 177 177 180 187 190 184 185 187 187 185 174 169 171 171 168 169 173 169 169 170 175 167 149 137 153 145 130 113 105 121 123 112  63  70 101 131 108  64  70  59  53  33  36  38  44  50  51  49  50  44  56  90
  25  25  25  25  25  25  30  38  45  47  46  48  83 105 117 108  81  54  64  63  94 120 125 123 120 116 130 142 152 158 167 173 173 175 171 170 170 169 168 167 169 169 168 169 175 177 180 177 163 155 151 152 152 151 147 150 165 159 153 163 169 162 159 141 147 141 124 101 108 126 122 113  63  74 113 110 133  70  79  93  82  60  37  41  42  39  47  46  43  39  68  74
  25  25  24  25  25  25  28  35  44  47  44  50  70  88 132 132  82  60  79  63  89 118 127 123 121 116 122 134 145 155 167 175 176 169 161 157 157 155 146 145 148 153 150 149 153 146 146 139 135 142 150 148 140 137 130 116 126 135 136 146 157 164 160 140 139 139 116 101 119 127 124 111  58  66 126  92 141  95  65  96  92  85  73  47  42  43  43  42  46  57  60  53
  24  24  25  25  25  25  27  36  44  45  45  50  52  73 105 111  65  64  79  65  83 116 128 126 127 116 116 125 136 153 165 170 173 158 140 128 121 124 125 132 129 131 127 131 131 120 117 114 114 119 122 108 108 112 113 108  98  91 101 130 154 168 166 141 136 132 112 108 125 128 126 106  45  53 140  83 114 110  75  84  93  81  84  81  66  60  63  64  66  60  51  43
  24  24  24  25  25  24  25  31  39  43  50  51  47  55  65  64  55  73  79  63  77 112 126 128 131 124 117 119 133 146 161 170 164 146 128 108  97 105 107 108 109 108 113 119 123 130 122 124 120 123 122 114 118 115 105 101 103 115 152 174 174 172 167 141 136 130 115 121 127 129 118  98  37  43 146 100  76  93  80  95  66  71  73  76  82  87  85  79  67  57  53  51
  24  24  24  25  26  25  26  31  37  45  51  45  40  41  46  55  49  73  97  72  68 106 126 129 137 133 122 115 129 144 159 170 171 171 173 162 136 117 120 128 132 139 145 149 152 157 156 156 155 155 153 143 137 132 125 125 133 151 165 180 180 175 164 142 136 125 121 126 130 129 110  89  26  44 122 106  76  58  73  90  73  55  56  63  69  78  82  82  63  57  73  76
  24  24  24  26  26  23  24  29  37  45  48  42  37  36  42  50  41  84 112  79  66  98 125 133 136 136 127 115 126 142 158 168 174 180 178 171 158 148 139 132 134 139 151 153 157 159 159 162 167 160 156 153 148 148 149 148 149 152 163 172 173 173 161 144 134 125 125 130 130 120 103  72  17  42  85 101  74  45  55  65  66  83  76  57  52  59  60  59  68  94 101  99
  24  24  23  24  24  22  23  27  35  42  43  40  34  32  44  43  43  88 114  93  68  83 123 134 135 138 131 117 123 140 155 169 170 176 175 170 164 161 161 157 159 157 162 168 168 169 172 171 171 168 172 171 170 164 163 159 154 155 163 169 167 164 157 147 135 123 130 129 121 114  99  50  12  44  56  73  59  45  42  45  52  78  93  91  76  81  85  95 114 122 120 117
  22  22  22  23  24  22  23  26  33  43  44  40  34  35  44  51  65  96 120 104  69  66 111 131 135 141 135 122 121 139 151 166 173 172 173 169 163 163 168 169 170 170 171 170 170 171 174 174 173 171 173 173 174 169 162 157 152 156 160 161 162 157 154 145 132 128 127 124 122 110  81  36  18  47  50  51  46  39  35  35  37  67 102  92  90 116 124 128 129 130 133 130
  22  22  23  23  24  23  25  29  38  42  44  38  34  32  38  55  69 100 119 105  84  67  91 123 132 138 134 127 121 136 149 157 168 171 170 166 164 163 170 168 171 174 174 171 171 173 169 173 176 178 177 176 173 168 155 150 151 157 160 160 161 155 145 143 136 126 124 122 116 100  58  28  24  45  38  38  37  33  31  32  32  53 113  99  85 122 124 132 134 135 137 134
  22  22  22  23  24  25  25  29  41  44  46  40  31  33  42  44  51  96 111 116  98  69  71 114 129 133 135 129 122 129 145 152 160 168 163 161 164 165 167 169 172 172 173 174 173 175 167 165 173 174 175 172 170 163 155 156 155 154 155 159 158 150 142 141 135 124 121 121 107  78  36  32  46  36  34  32  29  31  34  33  33  38  91  87  79 123 130 134 136 137 139 135
  22  22  22  23  24  25  26  27  34  43  49  48  39  40  34  38  62  82  91 130  89  88  56  90 121 128 134 132 125 129 140 150 155 160 162 161 160 162 164 168 171 171 172 176 174 174 172 170 171 173 172 170 165 162 165 160 154 157 156 159 155 148 144 139 127 117 122 116  92  51  22  51  78  34  30  25  23  26  40  33  34  32  58  62  79 126 131 132 135 136 138 135
  22  21  22  23  25  23  25  27  33  41  47  47  43  39  35  45  72  67  86 130  93 108  68  63 105 123 131 133 127 126 136 147 154 155 158 160 159 160 165 166 168 172 173 174 175 174 174 173 172 172 172 174 169 165 164 161 161 163 159 154 153 149 142 129 117 117 119 104  65  23  38  80  78  42  27  20  25  23  34  35  37  42  36  50  94 114 116 120 124 125 128 125
  22  22  22  23  25  24  24  27  33  40  46  46  43  40  49  73  73  52  71 104  99  98  72  76  65 114 129 133 129 124 134 145 154 155 154 158 159 163 168 168 168 174 174 178 176 178 171 167 175 174 175 179 162 167 164 164 167 163 158 154 156 147 138 118 113 114 108  81  32  26  90  89  60  37  29  20  25  24  27  37  36  48  53  77  91  92  97 102 106 109 112 111
  22  22  22  23  25  25  24  26  30  37  45  49  50  48  55  64  45  44  56  93  87  55  61 107  64  72 120 128 129 127 129 141 151 155 155 157 162 163 170 171 171 175 179 183 187 190 185 182 189 187 181 175 173 175 169 166 170 167 162 156 155 143 127 113 108 109  95  43  19  78 121  82  50  31  30  25  20  25  26  37  38  47  54  63  64  68  72  76  79  83  87  85
  22  22  22  24  25  25  24  24  28  33  43  49  46  41  46  50  43  40  51  86  93  47  52 104 119  56  76 121 127 129 128 137 148 153 154 158 160 163 171 172 174 182 183 182 185 191 195 197 193 188 181 174 175 177 174 170 172 166 161 152 147 137 120 109 102  92  51  18  58 126 115  81  45  29  29  32  24  25  25  36  40  41  45  46  45  48  51  54  58  61  63  64
  21  21  21  24  25  25  24  23  26  30  38  45  41  34  45  38  41  37  53  81  94  53  41  96 132 115  46  84 119 119 123 131 142 147 155 159 162 167 169 174 179 183 181 178 185 194 196 198 197 193 187 178 175 174 171 168 166 159 154 148 140 125 111 100  93  52  17  44 125 129 109  82  36  30  26  34  32  30  33  42  47  48  47  45  46  47  49  51  54  57  59  60
  20  20  21  24  25  25  24  22  25  28  35  44  44  34  38  38  41  41  56  86  71  45  33  87 126 144 115  43  79 107 117 123 134 141 151 153 159 168 169 169 177 175 179 181 190 198 200 201 197 194 192 187 178 174 171 164 159 153 147 143 133 111  99  85  48  18  41 117 139 124 111  83  32  29  31  33  39  43  50  61  69  67  61  58  57  58  58  58  59  60  60  61
  20  20  21  24  24  25  24  22  23  27  34  42  44  36  30  32  38  42  41  76  68  46  25  81 124 136 150 111  38  64 102 114 126 132 143 150 150 161 169 164 171 178 184 188 196 197 195 192 190 191 190 188 182 173 171 161 149 142 138 132 118  95  79  42  17  51 125 143 134 125 113  85  32  29  34  39  41  47  64  83  96  94  89  84  79  78  78  75  73  72  71  72
  21  21  21  24  25  25  24  22  23  27  33  41  44  38  31  26  24  34  34  39  68  60  35  73 119 134 141 152 120  46  46  93 110 119 133 139 143 154 161 159 167 178 184 192 195 191 186 183 180 182 185 183 177 169 162 150 143 135 130 115  97  68  37  19  58 136 148 142 136 124 114  86  34  29  38  43  46  59  79  97 110 110 109 104  98  95  96  94  90  88  88  87
  22  21  21  24  25  25  24  22  22  26  30  39  45  40  31  26  19  23  26  20  33  56  38  65 118 131 139 148 164 144  66  38  75 102 118 131 138 144 156 155 162 169 173 182 184 182 183 181 178 176 179 176 169 160 152 141 131 127 119  92  60  33  22  64 141 151 147 145 136 125 113  84  28  30  38  43  51  66  85 102 113 112 110 107 101  98 100 100  96  94  95  95
  21  21  21  24  25  25  25  23  22  26  31  37  44  41  33  27  20  18  19  22  21  26  26  55 114 128 139 148 160 164 160  95  32  53  91 117 132 132 145 149 153 161 168 174 173 176 178 177 173 169 167 165 159 149 140 131 125 115  80  46  32  29  73 144 153 148 149 144 133 127 115  88  25  29  38  38  44  59  75  90  97  96  90  87  83  84  84  83  80  80  79  82
  21  21  21  24  26  25  25  23  23  26  29  36  44  41  33  27  22  19  20  22  24  22  19  45 109 127 137 147 157 161 166 168 123  44  30  70 110 128 131 138 142 155 159 163 162 162 167 164 161 161 160 154 142 132 127 116 105  61  33  26  36  84 140 150 151 151 147 138 134 125 114  90  26  20  32  30  36  45  56  66  70  68  63  60  61  62  62  60  59  59  60  61
  21  21  21  24  25  26  27  25  24  25  29  34  42  42  35  30  24  19  21  22  23  22  22  40 103 126 139 145 155 163 167 165 173 150  76  25  42  85 108 125 129 138 147 151 148 146 146 144 140 138 136 128 118 109  94  70  38  19  26  52  95 132 140 141 150 151 143 138 133 123 113  92  31  15  37  40  35  30  30  36  41  40  40  40  41  42  42  43  43  43  44  46
  21  21  21  24  25  26  27  26  24  25  29  33  41  43  36  30  25  19  20  23  25  23  23  36 101 124 136 146 152 160 168 167 168 173 173 115  38  21  43  68  77  88 105 109 110 107 102 100  86  75  66  59  48  39  24  13  15  35  83 123 124 126 141 147 151 145 144 141 131 125 112  93  34   9  75 105  98  86  63  38  22  14  12  15  19  20  21  22  23  25  26  28
  19  19  21  25  27  26  27  26  25  26  30  33  40  44  38  32  26  21  21  22  22  27  35  28  92 124 131 143 151 157 164 168 171 172 174 179 149  76  29  21  24  27  32  32  31  28  25  23  19  15  12  12  13  17  26  49  91 134 148 134 120 120 136 148 149 145 148 140 133 124 113  95  43   5  84 146 113 123 123 117  99  82  48  19   7   3   6  12  18  19  20  18
  19  19  22  24  25  26  28  28  25  28  31  33  40  44  38  34  29  23  22  22  12  93  70  19  77 124 133 141 150 159 164 166 170 176 178 175 177 171 129  77  48  40  30  24  23  25  31  40  50  67  79  96 114 131 143 161 172 161 144 128 119 120 132 141 142 144 144 138 136 121 114  96  54   8  59 184 146 120 131 131 130 129 122 111  80  50  23  13   9  12  15  16
  19  21  24  25  26  27  29  29  27  30  31  33  39  43  40  34  29  23  21  12  51 174  71  15  59 122 134 140 146 154 164 172 170 172 176 180 179 174 170 164 147 137 127 121 123 132 145 158 167 180 184 184 187 190 184 175 169 153 139 126 118 120 130 137 145 146 144 138 134 124 116  96  58  12  38 171 193 150 133 136 132 130 127 128 130 125 111  93  63  40  22  12
  19  21  24  25  26  27  30  30  29  29  31  33  38  43  40  35  30  24  17  37 148 194  82  18  38 105 134 141 148 152 160 167 170 173 175 179 180 175 169 163 162 164 168 172 173 178 178 178 182 184 183 180 180 179 177 172 164 147 133 124 118 119 129 140 145 146 143 140 132 124 115  97  50  12  29 157 194 192 142 126 134 130 128 123 125 130 132 129 127 121 100  76
