P2
# Generated by OpenCV 4.2.0
92 112
255
 254 254 254 252 248 243 234 210 163 121 107 102  98  95  92  87  82  82  82  87  94  89  90  94 100 108 115 115 119 118 110 100  85 102 129 167 198 236 242 243 255 254 255 255 254 254 254 254 255 253 246 228 188 167 166 146 127 107  80  91 184 235 251 254 254 254 254 254 249 237 208 154 102  94  98  98  98  97  99 101 103 107 157 217 242 252 254 254 254 254 254 254
 254 253 249 244 233 213 176 140 116 107 103  99  96  93  90  86  81  81  82  83  90  94  94  92  95 101 103 103 103 104 106 101 100  94 103 134 180 219 222 251 254 254 253 255 254 253 254 255 254 252 248 236 202 172 165 146 127 112  93 106 187 238 251 255 254 254 254 254 253 246 226 189 129  89  91  93  94  96  98 100 104 115 167 221 245 253 254 254 254 254 254 254
 251 247 237 219 182 139 111 102 102 102  99  96  93  91  91  89  86  80  78  80  87  94  93  90  89  91  89  86  85  93  95  93  88  96  94 120 142 159 218 231 224 191 169 169 171 140 165 206 211 226 224 209 162 149 162 143 129 121 105 109 187 236 251 254 255 255 254 255 254 249 233 203 147  88  87  91  94  98 103 106 108 117 169 221 245 255 254 254 254 254 254 254
 243 233 207 161 119 106 103  98  96  98  97  96  96  92  93  89  88  83  79  80  90  87  93  97  90  85  79  69  82  77  86  99  86 103 113 119 102 125 136 126 121  93  80  75  77  76  71  97 111 119 117  96  96 110 121 123 126 129 117 115 198 238 252 254 252 250 254 254 253 247 230 199 135  88  89  93  98 103 107 110 111 116 150 208 241 252 254 254 254 254 254 254
 227 198 148 114 107 103  98  96  96  97  98  98  98  95  96  94  97  92  86  81  88  84  92 103 107 108 106 100 112 111 110  91  78  83  82  78  79  76  70  79  84  88  91  80  78  67  75  87 106  90  88 101 108 106 110 111 118 125 121 125 150 183 210 236 246 251 253 252 247 236 211 160 105  92  94  97 102 107 111 110 110 116 131 180 228 246 253 254 254 254 254 254
 176 135 108 104 101  99  96  97  98 100 101 100  97 101  99  97  91  85  79  72  79  82  92  99 102 105 107 104 114 124 115  94  77  77  68  65  80  65  58  75  75  76  91 101  93  81  80  82  88  93  94  93  97 102 102 105 113 120 125 122 113 114 122 152 199 239 252 250 241 215 160 116  96  97  96  99 104 107 110 111 110 113 127 158 209 239 250 254 253 254 254 254
 119 106 100  96  93  94  95  96  98 100 100  99  97  97  94  96  97  95  92  86  77  82  89 100 105 105 103  90 109 120 108  93  82  83  73  65  69  64  82  73  70  68  77  88  81  86  80  77  72  76  84  79  69  79  82  91  96  96 104 115 123 127 121 117 118 142 181 219 225 187 140 125 111 102 100 100  99 103 107 109 111 111 124 148 188 228 244 250 252 253 253 252
 105 101  95  89  85  84  86  90  91  95  96  95  97 100  99 100 103  98  90  81  69  68  88  95  96 106 111 111 126 104  93  92  85  89  85  70  77  85  92  94  74  63  53  64  58  56  63  70  77  68  72  76  68  64  71  78  88  89  78  84  99 117 123 126 113 110 111 122 156 161 146 134 124 112 105 100  99 101 104 108 108 107 121 144 168 206 232 241 245 246 246 245
 101  96  91  84  80  77  77  77  80  82  85  91  99  97  93  92  91  94  98  92  86  86  85  87 106 126 122 129 121  86  80  97  85  96  90  80  89  98  97  68  59  50  32  45  59  48  54  65  79  70  66  68  68  67  69  72  83  99  95  94  96 101 104 114 120 115 113 105 107 132 150 148 139 130 115 101  98  99 101 104 105 105 120 144 164 184 210 224 230 229 226 224
  99  96  89  85  82  78  75  74  76  74  79  87  88  90  94  98  96  93  93  89  87  91  92  95 116 114 121 125 106  82  81  94  96 100  98  91 106 111  64  52  69  53  36  34  63  54  56  68  77  80  69  70  71  79  80  78  83  97 103 110 114 118 120 119 123 119 109 112  99  99 129 156 152 143 127 107  98  97 102 107 103 107 123 147 167 180 189 195 197 193 188 187
  96  94  91  90  87  83  78  75  72  70  89  82  76  86  92  91  89  88  89  89  84  79 100 115 113 112 127 110 102  76  76  87 100 105 105 101 112  91  57  82  71  59  41  49  72  64  59  65  73  82  69  64  60  66  68  70  72  84  89  95  94 101 103 101 100  94 100 108 115 108  94 116 148 153 140 120 102  97 101 110 101 108 128 151 170 181 183 180 178 175 176 177
  89  90  92  94  92  88  86  82  77  82 101  77  74  76  84  87  89  89  89  94  92 107 122 109 106 112 120  99  98  84  80  79  98 102 102 108  97  81  83  89  75  59  52  64  71  55  60  69  77  79  72  61  74  61  58  60  64  76  71  72  81  90  89  91  88  77  76  98  98 114 114  98 111 145 150 133 110  97 102 106 101 113 135 155 174 183 184 183 180 178 178 178
  84  86  89  92  93  91  89  88  87  97 112  92  81  75  80  86  88  87  92  99 111 121 114  99  96 108 102  84  89  91  85  83  90  98 101 107  87  81  95  87  76  73  75  69  68  59  65  74  79  79  79  58  75  68  71  69  70  80  81  86  96  97  97 102 103  99  85  83  90  91 102 116 110 115 146 146 121  99 103 107 105 122 141 161 177 184 184 184 181 178 178 178
  86  85  88  90  90  90  89  87 105 107 112 100  73  67  70  78  83  88 102 115 119 114 103  96  98  98  77  68  88  95  89  93  87  90 101  99  82  82  90  87  74  77  71  72  82  71  63  87  76  81  88  66  75  64  66  69  73  73  85  85  88  97  98 104  99  95  98 101  85  95  91  96 105  98 111 141 139 118 118 122 127 138 151 168 179 185 187 184 183 179 178 179
  89  88  90  89  89  91  91  95 118 106 105 107  72  63  64  70  84 105 123 118 104 113  94  76  93  73  54  72 112 107  94 100  94  84  96  89  78  86  92  87  81  77  68  75  89  67  70  85  70  83  94  71  80  68  69  78  69  68  74  73  74  83  78  88  97 101 102 111 108  97  98  85  89 101 100 112 129 142 146 150 153 156 164 174 181 186 186 184 184 180 179 179
  92  89  87  88  89  88  93 101 119 105 102 112  79  61  69  82 108 127 118 101 104  96  69  68  71  46  63 121 136 124 102  99  93  86  85  78  80  84  91  86  86  78  68  67  97  73  66  76  82  78  93  93  88  84  82  81  83  78  79  83  84  93  89  83  87  86  90  99 108 103  93  89  74  94 107 112 110 126 155 170 170 171 174 179 183 186 188 186 185 183 180 180
  89  86  82  82  82  90 102 110 124 105  96 109  92  72  91 107 118 106  96  96  70  68  59  49  50  73  94 122 148 142 125 112 103  87  81  63  58  71  85  85  82  77  76  65  98  83  63  71  75  85  86  83  89  92  92  90  88  91  89  86  88  90  85  85  81  87  85  83  86  98  94  95  84  67  87 104 117 108 123 165 178 176 177 179 183 186 187 186 186 185 183 182
  84  82  78  76  75  81 100 112 119 114  97  97 100 101  97 105  97  83  75  57  49  57  63  58  71 112 132 108 133 150 145 134 117  97  89  62  41  48  77  87  85  73  81  76  90  79  67  70  74  79  84  78  76  81  95  97  94  94  92  93  89  90  89  90  83  82  83  90  84  82  88  89  91  74  64  94 104 120 106 121 164 179 176 177 183 185 188 188 187 185 183 183
  80  79  77  75  78  80  97 111 122 109 102  92  89  88  94 107  91  62  48  55  62  53  72  86 112 135 152 148 122 133 142 141 136 115 104  84  47  42  64  84  89  74  75  78  91  88  76  67  73  74  72  76  80  71  73  83  96  99  96  95 100  98  99  98  95  80  77  82  85  79  77  81  76  82  69  74  98 104 109 110 119 146 170 178 185 187 187 187 186 185 183 183
  82  80  80  84  86  90 104 113 120 113 102 106 102  94  81  70  52  45  54  57  51  67  92 124 144 149 155 165 165 147 137 139 145 134 119 112  60  48  56  73  87  77  72  76  82  86  78  75  73  71  67  67  77  78  68  69  74  78  77  80  90  98 102 104 105  96  83  78  80  80  75  74  63  64  74  59  82  99  94 103 106 105 145 173 183 187 187 187 186 186 183 183
  92  88  91  89  82  92 104 109 110 113  99 101 108 100  75  48  47  49  58  53  61  87 128 155 153 156 163 167 169 166 161 157 150 142 136 123  87  47  66  62  76  82  75  74  72  76  87  83  77  70  69  72  69  69  68  65  56  44  43  52  61  62  66  81  89  87  82  76  71  81  84  75  57  55  66  60  57  84  85  83 109 118 145 169 181 185 188 187 186 186 183 183
 101  97  95  88  90  89  99 115 111 109 104  86  79  71  57  52  46  55  54  43  72 131 156 161 161 162 167 168 165 164 161 156 153 148 144 136 115  77  55  63  60  71  77  79  76  66  69  81  82  75  68  65  66  63  61  53  49  48  44  44  49  56  59  64  73  72  75  68  59  68  80  76  66  57  61  56  53  64  72  59  85 106 150 177 181 188 188 189 187 187 185 184
 106 100  99  97  92  94 103 110 114 109 103 100  89  74  61  56  55  39  25  56 126 161 161 164 168 169 168 168 167 168 167 163 159 154 147 142 132 115  77  62  61  53  69  73  79  76  66  63  66  74  74  69  66  60  59  64  62  55  55  61  59  66  74  75  74  71  64  67  58  49  57  71  72  64  71  53  54  54  74  65  70  82 118 171 183 188 188 188 188 189 187 186
 121 109 102 101  96  97 114 116 111 105  99  90  83  72  55  41  24  23  58 113 154 165 167 168 169 172 172 173 172 173 170 168 164 158 156 149 140 132 115  87  83  72  55  58  66  69  71  70  63  73  74  75  73  68  62  63  61  66  68  65  67  66  69  83  87  81  76  71  65  42  44  80  78  77  73  48  50  57  70  79  76  73  88 146 184 185 188 189 188 189 187 186
 132 116 110 106 102 104 113 113 107 107 100  80  67  53  45  38  29  60 101 145 163 165 170 173 171 174 176 175 175 176 172 170 170 163 160 157 151 141 128 111 100  93  78  55  55  66  79  86  83  74  70  68  66  61  61  59  62  66  72  75  84  87  75  75  88  86  78  68  74  62  41  65  75  70  80  59  36  49  67  74  85  76  82 112 173 185 188 188 188 188 189 187
 124 125 119 116 106 111 113 112 101  92  85  72  55  55  52  46  57  91 130 160 165 168 171 174 175 176 175 177 176 176 175 174 172 170 165 162 161 153 141 132 121 109  99  85  61  48  60  70  76  79  75  74  62  56  59  64  68  69  74  77  76  87  95  92  87 101  92  68  65  68  57  60  79  68  75  69  40  32  67  71  77  82  84  82 151 187 187 188 187 187 188 187
 100 115 112 118 115 114 104 105 104  91  69  67  69  64  61  59  87 114 155 164 167 171 173 174 177 175 175 178 178 177 175 176 175 173 172 169 168 163 153 149 141 130 119 106  95  73  52  45  47  50  51  54  49  54  66  73  75  75  79  89  80  83  85  90  99  95 103  83  62  54  61  65  87  75  78  75  52  29  63  69  74  91  93  77 119 181 186 188 188 188 188 187
 108  81  91 105 121 123 108 109  97  87  79  77  75  70  61  82 104 133 165 167 170 172 172 175 177 177 177 178 177 177 177 177 177 174 171 174 173 169 163 161 157 154 149 142 133 124 110  89  72  66  72  77  84  90  92  92  88  86  84  86  89  88  89  85  91  87  86 100  81  54  61  72  90  78  77  71  76  36  46  50  67  82  92  87  91 163 187 188 187 187 187 187
 124 100  96 114 122 125 112  93  89  95  85  82  71  56  68  99 118 148 165 171 172 173 172 176 176 175 177 178 179 175 178 179 180 178 177 176 173 172 170 169 168 166 164 162 157 153 153 148 144 140 138 139 135 132 131 126 115 105  99  94  91  84  92  97  94  90  80  90  93  70  57  74  87  75  59  60  75  59  40  38  53  75  84  86  90 140 181 188 186 186 186 187
 117 121 114 111 114 109  86  90 105  96  85  77  64  61  85 103 130 159 170 173 171 172 172 174 174 174 174 175 177 177 178 179 180 177 177 176 178 175 174 174 171 171 173 169 169 167 165 165 165 165 163 159 158 153 148 143 133 123 115 107 103  95  85  94 103  96  88  88  88  76  60  74  89  70  47  45  54  69  50  46  42  54  81  91  95 123 170 186 185 185 185 186
 113 119 125 121 106 101  99 113 111 106 104  82  73  76  97 111 142 167 171 171 170 171 172 173 174 174 174 174 177 181 180 179 179 180 182 179 176 176 177 178 176 175 176 176 173 173 173 172 172 172 172 170 168 163 160 155 145 136 129 120 115 112  94  88 104 107  96  93  78  65  65  68  82  67  51  52  56  65  65  57  47  39  64  90  98 117 157 180 182 183 184 185
 108 105 118 122  98 108 123 124 122 115 107  90  88  91 100 115 152 168 173 172 171 169 171 174 174 175 175 176 179 181 181 180 180 179 181 180 177 176 177 178 174 176 180 180 176 175 176 175 176 176 175 175 172 169 165 163 156 146 140 134 128 124 115  93 100 109 100  99  89  62  53  66  66  65  71  68  54  59  57  62  63  48  43  69  90 107 145 174 176 179 181 183
 118 112 111 115  99  95 114 118 114 103 103 101  90  93 101 131 160 169 171 172 172 170 170 173 176 176 177 180 180 180 181 181 181 180 180 180 178 179 180 180 180 182 182 178 179 179 179 180 179 178 178 176 172 174 172 169 163 157 149 141 139 131 126 114  90 101  96  93  97  77  48  62  72  70  68  87  74  62  66  63  65  60  48  48  58  86 129 164 169 176 178 182
 107 111 111 112 110  90  92 106 106 108 106  92  80  92 106 144 164 167 168 167 170 171 168 171 175 178 179 181 183 183 184 185 183 182 181 182 182 181 181 181 180 183 182 179 181 181 181 180 181 180 181 180 178 178 177 174 171 166 160 151 146 137 131 126 111  81  92  84  87  87  61  55  83  89  79  79  92  90  79  80  69  58  56  44  41  60 118 163 163 174 176 179
 116 108 105 102 100  98 101 105 109 110 106  77  81  97 117 152 163 166 167 167 169 170 167 173 177 179 178 177 181 185 186 187 188 186 183 183 184 181 182 181 180 182 182 182 183 182 180 184 182 181 181 181 180 180 177 175 173 171 167 161 156 145 142 132 126 101  68  72  65  78  64  65  78  87  84  85  80  92  98  82  73  63  52  49  38  34  88 152 157 172 174 175
 112 102 100  95  94 104 119 116 102 102  97  79  88  98 131 155 163 165 168 169 170 171 172 173 175 179 183 181 180 184 184 185 185 186 185 184 184 182 182 182 182 182 182 183 184 184 184 185 184 184 184 184 180 183 180 177 173 172 170 166 163 158 150 141 125 111  98  76  76  82  86  86  83  86  82  75  77  76  86  89  79  76  66  58  56  48  62 119 147 172 173 173
  98 102 103  98 102 111 100  89  91  84  82  80  87 102 135 156 161 163 166 168 171 173 172 173 174 176 181 183 182 183 183 185 187 186 185 185 185 183 183 183 184 184 182 184 185 185 186 187 187 188 187 187 187 185 184 182 178 175 171 166 166 166 160 152 133 116 111 109 102 108 113 110  93  88  82  70  53  74  75  75  77  85  83  80  67  63  77  98 146 171 171 171
  90  94  95  93 101 114  89  81  93  78  67  80  91 102 141 156 159 162 164 168 170 171 169 170 172 174 176 179 181 181 183 183 185 186 185 186 185 182 183 183 184 183 184 186 184 186 185 186 189 189 189 187 187 185 183 185 182 178 175 173 171 169 166 158 147 136 130 128 127 133 128 115 103  90  85  66  41  40  69  61  58  76  90  82  80  79  71  76 147 172 171 171
  89  92  91  99  99 118 119 117 105  92  75  91  85 106 148 157 159 161 161 165 168 168 171 171 171 173 175 179 180 180 182 184 183 184 183 184 184 180 181 183 183 182 182 185 183 183 183 185 186 189 187 185 186 185 184 185 183 181 178 176 175 172 166 158 150 145 146 145 141 137 134 120 110  95  90  68  43  18  48  62  50  53  79  86  77  84  59  94 153 172 172 172
  90  96  96  98 101 122 118 105  90  82  73  97  79 115 153 156 157 160 163 167 171 172 177 178 176 175 175 179 179 182 182 183 181 180 182 182 179 179 181 182 182 182 180 185 183 182 182 182 181 183 183 184 185 185 185 187 183 183 180 177 177 174 167 160 151 145 149 152 147 144 139 126 109  95  82  76  50  25  19  52  62  55  68  83  84  86  86  90 155 175 174 174
  89  91  97  99 107 116 110 101  76  59  71 100  79 123 152 154 159 165 169 171 175 176 176 176 174 177 174 176 176 177 179 179 175 175 180 180 176 179 181 181 181 180 180 182 180 181 182 180 182 185 187 186 186 184 183 187 185 183 183 182 179 175 170 164 154 153 156 156 159 154 143 125 110  96  83  86  60  42  29  36  61  72  54  61  91  94  93  98 135 170 174 178
  89  90  90  97 106 113 113  95  69  59  64  91  78 124 146 155 161 171 172 166 161 161 155 151 154 151 152 154 152 151 159 169 170 172 175 174 171 176 179 180 179 177 176 177 178 179 177 176 179 184 183 182 182 181 181 183 185 184 184 186 184 179 175 167 159 157 152 153 157 146 140 125 109  98  88  91  71  46  54  52  46  65  82  69  76 103  83  93 132 161 170 178
  89  90  91  94 104 115 112  78  68  61  57  88  80 121 145 153 157 159 155 145 137 132 129 122 120 115 113 111 122 127 133 150 157 164 165 165 165 172 172 171 174 173 170 170 170 173 165 158 159 150 147 151 154 154 158 159 163 169 171 173 182 186 181 169 159 157 154 145 138 143 138 126 108 102  85  97  90  55  50  64  58  48  69  81  75  86  98  97 117 158 175 176
  91  90  91  89  96 110  95  69  57  52  57  78  82 117 145 148 147 134 124 116 114 109  98  90  88  88  84  85  98 111 126 130 137 150 151 153 158 162 163 166 168 165 159 158 159 157 149 142 130 120 116 112 108 111 121 128 129 133 142 152 162 173 179 178 167 160 153 147 149 144 135 129 110 103  85  89 109  86  58  60  56  49  40  61  82  72  75  84  92 120 162 180
  87  85  83  83  94  93  83  70  67  68  67  73  81 114 143 141 135 127 116 112 102  97  94  84  73  75  74  71  82  94 112 112 123 134 138 143 149 150 151 157 160 157 151 147 144 141 137 129 112 104  93  80  78  82  88  95 100 107 116 125 127 131 152 169 170 163 157 149 143 137 139 130 106  91  93  90  91 104  87  72  60  53  50  42  59  79  63  64  68  87 137 173
  84  81  79  77  91  89  95  75  71  63  68  74  81 109 140 144 137 122 118 118 119 116 116 113 103  94  90  83  85  87  90  99 107 117 125 133 135 137 139 145 150 148 142 136 133 128 122 110 101  89  80  75  75  77  82  82  89  95  99 105 112 118 128 141 154 163 161 149 136 133 136 124 103  87  96  95  84  79  97  93  93  85  76  68  52  57  71  67  72  73  87 128
  80  77  78  75  89 105  96  83  63  44  47  52  67 111 140 142 132 122 117 125 135 136 135 136 131 125 123 110 100  96  90  89  93 102 110 114 118 122 130 139 140 137 130 126 120 115 105  95  89  83  85  92  94 101 112 119 124 123 128 125 126 120 117 127 136 145 154 152 134 125 123 122 108  95  90  97  92  75  83  85  92  93  88  91  72  61  54  61  76  88 127 153
  72  69  76  72  82  99  90  77  66  52  66  65  54 108 142 143 132 120 124 140 146 142 141 136 128 124 126 125 121 115 106  96  89  89  95 103 110 121 141 149 148 137 123 115 109 100  92  89  91  97 110 121 130 139 145 150 151 153 150 151 144 136 135 129 131 140 145 148 132 113 119 119 107  94  88 101 104  87  74  80  87  92  86  51  44  62  49  40  55  76 118 159
  62  61  63  71  75  87  98  81  70  65  82  65  50 108 145 145 136 124 133 136 123 121 121 119 109  99  95  95 107 117 118 112 100  91  89  97 111 139 163 172 169 156 133 111 103  96  93  99 104 112 123 119 118 121 123 126 136 144 154 156 152 147 142 137 134 138 145 147 126 109 122 119 110  88  98 104  97  81  71  78  75  83  86  78  63  48  46  53  59  74 103 149
  55  54  52  58  75  70 103  85  69  68  82  55  59 112 147 145 139 134 126 106 115 101  90  98  98 103 103  96  88  88 107 116 112 100  92  95 115 146 176 186 183 170 147 120 101  98 100 103 107 102  87  88 107 117 122 123 122 114 117 122 142 153 147 137 132 139 146 144 125 114 123 118 108  93 116  97  91  74  64  61  82  71  75  81  86  78  63  65  69  81  89 117
  62  52  50  58  61  63 108  85  71  69  89  64  63 110 148 145 140 128  93  99  68  48  67  72  82  81  93  88  96  95  89 100 101  99  98 107 121 153 182 191 190 177 146 117 101  97  98 102  97  79  85  98  87  92 101 123 130 129 129 117 105 119 144 140 138 142 145 143 130 119 121 118 109 119 108  83  85  72  56  57  65  80  71  76  90  87  87  78  75  86  92 101
  72  66  70  68  54  85 109  70  67  68  88  74  67 112 149 150 131 109  93  69  56  77  82  52  68  81 132 119  85  75  76  85  95 104 112 118 133 165 185 190 190 181 147 126 116 105  99  98  91  88  79  44  54  71  89  85  84 105 107 118 122  97 105 145 146 146 149 145 131 118 117 120 117 117  75  83  74  68  46  54  50  64  75  74  75  81  87  86  81  79  81 105
  90  92  90  94  98 116  99  54  50  68  73  75  73 110 151 149 130 116 110  96 106  84  78  90  86 102 143 139 126 103  83  87 113 138 134 130 146 170 185 185 182 180 158 137 130 128 123 103  86  55  69  61  74  51  64  54  87 125 105  87  89 107 104 114 140 145 148 144 130 117 117 118 115  89  65  85  58  56  39  33  44  28  45  72  67  63  62  54  53  55  49  99
 101 100 108 113 116  93  85  47  33  59  68  76  68 112 155 148 132 127 136 142 141 136 124 122 119 133 135 136 131 128 136 140 142 143 136 141 153 175 187 183 183 176 166 148 136 139 147 121 104  95 109 108 100 103  95  77 127 134 129 116  99  87 108 113 121 137 142 144 130 121 113 112  98  67  73  81  46  45  45  28  31  37  20  38  49  57  63  65  63  65  70 142
 100 108 116 106  95  92  81  37  29  47  67  80  70 118 159 153 146 144 145 139 135 135 136 136 133 133 129 127 124 125 137 147 148 145 146 150 155 178 188 188 187 178 169 160 146 139 148 147 140 134 129 134 139 141 135 138 138 141 143 150 152 143 130 125 124 136 145 147 136 122 113 105  82  73  77  77  39  34  39  37  26  32  32  34  34  29  36  50  60  74  60 114
  83  93 105 104 103  93  66  34  25  33  68  87  78 118 163 158 156 154 149 143 129 119 116 111 113 115 124 129 132 146 155 159 162 161 158 153 160 182 190 192 187 178 168 166 159 153 156 155 147 142 124 120 129 135 140 144 141 146 147 145 148 155 157 154 148 145 152 154 142 123 108  97  75  75  76  65  28  29  28  27  32  29  28  47  45  30  37  48  68  70  74 142
  85  91 102 109  96  74  74  32  17  33  70  98  88 122 166 162 161 159 156 152 141 132 126 124 129 137 143 147 149 156 169 172 168 164 161 157 168 184 190 191 186 176 168 166 167 166 164 167 163 159 151 132 118 112 112 116 125 129 135 141 148 156 163 167 164 164 163 160 150 128 107  89  70  78  77  53  22  20  25  25  32  31  28  49  63  38  36  37  65  72 118 181
  91  96 103 104  86  83  65  42  42  54  75  99  84 126 169 167 166 163 161 156 149 149 150 150 151 154 156 157 165 168 174 173 166 163 160 162 174 186 189 190 185 175 169 167 170 172 173 173 176 172 167 160 153 141 132 127 130 132 141 149 156 161 163 167 166 171 171 165 160 141 109  91  69  78  86  44  15  18  23  27  35  30  30  46  61  62  47  43  65  79 126 183
  86  96 110 103 106  86  65  54  65  77  83  93  92 136 171 169 171 168 165 162 161 163 163 163 160 159 156 161 170 174 172 168 163 163 161 168 180 185 187 185 182 176 170 168 171 174 178 176 180 182 180 174 168 164 162 160 157 155 159 160 166 169 165 165 171 173 174 171 165 154 117  88  85  82  90  34  12  16  22  23  32  44  42  39  49  63  65  59  76  95 150 186
  84  92 102 108 106  83  68  70  88  89  83  94 101 144 171 172 173 173 173 172 174 172 169 167 167 165 170 174 173 174 170 164 162 161 168 178 184 187 187 186 185 178 170 171 171 176 176 177 181 184 183 183 180 174 172 173 171 173 172 170 170 170 173 175 178 178 176 173 168 161 137  93  96  89  83  26  13  14  18  18  22  38  46  33  36  51  66  74  80  90 145 179
  93  96 103 109 105  94  91 101  97  89  82  94 104 148 173 171 172 177 178 177 176 177 179 179 180 177 174 175 174 173 167 162 162 165 173 179 185 185 187 189 190 185 175 169 171 173 174 175 180 182 181 182 186 182 182 182 182 183 184 183 185 185 185 184 182 181 180 172 168 161 150 124 104  93  77  22  13  13  21  20  22  32  45  38  29  50  64  75  85  92 130 167
  88  95 110 116 111 101 102  98  91  79  82  94 104 152 170 168 172 176 176 179 181 181 182 180 182 177 174 175 172 172 167 164 163 166 171 177 180 180 184 186 186 185 177 169 172 173 172 175 179 182 183 183 186 185 186 185 186 184 189 189 189 191 190 186 185 180 176 169 166 159 151 145 117  91  63  20  15  12  25  31  26  39  46  37  39  50  62  71  84  96 124 139
  93  84  96 110 115 108 100  92  88  79  79  91 108 154 165 166 169 175 177 180 181 183 181 180 179 179 178 178 175 171 166 167 165 161 161 163 161 166 170 171 168 165 163 168 174 176 174 177 182 182 186 186 183 184 187 185 184 185 191 191 192 191 190 189 186 177 170 168 165 160 152 150 123  94  51  18  18  16  21  35  31  49  50  38  48  43  64  61  74  95 108 111
 111  84  87  98 111 106  98  93  90  82  72 102 107 153 163 163 171 175 179 181 183 183 180 180 178 179 179 176 174 169 165 172 163 141 128 129 132 136 146 144 134 135 145 160 174 178 178 177 181 178 182 181 181 183 183 187 188 189 191 190 192 190 190 189 185 176 168 165 160 155 151 148 128  88  50  20  19  20  19  32  42  50  60  47  37  39  60  57  69  88  99 101
 141  91  86  99 110 100  88  80  62  55  63 113 103 143 160 168 174 175 178 178 180 183 182 180 177 179 175 174 169 164 167 163 138 117 111 104 104 118 122 122 121 121 126 135 154 170 178 177 179 177 178 176 178 178 181 182 185 189 189 189 189 189 190 189 185 178 168 159 154 152 149 146 129  82  52  31  24  21  19  27  49  60  68  56  39  44  53  54  71  83  91 105
 180 107  84  95 113 100  65  50  47  48  52 105 107 130 160 168 171 171 174 176 177 177 178 177 177 177 168 166 162 158 159 138  96  65  62  83  93  97  96 102  90  66  69  91 131 151 167 173 174 172 168 169 172 176 179 180 183 187 187 187 187 186 186 189 184 174 167 157 150 150 146 146 128  81  57  33  36  37  31  23  41  65  74  62  54  48  44  59  68  84  94 114
 190 119  80  97 107 103  85  55  45  41  33  98 119 124 156 166 169 168 168 171 171 172 173 173 171 169 162 157 158 158 142 105  45  13   6  13  73  82  80  90  39  10   3   8  53 115 144 158 163 169 166 160 162 169 175 178 179 181 183 183 183 185 185 184 180 175 165 157 152 149 144 142 123  83  67  37  53  51  56  46  40  61  78  65  63  55  43  57  67  78  95 108
 170 109  82  97  92  95 102  88  72  63  56 111 124 118 151 160 166 165 163 167 166 166 168 165 162 159 153 154 159 160 132  90  54  45  38  34  79  84  70  83  75  57  25  18  27  76 117 136 150 170 172 159 154 160 166 170 171 173 173 175 175 177 179 176 174 171 166 158 151 146 143 139 110  77  61  39  57  46  54  63  60  57  67  76  71  59  50  50  70  67  86 102
 143  89  81  86  91  88  97  94 101 104  96 122 126 111 146 157 161 158 160 163 161 159 156 157 155 150 150 157 162 160 143 101  73  81 102 106  86  80  72  75  77  87 100  92  67  69  92 124 155 171 171 158 147 152 162 168 164 164 164 165 167 168 167 166 168 164 162 158 151 142 139 139 102  73  58  45  64  58  51  63  55  64  89  79  67  48  46  56  73  77  72  84
 148  85  78  90 100 108 111 106  94  87  79 110 140 119 141 150 158 160 158 157 156 151 148 143 137 137 147 161 162 159 152 129 111 120 118 111 104 102  89  89 100 106 114 118 106 101 119 149 169 170 166 160 146 135 142 152 157 156 156 158 158 159 160 158 158 159 157 155 148 137 138 140 114  78  60  53  67  80  62  53  52  76 110  79  32  37  33  55  88  95  87  87
 193 125  89 104 128 126 106  93  85  71  60  82 150 146 140 144 148 149 149 148 149 144 138 132 133 143 159 163 164 164 158 155 150 138 133 135 138 133 119 121 130 140 142 141 147 157 168 174 175 174 172 168 159 135 118 131 147 156 159 156 151 151 153 152 152 153 153 150 147 137 139 138 120  85  62  57  61  76  74  59  69 107 117  73  23  31  18  51  88 109 114 120
 231 206 171 140 133 133 101  83  71  65  56  70 148 155 143 141 140 139 140 145 141 134 123 128 150 164 166 166 166 162 158 162 150 141 144 143 142 140 140 140 138 144 150 155 156 163 168 172 174 172 175 172 166 158 131 106 119 140 150 151 149 144 142 143 144 145 146 147 146 144 142 135 123  86  73  63  53  81 120 128 121 115 117  61  42  31  19  38  75 111 123 126
 246 241 233 215 183 140 107  87  73  64  49  74 156 151 148 137 132 136 141 141 133 122 126 153 163 162 159 157 161 161 158 152 145 148 146 145 148 147 149 148 147 149 153 156 157 162 164 164 170 171 173 172 166 161 158 136 103  96 117 139 150 146 139 138 137 136 138 143 145 145 142 133 127  94  87  81  69 114 142 137 115 117 119  25  21  28  21  45  74  87 105 113
 253 252 249 241 221 178 133  99  73  61  51  93 163 147 147 140 129 133 140 138 120 123 154 159 156 152 149 153 157 158 152 151 148 152 151 152 155 157 155 154 151 154 154 154 156 155 161 163 163 170 168 165 160 151 152 157 151 117  98 127 145 139 133 136 132 130 132 140 145 147 141 135 134 114  92 106 100 138 147 145 131 148  82   8  16  19  27  38  51  61  70  93
 254 254 252 249 237 214 163 140 120  85  79 120 164 148 147 143 125 125 133 129 117 145 159 153 150 142 145 150 155 157 152 153 155 154 157 159 163 159 162 161 160 162 166 165 158 162 167 169 167 162 159 162 149 144 139 139 151 144  96  86 113 131 133 126 127 126 130 138 148 149 143 141 139 133 109 111 117 125 153 159 161 135  31  16  17  20  29  37  51  65  82 106
 254 254 254 252 244 227 177 156 144  98  94 123 158 154 151 146 126 122 130 126 131 153 152 147 140 132 145 149 149 156 157 149 145 143 139 147 153 156 165 167 158 153 149 147 153 156 160 167 167 162 159 160 150 138 132 127 138 142 131  96 102 122 127 125 123 123 130 138 147 148 146 140 137 143 138 140 144 151 161 166 165  80   5  17  23  29  34  43  63  86 103 118
 254 254 254 253 246 226 179 153 138 100  92 101 152 159 154 143 132 122 125 125 138 148 141 132 120 118 128 142 145 133 121 117 113 106 103 103 104 108 115 114 105 105 107 111 119 126 129 132 132 133 142 151 144 122 104 105 120 137 146 128 103 119 130 129 124 127 134 143 143 147 146 134 140 151 155 159 161 164 166 173 135  29  13  19  28  29  30  35  60  96 116 121
 254 254 254 253 246 227 171 142 133 110 106  94 124 150 153 145 135 127 122 125 139 142 126 113 100  99 113 115 103 101 104 110 112 114 121 117 111 106 110 105 108 111 116 119 117 115 114 115 114 107 103 100 120 117  86  75  90 118 136 142 117 123 131 129 124 132 139 144 142 148 145 136 144 153 157 161 162 162 168 165  79  16  23  36  55  51  54  71  96 112 115 117
 254 253 254 253 248 229 169 134 133 111 114 114 102 114 135 150 138 131 126 124 136 137 122 107  92  85  75  68  85  95  82  68  68  76  84  82  77  76  72  70  79  83  85  87  84  79  74  78  90 102  97  88  81  67  67  80  87 106 127 140 126 128 130 127 129 135 141 140 144 151 144 139 146 148 149 152 153 151 155 110  26  32  40  53  82  87  87 101 107 111 112 113
 254 254 254 254 249 229 167 129 135 120 122 116 112 100 117 150 141 133 129 126 134 129 123 115 116 109  77  56  82  84  76  81  92 101 106 111 111 107 105 108 115 121 126 127 124 128 127 111 101  94  87  81  81  94 118 132 121 115 130 139 136 136 130 129 132 140 143 140 146 148 142 140 145 137 127 128 129 128 102  33  29  65  61  58  76 101  98  92 106 110 112 110
 254 254 254 254 249 230 168 126 130 123 133 131 131 131 136 152 145 139 132 129 133 135 129 124 132 140 145 139 121 117 125 131 131 137 140 144 145 150 152 158 158 155 151 149 146 149 149 150 146 137 138 146 153 163 157 150 135 133 141 139 140 136 129 130 140 144 141 141 145 146 138 131 146  88  54  58  54  44  15  10  31  72  85  83  83  84  73  91 106 107 107 107
 254 254 254 254 249 231 174 138 137 124 133 136 137 137 138 149 144 141 134 132 135 137 137 133 137 146 154 156 151 144 140 138 137 136 134 138 142 143 144 146 147 144 143 150 150 147 151 156 152 155 160 161 163 162 156 149 141 144 141 135 138 129 129 139 144 144 143 144 147 147 137 131 140  39   5   5   5   6  10  26  29  32  52  62  56  46  70 102 104 106 108 106
 254 254 254 254 251 233 191 165 170 138 130 133 134 135 140 149 144 139 136 132 136 136 142 145 145 152 156 155 155 155 147 144 139 137 132 131 132 133 133 135 136 136 140 145 148 147 152 154 155 156 159 158 160 162 159 155 153 145 135 134 137 134 136 144 144 146 143 142 147 144 139 135 123  38  19  13  21  14  16  22  39  52  49  45  60  77  91 101 104 106 107 104
 254 254 254 254 249 237 210 184 189 160 130 131 133 133 136 147 146 143 139 134 129 133 140 150 153 158 160 157 155 155 153 150 143 139 134 134 134 133 132 139 141 139 143 144 146 146 148 154 154 155 157 159 160 163 161 162 154 141 135 137 132 130 140 145 145 146 142 144 145 147 142 137 106  41  22  23  21  13  11  14  42  70  77  84  90  92  95  99 102 105 107 106
 252 253 253 253 248 237 219 196 201 170 130 131 132 132 133 147 150 147 143 140 129 130 136 145 154 160 161 159 157 157 154 151 149 145 137 135 136 134 135 134 136 138 141 142 143 144 142 145 148 149 155 159 160 163 162 160 152 139 138 137 133 139 146 148 146 143 143 142 143 147 131 131  99  32  20  19  17  14  13  20  32  45  76  93  90  89  94  98 102 106 108 108
 238 241 246 247 239 230 218 201 202 164 129 130 131 131 132 143 150 147 145 138 132 131 136 142 152 159 160 161 161 159 153 151 151 147 142 140 137 135 130 135 138 137 136 140 145 146 144 144 150 156 161 161 161 162 164 161 155 147 143 139 148 153 150 144 142 143 139 141 142 139 128 132 105  32  16  18  14  22  21  26  41  63  86  89  89  90  95  98 102 107 110 108
 198 206 220 228 221 213 204 190 190 158 131 130 131 130 130 136 147 145 144 141 136 135 135 141 152 158 157 157 158 156 153 151 148 147 146 143 137 134 131 128 131 133 135 138 141 144 147 154 157 158 163 164 165 163 161 156 153 155 150 145 150 148 144 143 142 142 141 142 141 137 129 133 117  33  18  16  31  42  39  61  82  88  91  92  91  92  95  99 106 110 113 109
 163 162 170 185 187 181 181 178 175 151 133 131 130 129 129 127 139 147 145 144 141 139 138 144 150 155 157 158 157 156 152 150 148 145 145 143 139 137 132 128 130 131 135 142 149 157 155 156 159 161 165 166 167 166 162 154 156 155 155 150 149 149 145 145 144 142 142 140 137 133 125 136 126  32  19  30  29  35  45  56  82  92  94  93  92  94  98 104 110 112 115 110
 152 142 133 136 138 139 151 160 160 147 141 137 133 130 127 124 134 144 147 145 144 143 137 140 146 151 153 156 156 156 153 150 149 148 145 142 140 136 131 128 131 135 142 148 153 156 154 159 162 165 166 166 166 161 163 161 159 156 157 151 145 146 146 144 142 143 140 134 130 125 122 144 129  29  38  38  17  18  34  45  65  86  93  93  92  96 103 110 112 116 117 110
 151 139 123 113 114 122 133 140 143 146 148 146 143 137 130 124 126 139 146 145 146 144 140 139 144 147 150 153 156 155 156 154 152 150 152 159 162 162 157 157 161 165 167 164 154 152 161 166 167 169 167 166 163 160 164 161 157 155 151 149 149 147 146 145 145 140 138 130 126 123 125 149 130  27  31  26  10   6  10  36  66  84  92  92  91  97 105 112 116 119 117 110
 149 137 122 119 124 127 131 136 140 145 151 156 154 146 137 127 124 133 138 144 147 147 140 138 144 149 151 151 156 158 160 157 160 162 165 165 169 173 175 174 175 176 176 177 177 177 179 177 173 173 170 165 162 163 162 159 158 153 150 148 148 147 146 142 139 135 134 127 123 117 125 153 131  29  32  27   9   7   4  26  65  85  90  89  88  95 106 113 120 122 118 109
 145 137 131 137 142 145 144 142 140 143 152 159 160 157 144 131 120 123 133 140 147 148 143 141 145 148 153 153 157 160 164 168 171 170 168 169 171 172 175 175 177 177 180 182 182 179 179 181 177 173 167 163 161 158 159 157 156 152 150 148 145 143 138 137 134 134 130 125 118 113 135 158 129  34  43  34  10   4   6  28  63  86  91  85  82  92 103 112 121 123 118 107
 140 138 143 149 154 157 154 147 138 136 144 155 161 162 150 134 121 114 118 132 140 144 144 142 141 148 153 154 161 160 163 169 166 166 169 171 171 173 170 175 175 174 176 180 177 176 174 171 176 173 166 162 157 156 155 156 153 148 148 149 144 140 135 133 127 127 123 122 120 123 142 156 133  34  28  38   8   4   6  28  64  84  90  82  78  87  97 108 118 119 114 102
 139 141 148 153 157 158 152 141 133 126 130 144 157 160 152 137 121 109 107 121 134 141 142 144 143 147 151 152 156 157 164 164 160 164 164 169 167 164 162 162 165 162 165 170 171 169 172 169 167 164 161 158 155 154 150 152 150 149 146 141 139 134 132 125 119 118 117 115 115 127 146 157 133  42  36  43  17   4   5  21  54  78  86  81  74  76  88 102 112 112 106  95
 139 140 147 152 156 155 148 138 128 122 121 131 146 154 151 139 122 107  97 106 124 135 136 141 142 139 145 147 148 155 157 154 158 158 155 161 163 155 150 152 152 153 157 156 157 158 157 160 155 151 150 151 154 152 143 146 144 146 143 138 132 123 120 114 114 111 110 107 111 132 148 156 133  60  62  42  13   5   4  11  38  65  76  76  69  66  77  92 100  98  90  83
 135 137 144 149 154 151 146 140 132 127 121 119 133 145 147 139 122 106  91  93 108 121 130 130 133 133 135 139 143 147 146 147 145 144 146 144 146 146 143 142 143 145 145 145 143 146 144 147 149 146 143 149 147 142 144 141 141 139 137 133 126 113 108 109 107 105 106 107 124 138 149 157 135  72  65  37  13   6   4   5  19  45  62  67  63  61  67  79  84  82  72  68
 129 130 135 143 148 149 149 148 145 139 127 116 120 134 140 134 120 105  93  80 103 112 117 123 125 124 128 131 133 136 140 139 134 131 134 134 133 136 138 139 138 135 134 133 132 130 132 129 132 130 132 140 134 133 133 130 129 130 129 122 117 105 103 106 106 103 104 123 138 143 150 158 134  69  45  25  11   8   4   4   7  22  42  54  52  51  56  63  68  66  54  52
 119 120 124 132 142 147 152 155 156 150 134 119 111 121 130 127 117 102  92  74 110 127 101 107 115 118 121 122 123 127 131 123 123 122 123 124 127 130 131 131 126 119 120 121 117 117 120 125 121 126 130 129 126 125 124 122 123 122 119 109  99  99 100 104 105 102 117 135 142 146 150 161 130  37  28  12   5  12   6   5   5  10  21  34  40  35  38  46  48  47  40  39
 107 107 113 122 132 146 153 158 159 153 138 120 107 108 119 119 114 105  92  71  95 148 116  99 103 106 109 114 117 115 116 111 113 114 118 112 111 112 116 112 110 107 108 107 108 110 116 114 116 116 121 118 110 107 114 113 112 107 103  93  90  93  96 100 100 115 128 140 144 146 151 160 125  25  20   5   6   9  12   4   3   6  10  16  22  22  21  26  28  28  26  27
  97  98 103 114 129 141 150 154 151 149 139 120 104  96 103 108 109 103  91  73  93 146 139 118  92  91  98 102 105 103  98  97 103 100 104 102  99  98 102 101  97  99 100  98  97  93  92 103 108 108 107 100  93  99 102 102  97  88  82  83  90  92  96 103 110 122 135 143 148 149 154 159 120  17  12   5   6   6   9   5   5   6   7   7  10  12  10  11  13  14  14  20
  97 100 103 112 124 133 142 145 144 140 130 109  92  81  86  96 102 101  92  78  82 141 142 134 115  97  91  90  95  90  90  87  85  78  84  87  87  95  87  86  84  84  85  80  74  73  76  89  91  92  89  90  91  91  93  90  79  71  71  83  89  95 102 112 121 127 138 147 150 154 156 161 114   8   7   5   6   6   6   6   6   8   8   6   7   6   6   5   7   7  10  15
 105 103 101 101 107 116 126 133 131 121 103  86  71  55  59  76  93  98  92  79  72 136 146 137 132 118  99  88  86  83  81  76  67  68  68  67  71  67  65  66  64  62  61  60  58  66  76  73  77  77  77  79  81  78  76  68  65  72  79  87  98 101 109 116 127 135 145 148 152 154 155 161 115   2   4   6   6   7   6   6   7   7   7   6   6   6   6   5   5   7   7  11
 102  96  87  79  75  83 101 111 113 100  72  54  35  21  31  59  84  96  93  77  63 130 148 138 132 126 114  96  91  80  73  67  60  57  57  52  53  45  45  46  51  50  49  49  50  52  59  60  62  65  69  65  62  64  65  70  75  85  94 102 105 110 113 119 126 139 149 150 155 154 154 162 109   1   5   6   7   7   7   7   6   7   8   6   6   6   7   6   6   7   7   7
  87  78  61  44  32  33  68  98 102  93  46  14   8   6  20  53  81  96  94  79  57 117 149 140 135 131 122 105  95  88  74  65  62  60  53  48  43  44  41  46  47  49  49  48  47  51  54  54  55  53  54  54  57  64  71  83  88  97 104 108 115 118 123 127 135 144 146 152 155 153 153 162 108   2   5   6   7   7   7   7   8   7   7   6   6   6   7   7   7   5   6   5
  68  48  24  12  10  15  57  97 107 103  72  34  29  30  38  60  83  97  94  78  55 110 151 140 137 133 125 113  98  89  86  80  72  65  54  51  48  50  46  47  47  49  51  48  50  48  45  46  45  46  49  58  71  79  88  97 100 105 111 116 120 124 127 132 142 148 151 154 155 155 153 162 109   1   5   5   6   6   6   7   7   7   7   5   5   6   6   6   5   5   4  29
  66  51  38  32  40  57  83 113 127 124 110  92  84  76  70  75  91 100  94  77  58 103 150 140 137 135 130 120 111  99  92  90  79  73  64  54  51  48  47  42  38  40  38  37  38  38  37  42  50  61  69  80  90  99 104 109 114 114 119 120 121 127 135 138 145 149 151 152 154 156 153 162 112   1   5   5   6   6   7   6   5   5   5   4   4   5   5   5   3   8  50 119
  97  94  89  90  96 100 109 124 139 138 131 122 114 108  97  92  94 101  96  77  52  99 151 142 140 138 135 128 115  98  94  97  88  83  77  69  62  57  57  50  44  43  40  35  36  36  39  45  60  83  94 107 112 119 126 128 129 127 129 131 129 133 142 147 148 150 152 155 156 156 154 161 115   3   5   5   4   5   6   5   4   4   4   4   4   4   3   2  17  76 145 179
 124 123 123 126 126 124 124 126 132 136 132 131 127 120 110 101  97 100  96  78  47  91 153 143 139 138 135 127 120 110 103 103  94  91  89  82  74  68  66  61  54  53  53  49  47  49  49  55  71  90 109 120 126 130 139 141 138 140 139 140 139 140 141 147 151 152 152 156 157 156 156 161 118   2   6   5   4   4   4   5   4   4   4   5   5   4   1  24  97 159 183 186
 132 134 139 142 139 133 126 115 118 123 124 124 121 114 107 100  98  96  90  72  45  73 151 144 141 139 135 129 122 119 114 109 107 104  96  88  84  80  77  73  65  60  63  63  61  63  67  74  86 100 114 125 133 138 143 146 146 146 146 147 144 144 145 146 150 153 156 156 157 156 156 156 145  34   0   6   6   7   6   7   7   7   7   9   8   4  24 100 165 184 183 181
 125 130 136 139 136 130 122 116 117 117 113 109 106 105 104  98  97  93  81  65  39  86 154 146 141 138 137 129 125 124 120 114 111 110 108 104  92  89  86  80  68  71  73  72  72  76  82  89  99 107 115 127 137 143 147 151 151 151 152 149 150 146 146 148 151 152 155 154 156 157 157 152 169 189  40   0   6   7   7   7   8   7   8  10   8  22  95 160 181 181 178 178
 113 116 123 126 126 124 120 119 118 114 112 105 101  99 101  95  92  82  72  56 112 176 152 145 140 137 137 133 128 125 124 120 116 114 115 115 107 102  97  88  82  81  80  84  88  92  96 102 110 118 125 136 143 147 150 150 152 156 154 153 154 151 147 148 148 151 154 156 156 156 157 154 159 219 184  10   3   7   8   9   9   8   8   7  14  77 151 176 178 175 175 175
 106 109 113 116 116 116 118 122 123 121 115 106 101  98 100  96  90  80  63  93 209 165 151 150 143 140 138 137 133 125 125 124 122 117 117 116 114 111 105  98  95  95  97 100 105 110 114 119 123 130 135 141 145 147 149 151 154 158 159 157 156 154 153 149 150 153 153 154 157 157 159 157 161 196 241 117   1   7   9   9   9   9   8   9  52 134 173 176 173 172 173 174
