P2
# Generated by OpenCV 4.2.0
92 112
255
  76  62 102 107 104 110 111 105 106 104 100  98 101  94  82  81  75  64  55  47  44  34  28  25  21  31  14  14   6  18  10   3   6   8   6   8  25  42  28  10   9   9   0   0   0   0   1   1  45  88 111 109 106  99 105 106 105 103  98  98 100  97  96  96  95  96 101 100  92  92  85  82  85  82  76  72  65  65  59  52  51  48  46  38  35  33  32  28  26  23  22  22
  74  64  99 103 104 110 110 103 101 101  98  95  97  94  85  84  79  66  56  52  44  34  30  26  24  35  23  15   6   8  19  11   5   6   6   4  17  73  42   4  10   9   2   3   1   0   9   8  43  90 105 111 104 103 104 110 105  95  95  99  98 100  97  93  94  94  98  99  95  91  86  87  81  79  73  68  67  59  57  53  51  47  46  41  35  33  30  28  26  25  24  21
  65  57  95 102 104 112 111 102 100 101  96  90  93  95  89  86  82  66  51  48  42  33  28  29  25  18  22  15  11  15  41   3  25   5   2  21  60  75  41  23  22   2   3   4   2  20   8   0  55  78 115 126 106 103 127 111 103  97 100 101 100  98  95  93  93  93 100 102  94  89  86  84  78  77  72  68  65  60  57  56  50  47  41  39  37  35  30  26  22  21  16  20
  67  48  91 102 100 109 108 101 101 100  90  91  97  94  86  86  80  62  46  46  45  35  27  32  25  19  38  11  20   2  41  26   9  19  20  46  83  37 113  31  96 125  80  39  39  72  63  88 127 142 123 108 113 124 123 105 103  99 103 103 103  98  99  92  89  93  99  99  97  93  87  83  78  78  74  68  62  61  62  60  49  44  41  40  39  33  30  26  22  17  16  17
  69  54  83  98 100 105 103  99  97  99  91  87  97  98  87  83  77  59  48  45  46  34  28  32  30  28  30  12  20  15  42  36  16  12   0 100  67  90 133 112 104 108 110 127 119 101 107 127 117 107 102 132 127 121 117 103 104 102 103 111 101  99  97  94  94  93  99  98  93  94  90  86  81  78  76  69  63  64  63  60  49  43  41  39  37  33  28  20  18  17  15  12
  72  56  83  97 104 104 105  97  93  94  87  78  89  98  86  78  71  56  43  48  46  32  29  32  29  31  19  28  32  41  24  12  23  20  53 106 108 147 168 122 121 139 138 148 143 132 145 119 124 124 144 132 140 123 119 114 131 119 102 108 100 102 102  96  91  90 100  97  96  94  88  83  78  77  76  69  68  65  62  56  47  44  44  40  33  26  21  19  14  14  13  10
  80  51  79  98 102 107 104  98  92  95  88  72  76  94  86  67  66  58  45  49  44  33  30  29  27  22  25  27  18  37  29  35  37  65  78  96  98 145 134 128 123 125 114 111 130 130 133 135 126 137 139 161 187 201 189 163 111 115 132 104  95 103 100  99  94  94  96  99  92  93  88  82  78  72  67  67  67  62  60  52  42  39  39  35  27  23  17  14  11  10   8   6
  88  55  72  98 101 108 106  95  89  93  90  72  72  88  77  60  61  58  46  46  41  34  33  43  24  23  34  18  30  77  63  73 101  84  98 128 153 137 113  89 114 108 124 139 126 132 130 140 147 150 150 151 164 158 195 199 193 149  97 117 116 108 104  95  89  93  93  97  94  92  87  79  74  70  67  66  64  60  53  47  41  36  35  31  23  17  14   9   7   5   3   4
  93  58  73  97 102 109 106  94  84  91  92  76  68  79  75  61  60  63  48  42  45  51  35  30  27  28  33  48  54  89  74  83  99 121 134 122 134  94 118 116 125 139 131 137 144 148 165 157 172 178 195 189 173 185 199 186 190 190 173 135 118 116 107 113  96  94 100  92  91  93  85  78  78  73  71  70  66  62  55  46  36  30  26  22  18  10  10   8   7   5   5   4
  93  57  69  96 100 108 102  88  82  91  93  78  65  73  75  62  60  62  54  44  38  57  50  59  73  41  67  66  92 104  89 102 104 116 123 156 136 104 114 118 132 139 153 151 141 135 136 142 163 176 182 178 174 177 166 169 160 183 191 166 137 142 139 106 106  96  97  95  93  90  80  77  74  76  77  73  69  59  52  48  39  25  22  19  15   8   3   6   2   6   6   4
  90  58  65  95 101 107 106  86  77  91  94  79  63  67  74  61  57  57  54  45  53  77  67  89 139 146 161 131 118 123 108 116 116 120 114  98 102 129 122 128 141 149 154 149 147 148 142 153 146 160 165 193 200 169 183 186 184 180 166 178 169 111 127 135 120 120  99  95  93  91  83  77  75  76  75  71  67  58  51  44  38  25  21  13  11   6   2   6   3   3   4   2
  95  60  61  91 100 103  98  79  74  90  92  78  61  58  68  61  55  59  48  45  44  66  70 100 107  88  95 108 116 117 111 110 117  87  75 105  98  86  74  72  87  89 117 137 127 150 158 182 161 167 185 191 197 198 192 190 192 175 155 155 176 140 134 149 160 134 110 115 103  92  85  92  74  73  71  64  65  59  44  42  29  22  17  12  10   6   3   3   2   3   2   3
  87  61  58  82  95  98  92  76  71  87  94  79  51  46  59  56  51  58  54  41  52  72  92  85 117 150 144 106  79 108  95 121  97  80  96 124 109  55  50  73  53  98 111  83 129 127 120 146 162 156 134 147 141 133 125 130 178 179 182 163 175 171 137 145 166 160 169 128 111  98  79  77  76  66  64  70  64  53  46  35  23  16  12  10   8   3   2   3   2   3   6   5
  69  60  54  78  88  93  93  78  69  84  92  76  47  36  54  57  50  54  53  79  66  91 113 176 154 116 122  86  98  98 109 113 110 111 103  89  69  39  39  75  81  72 101 125 150 133 128 114 124 148 144 131 159 158 164 139 114   5 152 164 138 213 184 113 120 162 163 187 171 135 130  98  80  72  69  62  46  48  36  29  21  12   8   6   4   1   1   2   3   2   6   3
  55  52  49  68  78  88  89  75  65  82  89  74  46  33  47  51  46  43  60  59  68 139 155 111 133 136 113 112  81  77  74  81 105  78  80  78  52  43  60  71  70  65 108 129 148 151 178 155 136 136 120 136 115 142 173 181 199 179  74 113 154 157 180 186 157 155 169 197 202 185 133 101  99  74  56  45  53  36  27  24  17   8   5   5   3   4   3   5   4   3   2   3
  40  40  39  51  62  77  78  69  61  78  91  78  49  33  37  47  41  42  70  80 125 150 169 174 168 103  85 106  90  61  95 104 115 100  82  67  63  89  92 112 106  69 107 152 142 150 159 152 156 151 152 138 135 125 145 184 215 204 206 205 132 175 163 168 211 164 128 169 195 198 186 155  82  88  56  37  26  37  21  18   7   3   3   3   2   3   1   3   1   0   1   3
  28  32  32  37  45  59  66  61  56  72  87  77  50  27  35  46  41  69  83 137 171 186 191 141 119 108 108  88 104 108  97  94 100  89  95  90 107 106 132 144 132 148 183 206 194 173 162 156 147 142 142 141 144 146 153 135 125 195 208 214 219 181 147 163 153 203 172 141 166 199 211 193 165 106  89  53  31  13  30   0   3   2   1   2   2   1   1   1   2   2   3   0
  23  29  27  25  33  39  53  52  53  73  88  81  56  37  29  47  47 110 152 181 169 155 156 138 133  97 108 113 133 132 117 109 107 111  84 112 113 121 152  99 171 196 197 196 170 167 159 186 180 163 151 155 158 145 141 156 198 212 165 185 208 214 196 127 161 147 193 175 158 163 179 205 182 174 121 101  26  31  16   4   0   0   0   0   0   0   0   0   0   4   4   1
  20  30  23  21  26  33  41  47  49  70  89  84  62  81  39  44  66 157 166 151 151 155 150 133 139 122 116 135 146 134 121 135 141 127 100 121 145 188 129 105 143 141 174 182 178 156 163 129 141 178 184 167 153 173 187 161 170 183 197 193 211 211 212 224 147 159 165 171 162 167 181 187 182 180 172 125  86   2   0  28   0   0   0   0   0   0   0   1   3   3   7  10
  19  29  17  16  19  25  34  38  45  65  86  81  59  74   8  80 145 158 132 169 167 175 127  94 153 126 143 141 137 143 128 123 153 150 114 148 174 107  99  92 148 158 156 114 121 110  95 144 169 166 170 178 192 176 184 187 149 152 168 176 176 196 215 216 215 172 195 158 146 169 174 182 192 166 192 154 111  79  25  16   0   0   0   0   0   0   1   3   3   6   8  15
  23  31  20  10  14  17  25  31  37  54  80  72  64  69  82 134 154 119 178 176 158 151 170  97 170 124 115 156 142 159 128 143 132 138 124 156 164  91  92  88 128 142 134 154 145 155 168 140 133 139 173 161 182 183 168 174 162 169 149 169 199 190 167 200 193 174 193 204 137 161 170 159 174 181 162 193 132 107  17  55   0   0   0   0   0   0   0   2   3  12  18  24
  29  33  23   9   7  13  20  26  36  58  78  79  62 108 129 154 132 160 178 160 154 164 165 132 152 141 154 152 156 172 141 145 140 123 162 158 127 110 123 111  89 112  93  98 132 173 161 176 202 185 128 178 171 179 177 151 165 184 170 152 165 129 173 185 197 194 192 196 163 180 158 190 149 185 176 158 181 105  60  19   0   0   0   0   0   0   4   7   9  19  28  38
  35  32  22  12   9   8  14  25  36  66  82  97 105 120 145 140 158 173 163 141 151 166 138 166 153 151 147 161 161 191 161 145 146 157 143 166 130 149 145 136 137 145 155 143 113  89 173 151 115 173 183 159 181 176 177 165 150 155 190 158 158 160 188 195 177 190 186 173 213 197 192 180 171 164 182 171 188 158  98  28   4   0   3   3   3   4   9  19  20  27  39  42
  33  31  33  16  13  10  15  26  47  62  96  87 140 140 123 169 180 135 152 138 158 164 155 154 169 156 158 164 161 187 164 145 171 166 146 170 136 157 161 165 170 164 158 150 127 124 147 193 155 138 154 191 170 186 190 158 154 166 172 181 150 152 155 188 182 190 197 181 177 196 186 171 191 150 171 175 171 187 146  88  17   0   5   6   1   4  14  23  26  23  32  40
  41  36  32  18  21  25  33  26  46  81  87 165 132 147 139 167 146 147 141 147 161 142 166 157 162 160 168 145 180 191 148 158 163 170 159 162 156 167 178 170 186 179 183 152 128 129 149 171 185 158 161 161 200 184 174 170 134 166 170 173 169 158 173 175 180 164 186 187 169 164 189 186 179 186 147 179 177 196 163 134   9  14   3  12   4   6  16  20  16  16  27  30
  61  39  29  18  34  44  43  34  53  81 112 170 139 150 158 138 131 152 147 150 156 151 152 158 169 166 152 169 170 182 140 175 176 191 161 155 167 160 166 178 173 180 164 157 128 139 167 168 173 211 176 180 170 185 181 174 130 151 152 182 165 155 171 184 166 178 176 156 157 163 182 188 194 200 173 151 167 192 158 163  69  26  13   5  10  13  14  12  18  23  22  22
  58  39  29  26  46  63  55  54  59  88 159 131 148 138 137 148 135 156 128 155 166 149 173 160 176 174 158 170 168 171 129 184 180 211 157 177 189 147 158 176 165 160 155 144 164 169 173 170 177 185 216 184 165 190 183 172 126 157 149 155 159 153 170 147 164 180 159 174 163 137 173 171 171 195 164 164 157 167 162 142 185  16  12  12   9  10  13  14  17  22  22  20
  41  35  31  42  59  72  79  67  72  93 161 175 137 125 154 158 136 156 150 173 165 152 162 163 163 162 168 165 165 157 153 182 179 202 149 187 198 157 157 164 158 163 164 193 202 202 184 182 177 185 199 214 203 180 181 179 141 134 163 131 144 145 173 147 151 148 162 159 153 165 147 167 185 177 168 160 137 156 159 138 183  63  18  15  10   7   9  10  12  15  15  19
  37  34  32  52  67  76  87  78  97 137 149 154 126 150 161 149 137 145 157 172 164 156 163 165 173 165 170 155 168 140 167 192 189 186 146 180 187 166 179 182 195 205 202 212 210 212 212 200 181 192 208 212 213 188 174 162 164 136 151 140 132 142 151 141 156 148 142 138 131 145 150 164 147 161 161 147 148 130 149 120 133 158   9   5   8   7   9  13  14  17  16  18
  28  36  36  50  68  85  89  98  95 146 161 139 128 158 154 130 161 155 182 168 163 170 162 160 173 175 172 162 150 167 186 192 190 184 171 192 183 164 199 203 201 196 208 208 213 212 211 215 214 189 198 224 200 194 182 167 173 149 169 145 141 146 152 138 147 153 140 135 131 104 131 148 143 149 163 144 123 126 125 123 132 152  78   6  13   6  10  12  13  16  20  20
  28  41  42  47  73  91  99 100 101 157 158 158 127 159 160 141 155 196 167 172 164 177 159 173 169 175 177 174 168 189 183 187 191 192 172 166 187 160 193 198 202 204 208 210 212 214 211 211 208 206 189 210 222 182 173 168 176 148 168 147 134 151 154 142 154 146 144 138 122 131 124 143 125 136 142 131 120 117 117 113 142 151 112  21   4  10  14  12  16  20  22  22
  34  50  47  53  79  94  95 112 118 119 151 162 123 177 126 152 157 198 174 180 158 160 160 164 171 173 173 180 184 188 182 196 195 199 186 169 194 178 176 200 195 208 209 212 215 217 218 215 208 206 205 190 185 184 171 191 167 150 167 142 146 149 150 140 163 156 151 145 142 119 120 124 121 125 132 123 107 112 117 112 156 164 135  58   2   8  12  16  13  16  21  20
  42  58  53  57  84  99 106 114 141 119 131 143 128 133 137 135 141 168 175 180 158 157 160 172 171 168 176 186 185 181 191 193 202 194 198 182 176 178 158 183 195 204 210 211 212 208 207 208 201 216 207 189 172 184 196 210 165 146 158 154 142 155 153 165 165 163 152 156 154 132 125 120 139 123 123 125  94 102 116 132 164 139 150  67   8   7   7  13  11  16  16  16
  48  60  54  61  90 108 116 110 151 121 115 134 131 111 128 139 124 183 184 160 170 157 162 181 181 172 183 184 184 187 183 197 197 201 203 211 191 172 167 174 206 207 210 209 212 211 201 212 215 213 209 184 173 185 200 203 167 162 154 146 144 153 159 160 167 160 161 150 150 139 127 127 133 142 125 123  92 113 127 156 176 140 144 143  38  14   9   6  11  14  12  14
  53  65  59  68  96 101 114 111 140 122 115 156 120 140 133 133 174 165 177 163 156 158 175 176 176 183 186 186 185 184 183 197 197 216 207 193 203 212 212 212 205 209 214 210 209 211 212 212 211 207 204 202 189 178 193 193 168 146 153 150 154 169 162 193 184 176 168 172 158 145 127 118 115 161 155 130 100 145 140 181 181 125 144 166  62   6   4   5   8  12   9  14
  57  67  62  70  94 108 119 141 132 144 134 154 155 143 124 166 169 170 155 157 158 168 169 178 176 176 184 182 189 186 190 195 205 210 203 213 209 205 208 208 209 204 202 211 214 212 212 214 210 206 211 206 192 174 189 181 166 147 171 159 176 177 177 183 185 178 178 177 176 170 145 145 130 133 171 167 140 144 165 173 168 151 143 181  90  11   4   5   6   7   9  11
  57  72  64  71  98 102 107 140 149 143 159 146 161 129 153 141 171 179 172 159 157 163 168 174 174 179 181 188 189 193 196 197 212 194 206 209 205 206 207 209 205 210 217 209 210 220 214 213 211 206 210 211 193 169 173 163 149 165 187 187 183 189 188 181 184 185 183 183 176 172 157 147 149 134 151 158 158 159 181 175 170 156 124 164 133   1   4   6   5   7  10  10
  60  70  68  78 102 103 102 158 160 142 164 154 139 150 150 153 159 146 152 159 161 167 168 174 179 182 183 191 191 190 193 195 201 203 202 212 211 207 204 209 212 211 214 214 215 213 215 213 210 209 206 206 176 157 168 163 156 181 206 192 193 192 186 190 181 178 179 180 180 173 159 160 155 152 146 147 153 151 164 166 138 175 121 122 145   1   3   3   2   5   7  10
  59  76  70  79  96 100  93 149 157 139 163 135 142 142 125 132 132 135 153 166 162 172 177 180 182 180 184 189 191 190 193 192 190 194 204 206 204 209 210 211 211 205 209 214 213 217 215 213 215 213 208 193 167 161 171 164 155 179 197 196 201 188 187 187 185 178 175 176 169 169 162 157 154 139 155 140 160 157 139 174 146 141 134 106 158   6   3   3   5   3   7  10
  64  77  74  69  85  97 105 139 147 132 141 129 158 131 128 135 110 143 151 173 167 172 172 178 184 188 181 187 190 188 193 194 196 193 200 202 204 209 208 210 214 208 211 212 212 213 211 210 211 215 207 193 186 203 180 166 171 195 193 197 190 190 179 186 182 190 179 187 180 167 166 162 149 135 148 147 156 168 137 146 144 105 147 100 168  29   1   0   3   4   5   8
  77  84  72  68  86  96  99 129 125 138 118 141 157 135 135 102 125 144 160 167 171 169 175 173 185 178 180 183 187 187 190 193 192 201 197 202 201 205 202 203 204 203 209 205 211 205 212 215 209 211 211 206 201 204 191 202 183 194 193 196 188 188 187 177 184 182 185 181 182 167 158 160 142 138 122 152 134 187 175 142 133 108 129 105 167  54   0   1   2   2   5   7
  74  83  75  69  85 102 100 120 111 119 126 147 152 146 159 103 121 152 164 169 172 175 177 180 183 182 183 184 185 189 196 197 189 193 201 201 198 200 197 200 199 202 201 203 209 206 208 206 205 213 207 204 199 200 204 198 197 193 192 192 201 193 186 174 172 179 187 183 174 160 156 165 150 122 108 166 124 163 177 156 144 110 128 110 151  95   0   1   1   3   3   5
  82  88  80  69  89 106 109 116 120 130 126 149 139 144 177 107 125 153 163 174 175 168 176 184 183 185 183 186 188 188 193 194 191 197 198 193 202 198 198 195 195 198 199 202 205 203 206 208 203 201 205 206 204 204 199 201 198 197 196 196 177 185 197 188 178 171 176 171 170 161 166 164 147 125 107 162  84 165 159 178 140 119 103 113 122  72   0   1   1   1   3   4
  83  85  82  71  88 100  99 124 128 150 126 144 167 162 173 133 133 154 166 175 178 169 176 181 183 183 183 186 188 189 195 192 197 198 205 203 201 200 199 197 197 200 196 201 203 205 209 208 208 198 205 203 208 197 204 198 205 201 195 190 193 191 185 181 189 184 183 177 167 152 157 166 149 132  99 150 116 175 176 160 163 130 102 114 103  83   0   0   0   1   2   1
  80  86  82  76  91 101  91 141 151 141 134 147 171 156 155 167 130 152 165 175 171 169 174 174 182 182 189 189 187 189 190 196 199 201 201 203 203 205 200 201 196 203 200 199 202 204 205 201 206 213 207 205 205 207 204 205 202 202 199 194 193 189 189 192 184 191 181 173 165 151 166 159 158 130 105 164 122 190 175 143 121 149 116 110  91  78   0   1   1   1   1   0
  81  88  85  76  90 102  99 169 143 157 132 146 148 149 175 154 128 138 155 167 174 170 169 183 188 181 185 186 189 186 194 196 195 199 203 204 210 211 211 207 207 202 201 203 202 205 207 210 213 214 204 208 210 217 208 204 205 203 200 191 193 193 191 189 186 187 182 175 165 155 163 153 140 121 107 164 114 192 183 147 119 122 125 118  76  54   0   1   1   1   1   1
  77  85  89  73  88 107 102 156 148 145 134 140 137 135 154 135 110 133 155 164 170 172 176 178 176 180 184 183 181 184 191 189 199 198 204 205 215 217 221 216 211 211 206 203 203 210 214 217 203 210 216 212 217 209 206 200 205 202 199 196 191 189 190 186 180 177 179 181 165 155 157 149 140 118 114 144 121 159 193 130 129 112 119  80 105  42   0   1   1   3   1   1
  78  86  95  78  90 110 104 127 150 136 119 122 172 125 137 118 120 125 158 163 161 175 171 174 170 174 159 167 176 175 179 189 190 191 201 196 214 213 222 220 220 211 207 211 211 211 210 209 208 219 218 219 209 210 207 206 197 206 194 185 183 178 178 169 173 164 168 178 169 150 147 149 128 117 101  96  56 123 184 144 111 111 101 100  97  24   9   2   1   1   0   1
  76  87  91  74  90 106 106 100 159 139 119 121 151 130 142 120 122 124 154 161 166 167 159 152 140 154 153 144 141 135 147 138 161 166 150 175 185 205 209 216 214 216 210 212 211 211 211 215 217 218 217 209 214 199 186 171 170 148 143 151 137 143 139 135 146 136 146 149 160 162 144 144 131 121 149  80  64  95 162 165 113 107  99  75  82   4   4   0   0   0   1   1
  78  84  87  75  86 108 105 102 158 146 111 124 148 150 125 140 124 135 142 162 141 108 108 104 124 123 112 119  87 119 118 132 136 130 153 140 177 183 186 209 207 210 209 216 208 218 213 202 211 209 211 210 201 185 168 171 137 138 132 114 105 105 108 118 119 127 114 106 112 132 126 148 131 108 123  84  66 103 150 172  93  89  80  86  65   5   2   0   0   0   0   1
  79  83  91  80  87 109 104  96 150 159 119 112 150 128 161 144 129 130 137 123 110 113 120 127 115 127 133 121 135 125 105 106 107 103 122 139 170 157 188 190 203 199 207 205 208 204 208 205 202 205 205 196 188 176 168 158 122 124  93  84 101 108 105  93  96 118 117  99  84  93 111 105 125 114  99  90  79 119 144 164 111  78  94  85  31  18   6   0   0   0   0   1
  83  87  90  79  90 111 105 101 137 160 129 129 139 127 144 119 140 130 133 121 113 130 148 147 152 164 158 157 162 164 143 121 125 130 131 135 148 143 178 181 189 190 199 202 197 203 202 196 202 198 194 189 189 172 140 156 126 105 116 130 139 151 162 154 162 160 143 146 135 114 100  92 118 110  83 127 134 127 141 149 113  84  83  98  27   1   1   0   0   0   0   0
  86  89  86  74  87 110 109 104 134 155 151 112 130 117 117 128 134 122 129 134 119 145 159 156 151 158 166 155 162 170 166 170 170 154 154 153 150 159 159 177 178 188 185 192 197 200 202 202 193 189 187 183 174 155 161 148 148 158 159 167 181 180 182 172 169 166 157 157 143 137 118 103 119 113  88  97  87 158 180 141 130  89  85  84  25   9   0   0   0   0   0   1
  88  94  90  77  92 112 112 104 130 141 135 110 115 121  92  83 113 122 121 135 133 139 147 149 149 155 157 167 170 175 178 184 187 177 177 165 155 153 149 162 169 180 183 188 194 202 200 196 190 181 178 170 156 147 142 156 160 177 187 188 181 186 172 175 169 162 159 148 136 134 113 118 118 111 101 109 103 114 150 155 123 107  91  55  31  23   1   0   0   0   0   1
  84  90  92  88  91 113 108 102 130 137 136 153 108  81  50  97 126 116 123 138 141 139 150 142 147 159 159 157 166 168 175 173 180 185 188 187 177 167 157 151 153 161 174 182 189 199 202 190 185 172 167 155 151 158 163 163 170 160 151 152 161 162 165 145 151 135 153 151 135 125 121 116 126 109 112  97 104 107 156 109 127 116 131 112  20  12   1   0   0   0   0   1
  83  89  96  86  88 111 109 100 132 125 133 114 133  71 109 113 135 120 127 132 137 142 145 141 143 127 130 150 166 172 187 180 173 159 155 157 176 178 177 173 166 159 167 183 188 199 210 196 181 183 155 149 154 160 159 162 140 170 184 181 183 178 160 166 184 177 167 120 144 133 128 119 121 117 121 107  91 141 157 116  74  83  75  39   6   9   2   0   0   0   0   0
  85  89  99  89  90 109 101  98 114 133 143 119 118  88 115 124 133 127 127 133 131 146 143 137 115 160 164 115  75  59  55  62  91 158 171 167 155 177 181 171 169 168 161 173 185 194 205 188 183 166 140 159 156 163 161 161 181 170 138  71  66  40  51  56  73 102 146 155 143 141 134 117 128 118 123  95  92 169 151  88  79  93 103  17   4   5   1   0   0   0   0   0
  90  91  91  82  87 101  95 103 110 141 156 165 153  80  86 128 120 153 133 144 133 131 142 141 122 103  79 152  93  95  61  48 107 111 132 146 159 178 164 181 180 163 165 158 182 189 192 185 183 147 142 155 159 162 172 164 137 165 182  82  62  97  77  89 146 111  66 102 142 148 131 118 135 125 138  93 105 180 113  81  98  56 103  27   3   1   0   0   0   0   1   1
  91  87  83  77  89 102  98  99 106 112 108 151 160  78  87 114 155 164 153 140 131 140 143 140 102  84 154 181  87 122  34  55 136 165 204 174 138 134 178 196 188 175 163 152 174 183 184 183 171 147 157 169 194 189 150 145 165 197 211 123 133  90 112  67 171 158 125  93 100 126 134 127 139 123 133  90 109 163  84  86 106  50 111   3   1   0   0   0   0   0   0   1
  85  84  79  83  84  99  98  98 104 106 134 149 145 118  86 106 145 164 149 145 140 146 141 140 131 139 146 180 161  99 112 131  85 181 155 152 146 152 176 199 202 158 161 157 175 178 182 174 172 149 153 165 197 189 179 170 161 157 165 161 132 108  89 139 161 139 141 125 144 139 141 137 135 128 135  77 121 137  71 103  56 124 129   0   3   0   0   0   0   0   1   1
  82  83  84  84  80  93  94  97 108 108 116 162 137 125 107 113  98 163 141 150 151 152 156 161 149 136 142 143 148 129 144 170 167 164 183 161 173 187 197 193 167 156 164 160 167 169 181 168 171 159 140 152 174 190 190 179 174 168 176 171 184 167 171 120 143 151 140 136 152 159 153 154 146 128 127  99 130  99  67 107  76 159  97   0   1   0   0   0   1   1   1   1
  88  83  88  86  79  93  95  98 106 109 105 156 144 155 119 148  99 134 148 146 156 163 167 162 159 146 147 153 169 168 178 164 184 168 171 168 178 175 185 186 162 160 163 157 159 170 172 172 168 161 145 142 156 178 189 185 182 171 174 185 181 179 180 165 159 151 139 154 165 160 163 163 148 138 132  99 130  70  97  93 133 158  98   1   4   0   0   0   0   0   1   1
  89  79  84  86  85  94  97 100 106 105  89 164 150 161 152 176 122 130 144 149 160 169 170 171 166 158 151 160 156 163 169 164 170 176 189 181 188 185 189 170 169 166 163 158 157 170 171 166 174 164 152 144 148 157 181 197 191 194 192 185 172 165 167 167 158 157 165 162 163 166 169 165 157 139 133  93 148  69  92 164 141 162  82   2   2   0   0   1   1   1   1   0
  80  72  81  84  83  92  98 106 112 105  93 162 141 186 157 192 123 133 140 156 169 170 170 170 170 167 167 162 172 163 174 175 188 192 192 183 190 192 181 179 172 171 165 161 156 166 181 178 177 166 156 147 152 158 163 186 205 199 190 194 192 192 189 175 171 174 178 170 171 172 166 171 161 153 130  93 151  66  83 174 133 177  32   1   2   1   2   1   1   1   1   2
  68  73  77  83  80  87 102 111 117 107  90 144 148 188 163 167 122 123 143 157 166 169 179 167 172 174 166 178 181 180 184 184 192 201 196 196 197 186 181 178 169 174 168 159 161 170 177 174 172 168 154 150 152 167 167 175 190 202 197 195 186 186 179 175 173 174 180 175 172 171 176 161 162 147 135  96 150  80 114 181 138 176   2   7   1   2   3   1   1   1   2   2
  66  68  76  82  79  87 102 116 118 106  98 112 169 176 154 146 108 134 136 154 170 173 172 174 176 180 182 179 178 182 188 187 202 194 190 203 196 180 183 172 176 172 163 156 162 169 175 174 175 168 155 154 152 156 167 182 186 193 201 198 190 188 187 182 182 179 181 178 177 177 175 169 160 143 130 109 114 112 132 179 154 136   0   1   4   1   1   1   3   4   3   1
  69  64  74  81  77  83 101 115 117 106  96  77 172 172 169 134 101 123 137 149 164 168 176 179 179 177 179 179 182 186 190 188 189 194 201 192 189 184 173 179 177 164 157 151 160 165 174 178 174 167 155 154 160 161 165 177 185 187 192 197 198 196 191 185 185 180 184 181 179 179 179 176 160 136 136 133  97  88  99 191 162  62   0   0   1   1   3   3   4   2   3   3
  68  57  72  79  78  82  98 110 116 107  96  89 118 184 185 124  93 125 131 141 160 177 177 187 185 183 181 184 184 175 184 196 197 196 190 189 189 182 176 174 176 164 154 154 155 171 173 170 168 167 157 151 165 158 161 178 182 186 189 186 190 191 188 184 186 185 183 184 180 180 178 175 149 129 121 123 103  70 133 189 151   0   0   0   0   0   3   3   3   5   3   3
  62  62  66  73  75  81  98 109 115 109  99  83  83 199 197 155  87 121 133 139 155 176 177 182 187 189 187 184 185 198 194 192 193 191 186 188 184 184 179 175 175 164 151 156 159 170 173 178 181 174 168 151 157 161 157 178 177 185 191 191 190 192 192 178 186 184 189 187 185 189 180 163 151 135 108 115  97  81 146 168 109   0   2   0   0   0   0   1   2   5   3   2
  62  61  66  71  75  77  92 105 115 111  99  95  73 176 187 149 114 120 123 135 150 167 173 182 189 188 186 193 193 186 186 196 190 189 189 189 182 185 183 178 171 161 149 154 167 181 183 185 184 182 175 170 148 148 152 171 184 185 184 189 190 188 186 189 187 185 187 185 183 184 172 163 144 118  95 112  60  64 113 179  80   1   0   0   0   0   0   0   1   1   3   3
  63  63  66  68  74  80  91  99 107 109 102  93  89 160 175 153 127 103 132 132 150 159 171 177 188 189 189 191 196 195 189 188 194 186 185 190 189 183 182 177 159 153 152 166 170 182 190 193 195 182 173 178 147 149 147 160 182 187 185 187 186 188 190 188 188 185 185 184 184 180 167 155 134 120  88  93  73  87 147 162  28   1   0   0   0   0   0   0   0   0   1   1
  62  61  59  66  72  83  95  94 101 105 102  98  95 117 175 133 111 140 128 131 138 156 168 173 181 183 188 190 190 192 190 180 193 191 188 188 190 189 179 173 154 157 168 178 180 193 209 222 216 198 179 169 156 158 158 143 169 187 189 190 190 189 188 190 188 192 187 185 182 179 166 154 134 115  97  63  60 135 148 133  16   1   0   0   0   1   0   0   0   0   0   0
  56  58  61  67  74  83  96  83  92  98  98  94 104  99 157 151 105 128  93 119 133 151 158 173 182 181 186 188 190 196 190 193 191 190 193 187 187 185 187 157 166 175 170 160 161 175 184 193 201 188 162 152 144 144 146 154 147 189 192 190 193 185 192 195 191 188 185 182 184 169 162 143 134 117  96  84 164 187 141 162   0   0   0   0   0   0   0   0   0   0   0   0
  65  57  60  67  73  80  89  80  78  81  85  94 110  97 142 148 129  86  97 110 127 139 158 164 175 181 186 187 191 193 189 197 188 195 187 182 195 182 180 161 161 160 157 154 148 148 160 167 177 165 145 135 122 101 137 149 141 172 189 194 192 193 192 192 186 192 184 180 177 167 161 141 132  96  98  81 181 175 167 107   0   0   0   0   0   0   0   0   0   0   0   0
  57  54  56  61  73  76  81  75  63  59  67  82 100 102 142 143 169 120  87 100 112 135 150 154 164 177 182 188 183 189 189 187 194 191 190 190 198 189 177 154 159 115  74  65  73 138 150 153 153 142 118  25  57 114 127 147 138 155 186 198 193 190 191 192 191 186 189 180 170 164 148 138 130  96  97  78 176 186 171  64   0   0   0   0   0   0   0   0   0   0   0   0
  63  56  51  58  64  70  74  71  61  45  43  63  91  94 120 169 173 157 113  93 112 126 144 150 162 169 179 182 182 191 190 191 191 193 194 197 188 188 176 146 154 135 174 116 102 119 116 126 131 121  83  92 143 179 155 157 126 173 184 200 196 191 192 189 187 186 182 176 172 158 150 135 118  98  90  97 178 181 178  49   0   0   0   0   0   0   0   0   0   0   0   0
  63  59  56  59  68  67  65  67  68  51  32  46  68  82 100 174 190 177 164  89 109 127 136 146 159 169 177 179 179 191 188 189 185 188 194 191 192 186 185 145 152 160 183 171 160 166 150 125 120 123 141 164 159 177 163 137 144 191 182 192 206 195 189 188 185 184 182 176 168 154 144 130 116  99  85 115 182 183 176   3   0   0   0   0   0   0   0   0   0   0   0   0
  56  62  65  56  68  61  63  68  69  56  26  21  42  62  70 165 185 184 182  89 116 120 133 149 154 162 170 172 184 184 188 190 183 192 191 194 192 184 176 179 139 152 176 175 180 181 174 168 145 161 174 182 169 155 147 172 184 181 187 182 195 196 196 186 181 177 171 172 173 152 137 125 111 106  86 114 182 167 118   4   0   0   0   0   0   0   0   0   0   0   0   0
  54  56  62  57  69  62  58  75  70  54  26  10  17  38  51 102 184 190 189  86 118 130 129 143 154 162 172 176 182 184 189 178 183 188 191 190 182 180 181 183 176 163 174 176 176 186 194 196 186 183 183 174 174 175 178 177 183 176 181 179 176 195 196 201 175 163 175 168 165 148 137 118 116 107  77  97 172 153   9   1   0   0   0   0   0   0   0   0   0   0   0   0
  56  51  51  60  63  56  62  77  75  56  29  12   5  18  28   9 153 180 187 116 120 128 137 139 154 153 171 174 177 182 179 184 184 181 188 182 180 179 179 183 177 181 175 167 175 184 179 181 187 182 184 180 172 160 161 170 172 183 172 183 178 177 183 196 180 138 176 165 161 149 129 114 111 115  88  70  88  15   2   0   0   0   0   0   0   0   0   0   0   0   0   0
  54  56  50  58  61  55  61  78  74  53  30  15   0   4   5   8   6 122 160 134 112 133 138 136 139 155 164 175 177 181 182 179 184 185 174 176 179 178 176 169 174 174 169 157 164 184 176 174 181 179 180 174 162 158 156 155 167 161 185 168 181 175 173 169 176 169 165 155 151 148 125 100 118 120  82  13   3   0   0   0   0   0   0   0   0   0   0   0   0   0   0   0
  48  56  56  69  66  59  69  81  73  51  28  14   9   0   0   1  14   1   3  56 116 131 140 136 130 149 160 172 175 176 184 184 181 178 171 176 171 174 174 176 163 160 163 166 167 176 181 185 179 184 184 182 165 166 160 160 161 161 162 159 160 173 163 170 171 177 161 168 148 144 108 103 118 137 100   1   1   0   0   0   0   0   0   0   0   0   0   0   0   0   0   0
  53  60  63  75  75  73  75  80  72  45  23  20  11   1   0   3   0   2   5  24 123 131 131 130 132 136 150 169 170 176 180 185 175 170 174 169 169 177 170 170 161 169 158 171 178 187 179 179 178 188 180 168 176 165 156 157 161 155 163 161 163 165 160 170 135 154 170 159 139 136 104 108 142 130  90   2   1   1   0   0   0   0   0   0   0   0   0   0   0   0   0   0
  58  63  63  66  76  83  73  70  63  44  25  24  20   0   0   0   0   0   0  26 115 134 140 124 123 135 146 156 165 174 174 174 158 165 175 164 162 173 163 170 169 169 169 174 178 181 176 171 162 168 174 184 174 162 167 168 165 170 166 170 159 162 174 159 163 154 153 152 134 128  98 114 138 136 110  17   1   0   0   0   0   0   0   0   0   0   0   0   0   0   0   0
  60  65  64  60  73  87  71  56  51  41  28  30  22   3   0   0   0   0   0  19 118 132 143 131 120 126 142 150 160 171 168 160 163 161 175 173 179 169 178 172 170 169 175 174 172 168 175 170 175 166 153 139 139 139 146 142 140 140 158 155 169 172 160 157 160 146 152 150 125 123  99 117 143 137 108  19   2   2   3   0   0   0   0   0   0   0   0   0   0   0   0   0
  60  66  69  65  68  73  60  45  47  35  24  25  20   3   2   0   1   0   1  12 107 132 143 140 123 130 141 144 158 159 163 159 163 168 179 169 166 175 165 171 163 156 154 149 151 153 149 150 133 141 126 139 137 145 139 130 130 122 106 143 166 163 172 156 155 145 143 149 121 117 118 117 138 132 108  25  14  10  14   4   0   0   0   0   0   0   0   0   0   0   0   0
  65  65  66  68  59  68  53  39  40  37  23  25  21   9   5   0   5   0   5   2 107 134 145 148 130 121 137 142 148 151 163 163 156 166 173 181 169 164 162 150 140 137 127 133 129 128 123 123 102 101  97  91 105 101  92 127 121 122 113  78 110 148 159 157 161 142 143 142 132 122 102 123 140 125 105  37  12  16  10   7   0   0   0   0   0   0   0   0   0   0   0   0
  62  59  60  53  50  56  52  33  32  30  13  22  21   9   6   7   9   1   1   4  72 128 142 151 139 126 136 133 145 145 151 156 153 171 173 170 153 147 118 111 120  98 116 107 107 119 125 113 117 125 118 126 129 126 135 121 102  95 104 125 154 162 164 165 164 150 145 138 133 127 113 123 128 119  91  11  18  14  13   5   0   0   0   0   0   0   0   0   0   0   1   1
  55  55  52  36  38  53  52  33  28  25  11  16  15   5   5   7  11   1   0   1  16 119 141 152 144 141 138 143 147 150 150 151 162 169 162 140 124  97 100  91 105 129 140 139 146 149 141 137 146 151 148 150 144 143 139 139 141 153 147 157 164 169 172 171 164 156 143 139 128 129 113 110 124 120  75  10  15  13   7   0   0   0   0   0   0   0   0   0   0   0   1   1
  51  49  40  33  39  46  45  25  21  14  11   7  16   4   5  12   8   0   0   2   0  99 134 147 145 135 141 146 144 148 150 151 159 170 173 177 176 176 162 142 147 141 141 150 155 161 157 157 165 151 178 158 169 168 169 168 156 152 156 160 166 162 165 169 156 154 138 137 126 117 111 104 126  82  44   9  11   5   3   0   0   0   0   0   0   0   0   0   0   0   1   1
  44  40  39  31  35  40  35  18  19  10  15  14  23   6   6   8   7   0   0   1   2  73 128 138 151 132 130 143 141 142 157 155 163 168 170 169 168 171 172 171 160 162 174 166 171 161 163 161 157 154 155 160 162 162 163 156 158 157 170 159 158 162 158 161 157 148 144 131 130 107 110 109  96  76   4   2   0   0   0   0   0   0   0   0   0   0   0   0   0   0   1   1
  36  40  34  32  29  37  26  24  14  12  16  15  24   7   0   6   7   0   0   0   7   4 100 130 139 136 142 140 142 141 157 158 162 173 162 163 169 169 171 174 174 172 170 167 167 160 165 163 166 172 166 169 168 170 172 163 156 156 153 154 155 159 159 159 150 139 138 128 121 114  98 101  68  31   4   0   0   0   0   0   0   0   0   0   0   0   0   0   0   0   0   0
  34  38  24  20  23  36  24  20  15   7   7  10  23  11   0   4   9   0   0   0   0   1  67 102 133 123 138 135 142 137 151 160 166 165 160 162 171 166 168 171 173 168 169 171 167 171 168 167 177 172 176 173 165 172 165 158 151 164 154 158 157 154 158 154 149 144 140 132 116 115  99  80  66  20   0   3   0   0   0   0   0   0   0   0   0   0   0   0   0   0   0   0
  32  29  13  10  15  27  16  10  17   5   3  14  23  10   1   5   3   1   0   0   0   0   0  83 115 137 132 131 139 143 150 156 154 159 166 164 163 164 166 164 172 171 170 166 171 173 173 174 169 174 163 164 170 163 165 159 164 158 146 151 154 154 159 146 147 138 123 115 106 113  98  69  64  33   0   0   0   0   0   0   0   0   0   0   0   0   0   0   0   0   0   0
  32  20  11  14  17  21  13  11  12   6   1  11  21  10   0   3   0   1   0   1   1   0   2  23  98 124 132 129 130 143 141 144 156 155 161 160 155 161 158 164 165 167 171 167 177 172 172 174 170 175 167 166 168 167 162 163 162 159 160 156 158 149 152 146 140 133 113 113 117 104  76  60  66  44   1   0   0   0   0   0   0   0   0   0   0   0   0   0   0   0   0   0
  20  30  18  14  19  19   6  11  17   9   0   8  18   3   1   1   0   0   0   0   0   0   0   0  29 108 120 130 135 131 134 143 147 152 164 162 159 160 158 164 163 163 169 171 176 179 175 174 170 168 163 166 177 179 159 174 164 164 167 166 160 155 152 149 144 135 114 108 115  93  63  55  91  70   1   2   0   1   0   0   0   0   0   0   0   0   0   0   0   0   0   0
  32  40  20   8  14   6   5  13  20   9   0  10  13   8   7   0   0   0   0   0   0   0   0   1   1  45 104 124 125 130 135 139 147 153 153 152 160 158 153 168 163 174 179 180 181 190 189 184 175 171 182 184 174 175 177 179 178 165 167 164 166 163 157 148 135 124 109 104 111  62  55  75 126  86   6   1   0   0   0   0   0   0   0   0   0   0   0   0   0   0   0   0
  38  39  17   9  10   1   0  18  22   9   3  11  14   6   9   2   1   0   0   0   0   0   0   0   1  28  55  98 123 126 119 133 151 150 156 159 157 163 165 161 174 171 179 182 181 182 184 185 188 191 190 182 180 177 173 168 177 176 165 167 164 156 150 134 140 117 100  98  67  61  62 112 130  97   2   2   0   0   0   0   0   0   0   0   0   0   0   0   0   0   0   0
  32  31  13   5   4   0   1   8  15   8   0   0   6   6   6   0   1   0   0   0   0   0   0   0   4   9 123  70  95 110 126 123 144 146 160 160 150 168 166 166 176 181 183 184 180 181 186 193 195 192 191 188 186 180 175 171 174 173 163 165 155 160 137 142 110 104  97  67  55  65 103 132 130 102   4  15   7   4   0   0   0   0   0   0   0   1   1   1   0   0   0   0
  34  23  13   2   0   0   0   0   7  16   5   2   3   0   0   0   0   0   0   0   0   2   3   0   1   1 121 120  66  87 103 111 128 142 147 155 162 165 170 173 167 181 178 177 175 183 195 193 193 192 193 196 184 184 178 174 170 165 155 160 148 143 145 118 107 100  76  56  58 103 137 136 133 105 124  11  16   8   5   3   1   0   0   0   0   1   1   2   1   1   0   0
  33  22   8   1  10   6   0   4   9  28  28  26  22  12   4   0   0   1   4  12  20  19  14   8   2   0 105 137 133  70  68  97 118 134 134 150 155 158 167 166 177 173 173 175 184 188 195 196 194 188 184 187 187 182 177 179 173 161 152 158 145 137 135 121 101  72  53  60 101 140 145 139 133 102 196  50  21  11   8   3   1   0   0   1   0   1   1   1   1   1   0   0
  37  13   2   4  14   5   3  27  32  40  49  49  39  31  30  20  19  16  18  21  26  26  23  12   2   4  82 132 144 138  69  63  86 115 125 124 132 139 151 165 172 177 173 182 182 180 196 183 183 176 171 175 187 182 177 166 155 155 150 141 132 136 125  97  71  48  62 105 137 151 145 142 133 118 187 178  20  22   7   6   1   0   0   1   1   1   1   1   1   1   1   1
  20   8   1   5  15   9  16  38  47  52  57  61  56  58  56  50  44  33  32  32  34  33  25   8   0   0  51 128 143 148 140  94  61  73 106 127 129 133 133 173 158 156 156 171 179 180 179 179 176 181 172 172 172 164 168 155 147 134 148 122 112 108  94  81  74  65 107 140 146 150 146 148 133 117 169 213  58  24  31  11   2   0   1   1   1   1   1   1   1   1   1   1
  18   4  11  20  15  11  22  40  50  50  62  74  67  68  68  66  61  51  48  46  39  26  13   4   3   2  39 121 142 152 150 144 113  72  70  79  99 144 119 149 158 148 155 156 162 169 166 170 171 171 162 164 164 158 145 147 137 132 120 114 133 101  84  57  58  94 139 148 155 156 152 139 140 120 165 226 153  11  32  37   4   0   2   0   1   1   1   1   1   1   1   0
  26  21  27  28   7  11  29  45  47  44  60  77  80  80  77  75  72  61  54  45  28  19   6   1   2   4  23 125 144 150 146 154 139 117  77  62  86 102 118 113 139 134 136 159 144 153 150 162 152 163 150 147 153 141 124 124 124 104  94 105  87  78  58  57  80 134 145 155 165 161 148 146 137 129 154 228 194  46  24  33  36  11   1   2   1   2   1   0   1   1   1   0
  35  31  29  30  13  14  30  49  55  43  43  59  77  78  79  78  72  56  43  30  12   3   0   0   0   0   0 121 137 151 155 162 146 142 138  93  47  66  96 106 118 120 131 140 136 145 151 136 146 133 132 168 138 128 120 125 116  94  95  71  57  50  61  76 119 146 158 158 160 155 148 149 142 135 145 229 198 118  25  26  37  36  26   2   0   1   0   0   0   0   1   0
  26  30  32  30  15  20  32  51  59  52  35  41  60  67  71  65  58  38  29  17   8   0   0   0   3   1  73 120 141 147 150 155 152 150 145 143 127  80  54  77  74  75 135 125 123 118 130 135 110 130 106  87  60  70  63  63  40  43  43  51  57  76  91 130 147 162 162 164 158 151 151 149 141 138 150 232 213 175  21  27  29  33  35  35  14   0   1   0   0   0   0   0
  27  20  24  17  22  30  40  53  67  58  42  41  37  48  53  49  38  19   9   6   1   1   0   0   0   1 151 148 137 146 150 153 157 158 153 145 135 137 116  69  39  41  32  47  52  44  78  62  61  64  55  47  50  52  49  42  51  56  67  82  96 128 144 149 156 162 175 161 158 157 153 149 146 147 153 221 208 182  31  33  22  33  38  30  36  28   9   0   0   0   0   0
  27  16  10  12  18  30  43  53  63  66  54  47  36  36  36  28  19   8   6   2   5   0   0   0   0   2 207 160 131 148 150 156 161 168 156 160 148 150 147 131 107  83  61  50  37  50  46  49  45  57  58  54  81  95 112 132 138 146 140 148 143 140 152 152 159 164 164 157 161 160 150 153 152 153 140 237 213 189 125  20  31  22  33  35  35  30  36  29  21  10  16   5
  24   9   7   4  17  33  45  54  61  71  62  52  38  35  28  15  13   1   2   2   3   0   0   0   0   5 218 176 125 140 151 151 156 160 164 157 165 158 150 154 147 140 136 134 131 126 138 134 135 140 150 151 161 160 162 166 164 155 151 160 151 148 152 152 161 168 165 162 164 163 158 157 151 156 156 228 210 189 171  28  36  27  28  35  36  31  31  26  30  22  18  20
  16   5   6   4  17  26  42  54  63  71  66  55  43  37  27  14  12   4   2   4   2   0   0   0   0  13 219 196 119 140 148 154 154 160 164 168 165 172 165 166 154 150 142 151 157 162 160 170 167 164 163 164 169 172 175 166 166 164 162 155 151 149 149 159 161 165 164 165 164 160 160 153 152 152 196 234 204 193 183  89  23  36  27  29  33  31  26  34  27  24  22  23
  13   6   7   8  20  19  41  54  62  64  57  54  46  31  25  19  12   3   2   7   7   0   0   0   0  69 209 194 114 140 142 155 154 159 157 164 167 174 172 160 169 150 151 150 155 165 160 165 168 172 169 170 172 168 168 166 164 167 161 155 152 154 148 159 161 163 171 166 168 165 163 157 161 153 219 231 195 196 185 119  21  36  30  27  32  33  33  31  27  27  26  23
