P2
# Generated by OpenCV 4.2.0
92 112
255
  26  30  48  55  61  61  55  62  76  86  91  92  89  87  84  75  77  76  78  78  81  87  89  94  96  88  74  91  84  86  83  69  45  53  63  71  78  71  48  40  58  57  52  34  33  25  29  27  24  33  27  26  32  48  83  90  91  73  49  46  65  86  85  83  73  70  76  74  76  82  88  96  98  92  74  56  50  58  72  82  89  94  93  88  87  93 102  99  90  79  70  65
  32  32  48  54  60  57  49  57  71  82  89  93  92  93  87  76  74  77  81  81  83  88  91  96  93  74  72  66  54  48  52  37  33  24  25  34  48  58  38  28  42  47  54  56  34  30  23  32  42  27  25  23  20  14  21  30  56  75  72  67  72  85  93  86  78  79  74  74  78  83  89  91  88  81  62  50  53  61  67  68  72  80  87  87  92  97  96  91  75  60  47  39
  31  37  52  57  65  65  63  63  72  81  85  90  89  92  86  81  79  78  76  79  80  95  96  95  90  47  40  55  60  65  66  34  26  28  28  39  53  33  25  25  38  50  45  48  34  21  43  64  59  55  43  42  27  30  27  26  28  29  31  55  55  68  75  87  81  73  68  62  70  78  83  87  80  65  48  45  52  48  45  41  48  63  74  88  90  94  87  80  60  42  33  32
  33  39  51  60  70  75  75  76  82  86  82  82  81  83  85  88  87  82  72  74  88  91  89  82  39  53  67  70  63  61  52  53  40  50  51  56  66  57  34  59  35  35  56  57  49  61  93  70  71  63  57  45  57  62  56  65  60  45  33  27  61  62  70  73  80  72  72  71  70  75  81  78  70  57  47  45  48  42  33  31  37  53  65  85  96  92  83  72  50  31  34  45
  37  41  46  48  58  72  80  82  80  79  71  66  68  74  82  92  92  83  71  81  86  84  76  39  60  62  65  56  54  58  61  75  68  79  90 105 102  98  57  81  63  66  68  71  65  63  52  72  82  89  90  72  77  90  83  62  44  44  53  42  33  44  59  62  74  77  61  67  72  72  77  74  66  60  60  60  57  49  34  28  30  49  67  84  90  83  79  71  50  32  37  51
  51  55  56  57  67  87  85  88  83  71  57  56  62  70  79  90  88  85  74  75  35  38  15  45  52  41  39  51  89  89 100  96 104  83  85  87  79  86  67  88  72  83  77  64  38  33  53  75  57  67  57  65  50  63  68  98  76  65  54  64  39  57  32  52  52  68  92  72  70  69  75  76  72  72  78  80  78  65  49  38  36  56  80  85  77  73  78  74  57  43  33  45
  66  67  69  71  77  84  86  88  79  60  47  54  59  71  79  84  91  78  54  29  29  35  16  30  36  47  69  55  39  48  53  56  71  69  64  62  55  64  68  82  73  73  53  51  67  78  93  84  83  77  69  53  46  56  50  68  69  81  64  63  64  48  53  46  58  62  70  84  64  71  73  79  80  77  77  81  84  81  62  44  52  71  82  75  59  57  69  79  74  61  47  43
  69  68  71  77  79  84  88  82  73  54  47  57  61  62  61  72  78  46  23  42  44  27  23  32  41  54  41  34  24  40  63  73  78  70  45  48  49  89  88  76  62  58  73  90 103  91  78  66  67  79  95  99  91  87  65  68  62  54  75  49  30  49  45  46  63  52  70  57  80  70  77  74  67  61  56  60  77  77  63  57  66  76  80  60  34  34  58  68  76  78  67  51
  60  54  62  65  72  80  77  66  56  46  44  52  48  39  35  56  44  41  54  49  27  30  18  25  28  36  48  59  65  76 102 107  94  90  58  41  61  74 105  74  72  89  87  65  58  53  40  23  26  27  43  69  80  96  86  90  73  52  69  80  68  49  58  40  43  55  67  70  65  71  74  67  51  34  28  42  53  66  64  56  64  67  61  41  31  32  36  52  70  74  76  68
  59  60  58  64  72  69  71  59  46  41  49  45  30  32  27  54  27  59  32  25  31  29  25  24  32  35  31  37  48  70  72  99 110  89  91  30  63  71  77  65  74  69  40  51  30  26  39  36  30  27  35  46  62  59  83  68  70  81  59  72  71  66  44  59  41  41  65  93  58  74  68  65  43  35  33  38  52  59  59  53  62  57  42  37  45  46  37  38  53  71  76  71
  59  62  59  64  68  70  61  57  56  61  60  54  50  38  53  44  40  47  20  39  25  25  39  39  39  40  42  50  85  78  94 103  84  75  71  56  52  91  60  43  60  23  47  26  23  23  23  18  27  31  28  32  52  72  55  68  64  63  72  69  57  57  54  56  46  42  70  52  80  65  57  60  61  60  52  42  43  50  56  56  46  37  37  49  59  63  56  45  40  47  56  61
  63  63  61  62  62  68  70  70  72  80  83  74  64  46  42  37  50  30  37  20  37  49  47  47  39  41  69 103 116  98  88  83 114  57  40  44  34  58  38  47  30  33  27  21  22  19  27  22  22  34  40  37  42  50  81  55  61  73  60  79  74  74  65  62  59  46  46  56  68  81  63  42  60  66  70  56  47  45  50  40  32  38  53  61  71  73  70  59  43  33  34  36
  67  64  61  61  62  71  69  68  69  74  80  84  57  38  39  53  30  28  31  28  36  37  43  53  57  71  97 127 139 138 141  82  40  64  46  44  19  65  40  46  34  45  33  19  29  20  23  30  25  38  54  53  49  57  66  78  56  54  67  54  83  67  65  57  69  60  37  93  49  65  89  44  53  62  66  65  43  32  41  42  39  44  64  74  76  80  80  73  58  44  33  29
  72  67  65  65  66  71  67  57  51  49  68  73  74  40  53  42  32  42  31  34  32  69  99 139 139 118 115  85  91 114 106 108  83  44  36  35  27  46  43  44  44  47  46  26  37  28  21  35  30  39  76  73  53  65  77  78  76  43  49  92  58  60  85  56  64  59  61  91  45  61  85  47  42  57  79  59  49  33  43  52  46  52  69  77  78  81  81  77  64  50  38  35
  74  70  68  68  70  68  54  37  27  32  53  53  59  39  40  32  41  30  33  57  97  98 113  97  78  74  63  54  41  42  63  71  57  48  42  46  45  45  55  49  57  63  63  45  47  39  24  35  45  45  51 105  77  69  85  92  87  79  41  59 106  59  56  75  52  72  62  61  67  54  70  56  29  37  54  73  54  38  43  70  54  64  70  81  79  81  80  79  70  63  52  48
  73  69  65  69  74  69  58  38  32  40  46  51  16  26  40  28  39  46  54  68  81 109  42  33  40  41  35  39  36  32  35  31  62  50  42  43  42  54  53  61  58  85  72  57  54  46  31  27  50  54  57  73 122 107  91 100  95 102  56  43  93  89  59  81  68  61  65  35  78  38  65  62  22  37  36  53  62  41  40  82  60  71  70  83  79  81  78  81  74  71  65  60
  53  50  55  61  73  71  71  47  55  54  50  32  26  27  37  27  47  30  48  78 102  62  56  69  67  55  48  51  46  48  62  51  37  48  55  53  58  67  77  87  63  95  83  75  60  56  50  44  47  77  45  69  90 148 121  94  99 109  94  36  49 110  81  62  84  56  55  60  57  45  45  49  29  26  32  37  45  44  60  66  68  81  74  80  78  73  75  75  80  82  84  71
  40  33  43  48  64  75  77  76  52  56  21  29  24  19  26  30  20  45  47  83  75  38  33  30  43  35  29  36  40  56  53  52  55  57  58  66  64  77  86 106 106  86  82  91  88  79  90  79  69  56 102  67  82 113 163 126 114 104 117  35  51  74 143  71  85  81  51  65  58  53  45  42  34  20  28  26  39  52  68  71  67  74  85  80  69  70  67  75  83  86  85  78
  43  35  35  38  50  65  64  38  53  45  19  24  27  23  24  19  29  24  46  84  44  39  28  25  20  26  30  42  48  53  71 101  84  84  96  99 100 103 110 131 139 141 122 127 143 138 132 140 109 105  98 127 111 106 117 155 139  87  97  42  51  60 102 112  77 108  62  62  50  46  42  36  21  23  28  22  32  50  52  71  70  63  79  78  73  63  72  75  81  86  84  80
  62  54  50  46  45  47  38  35  52  27  28  29  30  26  22  18  15  34  81  62  50  43  26  25  42  30  27  48  71  99 123 133 134 146 161 176 183 182 182 187 183 172 166 168 175 182 185 181 178 161 160 162 149 151 125 116 143 121  92  51  54  97  64 107  89  95  90  56  47  44  49  18  38  40  14  26  23  25  45  52  66  46  62  72  68  71  72  80  83  80  84  84
  77  75  74  64  54  40  30  35  37  33  33  28  24  26  25  20  18  38  86  40  55  34  21  20  28  24  53 102 150 176 194 199 199 213 219 225 223 223 224 225 221 213 209 213 212 212 209 205 204 201 199 194 179 162 163 139 106 124 110  49  72 109 110  72  91  70 100  62  45  35  47  30  23  25  26  15  25  25  33  47  58  61  45  47  65  77  76  79  81  79  80  81
  72  76  80  79  74  54  35  36  39  33  35  28  24  29  26  22  25  46  77  56  34  54  20  28  27  68 145 196 213 210 217 217 222 223 224 226 227 227 227 228 227 225 224 217 217 216 222 214 218 212 208 203 188 178 156 143 135 117 120  59  62 113 109  97  73  72  87  56  53  35  42  35  18  18  29  13  19  22  25  37  42  46  39  28  46  73  81  82  75  74  73  76
  46  52  58  72  74  61  40  39  49  32  30  33  31  25  24  26  32  50  72  83  53  43  37  19  75 171 211 217 220 221 225 225 228 223 221 224 227 227 226 225 224 224 224 219 218 218 215 212 212 212 210 208 202 188 176 158 145 120 126  69  76  90 104 103  74  85  66  53  58  47  32  35  26  20  21  19   6  16  29  24  21  34  28  36  39  80  80  81  74  69  70  75
  30  28  32  51  62  55  55  28  52  35  35  40  28  30  25  26  33  54  77  65  65  40  39  67 176 213 213 218 221 222 224 226 227 223 220 224 224 224 224 223 223 223 223 221 219 218 215 215 212 210 208 205 203 195 185 168 156 139 128  80 110  80 101  90  80  88  60  58  44  61  22  43  16  17  19  23  14  14  30  38  20  27  21  26  38  79  83  86  79  70  75  77
  39  32  35  42  55  46  40  46  61  40  37  40  32  33  25  26  38  56  61  56  55  51  44 156 211 213 216 221 222 223 225 226 228 222 220 223 220 221 220 221 222 222 222 223 223 220 216 215 213 211 206 203 201 200 194 182 167 166 119 105 109 102  71  96  75  77  60  59  36  71  21  49   9  14  17  23  19   9  21  31  26  23  20  26  43  81  79  80  78  76  77  80
  50  43  51  57  58  39  25  57  63  55  32  31  35  23  23  28  21  49  65  50  69  43 122 212 208 220 217 221 224 223 224 226 228 224 220 225 222 223 223 224 225 225 226 224 223 221 216 217 214 209 206 201 200 200 197 188 177 184 102 107 127 107 103  87  82  65  69  57  42  70  31  42  11  10  17  23  29  27  26  11  20  24  27  22  40  71  69  72  71  78  82  82
  52  56  74  75  71  50  33  35  53  77  63  34  27  28  26  22  19  66  65  47  73  80 194 212 214 217 220 221 223 225 226 226 226 224 225 223 220 221 221 223 222 221 219 225 225 222 221 219 215 213 210 207 205 205 204 190 189 167 115 133 133 116 107  89  67  59  64  53  47  53  35  36  10   9  12  14  16  18  16  16  11  14  23  29  41  31  47  44  65  82  81  85
  53  70  85  89  84  64  42  31  31  43  61  59  43  30  22  13  17  51  65  47  61 170 220 214 214 217 223 223 226 226 226 226 225 225 225 225 223 224 223 224 222 220 219 223 224 224 224 220 217 214 211 208 206 209 206 198 189 148 120 155 145 134 116  99  72  62  51  66  36  45  32  28  12   5   8  15  31  29  22   9   8  14  21  24  30  39  34  31  68  82  80  82
  60  81  88  93  89  67  47  29  22  43  42  28  36  28  22  15  21  44  69  61 140 210 210 216 217 218 221 221 223 225 226 226 226 226 227 227 227 225 224 227 226 225 223 225 224 221 223 222 219 215 212 209 207 205 202 200 178 118 147 165 148 149 128 103  79  61  59  65  38  43  33  23  22   6   9  22  22  25  23  17  20  23  21  27  14  22  30  18  65  83  80  81
  64  80  90  88  92  71  42  24  25  27  40  45  36  28  20  26  33  40  65 128 191 213 213 219 220 218 222 222 226 224 227 227 228 227 228 227 229 227 225 225 224 225 225 225 221 218 219 218 216 213 212 209 210 205 199 202 170  97 165 172 160 149 136 101  76  65  68  52  50  47  35  27  33  30  26  19  22  16  23  28  39  23  22  21  17  19  20  31  73  78  82  72
  62  81  91  92  85  60  40  16  22  32  50  50  28  24  24  21  18  45 113 193 209 207 216 219 219 218 218 220 223 224 227 227 229 227 227 228 229 226 225 228 228 228 228 225 222 220 219 218 216 214 213 211 210 208 204 199 135 105 182 170 165 160 145 121  84  79  57  58  36  40  25  23  34  29  24  21  17  17  18  21  19  19  29  21  17  18  24  48  52  65  73  63
  70  84  91  88  76  56  46  36  42  47  58  60  48  53  52  67 102 137 198 198 207 217 209 218 219 218 220 222 222 225 227 227 229 231 231 230 229 226 225 225 225 225 224 228 225 220 218 218 216 215 214 213 211 206 204 192  79 153 193 176 173 164 141 128  96  88  50  58  28  44  32  26  36  31  24  20  15  18  15  16  13  24  26  22  23  29  41  54  41  54  60  47
  78  88  89  78  69  51  37  42  51  58  61  59  68  81 104 144 197 205 199 206 212 213 213 218 218 219 222 224 225 225 227 228 228 230 233 229 230 227 227 227 226 229 229 226 224 221 219 218 216 216 214 213 212 201 201 182  54 199 193 179 177 168 127 102 114  81  49  48  34  45  35  27  28  30  27  17  14  14  12  15  17  24  20  26  34  36  34  37  38  52  49  33
  82  91  88  65  56  39  39  43  50  50  43  58  78 126 142 182 203 204 204 204 213 214 220 219 220 222 222 223 224 227 228 230 231 233 236 232 231 229 229 226 226 227 228 224 224 222 219 217 214 213 211 211 208 201 202 157  66 204 196 180 179 172  96 102 116  80  48  43  36  48  56  21   9  31  22  26  24  17  13  15  18  21  24  35  26  13  18  23  32  42  42  31
  87  90  84  54  37  24  30  31  32  34  42  58  67 140 130 181 201 199 208 201 213 217 222 221 222 223 224 225 226 228 230 230 233 230 229 229 231 229 229 223 222 225 226 225 224 222 222 220 217 212 211 208 207 206 205 130 110 197 195 185 183 171  65 104 115  72  47  36  37  53  55  19  61  29  31  20  24  15  11  14  18  21  24  16  21  28  29  37  39  27  36  34
  91  91  82  48  28  17  24  27  32  41  48  41 127 116 149 185 201 194 211 205 219 217 219 221 224 225 224 227 228 230 232 233 233 234 230 234 231 230 229 223 222 223 225 225 223 221 223 221 216 215 213 213 212 210 203 124 155 189 184 195 181 170  62 115 112  58  45  33  36  44  43  25  83  48  30  30  23  19  19  16  17  20  23  22  23  33  34  43  39  26  43  49
  95  90  85  54  18  26  25  29  35  36  38  66 110 109 159 166 173 196 204 211 215 215 217 223 223 221 227 226 226 228 230 233 235 234 232 231 231 229 226 226 226 226 226 225 226 225 221 220 218 217 214 211 208 204 204 115 175 197 200 189 187 182  70 116 100  61  41  30  38  62  49  33  28  76  45  25  22  19  21  18  29  30  19  21  23  34  40  41  28  37  47  63
  97  90  82  59  23  22  27  27  30  31  31  74  74 113 136 139 177 200 208 213 217 217 219 219 221 223 226 227 227 227 230 233 236 233 232 230 228 227 226 226 226 226 226 226 225 225 221 221 220 220 216 214 212 208 199 122 186 194 194 192 187 181  79  97  85  58  40  31  34  52  50  39  30  47  68  37  28  24  26  27  29  26  20  30  26  33  42  43  37  39  53  79
  88  80  69  52  23  23  27  26  22  24  34  62  60  93 105 139 181 202 210 216 217 219 220 219 223 226 225 228 227 227 230 233 235 233 232 230 226 225 224 225 226 225 226 226 226 226 224 223 222 221 218 216 215 216 205 149 186 202 190 192 189 179  90  78  70  55  37  32  30  59  65  52  30  31  29  30  28  25  27  25  19  21  26  27  25  33  28  28  28  36  49  73
  84  71  64  47  23  20  23  22  15  19  37  44  44  68  90 146 178 201 209 215 218 218 221 221 222 223 225 227 229 229 231 232 233 232 232 229 227 226 225 225 226 226 226 226 226 227 229 225 221 221 219 216 215 212 211 185 153 205 197 188 180 163 139  57  69  47  39  27  26  27  77  68  53  39  35  23  19  24  31  28  23  36  29  40  47  37  32  30  26  37  36  54
  82  71  67  61  45  25  16  17  17  20  29  33  51  66  98 144 173 199 212 217 218 219 220 221 222 226 228 227 230 231 231 233 235 233 230 231 228 228 226 226 227 227 226 226 227 227 227 225 223 224 223 219 217 206 199 206 179 194 181 178 163 155 149  39  58  43  29  21  29  23  56  73  86  79  55  56  42  42  38  31  50  41  37  40  45  42  35  25  35  33  31  49
  86  82  80  79  61  26  23  26  33  21  28  32  51  70 105 150 183 205 213 217 218 219 220 223 224 227 229 229 233 233 234 235 236 237 235 233 230 230 228 226 227 227 228 227 227 227 226 226 229 224 221 218 216 219 213 205 210 186 163 160 151 152 150  94  36  38  33  16  20  29  40  82  62  72  77  69  52  46  40  34  45  44  41  35  40  44  39  26  35  35  31  45
  80  77  74  71  62  40  24  20  34  23  29  35  54  74 102 153 193 211 214 217 218 219 220 224 225 226 229 232 232 234 236 236 236 236 234 233 230 229 228 226 226 225 226 227 227 227 227 226 226 221 218 217 217 210 206 207 204 187 170 158 152 155 149 148  54  40  40  21  14  16  27  41  71  74  71  61  52  46  41  31  35  43  32  29  35  40  35  33  32  38  36  49
  58  54  60  66  63  55  23  20  29  17  37  49  56  74 111 169 196 211 213 216 217 219 219 223 224 227 233 233 236 236 238 238 240 238 237 234 232 228 227 226 226 226 225 227 227 226 229 228 225 221 219 217 216 213 211 206 203 197 181 173 163 159 150 146 132  55  47  46  34  36  36  49  49  53  60  60  39  39  44  36  24  20  30  29  31  35  33  32  34  43  43  58
  46  45  60  68  70  75  30  24  21  27  29  26  39  75 141 189 203 209 209 214 215 216 218 223 226 232 233 233 236 234 234 235 237 236 234 232 231 227 227 226 226 226 226 225 225 224 226 225 223 220 216 212 209 214 212 207 197 198 192 190 179 171 158 154 148 123  55  30  53  66  60  58  63  72  66  60  49  43  38  27  25  23  20  28  27  27  32  29  45  56  61  73
  63  70  76  83  78  83  45  24  18  26  18  14  32  88 177 202 208 208 206 213 214 216 217 222 228 234 229 231 233 228 229 231 232 230 229 226 227 223 223 223 222 222 221 224 224 224 221 220 217 218 215 209 205 212 211 205 197 199 193 194 187 183 173 163 156 138 133  60  36  51  82  53  62  76  85  75  62  54  50  40  41  38  38  25  24  23  26  33  59  73  77  88
  78  85  86  76  70  72  73  24  21  19   9  23  43 146 195 203 205 206 208 209 209 215 223 213 213 215 213 214 220 218 219 224 226 227 225 217 216 215 221 215 213 214 218 219 218 217 213 215 214 212 211 197 199 203 201 189 193 188 179 185 177 180 172 172 155 148 137 105  98  59  46  56  80  79  83  80  67  52  42  35  36  33  33  29  24  20  27  39  87  85  91  92
  79  83  83  68  67  69  72  50  21  15  13  22  58 184 200 199 203 205 208 208 213 205 189 172 183 173 151 156 174 158 156 154 156 153 170 198 193 211 207 215 212 214 218 219 215 212 209 207 205 199 202 171 184 177 161 158 126 128 153 138 142 146 147 142 137 132 135 133 106 101 100  81  58  65  80  86  73  50  40  47  38  28  28  28  34  17  27  76 100  90  89  86
  62  73  79  67  67  72  74  74  22  19  19  26  82 196 198 201 202 204 205 211 202 170 144 132 122 107 120 105 109  92  90  86  84  94  88 119 145 162 188 207 206 208 213 217 212 206 203 201 196 194 173 151 153 128 121  92  72  61  60  70  72  70  90  92  99  97  94 113 118 116 108  99  98  87  88  80  77  68  46  42  24  25  33  32  33  21  31  95  97  85  78  80
  61  74  76  68  71  78  76  77  33  27  30  25 114 193 203 208 207 207 188 141 115 122 144 129 103  91  76  78  82  71  69  47  66  75  86 102 123 107 176 192 208 202 206 214 211 203 196 193 189 190 158 135  91  98  84  65  69  50  35  44  48  29  36  47  60  78  83  64  79  91 106  97 101  95  93  94  87  70  51  37  25  28  36  37  36  30  44  99  90  72  66  80
  71  77  76  70  70  75  78  82  59  26  28  34 114 195 203 206 199 195 127  85  77 103 106 122 140 147 147 132 114  93  83  67  88  81  98 119 108 135 147 181 197 198 202 208 205 197 195 188 179 172 138 107  70  64  48  45  33  28  29  41  30  42  34  35  37  38  40  50  57  59  70  95  85  98  96  97  97  82  57  31  27  28  24  19  25  26  51  96  89  74  73  87
  84  84  76  72  69  73  81  77  85  53  23  31 114 196 203 204 210 167 131 152 156 166 181 192 193 182 183 179 174 163 144 123 119 114 113 116 134 124 149 165 188 197 202 207 203 194 188 175 159 147 119  83  61  54  57  46  48  47  56  64  82  74  86  91  89  76  57  42  47  50  43  67  94  99 100  99  97  89  65  29  24  30  33  38  32  30  69 100  93  87  87  96
  88  85  81  74  71  73  75  81  71  60  28  33 122 196 206 203 184 147 157 174 193 187 188 187 192 191 191 196 189 188 184 176 153 150 132 121 132 142 147 161 185 198 203 207 205 195 183 165 144 121  97  67  58  55  52  60  71  85 106 126 127 134 123 125 120 104  99  76  61  51  59  57  67  92  97  95  99  95  83  36  21  27  43  36  29  42  86 103  99 100  96  93
  75  77  82  77  75  76  79  88  76  47  25  35 129 195 206 198 182 158 171 175 184 180 184 180 176 175 165 153 157 140 127 107 126 143 154 142 133 138 153 166 187 204 210 211 207 193 180 156 127  91  70  56  54  52  68  87 100 126 134 144 147 141 135 125 115 113 103  90  75  65  64  63  62  80  99  99  98  93  88  51  27  13  19  23  29  66  96 101 101  98  95  85
  56  60  66  73  72  77  89  73 126 103  50  34 136 199 203 199 190 183 173 169 170 169 156 145 114 115 152 185 204 156 156 139 111  78  92 130 134 128 134 167 195 213 221 225 225 208 186 158 116  70  48  43  52  73  78  61  43  74 107 120 110  88  71  82  85  84  77  77  71  72  71  67  67  71  87  94  97  93  93  49  26  15  24  41  45  74  97  98  98  95  97  93
  46  46  47  60  65  79  83 107 200 130  62  26 153 199 205 211 199 190 168 161 153 145 118  71 153 167 150  90  37 114  33  41  64 107 116  94 117 128 139 165 196 216 225 230 231 210 191 159 106  60  43  42  59  62  52 113 132 157 116 101 108 116 116  81  37  45  50  48  57  66  69  72  72  81  91  97  96  94  95  52  31  20  30  26  45  83  91  93  91  87  92  95
  47  49  53  59  67  79  85 102 170 168  66  42 164 200 207 208 206 196 178 161 146 120  79 152 125  64  67  64  41  12   2  12  62  77  81 135 145 144 174 182 205 220 227 229 226 213 189 153  97  47  34  49  65 112 113  86  68  39 139  19  23  37  51  64  77  51  24  45  54  57  66  69  74  81  89  95 100 101  95  51  26  16  29  32  50  80  92  87  89  82  81  88
  63  75  79  81  84  86  89  79 134 184 105  42 173 197 206 210 213 204 191 165 158 141 147  85  45  74 145 119  65  27   8  59  89 131  85  64 127 212 202 207 216 218 220 226 223 209 193 157  98  56  44  94 136  65  56 121 169  77   2  11   5  38  32  33  55  71  57  37  47  58  62  59  62  72  88  96  98 101  97  55  26  24  32  41  69  86  80  86  85  81  81  87
  70  89  93  96  88  84  78  72 181 153 153  54 176 196 207 212 216 214 205 186 153 126  84 102 125 135 134 167 104  91  89 110 125 160 141 148 180 197 227 215 217 211 216 224 220 207 191 160 112  63  80 135 102  74 141 179 208  94  84  35  50  71  64  46  20  22  52  58  54  55  64  61  67  79  95  95  96 100  99  60  22  32  35  52  69  51  58  80  77  79  83  82
  82  93  92  87  83  70  69  51 199 180 156  82 178 199 206 216 220 217 207 189 181 180 170 144 131 132 162 190 190 206 206 185 181 167 179 219 213 212 218 219 214 214 217 221 213 207 188 162 118  93  95 148 196 197 200 191 179 190 131  93  87  93  94 103  90  62  50  37  62  60  73  84  85  97 102 102 102  94  99  64  28  35  47  69  57  40  61  77  78  72  78  74
  73  82  79  77  72  62  56  40 208 191 188 105 173 198 204 215 221 220 213 210 206 206 196 179 172 174 169 166 158 160 160 154 152 173 202 201 205 217 221 218 214 214 216 221 215 202 187 162 129 118 113 147 196 184 184 183 172 166 165 157 140 131 123 103  87  88  88  75  82  83  86 103 118 116 116 110 100  94  99  63  30  41  57  76  54  32  65  80  81  82  83  73
  63  61  59  53  50  53  52  41 219 202 207 111 180 195 204 213 221 223 220 218 212 212 201 194 184 180 167 165 153 137 145 163 188 195 195 198 214 222 223 217 214 215 217 221 216 198 180 161 141 133 132 139 174 183 181 176 165 154 129 114 102 102  97  96  83  75  78  82  92 104 111 125 138 132 122 108 102  95  99  67  29  40  62  82  49  29  69  84  84  88  85  75
  43  39  36  36  38  51  58  54 220 192 221 135 180 193 203 212 220 225 224 225 222 221 212 207 196 186 178 166 173 181 188 192 202 198 210 224 228 223 221 219 215 213 216 221 216 195 173 155 144 139 146 143 158 187 189 177 172 163 143 126 107  94  83  76  89 101 101 108 111 121 134 147 147 144 129 113 101  95  97  71  28  35  54  81  44  36  73  85  84  86  82  77
  32  33  33  41  44  54  59  62 209 196 205 151 179 192 203 215 217 222 222 226 226 222 217 215 213 209 213 209 211 206 197 197 206 219 227 230 228 225 218 216 216 209 215 216 210 188 170 150 147 145 151 147 153 168 192 190 175 173 166 151 131 119 106 116 125 134 135 140 139 142 148 154 153 146 132 117 103  95  96  70  31  38  55  84  39  43  80  83  81  81  79  76
  38  34  33  43  50  55  61  68 206 210 205 172 180 191 202 212 214 221 220 224 226 226 221 221 221 220 217 215 216 212 211 220 232 232 231 225 225 221 217 214 213 207 213 214 204 185 169 150 149 151 157 151 154 170 189 190 192 177 173 175 163 160 153 160 162 165 169 173 174 173 167 160 158 144 129 114  99  92  94  68  33  41  54  82  49  51  69  70  74  71  78  82
  52  40  33  41  51  52  52  57 189 210 213 165 173 189 200 212 214 220 220 223 226 227 223 227 228 229 229 224 227 223 230 235 231 232 232 225 225 221 216 212 213 206 211 217 203 189 174 151 145 151 156 149 150 172 189 194 195 190 183 179 171 174 174 173 177 180 182 188 188 182 170 159 159 138 125 108  96  91  94  67  36  45  53  77  57  62  72  69  78  73  86  89
  66  50  39  39  53  54  49  58 153 218 213 169 179 188 200 206 211 214 217 221 221 224 229 227 231 235 233 234 235 234 233 233 234 232 229 226 224 217 215 214 208 210 218 216 204 194 177 162 143 124 134 142 152 169 188 196 201 203 199 192 191 191 192 192 193 192 194 191 186 179 167 158 147 136 115 104  98  89  93  64  38  39  45  67  70  76  83  84  87  88  91  95
  76  64  50  43  49  59  55  52 114 228 218 185 179 186 197 205 208 210 214 217 218 221 226 226 229 232 232 232 232 232 232 232 232 231 227 225 216 214 211 214 207 207 216 216 206 195 179 172 146 116 112 136 154 170 189 198 202 205 203 202 200 198 197 200 198 197 189 183 177 169 157 149 138 125 109  99  93  89  92  65  36  34  35  51  73  89  94  96  95  97  97  97
  81  72  55  42  41  59  67  63  92 224 220 195 174 186 198 205 204 207 211 214 215 217 224 224 227 230 230 230 230 230 230 230 229 228 227 223 212 217 215 213 208 213 227 227 210 193 184 172 156 126 123 112 145 170 189 196 198 202 204 204 202 198 195 197 193 190 182 176 167 160 147 140 127 112 102  96  85  90  92  57  29  28  35  49  84 100  95  95  93  93  92  95
  78  64  53  37  36  42  64  75  80 208 211 195 167 181 195 196 201 203 207 210 214 216 219 219 222 227 229 229 229 229 229 229 228 229 228 219 217 217 212 215 206 219 236 231 215 187 166 163 154 131 138 125 133 184 195 193 198 196 202 203 200 197 195 192 191 185 181 173 163 153 145 132 124 108  95  93  84  89  92  44  29  27  32  61  88  97  93  91  93  88  87  96
  79  63  42  42  40  43  59  69  86 200 225 205 165 177 192 196 200 202 206 210 213 217 220 223 226 229 229 228 229 229 229 229 228 228 225 218 209 213 213 211 208 217 215 209 191 163 125 110 126 135 139 128 121 176 187 191 198 197 202 203 199 196 194 195 190 188 178 171 159 148 139 123 115 103  95  91  84  89  92  45  32  29  34  70  97  97  87  85  93  94  92  94
  64  48  35  48  57  60  57  64  89 217 198 221 181 172 190 195 198 202 205 209 214 217 220 224 224 224 226 227 227 226 227 227 227 227 224 217 214 216 210 204 199 203 196 186 170 115  74  94 128 146 143 138 103 163 193 195 198 197 202 202 198 195 191 190 184 185 181 171 158 145 133 116 106  93  92  90  85  87  93  34  24  30  41  85  99 101  92  89  91  94  93  97
  50  38  42  54  71  80  77  78 101 215 217 231 211 166 187 196 198 200 203 209 213 217 219 220 220 219 225 225 225 225 225 226 226 225 222 215 207 205 195 183 170 173 176 155 110  75  71  75 101 104 108 120  86 137 193 190 198 197 201 200 197 194 191 184 176 181 174 161 149 141 131 114 101  89  91  89  85  87  92  32  29  44  61  91 100 106 101  96  89  88  93 101
  36  31  40  54  62  72  80  90 120 213 225 226 219 157 181 198 199 198 201 204 209 215 218 218 218 218 222 224 225 225 226 227 227 221 217 213 175 123  67  52 117 159 133 104  68  65  24  13  15  45  64  89  72  93 171 201 201 200 198 196 192 187 184 180 178 174 166 149 147 138 117 105  99  89  86  87  85  84  84  38  69  86  67  85 100 107 103 106  92  80  90 104
  30  35  43  48  39  45  63  80 148 204 230 218 224 159 173 195 195 199 203 206 209 212 214 212 214 216 221 221 223 224 223 221 222 219 217 215 150  85  62  41  18  84  93  61  63  33  16  13  13  25  50  83  40  58 147 189 199 197 195 196 193 187 184 173 174 163 158 147 140 129 108  98  94  84  86  84  86  88  82  48  76  88  71  86  92 102 104 108  95  82  92 107
  39  49  57  57  49  36  47  55 158 204 223 219 214 170 172 190 195 198 204 205 205 206 205 208 212 216 218 219 222 222 222 219 217 223 222 221 199 120  84  97 118 107 105  55  52  24  19  20  17  24  49  52  39  46 129 179 192 192 190 190 187 183 178 171 162 159 148 140 134 114 106 101  83  86  90  82  86  92  80  60  83  97  90  90  93  97 107 109  96  93 101 109
  43  62  75  78  62  43  34  33 145 205 221 223 216 173 170 186 195 202 207 200 199 202 205 206 211 217 216 216 219 219 215 215 220 221 223 215 223 211 179 193 178 164 172  98  56  32  25  37  45  47  52  49  55  64 119 171 192 193 190 183 183 179 172 162 159 152 144 134 128 115 105  93  90  84  91  89  87  94  79  73  78  89 106  98  82  99 101 107  94  90 100 109
  38  59  81  85  77  55  40  42  75 184 201 208 199 174 172 177 193 200 202 199 200 203 205 208 213 216 216 217 220 220 219 218 218 219 220 216 209 203 191 191 192 189 189 169 122  89  66  60  67  75  82  86  95 108 140 171 184 185 183 179 177 173 167 166 150 140 138 126 120 108  98  89  87  86  94  91  85  87  87  68  68  78 100  94  68  78  85  96  95  99 106 107
  29  47  69  87  85  60  40  49  48 110 152 172 167 144 168 170 189 196 199 198 200 203 204 210 211 213 217 217 219 218 223 223 217 218 218 213 200 191 185 192 191 183 176 175 168 149 124 104  89  93 107 117 131 138 154 171 182 183 178 174 173 168 162 156 145 134 129 118 112  99  92  86  84  88  94  92  87  85  97  57  70  85  90  85  44  50  63  77  92 104 107 100
  34  52  74  91  85  59  34  44  56  66  76  80  80  82 167 182 185 194 195 193 198 198 209 211 215 219 213 214 219 219 223 223 221 214 215 194 204 192 181 192 169 164 158 170 162 147 156 135 123 120 125 139 152 149 162 172 182 177 173 167 166 160 155 150 143 131 121 108 101  91  87  87  89  87  96  88  91  77  86  77  72  76  84  57  38  38  50  72  92 102 102  96
  39  58  80  87  76  54  39  43  46  51  61  77  84  85 160 186 187 191 193 194 199 201 209 211 214 216 212 214 216 219 219 213 203 208 210 211 197 197 194 200 182 167 150 161 170 160 165 135 129 133 141 143 135 154 152 159 169 175 176 162 160 158 154 145 138 125 116 104  98  91  86  84  87  88  95  87  95  67  72  73  73  74  80  53  44  38  49  76  98 100  91  88
  48  73  89  87  73  63  64  64  63  63  73  87  94  92 138 183 188 186 192 195 199 199 208 212 211 212 212 212 215 211 213 215 212 196 200 211 192 204 203 213 219 209 180 170 172 206 194 162 155 142 143 143 136 142 136 142 156 171 175 162 157 154 148 140 128 113 106  96  93  88  84  83  85  87  96  88  89  62  62  59  69  85  92  63  54  44  63  87  95  89  79  83
  52  79  94  89  77  78  75  76  77  79  84  89  89  93 125 177 186 185 189 194 198 199 208 211 210 210 211 211 214 213 212 204 194 193 193 190 206 216 215 214 198 189 204 201 197 203 162 156 163 167 158 143 137 137 140 148 155 169 171 163 163 153 142 136 124 107 100  92  90  87  82  81  84  88  97  89  91  79  77  82  91  95  92  79  57  52  80  93  86  70  56  74
  55  80  95  89  84  80  78  75  77  82  84  88  91  90  88 184 190 187 188 192 196 203 208 207 208 211 209 211 209 209 204 195 193 189 194 195 185 186 170 157 148 148 159 162 162 129 113 108 105 114 119 124 142 119 120 134 151 154 160 148 158 146 137 140 126 104  97  97  88  84  80  79  84  91  96  93  82  73  66  54  58  74  85  74  65  72  85  90  67  44  37  51
  52  72  88  95  88  82  70  68  68  75  82  83  80  74  64 190 186 188 186 190 195 202 207 206 207 208 209 210 204 201 198 187 176 169 156 138 110 135 166 175 151 154 142 149 124 105 114 113  93  82  70  57  65  73  91 127 141 142 131 135 151 144 138 135 121 105  96  97  89  85  83  83  86  92  94  90  74  61  38  36  41  56  67  71  67  72  81  72  50  43  50  42
  58  73  89  94  86  78  73  68  70  71  77  79  68  54  47 164 183 189 187 184 189 196 200 204 205 207 209 207 200 191 166 129 112  88  66  68  90 112 109  99  97  94  95 109  83  65  73  67  46  42  46  34  34  38  57  95 123 136 133 138 154 150 147 132 115 105  96  97  89  85  83  85  86  93  92  85  72  66  44  43  44  51  60  62  64  67  62  43  48  63  55  56
  73  77  94  94  86  80  72  71  66  68  75  76  69  66  62 144 183 188 184 186 188 195 199 203 205 207 208 203 199 173 121 106 122 136 157 167 167 173 168 151 161 156 136 119 101 116 124 123 115 103  72  50  50  42  57  71 104 129 141 145 152 151 142 128 109  98  96  90  89  82  81  81  82  91  88  86  74  72  65  55  55  54  53  56  57  51  43  43  64  68  84  68
  89  90  97  88  84  80  73  71  68  66  75  82  81  75  79 115 179 185 182 184 186 193 197 202 203 205 204 206 191 162 161 188 215 193 183 190 188 186 195 193 190 181 177 175 172 172 168 159 152 160 150 141 141 141 165 140 149 155 152 149 152 145 132 122 106  95  90  86  88  84  79  78  84  91  93  87  90 100  90  81  72  56  47  48  42  35  42  53  75  85  89  84
  94  95  88  80  80  81  75  73  70  65  72  80  76  80  78  78 174 180 182 183 185 191 195 200 202 204 204 198 187 168 188 210 213 208 185 201 187 193 168 187 190 193 192 183 186 186 164 157 143 135 140 139 140 148 158 156 168 180 167 154 152 140 122 109  95  88  84  83  85  87  77  76  87  94  90  74  80  93 101  94  79  56  40  35  35  40  50  70  81  91  85  94
  91  92  82  75  74  82  80  75  69  66  75  77  70  62  53  57 163 176 176 183 185 190 196 197 202 202 185 190 187 195 199 210 220 210 209 209 204 192 189 179 179 175 169 179 165 153 145 128 129 135 137 134 140 148 157 160 176 179 174 162 158 138 116 107  93  86  80  81  83  78  78  84  88  91  86  53  57  63  72  79  72  58  51  36  41  43  60  79  83  85  98  91
  91  87  77  77  75  81  81  78  74  75  78  74  63  36  30  32 106 172 169 179 185 190 192 194 198 199 182 186 182 195 202 206 208 207 210 213 209 203 199 193 188 179 175 167 157 147 153 143 136 132 137 139 150 157 166 167 168 178 168 153 146 126 106 102  91  86  85  83  79  77  83  86  90  91  81  35  27  26  19  27  30  34  36  36  35  34  49  69  84  92  97  89
  87  83  82  83  81  76  76  76  76  78  80  72  62  39  39  40  63 164 176 175 182 187 186 188 194 194 196 197 190 202 212 214 209 207 206 207 205 202 190 185 170 156 154 152 145 140 132 126 121 126 133 132 141 161 165 167 164 167 156 149 138 116 104  92  85  85  84  83  79  79  82  89  90  88  74  71  51  21  23  25  26  28  29  26  25  23  29  38  56  75  88  90
  80  84  90  86  84  72  56  60  64  70  77  74  64  57  59  58  56 146 177 170 179 187 182 185 190 190 200 199 191 195 206 213 209 206 201 195 197 190 169 170 155 138 139 130 127 124 115 104 110 119 128 142 162 151 155 155 167 155 148 143 127 105  95  87  83  85  81  81  82  82  84  89  92  84  85  73  70  55  32  23  26  25  25  22  27  29  31  26  36  48  78  89
  79  87  92  88  79  60  41  38  46  56  71  85  84  85  78  71  64  91 159 164 175 185 184 187 190 191 194 199 198 198 206 209 208 205 203 197 185 187 176 150 158 132 122 115 101 115 117 106 127 135 143 150 151 150 151 146 140 143 129 125 110  98  93  84  84  85  85  81  79  80  86  88  87  86  78  81  69  58  46  36  23  23  24  23  27  21  26  26  30  33  49  66
  80  88  98  92  78  56  44  40  35  41  51  71  89  98  94  76  54  47 133 158 173 186 187 189 187 186 191 195 195 200 204 206 204 204 205 200 194 194 188 168 163 122 106 115  95 134 132 135 147 148 153 154 150 152 151 147 143 133 124 113 107  94  83  83  83  82  83  80  81  84  86  87  85  83  68  84  73  55  46  37  26  25  17  27  29  26  22  25  28  28  35  49
  80  86  88  93  88  76  68  66  59  52  42  49  62  82  95  80  64  47  77 147 162 181 185 183 186 189 192 196 197 192 195 202 202 204 206 204 199 202 193 193 180 147 143 121 132 147 157 168 160 172 172 166 160 149 142 134 143 125 130  99 100  94  85  81  82  81  81  78  82  88  89  86  81  86  58  78  84  55  38  29  25  28  21  23  25  22  24  31  32  27  39  57
  73  67  74  73  82  84  89  85  79  72  57  43  40  63  84  86  75  56  37 109 152 168 177 180 189 183 187 190 198 199 206 201 198 204 210 209 207 203 200 197 187 181 188 192 196 189 179 178 183 184 172 166 162 152 139 121 111 112 103  98  93  87  88  80  78  79  76  82  84  91  86  80  81  87  57  73  85  53  37  23  23  23  23  24  25  25  30  28  31  28  38  63
  61  46  40  45  57  70  77  80  84  86  77  55  38  45  74  90  70  58  32  68 128 148 165 172 175 185 185 187 196 200 205 198 200 203 203 200 206 203 201 195 197 202 205 194 198 191 184 186 186 183 172 166 160 152 133 125 107 102  94  89  85  79  79  77  73  77  80  86  89  84  80  78  80  81  48  67  80  56  31  23  24  24  24  22  23  27  27  26  24  26  48  73
  50  39  30  32  35  43  53  60  69  75  78  65  44  43  65  82  74  46  43  62  93 131 146 160 173 180 188 188 197 198 199 191 197 202 200 206 208 207 208 198 201 196 186 186 191 184 183 187 182 179 167 162 157 147 133 117 115 102  93  85  80  73  74  70  71  76  78  83  86  79  77  80  86  59  46  56  75  60  27  24  24  23  24  20  21  24  21  24  28  41  61  83
  55  55  50  41  38  38  34  31  40  55  64  62  48  40  57  65  50  37  48  63  79  99 132 148 162 180 181 181 186 190 197 194 199 201 201 207 209 212 206 209 190 179 178 178 193 195 192 189 178 183 167 163 157 151 129 113 108  96  85  80  75  72  75  67  67  75  77  79  79  76  79  85  89  34  39  54  69  58  22  26  24  22  21  20  20  21  19  30  34  50  65  77
  76  75  70  65  65  59  45  36  37  49  54  47  32  35  43  44  38  38  57  78  77  76 106 116 145 163 160 166 172 184 187 181 184 192 198 205 208 208 199 207 193 182 181 184 186 182 187 185 178 164 161 168 146 138 119 104  94  98  82  71  68  67  67  70  71  78  81  78  75  77  80  86  90  31  37  51  62  53  24  25  24  22  21  21  21  20  24  24  39  62  75  85
  82  73  63  69  78  71  57  49  54  62  59  43  29  33  30  34  42  52  66  75  79  76 100 110 115 137 150 162 168 170 175 181 200 186 194 193 204 209 199 199 187 181 176 182 178 174 178 175 165 168 154 149 132 122 112  95  94  75  73  76  71  69  71  72  77  78  76  75  74  79  81  88  91  26  34  47  53  43  26  25  23  23  21  21  21  20  24  25  50  69  78  85
  72  52  36  48  66  65  60  61  75  86  73  54  39  35  35  42  57  64  68  71  83  76  78 150 121 101 127 143 148 154 155 156 172 187 191 183 185 194 194 187 178 173 166 171 172 178 174 166 151 135 137 141 109 100  96  80  81  77  70  70  66  64  66  71  77  74  69  73  78  81  84  88  92  23  29  44  47  38  26  23  23  23  21  21  20  21  19  32  57  79  88  94
  61  45  44  41  38  44  60  76  87  94  89  71  47  35  38  55  65  72  75  78  91 120 155 166 137 110 104 108 116 137 135 146 155 167 179 179 175 181 188 169 158 164 153 158 169 159 161 150 145 133 127 110  91  83  75  68  72  68  63  67  64  63  66  73  71  71  72  73  78  81  85  89  82  26  26  37  40  34  24  22  22  23  23  19  20  20  25  42  71  87  91  97
  67  63  65  57  32  40  67  84  89  95  93  76  55  37  43  61  76  72  76 127 155 168 171 180 149 136 101  87  83  98 112 111 126 141 151 164 160 154 163 145 140 133 158 159 161 145 139 124 127 106  96  69  67  71  64  64  67  60  58  67  64  68  74  67  66  67  72  73  78  83  83  91  61  23  26  33  36  33  25  21  23  23  23  21  20  20  21  40  72  87  86  94
  68  78  82  64  38  41  63  87  92  94  92  78  58  36  43  64  80 102 148 168 167 168 190 164 146 147 124 106  77  70  80  86  92 115 132 143 135 145 144 129 123 124 139 138 143 120 114  97 106  79  87  60  64  59  50  54  56  60  57  65  61  59  62  65  65  70  72  72  76  85  83  92  44  20  27  27  33  29  25  22  22  23  23  20  20  19  21  43  75  95  90  97
  71  82  88  68  41  42  65  83  88  91  89  74  50  32  42 103 146 166 178 180 192 186 166 173 162 145 138 117  94  74  61  63  65  65  84  97  98 115 101  91  93 109 104  96  91  94  93  71  55  57  49  53  48  51  41  51  51  54  58  61  54  53  64  62  67  71  72  75  79  84  83  88  24  21  21  28  26  30  27  21  23  23  23  22  21  20  22  40  78 100  98  96
  70  75  81  77  56  54  68  90  90  92  79  59  51  86 139 162 179 178 188 198 181 162 182 169 157 157 137 129 112  89  68  57  52  59  61  66  98  84  66  80  72  75  67  63  62  55  68  62  53  42  51  40  48  44  50  51  48  50  47  50  49  52  57  62  68  72  77  78  80  74  80  80  11  16  19  26  27  30  27  22  23  23  22  21  21  20  23  44  83 107 100  94
  64  63  70  81  78  74  79  89  91  87  89 120 153 163 158 181 184 185 192 186 157 180 175 161 145 164 148 131 122 101  87  73  49  45  44  45  49  49  47  50  46  45  38  48  50  41  40  48  39  37  45  44  38  45  46  46  44  44  46  50  55  59  63  62  68  72  75  75  75  75  75  69  13  16  17  23  28  30  26  22  22  23  23  20  22  20  29  54  92 110 110 106
  74  60  60  75  86  87  91  92 128 152 167 166 168 170 190 187 192 189 199 173 183 185 173 152 149 161 163 148 129 122 107  89  79  56  42  38  40  38  43  45  41  40  38  43  45  46  46  42  40  41  41  43  40  36  37  39  40  46  49  51  56  58  59  61  66  69  68  71  72  71  72  40  19  16  20  24  27  29  27  23  22  21  18  20  21  16  33  63  95 110 133 116
  80  70  71  81  89  89 109 170 182 172 180 178 181 187 185 192 194 199 195 172 186 185 171 146 153 166 164 155 141 121 115 105  82  75  60  50  48  39  33  35  31  32  30  34  34  34  35  35  34  34  35  35  33  37  41  41  42  48  50  51  56  59  59  63  66  68  65  68  68  70  69  28  13  14  20  24  27  29  28  23  23  21  21  21  21  19  42  74 102 123 132 109
  83  83  84  86  87 125 171 177 176 184 188 186 190 192 198 193 189 199 180 172 191 185 167 142 156 176 160 159 155 138 117 105  98  87  77  62  49  43  41  39  36  33  34  32  32  33  33  35  36  37  38  38  37  40  41  41  43  50  51  52  56  59  61  60  61  62  60  62  63  64  57  14  10  17  20  24  27  29  28  26  24  23  21  22  18  24  51  81 105 136 134 113
