P2
# Generated by OpenCV 4.2.0
92 112
255
  53  46  44  46  47  43  44  44  43  42  45  47  45  44  44  45  44  45  44  46  47  42  45  39  33  26  25  27  16  15   8   7   6   9  10  24  15  33  14  14  17  18  15  15  16  47  49  43  38  75  84  71 105 204 231 253 213  94 110   7  14   7  21  12 133 221 206 215 197 201 189 197 193 186 188 174 174 168 165 160 150 157 170 135 112 106  99  83  88  87  91  93
  56  51  58  51  46  47  43  43  43  43  44  45  44  43  44  43  44  44  45  44  44  46  42  30  34  31  24  23  23  13  11   6   9   4  14  15  20  39  22  19  19  18  21  17  19  20  26  38  55 115  85  77  60  23  31  28  40  34  49  35  94 163 131  32  14 105 208 210 202 201 195 182 186 179 172 151 157 158 153 161 126 133 147 137 135  97  99  85  77  75  87  69
  54  50  49  47  45  48  46  47  46  48  47  49  48  46  47  47  45  47  46  44  52  41  26  31  36  29  20  22  24  18  12  11  10   7   8  19  32  39  24  33  17  20  32  18  20  19  34  69  76  51  57  48  75  64  49  42  42  35  37  39  35   5 128 154  13  87 196 181 178 187 186 182 171 176 152 173 146 162 158 150 145 133 147 134 145  98  86  89  82  84 101  90
  68  62  55  50  47  47  49  45  48  50  52  50  50  50  49  52  52  50  51  47  44  41  49  32  21  22  21  18  19  11  15  17  10   4   5  25  31  45  40  39  48  31  24  27  23  22  40  38  47  46  65 108  49  45  44  63  57  67  69  64  51  53  11  18  24  72 141 158 164 154 154 166 144 135 130 121 140 135 159 120 137 137 135 134 129 132  96  92  92  92 105 108
  72  78  67  54  51  55  52  53  49  52  51  53  55  51  53  57  55  54  59  57  35  61  37  20  24  23  26  25  26  26  20  17  11   6   7  17  65  37  57  41  76  55  39  37  27  25  32  37  61  79  74  37  45  60  66  62  63  56  58  83  88  88  61  50  37  68 109 143 161 134 137 134 134 120 140 106 101 108 130 129 119 112 111 101 101 101  97  87 104 113 116 118
  73  80  86  67  57  55  55  50  48  67  71  61  51  54  56  59  59  58  57  33  47  49  39  39  31  28  26  32  37  32  26  32  32  14  12  14  96  25  65  63  76  45  59  44  19  27  34  46  68  47  47  35  43  73  46  48  63  84  86  62  40  48  43  53  53  45  18  50  94 117 105 134 119 121 106 102  84  90 108 119 120 116 137 112 106 119 113  99  89 101 110 114
  78  87  84  83  67  53  62  52  49  55  69  56  78  63  63  66  76  61  46  27  32  23  17  20  20  21  24  22  29  46  49  34  32  31  32  57 118  34  85  85  66  35  78  66  22  25  27  52  75  41  28  49  63  32  29  40  35  26  14   5  18  18  16  12  21  38  48  40  20  51 110 126 106  96  83  60  77  86 111 103  98 142 130 135 148 120 148 151 117 106 108 118
 126  98  93  82  67  66  68  64  66  67  66  73  81  67  81  88  75  57  30  24  18  13  14  14  12  17  22  19  28  38  76  56  42  23  27  81 130  45  48  99  93  24  64  63  28  36  51  49  35  30  33  65  32  23  23  30  16  46  68  53  36  35  55  52  70  13  18  36  35  35  32 115 122 114 116  71  74  89 133 166 141 141 152 161 144 119 105 105  91 108 129 117
 120  98  94  87  78  83  66  70  80  88  71  99  81  83  78  84  75  25  24  15  13  18  13  14  14  15  17  27  19  28  36  81  51  22  24  71 120  37  32  50  59  22  47  54  41  41  71  45  19  35  78  34  20  19  30  23  86  49  51  51  51  21   7  13  27  48  59  16  25  33  49  19 139 106  77  77  82 103 154 154 135 148 154 173 122 133 154 109  90  90 101 101
 113  85  97  87  94  90  79  84  91 100  90 124  94  87  99  87  44  23  20  20  17  24  18  22  18  24  15  20  38  32  24  37  33  38  33  63  94  25  30  38  30  15  21  48  54  46  75  38  12  47  37  28  12  26  40  77  37  69  62  63  29  50  60  43  29  45  38  46  73  17  30  74  22 116  89  93  86 105 138 135 146 131 165 161 107 141 163 173 161  86  89  97
 105  98 123 113 104  99 107  91  91  97  97 106  99  97  96  48  22  24  28  29  24  20  21  20  21  21  34  14  39  40  55  33  53  60  51  31  75  25  22  26  19   9  20  33  41  66  76  28   9  54  23  14  21  28  55  28  30  53  51  29  39  46  73  39  31  31  37  41  20  52  52   8  63  24 108  88 118 105 124 132 109 123 122 136 169 162 162 167 130  95  78  83
  83  87 120  82  96  81  98 104  75  88  89 102  91  76  65  29  20  21  46  30  23  22  20  24  23  33  15  51  13  14  57 120  35  78  55  24  55   9  19  13  12  11  15  28  19  47  83  16  14  68  19  21  39  21  26  27  27  32  25  22  68   6  66  64  58  43  35  42  33  29  41  62   7  55  29 109 119 108  89  95 126 117  86 145 153 130 140 143 119  86  80  80
  97 102  90 101  93  98  75  67  73  77  65  66  31  24  32  37  26  53  29  26  26  27  29  30  34  28  50  27  66  29  10  55  88  23  50  20  39   8  15  14  13  12   8  13  17  27  67  35   9  50  16  22  19  26  16  31  36  20  19  39  19  75  19  17  21  13  29  37  23  35  42  40  66   7  53  28  78  98  83 137 124 134 111 109 145 132 132 145 134  92  67  89
 117  93  91  74  94  93  84  67  65  71  81  34  19  19  24  32  50  38  33  33  29  22  15  27  24  49  34  80  55  67  39  19  64  61  47  16  19  15  12  11  12  10  11  12  23  15  34  59  24  35  17  20  21  26  18  26  28  19  19  19  34  23  22  45  41  51  53  51  47  35  21  37  54  40  22  32  34  78 101 125  84  98 104 121 170 124 108  97  96  79  82 114
  98 120 106 104 101  87  86  88  75  75  75  14  14  15  19  33  47  32  39  28  35  45  45  32  52  14  11  56  62  45  73  24  28  34  42  19  15  18  15  13  11  13  11  13  17  18  15  27  39  26  24  19  29  27  24  26  29  28  16  23  19  30  47  63  65  66  64  61  51  55  34  31  47  52  28  76  16  53  68 108  90  86  83 127 164  95  86  77  84  81  82 111
 131 113 110 119  86  73  78  86  87  90  59  19  12  20  20  31  61  58  27  45  65  44  68  53  41  63  40   7  81  81  39  45  22  20  22  30  20  14  15  13  15  16  15  24  25  20  22  28  37  38  28  24  41  34  29  29  40  35  19  20  22  24  33  47  23  25  24  41  79  62  62  19  54  38  60  55  45  25  46  54  68  69  86  98 147  78  64  86  86  92  81 115
 132 130 115  89  99  87  73  73  87  78  17  19  13  18  43  17  60  70  65  53  43  60  78  73  84  48  74  47  41  65  58  35  23  17  16  36  26  16  20  15  18  31  24  20  33  48  32  35  41  42  46  44  53  49  49  42  42  44  20  24  21  24  53  24  37  63  68  36  41  51  73  89  30  60  53  50  66  19  42  39  43  72  88  87  91  59  63  89 125 121 117 143
 120 147 125 108  90  81  69  74  73  45  41  16  22  32  43  22  25 121  85  72  79  64  18  26  47  81  64  55  30  49  62  19  18  14  18  15  38  36  22  18  20  24  32  41  63  50  81  54  59  70  73  77  92  86  76  67  65  60  45  35  38  24  18   8  26  27  33  50  87  46  50  64  84  64  51  58  48  51  30  49  68  81  86  75  90 153  80  75  94 145 123 136
 139 106 105  94  82  73  65  58  53  40  22  17  14  36  31  22  24  47 107  98 120  85  72  51  22  27  42  57  62  28  32  55  32  25  21  23  15  32  41  42  48  35  35  29  53  65  89 128 142 161 139 138 151 150 121 136 100  73  68  59  58  33  33  18  24  20  23  34  39  74  37  82  91  46  49  58  53  57   5  35  49  79  86  78  77  53  57  66  69 123 131 184
 156 132 108  91  76  76  62  58  29  27  10  18  21  33  24  21  28  20  70  67  41  63  59  64  59  53  46  51  44  45  39  35  41  37  32  33  29  35  37  41  44  57  61  63  65 106 129 150 171 176 185 190 180 176 158 157 166 126 114 117  99 106  75  45  18  22  41  38  40  63 103  37  85  84  54  63  58  35  27  26  56  82 101  78  67  54  67  64  73 113 114 167
 118 120  86  91  77  66  68  48  24  25  10  10  21  47  35  26  31  25  36  63  42  73  32  55  60  61  53  59  61  55  56  55  52  50  52  48  49  61  57  54  62  92 118 142 155 161 177 191 194 196 196 196 190 191 190 183 174 173 156 161 145 120 121 103  74  30  32  44  60  38  44 100  61 114  57  69  49  59  32  21  72  88  90  82  77 109 116  87  78 117 120 153
 105  98  87  87  87  70  47  25  19  16  15   9  21  34  70  47  20  23  33  37  33  42  70  50  61  64  67  72  69  78  71  77  81  79  86 108 116  98 125 157 176 193 196 184 197 204 202 199 199 196 195 197 193 190 188 191 191 185 176 155 161 146 165 164 131  90  48  57  80  73  46  39  86 100  40  53  38  41  41  18  65  73  78  79  82 127 108  94  85 113 135 125
  92  79  93  90  82  75  28  29  24  13  15  10  23  14  78  75  16  14  21  37  25  26  45  64  74  78  90  92  98 100  90  97  89 115 132 137 160 184 182 187 193 200 199 205 200 197 194 197 194 195 193 191 191 190 190 190 187 184 182 188 164 159 167 181 162 153  86  71  69  59  55  79  63  79  24  39  23  25  32  17  24 109  67  94 103 123 106  95  99 122 137 121
 113  94  96 127  80  64  28  26  15  12   8  11  29  13 100  81   7  15  25  24  62  77  48  62  70  89  88  99  89 105 110 121 162 130 152 177 188 183 193 192 193 196 200 198 198 194 194 195 192 191 189 187 185 182 183 183 182 183 182 180 173 177 168 176 172 165 157 100  46 112  65  42  32  92  85  36  22  19  18  22  50  24  85  94 102 110 109 111  81 124 142 121
 115 102 141 139  70  59  31  23   9   6   7   8  25  12 118  60  16  15  22  48  96 104 111  92  70  84  97 109 121 133 138 126 132 166 172 175 185 190 191 194 195 195 197 193 192 193 194 191 190 187 186 185 184 181 181 183 182 182 183 181 175 172 164 163 179 175 166 134 102  68  67  47  74  85 104  34  29  17  18  15  15  69  52  77 133 116 120 116 100 130 147 136
 101 121 132  81  71  62  26  28   7   6   4   4  18   4  86  57  18  30  39  93  86  67  63  64  80  94 117 131 134 137 151 178 182 181 186 188 189 190 191 195 199 196 201 199 197 194 194 190 189 187 184 186 186 184 182 182 182 182 182 180 180 174 171 170 161 177 169 166 131  49  59  66  47  52 106  24  26  28  13  18  21  23  67  49 147 129 146 130 121 156 152 148
 144 126  89  95  87  79  23  29   7   7   6   5  11   5  50  37  49  44  91 128  95  99 121 145 160 168 179 184 186 183 185 184 189 189 189 189 192 192 193 196 196 196 198 199 198 196 194 192 187 188 188 188 184 182 182 182 183 181 181 181 180 177 171 170 164 165 175 166 143 122  28  53  47  51  94  20  24  24  27  15   8  16  50  52 127 140 127 153 139 169 181 183
 136 122  93  86  87  63  32  21   7   4   3   3   4  10  26  31  95  60 114 112 118 126 149 163 167 179 183 182 184 179 178 180 177 177 184 187 190 189 190 191 190 192 195 194 199 200 195 193 189 189 188 187 187 185 186 184 184 183 182 181 179 180 176 173 165 162 168 171 165 143  95  38  63  48  81  19  20  18  29  21   8  49  22  22  58 171 169 160 163 173 189 193
 144 116 101  71  78  51  30   6  12   4   6   5   4   6  22  41 153 118 127 127 129 140 152 166 174 176 173 173 174 177 180 183 186 186 190 191 189 192 193 196 193 197 200 198 199 197 197 193 195 193 192 194 190 186 186 185 185 183 180 178 178 178 177 176 174 164 169 171 165 160 137  54  28  50  90  11  30  15  20  17  34  14  15  63  40 155 186 171 172 181 189 192
 156 132 101  78  44  41  13  65   3   2   5   5   6   5  15  87 138 116 117 123 133 145 154 164 167 168 172 176 180 182 184 186 188 189 192 192 189 190 193 195 195 198 198 202 203 202 203 199 196 196 198 197 193 190 186 183 184 185 182 179 179 177 177 176 175 171 164 167 166 163 150  74  58  57  79  30  22  27  29  25  20  19  18  31  40 162 182 179 184 187 194 202
 181 161 122 109 125  41  14  34   7   8   4   4   4   5   2 110  87  69 123 130 146 147 154 160 164 167 175 180 182 183 185 188 192 191 191 193 193 191 194 195 194 199 198 201 197 201 204 203 194 194 196 197 192 191 186 184 183 183 182 177 180 179 176 179 176 173 166 158 163 164 157 134  56  48  77  37  16  12  15  21  18  20  15  19  26 213 184 190 191 188 194 201
 178 176 156 147 142  88   2  18   7  25   6   7   7   4   7  59  65  45 128 142 145 148 152 157 162 171 175 180 179 181 185 187 186 189 190 189 194 193 199 198 201 201 204 203 207 207 205 204 204 203 201 197 195 192 190 185 184 182 183 181 179 179 177 177 177 174 170 161 150 159 168 158  87  48  56  47  38  27  21  22  20  18  23  23  34 153 209 192 191 193 201 203
 174 174 161 168 156 129   1   6   7  14   6   7   5   3   4  33  38  61 125 139 149 152 156 160 165 166 173 177 182 183 187 190 191 192 194 196 197 199 203 203 201 207 206 204 205 203 205 207 204 202 202 198 197 195 192 186 184 185 185 181 180 181 178 179 177 176 170 167 158 159 161 156 127  69  35  53  42  41  28  29  24  26  19  20   6 226 204 201 202 202 202 205
 177 172 165 177 179  79   3   5   6   4   5   4   4   3   6  20  17  95 114 137 144 154 158 160 165 171 176 181 181 183 186 190 192 192 193 195 197 195 194 193 198 196 199 202 202 200 202 199 197 195 193 193 193 190 190 190 188 186 187 186 182 180 178 180 178 177 169 164 165 156 159 164 149 122  44  44  24  29  30  24  26  28  20  24  31 104 214 204 202 197 199 202
 174 175 157 174 178  88   6   7  13  10   4   5   8   7   3  16  25  99 122 143 150 153 159 164 171 174 179 180 180 182 183 187 189 196 196 196 198 197 197 200 203 204 205 203 201 202 204 201 202 200 196 196 194 194 191 188 188 187 184 186 184 184 180 180 178 178 173 167 163 160 159 165 143 127 119  37  32  31  27  25  29  24  24  18  26  39 229 199 196 209 204 204
 179 173 165 169 182  79   7   7   7   5   8   7   7   5  10  11  66  89 124 142 149 156 164 167 171 173 177 180 182 184 184 189 190 194 200 197 198 195 200 204 207 209 203 203 202 204 205 204 201 195 197 197 195 193 193 191 188 188 188 188 185 183 183 180 175 176 174 166 162 164 162 161 163 134 100  88  44  41  25  30  38  28  25   8  19  13 191 205 209 207 208 212
 180 169 176 171 204  40   6   7   7   5   4   6   7   7  13  17  88 105 114 142 154 157 160 164 167 171 175 182 184 185 186 187 187 192 196 196 197 194 197 201 202 202 202 201 204 206 205 206 204 199 195 195 194 194 191 191 189 187 187 186 186 184 180 179 179 176 172 165 165 162 168 152 148 134 100  88  77  65  88  87  50  34  42  24  21  22 196 216 216 211 211 208
 164 167 150 146 106   1   5   7   6   4   5   5   5   5   6 100  93 104 119 144 153 156 159 162 167 170 177 179 183 184 185 188 191 194 194 199 201 199 200 201 202 202 201 203 203 203 207 202 202 199 198 195 194 191 193 193 194 190 188 186 186 185 179 178 180 178 171 168 165 164 165 165 141 111  93  71  72  36  58  48  28  30  28  33  20  16 224 202 208 208 204 202
 133 125 112 131   8   3   4   5   4   5   5   7   9  27  78  98 101 110 127 142 148 155 160 164 169 176 180 180 184 187 190 193 196 199 200 202 199 200 204 206 206 206 203 202 202 203 205 201 202 196 191 192 194 194 194 195 195 193 190 191 191 187 182 178 177 178 172 169 164 167 162 154 127 115  83  48  40  29  29  23  20  26  21  25  27  11 191 202 203 206 205 207
 106 102 103  99   0   4   4   4   5   5   5  10  23  60  76 105 111 115 128 141 150 155 160 167 173 176 180 187 191 192 195 197 200 199 201 204 201 203 205 203 201 202 202 203 204 204 201 201 200 199 194 196 197 200 200 200 198 198 197 193 190 187 183 181 179 178 173 171 166 168 159 150 122  95  79  42  22  20  12  29  18  21  22  26  25   9 143 196 199 204 201 205
  98  89  84  80   1   3   4   5   6   6   6  14  23  46  79 106 113 117 129 141 148 157 166 170 175 181 188 191 196 196 200 202 203 207 206 207 204 203 207 201 201 201 202 204 203 205 202 202 200 201 202 203 206 203 204 203 198 199 199 195 191 188 184 183 179 176 175 173 171 168 154 140 126  86  47  36  18  19  12  10  14  17  16  18  21  13 171 198 193 195 193 200
  95  87  80  89   0   2   5   5   5   5   8  11  21  41  74 109 114 120 131 139 147 153 164 172 181 185 189 191 196 200 205 206 206 206 207 205 207 206 206 206 208 205 204 206 209 208 205 203 205 204 206 210 205 207 208 209 202 200 199 195 193 190 187 184 181 177 175 175 171 170 169 149 112  98  50  28  16  14  14  12  10  11  13  12  13   9 195 186 190 190 192 195
  98  93  92  89   0   4   5   5   6   5   7  11  21  42  83 109 118 120 128 136 145 152 170 178 183 190 190 194 202 202 207 211 213 214 214 210 207 209 211 215 210 210 212 213 211 209 208 205 206 208 211 213 209 209 207 208 208 203 199 197 194 191 185 181 180 176 174 173 176 173 168 157 142  78  55  24  12  13   9  11  12  12  11  12  20 100 174 182 185 190 185 179
  87  98  97  92  15   6   4   4   4   4   7  10  21  41  84 103 115 115 123 132 138 163 173 175 184 182 175 185 195 206 204 209 217 216 218 212 214 212 218 216 212 214 215 213 212 203 209 218 208 215 223 205 215 226 209 188 204 194 197 193 194 188 187 183 180 178 172 171 173 174 169 163 143 128  53  25  14  10  10  11   9  10  15  19  42 165 169 170 171 175 173 170
  96  84 110  96  97   0   4   4   4   5   4   7  20  51  86 103 113 117 122 118 150 146 143 159 157 160 158 143 130 120 127 212 202 217 195 229 220 224 226 218 217 219 222 220 212 211 219 212 205 216 172 191 146 156 139 138 175 199 196 202 183 160 201 188 178 169 167 170 172 173 168 161 160 143  94  19  14   7  10  11   8   9   9  14 105 141 149 155 151 160 164 160
 101  92  98 101 109   3   4   2   3   7   6   8  28  59  81  98 110 106 112 125  89 119  93  80 112  47  24  52  66  64  61  96 119 187 198 202 231 229 223 219 218 222 219 219 215 224 217 195 208 144 185 122 146  57  67  94  61  72  48  58  78  86 117 153 160 172 169 166 169 170 153 157 155 156 147  46  13  10   6   6   9  13  15   6 171 143 128 140 135 134 134 129
  91  91  95  93 105  62   4   3   4   6   7   8  50  60  75  95 105  97 110  79  64  41  12  20   9  24  34  62  82  99  90 103 107 124 138 201 224 220 221 218 219 220 214 219 226 222 194 199 152 175 153  85  95 110 110  76 100  65  72  73  72  88 103  61  85 162 185 165 165 168 160 161 149 156 150 119  12   9   8  11   8  10  12  21 152 129 119 112 107 107 122 118
 112 101  94  93  92  87   3   3   2   3   8   9  49  67  66  92  95  70  39  45  48  48  70  35  22  67  64  58  68  67  91  83 132 115 123 182 192 217 213 216 219 221 218 214 222 221 195 170 123 147 195 128  76 112  85  66  71  85  66  73 107 115  59  66  89  78  67 150 163 163 163 155 146 153 151 129  31  10   8   8  11   7  14  50 114 101  90  93  99  98  97  87
  99  94  88  89  87  83  33   5   4   1   6  15  52  72  72  85  73  14  30  24  53 107 130 179 169 153 154 134 127 143 117  99 112 114 147 143 204 203 209 210 210 215 218 215 211 213 189 146 154 112 144 140 138 143 151 169 178 170 170 189 165 158 153 127 108  95  95 114 157 165 160 157 148 152 149 133  37  13  10   7   8  13  13 102  90  89  72  76  77  72  76  72
  84  85  95  86  86  81  55   0   6   5   7  17  51  77  69  79  28  27  34 124 154 161 166 146 165 166 154 155 148 148 153 141 153 164 151 169 189 199 201 199 206 209 208 209 209 204 189 156 160 163 167 175 167 157 157 161 170 175 181 183 181 191 181 179 149 139  99  64 112 174 163 156 152 153 149 130  44  15   8  11   8  15  16  68  61  62  70  57  54  47  55  57
  77  81  76  90  86  66  56  22   7   5   6  13  56  83  70  59  26  80 146 138 160 164 161 168 169 163 156 153 150 144 138 136 136 146 158 167 178 193 191 198 199 204 206 206 201 197 191 186 177 175 166 159 142 146 156 154 168 174 177 184 179 182 183 174 181 170 152 131  69 151 145 159 154 155 149 127  57  20  10  10  22  10  77  77  58  60  64  53  51  55  52  48
  61  66  70  67  58  50  47  42   7   3   4  14  67  85  65  42  42  84 131 147 160 158 162 160 160 160 154 156 151 150 142 128 129 135 145 151 163 174 182 189 197 204 206 203 198 190 185 178 172 166 150 144 142 146 152 159 160 162 168 170 165 170 173 171 176 173 155 134 108 115 164 160 158 158 147 133  59  22  13   9  13  17  52  40  42  47  50  45  46  48  45  45
  52  65  51  49  48  49  42  33  25  15   4  12  77  84  63  33  60 106 121 146 148 151 156 152 153 148 146 137 129 130 140 144 137 135 133 132 136 152 169 177 193 202 205 203 200 185 180 166 150 141 140 141 129 120 106 120 134 144 151 150 155 151 160 159 166 162 158 153 133 114 108 156 159 162 154 136  56  26   8  13  30  45  59  31  50  40  39  40  42  41  40  39
  41  52  44  49  45  45  37  22  34   7   7  10  82  84  65  56  75  95 113 129 143 148 147 135 118 146 163 168 172 174 144 107 137 139 137 128 118 127 153 168 192 206 211 206 195 191 170 154 146 144 136 134 131 139 155 162 179 167 163 139 129 139 150 153 151 154 157 154 148 152 158 161 162 163 156 141  50  28  17  29  74 189 171 160  27  40  40  39  40  41  40  42
  48  38  35  36  43  32  31  25  53   8   3  20  81  93  78  79  86  96 102 128 143 147 131 126 138 152 163 179 199 196 193 177 129 126 143 148 138 114 122 164 186 203 211 208 196 186 166 152 148 146 138 132 136 140 155 116  76 122 143 174 154 147 107 147 150 149 148 148 151 171 169 166 167 163 159 144  49  28  17  40 199 193 190 145  93  47  40  41  40  38  41  39
  39  30  27  28  27  26  23  32  72  11   3  29  87 100  99 110 111 110  96 124 141 139 120 128 131  82  30  15  24   8  52 148 160 141 135 154 156 134 111 150 175 192 198 198 192 186 167 158 155 143 144 138 125  46  23  45  60  16  26  28  62 153 154 113 141 149 147 153 164 174 176 176 172 166 159 148  59  26  20  90 208 188 126 132 101  44  40  42  41  39  40  40
  27  23  22  22  24  24  21  17  61  31  12  35  87 106 117 132 129 117 100 123 140 121  92  61  15  50  61  77  97 154 112 157  55 130 158 161 168 151 115 139 170 184 191 192 187 182 173 175 179 213 134  69 100 225 103  96   0  54  58  83  63  21  87 126 135 135 140 156 173 183 184 184 177 166 161 144  89  34  25 178 199 174 144 178 111  47  40  43  41  42  40  39
  24  22  22  21  21  21  22  20   6  84  12  43  89 109 134 148 148 137 106 123 123  86  31  22 115 165  67  74  49  92 118 230 214 164  35 175 182 156 119 141 174 185 191 188 181 177 173 184 212 158 116 138 163 214  68 127  97  68  63 191 172  86  29  54  96 125 136 159 178 191 188 186 180 171 160 149  83  38  12 191 163 137 178 186 109  48  41  43  40  41  44  42
  22  21  21  23  22  23  21  25  90   7  15  39  85 116 144 168 165 153 127 113  80  37  34 127 134 170 106 110  74 146 110 159 136 145 208 202 165 144 123 145 175 181 192 189 182 175 174 175 198 207 214 193 162 150 157 146 157 128 143 155  98  85 114 161 132 153 155 165 180 189 190 186 180 173 157 144  93  42  42 162 187 176 194 199  97  51  43  45  44  44  43  41
  22  22  22  22  22  23  22  22 101  42  19  36  77 124 145 169 168 155 130 101  90 107 104 110  84 100 119 169 184 180 188 202 193 186 178 181 151 133 128 153 184 187 195 191 185 178 172 175 182 206 196 180 167 169 144 163 173 138 142 145 167 156 156 166 176 180 176 179 186 188 188 184 179 168 157 142 104  29  47 196 206 181 204 207  64  47  46  44  43  41  41  41
  22  22  22  22  22  22  19  22  96 131  96  22  76 111 142 168 172 166 155 152 154 132 121 132 134 146 138 168 163 155 162 180 180 180 179 170 141 124 133 154 180 188 193 192 185 182 176 172 179 188 202 183 171 153 151 153 145 153 156 151 153 157 164 185 189 181 184 186 186 187 188 184 180 168 158 136 118  49  81 215 209 175 219 211  39  48  51  43  43  44  40  41
  23  22  22  22  22  22  21  25 100  69 124  12  69 103 142 165 175 175 171 174 172 157 146 132 126 139 142 144 146 153 166 182 189 191 178 161 141 130 133 154 182 190 195 189 182 183 181 176 179 178 190 206 196 188 182 175 160 155 155 164 180 185 193 195 199 195 192 188 188 188 188 182 178 167 152 133 130  47 197 214 212 195 209 226  16  46  52  46  44  44  41  41
  22  22  24  22  21  20  21  24 102  74 132  18  62  96 140 160 173 177 180 183 182 180 179 173 169 168 172 173 173 181 187 190 196 183 169 157 140 135 130 148 179 191 193 187 182 181 182 179 180 186 177 191 203 201 203 196 198 195 194 191 195 196 194 195 197 196 193 192 188 187 182 176 170 159 145 137 123  68 195 216 217 204 199 213  22  49  47  46  43  44  43  42
  22  21  24  22  22  22  22  23  75 105 139  65  52  95 137 157 170 175 183 185 182 183 184 186 186 185 188 185 184 191 189 192 190 177 166 154 145 133 127 150 185 193 191 184 177 179 184 187 181 184 188 190 192 193 202 196 195 192 191 191 191 193 194 195 195 193 194 194 191 189 184 178 166 155 146 133 122  58 200 215 217 216 160 216  33  51  49  45  45  43  44  42
  22  23  22  22  23  22  23  25  42 156 146 101  56  91 135 155 163 170 179 184 184 184 186 187 186 187 189 188 191 192 191 186 181 174 170 157 150 128 124 152 186 192 188 183 180 178 182 188 191 192 192 193 194 194 197 195 196 192 191 192 190 193 197 196 196 195 191 189 190 190 186 174 160 149 142 139 122 141 190 207 211 221 167 143  50  44  46  45  42  42  42  41
  22  22  22  22  22  22  21  26  14 160 161 140  51  79 128 150 163 166 169 174 183 184 188 189 186 187 186 187 190 193 191 186 182 178 168 158 138 121 125 164 188 195 192 188 179 175 175 182 192 199 198 200 199 197 198 198 195 191 193 193 193 193 199 198 197 196 191 189 189 187 183 173 159 147 139 137 110 207 205 208 214 224 175  53  50  44  44  44  44  41  41  43
  22  22  22  22  22  22  20  26  11 165 176 176  46  70 120 143 155 164 167 175 180 187 189 188 181 185 187 189 192 193 193 187 186 187 175 155 114 122 132 169 190 197 194 186 182 178 170 173 184 197 205 202 206 202 200 197 200 198 197 193 191 193 191 192 196 194 194 192 186 182 178 171 153 144 134 139 109 241 227 204 213 224 190  12  45  46  41  41  43  42  43  43
  21  21  22  22  22  22  24  19   3 154 147 153  50  52 113 137 152 162 166 173 179 183 182 183 186 182 188 191 193 195 197 195 198 197 166 140 122 126 150 175 192 203 197 191 187 182 174 172 172 187 201 206 206 205 205 200 200 197 197 196 195 196 190 195 193 194 191 188 180 178 174 164 151 140 134 136 115 229 215 207 204 213 194  28  51  45  42  42  43  45  43  44
  25  24  21  22  22  22  18  26  14 126 140 143  34  57  99 126 150 157 165 172 175 181 185 186 184 190 192 195 197 200 200 204 207 198 133 151 137 139 165 180 196 206 206 201 194 187 182 178 177 176 197 198 203 206 209 206 203 200 199 198 198 200 194 192 196 193 187 184 184 176 173 161 150 133 134 138 105 220 211 196 195 216 172  33  42  40  42  43  43  45  43  44
  24  24  21  21  22  22  23  21  13  55 171 120  27  50  85 121 140 153 159 169 177 177 182 185 189 193 199 200 202 204 200 212 213 164 147 152 149 146 164 183 203 212 218 196 185 185 190 187 183 175 182 202 198 203 207 206 205 204 204 197 199 201 194 198 193 191 187 184 171 171 166 157 147 132 136 137 117 220 200 187 218 185 172  39  42  47  42  43  44  42  43  43
  24  24  24  24  21  22  21  21   7 127  94 147  18  45  76 110 131 147 159 163 177 177 184 187 190 195 201 203 206 210 211 215 212 116 152 161 165 148 141 180 192 201 195 184 174 184 193 190 192 183 177 205 198 198 206 204 205 206 205 203 202 200 202 200 190 191 187 181 176 168 168 153 140 132 140 132 143 182 193 188 203 175 152  34  35  40  45  45  43  41  44  42
  24  24  24  24  21  22  19  23  13 120 124 160  29  46  65 102 125 138 156 168 172 177 186 187 194 198 202 205 214 209 219 217 194 112 140 154 175 153 114 142 185 186 183 169 185 184 176 152 169 176 166 201 204 192 203 203 206 205 206 207 205 202 202 199 196 193 188 184 174 170 166 146 137 130 141 118 128 198 201 197 178 208 135  33  33  38  42  43  43  43  43  46
  24  24  24  24  21  22  23  25  36  98 186 133  49  50  55  93 113 134 156 168 173 175 185 189 194 196 205 208 214 215 211 208 174 110 109  46  25  42 102 114 148 163 153 151  27  25  65  98 131 155 184 202 209 199 196 203 204 204 203 205 205 204 203 200 195 194 187 185 176 166 159 149 134 135 140 116 190 216 218 210 196 183 126  30  30  39  40  42  44  44  44  46
  24  24  21  21  24  24  24  23  72  89 177 134  71  47  50  81 103 137 145 158 174 178 181 185 194 199 206 206 207 209 206 204 198 143  66  57  61  49  22  31 114 136 133 123 187 207 195 174 111 141 196 199 201 196 191 195 196 205 206 210 204 202 200 197 192 193 190 182 176 163 161 150 134 132 138 104 197 220 212 222 190 185 119  28  34  36  40  41  43  43  46  44
  24  23  24  24  21  21  23  20  89 106 152 133  93  37  47  72 106 125 141 155 164 174 184 189 195 200 203 205 207 206 205 203 192 175 172 183 158 154 122  88  28  97 117 190 191 181 182 183 194 190 187 197 205 199 194 187 191 192 197 204 204 201 196 194 190 190 185 181 176 163 159 149 133 141 134 112 193 216 216 219 198 200 123  30  28  35  39  42  44  47  46  47
  24  24  24  24  24  23  21  22  56 113 134 140 111  26  39  66 102 119 130 158 166 172 185 191 197 198 199 201 202 201 201 197 187 174 167 168 155 174 160 169 181 169 177 171 174 182 173 177 183 191 182 193 198 193 188 185 178 183 193 198 200 199 194 190 191 187 185 177 175 164 159 145 137 145 124 128 196 209 213 211 197 193  74  28  28  34  39  40  42  45  45  44
  24  24  23  23  24  23  24  21  17 105 123 127 122  18  43  60  95 112 127 149 159 179 182 191 194 194 196 197 198 199 199 190 179 164 179 170 160 165 171 182 147 179 185 196 184 181 190 189 191 190 197 177 195 199 191 184 177 176 182 188 195 197 195 195 186 188 181 179 175 168 160 147 138 138 126 156 197 209 213 203 188 221   0  21  25  37  39  41  43  45  44  45
  23  23  25  22  23  23  21  21  28  23  88 101 109  34  42  57  96 108 127 138 157 175 182 189 192 195 194 195 195 196 186 176 171 163 175 163 182 169 160 179 180 188 174 182 186 197 188 194 197 195 194 188 193 188 192 197 188 172 173 185 191 193 194 191 186 186 182 180 171 167 156 145 140 130 128 171 199 206 200 193 191  17  29  21  26  35  39  41  42  46  45  44
  26  24  21  22  23  23  22  23  22  22   7  14   2   7  40  58  94 103 127 135 158 171 181 189 191 194 193 191 189 201 185 168 168 165 172 173 193 169 177 189 189 184 187 196 205 198 199 195 196 192 198 195 188 190 193 200 198 205 179 178 190 193 196 195 191 183 182 185 174 165 157 142 134 133 127  26 185 186 145  67   1  29  21  22  27  31  39  43  45  43  46  44
  26  24  22  22  22  22  21  22  21  22  19  16  13   5  40  57  92 105 130 135 156 168 184 188 191 195 196 195 197 195 183 165 168 180 178 186 180 180 185 204 197 191 181 207 206 192 193 197 202 201 196 194 187 185 190 197 190 198 199 177 191 195 198 194 192 189 191 181 174 164 157 142 133 129 126  11   5   4  16  22  22  23  20  22  25  31  38  42  45  45  44  46
  26  24  24  24  22  22  22  22  20  20  20  16  12   3  39  53  88 110 129 142 155 169 182 189 196 203 197 196 200 192 188 168 161 169 182 179 173 165 162 149 167 179 196 175 159 162 160 155 162 159 161 187 189 180 184 172 187 181 199 181 195 204 196 194 193 191 188 187 175 165 155 140 132 122  99  19  24  21  22  24  21  21  22  23  26  33  39  39  45  47  47  47
  24  24  25  24  23  22  22  22  22  21  19  15  10   4  31  53  84 117 131 146 151 170 184 193 199 206 200 201 188 198 189 152 150 145 121 128 133 146 144 144 134 135 154 145 137 168 161 146 155 148 147 138 130  91  77  76 151 172 175 192 201 206 199 196 194 193 192 188 177 168 155 141 131 113  53  22  19  24  20  22  23  22  24  25  27  32  36  43  47  45  47  48
  24  24  24  23  22  22  22  22  22  21  19  14   7   4  23  47  76 117 132 144 150 174 184 191 203 210 206 192 163 141  99  60  45  53  53  57  61  58  49  97  91  86  93 100 146 108 166 178 152  93  95  96 100 115 163 183 185 192 192 202 206 208 200 199 190 192 189 187 178 167 151 137 128 113  27  22  18  21  22  23  22  22  23  25  27  33  40  47  48  48  45  46
  24  24  24  23  22  22  22  22  22  22  17  12   8   5  15  43  68 112 128 146 157 173 184 191 201 210 210 201 191 181 169 158 135 136 128 142 112 121 149 206 215 234 217 229 238 203 223 147 118 146 144 145 135 179 196 194 200 207 203 206 207 202 196 193 194 190 188 180 176 165 148 136 121 116   1  21  18  22  22  26  22  22  24  27  31  41  46  49  50  48  48  47
  22  25  23  22  22  22  23  22  21  20  17  11   8   6   7  43  57 101 125 145 154 167 180 193 204 216 213 203 198 198 179 167 147 131 130 144 143 141 149 138 120 125 155 128 122 134 147 155 155 160 152 159 193 191 196 207 207 210 215 213 208 199 195 193 195 189 187 180 176 163 146 135 127 112   9  20  20  18  20  22  23  24  25  29  34  45  48  48  48  46  43  46
  25  22  24  24  22  22  23  23  21  22  18  12   5   3   3  38  51  92 126 138 145 161 176 189 200 210 215 209 189 190 180 173 166 159 130 135 140 152 173 177 181 167 166 173 176 175 169 165 160 156 173 202 198 199 204 203 208 209 213 207 204 195 193 193 187 188 180 166 166 153 139 127 115  74  25  18  20  21  20  21  23  25  25  33  39  47  50  55  51  47  49  44
  24  22  24  24  22  22  22  22  22  21  17  11   4   4   0  35  46  71 105 138 137 159 171 183 199 206 212 201 185 189 188 184 173 163 161 143 135 145 160 163 163 166 160 170 170 167 158 157 173 191 199 200 203 204 204 206 209 209 213 210 199 193 189 184 191 185 183 175 160 156 135 128 110  26  20  20  20  20  19  21  22  22  26  32  43  49  52  54  50  49  46  47
  24  23  24  24  22  21  22  24  22  22  20  13   8   3   1  18  40  59  92 137 139 157 166 181 195 202 208 202 190 185 189 187 185 170 177 174 162 151 150 154 162 166 168 174 175 180 179 186 201 198 199 200 203 207 203 206 204 203 209 207 197 193 192 190 187 189 179 173 161 153 127 119 112   2  16  20  20  20  20  21  21  23  26  33  46  51  50  54  52  47  48  44
  24  25  22  24  22  22  21  24  24  22  20  11   7   5   2   5  32  51  89 121 145 155 153 172 183 195 202 199 173 175 183 178 187 176 179 179 185 181 179 170 178 182 185 183 186 192 193 192 201 200 200 204 205 211 203 206 206 206 207 199 195 187 185 186 189 186 180 173 162 141 119 115  72  22  18  18  20  20  20  21  21  22  29  38  42  49  50  52  49  46  49  47
  26  26  26  23  23  22  22  24  23  21  20  14  11   4   4   1  27  42  69 108 135 153 153 154 177 185 192 188 182 179 180 184 184 182 183 177 177 174 171 177 174 178 182 183 184 186 188 188 203 202 206 206 204 208 201 200 191 197 200 199 193 188 188 185 187 185 182 168 154 117 111 109  16  19  20  19  20  20  20  21  22  25  31  41  46  48  53  53  51  51  47  48
  26  26  26  23  23  23  22  23  22  22  20  18  13   8   5   3   8  38  56  89 134 146 150 154 157 171 182 183 175 179 177 177 189 186 186 181 187 184 181 168 171 157 172 171 169 180 193 204 198 205 207 209 201 206 198 189 204 201 196 194 192 187 186 187 181 180 174 163 142 115 107  85   6  21  18  20  19  20  20  21  21  25  32  37  43  49  53  55  50  50  48  49
  26  26  26  22  23  22  24  24  22  23  21  18  16  10   4   4   2  23  43  70 112 141 152 151 150 158 171 182 176 172 179 184 189 191 191 191 200 195 190 192 173 179 161 169 187 199 198 205 206 203 205 198 200 200 199 197 205 193 189 187 188 187 185 187 181 180 168 147 128  98  84  66  25  21  21  20  20  19  21  21  22  25  32  38  42  47  50  52  50  50  48  48
  26  26  22  26  26  26  23  21  22  23  23  18  15  12   5   3   6   5  38  57  92 130 148 143 145 145 153 170 170 177 179 179 190 187 195 195 193 198 192 197 199 187 185 204 195 197 199 207 208 208 204 200 197 201 198 196 195 192 185 184 181 178 184 183 181 176 160 135 102  88  66  53  20  19  19  20  17  19  20  21  20  25  29  34  40  43  49  49  49  50  49  49
  23  23  26  22  24  21  22  22  24  22  22  21  19  16   7   5   2   1  20  40  74 110 133 139 138 135 133 160 170 168 181 181 188 191 194 200 200 200 200 207 206 203 194 202 201 203 195 211 204 208 203 203 201 202 196 181 193 190 182 178 182 182 179 179 173 163 148 115  89  85  77  35  18  19  21  19  20  19  19  21  20  21  25  27  36  43  43  46  47  48  50  50
  24  23  26  23  24  24  22  22  24  22  23  21  20  17  14   6   5   3   1  24  52  95 117 133 134 123 124 145 154 169 162 175 179 183 191 198 194 201 210 208 201 212 204 208 203 205 210 210 209 205 206 196 197 192 183 194 191 179 172 173 180 181 175 169 162 151 124  95  90  84  96  15  21  21  19  19  20  19  20  23  20  20  23  26  37  41  47  49  48  48  51  54
  26  25  25  24  24  24  22  22  24  21  22  20  21  18  15   8   5   2   5   6  24  63  99 116 133 112 119 113 138 164 162 170 176 188 204 198 201 199 198 208 211 203 207 210 209 189 214 210 205 207 206 209 205 191 187 195 173 174 170 172 177 177 174 166 154 133 101  83  87  85 117   5  20  20  17  20  20  20  20  20  20  21  22  27  36  41  46  48  51  53  54  52
  26  24  26  23  24  25  22  22  23  22  22  23  21  18  15   9   4   2   0   1  18  34  71 100 115 118 104  96 123 136 154 169 176 189 175 199 198 198 206 197 206 207 202 209 209 199 223 211 210 204 203 202 192 196 187 175 157 171 162 170 175 172 164 154 131 103  89  97  98 110 148   2  20  17  20  17  20  19  20  20  19  21  22  28  38  40  44  47  48  52  53  52
  26  22  26  25  25  25  23  24  24  24  23  22  21  19  14   8   4   5   2   3   9  19  39  73  97 114 106  86  96 117 124 151 173 166 188 203 194 198 207 209 215 203 218 206 204 208 191 205 207 206 206 201 183 192 172 165 161 164 158 173 168 160 152 136 112  89  97 108 113 133 133  72  10  21  18  22  18  21  19  20  20  21  23  30  37  40  42  43  46  48  51  53
  26  26  25  26  24  22  24  24  24  24  22  22  21  20  13   8   3   4   3   3   6  17  22  42  73  93 101  95  87  74 113 137 146 182 177 184 207 191 185 210 206 210 207 195 197 205 212 214 208 196 186 180 173 179 146 158 152 167 152 160 155 146 135 115  95  98 114 122 130 144 128 113  87  49  12  20  18  17  21  19  20  21  26  30  38  41  42  45  45  47  49  50
  25  24  26  25  23  24  24  24  24  22  21  21  21  19  13   7   5   4   3   3   6  15  17  25  44  64  81  83  71  69  78 113 124 143 177 171 193 195 204 205 204 211 203 193 207 194 198 198 204 198 180 184 178 131 120 144 153 152 167 147 139 121 120  94  92 112 128 137 144 148 131  48 140 120  82  13  21  22  17  21  21  22  25  30  38  42  42  44  46  48  49  48
  26  26  25  25  24  22  23  23  22  22  24  23  21  19  14   9   3   4   3   1   3  15  16  20  27  39  57  75  69  64  56  70  90 122 153 164 180 185 190 193 190 200 192 207 185 191 194 189 174 186 172 142 150 121 137 146 148 152 136 131 129 119 100  84 114 137 145 153 152 149 147  12  70 120 113  77   8  17  22  19  22  20  26  31  37  41  42  43  45  48  51  51
  25  25  27  25  23  24  24  24  24  24  24  23  21  19  14   8   5   3   2   3   4  37  20  13  23  30  37  50  67  68  53  52  52  88 109 152 155 158 163 171 168 185 184 184 180 189 183 164 182 156 164 108  97 125 121 112 148 122 131 121 111  93  89 118 142 145 158 163 163 141 147  42  50 144  67  81  46  19  20  17  16  18  25  33  39  43  42  44  46  49  50  49
  26  25  25  26  24  23  24  24  24  24  24  23  21  19  14   9   4   3   2   3   2  34  59  28  15  21  31  41  45  58  57  53  44  44  77 104 137 152 156 160 161 163 157 161 149 173 154 152 133 122  82  90 111 131 136 130 128 129 122 103 102  92 117 146 159 163 168 171 150 170 148  55   0 137  99 120 102  88   5  27  22  23  25  36  40  41  43  44  44  46  49  50
  25  26  26  25  25  22  24  24  23  24  23  23  21  19  14   7   4   2   3   3   3  15  59  70  47  19  20  30  36  42  52  60  53  49  36  50  70  87 103 113 106 123  97 108 106  89  89  87  78  69  95 117 131 130 122 124 114 112 101  99  96 125 150 157 169 175 177 168 180 166 151 105  23 126  63 139  78 121  59  11  17  25  30  37  40  42  42  43  44  44  48  53
  23  23  25  26  26  26  22  23  24  23  23  21  20  19  16   9   6   3   3   4   3   4  63  66  76  67  16  25  29  35  41  48  53  55  62  57  41  40  46  55  54  73  70  76  72  57  69  85 104 137 128 119 109 113 109 103 107  93  95 103 135 157 161 176 180 185 178 179 180 176 159 116  37  71  60  72  50 118  83 115  16  26  32  39  38  39  42  41  42  42  48  53
  26  26  23  23  23  22  24  23  23  24  21  22  21  20  16  10   6   3   3   3   3   1  56  74  77  80  80  23  23  28  36  42  48  49  52  64  85  84  84  86  98  78  80 100  98 104 115 109 129 107 119 106 108 104 105  94  91  96 111 144 165 171 178 184 189 177 193 187 179 176 162 131  61 119 112 129 128 116  78 107 129  31  35  39  42  38  43  43  43  45  47  48
  26  26  23  24  24  24  24  25  24  24  21  22  22  20  17  10   5   3   3   3   3   1  61  65  80  87  79  86  48  25  28  36  38  43  49  49  53  61  78  85  88  93 103 100 109 108 107 109 106 103  91  91  90  93  93  94 103 126 154 163 175 182 187 192 177 205 192 187 184 178 160 120  68  29 116 123 102  80 122  91  84  96  41  27  43  47  42  42  43  43  43  43
  23  22  24  24  23  24  24  24  24  24  22  22  20  20  17  10   6   5   2   3   2   0  58  79  75  86  88  85  83  71  48  33  29  36  42  45  48  57  61  68  81  82  90  99  86  97  89  91  96  92  88  85  85  85 100 129 148 161 166 184 187 196 185 188 206 195 197 191 189 179 163 113  70  36 183 133 120  95  89  83 152 160 110 106  51  36  41  42  42  42  43  44
  24  26  23  23  25  21  24  24  24  24  22  22  22  21  19  12   6   5   2   1   4   1  63  78  93  79  88  93  83  81  72  71  64  53  52  48  50  55  56  61  71  65  82  79  83  83  85  89  89  89  87  94 118 136 153 158 172 177 184 191 193 189 204 206 200 199 197 192 188 179 160 101  90  76 178 165 121 108  70 102 130 111  50  63 114  82  37  43  46  44  45  47
  26  26  23  25  23  24  24  24  24  23  22  22  22  22  19  12   7   1   1   4   4  12  64  80  90  98  86  90  89  86  84  85  81  79  74  72  59  58  57  60  67  65  73  78  81  87  94 105 108 119 141 151 161 169 170 179 180 189 193 187 203 208 203 204 201 201 199 191 185 179 155  94 114  84 112 135 126  97 102 108  84  25 144 206  93  73  93  56  40  44  43  44
  26  27  22  26  24  24  23  24  24  24  23  23  21  23  19  12   7   3   4   1   9  66  52  77  96  95 101  87  90  89  90  90 114 124 127 133 135 125 125 117 112 111 123 124 126 131 149 159 164 171 177 183 187 186 185 188 190 190 201 214 204 208 205 204 202 201 198 190 185 174 149  97 119  53 122 141 148  80  95  66 150 164 142  40  73 122 116  99  92  40  38  43
  23  21  25  26  25  22  24  24  24  24  22  22  22  20  18  12   6   0  10  12  25  83  59  94 109 117 106 123  92 104 107 129 113 143 152 161 164 165 166 162 164 158 165 170 170 174 181 187 184 189 195 193 195 197 197 189 199 211 206 208 205 209 204 205 201 199 194 191 182 167 152 108 140  88 147 140 120 135 117 145 102  94  67  99 166 123  83 177  78  69  82  41
