P2
# Generated by OpenCV 4.2.0
92 112
255
 179 183 182 184 181 182 177 177 175 197 115  29   4  43  96   0  34  67  97 134 173 134 123 147 116  84  86 118 109 107 101  66  53  47  20  11  44  14  41  36  43  47  64  51  45  47  41  42  40  66  62  67  65  75  97  93  82  80  65  49  25  31  38  68  76  67  53  52  55  72 101 149 164 173 175 178 188 181 183 186 188 187 188 185 184 185 184 182 183 181 180 183
 182 181 180 178 182 176 180 178 178  61 139  29  37  31  80  20  20  51 125 124 170 147  96 101  71  93  96 115  89  46  45  25  35  26  21  17  23  19  41  40  40  38  30  44  79  87  52  40  63  34  18  41  55  79 101  91  48  42  72  69  65  27  23  52  66  68  72  24  65  40  34  99 143 171 183 168 186 180 181 187 183 185 185 185 185 183 185 183 184 182 183 183
 180 179 181 178 177 181 177 163  62   2  27  46  10  42  16  10  45  73  98 111 111  59  49  73  76  71  69  42  53  25  32  24  26  22  28  21  23  16  31  39  73  81  75  60  34  44  82  91  42  70   6  11  45  58  66  67  72  37  35  52  63  74  52  23  43  76  67  63  19  71  51  52 127 117 154 173 168 178 184 188 183 185 184 184 186 184 182 184 184 182 182 182
 181 180 182 179 186 177 160  24  35  32  80  39  16  31  30  38  69  61  90  96  89 113  67  67  91  88  88  49  28  20  39  33  32  30  16  23  28  31  32  60  79  73  71  49  41  28  39  43  73  71  45  22  13  12  46  79  55  41  46  36  22  39  40  43  15  57  74  73  37  36  71  60  78 101 106 149 174 179 177 183 182 185 183 186 186 185 185 184 186 184 182 181
 182 184 183 179 183 126  45  36  24  64 122  22  35  30  42  67  53  71  96 113  93  99 106  61  82  81  60  40  20  39  51  36  36  26  22  34  17  24  35  60  83 115 116 103  97  32  52  62  35  70  84  59  35  12  26  45  65  70  54  40  50  36  27  34  37  25  61  69  67  18  75  38  43  65  61  54 109 172 182 185 184 179 186 186 184 186 186 184 185 184 182 180
 182 183 184 180 163  81  76  45  87  71 144  44  61  34  63  77  89  73  78  90 102  52  61  50  30  39  36  36   6  94  45  57  33  36  35  23  30  34  29  67  76  89  98  94  74  44  58  67  70  37  56  85  50  59  40  22  38  35  47  66  42  23  21  31  26  17  45  56  82  40  53  22  29  60  63  66  64  38 140 186 178 183 187 182 187 184 183 185 184 182 180 181
 184 185 185 180 123 141 135 131 143  52 140  51  92  65  58  99 118  82  99  68  70  67  37  25  34  20  18  24  35  96  35  47  61  43  16  24  34  26  30  31  35  36  11  17  31  31  36  31  25  68  38  55  58  50  51  48  74  64  84  61  66  52  29  27  26  19  19  58  50  36  17  42  32  35  56  59  56  67  46  98 190 177 185 185 183 185 183 185 184 184 182 183
 183 183 182 166 158 163 137 128 167 127  90  54  86  84  70  83  76 117  99  88  64  27  35  24  19  25  23   0 121  51  61  76  39  36  34  21  36  26  13  18  20  13  67  61  36  38  19  19  36  47  33  38  44  49  37  55  64  84  85  95  74  53  33  20  25  34  20  52  61  45   6  51  26  34  50  55  47  65  47  39 104 191 176 185 185 185 183 184 184 182 184 184
 185 184 180 182 176 115 126 116 151 140  70  66  79  97  99  85 107  81  95  80  63  46  30  29  23  20  10  28 177  12  76  68  56  44  39  47  25   6   5   6   4  77  14   4  20  34   5  12  36  64  65  22  37  43  36  31  50  56  60  64  66  60  31  33  33  39  36  49  44  59  20  45  16  21  22  57  51  34  35  57  27 114 184 179 183 184 184 185 185 182 184 184
 184 184 186 184 163 101 119  61 107  95 102  80  84  91  86 104  90  89  81  47  57  46  42  19  27  22  13  79 111  38  91  31  43  30  52  63  35  20   5  17  33  11  17  17  43  18   6   7   1   9  86  53  32  38  31  24  21  44  43  33  31  33  41  25  37  44  30  49  41  48  29  32  42  31  28  38  45  49  38  32  49  36 139 186 179 187 183 184 184 183 182 184
 184 184 187 179 129  98  75  56  63  71  71  97  71 103 106  85  94  85  58  57  39  39  30  28  11  15  18  61 104  75  81  53  43  37  57  53  54  16  21  17   4   9   1  44  66   9  11   7   0   1  35  96  36  31  31  22  32  27  10  33  46  48  40  24  45  68  29  57  38  39  51   3  28  20  29  31  53  49  54  40  32  43  78 168 185 177 185 183 182 184 185 181
 182 187 187 172 106 129  32 125  31  68  61  97  74  68 104 102  99  96  75  54  48  48  38  34  11   6  20  46  68  47  61  60  41  65  63  75  46  43  32  11  22   5   8  46  52   0  24  12   8   3  14  56  58  40  17  24  18  32  39   4  25  25  29  37  66  69  64  55  38  41  47  20  38  33  31  39  47  47  56  47  35  30  49 116 181 183 186 183 184 183 185 182
 186 189 181 186  87 169  71  80  91  20  64  58  83  91  58 108 134 117  94  69  51  54  24  22  14  15  39  49  87  65  51  62  52  77  63  94  45  93  24  34  23  31   6  66  61   8  28  10   3  25   3  42  87  46  16  20  10  29  24  24   4  33  34  51  86  71  78  46  44  34  33  36  40  22  30  36  42  46  65  72  52  24  39  75 147 189 182 185 185 186 184 184
 192 184 185 182 112 129 117  42  64  35  21  47  56  80  85  71  84 107 122 125 117  90 101  59  38  31  47  61  72  74  58  94  63  87  60  93  45  83  64  49  53  21  35 109  46  49  29  47  28  38  12  52  83  35  16  16  13  16  29  17  29  23  24  17  48  62  68  53  41  34  36  42  25  23  33  43  42  40  45  82  50  39  51  42 120 167 186 182 187 186 184 184
 189 184 172 177 156  72 148 102  29  28  24  35  60  42  67  84  73  75  70  98 118 117 108 107 105  86  87 123  73  96  72  93  60  77  72  79 125  54  88  74  44  48  39 122  69  40  97  62  28  38  26  53  77  53  22  19   9  21  23  26  24  22  34  54  47  60  74  48  77  24  32  43  22  24  40  43  32  42  47  71  72  45  30  53  60 170 183 185 183 185 184 186
 186 181 148 129 158 133  79  67  38  27  27  62  48  81  81  67  68  82  67  58  97  91  82  58  76  68  73  98  86 100  97 110  96  73 100  94  95  46  92  86  81  56  78 157 124 139  83  59  29  70  35  48  70  62  18  23  15  11  47  30  38  39  36  33  52  81  57  43  50  20  27  39  22  53  55  34  40  39  38  74  84  59  43  28  50 111 183 180 187 185 186 186
 185 181  55  15  72  67  69  36  23  39  30  52 121  70  68  93  92  70  89  77  60  75  83  83  70  54  66  84  98 116 136 135 118 116 146 106  82  74 131 128 136 107 162 158 139  96 100  82  83 101  49  50  59  59  33  23  26   4  25  52  51  57  71  46  58  58  34  40  33   7  18  37  55  33  14  31  30  35  46  70  88  66  47  40  44  61 165 185 186 185 185 185
 160 121  33  29  58  83  92  63  50  17  64  70  69  98  67  55  94 133 111  96 111  88 103  89  90 103 113 137 116 153 152 148 144 176 150 140  64 105 140 148 138 115 116 142 114 145 124 125 128 109  75  61  65  56  38   3  22  15  25  46  60  69  63  71  68  44  29  25  41  20  14  49  53  16  15  39  24  33  48  61  85  63  51  28  37  47 133 180 181 185 184 183
 132  54  31  14  30  50  46  65  40  51  93 102  94  60  56 133  93  64  31  31  58  61  87 120 126 152 149 158 191 184 148 170 184 156 186 139  68 121 171 170 133  82 138 127 141 135 147 150 139 120 103  63  71  51  33  16  15  18  27  42  46  74  66  66  59  55  41  26  39  36   8  55  42  12  29  31  24  31  57  58  64  64  37  37  35  54  65 190 183 184 185 187
  44  40  42  85  10  39  39  28  45  34  54  89  56  64  96  26  57  67  54 103 126 157 167 163 172 182 194 177 204 205 140 199 206 155 196 141  70 160 176 154  96 143 154 135 155 160 156 150 133 129  88  64  86  50  23  13   5  21  25  44  53  49  42  43  48  58  41  47  31  56  42  42  39  41  39  20  22  30  53  53  60  46  36  30  32  31  46 169 179 182 187 183
  56  23  50  83  50  11  70  53  10  25  17  48  68 131  29  35  23  76 134 180 188 200 191 202 197 201 207 166 211 207 178 166 196 212 172 107  93 174 193 122 100 140 142 139 152 164 153 153 115 147  66  74  81  56  13  15   2  14  36  39  45  56  65  61  44  41  43  48  47  55  50  45  23  40  17  26  22  31  39  53  55  23  31  36  22  37  37  96 192 179 187 183
  46 136 114  24 110  76  84  68  32   3  21  37 137  63  38  31  79 165 200 209 213 213 211 206 216 209 216 197 202 218 221 151 189 216 193  93  63 164 168 120 118 139 147 126 142 136 127 125 104 125  73  87  78  54  11  16   9  15  26  35  58  60  71  85  88  56  33  40  53  60  58  33  34  30   8  33  15  22  32  40  36  16  25  19  33  21  29  65 160 186 182 184
  62 158  98  21  56  84  74  92  73  12  35  39 147  57  20  54 167 204 214 214 214 219 216 215 221 214 216 213 171 217 225 227 132 200 180  79  87 152 126  94 153 132 117  97 119 108 122  99  94 104  97  71 104  29  23  17  16  22  24  29  53  41  67  59  63  73  68  55  38  47  62  57  40  36   6  47  10  24  19  21  38  30  27  29  39  27  28  49  75 192 184 185
  76 133  56  73  84  74  73  64  76  30   8  68 104 104  44 152 193 207 210 212 214 212 217 219 220 219 217 216 229 178 225 234 217 112 129  44 149 147  77  96 120 107 101 108 132 136 137 104  95  73 135  47 119  18  23  14  17  19  19  29  38  30  30  48  50  38  38  43  37  31  37  52  31  12  33  46  11  39  17   4  46  25  36  29  55  24  36  41  76 154 182 185
  98 112  65  61  37 102  55  59  33  25   1 136  25  57 106 196 197 208 212 215 217 213 216 215 220 221 225 229 231 217 199 213 215 198  68  53 187 163 101 107  62  91 101 120 109 139 153 123  71  71 105  99  94  30  33  15  15  25  10  27  33  25  28  33  47  51  58  47  48  35  39  32  31  20  65   3  23  29   6  22  39  24  33  44  48  27  38  46  48  94 186 182
 174  64  74  40   4  55  70  33  30  32  44  85  17  52 173 203 200 211 215 213 215 214 214 214 217 219 219 225 222 227 221 202 193 156  66 102 113  86  79  83 104  79  91 118 128 132 147  95  48 112  62 125  52  36  35  36  26  25  20  34  28  18  22  21  28  41  48  25   5  15  34  40  21  32   5  11  32  16  26  23  30  30  29  49  45   9  34  37  81  82 154 181
 171  67  75  22  13  37  30  37  37  40  57  46   3 125 184 205 200 212 211 210 206 208 216 214 218 220 227 232 228 223 218 198 204  70  36 190 144  83 133 136 104 125 129 115 138 140 113  76  80  93  85 107  44  49  41  59  55  44  35  36  35  33  31  33  38  42  48  46  26  28  24  45  27  42   5  30  32  26  23  28  21  24  34  59  51  21  18  43  67  82 112 183
 182  44  47  28  50  44  33  37  42  37  55  30  18 170 191 201 200 213 206 207 213 211 219 219 220 226 225 223 230 223 222 213 117  44 160 201  65 174 167 130 125 126 140 153 139  63 104  72 109  42  82  71  31  50  45  61  84  76  63  49  51  38  48  56  59  67  75  75  77  53  46  28  49  25   3  27  29  47   6  41  19  18  33  65  43  35  20  30  59  95  66 193
 196  57  49  42  44  36  40  16  31  39  32  21  80 195 205 192 207 207 205 216 211 212 223 221 227 228 227 225 216 221 224 158  90  63 182 101 132 176 146 125 118 139 151 124  54 126  95  75  67  33  73  41  22  66  38  62  75 103  85  78  80  86  86  96 107  87  89  68  88  51  58  26  41  23   8  19  51  26  33  44  14  23  52  46  47  45   5  10  43 138  55 177
 173  57  40  45  54  30  26  45  28  22  24   7 144 205 209 202 195 207 205 202 210 217 224 231 227 225 232 227 218 203 169  91  34  70 129 172 139 149 128 131 136 101  48 111 117  68  63  79  12  38  12  26  63  70  69  30  77  98  94  92 100 118 107  98 101  96  79  68  79  62  46  37  31  38   6  32  38  29  48  23  40  20  45  49  31  58  27  15   7 142  88 174
 145  59  31  57  24  23  30  39   7  10  19  37 197 200 203 197 204 197 211 212 214 222 205 219 228 222 215 229 214 197  83  64  88 149 154  98  72  78  52  34  81 118 132  63  44  59  68  23  14  25   9  17  78  92  94  70  36  47  83 108  89 104 101 109  98 101  86  76  56  70  52  33  18  45  18  50  20  43  55  33  34  33  52  26  38  28  53  17  14  17  93 168
 142  47  45  44  41  24  32   0  19  29   4 125 200 200 206 193 218 189 193 209 215 222 226 226 226 226 227 214 204 106  72 158 153  99  38  53  62  56  64  65  56  34  33  50  57  61  29  19  18  33  39  40  22  68  85  98 107  94  74  75  45  79  86 109  91  94  93  70  60  51  56  33  18  39  38  32  22  54  48  25  14  38  45  24  19  35  40  31  23  23 100 173
 128  79  56  32  28  25   8   5  16  42  18 178 203 206 201 171 214 208 161 196 209 221 229 225 231 229 220 161  80  24 148 218 182 172 165  52  39  34  34  38  28  43  51  56  46  42  52  35  60  63  76  68  56  35  20  28  65 113 127 103  91  91  78  76  79  70  64  46  43  47  45  33  14  36  35  22  27  45  52  21  18  13  38  39   8  27  37  45  27  34  44 176
 163 100  20  33  22   5   1  32  34  53 104 197 202 198 206 169 183 217 174 115 199 216 229 197 214 214 157  80  93 178 231 222 188 120 116 159  65  52  30  43  58  54  68  62  74  73  68  86  84  93  97 103  94  91  76  65  63  42  65  88 118 121 114 110 110  95  98  85  69  55  39  31  15  37  18  28  26  42  49  23  17  11  22  46  12  11  31  35  24  25  41 174
 163  32  12  26   9   1  45  27 102  81 167 190 202 205 204 199  84 190 216 129  97 171 198 192 166  72  40 105 226 221 197 158 142 153 129 104 127  67  96  80  69  72  76  84  88 101  96  99 104  99 109 119 115 113 106  97  97  99 103  83  38 100 133 118 115 120  99  87  77  55  52  39  24  26  11  20  18  45  16  35  20   9  14  32  24  10  20  26  22  21  60 166
 166  71  19  21   7  22  21  50  82 145 180 195 201 202 208 218 194  78 131 180 122  79  63  45  66 145 202 199 168 147 143 173 189 204 195 167 144 103  94  92  93  86  96  95 101 106 118 122 127 121 134 129 133 120 114 125 127 109 101  98 126  75  69 129 119 112 130  95  84  74  51  42  31  21  14  21  13  44  13  36  24  16  15  13  35  34  13  27  26  18 107 176
 150  90  29  27  21  20  48  67  60 169 183 191 204 204 207 206 205 198 139 133 139 184 166 121  89  89 102 102 136 163 202 201 211 214 209 202 182 143 126 126 111 105 105 113 128 127 139 144 143 143 149 142 126 112 116 117 128 137 110 103 107 123  95  64 131 122 116 110  92  73  58  53  26  15  15  21   5  41  24  34   5  17  11  11  25  34  13  31  16  11 114 183
  82 138  22  24  30  50  32  30 118 186 182 194 201 200 214 204 208 209 206 176 155 161 158 168 167 158 180 193 214 210 215 224 224 217 213 205 195 195 167 168 168 163 158 161 165 168 170 169 168 163 163 162 141 135 141 141 139 128 143 124 104 109 139  91 121 127 130  99 100  73  60  39  30  26   7  30   8  27  10  26  13  12  15  15  19  23  25   6   9  18 169 182
 114  89  45  45  28  48   8  24 124 186 189 200 201 201 203 203 210 221 224 214 218 211 219 207 216 220 224 225 226 224 225 221 225 223 222 220 210 201 197 183 185 191 187 185 193 192 190 188 183 178 175 171 162 147 149 145 122 147 154 142 127 111 123 150  22 144 113 114  96  82  61  59  56  26  17  39   7  11  15  22  11  23  19  22  15  28   8   6  10  29 181 182
 170 149  62  17  26   0  14  13 144 187 189 196 199 201 205 210 213 214 217 221 221 214 222 227 224 227 226 224 230 228 218 225 228 227 218 219 218 211 210 201 191 199 199 202 205 205 204 199 197 194 185 176 165 159 145 139 157 160 151 148 143 122 110 142  92 132 116 106  92  76  67  57  71  24  19  33  10   7  11  15  15  14  29  39  19  15  10   6   4 100 184 182
 163 185 116   7   5   3  19  27 152 200 199 202 202 204 207 211 217 221 227 227 222 225 227 229 226 224 229 225 226 228 217 224 225 224 221 222 216 216 213 210 196 201 206 213 206 206 203 201 199 198 193 187 172 173 158 168 165 159 156 153 144 137 106 132 141  80 130 115  97  79  64  57  75  52  18  24  13  13   6  19  19  14  12  39  29  14   8  12  19 162 182 181
 177 174 152  18   4  10   7  23 167 191 187 193 202 205 209 213 215 224 227 226 227 231 227 231 225 227 230 220 223 231 229 227 234 233 225 222 222 222 216 214 212 206 209 209 211 211 207 205 202 199 192 193 182 179 166 173 168 160 156 151 147 149 130 126 138  62 127 102  98  82  70  57  53  66  12  25   6  10  10   9  18  16  15  14  33  33  16  15  81 182 181 184
 186 184 176 101  14  12   9  50 184 189 192 198 203 204 213 212 215 226 224 228 230 233 237 234 228 227 227 230 234 227 234 232 237 227 226 219 224 220 224 219 213 207 213 209 213 213 209 202 201 201 193 188 185 182 168 172 168 166 148 151 148 149 135 130 131  64 139 112  97  81  59  62  47  72  28  14  17   9   9   9   8  10  27  20   8  21  36  21 165 179 182 182
 189 188 186 165  69  13  21  71 187 193 193 196 199 203 211 216 219 226 227 235 235 243 237 230 231 228 232 235 233 225 231 229 230 223 227 223 229 226 226 223 219 222 219 211 209 210 208 207 202 198 196 192 186 180 174 164 167 163 153 151 148 144 141 115 130  87 133 133 110  92  70  59  51  66  39  24   7   9  13   9  16  14  11  26  32  26  28  98 191 179 183 183
 185 183 187 182 113  16  13  51 191 185 189 198 202 205 209 217 218 227 232 234 237 238 237 230 229 228 228 227 218 223 224 230 225 220 223 233 231 231 228 231 226 216 212 212 204 202 209 196 204 196 190 185 180 180 170 166 162 158 152 144 143 142 145 106 113 121 139 135 135 114  92  62  63  56  38  22   8   6   9  14  13  13  23  25  26  31  26 164 183 183 185 185
 183 184 182 184 147  17   5  69 193 187 186 199 209 212 213 216 216 219 223 222 223 220 226 220 226 225 223 222 217 219 224 222 216 221 221 226 228 226 222 225 216 202 212 201 192 188 178 178 185 169 186 182 172 168 169 170 169 156 152 143 136 133 129 117 109 130 139 137 130 127 123  71  53  59  75  27  22  11  11   8  22  22  23  24  41   5 137 190 182 184 183 184
 186 189 188 187 170  27  11  47 187 181 186 200 219 208 212 207 204 211 215 215 217 214 212 218 221 212 209 212 213 217 215 216 211 213 219 227 219 221 207 198 191 188 161 135 133 135 137 132 136 140 140 137 133 148 127 148 151 154 150 141 142 130 122 123 117 123 136 132 129 129 124  88  65  73  66  12  18  11  13  10   4  20  36  35  38   9 172 185 184 183 185 186
 186 184 189 183 191  56  11  43 191 183 185 182 191 192 183 172 170 174 174 181 188 193 203 210 209 210 212 210 211 216 212 213 209 211 220 213 203 201 168 173 148 114  87  63  59  70  62  60  70  81  77  85  81 101 109 110 122 150 149 141 136 122 118 128 132 138 133 133 130 130 129  83  90  48  66  20  30  20  13  16  19  16  21  16  12  16 184 187 184 185 185 186
 188 186 183 188 197  73  64  53 189 195 164 101 143 129  78  85 130  90  62  90 114 157 192 201 207 207 198 205 212 209 213 210 209 214 214 200 191 177 156 141 129  94  60  61  55  34  38  37  33  22  35  46  68  85  83  90  80  95 115 128 141 129 133 131 135 134 136 134 134 130 131  95  98  40  61  17  17  13   7   9  10  23  23  25   4 154 183 185 185 185 184 185
 187 189 190 184 179 178  32  63 185 104 135  94  63  55  80  82  57  47  59  46  72  81 124 158 189 198 199 204 210 211 210 207 207 201 200 194 167 132 116 129  93  72  42  57  52  50  39  55  60  69  64  53  44  57  64  61  70  57  87  94 138 140 139 134 133 138 137 140 131 135 138 105 111  39  43  12  21  22  14  15  15  18  28   1  72 185 184 185 186 185 184 186
 187 189 188 181 191 166 120  65 125  97  72  90  58  62  55  31  28  35  37  47  73  67 102 110 160 193 195 196 209 206 205 204 198 202 203 181 132 140 104  88  74  63  64  74  79  90  88  84  87  95  97 104 102 106  89  73  65  74  76  56  83 119 145 136 133 134 133 145 139 142 139 109 106  37  37  15  18   7  13  23  18  26  10  23 148 193 186 182 183 183 183 184
 188 187 188 188 188 182 183  92  34  79  84  75 108 123 105  87  57  49  57  56  73  99  82 104 133 176 187 194 199 197 199 194 199 195 185 160 128 102 107  89  83  94  95  92  85  82  81  91  99 101 112 119 127 125 126 110 130  91  79  75  68  82 138 127 136 136 135 135 138 140 140 144 106  43  47  15  27  13  15  14  19   9  45  83  76 138 190 185 184 182 183 183
 188 186 188 189 188 177 151 180  84  91 130 152 146 126 138 118  98  84  78  81  91  87  93  87 112 154 177 182 190 198 191 188 186 183 173 148 137 109 107 101 102 100  91  76  78  73  85  94  98 106 117 117 124 134 129 137 118 118 104 110  84  64  81 133 132 139 132 137 136 141 146 139 137  43  49  24  23  18  24  14   8  41  76  93 125 103 160 183 183 182 183 182
 186 186 185 187 190 187 173 145  97 159 164 163 153 145 142 121 110  93  77  72  76  81  94 104 107 136 160 181 185 185 195 189 180 172 164 149 130 109 109 104 100  79  78  68  74  84  79  89  90  91  98 101 107 108 110 113 130 117 118 111 111 106  57  80 113 133 135 140 141 138 147 152 138  79  59  28  18   7  18   2  29  77 111 112  86  57 119 190 185 180 182 182
 188 185 184 185 187 193 191 147 138 158 161 156 135 112  97  90  82  80  78  71  67  69  74  90 101 113 139 168 179 182 184 176 173 159 145 134 124 108 108  98  84  72  67  63  66  65  67  61  65  64  56  65  76  81  86  97 100 108 101 109 108 115 110 115 129 139 141 137 143 146 142 146 134  80  56  43  45  19  19  20  40 117 120 106  91  64  92 188 180 182 181 182
 189 188 188 186 191 187 174 177 143 137 133 119 103  78  60  40  56  70  77  64  42  48  69  74  82  99 120 150 171 181 185 177 167 154 141 119 118 109  96  80  72  65  68  64  47  34  41  68  80  78  64  43  39  57  75  76  82  92  99  99 106 108 118 124 126 140 139 143 146 150 155 150 148  98  50  44  42  32  17  36  64 103 125 100  97  59 101 192 181 185 183 183
 189 188 190 191 185 187 189 195 155 119 111  83  67  27  77 173 209 220 202 181 147 104  53  60  72  80  99 140 176 188 189 185 175 157 142 127 121 107  84  67  70  65  59  34  49 102 135 158 150 139 143 125  97  53  43  68  74  84  86  89  97 105 115 123 127 134 137 141 147 152 156 154 154 114  52  31  44  46  45  34  77 131 126 111 100  61 111 195 182 181 183 182
 187 189 187 186 185 187 180 182 169 123 100  70  25 100 177 148  88  43  55  62  45  89  99  69  59  75  70 122 175 200 214 210 194 170 145 127 120  98  77  64  66  59  42  67 107  85  52   9  25  25  39  61  84  92  64  51  64  80  83  85  91 104 111 121 125 132 139 141 143 152 152 153 156 118  59  34  62  82  59  90  94 145 119 109 117  63 123 183 183 184 184 184
 187 187 189 188 188 187 186 184 178 145 126  85  94 127  56  24  60  50  50  39   0  34  14  58  79  76  89 104 186 213 225 217 202 181 161 134 125  98  62  65  57  52  63  58  31  57  52  96   6   0  25  15  19  50  78  74  60  61  73  84  94 104 115 123 128 132 135 133 144 152 147 147 162 118  50  32  32  39  51  86 103 159 128 129 112  81 149 186 182 184 183 184
 188 185 187 188 188 191 190 183 188 169 139 118  72  36  24  78 160  54  76   9   4  95  29  51  45 124 131 132 188 220 229 225 207 186 167 143 130 112  86  79  74  65  46  42 119 172  46  46   7  49 103  22  96  44  21  40  63  67  73  84 100 111 123 131 130 133 137 137 149 147 148 151 165 121  62  28  39  57  79  90 126 170 144 141 117  86 155 183 181 183 181 183
 185 183 185 186 186 187 182 185 197 186 151  83  66  76  77 120 144 119  47  65  47  77  51  62  19  60 181 169 203 224 229 223 212 195 179 150 132 126 124 125  78  27  28  84 147 181  96  54  34  28  61  49 105  48  32  22  36  71  83  82  98 113 128 137 142 138 139 144 147 148 152 150 147 132  86  46  58  63  75 133 159 164 138 140  97  82 185 184 183 182 182 181
 183 185 185 184 186 186 183 186 202 188 168 155 134  93 104 131 178 187 127  94  82 126 148 122 155 199 191 187 212 224 229 219 211 192 182 159 139 129 139 147 179 175 180 178 183 170 183 132 101 112 135 116 100  77  74  78  82  94  95 107 115 130 143 148 142 143 141 144 152 149 149 139 153 133 102  60  50  62  56  85 115 126 144 159  54 112 192 187 183 180 182 183
 185 184 184 184 186 184 183 184 209 204 195 186 162 151 140 117 140 168 188 191 175 166 142 174 188 179 194 199 207 223 226 216 208 193 176 160 147 139 143 149 160 141 161 174 179 170 130 132 121 135 125 129 129 112 116 102 104 113 124 133 147 156 156 164 149 146 145 145 155 156 152 144 162 137 105  90  52  38  51  80  99 108 141 151  66 115 193 182 183 181 183 182
 185 187 184 185 183 184 179 191 210 210 202 192 169 136 149 161 155 142 136 120 107 108 141 165 170 195 207 204 213 227 225 219 203 187 158 154 146 151 154 167 172 164 153 123 132 136 144 138 129 122 112 117 105  93  97 102 111 115 127 145 153 163 168 169 160 150 146 154 153 148 145 141 146 156 127  78  93 102  79  67  83  80 106 134  85 161 185 182 184 184 182 184
 182 184 183 185 183 185 179 192 204 209 206 209 193 160 121 106 103  98  78  83 106 134 153 167 200 211 210 200 221 232 229 218 195 178 160 156 146 157 169 173 189 193 172 169 142 110  88  89  90  87  98  98 100 104 113 131 144 147 152 161 167 172 173 168 162 147 146 153 155 152 149 144 143 148 139  82 101 141 102  76  67  66  96 130 104 190 185 182 182 184 184 183
 181 184 183 184 180 184 175 187 205 206 209 210 201 196 178 159 149 131 144 145 161 177 200 213 215 215 205 201 220 234 224 217 189 168 157 160 156 165 174 179 186 204 207 191 184 173 166 145 121 109 113 111 119 137 155 163 169 179 179 178 176 176 172 168 156 147 150 154 159 149 151 136 136 148 140  95 130 160 115  81  56  65  99 130 133 191 183 182 183 183 182 182
 186 186 182 180 183 186 175 188 202 207 209 215 215 211 208 198 192 188 187 197 207 214 224 221 214 216 205 202 223 229 217 197 174 166 157 154 158 169 186 191 190 199 214 205 205 194 189 181 175 174 167 170 176 185 189 189 194 187 192 184 183 184 172 165 157 143 146 158 158 151 152 141 139 135 130 133 140 170 109  71  56  69 109 108 172 186 184 185 184 184 183 181
 184 185 181 180 184 186 174 191 193 200 202 213 216 220 220 218 219 221 221 226 221 228 228 214 215 211 202 202 222 230 216 191 172 155 150 162 171 178 189 196 204 206 208 213 212 213 212 212 211 204 209 205 208 208 207 203 203 191 190 188 179 181 176 161 146 140 143 152 155 150 145 137 133 134 136 126 162 153 102  62  53  76 122 111 191 184 185 186 185 186 184 182
 186 182 179 180 181 182 173 180 192 199 204 212 215 220 221 223 227 222 220 226 223 221 216 218 218 209 201 206 231 222 207 190 167 152 161 166 173 182 192 194 205 207 209 211 217 223 225 221 215 216 216 215 213 214 211 201 201 190 187 179 175 171 165 150 141 137 152 155 146 146 135 135 138 145 132 144 144 123  78  48  57  96 138 124 189 186 185 185 183 184 185 183
 186 181 179 180 181 180 177 176 190 192 203 212 218 212 218 216 225 221 229 222 221 218 217 212 211 207 202 210 231 220 200 183 171 164 160 157 165 168 180 186 207 207 214 212 215 222 222 219 222 222 219 216 216 214 208 203 200 192 192 180 171 164 157 144 141 140 146 153 143 143 135 134 145 142 126 140 110  72  51  54 103 130 106 142 186 186 186 185 185 184 181 182
 185 181 181 183 182 183 181 174 187 194 203 203 206 217 216 216 223 216 215 217 216 215 218 209 201 200 201 219 235 217 203 190 178 169 151 134 124 134 138 158 191 200 214 215 217 217 219 223 223 221 218 217 213 209 212 201 199 192 187 175 165 158 146 138 134 139 149 148 139 138 141 132 142 128 127 106  56  55  84 114 129 106 101 152 189 185 186 184 185 183 182 181
 186 181 183 183 183 182 184 170 178 195 204 210 211 214 212 218 224 211 211 216 214 213 208 195 193 200 204 228 238 214 206 195 188 175 159 124 127 133 132 133 152 190 206 214 215 216 220 222 221 218 215 217 216 210 209 204 202 195 178 172 154 143 129 131 128 137 151 144 133 132 129 137 132 121 132  60  50  70 101 150 118  96 107 165 185 187 184 184 185 182 180 181
 183 181 180 183 183 181 181 163 180 192 204 207 208 213 215 220 221 218 216 212 211 206 191 191 204 199 203 233 237 212 203 197 194 182 172 147 175 187 177 158 143 161 195 203 213 217 217 222 220 214 211 213 212 205 204 209 197 186 175 162 154 137 138 123 125 138 147 138 130 130 127 131 111 119 128  75  86 103 132 153 128 114 113 178 188 185 185 184 183 181 178 181
 181 181 177 184 183 183 182 169 175 194 199 205 206 214 210 222 217 218 218 211 211 193 183 206 204 205 204 240 243 213 200 197 191 181 165 166 185 198 184 156 136 151 178 201 203 206 216 218 213 216 208 210 206 196 197 196 195 182 169 160 147 116 134 133 124 136 141 136 135 129 129 132 114 111 135 131 135 140 135 131 140 127 127 187 186 185 184 183 185 183 181 182
 182 180 178 181 184 184 184 176 165 192 198 203 208 204 207 212 216 217 213 199 196 184 196 210 204 202 211 234 231 211 197 197 184 163 160 164 183 186 161 150 121 122 152 181 196 206 209 211 211 213 206 209 201 196 198 186 179 179 167 153 143 134 131 133 124 125 143 132 132 132 139 123 112 124 131 133 139 133 118 133 139 122 138 192 185 185 186 185 186 185 185 185
 182 180 182 182 184 187 180 180 167 187 192 196 201 203 208 212 207 206 196 191 182 178 205 212 199 196 206 208 205 194 192 161 136 149 165 172 172 167 153 138 110  96 147 163 185 200 202 207 207 205 203 204 199 193 192 181 178 170 162 149 147 138 141 128 129 134 135 139 134 132 139 121 112 126 128 132 119 130 123 125 126 115 140 188 186 184 185 185 183 182 184 184
 182 180 182 184 183 181 183 179 169 173 189 195 196 201 201 201 206 198 192 176 166 168 201 201 183 175 194 193 192 171 133 111 106 124 152 146 136 142 136 129 103 106 145 150 157 182 186 194 200 198 202 198 194 186 185 181 170 162 149 153 146 142 135 135 129 138 139 135 117 139 131 120 122 126 139 133 131 120 122 119 120 101 174 188 189 188 186 186 184 184 184 180
 181 180 182 183 183 184 177 181 161 163 179 188 193 198 200 196 192 184 181 155 159 181 160 148 161 130 155 165 151 130 112 101  99  89  82  73  64  64  91  99 113 106 119 141 140 157 176 183 186 189 191 183 186 176 174 165 165 159 146 142 146 137 132 127 136 136 139 136 134 136 119 115 118 105 130 129 128 124 110 108  97 134 192 188 188 188 185 183 183 183 185 184
 184 183 180 183 184 184 187 185 161 161 173 183 195 193 189 186 180 174 161 146 151 175 185 144  56  61  97 100  99  94 100  99  94 102 103  89 104  93  98 103 107  98 109 142 165 133 134 157 172 180 179 177 172 172 163 148 147 143 139 134 139 142 137 132 131 135 135 125 139 131 132 124 102  74  99 123 114 108  90  86 166 193 188 186 184 186 185 183 182 183 182 182
 183 183 181 183 183 182 186 177 165 147 172 179 181 178 180 175 166 157 138 134 152 179 190 187 137  32  10  55  67  79  93 113 112 115 117  77 101  92  87  81  89 100  93 140 164 168 116 114 143 159 167 165 159 157 149 139 139 130 132 132 130 141 133 132 133 137 136 140 137 125 123 116 105 114  88  80  80  67 162 194 188 187 185 187 187 186 183 182 182 183 181 180
 184 183 184 181 183 182 184 185 172 142 163 176 177 181 172 159 142 134 131 139 167 180 202 202 166 111  71  39  44  58  77  94  93  74  95  56  69  45  55  70  74  85  93 137 156 155 155 105 103 132 146 154 156 139 141 131 127 128 123 126 128 137 133 133 125 137 136 137 135 129 129 123 107 137  87  44   6  79 193 181 191 183 185 185 185 186 183 183 180 183 180 180
 180 181 183 185 184 187 187 181 166 146 155 167 170 168 151 135 117 120 126 135 157 191 195 180 155 147 129  83  81  64  61  75  55  54  55  66  44  53  50  57  75  78  99 129 140 142 157 150  82  89 111 135 141 137 136 129 113 121 119 127 126 133 138 127 127 120 137 147 137 133 129  99 129 138 103  66  10 163 188 185 186 185 185 184 185 184 183 182 182 181 181 180
 180 183 185 184 184 187 186 185 177 146 149 159 152 152 135 115  98  91 116 167 183 205 201 178 158 148 140  79  99 101  86  79  46  32  54  55  52  51  64  77  64  62 102  89 124 126 148 157 158  92  92 112 121 123 130 122 112 118 119 121 122 135 127 120 128 135 137 142 125 132 126 108 116 147  77  16 117 181 184 184 184 183 185 183 184 181 179 180 182 180 181 180
 182 183 184 186 186 186 187 177 186 157 151 158 150 142 127 115 103 124 187 194 199 202 178 170 158 122 158  87 137  81  91  70  63  51  45  87  69  66  92 106  92  96  98  99  97 119 106 139 157 170  84 102 120 131 132 130 119 112 120 118 129 128 129 129 119 129 138 140 131 129 108 103 122 137  89  68 175 187 184 187 185 182 181 181 183 183 180 178 178 180 181 183
 181 184 183 186 185 183 183 188 180 156 163 165 153 146 151 119 138 174 163 172 169 143 146 174 126 151 112 145 173 140 128 128 132 110  95  98  96 103 118 117  94 103 106 113  81  81  96 121 106 148 125 116 137 141 136 137 126 120 133 123 122 128 116 125 124 132 133 134 121 128 111 114 139 137  53 153 183 184 182 185 183 183 181 178 181 181 180 178 178 181 181 181
 177 180 186 184 185 183 178 188 187 150 163 169 168 165 173 159 170 158 171 156 109 131 135 168 144 167 154 142 142 114 162 158 140 118  95  86  78  81  89  83  86  87  84  93  96  81  76  89 101 104 150 145 169 146 133 135 132 122 125 128 121 120 123 124 126 121 131 133 125 117 115 127 132 134 119 186 183 180 181 182 180 180 178 177 179 181 179 178 177 178 180 180
 185 180 180 181 184 183 182 183 187 150 159 162 167 168 174 172 167 142 105  58  64  48  75  81  82 116 140 121 115 117 114 127 128 102  94  85  75  87  73  84  87  80  64  41  20  26  35  57  63  97 147 180 190 159 141 138 142 130 132 123 116 118 127 128 118 116 125 124 119 118  95 132 132  90  24 190 183 180 182 181 180 180 181 180 180 181 180 179 178 178 178 177
 198 196 185 185 180 199 197 192 209 167 153 162 166 172 176 180 168 150 127 138 143 168 116 127 148 146 141 140 120  89  56  77  65  59  45  64  69  71  96  84  86  68  56  56  87 120 113  85  99 117 133 186 194 167 142 127 127 129 127 126 118 111 122 115 117 115 122 121 123 107 115 132 135  61   1 110 188 177 180 181 180 180 181 182 181 179 180 180 179 180 178 178
  66  15  19  18   8  26  21  15  18  32 157 160 158 169 177 188 182 163 168 194 199 202 186 168 173 153 197 215 222 216 208 196 190 180 169 172 139 131 111 104  98 103 111 135 130 134 124 151 171 148 164 193 183 156 133 124 127 124 118 113 110 107 118 117 119 118 125 122 118 115 128 129 136  22   1   1 180 179 183 183 181 181 182 180 179 180 180 178 179 178 178 176
   6  13  17  14  20  17  18  12  12   6 150 156 155 153 166 179 163 171 183 192 217 206 202 185 169 157 141 184 179 185 178 186 174 165 145 141 107 100 110 119 118 133 141 146 153 159 177 195 176 154 177 196 176 147 123 109 114 114 109 115 115 112 111 108 121 120 122 105 115  90 119 129 116   0   1   0  72 197 175 177 180 180 182 181 180 179 181 177 177 177 176 176
  33  40  32  30  27  29  24  24  17   9 100 148 155 158 160 173 179 172 187 205 222 220 211 206 196 178 161 158 172 161 170 175 149 150 133 127 128 135 146 155 162 167 167 166 174 191 185 185 175 175 181 180 157 136 128 119 100 107 110 116 115 110 107 113 124 122 118 112  99 100 125 135  81   4   1   4   0 150 185 177 181 182 181 180 182 179 180 180 176 176 175 174
  40  24  23  23  25  28  23  21  22  18  35 145 147 142 153 162 169 177 193 209 216 219 216 219 214 208 200 184 177 185 182 183 166 164 172 169 176 178 187 181 170 160 176 187 194 190 186 180 179 184 165 161 139 130 117 102 102  97 109 111 107 108 112 121 123 117 112 111  97 132 133 135  41   0   1   1   5   0  79 167 181 181 179 176 182 180 185 180 178 177 174 177
  19  19  17  16  16  18  18  17  16  16  16 128 142 140 139 151 167 177 185 204 212 204 213 207 215 217 220 209 208 202 204 198 191 196 190 192 184 187 187 179 170 180 180 189 189 190 184 172 152 174 176 144 117 107 107 103 113 107 105 103 105 111 119 112 119 108 108 101 101 118 136 123   0   1   1   1   0   2  11   2 103 191 181 178 179 181 179 180 179 177 177 178
  23  17  17  16  18  19  19  19  21  20  22  69 140 142 141 146 170 175 180 197 208 211 199 194 201 201 206 207 203 200 207 199 186 183 166 157 169 171 179 172 174 186 190 189 181 180 173 155 155 176 160 132 106 105 103 108 110 114 104 115 116 113 117 120 108 109 104  92 120 126 131  92   0   0   1   1   1   1   5   5   0  18 151 193 177 180 179 179 181 180 177 179
  15  16  14  17  17  18  21  21  20  30  26   8 124 146 151 148 149 180 179 205 205 186 196 201 178 176 182 173 184 174 170 177 151 138 127 131 160 165 161 178 190 179 184 179 171 163 132 156 162 176 152 121 110 100  97 111 108 121 110 117 112 117 114 109 103  97  83 105 140 138 137  45   1   1   2   1   1   1   1   4   3   1   0 105 197 183 179 177 177 178 179 179
  14  16  13  16  15  17  19  18  23  21  17  21  52 152 147 145 153 176 170 188 185 191 191 197 192 186 186 171 166 139 141  99 127 120 137 152 159 158 176 180 173 183 176 172 152 144 141 169 143 136 127 114 106 104  99 103 112 114 120 117 108 113 108 104  93  92  99 123 138 127 124   0   0   1   1   1   1   1   2   1   4   0   0   0  33 187 173 179 177 175 177 178
  15  18  14  16  16  19  18  19  23  18  14   8   2 104 129 152 132 138 187 200 189 193 197 200 189 190 178 188 165 127  81  94  97 120 139 173 166 172 167 179 178 178 170 150 141 113 128 143 135 136 119 122 112  99 112 100 112 118 110 110 106 105  99  91  90  92 113 130 135 128  61   0   1   1   1   1   1   3   3   2   2   3   0   2   3  12 186 184 179 171 176 175
  12  13  12  13  15  16  16  16  14  12   8   9   2  31 124 142 152 142 175 184 178 190 196 204 198 197 190 158 142 118 109 125 107  94 140 157 158 173 173 173 173 170 165 146 137 140 158 138 108 122 111 119 113 114 115 110 117 116 107  98  99 107  93  76  93 107 130 136 127 132   5   1   3   1   1   1   1   2   1   0   1   5   1   2   0   7  16 183 175 177 177 177
  15  15  14  13  11  12  13  10   9   8   9   6  18  26  70 126 137 156 159 167 177 191 185 202 200 192 191 170 154 150 129 115 115 148 155 172 182 182 186 182 171 166 174 140 146 130 141 139 120 114 103 118 104 110 118 112 117 104  97  92  91  88  78  66  85 122 134 129 134 109   1   0   1   1   1   1   1   0   1   1   1   2   1   0   0   0   1  19 179 177 176 175
  12  13  11  11  11  10   8   9   6   7   6   4   2   1   6  80 125 152 152 166 194 192 193 196 197 203 190 174 187 164 181 177 166 158 146 165 191 181 184 182 164 177 182 165 130 128 141 138 131 124 114 117 108 102 111 113  99  94  95  91  81  61  79  90 105 129 131 126 148  32   4   1   2   0   0   1   1   1   0   1   1   1   2   2   0   0   0   0  30 188 173 171
  11   8   7   8   6   6   6   5   7   7   5   6   4   3   7  27  87 133 132 177 152 174 199 196 196 203 207 184 181 195 194 174 182 171 173 172 182 186 187 187 175 168 158 147 123 130 125 129 120 118 112 115 105  94 104 100  95  96  90  82  63  68  95 118 125 131 130 132 126   0   1   1   1   1   0   0   1   1   1   0   2   2   2   1   0   0   1   0   2  75 187 173
  14   9   7   9   6   6   6   4   5   4   3   3   3   3   7   3  36 102 133 139 152 179 192 190 191 199 205 194 194 181 189 188 186 188 178 181 194 191 179 179 195 165 155 114 131 125 101 129 121 109 102 105 107 107 105  98 100  85  75  63  72  94 111 118 126 134 124 142  35   0   1   1   1   0   0   0   1   1   1   1   0   1   1   0   1   1   1   1   2   0 116 179
   8   7   8   8   4   5   3   3   2   2   2   3   3   4   5   1  13  69 120 116 128 141 183 188 209 205 187 193 184 187 190 191 185 204 176 194 179 192 183 181 175 177 133 117 139 111 101 126 121 109 102 113 102  99  99  89  79  74  63  63 100 106 113 118 124 130 131 118   1   0   0   1   1   1   0   0   1   1   1   0   1   1   0   1   1   1   1   1   4   3   3 184
   8   7   5   5   5   3   3   2   1   1   1   1   1   1   1   1   1  11  49  93  91 144 184 151 180 181 184 178 184 172 187 187 192 185 193 175 185 174 157 164 160 120 136 110 122 106 101 106 115 103  92  84  87  88  82  70  65  62  91  84  98 111 116 121 123 128 141  50   3   2   1   2   1   1   1   0   1   1   1   1   2   1   1   1   1   1   1   0   0   2   0  99
   5   7   5   5   4   2   3   0   0   1   1   1   0   1   1   1   2  12  26  62  79 100 164 149 176 174 155 182 177 160 156 190 174 183 201 186 191 166 144 142 133 116 116 111  90 110  92 107  99  89  89  89  70  68  65  60  68  94 104 108 115 122 129 121 136 135 119   0   1   0   1   1   1   2   2   1   1   1   1   1   1   1   2   1   1   1   1   0   1   1   4   0
   3   3   3   2   4   2   1   1   1   0   1   1   0   2   1   2   8   3   7  11  28  86 140 147 135 173 174 154 152 144 146 165 160 166 172 160 169 130 142 128  95 115  91  95  70  84  97  96  92  70  86  69  69  53  75  82 100 104 106 118 116 127 122 141 134 130  58   3   0   1   0   1   1   1   1   1   1   1   1   1   1   0   1   1   1   1   0   1   1   0   0   4
   2   2   2   2   1   2   0   0   1   1   1   1   1   2   3   3   5   5   5  15  59  50  71 116 122 144 151 148 133 117 118 150 152 137 126 150 142 121  87 101  74  90  87  59  65  75  77  79  61  54  53  44  53  74  90  96 103 106 117 118 124 118 136 136 132 120   0   3   0   3   0   0   1   1   1   1   1   1   1   1   1   1   1   1   1   0   0   1   1   1  10   1
   1   1   1   1   1   0   1   1   1   1   1   1   0   3   5   6   6   5   4   3  12  34  54  68  76 141 113 107  88  86 119 104 124 110 128  88  89  91  72  69  81  73  36  51  52  47  59  56  50  42  45  58  87  93  89 100 111 112 115 120 119 142 137 133 129  34   1   1   0   0   0   0   0   0   1   1   1   1   1   1   1   0   1   1   1   0   0   1   1   1   2   2
   2   2   2   2   1   1   0   1   1   1   1   0   2   5   6   2   3   7   5   4   5  30  39  40  80  73  88  88  76  72  70  77  79 105  81  74  88  47  45  58  44  47  42  42  46  44  35  32  32  53  69  79  88  94 100 107 112 115 111 122 136 134 131 130 102   0   3   0   1   1   0   0   0   0   1   1   1   1   1   1   1   1   0   1   0   0   1   1   1   1   1   1
   3   1   1   1   1   0   0   0   1   0   0   0   2   3   1   3   4   6   6   4   3   1  24  51  57  42  63  80  37  44  26  71  69  54  58  47  35  45  32  25  24  36  29  38  25   8  42  61  78  77  79  75  94 104 104 110 111 110 124 128 131 126 124 124   9   3   1   2   1   1   0   1   0   0   1   1   1   1   1   1   1   1   1   1   0   0   1   1   1   1   1   1
   3   1   1   1   2   0   0   0   1   0   0   0   4   3   3   5   5   5   3   5   3   1   1   1  52  34  35  30  20  24  31  68  29  23  25  40  27   9  16  23  17  22  20  25  43  61  49  64  86  90  89  91 105 106 106 109 120 125 123 125 121 127 131  55   4   2   0   1   1   0   0   0   0   0   1   1   1   1   1   1   1   1   1   1   1   0   1   0   1   0   1   1
   3   1   1   1   2   0   0   0   1   0   0   1   3   4   5   6   5   5   4   5   3   3   3   4  30  12  45 118  81  23   8  14  11  15  21  22  16  11  16  17  15  49  45  64  65  65  68  72  85  95  98  99  98 101 113 122 118 120 117 126 118 126  95   1   5   0   1   1   2   1   0   0   0   1   1   1   1   1   1   1   1   1   1   1   1   1   0   1   1   1   2   1
