P2
# Generated by OpenCV 4.2.0
92 112
255
 107 107 107 107 107 107 107 107 107 107 107 107 106 106 107 107 106 106 106 106 106 107 107 106 106 106 107 107 108 108 108 108 107 107 107 108 108 107 108 109 109 113  99  82 105  78  54  39  48  79  49  50  71  58  74  83  59  55  60  67 100 103  98 114 118 116 112 108 111 111 112 113 112 113 112 112 112 110 110 112 111 110 110 110 110 110 110 110 110 110 110 110
 107 107 107 107 107 107 106 107 107 107 106 106 106 106 107 107 106 106 106 108 107 105 104 105 106 106 107 107 107 107 107 107 107 108 107 109 108 108 107 108 113 109  72  44  48  41  40  59  64  59  69  80  95  94  89  78  80  71  75  95  88  89 103 108 104 103 103 106 114 116 117 113 112 112 112 112 112 111 111 112 111 110 110 110 110 110 110 110 110 110 110 110
 108 106 107 107 107 107 107 107 106 106 107 106 106 107 107 105 106 107 106 106 104 107 112 111 106 102 104 107 107 107 107 107 108 108 107 108 108 108 107 108 107  57  28  40  43  43  57  40  53  72  77  83  72  32  40  61  54  63  65  62  68  62  63  75  81  67  60  80  86  85 102 117 119 115 112 111 112 112 112 112 111 110 110 110 110 110 110 108 108 109 109 110
 107 107 107 106 106 107 107 107 106 106 107 107 107 107 106 106 106 106 107 104 113 141 160 162 148 126 111 105 104 106 108 109 109 108 107 107 107 108 112 103  60  30  34  44  40  39  29  50  70  52  65  58  16  51  55  40  55  46  47  66  49  57  68  71  79  61  45  49  54  61  56  72  89  99 116 120 113 110 112 112 110 110 110 109 110 110 110 108 108 108 109 110
 107 106 106 105 106 107 107 107 106 106 107 107 106 106 105 106 106 107 104 112 156 189 200 205 202 187 169 148 130 123 106  85  75  71  66  63  78  96 101  65  42  33  29  42  39  19  60  68  52  48  59   9  44  44  21  52  22  34  93  52  71  69  66  65  45  43  43  45  52  56  47  46  60  66  92 113 114 114 111 112 110 109 110 110 110 110 110 108 108 108 109 109
 107 105 105 106 106 106 107 107 106 106 107 107 106 106 106 106 106 104 112 155 195 211 217 220 219 214 211 214 177 101  44  23  32  41  39  37  19  50  68  44  33  23  40  54  20  54  57  52  30  60  14  32  29   5  43  16  17  86  60  54  70  68  33  27  32  41  29  21  24  26  31  50  51  70  61  76 110 113 110 111 110 110 110 110 110 110 109 108 108 108 108 108
 107 107 106 106 106 106 106 106 107 106 106 106 106 106 106 106 103 110 154 195 210 217 224 223 215 222 225 136  47   6  10  17  22  20  30  44  37  63  56  32  25  23  42  24  58  54  47  30  30  34  18  35  13  41  30   5  64  57  48  66  69  22   5  10   7   2   5  26  54  77  77  78  82  89  76  57  80 106 112 113 110 110 110 109 109 109 109 108 108 108 108 108
 107 107 106 106 106 106 107 106 106 106 106 106 106 106 105 103 107 149 193 209 215 215 209 197 205 178  83   9   2  12  12  13  25  30  19  24  53  80  44  25  24  34  38  20  58  35  41  20  28  16  17  20  11  43   4  41  63  33  54  73  27   0   3   7   6  18  38  64  78  68  67  58  51  56  46  44  62  80  97 108 111 110 109 108 108 108 108 108 108 108 108 108
 108 106 106 106 105 106 107 106 106 106 106 105 106 106 104 107 148 192 211 214 215 199 154 129  94  13  10  20  17  27  25  25  20  25  18  19  72  88  26  31  20  39  29  26  40  29  31  10  36  16   9   3  23  31   6  66  35  55  51  48   4   4   7   9  23  40  69  67  44  56  29  15  30  46  58  65  64  63  83  96 103 110 110 111 110 107 108 108 108 108 108 108
 107 107 106 106 106 106 106 106 106 106 105 106 107 106 108 146 191 209 215 215 201 153  99  40   2  14  27  31  32  32  31  26  32  38  24  23  97  74  18  35  19  38  22  25  38  25  21  14  27  13  10   1  23  13  27  59  44  74  46  36   8  10  13  24  50  57  57  31  49  32   4  26  38  42  32  31  42  49  56  87  97 106 111 109 112 112 107 109 108 108 108 108
 106 107 106 106 107 106 105 106 106 106 105 106 106 105 140 188 208 215 215 200 154  98  36   4  13  22  27  29  29  33  34  34  29  30  35  37  94  56   8  33  20  35  19  19  25  25  19  17  19  12  15   3  25  11  34  36  35  68  65  25  10  18  15  47  51  56  19  17  59  18  13  21  22  16   6  21  32  28  31  39  71 113 114 109 108 112 111 108 108 108 108 108
 106 106 106 106 106 106 105 106 106 106 106 105 103 123 175 204 213 214 200 155 102  44   8  22  34  33  32  34  35  32  29  34  41  37  39  48  87  58   3  29  26  30  23  14  20  23  17  19  22  11  19  10  21  12  28  20  29  40  58  35   2  10  25  49  27  55  18  16  42  11  20  12  10   4   1   1   4  13  15  19  25  81 120 108 108 107 110 109 108 108 108 108
 106 106 106 106 106 106 106 106 106 106 106 105 103 140 193 209 213 203 156 104  46  11  21  37  39  38  38  32  37  38  34  36  34  27  20  37  70  71   6  24  37  25  22  15  19  22  16  18  25  19  19  23  13  19  28  26  19  31  35  20  11  24  31  39  16  24  12  17  28  16  13   5   2   4  19  30  24  21  18  14   6  17  85 118 108 108 109 109 108 108 108 108
 106 106 106 106 106 106 106 106 106 106 106 105 104 152 200 208 208 170 108  50   7  22  26  30  42  39  25  25  30  34  30  34  42  31  14  21  52  67  26  13  36  29  25  21  17  20  17  18  25  34  23  44  18  28  23  38  21  26  26  19  13  18  25  28  11  12  12  16  22  25  10   5   5  13  35  54  60  66  72  55  33   4  21 101 118 109 108 108 108 108 108 108
 106 106 106 106 106 106 106 106 106 106 106 104 108 164 203 207 199 140  63   9  24  18  29  43  43  30  33  35  30  30  36  43  46  56  40  22  45  59  40  17  26  26  23  23  19  22  20  22  23  28  31  48  45  28  30  36  39  22  24  29  11   9  21  23  17  18  19  17  16  22   9   8  10  16  31  31  24  27  38  52  53  45  12  41 111 124 112 107 108 108 108 108
 106 106 106 106 106 106 106 106 106 106 106 104 114 172 203 207 192 100  10  14  18  34  51  42  30  42  44  37  26  24  19  30  41  39  55  48  36  49  38  33  22  21  22  26  30  28  27  29  29  34  40  42  61  46  38  40  50  39  29  44  24  16  25  28  25  25  27  23  17  20  12  13  17  24  14   9  15  18  31  42  49  49  39  19  74 129 117 106 108 108 108 108
 106 106 106 106 106 106 106 106 106 106 106 103 120 180 204 209 167  24   7  21  31  58  47  30  41  49  43  44  38  36  37  34  47  34  35  53  46  54  45  38  36  30  27  23  27  36  43  50  47  45  52  56  62  72  60  64  71  69  57  52  44  36  38  35  37  41  43  36  24  22  17  17  21  21  14  12  12  17  24  23  27  53  50  29  30 105 123 107 108 108 108 108
 106 106 106 106 106 105 105 106 107 106 106 103 127 187 206 206  74   1  18  29  47  61  34  31  60  44  49  47  46  43  42  35  30  34  30  42  51  55  56  53  53  58  59  57  54  57  65  68  73  71  74  86  89  90  96  98 100 100  97  93  87  82  80  73  76  85  78  68  46  28  23  21  26  22   9   3   5  12  16  21  21  41  59  40  20  72 141 106 108 108 107 108
 106 106 106 106 106 104 104 106 105 104 105 103 135 196 213 137   4  14  23  30  55  48  26  44  54  40  48  60  63  48  25  29  30  33  42  50  68  72  75  78  78  82  92  96 104 110 117 113 116 125 114 109 112 112 117 117 130 139 136 136 139 135 138 137 141 148 140 129 107  73  35  22  24  19   3   1   1   3  11  24  25  30  44  57  33  36 125 116 109 106 107 108
 106 106 106 106 106 105 105 106 105 104 105 104 145 200 190  33   8  18  28  36  61  35  22  48  44  44  59  63  49  36  32  43  53  63  83  94  96 104 105 110 114 113 115 123 134 144 155 157 164 170 162 151 153 150 152 152 155 163 167 169 174 170 173 172 180 182 182 179 161 139 109  54  21  15  14  10   6   6  21  31  37  31  36  43  48  39  93 132 110 106 107 108
 106 106 106 106 106 106 106 106 106 106 104 105 155 207  86   1  12  31  24  51  40  31  23  51  33  55  68  64  37  40  55  73  90  99 107 115 118 123 126 132 138 142 146 152 158 166 172 174 174 175 175 178 177 175 174 175 174 174 178 184 187 186 189 187 189 190 188 186 184 179 168 128  59  15  21  21  23  24  26  22  28  31  36  32  47  61  72 135 106 106 107 107
 106 106 106 106 106 106 106 105 106 106 103 109 174 150   9  19  11  35  20  45  32  26  17  38  34  64  80  61  56  70  84  97 106 112 120 123 129 130 132 138 141 149 155 159 163 167 173 173 173 175 178 179 178 178 177 180 180 178 179 181 187 189 190 190 188 188 186 182 184 184 179 166 139  62  17  26  31  32  37  50  38  24  33  33  47  53  60 131 106 105 107 107
 106 106 106 106 106 106 106 106 106 106 104 119 157  39   7   8  13  30  14  34  33  15  14  25  41  65  84  73  75  83  92 106 117 123 120 124 127 131 132 139 147 156 162 165 170 169 172 172 170 178 177 178 178 178 178 180 180 180 180 181 182 183 185 187 187 187 185 184 183 185 181 180 173 145  56  16  35  43  54  75  55  26  33  34  35  40  54 122 112 105 106 107
 105 106 105 105 106 106 106 107 106 106 106 121  51   4   9   9  16  19  15  29  24   8  14  23  40  73  89  90  78  89 101 116 126 124 122 124 126 129 134 143 153 159 163 168 170 170 173 174 174 176 176 177 176 177 175 177 179 178 179 182 182 182 183 184 185 186 187 187 185 186 184 181 181 173 138  51  23  43  43  54  76  37  39  39  29  30  47 111 113 106 106 106
 104 104 104 104 106 106 106 106 106 106 107  51   4  11  10   8  16  13  23  25  16   6  13  22  37  80  91  88  78  95 111 121 124 123 120 123 127 128 139 149 155 158 160 166 171 170 173 174 174 176 177 176 176 176 176 180 182 181 182 184 185 184 184 184 187 188 188 187 185 186 184 183 183 182 177 134  64  31  50  56  52  51  34  37  24  19  31  84 113 106 106 106
 105 105 105 104 106 106 106 106 106 110  55   4   9   8  12   9  14  11  22  17  10   5  12  20  37  74  85  85  83 100 114 122 124 124 121 122 125 130 140 148 153 158 162 164 170 171 170 171 175 174 174 175 176 178 178 181 182 184 186 185 185 188 188 186 187 188 187 187 185 186 186 185 184 185 184 178 124  45  43  82  56  34  38  31  20  18  26  66 108 105 106 106
 106 106 106 105 104 104 105 104 108  67   8   8  11   8   4   7  12  10  15  12   7   4  14  24  48  72  82  87  90 100 113 122 125 124 123 125 128 133 140 145 153 160 163 163 165 167 166 167 171 171 172 172 175 176 179 180 181 182 184 183 187 190 190 188 188 190 187 186 186 187 186 188 186 185 187 183 176 104  32  46  90  28  30  29  20  19  24  55 102 106 106 106
 106 106 106 105 104 104 104 112  75  10   7  12   8   5   5   8  10  11  12   6   4   7  15  27  58  83  89  91  95 103 113 117 124 124 122 124 129 135 140 145 150 156 158 161 162 163 164 167 169 171 174 177 179 180 181 178 180 181 184 185 187 190 191 190 190 191 189 188 188 188 188 187 187 188 188 186 187 173  67   9  60  68  24  33  20  20  21  51 103 107 106 107
 106 106 106 105 104 104 110  88  14   7  15   8   5   7   8  11  12   6   5   4   5   8  14  38  73  92  97  96 101 107 111 117 123 124 121 126 133 136 139 144 147 152 157 159 161 162 164 166 170 173 174 178 180 181 182 181 181 182 185 187 188 189 190 190 189 188 189 188 187 187 189 189 190 189 188 188 189 191 149  28  15  65  32  28  29  21  21  53 104 107 105 106
 106 105 104 104 104 107  98  28   9  18  12   7  10  11   9  11   6   3   3   6   4  10  28  61  88 105 109 103 104 105 108 115 121 120 123 128 132 137 140 143 146 151 156 157 160 163 165 167 170 173 175 178 181 180 183 182 183 184 185 185 186 185 186 188 187 189 190 191 190 188 191 190 191 191 191 190 190 188 194 106   6  28  48  19  30  20  23  67 104 102 106 105
 106 104 104 104 106 106  55  28  24  14   8   7   8   7   9   4   2   4   5   6  10  33  49  72  95 108 113 109 105 102 106 113 117 119 124 130 131 137 143 145 145 149 153 155 158 163 164 164 169 174 178 180 183 183 183 184 183 186 186 185 185 187 186 187 188 191 191 190 190 191 192 193 194 193 192 191 191 191 195 179  42   4  36  36  27  21  30  86 105  96 101 106
 106 105 104 104 109  76  40  33  27  11   8   6   6   6   4   3   4   7   5   8  30  44  64  78  96 113 118 114 106 104 107 111 114 119 121 127 132 137 142 146 147 148 152 154 156 160 161 163 167 173 177 179 180 183 182 183 185 185 185 185 186 189 188 188 190 191 191 191 189 190 193 194 194 193 193 196 195 193 191 200 127   2  15  46  35  22  34  94 104  96  89 106
 104 104 104 106  99  53  31  21  18  13  11   9   7   6   3   5   8   7   8  23  41  56  65  79  94 109 117 114 108 106 105 109 113 119 122 129 133 138 145 145 145 149 153 154 157 161 163 166 168 172 175 178 181 181 183 184 188 186 186 187 188 190 191 191 191 193 191 191 191 192 193 194 193 192 194 196 196 194 195 193 192  50   5  35  42  25  47 104 101 103  92 105
 104 104 104 107  93  42  22  14  10   8  10   7   7   5   8   9   8   6  18  26  45  50  65  72  86 103 112 113 112 108 106 105 110 118 123 130 133 138 142 144 146 150 153 156 159 162 163 166 169 172 176 178 181 184 185 187 188 187 186 184 186 192 194 193 193 193 190 192 193 194 195 195 196 196 195 197 197 198 198 194 203 136   6  28  41  50  74 112 104 102  92 100
 104 105 105 106  91  43  20  11   6   8   8   9   9  10   9   7   5   6  17  25  37  49  55  67  80  94 107 108 110 112 108 104 109 117 120 127 133 139 141 144 150 150 152 157 159 164 166 169 170 173 174 176 181 184 185 186 186 185 182 183 186 191 192 192 194 192 190 193 193 194 197 196 197 198 197 196 197 199 199 198 199 196  43  25  43  55  92 106 107  94  81 104
 104 104 104 104  93  61  22  14  11  12  10  10  10   8   5   6   3   9  15  24  34  41  45  55  76  90  95 100 110 113 110 106 108 116 119 130 135 140 141 142 145 149 151 156 159 163 168 172 171 171 175 177 179 181 186 185 185 184 181 183 187 189 190 192 192 192 194 195 193 192 194 195 195 192 198 198 198 200 200 200 201 210 134  38  53  57  72  98 107  87  93 105
 104 104 104 105 100  68  18  15  10   6   6   6   6   5   5   4   5  11  15  21  28  33  37  53  65  75  89  98 108 110 111 108 109 116 120 130 136 137 140 142 142 150 152 155 159 163 166 171 176 176 177 180 180 182 188 186 186 184 180 184 187 189 191 191 191 191 192 193 192 191 192 192 193 191 194 198 199 200 201 202 203 204 197 118  65  66  46  61  80  97 105 104
 104 104 104 105 103  54   9  13   6   6   7   5   4   5   4   4   8  10  12  14  26  31  36  48  56  70  85  95 109 113 113 109 109 116 123 129 133 136 139 142 145 147 151 154 157 161 165 170 175 179 178 183 183 182 185 186 186 182 180 187 186 188 192 191 191 191 191 192 192 192 192 190 194 194 194 198 199 199 202 205 205 202 202 182 111  60  58  54  71 103 105 103
 104 104 104 104 104  33   1   5   7   6   4   4   4   5   4   5   5   8   9  13  21  27  40  41  49  65  81  98 107 112 114 113 113 116 123 127 133 137 138 141 144 147 148 150 155 158 162 166 172 177 179 180 181 182 185 185 186 186 186 186 186 188 190 191 190 192 192 193 192 193 193 195 195 193 194 196 198 201 203 206 205 202 201 192 156  68  56  71  78 104 102 103
 104 104 104 106  92  17   7   8   7   6   4   4   4   4   4   3   7   6   7  11  18  27  28  33  48  62  76  88 100 110 115 115 116 115 120 127 131 137 136 139 142 144 145 149 156 160 164 167 171 176 179 179 181 183 184 185 185 188 189 187 190 191 191 191 191 191 192 193 192 193 194 196 196 194 195 197 198 200 203 203 204 204 201 194 171 106  51  80  88 103 101 103
 104 104 104 108  86  18  21   8   6   4   4   4   4   4   2   4   6   3   8  17  17  17  22  31  41  49  65  77  92 106 115 116 115 116 120 127 130 134 137 139 140 141 146 151 157 160 164 169 172 176 178 179 182 184 186 187 189 189 189 189 192 193 191 191 191 190 188 191 191 192 194 197 194 194 197 198 200 201 202 203 204 204 203 198 170 132  89  96 100 100 101 102
 104 104 104 108  88  16  19  10   5   3   4   4   4   4   4   5   4   5  11  13   9  15  18  24  33  44  64  86  99 107 116 116 117 118 122 128 129 134 137 139 140 142 148 153 157 161 165 172 173 175 175 178 183 185 187 189 191 191 191 192 192 193 192 191 190 191 190 191 191 191 193 192 193 195 198 201 201 200 203 204 204 204 204 202 180 136 110  99  97 100 101 102
 104 105 104 106  99  23  10  14   9   5   4   4   4   3   2   4   4   9  10  10  12  12  13  25  34  50  72  89 100 108 115 117 118 119 123 129 132 136 137 138 142 146 151 155 160 161 166 170 173 174 177 179 182 188 188 191 193 193 193 194 193 193 192 192 192 191 191 190 190 193 195 195 195 197 199 202 202 203 204 204 204 205 204 202 183 133 116 106  98 100 101 100
 104 104 104 104 108  45   5  10   8   8   4   3   2   2   3   3   7   8   6   8  10  16  20  30  46  61  77  90 100 108 113 115 115 117 121 127 131 135 137 139 145 149 151 155 159 163 167 169 173 176 180 181 183 188 189 192 193 193 194 195 195 193 192 195 195 194 193 192 193 194 194 198 201 202 202 202 204 205 206 204 204 205 203 202 186 129 110 107 103 101 101 100
 104 105 104 104 107  82  10   9  14   6   3   3   2   3   3   5   8   6   8  11  13  19  28  45  59  68  81  95 100 107 110 112 113 115 118 123 129 134 137 142 148 151 152 156 161 162 164 169 174 178 180 183 186 189 189 191 192 192 195 195 197 194 196 197 198 196 193 194 193 195 197 200 202 204 205 204 205 207 207 205 204 205 203 203 194 136 105 102 109 105  99 110
 103 104 104 103 104 102  26  10  11   4   4   4   2   4   4   6   7   9   7   9  15  26  45  64  73  75  81  92  98 103 106 109 110 111 114 120 128 135 140 144 149 154 155 159 161 164 163 165 173 179 181 184 185 188 190 192 192 195 197 198 198 198 198 198 199 198 197 195 197 198 200 202 203 204 206 204 208 210 209 205 204 204 204 204 203 137 103 101 105 102 103 133
 104 104 104 103 103 103  42  10   8   8   3   4   3   5   7   7   9   6   5  10  23  42  59  72  80  81  82  87  95  98 100 102 104 107 112 118 126 131 131 139 140 144 149 155 156 159 158 160 168 179 181 184 185 186 190 192 191 192 193 196 199 198 197 198 200 198 199 197 198 200 201 204 204 204 204 206 207 210 209 205 207 205 204 202 206 132  85  97 101 101 117 151
 104 104 105 102 102 106  47  13  11   9   5   4   3   4   5   9   7   3   7  13  31  53  65  76  84  86  85  85  90  94  97  97  99 103 107 103 102  95  93  92 103 109 110 119 134 140 141 143 150 162 166 169 175 180 181 186 188 189 191 193 196 192 193 197 197 196 197 196 198 196 197 202 208 203 200 205 207 210 209 206 207 206 202 199 207 112  66  89  99 103 135 158
 104 102 103 102 102 108  64  14  11   8   7   6   3   3   5  10   4   5  10  20  39  60  72  81  89  92  88  85  91  93  96  98  93  84  73  59  59  60  58  57  61  60  49  48  66  74  75  77  71  72  74  91 113 147 160 167 177 184 190 190 190 189 190 194 195 195 195 195 194 183 181 196 193 191 193 193 198 200 203 199 200 202 205 200 206  92  44  84  99 111 146 159
 104 102 102 102 102 104  97  47   1  10   7   6   5   4   4   8   5   6  12  27  46  65  78  88  92  97  92  89  92  93  92  88  62  39  33  35  36  44  48  46  34  27  28  27  28  21  26  39  46  48  53  60  80  88 122 137 158 175 185 185 185 188 190 192 192 193 191 190 183 165 160 165 148 130 109 110 129 146 156 162 161 162 193 205 205  82  46  83  99 122 150 161
 103 102 103 102 102 102 108  68   0   3   7   7   5   5   7   6   4   7  14  34  56  71  85  93  95  97  94  91  93  90  73  48  31  26  23  23  28  30  35  50  54  44  36  23  19  30  30  23  35  38  39  53  61  61  82 102 133 162 177 178 179 183 188 190 189 190 189 185 172 145 127 115 116  87  72  79  79  82  97 109 113 120 141 177 203  74  55  93 101 130 152 159
 102 102 102 102 102 103 110  72  13  41  19   7   6   5   5   4   5   7  20  45  64  75  89  96  96  96  94  94  90  71  45  32  30  34  49  51  63  79  84  91 104 105 104  98  85  75  64  50  45  42  39  44  55  66  72  91 118 145 165 170 175 178 182 186 187 186 183 176 152 124  95 102 102  69  62  70  69  74  85  86  98 118 117 122 168  78  67  98 102 136 154 159
 102 101 102 102 102 102 105  92  76  74  39  10   6   5   2   5   7  11  26  53  70  82  93 102 102  96  97  89  70  48  39  43  48  59  81  90 100 110 112 114 117 123 131 138 139 135 129 117 101  91  79  70  66  74  74  91 113 139 153 160 162 169 179 185 188 187 182 169 138 116 111 116  99  98 103  99 102 120 121 130 135 126 111 127 140  77  82  99 104 138 154 159
 102 102 102 102 102 101 105 102  43  55  57  24  10   8   6   3   6  13  33  62  77  87  96 102 104 100  96  80  60  52  54  59  65  73  79  90  98 105 109 113 112 118 121 131 133 134 137 140 140 130 116 105  95  93  97 101 113 132 143 148 156 167 176 183 189 187 179 168 155 143 141 141 146 149 148 154 162 167 177 178 177 169 149 136 131 101  94  96 106 141 157 159
 102 102 102 102 102 101 108  95  27  24  59  47  17   7   8   5   6  12  36  70  79  89  97 101 104 102  95  88  80  72  72  71  66  69  74  83  90  93  97  93  84  87 102 118 130 134 126 108 104 123 133 126 113  98  94  97 107 118 129 137 150 167 176 183 189 188 182 175 168 162 153 147 145 146 156 164 171 172 176 177 180 185 185 172 145 116  96  95 106 142 155 159
 101 101 102 102 101 102 109  79  32  34  45  54  31  11   7   5   8  17  47  74  79  89  98 102 102 105  98  98  96  89  81  70  61  62  66  75  85  88  72  56  65  88 103 108 120 151 156 150 122  81  87 119 125 111  91  84  87 103 116 128 147 164 179 187 193 193 186 178 158 144 137 130 122 123 131 138 149 164 172 172 175 181 184 179 167 120  93  95 107 141 155 162
 101 101 102 102 102 102 108  67  31  40  58  53  48  29  11  11  11  24  49  74  81  90  98 101 106 106 101 102 100  96  90  77  67  62  65  81  89  70  54  60  59  48  35  23  27  53  61  86 132 153  98  84 112 126  98  69  74  87 103 125 146 165 184 199 204 199 188 160 134 122 110 109 111 122 143 149 149 148 138 147 160 168 179 182 170 121  93  97 105 137 156 163
 101 101 101 102 102 102 107  66  32  45  74  60  48  42  18   9  14  22  48  75  77  84  94 100 102 106 107 109 107 103  97  88  73  73  81  86  76  55  53  32  18  24  38   8  16  80  71 118 104  82 132 132 113 122 104  72  67  77  94 117 144 164 183 201 208 202 171 134 120 106  88  78  62  57  79  81 110 159 174 134 127 155 166 175 193 136  89  98 100 133 156 164
 102 101 101 102 102 102 110  75  34  50  76  68  58  47  27  12  15  21  49  74  77  80  90  98 101 105 111 116 123 116 107 100  79  68  68  65  38  18  30  31  37  42  75  40  20  47  67 180 193 121  67 102 139 136 115  89  74  75  92 111 137 161 180 196 205 202 161 139 115  71  49  42   5  40  61  57  85  62  97 154 130 146 165 177 203 147  88  96  95 123 154 167
 102 101 101 101 101 101 113  81  37  61  77  72  73  61  38  19  16  24  57  73  73  80  87  92  98 106 115 125 128 122 114 107  93  78  66  53  48  46  57  71  89  81  76  85  72  74 126 198 184 167 119  70  94 141 130 108  87  77  90 104 127 155 176 190 201 198 183 168  93  81  74  91  11  18  58  65 168 153  43  47 105 133 171 183 205 155  90  96  95 109 147 166
 101 101 101 101 100 100 121  79  42  75  74  63  53  36  38  30  16  30  60  71  70  75  82  91  97 102 113 122 126 127 128 127 122 110 100  97  96  94  89  92 100 104 107 111 113 126 150 155 161 155 153 159 169 146 117 108  87  81  90 104 122 153 174 185 196 196 194 182 135 117  97 108  77  51  63 100 199 172 109  55  52 104 161 192 206 160  89  97  96  99 127 159
 102 101 101 101 102 101 135  85  53  81  60  47  34  18  25  45  28  40  62  72  71  74  78  83  91 101 112 123 134 141 145 144 140 132 132 126 109  92  85  94  99  99 107 115 131 144 154 160 168 168 167 166 163 135 110 100  88  89  95 107 127 151 170 180 193 196 194 190 186 170 141 134 139 136 130 140 153 141 139 140 145 148 169 190 209 165  88  95  96  94 111 157
 101 101 102 100 100 100 153  93  60  81  49  38  31  23  22  43  46  46  65  74  71  75  77  79  88  97 112 124 132 141 146 149 147 146 150 144 130 116 102  85  78  88 104 111 120 127 131 141 151 157 161 158 142 122 110  98  95  94  99 108 125 148 171 181 194 200 198 191 179 161 149 142 144 147 156 157 151 169 177 183 182 190 188 191 206 171  89  94  94 108 137 161
 101 101 101 101  99 102 169 116  65  80  42  33  29  27  31  45  61  51  68  72  72  75  76  77  85  96 109 121 127 140 146 147 154 159 158 157 153 148 142 133 124 111 111 112 123 127 136 148 159 165 172 162 135 120 110 104 100 100 106 110 116 138 167 178 192 202 202 193 187 179 157 144 139 139 141 152 162 169 173 177 184 188 193 197 207 180  93  92 103 136 157 168
 101 100 100 101  99 105 175 155  72  89  43  33  31  36  41  59  70  57  64  71  73  74  75  76  82  93 103 116 125 134 139 144 155 160 162 162 163 161 160 160 160 154 154 150 151 155 159 167 170 177 180 159 130 120 114 108 105 107 109 110 114 129 159 176 191 198 200 196 190 190 193 183 166 157 152 154 163 171 177 183 188 193 199 200 205 190  99  95 126 152 164 175
 101 100 100 101  99 111 178 189  78  95  53  35  38  47  57  71  67  61  65  69  71  74  73  73  79  88 101 111 122 131 136 140 148 155 156 162 166 166 167 171 171 169 167 167 168 170 171 175 176 178 178 157 130 122 117 114 113 113 109 110 109 119 146 174 190 196 199 199 194 192 195 194 196 196 190 188 189 190 191 190 190 196 201 201 205 201 107 103 140 157 167 173
 100 100 100 101  99 118 182 205  82  77  71  34  36  51  59  57  65  60  68  67  68  71  71  69  76  84  95 103 113 122 131 135 142 151 153 161 165 167 172 175 176 173 172 174 174 172 175 177 178 174 170 154 139 126 121 118 117 116 111 110 109 114 140 168 186 196 199 201 198 197 192 191 193 193 192 189 188 186 186 189 194 198 198 202 207 205 119 116 148 158 163 163
 100 100 100 101  97 125 187 206 100  56  78  52  34  53  62  50  60  61  71  68  67  68  66  66  70  78  88  98 108 114 123 133 141 145 150 156 162 167 170 174 175 173 172 175 176 176 177 179 179 173 165 155 144 133 124 122 118 114 113 110 109 116 135 163 184 193 197 199 202 203 199 196 191 188 188 189 187 189 190 193 201 202 203 205 209 205 128 128 152 159 158 151
 100 100 100 100  96 136 192 203 127  60  55  73  73  61  52  56  63  61  67  68  64  65  63  64  67  76  83  94 101 110 119 126 135 143 145 152 160 166 167 171 173 173 174 175 178 178 178 180 178 171 163 158 150 134 122 116 110 105 105 108 110 115 135 162 181 191 196 197 201 202 202 199 197 191 188 190 189 192 195 198 201 205 206 208 208 202 133 134 152 157 155 143
  99  98  99  99  98 144 195 203 130  86  54  74  89  73  46  40  67  58  58  59  61  63  62  61  64  72  78  87  95 107 113 121 129 138 140 148 156 160 165 169 172 174 176 175 179 181 181 180 180 173 168 164 149 126 114 107  99  93 100 107 109 115 136 164 180 192 197 197 195 193 190 194 198 197 194 193 191 193 195 197 198 203 206 210 210 199 134 139 155 157 154 136
  98  98 100  99 100 151 198 206 129 103  87  98  86  74  72  57  66  58  59  59  60  63  63  59  62  71  77  83  92 101 107 113 125 132 135 142 153 156 163 168 170 174 175 177 180 181 181 181 182 177 176 165 133 108 102 104 104  94  99 104 110 117 130 155 176 189 195 196 195 189 180 180 189 193 197 195 196 194 194 199 201 204 206 209 208 190 129 142 154 155 151 129
  98  98 100  98 104 160 199 207 136 105 107 123  96  72  75  70  71  61  57  63  63  63  58  55  60  67  71  81  90  97 101 109 118 123 132 142 150 159 157 164 168 172 174 178 181 183 183 182 183 183 180 151 109  87  95 105 113 108 104 107 118 125 132 154 177 188 192 195 200 196 184 168 176 185 194 196 196 197 197 200 204 205 207 210 208 182 124 144 154 155 150 124
  98  98 100  98 109 169 200 208 147 104 106 128 105  69  64  72  71  60  56  63  63  61  57  56  58  64  71  81  85  89  96 104 111 118 128 140 147 155 156 160 164 167 174 178 182 184 184 186 185 192 175 137  90  75  97 113 124 120 110 112 118 122 138 154 175 191 201 206 205 201 196 170 159 172 184 193 198 201 204 206 207 205 206 212 210 171 122 146 155 155 149 121
  98  98  98  96 115 177 200 207 153  92 109 130 109  70  69  75  67  58  55  60  61  62  63  64  61  67  73  77  83  89  96 101 107 114 123 133 142 146 151 159 164 168 173 176 180 181 185 188 189 181 151 126  73  69  98 118 129 128 121 115 111 114 132 155 179 194 207 207 194 199 207 181 147 155 174 187 195 200 204 207 209 209 208 211 214 156 116 148 156 157 150 124
  98  98  98  94 124 184 203 202 159  76 104 125 117  83  69  61  53  61  56  57  60  64  66  65  60  65  73  79  81  87  95 100 108 110 116 126 137 143 147 156 163 165 172 175 178 181 183 187 185 150 132 118  53  58  86 112 124 128 131 118 105  96 109 144 169 179 186 189 187 196 203 186 150 139 158 175 185 196 202 208 209 207 208 210 213 139 112 148 157 160 156 130
  98  98  98  97 131 189 203 201 158  84  77 105 116  83  57  41  32  59  56  54  57  61  63  65  63  65  74  82  84  87  93  96  99 104 110 117 129 137 144 151 160 164 170 175 179 179 182 186 163 130 130 118  45  34  65  86  93 102 119 118 100  77  76 116 154 169 179 178 153 149 174 185 160 136 140 158 173 186 195 203 210 207 206 206 210 128 108 147 158 166 163 154
  98  98  97  97 137 191 206 206 154  98  72  60  74  57  39  26  39  56  55  54  55  61  63  67  66  66  74  82  83  86  92  93  92  98 105 117 122 132 140 149 159 164 168 174 177 178 179 177 142 129 129 122  72  30  32  36  26  20  32  49  58  63  60  84 131 158 176 155 117 145 179 185 172 143 126 141 159 175 186 197 203 205 204 203 205 117 101 144 160 169 173 182
  98  98  97  97 137 190 207 209 172 106  89  62  24  12   9   9  45  56  55  53  54  57  63  67  68  64  72  79  81  83  90  90  93  94 101 113 119 130 140 148 156 161 167 171 173 175 175 169 138 131 129 121 104  90  73  56  37  35  21   9  10  20  46  70 118 158 170 175 181 182 181 185 181 167 134 120 142 162 178 190 195 201 200 197 195 107  95 135 157 170 178 183
  98  98  98  95 124 183 205 209 195 132  95  79  30   2   2   3  42  57  56  54  50  57  60  68  68  68  73  80  83  85  89  89  91  93  97 105 116 130 143 148 157 165 166 170 171 172 172 172 159 136 124 117 108 106 108  93  73  78  76  51  25  19  41  94 161 176 147 149 154 164 181 185 182 180 163 115 118 146 168 184 193 197 196 196 181  96  90 117 151 165 175 179
  98  98  98  95 104 163 202 209 205 166 103  89  34   3   6   4  40  60  58  53  52  56  57  64  71  72  77  84  86  88  91  87  89  93  97 103 113 130 143 150 158 163 164 167 167 169 171 172 169 147 129 125 110 102 101  80  78  87 100 109 108 113 131 165 188 171 154 154 152 164 181 186 183 180 175 136 100 128 155 178 191 196 193 193 165  90  91  97 130 155 167 170
  98  97  98  97  93 132 189 207 207 192 129  86  30   6   8   4  36  60  60  54  54  55  55  63  70  72  77  82  87  88  92  89  92  95  95 101 113 126 137 148 158 162 164 164 163 164 168 164 151 139 135 135 118 110 114 105  99 110 122 125 130 149 170 173 160 160 161 167 172 178 175 180 175 170 174 166 103 107 138 170 187 193 191 196 150  85  94  92 100 128 148 153
  97  97  97  97  95 107 167 203 208 204 165  95  20   6   9   3  34  61  60  55  55  53  53  57  64  70  73  79  84  90  92  93  96 101  98 101 114 123 137 152 157 160 163 162 160 157 161 151 139 133 128 133 134 116 116 122 117 121 112 103 126 139 154 155 139 147 163 173 178 180 183 180 171 174 175 186 159  99 126 164 184 190 188 196 138  85  94  94  94 103 118 123
  96  96  96  96  97  95 136 192 208 207 190 128  33   3  10   4  33  61  60  53  54  52  52  53  57  66  71  77  81  88  95  97  97 102 104 107 116 129 139 154 161 165 167 159 161 158 154 140 129 122 124 133 127 126 125 133 134 133 123 121 141 153 150 146 161 178 185 187 190 193 193 185 174 176 178 174 181 120 115 160 187 192 190 197 126  87  94  94 103 112 114 113
  96  97  97  97  98  94 110 171 203 208 200 161  91  16   4   8  33  60  59  56  55  53  50  51  55  59  70  72  78  88  95 100 101 105 108 112 120 130 147 161 170 175 167 158 159 154 147 128 125 122 122 127 133 137 142 150 150 147 149 153 160 172 173 168 180 186 177 177 182 183 187 192 182 176 177 167 178 140 122 163 191 195 196 196 111  89  92  96 113 121 124 122
  96  96  95  95  96  95  96 140 192 207 208 188  91   8  11   7  29  60  60  55  54  52  49  47  50  55  63  69  77  86  91  95 101 106 108 110 120 133 151 162 174 178 161 152 157 152 148 142 126 122 121 125 126 119 126 127 130 129 132 137 140 151 156 167 172 165 167 165 168 169 162 158 161 168 167 162 175 157 142 173 194 195 199 188  99  92  92  99 122 133 136 132
  96  96  96  96  96  96  94 113 173 205 211 147  45  33  34   1  31  61  61  52  51  51  50  45  47  51  56  63  71  81  87  94  99 104 107 111 122 134 147 159 177 182 168 166 151 139 136 133 105  75  68  70  71  78  88  89 102 117 121 125 130 127 134 153 161 156 166 161 157 168 131 102 125 138 150 143 165 165 167 186 196 195 202 173  90  93  93 107 132 145 146 143
  96  97  96  95  96  95  96  95 142 194 204 199 184  76  13  37  44  59  61  51  50  49  48  46  46  50  54  62  67  79  86  95 100 104 108 111 122 136 145 158 176 184 175 167 152 132 113 112 119  93  71  68  72  78  99 100 105 112 123 116 112 107 113 135 142 137 147 155 162 164 148 173 184 170 170 158 170 176 181 190 194 194 204 152  85  93  96 117 135 148 149 145
  97  98  97  96  97  96  96  93 113 170 197 213 212 153 106  91  41  58  58  52  48  48  47  45  46  48  52  56  65  74  84  91  99 102 107 110 116 127 139 153 168 181 174 160 157 156 144 136 137 136 114 107 107  97 107 114 124 131 137 147 150 150 136 136 149 152 165 177 177 167 179 198 188 183 181 183 186 187 187 189 192 194 198 127  86  93  99 116 132 143 145 141
  97  97  96  95  95  96  96  95  97 129 167 186 198 179 178 146  74  57  55  42  46  47  45  45  44  48  51  56  63  71  82  89  97 101 100 109 113 120 132 143 161 176 175 165 164 155 151 139 132 130 124 131 130 112 103 101 102 115 134 155 167 176 169 166 176 180 181 179 173 185 200 199 191 197 195 183 188 191 192 189 189 193 187 102  90  93  99 110 126 137 136 133
  96  96  96  96  96  96  96  97  95  98 116 129 140 142 144 147 110  58  60  44  41  46  47  43  43  46  49  54  57  65  77  82  93  99  98 104 111 116 124 137 157 166 174 162 155 152 158 156 151 141 141 149 150 142 135 122 113 102 112 130 148 156 158 154 163 165 168 176 191 204 206 198 196 202 200 193 189 190 194 192 188 192 159  87  91  91  96 104 114 125 127 123
  96  96  96  96  96  96  96  96  96  95  94  94  93  96  97 101 100  63  59  53  46  44  45  42  41  44  43  52  57  62  73  77  89 102  98  97 103 109 119 133 149 164 164 153 153 156 153 157 160 157 154 150 153 160 162 155 146 138 130 130 141 154 160 158 165 177 188 200 210 206 202 199 199 204 202 200 194 191 190 188 186 191 122  86  92  92  95  98 102 110 112 106
  96  96  97  96  96  96  96  96  96  96  96  96  94  94  95  94  90  65  60  56  46  45  44  41  40  45  44  48  59  66  71  77  81  97  99  94  93  98 109 124 138 151 161 154 149 141 142 150 156 154 156 151 151 156 160 165 163 164 158 158 164 172 177 181 189 197 205 207 208 203 201 203 203 203 199 197 194 189 188 186 191 170  90  91  92  93  94  94  95  96  98  97
  99  97  96  97  97  96  96  96  96  97  96  96  96  95  95  95  93  67  61  56  46  45  40  41  39  40  44  46  53  63  67  80  86  92  98 101  96  93 100 111 127 140 151 154 142 130 139 146 148 145 153 155 155 148 148 156 157 158 163 167 174 180 185 192 196 199 200 201 199 202 203 204 206 201 197 197 191 187 186 189 197 130  83  92  92  93  94  94  94  94  94  95
  98  96  96  98  97  96  96  96  96  96  96  97  96  95  95  96  95  71  61  55  45  46  43  38  35  37  42  43  47  57  63  74  86  97 102 106 101  95  96 100 110 132 144 146 147 139 142 146 148 149 153 160 155 150 147 146 137 137 153 160 165 162 173 188 188 187 183 190 195 203 205 206 201 194 192 195 190 185 186 193 175  93  89  92  92  92  94  94  94  95  95  95
  98  96  96  96  96  96  96  96  96  96  96  95  95  95  95  97 106  73  60  56  48  42  42  36  33  38  39  40  42  55  61  70  84  99 105 108 107  98  97  92  99 117 126 129 131 128 136 148 152 151 157 162 155 150 153 151 148 148 152 155 143 146 163 176 176 180 181 187 194 200 206 201 189 191 190 191 189 186 188 195 125  84  92  92  92  94  94  94  94  95  95  95
  97  96  96  96  96  96  96  96  96  96  96  95  95  95  94 108 116  78  59  58  50  43  41  37  36  36  36  37  41  48  60  68  75  93 103 104 105 102  94  86  94 102 110 127 127 131 139 145 150 155 161 164 159 153 159 161 162 151 146 137 132 141 151 162 167 185 186 190 200 203 206 201 190 189 192 194 190 188 195 162  89  91  92  92  92  94  94  94  96  95  95  95
  96  96  96  96  97  96  96  96  96  96  96  95  98  99 100 121 123  90  60  58  51  44  39  38  34  33  35  37  41  45  55  64  68  82  93  97  97 100  96  88  82  95 102 117 122 130 133 139 146 152 160 163 167 166 170 167 163 155 141 130 133 131 141 146 162 184 188 191 197 202 201 196 189 195 187 190 190 192 191 113  86  92  92  92  93  94  94  94  95  95  95  95
  98  97  96  97  96  96  96  96  96  96  98 102  83  58  98 128 127 106  59  57  50  45  40  37  34  35  34  35  38  41  46  54  66  76  82  87  94  99  95  90  87  91  97 106 116 122 127 132 140 154 157 163 170 171 170 168 165 166 159 148 150 144 149 156 167 179 187 198 203 199 201 200 192 196 193 189 186 196 134  93  91  91  92  92  93  94  94  94  94  94  95  95
  98  98  96  96  96  95  96  96  96  98  99  56  10   6 107 133 129 121  64  51  49  44  39  36  36  35  36  36  36  36  39  44  54  71  76  80  89  94  91  84  80  85  88  98 105 115 120 127 137 149 152 155 164 170 166 170 167 167 170 174 175 177 179 179 180 184 191 198 201 202 205 207 198 190 194 189 188 152  83  89  92  92  92  92  94  94  94  94  94  94  95  95
  98  98  96  96  96  96  96  96  97  98  41   0   0  42 129 129 129 130  99  55  52  45  42  39  35  35  34  33  37  42  41  42  50  59  62  77  88  89  91  91  81  74  72  81  95 108 119 119 129 139 143 153 166 170 174 177 172 171 182 183 186 186 185 183 176 183 196 200 201 205 205 192 188 184 188 193 163  92  87  89  91  92  92  92  95  94  94  94  95  95  95  95
  97  96  96  96  96  96  96  96 103  58   0   4   0  78 129 128 130 130 119  69  52  48  44  40  36  34  33  32  37  40  37  38  47  49  47  65  75  77  78  83  82  72  69  79  84  88  98 106 126 131 137 147 166 169 180 179 178 179 183 184 181 176 180 181 176 190 199 198 200 208 203 190 186 190 195 178 102  88  91  91  92  92  92  92  94  94  94  95  95  95  95  95
  96  96  96  96  96  96  96  99  86  12   3   5   2  79 125 127 126 128 130 100  51  49  46  40  37  35  36  35  39  38  36  37  38  41  47  57  67  71  76  76  75  83  68  56  57  72  83 102 115 117 132 140 155 167 173 174 182 188 183 178 178 180 180 188 187 194 197 202 202 200 192 191 183 188 185 110  84  90  92  92  91  91  94  95  94  94  94  95  95  95  94  94
  96  96  96  95  96  96  96 102  42   1   6   6   1  39 118 125 127 128 128 124  77  47  47  43  39  37  36  36  38  39  40  41  37  37  40  55  64  63  70  67  61  69  65  55  50  56  65  81  99 119 128 137 140 156 174 174 176 180 185 185 181 187 184 179 181 188 195 198 197 196 189 189 176 179 119  82  90  90  91  92  91  93  94  94  94  94  94  95  95  95  95  95
  96  96  96  96  97  96 102  75   7   6   6   6   5   2  71 128 130 134 136 133 110  59  48  44  41  39  35  32  35  38  45  48  44  42  40  46  53  50  55  56  56  53  51  56  51  46  50  65  86  97 109 122 134 148 167 174 175 175 187 185 178 181 179 173 187 191 199 190 192 188 179 175 175 129  83  89  91  92  92  92  92  93  94  94  94  95  95  95  95  95  95  95
  96  96  96  96  96  97  98  27   3   7   6   6   6   3  10 102 137 143 150 152 142  98  54  49  44  39  36  34  34  37  45  55  63  53  47  46  43  44  51  50  52  51  46  46  41  37  41  42  64  74  93 111 129 134 148 162 170 167 174 180 178 170 170 181 182 183 190 189 193 188 166 160 143  93  89  90  91  92  92  93  94  94  94  94  94  95  95  95  95  95  95  95
  96  96  96  96  96 104  55   2   8   7   6   6   6   6   1  31 124 144 152 162 171 161  94  54  60  49  38  37  34  35  38  42  57  63  57  61  53  44  50  54  53  46  40  37  33  31  30  37  45  60  87  93 108 118 124 143 150 152 164 174 170 164 162 155 163 176 182 189 173 163 149 125  87  88  90  90  90  90  92  93  94  94  94  94  94  95  95  95  95  95  95  95
  96  96  96  96 101  74   7   6   8   6   6   6   5   6   7   0  58 138 150 161 172 181 172  93  64  75  53  38  35  34  33  34  40  51  61  71  76  61  53  53  50  47  52  41  35  32  30  32  41  50  58  77  91 102 112 127 137 144 158 165 169 157 158 149 155 167 171 166 154 142 122  92  88  90  90  91  91  91  92  93  94  94  94  94  94  95  95  95  95  95  95  95
  96  96  96 101  84  15   3   8   7   6   6   6   7   7   7   7   2  89 147 154 167 173 184 178  96  70  87  66  41  32  31  34  34  34  43  61  76  70  65  71  68  56  54  50  41  37  38  40  42  37  50  64  70  90  94 126 126 138 141 150 144 132 132 139 140 143 148 145 121 108  94  87  90  90  90  91  92  91  92  92  93  94  94  94  94  94  94  94  94  95  95  95
  96  96 100  94  24   3   7   8   7   6   6   6   7   7   8   9   4  16 120 149 160 172 176 186 186 104  77  98  81  54  30  29  32  33  37  40  48  61  67  74  78  83  82  75  65  60  62  50  41  46  50  56  78  79  90  96 105 104 112 121 102 102 106 114 135 129 131 131  87  87  91  89  90  90  90  90  91  92  91  92  92  93  94  94  94  94  94  94  95  94  94  94
  95  99  96  33   1   8   7   6   6   6   6   7   7   8   8   8   9   1  43 143 153 168 175 178 188 190 114  86 109  98  59  32  27  32  35  35  39  45  51  55  57  63  68  83  76  82  87  78  62  54  57  59  67  68  83  67  78  75  78  76  66  77  79  77  96 107 107 115  87  90  90  89  89  90  90  91  90  92  93  92  92  93  94  94  94  94  94  94  94  94  94  94
  98  97  37   2   8   8   7   7   6   6   6   6   6   7   9   8  10   7   0  86 155 159 173 179 182 190 195 130  96 112 105  76  43  33  32  33  37  38  40  45  51  57  58  63  60  61  66  61  59  69  81  77  66  61  59  70  54  54  69  71  78  95  73  71  83  91  93  86  89  89  90  89  89  90  90  90  90  91  92  92  92  92  93  94  94  94  94  94  94  94  94  94
  99  42   1   8   8   8   8   8   8   8   7   7   7   7   8   8   8   8   4  13 121 155 167 177 181 184 191 198 147 115 119 117  98  67  47  35  35  35  40  44  45  48  58  62  64  63  63  63  63  66  73  87 101 115 124 137 146 151 167 179 181 135  81  89  89  89  88  89  89  89  90  89  89  90  91  90  90  90  91  92  92  92  92  92  93  94  95  94  94  94  94  94
