P2
# Generated by OpenCV 4.2.0
92 111
255
 112 112 112 114 112 113 113 115 113 113 113 113 112 112 111 116 114 119 115 122 136  88  26  83  22  28  25  33  20  42  34  40  21  15  15  48  25  38  37  22  52  19  19   2  47  61  55  34  50  28  56  69  60  53  90  67  66  55  63  30  16  28   1   5  82 113 131 118 117 114 114 115 114 115 112 111 110 109 109 107 107 106 106 104 105 103 102 102  99 101  97  98
 112 111 113 113 113 113 113 114 113 113 113 114 113 113 111 111 108 111 124 115  34  38  81  43  21  34  29  33  41  43  44  62  30  33  47   9  19  40  61  43  28  11   9  69  39  26   8  38  83  57  31  56  46  64  41  80  75  30  44  51  20   3   7   9   2   8  59 124 114 111 115 115 113 113 112 111 110 107 107 108 105 106 104 104 102 103 101 100  99  98  99  97
 111 110 113 111 111 113 114 114 112 113 112 112 113 111 110 113 113 118  81  47  49  65  67  22  32  35  34  52  56  56  39  47  47  63   0  14  53  70  48  91   0   0  48  43  54   0  19  58   8   0   1   9  19  24  61  47  75 119  13  41  62  21  23   1   5   5   0  76 133 118 118 111 114 113 111 111 110 109 107 106 107 104 104 103 103 101 100  99  99  99  97  97
 110 112 111 114 114 112 112 113 113 114 112 113 112 112 112 113 122  65  77  62  91  91  32  26  51  16  49  44  68  66  57  32  33   8   8  66 113  19  75  60   3  36  13  46   1   0   2   1   1   0   0   4   0   5  31  68  71  56  93  77  15  67   9  25  19  17  15   4  79 128 118 112 113 113 111 111 109 107 107 105 106 104 104 103  98  98 100  98  97  98  95  94
 111 112 113 111 113 112 113 112 110 111 112 112 111 112 110 117  79  97  46  76 120 101  33  51  32  14  93  55  46  57  80  11   1   1  97 122   5   7  31  42   0   1   1  15   0   0   3   3  47  68  75  76  44  33  38  11  69  64  77  57  32  32  40  18  11   8   4  14  15  50 128 115 113 115 111 112 110 107 107 104 105 104 103 101 105 100  97  96 100  97  95  95
 113 111 111 113 113 110 111 111 112 112 111 112 110 110 113  82 101  81  49  64  82  65  31  67  17  39  52  70  35 107  98   0   4  19 108  99   0   0  49   0  11  22   0   1   0   1  24  67  87  71  53  12   8  23  11  42  34  88  60  66  57  26  18  27  14  21   5   4  12   7  88 128 117 113 110 109 108 109 106 105 103 102 102 100  98  98  97  96  92  93  93  95
 110 112 112 112 113 111 111 110 110 112 111 110 110 107 113  87  96  75  72  63  74  71  49  43  10  42  62  30  58  30  45   2  48  72  63  27   0   2  10  12   3   3   1   1   0   8  26  58  16   5  39  61  64  47  44  29  30  20  89  42  60  31  26  32  30  32  15  12  17  16  30  89 109 110 112 107 108 111 104 106 104 101 100  99 100  97  98  93  88  79  77  89
 109 110 112 111 111 111 110 111 110 109 111 111 109 110 109 103  88  94 105  77  73  94  54  38  22  53  46  43  26  20  23  13  90  63  11  14   1   8   7   5   2   2   1   2   2  17  16   4   4  19   0   3   0   2  22  38  48  35  68  83  75  49  40  28   5  39  42  19   0  10  14  43 113 120 113 108 107 109 107 102 106  99 102  92  89  83  86  89 112 135 171 168
 110 110 112 112 111 110 111 109 108 109 110 109 109 124 113 118  98 102  98  89  69  83  55  25  76  20  61  56  16  32  31   6   0   8  10  16   4  12   9   6  15  10   1   0  45  10  12   3  20  36   0   0   0  27  26  18  33  48  28  86  54  75  53  12  24   1  31  32  20   1  13   9  15 105 118 109 108 106 104 102 104 100  97  93 126 164 189 211 224 235 248 237
 111 111 111 112 110 110 110 109 110 108 110 109 109 122 119  99  98 115 105  75  70  65  91  53 107   0  50  35   5  21  61  20  16  22  15  24  22   8  20  12   6  14   3  13  29   1  21   4   1   6   0   1  10   4   8   1   1  31  68  85  58  37  44  11  15   2   1  28  24   9  13  20  17  34 109 109 101 101 104 102 102  99  92 163 215 242 249 252 255 255 254 251
 111 111 110 111 110 111 110 109 109 111 110 110  96 108 113 117  85 120  98 110  76  69  69  62  86  60  34  37  33  29  21  35  31  39  30  26  39  17   7  10  20  17  13  15  17  16  22  17  10   9   3  33  32   5   3  27  13   1  47  69  85  23  55  37   9   9   1  12   9  30  16  30  15  11  41 177 149 108 101 102 103  96 109 206 247 252 254 254 252 253 254 250
 111 111 111 111 110 111 110 109 108 113 108  89  92  97 116  68  78  98 101  95  72  76  85  54  55  68  34  52  42  68  62  56  47  47  63  47  54  55  48  40  45  69  80  60  69  49  56  43  36  31  26  15  28  14  45  24  17   2   9  64  75  48  26  27   8  13   1   3  19  20  17  28   9  74  10 154 238 161  94 104 104  96 115 211 252 251 254 252 255 255 254 231
 111 111 111 111 110 109 109 108 103 103 100  86  75  79 102  73  45  83  59  77  81  73  76  85  71  80  74  71  67  56  64  87  96 110 104 101 109 120 125 124 126 126 140 132 126 122 113  89  71  60  39  41  31   6  37  67  75  10  13  62  51  81   5  19  11   7   3   0  10  15  25  15  26   1  48   0 190 233 115 102  98  99 100 178 237 253 254 252 252 254 243 195
 110 111 111 108 110 109 108 108 103 109  68  88  69  93  96  93  67  89  68  63  75  89  77  73  99  89  65  86 101  92 122 147 159 149 178 180 169 152 160 180 180 175 163 169 164 145 145 138 121 110  90  84 110  77  71  69  59  62  26  56  62  58   3  14  14   4  10   1   8   7  37   7  13  18  19   8  32 200 121 102 107 101  88 118 221 253 254 255 255 254 242 176
 111 111 110 109 109 108 109 103 103  84 118  95 108  97 100  92  77  81  78  79  62  90 115 111 117 124 136 147 146 165 178 184 197 198 191 202 189 193 188 185 179 179 170 168 173 169 158 153 141 133 129 111  80  62  77  51  76  59  43  39  41  35   9  13  18   1   9   0   3   9  18  12  11  14  12  12   0  72 109 105 101 102  95  78 202 248 253 253 255 255 240 168
 109 109 110 109 108 108 106 111 111  94  90  82  68  55  93 104  91  90 113 124 143 136 157 193 218 214 212 222 217 207 197 198 206 205 207 204 200 192 185 182 179 182 177 177 175 170 157 159 151 146 133 128 113 109  94  76  64  96  48  34  30  28  20   0  17   7   3   1   1   4   1  15   3   5  15  19  20   4  44 111 100 100  73  93 201 252 252 253 254 255 241 160
 107 110 110 111 109 108 106 117 110  91  87  75  86  84  72  74  96  89  99 125 151 193 224 228 222 215 215 211 214 212 205 200 208 201 201 200 197 191 191 185 185 184 180 175 175 172 164 159 155 146 146 141 127 123 104  90 114  87  78  48  27  22  28   0   3  12   0   0   0   1   0   6   4   1   3   9  15  19  14  63 105 107  91  83 214 252 251 253 255 253 236 152
 110 108 109 109 107 107 109 121 121  98  80  90  90  75  56  62  78 110 166 203 220 225 223 221 215 210 219 216 209 207 204 203 204 198 199 196 197 195 190 190 189 191 182 181 178 172 170 165 160 155 149 141 126 124 111  97  90  98  72  82  31  27  27   1   1  17   1   0   0   0   0   0   2   1   0   3   4  12  21  24  67  55  66  94 218 249 253 254 254 251 233 142
 110 109 108 108 107 106 125 115 111  98  95  78  83  76  70  65 102 190 215 214 214 217 218 216 212 214 209 205 210 209 204 208 205 199 201 195 195 189 187 189 183 189 186 188 184 180 169 167 160 157 151 140 136 128 116 103  93  94  76  62  45  37  14   9   0  13   5   0   0   0   1   0   5   0   2   0   0   0   6  13  12  27  24 113 207 253 253 253 252 252 230 137
 110 108 108 107 106 101 162 106 124 129  88  77  62  64  51  56 192 217 220 223 221 208 216 212 211 212 210 210 210 211 209 208 206 205 202 196 197 190 187 188 192 190 182 184 185 177 169 171 173 146 157 154 148 136 129 111 102  91  88  52  48  41   8  17   0   6   3   0   0   0   0   1   1   4   0   1   3   0   1   2   9   9   2 133 195 245 251 253 253 253 229 128
 110 109 109 107 104 105 166 113 130  91  84  66  37  74  21 177 223 218 217 219 216 212 217 212 209 211 212 210 208 209 208 207 209 206 204 203 198 194 194 195 187 189 186 188 182 179 175 170 169 164 160 156 151 136 134 120 110  94  86  84  54  45   5  14   3   2   6   1   1   0   0   1   0   6   0   5   5   7   1   0   1   6  54 105 231 210 253 254 253 253 224 122
 108 108 108 106  99 138 117 114 120  90  93  59  73  28 117 229 220 219 217 218 215 216 209 208 212 214 209 209 206 205 209 211 206 202 203 198 192 194 189 194 189 199 183 176 186 178 173 172 166 172 160 154 146 147 135 127 110 106  97  79  84  50  25  11   5   2   6   2   0   0   0   0   0   1  13   7   5   5   0   0   0   9  14  73 215 213 255 252 253 253 220 116
 110 108 106 105 107 147  95 109  68 172  95  80  45  62 226 217 218 217 214 217 213 216 208 205 209 214 204 202 208 208 209 208 203 201 195 194 191 195 192 194 185 189 182 185 183 179 173 171 171 162 162 152 149 136 127 127 119 104 100  94  75  79  45   3  21   0   0   3   3   0   0   0   0   4   0   2  19   2   0   5  12  20   0  38   2 255 252 254 254 255 216 109
 108 106 105 106 120 129  71  99  84 178  94  91   0 205 223 218 218 218 216 209 211 210 215 206 210 210 203 208 206 206 200 200 199 198 194 195 193 191 191 195 192 194 196 179 173 168 167 169 170 165 157 154 149 138 130 131 118 112 107  94  86  62  64  23   7  19   1   1   1   0   0   0   0   0   0   0   0   2   1   4  16   4   8   9  43 244 252 252 255 254 216 100
 108 109 107 107 120 108  64  91  69 137 111  50 125 231 213 220 217 215 215 214 208 208 211 203 206 207 206 212 208 203 200 201 195 192 192 192 196 193 188 191 190 189 184 179 180 167 167 172 167 167 159 155 147 137 120 123 128 114 109 102  90  78  60  52  18  11   9   9   1   0   8   0   1   1   2   0   0   0   1   4   5  12  35  16   0 127 255 252 254 252 208  96
 110 107 107 106 115  99  38  54 107 145  84   0 226 219 221 215 213 213 214 215 216 214 211 209 211 202 208 199 205 200 203 199 199 198 195 199 194 194 193 190 192 186 186 185 174 172 171 171 168 162 155 153 142 138 132 126 128 121 120 101  88  84  72  57  44  23  29   0  12  11   7   0   0   0   1   4   4   6  12  11  20  17  10  19   3   0 223 251 254 251 205  90
 106 106 106 106 101 100  18  58  77  99  63 124 234 218 219 215 216 217 213 217 217 216 210 209 208 205 203 207 211 204 202 199 197 195 191 195 189 194 190 197 188 183 181 183 173 166 164 161 167 163 157 154 142 140 130 129 124 122 115 109  92  89  77  73  69  75  51  46   3   3   0   1   1   0   2   4   6  10   9   9   1   2   7  11  17 107 167 253 253 253 201  87
 107 105 105 104  92  86  25  61  70  66   6 216 225 217 218 215 216 217 217 213 214 213 204 205 204 205 202 210 203 206 206 205 200 201 191 192 193 195 190 192 188 183 185 173 174 174 169 163 161 161 159 146 142 139 135 125 125 128 122 112 105  90  89  83  77  89  76  76  42  10   5   7   1   2   3   0   0   0   1   0   8   7  14   6  12  25 151 255 251 251 195  78
 107 105 105 102  95  89  29  51  61  56  37 235 221 216 219 215 215 216 218 215 216 214 209 211 201 208 207 203 201 206 212 198 204 199 192 196 186 195 190 182 191 175 173 164 171 175 172 163 158 156 153 150 138 138 133 126 123 126 125 116 106  90  94  90 100  97  76  81  75  54  24  12  12  14   8   3   3   7   4  10   8  14   0   1  13   0 117 255 255 249 191  75
 106 106 104 102  94  73  35  37  41  57 179 224 218 218 220 215 218 218 218 216 216 214 212 209 204 198 195 196 205 206 196 200 199 197 197 195 190 187 188 182 176 174 186 175 169 172 165 160 159 156 149 146 139 138 133 127 124 127 121 109 100  95  94 103 102 105  88  76  62  56  44  25  10   0   7  16  17  21  16  12   9   9   9   4   0   0 134 255 253 249 185  75
 104 104 102 105  99  62  26  21  80  79 228 221 220 220 219 217 219 218 217 217 208 214 213 207 204 193 200 200 206 202 205 198 201 198 201 195 190 194 183 190 186 188 190 184 179 177 168 161 160 155 146 141 141 135 133 131 133 127 119 110 106 105 103 107 106 102  83  72  64  48  50  33  15   8   1   0   0   0   0   0   0   4   3   4   1   0  83 230 253 245 177  75
 104 103 100 102 107  59   9  90  81 193 227 223 218 222 220 219 217 218 218 217 214 213 213 214 205 200 204 208 210 207 204 203 209 201 198 198 198 195 190 193 188 191 183 183 180 172 169 171 160 151 142 138 146 139 135 138 132 129 123 113 111 110 109 112 112  97  91  68  60  53  43  40  23  12   4   2   0   0   2   1   1   0   5   6   6   7  64 254 253 245 166  74
 103 103 101 103 105  45  26 102 139 201 224 221 220 221 219 223 222 219 219 219 220 214 212 217 211 202 194 197 199 204 207 202 206 199 201 203 204 196 197 200 195 194 196 188 183 175 177 164 161 151 146 138 139 133 132 134 136 130 122 121 113 112 115 109 107 104  81  74  55  55  49  41  19  17   8   2   3   3   3   1   1   0   8   8  11   8   0 230 251 242 165  71
 103 104  99 108  96  41  74 118 164 209 224 222 220 221 220 218 218 220 219 218 219 216 209 209 208 203 200 205 204 206 209 208 201 204 201 202 205 198 194 199 197 187 196 191 189 176 170 167 159 151 144 139 137 140 133 134 129 120 121 117 114 111 111 111 100  89  77  68  57  47  37  35  35  16   8   7   8   4   2   2   0   0   3   0   5  10   3  59 255 244 151  81
 103 101 101 108  86  67 100 119 193 212 222 222 220 222 217 218 219 218 217 213 217 210 212 207 205 206 201 210 208 212 206 207 205 205 206 206 207 208 192 196 195 191 186 183 180 179 172 164 163 154 145 140 136 137 141 137 130 124 116 117 112 114 113 102  90  81  69  57  46  38  38  32  26  19   8   2   2   6   3   3   3   3   2   8   0   2   5   0 137 252 153  75
 102 101 103 105  72  75 113 142 191 216 221 221 219 221 216 216 219 220 222 220 216 214 206 207 207 203 205 208 206 207 209 207 212 205 209 208 202 205 203 200 198 196 185 185 175 170 170 169 158 149 145 142 139 139 142 134 128 123 115 116 114 116 112 107 100  90  68  57  52  41  34  26  22  10  12   5   0   0   2   1   0   0   5   6  12   9   0   1  35 222 145  81
 101 102  99 101  89  55 108 136 203 219 219 221 221 217 220 218 223 222 225 218 216 210 212 211 205 205 202 205 205 207 210 207 213 209 211 208 205 201 204 191 195 193 188 177 174 173 169 165 157 149 144 140 141 143 140 132 128 120 113 113 113 110 109 102 103  91  90  68  46  37  34  28  26  23   7  11   4   0   0   6   2   5   2   4   2   5   7   0  53 238 134  78
 102 101  99 109  65  31 114 145 220 215 218 222 220 218 222 220 227 225 226 223 222 213 216 211 211 211 212 203 207 209 208 214 207 209 211 209 208 201 205 196 192 196 177 166 172 168 167 166 166 154 149 144 143 144 134 139 126 114 108 110 115 105 104 106  98  94  88  76  58  37  31  24  23  26   9   7   6   1   0   0   1   1   5   1   1   1   2   0  16 243 129  87
 101  98 106  92  24  75 113 151 225 215 220 223 222 221 224 224 227 225 226 222 222 223 213 218 208 210 212 209 209 210 206 210 212 212 210 204 203 206 206 199 183 185 188 180 179 179 176 171 159 156 151 146 150 143 132 128 123 115 109 107 103 107 103  96 101  91  93  83  72  54  30  17  19  27  16   3   5   2   1   1   4   7   3   0   3   1   6   2  51 246 115  83
 119 101 101  79  35  81 104 163 224 216 222 223 223 223 226 227 228 229 225 230 223 221 214 217 219 215 209 213 211 213 212 218 214 217 209 212 204 201 205 206 189 174 182 174 169 184 162 173 163 157 167 146 150 145 133 137 127 119 102 104 100 103 104  94  94  93  87  87  79  68  51  30  13  15  14  14   1   3   4   2   0   0   6   7   2   3   2   0 133 243 105  91
 143 122 104  96  53  85  81 170 221 220 224 216 224 222 229 227 229 230 229 227 222 224 223 217 218 210 209 214 217 211 210 202 206 208 219 192 195 204 191 181 179 169 148 155 134 141 126 132 116 107 100  74  79 112 131 133 123 120 106 104 101 103 102  95  68  87  89  89  81  75  59  40  22   8  20  15   1   0   0   0   6   6   4   5  10  12   3  65 242 234 103  91
 161 139 110  95  75  66  26 213 222 219 225 225 225 229 227 225 225 227 223 219 223 223 220 213 209 212 207 208 205 210 212 188 207 204 212 169 165 164 147 140 104  39  12  41  24  35  46  39  40  54  62  64  75  57  49  81  95 118 117 106 103  98  94  91  96  90  90  86  83  78  71  52  28  11  16  16   0   1   1   2   1   0   2   6   2   1   0 135 250 222  92  89
 182 152 112  93  68  37  60 218 222 219 219 230 226 228 227 223 223 221 229 220 208 217 216 209 203 203 196 202 205 199 203 202 200 190 183 171 117 122  98  87  67  55  46  42  33  44  31  42  37  25  13  35  52  62  56  49  20  40  68 101 102  94  94  96  95  88  89  90  84  77  70  66  41  14  12  18   2   9   0   6  11   6   2   7   1   1   0 211 255 210  94  91
 196 157 111  88  34  51  40 226 220 226 228 229 220 221 204 210 227 211 169 187 174 164 174 205 203 195 199 210 204 197 193 196 189 200 162 145 118  65  76  74  65  24  40  39  22  32  18  28  19  40  59  64  17  17  36  48  48  52  35  39  79  90  93  87  90  90  91  90  83  82  77  67  56  29  12  14   0   5  13   8   1   2   0   8   0   0  44 243 249 207  74  93
 194 150 100  94  40  53  42 232 212 221 213 207 195 193 160 114  94  44  82  53  87 107 170 151 197 194 194 202 199 197 185 182 171 174 148 125  78  48  64  48  40  23  31  27  42  64  81  92  94 112 103 110  87  80  69  38  40  40  35  37  41  64  86  94  91  87  92  91  84  87  78  70  60  38  12  13   0   3   0   0   2   0   0   4   1   0   0 255 252 202  79  94
 190 148 105 106  35  32  12 234 217 166  81  94  57  62  56  70  58  57  48  60  66  62  98 124 166 197 181 199 201 192 183 180 180 158 147 101  81  59  62  63  66  68  82  79  87  95  98 108 114 120 108 114 103 104  92  85  71  61  41  46  49  46  55  73  78  92  94  91  88  85  78  72  68  47  13  16   5  10   6   5   0   0   3   0   9   5  59 251 248 188  76  96
 187 145 100 105  14  47  23 234  96 103 117 100  77  90  46  46  33  29  45  47  81  62  78 103 137 168 174 184 193 186 180 169 163 144 140 123  92  80  84  73  84  81  79  88  98 113 118 119 120 124 119 112 115 103  93  86  82  70  71  60  45  60  48  51  84  94  90  94  94  86  86  80  78  60  28  21  10   0   0   0   1   0   0  10  10   0  62 255 250 183  76  96
 184 141  98 113  33  44  14 161  75 128  87  68  81  60  26  46  43  65  89  83  78  90  67  79 126 159 174 190 184 184 166 168 158 141 130 109 101  81  79  77  76  76  94 107 122 115 112 121 124 121 116 109  97  91  84  82  82  78  68  60  52  52  54  47  54  84  90  90  92  88  87  82  79  66  32  15  21   1   1   0   0   1   6   2   0   3  90 255 250 177  75  95
 182 136  96 109  77  12  28 100  93  88 110 151 148 165 156 145 131 122 121 121 132 126 130 138 136 141 173 186 195 201 183 163 142 129 111 100  87  72  70  61  76  94  87  72  28  36  70 113 121  86  70  57  63  76  74  66  69  66  59  59  59  62  66  75  79  85  90  93  92  92  90  87  78  69  30  26  23   3   0   0   0   3   0   6  51  66  92 244 252 169  78  94
 181 135  96 101 103  41  28 136 130 178 188 177 157 166 158 162 159 150 143 132 123 121 125 141 154 157 177 184 199 191 188 171 152 128 108  92  78  62  47  68  88  78  39  64 139 178 227 194 147 133 111  82  55  34  47  67  61  61  54  54  54  64  62  84  84  90  95  98  99  94  93  88  80  73  42  21  23  11   2   1   0   0   9  39  65  79  51   6 224 177  77  94
 176 129  90  96 106 133  38 112 190 187 179 185 170 169 164 161 168 146 130 133 118 120 107 112 130 155 177 208 215 222 220 199 163 129  99  87  64  49  50  77  77  51  98 154 183  85  49   0   5   5  18  29  61  62  48  47  63  59  50  49  53  56  73  79  89  96  98 100 100  94  93  91  81  78  50  23  16  10  10   7   0   9  38  60  79  39  14  13 101 179  80  92
 171 128  96  94 107 137  69 152 186 180 176 164 148 145 133 116 117 116 137  92  81  72  88 104  96 110 160 201 220 232 222 192 160 134 102  72  51  43  55  77  80 120 108  75  15 134  31 132  14   4  15   0  16  17  40  50  64  66  57  59  48  71  85 110 106 104 107 101  96  93  94  87  81  82  54  23  13   2  10   7  11  35  53  56  53  42  34  23  38 199  82  90
 168 121  92  94 107 173 154 122 177 172 161 143 130  82 167 230 208 162  91 102 101 104  87  84 102 115 134 202 226 227 215 195 162 128  99  74  55  48  71  97 142  76  16  99 169 242  57  39  14   9  55  62  45  26   9   2  14  25  44  43  59  87 110 119 114 126 120 111  99  99  93  85  81  80  66  24  10   0   2   8  28  46  44  33  56  47  39  27  28 153  82  86
 162 117  90  93 106 162 202 168 173 158 148 127  84 209 195 121  17  23  81   2   0   7  35  77 126 136 147 193 223 225 209 196 162 121  95  73  58  60 117 125  25  17  80  97 159 212 142  49  46  21  88 111  93  53  56  48  58  38  38  48  52  89 116 127 127 126 121 112 103  93  88  82  83  80  72  30  14   7   2   2  30  26  26  41  64  51  36  32  30 124  90  90
 164 112  93  95 113 168 193 197 172 155 144 100 174 152  54  13 130  18 106   0   0  90  13  55  23 149 180 202 219 220 217 193 158 125  96  75  63  66 109 144 189 169 182 201 187 171 145 160 142 117  80  82 108  84  81  71  79  92  96 104 116 136 134 141 134 126 119 106 103  97  86  85  80  78  74  53  12   4  22  12   8  20  21  43  66  63  39  33  37 112  92  82
 156 106  92  88 117 157 169 206 187 165 166 157 147   4  26 138 150   5  45  15  44  65  45  39 108 183 199 205 226 209 210 189 140 123  94  85  69  74  89 131 142 131 152 188 189 178 151 130 133 108  90  88  73  65  58  59  85 120 106 126 130 148 146 148 143 133 120 110 104  97  88  85  78  77  74  59  22   4  15  23  33  40  43  56  58  65  35  38  40 103  92  84
 153 103  91  92 120 156 188 201 199 194 157 106   8  49 101 136 165 148  71 119 124 159 134 198 213 197 192 222 226 215 205 175 135 116 102  95  77  87 101 108 153 140 115 111 125 106 115 114 107  88  78  49  51  54  96 119 144 151 161 157 161 156 155 146 137 130 117 104 100  94  83  81  78  76  68  67  37   4  14  32  42  30  57  59  60  67  43  42  44 113  93  86
 150  98  93  89 117 174 195 206 211 194 140 111 139 122 124  89 121 162 175 174 143 113 153 149 160 200 204 220 222 211 195 157 119 110 105 104  97  93 101 102 119 163 168 161 142 158 165 136 115 112 110 121 133 155 160 169 175 179 181 174 170 154 146 146 131 126 109 101  96  89  82  79  79  75  67  70  48   1  24  39  32  41  61  61  68  69  48  43  45 108  94  85
 144  96  89  88 122 177 202 204 213 194 183 201 184 193 180 171 159 164 127 112 115 128 128 174 205 206 216 215 216 212 186 135 125 115 108 114 114 106 122 121 116 132 173 169 174 166 179 182 177 178 184 182 193 190 191 195 184 176 169 170 155 154 148 141 124 123 106  95  93  83  76  72  77  77  71  66  55   3  20  30  11  36  52  55  62  76  51  38  62 114  91  81
 138  91  95  90 129 178 200 206 215 214 210 196 160 150 126 136 123  97  83  92 133 156 210 219 211 210 215 219 214 203 158 131 123 108 119 123 129 136 132 128 130 130 141 162 174 176 196 198 193 187 191 187 198 196 203 193 183 178 168 156 147 143 137 127 122 105  96  90  89  81  77  73  71  77  72  65  58  17  19  45  11  19  37  46  55  71  70  39  71 120  95  84
 136  94  94  91 132 182 201 207 217 214 214 213 213 199 175 154 152 164 182 190 208 220 216 213 211 213 212 215 215 190 162 133 125 117 123 124 131 139 142 147 147 145 151 154 157 182 195 206 199 201 205 202 202 197 195 186 181 169 165 154 148 129 127 117 111 100  90  88  87  78  68  74  70  78  67  59  55  46  57  34  27  22  29  37  44  61  73  43  68 104  97  79
 134  91  92  93 136 180 201 215 217 216 218 211 200 206 207 212 209 216 217 214 215 210 214 215 214 214 210 219 213 185 158 146 134 115 109 106 109 118 131 141 156 158 159 168 159 184 200 204 205 205 204 205 197 192 193 183 177 172 152 150 139 126 120 114 105  95  86  82  82  71  71  71  69  72  72  59  57  52  69  25  39  29  30  30  38  63  72  30 146  94  95  80
 129  86  88  95 138 186 202 213 220 221 213 212 210 212 213 213 211 214 211 213 212 209 211 218 220 213 213 222 207 188 174 154 145 132 111  82  77  93 110 116 152 168 172 182 190 196 197 201 205 203 199 201 204 189 179 182 171 164 156 140 132 109 108 103  95  90  86  77  72  70  69  68  72  69  68  65  61  56  77  31  49  40  33  29  40  62  64  18 223  84  96  76
 123  83  90  94 143 185 201 213 217 216 214 217 216 219 214 215 212 209 211 214 210 214 226 211 212 212 217 222 207 190 180 159 156 129 123  93  97 110 106 102 123 171 176 179 193 201 202 208 214 201 200 199 202 182 180 181 172 158 145 132 122 115 106  94  85  82  84  75  74  69  66  65  70  65  64  66  60  63  76  45  62  49  39  37  45  75  60  74 221  74  98  77
 120  88  89  97 146 189 196 213 213 217 218 219 222 221 218 214 213 214 214 214 217 224 224 208 202 214 218 222 210 195 180 157 154 136 129 114 133 146 131 113  97 118 175 179 191 205 203 207 211 210 197 190 195 175 172 168 163 151 123 127 120 112  85  99  82  82  75  76  68  70  64  63  66  68  65  64  54  67  79  61  59  50  39  35  57  87  45 137 188  77  97  79
 118  89  90 100 149 192 206 203 214 214 216 224 219 222 214 209 217 209 214 216 221 219 204 199 207 219 222 227 216 202 177 146 123 109 118 116 133 141 132 111  89  84 139 171 180 187 216 213 205 203 204 184 192 179 171 168 142 141 130 101 120 101  94  83  84  75  73  73  67  65  64  64  67  69  67  61  57  64  71  56  58  46  26  44  77  79  10 217 169  78  93  82
 108  87  89 101 149 191 208 193 209 217 219 220 221 223 210 219 219 213 214 218 216 211 188 209 216 218 237 232 228 184 139 102  89 100 118 130 125 126 120  93  96  45  92 148 165 178 204 211 209 214 189 188 178 163 170 159 140 133 126 120 112  95  89  82  73  71  69  61  68  66  66  67  66  69  67  65  50  67  51  58  52  60  61  84  74  45   9 238 145  84  96  86
 107  86  89 105 153 195 211 188 202 214 214 221 222 219 217 217 221 215 216 226 218 189 211 220 220 202 219 203 185 154  96  74  79  99 123 115 112 104  98  80  78  40  39 123 153 167 176 193 210 209 195 200 180 182 163 149 142 131 126 109 110  91  92  74  76  68  71  67  68  62  67  69  67  68  67  61  57  75  49  44  46  75  93  76  40  58  52 229 116  94  97  91
 105  88  86 108 155 194 220 184 197 210 222 219 220 219 219 220 220 217 214 206 202 177 228 223 206 180 192 176 155 127  77  65  73  81  79  62  64  53  61  64  58  24  51 114 145 159 161 163 188 204 189 186 175 163 152 145 129 125 123 105 104  92  83  76  74  75  69  70  67  66  62  71  69  66  62  57  57  74  47  60  67  75  89  86  75  87  11 243  96  96  94  89
 103  84  81 113 160 200 221 190 195 210 221 221 214 218 223 218 219 210 211 194 165 176 196 204 198 186 169 159 120  90  64  52  26   3   0   1   1   2  30  33  21  38  51 104 127 145 154 163 163 172 188 179 173 161 151 145 117 123 112 104  90  87  84  74  68  74  75  71  71  69  65  68  68  62  59  54  56  74  80  83  74  68  83  89  94  91  80 200  72  94  85 143
  98  87  80 119 167 199 221 214 180 213 216 210 215 217 216 216 211 206 195 188 152 161 191 103  26  69 121 167 102  70  52  48   7  14  17  18  35  44  39  55  56  80  82 117 138 144 144 147 145 156 164 180 166 154 148 131 121 117 107  97  85  79  78  70  75  71  72  74  70  71  68  71  65  63  60  57  61  68  62  64  75  72  65  80  79  85  93 161  89  91 132 212
  92  87  84 131 176 205 222 224 176 209 208 210 211 218 218 207 205 195 189 161 148 158 184 219 188 108  81 126 115  13  26  46  30  26  23  32  51  50  62  64  73 101  97 127 124 145 144 145 139 143 148 155 163 154 136 122 116  98 101  88  82  82  78  65  72  74  73  68  72  73  75  69  65  61  59  55  66  70  76  61  55  72  66  72  75  71 106 118  95  86 185 242
  99  83  93 144 185 210 220 234 177 195 199 199 206 209 204 201 195 184 166 146 144 167 196 195 187 196 178 171 173 198 105  32  30  55  49  51  42  52  51  67  74 100 105 114 120 135 140 142 130 135 138 149 147 143 130 125 117 104  98  83  86  76  72  74  79  80  78  80  72  75  78  67  61  61  59  58  63  60  79  75  67  68  64  66  72  50 113  92  96  88 194 249
 108  75 114 159 193 215 224 233 180 187 189 198 205 205 201 196 177 176 152 140 151 181 194 201 194 144 147 154 147 154 178 130 126 118  94  74  71  75  63  67  84 109 112 108 120 119 124 128 132 119 129 131 147 141 131 126 113  97  95  88  85  84  74  83  76  66  75  70  68  76  73  64  59  64  58  51  62  28  65  73  68  62  56  56  34  75 111  95 100  88 162 219
 120  85 136 173 203 217 224 233 202 177 196 194 200 197 197 185 181 162 146 143 171 194 209 204 177 143 137 175 143 133 110 141 135  97  95  75  80  62  77  76  91  77 113  97 106 107 108 113 122 142 123 125 142 142 134 128 107  96  99  85  91  95  77  77  72  77  81  69  81  73  76  67  60  62  59  53  52  19  46  61  61  55  29  38  74 114  97  97  96  89 101 156
 159 148 168 193 213 222 229 232 214 177 184 196 192 201 189 180 164 151 148 165 188 186 208 180 175 162 137 152 120  98  98 119 109 131  98 120  81  87 108  94 109 106 122 119 104 115  95 127 124 134 164 134 146 148 144 134 120 109  88  91 101  97  85  76  77  81  69  73  67  67  68  58  59  63  52  49  44  41  32  39  43  21 114 146 112  94 100  98  95 100  86  83
 186 182 191 209 218 228 230 233 224 173 176 200 199 193 189 166 153 146 159 172 181 189 203 202 164 171 175 162 137 156 123 110 118 165 182 161 142 122 144 135 131 125 106 125 106 111 119 124 114 137 118 132 120 154 157 151 131 116 104  98 113  98  79  91  71  72  67  69  70  72  70  66  63  60  52  55  43  40  46   0   0  37 120  93 101 101 100  95  96  97  94  95
 208 208 213 217 225 229 228 230 226 169 179 196 186 192 179 169 139 140 143 183 191 197 185 187 175 169 190 187 223 216 199 179 166 169 158 108  89  89  99 101  95  87  98 115 125 115 138 129 126 148 108 127  99 172 176 156 138 126 110 102 109 102  90  87  83  74  72  67  65  68  63  57  60  59  44  47  46  47  36   0   0  20 104 105 100  98  99 101  99  95  97  95
 217 218 220 222 227 230 230 225 222 173 181 193 186 195 171 154 142 142 172 194 185 167 180 184 192 219 226 211 183 114 130 139 158 112 111 133 109 113 112  69  93  71  68  35  52  65  93 125 137 151 145 143 136 194 189 157 141 113 104 108 106  99  86  89  83  72  72  63  59  67  66  56  52  55  47  47  44  45  25   0   3  14  98 101  96  96  88  92  87  87  84  94
 222 226 228 228 229 229 228 227 211 190 184 185 194 188 176 164 145 164 216 212 168 178 180 198 187 158 151 143 160 140 132 142 128  94  72  57  52  55  39  39  46  43  38  30  31  10  34  61  60  95 118 135 146 197 205 160 134 117 102 107 100 106  94  81  69  69  63  62  65  61  60  56  57  59  49  50  45  53  22   0   1   5  85 102 119 124 132 131 143 145 116  84
 230 228 230 231 228 228 230 221 203 193 189 191 195 199 200 182 156 178 191 194 176 175 190 163 117 152 122  82 110 113  90  85 111  87 101 103 124 124 133 114 132 108  82  98  96 120 147 137 116 155 169 179 189 224 216 153 126 112 109 101  99  92  91  83  67  72  62  59  58  58  56  57  52  52  45  52  47  55  15   7  38  39 116 146 206 229 232 234 239 222 175  99
 229 228 231 231 230 229 226 214 191 179 189 193 201 203 202 189 171 204 198 199 181 150  49   8  99 165 188 205 177 191 175 174 157 194 172 175 155 115 102  92  90  91 104 104 107 115 113 109 136 166 212 213 223 227 178 133 110  97 107  94  95  92  85  94  65  68  61  59  60  57  59  53  53  51  35  46  49  54   9   7  44   3 145 205 243 255 254 255 250 250 214 123
 229 230 231 231 229 230 226 209 178 144 187 191 195 198 201 201 186 222 169 128  87 103 195 186 171 179 178 180 200 200 177 175 163 164 139 122 106  69  86  89  97  97 117 118 121 130 136 164 203 192 193 201 223 214 165 123 111 107  89  90  97  84  91  82  68  54  61  59  60  56  50  55  58  55  44  50  48  58  20  12 109 157 178 225 255 250 255 253 252 245 200 123
 231 228 231 231 229 227 218 197 169 108 192 183 202 207 210 208 203 182 158 143 185 209 214 193 207 199 183 176 157 159 170 148 141 142 124 115  99  96  95 122 131 137 124 135 145 150 163 175 160 164 173 224 213 182 140 121 116 104  90  91  94  90  90  67  60  57  62  60  62  57  55  52  53  45  44  52  49  56  38  12 208 196 148 234 252 252 237 229 229 207 140 118
 231 230 231 230 230 222 207 180 147  88 193 196 195 198 203 202 204 186 155 163 190 196 208 212 230 226 220 205 198 197 180 177 177 167 146 145 143 142 136 147 135 136 130 141 145 163 165 169 171 164 190 212 209 171 133 112  96  88  95 103  96  90  72  69  63  63  59  55  60  53  53  52  47  41  43  49  55  63  53  14 148 130 130 238 247 240 163 125 123 116  82 133
 232 231 229 231 226 213 191 164 126  78 166 188 195 199 201 200 193 190 184 190 199 221 213 220 226 231 234 223 224 213 200 204 192 177 170 155 149 147 130 138 129 133 136 146 158 164 162 158 157 152 160 183 188 155 123 101  91  99 100  99  97  99  78  75  65  62  56  57  55  47  52  55  41  43  53  52  50  37  45  60 109  87 157 239 245 225 108  77  87  91  82 143
 233 234 230 226 213 201 172 140  99  78  89 199 182 197 198 200 197 195 175 186 214 227 225 219 213 218 218 220 207 214 192 196 186 180 152 135 131 117 134 132 124 136 144 153 158 161 151 151 144 143 130 174 160 127 109  96  94  94 103 103  99  88  80  69  67  59  57  54  52  50  53  48  30  41  46  52  29 113 137  83 107  90 162 247 243 226 102  93  95  95  85 152
 226 231 226 217 200 178 151 112  89  92  52 195 188 194 192 200 194 195 182 205 224 224 210 213 215 208 213 176 164 197 184 179 147 130 135 134  99 132 116 128 142 141 158 154 162 163 143 136 111 153 151 153 147 119  98  89  92 105 113 104  96  97  86  68  58  53  51  52  42  49  52  41  39  44  51  54  29 159 189  86 100  84 172 245 243 218  91  81  87  92  76 158
 218 217 208 195 178 152 119  88  94  92  84 165 193 185 181 192 195 203 221 185 208 223 219 216 212 213 202 204 201 200 156 166 153 113 111 126 142 115 135 144 131 144 162 163 155 145 136 115 128 163 123 121 122 108  91  95  97 105 102 100  98  93  75  61  53  51  51  50  44  43  50  36  42  50  51  54   4 212 229  76  97  85 173 242 251 244 201 209 203 169  94 169
 198 195 186 170 146 119  92  92  97  93  90  96 185 178 180 175 194 201 213 222 229 224 221 220 220 201 211 202 194 180 129 139 111 134  97 140 133 149 130 157 158 168 167 154 142 137 121  98 139 128 109 128 113  92  85 104  93 114 100 102  96  79  65  59  52  49  48  45  42  43  46  39  42  50  52  57  41 247 221 105 101  77 186 249 249 254 251 251 247 222 133 172
 160 160 150 133 114  89  93  98  95  97  94  78 188 191 185 185 191 200 194 193 203 215 205 214 221 205 217 220 208 185 135 112  98 128  85 103 143 170 149 165 186 171 156 147 150 127 128 136 142 140  94 101  89  85  95  99  93 111 104  96 100  78  61  51  51  51  45  41  44  41  40  42  47  48  53  56  75 242 219 108  96  84 189 250 254 254 252 252 254 237 145 174
 120 120 108  96  95  96  97  95  96  96  96  89 113 194 200 198 187 192 189 218 227 212 208 215 224 224 221 201 202 203 140 127 131 116 127 147 128 169 175 182 187 160 160 143 141 150 137 110 138 121 110  92  88  75  87  96  95 102  90  97  86  69  57  55  45  41  48  43  41  40  42  43  47  49  55  28 128 254 213  97  99  84 195 249 250 251 247 249 237 200 114 184
  96  95  92  99 100  97  98  96  97  96  96  97  71 180 196 201 199 180 194 204 199 196 208 222 219 224 218 207 191 181 184 179 172 193 195 189 180 173 183 179 176 164 168 141 152 133 124 131 127  95  90  89  82  80  93 101  94  75  99  81  69  64  52  47  44  45  36  40  40  41  43  44  46  52  57  10 165 255 206  87  95  91 207 243 249 229 178 181 175 131  74 199
  98  98  97  95  96  98 100  97  98  97  98  98  93 120 198 201 190 196 189 213 212 211 204 212 214 211 208 217 202 194 182 181 217 185 212 193 165 189 184 199 173 163 163 152 138 114  99 116 127  88  74  70  69  78  99  94  85  85  77  67  64  53  51  48  41  41  41  37  39  42  46  43  51  58  54   5 208 251 199  88  98  87 207 247 242 180  70  80  80  85  79 207
 100  99 100 100 100 100  99 100  99  98  99  99  97  73 159 185 187 189 190 205 211 197 204 217 220 230 231 214 219 203 201 170 182 185 209 183 190 199 193 166 163 155 177 122 118 115  90 100  92  73  77  65  66  72  82  94  81  81  72  60  48  51  49  40  48  42  42  38  40  42  45  46  51  62  58   0 248 248 196  87  96  96 217 244 243 178  81  94  93  91  83 217
 100 101 100 102 101 100 100 100 100 101 101 100 100 102  91 196 179 187 183 175 202 183 188 199 197 211 217 208 214 223 188 187 188 190 214 200 187 193 188 177 171 143 150  98 110 107  98  86  69  59  67  71  67  69  84  94  82  77  52  54  49  47  43  43  45  36  35  38  41  43  50  48  57  60  57  57 248 245 186  82  96  92 221 242 242 166  80  96  92  89  89 223
 101 103 102 102 102 102 101 101 100 100 101 100 102  99  95 114 192 191 190 175 184 182 200 204 197 219 225 204 204 181 188 161 205 203 186 183 194 195 180 165 136 126 140  84 106 113  81  64  59  55  64  57  66  60  68  69  66  53  57  52  46  45  48  43  40  38  40  39  45  45  48  52  59  59  56  72 254 243 180  86  96 107 225 241 243 159  77  93  93  87  94 226
 104 102 104 103 103 104 102 103 102 102 102 101 101 100 100  90 140 180 178 183 136 171 182 205 198 179 217 217 200 193 208 177 162 195 172 194 205 174 177 121 130 121 116  91  72  86  48  49  52  46  52  49  53  51  56  51  55  48  47  49  53  44  43  40  37  40  44  40  49  48  50  57  61  57  46  81 255 244 172  85  95 111 231 243 236 141  65  80  84  80 105 228
 105 104 104 105 104 103 104 104 103 103 102 103 103 102  99 102  97 136 169 179 184 173 166 176 192 207 187 212 196 167 170 165 147 166 204 201 166 161 157 123 128 108  90  92  78  45  38  44  49  48  44  51  43  56  46  42  41  54  49  49  48  46  43  40  45  43  44  47  49  48  53  53  57  59  53 116 255 246 167  84  94 121 232 242 246 193 160 173 160 106 107 234
 104 106 104 104 104 105 105 104 104 104 104 103 104 101 107 101 102  86 163 175 131 156 140 161 211 157 176 173 166 131 157 137 151 169 158 134 143 138 140 123  93  59  72  68  50  37  28  43  39  46  39  45  41  53  48  50  55  53  48  54  49  45  44  46  45  44  46  47  47  51  55  58  61  60  58  48 210 254 153  91  92 129 240 253 254 247 243 246 228 173 120 236
 105 107 106 106 104 105 104 105 103 105 104 104 103 103 100 108 101  99  99 153 144 105  89 182 173 149 157 154 148 144 147 136 176 154 181 150 132 105 111  91  94  73  61  38  73  27  31  34  40  27  45  39  33  43  36  55  54  48  42  56  47  39  43  45  44  47  48  48  48  54  56  59  60  59  65  45  47 173 164  88  91 146 238 251 254 253 253 253 247 205 133 236
 108 108 107 105 106 105 106 105 105 104 105 104 103 102 102 103  98 102  95  87 179 148 112 128 124 132 142 161 127 147 112 109 127 140 101 117 108  97  60  72  48  33  52  35  48  26  26  33  36  42  47  39  53  57  51  43  58  50  47  46  44  43  43  44  49  46  49  49  51  57  60  58  62  65  63  46  49 108 132  94  96 140 213 243 255 251 252 253 240 187 121 213
 108 107 107 108 107 108 106 106 107 104 105 103 104 104 103 104 102 103 102  99  73 163 150 147  84 116 134 139  92 152 108 115  93  81 128  88  75  91  74  63  52  48  37  35  38  30  44  39  37  37  43  45  53  66  62  51  39  52  52  50  43  49  46  47  50  51  50  49  54  59  57  63  65  64  60  49  33 121 110 100  98 110 167 213 222 217 217 213 184 128  89 160
 108 108 108 107 107 108 108 108 108 106 105 105 104 105 103 103 103 101 103 102 101  99 127 147 133 114 136 114  91 103  48 111  66  75  62  58  57  59  53  49  52  52  57  39  43  50  42  46  68  56  64  61  53  62  62  60  54  47  49  48  46  51  47  47  47  48  49  53  52  56  59  68  66  63  68  48  48 128 125 101 103  96 103 106  99  94  97  96  98  88  87  93
 108 108 108 107 108 108 108 108 107 106 105 106 105 104 104 103 102 102 101 101 100 100  87 126 133 116  77  77  77  99  80  70  64  42  51  61  62  54  51  42  34  43  52  57  49  49  64  45  60  60  59  63  67  52  54  48  46  48  56  51  48  47  48  49  49  47  51  53  53  58  64  68  66  63  67  20  92 129 120 111 105 100  99  99  97  94  97  92  92  94  98  95
 107 107 107 107 108 108 108 108 107 106 104 105 104 104 103 103 103 102 102 101 100 103 105  95 115 143 138 105 100  89  55  74  59  45  64  66  71  57  64  62  60  49  65  61  62  70  73  74  69  61  78  68  56  60  54  54  53  45  46  50  48  51  46  50  52  50  52  52  59  62  66  61  65  70  66  40 137 132 122 115  84 112 103  99 101  98  99  98  97 100 100  99
 108 107 108 106 107 108 108 108 106 106 105 105 107 103 104 103 103 101 101 101  99  99  99  99 100 101 108  86  93  91 111  82  64  69  70  62  61  74  64  73  75  61  93  66  76  79  75  74  76  70  70  64  66  53  60  55  47  51  52  51  46  47  50  44  52  52  48  53  66  65  71  68  67  74  32 108 146 129 120 127   0  43 115 109 100  98  97  98  97 100 100  97
 108 108 109 108 108 107 107 106 106 106 106 104 105 105 104 104 103 101 102 102 101  99 102  99  99  99 176  92  67  93  87  89  88  57  80  90  92  76  79  74  83  71  85  86  85  84  72  85  86  69  79  63  58  55  49  52  54  52  46  46  48  49  49  51  46  53  60  64  70  71  76  72  71  57  78 163 140 122 127 126   2   0  39 107 103 100 101  99  98  97  98 100
 107 108 109 106 107 106 107 107 106 106 106 105 106 105 104 104 104 102 102 103 101 102  99 100 101  87 190 198 168 101  84  84  77  84  84  93  82  86  91  98  83  96 100  71  90  86  82  74  76  65  68  59  59  56  54  50  52  50  51  47  48  51  47  49  57  68  68  70  74  79  75  67  69  42 179 153 132 129 129 127   1   0   0  38 114 102  99 103  99  97 100 100
 106 108 108 109 108 107 107 108 107 106 104 107 105 104 104 103 104 103 102 102 100 100 100 100 100  78 146 220 184 173 140  89  81  65  79  85  82  93  90  92  84  75 100  85  88  80  78  70  66  49  58  60  57  52  49  54  45  48  46  52  52  49  58  71  78  79  77  83  84  81  72  70  71 183 164 138 133 134 132 116  23   0   1   2  69 110 100  98 100  94  99  99
 109 109 108 109 106 108 107 108 107 107 107 106 106 105 105 103 104 101 102 101  98  99  99  99 102  76 192 214 193 189 178 156 135 123  95  85  87  85  76  72  79  89  80  75  74  66  63  57  62  57  54  50  59  57  55  57  56  65  66  63  62  78  85  86  82  88  90  91  88  84  65  61 197 169 142 134 140 137 120 106  63   0   1   4   0 111 105  99 103 101 101 101
