P2
# Generated by OpenCV 4.2.0
92 112
255
  97  96  97  97  97 100  99  99  97  99  98  98  99 100  99 100 100 100  99 100 101  97  96  82  46  77  45  44  38  71 124  95 107  84  55  83  47  28  61  40  38  42  33  35  58  60  62  65  91  77  59  50  88   0  20  10   7   8  49  48  78 104 102  99  98 101 100  99  98  99  99 102  98  95  98  98  95  98  97  97  99  98  95  97  98  97  99  99  97  94  96  98
  94  96  96  97  98  97  98  97  97  99  98 100 100  99  97  99  96  97  99  99  97  93  57  20  90  33  41  98 119  66 111  75  65  54  46  45  37  28  35  44  36  77  72  34  17  11  10  20  37  79  84  68  44  67  90   3  16  10  14  15  41  89 100  96 102  99 100  99 100  99 100  97  97  99  98  97  97  99  98 100  97  98  98  98  98  98  97  98  97  98  98  97
  96  95  94  95  94  96  98  99  97  99  99 100 100  99  97 102  98  96 101  99 100  46   8  86  65 104  87  70  34  76  59  67  29  77  32  35  55  29  46  44  67  36  47  48  57  73  74 104  97  92  58  57  77  75  43  95  42  10  24   5  13   0  47  89  96  99 100  99  99  99  99  99  97  98 100  98  99  96  99 100  97  98  98  97  97  97  97  98  98  97  98  97
  95  96  97  98  99  99  99  98  98  98  99  99  99  99  99 102  98  98 100 100  51  38  85  77  99  99  26  59  68  54  52  37  57  36  46  64  14  38  20  17  42  44  45  89  55  36  44  45  49  58  94 111  45  57  65  68  49 106  16   6  18   9  12  36  95  99  99 100  99  99 100  99 100  98  99 100  98  97  99  98  99  98  99  97  97  96  98  99  98  99  97  97
  95  95  97  96  98  99  97  98 100 100  99  99 100  99 102 107 103  99 100  54  38  62  81  60  65  30  73  67  67  59  57  49  30  28  43  20   9   3  32  52  70  80  53  21  28  61  62  54  55  61  82  82  87  87  61  51  79  31  51  25   0  27  27  32  19  95  98  98 100 100 101  99 100 100  98 100 100  99  99  99  97  99  99  98  98  98  96  99 100  99  99  97
  96  95  97  97  95  99  97  98 100 100 100  97 100 100  99 102  93 105  15  36  41 117  68  57  43  42  54  62  72  70  72  60  39  30   9   7   2  34  78  83  74  19  19   8  52  31  27  14  22  33  38  49  46  59  76  48  55  41  22  30  29  25  16   7  17  14  65  98 100 100  98 100 100 100 100 100 100 100 100 100  97  98  98  98  98  98  97  97  97  98  99  97
  95  95  96  95  96  98  95  98  99  98  99  97  98 100  98  88 103  14  38  47  85  93  40  63  37  30  43  31  73  90  25  50  16  12   4   0  39  70  71  42  14  19   6  19  46  13   7  20   2  12  11  22  29  35  58  53  51  31  39  25  89  38  23   9  13  14  28  93  99  99 100  98  99  98 100 100 101  99  99  99  97  98  96  99  97  98  97  98  99  97  99  98
  95  95  96  96  97  98  98  98  97  99 100 100  98  98  95 103  37  35  48  34  87  35  47  39  38  38  58  66  40  46  52   8  11   0   0  20  69  67  14  59  22   4  44   5   4   2   3   6   0   2   4   1   4  13  22  48  52  43  37  43  57  49  44  18  12  32  18  57  94  91 101  98  99  98 100 100 100  98  99  98  98  98  98  99  99  99  98  99  97  98  98  99
  94  95  94  96  95  98  96  95  98  98  99 100  98  98 103  40  47 105  60 100 107  40  51  34  20  42  32  57  41  46  55   2   1   9   1  59  37  51  24  38   7  11   9  29   3   5   4   5  30  32  69  85  86  61  18   7  45  46  49  33  53  66  40  64  58  33  16  16  38  97  94  99  99  98 100 100 100 100  98 101  99  96  97  97  97  97  99 100  97  97  99 100
  94  94  94  96  95  97  96  97  98  98  98  98  98  98  60 159  46  56  58  60  47  41  57  27  18  49  43  73  73  29  66   2   7   0  70  79   9  28  23  36   6  14   9   8   5  10   3  11  28  47  46  20  32  57  64  86  13  47  50  46  45  29  16   8  20  73  82  43  28  50  74  98  97  98  99  99  98 100  99 100  98  98  98  98  97  97  99  99  97  98  98  98
  94  96  95  95  96  96  97  98  98  97  98 101  97  88  98  85  65  47  58  72  40  31  60  26  28  60  42  49  48  39  41   4   7  28  40  69  17  10  16  27   3  16  10   9   6  11  11  51  14  17  11  16  29  21  43  37  72  52  44  57  52  42  32  64  20  36  55 103  47  34  74  56 103 100  99 101 100  99 100 100 100  97  99  99  98  97  99  97  99  98  99  99
  94  94  94  95  96  97  97  98  99  99  99  98  97  57  82 122  42  56  60  65  25  24  36  24  35  60  46  54  49  24  42   7   8  43  40  37   8  11  20  18  20  21  13  14  14  20  52  14  13  11  23  14  12   7  19  58  38  81  29  51  83  47  40  25   5   0  61  66  55  40  22  66  81  95 100 100 101  99 100  98 100  99  99  99  99  98  99  98  96  99  99  98
  93  94  95  96  96  96  98  97  97  97  98  94  92  78  76 125  52  46  56  49  26  26  25  13  18  43  37  65  40  50  52   6  38  70  27  23  10  18  21   9  20  21  20  26  21  62  24  26  18  20  10  13  12  19  13  22  22  79 109  50  89  56  91  58  57  15  36  25  51  51  51  38  67  91  96  97  98 100  98  98 100  99  99  98  99  98  98  97  97  98  98  98
  91  92  96  96  96  96  99  96  96  99  96  99  72  81  68  68  48  46  46  42  28  33  26  20  15  43  52  32  35  50  26  38  27  35  17  21  15  21  20  18  38  25  25  29  39  40  42  33  32  40  41  31  20  11  17  10  13  33  60  72  56  91  55 104  29  19  15  30  30  39  87   7  42  89  90  97  96  95 100 101  98  99  97 100  99  97  98  99  98  99  99  98
  94  95  94  95  97  97  99  96  96  93  80  61  82  71  71  32  48  42  46  29  20  30  28  29  29  38  24  34  35  42  36  44  29  34  23  25  25  20  36  31  38  45  39  53  62  59  60  63  46  50  54  47  39  38  28  34  27  15  46  66  71  98  78 120  86  63  15  35  37  44  33  37  52  34  82  90  95  94  91 100 100  99  99 100  98  98  99  99  98  99  99  99
  93  94  94  94  95  95  97  94  86  84  82  48  56  73  51  32  33  44  46  25  22  35  30  36  27  39  42  32  30  23  37  35  41  49  41  33  40  37  40  48  55  78  75  85 113 125 109  82  90  94  85  49  41  40  32  27  40  22  28  66  93 110 115 119  92  41  32  29  36  54  40  14  41  43  35  94  98 103  80  90 100  98 100 100 100  98  97  98  97  98  99  99
  91  92  92  97  96  93  90  97  69  54  32  25  61  60  56  39  37  39  32  23  21  23  25  39  42  41  39  45  33  41  29  48  44  53  60  50  58  73  62  90 101 140 123 137 136 132 129 126 125 123 131  99  82  58  50  34  52  50  34  36  73  58 102 104  91  38  89  54  70  71  19  37  15  31  36  43  80  93  98  43  94 100  99 100  99  98  98  99  98  98  97  98
  94  94  93  96  96  92  91  65  59  28  20  28  70  58  65  25  37  41  37  30  36  21  24  38  54  54  55  51  56  59  59  68  74  82  88 106  96 120 136 142 159 165 166 174 159 157 160 160 152 142 119 118 121 103  71  55  52  84  64  54  60  82  90  70  56  26  92  82  56  99 121  58  16  23  13  31  61  84  55  41  99 100  94  98  98  97 100  99  99  96  98  97
  92  92  93  97  95  95  69  57  27  27  23  38  49  61  42  56  23  41  41  45  32  31  35  38  67  59  74  68  70  83  82  93 100 125 133 133 145 125 158 171 174 177 169 168 172 170 165 168 155 160 150 136 138 105  97  63  78  70  74  62  66  45  70  47  48  32  31 102 103  97  70  34  28  18  10  19  21  40  22  35  92  99 103 100  99 100  99  99  98 100  99 100
  92  93  93  96  94  79  49  27  23  24  27  28  37  41  40  38  36  47  44  31  41  46  61  58  59  88  96  87  97 106 111 121 134 147 152 160 172 170 175 173 170 168 165 166 165 166 164 163 158 160 155 147 151 143 118 100  97  79  87  68  64  45  41  37  29  30  16  29  87  92  50  63  23   4  16   3  13  18  13  24  58 101  70  97  97  93  98  99  97 100  99 100
  93  93  92  94  95  67  34  27  32  28  35  40  47  49  44  41  35  38  38  46  52  55  82 101 110 129 124 131 137 150 160 162 168 168 172 174 177 177 172 172 170 169 166 168 168 166 159 162 159 157 157 154 155 151 146 130 100  86  91  91  55  52  33  37  25  23  10  15  34  59  44  28  14   6   4  29   5   2  11  15  81 100  97  75  96  98  99 100  99  98  99  99
  92  93  92  91  94  54  42  44  55  39  49  51  52  49  47  47  49  43  54  77  86 103 133 141 170 163 167 163 167 166 159 165 172 176 177 178 174 175 171 168 166 169 163 162 164 162 163 160 160 156 158 151 147 151 144 144 135 106  99 102  72  46  25  28  17  17  13   7   8  22  43  14  15  32  14  31   0   6   9  23  33  88  97  44  82  94  99 100 100 101 100 100
  92  91  94  92  75  56  46  52  43  54  50  46  56  62  64  58  67  71  77  91 106 143 158 168 163 170 171 171 172 175 172 171 172 172 170 171 171 169 170 169 169 167 167 167 166 164 164 161 162 161 160 161 154 151 151 150 142 130 110 107 105  53  34  30  15  11  18   5  12  14  13  12  10  40  17  18   0   8   1  11  11  76  87  47  79  94 100 101 100 101 101 101
  90  91  94  97  74  63  65  49  43  51  54  54  56  58  63  82 106 104 113 128 146 163 160 169 168 171 172 172 172 169 168 170 172 169 168 166 169 172 169 168 169 167 167 165 168 165 165 162 162 162 159 155 158 157 155 153 154 144 127 112  92  69  45  21  32  12  10   6   5   5   5   9  12  18  33  30  22   7  19  36   3  18  75  36  65  85  99  99 100  98  99  99
  93  92  94  88  72  68  70  47  47  71  71  51  61  61  99 107 125 129 137 142 152 158 165 164 167 166 168 167 168 169 170 170 169 171 171 170 171 171 170 168 169 166 169 166 169 166 167 163 163 163 159 164 161 159 157 157 155 155 145 141 122  88  55  20  39  12  10   5   2   5   4   5   6   4  17  24   8   8  13  17  53  23  23  57  51  74  99  98  99  98  99  99
  92  93  91  83  75  86  53  51  69  67  47  50  59  86 113 125 123 131 147 154 157 161 160 167 167 167 167 167 171 165 170 172 174 175 175 177 174 172 174 170 170 168 170 166 165 163 162 165 165 164 169 165 164 163 161 159 156 154 150 144 140 123  88  35  21  15  13   9   4   4   6   2   6   3   4   8   7   2  12  11  21  22  22  50  43  68  98  99  98  97 100 100
  91  92  90  85  61  73  61  57  66  48  43  49  59 103 123 125 126 142 154 157 162 162 164 167 167 167 168 172 173 176 174 174 175 176 176 177 179 180 175 175 168 171 167 169 167 168 169 167 168 165 167 164 161 161 159 157 159 156 153 156 144 137 127  62  20  28   7   0   5   4  16   8   2   1   6   8   2   7   8  15  20  16  29  31  38  59  91  98  96  93 100  98
  91  92  86  95  62  72  52  53  73  54  49  44  79 120 117 122 136 155 158 158 164 164 166 167 167 168 170 173 175 173 175 175 181 182 182 181 178 177 173 173 166 170 171 171 170 173 173 170 169 168 169 168 169 165 164 161 161 157 153 148 151 144 127 123  48  16  24  14   6   7  22  14  17   7   5   5   7  50  13  20  15  12  15  21  40  50  83  92  92  88  97 100
  92  92  90  88  64  74  51  66  73  61  45  49 110 122 119 130 146 152 160 164 164 164 165 165 169 167 172 173 172 174 176 177 182 183 183 176 177 176 178 176 174 174 173 174 174 173 175 168 170 173 171 167 161 168 165 161 160 163 159 153 151 145 150 134 126  67  30  26  12  13  10  16  18  14  18  20  15  12  14   7  10  10  22  24  40  42  72  93  90  86  99  99
  90  91  99  81  56  56  46  57  71  70  34  72 121 114 121 137 148 157 163 166 163 165 164 165 171 176 172 174 174 176 178 180 179 179 180 178 177 177 176 173 172 177 177 177 179 175 170 173 171 172 168 171 172 170 168 163 156 165 162 158 153 150 149 140 134 136 116  49  26  17  12  13  16  16  11  13  14  13  13  13  13   9  14  21  51  45  55  80  87  85  97  98
  89  91  98  62  44  45  33  60  94  55  53 103 114 117 131 144 155 162 165 161 160 163 170 174 172 174 177 177 177 180 180 179 177 177 178 181 179 180 180 177 178 178 178 178 175 175 178 173 175 172 175 173 172 170 168 166 165 167 165 162 155 154 151 149 136 140 139 134  98  56  22  23  19  17  15  14  16  20  15  18  11  11  15  20  26  36  43  64  83  86  96  98
  91  92  91  70  29  40  30  52  78  42  57 109 118 124 136 149 156 158 161 162 166 168 171 173 177 175 177 178 179 182 180 182 184 184 184 184 184 184 180 178 183 182 182 182 183 179 179 175 175 174 177 177 177 172 170 168 166 166 165 166 161 155 148 149 145 145 140 131 119  96  94  76  33  19  29  18  24  25  22  12  10   7  18  15  34  33  34  47  70  91  96  98
  94  92  78  75  21  28  29  53  69  53  90 113 119 130 141 151 155 158 161 164 168 169 172 178 178 177 178 178 180 181 182 182 181 183 184 180 181 180 183 182 185 182 183 183 186 181 184 183 182 181 180 180 178 176 172 171 169 168 165 168 162 157 151 149 153 141 147 136 127 113 107 100  83  49  38  42  21  27  24  21  17  21  19  34  30  38  38  42  65  88  98 100
  95  90  77  74  26  22  28  35  54  56  99 117 120 136 142 153 154 157 164 166 168 170 174 179 178 177 178 180 182 182 184 184 189 188 188 185 186 185 184 184 183 186 186 186 177 172 176 178 179 176 180 179 177 178 176 175 172 168 165 169 163 157 154 150 150 158 143 135 125 107 114  95  76  77  46  31  40  28  27  25  22  17  17  16  23  28  37  37  58  83  99 103
  91  88  78  73  30  26  23  32  52  87  99 120 128 138 145 152 155 158 164 166 168 172 175 177 178 180 179 181 183 183 181 183 185 185 184 187 184 184 186 185 185 179 181 182 181 175 179 180 184 180 177 177 176 178 177 177 172 169 167 167 162 156 154 153 150 149 146 138 122 111  90  91  81  73  47  36  30  35  29  24  21  12   6  13   8  14  34  39  45  73  98  99
  90  89  79  71  31  13  18  50  62 108 104 121 133 140 149 151 156 162 165 169 170 173 177 178 180 182 182 183 183 180 180 181 188 188 187 184 183 183 186 183 187 177 181 183 178 180 177 180 175 178 181 179 178 176 175 175 172 171 169 169 165 158 155 155 156 152 147 129 131  99 111  82  80  65  70  59  52  34  32  19  17  19  16   4  33  39  31  35  42  57  92  99
  88  90  82  46  16   6  12  55  73 113 102 123 135 143 151 152 157 164 167 169 173 174 178 182 182 181 184 183 182 177 180 183 183 183 184 186 182 183 184 184 182 178 182 184 184 181 183 180 183 180 178 177 175 175 174 176 171 173 170 170 165 161 156 156 154 153 142 142 129 112  93  88  66  61  47  71  31  35  26  24  15  17  13  15  18  18  15  38  37  49  83 100
  86  89  88  37  10  11  57  68  83 112 110 125 136 146 151 155 159 164 169 170 171 179 178 180 182 184 189 184 182 178 179 184 187 185 188 183 183 183 188 185 185 184 182 180 180 181 182 183 181 179 179 178 176 176 175 175 173 170 172 168 165 162 160 155 152 149 140 126 117 111  82  82  73  74  40  43  43  23  27  21  23   9  10   7  13  18   5  34  34  41  79 101
  85  89  53  12   9  12  40  68  90 115 110 126 142 147 153 156 161 165 169 171 175 174 179 181 183 186 187 184 182 175 182 185 187 188 188 182 185 182 187 184 184 182 182 181 181 181 182 181 181 184 180 179 179 176 175 175 174 170 171 167 165 160 160 156 154 151 128 118 118  91  81  62  69  39  39  28  29  28  23  18  18  18  11  12  14  30  17  33  32  42  69  95
  90  72  25   5   9  40  67  58  92 109 108 128 143 150 153 158 163 166 170 173 174 179 180 184 184 183 183 182 179 177 183 184 184 185 186 184 183 184 184 185 183 179 182 182 181 182 183 183 183 182 180 180 177 176 176 174 172 174 170 166 163 160 157 160 157 154 154 147 128  94  80  66  55  53  36  35  30  28  32  19  16  15  16  14  17  28  36  34  37  40  57  84
  85  48  15   9  26  43  46  61  94 109 106 129 144 150 155 158 164 165 168 172 177 179 180 181 181 182 181 181 184 181 182 185 186 185 188 187 183 184 186 184 184 179 176 179 183 184 184 188 187 187 185 187 181 177 175 172 173 172 171 168 164 162 163 161 160 155 152 150 141 128 109  79  63  45  44  23  22  24  19  12  16  19  20  16  19  32  35  35  35  36  46  71
  87  42  25  14  27  54  46  53  90 103 112 128 147 151 158 157 162 164 167 170 175 177 178 178 180 178 181 182 184 183 184 185 187 188 188 186 187 185 184 184 186 187 183 185 188 189 189 184 186 184 183 184 179 177 176 174 173 172 170 169 164 158 160 159 159 157 154 152 150 146 124 105  71  49  44  29  26  17  18  16  11  15  16  12  27  27  34  35  35  36  37  55
  91  65  26  15  21  37  44  55  79 102 119 129 148 151 156 157 156 163 165 171 175 179 178 179 179 180 185 184 182 185 186 187 186 186 186 186 187 187 184 188 188 191 194 192 193 191 194 190 191 188 187 189 183 180 177 176 173 171 171 164 160 154 156 156 155 155 152 151 151 149 145 129 111  73  38  33  14  14  18  10  18  12  19  24  18  38  36  35  35  36  37  47
  87  70  37   8  16  31  36  47  79 113 112 134 146 148 154 156 158 160 169 173 176 181 181 178 182 187 185 186 187 186 188 189 188 187 189 186 187 187 191 191 193 196 198 198 194 197 192 193 198 194 188 188 182 184 180 177 173 169 164 164 155 153 152 153 155 153 151 149 151 147 144 141 130  95  50  37  29  15  17  17  15  29  18  16  16  35  36  36  36  34  36  46
  85  43  17  14  17  30  34  55  77 111 121 133 147 146 150 154 158 166 167 175 178 183 183 188 187 188 191 191 191 191 189 188 186 187 186 189 190 189 195 194 199 197 197 199 200 196 196 194 195 196 192 188 179 175 168 173 173 165 166 167 160 153 152 153 152 152 151 149 151 147 143 137 133 114  71  29  27  17  18  18  26  14  29   9  30  35  35  35  35  34  37  57
  90  32  22  12   9  28  38  44  79 111 123 131 144 149 151 154 160 165 172 176 181 184 187 187 190 193 194 194 194 194 195 193 194 194 195 191 192 196 197 199 198 201 204 204 199 186 192 191 185 190 181 175 159 158 150 125 134 146 166 156 163 152 149 152 149 145 148 148 147 147 141 138 133 118  92  41  37  12  16  12  21  22   9  68  20  36  35  35  34  36  42  68
  89  40  30  20   6  25  42  43  67 107 123 131 142 149 152 155 163 168 173 179 183 187 190 191 195 194 196 197 197 196 200 197 196 198 198 197 196 202 194 202 196 197 209 205 170 189 168 168 149 154 144 126 134 109 100  92 107  95  89 100 125 120 151 148 136 150 149 148 149 149 143 140 133 123 103  65  25  16  13  15  18  15  42  15  35  29  35  35  34  34  47  75
  84  91  67  10  16  27  30  37  61 109 127 132 142 148 150 159 166 170 175 181 188 190 193 194 198 196 199 200 200 199 203 202 200 201 202 203 209 198 206 203 187 192 181 159 174  73  77  83  82  66  64  64  69  85  72  75  89  95  80  96  65  72 111 141 145 144 149 150 150 150 142 143 135 124 114  74  51  18  18  12  16  16  14  25  39  31  34  35  34  36  57  87
  88  89  82  13  26  24  18  29  69 112 126 132 142 146 150 164 166 175 177 182 187 191 197 194 198 201 200 201 202 201 205 200 197 201 201 200 199 204 203 197 152 180 144 119  89 118  74  71  71  67  70  70  86  72  86 116  68  70  73  97  81  72  72  73 109 142 149 150 149 151 145 143 134 127 108  97  73  22   7   9  15  15  36  42  87  54  34  33  36  36  65  92
  85  90  88   9  20  15  15  27  67 109 124 130 139 146 157 166 170 173 176 174 181 194 186 194 190 191 199 201 191 201 201 198 197 198 199 198 200 198 200 175 169 142  99 120 103  83  79  67  68  68 114 103 120 143 151 152 150 150 141 121 135  90  86  79  99 109 113 142 149 148 146 144 137 130 121  98  83  42  21  10  14  17  22 128 155 158 139  35  35  36  71  94
  86  88  92  51  22  13  21  23  78 114 123 127 137 146 157 167 165 172 171 149 176 183 184 165 186 150 175 188 202 198 195 196 194 198 198 199 203 190 198 164 146 104 116 123  87  75  75 117 133 147 155 157 169 178 175 174 165 168 164 157 135 124 120 124 109  98  91 133 148 148 148 145 139 132 121 103  65  51  47  18  11  13 146 157 169 148 131  97  37  37  74  94
  85  88  84  74  18  23  19  22  81 112 113 120 126 137 140 136 126 149 142 125  97  57  77  86  82 142 113 177 169 194 190 193 192 195 199 197 199 197 190 169 138 129 133 133 139 137 152 152 154 154 163 174 166 177 175 169 170 166 163 158 155 148 135 131 112 110 116 120 147 152 149 147 140 136 122 108  88  38  28  24  28 129 170 180 149 142 164 159  35  38  76  96
  88  88  87  79  30  15  10  14  85 107 111 115 128  89  81  95  41  74  64  50  65  72  82  80  80  75 101 103 152 182 184 183 191 191 191 193 196 194 192 177 169 148 150 151 150 153 150 146 154 156 155 165 160 167 163 161 156 151 149 148 150 144 142 139 139 141 148 141 149 148 150 149 141 138 130 110  88  47  39  29  46 137 177 174 114 151 173 183  24  38  74  95
  88  89  88  83  31  15  12  14  82 104 108  98 105  59  89  58  47  67  45  60  78  66  81  76  76  83  87  99 134 163 179 182 178 185 191 193 198 194 172 182 174 156 163 152 154 146 143 136 136 130 109 109 130 118 124 109 113 131 128 134 138 137 140 136 140 147 162 160 153 148 154 149 143 140 127 114  94  67  32  33  76 111 173 116 135 154 177 192  35  38  66  92
  87  88  85  89  66  12   9  16  75 102 109  52  57  58  65  50  60  33  37  72  65  86  88  85  86  90 104 105 120 149 168 177 177 180 184 188 194 193 190 178 170 163 155 145 142 140 134 113 114 144 131 143  92 130  80 100 109 109 102 124 130 131 130 128 142 149 158 162 163 157 152 152 147 141 137 119  88  57  24  23  42 156  67 145 149 143 189 197  69  38  60  85
  88  86  90  91  90  18  10  12  67 104  66  49  40  55  74 121 120 143 140 141 144 143 138 135 138 140 131 140 144 147 151 170 168 177 187 192 199 198 188 178 175 158 146 137 140 134 117 129 113 117  49  54  67  37  56  42  49  61  80  95 116 122 126 124 138 159 164 164 168 164 154 150 147 139 131 122 100  68  42  24  27  55 132 134 165 134 192 195  73  34  50  69
 132  88  87  87  86  47  20  16  50 111  45  45  67 110 134 138 149 149 154 148 152 153 151 142 139 133 131 133 139 140 152 152 166 172 179 194 202 198 188 179 171 153 141 140 139 129 121 124  89 130 126  98  20  25  88  68 114  92  30  52  84 106 120 118 144 162 167 167 170 166 156 148 147 138 136 124 105  75  61  52  62 102 171 185 169 132 196 196  87  33  42  50
 196 172 129 104  88  71  28  11  45 100  49  65 116 128 134 143 144 144 150 148 143 139 117 118 116 117 123 127 125 126 133 133 151 163 178 188 195 192 188 177 162 146 138 150 133 142 131  75 168 187 161  88  86  53  69  78 130 109  62  73  83 103 129 131 142 155 169 167 168 164 154 151 145 139 135 124 113  98  60  43  62 126 188 191 184 140 192 195  96  35  35  37
 195 200 201 196 186 181 107  14  33 105  68  85 120 132 142 137 136 132 126 120 123 134 158 117 138 132 109  98 123 127 124 122 131 155 172 185 191 187 176 174 161 148 155 177 182 122 107 128 142 176 183  95  95  90  92 134  93 123 131 132 147 146 147 154 159 168 165 171 168 164 156 149 143 138 132 130 110  88  71  51  84 183 187 189 191 151 175 181  71  35  35  35
 197 199 197 197 201 197 202 157  31  85  74  92 104 121 127 130 121 103 124 127 129  72  43  46 114  46  79 122 122 113 132 125 120 140 163 177 182 179 173 159 157 153 158 182 166 151 164 146 146 151 150 153 156 158 136 152 150 150 149 139 152 159 155 159 158 166 173 166 168 164 155 147 141 136 134 129 113 106  76  47 112 123 195 211 203 183 163 181  66  36  35  35
 196 198 200 202 199 196 172 187  30 100  93 104 103 109 124 127 103 114 119  63  43  96  77  73  69 102  94 134  94 133 143 146 132 131 161 175 177 178 172 160 151 146 157 174 177 180 171 155 152 150 164 149 145 159 146 137 142 145 146 157 168 173 174 173 171 170 170 167 167 161 153 146 140 134 134 129 118 105  68  50  84 161 192 204 209 197 142 189  46  35  35  34
 196 198 197 196 198 188 173 137  33 109 114 121 108 102 113 126 111  77  44  82 149 107 109  67  26  95 111 180 149 103 154 154 129 130 162 170 182 178 170 165 153 145 146 163 179 172 165 155 153 148 158 144 142 145 143 144 149 156 163 170 175 181 176 180 177 173 171 167 167 159 151 145 141 133 133 130 122 110  86 114 166 173 187 193 200 203 155 183  23  34  35  34
 198 198 197 196 191 186 190 150  74 113 120 131 121 109 112 117  80  29  60 125 158 159  84 101  88 109 114 127 152 172 165 141 125 137 167 174 182 177 173 167 160 150 148 151 158 175 183 175 174 171 172 172 166 173 173 167 179 179 179 176 176 178 173 178 176 176 173 171 170 159 147 144 137 131 131 131 125 102  99 115 196 201 195 191 195 211 162 170  33  35  35  34
 197 196 197 197 193 200 205 192 158 108 125 139 133 116 105  84  45  55  93 120 141 147 137 132 126 165 171 164 157 161 167 135 123 140 160 170 180 181 172 165 164 159 156 154 158 154 172 186 191 183 188 177 183 177 174 177 171 172 179 182 180 180 181 179 176 177 169 170 166 158 150 142 137 127 132 130 123 108  94 128 200 226 205 192 191 201 157 137  37  34  35  36
 197 197 197 195 196 196 200 194 154 112 123 142 139 134 112  87  79  81 116  89  97  98 114 152 146 158 156 159 168 167 152 124 126 139 162 177 181 172 166 166 168 166 159 157 163 162 160 170 178 183 182 179 178 176 171 172 174 177 182 183 184 184 184 181 178 177 170 170 165 157 149 145 138 129 132 130 122 109 101 138 193 223 203 184 180 187 159  96  34  33  34  34
 196 197 198 197 197 194 196 193 167 108 123 147 143 139 127 118 116 109 133 134 147 145 149 143 139 152 156 172 173 173 145 130 134 134 156 175 174 173 164 162 163 170 166 168 165 172 168 165 165 175 175 174 177 180 176 178 179 181 179 181 182 185 182 179 176 172 168 164 162 155 147 144 134 129 130 129 121 118 103 153 178 205 197 177 177 187 146  72  35  31  32  31
 196 196 197 197 196 198 196 197 195 108 126 145 152 150 142 141 132 127 121 124 136 137 142 151 158 170 173 182 177 160 140 132 126 132 157 174 176 170 162 162 163 162 174 177 181 178 181 180 177 175 176 174 177 176 178 179 180 180 181 181 183 181 183 175 174 172 164 160 160 150 150 139 134 123 126 130 121 120 103 158 168 201 192 159 179 190 150  70  35  33  34  33
 196 197 197 197 197 198 197 198 200 100 123 147 152 150 152 155 154 154 149 150 153 158 156 162 167 176 176 181 169 153 140 136 129 130 162 176 174 166 162 159 158 160 169 169 177 189 192 189 187 187 180 183 179 179 179 179 182 184 184 182 180 181 181 179 169 160 162 157 157 148 147 140 131 120 123 119 125 113 106 142 167 193 161 155 192 162 173  77  33  34  35  34
 197 198 197 197 197 198 197 198 197 119 123 144 151 152 156 161 162 159 164 163 162 170 168 173 176 181 178 181 162 148 147 137 127 134 167 179 178 172 167 162 155 147 148 156 163 167 188 194 193 190 191 187 191 186 186 185 186 190 189 182 184 180 182 176 166 168 160 145 154 143 145 140 127 119 123 121 124 114  99 138 158 150 164 160 161 164 171  82  33  34  35  34
 195 197 197 197 197 197 196 197 188 155 121 139 150 152 162 159 161 161 170 173 171 175 176 174 179 180 177 172 159 151 148 132 126 141 174 177 180 178 168 165 154 149 136 139 141 152 161 174 180 196 193 192 190 195 192 194 192 195 196 181 184 191 179 178 167 161 162 151 146 146 138 139 124 118 119 129 119 113 103 128 138 170 176 181 165 162 160  85  34  32  34  34
 198 195 197 198 197 198 198 198 201 190 115 135 145 155 158 157 169 168 175 176 173 175 177 175 182 181 174 167 168 163 148 124 126 140 172 180 180 175 169 169 163 158 148 151 157 152 146 160 175 178 183 192 194 196 198 202 197 196 192 191 189 184 181 179 170 165 159 154 144 143 139 138 126 119 123 126 116 109 103 148 174 190 189 190 166 169 163  82  34  31  33  34
 198 198 197 198 198 199 200 199 198 197 112 133 145 145 153 159 165 171 176 175 174 177 178 179 185 186 177 175 177 158 130 122 131 143 173 183 185 184 179 176 170 163 159 161 163 156 151 135 170 175 172 179 190 196 201 204 206 202 200 199 191 184 181 181 174 169 161 153 140 143 140 137 129 119 116 124 117 104 105 158 183 191 189 198 172 174 170  87  32  32  34  34
 199 196 196 197 198 199 197 198 196 193 107 129 137 151 155 159 165 170 172 172 174 175 182 177 186 183 184 184 184 139 128 124 136 151 172 186 195 207 183 173 172 172 170 174 167 165 152 127 171 177 169 167 179 190 193 200 202 206 204 191 194 186 182 180 174 168 161 151 143 138 140 139 133 120 121 122 112 108 104 159 171 192 192 195 177 174 169  87  28  32  34  33
 171 189 196 198 199 198 200 199 198 193 119 122 135 146 156 159 163 166 171 177 177 179 184 185 183 188 191 193 183 123 137 128 137 156 177 191 198 197 176 159 164 175 174 171 163 156 142 130 176 187 183 169 169 174 180 189 192 197 198 193 189 186 177 179 169 167 159 150 144 141 139 139 135 124 122 118 111 106 107 172 168 184 194 193 178 173 167  52  30  30  33  34
  85  92 116 129 147 153 159 155 150 144 120 113 133 139 148 154 160 170 172 175 178 184 187 191 189 194 193 200 175 129 141 144 142 145 169 183 179 183 163 157 153 150 133 111 104 128 120 155 163 184 184 175 162 162 169 180 184 191 197 192 189 184 177 174 170 163 157 151 144 145 141 139 136 128 125 114 109 105 105 176 177 184 193 180 177 164 124  30  32  31  34  34
  87  85  85  85  87  88  87  88  85  87  88 104 127 131 145 153 167 160 168 176 179 184 190 192 198 194 199 194 163 129 151 152 145 128 147 170 168 170 153 146  87 117 146 148 139 121 147 140 170 177 184 191 176 165 155 163 177 181 192 191 190 179 181 174 166 166 158 146 144 148 146 140 138 128 125 110 104 103 106 175 182 187 177 170 160  96  25  29  30  29  32  34
  88  87  86  86  87  87  88  87  89  89  85 105 120 133 143 151 164 167 171 176 182 185 191 191 191 197 194 186 165 136 134 140 147 134 115 138 152 146 139 111 135 154 153 161 141 143 130 145 167 162 175 168 184 177 163 150 160 169 181 183 186 183 180 173 165 166 158 152 147 145 141 145 134 130 126 111 107 105  99 100 171 171 163 120  36  24  26  27  28  29  31  34
  89  89  85  85  87  89  88  86  87  87  87 103 115 123 137 152 159 161 172 179 183 188 190 194 198 197 187 180 170 151 109  99 105  98  94 106 120 128 124 110 155 151 132 119 132 126 130 140 158 169 161 167 175 177 169 166 145 149 169 177 180 181 176 172 167 161 161 163 153 146 144 146 136 131 125 108 105  96  71  21   8  35  19  21  20  26  25  25  26  29  31  32
  88  89  87  87  85  87  87  87  86  87  92 109 106 118 134 144 157 158 170 177 181 188 190 191 191 192 186 183 173 158 151 142 130 122 125 129 122  86 103 141 164 155 131 134 134 129 135 125 141 159 166 169 164 166 171 180 178 158 146 165 180 182 180 174 169 162 165 161 158 153 150 140 138 131 124 111 105  96  59  22  19  24  22  24  23  23  24  26  28  27  30  30
  88  88  87  86  87  88  86  88  88  86  86 150  97 116 129 140 152 162 163 174 180 187 190 192 189 186 184 182 174 156 139 139 118 109 135 127 143 145 157 166 159 159 156 142 120 140 143 149 148 162 161 167 159 156 165 167 179 183 158 155 178 183 182 177 172 170 172 168 161 152 143 141 137 130 126 109 107  91  46  21  24  28  24  21  24  23  25  25  26  30  31  37
  88  88  89  88  88  87  87  86  90  87  93 158 107 110 123 134 146 160 164 174 180 186 187 191 187 184 187 183 171 159 131 135 114 134 143 128 122 143 164 171 147 129 156 157 159 151 148 165 177 177 172 168 170 160 174 166 167 162 177 158 170 186 186 181 176 171 173 169 165 158 152 142 137 127 122 109 103  87  32  12  26  25  21  24  22  23  24  25  26  27  31  45
  91  91  89  89  88  89  88  88  88  89 109 154 135 106 122 128 144 156 164 175 179 186 188 189 184 186 187 174 160 164 135 127 120 118 138 117 101 124 144 146 140 170 184 172 173 172 175 174 171 168 171 168 165 173 174 170 167 151 167 167 167 194 188 182 172 173 172 165 167 156 150 140 134 126 120 112  96  93  26  14  25  22  21  23  22  21  22  26  28  34  42  58
  90  90  90  90  89  88  88  89  92  89 100 148 147 102 120 125 139 152 170 176 180 186 185 180 181 186 182 156 158 158 154 130 146 149 148 138 147 146 159 170 163 185 180 163 149 145 147 145 142 136 140 126 144 150 152 155 158 146 166 179 181 194 189 182 175 173 171 166 164 161 146 142 132 125 116 106  94  78  21  16  23  23  22  23  24  26  31  35  40  46  60  74
  90  91  91  90  89  89  89  90  91  88  89 125 146 103 117 122 132 149 168 174 181 184 183 180 176 179 160 162 145 157 152 122 152 160 165 178 163 170 168 156 164 151 152 148 150 151 135 140 139 133 123 114  75  82 106 121 151 165 164 173 188 195 185 180 174 172 167 168 161 160 145 132 127 122 119 106 100  91  20  20  23  22  22  23  23  35  42  49  55  63  77  84
  90  90  91  92  90  89  90  90  89  90  88  89 111 109 115 123 129 148 155 170 180 180 182 181 177 174 173 163 145 160 162 157 174 162 152 140 144 140 149 152 151 147 136 120 147 136 115 109 105 109 114 116 125 163 168 170 178 174 176 191 194 198 181 170 170 169 160 160 162 158 141 132 127 123 115 107  94  74  23  24  24  23  23  22  22  44  57  66  74  81  89  91
  90  90  91  91  90  90  90  91  89  89  89  91  93  95 113 124 133 138 155 166 176 180 183 172 175 177 171 157 144 142 160 148 138 123 131 141 136 131 103 123 136 117 115 113 120 125 136 127 135 129 125 141 166 169 176 173 179 184 188 194 199 189 182 175 171 165 168 157 162 150 141 131 130 116 114 105  91  59  21  30  22  24  24  22  25  50  73  78  86  88  94  95
  91  90  92  92  92  89  89  89  91  88  88  88  90  91 110 126 134 138 154 167 176 187 189 184 173 165 166 164 141 150 141 119 120 126 106 111 122 131 122 128 127 134 141 146 150 148 143 135 128 136 157 171 172 176 174 189 187 190 184 192 194 178 178 178 167 168 163 160 157 145 138 135 132 121 115 103  87  49  23  21  21  21  24  23  30  60  82  85  90  91  95  94
  93  92  90  90  90  91  90  91  87  88  88  87  90  93 105 123 134 144 151 161 178 190 194 178 166 164 179 175 149 115  75  87 112 119 126 132 135 151 158 156 159 159 159 149 144 132 134 145 154 175 181 181 179 183 183 190 192 182 202 202 192 182 173 166 173 171 165 160 150 149 147 143 125 116 105  98  76  36  22  24  21  23  22  23  34  68  84  91  88  91  91  93
  92  92  90  91  91  91  90  91  89  89  89  88  91  92 102 120 135 143 149 161 171 185 195 183 187 164 148 124 124 145 129 121 114 113 118 126 139 153 152 146 155 148 144 142 145 148 162 183 187 180 182 178 180 185 182 188 177 189 199 203 192 181 171 168 173 174 169 164 159 150 146 138 125 113 105  98  70  26  19  23  21  23  24  24  38  70  85  90  90  92  93  94
  93  92  90  91  91  91  91  92  91  91  91  91  90  91  94 109 129 139 145 156 168 179 193 193 173 169 162 166 162 154 152 150 149 134 130 128 128 134 142 151 151 162 165 173 187 187 189 188 184 181 178 184 185 187 184 186 177 178 179 195 184 173 167 170 172 171 169 167 162 153 139 128 118 104 106  89  70  23  22  21  20  24  23  30  49  81  90  88  94  92  93  94
  91  93  92  91  92  91  91  91  92  91  90  88  89  89  91  99 123 136 145 152 165 172 181 193 181 148 164 173 165 158 153 163 171 174 172 167 160 170 172 181 183 193 199 196 191 193 189 187 181 186 185 183 189 193 187 182 174 183 182 190 182 173 167 174 173 176 174 169 160 150 123 126 116 106  93  83  72  22  23  21  20  24  23  37  63  84  90  91  89  92  93  95
  92  92  93  91  91  92  91  91  91  91  89  89  90  90  89  96 116 131 143 149 159 167 177 185 177 182 176 162 172 172 167 165 170 174 177 180 177 184 185 186 189 191 192 181 187 177 179 187 179 185 189 183 187 188 181 176 174 162 184 185 182 169 171 170 169 172 173 169 156 147 138 116 110 101  91  70  69  23  24  21  21  24  27  46  70  87  91  91  91  89  91  93
  93  90  92  92  90  93  92  91  91  90  90  89  90  89  87  90 106 127 138 143 149 161 170 178 191 171 161 169 168 172 170 167 167 160 179 173 160 177 170 172 161 168 175 169 166 163 163 180 177 175 189 196 185 180 161 151 181 176 168 180 173 171 172 171 178 174 172 163 149 139 130 117  99  96  84  82  65  23  22  21  21  21  31  57  82  90  90  90  91  90  92  94
  93  93  94  94  94  91  91  91  92  92  92  93  91  91  87  89  99 120 133 140 151 152 169 178 187 162 168 171 169 167 159 168 168 166 170 146 151 175 171 154 142 146 154 171 168 178 179 183 190 181 186 190 186 177 175 167 189 167 162 175 168 174 172 172 175 173 168 164 151 134 124 111  94  90  80  81  65  20  20  22  21  24  37  68  87  89  89  89  91  90  95  92
  93  91  93  93  94  90  91  92  93  92  92  91  90  90  89  88  88 103 128 135 137 146 156 166 173 183 166 156 165 170 173 171 174 167 172 177 169 157 154 126 144 140 141 164 170 179 176 180 183 184 187 175 181 148 161 176 186 178 165 172 167 173 177 164 174 172 165 155 145 124 105  84  90  84  89  89  54  21  22  21  22  24  44  76  90  93  90  90  90  91  95  93
  93  93  92  93  93  91  92  92  92  92  92  91  91  90  86  84  89  94 114 134 136 144 144 152 163 168 172 167 165 171 173 174 185 170 177 179 180 167 144 126 142 127 126 145 160 181 169 194 194 185 185 182 183 183 180 171 187 179 176 167 163 172 178 165 162 161 150 149 133 124  97  93  88  86  85  85  51  22  22  21  24  26  53  82  89  91  91  91  91  91  93  93
  92  93  93  93  92  92  92  92  92  92  90  93  91  89  88  88  87  94 106 127 141 149 146 144 146 163 147 155 161 164 174 181 180 184 188 185 175 181 163 152 180 155 156 180 176 184 184 186 186 192 190 181 190 177 167 176 174 160 169 161 164 174 173 163 167 148 143 136 122 114  90  86  95  85  93  94  46  21  24  23  24  26  67  85  90  88  90  90  89  90  92  96
  94  92  94  92  93  93  93  92  92  92  92  92  91  89  87  88  87  90  91 114 135 143 148 142 142 132 140 158 164 165 162 163 177 171 187 181 174 181 174 185 192 188 189 191 166 180 186 195 194 181 195 181 179 180 159 184 181 153 166 145 167 169 172 165 158 141 135 128 109  92  93  78  93  93  92 100  49  21  24  23  23  33  70  86  90  91  91  90  90  90  92  94
  94  93  94  93  93  90  92  91  93  93  92  93  91  88  88  88  88  85  85 100 127 141 147 146 126 123 138 150 149 152 167 172 176 183 178 182 183 174 188 178 189 180 175 194 162 185 195 199 198 184 191 175 170 154 160 158 167 150 168 159 157 164 166 162 146 130 130 115 103  94  87  95 100 100  99 106  40  21  24  24  23  39  77  87  91  91  90  91  90  88  92  94
  91  93  92  92  91  94  93  92  92  92  93  91  91  90  86  87  87  90  80  91 106 128 142 139 135 134 129 146 141 162 155 161 170 182 182 193 182 176 191 191 160 160 186 192 188 195 195 191 194 196 173 169 173 158 166 173 157 141 158 159 145 144 153 147 146 131 121 103  91  88  96 106 101 109 106 106  42  23  24  23  24  45  81  89  90  90  88  90  91  89  91  92
  92  94  92  93  93  92  93  93  92  92  92  93  90  91  86  87  87  82  77  85  90 112 127 129 138 134 127 131 140 151 133 164 154 176 164 194 183 195 195 180 180 190 178 190 181 188 191 189 195 188 171 179 156 166 152 131 148 137 149 132 155 140 136 134 133 118 103  94  83  87 105 107 115 106 117 112  37  23  22  20  23  49  83  88  90  90  89  89  89  88  91  93
  91  94  92  94  95  91  90  92  92  93  93  93  90  92  86  88  87  85  85  87  85 100 122 130 139 130 123 114 118 114 142 131 161 174 181 188 177 192 188 191 179 177 184 174 195 205 188 178 163 190 170 170 148 155 134 118 133 149 143 143 147 139 124 123 123 100  96 102 108 111 109 119 119 114 120 112  25  21  21  21  22  54  88  89  88  90  88  89  90  89  92  92
  94  93  92  93  94  91  91  92  93  93  92  93  93  90  89  87  86  87  86  87  82  81 100 107 132 129 126 114 107 103 129 145 160 170 162 181 185 175 191 194 186 169 179 189 188 162 192 193 161 191 163 165 158 134 113 113 126 135 150 139 146 126 123 123 105  99 102 102 110 113 118 121 120 123 123 117  49  22  21  22  23  56  85  87  87  87  89  89  90  90  90  92
  94  94  94  93  95  92  92  94  94  93  92  91  90  89  88  89  87  87  86  86  83  81  90  85 105 107 115 117  87  84 110 126 145 136 170 175 194 178 179 199 167 169 173 181 156 159 147 181 185 143  93 155 140 103 103 120 135 117 132 128 108 124 108  99  84  95  96 112 118 117 121 127 129 128 129 112  63  21  21  21  23  55  87  87  87  88  89  89  88  91  92  93
  94  95  93  94  95  94  93  94  93  94  93  94  91  90  91  90  88  85  86  86  84  89  72  79  99 114 119  97  92  92  91 105 133 144 119 150 166 160 145 158 175 181 169 175 175 153 151 156 147 143 139 109 122  89 112  91 127 108 132 102 121 113 104  91  99 108 110 120 124 131 135 131 131 131 133 116  85  23  24  23  23  58  87  88  88  88  91  90  90  90  91  93
  95  95  93  93  93  95  95  93  94  94  93  94  93  92  88  88  88  85  86  86  85  85  81  62  74 101  98  85 107  93  70  88 105 136 137 131 150 141 162 179 167 182 166 158 165 145 148 122 123 120 133  82 104  84 100 125 110 104 110 110 122 106  90  87  94 110 127 134 135 139 137 135 142 142 131 127  87  21  19  22  24  58  85  89  89  89  90  89  90  88  90  91
  95  95  92  93  93  95  94  93  94  94  92  94  92  91  90  90  88  87  84  86  86  84  86  67  72  75  92  95  80  84  76  60  95 102 121 131 147 139 148 165 156 152 128 123 125 127 143 143 108 103 104  89 103  85 119 109 114 104 110 113  99  95  89  94 116 130 137 143 141 142 143 143 150 137 147 129 101  76  22  24  24  60  86  89  89  89  88  89  90  90  91  92
  95  95  94  94  94  94  95  93  94  94  94  95  93  93  90  90  89  87  87  87  84  87  83  74  87  81  80  77 101  85  72  63  69  68  85 124 123 132 129 135 148 128 144 139 105 113  80  96  70  86  84 100 100 120 113 127 110 108 103  83  82  89 109 111 115 137 144 145 149 147 150 154 142 148 145 129 114 194  17  19  24  60  87  87  89  89  87  86  87  88  89  90
  94  93  93  93  94  93  93  93  94  94  92  93  92  92  92  91  89  85  91  87  86  85  86  80  80 108 101  78  93  89  84  86  73  92  59  97  96 113 117  80 114 105 102  88 103  85  89  97  89  82 107 119 125  90 109 104 105  84  98  84  98 117 114 130 145 150 149 153 151 156 155 153 155 149 146 135 108 204 133  24  23  59  86  85  87  88  89  89  88  86  88  89
  94  94  93  94  94  92  94  94  94  94  92  93  93  93  92  90  90  89  90  89  87  87  86  89  85 105 112 106  98  65  83  75  89  80  76  79  74  81 106  89  98  99 107 116  93  99  68  94  92 105 112 126 105  98 110 104  99  82 106 103 126 114 133 152 150 152 153 156 160 161 152 162 162 153 145 136 108 191 197   4  23  57  85  87  87  89  88  89  88  87  88  90
  94  94  93  93  95  95  94  95  94  93  92  94  92  93  92  91  90  91  87  89  88  88  87  87  86 108 121 121 119 103  83  76  92  93 102  95  99 111  80  84  97  80 101 113 100 121 105 111 111 107  98 101 106 106  85  94  97 106 131 129 133 150 149 155 158 159 156 162 162 158 168 168 160 151 144 138 114 185 202  71  23  51  85  86  87  89  88  89  88  86  89  91
  94  94  95  96  96  92  93  93  93  93  92  95  95  95  92  91  91  89  88  88  90  87  88  84  92 105 122 127 126 122 100  97  80  70  74  82  80  96 105 112 102 101  96 106 114 107  94 102  94 103  90  80 101 100 117 131 147 142 140 146 159 149 153 158 158 160 165 161 163 173 170 168 163 158 147 139 124 181 201 138  16  41  82  82  83  88  88  89  88  85  86  89
