P2
# Generated by OpenCV 4.2.0
92 112
255
 251 251 252 253 252 252 252 252 253 253 253 253 253 253 253 253 254 254 254 254 254 255 145  45  86  62  37  57  99 129 152 105  80  91  69  60  61  34  32  33  24  24  42  56  61  66  63  63  65  74  88 153 238 255 255 255 255 254 254 254 254 249 175 112 125 136 145 150 152 151 151 151 148 149 153 158 160 156 152 155 162 168 170 172 170 169 168 166 165 166 168 168
 251 252 252 252 252 252 252 252 252 253 253 253 253 253 253 253 255 254 254 254 255 208  72  73  65  40  57  92 109 116  72  50  68  61  52  38  46  44  36  36  53  70  70  70  73  76  68  62  73  83  93 104 134 209 235 247 255 255 255 254 254 250 176 111 124 136 144 151 153 154 153 151 149 151 155 157 157 156 153 154 162 166 169 171 171 169 167 166 164 166 169 168
 251 251 252 252 252 252 253 253 253 253 253 253 253 253 253 253 254 255 254 255 237  98  56  60  53  72  64  78  95  52  38  58  57  53  38  45  46  37  55  84  80  67  56  53  62  63  64  70  66  65  68  76  90 109 126 141 146 195 241 255 255 250 175 113 123 133 144 151 154 154 152 150 150 151 154 157 156 157 154 155 162 165 167 171 172 170 169 166 164 166 168 167
 251 251 252 252 252 252 253 253 252 252 253 253 253 253 254 254 254 254 255 239 137  67  66  67  78  56  37  72  53  40  61  62  49  47  36  51  30  73  76  47  43  50  47  47  45  32  28  34  45  64  80  85  85  84  83  89 103  94  96 137 202 252 182 118 133 140 144 150 152 152 150 148 148 150 153 155 159 157 155 154 161 165 168 172 173 172 168 165 164 166 169 167
 252 252 252 252 252 252 252 253 252 252 253 253 253 254 254 254 254 255 215 136  91  73  91  85  47  34  48  50  40  65  59  49  49  30  40  29  67  61  33  69  72  48  32  23  19  22  29  38  43  40  39  48  59  79  94  82  73  81  97  90 107 146 173 157 141 141 145 150 151 151 150 147 146 150 151 155 160 159 155 156 162 167 168 171 171 171 169 165 166 168 171 168
 252 252 252 252 252 252 252 253 253 253 253 253 253 254 254 254 255 184 102  82  81  88  97  57  38  39  44  39  54  67  62  55  46  32  27  77  61  30  80  77  40  24  18  21  36  43  48  45  33  31  36  38  30  30  43  67  78  69  92  95  82  55  89 122 137 146 148 152 151 150 148 146 147 147 148 153 158 158 155 158 161 165 167 168 171 170 166 165 166 169 169 167
 252 252 252 252 252 253 253 253 253 253 253 254 254 254 254 255 225  86  74  43  59  90  74  44  34  43  42  46  58  61  58  45  42  21  65  79  27  69  77  43  24  20  24  40  40  32  25  22  25  28  30  35  42  39  27  27  37  47  64  69  74  97 110 112 110 124 157 153 149 151 150 148 145 146 146 151 154 156 154 155 156 160 165 166 168 168 164 165 167 169 169 167
 252 252 252 252 253 253 253 253 253 253 253 253 254 254 254 255 135  59  43  30  95  84  38  31  34  38  50  63  64  58  56  54  28  43  93  33  46  66  52  31  19  30  47  40  29  22  30  32  35  39  42  40  36  39  43  39  36  33  28  43  69  91 126 148 154 131 138 146 155 154 152 142 144 146 148 152 154 154 153 152 154 158 162 164 164 164 164 165 168 168 166 166
 252 252 252 253 253 253 253 253 253 253 254 254 254 253 255 233  67  49  35  73 115  62  33  30  31  33  58  56  62  53  55  41  20  84  63  25  62  52  39  19  22  47  43  24  24  43  38  41  47  49  51  47  45  34  23  24  28  43  39  24  25  43 115 161 164 164 194 183 190 172 155 147 140 150 152 155 154 151 151 151 155 159 161 164 164 162 161 163 167 166 165 166
 251 252 253 252 252 253 253 253 252 253 254 254 254 253 255 164  39  45  59 116  89  44  34  35  34  36  50  56  52  44  59  32  42  99  43  36  70  49  31  18  43  65  25  22  57  49  50  62  46  57  62  48  25  24  32  33  30  29  41  40  26  20  25  57  87 120 132 158 170 184 176 156 142 150 153 154 154 152 151 153 155 159 162 163 163 161 158 161 166 166 166 166
 252 252 252 252 252 252 253 253 253 254 254 254 254 255 236  73  41  60  78 107  83  38  37  37  39  31  43  67  57  52  57  31  69  96  37  41  79  49  32  31  65  60  14  50  69  33  75  62  52  57  39  20  35  56  57  51  46  31  25  38  46  27  17  19  28  38  48 129 121 110 169 180 143 148 151 152 153 155 153 155 156 157 160 163 163 160 158 161 165 167 166 165
 252 252 252 252 253 253 253 253 253 253 254 254 254 255 198  42  38  50  86  73  72  34  38  39  39  32  42  66  62  55  52  43  72  81  39  51  85  50  22  41  65  42  27  68  48  39  63  48  53  33  20  35  67  55  56  54  55  55  42  29  40  51  30  20  19  20  28  55 101 113  89 139 149 141 149 152 154 154 154 156 156 156 159 161 161 160 160 161 165 166 166 164
 252 252 252 252 253 254 253 252 253 253 253 254 254 246 170  40  44  31  66  57  44  39  41  41  40  34  40  56  67  55  53  45  65  66  43  59  75  58  28  44  62  40  48  55  44  42  41  39  39  34  32  55  65  53  54  37  47  76  80  57  35  40  46  32  22  19  23  37  56  58  73  90  82 121 161 150 153 156 155 157 158 157 158 158 159 159 160 161 164 165 164 163
 252 252 252 253 253 253 253 253 253 253 254 254 253 238 124  39  46  30  39  55  35  36  43  42  41  42  39  45  69  59  49  42  58  56  43  53  65  62  49  57  63  43  62  42  42  41  42  37  43  49  57  57  56  49  43  41  63  67  60  54  46  35  42  42  32  23  22  20  22  37  44  47  59  85 124 159 155 158 159 160 160 159 158 157 158 161 162 162 163 163 162 161
 252 252 252 253 253 252 253 254 253 254 254 254 255 184 152  72  42  33  28  46  41  33  43  46  46  44  47  46  59  69  52  36  57  58  47  53  56  56  53  66  63  43  65  48  61  65  58  64  75  84  81  80  77  69  61  64  62  43  43  49  49  32  30  41  38  30  26  28  36  42  39  60  59  84  59 161 166 158 159 161 162 160 159 158 159 163 164 163 162 162 162 161
 252 252 252 252 252 252 253 253 254 254 254 255 240 142 187  99  35  34  30  32  39  35  44  55  56  52  45  55  62  66  61  43  51  59  52  56  52  50  52  68  74  50  70  78  89 105  99 111 132 139 124 111 117 108  96  86  80  82  89  80  66  56  49  46  37  34  31  28  30  39  38  53  51  40  67 127 167 157 157 160 161 162 161 159 161 162 164 162 161 160 161 160
 252 252 252 252 252 252 252 253 254 254 254 255 176 118 116  87  50  37  35  34  35  36  38  54  57  61  52  49  59  67  64  59  53  61  59  64  68  62  60  65  77  82  95 105 133 152 165 159 179 177 161 153 164 155 149 144 131 133 130 105  86  78  64  62  50  32  31  30  33  36  39  35  28  39  60  73 101 151 161 158 161 162 162 160 160 160 162 161 159 161 162 161
 252 253 252 252 253 253 253 253 253 254 255 216 131 103  93 102  71  45  35  37  37  37  38  41  60  71  64  57  56  62  66  62  64  64  74  76  82  87  92  88  98 124 152 155 168 187 200 202 201 200 196 188 187 186 184 176 167 167 169 166 141 115  84  56  56  50  30  26  25  28  27  21  26  31  33  44  41  90 161 157 159 161 161 160 159 159 161 160 157 159 161 162
 252 253 252 253 254 253 254 253 253 255 230 134  99 107 103 109  97  66  47  41  43  46  49  48  54  73  81  72  72  73  71  74  80  82  91 102 109 117 136 150 150 162 181 193 203 207 206 208 209 206 204 198 195 199 197 190 186 182 185 191 186 169 137  89  54  51  42  30  25  22  19  28  29  23  26  41  45  49 119 161 157 160 161 159 159 160 162 159 156 157 161 162
 252 252 252 253 253 253 253 254 254 246 134  93 107 125 115 109  97  86  73  55  51  60  69  76  71  62  75  79  73  84  87  93 107 121 127 136 145 164 180 191 197 195 195 205 209 209 206 206 204 203 202 197 197 200 197 193 191 191 191 191 192 191 183 157  98  52  43  42  32  26  24  27  26  28  29  34  37  45  85 146 160 158 159 159 159 161 162 160 158 158 161 161
 252 252 253 253 253 253 253 253 255 164  81  97 120 120 113 108 108  99  90  80  69  70  82  96  98  92  88  92 103 117 125 129 139 152 162 172 180 195 200 200 206 209 208 207 206 203 203 202 200 200 199 197 196 195 194 194 192 190 190 187 190 191 191 181 160 117  61  44  41  37  33  29  27  34  35  37  39  41  52 124 164 157 156 156 158 160 163 161 160 159 161 161
 251 252 253 253 253 253 253 255 225  74  80  95  96 108 110 113 117 110  98  89  88  82  85  98 114 128 140 153 177 187 184 189 195 197 200 200 198 202 207 208 208 207 205 203 201 200 199 196 197 197 196 195 193 192 193 193 192 190 187 187 184 184 187 187 176 156 128  89  55  51  53  36  29  28  30  27  29  29  38  74 155 159 155 154 157 159 160 161 159 159 160 161
 252 252 252 253 253 253 254 255 117  39  67  82 112 109 104 114 110 111 105  96  98 102 113 133 146 162 184 193 201 202 205 208 207 207 205 200 198 200 203 204 203 202 200 200 197 196 196 195 194 193 191 192 191 191 192 191 192 191 188 187 184 183 184 187 183 173 168 155 124  78  64  53  35  30  29  26  34  34  23  30 116 161 154 153 157 157 159 159 159 159 160 160
 252 252 253 253 253 253 255 200  51  54  56  78  87  90 101 103  96 112 123 126 135 148 162 171 179 189 195 197 198 199 203 201 201 202 199 199 199 200 200 197 197 195 195 198 198 196 194 194 194 194 191 191 193 191 191 192 190 191 190 188 185 183 181 183 183 178 178 175 167 133  88  71  54  42  35  38  38  46  45  32  64 158 157 154 156 158 157 159 157 159 160 160
 251 252 252 253 253 254 254 109  44  53  68  75  85 102 100  89 107 137 156 160 165 169 176 179 185 190 194 195 194 196 198 197 199 198 197 197 198 197 198 197 197 197 197 196 196 196 194 194 193 193 193 192 191 192 190 188 191 192 191 190 187 184 184 183 182 180 177 178 177 152 121  96  77  66  49  44  39  38  39  27  29 114 162 153 156 156 155 158 158 159 160 162
 252 252 252 253 254 255 215  51  48  58  65  63  82  89  76 101 133 150 166 170 168 175 182 183 186 189 190 187 192 195 194 195 194 194 195 197 197 199 200 201 199 197 197 196 196 192 193 194 192 191 190 189 191 193 193 190 192 191 190 191 188 187 185 186 187 185 182 179 174 168 148 125  94  83  74  48  40  35  34  31  19  70 158 152 153 154 155 157 158 158 160 161
 252 253 252 253 253 255 133  30  51  60  50  63  75  80  87 122 147 159 166 171 172 177 183 185 187 188 190 188 191 191 192 192 194 196 197 198 199 201 202 201 201 200 199 199 196 193 194 193 192 191 190 189 192 192 195 194 192 192 191 190 190 188 189 191 195 192 187 185 179 173 160 138  97  78  77  69  51  35  39  44  35  51 149 152 150 154 156 157 157 157 159 160
 252 252 252 253 254 238  55  40  47  51  50  63  74  78  95 137 159 164 165 171 175 180 183 184 186 188 188 189 190 190 191 192 195 196 198 197 197 200 200 201 201 201 201 200 195 195 192 193 193 193 192 194 194 193 194 193 193 193 191 190 192 192 190 191 191 188 184 184 184 180 166 148 123  98  73  62  56  43  32  34  25  41 142 153 150 153 156 157 158 157 158 159
 252 252 253 253 255 178  23  44  45  45  49  59  73  73 117 151 160 158 165 173 179 181 180 185 187 187 189 189 188 191 192 191 193 193 195 195 196 199 201 203 203 202 198 197 198 198 197 196 197 196 194 194 193 194 195 195 193 193 192 192 192 190 190 189 188 186 183 183 184 179 169 156 135 118  98  79  41  42  35  29  24  25 136 154 149 153 155 155 154 155 157 159
 252 252 253 254 253  90  29  45  47  45  47  61  67  91 127 153 158 156 166 173 177 179 181 185 186 187 187 188 189 189 193 193 195 194 194 197 200 201 202 204 206 204 203 203 203 202 199 198 201 198 197 195 192 194 197 195 194 194 193 191 188 189 191 190 187 185 183 183 182 173 163 159 142 109  94  96  61  40  42  30  25  15 112 158 149 153 153 151 153 155 156 156
 253 253 252 255 204  28  36  42  46  38  44  61  77 112 131 152 156 158 163 171 175 178 182 183 184 184 185 188 189 192 196 198 198 198 200 202 202 203 202 203 205 205 205 202 201 203 199 201 201 201 198 195 194 196 196 195 194 195 193 190 188 189 191 189 186 184 182 183 181 176 163 144 132 115  90  70  63  49  37  39  32   9  86 160 147 150 151 150 152 154 155 155
 252 253 253 255 130  20  36  41  36  41  49  66 106 126 130 147 153 157 163 170 173 176 179 181 182 186 188 191 190 194 195 197 197 198 202 201 202 201 200 202 204 202 203 205 204 204 202 201 202 202 199 197 196 196 196 197 197 195 194 190 190 190 191 189 187 184 182 183 181 176 168 146 127 112  93  67  55  54  38  30  38  17  77 160 148 149 149 149 151 154 155 154
 253 253 253 250  73  23  41  33  33  41  50  78 122 125 129 144 150 155 163 168 173 174 178 179 183 185 189 192 193 197 199 197 199 199 203 201 202 200 203 206 206 207 208 208 206 208 210 207 204 204 204 201 198 196 196 198 198 197 194 192 192 190 190 191 189 184 180 181 185 176 159 142 123 107  87  66  56  47  41  32  33  34  71 158 148 148 148 148 150 154 156 155
 252 253 253 224  44  36  37  28  38  43  59  96 126 123 133 150 152 157 163 167 173 174 177 181 185 187 190 192 196 198 199 199 199 201 202 201 203 204 206 210 209 210 209 208 210 210 209 212 211 207 207 204 200 200 199 199 198 197 196 194 193 192 189 190 188 183 181 179 184 184 161 134 123 101  80  61  49  41  36  33  28  23  67 154 147 148 149 148 149 153 154 154
 252 252 255 194  32  37  32  37  40  51  67 109 133 126 133 147 152 158 162 168 170 173 177 180 184 186 189 193 195 196 197 198 199 202 204 202 204 204 208 211 209 211 209 208 207 210 208 207 206 205 202 201 199 199 199 197 195 195 195 194 194 192 190 190 187 184 181 180 180 177 168 138 111  96  82  66  51  40  33  34  31  16  54 159 152 151 151 149 149 152 153 153
 252 253 255 169  20  29  43  37  47  58  82 122 140 125 132 142 150 158 162 168 171 174 178 180 182 187 190 192 195 197 199 200 201 204 206 204 204 205 207 208 207 209 207 206 207 208 206 205 206 205 201 202 201 199 199 200 197 195 193 194 193 191 189 191 189 184 183 183 183 174 156 141 113  86  71  70  52  57  35  31  36  22  39 149 156 151 151 149 149 151 153 153
 253 253 255 172  20  37  33  35  50  67  92 129 144 129 127 141 149 155 163 168 171 174 175 179 184 189 192 191 195 196 199 202 201 204 205 205 204 204 205 207 209 207 207 206 209 205 200 202 203 202 202 199 199 200 199 200 198 195 192 191 192 189 191 191 189 186 184 182 182 178 157 127 111  88  63  63  50  33  32  27  27  30  29 137 150 150 149 148 149 151 152 152
 253 252 255 199  29  32  33  42  53  68  95 130 143 130 127 138 148 156 163 167 170 174 177 182 186 189 191 192 194 197 199 202 204 202 205 204 201 203 205 207 207 207 207 209 209 207 204 202 200 200 198 200 199 199 198 197 197 197 193 191 191 189 189 190 188 185 184 182 175 168 154 128  93  85  66  48  49  34  33  30  27  24  30 132 151 147 147 147 150 152 151 152
 253 251 255 233  44  28  38  43  51  65  94 119 137 131 127 138 149 156 161 167 175 176 178 183 187 190 191 192 193 197 199 201 205 202 203 203 201 205 206 206 206 207 208 206 208 207 203 203 200 198 200 201 200 200 200 199 196 197 195 191 190 189 189 189 185 184 183 181 176 162 151 129 100  74  63  50  42  39  37  32  26  22  33 141 156 152 148 148 151 151 150 151
 252 252 255 221  72  30  36  40  50  67  85 111 135 134 129 136 149 158 163 169 174 176 180 184 187 190 192 194 196 198 201 201 203 203 202 205 204 202 203 206 206 204 205 202 203 200 200 200 200 201 197 201 201 202 202 200 198 197 195 192 190 190 192 189 185 184 182 181 180 176 162 144 118  82  60  45  38  37  41  37  31  18  46 147 154 154 151 150 150 150 150 150
 252 252 255 167  46  34  30  40  51  63  79 107 123 130 132 137 146 157 165 170 171 174 178 182 185 188 192 197 197 198 199 199 199 198 201 201 201 202 204 204 207 206 203 202 200 198 199 200 198 197 200 200 201 202 201 202 200 198 196 192 189 191 191 189 186 183 182 181 180 178 173 163 151 109  63  43  35  35  36  34  30  17  71 152 149 151 153 150 148 149 150 152
 252 252 255 134  20  29  32  40  43  54  74  93 112 129 132 136 146 158 165 168 171 175 177 181 183 188 192 195 195 196 197 198 198 198 201 202 203 203 203 204 205 205 205 202 202 203 202 204 202 202 205 204 205 205 202 201 201 199 196 192 190 190 189 188 185 180 179 178 178 178 173 171 165 151 101  50  34  35  37  35  32  20  86 153 146 149 151 149 148 150 152 154
 252 251 255 151  14  27  34  40  39  52  66  81 106 128 133 136 147 155 162 164 171 174 177 178 183 188 189 193 197 198 198 200 200 202 202 203 204 205 205 207 207 207 208 208 205 207 211 210 211 209 210 212 209 208 205 203 201 200 198 194 191 190 189 188 185 179 177 177 178 175 171 170 167 163 150  80  34  32  37  35  32  26  98 148 143 146 147 148 148 150 152 153
 252 252 254 178  26  49  37  33  39  45  60  74 104 128 137 140 148 154 161 165 170 173 176 180 186 188 189 197 198 198 201 202 203 205 205 204 204 205 205 204 207 208 209 211 214 213 213 216 218 219 218 218 212 211 209 206 206 203 199 196 193 191 188 185 183 178 174 176 177 173 160 169 166 159 156 127  48  28  35  34  32  35 119 144 142 143 144 147 147 148 150 150
 251 252 255 218  36  65  37  32  38  40  49  68  98 125 140 141 144 153 160 164 167 171 177 184 188 190 194 198 198 200 204 205 207 208 208 207 206 205 204 208 208 211 216 215 209 209 219 221 219 221 219 219 215 209 210 211 206 203 201 193 190 189 190 188 183 177 174 175 175 173 164 167 165 160 153 143  78  25  32  34  29  47 131 142 141 142 145 146 146 146 149 150
 252 253 254 253 105  36  35  33  34  36  41  59  87 122 140 143 146 152 157 164 168 172 178 183 186 194 197 196 200 203 207 209 212 214 213 214 218 216 212 216 219 220 222 221 214 218 220 220 222 224 221 214 213 214 205 199 196 196 188 179 168 153 157 176 186 178 172 175 172 168 169 168 165 159 154 145 100  37  30  35  32  49 131 138 137 142 145 145 144 144 147 149
 252 252 252 255 236  50  25  30  30  32  35  55  89 122 138 143 148 152 159 164 169 172 179 184 188 194 196 198 204 207 208 210 212 216 219 220 222 222 223 222 224 224 221 221 219 221 206 212 221 212 200 201 196 183 165 154 149 150 151 150 131 118 120 115 120 124 143 160 167 163 166 167 166 161 159 146 115  53  33  34  33  51 128 153 148 137 143 145 143 142 145 148
 252 252 252 252 255 162  21  28  31  29  35  56  93 122 136 141 146 153 158 165 169 175 182 185 190 194 197 200 205 208 208 210 214 214 216 216 220 216 218 220 221 221 214 215 215 217 195 191 200 172 148 140 109  93  81  86  84  84  81  84  88 100 104  86  70  89 119 132 159 158 160 166 167 163 159 149 127  69  36  33  34  66 139 193 197 175 144 142 142 142 144 146
 252 252 252 253 255 219  37  29  30  27  35  57  95 120 131 137 141 150 157 164 171 178 183 188 191 193 197 202 204 206 208 206 209 212 211 210 208 209 210 213 217 215 206 209 209 200 184 176 162 137 128  97  75  63  64  61  62  64  61  62  67  84  93  85  89 109 108  86 111 152 159 163 168 164 161 152 134  81  41  32  34 102 170 180 189 152 137 142 141 142 144 145
 251 252 252 251 254 243  63  24  27  25  37  70 103 122 128 131 137 146 155 163 174 183 185 192 194 190 194 204 208 209 211 206 204 203 208 205 204 205 206 208 211 210 212 208 208 195 175 167 131 124 127  71  63  59  62  76  85  89 105 130 137 140 138 129 120 121 113  90  78 116 152 166 167 166 162 158 141  85  45  32  31 127 196 198 141  90 135 143 142 143 144 144
 251 252 253 253 254 255 134  17  23  23  42  87 106 119 125 128 133 141 156 168 174 177 174 179 180 178 166 153 148 137 142 168 183 184 189 204 201 200 202 204 207 208 206 204 202 191 171 149 114 128 107  82  95 108 114 133 146 159 178 183 181 180 175 167 162 161 149 129 107  98 118 149 166 166 163 162 148  96  47  32  38 144 203 177 101 130 157 142 141 142 143 143
 251 251 252 253 253 255 193  23  24  22  49  93 107 115 122 125 128 142 148 141 135 119 118 115 106  94  69  61  65  76  85  89 118 136 148 189 197 195 198 201 203 205 204 203 198 182 165 144 127 130 127 131 141 145 156 168 177 178 177 178 175 173 170 167 166 166 159 148 135 131 141 156 169 169 168 165 154 112  52  37  44 147 190 121 118 151 168 140 139 140 140 141
 250 250 251 252 253 254 243  53  17  24  54  94 107 112 116 119 128 138 125  96  76  63  62  61  59  49  60  64  64  69  73  78  83  96 119 159 186 190 193 195 199 200 201 199 198 180 162 156 146 144 141 143 146 151 153 152 152 156 158 155 150 147 153 153 154 156 150 145 146 157 170 171 171 170 170 165 158 124  59  38  52 150 145 116 133 169 176 140 137 138 140 140
 250 253 250 252 252 253 255 126  11  24  54  96 108 112 114 117 118  99  77  74  73  57  49  44  50  50  53  51  53  61  62  70  90 101 116 149 172 183 184 189 194 198 199 195 191 182 170 157 146 140 140 142 125 105 109 131 149 161 159 149 138 118 110 123 138 143 140 135 146 165 176 177 174 171 170 165 158 139  69  41  81 148 147 157 146 188 180 138 135 139 140 140
 250 252 251 252 252 252 255 201  23  23  49  97 109 114 117 112  81  60  55  62  66  75  95 107 102  90  92  89  94  96  97  99 105 122 124 140 158 171 177 184 192 198 200 194 192 183 170 150 135 132 135 115 103 127 133 115 114 105 104 115 124 135 134 117 116 136 139 139 155 174 184 186 181 175 172 165 158 150  92  39 108 160 185 175 149 194 189 138 135 138 140 139
 250 250 251 251 252 252 255 230  49  23  44  97 111 114 117  90  56  50  65  86 104 119 138 154 161 156 155 154 150 148 145 138 130 127 129 131 142 159 167 178 190 200 208 202 194 185 169 143 133 135 127 121 134  98  55  38  62  67  30  37  55  68  83  98 109 118 128 140 164 184 190 191 187 178 172 166 158 153 114  53 115 182 200 182 153 191 192 140 136 137 139 140
 249 249 250 251 252 251 254 252  81  20  38  96 113 116 110  76  62  83 112 138 145 145 148 152 159 160 157 155 145 137 133 139 146 144 131 121 118 135 156 177 191 205 220 212 199 187 164 143 142 145 153 128  80  98  82  80  28  31  58  73 116  75  49  51  72 109 135 149 169 186 193 193 188 179 172 167 158 154 130  71 146 199 201 192 164 183 190 141 137 137 138 140
 249 249 250 252 252 252 255 246  93  25  32  93 116 114  98  69  78 107 127 141 147 145 145 140 132 135 143 162 163 154 139 117 107 122 135 129 111 111 135 171 191 199 212 207 199 191 170 155 167 190 139  84 102 158 131 104 103 104 108 130 139 133 130 144 142 152 166 177 188 196 195 195 189 181 174 166 158 153 140 107 149 186 200 199 179 175 187 139 135 137 138 139
 250 249 250 251 252 253 251 162  77  36  32  90 119 114  93  78  92 102 114 126 132 129 113  99 121 140 129 121 120 114 123 131 132 128 131 137 139 118 123 160 184 194 203 202 195 187 175 166 190 199 158 165 170 167 168 163 175 172 164 157 146 171 160 154 162 179 187 193 194 195 197 195 191 183 174 163 156 153 146 130 120 172 195 200 197 181 186 136 135 137 138 138
 249 250 250 250 251 254 245 122  84  46  32  88 117 116 109 100  96  94 102 115 114  96  88 116 109  72  41  29  42  63  51 100 109 110 130 155 166 145 127 149 176 190 196 197 192 184 175 169 182 195 203 201 184 168 170 170 166 158 158 160 150 150 150 166 190 200 204 201 200 197 195 192 189 182 171 160 154 150 146 147 138 162 181 193 203 186 173 134 135 137 138 139
 250 250 250 250 251 251 255 204  87  58  30  84 118 117 121 121 107  90  93 104 107 100 106  83  48  48  55  65  37  61  88 167 163 119  99 149 185 158 134 145 174 189 193 194 190 181 172 169 178 190 194 186 176 166 156 152 145 142 141 144 152 168 184 198 202 203 203 201 201 198 196 191 188 181 169 159 152 151 143 161 170 164 176 188 206 183 159 133 134 136 137 138
 250 250 250 250 250 251 254 238  78  53  32  79 118 119 126 133 130 113 100 108 114  98  66  40  56 110  87  91 101 115 129 166 168 170 191 193 176 152 138 149 173 187 190 196 189 184 177 172 178 182 189 196 199 196 189 183 179 179 180 187 194 199 202 203 204 204 204 199 198 195 196 192 188 177 163 158 149 150 140 156 196 186 182 189 207 177 147 131 135 136 137 139
 249 250 250 250 251 252 253 250  90  44  39  74 117 120 132 145 144 133 113 103  87  58  51  57  90 122 133 132 151 181 179 176 185 185 180 180 170 151 142 151 170 186 191 196 191 183 179 181 179 182 185 187 198 207 207 205 204 202 200 200 199 198 199 203 207 206 206 201 197 196 193 190 186 176 165 155 147 147 140 151 208 197 185 190 205 181 144 133 137 137 136 139
 249 249 250 250 250 250 252 255 129  51  43  72 114 122 137 155 155 147 131 122 106  85  90 116 127 123 136 152 158 163 161 164 171 177 183 183 166 152 146 151 167 183 190 194 187 181 182 182 182 185 189 188 187 194 200 204 206 202 201 198 198 199 200 202 204 204 202 201 198 195 191 188 183 174 163 155 145 146 139 136 199 198 180 185 202 179 144 134 137 138 139 141
 249 249 251 249 250 250 251 255 162  77  63  68 109 118 139 155 159 156 153 150 141 127 119 125 128 137 140 139 138 139 152 170 185 196 196 183 167 154 149 149 161 180 191 193 185 179 180 183 186 189 192 194 194 195 194 196 198 200 201 199 199 201 200 198 199 200 199 200 195 192 186 180 178 174 162 153 141 145 139 131 195 197 173 195 200 169 149 131 136 138 140 142
 249 249 250 249 250 250 250 255 172  93  81  72 104 114 136 155 164 165 165 167 165 159 149 142 135 135 136 141 153 167 179 191 202 203 189 179 167 162 154 144 156 182 193 192 185 179 176 181 186 190 195 199 203 203 205 203 200 199 201 202 201 199 198 199 199 200 201 199 193 189 183 179 174 169 155 149 138 141 137 133 190 185 173 197 176 175 154 129 134 137 138 140
 249 249 249 250 250 250 250 255 191  99  90  76  98 112 131 152 164 167 170 176 177 177 175 174 173 175 176 181 187 191 196 200 204 194 183 177 172 168 155 145 153 178 192 191 184 179 176 172 174 179 186 197 205 207 211 211 208 206 205 205 205 204 203 205 203 201 200 199 193 186 184 171 169 167 159 149 132 138 137 129 154 184 192 179 176 195 155 128 133 135 136 137
 249 249 249 250 250 250 250 254 222 109  98  83  95 108 126 148 161 166 173 177 178 179 179 184 187 188 189 191 194 196 201 199 195 188 182 178 174 163 151 146 157 180 193 191 187 181 175 167 159 165 172 182 192 196 202 206 210 213 213 212 211 212 210 208 203 202 199 195 192 183 181 174 167 166 158 149 136 138 136 123 163 200 200 187 188 192 159 128 133 134 135 137
 249 248 249 249 250 250 250 253 245 122 101  88  93 104 121 142 153 160 170 172 175 180 183 189 191 190 190 190 191 196 199 199 193 186 185 178 170 149 140 145 161 185 194 194 190 182 175 169 157 160 167 170 175 185 191 194 202 208 212 216 218 217 212 210 206 202 199 192 192 186 182 176 167 162 155 151 140 141 136 129 187 208 202 195 184 190 164 130 134 135 136 138
 247 248 249 250 250 250 250 250 255 153 108 102  94  98 113 135 149 154 161 169 174 178 184 187 189 188 188 191 195 196 198 199 192 190 191 180 161 139 136 146 160 180 193 196 188 182 177 175 165 164 172 169 162 174 185 182 190 200 208 212 215 217 214 210 205 201 197 193 189 186 182 177 166 161 158 147 139 140 134 125 179 201 200 199 180 186 167 130 135 137 137 137
 248 248 249 248 249 250 250 250 255 192 117 120  99  92 106 126 141 149 159 165 171 177 181 183 185 187 189 194 197 201 201 201 198 200 191 164 151 148 139 151 163 178 194 205 200 190 183 176 171 171 175 171 162 154 179 179 177 189 196 202 208 210 209 208 203 201 196 193 187 186 180 175 163 160 159 151 142 140 134 124 168 192 197 194 179 182 166 133 134 137 137 136
 248 249 249 249 250 250 250 250 253 222 122 119 101  88  97 118 135 145 155 162 168 172 177 181 185 188 190 196 200 204 205 206 206 203 182 143 153 155 146 154 167 180 196 220 227 196 178 171 175 179 174 173 160 151 188 186 172 172 183 191 195 200 201 202 199 197 193 188 185 182 178 172 165 158 158 153 144 142 131 126 165 190 196 190 178 177 154 131 134 137 138 139
 247 247 248 249 249 249 250 250 253 241 121 116 100  86  91 109 129 140 148 156 164 170 174 180 183 187 191 196 202 206 207 207 206 199 169 138 159 157 150 152 165 182 193 202 202 185 164 163 175 177 163 153 136 149 190 187 173 160 164 176 186 192 195 196 197 195 192 186 180 179 175 167 162 159 160 154 147 142 125 129 167 187 191 181 170 158 138 132 134 136 138 139
 246 247 248 248 249 249 249 249 251 253 123 104 114  87  88 103 121 133 143 150 159 170 172 177 184 190 191 197 204 206 207 201 197 189 155 133 158 157 154 149 150 174 187 186 184 170 153 143 112  80  69  88 109 157 178 189 186 175 154 151 166 178 187 193 194 192 189 186 182 176 172 164 161 162 164 155 146 140 123 131 172 185 180 166 144 132 131 133 133 136 137 137
 247 247 248 248 249 249 248 250 251 254 140  85 129  99  85  96 113 126 135 147 158 165 172 177 180 186 191 194 198 201 203 198 188 178 150 117 145 155 158 148 128 136 167 175 167 152 119  66  63  86  96 109 144 165 169 189 194 192 180 154 137 147 168 182 187 189 186 184 177 171 168 167 164 162 164 154 141 140 125 119 151 165 149 131 126 128 132 134 134 135 136 137
 247 247 247 248 248 248 248 250 251 255 146 107 132 109  82  91 106 119 128 143 157 162 166 173 180 184 190 193 197 198 197 189 179 169 153 105  95 101  91  88  85  94 122 140 136 119  90 106 128 140 141 153 157 162 166 177 182 188 187 178 160 131 127 154 179 182 183 183 176 171 169 171 171 164 163 158 145 138 120 113 121 127 125 127 129 128 132 134 135 135 137 137
 247 247 247 248 248 248 249 249 251 254 152 125 138 111  82  89 100 113 123 138 149 159 163 170 176 183 188 191 194 194 190 183 173 166 157 124  73  50  39  39  40  43  66  94  96  89 115 142 138 119 120 136 155 164 164 164 176 167 167 172 182 189 156 124 152 178 183 184 181 176 172 177 175 171 166 158 147 137 119 119 124 126 128 129 130 130 131 133 135 138 138 137
 246 246 246 247 248 248 248 248 249 254 158 125 141 113  85  89  98 108 120 129 138 152 160 166 174 182 186 189 189 188 183 175 168 171 169 151 123 101  84  85  87  71  55  63  79 107 147 157 141 137 124 136 154 165 163 158 166 171 166 166 177 181 190 168 125 162 184 188 187 180 180 184 177 173 164 158 149 136 118 121 125 127 128 129 130 130 132 133 134 136 138 138
 246 246 246 247 248 248 248 248 249 252 143 110 131 115  88  88  96 106 114 122 132 145 155 165 175 179 184 185 184 183 176 170 172 174 168 155 146 131 117 115 127 121 102  98 131 153 143 164 160 159 142 159 173 172 181 179 175 170 167 165 172 163 163 172 149 150 187 190 185 184 185 186 182 173 171 161 148 134 115 121 125 127 129 130 130 130 132 134 134 134 137 139
 245 246 247 247 247 248 248 248 250 252 129 105 126 115  87  87  95 106 110 117 128 139 152 163 171 177 180 181 179 174 167 166 170 169 164 140 140 122 122 144 158 139 128 123 165 170 140 128 186 183 176 180 177 178 166 159 166 156 161 158 150 142 142 150 174 169 188 193 187 186 187 187 184 178 171 159 145 129 114 121 124 127 130 130 130 131 132 133 134 134 137 140
 245 247 246 247 247 247 247 248 249 254 166  85 117 113  91  86  95 102 109 113 119 133 147 161 168 176 176 175 171 161 159 167 165 158 160 141 134 132 132 153 158 146 152 179 175 183 191 168 176 178 166 160 153 151 142 127 112  93  84  75  74 109 153 147 176 186 200 198 192 186 185 186 184 177 169 155 141 123 112 121 124 126 127 130 130 132 133 133 133 135 136 137
 245 246 246 247 247 247 247 248 247 251 242 124  78  82  70  76  95 102 108 111 115 125 143 157 163 172 174 169 160 151 169 174 162 140 151 152 146 152 162 171 175 167 172 182 180 180 183 175 163 163 162 153 135 123 108 111  87  69  31  44 124 163 188 174 185 197 206 197 189 186 185 181 180 178 166 151 137 118 112 124 125 128 126 128 129 131 134 134 135 136 137 138
 245 246 246 246 247 247 247 247 248 248 253 247 186 154 162 140  84 101 110 111 114 120 136 151 161 168 170 166 154 166 186 166 153 138 146 156 161 162 154 156 152 154 147 143 145 147 147 144 136 138 146 129 156 160 139 199 147 122 100 153 202 201 198 192 192 205 206 195 185 183 181 179 181 175 158 144 133 114 117 128 127 129 128 127 130 132 134 136 135 136 138 139
 244 244 245 246 246 247 247 246 248 248 248 251 255 255 255 217  84 101 110 113 118 120 134 151 161 169 173 170 161 171 172 156 143 133 141 143 124 114 109 111 118 113 124 136 125 121 139 163 146 167 216 193 225 211 195 190 145 136 162 199 201 201 204 195 200 210 206 195 185 180 175 176 177 168 152 144 131 111 119 124 127 128 129 129 132 135 134 136 135 136 138 140
 244 245 245 246 246 246 245 247 248 248 248 248 249 249 252 242 100  93 110 115 118 125 135 147 163 176 184 181 170 169 160 150 138 120 102  74  70  73 108 109 151 160 181 220 222 200 232 252 222 226 245 217 192 176 148 132 138 156 192 204 203 204 208 199 205 210 202 195 186 179 176 176 173 159 154 143 125 107 118 124 126 128 129 129 131 133 134 137 136 136 137 139
 243 244 245 244 245 245 246 247 247 247 247 248 248 248 249 254 135  80 108 119 122 129 136 148 163 178 190 191 180 172 141 131 115  83  33  44 107 128 174 194 209 225 222 230 237 230 233 235 225 214 215 167 141 147 146 139 152 186 201 203 201 203 206 210 210 209 198 186 176 177 179 179 170 163 153 136 115 105 122 125 127 128 131 131 132 133 135 135 135 135 136 138
 244 243 244 244 245 245 246 246 246 246 247 247 247 248 248 254 184  71 101 117 124 128 132 144 160 175 190 199 190 161 146 159 160 150 113 106 130 141 163 167 185 195 198 220 220 205 211 213 194 146 146 152 157 147 142 156 185 199 200 204 205 202 199 203 213 205 192 179 176 179 182 180 172 161 147 129 108 110 124 125 126 127 130 129 131 133 135 135 134 135 138 139
 243 243 244 244 245 245 245 246 246 247 247 247 247 248 248 254 228  82  92 110 121 127 131 140 157 173 188 201 190 162 177 189 185 173 150 131 126 126 131 129 131 131 142 155 166 156 159 161 156 162 165 164 153 146 164 189 197 198 201 203 205 202 187 200 207 197 185 175 177 180 178 178 172 154 138 115 100 121 122 125 127 127 128 129 129 132 135 136 136 136 139 140
 243 244 245 245 245 245 245 246 247 247 247 248 247 248 248 250 254 122  76 104 120 125 128 136 150 168 185 197 195 172 183 183 182 173 164 140 129 126 133 141 151 149 150 149 164 165 170 174 179 180 169 156 159 177 193 200 195 195 196 203 203 200 192 196 202 191 180 176 178 180 179 177 167 148 127 103 101 125 123 124 126 127 128 127 128 132 136 136 135 135 138 139
 243 243 244 245 245 245 246 246 246 247 247 247 247 248 248 249 255 183  63  98 112 126 130 130 141 160 179 190 193 185 182 176 182 173 166 163 151 133 130 134 146 159 164 171 175 181 176 178 180 175 172 176 192 202 194 191 197 199 200 203 201 192 194 195 195 185 176 178 179 177 180 174 159 140 116  91 111 127 124 124 125 127 127 128 130 132 135 136 134 135 136 139
 243 243 244 245 245 245 246 246 246 246 247 247 247 247 248 249 252 240  85  82 107 122 134 128 133 148 166 184 192 192 181 182 184 180 172 169 168 164 151 143 136 140 146 160 169 179 183 180 181 190 197 202 201 200 193 187 197 200 204 198 186 188 189 190 189 179 178 179 183 182 179 169 148 131 101  90 123 126 123 123 125 126 129 130 131 133 134 135 134 135 136 138
 243 243 243 243 244 245 245 245 246 246 246 246 246 247 248 248 248 255 151  60  97 113 132 134 130 136 155 175 188 188 186 185 179 178 178 171 172 178 178 174 166 160 163 171 180 183 188 191 197 200 201 200 192 190 189 188 196 199 198 192 168 188 190 183 182 173 177 179 183 181 177 161 137 112  88  99 132 124 122 123 124 127 128 130 132 134 135 134 135 136 138 139
 243 242 243 243 243 244 243 243 244 245 245 246 245 246 247 247 247 252 233  76  79 102 120 136 132 128 139 158 179 190 186 169 164 174 176 169 168 170 176 178 179 185 187 188 188 188 182 181 184 185 189 179 181 184 186 183 194 200 197 190 187 192 192 180 174 170 178 182 178 175 163 144 122  96  81 109 133 125 124 124 125 126 128 131 131 133 133 133 135 136 138 138
 243 244 243 243 243 243 243 243 244 244 245 245 245 246 246 246 247 247 255 156  56  94 113 126 137 133 127 139 160 183 185 176 169 169 173 174 170 164 171 167 172 177 169 168 169 171 161 157 165 164 184 179 172 182 192 195 196 194 192 185 186 190 188 178 168 169 180 175 168 162 146 129 104  82  85 120 133 125 125 125 126 128 130 131 130 132 133 133 134 135 136 137
 243 244 243 243 243 243 244 244 244 246 246 246 246 247 247 247 248 249 252 240  84  75 102 120 133 140 132 127 139 157 166 175 162 154 171 176 176 173 165 161 165 170 161 149 154 156 153 145 160 166 173 194 195 192 199 200 197 197 196 187 184 184 175 163 164 172 178 174 167 150 131 109  84  82  97 124 131 123 124 124 126 129 129 130 131 132 133 134 134 135 136 137
 243 243 244 244 243 243 244 245 245 246 246 246 246 247 247 248 248 249 249 255 177  52  85 109 129 141 140 128 125 145 165 168 163 164 165 172 183 179 175 178 179 180 170 154 157 160 151 154 161 187 181 192 199 203 202 204 200 195 199 180 181 181 165 157 157 168 172 170 157 136 113  89  81  92 104 128 133 124 122 122 126 126 127 128 131 131 132 133 134 135 137 136
 242 243 243 243 243 243 243 244 245 246 246 246 247 246 247 249 248 249 248 250 252 108  58  95 119 134 139 136 118 122 144 168 177 169 160 176 184 184 188 187 183 186 186 174 173 181 182 174 187 202 198 195 205 207 206 199 201 194 196 175 177 178 154 159 154 158 166 150 134 118  92  81  89 103 109 127 129 125 122 122 123 125 126 127 130 131 132 134 134 134 135 136
 242 243 243 243 243 243 243 244 244 245 246 246 247 246 247 248 248 248 249 248 254 220  62  73  99 120 132 134 125 112 120 149 164 159 165 172 178 190 191 192 180 188 189 195 205 206 205 203 210 200 186 189 211 209 205 197 202 197 180 182 177 149 138 149 146 144 140 131 116  97  83  87 101 110 116 129 127 125 125 123 124 126 127 130 130 131 131 132 132 134 135 134
 244 243 243 243 244 243 244 244 244 245 245 246 246 246 246 247 247 248 249 249 250 255 142  49  81 104 119 127 135 115 105 124 142 156 160 161 176 182 187 193 192 191 187 200 208 203 206 200 194 206 182 191 215 206 198 205 201 187 177 180 164 134 126 133 131 128 116 113  99  83  84  98 111 114 119 129 126 125 126 126 126 128 127 127 130 130 130 132 132 133 135 134
 243 243 243 243 243 243 244 244 244 245 245 246 246 246 246 247 246 248 249 248 249 254 222  66  64  86 100 116 128 126 107  98 120 150 156 154 170 179 193 193 202 197 182 193 196 197 196 194 185 205 205 200 204 198 193 203 185 179 163 171 131 121 114 119 131 118 112 101  86  83  94 109 117 118 124 131 126 126 127 127 127 128 128 127 129 130 130 132 133 133 134 134
 243 243 243 243 243 243 244 244 245 245 245 246 246 246 247 247 247 249 248 249 249 250 254 114  54  66  79  97 113 115 111  93  98 118 130 143 159 167 186 187 197 197 188 200 193 196 191 201 202 203 186 187 194 201 194 188 183 172 147 125  91 100 106 118 120 104  97  87  81  91 109 118 122 124 126 131 127 125 126 126 126 126 127 127 128 129 129 131 132 133 133 133
 242 243 243 243 242 243 244 244 245 245 245 246 246 246 247 247 248 248 249 249 249 250 255 171  51  63  64  76  90 100 106 110  96  80  93 135 147 153 172 174 192 194 188 196 200 205 203 200 190 180 186 202 200 196 191 185 178 160 130  82  83  95 108 105  99  97  82  83  89 109 119 125 126 129 130 131 126 122 123 122 123 125 125 127 128 129 129 130 131 131 131 132
 243 243 243 243 243 244 244 245 245 245 245 246 246 246 247 247 248 248 249 249 249 250 254 219  65  62  64  64  77  92 102 109  88  72  76  97 121 150 161 157 181 193 194 192 191 196 192 185 179 190 184 181 183 188 187 171 143 122  85  68  73  93  95  93  93  87  75  89 106 120 127 130 132 136 132 133 125 121 121 120 121 123 124 125 126 127 129 131 132 131 131 132
 243 243 243 243 244 244 244 245 245 245 246 246 246 246 247 246 248 248 248 248 248 250 252 250 100  58  66  65  66  76  86  86  80  70  64  71  90 113 137 156 172 170 194 195 181 183 176 183 187 188 174 169 178 178 159 134 116  79  57  73  78  90  87  85  88  83  82 100 119 126 131 134 141 138 140 135 123 121 120 119 120 122 124 125 125 127 128 129 132 133 133 132
 243 243 243 243 245 244 244 244 244 245 245 246 246 247 247 247 247 248 248 249 249 250 249 255 153  55  68  66  67  69  72  77  85  74  63  57  52  73 110 134 143 148 168 169 149 166 173 187 187 179 168 159 147 131 118 104  74  52  62  84  80  90  88  83  79  79  89 116 126 134 139 143 145 148 152 146 126 119 119 118 120 121 123 124 125 126 128 128 130 133 133 133
 243 243 243 243 244 244 244 245 245 245 246 246 247 247 248 247 248 248 249 249 250 249 254 249 121  66  72  70  69  72  72  72  79  81  76  62  53  60  66 100 116 121 135 140 136 154 168 159 150 134 130 119 118  96  86  70  70  73  76  90  82  81  83  77  81  90 111 128 135 140 146 151 158 166 155 165 174 113 121 119 121 123 122 123 125 127 127 128 129 131 133 133
 243 243 244 244 244 244 244 245 245 245 246 246 247 247 247 247 248 248 248 248 250 255 236  85  89  93  72  75  75  73  76  81  80  76  79  73  63  59  59  74  77  92 104 104 110 119 126 109  90  88  90  77  78  70  60  72  87  86  85  86  83  77  78  82  93 114 129 136 140 146 156 162 175 168 156 159 220  90 116 122 121 123 124 124 125 127 127 129 129 131 132 133
 243 244 244 245 245 245 245 245 246 246 246 246 247 247 247 248 248 249 249 249 255 225  69   6 144 115  76  79  78  78  76  78  79  75  78  78  70  71  75  64  61  81  74  75  77  76  77  62  61  68  69  68  61  62  70  86  90  82  87  85  84  82  84  98 120 131 136 141 150 158 167 180 178 166 157 153 249 118  47 125 121 122 124 124 124 124 125 127 131 130 131 132
 244 244 244 245 245 245 245 245 246 246 247 247 247 247 247 248 248 249 248 255 226  64  21  18 166 162  93  95  86  83  81  79  80  83  79  78  79  81  82  78  69  72  69  65  72  70  63  65  67  70  73  79  76  79  83  85  85  86  83  81  82  93 108 121 130 137 145 152 159 169 183 182 176 172 161 158 245 189  15  78 126 121 123 122 122 122 122 125 129 129 129 132
 244 244 245 245 245 245 245 246 247 246 247 247 247 247 248 248 248 248 255 224  64  25  32  29 177 200 124 117 113  97  86  84  82  81  81  81  80  74  76  80  78  73  75  82  78  75  72  75  79  83  87  84  83  84  82  80  85  83  85  93  98 112 129 134 140 147 152 159 175 185 185 182 181 174 165 163 238 222  41  26  93 126 121 121 121 121 122 123 127 127 129 131
 244 245 245 245 246 246 245 246 246 246 247 247 247 247 248 248 248 255 221  62  22  37  20  72 186 208 169 130 135 125 109  96  91  88  85  85  81  75  77  82  83  77  78  78  76  73  75  85  90  88  86  83  82  85  82  85  92  93 104 119 127 130 137 142 147 150 163 180 186 185 184 186 184 177 168 169 231 225  46  25  38 111 124 121 122 121 122 124 126 127 129 130
 245 245 244 245 246 246 246 246 246 247 247 247 247 248 248 249 252 216  61  24  37  35  14 123 188 188 217 159 150 146 139 125 110  97  94  89  86  85  84  84  79  74  71  76  75  77  82  87  85  83  83  81  86  94  96 104 113 123 133 140 140 140 143 149 154 167 181 187 188 188 189 189 185 179 175 167 230 224  50  26  27  53 118 122 120 123 123 124 126 128 128 129
