P2
# Generated by OpenCV 4.2.0
92 112
255
  87  84  85  88  89  88  85  86  86  86  86  88  86  85  87  86  85  85  84  80  87  93  51  10   9  12   9   7   9   9  11   9  11  12  13  17  18  19  23  24  23  26  29  15  13  15  18  23  34  23  43  48  72  42  35  50  36  30  32  42  38  65 131  58  54  21  85 189 183 182 187 184 183 183 183 182 182 183 184 184 184 184 181 185 184 182 181 183 184 183 185 183
  87  86  86  87  88  87  86  85  85  87  87  87  86  86  87  85  85  85  85  86  75  32  11  11   8   8   9   9   9   9  11  10  11  12  14  19  20  26  28  31  34  31  32  35  24  16  17  22  41  41  36  61  87  85  47  52  61  41  33  40  57  62 126 149  45  24  49 164 186 184 184 186 185 184 184 184 184 185 185 184 188 187 184 186 184 184 184 185 184 183 183 183
  86  84  84  84  86  85  87  85  85  87  87  87  86  88  85  84  87  86  90  75  18   5  12  12  10  10   9   9   8   9   8   8   9  11  14  17  20  24  39  45  52  47  45  51  58  33  22  22  31  58  49  57  96 112  77  53  76  66  54  44  67  90  91 105  32  26  32  61 155 185 188 190 187 185 185 188 188 187 187 185 186 187 187 188 186 186 186 185 182 182 181 182
  83  86  85  83  85  85  86  86  86  87  87  87  85  87  86  83  84  88  91  41   5  10   9   9   9  11  11  12  11  11  11  11  11  11   9  10  16  18  26  42  66  57  54  53  63  55  41  37  24  51  69  54  87 107  80  67  82  74  71  70  69 105  95  42  20  28  39  30  76 158 165 183 192 185 188 189 190 188 188 186 188 187 186 187 188 187 186 185 184 184 184 185
  86  87  86  84  83  85  86  85  86  86  87  85  86  87  84  88  81  62  51  20   8   9   8   8   9  11  11  15  14  15  13  11  14  22  27  19  12  12  20  28  46  86  70  52  44  44  48  66  51  47  78  69  73 115  70  61  89  69  65 102 103  80 105  81  42  29  44  45  50 141 143 139 143 192 189 188 188 188 189 190 190 188 187 187 187 186 187 187 186 184 184 186
  85  86  87  86  83  85  86  85  86  87  87  85  84  88  87  60  23   8   4   7   7   7  10  10  10  11  15  29  39  38  30  17  16  21  29  40  42  20  16  24  42  65  94  80  40  32  37  69  91  75  79  98  80  85  81  47  80  85  48  86 129  73  68 113  84  55  54  53  42 107  80  79  81 134 192 188 185 187 189 187 188 191 189 187 186 187 186 186 187 185 185 186
  85  86  86  86  85  86  86  86  86  86  88  88  90  83  38   8   9  11  11  11   9   9  10  11  12  12  16  36  35  26  31  24  13  13  17  26  42  43  26  15  30  53  99 110  83  46  29  53  92 107  92 105  89  56  62  54  42  88  50  60 120  88  35  92 117  88  71  57  46  29  58  94  88  62 157 193 186 188 189 188 188 187 189 187 188 187 188 187 185 186 187 187
  84  85  85  85  85  87  86  86  85  85  86  89  89  36  14  26  12  10  10  11  11  11  13  15  17  19  21  33  39  38  37  40  33  22   9  12  21  42  45  37  21  26  66 108  94  78  47  40  76  93  87  90  88  70  37  46  27  50  50  58  89  83  31  60 123 115  94  76  58  22  52  70  47  41 127 194 190 190 190 190 190 188 188 187 187 190 188 189 188 187 187 187
  83  83  85  86  85  86  86  87  86  85  86  81  43   9  16  14  10  10  10  11  13  12  14  14  13  16  16  18  22  24  28  45  51  53  53  30  16  15  29  41  37  30  37  85 113  75  62  36  56  78  76  74  66  71  52  31  38  28  38  54  72  68  36  42 102 119 119 112  88  37  35  45  49  34 148 189 191 189 190 188 189 189 190 189 187 188 190 190 190 188 186 186
  87  82  86  87  85  85  84  86  86  86  89  39   6   9  10   9   9   9   8   9  11  11  10  11  11  11  12  14  15  13  14  15  16  25  38  38  38  38  35  41  44  43  49  46  89  91  66  52  50  59  67  54  66  42  61  31  32  26  26  40  63  55  37  35  80 110 118 119  96  64  60  43  37  54 133 166 193 189 190 190 189 190 189 189 189 188 189 188 189 188 186 186
  87  86  84  85  85  85  85  85  85  88  70  18   8   9   9   9   9   9   8  11  16  21  23  16  14  14  15  18  17  16  18  20  25  29  33  44  51  64  69  55  61  85  61  42  34  72  67  50  54  56  56  52  55  39  39  41  37  31  22  31  47  39  37  33  57  84  85  93  87  86  73  52  37  92 130 109 172 193 196 191 189 189 190 189 189 187 188 189 188 189 189 188
  85  85  86  85  85  85  86  87  87  77  24   8  10  10   9   9   9   8   9  10  10  12  17  16  14  16  16  18  21  30  37  44  44  45  42  33  34  50  72  71  61  73  78  64  45  32  57  57  47  51  44  51  49  42  30  36  45  47  38  37  39  33  35  32  49  55  59  64  77  93  74  56  68 120 124 100  88 126 145 193 192 191 191 189 190 190 190 190 189 191 192 189
  87  87  86  87  87  85  86  86  89  48  10   8   9   9   9  10   9   8   9  10  11  12  13  16  16  18  18  20  27  34  43  49  59  60  60  56  45  32  40  61  67  61  72  62  64  58  42  48  49  41  43  49  50  37  32  34  34  42  33  44  43  34  34  34  46  46  55  48  67  72  74  67  77 121 143 144 105 150 115 161 198 191 192 192 192 191 189 190 190 190 192 190
  89  88  86  86  86  85  85  92  83  31   7   7   7   9   9   9  10  11   9   8  11  17  17  14  14  14  17  19  27  37  52  58  58  64  62  57  53  44  40  32  41  58  73  66  53  64  67  54  48  46  42  40  48  43  38  45  41  45  47  43  50  51  42  40  48  47  52  50  57  55  64  69  62  77 110  97 143 174 150 180 196 194 193 192 193 190 189 190 190 190 192 190
  86  88  87  85  85  84  87  75  47  21   6   9   9  10  10   9  11  14  18  25  27  26  23  23  19  20  24  29  33  37  40  40  40  38  44  47  54  58  64  66  66  56  56  69  64  56  72  66  53  50  51  52  51  53  55  64  66  73  82  75  63  62  66  56  54  54  55  47  54  69  78  79  78  68  55  51  71 105 177 200 197 196 195 195 195 194 194 192 195 192 190 190
  85  86  87  86  85  85  83  43  31  16  10  11  10  10  12  17  19  14  20  30  29  40  40  26  17  19  17  19  17  20  20  23  34  41  48  45  48  61  73  79  80  78  67  59  64  66  66  68  65  70  66  65  77  83  83 103 117 120 120 119 107  94  87  82  75  69  60  52  57  62  78  80  75  76  63  45  32  47  64 152 202 195 197 197 194 195 195 194 195 194 191 190
  87  87  85  87  86  87  84  86  68  12  10  10   9   8   9  14  18  13   9   8  11  11  11  12  14  14  16  18  20  24  27  38  50  54  63  66  77  85  76  76  85  92  87  85  76  76  84  89  94  95 104 104 109 127 136 147 168 171 165 166 160 138 128 118 104 107 100  70  68  76  81  80  80  81  75  62  46  28  47 150 202 195 196 197 196 196 197 193 192 194 195 192
  87  87  86  86  87  88  90  78  36   9   9   9   8   8  10  11  12  13  12  12  14  13  13  13  14  15  17  18  25  43  50  50  52  57  57  64  74  79  86  93 103 106 106 103 110 114 115 126 139 149 160 173 165 165 178 188 196 199 200 195 189 180 176 156 145 141 131 121  96  77  81  87  90  85  83  72  56  43  43 108 181 190 197 197 197 197 196 197 196 195 196 193
  87  87  86  86  87  89  77  21  10   9   9  10  10  10  11  10   9  11  11  10  13  13  11  12  13  14  16  25  54  63  60  65  69  80  95  98 104 113 125 141 158 152 154 161 160 165 168 172 173 187 193 192 200 196 196 203 204 204 202 203 200 198 191 182 174 165 160 160 151 113  86  97 120 105  83  74  69  59  48  46 129 168 192 195 197 194 195 197 196 197 196 192
  83  86  86  85  87  93  42   8  16   9   9  11  12  11  11  12  12  13  10  11  13  13  13  13  16  20  23  47  67  79  98 107 119 133 145 159 170 179 185 190 191 186 189 191 194 194 195 190 193 202 205 204 205 207 204 202 201 200 199 198 198 198 193 194 192 186 179 173 173 166 122 101 131 114 106  96  89  70  59  41  39 148 203 197 198 198 194 198 197 195 193 192
  86  86  86  87  88  89  28  24  18  13  11  10  12  13  13  12  15  20  16  17  17  16  16  16  18  21  41  70  99 127 140 149 161 170 174 181 188 193 195 193 192 192 193 195 196 197 196 194 196 201 204 204 204 204 201 201 201 198 197 198 197 195 193 195 193 189 185 181 183 179 169 117 117 135 110 105  96  74  65  55  33  50 164 204 199 199 197 199 199 194 192 193
  90  86  86  89  92  82  24  20  15  12  12  12  12  13  14  13  14  16  16  16  15  16  17  19  20  31  73 114 145 154 157 163 169 176 179 184 187 188 188 190 194 197 193 193 195 196 197 198 199 202 201 200 200 201 199 197 198 197 196 194 193 192 192 192 192 190 189 187 183 180 180 160 107 118 126 101  93  72  45  35  38  22  88 205 198 195 198 199 199 197 195 193
  90  87  87  88  89  86  26  21  17  11  11  11  12  13  13  13  13  13  14  15  15  15  19  22  24  54 119 154 153 152 156 164 173 179 184 188 189 191 191 193 197 193 193 194 194 196 198 199 201 200 201 200 198 199 199 199 198 198 197 195 194 192 192 192 193 191 189 188 185 183 182 179 146  98 104 113  98  88  70  41  23  35  86 193 200 197 196 198 201 199 197 193
  86  87  89  86  86  88  34  15  13  10  10  10  11  13  13  15  16  13  16  18  17  18  16  26  41  96 153 150 144 149 159 170 177 182 184 188 189 191 190 194 195 196 197 195 195 199 200 203 204 202 203 203 203 201 201 200 198 197 197 196 194 194 193 192 192 192 191 188 188 184 181 182 177 130  93 103 107  82  68  62  51  74 167 206 197 199 200 198 201 200 197 194
  85  86  89  86  87  91  40  14  11  11  11  11  11  14  16  19  26  28  21  24  22  25  36  54  74 135 149 142 146 153 164 174 179 182 187 188 190 189 191 194 196 197 198 198 200 202 202 204 205 206 207 206 206 204 204 201 199 197 197 197 194 194 193 193 192 191 189 190 189 186 185 183 180 168 110  91 102  92  71  60  58  51 118 213 198 199 200 199 201 199 198 196
  88  86  89  89  87  90  41  25  15  13  12  11  11  15  16  17  23  27  23  26  30  47  64  73 115 152 144 143 151 158 167 175 181 186 188 189 189 190 195 194 194 194 198 198 201 202 202 203 204 206 208 210 207 208 207 205 202 200 199 197 195 193 192 192 192 190 191 192 189 188 185 182 180 176 153  93 101 102  85  69  58  43  44 125 202 202 201 200 200 200 200 199
  88  87  85  86  87  89  41  24  18  12  12  13  13  15  22  23  24  23  28  45  69  86  89 111 142 145 144 151 154 163 171 176 182 184 186 186 188 189 191 193 197 198 202 204 203 203 206 204 204 208 208 210 208 207 208 205 203 202 198 196 196 196 196 194 193 194 194 192 188 188 186 184 182 179 175 127  91 115 100  82  64  51  46  74 184 207 201 201 202 200 199 199
  90  89  86  88  89  89  53  25  16  14  13  13  15  19  23  26  28  40  57  88 111 112 115 130 136 141 146 151 156 163 171 175 179 181 186 187 190 193 196 198 201 204 205 206 206 205 207 209 210 210 210 210 208 208 207 208 206 204 203 201 201 198 197 199 196 195 194 193 189 188 186 184 183 178 176 163 108 102 125  95  75  55  51  34 155 208 199 201 200 200 198 198
  86  87  89  88  88  85  66  23  16  15  15  14  17  19  23  35  54  72  86 116 125 120 123 129 134 141 148 153 162 164 169 175 177 182 186 189 194 195 198 201 203 204 205 205 206 206 208 209 211 211 211 211 210 210 210 208 208 206 206 205 203 202 199 198 195 194 195 193 191 187 187 185 183 181 176 170 140 100 120 115  84  67  53  28 149 209 201 199 199 201 200 197
  88  87  87  87  89  85  43  14  14  12  14  16  18  20  26  43  61  80 105 131 135 125 122 122 133 141 150 156 163 166 170 175 178 179 186 191 194 195 198 204 207 208 207 207 210 210 210 208 211 212 211 211 210 208 209 210 208 207 206 207 205 204 200 196 198 199 197 191 193 190 188 185 183 181 177 172 161 131 115 118  96  68  50  35 139 217 206 204 203 203 204 202
  89  89  89  89  88  85  28  11  10  12  14  18  20  21  28  44  62  89 114 132 137 127 119 123 136 145 150 157 163 169 171 174 179 183 188 191 194 195 198 204 205 206 206 208 209 210 211 211 212 212 212 213 211 212 212 210 209 211 210 209 207 205 202 201 200 199 197 195 194 192 186 186 185 182 176 173 171 147 123 116  96  63  44  31  49 183 213 204 202 204 200 201
  89  88  88  89  86  79  40  12  14  15  16  18  20  22  35  48  68  96 122 135 139 130 123 127 136 144 151 158 165 173 177 178 181 183 187 191 194 196 202 203 206 206 206 209 210 211 212 212 213 212 213 215 214 213 213 212 212 213 211 212 208 208 206 203 201 201 198 196 194 190 188 188 186 181 176 173 167 155 133 128  94  66  46  37  17  98 219 203 202 204 202 202
  90  88  87  88  83  66  35  12  16  14  16  18  19  25  36  48  69  96 116 133 137 128 127 129 135 146 156 163 167 175 177 178 181 184 189 193 197 199 201 203 206 207 208 210 212 212 211 212 212 212 214 215 213 213 214 213 212 211 211 210 208 207 206 206 203 201 201 199 195 192 190 188 186 181 176 174 167 156 145 128 108  69  51  44  30 133 217 205 205 206 203 203
  88  87  87  86  76  63  27  12  16  15  15  16  18  28  38  49  70  87 111 129 130 130 129 126 132 147 160 165 169 175 180 182 184 187 192 196 198 199 201 202 205 206 206 208 209 211 210 210 211 211 213 213 214 214 212 212 211 212 208 207 207 205 207 206 205 203 202 200 197 195 193 187 187 183 177 174 169 157 143 125 119  92  55  46  50 196 210 205 205 207 208 205
  86  86  86  87  77  62  27  13  13  14  16  19  24  31  33  42  69  89 102 114 126 131 134 128 134 149 156 165 173 176 180 183 185 188 191 195 197 199 200 201 203 206 207 208 208 209 212 212 211 213 212 212 212 212 212 212 211 208 207 205 205 205 204 202 204 204 202 201 199 197 195 189 186 182 177 176 172 158 146 127 102  92  73  51  33 154 219 206 204 206 209 205
  87  87  87  88  80  62  30  12  11  15  17  17  22  27  32  48  67  76  84 102 117 131 135 134 137 150 157 168 174 175 176 181 184 186 189 194 196 199 200 202 206 206 206 208 208 208 210 213 214 214 215 215 213 211 211 213 211 207 206 206 206 206 204 203 203 202 203 202 198 197 195 192 189 183 176 174 175 156 137 124 109  87  80  57  31 108 224 209 206 207 209 207
  89  86  85  86  82  63  33  12  13  17  15  16  21  26  34  49  53  67  73  99 121 129 139 135 138 151 162 169 171 173 174 180 181 184 186 191 194 198 202 202 205 206 205 209 210 208 211 214 214 212 215 214 214 213 212 213 213 210 207 207 207 204 205 205 204 202 203 202 198 196 196 193 191 183 177 174 176 160 129 113 112  86  70  59  35  80 217 209 207 207 208 208
  90  86  89  89  82  64  32  13  17  16  15  17  22  25  31  39  48  57  67  90 110 135 140 139 143 156 164 166 169 172 174 179 181 183 185 191 196 198 201 202 202 203 205 206 209 209 213 213 213 214 215 214 213 213 212 213 211 209 208 209 209 207 207 207 207 206 203 201 199 197 196 194 190 184 178 177 172 160 133 106 102  89  69  61  35  70 213 211 209 208 207 206
  89  87  88  88  80  65  32  12  16  16  17  17  21  25  27  33  44  43  60  81 108 129 141 143 149 157 160 167 169 171 174 177 180 183 190 194 197 199 203 204 203 205 209 210 211 212 213 215 214 215 214 214 213 213 212 214 213 210 208 208 209 208 207 208 208 208 205 202 200 198 194 192 191 184 179 176 173 158 132 103  91  88  63  58  35  68 210 210 210 209 210 208
  88  86  86  87  82  68  32  12  14  15  16  16  19  22  22  30  33  39  57  76  97 121 139 148 151 153 162 164 168 171 173 174 184 187 192 194 200 204 207 207 207 210 212 212 214 214 213 214 216 216 216 216 217 217 216 213 213 213 212 208 207 209 210 212 211 211 208 204 200 197 195 193 190 183 179 174 169 153 127  98  83  87  61  52  36  78 209 212 211 211 210 208
  89  87  87  88  86  72  29  12  14  15  15  16  17  18  22  24  26  37  54  79 108 131 143 151 152 155 163 164 167 171 174 178 184 188 192 195 202 207 206 209 209 212 214 216 216 216 215 215 215 215 215 216 218 218 216 215 215 214 214 213 213 213 213 213 212 212 211 207 202 197 195 195 189 183 180 179 171 154 123  89  77  92  60  44  31 110 219 211 211 213 214 211
  87  88  88  88  87  73  32  12  14  13  13  15  17  18  20  21  24  39  67  95 119 135 144 151 151 154 162 165 170 173 175 180 186 192 194 200 204 208 209 212 214 215 217 218 219 218 218 219 216 217 218 219 217 220 218 218 217 216 216 216 215 214 216 216 215 213 213 210 204 199 197 193 190 183 179 179 176 161 123  88  72  87  62  44  33 133 224 211 211 210 212 212
  88  88  87  88  80  63  34  14  14  14  13  14  16  17  19  19  25  40  68 103 125 137 146 148 147 153 159 163 170 173 179 186 192 196 201 203 204 208 212 213 217 218 218 218 220 220 221 222 220 218 220 221 220 221 221 220 217 217 220 217 217 216 217 217 218 216 214 211 206 199 197 192 189 182 176 176 174 168 128  81  70  80  59  35  50 167 223 213 214 212 213 212
  87  88  87  87  80  65  37  15  15  14  12  13  15  17  17  17  30  65  97 114 129 140 143 142 143 152 156 165 171 174 186 192 195 200 203 206 207 210 216 217 217 217 219 220 221 223 222 222 221 221 222 220 222 222 222 223 221 221 219 219 221 220 216 217 217 217 216 212 208 201 196 193 189 180 174 173 173 172 145  75  55  69  52  31  72 196 226 218 217 215 215 212
  87  90  87  84  82  67  40  15  14  13  12  13  16  18  15  27  63  96 110 117 130 138 139 138 138 141 146 163 177 179 187 189 191 198 203 203 203 207 215 218 218 218 218 222 220 220 220 220 222 220 221 222 222 220 221 222 222 221 217 221 222 214 216 219 215 215 216 213 207 200 199 191 186 178 172 172 170 169 163  87  44  57  49  32  74 206 219 217 218 217 213 211
  87  88  89  85  80  65  42  15  11   9  11  14  15  16  19  52  92 102 111 119 127 136 135 131 132 135 150 157 148 153 161 165 174 172 183 186 191 194 206 212 214 218 213 212 219 219 219 219 218 215 220 222 221 220 222 220 219 217 212 211 202 204 205 199 192 186 191 189 188 192 183 187 188 178 171 168 165 163 167 107  38  49  49  29  90 203 213 216 216 217 213 213
  89  86  87  88  82  63  42  13  11  12  13  13  14  14  27  71  96 100 112 119 124 130 127 122 132 150 146 123 109  99  96 104 112 122 112 109 111 113 113 116 136 166 196 199 208 216 218 217 214 215 218 222 218 215 218 218 216 201 180 183 160 136 112 104 114 123 127 138 140 144 137 144 174 183 175 169 165 164 166 116  31  42  45  29  99 194 216 216 217 218 216 214
  90  89  89  88  83  64  43  15  12  11  12  12  14  15  36  75  95 102 114 122 124 129 126 122 117  99  76  71  84  86  70  60  51  61  68  60  63  73  73  80  98 108 133 150 163 206 216 216 213 212 214 217 217 219 215 214 196 167 156 147 126 110  90  90  88  91  77  84  94  91 101 106 112 138 159 163 165 165 164 123  31  37  42  40 114 193 216 216 217 217 217 215
  87  86  87  88  80  65  44  19  12  12  12  13  14  18  46  78  93 106 118 125 126 128 124 115  70  42  43  50  64  79  93 102  94  74  74  64  65  70  70  71  79  94 112 126 135 182 210 212 210 209 211 214 215 217 213 203 173 149 131 131 119 108  94  87  86  80  73  78  86  81  85 106  97  78 107 151 163 165 166 132  40  34  39  63 132 192 219 219 217 217 217 217
  86  86  86  87  80  64  46  29  14  15  14  13  13  21  46  72  91 109 121 126 125 125 111  70  48  63  81 103 126 135 142 156 156 147 139 127 114 101 101  97  97 113 129 143 144 173 199 204 205 207 212 214 215 216 212 195 172 150 157 148 133 119 120 122 128 139 138 138 149 156 148 128 109  87  81 114 162 168 169 137  47  37  40  87 135 189 220 223 221 217 217 220
  87  87  88  86  79  62  44  34  13  11  13  13  15  22  43  73  92 111 121 125 122 118  82  52  79 111 136 156 169 169 169 170 175 182 181 178 174 167 159 153 149 146 149 157 158 177 188 195 200 204 213 214 216 213 209 197 183 176 171 162 163 163 165 173 180 185 189 191 191 188 188 175 147 124 107  82 141 172 169 141  60  45  43  95 142 193 220 226 224 218 217 221
  85  89  88  85  81  63  44  32  35  24  12  13  17  21  42  70  93 114 124 124 124  94  69  94 118 135 153 160 166 167 167 167 171 176 176 177 179 180 185 181 173 161 154 157 163 171 179 188 193 205 213 215 216 211 204 195 185 173 165 159 162 167 174 179 181 186 189 188 186 184 185 181 177 166 144 104 109 164 171 144  71  49  55  94 154 204 219 224 224 220 219 223
  87  88  86  85  80  60  41  57 104  65  12  13  17  23  36  72  95 114 125 126 107  81 106 127 131 133 141 151 152 156 151 139 137 149 164 172 172 155 141 143 162 168 161 153 153 161 172 180 187 202 210 216 217 214 202 191 176 158 154 153 145 135 141 148 158 165 168 170 171 173 174 174 173 168 160 136 115 145 171 151  81  54  98 140 171 212 221 223 222 221 219 221
  86  86  86  87  80  59  41  71 116 115  42  12  18  19  35  75  98 111 121 123 111 116 136 137 129 125 130 139 137 127 118 127 144 143 141 152 149 161 168 151 128 141 161 155 143 147 161 173 183 196 206 217 217 212 202 184 160 149 148 140 144 160 158 170 166 162 167 167 152 144 154 161 162 161 157 157 158 163 171 156  79  69 163 183 175 216 223 222 222 222 220 221
  87  85  86  87  82  63  40  74  90 135 116  24  15  16  38  74 100 114 121 120 124 143 147 143 127 117 123 133 129 115 128 124  92  65  49  58 108  95  98 130 155 148 147 163 155 140 149 163 180 193 203 212 213 208 200 174 155 156 164 158 141 119  88  85  99  92  91 118 155 155 134 149 156 150 153 161 175 172 171 164  78  83 194 158 163 222 225 223 219 224 224 220
  87  84  85  87  83  67  41 117 131  95 140  60  13  22  41  75 104 117 120 122 134 152 154 149 131 119 128 134 128 116  92  68  77  79  80  54  88 108 152 154 105 139 168 176 175 151 145 154 171 187 198 204 207 204 193 177 173 186 160 114 127 111 102  64  72  93  74  87  76 118 142 137 150 154 158 171 181 180 172 168  87  79 175 147 185 225 229 228 221 223 226 223
  87  85  85  85  84  69  46 133 163  95 101 108  33  26  44  76 103 117 120 131 147 161 164 159 138 126 123 113  86  64  53  98 148 100 107  92 102 122 189 205 145 112 128 181 188 158 147 149 160 180 196 201 204 200 187 184 203 181 115 132 176 143 126  88  76  94 116 181 113  62  83 108 130 153 173 188 192 187 175 169  95  79 152 177 195 219 229 229 224 222 225 223
  85  86  86  85  84  71  49 141 159 107 115 118  72  25  44  78 100 114 121 134 153 171 175 170 154 140 130 113  81  86 102 122 142 137 140 153 164 164 175 171 176 189 196 195 183 159 145 149 159 180 194 196 204 200 187 181 199 206 199 188 166 163 159 167 150 134 152 154 128 106  92 103 130 158 179 194 199 193 181 170  95  88 182 184 202 220 225 229 224 223 226 224
  88  88  85  86  87  73  50 141 158 108 145 130  83  28  47  80 100 112 119 133 155 172 178 175 169 159 153 143 129 137 148 154 144 148 167 181 179 188 185 187 193 200 200 196 174 157 143 149 164 181 193 197 204 200 190 181 190 207 209 196 183 183 183 188 185 170 165 161 171 161 158 164 178 180 187 196 199 193 181 171  99 117 208 191 212 228 225 230 226 226 227 225
  88  87  85  86  86  72  54 137 157 118 150 150  94  29  48  79  97 110 116 132 156 171 176 175 174 175 178 172 158 147 141 142 145 157 164 165 162 173 181 187 191 190 194 183 168 153 145 152 163 177 192 200 204 203 194 186 185 196 203 194 182 174 171 166 168 173 177 171 172 169 176 188 192 192 197 199 198 193 182 171  98 129 215 201 219 224 225 228 227 227 226 226
  87  88  86  83  85  74  55 140 151 129 162 159 125  48  56  81  95 103 111 129 151 165 170 173 179 188 192 188 185 181 171 161 157 158 160 165 171 183 194 200 207 206 195 178 165 153 152 158 159 173 190 198 203 200 192 190 187 188 199 206 206 195 184 176 170 170 172 174 179 188 198 202 202 202 200 198 198 194 183 172 108 146 212 210 225 224 227 229 228 225 228 226
  85  88  88  83  84  77  57 131 144 148 174 168 143  76  62  84  97 102 109 127 144 159 167 174 183 190 192 190 190 190 193 193 191 191 193 198 199 202 203 209 210 202 188 177 167 161 161 158 154 165 187 200 203 195 188 191 193 192 192 199 211 213 210 205 202 199 199 202 205 205 205 205 206 205 201 198 197 190 177 166 125 172 201 217 226 225 231 230 230 228 227 228
  86  85  85  83  81  79  66 117 143 171 180 174 168 109  68  84  96 102 108 126 142 155 165 173 181 186 188 193 195 198 202 203 201 200 205 203 203 207 207 206 206 191 182 178 173 169 163 155 150 162 187 200 201 197 187 190 196 197 197 196 200 208 211 212 210 206 207 206 207 208 210 207 207 205 202 200 198 190 177 160 147 195 190 201 221 223 230 232 228 229 229 226
  84  83  83  84  84  81  70  92 139 183 182 175 171 140  72  85  97 101 107 124 140 153 165 170 177 184 189 194 200 202 204 201 199 200 201 201 205 206 206 201 196 190 187 184 181 173 159 151 148 160 187 201 201 197 189 188 193 202 204 203 200 202 204 207 211 209 207 207 209 209 211 209 208 206 202 199 197 189 174 153 170 215 186 151 204 223 226 235 231 228 225 226
  84  83  83  83  83  81  66  71 141 183 182 182 190 166  74  84  96 100 104 121 138 150 160 169 176 181 187 197 199 200 200 199 199 199 201 202 206 206 206 202 198 198 195 189 179 163 148 146 150 167 191 203 203 198 191 186 184 197 208 209 207 207 205 206 209 209 208 208 209 207 207 206 208 207 204 198 193 186 171 154 184 222 171 142 207 221 225 231 231 229 228 227
  82  83  82  81  83  76  52  47 131 175 166 173 195 161  78  80  93  99 102 118 135 146 159 168 174 180 186 193 194 196 198 200 200 199 203 202 206 206 206 205 207 210 200 183 167 146 139 144 153 172 193 204 205 200 194 187 178 186 196 207 210 211 210 208 206 207 207 207 207 206 205 205 207 206 201 193 189 184 168 153 191 224 155 154 222 223 228 231 230 229 230 228
  82  80  81  80  80  69  54  64 104 160 152 158 168 123  88  77  94 100 102 115 130 143 157 163 171 175 184 189 190 195 198 201 199 201 205 202 205 207 207 208 212 208 181 162 160 146 140 150 160 171 191 204 206 201 193 192 181 179 185 196 208 212 213 211 211 210 208 207 207 208 207 207 208 204 200 189 185 180 166 153 194 221 140 166 225 226 226 231 229 232 231 229
  81  81  80  80  77  73 126  83  95 138 158 142 154 117  92  76  92  96  97 112 128 141 150 158 167 174 181 187 194 196 198 201 200 204 206 206 208 210 212 215 213 191 151 153 166 158 149 158 169 180 197 211 215 211 205 198 189 184 186 186 200 210 214 215 214 213 212 211 210 209 209 207 206 205 197 188 181 176 164 155 196 215 135 175 221 230 224 232 230 232 230 228
  77  79  81  81  70 124 173  80 111 132 146 136 137 115  81  77  94  97  95 110 125 138 144 153 159 174 181 187 194 196 200 203 205 208 209 209 212 212 213 212 208 171 140 160 171 167 159 163 171 187 204 223 222 218 204 194 193 192 191 187 193 205 209 214 215 216 214 213 213 212 211 209 207 203 198 188 177 171 163 154 197 207 132 189 224 233 229 233 233 233 231 229
  78  76  79  71 119 204 181  86 112 147 119 142 160 137  85  75  94  99  96 110 123 133 137 149 160 171 179 186 189 194 201 204 206 207 207 209 210 211 208 204 195 152 136 163 176 177 172 164 165 182 205 221 213 204 190 188 197 200 195 188 192 201 199 208 214 216 215 213 211 212 211 209 207 201 197 187 177 171 159 154 207 194 140 198 225 230 229 230 233 232 232 227
  80  79  69 100 216 232 207  94 104 145 131 161 168 151 100  73  92 100  97 110 121 128 135 146 157 167 177 183 187 193 198 204 206 207 208 209 208 205 198 191 185 147 125 152 166 176 179 169 152 156 184 198 197 190 178 171 170 172 178 178 201 205 195 199 206 209 211 212 211 212 210 207 206 202 196 187 177 168 157 159 195 188 158 209 227 230 230 231 231 232 231 230
  78  70  88 211 244 248 224 107 101 131 146 180 164 158 110  73  89 101  98 107 120 125 132 144 153 163 172 181 186 190 198 203 207 207 208 206 204 197 189 184 178 158 123 113 113 110 118 127 130 135 156 179 179 163 122 101 108 112 128 175 208 205 196 193 198 203 207 207 207 208 208 206 205 202 197 188 176 167 157 169 194 192 176 219 233 233 233 233 229 229 229 232
  76  74 199 255 249 252 232 122 103 136 153 178 163 150 129  83  85 100 100 107 122 125 133 140 150 159 170 178 184 192 199 202 205 206 205 200 195 185 182 183 177 160 151 128 120 133 127 125 105 107 133 149 142 132 139 162 156 144 165 198 205 205 197 188 189 192 197 202 207 206 206 206 203 196 193 186 174 165 156 178 201 185 187 221 231 235 236 239 235 232 229 231
  56 176 255 250 250 253 240 145 101 137 157 169 162 145 148  90  81  99 100 107 120 125 134 139 145 154 167 175 182 189 195 200 201 201 198 193 185 182 187 187 177 161 152 148 141 133 130 132 146 119 109 116 135 179 182 171 175 172 190 200 206 207 206 193 181 179 185 191 201 206 204 201 198 191 188 183 173 165 155 186 209 189 195 227 233 234 233 239 241 236 228 231
 165 247 252 252 251 254 246 173  87 127 155 161 155 146 157 100  75  98 100 108 122 126 134 137 139 149 160 171 183 187 192 196 197 192 186 181 180 189 189 183 168 161 151 142 145 124 122 133 142 147 141 146 177 182 173 164 156 160 176 193 199 199 204 205 186 168 166 179 190 199 201 199 196 189 184 177 170 167 158 197 208 190 196 231 234 230 236 239 239 234 232 229
 254 248 250 253 253 252 249 202  80  85 143 155 153 153 152  94  70  94 100 110 125 132 136 138 138 144 156 168 179 187 192 192 189 182 174 179 189 189 182 175 171 159 149 157 148 142 142 159 159 175 187 190 178 179 175 171 162 159 176 187 182 188 193 194 193 184 153 154 175 190 198 197 191 185 181 176 169 167 163 202 204 189 197 235 234 236 234 236 236 234 233 231
 248 252 251 251 253 253 253 221 101  45  76 107 120 123  93  45  70  90 101 112 125 133 140 137 142 143 154 163 172 183 189 189 180 170 179 195 193 182 167 166 175 152 157 165 149 163 178 181 185 185 193 200 171 164 187 176 179 175 188 181 176 182 188 180 186 195 193 153 154 181 192 192 188 181 178 176 170 165 166 201 196 181 203 235 236 240 237 236 236 234 232 236
 248 251 250 250 254 253 255 227 121  46  43  47  51  48  41  40  65  92 104 113 125 137 142 142 146 146 152 167 176 184 186 186 177 179 194 189 176 169 156 166 171 163 172 184 170 185 194 200 193 206 200 191 206 198 196 189 200 199 205 202 185 190 198 181 182 183 195 190 149 174 191 194 192 182 179 179 173 166 169 196 171 165 216 230 237 238 237 236 236 236 231 231
 247 250 252 252 254 252 254 237 137  49  48  48  45  46  46  40  54  88 102 111 124 137 145 146 149 153 158 169 179 190 198 193 183 189 187 175 167 153 160 166 175 175 178 180 179 184 189 188 197 206 208 207 203 200 191 186 186 185 185 181 174 182 195 186 174 172 173 191 167 169 192 197 194 186 185 181 175 167 150 116  85 164 229 232 238 239 235 235 236 238 235 232
 248 249 253 253 254 252 254 240 137  51  48  48  47  47  46  41  49  78  98 112 125 136 148 152 152 156 160 170 181 195 211 202 189 183 165 162 158 152 149 142 139 133 132 136 144 145 156 164 169 174 178 180 174 169 170 173 167 152 150 142 137 131 138 153 148 152 160 173 182 182 199 197 194 189 185 180 174 171  99  35  64 170 228 236 239 240 238 236 233 237 237 232
 248 250 252 252 254 253 255 239 136  52  51  52  49  47  44  44  45  72  93 107 120 133 147 152 155 155 156 169 181 196 213 209 198 172 157 123 111 105 106  98 118 106 126 135 133 163 144 148 150 141 143 148 147 146 157 156 158 158 134 142 103  82  80  95 117 175 183 177 188 198 208 201 195 188 183 180 174 168  82  43  68 172 228 236 239 239 238 240 234 235 235 231
 250 250 251 253 255 254 255 241 143  55  52  52  49  48  46  44  37  64  89 102 117 132 146 152 156 157 155 168 182 197 215 216 197 189 198 166 124  79 127 141 181 163 176 199 195 221 204 216 228 211 194 212 218 202 225 221 222 230 210 219 160 121 113 166 196 206 200 195 194 208 210 202 194 184 182 180 173 157  74  47  64 165 232 239 238 232 238 239 237 235 232 232
 253 251 253 254 254 254 255 243 150  57  52  51  49  48  46  45  35  56  85  98 112 129 144 155 156 157 157 166 181 199 215 220 202 200 206 204 192 159 135 135 150 159 171 191 206 233 230 232 242 243 239 248 249 243 253 245 223 201 189 176 157 149 179 211 214 212 212 208 211 213 205 197 191 182 181 179 169 140  59  50  60 152 231 241 239 231 237 237 236 236 234 233
 254 252 252 254 254 254 255 245 150  56  54  53  50  49  47  49  41  51  83  95 108 126 143 152 158 157 156 164 178 197 213 220 215 211 208 202 195 186 160 140 139 142 148 148 157 176 184 206 224 229 228 239 233 211 203 182 161 157 155 153 157 181 212 214 214 217 212 211 216 210 202 192 185 183 183 178 167 119  50  52  55 142 226 237 239 235 235 237 238 235 236 234
 251 251 253 254 255 253 255 251 168  66  55  54  51  49  48  48  40  41  73  90 103 119 139 150 159 159 155 164 175 191 210 219 212 196 194 201 196 187 179 162 147 142 149 160 163 155 160 164 174 179 176 183 176 161 163 162 168 169 166 164 179 207 214 213 214 215 212 212 215 206 203 193 184 179 179 171 158  94  46  51  51 129 219 240 237 234 234 238 236 235 238 234
 250 252 253 254 255 252 255 253 213  97  53  56  53  49  47  49  41  36  66  84 100 115 130 146 156 163 158 162 170 185 204 216 213 198 202 203 199 186 187 182 161 148 148 150 157 172 184 188 188 185 184 182 185 187 191 188 178 168 171 187 209 214 213 213 216 214 216 217 212 201 194 188 184 179 174 162 149  71  46  52  51 130 219 238 235 232 238 240 234 237 239 232
 248 252 254 254 255 255 255 255 247 177  93  62  58  65  70  62  47  39  57  76  94 110 125 139 151 165 161 160 165 177 194 209 210 197 193 196 195 190 184 184 184 179 168 158 154 164 187 204 203 197 200 196 194 189 187 179 173 183 199 209 210 212 212 213 213 211 213 216 209 195 187 185 184 181 170 160 131  56  49  48  60 164 232 234 231 236 239 238 236 235 235 233
 249 251 254 255 255 255 255 255 255 249 214 161 140 171 191 153  71  47  55  69  85 104 117 132 144 159 165 166 164 169 183 200 208 200 187 182 192 188 178 179 188 192 189 187 182 177 178 191 202 201 199 196 190 191 193 195 202 212 215 210 209 209 212 213 212 205 209 208 201 188 186 186 184 178 168 158  94  43  44  56 128 217 245 233 231 238 241 238 237 236 236 234
 249 253 254 255 255 255 255 255 255 255 255 255 255 255 255 227 107  47  43  62  79  95 113 127 142 150 163 169 169 168 176 186 199 198 184 182 189 186 179 174 183 189 194 197 196 201 200 200 199 202 202 204 207 209 211 215 215 216 209 207 207 211 214 212 207 203 211 206 195 186 186 187 183 177 165 136  59  50  85 158 222 244 241 232 235 237 244 241 238 236 237 234
 249 252 254 255 255 255 255 255 255 255 255 255 255 255 255 242 133  50  34  50  71  85 103 118 133 150 162 169 170 166 164 172 181 186 186 180 179 175 180 182 178 176 184 189 190 193 197 201 199 195 200 204 205 202 203 199 209 207 202 205 211 213 210 203 194 189 200 197 193 186 185 184 181 171 154  91  47 119 203 241 247 243 238 236 235 237 243 241 238 240 234 231
 250 253 255 255 255 255 255 255 255 255 255 255 255 255 255 253 123  51  53  47  64  78  93 109 123 142 159 167 168 163 161 165 176 180 181 174 177 175 181 185 185 177 181 190 182 182 191 181 171 173 176 185 197 184 185 194 196 199 203 206 213 212 199 184 194 192 195 188 191 187 183 181 175 163 127  56  58 164 229 242 245 241 232 237 239 242 244 241 238 238 232 231
 251 253 255 255 255 255 255 255 255 255 255 255 255 254 255 233  76  57  60  51  54  67  80 101 117 130 151 159 161 166 159 150 149 166 181 181 175 171 182 191 193 189 190 191 188 193 180 160 158 162 161 160 177 182 191 203 205 205 210 210 213 212 195 188 197 183 183 188 189 189 183 181 167 141  88  45  71 179 229 240 244 244 230 231 241 245 244 242 237 238 232 232
 253 253 255 255 255 255 255 255 255 255 255 255 255 255 255 215  62  58  58  50  48  56  69  87 102 118 137 150 157 161 159 152 145 159 171 173 167 173 182 189 192 196 199 198 201 196 182 169 185 177 176 173 166 178 201 209 209 215 211 210 209 203 194 193 199 194 180 183 181 184 183 175 155 106  57  46  80 186 232 240 245 246 230 232 244 246 242 238 236 240 238 235
 253 253 255 255 255 255 255 255 254 255 255 255 255 255 255 215  65  58  60  53  52  50  61  75  90 111 126 139 145 157 157 151 148 152 165 168 161 167 179 180 189 194 199 198 197 194 191 196 199 199 207 203 198 198 207 213 212 212 214 209 212 206 190 192 194 187 182 189 174 173 174 160 124  72  53  44  98 205 236 247 250 250 241 244 252 249 248 244 245 250 242 240
 255 255 255 255 255 255 255 255 255 255 255 255 255 255 255 245  78  57  57  55  55  57  50  63  77  90 114 127 138 153 158 149 137 135 147 163 173 168 167 176 186 193 198 195 195 190 200 205 204 210 211 211 214 200 205 217 214 210 215 207 203 198 192 191 180 175 181 186 173 168 156 127  68  52  55  47 104 194 220 226 224 221 215 214 217 209 197 197 191 182 170 169
 225 230 229 231 231 227 229 229 226 224 226 223 223 220 220 208  86  57  56  54  53  66  54  53  64  80  97 109 129 143 144 147 142 137 142 148 154 147 166 182 185 196 197 202 200 198 206 210 209 212 214 206 211 198 211 213 212 211 214 214 204 186 182 184 170 169 176 183 175 157 129  79  21  19  21  21  24  34  40  41  38  36  36  34  34  31  27  25  23  19  19  25
  40  42  41  41  40  38  39  39  39  34  35  33  32  28  26  19  34  61  61  55  52  57  68  57  52  67  83  87 111 126 134 144 143 138 129 120 126 142 164 164 172 187 195 204 203 202 209 208 210 215 214 209 217 206 207 209 211 217 215 212 196 192 182 165 165 170 176 178 157 129  85  64  40   6  10  11  10  12  13  13  15  16  17  17  19  18  21  22  23  24  22  20
  27  27  27  29  29  29  28  30  30  31  28  30  30  30  30  25  21  48  61  60  57  48  58  70  52  46  64  78  98 111 125 139 135 126 119 104 109 125 138 155 175 179 186 202 203 196 198 209 210 210 213 216 208 203 208 212 216 214 203 196 183 183 166 150 161 164 153 156 132  93  55  80  77   8  10  11  24  42  58  65  66  65  68  67  69  68  70  71  69  71  68  66
  72  73  71  74  79  75  77  77  74  75  77  76  76  75  75  65  42  33  54  62  54  54  49  55  68  52  45  64  77  99 106 111 118 107 112 107  95  95 129 154 166 166 169 199 204 197 196 212 210 197 211 217 196 209 214 217 211 192 189 179 174 159 136 150 157 160 144 125  97  59  62  93  88  13   7  12  31  53  67  73  74  71  72  73  73  73  74  76  73  74  72  74
  79  77  76  76  77  77  78  76  76  76  77  76  76  76  72  68  53  31  36  54  59  55  56  45  48  73  52  44  58  76  91  95 101  99  95  87  78  78  98 121 145 147 165 187 195 201 199 202 212 196 194 194 197 204 201 204 195 189 187 164 153 117 126 147 145 139 118  89  74  59  85  98  85  11   7  14  34  57  69  70  71  70  71  71  70  70  71  72  73  76  76  74
  74  75  77  75  77  74  75  77  76  76  73  74  78  74  72  67  52  29  18  41  58  54  57  53  40  53  73  55  43  56  71  85  94  97  90  92  80  61  72  83 109 138 151 165 179 191 187 191 198 203 181 189 192 193 182 191 183 183 160 145 109 101 128 135 126 120  92  83  69  76  88 100  78   9   8  19  41  60  68  69  67  70  71  72  68  71  71  71  74  76  75  76
  71  75  73  73  72  71  69  70  73  74  73  73  71  72  72  63  42  17  18  26  45  56  60  60  56  42  45  72  62  40  50  68  81  93 100  98  77  70  70  59  81 111 121 142 163 164 172 171 183 188 185 178 186 184 172 171 167 146 127  95  77 101 125 125 101  80  81  85  70  89  91  91  56   5  11  27  49  66  71  68  71  71  71  73  73  70  72  74  74  73  76  77
  71  69  71  70  71  71  68  69  72  70  71  71  69  71  69  51  25   6  25  41  23  44  57  60  61  56  51  44  64  64  42  47  57  69  84  87  81  91  79  66  66  75  91 114 129 135 147 144 150 164 170 146 148 169 157 137 128 100  77  75 100 108 106 103  75  90  97  66  81  94  93  82  23   6  19  40  58  69  73  72  75  75  74  75  75  73  74  76  77  77  79  79
  70  69  68  69  73  71  69  70  72  74  72  70  71  69  60  38  16   6  22  51  28  25  40  55  62  59  61  52  38  54  63  49  44  56  60  64  78  90  86  71  63  54  65  68  80  93 105  96 103 117 126 114 102 101 107  96  77  71  81 105 109  95  75  67  83  96  70  73  89  93  86  49   9  14  28  51  69  73  75  74  74  74  76  75  74  75  78  78  78  79  80  82
  69  68  72  72  69  72  69  68  72  73  72  70  71  67  54  30  12   3  32  48  39  25  17  37  57  68  65  62  58  42  41  56  50  43  46  60  66  69  78  85  80  76  80  69  56  54  54  53  56  59  66  69  57  51  50  64  72  74  87  92  78  60  58  83  82  61  76  88  89  82  60  18  12  22  40  59  72  75  76  77  75  75  78  78  77  77  76  75  78  82  84  84
  69  69  70  72  70  73  69  70  72  70  70  70  71  69  53  29   7  17  51  47  45  41  22  16  31  54  64  61  61  66  52  38  49  50  49  47  43  43  54  63  59  67  77  78  82  69  64  61  56  60  62  62  53  62  61  76  80  74  72  56  43  56  70  62  65  82  90  92  79  63  29  14  22  35  55  73  77  76  76  79  82  78  78  81  81  82  82  80  84  84  86  87
  69  71  71  71  69  71  71  69  70  70  70  70  71  70  54  30  25  47  53  44  50  49  43  27  15  27  45  62  66  65  64  57  53  42  37  37  44  42  44  45  50  58  58  66  78  71  68  70  70  72  70  67  65  70  62  56  49  45  43  47  54  56  60  71  88  94  90  74  54  52  19  21  42  57  73  83  87  84  86  87  87  88  87  89  86  89  89  91  91  93  93  94
  72  75  75  77  75  74  73  74  74  75  74  75  76  72  61  46  27  45  55  50  52  49  47  44  31  16  21  36  54  62  63  58  60  62  53  44  44  48  51  45  42  44  46  48  49  52  57  60  65  64  58  53  49  41  41  40  46  55  58  53  56  67  85  92  89  83  72  53  44  76  31  11  41  81  90  92  95  94  91  94  95  94  93  95  96  95  96  97  98  98  98  97
  79  80  79  81  80  79  77  78  83  81  79  80  82  82  71  30  30  57  55  52  52  55  53  50  46  31  14  14  23  38  52  57  65  61  61  62  54  52  46  38  41  45  45  47  46  42  45  51  47  45  42  39  41  48  53  57  63  63  58  68  84  90  87  91  81  64  49  48  60  81  28  16  13  64 100  95  94  94  94  95  97  96  96  97  98  97  98  98  97  96  96  96
  82  81  80  79  79  80  81  80  84  83  80  83  84  82  46  13  37  56  57  52  51  54  55  57  52  47  36  19  13  18  27  38  55  57  57  57  61  62  61  58  50  49  47  49  48  47  51  48  43  37  42  45  52  55  62  65  69  80  88  87  90  90  85  73  59  49  44  58  74  80  26  15  13  18  82 103  95  95  96  97  97  97  97  96  98  97 100  96  97  97  96  96
  80  81  81  79  79  82  82  81  79  81  81  81  82  50  15  14  47  57  56  57  52  54  57  60  53  55  51  35  22  16  15  21  27  34  48  49  60  56  61  62  58  68  63  62  60  61  60  62  61  63  69  71  77  79  84  88  91  89  86  86  84  74  63  44  30  37  59  72  75  77  28  10  16  11  28  92  99  95  96  97  98  97  97  98  96  98  98  97  95  96  97  97
  81  81  83  81  80  81  82  80  79  83  83  80  54  22  10  19  60  67  64  58  56  53  59  60  60  59  56  52  43  30  21  17  15  15  24  28  37  41  48  56  62  64  66  65  68  68  75  74  78  75  77  83  82  87  84  82  80  80  75  72  64  52  36  27  36  58  71  79  79  79  31  10  16  16   8  36  91  98  94  96  98  98  98  94  96  97  96  97  96  95  95  96
