P2
# Generated by OpenCV 4.2.0
92 112
255
  80  80  80  80  84  85  96  97 102 106 110 109 113 117 120 125 127 124 125 125 123 118 120 118 117 121 125 126 127 128 126 126 124 123 125 124 125 127 125 122 123 121 125 129 120 115 101  81  63  59  59  51  54  49  35  42  46  53  53  77  79  77  84 118 135 124 167 205 204 199 209 177 166 134 122 119 122 128 139 141 141 134 127 125 124 124 128 127 125 119 119 120
  96 103  96  90  86  80  85  83  82  82  86  89  93  97  98 104 110 112 117 123 122 125 123 126 124 122 125 125 126 125 127 129 127 126 124 125 125 125 125 120 124 126 114  80  76  56  50  51  56  57  55  59  53  45  52  58  69  49  24  22  41  51  67  53  23  77 138  99 150 197 206 202 180 144 121 134 157 175 181 194 187 177 148 126 121 130 133 129 121 122 118 118
 115 116 116 115 112 108 103  98  96  94  92  87  85  85  86  87  81  83 100 116 121 125 124 124 125 125 123 126 124 125 127 129 130 128 131 123 124 120 110 119 101  81  60  49  54  52  46  49  42  34  23  14  14  19  21  22  23  39  61  61  27  31  48  42  76  60  28  76 104  86 160 225 187 145 133 167 191 197 197 203 203 205 190 160 134 153 174 176 167 159 146 132
 118 118 118 117 119 119 116 118 119 117 115 113 110 106 103  98  85  80  87 110 122 125 125 125 124 126 129 126 118 125 129 129 127 127 117  90  82  52  46  47  58  54  52  49  49  49  55  36  38  42  30  36  24  27  21   8   4   0  14  22  59  35  24  39  53  75  69  27  46  95  75  95 177 135 159 196 204 200 191 189 205 212 212 189 161 176 199 205 207 209 199 198
 118 119 118 119 119 120 120 121 124 125 126 126 124 122 119 117 110 101  98 112 123 124 125 125 126 128 132 120 120 120  79  91 116  81  63  50  61  56  43  45  39  58  53  41  24  21  10  17  17  13   8  29  40  49  23  32   3  11   0   1   7  62  40  47  15  46  72  81  42  49  82  80  84 133 193 199 208 187 154 147 175 209 216 205 191 187 198 212 207 219 222 213
 105 119 116 118 118 119 117 118 119 120 125 126 127 126 127 125 122 118 113 118 124 124 126 124 124 124 128 111 113  55  33  35  21  41  42  30  28  37  31  27  31  23  17  20  29  18  27  38  39  40  34  23  16  22  50  54  51  18   0   2   9  18  66  19  83  18  39  69  69  43  60  73  62  65 163 220 198 154 110 109 155 199 218 211 198 168 177 189 202 221 223 218
 100 114 116 118 118 115 111 106 104 109 112 116 122 123 125 127 125 123 117 116 126 124 121 125 127 146 103  63  47  42  46  40  28  29  14  14  19  25  32  33  23  16  14  10   9  20  18  25  12  18  39  46  43  20  17  48  64  64  47  10   4   7  46  61  46  41  12  52  70  60  38  69  80  62  69 150 189 134 122 119 137 187 216 218 206 157 140 140 186 215 218 196
 100 115 116 117 113 103  92  92  98  98 101 104 105 109 114 120 124 126 122 128 123 125 124 120 132  98  72  51  46  51  31  31  15  26  42  38  22  11   9   9  10   8  15  24  12   2   6  11  24  41  26  27  55  64  30  34  56  48  68  48  11  24   1  68  44  40  39   9  52  66  33  45 102  59  80  77 117 125 123 126 129 179 212 222 207 160 121 136 190 214 212 177
 107 116 118 115 105  87  83  94 102 102  92  91  93 103 110 110 127 122 135 121 130 122 119 120 104  63  44  39  47  39  39  38  16  13  10   0   3   2   4   4   3   2  10  19  23  39  29   7  33  35  53  60  20  52  65  35  37  92  30  57  21  23  33  67  81 104  67  19  37  58  60  33  71 109  83  76  75 106 117 114 132 180 208 227 205 160 117 153 200 222 211 175
 116 117 118 110  90  75  83 110 118 116 117 105  94 104 115 114 127 124 116 124  98  44  32  30  29  33  27  26  16  23  34  23  13  20  11  19  10   7   6  11   9  14   8  11   8  30  45  50  28  25  64  34  54  16  39  82  12  48  49 100  15   0  60  63  61  56  54   1   9  32  85   8  52 100  78  89  76  81 110 123 129 183 205 226 198 162 119 162 206 222 206 167
 118 118 117 107  86  72  87 114 119 114 119 115 107 112 113 117 121 121 125  78  40  28  14   6  10  19  15  24  19  11  11   6  11   0   1   3   1   2   2  17  15  25  18  24  33  13  50  70  43  35  30  63  49  37   7  68  21  65  82  20  33   2  25  22  39  26  21   5   3  28  72  15  27  71  92  87  80  99  96 111 128 161 221 217 197 154 122 165 207 220 201 163
 117 117 117 104  85  73  92 113 116 119 118 118 118 120 117 119 113  78  49  36  12  23  13   7  11  18  18  22  15  12   4   3   1   0   0   0   1   4   3   9  17  33  36  42  37  46  14  75  79  38  48  40  50  45  10  59  32  62  45  30  35   6  14  16  18  12   7  13   4  23  54  14  22  22 114  81 113 105  97  91 131 180 218 214 191 144 124 175 211 221 196 156
 119 117 117 105  89  72  86 116 118 119 118 119 119 119 117 115  69  35  39  23   9  19  10   7   4  10  10  14   7   1   0   1   2   5   8   8   4   5   7  12   9  39  73  59  48  43  49  29  38  66  45  43  23  44  23  22  34  18  19  37  24   6  21   9  12  21   6  12  17  20  29  17   5  11  98  84  51  96 115 106 120 191 168 215 183 133 131 179 214 219 193 144
 116 116 117 107  95  75  77 100 112 115 118 118 117 121 118  88  42  32  40  26  15   7   8   4   3  12  17  11   3   1   0   0   2   2  12  12  19  24  11  18  27  27  55  55  35  32  60  38  37  36  56  30  28  30  26  33  23  31  25  35  18  19  29  26  19  36  15  17  14  19  23  16  11  32  44  81  26  88 119 120  99 180 186 203 169 123 132 184 217 218 192 136
 114 119 115 112  96  76  70  82 101 114 118 118 118 115  74  45  43  41  27  18   8   6   6   7  15  18   7   2   3   3   3   5   3   1   2  18  19  29  54  27  28  44  29  57  60  37  28  59  32  49  41  67  28  27  54  40  39  36  40  46  32  39  48  38  45  46  36  21  25  27  33  19  20  43  22  35  32  77 111  95 102 137 180 175 149 116 140 192 219 215 185 128
 120 120 118 118 108  92  70  68  89  96 115 119 121  82  58  46  43  36  25  28  17  15  21  24  16   4   1   2   3   1   3   5  16  25  21  12  18  36  53  63  54  40  53  40  36  72  47  44  64  49  62  69  62  63  53  64  68  54  71  60  67  82  85  76  76  59  47  48  21  39  21  24  29  37  46  27  39  56  96 109  80 141 182 162 130 113 145 200 219 213 184 127
 120 115 118 118 114 103  86  68  68  91 105 114 114  55  59  46  26  32  22  24  13  20  24  14   1   2   0   1   5  27  27  32  17  12  34  46  45  36  46  54  53  70  49  44  79  32  66  68  64  66  69  74  86  90  88  88  87  87 102 102 110 120 124 126 130 117  97  88  56  45  32  39  42  41  40  33  46  35  90  72  95 131 152 137 117 119 154 200 216 209 175 118
 116 116 118 118 114 109 101  80  67  70  93  96  87  45  53  47  33  31  24  26  25   8   8  13  11   6  18  22  11  10   8  14  37  57  48  48  54  57  69  81  77  85  76  97  84  84  95 110 107 102  96 100 109 102 113 124 118 127 131 132 135 141 154 161 165 159 153 132 114 102  68  52  54  44  47  34  51  55  74  59  70  97 139 108 131 134 173 215 222 210 177 129
 116 118 119 117 116 114 114 100  76  65  81  75  48  24  27  18   4  15  13   8   2   7  13   1   1   4  14  26  33  42  46  53  49  39  59  71  78  76  79  90  99 108 123 128 132 133 144 148 144 151 149 153 146 156 158 150 146 154 160 166 167 172 173 174 170 164 160 156 148 138 123  90  77  66  51  54  57  61  46  66  63  93 108 120 126 142 169 204 216 209 177 142
 115 118 118 120 115 113 113 116  94  71  78  58  22  20  22  27  11  11  17  20  17   5   3   6   2   8  20  34  41  52  58  59  66  77  91  87  92  98 111 120 130 132 141 147 152 157 156 158 157 163 162 162 164 163 164 166 165 167 168 173 178 178 175 173 174 172 172 169 163 160 155 138 122  96  81  68  62  73  47  57  65  81 105 122 128 134 157 186 193 180 157 137
 118 116 117 119 114 120 119 116 110  90  78  38  20  15  13  13  11  14  12  13  11   4   2   3   4  12  18  31  38  53  71  83  93  93  99 105 116 123 135 134 140 146 150 152 154 159 156 160 162 165 168 171 171 169 173 172 173 172 174 172 173 176 177 173 174 171 172 169 170 168 167 162 160 138 111  95  82  67  54  47  62  79 104 118 130 128 134 152 157 154 148 130
 114 112 111 113 118 116 113 114 117 102  57  26  19  16  14  11  10   8  10   3   5   3   3   3  10  18  30  46  58  65  77  87  92 102 111 121 123 130 136 143 149 151 153 163 165 154 153 165 167 171 171 172 172 172 171 171 175 175 176 178 177 176 175 175 176 176 175 175 170 169 167 168 166 158 146 119 102  83  71  57  77  98 102 113 120 120 120 120 121 117 127 123
 107 107 106 111 115 117 116 114 121  90  25  22  17  10   6   3   5   7   5   3   7   3   4  13  16  26  46  55  78  82  92 101 106 112 119 126 129 138 143 150 155 158 160 161 166 164 165 170 169 164 169 169 172 171 171 173 178 178 177 176 175 175 176 176 176 176 176 175 173 175 171 168 170 167 166 158 132  89  83  77 108 121 121 120 113 124 125 125 126 124 125 124
 109 104  99 102 110 120 117 118 121  37  33  20  13   6   6   3   0   8   1   4   7   6   6   6  25  41  58  73  96  97 103 113 119 123 128 125 137 143 146 157 153 157 162 163 162 165 168 168 170 168 168 170 171 172 170 173 177 180 181 176 173 174 177 176 176 175 175 176 175 174 175 172 173 174 172 168 158 131 101  91  85 100 103 112 122 122 126 128 130 129 129 126
 114 104  89  95 105 117 115 119 100  19  15  27  11   5   2   5   5   7   5   4   6   5  11  22  42  47  72  80 101  98 108 119 122 123 127 129 140 144 148 159 157 156 159 161 162 162 162 169 169 169 170 173 174 177 176 176 175 178 180 181 182 181 179 179 178 173 175 176 175 175 177 176 175 175 173 169 162 161 123  90  96  92 115 114 115 123 127 128 128 126 127 125
 113 104  84  84  96 102 104 113  52  28  18  17  15   9  12  12   9   6   4   1   6  10  19  30  41  70  73  85 100 105 114 116 121 125 129 134 144 145 152 158 158 161 160 162 164 162 167 167 170 168 173 174 175 176 179 178 178 181 182 182 183 181 184 182 181 179 182 180 175 177 181 178 176 176 173 172 171 161 152 104  93 101  93 118 117 110 127 126 123 127 126 125
 113 108  97  92  93  94  95  85  33  27  25  10  20   9   8  16   7   1   1   2   8  18  25  40  71  70  89  92 114 112 116 116 121 130 133 136 144 147 154 154 156 159 161 163 163 166 172 173 173 171 176 176 175 176 175 176 177 181 182 182 183 183 184 180 181 181 181 179 180 179 178 177 177 178 174 172 171 175 170 154 114  83 104  97 129 116 116 129 125 126 127 127
 114 111 108 106 101 104  96  66  19  32  22   4  12   6  15  16   3   4   3  13  10  27  48  61  56  78  98 106 117 112 118 122 126 129 133 139 144 147 149 150 156 160 161 162 164 165 170 174 177 174 177 181 176 182 181 184 183 183 183 182 183 184 184 182 182 182 183 181 182 183 182 185 178 176 176 177 176 173 173 164 113 107  90 101 105 126 119 129 127 127 127 126
 114 113 114 115 113 111 108  55  28  21  15  26  27  22   9   1   7   5  11  13  16  41  45  57  82  80 105 106 117 118 122 125 125 130 136 138 142 147 149 152 154 162 161 162 167 167 170 175 179 177 179 181 175 179 182 185 184 184 185 186 187 183 184 184 182 183 182 181 182 184 187 186 179 177 179 176 176 176 176 168 161  95 106  97  91 116 117 128 128 127 128 127
 113 115 114 117 117 116 117  40  15  18  22  13   7   4   5  11   7   2  15  23  39  37  62  62  80  99 102 110 114 119 124 126 125 133 138 139 143 146 148 150 154 161 165 165 170 168 169 177 179 180 183 184 180 184 185 187 183 185 184 187 188 188 190 189 190 191 189 186 185 185 187 186 185 182 178 177 176 175 175 177 167 127 112  63 104  89 134 128 133 128 129 129
 115 115 116 115 118 124 108  23   2  10  13  16  10   8   9   3   7  15  16  22  34  47  59  85  94  94 100 109 117 122 124 124 124 135 137 139 147 148 149 152 154 156 159 164 167 169 173 178 180 181 185 184 186 188 187 188 183 187 188 187 189 188 187 186 185 190 189 188 187 188 188 189 187 184 181 180 180 177 175 167 170 166 108 107  72  90 105 128 127 132 128 127
 114 115 116 118 117 129  66   1  16  10   8  10  14  12   7  10  16  18  15  29  36  59  86  87 103 104 105 108 113 118 120 122 127 131 134 140 145 147 150 153 157 158 164 170 172 172 177 180 182 186 189 187 189 190 190 192 188 186 187 186 189 189 187 186 186 188 188 189 188 191 190 190 187 185 185 185 181 178 178 179 173 163 126 116  89  75 106 127 131 126 129 129
 117 115 113 118 116 113  20  21   9  13  19  12   9   9  11  17  17  15  25  31  41  62  78  92 107 106 104 106 114 117 118 125 129 131 137 140 142 149 151 154 158 160 162 166 170 170 175 182 182 188 189 189 190 190 189 185 189 187 188 188 188 188 190 188 189 192 191 186 190 190 190 189 190 192 190 190 189 186 182 178 172 174 145 118 137  97  82 119 131 129 129 132
 116 118 120 118 122  93  25   7  12  16   3   9   6  11  11  10  10  19  24  34  55  64  79  89  95  98 105 107 112 111 116 122 130 133 137 138 144 147 151 154 157 160 164 168 169 170 177 178 179 184 186 191 189 189 187 188 188 188 189 186 189 189 187 188 190 191 190 190 188 189 188 185 188 189 187 188 188 186 185 179 179 170 160 125 116 102  99 119 124 129 130 131
 119 119 119 119 116  75   9   1  13  12   7   7  10  10  10  11  16  25  26  39  43  52  61  79  93 101  99 105 112 113 119 127 133 135 136 144 145 146 149 154 155 159 163 168 170 169 176 177 181 184 186 187 188 186 185 188 189 188 186 187 189 190 192 190 190 191 190 191 191 189 190 190 191 190 189 188 185 184 185 183 175 172 163 129 115 119 120 111 128 138 129 131
 118 119 120 117 122  28   7  12  12   8   4   3   6   6   9  11  18  25  28  37  38  43  72  83  76  89 102 112 108 114 119 123 129 130 138 142 143 147 149 153 155 157 162 165 169 169 176 179 182 181 184 189 186 184 185 186 184 184 184 186 194 190 191 190 191 190 189 189 192 191 190 191 190 189 190 189 189 189 190 186 179 177 164 151 133 141 128 118 120 134 131 131
 119 120 117 116 124   1   3   6   6   4   2   8   5   3  12  13  12  17  24  27  50  50  54  56  82  90 105 111 119 114 119 122 129 131 137 137 139 147 147 154 154 158 162 162 166 172 181 178 175 176 182 187 185 186 184 184 185 186 187 187 191 189 189 190 190 189 189 189 189 189 189 189 191 191 189 188 188 189 183 180 182 176 171 162 150 123 114 142 118 136 135 133
 119 120 119 117 103   2  13   6   3   0   9   7   6   4   5   6  13  13  26  27  25  31  43  61  72  92 105 110 116 116 118 122 128 129 134 138 138 145 149 155 155 155 161 162 167 171 174 171 173 179 177 181 180 184 183 182 186 185 186 191 191 189 190 189 191 189 189 186 188 189 190 190 191 190 188 189 188 189 184 179 183 182 173 164 145 143 123 130 138 130 133 132
 119 118 118 120  65   9   5   8   0   5   2   4   2   7   5   8  10  17  25  20  21  31  41  45  78  88 107 101 118 120 118 124 122 129 133 136 138 145 146 153 153 153 153 160 164 171 171 175 175 180 181 183 185 189 186 186 186 187 188 190 194 190 192 194 192 193 192 186 190 189 188 190 189 189 188 191 188 189 185 180 180 180 169 173 145 143 129 127 144 136 134 132
 119 119 118 123  47   6  10   6   5   5   4   2   3   4   4   9   9  14  19  23  21  23  31  58  69  71  95 105 115 120 123 125 122 126 132 135 139 148 146 150 151 155 158 163 162 168 169 175 180 180 182 185 190 193 193 191 194 191 192 193 193 193 195 197 195 196 196 191 192 190 187 195 194 189 194 195 194 190 183 181 182 179 178 164 153 133 119 125 136 143 128 130
 119 119 118 120  44   6  10   0   4   3   6   1   2   1   4   4   5   7  10  10  17  30  39  41  50  77  90 106 117 124 123 125 128 130 135 136 142 150 148 153 151 152 155 158 163 167 171 177 180 180 182 185 190 196 196 193 194 189 195 196 194 191 193 195 196 196 196 192 191 190 192 195 195 196 199 196 195 194 186 185 183 179 176 173 161 117 107 125 138 148 129 130
 119 119 118 121  38  14  12   6   1   4   4   1   2   1   6   6   6   8  11  14  18  14  26  45  62  81  94 106 121 127 125 125 127 129 136 135 140 147 147 149 151 151 155 158 164 167 170 178 180 183 185 189 189 194 197 192 195 194 196 196 198 196 192 198 200 199 197 191 198 195 198 198 201 199 200 196 195 194 189 186 181 178 174 170 165 132  99 107 135 154 126 130
 119 117 118 119  52  15   6   3   0   1   0   1   1   1   5   4   4   5   5   4  15  17  31  46  66  71  91 111 113 120 127 127 128 130 133 134 137 147 141 145 150 153 159 158 169 169 171 177 181 184 191 191 193 197 195 197 196 201 200 199 200 201 201 206 203 203 201 193 200 202 202 201 202 202 201 200 195 196 191 188 184 181 173 170 167 141  92  74 136 139 132 134
 119 120 120 118 105  47   7   1   6   0   4   0   1   1   2   7   4   8   4  17  16  22  36  48  66  81 101 108 110 119 127 127 129 132 128 135 137 140 146 149 144 158 159 162 172 170 173 178 181 184 188 189 192 197 196 197 196 198 203 202 198 199 200 201 205 204 204 197 196 201 200 200 211 205 200 199 197 196 191 191 187 183 175 173 171 155  83  64 106 132 132 131
 120 119 124 124 122  58   9   6   2   2   1   0   1   1   2   7   8   8   9  10  21  38  54  74  80  88 103 106 112 119 123 121 126 127 126 131 135 134 144 149 156 156 154 156 166 168 173 178 181 186 189 189 192 194 196 195 195 196 203 202 197 196 202 203 204 204 205 203 202 207 207 210 206 203 203 195 193 193 188 199 190 180 180 174 172 171  72  44  83 120 134 129
 118 122 125 121 122  66   3   6   0   6   2   0   3   3   2   6   6   4   9  21  38  62  76  92  97  95 104 112 112 116 119 118 123 124 124 132 136 139 139 143 142 146 141 143 148 150 157 165 175 183 189 188 189 187 188 192 194 193 194 197 194 197 197 205 205 202 203 202 202 194 197 191 190 187 200 175 170 180 187 181 180 186 181 177 170 173  70  43  68 123 127 131
 119 123 124 121 122  84   1   1   0   6   2   1   3   1   3   6   5   8  23  47  71  85  85  95 103  97 106 108 109 114 114 117 121 118 123 129 128 116  97  99 108 114 123  97 100  96  85  72  76  83  87 120 148 172 182 191 193 187 188 190 193 194 202 202 198 201 200 193 194 173 169 151 101  82  67  89 123 121 124 132 141 160 185 177 168 172  78  34  65 130 129 131
 121 122 121 120 122  94   0   4   0   0   1   3   3   4   4   4   5  17  39  66  78  92  91 103  98 109 110 109 108 111 115 115 116 125 116 115  84  69  69  62  51  47  28  18  30  29  20  32  55  63  68  72  79 113 132 170 179 186 184 182 187 196 197 198 203 198 199 180 176 152 122 119  78  82  66  68  48  46  68  94  93  98 122 175 176 160  55  26  76 130 133 132
 120 122 120 118 120  92   0   0   0   0   0   3   2   4   4   3   6  25  46  70  81  88  95  99 101 107 110 109 109 110 114 117 123  97  59  51  39  67  51  35  47  37  31  37  52  54  53  66  57  61  57  69  87  92  93 125 181 173 180 183 187 192 194 194 195 192 191 181 138 136 111 105  76  70  84  81  83  66  63  49  51  72  75  95 146 173  49  47 100 132 139 132
 119 118 119 116 118  99  11   1   0   0   0   1   3   3   4   5   8  27  49  75  84  91  96 100 103 106 110 110 111 109 110 102  59  29  26  36  35  19  51  87  88 112 111 104  90  81  89  62  75  70  66  71  79 113 108 128 155 170 174 178 178 188 192 197 197 192 190 179 134 120 122 110 115 112 123 111 143 133 135 132 127  90  75  78 116 168  52  89 124 136 133 133
 118 116 117 114 124 116  16   0   0   1   2   2   4   5   5   4  12  32  57  77  86  93 100 100 105 105 109 108 111 110  98  70  45  44  49  72  99 106 128 114 129 122 137 143 136 133 122 126 122 129 122 115 114 116 114 125 147 160 167 173 174 185 191 194 193 188 184 177 147 148 149 140 146 144 148 152 156 161 165 172 168 160 107  87  81 143  53 128 129 135 130 130
 118 119 117 113 117 118  46   1   4   9   4   1   3   5   4   5  11  32  56  78  88  93 100 103 104 106 107 105 106  92  63  56  63  82 101 109 116 127 120 135 128 135 145 141 147 149 154 132 139 137 124 125 123 127 129 132 146 155 163 166 172 182 190 196 189 189 181 172 159 159 155 149 142 146 148 156 162 167 175 169 168 171 159 141 100 137  94 133 130 135 132 131
 114 118 118 118 120 125  80   2   4  14   0   6   2   4   8   5  11  30  61  82  87  92 102 103 103 106 110 105 103  70  74  91  88  91 108 111 111 120 124 127 130 129 136 140 146 140 149 152 152 148 138 132 124 125 128 122 129 142 146 149 162 178 190 194 193 187 179 169 156 146 143 137 136 142 153 151 158 163 165 164 165 166 162 157 125 115 112 135 132 132 132 132
 116 117 118 119 117 118 105  15  12  10   9   4   3   8   6   7  13  27  58  80  87  92 104 104 103 106 103  99  83  79  76  81  88  89 107 107 106 105 112 116 119 127 130 134 145 140 149 137 133 140 140 144 130 118 114 120 121 126 137 150 166 180 192 196 199 188 175 153 131 130 126 121 130 133 140 154 155 157 154 156 153 158 160 164 146 119 135 131 134 134 131 134
 115 118 116 118 118 119 102 107  86  13   7   4   4   6   8   7  12  28  57  78  87  88  99 102 103 109 107 104  95  99  91  90  88  88  92  99 100 104 107 104 107  97 102 113 133 141 146 131  98  77 109 123 131 126 106  98 109 119 129 146 167 180 195 200 198 188 158 131 135 127 115  97 110 116 128 129 134 143 139 150 149 144 152 159 150 136 139 130 135 132 131 134
 117 114 117 117 122 102 107 114 112  81  17  11   5   4   7   5  15  29  61  82  86  90  95 100 103 104 109 114 110 106 102  87  81  84  88  95 104 104  85  76  82  95 111  95  68  74  75 103 153 150 101 100 115 132 120 102  97 104 125 141 156 168 187 195 193 188 141 136 128 118 116 123 128 116 126 135 157 158 145 114 134 143 147 155 153 166 150 132 131 132 132 130
 111 111 114 114 124  78  53  76 127 124  76  25   5   8   6   9   9  25  64  75  87  93  96 102 103 109 114 118 115 111 105  89  79  86  84  99  94  85  88  96  75  43  27  15  13  84  97  54  78  46 107 121 129 128 140 115 103  97 108 131 153 161 177 183 189 175 154 147 130 106  70  37  28  71  78  27  21  42 124 146 121 137 150 145 159 167 158 124 131 127 131 130
 111 108 106 111 120  61  37  28  57 120 112  61  29  10  10   9  16  34  65  75  86  94  96  99 103 108 116 120 124 120 115  99  87  95  95 100  89  66  40  32  31  45  40  59  46  24  67  57 171 140  54  57 105 136 150 120 110 101 112 124 142 161 177 182 186 173 164 159  94  78 106  89  72   8  42  72  47 101  15  85 137 116 131 147 171 174 148 134 131 130 130 129
 108 106 106 109 114  99  61  50  43  47 116  89  60  42  23  20  22  35  61  75  77  90  93  98 105 111 117 124 131 128 121 109  88  72  67  64  45  27  30  44  64  99  82  76  89  89  83  95 129 116 103 113 128 141 142 122 108 106 111 119 135 159 170 176 183 178 167 165 125 110 114  84  96  73  60  74 107 116  68  33  31  74 125 156 170 171 152 129 127 133 130 131
 108 107 107 113 105 110  84  65  75  63  39  94  95  59  34  25  19  32  58  76  81  88  90  95 106 112 119 127 135 133 125 115 103  96  86  89  93  94 103 115 127 108  94  92 110 116 132 136 149 137 149 147 153 146 137 120 107 108 111 128 140 159 170 178 185 180 166 171 166 180 150 147 141 133 120 120  97 108 118 135 116 113 129 149 180 174 152 123 128 131 129 130
 108 106 107 110 100 115  95  71  88  93  65  55  85  69  46  29  27  36  60  74  77  85  88  92 106 112 123 131 138 137 134 134 133 130 123 123 116 118 116 116 114 119 133 136 136 138 136 142 148 151 148 144 143 140 123 110 112 109 115 124 134 151 166 176 181 181 173 170 164 153 151 155 153 143 145 159 159 157 157 162 150 158 158 160 179 174 147 126 129 130 130 132
 106 108 108 106 100 124  96  64  96 115 102  71  75  77  57  36  39  33  61  72  76  78  83  90 101 108 121 128 138 139 140 144 141 143 141 140 133 130 119 115 106 112 116 117 125 126 132 136 142 143 146 151 158 140 123 120 112 114 122 124 130 147 159 170 179 181 172 174 177 169 154 140 136 141 141 148 153 155 152 156 171 169 167 180 179 177 147 129 129 131 131 133
 108 107 107 111 104 116 110  72 106 118 117 107  71  74  58  56  42  48  65  72  73  78  83  92  96 105 116 127 133 138 139 145 146 148 150 150 151 147 145 146 140 142 136 141 139 133 140 154 157 161 165 155 150 137 125 122 124 123 124 125 129 145 153 172 186 182 175 173 172 175 183 176 167 157 146 139 146 146 156 170 174 188 181 176 181 176 154 125 128 130 132 132
 107 108 109 111 100 113 106  75 113 120 116 106  75  44  65  65  59  57  63  72  75  79  81  82  89 102 113 129 126 134 139 145 149 152 152 154 153 159 159 160 163 159 156 163 161 157 161 161 163 166 170 156 143 135 128 127 124 124 123 124 130 142 155 169 183 180 178 177 171 168 180 182 179 178 178 174 180 183 180 183 182 186 184 186 181 177 162 129 129 133 134 134
 106 108 108 106 100 124  97  82 113 127 121 103  60  26  68  69  64  71  71  73  73  76  76  76  85  97 108 117 127 133 140 143 147 151 146 158 162 161 164 161 164 166 166 169 166 163 165 168 170 164 168 159 149 143 132 133 127 130 129 116 127 136 152 169 182 179 177 178 176 172 176 180 182 181 181 180 176 184 183 181 184 188 186 186 186 179 164 129 134 133 135 137
 106 107 105 109 109 126 101  95 124 132 116 101  75  57  45  83  74  83  73  72  73  76  77  77  85  96 109 113 121 133 135 142 143 145 150 157 157 164 168 167 174 170 167 168 165 165 168 169 171 162 161 156 153 143 143 139 128 121 118 117 128 130 150 169 178 181 179 178 181 181 181 182 184 184 184 183 183 181 185 187 188 190 190 187 190 176 169 132 132 134 135 135
 105 107 108 113 116 108  98  93 137 128 117 102  82  83  55 102  83  73  68  72  74  76  78  80  83  91 105 111 120 129 133 141 138 143 150 150 153 162 166 169 174 170 169 168 165 167 169 169 170 170 170 165 156 147 143 134 123 118 116 112 125 132 149 170 177 182 180 176 172 182 188 182 183 185 184 185 185 189 190 188 190 190 188 193 184 179 163 129 131 132 132 133
 107 107 109 109 111 101  89 103 138 124 114 110  98 101  75 110  92  79  71  74  76  77  77  77  77  86  98 106 114 124 126 136 134 141 148 150 155 161 162 167 168 165 164 165 170 176 171 169 169 170 167 160 160 154 138 120 107 101 107 114 132 142 154 170 175 180 177 178 176 169 188 188 187 186 186 185 183 189 188 190 190 188 189 188 185 180 165 132 133 132 132 132
 106 111 111 109 115 104  94  95 139 123 118 122 127 117  91 129  79  90  75  79  78  79  77  77  77  88  97 105 112 116 120 129 128 136 142 143 149 156 157 161 164 165 170 169 167 172 173 177 177 174 175 171 159 133 115 112 124 113 107 118 139 150 161 170 182 190 185 182 177 174 173 191 193 192 192 185 187 188 187 187 187 187 188 188 187 180 160 131 133 130 133 133
 106 109 110 107 110 111  95  73 140 129 117 121 116 116  72 101  92  80  75  72  76  77  79  78  80  82  86  95 110 115 117 124 131 133 140 141 145 158 155 159 164 163 165 170 173 176 180 178 179 178 178 175 154 102 110 134 142 132 115 123 139 148 161 170 181 187 189 193 186 178 179 178 192 193 197 195 191 189 189 187 187 187 188 187 183 178 160 133 134 134 135 133
 106 108 110 108 111 114 104  78 122 128 113 109 112 104  93  99 103  82  75  70  73  77  79  78  79  77  90  94  95 103 115 122 126 130 136 139 150 151 150 158 158 163 167 170 177 180 182 185 177 178 175 166 129 101 121 136 141 144 130 132 132 141 154 177 192 207 204 189 183 176 183 176 182 195 197 196 195 194 193 191 188 186 188 188 180 177 155 133 135 135 135 136
 107 109 110 108 112 112 102 116  70 118 126 106 105 105  89  68 102  80  72  70  72  75  78  75  80  78  83  82  97  97 109 109 121 123 132 132 145 145 150 157 158 163 168 172 177 185 189 189 180 181 175 155 101 102 118 135 144 141 143 133 125 123 135 161 164 191 176 170 170 179 184 183 175 184 192 196 196 196 195 192 191 188 187 186 185 176 155 132 135 135 137 135
 107 109 110 111 113 114 104 108 116  77 102 102 128 129 100  68  91  79  71  73  70  73  76  76  75  76  79  84  91  89 100 107 116 123 134 132 138 144 151 160 162 161 168 172 178 188 188 187 188 170 157 130  77  94 104 117 134 127 140 131 120 106 118 133 161 156 174 167 160 169 171 174 165 165 184 187 190 196 197 189 194 193 190 189 186 177 150 131 135 135 137 138
 104 108 108 110 110 113 106 102 127 101  96 103 137 140 132 110 100  84  73  72  69  76  77  79  77  76  73  87  87  91 102 109 109 116 118 126 131 142 148 152 159 162 168 172 177 188 182 184 179 165 154 140  94  63  92 101  76  60  77  87  94  94  95 110 135 150 150  73  50  86 132 168 173 169 170 180 182 190 197 200 193 195 193 187 185 181 146 133 134 136 137 139
 119 103 113 114 112 107 107 100 112 121 106 122 140 125 133 122 108  95  71  70  67  75  75  77  77  77  74  84  86  92  97 106 108 114 117 122 124 136 141 142 152 163 167 172 171 179 177 176 169 169 154 135 107  67  55  78  51  45  30  21  17  36  89  98 131 135 150 149 120 115 163 179 170 167 166 170 177 182 190 193 192 190 192 186 185 175 138 133 133 135 135 137
 132 112 133 137 132 110 106 103 107 111 106 120 143 126 124 120 112 101  76  68  67  73  73  73  72  76  78  83  84  94  97 102 102 108 113 122 126 132 143 144 152 159 163 171 169 171 171 167 165 169 157 146 130 120 125 104  96 115 113 109  81  46  72 114 127 168 174 172 159 173 172 187 174 171 159 157 166 173 181 188 192 191 191 181 184 180 137 132 133 135 135 137
 141 113 159 170 153 116 110 107  94 107  94 117 133 123 121 115 116 112  77  68  70  74  73  74  71  75  80  86  86  87  95 101 102 106 111 117 120 129 140 146 153 158 162 170 169 167 167 165 167 160 159 154 144 142 133 140 132 134 142 134 127 109  95 127 153 177 177 176 175 181 183 185 180 177 156 154 156 166 175 185 190 189 184 177 181 178 132 133 133 135 135 137
 129 116 180 187 169 120 110 104  95  94 103 124 122 118 120 116 117 107  63  76  68  69  70  72  73  82  81  84  86  88  96  99  98 100 109 116 119 131 143 147 155 160 163 170 162 164 166 165 166 160 157 154 148 156 144 148 153 156 150 156 156 152 151 162 174 177 177 178 180 184 186 185 185 177 166 149 142 150 168 180 187 185 176 179 183 168 129 136 133 137 137 137
 106 143 189 200 177 125 102 108 176  78 100 108 115 115 119 116 104  90  28  69  67  67  66  73  81  81  82  82  84  90  93  97  97 103 111 114 120 131 141 144 151 159 162 163 162 161 158 159 157 155 146 157 137 148 155 158 159 163 161 170 171 174 171 168 177 179 183 184 186 189 187 185 185 183 176 161 137 144 153 173 180 187 184 176 182 171 140 135 134 136 135 136
  96 155 202 212 181 136 102 119 169 217 100  78 103 101  97  90  74  55  29  62  62  68  68  71  76  82  84  83  84  91  93  99 100 106 112 113 124 129 137 146 147 158 161 161 161 154 164 157 152 155 147 155 155 161 155 160 165 164 163 171 179 185 176 176 185 187 187 183 186 190 187 186 184 182 189 175 170 112 142 159 170 186 175 176 179 162 135 136 134 133 134 137
 107 166 206 218 193 146 107 145 188 210 218 154  89  89 122 154 200 100  43  45  69  69  70  72  72  78  83  83  82  88  94 100 104 107 113 115 126 131 140 148 160 165 172 156 161 166 163 155 146 148 146 153 152 155 159 160 161 158 158 181 183 182 183 178 184 186 187 183 185 185 187 186 177 182 180 185 189 154 124 156 178 183 174 176 179 157 133 136 131 131 133 138
 123 174 211 223 201 160 122 167 201 218 195 157 109 129 187 210 187 140  57  39  73  69  70  72  74  77  83  85  80  85  95  99 106 110 118 120 126 133 144 152 164 177 175 159 167 167 156 147 141 142 140 142 144 146 145 150 145 149 154 147 160 162 173 185 178 166 163 149 160 159 167 180 185 177 182 179 180 183 117 155 176 186 175 176 173 150 129 134 132 133 132 135
 136 183 209 218 202 169 144 183 204 219 200 153 107 134 183 206 195 141  54  47  72  66  69  69  75  78  74  76  81  88  97 102 107 111 120 119 129 138 146 156 177 185 176 165 156 147 140 140 125 122 128 120 118 107 105 109 115 125 119 133 137 130 135 147 155 147 142 149 149 131 139 145 160 158 164 170 176 180 139 159 186 184 181 174 173 144 132 136 132 133 136 139
 149 187 199 212 202 185 171 189 207 215 191 153 104 147 192 208 179 142  75  54  64  66  65  67  72  70  70  71  78  84  91  99 105 111 120 120 131 140 149 154 174 187 172 174 139 122 106  93  69  48  40  47  57  64  87  84 102  99 117 126 133 126 134 136 147 144 136 133 112 111 120  68  68  89 124 156 159 170 149 170 192 181 183 174 171 139 135 135 132 133 137 140
 161 188 192 199 205 201 188 182 197 206 189 149 105 152 193 205 172 126  89  60  70  71  71  70  72  72  70  71  72  78  88  95 104 111 118 120 130 135 148 152 166 187 187 183 155 144 136 122 109  96  84 102 103 108 104 115 110 112 106 116 127 115 113 118 125 127 130 123 139 137 135 114 127 159 155 164 166 183 159 177 189 180 178 171 163 136 138 134 133 133 138 139
 172 188 176 184 208 217 198 180 185 201 191 148 105 161 194 204 177 124 110  61  68  73  70  71  70  69  68  66  69  79  85  94 104 109 117 122 127 139 143 153 160 182 191 179 172 161 147 152 138 130 116 113 102 110 120 124 134 140 144 145 149 152 151 154 149 151 156 160 161 157 149 148 167 187 177 180 179 184 171 193 188 180 177 170 159 131 134 134 132 131 138 138
 182 184 167 171 201 216 198 168 170 197 196 152 106 166 201 202 167 117 142  64  62  69  64  71  68  69  69  67  67  76  84  95 105 106 112 124 129 135 139 149 159 176 184 183 167 166 146 146 138 139 137 128 133 131 118 118 121 119 138 156 162 159 154 148 147 156 163 162 161 155 158 172 183 185 183 185 184 189 186 191 181 181 174 173 151 131 138 133 133 130 134 137
 184 190 148 148 198 207 183 150 164 207 191 146 113 173 205 198 161 113 142  59  57  77  66  71  66  67  66  66  67  72  82  87  97 107 106 117 125 131 134 142 153 170 175 174 160 158 156 146 144 141 143 138 144 143 140 136 141 132 126 137 149 157 155 154 161 162 159 151 162 173 184 186 184 188 189 188 192 193 194 186 181 177 168 161 142 133 136 132 137 135 136 137
 187 191 148 147 190 191 156 127 174 204 194 148 118 176 203 195 149 104 153  89  78  68  58  65  64  66  67  66  67  69  72  83  88  96 102 111 119 125 129 137 144 158 168 176 160 154 160 148 148 143 141 143 147 151 147 147 155 149 154 157 159 162 169 171 170 172 174 177 184 192 187 185 186 187 192 192 198 200 183 180 177 173 164 146 138 135 137 137 138 138 138 135
 173 172 128 139 164 165 131 120 180 196 202 155 151 192 210 200 154 110 153 105  72  71  63  63  63  65  67  66  66  69  72  76  83  93 101 109 121 126 130 133 144 150 153 167 157 155 161 152 149 145 142 144 145 144 145 148 153 155 156 163 167 165 167 168 173 177 177 183 188 184 187 186 185 189 193 193 202 191 179 176 169 167 158 142 132 134 134 135 136 136 137 135
 132 132 115 113 129 129 101 112 158 179 177 158 156 183 200 192 161 139 165 157  71  64  65  63  64  63  65  66  65  69  69  71  84  89  94 105 115 122 124 127 135 144 151 154 152 152 158 153 152 147 142 142 143 146 144 141 143 151 158 162 167 168 172 176 171 171 177 180 184 184 188 189 191 190 193 193 197 185 175 171 169 161 155 133 133 133 135 138 137 138 138 139
  98  91  93 100 105  99  97 107 121 140 138 139 142 154 168 165 148 136 147 156  59  63  60  59  59  60  64  64  64  67  71  73  78  81  95 101 111 120 122 123 128 131 138 150 149 150 153 152 150 149 146 144 144 144 144 144 142 144 150 151 160 164 161 169 167 170 173 175 182 184 188 191 192 192 190 192 192 180 171 165 168 157 147 130 131 132 133 138 139 138 138 141
 105 100 101 100  98  97 103 107 106 101  98 100 102 109 113 121 115 120 138 160  57  63  65  60  58  60  62  65  65  61  65  69  71  75  96 102 107 117 123 121 123 126 130 134 142 142 144 149 145 147 151 148 152 152 151 157 155 157 160 162 162 165 163 169 174 176 179 183 181 184 190 192 191 191 191 191 189 177 170 164 164 152 135 129 131 132 135 138 140 140 139 144
 104 105 105 108 108 107 105 105 105 106 105 107 107 104 101 100  99  98 104 101  71  68  62  59  57  56  58  57  58  62  63  68  72  76  89  98 107 117 116 121 121 121 124 132 136 141 143 143 146 148 153 153 157 159 158 159 164 169 171 173 171 175 171 173 178 182 186 187 190 188 191 192 187 187 189 189 181 171 169 164 154 146 126 132 132 134 135 138 138 138 139 141
 103 102 103 105 106 106 107 107 106 108 109 108 109 109 110 109 108 107 104 108  63  69  68  59  54  58  59  56  55  57  61  67  71  80  89  97  99 107 110 117 116 117 118 122 129 137 140 142 144 151 153 152 159 160 160 165 172 171 174 178 181 183 185 186 182 191 191 192 190 189 191 191 189 194 191 183 176 170 166 162 149 136 130 130 133 134 136 138 137 138 139 139
 103 104 103 106 107 108 109 105 107 107 105 108 108 108 109 109 108 105 107 111  65  72  70  63  59  58  53  54  55  55  62  59  66  76  84  90  95 103 109 112 113 112 113 115 120 132 137 143 145 150 161 155 156 162 168 170 171 172 177 182 183 186 186 194 190 196 193 192 191 190 189 186 191 193 184 178 171 171 164 158 137 133 132 134 135 134 138 138 138 139 140 135
 102 103 103 104 106 108 110 107 108 108 105 108 106 106 108 109 107 104 106 103  72  72  72  66  58  52  51  49  54  58  58  62  61  69  74  81  91  98 112 109 107 110 113 116 120 127 135 141 142 147 153 157 159 162 168 168 168 172 183 180 184 186 184 191 191 193 192 192 192 194 190 189 192 193 184 173 169 165 158 142 132 134 133 133 135 138 138 138 137 139 139 136
 103 104 104 104 106 110 109 107 109 107 108 108 106 107 107 110 109 107 104 110  69  77  76  73  63  53  52  53  54  57  55  59  60  67  71  76  79  93  99 106 104 105 107 110 110 120 126 133 141 141 146 151 158 162 166 165 168 171 178 180 183 186 183 190 197 200 194 192 192 193 191 191 191 184 173 163 167 158 143 135 135 130 134 133 136 136 138 138 136 138 135 135
 102  99 103 105 109 110 110 109 109 107 108 108 107 108 109 107 107 107 106 110  69  75  74  75  69  60  54  54  53  57  56  59  59  64  65  72  78  87  93 102 105 103  99 103 106 111 115 124 136 139 143 149 158 160 160 164 169 169 177 180 182 185 182 185 192 196 195 194 194 189 191 192 187 172 162 163 165 143 130 131 132 130 132 132 131 134 136 137 138 138 135 137
 102 102 106 107 109 112 109 108 109 109 108 107 106 107 108 106 106 107 106 108  67  77  88  83  79  72  64  55  55  58  59  55  56  62  68  70  75  80  86  93 100 102 102  98 100 106 110 114 126 133 139 145 148 152 153 161 164 169 180 183 181 179 179 176 183 190 188 188 192 192 190 189 177 165 162 159 146 131 129 133 133 133 130 130 134 134 134 135 136 135 135 135
  99 103 107 105 107 108 107 107 108 109 109 107 106 107 108 107 104 106 106 113  83  85  88  86  84  87  77  63  56  61  61  63  64  67  66  66  72  81  78  85  90  92  93  91  93  96 100 107 117 129 137 140 143 148 156 156 162 162 170 175 175 178 179 177 178 184 189 184 189 191 192 186 171 164 156 143 127 129 131 133 134 132 131 131 133 132 134 134 134 135 133 135
 101 104 107 105 107 107 106 104 105 107 108 107 106 104 104 103 105 105 100 109  84  84  84  90  94  97  82  72  64  58  58  57  57  63  66  66  69  75  77  79  86  86  84  88  90  91  93  99 106 116 124 133 137 138 143 148 154 158 163 167 174 174 176 175 175 175 175 179 184 181 180 174 165 152 136 130 130 131 132 133 132 130 129 129 134 133 133 132 134 133 135 133
 100 104 107 106 109 107 106 106 106 106 107 107 108 106 103 103 107 100 112 113  83  82  83  93 100  95  90  81  77  67  60  60  61  65  65  64  67  70  73  75  78  83  84  83  84  84  84  92  97 105 111 119 124 133 138 143 149 151 156 160 166 167 169 168 168 173 173 172 175 173 168 161 151 135 125 126 132 132 133 134 133 130 130 130 130 131 132 131 131 132 132 134
  99 104 107 106 110 108 107 106 106 106 108 107 108 105 103 103 106 111  81  88  86  78  88  93  97  97 102 102  91  82  69  62  64  67  64  64  68  69  69  74  74  76  77  81  82  81  81  85  88  95  99 110 116 122 132 138 146 146 151 153 155 159 157 158 159 161 155 163 168 163 152 147 135 126 123 128 132 132 133 134 132 130 131 130 131 132 132 132 133 133 131 132
 102 104 105 106 108 107 106 106 108 106 108 107 107 110 110 108  72   8  10 131  74  87  90  94 106 101 112 104 100  93  82  71  67  68  65  68  67  69  69  74  74  76  75  75  75  77  78  79  81  83  85  92 104 112 117 126 131 133 138 145 146 141 136 136 142 149 152 155 147 141 139 133 126 123 126 128 131 133 133 133 131 130 130 131 130 131 130 131 131 130 130 131
 102 102 105 106 106 107 105 107 106 108 111 105 105 109  79  25   4  16 130 123  83  96  92  93 106 103 113 106 103 103  97  87  73  70  67  67  67  68  69  73  74  74  74  71  73  72  75  79  79  77  75  80  91  97 104 110 117 121 124 127 128 129 122 122 124 129 131 135 129 126 146 128 124 124 125 126 127 130 130 132 131 132 130 131 131 131 130 130 131 131 133 132
 103 104 103 106 105 106 107 105 107 105 109 102  95  35  23  17   2 106 133 137  85  91  99  96  95 110 112 115 114 105  99  94  90  80  74  68  67  65  68  71  74  74  72  71  73  73  75  77  76  73  74  72  71  74  84  89  96 100 106 108 107 105 107 109 115 117 116 128 128 141 167 122 123 119 125 126 124 130 130 128 130 132 132 131 130 130 131 129 130 130 129 130
 104 102 104 107 107 108 106 107  99 109 106  75  24  38  18  12  50 141 138 136  94  92  99 108 102 105 121 119 117 112 110 103  97  87  78  74  70  69  66  66  67  67  69  69  72  71  72  73  74  71  73  76  73  72  74  77  77  79  93  97  97 103 103 102 109 121 122 127 148 172 165 112 120 119 124 124 125 131 131 129 128 131 132 131 131 131 130 130 129 130 130 131
 102 102 105 108 110 108 106 103 105  96  45  28  31  27  15   6 127 139 142 149 105  95 103 105 113 109 110 119 121 119 118 112 106 100  93  82  78  78  75  70  68  69  67  70  70  70  70  70  70  69  74  75  76  76  81  88  83  85  92  98 101 102 106 113 120 121 131 153 166 173 156 111 117 119 120 125 124 132 132 126 125 128 132 130 131 130 132 131 131 130 131 129
 102 102 102 110 111 108 113  98  59  38  27  36  31  22   2  84 143 147 148 150 132  91 101 110 113 119 122 122 122 122 124 122 118 109 101  95  85  81  80  78  72  69  70  73  72  71  71  71  71  71  72  73  75  75  83  89  94  99 107 103 106 111 116 119 118 139 158 168 171 176 153 115 117 120 123 126 124 131 131 128 126 125 126 126 127 128 132 133 131 132 133 131
 104 103 106 104 113 103  78  35  42  42  37  36  33  20  45 132 147 150 152 150 180  81 106 114 118 119 128 133 127 122 123 123 125 116 111 106 101  95  90  85  81  76  75  74  75  75  73  75  74  74  72  73  75  77  84  91  92  96 103 106 107 111 115 126 142 157 168 179 178 175 146 116 119 120 125 125 126 131 130 127 126 126 127 126 126 127 130 130 131 133 131 132
 105 108 103 105  63  51  28  41  40  35  38  36  38  12  97 146 145 149 155 151 194 104 102 121 122 121 131 134 136 133 125 128 130 126 123 117 110 104 103  97  92  86  81  79  77  76  76  78  78  80  79  82  79  88  89  95  98 107 107 119 119 125 131 148 154 168 179 178 176 176 147 116 119 122 125 125 128 131 130 128 126 127 127 126 127 128 135 133 130 135 132 132
