P2
# Generated by OpenCV 4.2.0
92 112
255
  56  64  70  69  71  83  98 102 103 105 113 117 115 115 116 111 121 150 175 192 203 211 201 187 182 170 170 124  47  13  25  25  27  23  21  11  11   8  22  15  19  20  18  43 140 106 108 110 117 140 121 130 118 113 115 127 126 123 114 100  86  86 130 206 205 186 182 179 168 173 184 187 177 164 167 179 186 183 176 179 184 190 184 178 188 198 194 191 195 199 199 195
  57  64  70  73  75  87 102 103 105 109 116 118 102 104 118 118 131 157 190 202 199 198 179 186 187 104  20  22   8  14   9  16  24  31  24   9   6  13  17  16  21  14  12  23  22  45  89  88 117 100  75 111 111 107 115 130 110  93  29  21  16   1  15  26 201 216 211 208 197 199 206 210 202 198 198 203 207 207 207 203 206 210 207 202 203 205 207 208 214 209 211 210
  57  64  69  75  83  96 106 106 106 108 116 116 100 103 111 118 141 169 196 206 198 193 182 175  48  22  15  16  15  11  12   6  12  21  23  29  18  10  14  28  23  17  15  17  27  25  53  31  56 106 113 105 122 135  88  60  40  25  25  28  65 116  30  40 145 227 225 229 217 215 216 220 218 215 212 212 215 215 215 215 214 215 212 210 211 214 215 215 217 214 215 216
  55  68  73  80  88  92 100 107 106 105 107 111 107 109 111 123 141 167 190 187 178 176 121  26  24  15  22  17  11  10   7   5   5  19  23  23  33  21  19  20  16  21  19  16  18  29  35  41  59  99 111 116  81  67  57  52  47  35  33  25  21  23  30  35 160 207 228 232 227 223 223 227 225 224 221 220 220 217 216 216 216 217 217 217 219 219 219 218 216 217 216 217
  63  74  76  83  82  81  95 102  99  93  99 108 109 119 124 123 136 169 180 156 154  96  23  29  33  16  22  18  14   8   5   4   2  10  27  17  39  20  22  16  24  31  22  29  22  29  38  34  61  92  78  65  73  87  77  69  37  24  26  22  18  22  31  39  80 172 205 212 226 229 227 227 229 226 224 225 220 219 217 217 216 216 216 217 218 218 219 216 216 214 216 217
  64  68  73  88  85  89  98  96  91  91  96 100 104 117 122 120 138 170 164 169  77  53  30  41  26  29  10  15   8   8   5   5   4   6  11  44  29  33  21  22  19  45  24  34  24  31  29  45  68  47  88  70  70  51  47  48  43  50  43  31  24  11   8   9  15  36  89 179 207 221 235 231 229 228 225 223 219 219 219 217 217 216 216 217 216 216 216 214 213 213 215 217
  66  63  76  94  96  93  95  95  90  94 100  95  97 106 115 122 149 181 153  97  36  32  51  27  26  22  10  18  13   7   7   4   5   5  21  42  15  40  24  50  23  38  38  31  35  29  31  47  57  78  45  61  65  72  46  48  49  46  31  40  36  27  19  18  12   8  13  31 118 223 219 224 229 222 228 224 222 220 220 218 215 216 218 216 216 215 217 217 213 212 215 214
  69  74  81 100  96  84  92  90  93  97  96  91  98 110 108 136 156 140  96  42  42  53  36  26  10  17  21  21  25  19  11   8   6   4  16  15  46  56  30  58  52  44  43  44  42  29  38  51  67  57  70  61  35  43  44  51  60  59  71  55  50  44  45  46  36  32  22  20  20  83 203 228 227 227 224 221 221 221 221 219 217 216 217 217 217 214 217 218 214 201 185 201
  76  74  76  89  88  91 105 105 109 103  98 101 106 107 124 149 197  41  56  28  31  35  30  34  41  37  46  37  40  49  41  34   9   3   6  22  48  63  50  56  52  73  43  65  38  36  26  43  67  66  55  56  34  40  77  87  74  91  86  73  61  44  42  33  44  41  36  32  32  22  79 194 222 219 225 226 222 220 220 218 217 218 216 216 215 216 214 215 212 191 144 135
  77  75  75  79  86 102 111 112 121 115 104 105 108 121 139 169  33  38  31  22  30  47  40  20  28  22  31  37  35  46  34  30  35  20   6  17  41  82  69  72  78  76  56  89  36  38  33  66  67  72  52  29  32  71  71  66  57  66  86  85  74  76  67  59  42  37  31  22  31  60  34  54 208 222 226 222 221 221 222 220 217 217 216 216 216 215 212 213 211 207 199 188
  80  84  78  80  91 101 110 112 116 108 105 112 111 122 126   4  21  33  35  38  51  32  25  30  23  22  18  26  36  39  56  49  22  33  12  16 100  71  75  88  84  73  71  75  47  36  44  66  73  39  18  32  66  52  35  50  62  86  65  41  25  23  28  34  50  46  40  31  23  10  36  37  55 228 220 227 223 219 220 215 219 218 216 216 215 215 213 213 213 213 213 209
  88  90  84  86  98 112 121 121  99 105 102  97 120 108  99  43  43  30  36  52  22  21  20  20  23  24  24  26  34  52  52  47  46  15  35  10 117  74  80 109  68  37  42  56  60  42  57  50  51  30  21  63  47  20  37  32  33  33  47  47  51  50  54  54  26  17  29  35  29  25  13  26  42  49 229 219 224 221 218 228 217 218 216 216 215 215 212 212 213 214 212 214
  88  90  90  97 117 128 123 110 103  94 107  98 113 100  39  18  27  32  33  14  17  16  14  17  21  21  24  26  47  70  80  63  31  20   7  45 125  79  57  94  62  23  27  57  57  57  65  30  21  25  48  35  13  29  27  57  83  73  65  59  57  50  38  32  54  65  37  22  32  25  19  13  29  27  34 219 218 221 224 219 220 216 217 214 213 214 214 212 213 211 209 211
 107 102 100 116 137 143 128 120 106 108 112  73  68  33  17  30  32  24  20  14  12  19  15  14  16  22  30  33  26  41  53  59  55  14  16  66 112  53  29  75  48  15  22  53  80  68  63  32  12  41  51  22  22  35  51  84  38  48  91  57  29  47  69  83  60  58  50  68  36  29  30  24  34  37  20  55 239 217 216 220 218 217 216 214 213 213 212 213 214 211 213 211
 123 114 120 121 133 143 132 124 124 109 105  11   6  24  12  32  28  23  20  21  29  25  30  25   8  18  21  38  51  41  51  41  21  43  11  47  97  37  20  59  33  14  13  62  84  63  77  18  13  41  32  25  24  44  64  29  23  71  54  29  49  45  74  59  49  39  49  33  36  62  35  50  13   0 159   3 123 224 221 214 219 218 216 215 213 213 212 211 215 212 211 210
 137 134 134 124 138 150 138 136 125 113  52   9  14   7  14  23  21  24  35  37  24  26  24  28  33  31  35  13  49  86  39  67  68  55  30  36  60  25  15  36  17  16  16  42  43  71  74  17  15  44  19  19  36  36  35  28  28  49  35  21  60  29  82  61  59  40  30  24  47  29  46  51  30  20 120 164  13 200 220 229 215 218 217 215 215 214 213 214 212 211 213 211
 149 148 142 138 142 146 141 141 144 117  16  19  13  12  34  17  12  33  44  33  26  18  27  26  33  39  29  66  17  53 119  38  82  44  52  37  44  24  20  21  15  14  17  32  24  28  83  10  22  54  13  19  37  35  24  24  35  14  33  51  25  65  40  36  32  43  39  22  27  17  43  47  68  41  78 239  66  69 235 217 218 217 216 216 215 214 214 213 213 213 215 214
 156 151 148 144 137 147 153 152 138  20  31  14  32  35  35  27  44  61  23  29  37  36  23  37  35  49  50  32  63  12  65 108  29  63  37  27  37  14  22  18  15  15  22  20  17  20  58  30  37  37  19  29  36  38  27  46  49  29  23  28  36  26  47  42  55  60  59  64  41  37  18  34  55  67  30 177 206   9 192 219 221 217 217 217 216 214 215 214 212 215 214 213
 171 157 152 148 135 138 148 142  61  28  25  38  10  14  24  43  55  29  34  24  28  37  51  39  55  34  70  70  70  60  29  58  68  24  29  18  38  22  22  22  20  19  32  22  33  23  32  39  44  38  28  43  58  43  34  53  41  34  29  26  21  34  53  81  77  74  77  77  63  53  31  38  50  53  55  50 200  30  75 229 218 219 217 217 214 216 214 215 215 215 214 214
 180 162 150 138 126 127 145 104  37  44  57  12  13  19  22  41  62  32  33  34  47  65  46  44  53  28  24 119  64  80  52  27  52  32  19  18  21  16  20  20  26  26  26  47  40  34  35  36  49  47  40  50  75  62  68  59  55  53  44  27  40  32  47  55  44  41  35  51  76  69  63  25  50  49  57  40 138 102  15 229 219 216 214 216 218 214 215 212 213 213 214 214
 193 168 153 144 125 140 140  53  42  46  29  12  15  11  12  27  61  68  35  82  69  71  65  67  52  67  49  39  92  79  86  28  18  27  24  32  15  26  31  26  29  28  39  63  67  59  46  44  60  61  62  83  96  97  83  86  79  72  66  58  39  39  52  27  23  56  91  76  71  47  72  74  40  44  44  51  59 173   3 184 220 212 219 216 222 217 216 215 213 214 214 214
 206 183 165 159 147 142  97  53  38  24  12  26  13  16  38  23  65  94  87  45  70  61  87  50  55  66  76  46  44  67  53  32  29  18  14  39  20  19  23  27  35  44  63  40  44  64  72  69  79 116  93 118 135 122 125 118 115 102 100  80  69  54  44  33  33  53  61  45  79  63  41  64  42  44  51  41  29  56  28  63 200 216 212 218 221 217 218 215 215 213 214 214
 214 195 177 168 158 151  76  80  27  23  14   6  12  15  43  17  11 123 108  93  59  59  75  85  74  62  62  51  36  45  37  38  24  19  21  23  35  21  20  25  31  34  41  58  65  79 104 123 135 160 152 163 176 175 175 168 142 121 130 115 113 123 108  73  55  29  74  52  66  81  67  75  85  49  42  38  28  38   9 172 114 206 206 218 216 217 216 215 214 214 215 213
 219 209 192 172 163 152  44  49  50  14  11  10   3  28  27  29  35  66 131 102 121 116  66  56  65  70  71  64  45  43  40  45  32  26  24  24  24  39  40  33  35  39  49  52  68 107 132 138 181 187 192 199 200 189 176 182 172 167 165 153 147 147 160 133 110  73  60  89  63  57  73  57  74  52  47  26  27  20  16 104  66 150 193 221 218 216 215 215 213 216 214 213
 223 215 205 185 180 167  70  39  35  10   7   8  11  18  35  43  46  37  72  98  79 107 106  81  72  66  63  63  61  50  51  47  47  43  41  39  33  36  52  57  60  67  74  90  96 118 154 186 200 198 200 213 202 200 200 193 190 186 184 180 171 170 174 187 155 128  77  79 107  48  71  75  66  54  44  37  15  20  11   5  95 105 114 214 211 216 218 216 215 215 215 213
 224 222 216 212 194 152 106  92  20   4   7   2  10  19  28  51  60  35  36  56  77  69  79  82  80  80  90  92  81  85  69  70  65  70  60  57  60  56  55  63  70 100 129 159 175 178 194 208 209 208 204 205 206 203 196 203 206 196 188 189 174 176 182 191 180 176 129 100  79  60  47  44  78  65  44  34  23  16  18  26   8  71 116 198 213 210 215 214 216 215 215 215
 219 224 223 221 201 173 108 149   8  11   4   5   8  29  29  89  63  19  29  32  42  76  93 106  87  85  87  86 102  89 102  90  94  85  84 100 113 119 127 142 160 193 200 200 205 209 210 213 206 206 205 204 201 202 203 204 202 193 197 191 185 189 189 191 191 187 171 128  80  71  53  67  72  80  40  32  19  34  16  15  15  65  47 136 223 216 217 216 214 216 213 212
 208 221 221 202 203 195 104  98  31   8   1   4  10  32  59  87  39  13  37  44  99  30  73  79 105 101 104 106 119 105 106 103  92 106 136 139 143 167 193 186 198 204 205 208 209 207 206 200 205 204 206 204 203 200 198 201 199 194 197 198 190 190 184 192 190 192 188 159 110  59  60  56  36  80  40  26  25  27  17  14  40  41  52  62 184 220 215 217 216 215 214 212
 204 218 219 211 201 157 144  62  26   2   5   3   3  28  54  83  42  25  33  63  93 104  54  72  84  89 101 108  92 104 127 126 147 161 138 158 190 202 200 202 202 201 208 207 208 206 203 202 204 202 201 199 197 194 194 197 195 194 197 195 190 187 184 185 186 191 185 172 143  89  50  52  50  81  44  31  32  30  24  17  40  24  28  62 220 213 218 217 216 215 215 213
 203 220 210 197 151 110  36  14   2   4   2   4   2  18  21  50  41  53  46  87 120 122 123 100  77  79  98 121 116 123 143 158 148 153 177 184 192 196 198 203 201 207 202 202 201 199 200 200 200 197 195 194 194 195 193 196 196 196 198 194 189 186 187 182 179 186 187 188 168 117  59  50  70  71  51  17  19  24  24  39  19  27  22  88 222 218 218 214 215 215 213 213
 199 213 191 168 175 122  23  12   4   4   5   2   4  10  15  38  72  74  86 111  85  73  69  82  94 104 124 134 150 153 148 173 186 182 190 191 192 197 200 199 207 203 205 205 203 201 202 200 199 198 197 197 197 193 191 193 193 194 194 194 192 190 186 184 181 182 188 185 182 163  99  61  61  65  51  33  22  21  18  27  24  23  26  38 192 217 219 216 216 214 213 212
 177 179 159 146 155  94   8   5  41   2   5   4   2  10   4  40  89 129 116 136 125 101 114 131 152 160 166 181 187 192 193 192 195 195 194 197 197 202 202 205 201 206 206 209 205 203 205 200 197 196 197 197 196 196 197 194 193 194 189 193 193 192 188 185 183 181 186 187 182 176 132  96  52  69  54  16  24  31  39  23  21  20  15   9 217 220 220 216 214 215 214 211
 156 147 138 129 127  94   0  62  27  10   7   3   4   5   8  25  82 150 120 135 129 149 161 174 184 187 194 196 193 191 196 192 190 197 197 195 198 199 198 201 202 203 201 199 204 204 203 202 199 198 199 197 198 194 193 195 193 193 195 194 192 190 188 189 188 180 183 184 178 183 166 103  76  64  67  38  26  24  22  25  26  18  20  15 104 218 219 218 213 213 214 213
 146 133 121 109 118  44  14   4  71  15   9   9   5   7   9  17  95  94 118 148 147 160 164 175 184 185 191 186 188 185 188 190 189 188 191 194 198 201 199 200 198 200 203 203 201 207 206 205 202 200 199 197 199 196 198 197 194 193 193 190 191 191 191 188 189 185 181 175 177 176 177 145 102  58  66  55  49  30  29  35  28  33  24  24  62 229 212 222 217 215 213 212
 134 111  96  96 100  67   1   7   5   9  11   8   7   3   5   8  73  79  85 141 152 163 165 173 180 180 186 180 189 189 190 193 193 196 197 199 199 198 197 204 203 206 205 204 202 203 206 205 203 204 204 201 201 197 197 194 192 191 190 193 193 190 188 190 187 183 178 169 174 181 184 162 113  68  69  26  42  44  31  29  35  19  22  20  20 171 216 215 219 212 214 214
 103  88  88  90  99  86   9  11   2   1   5   3   6   4   3   7  43  52  88 144 155 165 165 173 177 179 183 187 190 191 191 193 194 198 199 200 199 199 199 202 202 203 201 202 204 202 205 205 200 200 206 205 204 198 198 194 194 193 193 186 189 192 192 190 190 186 185 178 165 175 183 171 154  98  50  49  38  33  34  37  27  28  19  21  17 191 220 217 219 213 214 215
  91  80  76  78  87  58   8   4  13  18   3   4   5   4   3   3  29  35 104 143 156 161 164 171 175 175 180 187 190 191 193 194 195 202 199 199 198 202 196 203 202 204 204 203 200 200 208 207 204 201 206 206 206 201 196 190 193 192 190 190 189 189 187 187 189 187 182 179 176 173 180 173 172 109  87  37  31  34  29  39  38  26  23  22   8 204 217 221 216 217 215 214
  89  77  67  75  76   3   1   9   6   4   4   3   4   5   3   4  15  30 127 132 153 161 170 172 172 177 182 184 186 184 190 192 194 193 197 196 197 199 197 204 203 206 206 207 206 209 209 208 207 207 207 206 204 205 202 197 192 193 191 190 190 191 188 188 191 187 181 178 179 179 178 176 157 137  96  69  49  88  56  44  33  40  39  29  25 135 222 218 218 216 215 214
  68  62  64  79  43   3   3  11   9   3   6   6   8   7   7  10  17  65 114 139 155 161 169 172 172 176 179 181 185 189 191 194 195 199 200 200 201 204 202 202 202 205 206 205 204 205 205 205 207 207 206 203 203 202 199 193 190 193 194 193 189 189 187 189 190 189 185 181 175 182 178 169 162 138  89  70  36  32  48  37  32  28  25  24  24  85 222 218 217 217 215 216
  58  57  60  81  23   7   1   4   8   6   4   5   8   9  11  10  14  98 113 142 158 164 166 170 175 179 181 185 189 190 190 191 194 194 195 198 199 199 195 195 200 200 198 198 200 199 200 199 203 200 202 202 200 199 200 195 192 192 192 194 193 190 191 189 189 191 186 180 177 181 183 171 145 121  83  51  30  31  20  22  18  22  28  19  16 130 218 220 220 218 216 218
  54  52  57  65  39   4   7   3   3   5   7   7   6   8   5   8  87 104 116 140 156 164 167 172 178 179 182 185 186 189 189 191 191 193 197 196 199 201 198 201 205 203 203 204 205 201 202 201 199 199 194 198 198 196 197 195 194 191 193 191 192 192 192 188 188 190 183 180 181 177 179 168 139 104  77  33  24  11  24  17  14  12  19  20  15 217 224 222 219 218 219 219
  50  53  55  65  42   5   1   2   3   4   6   5   5   9  25  85 122 111 123 133 157 167 167 169 176 176 181 185 187 190 189 189 192 198 199 203 200 202 201 202 204 207 205 202 202 203 202 203 198 198 197 196 193 193 194 192 191 190 191 196 193 192 191 188 191 188 185 181 183 178 174 159 138  97  59  25  19  12  13  10  14  19  16  22 126 233 228 219 215 219 218 218
  49  54  60  68  32   6   3   4   4   3   4   7  17  29  85 108 119 113 125 142 157 167 166 168 173 175 180 184 187 188 190 191 194 192 195 199 198 198 199 201 200 204 200 199 198 200 202 203 201 199 195 195 195 196 196 194 192 193 195 195 192 189 189 190 190 188 184 183 180 184 174 150 123  86  57  28  15  14  14  11  14  12  24  40 231 221 219 223 216 218 219 219
  52  56  62  64  55   6   3   2   3   2   5   8  14  37  64 110 124 122 128 146 156 162 167 169 171 174 178 182 184 186 187 189 192 197 199 200 204 203 199 200 206 204 204 204 202 200 204 203 200 200 196 196 197 196 194 195 196 195 192 194 192 190 190 190 190 188 184 184 180 178 166 149 136  85  46  24  12  11  14  12  13  23  22 111 223 224 220 218 222 216 218 219
  51  53  58  60  68  11   4   2   5   2   4   8  10  26  57  97 122 124 129 141 157 165 166 168 173 175 180 185 186 187 193 195 198 200 205 203 204 200 205 207 209 207 209 204 202 201 204 205 200 201 200 200 200 199 199 198 199 199 196 194 194 192 191 189 189 188 186 185 183 179 172 147 133  93  52  18   9   8  12  11  14  15   9 199 220 219 221 221 218 217 219 222
  53  53  52  54  57  45   2   6   0   6   3   5  14  22  55  94 121 126 131 142 155 163 166 172 176 181 183 185 189 193 196 198 201 204 205 205 204 205 207 211 206 205 207 204 202 202 203 202 202 203 198 198 201 202 203 203 203 203 200 198 197 194 192 190 189 187 186 184 183 182 178 169 144 105  48  23   9   9  11  14  19  25  20 238 224 219 217 216 216 218 221 222
  53  51  50  50  52  55  20   5   4   6   4   6  10  24  49  99 121 128 130 145 153 162 167 175 180 183 187 191 196 197 200 201 204 208 209 211 210 210 210 211 206 206 208 207 206 205 205 205 203 208 208 205 204 207 207 207 206 206 205 200 197 193 191 193 189 187 186 184 187 179 179 173 158 147  92  25  13   8  10  10   7  11  75 222 219 213 210 210 212 213 219 223
  50  52  48  50  47  49  37   4   5   8   4   7  12  22  58  95 115 125 128 140 148 162 164 175 185 190 194 197 198 199 202 206 209 210 211 212 215 213 210 215 213 212 211 210 209 206 206 202 207 207 211 212 212 212 211 211 208 208 208 203 199 197 195 191 190 187 186 184 183 180 179 171 176 168 155  69  16   8  10   7  13  29 166 207 193 173 173 199 205 205 215 224
  48  47  46  45  48  43  43   8   3   6   7   5  12  39  70  96 112 117 121 130 141 157 171 183 188 193 196 198 198 201 206 210 211 213 215 218 217 218 217 221 220 217 216 216 216 209 208 210 214 214 211 215 216 213 214 215 212 209 209 206 199 197 196 192 190 186 183 182 179 182 168 171 173 167 157 113  25   9   9  11  21  51 131 118  99  85 121 180 200 199 208 218
  46  44  42  41  40  40  40  32   4  10   3   8  15  52  74 100 111 112 117 122 142 160 172 188 185 195 197 195 197 204 202 211 210 217 216 220 218 220 214 223 220 215 216 219 215 212 205 215 218 218 217 220 212 216 211 214 217 212 209 203 204 198 199 188 188 186 181 180 176 174 169 170 166 160 157 127  31  12   6  19  32 192 185 169 172 178 185 195 200 204 201 205
  40  39  37  36  35  33  33  35  18   4   5   3  21  60  84  89 106 105 108 123 153 142 150 150 158 178 180 174 188 199 213 212 207 213 213 208 220 212 210 213 211 216 217 220 215 213 211 213 220 206 224 192 200 212 194 201 212 200 197 207 193 191 203 198 195 195 177 178 172 172 171 172 167 161 152 128  47  18   9  20  60 144 149 218 221 223 224 218 208 209 203 194
  35  33  31  32  30  30  30  32  33  10   3   7  26  55  81  88  98  99  97 121 142 122 111  93 103 122 117 105  89  77  74  92 130 190 200 199 200 214 207 210 212 215 220 215 217 216 208 202 193 190 140 152 133 117 126  93 135 158 170 167 164 136 137 171 154 176 190 182 177 169 168 172 165 165 152 129  52  25  13  34 158 182 181 134 233 223 220 213 198 194 196 180
  31  31  31  31  31  31  26  30  35  11   5   2  26  60  84  91  97  95  80  65  49  75  51  28  39  53  23  31  65  70  66  73  80  84 125 159 182 210 208 208 210 210 219 209 213 211 205 190 167 146 158 119 106  82  80  93  86  78  75  76  76  99 116  95  84  87  98 139 168 170 169 169 171 167 154 130  60  25  23  81 192 187 142 139 217 205 195 189 178 178 171 149
  31  32  31  29  30  28  26  28  63  18   5   6  21  64  88  93  97  67  17  34  51  28  44  62  48  21  43  34  41  53  56  68  65  90  89 107 158 189 204 205 205 206 214 209 212 209 203 187 133 111 115  85  92  88  64  55  67  75  54  63  67  86  91  95 112 124 124  83 126 166 164 171 171 166 159 136  61  28  17 131 201 171 138 177 205 182 165 153 140 134 134 125
  29  29  29  29  28  28  28  26  84  53   6   2  21  70  88  92  86  29  36  26  59 111 137 140 134 153 124  97  97  77  74  69  70  79 104 125 135 181 197 199 197 202 207 209 206 205 204 176 125 137 162 143  98  93 101  86  95  93 104 124 137 124 133 125 118 118 124 104 106 128 158 177 174 170 165 142  60  26  25 158 188 141 185 179 190 171 158 143 122 115 109 106
  29  28  28  24  26  26  26  30  45  54   6   6  23  75  87  86  62  39  60 133 142 166 161 162 166 162 160 153 150 138 134 128 126 117 128 120 132 172 188 191 189 195 202 202 206 203 191 181 141 139 149 153 144 146 141 149 153 166 174 180 177 180 175 175 172 171 153 120 104 102 111 166 175 173 166 149  71  32  32 167 158 166 200 190 152 142 140 134 122 111  97  95
  29  29  27  28  27  27  28  29  14  55  22   4  27  78  88  79  42  43  97 122 143 159 157 157 151 150 145 149 148 145 143 144 134 132 126 131 133 147 175 177 183 191 199 203 203 197 188 178 152 152 152 138 133 131 135 137 134 147 166 170 164 175 169 169 172 171 166 157 142 149 171 165 178 177 169 153  97  37  34 164 200 172 216 188 127 116 113 109 104  95  86  86
  29  29  28  26  28  28  29  31  35   9  29   5  28  75  89  74  65  78  86 107 129 142 146 140 136 109 109 126 148 140 125  88 132 135 138 134 129 127 142 160 164 182 195 201 201 196 174 168 150 140 135 128 111  71 107 139 164 163 170 137 116  97 130 147 149 156 158 150 158 168 180 182 178 174 171 158  96  43  44 206 204 173 210 188 120 106  99  96  98  86  67  72
  29  28  30  28  28  28  29  27  43  69  13  10  27  77  94  92  98 102  95  98 114 134 135 134 115 147 161 172 179 161 175 192 130  76 142 137 130 123 119 135 159 177 194 206 204 196 184 166 150 142 135 122 120 147 124  83  47  23  31  68  92 157 146  80 133 147 148 149 160 174 185 185 183 177 170 155 108  39  97 210 204 180 211 167  94  93  84  90  93  77  61  60
  29  29  28  28  29  29  29  28  27 139  52  12  33  80  99 108 130 134 120  95 110 135 142 123 148 122  77  37  29  23  44  51 107 156  93 123 150 143 122 117 147 176 200 216 207 200 190 169 154 147 137 143 135  76  80  73  68  54  62  36  60  32  60 133 117 137 147 156 175 190 194 192 189 180 171 152 123  40 166 210 207 186 208 144  88  84  74  76  81  71  61  55
  29  29  29  26  27  29  28  30  22 125  81  30  32  82 101 126 152 155 148 114 113 133 134 118  65  26  63  53  87   8  71 104  87  78 117 139 136 165 146 117 140 177 194 212 208 198 195 180 178 183 181 119  77 127 199  96 101  70  91  69 175 111  52  34  82 132 143 156 181 195 198 196 190 179 169 152 132  66 170 206 209 199 206 114  84  80  70  64  64  64  58  54
  29  29  29  27  27  28  28  29  19 140 107  69  28  74 100 133 168 173 166 135 110 119 100  49  37  81 172  73 112  95 113 112 164 180 132  61 159 191 171 130 143 171 189 201 203 196 193 183 192 204 165 159 166 158 152 142 144 156 145 153 128 120 133 125 129 151 168 175 187 197 197 195 190 178 168 150 139  78 188 195 205 211 193  74  74  68  65  60  57  53  52  52
  29  29  29  29  28  29  27  26  25  96 118  95  27  67 102 138 173 185 178 157 133 109  59  39  98 118 148 162 141 143 182 163 177 183 182 207 204 193 172 129 148 174 191 197 199 192 189 184 187 203 204 195 170 166 167 158 173 132 182 151 185 174 164 162 179 189 192 193 201 202 200 198 189 181 161 147 136  91 204 192 208 215 176  55  59  61  57  54  55  53  53  54
  29  29  29  29  29  29  28  30  26  73 158 116  33  57  90 135 173 187 183 171 149 123 120 110 120 128 109 132 108 155 187 184 185 179 184 185 188 181 152 135 150 179 190 201 201 195 190 182 185 196 195 180 166 157 149 154 153 154 168 159 163 159 167 186 195 191 194 197 199 198 200 197 188 178 156 145 131 168 208 207 210 218 155  57  62  60  55  56  59  63  57  59
  30  30  30  28  27  29  28  26  33  66 164 157  39  54  78 135 172 189 190 189 178 175 166 144 121 123 134 150 163 164 161 162 167 179 179 182 194 171 142 137 159 177 190 200 202 198 192 184 183 186 198 198 198 188 186 182 174 178 171 176 180 187 192 200 203 202 201 198 197 194 194 192 185 174 152 145 138 216 209 206 206 216 138  60  58  59  57  57  62  68  76  85
  31  31  31  30  29  29  28  31  28  61 174 173  77  52  71 126 168 181 186 191 188 193 183 177 170 156 141 147 155 165 175 172 189 186 203 204 186 157 140 141 158 181 195 201 205 198 194 191 185 186 189 193 210 205 200 199 199 197 203 199 201 204 204 208 208 203 205 202 199 197 196 190 178 167 149 143 129 218 207 196 201 207 131  55  56  60  60  61  65  78  98 113
  30  30  31  29  28  29  28  29  26  25 160 155  99  44  68 126 158 176 183 188 192 193 192 190 187 185 190 185 187 191 191 194 198 207 213 195 175 159 145 149 152 184 197 202 206 197 195 195 189 190 191 190 203 209 209 211 206 205 205 205 206 206 209 208 210 203 200 199 200 200 197 188 175 163 144 141 133 221 202 192 211 194 134  57  59  59  61  63  69  78  95 112
  30  30  31  30  29  29  26  26  27  19 118 148 105  40  60 117 152 172 177 186 193 196 196 195 195 197 197 198 200 201 199 206 212 214 205 186 170 156 149 147 147 179 193 201 201 195 193 194 192 190 195 196 199 200 204 207 204 206 203 205 203 204 207 210 210 207 203 199 199 198 195 185 175 161 141 143 126 213 185 197 200 192 143  61  64  67  70  72  73  70  77  93
  30  30  30  30  28  29  25  25  22  22  83 152  98  39  53 105 144 166 173 176 184 191 194 196 201 203 203 203 205 204 204 209 209 203 192 181 168 160 155 143 144 178 196 204 200 196 190 194 197 196 196 198 201 203 201 203 206 205 200 202 202 202 204 205 208 208 204 201 199 195 191 183 172 156 138 141 130 185 203 196 187 203 141  60  69  81  86  79  70  70  67  75
  30  29  29  31  29  27  28  22  25  23 124  94 129  32  54  88 136 158 167 175 183 190 194 198 201 200 197 197 199 198 204 208 205 198 188 178 168 167 152 138 144 177 199 205 199 194 191 192 195 196 201 204 207 208 207 207 202 202 203 203 201 199 199 201 204 206 203 200 197 190 186 180 169 153 134 145 127 201 202 209 201 201 136  56  68  78  81  72  62  60  64  67
  31  30  28  31  29  29  26  25  14  31 130 118 158  28  48  75 122 151 164 173 183 189 193 197 199 199 198 200 202 204 207 206 207 196 190 185 169 159 141 134 149 176 199 202 200 196 191 188 186 188 194 205 209 211 211 208 207 205 203 204 204 205 206 205 205 204 202 198 193 189 183 175 163 149 132 149 130 218 220 212 208 202 147  54  68  73  73  66  60  61  65  66
  28  31  30  30  28  28  26  24  15  44 124 150 153  40  43  60 107 139 163 172 177 189 191 193 195 196 200 195 200 205 204 209 204 202 200 189 166 156 123 135 150 184 200 203 202 200 194 185 181 184 184 194 201 204 208 213 212 210 207 206 205 206 210 204 204 204 202 194 192 185 182 175 161 142 137 143 137 220 216 220 202 196 157  55  69  72  70  61  57  60  61  64
  30  30  30  28  26  27  26  21  15  64 115 183 143  55  42  50  89 134 152 166 174 185 186 192 195 198 198 202 204 208 210 209 208 207 204 182 155 161 130 136 156 181 200 208 202 198 196 190 181 186 186 186 200 194 202 205 209 208 209 210 210 206 208 205 205 203 198 197 188 185 178 173 159 140 142 139 141 213 216 216 202 199 147  54  69  71  63  59  56  58  63  66
  29  29  30  29  27  27  26  23  13  72 112 165 149  55  47  47  78 121 143 160 175 182 189 190 192 200 200 206 207 211 212 209 209 213 206 160 155 167 144 148 167 184 202 210 205 202 200 193 189 191 194 181 196 199 191 198 206 203 206 210 208 210 206 208 206 201 197 195 194 186 178 167 155 138 145 132 166 213 218 213 198 200 100  61  64  63  60  57  57  59  62  66
  29  30  32  28  27  28  25  23  15  46 115 148 147  71  44  42  70 101 133 151 173 182 187 188 193 198 202 205 210 212 216 210 210 213 200 136 166 167 153 154 173 189 204 216 218 208 195 193 194 196 194 190 185 203 191 189 199 200 204 206 209 210 208 208 205 205 199 196 193 185 168 169 156 140 142 130 189 204 213 204 193 142  42  55  55  55  56  55  56  58  62  61
  32  32  31  31  30  27  25  20  17  12  95 129 137 102  36  45  61  97 121 144 169 180 184 187 197 200 202 205 211 212 213 214 211 205 179 133 169 174 161 150 171 189 202 211 210 194 186 193 200 197 198 192 188 203 203 186 185 195 198 199 202 204 206 205 204 201 199 197 191 185 173 166 159 139 145 124 196 201 203 187 111  40  55  50  53  52  54  56  59  57  59  58
  32  32  30  31  28  26  24  21  13   5  22  91 112 107  32  37  57  83 112 138 153 170 178 185 194 195 201 204 210 210 213 208 202 197 154 104 153 166 163 143 132 183 195 197 198 181 178 183 186 149 138 160 186 204 198 187 178 185 189 197 203 205 204 202 203 195 193 192 188 184 173 168 160 143 138 114 118 173 117  34  32  44  48  49  53  53  57  58  56  57  58  59
  32  30  30  31  30  28  25  16  11   9   2   1  18  34  11  37  52  78 109 129 148 164 177 185 191 197 202 206 209 208 207 204 201 197 151  62  89  63 120 138 111 115 173 184 180 169 108  39  82 116 101 148 199 199 204 199 183 174 176 182 191 198 202 199 196 195 192 191 185 181 173 173 154 148 132 112  27  19  32  29  30  41  49  50  55  53  56  58  58  60  59  59
  31  31  31  30  30  29  24  21  14   4   6   3   2   2   6  27  44  73 102 120 136 163 169 180 193 195 199 202 202 203 202 198 197 193 182 129  80  46  13   7  17  80 123 141 142 131 171 185 193 181 177 196 188 200 202 202 194 176 163 170 182 190 195 195 193 194 189 186 183 179 173 172 155 141 138  69  33  25  30  26  34  37  52  51  51  54  57  58  59  58  59  59
  30  28  31  28  30  28  25  22  13   6   2   1   2   0   0  31  45  71  97 108 131 154 169 180 189 194 198 200 198 195 194 196 195 192 183 171 157 165 123 107  76  21  38  92  94 157 176 168 177 182 190 192 199 199 194 203 190 187 170 145 164 173 188 193 196 192 187 181 183 184 172 170 158 141 141  48  29  25  25  30  34  40  47  52  56  55  56  58  59  57  59  60
  31  31  29  31  29  29  25  20  12   4   4   1   2   1   0  21  42  71  98 105 117 143 165 183 187 191 193 194 194 192 192 193 189 182 177 174 175 171 173 167 145 141  96 119 154 181 169 189 189 184 199 196 197 200 200 189 187 186 195 187 145 159 170 186 193 194 190 182 186 186 179 170 152 139 131  31  28  26  26  30  34  42  49  54  57  57  56  57  59  59  60  60
  31  32  30  31  29  29  25  18  11   5   4   1   1   1   1   6  37  72  99 105 120 134 155 177 183 190 193 189 185 190 194 188 179 181 174 177 171 172 178 176 171 178 160 176 167 164 193 192 202 200 197 198 199 198 193 182 181 188 184 197 201 135 170 187 194 196 193 188 193 182 181 164 151 137 124  17  27  26  29  29  36  42  50  53  58  56  58  60  60  58  59  59
  31  31  30  30  29  29  24  17  10   4   3   1   1   2   1   1  35  68 103 111 123 125 149 171 184 187 187 186 185 186 190 188 176 169 180 161 180 182 190 184 187 184 193 191 191 193 204 218 207 203 209 209 200 195 194 179 181 179 185 179 187 184 172 190 195 196 195 192 192 182 180 172 147 133 110  18  26  26  27  31  39  45  52  54  58  60  60  60  60  58  59  59
  29  28  31  33  31  27  23  15   7   5   3   2   0   2   1   2  29  63 105 115 135 131 156 169 185 190 195 189 180 189 188 184 166 166 178 181 186 188 192 190 187 202 223 215 213 211 212 193 182 188 178 172 163 168 171 168 152 146 154 157 160 199 189 200 201 196 195 194 192 188 180 175 142 131  84  18  26  28  29  33  42  49  54  55  58  60  60  60  60  59  61  62
  32  31  33  33  31  26  24  14   8   5   4   3   3   2   1   1  19  55 104 119 135 136 154 176 192 203 205 195 194 190 190 175 168 163 160 162 169 165 172 160 166 153 158 177 187 176 167 170 177 178 169 172 158 144 121  83 134 164 174 191 195 207 194 204 202 196 191 193 191 187 178 164 145 133  58  26  27  27  29  36  46  52  54  56  58  60  60  60  60  60  62  62
  32  32  32  32  32  26  22  13   8   5   4   2   3   2   0   1  14  51  84 121 133 141 147 174 187 200 209 202 196 161 130 113  91  51  54  62  90 112 127 141 154 156 153 152 157 173 163 148 146 145 135 131 141 139 141 168 189 193 202 207 206 208 206 205 199 197 192 189 189 185 177 160 140 136  32  28  27  29  31  39  48  53  55  58  58  57  59  59  61  62  62  62
  32  32  31  31  30  26  25  15   9   5   4   2   3   2   1   1   2  38  69 118 136 143 147 173 187 203 215 214 206 205 196 184 177 164 127 130 120 124 126 138 148 156 157 143 137 138 150 156 159 160 152 155 157 153 172 190 197 207 211 211 203 210 211 204 195 192 188 187 187 182 169 157 136 122  23  25  26  28  31  41  48  55  53  55  56  58  59  60  61  61  62  62
  32  32  31  30  30  25  25  15   9   4   4   1   2   2   1   1   0  28  63  99 128 134 143 164 183 200 213 219 211 210 203 193 180 175 164 140 123 118 120 137 163 180 190 192 168 186 192 187 175 163 150 153 167 195 201 203 207 208 212 211 209 207 209 201 193 188 184 184 180 173 165 154 122  85  20  25  27  32  35  43  49  55  56  58  57  57  59  59  59  59  62  62
  32  32  32  32  30  31  24  18  11   7   2   0   2   2   3   2   0  18  41  85 121 138 140 153 178 195 209 217 212 205 196 198 189 181 179 178 158 134 127 126 143 164 170 179 175 167 162 160 152 156 171 194 207 208 207 204 210 212 210 210 212 207 202 195 186 180 186 184 180 172 166 139 131  35  29  24  25  32  37  46  49  54  58  55  58  59  59  62  62  59  59  62
  31  31  31  32  30  28  26  20  14   6   3   3   3   2   2   1   0   7  33  66 101 143 135 152 164 187 204 213 215 206 194 194 196 192 185 183 187 177 164 145 141 150 163 172 164 166 166 170 180 194 209 214 206 204 205 209 207 210 209 204 208 209 200 189 185 182 186 184 183 173 161 118 115  23  27  25  28  32  36  43  49  54  57  57  58  59  61  62  59  59  62  62
  32  31  29  32  29  29  26  24  16  10   7   3   3   2   1   2   2   2  23  51  92 125 135 144 153 176 196 206 213 201 185 182 189 185 188 182 186 194 193 190 176 169 181 192 198 196 192 200 207 208 210 208 203 206 206 209 203 209 201 203 213 202 194 183 179 184 188 185 179 166 134 116  46  25  26  23  26  31  32  39  47  55  57  57  58  59  58  61  59  60  62  62
  31  31  29  31  32  29  29  27  22  14   9   5   4   2   2   2   1   2   9  40  71 111 137 144 143 159 182 196 207 205 184 179 187 182 184 181 185 187 191 193 196 194 191 198 202 205 203 205 202 201 202 201 204 209 205 208 199 193 195 207 205 203 194 184 184 186 185 188 175 157 122  98  19  27  26  29  27  30  32  39  48  54  57  57  59  60  60  60  62  62  62  62
  30  30  29  31  32  27  29  28  25  20  11   7   4   1   3   3   1   2   1  25  56  88 130 147 145 143 161 180 193 199 187 180 180 183 184 187 187 183 183 184 169 177 184 177 189 188 190 177 193 191 198 205 207 208 204 201 198 179 213 210 206 195 187 183 186 184 188 181 162 140  99  58  23  23  26  25  28  28  32  39  47  53  57  58  59  59  58  61  63  63  62  62
  30  30  31  32  30  30  30  31  28  22  14   9   4   3   3   1   1   1   1  10  39  68 111 146 153 148 149 162 181 196 184 172 181 178 187 189 189 185 189 191 182 179 173 160 166 167 172 186 194 202 203 209 206 205 205 200 194 200 212 200 192 191 185 187 189 187 188 175 152 113  95  44  26  22  28  25  28  29  32  39  49  55  59  59  58  59  60  62  64  63  61  62
  32  30  29  32  33  31  30  30  29  26  17  10   7   3   1   0   2   2   1   0  23  55  88 127 147 152 144 145 163 174 187 180 184 187 193 191 191 192 197 198 196 190 186 173 166 171 179 198 198 207 211 211 210 205 200 200 200 203 205 197 191 185 181 184 186 184 179 162 127  93 116  26  25  25  23  26  26  27  28  38  47  52  57  60  58  58  60  64  65  63  62  62
  31  32  31  32  32  32  32  29  29  26  16   9   7   2   2   2   2   2   2   2   1  29  67 107 133 147 145 139 141 149 168 176 186 184 190 193 197 200 201 199 196 197 193 191 184 192 202 202 207 211 216 213 213 208 205 205 200 194 202 194 184 180 187 186 185 178 167 139 100  97 128  57  24  24  24  27  26  27  30  37  45  50  55  58  60  60  63  64  64  62  62  59
  32  30  30  32  32  31  31  30  30  27  17   9   4   2   2   2   1   1   2   3   3   8  44  83 114 134 143 140 132 141 157 165 177 185 194 194 196 208 207 206 201 207 208 210 200 209 212 210 206 218 215 213 211 206 205 199 198 207 197 183 179 183 184 184 179 167 147 113  97 118 136 107  80  28  25  26  26  28  31  37  47  51  56  57  58  59  62  60  63  61  62  59
  32  30  30  31  32  32  31  30  30  27  19  11   7   3   2   2   1   1   1   1   1   3  24  54  89 118 139 138 126 118 142 161 175 172 188 188 205 202 204 208 208 216 208 208 214 209 215 194 218 209 215 213 212 212 213 198 199 204 182 186 179 182 186 183 167 150 120 103 113 139 148 110 128  93  23  26  27  29  34  38  47  52  57  59  57  59  59  61  61  60  60  62
  31  30  30  31  32  32  30  30  30  27  19  12   6   4   2   2   2   1   1   1   2   1  14  27  61  92 121 133 119 119 110 143 169 181 180 191 200 194 215 209 209 213 212 207 206 210 214 210 208 216 216 209 209 212 205 201 199 191 175 185 175 179 177 161 154 120 101 118 135 162 153  98 127 154  94  27  26  28  33  39  50  55  59  59  58  59  60  60  58  60  60  60
  30  30  31  31  31  32  31  30  30  27  21  13   7   4   3   2   1   1   1   1   1   1  13  19  31  59  96 114 123 110 103 122 147 178 165 186 200 200 211 205 217 200 214 206 216 210 212 200 213 199 212 212 216 211 198 202 183 180 175 169 168 176 163 142 121 102 117 135 162 167 161  94 146 146 146  79  22  29  30  43  50  55  57  59  59  58  58  58  56  59  58  60
  31  30  30  32  32  31  31  31  31  26  21  14   8   5   5   2   1   2   1   1   1   1   7  21  21  33  67  79 107 114 103  96 120 150 155 187 193 199 206 207 197 214 217 208 210 217 203 206 209 216 219 210 199 200 193 197 170 163 162 166 164 154 137 119 103 119 137 164 178 169 165 100 133 145 135 125  66  24  32  47  51  54  55  56  57  56  58  58  56  58  58  60
  29  30  31  32  33  30  29  29  27  27  22  14   8   4   2   2   2   2   1   1   3   1   2  20  19  22  35  55  78  87  90  90  93 129 148 174 191 189 205 203 208 199 206 212 198 201 206 210 216 219 210 202 206 196 192 168 139 154 157 154 151 130 120 102 123 141 169 182 179 183 173 127 100 158 122 118 106  79  33  43  51  56  53  58  58  57  56  57  58  59  61  60
  29  30  30  30  31  30  30  31  29  29  22  13   9   4   2   2   2   1   1   1   0   2   1  19  20  18  22  33  52  68  67  72  74  93 109 142 174 178 189 204 201 203 206 197 204 205 195 196 197 196 189 197 184 180 165 133 148 152 147 139 123 104 103 130 142 176 186 184 187 189 177 148  87 162 153 127 138 100 108  38  55  48  57  56  58  56  57  57  59  59  60  60
  31  30  30  31  31  31  30  31  29  28  23  18  11   4   2   2   2   2   0   1   2   1   4  18  20  21  20  23  31  49  65  73  59  62  87 117 136 162 182 189 191 185 198 202 203 206 199 188 195 185 187 179 180 166 151 136 123 116 131 116 106 108 131 141 179 188 194 191 193 187 179 154  63 164 170 158 129 123 148 106  50  53  53  59  55  59  59  58  58  58  60  60
  32  30  31  29  32  31  30  30  29  30  26  19  12   5   4   2   2   2   3   2   0   1   1  26  36  22  20  21  24  30  49  59  54  57  57  75 117 155 162 167 165 179 165 184 184 185 173 181 183 177 173 163 160 119 120 117 123 121 111  97 111 137 153 182 196 197 193 200 193 188 183 159  37 183 173 151 107 113 113 123 146  59  56  55  62  56  57  58  56  60  60  60
  30  30  29  30  30  30  30  29  29  30  27  19  11   6   4   2   4   3   4   4   5   2   1  44  72  55  27  21  19  22  32  42  48  59  49  49  67 106 128 135 153 165 168 169 136 154 154 138 143 139 135 116  86 102 114 114  98 100  92 123 140 158 187 197 195 203 204 200 195 194 180 156 123 150 167 149 137 150 112  71 144 110  70  55  52  62  63  54  55  57  58  59
  29  30  29  30  30  30  30  29  30  28  27  18  13   7   3   2   2   2   2   4  25  13  18  40  78  93  74  35  16  20  23  26  40  49  53  49  47  49  65  78  93 106 109  97  97 102 101  96  82  77  71  86  92 101  98 101  86 105 126 139 166 194 197 201 207 210 204 200 196 194 179 154  93 163 158 126 145 119 125 161 132 107 137  80  60  53  55  59  56  54  55  54
  28  29  29  30  30  30  30  29  30  28  27  20  11   5   4   3   1   2  20  45  45  40  64  68  78  93  99  84  60  28  18  23  25  29  43  52  54  53  51  51  50  58  59  67  70  74  70  70  71  83  97  88  94  89  76  92 118 141 143 176 197 194 205 211 210 207 204 201 199 193 177 152  80 192 147 161 129 121 112 159 165 134 114 117  92  84  57  52  55  54  55  57
  28  27  30  29  30  29  30  29  30  28  27  20  11   6   3   4  17  42  75  67  50  27  70  61  81  95 100  99  85  77  44  25  19  21  24  32  46  54  56  55  55  59  62  60  70  76  76  78  78  91  90  83  75  81 116 133 143 159 190 196 201 210 212 208 206 209 206 200 198 191 176 145 137 180 174 142 149  93 127 140 142 137 158 144 127 118  87  57  53  54  55  57
  29  29  28  29  30  29  29  27  30  28  27  20  12  11  28  45  63  59  68  74  39  36  83  70  79  97 103 104 100  89  87  76  49  25  17  20  21  27  40  51  64  69  70  70  78  81  79  80  87  74  66  88 125 144 144 153 175 193 192 206 215 209 210 211 209 207 205 202 196 188 174 141 167 165 167 167 125 146 127 127  77 150 151 106 100 150 127  86  64  55  56  57
  29  27  28  27  30  30  28  31  24  25  31  26  47  57  49  64  74  61  81  52  26  48  96  90  77  96 109 112 105  98  84  88  90  94  72  39  21  18  19  27  32  34  46  54  58  57  53  56  64 106 136 149 151 163 178 190 198 203 215 210 212 212 212 208 208 204 203 201 192 181 176 142 164 168 157 151 146 102 137 113 122 156 108 138 174 139 126 146 117 111  68  61
  28  29  29  27  30  31  27  27  36  45  56  62  71  44  79  92  48  72  65  44  31  55 117  67  73  96 108 119 112  99  92  86  92  94 100 120 128 103  63  34  27  33  37  43  55  83 116 151 155 159 170 176 192 192 197 197 207 212 210 213 211 210 208 209 210 205 202 197 192 183 174 136 157 178 157 140 167 150 142  88 150 127 112 189 175  96 191 116 135 120 134 126
