P2
# Generated by OpenCV 4.2.0
92 112
255
 207 207 207 209 207 208 208 209 209 208 210 209 209 209 209 210 212 211 212 212 212 211 212 212 213 211 212 211 212 213 214 213 212 214 215 214 212 213 215 210 209 210 209 213 214 206 203 200 202 207 205 205 207 208 206 208 206 208 207 208 206 206 204 205 204 204 205 204 205 205 207 206 205 205 204 206 206 205 204 203 202 203 203 203 205 205 205 204 201 200 201 201
 208 206 208 210 210 210 211 211 211 210 212 211 211 212 212 211 211 212 212 213 213 213 212 211 212 213 213 214 212 211 214 216 211 209 213 213 209 202 192 199 182 184 173 183 145 144 169 170 189 198 208 202 197 215 212 208 211 209 214 212 209 206 206 206 206 207 205 205 204 206 205 206 208 208 207 206 206 207 207 206 205 204 204 203 203 203 203 203 201 200 201 201
 206 209 207 209 211 211 211 211 211 210 212 211 211 212 212 212 212 211 213 213 213 212 213 212 214 213 213 209 215 219 213 212 214 213 210 209 176 156 110 100  62  50  23  38  17  15  32  33  51  85 141 176 198 197 208 205 206 215 209 207 205 213 209 206 206 207 206 206 206 206 207 208 207 207 208 207 207 207 206 206 204 204 203 203 204 204 204 203 202 200 200 202
 209 208 210 209 209 210 211 212 211 210 213 211 211 212 212 212 212 212 213 213 211 212 214 212 211 214 215 219 216 210 214 208 201 194 175 140  56  28  10  10   0  10   6   6   8   6   8  11   7   6   8  25  56 178 193 195 204 206 207 212 213 206 206 209 206 206 207 207 206 207 207 208 208 208 208 207 207 207 207 206 205 205 204 204 202 204 204 204 202 201 201 202
 208 210 211 210 210 210 211 210 210 209 212 210 210 212 212 212 212 212 213 211 211 214 214 215 216 214 213 212 213 214 206 204 118  53  46  23   9  10   8   5  10   7  10   0   6   2   1   7   4   9   5  11  14  22  60  90 184 201 207 199 206 212 210 205 207 206 207 207 207 207 208 208 207 208 208 207 207 207 208 207 206 204 205 205 203 203 203 202 203 201 201 202
 210 210 211 209 211 209 212 211 212 212 212 212 213 212 214 213 213 213 212 213 213 212 215 210 214 218 211 221 201 195 155 100  30  10   2  16  10   4   6   4  12   6   6   8   7  10   6  10   7   5   5   5   8   5  11  10  46  92 168 199 202 208 211 209 207 206 208 208 207 208 206 208 208 208 208 207 207 207 207 208 207 207 207 206 204 204 205 205 203 204 204 204
 210 210 210 211 209 211 210 212 212 212 212 212 213 213 213 214 214 214 214 213 215 216 212 217 209 209 193 162 130  73  22  17   8  16   8   7   2   9  12   9   5   4   9   4   3   8   3  11   7  10  12   9   8   9   8  11   7  14  39 106 192 210 200 205 210 210 207 206 208 208 209 208 208 208 208 207 206 207 206 206 206 206 206 205 204 205 205 205 204 205 204 205
 209 211 211 210 212 211 213 213 212 213 213 212 213 213 214 214 214 214 214 213 213 215 216 208 209 176 144  56  12   6  12   6   9   6   2   8   6   3   5   7   9  10  20  13  10  16  15  20   8   3  10  12   2  10   3   1   9   6  16  15  58 115 165 206 201 209 209 207 209 208 211 207 208 208 208 209 208 208 208 208 208 208 208 207 207 205 205 205 205 205 205 205
 212 212 212 212 211 213 213 213 212 213 213 212 210 212 212 215 212 213 213 217 216 208 208 196  96  40  18   4  11   6  10   4   5   5   7   6   6   8   9   6  11  10  17  16  15  19  13  20  17  11  14  17   4  17   8   7   3   2   5   4   4  18  37 153 194 205 211 209 206 208 212 206 208 207 207 207 208 208 208 207 206 207 208 207 207 206 205 204 202 203 204 204
 210 212 212 212 211 212 212 211 212 212 213 212 214 214 214 209 212 213 213 215 201 186 159  78  13   9   6  10   8   7  10  11   7   6  11  12  16  19  14  11   9   8  13  17  18  10  13  22  27   4  14  17  21  16   7  10  11  14   4   6   8  13  12  36  77 172 193 198 209 215 213 216 208 207 209 208 208 208 208 208 209 206 207 207 205 203 204 203 203 202 203 204
 210 211 212 212 212 211 213 212 212 214 213 213 214 216 214 216 211 215 214 217 184  82  23  18  11   7   8   1   8  12   7   8   9   6  10  15  19  21  16  14  13  13  13  13  13  21  23  17  17  14  15  10   7   8   8   5   8  11  11  13   0   6   7   8  11  20  98 188 200 213 208 204 208 208 209 209 209 209 209 209 209 207 208 206 206 206 203 204 202 203 202 203
 213 212 213 212 211 214 213 214 214 214 214 214 214 215 214 211 211 212 207 166  77   8  21   7   5   3   8  10  12  14  19  13  14  24  22  18  23  19  17  21  29  30  23  21  25  23  24  23  20  24  12  14  13  13  14  10  21  16   6   5  10  11   4   4   5  14  20  89 153 210 204 210 208 210 211 209 209 209 209 208 208 207 208 207 206 207 206 205 205 204 203 204
 213 213 213 214 214 213 215 214 213 215 215 213 214 214 213 211 210 203 149  34   7  15  13  11  19  21   8  18  10  19  26  17  18  14  23  23  18  15  21  24  19  16  18  26  21  18  19  11  25  45  18  16  11  12   9   9  22  11  10  11   7   6   8   5   8   6   7   1  52 153 188 207 207 211 211 210 208 208 207 208 208 208 209 207 205 205 205 205 206 205 206 206
 210 212 212 212 213 213 213 213 214 212 215 216 210 217 215 209 186 113  38  13  14  19  19  17  17  21  20  20  18  23  23  19  24  16  23  27  25  27  32  21  28  17  26  21  25  32  19  23  39  41  25  21  25  15  13  14  14  19  11  12  12  14  14  13   6   7   9  14   0  29 157 210 208 211 210 213 209 206 206 206 207 207 207 206 206 208 209 208 207 210 211 211
 213 210 213 214 215 215 215 214 213 215 215 216 218 213 209 211 160  24  20  23  15  16  20  15  18  13  12  17  18  25  28  24  27  27  33  28  37  38  34  29  32  29  36  29  35  35  19  18  16  13  19  20  22  20  24  20  15  25   5  14   9  15   6  16   9   9   6   3  15  10  24 142 198 199 212 207 207 208 208 208 207 209 210 209 210 211 214 213 215 215 215 215
 212 214 213 214 213 214 214 214 214 215 215 212 213 215 206 147  40  10  16  17  10  13  19  19  23  22  24  24  20  18  20  17  19  27  35  28  46  37  31  35  36  37  35  31  30  20  19  23  20  24  26  22  25  25  34  22  25  23  26   9  19  11  17   6  13   9   4  14   7   3  12  19 112 202 204 216 208 209 207 208 210 210 212 212 213 214 216 216 214 213 212 212
 213 213 215 215 216 216 216 213 213 214 215 216 215 209 137  32  15  20  13  18  13  13  15  24  21  23  25  18  23  25  22  32  38  40  42  34  34  32  44  37  34  32  24  27  34  28  44  47  30  25  38  31  29  23  28  28  22  39  31  38  23  26  15   7  14  15   8   8   6  10   7  16  29 142 210 207 208 208 210 210 210 212 214 216 216 216 214 212 209 207 204 204
 215 215 215 213 213 213 213 213 215 214 214 215 213 175  50   8  19  12  19  15  17  16  19  25  12  19  35  25  26  42  52  32  38  40  34  28  36  31  30  36  26  39  34  38  36  47  34  56  52  47  28  42  27  34  40  42  22  31  35  30  17  22  15  15  17  16  11   7  11   3   5  10   7  46 180 198 207 206 210 211 214 218 215 213 211 209 208 205 203 201 201 200
 215 215 215 215 215 215 215 214 215 216 218 216 182 110  18   8  16  19   9  19  16  14  14  18   7  11  26  25  34  38  36  35  46  45  39  37  35  41  48  52  64  52  48  46  48  50  48  49  50  55  56  59  51  36  43  52  36  47  41  34  32  26  19  11  23  31  13   9  10   4   9   6   7   7 106 198 206 210 219 212 217 216 213 210 207 204 203 199 196 195 191 190
 215 215 216 214 214 215 214 215 216 213 212 213 155  23   9  15  10  12  10  17   9   8   7  14  14  15  27  44  48  47  47  61  70  50  46  63  60  47  49  62  72  64  65  57  56  66  78  68  59  43  63  71  65  75  78  62  38  46  68  69  53  37  36  40  39  23  15  20   9  14  11   1  16   3  26 176 206 201 217 213 213 211 208 204 201 197 197 193 193 191 189 189
 215 215 215 215 215 216 215 216 215 216 218 203  94   8  20  20  16  12  24  18  14  26  28  45  56  60  58  51  46  58  80  91  66  84  94  72  79  76  74  79  71  87  95  92  90  66  48  73  98  86  67  53  70  76  84  80  81  86  56  38  45  49  60  50  48  45  31  23   9  13   8  10   3  12   9  99 186 212 211 211 207 203 205 198 197 194 194 191 193 193 192 192
 215 215 216 215 213 215 215 220 214 216 205 147  14  13  12  18  17  27  22  14  33  33  36  53  61  75  79  81  90  86  79  84  99 108  97 108 106 113 120  98 104 121 120 117  94  80  92 112 107  98  97  83  84  97  86  96  83  92  78  85  75  60  56  47  43  55  50  14  14  12  18   7   7   5   7  24 146 205 206 202 202 202 200 196 195 194 194 195 196 199 201 202
 215 215 215 214 215 215 216 218 217 213 211 111   4  13  14  26  18  30  21  38  53  49  62  75  80  86  92  94 108 124 122 115 113 113 113 115 125 128 110 101 118 121 113 124 107  90 121 131 129 108 108 113 112 124 116 126 124 110 104 108 108  86  65  66  66  54  48  51  46  32  22  14   8   6   6  11  63 163 195 195 194 195 194 191 191 194 198 201 204 207 210 210
 214 215 215 216 214 216 216 213 221 198 175  31  16   5  23  21  26  37  35  58  59  71  86  89  95 102 103 111 116 122 125 125 132 132 137 134 134 126 122 129 138 141 146 145 140 134 156 139 145 141 139 138 130 134 135 134 131 130 136 123 117 114  87  64  87  80  60  61  59  49  31  23   9   7   5   9  21 108 181 180 190 189 190 191 194 198 204 206 211 211 209 208
 215 215 215 213 213 215 215 212 209 212 111  10  19  10  19  24  46  48  56  71  79  85  88  92  95 105 110 112 119 120 127 135 137 136 144 142 142 146 140 149 142 144 137 107 156 149 154 150 147 143 146 135 138 141 139 136 132 136 135 139 125 117 107  93  95  93  91  89  75  77  56  37  15   6   4   8   2  46 146 169 176 184 188 195 200 205 210 209 210 210 210 210
 211 214 212 212 214 214 215 216 219 202  39   7   9  11  23  43  58  64  71  76  86  84  88  94  93 111 116 112 120 125 129 134 138 140 142 135 144 148 146 148 144 144 151 155 151 149 145 137 142 139 134 140 140 138 137 136 133 136 131 122 123 120 107  94  90  92  90  93  84  78  72  60  28  12   9   8  10  12 112 154 165 177 190 197 204 210 212 210 211 212 212 213
 213 213 213 213 215 216 214 216 212 144  20   9  10  16  34  57  70  72  75  80  87  85  88  93 100 111 116 119 127 132 134 137 146 145 146 144 148 148 151 154 150 148 150 148 149 148 145 141 142 146 147 144 144 143 142 140 133 133 131 127 122 117 109 104  97  94  93  94  92  84  77  66  30  12   5   5  12   7  69 145 156 174 187 197 206 210 210 210 211 212 211 211
 208 209 210 213 213 215 215 220 202  75   7   6  16  21  38  63  70  73  76  80  84  87  89  96 104 112 119 124 131 138 139 140 149 147 150 150 150 151 155 155 153 156 156 152 151 154 155 153 151 151 150 146 150 150 145 142 137 134 134 130 126 121 111 100  96  93  94  94  93  87  79  73  49  24  11   7   6   7  29 117 143 168 185 197 203 207 210 209 210 211 210 211
 206 206 206 210 212 215 216 210 184  25   6  10  17  22  46  66  69  75  81  84  87  91  95 100 105 116 122 125 132 142 144 143 146 149 159 156 156 159 162 164 163 166 165 161 162 164 164 162 157 150 149 151 153 150 144 141 139 139 137 132 127 124 117 107  96  91  96  94  91  91  81  76  58  29  10   3   4  16   7  83 124 157 173 188 194 199 202 203 204 206 205 206
 203 204 204 208 209 212 215 210 142  12   8  15  23  24  55  67  77  78  83  88  90  90  94 101 109 117 124 129 135 143 150 148 151 152 152 154 164 167 163 163 168 167 165 169 167 168 167 158 155 154 152 153 154 151 146 143 140 139 139 135 132 125 117 110 100  96  96  91  87  86  84  78  61  32  20   6  10   9  11  62 112 134 156 167 177 184 191 192 193 195 196 196
 199 200 203 206 211 214 213 202 113  14  13  12  22  31  61  76  82  83  85  85  88  90  99 109 115 124 132 135 142 143 150 153 157 158 159 162 162 165 163 162 169 172 170 167 168 167 164 160 156 156 157 158 157 152 151 151 142 139 138 137 129 124 118 112 102  97  98  95  90  87  88  80  66  36  20  14   9  10  12  33  80 108 127 149 158 168 174 176 178 180 181 181
 192 193 198 203 209 214 210 210  77  10  10  12  20  31  61  80  83  79  83  88  91  96 103 111 117 125 133 135 142 140 151 152 155 160 161 162 161 166 171 170 170 171 177 175 172 168 166 165 163 160 158 159 159 153 153 155 148 142 138 136 128 121 120 114 106 100 101  99  91  85  87  82  71  40  20  15   8  10   7  23  59  87 105 132 140 153 160 165 166 169 171 172
 179 185 195 201 207 212 211 178  28  11  13  15  17  31  68  75  84  82  79  90  99 102 105 110 114 125 131 137 143 149 157 151 157 159 158 161 166 167 172 175 171 176 181 179 175 173 174 168 165 162 159 162 163 156 150 150 146 141 139 134 126 120 123 115 107 106 105 101  94  90  89  82  68  39  24  18  10   5   9  16  35  64  83 105 123 143 150 158 162 165 167 168
 170 179 186 200 202 212 200 141   4  16   7  17  22  32  61  79  84  86  83  94  99 101 106 109 114 124 133 139 142 154 156 153 157 160 161 166 170 172 170 166 172 182 183 180 174 164 170 167 169 167 162 157 159 155 149 149 143 146 145 131 126 123 122 119 108 105 104  97  96  94  92  81  62  42  35  16   9   5   6   7  20  57  71  93 115 137 151 158 165 171 173 173
 159 172 185 196 204 206 198 112   2  18  10  22  23  27  51  72  84  81  82  92  97 100 105 111 116 128 136 137 145 150 153 157 158 158 163 167 171 173 170 170 175 180 183 184 180 168 171 167 170 172 167 162 160 157 155 150 146 148 147 135 128 127 127 124 115 107 105  98  96  96  89  78  66  42  29  13  11   7   6   8  14  50  67  86 112 138 157 164 170 179 184 183
 154 170 185 199 205 199 201  82   6  14  10  22  18  31  57  71  86  84  85  91  98 104 108 113 119 128 137 139 146 146 150 158 158 159 163 168 171 174 174 174 175 179 183 184 185 180 177 171 173 169 167 168 166 163 159 151 150 151 147 138 134 130 128 125 118 108 100  94  96  98  93  83  66  44  29  21  15  10  11   9  17  48  64  80 110 142 163 170 175 188 195 195
 156 169 182 199 206 199 190  58   7  16  15  25  11  37  61  71  82  87  84  92 101 109 113 117 119 125 135 140 142 144 149 155 158 160 160 164 164 167 171 176 181 186 191 190 189 182 180 174 175 175 166 161 164 161 155 156 154 150 144 137 136 132 130 128 124 115  99  91  93  95  90  86  69  48  28  24  17  12  10   8  14  42  57  71 106 143 165 170 177 192 201 201
 161 174 185 196 202 202 190  46  14  19  13  21  21  36  56  71  84  85  78  89 106 109 115 115 123 129 134 138 141 147 154 159 159 165 165 159 166 169 167 169 174 173 178 182 177 172 168 166 163 167 167 163 161 157 157 157 152 147 142 137 130 130 129 124 125 119 103  88  93  98  90  81  74  45  30  20  17  13  13   9  12  35  49  60  87 126 152 166 174 185 197 193
 166 177 188 200 202 206 202  54  12  19  19  23  32  25  52  75  81  87  81  95 105 110 118 118 124 129 134 139 139 142 154 159 158 160 164 169 171 170 169 171 175 177 181 184 185 181 174 170 167 165 165 161 161 160 157 156 151 147 145 141 137 133 131 127 122 119 105  92  92  96  89  85  63  55  31  16  18  15  11  15  12  26  39  47  70 100 127 147 163 175 188 187
 169 177 187 198 201 207 198  39  21  14  18  25  22  38  59  75  79  87  83  95  99 113 119 125 132 134 138 139 144 152 158 160 162 162 162 166 166 170 175 179 179 180 181 177 178 180 177 173 166 161 162 159 159 159 156 154 148 147 145 145 142 138 134 130 124 118 103  89  91  95  93  91  63  50  32  26  19  14  12   7  17  25  35  38  57  85 109 127 147 161 172 174
 172 183 190 198 204 213 182  32  22  15  20  19  29  48  62  72  83  85  83  95  97 118 120 128 132 138 141 145 149 154 158 160 165 168 168 174 170 174 178 179 175 177 181 182 183 182 176 173 165 165 166 162 164 163 159 156 149 146 145 144 143 140 137 131 128 121 105  90  92  94  93  92  66  33  31  28  20  15   9  11  14  19  32  29  45  65  89 111 130 144 153 160
 179 183 190 205 206 212 192  35  11  15  21  20  26  44  65  78  84  82  87 102 101 122 122 132 134 135 140 146 151 151 154 160 161 168 173 173 174 176 174 174 178 177 180 184 174 173 176 171 171 170 169 166 166 169 167 159 154 153 153 148 142 136 136 130 129 125 111  97  89  91  88  92  70  47  27  26  18  16   9  11   5  13  26  23  35  52  78 100 120 136 148 156
 187 192 196 202 212 211 199  27  16  16  24  18  26  46  68  79  83  81  88  92  90 121 130 132 136 141 145 151 151 150 157 162 164 170 176 176 178 179 181 181 180 181 179 183 182 180 177 173 170 172 175 174 170 169 169 164 158 158 160 153 145 142 139 133 131 127 116 106  96  89  83  85  79  62  37  28  30  17   8   9  12  14  29  26  33  47  68  90 113 133 148 159
 195 198 202 208 209 220 194  18  19  14  20  14  29  55  74  78  81  83  93 102 111 123 130 135 142 148 153 157 158 157 163 167 169 176 179 181 181 182 185 184 183 186 188 186 181 170 171 178 178 182 186 182 177 176 177 174 167 166 166 159 152 149 144 137 135 129 119 110 104  90  82  82  78  72  48  23  23  21  13   8   8   8  32  29  37  51  73  98 122 145 159 169
 204 206 209 212 213 220 171  14  21  18  25  12  36  66  77  78  82  89  96 103 115 128 138 143 147 151 157 160 165 166 172 171 174 182 185 185 187 189 189 187 184 188 191 184 174 172 180 185 186 185 188 185 181 179 180 178 174 172 168 161 157 154 151 142 139 133 118 106 106  88  82  82  80  76  67  30  24  19  13   5   9   6  37  37  43  55  78 104 130 156 174 183
 213 212 213 216 216 219 157  19  21  17  15  20  44  68  74  81  82  88  95 108 115 132 142 144 156 147 159 160 165 160 170 177 177 186 183 182 190 190 187 184 188 193 196 195 186 186 191 190 184 187 186 184 185 178 169 175 169 172 174 165 158 158 154 137 135 132 133 107 102  91  79  83  82  81  71  36  31  21  10   7   9  12  34  46  50  61  78 109 138 161 180 195
 217 217 218 218 215 223 177  24  18  16  15  27  51  69  72  72  81  87  99 107 122 126 129 137 151 148 151 156 161 166 174 168 183 170 188 189 186 185 185 182 189 194 198 197 197 196 193 192 188 187 182 197 180 156 140 131 122 133 138 134 135 130 121 114 108  95  93 112 108  97  79  78  79  75  71  55  31  24  16  14  13  13  38  48  52  63  78 108 139 165 184 198
 221 221 222 227 219 221 197  23  10  18  19  29  55  71  75  76  78  81 102 108 105  88  96 114 117 110 105 114 130 125 130 134 135 155 156 171 174 176 186 178 185 190 193 197 195 183 179 181 179 184 169 164 134 112  90  89  82  83  70  63  66  74  81  82  55  62  58  71  91  96  79  71  79  71  70  66  33  18  13  17  15  15  40  47  52  62  76 103 137 165 185 199
 218 220 221 223 220 215 210  29  14  24  19  30  58  69  73  73  74  84 102  79  63  64  74  71  71  70  68  81  82  66  71  78  88 107 118 136 153 164 177 176 183 189 191 190 187 186 178 169 167 163 139 153 115 110  93  60  61  64  56  61  62  54  48  51  52  42  49  49  58  75  79  73  76  70  75  68  41  18   8  13  11  16  39  40  46  58  71  96 130 161 181 194
 222 222 221 223 217 223 209  42  28  21  16  24  65  68  69  69  71  86  75  55  51  61  58  46  48  57  67  77  71  54  64  53  86  95 116 133 125 150 158 174 174 179 184 186 181 175 174 175 163 153 143 139 124 112  85  80  77  63  74  79  86 105 112 110 110  85  57  50  42  40  50  68  72  73  74  71  49  15  15  19   7  17  33  40  40  51  66  91 122 158 177 195
 222 222 223 221 222 222 207  62  11  22  26  36  71  69  71  71  71  57  40  31  60  47  54  89 100 109 105 101  94  86  84  78  92  98 116 138 128 143 156 169 171 170 176 181 178 177 176 169 160 150 143 146 139 124 114 119 116 123 147 144 143 141 134 127 132 114  95  79  57  39  34  47  65  73  77  71  50  15   9  19   7  18  34  37  37  45  60  84 116 152 174 192
 222 222 223 224 225 224 224 116   7  19  20  38  69  71  71  77  53  28  33  55  63  96 120 121 127 137 143 151 157 150 128 129 129 130 138 144 148 147 149 162 165 165 171 180 177 176 172 163 151 149 145 145 143 138 138 140 151 159 160 152 146 141 134 127 123 119 117 104  86  64  45  45  64  75  80  72  49  23  10  13   8  24  38  36  32  39  51  75 105 141 166 187
 221 222 222 228 226 226 221 165  17  21  21  41  71  73  69  62  29  48  71  93 100 110 118 125 126 132 141 148 165 164 166 150 146 139 135 137 143 139 142 151 160 164 169 178 180 172 164 162 148 141 137 135 141 139 144 147 159 155 157 152 146 136 131 126 120 109 108 101  96  90  71  66  68  72  77  73  48  24   8  13  16  33  45  39  37  40  46  67  95 130 156 178
 225 223 221 224 220 229 219 192  19  12  27  46  69  75  63  50  51  60  76  99 107 103 109 118 122 127 127 125 128 127 125 140 136 137 141 141 130 138 135 149 154 165 174 178 173 174 167 158 145 139 132 144 142 138 134 105 109 123 126 125 119 112 110 109 106 100  94 101  91  94  88  80  80  75  82  72  47  21  15  15  15  39  51  41  43  41  48  64  90 125 154 174
 219 226 225 223 218 224 220 217  40  24  18  42  67  73  70  73  72  88  95  94 101 107 103 101  83  98 112 133 130 128 115 107  87 105 131 151 139 143 131 134 150 163 174 178 173 173 160 146 136 132 137 142 138 111 101 100  78  45  36  44  41  74  90 100  84  75  85  98  86  88  86  83  80  79  83  77  54  24  12  21  30  53  48  50  47  43  52  68  91 127 156 177
 223 219 223 216 223 224 217 224 114  13  19  42  67  71  68  66  78  91  88  93 101  91  78  72  90  79  57  30  21  26  40  67  99 107 101 132 151 151 132 133 145 158 170 176 167 160 154 145 138 133 148 140 118  99  92  88  54  31  43  43  24   5  17  34  68  75  76  93  86  85  82  84  83  78  78  73  49  18  14  24  51  67  66  61  59  53  56  72  95 132 160 183
 222 223 223 217 218 180 171 193 154  23  11  43  72  75  73  77  80  89  81  86  89  74  60  63  29  21  13  33  46  34  35  79 126  82  92 114 145 159 139 128 138 149 158 165 156 148 141 133 134 133 157 130 101  88 120 177 102  21  25  30  29  39  84  34  12  30  56  82  83  84  78  82  86  79  78  75  52  16  22  67  94  98  94  86  86  71  66  77 102 137 167 189
 220 226 219 225 130  69  93  86  92  45   9  41  70  71  73  81  81  85  81  82  78  63  32  12  32 130  39  26  26  27  33 112 195 126  88  95 120 138 146 127 130 137 145 150 148 141 128 122 125 124 141  95  89  98  95  94  89  64  72  48  58  60  82  70  63  50  29  66  82  83  82  84  87  80  79  80  55  14  45 118 122 133 128 122 109  99  77  83 113 151 175 192
 221 224 221 191  77 103 116 126 113 114  25  37  66  69  75  87  83  81  82  84  68  37  21  34  67 106  59  43  43  61  78  98 103 108 108 109 102 133 130 128 117 121 131 135 133 128 120 112 107 122 129 101 137 124 125 126 140 142 153 146 108 109  98 109 105  91  68  80  85  86  81  83  93  81  75  78  58  17  86 141 140 143 132 109 112 113  88  90 117 154 180 197
 221 224 222 189  99 116 108 124 128 137  65  37  67  67  73  89  88  87  87  83  76  60  67  79  79  88  92 109 131 147 150 143 132 123 131 136 113 116 136 112 111 122 135 134 131 123 121 111  94 117 124 110 106 111 110 118 133 136 143 141 130 122 120 117 106  95  88  88  90  91  92  90  95  80  75  78  48  28 131 141 139 124 115 142 127 120  92  80 115 152 179 195
 223 223 225 211 123 154 146 118 120 132  83  29  68  71  72  93  90  91  95  95  88  81  83  97 103 114 109 115 141 137 135 121 119 111 128 117 112 130 113 112 116 124 129 133 132 128 127 121 110 109 126 127 118 114 113 116 118 120 119 117 117 116 120 117 113 108 108 101  90  87  92  93  92  81  76  77  48  50 132 136 126 125 142 158 149 136  78  75 108 146 173 191
 223 222 223 222 154 174 154 124 112 122 104  31  71  70  77  96  96  92  98  99  90  90  93  95 105 115 116 116 112 110 115 116 120 128 121 117 127 126 116 118 121 124 131 137 134 134 130 125 124 111 113 126 126 126 127 126 134 144 136 124 126 129 132 132 131 127 121 113 101  93  91  93  89  81  73  77  47  66 114 131 132 146 145 168 173 159  69  75 111 142 172 190
 224 222 221 223 162 180 162 128 113 100 117  48  65  68  79  96  97  95 100  98 104 108 109 110 114 116 116 117 122 130 136 140 136 129 130 129 129 120 115 119 119 124 135 134 134 139 133 124 131 128 118 123 124 127 131 132 131 133 140 145 147 143 140 139 131 120 117 118 109 101  94  87  84  79  74  78  36  77 126 135 141 133 136 174 184 154  68  81 112 141 170 189
 223 221 222 223 168 169 171 118 109 136 120  52  66  70  71  92  98  97 102 100 110 114 124 130 134 133 136 140 144 147 142 135 137 138 131 130 132 129 124 121 123 127 137 148 146 142 135 128 122 134 140 134 135 131 128 129 135 135 135 132 130 131 131 131 130 125 119 118 112 100  96  90  81  75  73  77  44  88 114 165 166 135 123 173 184 145  65  79 114 140 168 186
 222 223 223 225 181 154 166 111 126 164 137  75  62  73  68  92  99  94 102 105 114 122 128 133 138 141 143 145 145 144 141 142 139 133 134 135 132 134 125 118 119 125 136 147 142 136 128 123 115 129 153 151 150 148 143 135 131 135 141 144 142 141 135 131 130 129 126 122 112 101  98  90  82  74  72  75  42  98 156 173 179 156 120 166 184 133  69  89 119 141 168 187
 222 221 225 220 202 147 151 115 158 173 165  93  56  66  73  90  96  95 105 109 117 129 133 138 140 140 137 135 137 140 141 140 132 135 142 142 139 134 129 114 115 126 137 140 142 132 119 104 101 121 152 159 160 164 160 158 150 139 140 144 145 146 144 142 134 132 133 127 118 110 100  91  85  75  72  73  37 118 172 177 194 179 127 156 180 107  71  90 118 144 167 184
 223 222 224 222 218 154 149 128 178 185 165  87  58  62  68  85  94  95 110 118 125 136 137 134 135 135 135 138 141 141 138 134 138 147 149 150 150 143 126 106 109 120 131 135 137 128 117  94  82 106 147 165 172 177 173 168 164 159 155 153 152 150 149 148 144 140 135 125 123 116 100  92  85  76  72  70  51 116 163 195 203 195 134 149 160  81  66  89 117 142 162 179
 224 224 222 226 227 162 143 138 193 190 157 103  58  65  67  78  93  97 115 124 130 135 137 137 138 141 144 146 146 147 149 151 158 159 158 160 156 146 120 100 106 116 128 137 140 135 125 107  87  85 121 145 159 173 181 184 182 174 165 163 162 158 156 152 152 151 145 135 126 113  99  94  85  76  71  69  68 134 175 195 202 199 137 151 137  60  68  84 106 131 154 172
 222 222 221 222 226 180 130 157 200 198 162 117  59  62  63  73  94 102 116 126 127 130 137 146 145 145 147 152 156 159 164 167 167 171 167 162 143 126 100  94 106 115 130 142 148 148 138 120 101  82  85  95 110 133 154 170 180 185 184 182 176 174 168 158 159 159 151 147 130 117 103  87  83  76  70  66  63 144 188 198 202 200 135 147 107  51  68  78  97 119 141 160
 221 223 221 218 225 189 136 160 197 192 170 122  66  65  60  68  93 103 118 121 128 132 141 150 149 151 155 160 162 168 176 180 170 174 156 127  96  96  83  92 103 109 133 148 156 156 141 137 120 108  94  88  96 105 134 159 166 182 190 193 189 184 175 169 166 164 155 149 137 125 105  84  85  76  72  59  63 168 202 198 193 191 136 140  77  57  62  75  87 108 126 149
 221 224 221 221 222 200 134 142 177 179 167 136  71  64  66  70  94 103 116 120 132 138 146 151 153 157 161 168 171 177 179 176 161 150 114  90  87  91  98 104 113 115 145 167 178 181 167 160 143 132 117 106 117 108 111 143 157 163 179 192 194 187 180 175 171 164 157 153 142 127 107  82  85  74  71  55  59 146 163 179 164 163 130 151  63  56  59  67  74  92 107 132
 223 223 223 225 222 214 125 121 143 131 144 134  71  54  65  71  92 103 113 118 133 145 149 154 156 160 167 173 176 179 175 168 159 144 102 106 125 115 123 125 129 132 157 189 204 193 171 153 143 142 135 132 137 124 108 118 145 139 155 174 178 184 184 182 177 169 161 159 145 128 104  82  86  76  67  48  63 150 138 120 148 133 133 110  52  57  57  59  67  79  94 119
 223 222 225 224 224 223 132 112 127 138 159 131  85  59  65  69  88 101 112 118 130 140 150 157 157 159 170 176 177 177 171 167 158 137 109 124 136 142 148 147 139 140 149 168 186 173 160 144 136 143 146 155 150 135 110  97 137 132 133 148 165 177 178 178 177 170 163 157 146 128 102  79  86  75  66  50  79 125 158 127 133 126 132  74  50  54  54  55  57  66  80 108
 223 222 224 230 229 224 144 124 115 146 133 120  89  56  61  66  86 101 106 115 127 139 150 155 156 161 168 172 174 169 159 146 146 126 112 142 152 154 163 151 143 139 135 148 166 160 144 144 121 102  83 103 110 113 100  96 136 139 128 128 145 166 172 173 174 167 161 153 140 126  99  80  87  74  69  48 117 148 147 147 120 126 113  62  50  51  53  52  55  61  72 102
 224 222 223 223 226 224 173 108 115 149 140 147 103  49  65  63  81  99 100 114 127 139 149 153 158 162 168 166 167 126 145 140 135 117 108 129 125 122 100 103 103 113 124 140 145 144 129 109  82 106  96  95  96  89  98 120 130 137 149 129 121 143 165 162 169 168 159 152 135 122  95  78  86  74  61  36 121 156 165 170 124 120  95  50  51  51  53  52  52  59  70 101
 222 224 224 220 221 220 215  88 132 157 151 144 120  39  60  62  78  96  96 106 120 132 142 150 152 158 162 164 152 133 142 145 146 139 106 103 109 120  66  94 103  97  96 102 116 115  97  97 118 137 106  94 106 117 123 129 136 138 137 152 136 128 145 167 164 160 159 148 131 115  90  77  83  72  54  45 123 153 163 163 125 101  66  52  52  51  53  52  52  60  73 103
 224 224 223 223 219 222 223 133 128 148 153 152 149  68  55  63  75  96  95 100 117 132 140 149 152 157 164 162 150 152 149 150 144 139 134 118 112 112 103 103 121 126 115  99  96  89 106 127 138 132 115 111 112 117 123 131 123 134 139 141 143 140 127 150 159 153 152 144 125 107  87  78  82  73  56  67 140 158 163 158 131  79  52  54  55  52  54  51  55  64  80 111
 223 223 223 222 221 225 222 189 118 135 152 160 136  64  60  62  73  89  94  95 109 125 135 140 147 151 162 153 150 138 151 149 141 134 136 126 119 119 124 116 124 139 145 149 154 148 143 140 140 133 135 125 119 120 122 111 111 115 122 129 149 160 141 121 151 153 146 140 121 101  86  79  82  72  62  67 123 142 152 143 108  56  56  53  53  53  54  52  56  66  87 120
 224 224 224 222 222 223 225 231 197 149 141 142 128  73  59  65  71  87  94  93  96 113 132 140 135 152 150 151 128 138 155 150 139 129 126 124 120 124 119 110 117 130 132 147 154 150 148 144 143 131 128 119 118 120 117 106  99 103 113 110 134 145 136 126 131 151 145 127 113  89  80  81  82  71  63  56  60  61  68  64  56  51  56  50  54  54  55  57  59  71  96 131
 224 224 224 223 223 222 225 220 219 222 212 204 187 130  57  67  73  86  93  90  91 104 121 127 135 142 142 116 126 144 130 132 119 107 116 117 120 126 121 125 132 143 148 160 153 156 161 156 149 144 142 142 131 129 132 125 113 101  97  96 111 139 143 122 113 146 147 126 106  91  86  86  82  73  64  50  55  49  55  54  55  54  52  54  56  55  57  57  61  78 108 144
 224 224 224 222 222 222 222 222 228 218 212 206 179 149  67  68  73  86  92  92  90  97 107 115 137 141 129 107 132 125 114 111 100  94 111 124 134 139 134 139 138 148 154 166 160 161 159 161 159 160 148 144 138 144 137 121 126 129 102  88 100 102 129 116 116 140 142 121  98  91  96  86  80  70  63  48  50  51  55  52  51  55  54  53  54  54  57  56  69  88 120 156
 223 224 223 223 222 223 223 223 221 218 215 207 182 161  92  66  75  86  92  90  87  90 100 117 131 148 107 108 118 114 106  85  89 106 120 133 140 142 133 143 148 154 155 169 166 163 156 154 160 167 154 147 141 136 136 131 128 133 122 111 113 108 127 117 109 139 142 122  96  91 106  90  77  70  60  47  51  51  53  53  53  49  50  54  53  55  53  57  74  96 130 164
 224 224 224 223 224 224 224 223 221 221 217 208 195 170 106  66  74  85  96  94  91  91  92 107 134 132 101  99 108 108  91  90 109 121 131 139 138 143 138 150 152 163 157 156 155 152 148 149 148 143 136 132 129 134 139 138 134 131 127 121 113 113 124 118  91 137 134 122  92  95 102  95  76  70  59  50  51  52  55  52  53  53  52  53  51  57  56  65  81 104 141 172
 224 224 224 223 223 223 223 223 222 221 217 209 197 180 126  71  72  83  99  96  94  89  89 101 145 127  97 106 109 111  92 101 117 127 146 144 141 143 140 139 135 137 134 126 124 120 123 117 102  97  98  95  92  94 104 110 116 125 132 127 124 126 135 124  84 147 136 120  84 108 106  94  74  70  58  53  52  54  55  52  52  49  51  52  54  58  57  69  88 115 150 178
 224 224 223 223 223 224 223 222 222 223 219 215 202 184 140  76  69  82  94  98  96  86  87 103 145 130  93 119 124 125 120 116 117 130 135 125 117 110 107 107 113 116 128 126 124 119 113 107  94  96  96  86  80  70  66  64  69  79  88  89  99 121 137 122  97 157 134 103  91 118 111  87  75  66  54  53  52  53  55  52  52  53  56  59  62  65  67  81 103 129 159 182
 224 224 224 224 224 224 224 224 223 223 219 211 204 192 156  79  67  84  89 103  99  86  87 103 139 133  97 123 131 120 106  95  88  93  87  91  86  79  86  88  93  96 106 106 111 111 109 102  86  83  79  68  70  67  62  53  56  72  98 116 128 139 133 112 117 161 129  92 108 117 104  88  74  66  50  52  53  52  54  53  55  58  62  67  68  75  81  96 117 142 166 187
 224 224 224 224 224 224 224 224 223 223 219 214 211 193 169  96  67  80  92  98  97  92  91 100 130 139 109 123 126 122 105  86  63  60  61  66  69  77  83  90 102 110 117 123 122 109 103 112 116 108 109 100  95  81  80  76  96 113 112 120 136 140 138 124 153 157 109  86 114 113 101  85  76  62  46  56  54  54  54  55  58  61  70  80  87  96 104 118 132 156 176 192
 224 224 224 224 224 224 224 225 223 223 222 214 214 198 184 131  67  71  94  96  98  90  89  96 121 148 126 128 135 137 122 113 100  87  84  82  84  93 102 105 126 136 146 162 155 138 128 130 126 113 108  93  88  90 102 104 111 118 125 139 150 148 140 143 170 134  89 103 116 113  97  81  74  57  46  54  51  55  56  55  58  69  80  90 101 113 125 139 152 170 184 197
 224 224 224 224 224 224 222 224 222 224 223 218 212 204 194 168  77  72  84  96  99  91  87  94 109 146 143 130 132 138 122 123 123 115 117 115 114 115 115 116 124 133 144 154 147 131 120 116 116 115 118 117 128 132 133 124 117 127 138 133 139 142 141 163 153 107  89 112 112 106  90  72  73  55  50  49  52  55  56  57  63  75  91 105 120 133 144 157 168 182 191 200
 224 224 224 222 223 222 224 224 223 224 224 219 215 209 200 188  87  76  78  92  99  98  91  91 103 133 153 135 131 136 123 127 130 127 137 146 150 156 153 151 144 144 150 148 151 149 144 146 148 145 153 148 154 146 137 127 121 126 135 131 134 138 148 160 116  91  93 108 105  98  80  66  71  55  55  48  51  53  56  59  65  82 105 125 140 153 165 176 182 192 198 206
 224 224 224 223 222 222 224 224 224 224 223 220 219 212 204 201 111  71  77  89  95  99  95  89 100 120 146 139 132 136 127 129 129 127 136 148 153 160 167 171 174 175 170 169 172 169 167 169 171 169 165 150 152 142 131 124 126 132 133 129 139 144 152 133  85  95 105 110 102  87  76  71  64  56  57  49  50  53  52  62  71  88 115 138 152 165 177 186 191 199 203 208
 222 222 222 222 223 221 224 224 224 223 223 222 221 216 211 205 174  75  84  82  90  98  98  92  95 106 128 130 130 130 123 128 130 131 137 145 149 158 163 163 170 171 168 166 164 157 149 160 157 161 156 148 145 132 132 129 130 129 128 132 140 142 125  92  83 107 107 103  93  76  75  76  60  59  58  51  52  54  54  63  76 100 129 152 165 179 188 195 200 206 208 212
 223 223 223 223 223 222 224 224 223 224 223 222 221 219 215 211 209  82  76  80  87  96  96  93  96 103 113 124 130 126 124 130 132 136 141 144 149 154 154 154 157 153 146 139 141 127 111 139 139 146 148 153 145 133 135 134 128 125 132 138 140 127 100  84  93 108 106  95  81  77  80  73  56  64  53  54  51  54  54  63  79 109 138 161 176 190 199 203 206 210 212 215
 222 222 222 223 221 222 223 224 224 225 224 223 222 218 219 217 221 127  61  80  84  93  92  94  98 102 106 115 123 123 126 132 134 138 144 146 149 154 160 159 159 162 153 135 125 115 115 145 152 158 159 157 147 142 140 132 126 132 140 137 132 110  86  91 101 105 101  87  75  76  80  72  51  75  55  56  52  54  54  66  85 115 145 167 184 198 205 207 210 212 213 215
 223 223 223 223 223 222 224 224 224 224 223 224 223 222 220 222 220 183  77  78  80  89  91  94  95  99  96 108 113 119 126 131 135 137 139 144 148 155 157 155 157 163 161 152 145 140 146 157 162 157 161 152 142 144 141 134 125 131 136 133 121  95  82  96 101  98  89  80  73  80  75  55  59  71  56  56  52  54  56  70  93 123 153 178 191 203 209 212 212 215 216 216
 223 223 222 223 223 222 223 224 224 224 223 224 224 224 224 220 218 218 126  72  76  81  87  89  91  94  91 101 109 117 125 128 132 140 142 144 147 152 154 158 158 158 157 149 144 142 145 156 152 155 156 152 143 141 135 136 130 133 135 126 106  81  84  98  98  91  81  74  77  84  68  45  69  65  62  52  53  56  58  74 100 130 162 185 195 207 212 215 216 218 219 219
 223 223 223 223 224 222 224 224 224 224 224 224 224 223 222 224 227 216 194  69  75  76  80  82  81  86  85  94 106 115 120 126 128 138 143 144 146 149 151 150 151 158 158 152 147 149 143 156 151 152 146 144 136 136 131 133 128 135 133 115  93  78  88  93  93  83  75  71  77  68  53  61  72  71  57  52  52  58  59  76 106 137 167 188 198 209 214 217 218 220 219 219
 223 223 223 223 223 222 224 224 224 224 224 222 222 223 222 226 227 218 211  72  74  74  75  81  75  77  79  83 101 114 120 128 128 131 136 143 144 143 141 140 145 155 156 156 150 149 142 152 146 150 145 142 132 135 126 124 117 131 123 106  86  80  89  88  85  76  69  72  76  61  66  78  68  75  56  55  54  59  62  78 109 141 171 191 202 213 218 219 217 218 217 217
 223 223 223 223 223 222 224 224 224 224 224 223 223 224 224 225 223 225 218  85  65  72  70  63  78  73  73  80 104 114 124 125 130 133 136 140 139 143 148 146 147 144 149 148 148 143 149 150 146 143 135 134 121 131 129 116 101 121 104  96  74  75  75  75  68  73  59  70  55  51  80  80  74  74  58  53  54  58  63  83 113 143 174 190 204 212 217 219 217 217 217 218
 223 223 223 223 223 222 224 224 224 224 224 223 223 224 223 222 224 225 225  95  61  60  60  63  73  69  65  71  96 113 121 122 121 133 134 138 134 136 136 133 135 134 140 137 136 132 146 141 136 137 128 133 120 120 118 111  93  99  89  76  64  71  72  75  64  68  62  58  52  71  87  81  73  75  57  53  54  60  64  85 119 147 176 192 205 214 217 219 219 218 218 218
 223 223 223 223 223 223 224 223 224 224 224 223 223 224 224 224 224 223 230 112  67  58  58  66  56  63  63  57  86 100 107 118 112 126 129 129 129 129 130 135 139 131 134 136 110 126 131 122 128 125 113 113  98 105 108 105  84  69  72  57  55  61  61  67  55  53  57  55  70  88  89  82  74  74  60  55  56  60  66  89 123 151 180 197 207 214 215 219 218 217 218 218
 223 223 223 223 223 223 223 223 223 222 224 223 223 224 224 225 224 221 234 128  67  73  60  49  44  57  52  50  66  97 112 118 111 126 120 118 113 120 131 128 134 121 122 125  88 122 107 105 109 114 105 106  83 101 100  77  67  52  56  40  39  50  64  54  46  51  55  58  82  86  92  80  74  75  59  53  56  59  66  89 123 153 183 199 208 215 217 218 217 216 217 217
 223 223 223 223 223 223 223 223 223 222 224 224 224 224 224 223 220 222 227 145  72  75  67  48  40  53  47  44  48  82 110  99  82 112 105 117 104 124 124 116 124 121 105 100 107 103  89 107 127 126 105 105  96 113  73  73  60  54  42  44  28  49  44  42  51  53  61  71  88  93  94  91  80  73  62  51  50  58  66  89 125 154 184 199 208 216 216 218 217 217 217 217
 223 223 223 223 223 223 223 223 223 222 224 224 224 224 224 224 221 222 231 164  73  77  75  59  48  41  39  31  35  69  87  61  79 109 116 101 103 126  88 108 114 105 107  93 105  94 100 100 116 102 124 125 102 122  71  58  36  41  28  24  34  38  40  53  56  58  67  79  92  90  94  93  76  73  59  57  52  57  66  91 126 155 184 199 210 216 218 218 218 218 218 218
 223 223 222 224 224 223 223 222 222 222 224 225 224 224 224 222 221 223 228 181  68  76  84  70  60  33  36  36  29  44  72  60  89  93 109  85  88 108  88  91 100 118 110  80 103 118  99 114 114  98 125 116 109  89  49  49  31  31  34  17  35  28  58  63  58  62  77  86  98  96  99  96  84  70  64  50  51  59  68  92 127 157 186 202 209 217 218 219 218 218 218 218
 221 220 222 222 222 222 222 222 222 222 224 224 224 223 223 220 220 223 224 191  68  76  86  70  71  47  46  41  26  27  56  56  61  91  82 101  79  96  89  97  90 132 117  98 115 124 105  74  76  99 117 104  78  71  52  44  25  24  23  27  22  54  62  64  61  69  86  91  97 102 101  96  92  64  88  53  53  57  67  92 129 157 186 201 210 216 218 218 219 219 219 219
 220 220 221 220 221 221 221 221 222 221 223 223 223 223 223 221 226 224 223 185  66  77  85  80  71  60  58  41  13  23  36  39  58  58  68  86  71  89  92  93  97 119 119 119 111 118  83  76  69 101  99  77  57  58  43  20  15  26  17  31  48  63  71  69  67  79  89  92  97 103 103  93  83  71 115  73  53  55  68  92 128 157 186 201 209 216 218 218 218 218 217 219
 220 219 221 220 221 220 220 219 221 221 222 222 220 221 222 219 221 222 219 173  61  77  92  89  82  69  67  57  36  30  20  46  53  32  53  71  70  88  87  83  92  97 111 107  86 107  80  64  61  81  75  58  42  39  23  14  18  18  27  51  63  70  69  68  75  84  90  93  95 101 104  95  87  70 142 123  50  62  63  91 127 156 186 201 211 217 220 219 219 219 220 219
 219 219 221 218 219 219 219 218 219 219 219 219 218 218 219 220 220 225 211 176  70  76  94  91  89  76  74  68  54  52  16  24  26  25  38  71  72  80  69  79  97  85 101  88 102  86  55  53  57  58  50  41  33  37  20  16  23  34  53  62  72  74  69  72  81  88  91  98 100 103 102  94  86  66 159 147  74  52  66  85 126 156 185 200 209 217 217 218 217 216 216 218
 218 219 221 218 219 219 219 218 218 219 219 218 219 217 217 220 219 220 193 188  78  68  92  92  95  85  78  71  67  61  60  19  19  26  38  42  57  48  81  55  90  61  85  87  81  55  62  51  59  36  18  20  25  27  16  27  60  62  63  64  73  74  71  76  88  91  97 108 105 104 100  93  83  68 172 152  98  42  64  91 123 154 183 198 208 214 218 217 217 217 218 217
 220 219 220 220 220 219 220 219 218 218 217 217 212 220 216 221 217 216 160 196  97  70  92  95  98  93  83  77  69  64  60  44  30  32  26  26  26  32  56  46  45  49  57  46  52  34  38  42  32  31  20  23  30  44  46  68  64  66  68  78  77  77  74  85  91  91  98 106 108 105 101  94  82  74 184 153 139  34  40  83 118 147 182 187 206 213 214 215 214 215 216 217
 221 220 220 219 220 220 220 220 220 219 219 221 214 216 213 212 187  94 140 191 138  74  89 102 100  98  92  83  79  66  65  65  47  40  34  30  16  23  33  15  39  33  37  31  30  24  20  19  25  27  43  58  52  67  67  67  66  66  73  79  80  83  82  93  95  98 103 109 111 109 100  90  87  80 202 158 149  84  34  30  67 146 172 194 202 208 208 210 209 211 213 214
