P2
# Generated by OpenCV 4.2.0
92 112
255
  46 140 172 197 172  57  24  22  20  21  21  22  21  19  21  21  19  17  32 120 185 208 182  70  27  31  23  19  19  22  21  21  21  21  21  21  21  20  20  20  21  24  30  20  22  24  23  18  16  20  17  12  17  22  20  22  21  26  22  20  20  21  21  20  20  20  21  21  16  58 175 206 199 190 187 182 181 187 174 169 179 169 107  56  51  51  47  49  42  39  45  47
  24 115 167 196 170  56  24  22  20  21  21  21  21  20  21  21  20  19  22  89 185 209 183  68  26  32  23  19  21  21  21  21  21  21  20  20  21  20  24  22  19  19  17  20  17  17  16  12  14  16  14  15  19  16  18  18  15  24  26  21  19  20  20  20  20  18  20  20  15  42 161 204 203 199 195 190 181 178 172 180 192 172  87  46  49  48  48  53  49  42  44  48
  25  94 168 200 168  55  24  23  21  21  21  21  22  21  21  21  21  18  26  80 174 213 188  74  28  31  23  19  21  21  21  21  21  21  19  19  24  23  19  18  16  16  17  17  20  17  21  17  18  21  18  16  15  16  12  18  13  16  23  20  22  20  19  20  18  20  19  20  17  29 137 194 201 196 195 201 190 188 186 191 195 160  71  48  47  47  51  59  53  47  48  52
  26 115 174 203 172  55  23  23  21  21  21  21  21  21  21  21  20  18  24  87 157 205 188  73  30  30  23  19  20  21  21  19  20  20  19  27  27  20  13  17  16  10  14  13   9  14  24  23  20  20  10  15  21  12  13  23  26  21  24  15  20  19  19  25  19  20  19  20  19  22 124 195 202 196 191 189 186 196 204 185 174 153  88  46  46  52  60  59  50  48  46  50
  21 117 179 200 173  56  23  22  21  21  21  21  20  21  21  21  21  20  23  77 149 200 191  82  31  33  23  19  20  20  21  21  19  21  17  22  16  17  14  16  12   8   8  16  20  18  16  16  18  14  22   8  19  16  14  17  23  18  18  21  14  19  20  27  23  22  19  19  20  16 100 189 196 200 195 184 170 177 191 183 158 154  91  43  47  50  51  49  53  51  45  46
  19  90 170 203 176  58  24  22  21  20  21  21  20  21  22  22  22  21  23  70 159 210 197  85  32  33  24  19  20  19  23  23  19  12  14  23  19  16  17  15  16  17  19  18  15  22  14  10  11  13  19  12  22  19  16  10  11  13  22  25  22  27  16  15  25  23  23  20  20  18  74 170 190 188 190 190 185 172 180 187 177 159  98  54  51  49  48  46  49  49  50  50
  14  80 162 204 179  63  26  24  21  21  21  21  20  21  22  22  22  20  22  90 171 208 189  77  33  33  22  25  21  17  19  24  14  17  19  16  10  13  17  17  25  14  16  16  18  21  16  15  12  22  22  21  17  16  16  16  21  15  11  23  18  21  18  12  15  20  20  26  21  16  84 184 203 194 190 193 193 190 180 193 197 189 137  55  48  51  48  48  47  48  50  52
  18  78 169 207 181  64  26  24  21  21  21  21  20  21  22  22  22  21  20  89 182 204 186  82  31  34  23  27  28  24  21  13  18  21  13   9  19  17  17  24  16  15  25  23  26  18  18  16  19  24  31  25   9  14  23  18  16  21  21  21  23   9  16  29  26  20  15  25  26  18  69 182 203 194 183 181 197 198 189 191 190 189 143  62  44  39  43  47  47  47  48  45
  22  70 162 211 184  66  26  24  22  22  21  21  20  21  21  21  21  21  21  70 174 211 198  91  32  33  21  28  27  16  24  21  15  13  23  17  15  12  14  19  32  31  27  28  21  14  16  12  22  21  24  25  15  25  20  17  22  22  18  18  26  10  10  25  32  14  13  17  16  20  55 158 195 185 182 190 199 198 196 188 189 188 133  60  48  39  39  43  47  47  46  43
  24  81 160 208 184  67  25  24  21  21  21  21  20  20  21  21  21  22  26  75 162 207 201  96  25  20  17  19  16  19  21  19  24  17  23  27  22  17  26  24  31  33  29  19  28  18  22  26  17  15  22  24  19  20  15  18  19  16  11  15  19  21  18  14  21  11  11  16  18  12  37 116 196 186 178 174 189 193 199 195 200 197 143  69  50  47  44  43  43  44  44  41
  24 105 174 206 184  67  27  24  21  21  21  21  20  20  21  21  20  20  24  86 161 201 177  50  10  19  20  20  25  22  17  18  30  22  27  25  19  21  28  30  29  33  29  27  32  32  22  20  24  26  26  25  26  23  23  19  16  15  20  19  23  24  25  14  11  17  16  17  12   8  15  45 173 217 183 158 167 188 194 191 198 209 174  75  42  45  47  49  47  44  43  42
  28  88 171 207 186  73  26  24  23  21  21  21  21  21  21  21  21  20  21  81 165 190  66  10  21  27  26  18  18  13  24  25  26  20  27  27  25  26  32  30  31  29  34  39  25  27  32  24  28  32  44  45  27  27  23  30  16  14  15  17  23  30  22  16  19  17  23  19  13  23  10   2  28 165 206 169 173 188 190 196 206 213 172  64  39  47  54  59  56  50  45  44
  22  73 152 207 189  75  26  24  24  22  21  21  21  21  21  21  21  19  21  82 161  99   6  18  23  25  21  25  23  25  28  22  25  25  27  33  24  29  40  30  40  46  33  43  55  31  22  22  32  28  36  30  25  29  29  42  37  31  21  26  26  26  32  30  23  24  27  19  19  24  23  20   2  23 162 193 186 186 189 200 212 213 171  57  36  53  54  55  57  58  48  44
  19  55 133 197 188  79  26  24  23  21  21  21  21  21  21  21  20  17  20  81  83   5  13  21  31  32  25  34  26  27  30  29  24  26  35  36  46  45  55  53  47  50  59  72  58  37  33  53  48  41  63  46  23  23  38  43  34  38  47  23  26  41  40  35  20  13  15  16  16  20  16  20  13   6  45 163 199 194 190 193 199 209 166  59  36  47  42  40  48  57  55  49
  19  52 113 176 183  83  27  22  22  21  22  21  21  21  21  21  20  19  26  42  13  14  22  25  26  23  27  27  23  25  35  32  31  36  35  45  57  58  59  57  70  77  76  50  33  55  68  58  35  50  63  58  52  34  48  37  27  39  41  25  31  26  30  31  33  23  24  21  16  24  20  17  25  20   5  69 205 202 198 188 190 201 170  78  41  40  40  43  44  50  55  52
  24  79 135 172 183  83  26  23  22  21  22  21  21  21  20  20  21  20  23  15  23  33  22  18  13  24  29  35  35  52  62  43  39  48  56  51  61  88  73  56  94  78  57  58  46  43  43  37  52  71  75  76  69  49  36  28  30  53  51  36  32  42  45  33  27  36  34  27  31  33  18  19  18  29  15   5  87 201 191 177 182 203 188  91  42  43  45  47  44  43  49  51
  22  84 148 185 191  84  26  24  22  21  22  20  21  21  21  21  22  21  19  18  32  24  18  18  21  22  35  48  51  45  43  49  67  76  91 107 113 108 109 105  80  93 114 115  76  70  57  60  62  46  58  80  50  54  61  51  49  52  40  37  39  29  23  22  32  42  39  30  33  35  18  21  18  23  23  13  22 131 171 174 190 205 190  86  43  48  46  46  43  41  47  51
  19  65 147 196 196  90  26  23  21  21  22  21  21  21  21  21  22  20  22  26  19  21  30  31  36  28  42  52  57  67  74  92 121 129 142 143 146 133 147 156 150 145 136 113 132 121 109  97 104 105 106 106  91  73  77  81  64  77  88  68  42  60  54  56  60  50  51  56  37  25  26  17  23  24  13  17  12  22 144 195 197 207 186  87  45  48  46  46  44  42  45  47
  21  49 129 200 199  91  25  23  21  21  22  21  21  21  21  22  22  16  19  22  21  26  34  34  37  46  47  68 104 122 131 131 114 140 161 160 156 163 174 180 181 172 166 165 163 162 156 140 142 154 143 105 107 131 125  96  93  87  94 102 100  88 117 118  93  77  61  66  47  39  56  40  19  22  15  28  12   0  71 200 204 204 172  77  42  47  50  50  44  43  45  44
  20  46 113 188 194  89  22  23  21  21  21  21  21  20  21  22  17  13  22  21  17  18  36  37  57  69  96 123 134 136 143 142 148 160 163 163 167 170 173 175 176 178 183 185 184 184 182 181 178 174 154 151 154 154 142 155 162 135 122 123 157 140 147 143 144 128  98  91 108  90  60  80  46  28  19  16  16   5  20 166 202 202 174  76  35  44  52  51  46  45  45  43
  21  41  85 154 186  86  19  23  20  20  20  21  21  20  21  20  11  11  22  19  21  32  44  67 101 116 131 135 141 144 145 152 157 155 160 167 169 171 174 177 179 178 180 182 183 179 182 182 182 186 184 181 159 145 176 180 174 159 160 165 165 160 161 157 154 145 147 148 136 118  95  92  90  60  46  12  10  10   0  78 191 202 183  87  36  41  50  52  49  48  48  49
  22  38  68 139 183  83  16  22  21  21  21  21  21  21  23  19  13   9  14  19  29  37  62 118 127 132 137 142 144 145 146 148 154 158 169 170 171 174 176 177 180 183 183 182 179 179 178 181 183 183 183 182 182 180 179 176 173 168 167 168 168 172 165 162 159 157 157 158 139 119 105  79 104  98  79  56  34  17   7   1 138 206 176  78  47  40  43  50  49  49  49  54
  18  30  68 146 188  85  13  22  20  21  21  21  22  22  20  14   8   9  14  25  27  47 103 127 132 135 137 141 141 148 143 151 158 161 168 173 173 176 180 184 184 185 186 183 181 186 183 184 184 186 184 183 183 182 179 176 173 164 164 167 170 169 168 166 164 158 155 155 146 144 123 110 109 107  98  87  61  27  11   0  58 213 181  86  50  43  34  41  43  42  44  49
  21  32  69 153 192  90  13  22  21  21  21  21  22  23  19  13  11  11  22  30  50  68 111 131 137 135 137 143 147 140 147 158 159 166 170 172 175 178 184 187 185 184 187 185 184 187 184 181 184 185 186 187 185 182 180 175 173 171 168 165 167 169 170 169 167 163 158 152 151 148 134 126 119 106 110  97  83  36  13  23  14 158 180  72  47  39  34  35  38  36  42  46
  20  42  74 142 188  90  14  21  22  20  21  21  22  21  17  22  15  16  23  31  54  81 128 136 140 136 140 150 148 146 155 155 157 166 171 173 176 180 185 187 183 183 185 186 186 190 190 190 187 182 181 182 186 186 185 183 179 175 173 170 167 170 169 167 170 168 164 157 152 148 135 124 120 113 109 106  98  72  38  20   3  71 162  64  46  43  36  36  37  35  40  46
  17  40  76 139 189  95  14  21  22  21  21  21  21  22  25  12  17  23  29  42  65  99 123 138 143 138 143 149 147 147 152 163 164 169 173 177 177 183 186 185 187 193 189 192 192 194 195 192 179 179 178 185 192 192 191 185 182 182 180 174 176 175 170 168 169 163 164 160 154 150 138 125 121 116 111 113 108  94  61  20   1  44 137  60  45  43  36  37  37  36  34  43
  18  38  71 140 194 100  15  22  20  21  21  21  22  23  13  16  25  26  33  50  74 111 130 140 141 139 143 147 148 149 155 160 167 171 172 177 181 187 184 186 189 191 190 195 197 196 196 196 186 181 182 192 198 196 197 191 183 183 185 178 179 176 173 171 167 161 157 162 155 149 142 130 119 116 113 115 110  96  83  38   8  13 106  64  42  41  36  38  42  39  34  34
  20  35  70 143 194 104  15  22  21  21  21  21  19  21  16  19  23  27  35  51  85 110 127 142 142 141 143 146 154 154 158 162 166 168 171 176 180 183 182 192 191 190 191 192 196 200 197 198 200 197 193 197 199 195 195 191 190 191 183 182 181 173 175 174 171 167 160 158 157 152 141 133 124 119 115 113 109 101  96  60  21   2  53  54  38  41  37  38  43  40  35  33
  19  31  62 137 191 106  16  21  21  21  21  22  20  16  21  25  27  23  36  58  85  96 128 142 142 145 139 149 158 157 159 160 163 168 173 177 180 179 186 187 188 192 192 196 201 206 203 200 202 204 203 199 200 200 195 195 193 191 184 182 180 180 179 172 170 170 165 162 157 153 144 136 126 121 118 116 112 106  95  74  35  11  22  46  34  40  41  40  39  37  32  31
  19  30  58 126 187 103  14  20  21  21  21  21  22  22  18  23  28  30  40  57  66  99 122 134 143 149 144 152 157 158 158 153 161 171 175 180 180 184 190 186 192 197 197 201 205 206 209 207 203 205 206 207 205 201 198 197 195 190 191 185 183 184 179 173 173 168 163 162 155 148 147 138 127 123 121 120 116 111 100  84  42  16  22  36  39  46  47  41  35  35  32  28
  20  34  62 126 183 101  14  22  21  22  23  23  21  17  14  24  32  37  36  45  70  98 106 128 142 146 146 155 154 159 165 163 166 170 176 180 180 185 186 190 194 194 199 200 208 210 210 208 209 209 205 206 209 208 197 194 190 190 192 190 183 180 181 179 176 166 163 164 156 146 144 144 130 124 123 122 117 116 107  91  49  18  16  23  41  46  45  38  36  38  38  36
  17  37  66 124 180  97  16  20  21  21  21  22  22  24  18  30  31  32  45  52  68  91 113 124 140 142 147 156 162 163 166 168 168 170 176 180 184 182 187 192 194 195 195 196 204 204 209 209 206 207 209 208 210 206 201 193 186 190 190 190 186 184 181 178 174 170 169 160 160 149 145 147 134 123 124 120 121 117 107  92  57  24  13  15  39  42  42  39  38  39  41  38
  20  33  59 112 176 100  17  20  21  21  21  23  18  20  22  25  34  39  42  48  70  92  96 130 145 151 148 154 166 162 163 167 169 171 174 179 180 184 192 194 196 197 196 197 199 199 199 199 202 207 206 209 209 205 203 198 194 194 194 189 184 183 180 176 173 170 171 161 161 151 145 149 142 131 129 120 122 120 108  84  54  35  13  14  35  42  42  41  38  40  41  35
  21  27  53 120 183 113  19  21  21  22  21  18  15  25  27  25  39  47  46  56  78  78 103 134 144 150 149 154 164 165 167 168 170 170 170 175 181 185 191 193 198 195 195 198 201 202 201 197 196 202 196 198 202 202 200 194 193 190 191 189 184 181 179 173 173 171 169 165 159 155 152 152 146 132 128 121 121 121 107  85  54  43  12  11  29  41  43  40  35  38  39  33
  18  27  50 123 193 124  23  22  21  21  26  38  27  23  24  37  43  46  51  61  72  82 122 136 145 151 148 154 163 166 170 171 172 172 173 177 183 188 192 198 197 198 199 201 202 205 204 201 202 202 203 199 202 205 198 197 194 188 189 188 188 184 180 176 176 172 168 165 161 159 157 155 150 136 126 118 122 120 107  83  58  40  18   9  30  42  41  37  35  39  39  33
  20  30  53 114 186 130  28  23  19  21  21  28  18  22  35  34  43  49  45  61  70 101 123 140 148 150 150 156 161 168 172 173 176 177 180 184 186 191 194 197 200 200 203 201 203 204 199 203 207 203 202 203 200 204 203 194 195 187 189 189 186 186 184 178 177 174 167 166 163 159 154 154 151 144 131 124 123 121 109  84  63  45  23  12  21  41  40  38  40  39  38  33
  19  32  54 106 183 132  28  22  22  21  23  20  18  29  34  28  39  40  57  66  82  99 129 143 148 143 149 161 165 170 173 174 177 180 183 185 191 195 196 198 200 199 202 205 204 204 203 205 204 202 199 202 199 200 203 199 196 190 191 193 189 189 188 178 174 175 173 172 170 162 156 153 149 145 136 125 125 117 108  80  57  48  25  16  14  42  44  40  40  38  35  29
  21  27  54 110 184 133  27  23  22  20  25  17  28  29  29  42  39  42  51  68  89 113 134 148 145 144 155 154 141 170 176 175 178 181 187 188 192 195 197 198 202 203 202 206 205 206 205 207 203 202 204 201 202 199 199 201 198 196 196 195 197 192 189 184 178 177 175 170 171 164 154 148 148 141 138 127 128 124 110  75  52  49  27  12  19  34  42  43  38  38  35  29
  22  25  54 116 187 137  26  20  21  21  27  24  26  27  36  45  40  44  51  75 105 122 136 147 148 148 152 154 150 169 175 178 184 188 189 192 190 194 199 200 200 200 205 209 211 209 205 204 205 206 206 203 205 203 201 200 199 197 198 197 195 195 193 187 182 181 175 171 166 165 152 141 131 137 129 126 128 123 109  77  55  44  30  13  18  33  38  41  41  38  34  25
  22  28  57 115 191 142  29  22  22  21  24  28  22  26  29  43  47  42  48  83  92 128 143 144 148 153 155 158 166 173 180 186 189 192 192 198 198 197 200 205 201 199 213 213 213 214 210 206 204 206 206 204 203 202 202 200 202 203 202 199 197 197 197 194 192 181 181 177 173 168 162 155 142 139 131 123 124 126 110  73  58  47  29  13  16  34  36  38  39  38  35  26
  21  28  51 113 193 146  33  22  23  20  33  26  15  32  36  45  37  37  54  81 117 139 142 144 148 150 155 158 168 180 187 188 191 195 196 200 200 199 201 202 205 212 216 216 214 213 217 211 210 208 211 209 205 204 205 205 205 204 208 209 204 198 196 197 194 185 186 183 176 170 167 161 156 151 138 124 122 120 111  66  59  53  30  13  18  30  34  37  38  37  35  26
  20  26  47 122 200 152  35  22  22  22  26  22  20  37  31  40  40  54  79  96 125 135 139 142 141 148 158 162 174 180 178 182 192 198 193 200 196 196 199 204 206 212 215 218 214 212 215 213 212 212 212 214 214 217 214 213 215 213 208 210 205 204 197 189 195 187 191 187 182 173 170 165 159 148 138 127 122 117 110  72  49  49  32  14  16  32  33  33  37  38  32  24
  20  26  57 134 204 154  38  25  22  22  23  26  32  39  36  41  43  61  79 113 129 131 135 134 138 149 159 170 172 148 134 149 165 159 146 155 172 186 179 160 187 185 201 211 208 205 206 206 208 210 216 211 218 221 214 214 213 209 211 206 206 202 173 180 195 197 184 184 181 177 174 171 165 153 143 135 126 115 110  82  52  39  31  16   9  33  39  36  38  38  31  22
  22  23  62 142 204 156  41  25  23  21  25  17  31  38  37  33  43  59  98 121 129 130 132 130 138 149 153 154 121  90 111 123 111 105 113 115  94 105 132 127 111 140 154 178 176 192 201 202 208 213 217 221 217 209 199 201 199 201 201 201 189 138 142 168 163 140 142 162 170 177 176 169 161 158 145 135 128 112 112  91  56  40  27  17  16  37  39  36  34  33  29  20
  19  25  59 147 206 158  43  25  23  22  24  17  34  39  44  34  38  65 109 121 128 134 131 132 142 152 134 102  88  85  72  70  72  67  70  82  80  60  78 119 112 107 134 174 160 161 189 202 203 212 210 215 212 204 196 191 190 182 184 187 168 129 139 115  80  75  84  90 117 132 123 130 120 125 141 132 129 109 108 108  79  39  24  15   9  29  33  31  31  30  25  21
  20  31  72 145 205 162  45  25  22  23  23  32  36  30  40  35  43  85 115 120 126 133 131 130 133 102  77  65  69  69  68  74  82  89  93  79  92 106  66  88 108 127 127 155 158 153 170 196 198 202 201 206 204 193 197 190 180 174 172 165 139 137 129  82  66  72  64  72  56  59  50  57  66  64  98 136 129 106 103 117  91  42  23  14   8  29  29  30  30  29  23  20
  20  28  69 135 198 163  47  25  23  22  27  34  28  33  39  34  53  93 117 126 129 132 131 120 100  69  81  80  98 104 126 143 148 158 166 169 162 164 136 130 134 143 148 158 164 167 172 186 195 195 197 202 199 191 189 185 176 174 162 148 150 153 118  82  80  62  49  57  52  63  55  42  39  34  41  86 127 108 100 112  89  49  24  14  14  30  34  31  30  28  23  20
  22  26  55 125 195 166  51  27  25  24  26  19  30  37  34  39  57  94 119 128 131 132 124 113  78  75  98 113 125 139 143 153 155 156 166 173 179 181 179 174 171 167 165 171 172 171 172 179 185 190 192 200 197 187 184 179 172 168 163 162 163 155 132 128 118 114 122 127 144 147 137 126 104  70  40  39  71 100  99 105  97  58  21  12  14  30  34  33  31  26  21  21
  20  26  55 122 198 170  53  28  24  22  19  23  29  39  37  38  58 104 120 125 133 130 121  86  66  72  96 120 136 146 145 150 155 162 167 172 178 177 172 171 177 177 169 167 168 165 166 174 181 187 194 198 192 183 179 177 168 164 158 158 162 159 159 161 168 174 169 156 151 149 147 146 140 115  66  45  39  64  94 101 102  65  21  14  22  31  29  31  30  24  21  21
  19  25  54 115 194 169  52  27  22  22  22  25  29  35  35  36  62 107 119 122 131 125 108  92  91 113 129 136 138 137 143 145 135 133 135 141 130 124 126 136 158 173 176 171 165 163 162 170 179 189 193 196 185 180 179 174 165 159 154 159 166 170 171 179 180 177 168 153 147 141 136 136 124 112  92  63  37  44  82 102 102  70  29  17  18  31  26  30  26  22  20  21
  21  23  46 110 191 171  53  25  23  20  24  17  24  35  40  42  70 110 118 126 132 126 108 111 128 131 131 130 132 131 118 107 117 132 146 148 137 132 120 105 107 138 169 176 175 163 161 168 178 189 198 195 186 182 179 168 159 150 155 176 179 176 166 151 145 147 151 153 149 143 134 127 117 117 108  80  53  40  65  98 103  71  28  16  15  26  29  29  23  22  21  21
  22  24  36  95 189 176  58  26  23  23  22  14  30  39  40  39  75 109 119 128 129 123 116 125 138 134 124 123 130 109 100 112  99  74  48  44  50  49  75 111 121 102 130 170 183 175 159 167 181 190 197 196 187 179 174 162 151 148 167 172 157 125 107 112 123 126 135 134 120 114 118 122 117 111 113  94  74  72  74  96 104  71  21  16  19  27  29  27  22  21  22  22
  22  24  40  94 185 176  61  27  23  22  22  14  31  41  42  38  78 109 118 126 128 129 126 133 133 126 118 121 104  97  83  48  20   4   1  53  70   0  45 103  87 102 119 155 183 182 158 162 178 188 193 193 185 174 164 152 145 160 172 150 111  96 102  84  54  55  62  70  92 108 101  96  99 105 104 100 100  85  93 103 105  70  24  17  16  27  27  25  21  20  21  21
  23  25  44 106 192 178  58  24  16  15  15   5  23  38  35  41  86 108 120 125 124 136 131 126 128 126 121 111  86  51  10   9  50  41  25  30  31  20  91 151  85  67  76 123 169 174 168 165 173 181 187 188 182 169 152 146 139 157 165 110  85  79  80  31   0  62  42   1   3  34  74  86  83  96 109 101 101  96 100 110 102  71  18  17  22  25  26  23  22  22  22  22
  22  26  47 107 192 178  56  38  49  52  49  31  26  41  36  44  85 107 122 126 125 136 136 125 118 121 118 101  62  36  57  81 100 112 116 125 128 133 128 122 128 129 120 103 149 166 174 164 161 172 176 179 172 162 145 137 133 144 129  75  84  97 113 108  92  87  64  47  47  30   5  14  48  76 103  97  92 101 101 108 102  65  17  22  25  25  25  22  22  22  22  22
  21  25  50 102 185 172  88 122 148 152 156 151 115  45  28  45  85 106 118 124 128 143 140 131 122 115 108 113 104 104 121 130 131 140 144 155 172 162 148 149 144 142 159 142 144 167 171 153 160 174 178 177 171 161 151 130 128 141 133 133 148 134 137 147 157 164 156 131 119 106  75  51  29  38  95 106  91 104 101 105 102  59  15  24  24  21  22  21  21  21  21  21
  20  24  44  95 181 167 126 138 143 173 174 176 173 107  32  45  86 105 117 122 126 150 148 138 133 134 135 135 129 122 125 133 139 148 146 148 148 140 136 135 129 136 140 147 161 167 160 156 171 174 178 178 174 166 157 146 123 142 140 133 144 140 132 139 159 167 158 148 141 140 138 127 105  71  84 100  86  96  97 105 101  61  18  25  22  20  20  22  21  21  21  21
  20  24  46  96 184 159 121 123 111 124 167 175 179 155  45  43  89 102 119 116 121 149 148 144 143 143 138 147 150 143 144 139 137 136 132 131 131 137 137 142 142 148 156 167 172 165 161 165 170 174 176 173 177 168 159 151 137 135 154 149 148 150 147 137 137 140 139 136 137 135 134 121 109 112 105  98  92 102 103 105  97  58  16  19  13  15  19  21  20  22  21  21
  21  22  50 108 187 159 125 160 161 122 112 166 174 171  72  31  89 105 119 117 124 148 151 149 147 145 151 155 151 151 158 161 158 160 160 164 167 166 162 160 160 167 172 177 175 167 169 165 173 177 177 181 180 172 159 143 148 141 145 150 150 152 161 168 159 145 134 132 137 139 136 130 124 118 103 106 114 109 105 105  97  46  26  76  73  50  21  18  21  20  21  21
  21  24  47 118 193 176 164 188 176 157 123 123 166 162  96  36  90 109 116 116 121 149 154 147 146 148 155 161 164 171 173 174 174 175 172 173 170 168 169 172 171 171 176 177 172 175 173 163 171 177 180 183 181 175 157 142 142 159 155 156 155 152 153 160 167 166 162 158 153 151 143 133 128 126 120 105 111 110 101 103  96  46  97 152 144 129  82  24  19  21  21  21
  21  23  55 130 203 184 194 199 176 159 157 123 136 153  98  42  91 107 115 114 123 148 150 148 151 155 163 172 178 181 178 174 174 172 170 172 175 174 174 170 173 178 183 181 178 181 172 163 163 172 179 180 184 178 157 133 133 160 170 168 164 161 150 153 157 162 163 158 154 154 156 151 145 138 132 120 109 114 104  97  88  63 148 156 154 136 121  58  17  22  21  20
  22  23  39 114 201 179 188 206 181 156 149 153 153 143 105  42  90 110 108 111 121 145 143 148 156 161 171 177 182 180 177 175 175 176 177 179 175 174 174 177 181 184 184 182 185 184 171 158 159 167 175 179 185 182 160 128 118 153 173 174 179 178 170 161 154 161 167 167 166 164 163 161 159 152 140 123 115 111 105  95  78  77 165 153 117  94 121  80  16  20  22  20
  22  25  33  73 175 174 171 206 185 145 146 183 179 121 116  49  88 110 104 104 117 138 142 154 158 167 171 173 178 181 185 183 181 179 183 181 180 180 186 189 186 188 188 187 189 181 163 150 156 164 173 185 189 188 170 138 113 142 176 183 183 185 181 175 169 165 170 176 176 175 173 168 165 160 150 134 120 113 102  97  70  85 158 107 124 134 129  76  14  22  21  21
  22  24  37  79 170 163 141 197 180 142 171 200 176 174 142  59  84 108 105  97 120 133 149 156 160 165 174 173 177 185 187 186 184 183 190 190 191 193 195 196 197 195 195 190 184 175 151 145 153 158 170 187 191 188 181 156 126 127 164 177 182 192 192 190 184 174 174 179 179 179 178 174 168 165 158 140 122 114 103  95  64  88 117 121 166 160 140  49  15  22  21  22
  21  24  41 106 186 164 113 195 170 149 197 211 193 183 164  65  77 108 105 103 115 125 150 157 160 165 175 178 182 187 188 191 191 192 192 192 202 203 202 197 194 189 181 175 171 161 139 143 155 157 165 189 192 186 182 168 144 127 139 147 156 178 198 204 195 190 184 179 183 180 177 180 175 166 159 142 125 118 104  90  62  81 119 147 183 192 130  18  21  21  21  22
  23  23  55 130 200 177  93 190 160 161 215 213 192 173 178  80  77 109 102 103 114 127 148 155 158 167 173 178 185 189 189 193 192 193 196 201 211 203 192 182 175 167 152 151 152 146 147 156 159 159 174 197 195 193 186 175 156 141 133 132 142 160 178 192 203 207 198 186 187 186 181 181 179 177 163 146 126 116 106  85  61 129 138 145 197 208 104  10  21  22  21  21
  25  21  55 133 194 186  81 172 162 179 218 210 196 164 180  86  79 105 103 102 115 136 148 152 155 166 174 180 187 187 185 183 191 197 201 205 197 186 180 185 177 149 152 163 165 163 169 174 174 169 178 200 224 215 193 177 162 149 151 140 147 153 171 180 190 204 208 200 193 193 185 182 179 178 166 154 130 111 108  81  62 167 155 142 198 204  74  10  22  22  21  21
  23  23  43 117 198 194  71 152 167 190 219 211 204 161 170  92  78 105  99  97 118 138 148 151 153 164 171 180 186 188 188 189 195 199 200 194 186 180 187 190 172 150 171 181 185 182 182 181 175 170 169 187 211 200 183 167 153 156 160 155 155 146 151 172 176 186 201 208 198 199 192 185 183 177 165 157 139 114 107  80  68 184 177 148 201 185  45  15  22  22  21  21
  24  24  39 108 199 194  65 131 172 192 212 207 204 179 166 105  81 100  98  94 118 135 145 148 149 160 168 179 186 186 190 193 197 198 193 190 177 171 170 172 154 153 175 179 182 184 187 182 169 164 163 170 181 180 174 158 154 155 159 167 164 147 134 154 158 170 183 196 199 202 195 189 185 179 169 161 142 113 111  73  72 204 193 151 194 157  23  20  22  22  21  21
  24  23  36 105 199 197  65 105 172 179 192 187 189 182 164 114  80  99  98  96 121 134 144 146 146 154 165 177 183 184 186 193 196 193 185 157 141 157 160 165 132 134 157 148 133 123 125 124 131 149 156 164 174 168 159 152 122  86  97 120 137 133 118 149 151 147 163 183 191 189 196 191 183 180 169 161 143 114 111  66  96 216 201 154 185 104   9  23  22  22  21  21
  22  24  32  98 195 197  63  79 164 162 171 171 202 186 157 119  80 101  97  96 121 135 144 143 141 154 162 172 179 180 187 188 192 185 170 139 147 167 167 168 146 109 124 117 130 136 125  96  82  91 114 143 154 150 143  97  77 112 129 112  93  97 110 153 156 146 143 171 187 191 192 186 181 175 168 158 141 114 111  66 141 223 207 156 173  53  11  21  22  22  21  21
  22  24  32  79 180 190  60  50 166 150 160 182 192 176 165 120  82 100  99  95 117 128 142 142 136 148 157 167 175 179 186 187 186 174 156 145 164 178 173 168 172 139 105 117 133 132 139 151 137 119  89 100 120 108  87  98 144 148 121 115 107  99 136 158 158 160 140 141 171 182 184 183 177 171 165 154 136 106 105  79 183 219 200 160 151  22  18  21  22  21  21  21
  24  23  35  84 179 194  68  28 156 155 155 192 185 180 178 129  85 101 103  94 111 128 145 143 130 138 149 161 172 170 178 182 174 155 136 155 181 179 171 168 171 166 149 135 132 120 126 142 145 138 123  95  92  88 108 142 138 122 120 126 122 138 152 157 163 162 164 133 145 174 181 178 169 168 157 150 131 101 102  89 192 204 186 160 118   7  20  21  22  22  21  21
  24  24  30  85 189 200  82  12 115 154 175 196 184 178 183 149  82  96 104  98 113 130 140 139 130 132 145 158 168 170 175 176 155 128 142 174 177 175 169 164 160 159 150 146 142 131 131 144 158 164 174 162 140 141 148 138 118 129 111 125 130 136 144 144 152 159 164 161 130 151 172 171 172 170 157 143 124 101  97 101 166 172 158 161  78   6  20  21  22  22  22  22
  24  24  25  72 182 202  77  10  54 141 180 182 180 181 186 166  77  96 101  96 116 129 137 138 133 129 144 155 164 171 172 165 126 135 170 163 159 165 144 145 148 151 144 137 137 138 144 147 144 166 174 166 159 150 136 137 127 124 117 120 131 124 123 128 138 151 165 179 159 124 157 171 172 166 155 136 117  99  87 125 174 155 142 151  36  12  22  22  22  22  22  22
  23  23  28  62 168 195  73  17  10  94 175 180 180 184 179 172  89  96  99 101 115 128 140 141 133 129 136 149 163 171 169 138 121 148 164 160 155 143 114 131 147 145 145 149 140 140 143 154 158 172 162 156 163 164 137 136 135 128 124 128 135 125 124 124 132 137 146 169 167 145 130 163 166 161 150 131 107  97  86 142 183 151 142 123  10  17  20  21  22  22  22  22
  23  21  40  93 177 196  76  17   8  12  81 130 136 141 127 135  86  87  98 107 114 125 137 142 133 127 125 143 161 172 162 124 135 136 150 143 127 124 129 139 152 162 164 158 153 158 156 168 170 174 164 170 165 167 170 166 154 153 143 137 144 128 127 131 120 110 127 143 157 145 117 147 160 158 145 123 101  93  88 166 190 159 153  73   4  18  20  22  22  22  22  22
  23  22  43 119 199 199  79  17  16   5   0   6  10  10   4  27  72  91 104 108 116 125 136 144 135 124 125 140 159 175 147 117 138 141 145 122 104 123 135 142 162 158 156 159 172 168 169 179 184 187 176 177 172 170 176 177 167 164 147 147 153 147 137 150 134 109 127 113 134 133 133 138 158 156 138 117 103  90  97 171 186 168 124  28  11  19  20  21  21  21  22  22
  23  23  36 102 195 201  83  21  18   9   6   1   0   0   0   0  46  88 101 110 118 129 137 140 135 125 124 139 162 180 142 116 144 153 142 114 114 130 145 155 165 166 171 179 177 177 180 187 181 181 179 178 171 168 172 170 163 165 167 162 156 153 145 150 138 114 128 127 125 134 131 138 155 150 134 110 115  89 117 175 172 173  82   3  15  18  21  21  21  21  22  22
  23  23  34 107 202 207  92  24  19   9   6   2   1   1   2   0  27  89 101 112 118 125 133 141 136 124 124 142 166 184 134 128 150 140 142 127 118 131 156 166 164 165 159 156 151 144 147 152 148 144 143 141 154 144 128 126 127 131 129 138 145 151 152 147 136 127 122 129 128 133 107 147 154 148 127 113 122  85 124 173 171 159  39   4  15  19  21  21  21  21  22  21
  23  23  33 104 203 210 100  24  20  11   5   4   1   1   1   0  18  83 100 114 114 123 130 139 136 127 129 141 163 186 137 134 140 138 131 123 120 120 126 127 127 122 116 115 121 127 133 143 147 149 140 136 131 112  99 109 108 107  98  96  98 114 126 135 136 122 116 121 128 125 104 163 157 148 120 122 126  85  33  58  82  47   3  12  15  19  21  21  21  21  23  21
  23  22  31  97 196 209  99  26  22  10   5   3   0   1   1   1   6  67  99 112 116 119 133 143 132 127 129 143 161 186 150 133 143 142 144 128  92  62  55  68  82  85  84  83  92  99 100 120 130 135 148 134 122 101  87  94  89  79  76  73  68  65  70  84  95 100  98 122 144 124 108 180 162 149 109 135 121  65   0   0   0   0   8  12  15  19  21  21  21  21  23  21
  23  23  32  98 197 208  95  27  21   9   6   3   1   0   2   1   1  49  94 112 119 120 132 143 135 127 122 135 159 183 168 135 155 155 156 151 142 107  76  80  93  98 100 106 113 114 120 121 119 129 123 111 112  98  93  95  88  75  70  62  64  57  54  77 102 111 127 150 139  97 139 187 163 139 113 136 114  47   0   2   2   5   8  13  16  20  21  21  21  21  22  22
  23  24  31 106 203 210  99  23  20  10   6   4   1   0   1   1   0  47  95 109 119 118 119 134 134 126 128 133 151 177 189 156 147 163 161 161 165 162 146 124 119 116 117 121 124 129 140 155 167 169 151 131 138 136 127 121 121 104  94  89  86  93 115 131 134 139 154 146 130 129 180 183 157 123 126 132 103  30   0   2   2   6  10  14  18  20  21  21  21  21  22  22
  23  24  29 100 201 203  93  17  17   9   6   3   1   1   0   1   0  37  92 108 118 118 121 127 137 126 127 132 138 163 192 176 154 169 170 164 167 164 163 159 165 168 160 146 132 131 134 157 186 179 163 140 141 131 123 116 109  99  96 103 121 124 126 135 146 159 166 156 143 165 191 172 134 109 135 122  87  11   0   2   4   7  11  15  19  20  21  21  21  21  22  22
  23  22  22  79 178 181  71   7   7   3   2   1   1   1   1   1   0  29  84 108 120 119 119 124 130 130 120 130 128 151 181 185 157 166 168 167 170 165 162 167 173 182 189 188 183 170 163 163 169 170 157 146 137 132 128 121 128 130 141 145 144 121 129 153 163 166 159 163 154 179 188 150 113 119 136 113  68   1   1   2   4   8  12  15  19  21  22  22  21  21  22  22
  22  21  19  77 170 163  57   1   3   2   0   1   1   1   1   1   0  24  75 103 121 116 115 125 129 131 119 125 125 147 164 180 156 160 167 169 172 172 166 159 171 177 184 194 198 199 198 187 179 183 185 181 177 177 164 168 170 159 161 147 127 125 148 164 161 153 157 158 170 179 157 120 108 130 130 100  45   0   2   3   4   8  13  17  20  21  22  22  21  21  21  22
  21  20  20  86 172 155  59   1   3   1   1   1   1   1   1   1   0  24  68 100 122 118 114 124 131 129 125 127 138 142 158 168 169 164 159 163 171 174 172 169 164 172 176 186 189 195 192 190 190 191 193 195 191 180 181 182 162 155 152 137 131 147 163 160 155 154 158 168 185 170 119 106 125 132 118  89  31   0   1   1   4   9  13  17  21  22  21  22  22  22  21  22
  22  20  22  89 171 156  60   1   3   1   1   1   1   1   1   1   0  24  62  90 115 127 117 120 130 129 120 130 139 150 150 160 168 165 160 163 169 173 171 174 175 176 174 175 181 180 180 173 165 175 179 172 163 159 162 160 145 149 150 138 147 158 161 151 148 158 170 181 170 123 102 113 134 129 106  73  24   0   1   1   4   6   9  12  17  18  20  21  22  22  22  21
  22  20  20  80 164 158  63   1   2   1   1   1   1   1   1   2   0  25  59  83 104 124 118 113 129 135 130 128 134 146 147 154 164 162 155 161 169 169 173 177 180 180 178 179 186 179 181 176 163 162 163 156 151 166 158 162 173 166 155 157 158 157 149 139 153 165 173 169 129  93 112 125 134 115  86  63  12   0   2   1   1   2   4   7  10  14  19  21  21  22  22  21
  23  21  19  67 156 160  65   4   3   1   1   1   1   1   1   1   0  23  64  69 102 118 119 112 122 133 132 128 142 144 143 144 151 157 157 162 166 170 172 174 177 178 181 180 183 186 185 184 174 168 168 163 161 179 175 177 175 166 160 159 158 152 145 144 164 162 164 137 102 106 118 129 129  98  74  52   2   1   1   0   0   1   1   3   6  10  16  19  21  21  22  22
  23  21  18  58 149 160  64   3   2   1   1   1   1   1   1   1   0  19  70  53  91 113 114 112 119 121 133 125 133 141 137 139 147 155 158 158 163 168 172 172 178 178 179 182 183 183 187 185 185 172 176 166 173 177 177 178 171 162 159 160 155 152 149 152 156 165 149 104 105 120 126 128 112  82  74  32   1   1   0   0   0   0   1   1   5   9  13  18  22  22  22  22
  22  21  22  65 155 168  71   5   3   1   1   1   0   0   0   0   0  11  71  50  70 104 114 109 108 111 124 133 131 130 128 138 150 149 158 154 162 167 169 173 176 178 178 181 184 182 181 180 180 176 177 171 171 175 174 174 168 165 161 160 155 156 152 146 150 148 119  98 115 133 125 115  93  78  65   5   0   0   0   0   0   0   1   2   6   9  14  18  22  22  21  21
  22  21  23  71 160 174  83   6   3   1   1   1   0   0   0   0   0   9  74  66  48  81 106 105 104 105 114 123 128 123 122 132 148 146 153 158 166 163 166 169 176 178 178 181 179 181 184 181 177 177 177 177 172 174 169 170 164 162 159 155 138 138 152 152 150 130  98 103 122 126 116  98  81  74  35   0   1   0   0   0   0   0   1   4   7  10  14  18  21  21  21  21
  22  21  23  64 160 181  88   7   3   1   1   1   0   0   0   0   0   6  74  82  51  56  83  98  98  94 109 117 120 118 117 121 124 139 159 159 167 164 168 174 178 175 176 178 182 181 182 183 180 177 172 175 175 170 164 170 165 160 158 157 140 132 154 147 131 103  88 110 118 117 100  84  81  59   5   0   0   0   0   0   0   1   0   4   8  11  16  20  21  21  20  21
  22  21  20  62 164 185  99  12   3   1   1   1   0   0   0   0   0   3  73  95  70  47  67  92  84  92 100 110 119 112 106 114 131 154 157 151 150 163 168 173 168 175 178 179 182 179 180 180 176 181 175 173 176 172 169 162 157 152 147 150 140 133 140 126 111  83  86 119 119  95  87  77  71  26   0   0   0   1   0   0   0   1   2   4  10  14  20  24  24  23  22  22
  22  22  23  69 170 189 106  15   2   2   1   1   0   0   0   1   0   4  74  98  88  55  45  76  79  67  84 100 107 104  98  96 120 144 144 149 141 153 154 161 158 172 178 175 170 173 180 175 174 179 170 170 172 165 158 146 147 138 127 138 142 128 119 104  79  71  90 106 100  84  64  63  40   4   0   0   0   0   0   0   0   1   2   6  10  14  19  22  23  23  22  22
  23  23  22  69 171 190 106  17   5   1   0   1   1   1   1   1   1  15  71 101  94  76  45  45  74  69  84  91  90  93  83  86  92 122 144 159 143 139 164 162 167 157 165 169 176 180 179 162 169 170 169 177 175 162 149 147 143 128 119 136 143 123 111  87  63  72  79  94  92  76  58  50   7   0   0   1   2   1   2   1   1   1   3   6  11  15  19  21  22  23  22  22
  23  22  22  73 169 185 100  16   5   1   1   1   1   1   1   0   4  19  63 102 100  90  70  51  58  72  68  71  80  97  94  67  81 103 126 138 138 133 150 159 163 147 153 165 170 166 171 159 162 166 163 164 160 160 151 130 142 116 129 118 122 112  92  71  59  58  75  91  82  68  51  23   1   0   0   1   1   1   1   1   1   1   3   8  12  15  19  23  21  20  22  22
  22  21  22  79 175 183 107  21   4   3   1   1   1   1   1   0   9  18  57 105  99  99  90  67  48  56  59  64  71  70  76  66  77  82  95 114 141 139 122 145 154 151 147 137 150 162 161 145 160 154 153 150 134 144 142 134 135 131 134 101 106 115  69  45  69  69  67  66  61  50  28  31   2   0   0   2   1   1   1   1   1   1   4   8  13  17  21  22  20  20  21  21
  24  23  25  90 180 193 121  23   6   2   1   2   1   1   1   0   9  22  41 102 111 111 102  79  58  45  53  66  64  72  76  66  57  62  96 114 118 115 137 141 128 144 149 141 166 155 162 144 155 136 155 158 153 131 128 122 135 131 126 118  99  91  51  49  69  64  66  49  39  23  46  44   0   1   1   1   1   1   1   1   1   3   5   9  14  18  21  22  22  21  22  21
  24  23  26  91 192 197 123  27   9   3   0   1   1   1   1   0   7  22  30  93 112 115 104 100  81  61  53  52  51  62  72  79  67  61  86 118 109 112 130 129 137 136 130 157 143 150 154 152 151 156 139 153 171 136 130 125 116 120 119  93  74  57  47  56  63  54  53  40  25  51  70  34   0   1   1   1   1   1   1   1   2   4   6  12  15  19  21  22  22  22  22  22
  23  21  26  98 194 200 129  35  10   5   0   0   1   0   0   0   7  20  21  68 110 109 107 111  93  79  64  55  49  51  55  58  53  51  76  98 107 116 122 124 138 119 132 151 139 148 145 150 160 162 151 155 157 144 113 123 125 116 104  77  65  41  40  54  57  47  37  23  54  77  76  27   0   0   0   1   1   1   1   0   2   6   8  12  17  20  21  22  22  22  23  23
  23  22  24  98 197 203 143  42  10   4   1   0   1   0   0   1   9  22  21  28  95 118 112 111 102  98  88  67  59  58  51  40  36  50  60  64  72  96  94 119 146 122 133 149 142 136 148 152 143 150 154 140 136 144 125 146 117  91  70  62  45  32  44  55  43  41  31  46  80  80  76  23   0   0   1   1   1   1   1   1   3   6   9  13  18  20  21  23  24  24  23  23
  25  24  29 104 198 208 150  49  14   7   2   0   0   0   1   1  10  21  22  18  38 114 124 111 111 106  92  82  72  64  55  46  46  48  46  39  74  77  94 120 128 108 125 139 129 127 142 130 130 121 126 116 128 117 108 122  90  68  53  31  39  39  35  35  36  37  45  75  83  82  74  27   1   0   1   2   1   1   1   1   3   6  11  14  20  21  21  22  24  24  25  23
  24  23  36 132 211 210 158  71  26  14   3   0   1   1   0   1  19  20  17  23  16  47 118 123 116 106  96  84  80  73  64  57  54  45  36  39  46  48  84  98  96  99  99 116 112 110 105 114 130 114 108 106 118 114  96  98  60  44  33  41  53  36  44  37  40  48  59  81  89  90  70  24   5   0   1   1   1   1   1   1   3   7  12  16  22  22  22  21  22  24  23  23
  22  20  42 154 219 214 178 107  50  24   9   3   3   1   1  69  52  14  18  20  18  15  47 107 116 109 104  94  78  85  73  66  65  58  41  37  35  31  48  61  72  78  89  94 104  83  95  93 105 104  79  79  89  82  60  54  44  38  27  48  49  49  50  47  46  64  75  91  93  92  64  22   9   0   1   1   1   2   1   2   5   9  14  17  21  22  22  22  22  22  22  24
  19  18  54 173 222 215 179 135  77  44  21  12   7  10  79  92  29  20  20  21  19  18  16  29  95 113 111 100  86  87  83  76  69  66  60  50  50  46  28  27  38  44  55  65  71  64  80  70  82  78  65  63  58  40  32  38  40  45  49  60  54  51  42  50  62  71  79  97  96  90  48  18  11   0   1   1   1   1   1   2   7  11  14  18  20  22  22  23  23  20  22  27
  56  66  98 189 222 210 177 153  95  53  37  24  21  87 110  32  18  21  19  19  18  17  21  16  33  91 112 105  92  85  87  85  80  71  66  74  63  65  53  41  51  38  32  25  27  45  46  62  56  52  54  45  48  39  36  57  56  46  64  62  49  54  48  54  65  78  82  94  92  84  35  22   6   0   1   1   1   1   2   5   8  12  15  20  21  21  22  23  23  21  23  30
 126 154 165 200 218 205 179 168  95  55  54  39  75 129  66  12  19  20  20  20  19  20  19  17  16  21  58 114  93  92  84  87  87  79  70  70  71  75  82  79  80  76  78  66  57  67  72  63  54  63  70  58  71  71  61  60  68  66  65  56  49  55  66  63  70  90  96  95  92  51  21  21   4   0   1   1   1   1   3   6   9  14  18  21  23  23  23  22  22  23  25  29
 166 193 203 209 215 199 179 176 116  76  77  75 109 115  33  15  21  20  20  21  22  19  19  17  17  19  19  64 103  97  85  81  86  86  74  71  71  72  84  92  89  86  92  91  82  86  95  80  93  87  85  86  78  74  80  66  74  70  58  56  53  62  66  64  83  98  95  89  58  21  21  15   3   0   1   0   4   4   7  10  14  18  21  21  24  23  24  23  24  25  26  26
 177 198 215 216 212 199 184 191 164 126 107  92 122  94  11  20  21  20  21  19  19  18  19  17  15  17  17  13  45  84  91  87  87  89  86  80  71  73  82  86  92  92  85  85  88  82  77  81  90  90  83  82  74  82  81  76  72  68  61  56  58  62  67  76  89  95  91  54  17  18  19  13   1   1   2   5   8  12  14  18  19  21  22  22  24  22  24  25  26  26  25  24
