P2
# Generated by OpenCV 4.2.0
92 112
255
 207 200 177 161 179 203 212 198 171 176 208 222 210 178 151 150 150 150 150 150 150 150 147 148 150 151 161 173 178 178 178 177 177 177 176 177 176 177 175 174 180 176 168 164 167 181 174 168 176 184 177 175 177 181 183 184 183 181 194 216 225 227 227 226 223 217 203 193 211 225 224 219 222 227 223 210 189 190 213 227 228 217 208 217 228 224 208 188 184 188 187 186
 183 176 165 161 165 177 184 176 165 191 216 219 199 163 148 150 149 149 150 151 150 149 148 148 148 151 160 174 177 178 178 177 177 176 177 176 176 178 176 164 172 155 128 124 110 125 117 120 127 152 169 169 182 182 180 180 181 179 184 199 212 218 220 222 225 224 215 202 212 226 223 217 222 229 224 206 183 182 201 221 229 226 220 224 228 218 199 185 184 186 186 186
 166 164 162 164 163 160 159 156 173 207 222 214 183 153 150 150 151 150 150 150 152 150 152 151 150 151 164 175 178 178 179 178 176 169 168 165 180 160 126  95  71  66  44  35  28  29  28  32  28  38  65  91 133 144 160 180 177 177 181 183 190 197 200 204 215 225 222 210 213 225 221 211 215 227 226 214 192 180 187 209 225 229 228 229 225 208 189 185 185 185 186 186
 167 165 164 162 161 159 158 158 181 208 215 196 163 149 149 149 149 148 148 150 151 151 153 154 152 152 164 176 179 179 174 166 181 159 124 129 107  61  31  20  20  21  22  20  18  17  19  20  19  19  12  15  28  45  81 144 166 170 185 196 204 202 200 204 214 224 221 210 214 226 223 205 202 219 227 223 209 188 181 196 216 227 229 228 218 198 186 186 187 186 186 186
 168 163 163 171 176 171 159 162 179 194 192 174 162 160 159 151 149 156 158 151 149 151 150 151 149 150 162 176 173 169 171 144 141 105  46  36  29  21  26  24  25  37  26  28  31  36  23  25  36  24  25  31  17  18  20  37  77 116 170 211 223 223 220 220 224 225 216 204 212 227 223 203 189 208 224 228 220 201 184 184 205 223 229 224 208 189 185 187 187 188 188 186
 170 163 180 199 202 192 177 188 201 197 186 185 198 200 192 177 182 194 192 173 149 145 146 147 147 148 161 174 173 135 138  94  40  19  23  20  20  19  34  28  15  25  31  28  31  30  27  37  36  24  34  39  22  18  21  22  19  23  61 110 196 228 221 220 221 217 204 193 209 223 219 200 181 193 213 224 225 211 192 185 207 223 227 218 197 185 186 186 187 188 188 187
 166 167 194 211 211 192 183 203 213 203 187 189 209 215 200 194 205 211 201 178 152 144 145 148 147 149 164 169 146  70  38  34  32  24  29  38  33  43  36  24  25  26  40  28  32  33  31  35  22  27  34  33  34  28  29  22  20  21  18  19  60 134 198 212 204 195 185 183 196 206 203 190 180 181 193 205 209 203 189 194 216 227 225 209 189 185 186 184 185 186 188 186
 163 166 189 207 209 199 190 205 214 202 179 170 199 208 186 179 203 212 204 180 152 149 151 151 147 135 124  87  39  24  23  31  29  34  31  36  34  33  31  33  32  29  27  31  41  35  24  27  30  29  24  32  32  27  30  26  20  19  20  19  18  29  69 127 160 173 175 182 184 184 183 180 181 179 179 184 187 186 185 206 223 228 218 198 184 185 186 185 184 184 186 183
 165 164 180 198 211 209 200 207 214 202 178 160 194 207 176 160 191 206 210 196 164 150 151 148 128  70  27  20  23  30  37  31  34  37  32  38  34  34  38  32  29  33  33  40  38  33  42  46  41  47  37  30  30  29  29  27  25  20  21  23  20  22  21  21  55 136 178 183 181 182 180 180 181 179 179 179 179 181 194 215 227 223 209 189 185 185 185 185 184 184 184 184
 170 167 184 200 210 207 196 203 213 206 181 162 192 202 174 165 190 208 213 198 162 144 114  82  56  31  19  23  27  36  42  41  44  38  29  25  37  29  42  37  39  43  43  29  34  29  34  44  46  43  41  38  29  37  33  26  25  25  26  27  25  22  20  24  21  39 100 169 194 186 186 187 188 187 186 186 187 189 202 216 221 214 200 190 191 191 190 189 188 190 190 189
 168 165 176 190 192 184 172 181 194 190 173 156 174 181 160 161 185 197 196 178 146 116  59  20  22  40  34  31  33  34  35  42  35  34  26  32  45  31  37  36  42  47  38  31  35  31  40  48  47  43  38  38  46  34  34  34  42  30  24  31  35  25  19  20  25  21  18  58 152 195 193 191 192 191 192 191 192 193 198 205 206 201 196 196 196 197 196 197 197 198 198 197
 162 162 161 164 165 161 157 158 160 158 152 149 153 154 146 146 157 162 160 154 126  51  20  30  28  29  33  28  31  41  43  43  39  26  31  35  38  37  40  49  44  43  48  35  41  31  37  38  40  32  37  38  46  47  40  43  41  29  37  25  32  30  28  22  23  21  22  14  42 124 171 181 187 186 186 186 187 188 189 188 190 190 189 191 192 191 191 191 192 192 193 194
 163 163 163 162 161 160 161 158 156 155 155 156 153 152 151 151 149 148 146 137  72  23  28  33  33  28  24  31  33  40  33  29  35  42  34  24  31  44  50  53  36  43  49  42  49  45  42  55  48  46  39  37  42  41  38  30  40  36  43  39  40  30  25  37  24  19  24  21  19  19  67 162 181 184 182 182 184 183 183 182 183 183 184 183 185 184 183 183 183 183 185 186
 163 164 165 165 164 164 165 166 167 166 166 165 164 165 164 164 162 166 153  72  17  28  26  29  25  28  29  33  32  32  35  37  30  42  47  37  30  41  52  51  53  50  42  41  55  57  47  42  38  36  42  35  39  42  48  37  43  44  40  48  37  39  33  27  24  19  22  18  22  22  18  95 176 179 185 184 184 185 183 183 183 183 184 184 184 185 184 184 184 184 185 185
 162 162 164 165 164 162 165 167 169 169 169 169 170 170 170 169 170 173 113  18  31  32  25  35  37  32  31  44  48  37  46  44  48  46  39  48  47  49  56  48  47  64  48  49  45  48  35  45  42  34  34  38  52  49  44  52  44  48  54  30  33  41  33  34  34  29  20  19  22  20  23  30 108 169 185 185 185 186 184 182 181 183 184 184 186 185 185 185 186 186 186 186
 163 162 163 163 164 164 165 166 167 168 168 168 170 171 169 170 171 136  41  32  37  30  24  32  35  26  33  49  47  36  43  58  58  48  47  51  52  49  54  62  48  45  53  53  60  47  54  46  45  52  49  44  49  57  47  50  46  45  47  35  46  36  43  44  31  30  27  22  23  20  21  16  30 140 180 185 185 184 184 181 180 182 183 183 184 184 184 184 184 186 186 185
 163 163 163 164 165 166 167 166 167 167 167 168 168 169 170 167 155  58  18  38  37  35  33  38  36  38  45  42  41  43  51  59  45  47  59  70  65  51  61  52  48  60  65  59  56  54  53  68  67  54  48  47  52  56  45  56  51  48  40  39  43  33  40  43  37  35  31  25  25  22  20  23  16  83 175 183 182 182 181 181 180 181 182 183 183 184 183 183 184 184 184 185
 164 163 164 165 166 168 169 169 169 168 168 168 168 169 170 167 100  20  36  36  27  25  35  39  33  48  40  33  44  44  46  47  53  69  66  56  51  60  53  56  51  65  61  71  74  82  68  65  77  57  56  48  54  63  51  49  53  48  51  50  46  47  44  50  44  41  38  30  31  20  19  19  19  23 123 184 184 182 179 180 181 182 181 183 184 183 183 183 183 183 183 183
 163 164 164 165 166 167 168 169 168 169 169 168 168 169 162 124  41  36  41  34  22  25  33  35  45  48  45  44  40  40  53  63  81  82  63  68  81  84  64  48  56  66  61  73  72  72  62  58  71  62  55  62  58  60  52  53  61  67  54  58  53  38  41  43  34  39  44  35  24  22  30  24  21  15  60 161 180 182 181 181 181 182 182 183 183 184 182 184 183 183 183 182
 162 162 164 164 165 166 166 168 168 168 167 167 169 169 152  83  19  33  39  44  24  36  36  35  32  34  53  57  52  65  69  69  85  79  92  95  92  84  70  61  68  77  83  82  81  84  82  77  83  75  66  76  79  67  69  66  64  66  56  58  70  58  54  54  48  37  46  39  24  32  41  27  21  20  19  93 177 182 182 181 181 182 183 183 184 183 183 184 184 183 184 183
 163 162 164 164 165 165 166 168 169 167 167 167 168 171 141  43  23  24  32  39  35  43  39  44  55  66  72  87 104  94  95 102  89 102 115 105 100  96  94  91  91  91  78  86  91 104 103  69  67  63  87  91  64  63  69  66  61  52  54  53  63  65  52  51  52  45  52  58  50  43  32  27  23  20  16  58 157 174 181 179 179 181 182 183 182 182 182 182 182 182 183 182
 164 164 165 165 165 164 166 167 168 167 168 167 169 166  96  25  25  23  34  45  47  48  58  79  94 106  98 101 114 115 130 146 137 126 128 124 138 124 115 113 108 106 105 132 131 103  93  86  75  81  89  89  97  90  97 115 113  96  88  84  98  95  65  64  64  55  62  67  61  43  42  41  28  22  19  20  96 161 178 179 179 181 182 182 181 181 182 180 181 182 183 182
 163 163 166 165 165 165 166 166 168 169 170 170 170 164  68  20  26  23  33  50  58  68  83 102 112 122 117 118 131 138 139 145 159 161 163 156 149 156 136 136 147 138 129 140 154 149 140 145 138 140 140 110 106 119 117 124 139 143 138 127 130 102  82  94  94  94  70  66  61  52  69  56  30  22  18  18  53 159 180 180 181 180 181 181 181 181 181 181 182 183 183 182
 162 164 164 164 165 165 166 167 168 169 170 169 165 112  26  21  28  33  38  66  97 106 108 115 123 132 130 138 143 144 149 158 165 169 171 174 176 179 177 163 158 149 150 154 156 168 164 170 173 177 171 144 144 159 159 167 172 170 166 153 148 132 132 134 107  96  99  84  75  69  79  66  37  27  21  18  25 120 179 183 182 181 181 182 183 182 183 182 183 184 183 183
 162 163 162 163 163 164 165 167 168 168 168 167 158  68  15  25  38  41  58  95 112 115 122 126 132 136 140 142 143 152 159 160 162 165 170 173 177 180 183 182 180 176 180 184 186 182 155 177 183 182 177 177 180 178 176 178 176 173 170 164 164 156 157 148 122 103 120 115 105  90  93  65  46  34  22  19  15  64 163 181 183 182 181 182 183 184 184 184 184 184 184 185
 159 161 162 163 163 163 164 165 166 166 166 166 137  39  18  29  37  39  65 109 120 123 126 130 133 137 139 139 146 156 154 159 161 160 167 170 176 178 181 183 184 191 194 192 188 185 178 185 185 183 179 181 182 177 176 175 173 172 173 170 163 164 163 157 146 134 133 130 127 120  99  76  65  45  27  19  17  32 140 182 182 181 182 182 183 183 183 183 183 184 184 184
 160 161 162 164 164 164 164 164 165 166 165 168  99  17  18  25  38  51  82 116 123 126 128 127 134 135 136 142 148 150 153 160 163 166 168 169 178 184 185 187 190 192 197 199 197 194 193 191 188 187 184 180 179 179 176 178 175 173 173 172 167 160 155 153 146 134 133 132 132 133 118 103  86  63  40  20  18  21  98 174 180 181 180 181 182 182 182 182 182 182 183 184
 161 162 163 163 164 164 165 165 164 165 167 158  63  17  26  29  42  59  93 118 126 127 129 135 135 138 136 139 145 145 154 160 164 169 171 171 177 182 186 190 191 195 195 198 199 198 196 191 191 187 184 181 178 176 176 176 176 176 172 171 166 158 155 153 143 135 130 131 134 130 128 121 106  79  35  21  18  17  43 155 182 180 179 179 181 181 181 182 182 181 182 183
 161 162 162 163 164 164 164 164 164 166 165 130  32  23  26  33  47  67  97 119 128 125 128 131 134 136 136 138 148 153 156 161 166 172 172 171 177 184 187 195 198 198 198 198 199 200 198 195 191 189 185 177 175 174 176 175 175 175 172 169 167 159 154 151 143 138 129 131 135 131 129 129 116  80  44  28  24  21  30 136 179 181 180 182 182 182 182 181 180 182 182 181
 161 162 161 163 163 164 163 163 164 165 167 107  27  27  35  43  56  75 100 121 126 123 124 129 131 136 139 142 152 158 161 162 166 172 176 179 180 182 188 194 197 195 193 197 198 195 193 195 189 184 179 180 176 175 175 177 173 170 169 165 165 162 153 148 143 139 130 127 129 130 128 126 111  81  57  35  24  21  22 104 178 182 181 183 182 181 181 180 180 182 182 181
 160 160 162 162 162 162 163 163 163 166 157  77  32  35  36  48  52  68  98 120 121 120 119 131 135 137 138 147 151 157 161 163 166 171 178 180 182 185 188 191 196 195 193 193 197 198 196 191 186 184 181 176 178 177 177 177 172 171 170 166 164 162 155 148 141 139 131 126 128 129 126 125 115  89  62  44  26  21  17  71 178 180 180 182 181 180 180 180 179 180 180 180
 160 160 162 163 162 163 162 162 163 167 152  67  28  33  38  47  49  64  94 116 121 119 119 132 139 138 139 144 147 155 158 163 168 174 174 176 182 185 188 191 190 195 197 194 197 200 199 192 188 188 187 178 178 179 179 176 170 168 172 169 165 159 149 142 140 138 132 128 130 132 126 124 118  98  69  49  38  29  18  38 140 181 180 179 179 180 179 178 179 180 179 180
 161 161 162 163 162 163 163 163 164 167 138  39  25  38  43  46  52  64  82 101 118 121 120 129 137 138 138 140 150 155 160 166 171 175 172 177 182 186 191 191 191 193 191 195 197 198 195 192 192 190 185 181 181 178 178 175 171 173 172 168 165 159 149 137 140 138 132 133 130 126 126 119 113  97  71  53  45  39  23  26 129 180 180 179 180 181 179 179 180 180 181 181
 160 159 160 161 162 161 162 162 162 166 128  38  32  43  45  45  47  61  81  93 112 120 120 128 135 139 140 144 151 157 160 166 171 170 176 177 177 181 190 192 192 192 192 195 198 196 197 196 194 191 184 183 186 181 178 178 177 175 170 168 165 160 151 146 145 141 134 133 130 124 123 123 114  95  72  54  47  38  27  21 113 180 179 180 180 181 181 180 180 180 181 182
 158 159 158 159 160 161 160 160 161 163 120  36  36  47  46  42  48  64  74  99 110 114 119 131 138 139 143 144 146 155 161 166 168 172 178 178 180 183 188 190 190 191 193 196 196 197 199 199 194 189 186 185 186 182 181 179 178 174 169 168 164 160 155 150 149 144 138 134 127 121 120 121 111  92  72  54  45  37  31  20  78 175 179 180 180 181 181 180 180 180 181 182
 158 159 158 158 159 160 160 161 161 164 104  30  38  43  39  42  51  55  65  96 112 117 120 132 138 138 145 147 149 157 163 169 171 177 180 182 184 182 188 190 191 188 189 193 195 196 198 196 193 187 184 183 184 181 180 178 174 172 170 168 167 158 153 154 151 146 141 135 123 115 118 116 110  90  71  57  50  42  27  23  42 142 179 179 181 180 180 180 180 180 180 181
 158 159 160 160 160 160 160 161 163 160  87  31  38  41  42  42  54  56  85 102 113 119 120 132 139 144 150 151 157 160 164 168 173 178 184 183 185 190 191 193 195 187 189 189 188 192 195 190 187 181 180 179 184 183 183 180 177 175 172 169 165 157 152 149 142 146 142 134 121 109 111 112 107  91  68  60  53  48  28  19  38 134 173 179 181 179 178 179 178 179 180 182
 160 160 161 162 161 161 161 162 163 160  81  31  39  43  40  44  54  69  90 105 114 119 123 130 140 146 152 156 160 161 162 166 173 181 184 183 187 191 193 194 196 194 196 196 194 196 196 195 193 188 186 185 186 186 186 186 183 179 177 169 165 164 159 150 123 123 140 131 118 110 115 113 103  89  66  55  52  44  32  26  37 130 170 178 179 179 178 178 179 179 179 181
 159 160 161 161 160 161 162 162 163 157  80  27  39  44  38  47  57  72  85 109 116 116 125 129 141 148 151 159 163 161 157 170 178 182 184 186 191 193 195 195 194 198 198 198 197 196 197 197 196 192 191 189 190 188 185 184 183 178 174 170 168 166 165 159 139 131 142 130 115 111 118 116 102  81  56  51  54  47  35  25  32  97 159 178 179 179 179 179 179 180 180 181
 158 159 160 160 160 161 161 160 163 159  70  29  41  40  33  44  57  70  95 115 115 118 128 121 135 146 151 155 160 162 165 172 175 179 185 182 186 195 195 195 196 197 195 194 195 199 198 196 196 195 196 191 190 188 184 183 182 179 172 168 167 163 161 160 158 152 144 133 117 108 108 115 105  73  52  49  46  42  30  23  29 108 160 174 179 180 179 179 179 179 179 181
 159 159 159 160 161 161 161 161 163 143  57  36  38  35  35  43  61  85 108 115 116 119 126 119 137 152 155 160 162 164 169 173 173 179 185 186 187 192 196 197 194 196 196 197 198 198 200 199 198 194 192 190 190 188 183 177 180 183 178 175 172 170 164 161 160 155 149 136 123 113 107 109 104  72  51  52  41  40  33  21  20  93 150 170 177 179 177 177 178 178 179 181
 159 160 160 160 161 162 161 161 163 149  58  35  41  34  36  41  68 101 106 114 118 120 126 131 145 156 159 166 171 172 174 178 180 184 188 188 193 196 196 195 197 199 199 196 196 200 203 198 194 193 193 196 196 191 189 182 186 188 184 180 179 175 172 169 164 160 156 143 127 116 112 103  98  81  52  49  38  43  35  21  22  84 136 163 176 178 177 177 178 178 179 180
 160 160 160 160 161 162 161 160 162 151  62  32  42  31  39  48  84 103 105 112 119 125 129 137 149 161 166 170 174 178 178 183 184 190 192 189 199 197 197 200 203 201 198 198 201 205 203 199 198 198 195 198 202 197 197 195 193 193 192 186 185 182 178 174 169 164 159 149 132 118 117 104  98  97  61  47  41  43  37  23  22  74 127 160 175 179 178 178 180 180 180 181
 157 159 158 158 160 159 158 160 161 151  68  31  38  37  33  61  97 101 105 108 119 128 133 138 147 151 164 174 176 181 184 181 186 191 193 196 198 200 199 201 203 200 199 200 205 207 205 202 202 202 201 201 200 200 205 203 189 188 193 186 181 181 175 171 169 160 151 145 141 124 117 105  97  98  85  51  44  39  36  20  26  72 116 155 174 180 181 181 182 182 181 181
 156 157 158 158 157 157 158 159 160 155  74  35  39  40  36  74  97 102 106 108 116 127 139 137 119 118 144 153 153 157 166 175 185 184 192 198 193 197 197 198 199 197 200 199 204 205 204 205 201 202 201 198 200 195 198 172 166 158 143 129 140 142 145 150 139 128 110  96 123 136 118 102  94  94  95  71  43  39  33  20  29  65 102 145 171 180 181 181 182 182 182 182
 156 156 158 158 157 158 159 159 161 162  79  34  42  36  36  83  96 101 106 109 113 128 120  89  82  91  99  99 103 102 101 118 128 134 138 162 181 180 179 186 188 195 195 196 203 200 196 200 196 197 189 191 192 181 147 141 130 106  87  91  77  66  68  66  61  48  50  46  70 113 122 102  93  94  93  85  51  40  37  22  30  63  90 134 164 178 181 182 181 181 181 181
 157 158 158 159 159 160 161 159 161 160  92  29  39  29  41  89  96 101 104 107 112  88  69  65  66  55  52  50  55  63  65  58  64  78  97  91 112 131 150 174 181 185 190 194 200 199 196 195 194 189 178 174 173 158 134 137 117  86  78  76  67  53  45  40  45  45  44  44  38  54  76  93  94  92  92  90  58  41  35  24  34  59  81 124 159 175 179 180 181 179 179 180
 158 158 159 159 159 159 158 158 160 164 110  35  38  31  48  92 101 101 101 102  79  50  50  52  66  75  82  73  73  81  82  66  50  54  69  91  96 117 134 150 177 179 183 189 191 194 193 190 190 183 175 165 156 144 126 138 105  84  71  65  61  76  93 106 115 118 112 100  70  43  34  57  93  92  96  91  62  41  35  23  39  58  74 114 153 173 179 180 179 178 178 180
 157 158 159 159 159 159 158 158 159 164 116  33  43  37  54  93 101 102 100  84  50  53  63  88 114 125 131 136 133 136 129 126 112  89  89  96 117 125 140 132 152 171 179 182 181 185 186 186 183 181 169 165 152 150 136 129 116 105 104 111 121 130 134 138 139 142 143 129 105  74  51  39  71  97  98  91  67  43  36  27  39  56  67 103 144 170 178 179 179 179 179 179
 156 157 158 158 160 159 159 159 159 162 124  39  42  35  58  91 100  97  83  55  49  79 102 122 131 138 144 149 150 156 158 163 158 147 131 124 127 133 140 142 142 159 170 173 179 179 183 184 178 170 157 150 145 140 135 127 122 127 139 144 145 145 147 147 147 140 136 134 126 109  79  52  57  84  97  91  68  42  33  28  46  54  62  93 138 166 176 178 179 179 179 179
 156 158 158 159 161 160 160 162 163 164 146  48  35  37  61  92 100  93  88  70  75 106 121 129 131 134 140 143 143 146 146 151 151 153 154 148 135 131 138 139 137 147 159 165 172 173 180 177 174 166 152 141 136 131 132 136 140 151 155 155 156 155 151 148 141 133 127 127 126 115  98  77  75  80  96  92  69  42  31  35  49  52  57  85 129 162 174 177 177 178 178 178
 156 157 159 160 161 161 164 153 143 150 161  97  36  44  63  96 100  97  97  80  93 113 120 123 125 126 118 114 116 126 139 131 119 109 112 132 149 150 141 133 132 138 150 162 171 173 176 174 166 159 147 136 131 139 147 150 141 121 122 128 138 133 124 122 119 121 112 113 119 114 107  88  83  90  98  92  66  37  28  38  52  51  55  79 123 157 173 177 176 177 178 178
 158 158 159 160 160 161 146 117 119 123 135 124  48  40  62  94 101  99  89  84 102 109 110 114 113  95  97 109 108 110 103  98 105 114 112  98 114 149 157 144 134 135 147 162 176 181 178 177 167 151 140 135 139 151 150 119 101 115 124 110 104 105 106 116 110  99  96 107 114 108 100  92  95  97  96  92  59  28  26  40  53  49  52  75 118 155 172 176 177 177 178 178
 158 158 159 159 161 160 117 114 142 152 152 148  88  34  62  94 100 105 101  99 104 103 102 101  82  87  85  55  42  22  24  33  21  47  91 106 105 117 152 165 153 139 147 165 181 191 183 180 169 149 145 147 154 152 119 100 101  99  57  26  25  25  33  54  67  92  90  95 106 102 100  98  94  97  95  89  51  24  29  45  51  51  53  70 113 152 172 178 177 177 177 177
 158 157 157 158 159 158 105  99 118 149 166 168 135  46  61  92  99 107 105 100 104 102  95  84  75  54  28  88  88  24  35  67  28  55 146 115  95 113 142 172 176 153 144 165 186 195 187 179 165 145 147 166 169 138 112 100 114 137  48  37  56  32  36 105  83  44  63  76  92  96  98  96  93  96  96  90  52  25  61  91  98  96  93  89 112 150 172 176 177 177 177 177
 158 158 158 158 159 158 134 139 134 111 141 165 158  68  57  91  97 108 111 105 105 103  90  73  43  29  60 140 111  28  25  29  28  62 167 150  99  88 130 173 179 163 148 163 182 189 186 173 157 141 149 171 169 128  99 112 178 170  48  32  41  31  29 130 164  84  33  40  78  94  96  94  97 100  94  90  48  39 113 142 142 133 129 117 119 149 171 176 176 177 178 177
 159 159 159 159 159 158 154 163 145 116 106 147 159  87  59  90  95 110 116 112 106 102  92  84  67  65  80  90 110  81  74  90  91 109 129 123 122 121 121 170 172 164 152 162 173 179 177 167 150 139 147 162 165 111 118 123 130 138  87  70  57  49  65 119 105  75  58  54  74  93 100  97 107 107  93  90  43  75 149 154 155 135 113 115 116 149 171 176 176 177 178 177
 159 159 161 160 160 158 155 174 154 120 102 111 149  92  59  89  98 114 120 119 114 111 112 111  90  90 100  94 106 119 138 145 157 151 143 138 136 150 140 154 168 160 150 158 168 174 169 162 152 134 140 155 155 136 152 145 147 147 156 154 133 113 112  99 103  93  80  81  96 108 108 104 112 110  95  87  53 108 160 156 125 110 127 112 108 149 172 175 174 176 177 176
 157 158 158 160 160 161 153 174 166 120 113 117 126  89  60  86  95 116 123 122 122 122 123 117 107 100 109 115 122 121 130 136 131 126 122 121 131 146 143 155 162 152 150 160 166 173 168 162 154 140 129 149 151 139 139 127 127 138 151 143 128 116 119 112 120 113  98  92 107 118 114 110 113 111  95  86  61 122 158 123 111 142 158 141 125 153 172 176 174 176 177 177
 157 158 159 160 160 161 151 165 175 136 147 164 126  85  60  84  93 112 123 125 127 130 125 122 123 114 112 113 114 116 119 117 116 118 125 143 158 156 155 162 155 150 154 159 168 172 170 166 158 148 134 141 153 148 148 148 137 122 123 126 127 124 123 122 116 110 105 106 108 113 117 115 113 107  92  82  61 130 133 122 134 142 170 168 138 152 172 175 175 177 178 178
 158 158 159 160 161 161 156 164 172 140 170 175 153 126  62  82  90 108 124 130 134 136 130 133 136 137 137 136 133 130 129 136 144 155 165 169 165 160 161 160 152 152 153 161 167 167 169 167 160 147 147 139 149 152 151 156 162 157 145 132 126 122 126 130 127 125 124 121 114 115 121 118 112 103  90  76  62 114 141 146 128 135 175 171 136 155 172 175 175 176 177 177
 159 159 160 160 161 162 159 161 164 145 187 184 170 133  66  80  85 104 122 131 137 137 139 141 145 147 153 154 154 152 155 166 171 176 174 170 161 152 156 158 156 150 156 163 166 172 171 169 163 147 149 149 150 156 153 154 161 164 163 162 158 152 153 150 145 142 133 131 130 125 124 118 109 101  88  74  72 125 161 162 132 127 176 164 132 160 174 176 175 176 177 177
 157 159 160 158 160 161 160 159 161 159 195 191 176 143  77  77  83  99 122 131 133 138 146 149 149 151 156 162 164 165 170 174 176 176 172 165 159 153 157 158 154 149 158 161 170 177 176 170 159 145 141 158 160 161 157 152 153 161 164 166 165 163 161 154 149 143 138 140 140 137 129 118 107  94  84  70  94 170 171 177 150 127 174 151 135 164 173 176 175 175 175 176
 157 158 158 158 159 159 159 157 158 169 201 200 189 153  79  74  82  96 119 126 133 143 151 156 158 158 162 166 169 170 173 175 176 172 164 161 159 158 159 160 153 152 153 162 169 172 174 167 154 138 133 154 165 169 166 164 156 157 161 165 166 163 162 158 157 152 148 149 143 138 133 121 106  88  83  69  92 174 181 186 167 131 165 134 140 167 175 175 176 175 175 175
 156 156 157 158 159 159 158 155 153 173 206 209 193 156  93  71  78  90 117 128 139 146 156 160 163 165 166 166 170 172 172 172 169 170 164 163 161 160 163 160 149 150 151 160 166 167 169 162 146 125 116 146 167 177 181 180 171 165 161 163 165 168 166 163 160 158 156 154 148 139 135 123 106  85  84  64  96 178 190 190 172 133 155 125 146 169 175 176 175 175 175 176
 155 156 157 158 159 159 161 154 146 170 197 203 200 171  96  67  77  89 119 133 138 151 157 158 162 165 170 171 173 171 174 176 174 173 172 170 170 170 165 153 136 142 149 159 165 167 167 163 147 124 100 133 164 178 185 187 182 174 174 172 170 169 169 169 167 161 161 155 149 143 133 124 107  84  81  59 110 191 202 198 172 137 143 120 152 169 175 174 174 175 176 177
 157 157 158 158 159 159 160 155 138 157 177 177 185 173 103  65  74  86 115 133 138 149 154 155 160 168 174 174 173 175 180 179 178 179 180 179 176 164 144 138 121 135 149 154 164 171 171 169 156 136 108 114 140 150 169 186 191 189 185 181 179 177 174 172 171 169 166 160 149 140 133 122 106  87  76  58 142 200 201 199 169 138 126 118 151 164 169 171 172 175 176 175
 155 156 157 158 159 159 158 156 139 147 155 158 182 160 101  63  72  86 117 131 138 150 153 158 165 172 175 175 177 180 179 180 185 186 182 177 166 129 123 127 123 141 148 147 158 176 179 175 164 146 130 121 115 113 138 167 185 191 194 188 185 185 182 177 175 175 170 164 155 142 130 119 106  88  69  69 167 194 187 180 153 138 107 114 144 154 159 163 169 174 175 174
 154 155 156 157 157 157 158 155 143 140 134 165 171 158  98  60  70  83 114 129 138 146 153 161 170 171 175 175 179 181 182 185 188 185 181 170 138 124 135 135 144 151 149 146 170 193 193 184 171 159 141 138 125 130 130 150 167 184 195 196 192 189 188 183 178 173 171 163 155 143 127 113 105  86  66  74 148 150 154 155 136 130  86 106 130 140 145 154 164 172 174 174
 155 155 156 156 156 157 159 157 142 137 138 170 167 167 121  66  72  81 111 128 136 141 154 160 167 172 170 172 180 184 185 186 189 185 177 157 134 151 157 156 165 165 154 157 177 206 205 193 173 160 148 148 142 145 145 140 163 175 187 197 195 191 190 186 181 175 172 164 157 143 124 108 104  85  60  84 142 138 126 142 134 111  69  95 112 120 126 142 159 171 174 174
 155 155 156 157 158 158 159 159 145 120 144 171 166 165 135  72  72  76 105 125 137 139 148 155 165 171 169 171 177 182 185 185 188 181 173 154 143 159 170 170 175 166 151 149 163 183 190 177 154 143 146 155 155 154 149 131 149 164 176 187 192 189 188 186 182 177 172 165 155 136 119 105 103  83  60 111 150 147 127 125 135  81  60  79  90  94 101 125 151 167 173 174
 155 154 154 156 157 158 158 158 149 121 142 158 163 165 152  79  71  74 101 122 134 134 137 152 160 167 169 170 174 178 183 184 180 172 169 145 140 153 156 156 156 151 143 139 143 159 167 158 138 133 125 118 128 137 134 117 130 157 158 169 181 184 186 183 178 174 170 162 150 130 114 100 100  75  60 124 157 159 131 124 116  54  54  63  68  69  77 108 145 165 172 173
 154 154 154 156 158 157 158 158 149 124 117 140 152 156 141  80  72  76  95 118 128 130 136 150 158 164 165 166 169 172 177 153 165 165 164 140 110 109 104 107  93  83  88 110 129 146 145 138 122  95  67  68  99  98  95  94 124 156 151 156 172 183 183 177 175 173 163 154 145 127 107  99  97  70  72 133 153 158 136 115  79  45  51  53  52  53  64  99 143 166 173 172
 153 153 153 156 156 156 157 156 152 127  87  76  82  84  74  64  74  77  93 115 122 128 138 147 153 157 162 162 166 171 169 159 163 164 164 158 110  95 117 135 128 116 103  84  87 112 113 108  85  92 125 129 131 119  97 101 133 153 157 153 158 172 177 173 171 167 155 143 139 122  99  99  94  66  91 151 154 153 142  94  50  48  49  48  49  49  65 103 145 166 173 172
 153 154 156 156 156 155 156 157 153 135  95  58  48  47  47  51  72  81  94 111 117 122 131 142 146 154 156 159 165 169 171 170 166 170 169 169 143 110 110 108 101 113 129 121  99  86  87  82 102 128 122 104  98 106 118 131 136 153 163 160 147 160 174 171 164 161 154 140 129 111  95  98  91  63  78 121 132 142 117  59  46  49  49  49  49  51  70 111 150 167 173 173
 153 154 154 155 156 155 156 157 156 140 103  65  52  53  53  51  69  85  92 109 115 119 125 137 141 147 145 153 162 165 167 164 169 173 171 169 157 131 125 122 111 111 122 135 137 120 109 114 121 112 107 101 110 118 124 127 133 147 160 163 152 140 159 168 162 154 147 133 119 106  92 100  87  64  45  50  58  65  53  47  49  49  50  49  49  53  77 120 155 169 172 173
 153 153 153 154 155 156 155 157 157 143 109  70  54  53  54  49  66  88  91 110 112 113 119 127 133 140 143 150 155 157 152 161 173 169 164 166 165 146 133 135 122 105 103 120 126 131 129 123 122 106 109 118 118 121 119 115 116 133 149 158 166 143 135 156 158 149 138 124 112  98  96  99  85  64  48  47  47  46  48  50  49  49  50  49  50  57  87 129 159 170 172 172
 151 152 153 153 153 154 155 155 157 146 115  76  56  53  54  50  64  89  91 105 113 112 110 119 126 129 140 149 147 138 148 157 154 155 143 139 145 140 135 140 127 124 120 124 118 128 138 140 126 117 111 125 118 120 118 103 120 130 132 148 154 150 137 139 152 146 130 116 100  91 102  97  80  60  46  49  49  49  50  50  50  50  50  48  50  64  98 137 162 170 170 170
 151 151 153 153 154 154 155 155 155 148 120  80  58  53  53  50  62  88  91 105 116 116 112 112 119 124 137 146 130 131 147 146 142 141 120 119 124 128 128 138 137 147 154 153 147 152 149 152 147 138 131 144 141 138 133 124 119 121 100 105 131 140 129 130 146 140 124 107  95  93 103  93  77  56  47  49  50  51  50  51  51  49  49  49  52  73 110 145 165 170 168 169
 152 152 154 155 155 156 155 156 156 150 125  85  59  54  54  51  56  85  92 104 117 118 118 111 116 120 131 140 123 121 114 124 110 119 124 130 141 138 137 146 143 162 169 168 163 167 165 161 168 165 155 159 146 143 142 140 121 116  98  98 112 133 129 135 146 137 121  99  98 104 103  89  76  54  48  50  50  50  50  50  50  49  49  50  57  84 121 151 166 170 169 169
 143 143 144 145 146 147 149 149 150 145 121  85  57  49  49  47  52  81  93 101 113 119 119 112 112 119 136 138 122 104 116 109  94 126 123 127 144 149 142 155 166 170 173 175 175 176 165 173 180 178 167 165 160 155 152 147 131 114 114 111 108 131 134 128 144 135 117  99 100 107 101  85  74  54  49  50  50  51  51  51  52  51  50  51  64  97 133 158 168 170 170 169
 126 127 128 128 127 127 127 128 130 127 109  75  43  34  32  33  40  79  93  97 112 119 122 113 111 118 134 131 109 108 116 113  91 108 124 142 149 152 155 155 158 157 151 152 161 165 168 159 150 138 135 132 134 138 140 142 140 126 113 108 103 113 118 123 141 129 110  98 104 110  98  82  71  48  47  47  48  50  50  50  52  50  49  52  72 109 144 163 171 171 169 169
 121 122 122 121 124 134 141 140 134 120 101  69  40  32  32  31  35  80  95  93 110 118 122 115 112 116 130 120 116 111 107  89  71  93 119 127 127 119 115 111 112 116 121 126 125 123 130 119 108 110 113 104  97  92  90  97 101  99  86  84  93 113 114 123 143 123 106 101 112 112  95  80  65  35  35  36  37  38  40  40  40  40  40  45  71 109 141 157 163 163 160 163
 139 140 139 140 159 183 195 194 184 159 120  87  78  84  85  84  79  82  97  88 103 115 120 114 114 119 130 119 118 116 114  97  68  51  60  70  76  78  87  98 105 114 122 127 129 125 120 112 104 108 100  88  80  78  69  59  51  57  82 107 126 123 111 130 143 118 104 106 114 108  89  81  57  22  27  27  24  25  25  25  25  26  29  42  71 106 131 142 147 147 145 154
 172 171 169 172 195 212 219 219 214 197 162 134 133 137 134 134 125  89 100  88  93 110 116 111 110 118 127 126 124 137 138 136 131  87  64  77  84  85  88  93  94  99  98 103 108 105 105  93  90  87  77  73  71  83  76  62  68  96 114 135 150 135 125 145 134 113 104 104 110 100  82  79  58  52  70  59  33  20  20  21  29  47  67  95 132 154 161 150 140 136 135 145
 187 188 187 192 209 220 221 220 221 212 189 167 161 155 146 143 147 103  98  93  84 106 115 110 109 112 125 141 135 140 151 144 137 129 103 102 106 108 112 112 129 134 131 123 124 131 124 113 118 118 112 110 101 102  99  96 107 115 131 156 159 147 154 152 119 107 101 107 107  91  80  76  72 101 120 103  61  28  27  42  73 100 126 160 190 205 208 190 155 137 134 144
 180 179 180 195 214 220 215 214 219 216 198 171 157 141 127 134 158 121  94 100  80  97 113 110 105 112 123 143 146 146 154 149 140 133 129 122 111 113 118 122 139 153 179 176 158 160 167 156 144 131 118 107 105 104 108 112 112 130 150 166 161 154 157 140 110  98 100 106  99  83  83  76  89 127 143 125  82  49  58  89 118 139 162 187 209 221 222 210 180 156 145 146
 153 151 159 195 217 217 203 202 215 218 200 160 133 114 101 127 170 151  90 100  83  86 104 108 105 110 123 139 138 144 153 150 144 134 138 146 146 135 121 120 128 139 153 162 154 146 148 146 133 125 117 110 114 125 124 111 123 144 151 157 159 155 149 125 107  96  99 103  89  82  87  73  95 131 144 128  91  72 104 136 153 159 167 184 203 215 218 208 187 173 159 149
 119 118 151 199 218 211 180 179 210 220 204 157 113  99  89 131 183 190 101  91  87  80  97 102 105 104 119 131 129 137 147 146 148 137 137 145 153 155 148 133 131 132 134 138 139 136 133 136 133 130 131 134 141 133 121 119 133 146 152 154 156 149 132 112 101  94  98  93  83  89  88  65  85 125 140 124  87  90 146 173 176 161 151 158 175 190 196 190 182 178 163 151
 106 112 164 206 216 200 152 151 201 218 211 170 113  99  94 140 193 208 147  77  92  78  90  98  97  99 111 124 129 136 135 141 147 140 136 140 145 151 155 153 151 145 141 145 146 149 148 143 143 148 143 143 140 129 118 127 140 141 144 151 150 133 113 102  95  93  97  85  84  92  77  43  71 118 134 115  78 110 173 193 184 155 123 125 144 153 159 163 169 174 163 151
 102 125 182 211 212 186 132 132 189 215 215 187 129 104 104 153 201 212 181  88  81  78  80  94  93  99 102 114 125 127 131 136 142 141 142 142 141 147 146 149 151 148 140 141 148 155 146 140 146 145 138 141 133 127 128 135 140 139 142 145 138 119 107 100  92  94  91  80  86  86  60  32  65 111 125 106  79 131 191 205 189 146 108 117 127 131 133 139 151 163 160 152
 103 145 197 215 212 193 165 164 195 215 219 200 148 111 112 159 207 217 195 112  67  80  74  86  90  93  99 106 121 123 129 132 138 142 145 146 147 148 147 148 145 140 137 142 139 135 137 139 140 141 143 139 135 137 140 143 140 141 143 136 127 110 104  95  90  90  84  81  88  61  50  36  64 110 123 104  88 151 204 214 196 146 114 124 128 129 129 130 135 147 151 153
 116 168 209 219 217 212 208 208 213 219 221 209 167 118 114 165 210 220 204 131  49  68  65  77  87  93  96 102 115 119 126 131 136 142 144 145 148 152 150 151 154 152 146 138 139 137 142 148 147 150 147 142 143 146 144 140 138 138 138 134 122 104  98  91  91  85  78  83  77  47  67  37  65 118 132 110  94 161 213 220 207 156 121 127 130 131 131 131 130 136 142 150
 140 187 216 219 216 215 215 215 215 219 222 216 185 131 117 166 211 221 207 147  54  44  61  63  80  89  93  99 111 116 121 124 132 140 143 144 147 150 152 155 151 155 152 144 144 145 149 149 151 153 149 146 146 150 145 139 137 137 136 128 111  95  93  91  88  80  78  81  51  64  82  36  67 124 140 117  96 161 215 225 215 175 130 128 129 130 131 133 133 135 138 148
 165 202 220 215 199 183 181 182 190 207 220 220 200 149 120 168 212 222 209 152  70  45  43  49  67  85  90  95 107 116 117 125 132 138 141 146 149 148 153 155 154 154 154 152 150 152 152 154 154 154 152 155 151 148 144 140 143 138 131 121 101  92  92  87  78  75  76  55  58  90  79  35  71 126 144 123  96 151 212 226 220 200 157 133 132 137 137 135 135 136 138 149
 185 211 222 209 170 132 129 133 143 186 215 222 211 170 129 170 213 223 211 157  77  65  51  41  54  74  83  89 103 119 121 125 132 136 139 147 148 147 152 153 158 162 158 157 159 155 154 161 161 158 158 156 151 148 138 139 138 136 123 109  94  89  89  82  72  64  54  54  89  91  80  35  73 127 144 126  99 134 201 224 226 217 200 179 175 182 178 156 137 137 138 150
 183 205 212 191 146 119 122 122 124 162 203 217 210 177 137 169 210 221 206 154  80  70  68  46  40  50  70  82  96 115 120 123 133 139 145 146 146 150 153 163 163 164 162 163 160 156 161 166 165 158 155 153 149 148 137 141 140 126 112 100  83  81  81  76  61  48  57  89  94  91  79  35  76 130 145 129 104 117 178 215 226 227 221 217 216 218 214 189 146 137 140 150
 157 174 175 153 127 121 123 123 122 134 168 189 185 159 132 152 186 196 179 132  77  71  78  64  43  36  51  66  76 103 116 123 127 126 139 140 149 152 149 155 160 163 160 157 157 152 160 168 161 147 147 152 138 141 138 135 118 104  99  84  76  70  71  56  44  56  83  95  98  93  76  36  77 128 142 124 106 112 148 193 217 225 227 225 226 227 222 199 154 139 141 150
 141 145 142 138 137 138 138 139 139 137 143 151 152 145 139 143 153 157 149 124  82  72  82  77  57  39  34  49  55  82 117 126 125 124 134 135 142 141 145 153 157 155 150 155 148 146 145 153 153 136 136 139 129 133 135 133  95  71  77  61  72  58  49  52  53  70  94  98  98  95  76  33  58  98 110  99  98 116 131 154 187 206 214 217 217 215 206 180 147 137 138 149
 151 151 151 152 152 153 153 155 156 156 154 154 154 156 158 157 155 155 155 143  89  76  85  84  77  55  31  38  39  66  99 112 104 117 135 129 141 131 150 151 146 152 148 145 131 133 141 142 141 137 120 129 123 131 115 113  82  57  63  42  50  41  45  55  75  84  95  99  97  95  80  41  42  60  68  84 110 137 146 146 154 171 183 188 188 182 171 154 144 144 141 150
 151 151 151 151 152 152 153 156 156 156 157 158 159 157 157 159 160 160 161 150  92  79  86  86  83  75  55  38  28  47  68  84  90 110 127 130 134 133 141 151 134 135 132 137 136 125 128 132 120 127 120 124 108 118  98  82  53  50  47  37  37  39  57  69  84  94  98  96  97  95  81  62  58  58  72 107 146 168 175 175 173 172 173 174 174 172 170 170 172 168 159 159
 141 143 143 144 144 145 147 146 146 147 149 149 151 149 148 150 152 152 153 142  88  85  92  88  83  82  72  53  26  26  47  61  68 105 111 113 113 134 130 137 137 123 128 132 136 123 124 105 109 124 119 109  95  96  88  75  43  35  30  37  46  56  65  78  90  93  99  99  95  96  81  64  62  65  82 119 154 173 179 180 180 181 180 180 180 180 180 181 181 177 170 166
 140 141 142 143 144 144 146 146 146 146 147 149 149 148 149 149 150 151 152 143  88  93 100  91  85  83  77  62  38  22  27  41  64  87  86 108 103 118 112 117 133 121 114 116 122 106 103  95 115 112  98 105  99  80  71  58  27  29  28  48  58  63  76  82  91  97  99  97  95  94  80  50  49  54  77 113 143 159 165 166 167 167 167 167 168 169 170 169 169 169 168 168
 140 141 143 144 144 145 146 145 145 146 147 148 149 148 149 149 149 149 152 143  85  93 111  98  91  88  84  75  58  32  23  34  45  60  72  98 102  99 105  99 103 116 101 109 121 104  91  85 113 105  96 102  76  53  45  36  17  26  42  56  62  72  82  91  97 104  99  95  94  91  82  50  45  57  84 119 145 158 161 162 163 163 163 164 163 164 164 162 163 164 166 168
 140 141 144 144 144 144 144 145 145 146 147 149 149 148 148 148 148 149 152 148  90  94 113 111 101  92  86  82  69  52  31  21  28  32  61  82  88  87  92  92  99  94  86  98 113 102  69  81 101  81  79  65  46  40  21  22  29  47  59  65  70  78  84  92 104 106  98 101  97  89  96  94  45  62  93 129 151 162 164 163 163 163 163 163 163 163 163 163 165 166 167 168
 142 141 143 144 144 144 143 143 144 146 148 149 149 149 148 148 149 152 153 174 108  92 113 116 110  99  90  88  78  63  48  35  23  20  32  53  58  69  58  82  86  55  72  75  77  76  66  82  83  56  61  38  32  30  22  33  55  64  73  74  75  82  91  99 104 104 103 103  99  87 103 160  59  66 103 136 155 163 163 163 162 162 162 162 162 161 162 164 165 167 167 167
 141 141 141 143 143 143 143 143 143 145 147 148 149 148 149 148 154 149 129 196 115  91 112 117 119 111  98  91  88  71  64  60  31  21  20  33  37  39  42  58  52  48  58  52  46  43  59  51  48  35  34  23  22  33  52  57  65  72  78  79  81  91  98 103 107 106 106 104  98  86 102 195  87  55 110 148 158 163 163 163 162 161 162 161 161 161 163 164 165 167 166 165
 140 140 141 142 142 143 144 143 144 145 147 147 148 147 146 155 135  71  96 222 121  92 114 119 123 119 105  89  87  80  72  66  51  33  35  34  26  25  31  28  28  34  33  28  26  34  33  25  21  28  27  27  43  60  68  73  74  75  76  81  89  96 102 101 105 107 105 102  97  83 103 209 127  35  60 125 164 163 162 162 162 161 160 160 161 162 163 163 165 166 164 164
 141 140 140 142 143 142 144 144 144 145 146 147 147 148 154 116  53  36 133 232 128  87 113 118 122 118 116 103  93  89  79  75  73  60  56  46  38  40  40  30  29  25  26  25  30  36  29  28  27  29  38  54  66  74  74  77  77  77  81  85  92  98 106 104 109 108 105 102  95  81 112 214 163  57  37  48 112 167 163 161 162 163 161 161 161 162 162 163 164 164 164 164
 140 141 141 142 143 143 144 144 145 145 146 147 146 154 114  44  41  54 165 232 136  87 107 116 117 122 123 113  99  91  86  81  82  79  74  76  65  68  64  54  52  47  52  49  49  55  51  44  45  55  67  78  79  83  84  82  80  80  83  87  95 104 109 107 110 106 104 103  95  82 118 215 179  84  38  44  41  98 163 164 161 162 161 162 163 163 163 162 163 164 165 165
 140 141 141 142 142 143 143 144 144 146 146 146 152 124  46  47  40  70 181 233 152  90 106 112 119 126 123 119 112  96  93  85  86  83  83  87  83  84  86  81  82  77  82  82  75  75  79  78  80  84  88  93  93  92  88  86  85  86  85  94 101 105 110 101 109 107 104 101  97  85 130 219 181 117  36  42  44  35  94 165 165 160 162 162 162 164 164 163 163 165 166 166
 140 140 140 141 143 142 142 143 144 145 145 149 132  55  43  51  38 107 186 228 172  93 103 111 121 125 123 119 120 106  98  90  85  85  84  90  93  94  95  94  94  94  93  93  91  92  92  97  97  98  99  98  99  97  91  89  90  89  88  95 104 109 108 107 111 111 107 101  98  86 148 221 178 138  56  28  47  45  38  95 158 164 163 162 162 164 165 164 162 165 165 166
