P2
# Generated by OpenCV 4.2.0
92 112
255
  68  77  85  74  76 104 112 101  78  78  80  71  66  59  56  62  63  60  68  72  70  73  74  75  93  90  77  69  69  65  60  68  75  77  66  73  85  77  67  69  75  81  75  62  71  82  83  74  65  70  80  69  68  71  72  76  78  75  70  67  72  81  76  74  73  65  64  64  60  63  70  79  73  69  84  81  67  64  69  78  76  68  63  65  66  67  72  64  64  67  80  84
  79  81  88  86  79  76  77  78  71  75  72  61  59  64  65  67  66  73  73  74  74  76  69  69  77  73  75  77  83  75  67  72  76  77  72  75  79  71  64  71  73  70  63  53  54  69  83  76  63  63  69  62  69  70  71  73  71  71  71  71  69  70  71  68  67  61  61  59  62  64  73  77  71  67  76  76  68  73  76  75  72  65  60  62  63  66  75  72  65  65  87 105
  86  78  77  77  71  67  67  65  68  75  70  61  67  76  74  68  77  92  73  72  72  73  69  69  71  72  73  76  77  77  78  75  79  79  71  67  70  66  55  61  60  51  40  38  42  44  43  36  34  40  42  46  56  61  67  68  71  74  77  71  62  61  64  62  60  57  55  57  58  63  66  66  68  64  64  64  67  70  76  73  70  65  62  62  65  67  72  74  67  63  87 101
  64  64  64  59  60  64  67  63  64  76  68  65  69  67  65  62  75  86  73  67  67  65  66  64  68  69  65  72  72  72  73  74  88  83  66  66  65  54  33  32  29  23  16  19  23  22  16  15  17  24  24  21  27  30  43  60  73  73  62  65  67  67  63  57  55  56  58  58  61  64  62  63  66  62  60  65  65  66  72  73  76  70  72  67  66  68  74  83  71  62  74  83
  57  60  60  62  66  62  64  67  70  75  61  60  62  67  66  65  73  74  73  67  60  54  59  63  65  71  67  69  69  64  63  67  71  66  52  44  40  23  18  17  15  18  18  20  20  23  22  19  17  15  16  14  14  14  23  33  38  47  51  65  76  73  62  62  67  67  60  57  60  57  62  66  62  63  62  67  71  70  75  79  83  78  76  72  76  75  72  75  68  61  65  72
  64  66  66  69  68  58  56  65  67  62  54  58  62  65  66  62  62  64  62  56  54  54  60  67  68  68  65  63  60  67  70  62  45  36  30  21  15  15  16  13  17  25  25  20  21  20  22  24  19  19  18  21  22  16  17  17  16  17  29  41  59  59  60  69  75  72  63  60  60  71  72  73  64  59  60  80  82  76  77  75  78  78  73  67  74  69  66  66  67  67  65  65
  68  69  71  63  58  60  60  67  66  64  68  72  69  65  64  61  61  65  58  53  58  72  72  69  68  68  74  68  55  56  42  33  25  21  16  18  19  14  18  17  23  27  22  26  24  21  20  23  24  32  30  21  28  24  18  19  19  20  19  22  28  33  53  66  75  72  63  63  71  83  78  76  70  65  74  92  94  83  77  73  72  79  76  67  68  67  68  61  62  69  71  70
  72  65  61  58  62  69  66  75  79  72  73  70  67  64  60  62  62  65  62  62  73  82  76  67  61  62  62  54  38  27  20  17  18  18  15  14  15  17  23  23  24  27  26  25  28  26  21  31  31  18  28  31  21  18  20  23  21  19  22  28  21  15  24  47  72  66  63  65  73  81  72  69  73  74  76  87  86  77  73  69  73  83  73  60  60  63  61  59  61  65  75  72
  58  56  55  58  65  63  60  66  70  64  58  56  58  56  54  58  71  75  71  80  88  80  65  53  50  47  33  25  21  21  17  15  19  21  20  17  20  23  22  22  27  29  24  24  28  29  36  34  29  27  27  30  26  26  21  24  24  25  23  25  19  18  13  13  29  44  61  67  71  72  64  65  74  72  70  71  67  66  67  64  64  70  60  53  57  62  61  60  61  64  70  70
  51  52  51  53  54  51  52  52  52  53  52  52  54  54  55  62  84  85  81  88  89  74  63  57  40  24  17  19  23  23  20  21  26  23  23  23  24  19  26  25  28  25  26  28  29  27  34  32  30  31  30  26  30  29  23  29  31  29  23  23  30  24  20  15  11  17  34  54  60  58  59  64  66  65  66  65  69  74  62  56  55  52  52  53  62  63  60  62  68  72  66  64
  58  58  53  56  55  54  58  57  51  51  54  59  57  54  56  72  80  76  79  80  75  60  51  41  22  19  22  21  23  19  25  30  25  20  22  27  28  30  40  32  33  27  25  27  31  33  30  30  32  33  31  31  26  31  29  25  28  31  26  20  27  26  21  16  17  18  13  23  44  55  59  58  58  62  60  61  68  66  59  59  58  58  55  58  68  64  58  63  72  72  62  60
  70  66  59  59  57  56  57  58  53  51  59  70  64  57  60  73  77  77  81  86  74  48  24  14  18  22  20  23  21  20  22  35  29  21  28  30  30  36  42  40  30  25  29  40  43  43  40  42  41  35  34  37  32  31  30  32  33  34  36  24  24  33  28  31  21  20  17  14  21  39  55  62  62  64  58  57  63  59  58  61  58  58  56  63  68  65  61  63  66  61  58  57
  65  59  57  60  63  59  58  56  55  52  61  70  61  64  66  75  89  85  73  70  43  20  12  13  22  25  23  25  25  25  23  28  28  22  29  32  32  35  41  34  35  41  54  49  45  43  42  48  44  41  41  36  36  40  39  34  35  33  30  30  31  31  28  36  29  23  22  16  15  19  37  64  66  66  64  61  62  62  60  61  56  56  61  74  71  64  63  62  60  63  63  60
  59  58  55  61  64  60  57  56  54  57  61  60  65  79  80  83  87  66  43  25  17  14  20  22  22  21  22  22  31  26  25  35  30  28  32  37  41  33  42  44  40  55  71  75  72  49  42  42  38  43  42  43  55  42  47  41  38  42  31  39  35  43  31  34  28  23  23  17  18  16  15  44  63  68  71  63  59  58  61  65  58  60  60  68  64  63  64  62  67  79  77  65
  61  58  56  62  60  58  60  61  57  68  67  62  68  79  76  71  60  34  18  15  19  21  23  24  23  20  18  22  29  29  36  31  38  37  36  40  53  51  41  43  41  41  42  50  54  43  46  48  55  40  47  43  54  40  39  42  40  49  40  40  38  38  34  35  35  29  24  21  23  18  16  21  39  57  63  59  58  57  59  64  59  57  60  68  67  68  66  65  77  88  80  67
  61  57  56  61  62  65  65  57  61  72  74  72  72  77  68  56  42  20  16  21  19  24  21  16  21  25  24  23  22  24  32  35  33  41  44  48  54  67  68  67  55  46  36  41  48  44  40  55  61  52  54  41  53  45  57  67  45  45  48  44  42  40  45  32  33  30  32  29  24  21  17  16  16  30  54  55  57  60  62  64  59  59  68  76  71  66  62  68  78  81  74  72
  59  54  55  64  70  70  67  62  66  74  86  84  73  72  71  53  21  15  23  28  19  20  20  19  27  31  22  20  19  22  27  31  45  53  77  63  61  86  78  64  52  64  80  69  39  55  77  81  70  78  78  69  64  62  70  76  55  53  59  44  48  56  54  52  48  35  37  32  34  26  22  23  15  13  33  57  64  65  66  62  60  64  72  68  66  68  68  77  84  84  78  76
  60  58  57  65  72  68  66  69  69  75  82  81  73  78  74  38  11  17  21  27  23  24  23  24  38  32  29  34  38  58  67  60  68  78  90  95  94  97  94  93  92  84  88  88  79  71  83  85  90  88  77  71  75  85  81  57  61  65  65  59  59  55  41  57  68  56  44  37  36  26  28  26  20  15  20  55  65  65  66  59  64  71  71  63  60  66  67  73  85  88  78  82
  62  59  59  61  63  61  65  64  60  67  72  74  74  80  62  17  14  21  21  23  23  25  28  26  30  30  50  58  67  86  92  97 102 113 121 127 127 111 116 126 128 119 122 136 147 131 123 121 124 119 127 109 100 100 109 101  81  80  84  90 102  99  81  65  67  64  51  44  43  36  38  28  20  16  15  30  55  70  70  58  63  68  65  59  59  66  70  73  86  86  77  84
  56  54  59  62  59  62  66  62  64  78  78  70  68  66  35  13  18  25  28  26  26  30  31  29  48  65  74  82  92  92 100 119 131 135 135 142 151 154 153 141 149 153 150 135 128 141 147 147 143 150 139 135 148 149 154 142 135 124 129 134 137 132 130 118  98  85  89  67  52  49  48  42  34  19  15  15  44  74  69  57  60  60  59  58  60  65  72  73  76  77  77  78
  53  54  56  55  55  60  66  64  67  78  81  75  66  44  13  16  19  23  30  35  37  41  45  53  75  85  92 105 106 109 124 133 131 129 137 144 147 153 158 164 161 161 158 149 154 159 159 158 153 154 137 150 154 163 161 149 155 159 156 159 160 149 146 146 127 116 115 111  82  78  82  78  51  29  21  15  23  52  61  59  57  57  55  55  57  60  63  61  59  60  62  65
  54  53  52  54  52  56  62  63  68  79  80  78  66  25  11  15  16  21  31  45  51  60  65  74  89  96 108 113 112 125 128 131 134 137 140 146 150 154 160 161 161 162 160 162 163 159 164 164 161 160 143 155 166 165 158 159 160 158 158 157 150 142 147 152 151 151 142 127 114  90  95  77  66  68  42  21  13  30  49  56  55  55  55  56  57  56  54  55  55  54  56  56
  57  58  57  53  53  58  67  69  76  76  75  77  43  15  14  17  20  25  39  55  67  82  81  94 102 109 114 115 122 125 126 131 140 140 147 152 152 156 158 162 164 161 159 160 161 164 165 169 169 169 172 170 170 164 161 160 160 159 159 159 152 143 147 151 147 152 153 144 129 113 108 108 102  93  65  30  15  20  42  52  53  53  55  55  56  53  52  54  55  55  56  56
  69  70  67  56  59  68  70  68  75  67  68  62  24  11  13  17  23  35  47  65  84  95  95 102 106 110 114 119 120 123 129 137 141 144 150 153 156 161 161 166 168 166 166 166 171 168 168 173 176 174 169 170 168 165 167 163 160 160 164 161 154 155 157 155 154 152 147 145 137 126 118 119 118 105  85  54  23  14  27  44  52  56  57  56  55  54  56  56  58  57  57  56
  68  67  60  55  59  64  62  60  61  54  57  41  17  12  15  21  23  39  59  80  95 100 103 104 107 108 114 117 121 125 132 138 142 146 153 156 160 163 163 163 170 174 174 171 176 175 175 177 178 177 176 172 170 170 168 166 167 167 168 166 159 155 159 159 157 152 148 146 139 131 122 119 119 118 104  84  53  17  19  38  54  59  61  59  59  59  56  58  61  63  60  62
  58  58  54  54  53  54  53  55  55  53  48  26  14  17  19  21  28  49  68  85  99 106 108 106 109 116 119 124 124 126 130 138 144 149 154 159 165 168 163 164 171 177 175 182 187 184 181 178 181 182 181 182 179 177 177 174 173 170 168 171 170 165 161 160 158 156 150 145 143 136 125 121 120 119 116 109  75  23  14  33  54  63  61  59  67  65  61  71  86  84  89  93
  61  58  56  53  54  54  53  54  53  50  41  20  16  18  17  25  38  53  69  94 104 109 107 108 115 118 121 123 127 131 135 141 149 154 157 162 167 168 170 176 173 181 183 189 191 186 180 182 186 186 187 186 188 183 180 176 179 175 172 171 172 167 160 158 156 157 152 147 145 141 131 122 122 122 117 115  98  52  18  24  58  66  68  82  94  93  89 106 106  85  98 104
  73  66  59  58  56  56  57  58  57  51  34  19  22  21  21  29  41  55  76 100 107 109 107 113 116 118 119 124 133 135 138 145 153 157 159 165 165 170 174 177 180 187 190 190 187 189 182 186 193 192 191 183 185 186 184 180 180 182 179 174 171 171 166 160 157 155 156 153 145 142 135 125 120 120 119 119 106  67  27  17  50  78  94 122 127 113 106 123  99  84  94  96
  95  90  81  73  66  66  68  69  67  52  33  18  18  21  25  35  50  66  87 102 110 112 108 113 119 122 123 130 133 137 143 145 152 157 161 164 167 179 178 183 185 184 185 189 191 187 188 190 187 191 192 191 186 187 185 187 183 184 180 180 176 173 169 167 161 159 156 153 146 139 135 129 122 119 118 116 110  72  36  16  30  85 109 122 119 106 105 115 108 105 106 107
 124 122 108 100  91  85  83  88  81  48  19  17  17  22  30  40  51  66  87 101 109 111 112 113 118 127 131 133 134 141 142 145 152 155 164 167 173 179 171 176 186 188 191 193 192 194 196 191 190 195 194 197 191 191 191 188 184 181 180 181 176 172 171 171 166 162 155 149 143 139 134 131 126 124 119 117 112  85  51  24  25  60  88  96  91  89  84  84  88  90  85  85
 144 133 116 114 108 104  99 103  93  40  13  16  19  28  31  37  54  64  83 103 111 114 116 114 119 131 131 133 135 138 141 149 154 160 164 171 177 168 174 183 189 194 193 192 198 197 194 194 199 199 198 198 196 194 192 192 189 185 182 177 175 175 173 172 170 165 158 149 144 143 135 131 130 124 121 118 117  99  61  29  19  36  61  63  73  76  70  86 106  99 103 107
 140 133 122 118 112 119 124 126  97  29  14  16  23  31  28  38  50  57  78  99 106 114 117 113 120 129 130 131 135 138 143 152 161 163 167 175 176 174 186 186 190 189 197 201 204 197 194 200 200 201 203 201 199 196 193 193 190 187 187 179 175 177 175 172 168 165 160 153 148 147 141 133 131 126 121 119 117 100  71  37  18  27  52  81 103 106 109 137 124  92 115 117
 143 140 143 140 138 141 149 151  81  18  18  17  24  36  32  42  49  60  80  81  96 110 113 114 121 128 132 136 139 141 146 152 156 162 168 170 177 181 183 183 185 187 194 192 198 198 198 198 203 203 202 203 200 200 196 194 195 189 186 183 179 175 175 172 170 167 162 156 149 151 146 137 132 127 124 121 116 100  71  42  22  18  58 121 140 124 131 157 122 102 113 120
 130 132 142 144 139 140 149 144  69  12  17  18  26  34  34  41  55  64  70  77  97 109 114 115 120 130 138 138 139 142 146 150 158 161 165 168 173 178 179 179 178 180 184 190 189 188 189 195 199 197 202 199 199 196 193 191 191 188 183 179 180 176 176 173 172 166 159 156 154 152 146 139 132 124 122 125 119 103  73  44  29  21  49 108 124 119 130 142 139 146 140 144
 133 146 149 152 148 140 138 134  65  17  23  22  26  32  39  42  52  60  66  72  96 113 117 116 120 130 135 137 140 146 149 154 158 161 164 170 172 171 174 174 179 184 185 188 190 187 186 191 192 197 196 198 194 188 187 186 179 182 181 180 177 173 174 170 167 163 156 153 154 152 147 142 134 121 119 121 118 101  73  51  36  23  47  93  89 101 111 116 115 111 109 106
 147 144 140 147 146 139 133 112  37  15  22  28  28  38  44  44  53  62  65  76 101 112 117 119 118 130 139 141 143 143 150 156 158 159 162 167 170 176 178 179 182 184 186 190 190 189 191 194 194 194 197 198 196 191 189 186 182 183 179 177 178 175 172 170 165 164 158 153 151 148 148 144 138 125 121 120 118 107  80  56  42  24  31  58  53  73 102 126 112  74  66  64
 147 144 139 140 136 142 146  83  19  15  23  30  28  39  44  49  50  58  67  87 105 111 117 118 119 131 139 143 143 142 154 158 163 163 166 170 175 179 176 180 185 185 188 189 188 191 193 194 195 196 194 192 192 193 189 185 184 184 182 177 176 178 173 170 167 165 164 159 154 149 149 143 137 129 122 124 123 110  84  63  44  29  26  41  40  53  81  96  80  68  63  55
 152 154 154 155 151 151 150  85  24  20  23  26  34  39  43  46  55  59  65  84 101 116 113 112 122 132 139 144 147 151 156 161 164 165 168 174 178 178 182 187 190 192 189 193 194 194 193 193 194 190 192 192 192 192 188 188 188 186 183 183 181 180 177 173 172 168 162 163 161 156 149 145 136 127 126 124 122 106  84  65  48  33  19  40  58  50  46  53  56  60  59  57
 137 135 139 145 145 147 143 103  27  22  23  23  30  39  41  45  52  59  69  89 108 116 113 111 125 128 127 145 149 153 156 159 163 168 172 175 177 181 186 190 192 194 194 198 195 195 194 193 193 190 190 195 193 194 190 187 184 186 186 186 185 183 186 181 178 172 168 165 164 159 154 148 139 126 123 125 122 104  87  73  51  33  24  41  58  57  56  57  59  63  64  66
 138 143 144 146 151 149 145  87  18  23  23  25  33  37  43  40  49  66  79  93 107 114 113 114 126 126 123 146 151 155 159 164 168 171 174 179 182 188 191 191 197 200 202 202 198 199 196 195 199 198 199 202 197 192 192 193 190 191 193 191 192 192 190 189 185 180 176 168 166 162 158 153 145 135 123 118 121 110  87  73  58  37  22  36  45  52  62  60  67  81  80  79
 129 137 141 144 136 135 122  57  22  23  24  29  37  37  43  46  51  67  83 100 108 115 117 119 128 135 142 145 154 159 164 169 175 179 180 186 190 195 198 192 204 206 206 205 207 207 205 203 199 200 202 197 195 196 195 197 199 201 202 201 198 198 199 195 189 186 183 178 172 167 160 155 147 142 128 118 115 113  83  69  56  37  29  37  43  50  54  62  81  79  68  71
 118 129 137 130 115 112 116  58  22  24  25  31  34  37  45  46  51  71 100 110 109 114 118 123 130 134 142 150 160 166 170 174 178 184 185 189 195 197 199 205 209 211 209 209 209 210 208 206 201 205 205 202 202 204 204 207 205 204 205 204 204 199 201 197 194 192 187 182 177 173 168 161 150 142 134 116 111 111  91  66  52  36  27  34  48  47  40  50  71  67  59  64
 106 131 138 119 111  93  91  59  20  22  28  30  34  38  43  48  59  89 110 111 111 114 115 116 122 137 144 154 160 164 175 179 178 186 188 187 196 203 203 206 208 211 212 209 210 209 209 208 208 208 207 213 215 213 212 211 204 203 201 205 195 193 190 192 184 187 187 183 175 174 174 166 155 142 135 122 110 114 108  80  53  37  26  29  35  35  33  40  55  59  64  70
  94 118 132 113  94  88  90  40  14  21  33  34  37  38  39  50  73 101 109 111 110 113 111 106 124 139 145 141 129 145 162 164 156 154 164 170 177 184 194 199 197 210 207 201 200 206 208 207 209 212 213 213 210 204 204 200 198 202 197 185 165 172 149 150 138 148 155 163 167 167 160 147 139 149 143 127 110 111 115  92  53  42  25  27  33  35  33  39  53  73  86  82
 103  99 101 114 103 126 118  37  17  23  34  37  35  35  36  56  88 109 112 111 110 107 107 116 133 137 108  92 102 124 127 113 108 107 105 109 102 116 130 148 157 170 182 183 185 198 201 204 209 213 215 213 204 198 194 191 190 194 175 168 148 129 117 106 101 103  91  97 108 107  93  87  86  99 129 130 107 107 113  99  60  38  25  26  35  37  36  49  67  82  84  80
 110  86 102 116  98 109  82  38  23  27  37  42  35  37  37  65  99 110 113 112 109 102 107 123 128  98  71  75  80  74  71  65  77  89  80  73  65  94 102 106 115 146 164 162 180 193 195 200 205 205 209 208 199 195 189 184 178 171 166 152 128 132 114  80  88  86  77  77  65  51  55  65  65  56  68 111 112 102 109 102  67  38  22  30  42  40  41  46  52  55  65  85
 110  94  92  90  96 106  73  31  20  26  34  40  38  39  45  72  96 108 113 112 103 100 112 112  75  57  68  66  71  87  86  87  98 100  90  79  75  84  94 113 130 141 157 152 163 185 190 194 198 197 199 199 191 188 187 179 175 171 166 148 142 125  93  92  92  79  75  89  99 106 111  97  84  68  57  61  89 101 105 104  77  41  24  34  50  46  46  49  56  63  78  88
 127 107  98 104 103 118 125  52  17  29  38  42  39  39  48  75  98 105 113 107 100  95  91  67  66  80  85 100 117 133 143 147 154 156 159 144 128 120 131 135 146 149 159 159 164 177 183 191 195 195 196 196 189 185 181 174 173 167 169 159 151 137 130 122 126 139 143 155 161 158 151 146 124 102  81  59  58  91 104 106  84  44  24  38  47  49  54  63  69  77  84  85
 133 113 122 132 119 124 124  67  16  30  37  40  41  38  52  81 101 112 114 103  98  87  67  64  78 100 116 130 139 144 152 156 162 167 171 174 174 169 161 158 157 159 162 169 164 168 176 184 187 192 194 192 189 186 180 174 169 163 162 160 156 153 153 166 175 174 169 164 161 158 158 154 144 132 108  83  63  78 103 107  83  40  22  36  50  56  57  60  61  68  80  90
 144 128 114  99 114 123 103  48  21  28  31  41  43  43  57  88 107 115 109 101  93  70  69  83 106 121 132 137 141 143 147 152 160 170 174 176 174 175 174 171 163 158 160 163 160 163 171 181 184 192 198 192 188 185 182 175 166 161 152 151 154 165 178 184 180 176 170 164 160 156 155 148 144 138 128 101  76  80  98 105  86  43  26  32  39  40  38  42  49  72  91  98
 118 107  97 111 122 110  99  50  23  31  37  41  39  43  54  92 110 112 106  97  84  67  75 101 121 129 134 137 136 142 143 144 144 145 145 143 136 137 144 159 168 169 161 158 159 161 168 178 187 193 195 191 184 181 177 172 163 152 151 159 166 164 144 133 138 143 147 148 149 150 150 147 141 137 133 120 103  89  94 104  90  44  26  31  27  26  32  37  43  67  90  93
 116 110 106 124 130 119 123  92  27  31  39  41  39  44  57  99 107 107 106 102  95  90 105 119 130 129 129 130 132 122 115 120 138 158 155 144 138 129 118 116 145 172 176 165 157 156 164 174 182 193 195 188 184 179 172 166 156 150 158 161 134 117 128 136 131 129 146 149 141 132 127 134 134 130 126 129 118 106 101 104  93  43  23  31  28  33  40  43  43  75 103 107
 111 107 122 148 146 133 149 114  29  26  34  42  41  46  66 103 108 108 108 102  93 100 120 124 123 123 125 121 100 100 115 115 107  91  73  71  87 107 130 128 114 141 173 185 165 151 157 167 177 189 189 180 176 171 168 160 152 154 158 137 117 119 103  56  32  28  43  62  97 136 135 114 113 126 124 125 119 109 108 104  91  41  23  40  49  54  54  58  68 103 121 119
 110 114 130 131 110 102 126 103  27  20  35  44  47  49  68  97 109 110 107 102 103 122 125 119 113 118 118  95  96 100  72  36  19  26  48  43  30  95 115 107 114 127 158 190 174 152 149 159 170 174 173 172 164 158 156 153 151 165 151 128 113 133  91  26  60  78  34  32  63  57  93 115 106 119 124 122 126 122 110 107  92  35  28  69  81  64  60  65  83 105 119 129
 125 139 140 123 107  96 106  95  30  20  34  38  39  48  68  90 106 107 107 113 112 120 121 117 111 112 102  96  74  35  35  47  23  44  82  51  44 182 205 140  88  99 136 175 163 154 149 150 154 154 157 159 154 145 142 145 143 159 132  99 127 184 113  36  53  54  23  29 139 105  32  55  91 105 117 119 122 122 116 109  91  34  43  88  79  59  56  66  86  92 100 129
 139 150 144 129 117 102 106 108  41  18  36  35  34  49  71  90 103 107 111 119 118 114 121 118 114 109  91  58  30  33  82 103  40  30  35  47  72 138 143 126 119 113 114 148 149 153 142 135 142 147 153 150 146 143 133 135 138 140 122 134 126 127 125 110  98  89  70  72 109 107  73  52  50  80 112 119 122 122 119 106  90  34  55  88  65  55  66  66  57  62  78  83
 129 130 123 124 125 115 113 117  54  16  36  37  34  45  70  89 102 106 116 122 123 122 122 119 111 102  86  61  68  88  99 101 108 109 135 150 162 159 158 150 150 168 140 129 145 144 132 131 142 146 152 153 152 148 140 128 132 135 125 146 142 140 158 183 187 165 142 126 112 114 124 113  91  88 104 120 126 125 118 106  90  34  58  66  50  60  73  59  38  62  95  74
 135 127 124 135 116  96  95 100  79  45  40  36  31  41  68  89 100 106 119 127 126 125 125 123 116 112 107 101 107 116 122 125 134 141 161 176 165 159 149 140 145 141 130 140 145 137 134 139 141 147 149 152 156 152 145 137 130 137 135 122 119 121 134 155 163 153 143 140 140 138 143 139 127 115 121 129 125 126 124 106  87  46  52  50  46  55  68  58  71  95  92  87
 124 123 134 123 101 111 115 120 125 122  95  48  26  42  71  90  97 105 119 129 130 128 127 132 127 120 115 114 115 122 129 134 138 140 141 139 137 133 136 140 136 133 140 147 142 139 140 140 143 149 154 157 159 154 145 141 143 138 140 137 130 128 129 129 134 138 139 139 141 142 141 137 129 126 128 131 124 128 124 109  85  51  71  75  69  64  68  60  80  94  80  88
 120 124 139 109 105 107 119 142 144 145 139  93  32  36  71  89  95 106 120 128 128 128 131 136 129 123 127 126 125 132 132 133 135 135 135 138 144 146 142 140 143 145 146 147 146 146 139 140 147 151 158 164 162 160 151 144 148 149 146 144 141 138 138 139 145 146 141 141 147 152 151 146 142 134 128 129 127 124 122 110  82  85 136 137 127 104  74  58  59  68  73  90
 143 144 134 100 107 120 119 116 137 148 150 133  58  31  69  90  99 105 118 124 124 130 133 136 130 131 137 137 140 146 149 149 152 154 158 159 155 148 149 151 147 146 150 147 149 147 141 141 145 153 160 161 163 158 147 142 143 161 163 157 149 143 141 141 141 146 152 152 155 157 153 149 147 144 132 127 125 122 119 108  85 117 159 164 159 144  99  45  41  56  77 103
 160 159 143 110 132 158 149 129 119 142 147 142  93  37  64  90  96 102 111 118 122 129 130 132 134 139 138 142 147 152 154 157 160 161 158 153 150 151 152 149 149 150 153 154 158 151 143 141 143 153 156 157 161 158 143 128 136 162 174 168 162 160 152 148 146 145 144 145 148 149 150 147 146 147 141 135 126 120 117 106  88 136 170 147 116 135 128  53  49  78 110 123
 127 121 115 147 168 166 153 145 134 120 142 137 105  50  66  88  97  99 107 118 124 128 128 130 137 138 139 145 149 152 156 156 150 147 151 155 157 153 147 150 152 158 159 165 162 152 140 138 139 148 152 158 161 158 149 130 123 156 176 181 183 180 171 163 154 153 153 150 146 144 143 147 148 146 145 142 130 119 115 104  93 147 143 109 122 133 131  70  77 111 134 132
  84  82  78 151 185 167 149 139 136 119 128 133 102  59  69  87  92  97 101 112 124 125 127 136 139 144 152 155 154 152 152 148 146 151 156 154 156 157 157 160 166 170 172 170 161 145 131 131 137 144 149 161 168 167 162 144 125 139 173 186 191 194 189 180 172 165 163 160 153 153 152 149 148 149 149 144 136 122 110  98  94 135 139 146 153 150 130  65  68  93 120 116
 111  93  87 140 186 176 151 124 123 153 151 111 101  58  66  90  93  95  97 110 120 121 129 139 143 151 157 156 155 153 151 154 153 157 161 163 166 169 174 177 183 186 183 166 156 136 117 125 136 136 138 160 173 176 173 158 138 127 140 161 176 192 202 199 189 176 172 172 169 165 160 156 152 152 149 148 139 128 110  97  92 131 156 167 174 179 112  59  76  91 118 118
 117 109  95 112 173 170 141 115 145 180 142 139 121  67  64  90  96  94  95 109 116 122 132 140 148 152 152 153 155 159 161 160 159 166 170 175 178 185 188 187 192 191 166 138 130 120 119 133 139 136 150 177 185 188 187 176 162 145 129 126 144 170 191 199 201 195 185 182 179 172 167 165 162 157 154 146 142 133 112  91 104 150 150 172 194 195  99  67  89  98 112 131
  99 100  87  88 151 163 131 125 174 179 150 184 140  82  65  91  97  92  93 108 117 126 132 141 146 149 150 154 160 162 162 164 167 171 178 183 188 194 194 192 188 164 127 122 124 128 138 152 153 152 171 193 216 215 203 185 177 163 155 139 135 149 174 190 201 206 202 194 189 184 180 173 169 165 158 149 144 136 112  85 111 172 151 168 203 191  92  79  96 102 120 128
  94  86 105 116 147 166 125 143 194 183 165 162 142  84  68  93  97  91  94 102 116 129 134 141 146 147 155 161 163 166 167 167 173 179 188 193 203 196 191 187 169 126 126 142 149 152 165 168 165 162 170 187 210 207 193 180 168 168 172 164 153 141 159 186 193 204 205 201 194 191 186 178 174 168 161 154 141 133 115  85 119 193 170 165 206 180  90  94 114 118 120 131
 110 127 136 135 135 164 123 163 201 182 173 151 149  92  68  90  95  91  92 102 120 129 135 141 144 149 159 162 164 168 168 175 181 188 193 199 205 194 187 184 156 126 145 159 169 173 181 178 170 163 164 174 186 189 184 169 163 166 172 176 174 157 143 168 182 194 206 206 199 198 193 184 179 175 166 156 143 128 117  82 129 206 188 163 202 164  71  73  95  96 101 130
  83 107 142 125 112 161 131 179 197 182 188 148 147  98  69  91  95  92  90 101 122 130 134 139 142 150 156 160 164 167 173 176 182 190 199 202 197 187 183 178 151 134 159 168 175 175 172 164 157 162 162 170 180 178 172 162 157 113  93 122 158 159 136 145 164 176 193 201 198 198 195 189 183 177 171 159 143 126 114  81 144 213 197 163 195 125  37  51  59  64  76  93
  96  96 121 112 110 152 137 182 193 184 182 156 142  96  61  87  95  92  88  98 118 128 132 136 141 147 152 158 166 169 173 176 182 190 200 200 190 179 170 172 144 131 150 141 110  79  65  62  69  90 124 155 163 160 160 138  66  29  59  95 104 129 125 140 152 155 174 191 197 198 193 190 181 176 172 160 138 126 113  81 153 214 207 163 185  82  37  48  57  66  53  52
  99 105 107 112 122 142 140 170 180 177 169 165 151 100  67  91  94  91  86  96 114 125 129 134 136 144 151 159 166 169 174 176 182 183 193 172 169 173 166 165 142 119 133 120 120 110  92 108 100  80  76 117 143 135 124  96 106 133 155 155 125 116 127 151 155 148 158 178 191 191 188 187 182 175 169 153 137 126 114  91 170 209 204 169 171  49  29  35  49  55  45  43
 132 145 121 113 130 131 137 146 150 148 146 147 136 106  73  94  93  90  85  94 111 121 127 130 131 141 153 158 161 165 171 174 178 182 182 158 169 175 167 160 151 128 115 131 147 148 132 150 148 132 113  96 120 116 112 141 160 153 128 119 127 141 153 157 162 159 148 160 182 188 186 183 180 174 166 146 136 124 105 105 186 205 199 171 151  28  18  23  27  29  27  31
 157 156 137 136 143 126 129 134 135 130 167 155 123 106  71  90  94  88  87  95 108 119 126 127 129 141 148 154 157 162 170 173 179 182 181 178 178 177 172 164 156 154 137 130 134 129 123 139 155 159 157 141 130 139 146 153 144 130 121 137 142 152 157 164 168 171 152 147 178 186 185 180 177 173 161 148 133 119  97  96 165 184 180 176 121  15  17  19  21  22  22  29
 139 137 132 133 130 120 129 133 133 146 159 146 148 115  64  86  94  89  89  99 106 116 122 126 127 137 139 145 156 161 168 170 177 179 179 174 172 176 174 167 161 161 151 147 151 144 129 136 155 172 182 182 167 159 155 140 120 141 120 128 141 142 145 154 162 169 166 138 152 177 182 174 170 170 159 147 129 119  92 106 158 160 165 171  83  10  18  18  19  18  20  28
 124 118 111 114 112 109 123 133 129 166 165 157 154 131  72  83  94  91  92  99 110 121 121 123 126 134 134 145 154 156 160 169 174 176 173 162 173 178 167 161 157 151 142 138 142 142 137 139 148 167 175 161 155 157 145 133 123 133 132 138 140 132 125 128 140 158 171 161 130 161 175 168 165 166 154 140 122 116  93 131 170 161 154 157  48  12  18  19  18  19  20  29
  94  89  90  91  88  84 104 119 139 172 159 157 155 150  78  78  93  93  95 103 112 121 120 120 123 128 135 144 148 154 160 167 169 169 153 159 164 161 159 142 133 141 142 137 136 140 141 142 164 177 166 158 163 173 169 150 142 155 148 135 141 129 112 119 128 137 164 171 145 136 169 171 168 157 146 133 120 115  85 146 186 168 154 131  25  16  18  19  18  19  21  30
  66  67  70  69  65  62  71 106 146 154 150 156 160 163  85  69  90  94  96 102 112 119 122 118 118 123 134 139 143 148 157 168 163 140 144 159 149 143 143 111 117 134 134 145 145 152 148 146 165 163 167 162 170 178 178 176 170 163 157 136 137 137 139 122 105 108 120 157 155 123 157 170 163 150 141 126 119 116  91 151 186 182 160  89  13  17  18  17  17  18  23  32
  55  55  55  55  54  53  51  79 132 151 153 157 157 146  94  64  88  94  96 103 113 125 125 122 120 120 127 133 137 142 157 167 142 122 138 139 142 120 109 116 134 138 150 159 154 153 158 164 165 175 174 171 174 170 173 178 177 168 163 155 157 153 133 126 108  98 103 131 140 130 149 167 162 147 137 120 116 112  95 161 175 185 153  44  12  18  17  18  18  20  24  34
  50  51  51  51  51  51  50  49  68 100 108 106  97  84  87  68  86  92  95  98 115 123 127 125 122 120 126 129 132 141 157 162 125 132 129 128 114  92 111 121 127 142 154 149 165 166 173 181 187 183 180 182 176 169 173 177 171 170 170 174 169 166 150 140 127 116 117 121 140 140 151 170 161 143 129 124 122 108  94 162 176 190 130  21  16  17  18  17  17  19  25  35
  50  51  50  52  50  50  52  51  45  38  32  24  20  23  41  60  82  87  95  92 110 123 130 126 123 121 123 125 125 140 161 152 124 134 140 129 100  96 115 117 139 152 160 164 171 170 169 168 165 159 161 156 156 164 147 141 136 139 134 136 146 156 158 158 144 123 122 131 137 122 141 172 156 141 126 126 128 103  59  92 120 119  48  13  18  17  17  17  17  18  26  35
  52  50  48  51  51  48  48  50  49  43  31  24  24  22  27  56  75  84  87  95 107 123 133 131 125 122 118 119 120 137 162 148 121 127 138 122 103 104 117 135 152 153 152 142 133 132 133 136 143 149 143 138 133 134 119 120 127 124 122 113 106 114 130 147 147 129 111 117 130 115 142 170 149 136 126 130 130  96  22  10  17  13  12  17  15  15  16  16  16  20  27  38
  51  50  48  49  48  48  48  48  50  45  35  28  25  24  26  47  70  83  89  98 107 118 131 135 131 124 118 120 113 129 162 137 131 135 129 121  99 102 114 122 121 121 115 107 110 116 121 123 131 133 136 137 132 126 109 108 111 104  96  97  94  86  84  98 108 111 112 132 142 116 157 170 146 129 125 135 129  85  19  15  15  14  17  17  16  15  15  17  17  21  30  40
  51  51  50  50  49  47  47  49  49  46  38  29  25  25  24  40  63  82  92  98 107 116 129 133 135 129 119 123 117 131 160 139 139 132 133 113  82  59  60  66  73  80  85  83  89  92 101 107 112 112 116 117 116 104 101 101  95  89  86  77  78  70  62  68  96 119 137 153 138 128 166 164 142 126 131 138 128  72  15  17  17  16  17  16  16  15  16  17  19  24  35  43
  49  49  48  48  48  48  49  48  47  46  39  31  26  24  24  36  55  77  90  98 106 115 130 133 132 128 121 123 128 136 155 142 142 147 147 145 132  98  67  64  78  85  93 101 108 118 131 136 146 152 147 147 154 147 142 134 129 119 122 111  98  88 105 137 149 155 163 150 137 143 172 158 139 127 137 140 125  59  12  16  17  16  17  16  16  17  17  18  20  28  37  43
  48  49  47  48  49  49  48  46  47  48  43  33  27  24  22  36  52  68  84  96 104 117 126 130 129 126 122 121 130 138 155 163 146 156 157 150 144 144 130 111 105 106 107 113 117 131 148 162 177 180 174 168 167 164 159 150 144 129 119 107 113 128 146 152 149 161 167 165 156 172 176 149 136 128 137 138 117  44  12  18  15  15  15  17  17  17  16  17  21  29  38  43
  49  48  48  48  49  48  48  47  48  49  44  37  30  27  24  41  54  64  82  94 104 114 121 123 125 126 121 121 130 137 155 172 155 158 163 157 145 144 148 146 148 153 149 140 137 140 148 160 169 173 167 162 154 148 152 143 139 132 136 143 155 154 147 151 156 170 171 165 169 184 164 143 132 133 139 132 106  34  14  18  17  15  16  17  17  17  16  16  23  31  40  45
  48  47  48  48  49  49  49  48  47  48  44  39  34  30  27  41  58  62  77  90  99 109 119 125 127 126 123 122 127 137 153 168 167 161 162 154 149 144 143 151 164 172 178 179 175 163 161 163 166 172 168 168 167 168 163 163 170 171 175 171 165 155 147 155 160 163 172 168 173 171 151 133 131 136 138 128  93  27  16  17  17  16  17  17  17  18  18  20  26  33  41  44
  49  48  47  47  48  49  48  47  47  48  46  44  38  34  30  41  59  62  72  87 100 106 115 122 129 127 123 120 126 140 151 165 162 154 159 158 153 147 144 150 162 169 176 183 185 186 187 185 180 183 186 190 192 186 183 188 185 177 176 170 163 153 150 161 164 165 169 169 169 155 139 130 136 137 137 119  78  22  15  17  17  17  16  19  19  20  21  23  28  38  42  44
  48  48  48  47  48  49  48  47  48  48  47  46  43  37  35  46  61  56  70  85  96 104 110 120 125 124 123 125 125 135 146 156 154 153 154 152 151 151 150 150 156 163 168 177 178 178 178 179 178 177 181 184 183 175 178 177 175 169 171 160 154 153 155 160 163 164 168 167 157 140 133 132 134 134 126 104  66  18  15  16  17  17  17  18  20  24  23  26  32  38  41  42
  47  48  47  47  49  49  50  51  50  49  49  48  46  43  40  45  61  48  64  81  92  99 106 116 122 123 123 124 126 129 141 149 150 152 151 147 149 153 154 156 161 164 167 172 175 174 172 167 168 170 168 167 163 167 172 167 171 171 164 155 156 158 157 158 160 165 168 163 142 128 130 131 129 130 116  95  57  14  15  16  17  17  17  18  22  28  29  31  37  39  42  43
  48  49  49  49  49  49  51  50  50  49  50  47  47  47  44  47  67  59  61  75  90  95 104 108 119 124 123 121 122 128 138 143 146 146 145 146 150 153 156 160 165 166 172 172 175 177 179 179 175 170 168 170 167 175 175 176 177 175 164 163 165 163 160 155 161 164 161 146 130 128 127 128 130 124 106  90  45  14  15  17  17  17  18  21  27  32  34  37  39  42  44  44
  49  48  48  49  50  48  49  49  50  50  49  48  49  49  46  51  69  65  57  72  89  94 101 107 115 121 121 117 121 126 128 136 141 141 143 143 148 155 157 161 163 165 171 175 174 176 182 182 179 179 174 176 177 179 180 182 178 172 169 170 164 163 159 157 161 161 152 136 126 126 126 130 127 113  99  83  28  14  16  17  17  17  18  23  30  36  39  40  42  43  44  44
  47  49  48  48  50  50  50  50  51  50  49  50  51  50  48  52  67  67  50  63  82  92  98 101 110 119 122 118 120 125 127 129 136 132 138 142 140 148 158 159 162 165 169 172 177 178 179 181 180 177 179 177 178 179 178 178 177 171 170 170 168 162 158 157 158 157 143 127 122 120 123 127 119 104  97  65  19  16  18  17  17  16  18  24  32  40  42  43  44  43  43  45
  47  49  48  49  47  47  48  49  50  49  48  49  49  48  48  51  67  75  56  53  72  86  93 100 107 112 119 117 119 120 123 127 132 134 137 138 135 145 155 158 164 165 170 173 177 178 177 180 181 183 180 178 177 179 180 177 176 174 172 168 166 163 161 156 155 152 134 120 119 121 124 118 107  99  89  40  16  17  17  17  17  17  19  25  35  42  43  44  44  45  45  46
  46  47  48  49  48  47  47  48  49  49  48  48  48  48  48  51  68  77  65  44  62  80  90  96 101 103 108 113 115 115 121 124 131 133 133 137 138 146 150 154 161 169 169 172 173 173 173 180 180 178 178 179 179 178 177 176 177 174 170 167 159 155 159 154 153 146 126 115 119 121 120 109 100  98  71  24  19  17  17  17  17  16  20  26  37  43  44  45  45  46  45  47
  46  47  48  50  49  48  48  48  49  50  49  49  49  48  48  51  66  80  73  49  51  70  85  89  92  95  98 106 111 113 116 118 127 130 131 136 145 148 150 156 163 167 167 170 174 181 181 182 179 183 176 176 178 182 176 168 173 174 169 167 159 155 151 151 144 134 118 114 118 117 110 103  96  86  53  15  18  17  17  17  16  18  20  28  39  44  43  44  44  43  43  43
  48  47  46  48  48  48  47  47  49  48  48  48  49  48  47  47  66  83  77  66  55  55  70  82  83  89  91  96 104 105 105 114 119 123 132 135 141 147 151 159 160 158 169 174 173 178 181 183 183 180 177 175 174 181 173 161 163 165 161 157 159 157 145 149 129 115 107 107 103 108  92  83  82  73  49  13  16  16  17  16  16  17  21  30  39  42  43  44  42  43  43  42
  48  46  46  47  46  47  47  47  47  48  48  47  49  49  48  46  64  85  82  77  68  56  63  74  75  71  82  89  99  97  86  98 116 122 126 124 133 138 141 151 154 155 164 168 171 175 177 175 182 183 173 169 177 179 173 157 143 155 148 150 145 158 135 117 109  88  84  95  93  92  78  74  64  79  62  14  16  17  18  16  17  18  22  31  38  45  45  44  44  45  44  44
  48  48  48  48  47  48  48  48  48  49  49  49  49  50  50  49  60  84  87  84  77  68  58  64  68  63  72  83  89  86  83  86  98 115 122 127 128 125 137 146 153 158 155 160 167 180 181 172 172 170 167 170 173 170 160 141 135 147 128 134 143 138 141 103  99  65  68  73  89  80  80  61  65  94  65  15  16  16  17  16  17  18  24  34  40  42  43  44  44  44  45  44
  49  50  49  49  50  51  48  48  51  49  50  50  48  49  51  50  60  82  90  89  82  80  66  57  64  69  65  66  69  77  79  70  76  96 120 131 126 112 131 147 141 154 146 146 160 168 168 166 143 151 162 150 162 152 147 147 144 148 132 125 139 118 113  94  78  64  65  68  80  75  62  53  79 102  64  13  16  17  15  16  17  19  26  36  41  42  43  43  43  42  43  45
  48  48  49  49  49  50  48  48  47  48  47  48  47  46  48  47  57  79  90  90  85  84  81  63  58  64  63  59  65  70  62  62  70  89  98 110 117 115 121 136 118 129 137 138 141 158 158 153 133 155 152 143 151 127 145 154 142 138 133 135 124  99  91  79  63  49  67  72  65  58  55  82  94 102  62  12  16  17  17  18  18  20  28  35  42  44  44  44  44  43  44  43
  47  46  47  47  47  49  48  46  46  47  47  48  48  46  47  46  57  80  92  93  87  89  89  75  61  55  54  61  62  52  58  56  51  73  81  91 106 111 114 142 127 131 140 127 144 167 154 148 143 156 151 153 130 131 135 139 133 137 124 136 120  89  89  70  55  56  57  57  50  58  81 103 103 102  61  14  16  16  17  18  18  22  30  38  42  47  45  45  44  44  44  44
  47  47  47  47  47  48  48  46  48  50  49  48  49  50  49  48  55  78  94  94  90  93  93  87  77  61  57  59  59  54  58  60  56  55  80 102 109  99 118 135 124 140 133 147 163 148 164 151 147 147 146 123 117 133 116 121 116 134 110 128 111  78  67  42  47  61  53  50  58  79  99 104 103 102  63  13  16  16  16  17  19  26  33  41  44  45  46  45  44  46  45  44
  48  47  47  47  48  48  48  49  49  49  48  48  50  49  49  48  52  77  93  96  92  96  99  95  86  82  74  65  58  59  59  55  52  49  63  86  89  88 114 108 120 133 129 152 156 144 156 142 134 144 142 130 118 138 114 116 109 125 107 103  85  78  41  33  47  54  58  54  67  93 105 110 113 110  62  11  16  18  18  18  21  29  36  42  44  46  45  45  46  47  46  44
  48  48  47  46  47  47  47  48  48  47  46  48  48  48  47  47  52  75  92  93  95  97 103 102  93  90  83  76  69  67  61  48  48  57  50  66  68  79 104  95 105 131 131 143 143 147 133 136 137 130 136 141 129 122 114 124 116 109 101  78  61  50  31  47  53  54  61  69  83  98 107 113 114 112  61  12  16  17  16  19  23  31  38  41  43  45  44  44  46  45  45  43
  46  47  46  46  46  46  46  47  47  47  46  46  46  46  47  47  52  73  92  93  93  98 104 106 100  96  91  81  76  70  75  65  48  43  50  54  53  68  82  79 102 125 115 125 132 136 122 119 129 120 127 108 104 103 120 106  87  98  93  62  41  34  43  55  59  66  76  80  93 106 111 117 117 115  63  11  16  17  17  20  25  34  40  43  42  42  42  43  43  43  44  43
  47  46  45  45  46  47  47  47  46  47  48  48  48  48  47  46  50  71  89  93  96 107 109 111 108 100 100  88  82  80  83  72  54  41  47  47  42  46  53  65  97  94  96 117 114 110 117 105 109 103 101  81  77 102 115  90  67  70  61  38  38  46  60  65  70  82  84  91 103 111 113 119 117 116  62  12  16  17  17  20  27  36  42  42  41  43  43  42  41  42  44  43
  48  47  47  47  47  47  48  47  46  46  47  48  48  49  48  48  49  70  88  92  98 112 116 114 112 106 106 101  90  88  86  83  74  62  53  44  46  44  38  57  67  75  76  95  81  91  89  97  90  86  69  75  77  86  74  66  49  38  38  50  61  69  70  70  81  88  88  96 109 117 122 120 116 117  56  12  17  17  18  21  30  40  45  43  42  45  45  43  45  47  46  45
  48  48  49  49  48  48  48  48  49  48  48  49  49  50  50  48  50  70  86  92  96 111 120 118 112 112 110 109 100  89  90  88  87  81  68  63  60  51  52  46  49  55  65  56  65  73  62  66  71  67  45  61  59  52  41  42  36  50  59  69  70  77  77  84  90  88  95 105 115 120 118 120 118 117  56  12  17  17  18  22  32  41  45  46  42  43  44  45  46  47  45  45
  49  48  48  49  48  48  48  48  49  49  49  48  49  50  51  48  49  68  85  88  97 111 119 120 115 114 111 114 107  94  90  90  92  93  87  80  72  59  68  58  58  49  52  55  47  47  47  45  50  53  54  43  40  40  44  56  59  75  67  73  78  84  85  89  92  92  99 112 117 120 120 120 118 113  54  13  16  17  18  23  33  42  44  45  43  44  43  43  43  44  43  43
  46  47  47  48  48  46  46  47  49  48  49  48  48  49  49  48  78  82  79  87  95 112 118 119 117 119 115 115 114 105  94  94  94  98  96  90  85  71  65  67  74  77  63  74  70  66  60  57  57  56  61  60  62  61  70  74  84  82  77  84  86  87  90  94  91  94 104 114 116 122 125 121 118 112  49  12  18  17  18  23  32  41  43  42  43  43  44  44  42  44  44  43
