P2
# Generated by OpenCV 4.2.0
92 112
255
 216 218 219 219 218 219 221 221 220 220 222 222 221 223 223 223 224 224 223 225 225 224 225 226 227 226 226 229 226 228 227 228 230 228 198 142 115 118 130 157 183 186 179 186 190 168 153 160 170 170 176 151  93  72  77  85  93  95  87  80  75  74  73  72  72  72  71  71  72  71  68  68  68  70  70  71  70  71  70  68  71  72  70  71  72  72  72  71  72  73  71  71
 217 217 217 218 220 220 221 219 220 220 221 222 221 222 223 223 224 224 224 225 225 224 225 226 225 226 225 226 227 227 228 228 228 214 172 122 114 116 130 143 148 143 154 168 184 185 174 181 180 162 165 124  82  87  95 115 126 117  99  89  80  76  74  72  71  71  71  70  70  67  67  68  71  72  73  71  72  72  66  68  71  70  72  71  72  72  73  72  71  70  71  68
 217 215 216 219 220 220 221 220 220 220 221 222 222 222 223 222 224 224 223 225 225 226 226 227 226 226 225 226 228 229 228 228 227 199 152 123 120 117 126 123 123 117  96 120 138 151 165 163 185 170 160 109  99 114 121 135 138 122  98  90  80  74  72  71  71  69  70  69  66  66  68  71  73  74  71  73  71  68  68  66  72  73  71  72  70  71  70  70  71  69  69  68
 219 218 217 219 220 220 221 220 220 220 220 222 221 222 224 224 224 223 223 225 225 226 227 227 227 228 227 228 227 227 226 228 221 175 124 121 108 111  86  74  82  86  88  73  76  84  95  77  70 104 105  78 117 129 128 132 130 118 100  90  81  75  73  71  71  71  70  71  69  70  72  75  73  75  74  72  70  67  67  70  72  73  72  72  71  71  70  70  69  69  69  68
 217 220 220 221 221 221 219 220 221 222 220 223 224 223 222 223 225 225 225 225 225 226 227 228 227 227 227 226 224 222 231 217 173 121 101  84  81 105  87  72 100  84  49  75  73  46  53  54  55  63  69  54  65  92 109  91 109 116  95  85  78  75  72  71  72  71  71  72  71  72  74  76  76  75  74  71  68  66  67  69  71  73  70  71  70  69  71  70  69  68  69  69
 220 220 222 220 220 220 220 220 222 224 221 222 224 223 221 223 225 225 225 225 225 225 227 226 227 225 223 224 219 207 149 109 104 114  90  75 109  46  73  74  60  74  82  48  75  60  76  59  55  64  59  58  51  63  70  64  42  64  82  77  75  74  70  72  73  71  71  72  74  76  76  77  77  74  71  69  66  67  68  73  74  73  72  70  69  69  68  69  69  69  69  69
 218 220 222 222 221 221 220 221 222 223 224 224 224 224 223 222 225 224 225 223 225 226 225 226 226 224 222 211 142 100  80  73  67  97  73  59 126  93  74  67  68  78  56  60  50  58  43  36  55  38  45  50  48  55  48  43  61  45  51  75  82  73  71  72  72  71  71  74  77  76  78  80  74  70  68  64  63  68  71  75  73  73  70  69  69  68  68  68  69  68  68  69
 218 220 221 222 222 221 222 222 220 222 225 224 223 224 224 224 226 224 225 225 225 224 224 219 224 208 178 119 104  95 134  96  96  53  37  47  71  79  81  62  99  58  49  78  67  50  68  67  60  46  53  39  57  43  49  37  46  52  41  41  55  75  73  69  73  69  77  76  78  79  79  76  72  67  64  63  66  68  72  76  74  72  70  68  68  69  69  68  70  67  68  67
 219 220 221 222 220 223 222 223 223 223 224 224 224 223 224 224 225 225 225 225 225 225 224 221 181  92  87 126  84  64  69  68 109  82 103  57  73 121  75  85  69  95  52  54  53  42  63  40  51  59  57  46  38  52  54  33  59  44  57  35  48  53  60  66  80  79  79  79  78  77  74  70  67  64  64  64  68  71  73  77  73  71  70  70  71  70  69  69  70  69  68  66
 216 220 221 221 220 223 223 223 223 224 224 224 224 222 224 224 225 225 223 224 223 222 212 151  89 120 107  64 114  84  94  72  66  91  73  69  70  67  63  68  52  70  66  61  74  63  50  46  58  46  55  52  59  52  52  53  58  51  44  43  42  74  49  53  61  87  76  76  73  72  68  67  63  64  65  64  70  73  74  77  75  73  74  73  73  72  71  69  67  68  69  69
 218 220 222 222 222 224 222 223 223 222 222 224 225 224 224 223 224 226 224 224 199 150 110 101  65 109 118 127  87 102  88  82  86  81  57 113  82  51  59  93  79  73  67  52  47  58  46  47  40  58  55  46  60  56  63  34  35  38  44  40  57  59  57  59  52  70  65  67  64  62  65  64  63  64  67  69  71  72  74  75  74  74  75  74  74  74  72  72  68  68  68  68
 218 220 222 222 222 222 222 223 223 221 222 223 225 223 223 223 224 223 219 202 136  61 114 109  60  61  75 116  82  87  53  81  61  66  83  87  83  75  81  68  51  68  42  90  54  46  50  42  41  49  75  70  46  45  59  42  48  41  61  42  40  52  42  52  48  36  47  50  59  61  60  62  62  64  69  71  75  73  76  75  75  76  75  75  75  74  74  72  68  69  68  66
 220 222 222 221 222 223 224 223 222 222 224 224 225 225 227 222 224 229 195 134  51  88  74 102  60  59  62  68  90 127  74  91  99  69  64  66  74  72  72  64  69  86  60  60  46  45  73  50  53  68  74  62  63  59  65  61  60  55  57  34  36  30  36  44  29  44  40  45  49  57  57  59  59  65  70  73  74  78  78  79  78  77  76  76  74  74  72  72  70  69  67  67
 222 221 222 220 223 223 224 223 224 224 225 225 225 224 222 224 226 198 105  68  60  96  52  86 137  82  65  67  68  84  62  53  70  50  96  81  38  67  71  62  67  54  60  57  59  62  42  35  34  39  54  43  37  48  59  55  66  52  30  62  41  37  33  46  33  38  38  41  55  49  45  64  66  70  74  77  80  83  85  83  82  77  73  74  76  76  74  72  73  69  69  70
 222 223 221 223 223 222 222 224 223 224 225 225 225 225 226 221 223  88  44  81  64 104  64  59  89  63  84  80  93  94  68  49  52  58  69  53  97  87  64  67  55  64  57  48  49  53  40  41  53  65  52  38  46  74  42  47  58  34  39  41  36  34  43  43  33  32  39  29  34  35  37  51  60  69  74  83  88  88  85  78  75  68  64  64  67  68  69  73  72  78 101 146
 220 222 223 222 224 222 223 225 225 225 223 222 224 224 224 217 104  49  72  78  69  49  65  64  65  71  47  68  73 108  95  78  77  98 123  93  73  62  65  80  65  30  64  75  68  38  44  51  53  39  36  64  36  40  49  44  48  66  68  55  43  39  37  44  31  46  37  29  30  31  48  47  43  63  77  84  88  83  74  66  61  59  60  58  63  63  66  77 117 164 202 224
 223 224 224 223 221 221 223 224 225 225 226 224 224 218 220 171  61  44  63  43  89  65  89  65 109  79  86  82 100  67  84  84  56  73  78  63  67  66  66  67  85  57  58  60 107  77  61  61  55  59  49  42  50  60  48  29  45  39  30  42  55  49  24  37  34  36  28  29  32  28  34  44  52  42  58  79  81  70  63  61  60  60  63  65  73 104 147 185 210 227 235 238
 222 223 223 223 224 224 223 224 224 224 225 223 223 210 167  99  54  40  50  50  64  51  50  57  88  93  83 113  96 100  87  91 101 114  92  70  53  60  63  68  55  82  48  46  45  45  56  35  40  45  39  41  47  45  52  57  38  42  39  49  40  55  51  45  37  29  34  32  30  32  23  25  44  48  43  59  68  62  62  67  68  76 101 141 179 209 225 233 235 234 238 236
 220 223 223 223 222 225 225 224 223 225 223 222 225 204 102  63  37  40  33  43  47  58  53  84  81  84  97  72  82  78 108 120 109  91  86  99  78  50  70  68  59  48  51  41  52  61  50  52  50  34  51  40  61  58  50  52  42  47  50  60  51  39  46  36  37  30  39  32  31  31  33  29  41  35  40  50  57  63  75 107 143 175 203 222 231 236 238 237 238 237 237 236
 220 223 223 222 222 223 225 225 222 225 224 226 218 119  68  69  51  31  50  50  66  37  91 107 118 101  93  77  85  68 103 108  96 129 101  88  66  67  67  63  88  61  56  42  35  42  53  51  55  72  43  43  41  58  59  35  58  29  39  40  53  48  60  35  42  37  36  32  38  33  36  35  27  33  29  43  59 103 175 203 221 231 237 239 237 238 239 238 238 238 238 236
 221 221 223 223 223 225 224 224 224 224 223 220 217  64  52  48  46  36  70  70  72 108  87  85 104  95 128 117  98  95  78  93  86 123 100 121  74  81  66  87  46  44  35  66  40  36  39  44  36  54  56  56  40  43  55  49  58  58  32  34  41  62  32  52  36  38  31  32  30  37  28  36  30  31  29  35  44 123 211 231 237 236 237 237 238 238 237 237 237 237 237 237
 220 223 224 224 225 224 224 224 224 222 225 230 156  64  62  68 108  98 126 137 175 166 152 173 171 158 146 160 120 119 145 128 117 105  85  82  70  52  55  82  66  57  51  28  33  30  35  53  48  70  77  78 104  44  62  62  72  80  51  44  35  33  39  42  39  38  31  36  33  23  25  25  31  31  30  30  36  55 157 227 238 237 238 237 238 238 237 238 238 238 239 236
 223 224 224 224 223 224 224 224 224 224 219 212  55  60  32  86 136 132 181 196 201 210 200 193 191 182 190 175 165 154 158 153 170 154 142 143 146 130  97 105 103  95 101 113 113 114  94  76  78  59  77  86  71  92  82  83  56  74 101  95  78  61  50  48  34  39  44  44  40  40  35  35  29  31  34  29  32  37  65 138 228 237 238 236 238 238 237 236 238 238 237 221
 221 224 225 224 223 224 223 224 223 221 209 115  49  54  72 188 198 186 195 209 209 205 213 214 211 210 226 212 214 209 201 182 177 194 165 197 170 157 164 153 140 143 140 155 154 140 143 147 142 128 103  67 116 115  92  82  93 106 121 116  82  98  69  37  46  46  42  36  46  37  37  31  43  25  37  26  21  36  40  70 212 232 235 236 238 237 238 237 237 237 237 202
 225 223 223 224 224 223 224 224 224 224 211  55  64 134 183 192 190 196 204 207 197 200 205 197 209 209 205 206 216 211 216 190 219 207 195 194 199 177 172 169 163 157 160 157 153 156 151 146 151 146 149 137 115 112 114 105  89 101 106  97 123  87  58  53  65  77  40  39  50  45  55  31  30  32  36  30  31  25  45  44 141 212 233 236 238 238 238 238 237 238 231 187
 224 224 223 225 225 225 224 224 224 224 153  41  79 189 186 181 185 189 193 189 192 196 198 203 203 199 200 205 205 207 207 198 205 214 220 197 200 196 186 183 185 162 157 167 157 160 161 160 159 153 158 150 141 138 136 137 126 129 125 132 121 127 109  99  83  58  57  40  39  44  37  29  20  48  24  29  30  27  29  42  74 203 227 237 238 238 238 236 238 238 226 176
 224 224 224 225 225 225 222 223 227 213  74  44 162 183 183 186 185 185 184 184 193 187 194 191 195 194 202 203 197 200 197 201 195 196 195 205 188 187 180 173 180 173 170 166 158 160 162 164 158 159 156 157 146 141 137 131 134 133 131 131 128 128 124 116 110  92  66  58  48  35  40  28  29  26  24  24  25  27  30  35  46 172 224 235 237 238 238 238 238 238 226 172
 225 224 224 224 224 224 224 223 220 198  35  68 177 186 182 180 169 179 185 190 180 178 183 187 183 189 188 193 195 194 193 195 189 189 187 181 188 184 189 182 176 170 172 171 173 167 159 154 162 153 154 152 150 143 133 129 134 133 131 128 130 128 129 122 110 111  90  51  50  43  29  36  30  20  23  23  23  24  22  30  41  92 212 234 238 238 238 238 236 235 228 179
 223 224 224 222 223 222 223 225 225 152  34 142 176 181 171 174 174 174 175 177 174 175 177 184 177 184 185 197 187 178 180 187 188 184 180 184 180 181 181 179 176 173 174 176 175 167 170 151 153 153 150 150 148 140 137 131 130 131 127 128 129 136 129 123 123 114 109  92  90  50  59  37  40  25  26  27  22  23  27  30  28  58 186 228 236 238 238 237 238 236 233 201
 224 224 224 222 223 225 224 224 217  84  49 166 173 173 165 168 169 168 168 170 176 167 172 175 174 175 180 183 185 175 182 186 188 187 180 175 171 178 176 181 167 174 174 183 169 168 167 153 152 158 144 148 143 136 137 135 132 128 128 129 128 132 133 132 132 120 115 112  81  56  45  31  25  20  22  24  26  23  24  25  30  29 163 220 234 237 238 238 236 237 237 224
 224 224 224 224 224 224 223 218 216  52  97 170 162 167 171 159 153 161 162 163 160 168 160 169 171 168 172 173 177 175 185 180 181 180 187 174 188 181 175 178 179 175 172 172 172 174 164 164 160 150 153 148 145 140 138 133 132 130 127 127 125 129 130 131 129 124 113 111  78  55  59  35  19  21  18  19  19  24  21  25  30  40 113 212 230 238 238 239 238 239 239 235
 224 224 223 223 222 223 226 219 200  35 121 169 159 171 163 151 149 149 153 166 166 157 166 168 171 168 171 171 165 171 172 175 181 179 184 176 167 179 178 179 176 183 175 175 165 159 172 160 151 150 149 150 143 139 141 135 133 131 132 127 124 126 129 131 127 118 117  96  84  43  41  37  16  19  18  24  20  29  21  20  28  30  73 173 221 236 238 238 239 238 237 235
 224 223 224 225 226 222 224 221 156  40 138 169 160 159 152 152 146 154 144 141 160 165 173 162 154 163 159 159 162 170 168 171 171 177 175 169 161 170 177 178 180 176 175 167 172 173 163 160 156 152 144 143 142 142 141 137 134 130 130 130 123 124 128 128 127 125 119 101  85  54  37  27  15  23  22  17  22  21  21  21  24  26  38 126 218 237 238 238 238 238 237 237
 224 225 224 225 225 223 221 220 124  51 133 161 149 160 153 156 144 150 141 145 152 152 150 160 163 161 161 160 167 160 167 169 174 179 178 174 173 179 169 186 177 179 173 174 172 171 172 164 155 152 147 131 138 136 135 137 132 133 131 124 125 128 125 122 116 123 123  98  60  48  34  26  20  22  22  19  20  24  20  24  25  26  30 129 212 233 238 238 238 238 238 239
 224 225 223 224 224 223 220 229  49  78 127 153 142 166 160 155 150 146 147 147 155 162 172 175 160 163 165 160 161 161 163 171 171 181 176 176 184 151 182 179 176 179 183 176 175 171 168 174 149 164 143 144 144 139 138 134 131 132 126 126 127 127 126 126 115 121 103  94  49  46  33  29  20  22  22  17  18  18  23  23  23  22  28  82 197 229 236 238 238 238 238 238
 225 225 225 225 225 224 223 219  42  65 143 150 154 164 156 166 163 162 159 173 179 188 185 190 192 182 186 173 159 165 174 168 169 180 175 181 178 176 183 168 174 175 171 166 179 173 173 171 162 163 146 141 139 144 141 136 130 130 127 130 124 125 124 125 119 106  91  64  54  62  33  34  21  20  24  21  21  20  20  22  24  23  24  39 189 220 238 238 238 238 239 238
 223 225 224 225 223 225 222 221  35  84 143 153 155 156 162 156 159 173 165 177 183 188 198 197 193 188 189 182 173 173 156 158 161 166 163 164 172 168 166 168 166 176 171 179 171 173 166 164 160 156 156 147 148 140 138 133 132 127 122 127 123 121 124 121 104  88  77  68  40  47  38  30  29  21  24  23  20  22  20  22  22  22  22  37 181 213 233 239 238 238 239 237
 224 225 225 225 225 224 224 214  31 104 145 159 154 167 167 165 171 167 181 183 188 192 195 199 197 199 192 180 186 184 173 170 182 175 168 178 171 169 171 174 183 182 178 181 171 172 165 160 159 153 152 151 152 145 137 128 126 127 121 123 121 119 117 115 108  74  78  46  44  43  34  33  29  27  24  24  24  26  21  20  23  22  25  22 148 211 230 238 239 238 239 238
 224 226 227 225 223 225 223 168  41 113 147 154 151 156 160 174 172 180 177 186 186 199 199 192 195 196 191 192 186 184 183 182 182 178 182 175 169 181 173 186 196 196 195 188 187 181 170 166 160 149 155 146 138 141 134 126 124 124 120 119 122 120 112 112 100  72  73  45  57  50  27  38  32  31  25  22  25  28  26  17  18  19  26  26 169 204 226 237 238 237 239 239
 225 226 226 224 224 222 220 126  65 140 146 155 162 164 166 166 171 175 184 177 184 192 189 188 193 189 185 194 193 189 187 188 190 183 185 176 176 192 202 196 198 199 197 194 189 185 184 167 168 165 159 149 149 145 135 131 125 121 123 120 124 122 113 108  98  88  66  51  52  47  40  33  26  32  27  29  22  28  25  26  21  22  30  29 154 203 223 236 239 237 238 237
 225 223 226 225 224 224 223  88  82 143 146 156 121 167 170 174 173 168 178 175 179 191 191 191 192 195 196 192 191 186 189 186 196 192 193 192 190 198 204 205 198 194 196 195 186 185 181 172 165 166 161 159 147 145 136 133 131 116 118 119 123 123 119 112  95  88  71  53  38  53  35  35  31  27  31  27  26  28  23  24  28  20  23  31 147 197 223 236 237 238 238 238
 225 223 225 224 225 224 222  45 115 151 148 147 164 170 181 179 183 181 176 179 184 185 182 185 181 179 187 193 185 188 190 196 193 185 181 192 204 195 199 197 195 192 193 191 190 179 173 171 166 164 160 154 151 145 140 135 130 127 125 124 116 122 120 110  94  76  72  56  53  47  36  35  34  28  28  30  24  25  22  27  23  21  23  28 128 197 221 236 237 237 238 237
 225 224 223 224 224 222 210  44 119 133 146 159 175 189 187 197 191 187 185 176 174 171 186 178 185 178 181 184 186 184 185 189 184 179 191 193 188 198 196 194 190 188 185 189 185 177 176 179 172 162 157 156 155 151 143 139 132 128 120 126 126 123 119 112 109  87  53  64  44  42  39  26  30  25  29  28  25  22  25  26  25  25  24  29 106 193 217 237 236 238 238 238
 223 223 222 224 225 223 190  51 106 124 153 167 185 186 196 196 193 192 187 181 175 177 169 173 178 180 185 186 179 181 182 180 183 181 183 177 179 183 193 192 184 179 189 191 189 179 190 186 180 175 179 176 169 161 153 145 138 132 125 124 122 122 119 113  99  80  73  43  45  37  31  27  30  20  29  22  23  22  23  25  24  24  25  27 101 191 219 233 236 237 237 238
 225 225 225 225 224 220 175  57 109 128 158 178 177 155 170 174 172 181 165 176 173 174 158 177 170 179 169 182 177 182 181 183 186 185 177 185 190 185 189 183 187 179 181 187 172 185 187 189 186 180 183 178 170 165 161 152 142 138 133 122 124 118 114 112 115 112  85  66  36  39  29  29  30  25  37  22  26  26  23  26  26  25  24  25 103 194 218 235 238 238 237 237
 225 225 224 224 224 222 180  61 120 142 157 121 111 115 110 111 114 115 120 130 129 132 140 161 156 164 164 172 174 172 175 185 184 175 171 171 176 168 160 181 160 159 178 182 182 185 181 177 182 181 175 163 155 141 139 157 149 143 139 128 122 122 114 109 102 103 101  78  48  51  31  29  31  31  27  26  26  22  24  25  26  24  23  27  96 183 214 234 238 237 238 237
 224 223 224 223 222 217 168  84 131 150 118 101  76  77  72  76  70  66  68  69  65 107  91 110 106 154 145 159 166 171 175 181 187 182 160 165 173 163 144 120 134 142 114 119 124 120 120 128 113 127 137 111 101 105  90  98 136 148 144 138 124 120 113 108 105 110 100  90  69  36  31  34  33  31  23  34  22  23  27  27  26  27  30  27  86 190 209 232 237 236 238 238
 225 222 223 224 224 201 143  95 124  86  51  52  36  44  57  41  46  54  47  63  49  85  69 118 130 130 138 154 158 167 169 173 181 180 168 155 147 143 140 105 124 110 124 108 107  68  75  83  88  86  56  55  55  46  51  54  90 122 130 138 131 124 115 109 112 112 105 100  83  45  45  34  39  29  35  36  21  20  24  29  26  30  27  29  98 189 211 232 237 237 236 238
 226 225 226 224 220 175 109 113 119  67  41  53  48  82  96  97 100  99  72  59  66  60  97  94 113 107 110 143 149 160 162 170 181 175 166 144 126 122 156  94 123 119  53  84 106  68  58  50  39  72  62  52  68  86  85  54  73  82  95 116 126 126 118 117 114 112 109 101  90  71  70  41  34  26  43  29  27  30  24  28  20  22  26  29 121 185 209 232 237 236 238 236
 225 225 225 224 207 148  88 128  86  68  57  67  88  98 106 114 114 121 121 115  86  95 109 115 117 122 129 130 144 150 152 168 178 177 176 149 141 130 134 116 117 108  92 102  67  62  80  87 123 114 129 120 126 127 103  91  55  59  47  55 102 123 124 109 107 101 105 109 105  91  82  53  39  36  30  23  26  29  20  23  21  22  22  34 125 190 206 230 237 236 234 235
 223 225 223 222 188 117  79 125  59  52  76  91  98  99 104 108 119 127 129 132 125 117 107 104 117 119 117 120 131 137 147 162 172 178 172 156 141 131 132 129 125 125 116 113 109 124 129 131 141 142 138 128 122 120 119 116 101  77  62  53  46 105 124 125 113 110 109 111 109 107  96  58  40  34  29  27  22  20  22  20  24  24  24  33 153 191 207 227 235 236 234 234
 224 223 224 218 160  94  79 117  76  66  84  86  91  94 103 113 120 122 129 133 140 144 136 126 112 110 111 112 125 134 147 158 173 167 170 163 156 143 140 128 120 119 117 117 118 121 130 141 148 146 143 132 126 114 114 114 118 106  97  88  83  69  98 125 117 116 114 114 109 107  91  64  39  43  33  27  28  22  21  22  28  30  22  35 157 192 208 229 235 234 235 234
 224 223 223 210 137  85  80 108  78  77  81  85  85  96  90  80  89  93  94  87  86  88 123 134 139 119 108 110 117 136 152 156 170 174 173 165 158 144 135 135 127 124 120 117 114 104  88  88  95  95 102 109 121 114 110 109 111 106 107 103 105 100 113 110 120 116 109 113 102 109 101  74  54  37  33  27  30  27  30  24  24  28  28  45 174 188 212 231 235 236 235 233
 223 224 222 195 108  76  79 101  78  78  78  80  83  66  81  89  95  72  54  56  88 113  79  90 124 134 120 106 122 134 153 162 166 183 171 165 153 145 136 128 125 118 110  70  67  82  90  99 116 123 122 109  87  71  92  98 100 102 103 109 110 102 109 119 123 118 117 117 109 109 106  78  55  34  28  38  35  24  29  23  26  30  27  55 176 193 214 232 234 235 235 232
 221 224 218 166  78  75  87 100  83  80  78  78  50  66  58  26  23  14  19  32  25  13  59  84  75 125 140 109 114 134 154 160 166 166 160 153 145 137 143 134 123 114  62  78  75  52  34  16  13  31  47  80  90  96  77  67 100  96  96 104 107 110 113 120 122 121 120 113 118 110 106  71  43  35  34  38  26  23  20  20  29  26  26  93 174 198 220 231 234 233 234 235
 223 224 206 131  61  76  91 102  85  81  74  61  53  31  26  70  94  25  20  49  14  49 117 110  58 105 126 111 109 129 144 161 162 154 147 144 138 136 154 139 126  65  67  51  71 123  74  22  14  63  18  14  22  66  80  85  71  95  94 100 108 112 115 115 117 118 123 118 117 112 102  75  42  34  31  35  18  27  25  25  25  23  29 138 190 199 221 230 233 232 234 233
 222 221 184  86  65  74  91 104  90  82  72  53  23  23  40 110 135  30  22  23  40  51  88 124  62  73 120 111 113 131 203 224 168 144 139 133 135 128 135 144  94  42  64  62  71 151 106  40  17  16  17  27  52  16  27  66  78  88  94  99 105 110 113 110 119 118 121 121 116 112 103  72  54  40  32  26  23  33  31  22  25  32  34 145 188 202 222 232 233 234 236 236
 225 218 162  56  72  73  94  99  92  84  74  46  43  59  64  83  87  82 100 115 143 152 126 116 118  95 109  94 177 226 249 241 225 190 139 131 128 127 125 135  83 111 104  98 104  94 100  90  68  78  68  81  75  52  32  32  60  80  98 102 106 105 110 112 115 116 121 118 118 110 105  75  66  35  32  26  31  33  33  25  26  25  48 179 189 205 226 232 234 235 234 235
 225 210 139  45  78  69 122  95  97  88  80  69  69  73  81  75  78  85 102 100 110 121 122 111 110  98 102 181 218 238 249 235 208 201 171 139 126 129 134 127  94 112  92  96  99 107  95 110  93 125  94 100  86  92  83  75  73  78  83  98 106 107 112 115 116 119 120 120 117 110 103  83  57  35  26  23  31  31  27  24  26  30  68 187 192 209 229 232 234 234 234 233
 224 202 116  46  76  60 109  95  99  92  89  81  80  81  89  99 100 104  95  92  92  90 116 112 106 106 142 212 231 246 251 223 204 192 180 151 134 133 139 134 127 113 108  93  91  97 118 101 108 110 115 112 106 109 103  96  93  93  98 106 111 113 112 115 120 122 121 118 118 110 103  90  59  37  26  24  31  29  27  21  23  34  81 187 193 214 230 233 234 233 234 234
 219 185  89  53  74  55  80  92  97  96  96  87  86  91  88  88  88  99  91  94 115 115 119 113 111 120 198 209 235 249 243 215 196 181 174 163 147 140 139 139 135 132 126 122 110 104 109  89 105  99  98  99 101 103 100 105 103 107 108 112 114 113 117 116 123 124 120 122 115 110 104  75  53  34  24  26  30  33  48  67 110 109 111 110 125 202 230 234 233 233 234 233
 217 170  63  64  71  45  60  95  97  99  98  94 100 109 112 114 116 116 122 119 133 124 122 117 111 177 190 216 241 253 225 203 180 170 158 158 158 151 150 142 140 138 145 141 133 129 129 129 130 126 132 133 120 116 117 116 115 111 110 111 118 117 116 118 122 121 120 123 115 110  96  64  55  30  28  31  58 103 131 136 132 134 130 125 125 122 183 234 234 231 234 234
 212 145  46  74  72  41  58  89 107 103 102 104 110 114 123 126 115 124 127 132 130 127 113 112 148 180 189 212 246 252 224 202 180 164 143 146 154 167 163 161 145 146 143 148 140 139 129 140 139 147 157 145 135 135 130 125 120 113 121 115 122 121 118 122 120 121 119 118 118 109 104  60  58  37  32  54 119 140 151 151 150 143 120 105 121 130 121 223 231 233 234 235
 203 122  40  72  67  41  45  91 126 109 108 110 113 119 122 126 122 123 127 135 132 120 112 134 157 166 191 209 245 249 218 197 178 155 116 136 154 168 160 163 156 154 149 153 151 151 144 137 142 145 150 135 146 144 136 129 128 126 118 126 122 122 120 119 120 119 121 119 116 110  95  86  47  27  35 103 133 151 156 150 129  99 110 105  92 113 123 194 230 230 234 233
 191  95  39  67  59  33  37 102 132 122 113 119 121 126 125 131 130 136 139 135 122 125 126 138 132 167 187 216 239 234 209 199 186 166 120 130 148 164 170 179 175 174 162 157 156 153 152 147 138 134 139 140 141 132 131 135 135 134 133 126 127 125 121 120 120 118 117 115 115 107  93  82  46  33  70 116 131 148 153 118 117 132 131 125 115  95 114 175 218 229 234 233
 171  69  39  62  52  36  37 112 133 125 119 127 127 134 130 133 134 143 131 133 126 127 141 118 139 177 188 213 220 214 203 192 186 178 173 111 129 146 168 177 181 185 175 169 158 161 160 155 152 150 139 141 138 144 142 140 143 141 137 135 128 126 124 124 121 119 117 120 111 109 100  73  47  35  96 116 122 139 124 124 143 141 132 130 132 123 121 166 200 223 232 233
 147  47  45  66  54  36  34 116 129 129 125 126 133 132 129 137 136 139 136 134 138 137 131 120 202 181 194 200 194 193 183 181 180 175 201 196 128 122 127 156 161 176 174 180 171 166 167 156 159 152 149 149 144 143 139 148 147 137 139 141 134 129 125 125 119 114 119 120 112 107  98  74  55  47  89 107 126 107 143 153 147 140 132 130 146 144 137 170 188 212 230 233
 119  40  54  73  52  36  39 123 117 121 125 126 130 136 135 133 141 142 142 145 143 139 162 203 189 170 166 180 183 214 175 164 156 159 179 191 182 191 108 110 135 159 171 183 181 174 171 169 163 160 156 149 151 153 150 149 148 143 147 144 138 137 130 124 119 113 116 115 115 107  96  63  51  59  85 103 112 114 109 164 159 145 131 127 144 147 139 175 188 208 231 233
  88  38  66  77  47  31  37 118 112 115 122 123 127 132 133 138 142 150 150 154 150 203 185 174 148 124 142 161 178 173 161 156 140 151 162 160 169 189 192 140 121 133 153 163 182 178 171 177 166 166 156 156 149 153 155 157 149 148 145 141 143 136 131 122 112 114 115 116 111 101  93  71  56  66 114 134 112 156 133 158 167 154 133 123 149 155 133 183 189 210 231 234
  62  36  75  79  41  34  32 116 109 114 120 127 133 134 136 147 141 152 153 160 185 173 149 140 126 113 128 143 154 160 151 142 139 145 150 154 156 159 167 170 117 132 139 153 171 182 182 175 177 170 168 161 160 160 156 158 151 150 144 142 141 141 133 125 116 115 113 115 112 105  96  79  63  86 123 157 132 171 148 160 176 169 138 117 146 159 124 187 187 212 231 233
  48  37  77  75  34  31  36 111 105 116 122 128 132 131 138 146 150 157 163 153 138 131 117 113 105 109 121 140 145 142 139 140 126 116 112 131 139 149 146 137 141 142 142 146 162 165 181 184 184 180 166 168 160 156 156 156 146 144 137 140 140 139 133 124 113 111 113 109 111  97  89  76  45  83 143 157 133 191 157 164 178 180 142 116 148 151 159 186 188 214 231 233
  42  37  74  63  32  33  33 105 101 111 116 124 127 129 134 147 147 155 161 126 117  94  46  14  15  54  98 125 128 132 129 114  46  18  19  14  33 103 126 126 130 125 151 149 154 163 175 177 179 181 169 169 167 157 157 157 153 148 145 140 138 133 130 122 120 111 105 108 107 106  99  82  58  90 154 145 139 182 171 171 178 190 141 115 146 138 185 186 187 216 231 233
  40  47  73  54  33  34  35  96  98 106 112 121 129 126 137 140 147 154 166 111 114 107  88  73  32  15  21 103 104 103 108  58  75  80  30  28  34  64  80 114 114 134 155 151 150 156 172 170 187 182 172 168 163 155 154 160 156 150 142 137 135 133 131 123 116 111 106 106 108 106  95  70  76  89 153 122 179 189 177 176 176 185 136 127 148 160 184 185 196 220 231 232
  37  64  74  47  32  32  34  93  96 101 113 112 126 125 136 144 152 157 161 120 108 138 144 141  92  89  87  73  86  89  90  87 107 124 128 135 120 119 108 108 103 145 161 159 145 150 162 171 173 181 179 167 164 160 157 155 149 147 138 137 133 133 130 121 117 108 104 106 105 112  99 102  82 102 124 168 197 188 179 174 178 175 126 133 129 183 183 185 203 226 233 233
  35  72  71  37  33  34  34  93  98 100 105 110 124 125 141 137 147 133 147 132 104 104 132 142 131 113 118 104  91  93 114 116 133 149 149 119 115 113 106  83 125 152 162 164 150 148 148 164 170 170 169 162 157 155 150 150 148 141 140 135 133 128 125 122 112 107 103 109 108 113 103  89  69 108 119 171 176 176 167 163 162 151 117 143 153 183 181 189 213 230 233 234
  41  81  73  35  33  34  34  91  94 100 102 108 116 121 134 146 147 155 146 140 133 109  75  78  72  92 120 124 125 124 138 143 145 140 129 118 129 126 123 132 143 154 159 165 160 146 146 156 161 167 159 163 149 154 148 144 141 138 132 132 130 124 127 119 110 103 101 106 108 106  97 111  61 107 110 130 157 138 131 142 147 133 121 131 183 185 187 201 223 232 232 232
  49  82  64  33  32  34  33  90  95 102 103 105 108 125 134 137 144 146 146 139 134 129 121 111 110  84 101 121 134 147 150 151 143 126 152 128 122 114 111 139 139 156 159 161 158 154 146 159 160 163 155 155 151 147 146 143 134 133 130 122 131 126 124 114 110 102  96 105  99 104 100  96  54 106 143 154 161 161 121 148 141 110 136 147 186 185 187 213 229 231 231 231
  62  81  54  34  32  34  40  94  94 100  99 103 107 118 128 137 144 145 143 142 136 124 106  72 104  66  78 108 111 134 144 142 145 129 122 128  38 131 111 117 124 149 147 164 169 148 147 156 160 152 150 150 152 147 140 136 132 130 126 128 127 129 126 116 105 100  96 103 106 109 106  88  69 115 138 158 161 163 135 126 112 130 125 185 185 185 197 224 231 231 232 231
  71  76  43  33  33  34  50  88  96 100  96 102 102 115 125 133 143 140 145 112 108  84  78  53  71  73  81  90 114 129 149 145 138 119 126 105  78 101 106 118 104 107 128 147 148 151 134 149 157 153 147 145 142 142 134 133 130 124 122 126 128 129 122 115 104 101  98 104 103 106  96  86  77 125 138 149 171 167 154 126 139 128 166 185 186 188 210 229 231 232 232 230
  79  71  35  33  32  33  76  86  92  96  92  96 108 111 126 129 118 135 116 110  75  89  84  47  80  94  91 120  91 139 145 148 120 118 131 101  99  66 115  76  95 100  72 115 135 129 148 151 152 151 137 137 136 138 131 126 126 120 124 126 126 126 121 108 104  99  97  89 107 105 103  85  95 134 141 146 155 164 153 131 134 142 185 185 186 198 222 230 231 231 232 234
  75  60  32  33  34  34  72  88  92  94  92  92 104 108 110 124 102 110  99  84  77  84  74  74  62  86  95  83 113 145 149 130 142 129 116 132 129 111 115 122  86  76  84  74  89 135 148 156 147 143 138 132 131 128 128 119 122 123 120 125 127 123 117 107  99 104  97 105  97  98  90  89  99 126 129 146 142 152 150 131 128 185 184 184 191 211 229 231 232 232 233 233
  82  46  34  34  34  34  54  68  86  95  90  90  99 110 110 101 102  91  66  72  87  60  90  93  73  90 100 134 153 156 153 145 159 144 127 149 140 125 117 102 100  98  72  69  55  86  98 130 113 143 129 131 128 125 124 119 112 121 124 122 124 121 113 105 102  99  99  99 100 104  96  81 105  93 108 120 128 133 128 141 187 184 185 184 199 222 232 232 231 233 233 233
  90  46  35  35  34  36  41  52  89  89  93  90  97  99  94  84  91  81  65  54  75  96 101 109 117 129 140 139 144 157 134 137 151 147 151 154 149 149 119 125 108 119  70  57  66  53 104  99 134 142 139 130 130 119 118 116 119 120 121 127 125 120 111  94 100 104  92 102  95 106  93  73  88  80  81  85 131 127 148 160 171 182 186 192 213 229 230 231 232 231 233 233
  85  44  33  35  31  35  56  57  88  93  91  90  84  76  67  69  65  38  50  91  75 103 116 116 128 132 126 114 108 124 141 131 131 109 125 123 138 145 148 144 129 122  62  91  60  56 111  86 120 122 116 132 128 128 113 113 126 124 129 125 123 115 113  90 104 104 109 103 103 101  97  91  88  87  87 105 135 137 139 138 150 169 187 206 224 230 229 231 232 231 231 232
  65  33  33  33  33  39  85  67  88  92  85  92  79  62  65  76  65  53  57  72 100 111 112  96  79  84  88  98  94  87  95 100 100  93  98  92  87  81 107 125 119 129  90  92  65  81  55  63  81 104 119 122 123 126 116 117 124 127 127 125 120 118 106  90 105 110 105 103 102  95  68  81  82  93  92 112 136 138 139 139 141 162 199 220 229 229 232 232 231 230 230 232
  46  32  34  35  32  70 117  83  88  86  86  94  84  58  65  84  63  79  79  75  88  76  65  72  78  87  95  97  95  95  86 100  89  95  91  85  77  74  74  69  73  90  97  79  76  63  83  69  71 102 101 115 123 120 113 120 130 131 130 122 120 118 105 101 104 101 104 105 101  70  55  64  73  96  96 126 138 143 150 151 154 182 215 228 229 230 231 231 230 231 232 231
  36  34  35  35  50 128 152  96  83  87  87  90  78  61  82  75  77  69  66  37  30  35  43  48  48  51  65  70  76  74  68  72  71  67  67  64  68  60  52  49  41  38  41  79  85  86  80  79  52  89 133 123 127 124 118 119 127 127 128 127 120 116 101 107 108 104  95  98  93  86  76  68  89  91  98 131 141 156 184 188 191 208 225 229 231 230 231 232 230 231 231 232
  36  32  34  37 109 172 184 139  96  89  84  87  78  72  64  89  84  89  97  76  69  73  82  88  86 104 102 107 108 123 112 120 112 121 116  96  81  88  80  71  74  90 118 119 116  97  97  87  75 116 138 132 127 127 117 125 119 114 128 129 117  98 107 105 105 100 103  96  92  98  83  85  85  95  99 135 139 168 200 208 209 217 227 230 229 228 232 230 232 232 232 231
  38  46  51  99 162 191 197 181 119  82  86  82  74  66  64  89  90  93 102  97  85  80  81  87  92 108 114 124 134 123 115 125 119 118 113  92  95  94  89  96 113 124 132 123 134 115 121  67  81 142 139 131 120 123 118 115 107 126 126 121 118 104 103 108 100 103 105  99  98  73  63  97  98  98 100 133 140 177 207 212 213 217 230 231 231 230 231 230 231 230 232 231
  71 120 144 167 190 199 198 199 150  87  73  82  88  83  94  96 101 120 103 104 102 102  92  85  89  92 105 114 125 121 116 113 110 117 102 101  96 115 137 126 128 128 137 137 138 146 133 105 124 132 138 132 113 120 122 108 127 120 120 116 111 105 109 105  97 105  97  90  90  61  61  87  88  97 100 133 142 183 207 211 211 220 229 231 231 230 230 232 230 231 230 231
  82 155 190 195 197 199 198 198 188  78  76  69  88  97  95 115 114 111 105 103 110 117 127 113 100  95  97  98 106 109 102 101 118 124 117 139 149 140 140 134 131 130 135 135 143 152 145 138 132 127 134 120 119 115 111 118 120 120 117 115 107 108 105 106 104 106  90  90  64  55  71  68  92 100 103 134 143 186 210 212 213 223 229 231 231 231 230 232 232 230 230 231
  50 128 184 196 197 199 197 199 193 104  71  79  87  93  81 106 116 114 108  98 117 119 123 124 119 120 116 115 118 122 130 125 131 135 129 134 147 135 138 110 131 101 130 144 154 146 144 142 111 135 124 124  79 108 115 117 102 120 113 108 105 104 112 105 102  90  78  69  64  74  77  95  96  98 103 134 147 190 209 210 217 226 231 230 232 230 230 232 232 231 230 232
  38  78 155 194 197 198 199 197 183 148  81  68  69  94  93 106 105 111 105 109 110 114 119 124 126 121 115 104 107 116 118 125 134 141 131 140 127 122 126 130 121 127 134 133 149 145 142 128 129 130 106 114  88 104 111 103 116 107 108 105 102 105 105  97  92  95  73  58  61  63  72  83  99  97 104 132 147 191 207 210 220 229 232 232 232 230 230 232 232 232 233 233
  40  50 134 189 196 199 198 199 197 143  76  70  77  86  95 101  99 107 114 110 109 106 112 102  92  88  83  79  97  83  96  87  98  96 103 122 122 110 131 123 127 137 136 132 144 138 137 135 121 114 108 110  98 108 102 113 111 112 103 102 103 106  99  95  82  81  71  67  64  65  90  92 100 100 104 132 147 189 206 215 225 229 232 231 230 230 232 231 231 230 233 231
  37  46 122 184 198 198 197 199 194 132  85  63  66  88  89  95  94 105 108 111 111 116 108 102  80  99 112  70  76  81  88 102  96 110 122 140 125 108 143 141 139 136 124 139 144 135 129 126 121 111 104 109  95 107 110 102 106  99  99  98  98  98  91  92  70  76  66  79  62  80  94  97 100 101 106 133 150 192 209 218 227 230 232 231 230 231 231 231 231 230 229 231
  39  50 128 186 199 198 196 198 185 127  65  65  69  76  80  87  93 102 107 111 115 121 121 123 123 126 114  82  96  75  98 119 125 139 139 143 147 151 151 142 141 135 137 139 135 116 125 114 119 113 104 105 104 107 111 104 103 102 104  97  98  84  87  65  74  61  63  71  86  75  92  99  99 102 106 133 154 196 210 222 229 231 231 231 233 230 229 231 231 230 229 230
  62  60 146 193 198 197 197 197 175 110  61  74  63  71  63  73  95  97 107 109 117 120 121 126 122 127 129 119  87 111 110 120 139 139 146 149 147 145 144 144 143 131 126 121 123 128 115 126 114 117 115  94 108 103 102 104 102  99  90  90  84  75  59  83  71  63  46  79  88  85  93 104  98 101 108 131 152 197 217 227 231 231 231 231 232 231 231 229 229 229 231 230
 125 107 161 196 199 198 197 197 161  87  58  49  64  62  67  68  84  98 102 109 117 122 127 125 128 130 128 134 115 121 112 138 153 147 149 153 158 141 142 139 132 124 123 120 114  91 121 119 118 119  99 100 106 100  98 100  98  95  93  96  90  61  51  78  61  68  80  89  76  95  93 104  99 100 107 133 155 200 221 229 230 229 232 233 231 231 229 230 230 230 231 231
 188 171 182 198 200 199 198 198 147  68  64  42  58  65  67  67  86  95 102 108 120 122 123 129 129 137 130 137 127 119 131 139 136 155 156 156 147 153 142 123 118 119 130  85 106 120  94 111 109  88  81 105  96  86  95  92  93  88  88  82  82  75  72  71  69  63  83  72  90  96  99  98 103 103 109 135 155 203 224 229 230 229 231 231 230 230 231 229 230 230 231 231
 206 196 195 196 200 199 198 193 137  58  65  47  40  65  57  75  88  94  97 109  99 125 126 127 134 141 124 139 128 119 148 146 143 146 136 143 152 148 147 122  94 102 114 134  84 106  91 106 100 107  95  90  81  80  88  82  88  85  76  80  71  62  59  63  65  86  85  96  79  96 102 104 108 105 107 132 158 210 228 230 231 230 229 230 229 231 231 228 230 229 229 231
 204 200 196 198 198 197 197 190 125  49  66  51  28  40  46  55  68  77  81  79 112 115 116 111 122 133 129 117 121 114 128 132 138 127 107 148 134 101 132 101  97 123  99  87  95  88  95  84  83  84  85  89  80  59  80  71  72  77  75  72  69  63  57  64  81  96 101  97  83  95 102 110 107 104 104 137 169 217 228 231 230 230 229 232 230 231 231 231 230 229 230 230
 206 199 196 198 198 196 197 187 113  44  69  51  30  31  29  39  59  56  84  94  96  98 113 117 121 119 106 109  75  87 126 124 116 101 113 123 129 122 104 130 107  84  73  68  89  45  73  75  63  68  71  72  76  67  67  59  84  76  59  61  54  55  74  83  89  94  87  77  87 104 105 108 106 103 105 146 181 218 229 230 229 229 229 231 229 231 230 232 231 231 231 229
 207 199 197 198 198 195 195 178 101  43  69  54  31  25  24  25  40  50  64  95  98  84 117  87  98 108 106  89 113 102  93  83 104  86  81 124  87 121 106 109 110  79  51  84  81  37  60  72  48  51  54  53  61  65  77  72  72  59  66  58  52  71  75  60  86  89  91 104 102 100 103 111 104 101 100 158 187 217 230 230 228 230 230 230 230 230 231 230 229 229 230 231
 207 199 197 197 198 196 194 171  89  42  69  55  33  30  25  24  36  51  63  64  60  91  90  98 107 104 109 118  77 100  76  84 117  80 118 114  72 109 105  78  79  97  34  64  39  39  45  49  37  29  53  79  61  54  68  63  60  68  58  69  71  64  78  96 101 101  96 103 103  94 109 107 104 101 103 174 190 218 229 230 230 230 230 230 230 229 231 231 232 230 230 230
 205 200 197 198 198 196 194 167  81  41  68  55  32  30  24  18  32  50  55  39  46  74  91 100 104  97  95  93 106  84  98  63 103  76 105  91  75 107  70  86  65  82  72  53  37  31  47  39  24  40  58  53  55  48  58  54  67  59  62  67  85  90  85 104 105  81 103 100 106 107 107 109 103  98 105 180 191 217 228 229 229 230 228 230 230 230 230 230 229 229 230 229
 205 200 198 197 197 196 193 169  83  40  66  54  33  33  25  24  20  25  44  45  55  58  82  85 103  78  78  64  61  78  69  90  79  86 101  84  80  86  78  59  65  56  38  23  43  43  42  38  27  78  44  62  60  47  57  65  52  70  73  72  83  87  97 104  93  99  94 110  99 101 105 107 102 102 101 177 190 217 228 229 229 229 227 228 230 230 230 230 229 229 231 229
 205 199 197 196 195 194 190 171  89  37  67  55  33  33  29  23  24  31  30  43  54  50  64  61  92  69  41  63  64  44  81  66  76  61  87  69  65  70  78  66  57  53  32  21  34  25  38  29  45  43  36  58  51  56  65  52  66  67  68  85  96  92  77 111 101 103 102 102  94 104 105 103 104 101  97 176 189 217 227 227 228 229 228 230 230 229 230 229 227 228 230 230
 205 199 195 197 196 194 193 175  95  37  70  60  32  32  30  29  20  22  21  22  65  53  71  45  74  52  65  57  64  63  66  53  54  40  61  37  44  53  41  42  23  32  27  32  26  36  32  34  44  60  52  65  67  65  55  71  75  59  66  81  87  91  71  99 104  95  93 109 106 103 102 107 105  99  92 154 179 196 210 217 219 230 225 231 226 230 226 229 229 230 230 230
 206 199 196 196 195 195 194 177  98  37  69  62  34  33  33  31  30  23  23  17  36  32  53  45  43  54  31  55  36  62  29  35  50  71  67  42  30  32  29  22  25  24  21  32  47  53  40  36  65  72  71  63  68  67  73  76  78  77  84  75  86  87 100  90 110  97 102 104 117 106 102 106 105  97  94  82  23  22  21  23  26  33  38  93 178 228 228 231 229 230 230 230
 206 197 195 196 196 195 194 180 105  35  69  62  34  32  33  31  34  21  22  22  23  25  25  28  43  33  41  41  23  25  34  22  45  18  30  23  21  28  20  22  21  20  36  40  44  21  40  46  69  60  60  61  69  68  72  72  80  76  70  90 100  89  84 107 110 109 106 100 107 106 104 107  98  98  90  82  56  26  26  29  28  26  29  30  36  99 227 230 230 230 229 230
 204 197 193 194 195 194 194 184 113  37  68  62  33  33  31  31  32  25  20  19  18  19  15  15  18  17  29  26  24  21  22  24  18  21  19  17  20  27  28  21  28  32  51  48  29  64  54  75  70  68  55  78  73  76  76  81  80  88  87  79  85  93  96  96  90 105  92 112 102 109 105 106  97  96  89  76  78  41  29  28  29  26  26  27  33  39 128 234 232 230 231 231
 205 198 193 193 193 194 193 188 117  38  68  63  33  32  34  33  31  28  22  18  20  31  24  22  16  24  15  22  23  25  21  18  25  23  22  20  36  36  31  31  49  45  50  62  73  62  41  65  56  68  73  65  67  67  63  81  77  78  90  94  87  90  98  91 101 108  91 114 101 109 106 104 101  97  84  70  76  78  39  28  26  29  25  27  33  35  39 208 230 228 230 228
