P2
# Generated by OpenCV 4.2.0
92 112
255
 218 218 218 218 217 216 219 220 220 221 221 218 219 220 219 221 220 220 220 219 218 219 219 220 219 218 218 219 219 218 219 220 220 221 219 218 218 218 218 218 220 218 217 219 220 218 217 216 218 217 216 216 217 217 217 216 217 216 217 217 217 215 214 215 215 214 214 213 212 213 215 213 214 211 211 212 214 213 213 212 212 211 211 211 209 208 210 210 208 207 206 206
 219 219 219 218 218 218 220 221 221 220 219 218 218 221 220 221 220 220 220 221 221 221 221 221 220 220 218 219 219 219 220 221 220 220 219 218 219 218 217 215 217 222 220 220 220 219 217 216 218 217 217 217 219 217 216 216 217 218 216 216 218 217 214 214 215 214 214 214 213 213 214 214 215 213 212 210 213 212 211 212 211 212 210 211 210 209 210 211 209 207 207 208
 220 220 220 220 220 220 220 221 222 219 219 221 220 221 221 222 220 220 220 220 222 220 220 221 221 221 221 221 221 223 221 220 220 220 219 219 220 219 219 220 208 214 218 224 220 213 221 223 222 221 217 218 220 215 217 218 217 216 216 218 217 217 216 215 216 215 215 215 215 215 215 211 212 214 213 214 213 213 212 213 212 212 211 211 210 210 209 209 211 210 208 208
 220 221 222 221 220 220 221 222 223 222 220 222 221 220 221 222 221 221 222 221 223 221 221 222 221 222 223 221 222 223 221 220 220 221 220 221 221 223 219 210 167 144 152 137 135 134 160 184 202 209 209 204 218 222 219 219 217 215 216 216 217 216 217 216 215 215 215 215 215 216 215 213 214 213 212 213 214 213 213 212 213 214 213 212 213 212 210 210 211 211 210 209
 221 222 222 221 220 220 221 222 220 221 220 222 221 220 221 222 221 221 221 222 222 222 222 222 222 222 222 221 221 220 221 220 218 221 223 221 211 195 165 101  42  39  44  29  30  37  37  52  60  83  97  85 120 180 217 224 217 215 216 217 217 217 218 217 216 216 215 217 217 215 216 215 216 214 214 215 216 214 214 212 213 214 213 212 214 212 212 210 210 212 211 210
 221 223 221 219 220 222 221 221 221 220 220 220 219 220 221 221 221 222 220 222 221 220 223 223 221 222 221 220 220 217 217 218 226 229 221 177 103  67  33  26  28  33  32  31  29  28  25  30  26  25  24  25  23  40  92 157 194 209 221 219 216 218 218 218 218 217 216 217 216 216 216 217 216 215 215 216 217 214 213 212 212 212 213 213 213 211 212 209 209 208 209 210
 222 222 221 221 222 221 220 221 221 220 220 221 222 221 221 222 221 223 224 222 221 222 222 223 223 224 223 223 222 221 218 219 198 156 120  60  37  34  35  38  32  33  41  39  37  37  26  30  34  47  33  37  29  15   6  24  49  85 181 220 224 219 217 217 217 218 217 217 218 218 217 217 216 214 212 215 217 215 216 213 212 213 214 214 214 212 212 213 211 210 209 210
 223 222 220 223 222 221 221 222 221 220 221 222 223 222 223 223 222 223 223 223 222 223 222 223 224 224 222 222 226 230 177 102  63  32  24  31  34  28  41  44  31  30  39  36  30  32  40  36  31  31  29  36  32  26  33  25  22  18  47 120 175 213 223 218 217 217 218 218 219 217 216 216 216 215 212 215 216 215 217 217 214 213 212 213 215 213 213 214 213 212 212 212
 223 223 222 222 222 222 222 222 223 224 223 222 222 222 223 223 222 222 222 223 224 224 225 226 225 225 227 232 212 152  55  28  28  33  35  33  31  31  35  32  31  38  35  31  31  35  37  35  31  40  39  38  37  43  38  37  29  27  19  20  41  98 163 219 222 220 219 219 218 219 217 217 218 218 217 216 215 215 216 216 214 212 212 214 214 214 214 214 214 214 214 213
 223 224 224 222 222 222 223 221 223 224 222 223 222 221 222 222 221 222 221 224 224 225 224 224 229 232 187 131  72  32  29  29  31  25  26  34  34  34  42  40  35  33  37  29  34  33  30  37  36  39  37  39  40  40  33  31  35  37  26  17  13  19  31 136 211 218 219 220 220 219 219 217 217 218 217 216 214 215 216 216 215 214 213 214 216 215 213 212 212 212 212 213
 223 225 225 224 222 223 223 221 222 224 223 223 224 223 223 223 223 223 223 224 224 225 227 226 199 122  41  30  25  26  26  26  32  21  19  32  36  32  35  34  37  37  38  33  37  40  41  32  43  40  36  38  39  36  36  22  37  39  28  33  17  13  23  33  93 172 224 223 222 219 218 218 218 217 217 216 216 217 216 215 215 215 215 213 215 215 212 213 212 211 210 212
 223 225 224 223 222 222 223 222 224 223 222 223 224 224 224 224 224 224 225 224 226 228 208 137  66  34  30  33  33  28  22  31  37  41  39  36  35  41  37  41  44  44  36  43  44  36  38  35  40  38  32  28  31  32  41  36  35  36  34  36  38  24  23  23  11  52 157 211 225 220 221 221 219 218 217 217 216 218 217 217 217 216 216 214 214 215 214 215 213 214 213 212
 223 224 223 224 223 222 222 224 223 223 222 221 221 223 224 225 225 225 224 227 228 194  98  32  27  41  27  27  33  36  30  34  35  40  44  32  35  46  47  43  41  46  40  52  48  30  31  39  35  31  37  42  38  38  38  47  42  33  31  38  31  31  25  24  22   9  29  82 184 222 223 220 222 219 218 218 217 217 218 215 216 216 215 214 214 214 214 216 215 216 216 215
 223 224 224 223 223 223 222 224 224 224 225 225 224 223 225 226 224 223 225 222 150  72  39  34  34  31  25  34  28  27  34  37  38  40  35  36  36  32  46  40  39  41  40  42  46  42  38  37  43  45  35  36  35  45  40  38  41  35  34  30  32  26  27  22  18  23  20  16  41 147 214 222 221 220 219 219 218 218 219 217 216 216 217 216 216 214 214 214 217 217 216 215
 225 226 224 223 223 224 224 226 226 226 225 225 225 225 225 225 225 223 227 149  44  35  39  36  35  33  36  36  32  34  32  31  34  44  43  45  34  32  47  44  42  47  45  36  37  38  33  24  31  35  30  32  36  49  49  29  28  30  35  30  35  28  34  24  24  25  25  20  11  38 153 225 219 220 220 220 221 219 219 218 216 216 217 216 218 216 216 216 218 217 214 214
 225 225 223 224 224 223 224 226 226 226 226 225 225 225 225 226 226 228 186  58  24  28  30  30  30  30  28  25  27  29  30  29  33  49  42  37  46  46  49  46  47  41  30  34  39  39  43  34  30  26  28  35  35  32  39  32  39  37  35  20  32  28  27  26  24  33  25  27  23  16  39 163 221 220 219 221 222 219 220 220 218 217 217 216 216 216 216 217 216 215 213 212
 226 225 226 226 227 225 224 226 226 226 225 224 224 223 225 227 226 197  72  26  29  27  32  27  21  19  34  28  20  31  34  48  45  51  55  38  44  47  44  46  43  45  34  17  19  26  36  35  35  28  32  54  52  44  45  55  53  44  40  30  28  40  35  29  35  30  25  21  24  31  21  44 161 224 221 219 220 219 220 219 220 219 218 217 217 217 215 216 216 216 216 215
 226 227 227 226 226 225 225 227 226 225 227 226 224 224 225 230 213  99  23  27  28  32  28  23  24  29  27  27  30  36  48  46  57  62  54  62  58  52  44  46  65  55  44  45  33  23  26  31  34  36  33  38  52  41  53  52  54  47  44  38  36  43  49  34  34  31  31  27  24  29  24  18  31 155 228 221 219 220 220 219 220 219 217 218 218 217 217 216 216 216 217 216
 226 228 227 226 227 227 228 229 227 227 227 227 227 227 227 236 178  40  22  22  26  29  27  22  25  24  17  33  54  48  54  48  54  69  72  72  71  67  49  57  65  64  75  79 107  77  42  38  35  39  41  32  27  27  36  34  35  37  42  48  38  30  41  41  36  34  33  29  25  23  27  30  21  31 159 221 223 220 220 220 220 219 218 220 219 219 217 216 216 215 216 217
 228 229 228 227 227 227 226 226 228 228 227 226 227 228 229 207  87  25  29  23  22  23  28  30  26  25  37  41  42  53  66  78  84  90  91  77  84  70  78  73  72  82  78  83  88  98  73  61  50  50  46  49  35  30  28  28  31  32  35  49  51  29  17  24  31  35  30  34  35  29  35  26  25  11  49 179 229 219 220 220 219 220 221 220 219 219 217 217 217 215 216 217
 228 229 227 227 227 225 226 226 227 227 228 226 227 229 232 118  29  30  22  17  28  31  36  30  34  52  62  81  94 103 125 134 117 106 113  98  86  80  91 101 128 110 101 118 128 116 106  92  75  70  89  81  65  56  65  67  73  83  75  70  77  76  47  33  29  34  35  33  35  30  26  25  21  12   5  99 226 224 221 220 219 219 218 219 219 219 217 219 219 217 216 217
 228 228 227 227 227 226 226 228 227 228 229 228 227 236 181  31  27  33  20  20  40  46  51  58  92 109 107 115 132 138 155 156 156 165 171 166 150 140 151 155 148 150 154 152 158 152 142 142 144 138 154 144 122 112 130 139 142 137 131 129 112 113 114  95  79  68  60  50  48  33  15  22  19  17  17  34 176 228 224 221 221 221 220 218 219 219 218 217 218 218 218 218
 228 228 228 228 228 228 226 228 228 230 229 228 231 215  74  20  36  41  28  31  49  61  85 125 139 127 124 146 158 159 159 167 175 180 181 179 184 189 198 193 186 184 182 182 170 168 145 148 161 169 167 157 157 159 163 167 169 157 156 153 144 140 138 122 116 112 100  74  58  64  41  28  28  29  27  12  77 200 228 221 222 223 221 221 220 220 220 219 219 219 218 217
 227 228 228 227 228 229 228 229 231 230 229 229 236 165  29  37  39  40  44  62  87  96 132 148 151 150 154 159 156 161 162 164 170 175 181 184 185 187 189 193 196 195 199 200 196 195 183 182 187 180 174 172 175 175 174 176 174 168 164 162 159 152 146 148 142 124 101 113  93  83  65  49  44  25  24  19  16 139 229 222 224 224 222 222 221 221 221 220 220 219 218 218
 228 229 229 227 228 229 229 229 231 231 231 232 239 126  24  37  40  46  61  96 125 134 149 151 150 151 153 151 157 162 161 166 171 178 182 187 187 185 188 192 193 193 200 200 199 201 200 194 188 184 179 176 172 176 175 176 176 169 166 164 159 154 150 151 144 137 130 130 123 115 103  80  57  29  24  18  10  56 203 230 224 223 221 221 220 221 220 219 219 219 217 218
 230 230 229 229 229 230 228 230 229 230 232 237 215  56  29  39  35  43  80 126 141 144 146 146 148 144 148 151 154 160 156 164 176 183 182 183 186 184 191 197 194 196 198 199 203 204 200 193 186 183 183 180 173 173 175 174 172 169 169 162 161 155 151 150 142 135 133 131 127 128 123 113  87  54  33  18  16  11 137 238 223 224 222 222 221 220 220 218 220 219 218 219
 231 230 229 230 231 230 228 229 229 230 230 241 155  28  32  36  30  58 121 142 140 143 142 145 142 139 147 148 156 152 152 166 180 182 180 183 185 187 188 198 196 195 195 197 198 199 201 195 190 186 186 181 176 174 171 174 167 168 172 164 163 156 149 145 142 134 126 128 127 126 131 126 100  77  44  20  16   8  58 211 231 225 223 223 222 221 222 221 221 220 219 220
 230 230 230 230 230 231 229 230 231 229 232 219  82  25  31  33  37  81 131 142 141 143 145 145 143 146 146 150 158 159 162 173 175 178 180 187 183 185 188 195 198 194 186 188 192 193 197 194 191 184 181 181 180 175 173 173 173 167 165 160 157 156 150 145 141 132 126 123 123 123 130 128 114  97  69  25  15  14  10 141 229 226 225 223 223 223 222 222 221 221 220 221
 231 230 229 230 230 230 230 232 232 231 237 192  44  27  34  33  49  99 133 141 140 142 142 140 140 147 147 153 155 162 166 173 173 176 180 185 185 186 188 192 194 193 190 188 191 198 201 193 189 182 179 179 179 174 172 171 170 167 162 159 153 154 150 148 141 131 127 123 121 122 124 123 123 105  75  36  19  18   5  85 226 225 226 225 223 222 222 222 222 222 220 221
 231 232 233 231 230 230 229 230 231 232 243 160  25  31  33  37  60 109 132 140 137 138 138 139 143 145 150 153 154 161 167 170 172 179 176 178 180 187 191 190 191 192 198 194 193 196 198 196 188 186 182 182 174 175 173 174 174 169 163 165 157 155 148 144 140 133 129 123 119 120 121 122 121 109  89  53  22  11   7  36 199 228 223 223 223 222 223 221 220 218 219 221
 231 231 231 231 231 230 230 230 231 235 237 110  26  32  31  38  71 109 131 134 132 132 137 142 145 146 146 146 156 160 167 170 177 176 175 178 180 186 190 191 193 192 195 197 199 198 197 192 187 186 182 179 178 177 172 175 172 164 165 161 155 155 147 138 133 136 130 124 119 120 122 121 118 107  96  75  32  14  12  13 156 232 223 224 223 222 223 222 221 220 220 221
 232 231 230 232 231 231 230 231 233 239 219  58  28  28  25  39  70 104 130 131 132 132 140 139 143 140 138 151 160 165 166 172 176 173 178 180 180 180 189 193 196 194 190 195 199 198 196 191 188 184 180 179 178 178 172 171 174 170 168 162 156 154 149 138 131 134 129 124 121 120 118 118 116 111  99  77  37  21  16   5  94 223 222 223 224 222 222 222 221 222 221 221
 231 232 232 233 232 231 230 232 233 243 178  33  31  26  30  39  64 102 117 133 135 133 137 138 142 143 146 152 159 165 167 169 170 171 177 177 179 180 185 190 194 190 190 191 196 195 194 193 192 183 176 178 180 177 172 171 170 169 165 162 159 153 151 144 136 133 130 126 121 118 115 114 110 106  99  77  42  30  19   7  24 175 225 222 225 222 223 225 222 222 222 222
 230 232 234 232 230 229 230 234 234 240 128  31  33  28  28  42  75  95 113 125 125 130 137 142 146 148 151 149 156 165 168 169 175 177 178 182 184 184 188 191 190 188 190 193 196 195 195 193 187 183 178 177 177 177 172 170 169 163 162 159 158 153 148 145 141 137 128 129 123 117 113 113 108  99  98  74  50  36  20  11   7 135 224 221 223 223 224 225 223 223 223 223
 231 233 233 231 230 231 233 234 237 232  86  30  30  28  29  46  76 100 109 123 129 130 137 143 144 150 151 152 156 166 169 172 178 177 182 188 190 194 191 194 195 188 188 189 186 189 192 189 182 179 175 177 180 183 176 174 171 171 167 164 159 151 145 143 144 143 137 134 127 116 109 111 107 103  92  58  51  39  22  15   9  78 212 219 224 224 224 225 223 223 222 223
 232 233 233 232 230 233 233 234 236 227  80  28  29  32  33  47  77  88 106 123 132 134 139 144 148 156 157 155 156 161 168 174 179 182 184 189 192 195 198 200 198 195 197 198 195 196 195 189 187 185 185 184 183 185 182 183 181 179 176 169 162 157 152 147 142 136 136 133 130 119 107 108 105 101  86  59  51  31  23  20  15  38 183 218 223 223 224 225 224 224 223 224
 232 232 233 233 232 232 233 233 241 207  51  31  35  33  38  57  74  85 112 122 132 135 140 144 150 156 161 163 166 168 173 177 181 187 189 191 195 194 199 200 198 196 198 200 200 198 194 194 195 189 193 185 185 192 187 187 185 180 173 172 167 163 163 160 150 140 136 131 124 116 109 104 103  98  86  60  46  33  23  20  19  16 140 216 219 224 223 225 224 225 223 224
 232 231 232 233 233 235 233 232 241 204  50  35  34  31  44  62  65  92 116 122 127 134 140 146 153 157 160 166 168 173 175 182 185 188 190 189 193 197 200 200 200 201 199 197 199 202 199 197 195 194 195 192 192 191 189 188 183 182 177 175 173 168 165 162 158 144 135 127 122 112 109 108 105  96  84  59  53  30  24  21  20  11 102 206 213 219 223 225 225 225 223 223
 233 233 232 232 233 233 233 233 245 192  39  34  34  40  44  57  67 101 120 122 123 138 134 132 154 157 164 167 172 176 178 186 188 191 195 197 193 197 201 202 201 204 200 197 202 201 203 199 196 195 192 193 194 197 193 192 191 191 187 184 182 174 168 163 160 153 147 134 123 113 107 106 105 100  84  67  53  29  25  21  23  10  65 187 207 218 222 223 225 225 224 223
 233 233 234 235 233 233 233 236 247 149  22  31  33  41  48  48  72 112 130 127 127 133 128 135 156 162 171 176 181 183 187 191 193 196 197 193 201 202 201 199 203 203 198 198 203 203 204 201 194 193 196 200 200 203 200 197 196 196 195 190 187 182 177 172 166 161 155 149 133 120 111 105 104 104  85  62  45  37  28  18  23  13  45 161 200 215 221 223 224 224 224 224
 232 234 236 236 236 236 234 237 246 107  20  34  36  41  45  53  87 117 130 133 135 135 139 153 164 174 176 183 184 189 190 193 196 200 198 194 204 205 202 203 202 202 199 200 201 200 200 199 200 198 196 197 200 203 202 201 194 192 194 188 188 187 181 177 170 167 162 153 139 126 110 108 105 101  82  60  51  37  31  20  23  17  31 135 188 211 221 223 224 224 226 225
 233 235 234 233 235 236 235 237 240 100  22  36  36  36  43  63  97 121 126 131 135 138 145 160 168 176 180 188 186 190 190 187 193 195 197 202 203 205 205 205 204 203 204 201 203 203 203 202 202 203 197 198 200 206 201 199 185 184 185 184 178 170 177 171 172 172 162 154 144 132 116 109 104 100  84  62  49  37  25  23  20  16  22 110 171 204 219 223 225 226 225 225
 236 236 235 233 234 235 234 238 244 103  27  36  40  35  41  77 115 120 122 130 135 143 152 165 159 160 171 177 169 172 181 181 185 188 196 201 202 203 200 203 200 199 200 197 203 205 203 205 201 202 199 193 200 196 192 175 155 166 153 136 130 144 149 148 153 154 147 138 141 139 124 111 102  93  87  72  47  40  27  25  22  20  16  78 153 193 213 222 226 225 226 225
 236 237 237 236 235 237 236 239 241  85  27  37  39  36  54  97 116 115 118 127 137 148 159 140 113 123 133 130 121 120 133 146 143 141 146 151 173 195 194 189 191 195 192 197 202 204 204 200 197 190 189 185 180 191 168 137 133 122 104  94  90  99  93  88  90  88  75  72  81 117 134 115 105  90  88  83  57  40  33  25  22  19  22  68 132 179 207 220 225 225 224 226
 235 236 237 238 238 238 237 238 233  80  22  35  39  40  62 107 115 113 116 129 142 150 127  92  76  82  83  82  78  88  81  80  87  86  93 105 115 134 156 167 182 190 191 199 204 202 203 199 197 183 177 176 164 169 148 129 108  96  90  83  75  62  52  47  47  37  37  42  44  52 105 125 104  86  81  85  67  39  32  22  20  17  18  57 112 165 201 218 223 225 224 225
 237 237 239 238 241 242 241 242 233  79  20  34  36  44  78 111 115 116 119 133 133 108  77  64  59  64  70  63  65  58  70  58  58  68  78 103 130 129 128 139 167 183 182 193 198 200 198 193 193 185 169 164 155 148 133 120 114  94  86  67  50  47  46  58  62  65  72  72  72  47  42  94 110  91  85  85  74  42  28  29  24  17  23  56  98 148 194 214 223 226 226 225
 236 236 238 237 241 242 241 243 239  85  23  37  37  50  95 112 118 117 124 119  86  74  58  67  86 100 109 113 117 105 100 103  84  82  82  93 114 128 126 133 147 172 183 188 190 194 192 189 185 179 168 159 155 147 142 131 123 101  85  83  87  92 101 112 115 115 120 112  97  70  53  51  83  96  87  87  77  46  30  30  26  17  22  56  82 130 182 210 223 226 224 226
 234 236 236 234 239 242 243 244 236  77  23  33  32  57 102 116 116 119 121  85  71  76  85 104 127 133 135 133 132 135 137 137 131 119 121 124 131 140 144 147 145 153 168 174 179 184 186 185 181 174 164 155 151 144 143 137 129 119 115 122 122 120 119 122 123 124 126 119 113  95  72  49  41  81  90  87  80  63  39  26  22  12  22  56  72 114 168 204 221 225 225 226
 234 235 236 235 237 240 240 246 216  53  29  32  31  67 110 120 117 118  95  64  80  98 109 123 132 133 139 138 141 145 149 148 147 148 143 136 136 141 148 150 144 150 157 166 174 176 180 179 173 167 157 150 144 137 133 132 125 124 130 133 129 124 124 124 123 124 121 119 115 112  95  72  48  56  82  91  85  71  42  29  19  14  25  53  63 100 154 196 216 224 226 225
 236 236 237 238 238 238 240 246 211  53  28  35  34  73 113 119 120 111  79  73  89 115 128 126 133 132 141 147 152 155 161 161 157 157 163 155 142 141 139 141 139 146 156 166 174 176 175 177 170 161 152 145 137 134 134 136 137 141 148 150 146 141 138 133 126 120 113 111 111 111 100  83  63  61  76  93  85  76  46  28  21  12  27  56  61  84 139 187 213 222 223 224
 237 238 239 238 238 236 237 244 219  62  26  35  38  79 114 116 120 111  97  99 110 121 122 125 127 132 133 131 129 131 136 133 122 120 129 149 159 155 145 138 139 144 152 166 176 178 174 172 168 157 148 140 131 134 145 149 149 139 129 132 135 124 121 121 118 117 112  99 102 104  97  88  73  74  78  87  83  79  53  28  23  18  32  57  59  75 121 177 211 221 222 225
 236 236 236 237 238 237 237 243 228  64  22  35  42  87 116 113 121 113  99 105 114 113 114 118 120 111 112 121 141 153 149 138 130 114  98 101 132 153 157 147 139 142 153 169 181 185 178 175 168 159 146 138 132 140 149 147 125  99 104 118 129 140 137 126 111 101 101  94  92  94  94  92  82  80  84  86  88  79  49  25  20  19  35  56  57  69 109 167 205 222 225 227
 239 237 236 238 240 241 239 241 246  99  19  33  39  88 118 115 120 111 106 106 111 105 107 109  92 103 119 106  91  67  55  53  63  86 103 101 100 124 156 167 148 141 158 173 185 191 187 181 165 154 142 135 141 150 141 105  97 104 101  74  56  66  70  94 109 110  92  84  94  93  89  89  86  87  94  90  88  78  50  24  14  13  39  58  58  65 101 157 200 217 224 226
 242 239 239 239 242 243 240 241 251 129  22  32  42  90 115 118 121 118 110 108 106 100  98  84  90  91  59  42  24   8  17  20   9  51  96  84  95 109 141 171 159 141 150 172 186 193 195 183 169 149 137 133 154 157 122  92  90  90  98  27  15  17   9  17  41  58  86  79  78  88  84  88  90  93  93  96  87  78  48  23  18  13  38  57  56  61  93 150 196 216 226 226
 239 237 237 240 242 243 241 240 251 167  26  32  46  92 114 118 121 122 113 111 108 101  91  84  68  33  46 123  50  16  34  46  18  81 193 130  78  91 132 160 155 151 157 174 184 193 191 182 162 144 140 131 150 144  94  85 111 176 134  22  36  42  17  23  96  62  34  61  69  81  84  89  93  95  97  95  90  81  48  22  16  19  44  57  56  60  87 142 190 215 222 227
 241 239 239 241 243 244 242 240 246 221  55  26  45  93 116 122 123 124 119 112 110 101  83  57  33  37  92 156  73  15  15  18  36  81 148 125 102  94 109 152 156 160 159 172 180 186 184 173 162 143 138 135 144 123  89  97 116 157 121  35  25  16  15  26 131 131  53  28  46  69  86  92  95  98  99  94  88  81  50  19  15  25  52  56  60  70  89 137 187 212 223 227
 241 239 239 241 243 243 246 248 249 251 114  29  47  95 117 122 126 125 122 118 114  98  84  71  69  81  90 105 109  89  94 114 121 125 120 122 130 141 126 148 157 157 161 173 180 186 183 173 164 149 135 138 145 128 121 134 119 122 127 105  95  66  53  71 108  90  68  47  42  62  86  95  97  98  98  93  89  79  50  18  13  33  59  55  60  72  92 136 185 212 222 226
 239 237 237 239 241 248 229 187 175 178 129  31  47  96 114 116 122 128 127 122 122 112 113 109  99 101 101 102 111 119 133 147 142 136 131 118 123 133 145 160 161 159 166 172 181 185 185 177 166 156 141 135 146 139 127 134 128 130 136 145 138 122 101  93  84  85  82  71  67  72  89 101 100  98 103  97  88  79  50  17  15  35  57  56  61  72  93 138 183 213 223 227
 241 240 240 239 245 229 143 132 141 135 131  68  43  96 114 120 120 129 133 131 133 132 131 123 110 109 115 121 120 119 126 124 121 114 111 119 139 152 164 166 162 164 168 176 181 184 187 178 166 147 146 142 145 153 144 135 124 118 127 132 123 109 102 103 103 100  96  88  84  91 102 109 107 102 105  97  87  80  44  17  17  39  54  53  60  72  95 139 182 210 221 226
 241 241 240 239 249 182  94 101 133 149 155 113  46  91 114 116 118 132 133 136 139 134 130 129 117 113 110 111 112 114 114 110 113 119 133 155 167 165 166 167 169 159 167 176 181 190 188 179 164 148 140 151 145 154 152 149 147 138 122 119 122 120 113 112 111 105  99  94  94 101 107 114 110 103 106  97  89  78  43  13  25  72  77  71  68  71  97 140 185 211 223 227
 239 240 238 241 251 169  86 102  97 121 158 133  51  85 112 116 120 129 136 140 147 140 138 138 137 137 136 133 129 129 131 137 144 155 167 174 166 164 162 165 163 157 164 171 185 188 187 178 159 141 132 146 153 154 157 155 161 159 148 138 128 119 118 119 121 116 106 104 103 105 110 120 114 103 101  95  85  76  40  20  70 121 115 112  98  84  99 144 189 213 225 228
 241 241 240 241 252 192 114 141 128  98 131 136  52  88 111 114 123 130 137 146 152 150 151 147 150 149 150 148 154 150 154 159 165 174 179 172 165 166 164 166 159 160 162 170 175 179 183 176 158 133 123 137 156 157 162 159 161 162 159 154 149 138 135 136 135 129 125 116 113 111 118 120 116 107 100  94  85  73  30  42 121 132 127 115 103  96 108 148 192 215 225 229
 239 240 241 241 247 214 154 157 134 115 104 114  54  81 109 114 123 133 139 145 150 156 157 155 155 157 159 159 162 161 166 177 180 178 172 171 169 161 164 163 151 155 158 166 173 184 184 176 160 136 105 121 148 157 161 163 163 164 164 166 159 154 147 141 138 138 134 125 121 127 129 128 117 103  99  92  81  69  29  75 144 127  89  72  87  87 107 156 194 216 225 227
 240 240 242 241 245 224 162 166 136 110 102 100  59  81 107 113 123 133 138 146 156 156 162 164 163 166 167 166 170 174 180 182 181 177 172 171 170 166 163 154 137 148 154 158 172 191 194 187 165 144 114 108 140 159 165 170 168 166 167 167 166 162 157 150 144 145 136 133 135 137 139 131 120 108  95  88  78  69  27  92 136  71  71 106  98  80 103 161 198 216 225 227
 240 240 239 240 242 238 171 169 141 107 128 132  60  82 107 110 123 131 135 146 155 161 165 166 169 168 168 173 178 179 182 180 180 178 179 175 174 168 148 137 135 151 154 154 179 206 200 191 172 149 133 114 126 150 162 170 171 170 168 168 168 169 167 160 153 152 146 147 144 138 139 133 121 109  95  86  80  68  30  87  81  82 113 121 118  94 109 164 201 219 226 228
 241 241 239 239 241 249 181 158 137 126 160 145  72  72 105 104 118 130 136 146 153 161 164 164 168 175 176 176 178 184 187 187 183 182 182 181 171 147 133 142 153 163 158 163 187 204 197 186 168 154 142 140 122 125 152 172 174 173 173 171 173 172 169 165 161 154 152 147 144 146 134 135 120 107  93  84  78  64  35  66  90 105 105 133 148 116 114 169 204 221 228 229
 240 240 240 240 242 251 203 160 141 147 177 164 111  67 104 105 117 131 140 145 152 158 161 160 168 175 177 176 178 184 189 192 189 181 176 180 157 134 146 157 169 167 156 161 172 204 210 181 158 147 136 146 141 120 136 168 182 182 175 168 176 179 171 168 163 159 160 156 149 148 142 134 117 107  93  81  78  60  29  98 126  99  93 137 158 123 121 176 207 222 228 230
 239 239 241 240 240 248 223 166 144 165 189 166 138  73 101 106 114 128 141 146 153 154 160 166 169 173 174 177 179 186 186 191 190 182 175 163 149 161 167 166 169 160 147 146 157 177 179 163 145 134 137 147 145 141 139 154 177 181 182 173 172 177 174 168 164 163 159 160 151 145 138 129 118 106  90  79  74  54  29 115 149 113  87 135 156 117 128 182 207 222 229 232
 238 239 242 240 237 245 233 168 148 181 192 163 145  85  99 104 115 130 139 146 154 157 161 169 168 172 172 175 179 184 186 189 187 182 174 154 153 163 168 163 163 151 144 141 147 155 153 147 136 132 134 140 146 145 140 139 165 182 187 180 174 173 174 169 166 164 159 155 149 145 135 125 116 108  92  76  69  48  43 124 166 140  93 133 149 110 138 189 212 224 230 232
 240 241 242 240 240 244 238 174 152 188 196 177 139  89  93 103 113 132 141 146 153 155 158 164 168 171 163 166 182 181 181 187 187 181 177 149 144 147 137 109  84  81 103 126 139 145 140 136 129 112  79  79 117 140 136 115 148 182 184 188 181 177 174 169 164 160 157 150 146 140 136 124 115 103  89  73  70  42  41 124 175 159 103 121 128 101 148 192 216 225 228 230
 242 243 243 241 243 245 242 178 154 189 195 190 151  87  91 101 109 128 141 145 146 156 156 165 167 168 167 171 177 181 184 188 189 185 177 138 120 112  78  50  33  19  29  78 113 121 118 122  91  33   3  26  52  93 115 102 130 183 186 186 185 178 172 169 164 162 155 146 142 142 132 122 110 100  86  72  64  40  46 136 183 169 111 129 112  95 150 191 212 223 227 230
 243 243 243 244 243 243 247 185 154 184 183 180 166 100  91 101 105 122 137 142 140 150 152 157 164 166 168 172 173 179 182 181 182 174 178 142 101 110 115 135 129 110 111 100  79  92  94  79  71  76  62 104 128 107 103  99 127 176 182 182 176 173 168 168 163 162 156 147 139 136 127 115 107 101  82  68  61  33  57 156 186 169 118 137  94  91 142 181 205 217 224 229
 244 243 243 244 243 242 249 195 145 170 165 179 169 100  93 101 106 118 133 135 136 140 148 156 159 165 164 165 168 174 161 157 172 171 172 165 116 107 125 140 134 140 140 125 102  85  87  80 117 136 141 141 153 136 106  87 141 172 170 182 185 179 173 167 162 155 153 148 136 124 122 109 106  98  80  65  60  34  91 169 175 164 117 125  72  83 125 166 194 210 219 226
 243 243 241 242 243 242 249 210 143 148 168 179 161 109  95 101 109 118 129 134 134 138 148 152 154 160 162 163 167 169 168 170 169 170 171 169 154 115 106 104 100 118 134 139 135 119 119 120 135 145 128 103 103 100 100 126 152 163 168 178 185 182 172 161 156 153 146 135 130 125 118 106 101  95  76  62  58  38 105 158 157 141 118 108  59  76 108 147 178 197 213 222
 240 241 244 244 242 241 248 217 152 143 175 169 157 116  93 102 107 115 127 134 132 136 140 143 153 154 158 159 164 168 172 167 167 174 174 168 154 134 129 122 109 112 128 140 146 143 140 135 122 125 113 101 106 115 130 141 145 156 167 174 182 172 166 159 151 149 146 134 126 117 109 104  99  90  73  62  50  60 114 122 140 121 120  85  54  67  94 127 156 175 198 216
 242 243 246 247 245 242 246 232 158 157 172 166 155 129  93 105 107 113 128 136 132 129 133 138 150 144 152 151 158 163 161 161 171 170 170 159 140 127 121 121 112 115 121 127 135 138 136 135 120 111 115  95 108 114 130 140 147 155 165 165 168 172 166 159 149 141 141 128 118 109 101 100 100  90  67  58  47  76 136 124 124 111 113  63  55  63  78 101 122 146 182 211
 243 244 247 249 246 242 243 248 168 143 161 155 152 123  91 103 107 117 126 130 132 128 130 138 143 141 148 149 152 149 144 152 162 163 150 141 137 127 117 119 117 112 118 128 119 135 138 129 123 112 117 102 107 111 121 124 133 147 161 158 157 162 157 152 143 137 135 124 114 105  98 100  99  86  65  55  47  83 137 131 103 116  94  54  56  59  65  75  86 115 165 205
 244 243 245 248 248 245 243 249 208 128 144 145 153 121  91 100 105 116 123 127 126 123 128 136 138 137 143 144 142 133 142 136 145 128 114 123 119 115 115 116 122 127 127 128 135 137 147 134 118 116 110 108 112 109 108 115 120 127 146 153 150 148 152 145 138 130 127 115 109 100  92  98  98  82  61  56  53  90 143 134 110 117  71  53  59  58  57  60  65  99 158 200
 245 244 244 248 248 247 244 242 245 176 122 120 129 100  82 101 107 110 125 127 122 118 123 129 132 135 144 136 113 127 139 131 126 113 102 118 118 125 115 120 126 133 137 143 141 144 139 142 136 134 127 119 113 108 100 106 114 116 125 135 139 141 143 140 132 123 121 114 104  98  96  98  96  80  59  53  56 103 128 136 111  87  57  56  56  57  55  57  64 102 165 204
 245 245 244 245 248 247 245 244 244 244 210 172 138  96  80 103 107 105 120 125 123 114 114 120 126 132 141 121  98 108 116 103  89  97 101 115 127 125 134 137 142 149 158 153 150 154 148 156 157 144 131 113 119 114 102 111 101  93 102 113 126 133 132 135 128 121 112 106 101  90  98 101  93  74  63  59  53 113 121 127 105  65  53  55  55  55  56  57  68 115 172 207
 246 246 244 244 248 246 243 245 244 241 236 210 161 110  84 102 105 106 117 122 125 115 114 113 121 133 137 115  99  94 107  79  75  87 104 114 117 138 150 155 161 157 154 157 164 149 152 165 165 151 147 143 139 127 120 112 112  85  90  80 100 102 110 122 125 115 106 101  99  90  97  96  86  75  63  58  54  90 104 108  80  54  55  54  54  55  56  58  74 128 182 211
 245 245 244 245 247 244 242 243 243 241 235 213 170 120  89 101 103 110 115 120 121 117 115 116 120 134 128 104  89  88  86  80  77  94 112 125 129 138 132 122 120 119 116 125 136 149 142 137 124 127 129 136 139 137 131 120 103  83  85  86  80  88 108 124 122 110 106  97  92 100 103  92  80  72  61  57  53  54  61  62  55  55  57  56  56  57  56  60  87 145 192 216
 243 243 243 246 247 244 242 243 243 242 235 216 176 126  94  96 102 109 111 117 119 115 115 119 120 130 115 100  98  91  82  69  64  91 104 104  94  84  85  87  96 104 108 107 102 112 104  96  96  96  89  85  95 109 119 119 110  90  78  79  88  93  97 103 113 106 106  94  94 104 102  92  82  69  62  58  53  53  53  54  53  55  56  56  55  55  56  66 106 163 200 218
 244 243 244 245 244 243 243 242 244 241 236 220 183 135  94  93 102 104 109 117 122 118 116 119 121 129 106  98  96  95  84  61  48  49  56  59  60  67  78  81  87  92  99 106 107 104 100  94  98  94  84  75  71  67  75  85  92  83  76  73  85  86  89 104 103 104 100  93  97 100  94  90  80  66  64  51  53  55  56  57  55  56  56  56  56  57  56  75 126 177 206 222
 244 244 243 243 242 243 244 245 246 242 238 223 190 143  95  81  99  99 106 113 113 116 112 118 124 126 110 104 101  96  92  96  75  56  66  78  85  92 102 115 123 119 112 113 100  96  85  79  79  76  65  64  61  56  51  48  47  61  76  79  93 102  92 108 109 105  99  89  98  97  95  85  78  64  57  45  54  54  56  55  54  55  55  54  54  57  59  86 143 188 211 226
 245 244 244 243 242 242 244 245 245 242 236 223 196 150  99  83  98  93  99 113 113 113 107 114 128 134 133 111 114 114 113 117 123 108 100 104 110 110 113 132 148 155 157 158 138 143 141 120 111  98  87  84  77  72  60  62  77  99 107 110 104  98  90  97 106 107 100  93  98 100  93  83  70  68  57  48  55  55  55  54  56  57  55  56  56  55  64 102 160 198 216 227
 244 244 244 243 242 242 243 243 245 242 238 228 203 157 108  84  95  95  94 101 110 108 108 114 124 134 140 124 124 131 132 125 132 138 141 137 125 114 111 114 125 135 144 148 141 143 147 130 115 104  92  94  91  86  89 101 112 110 110 120 123 117 110 123 116 101 101  94  94  90  87  80  67  63  54  49  55  55  56  56  56  56  56  56  54  56  72 123 177 206 221 228
 243 243 245 244 243 242 242 242 244 244 241 232 210 168 119  88  93  96  96  98 107 107 102 103 114 132 140 127 133 139 139 135 132 143 153 158 160 146 129 123 122 130 129 129 127 123 126 124 114 105 103 107 113 121 120 120 118 113 126 139 133 116 127 125 114  97  89  92  92  91  81  76  69  63  43  49  56  55  55  55  57  56  55  57  56  60  89 144 189 211 224 229
 243 243 243 243 242 241 242 243 245 244 240 235 219 182 134  89  89  93  90  95  99 101  96 103 111 128 139 121 127 141 142 140 135 136 146 154 158 162 154 150 140 136 138 141 137 135 135 132 131 131 139 142 139 137 127 118 116 121 128 138 133 126 125 119 104  95  90  90  91  85  77  71  65  60  41  53  55  55  55  56  56  56  56  55  56  66 106 161 198 217 226 231
 244 243 242 243 244 243 244 245 245 244 242 238 226 201 162 114  95  90  90  96 101  91  94  98 105 116 128 120 124 133 135 142 136 130 135 141 147 148 155 153 148 141 142 145 150 148 145 148 152 148 145 146 138 131 122 115 111 122 127 134 136 129 113 102  97  91  84  81  89  81  73  69  68  56  45  55  55  55  55  56  55  55  54  55  58  77 130 178 206 221 228 230
 244 245 244 243 244 243 244 246 244 244 243 240 231 213 186 155 105  85  92  94  93  94  92  91 102 115 120 125 130 131 131 141 137 133 137 137 131 137 132 134 128 120 129 130 131 129 133 142 145 130 138 132 127 123 116 112 117 117 128 134 133 127 114 101  96  80  81  77  81  78  70  67  64  54  48  56  55  55  55  55  56  55  55  54  62  97 152 190 212 224 230 231
 243 244 243 242 244 243 243 244 243 245 245 241 236 224 205 185 153  89  86  88  89  96  87  86 102 107 116 121 122 126 131 138 137 139 142 145 136 141 136 125 124 112 113 111 106 111 118 117 124 122 127 122 120 118 119 121 122 122 123 131 129 120 105  93  84  74  75  87  80  72  67  67  60  47  49  55  55  55  54  55  55  60  66  68  82 126 172 200 218 226 230 232
 243 243 243 242 244 245 243 242 243 243 243 241 238 232 220 212 202 122  78  83  85  97  84  85 102 102 106 112 117 118 127 135 137 138 137 142 147 143 144 140 143 132 123 120 118 118 133 129 137 138 135 126 124 128 129 125 118 117 126 124 122 111 104  89  77  74  75  83  73  67  66  64  52  41  54  56  55  54  55  55  60  73  90 103 119 154 186 207 221 229 231 233
 242 243 243 244 244 243 243 243 244 243 242 243 240 239 231 226 219 178  79  77  88  87  89  91  96 101  99 101 109 115 123 130 136 136 140 140 143 147 149 146 143 142 134 132 130 132 138 145 145 142 138 135 139 136 129 127 118 114 123 112 110 103  96  88  82  73  75  74  66  67  66  57  39  40  58  56  55  55  55  60  78 104 128 145 159 177 197 213 225 231 230 232
 243 246 245 246 245 243 243 243 244 243 243 243 240 242 238 235 227 214 126  71  83  76  86  90  89  97  97 107 105 113 116 127 133 138 143 146 145 149 152 150 147 143 141 138 134 130 138 145 145 143 141 142 138 139 130 126 120 119 115 110 105 101  93  86  78  75  77  69  65  64  55  49  27  46  58  56  56  56  56  65  99 138 162 174 186 199 209 220 228 232 232 233
 243 244 244 245 244 243 241 241 244 243 244 242 242 244 241 240 237 238 205  86  68  72  74  84  87  88 100 110 110 107 119 126 129 136 144 147 145 151 150 152 155 152 147 143 148 138 146 144 145 148 145 144 140 134 124 124 121 113 112 104 104  97  91  78  73  77  71  62  62  59  44  32  29  52  56  54  55  57  56  71 113 160 182 193 202 212 218 226 231 231 232 234
 244 243 243 244 244 244 242 244 244 243 244 242 244 244 244 242 243 241 230  96  59  67  71  80  83  90  94 103 101 111 121 125 132 141 146 147 150 151 160 158 157 151 154 144 142 149 150 149 151 151 150 145 140 135 120 105 107 111 110 106  94  87  79  78  75  69  65  61  58  51  35  22  49  64  55  54  54  55  59  79 129 172 197 210 215 219 224 231 234 233 232 232
 243 243 243 244 245 246 245 244 244 243 244 243 245 244 244 245 244 244 244 122  45  63  64  73  82  78  84  88 107 122 104 113 130 134 133 143 154 152 152 153 156 151 149 148 141 150 153 155 153 147 148 143 135 133 124 116 108 113 101  98  89  74  69  73  70  54  53  54  46  39  21  31  51  65  57  54  54  55  61  89 142 185 209 219 223 225 227 234 235 235 232 231
 243 243 243 244 245 245 244 242 242 242 243 243 244 244 243 245 244 244 248 154  46  46  49  59  65  67  77  88 109 110 108 117 122 121 130 137 145 140 147 155 155 145 148 148 140 137 149 147 140 134 136 136 120 116 119 111 108 103  84  77  76  65  63  58  52  43  41  45  37  26  36  55  62  66  58  55  55  54  65 102 156 194 216 226 230 231 231 234 235 236 234 232
 244 243 243 244 244 244 243 242 241 242 244 244 243 243 244 245 245 246 250 177  62  49  59  57  50  60  62  66  88 103 120 100 114 129 136 133 128 142 146 144 148 135 139 135 137 143 143 137 137 131 129 118 107 104 117 115  97  87  78  65  65  56  42  54  46  46  41  34  26  30  45  55  67  71  58  54  54  56  72 113 166 199 217 229 234 236 234 233 234 233 234 233
 243 243 243 244 244 244 244 242 243 244 245 245 243 244 245 246 246 246 250 195  69  57  52  50  52  50  58  57  73  96 100  88 100 108 124 123 126 128 133 135 135 129 126 134 133 133 129 127 136 121 121 115  98 110 104 107  93  80  75  55  54  41  40  44  43  43  34  28  28  48  59  68  69  73  57  53  54  58  78 123 174 204 220 230 235 235 233 233 234 235 233 232
 242 243 245 244 244 244 241 241 242 243 243 243 243 244 245 245 245 244 251 208  69  60  44  42  53  51  46  47  57  70  77  90  90 104 104 108 119 124 134 133 134 120 122 122 115 128 111 117 121 114 114 116  92 104  94  85  88  69  54  39  43  38  38  34  25  34  34  39  49  63  69  71  72  71  58  53  54  58  83 135 182 210 225 231 235 235 234 234 236 236 235 233
 242 243 244 244 245 243 240 239 238 240 242 243 243 243 244 244 244 243 248 216  91  72  54  40  52  48  41  39  46  58  82  81  81 102  97 103 104 120 125 120 125 123 116 113 113 121 116 120 105 104  98 113 102  95  90  74  72  53  36  31  37  31  32  23  29  32  44  53  57  64  80  73  74  71  57  53  55  63  95 147 190 213 226 231 234 235 235 234 236 236 235 233
 244 242 243 243 244 243 241 239 240 241 243 245 245 243 244 244 244 243 246 226  98  73  69  53  50  43  41  36  38  44  73  80  77  87 100  92  87 112 112 113 111 112 112 120 106  98 107 123 105  91  94  91  80  88  80  64  43  37  26  31  31  31  30  25  34  43  46  55  64  74  75  77  76  70  58  54  57  68 109 160 196 217 227 233 235 236 236 235 235 235 232 233
 244 244 242 242 242 244 242 239 241 243 243 244 244 243 244 244 245 244 245 231 104  72  69  63  56  58  48  37  34  34  43  49  63  70  84  91  90 106  99 112 105 108  98 107 112 108 100  98  86  79  87  83  72  70  57  44  23  26  23  31  32  30  32  34  42  60  63  61  71  78  75  73  65  69  59  54  57  75 121 170 204 222 230 233 235 236 236 234 235 234 232 233
 241 241 243 243 243 245 243 241 242 242 243 243 242 242 243 243 243 244 247 240 113  74  71  70  63  54  54  45  33  36  31  29  48  52  77  87  76  89  85  89  89 100  83  92  93  88  78  83  86  77  84  72  57  45  36  27  14  18  28  31  28  29  37  42  48  59  69  72  80  81  82  78  73  72  59  54  58  82 132 179 208 224 231 233 235 235 234 234 233 234 232 232
 241 241 243 243 243 245 244 243 244 243 243 244 242 241 242 242 244 246 247 243 124  79  79  72  61  54  53  49  32  37  31  21  25  35  52  51  63  66  71  66  66  74  71  82  62  59  60  79  70  61  66  46  27  22  11  17  23  25  30  25  37  36  41  48  55  60  64  77  81  77  85  84  79  75  60  54  59  88 141 186 210 222 230 234 233 233 233 232 232 232 231 231
 241 241 241 241 242 243 242 242 243 243 244 243 242 241 242 243 243 244 244 246 131  81  79  77  73  59  59  53  45  43  35  30  27  30  31  24  30  37  47  53  48  54  52  52  45  40  40  47  44  39  26  15  15  23  18  32  28  32  32  39  44  41  50  63  67  71  72  75  77  82  84  85  79  75  62  53  60  91 149 193 213 224 232 234 233 233 232 232 233 232 230 231
 242 241 241 241 242 243 242 241 240 240 242 242 241 241 243 245 244 243 244 250 140  72  66  74  73  52  53  59  58  54  43  37  33  37  24  20  26  22  26  27  24  32  31  33  34  26  22  21  24  16  16  35  30  35  33  46  38  39  40  40  41  47  58  69  71  68  74  84  76  86  83  82  80  74  62  55  62  97 154 197 218 227 232 234 235 234 233 233 233 232 230 230
 242 241 242 241 242 243 242 241 239 239 242 241 241 241 243 242 244 244 243 250 143  73  71  70  73  70  58  55  59  55  51  43  43  44  40  36  39  36  34  28  29  36  38  33  35  42  28  40  40  24  37  51  38  37  43  39  39  44  42  52  53  57  63  63  71  71  77  82  79  83  86  84  80  70  62  52  62 101 157 199 221 229 232 235 236 234 235 233 233 233 231 230
 241 241 243 242 243 243 242 241 240 239 241 241 241 242 242 240 241 243 245 252 144  76  85  80  74  69  64  55  60  65  49  44  44  38  51  59  56  59  49  55  53  56  53  50  53  53  56  56  56  49  52  47  44  45  35  41  42  44  45  60  57  57  56  70  61  81  88  88  87  83  75  82  82  74  62  53  62 101 161 202 222 230 235 236 236 234 233 232 232 232 230 230
 241 242 243 242 244 244 243 242 240 240 242 241 241 241 241 239 241 243 244 254 150  77  88  82  80  75  71  57  58  66  64  54  46  45  52  58  59  53  54  53  55  53  49  58  61  59  61  53  47  50  49  42  39  41  40  46  42  53  60  62  65  68  78  81  79  88  87  85  84  86  85  83  82  74  61  54  62 101 162 204 224 229 234 237 236 234 231 231 233 232 229 229
