P2
# Generated by OpenCV 4.2.0
92 112
255
 167 169 166 166 168 168 168 169 169 165 164 172 171 168 167 170 173 170 171 169 172 173 174 173 174 173 173 174 175 173 177 174 177 176 174 177 174 172 174 171 170 172 174 174 173 172 178 175 173 174 175 172 173 171 174 172 174 172 174 176 176 175 175 175 175 172 175 175 177 174 180 173 174 175 175 175 178 178 176 179 180 179 176 174 177 180 177 178 181 178 180 177
 170 170 168 169 167 169 168 170 168 168 168 174 174 169 170 170 174 169 172 173 170 172 173 173 172 172 177 173 173 177 176 175 177 178 174 177 175 173 177 174 173 173 173 175 174 172 174 179 171 179 175 174 175 174 175 172 176 173 176 177 177 173 175 175 175 175 177 175 177 179 178 177 177 176 176 179 177 181 178 178 177 180 176 177 179 180 178 178 178 178 180 176
 169 168 170 167 168 168 169 170 170 169 168 174 175 171 174 171 172 173 172 175 172 174 173 173 173 174 174 174 173 177 178 172 177 176 170 170 176 170 175 173 174 168 172 178 148 123 147 171 159 177 176 172 179 174 172 174 182 176 174 176 172 175 174 176 178 177 177 176 175 176 177 177 179 177 177 177 179 179 178 176 178 180 177 182 181 181 180 180 177 180 181 179
 166 167 168 168 170 167 168 171 169 170 169 171 172 168 173 169 170 171 171 173 172 174 172 172 174 177 174 175 173 177 178 172 168 162 161 164 175 146 123 122 101  80  58  32  44  19  41  41  97 115 139 149 177 164 175 179 168 168 170 177 175 176 174 176 175 176 175 175 174 177 178 177 179 177 177 176 177 177 178 177 182 180 178 179 179 179 178 178 177 179 180 180
 169 169 167 167 169 166 167 168 169 172 169 171 173 169 174 170 173 171 175 172 172 175 173 174 173 175 173 175 173 176 170 176 173 162 151 127  60  70  39  30  28  24  35  40  31  38  28  41  50  36  63  45  54 112 163 178 163 173 176 176 174 176 176 177 177 173 177 175 174 177 176 175 179 175 176 181 181 182 178 177 181 180 183 180 183 181 178 179 178 180 179 180
 168 167 171 166 172 171 169 168 172 169 168 173 172 169 173 169 170 173 171 172 171 174 173 174 175 173 173 176 173 177 160 156 163 111  61  31  20  19  17   9  16   8   7  14  23  31  11  32  49  44  32  27  15  19  44  59 105 137 164 171 171 174 178 179 179 173 179 175 177 175 176 175 179 175 176 178 175 179 180 179 183 182 181 181 182 181 180 178 176 179 178 179
 168 170 167 170 169 169 170 170 171 167 174 173 171 169 170 174 176 172 171 173 173 172 172 178 177 177 157 183 178 103  88  59  19   7   4  10  15  24  17   9   6   8  14   2  17  21  37  38  17  37  53  34  24  33  41  31  45  36  58 155 178 166 178 175 185 183 182 170 176 175 176 175 175 177 177 176 180 182 179 181 180 182 181 178 182 179 176 178 176 180 181 176
 172 165 169 170 169 170 166 171 168 168 175 173 173 175 173 173 176 172 174 173 176 175 174 172 174 169 164 138  77  46  15   5  18  15   7   8  13   9  19  22   5   8  11  18  11  18  27  13  20  13  32  22  39  34  18  35  30  32  36  49  85  97 153 185 179 182 167 176 178 177 178 178 178 179 180 176 181 182 179 180 179 179 178 179 183 181 179 182 179 182 181 175
 169 168 168 169 170 170 170 172 171 166 173 172 171 173 175 172 176 171 175 172 174 173 173 175 172 165 120  19  14  15   8  11   9  18  15  15  18   6   5   9  12  20  22  13  18  20  16  25   4  14  32  19  31  50  35  27  42  40  41  34  53  53  81 149 164 151 177 174 180 178 178 178 177 177 179 173 178 180 177 178 179 180 179 180 182 179 177 179 177 179 181 175
 166 170 168 169 171 168 170 170 169 171 173 174 171 174 175 173 171 176 168 178 174 170 163 157 109  55  20  13  19  10  12   8   6   9  12   8   3  15  10   7  17  11  16   6   9  22  13  33  27  18  35  16  38  31  35  41  21  29  47  22  42  45  44  73 108 133 165 179 178 180 178 176 176 177 178 178 179 179 177 181 178 184 180 181 177 181 177 180 183 182 182 176
 167 171 170 167 170 169 171 175 170 170 171 175 172 175 174 173 172 168 179 179 181 148 157  40  30  10  17  12  15  10   7  12   9  15   7   5   8  10  16   5  17   9  12  13  18   8  11  14  32  35  16  33  30  43  32  39  51  36  35  41  24  41  25  43  71  88 163 163 179 176 174 177 179 180 180 179 179 179 182 177 180 177 181 181 181 183 177 178 181 182 182 177
 169 170 170 167 170 167 169 174 170 169 172 175 173 174 172 175 170 178 169 178 155  61  15  20   4  20  10  13  10  12  10  11   4   8  10  11   9   4   7  14  16   7  10  20  13  15  10  12  23  31  19  21  20  23  43  45  47  34  24  34  47  46  34  37  52  52  59 126 163 178 178 176 177 178 179 180 179 180 180 183 179 186 183 181 182 183 183 181 180 182 182 177
 169 167 168 169 171 167 169 174 170 172 173 174 173 174 173 175 178 171 173 129  58  25  20  11  10   5   1  14   8  15  11  12  15  13  17  18  10  17  14  21  13  21  14   6   8   5  29   9  26  25  37  19  42  14  18  17  37  40  55  37  33  35  28  54  48  36  31  46  94 165 180 176 178 181 179 180 180 180 181 177 180 179 183 180 178 182 182 181 179 182 181 176
 169 170 171 167 172 166 173 171 172 169 173 174 174 172 175 174 161 157 120  31  11  16  22  14  25  14  16   7   5  10  10  12  13  15   3  27   7  15   6   9   6   9  34   2  14  21  18  21  11  15  52  12   6  56  29  10  28  34  43  34  27  60  56  56  29  64  46  27  33 102 185 178 173 177 175 178 181 180 180 180 183 182 181 180 178 180 181 180 182 178 181 183
 174 174 170 169 171 170 171 170 172 171 171 175 175 173 176 175 177 135   9  10  15  12   6   8  24  19   2  13   9   6  21  12  10   8  13  16  22   1  13   3  16  16   6  28  12  15  11  22  16  17  21  25  17  33  24  32  38  21  33  31  40  63  53  65  66  57  56  49  46  41 121 179 178 178 177 177 182 183 179 177 179 179 182 182 183 184 177 183 178 182 178 180
 173 171 173 170 170 170 172 173 176 172 176 175 174 171 175 177 145  23  12  23   7  12  11  16  21  21   8  11  15  15  18  14   9   4  11   9  23  21   4  28  25   6  16  18  15  23  14  25  37  35  27  19   7  29  30  32  44  26  32  47  42  52  49  36  55  67  43  37  58  44  63 121 175 184 183 178 182 181 181 180 183 182 183 184 181 182 180 180 182 181 181 180
 170 169 173 169 169 170 172 173 172 170 170 175 177 175 172 177  28   7   9  26  21  24  12  12  15   6   8   5  22   6   2  20  11   0  20  16  16   9  15  13   1  15  10  24  22  22  20  25  16  29  37  28  25  24  18  28  21  39   7  50  48  37  37  50  45  48  55  53  48  60  22  55 163 182 181 181 179 184 181 180 180 181 182 182 178 183 179 182 182 181 185 183
 172 172 171 170 172 171 172 174 174 174 174 178 170 172 170 121  22   7  17  12  12  20  15   8  15  15   8  16  17  11  16   5  16  11  16  16   8  14  14   6  21  14  23  10  19  17  30  27  12  12  37  26  25  26  42   4  31  24  50  22  41  56  53  69  62  41  56  68  57  47  47  52  93 173 183 180 179 182 179 180 180 182 180 184 184 184 180 181 180 178 181 178
 171 168 171 171 172 171 172 174 172 173 172 176 179 180 169  35  22  20   9  14  16  13  11   9  16  13  12   6  18  21  22  21  10  20  17  29  12  17   6  11   9   8  14  21  24  15  14  19  26  24  29  38  27  25  40  29  37  39  38  42  44  13  46  59  50  67  49  71  62  49  45  59  42  85 167 180 180 183 179 180 182 185 180 182 184 181 182 180 181 180 184 180
 171 172 173 174 171 170 172 172 172 171 172 177 172 168 143  10  19  19  13  11  14   7  14  11  21  18  25  12  24  16  15  17  18  27  37  11  20  16  14  15  14  25  10  31   9  10  14  17  13  33  23  21  31  37  17  39  32  35  58  53  42  49  48  43  46  49  45  29  50  70  53  48  69  60 142 183 177 183 184 182 182 184 183 179 184 179 182 179 184 179 183 179
 170 172 172 170 174 171 172 172 174 175 171 176 170 170  34  21  17  11   7   6  12  10   9   7  29  26  10  24  15  20  13  18  29  48  33  38  31  25  15  29  28  20  37  32  26  14   5   7   8  24  24  17  27  29  26  43  33  39  50  40  47  61  59  61  63  54  65  81  48  46  36  44  48  43 146 176 184 184 182 183 183 183 184 177 186 180 183 183 181 185 185 178
 172 175 174 173 174 172 172 172 173 171 176 172 174  58  15   8   9  16  16  18  17  18  21  14  29  15  29   8  24  14  26  43  48  46  43  38  42  32  28  32  34  15  25  34  28  15  35  21  27  35  33  34  27  38  29  33  30  36  54  51  61  61  66  62  71  98  70  66  77  68  77  52  32  42 123 173 183 183 181 179 180 184 185 181 185 181 183 183 181 182 181 177
 169 173 170 173 170 172 172 172 173 170 180 178 138  27   3  12   9   4  13  21  12  26  26  48  20  17  24  46  42  54  55  62  78  75  51  37  39  27  27  22  34  24  27  25  30  39  37  29  43  42  41  45  36  48  32  31  40  46  51  69  77  81  76  86  86  88 114 121  71  71  52  75  62  29  83 160 178 179 180 180 180 180 182 182 182 180 182 184 181 185 184 178
 173 171 171 172 170 175 169 177 172 176 180 155  33  25  10  15  13  14   1  27  22  50  49  60  60  52  57  58  76 104  89  80  98 111  96  74  51  47  33  36  37  43  42  49  59  47  53  54  57  67  78  74  69  57  63  57  79  95  86  90 107 109 138 100 135 141 121 123 115 100 124  94  76  67  52 130 175 179 179 182 183 176 183 181 182 183 181 181 182 180 184 180
 175 174 172 174 171 173 173 177 172 178 156 164  27  15  11  20  25   4  19  33  50  51  64 100 109 102  89  90 128 124 119 119 126 133 128 126 123 114  73  57  68  80  77  81  80  79  79  83  88 123 112  99 101 112 126 128 134 134 135 122 154 140 148 162 164 165 173 163 177 177 153 153 131 165  47  35  94 165 182 181 181 181 182 183 185 184 182 181 183 179 183 181
 169 173 171 173 171 174 175 178 174 173 168 116  11  16   8  16   3   7  29  55  80  67 102 117 116 120 113 124 130 124 121 125 129 134 134 135 127 131 123 105 104 118 116 117 114 109 100  99 134 137 128 133 133 137 154 157 162 161 156 165 167 166 158 174 166 190 197 188 193 199 192 188 189 139  51  38  24  97 184 181 182 185 179 182 182 181 183 183 180 179 182 181
 170 171 171 173 169 175 168 180 173 182 169  96  18   4  22   7   8  31  51  83  96 107 122 112 126 123 127 122 126 129 130 125 132 135 135 136 126 136 131 125 130 138 133 136 131 138 137 139 145 145 152 155 154 158 159 167 167 162 171 175 179 182 177 179 194 192 208 195 208 201 192 201 173 109  68  53  71  41 165 174 182 184 180 183 180 180 184 183 180 179 183 181
 170 172 173 173 175 173 174 176 176 170 156  38  17   1  11  13  23  34  78 105 117 117 119 118 121 126 123 127 127 131 129 123 134 131 133 132 135 138 134 128 129 136 135 140 138 145 142 144 145 144 158 157 162 157 166 162 166 164 162 175 172 184 173 183 193 197 196 204 198 194 197 188 172 107  90  51  71  54 103 180 180 181 182 183 181 184 184 185 183 183 183 184
 171 171 168 172 174 171 174 176 173 183  84  10  13   6   6  29  24  49  90 120 121 124 117 116 120 124 126 129 128 129 132 128 136 138 137 133 135 135 131 131 132 137 139 134 134 138 139 143 145 145 157 160 160 162 165 168 172 168 177 173 176 182 178 181 194 194 195 203 203 206 204 203 172 165  86  57  64  44  73 174 182 181 181 182 183 184 181 184 181 183 182 185
 170 172 173 173 176 173 172 173 170 182  25   9  15  16  17  28  35  74 101 124 123 122 125 124 126 127 124 122 127 126 128 130 132 138 135 131 134 134 133 131 137 133 140 134 138 142 142 140 147 147 151 146 158 154 155 167 161 162 178 175 176 180 174 184 185 192 191 199 206 202 204 191 195 174 118  81  42  62  62 155 184 185 183 185 184 183 180 182 180 184 183 185
 175 172 173 174 178 174 173 175 175 176  44   9  13   7   9  23  37  79 107 115 123 118 115 122 124 118 130 129 129 127 129 129 132 128 135 132 131 129 128 138 137 140 130 135 136 139 136 139 140 149 143 140 153 154 164 155 169 164 160 170 167 172 178 188 182 177 194 191 193 202 198 201 208 162 126  80  55  38  60 153 187 184 183 183 183 185 180 185 180 185 181 182
 171 172 174 172 173 172 171 172 175 170  26  19  19  22  15  28  54  94 111 130 128 125 121 123 123 123 129 123 129 129 129 129 130 126 131 132 132 132 138 134 133 136 134 136 136 140 142 145 142 145 143 140 144 151 158 155 156 163 160 163 161 166 174 185 183 186 186 193 197 203 199 204 198 182 140  75  68  79  71 125 183 189 183 185 184 185 180 184 182 186 183 180
 172 172 174 172 173 171 175 176 174 108  13  20  12   3  25  32  58  85 118 124 111 119 119 122 121 125 122 131 132 129 131 132 132 131 130 135 133 132 136 130 131 130 134 132 135 140 144 141 143 144 147 144 149 148 150 154 159 154 158 161 162 166 169 179 182 186 189 189 198 202 201 202 203 183 138  99  80  63  74  82 178 187 181 183 184 183 183 182 182 188 184 182
 175 171 174 173 176 177 178 176 177  99  12  24  10   6  32  30  57  75 122 121 134 123 123 126 126 127 123 131 116 132 127 128 130 133 130 133 130 137 132 139 134 130 133 129 136 138 141 139 146 143 144 137 138 141 147 156 145 151 160 161 162 169 168 171 185 173 190 188 188 192 194 194 192 187 144 117  99  58  64  57 173 181 182 185 184 183 182 183 182 182 180 182
 175 171 173 173 175 172 169 174 167  95  26  29  17  15  21  51  53  95 102 112 123 120 119 126 123 125 122 124 130 131 137 132 127 138 138 139 135 132 133 129 131 129 130 124 127 138 140 143 142 139 137 133 134 148 151 153 150 157 157 162 169 168 167 162 172 175 185 186 188 186 191 186 199 182 147 107  91  84  46  63 153 179 181 182 181 181 185 182 185 184 184 184
 174 174 173 173 177 175 174 177 170  75  21  27  18  21  29  47  55  77  91 113 118 119 119 121 122 124 123 120 133 132 134 129 130 131 131 133 128 132 131 133 129 133 131 128 126 128 134 141 144 141 143 145 145 150 153 157 158 162 163 167 166 167 165 171 169 181 175 184 187 189 188 191 187 172 156 111 102  67  59  55 146 183 185 183 182 182 182 183 183 184 184 183
 175 175 174 174 176 176 175 177 172  35  30  18  19  20  33  51  75  74  90 104 116 121 119 122 128 123 125 126 129 131 130 130 128 130 130 133 132 130 129 138 135 136 132 132 132 139 138 144 144 143 146 147 153 143 145 150 156 155 164 171 164 171 168 175 175 180 182 189 185 188 186 186 186 153 143 126 101  68  59  42 127 179 186 186 186 185 181 185 183 183 184 183
 169 173 174 173 175 172 172 178 177  33  21  22  22  32  42  58  75  85  91 107 109 122 123 123 123 121 122 125 120 127 134 128 136 134 141 139 140 145 135 135 138 138 126 129 138 130 144 133 145 143 146 142 144 150 151 157 154 160 166 170 170 173 172 173 178 184 178 184 191 184 191 187 190 162 121 111  88  78  68  46 109 178 185 182 185 184 184 185 183 183 187 185
 171 171 177 174 176 172 173 177 172  53  15  16  30  30  52  67  81  66  91 108 118 117 116 119 124 125 125 131 126 128 131 127 131 139 135 142 137 143 142 141 146 141 143 143 137 142 141 142 139 145 144 141 139 162 156 158 168 170 178 170 173 170 172 170 171 179 176 185 188 185 188 180 186 169 144 115 102  90  71  72  96 191 185 182 186 184 185 184 185 181 185 182
 170 172 177 174 176 173 172 178 175  71  11  17  23  31  45  64  80  77  92 109 120 121 118 120 123 127 129 130 130 131 130 129 132 138 144 139 145 143 144 141 142 143 144 144 142 147 144 143 145 153 143 149 145 150 161 164 173 173 176 179 174 181 175 177 179 176 177 184 184 180 184 189 178 172 135 135 114  93  89  58 134 184 184 182 185 184 185 184 184 184 187 185
 172 172 175 173 175 173 172 178 181  63  10  22  16  41  37  56  74  84  90 118 120 120 121 125 123 125 132 128 133 135 137 138 144 145 139 145 142 147 144 142 143 151 144 144 145 142 151 144 145 149 150 157 158 150 156 170 159 172 175 182 173 176 181 183 184 180 180 185 181 182 186 184 169 172 140 125 109  91  84  77 165 187 184 182 184 183 185 185 185 182 184 183
 173 175 175 177 176 174 177 178 175 102  25  19  21  38  50  68  76  85 113 121 121 120 125 118 108 128 127 131 134 136 136 141 142 144 141 146 141 146 141 147 149 147 151 148 147 151 155 150 150 144 152 156 158 154 161 157 166 172 172 176 173 173 176 179 184 177 182 180 188 188 185 186 180 152 148 121 110  78  78  87 153 190 182 184 184 184 185 185 184 185 186 186
 173 176 174 176 177 175 175 178 175  95  17  25  30  39  66  63  68  95 118 118 123 120 121 122 112 128 134 131 138 134 137 137 139 135 142 143 144 146 146 147 140 146 142 143 143 145 154 149 149 138 145 155 160 155 157 160 168 160 171 169 171 173 173 182 180 171 183 180 185 190 188 195 176 170 142 114  82  92  81  70 173 187 183 185 182 184 184 185 184 186 186 186
 173 176 175 175 175 175 174 178 176 127  26  21  30  30  57  63  89 116 116 118 125 121 128 126 117 131 133 132 138 135 134 135 134 134 140 145 142 143 145 137 137 148 149 144 141 145 155 144 142 144 144 150 164 166 163 156 157 166 162 166 164 170 170 172 174 175 184 184 184 181 190 184 193 178 162 129 134  81  84  83 160 188 183 184 184 184 185 183 183 185 186 185
 169 176 174 177 173 175 175 176 180 174  20  32  30  48  69  79 109 118 116 120 118 123 123 122 132 139 134 147 140 144 140 135 148 133 136 144 138 139 143 137 140 145 145 140 139 151 154 148 145 143 143 152 155 161 163 158 162 167 161 165 162 168 178 184 180 184 185 190 189 187 191 192 184 178 172 144 140 101  80  69 177 184 184 182 185 183 182 186 185 186 186 186
 171 176 173 175 175 178 176 176 178 172  25  26  35  45  66  88 113 118 118 113 120 122 129 129 141 139 143 141 140 143 135 144 139 139 136 133 144 139 148 135 142 143 141 140 143 148 150 144 141 141 141 142 149 158 166 166 159 170 174 168 177 170 176 179 181 182 183 197 193 198 194 192 183 180 179 149 130 107  78  94 181 187 182 183 183 186 183 186 182 186 186 186
 173 173 173 174 175 178 177 178 178 166  42  20  48  41  70 103 122 120 112 116 122 128 134 135 144 129 109 115 132 133 132 128 127 133 138 139 145 141 141 122 140 134 140 133 140 143 145 142 131 125 133 137 138 147 155 159 157 172 168 167 165 163 165 176 172 174 179 189 193 197 202 189 183 183 182 174 121 101  78  82 186 184 182 183 186 185 183 185 182 185 184 185
 175 174 174 176 173 172 176 178 177 178  59  25  45  44  76 117 116 118 114 120 120 128 127 125  91  70  73 100  78  82  98  85  87  96  99 114 110 123 121 110 120 131 122 130 134 140 146 141 123 122 121 124 132 132 132 125 122 128 129 118 120 119 118 116 121 116 124 151 184 197 198 192 187 184 179 182 140 102  95 125 191 185 184 184 182 183 183 185 185 185 185 185
 173 177 175 174 172 173 176 176 178 179 118  26  39  51  72 120 114 112 116 131 127 128  95  77  66  55  43  37  30  31  52  54  43  52  53  62  77  88  78  93 104 116 122 121 129 134 140 143 132 110 112 106 111  99  92  84  94  80  72  54  62  51  61  47  63  60  69  99 120 159 185 197 185 180 184 186 143  95  85 144 179 187 185 184 184 184 182 185 183 185 185 186
 173 177 175 176 173 176 179 179 182 179 154  40  40  50  90 118 116 106 124 131 120  86  88  74  51  52  52  55  45  17   6  20  18  21  38  31  63  51  83  75  81 103 122 120 121 129 135 142 128 108 103  92  98  84  68  80  73  59  62  44  33  24  38  40  87  70  90  87 112 149 142 184 193 183 181 190 156 104  73 173 184 185 181 183 182 184 183 185 184 182 184 184
 171 176 176 176 173 175 176 177 180 179 162  24  38  56  90 119 121 119 117 127  83  73  65  64  84  98  90  97  99 105  80  73  62  60  29  51  76  74  76  91  85  96 112 121 111 124 131 138 128 113  97  98  87  89  80  82  74  60  51  55  52  83 113 140 144 168 145 120  78 103 118 138 178 189 188 179 153 103  64 177 184 185 185 185 185 183 182 185 183 185 185 186
 177 174 177 176 174 172 174 175 174 179 167  38  53  60 101 116 116 109 119 103  74  91  85  92 105 106 113 117 110 101 100  92  82  67  63  65  66  85  76  87  88  92 102 105 115 116 130 139 127 120  94  83  88  80  79  76  58  62  74  85  94 111 129 152 159 160 164 172 143 139 125 138 153 185 182 179 157 108  90 187 183 186 179 183 184 184 183 185 182 185 185 183
 178 178 175 176 178 175 176 179 176 181 169  52  52  60  95 117 111 117 106 105  96  76 106 113 108 119 118 117 108  95  88  85  80  83  71  79  68  70  70  81  81  95 101 114 116 119 131 135 135 127 117  99  97  81  76  69  63  73  72  75  76  92 119 146 148 159 176 177 173 166 149 151 167 178 186 177 162  97 132 186 184 185 180 181 184 183 183 185 185 186 184 185
 175 174 173 174 176 177 179 186 179 173 181  56  64  58 102 119 113 115 106 110 106 114 113 115 111 100  74  67  73  88  83  67  68  73  41  17  69  70  79  71  88  97 109 118 126 130 137 140 147 142 132 119  95  79  73  76  51  22  53  55  51  61  87  86  69 108 144 152 180 176 170 154 162 180 185 190 139 124 165 182 183 183 180 183 184 185 183 187 184 183 184 185
 173 176 177 177 178 175 179 184 179 179 176 126  55  54 104 113 116 113 112  97 107 105  99  98  73  56  93  61  21   0   1   2  13   6  30  52  42  55  72  82  88 109 110 131 134 144 148 157 162 160 144 129  98  83  75  38  47  27   8   5   3   1   6   8  58 129 122  73 135 177 173 157 173 176 181 188 148 112 181 182 182 181 180 182 184 186 184 186 184 183 185 186
 176 173 175 179 177 174 176 160 113 118 162 179  59  69 109 118 121 116 118 110 101  97  95  57  48  60  19  13  39  44  53   8  53  31 103  61   9  25  66  77  98  99 110 124 130 141 142 156 155 159 150 133 114  88  77  16  33  80  56  40  31  13  27   9  32  14  80 141  63 149 166 161 165 175 183 181 152 120 188 188 185 189 188 183 187 184 182 184 182 182 184 186
 177 173 174 177 175 173 159 103 108 104  82  85  69  54 108 113 116 116 114 110 102  97  74  61  50  13  21 111  88  67  55   5  32  17 141 112  11  23  21  97 104 111 109 122 135 141 142 151 152 160 162 143 128 115  39  17  28  66  72  17  27  16  36  53 161 142   5  54 123  97 151 169 167 179 187 185 151 138 144 139 154 173 185 180 186 184 184 185 184 183 184 186
 175 175 176 179 178 182 126 105 124 133 109 123 119  64 101 117 115 116 115 108 107  96  81  62  82  81  80  71  84  39  28  19  47  89  93 115 113  98  74  94 103 110 114 120 131 138 146 149 158 166 166 159 135 126  81  64  80  82  88  85  61  52  43 112 106 105 143 137  75 128 162 156 172 176 181 186 157 171 179 172 185 197 194 185 187 185 183 185 183 182 184 186
 174 178 175 176 176 184 125  69  83 110 129 128 129  80 109 119 122 115 114 113 106 102  90 107  97  99  95  90  99 101  97  90  93  89  87  82  79  76  75  98 110 111 120 125 133 136 145 147 169 174 179 170 150 134 107  88  65  63  72  67  86 100  90 105 124 124 166 175 165 141 162 170 174 184 187 187 151 180 176 173 171 167 192 181 183 185 184 185 186 185 184 185
 173 176 175 176 176 175 136  73 103 119 129 134 135 104 116 111 119 117 114 113 112 105 112 116 110 111 101 106  99  93  81  90  77  69  71  63  93  89 103 106 119 126 130 130 128 144 139 151 170 178 192 184 172 157 146 114 101  72  68  72  71  81  91 108 131 146 161 172 183 177 167 183 179 189 181 183 169 178 177 138  74 103 173 182 182 185 184 184 183 185 185 185
 176 179 176 176 176 176 141  98  88 123 130 131 129 109 112 121 120 117 115 116 120 116 115 109 113 111 102  95  92  81  78  71  67  65  82  97  99 114 114 130 123 132 132 132 131 136 139 154 165 186 189 188 185 172 163 155 128 119 104  95  81  85  90 112 120 135 162 174 177 179 184 186 189 190 185 182 167 176 161 101  87 108 178 184 185 185 184 185 185 185 185 185
 172 173 177 176 176 179 166 123  74 119 134 132 129 114 118 118 120 116 116 121 118 116 115 115 117 118 114 106 101  97  98  94 101 101 106 120 112 124 125 127 131 132 125 129 130 135 146 154 176 187 196 187 196 185 175 169 164 146 126 129 139 132 132 149 148 161 176 183 184 183 184 190 195 191 187 175 153 179 180 145  81 135 185 184 185 185 185 185 184 183 183 184
 177 176 175 173 175 172 183 114  82 113 128 147 136  92 128 121 118 114 120 120 123 117 118 119 125 126 123 123 122 122 118 116 103 109 118 127 127 127 129 126 131 125 124 128 131 136 142 150 171 191 195 192 194 193 187 181 181 176 155 141 133 143 159 167 174 177 180 189 188 189 186 194 196 190 185 175 157 213 212 169 106 160 185 184 184 182 183 183 184 183 183 185
 174 175 176 176 179 180 173 126  97 108 139 151  93  61 114 121 126 118 115 120 125 120 123 119 131 124 128 126 126 119 110 110 113 126 130 135 134 132 137 126 131 125 127 124 132 131 140 147 166 190 191 196 188 195 196 189 189 183 181 169 148 139 147 169 166 181 186 185 187 186 194 198 183 194 186 185 124 181 216 180 129 176 187 182 183 183 184 185 186 184 185 187
 176 174 177 175 176 172 175 150 108 111 141 123  86 102 112 115 116 116 123 122 121 128 129 128 126 129 127 123 125 115 119 121 125 139 134 133 135 134 128 131 129 126 131 119 130 129 141 148 166 181 195 182 193 185 189 187 191 187 182 190 171 157 146 160 161 172 174 181 186 194 193 197 201 189 182 184 104 151 193 188 151 184 183 185 185 184 184 184 183 183 182 184
 175 174 172 176 170 176 179 168 109 126 136 110  80 133 104 120 118 116 125 121 124 128 133 137 129 128 127 127 125 133 134 133 133 140 136 134 130 134 127 130 126 124 125 125 125 129 143 144 163 184 193 194 184 177 182 187 194 191 186 182 176 177 167 166 167 171 173 188 189 193 193 201 199 198 185 176 116 141 183 194 177 187 183 183 184 184 185 186 184 182 186 183
 177 175 177 177 173 179 175 179 116 127 130  98  91 144 102 118 116 112 125 127 129 129 136 136 139 141 137 131 125 125 134 139 135 135 136 133 135 127 131 115 115 114 118 124 118 138 150 149 166 183 196 192 185 174 158 175 190 181 188 190 180 185 173 179 169 176 182 179 194 180 197 198 197 193 185 171 113 136 174 180 186 187 183 184 183 184 184 185 184 182 186 183
 176 174 177 176 174 176 178 184 120 125 126  97 102 132 111 119 122 118 120 131 124 130 131 138 142 136 137 131 132 134 133 138 141 130 138 132 134 128 112 114 107 112 119 121 122 140 146 155 169 192 193 197 190 184 145 155 167 175 187 188 189 184 177 180 175 178 168 180 187 193 196 195 196 192 184 167 143 146 178 164 189 185 185 184 184 186 186 186 185 183 186 184
 175 175 172 174 172 176 177 178 126 124 126 110 113 134 108 120 117 114 124 121 130 128 134 135 137 132 126 135 135 132 127 138 142 134 139 132 126 108 108 106 115 128 127 129 137 142 142 152 161 177 191 199 204 194 148 118 153 164 169 196 182 188 176 184 181 181 181 183 185 193 189 195 193 187 183 148 159 159 171 160 186 182 183 181 185 182 184 184 184 182 185 181
 172 173 176 174 176 173 177 177 140 121 116 100 109 113  94 121 113 109 125 125 133 129 135 133 134 134 132 135 133 137 134 140 140 141 131 126 112  99 116 122 129 129 135 127 129 131 137 141 149 162 169 179 186 206 204 130 125 150 166 179 178 184 185 178 185 177 185 180 185 183 186 193 181 188 179 148 165 179 192 175 185 185 185 182 185 182 185 184 183 182 185 182
 174 176 177 175 178 177 172 180 152 108 128 115 138 112  93 115 113 108 122 132 134 136 136 138 138 140 132 128 128 130 131 135 136 140 125 120 103 118 134 133 134 131 124 125 127 120 124 133 145 157 157 158 165 188 204 208 118 139 152 172 181 186 187 185 180 187 183 191 189 184 189 186 191 183 174 196 180 191 179 196 190 183 186 185 187 181 183 184 182 182 186 184
 171 176 174 175 172 177 176 175 173 108 102 127 135 137 101 117 111 110 120 125 126 136 131 134 136 131 130 132 138 131 135 137 139 128 123 111  94 133 131 127 125 112 112 106 112 109 111 121 135 149 153 142 142 163 186 198 140 129 146 161 173 175 172 194 192 183 181 184 181 189 181 186 186 183 170 194 207 179 159 186 187 187 185 183 187 182 185 186 183 182 186 182
 175 176 174 174 176 177 177 179 175 123 116 133 135 141 110 123 119 113 118 125 130 128 130 128 127 133 130 131 123 131 125 132 135 131 116 111 108 134 115 101  37  10  12  24 100 101 109 105 122 153  54   9  36 120 160 182 168 124 137 151 166 170 171 185 181 182 186 189 187 182 182 184 182 180 179 201 207 175 193 183 183 186 185 183 185 185 183 185 183 183 181 185
 174 176 175 175 176 175 176 180 179 141 123 134 135 138 114 121 116 112 113 125 129 125 126 127 124 127 129 123 128 128 125 129 132 129 119 100 101 111  99  44  10   6   5  34  73  95  91  95 121  77  16   8  17  45 117 155 154 123 136 147 157 166 168 181 179 187 187 188 185 187 185 184 181 177 172 189 202 205 194 179 186 185 185 183 185 183 183 185 185 183 183 185
 174 176 175 176 176 172 176 177 176 179 127 129 125 121 119 118 120 107 122 120 131 126 125 125 125 123 124 125 130 126 127 132 125 121 107 113  94 117  88  81  66  56  87  90  86  83  92 103 100  87  73  51  60  81  98 145 140 136 130 143 152 163 174 181 179 190 182 184 185 186 183 183 181 181 170 179 198 208 185 181 183 185 185 183 186 184 183 186 182 183 183 185
 172 174 178 176 176 176 179 181 176 172 160 115 121 115 107 126 122 112 120 118 121 131 126 128 129 128 123 124 127 117 132 112 129  78 104 102 103 105  90  91  77  81  85  84  89  96  99 119 117  95  99  93  85  83 119 161 158 155 135 139 151 165 168 180 184 181 187 187 184 183 177 179 184 170 156 183 184 200 183 183 183 188 184 180 185 181 186 182 185 183 182 184
 173 174 176 175 176 175 176 180 176 170 178 182 172 174 170 119 117 111 118 116 123 124 122 127 124 124 124 126 126 125 120 129 121 104 111 105 113 106  94  70  51  75  95  94 102 106 114 132 138 123 128 120 115 130 164 170 172 157 159 144 147 159 167 178 176 182 182 185 187 183 177 187 176 175 141 151 167 186 182 181 184 183 185 182 187 182 184 182 185 185 183 185
 173 175 175 174 173 172 174 178 174 177 178 181 182 177 177 119 107 106 113 120 114 122 125 124 120 125 115 127 128 126 120 121 123 118 109 103 107 111 104 102  90  80 102  87 104 117 123 128 135 145 143 142 153 162 173 172 170 164 160 146 153 158 168 174 171 177 180 181 188 186 180 179 165 184 182 184 183 183 182 184 183 181 183 184 184 184 183 185 184 184 183 185
 172 175 175 175 175 176 179 181 177 179 176 175 180 182 176 134 108 110 117 112 115 119 122 124 123 122 120 120 119 123 120 110 116 115 115 114 109 104  99  95  94  87  91  93 108 111 120 125 136 138 160 143 157 164 169 171 176 173 158 162 150 164 163 166 167 186 181 189 183 183 180 180 168 177 186 183 183 185 181 184 185 184 182 185 182 185 180 186 183 185 184 183
 176 175 175 176 178 177 175 176 180 175 179 181 178 178 182 133 120 118 116 115 117 115 121 124 122 125 123 122 123 124 120 115 119 122 121 116 109 113 111  92  97  81  82 114 117 114 119 117 111 133 149 145 142 145 165 166 174 179 159 172 156 163 165 171 170 187 175 171 185 184 185 176 177 177 181 183 184 183 184 187 183 179 185 184 185 183 183 185 185 185 182 184
 176 174 174 175 176 177 177 178 176 179 183 184 181 181 186 142 121 117 119 117 118 113 116 123 121 121 121 121 120 120 107 120 114 114 106 104  87  74  92  75  68  93 104 100 119 126 123 114 127 126 150 152 149 133 158 133 157 178 168 175 165 165 168 172 179 175 180 165 185 179 176 180 179 184 184 180 181 182 182 184 184 183 183 183 183 183 183 185 184 186 183 184
 177 175 175 176 177 177 177 177 178 175 175 179 175 184 180 151 114 113 118 118 120 116 119 118 122 115 115 117 116 116 114 111 121 109 103  99  90 108  90  96 104 105 105 114 136 131 131 120 124 146 156 143 155 150 148 149 172 156 156 161 176 171 174 173 179 181 173 173 183 186 178 178 183 179 181 182 184 182 182 181 185 185 183 183 184 184 183 185 183 185 183 184
 177 174 176 174 176 177 175 175 174 173 175 182 175 176 183 179 117 114 116 116 113 115 119 116 113 116 107 119 114 110 105 111 123 101 102  90 104  97 110 111 104 115 116 117 134 149 119 118 137 142 173 167 159 166 140 136 151 151 149 151 173 164 174 163 182 173 179 177 185 176 176 179 180 182 184 182 181 181 182 184 184 182 178 181 184 185 183 185 183 185 185 184
 177 174 175 178 176 174 175 179 180 178 179 178 181 175 182 182 118 115 123 115 116 116 116 116 113 110 120 113 117 123  96  91  96  81 103 107  98  99 107 115 124 121 118 110 110 133 141 142 143 115 141 153 170 173 161 159 137 156 116 155 143 174 177 181 176 179 180 183 184 181 175 185 186 185 179 183 185 184 183 184 183 182 182 183 183 185 182 185 184 183 183 182
 176 177 177 175 176 176 176 179 179 180 176 183 180 174 181 182 111 120 116 113 119 117 116 115 115 110 118 109 113 111 106  83  96  91  83  93 104 115 113 108  99  76  73  69  71  79  93 108  91 101  93  95 114 152 175 166 148 146 128 129 147 165 174 178 176 178 180 180 184 174 183 178 176 180 186 180 183 181 182 182 183 183 179 183 186 184 182 185 183 183 182 182
 177 173 174 177 176 176 180 179 175 177 175 181 180 173 181 180  90 123 114 111 110 118 118 111 115 114 119 105 112  93 102  83 103 102  92 101 105 118  92  61  69  72  76  75  75  78  74  90  81 104 104 100  96  97 121 160 160 144 146 149 146 163 152 171 178 173 183 175 185 180 175 179 180 186 182 183 179 182 184 182 182 184 179 181 182 185 183 186 183 185 182 184
 174 176 175 176 178 174 175 176 176 173 178 180 181 179 182 183 100 110 120 120 119 114 115 113 106 112 120 111 111 111  94  81  86  95  72  85  94  76  60  55  59  59  60  63  61  71  78  85  65  73  83  83  90  83  83 117 148 117 125 132 133 138 166 181 175 179 178 183 184 180 181 181 182 183 184 180 179 179 182 180 181 182 184 183 185 183 185 185 184 182 185 183
 174 176 176 176 177 178 178 178 179 175 176 179 182 181 182 182 112 117 117 118 120 116 115 118 108 110 110 113 109  88  96  92  81  70  36  39  50  51  34  21  32  33  31  29  46  53  50  51  44  53  48  46  54  56  69  74  73  65  96 128 137 132 158 176 169 181 174 174 178 175 178 179 184 184 183 185 181 185 182 182 184 185 182 182 187 183 186 185 182 184 186 184
 174 176 176 173 177 176 175 176 177 175 175 180 181 179 182 183 111 112 112 115 120 114 115 112 118 109 104 114 119 101  88  99  90  84  66  49  54  64  72  76  83  75  84  66  66  81  81  86  81  91 105 115 122 114 116 107  95 106 122 116 131 147 166 172 170 176 180 178 181 177 179 178 183 182 183 183 183 183 180 179 181 185 185 182 185 183 184 184 184 181 185 182
 178 176 175 177 177 173 181 180 175 175 181 183 179 180 184 181 119  88 116 111 116 114 114 114 105 111 107 112 117 108  99  91 103  94 103  91  81  89  87 103 103 102 107 111 120 125  85 110 125 132 134 141 131 138 145 151 159 155 134 130 131 139 168 169 177 176 167 175 179 179 172 183 183 182 183 181 181 181 178 184 182 186 183 181 185 185 182 186 183 184 182 186
 176 177 173 175 176 174 179 180 178 175 181 180 178 177 179 180 114 112  99 116 111 112 108 108 109 110 104 112 112 104 104 103 106 105 106 106  97  88  89  91 100 101 101 116 118 125 101 100 110 119 130 127 141 149 148 156 162 159 155 145 138 141 162 164 166 153 172 174 175 172 172 181 184 184 185 184 181 182 182 179 186 184 184 183 184 183 184 184 185 184 183 185
 175 176 176 177 178 176 177 180 178 176 180 179 180 179 181 183 113 106  88 105 115 109 108 107 109  91  95 110 112  94 103 108 105 103 101 107 106 101  96  82  82  91  91 100  97 109 110 100 103 110 120 122 126 145 155 153 166 154 159 151 152 155 156 163 168 164 161 172 171 167 173 185 184 183 185 183 184 182 183 177 187 181 184 183 185 182 185 184 186 184 184 185
 176 178 176 179 179 177 176 181 178 175 181 183 180 180 184 181 120 102 102 103 102 104 112 111 111  88  99 104 110 102 101 106 104 107 105 100 110 101  95  93  83  79  83  87  82  89  97  85  93 102 113 121 130 135 148 152 148 155 159 156 148 158 159 157 162 159 174 170 166 170 190 179 182 183 185 184 184 185 182 180 185 185 185 182 186 183 186 182 186 184 183 185
 176 175 174 178 174 177 176 178 178 177 178 181 176 179 178 182 109 106  99  95 103  95  98  99 105 101  91  98  98 106 107 102 102 104 104 103  99  95  88  82  82  78  75  66  68  76  76  74  82  95  98 108 116 134 139 140 148 143 153 158 152 153 159 165 157 167 172 170 157 181 181 185 182 186 182 182 183 183 183 183 186 185 182 182 184 183 184 186 184 184 184 187
 178 173 174 174 173 178 177 176 177 178 177 182 178 175 178 179 105 102  94  79  93  94  88  97  98  96  96  98  95  96  98 104 104 104 103  94  99  91  83  76  74  71  63  55  50  64  63  64  66  69  90  98 108 119 132 139 144 139 148 153 151 151 160 161 161 164 167 158 176 189 178 182 179 183 181 181 182 185 182 182 185 184 184 181 185 181 181 183 181 183 183 186
 175 176 177 174 176 178 175 178 176 180 175 180 179 176 179 175 101 104  97  86  89  91  91  85  97 101  93  98 102  99  92  97  88  98  95  95  93  95  88  82  73  78  71  69  72  77  71  81  81  80  97 100 113 127 137 138 141 144 152 151 148 155 164 165 167 159 156 171 182 182 183 185 182 186 182 183 183 183 178 180 184 180 184 179 183 183 184 186 184 182 182 184
 174 172 175 178 176 175 178 181 179 175 177 177 180 177 185 174 103  98  94  83  99  82  84  86  86  97  85  91 104  93  89  98  94  95 103  96  87  89  91  86  91  85  80  84  77  79  79  88  96  97 108 101 124 127 139 139 148 142 142 157 157 162 150 170 162 154 162 185 185 178 183 184 182 183 184 180 182 181 183 183 181 180 183 180 185 183 183 184 181 185 186 185
 172 173 175 179 176 175 179 181 178 175 180 182 177 182 182 159 107 107  99  88  95  73  81  80  85  89  89  86  92  92  91  88  95  93 101  97  98  93  96  90  87  87  90  92  96  97 103 102 111 117 113 129 120 136 140 145 153 145 156 153 160 161 154 161 156 147 187 183 186 182 182 182 182 183 184 183 177 183 182 181 184 184 183 181 183 184 183 185 181 184 184 184
 173 173 175 178 175 175 176 179 175 176 180 182 180 185 183 140 106 104  96  93  87  81  62  70  75  67  70  76  79  89  88  98  97  96  86  93  98  97  88  92  94  97 104 107 112 109 122 128 136 133 141 135 142 136 145 147 146 157 145 163 162 156 142 156 143 178 181 186 186 183 183 183 181 184 183 183 178 182 182 182 184 183 184 185 183 184 183 185 181 183 184 183
 176 173 174 177 176 173 175 178 176 176 178 177 180 179 180 125 100  93  91  95  79  85  77  71  77  68  63  81  78  89  97 100  99  92 105  97 107 103  99 105 105 108 114 115 111 117 116 124 136 141 136 155 148 151 148 155 155 162 164 160 164 153 142 145 168 184 187 183 183 181 183 183 183 183 183 180 183 181 183 183 183 181 180 182 180 182 182 185 182 181 180 181
 177 175 174 176 177 176 178 176 177 176 181 180 186 184 173 105 104  99  95 101  85  87  89  82  58  69  56  66  74  82  75  93 112  90  96  93 101 102 110 112 107 107 111 109 107 109 111 111 121 129 139 151 145 154 151 155 153 159 162 151 151 140 110 165 161 183 182 181 184 183 182 183 183 183 182 179 185 182 183 178 186 183 183 182 186 182 182 185 185 183 185 183
 175 176 177 176 177 175 179 177 178 178 181 182 177 177  87 101  95  97  90  81  94  83  88  70  76  57  63  53  59  71  79  94  99 110 105 113 107 107 105 100 110 106 106 102 106 102 103  95 113 119 138 126 148 133 138 166 146 124 155 138 138 109 146 167 178 185 187 183 183 182 183 183 184 182 182 182 185 184 183 179 184 184 182 180 185 183 182 185 182 184 185 181
 174 176 177 178 177 177 178 176 178 181 183 177 169 106  95 100  92  95  98 100  92  86  74  69  63  59  70  69  59  67  86  73  65 110  89  90  77 107 104  92 101  97  93  89  98  93  94  85  86 102 125 115 149 126 148 137 141 144 153 122 125 144 162 165 182 184 182 183 183 183 183 181 184 183 183 179 183 184 179 181 184 181 182 181 184 183 183 184 182 182 184 181
 176 177 177 179 176 173 183 178 178 177 111  18  81  76  81  97 100  90  91  83  89  85  78  77  78  69  71  64  65  59  68  74  80  96  87  92  88  90  85  82  97  98  92  89  85  77  73  71  96 101 107 126 123 154 135 128 141 154 131 102 113 141 153 165 181 180 184 183 182 182 183 183 182 183 181 180 185 183 181 180 181 183 183 182 185 185 179 186 179 183 183 184
 176 176 176 176 178 180 178 181 174  96  28  30  83  77  75  97  94  91  91  84  82  84  91  85  78  73  63  75  59  40  28  59  78  88  81  87  74  85  80  90  89  99  99  93  79  71  72  70  82  85  98 110 114 125 128 117 128 102  98 112 130 162 160 160 182 181 184 183 181 184 183 181 182 183 182 177 182 180 179 180 180 181 182 180 184 181 184 182 182 185 185 186
 177 176 177 176 178 178 175 185  94  28  34  51  72  70  71  96  94  89  91  91  82  88  84  78  82  70  70  57  64  67  51  51  50  73  76  67  84  83  76  72  84  79  92  82  76  73  79  83  87  89 103 100 110 103 114 107  90  89 116 137 150 156 166 176 182 182 184 183 181 184 183 182 182 183 183 178 184 182 179 181 180 183 184 182 185 182 184 182 183 184 183 185
 174 176 177 179 175 175 176 101  44  39  38  25  70  65  73  92  95  86  87  83  92  84  84  87  67  77  69  69  71  59  55  61  28  53  61  66  71  89  64  76  78  92  65  76  59  54  77  63  65  81 105  95 105 100  89  77  85 113 133 130 170 157 164 193 185 181 183 183 183 182 182 184 184 182 181 180 182 181 181 180 181 182 182 180 183 184 180 186 180 182 182 182
 179 174 172 168 156 127  86  54  43  41  35  17  54  58  81  92  92  89  91  88  88  87  80  84  67  80  71  66  65  55  61  58  57  27  30  47  48  63  62  58  66  74  84  63  62  60  47  59  76  65  69  70  76  49  65 101 100 138 143 148 153 159 168 187 177 180 179 182 181 184 181 182 181 180 182 183 182 182 183 180 183 183 183 182 182 181 183 183 183 185 184 179
 114  49  53  49  47  46  41  43  43  36  39  25  30  50  78  90  93  88  88  85  91  83  76  83  68  71  66  61  56  62  54  52  51  25  35  25  42  37  50  46  40  63  62  59  53  56  45  46  47  65  34  59  55  85  79  97 135 142 138 152 157 165 174 187 181 180 183 180 179 182 185 184 186 182 183 180 183 182 184 181 183 184 181 181 183 181 183 183 183 184 185 179
  64  25  37  33  34  38  36  38  41  35  34  27  13  39  73  90  88  86  89  90  86  89  84  91  76  84  61  72  54  76  52  64  47  53  50  51  40  33  55  37  46  28  44  48  48  55  63  53  60  51  70  85  50  78 113 139 144 128 152 169 159 161 176 178 182 179 184 181 183 181 185 180 185 183 185 184 181 181 182 180 183 183 183 181 182 181 182 183 182 186 185 178
  50  29  35  34  32  32  35  38  36  35  36  33  17  32  63  87  92  84  81  82  88  84  92  84  76  70  61  70  76  63  57  60  64  54  46  52  38  47  47  41  40  39  59  53  51  58  59  55  57  66  55  70  91 114 134 150 154 157 155 156 169 166 177 186 180 181 185 180 179 183 183 179 184 181 182 180 183 184 184 184 181 185 180 182 181 185 183 183 181 183 182 185
  47  33  27  32  26  29  29  33  35  35  36  29  32   8  41  85  88  83  84  88  90  91  92  86  72  80  70  71  73  57  57  65  67  53  56  57  50  55  37  56  50  44  47  44  44  50  59  56  70  82  85  86 106 131 139 148 155 154 165 156 161 173 178 181 180 179 182 181 179 181 181 181 186 184 181 182 182 185 179 181 183 181 180 180 184 184 180 179 177 184 184 185
