P2
# Generated by OpenCV 4.2.0
92 112
255
  43  47  57  83 134 182 200 200 188 163 128  90  60  73 133 174 181 177 149  92  44  38  36  37  37  37  38  38  39  53  58  58  64  72  67  68  71  73  68  68  59  41  43  42  54  50  37  44  70 104 125 138 105  57  44  41  37  38  37  38  37  36  37  37  36  46 112 163 180 185 170 120  73  51  38  37  38  39  41  40  39  39  40  39  40  40  40  39  39  39  38  38
  38  39  38  60 121 172 189 190 173 130  78  52  40  58 122 165 177 175 151  98  50  39  38  37  37  37  38  37  39  53  58  58  63  71  68  65  72  73  67  61  56  50  47  38  46  35  36  41  44  43  53  59  55  50  47  40  39  42  36  37  36  36  37  39  35  46 112 166 182 186 172 123  73  51  38  38  38  40  41  39  39  40  40  39  39  40  39  38  39  39  39  38
  37  37  33  56 120 161 172 172 147  84  39  35  34  47 106 155 173 172 154 108  58  40  38  37  37  37  38  37  40  52  59  58  64  74  70  67  64  58  48  47  46  45  41  37  45  47  49  49  50  36  39  43  30  33  47  52  54  50  41  39  39  37  38  39  35  46 114 169 185 189 176 125  75  52  38  37  37  38  40  40  40  41  39  38  38  38  38  38  38  38  37  37
  38  38  35  57 126 166 169 165 138  77  40  39  36  42  92 146 170 171 159 118  68  41  39  38  37  37  38  39  41  55  61  61  67  80  74  66  48  41  37  32  31  35  31  32  34  36  40  38  38  44  31  42  46  40  37  40  43  48  49  48  46  52  42  38  36  45 114 170 187 192 179 128  76  54  39  38  38  37  39  40  40  39  38  38  38  38  38  39  38  38  38  38
  38  38  35  53 120 162 166 160 135  77  41  38  38  37  81 137 165 172 167 135  83  47  40  38  37  38  39  39  41  58  66  66  73  67  44  44  41  35  29  26  24  33  40  44  37  29  28  30  28  41  33  36  49  44  31  27  36  35  48  56  47  56  44  40  41  49 113 170 189 194 182 132  78  55  39  37  39  40  39  39  38  38  38  38  38  39  38  38  38  38  38  38
  37  38  36  50 109 151 158 151 125  73  40  37  37  35  66 125 161 175 174 151 101  59  43  39  37  39  39  38  41  63  68  61  61  47  32  35  37  30  30  38  34  41  38  32  45  43  35  31  31  43  40  43  40  34  36  38  40  41  41  50  49  46  47  40  45  56 112 166 185 192 181 135  81  56  37  38  40  40  39  39  37  37  38  38  38  40  40  38  39  39  38  38
  37  37  35  46  98 141 148 143 118  70  41  38  37  35  52 111 157 171 172 160 121  76  48  40  38  39  39  40  43  56  46  32  31  41  32  28  31  31  37  35  31  41  32  42  46  38  38  34  40  46  52  39  27  42  45  41  47  48  48  40  55  36  37  49  53  49  78 145 177 188 177 132  79  54  40  38  40  39  40  39  39  38  40  40  40  41  41  40  39  39  39  39
  37  37  36  45  91 134 144 138 115  69  40  40  38  37  39  90 144 162 166 162 135  91  58  44  39  38  42  46  42  32  30  43  37  21  23  36  31  33  37  40  52  56  56  48  42  33  31  30  40  35  44  49  33  37  38  34  45  40  40  38  41  41  38  37  53  41  35  85 147 181 176 129  76  53  39  39  39  39  40  41  38  39  39  41  41  40  41  40  40  40  39  38
  37  37  35  45  92 134 141 136 115  70  39  38  38  38  35  65 120 149 160 160 142 104  71  52  40  38  49  42  39  35  37  36  37  30  32  32  31  36  31  51  65  51  47  44  51  42  44  47  35  40  43  45  43  43  43  43  42  37  37  39  38  40  49  42  33  31  41  37  68 109 136 122  75  52  39  38  39  39  40  38  39  39  39  40  42  42  43  42  41  39  39  38
  37  37  36  46  95 135 143 138 116  71  40  38  38  38  36  45  88 128 147 147 139 114  85  62  46  40  37  43  40  48  43  30  41  47  44  38  39  49  47  50  53  52  48  54  57  52  47  38  47  55  46  54  50  43  41  36  42  29  29  34  44  41  47  41  35  34  36  44  33  29  61  91  72  52  38  37  38  39  39  38  39  39  38  39  44  43  44  43  40  39  40  39
  38  37  36  48  99 140 149 145 120  71  40  38  37  38  37  37  58 103 126 131 127 116  97  54  44  37  35  41  39  29  48  45  41  50  43  46  46  52  52  56  58  54  62  61  49  47  52  46  46  53  54  58  49  50  49  49  60  52  46  36  37  49  53  50  48  50  48  51  45  38  43  48  58  54  39  38  38  38  38  37  38  39  38  40  43  42  42  42  40  39  39  38
  38  38  36  49 104 144 153 148 123  73  41  38  38  38  37  37  42  76 104 111 114  85  45  38  35  36  38  32  36  36  49  39  37  43  47  45  52  60  61  53  70  75  58  66  86  65  48  44  62  61  67  69  53  47  46  61  67  62  60  75  45  44  62  71  59  45  37  36  35  38  43  42  46  44  49  37  39  38  38  37  38  38  38  39  41  41  41  41  40  39  38  38
  39  38  36  51 108 150 159 154 128  76  43  39  38  38  37  38  37  52  79  75  63  44  32  44  40  38  34  27  41  41  36  48  45  48  55  59  51  70  80  75  75  81  88  95  84  65  71  87  82  59  78  89  74  68  50  71  72  52  57  71  54  52  48  55  59  59  44  45  40  37  45  42  37  45  46  45  41  38  38  39  37  37  38  38  39  39  42  40  39  39  39  38
  37  36  32  51 122 170 175 166 136  80  43  41  38  38  38  38  37  41  50  39  28  37  43  41  39  36  40  46  51  48  44  45  45  58  59  76  81  89  92  93  95 109 109  97  62  78  83  81  65  73 103 105  98  93  75  58  57  48  69  75  64  55  59  69  63  47  54  60  57  54  60  50  43  46  55  52  39  38  38  38  37  38  37  37  38  38  39  39  38  38  39  39
  42  42  46  94 164 191 185 172 138  81  45  40  38  38  38  38  37  35  38  40  33  43  52  43  45  55  45  46  43  55  53  50  64  58  60  76  83 108  92  82 120 115  89 100  91  68  71  71  76  88  82  85 110  84  70  83  76  74  82  72  64  62  63  48  40  48  70  68  60  57  63  42  40  42  46  55  47  37  37  38  37  37  38  38  38  38  38  39  38  38  38  37
  93  95 115 154 182 188 179 167 131  75  43  39  38  37  39  37  40  32  34  36  36  47  60  49  54  47  47  48  70  80  67  65  72  84  97 102 124 133 133 130 115 118 141 149 135 122 120 107 105 110 108 112 129 121 102 103 106 106  92 112 118  95  71  95  92  95  92  86  84  83  57  45  39  39  42  39  46  48  37  37  39  37  37  37  38  37  37  38  38  38  39  38
 123 129 141 156 169 176 174 156 114  60  40  39  38  38  37  41  35  27  29  34  48  42  31  44  46  57  67  73  85  73  73  94 115 125 147 161 167 156 168 178 182 183 177 164 155 172 164 165 153 153 170 173 147 129 146 155 138 125 128 123 132 138 147 135 162 154 133 121  97  97  82  74  76  47  33  37  49  51  41  39  38  37  37  37  37  37  37  37  38  38  38  39
 129 131 140 147 157 164 156 123  75  42  40  38  38  37  40  32  24  34  41  39  36  28  33  43  54  67  83  78  77  88 111 147 158 173 185 183 181 185 197 209 213 209 205 210 209 204 207 199 193 195 196 182 170 175 180 177 174 192 188 167 166 174 193 183 189 186 184 167 143 143 155 128 105  98  60  32  43  41  32  40  38  37  37  38  37  38  37  37  37  37  38  39
 125 125 126 130 131 123  97  62  40  38  39  38  38  39  38  24  32  56  32  30  39  43  49  45  63  75  90 117 140 155 166 155 159 183 191 194 192 197 200 206 207 210 213 214 216 217 216 213 215 212 210 213 209 208 176 187 212 211 206 198 201 202 203 204 198 197 195 189 193 192 178 158 144 135 119  76  30  21  29  36  40  40  39  38  38  38  38  38  38  38  38  38
  99  95  89  83  73  56  42  36  38  38  38  38  38  36  29  30  40  39  40  50  50  51  63  67  78  91 136 165 166 175 175 175 185 190 189 190 194 198 202 206 207 210 212 214 215 213 210 210 212 210 215 215 211 211 210 210 211 209 209 206 204 206 206 208 205 204 203 201 199 201 188 170 152 129 149 135  90  39  28  28  41  40  40  39  38  38  37  38  37  38  38  38
  53  49  47  42  39  37  38  39  38  38  38  38  39  33  32  43  41  36  42  50  59  57  73  91 119 153 169 172 177 176 181 184 187 184 190 197 197 201 204 206 209 214 217 218 214 209 212 212 212 211 212 214 212 213 214 211 209 206 206 202 201 201 205 205 205 206 204 203 198 197 192 190 178 160 158 155 143 108  48  29  34  42  41  40  38  38  38  38  38  38  38  38
  38  40  39  38  38  38  38  38  39  38  39  40  36  28  27  39  39  28  36  45  68  72 115 144 161 169 171 177 177 179 179 181 185 188 194 198 200 202 206 210 214 216 219 218 215 211 214 213 210 209 211 212 213 214 211 209 207 205 204 204 202 200 200 203 204 206 206 206 203 199 192 193 185 176 166 157 158 142  91  27  24  38  41  40  39  38  37  37  38  38  38  38
  38  38  38  38  38  38  38  38  38  39  40  40  24  18  25  36  32  38  44  67  74 125 161 167 167 171 174 175 177 178 174 183 189 191 195 198 202 204 208 214 218 216 214 215 216 214 215 217 215 211 210 209 208 208 211 210 209 209 208 205 205 204 202 203 205 202 205 208 204 204 196 192 186 174 168 163 159 156 135  58  37  41  36  38  38  38  37  37  38  38  38  38
  39  38  39  38  38  38  38  38  38  39  41  36  18  20  26  37  26  43  48  65 108 162 165 169 170 171 174 175 178 171 180 188 185 189 195 198 199 206 211 217 219 216 216 216 215 216 215 219 218 214 203 200 204 207 214 213 214 212 209 206 207 207 205 207 208 204 202 202 198 200 199 193 188 179 168 164 158 160 156 126  52  38  39  40  37  38  37  37  38  38  38  38
  38  37  38  39  38  38  38  38  38  38  39  29  24  14  18  23  31  37  48  83 135 162 168 172 171 171 178 180 177 176 184 184 186 190 198 201 204 207 214 215 215 217 219 219 217 220 218 217 218 216 205 201 204 210 217 216 214 215 212 208 208 209 208 208 206 204 203 202 197 195 199 193 188 181 171 162 161 160 159 147  97  25  29  43  40  38  38  37  37  38  38  38
  38  38  39  38  39  38  38  38  38  38  37  24  22  13  14  20  40  50  79 101 137 165 171 173 170 173 180 181 177 176 181 189 190 194 198 201 206 209 216 215 215 219 217 218 213 216 218 217 216 216 217 214 209 213 215 217 216 216 213 213 212 209 209 208 205 206 204 204 202 198 195 193 190 181 176 166 163 159 157 151 139  52  19  41  41  38  37  37  38  38  38  38
  39  39  39  38  38  39  38  39  38  42  31  21  13  20  19  28  42  53  87 112 148 162 171 175 171 174 179 180 178 177 182 187 188 196 197 201 205 209 212 210 215 219 216 218 216 218 218 220 219 216 219 219 218 215 215 219 215 216 215 212 212 209 210 209 210 207 199 201 203 200 199 193 191 185 176 168 164 160 159 155 151 102  32  32  38  38  38  37  38  38  38  38
  39  39  38  38  40  39  39  38  39  41  27  26  24  25  32  40  51  69  93 125 149 165 172 175 169 171 176 179 181 181 183 186 191 192 194 202 205 211 210 214 216 216 217 219 218 220 220 221 222 221 220 220 221 222 222 219 216 216 216 214 213 213 210 210 209 207 204 204 201 196 198 194 184 183 182 170 166 164 164 161 151 130  61  38  36  37  38  38  38  38  38  38
  38  39  39  39  39  39  39  39  39  37  26  26  18  33  45  46  53  76  94 134 153 163 172 173 171 172 171 178 186 184 185 185 185 192 198 203 206 209 212 216 214 216 220 220 221 221 223 223 225 223 221 219 223 222 221 222 221 217 214 210 211 212 214 211 209 210 210 207 203 199 198 195 186 183 184 171 165 167 164 164 161 145  83  37  44  39  38  38  38  38  38  38
  39  39  39  38  38  39  40  39  41  35  28  25  20  33  49  44  54  83 100 134 141 163 173 171 172 175 171 181 185 184 186 185 182 192 198 204 209 209 212 215 215 218 219 218 218 218 222 224 225 225 224 221 223 222 222 222 221 220 214 209 212 215 213 212 213 212 208 207 204 204 198 196 191 183 184 178 168 169 164 163 161 150 105  45  36  38  38  38  38  38  38  38
  39  39  39  39  38  40  39  39  43  33  23  23  29  43  44  42  64  74 112 114 133 158 162 169 176 177 173 181 183 184 190 191 190 194 197 202 207 210 209 211 215 216 218 219 217 216 218 219 219 218 219 221 222 225 223 222 222 222 218 216 215 216 212 210 212 212 209 209 206 205 200 196 192 186 184 182 174 171 165 165 164 150 111  62  33  32  38  38  38  38  38  38
  39  39  39  39  39  38  39  39  39  30  28  33  34  49  48  45  70  80  90 103 139 142 150 165 172 169 172 182 186 190 195 193 193 194 195 201 206 209 209 212 217 218 219 220 218 218 219 219 218 218 213 216 217 216 215 218 217 218 215 213 210 210 211 212 212 210 210 209 207 205 200 197 194 193 191 187 179 171 164 164 165 152 113  73  39  35  38  38  38  38  38  38
  39  40  38  38  38  38  40  41  33  24  28  35  38  41  51  67  63  75  81 114 123 143 150 159 172 175 174 177 187 192 192 191 195 196 197 199 203 208 210 215 218 217 220 220 217 219 221 220 220 221 218 217 217 218 217 220 220 217 217 215 212 210 211 215 215 212 212 211 209 206 201 197 195 193 192 190 185 175 164 164 163 151 117  81  47  34  37  38  38  38  38  37
  41  39  38  38  37  39  39  38  32  28  28  24  32  47  60  66  69  88  91 102 124 131 144 167 174 176 174 176 186 192 192 195 199 198 198 196 200 205 211 214 220 222 222 222 222 222 221 223 221 220 220 221 219 219 221 220 220 221 217 215 210 209 213 213 213 216 214 211 210 205 203 203 199 193 190 189 187 180 168 167 163 155 123  89  57  30  37  39  38  38  37  38
  39  39  39  39  39  39  40  37  33  35  35  31  38  57  62  67  77  81  94 110 126 113 151 165 171 176 176 175 186 191 194 197 200 203 204 205 208 211 213 217 221 223 223 224 222 223 221 223 220 221 220 220 221 219 219 218 218 221 219 216 213 214 217 218 216 217 215 210 209 208 208 205 204 197 191 190 187 182 173 166 164 156 128  96  65  36  40  39  38  38  38  38
  39  39  39  40  39  39  38  37  32  26  39  44  37  54  73  84  82  88 102 111 108 128 157 168 174 180 175 175 187 190 196 199 201 203 206 209 210 213 216 219 221 223 223 222 220 223 223 223 223 223 223 222 221 221 218 217 219 219 220 219 218 218 218 218 218 217 217 215 212 211 209 205 202 199 188 183 178 179 172 165 169 158 129  91  69  41  36  37  38  38  38  38
  38  39  39  39  39  39  39  32  30  27  32  44  44  50  73  88  78  94  98 108 114 144 156 171 176 174 169 179 189 193 198 201 201 203 205 209 211 213 217 220 220 222 224 225 224 224 226 225 224 223 223 223 221 222 218 220 220 219 220 220 219 219 220 219 220 220 220 219 218 215 212 208 204 202 196 186 175 176 168 164 169 161 131  94  78  48  34  38  39  37  37  38
  39  40  39  39  40  40  40  30  27  38  38  39  45  62  72  88  77  81 101 108 125 139 161 173 175 170 171 182 184 171 194 201 202 205 208 211 213 216 216 221 223 224 228 221 223 227 227 227 226 226 223 222 223 222 220 221 220 220 220 219 221 221 223 221 220 220 222 223 222 217 217 215 212 206 203 199 193 185 176 164 164 166 135  98  78  51  37  42  39  39  38  38
  40  39  39  41  41  39  40  40  35  38  41  48  60  59  73  80  80  98 108 111 135 149 164 174 175 172 176 180 182 179 193 201 206 210 214 217 218 221 223 223 225 228 230 223 226 231 228 227 229 231 227 225 225 222 222 218 218 220 222 221 221 221 225 224 224 223 221 223 223 217 220 221 218 211 208 202 195 186 180 167 163 164 136  96  79  50  36  43  40  40  39  38
  40  39  39  41  41  41  41  45  32  30  41  52  58  63  74  75  84  90 104 119 146 154 167 175 178 178 181 182 186 192 197 205 211 214 218 220 221 226 226 227 226 227 227 231 232 233 231 227 228 233 230 229 228 225 222 221 222 225 227 227 227 227 227 227 226 228 223 215 224 222 223 223 220 216 214 209 204 192 182 173 167 161 145  99  84  58  34  41  40  40  39  38
  39  39  39  40  40  41  45  35  29  37  47  52  58  73  75  79  83  86 110 131 134 164 175 175 176 179 180 183 187 193 203 211 216 215 221 224 223 228 225 223 224 228 232 228 231 233 231 231 228 230 227 228 228 229 223 224 229 231 228 230 230 227 228 225 222 219 194 202 217 225 212 211 216 214 214 210 206 199 188 177 169 160 154 111  75  56  36  47  42  40  38  38
  39  39  39  39  40  40  41  31  32  40  44  58  63  79  79  86  78  76 110 125 153 173 172 172 173 175 178 184 189 196 206 204 198 201 211 212 200 201 207 210 215 201 190 210 198 211 223 219 218 223 223 224 227 229 232 232 231 226 220 221 220 221 219 221 210 171 158 182 183 152 144 165 177 196 198 197 191 183 191 180 171 157 159 132  77  52  36  40  40  38  39  38
  39  38  39  38  39  38  46  45  38  41  42  51  54  76  81  76  75  86 111 139 165 167 168 169 168 170 175 185 193 201 186 160 156 168 173 155 147 148 138 142 153 159 141 136 163 171 193 191 203 213 225 222 227 229 229 231 229 222 215 209 211 206 203 203 193 159 160 148 110 104 101 110 115 131 131 125 137 132 145 176 175 156 152 154 101  53  37  40  39  38  39  39
  39  38  38  39  39  38  45  43  39  32  43  59  57  75  72  75  92 112 125 148 161 162 165 164 164 170 178 183 186 172 139 125 138 136 125 123 117 123 115  91  83 116 145 129 131 153 185 182 178 191 219 219 220 223 220 227 223 216 214 209 202 192 191 186 167 154 156 130  87  88  85  86  74  61  66  63  72  82  82 119 169 161 146 161 127  58  38  39  38  38  38  39
  40  39  39  39  38  39  41  43  34  30  47  59  56  68  77  82  98 110 137 160 161 163 163 165 164 170 183 180 154 125 116 107  89  84  85  80  84  79  86 110  92  79 108 125 144 146 165 173 171 181 204 216 216 216 217 220 218 210 208 205 195 194 187 170 159 170 157 113 101  90  76  66  75  92 103  98  94  82  74  73 108 153 151 155 131  66  34  38  38  37  38  38
  39  39  39  39  38  39  44  40  34  41  51  68  67  70  77  79  94 126 153 157 161 165 163 164 166 173 158 123 104  97 106  99 105 114 128 145 157 156 149 155 154 125 135 140 151 160 169 179 180 187 195 209 212 211 214 218 215 208 205 200 193 191 182 177 176 176 159 142 142 133 146 157 169 180 178 175 169 151 115  82  77  99 135 153 137  77  28  32  39  38  38  38
  39  38  39  39  39  38  46  45  41  50  57  64  74  60  67  77  96 134 153 156 162 164 164 163 160 149 107 109  97 113 127 134 154 175 180 187 194 200 201 198 194 188 181 179 176 177 182 186 187 186 191 199 203 208 212 216 212 204 201 199 191 185 181 177 177 175 170 169 172 185 186 182 176 178 175 175 175 167 146 109  90  81 105 144 150  89  32  39  38  38  39  39
  39  39  38  38  38  38  42  42  32  47  55  62  76  64  59  76 115 145 152 156 161 162 166 159 152 122 101 116 129 141 152 166 172 181 187 191 196 199 200 201 198 194 193 192 190 183 179 181 181 178 184 194 203 210 216 214 208 204 204 200 190 184 177 171 169 172 176 180 189 188 184 179 178 176 173 173 166 154 149 134 107  82  85 126 156  98  33  35  39  38  38  38
  39  39  38  38  39  38  39  38  28  54  52  59  75  66  66  87 126 149 154 161 164 161 163 158 132  99  95 113 137 148 165 173 171 178 183 191 196 195 197 191 182 183 186 188 190 190 185 177 176 175 180 189 203 213 215 213 208 205 204 197 187 176 169 170 177 185 190 188 187 188 185 184 183 182 178 172 162 152 152 149 126  99  99 118 148 107  40  38  38  38  38  38
  39  39  38  38  38  39  41  33  40  58  55  54  64  59  70  92 122 148 156 161 164 161 160 148 114  98 114 137 154 164 163 164 169 175 167 156 152 156 157 147 139 137 139 155 180 190 192 188 179 174 178 188 203 213 219 216 209 207 205 194 181 169 166 177 187 188 168 144 134 141 146 147 142 144 150 156 161 151 146 147 136 119 124 132 146 113  44  42  37  38  39  39
  39  38  37  37  38  38  39  36  51  49  56  59  66  60  73  88 126 153 154 157 163 158 154 142 131 137 147 158 160 160 159 161 149 128 128 149 178 190 184 171 165 155 143 123 126 163 187 194 192 179 176 188 206 216 219 217 212 206 201 189 176 166 170 179 172 135 116 131 146 140 143 152 163 160 151 136 130 138 136 140 141 141 137 143 151 116  35  37  39  39  38  38
  37  38  38  39  39  39  42  43  33  44  62  66  62  65  62  86 134 147 153 155 161 160 159 144 140 156 158 155 152 151 155 134 109 128 149 144 120  91  73  66  79 100 134 155 139 127 159 195 204 189 177 187 204 213 216 216 214 206 196 183 174 169 183 177 141 111 111  96  46  42  39  34  48  77 124 153 136 113 126 137 138 143 141 149 156 118  38  35  38  38  38  39
  47  64  83  90  91  89  92  52  29  43  56  68  59  65  59  84 135 148 155 157 160 161 154 146 149 156 153 147 146 146 125 109 128 117  77  35  12  10  38  15  28 108 111  92 101 121 142 178 196 193 188 189 197 204 208 212 211 204 193 177 174 160 179 148 103  93 124  85  14  44  74  32  21  30  48  62 104 119 114 133 136 143 151 152 157 122  40  34  38  38  38  38
  77 106 136 154 159 158 157  79  30  47  49  62  57  66  67  89 138 149 155 158 158 161 156 153 155 152 148 145 139 125 118 112  73  30  20  18  14  12  22  23  49 150 158 112  91  93  94 145 185 195 199 187 183 196 203 207 205 201 195 180 172 161 162 119  94 112 146 127  88  72  53  39  27  82 113  25  19  52  99 123 133 138 146 150 156 122  37  35  38  38  38  38
 106 137 169 189 196 195 195 118  32  37  50  60  65  61  60  92 134 146 153 157 157 163 163 151 150 152 153 150 141 126  92  46  21  33  77 105 105 108 131 135 148 153 153 161 170 174 164 146 181 196 198 183 183 197 202 207 207 205 201 191 178 169 168 148 157 160 148 159 173 178 176 155 135 124 117 104  78  50  49 100 140 138 146 150 154 124  44  37  38  38  38  38
 126 161 194 212 221 220 220 163  28  31  55  62  66  58  57  94 135 143 154 158 157 162 163 159 152 145 146 141 124 110  95  76  92 120 133 139 156 168 177 189 183 173 173 169 160 160 161 173 187 195 190 184 191 196 202 206 206 207 205 200 190 174 182 176 165 158 153 159 170 178 174 165 162 160 161 160 159 139 109 101 126 137 144 151 155 128  46  37  38  38  38  38
 133 173 208 226 233 234 235 185  27  28  59  57  66  50  63  99 134 142 155 159 159 163 168 162 158 152 146 139 137 142 135 136 137 147 154 160 167 165 170 173 166 162 155 146 146 156 178 192 196 193 187 190 191 197 204 205 207 211 208 202 188 181 178 187 183 171 158 147 144 155 163 167 166 166 164 163 157 149 141 140 143 142 146 155 156 135  51  36  37  38  38  40
 132 173 208 228 236 235 235 188  32  14  60  58  61  48  58  96 133 140 149 154 157 167 173 171 166 158 161 165 167 162 157 149 146 146 143 148 150 146 146 144 147 150 154 158 173 188 196 202 201 192 195 191 188 199 202 203 211 213 209 203 187 182 186 186 190 185 182 177 167 154 144 142 143 149 155 159 157 148 147 151 149 152 152 159 154 131  49  36  37  36  38  38
 131 171 206 225 235 239 235 211  55   0  52  64  61  47  60  95 130 141 147 155 154 164 177 174 168 167 172 173 166 171 175 168 163 165 160 158 157 156 160 169 177 178 180 189 197 196 201 203 198 195 200 191 189 194 198 203 207 211 212 206 185 174 189 198 198 196 192 186 187 186 180 174 168 167 166 167 163 161 161 151 147 156 156 157 155 130  42  29  35  38  38  38
 127 168 203 227 225 204 189 181 126 101  86  68  55  48  60  96 127 138 148 153 146 162 177 174 172 173 178 176 175 183 177 177 181 187 188 189 193 191 192 191 188 192 199 201 199 202 207 205 200 204 202 191 189 190 191 199 202 209 213 210 187 165 178 201 204 202 202 197 192 191 191 187 187 184 182 183 179 171 168 164 157 155 159 153 151 128  73  66  44  32  38  38
 124 163 202 199 166 167 178 183 200 202 167 116  74  42  56  96 130 134 147 151 148 164 176 176 177 177 177 176 183 185 187 193 199 198 198 198 196 191 192 197 200 201 201 199 204 207 210 205 206 208 202 190 185 186 189 196 202 211 215 215 199 170 165 198 205 209 212 210 204 201 197 198 198 195 192 189 190 187 181 178 175 164 159 154 147 131 157 172 142  70  33  38
 118 158 183 161 161 155 178 199 198 202 197 163 112  48  47  84 131 139 144 149 146 162 176 179 178 174 178 183 187 194 198 205 204 199 196 195 198 199 203 202 199 203 205 211 212 211 213 207 207 207 196 180 178 185 185 191 200 211 217 218 214 190 169 187 206 211 214 214 210 209 207 205 207 207 207 203 200 195 191 187 182 172 161 155 144 130 170 184 183 148  52  33
 114 154 160 150 130 119 119 145 184 199 193 181 152  75  40  83 128 139 145 148 144 159 173 179 175 176 184 189 193 199 203 206 203 202 202 204 203 204 209 207 208 212 216 218 216 214 213 209 204 199 188 168 170 182 184 184 194 215 218 216 216 204 183 177 193 200 207 214 212 214 211 211 211 213 214 210 209 202 197 195 188 179 169 154 142 134 181 166 130 158  90  31
 106 147 144 147 144 148 141 126 133 179 188 171 166 114  43  82 127 137 140 146 142 152 170 174 170 179 185 190 196 199 198 201 205 210 209 207 205 210 215 216 218 220 219 217 216 211 205 201 194 190 178 164 173 182 185 184 206 226 221 218 214 209 195 179 178 177 193 209 218 218 213 212 214 215 215 212 209 208 203 199 193 183 171 158 142 135 154 114 116 163  99  30
 100 137 145 155 175 167 153 147 139 137 168 159 147 131  63  77 126 140 137 138 140 143 166 170 170 181 189 191 197 198 198 201 208 210 210 213 212 218 215 217 221 221 220 212 200 192 186 178 180 180 176 179 188 194 193 198 211 227 237 230 221 211 197 185 182 175 176 191 207 214 220 218 215 212 213 213 208 209 207 202 193 183 171 161 144 128 135 151 143 162  84  31
  97 129 157 196 202 187 163 158 159 142 140 157 141 132  77  74 121 140 140 135 130 142 163 167 177 183 187 188 193 199 201 205 208 210 212 218 215 217 218 218 226 224 210 194 184 182 175 180 189 191 193 199 206 204 196 190 194 209 226 219 209 196 183 184 192 190 188 185 195 209 217 224 219 216 215 215 213 211 209 208 197 184 173 163 142 136 169 173 168 155  53  34
  94 129 157 212 210 194 176 169 164 173 175 131 144 145  93  74 119 136 140 136 133 140 152 161 177 183 188 189 192 196 199 206 209 211 209 212 215 217 220 222 218 208 194 189 201 186 176 195 202 207 207 209 210 199 188 182 181 189 201 201 199 187 179 182 189 198 198 186 187 204 209 218 221 221 216 219 216 211 210 207 197 187 174 161 140 134 190 192 196 124  30  37
  94 129 151 199 218 206 179 168 179 204 169 121 141 173 118  77 113 132 140 135 135 139 149 162 175 181 185 186 190 195 200 205 212 209 206 206 215 217 218 217 205 192 192 209 210 174 178 197 204 204 204 205 201 186 178 178 176 182 190 189 183 178 178 152 148 177 195 187 172 183 192 206 217 217 215 219 218 215 215 207 195 188 178 162 139 135 195 211 210  95  26  37
  99 136 158 180 217 206 177 170 201 208 156 159 183 188 136  73 113 133 140 130 134 139 150 168 176 179 181 183 190 192 199 206 211 209 212 215 214 216 217 210 198 183 190 197 188 158 165 178 176 156 124 101  84  82 101 130 155 167 175 173 176 155  77  46  61  86 134 162 163 172 171 186 198 211 213 212 215 215 211 208 199 189 176 160 142 142 191 214 210  80  28  37
 105 142 174 171 206 204 177 181 219 214 170 172 193 195 150  86 110 130 137 132 130 136 150 167 176 177 176 178 187 187 194 204 209 206 210 212 215 213 211 196 163 170 179 184 174 141 136 152 129  97  90  87  76  63  75  85  95 134 145 142 142 100  78 118 146 133 106 127 151 174 165 165 186 207 213 210 212 212 208 205 197 189 174 159 142 157 191 214 200  64  31  37
 112 148 186 183 197 206 169 195 233 217 179 177 191 201 155  95 115 126 135 131 127 135 148 161 170 175 175 175 177 183 194 200 202 203 207 209 212 211 201 165 140 173 185 191 181 159 126 123 132 149 164 160 161 156 139 119  91 102 115 109 117 147 181 177 150 137 126 131 162 175 170 162 170 194 209 209 208 204 205 201 191 185 172 157 149 190 191 210 187  47  33  38
 118 156 192 202 195 208 168 208 235 212 186 186 177 197 157 104 114 125 134 131 126 133 148 158 169 171 172 169 176 181 186 195 197 201 206 206 208 206 189 165 165 187 195 196 195 187 163 124 118 123 121 128 150 158 155 146 122 104 109 124 153 168 162 144 135 134 148 166 174 176 179 175 160 176 193 201 205 202 198 194 190 181 166 153 152 202 201 205 154  34  37  38
 122 161 196 215 197 202 175 216 234 214 197 200 177 186 165 112 114 126 134 132 126 135 150 159 167 168 168 166 173 178 182 189 194 198 202 204 203 196 183 167 175 195 204 201 199 199 187 172 159 156 144 139 150 166 177 180 180 165 158 165 170 157 147 148 145 157 157 170 176 182 187 191 166 157 185 196 202 198 189 189 181 174 161 147 155 218 205 202 113  26  37  38
 124 161 197 219 205 197 179 217 233 221 207 209 206 185 166 119 112 128 134 132 127 138 151 155 164 170 164 161 166 170 174 183 192 187 195 200 196 183 170 169 196 205 204 200 196 192 186 175 169 166 158 154 159 167 167 183 188 187 177 172 169 162 153 158 137 154 160 162 166 173 183 194 185 150 161 186 194 190 190 187 178 172 157 148 161 221 206 196  84  27  38  38
 122 161 198 220 213 191 184 212 223 221 208 207 199 172 167 126 113 128 131 134 129 135 149 156 165 171 165 158 158 163 170 179 187 187 194 196 183 165 155 181 197 201 204 194 185 181 179 176 165 165 164 166 173 166 171 183 173 177 185 174 157 168 157 150 144 151 158 153 150 154 173 188 195 172 139 170 188 191 190 186 180 166 153 145 163 217 203 186  64  30  38  38
 118 161 199 219 224 191 180 195 208 194 207 223 201 170 163 129 112 127 132 134 132 135 149 158 165 167 164 160 156 162 169 175 183 190 190 188 166 146 169 189 182 192 185 158 170 175 175 169 172 168 164 165 176 180 182 183 187 189 193 194 179 176 171 170 161 160 163 158 155 152 163 181 198 196 156 152 179 190 190 182 173 161 147 147 159 201 194 174  48  32  37  37
 118 161 200 220 230 198 175 170 197 182 211 212 205 194 170 133 112 121 132 135 134 140 154 158 161 164 163 157 155 162 166 171 182 189 190 175 134 150 187 194 190 181 168 146 163 175 177 187 190 176 179 181 183 191 191 191 192 199 198 195 202 196 188 183 168 170 173 156 158 156 147 151 174 187 186 154 164 182 183 179 169 154 146 146 157 191 188 153  33  35  37  37
 120 162 203 221 233 210 180 167 160 190 216 214 207 201 185 144 109 117 130 135 129 138 152 158 166 167 163 157 155 155 155 166 179 188 187 145 133 162 174 180 172 157 155 162 168 185 192 186 178 190 192 187 198 202 204 200 201 202 194 197 204 201 194 190 173 180 184 173 169 173 143 139 155 171 179 159 159 179 182 179 165 153 141 144 165 191 184 125  24  36  37  37
 119 164 203 224 233 226 179 185 168 203 219 209 204 204 199 160 101 116 129 131 130 138 149 156 165 169 164 158 153 147 151 163 180 190 178 133 159 159 172 176 146 132 148 157 162 182 180 186 193 202 204 203 206 204 198 197 201 201 193 195 201 197 193 196 196 191 191 187 176 179 154 138 144 146 161 164 160 178 179 175 161 150 153 143 174 207 188  96  24  35  37  38
 120 163 203 224 233 236 193 157 175 208 208 203 204 204 199 178 111 115 123 128 138 141 150 155 160 169 164 159 150 145 151 161 181 195 167 129 157 167 167 153 135 140 151 163 175 186 191 193 199 194 181 174 171 169 161 162 164 168 183 167 162 155 162 164 170 181 185 186 185 178 160 144 156 145 143 166 167 178 179 173 157 150 161 143 178 216 178  63  26  35  37  37
 120 164 203 224 233 234 222 152 156 198 204 197 199 196 181 177 116 103 120 130 138 141 149 158 165 169 164 159 155 146 150 163 184 200 157 136 161 170 160 157 131 131 148 172 186 181 177 165 148 138 135 141 149 154 157 156 148 146 149 140 136 140 142 137 128 130 145 170 179 178 165 146 149 152 160 169 153 176 181 168 153 153 165 146 175 214 161  38  30  36  37  36
 120 160 197 218 227 225 222 192 138 147 167 164 154 149 116 134 121 100 117 128 136 138 149 160 165 168 165 161 152 146 153 164 186 202 147 141 167 157 149 141 131 137 145 146 138 128 121 111 112 125 131 132 142 149 156 160 158 148 146 137 133 142 134 131 130 123 114 116 135 160 163 146 139 146 149 144 146 179 183 165 152 157 169 148 175 211 142  26  34  36  38  37
 110 144 178 199 208 206 200 183 150 105  73  49  62 105  69  45 110  99 111 122 134 139 148 158 165 164 167 164 155 147 155 163 187 205 151 148 147 150 143 126 107  88  73  69  73  85 100 105 116 126 133 130 122 124 129 134 127 123 126 111 103 100  97  87  85  88  91  88  88 102 131 145 140 150 159 151 146 191 185 164 146 161 166 143 134 143  62  26  35  36  37  37
  87 117 149 172 179 176 170 151 125  90  45  17  42  87  98  51  87 103 111 122 133 136 145 155 164 170 166 159 154 147 152 163 188 206 163 147 153 148 147 144 123  86  69  82 105 117 131 142 147 152 165 173 170 171 170 154 145 145 141 139 139 136 136 127 114 103  95  82  77  84 103 113 123 145 157 149 139 195 187 163 147 164 166 135  38  24  24  32  35  36  36  37
  61  82 110 129 133 127 123 110  88  59  34  23  33  57  83  66  69  94 107 120 131 138 146 152 162 174 169 159 153 144 143 161 184 210 176 149 166 160 162 165 182 181 164 146 139 140 140 146 144 149 153 165 175 180 190 187 183 186 178 178 171 167 154 138 134 125 120 120 133 151 152 143 152 159 150 132 165 205 183 159 152 165 164 122  24  24  30  33  34  35  37  37
  43  51  62  67  63  60  57  53  44  32  26  25  26  33  42  52  71  87  99 115 127 136 145 152 160 168 168 161 150 147 144 154 177 210 199 160 162 171 175 170 181 186 187 180 184 187 183 175 160 153 151 156 167 174 176 177 172 172 165 165 156 150 141 131 132 136 146 153 161 164 158 155 166 159 155 161 196 206 175 144 151 160 159  99  20  28  30  32  33  35  37  37
  38  38  38  35  32  30  29  26  25  25  24  25  26  25  22  37  76  82  84 109 124 133 145 148 150 163 160 162 151 144 143 144 166 204 207 172 175 179 183 182 185 182 182 187 194 200 206 209 205 194 182 176 170 174 173 171 165 162 161 162 155 157 159 166 175 178 182 169 163 163 166 177 178 171 166 180 210 200 161 138 156 160 156  76  16  28  29  32  34  36  37  38
  38  37  37  37  35  32  29  28  25  25  23  25  25  25  24  31  75  87  83 109 121 128 141 148 153 158 163 166 158 142 138 136 155 195 209 182 170 180 182 183 188 185 179 181 188 195 201 207 212 212 212 206 194 193 199 197 197 197 196 187 189 195 197 197 200 189 181 168 162 169 180 177 173 178 179 185 198 181 141 135 160 159 144  52  21  28  30  32  34  34  38  38
  39  38  38  37  35  32  29  28  26  26  25  26  25  25  24  25  74  96  80 105 121 128 136 146 153 159 158 156 157 138 131 130 152 180 204 188 168 179 182 184 189 187 183 177 179 187 191 200 204 208 206 203 203 199 201 205 210 207 202 200 207 209 197 195 192 185 176 167 168 177 179 172 175 176 183 197 191 151 136 147 161 154 127  33  24  28  30  31  34  35  38  37
  37  38  38  38  37  31  30  29  27  25  26  25  25  25  25  23  70 100  81 101 117 123 135 140 146 155 164 163 159 152 135 138 142 172 196 198 182 173 174 177 182 188 184 184 179 183 186 186 191 192 191 188 180 181 191 195 193 186 186 192 193 192 171 182 185 173 170 171 178 179 173 172 178 186 198 202 174 132 135 155 160 154 102  23  26  28  30  33  34  35  38  39
  39  38  37  37  36  32  31  29  27  27  25  25  25  25  25  21  65 110  85  91 111 121 134 136 142 153 162 160 155 144 135 144 148 158 180 201 196 174 169 177 182 183 181 182 189 190 188 185 196 190 190 187 176 170 174 176 170 169 177 176 176 177 185 186 183 178 177 180 180 172 166 174 188 197 203 184 134 126 146 160 155 146  75  22  28  28  30  33  35  36  38  38
  39  38  38  37  36  34  32  30  27  26  26  25  27  26  26  21  60 117  91  84 112 117 129 140 141 151 155 159 160 151 142 134 145 150 170 189 198 187 170 170 179 179 182 185 186 188 192 191 194 195 194 197 194 179 178 177 178 172 186 191 183 194 197 194 185 187 187 183 177 167 168 190 192 196 188 153 121 132 154 160 147 129  53  25  27  29  32  33  36  37  38  38
  38  39  39  38  36  34  32  29  27  26  25  26  25  25  26  20  54 115 107  85 100 113 120 137 141 144 150 156 162 152 142 144 146 144 156 173 182 183 179 172 174 178 181 182 184 186 190 194 194 198 199 200 197 198 187 189 185 181 196 197 196 199 196 192 189 189 186 182 178 175 177 182 190 193 165 132 128 137 156 154 138 114  34  26  28  29  31  32  36  37  38  39
  39  39  38  38  37  33  30  29  28  26  26  25  25  24  25  21  49 114 119  87  91 115 117 129 141 140 145 152 157 160 151 141 148 142 149 162 178 176 174 174 171 176 181 183 186 190 190 193 196 200 198 198 198 198 193 193 194 186 195 197 198 198 197 192 191 188 187 183 183 176 167 165 184 180 146 127 140 151 154 145 133  95  25  27  28  29  30  33  36  37  38  39
  39  39  39  38  37  34  31  29  27  26  25  25  25  24  24  21  40 112 126 100  82 104 117 126 133 132 143 153 146 154 155 143 143 137 139 158 179 176 170 162 171 175 179 183 187 192 191 193 197 199 200 200 200 195 198 195 201 196 195 199 199 197 196 194 193 187 185 175 165 172 172 186 183 161 134 131 154 152 144 135 129  60  21  25  27  30  31  32  36  37  37  39
  40  39  38  37  36  33  32  29  27  26  26  26  25  25  25  21  39 109 125 114  80  86 110 124 127 131 135 142 140 146 151 152 144 135 135 158 176 183 171 163 171 178 177 182 188 193 192 192 197 198 199 202 206 200 200 198 199 200 198 200 191 197 198 195 192 189 185 175 154 170 183 176 170 143 124 136 149 146 134 131 108  32  23  26  27  29  31  33  36  37  37  39
  39  38  38  36  35  31  30  29  28  27  26  25  24  25  25  22  36 105 124 122  89  76  99 113 124 130 129 133 133 138 142 144 142 132 134 143 155 159 178 176 170 176 179 184 190 191 192 195 196 202 207 202 206 202 200 203 199 199 203 203 200 200 197 192 191 187 188 176 162 167 175 166 152 123 125 141 144 131 127 127  67  20  26  27  27  29  31  33  34  38  37  38
  38  36  34  34  32  30  29  29  28  27  26  26  25  25  25  23  32 103 125 120 102  76  80  98 115 124 120 125 126 132 140 142 138 134 125 135 154 170 189 179 165 161 176 180 186 178 190 197 197 200 193 197 201 204 193 201 199 193 198 197 195 192 184 182 183 165 167 172 168 159 153 136 126 111 129 146 127 123 125 102  31  23  25  26  26  28  30  32  34  36  37  38
  36  34  34  32  30  28  28  29  28  28  27  26  25  25  25  24  29  98 125 120 113  95  77  84  97 109 117 117 119 126 129 136 141 133 123 129 141 174 178 165 172 161 165 174 176 175 183 194 190 190 194 200 202 190 194 200 198 188 194 193 190 179 180 177 170 158 159 171 169 153 144 131 108 105 121 125 118 107 107  54  19  26  25  26  26  27  28  29  33  35  37  37
  36  35  34  32  28  27  26  28  28  27  27  27  26  26  26  25  26  92 128 124 116 107  80  76  87 104 111 101 105 112 116 128 128 123 115 117 126 139 163 173 179 165 153 182 184 189 179 168 184 189 199 195 199 186 184 194 185 193 196 194 192 185 165 170 171 151 156 164 164 145 131 111  90  98 110 118 115 100  67  25  25  26  26  25  25  27  27  29  31  33  35  36
  36  34  31  30  28  27  25  28  29  28  28  27  26  26  26  25  27  92 131 130 120 112  94  77  77  84 107 100  83 102 112 120 114 112 106 102 107 122 141 160 167 162 153 164 172 179 179 168 174 175 178 185 190 185 177 188 189 183 179 171 168 182 164 170 166 150 166 136 141 143 113  96  86  84 115 118 107  78  32  22  24  26  26  26  26  26  26  27  29  31  34  36
  35  34  31  29  28  26  25  26  26  27  27  26  26  26  25  24  25  89 134 132 126 120 108  87  70  61  87  99  97 103 107  99 104 114 116 100  82 120 121 131 140 156 167 146 152 174 168 167 163 153 175 180 190 169 175 186 170 178 183 159 163 167 160 163 172 170 165 141 134 136  86  67  93  91 101 105  90  36  22  26  26  26  26  26  25  26  26  27  29  31  33  36
  34  32  32  30  26  26  26  25  25  25  25  25  27  27  25  26  24  82 133 134 128 123 112 102  84  71  74  91  97  91  86  95  99  94  90  95  84  99  95 112 141 148 141 145 167 156 148 164 166 167 184 179 182 179 176 174 165 174 180 181 173 149 156 154 160 154 152 146 118 100  71  78  90  90  85  80  47  20  26  26  26  26  25  26  26  27  27  27  28  31  32  35
  34  32  31  28  27  26  25  25  25  25  26  26  27  27  26  26  22  77 131 135 131 127 121 112 101  90  74  74  85  86  83  89  91  92  93  93  81  77  84 108 135 138 122 141 154 150 159 157 146 176 159 166 169 170 174 174 177 166 158 182 180 157 153 150 143 142 148 114  94  67  69  84  80  84  79  85  44  21  25  26  26  26  25  25  25  26  26  26  29  30  33  35
  35  31  29  27  26  26  26  25  25  25  26  26  25  26  26  27  20  71 133 137 134 127 122 113 110  95  80  75  71  80  82  88  78  81  89  96  96  82  80  90 128 139 133 139 145 147 157 143 142 171 159 165 162 165 168 178 180 167 171 172 172 158 135 144 149 137 122  97  82  58  60  85  80  70  77 100  43  22  25  26  25  25  26  25  26  26  26  26  29  31  33  36
  35  32  30  28  26  25  26  25  25  25  25  25  26  26  26  29  19  65 134 142 142 131 130 126 119 103  91  79  70  81  78  72  73  81  81  86  84  73  67  85 100 106 106 124 116 135 154 145 139 163 155 159 151 168 163 157 166 167 166 142 155 155 143 157 138 107  88  72  57  56  72  80  75  73 103 108  35  23  26  26  26  26  25  25  26  27  26  28  30  31  34  36
  37  33  31  29  27  26  26  25  24  25  24  26  26  26  26  29  27  54 129 142 151 150 145 137 122 116 102  93  87  81  82  77  77  71  74  69  55  56  67  75  74  73  99 101 112 133 152 131 132 151 153 140 144 159 144 141 137 135 132 126 148 128 128 136 106  75  62  39  54  62  64  74  71  88 123 105  29  25  25  25  25  26  25  25  25  27  25  28  32  32  35  37
  36  35  32  29  27  27  25  24  25  25  26  26  26  26  26  26  27  37 105 145 152 153 151 143 137 132 115 106  93  90  88  80  82  81  74  70  66  64  73  72  61  64  83  83 103 115 116 110 116 128 127 125 129 122 126 140 127 120 115 117 129 116 110 111  69  47  45  65  75  59  55  62  82 117 128  96  26  25  25  26  26  27  26  26  26  26  27  28  31  33  36  37
  37  35  33  29  27  27  25  26  25  23  25  26  26  25  26  27  26  33  59 136 153 150 152 145 137 140 123 121 113 106  96  91  90  85  82  68  70  69  61  57  59  56  53  50  81  93  89  99  92 104 104 116  96 104 106 110 113  95  84  99 102  95  71  66  56  49  53  79  69  75  78  78 101 123 125  85  23  25  25  26  26  26  26  25  25  25  26  29  31  33  36  38
  35  34  33  30  28  27  26  26  25  25  26  26  26  26  26  25  23  27  32  80 149 159 150 152 148 143 132 133 125 112 104 102  92  89  85  79  78  74  72  62  54  59  52  46  51  50  63  63  74  80  82  87  75  96  79  82  83  73  63  65  56  47  43  55  61  70  76  76  76  83  84  94 108 122 126  79  24  24  24  25  24  25  24  26  29  30  27  29  31  34  36  38
  52  49  43  36  31  27  23  23  25  24  26  25  26  26  26  26  21  22  29  31  81 150 160 161 156 149 139 133 127 122 110 104 103  95  91  81  83  80  75  68  65  57  69  54  46  39  44  50  44  48  48  47  58  61  71  69  67  62  59  55  51  44  66  84  70  77  97  86  78  84  90 104 116 127 129  71  37  38  36  35  36  43  55  69  70  58  42  34  36  38  38  37
 101  98  94  89  80  70  60  50  42  34  28  27  26  25  25  27  23  22  26  26  25  59 131 163 157 151 147 139 132 127 123 106 109 108 101  97  88  85  80  75  78  72  67  72  62  55  56  62  48  52  41  39  61  61  67  61  62  70  62  71  82  79  83  88  78  90  87  75  89  84 101 113 124 128 123  52  49  66  61  58  65  80 102 118 112  96  74  50  47  48  45  40
