P2
# Generated by OpenCV 4.2.0
92 112
255
  62  56  52  51  54  50  47  45  46  44  47  48  46  47  54  58  64  71  88 102 116 128 138 139 134 141 138 135 124 109 114 131 148 154 159 159 158 160 159 149 149 114  68  76 101 119 174 211 183 167 198 229 169 125  52  54  19  14  42  96 101 130 120 110 120 132 149 155 159 168 183 185 188 193 196 203 205 210 213 218 226 211 167 117 101  85  68  59  51  47  41  39
  61  62  58  57  55  47  46  46  43  44  46  47  49  51  62  65  65  73  83 100 118 122 129 140 153 162 168 163 142 127 139 152 162 166 161 165 165 157 137 123 110 108 155 181 195 216 192 200 234 191 183 204 179 169 164 208 166 119 127 108 107 141 143 148 150 151 163 174 182 191 196 191 199 209 213 215 212 213 216 219 217 193 163 149 129  98  75  59  47  42  42  41
  62  63  61  56  52  52  51  51  49  48  47  45  50  53  64  78  73  81  93 114 121 127 140 146 156 158 164 163 163 173 177 175 173 174 181 173 150 151 156 169 195 202 195 231 187 205 216 200 168 177 155 186 191 168 172 190 187 202 196 181 191 170 155 163 179 177 184 195 200 203 199 204 211 217 219 219 218 220 225 221 205 198 188 172 144 116  78  52  44  42  43  39
  57  59  61  65  64  76  67  67  65  61  61  55  54  60  70  79  82  92 115 123 133 146 159 165 165 165 167 169 174 181 177 182 177 164 178 171 173 196 216 238 199 184 203 206 132  98 118 118  83 129 154 132 147 180 147 139 122 130 165 168 189 206 161 135 191 201 201 204 205 202 209 219 224 225 224 223 222 223 221 214 207 205 200 179 149 111  75  47  40  44  39  33
  66  75  86  84  83  87  78  73  69  68  68  64  62  68  74  79  85  94 103 119 145 157 167 171 182 190 195 201 200 194 181 178 180 192 202 187 197 162 183 167 177 136 151 138 142 166 137 144 136 171 118 133 157 146 170 120 106 121  91  81 123 105 125 133 154 160 184 207 196 209 222 224 224 225 223 223 223 218 211 210 213 210 193 173 150 111  77  42  39  40  35  32
 108 119 120 107 109 101  86  83  76  74  71  71  70  78  78  87  94  96 104 120 151 162 171 184 196 201 203 205 205 196 187 196 173 189 205 213 182 156 162 121 121 119  83 101  88 125 146  86 103 133 105  71 100  99 127 110 105  82 103 109 111  76 126 100 109 160 159 206 206 218 224 223 217 219 216 210 206 204 209 208 203 187 166 149 125  91  55  40  40  41  38  34
 138 150 148 136 135 126 101  87  80  75  74  76  81  86  90  96  99 100 119 139 156 171 187 202 209 210 208 207 205 185 209 227 169 170 178 164 137 125 191 132 115 135 131 145 105  81 134 100  96 112  98  76  55  64  61  88 119  94  74 103  56  39  79 113  93 100 108 142 203 234 233 218 212 208 205 192 192 195 199 191 179 162 150 127  85  51  38  45  43  41  39  37
 157 160 153 145 138 131 116  95  81  77  78  80  84  91 102 102 106 122 134 152 171 184 193 202 208 209 208 200 185 194 179 147 162 171 170 112  67  75 101  99  86  93  94 103  91  99  60  88  72  71  73  98  77  92  81  79  72  64 101  98  87  98  95  68  82  60  72  72  91 128 200 208 199 196 181 180 187 179 161 152 148 136 105  71  46  39  44  46  41  42  41  39
 163 163 156 147 144 138 124 101  89  84  82  84  83  89 105 111 120 135 154 168 178 189 195 200 204 200 172 147 147 176 163 135 115 123 107 107  81  98  85  51  64  68  84  70  63  73 106  82  70  53 110 112  62  62  65  79  47  44  83  55  69  69  85  60  73  77  70 100  85  63 132 188 174 188 172 168 158 144 129 113  93  74  50  42  48  49  49  46  42  42  42  41
 166 166 156 148 145 146 142 129 106  95  83  83  87  93 104 112 130 152 170 182 184 191 198 197 192 166 151 154 148 139  83 121 131  99 104  90 103 102  73 103  82  80 106  94 105  78  75  70  93 103 122  71  53  67  85 108  59  54  72  48  62  86  58  46  77  56  51  46 104  72 140 147 166 138 124 121 111  98  84  67  49  39  40  51  52  50  54  53  51  45  44  44
 169 165 155 153 154 134 100  82  76  79  75  82  93 103 105 116 143 161 169 181 184 187 193 205 174 174 131  96 150 113 106 135 100  82  97  83  71  73  77  87  71  84  82  88  87  72  61  64  51  40  51  54  55  56  56  94  75  43  42  46  52  52  68  43  72  88 103  59  69  89  74  74  72  98 108  97  62  50  41  38  44  47  51  53  52  52  56  55  54  53  50  45
 170 165 155 143 126  95  81  81  81  77  81  92 101 106 111 127 146 157 169 177 180 189 191 163 136 146  92 110 126  95 117  85 102 115 118 102  64  78  75  62  64  84  61  53  83  64  58 105  80  79  73  76  66  67  68  67  45  44  67  47  47  32  52  52  62  48  33  83  68  79  60  40  73  76 108  61  31  40  42  48  48  49  49  55  54  56  59  59  56  51  46  43
 144 147 152 133 110 100  94  94  93  91  95 104 112 119 127 137 147 160 169 171 180 186 192 173 114 109 145 151  91 122 112 110 104  85  70  58  68  90  98  58  63  75  67  60  59  74  74  55  49  66  47  75  75  72  55  61  40  46  63  63  43  54  49  73  49  40  38  36  48  49  61  51  79  83 132 104  40  37  46  51  50  52  51  55  55  58  57  57  54  52  48  44
 109 117 112 104 105 108 104  99  99 101 108 118 129 132 137 141 146 156 163 161 200 200 180 151  90 164 143  67 101 127 110  93  80  63  74  97 112  87  70  78  67  60  61  73  78  76  74  61  46  56  60  53  56  53  49  42  36  37  29  49  45  44  51  37  44  65  55  38  45  61  78  68  57  60 108  92  91  72  48  49  52  53  54  57  54  57  56  54  53  54  49  45
 116 120 124 123 119 115 117 109 109 114 125 131 137 139 140 140 146 148 143 174 192 149 116 117 112 122  83  87 108  70  66  72  92  76  87 100  76  63  77  96  86  83  94  96  93  80  96  88  70  57  55  31  31  34  42  35  39  29  32  35  38  43  39  43  45  48  43  49  34  42  48  45  50  60  72  82 135 132  53  53  53  52  56  59  60  59  59  56  54  55  51  47
 128 137 138 129 127 127 124 123 123 129 137 140 142 140 139 141 144 135 158 186 140 110 143 183 125 102 115 124  81  82  95  80  96 110 125 135 123 159 163 122 142 167 178 173 151 129 129 130 129 123 109  80  54  41  39  40  50  51  48  34  39  28  31  58  64  32  29  36  30  47  45  34  37  45  46  50  78 115 135  64  49  53  53  54  56  56  59  59  56  56  55  53
 143 147 145 142 142 140 136 132 132 132 138 139 141 139 139 142 129 118 185 171 154 127 135 100 113 112  91  80  99 102 112 132 146 188 203 200 207 210 215 209 210 217 226 231 229 216 190 180 161 162 145  98  73  79  79  60  67  82  65  48  50  43  43  40  51  47  38  32  34  27  49  43  36  30  69  74  55  83 148  73  55  55  51  50  51  51  56  60  57  54  55  54
 155 156 152 152 150 148 143 133 133 133 138 140 140 137 136 131 111 119 190 117 106 100 126 112 117  85 107  90 125 139 159 199 218 229 238 240 238 236 233 236 234 233 234 236 237 237 237 226 221 217 206 166 139 119 101  80  90  93  94  97  94  89  74  83  71  59  46  46  66  62  57  58  45  43  36  57  43  41 143 116  44  47  49  50  48  51  51  51  48  48  52  53
 165 166 159 159 159 153 137 126 127 126 132 133 133 136 134 122 124 156 165 136 109 106 111 122  86 136  93 116 162 186 215 231 241 246 243 239 242 241 242 237 237 237 235 234 234 231 232 233 226 227 224 223 212 190 184 159 145 151 162 156 145 150 142 136 110  87  85  98 105 100  83  89  65  57  49  35  42  55  79 144  59  27  45  44  46  47  52  52  50  47  51  53
 169 169 165 164 164 151 130 120 116 119 125 128 128 124 134 116 175 178  99 117 131 100 108 123 111 152 131 172 216 226 232 242 241 242 242 241 241 240 241 240 240 239 234 231 229 227 228 226 226 224 219 216 219 217 211 211 205 192 184 154 148 180 192 175 151 146 148 149 156 135 128 113 106  87  70  58  52  31  52 138 155  36  34  40  47  51  52  54  55  54  51  51
 172 166 167 171 161 142 125 112 110 114 120 119 115 105 101 132 179 107  95  97 144 110 116 123 127 133 170 197 235 242 242 242 241 241 241 241 239 240 240 238 236 233 229 225 223 226 226 221 223 221 219 215 214 211 208 214 212 205 204 201 198 196 199 189 186 176 172 178 178 172 163 154 145 141 109  98  85  65  61  79 160  76  31  43  50  54  55  55  55  52  51  48
 169 163 163 163 147 130 112 110 111 111 110 102  92  90 108 162 148 110 118 139 113 122 145 143 118 156 178 211 244 243 240 241 241 241 242 241 238 238 237 233 231 228 224 221 220 222 217 210 213 212 214 213 219 215 210 206 201 204 200 197 200 199 195 179 177 177 181 183 183 177 178 175 171 160 141 146 104  97  79  79 121 108  19  40  46  50  50  51  51  50  49  47
 156 152 153 148 139 122 109 105 105 101  93  87  75  71 108 143  97  99 130 114  72 143 120  97 113 176 209 241 242 242 241 242 242 241 239 238 238 236 235 232 230 223 220 218 217 213 209 207 209 207 204 211 219 205 199 203 197 193 198 187 190 183 174 178 179 182 183 180 182 182 179 181 176 166 157 163 153 132 103 124 156 184  63  28  42  50  50  51  53  55  53  46
 139 145 141 133 124 114 105  98  93  91  87  83  86  96 140 126 138 126 104  85  72 113 100 116 148 209 237 240 242 242 241 240 240 238 237 237 236 235 232 232 226 222 217 211 210 204 208 202 200 196 197 202 181 179 196 192 197 195 193 193 177 184 182 175 179 172 170 175 177 181 184 183 182 174 166 164 171 173 155 153 150 212 160  41  33  44  48  50  52  53  47  40
 126 122 126 120 109 102  97  89  82  84  84  79  90 158 158 113 114 106  90 103 111  95 141 171 174 227 244 242 242 241 240 239 239 238 236 235 234 232 231 226 217 215 211 200 202 194 194 188 193 192 185 187 185 195 200 189 190 194 195 197 180 177 179 164 145 165 170 172 180 176 175 180 174 170 169 162 163 175 176 151 152 161 178  60  35  41  46  49  49  47  46  40
 108 107 105 105 105  96  90  85  82  80  79  76  91 139 120 124  76  95  91 140 101  85 152 161 197 234 237 239 242 240 237 235 236 236 235 233 231 227 221 210 212 207 197 198 192 190 185 180 182 186 178 182 182 184 181 187 184 181 183 184 179 166 160 155 170 149 153 160 163 165 168 168 169 163 167 163 158 176 182 175 172 164 192 131  79  60  43  48  49  46  46  41
  86  93  96  98  96  87  80  78  78  79  80  78  86 129  76  85  90  97 130 103  60 108 118 151 212 223 230 239 240 238 235 233 234 234 234 230 228 219 215 210 210 202 201 197 192 190 175 184 183 186 180 177 172 173 170 171 164 176 179 178 169 152 143 144 143 132 144 147 151 149 152 149 143 154 154 161 156 159 179 180 181 192 165 150  40  44  49  48  48  46  46  41
  77  85  91  86  82  79  75  80  84  93  99 113 135 113  78  94 102  97 117  95  87 113 147 175 185 212 231 235 236 237 236 235 232 231 229 226 221 216 213 215 211 205 192 189 185 179 183 189 176 175 171 171 171 174 161 167 169 177 165 159 154 136 132 134 129 128 129 140 143 157 146 142 135 149 145 145 152 136 156 184 178 202 167 161  50  44  48  49  50  47  47  44
  90  96  93  90  91  95 101 110 118 127 132 154 151  93  89  95  96 107  87  83  92 113 164 157 191 207 222 231 230 232 234 232 229 230 227 225 222 219 215 210 202 200 194 183 175 178 183 179 173 173 170 173 175 173 170 172 162 158 152 156 153 142 138 129 119 120 131 129 129 117 124 136 134 130 136 136 151 149 148 186 188 198 204 163  79  31  46  48  49  47  47  48
 101 106 100 105 114 115 127 140 151 160 168 171 130  89  81  74  92  92  95  88  98 117 145 169 162 194 221 222 230 230 231 229 231 231 226 223 220 218 211 201 197 199 190 194 191 191 190 195 193 187 179 178 173 170 166 167 164 158 152 146 132 135 130 122 123 122 128 128 131 133 130 135 129 133 130 126 135 155 161 176 192 200 209 165 140  56  45  45  48  48  47  47
 127 124 122 127 129 133 142 153 164 177 189 188  88  75  81  89  92  89  91  96  69 125 162 158 186 205 208 217 228 231 229 229 230 228 225 221 219 218 215 205 204 209 202 207 211 211 214 214 210 202 199 197 200 179 168 153 156 158 154 143 135 135 133 128 135 128 124 133 135 128 132 126 125 119 123 126 131 146 159 172 183 195 206 134 132  68  39  43  50  50  50  48
 146 148 151 153 147 148 152 163 172 187 222 169  78 100  86  64  97  74 112  93  98 117 122 161 189 170 190 209 224 229 228 228 228 227 223 219 218 220 219 218 215 208 205 207 214 216 213 215 211 209 212 205 185 182 180 170 164 148 148 145 145 133 131 131 118 134 138 139 150 142 147 136 129 130 124 122 135 144 151 164 181 191 195 128 115  76  24  43  45  44  49  50
 177 175 172 162 154 150 160 174 184 203 211 140  74  60  68  81 121  48  93  84 126 122 120 168 162 178 205 220 225 224 225 227 227 224 219 218 219 220 220 216 216 211 210 219 220 219 218 216 221 219 213 210 196 188 185 191 189 170 165 162 165 152 149 152 147 166 161 163 177 166 161 152 154 139 129 129 143 149 155 158 159 185 186 128  92 105  33  36  40  41  48  51
 193 194 187 179 172 167 174 184 189 205 210 120  68  83  66  97  91  95 111  96 145 107 115 152 193 207 216 221 224 224 225 226 224 216 219 219 221 221 220 220 219 218 221 222 220 222 220 219 221 222 216 206 194 192 190 189 184 184 182 175 171 173 174 174 174 182 185 182 184 193 193 186 175 161 139 145 155 155 160 157 149 168 178 127  68 110  39  26  39  44  47  52
 199 197 194 190 187 180 176 182 183 201 212  86  65  81  53  78  94 118  79 109 130 104  96 156 194 207 221 225 228 227 226 225 221 221 215 215 220 220 218 217 216 217 217 222 220 216 215 221 215 208 206 203 199 195 197 188 181 183 190 187 185 182 185 188 193 193 203 208 210 201 201 193 183 186 167 158 147 153 150 153 154 154 163 113  52 101  59  21  37  42  46  51
 199 200 198 190 181 171 164 165 157 167 162  74  49  64  67  91  66  64  69 114 109 120 125 161 187 216 225 228 229 229 227 223 220 222 196 217 223 219 219 219 217 218 218 219 214 212 214 218 207 200 199 204 201 197 193 197 192 188 186 191 190 199 200 202 201 212 213 208 211 203 204 207 196 191 189 188 169 159 148 147 147 147 155 108  38 111  85  19  30  43  43  48
 196 197 190 179 168 155 143 126 111 115 107  59  68  65  85  93  80  54  96 117 101 111 139 156 184 219 224 227 227 228 225 222 222 219 224 228 227 222 220 219 217 215 216 216 214 210 207 203 205 203 197 193 188 197 196 197 191 187 190 204 201 195 196 200 205 216 214 210 206 212 210 196 200 196 198 197 197 174 159 137 137 153 145 106  41  65  48  19  28  41  40  43
 183 185 177 163 151 144 134 121 111 132 118  41  75  83  75  59  65  76 103 125 107 105 135 172 198 210 218 221 221 222 220 227 229 227 231 230 231 233 232 228 222 221 219 215 218 207 204 204 183 187 182 179 183 183 190 179 176 185 188 183 182 186 195 205 212 212 209 205 196 196 185 177 189 189 190 196 196 179 161 154 133 144 145 108  42  66  55  26  38  42  43  47
 164 171 164 157 147 140 135 136 139 161 126  45  48  64  81  54  67  83  87  90 122 110 136 175 196 209 215 217 220 222 224 228 230 231 229 234 238 239 240 236 229 223 219 213 206 201 200 201 181 171 179 176 176 180 179 170 169 177 186 182 187 198 198 195 193 203 199 188 171 166 164 160 166 182 182 176 157 176 165 157 156 140 141 101  36  79  73  32  38  45  50  54
 154 158 158 158 155 148 148 147 153 184 119  38  60  67  68  81  75  51  86  97 109 127 143 182 211 215 217 218 220 225 229 232 234 234 238 241 236 226 225 221 215 206 212 201 184 190 195 187 178 172 166 160 160 170 169 158 166 170 175 175 172 177 184 178 182 177 169 170 150 154 161 146 152 170 181 171 138 156 168 152 151 152 135  86  38  59  63  35  45  53  54  55
 137 143 151 155 159 160 169 176 181 192 116  39  57  62  70  89 105  57  70 107 110 132 176 201 213 217 217 220 222 228 232 234 237 242 243 215 179 165 163 149 133 135 135 133 135 150 153 157 163 141 143 142 136 140 136 146 153 166 168 156 156 158 161 154 151 161 166 164 156 152 171 161 166 168 169 175 177 180 170 164 147 160 148  88  32  55  74  38  50  57  56  55
 149 152 158 161 164 168 182 193 207 213  96  47  55  69  80  51 104  89  67  88 114 159 205 217 213 217 218 222 229 232 233 235 240 219 183 135  95  93  79  64  65  72  69  67  66  69  71  78  83  91  91  94  98 108 120 128 140 153 154 153 137 117 130 131 117 132 136 156 164 180 189 193 191 180 172 182 191 204 200 188 171 158 145 104  35  51  89  55  54  56  56  55
 158 155 164 170 178 186 194 205 207 197  93  47  65  74  85  55  98 110 101  93 136 197 216 213 218 220 218 225 229 231 233 231 191 138 107  73  55  53  38  44  42  35  41  43  35  38  37  39  42  47  67  52  66  89 106 114 128 140 126 132 120 101 105 107  96 116 106 101 109 128 136 135 146 155 166 177 184 188 201 206 196 171 137 107  49  58  55  56  59  52  53  53
 158 160 169 177 188 195 201 204 207 214 130  47  39  67 103  84  77 103 100 116 158 210 223 220 221 221 225 229 228 227 205 163 124  92  70  52  47  48  50  53  47  44  35  38  34  26  34  36  38  45  57  51  52  65  87 103 111 117 115 111 104  95  89  82  75  82  75  66  69  57  57  62  61  64  73 101 110 117 142 174 207 199 145 105  54  73  74  59  61  55  54  48
 160 169 180 190 199 201 203 200 200 220 132  30  56  77  86 100  75 101 108 137 179 220 224 223 223 224 226 225 218 191 143  93  75  70  65  79  91  97 107  95  92  87  72  58  52  44  35  46  42  50  61  56  64  69  81  88  87  95 103  99  83  82  84  73  71  55  55  58  57  45  41  36  29  33  35  42  48  50  67  87 149 211 177 119  54  61  70  61  61  61  59  49
 166 171 187 199 204 199 198 198 201 210 114  36  85  82  68  94  74 131 111 134 190 223 226 224 224 226 224 217 196 165 129 110 109 102 117 140 156 161 161 152 143 126 104  86  63  51  48  49  55  57  60  64  67  67  75  83  85  98 107 103  91  74  69  65  61  55  52  48  46  31  28  25  18  20  21  29  32  32  38  42  80 143 192 137  63  66  65  62  62  59  57  50
 175 181 190 194 201 198 200 202 207 203 140  44  69  55  89 107  58 131 144 146 203 226 225 221 222 224 218 206 202 160 120 121 129 152 168 181 173 152 117  88  78  67  64  56  49  45  49  48  46  51  56  61  62  67  73  80  90  96 103  94  82  75  62  57  54  59  56  54  48  36  35  35  37  38  44  50  53  58  49  43  52  78 138 166  71  54  58  67  62  57  52  46
 189 192 198 201 207 210 203 196 180 178 121  37  55  63  67  93  78 106 129 159 216 226 226 225 221 219 206 193 178 162 137 144 165 176 181 140  81  67  87  96  90  85  67  49  38  34  38  41  50  51  54  58  61  70  83  89 104 103  99  86  73  66  59  55  52  51  51  51  50  45  46  50  53  58  63  74  76  75  66  52  39  64 102 161  82  60  58  57  57  57  52  46
 202 203 202 207 215 207 199 189 159 158 101  43  43  80  75  75  91  99 135 168 222 224 225 226 221 214 210 193 157 138 138 159 178 157  91  46  95 131 102  72  42  31  18  11  11  21  33  31  44  55  52  52  60  76  95 121 139 144 130 102  79  64  58  54  53  49  49  50  50  51  50  53  54  63  78  94 111 109  94  70  56  45  93 152  91  71  66  52  54  51  45  41
 199 204 209 212 209 205 202 177 150 160 129  48  50  77  74  86  93  91 134 177 222 222 223 225 221 214 202 175 157 138 146 166 137  62  38  92  86  30  23  37  42  22  10   9   7   3  17  32  35  51  54  54  62  94 123 158 175 188 184 150 124  81  50  47  48  49  50  57  47  36  33  27  33  37  37  42  57  75 100  93  70  53  86 170 107  48  56  53  52  48  44  40
 214 214 213 214 212 203 190 176 163 185 160  41  41  93  67  99  93  69 142 193 221 222 222 221 221 212 186 164 150 141 154 123  58  44  61  32  11  48  92 138 113  19  21  10  16  15  40  22  22  40  56  59  77 115 147 187 212 221 220 207 169 108  53  45  48  49  50  36  25  27  36  27   7  12  11  13  26  42  49  84  81  62  96 179  98  39  52  53  51  49  44  40
 226 219 217 214 209 197 192 181 177 196 160  47  43  90  83  76 106  93 147 197 220 221 220 223 216 201 187 173 160 149 134  86  61  50  51  69  61 134 169 167 156  29  16  13  24  13  46  23  14  30  50  74 110 136 171 212 227 228 230 226 209 153  68  43  49  50  34  20  39  60  85  65  10  14  10   5   4  31  27  42  81  76  95 185  98  36  51  48  48  45  43  41
 224 221 219 211 201 198 187 186 196 202 180  49  27  66  90  74  95 100 144 199 222 220 218 213 207 202 199 178 166 147 110  76  84 120 182 213 161 111  95  87  95  72  49  51  49  48  46  38  37  38  68 109 149 172 197 220 229 232 232 228 225 205 122  39  50  38  13  46  72 112 150  69   8  11  16  17  27  21  45  29  68  71  89 188  97  27  47  46  46  46  43  42
 224 224 218 210 209 195 200 239 250 246 232 188 154 115  86  77  79 110 148 206 219 217 217 209 200 207 204 188 173 149 130 145 187 208 219 202 168 140  98  73  68  74  73  71  57  52  45  47  54  59  99 145 174 194 219 227 231 233 233 228 228 219 189  90  44  36  35  48  51  65  91  67  18  12  13  17  57  15  29  33  43  68  83 180  90  25  43  44  45  45  43  42
 223 220 216 213 205 193 239 242 229 236 239 232 237 230 183 104  73 113 138 209 217 213 214 214 207 210 206 201 192 174 187 214 217 216 209 185 169 138 105  92  68  57  49  39  40  43  44  51  62 106 153 184 203 221 229 229 231 232 232 233 227 222 213 161  83  49  53  56  59  57  50  60  68  54  41  38  46  23  19  34  46  70  80 169  83  30  41  44  46  47  46  43
 225 219 213 206 190 211 207 121 101 132 197 219 217 222 224 195 114 100 147 214 211 207 213 217 216 217 213 211 207 200 211 215 215 209 181 166 143 105  83  68  58  52  51  51  52  51  63  82 133 177 194 211 219 228 230 232 233 234 235 234 232 230 217 194 149  88  68  54  50  56  56  53  51  55  50  52  56  65  47  31  49  73  83 166  76  32  45  48  48  48  47  43
 221 213 201 199 193 207 130  75  76  55  84 178 202 194 207 221 174  87 150 215 215 208 213 214 213 216 215 215 217 213 211 217 223 205 190 182 153 132 109  91  81  78  75  65  66  76 110 155 191 209 214 223 229 231 232 232 234 236 236 237 236 234 226 201 176 134 101  88  69  53  48  58  60  52  51  54  58  72  79  45  50  83  95 166  70  38  47  47  51  53  53  50
 208 204 199 198 199 197  98  76  84  90  95 130 178 163 176 211 210 104 155 210 217 209 210 212 216 220 220 222 225 224 223 223 224 214 211 202 180 167 150 127 105  94  84  90 104 139 176 199 206 216 222 226 230 230 232 233 234 236 238 237 234 236 228 203 182 162 120 118 102  72  63  57  52  50  46  49  52  65  92  91  77 100 109 171  67  45  53  51  54  56  58  59
 201 199 196 198 201 202 104  74 116 152 175 183 187 151 145 197 210 122 158 206 214 212 210 214 219 221 224 228 229 227 225 228 222 221 217 198 179 160 140 131 110 106 122 137 164 194 211 216 216 221 225 226 230 229 232 233 235 237 237 236 235 240 233 211 175 167 153 131 128 102  68  66  65  54  52  55  58  68  96 125 115 115 124 177  79  33  54  61  67  74  71  71
 202 199 202 203 202 204 131  74 145 204 219 221 226 178 111 182 222 139 155 215 212 211 209 212 220 224 226 229 232 229 230 228 223 219 215 205 190 173 156 144 148 165 172 190 202 215 217 222 221 220 218 225 227 227 232 232 234 238 238 237 237 241 239 227 167 148 159 143 146 142 109  73  64  69  74  72  76  88 112 135 144 145 139 204 228 100  48  68  78  87  86  88
 201 202 205 203 194 210 164  81 162 227 234 235 205 115 107 181 231 155 150 208 215 208 211 215 220 224 228 229 232 229 228 226 222 218 216 206 196 188 183 189 194 200 197 204 218 223 219 222 218 218 221 217 218 224 231 232 235 238 238 237 237 240 244 238 198 128 149 152 150 157 144 124  84  71  73  77  82  94 116 151 173 180 164 196 236 223  86  69  83  90  96  98
 199 198 199 195 184 200 205 106 172 241 236 204 111  37  95 224 230 165 151 191 209 211 214 218 220 223 226 228 227 224 225 224 221 218 210 202 197 195 196 200 202 209 208 209 226 226 223 223 219 218 200 188 211 222 231 231 235 238 239 238 237 239 240 234 233 151  98 157 160 160 156 152 140 115  90  81  96  96 122 140 184 192 187 156  97 187 133  65  85  91  99 108
 194 192 191 191 185 195 220 127 190 241 211 139  78  39 139 246 225 173 171 185 212 211 215 219 220 224 226 228 226 223 223 219 219 215 211 210 209 206 217 222 220 221 228 227 227 226 224 220 214 188 176 212 221 229 233 234 236 239 240 235 231 225 218 212 215 218 126 109 157 162 162 162 163 163 142 127 113 123 154 163 184 196 198 128  33 136 130  74  91  96  99 109
 185 190 193 196 194 188 220 158 214 233 176 106  75  73 212 241 228 162 181 192 211 208 215 214 217 221 228 225 221 221 220 217 216 214 213 210 210 220 219 219 221 226 228 227 224 226 221 206 180 142 197 234 231 235 236 236 237 235 225 214 202 183 171 158 159 178 200 108 121 166 171 172 168 167 168 150 134 142 160 164 159 188 209 109  45 147 108  75  88  91  99 103
 181 189 196 201 200 183 218 187 226 220 137  90  66  96 226 231 232 174 176 192 206 207 209 213 216 220 221 216 216 215 210 214 215 212 208 215 216 217 220 224 231 230 227 226 224 220 205 179 130 144 232 234 237 238 232 224 216 203 191 173 153 135 117  99  93 107 170 160 108 154 164 177 180 172 167 169 171 153 156 162 160 168 208  95  74 138  91  85  78  84  90  94
 179 194 200 197 196 170 208 199 227 195 118  91  98 146 213 232 230 184 181 205 206 208 209 214 217 219 215 211 213 209 215 214 217 217 215 214 214 221 221 230 227 225 222 222 218 201 181 140  94 199 244 237 237 223 202 182 169 168 157 139 112  89  83  79  70  74  98 180 139 111 162 173 179 186 175 178 173 172 153 151 163 163 184  80 112 107  87  85  77  79  80  75
 175 186 189 189 181 143 188 205 219 186 142 138 174 215 217 220 224 185 173 209 210 212 211 211 211 214 214 214 212 205 207 214 214 210 210 205 211 223 222 225 228 225 223 216 191 174 149 113 125 236 237 226 206 172 140 113 115 128 127 121  94  71  67  66  71  62  61 121 190 110 143 163 175 182 182 182 181 173 162 151 138 149 173  78 119  88  87  80  73  66  64  59
 162 175 183 178 162 123 162 216 221 209 182 174 203 221 202 211 210 200 179 202 207 205 210 211 208 209 207 209 210 202 204 204 205 208 206 203 219 219 215 225 226 221 215 190 179 163 153 144 160 226 198 159 113  71  40  24  32  54  94  93  78  63  67  68  40  29  53  75 144 118 112 149 171 184 189 184 180 172 166 158 139 133 148  93 121  74  82  76  67  56  50  59
 148 164 170 148 135 119 137 218 218 236 216 213 233 225 198 212 197 199 167 193 208 205 211 213 210 211 209 208 209 204 199 190 201 204 205 206 218 220 222 226 224 213 203 188 176 162 170 159 162 200 127  67  28   2   0   0  18  29  56  82  59  61  63  22   0   4  29  63  83 113 114 145 165 171 186 183 177 161 155 156 147 129 138  99  91  66  72  65  57  46  43  69
 143 157 156 143 141 145 125 214 210 205 229 241 233 232 232 218 186 184 168 181 209 209 214 216 213 214 212 205 202 207 201 200 198 204 203 203 219 221 225 222 218 205 206 188 160 173 190 172 159 156  91  48  35  26  25  38  57  56  57  71  61  62  37   5   9  21  30  47  64 123 125 131 151 163 172 177 174 166 152 148 142 121 144 107  59  58  62  57  49  45  53  76
 137 143 144 151 148 142 106 189 229 190 219 240 233 239 235 203 168 190 171 178 206 212 213 215 215 215 209 204 202 204 204 197 198 201 198 211 219 219 212 221 208 202 198 133 150 189 189 187 169 139  92  59  59  51  53  60  55  49  57  70  58  39  43  38  42  51  50  49 118 140 117 124 138 149 168 159 150 160 143 135 124 114 145  98  53  57  50  47  39  46  57  81
 137 138 146 156 155 144 119 139 235 239 238 227 215 226 223 200 164 188 172 180 210 209 214 214 214 213 209 205 210 204 204 196 201 199 199 213 215 215 218 223 207 194 184 171 189 199 199 200 193 177 124  75  51  44  58  65  69  75  82  75  54  39  43  46  44  47  50 124 163 156 129 129 137 147 142 149 143 140 134 118 110 112 153  80  48  52  50  44  38  51  69  95
 152 152 156 160 162 153 140 104 192 245 237 198 204 227 216 190 157 174 140 170 208 210 213 217 216 210 210 211 210 201 206 202 204 197 209 215 219 220 217 214 211 201 198 193 201 209 207 203 196 179 178 164 128 106 105  87  99 111  94  78  61  49  45  47  38  33  69 143 157 160 159 139 137 142 140 131 132 120 126 114 105 116 145  57  43  50  51  39  42  56  70  93
 171 173 171 171 164 154 144 131 129 210 222 210 220 207 180 138 139 157 146 168 205 211 211 215 215 213 210 209 206 202 205 203 197 203 207 208 216 211 203 219 216 209 204 191 202 214 213 208 199 190 195 181 167 153 130 111 110 104  89  71  58  56  53  49  48  41  83 139 158 163 160 154 139 134 131 125 115 118 111 105  96 127 133  34  36  44  38  30  46  54  61  82
 176 175 171 167 165 158 151 152 124 123 157 161 152 125  94  68  95 112 153 191 207 212 211 212 212 209 208 206 208 205 202 200 200 200 199 203 217 207 206 218 208 201 191 202 215 216 209 208 200 193 195 183 168 141 136 129 118  95  76  70  60  62  58  53  51  57 107 143 151 160 168 152 142 138 131 125 115 107 100  99  88 135 112  26  35  35  32  34  47  48  57  74
 176 177 171 163 161 158 150 145 135 118 117 122 113 117 127 142 103 106 140 187 199 211 215 211 212 211 207 204 207 204 202 202 201 200 206 208 201 192 213 219 208 195 195 209 204 201 189 182 187 180 186 171 154 151 143 124 119  92  72  73  79  65  63  64  58  84 111 137 147 151 161 161 140 125 121 112 106 100  98  96  86 147  81  25  35  34  31  32  40  43  47  58
 167 168 161 153 146 147 150 147 131 118 107 110 125 136 145 157 139 143 144 173 211 213 216 212 210 212 205 197 200 202 199 199 197 197 208 200 199 212 221 217 196 196 213 205 195 194 181 187 182 176 176 167 150 160 156 130 116  83  68  69  95  92  77  75  77  91 111 118 138 145 139 153 145 127 119 110 101  93  88  94  96 158  42  24  32  32  30  29  33  33  37  46
 152 150 143 138 133 132 131 122 104  91  86  91  93 103 116 113 128 156 122 155 213 211 211 212 208 204 206 200 200 195 196 198 194 201 201 197 209 213 215 198 186 212 189 173 160 163 175 176 178 179 172 177 171 171 179 178 164 111  93  93 131 150 125 101  93  99 110 115 124 130 126 134 143 127 111 114  98  89  91  92 122 135  21  28  30  30  32  31  31  30  26  31
 123 117 114 109 104 102  94  87  79  73  66  69  76  85  85  82 105 168 140 151 211 212 211 208 211 207 199 204 197 188 200 201 200 199 202 206 210 210 209 191 196 185 147 140 148 136 141 140 142 168 184 204 216 219 204 193 174 165 169 158 173 179 147 139 146 138 123 105 102 119 100 104 118 110 104 109  98  86  80  90 141 105  10  23  26  26  27  27  24  26  24  17
 104  98  94  90  86  79  74  71  61  57  51  57  61  60  57  56  68 174 152 142 206 210 210 210 205 204 200 199 187 192 191 193 196 199 205 208 208 212 204 196 187 149 125 108 101  96 104 129 160 200 229 215 173 128  98  87  74  85  97 131 115  85  65  73 102 134 148 124  90  89  89  73  92  99  91 103  95  88  85  99 121  50  11  20  25  25  25  24  21  22  19  14
  75  71  66  63  54  47  42  38  38  45  52  50  42  36  36  35  37 172 161 128 206 206 210 206 202 195 191 200 190 194 196 191 195 205 206 197 197 209 184 181 148 112  96  74  59  60  93 161 195 184 139  89  61  61  64  66  76  63  54  55  42  40  47  46  40  49  93 134 113  69  63  61  70  92  84  95  97  88  98 112  80  15  19  20  23  21  22  24  22  20  18  13
  46  44  40  37  33  25  20  24  26  28  22  18  16  14  13  10  16 158 185 116 189 213 212 205 203 199 185 192 191 191 188 194 207 204 202 195 203 201 164 159 142  98  71  53  38  55 103 115  95  64  48  54  67  72  65  66  63  64  59  51  48  50  51  54  53  43  32  64  93  66  46  55  60  66  71  88  94  96 101 116  48  11  22  22  22  20  18  20  20  21  16  12
  27  25  21  16  17  16  15  12   8   8   5   9  11   9   7   4   4 144 206 140 170 214 209 203 203 197 197 191 192 193 182 193 208 202 203 204 199 187 158 157 105  70  49  29  19  31  45  33  25  30  41  40  38  36  37  41  44  46  43  49  46  47  48  47  44  48  45  37  54  52  46  54  55  58  75  85  91  93 106 110  32  15  21  22  22  20  18  18  18  18  14  11
  22  21  17  15  17  13  11  10  11  14  11  12  12  11  10   7   6 129 209 170 166 210 203 190 192 196 189 183 182 181 183 185 203 200 194 202 194 177 155 135  77  52  39  30  29  27  36  55  65  98 132 118 109  75  66  54  42  29  20  24  24  28  28  29  24  29  36  33  22  19  33  51  53  52  76  84  84  87 107  94  21  21  22  23  25  22  20  17  15  14  11  11
  24  19  17  19  17  15  13  13  13  14  15  14  13  14  12  10   4 122 210 190 180 198 200 193 189 198 190 179 178 179 187 191 200 196 191 198 193 171 145 116  76  55  57  65 107 136 132 135 151 160 164 168 174 177 163 144 126 116  74  69  81  69  64  58  52  43  30  22  31  34  40  48  54  56  74  87  87  91 109  77  21  28  27  26  25  22  20  16  14  13  11   9
  20  21  22  24  20  21  22  23  23  23  26  25  23  22  24  20   8 105 210 193 170 191 200 194 193 192 187 186 176 177 190 186 181 183 191 187 191 164 138 105  77  78  98 122 154 171 174 162 151 144 138 137 156 164 127 123 123 118  86 105 101  90  90  75  80  72  62  67  73  53  55  53  55  68  82  85  87  83 105  57  26  33  30  29  24  22  20  17  15  14  11   9
  21  26  26  26  31  34  35  34  34  37  34  38  33  32  30  25  27 105 212 197 165 179 192 190 186 183 182 187 180 168 178 185 183 178 184 180 176 160 135 120 110 121 133 160 174 172 174 166 166 168 161 130 119 113 102 107  99  93  83  83  82  81  82  81  71  72  86  89  78  69  69  60  57  68  79  84  84  83  91  42  31  37  33  29  24  23  22  21  16  13  11  10
  22  25  29  32  37  43  47  45  46  45  48  47  44  37  39  64  83 126 209 196 171 169 179 183 181 178 175 177 170 168 171 178 182 180 178 169 160 149 130 116 119 152 157 167 166 161 167 167 157 146 147 132 118 107  98  81  72  69  77  77  89  89  76  69  70  80  83  82  80  72  70  66  62  67  76  77  76  85  81  36  40  38  36  31  26  26  23  20  16  13  11  11
  22  27  32  37  40  47  52  55  56  54  59  49  40  57  94 114 117 135 205 199 177 162 174 177 169 175 177 168 165 157 160 164 170 170 169 170 152 141 129 125 136 156 163 167 157 157 160 146 135 129 118 109  94  78  78  79  67  62  64  60  59  55  57  63  66  62  68  78  79  74  68  63  64  66  66  70  76  84  70  41  45  43  38  32  28  25  22  19  15  13   9  16
  29  32  37  40  43  49  55  62  64  66  57  58  88 118 128 135 141 144 203 205 182 161 159 166 168 178 167 161 163 154 157 167 165 161 156 157 142 134 125 136 149 151 154 150 148 155 154 135 118 110  97  88  76  79  66  55  49  52  55  53  53  55  57  55  57  62  68  73  75  74  73  61  63  63  63  68  73  82  59  43  46  45  38  33  29  26  22  19  15  12  16  34
  35  36  39  43  46  53  59  65  65  57  77 117 136 143 154 155 136 116 198 208 179 162 148 150 158 165 164 160 154 155 164 168 158 157 149 145 139 137 133 135 144 155 154 144 149 143 141 135 117 108  87  79  67  59  53  50  49  48  51  48  51  55  52  51  55  59  68  74  69  67  72  56  61  62  59  66  72  78  45  45  46  44  38  34  32  28  23  18  14  18  33  44
  39  40  44  47  49  55  59  57  62  97 133 147 155 161 158 135 110  91 186 211 183 170 162 144 142 148 150 155 152 159 158 158 151 143 154 142 137 131 134 139 153 153 137 138 148 146 142 131 126 112  94  80  73  66  58  54  52  51  50  52  51  50  51  57  59  65  72  72  69  68  63  55  62  60  59  63  71  56  47  48  45  42  39  32  31  27  22  16  17  29  37  60
  43  46  51  55  60  56  53  74 109 133 152 159 161 153 130 110 108  95 179 219 190 168 164 148 125 137 136 144 138 148 151 146 147 149 145 147 145 141 136 145 151 137 139 148 144 135 134 116 108 100  97  84  73  64  62  58  53  53  53  53  53  56  58  60  65  68  71  71  68  66  64  59  58  58  63  62  61  44  51  49  44  40  37  30  28  25  17  15  22  30  58  81
  49  54  58  59  51  61  87 117 132 154 157 153 139 117 112 113 105  80 164 219 193 175 162 158 131 115 122 122 129 129 138 139 148 151 150 150 148 146 142 151 142 142 155 140 137 134 132 117 117 107  96  88  79  69  61  58  53  51  51  53  55  60  60  60  63  70  71  68  66  65  65  60  58  58  59  64  54  50  50  49  43  38  37  30  27  21  19  20  26  46  66  93
  70  70  60  56  76 105 129 139 152 149 131 113  99 100 107  96  82  60 149 222 192 179 161 144 144 105  95 108 116 120 128 137 142 150 159 158 154 157 162 153 153 169 148 134 143 131 122 131 117  98 104  95  86  78  72  66  62  55  50  53  57  62  62  63  69  72  70  72  70  69  65  59  58  61  57  54  49  50  48  44  38  36  34  26  23  18  16  15  31  52  81 106
  81  71  77 102 124 140 146 148 136 116  94  93  97  91  78  70  72  60 144 220 188 180 164 156 151 133  94  84  89 104 117 133 131 142 155 164 167 165 169 169 164 157 144 161 162 153 152 142 118 127 136 131 121  98  88  81  77  70  67  65  67  66  68  71  72  70  70  76  73  68  62  56  58  53  52  50  49  49  46  42  36  30  31  24  23  21  19  18  40  57  77  95
  95 107 127 140 149 146 138 125  97  84  92  89  80  70  67  72  73  57 134 220 189 173 166 166 158 155 124  82  69  83  92 118 124 129 142 158 163 175 183 181 170 173 180 178 170 167 153 157 160 158 146 137 122 102  93  87  86  85  86  84  79  77  78  79  76  72  79  86  79  72  64  57  54  53 106  51  52  52  49  41  35  36  38  37  39  41  37  36  49  54  65  77
 144 144 150 148 142 134 111  91  85  88  70  62  60  68  69  70  71  58 124 219 188 177 175 164 159 152 133 116  78  65  75  95 115 128 127 159 170 171 182 182 182 188 190 189 180 173 168 181 161 158 143 120 102  92  83  84  87  84  82  86  83  86  84  83  82  77  81  81  76  69  63  58  43  95 145  47  52  51  49  44  46  52  52  55  57  53  55  53  57  62  65  71
 153 154 144 137 122 101  91  92  86  70  59  60  63  66  69  68  70  57 113 216 191 180 169 172 168 160 141 119  99  77  69  68  83 108 125 140 153 163 176 185 179 189 179 183 190 191 168 163 162 157 126 107  98  84  74  78  71  73  82  82  78  85  85  82  81  81  82  75  75  64  54  49  58 126 143  49  51  51  51  51  56  62  65  68  71  70  70  67  69  69  71  70
 149 136 125 108  98  96  89  79  70  69  69  69  66  67  69  69  71  58 102 212 193 181 172 163 171 162 150 126 114  98  82  73  71  84 103 127 138 148 154 165 177 188 177 182 177 179 168 164 147 133 120  97  81  71  64  61  65  74  71  71  72  75  79  79  83  83  78  74  68  55  51  48  76 124 142  46  50  51  54  59  66  72  78  83  88  91  86  83  73  79  78  72
 120 108  96  93  93  83  77  77  76  73  73  72  69  67  68  68  67  58 100 208 193 179 175 162 163 152 142 133 118 107  93  84  76  75  93 107 115 129 149 151 167 147 174 175 175 155 148 136 120 113  92  81  70  55  55  58  63  65  59  64  69  67  68  74  80  75  72  67  58  53  48  54  84 117 148  55  50  49  57  65  76  85  93 101 106 109 104  96  92  91  85  75
  95  90  90  86  73  73  76  75  73  71  73  72  68  66  66  67  67  60  88 204 191 174 171 165 164 157 144 133 116 117 117  97  81  78  86  96  97 110 128 142 167 154 151 147 153 143 133 124 105  92  82  69  59  56  53  58  59  60  62  64  55  58  65  71  67  66  61  56  54  52  51  57  79 116 150  55  52  60  65  73  88  98 106 116 125 125 120 111 110 105  93  83
  75  77  70  65  68  65  67  66  69  71  71  71  68  66  65  66  68  61  80 201 198 177 167 166 159 154 142 132 119 110 111 101  99  90  83  98 104  95  86 115 136 134 116 118 115 109 115  93  84  78  62  59  55  55  52  57  61  67  68  61  55  57  61  64  60  61  54  52  48  43  55  62  84 112 145  60  59  69  77  89  98 103 114 125 129 129 128 123 117 111 104  95
  59  60  58  62  63  59  62  62  66  67  68  67  67  70  71  71  72  68  81 194 193 181 170 158 153 140 133 129 117 108 113 101 100  92  87  82 104  87  76  84  94 103 109 100  88  88  86  81  74  66  60  54  58  57  51  59  68  69  66  58  60  58  57  55  58  56  47  48  41  46  59  68  89 112 151  71  66  83  91  97 103 113 119 124 123 126 127 123 121 116 115 106
  56  54  52  54  56  55  57  61  62  62  62  66  70  73  75  75  77  75  79 191 196 182 162 154 145 138 123 119 115 111 106 103 102  89  84  77  82  91  81  71  61  72  88  77  78  89  72  68  62  58  62  56  56  55  55  61  64  62  58  56  55  53  55  51  49  46  45  43  43  49  59  79  92 111 157 111  61  84  95 100 109 115 117 117 116 120 120 119 121 119 117 112
  47  50  50  49  50  51  53  58  61  61  65  67  71  73  75  78  79  80  77 178 199 180 166 161 152 140 125 113 112 104 107 103  99  95  86  82  76  74  76  68  59  57  61  58  56  60  54  50  56  57  53  49  50  48  47  50  54  53  56  50  51  51  50  47  45  44  42  43  45  53  60  74  90 104 157 215 148  89  91 110 112 117 116 115 113 115 115 115 118 118 116 113
  46  45  46  46  52  54  55  60  62  63  67  68  71  73  75  79  80  84  78 174 198 174 165 156 146 137 128 119 107 105 100  95 102  99  92  83  84  64  55  59  57  56  50  46  42  44  45  43  49  50  45  47  47  45  42  45  52  49  47  45  45  44  45  42  43  42  43  44  48  54  59  69  87  98 145 178 212 195 127 105 121 123 118 114 114 111 110 112 114 116 114 112
  46  46  49  53  59  60  60  62  66  66  66  66  69  72  75  79  82  87  81 170 196 170 159 158 151 136 135 108 100 105 102  98  99 106  95  85  79  68  58  47  44  40  46  45  45  43  45  39  41  40  42  39  43  46  45  44  46  45  42  44  41  41  39  40  39  39  40  43  50  58  64  77  90 101 133 108 148 196 212 151 105 121 116 110 109 108 110 111 112 116 117 113
  57  58  59  61  65  66  66  68  66  66  66  65  68  72  75  80  83  92  84 161 197 172 167 159 150 137 135 114 116 108 104  89  98 111  96  83  84  72  56  53  50  43  39  45  41  45  43  44  42  38  41  40  39  41  45  42  43  46  39  38  38  35  36  42  39  40  45  47  51  60  64  74  92  95 132  83  98 134 165 184 140 101 112 109 109 109 109 108 108 114 117 114
  69  69  71  70  72  73  73  73  70  71  71  72  74  77  82  85  90  93  84 149 199 168 163 156 151 144 134 119 102  97  92  97  89 104  98  84  86  84  71  58  61  55  48  46  44  42  36  38  37  36  35  37  39  41  38  38  38  38  36  38  36  35  35  40  38  41  46  51  54  62  68  78  88  93 140  92  75 123 132 129 181 139  91 109 109 109 108 111 113 116 117 115
  79  79  77  75  78  80  80  78  78  79  75  78  83  83  85  88  93  94  85 133 202 176 162 157 152 143 138 126  92  87  92  96  98 113 111 110  93  94  79  80  61  54  49  49  50  46  39  38  39  40  41  41  38  37  37  40  39  39  41  39  35  38  37  37  39  45  47  54  59  63  74  79  92  95 133  96  68 115 125 112 122 189 120  98 112 112 111 115 119 119 117 114
  85  83  81  79  79  82  83  82  82  83  80  83  85  87  87  86  91  96  89 125 199 175 163 161 153 137 123 117 113 104 100  97 106 120 106 118 113  96  95  91  80  67  60  60  55  52  45  43  44  45  45  45  42  41  39  34  36  39  39  39  35  37  38  39  43  49  52  58  60  62  67  77  83  83 138 101  60 101 103 104  88 113 157 109 108 118 119 119 119 119 117 114
