P2
# Generated by OpenCV 4.2.0
92 112
255
   4   4   2   3   1   2   1   3   4   4   7  14  32  41  49  56  67  68  69  70  68  62  65  76  82  93 100  96  96  96  95  90  83  88  86  90  87  92  93 101 105  97  87  85  56  43  53  43  51  63  45  53  54  67  65  77 131 174 197 211 207 213 212 203 161  81  44  48  51  56  49  64 149 195 212 217 217 218 220 216 221 217 218 221 222 222 222 219 217 214 217 216
   2   2   3   2   2   2   3  11  14  21  25  32  41  52  62  74  81  83  84  80  73  70  73  77  85  92  96 100 101  99  93  91  86  88  91  98 100  94  91  74  52  52  51  49  55  46  48  40  44  47  32  45  43  36  37  67  39 111 166 209 217 216 213 203 162  81  46  45  48  53  56  62 149 194 214 214 217 219 218 220 223 222 223 223 224 223 223 220 219 219 216 219
   5   2   4   9  13  19  22  20  27  32  35  47  55  66  73  84  89  88  84  82  77  73  65  75  80  91  96 102 102  95  94  95  97  97  99  87  55  46  41  50  52  55  55  54  23  44  42  48  41  36  49  57  36  35  47  45  45  48  44  97 150 212 203 208 163  80  45  46  48  52  54  66 152 201 212 212 215 214 215 217 220 224 222 225 225 225 223 223 221 217 219 218
  17  16  19  23  24  30  30  42  41  44  50  55  66  72  80  85  90  87  87  87  82  76  72  71  75  84  96  99 101 108  91  92  82  53  50  48  55  39  52  48  46  52  50  56  33  50  29  48  45  58  50  47  50  57  51  46  59  45  48  55  52 101 211 184 162  78  47  46  48  51  54  71 158 198 220 217 211 212 214 218 217 221 225 223 225 225 223 224 223 224 219 217
  23  29  34  37  42  45  50  49  53  54  57  60  65  77  79  86  88  88  87  81  83  79  75  73  78  86  93 110 107  94  78  59  50  44  46  44  49  46  43  49  48  51  65  48  55  57  43  46  49  53  60  65  46  43  47  58  50  50  53  57  50  51  60  75 154  68  50  42  41  51  46  68 156 198 217 213 211 212 209 212 217 219 220 221 224 222 224 223 223 222 223 218
  40  43  45  45  47  52  46  53  51  56  57  62  75  81  86  82  83  87  90  89  85  87  87  86  89  90  99  97  88  52  37  41  46  40  30  55  58  41  55  64  64  53  57  48  62  47  37  42  53  61  61  54  57  58  51  42  35  43  54  44  38  48  57  58  44  70  43  38  45  45  46  62 157 198 213 212 208 206 200 202 208 212 213 217 218 218 219 222 219 223 217 217
  51  48  50  55  47  44  54  47  56  60  57  61  74  81  82  80  86  88  94  95  94  97  94  92  85  92  86  63  50  37  38  35  37  49  45  50  57  61  49  41  49  37  47  49  52  50  47  51  49  45  52  58  56  39  38  56  42  48  48  45  48  47  52  57  52  41  37  44  43  43  43  67 151 196 208 203 201 198 197 197 200 202 206 212 210 216 215 212 216 213 216 211
  48  48  51  51  48  51  47  47  47  52  52  62  74  85  90  91  95  97  94  91  87  84  81  80  68  66  38  46  35  41  33  42  47  34  48  52  40  56  53  53  54  56  69  47  46  54  71  58  49  61  46  49  58  51  55  49  50  59  58  55  56  42  52  55  38  39  58  46  55  45  45  72 150 185 201 197 199 197 194 191 190 198 199 205 205 204 207 206 206 206 207 205
  50  53  52  55  51  48  49  44  48  44  52  60  73  86  90  94  94  88  85  85  72  66  62  62  42  45  44  44  47  49  49  42  49  36  46  36  44  44  42  48  55  50  40  64  56  79  62  67  66  53  56  63  64  67  67  43  79  63  43  36  62  49  55  56  64  49  52  50  39  51  53  67 135 164 179 184 187 196 198 195 197 197 200 201 202 204 203 201 201 203 199 199
  47  47  54  53  57  54  44  52  51  55  58  69  75  85  86  85  79  73  72  72  66  56  42  38  35  36  30  49  44  49  40  50  50  44  45  40  54  27  60  49  54  35  45  57  66  54  57  82  53  74  58  55  54  60  67  59  68  54  37  62  49  46  54  52  41  60  49  48  46  41  48  66 109 141 149 158 171 184 193 198 196 203 204 203 205 203 201 203 204 204 203 203
  44  45  45  53  59  59  60  60  63  61  63  64  70  68  70  65  59  58  61  66  62  51  38  37  45  34  34  43  36  55  35  51  44  47  31  36  39  38  51  41  39  44  59  57  25  35  57  52  62  55  50  69  71  54  49  41  53  46  59  56  65  67  56  42  63  46  61  51  54  52  61  62  80 129 124 124 145 164 174 189 199 204 211 209 211 208 206 206 208 209 205 204
  45  48  54  60  68  69  66  66  60  60  54  54  52  51  47  44  42  43  61  76  67  34  34  28  26  30  44  45  43  40  45  40  36  31  16  39  57  43  51  48  47  52  33  43  48  64  55  64  55  46  38  57  49  56  66  62  67  73  80  76  66  87  87  48  67  56  59  48  69  41  46  58  45 118 125 103 119 141 155 171 187 203 214 216 209 205 201 201 198 198 197 193
  56  58  57  60  58  58  57  52  47  42  40  37  37  32  30  30  37  48  68  86  55  15  29  35  52  42  51  45  44  33  47  28  19  31  35  31  45  44  44  31  32  36  35  52  55  71  73  76  64  59  36  47  51  78  62  87  87  72  80  63  59  76  74  54  55  53  29  53  71  61  49  61  33  46  79 128  99 109 130 141 172 187 203 206 201 194 188 188 184 180 178 175
  59  55  48  42  40  37  33  26  24  25  17  14  13  15  23  29  37  55  73  68  37  25  30  30  36  47  42  23  27  35  36  27  29  36  43  63  38  35  34  32  39  63  51  52  64  77  67  69  52  52  54  78  76  51  46  57  50  63  57  62  65  63  61  52  73  86 107  56  67  59  55  53  58  45  41  88  86  79  98 106 142 166 181 184 182 174 166 164 159 157 152 146
  47  39  28  23  16  12   9   8   6   8   6   6   6   9  15  24  34  54  58  35  30  29  23  20  38  41  25  21  36  19  28  21  37  32  44  44  27  33  36  37  65  68  40  58  59  57  52  39  61  48  81  55  50  63  65  59  48  67  44  31  47  54  69  63  86 114  85  62  41  55  49  79  78  51  44  40  85  64  80  72 108 138 154 156 152 143 137 132 129 127 124 120
  25  15   4   2   0   0   0   5  15  21  18  24  24  26  27  36  41  51  47  24  26  25  21  39  24  28  29  35  30  25  16  33  29  32  34  30  21  41  29  35  42  44  31  40  54  41  32  50  50  55  71  56  61  86  70  65  43  28  51  48  62  66  57  70  84  63  78  56  83  68  53  72  79  49  60  50  46  64  52  54  74 100 114 119 114 114 114 114 111 111 106 105
   2   0   0   0   0   0   4  14  30  37  39  40  44  46  51  53  59  53  29  24  21  28  21  32  36  31  25  32  36  37  44  43  39  38  28  34  34  24  40  33  31  35  28  45  51  47  42  53  34  53  29  32  55  72  48  38  66  55  54  55  50  77  88  80  67  67 126  82  70  81  65  97  78  74  64  58  50  38  42  44  57  74  91  99 101 105 103 104 102 102 101 105
   0   0   0   1   0   1  13  27  43  54  58  60  62  59  63  68  63  35  27  32  29  26  29  35  31  32  25  25  37  25  32  38  38  24  22  17  34  25  23  28  39  27  41  40  40  25  35  32  31  49  35  40  40  61  46  25  27  56  56  94  86  93  88  66  58  73 111  75  74  81  95  78  79  61  54  53  47  53  41  51  49  63  76  87  93  93  96  93  90  98 104 103
   2   4   7  10   7  13  23  45  58  69  71  75  75  77  77  79  62  29  37  30  30  33  41  46  47  34  36  43  50  40  38  38  16  17  10  19  28  36  30  30  32  25  23  45  38  38  25  23  27  34  49  32  29  24  41  35  48  52  65  79  50  51  42  53  78  68  73  61  89  89 101  91  60  67  61  63  40  62  38  30  41  54  71  80  82  83  82  77  83  95 103 114
  13  24  25  30  31  34  39  52  68  77  80  83  82  83  89  87  45  36  31  25  37  27  45  70  63  63  63  69  62  79  79  59  28  33  34  38  31  32  39  35  33  39  32  40  41  24  23  16  25  36  24  21  16  21  38  36  43  52  59  49  63  57  62  54  81  56  59  99  94 100  65  72  72  55  77  69  67  70  42  47  41  52  67  73  76  79  81  83  85 101 106 117
  27  36  38  43  40  45  50  63  74  86  88  86  86  84  81  67  31  28  26  32  27  39  58  82 103  87  98  95 109 117 113 100 102  87  79  71  75  66  48  38  45  30  35  37  37  40  31  27  41  25  28  22  20  21  29  28  43  62  63  54  38  60  64  44  45  48  85 113 110  85  70  87  75  79  52  59  60  69  42  45  46  58  64  61  65  67  74  84  93 100 109 119
  35  44  50  48  44  48  53  68  80  92  94  88  87  85  83  43  36  27  28  34  34  50  84 112 105 119 120 128 124 128 128 109 110 123 124 117 122  99  80  62  54  42  33  28  30  43  26  39  28  33  28  20  29  17  34  20  41  52  28  49  49  56  40  42  47  56  97  96  61  83  61  70  77  63  45  48  64  40  50  45  55  67  71  69  68  71  77  89  96 106 118 125
  40  43  46  44  48  46  51  69  84  95  98  91  93  87  66  26  32  25  33  26  43  75 103 120 126 127 125 129 128 129 124 125 123 129 126 121 132 116 106  93  50  65  52  50  45  49  29  37  66  43  25  25  32  27  34  19  29  24  29  29  35  31  40  70  73  92  75  59  57  59  52  54  56  86  69  47  52  46  60  58  53  63  69  70  74  73  76  76  87  96 102 120
  43  45  48  48  49  47  57  73  82  94  95  93  90  88  35  27  24  31  34  45  46  87 112 119 124 126 124 119 123 126 123 125 124 129 127 131 131 139 121 116 101  97  81  67  53  50  52  38  41  32  48  49  31  34  31  35  34  33  25  29  38  53  59  72  73  83  72  76  76  67  69  67  54  38  51  58  95  76  74  54  59  64  56  62  69  77  66  59  57  68  83 108
  43  46  48  46  49  46  51  69  79  88  92  93  89  77  24  23  27  26  32  53  68 102 115 115 117 123 120 122 122 117 116 120 120 130 121 133 131 136 134 132 126 130 112 116  68  49  45  55  34  48  47  32  36  32  42  36  35  35  34  40  35  40  49  50  42  67  63  47  65  55  58  64  61  59  43  69  85  67  68  47  50  50  50  54  65  72  62  58  45  51  65 101
  43  47  46  48  41  43  49  64  78  82  88  90  90  75  25  24  26  28  47  61  78 106 110 115 116 117 122 118 114 115 117 116 115 124 125 128 128 133 134 134 137 141 143 143 131 113  96  96  80  75  59  45  52  46  43  44  36  45  36  32  24  22  41  33  47  38  54  42  37  54  63  51  71  71  62  80  81  84  61  64  51  56  43  45  47  60  51  51  36  51  62 105
  42  40  43  39  45  41  51  64  76  85  85  86  86  43  25  30  23  37  31  63  90 102 110 111 109 117 118 116 112 105 107 105 113 116 120 126 126 130 137 134 137 144 143 146 143 143 135 130 118 112  96  76  64  41  60  63  51  35  37  32  48  48  48  55  54  48  69  59  59  64  68  70  93  83  61  88 129 103  92  76  48  49  48  35  28  40  33  48  38  47  69 100
  34  38  37  41  37  38  48  61  79  82  86  88  80  35  24  22  33  31  42  73  79 102 109 111 114 112 111 114 108 108 108 107 111 109 119 121 122 131 131 134 138 146 139 136 149 143 147 145 138 136 103 129 122 106  88  69  57  69  84  92 100  89 116 105  91  93  92  93  89 112 116 111 125 134 111 127 153 109  90  88  67  54  51  32  21  24  27  42  46  53  72 102
  28  31  32  28  34  35  46  67  77  86  92  91  72  26  27  31  40  39  54  59  86  97 115 107 106 107 110 108 112 112 108 108 109 107 106 117 121 124 126 129 135 132 137 137 140 140 144 146 151 154 147 145 144 143 135 131 126 128 132 133 137 141 126 126 128 128 120 112 130 130 152 160 167 160 154 156 140 108 110  89  56  64  68  44  33  21  30  42  47  55  74 104
  22  26  29  28  31  33  45  61  71  82  85  84  59  19  24  26  33  47  50  61  77 105  99 104 102 104 109 105 105 104 105 102 100 110 115 117 118 119 120 128 129 128 133 139 137 139 141 144 142 148 147 142 144 151 148 150 149 149 149 154 153 148 157 147 142 141 129 136 145 160 166 157 170 169 168 160 127 117 116  83  64  55  70  52  55  39  50  52  54  55  76  99
  29  31  29  32  27  28  39  58  72  81  82  86  31  20  25  27  38  53  64  68  78  88  99 107 100 107 108 110 105 102 101 102 108 106 109 111 119 118 124 123 122 123 126 131 124 131 135 138 138 135 137 144 146 142 141 145 146 154 151 147 152 149 163 155 156 146 143 146 154 166 169 166 163 165 174 163 131 149 120  87  66  62  67  64  66  66  66  63  57  65  74  96
  33  32  27  23  24  26  44  61  76  89  91  90  27  22  23  28  42  53  49  66  75  85  99 104  98 102 104 112 101 102 101  97 101 107 107 112 115 116 109 123 119 122 123 125 123 127 126 132 133 140 136 137 144 140 139 140 144 147 150 145 152 151 151 152 160 158 154 150 155 151 164 161 167 166 175 163 160 166 125  92  80  65  55  73  70  66  63  63  55  59  75  93
  34  33  30  22  16  25  41  68  82  93  96  97  13  17  20  34  39  49  53  66  68  88  94  97  99 102 102 100 101  99  94  99  98 105 113 107 112 115 116 121 121 118 120 127 126 122 112 121 126 133 129 137 138 130 137 135 141 143 141 141 141 152 147 151 151 152 142 144 149 150 147 156 158 171 171 169 168 160 128  88  82  67  53  69  63  54  53  53  48  52  68  93
  43  40  31  20  14  22  36  66  85  97 103  89  11  17  29  28  40  52  51  59  68  91  94 101  94 104 109 102 106  99 105 104 104 107 102 112 114 107 114 116 117 120 122 118 122 124 122 120 125 130 137 121 126 128 127 132 129 136 140 139 138 137 139 144 137 144 152 137 135 150 145 155 158 163 164 164 166 173 121 100  72  60  48  60  56  47  44  41  44  53  63  87
  50  39  30  22  22  26  44  63  83  94  99  86  10  20  25  33  38  45  52  55  74  78  98 102 101 105 104 110 105 108 104 101 107 104 111 114 117 119 113 116 121 119 120 119 115 117 116 123 125 124 130 123 126 127 126 126 127 130 131 131 133 133 133 134 133 141 138 141 138 142 150 151 149 158 160 156 166 157 119  91  67  49  61  76  53  45  43  44  42  54  64  90
  52  47  36  29  29  31  50  61  79  89  90  63  19  24  21  22  37  59  60  62  79  95  95  99 101 104 106 102 106  98  99 103 110 110 111 114 115 117 115 122 115 122 116 117 121 124 128 126 122 127 123 121 130 122 127 125 123 126 126 132 129 131 125 128 120 132 132 134 142 146 143 151 153 148 151 158 155 141 108  90  81  62  51  69  56  55  48  45  42  58  69  88
  61  50  45  36  34  40  51  67  78  87  85  72  13  28  21  34  42  52  56  59  77  87  97 106 101 102 101 111 107 115 113 117 117 118 119 125 116 122 122 112 123 122 122 120 119 120 116 121 119 124 124 125 120 120 119 121 122 121 125 127 127 127 129 130 132 127 131 137 142 139 147 149 158 159 155 154 156 141 108  86  73  65  54  65  57  42  39  39  37  59  71  84
  61  53  46  40  39  43  54  72  83  88  79  57  17  26  27  31  46  58  66  82  92  94 104  98 102 103 111 107 116 112 113 115 123 120 125 132 134 138 140 138 128 125 120 123 124 116 119 123 118 120 120 124 114 125 116 120 124 125 124 126 130 129 138 137 128 127 131 139 147 151 146 148 152 146 151 151 148 141  99  73  69  79  61  60  60  51  47  51  55  62  72  83
  56  56  48  43  47  45  60  74  86  88  77  48  28  28  27  31  45  63  66  92 102  98  96  96 101 110 110 110 116 119 120 122 118 126 130 135 133 147 142 144 142 137 138 129 120 123 120 118 115 117 116 118 123 114 117 119 121 128 131 124 125 130 130 127 137 128 136 143 139 148 153 149 152 153 154 147 143 119  92  61  65  76  50  59  59  55  56  62  61  67  77  87
  54  51  42  38  45  51  65  79  88  87  74  44  21  24  34  43  57  55  80  87 100  99 100  95 101  97 111 116 117 117 119 131 125 128 131 140 145 145 144 140 145 144 142 135 136 119 114 116 112 123 118 111 113 116 122 119 123 131 132 128 142 128 132 135 134 143 132 142 146 147 147 152 147 146 142 143 133 102  92  72  43  77  57  43  67  50  57  59  69  67  77  85
  50  41  39  38  47  50  61  81  89  89  71  38  27  25  26  42  49  69  78  87  86  96 100 103 100  87 113 114 119 120 122 125 120 130 122 136 139 143 150 145 146 147 136 136 137 131 130 127 123 128 124 124 121 129 130 127 128 138 140 137 138 139 144 139 140 144 147 142 151 153 154 148 143 136 144 132 116 103  82  72  62  73  51  44  61  59  61  64  68  68  76  84
  50  42  35  38  46  50  59  82  92  86  67  38  20  30  25  38  64  80  86  84  86  88  96 103 102 107 110 115 117 125 123 123 126 123 129 129 131 131 130 140 135 149 143 141 134 132 135 135 122 131 134 128 134 140 143 152 151 155 156 159 151 150 150 150 152 144 149 152 149 153 155 146 147 137 135 129 113  82  79  71  51  54  40  36  68  68  73  69  71  72  71  82
  47  40  36  40  49  47  60  84  95  89  66  36  26  23  34  50  81  84  85  86  82  92 101 108 105 113 115 127 125 121 124 122 121 121 124 125 131 136 129 132 136 138 136 141 132 134 136 133 134 137 142 137 147 139 143 148 155 157 163 157 159 161 162 158 164 155 148 145 147 148 141 143 144 135 138 126 109  84  63  59  55  63  52  39  73  77  78  77  82  71  77  88
  43  36  34  40  44  44  57  81  94  85  68  31  21  22  35  70  79  86  89  88  89  96 102 110 112 119 125 132 132 139 131 128 129 124 124 126 133 133 133 138 132 138 141 139 138 137 136 135 142 142 136 139 144 147 153 151 150 158 156 155 165 161 157 166 163 164 147 144 146 143 138 137 139 134 131 131 100  78  73  58  45  58  45  36  66  77  78  81  77  75  84  92
  45  32  26  37  38  42  59  82  92  87  69  28  13  21  41  83  85  91  87  92  94 104 107 109 117 126 125 123 132 136 128 136 132 127 118 124 127 111 125 128 120 127 134 133 128 137 137 133 134 143 145 143 140 144 139 143 144 150 155 155 150 153 161 155 153 152 156 152 150 146 144 128 139 136 128 117 110  88  85  64  53  41  32  56  59  57  65  66  72  72  82  95
  42  30  25  28  39  42  59  78  91  87  73  30  19  22  44  86  91  85  95  90  93 103 107 117 111  95  95  98 110 124 130 129 129 123 128 123 126 126 127 127 129 123 121 128 132 126 135 132 129 127 135 135 141 138 145 140 139 144 146 153 152 151 154 150 153 153 156 145 137 146 135 149 141 138 127 116 103  80  79  66  49  46  42  51  41  40  46  42  57  75  88  94
  42  27  17  28  33  43  60  77  89  88  73  34  20  23  56  89  92  91  92  95  92  92  95  82  73  63  56  68  74  84  81  95 109 114 116 124 125 121 123 123 122 118 116 120 118 120 130 135 135 140 137 130 128 135 138 136 137 139 136 135 141 145 147 152 148 148 144 150 146 142 143 137 143 145 130 106  90  87  77  65  45  48  38  56  33  31  33  32  47  73  88  92
  43  26  19  30  36  41  81 116 111 100  77  48  21  19  80  90  87  93  93  85  87  69  58  45  42  39  46  39  40  40  58  59  64  65  80  85 109 105 114 113 112 113 110 108 109 118 119 125 128 123 125 120 124 126 129 127 129 126 132 137 133 142 150 154 152 154 153 153 148 146 148 135 143 131 141 118 106  94  75  60  47  61  33  54  35  32  29  37  46  72  93  97
  37  26  22  30  36  45 108 105 108 105 103  80  23  29  82  90  82  86  88  71  63  40  34  31  32  29  39  42  40  28  25  22  25  30  40  43  59  79  88  85 100  89 105 107 102 107 113 106 113 108 116 113 116 111 120 122 124 127 131 140 141 144 151 148 143 162 161 160 158 158 151 152 140 125 124 122 109  90  69  54  50  61  46  55  42  42  45  52  55  78  87 100
  34  26  24  27  31  58  61  63  98 101 104  96  41  32  86  89  83  86  80  66  48  35  39  43  53  61  62  65  65  56  38  25  22  14  29  25  35  26  51  60  74  91 100  95 102 103 104 110 104 100 100  99 103 108 115 121 121 133 139 141 139 138 144 147 148 161 163 159 163 164 161 153 145 138 125 118 109  77  70  53  41  37  47  68  57  61  64  67  70  77  85  99
  35  21  23  24  29  48  56  40  55 100 102 101  79  41  84  86  86  82  77  69  49  53  60  65  76  77  84  85  91  90  81  73  58  40  31  30  38  45  40  54  57  79  84  95 100  98 102 108 110  96  88  94  96  98 100 105 106 106 117 132 130 130 129 141 143 146 153 149 154 158 161 155 148 139 126 113 110  93  63  53  30  49  65  72  73  72  79  78  80  81  89 100
  35  25  17  19  23  38  69  35  46  63  93  94  80  52  89  86  86  84  73  60  55  61  76  72  79  79  78  84  89  98  98  95  85  71  52  48  46  54  57  60  58  60  77  85  90  89  99 106 104  93  89  90  78  83  76  72  79  76  72  88  82  85  97  96 100  97 102 106 111 142 153 156 150 143 124 124 115 110  71  46  35  29  80  83  78  84  81  80  83  91  94 105
  37  22  15  18  19  35  85  37  59  67  82  89  79  65  86  87  86  78  75  66  58  67  72  70  61  56  41  35  30  44  42  44  50  59  63  61  55  53  49  59  60  59  66  78  85  93  98 103  97  91  81  72  76  69  61  55  46  48  45  36  36  38  39  53  51  53  56  68  68 104 149 145 141 134 138 118 122 121  75  51  46  29  82  88  85  86  85  82  79  86  99 109
  32  16  14  15  19  26  80  52  67  80  89  78  71  71  85  91  83  74  74  65  63  65  64  56  10  42  26  16   8   5   1   3  10  34  21  26  58  58  51  49  55  57  65  73  77  89  90 100  96  88  74  75  64  60  57  51  42  36  36  28  26  17  16  31  24  24  30  43  48  65  85 123 131 130 128 127 123 124  85  48  39  53  81  77  84  87  82  82  80  82 100 105
  27  15  11  11  18  18  88  70  72  98 101  86  58  81  86  85  81  73  73  66  64  62  40  23  23   9   7  10  13   1   3   0  11   2  15  36  23  59  61  56  55  62  70  81  86  88  87  97  94  85  72  65  59  58  57  57  48  46  35  38  43  46  53  61  69  68  68  57  37  47  60  78  94 121 125 128 121 116  75  54  33  62  85  84  86  83  82  86  79  86  93  94
  26   7   7  12  10  20  89  74  82  98  98  67  50  85  82  87  85  79  76  73  66  58  45  28  14  18  22  49  21   2   5  12  22   4  69  22  23  36  62  71  63  65  74  88 103 105 105  98  96  87  84  63  60  57  56  55  46  48  51  57  65  71  86  99 104 106 101  88  85  59  54  62  75 102 123 123 132 123  78  51  41  82  85  84  82  83  82  84  83  90  98 103
  21   7   6   6   9  19  85  77 101  97  86  46  27  83  82  93  78  85  83  73  67  56  53  56  51  42  47  46  43  13   6   8   5  37  61  28  10  14  54  73  79  73  78 106 120 134 134 126 114  95  81  71  58  62  59  58  54  44  24  21  27  45  56  81 101 118 114 108 100  83  68  66  67  97 119 124 129 125  73  54  70  84  85  83  83  84  83  83  79  92 105 118
  21   6   5   4   5  16  86  86 101  99  67  40  44  85  85  89  80  89  86  87  81  80  83  79  64  62  55  48  61  74  83  87  78  69  82  73  72  64  35  83  89  84  87 108 129 143 151 148 129 110  89  69  66  58  57  37  18  17   9   1  18   3   6  22  42  39  79 100  97  94  82  75  84  99 114 117 126 132  68  49  83  82  82  76  80  83  82  82  84  92 111 117
  23  10   7   4   7  14  87  94 106  92  63  56  57  84  87  86  85  94  93  87  88  89  87  82  70  63  65  69  61  58  60  71  66  68  62  59  55  63  52  92  97  96 106 126 139 158 164 161 142 118  88  74  73  71  39   9  20  41  41   6   3   2  16   2   7  32  41  29  82  93  92  81  87  99 113 123 126 129  59  82 116 124 117  95  87  85  84  82  80  86 101 114
  18   9   5   4  10  17  82  94 102  83  71  95  71  82  87  89  88  92  93  97  98  92  94  85  78  70  63  60  60  63  63  55  54  42  45  53  70  74  78 101 103 104 121 138 152 164 170 162 152 126 103  81  83  67  19  37  29  52  54   7  24  22  21   3  55   7  19  38  25  84  92  93  87  96 112 127 128 124  53 142 149 156 170 168 140  77  86  84  79  78  85  99
  22   7   9   7  13  21  79  98 104  98  92 110  80  87  81  89  90  98 103 109 109 103  99  93  87  86  82  71  64  58  52  52  63  71  67  87  91  97 110 113 115 114 132 148 156 172 171 168 163 145 114  99  94  61  66  72  72  79  75  68  38  16  12  28  64  35  25  29  39  43  84  91  95 100 111 122 130 123  82 134 129 132 139 150 146  89  85  81  80  69  70  77
  13   5   8  10  18  27  79  97 111 108 103 122  73  85  82  89  94 101 103 112 113 106 103 103  99  95  92  96  92  84  81  81  85  92  97 107 111 110 120 122 121 130 136 146 161 168 179 178 168 154 129 116 107  85  80  47  67  65  62  63  76  86  89  84  87  76  72  64  38  54  85  88  95 106 114 120 128 104 100 112 104  94  70  91 119  99  80  84  81  71  60  62
  14   4   8  16  23  31  76  91 109 102  99 114  81  85  87  89  96  98 104 113 116 113 115 108 101  98  96  92 100  96  98 100 107 110 121 121 120 125 131 123 128 126 135 152 166 176 183 182 171 160 143 130 128 115  96  89  62  50  61  69  64  63  58  59  75  82  95  95  75  70  87 101 103 111 116 119 128  99 100 104  69  56  46  52  94  82  82  82  81  66  51  49
  11   4  11  16  24  32  69  89  98 107 128 116  81  89  88  91  98  94 101 108 113 116 115 117 111 107 106 103  98 105 109 109 126 128 129 125 123 121 126 127 123 124 143 155 163 173 183 184 171 156 150 140 150 132 125 109  96  73  60  47  61  60  65  74  76  80  86  99 122 111 111 116 115 116 122 121 124  74  86  75  69  59  49  65  99  79  86  80  79  65  44  37
   9   4  10  20  30  34  59 105  76 121 121 114  65  89  85  90  98  98 102 106 111 114 118 121 115 118 113 117 120 127 132 134 136 134 130 130 127 123 122 124 117 124 142 149 168 179 191 186 172 156 154 152 149 146 139 132 124  98  90  85  69  54  57  62  61  74  92 121 134 130 129 136 128 124 121 120 127  64 101 104  89  66  45  75  91  82  82  83  78  65  42  26
   5   5  10  19  27  35  46 104 114 126 121 117  76  84  87  89  95  99  97 101 106 107 118 115 120 117 123 125 131 131 131 129 135 136 133 129 117 118 123 115 119 118 139 151 168 184 188 183 168 159 151 153 158 155 153 149 139 124 112 102  98 106  99  99 105 122 128 131 135 141 142 140 141 131 123 126 119  63  96 112 120  73  65 102  82  82  85  80  77  60  36  16
   8   4   9  14  14  22  40 115 119 120 118 105  76  87  84  87  93  90 101  98 102 101 107 116 117 121 124 129 130 136 138 136 131 130 130 124 119 112 108 112 115 121 132 150 170 183 188 188 167 148 143 149 150 161 160 158 157 142 136 117 114 118 123 126 126 129 135 135 142 152 154 151 140 134 122 125 108  62  87 111 130  68  83 105  78  80  79  79  80  61  33  16
  14  13  18  22  26  32  44  91  98 103 109 100  76  84  87  91  93  94  95 100 105 102 109 109 113 119 124 122 127 136 132 132 128 131 124 117 110 104 102 104 117 117 133 145 163 187 199 194 175 150 132 133 140 148 161 167 167 159 157 149 139 125 118 120 132 131 138 140 162 167 160 158 139 128 124 118  89  67  84 108 127  89 109  85  75  78  80  81  78  59  32  20
  17  25  34  34  35  36  50  66  95  98  95  90  74  88  88  87  90  92  96 105 105 103 109 119 115 118 121 125 130 129 129 131 137 122 106 102  88  87  88 102 114 126 131 142 161 184 201 198 181 147 128 120 125 129 147 160 171 165 166 163 163 158 141 143 147 147 156 160 164 163 167 156 149 134 123 122  69  63  85 107 133 117 113  81  78  79  82  81  78  62  41  29
  20  32  47  47  48  46  54  63  71  82  82  77  69  85  90  86  87  90  97  98 101  98 107 114 110 117 119 124 129 127 127 130 115 103  92  78  85 110 114 125 128 122 130 142 161 182 196 206 188 168 124 107 108 121 133 150 159 164 163 168 168 169 163 164 157 160 164 168 168 165 162 160 149 134 124 114  60  79  93 118 122 128  78  77  79  77  77  80  75  61  54  40
  27  41  57  65  63  56  55  62  73  70  71  66  61  85  90  88  91  87  96  97  93  95 103 109 116 116 111 118 124 123 128 118 104  94  84  77 110 132 129 141 145 135 134 142 166 180 186 200 194 175 153 119  87  96 111 130 143 160 168 167 164 169 171 169 176 166 164 169 167 164 156 155 143 138 125 122  79  94 100 121 111 118  78  76  77  77  74  74  69  59  47  40
  24  40  62  72  64  52  49  61  68  72  75  76  74  91  89  87  87  88  94  91  92  95 100 100 116 103 112 115 118 116 113 108  93  86  75 117 143 130 143 139 140 138 136 144 163 169 180 188 190 183 181 157  67  77  91 106 127 147 157 159 167 161 172 172 177 176 171 166 161 159 155 145 140 129 120  88 103 115 111 117 126  80  74  75  74  72  70  74  66  52  39  36
  26  37  59  63  57  52  48  58  70  75  71  79  70  85  87  88  89  87  89  94  95  93  95 108 103 112 113 117 113 109 107  99  93  91 104 144 140 139 127 127 117 111 115 130 139 142 154 161 169 175 185 175 141  62  80  91 106 121 140 152 161 169 166 165 174 176 171 160 151 150 147 146 134 131 121 103 116 134 131 117 122  67  71  75  71  72  70  68  60  42  27  23
  21  29  45  51  50  40  45  59  68  75  74  72  72  91  86  91  85  93  97  95  98  95 104 101 107 104 109 107 109 112 106 104  94  90 108 117 111 111 106 107  94  91  92 100 116 119 120 124 125 135 155 178 180 150  66  82  95 111 129 140 151 154 159 171 164 169 170 168 162 148 140 132 132 122 114 146 159 144 130 129  64  66  66  70  72  69  67  70  55  42  25  26
  14  22  27  35  37  34  46  61  69  72  74  74  65  90  88  85  92  94  89  97  95  95  94 105 103 101 103 104 106 110  98  92 102  98  92  88  92  93  91  84  81  87  84  89  99 101 106  99  99 112 129 137 178 184  83  74  84 107 116 125 135 142 153 154 161 166 158 157 160 145 136 125 123 126 120 163 173 103 139 122  67  63  65  67  65  67  69  69  58  38  28  26
  11  13  19  26  30  32  47  61  68  71  69  71  73  93  93  88  88  88  91  95  87  91  97  98 104 103 113 108 102  73  93  97 100  94  78  69  55  25   9  10  27  75  80  83  88  88  91  88  89  87  92 112 145 157 135  77  80  97 106 126 126 138 140 144 149 155 158 154 144 139 123 127 122 118 110 172 178 160 153  72  60  64  66  63  67  67  68  67  55  42  25  27
   8  10  12  17  27  32  50  58  71  64  70  69  70  88  90  85  85  88  91  94  92  92  97 102 100  98 104 102 102  98 102 105 105 101  87  68  63  49  41  26  31  42  62  75  80  75  77  79  34   9  24  76 104 110 122  87  77  82  96 103 115 124 136 140 152 138 149 150 143 135 122 120 122 114 130 142 158 164 103  64  63  65  60  66  67  68  65  68  57  38  27  25
   6   7   9  13  21  30  46  56  69  66  67  68  64  91  88  87  85  92  92  94  92  96  92  89  94  99 105 102 103 109 112 116 114 102  94  68  40  39  44  49  50  53  48  63  60  65  63  50  34  36  36  35  60  75 105  90  68  72  85  95  99 113 117 119 131 134 135 136 135 134 119 119 118 114 137 131 144 154  62  64  66  64  59  62  65  67  65  65  55  40  24  26
   6   5   7  10  14  25  40  56  64  63  62  65  66  85  83  88  88  91  92  88  90  97  90  95  92  93  96  98 104 100 114 111 111 101  90  76  59  46  40  41  49  52  51  54  60  62  47  57  49  45  49  56  66 102 108  88  76  66  82  93 100 103 111 113 121 126 127 128 131 125 116 118 119 124 103 116 123  78  68  71  69  61  60  63  62  66  67  62  53  36  23  25
   7   6   7   9  11  21  37  51  61  62  63  59  62  89  84  88  89  86  90  91  85  90  92  94  93  91  94  90  98 107 110 108 104  89  90  77  60  65  59  41  50  58  59  64  71  67  53  47  53  47  47  72 101 113 105  94  79  66  70  79  89 101  99 107 110 123 124 121 118 122 120 117 113  95  72  77  81  67  74  78  75  71  66  69  66  62  65  61  48  37  24  27
  23  24  26  24  26  37  45  56  61  63  58  59  59  87  83  87  83  88  87  86  92  89  86  86  90  92  86  93  96  96  85  92  92  87  90  81  71  63  63  58  48  54  60  65  69  53  50  44  54  47  65  84 105 112 112 105  94  72  62  77  88  88  97  92 106 110 114 112 118 114 117 119 116  70  66  73  71  74  77  82  75  73  66  73  72  59  58  58  44  33  18  25
  45  47  48  46  47  48  55  63  64  61  61  62  60  84  86  85  87  83  86  87  82  81  84  81  85  78  72  89  93  81  84  95  75  73  70  78  79  69  61  61  68  65  59  53  65  60  58  64  69  60  72  91 112 111 109 108  98  81  61  66  84  85  91  92 102 108 110 103 111 116 122 117 120  59  64  67  68  66  70  73  71  69  67  72  65  50  44  45  43  29  18  21
  67  62  63  62  58  60  60  64  64  59  55  61  62  84  81  84  89  84  89  89  84  84  82  81  86  66  77  59  70  73  63  71  77  81  74  74  75  73  66  71  74  60  47  63  65  50  55  67  66  76  90  90  95 109 111 105  90  88  69  55  75  84  87  90  86  95 109 100 114 116 118 123 118  60  65  65  59  59  63  68  70  71  72  73  70  48  32  40  32  23  16  22
  69  69  67  63  59  56  53  57  56  58  61  65  68  83  84  85  82  84  83  86  87  85  81  81  79  70  70  62  63  76  66  61  69  64  84  72  74  75  69  71  73  73  69  73  69  74  78  80  93  93  81  93 100  85  95  98  86  87  80  59  67  78  80  91  84  92 100 105 112 113 121 118  85  56  56  56  51  53  54  62  67  72  76  81  74  63  60  56  37  24  15  18
  66  63  64  61  47  46  45  46  49  46  56  64  73  84  82  86  84  84  87  82  83  84  81  78  67  70  62  65  60  52  48  63  64  66  76  84  94  94  91  98 101  95  99  93  94 102 107 105  92  89  89 101  97  98  92  91  70  86  83  76  65  76  85  87  88  95  90 106 106 113 118 121  59  48  43  43  45  49  55  58  62  69  75  78  77  76  92  80  46  22  13  17
  54  59  57  51  45  42  38  38  40  43  45  57  72  72  83  84  85  81  81  84  81  79  82  77  66  68  68  60  49  36  46  54  72  82  90 100  96  90  87  94  86  95 113 114 110 120 125 122 129 125 123 117 108  87  88  83  81  74  80  76  63  79  80  86  90  95 101 110 113 114 115 122  44  44  41  40  44  46  48  50  52  57  64  67  66  80  94  85  56  26  21  16
  43  40  44  39  35  32  32  35  37  35  42  50  60  62  77  79  81  79  84  80  78  80  80  76  64  64  59  45  20   5   9  40  50  54  48  43  48  51  55  50  52  52  55  76  96  86  74  73  83 100 122 122 118 104  80  62  76  64  87  86  61  80  85  87  91 103 111 110 109 121 114  99  42  45  38  34  33  32  36  37  36  46  50  54  52  58  72  72  51  37  24  18
  29  28  30  25  25  26  31  29  31  37  38  47  60  68  76  79  83  80  79  75  73  72  82  75  65  68  60  46  41  54  30  12  14  17  31  44  46  54  55  59  62  62  65  63  66  64  70  70  62  54  56  78  96  93  82  57  48  62  70  76  59  90  82  86  94 101 105 109 117 113 116  39  41  49  42  38  34  25  27  32  32  32  42  43  37  34  46  51  46  37  21  12
  18  15  16  14  15  15  17  21  21  29  34  41  53  56  68  79  75  80  82  70  70  72  78  79  67  67  65  72  57  74  77  55  51  54  54  36  16  21  17  30  42  48  57  61  56  61  61  62  56  58  50  45  42  57  54  43  34  47  59  74  74  92  87  90 100  98 107 113 107 117 118  39  45  50  50  43  29  28  26  25  26  32  41  36  28  19  25  36  41  37  23   8
  16  11  11  10  10   8  10  10  16  24  28  39  46  53  49  72  77  73  80  70  74  75  78  79  68  81  77  83  79  85  89  76  74  74  80  81  87  80  82  73  66  65  32  20  20  23  18  16  13  20  22  18  11   9  21  26  21  46  55  67  81 103  93  90  99 104 106 108 105 107  86  37  46  52  48  41  31  27  28  24  27  35  37  37  24  12  13  25  38  35  22   7
  14  10  10   9   9   8   9  12  20  22  22  34  36  41  41  76  72  78  74  66  70  72  73  78  67  79  91  89  96  88  94  89  93  75  73  78  80  98 104 114 113 108 111 107 107 107 118 108  92  76  73  57  70  71  63  51  54  47  65  66  94  92  91  95  96  94 103 106 105 116  56  42  43  49  48  48  47  43  35  32  38  40  47  40  29  14  14  18  36  35  26  10
  20  13  13   9  12  15  15  22  33  42  29  34  36  35  36  72  69  78  75  69  73  71  72  74  74  82  88  92  98  93  86  93  86  92  79  62  71  72  90  90  95  98  96  96  95 104  94 100  87  89  81  93  92  82  87  86  71  70  75  94  99  90  89  92  95  99 106 107 112  92  62  44  39  42  42  50  64  68  54  41  50  50  45  32  23  13  13  14  26  30  22  10
  48  42  42  47  43  49  48  51  53  56  47  47  40  34  38  69  71  65  69  71  71  69  71  73  74  84  88  90  93  96  90  84  87  87  82  77  66  66  67  72  73  77  79  80  82  80  80  82  87  97 102  91  99 103  99 100  92  79  84  91  91  91  84  94  95 100 100  88  97  68  61  43  33  29  29  50  59  66  56  50  44  45  40  23  15  11   9   8  16  26  21  11
  64  65  64  70  67  67  72  68  72  70  70  67  63  63  55  72  68  70  70  68  67  66  70  66  75  80  83  88  92  92  89  88  80  81  82  81  73  75  68  68  67  69  70  69  76  75  87  95 101  98  97  99 106 108 104 110 100  87  89  90  83  77  80  90  93  99  96  96  92  61  64  40  29  27  29  36  44  41  43  38  38  36  29  18  10   8   7   7  11  21  18  11
  64  64  68  73  72  76  78  78  77  81  75  78  76  77  71  76  67  61  64  68  68  63  63  68  67  81  76  83  89  90  92  88  80  74  74  72  80  75  71  71  71  76  78  77  76  81  81  81  98  97  97 100 113 122 116 108  96  94  86  75  73  76  80  88  92  93  88  86  59  53  38  19  25  30  29  27  36  37  34  23  24  27  25  12   7   7   7   7   9  13  15   9
  50  55  62  66  68  72  68  70  70  72  66  65  72  76  71  72  67  66  53  56  66  66  71  73  67  74  82  80  87  91  89  88  87  80  74  69  62  56  49  52  57  67  63  63  76  80  82  84  89  98  99 109 105 106 111 105 100  84  76  70  66  79  84  88  88  81  79 110  44  45  27  13  17  28  29  37  35  35  32  22  21  21  16   7   6   6   7   6   7   8   7   7
  65  67  75  79  74  77  73  66  67  67  55  50  58  65  61  76  69  66  57  61  58  62  65  72  71  73  70  85  85  82  85  86  84  87  78  74  75  76  60  54  51  48  53  52  63  70  73  76  88 102 108 109 103 104 110 103  90  83  71  55  61  76  82  80  89  73  91 124  39  38  23  11  11  22  27  25  35  34  32  24  19  17  11   4   5   6   6   5   5   7   4   4
  53  57  70  90 110 107  96  79  69  62  58  48  52  62  62  76  62  64  49  61  55  58  68  64  73  71  72  74  81  78  84  86  87  84  87  78  77  74  71  67  63  60  63  70  79  81  88  88 100 107 110 109 112 108  99  93  92  83  61  62  70  74  80  86  62  63 104 119  39  38  25  15  12  15  21  21  25  28  22  20  18  13   5   4   3   4   3   4   5   5   4   3
  33  31  39  74 103 115 104  90  77  68  67  63  59  64  63  76  65  59  56  54  59  58  58  67  76  80  78  80  81  78  86  91  85  89  86  86  83  77  77  70  69  64  74  79  82  90  93 101 102 108 105 105 103  99  96  81  87  82  65  64  71  68  75  68  67  84 109  94  32  27  23  21  19  23  19  19  23  21  18  23  17   9   3   2   3   4   3   3   4   5   2   2
  28  25  23  41  71  79  78  71  64  63  73  75  67  60  62  78  67  64  68  57  51  52  53  66  75  67  76  73  84  85  88  89  85  90  88  87  91  85  85  83  83  78  86  90  96  96 100 104 105 105 109 105  97  97  90  83  84  73  73  63  62  69  57  64  70 111 121  66  13  17  20  20  16  19  18  19  21  25  21  24  16   6   3   2   2   1   2   4   5   6   4   3
  24  20  25  26  38  39  39  47  48  53  63  63  60  54  57  77  67  64  59  43  57  48  39  65  65  69  79  70  84  72  85  92  93  91  96  98  95  87  93  91  93  95  96 101 108 107 106 107 102  86 101 100  95 101  92  82  74  64  64  60  51  68  61  65  88 103 121  62  41  16  22  18  17  19  17  20  27  38  38  38  32  26  22  17   7   7   7   6   8   8   5  13
  19  12  14  18  22  26  29  23  29  41  46  33  35  42  46  69  67  53  59  55  51  42  49  52  55  69  72  64  75  81  85  89  95  90  91  89  89  92  86  91  94 101 108 110 115 115 113 110 105 100  88 101 101  89  80  76  61  47  52  58  60  60  68  75  85 109 123  13  35  51  28  37  34  30  27  29  34  43  46  47  44  46  45  39  28  19  20  21  20  18  24  29
  12  12  11  12  18  18  26  18  16  30  31  18  17  26  32  75  64  56  60  58  48  51  46  37  56  61  63  63  70  75  82  82  83  82  89  91  87  85  94  88  85  92  96  98 104 105 105  92  96  98 106  96  80  76  81  57  41  53  53  48  58  67  74  87  97 112 119   6  10  52  56  55  45  37  30  31  40  46  52  53  59  58  61  65  52  28  21  23  21  25  43  48
  17  12  13  12  14  23  27  13   9  23  25  13  13  26  33  67  68  61  61  50  51  50  44  43  46  63  59  60  65  62  69  73  70  84  81  82  76  73  77  77  79  79  83  85  97  86 100 103  95  96  99  79  69  67  58  54  41  58  43  52  64  73  76  87 104 108 127   7   8  32  53  62  51  44  43  45  48  49  51  56  56  56  56  63  50  28  11  13  12  19  47  59
  14  11   9  14  13  20  18   9   6  16  17  10  16  28  37  62  64  65  65  45  48  51  51  43  49  51  52  49  65  52  62  66  63  70  75  75  68  75  76  70  69  75  72  77  83  93  82  90  85  94  75  79  59  58  53  48  39  40  47  59  62  83  87  85 103 115 118   0   3  27  56  59  43  32  33  37  45  38  45  60  65  59  60  64  55  36  13   9   8  19  43  63
  18  18  13  10  11  11  12   5   3   7  12  10  19  29  33  63  66  66  55  50  52  53  48  48  43  35  33  53  51  56  63  57  59  66  66  69  58  62  62  60  63  58  64  69  78  82  72  75  72  66  73  55  44  34  47  46  45  52  58  60  68  76  93  99 112 117  87   0   0  25  52  57  39  37  34  38  36  36  39  54  66  66  62  60  55  44  30  12  14  16  32  57
  23  21  11   6   7   7   5   1   1   9  13  11  28  35  38  71  69  64  71  47  54  50  48  55  47  38  34  38  33  43  55  56  58  50  59  57  52  48  54  47  49  64  60  54  59  66  76  69  68  60  61  36  37  40  46  47  52  55  58  63  68  69  88 100 113 117  57   0   0  21  49  55  40  27  26  33  33  32  32  46  55  57  55  50  50  43  27  16  14  15  26  51
  19  16   7   3   3   6   3   0   1   6  12  16  36  43  36  66  64  69  69  55  48  58  50  50  53  42  38  39  32  41  49  43  54  51  47  47  45  44  52  48  50  54  60  56  58  51  53  66  65  48  46  31  33  44  53  50  51  56  63  69  82  79  90 104 105 116  43   1   1  25  48  48  48  19  27  27  34  24  27  28  30  38  29  26  27  22  14   8   6   8  16  38
  17   5   2   2   3   5   3   2   3   6  12  16  39  35  20  66  71  70  60  53  50  50  51  50  54  53  37  45  37  30  41  50  52  41  41  40  45  47  42  42  51  44  49  44  51  47  49  45  45  35  24  33  43  39  46  45  46  53  59  82  84  91  94  90 101 125  17   0   3  27  48  44  51  10  13  17  19  21  16  13  17  16  13   8   9   5   6   5   5   6  15  26
  24   7   4   2   4   5   5   3   4   9  17  19  35  17  24  64  68  68  65  55  60  54  58  54  60  48  51  38  48  51  39  27  38  40  41  32  38  45  37  36  33  45  50  28  38  34  29  29  30  39  41  40  36  46  50  53  57  68  69  79  93  91  92 106 114 114  12   1  10  37  48  37  50  11  10  13  16  17  15  13  14  11   6   3   3   1   2   2   4   5  12  24
  35  15   3   4   6   8   4   4   5  11  19  26  19  10  21  70  68  61  61  60  59  55  48  48  58  54  53  47  51  47  53  45  50  36  35  34  33  40  38  28  35  39  27  25  27  32  38  40  41  40  35  40  53  45  49  51  57  69  73  82  86  95  98 101 110 118  11   3  19  37  48  39  49  24   5   4   8  13  16  17  14   7   5   1   1   0   3   3   4   5   9  24
  40  22   4   2   7   6   5   5   7  16  21  24  11   8  15  68  65  72  64  63  61  60  50  58  54  52  53  51  48  53  51  51  46  44  48  53  45  45  45  47  46  45  51  42  41  42  40  39  38  37  35  45  42  54  58  64  53  70  78  91  83  90 109 111 113 129  23   5  25  49  47  35  41  55   5   4   7  10  11  11  12   6   3   0   0   0   1   2   4   4   9  23
