P2
# Generated by OpenCV 4.2.0
92 112
255
  80  85  87  90  91  92  91  92  90  90  85  82  82  79  76  72  68  62  57  54  46  36  33  33  38  37  34  52  89 102 132 137 124 125 133 121 119 114 103 109 119 103 118  99 120 119 115 136 113 121 119  98 102 110  91 107 110 117 112 120 109  93  93  93  94  95  99 101 111 138 155 157 158 158 158 160 160 161 161 161 161 160 160 160 160 160 160 160 160 162 162 162
  76  83  87  90  94  94  93  90  88  87  82  80  77  76  74  69  67  62  57  52  50  42  39  35  60  63  75 140 138 140 145 129 117 106 135 115 111 109 124 108 110 132 114 137 110 116 139 169 139 147 121 137 103  87  85 100  86  98  99 134 127 133 108  87  96  88  89  99 105 136 153 157 158 158 158 157 158 159 159 159 159 159 160 160 160 160 160 161 160 162 162 162
  85  83  85  88  89  92  89  89  88  82  78  78  73  72  68  71  60  62  58  58  63  57  52  41  47 111 146 136 118 120 106 102 109 100 126 110 112 112 109 131 134 142 134 124 149 151 135 133 166 158 136 113 106 111 117  97 128 114 130 109 119 135 160 128  93  92  85  92 102 135 154 154 156 156 156 157 158 159 159 159 157 160 160 160 160 160 159 158 160 161 162 162
  80  84  85  85  87  89  89  89  84  77  75  73  70  70  63  65  57  59  61  64  62  62  55  74 139 139 126 126 101 112 103  94 100 132 116 110 102 109 127 135 125 120 153 154 141 137 145 150 148 138 156 175 128 111 126 108 100 110 100 114 105 136 136 150 147 117 101  92 103 132 152 155 156 157 156 158 158 159 159 159 158 160 160 160 160 160 160 159 160 160 161 160
  77  81  84  84  85  89  89  86  79  75  71  70  70  70  66  62  58  55  58  68  68  82 141 167 137 107 116 104  96 102  90  96 101 111 102 105 118 105 111 120 116 151 135 125 140 138 149 139 139 151 141 148 159 147 138 119 102 118  89 107 107 113 118 121 162 149 111  96 103 136 158 154 157 157 156 158 157 159 159 160 160 161 160 160 160 160 160 159 160 161 161 161
  77  82  85  85  88  88  88  79  72  72  69  69  67  66  69  65  68  69  73  75 112 158 144 139 123 118 101 109 114 118 103 115 118 114 121 110 111 124 132 126 129 119 153 158 142 131 131 139 137 146 148 148 139 124 127 146 133 100 102  87  94  89  93  93 148 156 151 113 103 135 154 154 156 156 157 158 158 158 157 159 157 160 160 160 160 160 160 159 160 161 160 160
  71  77  83  85  88  87  80  71  69  66  67  65  67  66  66  66  75  58  90 114 157 148 147 117 101 100 104  99  88 125  92 121 117 117 125 129 117 115 118 125 133 146 133 147 153 156 148 157 122 158 137 150 163 147 133 128 135 132 108 103 102  83  80  90 114 138 146 153  99 129 156 159 156 156 156 157 156 158 158 157 158 157 159 159 160 160 160 159 159 161 159 161
  67  76  83  85  88  80  72  65  65  66  69  70  68  66  65  74  72 108 132 141 141 138 129 102 139 117 117 111 116 107 119 121 120  99 109 124 108 133 118 134 124 146 170 160 162 161 159 150 144 155 127 142 146 149 113 145 137 123 112  93  98  92  75  77  93 115 124 128 147 144 148 154 156 156 155 158 155 158 158 157 159 158 159 160 160 161 160 159 160 161 159 161
  63  68  75  79  74  72  65  62  67  66  68  73  69  63  63  70  88 137 125 116 139 113 123  96 123 122 131  85 108 113 137 119 118 126 122 129 118 135 117 147 154 148 149 143 159 174 146 167 144 149 146 136 147 154 140 148 128 137 130 120 122 118  97  86  94  74 116 104 127 129 160 152 156 156 156 157 157 158 158 157 159 158 158 160 160 160 160 159 160 161 159 161
  59  62  67  69  67  66  66  68  70  68  70  65  56  47  49  53 122 127 133 159  92 131  99 107 117 110 118 121  88 108  95 104 110 124 122 136 134 136 135 147 144 168 165 159 149 156 163 168 171 146 157 172 141 147 137 147 137 141 145 142 144 138 128 111 108 106  83 104 168 149 135 155 155 155 155 157 156 158 158 157 158 159 158 159 160 160 160 159 160 161 159 161
  54  54  55  60  57  61  62  69  70  67  61  54  49  44  41  58 146 126 171 139 120 102 109 123 111 109  89  98 122  86  87 118 117 124 114 134 130 148 148 159 159 158 156 156 155 146 160 166 160 145 148 160 170 151 146 143 161 162 158 151 167 152 139 132  97  78  99  79 115 156 132 152 155 155 156 156 156 158 157 156 158 157 158 159 160 161 160 159 159 161 159 161
  50  54  51  53  59  62  66  67  62  61  50  54  50  41  27 145 123 132 154 129 104  89 114 143 108  89 105 100  97  93  98 117 133 128 140 135 151 163 168 165 168 172 166 173 168 172 167 170 160 172 158 161 155 156 147 148 154 153 162 164 160 163 167 163 150 108 114 101  90 135 158 151 151 157 161 159 154 160 160 159 159 160 160 160 160 159 160 160 159 159 160 158
  52  49  48  51  56  62  61  62  62  58  53  49  41  31 105 170 139 140 136 101 128 124 119 120 113 101 114 109  94 111 115 125 138 140 148 155 162 171 171 173 176 181 177 176 174 180 173 174 163 163 174 170 168 168 157 146 158 175 182 162 173 178 172 170 160 117  85  78  80  88 153 153 167 157 157 156 160 159 160 158 160 161 160 160 160 160 160 160 159 160 160 160
  51  43  46  49  53  54  56  60  60  53  37  32  31  49 174 154 130 148 116 118 148 102 109  98 106 119 108 100 114 130 127 144 146 155 160 168 175 184 184 185 178 177 177 176 177 186 179 178 179 181 171 173 160 173 156 154 166 152 146 169 168 173 176 171 173 158 112  80  73  91 109 157 154 161 158 158 159 159 160 160 159 159 160 160 160 160 160 160 160 160 160 160
  45  42  45  47  49  46  53  49  32  22  18  13  10  49 175 144 168 107 115 125 139 114 118 119 108 121  95  96 111 123 139 153 161 169 178 180 188 189 189 193 184 189 187 190 186 189 183 179 178 166 167 179 169 163 166 168 176 156 163 157 184 192 177 185 168 164 151  97  62  79  80 136 154 178 153 159 160 159 160 160 159 160 159 160 160 160 160 160 159 160 159 161
  40  41  42  40  43  50  35  15   8   8   6  11  27 120 164 131 158 131 119 123 126 119 121 103  80 118  96 112 113 146 147 169 182 188 192 194 194 195 194 193 194 193 191 195 192 188 191 188 181 181 176 170 167 174 183 166 165 151 173 175 178 180 182 181 173 166 161 132  89  75  88 109 132 169 171 161 152 158 159 159 157 159 160 160 160 160 160 160 160 160 160 160
  34  37  34  33  36  29  20  10   9   9   1  31  83 168 156 118 157 136 123 147 147 120 124 110 112 101 116 114 118 140 152 158 183 190 197 201 201 201 200 193 192 195 195 196 194 192 196 188 180 187 182 177 171 165 163 164 166 160 174 173 175 178 186 188 180 172 170 154 119  91  81  93 137 150 182 162 161 161 160 159 158 161 160 160 160 160 161 160 160 160 160 160
  37  32  24  27  25  21  17  13  10  13  36  67 164 157 152 167 140 164 132 113 166 116  98 123 111 107 110 134 141 143 161 163 170 182 193 199 202 203 202 200 197 196 198 194 192 195 194 192 188 182 191 184 179 176 176 176 168 172 183 175 173 175 183 185 184 180 175 170 150 126  93  89 112 144 164 165 154 159 160 161 159 160 160 161 160 160 159 160 160 160 160 160
  31  27  20  22  22  13  14  15  19  21  34  41 161 144 154 146 147 152 164 135 121 120 106 116 125  98 115 127 146 159 170 182 189 194 198 200 202 201 202 205 203 197 200 197 195 196 193 196 192 178 173 183 183 171 168 171 176 175 178 176 176 178 188 186 186 189 179 174 165 154 119  85  94 144 155 175 160 157 157 159 158 160 160 160 160 160 160 160 160 160 160 160
  35  18  20  18  16  18  17  14  14  14  16 130 151 153 146 167 159 168 146 141 141 104 115 113 146 108 121 139 147 170 175 182 192 193 195 198 203 201 203 207 202 199 205 200 200 198 201 194 187 191 192 186 181 181 181 169 181 173 189 180 178 178 183 197 186 189 182 179 169 166 146 102 106 116 168 158 174 155 157 157 156 160 159 159 160 160 160 160 160 160 160 160
  67  36  18  20  17  17  12  16  19  31  64 127 165 159 155 161 160 183 135 121 134 135 138 131 143 117 130 139 160 180 185 192 199 198 199 199 201 202 203 204 204 202 203 203 201 201 202 198 197 191 188 187 185 182 186 180 185 190 185 179 182 186 185 183 187 182 185 182 173 172 161 140 113 127 134 147 172 173 163 161 161 159 160 160 160 159 158 158 160 160 160 160
 117  87  46  23  17  17  17  13  12  34  52 177 166 185 158 155 195 154 149 163 157 136 142 135 140 123 140 152 166 186 193 193 192 197 198 198 199 201 202 203 202 205 205 205 203 200 205 200 197 198 193 189 187 187 191 190 188 191 195 183 185 188 187 187 188 184 184 180 175 175 170 158 132 118 141 140 152 169 158 155 157 160 160 159 160 160 159 159 160 160 160 160
 134 125  93  55  26  17  14  18  16  22 123 167 174 158 143 173 163 140 147 174 138 168 150 131 152 147 147 157 167 181 190 194 188 193 196 198 197 199 200 200 201 201 202 202 203 203 201 197 201 196 195 191 188 190 191 193 189 189 198 197 188 187 191 189 186 183 180 180 176 177 173 167 141 139 139 142 131 157 166 157 160 157 158 158 158 158 159 159 160 159 158 157
 127 135 123  92  61  45  30  15  15  39 160 158 136 149 163 149 154 138 174 142 154 162 136 149 140 139 146 159 170 176 178 187 187 190 191 194 194 197 199 199 199 198 200 201 201 199 203 198 202 201 199 194 192 193 194 195 193 192 193 190 190 190 187 185 181 183 177 180 177 179 175 176 161 121 125 139 132 135 159 164 159 158 159 158 158 158 159 159 160 159 158 158
 123 135 124 107  99  81  66  47  45  60 146 146 149 129 156 146 148 152 152 128 160 172 146 156 148 154 156 162 170 178 177 182 178 183 189 195 196 195 197 200 203 197 199 202 202 203 202 199 200 201 199 194 196 194 197 194 193 194 192 192 189 187 185 185 184 181 178 181 178 177 175 173 166 152 133 135 138 126 130 169 156 157 157 158 159 158 155 159 162 160 160 159
 114 127 117 113 119 120  96  75  53  75 132 131 139 137 142 132 150 132 130 145 141 132 157 154 151 155 156 165 175 182 182 180 183 185 188 194 195 195 195 197 200 203 203 203 204 199 200 201 201 201 197 196 197 194 192 190 191 192 189 188 186 183 182 182 185 182 181 182 177 176 171 169 169 163 142 131 120 114 118 161 158 158 158 158 158 157 159 157 156 158 157 159
 103 111 109 115 121 115 103  84  57 101 123 129 138 136 141 122 120 114 120 123 139 157 146 132 139 152 163 173 175 179 181 176 179 179 184 195 200 200 201 202 203 201 203 203 202 200 201 203 200 198 199 199 197 195 194 192 191 187 181 182 180 181 180 184 183 184 182 181 179 175 171 170 170 171 160 140 116 105 107 149 158 159 160 159 157 155 158 159 156 157 158 157
  96  91 101 124 127 124 105  76  70 130 118 121 132 144 135  96 124 103 131 130 130 122 126 130 134 142 152 167 174 177 181 183 189 184 183 189 194 196 198 199 200 199 199 200 201 203 202 200 197 194 198 195 189 190 192 188 186 183 178 181 179 181 183 184 182 183 181 176 178 176 172 170 171 170 165 146 115  93  97 133 159 158 158 157 158 158 153 148 154 158 153 158
  78  85  96 123 128 112 103  85  91 117 105 131 126 125 124 114  96 121 116 130 121 127 147 154 149 145 148 163 169 174 176 190 182 181 179 182 187 191 196 198 196 202 201 200 199 201 199 198 198 199 194 188 180 181 183 179 179 181 181 180 182 183 185 185 180 184 179 171 176 175 172 169 168 162 168 165 138 112 107 134 160 157 158 159 159 156 132 103 107 109 132 150
  57  71  85 114 125 113  99  95 107 119 128  97 126  94 107 110 112 101 101 108 110 116 128 139 146 151 159 168 171 171 175 178 178 178 179 179 181 184 191 184 193 195 196 198 196 196 201 193 194 193 189 186 177 178 180 175 175 175 172 170 175 180 185 180 181 177 176 176 172 171 171 166 164 166 159 168 149 103 103 130 151 157 159 158 159 155 123  57  60  56  91 142
  27  47  60  92 115 110 114 116 115 112  99 105 120 131 125  98 117 123 119 119 131 131 137 145 150 154 155 159 170 172 173 173 177 176 175 173 175 180 180 173 176 185 189 193 194 191 191 190 191 184 183 179 178 178 172 170 169 170 169 167 172 175 177 174 175 176 175 173 170 170 166 161 167 166 158 169 160 130 112 132 150 157 157 157 158 156 123  59  61  56  87 147
  18  28  37  64  90 106 127 131 129 117 101 105 126 133 126 116 132 114 124 142 135 129 140 133 147 163 168 164 163 167 171 175 176 173 171 169 168 172 169 169 170 173 178 184 186 188 184 185 180 173 177 172 175 176 175 168 161 161 167 167 170 170 167 170 172 175 173 171 170 169 163 161 168 167 154 155 157 144 106 120 153 157 156 158 157 156 124  59  60  56  88 146
  33  37  35  43  58  87 122 133 127 106  98 113 130 103  74 119 147 115 124 120 130 142 147 156 166 167 159 158 157 160 166 173 173 172 173 173 166 165 162 164 165 160 163 169 173 180 179 181 171 173 176 168 161 165 166 167 162 159 160 159 165 167 165 166 167 168 166 166 167 162 158 161 166 174 166 165 165 165 113 115 159 155 157 155 158 155 125  58  59  55  85 148
  41  49  49  39  37  52  94 117 129 116  91  92 111  94 118 118 121 116 124 105 126 134 145 153 158 158 155 157 155 159 160 170 168 174 165 153 165 166 160 159 162 157 152 153 163 160 171 172 167 182 179 173 163 158 161 156 160 162 153 158 162 160 159 164 169 161 160 158 159 151 147 151 154 151 141 149 168 161 122 120 150 155 157 156 157 155 127  60  60  56  88 146
  50  57  58  48  35  28  54  96 122 103 102 103  97  97 100 102 105 101 106 108 115 136 127 144 153 162 166 169 157 153 151 161 169 164 162 156 158 158 157 158 158 163 159 156 163 160 161 168 174 172 171 171 167 160 158 159 157 155 158 152 151 155 153 153 157 152 153 148 156 155 154 156 162 172 171 150 136 155 122 109 148 156 157 156 158 155 127  58  58  55  86 144
  59  64  67  58  44  34  30  62 104  95  91 108 100  95 103 116 108  96  97 115 115 115 132 132 145 153 152 152 154 154 149 157 162 160 156 156 155 158 159 161 162 159 164 159 157 158 154 155 159 158 163 158 162 160 160 157 153 157 157 150 154 150 144 156 158 159 160 148 152 152 156 162 170 163 154 149 150 143 138 101 142 156 155 156 157 154 126  58  58  53  86 143
  64  71  71  69  59  50  29  30  71 101  93 105  99  84  98 109  92  87  96 106 103 129 126 144 139 145 155 160 157 156 149 149 156 161 156 156 156 155 154 154 157 151 155 154 149 147 151 150 153 163 164 157 154 152 148 140 146 156 156 156 162 164 163 159 159 152 149 141 150 159 162 158 149 142 135 144 157 135 135 110 125 159 156 156 156 155 128  60  57  54  84 142
  67  74  77  77  63  52  42  20  54 112  99  86  83  80 107  90  77  94 101 116 135 114 133 139 144 155 158 154 145 143 139 145 164 167 169 166 159 158 152 151 153 142 133 137 139 150 156 162 161 160 145 154 152 148 157 160 157 156 160 159 147 159 158 144 153 148 150 153 156 139 129 128 134 155 172 151 128 139 124 128 119 159 156 156 157 154 129  61  58  53  83 142
  67  77  84  81  76  69  53  30  35  87  78  80  80  85  85  85  81  83 110 108 107 121 120 129 141 143 144 140 142 137 142 143 150 149 157 164 159 153 148 147 145 149 151 145 145 138 138 148 161 139 139 150 162 160 156 158 153 157 154 144 148 152 150 148 148 151 147 138 148 162 172 186 170 175 154 131 137 137 126 105 120 158 158 156 158 152 129  60  56  55  82 143
  65  81  89  88  83  77  59  48  35  87  79  83  86  71  75  91  77 103  94 112 120 124 121 124 126 134 149 149 143 144 133 133 136 146 163 172 171 165 158 156 153 152 150 145 141 131 129 125 137 152 150 158 153 147 152 156 155 147 138 144 153 156 155 158 150 150 160 169 166 149 158 154 156 130 142 157 148 135 132  93 107 154 158 155 157 154 130  61  58  56  80 143
  64  80  90  93  90  92  72  60  35  79  71  63  78  76  83  81  86  96  94 115 107 102 109 132 126 127 140 143 150 148 129 136 142 148 152 151 155 158 158 160 164 153 143 136 142 146 139 151 160 149 152 146 138 140 139 140 144 141 136 145 151 149 145 156 159 156 146 140 146 165 170 160 152 178 179 161 148 134 140 101 113 152 159 154 157 154 128  59  56  53  81 141
  65  79  91  98  97  90  82  67  52  83  53  71  80  62  88  92  89  84 103 100  96  99 109 110 120 122 133 139 150 154 155 152 141 137 135 142 151 156 155 154 161 164 165 158 155 148 150 144 139 163 160 155 160 168 170 173 180 167 163 165 171 167 168 173 167 159 165 176 182 168 145 165 182 158 147 152 136 137 138  98 131 148 160 153 155 156 130  63  55  54  80 142
  63  78  93  99 103  97  92  68  56  48  62  52  85  69 103  58  78  81 102  92 101 102 102 112 131 133 126 133 125 127 136 136 148 133 134 139 141 144 129 123 114 119 130 144 161 171 169 159 159 140 154 154 159 162 155 160 161 164 157 155 160 155 155 181 174 176 171 173 150 136 174 162 150 145 150 151 148 132 138  86 128 153 155 155 158 156 129  64  55  53  79 141
  62  76  93 101 106 104 103 172 192 176  84  77  82  87  88  88  76  92  99  87  97  96 113 109 118 118 122 116 127 144 134 125 115 142 150 155 162 170 176 182 178 184 172 159 134 123 127 133 132 136 154 154 150 155 154 149 144 157 165 152 148 145 153 168 176 179 161 150 163 163 149 125 124 119 123 128 140 134 141  84 140 155 156 155 156 156 129  62  53  52  79 141
  60  76  91 101 110 100 140 151 151 165 195  98  86  79  71  83  74  82  86  86  93  83  98 109 112 100 116 120 113 114 135 133 124 112 119 125 134 142 139 143 151 154 166 182 188 187 179 191 186 189 174 178 170 175 175 168 157 155 160 161 158 154 163 165 155 141 150 170 149 143 113 116 128 117 122 121 125 135 143  85 145 152 155 155 156 156 127  62  54  51  76 140
  64  73  89  99 108 112 126  93 111 148 138 170 125  87  63  62  78  84  83  74  87  89  95 105 107 100 110 119 127 122 112 119 129 129 114 110 110 110 127 134 139 124 129 134 140 160 155 154 162 161 161 164 159 161 167 164 155 137 137 146 147 141 147 136 142 166 168 134 131 111 139 150 117 119 129 114 106 137 137  89 134 151 153 154 156 156 128  64  52  49  75 138
  65  73  87  97 106 122  85  37  31  73 114 124 160  98  66  67  67  78  72  72  74  78  80  83  90 111 116 118 121 129 136 129 116 119 137 149 149 147 152 150 157 155 150 155 157 157 153 131 137 149 162 166 161 157 157 152 147 138 144 167 162 153 161 181 171 159 145 117 118 136 147 126 105  99  88  81  95 139 134  97 123 155 154 154 154 155 129  62  53  50  75 139
  63  74  86  97 105 119  78  44  41  39  54  79  99  89  95  64  73  75  80  68  83  71  85  91  99 111 115 116 122 124 128 123 132 128 125 135 145 167 171 148 146 147 152 144 117 116 134 149 137 130 120 131 146 154 148 149 150 164 149 155 152 137 160 157 138 137 116 112 123 146 112  99  96  78  88  87  99 122 129 120 126 154 155 153 154 156 128  64  54  51  74 139
  68  76  90  93 101 108  67  42  43  50  60  50  68  88  86  64  82  61  77  78  85  77  91  98 117 112 120 121 118 121 121 122 129 123 128 145 142 128 126 144 149 146 126 126 130 122 105 107 113 110 117 135 157 160 144 149 152 152 139 138 147 171 159 151 128 116 106 137 124  99  90  99  82  93  99 100 108 119 115 119 113 154 154 153 153 154 126  61  51  49  73 136
  74  77  92  93 100 108  74  50  47  68  76  59  52  91  71  64  60  72  78 101  75  74  94 107 116 130 120 123 118 124 123 129 121 119 135 123 111 146 167 145 137 120 126 132 140 144 141 121 104 101  96  97 111 138 147 139 159 144 155 132 161 170 150 137 113 108 133 119  96  73  74  68  89  95  90 103 105 113 113 122 126 145 152 154 154 157 128  62  50  47  70 135
  81  76  89  97  98 108  89  65  56  90  94  90  68  89  85  85  71  95  84  85  61  79  98 108 121 126 125 121 115 124 117 121 118 132 132 111 139 126 105  99  94 115 115 110 109 109 117 120 127 120  99  90  96 112 126 134 135 139 144 106 113 124 126 115 102 105 102  78  78  53  69  84  84 112  81  91 105 108 114 126 115 146 151 152 154 156 130  64  51  50  68 134
  87  80  86  95  97 104  87  84  67  99 118 131 117  81  82  89  85  99  71  61  69  93 104 117 118 122 125 129 122 118 114 111 133 142  94 146 111 116  86  77  76  68  68  69  69  76  85 103 113 130 127 110  96  90 101 122 119 108 107 141  68  94 107  90  92  78  58  57  53  67  78  98 104 101  45  87  97 109 120 113 105 141 143 158 152 156 128  64  51  47  67 134
  87  82  91  98  95  97 100  79  78 127  98 112  79  44  70  69  98  78  64  89  87  82 119 120 125 119 122 120 127 118 118 118 117 102 115 100 123  90  64  71  69  84  90  92  82  74  63  69  81  91 105 109 101  88  83  85  88  85 107 111  93  73  68  64  60  49  41  57  71  73  87  97  76  80  61  79 103 114 119 111 110 114 142 156 155 154 128  64  50  49  67 139
  88  82  93 100  96  96  96  88  89 109  68  50  52  27  55  68  88 100  79  84  86  99 114 130 135 122 121 112 114 112 126 116 106  79 120 105  99  63  77  93 100 105 103  95  77  62  50  37  39  47  63  75  77  76  73  68  70  57  74  89  99  73  65  56  45  48  55  63  62  50  39  22  51  68  86  81 114 118 116 110 129 115 152 151 157 154 129  64  51  48  59 123
  93  83  88  92  91  93 106 106  96 122  80  59  44  33  27  77 100  93  77  80  97  94 109 127 131 132 122 121 109 106 108  93  94 105  78 110  64  68  96  99  99  87  98 106 102  82  71  50  43  38  36  36  42  48  48  45  52  69  99 114 103  94  63  45  44  51  38  30  17  26  25  49  88  82  95  96 113 116 115 101 120 132 156 153 156 156 131  62  49  50  47  59
  99  87  84  86  87  91  93 126 106 102  68  57  55  45  62 156 114  93  75 108  86  88 121 121 120 127 108 113 103  99  85  92  88  87  73  64  60  71  88  82  74  67  58  65  83  85  77  69  70  55  45  31  33  32  41  58  70  96 114 113 101  82  26  39  36  29  39  60  37  48  32  58  74 125 124 106 110 120 118  92  98 137 152 156 151 155 131  62  48  48  47  52
 102  91  88  92  89  85  90 126 125 118  73  60  56  56 144 145 140  95  97 107  73  97 120 120 119 122 121 114 107 104  95  86  77  77  77  65  71  74  86  94 102  94  60  52  41  25  27  25  34  41  39  33  28  28  31  47  80 102 122 118 119  94  18  40  40  39  61  74  48  45  46  73 131 132 112 109 113 123 106  93 107 125 152 156 154 156 130  65  49  47  47  48
 103  94  91  94  89  85  79 117 127 104  84  72  71  59 145 136 134  94 103  89  93 105 102 120 113 119 121 116 106  99  95  87  80  76  74  66  71  91  65  23  33  38  43  15  18  19  22  29  28  23  28  32  24  25  37  48  79 108 117 134 126  75  57  48  59  70  84  90 100 105 114 124 122 106 120 120 125 123  95  73 117 112 156 153 157 153 131  64  46  46  45  47
 106  96  91  92  87  80  70 105 123 100 116  88  65  72 145 129 129  94  98  82  81  90  91 112 117 112 114 117 112 112 108  94 100  83  75  68  66  47  33  57  49  69  67  42  42  38  33  59  32  31  39  47  38  38  53  59  85 123 136 142 142 103  57  51  49  56  74  94  93 102 105  99  96  92 114 114 122 124  95  66 113 115 157 154 155 153 131  64  47  46  45  46
 107 100  91  89  81  78  63  80 123 123 111 119 126 103 126  98 117  85  86  69  77  91  90 101 106 107 106 108 111 107 106 109 100 104  85  77  61  54  78 102 117  97  87  54  40  35  58  71  64  56  46  46  43  51  66  74  91 134 155 162 150 129  56  63  57  58  62  76  95  89  83  83  74  99 112 112 126 125  96  80  91 128 153 155 151 156 131  64  46  45  45  46
 113  99  94  85  73  84  62  44 125 128 103 134 173 148 101  93 116  93  81  81  73  85  81  97  97  97  97 108 114 120 118 112 110 102  98  92 100  98  96  74  83 109 128 126 128 118 100  90  75  57  50  51  51  69  83  89  99 136 160 169 162 146  82  67  65  70  61  58  56  57  56  65  83 116 115 116 123 123  90  86  86 141 156 155 152 155 134  64  46  45  43  44
 111 104 100  86  68  64  54  25 101 118 125 133 165 147  96  98 100  75  90  71 102  80  89  88  87  95  97 101 104 118 125 122 124 116 113 112 117 105  83  86  62  64  80  90  92  82  78  67  55  56  59  59  75  95 107 104 103 131 155 171 170 159 116 107  70  61  59  49  52  58  66  84  99 100 106 118 112 119  93  86  96 154 156 155 153 154 134  64  47  45  45  45
 112 105 102  91  68  61  45  22  59 132 139 145 125 144 155 134  84  89  89  55 105  84  85  88  83  94  98 103 112 123 126 121 118 120 117 109 103 104  96  70  66  63  53  53  54  57  55  54  57  60  62  82  90 100 118 110 104 123 148 167 171 154 134 117 112  84  65  68  74  80  87  93  95  95 100 110 106 115  82  84 102 153 151 153 153 154 134  64  45  43  44  43
 112 103 101  94  71  53  38  25  26 104 142 148 133 111 137 124  72  87  88  90 121  80  90 100  97  99  99 102 105 115 119 117 121 129 130 118 100  80  82  76  63  56  54  56  52  51  52  57  60  58  72  96  98 103 122 115 106 109 132 160 172 158 155 118 116 105  88  62  69  76  80  81  81  96 101 102 101 109  86  91 105 146 153 152 150 153 135  61  43  42  43  43
 111 106 100  94  72  46  36  24  24  51 135 142 138 124 104  79  59  88 107  97  81  65  89  98 102  95  92  96 100 107 111 113 127 130 127 116 106 104  84  84  74  63  53  48  50  54  62  63  56  62  92  92  94 100 114 112 109 112 130 160 174 159 159 114 119 114 107  90  73  71  75  76  99 105 105  98  97 106  80  81 125 134 153 153 151 155 134  62  43  42  43  42
 110 103  96  92  74  48  30  23  27  21  79 128 130 121 116 116 105 103  88  95  82  73  92  99 111  99 100  93  94 100 100 108 118 120 121 119 117 104  93  85  72  77  72  69  65  61  58  53  64  83  92  97 100  98  96 102 106 114 125 140 153 155 149 133 111 115 117 113 103  96  99 100  99  97 101  93 103  87  89  76 116 143 155 151 153 154 135  64  41  42  41  42
 108 110 103 100  84  56  30  24  27  26  40  70 121 117 122 121 122 108  84  82  66  93  92  95 103 100 102  97  90  90  88  98 107 114 117 116 113 104  92  84  86  78  75  70  62  53  57  69  86  97  94  98  95  99 100 104 108 112 116 129 144 150 146 131 110 115 105 115 115 114 117 114  97  93  97  95 102  98  81  80 109 148 155 151 153 155 135  64  41  42  42  42
 111 110 104 102  89  63  31  25  27  27  27  23  53  78  96 107  91  82  59  83  71 100  68  90  93 101  99  92  89  90  87  85  93  99 102 102  98 100 102  89  76  67  58  57  57  65  82  96  99 103 103 105  96  91 104 111 112 115 118 131 139 157 159 144  99  72  99 107 111 119 125 127 114 107 103 102 102  73  80  76 121 150 156 151 153 154 135  64  41  43  40  41
 113 113 105 106  95  65  27  24  26  25  23  24  30  29  46  50  49  51  59  68  93 104  87  85  83  96  95  94  88  86  81  80  75  81  84  92  95  90  88  89  89  83  80  87  89 104 105 109 111 109 102  83  72  80  88 105 121 130 131 127 154 161 157 146 153  51  74  94 102 112 118 128 127 114 106 105 103  87  83  83  99 157 155 151 155 153 134  63  41  42  41  39
 113 108 107 100  97  64  24  29  25  25  28  28  28  29  24  24  37  44  76  95 113 117  67  67  78  86  95  97  94  91  82  75  76  71  73  81  83  81  81  90  90  90  94 103 107 112 114 110 112 103  79  52  67  68  99  90 120 145 161 161 156 162 152 146 157 134  48  92 107 114 120 123 126 120 108 102  88  92  98  78 111 152 152 154 155 155 133  69  37  39  41  47
 114 110 111 103  87  54  22  27  25  26  26  27  28  28  27  31  33  28  75  96 136 102  79  71  67  78  92  95  95  92  86  81  72  75  76  77  76  78  80  85  94 101 105 112 113 117 112 107 104  86  53  51  94  97  97  92 122 151 170 180 169 154 143 146 165 177  73 100 102 105 110 115 119 117 109 110  79  70 101 113 131 148 157 151 150 155 135  70  37  40  51 103
 109 111 109 101  83  40  20  25  25  25  27  26  27  28  27  28  37  34  66 117 108  97  80  55  70  82  75  83  92  90  89  88  77  74  74  75  76  79  79  83  93 105 113 112 114 112 110 106  94  64  47  60 101 124 138 120 122 147 165 165 161 143 134 147 139 145 102  75  95 107 108 110 109 114 109 111  68  64  75 119 122 154 154 153 153 153 134  71  34  40  48 124
 112 111 109 100  78  30  22  25  26  25  28  26  28  27  35  27  25  45  53 113 110  92  59  80  69  63  69  91  89  89  90  92  92  80  73  72  74  75  82  94 104 109 116 109 111 109 110  99  77  51  49  56 114 138 134 122 125 142 145 155 157 147 145 149 137 127 118  52  86 104 107 108 105 117 113  97  61  72  73 103 131 154 152 154 155 154 137  70  33  40  52 123
 116 113 113 101  70  26  24  25  26  25  27  27  28  29  25  32  29  39  37 109 106  88  74  76  71  69  65  77  80  86  89  88  87  83  81  82  82  84  92 105 108 111 115 109 111 110 107  88  56  51  67  56 121 120 133 115 108 121 124 132 139 144 148 142 134 117  96  48  77  95 101 106 104 117 111  85  65  81  77  79 148 143 154 151 151 155 137  72  34  40  45 120
 115 111 111 101  64  23  25  26  26  27  29  29  28  28  25  25  30  35  52  54  97  74  92  88  90  77  78  85  80  78  87  87 102  97  93  87  89  90  96 102 103 109 108 114 112 103  96  65  54  75  85  81  71 106 113  97  79  91 103 115 127 134 132 133 110  92  92  76  66  84 101 109 111 112 105  75  51  52  63  82 118 143 155 151 152 154 137  70  34  38  46 121
 113 112 113 100  60  23  25  26  26  25  27  27  28  26  29  31  28  32  43  77  93  56  84  72  92  93  75  74  70  66  75  93  98  95  93  92  95  98 104 107 107 109 116 113 104  96  73  56  81 103  98  79  53  39  70  81  65  51  53  74  94 104 102  99  91  87 115 107  70  67  90 100 101 103  90  63  55  54  61  99 134 148 154 149 152 152 136  71  33  39  46 119
 114 113 115  93  49  22  24  26  25  26  28  28  28  27  29  29  30  35  33  93  70  64  79  84 106  96  59  84  59  65  69  84  96  95  95  97 101 109 118 115 108 114 121 108  95  88  60  81 102 107 112  95  72  45  20  20  27  30  40  46  53  63  62  57  64  90 110 102  91  67  79  95 100 103  75  50  49  43  66 109 136 151 153 149 153 151 137  73  31  38  43 119
 113 116 119  90  41  21  22  26  26  26  26  27  27  27  24  30  27  43  54  77 104 102 114  82 109  73  67  73  48  61  57  68  85  92  97 103 109 114 114 112 113 116 107 101  86  63  80 111 115 109 111  97  93  60  37  21  19  19  25  42  48  44  47  50  77  89 117 118 100  86  68  86  95  84  68  49  47  48  73 128 150 149 152 152 155 149 135  74  29  37  43 118
 123 113 109  83  34  22  23  26  25  25  24  24  26  26  27  26  28  28  34  98  90  81  85  81  79 100  70  61  51  48  57  75  80  76  98 104 110 114 108 114 108 107 102  91  69  72 106 103 112 108  97 123 102 101  56  42  25  21  24  16  24  33  34  51  99 112  86  93 115  79  82  75  87  72  68  60  40  42  93 110 143 147 150 150 151 154 138  73  31  39  43 119
 118 118 111  79  30  25  25  24  25  25  26  25  27  27  27  27  27  29  31  74  67  76  65  97 102  58  56  59  42  53  60  53  74  78  79  97 100 105 108 112 107  94  91  74  65  85  98 111 105 141  55 125 112  93 117  61  46  24  32  16  21  39  36  51  69 114 106  99  99  74  81  86  87  59  53  30  35  43  66 134 147 148 150 151 151 152 139  75  31  38  42 117
 115 114 110  74  27  23  25  26  25  25  26  25  27  27  27  26  27  28  27  52  64  86  86  82  65  61  52  47  47  59  47  49  72  52  67  94  80  89  94 100  98  91  78  61  84  94  95 115 116  82  78 137  93 122  96  62  44  35  32  31  30  38  38  62  67  86 105 100  82  63  56  70  72  56  66  62  37  65  68 130 148 150 150 149 151 153 138  75  32  37  41 117
 114 113 108  65  23  26  25  26  27  26  26  25  27  26  26  24  27  28  28  48  84  53  67  98  64  59  45  53  53  46  49  65  75  73  72  73  73  90  99  95  84  82  71  68  83  83 120  79  87  58 114  74  78 102  55  35  45  48  27  32  31  38  26  49  59  95 102  77  65  76  53  64  54  52  43  52  59  57  85 159 148 152 149 150 148 150 138  76  32  37  41 116
 113 109 105  65  22  23  25  25  26  26  25  26  27  28  25  26  26  30  29  23  93  68  65  80  50  63  58  55  42  32  52  55  59  57  54  71  81  86  81  84  81  74  77  83  72  94  82  69  60  75  80  68  82  81  38  53  51  24  34  26  30  44  23  49  54  95  70  62  49  63  61  43  74  42  43  52  57  58  76  81 158 151 145 152 150 152 140  77  30  40  38 114
 114 115 104  62  19  25  25  25  25  26  27  30  27  27  26  32  27  27  22   3 100  89  76  75  55  66  61  48  48  60  45  49  43  64  58  72  71  81  82  82  79  81  71  71  69  82  52  61  81  76  57  54  43  53  53  53  28  21  35  30  24  35  36  31  58  68  51  32  61  45  54  54  65  76  34  43  59  68  58  33  51 161 165 147 151 149 137  75  29  30  42 115
 116 120 101  55  19  26  25  26  26  26  27  29  27  27  20  27  25  19  18  15  94  87  83  73  75  65  54  33  58  35  43  40  51  37  35  60  61  61  94  75  81  86  80  66  49  52  46  54  79  31  61  34  61  27  40  24  23  27  41  12  19  20  19  18  21  26  28  13  28  35  47  47  57  40  30  52  35  52  76  41  31   6 138 162 142 151 140  70  25  28  43 112
 120 119 102  54  17  26  25  25  25  26  26  26  27  31  36  26  20  15  14  13  84  99  67  89  92  86  63  37  57  21  41  58  48  47  49  37  37  73  55  93 119  83  68  55  51  43  31  10  28   6  69  12  38  17  11   6   4   2   7  15  14   7   5  10  19  31  27  26  33  36  48  49  62  53  25  34  34  75  37  21  23  23  21  51 145 168 156  87  29  26  39 110
 120 122  99  49  20  25  25  25  26  26  26  31  33  42  29  13  18  17  14  15  78 103  86  93  96  86  57  46  44  46  59  39  36  34  33  38  53  66  84  73  89  82  74  52  49  23  27  18  15  14  11  14  13  18  20  20  16  27  18  17   9   9  17  31  37  52  38  26  35  27  40  38  26  33  33  41  46  58  37  25  24  24  27  22  19  41  32  44  42  46  45 119
 115 114  95  41  23  25  21  23  29  36  43  42  49  27   9  16  13  14   9  38  73  94  99  86  89  79  74  46  41  43  43  27  35  28  38  32  47  34  63  87  90  57  40  34  32  34  40  46  52  52  44  33  26  17  19  19  15  19  11  18  22  32  48  58  62  53  53  44  35  48  40  46  33  28  29  41  49  50  35  21  27  23  26  27  31  36  37  33  31  37  39  52
 118 119  98  42  17  30  36  42  45  44  43  47  32  12  11  15  16  15   7  45  26  91  88  92  70  86  64  54  49  35  36  32  31  34  27  38  37  52  56  79  81  70  51  27  33  53  61  63  64  76  78  74  70  57  49  49  37  50  42  47  54  59  64  65  66  66  62  50  44  30  44  29  40  31  27  46  50  54  52  36  25  21  22  26  24  30  34  35  39  35  40  41
 113 121  95  49  41  45  45  45  43  40  42  33  17  16  13  15  17  12  10  52  35  95  71  88  89  97  63  68  58  53  40  43  34  28  20  51  36  51  63  83  52  46  33  52  58  69  74  76  75  74  77  85  83  84  87  73  84  73  82  78  74  68  67  64  64  69  63  53  62  44  39  28  27  32  41  57  54  35   9  15  17  19  24  31  31  28  33  34  32  33  36  30
 106  63  36  43  45  42  43  42  42  40  41  27  20  18  17  13  16  10  14  42  39  99  83  79  80 102  93  70  60  69  47  51  31  31  35  44  39  41  53  37  40  51  57  62  72  77  81  85  83  77  81  76  71  65  70  64  70  61  68  58  57  55  59  69  74  77  66  69  63  57  31  19  20  24  35  56  35  33  24  25  21  21  23  30  30  27  30  32  33  39  28  31
  29  38  44  44  40  39  43  43  43  38  27  23  20  16  18  11  19   9  22  38  22  99  84  83  83  90  90  80  69  77  49  53  34  43  29  43  42  35  67  40  61  61  44  80  82  85  87  86  75  77  74  69  70  66  56  57  39  43  40  42  51  61  59  69  76  76  71  72  71  81  80  48  27  37  41  67  46  30  26  26  22  22  24  33  39  36  33  28  31  29  34  37
  46  42  42  43  43  42  41  37  42  38  29  23  16  14  16  13  18   8  26  31  16 108  93  85  93  78  92  83  96  62  61  42  44  26  39  34  48  27  40  52 101  37  76  65  75  89  95  87  74  79  73  85  83  68  60  66  63  52  47  58  54  61  62  58  78  72  87  78  80  89  82 112  62  39  53  52  26  14  25  26  13  23  28  34  42  35  29  30  32  31  35  34
  47  45  41  40  45  40  41  38  38  30  27  22  19  20  14  13  15   9  33  26  13 104  88  90  87  86  81  83 100  75  56  46  37  39  27  30  66  39  62  44  85  53 107 112 116  93  85  69  74  81  73  76  93  54  53  59  49  55  56  72  62  64  56  61  68  90 101  74  85  98  83 107  50  26  67  20  45  36  21  17  24  28  34  38  47  47  39  25  31  36  34  37
  30  42  39  40  42  37  41  41  36  25  28  22  16  16  16  12  13  12  37  20  15 111  89  79  88  90 107  89  74  68  67  56  30  31  28  48  62  70  72  95  65 120  88 127  85  99  89  74  86  82  73  78  54  80  86  63  44  59  78  64  47  60  64  68  79  93 103 132 120  90 132 112 105  40  59  24  29  21  26  23  19  29  37  37  45  39  31  30  33  32  38  37
  43  40  41  41  39  41  41  38  37  31  26  20  15  15  16  13  13  12  41  18  23 117  87  86  80  69  70  76  82  55  82  66  52  38  71  64  40  74  85  67 121 116 104 159 103  91 107  99  94  75  85  84  77  68  87  40  82  50  78  77  62  60  74  96  91  84 124 100 117 141 107 125  87  58  30  20  25  25  25  25  27  34  41  38  44  48  39  27  32  35  38  35
  40  39  39  39  41  35  41  32  35  33  23  17  19  16  11  15  12  17  36  33  50 112  91  87  75  72  71  80  65  70  82  42  54  52  51  68  72 105  74 145 137 160 151 138  88  90 116 120  97 130 109  90  70  95  46  64 109  63  82  95  90  58  75  91 111 115 103 141 109 123 114 107  80  34  21  28  22  25  29  25  33  39  41  44  47  41  35  27  35  36  33  34
  40  41  41  38  38  37  40  36  36  33  26  20  16  17  22  11  15  15  39  41  71 112  90  88  80  75  75  75  61  87  57  57  54  54  71  59 103 114 142 130 139 133 120 119 107  94 136 130 129 120  89  90  90  68  53 101  87  91  68  86 111  68  75 106 129 137 109 120 128 104 112 121  65  13  26  24  25  27  28  31  38  41  41  44  45  44  40  29  34  35  33  31
  44  41  41  39  37  39  37  37  32  30  23  19  14  17  21  15   9  43  50  38  83 109  93  84  78  77  82  70  57  70  59  77  69  48  73  70 135 137 134 102 104  83 119 123 116 135 130 121 153 125 108  83 103  85  82  87  90  66  88  84 105  85  97 111 125 144 136 122 128 133  90  93  27  20  24  32  26  25  28  33  39  43  43  44  44  37  32  28  34  33  31  29
  40  39  42  39  36  44  37  37  28  25  20  17  20  18  19  16  23  49  44  39 107  93 101  95  81  78  90  78  52  39  54  69  67  55  76  93 127 137 114  86 116 127 114 141 148 154 117 157 137 135 125  98  77  84  71  95  76  71  87  95 108 112  83 137 141 130 144 133 128 141 111  68  19  26  25  23  27  31  33  39  39  42  42  43  45  42  43  31  29  27  27  29
  41  39  39  38  37  43  37  38  26  25  20  17  22  21  20  16  48  47  48  39 118 102  92  98  96  95  88  63  47  42  48  42  71  67  59  68 103 124 108 104 129 109 135 154 140 109 127 160 152 134 118  64  93  91  67  87  86  81  75 108  92 113  99 122 129 146 113 129 138 119 107  37  19  22  28  23  35  35  38  42  43  41  42  41  43  42  35  25  31  30  27  30
  41  40  39  37  38  41  36  33  25  24  19  20  25  22  17  34  52  47  46  37 112 101  87  82  90 110  82  47  45  43  47  44  55  79  63  70  83 123 115 129 135 150 143 125 111 123 134 149 161 129 104 111  87 115  66  87 102  54  77 105  89  98  86 116 117 132 130 118  90 134  95  37  42  29  26  29  30  38  37  39  41  42  42  41  42  42  33  26  32  25  29  30
  40  42  42  42  44  40  36  31  25  24  21  25  22  20  30  51  48  50  47  38  94 103  86  89  91 102  62  37  40  45  49  43  50  43  96  82  85 127 105 115  87 117 125 141 119 115 155 128 129 119  73  80 120  89  76 108  63  70  98  83  72 106  84 139 107 130 126 100 103 108  93  36  39  26  27  35  36  39  37  38  39  41  40  40  41  44  37  26  32  28  30  33
  43  39  40  40  42  38  37  29  26  22  24  26  23  29  53  52  46  53  42  42  60 106  91  89 103  81  44  36  44  44  45  39  46  27  52 101 113 108 123  82 140 109 128 128 123 149 116 129 126  77  83  95  74 110  95  62  66  93  58  74  83  84  79 114 127  97 128  79  73  87  46  32  22  28  29  30  38  38  38  37  39  39  39  38  40  40  32  20  29  29  29  33
  42  41  46  46  42  37  38  30  27  17  23  29  26  48  50  47  50  47  47  43  32 104  94  95  99  50  43  45  54  50  47  49  42  38  40  86  79 100 105  96 109 120 124 106  99 114 111 105 116  95 107  84  66  55  60  54  75  57  67  67  65  92  73 119 119  92 110  84  86  49  18  26  26  31  32  32  37  38  38  39  38  37  36  37  37  39  35  23  33  28  31  35
  38  38  40  42  40  40  37  31  28  16  30  28  45  53  48  47  51  50  46  39  15  98  93 106  75  42  37  46  56  55  49  48  47  40  34  36  53 101  84 104  88 115  87  98  99  89  92 105  95  99  91  91  85 102  42  58  60  49  66  70  64  74  87  91 117 105  93  58  42  30  20  27  27  31  31  32  34  37  39  37  35  37  37  36  38  37  31  25  28  32  34  32
  36  50  47  42  45  39  30  35  20  28  25  44  54  47  48  47  47  48  47  36   5 123 120  92  52  35  36  50  51  54  51  53  47  46  40  35  31  40  48  71  97  90  83  87  79  99  80 110  93 124  80  57  92  54  41  54  59  44  56  70  59  54  81 104  81  91  78  10  13  17  12  22  29  31  31  34  36  38  37  36  37  38  40  40  37  36  30  24  31  32  32  31
  32  16  37  47  45  37  35  42  17  31  42  53  49  49  51  48  48  52  51  36   7 129 106  60  36  40  42  55  56  59  59  62  59  51  44  38  41  34  38  28  41  60  69 104  71  77  75  75  89  95  91  74  82  66  50  67  49  50  40  61  55  63  68  87  69  63  17  12  10  13  25  12  29  30  31  33  35  38  37  36  38  40  41  39  34  31  34  32  29  33  31  31
  39  50  42  35  14  25  42  47  26  39  51  51  47  48  51  48  47  51  49  43  13  70  57  39  41  45  48  51  52  54  56  62  63  52  46  41  43  37  27  33  49  51  39  74  86  79  60  86  75  77  81  87  55  67  53  51  42  53  64  49  58  69  70  85  33   0   4   1  15  11  10  27  21  29  31  33  35  36  37  36  39  38  38  38  33  36  31  25  33  29  26  31
  42  41  39  45  49  49  47  38  33  46  49  50  51  46  51  49  49  51  49  43  18  16  31  43  47  45  50  49  54  58  58  60  57  55  47  40  36  35  30  28  26  47  36  38  51  36  60  67  63  56  61  47  65  65  49  42  40  39  47  49  53  61  58  11   0   6   8  10  13  18  22  22  27  21  34  31  35  34  33  36  38  43  36  34  30  32  31  36  27  29  32  43
  49  41  46  48  48  47  49  45  40  50  47  45  47  44  47  46  47  50  49  45  25  15  27  44  56  56  55  53  51  57  55  56  59  55  49  43  39  36  33  31  32  27  29  33  35  33  40  32  47  43  45  44  53  64  43  34  31  45  39  31  30  27   6   4   2   5  11  12  16  19  20  23  28  28  21  35  33  39  39  37  42  40  40  37  28  33  32  35  30  47  38  37
  47  41  43  43  41  46  56  47  39  49  47  44  47  48  48  49  52  53  52  41  26  29  46  61  67  58  60  64  60  64  61  64  64  54  50  42  36  36  37  33  28  37  36  34  34  26  45  33  26  36  35  34  24  24  33  29  21  24  18  30  15   5   6   4   4   9  11  13  16  19  20  23  25  31  20  27  35  40  37  37  40  36  41  37  23  27  33  39  28  33  28  29
