P2
# Generated by OpenCV 4.2.0
92 112
255
 175 188 206 224 233 243 244 244 247 241 229 222 218 222 218 233 253 249 253 255 255 255 255 254 250 254 254 252 253 252 251 246 225 191 204 224 234 202 143  98 125 150 153 148 171 181 181 184 201 200 216 192 194 151 186 236 240 246 249 255 248 254 250 252 251 244 245 255 207 185 211 183 182 182 189 196 199 200 204 207 207 209 217 218 220 215 212 216 224 236 249 255
 190 203 219 239 246 250 250 249 247 246 237 223 220 230 247 247 252 254 251 255 255 255 253 254 254 251 253 251 246 232 236 223 218 216 201 221 210 212 210 164 155 146 167 169 197 202 193 186 187 192 204 191 174 163 166 211 232 244 228 228 252 246 250 251 253 253 250 251 249 233 184 167 180 180 189 194 197 202 205 208 213 216 219 218 214 207 204 209 211 222 238 249
 201 217 233 248 251 255 255 253 251 249 249 245 239 234 247 252 251 251 254 254 253 253 250 249 250 251 252 242 235 212 210 200 191 187 197 196 191 182 199 204 157 154 164 167 173 185 189 197 183 202 194 172 164 203 213 219 210 226 233 206 222 232 215 247 252 254 253 251 245 244 229 181 167 177 187 189 200 202 203 206 212 218 217 217 211 205 199 198 199 205 221 235
 211 227 243 250 253 255 255 253 255 251 248 243 230 237 236 252 250 254 254 250 249 246 247 244 242 232 230 219 219 209 218 220 202 188 164 173 166 152 165 194 191 176 182 162 162 169 172 188 187 195 184 184 165 151 170 206 183 185 203 224 184 197 179 214 247 250 254 253 251 251 221 206 193 176 191 195 202 201 206 205 209 214 216 215 211 204 201 194 189 191 202 215
 214 233 248 254 255 255 255 254 252 253 246 239 240 243 251 248 252 253 252 241 230 229 232 234 229 218 233 232 231 228 231 227 196 183 177 159 165 170 160 167 180 171 176 167 172 174 177 181 189 181 172 187 166 140 130 155 159 196 181 207 145 172 160 163 198 233 234 246 248 252 251 235 210 187 190 200 201 206 208 208 207 211 215 211 206 198 195 192 180 172 176 191
 229 241 252 255 255 255 254 254 252 251 247 245 240 249 253 248 253 254 251 245 240 232 221 204 208 223 246 244 231 224 217 210 191 172 166 165 166 170 173 162 174 182 174 172 181 182 183 185 180 175 161 176 168 161 147 141 149 162 159 150 136 162 119  92 154 191 216 243 218 229 243 253 248 214 192 202 203 203 204 204 207 209 210 210 206 201 197 186 178 169 163 167
 243 249 252 255 254 255 255 254 253 251 249 245 244 249 252 252 254 252 246 239 218 218 230 233 225 227 230 228 222 208 199 195 187 179 164 168 171 174 178 170 157 172 173 185 181 191 189 193 186 171 174 183 172 160 156 153 155 128 101 158 133 128 156 154 130 172 182 209 186 186 251 248 253 246 218 199 206 206 205 201 206 206 207 209 208 204 197 183 176 168 164 167
 248 252 254 254 255 255 255 255 253 251 245 241 242 250 243 240 247 245 230 211 192 191 206 216 218 216 216 212 207 196 190 189 182 180 168 171 177 180 173 182 171 168 178 173 182 194 196 186 183 175 183 178 174 172 162 144 148 145 132 104  61  69 109 169 167 127 123 160 171 185 252 241 235 253 240 201 201 201 202 204 199 201 203 204 201 198 192 181 173 165 166 176
 249 254 254 255 255 253 255 255 253 244 240 242 248 245 229 225 235 235 207 193 214 226 226 219 216 206 201 203 203 192 189 191 186 183 175 169 176 180 183 182 185 181 180 178 177 182 186 184 182 181 184 186 171 172 167 150 139 139 110  57  59  62  54  83 151 168 142 156 132 208 223 242 210 233 238 230 187 203 209 202 199 201 203 201 197 192 188 180 176 168 171 183
 252 254 254 254 255 252 252 253 249 247 241 247 243 239 227 227 239 243 226 222 236 227 219 216 213 205 205 204 202 194 188 188 187 186 180 172 175 183 188 187 196 189 179 183 181 181 190 187 187 188 187 186 177 174 163 149 146 119 100  77  61  88 105  82  88 146 143 158 134 201 174 217 216 173 211 242 229 229 202 200 199 202 205 202 199 195 186 185 181 175 180 197
 253 255 254 253 254 253 250 249 240 228 225 248 241 238 240 233 223 197 227 243 233 222 219 218 214 210 203 195 190 191 188 187 186 182 183 177 180 187 194 197 198 193 184 189 188 186 188 190 191 191 188 185 182 170 168 159 144 120 106  85  59  60  84 105  82 112 141 125 161 163 175 166 216 203 185 255 251 219 193 197 194 203 204 203 199 199 194 192 190 188 194 212
 255 255 254 252 252 251 245 240 218 211 229 222 238 247 237 217 172 221 240 235 230 223 219 215 211 207 200 195 193 189 188 187 185 183 181 181 182 184 191 196 192 193 192 190 189 191 193 189 190 192 190 186 181 174 176 164 140 130 111  90  68  57  49  67  85  99 121 106 146 147 166 135 180 197 198 249 246 243 197 192 200 197 201 200 201 200 200 199 197 200 207 220
 255 254 254 253 253 250 239 230 201 202 218 204 242 249 248 224 235 238 243 235 226 219 216 211 205 200 196 194 191 188 183 182 183 182 180 179 181 182 189 195 195 195 194 193 194 192 188 191 193 196 192 190 188 182 176 162 147 139 119  98  74  57  54  62  72  89 120  86 134 134 132 145 149 176 191 237 246 245 226 183 189 197 200 201 200 201 201 203 201 207 213 223
 254 254 253 253 246 240 223 207 200 219 212 230 250 248 212 207 244 237 244 234 223 212 207 203 199 196 192 188 185 182 181 182 182 181 181 181 179 180 187 194 197 195 195 195 198 196 194 193 194 195 192 186 183 178 171 164 159 156 132 105  95  78  75  65  79  92  98  87  98 155 109 139 160 156 170 207 237 246 251 204 190 194 199 203 204 208 209 207 207 212 219 229
 255 253 252 249 244 232 216 212 190 222 201 224 218 205 208 244 239 248 234 217 214 203 194 193 193 189 185 181 181 179 181 183 182 183 182 181 180 182 185 188 190 190 190 193 194 196 197 193 195 194 189 188 186 182 176 175 168 161 142 121  99  85  65  86  69  91  80  79  89 116 136 112 160 175 163 204 210 249 239 203 180 183 194 200 206 210 214 213 209 215 222 232
 254 254 250 249 240 239 216 197 232 221 222 204 201 187 235 244 242 232 218 208 199 195 191 185 184 184 180 180 179 178 180 179 180 182 181 179 178 180 182 182 184 183 184 186 187 189 193 191 191 190 187 184 184 180 174 176 170 164 155 138 112  93  87  72  76  90  91  89  70 105 141 118 122 191 176 172 161 227 253 231 189 181 190 200 203 205 205 206 209 214 222 230
 254 252 253 248 247 228 210 221 229 209 182 180 184 219 249 238 240 215 202 196 190 187 185 181 182 183 180 181 176 175 175 174 179 178 177 177 179 178 181 182 182 182 182 184 182 187 191 189 188 188 186 186 189 186 179 178 178 173 158 142 120  96  89  79  76  82 109  77  90  88 139 139 115 148 201 195 171 191 245 240 233 190 188 188 192 198 200 200 201 209 216 221
 254 252 250 246 241 219 216 231 198 189 172 173 189 242 233 222 206 198 191 190 184 181 181 180 183 180 178 176 173 174 174 173 176 175 176 174 176 179 180 180 179 179 182 184 183 183 184 183 182 181 182 183 187 187 181 180 175 172 160 148 131 118  86  85  77  86  88 101  81  92 123 135 129 125 158 217 171 153 250 244 253 225 184 184 188 188 192 192 192 200 205 211
 252 250 248 247 228 233 221 205 179 166 150 156 223 233 222 208 198 190 187 188 182 179 179 181 180 175 172 172 170 173 175 175 174 175 174 172 173 176 176 174 172 175 178 178 176 176 176 175 176 179 178 180 184 183 178 179 182 175 168 155 141 122 104  95  84  86  80  94  93 105 102 122 126 136 132 178 202 174 198 237 229 243 203 186 186 176 180 181 183 186 189 192
 251 244 242 232 231 233 209 185 177 167 148 208 226 213 205 196 191 185 182 185 178 175 173 176 173 169 172 173 169 170 169 171 173 174 173 170 170 171 172 171 174 172 170 171 172 172 174 172 174 177 179 179 180 179 174 175 176 172 168 162 150 130 107  95  86  92  84  90  95 106 115 131 126 121 132 138 178 202 172 235 223 251 244 172 159 167 171 174 172 173 174 174
 249 245 237 235 238 206 191 176 158 149 172 224 209 201 194 189 187 182 182 180 177 172 169 172 171 169 169 168 168 171 172 170 170 172 170 165 164 168 169 167 171 169 167 166 167 171 167 168 172 177 178 181 180 177 175 175 171 169 169 165 157 141 117 100  84  90  83  82  95 101 131 126 150 117 127 118 145 192 211 204 237 248 245 181 153 163 162 164 167 170 163 162
 249 243 234 250 208 190 181 189 164 147 209 208 200 192 186 180 177 180 175 173 172 172 169 170 169 168 170 170 168 169 167 169 169 169 165 166 169 165 161 162 164 170 168 166 166 167 168 167 170 175 176 181 177 174 172 173 173 169 171 168 162 152 135 111  88  75  78  73  74  93 116 125 113 149 136 144 119 146 190 191 200 228 243 237 142 148 154 159 160 160 158 158
 245 240 238 223 179 185 203 179 149 157 220 203 197 187 180 175 170 173 171 170 167 165 164 163 165 169 170 168 165 169 170 168 167 171 166 162 167 162 160 164 166 163 163 161 162 162 167 171 173 174 174 174 176 176 173 173 174 171 173 171 165 157 144 126 108  88  75  64  51  70  91 129 127 150 153 168 151 139 169 206 203 190 213 251 199 147 149 152 153 153 149 155
 244 237 226 193 196 190 210 176 137 209 209 196 192 179 171 169 168 170 168 166 164 162 161 161 163 168 168 167 164 168 171 170 165 166 162 164 167 161 159 161 164 160 160 161 163 165 166 170 174 175 174 175 174 173 172 172 172 170 172 170 171 165 151 136 116 107  93  80  68  58  64  93 129 101 153 152 163 115 139 198 177 164 177 233 204 158 158 156 153 154 156 163
 233 231 218 191 198 209 187 159 157 210 200 192 184 169 165 170 172 166 162 163 166 165 162 161 162 164 165 163 164 167 165 165 161 162 160 168 162 161 161 161 159 161 161 161 163 164 161 165 169 173 172 171 170 169 170 170 169 169 174 173 171 165 162 149 125 111  97  86  76  67  65  72 121  89 104 146 171 147 124 155 188 175 177 203 241 182 172 164 166 167 175 178
 224 219 203 200 199 182 170 140 172 205 194 180 168 168 165 164 162 156 164 168 166 166 165 165 162 158 157 160 165 171 167 161 160 165 162 167 161 164 164 162 156 155 154 156 158 158 160 163 164 165 165 165 165 165 163 164 162 162 167 170 169 165 162 155 137 121 105  94  82  72  64  69  91 109  83 109 155 169 132 150 148 154 168 168 222 208 180 181 181 187 192 198
 199 203 201 196 177 170 161 143 193 197 189 179 175 163 157 160 164 165 168 167 162 160 164 165 163 159 158 162 164 164 161 166 164 164 165 166 162 167 169 171 169 167 170 173 174 172 168 169 172 173 170 170 171 171 166 166 168 162 165 167 163 156 149 144 134 125 111 103  94  87  77  77  72 109  88 118 128 148 144 129 164 145 169 147 211 226 187 194 191 200 201 207
 169 190 209 180 175 173 149 145 197 189 187 184 173 162 160 172 172 171 166 164 166 165 169 172 169 163 159 162 165 164 165 169 169 168 166 165 157 168 164 161 163 168 168 171 174 177 173 173 170 167 164 162 159 160 165 168 172 167 162 159 160 157 151 144 133 123 109 104  95  90  81  76  87  91 104 106 133 145 150 118 149 121 142 160 198 225 204 198 205 212 219 222
 146 189 195 185 171 152 135 163 198 190 181 180 168 166 175 175 168 168 168 172 169 169 175 177 174 170 166 170 169 168 171 178 174 179 176 169 171 175 177 175 177 179 176 171 163 157 153 154 153 150 151 154 155 154 151 151 152 157 162 158 154 153 154 150 137 127 112  93 108  87  92  89  76  74  83 122 131 139 144 121 150 122 117 148 177 221 215 212 218 221 226 229
 149 212 180 175 166 162 129 169 198 183 183 181 172 172 175 178 180 177 173 177 171 170 172 174 169 166 165 167 164 163 167 171 173 172 171 169 173 168 173 172 162 155 159 166 173 177 178 175 174 176 172 172 169 163 152 150 149 152 155 148 147 148 150 147 142 131 117 102  93 112  82  87  83  83  74  94 128 129 129 130 142 123 108 146 214 240 214 222 228 234 230 231
 140 213 178 163 174 149 127 179 191 190 181 176 170 180 182 181 171 170 172 172 167 167 162 166 167 167 167 167 159 160 165 170 175 166 164 170 165 162 161 161 165 174 177 173 165 163 165 166 165 164 168 166 163 161 160 156 161 158 151 149 155 153 149 143 134 131 120 120 103 100  96  90  93  70  78  89 134 123 115 145 146 131 100 135 207 247 224 226 232 232 233 236
 153 218 185 163 159 149 137 189 181 179 166 159 156 164 184 204 193 189 184 183 182 179 174 168 163 173 171 168 161 161 161 161 163 159 161 164 160 164 161 161 164 162 164 167 169 169 171 173 175 176 162 160 159 156 159 155 157 157 155 158 158 157 154 146 141 131 132 117 116  97  95  87  85  72  82 100 121 105 123 151 150 136 107 128 165 218 239 230 232 236 236 238
 143 207 195 154 152 141 153 184 174 184 189 199 199 199 201 192 181 181 176 173 174 168 166 151 142 154 160 150 147 154 156 162 163 165 161 159 156 158 162 156 155 153 152 156 156 155 161 165 168 169 173 165 160 157 154 157 156 154 158 157 156 155 152 146 142 137 124 112 115  99  88  85  90  80  89 105 108 101 137 149 151 124 130 119 157 206 241 233 238 244 242 241
 143 204 204 139 161 132 162 178 183 192 194 180 190 182 177 169 175 178 176 170 169 162 161 164 160 163 169 154 151 163 166 168 163 161 151 150 156 155 153 148 144 150 160 162 155 149 147 153 159 166 174 162 163 162 149 150 154 155 159 154 155 153 153 150 145 134 124 102  97 101  89  79  90  83 101 102 108  96 126 138 124 117 148 135 154 206 248 235 244 245 245 243
 178 225 206 126 149 122 173 186 187 178 164 172 170 171 162 153 157 160 165 159 155 155 154 166 158 155 161 150 153 162 161 160 153 148 151 151 150 144 142 148 158 157 145 132 130 140 135 134 126 129 139 161 151 158 155 148 150 154 156 153 151 151 151 150 146 143 133 116  86  74  80  70  95  90  91  98 106  94 120 123 118 108 124 141 158 202 247 242 243 246 245 242
 199 231 189 132 134 132 177 174 159 163 164 162 163 166 160 157 153 154 165 165 157 157 161 162 154 142 155 154 156 160 158 154 156 150 147 151 146 139 151 160 154 145 135 133 126 131 129 139 132 134 125 132 156 140 156 153 148 148 148 150 150 150 151 148 148 140 125 117 107  89  80  77  86  84  88  88 102 105 112 117  99 114  95 147 164 211 252 247 247 250 250 247
 179 221 192 138 132 139 173 156 160 182 178 164 144 141 142 142 137 138 149 159 159 161 160 162 155 139 164 171 170 160 151 146 147 141 144 146 137 154 160 145 127 100 118 100 105 109  98  97  92 104 126 117 126 150 142 157 150 152 149 149 152 155 155 152 146 143 129 115 111 103  87  73  84  85  88  78  98 114 102  82  89  89 104 150 168 221 255 248 253 254 254 253
 213 213 210 134 143 133 168 163 174 170 157 150 148 155 146 139 136 133 136 149 152 155 154 155 158 129 156 162 158 159 154 147 142 140 145 147 145 138 123 107  82  79  71  87 124 131 124 121 106 102 105 127 129 142 149 149 157 153 151 153 153 152 156 148 147 143 124 112 105 108 100  73  83  69  84  84  96  96  69  45  62  76 109 127 137 210 255 252 250 254 255 255
 216 205 209 140 141 127 162 169 167 161 166 161 167 164 158 152 142 131 125 132 147 150 151 142 156 124 131 149 153 157 151 147 144 150 157 149 138 108  94  62  60  77 101 133 142 140 141 137 135 130 127 136 140 137 152 142 147 155 148 151 151 152 152 148 148 145 126  92  99 107 108  82  87  86  76  85  91  87  58  56 111 167 190 193 176 199 254 251 252 255 254 254
 230 209 206 149 143 134 155 176 174 174 161 148 146 141 142 149 149 138 129 129 137 137 146 129 151 156 119 132 146 142 140 147 147 147 141 115  89  91  61  60  72 107 129 135 143 150 149 145 146 138 133 135 134 141 147 142 140 150 151 149 151 153 150 149 149 144 127  98  88 100 105  94  99 104  86  90  92  86  58 119 163 162 158 160 171 208 253 250 252 254 255 255
 186 209 190 132 135 136 155 177 175 166 132 127 121 109 110 130 142 143 139 133 124 124 128 119 134 155 142 119 138 131 128 128 123 106  91  82  66  50  60  89 106 121 135 148 149 146 143 142 139 137 138 142 139 142 137 144 140 142 148 147 148 153 156 151 151 142 130 109  90 107 114 108 105 108  93  85  98 107 123 142 150 150 129 127 139 181 252 244 253 253 255 255
 134 212 192 138 147 136 154 182 164 139 111 102  81  70  73  90 108 121 128 122 117 116 110 102 116 141 152 119 131 129 106  95  89  78  67  65  62  74  94 105 127 129 135 137 136 135 142 141 141 147 134 137 132 128 140 134 140 138 134 140 147 153 153 151 152 146 133 106  88 108 105 101 104 105  98  94 105 127 146 137 132 101  71  68  95 129 232 253 250 254 255 255
 155 222 190 151 169 129 158 184 144  99  79  84  83  75  55  51  58  70  83  84  91  95  86  81 119 153 155 141 126 120 114  96  79  72  74  78  84  97 108 127 135 130 128 137 141 155 156 154 147 135 128 122 122 129 132 136 134 133 139 146 147 151 149 152 153 151 141 110  90 116  97  92 100 105 109  98 115 129 138 134 115 104  95  70  74  93 200 252 250 254 255 255
 159 218 203 149 167 151 160 174 124  80 107 133 137 122  95  71  56  42  50  49  50  59  62  84 128 148 149 153 138 130 125 111  90  82  87  84  90 106 128 142 136 138 139 134 125 119 112 118 120 135 137 138 127 123 138 135 137 143 148 147 148 147 150 153 154 151 143 126  95 109 103  81 100 107 109 104 128 132 138 106 118 136 113  86  96  88 155 245 252 253 255 254
 143 199 211 154 157 144 155 173 104 119 163 156 147 140 124 106 104  86  81  71  55  50  57  97 128 146 141 136 133 129 116 102  97  86  84  89  91 103  95  71  53  53  41  40  13  20  17  37  65  84 100 113 121 124 130 136 139 142 146 150 150 150 151 153 153 152 146 137 110  92 114  71  93  84 100 123 137 140 139 105 116 146 132  95  99  92 126 243 251 254 255 255
 155 181 214 199 165 147 144 159 114 170 156 137 138 136 128 122 116 115  94 100  75  66  48  79 148 157 162 160 154 146 132 103  95  83  75  82  85  62  40  46  58  70  33  67  46  50  54  61  82  43  77 106 119 126 132 141 143 145 152 150 151 153 154 153 153 152 143 137 109  93 103  95  94  71  95 133 139 146 140 120 129 146 141 105 101 103 126 234 254 255 255 255
 169 165 179 220 162 145 156 153 132 148 129 117 122 129 148 141 125  99  94  76  78  65  61  59 137 145 151 150 145 136 114 104 109  79  73  65  54  48  50  49 105 137  74  50  51  59  57  77 108 112  99 108 125 128 133 140 147 151 150 151 154 159 157 158 157 157 148 144 115 100  94 110  82  86 123 133 139 142 143 125 123 137 149 120  93  98 120 215 255 255 255 255
 167 177 192 205 170 138 134 154 143 137 111 131 136 109  69  57  32  30  31  41  48  41  43  38 147 164 162 159 152 137 114 106 105  82  76  63  65  61  53  62  92 112  93  62  66  98 118 146 143 142 142 128 119 132 138 150 145 151 150 155 156 157 157 156 158 161 157 154 122  88  99  90  72 121 146 135 132 133 143 144 134 136 158 142  97  88 115 204 255 255 255 255
 166 161 153 173 196 146 107 161 137 134 141 109  50  26  22  44  36  41  30  53  44  45  57  56 161 166 163 160 148 128 118 115 107  81 103  95  82  70  90 104 111 108 126 132 142 146 140 136 128 133 136 133 143 151 149 152 145 153 153 154 157 159 160 160 161 160 158 148 123  99 104  87  90 125 145 136 123 129 106 140 158 155 156 156 113  92 111 193 253 255 255 255
 171 160 164 186 187 162  91 154 137 133  63   8  64  81  26  47  46  40  38  66  57  39  63  94 171 167 164 159 146 131 125 117 121  82  85  95  81  72  75  97 114 127 132 128 126 122 122 129 129 133 127 133 148 137 151 154 151 156 155 151 154 158 159 160 159 152 151 155 139  94  99  91 100 116 148 147 135 105  42  85 119 136 145 142 145  89 116 192 251 254 255 255
 176 162 157 164 158 167  98 164 134 114  27  33  90 115  74  34  45  64  74  76  64  62  73 115 175 171 165 159 146 131 129 124 123 108  85  80  73  76  91  96  99 109 112 114 122 120 118 110 126 133 134 145 150 149 151 152 155 155 155 156 154 152 154 152 152 147 150 152 148 105 100  84 104 130 161 150 150  94  52  55  85 102 130 143 144  98 121 192 253 253 252 255
 174 166 157 153 151 163 112 164 137 132  66 109 104  97 104  99 115 111 105  83  73  72  70 131 183 173 167 162 142 130 138 134 126 118 101  96  87  85  94  95  96  96 105 110 109 120 127 131 134 124 138 151 151 151 159 153 155 161 163 161 159 157 155 152 153 150 150 150 145 121 104  84 100 131 151 156 163 123  68  51  75  91 120 147 143 109 121 186 255 253 253 254
 169 161 159 152 146 140 110 167 147 140  89 123 133 131 129 114 107 105  92  76  70  75  73 151 179 170 167 165 144 129 135 140 142 130 124 118 108  97  96 103 109 117 122 125 130 131 132 129 130 149 155 157 152 150 155 155 155 161 160 159 160 160 158 155 152 150 147 145 137 126 118  96  94 138 144 153 159 165  94  63  71  81  99 135 138 120 121 181 254 253 253 252
 170 160 159 142 139 142 108 170 159 145 113 114 106 111 110 106  94 103  87  82  79  84  99 169 170 168 166 162 148 128 132 141 150 138 136 129 128 123 106 107 118 126 133 136 139 143 143 148 155 154 154 158 155 151 150 152 158 155 149 151 152 156 153 154 151 151 145 141 138 117 122 113  96 120 134 149 157 168 118  75  72  73  84 120 139 131 126 181 253 252 250 242
 169 163 155 146 151 148 110 175 164 150 139 140 113 105 104  99  99  92  83  87  98  78 117 172 169 168 164 158 148 133 135 134 146 148 148 139 138 137 130 120 122 124 133 143 145 151 150 150 150 150 146 150 152 154 153 154 158 155 154 153 154 154 153 152 150 148 143 140 129 116 116 117 107 111 128 160 148 162 134 103  84  77  79 107 139 130 125 187 251 250 242 233
 167 161 156 143 137 157 118 174 172 151 148 146 118 108 102  97  93  90 101 110  86  79 131 174 174 169 167 160 152 141 133 141 141 145 149 145 142 143 141 139 130 119 122 133 142 143 142 146 148 150 151 147 145 150 153 154 150 152 152 150 148 150 148 149 147 144 142 137 119 104 105 123 102 101 131 148 151 151 141  93  81  77  73 106 134 124 127 196 251 243 233 229
 162 155 151 137 118 153 125 176 174 161 157 142 128 112 106  98 106 110 114  96  78 100 138 177 174 166 169 167 158 145 137 139 139 142 147 145 145 151 149 148 144 135 129 129 135 140 143 142 145 147 147 148 149 147 147 150 143 145 148 145 147 150 146 149 147 145 147 138 124  94  91 123 104  93 125 152 140 148 119  85  82  66  92 128 127 128 135 209 248 244 235 221
 156 149 140 133 124 137 128 180 168 165 168 135 128 120 125 121 125 118 103  93  92 110 145 183 171 165 170 173 167 151 140 137 139 139 134 141 142 150 150 147 149 150 144 137 137 141 144 142 145 149 152 153 152 153 149 146 147 145 147 150 144 148 146 146 141 146 147 135 120  97  95 124 100  85 135 145 143 134  84  99  92  95 125 124 115 123 125 224 243 232 223 217
 145 138 130 125 123 121 156 170 167 171 162 147 137 135 132 130 126 112  98  91 104 131 180 181 170 165 166 169 169 161 147 136 132 124 123 132 136 143 146 149 151 153 154 148 147 149 152 153 149 151 150 152 153 152 150 149 148 142 145 147 143 145 141 141 140 144 145 140 111  99 106 122 110  93 128 139 153  92  76 125 162 152 123 135 125 130 129 236 238 231 227 225
 136 130 125 122 118 126 155 161 168 170 162 156 146 137 138 129 116 105  96  96 119 172 195 170 164 159 158 160 160 161 148 136 131 123 134 126 120 126 132 144 152 150 152 154 152 153 151 150 150 148 145 146 150 151 147 145 148 148 141 144 145 144 141 135 137 139 138 132 102  92 110 118 108  90 116 148 142  71  94 140 165 150 136 137 129 134 147 245 247 246 244 240
 140 132 126 119 117 140 164 161 168 158 156 147 138 135 126 117 108 105 105 122 143 186 173 161 157 154 154 151 149 153 151 140 134 137 134 130 121 114 115 132 146 147 149 149 150 152 154 153 155 152 148 146 147 148 146 145 146 146 143 145 148 141 138 139 135 141 130 112 106  88 103 118 120  67 113 149 145 161 158 153 149 150 150 137 144 128 203 254 254 254 253 251
 149 140 130 116 112 116 123 141 164 155 154 144 139 136 122 117 111 122 126 139 158 185 158 158 155 153 147 143 142 142 142 138 138 137 136 139 128 106 105 109 129 143 146 145 148 151 153 156 161 162 159 154 150 153 148 149 150 146 145 145 146 133 130 138 137 135 121 102  92  82 102 112  89  74 112 150 142 149 150 142 150 150 145 162 144 148 250 252 254 255 255 255
 153 147 138 120 111 108 116 126 160 148 142 136 138 129 131 127 129 137 146 150 160 161 151 154 152 148 143 139 136 127 121 125 137 140 143 139 129 110 104  96 102 125 136 142 148 151 151 154 155 155 157 156 155 151 153 151 147 144 141 141 142 137 134 137 133 124 107 107  90 100  90 100  88  82 111 145 156 144 147 149 152 141 143 144 124 214 251 253 255 255 255 255
 157 151 143 121 104 111 130 123 163 137 139 139 133 128 133 130 139 147 161 146 141 134 135 136 136 139 135 126 116 107 105 111 126 132 146 150 145 126 105 105  90 107 129 136 142 145 147 149 152 153 155 156 156 148 155 147 143 147 150 146 140 136 139 138 116 128 107  82  97 113  86  94  82  90 109 138 159 166 152 153 146 146 143 121 179 252 252 254 255 255 255 254
 153 149 142 124 100 105 132 126 165 136 129 131 129 130 133 139 149 156 154 150 130 109 110 116 119 120 123 113  98  95  93 102 108 126 141 141 149 139 104  99 101  87 105 129 137 143 147 149 149 147 149 151 152 152 149 150 148 146 148 146 136 129 123 128 121 115 105  98  96 104  98 108  69  94 120 125 136 144 152 149 146 145 121 115 219 252 252 255 255 255 255 255
 145 143 136 120  92 101 113 144 152 148 131 128 133 129 135 148 162 158 153 143 128 104  93 100 104 100 102  99 103  93  87  80  90 103 109 119 123 131 112 104 111 106  82 114 131 139 145 148 150 148 151 151 152 154 150 152 153 152 152 150 138 122 119 119 104  98  97 116  98 112 109 102  82  94 134 110 102 121 138 132 131 116 117  69 204 255 254 255 255 255 255 255
 140 135 128 111  96  88  96 156 130 155 135 128 127 127 143 157 157 156 149 137 121 112  98  88  88  91  94  99  93  49  48  49  26  24  42  67  82 102  97 118 125 121  98  91 123 132 139 148 147 149 147 150 157 157 153 151 155 156 158 150 132 105  90 110  92  93  86 110 117 120 109  83  89  94 136  99  72  91 100  95 106  82 110  87 233 248 253 255 255 255 255 255
 130 132 121 103  99 123 110 154 118 157 135 137 125 137 152 158 154 155 146 136 110 101  90  74  77  83  84  93  43  54  79  81  89  78  88  90  81  82 103 126 132 129 124  98 103 130 135 144 145 148 146 148 152 154 154 154 153 157 150 138 129 103  60  80  80  94  84  91 137 104 109  82  83  97 131 104  81  83  86 106 106  62  74  94 246 254 251 254 255 255 255 255
 126 123 111  96  96 103  95 172  98 157 144 135 131 144 153 154 157 151 141 124 111  90 108 104  71  63  65  71  81  68  77  96 106  99 104  99  87  92 114 117 125 133 131 120  93 108 131 134 144 149 147 149 152 154 155 155 154 145 144 142 114 101  91  66  96  79  82  82 128  96 117  68  95  93 128 109  96 106 126 123 112  53  53 177 253 251 255 254 255 255 255 255
 118 108  97  92  95 103 101 165 130 139 156 140 137 147 155 155 156 145 135 115  97  96 123 122 110  78  73  83  72  80  90  91  88  84  97  93  84  91  98  97 111 131 129 127 111  99 118 137 142 150 150 150 149 151 153 152 149 149 126 125 108  82  69  76  88  93  84  89 107  98 105  54  89  91 133 119 101 109 126 122 117  61  78 230 253 252 254 255 255 255 255 255
 114 101  92  87  98 104 111 140 131 126 158 137 147 152 158 161 156 143 128 115  92 122 128  97  72  63  54  83  98  91  86  78  70  64  95  86  92  85 100  79  94 105 127 108 113 113 105 125 134 145 147 147 146 146 145 143 141 137 140 126 100  84  59  61  88  95  96  82  87 102  76  59  74  99 137 121 103 112 124 124 122  79  90 243 245 253 254 255 255 255 255 255
 111 105  98  96 105 112 123 124 125 101 146 152 151 157 162 159 151 136 124 101 114 126 104  91  71  65  64  79  81  73  69  69  80  63  80  84 109  85 103 102  91  97  98  95  82 113 117 107 125 135 140 143 147 143 149 139 130 122 129 125  93  59  43  51  65  91 109  77  96 107  83  64  65  97 136 120 107 120 120 125 128 118  91 239 254 255 255 255 255 255 255 255
 112 114 110 110 112 123 133 132 138  80 121 158 156 163 166 154 142 131 113 107 124 117 105 104  73  84  65  81  63  65  73  48  77  76  70  76 119  92  71  96  99  97 100  86  66  81 110 104 111 125 133 130 132 136 145 130 127 125 133 123  87  74  48  40  66  69 108  88 101 118  92  66  65  87 139 121 112 118 119 125 133 148 118 246 254 253 254 254 255 255 255 255
 118 118 115 111 123 129 134 143 156  94 104 162 156 163 157 152 139 125 105 120 119 121 131  88  83  76  69  62  56  55  71  53  83  69  85  58  87  83  73  76  86  94  95  75  57  65  90  93  96 108 127 135 126 127 128 116  96 104 119 109  85  75  54  55  72  65  92 105 109 110  89  68  59  83 127 114 116 122 120 128 138 173 226 253 253 255 254 254 255 255 255 255
 121 118 114 115 127 132 135 148 156 108  88 147 153 164 159 145 130 115 100 106 124  94  87  74  89  74  72  59  57  46  56  57  71  70  81  72  85  64  72  71 102  79  69  75  70  58  60  68  81  99 116 121 142 128 118 117  88  88 103 100  86  61  57  67  74  74  83  83 109  87  86  79  58  90 109 114 116 124 127 127 133 193 241 254 255 254 255 255 255 255 255 255
 127 121 116 115 122 130 135 135 148 131  81 138 150 158 153 144 130 111  84 108 105 104  79  92  76  74  73  61  64  54  57  67  55  64  73  65  92  72  73  94  93  73  86  60  66  70  52  57  65  74  90 105 125 124 110 113  83  73  83  77  75  49  72  69  83  64  88  71 101  81  93  83  59  79  97 108 111 120 127 130 146 228 253 253 255 254 255 255 255 255 255 255
 124 118 112 109 116 123 132 134 158 143 106 115 139 156 143 136 118  89  69  85 113  72 110  98  82  76  62  62  53  49  52  79  55  61  70  63  96  90  70  78  84  67  71  76  75  60  54  53  57  65  75 113 109 111 113 107  62  68  66  58  67  59  51  76  54  75  72  82  92  72 101  77  70  78 101 107 116 120 129 129 148 248 254 249 254 254 255 255 255 254 255 255
 118 112 106 106 111 115 122 135 146 139 115  80 130 152 137 120 101  84  66 101  72  86  82  81  66  67  69  84  69  75  95  92  69  61  75  81 106 105  87  84  85  80  80  68  64  59  58  50  46  59  64 111 122  94  98  86  75  53  58  58  53  47  44  59  45  68  49  81  75  99  86  75  50  79  95 105 112 119 132 128 139 245 254 253 255 252 255 255 255 255 255 255
 116 108 101 102 107 111 117 125 124 145 110  63 110 135 132 132 101  77  89  65  64  61  85  66  63  78  70  78  91  96  99  75  61  52  63  67  72  68  71  75  78  87  83  79  66  53  41  49  54  48  49  88 120  98  84  67  69  45  45  49  55  46  35  50  50  56  45  65  76  89  79  75  72  69  81  94 115 125 128 124 142 235 248 254 246 254 254 254 254 254 253 255
 117 106  98  98 105 108 114 123 130 134 114  66  96 105 124 116  75  61  73  47  43  55  69  61  54  55  44  37  41  42  39  29  38  36  34  46  55  59  54  53  44  39  38  45  51  49  41  48  50  47  52  90 112 101  73  59  54  40  44  46  58  52  58  54  52  59  62  62  79  81  80  77  94  80  78 104 114 118 124 125 137 231 244 250 246 251 250 251 249 247 251 255
 114 104  97  97 105 110 117 121 129 126 128  72  72  87 120  99  86  51  40  39  51  51  56  43  45  56  67  64  66  67  70  85  82  85  88  91  97 101 104 101  94 106 107 101  98  90  65  48  47  57  52  95 107 113  87  57  39  51  49  46  48  58  66  55  54  61  56  69  79  94  90  85  91 106  83 122 114 118 123 129 136 223 241 242 244 243 246 248 249 252 253 255
 109  97  89  95 106 114 122 129 129 121 132  91  62  87 110  96  83  47  51  37  45  35  43  60  91 117 117 114 119 120 116 118 121 113 123 122 125 120 121 125 122 123 117 117 111 105  85  59  39  50  75  82 107 105  89  65  32  47  47  56  49  60  54  51  50  58  55  96  87  89  93 107  98 101  92 121 122 127 122 128 131 216 246 245 244 242 245 248 249 254 255 255
 110  96  92 101 111 116 125 129 137 129 131 101  66  71  74  93  77  47  49  35  42  34  89 120 128 123 127 128 117 112 109  99 112 110 121 123 130 134 126 119 120 122 120 118 111 110 101  93  70  64  83  93  86  93  73  52  44  35  37  40  44  49  66  59  53  62  61 106  98 109 106 115  94 105 104 119 117 122 119 125 127 213 248 249 244 244 247 248 249 255 255 255
 108  99  98 103 113 118 125 133 135 134 129 111  65  50  54 118  79  48  48  44  35  57 113 118 123 128 118 113 106  97  93  94  98 114 113 118 110 113 125 126 128 126 119 119 114 119 112 106  93  71  75  91  79  64  63  43  48  29  30  48  47  41  64  42  44  42  90 100 111  96 123 109  75  99 103 116 114 119 121 127 134 174 248 245 249 246 248 249 252 255 254 255
 108 102 102 105 113 118 124 133 128 138 127 124  78  33  67  87  79  53  45  43  43  96 106 112 112 113 106  95  89  79  88  86  87  92 104  99  93  96 114 116 128 129 126 132 126 124 116 110 104  78  72  70  71  57  47  43  45  48  28  34  46  56  66  48  48  58  98 100 107  96 120 106  85 110 113 116 114 116 124 129 132 160 251 247 249 248 249 248 252 255 255 255
 109 101 104 107 113 116 125 129 132 135 135 128  91  29  31  63  90  87  43  30  89 123 114 106  99 107  96  88  88  87  67  78  85 104  84  95  83  87 108 110 116 126 127 131 130 119 108 106 107  74  61  60  46  55  52  44  47  40  54  46  47  47  76  54  63  56  95 105 107  87 132  99 103 119 116 112 117 118 127 127 135 150 238 248 248 247 246 248 249 253 253 252
 107  99 103 108 112 114 124 130 133 133 138 125 105  49  49  61 103  96  38  81 124 127 128 118 100 103  99  92  82  71  66  81  68 102 106  85  98  91 106 108 113 121 124 125 121 118 124 125  87  84  58  52  47  50  45  34  42  41  52  47  48  47  73  53  79  76  90  94  99  92 138  97 118 118 116 108 116 122 125 125 135 140 216 249 242 244 244 243 245 247 247 248
 101  98 103 110 115 118 126 128 126 126 119 109 106  89  50  38  94  66  64 101 115 127 124 118 116 108  90  79  80  79  81  85  81  74  95  91  86 112 111 116 122 119 122 124 125 125 125 114  99  89  81  59  51  44  34  31  40  36  41  63  69  46  69  55  72  78 105  69 102 116 118  99 106 122 117 117 112 125 124 127 135 144 215 249 232 239 238 237 237 239 246 247
 103  98 106 111 117 121 129 128 125 121 114 106 104  85  30  55  62  62  79  87 109 120 118 109 111 108  89  80  63  91  67  74  85  82  89  98  99 111 116 127 129 131 130 129 131 127 123 107 105  96  91  87  69  36  30  25  31  43  71  59  73  54  58  72  77  60  94  86 130 116 130 106  88 110 128 115 117 126 126 128 136 142 195 249 228 233 232 229 226 233 230 232
 104 104 110 116 122 127 133 135 130 123 110  99 101  96  67  55  52  63  66 105 133 116 109 105  98  91  91  89  88  84  80  91 100  87 101 111 119 112 129 137 142 145 141 134 133 138 129 116 115 118  91 100  81  51  23  15  38  62  74  77  69  42  60  75  68  62  97  90 114 106 137 117 121 102 110 107 116 120 121 127 136 140 172 239 221 225 216 218 217 214 223 222
 106 110 113 115 122 128 132 136 134 128 115 103  91  93  80  55  50  43  57 135 138 128 123 119 122 119 122 113  87  85  70 112 116 108 121 104 114 125 128 133 143 133 124 126 127 137 133 117 120 125 127 104  89  35  38  19  26  51  61  66  73  46  50  64  57  83  87  99 125 115 128 109 123 108 103 111 120 124 124 128 133 145 161 234 219 214 210 210 210 218 223 182
 109 115 121 122 127 132 133 138 135 131 117 105  89  87  83  75  49  38 108 165 141 133 124 125 131 130 133 107 101  88 107 106 116 130 129 114 113 119 112 124 138 127 119 118 134 119 124 152 127 134 126 131  82  46  39  25  31  52  47  82  62  59  42  78  50  99  82 112 117 107 120 124 118 113 104 118 123 121 121 133 138 138 152 226 219 209 215 213 221 219 187 170
 118 122 131 133 134 137 138 141 138 131 118 105  92  84  84  90  45  81 155 145 159 135 128 137 132 127 121  97 110  97 120  93 113 136 118 112 121 113 118 132 120 143 113 109 133 116 111 117 150 107 138 137 106  63  42  45  39  45  58  69  58  92  66  57  70  98  99 108 109 119 121 132 115 112 104 123 120 115 119 134 130 145 142 194 234 220 225 170 177 165 163 116
 121 126 132 138 140 140 140 140 140 133 116 104  87  82  76  94  65 141 149 173 137 145 148 148 146 127 110  98 114 100  93 105 105 104 101 132 113 112 139 149 138 129 129 129 134 119 118 120 128 114 109 145 114  78  58  25  56  32  40  63  80  62  72  61  66 108  72 117 120 122 128 118 109  95 112 118 115 109 117 130 133 135 144 192 232 206 167  67 131 169 177 104
 122 127 133 142 146 144 143 141 138 132 117 106  88  78  74 104  91 115 157 149 144 141 148 158 140 114 101 104 111 106 109 107 123 111 101 117 130 126 136 133 138 123 114 137 130 107 123 126 112 143 108 106 110  49  61  29  34  40  44  71  69  49  61  64  81 109  98 114 114 125 124 114 104 110 123 110 111 111 121 132 127 130 154 163 246 202 154 115 142 138 141 114
 122 126 133 142 146 147 145 142 134 125 114 106  91  84  84  99  94 116 143 134 128 155 150 161 145 127 109 111  90 120 114 119 109  95  99 136 133 130 101 128 141 142 135 126 144 107 115 111 140 129 102  92  86  73  56  17  26  55  48  59  44  51  58  63  64  93  92 112 116 130 102 100  97 102 120 102 110 118 125 126 139 138 151 163 200 217 100 178 164  82 105 170
 121 125 133 141 145 147 147 144 138 126 114  99  96  86  87  84  98 126 136 119 145 164 154 157 149 109 116 121 104 123  98 102  86  89 111 139 115 113 132 117 125 135 160 146 121 100 107 120 112 116  98  96  71  77  33  19  45  41  43  46  48  48  46  73  68  77  97 107 112 120 109  89  87 101 103 104 109 118 126 125 137 137  93 122 159 218 211 215 179 184 169 161
 120 124 130 137 142 146 145 142 135 125 111  96  98  88  88  88  89 123 136 135 155 155 166 153 137  97 123 127 100  91  96  85 102  89 125 121 116 123 120  95 148 138 150 153 104 117 104 100  96 114  87  68  63  71  47  39  51  35  54  44  48  49  64  88  90  71  79  98 114 100  95  85 102 107 100 105 109 121 117 102  61  26   9   9   8  55  97 190 198 166 139  99
 121 124 129 137 142 145 141 137 130 121 107  97  94  89  86  89  88 105 134 160 158 153 152 152 136 132 134 107  77  76  80  81  79  86 123 108 101 123 115 114 128 138 140 135 114 130 100 116 121  96  82  66  66  52  41  38  37  40  51  54  61  55  64  88 100 101 105  91 116  87  85  98 105  99  95 105  87  66  28   3  16  15  11  17  29 121 191 200 212  80  70  35
 118 123 129 137 141 144 143 139 133 122 107  95  91  87  85  87  92 101 116 155 147 153 155 158 125 124 129 108  75  77  74  71  48  79  79 105  86 119  99 114 131 114 128 143 130 119 133  99  82  88  78  63  76  48  53  41  50  38  56  63  52  62  66  66  85  75  93  84  83  85  95 108  97  79  60  36  13   5   9  11  11  19  32  38  49  51  85 122 109  61   9  20
 112 120 127 133 139 142 141 138 131 120 107  93  90  84  87  90  94 101 115 138 148 133 150 132 137 110 106 102  61  94  56  76  51  98  75  84  89  70 108 116 139 134 146 127 132  90 121  78  77  81  99  50  76  35  40  45  32  52  57  67  69  71  69  80  69  83  86  89  75  87 115 104  66  27   8   8  12  14  20  22  27  29  19  17  16   0  86 124  93  52  19  64
 106 117 122 131 135 137 143 138 132 118 105  90  84  83  88  92  99 107 117 121 142 123 128 135 129 105 108 107  90  81  76  76  55  77  71  88  62  87 101 114 111 109 129 105 127  99 102  77  71  86  59  54  70  53  49  40  35  51  66  86  79  87  67  89  67  75  86  78  82 101 114  65  13   2  15  11  18  28  24  24  16  10  25  24   0  92 150  80 121  85  34  78
 106 115 127 138 141 141 140 137 128 119 106  88  80  78  87  89  94 107 112 121 125 140 111 124 117 106 113 115  93  70  71  55  61  66  51  58  73  61  93 102  99  92  98  76  86  88  88  73  71  76  57  45  45  52  40  45  41  58  65  82  88  66  78  87  65  74  68  72  91 100  68  13   6  19  23  24  19  17  16  14  18  13   8  13 141 166 129  89 163 165  71 104
 104 115 128 139 140 140 138 134 126 120 107  90  74  78  83  96  99 103 108 113 117 124 115 122 115 104 118 112  92  87  63  53  61  30  36  36  51  56  95  65 100 101  81  56  81  61  70  52  49  38  37  42  45  42  45  44  44  66  72  72  84  70  70  64  63  48  40  49  55  47  18  16  27  17  20  18  15  13  13   9   9  20  11  84 123 121  60 127 133 112  48  98
 100 112 125 135 137 139 137 131 124 118 106  89  75  74  71  83  84  99 109 110 118 119 126 108  96 108  95  82  84  76  59  58  49  38  24  30  25  27  53  68  86  91  70  55  60  75  62  44  45  44  40  52  50  46  50  57  58  61  62  73  60  61  57  41  33  10  10  13  17  16  22  12   8  20  11  12  12  10   8   7  14   7  58 134 117  69  11  71  75  48  94  89
  96 111 123 134 139 138 137 129 120 114 101  90  72  79 111 116 115 102  98 104 112 113 126 160 150 116  95  92  80  71  80  73  48  46  26  26  25  25  37  47  47  66  55  42  48  54  53  30  42  42  38  47  49  57  61  53  53  62  48  39  30  26  14   9  14  15  19  19  13  16   9  16  19   7  10  11  10   7   8  13  13  23  32 125 145 141  47  58  13  50  59   0
  95 111 126 136 139 140 138 126 116 108  97  85  71  93 114 109 111 111 126 127 111 115 128 167 151 116 131 106  93  70  67  71  54  40  37  36  40  36  34  39  48  53  56  45  33  42  43  33  46  46  52  53  54  52  55  52  41  35  23  16  11  12  19  18  16  18  17  17  16  15  16  10   6  10  11   8   7  10  11  19  24  21  35  52  73  78  95  79  27  42   9  11
 101 113 125 135 138 137 135 127 116 102  91  86  97 110  88  90 106 119 173 174 154 121 166 185  97 158 188 134 109  91  81  62  69  53  42  43  39  39  34  41  34  45  46  41  38  43  42  37  45  45  46  42  38  38  30  15   9   7   9  13  13  14  19  17  17  15  15  15  13  14  15  12   8   8   7   8  12  16  16  22  14   8  16  27 114 157 126 105  49  29   7   7
 109 115 120 131 135 136 133 127 117 104 101 113 112 147 154 110 127 112 117 150 145 140 170 105 164 204  98 134 134 103  81  79  87  60  57  47  35  35  33  38  34  43  37  32  47  39  39  41  46  48  50  38  28  12   3   6   8  12  11  13  13  16  17  15  15  15  14  11  11  13  11   8   8   6  10  13  18  20  23  12  13  17  15   8  91 127  32 170  74  11   0  12
 111 117 126 132 135 135 134 126 115 101  94 102  78  90 129 124 123  90  87  96 178 168 108 117 227 168  25  88 122 110  77  84  82  67  58  51  44  42  45  30  30  29  42  45  41  32  28  29  34  34  26  10   2   5   7   9  14  13  13  10  11  12  12  12  11  11  11  11  10   7   8   8  12  14  10  17  17  15  14  16  19  16  21  49 163 114  58 141 132 127  82  27
 111 119 128 130 137 139 132 123 111  98  93 110 136 131 136 129 120 117 116  87 139 141  97 191 169  70   2  50 121 100 119 101  79  63  58  57  57  48  38  29  42  40  43  45  44  32  38  46  26  10   4   1   6   9  13  15  15  13  11   8  11  11  10  11   7   6   6   6   6   5   7  10  14  17  13  17  18  22  20  21  23   9  17  50  70  72  24  63  67 116 123 109
 111 120 130 135 147 161 166 154 138 120 133 120 118 126 139 120 100 106  70  46  39  51 188 122  28  12  17  16 118 115 104 114  98  75  67  70  60  48  43  36  42  38  37  42  44  52  51  20   3   4   3   5   9   9  10  11  12  10  10   9  10  11   8   5   7   5   5   8   3   5  13  15  16  16  17  18  19  21  24  31  18   8   8   9  81  26  30  17  32  82  22  81
