P2
# Generated by OpenCV 4.2.0
92 112
255
   0   0   0   0   0   0   0   0   0   0   0   0   0   0   0   0   0   0   0   0   0   0   0   0   0   0   0   0   0   0   0  17  45  68  61  71  53  45  44  36  36  42  42  37  55  69  69  51  40  60  64  46  56  62  29  34  35  41  33  38  37  37  42  54  79  67  44  43  40  35  31  26  21  16  11   9   7   2   0   0   0   0   0   0   0   0   0   0   0   0   0   0
   0   0   0   0   0   0   0   0   0   0   0   0   0   0   0   0   0   1   0   0   0   0   0   0   0   0   0   0   0  11  25  48  54  58  57  46  38  49  51  49  54  51  60  62  54  67  69  57  50  49  59  54  57  54  37  42  47  53  50  44  45  50  62  59  61  50  44  41  38  34  31  25  22  16  11   9   6   2   0   0   0   0   0   0   0   0   0   0   0   0   0   0
   0   0   0   0   0   0   0   0   0   0   0   0   0   0   0   0   0   0   0   0   0   0   0   0   0   0   0   6  28  42  51  42  36  36  30  39  47  54  66  73  77  58  61  60  53  60  63  64  68  64  55  52  42  39  41  50  57  46  40  44  47  45  44  36  38  39  42  41  37  33  29  25  20  16  10   9   7   3   0   0   0   0   0   0   0   0   0   0   0   0   0   0
   0   0   0   0   0   0   0   0   0   0   0   0   0   0   0   0   0   0   0   0   0   0   0   0   0   1  17  39  41  34  37  35  34  50  44  51  62  63  65  78  79  79  74  63  53  68  70  77  88  72  71  62  42  50  56  68  61  46  34  33  45  40  45  49  39  36  39  39  35  32  27  23  19  14   9   8   6   3   0   0   0   0   0   0   0   0   0   0   0   0   0   0
   0   0   0   0   0   0   0   0   0   0   0   0   0   0   0   0   0   0   0   0   0   0   0   0   2  21  36  29  30  39  44  46  43  61  59  63  73  78  78  74  65  71  83  69  60  71  74  73  66  66  69  63  62  73  70  63  60  56  60  50  40  38  34  43  44  42  51  48  44  34  26  24  18  13   8   8   5   1   0   0   0   0   0   0   0   0   0   0   0   0   0   0
   0   0   0   0   0   0   0   0   0   0   0   0   0   0   0   0   0   0   0   0   0   0   0  12  17  26  22  27  42  35  47  55  50  72  77  57  65  71  85  82  72  75  78  82  84  85  87  59  54  59  57  59  69  69  76  64  49  46  59  44  32  43  46  46  40  50  51  43  39  38  25  18  14  11   8   7   3   0   0   0   0   0   0   0   0   0   0   0   0   0   0   0
   0   0   0   0   0   0   0   0   0   0   0   0   0   0   0   0   0   0   0   0   0   1  17  26  27  21  27  35  45  38  47  57  62  86  90  60  76  85  86  78  70  74  89 110  95  71  69  66  68  72  72  61  60  57  59  51  43  42  45  40  40  39  36  38  29  38  41  36  48  45  39  31  14  11   8   4   1   0   0   0   0   0   0   0   0   0   0   0   0   0   0   0
   0   0   0   0   0   0   0   0   0   0   0   0   0   0   0   0   0   0   0   0   2  23  26  21  32  35  38  39  41  50  58  64  73  82  76  83  96 103  92  73  80  76  96 101  74  95  96  97  95  81  77  82  81  66  65  82  65  54  47  46  46  44  39  40  40  37  41  39  38  47  50  67  36  14   3   2   0   0   1   0   0   0   0   0   0   0   0   0   0   0   0   0
   0   0   0   0   0   0   0   0   0   0   0   0   0   0   0   0   0   0   0   0  25  30  17  33  25  43  48  47  52  65  61  77  84  84  77 100 106  99 112  95 102  87  86  79  88  92  98 102 101  97  94 100  95  88  78  62  58  59  46  43  48  46  42  52  37  30  40  43  41  57  60  66  52  19   3   3   1   0   1   0   0   0   0   0   0   0   0   0   0   0   0   0
   0   0   0   0   0   0   0   0   0   0   0   0   0   1   0   0   0   0   0  16  33  24  19  19  31  45  61  69  68  82  85  87  96  98  92 112 121 100 117 119 109  88  87  80  98  99 113 124 112 108 102 103 102  92  82  64  58  53  49  47  50  60  57  38  39  38  41  44  50  56  54  59  69  45  15   0   0   1   1   0   0   0   0   0   0   0   0   0   0   0   0   0
   0   0   0   0   0   0   0   0   0   0   0   0   0   0   0   0   0   0  17  30  22  24  28  31  40  55  62  84  77  87  95  80 102 119 119 114 118 120 133 128 108  93 121 110  99 109 133 151 145 134 125 116 107 102  86  79  75  77  79  79  68  66  48  35  39  44  52  52  44  45  50  51  73  66  46  29  14   8   4   0   0   0   0   0   0   0   0   0   0   0   0   0
   0   0   0   0   0   0   0   0   0   0   0   0   0   0   0   0   0   8  33  25  36  38  31  33  47  62  69  86  84  91  97  82  99 123 132 111 112 126 144 130 121 131 145 142 110 130 152 153 154 149 154 154 139 128 117  92  94  87  80  80  62  58  51  49  52  42  49  52  42  50  54  51  60  66  57  38  27  14   5   0   0   0   0   0   0   0   0   0   0   0   0   0
   0   0   0   0   0   0   0   0   0   0   0   0   0   0   0   0   0  18  28  34  44  30  42  55  71  84  97 106 104 102  90 101 110 124 124 120 119 114 123 137 134 137 144 141 141 145 162 162 167 170 164 169 162 157 149 126 119 102  93  81  68  54  58  66  60  59  69  63  46  48  59  76  71  61  59  39  21  17   9   0   0   0   0   0   0   0   0   0   0   0   0   0
   0   0   0   0   0   0   0   0   0   0   0   0   0   0   0   0  21  37  29  32  41  38  52  81 103 116 112 120 123  98  95 108 122 133 140 146 139 138 131 141 146 138 149 160 164 160 171 179 182 185 182 182 181 179 160 147 152 128 108  78  67  53  76  80  56  70  81  69  55  57  71 102  89  81  79  70  50  19   1   0   0   0   0   0   0   0   0   0   0   0   0   0
   0   0   0   0   0   0   0   0   0   0   0   0   0   0   0  12  34  35  28  31  49  66  95 119 131 134 112 121 135  97 107 106 110 118 135 137 143 146 144 152 160 159 162 179 176 171 176 184 188 193 189 190 191 183 171 166 165 131 113  97  75  71  73  63  54  80  84  60  65  62  54 101 102  91  92  74  78  62   9   0   2   1   0   0   0   0   0   0   0   0   0   0
   0   0   0   0   0   0   0   0   0   0   0   0   0   0   4  26  23  31  23  27  62  96 128 148 136 134 136 123 121  97 120 109 131 132 134 148 152 144 143 153 159 162 168 182 189 186 184 190 193 193 194 196 196 188 187 179 175 149 120 114  84  75  62  44  59  86 101  77  74  84  64  80 107  94  94 116 106 104  58  16   4   1   0   0   1   0   0   0   0   0   0   0
   0   0   0   0   0   0   0   0   0   0   0   0   0   0  23  20  17  20  22  40 100 132 136 145 142 133 138 129 108 108 119 127 139 135 141 152 155 158 160 163 173 179 184 186 191 193 190 191 191 192 196 198 196 192 193 188 181 159 126 120  89  61  60  63  67  74  93  88  76  87  94 104 116 102  98 122 145 127  99  45  10   0   1   0   0   0   0   0   0   0   0   0
   0   0   0   0   0   0   0   0   0   0   0   0   3  14  23  11  20  23  35  90 131 147 144 140 148 140 133 128 129 130 127 138 147 152 153 167 182 187 185 186 190 192 194 196 196 195 191 192 193 194 195 197 196 196 198 191 182 162 133  98  82  66  76  91  62  64  89  78  85  80  86 123 135 126 115 106 137 138 120  76  14   0   0   0   0   0   0   0   0   0   0   0
   0   0   0   0   0   0   0   0   0   0   0   4  10  20  18  23  24  32  76 131 137 143 146 146 151 130 131 141 152 148 142 160 176 173 181 190 195 199 197 196 197 196 196 199 196 191 193 196 195 196 197 198 198 198 198 192 177 152 128 106  98  87  95  95  70  74  84  74 109 112 100 109 142 149 147 126 144 141 130 120  40   3   2   1   0   0   1   0   0   0   0   0
   0   0   0   0   0   0   0   1   0   0   0  10  20  23  22  21  27  60 120 138 136 145 153 159 143 131 146 153 164 165 166 176 181 189 201 200 200 201 201 203 202 199 198 199 197 195 195 195 196 196 194 195 196 197 198 194 173 145 133 117 120 106 101  76  73  90 101 106 107 118 116 116 125 149 165 149 147 150 135 140  96  17   0   0   0   0   0   0   0   0   0   0
   0   0   0   0   0   0   0   0   0   0   0  21  39  35  39  30  43 107 145 143 147 144 156 155 137 138 150 155 168 175 180 186 193 200 203 204 205 202 204 204 203 203 201 200 200 197 195 196 198 197 194 195 194 196 197 188 173 165 159 150 131 119 107  76  82  91 104 118 125 132 123 123 133 132 140 161 151 137 131 127 130  44   9   1   0   0   0   0   0   0   0   0
   0   0   0   0   0   0   0   0   0   0  24  45  50  39  44  48  91 135 145 152 156 144 149 149 150 155 154 170 178 182 183 192 198 199 200 207 203 201 203 204 200 198 201 201 197 198 196 197 198 198 195 194 193 195 194 183 180 175 176 164 152 135 120  98  88  94  99 117 133 151 151 134 154 144 132 156 166 145 123 120 114  75   7   2   0   0   0   0   0   0   0   0
   0   0   0   0   0   0   1   4   2  27  56  44  51  52  53  75 120 135 145 151 151 151 149 154 161 159 165 176 185 187 193 194 199 200 204 204 202 200 201 200 200 196 197 201 200 200 199 198 199 198 194 190 191 193 194 188 184 183 184 174 166 147 130 123 106 113 113 115 117 159 169 159 153 167 150 147 143 153 134 126 112 100  37   3   0   0   0   0   0   0   0   0
   0   0   0   0   1   0   3   9  10  48  50  52  60  65  75 111 124 134 145 152 154 152 157 163 167 173 173 182 189 190 194 197 198 199 201 200 199 198 198 198 198 198 198 200 200 198 199 198 197 198 195 193 195 196 195 191 190 192 192 189 176 148 138 130 118 120 126 133 124 150 163 164 168 169 169 161 142 158 155 127 117 119 100  20   0   0   0   0   0   0   0   0
   0   0   0   1   1   0   0   5  27  57  60  68  75  84 109 131 127 137 146 151 149 156 171 173 174 183 182 186 189 192 192 196 199 200 202 199 199 198 198 200 200 198 197 199 198 197 198 196 199 200 198 197 197 196 196 194 197 199 199 193 180 166 147 134 123 125 133 134 135 136 159 161 173 157 161 169 155 153 158 127 114 120 121  56   6   0   0   0   0   1   0   0
   0   0   1   0   0   0   2  15  29  73  86  82  83  95 121 129 132 144 148 151 157 171 178 179 183 186 189 189 189 193 195 197 200 200 199 200 202 201 201 200 200 199 198 199 198 197 198 198 196 199 200 199 199 196 197 197 198 202 200 193 188 187 167 150 144 134 128 132 148 141 148 161 163 155 141 158 156 139 149 141 126 128 126  98  20   0   0   0   0   0   0   0
   0   0   0   0   0   0   1   4  65  87  73  78  88 107 125 125 138 146 150 157 166 176 180 183 184 186 188 190 193 193 195 199 201 200 200 202 205 204 202 201 201 201 200 199 201 201 201 199 196 196 199 198 197 199 198 195 194 197 196 196 196 189 181 168 157 151 135 143 154 157 153 157 148 151 149 147 149 141 141 152 140 124 139 125  40   0   0   0   1   0   0   0
   0   0   0   0   0   1   1  38  91  88  80  78  97 126 122 130 141 146 156 165 174 180 181 185 185 188 192 191 191 191 196 198 199 199 201 204 205 202 203 202 201 200 199 200 203 202 199 198 197 196 197 199 199 196 195 195 195 195 193 196 197 192 194 184 166 163 151 140 145 152 163 150 149 132 127 133 129 124 135 143 147 130 129 134  51   3   0   0   0   0   0   0
   0   0   0   0   0   3  13  53  75  65  61  77 113 127 121 137 143 151 162 173 178 181 184 188 187 186 189 190 192 194 196 198 201 200 203 205 205 204 204 203 202 201 201 201 200 203 200 198 198 197 195 198 198 198 197 198 197 199 196 195 197 196 197 193 179 173 172 147 144 144 159 139 128 120 108 122 127 114 106 126 124 136 129 126  65   6   0   0   0   0   0   0
   0   0   0   0   0   1  21  42  46  37  39  67 113 118 125 139 144 158 168 173 178 185 188 189 187 187 188 190 193 196 198 201 201 202 205 205 205 204 204 205 204 203 202 203 201 203 205 201 201 198 195 197 196 198 198 198 195 195 195 198 200 196 195 198 192 173 174 157 141 143 147 135 124 114 103 109 121 127 105 113 114 136 142 108  44   8   0   1   0   2   5   5
   0   0   0   0   0   1  10  21  33  27  34  80 115 117 126 137 150 164 170 175 182 186 189 189 187 190 191 190 193 196 199 202 204 207 207 206 206 205 205 206 206 207 206 206 205 205 205 204 203 202 198 197 197 197 198 197 194 193 196 196 195 197 196 198 194 181 172 168 153 139 138 127 140 147 129 114 117 109 103 121 117 131 146 138  60  11  14  18  24  40  58  72
   0   0   0   0   0   0   6  25  25  31  41  94 114 120 131 139 153 163 169 177 185 187 187 187 190 192 193 192 192 196 201 206 209 210 209 208 208 209 208 207 208 211 211 209 205 203 203 204 206 203 202 198 198 199 200 196 194 194 193 193 195 195 198 198 198 193 181 176 166 151 144 125 129 146 133 123 117 116 106 113 122 125 145 143 101  60  55  56  64  81 101 123
   0   0   0   1   0   0   5  22  19  18  43 101 114 120 128 142 152 160 171 178 183 184 186 188 191 192 196 194 193 198 201 205 210 213 210 209 213 213 211 208 211 212 211 211 210 207 208 206 207 204 199 200 199 200 200 198 190 191 190 193 194 198 199 198 197 194 190 184 171 160 156 145 130 134 137 133 125 114 126 104 111 122 130 141 121  94  89  90  96 107 121 137
   0   0   0   0   0   0   1  22  27  17  64 110 115 120 127 141 149 159 171 179 183 186 189 191 191 193 197 193 195 198 198 203 207 214 211 210 210 213 207 210 213 214 213 210 210 211 214 211 206 205 201 202 201 198 197 198 193 188 194 191 193 195 196 197 196 191 187 184 175 168 159 158 152 145 138 128 128 116 127 101 110 125 129 132 132 120 112 111 114 122 133 146
   0   0   0   0   0   0   0  25  33  34  93 111 116 121 128 141 144 155 171 180 185 187 189 192 194 192 194 193 196 196 196 202 203 207 210 209 206 207 206 210 211 210 211 210 212 216 211 209 208 205 202 199 198 199 198 192 193 192 193 192 193 194 194 201 202 197 187 181 175 170 166 157 150 149 140 124 115 118 126  94 105 125 130 122 133 132 128 125 126 130 139 152
   0   0   1   0   0   0   1  22  31  52 110 110 118 119 131 143 141 154 171 179 184 189 191 193 197 193 193 193 195 197 197 198 200 202 207 209 205 206 209 210 207 208 208 208 211 213 210 209 207 203 200 200 200 199 197 193 192 193 193 189 191 197 199 196 196 198 190 180 178 169 164 162 151 143 139 137 134 124 119 111  98 107 132 119 132 143 136 132 129 132 139 152
   0   0   0   0   0   0   5  29  24  58 117 111 117 119 134 144 146 161 173 178 183 188 190 193 197 198 195 193 193 195 197 199 203 201 203 202 202 203 207 208 206 208 204 203 206 209 208 208 205 203 200 200 198 196 197 195 193 190 190 190 193 196 198 196 193 193 192 178 173 176 162 161 159 145 138 137 129 132 119  89  78 103 125 118 111 139 139 127 120 121 133 147
   0   0   0   0   0   0   2  21  22  72 117 109 116 119 132 143 150 163 172 179 180 185 189 193 195 196 196 193 192 196 198 199 199 200 201 201 202 201 202 204 208 205 203 201 203 205 204 203 203 204 202 200 198 198 197 195 191 191 190 188 191 196 199 195 189 191 185 176 168 174 163 156 158 147 135 139 139 115  98  81  68  93 118 126 107 127 136 116  97  96 114 130
   0   0   0   1   0   0   0   7  22  80 114 110 114 118 131 142 149 161 170 179 182 185 189 193 195 195 194 193 192 193 196 198 201 202 205 206 200 200 203 203 203 202 197 201 204 202 202 201 200 202 201 201 200 198 195 193 190 189 190 192 193 197 195 194 192 193 189 179 176 172 166 151 155 150 141 130 134 119 103  86  82  69  78 113 117 121 117  98  88  96  99 107
   0   0   0   0   0   0   1   5  28  93 114 106 117 119 130 138 145 159 168 176 184 188 188 189 193 194 195 195 194 191 194 198 199 197 198 204 198 197 197 202 202 200 198 199 200 197 199 199 200 202 201 202 200 196 195 194 191 190 191 194 193 196 195 191 189 193 193 188 184 172 166 154 152 147 137 128 119 122 118  98  96  41  54 132 162 144 105  91 100 112 107 106
   1   0   0   0   1   2   2   4  27  95 112 101 120 122 130 139 146 154 160 170 181 185 188 188 192 194 194 194 195 190 191 193 194 198 196 200 200 198 197 200 200 196 196 199 196 195 196 196 199 200 198 197 196 196 196 194 190 188 189 190 194 196 195 190 190 191 185 187 180 165 169 169 158 138 135 133 127 129 124 103 105  86 163 199 197 192 157 106 104 116 117 116
   0   0   0   0   1   0   0   5  30  95 109 100 121 124 130 136 147 155 158 162 174 186 189 189 190 191 195 194 196 193 190 192 193 197 196 199 198 197 196 198 200 199 203 201 200 200 200 200 201 199 200 200 201 196 191 188 187 185 182 188 196 196 192 192 192 191 188 184 175 157 161 166 149 141 135 140 140 128 115 122 129 183 205 193 192 185 182 141 107 116 119 120
   0   0   0   0   0   0   0   9  28  91 111 100 120 123 132 139 142 155 164 159 172 186 191 189 189 192 192 190 192 192 191 190 193 195 195 197 198 194 197 199 200 199 201 201 199 200 199 200 200 201 201 199 196 191 190 190 191 188 184 189 195 193 189 190 190 189 187 185 174 162 152 149 156 134 130 129 132 123 117 142 176 206 199 186 136 114 144 155 123 120 122 125
   1   0   0   0   0   0   1  12  26  80 112  95 116 126 130 145 152 157 162 164 168 178 188 188 189 194 196 192 195 196 194 192 190 192 194 194 195 199 198 199 199 198 200 198 195 197 200 201 201 198 196 196 195 194 196 197 194 189 189 191 194 192 191 191 188 187 188 185 180 168 149 134 151 140 124 129 136 122 132 169 202 204 186 123  49  33  80 158 138 120 124 127
   0   0   0   0   0   0   0  10  21  74 111  96 110 125 122 139 156 164 163 163 169 175 182 188 188 194 198 194 195 200 197 193 195 196 195 195 199 199 196 201 200 197 201 201 203 202 201 197 199 200 203 203 202 197 194 193 190 189 188 189 192 189 191 190 187 185 185 182 181 176 157 131 133 140 122 121 136 132 145 181 201 190 151 144 141  73  53 149 151 122 129 127
   0   0   0   0   0   0   0   6  20  67 109  98 107 131 130 132 143 151 161 159 169 177 182 189 188 191 197 195 194 196 197 191 192 195 193 189 197 199 201 206 201 202 205 203 200 196 197 203 203 202 200 202 200 197 192 187 185 185 188 189 190 190 191 187 185 182 180 181 181 178 160 130 117 124 123 129 128 146 153 183 193 159 150 181 176 138  94 168 165 118 127 126
   0   0   0   0   0   0   0   2  11  54 100  99 114 134 148 157 163 164 160 161 168 175 182 187 185 189 196 195 192 193 196 193 194 193 190 186 192 197 202 203 200 200 199 198 197 198 203 203 202 201 202 206 204 200 198 190 185 185 185 187 188 189 188 184 181 183 183 181 179 172 153 127 116 124 128 140 131 150 174 187 176 160 165 182 178 164 128 162 175 116 124 127
   0   0   0   0   0   0   0   0   6  39  93  96 104 126 139 151 168 182 175 175 181 184 185 189 188 194 199 197 195 192 196 196 196 195 190 187 190 196 199 198 198 199 199 203 201 196 197 199 199 197 198 200 203 200 193 191 186 186 185 186 185 186 185 179 182 186 184 178 176 176 155 123 127 150 134 135 133 160 193 181 178 183 188 189 191 179 143 155 176 120 120 124
   0   0   0   0   0   0   0   0   1  24  80  89  87 102 117 128 143 161 172 170 178 186 187 192 192 192 198 198 195 188 186 190 196 192 187 184 184 192 197 198 199 196 196 200 195 191 192 196 200 197 195 194 195 192 189 191 187 179 183 185 186 187 186 184 183 184 182 179 180 178 158 129 136 151 147 129 130 175 187 180 184 183 189 196 200 193 173 164 176 117 107 111
   0   0   0   0   0   0   0   0   0   7  72  90  91 109 126 136 144 155 163 161 165 184 191 195 196 191 196 195 195 191 188 193 197 192 186 186 190 196 199 195 191 192 194 192 190 193 201 200 192 189 191 192 181 172 176 169 173 181 180 187 187 187 188 190 184 183 181 180 181 176 161 136 130 142 145 132 152 183 181 173 170 189 202 202 196 189 185 176 181 109  88  94
   0   0   0   0   0   0   0   0   0   0  54  96  95 112 134 152 149 148 162 173 165 171 181 191 198 193 193 195 197 200 192 193 198 192 187 188 190 195 193 190 189 189 190 188 199 205 202 193 181 176 173 154 152 159 168 169 160 164 181 183 183 185 187 186 183 184 183 182 177 179 167 143 143 137 130 123 164 184 171 162 136 138 180 180 181 189 184 180 184 110  74  81
   0   0   0   0   0   0   0   0   0   0  32  94  93 115 130 139 147 139 132 154 174 170 171 182 196 197 193 194 193 199 189 185 196 191 186 186 186 190 189 186 188 187 187 196 203 198 184 171 158 140 124 123 121 123 128 143 173 174 175 182 177 180 187 182 181 183 185 181 183 183 176 156 144 133 125 127 167 182 164 155  86  52 100 120 158 189 184 177 186 117  54  65
   0   0   0   0   0   0   0   0   0   0  19  87  95 105 121 148 154 157 146 137 152 158 160 162 191 200 196 196 194 195 192 182 195 196 192 190 185 183 184 183 185 188 194 198 187 170 135 113 111 125 158 170 160 164 160 158 166 184 180 176 177 178 178 178 182 184 183 181 185 183 185 164 142 134 131 127 164 179 167 158  59  37  77  97 136 184 185 177 192 125  36  50
   0   0   0   0   0   0   0   0   0   0  12  83  91 102 141 161 156 160 161 161 159 154 148 144 162 190 194 190 191 194 197 177 189 198 196 193 187 181 182 186 192 194 187 175 148 136 114 101 130 170 189 187 190 192 190 180 170 172 177 173 170 178 174 177 182 182 182 184 187 184 186 170 145 143 142 135 162 178 174 187 112  71  75  93 128 168 187 181 192 126  18  29
   0   0   0   0   0   0   0   0   0   0   3  72  92 104 128 138 135 137 142 151 164 170 158 137 133 163 186 187 184 187 194 175 163 187 190 192 187 184 188 195 197 187 166 137 114  93 106 145 178 188 183 173 166 169 181 176 175 167 162 166 166 170 175 178 181 184 185 186 187 186 182 169 146 144 143 126 150 178 178 198 199 175 148 136 150 165 187 182 192 129   4   9
   0   0   0   0   0   0   0   0   0   0   0  57  86  91  92  84  97 107 107 110 128 158 170 157 130 135 161 178 178 174 184 195 153 160 181 183 181 188 190 186 180 150 123  92  79  92 135 172 182 170 160 166 171 163 164 174 158 145 156 161 169 171 176 180 186 186 187 185 186 188 179 176 148 137 148 126 149 177 178 195 197 185 180 180 175 179 186 178 196 135   4   6
   1   0   0   0   0   0   0   0   0   0   0  56  78  72  50  46  72  81  72  81  91 115 145 158 152 134 127 141 158 153 161 189 183 136 150 157 158 167 162 140 119  98  76  54  92 143 171 182 177 170 177 185 185 173 148 164 173 150 146 161 172 180 177 180 187 188 191 190 189 187 187 180 154 133 133 133 147 171 176 195 203 184 184 191 189 195 182 176 197 133   8   8
   6   4   4   3   2   2   3   2   2   0   6  54  72  57  39  61  89  92  66  70  93  94  88 111 130 124 108  98 108 113 113 164 191 164 135 136 118 102  91  80  70  56  51  91 131 146 145 123  91  68  68  47  48  65  82  90 150 168 164 167 178 185 184 186 190 192 193 192 185 189 188 180 162 144 137 132 136 160 177 191 203 191 192 196 203 194 176 185 194 117   5  10
  12  10  10   8   7   8   8   7   6   4   4  40  67  48  59  98 114 122 118  94  74  74  71  68  68  66  65  66  63  64  90 147 185 194 169 148 120  82  64  57  51  51  72  93  79  54  25  13   6   2  30  60  82 146 128 120 132 164 182 184 185 183 189 190 191 193 191 192 188 188 184 181 177 167 153 132 138 152 179 183 194 185 194 207 203 190 190 197 192  89   1   5
  17  16  15  14  14  14  14  12  12  10   8  38  69  46  61  95  79  90 112 106  85  59  48  40  29  24  24  31  32  52 112 150 179 193 195 171 135  94  54  43  53  67  65  45  36  30  69  90  85  91  94 114 152 193 188 181 172 166 178 188 190 186 192 193 190 193 191 191 187 184 181 184 182 169 153 130 145 155 167 179 188 166 185 211 197 195 199 198 182  50   0   5
  23  22  22  21  21  20  19  18  18  17  19  54  75  53  44  76  62  35  40  35  29  21  14  11   8   9  12  11  12  21  92 144 172 185 190 187 171 121  68  46  54  59  50  50  56  96 172 180 134 126 144 160 204 207 184 193 190 180 190 199 194 189 193 194 188 192 190 187 182 182 181 181 179 168 148 141 139 147 163 177 186 168 191 205 196 201 203 196 156  19   2   7
  28  27  28  27  27  26  24  24  24  22  26  55  82  71  44  47  27   1   2   6   3   0   0   1   4  10   7   7   7   5  67 161 188 201 205 204 190 157 139 110  69  73  85 116 148 172 187 189 183 171 192 200 194 182 177 180 169 180 190 194 191 191 195 193 190 191 188 187 184 182 180 180 176 161 136 156 156 128 153 177 182 199 206 197 196 200 203 193 104   3   5   8
  33  33  32  32  32  31  30  29  29  28  29  40  84  89  66  35   7  34  63  91  66  37  41  26  39  56  35  18  14  13  46 142 181 195 198 195 189 182 184 175 165 156 138 145 165 173 169 174 180 185 185 176 171 166 170 169 173 193 195 193 192 193 198 198 197 193 192 188 184 181 180 179 174 164 144 156 157 129 142 175 185 209 205 198 194 196 200 171  40   2   8   7
  39  38  38  37  36  36  35  34  34  33  33  36  76  97  83  60  15  97 135 131 135 112 104 128 153 141  99  73  67  61  66 150 187 197 205 204 192 185 192 189 186 164 150 124 121 135 148 159 160 156 155 153 154 160 165 165 186 196 194 190 190 188 194 198 194 193 191 186 183 179 178 181 174 159 152 162 157 137 137 176 196 206 203 194 193 197 192 110   4   5   7   7
  43  42  42  41  41  40  40  39  37  36  36  38  58  93  95  94  45  65 121 141 153 162 167 181 179 143  98  93  98  97 101 156 189 199 204 201 189 187 194 197 197 182 158 140 124 120 120 122 122 125 136 146 157 158 155 175 194 196 192 184 186 193 195 195 191 190 190 183 179 175 179 180 165 149 146 149 144 138 141 176 196 203 201 192 193 195 169  43   2   8   8  13
  46  47  46  46  45  45  43  43  41  40  39  33  47  86 103 104  84  65  78 109 135 146 145 144 141 124  89  96 109 115 120 155 190 201 201 196 190 188 194 198 196 198 178 156 146 132 112 104 117 128 138 147 152 158 181 200 199 200 193 189 196 199 196 193 193 190 187 180 177 174 181 180 171 156 143 145 140 140 138 172 197 201 194 187 186 180  89   7   9  11  17  31
  49  49  50  48  47  47  46  46  44  44  43  43  52  72 107 116 104  86  58  72  84 102 118 125 129 107  87  99 110 121 127 151 186 201 200 194 186 188 192 197 196 201 204 180 154 147 150 150 145 150 153 158 173 191 198 193 190 192 189 192 195 198 194 191 190 187 184 180 175 175 183 187 176 165 164 159 144 144 141 168 190 193 185 180 168 115  44  24  24  30  40  54
  49  49  49  47  48  48  46  47  47  46  49  58  55  67  99 116 104  97  61  38  56  67  88 111 108  91  88  97  97 122 120 139 185 197 196 189 184 189 195 198 196 198 209 209 188 167 157 163 169 174 184 189 191 190 189 189 189 187 186 188 195 193 188 190 189 184 183 179 172 172 180 183 175 161 150 156 151 151 151 166 170 156 165 152 138  97  56  53  52  58  68  79
  46  46  46  45  46  47  46  47  47  45  46  59  65  61  87 113 115  88  77  53  36  46  57  69  88  92  90  88 101 125 107 134 182 194 195 189 182 186 194 198 192 196 202 209 201 192 179 160 155 166 174 179 180 181 183 186 188 189 191 191 190 189 187 188 189 186 183 176 170 168 178 181 173 169 156 165 155 148 151 171 125  43  67 126 148 126  81  79  79  86  96 105
  44  44  43  43  44  44  44  45  46  47  48  53  67  62  75 108 117 103  93  87  71  56  60  79  96  91  86  90 114 117  98 134 184 197 207 197 175 179 188 192 191 193 197 200 198 195 193 184 165 157 165 171 173 173 177 187 189 191 196 197 194 192 189 186 186 186 184 173 165 168 177 175 172 166 172 172 164 157 155 171 124  12  56 153 154 134  93 103 104 107 116 125
  44  43  43  43  43  43  44  45  45  47  53  65  72  66  65  94 115 117 107 103 104 110 122 125 110  93  87  94 118 107  91 131 181 201 210 197 180 178 186 188 190 187 189 194 197 196 196 197 196 187 176 176 182 187 188 191 195 195 194 196 194 190 191 189 184 186 180 164 162 170 176 174 172 170 171 175 165 157 148 164 139  75 140 163 157 145  99 105 114 120 129 135
  44  43  43  44  44  44  45  46  46  51  59  70  83  69  63  79 111 117 107 103 112 119 126 122  99  82  83 104 119 104  87 119 172 197 206 197 180 176 184 189 187 189 185 188 193 192 195 198 201 204 201 194 197 201 202 196 192 190 194 196 195 190 190 188 186 185 176 161 167 170 165 174 172 173 174 166 154 146 143 158 160 161 162 160 157 151 105 101 112 120 129 136
  44  44  44  44  44  45  46  46  48  54  66  80 100  87  62  63  96 107 107 108 104 100  97  93  82  87 105 126 124 101  83 117 169 196 207 200 184 180 184 187 187 183 182 181 184 187 190 194 196 199 202 201 204 204 204 205 200 195 196 197 194 193 191 188 186 179 174 167 170 177 165 173 175 170 172 164 155 148 144 160 166 173 162 160 158 155 119  92 104 114 123 130
  43  44  44  45  44  44  46  46  50  60  77  95 112 117  67  54  68  97 108 106 108 113 108  99 107 121 136 138 133 103  76 113 169 196 205 198 186 183 182 185 180 171 168 162 162 168 182 190 190 194 196 199 202 204 205 207 206 203 200 199 196 193 187 186 187 182 174 166 165 168 168 176 178 176 167 168 160 153 140 157 164 175 165 160 159 153 122  82  89 100 111 117
  43  44  43  44  44  44  44  45  54  70  90 106 120 134 104  56  49  77  99 104 115 127 127 126 136 143 151 145 138 105  72 118 172 192 200 196 187 183 182 179 172 172 174 167 146 135 158 181 189 190 191 192 197 199 199 203 204 204 204 197 193 191 186 185 190 186 173 167 168 168 172 179 178 175 171 174 158 156 137 157 162 173 168 164 163 153 130  73  62  73  86  97
  42  41  41  42  43  43  43  48  63  80  98 112 125 141 140  75  46  60  88 102 114 126 128 136 144 150 152 144 138 111  98 146 173 189 198 201 190 180 181 176 174 182 187 185 168 141 120 140 174 184 189 192 193 196 196 198 198 201 199 193 190 190 190 190 189 183 175 165 168 170 166 167 179 177 170 167 161 159 146 156 155 165 169 167 167 156 136  62  34  44  56  70
  40  40  41  42  41  42  46  55  68  84 100 116 131 145 158  91  45  58  79 100 110 118 133 144 148 148 146 145 138 118 130 165 178 188 190 197 200 197 182 172 175 188 189 183 174 170 135 102 135 174 183 186 190 192 193 194 195 193 193 195 189 189 189 193 193 188 174 160 168 173 162 163 168 177 165 165 160 152 151 152 151 165 168 168 166 157 143  59  10  18  29  44
  38  39  40  41  41  43  48  55  69  89 108 123 137 150 164 123  49  62  77  97 109 123 136 145 148 148 147 146 138 120 142 169 180 182 181 190 204 207 187 173 173 184 190 185 180 169 170 150 112 135 173 187 190 193 192 191 193 192 192 194 192 192 191 192 190 188 171 147 150 167 170 166 169 171 162 168 164 156 161 151 142 163 166 167 164 152 154 129  10   6  16  26
  36  37  38  39  41  44  48  57  73  96 113 130 145 154 163 161  79  61  79  93 110 127 137 145 144 148 149 142 136 117 147 176 182 181 181 189 193 188 186 178 169 175 185 183 183 176 176 186 159 116 129 168 182 188 191 191 193 192 194 193 190 190 192 190 189 183 173 157 147 150 174 177 169 149 152 161 163 165 158 149 144 165 164 165 162 149 161 206 100   3  12  19
  33  34  34  35  38  40  46  62  85 106 123 137 150 158 163 171 123  51  83  95 110 126 133 140 141 145 145 142 133 104 136 173 189 187 182 187 188 180 176 167 157 168 184 182 179 168 181 197 197 172 124 126 165 180 185 191 192 190 192 193 191 188 186 186 180 177 166 157 143 136 161 171 171 155 144 164 164 151 146 142 139 162 161 165 157 148 181 215 197  57   8  18
  29  29  29  30  32  35  49  74  98 115 131 144 154 160 164 172 153  57  79  99 110 120 130 138 143 143 140 137 125  96 108 163 181 182 183 181 182 171 150 133 140 160 165 144 126 151 184 198 199 199 184 134 126 159 177 183 187 188 189 191 186 181 173 175 174 174 163 148 150 149 154 170 164 164 157 167 162 151 158 140 142 166 161 168 160 155 208 219 221 158  28  17
  23  24  24  24  24  35  61  89 107 122 136 148 157 162 167 172 173  91  65  96 105 120 131 136 140 139 135 124 116 128  90 116 169 169 173 176 160 130 113 105  96  74  52  43 100 172 185 192 197 199 203 189 143 129 156 175 181 185 184 182 177 172 166 162 169 167 157 145 139 145 158 152 156 158 157 175 171 163 163 134 153 166 158 169 155 178 229 230 228 215  93  18
  18  18  17  16  21  44  75 100 117 130 143 151 159 165 170 173 175 135  64  86 100 119 128 132 133 134 131 122 126 149 139  78 104 132 135 150 141 123  77  33  12  23  68 121 161 170 186 193 193 196 194 196 187 153 135 155 171 179 181 178 170 170 166 144 150 152 143 142 153 143 156 153 137 151 156 173 176 155 162 147 152 162 159 166 163 213 236 236 232 230 156  31
   9  10  10  10  24  56  87 110 126 140 150 158 163 170 173 175 174 171  80  69  93 109 120 125 131 130 125 125 141 149 145 110  35  54  59  81 115 102  18   9  60 113 151 161 154 171 178 190 191 185 183 187 187 182 163 138 151 164 176 177 171 163 154 143 135 138 136 144 140 150 142 153 143 148 161 175 166 159 162 150 153 159 163 163 188 236 238 238 232 236 178  38
   4   4   4   8  32  67  96 118 135 148 158 164 169 172 175 176 175 174 106  53  85 101 112 118 119 121 117 134 141 139 136 115  44   9  18  22  52  40  13  59 110 121 143 149 163 172 175 184 187 165 174 173 168 165 168 161 140 148 159 169 172 160 148 131 115 125 133 146 150 149 133 134 136 152 169 176 159 164 157 152 161 156 165 174 223 241 240 239 234 242 160  30
   1   1   1  11  43  80 108 128 144 156 164 168 171 175 177 176 172 170 136  59  66  84 105 108 106 110 114 126 119 122 118 115  73   4   0   1   1  21  66  86 111 134 146 161 169 173 178 168 179 167 151 163 155 141 147 169 149 142 152 155 155 160 160 134  96 121 150 151 157 149 139 133 136 172 169 164 157 164 161 156 161 156 166 211 240 241 242 238 238 241 116  22
   1   0   1  18  55  93 119 137 151 160 166 169 173 176 177 175 171 168 167  92  45  58  79 100 105 102 108 100 102 113 102  98  85  15   1   4  39  84  75  91 121 140 153 165 165 169 175 167 167 163 159 164 147 129 132 155 156 118 145 168 153 149 154 126 100 126 150 149 160 153 136 130 126 164 165 161 162 164 162 152 159 159 185 235 239 243 244 240 243 223  70  25
   1   0   3  26  66 103 126 143 155 162 166 170 173 177 175 173 170 167 168 130  40  38  58  89  94  83  94  87  88  99  85  92  91  31   8  46  91  70  54  85 121 136 152 151 167 168 167 157 151 148 129 130 111  87 102 122 139 127 117 155 175 156 143 124 105 123 142 150 141 135 130 137 134 153 179 162 164 163 154 151 152 162 219 241 242 245 242 241 248 183  38  30
   1   2   6  35  75 109 130 146 156 162 165 168 171 172 172 170 167 164 161 158  73  23  41  77  72  68  83  81  65  81  84  94  81  58  51  56  70  70  36  69 111 131 142 135 149 154 147 128 111 125  95  62  46  48  51  67  90 112 124 148 165 163 146 125 116 124 136 143 149 141 128 144 166 166 174 159 168 164 155 163 152 193 239 241 245 245 244 244 248 121  28  31
   1   1   8  40  79 110 131 146 155 160 162 165 166 166 165 164 161 158 156 157 116  14  20  40  49  62  61  47  31  35  50  60  49  58  64  49  65  75  38  51  90 121 137 124 134 132 122  97  66  69  90  89  50  30  26  23  47 102 128 146 159 163 157 135 130 131 142 146 169 142 119 155 155 158 161 167 168 160 159 154 175 232 240 242 244 244 245 250 219  60  33  33
   1   2  10  42  80 109 129 143 152 155 157 156 159 158 157 154 152 152 149 146 143  58   8  15  43  57  52  34  14   6   9   9  20  30  42  59  59  70  54  57  65  70  79  91  84  80  98 107 113 145 160 165 163 149 139 123 105 118 150 152 159 164 140 123 127 138 157 162 151 124 123 154 157 161 157 178 175 164 163 164 219 241 241 243 243 245 246 254 155  31  38  33
   1   2  10  40  76 105 124 137 146 148 147 148 148 145 144 141 141 141 140 138 142 112  20  15  43  55  47  34  24   7  16  28  30  38  35  35  32  35  49  52  56  67  81 117 144 159 171 189 186 181 178 182 188 195 192 184 174 152 151 155 152 155 130 110 121 129 145 142 152 132 124 132 149 156 164 176 174 165 159 204 240 239 242 242 244 246 249 240  83  33  38  35
   2   3   8  36  69  98 117 128 136 139 137 136 134 132 131 129 127 129 130 130 129 124  57  11  38  61  69  56  37  58 101 100  96 107 108 121 130 124 135 141 163 163 175 190 186 184 184 177 177 182 189 187 185 187 179 171 170 148 141 157 141 141 126 117 113 134 149 136 144 132 135 130 143 160 174 169 167 161 190 232 238 241 242 244 248 247 254 184  37  40  37  36
   3   3   5  29  61  87 106 117 125 129 127 124 121 118 115 114 112 115 118 117 116 113  95  27  14  65 103  69  77 131 132 123 111 115 133 149 163 172 176 172 166 154 165 175 177 181 180 174 176 181 184 183 184 177 170 169 167 141 119 141 138 136 112  92 112 150 140 139 133 124 135 140 147 160 174 171 157 177 226 237 240 241 243 246 249 249 251 107  28  42  39  38
   4   4   5  22  50  74  93 104 113 118 116 112 108 105 102 100  99 101 104 103 104  95  87  61  13  49  92  93 115 126 127 125 109 103 121 141 153 155 149 136 133 138 149 159 170 170 164 159 167 179 178 176 176 174 183 187 175 150 137 132 138 125 104  95 114 147 140 139 120 122 141 130 126 164 163 167 164 205 236 238 240 242 245 248 248 255 207  46  38  41  39  39
   5   4   5  16  40  61  78  90 100 106 105 101  98  92  90  87  88  89  91  91  90  80  72  76  43  27  60  81  92  93 113 125 108  93  97 118 136 132 128 129 135 132 139 137 143 146 144 141 155 165 166 168 171 184 193 183 173 156 145 131 121 105  90 106 137 139 147 124 103 128 152 131 138 164 158 160 189 231 238 239 243 245 247 248 249 254 123  28  41  42  41  40
   5   5   5  11  29  48  64  75  86  94  94  92  89  83  81  79  80  82  86  87  85  79  72  78  83  34  32  52  76  91 102 112 101  87  82  89  90  96 116 115 117 108 133 124 132 144 152 156 158 158 162 176 184 190 195 185 174 174 154 142 139  98  74 118 131 142 157 127  97 139 137 145 157 157 155 174 221 238 238 241 244 247 248 247 253 213  49  37  44  42  40  40
   6   6   6   8  21  36  52  63  74  83  85  84  82  79  77  76  80  85  93  96  97  97  95  99 112  83  12  35  93 118 111  86  76  86  73  61  63  96 110  97 117  95 124 126 140 151 160 163 165 166 178 188 191 185 187 180 177 181 167 155 153 112  88 130 130 147 150 140 126 142 109 143 152 150 164 208 236 234 237 241 245 247 247 247 255 136  29  44  44  42  41  39
   7   7   7   8  16  29  42  54  65  74  77  79  80  81  81  84  91  98 107 111 113 116 119 122 128 139  64  33 104 123 118 106  99  84  76  67  62  62  77  87  84  92 115 125 145 163 172 176 182 181 189 184 187 188 186 174 183 174 167 169 145  96 101 135 132 137 127 137 143 130 121 123 142 151 189 230 232 233 239 245 247 247 247 252 229  63  37  43  44  43  39  39
   8   8   8   9  16  25  36  48  59  68  75  78  82  88  94  98 106 113 120 124 128 131 135 138 141 150 132  79  96 108 110 112 120 118 111 106  97  88  93 111 118 129 140 165 180 183 189 192 193 192 190 185 188 185 180 181 184 178 154 166 151 100  81 134 105 125 109 127 124 116 130 129 142 178 213 230 231 238 244 248 248 247 248 255 159  30  42  41  41  40  39  38
   9   9   9  11  17  26  34  44  55  66  75  81  89  97 104 108 115 122 129 132 138 141 144 148 149 149 157 117  87 117 125 123 129 142 145 140 144 160 164 163 176 181 185 181 188 186 188 189 192 188 187 190 188 189 192 174 169 178 160 151 132 111  85 104  96 111 115 125 119 124 135 134 170 216 230 232 236 244 247 249 250 250 250 245  85  30  43  41  41  39  38  38
  10  11  11  12  20  28  35  42  53  65  76  85  91 100 108 112 117 123 129 134 139 145 149 151 152 151 153 146 114 105 135 139 149 159 166 159 158 163 167 165 169 172 174 178 179 188 187 187 193 190 193 191 184 174 185 181 180 173 164 148 126 104  75  85  99  99 117 124 120 128 137 167 217 229 232 237 243 248 249 249 250 249 255 197  38  38  43  42  41  42  42  40
  11  12  13  15  21  30  36  42  51  65  77  86  94 101 106 109 112 117 124 132 138 145 151 153 153 151 150 150 134 109 118 142 156 167 169 167 166 156 162 161 162 162 167 166 172 180 181 189 194 185 186 180 183 181 176 172 166 161 146 141 137 106  78  78 103  95 115 132 129 131 155 204 228 232 237 243 248 249 249 251 250 250 255 123  26  41  43  42  40  42  40  40
  14  15  16  19  23  32  38  43  52  65  77  86  92  96 101 105 108 109 117 128 135 143 148 150 152 150 145 142 143 131 104 135 150 157 160 153 172 169 155 160 159 152 151 154 171 174 164 177 190 184 188 186 176 182 179 176 156 145 135 148 132 106  93 106 111 121 121 137 139 149 193 223 228 234 238 244 248 250 249 249 249 254 230  59  35  41  41  40  40  38  38  37
  16  16  18  21  24  31  38  44  52  63  75  84  88  93  99 104 107 109 113 122 132 139 142 146 149 148 143 139 138 138 121 124 135 150 166 146 153 156 160 165 156 148 143 154 160 164 170 175 169 174 184 189 171 163 167 166 153 142 125 133 105 110 121 101 122 128 120 129 147 197 214 222 229 234 240 246 247 247 247 248 249 255 166  28  39  40  39  39  38  38  36  36
  17  17  18  21  23  28  37  44  50  61  72  81  90  95 101 105 109 111 112 118 130 137 140 144 148 147 144 139 138 142 141 102 116 142 147 149 141 146 155 166 169 150 145 141 152 158 160 170 169 160 175 169 170 171 166 166 144 132 132 122  96 103 131  85 103 109 121 151 188 210 214 223 232 236 243 246 247 246 247 247 251 246  91  26  38  40  38  37  38  37  37  35
  17  17  18  21  22  26  34  42  49  59  69  81  92  99 105 111 114 114 114 120 130 139 144 147 150 151 149 146 146 149 151 142 107 110 136 139 129 138 139 145 148 130 128 128 145 156 157 164 161 167 167 166 161 162 154 144 138 146 126 123 107  81  86 107 107 108 144 197 207 212 220 228 234 241 246 246 246 246 247 248 254 201  41  33  37  38  38  37  38  36  35  34
  16  17  18  18  20  22  30  39  47  57  68  83  96 107 114 121 124 125 122 127 135 142 147 151 156 157 155 154 156 157 156 158 137  92 113 109 110 121 102 104 118 103  98 100 113 124 138 149 140 159 149 165 161 138 138 139 138 138  91  69  62  67  97 105 128 181 191 205 211 218 227 231 237 245 247 246 246 247 248 250 254 132  22  36  39  38  38  38  38  35  34  34
  15  16  17  17  18  19  24  33  43  53  68  85 101 115 124 131 136 136 134 135 141 146 149 152 157 159 159 160 161 162 160 156 152 113  91  87 107  95  96  94  94  79  60  95  76  86 115 131 128 148 148 130 145 133 131 107  96  58  31  27  56  86 110 141 179 200 208 210 216 226 230 234 240 245 246 247 247 248 249 253 225  58  26  37  39  38  37  37  36  36  34  33
  13  15  16  17  14  15  16  26  37  49  66  84 102 118 130 139 144 145 141 141 144 146 149 151 155 160 161 160 160 157 148 130  98  66  48  53  97  77  65  76  91  77  45  41  66  71  74 108  94 120 136 121 123  74  53  29  22  23  47  69  86 102 152 190 201 206 211 216 222 229 233 240 245 245 247 247 247 248 250 255 151  19  33  39  39  36  37  35  34  34  33  34
  12  13  15  15  14  14  14  19  30  43  62  83 102 120 133 142 147 147 144 143 144 147 147 150 154 156 151 143 131 111  76  40  11   1   1   4  40  47  51  46  72  68  62  31  52  52  47  80  69  58  58  38  29   6   9  26  39  52  59  96 152 177 191 204 207 211 217 223 228 234 240 245 246 246 245 245 246 247 254 228  65  20  36  36  37  36  35  34  33  31  32  31
  10  10  14  14  14  14  13  15  24  34  52  76  98 117 131 140 145 144 140 141 143 145 145 140 130 113  89  66  44  20   3   1   1   3   1   0   0   8  23  18  22  22  27  13   6  12  18  21  13   8   5   5   9  20  30  42  45  60 115 156 187 199 204 208 212 217 224 230 237 242 244 244 244 244 244 245 246 250 251 143  21  30  36  36  35  34  33  34  34  33  31  32
