P2
# Generated by OpenCV 4.2.0
92 112
255
   6   6   6   6   6   6   6   6   6   6   6   6   6   6   6   6   6   5  28  17  20  47  43  35  60  67  33  46  47  45  43  38  50  53  56  63  75  90  76  50  43  61  65  59  68  52  52  48  58  51  40  61  71  66  42  17  14   9   6   6   6   6   6   6   6   3   2   0   0   0   0   0   0   0   0   0   0   0   0   0   0   0   0   0   0   0   0   0   0   0   0   0
   6   6   6   6   6   6   6   6   6   6   6   6   6   6   6   4   3  16  18  24  49  48  37  43  51  33  48  73  69  74  66  66  70  71  89  99  94  83  58  51  61  71  78  78  85  74  68  63  60  53  58  47  44  39  32  22  19   9   7   6   6   6   6   6   7   6   6   5   4   4   2   1   0   0   0   0   0   0   0   0   0   0   0   0   0   0   0   0   0   0   0   0
   6   6   6   6   6   6   6   6   6   6   6   6   7   6   6   3   7  17  22  46  35  14  36  47  47  63  77  73  69  69  80  77  73  72  81  84  67  69  80  83  91  96  90 102 105 102 102 103 101  92  86  82  78  69  65  48  27   7   8   9   6   6   7   5   6   6   6   6   6   6   6   6   5   4   2   1   0   0   0   0   0   0   0   0   0   0   0   0   0   0   0   0
   6   6   6   6   6   6   6   6   6   6   6   6   6   6   6   4  17  17  25  23  14  30  36  40  49  62  57  48  47  58  70  74  72  75  80  65  55  62  71  85  94 101 123 131 127 123 134 131 133 127 111 106  90  83  77  63  40  27  19   8   5   6   5   6   6   6   6   6   6   6   6   6   6   6   6   6   5   5   3   1   0   0   0   0   0   0   0   1   0   0   0   0
   6   6   6   6   6   6   6   6   6   6   6   7   6   6   7   8  12  11  22  22  28  51  59  53  62  52  69  78  85  79  78  78  79  72  69  62  71  80  84 102 104  93 117 135 138 131 147 156 152 147 137 131 120 109  95  77  63  56  35  12   6   6   8   7   6   6   6   6   6   6   6   6   6   6   6   7   6   6   6   6   6   5   4   2   1   0   0   0   0   0   0   0
   6   6   6   6   6   6   6   6   6   6   5   6   6   6   5   6   7   7  10  30  51  75  79  75  67  71  87  75  80  89  80  93 101  92  86  89  90 104 114 112 122 132 140 151 154 157 156 168 167 162 158 144 145 153 143 122 104  79  48  21   8   5   8   5   5   6   7   6   6   7   6   6   6   6   7   8   7   6   6   6   6   6   6   6   5   5   4   3   0   0   0   0
   6   6   6   6   6   6   6   6   6   6   6   6   6   6   4   5   6  14  29  51  83  84  90  81  94  90  88  97  98  95  95 107 113 103 107  99 112 130 144 148 145 153 161 163 179 185 179 174 177 180 171 169 168 160 150 146 124  97  66  41  24  10   9   6   8   7   5   5   6   6   5   7   6   5   6   6   7   6   6   6   6   6   6   6   6   6   6   6   6   5   4   3
   6   6   6   6   6   6   6   6   6   6   7   5   6   5   4   5   9  26  76  95  98  94  93  97 104  94  94 111 125 125 120 127 133 119 130 132 141 150 159 156 157 163 170 173 193 194 190 191 189 184 182 186 189 189 171 158 145 127  93  58  29   4   8   8   8   8   6   5   8   9   6   6   6   6   6   6   7   6   6   6   6   6   6   6   6   6   6   6   6   6   6   6
   6   6   6   6   7   6   6   6   6   6   6   6   6   6   7  11  19  59 102 107 112 123 120 114 111 117 127 141 151 150 147 150 157 168 163 156 165 167 167 180 175 178 188 191 202 200 198 205 204 195 190 197 202 200 193 181 170 149 118  85  40  16   9   8   9  10   6   6  10   9   7   5   4   5   6   6   6   6   6   6   5   6   5   6   6   6   6   6   6   6   6   6
   6   6   6   6   6   6   6   7   6   6   5   5   6   7  11  17  69 100 111 118 128 139 144 131 124 137 158 156 162 176 170 167 168 187 187 179 192 192 194 200 195 192 197 207 201 199 201 201 191 191 193 196 202 200 199 192 189 179 145  95  59  32  10   6  13  10   7   9  13   7   6   8   7   6   6   5   7   6   6   6   6   6   6   6   6   7   6   5   6   6   6   6
   6   6   6   7   6   6   6   6   5   9   8  10   7  12  15  64 105 120 133 134 147 155 156 150 149 158 180 171 177 188 203 207 199 201 204 208 210 214 218 212 207 209 208 214 200 197 204 205 200 197 193 193 200 206 208 208 200 181 159 109  58  39   7  13  10   7   5   6   8   7   8  12  11   8   6   6   6   6   6   6   6   5   6   6   6   6   6   6   6   6   6   6
   6   6   6   6   6   6   7   5   8  11  16  17  10  12  46 100 111 131 150 147 156 168 170 169 170 183 188 185 190 198 214 216 210 212 210 215 221 220 223 218 221 222 214 213 206 201 201 208 209 202 199 194 195 205 208 206 203 185 162 118  71  37  29  33  12   7   7  13   8  10  11   9  10   7   8   7   6   6   7   5   6   6   5   6   6   6   6   6   6   6   6   6
   6   6   6   6   6   6   6   4  13  14  19  16  12  43  99 108 119 141 152 152 153 173 181 182 183 178 189 202 213 209 208 212 213 220 220 221 219 221 224 228 226 222 222 211 210 210 207 208 210 208 198 193 193 202 201 203 205 195 172 139  81  67  60  30  12  10  24  31  11  16  10   9  11  10  10   6   6   6   6   5   6   5   6   6   6   6   6   6   6   6   6   6
   6   6   6   6   7   6   4  13  39  26  17  16  27  90 112 118 137 149 154 161 174 184 188 185 189 193 196 202 209 218 219 223 228 226 226 225 227 225 221 217 221 216 220 211 216 222 209 209 211 202 194 195 198 201 202 202 205 204 181 138 101 102  74  36  21  14  24  19  14  14  16  14  15   8   7   7   7   6   8  11   5   4   5   6   6   6   6   6   6   6   6   6
   6   6   6   6   7   3   7  35  50  38  26  33  71 101 112 126 143 157 161 179 187 191 190 193 199 207 207 216 217 221 226 228 227 227 230 231 231 227 223 224 222 224 223 224 219 215 210 212 213 204 203 199 198 202 197 204 206 203 193 146 141 107  74  61  26  16  13  21  15  15  25  16  15  10  10   8   9   7   8  12  15  15   5   6   6   6   6   6   6   6   6   6
   6   6   6   6   6   5  14  36  44  37  30  57  95 101 122 139 153 167 178 187 187 198 195 200 204 214 219 221 221 226 230 229 226 227 232 235 226 226 228 228 229 230 225 227 225 223 216 215 214 207 205 204 201 204 202 208 212 208 191 173 161 132  85  62  22  16  20  34  25  32  43  14  19  18  13  11  14   9   7   7  24  25  11   4   6   6   6   6   6   6   6   6
   6   6   6   6   6   5  14  21  33  27  36  85 100 117 137 145 167 177 185 191 202 207 207 209 212 223 220 224 225 230 230 230 232 231 232 230 229 229 231 228 230 228 227 224 223 225 219 216 220 217 211 204 205 205 204 203 200 208 204 191 176 149 112  62  37  37  26  37  32  33  45  25  22  23  20  19  18   9  10   8  27  32  14   8   4   6   6   6   6   6   6   6
   6   6   6   6   6   8  10  14  28  35  74  97 109 125 140 159 176 185 195 202 210 208 208 217 218 219 219 227 228 229 232 232 230 233 232 234 234 233 232 229 231 231 229 230 225 223 217 212 219 224 215 211 208 206 205 200 201 204 198 200 192 159 121  63  58  38  39  41  27  43  48  24  27  23  31  21   9  14  19  19  27  41  23  11   5   6   6   5   6   6   6   6
   6   5   6   6   6   7   8  18  32  45  90 101 122 141 157 170 181 189 202 211 211 214 211 216 219 219 226 229 232 234 233 233 233 232 233 237 237 230 230 233 229 230 231 228 229 227 224 221 215 219 218 211 209 207 207 200 201 201 209 205 202 171 133  89  60  57  63  52  47  62  55  24  39  27  32  18  21  26  23  24  38  36  38  11   4   6   6   6   6   6   6   6
   6   7   6   6   6   7  13  16  22  63  90 104 126 151 168 173 184 196 204 210 217 214 217 223 220 226 228 228 230 236 235 233 232 235 236 238 233 234 229 233 230 230 231 228 230 227 226 222 215 216 220 218 210 205 204 197 200 208 210 206 209 185 148 104  71  81  82  67  74  69  48  50  51  29  28  45  44  41  35  31  52  29  46  28   5   5   6   6   6   6   6   6
   6   6   6   5   6   7   7   6  19  76  93 111 137 162 172 183 194 208 210 216 215 217 221 222 216 224 224 231 233 236 232 233 235 232 236 236 230 237 235 233 237 235 234 232 231 231 228 220 214 216 213 217 215 204 204 200 198 203 205 214 209 190 140 120 104  85  89  78  83  81  76  77  42  49  55  56  45  59  49  49  41  23  32  29   9   5   6   6   6   6   6   6
   6   6   6   6   7   6   8  13  52  86  93 125 149 164 175 189 200 202 213 215 216 216 224 222 220 223 223 234 236 233 230 232 235 231 234 237 232 231 234 236 234 233 232 233 235 236 233 225 222 218 215 210 212 213 208 207 200 203 209 212 208 197 156 134 117 104 100  99 111  91 100  67  45  80  92  50  56  75  63  54  44  41  31  12   5   6   6   5   6   6   6   6
   6   6   6   6   5   4   5  15  68  87 100 132 147 161 182 191 204 207 212 215 217 218 223 227 223 224 226 233 233 230 235 235 233 234 232 240 235 233 235 231 231 234 234 235 234 234 234 233 230 222 216 212 210 208 214 211 206 211 213 208 203 200 179 144 119 107 119 116 106 100  96  70  54  80 109  69  50  81  77  62  74  57  41  15   5   6   6   6   6   6   6   6
   6   6   6   6   6   4   2  31  80  89 116 136 147 167 187 193 204 213 218 217 219 223 226 224 223 225 230 230 229 232 236 235 234 236 235 234 241 232 236 234 235 234 234 237 236 231 235 234 232 226 217 212 213 209 216 215 203 212 207 203 206 201 188 159 136 120 122 127 115  85  85  86  67  68 101  91  66  81  76  70  77  73  61  38  16   4   6   6   6   6   6   6
   6   6   6   6   6   3   6  58  82  93 122 140 144 170 187 199 208 212 212 221 224 223 223 226 225 223 223 230 229 234 233 233 230 227 234 237 237 235 234 235 237 238 237 237 238 236 234 232 234 227 218 217 210 218 216 216 207 205 207 206 205 202 200 173 149 138 119 140 135 104  67  88  84  81  80  89  89  92  78  78  81  73  62  46  24   5   4   6   6   6   6   6
   6   6   6   5   5   4  28  71  76 105 133 138 143 167 184 202 210 211 214 222 225 224 223 225 223 223 225 232 230 231 232 232 228 228 229 237 234 234 234 233 235 236 234 237 234 233 233 232 230 227 222 221 219 221 214 208 208 201 204 201 204 207 204 188 162 133 125 128 116 102  80  85  79  57  74  82  98  99  73  72  66  55  54  47  22   6   5   6   6   6   6   6
   6   6   6   6   5   2  35  75  83 114 135 144 156 170 179 195 201 209 216 223 223 220 221 221 222 226 230 230 229 231 232 232 229 231 231 234 236 236 237 236 234 233 235 237 231 234 231 230 230 226 230 228 217 218 214 208 203 205 204 203 203 210 209 207 185 149 138 135 119 107  88  65  58  49  63  69  84 102  76  64  64  51  40  46  12   4   6   6   6   6   6   6
   6   6   6   6   6   4  46  76  94 119 137 142 164 174 179 191 195 201 213 218 225 222 223 220 218 220 221 227 230 233 231 232 234 231 232 234 237 234 230 233 232 235 237 232 234 234 233 230 230 226 227 226 223 224 213 209 212 205 202 203 203 209 207 206 201 180 155 139 120 120 102  77  68  47  57  60  70  80  68  68  51  40  31  43  23   2   6   6   6   6   6   6
   6   6   6   6   3  13  62  87 100 122 139 144 164 169 176 188 196 203 213 221 221 222 220 224 222 219 222 221 229 227 228 229 230 230 231 231 229 233 234 236 230 231 232 236 234 230 232 232 227 221 226 230 228 224 216 211 212 206 200 200 207 203 212 210 200 193 172 150 128 117 116  94  76  56  59  55  64  80  81  72  50  39  41  36  18   4   6   6   6   6   6   6
   6   6   6   5   1  17  63  89 105 121 136 147 160 170 179 180 191 204 207 218 219 221 223 218 222 218 219 228 228 228 233 234 233 229 227 232 231 233 231 234 229 232 232 234 231 227 226 223 226 224 229 227 223 223 219 206 209 208 197 200 208 202 212 211 197 189 172 155 136 120 118  93  91  61  59  66  62  57  91  79  54  35  35  35  12   4   6   6   6   6   6   6
   6   6   6   5   2  28  65  93 111 122 143 152 168 167 175 183 198 203 202 207 219 224 222 221 220 212 221 227 233 229 231 232 235 228 233 230 231 234 231 231 231 231 233 233 233 229 227 228 229 228 228 232 227 221 217 212 201 205 196 204 213 210 205 199 202 191 169 153 134 111 114  85  84  82  66  53  56  59  85  73  52  37  27  43  23   3   5   6   6   6   6   6
   6   7   6   5   4  37  62  92 121 132 145 160 172 170 170 184 199 209 203 208 218 223 224 222 220 221 220 221 227 232 229 230 230 228 230 232 234 233 232 233 236 234 231 230 235 229 229 228 226 231 234 230 227 220 215 212 209 202 203 200 206 212 207 198 195 189 178 159 140 123 104  83  64  97  85  63  45  51  81  82  53  35  45  33  18   4   7   6   6   6   6   6
   6   6   6   5   6  39  70 100 126 130 144 162 169 177 170 188 208 217 208 211 217 224 224 225 228 220 220 219 224 225 227 229 232 231 228 232 233 231 228 231 234 231 225 226 225 222 232 228 227 232 235 228 214 220 213 203 205 200 205 208 208 210 207 192 188 178 177 161 133 130 112  96  72  82  94  92  55  44  89  80  72  37  48  32  15   4   5   5   6   6   6   6
   6   6   6   5   5  37  65 100 126 127 148 167 171 177 174 188 200 212 210 208 217 218 216 218 220 217 221 221 222 224 228 231 235 232 226 232 231 231 231 233 232 228 230 231 227 227 228 227 224 229 226 223 215 215 209 208 203 207 206 210 212 206 207 190 185 177 161 152 138 113 112  95  71  79  96  82  63  50  80  88  87  35  34  16  13   6   5   6   6   6   6   6
   6   6   5   5   7  41  64  94 124 131 151 172 174 171 174 194 203 213 212 210 221 228 227 222 228 227 229 220 219 223 227 229 227 228 229 236 238 228 233 237 233 236 234 232 234 234 233 231 229 230 228 224 223 225 217 209 211 208 204 209 209 201 200 190 185 175 164 157 146 111 110 100  86  78 103  87  56  46  62  92  75  27  22  15  10   4   6   6   6   6   6   6
   6   6   6   5   5  40  68  94 124 133 145 160 165 172 185 198 203 218 215 211 221 223 223 229 232 232 233 231 227 227 230 231 228 233 233 231 235 233 230 237 235 229 230 234 232 232 232 230 228 232 230 228 222 222 218 207 208 205 204 206 203 187 187 183 195 180 165 160 149 125 120 103 101  99 104  81  48  34  53  92  52  16   9  12  13   5   6   6   6   6   6   6
   6   6   6   6   6  41  68 105 132 143 152 168 167 166 179 187 200 213 213 209 220 221 219 228 234 233 228 228 221 227 230 233 235 236 237 235 235 238 235 236 240 235 234 234 233 235 237 231 227 232 226 223 217 214 217 206 192 193 205 209 192 189 190 194 190 172 163 155 151 134 102  95 103 105 103  96  65  20  55  59  31  12   3   9  12   5   6   6   6   6   6   6
   6   6   6   5   7  46  69 105 125 145 160 177 189 182 192 199 212 219 214 211 217 221 220 222 228 234 231 229 227 226 226 229 237 236 234 232 236 238 234 237 237 235 233 232 233 227 223 224 221 226 225 226 223 222 219 204 194 197 205 204 195 193 190 193 186 171 168 158 148 124  96  98 112  84 100  95  81  34  39  34  18   7   4   5   8   6   6   6   6   6   6   6
   6   5   6   5   7  46  63  94 122 140 154 168 179 179 187 204 220 220 219 224 226 233 233 233 226 227 231 234 230 231 222 227 233 235 235 231 231 236 234 232 238 230 225 229 230 230 229 231 232 234 233 232 224 216 210 200 201 210 211 204 197 193 194 190 182 178 174 159 137 117 101 104 111  79  81  83  68  38  36  32  10   1   0   2   1   0   6   6   6   6   6   6
   6   6   6   5   6  46  65  88 115 135 138 153 166 173 177 208 211 213 215 221 229 230 227 220 213 209 214 223 226 229 220 224 229 233 229 230 233 231 233 230 231 233 233 235 232 232 227 222 227 228 229 224 223 215 208 206 206 206 207 197 196 192 185 186 184 182 171 157 141 122 109 105  98  90  76  83  72  46  39  30   4  10  80 124 110  29   0   5   6   6   6   6
   6   6   6   5   4  34  63  86 118 135 137 146 164 179 169 182 202 207 219 219 226 231 230 227 229 226 227 222 222 218 220 221 224 232 234 234 231 232 228 230 230 231 230 235 233 227 228 230 235 233 230 226 219 213 208 204 202 204 204 198 197 190 181 181 195 180 176 165 136 115 103  93  89  75  79  71  81  49  23  31  54 150 205 199 187 145  27   0   5   6   6   6
   6   6   7   6   2  30  62  86 112 138 152 144 147 173 180 174 186 198 210 218 221 226 225 227 235 223 228 234 228 215 223 230 230 234 234 231 226 225 225 228 224 221 223 226 232 229 224 230 232 231 231 227 221 208 197 196 194 200 204 202 198 181 180 180 178 174 177 163 132 107  83  81  86  76  71  68  81  51  22  54 166 214 202 193 173 166 107   3   5   6   6   6
   6   6   6   5   2  22  61  85 119 145 162 165 147 149 176 175 176 187 206 221 223 225 225 231 233 216 218 228 227 217 222 227 229 231 223 218 223 218 222 216 213 218 223 225 236 228 222 230 226 228 223 219 215 203 204 200 195 198 197 196 190 178 174 172 169 171 172 168 129  87  72  84  75  87  57  53  72  50  70 160 206 206 187 138 106 134 142  28   1   6   6   6
   6   6   6   6   0  21  65  88 117 142 155 170 162 146 159 166 161 159 180 211 217 218 227 234 233 213 215 233 230 225 223 222 219 222 217 220 222 222 215 211 220 225 233 226 217 206 200 204 210 213 214 216 218 205 200 199 199 201 198 181 179 181 173 172 173 172 165 164 124  85  58  72  80  65  50  68  70  57 116 205 200 172 109  68  76 100 147  63   0   7   6   6
   6   6   6   6   2  26  67  91 120 152 167 169 165 163 173 172 161 155 161 192 220 215 216 227 234 214 197 229 234 229 231 219 216 215 219 217 214 208 216 226 233 236 215 189 176 167 175 183 195 205 197 192 196 206 196 187 197 195 191 184 184 186 175 175 176 167 159 167 140  88  61  60  70  48  69  69  67 102 167 194 170 107  87  94  99 102 142 103   0   6   6   6
   6   6   6   6   3  19  73 100 126 148 145 156 158 161 173 182 181 165 156 169 196 208 212 213 219 219 181 209 222 222 221 220 220 213 208 213 215 223 232 226 213 202 197 169 160 159 158 152 155 167 177 181 165 174 196 182 183 192 190 190 191 185 174 170 166 163 170 167 143  99  83  65  63  46  55  61  84 149 188 160 115 122 140 124 116 121 145 127   1   5   6   6
   6   6   6   6   3  16  77 100 110 116 120 124 124 132 141 170 182 185 169 163 175 192 198 191 207 224 193 182 210 217 215 220 222 225 221 231 231 223 210 189 161 144 135 130 134 138 142 140 128 122 135 145 160 164 164 178 185 185 183 179 188 185 172 171 166 168 163 165 146 113  79  69  54  37  43  47 105 171 164 141 125 156 164 148 133 137 175 152   4   3   6   6
   6   6   6   6   3  16  78  78  83  85  87  85  81  84  94 127 157 173 180 165 162 167 183 168 175 210 213 173 181 196 202 213 219 222 225 227 208 188 147 134 119  97 109 130 153 185 197 188 171 147 128 133 145 175 176 173 184 174 173 182 199 182 167 167 175 169 161 166 148 108  72  62  64  34  42  71 144 161 164 138 158 180 175 163 146 145 166 153  12   2   6   6
   6   6   6   6   3  15  59  53  57  65  75  77  69  68  59  69  96 123 141 144 146 151 153 142 148 188 208 187 169 172 176 186 204 197 190 185 149 100  95  88  81  88 134 178 201 215 217 215 207 192 174 160 159 162 179 174 171 178 178 184 177 164 168 166 173 168 171 173 153 100  86  49  64  54  36 108 160 162 156 149 167 184 186 176 164 153 166 153  15   2   6   6
   6   6   6   6   3  13  55  54  69 102 121 134 132 111  73  51  52  63  72  80  95 119 112 117 135 168 200 197 164 169 155 144 143 141 120 105  91  71  82  87 111 134 178 207 215 226 222 215 213 203 197 171 152 154 165 172 174 170 175 174 158 159 177 177 166 168 165 173 153 104 100  77  80  92  55 127 153 145 136 156 178 180 179 179 167 164 172 153  11   2   6   6
   6   6   6   6   3  12  42  51 100 137 155 166 168 162 141 112  91  78  65  65  65  75  79 104 141 177 204 210 189 168 153 127 105  95  90  89  89  93 106 127 154 179 201 214 216 214 211 209 200 204 214 193 170 156 151 152 164 163 162 162 168 175 171 164 165 168 171 178 164 116  95  86  95  61  81 141 129 134 101 112 156 164 165 172 165 166 183 149   7   3   6   7
   6   6   6   6   4  12  44  60 108 128 147 159 169 169 167 160 150 136 120 100  84  73  68  82 129 180 210 211 205 181 159 143 120 103 101 109 107 122 137 163 182 202 198 196 197 190 195 211 205 193 206 203 178 154 147 157 159 168 163 169 174 176 173 170 169 170 171 177 174 139  94  97 100  55  95 143 126 121  62  58 107 131 160 178 173 165 190 139   2   3   6   6
   6   6   6   7   2  17  54  60  83 108 128 149 157 159 156 141 116  81  54  49  63  65  57  53 119 191 218 212 200 180 158 138 113 105  98 113 118 124 129 129 120 111 100  89  78  79  87  97 105 113 107 123 179 172 156 159 176 177 175 182 181 180 174 177 173 166 174 173 180 155 106  92  82  73 100 142 154 114  72  71  99 130 147 181 176 161 191 128   1   4   6   6
   6   6   6   6   3  15  55  61  74  99  84  75  85  70  26  20  16  28   7  23  69  64  57  42 108 184 216 228 225 201 173 141 117 107 100 103  99  87  82  78  70  70  90  28  24  28  35  28  17  53  61  77 118 147 159 167 174 184 187 190 188 174 175 181 178 169 171 171 179 168 111 100  82  61  83 137 165 159 114 115 107 125 139 175 178 164 191 127   0   5   6   6
   6   5   6   5   3  19  56  63  77  52  12  23  63  63   8  35  72  51  19  54  90  52  60  61 113 188 214 230 228 205 174 147 134 106  99  88  81  85  96  94 107 143 161  74  57  71  53  49  35 111 117 107 100 137 170 179 180 183 182 193 196 183 185 182 179 175 173 177 178 168 118 103  80  41  78 132 165 189 158 151 137 125 141 173 192 169 203 121   0   5   6   6
   7   6   6   6   3  18  65  71  77  49  53  72  94 121  74  33  58  46  59 102  97  83  79  79 140 201 221 230 233 221 191 153 151 116 117 137 131 110 107 104 124 167 186 151  75 102  85  76 139 205 199 164 148 151 164 183 196 199 188 198 197 197 191 185 179 179 175 179 182 173 125  91  79  51  73 131 164 187 165 161 159 148 145 174 190 171 206 106   0   5   6   6
   6   6   6   6   4  12  58  77  87  57  66 129 122 128 139 115 110 144 173 165 146 138 133 106 155 209 230 238 238 224 201 170 163 138 132 171 156 136 152 168 171 174 183 194 162 130 169 213 229 212 187 178 184 186 184 204 210 200 197 203 200 191 192 184 181 171 172 174 178 179 136 102  76  42  73 135 159 188 166 158 163 160 163 187 188 172 208  85   1   5   6   6
   6   6   6   6   4   6  53  82  97  71  50 107 147 151 158 168 181 177 176 155 136 136 128 113 173 221 236 235 234 223 209 195 183 164 152 174 170 152 143 172 195 193 202 206 222 226 228 215 193 180 170 171 178 196 203 216 215 206 200 203 202 191 191 180 172 167 168 175 174 179 139  93  67  47  59 131 157 182 167 166 171 164 191 205 179 189 210  60   0   6   6   6
   6   6   6   6   6   3  47  82 107 102  66  67 113 141 154 161 167 161 144 127 128 141 136 124 185 226 236 235 228 223 214 206 205 194 177 178 167 161 148 148 166 182 187 196 196 194 185 173 161 156 168 177 187 205 216 220 218 214 211 215 203 193 194 178 168 165 169 169 176 180 151  91  51  53  52 118 151 175 166 174 176 187 203 188 171 205 186  30   0   6   6   6
   6   6   6   6   6   2  44  84 103 109  83  77  79 100 115 123 133 133 125 128 134 147 125 132 190 232 235 237 233 218 217 218 225 216 206 184 171 165 166 153 147 154 154 159 156 158 152 157 160 173 179 180 204 216 225 224 221 219 211 213 211 202 193 185 168 164 167 170 175 177 139  90  80  45  47 121 152 164 153 193 204 199 193 191 200 218 143   5   2   6   6   6
   6   6   6   6   5   2  39  80 102 126  95  84  83  92 102 107 116 133 141 132 139 134 124 135 189 227 235 237 224 217 221 224 231 229 220 210 198 185 173 168 167 161 157 156 154 158 165 171 168 169 187 209 218 225 228 223 226 218 219 212 205 198 190 178 163 165 169 175 180 176 125 113  83  43  48 121 165 138 149 199 209 191 201 207 218 208  89   0   5   6   6   6
   6   6   6   5   6   2  25  73 109 134 117  99 108 110 118 126 142 144 144 143 140 132 131 134 191 229 237 238 232 211 212 227 230 231 228 228 223 210 199 191 191 191 184 188 189 186 185 188 195 211 223 224 226 229 231 223 225 220 212 208 201 191 183 172 168 171 178 183 179 174 126 135  89  28  52 130 155 149 189 218 197 188 215 215 213 175  28   0   7   6   6   6
   6   6   7   6   4   3  18  69 109 130 127 116 122 122 129 136 144 144 148 146 138 133 122 133 201 232 240 239 233 209 205 219 227 229 223 224 229 228 224 211 208 208 202 208 214 213 212 216 228 233 227 229 224 224 225 224 223 225 214 199 197 196 185 173 169 169 174 182 175 167 121 110  74  41  78 130 156 198 212 197 174 193 216 213 202  99   0   5   7   6   6   6
   6   6   6   6   6   5  13  64 105 131 129 128 127 132 132 139 147 150 151 150 141 130 113 132 191 226 236 236 228 207 204 213 217 223 222 222 224 235 233 226 224 221 219 218 217 223 224 224 230 230 228 220 218 223 222 218 216 221 209 198 196 190 181 163 165 165 168 181 178 158 100  98  57  67 105 134 181 200 196 180 186 196 216 207 152  27   0   6   6   6   6   6
   6   6   6   6   6   5   8  51  92 127 137 134 144 142 137 141 151 162 155 155 145 129 110 132 193 230 235 234 232 209 194 209 213 218 217 220 224 230 234 228 230 226 221 223 221 220 225 229 223 219 226 223 224 219 217 220 215 207 204 201 191 186 172 167 164 169 182 186 172 148  79  88  67  84  81 137 198 204 196 189 186 204 218 186  55   6  15   4   6   6   6   6
   6   6   6   6   6   5   4  44  76 117 134 136 142 148 146 151 150 156 155 159 148 130 111 137 194 230 238 234 230 211 193 205 216 212 216 217 216 225 233 235 233 229 230 227 226 223 223 227 225 220 216 220 220 219 220 216 206 203 198 193 189 182 175 170 165 170 180 179 175 141  81  87 101  94  71 154 208 203 193 189 190 203 201 104   0   7  24   7   4   6   6   6
   6   6   6   6   6   6   1  34  65  95 128 136 139 150 152 152 151 157 162 149 150 135 110 134 204 236 235 236 229 215 202 212 219 213 208 206 209 226 230 237 237 235 237 233 227 226 224 226 229 220 216 223 222 222 218 213 205 205 198 189 185 186 176 163 167 168 174 172 146 124 110 112 131 101  72 159 207 196 182 181 181 186 119  12   1   5  26  16   1   6   6   6
   6   5   6   6   6   6   3  21  60  82 114 131 139 147 153 164 160 166 166 159 151 138 116 154 213 238 238 236 232 222 217 216 201 195 187 186 192 204 219 229 232 234 235 235 234 230 232 231 233 223 210 216 215 214 218 211 203 205 190 185 188 186 168 162 164 167 173 165 121 100 123 145 129 101  88 154 180 171 163 168 154  93   9   0   5   2  30  38   2   5   6   6
   6   6   6   6   6   6   4   8  51  73 102 122 135 146 157 164 167 171 170 161 159 135 156 190 213 235 237 238 238 228 220 211 193 187 184 182 167 169 197 220 233 234 233 234 235 233 232 232 224 222 217 212 210 212 214 200 203 196 189 184 189 179 166 162 165 168 161 139 131 114 125 137 119  91 106 113  99 133 133 119  55   0   0   6   5   3  29  57  10   5   6   6
   6   6   6   6   6   5   4   6  47  74  93 113 131 135 148 161 171 173 170 159 160 157 188 208 216 232 235 235 238 234 228 213 195 190 202 208 189 162 164 199 223 228 230 230 230 232 228 234 231 231 224 223 218 215 204 205 203 199 197 186 187 180 163 160 161 157 147 130 117 122 119 111 100 102 109  78  18  43  40  31   1   5   5   7   3   4  20  65  29   1   6   6
   6   6   6   6   6   6   5   1  27  75  85 107 125 138 146 156 164 169 163 167 159 165 198 217 219 229 233 238 238 238 230 208 194 204 220 221 216 189 147 165 197 221 227 228 227 227 226 228 230 234 230 230 222 216 209 207 206 197 196 186 182 167 148 159 157 153 118 132 139 133 116 118 116  86 103  86  33  23  20  24   9  10   5   6   5   5  28  62  40   0   6   6
   6   6   6   6   6   6   6   4   7  65  94 105 119 136 153 157 163 173 171 171 157 173 214 220 224 225 232 236 235 233 229 209 198 204 223 230 219 206 166 142 157 192 218 226 224 224 229 230 231 226 226 223 225 218 211 208 200 191 196 193 174 159 153 160 163 163 145 143 160 139 129 115 103  66  94  88  58  47  47  19  20  12   5   5   4  10  30  62  50   3   6   6
   6   6   6   6   6   6   5   4   4  50  96  99 120 137 154 160 166 174 179 174 148 171 212 230 225 226 231 232 233 227 225 204 193 203 216 228 223 217 173 156 148 159 198 217 218 219 224 223 227 227 226 224 225 215 202 202 193 192 196 195 171 149 142 155 156 160 158 142 147 145 129 101  89  71  92  92  80  71  45  21  34  14   5   5   3  16  40  63  63   8   3   6
   6   6   6   6   6   6   5   4   2  26  90 108 118 130 149 168 167 178 177 180 142 152 205 224 225 230 227 231 228 220 206 189 178 190 213 216 208 212 176 166 170 147 164 206 219 222 220 218 224 223 222 222 221 212 199 197 200 198 198 186 168 143 122 127 141 164 154 121 109 124 108 100  96  86 106 102 113  84  33  46  41  14   4   4   6  21  43  60  80  20   2   6
   6   6   6   6   6   6   6   5   4  10  80 114 115 128 148 163 169 179 172 174 164 119 180 217 216 227 228 229 215 194 172 158 159 179 203 198 193 189 176 184 191 175 152 181 212 218 221 223 220 221 222 223 218 213 201 194 202 207 199 184 168 127 114 112 138 161 139 111 111 136  92  98  89  90 106 120 132  58  45  62  34  11   4   3  13  38  48  66  84  34   1   6
   6   6   6   6   6   6   6   6   6   2  59 114 111 128 146 163 172 177 177 171 168 135 126 185 200 207 217 205 172 144 135 140 139 149 162 156 150 148 176 205 209 205 182 159 191 211 218 223 219 221 221 227 221 214 214 204 208 206 200 179 142 118 105 134 134 135 118 102 121 133 103  93  81  81 100 144 117  55  72  58  32  10   3   2  20  49  58  73  81  54   1   6
   6   6   6   6   6   6   6   6   6   0  30 104 106 128 146 160 171 177 174 173 160 160 133 127 166 169 176 171 152 128  98  97  94  88  95 101 101 144 204 223 218 219 213 174 174 200 214 225 224 221 221 224 222 214 209 209 207 208 194 169 139 128  91 134 152 127 128 112 110 131 119 102  72  74  88 137  78  77  80  55  34  11   6   2  32  52  63  72  78  68   4   4
   6   6   6   6   6   6   6   6   4   7  18  92 114 118 148 162 169 179 175 169 163 166 156 104 111 130 137 150 127  81  86  99 107 102 108 104 117 170 197 214 213 229 229 213 177 178 205 217 225 225 221 221 224 215 207 208 211 203 185 159 136 106  86 133 145 123 118 116 107 117 114 101  76  75  88  98  72  87  69  46  44  23   7   4  36  62  61  68  87  97  22   1
   6   6   6   6   6   6   6   6   5   8   3  61 104 115 141 158 165 175 169 166 171 163 137  77  39  65  85 110  97  90 116 119 100  76 113 121 133 163 164 195 212 229 232 220 192 172 192 210 220 223 221 221 219 208 201 201 198 186 174 145 106 108  72 137 149 110 133 126 110 109 118  87  75  60  58  64  86  75  61  51  41  23   8   7  44  65  74  79  91 104  41   0
   6   6   6   6   6   6   6   6   6   5   1  39  89 112 146 152 155 170 163 164 150 146 117  65  34  15  18  54  82  93  96  94  77  76 113 111 136 148 150 199 209 205 212 214 215 196 182 200 215 222 222 216 215 202 203 196 192 183 170 136 102 109 116 132 141 103 117 139 123 118 112  87  61  50  30  75  82  62  56  57  39  22   6  19  59  71  85  80  80 103  56   0
   6   6   6   6   6   6   6   6   7   6   3  21  80 109 133 150 160 160 146 129 119 132 109  72  43  21  51  68  92  97  82  85  91 119 139 139 139 151 179 203 194 181 183 189 194 196 194 187 204 214 215 209 204 210 205 189 181 175 168 120 103 116 145 137 126 115 114 118 105 100  85  73  86  31  40  90  67  62  54  53  53  26   7  32  66  86  86  77  87 112  82   3
   6   6   6   6   6   6   6   6   6   6   3  10  68 105 128 152 155 142 114 107 104 105  83  83  50  42  66  87  95 100  87  89 119 146 151 167 141 179 179 180 178 174 145 170 148 156 183 184 183 201 210 207 197 204 184 169 172 159 144 118  99 131 113 117 129 119 113 103  87  97  90  82  65  23  79  79  59  62  56  55  56  29   7  40  71  83  83  87  95 113  89  12
   6   6   6   6   6   6   6   6   6   6   5   6  37  81 125 137 136 105  80 101 112  96  70  72  46  62  87  95  86 103  85  80 129 146 141 147 137 185 183 171 161 151 149 164 140 131 151 176 174 190 200 198 193 194 159 162 160 132 112  96 110 134 102  83 100  88  95  99 102 118 103  88  35  57  91  60  56  56  54  66  51  26  15  57  77  84  90  92  90  96  98  25
   6   6   6   6   6   6   6   6   7   6   4   4  17  61 105 115 114  79  74  72  97  80  80  66  55  80  83  95 101 104  78  82 132 146 153 148 120 170 184 168 148 134 165 158 136 135 160 182 169 166 173 188 186 165 146 152 119 128 114  93 132 138 117  96  95  64  84  92 110 120 105  83  47  92  67  54  61  58  59  71  52  22  24  63  77  83  90  87  77  93  99  34
   6   6   6   6   6   6   6   6   6   6   6   5  10  30  74 101  91  85  92  76  67  68  82  82  80  72  78 102 114 115 107 102 154 149 134 152 156 163 160 146 143 138 144 137 140 139 137 168 173 144 161 176 169 159 140 143 107 121 114 128 119 123 112 102 107  79  84  81  94 107  97  38  73  81  59  65  60  49  66  70  56  22  41  68  75  83  88  95  88 100 113  60
   6   6   6   6   6   6   6   6   6   6   6   5   8  19  67  87  74  84  89  71  65  70  84  89  99 112 126 136 145 147 159 149 168 168 157 166 179 183 172 155 155 150 134 113 108 133 142 148 156 150 161 178 166 168 145 125 124 135 123 133 127 121 114  83 111  90 102  76  77  91  60  56  88  58  62  67  50  50  69  62  44  16  55  80  84 100 100  98  94  98 115  77
   6   6   6   6   6   6   6   6   6   6   6   6   5  10  49  92  72  71  88  72  54  40  67  89  99 112 128 164 181 178 189 174 144 146 165 167 177 178 172 158 164 153 139 119 102 108 124 133 138 142 162 183 158 162 154 133 125 127 127 104 118 104 114  85  82  83  95  70  78  46  51  98  62  58  62  59  48  63  80  62  35  18  58  79  92  97 105  97  93  91 109  84
   6   6   6   6   6   6   6   6   6   6   5   8  12   5  28  71  94  80  82  85  50  50  53  42  47  52  66  72 100 127 107  74  49  54  66  73  75  70  70  73  77  78  82  81  81  73  86  98 118 144 165 189 174 167 142 127 111 110 140 117 105  95 103  75  62  85  96  68  42  54  97  84  60  62  59  48  48  81  82  60  25  25  65  77  92  97 100 100 100  92 105  92
   6   6   6   6   6   6   6   6   6   5   5  13  10   6   8  55 125 110  90  79  80 108 103 105 106 100 102  90  83  79  65  79  95 101 104 116 119 121 133 131 126 144 152 157 163 142 118  95 111 153 157 189 186 162 136 110  72  72 143 136 138 104  79  51  58 114  87  51  55 104  93  53  58  66  55  46  71  94  71  50  16  37  76  87 100 103  92  88  98  93  97 102
   6   6   6   6   6   6   6   6   7   4  10  15   6   6   2  44 126 123 101 103 127 125 110 129 142 153 160 167 175 158 169 177 179 187 198 196 197 202 204 205 200 198 188 188 185 184 175 144 129 171 191 190 182 166 149 107  89  89 144 132 140 107  51  42  88  99  69  38  96 101  71  62  71  60  50  58  76  85  67  38  10  51  86  97 101 100  98 102  99  97  92 102
   6   6   6   6   6   6   6   6   5   4  18  15   7   5   2  29 114 134 131 143 148 131 121 123 139 152 165 174 182 178 187 192 197 207 209 206 203 198 185 183 186 197 205 214 213 211 201 194 158 166 196 168 156 154 140 102 107 116 133 111 117 108  35  53 108  41  21  90 102  71  63  72  63  47  48  59  73  77  57  25  19  77  92  96  94 103 106 109 105 104  98 102
   6   6   6   6   6   6   6   5   5   9  29  13   7   6   3  12  81 114 130 148 152 138 123 122 131 145 155 145 134 142 138 150 160 176 185 185 193 195 184 189 205 214 217 220 226 224 214 196 170 169 180 159 135 134  98 108  93  89 119  92 105 100  37  71  29   6  73 106  79  59  67  70  58  49  54  75  85  70  41   7  48  89  91  97  96 111 114 112 108 107  99 107
   6   6   6   6   6   6   6   5   3  23  33  10   7   5   6   3  41  89 114 124 143 145 129 122 111 135 142 124  98 126 131 121 143 161 162 174 185 178 183 196 211 209 204 217 221 213 207 185 181 162 171 167 127 130  98 100  86  91  92 112  81  41  40  47   9  70 111  76  58  60  68  60  52  52  67  84  89  66  23   8  65  95  99 105 115 119 117 107 112 108  96 103
   6   6   6   6   6   6   6   5   4  32  26   9   7   6   6   4  18  55  89  97 122 124 131 122 109 121 125 119  98 100 121 124 126 129 133 153 171 164 177 196 204 200 205 216 212 202 203 199 179 151 144 161 140 123 102  74  76 109 103  93  65  47  46  15  73 109  79  58  56  70  60  51  43  48  75  92  78  47   9  18  83  99 111 108 117 116 111 112 103 109 102  95
   6   6   6   6   6   6   6   4   8  37  20   8  10   7   5  12  12  26  68 107 100 104 118 124 106  98 118 114  90  84  90 114 129 133 150 159 170 177 184 190 195 194 204 203 198 204 215 192 163 153 156 163 133  96  75  63  72 112 116  92  52  38  42  68 106  79  63  61  60  63  60  45  37  59  87  88  61  27   1  45  90 110 112 112 110 116 117 114 107 104 101 100
   6   6   6   6   6   6   6   4  19  47  23  13  10   7   7   4   2   8  54 108 103 106 123 123 109 100 108 102 104  93 104 113 122 137 161 172 174 182 188 187 191 189 188 197 206 211 206 190 173 159 152 145 117  91  64  61  86  98 105  80  33  24  52  96  77  57  59  59  55  56  49  30  49  74  94  73  45  12   6  70  94 103 105 114 115 113 114 117 113 108 109 104
   6   6   6   6   6   6   6   4  22  53  29  23  14   7   7   5   5  20  89 125  95 106 130 136 128 128 122 113 104  86 108 128 147 153 165 187 187 188 194 196 194 206 208 213 204 204 195 174 190 168 139 125 125  90  71  72  88  85 108  36   9  69 101  65  59  57  59  61  58  43  27  41  64  88  92  63  30   0  28  86  96 108 113 113 114 118 115 115 106  98 104 101
   6   6   6   6   6   6   6   2  21  60  37  25  16  11   7   6   2  29  80 111  89  97 148 156 158 153 154 149 149 155 159 170 196 192 204 220 215 214 216 216 214 214 219 217 200 195 199 172 190 166 141 119 111  60  43  93  94  84  53  10  58  84  69  59  52  58  58  59  52  33  33  60  85  92  77  41  12   3  59  87  98 105 113 113 116 116 110 104 103  92  98 101
   6   6   6   6   6   6   6   3  13  51  33  28  22  14  10   5   2  19  65 115 125 132 150 148 157 144 165 176 182 170 180 200 205 196 224 225 228 230 220 230 227 216 213 190 205 194 160 166 180 161 118 105  79  39  38 102  81  28  12  64  81  52  55  58  57  61  57  52  34  25  52  85  94  83  50  16   0  21  74  93 103 101 112 115 122 111 106 102 102 106 103 102
   5   6   6   6   6   6   6   4   5  59  56  26  18  24  18   8   5   0  32  90 129 143 130 136 152 132 164 186 187 187 186 203 194 204 223 211 219 225 214 223 225 222 219 178 185 202 176 146 135 159 148 111  61  25  50  91  39  13  68  83  58  48  56  62  57  51  54  35  15  49  78  93  86  59  30   4   5  48  69  90  99  99 115 119 121 115 112 103 103 108 107 107
   6   6   6   6   6   6   6   4   3  46  75  39  16  14  19  14   8   2  10  71 110 134 127 146 155 154 168 173 186 183 176 174 189 217 218 211 222 222 223 209 214 205 204 195 187 184 181 151 148 178 145  89  45  44  50  29  25  70  79  61  56  50  54  59  60  56  34  13  46  84  94  93  70  43  11   5  28  68  67  88 108 110 119 117 108 109 110 105 114 114 107 110
   6   6   6   6   6   6   6   6   2  17  66  47  85  39   9  14  13   6  13  78 109 141 127 142 121 146 164 172 182 185 163 164 192 210 219 209 210 206 226 200 173 190 193 173 181 168 165 154 162 138 124  76  55  35  11  29  80  82  58  50  50  54  56  52  52  34  12  44  88  98  91  87  51  18   6  25  53  72  84  95 111 117 113 107 101 112 117 111 118 109 109 105
   6   6   6   6   6   6   6   6   4   5  42  52  49  60  23   7  11  11   7  11  83 138 131 107 124 150 148 172 155 172 154 171 171 182 207 200 176 169 191 186 175 202 200 189 181 177 143 161 163 108  95 102  32  13  70  90  73  51  45  53  51  53  55  50  37  13  45  79  96  93  86  57  26   5  31  46  64  76  87  98 110 111 114 107 105 114 114 111 110 108 109 109
   6   6   6   6   6   6   5   4   6  10  15  43  55  39  49  23   7  12   8   4  45 117 117 129 118 141 150 170 162 160 152 155 166 166 183 194 178 185 179 196 190 184 173 203 194 166 142 120 141 109  56  47  41  85  95  66  49  45  47  54  58  54  53  41  12  41  80  91  88  86  61  35  11  26  47  61  74  84  91  99 107 115 109 107 106 116 116 109 103 105 111 104
   6   6   6   6   6   6   6   6  11  12  11  14  43  57  32  38  28   7   6   7   8  67 103 119 137 145 157 160 164 164 147 138 141 150 166 174 170 182 157 199 192 188 158 162 170 157 112  87 113  53  32  67  92  78  56  42  41  43  47  49  52  49  34  12  37  80 100  93  82  75  48  11  25  49  45  66  76  92 108 108 114 116  99 100 105 116 115 112 111 107 109 108
   6   6   6   6   6   6   8  12  11  11  16  13  15  33  50  37  29  32  13   6   5  20  69  80 119 138 140  98 136 158 130 115 122 127 149 142 177 159 136 163 186 177 153 146 139 150 103  78  47  42  67  84  63  45  48  39  34  34  43  41  48  31  12  37  79  93  93  85  75  55  19  20  55  54  59  73  84  95 105 104 112 106 107 102 103 108 116 109 106 117 117 113
   6   6   6   5   6   7  11  11  13  14  16  18  16  12  30  49  38  22  30  17   4   5  39  94 100  96 113  80 112 124 111 105 105  87 119 127 152 140 141 121 146 150 141 139 113 109  65  50  57  68  60  42  39  39  35  31  34  41  41  40  30  11  42  74  90  94  87  76  56  22  23  51  54  49  74  80  86  99 102 102  99 106 106 103 105 107 115 117 116 106 109 111
   6   6   6   6   9  12  15  12  14  14  16  20  15  12   9  22  43  41  16  25  28   9   1  42  76  73  91  84  89  98  98  70  70  62 108  85 102 132 127 120 130  95 132  98  88  75  64  48  62  42  33  34  35  35  25  31  35  39  33  17  10  41  67  83  86  79  76  56  21  15  49  60  49  59  72  84  91 101 100 103 109 106 108 104  99 104 108 117 113 100 102 105
   6   6   5  10  11  12  16  12  14  12  18  20  18  17  11   7  12  40  43  22  18  32  22   0  22  44  72  94  48  67  51  30  24  36  61  50  60  73  50  78 106  88 106  67  44  59  59  41  31  28  31  35  28  27  35  38  36  29  10  16  40  72  80  83  78  66  56  27  22  57  64  54  57  72  80  89  96  99 105 100 108 106 106 101 101 104 108 109 111 101  97 103
   6   5   5  12  11  17  15  13  12  18  22  21  19  19  12  10   8   6  31  44  34  15  23  26   9   2   8  34  16  10   9  17   9   4   6   7  10  13   0  47  55  32  42  51  48  50  36  25  24  26  25  23  28  40  35  33  26  14  28  42  57  64  76  81  61  48  26  23  57  65  58  56  67  74  86  93 101 104 103  96 105 112 104  99 108 105 108 104 101 100  97  97
   6   4   9  13  12  15  18  16  18  22  23  21  19  18  13  11  10   6   6  14  31  38  18  16  30  16   4   0   4   7   5   7  10   6   9  10  13  18  26  41  42  44  49  40  32  31  26  23  23  23  21  32  36  36  23  17  17  23  37  45  65  71  72  70  55  33  26  60  68  59  50  69  77  74  85  94 105 103 106 102  98 109 117 111 105  98  95  98  97 102  97  99
   5   7  16  14  14  21  22  18  25  26  26  27  19  17  15  13   9   9   5   4   4  19  31  23  11  18  21  12   5   6   5   8  47  55  55  51  50  54  52  49  48  38  34  30  21  19  18  18  20  25  31  37  33  23  12  20  24  26  40  54  69  76  70  58  39  35  54  66  68  55  59  80  77  91  96  99 103 105  99 100  99 100  96  98  99  97  94  98  95 105 100 103
