P2
# Generated by OpenCV 4.2.0
92 112
255
 234 235 235 235 235 237 237 237 235 235 235 237 236 237 237 237 236 238 239 237 236 238 238 236 238 236 235 238 236 235 234 234 227 212 218 209 206 200 208 207 176 140 151 148 159 135 148 179 165 138 121 123 135 157 219 221 243 251 252 254 255 255 254 255 255 255 255 255 255 255 255 255 255 255 255 255 255 255 255 255 255 255 255 255 255 255 255 255 255 255 255 255
 236 234 235 235 238 235 237 237 237 236 236 236 237 237 237 237 238 238 238 236 237 237 236 238 238 237 237 238 235 235 234 231 219 227 217 206 196 192 137 101 103 118 115 129 122 119 111 113 111  94 108 113 122 108 135 171 179 183 221 250 254 254 255 254 255 255 255 255 255 255 255 255 255 255 255 255 255 255 255 255 255 255 255 255 255 255 255 255 255 255 255 255
 235 235 236 238 237 236 236 237 236 237 238 239 240 237 238 238 238 238 238 236 237 237 237 236 236 235 234 233 236 237 234 229 215 216 195 204 203 163 149 144 129 118 134 117  93  86  82  78  83  91  83 100 107  94 115 121 139 181 174 225 242 253 253 253 254 252 254 255 255 255 254 255 255 255 255 255 255 255 255 255 255 255 255 255 255 255 255 255 255 255 255 255
 237 234 235 236 237 237 237 237 237 237 238 239 239 238 239 239 238 238 238 237 236 236 236 236 236 235 235 237 234 233 231 218 190 193 189 203 180 145 143 115 113 100  93  86  97  90  93  98 127 113 115 130 110 114 114 122 129 139 147 165 197 222 247 253 254 253 252 254 255 255 255 255 255 255 255 255 255 255 255 255 255 255 255 255 255 255 255 255 255 255 255 255
 235 237 235 236 237 238 238 239 239 239 239 240 239 239 239 239 239 238 238 238 238 237 238 237 238 237 235 233 228 219 219 184 170 149 155 132 108  95  92  91  90  74 109 104  97  83  96 100 102 100 112 123 132 134 114 114 118 134 138 121 128 134 174 243 250 253 253 255 255 255 255 255 255 255 255 255 255 255 255 255 255 255 255 255 255 255 255 255 255 255 255 255
 234 236 236 235 237 237 239 239 239 240 239 239 239 239 239 239 239 238 238 238 237 238 238 238 237 237 224 194 174 163 155 128 115 113  98  87  83  81  84 101  73  97  98  86  76  82  74  88  98  93  97  91  88  86  88  86  88 109 109 113 126 129 143 203 248 250 252 254 255 253 255 254 255 255 255 255 255 255 255 255 255 255 255 255 255 255 255 255 255 255 255 255
 233 235 236 238 238 238 238 238 238 239 239 239 239 239 239 240 239 238 238 238 239 239 238 236 231 188 166 164 170 139 126  94  91  89  83  82  76  78  99  91  63  78  89  84  88  82  84 103 114  91 105 105  89  93  88  95  88  97 104  96 124 113 120 140 196 231 248 253 255 254 255 255 255 255 255 255 255 255 255 255 255 255 255 255 255 255 255 255 255 255 255 255
 232 234 235 236 237 237 238 238 237 239 239 240 237 236 238 239 239 238 238 238 237 237 238 233 192 196 179 146 113  97  90  67  84  83  67  80  93  93  93  75  90 115  80  91  97 102 107 105 101 103 113  99 111 115 107 103  87  88 112 116 107 114 115 119 127 152 207 251 254 253 254 255 255 255 255 255 255 255 255 255 255 255 255 255 255 255 255 255 255 255 255 255
 235 236 237 237 238 236 237 237 237 239 239 238 239 239 239 238 238 237 236 236 236 233 235 213 176 110 101  94  88  76  77  78  83  71  69  92  81 105  99  91 102 105  95 113 111 109 111 115 124 129 126 111 109 116 118 117 105 102 113 107 106 100 111 120 119 137 169 191 246 249 251 254 254 255 255 255 255 255 255 255 255 255 255 255 255 255 255 255 255 255 255 255
 237 235 237 238 238 238 237 237 237 239 239 239 239 239 239 237 236 236 236 235 234 239 231 191 115  97  97  78  68  72  72  73  76  76  82  93  88  78  84  97 107 116 108 106 110 128 114 113 118 110 108 118 121 118 106 107 113 110 116 108 101  89  95 107 133 123 140 148 187 251 252 255 254 255 255 255 255 255 255 255 255 255 255 255 255 255 255 255 255 255 255 255
 237 236 236 239 237 237 239 238 236 239 238 237 237 236 236 234 236 235 236 233 237 236 218 138  92  80  81  62  53  55  62  68  74  76  89  83  78  86  88  95  91 111 120 132 121 123 107 118 113 121 125 120 111 122 111 109 104 105 127 126 110 106 115 128 132 133 158 172 165 214 254 253 254 254 255 255 254 255 255 255 255 255 255 255 255 255 255 255 255 255 255 255
 234 238 237 237 237 236 236 236 235 236 235 235 234 234 235 237 235 237 237 239 235 225 134 118  97  76  71  58  56  66  66  68  82  80  86  92  92  96 102 105 110 113 118 124 127 117 123 125 113 114 117 118 127 128 107 110 119 117 122 121 129 120 120 123 121 132 139 155 160 195 239 253 254 252 255 255 255 255 255 255 255 255 255 255 255 255 255 255 255 255 255 255
 237 236 236 235 234 234 235 235 235 235 235 235 236 236 236 237 237 238 238 234 235 188 123 105  84  65  56  64  52  65  63  90  83  92  98 107 102 109 109 116 123 127 134 134 134 132 130 133 131 125 131 117 114 115 126 118 119 112 126 118 139 124 134 137 138 129 137 166 152 172 207 239 253 253 252 255 255 255 255 255 254 255 255 255 255 255 255 255 255 255 255 255
 234 235 233 234 236 235 235 235 236 235 237 236 235 237 238 237 239 239 240 240 227 150  95 105  82  66  65  69  54  63  72 104 110 112 115 121 120 126 135 133 140 134 133 136 133 140 137 134 136 137 130 129 131 120 120 118 117 123 129 124 139 136 141 141 136 140 130 137 164 144 157 175 226 252 252 254 254 255 255 255 254 255 255 255 255 255 255 255 255 255 255 255
 233 235 236 236 235 236 236 236 237 236 236 237 237 239 238 237 238 242 238 238 190 128  98  94  83  74  67  58  65  63  79 100 113 126 129 135 136 143 143 147 135 144 139 141 137 140 132 137 138 136 139 136 125 129 118 129 119 129 132 139 146 160 155 158 158 148 143 139 133 127 150 160 184 235 251 254 255 254 255 255 254 254 255 255 255 255 255 255 255 255 255 255
 236 236 236 235 236 236 238 237 236 237 238 238 239 239 239 239 241 236 238 224 135 111 108  87  83  72  67  65  73  89 107 104 119 130 137 143 144 149 148 145 140 145 147 149 144 139 143 142 141 128 143 136 129 131 130 133 139 137 152 146 152 173 154 156 168 161 157 137 127 117 132 147 155 177 237 253 255 253 254 254 254 254 255 255 255 255 255 255 255 255 255 255
 234 235 235 237 237 236 237 237 237 237 238 239 239 239 239 237 236 236 236 156 113 113  95  87  72  79  72  63  74  89 111 130 125 137 145 149 150 147 148 147 147 149 152 156 152 144 146 140 138 140 148 141 145 146 140 141 151 146 153 154 156 157 165 164 165 169 167 153 137 109 105 123 143 145 173 243 253 252 254 253 255 255 255 255 255 255 255 255 255 255 255 255
 235 235 235 236 237 237 236 237 237 237 236 239 239 239 237 237 237 237 170 120 125 112  82  82  69  84  67  76  88 103 119 133 143 142 147 147 157 153 148 152 154 152 153 156 149 150 147 145 151 150 151 150 150 152 146 158 151 156 160 162 165 166 167 173 171 179 177 174 160 128 100  97 113 127 137 176 247 253 250 253 254 255 255 255 255 255 255 255 255 255 255 255
 235 234 235 236 235 237 236 238 237 237 237 239 238 239 237 237 237 196 140 130 119 103  91  96  86  86  79  94 104 117 127 142 148 155 154 150 154 159 154 160 157 152 154 167 156 149 150 150 152 150 150 159 158 156 154 163 157 163 163 165 171 166 170 177 181 175 173 174 172 157 122 102 100 105 112 131 192 251 254 254 253 254 255 255 255 255 255 255 255 255 255 255
 236 236 236 236 236 234 236 237 236 237 237 239 239 239 238 236 235 176 152 132 110  90 103  87  78  69  84  97 125 128 141 151 151 154 157 155 161 159 154 160 156 157 159 156 160 158 159 156 159 159 153 157 161 167 164 164 162 173 169 172 170 178 180 174 182 179 179 179 176 174 150 110  90  95 110 127 148 232 248 255 254 254 255 255 255 255 255 255 255 255 255 255
 236 236 236 236 235 236 236 237 237 237 237 237 238 238 233 235 218 167 144 114 118 115  86  93  80  84  96 113 131 142 154 156 152 151 153 158 158 158 158 161 162 161 161 163 162 158 163 162 158 162 163 163 170 171 169 171 170 175 178 179 180 180 179 175 179 177 177 182 175 178 174 148 104  95  98 110 123 170 251 254 255 254 255 255 255 255 255 255 255 255 255 255
 235 236 236 236 236 236 238 236 237 238 237 236 238 238 239 233 192 150 116 125 111  96 108 101  97 102 117 127 140 147 154 153 157 162 156 162 158 158 158 161 152 157 159 164 160 166 165 165 166 170 164 166 164 173 174 174 175 179 181 181 178 178 182 184 180 178 176 183 175 180 178 170 133  93  92 111 126 138 225 252 254 255 255 255 255 255 255 255 255 255 255 255
 235 236 235 236 236 235 237 235 237 236 236 237 236 236 237 225 166 148 148 118 121 126 108 113 117 126 126 137 149 150 151 150 155 155 159 162 158 162 162 162 152 160 158 165 174 168 169 168 170 170 171 173 169 175 173 175 173 175 176 179 173 179 182 181 182 181 183 182 181 181 181 175 153 120  93 106 117 139 171 247 253 255 255 255 255 255 255 255 255 255 255 255
 235 235 235 236 236 235 236 235 235 237 237 237 237 237 237 203 174 165 135 139 140 127 119 120 124 124 143 154 155 156 154 154 155 163 159 161 159 160 160 162 156 163 160 162 161 165 166 170 172 170 169 171 172 172 176 175 177 176 176 176 178 174 179 181 177 184 184 182 182 181 177 176 156 133 110 108 124 135 166 210 253 253 254 255 255 255 255 255 255 255 255 255
 234 235 236 236 236 235 236 236 235 237 237 237 237 239 235 198 186 161 149 146 135 126 120 128 134 146 155 156 155 156 156 158 161 155 156 161 160 158 162 160 157 162 159 162 164 163 166 170 170 171 171 172 175 174 176 176 178 175 175 177 177 174 182 179 179 178 181 180 186 182 181 172 151 149 116 112 107 129 147 176 251 255 255 255 255 255 255 255 255 255 255 255
 235 235 235 236 236 235 236 236 236 235 237 236 237 237 232 188 177 167 142 130 137 122 128 132 138 149 157 162 155 156 149 154 161 162 162 165 165 160 158 158 156 160 165 167 169 169 168 172 172 175 175 174 179 175 174 172 178 175 178 179 183 178 179 180 180 180 182 175 184 183 180 179 170 166 144 115 105 126 143 165 225 251 253 255 255 255 255 255 255 255 255 255
 234 234 236 236 236 236 237 235 237 235 236 237 237 233 229 187 173 148 143 145 129 126 132 139 146 152 155 158 157 154 155 157 155 163 162 162 158 158 161 157 164 159 163 168 167 168 171 174 174 175 171 174 177 179 178 179 174 176 180 181 185 183 180 181 181 182 182 182 184 184 184 183 183 175 160 127 110 118 151 163 195 253 253 253 255 255 255 255 255 255 255 255
 234 234 235 234 236 236 236 236 236 237 237 237 236 242 222 183 174 144 151 139 118 119 129 151 161 158 158 155 161 157 163 162 156 162 159 156 166 157 163 164 162 165 161 163 168 173 174 173 173 175 174 177 178 180 182 178 180 178 182 181 184 187 183 185 182 184 182 183 185 186 182 186 187 184 170 148 108 120 146 171 195 248 253 255 255 255 255 255 255 255 255 255
 235 234 235 235 235 236 235 235 236 236 236 238 237 231 222 177 170 159 157 121 121 125 131 147 149 157 157 153 159 160 161 157 160 162 158 161 159 165 165 166 166 163 164 165 169 174 175 177 177 175 173 179 180 178 181 182 184 182 182 183 183 183 183 182 186 184 181 182 182 185 186 187 189 185 179 162 134 112 145 159 205 249 252 252 255 255 255 255 255 255 255 255
 235 235 236 235 235 236 236 236 236 235 236 237 237 235 224 183 176 164 144 120 119 123 140 150 155 158 158 162 161 159 159 159 158 157 158 163 160 161 163 169 164 167 170 171 172 174 176 177 175 179 177 182 181 182 185 184 186 186 186 185 183 183 184 183 190 184 186 182 187 181 187 186 191 183 186 170 145 135 154 149 203 246 254 254 255 255 255 255 255 255 255 255
 235 234 236 236 236 236 236 235 236 235 235 236 236 234 225 190 185 152 142 131 133 145 149 156 157 159 159 158 157 161 160 162 163 162 156 164 160 159 160 165 164 169 169 171 173 177 179 179 182 183 179 182 185 189 188 187 190 188 186 189 188 187 186 179 189 186 191 190 189 186 185 191 192 192 190 184 162 137 136 150 186 244 252 254 255 254 255 255 255 255 255 255
 235 235 236 236 236 236 235 235 235 236 237 237 237 236 227 186 173 160 137 131 140 149 150 161 158 159 157 158 156 161 164 165 159 159 165 168 162 164 168 163 166 166 172 174 175 178 180 182 182 184 187 187 188 185 191 186 182 188 189 191 191 189 189 191 188 190 196 194 189 184 190 192 197 197 198 192 175 157 147 152 168 234 252 254 255 255 255 255 255 255 255 255
 235 235 236 235 235 235 236 235 236 237 236 235 236 236 224 176 171 140 143 138 140 146 147 156 160 159 154 163 160 159 161 164 159 158 161 165 166 167 172 163 166 170 174 172 177 178 182 181 181 185 182 178 185 188 191 188 185 188 187 189 190 190 189 191 187 190 194 195 192 193 192 197 201 198 199 195 184 167 146 131 168 213 252 253 255 254 254 254 254 254 254 255
 235 235 235 236 236 236 237 235 237 237 237 236 237 237 217 170 176 159 136 139 139 149 151 152 156 158 158 159 152 160 155 160 158 160 163 167 172 169 168 168 170 174 177 174 177 181 181 181 184 186 188 179 185 188 188 186 184 184 184 187 190 185 188 188 189 194 195 193 192 192 194 195 198 198 199 194 194 176 160 143 158 195 249 253 252 255 254 254 254 254 253 252
 235 235 235 236 236 236 236 235 236 237 238 236 236 237 219 178 168 142 140 137 145 153 162 158 158 158 157 159 156 159 164 157 159 160 168 166 169 171 169 170 173 176 179 179 178 176 177 178 183 181 183 179 182 181 180 180 180 180 180 183 184 185 189 189 190 190 191 193 190 195 194 196 196 196 192 195 195 186 166 144 153 169 245 253 254 253 255 254 253 252 254 253
 235 236 234 236 236 235 235 236 237 234 236 236 238 235 208 175 166 139 141 141 148 156 160 162 160 162 160 158 157 162 160 157 161 159 167 165 167 172 171 172 179 179 180 177 175 174 174 183 181 182 180 182 180 178 178 181 183 184 180 180 181 185 183 186 191 190 187 189 192 188 190 195 195 192 189 191 192 186 174 159 151 175 225 248 253 254 253 252 251 253 252 252
 235 235 236 234 236 235 236 236 236 236 236 237 236 237 204 164 152 143 147 138 135 148 155 157 161 162 158 156 157 161 153 160 162 169 165 170 167 169 170 174 170 177 174 178 176 179 177 177 177 184 180 173 171 171 173 177 182 179 173 182 180 177 183 186 184 188 186 183 184 191 188 185 183 187 182 191 188 187 182 176 159 174 220 248 251 251 252 250 253 251 251 251
 236 236 236 236 236 236 236 235 235 235 236 237 240 228 195 155 165 167 153 147 149 154 155 164 161 161 162 151 159 158 161 165 156 167 168 168 168 169 173 175 173 166 169 174 179 176 175 174 171 176 179 177 176 174 174 176 181 181 181 181 179 182 179 181 176 184 182 176 176 187 185 183 182 177 176 179 190 184 184 180 167 180 229 250 251 252 250 250 250 249 250 251
 236 236 235 235 235 237 237 238 238 237 237 236 236 227 184 171 162 169 163 159 143 154 157 159 158 159 161 157 155 159 160 167 160 167 163 164 169 168 169 166 167 169 168 169 163 163 167 167 174 179 183 179 177 173 171 171 173 178 177 179 181 177 174 173 176 177 180 171 178 178 184 179 181 183 179 189 187 182 196 186 176 193 241 249 249 250 248 250 249 249 250 248
 234 236 236 236 236 236 237 237 235 236 237 236 236 227 180 173 161 167 165 163 151 155 161 161 159 163 157 153 156 160 155 159 161 161 161 167 168 170 166 165 160 168 166 163 175 177 179 174 175 177 174 175 174 171 175 171 174 171 174 179 177 175 173 170 172 178 178 179 176 171 177 174 177 179 179 169 181 174 189 189 176 193 241 249 250 251 248 249 249 250 249 249
 235 236 236 235 235 236 235 237 237 236 235 235 235 219 179 169 173 172 157 148 148 145 156 166 156 162 159 161 164 158 159 161 163 167 166 163 160 168 171 179 170 164 159 167 171 169 167 174 167 167 167 165 164 172 172 175 169 162 174 173 176 174 172 168 167 176 169 168 166 167 169 167 175 172 163 175 185 187 183 184 185 202 239 248 248 247 248 249 249 249 248 249
 235 236 236 236 236 237 235 236 237 236 237 238 235 220 173 176 173 150 155 139 141 153 156 156 159 159 157 164 160 156 158 157 161 168 166 164 161 156 161 171 172 174 169 167 170 169 165 170 169 168 176 180 177 177 176 171 164 165 171 175 173 175 172 167 168 170 169 180 175 181 180 180 180 181 176 182 171 180 184 182 183 216 246 251 248 247 248 248 249 247 250 248
 235 235 236 235 236 235 234 238 238 236 234 235 233 232 170 160 155 148 139 133 136 144 151 159 156 158 160 161 158 156 162 167 166 170 168 171 171 171 172 172 159 155 157 165 175 177 173 174 167 170 169 171 172 175 184 183 177 176 174 176 175 172 175 170 175 178 173 174 169 171 177 182 183 175 173 173 165 165 179 167 176 223 244 250 249 248 248 248 248 247 248 247
 236 234 236 236 235 236 235 236 235 231 205 189 233 227 175 140 139 145 142 138 137 154 159 155 158 160 156 164 157 155 154 159 163 162 165 166 168 166 172 177 177 181 172 168 171 163 162 165 171 172 171 175 175 174 177 181 174 172 171 176 173 177 179 174 168 171 171 176 179 178 180 182 172 167 171 175 183 170 174 172 174 210 245 243 249 247 248 245 247 246 247 245
 234 234 236 236 235 235 235 237 236 192 168 158 143 219 199 134 141 153 147 141 143 152 150 146 159 160 153 159 159 152 152 147 145 151 158 163 162 154 149 157 166 174 175 176 174 182 180 179 179 165 168 166 165 163 164 177 172 171 170 174 172 176 179 172 181 174 178 181 185 179 168 176 178 185 179 184 188 176 174 174 166 190 243 245 246 246 246 244 245 244 243 244
 236 236 235 236 236 235 233 234 231 173 166 163 157 133 208 144 138 146 142 127 129 141 147 149 160 163 159 158 159 150 158 164 167 166 164 168 173 170 176 175 170 167 162 166 171 179 174 178 178 175 178 184 182 177 172 175 177 176 168 171 167 167 174 175 176 177 180 169 168 174 182 180 175 174 172 172 179 169 178 172 150 191 245 246 243 244 245 241 244 244 246 245
 236 236 236 234 236 233 232 235 221  96  75 147 155 152 125 152 153 150 140 119 116 133 149 153 156 158 156 153 158 156 155 156 160 168 168 166 164 162 168 170 166 169 177 176 167 158 170 182 185 176 174 177 172 168 165 163 176 176 169 168 168 172 171 178 175 173 174 178 179 173 179 176 179 185 181 181 178 172 174 171 149 202 245 247 245 244 244 243 244 243 245 245
 236 236 236 236 235 238 234 235 200  86  76  91 146 148 143 125 162 163 124 114 118 139 146 150 153 158 158 155 156 156 153 163 165 159 151 153 166 167 165 161 158 154 164 171 168 172 172 165 164 176 179 179 177 172 169 157 166 170 164 160 164 164 170 171 172 177 172 173 174 166 162 166 167 169 175 172 182 164 169 176 150 201 244 243 244 242 245 246 244 243 245 245
 236 236 235 235 236 235 236 232 186  88  79 102 143 144 144 144 150 155 113 117 118 137 151 155 158 155 154 155 158 151 161 157 141 165 166 167 163 159 165 166 171 173 162 161 159 162 165 165 178 177 172 161 162 167 174 168 172 174 160 165 166 174 176 178 175 167 169 171 160 164 175 172 163 150 156 158 173 165 163 170 138 228 241 241 244 244 245 244 244 244 245 245
 236 236 235 235 235 235 233 236 191  92  94 111 154 136 149 149 136 162 126 107 117 145 148 154 159 155 156 153 158 158 151 141 168 164 161 150 143 148 145 148 156 170 170 171 168 156 155 158 159 172 168 172 179 175 168 169 162 168 158 165 169 174 171 172 160 165 161 162 173 181 166 156 151 156 151 142 157 164 167 166 121 236 244 243 243 245 245 244 245 247 246 245
 236 234 236 236 236 236 236 235 210 118 109 127 163 153 150 148 150 158 133 129 127 147 156 156 161 155 159 159 152 156 151 154 148 154 128 110 110 118 123 123 129 136 144 160 168 170 159 156 154 159 168 169 166 169 168 169 161 168 163 168 169 163 161 164 159 162 163 172 174 164 138 133 123 107 111 126 146 162 171 157 113 236 247 245 245 244 244 245 244 247 244 244
 236 236 236 236 236 236 234 235 229 133 104 131 148 143 153 154 164 137 148 106 138 153 156 153 157 154 156 153 153 150 141 152 152 114  92  97  96  97  87  86  79  90 104 122 147 155 159 158 153 150 154 163 158 161 163 169 146 173 178 177 175 160 157 155 152 161 163 175 151 114 107 102 117 117 120 136 147 157 178 148 135 240 246 247 244 246 243 243 245 243 243 244
 235 237 236 236 236 236 236 235 236 153 111 146 151 158 129 144 159 156 161 124 152 158 162 156 158 156 151 158 149 142 151 142 138 104 128 145 149 143 141 127 111  86  73  82 113 119 134 149 148 147 147 148 153 154 151 159 127 156 166 163 164 158 156 156 165 166 152 125 100  86  86 114 138 148 155 152 148 158 170 162 163 242 244 245 245 244 244 243 243 242 244 243
 236 236 236 236 236 236 236 237 232 169 119 149 131 111  77 120 156 164 152 130 149 160 164 160 158 158 154 154 148 144 146 147 131 132 151 160 165 159 153 151 134 101  91  75  72  88 100 118 131 133 132 133 138 133 141 154 138 138 154 156 153 148 155 162 159 130 107  89  90  94 130 143 150 151 155 153 153 145 171 176 192 245 240 241 245 243 244 243 242 242 243 243
 236 236 236 236 236 236 236 234 236 194 125 157 128  97  84  74 148 161 150 138 156 159 160 158 159 152 152 150 145 150 134 148 129 146 150 149 143 148 143 150 140 123 106 102  88  63  67  72  92 108 114 111 118 113 132 145 144 116 138 138 134 141 138 125 118  90  83  76  97 122 136 147 137 127 153 145 148 157 172 164 212 241 240 238 243 243 242 242 242 241 242 243
 236 236 235 236 236 236 236 235 235 195 132 150 120  92  82 109 155 160 159 152 155 161 164 163 165 155 146 147 152 147 132 137 125 138 147 139 135 128 130 125 135 117 115 110 106  92  87  77  79  85  89  90 105 108 134 145 154 115 131 113 103 101  83  68  71  68  79 104 125 130 112 123 145  78 123 135 150 157 181 161 219 240 240 241 244 243 243 244 241 242 242 244
 236 236 236 236 236 237 236 237 236 196 135 147 118  92 106 144 151 173 155 158 159 157 165 169 165 160 149 151 149 145 137 135 124 142 150 154 160 164 165 147 123 131 129 128 110 102  97  78  73  79  95 116 128 141 156 156 155 136 118 106  85  65  67  64  75  83  97  84  82  81 110 111  99  73 119 139 151 160 177 155 225 241 242 244 245 244 245 242 241 242 243 243
 236 236 236 236 235 237 237 237 232 198 150 145 116 105 123 154 161 146 171 162 144 155 163 170 170 162 161 152 142 137 143 134 138 148 134  81  63  46  40  17  40  33  48  52  65  81  94  80  75  70  90 122 151 159 163 163 156 145 125  93  59  57  59  66  54  52  35  29  41  61  66  94 127 109 123 151 161 163 178 164 230 244 242 244 244 245 244 242 241 241 242 242
 236 236 236 236 235 237 237 236 238 217 158 149 132  99 130 165 165 155 160 140 149 159 158 166 168 166 161 162 146 151 154 139 133 132  71  76 196 129  93  10  26  60  92  87  61  62  63  69  67  67  98 123 164 169 169 160 144 129 127  54  49  46  43  47  40  50  57  64  63 120 140 108  91 136 131 145 163 165 174 159 237 242 241 240 243 243 242 242 241 242 238 235
 236 235 235 237 237 237 236 237 235 227 155 152 144 121 131 166 166 143 152 135 146 154 165 161 161 160 163 159 163 155 151 142 138 118 126 139 132 104  71  53  70  76 128 129  92  83  76  77  76  73 111 133 152 165 168 170 169 163 121  41  51  53  40  69  68  74  21  27  73 111 162 143 170 148 145 158 164 167 170 153 239 237 241 240 240 240 235 227 216 203 191 184
 237 237 237 237 237 238 236 236 237 233 160 161 152 151 138 157 166 149 146 135 145 151 153 159 161 163 165 165 158 164 164 161 140 139 157 155 168 160  82  74  81 130 141 130 119 105  88 102 132 123 122 144 149 163 164 166 167 163 101  84  74  64  57  91 118  65  75  70  74 139 143 163 173 167 159 155 159 167 165 174 235 233 227 214 206 195 191 191 192 193 194 193
 237 237 237 237 237 237 237 237 238 233 173 161 156 159 127 146 158 135 143 141 149 140 151 154 154 158 166 161 169 170 168 167 166 144 153 153 143 157 159 152 143 141 147 143 129 107  86 103 107 113 138 148 150 170 175 172 171 174 125 103 104  86 114 122 137 128 105 107 139 136 159 166 156 164 158 156 156 166 158 170 200 196 190 194 194 192 195 197 196 197 197 198
 237 237 237 237 237 237 237 237 236 234 204 159 155 157 145 134 156 143 153 147 142 142 151 156 154 161 166 162 165 165 168 163 165 154 145 155 144 144 143 146 139 127 127 118 117  98  93  94 108 128 146 150 152 160 172 171 170 167 146 107  95  83 103 113 123 126 132 135 144 147 147 146 155 167 159 165 167 169 145 170 199 198 193 196 196 197 197 199 198 199 200 199
 237 237 237 238 238 237 237 237 237 232 228 155 154 165 162 165 161 152 163 129 142 150 151 152 147 153 157 160 162 160 166 171 174 160 151 141 144 141 137 126 127 115 112 105  91  86  99 102 129 141 155 144 155 161 169 176 176 173 154 130  90  84  98 103 112 118 127 133 135 138 136 142 153 164 154 159 165 165 148 160 201 197 196 195 196 197 199 199 198 199 200 201
 237 237 237 237 237 237 237 237 236 236 234 182 158 157 157 156 144 169 140 121 144 146 146 150 150 154 158 156 163 169 168 155 160 160 154 149 138 134 122 116 106 101  91  91 104 103 100 132 145 160 152 141 154 160 165 167 173 172 160 152 121  84 102 102 103 104 108 113 115 111 108 137 149 153 151 159 160 150 116 166 199 199 199 197 199 200 200 200 200 199 199 199
 237 237 237 237 237 237 237 237 236 236 234 214 154 159 158 151 155 191 149 150 138 147 149 154 152 152 152 154 160 160 160 167 164 165 161 155 143 129 114 103  98 102 115 113 118 108 133 158 152 159 143 143 153 154 158 166 166 171 163 148 154 124  93 100  92  84  79  84  89 105 128 150 155 152 152 153 162 132 128 182 200 201 203 200 200 203 199 199 198 203 204 202
 237 237 237 237 237 237 237 237 237 236 234 235 174 146 139 149 152 192 157 156 143 141 147 151 149 147 149 154 160 166 156 162 164 152 152 154 155 153 148 139 134 131 123 121 113 133 161 162 157 157 154 156 152 150 160 166 167 165 162 153 149 155 134 116 113 120 119 137 139 149 149 143 143 150 150 156 161 121 133 192 202 203 204 200 198 197 200 194 196 199 202 196
 237 237 237 237 237 237 237 237 237 236 233 233 232 173 141 149 155 188 155 161 118 126 143 146 144 147 148 151 154 157 161 157 147 162 159 157 151 150 152 139 133 126 119 120 136 161 165 159 156 151 159 153 157 145 154 167 175 166 174 146 148 158 148 141 120 119 123 131 133 132 142 145 140 141 150 150 152 123 125 196 206 187 127  78  54  34  43  49  41  49  43  44
 237 237 237 237 237 237 237 237 236 237 238 238 236 234 199 124 127 152 152 158 111 106 136 140 138 144 145 150 146 148 152 161 157 151 157 155 152 141 136 125 124 120 125 146 159 161 163 156 152 152 153 153 154 148 155 170 163 172 173 149 144 154 156 153 148 123 121 129 129 130 137 141 146 148 142 146 143 128 115 155 115  35  20  26  24  28  31  32  35  37  34  32
 237 237 237 237 237 237 237 237 238 237 234 235 235 234 233 235 223 205 175 168 120  99 124 140 143 145 142 139 139 149 150 156 153 151 151 153 157 151 147 150 147 148 154 162 164 161 158 151 150 146 151 148 146 145 155 165 161 164 175 153 146 146 159 159 165 158 136 138 141 144 153 145 152 150 144 149 127 128 130  79  41  22  23  25  26  24  31  28  29  32  34  31
 236 237 237 237 237 236 237 237 238 238 237 236 234 240 237 236 237 232 179 171 130 113 118 128 138 143 146 140 141 147 153 151 153 150 158 159 162 157 165 164 164 170 165 166 166 158 151 149 140 139 149 146 143 147 158 165 163 164 171 154 153 136 150 148 156 169 169 158 167 160 147 147 148 148 145 150 129 120 141  33  23  25  22  20  22  21  26  27  29  28  30  30
 237 237 237 237 236 235 235 236 238 238 237 237 237 236 236 236 235 233 166 171 130 117 114 125 133 134 144 144 146 151 156 152 157 159 156 158 163 168 167 165 169 168 160 163 157 149 135 124 125 136 142 146 151 143 152 162 169 167 171 154 152 115 119 134 144 160 162 163 162 162 158 145 152 147 148 144 131 124 113  20  22  18  20  19  20  21  25  21  23  22  21  26
 237 236 237 237 236 237 238 237 238 238 237 238 237 237 236 238 239 231 156 163 122 121 114 115 132 128 147 154 153 151 158 157 149 160 162 164 167 168 165 164 164 161 158 157 145 135 117 106 128 138 137 143 147 150 143 162 172 163 167 162 155 102  91 112 122 138 150 156 162 166 165 154 153 151 151 137 107 125 112  80  22  17  19  15  21  23  19  27  23  25  23  24
 237 236 237 237 236 236 238 238 234 235 235 238 238 235 236 237 237 235 164 141 143 133 100 109 115 117 139 157 156 146 159 157 155 153 165 169 165 162 163 160 161 153 152 148 132 119 103 108 140 138 134 139 138 148 149 162 166 160 160 167 157 142  72  96 116 131 136 151 154 159 164 161 153 150 154 123 122 112  92  26  21  17  18  14  17  20  23  23  20  21  21  23
 237 235 237 238 238 238 238 238 238 237 235 239 238 233 224 214 202 193 167 147 154 129 120 107  90 120 138 151 162 156 159 154 155 160 166 166 163 165 158 151 152 150 143 135 123  94  96 112 135 141 140 130 142 145 151 163 165 158 157 158 171 183  67  88 110 116 130 139 141 145 157 161 155 156 154 125 117 101  77  25  20  17  18  18  17  22  21  19  22  20  23  19
 236 237 237 237 235 235 237 236 232 227 218 207 195 188 188 190 195 194 182 154 175 108 116  95  92 106 121 154 156 156 153 155 161 159 162 158 160 161 161 155 154 143 133 114  97  98 113 117 141 149 136 131 146 153 156 157 151 148 159 145 162 159 100  68  89 112 120 133 134 145 147 152 153 159 145  97 118  96  58  24  19  18  19  19  19  21  19  20  20  22  17  23
 237 236 236 232 225 216 205 195 188 187 180 190 195 197 196 195 199 200 197 156 161 116 129  95 112 109 128 146 147 156 150 151 163 163 161 163 160 158 159 148 145 137 116  92 110 138 132 132 139 146 136 143 158 160 160 157 144 149 150 149 148 148 141  68  74  97 114 127 132 137 141 145 155 152 128 111 125  89  51  16  17  13  14  15  16  15  19  21  20  20  20  19
 218 204 193 185 182 186 190 192 194 192 185 192 198 198 198 195 195 197 186 153 177 127 138 100  85  87 113 130 148 149 155 156 162 163 160 162 162 159 155 144 128 116  91 117 144 144 138 126 153 139 134 133 146 150 154 152 155 154 145 142 138 130 128  97  65  84 105 119 133 135 140 151 156 137 114  94  96  86  34  24  19  17  15  17  18  18  21  22  18  20  18  16
 180 184 192 193 192 194 194 195 198 200 201 200 200 198 198 196 197 199 192 177 173 183 115 111  75  58  77 111 136 144 142 150 156 156 157 154 159 148 140 134 116  99 129 149 149 151 129 115 115 130 131 121 128 142 143 143 145 138 143 134 129 122 132 117  89  71  93 113 129 135 138 145 144 130  89  66 100  69  26  11  13  16  15  20  22  20  20  19  21  21  18  21
 195 197 197 196 198 199 199 200 198 199 198 199 200 199 199 200 202 202 178 176 147 190 111  94  66  56  85 107 120 128 129 136 145 152 153 150 147 145 131 114 102 137 146 153 147 135 126 114  98 101 108 104 108 113 124 135 136 134 136 127 103 111 140 137 119  85  79  98 119 129 134 136 132 128  87  54  92  44  21  18  15  15  13  16  16  20  22  17  21  20  19  17
 200 200 200 201 200 199 201 202 202 203 201 200 199 201 199 189 129  59  39 155 178 175 127  86  69  65  71  87 100 120 105 113 133 136 141 147 144 130 107 111 144 136 132 136 127 120 129 103  99  85  98  93  89 111 115 110 103 110 110 101  99  98 133 135 123 122  85  88 112 130 128 126 118 106  84  66  96  44  18  13  18  15  14  17  17  17  20  20  22  16  20  14
 198 198 199 203 201 200 201 199 199 200 203 199 205 189 101  30  18  21  11 127 149 140  93  80  51  63  68  80  74  86  99  88 122 140 145 144 133  95 106 128 126 112 120 112 122 130 118 112 105  89  93  82 106  97 110  94  84  78  83 106 114 122 111 134 131  99 110  81  98 124 125 120  97  73  56  88  53  33  14  13  15  16  16  17  20  23  17  17  17  19  18  15
 199 200 201 198 197 198 198 199 199 202 202 202 161  41  17   9   9   5   8  26 127 164 117  95  80  65  58  66  72  82  81  68 118 140 145 128 108 103  99  99  95 100  97  99 105 120 110 125  98  88 101  72  93  85  64  67  66  72  83 129 136 140 121 105 138 104 108  93  81 112 117  98  68  59  50  86  28  15  15  18  14  15  12  16  22  17  16  21  20  21  19  17
 199 201 202 200 199 200 199 198 200 202 199 146  27  17   7   8   7   7   6  36 118 158 136  89  80  81  59  76  74  77  68  70  97 125 119 112  97 113  85  86  99  83  87  93 122 116 110 124 106 110  94  89  81  82  45  72  58  73  87 118 138 137 152 107 112 106  87 103  80  99 109  70  43  50  58  67  25  14  13  16  15  16  18  19  16  18  18  18  17  19  17  18
 201 201 198 197 198 198 201 201 199 204 159  34  21   8   3   9   7   9  24  96 142 167 189 125  86  76  74  68  69  59  54  64  78 106 130 112 100  93  72  84  94  83  96  93 136  98 128  73 115 113  94  87  73  87  46  58  72  74  91  80 149 128 130 119 103  95  80  89  87  87  94  53  47  43  47  58  22  15  14  17  15  16  10  14  20  21  19  21  20  20  16  15
 201 198 196 198 195 196 197 196 195 142  49  26   7   5   8   7  15  60 119 133 134 149 194 141 118  84  72  68  58  46  60  70  81  94 115  87  69  66  63  90  77  69  70 110 101  86 106 108 106 109  93  95  49  70  43  68  74  50  97  87 122 112 121 106  86  89 104  79  74  92  79  44  39  36  50  43  25  15  13  14  15  17  12  17  17  20  20  21  15  16  16  17
 198 198 196 194 195 196 191 190 120  42  38  19   9   6   7  25  99 128 139 138 133 139 189 153 124  89  69  57  57  52  54  69  79  80 108  71  67  54  57  49  51  61  64  87  75 125  84 108  95 105  72  71  56  68  50  56  69  60  74  80 119 113  90  74  64  49  62  69  86  93  61  44  33  37  35  36  18  15  12  14  18  13  11  14  19  21  18  16  16  18  20  13
 197 195 194 195 193 197 179  98  50  38  28  16   5  13  70 117 131 140 138 138 138 134 144 179 130 101  78  75  49  42  55  64  92  97  72  65  51  61  51  44  73  94 109 109 104 108  71  70  58  89  63  69  59  51  54  47  67  79  68  73  80  59  51  36  38  36  34  54  79  94  77  48  50  36  36  21  11  14  11  13  16  15  13  12  16  20  22  18  18  18  17  14
 195 190 190 192 188 178  89  84  43  32  27  17  24  91 121 136 141 135 143 141 136 134 149 175 142 121 100  55  37  54  43  91  83  68  62  74  69  54  66 101 123 119 119 123 126 137 120 102  92  82  59  72  45  43  39  42  43  37  53  66  66  60  54  47  40  33  42  67  94  79  79  60  56  49  33  26  17  16  13  16  14  14  12  16  15  24  19  13  18  17  20  14
 186 188 186 192 163  71  74  70  33  23  28  29  67 119 136 138 141 138 144 139 136 131 159 148 159 121  66  45  57  48  43  71  44  53  77  78  66  84 113 133 143 140 145 140 132 140 135 133 124 127 111 120  96  99 100  98  99 107 107 101  96  96  94  85  72  58  68  70  83  64  62  60  64  48  32  19  14  15  15  13  13  14  13  16  18  20  24  17  19  15  15  18
 184 181 184 135  68  65  78  41  29  27  30  27  68 121 141 143 144 144 146 135 136 134 137 136 162 149  79  55  55  61  41  54  47  46  56  82  85 106 114 123 130 150 148 148 143 133 133 130 126 112 116 105 112 104 110 113 117 112 115 117 114 111 108  98  94  79  59  67  58  64  59  55  40  48  26  14  11  14  14  14  13  13  13  15  18  21  17  17  18  17  20  15
 189 179 120  77  73  72  37  31  30  29  25  28  79 131 137 143 142 143 146 138 135 134 132 126 145 144 124  80  64  49  51  51  47  58  83  82 122  86 122 140 138 153 143 145 140 133 127 114  94  99  89  93  90  89  95 114 113 113 123 115 122 128 122 101  98  75  82  72  62  58  51  45  72  56  29  14  12  14  15  14  15  14  12  14  15  18  18  19  14  16  18  17
 144  80  51  39  40  32  31  33  26  25  21  30  98 136 146 148 143 141 142 136 136 130 134 127 133 145 146 119 127  69  55  56  45  62  67  97  93 137 131 131 133 136 135 140 153 142 130 130 112 109  96  78  86  94  98 107 111 108 110 115 117 124 124 127 124  90  81  62  57  47  49  64  75  42  24  31  19  14  14  15  11  10  12  13  15  18  21  19  19  16  18  16
  49  45  34  32  31  29  30  32  23  26  21  35  97 137 139 145 142 136 133 135 136 137 137 124 128 134 152 125 140  85  75  53  69  81  93 123 141 145 152 152 145 138 137 136 132 145 133 111 123 113 115 105  80  92 104 108 119 100  93 117 123 126 136 140 119 123 114  98  51  41  51  58  46  33  23  14  14  16  13  14  12  13  12  17  17  18  16  17  17  20  18  20
  39  40  33  32  33  33  29  29  24  26  25  32  98 136 141 138 139 132 131 134 131 142 141 128 131 132 136 138 116  83  75  51  78  94 114 142 183 158 157 157 145 144 144 138 139 145 130 115 126 129 125  97 105 109 106 119 117 127 107 110 124 131 140 145 123 131 127 118  50  39  46  59  45  32  25  20  18  11  12  14  16  13  12  13  15  18  19  19  19  19  21  19
  35  33  33  31  31  34  28  26  30  29  25  28  83 129 140 137 140 136 131 134 134 138 143 128 125 127 130 130 107 113  66  94  87 109 145 166 167 170 169 161 157 153 153 140 123 133 138 136 133 115  97  84 125 121  86 125 112 132 111 121 133 140 153 149 130 151 121 128  91  54  42  67  40  28  19  16  16  16  12  14  13  14  14  14  17  18  18  21  18  18  18  18
  33  36  39  31  34  30  28  28  28  29  25  28  69 119 130 132 135 134 135 137 134 143 142 128 126 134 122 120 121 111  86  98 103 134 169 172 174 173 158 177 172 152 169 140 138 139 128 134 105 111  97 102 120 138  94 102 132 134 133 142 147 133 158 168 164 142 156 135 126  82  63  41  31  21  13  13  15  13  14  13  13  13  12  16  17  19  18  19  19  20  15  18
  33  30  34  31  28  26  26  28  29  33  31  23  58 106 126 129 133 136 139 142 140 137 139 132 127 128 128 126 129 141 113 108  98 143 171 175 181 170 180 180 171 162 156 143 150 153 124 131 117 105  96  90 143 140 112 119 121 136 135 151 168 160 153 182 176 169 150 144 119  87  39  39  23  18  15  15  14  13  14  12  12  11  11  13  15  17  19  18  20  22  18  19
  28  31  30  32  31  29  28  26  28  28  30  27  40  87 119 126 131 136 140 141 141 134 135 138 125 130 128 124 120 129 115 120 132 144 164 182 174 182 180 174 183 160 162 173 159 154 135 132 126 110 137 108 145 137 124 138 141 141 136 145 177 174 154 163 187 179 140 138 120  63  35  25  19  17  18  16  14  14  14  13  14  14  14   9  20  22  19  19  17  19  14  18
  34  32  31  33  28  30  27  26  27  31  28  27  28  73 109 122 131 134 137 139 142 132 136 136 123 123 129 124 128 125 123 111 143 144 155 186 168 168 171 184 184 168 168 162 168 149 124 144 133 133 120 120 120 144 119 147 131 157 156 184 160 198 173 152 184 183 152 143  99  71  31  21  17  18  17  15  13  11  14  11  11  14  14  12  21  20  23  20  21  20  18  20
  32  28  28  27  29  29  24  26  28  25  32  22  28  46  84 121 128 129 133 138 140 131 134 134 125 129 123 126 118 127 129 138 143 158 168 180 175 163 169 194 178 176 161 171 158 168 136 157 121 127 125 131 138 149 127 117 143 139 158 173 175 190 175 168 174 171 174 135  89  27  20  21  23  15  14  16  13  14  12  13  15  13  13  17  21  20  21  21  19  17  17  18
  29  31  27  27  29  29  27  27  30  27  28  30  26  27  67  99 125 127 129 134 134 131 132 126 125 125 123 123 124 121 128 126 141 160 173 169 178 155 164 191 177 182 173 168 164 150 146 150 146 144 129 114 119 141 119 103 136 147 156 170 188 170 189 173 177 179 140 101  45  24  21  16  14  16  16  14  13  12  10  10  15  14  10  19  21  20  19  19  22  21  16  18
  26  31  32  32  31  29  29  28  23  27  24  28  24  25  45  77 111 123 128 129 126 137 136 125 117 124 121 124 125 125 121 119 130 156 168 157 167 165 165 176 166 168 174 176 164 143 156 165 159 164 123 131 103 154  97 124 110 127 166 156 166 168 194 175 176 159 141  90  31  10  22  18  20  17  16  15  17  15   9   9  14  14  15  20  21  22  17  21  22  20  20  21
  29  28  28  31  28  26  30  30  29  24  29  30  29  27  23  54  84 113 119 126 128 132 137 119 111 127 124 126 118 126 120 120 121 147 162 169 169 167 169 167 177 179 162 170 153 150 159 165 159 160 121 124 121 137 106 123 133 129 155 162 154 169 173 157 158 150 131  57  40  17  15  18  18  13  15  17  17  13  10   9  14  16  19  23  20  22  21  22  20  18  17  19
  32  28  30  28  29  29  27  27  28  29  30  28  28  28  27  25  57  88 112 120 124 127 126 126 112 120 120 119 119 120 120 108 122 127 162 167 160 168 168 148 160 168 180 158 148 147 158 145 161 155 116 132 125 103  95 127 118 134 152 133 155 165 158 142 160 140  95  55  25  20  20  19  16  17  17  17  13  12  12  10  13  15  17  19  21  22  23  21  19  20  18  17
  23  30  30  27  29  28  26  29  28  27  26  26  27  28  31  22  30  58  90 117 120 120 122 122 112 111 113 115 112 114 114 114 117 127 119 144 157 152 161 149 150 168 149 168 156 148 155 138 172 148 113 131  93  82 109 126 110 116 134 141 140 147 146 142 137 105  49  23  23  23  21  19  15  17  16  15  13  14  11  13  15  19  22  22  24  18  21  19  22  18  17  21
  24  27  27  26  27  32  29  31  27  28  28  29  26  26  29  30  30  26  67 101 113 121 121 125 117 113 116 115 116 114 104 112 119 121 116 127 118 122 149 151 141 155 137 167 149 159 141 144 130 127 115 111  85  87 106 134 128 111 150 137 135 126 120 114 111  62  13  20  20  17  21  20  15  16  15  14  15  11  10  13  15  18  17  21  20  23  20  18  22  23  20  22
  31  29  27  29  27  27  28  28  28  23  28  26  25  28  27  26  24  23  36  66  97 116 119 128 119 116 112 115 114 110 103 100 107 115 113 111 106 110 114 134 146 131 149 160 146 143 119 110 111 127 108  92 106  90 101 149 129 143 142 139 108 102 101  96  76  35  16  17  22  20  20  17  15  16  16  15  13  13  11  17  18  23  20  26  20  24  26  19  23  25  18  21
  27  27  25  27  29  25  29  25  29  28  26  28  26  24  29  28  34  25  22  32  74 108 118 121 123 120 117 118 114 111 101  98 104 105 106 102  97 105  94 126 123 126 147 155 141 135 126  95  91  99  88  81 111 101  84 129 136 140 129  92  79  81  81  80  67  26  20  21  17  19  20  14  18  18  15  14  13  14  11  17  19  22  23  22  23  25  24  17  21  20  21  24
  28  27  26  28  24  24  25  29  26  27  29  28  26  28  31  26  31  27  27  26  35  83 111 115 124 123 116 119 117 110 102  96 104 103 101  98 102 103 101 102 102 107 130 124 109 111 121 101  91  82  77  85 108  80  86  91 117 109  74  82  78  77  83  74  55  17  22  17  19  17  15  16  14  12  12  14  13  12  15  14  22  25  22  24  27  24  22  22  22  19  21  24
  28  22  27  27  23  24  25  23  26  25  28  26  28  21  27  27  28  27  26  25  30  43  92 110 121 127 121 117 112 105  99 100 103 102 103  95 103 105 105  98  96  90  92  84  79  88  79  69  66  61  70  72  93  69  55  58  86  70  74  73  81  80  86  69  45  19  22  19  19  19  20  13  19  17  18  16  14  13  14  16  20  26  24  23  25  26  24  27  27  21  21  20
  23  24  27  26  23  28  24  26  28  26  26  27  31  27  26  25  25  26  29  31  23  25  48  99 115 121 124 115 108 103  99  96 103 105 104  97 103 105 104  98  97  90  80  86  88  79  71  63  68  59  62  67  54  61  58  66  74  77  72  76  79  85  81  72  35  19  20  20  16  18  20  18  14  14  17  17  15  10  20  15  23  26  26  21  27  26  23  29  27  22  24  24
