P2
# Generated by OpenCV 4.2.0
92 112
255
 165 164 164 159 150 159 171 166 165 175 170 163 154 139 141 149 144 132 121 109 106 118 119 113 103  85  79  73  79  90  81  73  75  74  75  77  72  73  69  70  54  71  68  61  70  60  57  66  62  64  77  65  62  61  61  43  38  44  38  34  35  36  37  40  43  40  36  39  46  43  34  35  36  35  34  34  34  35  38  38  34  38  36  29  36  38  28  31  30  29  28  31
 169 172 170 164 167 172 177 173 168 168 172 174 162 148 149 151 136 124 120 109 107 116 111 108 103  94  95  87  81  85  77  73  76  69  70  67  57  51  50  59  65  58  49  54  52  57  67  71  66  56  60  71  65  61  59  49  45  38  32  34  39  40  42  41  42  38  35  37  43  45  40  34  35  39  37  35  35  37  34  33  35  38  33  30  44  53  41  35  44  43  36  42
 175 179 177 177 179 179 178 172 161 163 172 176 165 150 138 134 130 120 114 108 113 111 108 109  95  90 110 119 102  88  78  66  73  55  49  48  55  50  55  75  84  75  64  67  64  57  61  65  58  70  66  64  59  52  60  56  59  58  45  38  41  40  42  40  37  36  33  34  39  44  41  37  33  34  37  37  38  37  32  31  35  38  30  35  46  62  72  44  53  64  57  69
 179 186 186 182 175 173 172 168 164 169 178 181 169 154 154 161 166 145 117 111 114 106 107 109  99  88  95 104  95  77  70  64  62  45  55  56  57  56  60  74  74  69  68  61  62  61  67  63  63  61  64  65  53  55  53  52  65  57  58  50  52  43  44  40  40  39  38  38  36  41  39  39  38  34  32  36  39  36  35  35  32  33  36  47  47  43  54  47  42  48  64  74
 186 191 189 180 175 179 181 180 178 181 182 183 182 178 176 180 179 157 124 114 111  96  87  97 103  92  81  74  70  44  47  48  49  53  57  55  56  55  71  71  70  79  77  70  66  61  71  70  65  57  64  66  65  66  59  48  48  53  51  54  60  45  49  46  51  42  38  41  37  37  41  39  38  38  33  31  32  31  32  32  32  36  38  41  39  33  49  66  57  58  72  76
 190 187 187 189 189 195 195 189 183 187 183 178 173 168 165 147 139 137 123 120 119 111 110 100  94  92  74  58  44  42  42  34  44  56  59  53  59  66  81  71  81  91  73  76  80  77  89  79  72  69  62  70  79  69  57  49  46  56  55  57  51  50  63  62  55  48  44  42  40  37  40  41  41  40  35  34  39  38  32  32  40  41  31  33  41  41  66  84  72  74  72  69
 187 188 192 197 199 196 189 183 180 182 182 175 157 150 151 139 134 138 127 131 134 142 149 113  88  74  55  51  53  54  50  47  62  74  73  75  83  86  88  91 106  99  87  95  92  89  91  89  88  77  75  68  76  65  70  69  55  57  58  60  56  59  59  58  57  62  55  44  45  41  34  38  47  46  43  46  47  42  33  33  40  39  42  61  60  64  73  73  75  74  64  66
 193 196 195 195 193 191 193 191 188 188 185 174 164 151 147 148 140 145 138 127 114 115 117  84  59  52  47  42  43  38  48  84  87  83  84  92  91  94 101  94 104 113  92  88  93  95  95  95  86  87  86  82  76  72  80  76  61  55  48  48  58  56  49  52  56  57  55  48  49  44  33  34  44  44  42  42  39  35  30  31  36  41  54  68  71  87  87  72  81  86  71  69
 194 196 195 189 189 196 206 207 197 185 178 177 187 187 184 166 140 137 138 127 111  94  78  51  43  46  46  38  42  52  78  92  84  77  92  99 107 107 117 108 114 112 107  97 105 105 102  88  91  99 100 100 100  95  82  75  74  63  58  51  57  69  56  49  59  67  47  52  54  46  43  40  45  39  34  37  35  33  37  40  47  55  63  68  74  85  87  85  86  88  79  72
 189 190 190 192 201 205 203 199 192 182 184 194 207 207 193 166 142 138 133 117 102  62  45  33  44  41  38  49  58  76  83  90  99 106 106 103 128 127 127 115 118 122 114 113 113 116 113 110 111 130 124 116 119 120 107 102 100  94  77  67  67  76  56  43  55  67  49  55  55  49  47  46  44  40  43  41  33  38  52  54  60  68  75  81  82  81  86  97 101  93  82  71
 191 190 191 197 201 198 200 203 198 191 193 189 185 175 157 153 143 134 129 113  67  40  32  36  40  42  55  62  79  86  92  97 114 136 122 108 129 132 122 120 120 118 109 116 123 111 116 116 126 144 136 138 143 145 130 119 110 106 102  91  68  58  45  47  51  47  49  51  55  56  58  52  37  36  39  36  35  42  53  56  62  67  74  80  85  85  90 101 101  98 105  82
 202 196 194 199 200 198 203 208 200 191 188 176 170 167 162 156 140 130 103  83  48  45  36  46  54  63  69  91 104 106 106 103 115 135 136 136 136 120 120 138 138 130 137 130 109  94 119 124 134 160 159 164 167 170 152 149 138 118 105  89  78  53  49  50  49  56  54  47  49  53  58  42  42  47  36  36  46  51  53  52  60  68  74  76  81  88  91  97 100 103 115  95
 201 195 196 200 201 196 197 207 201 192 188 178 169 170 166 160 165 150  65  41  44  39  38  47  65  86 100 108 115 129 125 128 144 145 135 134 155 144 133 144 147 137 155 129 111 126 132 146 155 168 164 169 174 176 179 175 157 127 120 112 110  87  54  49  38  47  49  61  47  54  57  46  47  46  49  53  52  54  54  56  63  66  73  87  90  92  98  95  91  97  97  85
 190 193 202 200 194 195 199 207 204 194 191 178 168 175 185 192 156  86  47  33  32  32  39  67 105 119 125 127 125 143 144 153 151 146 143 143 165 156 142 156 155 152 153 134 135 147 163 165 161 173 173 174 177 179 188 182 164 156 154 143 115 101  83  56  50  47  44  51  52  39  48  63  60  56  61  60  52  52  54  60  69  70  72  85  88  94  98 100  97  89  87  86
 195 202 202 196 196 200 199 204 202 194 188 177 181 199 198 180  94  47  44  34  28  34  52  98 124 127 141 147 140 153 157 152 152 158 156 158 175 163 158 176 175 172 161 150 156 170 178 173 171 174 176 176 179 182 190 180 175 186 177 154 147 138 107  78  67  65  57  49  56  46  40  64  66  59  53  51  56  56  58  64  69  78  83  89  90 104 110 112 130 112 100 105
 204 208 203 200 204 206 199 199 201 193 189 190 192 193 182 122  60  53  47  38  43  52  86 112 128 143 154 146 152 162 156 154 163 178 167 171 183 182 188 191 192 186 186 185 174 182 183 182 180 176 179 184 185 188 191 180 180 179 176 177 168 149 129 104  84  66  57  60  57  65  49  50  56  58  60  58  60  59  63  64  74  84  90  99 103 119 114  99 109  95  95 114
 207 209 207 204 203 203 201 200 200 194 190 192 191 186 155  68  42  45  39  43  58  89 110 122 138 151 149 155 167 167 169 172 173 177 175 183 191 193 201 200 200 192 199 201 192 195 199 201 197 187 179 186 189 185 184 179 184 187 181 180 169 154 153 132  86  65  47  57  57  64  70  59  68  68  71  62  61  62  66  68  81  86  86  96 103 111 108  97 103 104  96  96
 208 207 204 203 201 199 204 208 203 199 194 192 188 163 112  51  33  37  38  46  74 112 122 135 150 152 161 167 170 175 181 182 182 180 189 195 203 202 209 206 200 203 209 207 206 201 203 204 198 196 187 188 195 189 182 184 192 188 179 173 172 161 143 131 123  72  52  61  69  64  76  72  77  83  75  73  64  66  71  78  81  85  92 101  98 103 119 129 129 145 133 110
 208 205 201 203 205 202 205 208 204 198 192 193 189 143  83  59  54  46  47  61 105 119 138 148 150 157 169 172 173 177 181 186 187 191 201 201 206 206 209 210 205 207 209 213 213 206 208 207 206 204 198 193 191 192 187 193 193 185 177 171 164 145 134 137 149 109  94  75  59  54  61  68  70  85  87  77  70  59  69  79  82  83  87  94 104 129 141 143 137 137 134 118
 200 198 199 203 206 206 206 205 207 200 190 185 176 150  82  66  58  53  62  91 125 133 146 152 155 161 169 173 176 181 185 191 195 202 206 201 202 205 210 213 210 213 211 212 209 204 205 211 211 206 203 199 197 198 190 194 196 193 184 172 157 113 121 126 133 130 125  99  57  48  56  73  77  88  89  80  75  65  61  70  84  95  97  94 109 127 123 123 120 118 116 109
 192 196 198 196 197 202 207 208 205 200 191 184 156 119  80  73  61  72  91 118 133 144 146 155 160 162 162 173 177 188 195 192 202 207 207 208 208 211 214 216 216 216 215 217 208 203 204 205 208 209 206 203 201 203 199 194 198 198 192 180 168 123 138 138 125 141 131 130  90  67  58  78  88  94  89  84  74  70  65  69  81  97 104  99 104 111 117 135 133 122 129 130
 195 198 199 196 195 201 211 211 201 193 191 180 139  83  74  73  81 101 123 137 142 151 155 157 168 160 159 170 181 194 195 196 205 207 209 209 211 213 219 218 220 220 216 219 217 214 212 211 214 212 211 206 203 198 194 194 193 195 189 186 181 162 144 152 135 157 145 147 139 105  79  84 100 106  92  86  80  79  71  74  82  89  96 105 121 133 134 152 153 139 130 130
 201 203 203 203 204 206 213 211 204 199 189 167 117  75  79  90  98 119 136 143 146 151 156 165 166 162 170 178 183 188 192 198 204 205 209 208 213 215 218 215 220 222 219 221 223 223 219 214 218 216 213 206 209 200 197 194 194 201 194 190 189 173 153 152 145 153 165 153 144 110  88  98 103 106  92  83  87  86  68  69  85  95 101 108 117 133 142 148 158 159 137 118
 199 201 202 207 212 207 206 208 209 203 182 140  92  99 103 111 124 140 143 144 145 156 163 164 166 167 176 183 186 197 195 202 207 211 213 216 218 220 219 221 222 223 224 225 226 225 220 216 217 219 214 211 213 210 203 203 199 197 195 187 189 180 161 150 152 159 166 171 153 130 102 102 104 113 104 101  98 100  93  62  74  93 106 111 117 131 147 161 173 171 145 127
 193 198 202 206 208 199 197 202 202 200 168 121 113 132 133 139 147 148 146 147 148 162 168 164 169 169 182 194 192 199 200 209 215 214 209 217 221 221 224 219 223 226 226 225 229 227 224 222 218 218 216 216 212 212 204 201 201 194 192 193 186 174 167 159 160 161 171 176 165 145 124 113 104 107 119 105 111 105  83  56  57  88 106 110 120 142 152 163 175 171 154 137
 199 203 204 205 207 200 198 202 204 206 157 138 134 131 139 141 154 147 143 150 159 164 163 164 171 180 183 191 192 202 205 211 217 215 216 218 220 221 219 223 226 227 228 229 229 226 223 225 224 219 220 218 212 209 209 200 192 193 189 187 188 174 178 178 171 170 180 183 180 158 134 120 117 108 113 118 100 111 101  70  52  73  85  90 107 124 119 125 147 158 146 127
 202 205 207 205 207 205 207 209 212 208 152 120 122 130 142 147 150 142 145 148 158 159 165 171 183 184 187 191 200 207 208 213 213 214 220 221 220 222 221 223 226 225 227 229 227 227 226 225 226 222 222 221 218 211 214 205 193 194 192 183 181 185 189 180 170 172 174 179 183 170 148 126 132 125 115 121  90 106 124  99  61  62  75  81  87  87  75  84 105 127 137 128
 205 206 208 206 204 204 205 206 202 164 114 108 126 142 145 143 143 146 151 155 158 160 169 176 185 184 186 194 205 208 210 210 216 218 222 221 221 222 226 230 229 227 226 229 230 229 227 223 223 227 226 223 220 212 210 204 201 198 189 183 187 188 187 179 166 169 175 178 180 178 160 142 129 132 126 144 118 102 125 103  59  54  73  87  91  91  88  93 102 115 125 119
 204 206 209 210 205 203 206 204 201 149 113 112 119 137 144 143 139 148 151 154 156 163 171 179 182 187 196 202 206 208 210 218 222 219 223 224 223 226 229 225 227 229 230 232 231 231 229 227 225 229 227 226 221 213 208 206 204 198 193 185 188 191 183 174 173 166 177 184 178 181 166 149 136 123 133 145 159 123 130  96  56  55  67  88  99  98 106 108 109 113 111 108
 207 210 210 205 200 202 206 205 188 126  94  96 111 131 145 142 140 147 153 153 154 164 172 177 184 189 198 205 205 211 215 222 223 222 223 226 225 231 230 225 228 231 233 233 232 228 228 228 223 230 227 224 221 218 217 215 205 199 192 187 188 190 184 176 174 163 176 186 182 183 178 154 144 126 135 146 164 156 155 113  49  46  63  87  94  93  98  95  98 102 105 109
 207 208 203 198 202 203 202 198 183 108  83  90 110 139 148 136 142 154 152 155 164 167 179 183 175 187 200 208 212 215 217 222 225 225 220 226 229 231 228 231 232 233 233 230 231 225 223 228 226 228 229 226 221 220 219 216 205 198 192 187 195 191 178 176 164 165 175 181 177 183 177 153 143 133 138 147 143 154 181 153  50  36  56  78  87  87  87  88  94  94 101 104
 207 207 204 204 207 206 200 199 180 107  88  91 117 140 150 130 141 158 158 150 168 173 184 186 182 196 199 206 213 219 219 224 226 228 222 224 229 229 230 230 228 231 233 232 231 229 228 227 226 223 225 222 221 223 219 203 202 202 197 189 190 189 180 171 168 171 177 171 171 178 174 156 139 148 140 130 135 140 157 165  66  32  47  67  81  85  88  96  97  97 105 104
 208 211 212 211 207 202 195 197 180 101  85 112 132 147 146 130 142 159 161 156 169 181 184 180 192 203 203 209 217 221 222 226 225 228 228 225 228 230 231 230 232 233 233 235 232 230 230 228 229 222 223 223 219 223 217 205 202 199 196 188 190 190 186 174 171 170 172 168 174 184 181 159 145 147 145 126 135 151 153 153  94  28  31  50  67  72  79  81  77  81  93  94
 206 212 217 213 202 200 204 202 157  87  77 111 142 155 146 131 140 156 157 162 172 177 185 180 196 205 206 210 215 219 225 225 226 229 233 234 231 231 231 233 234 234 235 235 232 231 232 231 226 228 223 219 219 222 210 210 207 197 196 194 196 188 188 179 172 169 168 165 175 180 185 169 154 145 143 132 145 153 156 142 100  43  41  62  77  84  83  83  80  81  87  82
 206 208 214 218 211 204 206 202 161  75  68 102 136 151 145 132 145 160 153 165 168 178 186 188 198 207 210 210 215 223 224 229 229 231 233 235 235 234 233 232 231 233 233 232 231 230 231 229 225 227 222 219 216 217 218 209 204 202 205 196 194 191 188 179 172 170 167 162 171 177 182 173 159 149 144 140 148 148 130 128 114  75  61  83 105 114 117 122 123 128 131 119
 210 209 211 219 214 204 205 207 146  59  69 108 140 157 143 134 146 154 162 164 170 181 186 192 197 200 207 215 222 230 230 228 231 230 230 231 233 233 231 231 232 230 228 229 233 227 233 233 231 225 222 218 221 222 218 215 209 202 204 198 198 195 186 177 170 173 173 172 177 170 170 165 156 144 150 147 142 143 128 125 124  70  54  80 105 118 134 136 131 135 139 138
 209 207 207 209 206 203 202 204 138  58  82 122 145 153 150 132 135 153 167 175 173 179 188 194 201 198 206 217 222 224 231 228 231 233 233 231 233 233 230 235 233 230 232 234 234 234 236 234 227 227 222 221 224 220 208 212 209 205 201 199 203 198 188 183 173 170 174 182 181 170 164 161 146 143 136 147 135 139 155 132 110  70  62  86 109 121 118 109 110 113 113 116
 206 205 206 205 203 206 205 205 155  61  85 120 136 146 149 132 134 161 166 177 175 179 189 194 197 206 213 213 219 226 229 227 231 235 234 234 232 230 231 235 234 233 233 232 229 233 237 234 229 229 218 223 223 217 211 210 208 212 206 200 207 200 192 187 176 170 170 175 174 173 171 163 137 139 127 133 136 132 156 156 111  92  65  84 110 122 100  89 110 118 117 115
 211 207 204 204 201 207 209 199 128  65  84 115 137 145 148 131 139 159 165 175 176 187 192 194 188 205 214 212 218 222 230 228 228 232 236 235 231 233 232 236 233 232 230 229 230 231 232 231 230 224 219 223 223 217 213 209 210 215 207 202 206 198 192 188 175 172 172 177 183 174 167 165 141 125 129 116 131 137 148 145 126  89  59  67  89 119 117 100 103 115 132 136
 209 206 198 202 203 205 206 203 137  78  93 114 135 147 148 127 134 148 165 178 176 180 189 198 199 203 204 215 215 216 226 229 226 226 234 233 231 234 230 233 232 229 231 232 233 234 231 233 228 222 221 223 218 218 215 211 214 216 205 205 206 201 196 184 176 172 171 182 180 179 166 162 145 126 139 115 125 129 135 133 124  89  69  60  64 101 121 109 110 114 138 158
 205 205 198 199 204 204 200 206 160  87  96 111 130 145 145 135 134 146 171 182 182 176 187 200 206 205 201 207 212 216 219 227 227 227 231 230 230 232 231 231 228 226 226 227 230 230 232 230 228 225 225 227 220 213 214 215 220 213 209 209 208 198 191 179 176 170 167 179 171 174 167 160 151 128 129 123 118 134 130 135 124  88  75  63  65  97 123 120 124 125 145 158
 205 207 204 204 208 205 206 205 153  91  83 107 134 140 147 144 133 146 166 185 191 188 193 201 206 207 206 208 213 218 221 225 225 227 229 229 231 231 229 230 227 229 229 230 230 228 227 228 224 222 225 223 221 220 216 220 223 218 213 205 203 200 189 179 175 169 169 176 172 167 170 156 157 143 127 123 116 135 136 148 131  96  88  89  75  95 125 124 127 134 139 137
 208 206 197 201 208 208 206 199 150  84  76 107 127 139 149 145 132 153 169 186 188 190 194 197 211 211 204 203 211 219 223 227 224 223 229 231 231 231 230 229 228 233 233 232 230 227 224 225 224 223 224 221 223 226 221 219 223 219 219 214 207 202 195 191 180 171 170 175 165 168 166 161 156 140 121 116 112 131 140 141 128  86  86 128 127 114 130 133 128 131 123 113
 212 203 188 193 205 202 201 203 157  71  77 105 127 137 149 146 134 153 166 180 186 190 193 194 207 211 206 205 212 219 221 226 225 224 229 230 228 228 227 229 230 233 234 232 228 228 226 225 225 226 223 223 225 221 220 221 220 218 215 217 208 206 198 190 179 174 172 174 166 166 159 159 152 142 119 108 113 128 133 129 110 110 143 179 174 153 132 118 111 113 105 100
 210 204 196 198 206 200 202 208 140  69  74  89 117 134 137 150 137 143 162 176 183 190 192 189 204 211 215 209 212 219 222 224 230 227 232 232 229 226 225 229 232 235 235 234 233 232 230 228 229 228 227 224 221 221 226 221 219 215 212 214 212 205 196 180 170 172 173 174 172 166 157 152 147 145 121  97 100 108 126 112 101 157 188 180 157 140 127 108 120 123 133 139
 206 203 196 201 208 201 199 205 141  75  69  96 123 132 130 145 142 144 159 172 182 190 190 187 203 207 219 218 212 219 222 222 232 229 232 229 229 231 229 227 234 234 237 235 235 234 232 233 229 228 224 220 219 223 221 220 221 221 221 223 219 207 195 175 165 164 165 169 167 162 155 146 145 142 122 105  89 106 134 110 134 189 187 153  96 110 127 124 127 122 134 144
 200 191 186 198 213 207 199 207 158  90  74 106 127 125 134 144 140 146 162 168 182 189 195 195 197 201 211 221 217 220 226 224 232 233 229 229 227 228 227 224 234 228 231 232 229 230 229 232 228 228 223 222 216 212 212 218 220 219 217 223 219 204 192 179 164 159 163 164 165 155 150 151 145 143 123  99  89 125 127 104 168 192 150  75  86 104 130 147 129 113 122 140
 200 192 190 202 212 210 205 194 134  89  73  99 122 121 134 136 139 146 159 170 183 191 200 206 213 201 202 212 224 220 225 222 228 235 233 232 229 230 230 219 234 229 224 232 233 233 232 231 229 227 225 218 206 210 218 223 226 218 208 208 211 204 197 184 160 154 160 163 163 156 152 152 142 140 129  93 101 139 116 107 182 152 109  95 127 133 143 155 125 121 138 140
 204 199 201 207 209 209 210 159 119  85  61  86 118 122 129 134 141 150 158 178 188 190 195 201 214 214 198 203 216 222 216 218 225 238 233 230 230 230 233 218 231 226 222 230 235 233 235 229 227 227 219 203 206 223 234 223 199 184 189 193 194 172 166 176 164 154 161 161 164 161 155 148 142 137 129  92 116 145 115 125 166 120 164 132 141 160 160 123 106 114 129 124
 205 203 204 208 207 207 208 146 129  94  64  92 115 122 128 136 142 147 154 169 180 190 213 217 211 216 208 203 210 216 214 205 214 234 239 232 230 230 233 218 222 222 223 227 233 229 226 220 218 220 204 207 229 238 224 185 164 152 149 162 146 148 148 156 161 159 163 157 162 161 151 141 140 134 128 110 127 153 124 129 141 149 192 146 145 165 180 104  95 106 117 123
 203 207 210 211 208 204 203 129 130 115  68  88 115 129 132 140 146 149 155 169 186 180 192 194 202 205 204 213 214 215 214 204 203 217 232 238 230 229 234 218 209 232 230 229 231 225 218 210 207 206 209 230 230 209 177 146 131 127 152 145 125 119 130 152 159 168 157 155 161 154 148 146 140 130 134 125 129 144 113 122 143 157 184 162 149 163 175  96  74  78  92 108
 204 207 213 209 206 203 207 152 108 113  70  75 110 131 135 142 140 151 157 167 182 172 149 155 171 180 196 206 208 216 217 204 199 202 211 227 224 221 222 228 196 216 229 230 224 220 210 217 219 221 217 213 184 150 111  95 119 155 188 183 169 161 161 157 163 163 154 156 153 149 153 152 142 143 139 111 104 127 112 119 137 149 169 171 149 166 167  85  56  50  63 101
 207 208 208 204 201 202 210 175 124 103  75  70 110 131 138 143 140 151 151 154 142 108 104 114 130 144 153 158 180 209 223 215 203 195 200 202 207 206 207 236 211 190 211 217 209 214 220 228 227 211 199 164 139 111  92 153 195 212 204 193 187 182 176 164 157 155 145 152 149 149 156 153 146 140 139 108 112 134 128 116 137 178 171 162 142 162 169  73  47  48  72 109
 203 203 204 205 200 201 208 177 142 121  80  78 113 131 136 142 136 149 151 141 114 106 119 128 124 102 101 125 136 168 189 208 209 199 193 188 191 196 194 217 223 186 198 199 197 204 213 199 193 167 140 104  82 102 166 216 222 214 201 194 188 179 165 167 160 149 146 147 147 156 159 152 147 138 136 118 127 128 132 103  86 140 147 151 140 162 171  64  50  58  75  97
 201 201 204 209 206 204 205 180 151 134  81  88 123 129 138 144 137 140 141 133 155 171 181 191 195 171 127 111  95 100 120 147 173 181 184 185 186 184 168 198 218 187 187 194 179 178 166 140 112  97  84  83 131 181 205 219 213 199 190 179 167 168 161 158 146 144 147 143 152 156 159 152 148 144 138 125 132 124 145  79  79 118 146 164 147 167 159  59  63  60  57  83
 201 202 206 209 210 211 209 190 164 152  99  95 129 131 135 141 141 134 136 150 166 178 182 187 207 210 204 170 131  95  94  86  84 109 137 153 152 150 161 201 220 198 180 188 165 134  90  76  83  97 121 166 195 201 211 208 188 180 185 183 172 169 156 142 143 149 154 150 160 160 161 152 148 148 137 123 145 129 132 118 126 136 154 179 158 164 156  63  69  55  48  87
 205 205 205 205 207 212 215 210 179 161 121  92 123 134 134 137 146 135 131 143 158 170 170 175 188 203 210 212 205 189 165 138 117  96  86  88 104 151 181 205 225 215 196 182 168 119  83 111 141 159 185 201 209 218 218 212 219 214 212 198 182 169 168 153 140 160 166 167 157 158 166 156 154 152 145 119 132 123 117 151 150 146 150 175 156 163 161  64  67  63  56  90
 204 204 205 204 202 204 210 213 184 169 123  97 123 134 143 138 144 141 134 132 148 168 166 167 174 182 185 203 214 220 203 189 184 160 139 128 110 155 185 199 210 201 189 178 150 109 121 149 158 162 163 160 150 136 135 125 111 101  95  95  78  79 107 133 154 180 176 167 161 168 168 157 155 158 144 120 131 118 127 146 173 175 158 172 172 166 157  61  73  84  78 102
 199 201 205 207 203 204 205 204 184 162 123  94 121 138 153 151 144 140 138 130 140 172 185 186 192 198 197 201 187 168 151 145 146 146 140 146 124 130 185 214 232 223 207 186 141 123 136 137 128 118  94  72 103 117  66  60  41  54  50 101 107 101 114 134 164 185 175 167 170 172 166 162 159 156 142 120 123 109 115 150 180 190 163 179 177 164 162  66  73  81  88 121
 202 203 205 208 207 204 200 199 194 160 116  79 118 142 157 159 154 149 145 135 135 126  91 102 124  91  89  61  58  69 110 117  82 111 126 127 122 126 172 207 229 228 209 176 135 137 135 136 127 114 113 109 164 194 119  89  98  91 116 162 171 159 166 148 174 195 175 169 170 168 169 165 160 143 141 131 125 108 102 158 170 169 169 193 165 172 165  67  66  70  88 132
 205 204 204 209 209 204 197 203 208 170 116  84 112 134 159 157 157 160 162 143 121  78 101 117 150 110  66  76  87  99 151 151 124 136 172 184 170 134 169 211 222 229 214 179 140 144 155 193 168 149 158 170 174 176 174 170 180 182 194 181 169 163 158 167 191 197 171 168 170 167 170 161 151 139 138 134 139 111  84 145 158 157 201 183 142 186 156  71  69  66  84 126
 205 204 204 204 205 204 203 205 205 165 127  89 105 129 150 158 161 164 171 156 119 106 145 166 166 166 141 144 166 202 196 176 152 148 194 201 159 143 168 211 230 234 214 184 139 151 139 177 175 140 135 153 178 187 207 224 223 203 181 169 160 147 149 187 193 179 166 176 178 173 167 153 143 137 130 129 134 121 112 117 163 196 187 167 169 191 135  77  73  67  76 111
 206 206 206 204 202 201 204 205 203 151 126  79  99 124 144 158 163 168 167 165 143 135 139 149 173 186 194 201 207 205 182 167 146 150 175 170 138 145 167 202 225 225 208 182 144 159 148 150 164 150 144 152 163 182 198 197 190 179 166 158 156 153 181 194 185 162 160 181 187 179 168 153 144 140 136 129 134 141 119 122 171 206 178 182 195 178 107  71  69  69  78 112
 208 209 209 204 204 202 204 205 204 163 132  88  92 115 130 147 164 175 170 171 170 156 144 156 164 173 180 180 177 173 170 153 146 164 173 157 156 142 164 194 210 216 198 184 148 150 171 156 177 163 152 151 149 148 155 163 168 166 164 164 156 174 185 183 168 160 165 184 184 172 161 150 142 138 132 135 144 148 108 132 199 200 178 193 190 159  84  70  71  74  74 108
 205 207 205 204 203 204 205 207 207 174 130  89  92 104 123 138 161 170 173 173 176 174 158 151 164 173 177 173 176 172 158 156 163 165 164 168 177 146 156 190 212 214 192 179 155 147 177 168 181 190 173 173 176 183 177 178 179 176 178 170 182 189 183 184 160 159 176 186 183 173 156 144 135 143 145 133 139 153 104 141 201 189 177 192 182 128  76  81  80  81  86 112
 202 205 207 203 201 203 206 207 208 178 143 100  90 105 122 133 151 168 173 179 179 173 168 156 157 162 161 163 158 159 171 172 166 167 177 165 166 150 154 188 210 215 204 179 153 161 180 168 175 204 210 196 192 200 199 205 201 193 197 196 203 186 178 176 158 162 179 181 177 176 153 133 130 150 135 131 144 145  95 150 195 178 175 189 160  89  66  75  79  84 104 132
 204 206 208 202 198 201 205 206 210 181 158 108  84 118 118 125 143 161 178 182 175 178 172 170 162 159 156 163 165 173 176 168 172 188 178 153 158 152 152 187 219 220 211 182 141 160 173 167 176 192 212 210 207 188 184 190 195 195 196 196 198 194 180 174 167 171 177 171 169 168 146 129 138 151 137 150 156 147 119 172 191 163 171 179 130  76  69  70  75  83  96 128
 205 205 204 199 197 200 205 208 210 186 167 138 105 120 120 118 136 153 173 181 178 178 176 181 176 177 184 192 191 184 177 176 182 192 167 147 153 145 149 182 208 218 205 183 149 148 166 167 167 181 201 213 212 201 190 192 192 195 195 193 199 199 189 178 175 172 169 164 166 151 135 130 143 158 144 155 171 139 118 172 177 157 170 155 102  80  78  79  79  79  87 123
 199 200 199 199 199 201 205 207 209 194 162 152 126 120 124 118 125 147 171 176 178 181 182 187 188 194 199 195 189 180 172 183 194 191 163 146 153 139 145 178 202 216 205 179 150 143 163 165 162 167 196 207 216 220 215 213 208 204 203 203 210 211 198 189 185 182 177 163 147 129 124 125 141 157 145 151 163 120 119 165 157 149 151 111  78  78  81  91  89  80  90 132
 198 198 199 201 199 201 204 204 205 201 159 157 135 116 126 120 122 137 162 173 176 182 190 190 190 191 188 180 179 177 188 199 196 185 159 143 145 137 148 181 202 222 213 185 164 147 160 162 156 166 193 201 211 218 222 225 224 214 219 216 212 206 202 193 187 181 171 166 144 127 114 119 146 155 147 124 142 110 106 152 141 129 106  77  68  71  82  86  85  77  90 131
 197 196 197 197 195 198 204 204 201 202 167 153 143 101 129 123 121 129 148 170 179 181 189 191 196 198 191 193 194 200 208 208 197 181 160 140 135 138 145 176 201 215 211 184 165 158 152 139 125 153 181 194 205 211 215 221 226 216 215 214 206 196 193 191 185 178 167 163 148 133 110 121 150 148 144 121 138 122  86 117 111  95  72  76  73  76  83  80  78  80 106 148
 193 192 194 195 195 199 204 204 202 207 173 140 148 105 120 130 115 126 142 158 174 179 183 191 199 203 208 215 216 222 218 206 202 181 157 126 126 141 147 181 208 213 206 190 177 167 145 125 118 127 156 173 192 201 202 213 219 218 216 211 203 204 193 185 188 177 166 158 151 139 120 125 139 133 144 137 138 115  90  83  92  82  72  80  84  84  86  95  87  92 133 168
 191 190 194 196 198 200 198 202 203 206 191 137 135 106 117 133 117 118 134 153 170 171 180 192 200 207 214 216 217 223 213 205 201 186 159 119 123 145 172 187 209 225 224 209 194 177 161 127 139 129 123 158 181 189 200 206 204 206 209 207 207 208 201 187 181 178 170 154 152 153 141 118 121 117 138 156 134  98  89  89  88  81  80  82  83  83  85  97  97 108 145 170
 190 190 196 200 203 201 195 197 202 202 206 166 118 129 119 126 123 121 130 146 163 169 179 184 197 206 206 208 214 215 206 206 204 191 159 120 127 154 181 196 211 222 216 211 202 196 165 131 152 139 115 140 153 190 207 204 202 205 205 202 202 203 197 191 178 172 159 152 162 162 140 119 128 124 135 154 132 112  92  89  79  76  87  88  80  80  85  89 104 127 143 163
 194 197 201 201 202 200 196 196 198 203 206 204 162 138 116 118 124 121 133 143 155 163 171 176 189 199 204 205 213 206 206 206 195 175 152 135 139 165 184 203 211 222 213 215 208 190 168 131 149 163 129 129 143 167 190 194 198 198 200 194 196 198 189 184 171 163 156 162 171 163 137 116 147 157 151 152 136 106  89  85  78  76  84  87  84  78  78  87 115 137 142 153
 196 201 203 200 197 199 199 196 195 201 204 203 184 144 112 105 116 125 147 145 150 155 159 178 190 197 203 204 206 207 207 199 188 154 149 144 143 168 194 209 215 220 215 219 211 173 168 141 135 161 147 136 155 138 151 181 191 199 193 190 190 190 183 174 169 158 159 173 173 158 125 100 140 152 156 157 126 105  82  75  80  83  83  81  76  70  72  95 131 146 147 147
 192 191 192 195 197 197 200 199 196 197 198 197 189 165 132 102 111 119 146 147 141 151 159 175 186 194 196 197 205 207 203 190 169 155 169 140 134 166 189 213 227 218 216 227 202 162 153 134 123 156 148 138 163 175 145 152 183 192 200 195 187 186 178 172 169 162 161 176 169 151 118 116 142 158 163 141 121  87  81  80  82  83  86  88  82  80  97 128 156 161 151 150
 195 191 188 194 196 195 198 198 196 197 195 192 194 169 150 125 101 100 138 158 153 154 156 168 179 187 192 198 202 198 196 177 155 182 188 135 122 156 178 197 218 217 221 211 186 156 129 107 121 147 125 128 178 196 185 150 160 184 192 193 192 188 183 182 173 163 166 177 174 151 110 121 138 137 164 136 114  92  89  90  93  89  91 101 109 116 134 162 176 178 167 162
 200 199 196 198 197 196 198 197 196 199 194 191 192 168 163 143  97 101 141 160 159 157 157 162 179 189 192 195 197 192 179 157 175 196 188 142 108 113 150 184 198 202 210 194 150 118  98  91  97  93 102 151 177 189 199 187 152 164 186 192 193 184 183 181 168 162 168 172 162 143 113  91 118 129 137 136 123 105 107 104 105 101 111 124 137 146 163 184 190 191 186 175
 201 200 197 198 195 196 198 196 197 199 194 190 192 181 160 139 136 118 124 159 156 149 159 170 179 188 190 193 193 186 163 173 199 190 174 136 124  91 100 146 167 169 172 157 120  93  74  80  83  97 136 156 165 188 195 195 173 147 170 186 190 186 182 181 168 164 164 162 154 133  99  97 111 131 144 137 125 107  99 107 111 102 118 146 161 165 180 193 191 190 187 176
 192 195 195 199 199 199 203 201 198 198 195 192 190 184 169 143 144  97 103 150 152 146 156 166 172 182 185 189 190 174 169 198 199 176 159 151 131 110  92 108 132 136 135 128  93  75 109 115 121 146 158 161 180 196 191 178 171 162 157 176 185 184 184 174 159 155 153 148 132 115  85 105 123 113 127 146 123 100  90 103 109  96 113 151 174 185 196 198 194 190 185 179
 188 193 194 200 200 199 201 202 199 194 196 193 188 192 181 140 137  99  85 132 157 155 153 160 169 177 185 186 177 168 193 196 192 151 167 168 140 142 137 118  94  96  95  90  74 123 137 131 147 157 159 187 197 193 186 172 156 163 142 164 183 183 181 168 159 158 150 142 130  93  89  94 117 111 124 136 112  83  97 102 108  98 114 151 180 198 202 199 198 192 188 187
 194 195 194 201 201 196 198 202 199 192 191 188 185 188 190 143 124  96  77 115 141 138 140 154 165 173 178 174 164 180 195 180 187 160 174 171 164 171 166 144 141 112 104  94 134 151 139 140 156 188 161 178 182 187 160 143 153 146 159 154 175 185 184 173 163 155 151 127 133 102  73  82  96 102 118 117 118  72  67 106 108 110 130 166 185 197 196 198 203 196 191 190
 197 198 195 198 202 201 202 204 201 191 187 188 190 190 191 172 110  99  79  85 108 113 120 138 156 167 164 168 161 181 192 164 161 157 173 161 166 168 162 132 122 106 130 142 141 145 156 165 167 163 166 157 171 173 177 162 136 132 147 147 156 174 181 175 162 130 137 120 102 111  75  90 106 114 124 108 121  73  19  92 107 108 139 178 191 197 198 202 207 199 192 192
 198 197 191 192 198 203 203 202 198 191 188 189 194 196 194 193 147  87  87  83 100 122 122 104 138 152 153 158 145 152 179 146 163 154 167 180 173 169 158 133 123 124 126 137 126 140 179 150 166 162 159 167 168 162 151 154 130 124 114 108 133 160 175 174 156 122 111 114  86  94 107 116 109 118 133 139 123  73   5  63 109 105 137 175 190 196 200 205 207 204 197 194
 199 198 193 193 197 200 201 200 198 195 193 191 192 196 195 196 175 103  76  95 110 131 109  76 123 167 157 143 142 159 159 129 152 140 160 191 160 165 151 132 137 126 114 130 138 152 164 150 145 163 179 173 145 143 145 128 144 129 125 131 110 116 150 151 148 121 106 102  92  91 115 109  85  98 122 131 129  88   9  35 108 118 146 179 191 197 200 202 202 201 196 193
 198 197 198 199 199 197 198 202 201 198 196 194 193 195 197 200 195 151  78  94  93 119 132 100 115 160 145 131 140 162 124  99 108 120 136 142 132 168 149 113 115  99 117 138 138 147 159 160 148 160 169 143 129 127 130 115 120 124 117 118 130 133 150 149 125 109  84 120 121  97  95  66  52  90 122 128 115  88  17  19  57 117 163 184 196 200 201 197 194 193 191 189
 195 194 196 200 200 199 199 200 199 198 198 197 194 196 199 200 197 176 113 104 110 121 141 112 117 141 152 135 147 145 113  82  81  83  98  86 128 159 144 124 118 132 132 143 152 133 145 149 153 148 151 127 109  99  99  83 101 103 119 139 134 149 169 139 113 108  82 104 129 109  93  83  84 121 129 129 128  87  21  21  15  35 141 199 195 197 195 190 193 195 191 186
 194 193 191 195 195 198 201 202 199 195 194 196 196 197 199 200 199 197 154  96 103 108 135 132 125 146 149 115 142 144 110  72  92  97  81  71  87 112 111 108 108 138 148 151 131 100 103 110 103 103  96  80  74  84 100 102  93 104 120 130 134 122 171 157 115 102  89 109 126 103  86 109 128 132 145 122 115  85  19  21  24   8  32 162 201 188 188 188 192 196 193 189
 193 191 193 194 192 194 202 205 200 193 190 192 197 200 201 202 201 203 187 115  93 117 131 130 135 139 152 144 148 138 111  91 145 148 145 150 132 122 124 105 111 114 109 110 103 102 100  96 106 112 113 119 132 148 151 150 127  94 121 143 157 133 162 161 138 116  94 113 136  82  88 120 125 136 143 144 120  60  15  21  22  17   7  41 178 191 187 188 192 196 194 197
 195 193 194 195 192 191 197 203 202 197 192 190 194 196 200 199 201 204 204 142  95 111 108 117 127 153 175 173 162 146 131 135 177 154 160 178 182 182 188 178 187 172 162 179 169 172 174 171 171 174 166 165 158 169 179 176 162 122 123 136 154 164 171 148 133 120  72  84 133  95  96 128 127 128 145 131 108  36  17  21  21  13  13   5  96 195 185 186 193 197 190 198
 198 195 195 194 192 192 195 196 197 196 194 192 196 200 202 200 200 205 203 175 111 103 110 100 127 141 174 176 163 135 141 178 190 177 166 170 179 180 188 204 194 191 179 190 197 195 194 189 195 177 163 171 175 179 188 194 192 172 156 140 141 187 170 147 122 102  83 107 126 107  83 110 127 132 130 130  92  16  19  20  20  13  12  12  34 178 193 188 189 189 186 191
 196 195 196 195 193 196 197 196 196 195 196 198 201 204 203 197 196 202 201 190 159 103 111  86 100 132 175 163 150 161 175 180 195 186 176 170 148 146 178 186 184 169 166 178 187 187 176 181 189 170 168 183 194 196 196 194 185 184 177 160 154 172 162 136 124 103  98 126 104  94 130 123 136 141 134 130  56  15  19  18  17  12  12  22  10 115 205 200 196 187 186 190
 193 190 193 193 196 199 199 199 200 197 197 201 204 206 202 191 194 199 197 192 175 127 111  80 111 132 152 155 164 183 167 189 196 191 183 165 154 176 178 160 159 154 164 188 180 157 153 165 172 181 186 177 194 203 199 180 165 175 179 170 170 161 147 128 103 102  96 122 104  95 117 125 141 138 146 114  26  18  16  17  15  10  14  22  14  26 139 209 204 193 188 193
 191 189 191 192 196 199 198 199 202 199 197 199 204 207 201 194 197 200 198 195 190 129 102 100 102 109 142 159 165 150 160 191 186 185 185 173 173 196 180 161 174 159 148 184 187 168 180 178 175 184 179 181 191 194 184 166 168 184 163 157 173 172 138 129 101  97 109 106  89 123 100 135 144 148 138  72  15  18  16  15  14  10  18  23  19  14  28 139 208 201 195 198
 192 191 190 189 191 195 196 197 198 198 199 198 197 199 199 198 198 202 199 202 157  61  61 116 117 116 140 146 147 171 183 175 174 178 183 179 184 183 175 165 171 152 141 152 166 178 179 188 183 170 172 176 182 187 180 179 193 189 174 160 142 156 125  93  90 103 135 118  77 111 131 147 142 148 112  33  19  15  14  15  13  10  21  24  18  19  14  20 102 183 206 200
 193 191 188 189 193 193 190 192 197 199 201 199 195 194 192 192 195 197 199 178  45   2  56 134 116  96 119 141 164 199 188 190 189 178 178 176 181 177 172 168 171 168 156 162 159 178 159 164 179 163 173 175 179 180 195 200 195 184 183 172 162 133 135  88  83 104 132 115 108 113 144 148 138 127  68  19  17  15  14  13  12  11  24  24  19  18  18  13   9  47 134 195
 192 189 193 196 196 192 186 188 196 199 199 198 196 190 182 185 191 196 199  87   1   0  37  85 101  97 114 145 189 196 183 199 199 187 178 173 166 166 167 158 152 137 154 158 158 165 179 180 170 164 177 188 192 187 195 196 197 194 174 183 178 140 124  91  95 120 112 108 127 136 154 140 133  90  21  21  15  15  14  12  10  15  25  23  22  20  17  17  18  12  13  69
 193 191 193 194 195 191 188 191 195 197 196 197 193 187 184 187 190 208 154  11   1   0   5   8  61 109 113 150 187 190 190 206 194 201 199 180 175 184 172 178 178 167 180 192 192 181 197 200 193 193 186 204 208 196 182 193 181 191 176 190 209 161 134  86  98 123 118 119 100 134 146 129  97  27  21  17  14  14  13  12  10  21  26  23  23  21  21  21  21  23  16  10
 191 187 186 191 193 190 187 193 196 193 193 196 190 188 195 195 196 204  69   1   0   0   0   0  33 133 132 132 181 177 194 187 203 203 188 192 198 190 186 197 193 193 190 195 206 203 212 195 207 200 195 211 209 191 169 196 196 183 180 172 189 158 128  98 106 102 112 108 135 128 136 119  44  20  21  15  14  13  13  12  10  24  25  24  22  20  20  21  20  21  19  18
 191 187 187 190 189 188 188 192 195 190 188 188 191 195 200 199 207 154  10   1   0   0   1   0   8 100 129 137 159 180 191 194 199 183 197 205 206 188 193 190 177 187 195 191 192 200 208 203 200 200 204 211 210 198 185 201 215 188 190 180 167 153 143 113  91  79  82 109 153 150 124  66  19  23  16  15  14  13  12  11  11  27  25  22  21  19  19  19  20  23  21  21
 197 191 188 188 189 190 191 192 194 190 185 186 190 194 195 199 205  78   1   0   0   0   1   1   0  47  97 120 148 187 196 210 197 194 209 214 205 197 196 177 183 189 189 182 165 177 205 199 198 207 206 206 208 209 194 209 213 205 179 183 167 135 121 111  65  68 103 139 152 139  78  20  26  19  14  14  11  13  13   9  15  28  24  22  22  22  20  19  18  22  23  23
 196 191 187 190 193 193 190 192 194 188 182 184 187 188 194 205 171  20   3   0   0   1   0   1   0  26  87 110 142 186 198 207 199 197 210 200 196 189 186 185 183 164 175 169 155 169 196 206 199 209 214 208 219 215 197 194 201 209 182 161 156 137  91  84  73  94 144 152 148 105  24  25  22  17  15  13  11  13  12   9  19  28  23  23  23  21  20  20  20  22  22  23
 193 188 185 188 190 190 186 188 190 183 182 186 183 187 198 213 111   3   3   0   0   0   0   1   0  12  80  95 100 168 186 193 200 204 200 189 189 178 194 185 166 163 188 188 178 158 190 203 190 196 203 196 210 216 207 189 190 190 175 154 134 110  84  73 112 140 149 137 126  37  23  26  20  15  15  12  12  12  11   9  22  26  22  20  23  23  22  21  21  23  23  24
 191 189 188 189 189 189 186 187 188 184 187 190 188 194 208 207  51   3   2   0   0   0   1   1   0   2  71  94  85 141 168 187 206 207 194 206 195 187 189 182 186 188 180 176 178 162 179 201 181 192 206 188 200 218 212 191 195 159 139 135 112  59  81 116 125 140 146 127  43  20  29  22  19  15  13  12  12  11  10  14  28  27  23  21  22  22  22  21  21  23  23  24
 191 190 192 196 198 196 189 185 185 187 190 197 202 198 181 119  13   9   2   0   0   0   1   1   0   0  61  98  97 104 126 185 206 196 202 206 192 191 189 193 190 184 172 157 171 172 183 193 166 183 210 188 188 207 193 193 180 140 130  95  49  75 127 123 136 143 148  72  15  30  26  21  17  16  13  11  10  10   9  20  27  25  24  22  23  23  22  21  20  22  24  23
 190 191 198 202 200 196 190 185 188 195 195 182 140  82  36  11  12  10   1   0   0   0   1   1   0   0  52  98  96  95  92 129 194 195 185 198 191 190 187 165 171 179 179 166 182 189 164 176 157 174 204 201 187 181 173 158 142 121 109  78  64 137 139 135 141 148  96  14  29  29  25  20  16  14  13  11  10   9  10  26  28  25  23  21  21  22  21  23  22  25  25  24
 187 192 201 203 198 194 193 193 189 164 108  50  16   6  10  11  15   9   1   0   0   0   0   0   0   0  51  95  98 102 111  96 126 167 193 211 199 183 182 162 168 165 163 172 163 155 150 169 165 156 210 181 179 179 195 146 116  96  49  71 130 151 144 154 150 115  21  25  30  27  23  17  15  14  10  10  10   9  13  28  27  26  23  23  24  24  23  19  20  25  25  24
 190 194 200 200 200 197 169 125  74  31   8   9  13  14  15  11  16  10   1   1   0   0   1   2   0   7  60  95  98 104 109 108 101  79 131 183 189 196 186 163 159 165 162 162 148 143 176 166 188 162 194 188 162 169 139  89  70  44  82 135 150 149 146 155 133  34  20  31  29  26  21  16  14  11  10  10  10   9  19  31  27  26  23  23  24  24  23  23  23  25  26  24
 192 198 203 184 148  96  43  14   8   9  13  15  14  13  14  12  16   7   1   0   0   0   0   1   2  31  62  92 102 104 105 122 111  87  78 104 150 165 184 190 169 177 146 114  97 107 141 167 181 163 150 152 136 104  51  38  48  96 143 152 154 148 152 146  42  14  32  30  26  24  21  17  14  11  11  10  10   8  22  31  30  30  26  25  24  24  24  23  23  25  27  25
 190 172 128  67  24   9   8  11  13  13  15  13  12  14  12  12  16   6   1   1   0   0   0   0  16  49  58  88 105 110 108 115 118 119 106  84  94  83 137 144 156 158 132  97  58  84 109 124 110 126 112  56  35  28  50  88 130 149 151 148 147 151 147  58  12  30  32  29  25  22  19  15  12  10  10  10  10  11  28  30  29  30  27  24  26  27  27  26  26  27  27  26
  87  52  20  11  11  11  11  12  12  13  14  11  10  12  11  13  16   5   2   1   1   0   0   0  35  55  60  84  97 112 116 101 105 115 118 108  97  76 100  76  84  82  79  99  84  54  45  47  38  40  40  37  67  94 118 133 148 148 141 141 135 134  61  10  30  32  30  27  26  20  17  15  11  10  11  12   8  17  33  35  31  32  28  25  27  26  27  27  27  25  28  27
