P2
# Generated by OpenCV 4.2.0
92 112
255
 105 105 104 103 101 102 103 105 103 101 102 104 103 101 101 103 102 103 103 103 105 106  98  89 105 132 121 105 113 105 111 133  95  93 113 115 109  61  70  65  67  78 119 109  78  86  78  73  79  69  91  97  74  99  86  74  81  84  77 101 108 126 114  93  89  95 101  95  98  98  94  98  97  97  98  97  98 101 100  98  97  96  97  98  96  94  94  94  93  91  94  95
 105 104 105 103 102 102 103 105 102 102 101 104 104 102 101 100  98 102 102 101 103 107 108 117 119 112 107 101 102 105  95  83  89 101  95  96  84  71  67  78  81 117 112  83  76  78  81  81  99 117 118  89  91  88  80  73  78  80  89 102  93 102 104  99  93  89  98  99 100  98  97  98  98  97  96  97  98  98  97  96  95  94  97  94  97  97  94  96  95  94  97  99
 108 107 104 104 106 106 105 105 102 103 102 103 104 101 101 101 100 102 103 103 100 102 114 113 103  90  88  82  89  93  67  72  77  80  98  78  80  85  80  82  90  88  79  91  90 104 113 111 110 124 122  97  91  83  84  79  82  85  95  92  97 103  92 100 105  92  90  98 107 110  99  98 100  99  96  97  98  95  96  97  95  93  94  94  95  98  97  97  97  98  98  99
 107 106 105 102 105 108 108 107 102 103 103 103 102 100 101 103 104 104 104 100 100 105 100  88  73  75  81  85  75  73  93  75  46  71  76  92  98  83  94  90  97  93  98 108 106 109 125 123  97 111 116 100 100 128 109  95  94  91  77  85  98 108  99  90  91  84  86  85  90 104 106 103  97  99  97  98  97  95  98  95  94  92  94  96  98  96  97  95  98  97  94  96
 106 106 104 105 108 108 109 108 103 102 103 104 103 101 100 103 103 101 102 102 106 100  79  73  63  69  52  72  71  76  87  67  61  71  73 114 103  89 104 109 115 120 129 136 135 121 125 129 121 130 129 117 125 125 123 118 105  88  81  90 107 119  97  87  93  97  84  82  88  93  90 101 106  97  96  97  98  98  98  96  94  93  94  99 101  98  97  96  97  97  94  94
 104 104 104 106 104 105 108 108 107 106 104 104 104 102 101 104 103 104  99 109 100  86  65  66  67  67  64  62  69  60  73  84  86  84 101 118 108 117 117 128 131 145 157 134 124 144 152 153 146 144 143 142 133 138 140 124 119 113  99  95 108 105  90  80  83  95  92  88  89 101 101 104 121 108  98  97  98  98  98  96  94  95  93  95  98  96  95  93  93  96  94  93
 102 102 104 103 104 105 106 107 107 105 107 105 103 105 104 104 107 109 101  89  73  70  70  70  65  70  81  70  65  77  73  77  88  95 123 118 109 124 120 136 147 143 147 149 149 158 164 161 149 150 158 155 147 146 134 126 123 136 118 123 116  86  84  84  72  74  77  93 104  96 106 112 116 115 103 101  96  96  96  93  92  94  94  95  97  98  97  94  96  96  95  93
 101 104 105 105 105 104 102 103 106 107 107 107 106 104 104 104 106  97  92  87  68  66  69  59  52  60  64  77  74  76  87  95 100  96 125 124 107 123 128 149 154 164 167 175 168 158 174 170 169 168 173 169 159 161 162 153 147 143 133 129 104 101 106  82  78  80  76  85 101 118  97  91 101 108  99 102 101  95  96  94  91  92  94  95  96  97  97  94  96  96  98  95
 103 103 104 104 104 107 105 105 106 106 106 108 105 104 107 108  87  66  64  60  67  75  49  44  50  51  49  79  89  92  93 107 107 109 133 126 126 135 152 162 152 163 178 177 173 178 182 181 182 186 189 184 174 181 179 170 160 154 139 119  93 116  93  74  82 116  99 103  98  93  86  88  97 107 117 114 105  93  95  93  92  92  95  99  96  94  93  95  96  98  96  98
 105 105 103 107 107 110 109 107 105 106 105 106 104 106 106  70  51  51  52  42  66  56  39  42  46  66  83  78  87 107  99 109 117 123 136 140 143 157 168 166 174 178 182 181 179 189 196 189 185 188 194 192 187 189 188 188 163 154 141 122 115 131  97  87  83  94  98  86 114  86  80  84  92 113 108 109 121 102  93  94  92  93  93  97  96  95  95  95  99 100  98  97
 106 108 105 105 105 105 107 107 108 112 109 107 105  88  45  28  44  43  57  44  57  45  36  48  72  73  88 102  93  98 105 115 129 142 142 147 151 167 173 170 181 191 190 192 191 191 197 198 193 190 192 191 190 194 199 188 170 168 161 140 139 125  89  84  88  85  78  87  94  86  79  78  90 105 106 102 108 106  93  95  95  92  95  97  98  96  96  97  98 100 100  99
 109 109 107 105 106 106 104 106 110 111 110 109  92  40  26  28  39  39  46  37  47  47  55  74  82  87  86  99 103 103 114 130 140 143 148 159 170 170 177 179 184 189 194 198 192 194 196 196 196 196 194 192 193 197 209 194 176 184 191 162 150 125 103  95  96  93  77  99  92  92  93  78  92  71  77  95  95 113 101  95  96  94  96  96  99  98  95  97 100 100  98  99
 107 107 107 108 110 107 106 109 109 110 110 110  65  31  36  38  42  30  31  31  35  53  77  83  89  85  95  99  99 112 122 135 143 151 162 167 177 178 179 187 192 193 198 194 188 193 191 189 190 195 200 196 195 201 204 194 180 192 201 189 164 138 121 119 104 101  78  83 102 101  85  94 111  88  88  94  95  96 111 100  96  94  95  96 100  98  98  98  99  98  97  99
 105 106 106 108 109 107 108 109 108 108 109 106  59  43  56  47  37  27  29  27  48  69  76  80  91  90 101 107 109 113 123 134 148 162 169 178 174 182 186 189 194 196 195 193 193 195 188 190 190 197 198 204 204 202 201 196 188 195 201 204 197 170 134 122  99 109 108  80  77 104  93 107 132 100  86 113 135 102  94 106  99  95  95  98  97  97  98  99  98  96  97  97
 106 105 105 109 108 110 110 106 109 111 111  91  64  72  59  34  30  29  28  46  71  77  78  86  91  94 108 113 122 123 131 151 159 166 167 173 177 177 183 185 192 195 195 191 194 197 193 194 197 197 195 205 206 201 201 203 203 205 210 212 204 183 141 113 122 109 121 115  76  92 113 108  98 126  87 101 141 124 106 115 121  98  99  99  98  97  97  99  96  96  98  98
 105 104 109 109 109 111 110 106 110 111 111  81  85  80  41  32  27  23  46  69  72  74  81  94  96 101 112 118 122 127 135 155 164 171 170 171 176 173 180 179 185 191 191 190 190 197 197 201 200 195 200 203 201 201 201 203 207 207 206 211 209 198 158 118 118 123 125 126  97  83  96 110 109 106  97  94 138 150 120 127 137 107  98 101 100  98  98  98  98  99  99  99
 104 109 110 109 108 108 109 108 109 111 110  90  91  47  32  37  32  39  70  72  74  81  90  95  99 105 115 121 125 135 145 157 163 172 173 170 176 175 176 182 186 192 188 187 190 193 199 197 196 197 197 201 202 202 203 207 210 210 209 216 217 203 175 134 117 118 135 138 111  93  86  91 109 129 111  89 108 113 132 157 142 123  96  97 100 101 102  99  96 100  98  97
 108 106 108 109 107 107 109 114 108 110  97  84  57  38  39  36  39  66  70  71  81  87  93  98 105 113 118 126 132 143 149 158 164 171 173 176 181 181 178 181 187 190 186 185 184 193 196 192 198 200 197 200 202 208 203 204 212 217 219 217 219 208 181 158 126 118 107 131 168 112 116 108 101 119 149 134  97  91 114 171 136 124 106  94  97  98 101  99  98  98  97  96
 107 105 109 109 106 107 110 113 109 102  90  63  44  42  36  35  59  73  70  77  85  92  98 103 108 115 121 127 134 143 152 158 164 170 174 176 180 180 180 181 181 183 188 188 188 194 194 194 199 198 203 207 202 206 207 205 208 213 213 216 218 214 202 176 145 107  98 105 140 148 126 161 134 129 113 171 138 142 123 153 164 127 112  99  96  96  95  96 100  99  97  95
 107 108 111 110 107 109 111 111 107 103  70  47  49  44  38  56  75  73  78  86  89  95 101 106 113 121 124 128 133 139 148 157 171 173 175 178 177 179 181 179 184 186 187 189 186 189 196 199 202 204 202 205 205 205 210 208 208 207 209 215 217 218 212 185 149 116 117 108 117 118 121 137 160 165 150 127 159 169 185 147 150 157 128 116  97  97  96  96  98  98  96  94
 109 108 110 110 111 110 112 112 106  84  60  60  56  45  51  74  73  77  85  91  95 102 104 111 120 127 129 130 132 141 148 157 167 172 175 176 175 174 177 178 185 187 186 188 184 185 192 198 201 205 205 206 207 207 210 206 209 212 213 215 212 217 219 205 155 127 134 114 118 123 106 125 134 155 189 157 128 167 198 203 154 153 162 135  95  97  97  99  96  95  95  94
 110 110 110 111 110 111 112 107 101  73  70  63  50  47  70  75  75  83  88  91 101 106 108 114 122 127 133 129 135 147 153 160 164 168 171 173 175 174 172 175 182 181 189 190 195 193 195 200 200 200 203 203 206 209 208 209 212 212 213 214 211 212 220 209 174 150 142 125 115 128 113 109 138 148 174 200 163 175 207 223 209 167 156 148  95  95  98 101  97  97  97  96
 109 112 112 110 107 108 113 111 100  67  57  53  48  60  77  75  78  85  92  95 101 109 113 118 120 128 135 132 141 144 144 155 162 166 169 170 176 178 171 174 179 186 190 189 197 197 205 201 199 197 202 206 200 209 212 208 209 209 211 214 215 219 218 210 193 160 159 150 125 135 143 118 129 165 163 197 195 170 206 224 212 204 178 179 133  93  99  96  98 100  97  96
 109 110 111 108 110 110 112 114  84  55  59  59  55  75  76  75  80  86  90  93 100 107 116 117 122 128 133 135 146 143 137 149 158 167 165 161 167 177 175 179 182 186 190 189 194 199 198 192 201 204 205 208 208 208 209 209 209 208 210 211 212 220 223 211 199 176 156 158 147 151 165 135 137 148 181 195 210 183 182 220 222 212 207 182 177  95  96  98  96  97  96  98
 111 110 112 111 112 110 109 109  74  55  56  52  69  80  78  81  78  84  89  96 103 106 116 124 125 123 127 137 147 147 147 154 155 162 168 157 153 171 171 173 185 185 191 192 199 201 196 198 199 207 217 213 209 212 213 211 212 214 212 215 209 209 224 220 194 180 180 159 166 160 177 162 151 159 176 198 215 197 173 199 228 221 225 193 185 120  91  97  96  94  97 100
 109 109 113 113 114 111 110 107  73  59  55  60  78  79  82  82  83  86  89  97 103 110 118 131 130 123 126 134 144 150 147 145 153 158 168 163 155 165 168 174 183 190 193 195 196 197 207 205 208 217 218 215 215 213 215 213 211 210 210 214 214 213 218 226 206 181 187 166 175 163 148 169 176 174 191 197 206 203 196 201 192 202 215 208 198 156  93  96  95  96  98 101
 110 112 114 112 110 110 113 105  71  56  58  76  80  81  82  83  85  85  89  95 103 107 117 128 129 128 127 133 143 141 145 149 154 166 165 162 163 166 174 179 180 189 190 194 188 195 210 213 214 220 224 218 219 221 219 215 211 215 217 212 209 216 217 222 222 196 182 182 152 157 141 136 172 203 201 202 205 203 192 218 199 161 192 220 200 181 104  96  97  98  99 100
 111 114 114 112 111 114 116 103  74  67  68  81  81  83  84  84  86  86  85  93 106 108 117 124 130 130 127 128 140 145 153 152 155 159 156 157 159 167 171 175 180 186 185 191 192 200 204 212 218 220 217 218 225 224 218 213 217 212 213 211 211 219 219 222 223 204 191 194 170 152 142 131 149 162 188 191 196 199 203 209 214 184 174 201 196 176 110  97  99  99 100 100
 110 112 114 112 114 116 115 103  76  74  79  82  84  84  83  83  85  85  88  98 108 116 126 129 128 125 124 124 133 144 152 153 158 159 154 152 157 160 167 181 185 180 186 186 199 205 208 207 221 220 212 216 220 219 211 212 217 210 213 211 218 223 222 226 227 221 207 194 189 177 157 150 161 172 181 175 182 201 214 198 196 206 188 185 217 199 125  93  99  97  97 100
 111 114 113 111 113 116 115 102  78  72  78  80  81  84  85  83  84  86  91  95 108 111 125 134 135 127 131 127 135 146 152 153 156 157 167 150 153 162 169 182 185 181 187 182 197 207 214 211 220 218 215 218 220 220 220 208 207 220 222 227 220 218 221 227 223 224 212 203 204 191 181 168 176 188 210 179 183 195 213 193 179 184 193 182 213 222 153  92  98  99  97 100
 110 113 113 111 112 115 116  98  66  74  80  82  84  84  85  82  83  85  86  96 103 102 121 140 141 131 138 122 127 142 147 153 145 149 164 143 153 170 174 178 181 182 178 190 201 207 209 217 216 215 218 218 220 223 220 214 213 223 218 223 224 223 219 217 217 209 211 216 212 209 196 182 172 180 219 197 178 186 194 206 189 168 180 184 206 230 175  99  95  99  99 100
 111 111 110 112 112 113 118  92  71  79  83  87  86  84  82  82  83  82  88 102 103 105 120 134 134 132 138 119 120 136 138 149 148 151 155 143 150 161 174 183 180 176 177 193 196 200 211 211 209 211 217 214 218 218 217 222 219 220 216 214 217 222 219 216 225 218 210 216 215 216 199 198 190 177 200 209 177 170 169 189 200 168 156 181 197 238 186 104  95  98  99  97
 114 115 112 113 113 115 118  91  75  81  84  86  85  85  78  77  81  81  87  98 105 106 118 133 126 122 138 132 122 130 138 143 148 154 151 147 151 160 175 186 187 179 177 187 186 195 205 204 203 208 209 209 214 215 219 221 220 216 219 219 217 217 218 223 224 222 220 216 216 215 203 196 190 186 185 199 177 173 169 167 195 193 157 161 190 226 187 108  96  97  98  98
 114 116 116 114 114 119 115  75  67  82  82  85  85  82  78  79  81  85  84  95 103 106 122 142 134 128 143 141 128 117 128 139 148 156 161 144 148 158 173 188 186 182 183 182 188 191 197 199 203 211 208 206 213 219 216 217 219 218 218 221 219 218 215 218 219 219 224 222 218 212 209 188 197 193 193 180 176 175 180 179 190 194 168 160 176 216 204 116  96 100 100 100
 116 116 115 115 114 118 110  65  70  83  84  84  82  80  80  78  78  82  86  92 100 103 117 134 134 129 149 162 142 129 134 147 153 153 158 154 152 161 172 182 179 179 182 191 194 202 193 189 198 201 204 198 210 219 218 218 217 218 217 221 225 219 223 225 219 221 224 220 212 208 203 191 188 196 194 192 193 178 173 180 195 188 166 162 156 216 211 121  97 102 100 100
 116 114 113 116 115 115 103  64  75  81  83  85  81  81  80  81  79  82  85  96 102 104 118 133 129 123 139 159 138 124 139 156 157 158 166 165 157 162 178 171 174 177 175 173 189 198 191 192 195 193 205 203 208 217 219 218 216 215 220 223 222 221 222 219 220 217 217 209 208 212 208 197 190 204 195 199 208 203 179 166 171 188 162 155 176 201 196 124  97 102 100 100
 114 112 113 116 115 117 104  74  80  83  85  84  82  82  79  80  79  84  92  99 103 100 118 135 133 125 136 149 133 126 137 157 148 153 169 170 169 183 190 171 179 180 186 175 179 187 179 188 191 193 204 208 213 217 215 216 214 213 213 218 220 219 219 218 219 216 210 203 205 212 213 204 188 189 188 194 212 210 205 172 153 159 162 143 178 192 176 112  98 102 101 100
 115 113 114 114 115 117 100  67  78  87  84  84  84  84  84  79  85  93 107 117 124 123 139 145 142 130 133 146 133 138 139 149 134 144 164 166 172 194 185 176 188 189 196 185 188 186 180 193 188 188 198 207 210 215 212 210 214 218 211 212 218 219 212 210 217 216 220 207 208 210 208 201 197 173 179 197 212 196 204 213 181 155 162 139 171 189 148  95 102 101  99  99
 114 113 114 115 115 118  97  72  81  85  83  85  84  83  87  83  84  90  98 106 117 120 142 153 155 141 135 136 139 148 144 139 125 140 157 171 179 187 180 180 185 186 189 188 188 182 187 190 184 198 206 211 208 207 215 211 216 219 214 206 210 209 208 217 212 207 205 203 202 205 201 192 202 190 180 204 212 192 196 206 195 160 159 136 167 186 150  99 103 100  98 100
 114 112 112 114 116 119  98  68  86  83  80  80  79  79  80  81  82  90  95 106 121 120 137 146 147 141 128 121 132 149 139 125 125 130 147 168 178 177 182 183 181 185 188 183 179 186 192 185 186 200 214 213 212 215 217 216 210 209 213 210 211 204 209 217 211 212 207 204 198 209 200 192 201 200 195 200 201 207 190 192 178 165 141 141 166 190 138 101 102 102 101 103
 117 114 114 115 115 116  98  70  84  81  82  83  84  86  85  87  77  85  87  98 116 118 137 152 154 156 148 126 143 155 130 115 119 120 140 167 173 176 177 184 179 189 183 172 186 183 185 184 193 200 206 209 212 209 211 208 207 207 209 211 216 209 216 218 218 215 212 198 199 200 195 193 195 199 206 200 195 201 210 184 166 146 132 141 164 205 135  95  99 101  99 100
 116 118 117 115 115 116 100  69  83  84  83  87  86  85  86  88  82  85  83  96 111 117 124 137 148 158 153 129 156 160 127 122 126 135 149 168 174 169 167 173 179 190 177 166 170 170 176 177 178 185 196 213 214 215 201 196 206 207 206 212 205 210 218 217 215 206 211 204 186 191 195 192 190 190 199 201 192 192 198 182 168 145 139 139 162 194 142  95 100 100 101 100
 116 118 116 117 119 119 109  66  81  86  86  82  80  75  81  82  77  76  79  93 115 132 128 135 144 162 153 119 155 156 114 113 116 133 155 162 167 168 169 164 178 177 164 160 158 161 173 178 165 159 174 199 215 217 207 197 200 205 209 210 206 211 210 208 207 204 204 203 195 197 191 175 186 192 190 189 190 183 179 183 174 154 152 132 167 183 108  98  99 101 102 100
 116 116 118 118 116 119 106  66  81  87  83  81  77  78  80  75  73  74  75  78 101 121 118 130 149 157 152 113 149 148 130 119 121 127 149 161 160 166 168 163 172 166 166 168 174 170 172 175 161 149 158 179 211 217 205 203 204 200 206 214 210 211 210 206 200 204 205 206 198 192 193 169 163 167 179 173 182 185 172 181 174 147 128 135 163 175 101  97 100 101 102 100
 115 116 119 117 117 119 112  67  78  87  83  72  70  75  82  79  78  71  69  76  89 105 106 117 143 155 155  99 129 151 155 143 136 123 146 159 147 155 172 165 160 169 183 186 174 164 152 143 148 165 180 174 176 200 205 200 205 207 204 202 205 207 203 202 198 203 205 200 192 190 198 164 166 173 173 182 182 174 169 175 166 159 169 210 225 219 164  96 102 100 100 100
 119 116 115 117 118 118 116  75  80  83  63  54  59  62  68  72  79  78  69  74  77  86 104 108 122 143 145  80  98 137 147 155 148 132 147 155 147 154 167 164 167 178 171 158 149 137 124 125 122 132 169 200 185 150 187 198 195 208 200 195 205 202 199 201 200 204 206 200 191 189 192 160 171 189 182 187 175 171 175 169 164 201 230 232 227 223 225 142  92 100 100 101
 118 116 115 118 117 118 116  90  83  68  47  45  46  45  45  51  66  75  72  72  70  75  92 101 109 111 129  85  74 121 129 147 150 138 144 159 160 162 161 156 163 147 112  85  83  80  77 109 119 104 118 137 166 181 144 188 190 202 203 203 199 199 201 202 208 205 202 201 197 178 165 160 171 179 194 178 183 178 188 199 211 220 224 211 185 196 215 197 101  99 101 103
 115 116 117 120 116 117 118  95  76  50  40  42  40  36  31  33  44  56  63  68  70  67  74  86  89  88 112 112  67  93 114 127 132 138 145 147 164 161 150 139 113  80  56  54  62  80 104 141 150 157 153 132 125 172 176 162 196 193 201 201 199 203 203 199 208 203 201 207 196 181 149 160 168 182 198 174 189 194 208 217 222 214 172 108  59  84 168 206 128  96 102 102
 116 117 117 116 115 118 117  91  75  48  50  65  64  52  42  30  31  37  46  55  58  60  66  70  67  66  92 122  90  70  95 100 104 120 119 113 124 122  94  70  52  51  61  73  98 132 147 158 177 188 188 184 157 163 193 175 184 188 194 201 203 207 198 203 203 200 206 208 190 189 160 166 187 201 193 172 194 206 219 217 211 162 160 164 104  55  89 191 151  94 102 102
 117 118 114 112 115 119 115  92  75  61  73  84  79  69  58  44  37  37  33  40  45  46  53  55  55  53  80 112 119  69  82  77  72  77  79  72  66  64  58  52  60  81  88 103 135 154 160 176 187 187 195 189 165 162 178 189 171 192 182 205 206 200 198 200 198 206 206 204 193 178 169 180 179 186 195 182 188 210 217 209 172 115 186 222 186  88  62 166 167  93 102 102
 121 118 115 115 118 120 113  85  74  73  83  82  77  72  66  58  51  47  41  39  39  36  38  42  51  52  76 111 137 100  76  71  60  54  55  55  59  62  58  66  82  95 100 110 131 151 168 177 171 174 196 200 160 150 170 181 174 177 189 188 192 196 196 200 205 203 202 209 203 180 172 172 183 189 180 167 184 201 211 202 191 153 184 223 212 113  56 144 171  99 105 103
 121 119 115 115 117 119 119  83  74  77  79  74  69  70  66  67  69  68  63  56  47  37  30  34  51  64  85 113 140 136 101  80  76  65  55  53  52  54  60  75  88  93 104 113 123 141 156 168 172 171 164 183 198 169 159 165 170 169 182 181 173 178 192 200 203 198 203 212 204 190 200 180 180 192 168 162 195 211 199 206 229 212 197 222 212 134  69 168 176 102 108 103
 118 117 118 119 119 119 122  78  76  76  76  74  69  63  59  59  62  70  71  68  62  49  35  28  37  70  84 109 132 138 126 114 110  95  68  48  49  54  63  78  97 120 107 114 140 168 175 181 205 199 176 159 168 171 144 163 160 166 165 170 182 189 192 199 200 201 211 209 209 202 200 186 173 170 165 179 211 213 188 200 231 226 220 233 225 140  79 185 170  97 105 102
 118 118 116 116 118 120 123  93  80  77  79  76  46  28  29  33  27  28  37  43  39  41  39  32  28  67  97 129 151 163 171 174 159 127  73  48  56  62  64  68  65  79 101 105 112 126 140 141 149 176 172 152 137 185 163 163 166 169 168 180 191 190 199 202 200 204 209 207 215 202 194 172 164 180 174 200 216 197 183 193 225 229 229 241 233 152  77 171 171  93 100 102
 120 118 115 118 120 122 123  99  84  79  72  37  16  46  70  59  42  16  34  63  25  28  27  30  27  64  92 126 166 186 201 191 173 144  80  52  59  60  50  43  41  37  41  53  41  30  28  67  70  67 117 146 129 147 178 166 174 177 184 192 195 204 201 198 205 205 212 214 209 199 185 170 164 185 191 209 214 190 170 109 169 222 228 231 223 184  85 168 167  93 100 100
 119 116 115 117 121 122 122 100  84  82  73  43  31  70  89  70  46  33  32  44  39  43  28  25  25  53  96 133 166 194 211 203 184 151  84  55  50  51  52  50  49  65  89  84  65  47  20  82  78  89 105  98 131 146 162 180 178 196 199 194 198 202 192 194 197 204 212 210 206 198 172 184 174 189 192 214 212 207 138  33  82 136 177 209 221 201 106 185 160  92  98 100
 117 117 116 117 118 121 121  90  83  81  77  66  66  49  70  76  49  41  43  44  48  38  29  24  27  68 115 153 179 210 223 205 191 168  97  72  55  57  57  47  46  69  96  89  79  90  83  78  73 163 203 200 171 173 171 172 183 192 200 198 206 208 204 201 197 200 210 211 206 198 180 169 178 191 190 211 212 221  99  35  58  78 115 173 219 203 120 197 150  92 100  97
 120 119 113 115 119 123 105  67  83  81  74  73  77  65  54  57  59  59  58  57  50  42  35  29  29  71 127 162 186 213 216 201 196 189 127  83  73  62  60  69  78  84  92  98  97  86 104 107 148 199 217 217 212 197 181 177 185 191 193 198 198 202 204 202 205 208 211 211 211 197 180 163 182 191 186 207 213 225 138  48  59  77  87 145 212 204 133 195 144  93 100  99
 117 117 115 115 119 124 112  77  79  82  75  77  74  72  69  62  62  64  57  50  45  39  35  29  31  83 138 169 195 222 216 203 203 206 168  97  61  64  65  68  78  96 108 121 130 134 139 158 180 191 198 203 201 196 199 199 204 198 201 210 209 216 214 210 214 210 204 201 210 209 195 182 181 181 184 206 215 223 213  91  61  72  73 118 199 207 145 204 143  93 101 101
 112 117 119 119 117 120 119  85  76  84  82  80  75  72  68  64  58  57  57  52  42  39  38  30  51  94 140 170 193 224 215 198 207 208 188 144  80  55  63  66  68  72  81  99 119 125 138 151 168 182 189 188 188 183 181 185 197 195 195 198 202 210 211 210 207 204 195 195 206 208 188 180 179 167 178 205 213 227 213 123  75  69  72  99 177 213 158 208 129  97 102  98
 114 119 119 119 115 117 121  83  75  82  79  77  75  71  70  66  63  58  53  47  42  46  41  40  70  97 141 173 194 219 214 200 205 197 199 181 135  73  57  64  71  74  84 100 111 125 139 150 160 176 190 197 198 188 182 188 195 202 199 202 202 203 201 201 201 200 198 197 200 203 174 181 184 171 168 203 212 232 217 129  76  67  69  99 174 205 168 206 121  99 101 101
 118 119 119 118 116 119 120  98  77  80  79  76  74  76  67  63  65  58  51  52  52  51  38  52  75 107 142 170 201 221 210 206 203 193 207 200 188 132  66  57  61  65  68  76  85  98 113 126 131 154 181 178 185 182 184 195 194 204 212 216 217 213 208 205 201 199 194 194 188 191 184 177 187 174 181 210 214 221 221 132  82  62  73 123 189 190 182 201 109 102 101 105
 121 119 118 117 118 120 120 102  75  82  82  74  75  71  65  58  60  60  64  60  56  44  42  69  78 117 148 169 213 212 196 207 211 211 219 214 212 191 127  77  65  63  60  59  57  67  90 120 141 154 166 184 178 197 189 192 198 205 211 213 208 208 208 207 204 202 198 196 184 190 182 181 192 171 185 210 210 208 207 139  96  85 147 174 194 176 197 181 103 104 101 106
 120 120 119 117 116 119 123 107  71  80  78  77  75  70  68  67  68  67  61  55  52  43  57  74  79 104 144 175 216 216 199 203 215 219 223 220 218 212 180 142 109  92  89  95 102 108 124 135 154 173 176 191 172 194 200 189 200 208 207 209 208 208 207 205 204 203 202 195 188 185 183 192 188 172 191 208 206 200 170 183 201 196 195 189 175 162 204 156  99 104 101 102
 118 120 120 119 119 119 122 114  82  78  78  75  70  71  73  71  65  63  55  54  47  49  68  71  75 104 147 180 225 217 194 199 202 207 211 213 219 221 200 175 160 140 120 110 120 142 153 155 166 170 173 176 177 179 202 194 193 210 212 209 207 203 200 193 197 199 201 194 188 172 191 180 190 189 182 205 209 175 115 181 227 227 206 210 177 175 197 126 100 104 102 102
 117 121 122 122 119 122 121 113  81  78  77  70  72  71  70  65  63  58  55  49  50  64  71  71  77 110 158 185 216 220 201 201 206 206 201 204 208 214 206 196 178 170 159 135 119 131 151 159 164 162 169 177 192 179 179 204 206 191 196 201 205 202 187 193 196 189 200 198 181 162 181 179 186 191 173 202 208 176 159 199 224 219 205 198 183 189 170 102 103 107 104 104
 117 121 124 123 119 121 122 119  87  75  73  72  70  69  64  59  56  55  56  56  62  68  72  71  79 118 159 194 212 211 202 203 207 207 207 206 197 201 209 198 193 180 176 169 144 141 160 167 163 159 167 167 186 192 190 187 191 186 191 197 186 191 198 198 203 199 194 184 175 174 183 184 202 197 181 197 195 224 225 217 208 214 212 195 192 196 132 103 109 110 106 105
 121 121 121 122 119 119 119 118  81  76  74  72  71  69  65  59  58  62  62  63  68  68  69  67  88 117 148 183 202 197 199 197 205 206 203 195 192 185 196 191 183 176 174 172 169 154 171 180 174 167 176 180 187 198 197 201 198 188 188 198 191 188 199 201 203 200 198 185 160 171 203 192 201 196 185 193 183 213 219 215 214 213 211 202 203 158 103 109 111 110 107 106
 123 120 119 118 120 120 121 116  79  71  74  72  72  68  66  60  65  68  65  67  66  66  65  73  85 116 153 170 185 194 188 185 197 197 185 188 181 160 163 175 171 170 170 167 166 168 171 179 179 178 170 176 187 194 202 203 202 200 186 184 196 197 196 198 195 199 196 190 168 176 207 191 183 172 176 208 212 200 208 216 214 205 207 208 173 112 104 110 112 110 107 106
 120 119 118 122 122 119 121 125  93  68  74  71  66  69  67  62  65  67  70  66  62  62  67  78  84 107 135 150 166 183 200 196 191 194 190 199 187 140 116 131 147 154 156 160 152 160 166 172 170 173 175 182 184 193 197 197 194 195 202 191 196 208 200 197 194 192 187 192 175 167 187 195 186 157 165 211 225 214 208 210 209 204 204 191 118 103 108 109 110 109 105 103
 121 119 121 123 123 118 119 123 100  66  73  71  66  67  66  66  67  67  67  60  54  63  76  80  79  97 113 130 158 189 231 200 188 201 205 204 209 182 100  82 112 125 121 128 129 144 154 165 171 179 180 186 190 188 198 200 198 202 196 199 202 203 206 198 198 195 180 177 179 167 181 197 179 172 185 197 221 218 207 207 204 201 188 134 100 108 110 108 108 108 106 105
 121 121 121 118 121 121 120 122 110  67  71  74  65  67  69  71  72  67  62  58  54  66  84  94  85  97 112 132 162 189 226 198 189 204 209 206 199 197 140  73  82 102  96 101 112 123 142 149 161 181 192 197 200 201 199 200 207 203 205 204 196 200 211 200 198 196 185 178 182 170 190 199 179 193 178 158 193 201 202 198 192 175 132 105 111 110 108 108 108 105 106 107
 122 121 120 120 120 121 121 121 116  83  76  68  67  71  76  74  73  63  61  57  55  72  79  99  98  96 110 135 155 183 203 192 184 197 205 207 198 199 188 102  61  75  96  97 107 115 128 143 147 166 186 196 200 202 204 205 195 194 202 206 205 207 209 198 182 176 188 178 184 177 189 185 176 198 170  91 140 173 178 171 150 117 104 112 114 114 111 107 108 108 108 107
 121 122 121 122 121 118 120 121 115  92  76  68  72  76  77  74  70  62  62  57  50  69  75  85  91  90 109 138 154 164 170 179 180 189 199 209 202 203 202 117  62  55  79  88  95 103 110 127 136 151 170 184 191 199 197 201 198 193 200 207 207 206 204 199 189 163 181 199 199 200 186 181 162 182 167  45  82 116 132 118 104 105 112 114 115 114 110 106 107 111 112 107
 120 123 120 120 119 120 120 121 122 100  71  73  77  75  75  73  72  65  61  53  43  53  72  74  76  80 108 136 146 141 136 152 168 181 192 203 202 208 204 130  72  50  50  69  87  95 104 109 126 140 159 167 181 195 193 194 198 200 201 204 200 194 197 206 188 167 174 209 197 206 182 173 148 149 173  74 131 175 174 107 105 109 111 112 113 109 107 107 106 110 113 110
 119 121 121 118 118 120 121 122 125  99  71  76  75  76  75  74  74  64  57  51  37  30  53  62  61  62  95 134 132 117 116 132 148 170 180 183 186 193 187 146 108  65  45  44  68  77  92 108 113 128 145 157 170 188 195 190 192 196 205 202 195 200 197 196 189 181 182 201 205 194 163 158 149 154 168 129 177 194 169 104 110 110 114 115 113 110 110 109 109 114 113 109
 119 120 119 119 118 120 121 123 123 102  76  72  69  79  80  78  73  59  52  45  31  28  48  57  48  48  66 120 151 138  89  75  77  82  89  99 115 130 159 162 154 105  64  42  46  62  72  97 109 122 138 154 172 184 198 197 197 193 194 197 194 182 172 174 191 201 200 180 202 190 150 165 159 170 178 174 190 200 158 102 109 110 114 113 111 112 112 111 112 113 116 111
 118 118 117 117 116 120 121 121 123 109  71  68  71  78  77  77  66  59  48  38  30  46  55  50  46  43  48  89 144 110  64  54  56  57  65  70  75 119 174 183 177 155 108  69  42  43  59  77 100 116 128 147 171 181 190 196 200 192 188 193 199 179 165 162 172 195 208 199 189 180 165 163 159 175 185 190 196 201 153 102 109 111 114 114 111 112 112 112 114 114 115 113
 120 118 116 117 118 121 122 122 122 105  60  67  76  76  77  73  66  56  46  32  42  57  55  47  47  46  44  58 122 101  67  81 104 118 150 157 179 175 171 169 175 186 163 124  76  41  40  57  77 105 115 140 164 175 186 193 193 185 182 180 181 186 185 163 165 196 201 208 195 185 157 132 163 180 188 197 196 198 143 104 112 113 114 112 113 112 112 113 114 113 113 113
 117 119 117 119 118 121 122 121 119 115  73  56  69  74  74  70  63  52  40  41  56  57  61  58  59  51  47  46  55  48  66  94 123 134 171 190 177 167 164 164 163 190 187 149 117  86  44  38  59  84 106 130 153 169 177 176 169 172 176 183 179 154 174 168 173 183 200 202 198 186 150 127 156 169 194 204 199 196 140 107 113 113 114 113 115 114 113 113 114 114 113 112
 117 117 118 119 117 120 121 120 119 126  82  47  61  70  71  69  57  45  41  53  56  55  69  73  75  85  63  69  73  70  76 103 116 149 169 163 169 162 173 182 163 168 169 151 144 130 100  42  42  62  97 131 147 154 168 170 160 162 156 163 177 153 150 171 176 185 183 189 186 174 155 144 162 170 188 203 197 198 135 105 115 114 114 116 115 115 113 113 114 114 111 113
 118 115 117 117 116 118 119 119 120 123  97  52  53  61  65  64  51  39  52  47  56  70  73  66  86  98  73  97  83  69  60 102 101 150 156 158 179 176 171 164 179 173 159 120 152 127 131 106  63  71  76 131 160 157 164 190 174 152 156 146 156 137 140 179 186 187 188 186 178 179 156 168 180 167 185 194 193 190 125 105 113 115 115 116 115 115 114 112 112 113 111 112
 118 118 117 117 118 120 118 118 121 125 107  59  41  53  61  60  51  43  38  44  60  72  58  73  85  89  90  83  68  58  57 104 132 150 119 182 150 169 166 139 163 161 165 135 144 126 107 142  99  60  55  98 161 174 172 173 168 131 136 157 156 138 166 172 196 191 188 192 179 184 157 175 180 155 172 187 194 189 119 107 113 112 113 114 115 115 115 115 113 112 112 111
 118 119 117 117 120 121 118 116 119 123 122  77  38  43  62  68  49  39  37  51  53  57  68  71  70  78  70  67  50  52  52  73 134 140 113 166 147 155 136 161 143 154 159 152 135  99  88 114 121  81  48  75 141 172 178 161 146 126 111 150 140 153 180 175 182 184 183 184 178 169 149 163 159 157 169 190 193 179 110 109 114 116 116 113 115 115 114 113 112 112 112 111
 119 117 118 117 119 119 116 120 121 121 127  88  38  41  62  51  48  50  41  47  46  53  61  63  74  76  62  86  58  41  50  78 100 116 144 157 136 172 126 134 122 140 135 140 143  73  78 123 133 113  74  80 114 165 179 170 133 110 108 132 146 141 180 177 176 172 178 179 176 151 160 163 157 169 182 190 193 172 109 109 114 115 115 114 115 114 114 114 112 111 112 112
 119 117 116 116 115 116 118 120 122 123 125  92  42  49  56  59  58  50  42  35  35  59  70  56  59  75  78  84  52  44  40  60  66  82 134 143 134 149 143 132 103 101  95 112 139  88  70  82  93 109 103 117 134 147 173 176 133  98 100 112 134 155 183 171 161 189 179 166 166 167 165 159 161 175 187 190 197 169 108 111 115 113 116 115 112 115 114 113 112 114 111 112
 120 117 113 117 116 117 120 120 121 122 127 105  57  53  54  67  57  53  44  27  29  42  55  31  44  82  54  55  57  46  37  44  53  83  91 119 114 122 134 112 106  84  87  63  62  70  81  72  62  74 111  95 141 169 151 167 140  99  99 127 152 169 181 163 131 167 177 156 175 170 176 173 172 173 193 194 196 159 107 111 115 117 117 113 111 113 113 111 111 113 112 110
 116 116 115 118 117 117 120 119 118 118 126 121  71  49  53  64  68  64  34  22  17  25  34  24  38  55  32  37  42  48  45  40  40  46  47  60  62  62  59  55  50  53  59  46  40  34  52  66  53  59  89  97 129 170 156 159 131  89 116 139 149 154 162 161 135 143 163 179 169 174 185 177 174 180 188 192 194 152 107 112 114 118 117 115 116 114 114 111 111 110 112 111
 117 114 113 118 119 117 118 118 118 119 123 129  93  57  58  77  76  54  41  21  20  45  54  43  35  34  28  26  23  34  31  26  21  27  55  59  69  86 102 113 123 141 131 106  78  46  23  49  44  69  85 106 141 174 159 139 131  92 112 134 139 148 129 135 150 162 182 173 154 190 183 177 180 188 190 190 193 143 107 113 116 118 116 115 116 114 113 115 113 110 112 110
 114 116 117 115 117 119 118 118 119 121 122 126  97  49  62  85  72  53  43  25  41  58  60  64  59  56  59  66  76  68  77  81  83 104 129 130 125 157 190 190 175 172 164 160 129  90  50  36  37  60  80 109 128 179 166 127 128 112 114 136 145 146 142 144 147 182 184 177 174 189 177 170 184 188 182 189 196 139 107 113 116 116 113 114 115 114 113 114 112 111 112 111
 116 117 119 116 116 117 118 119 117 119 120 121 112  65  53  74  65  41  33  49  63  67  66  61  61  57  61  77  81  90  99 103 101 106 109 117 120 133 152 169 178 172 174 182 166 160 121  61  35  34  63 112 134 162 161 147 140 122 111 130 141 142 156 165 165 185 172 176 192 184 169 175 188 183 184 190 192 141 108 115 117 116 115 114 114 116 115 113 113 113 112 113
 115 116 117 116 114 115 117 117 114 117 118 120 121  74  45  76  53  41  57  67  66  66  69  57  59  65  73  61  60  59  61  71  78  87 116 103 132 134 166 177 178 182 174 177 188 185 158 108  64  45  89 131 150 150 153 152 119 111 119 154 145 150 151 178 180 172 185 192 184 176 168 178 185 183 189 197 195 141 108 116 116 118 116 115 115 117 116 115 115 113 111 113
 113 116 116 117 118 117 116 117 118 117 117 118 123 101  63  64  57  51  60  69  72  67  61  52  59  80  70  95  80  53  66  90  89  85 134 112 132 134 148 170 177 170 172 178 188 172 134 115  84  64 102 157 155 155 165 140 105 104 142 149 152 161 147 183 186 175 191 191 172 176 181 184 180 176 191 195 195 144 107 115 115 115 114 115 115 115 113 112 114 114 113 113
 118 117 116 117 117 118 116 118 120 119 117 119 123 110  77  60  57  40  52  79  81  61  58  63  72  80  60 126 100  71  68  82  95  84 109 119 104 142 147 174 176 163 168 178 179 162 148 106  83 115  87 136 163 166 174 147 131  97 147 144 131 164 178 186 172 185 195 182 175 190 185 183 177 176 188 194 194 150 108 115 116 114 117 117 115 115 116 113 110 112 113 113
 116 116 116 117 114 116 118 117 120 119 120 121 123 120 107  59  46  59  77  75  67  60  59  68  79  88  66  99 109  78  86  73 117 105 103 117 113 136 157 155 160 157 164 170 172 178 171 129  93 119 110 106 161 155 145 139  95 122 158 141 153 171 179 184 181 198 200 164 180 189 177 168 182 181 192 191 197 159 112 116 118 116 116 117 115 114 115 113 113 112 111 111
 118 118 116 117 117 116 115 115 118 118 118 120 120 127 114  72  57  80  95  79  65  62  60  63  74  71  60  66  88  87  97 114  89  88 115 129 130 134 143 143 144 153 161 164 168 180 171 155 134 116 140 122 127 132 114 138 117 147 164 152 162 194 180 190 186 198 197 160 186 193 181 172 172 183 194 188 193 174 121 118 118 119 117 117 115 114 113 114 113 111 111 113
 117 116 118 118 118 117 117 118 119 118 117 118 120 123 120  85  59  86  89  76  72  66  59  55  60  63  55  54  57  55  53 118  88  82  89 106 123 143 141 142 143 148 153 159 160 163 171 188 172 132 125 137  95 118 124 111 114 153 145 153 161 165 173 212 175 190 200 177 184 188 188 171 169 187 195 192 193 185 114 112 120 124 123 118 115 113 115 114 111 110 112 112
 117 116 115 117 119 119 119 122 119 118 119 117 119 122 126 104  62  88  88  77  69  61  53  51  57  63  54  63  64  66  60  77  90  95 131 141 141 159 139 146 161 157 171 167 164 169 185 187 169 151 122 131 124 120 124 115 119 142 136 151 170 175 187 198 178 171 191 186 183 183 184 176 182 197 187 181 195 201  87  20  41  47  75 121 120 114 111 113 114 112 110 112
 117 118 117 119 120 119 117 121 122 120 123 120 119 121 123 122  91  89  99  92  89  73  69  68  78  88  75  73  97  88  95  96 126 144 155 166 165 169 151 161 164 167 166 151 178 177 197 201 201 193 166 160 128 148 133 133 122 153 166 145 185 184 181 181 178 175 185 187 177 182 174 178 188 188 181 185 191 201 143   1   7  13  22  82 125 116 112 111 114 113 111 113
 119 118 117 119 120 117 119 118 122 123 122 122 122 121 123 134 122  93 109  95  91  78  76  88  86  76 102 101  90  87 107 118 146 162 153 172 163 150 155 171 179 166 182 170 180 178 193 193 185 197 185 158 140 115 141 149 138 145 171 178 189 183 182 185 172 189 184 183 177 177 179 175 185 186 188 193 186 189 198  53   4  22  26  52 120 115 114 114 116 114 114 114
 121 121 120 119 120 118 121 120 120 122 119 124 129 131 129 106  51  48  98  94  88 101 100 127  86  92 116 129 116  96  98 109 131 124 146 185 180 171 171 165 162 170 192 192 196 200 185 209 177 190 185 152 131 119 111 125 140 135 166 179 171 186 179 179 177 183 189 176 166 174 179 184 178 186 190 194 191 196 206 123   4  27  29  39 111 117 115 115 116 115 116 114
 118 119 121 122 125 126 128 130 129 125 117 109  88  67  46  16   2  16  81  85  92  91 101 109 105 135  99 109 105  95  77  99 116 113 132 146 175 138 175 172 157 195 190 188 195 190 192 209 194 186 164 154 148 108 113 111 143 151 170 173 172 191 181 169 175 178 182 172 161 165 183 186 176 184 190 192 193 194 210 162  23  30  30  29  93 122 118 116 113 116 118 115
 124 125 127 124 115 107 100  80  58  42  30  18   9   4   5   7  10  11  48  95  87  88 103  93  97 132  99  83  93  99  96  92 109 136 141 142 180 156 159 185 170 192 204 176 186 184 188 199 186 186 165 144 138 108 103 133 155 173 158 157 171 187 177 179 168 170 162 173 166 169 178 179 178 182 184 189 194 192 211 110  22  31  28  25  67 126 118 116 114 117 119 117
  90  76  56  43  24  15  12   5   3   5   7   8  12  12   9   8  13  13  23  86  85  94  97  82 112 124 102  77  79  71 102  96 105 124 135 147 183 173 153 180 197 171 189 181 159 187 188 192 179 164 162 142 122  92  82 131 143 147 157 168 163 166 164 178 174 177 173 166 173 167 175 178 180 183 188 193 192 205 171  30  27  32  30  26  36 112 121 118 117 119 121 119
   5   4   4   4   7   8   9  10  12  11  11  11  11  10   8  10  16  14  14  73  90  81  97  94  83  82  95  81  72  87  87  76  94 136 130 123 178 159 160 163 188 179 189 179 183 180 182 174 161 152 146 110 101  93 107 128 138 142 158 163 168 158 154 171 163 168 172 161 168 176 180 174 177 182 188 190 200 198  62  16  32  30  29  29  23  69 126 119 118 119 117 116
   8  10  10  10  10   9  10  10  10  10  10  11   9   7   9  13  13  13  11  60  89  88  84  92  76  81  93  63  85  80  85  62  92 118 126  97 154 174 158 149 165 165 173 163 180 174 164 169 129 126 124  92  94  92 110 139 147 139 166 167 157 154 164 174 159 163 169 171 173 177 176 172 182 185 187 194 207  85  13  31  30  29  30  30  30  26  81 129 119 119 117 116
   9  10  10  11  10  10  10   9   9   9  10  10   8   7  11  14  12  13  10  48  68  85  87  84  82  73  85  50  87  74  86  69  90  91 119 131 128 177 157 181 179 162 157 162 166 146 143 141 134 130 115 127 114 101 110 132 141 145 159 163 161 171 166 171 162 158 166 185 179 173 175 182 185 183 191 206 103  10  28  31  30  29  30  30  30  29  27  84 129 120 119 120
   8   9  10  10   9  11   9   8   9  10  10   7   7   7  13  12  13  13   7  36  55  59  84  83  74  64  57  66  52  62  64  75  87  67  89 132 115 142 132 184 169 168 162 149 142 153 126 106 124 121 116 129 121 110 118 150 153 157 165 160 164 151 165 167 161 164 172 181 177 180 177 185 181 189 210 135  16  26  29  29  28  28  29  29  29  30  27  24  84 130 125 122
   9  10  10  10   8   9   9   9   8  10   9   6   6   9  13  14  13  12   7  21  44  49  51  70  84  70  59  66  55  55  44  51  69  82  62 116 110 129 132 160 145 142 154 121 101 143 121  84  98  84 120 107 111 114 111 154 152 164 162 166 176 163 169 155 164 169 165 177 173 177 180 184 188 204 122  16  24  31  28  27  27  26  28  28  27  29  31  27  23  72 125 125
  10  10   9   9   8   8   9   9   8  10   7   6   7  11  11  13  11  12   9   9  28  40  48  52  58  75  77  70  69  52  46  48  44  74  66 107 120  96 127 117 126 102  78  81  87  99  92  80  75  88 116 119 121 127 132 144 154 164 170 180 187 183 160 155 165 168 166 174 174 180 181 186 199 116  15  22  30  28  25  27  28  29  28  28  29  30  30  28  28  22  48 119
   9   9  10   8   8   9   9  10   9   7   6   5   7  11  11  12  11  12  10   7  19  27  41  52  48  53  69  66  64  60  56  48  49  54  49  73  73  54  72  55  50  43  62  62  69  66  70  74  84 112 138 131 131 140 149 151 167 164 167 172 153 152 152 156 169 165 169 169 174 180 191 190  99  13  24  27  27  27  25  26  26  27  27  27  28  28  29  30  31  32  20  55
   9   8   8   7   8   8   9  10   9   7   6   5  10  11  11  11  11  12   9   6  11  22  28  41  48  43  44  53  53  53  49  38  34  31  37  33  33  30  30  32  32  40  49  50  49  60  60  84 121 122 132 138 145 141 155 163 168 177 165 170 161 157 154 157 172 171 171 173 177 183 179  86  12  22  27  27  25  24  26  25  25  26  27  27  27  28  27  29  29  30  31  27
