P2
# Generated by OpenCV 4.2.0
92 112
255
 174 175 176 176 177 177 177 178 175 173 184 182 187 152  79  87  82  74  58  84  75 133 100 112 108 133 125 119 103 123 123 130 125 106 118 119 135 109 121 132 140 136 136 142 150 141 149 131 114 111 130 103 109  86 118  99  79  89  60  91  86 105 144  97  96 111  93 107 121 150 176 182 183 186 184 184 191 188 186 188 187 189 188 188 186 185 184 187 186 184 186 186
 174 175 174 174 174 174 174 176 181 180 177 171 153  94  92  84 102  72  69 110 144 136 107 115 131 108 117 123  99 115 127 135 126 116 139 119 115 138 129 149 156 154 157 157 164 155 164 156 139 133 141 127 114 112 111 111  80  85  65  58  72  71  94 134  83  83 113 102 117 123 159 179 182 187 184 182 185 185 186 186 188 187 187 186 185 184 182 186 185 185 185 185
 174 175 175 175 175 176 175 178 178 180 180 174 112 105  83 102  72  72 115 154 138 103 119 139 118 126 128 128 126 128 136 134 127 132 137 131 126 150 145 155 160 168 166 163 169 162 168 171 157 152 156 142 128 128 105  91  92  76  71  54  54  56  75  82  80  88  82  96 113 128 141 145 183 177 184 184 184 185 187 186 186 187 187 187 186 184 183 184 184 182 184 184
 175 175 176 175 176 176 177 179 176 177 174 137  97  89  72  92  80 120 162 105  86 127 138 120 119 134 124 135 125 140 137 126 128 137 127 118 135 156 147 157 157 168 168 166 174 169 171 172 167 170 170 158 157 151 146 116 104  94  88  80  99  94  98  56  70  90 100  93 103 114 146 131 118 183 180 186 185 186 186 185 186 186 186 187 187 185 185 182 181 182 181 183
 174 175 174 175 174 175 176 178 180 179 161 121  75  84  77  93 109 162  84  92 142 123 108 118 132 155 149 133 140 132 129 125 128 140 148 132 133 167 137 167 158 165 171 170 178 175 173 170 168 173 173 166 156 153 161 146 136 103  89  89  91  87  81 101  78 107  71 113  98 121 137 142 122 127 175 185 184 185 185 185 186 186 185 184 184 183 183 184 182 182 182 183
 177 177 177 177 177 176 178 177 179 173 146 125  80  41  87 112 155  66  84 129 122 120 125 134 145 166 156 147 160 131 135 139 137 151 136 132 143 153 160 167 169 167 162 176 175 175 175 171 168 170 169 167 165 162 157 148 157 137 122 108  91  84  73  88  93  98 115  76 108 139 149 137 136 110 149 184 183 192 182 185 185 183 185 186 182 184 181 180 181 180 181 184
 177 176 176 175 176 175 177 178 176 184 112  91  63  55 101 133 117  82 106 135 134 119 144 150 148 135 154 158 154 133 131 143 156 133 146 158 156 162 158 170 176 166 175 172 177 177 178 176 170 172 171 166 166 166 163 155 146 148 134 129  95  82  88  89 107  99 106 110 102 133 121 198 132 137 136 177 185 186 184 186 187 185 187 187 185 185 183 179 181 181 181 183
 178 175 175 173 174 175 176 178 181 151 134  84  57  69  88 145 103 123 122 139 145 137 158 156 153 161 152 152 122 149 154 159 166 140 155 163 168 175 168 173 176 161 168 167 174 176 177 176 174 174 174 172 170 166 165 161 156 148 139 125 107  92  89  98 111 117 118 114 113 126 155 147 117 169 134 163 180 185 184 187 187 187 188 187 185 185 183 181 182 181 182 184
 178 175 174 172 174 173 176 177 175 104 108  92  71  81  98 132 132 133 149 160 143 162 162 153 154 169 155 158 159 162 164 171 171 157 166 163 165 165 176 170 177 172 170 172 176 176 173 173 180 174 174 178 173 174 172 164 167 155 139 142 118 109  93  94  87 114 118 139 124 144 153 130 147 167 139 147 175 189 183 187 186 185 186 185 183 184 181 178 179 179 179 183
 175 172 171 171 171 172 175 172 157  95  95  89  80  62  80 139 131 153 161 131 153 156 155 151 154 150 152 167 180 173 183 176 175 171 176 175 173 179 172 179 172 168 171 173 177 178 180 180 180 179 174 174 179 177 175 171 163 151 148 142 135 106  96 101  94 113 136 123  76 133 134 164 133 162 166 141 168 184 187 188 187 186 184 183 183 183 181 179 181 180 181 184
 175 173 171 170 171 171 176 186 123  92  70  89  70  58 138 123 159 170 145 154 159 166 166 163 169 160 165 160 165 173 182 177 176 171 178 177 181 178 176 171 174 177 175 175 178 177 179 180 179 178 178 178 178 173 175 176 171 155 150 153 145 122 110 109 105 114 115 113 165 134 143 137 168 156 157 178 149 192 186 187 188 185 184 182 182 180 179 179 180 180 180 184
 173 170 171 170 169 171 174 165  82  70  84  70  71  76 128 148 168 168 146 171 162 169 167 164 173 164 168 162 169 180 183 172 176 178 176 178 183 177 176 181 182 179 180 178 177 179 180 178 181 180 177 174 177 180 179 178 170 171 165 157 150 137 122 114 107 121 109 130 124 140 141 173 163 142 154 151 178 163 185 185 186 183 183 183 182 180 179 179 180 178 180 183
 175 173 172 170 167 170 176 120  88  72  88  72  75 118 145 163 161 157 156 162 171 172 171 174 177 173 171 174 180 183 185 174 179 179 178 181 185 184 174 180 178 176 179 179 181 183 181 183 182 181 180 177 179 183 180 175 177 179 168 164 161 154 140 137 121 127 121 112 116 168 142 164 156 183 148 141 176 157 184 185 185 182 182 185 182 181 178 176 178 179 179 184
 174 173 174 169 167 170 173  99  88  67  73  64  81 134 155 160 163 159 165 163 175 170 175 182 181 183 180 184 179 180 185 179 179 176 175 179 180 182 181 176 177 182 180 180 182 186 181 186 181 180 185 185 180 179 178 179 175 182 176 169 168 159 151 153 139 123 139 129 111 145 162 156 162 169 155 147 161 170 180 184 184 182 181 183 180 178 175 177 178 177 179 182
 175 172 172 165 170 172 149 107  81  75  71  75 106 145 158 167 166 168 169 178 178 176 183 189 183 189 187 183 180 183 180 179 178 181 182 183 183 182 182 181 182 183 182 184 183 185 186 184 184 185 182 181 179 179 180 180 176 174 179 175 179 171 162 153 148 150 142 138 135 126 145 154 149 170 141 156 168 169 176 186 182 181 181 184 182 180 178 179 181 180 179 181
 172 173 171 172 170 169 124 108  92  76  90  79 119 155 163 170 173 172 178 180 183 181 183 186 179 191 188 182 187 187 182 182 181 185 187 185 184 186 186 188 185 183 187 186 185 186 188 184 187 186 182 180 183 181 179 177 180 174 177 174 168 171 170 163 159 161 150 136 141 154 160 151 152 162 157 172 155 161 183 186 180 182 179 182 180 179 178 178 180 178 177 179
 175 173 172 170 170 163 125 106  99  79  99  94 141 164 165 170 176 174 177 176 180 181 186 187 186 193 194 191 188 189 186 192 185 189 189 187 188 193 190 193 190 187 187 188 190 189 185 185 185 183 181 178 178 179 180 179 181 178 180 180 176 176 176 174 161 163 152 134 137 138 163 166 162 157 163 167 174 177 173 182 182 182 178 183 181 179 177 174 177 178 179 181
 172 170 173 165 176 145 118 109 103  85 100 106 158 171 167 176 174 178 174 173 176 180 184 189 189 187 186 190 187 195 187 192 187 196 193 192 191 193 192 190 191 190 188 188 187 187 187 190 185 182 182 182 179 178 178 181 180 181 176 179 173 178 176 170 174 162 156 147 147 151 131 158 158 179 154 155 179 167 157 177 182 180 179 182 182 179 177 177 178 177 177 178
 170 170 169 175 152 148 129 120 125  97  98 139 172 173 172 173 176 180 181 176 181 176 184 187 187 187 191 197 195 196 196 195 194 193 193 191 189 194 189 191 191 191 190 189 191 190 188 187 186 185 183 184 184 178 182 178 182 181 179 179 178 177 175 176 177 174 164 153 146 137 154 157 140 152 154 171 128 178 153 169 180 179 185 182 179 176 176 179 178 177 176 178
 172 170 172 168 158 114 150  92  93 111 122 152 168 169 175 172 175 178 177 177 182 179 187 187 190 191 195 194 196 199 199 199 198 195 193 192 194 192 192 192 191 191 191 191 190 188 187 185 184 183 181 181 182 177 179 177 178 178 175 172 173 173 176 181 179 173 165 159 156 151 141 150 155 150 121 152 157 169 175 154 182 180 185 181 179 176 177 177 177 177 178 179
 170 170 168 169 160 111 101 130 121 113 139 162 166 168 176 172 175 177 177 176 187 186 189 186 190 194 198 191 191 198 198 199 197 195 197 193 196 190 194 192 192 191 192 192 191 190 192 187 186 185 184 182 183 178 182 177 180 179 176 174 172 172 176 179 174 174 169 168 166 157 154 129 172 164 138 151 143 156 175 165 175 183 179 181 178 177 177 177 175 177 178 180
 171 169 169 167 140 117 109 136 123 139 150 172 169 170 176 177 175 176 177 179 186 188 191 190 197 195 196 197 197 199 201 203 199 197 199 195 194 193 194 194 193 191 191 192 193 191 190 189 189 188 186 185 184 178 181 178 177 175 173 173 173 177 176 174 177 179 177 175 166 162 150 154 150 150 164 159 160 137 146 161 176 179 178 179 176 178 178 177 177 177 178 178
 171 169 171 164 153 114 137 131 138 135 165 173 169 171 176 181 176 177 178 180 182 187 192 194 201 194 194 195 194 199 197 198 197 192 197 197 192 197 194 193 193 192 191 190 191 191 187 190 189 186 184 183 181 178 180 176 181 179 173 175 175 176 173 171 178 176 176 176 171 162 158 155 153 160 157 164 173 163 151 140 181 179 177 180 178 178 179 179 177 176 178 179
 170 170 170 164 169 131 151 142 141 147 171 169 169 171 175 178 175 178 182 181 183 191 195 195 199 202 204 197 194 201 198 201 200 193 195 196 193 194 194 195 195 194 193 191 189 190 187 190 189 186 185 186 185 178 180 180 178 178 176 174 174 172 172 174 179 176 177 175 175 167 150 156 152 168 160 151 169 156 153 110 146 179 181 179 179 177 177 177 176 176 177 180
 172 171 169 167 160 147 139 136 132 153 174 170 172 176 175 173 176 181 185 184 189 193 197 198 198 196 199 199 196 195 195 198 195 190 196 194 196 195 194 195 195 193 193 190 187 188 188 186 188 186 184 186 182 178 180 179 176 176 181 178 175 175 173 172 171 178 174 171 170 174 169 155 160 168 178 166 167 152 144 106 127 183 174 177 176 175 175 174 176 178 178 179
 172 171 171 166 151 159 141 142 140 157 168 169 173 176 174 172 176 179 184 186 192 194 198 200 198 198 199 201 195 198 196 194 196 197 196 195 197 197 193 194 194 192 193 188 187 190 190 182 187 187 185 184 183 186 185 178 179 179 180 177 172 170 173 174 176 177 174 176 174 164 173 157 148 172 172 172 171 170 155 112  98 185 176 178 177 174 174 173 174 176 178 179
 171 172 170 172 152 143 140 148 151 165 169 170 171 173 174 172 176 175 181 186 194 194 198 200 194 198 199 201 195 191 197 197 194 193 194 198 193 197 193 195 194 193 193 189 189 188 184 186 192 191 189 186 182 183 184 180 181 181 173 171 170 170 173 174 174 175 175 178 171 170 165 164 150 161 164 165 172 161 155 119  93 194 175 179 178 176 177 175 174 174 177 181
 173 172 170 166 149 135 119 125 146 163 165 170 172 172 170 172 177 180 177 181 193 194 197 199 199 198 195 197 194 192 191 193 195 192 196 198 193 195 196 194 195 195 191 190 186 192 184 194 188 187 188 184 183 182 182 185 181 177 174 175 177 178 176 177 177 177 176 172 172 169 163 164 156 152 155 155 167 152 159 128  96 156 165 171 170 174 175 172 172 173 178 179
 173 172 175 156 134 115 118 149 160 165 165 172 175 174 173 179 176 183 182 183 191 191 193 195 194 195 197 192 192 194 192 193 193 189 193 195 193 196 197 195 192 193 197 190 189 192 186 190 191 184 183 185 187 186 178 180 176 178 180 180 178 176 175 174 177 176 174 174 172 170 166 163 154 162 149 149 155 152 125 123  87 147 165 180 175 176 172 174 172 174 177 180
 171 171 167 155 118 130 122 118 151 164 162 169 175 171 168 178 177 182 182 187 190 188 188 191 191 194 196 192 194 194 192 190 189 188 194 196 193 197 190 196 193 190 192 188 189 188 184 188 184 185 184 182 184 183 180 187 189 184 177 169 170 173 172 174 179 173 174 173 173 174 173 165 151 157 163 131 160 135 147 117 122 175 183 175 145 156 173 173 172 173 176 178
 172 171 166 167 120 116 121 149 169 167 163 166 175 173 170 178 181 183 180 184 190 186 188 190 190 192 193 193 192 193 191 192 193 188 191 193 190 193 195 194 193 193 192 187 191 187 185 192 186 185 182 183 185 187 188 185 180 174 171 175 180 179 176 175 177 173 172 174 172 172 168 164 151 145 152 140 154 125 180 132 163 179 180 138  87 101 162 175 174 175 177 179
 169 169 176 166 130 108 110 160 167 163 161 164 173 169 171 178 176 186 186 185 191 185 186 190 193 191 188 193 194 190 188 190 190 187 190 193 190 191 195 191 191 192 189 193 191 196 184 191 186 183 181 188 190 190 185 178 176 176 179 183 183 180 176 172 177 171 173 170 171 174 171 171 161 149 149 140 146 135 177 154 182 176 175 159 145 104 120 166 176 173 175 177
 169 170 169 170 139 109 112 145 161 167 166 164 173 171 172 172 177 185 184 181 185 181 184 187 193 192 187 190 193 194 191 192 196 194 190 192 192 190 197 193 192 192 192 195 196 191 187 193 187 185 189 190 187 178 182 185 186 190 186 180 174 175 173 171 178 174 173 171 172 174 170 167 161 154 159 164 143 148 173 170 184 182 178 185 146 130 108 167 173 175 175 181
 169 171 168 173 134  97 119 145 161 164 165 164 169 170 171 173 176 181 185 189 185 182 185 184 190 191 190 194 194 193 188 188 193 195 192 190 193 191 194 193 189 191 195 193 194 174 194 189 191 190 187 178 181 192 193 193 184 180 176 175 176 178 176 173 177 176 172 169 172 175 169 171 169 151 154 163 162 171 165 183 175 173 172 197 160 127 111 173 172 177 172 179
 167 169 168 167 158 104 105 144 158 163 170 163 161 167 173 181 178 179 182 182 185 187 188 185 192 193 193 192 185 193 191 188 192 197 193 189 194 193 193 189 191 193 194 192 192 178 200 186 189 188 178 185 194 191 180 186 193 193 190 181 175 175 174 172 178 175 174 169 170 172 162 172 171 146 162 150 175 170 171 186 180 179 181 187 185 122 120 157 173 174 172 173
 168 170 176 170 174  98  98 138 161 164 165 159 158 171 173 176 177 179 186 183 180 184 188 186 196 186 194 196 193 193 192 190 189 196 193 189 195 193 196 187 194 197 191 185 193 190 193 187 183 188 180 202 184 189 194 202 189 184 183 185 183 179 172 167 173 176 176 172 172 170 169 173 174 167 154 174 152 177 178 182 184 171 168 173 181 162 118 132 175 170 177 172
 170 170 170 165 175 121  93 139 155 165 165 165 162 168 171 178 176 179 181 186 189 187 184 186 188 188 189 192 188 192 195 189 196 195 190 186 187 189 189 189 188 196 187 208 182 198 187 187 187 182 189 184 190 190 189 189 192 197 193 193 183 173 171 178 173 177 174 175 174 170 169 176 168 169 158 161 152 140 172 181 179 179 143 160 186 173 146 128 166 180 173 173
 170 170 171 169 166 146 113 139 155 167 169 162 158 165 168 172 178 176 176 187 187 191 192 191 194 194 193 190 191 189 192 188 189 189 190 188 190 192 185 190 191 194 194 195 176 193 191 187 184 185 179 180 186 193 187 178 175 167 168 172 170 176 173 175 175 173 171 174 174 172 173 171 174 163 167 152 172 139 178 180 179 173 195 183 184 175 166 118 172 176 174 175
 170 170 169 169 168 162 113 126 147 160 162 161 159 163 164 169 177 176 173 175 178 181 180 181 191 186 187 193 188 192 193 192 189 190 194 188 193 198 184 186 188 185 190 195 197 196 180 189 189 182 177 189 205 184 176 167 172 175 175 162 165 160 169 181 168 173 173 174 176 176 178 174 182 169 168 155 175 165 164 171 185  99 144 170 172 180 180 122 169 171 179 179
 170 171 170 171 181 167 113 134 145 156 163 170 164 164 164 171 179 183 184 184 187 192 186 182 191 195 197 202 197 193 195 198 190 191 186 174 181 193 186 180 189 193 199 192 194 180 185 183 182 178 187 191 169 153 169 146 122 119 114 118 146 183 167 172 176 172 173 172 176 176 174 177 175 177 173 160 142 158 172 164 176  69 104 137 145 173 187 146 164 170 181 176
 170 170 172 170 172 171 123 123 135 148 166 168 161 165 173 172 175 178 182 182 184 187 190 190 189 193 193 193 195 194 189 197 189 191 182 187 186 195 187 172 188 194 191 188 189 178 187 179 180 181 197 180 137 145 126 141 162 165 179 181 174 174 171 178 170 172 170 172 174 176 178 180 176 178 177 154 147 162 178 169 170  90 112 126 125 158 184 164 162 171 179 183
 168 169 168 168 172 172 127 115 122 149 161 163 162 162 167 167 175 168 166 168 177 176 183 183 179 186 191 193 194 196 194 192 189 186 190 194 174 190 184 172 187 191 184 182 184 175 179 179 178 194 170 140 122 127 139 176 185 181 181 182 169 177 178 176 173 168 172 174 173 175 177 176 175 177 172 161 155 173 167 161 182 171 107 114 115 133 169 174 149 170 179 186
 171 170 173 170 166 170 153 112 114 140 151 160 161 156 152 157 157 168 176 178 176 184 187 194 204 187 184 185 190 191 197 187 192 188 187 184 169 194 184 179 191 195 186 182 177 172 175 178 179 166 141 122 116 134 174 171 182 181 181 184 180 178 172 168 169 170 171 174 174 177 176 175 175 177 181 179 140 171 128 161 174 179 154 127 118 112 150 180 139 167 178 184
 171 172 169 169 175 175 164 111 108 125 148 154 156 156 158 166 173 174 174 178 185 191 179 171 180 191 182 180 181 189 195 191 187 187 200 196 184 173 197 190 190 190 179 176 173 179 188 182 174 129 120 115 122 152 166 184 180 172 176 173 176 169 164 165 174 171 169 172 175 175 177 176 175 176 175 175 140 160 153 139 185 184 154 131 114 118 153 175 142 168 178 178
 171 170 169 168 170 171 175 128 114 129 147 154 156 156 159 163 168 178 181 180 176 180 191 189 180 179 179 177 174 174 181 193 186 195 187 183 195 159 191 186 185 188 177 174 175 180 179 163 128 106 114 134 144 169 176 169 180 168 179 169 167 173 179 162 171 174 175 178 178 176 179 178 176 174 177 177 164 162 155 131 174 187 185 131 110 130 158 167 152 170 178 172
 172 174 173 173 171 170 177 149 117 118 137 153 162 159 154 164 170 181 173 179 199 194 192 190 190 194 192 183 172 173 168 175 185 189 186 179 185 178 159 176 179 180 173 178 168 158 141 112 119 100 115 144 167 173 147 173 162 195 202 180 157 136 160 175 175 176 177 173 177 178 179 181 179 179 179 176 179 138 149 115 162 194 191 124 115 164 164 158 153 162 180 172
 174 174 175 175 173 175 167 138 129  93 109 153 154 153 155 163 168 168 178 188 182 176 173 177 182 178 183 188 185 177 171 169 174 179 168 174 178 192 179 155 166 169 163 159 150 135 103 104 107 116 141 159 152 182 209 175 158 112 120 116  86 108 157 176 172 179 174 176 179 176 177 177 175 173 172 174 181 148 135 148 140 189 186 150 174 175 174 166 159 163 178 175
 170 172 173 174 169 172 163 158 139  78  92 152 159 158 157 160 162 175 188 170 164 169 164 154 149 146 162 179 180 177 180 174 165 164 157 167 162 178 188 175 159 171 157 144 122 116 119 116 126 142 169 169 161 123  74  44 104 138 111 147 135 155 156 166 182 180 174 176 179 177 179 179 176 175 163 186 170 134 150 160 134 181 181 126 170 172 176 170 164 163 178 175
 171 173 171 172 172 175 147 162 160  94  89 136 156 161 154 158 164 171 161 134 126 130 123 117 117 102 110 134 144 154 163 163 156 155 148 149 125 180 183 182 173 171 163 159 153 127 107 127 133 144 108  45 117  64  98  78  85 113  87 159 168 185 185 177 178 182 179 178 180 176 176 177 175 174 170 174 162 150 151 157 120 176 148 129 176 181 177 172 168 167 180 179
 170 172 170 176 166 180 158 115 159 132  99 112 160 156 153 163 159 164 139 116 123 128 136 142 125  94  83 108  97  97 126 130 121 125 117 125 129 186 189 192 191 178 167 159 159 114 115 123 115  76  87 107 174 151  83  78  71 129 174 188 181 179 172 174 181 178 179 182 179 177 178 179 177 177 183 172 174 137 135 158 128 173 163 182 180 190 175 179 168 171 183 178
 170 172 175 168 175 166 185 100  75 154  78 111 151 157 155 157 155 159 126 137 161 169 184 196 182 163 149 132 112  99 101  99  89  95  89 115 159 185 176 169 165 167 173 173 170 125 108  90  98 111  94 122 117 132 130 142 178 180 171 170 174 176 175 183 183 173 173 171 181 179 177 179 176 176 178 172 170 136 162 165 143 156 192 194 183 192 162 177 165 175 179 180
 170 172 174 168 173 168 184 135  81  92  92 113 151 157 156 152 155 152 130 157 177 173 178 185 185 184 171 158 159 153 134 131 116 103 108  99 147 186 194 199 198 193 188 170 161 137 144 137 123 108 126 137 145 148 163 177 165 167 164 170 175 177 177 184 174 175 178 172 181 179 179 178 176 173 173 176 153 134 149 142 167 146 182 173 178 188 164 169 167 179 174 182
 170 172 171 171 169 175 166 159 103  69 112  98 149 154 156 156 154 144 143 163 165 154 153 153 158 159 168 168 156 129 129 113 111  94  97  73 120 176 182 184 180 178 178 167 158 145 138 145 130 104  92 116 145 162 169 162 167 164 165 175 174 176 177 185 182 174 178 182 185 181 181 179 174 172 169 176 153 140 158 167 159 148 165 167 173 181 175 157 172 175 176 179
 171 172 171 170 173 171 173 176 132  99 119  88 156 163 157 150 150 138 145 162 157 155 163 166 170 152  93  82  72  29 101  62  70 102  98 118 102 166 182 193 192 186 186 169 154 160 139 117 122 116 115 130 126 141 151 151 157 166 176 179 175 181 182 183 184 179 173 179 179 179 180 178 175 171 170 171 156 128 140 152 168 133 164 168 159 175 179 151 178 171 178 176
 172 172 171 170 172 173 174 174 159 137 127 105 144 160 158 155 150 144 146 147 178 176 141  84  58  50  77  89 127  71 117  85  84  84 128 128 117 160 180 191 187 184 179 167 152 159 153 141 133 127 134 139 141 148 147 163 167 168 176 177 185 184 180 181 183 179 181 179 177 179 176 174 175 171 170 169 164 133  96 176 161 138 171 166 158 164 154 174 176 174 178 177
 172 172 172 172 173 172 171 177 175 152 139 111 139 155 161 155 152 145 146 150 152  65  47 124 133  73  90  88  80 112 128 118 110 116 122 116 133 162 179 191 185 177 181 173 157 148 148 158 164 156 140 138 142 156 164 170 181 179 187 183 182 185 185 181 174 174 181 178 176 178 176 175 172 167 172 164 161 142 126 138 186 144 154 141 153 140 169 173 176 173 179 176
 171 169 171 173 172 170 171 171 177 166 130 135 139 158 163 157 157 151 153 148 123  61 148 117 150 136 122 135 161 167 146 135 111 110 118 122 154 165 165 183 184 172 175 169 167 162 161 162 165 178 175 162 157 161 160 165 174 182 178 177 176 179 181 177 177 178 175 179 176 174 173 176 173 168 169 165 156 157 133 144 164 176 121 135 145 170 178 174 176 173 178 176
 172 172 172 172 173 173 171 173 178 171 139 157 133 160 162 162 162 159 164 153 124 116 146 173 164 180 165 173 157 144 142 127 108 121 124 146 173 165 165 180 190 172 170 173 154 162 167 165 158 165 175 177 174 168 157 161 167 169 171 179 178 182 179 175 182 182 180 178 179 178 176 174 170 162 167 165 155 151 162 137 174 163 143 179 183 170 181 173 175 172 176 176
 169 171 170 173 168 173 171 172 171 176 166 158 137 148 160 166 160 163 163 167 147 142 154 126 151 160 164 154 142 149 139 112 119 133 103 164 174 164 158 173 189 185 176 172 153 155 164 168 164 165 180 177 178 177 178 170 168 167 174 178 173 174 181 181 174 181 183 179 174 176 177 178 170 162 167 146 161 166 173 149 164 114 160 172 160 171 175 175 173 175 179 178
 170 172 172 172 170 172 172 175 173 178 168 148 128 136 159 161 161 169 170 167 168 167 157 159 152 151 155 154 153 137 126 133 138 120 120 169 171 164 159 174 192 190 179 176 162 161 161 169 163 154 174 178 180 181 183 185 182 176 177 187 186 181 176 177 179 182 183 178 176 179 179 177 174 168 162 158 134 152 170 149 171 160 146 154 162 164 168 178 175 176 177 177
 170 172 171 173 171 174 172 174 174 175 170 167 124 123 153 158 164 164 165 171 178 165 172 159 162 164 154 142 140 124 141 141 131 132 142 165 162 163 153 163 183 187 181 173 159 156 163 154 168 166 169 171 180 175 176 180 188 183 179 180 183 183 181 178 171 177 176 177 178 174 174 170 174 165 163 157 151 141 143 147 177 158 132 143 169 166 167 176 172 174 177 176
 170 171 172 173 171 173 172 175 178 179 175 165 133  98 148 151 160 170 171 170 160 182 159 166 150 145 138 133 138 146 141 141 132 130 161 161 158 157 155 157 179 190 186 177 179 166 155 163 166 162 167 170 179 174 181 178 177 183 181 183 186 185 186 187 182 180 179 181 180 173 175 173 178 161 149 126 127 147 133 166 143 145 137 135 159 171 165 172 171 173 177 176
 170 172 172 173 170 174 173 173 175 177 175 153 166  86 147 138 160 164 165 170 181 165 168 174 161 163 157 157 163 166 159 150 137 147 169 163 161 152 155 153 175 191 190 181 174 162 153 159 161 158 153 152 158 162 175 172 173 176 177 180 183 183 186 186 185 185 180 180 176 170 177 175 178 156 133 149 134 131 129 162 143 151 136 158 156 167 182 178 174 174 176 176
 171 172 173 172 171 172 176 173 176 175 177 169 162 132 139 138 152 159 162 169 168 169 172 173 168 169 173 177 171 166 147 138 140 165 173 166 162 148 153 148 173 193 184 180 168 160 156 152 160 161 157 153 133 143 159 165 170 172 179 182 180 179 180 183 184 182 179 178 178 177 179 179 174 170 164 121 157 142 133 175 139 143 124 116 156 178 160 174 176 174 174 177
 170 172 174 172 172 173 175 173 177 174 177 176 156 144 142 136 156 154 155 165 166 171 169 164 168 176 171 169 162 151 142 144 157 180 176 164 158 143 149 156 167 194 186 188 176 169 166 163 157 158 156 153 138 141 129 154 166 162 167 178 178 177 177 179 181 180 182 180 178 180 179 181 164 161 154 122 109 121 166 134 168  90 154  85 143 156 181 171 175 173 171 175
 170 172 172 171 170 171 172 173 178 176 176 177 153 137 122 138 149 147 152 164 171 170 161 163 175 170 164 158 155 152 160 174 181 184 179 165 153 137 146 171 175 188 188 188 175 180 173 166 155 155 156 156 144 146 128 124 143 159 169 171 179 177 178 178 176 179 185 183 183 182 180 177 167 150 145 115 123 113 132 180 164 128 108 116 168 172 177 176 177 176 174 175
 170 172 173 172 173 172 171 174 177 175 176 178 174 149 113 142 148 150 146 152 161 167 167 167 170 168 170 167 164 171 178 184 185 179 180 158 147 122 153 169 187 185 181 188 177 179 180 179 166 153 153 156 154 152 145 134 116 135 166 167 174 177 178 180 181 181 186 182 181 181 183 173 176 135 123 131 104 120 115 150 175 174 117 137 138 170 182 177 170 173 177 173
 170 173 172 172 172 172 174 173 177 175 176 174 177 164 136 160 144 152 137 154 149 156 163 167 166 166 171 174 178 187 181 187 187 177 173 165 147 107 156 183 183 187 175 183 181 183 181 176 175 163 155 156 164 168 154 152 149 115 126 159 166 168 177 183 183 180 183 180 179 182 178 165 168 161  98  94 100 100 117 169 146 167 128 112 164 168 173 167 170 174 176 176
 170 173 173 172 172 173 171 174 177 175 176 176 175 168 133 158 123 146 147 145 146 150 158 164 162 170 173 177 180 182 183 185 181 176 172 159 138 113 165 172 189 179 183 181 182 184 180 169 165 163 156 156 165 168 155 161 167 158 130 126 153 165 178 180 177 178 183 181 181 181 171 178 171 163 100  92  91 100  86 117 151 148 127 108 178 178 174 175 177 176 174 174
 170 173 172 171 171 170 173 173 177 175 176 177 173 178 145 128 121 135 146 144 142 146 154 159 159 169 171 174 184 180 182 181 178 175 166 155 133 107 155 167 182 188 181 184 176 177 176 163 143 150 155 154 136 141 155 173 169 165 170 135 133 145 162 172 181 180 182 177 173 173 180 160 157 146 110  98  68  58 104 166 108 142 146 116 172 178 173 170 172 173 171 169
 170 172 172 170 171 172 170 174 177 175 176 176 174 177 170 130 116 109 143 148 145 146 153 157 157 163 171 173 177 181 177 177 178 173 165 148 123 116 150 152 169 181 175 180 183 177 161 146 155 128 116 144 133 144 145 149 150 164 172 160 146 135 148 166 172 179 180 178 176 179 167 145 152 142 104  79  87  83  92 143 170 147 134 141 167 163 173 172 173 174 172 171
 169 172 172 171 171 171 171 173 176 175 176 174 177 172 181 162 119 101 134 140 144 148 155 157 159 152 169 178 177 181 175 177 178 170 158 137 118 152 159 123 151 168 165 171 165 163 151 159 123 141 148 155 149 142 121 129 142 167 166 165 148 152 135 141 156 178 176 175 166 172 164 147 125 133 111  86  79  92  62 126 159 147 122 162 165 178 175 176 173 173 172 172
 169 172 173 173 172 171 172 174 175 176 176 174 175 174 177 181 131 109 112 113 150 154 161 153 152 157 165 171 175 176 178 177 176 163 149 124 130 167 154 131 100 115 159 145 141 144 159 133 134 151 143 138 151 136 142 123 121 142 178 163 151 128 159 122 132 149 162 183 173 153 141 131 122  93  98  62  66  67  93  97 136 151 142 143 160 160 175 173 172 173 173 173
 169 172 173 172 172 171 172 173 175 176 176 174 178 175 174 184 149 104 101 110 127 145 161 157 159 157 162 165 171 177 178 176 172 158 125 116 166 176 177 141 137 100 121 121 125 126 150 131 132 116 116 127 145 140 175 133 116 137 159 176 113 156  85 109 125 130 143 149 172 163 147 116 100  89  87  80  68  90 112  96 135 138 124 156 176 169 181 171 172 172 173 172
 169 172 173 172 172 171 172 173 175 176 176 171 176 177 173 176 165 100 117 133 115 135 158 156 162 160 163 167 171 181 179 173 165 149 127 147 173 172 159 130 120 115  97  89 101 125 131 102 120 118  99 110 153 156 162 155 135 118 156 124 124 128 117  98 127  93  99 130 161 145 146 111  86  82  86  94  94  53  86  95 123  98 134 177 172 171 180 173 175 174 174 174
 169 172 172 172 172 171 172 172 175 176 175 175 171 171 174 174 173 117 115 113 110 115 152 171 156 160 165 170 173 173 174 166 160 144 120 178 174 149 135 153 109 131 141 117 109 120 100  93 113  99 109 118 132 139 157 166 162 161 169 131 155 121 108  90  84 114  98  98 126 141 140 102  84  65  75  85  67  73  58  79 111 133 153 182 164 175 169 171 173 172 173 172
 169 170 170 171 171 171 173 175 174 174 176 175 173 171 171 173 171 166 102  63 116 106 142 149 166 163 162 169 167 176 168 174 154 125 166 164 159 127 175 164 137 159 128 158 130 108  72  87  92  94 129 106 130 143 129 160 138 117 117 119 138 145 133  96 118  96  94 112 120 131 127 104  82  65  80  62  74  68  95 112 133 117 149 162 174 170 177 175 174 173 175 177
 169 171 170 172 171 171 174 175 175 175 175 174 171 167 169 169 174 157 117  86 105 123 135 152 171 160 167 163 167 166 171 155 149 149 162 148 143 172 119 138 153 186 152 103 164 100  91  77 127 183 121 121  95 145 146 107 113 166 103 118  91 125  99 154  74 104  83  93 129 163 174 103  94  77  59  73  53  51  53  58 128 126 140 170 174 175 175 176 174 172 174 175
 169 171 170 172 171 171 174 175 175 175 175 173 169 168 167 168 165 173 120 100  57 120  72 114 145 151 157 159 169 164 158 164 129 165 135 150 122 160 111 165 156 166 139  95 168 112  94  57 153 135 127 108  99 127 126 117 118  98 113 101 105  97  85 115  90  99 117 120 117 127 142 108  74  56  59  50  41  60  63  59 132 161 131 155 175 174 175 174 174 171 174 176
 169 171 170 172 171 171 174 175 175 175 176 174 170 168 166 168 165 177 174 134  91  90  70  86 135 163 142 152 146 155 171 140 125 125 101 143 171 113 157 161 127 144 159 188  93  96  96  61 113 110 136  89 118  90 140 144 128 124 115  74 113 125 112  70  90  81  87  90 138  97 107  96  96  91  77  52  67  50  86  86 133 186 163 151 173 173 176 174 174 171 173 174
 171 171 172 171 170 171 174 174 175 175 175 175 171 167 166 167 164 179 176 150  68  81  90  71 101 130 129 146 140 164 162 126 114 147 120 108 158 124 157 130 150 130 153 126  83  97  93  75  88 111  98 101 121 117 104  94  70  68  94 151 165 147 137 131 121  79  90  95 117 114 125 109 110  81  66  76  57  34 101 111 178 174 160 153 174 169 173 172 173 169 171 172
 169 171 172 169 168 170 173 172 174 176 175 177 173 168 168 169 170 174 178 170 108  77  62  73  83 107 111 122 139 149 153 118 104  93  97 138 142 109 145 117 132 120 152 140  93  73  82  88 100  89  77  85  92  62 100 102 121 150 166 162 160 150 145 143 145 134  98  94 121 126 116  93 112 103  81  59  62 103 100 132 152 185 153 152 174 170 174 173 173 172 171 172
 170 170 170 169 168 170 172 172 173 176 177 176 173 169 170 170 173 173 176 176 148  93  43  52  81  76 109 104 111 130 143 107  90 151 129  81 114  80  66  88 101 111 131  88  78  67  72  82  57  35  59  82  92 112 131 134 159 168 151 158 163 148 137 150 157 156 130 108 104 112 113  56  90  82  79 103  59  51 145 147 156 170 178 147 166 173 177 174 174 173 172 174
 168 171 171 168 170 171 170 171 172 175 177 175 172 170 171 169 173 176 176 173 191 116  63  61  84  91 104  76  85 104 119 121  79 106  77  84  88  49  87  58 115  75  73  64  74  84 101 110 116 111 125 121 124 142 154 159 161 163 169 163 160 164 162 167 142 145 121  87  96 153  79 118  33  77  86  88  62 102 145 168 187 168 159 152 166 172 170 173 174 172 171 173
 169 170 170 170 173 173 172 174 175 176 175 175 175 174 172 172 175 177 176 174 180 143  49  79 109  50  65  97  74  85 101 102  62  91  72  69  67  50 100 114 117 130 132 119 136 139 128 157 131 165 150 153 159 153 163 158 164 169 149 174 157 170 158 161 157 164 137 119 148 104 142  92  54  54  91  85  75 103 117 170 172 165 154 146 167 173 173 170 172 171 169 172
 171 169 169 170 170 172 173 171 172 173 174 175 172 171 170 170 171 174 176 178 169 177  93  59  50  85  82  67  71  80 118  99  83  99 102  90  64  85 130 138 151 162 161 160 168 156 170 153 158 140 148 146 150 138 133 147 153 136 152 166 165 164 170 160 171 166 163 153 155 143 100  84  78  64  90  86  68 108 120 162 181 147 150 151 160 170 172 173 169 170 172 168
 171 170 169 170 171 171 171 173 173 173 175 174 174 172 172 173 172 174 176 177 178 176 145 100 103  70  99  50  92 117  88  85  86 106 101  70  89 137 156 176 164 179 168 160 175 162 156 138 142 129 132 137 137 135 126 119 136 150 159 176 162 169 167 175 171 172 151 174 133 159  89 115  76  17  82  49 111 118 125 174 174 149 152 154 152 168 177 172 170 171 171 170
 172 170 170 170 170 172 171 173 173 173 172 172 172 171 171 170 173 174 176 175 183 182 174 153  87  63  53  63  54  75 103  97 111 148  83  99 141 173 178 173 168 169 160 145 133 132 147 149 117 111 139 139 154 144 152 139 137 149 156 166 163 161 162 179 176 172 167 174 166 141 165  96 130 127  86  78 119 100 148 176 162 170 161 150 152 166 174 168 172 170 171 171
 171 170 170 171 172 171 170 174 172 172 173 171 172 171 172 171 174 175 177 176 192 181 179 182 111  67  58  73  66  97  47 130 133 117 106 121 154 161 169 179 168 167 142 149 148 164 146 157 120 113 124 146 163 129 168 142 130 145 146 145 160 170 179 174 176 179 171 159 197 175 171 131 178  99  93  84 148 144 168 169 148 139 154 152 154 159 170 168 171 171 169 172
 169 171 171 171 171 171 170 173 173 173 173 174 174 173 172 173 173 176 179 171 176 185 168 185 145  98  56  80  47  56 112  73  86 102  96 116 133 155 183 168 166 173 153 164 149 183 137 157 147 139 131 131 164 163 141 171 169 151 160 145 159 164 178 174 169 165 176 184 184 182 193 137 112 114 114  89 116 172 163 155 153 159 148 149 154 159 163 171 172 174 173 172
 169 171 172 171 172 172 170 174 174 174 174 175 175 173 172 173 175 169 176 180 173 181 188 159 124  58  67  49  45  69  63  82 104  81  82 127 156 180 167 159 161 162 182 173 131 160 144 145 121 137 145 138 149 164 134 156 157 159 164 172 155 182 127 185 186 185 210 169 180 188 173 157 158 114  90  96 133 131 162 151 150 154 148 151 155 162 160 171 173 171 170 170
 169 171 171 172 172 171 172 174 174 174 174 175 174 174 175 174 173 181 175 177 185 155  85   6  38  59  82  52  63  87  98  80 106  72  74 187 149 148 160 176 167 174 169 181 168 140 148 177 127  72 155 150 152 182 159 149 168 167 150 180 187 196 211 183 159 191 198 207 214 198 184 187 158  78  70 115 165 189 164 148 157 148 151 153 158 160 160 162 171 171 169 170
 169 171 171 169 172 173 173 174 174 174 174 175 174 174 176 176 179 170 186 163  62  27  17  23   6  30 114 108  50  47  77  76  48 108 181 154 174 174 191 187 194 168 184 171 172 150 152 146  82  76 194 129 187 168 154 155 139 155 158 181 183 166 214 202 198 185 199 217 216 177 176 185 101  94 101 112 134 166 163 151 159 150 153 155 157 161 162 159 165 172 174 173
 168 171 169 169 171 171 174 174 174 172 172 174 174 175 176 176 187 179 102  20  14  28  29  24  19  12 104 136  69  83  73  78  92 139 111 185 184 164 180 202 192 168 173 193 170 166 165 134 110 130 172 143 162 173 181 138 160 177 143 186 189 189 213 155 209 178 210 189 212 159 200 173 137 114 121 143 131 139 158 154 156 154 151 155 157 160 163 173 160 166 177 175
 172 170 165 164 170 176 174 175 175 171 172 168 185 189 170 131  69  32  11  24  20  19  29  29  16  44  30 167 123  97  66  83  89 105 124 187 192 184 219 168 197 176 181 182 155 172 174 127 129 119 176 138 193 143 165 151 173 157 169 194 183 179 213 216 195 220 177 192 195 199 181 144 106 118 100 143 162 145 155 154 155 151 154 159 155 158 167 177 163 171 110  88
 172 169 169 174 177 173 173 170 180 184 168 139  84  40  20   9  13  21  23  26  20  20  27  27  17  49  67  99 145  94 106  67  80 172 185 183 197 208 206 207 185 183 187 177 179 200 153 120 127 160 164 164 163 146 182 135 167 188 215 185 206 193 192 222 203 223 179 204 175 186 167 160 141 140 146 164 158 152 156 153 156 152 153 158 156 159 162 166 176 174 170  94
 167 169 176 175 167 171 181 176 138  68  33  29  21  28  22  20  19  22  16  27  17  18  23  28  27   4  25  44 148 121 109  83  71 136 174 191 192 175 193 206 193 182 210 154 200 157 161 142 157 173 155 184 144 144 163 138 173 163 197 191 193 204 171 202 213 207 204 202 208 183 175 166 171 161 157 163 167 145 161 154 154 155 159 159 160 161 162 162 179 162 170 163
 170 174 174 180 178 131  69  15  12  25  26  24  31  25  18   9  22  29  14  18  22  21  20  24  29  30  26  14  92 155 135 110 109 142 188 169 189 209 209 215 173 204 180 174 197 163 173 143 174 175 185 168 170 109 131 129 159 158 151 181 192 211 198 213 195 202 204 200 177 170 161 173 155 173 159 157 150 147 157 154 156 155 159 160 162 164 163 164 176 169 181 156
 186 185 142  72  33  23  23  25  24  25  24  22  21  23  25  20  22  27  19  20  25  21  20  24  27  28  24   9  80 159 164 124 104 138 170 147 189 195 183 188 198 204 186 197 186 187 177 171 162 167 171 174 172 168 147 145 163 155 191 196 195 155 204 205 191 193 183 173 175 172 145 159 139 155 145 159 147 150 152 155 159 163 158 154 162 163 166 167 167 171 174 171
  55  24  16  15  29  26  22  23  24  22  21  20  22  23  19  21  24  23  19  21  24  21  18  21  24  28  16  19  77 158 151 130 158 118 171 178 189 190 205 190 188 210 186 210 182 194 174 184 150 201 153 170 178 147 180 167 109 156 180 163 193 199 208 195 199 169 178 165 172 164 176 131 139 172 163 158 160 158 156 164 161 161 157 152 161 164 165 163 171 174 174 174
  22  27  25  21  26  21  22  19  26  19  21  19  25  22  16  21  22  20  19  24  24  20  16  17  24  31  21  18  53 157 145 134 144 130 139 183 193 170 178 192 170 210 191 192 187 188 188 218 123 226 156 165 137 149 141 150 167 177 162 175 175 192 204 197 193 154 152 136 147 143 157 152 179 136 152 147 157 151 163 168 156 155 159 156 166 167 170 167 163 169 175 171
  26  20  26  25  25  25  17  21  24  24  23  22  25  24  19  21  18  19  21  24  25  26  18  15  21  26  28  18  18 150 145 155 139 141 150 155 163 173 157 192 161 197 189 187 197 161 191 217 175 176 132 132 190 125 146 112 170 107 184 147 165 185 188 181 175 136 137 153 132 150 150 139 137 152 145 154 156 155 165 166 158 158 160 158 161 164 170 176 163 165 173 173
  23  23  22  26  26  25  20  22  22  26  26  26  24  25  22  19  18  18  24  23  25  27  18  15  20  15  21  31  11  78 148 140 152 136 146 146 169 153 151 180 152 191 197 187 186 196 183 189 179 140 164 145 151 153 125 114 161 105 167 152 191 179 188 180 139 139 139 167 146 149 145 153 157 151 151 157 154 161 161 164 166 167 159 165 163 165 173 172 176 170 169 176
  23  25  25  27  24  22  21  19  22  24  24  23  23  20  18  19  22  20  22  25  24  25  15  17  15  18  25  25  21  16 139 146 146 147 138 145 171 164 159 153 160 147 200 186 196 184 191 170 192  90 139 149 168  68 135  95 145 111 157 179 181 191 137 113 109 126 136 144 140 133 145 150 150 146 152 161 156 159 158 160 166 158 162 170 160 166 170 166 185 166 174 171
  20  25  26  28  27  24  23  24  21  20  23  23  24  23  19  19  22  19  22  22  24  25  16  16  14  18  24  25  23  19  28 158 158 149 133 133 155 157 149 130 154 148 157 166 176 184 174 181 171 138 146 157 142 129 127  99 150 129 142 174 175 133  99 120 132 135 135 128 150 151 156 151 143 142 158 157 159 164 163 165 169 165 168 166 156 162 165 172 174 186 171 175
  18  24  25  26  24  22  21  22  20  22  23  24  26  23  20  20  22  19  20  21  25  28  21  17  12  18  24  27  25  18  15  34 149 157 151 139 152 158 155 160 144 142 150 164 155 177 165 144 173 146 125 142 157 134 144 100 140 123 157 123 144 124 101 110 144 126 145 152 147 139 134 142 155 159 155 157 159 159 159 161 165 161 166 167 161 166 165 172 169 179 158  74
  23  26  27  29  26  24  25  24  22  22  23  23  25  23  20  20  22  18  22  25  24  28  20  16  10  15  21  24  24  23  14  22  22 121 168 156 146 167 139 140 159 147 154 161 140 172 160 171 159 131 153 131 117 171  92 131 143 147 151 143 124 106 109 136 136 137 140 139 128 136 137 154 160 161 155 154 153 157 165 165 167 163 168 168 166 169 163 165 170 116  27  25
  24  23  27  28  26  24  22  24  24  25  25  27  24  22  21  23  21  23  24  24  26  26  24  21  15  10  17  24  23  22  23  19  19  11  82 156 153 139 150 146 161 143 144 133 156 167 197 158 154 185 166 102 163 144 120 123 132 123 135 146 135 120 115 116 142 144 136 146 156 144 149 158 164 149 151 159 151 161 160 166 155 167 169 171 166 172 167 125  38  19  22  15
  23  25  25  25  23  22  19  21  24  24  25  26  24  21  21  22  22  21  22  21  23  25  23  23  13  11  17  23  23  26  25  21  22  18  13  19  83 158 159 149 155 155 150 118 130 125 153 148 146 135 115 144 124 123 137 124 138 143 143 150 147 139 113 125 131 144 149 149 155 151 150 159 153 147 150 153 166 166 173 163 170 163 172 170 171 122  44  18  19  21  13  23
  24  26  27  27  25  25  21  21  24  26  27  26  26  20  21  23  25  24  23  20  23  26  24  24  15  12  15  19  22  21  17  18  20  21  11  25  11  25  65 151 157 117 106 130 128 131 118 142 124 104 102 106 105 125 126 134 127 137 144 146 146 138 126 124 143 142 160 153 153 161 147 155 155 150 153 154 164 157 162 163 168 172 164 100  39  13  14  16  13  22  23  22
  26  24  25  26  24  23  20  22  24  24  26  25  23  24  24  24  26  23  24  22  23  25  22  25  18  16  13  16  19  28  22  24  17  16  22  17  17  16  15   3  30  89 109 107 134 139 141 127 121 103 111 107 125 125 140 132 143 138 149 151 148 140 143 131 141 137 153 157 149 157 147 141 149 149 157 161 165 165 166 165 128  70   9  15  14  19  18  19  27  22  21  30
  21  23  27  30  28  25  25  25  25  25  24  26  26  24  26  27  22  24  21  22  26  24  22  26  23  18  12  12  16  21  18  25  20  23  21   9  17  23  19  16  15  10  19  21  45  51  85 129 128 139 127 138 147 135 138 141 137 134 141 147 147 146 144 154 136 135 145 158 149 148 157 134 146 158 156 155 157 148  92  31  14  19  17  15  17  24  23  31  28  25  26  20
