P2
# Generated by OpenCV 4.2.0
92 112
255
  79  81  84  85  87  89  91  91  92  93  92  90  87  85  83  81  79  75  71  65  60  57  49  42  37  38  36  33  42  47  47  52  83 127 131 123 123 121 121 126 118 115 124 118 115 121 114 114 122 136 126 110 117 124 122 116 106 107 112 106 109 119 111 101 103 101  99  97 101 105 105 114 137 156 159 160 159 159 159 160 160 161 162 161 160 161 160 162 161 161 162 161
  78  79  82  85  86  89  91  94  92  93  91  89  85  81  80  79  77  72  68  64  60  56  50  45  36  35  42  49  40  57 102 117 132 138 127 118 129 122 114 112 113 113 112 114 110 114 117 120 124 130 133 123 119 116 111 105  96  96  98 100 108 112 123 116 103  94  94  93  94  98 102 110 137 156 159 159 159 159 160 161 160 159 161 160 160 160 161 161 160 160 161 160
  77  78  81  84  87  89  93  94  93  92  89  87  82  79  77  77  72  71  67  63  59  57  56  49  44  40  46  66  94 128 141 133 133 129 116 107 122 126 112 109 111 121 116 129 130 126 134 133 127 138 157 152 138 124 120 102  97  96 102 105 101 117 124 125 138 127  95  89  90  90  93 105 135 155 158 157 158 158 159 160 159 159 159 159 160 160 160 161 160 160 160 160
  76  79  82  85  85  87  89  90  91  91  87  82  80  77  75  74  70  69  64  60  60  61  62  59  54  47  61 107 140 142 122 113 110 105 102 117 111 121 110 112 111 121 136 135 141 136 141 146 147 143 149 158 157 146 124 117 106 112 104 118 118 116 108 120 141 150 142 113  94  92  91 104 135 152 156 156 157 159 158 159 159 159 159 159 160 160 160 160 160 161 161 161
  74  76  82  85  85  86  87  89  90  89  83  78  75  75  73  71  69  64  61  59  60  63  65  66  71  95 135 142 127 124 107 104 111  98  92 112 122 106 109 106 119 132 129 128 139 145 153 141 140 151 144 147 149 156 165 138 117 128 111 104 112 102 108 111 127 131 145 152 130 101  95 107 135 154 157 157 157 159 158 159 158 158 160 160 159 161 159 160 160 160 160 161
  72  74  79  83  84  85  87  88  92  85  78  74  72  72  71  69  68  65  61  60  62  63  70  93 135 155 143 118 111 106 105 103 106  94 109 113 113 104 112 119 118 128 125 129 142 142 134 138 140 140 143 139 152 147 148 152 138 133 123 110 105  94 102 106 112 116 125 159 152 121  97 106 137 154 157 158 157 157 158 159 159 159 160 159 160 160 159 159 160 160 160 161
  70  73  79  83  83  86  88  90  88  80  73  70  70  69  67  67  68  67  71  72  76  84 116 149 158 142 121 106 103 107  96 113 108 111 119 118 122 124 111 122 128 128 131 133 138 146 153 144 137 140 142 137 159 151 148 150 136 128 137 131 107  99 100 100  90  95 100 135 159 151 118 103 133 155 157 156 157 157 157 158 159 159 159 159 159 160 160 160 161 160 161 161
  68  70  74  79  83  87  90  88  81  72  71  68  68  68  67  68  68  68  71  69  96 125 144 151 146 121 114 108 111 110  97 110 102 117 123 119 113 124 122 115 120 124 130 141 148 148 159 155 156 155 148 138 151 140 151 155 140 131 136 136 124 111 100  98  85  77  86 113 137 144 143 122 134 155 157 156 157 157 157 157 159 159 158 159 159 158 160 160 161 160 161 161
  63  64  69  76  82  86  85  80  72  68  66  68  70  71  71  69  67  65  72 103 132 136 145 133 131 115 115 126 128 106 108 112 113 123 119 122 110 119 117 125 130 127 135 134 152 157 160 165 164 155 152 149 144 134 141 151 143 128 144 131 131 115 107  99  99  78  81  85 103 124 122 138 141 153 155 156 156 157 157 157 157 157 157 159 159 159 159 159 160 160 160 160
  60  61  64  68  73  78  77  71  66  65  66  69  70  70  68  63  58  74 100 137 129 131 139 115 121 101 114 124 133 111  93 112 112 125 116 121 122 129 128 130 127 133 152 152 157 155 152 157 166 160 165 149 152 149 144 148 149 142 142 131 138 134 124 128 120 101  96  99  94 103 114 141 138 150 157 155 155 156 157 157 158 158 158 157 159 159 160 160 159 159 160 160
  57  58  58  61  64  67  67  65  65  66  70  71  69  64  58  49  44  52 112 138 137 149 119 108 110 107 119 113 108 112 112  97  96 107 110 121 129 126 129 136 136 146 151 160 162 159 155 156 158 165 172 160 147 162 167 155 143 141 146 144 148 150 144 151 141 123 113 100  95  86 102 151 151 137 156 157 157 157 157 157 157 158 159 159 159 159 159 159 160 159 160 160
  54  54  56  56  55  58  59  62  67  70  69  67  60  54  49  46  38  67 141 129 154 148 119 103 104 121 117 107 100  93 104  93  87 106 120 124 126 127 130 145 154 158 160 162 160 158 164 158 157 164 163 157 153 154 164 166 153 144 152 158 158 157 163 161 157 148 135  99  94 102  87 120 153 143 146 157 157 157 158 156 158 158 158 159 158 159 159 159 160 159 160 159
  51  53  54  53  51  53  58  62  67  67  64  60  57  54  50  41  45 127 140 131 152 131 111 104 111 133 126  99 106 105  95  95  99 111 127 135 136 140 150 158 169 168 169 174 171 173 172 172 172 170 168 164 168 162 164 157 157 150 151 154 164 168 163 165 168 169 162 143 114 102  95  87 126 158 155 158 158 160 158 158 158 159 159 159 159 160 159 160 160 159 160 159
  50  51  51  49  49  52  57  61  62  62  59  60  56  47  42  37 100 166 143 142 139 115 124 128 120 109 115  99 110 115 100 107 118 124 136 144 148 155 163 169 176 176 176 180 177 176 175 179 180 176 174 167 173 174 167 168 165 156 149 163 171 169 166 173 174 175 169 160 129  89  79  77  90 143 160 165 159 159 159 159 159 159 160 159 159 159 159 160 160 161 161 160
  49  49  49  45  46  50  52  54  55  59  57  48  38  31  24  42 140 163 141 139 118 121 134 121 110 106 100 105 111  99 110 123 130 136 147 154 160 167 173 184 186 185 186 181 181 180 180 182 186 180 179 182 177 172 172 165 166 158 161 169 154 153 168 175 182 176 172 169 155 117  85  75  82 110 147 159 166 157 160 159 159 160 159 160 160 160 162 160 160 160 160 161
  47  47  45  44  45  47  47  49  52  46  32  21  16  13  13  51 147 151 152 132 110 127 126 119 118 114  93 107 111  94 105 123 136 156 164 172 178 182 188 191 191 192 191 191 191 190 192 186 187 183 183 181 169 173 177 173 169 168 169 168 156 159 163 181 188 182 178 172 166 148 104  73  74  88 130 148 171 160 159 160 160 159 159 159 160 159 160 161 160 159 159 160
  46  44  41  42  42  41  42  45  36  19  10   8   8  11  30 106 161 136 152 136 124 132 135 130 118 117  92  99 111 105 110 129 146 160 177 188 192 196 196 197 196 194 192 195 195 194 194 192 191 191 187 180 179 178 173 172 176 173 166 163 160 171 174 178 183 186 183 175 169 161 134  96  78  86 107 134 163 175 160 161 160 160 159 159 160 160 159 159 159 160 160 160
  43  41  39  38  34  33  36  31  21  12  11  11   6  28  91 159 158 132 155 152 120 130 150 143 115 118 116 101 112 116 124 131 149 157 172 186 194 199 203 201 201 200 195 195 196 197 197 193 194 195 188 184 189 182 177 170 168 169 167 163 167 172 174 177 180 189 185 180 174 170 157 128  98  82  95 131 153 174 167 160 160 160 161 159 160 160 160 160 160 160 160 160
  49  41  38  32  26  29  27  21  16  14  14  16  34  61 138 164 154 150 149 152 143 140 148 135 101 113 123 102 111 123 140 145 158 163 170 182 191 198 203 204 203 202 200 199 198 198 194 194 196 193 193 187 182 188 181 180 171 174 173 170 173 178 176 175 178 187 186 186 182 176 170 155 131  98  90 113 148 160 170 160 159 159 161 161 160 160 161 159 159 159 160 160
  70  44  30  25  22  23  19  17  16  16  15  25  33  59 149 154 154 157 157 152 159 143 136 118 109 115 130 106 113 124 142 155 165 176 187 193 195 201 203 203 203 204 205 200 201 202 198 196 196 196 194 187 181 183 188 184 175 172 171 178 176 180 177 176 179 188 188 186 187 180 177 171 156 122  93  98 134 160 171 168 157 160 160 160 159 159 159 159 159 159 160 160
  88  63  36  21  20  20  18  17  16  15  15  15  20 100 157 157 158 161 161 169 154 142 136 114 117 124 144 114 117 132 147 161 173 182 192 196 198 200 202 202 203 205 206 202 203 204 202 202 201 199 196 191 191 190 189 185 181 178 174 181 181 182 180 180 181 186 188 189 187 184 179 174 167 147 114 103 120 153 168 172 161 160 159 159 160 160 159 159 159 159 160 160
 100  89  73  44  23  21  20  17  16  16  16  28  54 120 165 168 164 155 165 181 147 137 143 130 141 135 146 122 124 138 155 174 185 190 196 199 200 200 201 201 203 205 204 204 205 204 203 202 202 202 199 198 192 189 187 186 185 185 184 187 190 186 181 184 187 186 186 187 183 185 182 175 172 162 143 120 125 136 149 170 175 161 160 160 160 159 160 159 160 160 160 159
 102 110 114  91  53  27  18  17  18  15  16  31  70 153 179 174 159 156 183 168 142 157 156 144 141 137 146 129 132 147 163 177 191 194 192 194 198 199 200 200 201 203 203 204 206 205 206 204 203 204 201 199 198 190 188 186 189 191 191 191 193 194 186 185 189 189 188 188 186 183 182 176 177 173 157 133 126 136 140 150 170 162 159 160 160 159 160 160 159 159 159 159
 100 115 133 125  96  60  32  19  17  16  14  22 103 170 168 163 151 162 167 148 148 168 156 157 157 136 152 145 145 152 165 176 186 192 191 191 197 197 198 200 201 201 203 202 202 203 203 204 203 201 201 202 199 193 191 189 192 194 196 192 191 197 195 189 188 190 189 187 185 181 181 178 177 176 169 148 132 136 143 136 152 165 158 159 160 159 159 159 158 159 159 160
  97 107 129 136 124  95  66  48  33  20  19  49 127 155 148 143 148 155 151 145 163 153 150 162 154 145 150 139 147 155 167 175 178 184 189 189 190 194 196 197 201 201 200 199 201 201 203 203 203 202 201 203 201 197 193 193 193 194 194 193 192 194 191 191 189 188 185 184 183 180 180 181 178 176 176 163 138 129 138 135 130 154 161 158 159 158 159 159 158 159 159 160
  90  99 124 134 128 112  99  88  69  51  43  65 130 147 146 137 144 147 148 151 151 136 149 159 151 153 148 150 156 162 169 177 178 181 182 183 186 193 197 197 198 199 200 200 200 202 204 203 203 203 201 202 201 200 196 196 195 194 192 193 193 192 190 189 187 186 184 185 183 180 181 178 177 176 174 169 153 136 132 133 123 132 160 160 159 159 158 159 159 159 159 159
  91  94 115 126 118 113 118 113  98  78  54  77 128 133 144 136 142 139 141 138 128 136 143 143 151 155 152 155 157 163 172 179 183 182 181 181 184 193 197 196 196 199 201 203 203 203 203 204 201 201 202 201 199 200 198 199 197 195 192 192 190 190 187 185 183 183 185 184 182 182 183 178 175 173 172 171 165 146 134 123 113 119 154 159 157 158 159 158 160 159 159 159
  94  92 103 109 108 118 123 119 107  84  63  97 127 128 137 139 140 125 123 117 117 126 135 147 146 140 138 147 158 170 175 178 184 179 179 181 184 188 197 200 200 200 203 204 202 204 203 202 201 203 202 201 199 199 199 198 196 193 192 192 187 184 184 182 182 183 184 184 184 183 182 179 177 171 171 174 171 161 142 119 105 105 140 159 158 160 159 158 157 158 160 159
  82  86  92  92 104 122 128 122 107  82  75 115 123 120 133 138 131 110 116 110 122 131 130 128 130 132 132 140 150 165 175 177 179 184 188 186 183 187 191 196 199 199 200 201 201 201 203 203 203 201 200 199 197 196 194 191 190 190 187 185 183 180 181 181 182 185 185 185 186 181 180 178 175 173 171 172 169 168 153 120  97  99 128 158 158 158 158 158 158 153 149 151
  50  65  79  84  99 122 130 120 103  85  92 114 118 119 133 123 119 113 108 111 123 124 122 126 136 143 147 147 150 163 171 173 177 185 187 184 181 183 185 190 195 197 199 200 203 200 202 199 201 200 198 197 197 194 189 182 185 184 180 179 179 179 179 181 184 185 184 182 182 179 177 175 175 174 171 170 165 166 165 142 110 102 129 158 158 158 159 158 159 140 106  99
  19  36  58  71  86 113 126 117 102  97 107 115 116 104 123 110 112 108 109 108 107 111 111 122 127 138 146 150 156 165 169 172 174 177 179 179 178 182 181 184 191 189 187 194 197 197 196 198 198 197 193 193 193 191 184 181 180 178 175 175 175 174 173 177 182 183 181 180 178 176 175 173 172 171 167 168 166 162 166 154 116 102 121 152 158 157 158 159 159 134  77  55
   6  13  31  49  63  92 114 113 111 115 115 115 101  99 123 123 128 106 112 118 117 121 127 129 135 142 147 151 159 158 170 170 174 173 176 175 176 175 175 180 181 180 176 184 188 192 196 193 192 192 190 190 185 182 180 180 177 173 171 170 173 170 170 174 175 178 176 176 177 174 172 170 171 168 163 166 167 162 166 161 137 111 126 147 157 157 158 159 158 135  78  57
  14  12  20  31  39  65  88 106 123 133 128 117  96 102 128 130 116 111 127 122 125 139 138 134 138 141 145 159 164 164 163 165 170 175 175 175 174 172 171 173 171 171 172 171 178 181 185 187 188 186 185 180 176 177 174 177 175 171 170 163 163 167 169 169 170 170 169 173 174 173 171 171 169 164 161 168 169 158 157 159 148 115 121 149 158 158 158 158 159 135  79  57
  28  25  33  36  35  44  59  84 122 135 131 110  96 113 125 115 101 115 136 121 117 123 128 135 146 150 160 168 164 161 157 160 165 172 175 173 171 172 169 164 167 164 167 164 165 169 172 178 181 181 178 172 174 173 167 164 168 168 168 163 162 160 162 168 167 166 168 168 167 170 168 167 164 160 162 164 170 167 164 164 162 128 118 147 158 158 158 158 158 136  79  56
  38  38  43  49  46  40  40  52  93 121 128 114  96 106 104 101 113 117 126 113 110 110 119 132 141 150 158 162 160 161 156 155 158 165 173 172 171 161 160 165 164 158 163 162 158 157 161 167 169 174 173 173 177 176 171 163 161 162 163 161 160 157 158 161 162 163 164 165 162 161 160 162 156 152 154 155 159 154 153 161 162 135 119 145 158 157 157 158 159 135  81  57
  48  45  52  58  57  49  37  32  56  95 121 111  98  98 106  94 101 104 112 104 105 109 116 128 132 140 150 159 165 168 160 153 153 159 168 168 164 159 157 161 160 160 159 161 161 158 159 163 162 164 169 173 173 173 171 167 161 160 159 158 156 159 155 155 154 155 157 159 156 154 152 156 156 154 155 160 167 166 148 144 152 129 110 139 158 157 157 157 158 136  80  56
  58  54  60  65  66  60  47  34  32  62 100 100  94 107 104  96 100 113 106 100 100 108 113 120 128 134 143 152 156 156 159 154 151 155 163 163 159 155 157 156 156 159 161 160 161 163 159 160 158 156 159 162 163 163 161 163 162 159 154 156 157 158 152 153 152 150 155 158 160 157 150 151 156 161 163 168 168 158 151 149 147 137 108 132 157 158 157 158 158 135  80  57
  63  60  65  71  73  69  60  46  31  35  72  97  97 107  97  90  95 108  99  89  92 107 111 120 127 141 142 146 154 158 158 153 153 149 155 161 161 158 156 157 156 154 158 157 153 154 154 151 152 155 154 157 163 163 159 155 153 150 146 152 157 155 157 162 162 161 159 160 154 151 146 152 158 160 156 154 146 139 147 155 143 135 118 122 153 158 157 158 158 136  82  56
  67  64  69  75  81  76  68  55  42  24  49  97  87  92  89  84  97  96  86  89  99 113 125 121 128 139 141 151 156 157 151 148 142 144 155 164 166 167 159 160 156 152 152 148 140 139 143 145 151 157 162 161 157 152 155 153 151 154 155 154 159 160 158 154 159 157 149 150 149 148 148 149 141 134 141 145 153 161 148 134 138 129 125 123 149 158 157 158 157 137  81  55
  71  66  69  78  84  81  75  68  54  34  39  80  78  88  82  84  87  86  83  86 103 112 112 121 125 124 137 145 146 145 141 140 141 145 150 153 158 164 165 162 154 150 149 146 147 145 143 141 141 145 153 152 143 142 156 161 158 158 157 154 154 151 148 154 155 152 151 150 150 151 150 151 151 159 170 175 169 157 142 132 132 131 111 118 146 159 158 157 157 136  81  53
  74  67  69  80  88  87  83  76  65  46  39  73  82  83  83  81  78  86  83  91  98 105 119 121 122 124 130 133 147 150 147 143 139 136 137 142 154 166 169 166 160 157 155 151 151 147 140 137 132 131 138 145 148 150 156 152 150 154 155 153 147 144 148 155 158 157 156 156 156 159 168 166 160 165 165 157 145 144 152 150 139 133 102 104 148 159 156 156 157 137  82  54
  78  68  68  80  91  92  90  84  75  58  43  67  76  71  76  79  80  84  84  96  97 112 114 107 110 122 128 129 138 145 149 151 138 132 139 145 154 157 154 159 160 159 160 160 152 143 140 143 142 141 148 155 156 155 149 144 144 144 148 147 143 140 148 153 151 149 156 158 154 148 147 151 162 167 159 156 166 172 163 149 142 139 108 109 146 157 157 157 157 138  81  54
  83  71  69  80  93  96  97  93  83  67  51  66  62  69  76  70  82  90  89  88  96 106  96  99 104 113 119 124 129 136 148 155 155 151 148 142 137 138 146 153 156 156 161 165 165 163 157 153 153 152 148 146 156 154 152 156 161 161 166 170 163 158 160 162 160 161 168 164 159 159 169 180 170 151 163 175 167 158 155 141 138 136 110 120 148 157 156 156 159 138  81  54
  85  72  68  80  93 101 103  99  89  79  72  63  57  63  77  75  85  82  76  86  96  97  95 102 106 109 122 129 127 129 129 133 140 141 141 142 140 139 143 146 145 138 134 133 135 139 147 155 161 157 156 155 155 157 156 161 164 163 166 170 165 161 164 165 162 165 178 179 181 178 176 158 147 162 167 153 146 147 156 151 132 136 107 116 152 157 157 157 158 139  83  53
  89  74  67  78  94 102 106 103 103 145 170 148  95  71  79  87  90  87  77  87 100  96  92  99 106 113 117 124 124 120 121 135 138 129 122 130 146 156 162 168 172 170 167 161 155 151 144 140 142 148 148 148 151 155 155 157 158 160 154 150 159 159 156 153 151 157 169 178 175 161 157 157 161 154 130 126 126 124 134 146 134 133 103 121 158 156 156 156 158 138  83  53
  90  74  65  77  91 102 109 106 132 159 165 179 174 114  83  87  77  80  78  83  89  88  93  88  98 109 114 104 113 120 120 120 132 136 129 119 124 128 131 140 145 148 153 163 166 177 182 182 173 174 175 173 168 168 168 162 168 168 160 154 158 162 160 157 154 163 168 159 150 155 162 155 144 121 117 126 121 126 122 129 136 133 102 126 158 156 156 156 157 139  82  52
  91  76  64  73  89 100 109 115 125 106 116 143 158 160 122  92  68  67  75  84  84  78  83  87  94 103 112 102 105 117 125 120 116 119 128 128 120 115 117 120 125 134 138 138 134 141 147 158 164 160 167 174 174 172 173 167 173 174 167 155 141 143 151 149 147 149 143 145 160 167 143 130 121 131 143 124 118 126 119 111 133 136 105 120 157 154 156 155 158 139  82  52
  96  79  65  73  87  99 107 120  98  52  52  85 119 139 152 117  70  64  69  79  76  77  76  84  85  86  91 105 115 116 126 129 131 131 125 123 132 140 145 145 152 157 160 160 155 150 148 148 152 147 137 145 155 165 167 165 160 160 155 147 135 144 158 150 142 151 161 171 164 143 126 119 130 147 133 114 108  95  89  98 127 134 109 113 155 154 156 156 155 138  83  52
  99  82  67  74  86  97 104 118  88  47  42  42  64  95 111 102  86  72  74  77  77  75  78  78  78  87  94 108 118 117 122 124 128 126 128 130 130 134 139 151 157 154 148 148 148 143 130 123 134 146 143 129 130 138 155 163 158 151 152 159 163 154 163 152 148 161 161 149 139 123 116 125 142 123 105  97  88  85  83  95 122 130 119 118 149 156 155 156 157 139  83  50
 102  86  70  77  89  96 103 109  77  44  42  50  57  54  71  86  86  73  76  68  75  75  84  78  86  98 108 114 118 120 121 120 122 123 127 128 125 136 146 142 136 136 137 139 132 126 126 120 114 111 121 121 116 121 136 154 156 147 147 150 152 139 141 150 163 162 151 131 118 112 128 129 109  95  96  86  86  97  99 106 116 122 122 120 145 156 155 155 156 140  84  50
 106  92  75  78  91  97 102 104  76  51  47  61  75  59  53  83  81  69  63  65  78  93  88  75  88 103 115 124 124 122 119 121 124 125 127 120 127 135 122 124 150 156 148 140 132 129 135 141 139 125 111 105  99 100 109 130 148 145 149 157 150 138 135 165 170 157 139 116 109 127 125 100  79  76  77  82  93  97 101 108 113 117 123 122 141 153 154 156 157 139  83  50
 109  97  80  78  89  98 100 103  88  66  55  79  99  83  68  85  86  79  70  84  89  90  74  72  91 107 117 127 126 123 117 122 123 121 120 124 135 124 120 141 134 119 106 106 114 116 118 119 123 125 124 123 109  96  93 101 118 132 136 140 145 138 114 129 136 133 118 107 110 109  89  74  64  67  79  86  97  92  95 101 107 116 125 124 140 151 154 155 156 140  84  49
 110 101  86  81  89  96 100 103  94  77  66  92 117 123 111  92  80  85  88  93  81  68  70  79 102 112 119 122 126 128 124 122 119 114 118 134 128 115 128 117 106  86  81  81  81  82  84  84  90 100 110 122 130 120  99  93  96 112 123 119 118 125 111  87 102 106  97  94  83  67  62  60  64  80  91  99  98  70  81  96 105 118 120 110 139 150 153 155 155 141  86  49
 112 103  88  83  91  97  98 101  99  82  78 112 111 121 101  61  67  74  94  89  72  75  82  87 107 121 122 122 122 124 127 122 117 117 122 123 101 121 115 114  82  69  71  74  78  82  79  76  69  70  81  93 105 113 111  97  90  90  98  96  92 109 120  85  78  80  73  67  54  48  53  65  79  91  98  90  75  61  79  98 110 120 116 108 124 142 153 156 156 140  85  49
 113 103  88  84  92 102  97 100 101  84  88 110  87  65  54  36  50  68  87  91  82  88  87  92 109 126 132 127 120 116 119 118 120 125 113  95 106 107 111  88  68  82  90  95  98  96  88  73  62  49  48  53  63  80  87  84  80  74  72  71  67  85 103  92  74  66  57  49  47  51  61  65  68  56  40  51  73  83  84 102 115 120 113 121 122 146 154 155 156 141  85  48
 113 105  92  84  90  96  94  97 104 101  98 113  85  58  48  37  35  66  92 100  85  80  94  95 106 127 133 131 125 120 115 106 114 108  99  95 103  95  95  67  78  98 102  99  99 106 104  92  72  55  43  37  39  42  48  54  57  55  54  56  71  91 105 102  83  63  47  47  49  45  38  31  25  26  40  67  75  89  96 111 118 116 106 119 133 153 155 155 157 142  86  48
 112 109  98  87  85  89  89  92 103 119 111 107  80  60  48  44  55 115 122  93  79  91  99  89 111 121 124 127 121 116 114 100  95  91  92  89  80  80  71  64  83  91  84  78  74  77  90  96  87  76  65  60  48  38  32  33  36  43  54  68  96 110 110 104  81  43  39  38  36  38  46  37  36  36  54  76 119 118 106 111 115 115  99 101 128 153 155 155 157 142  86  47
 116 112 100  90  86  89  88  87  96 119 125 116  77  61  58  53 106 153 138 106  86 101  89  91 117 119 119 123 122 116 112 101  90  94  85  75  73  70  62  70  85  86  87  86  74  62  59  56  55  52  47  45  45  38  33  29  29  38  58  82 103 116 113 110  75  33  36  33  36  57  71  53  48  51  65 113 132 121 110 113 119 112  96 102 125 151 154 156 156 141  86  47
 116 113 103  93  92  95  90  87  88 117 130 110  85  72  67  63 117 148 138 106 100  96  89  97 106 118 120 119 122 119 110 104  99  92  80  76  74  69  70  79  87  67  52  48  44  32  21  12  20  21  27  26  31  32  30  24  29  38  56  88 114 129 134 130  75  42  46  51  61  75  86  87  75  83 112 129 118 117 118 122 127 106  84 107 119 151 154 155 156 142  88  45
 117 113 106  96  92  93  90  85  77 102 125 108 105  86  68  67 118 143 131 105  99  89  85  96  93 110 117 116 117 119 112 109 108  99  93  87  78  71  69  67  48  36  39  49  66  47  35  28  30  36  46  32  32  39  42  35  36  48  59  89 117 128 133 134  85  52  52  56  67  85  95 100 109 116 114 103  99 114 119 122 128 104  72 104 118 153 154 154 155 142  88  45
 118 113 108  98  92  90  86  82  68  83 124 119 113 113 103  94 115 120 119  99  88  77  73  89  90 100 109 111 109 112 114 110 109 106 102 100  90  76  69  54  53  78  99  93  87  71  46  42  40  61  66  54  46  45  46  42  49  65  74 101 138 153 158 155 110  57  55  54  55  64  81  92  97  92  85  81  96 113 114 124 124 103  79  93 120 155 153 154 155 142  87  46
 117 114 108 101  95  85  78  77  62  60 115 131 112 127 167 151 111  97 111 100  84  80  68  83  84  97  99 101 104 104 111 118 119 115 109 109 103  93  87  86  92  88  94 111 117 113 103  92  87  93  85  70  54  50  50  53  67  81  89 104 140 159 168 162 132  79  64  64  65  62  63  67  68  64  66  80 109 118 115 123 120 101  83  87 126 155 154 154 155 142  88  45
 116 115 111 105 100  87  73  68  55  40  96 127 126 129 165 154 105 100 106  87  87  80  83  83  87  90  91  95  97 103 109 117 126 122 122 117 111 108 114 109  95  86  77  70  83 100 104 104  94  83  72  61  56  59  59  71  93  99  98 109 138 162 174 168 150 112  88  68  65  60  53  51  56  62  77  97 107 111 118 117 116 100  86  92 136 158 154 154 154 143  89  44
 117 115 112 107 104  89  71  62  48  28  67 124 139 142 139 148 142 123  95  87  88  79  95  84  89  87  83  90  98 102 106 118 125 125 123 120 119 114 111 107 102  84  71  66  62  62  66  65  65  61  55  54  61  64  79  90 104 115 108 108 131 155 172 170 155 130 113  98  71  62  64  68  75  82  94  97  94 101 114 109 113  94  84  99 142 154 154 154 155 143  90  45
 117 115 112 105 101  93  73  56  42  26  34 108 143 147 134 121 147 143  87  84  89  82 112  93  88  93  95  95 100 103 107 112 118 121 120 125 127 122 109  93  90  86  69  61  58  54  53  52  54  54  59  62  58  78  96 100 105 120 115 107 120 143 166 170 160 142 120 115 101  78  68  72  80  84  85  88  97 102 103 105 110  90  89  99 140 153 153 155 155 143  89  44
 117 115 112 106 100  93  75  52  35  27  22  63 135 149 139 124 117  98  67  81  99  99 103  82  79 101 103 100  95  94 102 108 114 115 121 130 133 125 110  97  87  82  76  66  57  50  50  50  54  60  61  57  70  92  96 100 102 116 113 109 113 136 161 172 163 151 121 118 114 101  79  72  73  76  77  89 101 105  98 102 107  88  85 111 137 151 153 153 155 144  88  43
 118 115 112 107 101  93  76  51  31  26  24  29  90 136 136 127 113 101  91  97 101  92  87  79  83  99 104 104  97  95  97 100 106 108 117 125 123 121 119 113  95  86  81  76  74  67  66  64  64  60  54  64  87  93  95 101 103 107 106 109 115 131 151 163 159 148 126 114 117 114 107  93  86  89  92 101 102 102  97 103  99  85  83 107 140 153 153 153 156 143  89  43
 118 115 112 108 103  99  83  56  32  25  26  25  40  90 125 122 118 122 128 112  95  85  86  80  93  97 108 105 103  98  93  93  93 101 109 115 120 120 119 112  99  86  83  81  79  74  68  63  57  56  68  86  94  95  98 100 101 100 105 109 116 122 134 146 151 147 135 113 113 115 113 115 110 113 111  99  94  98  97 101  98  80  80 106 141 154 154 153 155 142  90  43
 116 115 112 109 106 100  89  63  33  25  26  28  28  38  73  97 106 115 111  98  75  82  82  89  86  81  97 101 103  99  94  88  88  91  95 103 108 108 109 103 103  95  84  74  67  63  59  58  60  76  92  96 101 101 102  98  98 107 108 113 116 120 133 143 155 152 140 105  91 107 110 114 119 124 122 110  99  99  99 101  90  80  81 110 146 155 155 154 155 144  90  43
 115 115 114 111 106 104  96  68  33  24  27  27  26  26  29  48  67  73  67  63  60  72  86 102  86  81  87  97 101  95  92  90  88  82  84  86  91  95  97  95  96  94  88  81  75  72  75  80  93 101 106 107 107 102  93  84  84  98 114 121 122 121 133 150 161 159 151 117  59  84 101 109 118 124 131 126 114 107 104 105  86  82  83 103 144 157 154 153 155 144  90  42
 119 117 114 111 108 104  95  67  32  25  26  27  27  28  28  27  30  35  38  46  59  71  96 118  90  76  77  88  96  97  96  90  86  81  77  75  77  83  89  86  85  89  90  93  89  94 100 107 112 112 112 113 104  84  63  65  82  91 103 127 144 147 146 158 164 153 154 159  93  63  95 108 114 121 125 129 120 108 106  95  86  87  85 100 144 154 154 154 154 144  90  42
 120 118 113 110 108 105  92  58  27  25  27  26  26  28  29  29  28  29  33  36  59  83 111 120  82  70  70  80  90  95  94  96  89  81  77  74  74  77  81  80  80  84  90  95  99 103 108 116 116 112 111 106  86  57  57  85  94  91  94 126 150 172 175 160 155 148 154 168 147  76  91 105 111 115 117 123 121 110 107  88  73  95 102 117 150 154 153 153 154 145  90  43
 117 113 112 113 111 104  87  49  24  24  25  26  27  25  29  30  30  31  33  34  61  97 113 102  89  70  64  76  84  88  93  92  91  87  79  75  74  75  77  77  78  82  87  99 106 112 115 115 112 111 107  95  67  47  67 103 115 118 112 128 155 170 175 167 147 139 148 151 155  95  76  98 108 109 113 116 116 114 110  79  69  81 110 126 151 154 154 153 155 145  92  42
 116 115 113 113 110 103  81  40  22  24  27  26  28  28  28  29  29  29  31  37  55 102 108  95  81  60  69  72  71  84  91  90  92  92  90  83  76  74  76  75  79  87  93 104 111 115 113 113 110 109 101  76  52  46  73 114 137 137 123 128 147 158 162 157 144 142 146 141 141 101  63  92 105 111 109 110 114 114 102  72  67  71 101 126 148 154 154 154 155 145  94  43
 118 117 115 114 111 104  74  33  23  26  27  27  28  29  29  28  29  30  29  36  47  93 108  96  74  77  72  67  63  79  85  85  89  91  93  88  78  79  78  80  84  95 106 108 113 114 110 112 112 106  86  59  52  52  75 124 132 131 118 121 133 137 145 152 147 148 146 137 128  93  54  81  99 106 108 108 116 115  95  69  72  72  84 135 150 154 153 153 155 146  93  42
 121 119 117 115 113 102  68  29  24  26  27  29  28  29  28  28  28  28  30  33  47  77  98  96  81  86  80  78  69  78  81  86  88  89  90  93  91  88  85  86  89 101 108 108 110 112 114 115 107  94  67  55  72  75  74 105 119 122 105  98 108 118 125 133 146 144 133 122 106  89  64  68  90 101 106 108 114 109  83  62  66  69  78 120 146 152 153 153 156 146  94  41
 122 119 117 114 112 100  64  27  24  26  27  29  28  29  28  28  29  30  32  32  47  67  95  74  76  83  92  86  83  77  78  71  77  87  98 101  96  94  92  94  98 103 105 105 110 114 115 108  95  74  57  76  94  93  73  60  79  96  89  71  69  83 100 114 119 119 118 100  87 107  91  65  76  95 105 106 109  98  73  56  57  61  85 121 145 154 152 152 154 145  94  41
 121 118 117 116 113  97  56  23  25  26  27  27  28  27  27  28  30  31  31  31  35  70  97  67  71  81  93 100  74  77  74  62  70  82  97  97  95  96  95 101 109 111 112 111 117 119 108  99  83  64  76  98 107 103  83  56  34  41  48  46  42  46  56  73  82  83  82  74  98 112 109  84  71  84  98 102 102  86  60  53  54  60  94 130 151 153 152 152 153 145  94  41
 119 116 116 116 115  94  46  21  25  26  27  25  26  27  27  27  28  30  28  39  42  76  92  81 100  90 103 101  68  75  63  58  64  68  88  91  96 100 105 110 117 117 113 115 119 111 101  89  70  75 104 113 111 108  95  75  45  22  17  22  27  37  48  50  52  49  54  70  89 117 107  98  76  74  90  99  95  74  52  47  50  69 113 142 153 151 153 153 153 144  94  40
 117 117 119 118 114  87  41  21  24  26  25  25  26  27  28  27  26  28  28  32  46  80 106 102  99  91  96  79  83  69  54  51  57  64  79  85  93 101 104 114 115 113 112 115 111 102  93  75  74 103 113 112 110 105 112  93  71  43  28  21  23  24  30  38  40  44  55  89 102 104 113 104  90  75  82  89  78  68  59  44  50  76 111 145 153 152 153 154 154 146  94  40
 121 122 120 117 112  83  36  20  25  25  26  26  26  27  27  28  28  27  28  29  30  65  88  83  75  77  92  82  71  58  52  43  57  64  70  77  87  93 103 110 111 113 113 106  98  92  74  67  91 104 103 105 115  95 121 111  97  81  50  34  25  24  17  26  34  40  57  87 113 107  93  98  82  85  81  87  68  58  48  37  43  79 115 142 151 149 151 153 154 145  96  40
 118 118 117 116 112  77  33  23  26  26  25  27  26  26  26  28  28  27  28  29  31  49  67  83  78  88  87  63  56  51  52  50  58  51  62  72  68  85  94  92 100 104 107  99  92  80  68  83  94 102 115 122  92  91 124 107 110  99  65  42  32  33  23  30  38  45  57  70 102 102  99  86  71  73  83  81  63  60  45  41  49  68 118 149 152 152 150 152 153 145  97  41
 116 116 115 115 107  71  30  25  26  24  26  26  26  27  27  26  27  27  28  29  29  47  69  70  77  95  75  60  60  47  51  56  49  54  69  70  66  80  79  83  95 101  97  89  83  68  71  89  97 110 111  90  69 110  93  91 100  68  50  44  44  35  35  34  35  42  54  63  94 100  85  86  74  54  64  67  61  55  57  54  63  83 137 152 151 152 151 150 153 145  96  40
 118 116 113 113 105  67  26  24  27  26  26  27  27  27  27  27  27  27  27  27  29  41  77  68  61  80  65  60  58  53  57  42  41  60  68  67  66  65  73  84  91  91  85  82  77  74  74  82 104  94  80  65  88  91  72  81  80  48  43  52  37  34  30  33  38  29  49  65  99  87  71  61  70  58  59  65  48  48  53  54  62  75 121 154 152 151 151 151 152 145  97  40
 123 119 113 112 105  65  25  24  25  26  26  25  26  28  28  28  26  28  28  31  27  20  73  90  74  70  62  62  66  55  47  40  51  54  54  56  62  62  76  83  83  83  83  79  77  77  73  81  87  60  64  69  82  64  73  66  59  50  54  36  24  31  29  30  40  31  46  67  79  62  53  54  52  58  54  67  57  38  47  58  63  67  55 106 160 154 151 151 152 146  97  40
 120 117 115 117 104  61  24  25  25  25  27  27  26  29  28  28  27  27  30  27  19  13  59  97  87  72  68  70  58  51  43  48  42  41  46  48  48  57  63  67  80  90  80  84  79  69  58  66  60  50  73  71  60  53  50  56  47  46  36  23  27  34  23  25  29  31  32  45  53  42  32  46  43  50  54  63  64  43  40  50  62  65  42  31  80 145 157 152 153 145  96  38
 118 119 119 120 103  55  23  25  27  25  27  27  28  27  27  28  28  28  25  19  16  12  57  93  82  76  78  80  64  41  51  45  36  46  54  46  44  48  48  57  73  75  91 104  78  69  51  52  41  41  46  36  42  54  32  36  25  27  18  14  16  14  15  17  14   9  12  16  23  24  22  28  36  46  49  58  51  32  37  38  63  63  39  28  16  51 126 153 160 151 100  39
 119 120 119 120 104  53  23  25  26  25  27  27  27  28  28  35  37  25  18  18  16  11  53 106  87  85  95  88  72  45  49  43  44  54  48  43  42  38  43  61  71  73  99  98  80  69  53  47  35  19  12   9  20  34  19  19  13  12   8   8  11  16  17  12   5   9  18  28  39  33  23  29  37  44  47  51  48  35  37  40  62  44  22  25  25  20  28  69 113 109  80  43
 120 119 118 119  98  50  24  24  24  25  26  29  33  36  41  41  25  14  16  16  14  17  62 100  93  96  92  84  74  55  41  43  50  43  35  35  32  34  50  48  64  79  84  88  65  52  42  29  27  32  32  32  24  20  17  19  17  22  20  21  21  16  14  12  19  30  42  52  54  45  36  35  38  38  42  33  32  32  40  48  56  42  25  26  26  28  26  22  31  30  33  39
 115 114 113 112  93  48  22  24  26  32  38  44  44  44  44  26  13  13  15  16  12  31  56  92  99  92  81  81  77  59  43  35  38  32  32  32  33  33  46  41  50  61  78  72  57  39  30  32  43  52  53  60  64  58  50  41  32  30  25  24  25  24  30  36  47  57  64  64  61  58  47  41  40  45  39  34  27  28  40  52  52  52  37  22  23  24  26  25  30  35  36  37
 115 115 116 119  98  50  28  36  42  45  46  43  44  43  30  16  14  14  16  15  11  28  33  83  85  88  85  82  74  60  58  39  40  35  38  31  26  29  44  42  54  79  79  69  58  38  39  51  64  68  71  71  78  79  82  78  73  65  60  56  58  60  62  66  65  66  66  67  67  65  53  47  39  40  31  31  32  34  48  53  50  36  27  21  21  22  27  28  29  35  34  36
 113 117 119 106  75  47  43  45  44  43  42  42  43  33  19  17  15  16  15  13  12  30  37  91  77  80  86  95  89  72  60  59  44  43  40  33  28  41  44  41  52  71  57  51  42  51  59  67  76  79  83  80  76  80  81  80  81  81  79  83  77  82  73  69  64  65  67  72  72  65  60  61  50  31  27  25  30  45  53  53  41  16  19  23  22  23  28  30  26  31  35  35
 118  98  69  48  40  44  44  43  44  44  42  41  36  28  22  19  18  15  15  13  16  32  30  93  86  81  82  94  97  80  68  65  53  55  44  36  31  39  42  42  51  57  43  50  54  58  71  81  84  85  86  81  82  80  74  71  65  62  61  56  55  53  51  52  57  62  74  77  76  71  69  67  70  52  26  21  28  40  59  47  29  24  25  25  22  22  30  35  33  33  34  33
  62  44  40  41  41  44  43  42  43  42  43  39  28  23  20  18  18  15  18  13  19  32  20  90  92  85  83  88  91  86  81  72  63  54  42  38  40  31  43  37  44  55  53  73  51  63  76  82  87  90  84  77  79  73  78  75  71  61  58  49  44  43  50  56  63  65  67  77  73  77  76  75  84  86  75  47  38  46  60  42  26  25  24  20  22  26  33  39  38  32  31  32
  39  42  43  44  42  42  44  43  43  42  41  37  30  24  20  18  16  17  14  11  23  34  20  90  97  88  89  86  92  91  95  82  59  52  38  43  37  41  40  41  42  53  75  71  56  79  90  92  98  93  78  74  75  78  84  76  68  63  61  55  54  56  60  62  61  61  60  71  82  86  76  82  82  86  99  61  40  53  48  38  26  25  22  20  24  30  35  44  40  34  30  31
  43  41  43  44  43  42  43  41  41  42  37  32  29  26  20  20  16  16  13  11  29  30  15  90  94  86  85  89  92  88  87  83  68  54  41  34  31  39  54  65  59  62  78  76  93  97 114 103  91  78  72  81  82  74  82  77  64  64  63  49  59  67  63  63  64  55  60  78  96 104  97  86 103 106  96  71  37  57  31  31  31  23  21  22  27  34  39  44  46  40  30  31
  44  42  42  41  41  40  41  42  41  41  39  31  29  24  18  16  16  14  14  13  33  25  17  97  98  83  82  81  93  84  78  69  70  60  53  33  33  40  66  51  74  82  81  99 111 107 117 100  96  89  87  91  78  76  78  70  76  78  56  60  66  70  65  53  61  71  78  83  92 106 121 119 109 124 125  98  56  46  27  24  25  24  22  25  32  36  40  43  43  36  30  31
  44  43  42  41  41  42  40  41  41  36  36  33  27  19  18  17  15  16  12  14  33  26  24 103  98  86  80  72  71  72  79  68  75  70  56  44  58  65  54  65  88  87 112 129 129 142 136  93 100 110 106  94  95  98  83  70  82  63  57  84  59  80  88  68  60  83  99  96  97 120 115 115 133 118 115  89  62  35  22  26  24  26  26  28  36  41  40  45  45  41  30  31
  43  42  41  40  41  41  41  39  40  35  35  36  25  21  19  17  17  16  13  16  31  30  42 107  97  89  80  75  71  75  79  73  83  55  53  53  66  61  66 105  99 118 149 151 153 136 118  89 106 124 121 114 121  96  85  84  77  51  91  97  80  76  95  91  66  81 101 122 120 105 130 125 119 119 110  76  27  22  26  27  27  29  27  33  39  43  43  46  45  34  33  34
  42  42  42  41  42  39  39  38  39  37  37  32  23  21  16  17  17  16  13  20  42  40  50 112  99  89  82  80  76  74  64  65  69  64  61  54  67  62  80 124 134 129 124 121 113 123 120 101 120 136 128 131 105  89  97  86  68  73  94  88  84  80  90 100  80  93 112 124 141 122 116 137 114 102 109  64  23  24  27  27  27  29  31  37  41  42  45  46  43  40  31  34
  40  40  41  41  41  40  38  38  37  37  33  29  23  18  17  17  19  18  13  34  49  39  59 109  98  92  81  76  80  81  65  52  54  72  74  58  61  74  94 146 136 105 100  93 113 118 127 136 144 124 139 140 121 108  91  88  87  85  91  81  70  80  92 105  94  93 123 127 138 144 129 130 130 105  89  30  23  26  27  26  28  30  36  40  44  44  43  46  43  34  32  32
  40  40  40  40  42  39  37  42  40  38  31  26  21  19  21  22  20  17  24  48  48  38  73 109  99  98  89  84  89  85  63  45  53  55  71  64  62  74 100 133 132  95 105 123 120 128 147 146 129 130 154 138 139 118  78  96  97  79  89  81  80  79 100 111 110  96 130 139 131 142 133 130 128 107  65  23  23  26  27  27  30  36  40  42  43  45  43  45  45  43  33  31
  41  41  41  41  42  39  37  39  39  37  28  24  22  19  22  22  19  21  43  51  46  37  78 112  93  93  95 101  94  71  51  46  47  43  55  75  58  61  82 114 124 112 123 128 130 148 142 120 120 140 152 150 133 102  79 102  90  70  88  90  77  86 107  94 106 106 124 136 135 128 125 119 127 103  42  21  27  30  28  31  36  40  41  43  43  42  42  42  42  35  29  29
  40  42  41  43  41  40  42  41  39  34  26  23  22  22  24  22  21  36  52  50  47  37  69 112  93  85  86 106  95  57  42  43  47  47  48  67  78  71  70 106 123 122 132 129 141 133 130 123 129 144 146 142 111 100 103  93  96  70  92  89  67  94 100  85 100  98 121 119 133 130 121 104 123 101  42  38  32  29  32  34  38  38  40  42  42  42  41  42  43  40  31  29
  41  41  42  42  40  41  45  42  38  33  27  23  22  26  24  22  32  49  50  50  48  38  58 104  92  90  92 102  72  43  38  44  48  46  43  46  63  87  86 114 117 111 104 108 122 133 131 120 136 141 130 119 104  86  95 104  92  87  88  66  83  85  81  80  95  94 123 119 124 126 103  96 104  82  40  37  28  29  33  36  39  38  39  40  41  41  40  42  42  39  30  27
  40  42  42  40  42  42  43  41  38  31  26  24  24  27  26  30  48  51  49  49  48  41  45 100  96  93 101  86  54  41  46  48  45  46  45  37  40  73 101 113 107 106 100 119 117 132 112 118 132 124 114 114  94  91  89  79  86  77  63  73  78  59  71  79  91  93 120 121 101 117  87  79  78  43  32  28  29  30  33  37  37  38  39  39  40  39  39  39  42  36  29  27
  42  42  43  41  45  45  43  40  36  32  28  22  27  28  30  47  52  49  48  50  48  42  36  90  94  97  98  66  40  42  54  53  49  49  47  41  37  56  67  94  98 103 103 107 123 108 100 111 104 104 109 108  96  99  87  75  75  52  57  70  60  62  65  68  89  87 109 117 101 104  81  70  46  20  27  29  31  32  33  35  38  40  39  38  36  35  37  38  39  37  32  29
  42  41  41  42  43  44  43  40  37  35  27  22  29  33  46  54  49  48  49  49  48  42  29  81 105 107  84  48  35  43  54  55  52  50  48  44  39  36  42  65  87  86 102  95 105  93  94  92  92  95 107 101  99  88  77  93  80  43  58  59  51  69  70  64  72  83  98 109 105  91  53  33  29  18  27  29  31  33  34  34  38  38  36  37  36  38  39  38  38  32  27  29
  41  41  34  45  49  44  45  40  34  33  24  25  31  44  54  50  48  46  48  50  49  42  26  85 131 102  61  38  37  48  53  54  55  54  52  47  42  38  37  37  44  47  70  81  83  90  86  92  90  87  97 109 104  74  77  83  56  45  57  56  47  61  67  59  56  81  99  87  88  60  19  16  13  17  22  31  31  31  34  36  36  37  37  35  40  39  40  39  36  34  30  30
  40  37  32  31  31  33  41  36  36  43  26  31  43  52  51  48  50  49  48  51  51  43  26  78 114  71  43  39  44  50  53  57  58  61  62  55  47  41  39  37  34  30  39  56  57  85  92  81  76  76  83  93  86  82  84  69  59  59  58  52  55  62  59  59  66  73  91  69  42  15   9  12  15  20  19  26  32  32  34  35  37  37  35  38  41  40  41  36  32  34  30  30
  39  39  43  43  33  33  35  31  43  44  27  40  53  50  51  50  49  48  48  50  50  44  27  41  63  43  40  45  49  51  53  55  58  60  62  58  48  43  41  37  32  31  37  46  44  57  73  79  69  68  77  83  77  72  70  62  56  55  44  45  53  57  55  59  69  75  65  25   2   5  11  14  17  20  24  21  28  33  33  35  37  36  38  40  40  39  38  34  35  39  31  30
  40  42  46  43  41  46  50  43  47  42  34  48  51  48  49  48  48  48  49  51  50  44  30  15  28  39  48  51  51  51  54  54  58  59  61  58  51  44  42  38  34  32  30  34  42  37  42  44  46  58  59  59  57  54  49  67  59  46  39  40  45  45  45  49  53  47  14   2   5  10  13  14  17  22  24  27  23  32  32  34  36  37  38  39  41  39  37  33  32  34  36  30
