P2
# Generated by OpenCV 4.2.0
92 112
255
  14  16  16  15  14  15  15  16  18  20  22  24  26  27  28  28  26  30  36  42  49  55  60  65  69  70  68  67  67  64  55  60  91  94  90  78  82  76  55  61  58  56  53  61  64  71  65  58  74  77  95 109 118 114 122 141 136  94  45  16  22  24  20  28  28  21  38  26  24  23  24  24  24  23  23  21  21  20  20  20  21  22  23  23  24  25  26  27  26  26  23  22
  15  16  16  15  14  14  15  18  19  21  21  24  27  27  27  27  28  31  36  42  49  54  62  65  69  70  67  67  66  68  82  86  83  77  75  63  58  58  56  56  60  57  71  63  62  71  71  73  72  90  86  91  98  80  81 106 128 127 122  77  52  35  24  26  25  39  34  24  23  24  23  24  23  23  22  22  21  21  21  19  21  21  22  23  24  25  27  27  27  25  25  22
  16  15  16  14  14  14  15  17  19  20  23  25  27  27  27  27  28  31  35  42  49  55  60  65  69  69  72  76  79  77  76  69  54  53  53  47  55  60  58  59  73  65  72  65  57  66  82  87  66  79  84  83  83  80  75  77 100 105 120 125 113 105  89  48  54  50  36  27  25  33  26  23  23  23  21  21  21  19  19  19  20  20  21  23  23  24  26  26  25  24  24  21
  16  15  16  14  14  14  15  17  19  21  22  23  26  27  28  28  28  31  37  42  49  55  59  65  68  67  87  90  61  45  47  40  42  46  57  51  48  60  66  64  80  63  63  69  74  76  72  82  82  85  80  78  84  87  87  86  83  96  93  95  99 107 110 135 108  82  53  25  32  35  28  22  22  22  22  21  20  20  19  19  20  20  21  21  23  23  24  24  24  24  23  21
  15  15  15  14  14  14  16  17  19  21  23  24  26  27  28  28  28  31  36  42  49  55  60  65  67  80  79  52  41  47  48  45  47  48  51  55  63  61  65  70  80  72  62  66  71  75  74  84  79  74  74  80  93  93  98  99  97  98  75  78  86  79  92 118 126 121  87  56  47  38  24  22  23  23  21  21  20  20  20  19  19  18  21  21  24  24  24  24  24  23  23  20
  15  15  15  15  14  15  16  17  20  21  22  24  27  27  29  28  27  31  36  43  49  55  59  63  79  80  53  42  41  40  40  53  52  50  46  55  70  67  66  72  84  79  72  70  71  75  77  82  70  68  79  87  94  87  81  77  84  94  84  86  93  95  89  86  90 109 134 139 128 104  44  17  20  22  22  21  20  20  19  19  19  19  19  21  22  22  24  24  24  22  23  20
  15  15  15  14  14  15  16  17  20  21  23  25  27  27  27  28  27  30  36  43  49  54  61  81  81  50  37  38  40  40  46  62  70  71  62  67  68  77  73  77  83  77  71  79  88  81  72  77  80  81  88  89  80  79  81  80  76  77  88 103 108 116 100  85  80  94 100 104 117 126  90  44  34  24  21  21  20  18  19  19  18  17  19  21  22  22  23  23  23  22  21  20
  14  14  14  14  14  15  15  18  20  21  23  25  27  27  28  28  28  31  37  42  47  56  80  71  57  43  50  46  45  47  49  59  67  75  80  81  84  74  80  81  76  78  78  84  98  87  84  79  82  86  82  74  72  71  66  67  69  70  83 103 106 107 109  96  81  79  79  79  85 116 117  95  44  19  21  20  19  18  18  18  18  18  19  20  21  22  22  24  23  22  20  19
  14  14  14  15  15  15  15  18  19  21  23  26  27  27  28  28  28  31  35  41  55  79  73  50  51  46  51  45  49  54  60  68  69  72  75  80  95  78  80  84  80  88  96  85  91  94  98  85  73  78  79  82  82  79  76  71  75  76  76  77  90  96  96  89  76  76  78  72  74  86 100 118  73  27  18  18  20  18  18  18  18  18  18  20  20  22  22  23  22  21  21  19
  14  14  15  14  13  15  16  18  19  21  23  26  27  27  28  29  28  32  37  54  81  74  48  42  41  50  49  51  65  75  81  88  95  91  82  84  85  83  89  94  95  96  95  96  92 101  98  86  83  76  74  80  91  87  79  73  81  87  88  81  87  95  88  75  92  95  83  75  79  75  92 108 121  81  35  27  19  18  18  19  18  18  18  19  20  22  22  22  22  21  20  18
  14  14  15  14  14  14  16  18  19  21  23  25  27  28  28  28  28  27  54  80  66  44  44  42  43  55  63  75  89  98 106 112 107 100  92  91  85  84  92  95  96  95  98  95 103 102  98  98 105  87  79  95 106 103  94  87  90  88  87  89  93  88  90  84  87  89  80  83  85  74  80  85  95 108  56  25  19  17  17  16  18  18  18  19  20  20  21  22  22  21  20  17
  14  14  14  13  14  14  16  19  19  20  22  25  27  28  27  31  31  45  79  67  39  37  40  40  50  75  89 100 116 123 119 122 103 105 115  94  91  96  99  89  88  99 103  97 102 107 106 118 122 103  93 110 114 110 106  99 104  98  91  89  85  90  84  90  87  81  85  86  87  85  72  78  78 105 107  35   9  18  23  17  17  17  18  20  19  20  20  20  21  20  19  18
  14  14  13  14  13  14  14  18  19  20  23  26  27  28  31  38  55  79  59  40  34  41  38  55  80 103 120 121 128 129 114 124 117 112 115  88  92  89  88  89  95 102 106  98  97 104 108 109 123 120 115 117 126 125 125 121 123 117 108  94  91  88  83  73  67  68  75  79  93  90  78  74  73  88 120 119  65  41  19  17  17  18  19  19  19  20  21  22  20  20  19  18
  13  13  13  14  13  14  15  17  19  21  24  25  28  27  30  57  79  59  37  39  40  42  56  91 115 119 132 137 136 135 124 111 121 114  93  86  98  88 100 104 104 108 108 107 107 109 111 121 134 136 130 139 151 149 151 141 144 134 122 115  94 104  95  83  70  81  92  91  98  82  68  77  85  85  98 138 140  50  10  20  26  18  18  19  19  20  20  20  20  19  19  18
  13  13  13  13  13  13  15  17  19  22  24  25  26  25  34  67  63  48  47  37  38  59  95 117 130 123 130 134 136 126 127 113 114 115 104  93  99 102 112 115 124 126 126 119 117 120 118 138 147 145 144 154 173 166 162 159 162 155 155 143 112 102  89  75  87  86  78  77  83  75  66  76  73  76  87 103 138  89  40  42  27  17  17  18  19  20  19  20  20  19  18  16
  12  13  13  13  13  13  14  17  19  21  25  31  25  40  78  71  61  57  53  44  59  96 119 131 130 126 131 140 141 133 116 115 123 132 126 115 124 126 130 137 139 139 143 139 133 133 133 142 148 155 161 161 176 175 170 169 171 166 175 143 122 116  97  83  91  83  90  79  71  80  85  73  61  71  92  88 123 133  70  23  16  15  17  18  18  19  19  20  20  19  18  16
  12  13  13  13  13  13  15  17  19  20  34  39  51  86  71  57  60  52  49  60  98 122 133 138 144 139 136 144 141 127 119 132 140 139 141 138 148 151 151 151 146 151 161 158 155 151 148 157 158 163 172 173 170 172 175 181 182 177 176 148 145 134 108  97  99  95  98  85  86  85  94  82  60  77  86  89 100 118 126 100  74  51  21  16  18  19  20  19  18  18  17  16
  12  14  12  12  12  13  15  17  19  19  31  60  84  75  58  54  59  54  57  92 116 128 136 139 144 142 134 132 138 136 139 150 152 149 153 154 159 159 155 160 164 161 168 170 167 163 160 166 169 166 168 175 173 171 177 184 189 189 185 171 177 155 125 116  89  88  86  95 101  95  95  85  66  77  94 105  99 112 118 105  80  48  21  17  17  19  20  18  19  17  16  16
  13  13  12  11  12  13  15  17  18  26  35  47  76  75  66  68  72  72  94 121 123 130 137 140 140 140 142 145 152 147 154 164 160 162 161 156 155 160 165 172 177 175 168 169 171 171 167 168 172 170 168 173 179 181 183 185 192 193 188 182 182 158 125 119  96  89  87  88  91 104  93  86  79  67  90 111 114 117 116  99  71  40  20  17  18  19  19  18  18  18  17  16
  13  13  13  10  11  12  14  16  17  30  51  83  79  81  89  87  89  99 126 129 130 134 136 140 145 149 150 162 164 154 164 161 164 165 171 168 162 168 173 173 178 176 170 173 171 170 171 171 175 174 167 169 180 185 186 188 194 198 197 185 178 143 115 110 108  95  96  86  85  97 102  94  96  74  86 115 111 114 118 109  52  17  14  16  18  18  18  19  18  17  18  15
  12  11  11  11  10  12  15  16  17  22  64 102  95  91  93  98 103 122 126 128 135 141 141 144 151 154 161 166 164 164 165 161 162 166 167 172 177 176 176 177 177 173 172 175 174 172 172 174 174 175 173 175 184 186 185 188 191 195 193 183 159 128 119 116 112  98 100  96  93  99 100 102 103  96  91 107 105 103 111 123  71  16  27  25  18  18  17  16  18  17  17  15
  11  12  12  11  10  12  13  14  24  43  87 103  92  95 100 105 119 128 125 131 140 142 144 147 151 158 161 164 167 170 165 167 169 170 171 168 176 177 176 177 175 175 172 171 172 173 172 176 174 174 176 178 184 187 186 188 190 195 188 180 150 138 136 136 121 107 108 105  99 107  95 114 101  96 112 121 113  96 128 143 125  80  51  30  16  18  17  17  17  17  15  16
  10  10  11  11  10  12  12  12  25  79  95  70  73  82  97 119 129 124 127 139 140 143 148 152 157 161 163 165 168 170 170 169 174 175 179 178 178 178 176 177 177 175 171 173 174 173 174 177 176 179 180 179 184 186 185 185 188 192 190 180 179 178 162 148 117 117 110 105 111 115 109 116 117 102 119 136 124 102 124 155 140  81  21  18  17  17  16  16  17  17  14  15
  10  11  11   9  10  11  12  11  25  59  67  54  56  80 101 125 124 124 137 141 140 145 150 158 163 167 167 170 171 173 171 173 177 177 177 180 182 181 179 179 180 178 175 175 176 173 174 175 178 178 179 178 183 187 185 185 188 190 194 193 194 187 179 161 131 132 119 103 118 116 122 119 125 121 123 143 153 135 131 137 142 118  36   9  14  16  16  15  16  18  15  14
  11  10  11  10  10  12  10  16  46  64  55  55  65  94 115 122 124 130 136 139 143 153 155 160 164 170 171 173 174 169 172 176 178 179 180 181 180 181 181 182 180 179 177 177 176 175 174 177 175 175 178 177 186 189 188 190 194 195 197 195 195 193 177 167 150 140 123 109 118 111 125 135 142 122 128 143 166 167 151 153 146 130  54  18  21  17  15  15  16  16  15  15
  11  12  12  10  10  10  10  17  51  63  43  47  61 104 123 121 130 133 136 143 152 157 159 165 169 171 173 174 172 171 174 178 181 181 181 183 183 181 181 184 183 179 180 178 178 178 176 176 178 178 181 181 182 190 191 195 196 196 196 197 202 199 190 182 155 147 123 126 118 117 116 141 167 133 137 153 147 163 171 162 147 150  85  33  23  15  14  14  15  15  14  14
  11  11  11  10  10  10   8  12  40  61  48  43  71 112 119 125 131 132 141 147 154 156 161 169 174 174 175 173 173 178 178 179 183 183 185 185 184 183 184 184 183 181 181 178 179 176 177 178 181 180 182 184 182 189 192 196 198 198 199 203 209 200 197 192 165 148 133 130 121 130 119 132 174 160 142 159 146 161 180 148 132 150 121  39   9  14  15  15  15  15  14  14
  10  11  11  10  10   9  10  14  45  66  49  57  97 119 122 129 130 134 143 150 156 160 166 171 172 174 176 177 180 181 182 183 184 184 186 186 185 187 185 183 185 182 181 181 180 180 179 177 181 180 178 182 183 187 195 194 197 201 198 200 206 200 203 197 192 164 141 130 127 134 133 135 164 167 172 174 164 157 167 159 132 146 123  64  37  14  15  14  15  15  14  14
  10  10  11  10   9  15  16  28  43  54  49  86 119 117 124 130 133 141 147 151 155 163 168 172 174 175 181 182 182 185 187 187 188 190 192 190 189 187 187 188 187 185 182 183 182 182 178 180 179 182 179 181 183 186 191 197 196 198 198 197 199 205 209 205 200 182 167 154 129 127 135 140 156 162 182 182 182 164 152 177 144 151 124  40  16  15  15  14  15  14  14  13
  10  10  11  10  10  14  25  28  55  54  51 103 126 119 129 133 135 146 152 149 154 167 171 175 178 180 184 187 186 190 188 187 192 191 193 193 192 192 191 190 188 186 183 183 185 185 182 180 179 182 183 186 185 186 190 193 197 199 201 202 204 202 208 207 207 200 174 165 143 139 146 152 151 166 184 182 189 184 164 181 163 135 149  83  13  14  16  15  15  15  14  13
  10  10  11  10  10   9   9  16  59  46  63 112 125 118 131 133 140 150 154 155 164 171 174 177 182 183 187 191 188 190 192 195 193 192 196 196 193 192 193 193 191 187 183 185 187 184 184 178 176 182 186 187 190 189 192 194 198 200 201 203 206 205 206 209 211 209 187 177 159 147 153 160 162 163 174 183 188 192 177 178 171 137 150 108  27  14  15  14  15  15  14  14
  10  10  11  10   9   8   6  13  48  45  83 120 123 122 133 135 142 150 154 162 169 172 176 179 182 186 190 194 191 188 193 196 194 196 197 196 195 193 194 193 191 190 186 188 187 185 183 183 182 185 186 189 191 192 194 195 198 201 202 202 205 207 211 210 208 209 196 188 179 156 151 161 177 170 171 171 186 190 179 169 167 153 155 126  44  13  14  15  15  15  15  15
  11  10  10  11  10   9   8  13  37  57 107 129 120 126 133 137 145 154 156 165 168 174 180 181 184 189 192 194 194 192 193 195 197 196 196 196 196 196 194 193 191 189 189 189 188 185 183 185 186 187 186 186 190 191 194 196 198 200 200 203 205 207 211 211 208 208 199 185 179 165 157 161 169 160 166 157 174 175 165 171 177 152 163 147  68  13  15  16  15  14  15  14
  11  10   9   9  11  15  21  24  36  65 116 131 119 125 138 141 149 156 159 166 172 176 180 184 186 191 194 196 196 197 194 195 199 198 197 197 199 197 194 193 194 192 190 187 186 182 184 188 185 183 188 189 190 193 196 198 198 201 194 197 202 209 211 212 211 206 198 190 181 169 154 163 168 155 149 147 166 177 155 168 189 161 162 161  70  14  14  15  15  14  15  14
   7  10  10  10  10  12  11  35  47  71 119 131 116 130 141 145 150 155 160 165 171 175 181 187 190 191 195 194 193 196 194 195 196 195 196 196 198 196 196 195 194 191 190 190 189 188 189 189 185 184 187 189 188 190 194 195 196 199 198 201 205 207 210 214 213 212 209 199 189 179 165 160 161 165 175 157 158 171 165 153 171 157 158 156  61  15  13  14  15  15  15  15
   7  10  10  10   9   8  12  42  50  79 122 129 118 134 143 146 151 154 162 167 173 177 181 187 192 191 193 192 191 193 194 194 195 194 193 193 196 195 194 194 193 189 191 193 190 189 193 188 189 190 189 188 188 192 195 196 197 195 202 205 209 208 211 210 209 204 200 198 198 189 177 168 159 157 172 178 161 165 157 162 167 165 162 125  48  12  13  14  14  15  14  14
   9  10   8   9   8   8  13  41  50  79 121 128 116 134 146 149 154 156 161 170 175 171 178 189 191 191 192 193 194 193 193 192 194 195 194 194 196 198 193 194 196 195 195 195 192 192 196 194 189 189 190 191 192 195 195 195 199 199 204 206 206 209 211 209 215 215 208 198 197 194 180 175 172 159 165 168 168 165 160 155 165 167 176 108  19  10  13  12  13  13  15  14
   7   9   9   8   9   7  13  46  48  82 121 127 117 134 149 149 153 161 164 170 172 172 177 187 192 193 193 194 195 194 194 193 193 196 196 196 197 199 197 198 198 196 196 193 190 195 195 193 193 189 190 194 195 196 196 196 202 203 205 205 206 208 212 213 212 213 212 204 199 192 187 178 181 182 175 165 167 159 170 153 156 178 170 106  17   9  11  11  12  12  13  13
   8   9  10  10  10   8  12  47  50  88 122 131 118 132 149 151 152 163 169 170 171 175 177 181 189 191 189 195 195 192 193 194 196 194 194 196 196 196 197 197 198 198 196 191 192 193 190 187 191 191 190 192 196 198 198 201 201 202 203 206 208 210 213 214 211 212 213 205 205 198 189 191 183 183 174 155 155 159 164 147 148 168 178  85   4  11  11  11  11  12  11  12
   8   9   9  10  10   8  11  35  44  86 121 126 120 138 153 155 157 164 167 170 170 170 178 178 185 189 189 193 194 192 192 191 193 191 191 193 196 197 194 194 196 197 192 187 192 189 186 189 188 189 196 193 197 199 199 201 201 201 203 208 209 211 215 215 211 210 211 204 198 197 190 187 194 178 168 167 159 162 155 138 158 168 179 122  19  13  14  13  12  12  11  11
   9   8   8   9   9   9  14  33  44  86 122 128 124 140 152 153 158 163 169 169 169 172 179 180 184 188 188 191 193 192 194 193 191 191 189 190 192 193 196 197 198 195 191 193 189 189 185 186 185 187 190 191 195 197 197 201 202 199 202 205 209 214 213 211 214 213 208 201 192 195 188 181 190 182 173 173 173 164 159 151 152 159 162 109  18  16  16  15  14  13  11  11
   7   7   9   8   8   8   9  15  39  83 116 125 122 139 149 156 157 162 168 170 167 172 176 180 186 187 187 190 193 194 193 193 188 189 192 192 191 189 192 192 193 192 189 194 189 186 186 188 186 190 185 188 191 194 196 198 201 201 203 207 211 213 215 214 211 215 215 208 204 196 191 187 193 190 178 173 168 162 142 131 144 171 154  76   9  17  17  15  14  13  11  11
   7   9   9   8   8   9   7  16  46  81 115 122 123 138 148 156 158 163 168 172 171 174 177 181 182 182 187 191 190 193 193 192 188 191 194 195 190 192 189 186 187 185 186 186 185 184 185 187 191 192 192 192 194 197 196 198 199 201 201 205 215 217 217 214 214 216 213 213 207 197 187 187 194 191 181 176 173 147 128 114 145 173 152  82  16  17  16  14  15  13  11  10
   7   9   9   8   8   8   6  31  81  76 115 123 127 138 147 155 158 162 167 175 176 174 181 185 188 190 190 191 190 190 189 190 192 193 194 193 190 193 191 189 190 187 189 185 186 187 187 189 192 191 192 190 193 196 194 196 198 199 199 205 215 215 212 213 215 215 212 210 196 194 198 189 180 178 176 170 165 158 133 118 138 168 161  79  15  17  16  17  15  13  12  11
   8   9   7   9   7   7   5  28  78  65 114 123 125 137 147 159 164 166 167 172 177 179 185 190 190 190 190 192 192 191 185 188 193 194 196 194 192 194 194 194 190 190 190 188 189 187 185 187 188 187 189 191 193 194 195 198 201 200 199 205 211 214 214 214 214 212 213 211 195 187 202 197 186 175 179 164 163 166 138 117 114 152 152  65  10  18  17  16  14  13  12  11
   7   8   8   8   9   8   6  11  65  62 110 123 126 139 154 163 167 175 171 171 179 185 188 188 192 194 195 191 192 191 188 189 195 194 193 192 193 194 198 195 192 191 190 188 187 185 186 189 192 193 192 194 197 199 198 199 201 203 202 205 211 210 214 214 211 211 214 211 203 189 188 194 183 174 181 184 172 164 141  93  98 161 182 129  36  12  17  15  14  13  12  11
   8   8   8   8   9   8   8   6  46  58 112 125 126 139 150 162 169 173 174 166 177 184 185 187 190 196 195 194 193 194 192 190 195 192 192 192 192 194 196 195 193 191 189 189 191 191 189 191 193 194 193 197 196 198 197 196 197 201 204 206 210 209 214 213 212 213 211 213 206 187 171 190 182 172 177 180 171 156 130 122 179 206 209 215 151  23  13  16  14  14  12  10
   8   9   8   8   8   8   9   6  42  56 116 128 128 139 158 169 168 170 170 169 175 179 181 184 187 197 195 194 194 194 193 186 196 192 191 193 194 198 197 196 190 192 192 192 190 188 189 190 192 191 194 198 199 199 199 196 193 199 203 207 211 214 213 211 210 212 210 211 207 190 172 179 189 175 180 180 165 147 157 200 215 209 208 205 207  81   7  16  14  13  11   9
   8   9   8   8   9   8   7   6  32  58 116 123 131 148 156 151 146 153 163 173 175 180 180 181 184 193 197 196 194 194 194 185 194 189 190 194 195 195 198 190 187 189 191 185 184 185 191 194 194 191 193 201 205 203 200 197 195 198 203 207 209 212 212 208 209 211 209 209 206 196 176 172 185 169 178 181 170 175 205 222 212 199 167 174 204 120   6  15  16  14  12  11
   8   8   9   8   8   9   7   6  33  78 117 123 126 128 121 117 131 143 149 157 169 181 180 176 179 185 194 195 192 195 197 182 189 191 192 196 193 192 191 184 186 187 181 181 189 192 190 183 174 175 185 189 184 189 201 201 196 195 203 208 209 213 210 208 212 210 207 208 198 179 173 171 172 180 175 180 174 192 216 216 205 194 180 157 194 148  11  14  15  13  12  11
   7   7   8   8   8   7   6  14  55  84 119 120 112  93  80  92 111 110 112 124 139 169 181 177 175 178 185 191 190 188 195 179 184 199 198 197 192 188 183 181 185 186 183 192 192 183 169 156 148 144 149 156 158 175 184 191 198 195 203 209 212 213 212 210 210 207 206 209 203 177 164 183 181 189 177 180 197 210 215 211 218 206 196 185 187 162  16  13  14  14  13  11
   7   9   8   8   8   8   6  14  45  87 119 112 103 106 114 128 134 115  88  99 110 134 161 180 177 173 173 180 184 182 192 190 174 188 194 192 188 185 184 186 187 183 180 179 162 149 124 113 119 124 129 135 142 155 168 179 191 200 206 208 212 212 214 212 211 208 209 210 204 176 161 185 185 177 171 193 222 216 213 218 228 209 197 192 192 166  17  13  14  14  12  10
   7   8   8   7   8   8   6  13  43 101 115 110 109 133 143 156 166 161 138 131 110  90 107 145 168 168 164 167 174 175 186 195 176 174 183 183 184 186 187 189 186 177 156 132 120 120 107 113 145 169 175 165 158 153 157 178 190 200 204 204 210 212 211 211 211 209 208 207 197 168 158 170 178 164 175 214 221 214 218 233 232 211 198 187 196 170  15  13  14  13  11  10
   9   8   8   8   7   7   5  28  67 108 119 113 109 129 142 146 154 172 181 179 160 118  86  78 104 135 152 156 160 158 172 191 180 170 172 170 174 177 166 164 152 127 109  87  93 112 140 173 183 189 181 183 186 188 186 183 194 198 202 204 208 210 211 211 212 211 208 207 189 173 172 167 156 157 204 221 215 217 207 213 220 216 196 186 196 167  13  11  14  12  11  11
   8   8   8   7   7   8   5  40  72 113 126 122 117 121 146 151 151 161 172 180 190 189 161 126 102  92  97 119 135 147 171 189 180 169 173 158 147 131 116 102  93  84  79 105 138 156 178 189 189 183 180 182 186 186 186 188 191 196 196 202 210 210 212 212 211 209 210 208 199 179 167 158 148 176 217 213 213 217 217 208 210 216 199 184 194 161  13  10  13  12  11  10
   8   8   8   7   7   8   5  38  71 122 132 126 124 124 135 126 122 132 138 147 158 165 166 157 150 131 110  98 120 156 172 190 186 175 171 157 130  98 101 100 104 117 138 155 165 174 183 177 171 173 172 171 181 186 184 191 192 194 198 204 206 211 213 212 211 212 211 209 202 177 161 152 155 188 214 207 204 181 212 222 215 210 205 187 201 140   5  11  12  11  10   9
   8   8   8   7   7   8   3  33  75 124 136 132 131 124  92  65  93 124  85  65  56  65  79 101 113 116 125 124 116 152 171 184 180 175 167 153 128 113 120 133 138 151 162 170 180 186 186 181 178 182 188 186 178 184 181 179 189 195 199 204 207 209 213 214 213 213 211 207 205 182 167 174 167 193 208 209 189 152 172 197 212 217 209 189 210 111   0   9   9   9   9   9
   8   8   7   7   7   8   7  35  75 120 134 134 139 125  92 118 132 156 121  81  79  76  82 119 134  96 115 117 117 153 179 189 183 173 165 144 123 124 130 131 134 130 123 120 115 116 104 108 115 126 130 136 146 163 185 181 187 197 204 206 203 209 215 215 214 210 210 206 197 180 172 167 162 192 205 208 214 194 173 184 206 221 209 192 211 100   0   7   8   8   8   8
   7   9   8   8   8   6  14  43  74 115 134 138 143 135 101 122 144 139 140 108 116 130 132 147 144 134 148 153 141 150 180 192 194 180 161 132 127 125 123 113 106  96  91 105 137 107  66  63  59  72  77 110  94 122 161 177 190 202 207 211 207 210 215 217 215 212 212 207 201 177 164 172 161 190 207 211 229 233 195 180 191 219 209 192 212  91   0   8   8   8   7   7
   7   9   8   8   8   6  14  60  85 107 129 142 145 140 126 118 138 152 157 161 164 177 179 158 143 151 168 169 154 153 181 188 187 173 150 129 128 126 147 143 132 126 132 146 188 164  98  94  86  83 113 152 151 144 157 179 196 209 210 211 212 213 214 217 217 212 213 213 202 171 165 164 167 194 205 212 220 239 221 190 183 208 212 194 210  69   0   6   9   8   7   7
  10  12  12  12  12  10  18  80  86 104 125 144 147 145 145 124 132 146 158 161 160 158 158 139 131 144 161 158 139 157 180 191 185 172 145 128 129 130 173 174 151 149 159 163 163 166 141 128 135 148 173 177 173 181 174 182 198 208 206 208 213 213 214 214 217 213 214 211 203 182 165 163 171 191 203 214 216 226 222 198 180 200 211 196 203  47   0   8   8   8   8   7
  21  25  30  35  38  37  36  76  95 104 121 142 148 148 148 136 121 136 142 145 151 154 144 134 139 153 158 147 139 159 181 188 176 161 138 131 137 129 162 163 142 134 146 161 166 172 180 192 195 186 180 169 174 180 184 198 208 211 208 213 215 211 215 213 215 215 211 210 210 201 183 168 155 183 206 220 214 221 218 186 183 208 206 199 188  27   2   8   8   8   7   7
  51  57  65  72  77  80  80  83  93 101 116 141 151 152 145 138 129 129 137 143 145 144 142 149 153 153 151 149 141 157 177 181 167 152 134 131 147 135 152 159 147 138 137 147 161 170 171 174 171 164 162 164 168 174 194 201 206 207 208 215 215 211 214 212 212 211 210 210 212 202 183 154 162 188 209 224 219 213 194 185 209 210 197 207 169  12   3   9   8   7   7   7
  83  90 101 108 111 115 114 105  91 103 108 136 153 154 154 150 147 142 139 144 146 149 158 156 151 150 154 141 132 158 177 173 158 145 131 136 151 140 148 164 158 150 146 138 140 148 150 152 154 154 156 161 172 194 205 207 208 208 210 216 217 215 213 212 212 211 211 211 210 193 174 155 174 192 206 228 208 197 206 219 218 204 196 212 128   1   7   8   8   8   8   8
 102 110 121 129 132 132 133 128  95 103 107 130 151 156 157 158 160 161 160 161 161 158 156 153 155 161 147 134 130 157 177 168 157 141 130 142 156 142 151 172 171 156 156 155 155 152 152 154 157 157 160 170 190 201 200 202 204 207 208 217 218 216 214 214 212 213 212 211 204 185 166 183 172 181 210 220 179 201 220 216 214 206 203 207  71   0   8   8   8   8   8   7
 110 120 129 137 143 144 141 138 110 108 105 124 149 154 158 161 164 167 171 172 169 160 158 158 162 159 138 131 132 166 184 175 167 154 133 141 154 142 148 166 184 177 167 166 178 179 179 176 177 177 182 196 201 206 205 201 203 211 214 217 214 214 215 212 211 212 213 211 201 182 168 186 178 168 216 211 190 214 223 214 214 207 211 170  16   6  10   9   8   7   7   7
 112 120 130 139 146 150 150 146 125 101 103 116 143 154 157 161 162 165 166 164 162 159 157 160 164 152 135 129 133 168 187 179 167 162 142 136 146 142 145 158 178 188 182 177 172 177 187 190 194 194 195 195 194 200 202 200 209 216 217 214 216 214 214 211 210 209 212 212 197 187 179 193 181 170 215 220 223 222 222 215 211 210 210  93   0   8  10   9   9   7   7   7
 106 111 121 132 142 147 148 146 135 106 104 111 134 152 156 159 162 167 165 162 164 165 167 170 166 150 131 124 134 167 192 177 162 159 149 140 141 146 143 149 169 183 183 180 175 172 179 187 189 190 191 193 194 196 199 203 210 215 213 212 214 213 213 210 208 208 213 204 185 173 181 192 182 183 218 228 225 217 219 211 213 213 168  26   5  10   9   9   9   7   7   8
  93  96 102 112 121 130 136 137 139 125 104 108 128 146 156 157 163 169 173 174 175 175 179 174 167 149 126 119 139 169 191 183 163 159 154 152 146 145 143 145 167 177 183 184 184 179 177 179 181 184 187 189 193 195 199 204 209 210 208 211 211 211 212 210 208 209 215 207 198 181 182 182 180 194 216 219 218 213 213 209 214 197  63   1  10  10   9   8   8   7   7   8
  68  74  77  81  88  98 107 114 125 115 101 107 126 142 151 157 165 170 174 176 177 182 185 177 172 151 121 119 141 172 186 177 164 159 153 155 156 148 142 149 163 173 181 188 191 189 184 178 181 183 186 192 193 197 205 208 208 208 207 209 209 210 213 208 207 209 214 208 197 202 205 190 175 195 215 213 212 209 211 212 209 101   2   8   9  10   9   7   7   7   8   8
  50  55  58  59  62  66  75  84  95  90  91 106 127 141 152 158 163 169 175 178 178 182 182 177 173 157 123 128 151 178 185 171 159 156 154 149 144 135 131 141 162 172 181 187 190 191 193 185 189 192 193 192 197 200 205 211 208 210 210 207 209 212 210 205 203 210 212 207 195 191 197 194 182 199 222 218 208 204 207 208 135  15   5   9   9   9   8   8   8   7   8   8
  44  46  49  52  51  52  56  63  71  82  96 109 130 141 150 154 164 168 175 178 180 179 180 178 176 163 131 144 164 182 192 183 166 154 149 143 135 137 122 124 150 165 180 185 186 190 192 191 193 195 197 196 193 197 204 208 206 207 210 208 210 211 205 203 205 209 209 205 203 196 197 188 189 200 209 209 205 203 196 116  14   3  10   9   8   8   7   7   9   8   8   8
  44  45  47  49  51  52  53  55  57  77 101 104 129 139 144 149 164 170 178 178 181 180 180 179 175 155 135 157 175 184 185 183 171 161 158 149 135 146 140 115 128 159 173 183 186 188 189 191 194 199 198 200 197 198 206 206 206 208 209 208 212 208 197 202 207 210 209 202 199 210 205 193 194 191 179 189 190 161  77   6   4   9  10   8   7   7   7   7   9   8   8   8
  45  46  48  50  52  53  54  55  55  71  95  91 126 139 147 153 163 168 175 176 181 182 179 178 171 139 145 169 179 179 179 182 183 169 164 147 134 147 152 116 118 146 157 168 181 188 188 189 193 195 201 201 201 201 204 207 208 207 207 208 204 205 202 206 203 202 207 205 204 214 206 196 195 194 197 189 150  51   4   7   7   8   8   7   7   7   7   8   7   7   7   8
  46  47  48  51  53  54  55  55  55  65 102  92 124 141 148 151 159 167 172 177 179 179 180 173 161 130 150 174 188 182 183 191 194 169 159 144 135 144 154 136 115 139 146 160 180 186 190 190 193 193 198 199 202 205 202 205 206 203 204 208 205 203 202 207 203 194 208 202 213 207 197 186 187 199 198 196 135  39   7   7   7   7   7   8   7   8   8   7   7   8   8   8
  46  50  50  51  53  54  55  56  57  61  97  98 118 140 146 154 164 169 173 179 180 179 177 164 160 132 149 171 190 190 184 204 191 158 152 137 132 143 151 151 130 139 153 153 171 182 186 190 191 192 197 198 200 200 196 201 203 204 207 211 205 201 196 194 193 202 209 208 207 199 190 179 187 198 195 195 122  28   5   7   7   7   7   8   8   7   7   7   8   7   7   7
  50  52  51  53  55  55  57  58  60  61  71  88 112 134 138 155 163 168 171 176 179 177 166 158 173 148 132 168 180 183 189 196 172 150 135 126 130 142 147 149 136 134 162 158 156 177 187 192 193 192 193 197 195 197 199 198 203 207 209 208 203 197 198 197 197 211 211 211 203 198 191 180 190 195 195 192 116  33   6   8   9   6   7   7   7   7   7   7   7   8   8   8
  52  52  54  54  55  57  57  60  62  62  70  76  98 131 136 150 159 166 171 176 177 172 164 172 177 166 119 141 168 169 175 162 135 124 118 117 122 132 132 128 128 143 162 175 160 161 180 187 191 191 194 197 196 200 201 202 204 209 211 211 205 197 199 206 197 200 214 206 209 197 186 171 188 197 194 191 118  36   6   7   7   8   8   7   7   7   7   7   8   8   8   8
  52  53  54  54  55  58  60  60  63  66  70  65  84 125 129 146 158 163 168 174 172 165 170 178 171 157 135 119 143 151 153 140 122 106  97 104 109 109 102 111 135 143 157 177 183 166 171 184 189 192 195 194 198 201 201 201 207 209 211 211 198 180 197 207 192 195 206 212 204 196 190 174 194 196 193 190 126  28   5   7   8   8   8   8   6   8   7   7   8   8   8   8
  55  56  56  55  56  58  60  62  64  67  69  75  84 113 116 137 153 159 161 167 160 165 168 166 161 147 144 130 109 119 128 129 105  91 107 118 115 113 117 133 138 133 144 168 185 177 166 177 187 191 192 193 198 202 201 202 205 207 208 204 196 181 178 200 200 200 210 203 197 191 180 180 188 189 193 191 129  36   8   7   8   7   8   7   8   8   7   7   7   8   8   9
  54  56  58  58  58  59  61  64  65  67  72  85  67 104 123 125 143 160 165 156 148 148 151 150 144 148 156 148 124 107  99  97 100 114 123 115 115 120 121 128 132 136 142 160 175 175 169 170 182 188 190 192 197 201 198 197 197 203 200 198 192 185 176 188 210 207 199 196 202 193 184 184 181 190 192 191 141  49  10   6   8   7   7   8   8   8   8   8   8   7   8   8
  55  57  57  58  60  60  62  63  66  69  72  79  75  96 121 115 139 159 152 135 142 134 144 144 134 143 157 149 136 149 131 108 120 115 118 121 124 128 123 121 123 137 146 153 162 176 171 164 176 185 188 191 194 194 190 188 191 198 200 196 186 181 172 183 206 212 192 186 200 192 196 189 171 191 192 191 150  53  19   6   7   7   7   8   7   8   8   7   7   7   7   9
  58  59  59  60  60  61  63  64  67  70  73  77  88  93 104 106 138 156 137 134 143 136 147 137 127 146 147 141 146 153 142 129 122 120 133 135 129 130 120 131 127 139 147 133 158 164 169 163 165 179 186 188 192 190 189 192 184 188 196 194 179 169 181 183 203 205 202 187 204 188 182 181 181 194 187 190 159  63  25   6   8   7   7   8   7   8   8   7   7   7   7   8
  58  60  60  62  64  63  64  66  68  71  75  77  83  79  90  92 126 143 132 130 135 122 131 140 138 161 131 133 145 139 133 119 123 125 145 144 136 124 125 138 131 131 145 132 140 156 143 149 149 171 179 185 188 186 186 186 181 179 184 177 178 178 166 185 186 202 199 195 200 180 189 167 176 194 189 190 162  60  18   7   7   7   8   8   7   7   7   7   7   7   7   8
  59  59  62  63  64  65  65  67  68  72  75  78  76  77  99  91 113 137 129 137 124 100 103 116 130 140 123 139 130 126 131 122 131 126 133 137 124 118 137 139 143 139 138 138 149 154 149 136 147 155 168 180 183 186 178 171 174 179 177 172 173 180 178 188 185 188 196 199 208 199 188 166 187 192 190 189 144  45  11   7   7   8   8   7   7   7   7   8   7   7   8   8
  59  61  63  65  67  68  68  69  69  72  76  78  80  74  91  94 105 129 122 136 120 109  97  89  94 110 126 132 135 136 144 134 135 137 134 143 124 120 136 146 138 129 131 128 140 135 144 139 147 150 148 168 173 178 178 171 160 162 168 172 179 178 179 174 193 190 195 203 201 199 188 180 198 193 185 188 132  14   4   7   7   8   7   8   8   8   7   7   7   7   7   8
  59  61  66  66  68  69  69  70  70  72  76  78  80  81  83  97 104 130 127 135 141 124 106 126 112  95 102 110 126 134 149 146 152 157 146 153 137 144 143 143 141 119 125 129 119 116 127 137 138 145 136 163 171 167 177 175 151 155 172 183 183 187 174 171 181 185 201 205 198 201 190 184 195 191 189 192 186  54  17   6   7   8   7   7   7   8   7   7   8   8   8   8
  60  63  66  68  70  71  71  71  72  72  75  79  81  84  77  83  93 123 150 144 133 128 137 151 134 129 129 116 102 105 117 135 137 130 120 113 125 128 121 120 122 111 106 107 107  99 108 124 133 143 147 150 171 170 174 164 134 152 181 181 186 192 177 183 180 198 202 198 201 203 184 186 193 190 191 195 238 135  31  29   7   6   7   8   8   7   7   7   8   8   8   9
  61  63  66  68  69  72  72  73  73  74  75  79  82  81  80  77  79 122 167 147 121 146 157 154 142 139 144 144 145 138 134 121 115 106 110 108 108 111 109 107  96  99 102 108 120 125 118 116 116 131 136 153 169 166 164 153 138 157 170 176 181 176 174 174 175 205 196 198 201 194 193 193 190 191 188 215 248 219  53  38  30   6   8   8   7   7   8   7   8   8   8   8
  58  63  66  69  72  73  74  73  76  75  76  80  81  81  94  82  80 114 151 145 152 159 158 160 146 138 149 154 159 161 164 156 162 141 136 153 152 148 146 145 138 140 138 137 142 150 154 144 130 144 140 154 166 167 166 149 150 155 167 168 165 166 169 183 180 203 203 201 202 197 197 193 192 192 197 240 248 245 105  25  47  23   5   8   7   7   8   7   8   7   7   8
  58  62  65  70  72  73  74  73  75  76  76  78  80  82  79  83  79 100 123 137 145 147 158 161 150 136 136 151 160 157 156 148 151 148 158 158 156 155 147 138 138 144 147 151 157 160 161 162 157 154 167 164 163 169 165 153 163 164 168 171 188 174 171 198 201 211 205 204 201 191 195 193 194 193 224 250 247 248 142  27  41  45  11   6   7   7   7   7   7   7   7   7
  56  63  66  69  72  74  74  75  75  75  76  78  81  82  80  94  77  87 113 127 137 140 157 164 153 142 137 141 142 137 138 141 144 146 149 150 154 153 147 139 146 156 154 157 162 164 164 165 169 170 170 163 161 167 138 136 157 168 180 182 175 162 183 194 195 202 205 204 199 197 195 192 192 209 252 252 248 250 148  32  38  47  34   6   8   8   8   7   7   7   7   7
  55  62  66  69  73  74  75  75  76  77  76  78  81  81  80  86  79  57 104 131 146 157 149 148 154 149 137 130 133 134 128 139 138 141 147 134 141 140 133 135 147 157 154 155 159 156 159 169 164 157 164 155 145 161 140 131 142 159 170 172 178 170 187 190 193 204 210 200 200 200 199 194 197 241 254 251 250 251 131  31  37  42  48  24   3   7   7   6   7   8   7   7
  53  61  67  69  73  74  76  76  75  75  76  77  79  82  81  80 101  65  80 135 149 165 155 153 150 147 140 137 142 142 131 145 135 141 142 138 138 144 140 135 144 152 156 156 149 147 161 166 161 140 150 150 140 145 141 132 140 163 171 170 189 187 167 192 206 214 213 209 206 197 200 197 228 255 253 251 251 247 108  31  38  41  46  48  12   4   6   6   7   8   8   7
  52  58  65  68  72  75  76  76  74  75  75  77  80  81  81  78  88  91 108 154 154 155 148 161 157 155 152 149 135 130 130 142 137 138 141 149 151 147 150 145 144 147 156 147 150 159 168 167 157 142 146 148 143 135 123 132 161 168 162 171 173 178 181 207 215 212 208 208 206 201 197 222 255 255 254 252 254 233  78  32  37  39  42  48  36   5   5   6   6   6   7   8
  51  59  65  68  73  76  76  75  75  75  75  75  79  81  81  79  78  98 114 149 163 159 157 161 162 165 160 159 152 140 139 134 142 140 143 148 155 153 148 150 148 156 161 161 166 170 160 157 155 151 141 127 134 125 110 125 156 163 158 157 177 174 188 210 210 208 207 209 207 200 219 253 255 254 254 253 255 196  45  36  38  38  40  43  49  25   4   6   6   6   7   7
  49  57  64  68  71  75  76  76  75  74  76  77  78  82  83  80  80  84 119 139 154 166 159 162 160 168 167 163 162 166 158 157 155 156 166 168 164 158 157 158 159 168 165 169 167 170 162 154 159 146 144 124 115 111 114 143 148 166 149 161 187 179 197 212 204 204 213 211 201 215 252 255 255 255 253 254 255 138  32  38  37  37  38  42  44  46  12   4   7   6   6   5
  51  57  62  68  70  74  75  77  76  75  76  77  79  82  83  81  80  78  92 127 153 163 168 163 166 173 167 161 162 165 163 169 170 172 166 173 163 161 161 168 171 167 156 167 173 165 150 161 167 152 151 150 109  97 132 140 161 175 157 173 189 200 211 207 210 213 216 202 219 252 254 254 255 255 255 255 237  77  33  40  38  38  38  40  42  47  37   5   5   6   6   5
  51  56  61  67  71  73  75  76  77  76  76  76  78  81  84  82  81  79  75 121 150 154 174 167 168 171 166 164 160 161 158 164 161 168 167 164 163 157 158 169 159 165 163 164 169 166 166 166 161 158 164 137 111 120 148 140 161 178 184 177 178 204 203 201 209 217 210 224 254 254 254 254 255 255 255 255 178  39  38  38  38  38  39  39  41  44  49  27   3   5   5   5
  50  55  59  66  69  73  75  76  77  77  76  77  80  83  84  84  81  80  77  93 134 150 170 167 171 167 156 171 168 160 164 165 166 166 158 163 162 161 164 171 169 178 169 169 170 166 163 168 152 161 170 124 100 125 142 142 164 171 182 184 178 193 201 205 211 214 233 254 254 254 253 255 255 255 255 254 106  30  39  40  41  40  38  40  41  42  45  47  16   2   4   5
  49  53  58  64  67  71  74  76  77  77  76  78  80  83  85  84  83  81  80  77 110 145 168 170 176 170 160 166 161 168 165 162 158 156 163 172 154 156 175 174 172 171 169 158 169 176 161 166 158 150 160 139 106 119 139 143 167 170 175 191 193 198 202 207 212 237 254 254 254 254 254 254 254 254 255 208  49  39  39  39  41  41  40  39  38  41  43  47  41   4   3   5
  46  51  55  62  66  69  74  76  76  77  78  78  81  84  85  85  84  82  80  81  88 123 160 166 162 173 165 156 158 168 167 166 156 155 161 161 161 161 168 171 170 169 164 166 157 163 168 166 166 152 140 135 109 115 135 154 170 174 183 194 198 201 201 208 238 254 254 254 254 254 254 254 254 254 254 119  31  43  42  43  41  41  41  41  39  40  41  43  49  33   3   3
  40  46  53  60  64  69  71  75  76  76  77  79  81  83  86  86  85  83  81  84  80 104 157 149 157 167 159 152 161 161 167 160 157 157 155 157 162 169 157 156 172 181 158 162 168 162 147 146 144 154 144 125 118 131 145 144 176 181 188 196 192 197 213 245 254 254 254 254 254 253 254 254 254 255 214  51  41  47  43  43  43  43  42  42  41  41  41  42  46  53  33   2
  36  42  49  57  64  68  71  74  75  76  78  81  82  86  87  87  85  84  82  84  82  99 165 139 144 157 150 154 146 147 153 151 139 144 154 157 159 163 164 147 161 167 154 149 159 160 147 143 147 158 143 135 139 153 157 163 186 186 191 189 196 214 248 254 254 254 254 254 254 254 254 254 254 254 129  33  46  44  44  44  43  42  42  43  42  42  42  43  45  47  49  25
  32  39  48  56  63  67  70  72  75  77  79  82  84  87  88  88  87  84  82  86  84  97 189 145 156 152 158 150 142 141 146 141 134 138 145 148 148 161 151 161 156 150 160 161 162 163 149 154 149 132 132 164 147 147 173 180 190 187 183 196 230 254 254 254 254 254 254 254 254 254 254 254 255 221  60  42  45  42  44  43  44  44  44  41  41  40  41  41  42  45  42  48
  29  36  47  56  62  66  68  71  74  77  79  83  86  88  89  89  89  88  87  79  43  86 210 160 107 151 146 130 129 135 130 129 121 138 129 139 148 144 148 161 157 166 154 155 157 158 156 155 142 139 134 156 140 154 172 174 182 185 208 242 254 254 254 254 254 254 255 254 254 254 253 254 254 148  36  45  43  42  43  43  45  44  45  45  43  42  42  41  41  41  39  43
  26  35  46  54  62  66  68  71  73  77  80  85  87  90  92  93  91  80  56  27  10 112 203 201  99 124 127 135 120 116 122 124 101 110 126 124 140 136 150 172 159 164 154 155 162 154 161 141 133 138 138 146 164 165 167 169 194 222 251 254 253 254 254 254 254 254 255 254 254 254 254 254 239  82  39  46  45  45  45  45  46  46  46  45  44  43  43  43  44  40  38  40
  27  36  47  55  62  67  67  69  73  78  80  85  91  93  86  71  51  29  17  17  13 136 193 214 153 110 108 126 111 106 105 114  96  85 108 105 122 132 142 160 152 161 146 147 140 141 140 115 120 142 145 162 168 160 174 211 248 253 252 252 253 253 254 254 254 254 254 254 254 254 254 255 183  43  48  49  47  47  48  48  47  47  46  46  44  43  43  43  43  41  40  41
  26  35  45  54  62  65  65  68  73  77  80  80  72  56  37  27  18  17  20  20  14 134 204 200 212 129 119 114 124 104  87  94  88  62  80  97 103  95  83 100 119 124 111 109 118 117 111 122 133 148 153 151 153 193 230 250 253 252 252 252 253 253 254 254 254 254 254 254 254 255 254 253 114  37  50  48  46  45  46  47  47  45  46  47  44  42  42  42  41  41  42  40
  24  35  43  52  61  64  65  69  69  64  52  37  25  19  20  20  18  19  21  19  11 127 213 207 225 191 114 128 136 114 111 110 110 110 110  98  97 104  99 107 121 103 108 115 115 132 132 140 149 145 156 168 207 247 250 249 251 252 252 252 253 253 254 254 254 254 254 254 254 254 255 213  59  46  45  42  43  43  44  45  45  43  43  43  43  41  41  41  43  40  41  37
  22  31  41  50  59  62  56  49  37  27  21  18  18  19  16  18  19  18  19  20  17 108 209 221 222 235 175 126 131 122 110 116 124 125 111 115 123 127 120 123 125 120 126 118 124 138 145 128 143 180 216 238 243 245 247 248 251 252 252 253 253 253 254 254 254 254 253 254 255 254 254 148  38  49  46  42  41  40  41  43  41  42  41  42  41  40  41  40  41  38  40  35
  25  33  42  44  43  37  28  20  19  19  17  19  19  19  18  18  18  20  19  24  18  81 197 222 229 232 236 171 136 137 124 116 123 122 118 124 121 128 124 115 118 125 125 127 136 136 145 172 209 234 238 240 243 247 248 249 251 252 252 252 254 254 254 254 254 255 255 255 255 254 230  82  44  49  46  45  44  41  43  43  43  42  41  40  41  41  40  40  38  37  40  31
