P2
# Generated by OpenCV 4.2.0
92 112
255
 111 110 110 111 110 109 110 110 111 111 112 113 112 112 112 112 113 114 114 115 116 116 117 117 117 118 119 119 119 120 121 123 123 123 123 122 125 129 133 126 128 131 136 136 133 133 132 130 133 137 135 132 130 128 124 121 119 117 115 114 111 112 112 112 111 112 112 112 113 112 114 114 115 116 117 117 117 118 118 118 118 119 118 119 119 119 118 118 118 117 116 114
 114 116 115 115 115 115 115 115 116 117 118 118 118 117 118 117 117 119 118 119 122 121 121 120 120 120 120 119 119 120 120 119 119 116 118 121 119 121 126 129 129 133 131 128 130 132 130 130 134 133 127 126 125 125 122 121 119 120 119 119 119 119 118 120 119 120 119 120 120 120 120 120 120 121 121 120 118 117 116 115 114 113 113 111 111 110 109 109 109 108 107 107
 123 124 124 123 123 123 122 123 124 124 124 123 122 122 121 123 122 118 119 118 118 117 117 116 116 115 114 113 113 113 115 113 110 126 130 113 132 153 172 176 169 163 149 146 138 133 132 140 138 131 129 127 134 140 137 133 130 130 130 130 129 128 128 127 126 125 124 123 121 120 118 116 115 114 113 112 109 108 108 105 105 104 104 104 104 103 103 104 105 105 105 105
 129 128 129 127 125 124 123 122 122 120 119 118 117 116 115 115 120 112 112 112 112 112 112 113 113 114 116 120 119 115 119 119 131 144 142 163 193 194 184 171 161 170 173 169 154 153 157 154 153 153 155 162 167 155 153 150 140 136 134 130 127 125 122 120 119 117 115 113 112 110 109 107 106 106 106 106 105 105 105 105 105 105 104 105 106 107 107 108 110 111 111 112
 125 123 123 122 120 118 117 115 115 114 114 114 114 114 114 115 119 121 119 119 119 119 119 118 119 123 132 132 132 137 145 152 159 166 187 197 196 192 188 188 191 191 182 182 182 176 179 181 182 180 182 185 176 164 155 157 165 133 131 127 120 116 115 113 113 112 111 110 109 109 108 108 108 108 109 110 110 112 112 111 112 111 111 113 113 113 115 117 118 120 120 122
 120 120 121 120 119 118 119 119 119 119 119 120 120 121 122 126 129 128 124 122 125 127 131 141 139 144 150 146 147 164 164 176 184 188 190 186 185 185 182 182 180 176 173 175 182 185 183 182 181 177 174 174 180 180 177 169 192 161 140 133 125 118 114 116 116 116 115 115 115 115 114 115 115 116 116 118 119 119 119 120 120 120 120 120 121 121 121 121 122 123 123 122
 125 127 128 127 127 127 128 127 126 128 128 128 128 127 129 130 127 126 130 141 152 153 151 155 147 144 147 153 170 183 188 188 184 184 183 183 182 177 172 169 171 172 174 179 180 174 171 171 167 168 163 165 177 174 170 163 189 198 162 147 141 136 127 123 126 124 123 123 123 123 122 122 122 122 122 123 122 122 121 120 119 117 116 115 114 113 113 113 113 113 113 113
 136 136 137 136 135 134 134 131 132 131 130 130 130 129 127 124 125 141 164 162 146 135 135 140 144 154 178 191 193 189 184 190 191 185 181 183 175 170 177 176 174 178 180 183 180 179 170 169 173 176 176 181 179 177 170 161 183 196 175 159 150 150 147 134 126 124 125 124 123 120 118 118 117 116 116 115 113 113 112 111 110 110 108 108 108 109 109 108 109 109 110 110
 138 137 137 135 133 131 129 128 127 125 124 123 123 123 123 130 161 179 166 142 124 117 134 153 169 191 192 187 189 186 188 192 187 184 183 184 183 185 183 179 180 170 165 162 156 164 170 170 180 180 177 171 183 184 180 183 182 180 176 180 165 167 161 146 127 122 119 115 115 113 112 112 112 111 111 112 110 110 110 110 110 111 110 111 111 112 112 113 111 113 114 115
 132 130 129 128 126 126 124 124 124 123 123 122 123 125 133 165 189 160 137 135 131 140 170 188 201 195 187 189 187 182 184 182 181 181 180 179 173 167 169 175 177 178 175 167 156 162 170 177 178 180 172 173 178 164 163 182 177 172 180 172 169 167 160 165 143 122 118 117 116 114 114 115 115 115 116 116 116 116 117 117 118 118 118 119 119 120 121 122 121 122 124 124
 129 129 128 128 127 128 128 128 128 128 128 128 131 137 152 186 167 141 133 140 152 179 196 198 193 189 186 188 185 171 170 171 171 162 163 158 159 162 159 150 147 154 167 180 182 182 182 175 172 168 171 171 163 159 173 174 161 165 173 171 172 164 155 154 160 156 132 119 121 122 122 123 123 123 122 124 124 125 126 126 126 125 125 126 126 126 126 126 125 125 125 125
 134 134 134 134 134 135 134 135 134 134 137 138 137 146 167 175 151 134 134 153 181 197 195 190 183 188 193 178 152 152 158 159 144 152 152 146 150 140 122 131 142 136 143 145 155 162 173 165 163 162 150 161 154 158 170 156 146 150 157 166 173 170 163 157 164 169 160 144 132 129 134 130 130 128 128 128 127 126 125 124 123 122 121 121 119 118 117 117 116 115 114 115
 140 141 140 139 137 137 136 135 134 133 138 139 137 151 166 162 151 145 151 167 189 187 182 181 181 189 173 139 146 152 164 156 156 155 146 132 130 113 118 141 140 136 138 128 131 136 152 159 149 139 133 137 148 161 151 133 132 134 158 159 150 155 158 166 171 173 171 168 160 146 140 124 122 121 120 119 118 116 116 114 114 113 111 111 111 111 111 111 111 111 112 112
 138 138 136 134 132 131 130 129 130 128 130 145 155 168 175 166 162 173 178 177 181 175 174 179 186 167 138 140 148 159 165 154 147 145 138 132 127 124 147 137 118 126 126 124 128 129 133 145 140 119 112 133 153 151 130 122 118 136 155 158 163 166 168 167 162 157 158 168 170 167 137 116 116 115 114 114 114 114 114 114 114 114 114 114 115 115 115 115 116 117 118 118
 135 134 133 132 131 131 131 129 130 141 155 172 190 183 178 175 172 169 167 170 178 169 176 186 170 151 139 138 157 163 147 145 141 138 130 131 130 142 130 124 123 123 126 130 124 116 115 118 119 115 125 137 136 124 122 115 123 125 126 126 132 142 147 141 137 136 144 146 143 150 152 140 125 119 119 119 120 120 120 120 121 121 122 122 123 123 124 124 125 126 126 128
 135 135 135 137 135 135 135 135 151 165 160 165 184 190 188 179 176 164 165 181 174 166 180 175 161 148 140 146 158 141 147 143 140 129 124 131 135 131 123 123 127 124 124 132 141 146 141 130 115 108 101 111 122 122 111 111 109 108 111 120 130 138 147 153 144 138 135 129 135 145 141 142 147 133 126 127 128 128 129 129 130 130 130 131 131 130 130 130 130 130 130 129
 140 141 141 140 141 140 139 152 170 164 174 184 193 199 194 187 184 183 177 185 175 170 176 162 159 140 145 152 145 137 146 141 133 132 122 136 137 132 133 136 144 145 149 149 147 148 147 146 130 117 104 106 131 128 127 131 112  98  92  89 108 129 137 145 154 148 137 125 126 141 148 148 142 140 137 132 130 130 129 128 128 127 126 126 127 124 123 122 121 121 120 120
 143 142 141 139 137 138 138 144 165 172 177 188 195 194 188 194 199 204 206 200 184 182 169 156 152 141 147 149 143 145 142 137 135 134 141 153 149 144 144 146 147 147 157 165 164 163 159 151 144 136 127 123 149 158 160 152 142 126 114  96  94 107 125 132 149 158 158 145 118 112 130 160 153 130 129 128 121 120 117 118 118 117 117 120 117 116 115 115 115 115 115 115
 138 136 135 135 135 141 144 154 164 169 180 196 195 197 198 204 209 215 219 216 197 185 171 157 147 143 150 154 159 154 151 145 151 158 167 162 159 161 162 159 159 167 172 173 173 170 169 167 165 159 140 155 178 182 184 181 169 156 141 115 101  94 105 119 131 149 164 175 168 144 124 137 160 144 123 120 120 116 116 116 117 116 118 118 118 117 117 118 119 119 119 119
 139 138 137 139 142 146 161 157 164 176 185 189 194 199 198 203 211 216 218 219 206 190 177 165 153 147 154 163 168 166 164 167 173 179 177 171 169 169 173 174 176 180 180 181 184 184 181 182 185 180 177 189 196 198 196 194 189 181 166 151 132 104  81  76  77  85 105 128 149 162 143 128 133 152 140 125 125 126 125 125 125 125 125 125 125 125 127 126 126 127 128 129
 143 142 141 147 148 155 165 158 166 168 178 183 181 187 190 202 218 220 222 221 213 202 183 172 166 158 154 166 172 176 177 179 184 187 189 190 184 185 183 186 188 189 192 193 195 195 191 190 192 195 198 200 201 204 205 201 197 193 189 176 162 137 105  80  70  77  86  97 117 137 142 129 121 137 160 147 134 136 134 134 133 134 133 133 132 133 133 132 132 132 132 132
 146 145 152 155 154 156 162 167 163 173 178 173 162 162 195 213 222 223 225 224 218 206 197 188 178 172 167 174 179 184 182 186 189 192 197 197 195 196 197 196 196 198 197 197 198 197 195 195 195 193 198 209 205 201 205 208 205 201 193 189 182 165 125  92  57  46  55  66  81 119 132 121 116 121 146 162 147 135 134 133 132 131 131 129 128 127 126 125 125 123 122 121
 143 140 148 162 152 146 154 159 167 175 173 153 141 168 210 223 226 225 228 227 219 214 208 203 195 185 180 188 189 184 187 190 194 198 199 201 201 198 201 200 201 202 200 198 199 197 201 198 198 199 200 203 207 200 203 212 211 212 197 189 184 175 153 127  99  75  63  63  61  79 109 129 124 116 131 147 152 131 123 123 122 121 120 119 118 117 116 117 116 116 116 116
 139 139 143 148 153 154 157 162 179 181 163 150 171 199 220 231 233 232 227 226 227 225 215 210 204 195 191 195 195 194 193 195 199 201 202 201 199 199 203 203 203 203 202 200 200 204 204 202 202 204 207 205 204 206 211 219 215 213 208 191 185 177 162 139 114  93  79  70  63  59  66 100 132 125 116 132 163 137 121 120 119 117 118 118 118 117 118 117 119 119 120 120
 142 146 146 145 145 155 164 166 188 178 161 163 186 218 234 237 234 231 226 229 233 225 214 208 203 203 198 195 198 200 197 202 203 202 201 201 198 200 202 203 203 201 204 203 202 204 204 204 207 208 205 204 206 207 214 223 211 208 216 197 184 180 166 146 116  94  81  69  70  73  63  71 110 131 120 124 167 149 130 126 125 125 126 126 126 127 128 127 128 130 129 130
 147 149 149 148 157 159 162 184 188 168 161 167 200 233 239 239 233 228 223 223 225 215 210 207 203 203 201 200 200 198 198 203 204 201 200 201 200 204 205 202 203 204 204 204 205 204 205 204 207 206 206 205 206 208 208 217 209 209 216 199 183 179 175 170 155 125 103  93  97  72  55  54  76 117 122 114 144 152 147 134 136 136 136 136 136 135 134 135 135 135 135 135
 151 148 144 155 158 158 186 187 167 156 146 176 221 235 238 240 230 224 221 215 213 213 207 207 204 203 201 201 202 201 200 202 204 202 200 200 202 204 204 201 204 205 203 203 201 200 203 206 205 206 207 208 207 208 204 206 205 203 207 197 184 181 179 173 168 147 115 103  97  64  47  53  62  98 122 111 120 142 156 136 136 134 134 133 132 130 129 129 127 126 125 126
 147 146 141 152 168 193 187 165 156 149 155 200 228 233 238 234 227 223 219 215 211 210 205 202 201 200 199 200 201 203 202 201 203 201 199 201 202 203 199 199 201 202 203 202 198 199 201 205 205 209 205 204 205 204 204 200 199 201 201 193 185 180 179 178 172 156 132  98  61  54  57  57  63  87 119 103 108 123 147 133 124 124 124 122 122 122 121 120 119 119 119 118
 139 146 145 163 189 179 169 168 155 156 175 217 229 231 234 230 225 221 215 214 215 208 203 203 203 200 199 201 197 199 200 201 201 198 198 198 200 201 199 198 200 200 198 198 200 197 199 204 204 204 202 200 203 204 200 197 196 196 194 188 182 184 181 171 165 159 147 111  72  52  50  51  56  81 112 118 109 139 149 145 119 120 120 120 120 120 120 120 120 121 121 121
 145 145 152 170 165 159 165 155 148 147 183 225 229 231 230 226 220 217 218 214 210 206 203 203 200 200 199 198 197 200 197 198 198 198 197 198 198 197 196 194 196 196 196 197 197 194 197 201 201 203 202 196 195 195 195 192 194 191 189 188 183 183 179 170 165 155 141 126 105  72  58  50  51  76 100 122 115 134 145 155 131 125 126 126 127 126 128 128 129 128 129 129
 147 147 150 156 167 169 166 154 141 148 199 225 226 228 229 226 215 218 218 210 205 202 201 200 199 198 198 197 195 195 193 195 195 196 195 195 197 194 193 192 189 188 193 194 193 192 192 193 191 193 195 194 191 191 191 189 189 189 188 185 181 182 180 176 166 157 145 130  98  70  71  55  55  65  98 118  99 110 144 164 156 137 136 136 135 136 137 136 136 136 136 135
 141 141 156 170 171 166 140 116 121 160 203 224 223 227 229 221 217 218 215 209 203 199 198 195 198 199 195 195 195 192 194 194 192 191 188 190 191 188 188 191 190 188 188 188 191 189 189 187 182 184 186 190 193 192 191 187 188 190 188 182 179 182 183 176 162 150 147 146 114  70  68  71  61  55  98 127  80 101 138 155 162 159 136 135 133 132 132 130 130 129 129 128
 138 139 147 157 151 149 139 145 153 172 210 218 222 226 224 216 213 214 213 208 203 201 199 197 195 194 192 191 190 188 190 191 190 187 183 183 184 182 181 184 189 189 189 189 186 182 178 178 177 176 179 182 185 183 183 184 188 184 182 181 180 182 181 173 163 155 155 140 112  98  75  72  78  61  81 128  94 108 137 153 142 159 141 128 124 123 122 121 121 121 120 120
 142 141 150 163 168 136 137 124 144 179 211 218 224 225 215 205 210 216 214 208 202 198 193 193 188 185 183 184 186 186 188 190 185 182 179 178 180 177 179 185 189 189 188 182 180 178 179 180 180 180 179 178 180 181 179 181 184 183 178 177 179 179 175 172 164 157 148 139 123 114 104  86  72  76  67 110  90  98 134 145 141 149 153 135 121 120 121 121 121 121 121 121
 144 152 155 159 179 165 146 147 163 187 211 219 223 211 202 215 217 212 207 199 192 188 186 186 188 188 187 189 191 186 185 183 179 177 175 175 176 179 183 182 182 184 183 183 184 183 181 182 182 179 179 178 178 180 176 176 179 179 175 174 178 175 168 169 161 145 140 134 126 117 105  79  73  91  75  86  61 104 123 129 136 153 152 144 131 125 130 129 129 128 129 129
 144 152 154 173 155 166 162 161 171 189 208 214 205 208 222 221 211 205 195 190 193 195 195 193 196 192 189 185 182 185 182 173 170 173 176 179 180 180 176 174 177 180 181 181 180 174 174 176 175 173 172 173 174 176 178 181 180 176 174 174 171 169 168 165 153 146 136 123 118 101  87  68  69  86  88  71  42  88 115 125 141 145 145 151 148 141 138 136 138 137 137 137
 151 147 165 183 174 167 177 172 170 188 209 205 212 219 216 206 203 194 186 191 198 195 194 195 195 191 184 180 181 181 173 168 171 178 186 186 178 175 174 173 174 176 176 175 174 169 167 162 161 162 164 164 166 169 171 176 176 174 171 173 171 165 166 160 154 147 133 121 111 111 108  95  74  82  99  72  56  87 112 138 137 136 148 154 152 147 146 140 132 132 132 131
 149 152 163 179 182 174 180 172 169 186 204 210 214 208 199 188 187 182 185 189 186 183 186 186 183 180 177 174 172 167 164 166 175 183 186 179 172 174 173 170 168 171 171 172 172 175 175 177 180 182 183 180 177 177 177 180 179 176 172 169 171 171 172 165 157 150 136 131 132 135 117  94  79  88  92  73  62  86 117 137 126 133 140 148 148 150 152 138 123 123 122 122
 156 159 182 193 189 183 169 159 168 187 204 207 202 191 178 186 188 187 183 183 178 170 167 161 160 163 164 165 161 157 160 164 168 168 162 161 166 166 161 158 166 171 171 169 168 175 179 178 176 181 184 182 182 183 182 184 182 178 177 172 170 173 173 168 158 148 134 129 115 108  97  86  85  93  79  70  73  89 123 124 132 123 143 143 145 151 146 135 123 122 121 121
 152 166 174 176 181 175 164 160 160 184 206 202 194 191 194 195 190 188 180 180 174 169 169 171 176 180 182 181 179 180 177 172 163 150 146 151 157 161 168 169 172 171 169 168 163 156 154 157 161 169 177 175 177 179 179 180 181 178 176 173 174 175 174 168 162 147 130 108  80  58  63  70  77  92  85  71  74  99 123 124 120 113 128 133 147 141 144 137 128 128 129 129
 160 160 163 163 166 174 174 167 160 179 202 197 194 196 195 189 187 187 177 174 176 175 176 178 178 174 175 176 179 181 183 177 167 159 166 173 176 175 172 173 167 161 154 151 148 156 172 179 183 186 185 183 182 180 183 182 176 173 174 173 173 174 174 169 162 149 135 105  74  47  53  70  77  80  83  66  82 115 109 121 116 118 130 140 144 135 145 141 136 138 138 138
 143 152 161 161 173 165 139 148 165 173 192 196 192 191 191 182 185 185 180 182 179 175 170 164 160 160 161 161 166 172 175 179 179 176 177 175 170 162 157 148 138 139 139 151 172 188 192 190 191 187 181 179 180 176 177 178 178 171 168 171 173 177 174 174 166 158 148 120  81  49  45  63  75  79  94  96 108 101  93 109 104 112 124 129 134 136 141 136 136 133 134 134
 140 146 158 159 153 130 129 170 184 173 183 192 192 189 183 184 187 180 173 165 156 150 151 160 170 168 167 166 164 166 168 166 168 164 157 149 143 142 143 146 155 168 179 188 190 187 187 187 186 185 184 184 186 181 178 180 180 180 175 172 169 174 176 177 171 165 155 133  95  55  43  56  70  75  94 110  93  86 105 111  99 119 118 121 132 132 126 126 129 128 124 124
 149 148 154 151 129 102 143 165 158 161 176 188 190 187 190 190 180 169 159 156 160 164 166 163 152 146 143 141 140 141 146 150 155 155 156 161 168 174 179 183 183 186 186 182 181 180 181 184 184 181 176 179 181 181 180 183 183 180 183 183 175 175 179 179 174 171 158 138  99  65  46  48  69  75  86 125 126 116  96  77 109 113 101 112 123 133 125 122 122 123 121 122
 147 145 151 140 125 100 150 162 147 164 176 187 189 190 189 178 172 175 184 185 184 177 172 170 171 172 173 169 163 158 156 153 160 173 183 186 186 183 179 174 182 182 183 184 182 179 183 186 186 182 178 174 175 174 173 171 175 180 184 187 186 183 180 176 176 173 166 147 115  74  51  34  59  86 102 106  83  91  93 119 137 117 116 125 132 136 127 126 126 126 128 127
 141 140 145 133 131 135 154 148 159 162 166 179 187 187 182 177 184 188 187 184 185 182 181 182 178 178 181 184 182 183 187 180 180 176 170 169 169 172 177 178 178 181 182 182 181 178 178 175 174 179 181 182 181 181 182 180 176 176 177 179 183 186 184 180 178 176 171 158 130  93  55  27  46  83 105  95  83  87 122 138 127 128 132 134 151 151 135 136 136 137 137 136
 139 138 143 133 113 130 144 139 167 160 163 177 189 186 180 181 181 183 184 185 187 182 182 181 179 178 176 175 169 171 182 183 176 164 155 154 165 172 175 178 181 181 176 177 178 176 169 171 175 175 174 180 183 186 187 189 191 189 184 183 178 181 188 181 179 178 173 167 145 109  70  28  28  72 106 131 144 137 126 119 122 126 136 148 158 139 134 136 136 135 134 134
 143 143 145 136 111 119 136 158 159 145 144 166 189 189 184 183 183 185 187 186 179 177 182 179 173 174 179 184 186 177 166 170 179 182 178 175 178 179 181 178 178 174 173 171 170 170 173 179 179 177 174 173 178 176 175 175 174 182 187 186 180 174 178 178 179 181 175 171 157 124  79  41  54  54  93 125 111 102 106  96  95 101 110 117 118 123 130 125 126 126 125 125
 146 146 147 137 111  98 124 143 141 145 136 156 187 190 188 185 188 188 180 175 171 174 174 175 175 171 171 172 182 186 181 172 168 175 178 179 177 179 176 171 168 169 165 163 165 172 173 172 171 170 169 167 175 167 169 179 173 171 171 172 174 178 170 174 175 180 180 171 162 144  92  52  75  55  63  91  77  77  81  75  86  88  84  68  85 116 126 123 123 122 122 122
 141 143 142 139 118 105 102 121 124 111 127 140 186 196 197 192 192 180 182 189 185 183 186 187 183 182 183 179 174 174 175 175 169 169 167 168 169 167 169 164 165 162 160 163 168 169 172 169 169 169 164 172 172 161 169 167 162 165 166 161 161 172 170 174 178 177 179 177 168 159 119  70  68  61  69  77  80  83  68  79  75  77  62  57  92 128 128 126 126 127 127 127
 137 138 137 138 122 117  95 125 116  99  86 109 186 208 203 194 199 196 199 194 190 192 187 185 178 175 173 176 174 169 169 171 166 159 160 162 161 158 161 159 158 155 154 160 159 145 143 150 151 140 141 150 142 146 153 151 152 158 158 155 149 150 164 173 182 181 181 180 171 164 137  93  74  78  81  78  86  93  80  85  76  87  68  79 122 138 138 136 136 136 136 136
 137 138 137 140 135 130 109 141  96  64  53  80 178 213 198 204 208 202 192 190 187 186 185 171 162 153 148 156 163 164 167 167 164 157 154 153 151 148 149 149 153 154 150 146 141 125 110 109 109 113 116 117 114 133 142 145 151 156 155 154 154 156 158 163 180 183 187 180 178 166 136 106 100  87  85  74  79  99  90  96  98  93  78 108 135 137 137 137 136 136 136 136
 142 141 143 142 145 144 139 136  84  69  46  69 171 211 203 202 197 190 187 187 180 171 157 151 144 132 132 142 148 153 157 156 157 152 149 146 143 134 133 140 145 143 136 126 119 105  92  85  84  94 108 120 132 143 152 163 163 159 158 150 150 147 152 164 171 181 183 184 180 174 158 116  91  88  85  79  84 110 103 109 104  89 100 129 132 128 128 127 127 127 126 126
 140 141 141 141 144 153 142 123  99  87  48  68 163 214 204 197 189 188 185 172 168 155 134 121 128 125 125 125 132 140 145 150 149 142 142 147 143 129 121 123 127 124 114 111 105 102  94  91 101 109 119 126 124 117 111 118 131 145 157 162 155 155 154 158 166 170 180 184 177 177 176 137  94 102  90  76  82 122 115 119 101 105 118 128 126 122 121 121 121 120 119 119
 137 137 137 137 136 143 154 124 102 100  62  61 150 207 201 189 179 171 162 156 145 125 109 110 113 116 121 122 121 130 136 141 143 142 138 147 147 135 118 123 126 116 105 103  96  90  91 101  99  85  58  49  30  46  47  63  88  58  67 130 155 160 156 158 158 169 182 179 179 179 176 148 105 123 125  70  94 133 117 126 111 115 127 129 125 126 124 124 124 123 122 123
 137 137 137 136 136 137 145 134 119 112  83  89 145 196 184 170 160 156 150 141 128 119 114 116 110 110 111 112 114 119 124 131 142 145 142 148 148 142 140 140 127 111 100  83  78  88  91  79  62  85  67  44  42  52  55 111 121  74  81  75  98 120 141 157 165 169 173 179 181 174 169 151 125 145 146  99 131 130 125 138 123 130 137 134 133 134 134 133 134 134 133 133
 141 141 141 141 141 140 139 145 141 130 110 103 147 190 173 153 158 163 157 151 144 142 136 129 122 111 105  96  92  92  94 105 123 151 156 156 159 160 157 157 135 114  99  69  65  81  74  61  74 120 129  80  71  59  77 136 134 146 146 139 139 143 148 159 163 174 183 184 180 176 169 148 137 146 149 142 154 130 133 142 129 139 136 136 136 137 137 137 136 136 135 135
 142 142 142 143 142 143 140 143 144 129 125 114 142 192 179 159 165 162 158 155 155 152 149 144 125 106  98  94  87  78  71  69  78 125 165 168 171 174 173 173 148 120 103  77  88  89  70  90 104 123 136 133 116 120 146 152 163 162 168 176 178 181 182 181 177 179 175 174 176 174 168 147 123 142 144 141 160 139 141 135 129 130 130 129 128 130 128 128 128 128 127 127
 137 138 138 138 139 138 138 136 137 120 118 124 142 201 191 165 164 167 162 139 117 102  82  57  40  45  47  62  78  81  80  65  67  92 160 182 180 179 180 177 157 137 118  99 127 117 115 112 127 139 152 159 162 165 164 155 150 164 169 169 181 180 175 180 183 186 187 179 176 174 168 146 124 140 146 153 162 153 162 130 117 122 123 123 122 123 122 122 122 121 121 120
 136 135 135 135 135 136 135 135 137 128 114 117 143 210 202 171 173 173 124  72  71  95  52  33  33  49  56  83  91  66  79  99 109 101 152 186 183 184 182 175 161 149 136 116 120 125 120 101 105 128 146 149 153 154 144 139 155 170 170 171 168 176 178 179 173 170 175 178 175 172 172 145 122 140 161 159 150 147 145 111 120 123 122 122 122 122 121 122 121 121 120 120
 137 137 137 137 137 137 137 135 135 139 129 122 146 209 205 172 183 157  85  32  82 143 117  62  60  69  70 109 105  93  93 119 128 118 156 185 187 183 182 177 164 155 149 136 126 126 122 121 107 111 126 132 138 146 157 167 168 158 164 166 166 163 158 174 188 187 175 173 173 172 167 141 136 145 151 148 146 139 108  69 107 132 130 130 130 129 129 129 128 129 129 129
 141 141 141 140 142 142 141 141 141 138 137 128 137 200 204 176 167 153  92 119 132 142 146 127 103 112 140 141 131 126 137 132 121 136 160 184 185 181 183 182 168 158 155 151 147 147 144 138 130 121 118 123 126 130 132 137 140 147 154 164 170 178 179 171 168 180 182 179 173 171 156 134 142 158 159 144 146 131  61  28  85 134 135 134 134 133 134 133 133 132 133 133
 139 139 139 138 138 139 138 137 137 135 134 131 127 185 212 181 156 144 161 183 185 159 156 159 162 153 139 121 111 117 126 133 142 154 170 186 184 184 185 183 172 162 152 158 160 158 160 153 147 137 129 130 134 139 140 141 150 154 164 170 174 177 177 186 180 168 172 175 174 172 153 117 141 166 168 161 154 131  88  78 115 131 130 127 128 127 126 127 126 125 126 126
 135 135 134 133 133 133 132 131 132 132 130 130 129 161 210 187 163 174 196 180 187 181 173 163 157 134 114 108 110 122 129 144 153 161 173 186 185 185 186 185 175 171 158 160 165 162 163 164 165 159 147 143 143 145 148 154 162 169 173 175 178 184 181 175 178 173 161 169 173 172 145 117 139 154 164 169 146 130 137 132 126 123 124 122 122 122 121 122 121 121 121 120
 131 131 131 131 131 130 130 130 130 129 129 131 135 147 207 202 193 196 198 188 186 168 146 137 121 110 115 122 126 125 139 158 159 170 177 184 182 182 183 181 172 172 168 167 167 161 159 158 162 167 167 168 163 162 162 165 167 173 179 182 180 177 180 178 169 165 157 161 168 171 143 137 138 111 132 147 113 124 142 128 119 121 122 122 122 122 121 120 120 119 119 119
 134 133 133 133 134 134 133 132 133 133 133 133 129 141 201 206 195 205 187 173 160 132 128 123 123 127 129 129 129 145 164 165 164 178 178 184 183 181 183 179 170 168 168 169 165 164 161 153 152 155 167 174 178 175 174 172 171 173 174 180 178 174 172 172 169 162 162 161 168 170 145 144 139  60  75 113 121 127 133 137 129 130 127 127 127 127 127 126 127 126 126 125
 134 133 134 135 135 134 135 135 135 135 134 133 132 140 193 195 203 188 174 168 151 143 139 140 141 139 133 134 154 168 169 166 168 179 179 185 183 181 181 181 171 169 172 166 166 167 164 159 156 150 151 159 170 170 171 170 174 173 176 179 178 178 179 173 171 169 165 162 160 167 149 151 150  70  63 113 132 134 138 140 132 133 132 130 131 131 132 131 131 131 131 131
 130 130 131 131 132 132 132 132 131 131 130 130 128 133 175 211 192 183 182 159 145 153 150 145 143 147 148 158 174 171 167 167 169 179 182 186 181 179 180 179 175 169 170 171 172 167 167 167 158 154 153 153 162 168 171 170 172 175 177 181 176 180 179 178 173 168 167 172 166 164 154 148 147 110  67 103 126 126 119  99 107 130 126 125 125 127 125 125 126 126 125 125
 128 128 128 128 129 129 129 129 129 128 128 127 127 133 162 203 191 196 184 180 178 171 166 163 166 171 174 177 176 167 167 171 172 182 185 188 181 181 181 181 175 168 174 176 174 172 169 170 167 163 161 162 164 166 168 169 170 171 173 173 175 176 174 175 173 168 158 169 172 163 147 142 144 123  86  82  90  83  64  61 109 123 121 120 120 121 120 120 120 120 120 120
 129 128 128 129 128 128 128 128 128 128 127 127 129 131 152 194 194 183 180 183 179 171 170 175 177 176 178 176 171 168 172 177 180 187 186 184 183 179 179 178 175 172 176 176 175 169 161 165 170 166 160 160 159 161 168 168 169 169 172 169 169 173 175 174 170 168 154 156 170 171 153 130 132 123  90  81  90  86  83  99 124 123 121 119 119 118 118 118 118 118 118 118
 132 132 131 131 130 131 130 130 131 132 132 131 132 136 146 182 187 179 178 174 174 174 179 181 180 178 174 174 174 176 176 177 175 186 189 184 184 179 177 175 177 176 175 175 175 170 163 155 163 165 163 163 160 160 161 165 165 168 170 168 166 169 168 167 170 168 159 147 158 161 154 140 134 126 114  99  93  93 108 125 127 128 125 124 124 124 122 122 122 122 122 122
 130 129 128 129 128 129 128 129 129 129 129 130 128 129 129 157 190 188 180 177 181 181 183 180 176 178 174 175 173 176 176 168 166 183 193 190 183 177 175 176 178 177 176 175 183 182 176 162 149 158 160 160 161 155 156 155 160 167 169 165 161 163 162 162 162 154 156 160 157 151 143 142 139 125 113  75  37  35  60 113 133 128 129 130 129 129 128 128 128 128 128 128
 127 127 126 126 126 126 126 126 126 126 127 126 125 131 132 138 182 185 183 180 183 183 178 178 175 174 175 170 171 170 161 144 166 187 195 187 181 176 177 177 174 175 179 179 188 189 183 173 141 136 145 150 151 152 152 157 158 163 163 159 159 159 158 150 145 148 149 155 155 141 137 138 142 128 116  73  13  13  27  64 117 127 124 125 124 124 123 123 123 123 123 123
 125 125 125 125 124 123 124 124 124 124 125 124 124 126 126 127 166 181 181 182 181 177 173 176 174 173 171 169 165 157 136 125 178 193 192 187 183 179 176 174 178 179 182 182 191 194 188 180 142 131 128 131 139 145 152 157 155 154 157 153 152 152 150 143 141 147 148 145 141 133 125 134 134 130 110  57  16  12  23  39  84 117 122 120 120 119 119 118 118 118 120 121
 126 125 125 125 126 126 125 125 125 124 125 124 124 123 123 122 154 183 182 180 177 173 173 176 171 169 160 156 149 137 110 132 197 197 191 192 187 186 179 171 177 181 183 183 189 189 181 180 148 142 146 127 120 132 136 141 149 147 147 151 150 146 147 139 137 144 143 132 126 131 135 135 126 112 100  52  14  15  24  38  61  96 114 120 118 117 117 117 116 116 119 120
 125 125 125 126 125 126 125 125 125 125 125 125 125 125 124 131 148 177 184 176 171 168 169 168 164 161 156 151 140 116  98 155 200 194 200 197 184 180 179 177 178 181 180 174 168 172 160 153 148 155 153 147 131 117 118 126 132 139 139 140 144 145 141 142 140 137 142 133 117 125 135 143 133 123 122  74  17   8  22  39  46  83  96 113 121 122 121 120 119 121 122 125
 123 123 122 123 124 124 123 123 123 123 123 122 122 122 125 127 131 170 179 171 166 165 163 156 154 155 151 135 115 102 120 162 183 183 190 178 162 160 160 167 171 170 162 155 150 116  98 123 149 150 149 146 143 128 116 113 112 123 129 130 134 139 137 137 145 122 130 131 128 116 125 138 135 120 125 105  43   8  17  27  39  70  84  97 116 127 126 126 126 127 129 134
 122 122 122 123 123 123 123 122 122 121 122 121 121 120 123 123 124 153 178 172 163 161 161 156 154 149 141 118 101 111 141 143 152 165 171 158 146 140 135 141 149 143 135 138  99  68  89 128 149 145 144 137 138 133 127 110 108 107 109 122 134 142 143 135 137 119 109 123 124 119 122 130 122 119 115  93  64  23  10  24  36  58  77  87  95 112 125 123 122 122 128 135
 124 124 124 123 124 123 123 123 123 123 122 122 122 122 122 122 118 136 171 173 163 159 159 158 151 142 131 111 103 126 144 145 129 111 140 166 141 127 123 124 120 119 126 113  85  97 115 136 134 141 139 131 135 134 136 119 107 107 102 100 116 129 143 123 117 103  99 118 130 119 127 130 128 120 117  90  38  19  11  30  38  47  71  79  88  91 109 120 117 118 125 134
 126 126 126 126 126 126 126 126 126 126 127 126 126 125 125 125 122 134 154 165 161 154 161 160 149 136 125 111 117 132 146 145 124  98 103 134 144 126 109 102 106 117 106  88  90 120 133 127 129 135 135 126 131 135 128 133 112 102 102  90  91 115 133 125 109 107  97 107 128 136 134 130 126 120 123 107  55  17  19  39  40  40  64  73  83  88  89 105 115 117 123 132
 125 124 124 124 123 123 124 124 124 125 124 125 124 124 124 124 124 130 142 153 159 156 164 161 144 128 120 123 132 144 140 138 132 126 133 114 112 116 107 101 102  85  75  75  89 128 137 123 118 125 128 127 126 125 120 104 113 110 112 112 121 112 123 128 113 106 110 117 115 133 129 113 112 117 112 114  75  28  37  27  30  38  56  71  79  87  86  86  98 116 124 127
 123 123 123 122 122 121 121 122 122 122 122 122 122 122 122 122 121 126 142 139 131 142 158 159 146 128 131 129 130 152 134 131 124 129 130 121 104  95  89  64  66  64  83  91  92 107 111 116 108 111 116 126 131 119 105 113 110 118 106  99 118 120 115 131 107 107 107 117 121 118 119 121 113 119 111 118 112  51  33  23  32  38  52  66  74  80  84  80  81  99 122 128
 122 122 122 121 121 120 120 120 120 121 121 121 121 120 120 120 118 125 135 140 122 123 141 162 157 131 120 123 148 150 140 137 112 127 118 113  87  89  86  56  67  74 105 108  96  86  90  95  96 100 109 118 119 116 104 104 106 112 120  98  93  97 126 139 104 110 120 126 134 115 110 113  96 105 109 128 128  66  26  37  41  39  48  66  69  73  80  80  78  82  97 122
 123 123 123 123 122 122 122 122 121 121 121 121 121 120 120 120 119 122 124 140 136 122 117 150 152 121 123 132 162 149 146 132 109 124  99 107  86  97  85  72  72  75  97 108  82  71  77  91  96  91  97 101  93  95  89  86  90  92  93 106 110 100 121 141 115 100 107 112 122 117 108 100  89 108 122 134 129  64  25  37  34  35  43  67  72  75  76  79  79  79  82  98
 123 123 122 122 122 122 122 122 121 121 122 121 121 122 122 122 121 120 121 130 140 131 115 131 145 137 141 155 165 140 128 123 114 107  91 107  89  91  82  90  83  74  79  97  95  77  74  80  84  92  94 101  87  87  81  71  70  83 102  84 112 114 132 127 120 100  99 100 114 112 102 104 104 126 128 136 132  67  23  25  23  32  40  63  73  73  74  78  82  81  80  82
 122 121 121 121 120 121 121 120 120 119 119 119 120 120 120 119 119 119 117 122 144 148 121 122 138 153 153 153 148 119 111 113 103 108  90  88  95  94  90  96  89  84  94  87  94  96  84  86  87  83  77  74  72  87 102 108 109 110 114 103 101 108 112 121 112  92  91 106 111 112  95 102 112 130 131 134 135  68  20  28  30  34  38  62  71  72  74  77  81  81  81  79
 120 119 119 120 119 119 119 118 118 117 118 117 118 119 118 119 118 118 117 117 136 139 128 147 154 154 133 137 139 106 115 102  98 105  98  96  97  96  98  92  93  92  92  82  77  77  70  65  70  80  91 102 115 127 134 133 129 133 122 126 117 106 122 111 107  99 100 104  90  99  92  91 109 134 136 129 127  62  14  30  33  33  36  56  70  70  71  76  78  81  85  79
 120 120 120 119 120 119 119 118 117 118 118 118 118 118 117 118 117 117 116 119 120 125 141 151 148 154 139 129 122 100  93  88  79  52  75  90  88  77  79  75  81  89  87  98  97  90  97 106 124 132 128 132 135 142 141 144 134 135 120 124 125 108 124  96  95 108  97  98  97 105  91  89 113 131 138 128 125  60  12  22  20  25  33  55  70  68  68  72  79  84  84  85
 120 120 120 120 120 120 120 120 120 120 120 119 119 119 119 119 119 120 120 121 118 122 138 138 144 153 139 120 117 107  90  94 100 100 113 130 132 124 128 124 122 130 133 141 136 137 143 140 137 133 135 141 147 153 153 152 134 145 122 124 125 115 107 100  95  99  76  73  83 104 100 111 122 132 135 132 124  55  13  21  18  25  34  53  66  67  66  71  76  81  85  86
 118 118 118 118 118 118 118 118 117 118 118 118 118 117 117 117 118 118 118 118 118 121 123 132 126 143 136 126 128 125 123 137 139 145 144 143 147 150 147 139 141 139 136 138 137 140 140 134 134 138 140 149 156 154 152 151 131 144 143 134 120 107  98  94  94  90  77  80  74  92 111 126 126 140 132 124 114  48  15  22  20  27  32  50  66  64  66  69  77  82  86  89
 117 117 117 117 117 117 116 115 116 117 116 117 116 115 116 115 115 115 116 117 117 118 120 130 129 132 128 145 132 129 140 141 152 151 154 151 149 144 143 136 132 133 129 131 129 134 135 129 141 147 146 148 159 163 133 142 137 144 164 144 140 134 102  95  90  88  71  74  74  95 118 118 124 132 128 124  98  31  18  23  22  26  30  50  67  63  63  67  73  81  86  91
 116 116 117 117 116 116 115 115 115 115 116 118 116 115 114 115 116 116 114 114 118 118 116 120 118 120 123 141 133 140 144 149 152 166 162 166 152 148 144 135 124 127 121 124 121 136 139 128 153 140 150 151 148 161 141 127 139 144 145 149 134 144 106  97  95  93  75  60  82 112 117 122 126 129 130 120  79  21  19  22  19  22  28  49  65  60  62  65  69  79  86  93
 119 118 118 118 117 116 116 117 116 117 117 117 117 116 115 114 107  99  99 106 114 104  85  67  97 127 117 128 145 135 138 147 162 166 170 171 162 161 164 144 128 147 150 135 131 146 152 149 158 147 144 147 134 140 128 128 118 139 136 134 118 131 104  95  98  78  68  81  99 107 119 124 131 133 127 118  65  18  23  21  17  22  26  42  66  61  63  68  70  77  84  90
 117 117 117 116 115 115 115 116 116 116 116 117 119 118 109  96  89  94 103 110 103  79  58  66  92 106 104 134 150 149 124 152 165 154 159 160 157 165 171 145 148 154 159 130 136 139 149 144 149 154 138 129 112 118 120 123 118 122 129 126  97 114 128 110  92  63  75  97  86 106 115 119 129 125 126 111  47  18  23  23  23  23  23  39  66  68  67  71  75  76  82  85
 115 116 116 115 114 114 114 113 114 114 115 115 113  98  84  81  95 111 114  96  64  67  52  52  66 102 107 121 147 124 123 157 145 148 153 139 146 164 162 161 131 135 160 122 114 130 122 135 133 133 139 122 101 109 122 122 128 121 126 141 124 103 109  90  79  74  84  88 101 107 117 128 128 127 130 102  37  15  22  22  26  25  24  37  65  69  72  75  75  73  77  78
 115 115 115 115 114 113 113 114 119 111 103  98  89  74  78  92  96  92  90  47  42  68  52  48  98  99  72  91 151 136 150 142 133 148 136 135 141 158 155 132 112 132 139 120 106 113  95 103 118 114 115 122 112 108 120 120 133 128 130 134 130 121 100  82  78  78  84  91 104 111 124 133 130 126 129  96  31  18  22  22  24  23  23  33  64  75  77  77  75  73  74  77
 115 115 114 115 115 117 114 110  91  66  64  67  65  68  72  72  73  84  55  27  43  64  51  89 108  78  55  70 166 168 160 142 135 130 143 145 131 154 128 104 124 118 109  91  95 110  91  94  93 114 120 120 107 106 117 112 118 129 129 129 126 108  96  92  86  80  83  95 102 108 122 126 133 128 125  87  22  20  25  24  21  22  26  25  52  71  76  78  75  73  71  75
 113 114 117 116 114 105 101  80  46  40  44  60  73  81  72  66  76  83  48  31  41  57  80 116  92  68  53  61 126 167 159 145 139 137 151 149 140 141 123 111 117 102  98  99 101 105  98 117 115 118 130 128 114 110 113 121 116 123 122 110 107 110  87  76  83  87  91 102 103 110 120 127 132 128 117  74  15  22  27  26  27  26  25  23  42  60  69  76  77  74  70  71
 113 115 111 105 102 105  91  52  45  47  51  56  57  70  62  66  82  72  35  25  38  68 115 104  76  60  44  23  71 162 156 154 147 141 151 157 149 134 126 127 128 113 114 122 117 103 121 136 133 132 138 125 127 130 125 119 131 142 139 107  84  99  71  70  81  86  95 104 104 106 117 125 127 126 113  64  13  21  24  22  25  25  25  24  36  51  58  66  77  80  79  77
 105 108 106 102 104  97  64  52  56  53  50  47  54  70  66  74  89  56  27  26  37 100 120  89  66  55  34  18  19 115 161 169 156 147 160 150 142 140 134 141 132 133 132 139 125 120 138 134 134 146 148 136 132 138 141 135 143 139 132 121  85  90  71  77  91  80  87  97 102 110 111 114 126 120 107  52  14  19  23  21  23  28  28  26  32  41  50  57  65  69  77  78
  90  91  90  91  89  72  60  65  61  52  48  48  58  63  69  80  62  31  26  23  66 123 101  76  60  49  28  15   4  44 146 158 153 163 166 151 149 144 143 132 148 137 132 132 139 136 131 147 141 151 154 128 140 141 141 133 140 131 117 118  87  72  76  84  89  82  92  90  91 102 105 110 122 118  98  43  16  20  23  21  24  30  29  28  33  38  39  47  54  59  69  73
  75  69  69  76  77  71  71  69  58  50  47  50  55  54  60  54  35  28  24  39 111 114  87  68  56  39  23  14   9   8 107 149 157 168 162 163 145 143 140 153 151 137 144 138 137 144 129 146 143 145 153 147 144 140 131 133 132 137 124 122  88  76  78  77  87  90  95  91  93 102 104 110 113 116  90  36  16  22  22  21  23  24  25  26  35  42  38  38  46  51  57  66
  78  69  62  61  68  71  73  66  54  48  45  47  51  52  53  43  34  30  29  90 122  96  78  62  54  30  21  17  12   1  49 140 164 168 178 162 150 140 146 154 147 140 142 136 129 148 138 150 138 156 146 143 150 146 130 137 127 114 120 113  86  80  79  85  87  92  88  88  98 107 107 112 115 114  84  34  18  23  22  20  23  24  25  27  37  46  41  41  42  44  48  56
  81  75  65  56  56  64  67  62  54  42  41  46  50  53  51  42  34  27  63 120 104  84  71  59  43  24  18  16  11   5   8 103 170 161 181 155 143 143 146 135 151 138 130 138 134 149 149 136 136 156 163 139 141 142 128 124 119 100  98  85  74  81  93  85  80  88  89  91 101 106 110 113 118 110  79  36  18  23  21  21  24  28  32  31  34  49  47  45  44  43  45  48
  81  71  66  59  52  59  61  61  52  39  38  44  48  53  50  39  28  33 103 113  93  77  64  52  32  27  19  15   9   6   1  36 116 166 175 150 137 144 142 140 136 124 131 133 139 130 139 132 127 132 143 147 129 145 148 111 107 105  97  80  80  90  91  82  83  89  86  94 103 109 109 113 111  99  69  35  18  22  21  22  21  25  30  33  33  50  49  45  48  46  46  46
  73  69  66  57  51  53  58  58  51  38  35  40  47  50  46  34  23  86 129 107  91  79  68  49  28  26  21  13   8   6   5   0  50 137 160 158 149 150 132 130 129 130 121 120 118 123 131 117 101 132 137 137 112 122 138 113 106 104  95  80  80  92  90  87  89  87  87  96 105 103 103 103 100  91  64  34  18  22  23  23  21  23  28  33  32  47  49  49  51  50  51  49
  68  67  61  48  47  49  53  55  52  41  33  36  42  45  42  25  74 120  60  45  47  43  43  41  37  27  20  11   7   6   6   3   0  38 147 163 143 146 126 126 134 122 112 100 101 108 111 110  85 124 120 109 109 108 104  88  86  86  88  83  81  84  88  86  91  86  92 105 108 105 104 100  96  78  60  31  17  22  25  24  23  26  32  34  31  44  52  51  54  51  51  49
  64  63  55  43  44  48  49  54  52  43  33  33  39  40  33  46  85  21   5  30  31  20  13  27  43  23  18   9   6   5   6   5   4   0  68 133 137 147 133 117 131 109 107  85 105  92  92 107  96 115  85  78 102  88  79  79  83  83  89  87  72  81  86  88  81  88 102 105 108 109 104  99  91  69  42  15  19  22  26  24  21  25  30  31  30  39  50  50  51  48  48  53
  60  56  47  41  43  47  45  53  53  45  35  30  34  38  32  59  35   0  23  36  28  15  13  21  39  19  16  10   7   6   6   6   4   3   0  44 111 135 126 110 118 112  88  77  94  97 100  98  84  95  93  84  78  75  83  91  88  88  90  77  70  83  92  90  89  95 101 103 102 103  99  97  82  48  15  13  20  23  25  24  21  24  30  33  28  34  45  50  52  56  57  62
  55  50  44  44  42  43  45  50  55  46  35  27  32  33  30  46  15   6  35  35  19  13  12  20  37  17  17  11   7   6   6   5   4   4   2  15  56  89 116 122 105 110  79  63  82  88  81  83  76  79  89  76  57  67  87  69  72  89  84  74  81  87  95  95  92  94 101 103 102  97  95  92  60  20  14  16  19  19  21  23  23  22  28  32  29  33  51  55  57  55  46  31
  48  45  43  42  40  40  43  46  53  48  36  25  28  31  29  39  16  13  39  27  16  14  11  19  35  18  15  10   9   7   6   6   4   3   6   8  36  56  81 102  96  94  90  82  82  69  92  87  73  76  74  68  69  66  67  73  81  92  88  86  91  95  93  94  97  96 104 100 100  93  90  69  26  18  16  16  17  19  19  21  23  22  29  36  34  35  41  32  21  10   5   3
  43  41  40  39  38  38  42  43  50  48  37  26  25  32  30  31  27  27  33  23  19  16   8  23  32  19  18  12  10   9   6   8   5   4   6   7  31  50  67  88  94  82  90  94  93  81  74  72  67  63  73  78  72  63  75  85  86  93  92  96  97  91  90  96  97  99  96  93  94  87  72  31  25  21  16  14  18  21  21  21  25  23  27  38  37  18   6   2   3   6   8   9
