P2
# Generated by OpenCV 4.2.0
92 112
255
 255 255 255 255 254 248 249 250 249 250 250 251 248 249 250 251 249 249 249 249 250 250 252 251 250 250 250 249 248 248 249 250 255 228 176 130 124 140 140 142 116 117 126 148 175 173 167 165 163 169 151 167 183 182 218 247 255 255 255 255 255 255 254 255 254 255 255 255 255 255 255 255 255 255 255 255 254 255 255 255 255 255 255 254 255 255 255 255 255 255 255 255
 255 255 255 255 254 249 249 251 250 250 251 249 250 250 250 251 251 251 251 250 250 251 250 249 251 249 249 249 249 246 250 216 144 133 144 136 143 113 103 124 143 151 163 160 155 154 155 153 155 153 157 156 157 158 156 182 216 217 238 255 255 255 255 255 255 255 255 255 255 255 255 255 255 255 255 255 255 255 255 255 255 255 255 255 255 255 255 255 255 255 255 255
 254 255 255 255 252 249 250 249 249 251 250 250 250 249 250 250 251 250 248 249 249 248 250 249 249 248 245 246 247 227 169 135 127 136 153 119 128 150 113 129 138 130 112 112 140 138 144 143 138 132 142 140 143 153 157 171 162 157 194 213 232 249 251 252 249 249 253 254 253 254 255 255 255 254 255 255 255 255 255 255 255 255 255 255 255 255 255 255 255 255 255 255
 255 255 254 255 249 250 248 250 251 250 250 251 250 252 250 251 250 249 250 249 249 250 248 249 248 245 246 247 203 177 160 145 170 133 136 146 113 123 137 143 143 154 159 154 134 136 147 144 139 135 137 151 153 149 156 141 143 173 177 148 187 231 233 247 249 249 250 253 252 252 253 251 253 254 253 255 255 255 255 255 255 255 255 255 255 255 255 255 255 255 255 255
 255 255 255 255 248 248 250 251 251 251 251 251 251 251 249 251 250 250 249 249 248 247 244 249 249 243 236 193 180 150 144 173 137 143 128 132 139 158 142 152 146 152 147 146 141 141 138 135 139 144 144 137 133 141 154 158 167 148 133 175 171 168 183 216 245 253 251 251 251 249 252 253 251 252 253 251 252 253 254 253 255 255 255 255 255 255 255 255 255 255 254 255
 255 255 255 254 250 250 249 251 250 249 249 250 251 251 251 250 250 248 250 250 248 247 249 239 238 215 177 156 145 151 153 108 141 151 136 163 161 147 156 155 143 134 123 105 104 102  98 100  94  90  95 117 147 154 140 146 150 165 159 135 153 170 174 166 202 226 249 252 250 253 252 253 251 253 253 251 253 253 252 253 251 253 253 251 253 254 254 255 255 255 255 255
 255 254 255 254 251 250 249 250 249 250 251 250 251 251 250 251 252 249 250 248 243 231 223 207 181 169 139 137 115 114 129 133 149 155 161 146 149 145 136 111 109 102 110 128 125 121 118 117  99 110 121 121 107 108 126 159 162 144 152 168 161 155 161 166 171 174 226 249 248 251 253 252 252 252 252 253 254 253 254 253 253 253 255 253 253 253 253 250 250 253 254 254
 255 255 255 254 250 250 248 250 251 250 250 250 249 252 250 249 248 248 250 240 219 201 174 147 132 130 106 104 114 136 127 147 148 131 120 137 122 102  85 100 104 119 116 124 124 118 107  99  98  88  95 112 113 126 127 113 117 150 171 167 160 174 161 160 163 166 173 230 247 249 251 252 252 254 252 252 252 254 253 254 253 254 253 251 254 252 252 254 252 254 255 254
 255 255 255 252 252 251 250 249 248 252 251 250 250 249 250 249 251 247 234 202 184 162 140 100 126 102 102 113 115 111 124 124  98  99 115  83  94  84  93  87 100 108 124 142 112  99 113 109 120 118 118 118 123 110 117 123 136 133 113 125 163 168 153 162 151 166 162 159 223 248 252 251 252 251 253 253 254 252 254 254 252 255 253 254 253 255 253 253 253 254 253 254
 255 255 255 251 250 251 251 250 250 250 250 249 251 250 252 249 245 186 158 146 136 106 107  66 125 101 112 112 107 101 106  97  95 104  67 101  79  83  81 111 112 109 132 110 128 119 133 136 140 138 126 125 115 107  93  93  96  83  88 121 134 143 175 172 154 153 168 170 171 197 241 248 252 251 253 254 252 253 254 253 253 254 254 253 254 253 254 253 254 253 253 254
 255 255 255 249 250 252 249 249 250 250 250 250 251 250 248 212 128 136 141 142 136 134 118 133 132 121 117 106  92  84  82  77  84  74  80  82  81  86  87  89  97 117 119 118 111 120 119 119 124 130 127 124 110 118 116 107  88  88 105  94  97 134 144 142 171 172 163 151 175 172 193 238 254 253 253 254 254 254 252 254 253 254 254 254 254 253 253 253 255 254 254 254
 255 255 255 250 251 249 251 250 250 251 248 251 250 249 217 100 123 136 163 162 151 168 156 145 143 121 117  96  71  69  73  66  75  69  98  74  87  75  93 101 102 105 101 101 106 106 112 121 123 124 140 131 145 132 133 127 107 108  81  99 130 118 113 135 147 160 170 152 147 156 150 186 239 253 254 253 252 254 253 253 255 254 254 254 254 253 252 255 253 253 253 251
 255 255 254 250 249 251 250 250 250 249 249 250 253 212 139 110 116 119 152 181 189 181 182 163 164 138 111  91  67  82  67  76  78  91 102  80  94  87 102  92 111 107 111 113 111 114 122 129 130 132 140 144 139 142 147 143 141 142 108  77  66 118 157 141 120 123 144 147 146 130 144 186 187 243 252 253 253 252 253 253 254 253 252 253 253 252 254 254 253 254 253 254
 255 255 254 251 251 250 251 250 250 252 252 251 223 166 111 102 121 133 151 152 151 158 174 175 164 148 128  99  82  77  80  89 101 113 104 115 101 100 108 120  98 102 104 110 106 115 122 133 136 142 138 150 156 154 166 157 164 164 159 138 106  72  87 128 133 128 122 129 156 129 161 148 185 208 249 252 254 253 253 255 254 254 254 252 253 255 253 253 254 253 254 254
 255 255 252 250 251 250 250 252 249 251 250 246 208 202  79 115 105  92 106 119 147 156 162 152 162 156 147 129  92  89  93 104 112 127 137 124 132 132 142 135 129 117 112 120 130 130 135 143 145 159 153 150 158 166 155 181 169 178 171 163 156 114  88  91 105 114 114 113 120 155 150 155 137 175 231 249 254 254 253 253 255 253 254 254 254 253 254 255 253 255 253 254
 255 255 250 251 251 250 251 251 251 250 252 241 190 112 133 100  83  92 125 144 157 164 166 173 168 158 150 151 129 110 107 110 136 143 152 154 154 165 164 161 159 153 150 152 154 156 153 158 157 150 156 161 164 170 172 165 178 186 179 175 176 158 124 104  88 107 112  71 101 117 129 151 158 130 178 249 253 253 253 253 254 255 254 254 255 253 255 253 254 253 255 253
 255 255 249 250 250 250 250 249 250 250 249 216 158 147 131 107 101 125 142 155 164 168 166 163 173 170 161 155 156 145 124 129 148 152 161 161 170 181 190 190 187 188 182 179 180 180 183 174 181 176 153 148 153 163 164 181 190 192 190 185 177 173 168 148 116 100 129 145  93  83  93 114 132 161 128 206 253 252 254 255 254 254 254 253 255 255 254 255 253 254 253 255
 255 255 250 251 250 251 251 252 250 252 235 166 115 119 101  95 116 150 158 168 169 169 177 174 171 177 177 182 167 174 159 156 166 167 168 176 182 194 199 201 198 194 196 197 193 195 196 193 183 177 165 170 171 183 202 191 188 191 197 193 193 188 186 173 155 133 123 142 158 116  90  64 103 109 147 141 228 251 255 254 253 255 254 254 254 253 255 254 253 254 254 254
 255 255 251 250 251 250 251 248 253 253 190 104 107 110 106 117 150 161 164 168 171 173 176 174 177 177 184 186 183 187 184 177 180 185 183 186 191 196 200 199 201 201 201 197 199 197 194 192 193 185 191 188 190 188 197 204 195 190 195 193 194 194 193 195 183 153 133 141 160 152 117 108  71  85 107 135 153 250 254 255 254 253 254 253 255 255 255 252 253 255 253 255
 255 255 251 250 251 250 250 250 250 251 116  97 109 107 125 140 157 164 163 166 170 175 174 172 176 181 182 187 185 183 188 186 181 188 187 188 189 189 195 201 199 196 198 197 194 192 191 189 191 195 186 188 191 194 194 195 197 190 198 194 197 196 199 196 198 177 122  99 121 163 149  98  94 104  82 125 140 210 254 254 254 255 255 255 255 255 255 254 255 255 255 255
 255 253 251 249 250 250 251 250 249 221  68  97 101  93 109 153 164 162 163 169 170 168 168 174 171 180 184 185 189 188 188 187 189 191 187 189 189 190 194 193 192 194 197 193 193 195 192 195 194 192 191 195 194 194 192 198 192 194 196 202 189 197 197 197 202 195 172 129  71  68 156 122 102  99 114  81 106 165 252 255 254 255 255 255 254 255 254 255 255 255 252 255
 255 252 249 252 249 250 251 251 248 144 109  87 104 100 136 159 158 156 164 163 165 169 166 171 170 177 180 184 182 183 187 185 188 185 185 189 187 189 191 194 194 197 191 189 197 191 188 192 194 194 191 196 196 195 192 195 200 197 196 197 187 200 198 199 195 184 180 150 118  85  66 168 129  78  70 102 119 104 234 253 254 255 255 255 255 255 255 255 255 255 253 255
 255 251 253 250 253 251 251 228 228 110 109  85  76 100 148 160 160 157 160 161 163 165 164 163 168 176 180 182 182 182 186 184 187 184 188 185 190 190 193 193 194 195 192 192 190 195 199 195 192 193 194 193 196 193 199 197 199 197 198 199 197 197 198 199 198 186 174 169 126 111 100 108 169 130  69  72  98 115 166 254 253 254 254 255 254 255 255 255 255 254 254 255
 255 253 252 251 252 251 241 249 176 100  81  75  76 116 154 159 152 157 159 157 158 162 160 167 169 175 179 181 183 182 183 184 186 184 186 185 190 188 191 192 193 194 193 194 193 198 195 197 193 198 195 195 200 195 201 204 203 201 199 203 195 204 203 199 194 186 182 176 162 101 109 104 131 148 104  63  80  91 159 244 254 252 255 255 255 255 255 255 255 255 255 255
 255 251 252 252 251 249 244 214 105  86  67  52  78 131 160 155 149 155 156 157 155 161 166 167 169 171 176 180 181 182 183 181 184 186 183 186 189 190 192 192 192 193 192 190 196 196 194 195 192 196 201 199 198 205 200 198 201 203 206 202 202 199 204 201 194 188 172 169 150 146 112 111 155 132 122  87  64  99 147 248 254 255 251 255 255 254 255 255 254 254 254 255
 255 253 251 250 250 246 183 100  87  72  61  64  96 135 162 150 150 157 151 156 154 158 162 164 172 174 176 176 176 179 179 182 181 184 183 183 188 192 192 195 193 193 198 195 196 196 196 196 198 201 208 205 205 205 203 205 200 206 202 201 200 204 202 203 202 196 179 176 162 144 131 108 111 124  90  72  92  75 110 236 253 254 254 255 254 255 254 255 255 255 255 255
 254 251 252 253 250 217 162 107 109  82  73  76 108 137 168 153 153 149 148 151 149 155 161 168 171 175 175 180 175 179 180 180 184 183 182 186 188 193 196 193 195 197 200 198 195 195 200 200 204 206 206 210 209 212 203 201 203 202 205 205 201 203 205 204 198 188 172 176 184 158 139 121 102 122 103  61  61  73 127 234 254 255 253 255 255 255 254 255 255 255 255 255
 251 253 251 252 253 185 127  90  65  69  78  72 119 142 163 149 153 151 148 151 143 153 159 169 172 179 180 179 181 180 180 179 183 177 179 184 188 195 194 195 193 198 197 197 196 193 195 200 201 204 208 204 210 207 207 206 207 205 206 207 204 203 202 203 202 186 170 155 164 162 157 127 102 111 107  77  40  73 102 196 251 254 253 254 255 255 255 255 255 255 255 255
 251 251 252 253 237 156 120  84  73  76  90  99 120 149 160 148 148 145 149 156 150 152 157 167 175 181 179 172 182 179 179 178 184 180 180 188 190 196 196 191 193 191 185 190 191 198 196 201 203 205 211 209 210 209 212 209 205 206 208 210 206 205 204 200 199 188 174 179 163 158 154 161 132 112 119 102 116  96 143 149 221 253 250 255 254 255 255 254 254 255 255 255
 250 251 252 252 226 176 143 123 113  93  89  84 108 147 159 144 148 156 150 148 151 151 157 166 171 178 178 178 180 182 181 180 180 181 185 187 187 197 192 188 186 188 188 189 190 193 197 202 205 204 207 206 208 211 208 209 205 203 207 210 209 204 204 203 200 190 174 160 154 154 144 160 147 101 126  98  34  74 115  94 166 245 254 249 254 254 254 254 254 254 254 255
 251 253 252 250 251 150 130 113  72  86  73  99 120 145 158 148 149 149 151 148 147 152 157 163 171 179 181 181 181 182 183 180 181 185 186 183 189 192 191 190 186 186 184 188 187 190 196 202 207 205 210 215 212 213 213 210 210 208 206 203 206 205 208 205 195 189 170 152 150 139 139 147 155 110 110  95  95  85  73 103 155 168 255 249 254 255 255 255 255 255 255 255
 252 253 252 252 249 102 121 116 105  97  97  85 125 144 162 153 149 151 151 146 144 149 156 156 162 175 183 182 186 187 185 181 181 183 181 180 184 184 190 187 188 186 187 185 185 192 200 201 202 207 210 213 211 210 209 210 207 208 208 206 206 209 209 205 196 189 178 163 150 150 143 135 152 113  82  79  83  68  72  95 164  53 251 255 255 255 255 255 255 255 255 255
 252 252 250 253 250 198 114 106 102  85  84  99 119 149 159 152 150 142 142 141 144 145 158 152 161 172 184 181 179 181 174 182 181 175 176 170 169 176 192 188 186 190 191 184 185 192 195 202 202 202 198 199 203 205 206 212 210 210 206 208 205 209 207 203 193 192 172 158 149 150 152 141 134 123  94  75  62  66  63 121 164  99 239 253 255 255 255 255 255 255 255 255
 252 254 253 252 249 246 131 122 109 101  94  93 120 148 157 151 149 149 148 142 143 148 155 169 160 170 180 179 181 184 186 189 187 185 181 175 163 167 181 182 187 188 179 181 184 185 190 197 207 209 207 207 206 209 205 205 204 209 207 207 206 207 208 200 200 184 177 163 153 157 132 128 132 115  85  87  47  63 100 118 105 101 220 255 253 254 255 255 255 255 255 255
 253 253 253 252 253 248 211 144  90 105  90 109 119 145 159 153 148 145 144 147 141 141 152 165 154 170 174 171 180 181 184 185 185 182 190 183 167 168 173 179 183 189 185 180 183 189 193 197 199 201 197 205 210 208 206 208 205 209 204 209 208 206 209 207 203 197 183 171 156 116 113 121 133 125  60  93  70  74  64  92  94 151 226 253 254 255 255 255 255 255 255 255
 252 250 251 252 253 251 237 117 113 107 130 110 114 130 148 155 145 143 144 147 144 144 150 159 161 168 166 174 169 166 175 177 176 181 188 192 181 179 182 186 185 181 185 176 177 179 177 168 177 180 187 196 196 199 201 206 204 204 205 207 209 204 207 206 206 200 183 172 150 122 114  84 125 118  88  79  95  95  74  50  82 115 242 255 254 255 255 255 255 255 255 255
 253 253 254 252 254 254 230 131 134 123 110  98 115 134 144 151 146 146 141 147 144 145 148 156 154 149 153 157 171 175 180 177 173 181 181 187 183 175 178 184 185 182 165 152 144 149 167 187 201 204 203 206 208 203 204 208 206 204 206 207 207 207 206 209 207 198 190 177 158 150 134 115 113  93  81  77  77  94 101  84 103 122 212 253 253 255 255 255 255 255 255 255
 254 253 252 253 253 253 250 160 149 108  81 106 103 125 146 152 145 143 147 149 143 142 141 140 155 173 166 159 152 157 153 157 157 170 182 182 186 176 169 168 171 165 170 166 179 186 192 194 202 206 208 206 201 205 206 205 208 210 204 207 208 205 204 208 206 202 186 172 149 120 108 139 117  96  69  92  67  45  65  92 106 120 195 252 255 255 255 255 255 255 255 255
 254 254 253 253 253 253 237 164 131  74  93  89  92 120 137 153 143 145 145 140 138 143 148 156 173 174 181 176 185 186 180 175 166 159 155 168 174 171 182 189 196 191 174 173 182 187 191 194 200 212 208 209 208 212 206 203 205 208 203 202 205 205 208 207 208 200 200 189 166 122  94 114 146  84  84  65  44  52  32  78 121 116 157 238 253 255 255 255 255 255 255 255
 253 253 252 251 254 253 250 203 104 115 107  89  95 120 133 147 149 145 141 139 140 141 146 156 171 172 182 181 182 187 185 187 185 186 188 190 177 178 183 190 190 186 173 181 188 196 196 199 213 217 216 212 202 210 209 204 205 203 197 200 202 203 206 207 209 207 206 206 187 153  97  92 127 112  88  82  53  65  94 121  98 116 131 189 254 255 255 255 255 255 255 255
 254 253 252 254 252 249 250 212 107 139 107 101 104 110 134 147 148 139 144 138 139 145 146 156 166 173 180 191 191 195 190 187 175 186 192 186 185 171 176 183 195 183 176 194 195 198 205 205 204 206 213 213 211 206 206 206 209 206 201 200 201 202 205 206 207 207 210 202 196 168 125  74 119 126  72  71  88  73  93 101 104  86 140 181 254 253 254 254 255 255 255 255
 254 253 253 251 252 250 246 165 110 153 114  82  84 104 126 149 153 143 140 142 141 144 147 160 166 170 178 174 175 182 190 196 199 175 185 202 190 174 174 184 191 187 194 198 194 194 195 205 212 215 219 217 213 213 214 211 203 209 207 207 209 204 204 205 195 204 207 201 200 178 136  98 110 118  65  67  72 103 106 107 109 123 158 184 254 253 255 255 255 255 255 255
 254 254 253 253 251 253 231 207 139 146 103  88  76  98 135 152 151 147 138 143 142 146 146 151 161 171 183 195 194 192 193 187 192 200 194 183 190 195 189 189 196 192 198 201 198 193 197 207 207 216 217 216 213 214 212 212 210 205 211 208 208 206 203 205 206 207 205 208 200 185 139 103  99  76  75  76  91  99  94 115 137 139 108 232 254 255 255 255 255 255 255 255
 254 254 253 252 254 253 247 198 142 132 115  53  75 106 133 156 153 144 147 149 147 144 148 160 165 178 193 192 188 191 195 191 188 188 192 186 189 189 196 182 193 191 203 199 196 198 190 192 198 201 206 200 210 205 210 198 196 187 195 204 205 199 209 209 208 209 208 210 205 195 171 114  73 115 100 124 129 146 167 174 161 158  88 250 255 255 255 255 255 255 255 255
 253 254 254 252 252 253 249 248 159 144 110  80  31 102 155 161 162 158 159 162 161 155 160 166 167 178 188 168 171 169 173 187 187 194 182 183 179 190 200 181 186 193 198 199 189 179 177 146 158 179 182 182 190 195 187 198 197 197 207 200 194 203 202 210 210 208 209 207 209 202 183 143  96 122 145 126 170 184 191 169 132 188 137 254 255 255 255 255 255 255 255 255
 251 253 254 252 253 252 252 246 210 147  99  96  42 113 158 172 168 162 167 167 179 164 162 154 178 172 155 156 145 169 167 172 183 185 181 182 165 173 188 184 177 184 191 191 174 169 161 135 131 161 165 171 167 170 175 178 185 191 187 191 203 196 202 206 206 206 207 208 205 208 190 160 116  86 124 158 170 155 157 189 146 150 208 254 255 255 255 255 255 255 255 255
 254 252 254 252 253 252 251 250 245 122 143  73  54 106 167 174 170 176 163 153 173 169 166 166 166 160 139 142 132 145 146 162 173 180 180 179 158 166 173 182 159 176 177 175 164 153 156 150 131 127 132 144 158 165 187 195 200 205 200 199 194 199 203 204 207 208 194 209 205 206 199 183 132 107  63 143 136 146 183 189 154 134 206 254 255 255 255 255 255 255 255 255
 255 252 253 253 253 253 254 254 245 168 114  78  68  99 170 170 170 162 172 177 174 180 181 162 143 112 111 109 121 132 137 147 169 171 177 178 158 172 181 192 155 167 166 160 158 155 166 165 154 152 156 171 178 184 184 196 199 204 203 195 198 204 200 206 213 205 199 204 209 204 202 187 172 117  93 123 113 175 198 203 177 129 207 254 255 255 255 255 255 255 255 255
 252 253 253 251 253 253 253 252 253 222 151  92  72 102 174 175 157 149 147 140 139 141 135 133 122 121 127 119 115 118 125 131 138 152 165 172 158 165 183 199 189 187 177 161 150 147 160 140 150 162 162 170 178 174 182 197 201 200 203 200 194 198 194 191 204 209 215 208 207 197 206 196 174 140  96 127 124 148 184 203 194 131 207 254 255 255 255 255 255 255 255 255
 251 252 253 253 253 254 253 251 249 251 223 105  94 113 172 159 131 120 115 133 140 145 152 163 173 176 167 160 141 112  97 105 110 113 117 135 151 166 176 197 196 191 166 150 131 126 118 137 158 162 152 135 111 122 130 108 167 187 207 199 200 199 201 202 208 208 206 212 201 208 205 189 151 139 121 145 132 140 168 196 205 140 209 254 254 255 255 255 255 255 255 255
 254 252 253 252 253 253 253 253 253 250 240 156 109 132 170 173 137 114 123 134 135 154 154 156 179 172 175 170 169 151 118  81  70  82  84  91 129 152 186 202 200 193 181 163 105  91 122 132 135 115  77  84  34  58  60 161  52  83  74 160 203 207 210 189 193 209 206 208 213 206 205 195 179 130 103 184 149 123 159 174 200 157 209 254 254 255 255 255 255 255 255 255
 252 253 253 253 254 251 252 252 251 245 234 203 113 146 163 167 139 123 130 125 130 136 153 155 157 173 169 151 143 128 113  88  66  55  66  86 114 154 193 205 206 200 189 166 111  83 111 119 104  84 128 165  64  95  75  57 111 143 135  87 109 160 193 202 203 205 209 210 209 206 208 203 175 142 145 177 186 130 148 162 192 171 217 254 255 255 255 255 255 255 255 255
 253 253 253 252 253 252 254 253 252 251 248 212 129 169 163 163 128 134 123 135 140 139 126 130 115  65  10 147   3  65  86  88  72  55  65  89 115 161 194 196 207 200 188 165 152 137 149  99 103 134 140 151 127 118 121 155 178 200 195 183 190 170 167 185 190 195 203 209 211 208 205 203 192 165 166 210 193 132 143 164 195 168 213 255 255 254 255 255 255 255 255 255
 251 253 252 254 252 252 253 254 253 253 249 233 101 169 180 173 144 154 142 124  91  33  25  51  21  35  51  39  45 114  52  47  75 117 100  99 123 167 194 199 203 200 192 178 160 170 166 147 131 132 149 165 178 188 192 197 199 200 203 195 186 193 200 205 190 203 204 199 206 203 206 201 193 163 209 213 197 132 136 161 198 173 217 255 255 255 255 254 255 255 255 255
 254 253 252 254 252 252 254 254 252 251 253 241 118 179 171 160 141 142 116  83  27  92 104 112 112 124 118 144 154 128 106 108 109 116 101 110 122 167 185 199 198 197 197 188 185 174 148 150 126 123 151 166 170 191 193 186 184 197 202 190 194 193 195 194 194 203 208 198 196 201 204 198 185 162 209 218 212 119 127 192 187 181 225 255 254 254 255 255 255 255 255 255
 254 254 252 252 254 252 253 252 251 253 251 250 143 186 181 164 133 103  76 130 122 130 144 149 165 165 176 145 131 119 113 117 119 112 117 116 135 172 180 192 200 201 198 188 185 189 175 158 154 133 126 142 154 168 183 193 195 189 189 194 197 196 179 191 202 189 189 191 205 200 205 201 188 156 214 208 218 159 187 197 179 191 232 254 255 255 254 255 255 255 255 255
 253 253 253 253 254 252 253 253 253 253 251 253 206 175 170 163 146 142 131 123 152 156 167 158 157 151 141 128 128 122 128 125 125 117 121 115 141 174 186 191 198 201 201 187 194 200 194 185 161 157 142 148 152 159 162 165 170 174 192 195 189 185 202 196 187 203 199 191 198 199 200 201 184 177 211 209 211 181 206 195 173 199 231 253 255 254 255 255 255 255 255 255
 252 253 253 253 251 254 253 253 253 252 251 250 241 171 188 174 157 162 155 140 128 121 127 134 129 128 128 135 138 136 143 123 136 124 123 123 143 166 182 187 206 202 201 195 195 204 198 195 194 194 175 164 164 174 172 180 177 179 176 185 191 201 189 197 196 189 199 205 195 202 205 201 174 178 207 208 180 185 210 190 178 200 241 252 255 255 255 255 255 255 255 255
 255 254 253 252 253 253 254 253 254 253 252 251 252 171 178 137 165 152 145 136 146 135 138 138 151 151 147 146 138 145 146 147 137 120 122 122 137 168 183 193 206 199 197 197 194 200 197 196 193 197 199 192 186 184 177 177 175 177 190 191 196 199 206 199 190 191 178 200 205 196 202 192 187 198 195 208 201 205 215 179 201 218 254 253 255 255 255 255 255 255 255 255
 249 252 251 253 251 252 250 253 253 253 254 253 251 167 180 151 149 157 166 175 138 139 142 135 142 143 150 145 140 155 159 149 129 125 130 123 138 164 181 193 201 194 194 198 199 197 201 203 196 184 191 193 197 185 182 183 181 187 185 196 199 200 202 203 203 197 191 184 206 200 199 184 175 191 198 202 213 209 210 186 203 249 251 254 255 255 255 255 255 255 255 255
 251 251 251 250 250 250 251 251 253 251 252 253 253 171 184 161 144 149 149 164 166 167 164 169 162 163 162 159 164 165 155 135 128 123 129 128 143 161 184 195 201 196 195 194 200 199 197 202 200 195 180 180 184 189 185 182 188 188 192 196 200 201 204 199 193 196 195 188 191 196 199 182 191 193 196 202 210 210 202 190 213 253 252 255 255 255 255 255 255 255 255 255
 249 248 251 249 250 252 252 252 250 252 253 254 254 163 173 148 127 133 149 148 156 167 167 173 169 168 170 170 169 163 154 137 127 129 135 132 147 164 182 193 199 195 191 198 198 199 199 201 200 196 189 182 177 183 184 186 185 188 192 197 199 203 202 199 196 193 192 192 188 187 195 173 178 190 194 199 205 201 201 191 240 254 255 255 255 255 255 255 255 255 255 255
 247 248 249 251 252 251 249 252 251 253 252 254 253 199 174 142 137 146 141 152 161 166 173 181 178 176 171 173 170 163 152 136 131 134 135 135 150 166 175 193 199 189 191 195 201 206 202 199 201 194 184 182 179 177 184 186 189 190 196 199 200 203 204 201 202 192 195 200 182 183 186 173 170 195 205 197 203 196 196 210 253 255 255 255 255 255 255 255 255 255 255 255
 248 248 248 250 250 252 252 253 252 253 254 254 253 222 169 118 151 149 149 150 157 164 170 176 177 174 177 171 167 160 159 152 131 126 136 141 148 168 183 190 193 193 190 196 196 198 200 199 197 196 186 184 176 179 181 190 193 198 201 200 200 201 209 208 204 204 185 183 200 183 184 167 171 197 182 199 200 195 222 253 255 254 255 255 255 255 255 255 255 255 255 255
 249 249 249 249 251 249 251 252 254 253 254 253 252 245 169 133 146 145 146 157 159 159 169 170 174 172 173 170 170 164 157 141 119 132 135 148 149 165 178 186 191 193 195 193 198 190 195 197 186 183 187 180 184 180 180 181 188 194 201 204 200 204 203 205 202 205 202 181 186 183 180 181 173 193 161 170 189 223 255 254 255 255 255 255 255 255 255 255 255 255 255 255
 248 248 247 250 250 252 251 252 253 254 252 254 253 244 152 142 140 147 149 154 148 153 161 169 174 172 170 167 162 150 130 102 137 141 139 143 154 160 179 190 196 194 188 193 188 197 192 197 192 160 159 171 172 180 178 179 185 195 204 202 201 202 199 202 198 191 194 191 191 195 192 176 165 192 199 166 224 245 252 254 255 255 255 255 255 255 255 255 255 255 255 255
 249 250 249 252 250 253 251 254 253 254 254 253 254 233 151 161 149 144 145 146 145 152 155 165 163 167 157 153 141 122  85 115 146 146 144 138 154 175 184 190 196 196 191 191 192 198 192 195 191 171 151 131 148 160 169 180 184 193 197 199 197 197 199 194 191 186 186 195 184 184 194 181 153 196 200 226 242 254 254 254 255 255 255 255 255 255 255 255 255 255 255 255
 249 251 252 252 253 253 254 253 254 252 254 255 253 246 149 154 148 144 134 137 138 143 145 150 156 159 152 131 106  89 120 128 146 145 144 146 166 182 192 195 198 198 197 191 194 200 195 198 194 163 182 171 126 130 151 167 177 183 192 195 194 195 192 180 181 180 180 173 186 181 177 169 153 187 205 243 252 251 254 254 255 255 255 255 255 255 255 255 255 255 255 255
 252 252 253 252 252 254 254 254 253 253 253 252 254 252 174 140 143 143 135 134 139 139 147 150 152 153 130 106  90 116 119 126 138 141 143 150 171 179 188 197 203 202 203 203 200 203 195 192 176 165 173 178 164 135 109 138 162 174 179 188 192 192 183 183 181 168 167 170 169 177 188 172 174 187 203 242 252 252 255 255 255 255 255 255 255 255 255 255 255 255 255 255
 253 252 251 252 254 255 252 254 254 254 254 253 253 252 242 145 127 139 129 131 132 135 148 149 150 142 120  90 116  95 111 102 121 131 132 134 147 155 155 168 197 203 192 192 198 159 126 147 166 185 170 177 162 157 140 107 135 156 175 177 185 183 190 187 175 142 146 172 163 181 183 157 169 189 203 240 249 254 255 255 255 255 255 255 255 255 255 255 255 255 255 255
 253 254 253 253 253 254 252 253 254 252 253 253 254 253 252 150 119 115 131 133 128 136 141 145 141 124  95  96  94  92 116  84  69  52 108 131 130 147 146 155 170 181 180 183 124 108 134 137 161 171 154 157 152 153 148 143 108 134 159 176 177 185 185 188 174 135 159 172 167 165 183 187 178 185 195 218 248 252 253 253 255 255 255 255 255 255 255 255 255 255 255 255
 254 252 254 252 253 253 254 253 254 253 253 254 253 252 254 202 107  99 121 129 121 128 136 137 129 116  98  94  99 107  95  75  82  73  34  78 123 136 138 141 159 174 171 171 146 156 154 161 167 147 174 160 166 164 147 138 125 106 120 147 165 183 182 177 162 138 141 173 172 172 175 168 151 174 192 195 222 242 251 255 255 255 255 255 255 255 255 255 255 255 255 255
 254 255 253 254 254 253 254 254 253 255 254 254 253 252 255 223  74  91  83 119 124 122 126 134 123  94 101  86 112 103 100  84  90  69  61  62  69 112 119 125 156 173 171 133 122 146 124 135 146 144 151 167 173 157 171 139 144 133  99  89 132 146 163 178 162 127 140 166 184 154 191 167 166 175 188 235 242 253 253 255 254 255 255 255 255 255 255 255 255 255 255 255
 254 254 254 253 254 253 254 254 253 253 252 254 254 254 254 245 115  86  58  95 123 123 112 110  95  79 110 107 107 106 107  91  95  74  74  70  67  76  98 114 131 107 104 110 112 115 118 134 134 137 152 148 170 165 173 173 163 150 134 116  90 134 157 167 170 122 154 187 191 168 181 171 170 178 177 219 227 249 255 255 254 255 255 255 255 255 255 255 255 255 255 255
 254 255 253 253 254 253 254 253 254 253 255 254 254 253 252 254 154  93  67  85 122 120 104  87  94 104 116 125 118  97 109 103 109 101  94  69  77  90  85  95  81  76 109  75 111 118 124 148 142 151 143 158 163 162 160 161 170 176 163 159 118 138 170 175 159 136 152 182 189 174 188 156 165 170 164 202 231 249 251 254 254 255 255 255 255 255 255 255 255 255 255 255
 252 253 253 253 255 253 254 253 254 253 252 253 254 253 254 248 195  97  78  83 106 105  90  84 128 125 125 128 101 104 115 101 100 117 103  95  99 104 122 102 103 120 103 113 126 125 129 152 161 164 172 162 166 162 152 159 166 153 163 165 123 131 149 178 138 128 159 181 177 171 184 166 139 180 161 202 240 246 248 250 254 255 255 255 255 255 255 255 255 255 255 255
 254 253 254 253 253 253 253 253 253 254 255 254 254 254 253 253 243 118  91  97  97  83  85 103 106 110 122 122  63 103 104  92 112 105 101 118 114 136 120 132 126 160 158 155 157 150 147 166 172 169 186 177 155 165 135 126 146 142 145 143 112 117 177 186 142 130 143 172 186 177 166 164 154 167 169 192 234 240 246 249 254 255 255 255 255 255 255 255 255 255 255 255
 252 254 255 253 254 252 252 254 254 255 253 254 253 252 254 254 253 139  97  94  93  80 102  79  96 112 102  86  77  95 101 123 116  98 115 102 108 144 130 130 156 165 157 149 162 156 160 144 147 135 133 148 153  85  47  88  85 136 140 133 129 149 172 177 145 135 156 171 182 176 143 131 154 174 171 195 230 245 248 250 254 255 255 255 255 255 255 255 255 255 255 255
 254 254 253 254 253 252 254 254 253 253 253 253 254 252 253 254 254 192  97  86  82 109 117 103 118 120 117  70  63  27  29  30  87  80  89  81  99 105 103 108 128 129 133 132 130 138 150 124 172 190 168 153  25  46  97 146 146 143 154 126 137 137 174 169 150 129 150 173 183 160 181 146 163 176 170 202 228 243 244 249 254 255 255 255 255 255 255 255 255 255 255 255
 254 254 254 253 254 254 252 253 253 254 254 253 252 254 253 253 254 241 116 106  85  97 132 124 116  93 109 101 105  80  26   3  15  95 176 118 126 118  99 131 134 107 154 193 185 168 236 177 219 183 139  98 114 136 192 179 168 155 145 130 146 136 159 146 154 144 152 177 163 157 166 189 159 181 175 195 226 241 249 254 254 255 255 255 255 255 255 255 255 255 255 255
 253 253 255 254 253 253 254 254 254 253 253 253 255 252 254 254 254 253 177 111  98  89 127 136 143 109 123 126 116 114  96  68  31  35 147 185 162 194 143 204 213 182 196 212 221 190 224 176 188 113 134 162 161 185 197 187 175 159 158 112 138 173 156 126 139 161 156 171 150 149 162 148 161 171 166 193 220 247 248 252 255 255 255 255 255 255 255 255 255 255 255 255
 254 254 253 254 253 253 253 253 254 254 254 252 255 253 254 253 253 254 244 116  95  94  91 114 118 118 130 123 139 137 141 109  87  73  77 147 120 188 168 203 214 208 196 211 210 169 156 139 149 159 168 179 190 201 194 180 175 159 143 134 153 166 136 121 129 155 151 161 143 153 150 150 159 190 184 180 219 241 253 255 255 255 255 255 255 255 255 255 255 255 255 255
 254 253 254 253 254 253 254 253 252 254 254 254 253 253 254 253 253 252 252 177  97  91  91 102 103 114 137 129 135 126 133 118 103  96 100 100  99 134 144 167 166 156 139 154 159 150 154 167 175 177 183 189 196 201 186 169 181 174 144 126 162 163 120 114 122 161 156 124 141 152 118 147 163 187 182 189 228 231 250 255 255 255 255 255 255 255 255 255 255 255 255 255
 252 254 254 254 253 253 254 252 255 252 254 254 254 254 254 254 253 254 252 234  95  94  70  96 101 111 112 130 117 131 135 141 125 107 112 118 117 141 157 181 160 147 165 161 158 177 180 188 192 191 195 197 197 197 182 183 167 164 167 138 139 136 130 109 121 143 138 113 127 161 121 148 166 178 162 178 193 229 253 255 255 255 255 255 255 255 255 255 254 255 255 255
 253 254 255 253 254 253 253 253 253 253 254 252 253 253 253 253 254 254 253 251 181  93  81  80  87  92 113 125 124 136 135 145 124 147 131 127 132 151 161 152 158 150 151 153 171 178 188 191 192 189 191 199 197 187 169 180 170 177 179 173 162 122 115 130 138 143 151 158 146 122 120 156 164 179 171 144 164 215 255 255 255 255 255 255 255 255 255 255 255 254 255 255
 254 254 254 254 254 253 254 254 254 253 253 253 252 254 253 253 254 253 254 252 245 101  88  85  71  79 118 111 119 124 127 125 135 131 126 132 144 150 156 156 154 144 154 142 164 168 180 174 182 191 192 187 192 178 170 171 164 158 178 176 124 146 131 132 149 159 136 188 142 111 145 161 172 179 178 135 122  64  28  43  40  83 157 212 254 255 255 255 254 255 255 255
 254 253 254 253 253 254 254 253 253 254 253 252 255 253 253 254 253 254 253 253 254 228  62  84  66  71 109 117 106 112 125 123 117 129 134 129 143 146 138 142 158 129 145 133 138 142 155 168 171 180 179 185 180 163 177 175 184 182 173 147 125 114 121 126 154 135 150 158 100 132 157 168 181 172 164 143 129  52  13  13   0   0  40  50  57  96 135 201 248 255 255 255
 254 253 254 253 253 253 253 253 254 252 254 254 253 253 253 254 253 253 254 253 254 254 169  76  62  75  96  97 109 108 106 115 112 103 108 125 136 147 145 140 145 147 144 148 129 147 151 168 165 163 170 171 172 166 162 179 176 176 164 143 145 141 119 152 141 139 168  93 118 151 172 184 179 179 170 138 157  57  12   2   7   8   8  24  39  58  72  91 143 254 255 254
 253 255 252 254 254 253 252 253 253 254 252 254 253 253 254 253 254 254 253 254 253 255 250 108  83  68  77  95 121 113  93 121 137 105  98 109 112 126 142 155 151 141 127 158 149 143 139 151 168 170 181 177 169 150 171 160 178 162 161 115 130 158 139 149 131 154 116  86 155 158 184 177 161 155 172 144 150  79  60  32   1   0   1   9  53  62  68  79  89 213 253 255
 254 254 253 254 254 253 255 254 253 252 255 253 252 253 254 254 254 254 254 254 253 253 254 236  72  75  70  91  99 104 111 111 110 120 114 129 100 118 125 135 151 148 144 147 156 139 146 154 168 179 184 167 169 164 130 169 188 157 163 152 137 155 145 133 125 106  95 156 161 162 180 181 156 160 176 135 140 132  38  21   1   0   0   0  37  45  58  69  86 130 255 255
 253 253 254 253 254 254 253 254 253 253 252 253 254 252 254 253 252 254 252 252 254 254 253 254 185  86  85  88  91  97 108 107  95 124 123 118 133 138 135 151 167 158 150 161 159 162 174 179 166 182 166 163 164 158 167 152 177 176 143 135 157 144 143 139 114 120 118 169 169 177 188 169 159 168 171 142 131 127  72  31   1   0   0   5  47  48  59  66  69  91 226 255
 253 253 253 253 254 252 254 254 255 253 254 253 254 254 253 253 254 253 254 253 253 252 254 253 247 140  93 102  95 118 121 107 114 130 144 129 127 142 152 168 162 181 156 166 180 175 184 183 196 177 158 166 146 154 170 159 169 177 145 127 164 162 160 149 108 114 158 160 174 156 185 161 159 166 171 146 119 122 105  54   0   0   0  26  44  50  54  60  65  80 139 254
 255 255 253 254 252 254 254 254 253 254 253 253 254 253 254 253 254 254 254 254 254 253 253 253 254 248 102  80 100  97  96 102 114 123 142 144 151 153 159 166 166 166 172 175 180 179 178 178 174 173 146 143 149 144 139 151 155 161 147 133 142 166 158 130  95 148 142 167 143 172 153 146 160 170 162 130 114 109  96  77  21   0  14  42  46  50  54  56  65  69  90 243
 253 254 254 252 254 254 254 253 255 254 254 254 254 252 253 252 254 253 255 253 254 254 253 253 253 250 204  73  85 109 108 119 127 136 136 134 139 147 164 158 159 168 160 169 184 183 182 197 175 164 141 156 166 172 162 172 150 145 126 128 164 165 136 104 135 150 143 172 167 148 157 159 167 160 161 136 105  98  92  67  58   6  31  44  46  49  51  54  56  63  76 145
 254 254 253 254 253 254 254 253 253 252 254 253 254 253 254 253 253 253 254 253 254 254 254 254 253 254 241 114  92 118 112 131 139 119 140 140 149 157 156 158 176 156 154 159 177 171 180 165 165 152 148 172 165 179 160 173 133 128 123 121 138 119 128 115 152 141 170 168 138 140 154 164 169 170 150 129  93  83  82  63  41  16  41  45  49  49  50  50  55  57  62  82
 252 254 254 253 252 253 255 252 254 253 253 255 254 254 253 254 254 254 253 253 250 254 253 254 253 254 251 237  85 114 132 138 131 135 135 132 133 148 157 158 172 163 163 150 158 159 167 164 168 155 166 147 153 171 159 181 135 102 136 110 125 136 114 148 143 142 151 163 158 151 151 151 175 154 141 130  85  77  70  56   6  37  45  44  46  50  47  51  52  55  55  68
 254 254 253 253 252 254 254 253 254 253 254 254 253 253 254 252 254 254 255 254 252 253 253 254 254 254 253 254 172 127 126 139 166 151 150 126 129 160 150 144 156 157 164 146 154 160 168 174 159 176 160 169 158 177 160 158 124  99 122  94 100 122 142 130 144 141 171 144 165 148 159 163 163 151 135 114  79  63  69  19  21  47  47  47  41  45  48  46  50  52  49  58
 253 253 254 253 255 254 253 255 252 254 254 253 254 255 253 254 254 254 252 253 254 255 254 254 254 254 253 254 230 102 125 133 162 132 142 132 121 131 130 138 145 152 154 135 177 153 176 174 161 171 166 164 171 182 191 148 110 108  99 131 122 128 124 141 127 160 149 149 151 161 163 153 154 147 126  97  66  52  34  11  41  46  47  44  43  44  45  48  50  47  51  55
 254 254 253 254 254 254 253 253 253 254 253 254 253 254 252 253 254 254 254 254 255 253 254 253 252 254 253 254 159 106 136 129 142 136 122 125 139 125 131 140 148 164 152 151 160 168 161 184 173 185 161 158 156 163 165 118  82 108 132 136 135 127 117 151 136 141 149 149 158 161 157 161 132 137  98  73  52  37   1  29  41  40  46  39  44  46  43  50  47  45  44  48
 254 255 253 254 253 252 255 253 253 254 254 255 254 253 255 251 253 252 253 254 254 254 254 252 255 254 253  79   0  72 102 136 126 120 138 133 140 113 122 126 143 134 165 159 159 171 157 175 185 182 174 181 175 178 116 112 117 125 115 104 118 123 116 123 149 141 154 132 155 152 149 162 123 109  83  61  38   1  28  42  45  45  41  47  42  42  45  45  50  43  45  47
 254 253 254 253 255 254 252 255 254 254 254 252 253 254 253 254 252 253 253 252 254 253 253 254 254 237  52   1   1  64 100 140 146 122 121 133 134 112 114 138 138 140 129 139 158 168 167 177 169 170 198 170 172 151  69 100 122 135 118 104 115 112 132 124 129 143 126 139 161 163 141 142 117  85  67  42   8  14  36  41  47  42  43  51  41  46  43  44  47  42  41  44
 255 255 254 253 253 254 255 254 254 254 254 254 253 252 254 252 253 253 254 253 255 253 255 254 224   0   0   0   0  24  90  79 135 125 140  98 112  96 113 135 131 124 136 123 140 149 161 167 158 170 178 162 143 106 105 115 135 105 122  92 107 117 133 135 119 150 137 148 138 145 145 125 108  62  41  13   8  32  42  44  40  41  41  45  43  42  46  41  42  40  41  41
 255 252 254 254 254 255 254 253 252 254 253 254 253 255 255 254 254 253 252 253 253 252 255 200   0   0   0   0   0  12 109  87  78 103 120  93 106 100 101 105 102 113 118 117 151 126 140 162 134 137 127 148 128 128 116 122 114 103 109 122 115 139 145 138 140 146 128 130 136 156 138 108  82  54  16   2  31  39  41  41  42  40  40  45  40  41  40  45  44  44  40  36
 251 253 254 254 254 253 254 252 253 254 254 253 253 255 253 253 251 253 252 252 253 255 168   0   1   0   0   1   0   2  88  93  80  71  97 131  93  93  80  88  91  97 139 130 123 129 157 152 127  99 100 126 124 134 113 116 110 120 119 125 115 114 124 130 139 149 118 110 137 130 105  88  63  33   0  22  37  37  39  44  45  43  44  38  41  40  40  44  42  43  37  39
 255 253 254 254 252 253 252 254 252 254 252 254 254 254 254 254 253 254 253 253 255 134   2   1   1   0   0   0   0   0  75  91  87  74  65  76  89  64  86  87  74  66  94  91  97  88 110  86 127 113 117 140 133 126 118 118 122 114  99 110 120  98 141 127 130 121 123 130 121  92  87  72  38   2  14  39  43  41  44  42  41  44  40  40  43  41  42  40  40  37  36  36
 252 253 253 253 254 253 253 253 254 252 254 253 254 254 253 253 255 253 252 253 140   0   1   0   0   1   0   0   0   0  57  91  91  78  60  62  68  52  51  46  32  45  46  60  60  93  83 102 124 133 161 142 130 121 116 124 132 101 110 130 121 118 116 112 133 106 123 107  90  75  52  36   4  10  36  42  48  43  46  44  42  43  42  39  42  38  42  36  40  37  39  40
 255 254 254 253 254 253 254 253 253 253 254 251 254 254 254 253 254 254 253 129   4  11   7   0   0   0   0   0   0   0  32  92  84  68  73  59  62  67  49  62  62  51  54  78  79  86  92  99 120 144 150 139 117 140 146 127 105  96 119 131 120 106 111 102 119 100 109  95  77  54  42   0   1  27  41  44  47  43  49  41  45  41  40  38  36  37  39  35  37  34  35  34
 253 254 253 254 253 254 254 254 254 253 254 254 253 253 254 253 254 252 113  11   8  10   0   0   0   1   0   0   0   0  13  92  76  71  74  74  57  55  71  77  73  66  74  76  87  97 122 133 146 153 118 119 153 147 120 139 116 104 113 117 111  88 114 101 108 104  91  78  67  50   1   1  20  40  40  41  49  50  43  49  45  36  37  36  34  35  32  34  32  32  34  34
 252 252 254 252 253 254 253 253 254 253 253 252 253 253 254 253 241  82  20  18   9   2   0   0   0   0   1   0   0   0   4  92  76  81  62  64  81  64  66  69  83  83  90 116 104 114 136 130 140 136 123 145 132 117 129 113 113 105 112 111  95 100  79 112 107  87  76  68  62   2  11  10  36  40  45  43  47  51  40  39  37  38  36  37  35  32  37  34  35  31  35  28
 254 254 255 254 251 253 253 253 253 253 254 252 253 254 254 232  62  22  20  10   2   0   0   0   0   0   0   0   0   0   0  77  94  94  71  61  77  75  57  79  71  87  98 115 115 144 131 136 119 133 144 145 119 117 133 111 109 104 126  89 101  78  99  85  79  73  75  48  14   5   1  23  39  39  40  44  48  46  40  36  28  32  33  30  32  31  39  34  36  33  32  34
 255 254 253 253 253 253 255 253 254 254 253 252 254 253 254 163  36  25  11   4   0   0   0   0   0   0   0   0   0   0   0  74  85  97  75  57  65  68  59  88  78 104  96 111 127 135 151 142 135 149 130 135 118 120 112 114 103 108 108  92 104  54  92  87  84  71  62  51   0   5  13  32  39  39  41  45  41  40  37  30  29  27  25  30  31  33  33  34  38  34  33  31
 254 254 252 253 253 253 254 253 253 252 254 254 254 252 253 133   8  13   7   0   0   0   0   0   0   0   0   0   0   0   0  46  89  99  86  75  55  61  58  88  93  93 109 106 116 126 117 131 147 103 130  98 101 115  98 111 111 107 109 106  72  65  89  85  82  80  72   5   8   5  23  32  38  40  35  37  38  36  34  27  29  27  26  30  31  34  37  32  41  41  38  42
