P2
# Generated by OpenCV 4.2.0
92 112
255
 172 171 171 171 171 170 169 170 169 170 170 170 167 165 169 168 167 168 168 167 167 168 169 168 167 169 170 170 169 169 168 170 170 170 168 169 169 167 168 168 168 169 168 168 169 169 169 169 170 172 170 172 173 171 177 181 183 185 188 193 198 202 212 218 220 223 227 233 237 236 237 237 236 235 235 235 235 235 233 232 232 232 231 232 232 231 230 229 229 229 228 227
 171 170 170 170 170 169 169 170 169 169 168 167 167 166 168 168 166 167 169 169 167 166 168 169 168 169 171 170 169 169 168 170 171 170 168 169 169 168 167 168 167 169 168 168 169 169 169 169 172 173 170 171 172 171 176 182 183 185 188 193 198 202 211 217 220 223 227 232 237 234 237 237 236 235 235 235 235 234 233 232 232 232 231 232 232 231 230 229 229 229 228 227
 170 170 169 169 168 168 166 168 169 168 168 167 167 167 167 167 168 167 168 168 168 170 167 168 169 169 169 169 169 170 170 170 170 169 167 169 169 169 169 169 169 169 169 169 167 168 169 169 172 174 171 173 171 171 175 180 183 187 188 193 198 204 212 218 220 222 227 233 236 235 237 237 236 235 235 235 235 235 235 233 232 232 231 232 231 230 230 229 229 229 228 227
 169 170 169 169 168 167 168 168 169 168 169 167 167 168 167 168 168 167 167 167 168 169 168 168 169 170 168 169 169 170 170 170 169 168 168 168 169 169 169 170 169 171 171 170 171 170 169 171 172 173 171 172 178 174 174 179 183 189 192 192 197 204 212 218 220 221 227 233 235 235 237 237 238 237 237 237 236 235 234 233 232 233 231 232 231 230 230 228 229 229 228 227
 171 169 169 167 167 168 166 167 168 168 165 165 167 166 167 169 169 167 166 167 167 166 168 167 168 168 169 170 169 169 170 169 169 168 168 167 169 169 171 172 171 169 171 174 183 186 178 170 172 174 175 174 181 180 173 178 181 186 195 196 198 204 212 218 219 222 228 233 235 236 238 237 237 237 237 237 237 236 235 234 233 233 231 232 232 231 230 228 229 229 228 227
 170 169 169 167 166 168 167 169 168 168 165 165 165 166 167 166 166 166 166 166 166 166 167 169 168 168 168 169 169 168 168 168 170 170 168 167 173 172 164 151 143 148 154 154 165 164 171 172 171 186 197 197 197 202 197 187 187 188 190 194 201 206 211 218 221 222 228 233 235 237 238 238 237 237 237 237 237 237 236 235 234 233 232 231 231 232 230 229 229 229 228 227
 170 168 168 166 167 168 167 169 168 167 165 166 164 165 166 163 164 166 165 165 166 166 167 169 169 170 167 168 168 168 168 170 174 172 169 174 167 145 134 134 146 136 132 141 135 146 155 172 176 179 192 200 204 210 207 211 203 195 193 197 200 204 214 218 222 221 228 234 236 236 238 238 238 237 237 237 238 238 237 236 234 233 233 232 232 232 230 230 230 230 229 228
 168 168 168 167 166 166 166 167 167 167 165 166 165 164 166 166 165 166 165 166 166 167 168 168 168 169 170 168 168 169 172 175 173 176 175 167 149 146 151 154 156 160 167 171 178 175 178 171 177 180 190 191 196 205 206 207 216 216 202 197 202 205 212 219 220 222 229 235 236 237 238 239 239 238 238 239 239 239 238 236 235 235 234 233 233 233 231 231 231 231 230 229
 168 167 167 168 166 166 165 165 166 167 166 165 164 165 165 164 164 165 167 169 168 167 167 168 169 168 173 173 169 172 175 190 188 178 179 167 167 166 180 182 183 187 179 178 175 171 163 161 169 182 184 177 182 185 191 198 203 212 216 217 210 209 211 217 222 224 230 235 236 238 239 240 241 240 240 241 240 241 238 238 237 237 236 234 233 233 232 232 232 232 231 232
 168 168 169 169 166 165 164 166 166 166 164 163 161 162 163 163 164 165 166 166 165 167 171 171 173 169 169 171 171 181 195 202 187 185 182 181 183 195 198 189 185 182 175 166 162 160 157 152 148 147 157 161 171 168 171 182 197 204 200 208 217 222 218 216 221 223 231 236 237 239 241 241 241 241 241 242 241 241 241 239 239 239 237 237 236 236 234 233 235 234 233 233
 167 168 166 165 167 166 165 166 166 164 160 160 161 163 163 164 165 167 165 165 166 168 167 174 177 177 177 169 180 209 210 205 205 199 202 207 212 207 188 189 191 177 170 167 164 159 148 152 155 146 147 157 165 156 157 156 165 180 190 199 198 214 221 222 222 227 232 237 239 239 241 242 242 241 242 242 242 241 241 239 239 239 238 237 237 236 234 234 234 234 233 231
 170 169 165 167 167 167 166 165 164 163 161 161 163 163 165 166 165 167 166 165 167 175 170 171 173 181 182 172 193 222 217 210 213 214 212 219 214 199 200 209 192 184 183 180 174 166 168 168 167 163 158 161 162 148 153 159 150 149 157 168 178 197 205 211 223 228 232 238 239 240 241 242 241 240 242 243 243 242 242 241 241 240 239 237 237 236 235 235 234 234 233 231
 170 168 166 166 167 165 167 165 164 163 162 164 163 163 165 164 164 165 164 163 163 167 173 169 174 177 169 170 204 214 210 201 215 211 207 207 208 216 220 207 199 201 194 182 177 177 167 163 153 145 151 151 151 151 146 137 136 136 139 156 169 179 189 195 219 224 227 234 239 240 241 240 241 242 242 243 243 241 242 241 241 241 239 239 239 237 237 235 234 234 233 231
 170 168 165 164 165 161 164 165 165 164 164 165 164 164 165 163 164 166 164 164 165 179 188 196 170 153 160 179 193 177 189 200 198 211 216 221 218 220 203 197 191 197 177 165 163 162 154 147 142 143 148 148 147 149 153 145 144 143 148 162 153 151 174 189 193 212 223 225 234 240 241 242 241 242 242 242 242 242 241 241 241 241 240 239 239 237 236 234 235 235 233 231
 168 168 166 167 166 165 164 163 164 164 164 164 165 163 165 163 166 166 161 165 198 220 196 167 153 150 144 145 165 177 178 198 201 204 214 207 195 192 186 181 181 172 153 159 157 152 144 138 140 135 137 139 140 140 142 137 135 138 137 133 130 140 160 162 164 189 215 216 220 234 241 241 241 242 243 242 242 243 242 242 241 241 241 239 239 237 236 235 235 235 232 232
 164 167 167 165 166 166 163 163 164 164 163 164 162 162 165 165 164 159 181 220 228 188 145 131 152 153 149 157 181 196 193 201 199 197 194 160 164 169 175 165 175 154 152 155 149 135 132 131 127 127 120 120 119 118 122 130 130 133 135 128 126 133 120 118 160 154 176 205 221 227 234 241 241 240 241 242 242 242 242 242 241 241 241 239 239 238 236 235 235 235 232 232
 166 169 168 163 163 162 164 165 162 162 163 163 164 163 164 163 161 189 232 236 211 184 163 165 167 168 180 188 202 210 207 204 198 194 175 150 163 160 152 155 155 149 145 135 136 137 136 130 123 123 122 117 116 114 120 125 123 129 125 124 122 114 104 108 134 126 148 170 199 218 226 227 239 240 242 242 242 240 242 242 241 241 241 239 240 239 236 237 236 235 234 232
 169 170 165 162 163 164 163 163 162 163 165 162 162 162 162 166 178 223 233 215 200 190 201 203 204 213 217 219 216 211 220 217 200 192 184 156 160 146 154 161 168 155 145 149 151 150 150 140 120 109 110 113 114 117 121 120 124 125 124 128 129 126 118 113 125  97  99 144 177 187 208 218 230 242 241 242 242 241 242 242 241 241 241 239 239 239 237 237 236 235 234 232
 168 168 162 162 164 163 162 163 163 161 162 162 161 162 162 171 208 226 209 189 192 215 222 209 195 195 216 230 226 219 221 219 213 196 193 167 155 147 157 162 159 159 171 166 161 155 148 140 132 121 118 121 123 126 129 127 121 123 125 129 136 136 128 131 125 112  95  72 117 162 184 206 217 234 246 243 243 242 242 241 241 241 241 240 239 239 237 237 237 235 234 232
 166 168 165 166 164 162 162 162 161 161 159 161 160 160 165 200 221 211 187 203 213 181 168 173 197 217 226 231 233 233 234 230 226 212 197 183 169 153 155 154 162 161 158 162 162 163 160 152 141 138 132 130 131 133 130 131 133 117 118 130 137 143 146 140 140 116 106  93  78 112 146 173 199 212 233 243 242 242 242 241 241 241 241 241 240 239 237 238 237 235 234 232
 168 166 165 165 162 159 163 163 160 163 162 160 160 162 188 207 210 197 196 177 129 133 170 200 224 232 235 233 232 233 232 235 228 215 208 199 189 178 165 158 164 168 171 172 170 176 172 166 160 151 146 145 140 142 144 135 133 132 121 119 129 134 150 165 160 150 132 113  95  96 120 146 157 195 213 236 243 241 242 240 241 241 241 241 241 239 237 238 237 235 234 232
 167 166 164 163 161 161 160 160 161 162 160 161 158 173 202 207 202 200 188 145 140 182 209 220 232 237 236 237 240 240 234 234 230 224 217 212 204 203 189 177 177 180 178 182 180 177 176 173 166 162 161 156 152 150 147 146 136 131 130 130 137 150 162 170 174 171 163 144 113 101 110 139 161 136 179 219 241 242 241 241 241 241 241 240 240 239 238 237 237 235 234 232
 165 164 162 160 161 161 160 159 159 161 162 159 161 189 202 208 222 199 147 131 170 217 224 239 244 242 241 239 241 237 237 237 230 226 221 218 206 207 204 195 192 193 190 186 180 175 172 174 171 165 159 157 156 155 149 148 149 144 147 149 153 163 174 173 175 180 178 174 155 122 100 120 163 180 140 168 227 243 240 240 241 241 240 239 239 239 238 237 237 235 234 232
 165 164 163 164 163 161 161 160 159 159 159 157 175 198 214 226 210 163 148 173 210 229 240 242 241 239 240 241 238 236 239 236 229 220 217 214 209 207 208 203 196 197 191 187 177 169 168 167 163 158 159 156 156 152 148 150 153 153 153 157 163 166 172 178 178 180 183 182 184 166 117  83 118 181 199 163 171 233 243 239 240 241 239 239 240 239 237 237 238 235 234 232
 165 164 163 164 162 161 160 160 159 158 155 160 194 212 226 209 184 175 180 205 226 238 245 242 239 241 244 244 239 238 238 234 228 221 218 212 214 210 209 204 197 195 187 182 175 168 167 167 163 161 161 156 154 157 152 153 157 157 159 162 163 166 166 173 179 181 187 184 187 187 155  94  64  91 171 203 159 192 240 241 239 239 241 239 239 237 237 237 237 236 234 232
 165 166 163 161 159 161 160 158 160 159 157 177 200 211 203 207 207 185 195 216 237 246 243 243 244 247 246 243 241 239 236 230 224 218 216 208 207 207 203 196 195 188 182 178 173 172 170 167 164 162 161 157 156 157 158 159 157 157 161 162 165 166 166 172 174 178 186 185 186 191 173 133  91  51  73 172 201 168 204 240 241 240 239 239 239 240 237 237 235 235 234 232
 166 164 162 160 160 160 159 158 160 158 167 183 191 191 198 222 203 196 216 234 245 246 245 245 246 244 244 243 240 237 238 231 223 215 209 201 202 198 193 187 191 186 180 175 173 173 168 165 164 162 161 158 158 159 163 160 155 152 154 153 157 165 168 172 177 173 183 184 188 197 187 141 112  86  51  89 190 196 180 226 242 241 239 239 239 238 237 236 235 235 233 231
 162 162 161 160 160 158 157 158 162 156 169 180 189 205 233 217 198 212 233 246 247 244 244 243 244 245 244 241 234 233 238 229 216 209 204 195 195 189 185 183 185 184 177 169 172 170 167 166 163 163 160 156 156 162 161 157 154 150 154 158 155 158 160 167 178 175 179 182 184 201 197 158 123  98  67  82 146 202 184 206 241 239 239 239 239 237 236 235 235 235 233 231
 164 163 159 158 158 160 159 155 162 181 200 197 191 227 221 194 188 216 243 250 249 244 244 245 245 246 242 235 231 232 233 226 212 202 196 188 182 186 185 180 179 176 173 168 169 167 166 164 168 164 159 157 157 160 161 159 156 151 153 161 155 158 163 163 178 183 173 175 180 201 202 173 136 115  87  74 121 173 178 184 236 240 238 239 239 237 235 235 235 234 233 231
 164 162 160 158 159 160 157 157 174 195 204 202 217 220 205 194 202 231 243 250 249 239 242 246 244 241 237 233 234 232 228 220 207 198 192 183 175 183 182 177 176 174 170 171 169 165 163 161 165 165 158 158 156 157 160 160 158 154 153 154 155 158 161 158 169 186 174 171 180 195 202 183 143 121 112  92 106 158 168 160 213 243 237 239 239 236 235 235 235 234 232 230
 163 162 160 159 161 157 156 159 162 189 208 213 220 216 204 201 222 238 245 251 248 240 244 245 240 239 234 226 227 233 229 218 208 197 185 178 174 173 172 169 172 165 164 166 167 163 159 156 162 160 157 155 155 153 156 157 158 152 150 152 150 155 155 154 163 178 178 174 177 194 202 185 158 130 107  97  99 140 163 150 187 244 237 238 238 235 235 235 235 234 232 230
 161 160 161 159 157 156 156 156 194 218 207 219 220 208 207 225 232 237 246 254 250 243 246 246 243 232 228 230 236 234 228 218 202 182 169 165 164 162 166 166 169 165 165 167 167 161 157 152 155 158 152 147 150 155 159 158 156 149 148 151 150 152 153 159 162 173 176 176 174 188 201 189 155 132 121 100  96 117 160 158 193 232 239 237 237 235 235 234 233 233 232 230
 161 162 162 158 157 156 148 180 219 222 224 231 216 204 212 221 230 241 249 253 252 244 244 239 231 234 242 243 238 229 224 207 190 180 175 172 169 166 166 169 172 165 163 168 165 157 154 149 151 151 151 151 153 156 158 154 152 149 150 150 149 151 151 156 158 161 165 169 171 186 198 190 162 133 120 118 112 109 144 157 201 230 239 236 236 234 234 233 233 232 230 229
 163 160 159 157 156 153 159 199 233 231 231 217 204 195 210 227 237 241 247 253 251 242 236 239 245 245 242 238 233 223 208 197 200 196 183 175 172 168 159 160 164 162 164 164 160 153 150 148 149 153 152 149 149 152 151 152 155 155 152 155 157 154 157 157 161 161 163 165 167 178 193 186 161 134 127 112 124 132 143 146 196 240 236 235 235 233 232 232 231 231 230 228
 162 159 157 155 154 153 168 226 232 234 230 216 212 211 224 231 233 238 248 251 250 242 244 246 247 247 230 223 220 210 203 199 207 193 179 175 172 169 162 158 160 163 163 158 158 160 158 155 149 151 152 149 149 153 156 155 153 153 154 157 160 159 158 156 158 161 161 165 167 168 177 179 162 127 109 124 132 148 145 151 163 235 237 234 233 231 230 230 230 231 229 228
 163 158 156 156 153 161 197 222 241 242 225 221 219 217 222 226 234 243 246 250 251 250 245 243 240 222 209 223 217 214 210 194 198 191 172 163 155 150 147 145 149 148 150 154 157 163 170 161 148 150 156 157 151 152 156 151 147 147 147 145 146 147 151 154 156 161 162 167 170 173 169 165 157 133 114 122 146 164 156 151 184 238 237 234 233 230 229 229 229 229 229 226
 160 159 157 154 155 165 192 204 193 198 209 199 209 220 227 231 237 242 244 250 251 250 243 235 229 228 233 231 226 220 208 187 193 188 174 165 168 168 163 159 153 148 144 144 152 161 164 160 152 152 150 145 146 150 151 150 151 155 154 151 151 150 150 148 149 150 157 163 167 172 168 160 149 130 116 118 142 166 169 155 198 238 234 232 232 230 229 228 228 228 227 226
 161 159 156 154 153 154 176 186 167 180 208 226 230 220 230 235 236 240 249 251 250 245 236 237 240 239 227 223 230 225 206 184 189 193 184 178 174 166 162 162 159 159 163 156 142 143 146 147 146 146 144 143 150 156 156 154 151 144 140 138 141 150 153 153 154 156 161 163 161 167 170 162 146 129 119 122 133 156 166 155 183 230 231 230 230 228 228 228 227 227 225 225
 162 158 156 156 152 153 168 156 224 195 205 236 224 224 237 236 240 244 247 247 247 241 242 235 237 238 217 220 232 223 208 195 185 174 167 166 167 163 157 160 158 160 161 161 152 144 153 162 159 156 153 152 149 149 139 127 122 131 136 134 140 144 146 148 153 156 167 171 168 165 169 167 154 135 119 121 123 156 164 151 156 218 232 226 227 228 227 226 226 226 225 224
 158 155 155 152 152 151 137 180 165 191 237 226 217 237 237 240 249 242 240 241 240 242 243 236 232 223 223 231 225 209 189 169 159 153 152 160 161 156 147 146 149 155 162 159 156 153 154 158 152 144 138 127 116 121 124 138 149 158 155 150 152 151 153 154 156 160 167 172 174 172 168 169 160 140 112 102 109 148 170 131 152 216 233 225 227 228 226 225 225 225 224 223
 158 156 155 154 156 151 135 155 113 198 222 218 235 231 237 249 240 237 238 239 239 242 242 231 225 237 238 214 195 194 201 201 198 182 168 163 164 156 149 141 135 133 138 141 146 145 140 135 136 135 131 131 137 153 162 165 159 156 154 154 154 156 155 153 150 160 169 164 171 174 169 167 157 143 121 109 128 147 158 112 152 215 226 221 227 226 225 225 225 225 224 223
 162 155 153 155 153 150 145 129 131 214 194 226 235 238 244 236 234 239 238 235 237 242 239 231 237 239 216 201 212 220 227 213 208 196 188 177 176 171 167 162 157 156 153 145 143 148 158 159 161 160 151 146 158 160 160 160 157 156 156 158 156 155 161 160 154 153 165 169 162 170 172 168 159 142 118  96 122 173 149 124 146 211 223 224 227 225 225 225 224 224 223 223
 158 154 153 152 150 150 148 133 181 199 208 222 237 243 229 233 236 236 238 235 235 238 242 237 232 224 220 220 220 217 219 213 213 197 193 185 173 175 170 165 151 149 167 163 153 152 159 163 158 155 151 147 160 166 167 164 160 163 166 164 162 157 150 155 156 157 163 176 172 163 173 173 166 153 117  74 102 163 164 134 149 169 226 230 229 227 225 224 225 224 223 222
 155 155 153 152 151 149 151 143 194 200 201 217 243 223 227 237 233 234 235 235 233 234 242 241 224 223 229 219 216 216 224 221 197 187 187 173 159 161 169 169 169 159 152 160 160 147 141 144 149 152 151 159 168 168 164 168 165 160 156 158 161 164 157 155 155 151 154 168 181 181 171 176 174 163 128  64  84 150 173 122 138 162 214 233 228 226 225 225 225 223 223 222
 153 152 153 152 149 149 148 168 193 195 210 235 201 208 233 228 239 235 230 231 230 237 244 237 224 232 228 224 222 225 218 206 185 190 196 183 173 165 172 164 167 176 166 158 157 168 165 158 161 165 165 169 168 162 165 165 165 164 166 163 165 163 160 163 167 161 155 157 169 183 186 178 179 170 136  67  72 136 166 101  81 155 214 231 227 225 225 225 224 222 223 223
 150 152 150 149 147 151 148 174 203 217 220 182 166 212 230 236 236 225 225 226 228 236 241 232 239 230 231 235 225 213 218 219 201 210 218 197 180 170 166 168 166 171 168 162 159 172 169 165 163 168 167 167 167 166 161 157 159 172 171 163 163 160 167 169 168 160 152 162 163 164 185 188 185 178 144  78  67 137 148 124  95 119 197 230 232 224 225 224 224 223 223 223
 155 154 149 148 148 146 145 181 185 172 178 160 186 227 234 230 225 221 220 224 226 239 238 243 240 231 228 229 226 222 235 217 214 220 208 193 178 162 148 160 168 165 168 164 160 167 171 166 160 164 166 166 167 161 161 160 160 159 157 166 165 165 171 172 163 159 163 171 175 167 173 195 194 183 154  88  78 134 128  93 104 138 170 200 229 229 225 225 226 225 224 223
 153 149 149 148 147 149 154 160 160 171 183 168 206 237 228 223 218 218 214 219 229 243 247 249 234 233 233 235 236 236 225 213 222 220 192 169 167 156 157 163 165 163 165 166 163 165 169 167 163 163 166 166 164 159 158 162 155 135 150 169 162 163 164 155 162 166 168 171 173 182 181 190 197 188 161 104  94 124 105  88 103 128 150 163 214 234 226 226 226 226 225 224
 148 149 148 148 148 143 159 175 176 187 145 177 216 223 221 204 204 209 212 224 239 249 250 243 237 235 227 229 227 231 228 220 212 195 174 159 157 155 158 160 164 162 169 172 165 160 164 164 163 159 165 168 165 156 157 154 146 129 137 148 145 151 145 150 160 153 154 156 163 178 183 189 201 193 170 109  89 110 108 110 112 115 118 147 214 230 227 227 226 226 224 225
 151 148 148 147 146 146 156 177 165 143 163 200 209 213 196 181 188 196 216 230 242 250 247 244 238 227 230 226 227 225 212 198 185 160 149 151 153 157 165 162 168 167 170 174 165 156 162 163 160 148 158 162 163 156 150 145 145 138 134 136 143 148 148 149 149 153 153 153 153 159 177 185 200 197 186 124  97 125 102 106 119 106 125 174 222 228 227 227 226 226 225 225
 147 148 148 147 146 144 142 166 181 161 194 195 200 194 168 170 169 199 225 234 244 249 247 247 234 220 219 204 196 193 182 169 158 149 156 159 161 167 168 166 168 166 168 174 169 156 163 162 157 143 154 163 158 152 150 151 152 146 145 141 141 143 146 145 149 151 153 157 153 161 177 186 197 194 201 168 111  96 100 122 128 121 151 215 231 227 226 227 227 227 226 225
 146 148 145 143 145 157 145 163 200 217 212 196 185 156 157 136 162 206 234 239 244 247 245 235 217 204 194 186 192 179 172 161 157 157 161 160 158 163 168 165 167 166 165 170 173 163 166 162 153 148 161 162 152 148 149 145 137 136 139 140 146 150 145 144 148 155 153 158 156 161 168 176 195 200 206 188 125 108 137 146 121 129 190 234 227 226 226 227 227 227 226 225
 146 145 142 144 154 159 141 153 171 193 190 178 155 143 126 123 166 211 241 244 245 247 244 227 203 184 186 192 186 179 169 161 158 152 145 143 144 140 138 145 144 146 151 156 176 174 168 162 153 155 160 152 141 132 125 120 132 146 145 132 122 126 118 126 127 155 168 165 163 163 163 168 184 206 209 201 155 113 138 128 111 147 223 231 228 227 227 227 227 227 225 225
 146 146 142 142 152 156 138 128 172 192 179 172 164 137 106 125 181 223 246 245 245 247 246 223 198 198 200 202 195 181 174 168 152 146 148 140 140 135 124 114 113 115 128 143 164 180 171 165 154 153 150 138 118  99 100 117 129 115  89  53  60  48  55  49 108 113 121 156 180 172 162 167 172 201 211 209 177 132 125 143 130 136 233 231 229 227 227 228 227 227 225 225
 145 143 140 142 139 139 137 132 127 182 203 189 163 147 130 134 194 236 248 245 244 246 247 226 204 209 207 212 206 192 182 165 157 147 133 133 126 121 116 104  95  94 102 127 155 185 177 163 148 148 142 123  98  82  93 109  76  65  84  41  76  73  84  75 142  85  43  98 150 177 164 157 169 193 208 215 187 140 131 166 147 120 226 232 230 228 228 228 227 227 225 225
 143 142 141 142 141 137 137 139 118 113 176 187 159 153 145 158 209 243 248 244 244 245 240 226 217 216 225 226 202 186 152 103  84  67  66  86 105 103 107 100  80  88 103 116 147 187 179 165 146 142 140 114  81  83  94  49  41  64  89  57  56  72  69 107 117 103 121 110  99 131 157 162 165 184 209 221 192 150 148 152 147 127 223 232 230 229 228 228 228 227 226 225
 141 139 139 143 140 136 133 135 130 100 131 183 179 186 159 179 226 245 247 243 247 248 230 216 228 229 223 193 141 139  98  61  65  68  74  86 104  63  72  78  94 105 111 122 150 189 184 166 149 143 140 120  91 113 106  82  84  94 109 127 123 117 124 133 142 159 158 140 132 129 138 157 163 177 204 219 208 149 141 145 154 143 223 233 231 229 228 228 227 227 226 225
 140 139 140 140 135 136 124 129 133 125 164 170 167 201 192 182 227 248 246 244 245 239 222 215 229 228 196 119  54 109 142  85  73  92  64  90 105  80  62  72 106 127 124 139 164 191 187 166 153 144 141 134 110 107 115 109  94  93 114 130 142 156 159 156 155 154 147 158 166 162 150 151 157 178 202 216 219 148 116 138 148 154 224 231 230 229 228 228 229 227 226 225
 143 139 138 135 134 133 128 127 129 127 173 163 180 199 204 194 229 248 246 243 244 238 219 199 206 181 120 155 186 170 166 134 120 121 128 128 116 103  98 113 119 117 139 160 178 203 195 175 159 148 144 141 122 109 106 111 106 103 113 131 141 148 145 133 133 144 150 158 162 157 158 155 159 176 197 208 216 160  97 122 134 158 225 231 229 229 228 228 227 226 226 225
 144 139 135 132 133 126 130 128 127 127 173 166 211 212 185 189 233 250 244 240 242 233 212 192 179 179 203 220 233 227 202 188 179 164 156 130 108  97 106 115 115 132 158 172 191 208 198 176 163 152 148 145 129 124 116 113 118 116 118 129 137 144 147 149 155 154 156 156 155 155 152 156 166 180 189 205 212 181  96 110 137 157 226 230 228 227 227 227 226 226 224 223
 141 138 137 134 129 121 127 129 127 123 156 175 210 210 180 180 227 248 244 245 246 242 219 190 195 229 238 228 212 212 205 193 176 167 151 127 120 115 123 119 133 156 171 184 204 216 205 181 166 152 152 148 140 134 137 127 121 120 122 137 142 146 147 150 151 150 159 162 156 152 153 158 160 172 193 210 208 181 127  89 139 155 223 231 226 225 226 226 226 225 224 224
 140 140 138 132 130 128 128 127 125 122 139 185 211 200 180 179 208 247 242 243 243 238 222 216 222 220 226 224 215 197 186 172 161 148 138 131 129 132 132 133 161 176 185 199 211 220 210 187 167 150 148 146 146 143 141 141 137 130 124 132 140 148 149 150 153 150 153 153 153 151 146 153 167 174 190 214 198 177 153  98 148 146 218 230 228 225 225 225 226 225 224 223
 141 136 134 132 130 129 126 124 124 125 128 186 216 193 162 174 196 243 243 245 244 243 236 224 217 226 217 192 191 190 174 158 156 151 154 151 141 138 145 170 187 190 202 210 217 221 212 193 171 149 147 147 147 147 141 142 143 144 134 129 136 142 141 141 144 146 148 149 147 150 153 156 162 178 193 213 190 169 172 159 145 138 220 228 226 225 225 226 224 224 224 223
 139 135 135 134 131 127 126 124 124 124 120 187 224 189 152 203 202 232 243 242 244 240 227 230 233 205 194 199 192 187 182 174 167 162 158 149 143 155 171 183 195 197 208 213 219 222 214 197 173 153 144 149 148 148 145 142 141 143 147 140 135 132 136 138 137 141 145 145 149 153 153 158 166 169 196 211 183 173 167 172 132 145 215 227 222 225 225 225 224 223 223 223
 140 137 134 130 126 125 126 124 125 121 119 180 230 184 153 222 204 215 243 243 239 233 238 236 209 208 203 191 183 183 178 164 160 156 156 151 161 174 169 183 203 204 212 217 223 224 218 201 176 152 143 145 148 150 144 142 142 141 141 144 144 135 135 136 137 140 143 148 149 155 159 154 159 165 196 209 181 169 139 162 130 158 219 226 226 224 225 225 224 224 223 222
 140 137 132 126 124 124 123 123 123 123 117 164 232 173 144 225 219 201 239 243 237 243 242 222 230 217 207 199 199 186 174 164 161 161 166 169 176 171 166 181 206 210 216 222 226 225 219 202 172 153 143 144 149 152 151 146 142 138 136 140 141 139 137 137 139 138 141 146 149 153 156 158 157 169 194 200 177 173 158 170 143 184 232 225 227 225 225 225 225 224 222 221
 135 132 129 126 124 123 123 122 120 121 116 147 229 182 138 219 225 197 224 242 241 245 235 229 225 208 212 205 199 182 175 173 171 174 169 172 166 162 173 188 208 210 213 227 230 229 217 197 175 160 143 148 156 150 147 146 142 137 135 135 138 142 140 138 139 141 144 148 151 155 156 154 159 171 191 196 165 162 169 176 155 209 230 225 224 225 225 225 224 222 221 221
 134 132 131 124 122 123 125 119 119 121 115 138 223 221 188 215 220 211 215 239 239 240 232 225 218 214 212 204 197 188 185 183 178 176 169 164 163 164 180 195 206 201 215 227 233 228 217 202 184 156 143 147 155 147 141 144 144 135 132 134 134 136 141 139 142 141 144 147 149 154 157 158 162 176 189 191 148 151 166 171 152 216 228 225 224 225 224 223 222 220 219 219
 132 131 128 123 123 123 123 119 118 116 113 128 208 228 235 205 214 209 215 228 237 235 228 230 227 219 215 210 203 193 187 179 173 167 166 165 162 170 181 191 186 194 223 229 229 221 227 211 180 155 146 145 152 147 139 142 142 139 135 133 131 134 139 144 145 145 146 146 150 154 157 166 168 177 183 180 144 155 162 164 162 220 226 225 223 223 222 222 221 219 217 217
 132 130 127 127 123 119 120 120 120 118 115 116 201 217 230 218 228 200 214 220 237 225 227 237 232 223 216 213 203 195 183 177 176 164 162 165 163 171 176 173 158 205 233 235 230 231 231 194 167 157 147 144 153 158 149 150 142 142 136 135 137 135 137 140 144 148 150 149 151 156 162 166 172 172 190 177 147 157 160 161 201 228 223 223 223 221 221 220 219 217 215 214
 133 128 128 124 120 119 122 119 116 114 113 114 185 227 230 234 224 194 205 211 234 222 233 235 227 221 217 214 204 193 183 180 176 168 168 164 163 162 162 151 148 225 240 234 238 242 210 170 156 152 150 147 154 164 161 158 147 140 142 141 140 140 137 140 141 150 154 149 153 154 159 164 173 169 184 176 141 156 164 193 226 223 222 223 223 220 220 218 217 215 213 213
 129 128 125 121 118 119 118 116 114 113 111 116 155 236 233 224 211 202 199 210 226 229 234 229 228 226 222 213 200 192 187 182 174 171 166 163 160 155 149 134 161 233 229 225 229 223 191 159 151 144 151 152 151 159 168 163 154 135 135 140 142 140 141 147 147 152 152 149 151 157 161 163 174 171 175 194 159 149 190 225 222 221 221 220 219 218 217 218 215 213 211 211
 134 130 125 120 121 118 114 114 114 113 112 109 139 228 233 221 226 214 190 212 223 225 231 231 235 227 221 204 195 191 182 174 170 166 166 159 154 147 133 130 155 212 198 195 216 218 204 165 154 152 157 154 159 152 130 159 143 131 134 131 136 143 145 149 152 151 155 151 154 161 159 159 167 172 177 202 216 207 221 221 219 220 218 218 216 215 214 214 213 211 209 208
 131 127 126 123 121 117 116 113 113 113 110 118 126 210 234 226 233 206 171 201 222 229 236 232 230 225 218 198 195 190 184 174 172 166 167 152 142 132 132 141 139 172 153  99 117 177 204 178 158 149 152 155 135  80  93 131 113 124 132 131 130 137 141 146 148 149 151 155 156 158 156 159 169 176 167 200 220 223 219 217 217 217 216 215 215 213 213 212 210 209 207 206
 127 128 126 122 118 114 111 111 112 112 109 114 105 179 237 233 227 192 140 162 217 225 229 225 225 224 216 202 194 189 183 179 173 167 161 149 132 129 138 144 150 148 149 125 108 122 169 190 158 149 154 144  97  75  88  89 111 119 126 122 133 131 134 143 147 153 151 154 156 155 158 162 162 154 166 190 214 215 214 213 214 215 215 214 214 212 212 211 209 208 205 204
 126 124 123 122 116 114 112 112 110 109 111 110 105 124 215 228 206 173 130 132 216 226 223 226 226 222 206 202 192 191 187 179 168 162 150 138 126 131 128 144 164 146 143 148 150 148 152 182 175 166 160 142 124 107  93  95 115 122 116 117 119 130 136 139 147 153 155 154 156 160 157 148 144 141 163 199 216 215 214 213 213 213 213 213 213 212 211 210 208 206 204 203
 126 126 124 118 116 113 111 112 110 110 111 110 112 105 131 174 172 155 135 147 212 223 225 217 223 213 196 200 197 194 189 176 164 154 149 137 133 137 140 158 148 145 154 148 151 144 141 142 145 141 138 132 110 113 102 104 114 112 108 111 120 123 128 131 130 146 146 152 154 157 146 133 146 144 165 197 213 213 211 211 211 211 211 211 211 211 210 208 207 205 203 201
 128 126 119 119 118 114 111 110 109 108 105 107 110 110 105 117 136 141 131 122 203 225 216 210 212 203 193 198 195 187 180 174 164 148 134 134 139 159 149 145 143 141 149 148 152 143 124 115 100 104 107 109 105  95  91  95 106 107 119 119 115 116 119 121 122 128 140 148 150 143 135 136 148 150 160 196 212 210 210 210 210 210 210 210 210 210 209 207 206 204 201 200
 125 120 120 118 115 113 112 109 109 105 104 107 105 105 108 124 148 134 125 113 192 226 217 210 196 193 197 192 181 186 188 172 151 134 127 143 154 156 159 155 141 139 148 144 141 130 126 109  98  85 101  99 104  96  93  89  96 103 109 121 119 119 118 117 113 112 123 134 133 145 132 126 134 153 160 190 209 208 208 208 208 208 208 208 208 208 207 205 204 201 198 197
 125 122 119 117 116 111 110 109 110 106 104 104 106 108 106 116 142 119 103  96 177 219 217 197 193 181 189 192 174 190 191 165 135 127 148 158 157 164 159 163 147 149 146 148 133 127 119 110  95  83  97 104 113 103  99 101 104 102  97 113 122 120 126 131 119 107 101 122 132 135 129 123 142 157 159 193 208 207 206 206 206 207 209 209 207 207 205 203 201 199 197 195
 126 123 116 118 113 110 111 110 106 105 103 104 105 106 103 110 124 120 124 118 167 207 214 203 191 168 184 182 182 201 194 157 132 153 169 168 165 157 146 154 144 143 155 159 142 130 117 126 102 102 105 111 115 111  99 107 110 112 110 116 118 118 125 140 136 123 111 135 144 137 127 125 153 161 165 191 204 204 204 205 206 206 206 206 205 205 203 201 200 197 195 194
 125 123 119 115 112 110 110 108 107 105 103 102 102 103 105 111 111 114 110 110 148 204 211 216 186 157 175 183 191 208 176 135 152 190 172 180 150 143 152 154 139 144 150 151 140 132 123 116 103 105 121 118 123 108  98 113 117 124 125 124 130 118 130 130 135 125 106 122 136 135 131 135 148 159 165 189 204 202 202 204 205 205 206 206 205 205 203 201 198 196 194 193
 122 123 117 114 113 112 108 107 108 103 100 101 101 102 106 109 107 106 111 114 136 192 220 205 186 174 170 185 198 211 157 147 168 165 166 156 135 134 158 155 151 156 150 150 151 139 139 131 122 120 138 135 139 133 121 123 127 138 142 142 124 110 122 134 127 115 104 109 134 130 122 135 149 156 169 193 199 200 201 202 203 205 205 204 204 204 202 200 198 195 193 192
 125 121 116 111 110 112 108 106 105 100 101 102 102 102 110 109 109 113 112 112 136 192 220 213 205 180 172 169 203 192 158 156 172 165 157 142 133 142 162 174 174 169 145 149 141 142 146 136 139 145 142 132 136 136 137 134 129 123 123  99  76  88  97 110 112 103 108 120 141 131 125 130 147 162 162 190 199 198 198 201 202 204 204 205 204 202 201 199 197 195 192 191
 127 119 112 112 112 110 109 106 102 102 103 103 101 101 108 104 111 118 112 114 120 174 215 223 208 190 180 169 188 188 177 160 167 170 157 129 105 104  96 108 146 145 133 126 121 129 125 124 128 121 112 111 111  96  89  83  73  68  62  67 106 118 111 102 106 106 114 112 137 131 129 133 148 162 157 182 198 195 197 200 201 202 203 203 202 200 201 198 197 194 191 190
 122 117 115 112 109 107 107 104 104 104 102  99 100 101 104 100 110 119 111 105 121 167 201 215 199 188 180 171 177 196 197 174 162 139 132 109 100 115 110  86 101 124 116 102  87  84  89  83  69  48  54  74  72  63  65  75  88  98 100 121 138 131 121 119 111  97 109 109 127 129 138 121 146 153 164 192 195 195 197 199 201 201 202 203 202 200 200 198 197 194 191 190
 125 119 113 110 112 109 106 104 103 103 101 100  98  98 100 100 102 107 109 106 110 167 196 199 198 192 182 164 171 195 200 174 151 109 111 113 122 150 167 168 159 160 166 156 141 130 123 110 102  96 102 106 104 109 112 119 121 122 126 137 141 129 125 122 110  90  99 120 127 127 140 127 149 149 168 198 194 196 197 198 200 201 202 202 201 201 200 199 197 195 192 190
 123 117 112 111 109 108 102 103 102 101  99  99  97  96  97  98 100 102 106 109 116 145 197 208 198 208 197 170 168 183 205 168 145 117 121 126 139 158 175 188 188 186 185 174 167 160 142 134 126 120 118 120 116 121 121 120 126 133 142 141 138 129 123 127 115  96 114 128 125 118 131 141 151 144 174 196 195 196 198 200 200 201 202 202 202 201 201 199 198 195 192 191
 122 116 112 109 108 106 106 102  99  99  97  96  98  98  96 101  98  96 101  98 116 147 190 206 203 195 191 172 162 176 206 186 139 126 136 148 148 160 178 196 193 193 190 177 171 164 148 143 140 130 125 123 127 127 122 128 139 140 140 141 136 128 130 121 112  97 104 127 116 114 132 132 144 150 189 195 195 196 198 199 201 201 202 202 202 202 201 201 199 195 192 190
 120 116 114 108 110 104 101 100 102  98  97  97  97  96  97 100  96  99 102 101 100 138 192 204 204 195 197 177 169 177 202 193 154 144 137 147 153 171 174 181 193 200 189 169 169 160 152 142 148 149 140 128 125 126 127 130 133 139 137 138 125 113 121 123 130 125 112 110 112 106 121 131 131 165 194 192 195 196 198 199 201 201 202 202 202 203 203 200 199 195 192 190
 118 119 111 108 108 104 101  98  96  97  96  96  93  93  93  93  97  96  99 101 100 126 188 200 191 193 196 193 167 164 199 191 171 151 151 148 157 168 172 174 182 191 171 161 164 147 150 142 132 134 125 133 127 125 126 128 118 120 124 127 114 114 124 122 127 131 119 112 114 108 116 121 114 165 194 193 195 196 198 199 200 201 202 202 202 202 202 200 197 193 190 187
 120 114 107 106 104 101 101  98  96  94  94  94  95  94  92  93  96  97  98 100 103 122 182 202 186 186 194 195 170 160 167 183 176 161 172 157 157 160 165 167 174 187 161 153 158 151 135 130 127 127 118 124 131 125 112 129 122 121 121 116 110 116 129 134 138 129 107 102 119 116 118 126 152 185 189 192 194 195 198 199 201 200 201 202 202 202 201 199 196 192 189 186
 113 109 105 104 105 102 100  99  97  93  93  93  93  91  92  93  97  95  95  98 100 118 181 212 188 189 198 191 181 168 157 172 175 183 174 160 165 155 149 162 176 179 161 158 163 144 130 127 136 134 137 117 125 126 127 127 127 125 118 104 108 107 117 127 135 130 103 107 120 115 126 143 187 187 187 191 192 196 199 199 200 200 201 202 200 200 200 197 195 191 187 184
 112 108 106 107 105 100 100  97  97  93  90  91  92  89  89  91  93  94  99  95  73  72 165 212 204 175 162 168 181 179 160 161 164 181 170 182 184 174 165 158 146 163 165 158 157 151 136 129 131 130 125 125 129 127 131 128 125 118 106 103 112 101  99 130 125 110 101 114 106 114 132 151 180 185 187 191 193 194 198 199 201 201 201 201 201 201 200 197 194 190 186 184
 112 108 108 103 100 100  98  96  96  91  89  89  90  87  88  89  91  93  93  57  28  63 149 208 199 186 152 152 176 182 159 164 178 178 192 190 180 164 169 162 149 168 165 155 152 149 134 135 124 114 106 120 125 115 124 119 117 111  95 101 102 105 104 122 134 117 111 134 111 123 135 149 178 185 187 191 193 195 197 199 200 201 201 201 201 201 199 197 194 190 186 183
 111 110 108 100 101  96  94  95  94  92  89  89  89  88  88  89  95  93  73  39  17  65 123 203 197 194 188 153 163 169 164 171 185 198 200 191 186 185 178 166 152 165 166 158 151 144 139 124 117 113 107 109 115 114 115 121 108 103  88  91  93 100 117 123 139 137 123 132 123 121 126 134 187 189 187 191 193 196 198 200 201 201 201 201 201 200 199 197 194 189 186 183
 109 111 102  98  96  95  92  92  91  86  84  88  88  88  87  87  91  80  57  31  21  58 108 201 198 179 180 167 155 156 184 167 181 203 200 195 196 200 179 171 172 166 170 159 153 151 142 131 129 131 114 112 123 122 118 111 100  92  86  94 103  97 107 123 138 131 122 115 120 133 121 139 177 193 190 192 193 196 198 200 200 200 201 201 201 199 198 196 193 188 185 182
 109 109 101 102 100  95  94  92  87  87  86  88  87  85  86  88  80  70  53  29  24  54 100 197 196 183 179 175 173 163 175 178 183 203 196 194 190 195 194 197 177 157 167 175 158 154 141 131 137 135 128 123 116 115 115 113 106  93  97 115 120 124 112 123 140 140 119 124 126 120 121 148  69 102 197 196 193 195 198 200 200 200 201 201 201 199 197 197 192 188 184 182
 110 107 104 101  98  96  93  90  88  89  88  85  85  84  84  81  79  69  51  30  22  48  86 190 197 184 174 172 156 159 157 175 181 187 194 192 209 206 202 198 175 170 170 168 147 150 145 131 127 131 136 121 115 111 111 121 117 110 112 102 115 124 126 126 130 128 126 135 110 108 121 155  31   0  79 194 200 195 198 200 201 200 201 201 201 199 198 197 192 188 183 182
 108 104 104  99  96  94  89  87  88  89  86  83  83  81  78  79  83  73  56  35  14  24  83 188 205 186 184 167 157 149 159 164 187 184 191 193 207 212 210 193 201 194 175 161 142 141 135 125 125 125 130 118 131 122 122 125 112 124 111 107 116 118 142 138 125 136 126 112  97 109 129 144  25   0   0  66 194 203 197 200 201 201 201 201 201 199 197 196 192 189 184 182
 104 105 103  99  96  91  91  90  87  85  85  87  79  71  73  81  83  74  60  40  17   9  44 172 217 186 180 171 159 155 151 158 145 157 182 199 220 211 211 211 220 192 161 149 148 136 129 122 133 128 131 130 139 133 122 132 124 129 119 121 132 141 147 139 137 126 115  99  99 113 138 129  10   0   0   0  63 199 204 200 200 201 201 201 201 199 198 195 193 189 185 180
 107 102 101  97  96  92  90  88  85  85  85  83  73  71  76  82  84  78  66  47  24   7  12 147 224 197 172 178 160 146 139 138 145 146 149 178 211 211 207 202 199 189 163 140 159 143 131 127 127 125 130 139 131 134 127 120 133 140 125 120 121 154 159 134 132 119 110 110 108 118 147 129   5   0   0   0   0  78 208 204 200 201 201 201 201 199 198 194 192 188 185 180
 103 105  98  94  93  91  85  83  83  83  81  70  76  81  79  82  85  78  72  53  34  13   3 126 218 192 183 180 169 140 139 133 135 128 116 143 171 199 220 200 190 187 166 146 151 145 132 145 135 122 122 124 123 133 135 133 133 135 132 135 125 152 158 129 130 115 115 108 101 129 146 101   0   0   0   0   0   0  96 212 203 201 201 201 201 199 198 195 192 188 184 180
 105  98  92  91  92  89  85  85  83  83  73  66  79  79  81  84  81  82  78  58  40  20   2 106 214 189 176 170 170 151 144 131 115 120 115 126 138 153 203 215 204 183 191 158 146 132 116 147 144 125 114 105 118 119 133 136 129 137 141 140 162 154 134 134 119 107 103 110 112 123 145  82   0   0   0   0   0   0   0 124 216 202 201 201 201 199 198 195 193 188 183 180
 102  96  95  94  91  86  84  83  84  83  65  71  77  79  88  86  83  83  78  67  50  25   0  68 209 189 175 169 164 154 150 134 123 105 106 113 132 137 172 200 198 192 191 157 134 134 123 126 120 121 106 106 114 117 122 133 129 141 144 152 137 122 124 126 107 106 103 110 117 126 150  54   0   0   0   0   0   0   0   8 157 215 201 201 201 199 197 195 192 188 183 180
  99  97  94  92  86  84  83  81  86  74  62  76  78  87  88  82  79  81  82  76  57  30   4  25 189 194 185 176 168 140 134 142 135 107 108 107 116 128 149 158 177 188 182 168 155 142 131 123 119 112 117 131 120 122 131 132 119 136 149 125 122 133 132 112  94  98 105  98 115 121 139  41   0   0   0   0   0   0   0   0  26 185 210 201 201 200 198 196 193 188 182 179
  98  96  91  89  89  86  80  83  89  66  68  80  83  90  84  80  81  81  82  78  60  39  16   1 122 190 174 176 166 144 122 135 128 118 115 119 111 114 123 137 134 144 160 185 168 142 114 119 117 108 121 122 114 122 135 132 113 134 136 119 121 130 119 106  91  95  92  91 115 116 132  33   0   0   0   0   0   0   0   0   0  57 205 206 201 200 199 196 193 188 183 179
  97  94  92  92  89  86  79  84  79  66  76  84  89  86  80  81  84  84  83  78  65  44  28   0  34 156 171 172 163 147 129 123 120 119 120 106 102 110 112 118 132 137 128 134 145 137 138 113  98  89 100 100 101 111 129 122 117 131 125 112 126 128 115  97 100  97  96 102 109 123 124  20   0   0   0   0   0   0   0   0   0   0  92 215 203 200 199 196 193 188 183 178
  98  97  92  89  88  81  77  87  69  66  80  86  88  86  79  78  85  84  83  79  66  49  33   8   1  79 150 161 157 134 136 126 124 112 112 111  94 109 118 116 130 129 133 129 122 117 144 140 125 110 118 117 110 119 122 132 130 140 125 123 135 121 118 110 107 107 102  98 110 125 117  20   0   0   0   0   0   0   0   0   1   0   0 125 217 200 199 196 193 188 182 178
  97  93  86  85  83  80  79  87  65  79  92  91  84  86  91  89  86  86  81  77  66  49  40  13   0  28 106 138 140 136 131 121 130 118 103 123 111 102 117 113 105 122 130 129 124 132 129 146 157 137 126 123 114 125 123 127 139 139 135 132 130 119 123 114  99 100 107  97 107 117 114  20   0   0   0   0   0   0   0   0   0   0   1  11 167 214 199 196 193 188 182 178
  92  89  85  87  86  79  87  76  68  92  91  85  84  80  90  83  82  84  87  81  68  52  37  12   0   6  54 105 128 132 123 115 124 118 120 111 116 101 104 104 102 111 124 132 123 131 125 132 148 146 136 130 127 134 131 134 145 143 137 125 124 122 114  99 105 103 107 111 106 117 113  27   0   0   0   0   0   0   0   0   1   0   0   0  31 179 212 200 193 188 182 178
  97  91  88  89  81  81  91  69  86  93  85  86  85  85  83  84  84  89  91  89  71  50  33  14   0   2  24  70 104 109 126 123 120 114 123 118 106 102 109 102 107 117 133 126 117 117 114 115 136 147 140 142 131 129 133 140 150 144 130 124 119 126 114 108 106  97 110 104 109 111 109  48   8   0   0   0   0   0   0   0   1   0   0   0   0  43 158 178 188 186 181 179
