P2
# Generated by OpenCV 4.2.0
92 112
255
  48  49  50  48  47  48  47  47  46  47  43  48 114 168 174 170 165 163 160 157 154 151 150 146 140 135 131 129 127 123 118 112 107 102  96  90  85  78  69  64  58  52  47  44  41  41  40  40  40  40  39  39  38  38  39  38  39  38  39  38  38  37  37  38  38  40  46  62  85 110 133 151 166 177 184 189 193 197 183 106  29  39  94 132 129 118 110 104 100  93  86  81
  49  48  48  48  47  48  47  48  48  46  42  51 119 170 175 170 166 163 161 157 153 152 149 145 140 136 132 129 127 123 118 111 106 101  95  90  85  77  70  63  57  51  47  45  42  40  41  40  40  39  39  38  39  38  38  39  38  38  38  37  38  37  38  37  39  44  51  68  91 117 138 156 171 180 187 190 194 199 170  83  26  31  69 122 133 123 114 106 101  94  87  82
  47  48  48  48  48  48  47  48  47  46  41  53 123 171 175 170 165 163 162 160 155 152 149 145 140 135 133 130 128 123 118 112 106 101  94  88  84  77  69  63  56  49  45  44  42  38  44  41  38  41  40  38  37  39  38  38  38  39  38  38  38  39  38  38  41  46  59  78 103 125 145 161 175 183 189 191 195 195 149  56  27  30  43  96 132 129 118 110 103  93  87  83
  50  48  49  49  48  48  47  48  47  46  41  55 127 172 174 168 166 163 162 159 157 153 149 146 141 135 133 131 127 121 117 111 105  99  93  86  83  74  67  60  53  47  43  42  45  46  43  43  42  46  42  43  41  38  37  37  37  38  38  38  38  38  37  39  42  50  69  91 113 132 149 166 179 186 190 193 199 188 121  38  30  33  31  67 120 135 122 112 103  96  88  85
  48  49  48  48  48  47  46  47  47  46  40  56 130 173 174 170 167 163 163 160 156 152 149 145 141 136 133 131 126 122 117 110 105 100  92  84  80  71  63  56  52  47  48  55  66  70  58  58  67  64  60  61  60  55  50  46  37  35  37  38  38  37  37  39  45  56  78 102 123 140 156 171 183 187 191 195 199 178  92  29  32  35  30  42  95 132 127 115 106 100  93  86
  48  49  48  48  47  47  47  47  47  46  41  59 132 174 175 171 167 165 162 160 156 152 149 146 142 137 134 131 125 121 117 110 106 100  92  88  75  73  73  74  76  77  80  86  86  72  71  94  88  81  87 101 109  90  78  70  61  53  45  37  36  37  38  40  48  63  85 111 132 148 162 176 184 189 193 197 198 159  67  27  34  34  33  30  66 121 131 119 109 103  94  87
  49  48  48  48  48  49  47  47  47  47  41  60 134 174 174 171 169 165 162 160 157 153 149 145 140 137 134 129 126 120 116 111 105 101  93  86  92 105  99  85  83  90  90  82  74  93 106  94  80  88  96  94  94 101  95  86  77  68  59  48  40  36  36  42  51  67  92 118 139 156 168 180 186 191 193 199 193 134  44  29  34  34  33  31  42  96 133 125 114 106  96  88
  49  49  48  48  48  48  48  47  47  46  40  64 138 176 175 171 170 166 162 159 156 153 149 143 139 136 133 128 126 121 117 112 102  96  96 118 122 101  83  95 104  95  87  65  93 104  78  71  87 100  89  79  76  76  63  65  74  82  71  75  90  74  56  52  57  78 102 127 144 161 174 183 188 192 195 200 184 104  31  31  34  34  34  32  31  66 121 132 118 108  98  91
  49  48  49  48  48  47  47  47  47  46  40  66 142 177 175 172 171 166 163 160 155 152 148 144 140 136 133 129 125 122 117 111 102 111 121 124 113  96 102 113  90  72  74  81  86  75  92  93  90  96  76  80  91  91  96  95  80  77  78  81  89 109  77  66  69  86 115 136 151 166 178 186 190 194 197 199 168  78  27  33  34  35  34  33  30  42  97 131 125 111 101  95
  49  49  49  48  48  47  47  47  46  45  40  68 143 178 175 173 171 167 164 161 156 152 148 144 140 137 134 134 131 121 107  99  99 113 116 111 108 115 113  87  75  77  87  80  88 104  92  86 103  89  88  91  83  87  89  86  84  74  70  66  64 100  99  59  69  74  96 139 163 172 182 188 192 195 199 197 150  55  28  34  34  34  34  34  32  30  66 120 132 116 105  98
  49  49  49  49  49  48  48  48  47  45  40  71 147 179 177 173 171 168 165 160 156 153 150 145 141 145 144 124  96  93  99  99  89  97  98  95 117 118  99  88  85 100 104 101 103  86  88 107 110 109 102  82  81  78  65  63  60  58  55  49  48  52  88  66  50  72  84 101 156 182 186 190 193 197 200 192 124  37  30  34  35  35  35  34  33  29  41  95 131 123 109 102
  48  48  49  48  49  48  48  47  47  45  41  73 150 179 176 174 172 169 165 160 156 156 152 150 145 123  85  57  64 100 129  97  84  92  92 106 107 102 103 104 104 107 105  99  92  86 105 113 109  95 103 112  98  70  66  66  61  74  84  74  59  54  58  69  50  41  57  84 102 173 194 193 195 198 202 182  95  28  32  34  36  36  36  35  34  33  30  65 118 131 117 106
  49  48  49  48  48  48  47  47  47  45  40  75 151 179 177 174 173 169 166 162 159 162 163 139  75  30  38  74 104 134 123  90  79  79 101 106  99 108 106 106 109 114 105 102  91  92 107  98  87  93 116 114  85  89 101  90  93  92 100 112  93  82  74  73  79  70  49  40  47  98 174 196 197 198 200 167  71  28  34  35  36  36  35  36  36  34  30  40  91 129 124 114
  49  49  49  49  48  49  48  47  47  46  39  75 153 180 177 175 171 168 166 168 169 140  95  61  45  62  82 115 143 118 110  99  95  98 108 109 113 104 109 116 116 110  99  90  88  97  96  81  84 105 109 103 101 112 109  87  91  86  77  84  97  95  92  80  72  74  79  63  47  35  87 169 198 203 199 148  53  29  34  36  36  35  36  34  35  34  32  29  60 115 132 120
  49  49  48  49  49  48  48  47  46  45  40  78 154 180 177 174 172 170 171 156 105  45  25  55  90 110 122 129 128  96  93 114 121 115 113 117 112 109 109 100 109 105  87  96  99 102  91  83  91 105  98 114 108 111 105  85  78  75  71  68  76  85  90  97  91  77  65  66  57  43  31  83 178 208 196 126  38  31  35  35  36  36  36  35  35  34  33  31  37  85 127 127
  49  49  48  48  49  48  49  48  47  45  40  82 157 181 177 174 173 176 155  92  65  33  47  66 101 136 148 139 121 109 105 124 133 128 124 125 113 109  99  97 100  94  82  91  89 104  94  98  97  99  98 103  96 101  93  93  94 103 100  80  68  61  56  70  87  89  78  58  44  50  50  38  80 183 187 102  30  33  35  35  35  36  35  35  35  35  33  33  29  53 108 131
  49  50  49  48  48  48  48  48  47  45  40  85 161 182 177 176 177 179  83  46  42  50  72 108 120  99 114 135 136 131 126 141 148 144 139 130 121 108 101  91  94  87  90  88  95 103 106  98  99  89  97  93  98  96  96 104 126 118  98  89  94  95  80  74  80  94  94  75  58  52  43  46  36  97 162  82  31  34  36  36  35  35  35  34  35  35  35  34  31  32  76 123
  49  49  49  48  48  48  48  47  46  45  41  89 161 182 178 177 186 132  22  21  34  49  82 101  88 105 134 141 126 133 139 145 156 153 148 133 118 113  97  99  95  95  93  90 105 111 108 105 102  97 103  98  96  92  98 118 128 117 115 119 116 115 108  95  80  92 103 103  82  61  51  50  55  46  84  78  36  33  36  35  36  35  36  36  34  35  34  34  33  30  47 102
  49  49  48  48  48  48  48  47  47  44  41  91 164 183 179 183 163  52  22  26  39  47  65  81 107 118 119 133 133 139 149 148 155 158 152 136 127 119 101 107  94 105 103 105 117 120 108 102 102 111 115 107 103 105 113 129 121 134 148 131 121 120 121 115 107  91  84  83  86  81  69  65  61  53  47  60  51  39  34  36  35  36  36  36  35  34  35  34  33  32  32  76
  48  49  49  49  48  48  47  47  47  44  42  96 166 184 181 190 112  21  34  33  36  46  67 108 120 108 110 136 154 157 161 159 155 149 154 145 144 127 118 121  99 111 121 132 135 124 118 118 127 141 122 116 122 120 118 132 150 157 149 143 134 129 131 124 112 108  95  86  77  79  79  64  55  52  46  45  49  38  34  36  35  35  37  35  35  35  35  34  34  33  30  48
  48  48  49  49  48  48  48  47  48  44  43 100 169 184 182 186  56  20  40  36  40  50  89 125 119 125 144 155 161 168 175 172 168 154 156 156 158 144 135 142 125 122 135 157 146 139 145 150 161 152 138 132 140 132 135 151 174 161 155 155 149 151 150 137 122 120 124 106 100  77  74  72  57  45  48  50  51  41  37  35  35  36  35  35  35  35  34  34  34  34  33  34
  49  49  48  48  49  48  48  47  47  44  42 101 170 184 189 158  25  23  30  40  41  72 126 138 135 147 166 168 166 176 175 172 175 167 163 163 167 156 151 159 155 133 147 163 163 167 181 180 176 165 154 155 156 155 163 172 172 164 160 164 162 161 162 158 153 135 128 112  93  91  92  84  59  49  49  46  53  50  45  42  37  33  35  35  35  35  34  34  34  33  33  32
  49  48  50  50  48  48  48  47  46  44  43 104 172 185 196  96  22  32  35  37  51  90 129 134 147 157 165 165 171 176 178 177 181 179 168 173 172 167 169 178 173 157 166 175 173 185 191 190 188 184 174 172 173 173 177 178 178 173 175 176 174 173 174 169 164 157 143 132 127 106 107  88  65  51  35  41  38  33  31  34  36  34  35  35  35  35  34  34  34  34  34  33
  49  49  49  49  48  48  48  47  47  43  43 108 175 190 178  51  24  35  37  44  77 120 134 143 153 164 166 169 174 173 177 183 181 185 179 179 183 183 179 190 190 183 185 181 183 189 190 197 199 196 190 191 187 185 186 182 187 185 179 181 182 183 179 173 166 168 161 147 140 129 110 112  88  60  43  37  35  33  35  34  35  35  34  35  35  35  35  34  34  34  34  34
  49  49  49  49  48  47  47  48  46  44  45 111 177 199 129  32  33  37  34  58 103 110 126 156 162 169 169 169 174 176 176 181 182 181 182 184 186 187 184 189 194 195 193 193 194 195 198 202 202 197 195 192 191 188 189 185 185 188 182 178 179 180 181 179 171 165 166 167 146 146 129 116 119  98  62  45  36  35  38  39  34  36  35  34  35  36  35  34  35  34  34  34
  48  49  49  49  48  49  47  46  47  43  46 115 185 185  76  29  29  37  53  85  86 100 149 158 159 165 170 176 170 174 176 174 177 177 182 186 186 192 192 190 194 194 197 199 198 199 204 204 201 199 197 194 191 187 186 184 182 184 179 178 177 178 179 180 174 166 164 163 159 152 137 114 103 114  97  60  39  32  34  37  34  29  35  34  35  35  36  35  34  35  35  34
  48  49  49  49  48  49  49  47  46  44  47 120 189 100  44  32  33  45  65  67  67 114 142 155 159 161 168 170 168 172 174 172 176 178 180 185 191 194 190 189 193 194 199 201 202 207 210 207 202 199 194 194 192 189 189 186 184 180 182 179 176 179 178 176 174 164 164 162 164 157 142 112  98 100 111  77  46  35  32  32  39  31  35  35  35  36  35  35  34  35  35  34
  49  49  50  49  48  48  48  48  48  45  49 125 168  67  32  36  36  53  62  72  91 124 140 150 156 157 164 164 166 167 169 172 175 173 178 184 191 195 188 190 193 195 198 202 206 210 213 211 206 197 195 196 193 193 191 188 187 185 183 181 183 180 174 175 173 169 167 164 165 156 145 117  90  90 104  93  59  39  32  30  37  33  32  37  34  35  35  35  35  34  34  35
  50  49  50  50  48  48  49  49  47  44  49 132 123  59  48  39  48  62  75  86 109 123 135 148 158 158 161 163 166 169 168 169 174 175 178 187 188 190 192 192 193 198 200 199 208 210 212 212 204 201 198 197 193 192 195 188 188 185 183 179 178 177 173 170 174 169 167 164 160 156 145 117  80  63  73  91  78  56  46  30  26  37  36  37  38  36  35  35  35  35  35  34
  49  50  50  51  49  49  48  48  48  44  51 144  83  43  62  39  50  70  76  88 117 126 131 150 157 159 159 157 168 165 170 175 176 177 178 182 188 193 193 194 193 196 197 202 209 208 215 213 208 204 199 201 196 196 196 195 192 187 184 181 180 174 173 176 168 163 162 158 158 161 138 121  99  76  63  69  82  67  51  49  31  34  38  37  36  37  36  36  34  34  34  34
  49  49  49  50  49  50  48  48  48  45  53 135  89  79  42  44  70  71  70  87 116 126 135 153 155 154 154 155 166 169 172 178 179 178 183 185 187 194 193 193 193 197 198 201 205 206 213 213 212 207 200 200 198 200 204 194 189 190 187 187 183 182 174 174 172 167 165 159 160 163 137 120 108  87  63  53  59  66  60  48  39  37  38  35  34  35  35  35  34  34  34  34
  49  49  49  48  49  49  49  48  47  45  52 139  80  58  47  56  76  65  74  97 121 123 131 153 155 153 156 155 166 167 161 172 178 180 182 190 191 194 188 194 194 195 200 202 203 204 210 211 205 208 201 195 194 199 203 197 191 188 181 188 189 181 174 167 169 163 162 163 161 158 140 119 109  92  71  60  54  53  55  55  46  38  40  36  34  35  35  35  35  34  34  34
  50  49  49  49  49  49  48  49  48  44  56 135  76  39  54  70  77  74  78  95 113 122 133 149 154 154 153 154 167 164 163 173 181 184 183 192 201 199 198 192 195 194 197 200 200 201 204 201 198 201 198 192 194 198 201 202 197 191 187 188 189 182 173 168 165 161 159 160 163 158 136 116 106  87  75  73  78  76  56  50  46  39  37  37  34  35  35  35  34  34  34  34
  49  50  49  49  49  48  49  49  48  45  59 119  77  81  66  73  74  72  78  93 108 120 129 145 152 150 148 157 171 172 174 178 182 184 192 195 201 194 197 192 196 195 197 196 193 198 200 194 197 203 195 191 196 196 198 202 197 189 187 184 182 180 174 168 164 157 156 163 164 156 135 115 106  85  75  72  74  69  63  55  51  45  37  39  34  35  35  35  34  35  34  34
  50  49  49  49  49  48  48  49  48  44  58 124  99  93  78  72  60  67  82 102 116 124 129 150 150 152 151 161 168 168 175 175 179 187 189 194 200 196 198 199 198 197 201 195 193 201 202 194 195 204 200 193 195 199 198 197 196 188 183 179 178 176 171 171 172 160 152 162 162 148 135 122 100  76  61  60  54  50  58  60  49  52  50  37  34  34  35  34  35  35  34  34
  50  50  50  49  49  49  49  49  49  44  59 135  70  55  80  58  67  69  79 107 122 123 128 144 155 152 148 157 165 160 170 174 177 180 187 194 198 202 200 201 196 199 201 199 201 206 206 196 194 199 196 193 197 197 196 194 189 183 181 175 175 173 166 169 168 156 154 161 163 147 131 129 104  82  64  57  60  51  46  53  58  47  50  48  34  33  34  34  34  34  34  34
  50  51  50  49  50  49  49  49  48  45  67  99  40  42  83  85  75  69  81  98 114 124 128 139 150 147 141 151 154 150 163 171 181 179 181 187 197 201 203 201 199 198 200 197 199 194 200 198 194 197 196 193 192 194 198 199 194 187 183 180 181 176 173 169 160 151 156 159 159 144 131 127 108  82  66  57  60  60  47  42  53  54  45  52  40  33  34  34  34  34  34  34
  50  50  51  51  50  49  49  49  48  45  74  66  48  41  63  70  73  83  89  95 110 125 126 136 145 148 149 158 158 159 165 169 178 177 179 185 191 192 194 197 199 196 193 193 191 191 199 198 194 192 194 192 190 195 196 193 190 187 180 179 180 176 176 170 166 157 154 153 153 140 131 126 101  77  68  59  55  56  41  35  50  48  42  45  42  36  35  34  35  35  34  34
  50  51  52  51  49  49  49  49  49  46  74  75  44  42  60  77  77  75  83  92 103 124 126 132 144 150 153 158 160 157 160 165 174 178 178 182 190 187 184 188 188 189 184 181 186 183 187 200 190 187 195 192 192 197 194 187 182 180 176 169 167 170 169 165 165 157 158 158 152 143 133 118  93  80  67  58  56  52  47  35  40  47  39  45  43  39  34  34  34  34  34  33
  50  52  50  49  50  49  49  49  48  46  68  89  77  61  57  77  73  73  82  91  97 116 121 128 143 148 153 156 160 156 156 161 175 176 175 183 189 186 194 199 198 197 195 193 189 178 172 176 178 185 184 178 181 186 188 184 178 177 175 172 171 164 163 159 158 157 158 158 150 140 129 115  96  79  73  65  64  58  55  42  39  44  36  39  43  39  33  34  34  34  34  34
  50  50  51  50  50  49  49  49  49  51  53  44  86  86  72  69  77  70  80  89  95 113 121 126 140 146 150 154 162 162 158 160 173 177 180 178 176 176 177 177 188 194 196 195 191 180 172 172 173 178 181 180 181 192 193 186 184 183 180 181 181 176 176 168 164 161 159 154 149 137 126 117  96  78  65  59  52  56  51  47  36  45  39  40  44  35  33  35  35  34  34  34
  50  50  50  51  50  49  49  48  49  48  50  22  50  77  63  83  75  68  71  88  96 114 124 125 135 147 148 160 165 158 152 151 154 156 157 162 164 170 174 175 180 180 188 191 194 187 190 193 192 192 188 190 188 191 188 182 173 162 163 162 164 169 169 172 171 172 166 154 145 132 126 120 103  84  67  60  53  51  48  41  41  41  48  45  37  34  33  33  34  34  34  34
  51  51  50  50  50  49  50  48  49  46  51  41  49  55  76  70  69  76  76  88  96 109 125 125 134 150 149 151 159 155 155 156 161 167 176 177 165 163 169 177 180 179 182 187 190 187 185 185 185 178 176 170 163 166 161 155 161 174 177 177 178 172 168 170 169 169 162 154 143 130 128 123  95  75  61  50  50  56  53  32  38  38  36  40  34  40  40  37  35  35  34  34
  51  50  50  50  50  50  50  50  48  47  69  60  45  53  49  64  75  62  81  90  92 103 122 127 136 142 145 150 161 165 167 166 172 180 190 188 178 175 174 167 160 153 150 164 174 177 176 167 164 160 160 157 160 167 170 182 199 202 191 188 185 172 170 173 174 169 155 151 142 130 133 123  94  66  49  45  43  55  44  29  27  38  38  37  39  38  39  41  41  38  35  34
  52  50  51  50  50  51  50  52  55  63  69  62  50  45  44  80  48  56  70  79  90  95 113 128 135 137 146 156 157 160 162 163 169 183 185 191 195 189 198 205 201 188 173 167 159 169 179 184 190 190 188 192 192 199 203 207 203 196 186 186 185 170 169 171 169 164 150 143 139 132 129 122  99  67  53  38  35  50  47  28  25  29  47  49  51  40  32  33  33  34  34  34
  50  50  51  51  50  50  51  50  55  79  59  56  55  45  66  63  50  64  72  70  81  93 110 129 129 139 149 153 157 158 161 165 169 178 180 185 193 195 194 192 194 194 199 200 192 192 187 191 198 195 186 184 195 197 198 198 193 187 183 181 177 175 178 176 172 167 157 144 136 133 133 126  93  76  65  47  39  56  48  23  30  29  37  55  63  40  32  34  34  34  34  34
  50  50  51  51  50  51  51  52  51  86  76  56  52  60  80  70  67  68  63  60  92 103 109 126 132 152 156 157 156 150 157 159 160 162 171 179 182 184 191 200 199 187 179 197 194 184 177 171 176 185 186 190 191 197 203 200 194 194 186 183 176 168 168 169 171 173 160 151 141 136 139 125  97  85  69  46  50  53  39  27  38  42  35  41  52  44  34  33  33  33  34  34
  51  51  51  51  50  49  49  50  54  62  71  74  62  67  64  42  53  61  53  79 104 110 116 128 147 165 164 162 159 152 159 164 174 171 173 180 185 188 185 186 195 206 191 176 191 198 185 173 179 185 188 188 195 201 198 198 189 182 179 179 182 177 177 169 165 161 158 158 151 141 146 119 100  85  64  48  37  40  58  48  60  53  50  40  40  39  34  33  34  34  35  34
  51  51  51  52  51  50  50  46  54  74  52  42  52  64  39  28  46  57  54  85 103 112 124 132 152 160 163 177 180 174 173 180 189 186 186 191 193 194 200 205 197 196 203 197 185 194 201 197 197 199 199 195 198 199 194 188 187 184 186 188 181 180 180 184 180 171 159 151 153 145 141 113  98  87  68  43  30  30  55  66  56  51  45  37  33  34  32  33  34  33  34  34
  51  51  51  52  51  51  52  56  57  73  73  45  45  63  42  38  53  45  60  91 103 108 125 136 153 160 152 156 160 167 168 174 172 174 184 185 176 171 186 190 200 197 193 194 193 186 192 195 190 194 194 193 192 188 183 188 192 191 190 187 181 180 178 167 160 156 157 153 156 154 138 115  99  93  72  35  28  39  40  43  52  61  41  34  34  34  33  33  33  32  33  34
  52  51  50  52  50  48  56  62  54  68  70  66  76  61  48  46  47  42  60  93 109 105 121 132 138 140 143 148 144 148 156 156 158 161 170 164 158 151 157 169 193 192 194 195 190 181 184 188 182 186 190 187 184 184 194 194 186 186 180 174 164 159 163 146 151 152 142 147 152 154 135 105 105  97  76  38  31  44  46  65  70  51  38  41  36  33  34  33  32  33  34  34
  52  52  50  51  51  49  59  55  51  63  70  81  81  66  53  43  41  40  54  92 115 109 107 114 120 134 139 157 156 140 144 151 153 151 142 142 145 152 150 160 174 176 186 186 185 185 176 173 173 172 174 177 186 187 184 172 158 169 171 166 157 153 167 162 168 152 125 126 126 144 132 105 107 106  88  45  32  50  61  63  64  41  32  36  37  34  34  33  32  34  33  33
  52  51  52  51  51  52  60  51  49  58  64  78  91  67  51  56  44  36  61  96 119 114 106 112 130 136 135 144 149 153 142 135 124 119 112 114 122 136 152 149 153 171 180 182 175 177 174 165 159 153 163 171 176 170 159 148 130 122 136 137 144 148 143 158 158 144 140 125 128 132 114 103 108 116  95  60  45  48  56  75 107  37  32  33  34  34  34  33  32  33  33  33
  52  51  52  51  51  53  52  57  56  55  50  80 106  70  55  55  56  41  79 105 120 120 108 121 131 141 140 147 153 157 156 160 154 148 139 128 124 127 138 143 148 160 168 174 172 167 176 170 157 146 153 159 154 144 133 120 109  98 101 103 127 143 149 159 160 141 135 139 129 126 124 110 116 122  96  72  49  57  69 107 134  35  30  34  35  34  34  34  32  33  33  33
  52  52  53  51  51  50  51  53  53  53  45  70  85  69  62  61  57  55  95 126 116 115 107 101 117 132 136 142 152 160 162 164 171 170 163 155 146 133 124 127 135 144 160 172 174 166 178 175 156 150 162 153 134 125 115 112 119 130 142 155 165 165 167 163 155 150 139 133 113 114 118 112 127 128 108  76  53  62  84 132 134  31  30  33  34  34  34  33  33  32  32  33
  53  52  51  51  50  49  50  49  49  53  57  68  79  97  63  56  54  71  97 151 131 121 111  96 108 126 131 126 127 137 151 162 175 177 178 166 161 148 129 116 107 108 125 154 176 173 173 164 154 164 158 131 111 106 116 135 153 166 169 168 172 168 160 156 162 155 139 118 105 117 120 119 130 129 123  80  53  69 110 138 117  23  32  34  34  34  35  34  34  33  33  32
  53  53  52  52  50  51  51  51  52  52  60  67  86 144  79  64  73  79 102 150 163 127 129 118 104 112 130 134 143 157 167 175 167 152 137 129 146 155 145 132 116  96  90 106 162 180 176 171 163 160 119  97 102 129 149 153 146 124 104  84  76  72  77 109 112 124 147 113 108 132 134 133 129 134 127  94  44  61 119 137  83  22  32  33  34  34  34  34  34  33  33  33
  53  53  53  52  51  49  50  51  50  51  60  63 103 151  98  73  68  77 116 128 155 149 139 137 124 118 119 128 112 112 109  74  53  41  47  83 115 117 128 126 115 105  95  98 137 182 184 182 179 150 104 103 112 126 138 119 106 121  67  49  29  50  71 141  92  72  99 122 130 137 146 141 131 130 123 104  66  73 130 134  82  23  33  34  34  35  34  34  33  33  33  33
  52  52  52  51  51  49  50  50  49  52  62  58 110 116  89  89  79  77 112 134 115 135 151 144 135 119 108  83  74  87 118  60  56  50  58 110 163 107 103 115 128 138 108 100 132 185 185 188 192 157 107 103 135 129 109  97 116 163 105  63  52  62  99 131 102 109  86 109 129 143 142 142 143 122 134  94  72  83 127 130  80  24  32  33  34  34  33  34  34  33  33  32
  51  51  51  50  50  51  50  50  48  55  61  60  85  94 111 107  90  84 100 132 137 135 144 149 141 108  91  94 119 115 128 108  63  70  84 142 148 119 118 113 158 165 114 108 139 188 193 193 191 168 122 108 158 145 115 117 125 148 144 119  94 101 139 135 135 112 106 112 111 135 153 156 126 127 125  83  60  70 135 140  74  23  30  32  33  34  33  34  33  33  33  33
  51  52  50  51  52  52  50  50  49  56  62  63  68 130 130 123 114  79 100 109 118 144 158 163 142 114 130 129 123 141 144 143 135 135 152 162 154 140 131 148 161 133 106 129 150 189 192 192 191 172 142 113 137 152 144 124 136 156 179 185 169 166 164 157 143 140 154 144 138 146 158 165 148 130 113  78  68  76 130 147  69  19  30  31  32  33  33  33  33  33  34  33
  53  52  51  51  54  55  53  50  50  56  70  58  86 139 117 135 119  77  94 115 118 138 159 167 162 141 152 170 151 153 158 166 180 182 185 163 147 143 139 145 146 126 132 149 158 193 193 191 189 169 147 131 129 148 140 125 125 147 169 176 175 172 154 145 157 172 163 149 156 164 164 164 143 117 105  74  76  98 117 151  54  21  29  31  32  33  33  33  34  33  34  34
  53  52  52  51  51  54  58  57  52  54  61  59  86 126 136 129 119  77  81 107 119 154 172 172 173 161 146 151 184 175 172 171 176 171 164 150 143 142 147 147 141 138 150 149 156 189 196 195 190 168 143 139 140 152 150 147 137 143 159 162 161 151 143 158 174 163 157 152 161 177 174 166 138 111  92  72  73 109 126 145  42  24  28  29  32  33  33  33  34  34  34  34
  52  52  52  52  52  53  53  53  51  51  64  60  71 128 137 130 113  76  71 101 123 144 158 166 172 172 169 153 148 155 157 158 151 151 149 156 152 157 154 157 149 146 152 153 151 177 194 197 192 165 140 143 149 158 160 158 153 153 158 164 175 174 177 182 175 172 164 169 174 171 167 160 138 107  80  77  91 129 143 122  25  24  27  29  31  32  33  34  34  34  35  35
  52  52  52  52  52  52  52  50  50  50  59  67  61 105 136 135 140  82  66  92 108 115 144 167 165 160 161 170 163 148 152 161 164 170 172 162 156 157 163 163 151 145 159 151 148 166 182 192 188 153 138 146 142 158 168 165 161 150 156 157 165 161 159 157 155 161 162 168 167 172 170 154 123 100  68  73 124 138 153  97  16  22  26  28  29  32  32  33  34  35  34  34
  54  52  53  53  53  53  51  51  51  50  49  55  71  67  80 133 155 117  65  79 110 117 148 164 166 175 174 167 164 161 161 162 166 165 160 161 170 181 173 154 145 145 164 151 146 162 183 194 187 150 136 142 136 143 163 172 171 163 159 158 159 158 161 159 158 171 174 179 179 168 165 147 115  88  65  97 146 141 161  69  16  23  25  28  28  30  31  32  33  34  34  34
  53  53  52  52  52  52  53  52  51  50  49  46  65 100  87 130 151 139  76  64 110 113 142 159 161 169 178 181 177 182 176 174 171 177 177 179 185 183 168 145 133 138 158 156 150 159 176 195 179 144 139 137 129 141 152 166 173 172 165 162 167 168 172 169 171 171 176 179 176 176 159 141 105  76  67 126 143 151 160  40  18  23  24  26  27  28  30  31  31  33  35  35
  53  52  53  52  52  52  51  52  51  49  49  45  54 111 125 130 147 134  89  70 108 104 126 138 145 160 164 167 170 179 178 179 181 182 188 190 186 174 161 143 139 147 159 154 149 160 171 189 179 144 134 144 137 138 148 160 168 174 175 175 173 177 174 178 182 174 178 180 178 167 148 124  98  59  82 133 148 165 115  18  21  22  23  24  26  26  29  30  31  32  34  34
  53  53  53  53  52  51  52  52  50  50  49  46  49 108 168 142 133 132 111  77 112 102 100 125 147 151 155 161 168 175 182 184 189 188 185 183 180 174 162 153 146 152 160 152 150 162 174 183 171 146 128 149 146 141 149 162 169 174 179 179 173 173 178 177 174 176 173 169 169 157 136 102  86  63 121 140 157 148  46  16  23  23  24  25  25  26  28  30  31  32  34  34
  53  53  53  53  53  52  52  52  53  51  49  46  47 106 172 154 121 129 140  91 103  99  86 118 148 157 163 167 175 176 180 181 185 189 184 185 181 173 168 161 142 141 152 155 156 160 176 182 170 156 134 136 144 144 154 165 172 177 180 181 180 176 176 177 175 174 168 164 157 142 113  95  84  68 145 160 160  99  24  20  23  23  24  24  25  26  27  29  31  32  33  34
  54  53  53  53  53  52  51  52  52  52  50  47  46 102 169 173 127 122 144  91  87 103  95 112 138 154 161 165 169 173 175 179 181 183 184 184 181 181 181 164 133 134 143 160 161 157 171 181 167 158 141 127 132 133 152 169 167 175 177 178 184 180 175 175 176 172 166 169 156 127 106  95  89  61 125 153  92  33  25  22  22  23  23  23  24  25  26  27  31  32  33  34
  53  54  53  53  53  52  52  53  51  51  51  48  45  99 166 180 161 128 117 102  86  99 100 111 129 148 162 165 163 168 176 180 181 185 182 185 182 178 168 138 136 148 149 161 156 156 163 173 168 152 137 131 152 137 143 170 170 173 174 176 186 181 177 172 170 167 168 161 149 123 108 103  85  60  52  61  39  25  20  22  22  23  23  24  23  24  26  27  29  31  32  33
  53  53  53  53  52  53  53  52  52  52  50  48  44  95 165 178 168 158 130 125  87  78  99 120 129 140 155 159 160 167 173 180 177 180 176 176 167 147 134 129 145 159 152 162 146 148 172 173 170 159 142 143 169 151 141 163 173 179 182 178 178 177 175 177 169 160 167 158 145 121 110 105  83  57  38  28  20  20  22  21  23  23  22  23  23  23  25  27  29  31  33  33
  54  54  53  53  52  52  52  51  52  50  51  48  44  92 164 178 170 165 153 141  92  77  94 113 118 128 145 148 156 157 157 166 171 173 170 160 144 140 147 141 149 159 159 163 147 159 183 182 171 158 154 148 166 162 143 147 161 175 178 177 172 167 167 176 169 158 160 151 135 113 114 107  88  57  39  27  21  21  22  22  22  22  22  22  22  23  25  26  28  30  32  33
  55  54  53  52  52  52  51  52  53  53  51  48  44  90 162 178 170 162 158 140  92  85  91 102 106 120 137 143 148 154 155 159 170 169 153 137 147 172 170 135 141 151 150 154 158 169 188 188 177 163 154 146 156 158 139 152 150 155 164 171 174 169 166 170 164 157 154 143 129 107 109 103  83  59  28  22  20  21  22  22  22  22  22  23  23  24  24  26  28  31  32  32
  55  53  53  53  53  52  52  52  53  52  50  48  43  88 160 178 169 161 154 143 110  86  91  90 101 119 129 134 139 149 155 157 162 156 140 145 166 162 154 119 104 120 130 129 144 159 165 171 172 161 147 132 137 130 117 163 169 146 144 165 169 169 165 162 155 149 143 139 123 109 118 103  70  39  22  23  20  22  22  21  22  22  22  23  23  23  24  25  28  31  32  33
  53  54  53  53  54  52  52  52  53  52  51  48  43  87 160 177 169 160 153 149 111  85  92  88 100 112 124 124 131 145 153 152 151 145 142 154 153 154 156 123  85  69  86 120 130 143 144 139 150 146 125 115  87  84 112 154 159 165 146 142 152 160 158 158 153 146 134 128 118 107 118  98  76  43  20  22  22  21  21  22  22  21  22  22  22  23  23  24  26  28  31  32
  54  54  53  54  54  53  53  51  52  52  51  49  44  85 159 177 169 161 153 147 121  83  82  85  93  94 109 120 127 136 150 147 141 137 146 156 159 152 147 122  98  84  68  84 115 138 139 136 142 129 114  67  67 108 125 139 146 157 165 139 137 144 154 152 146 139 130 128 117 116 114  88  84  48  22  20  20  21  21  22  21  22  22  22  22  23  23  25  27  28  30  32
  54  54  54  54  53  53  53  53  52  51  51  49  44  85 159 177 168 160 151 145 131  80  78  90  93  84  86 110 117 134 140 135 127 138 147 167 164 147 152 126  98  94  98  99  87 114 133 134 131 102  76  89  90 103 121 136 137 141 145 146 130 133 147 146 138 136 128 120 109 119 108  84  72  61  21  20  21  20  22  21  21  22  21  22  23  22  23  25  27  28  30  31
  54  55  54  54  53  54  54  53  54  51  50  49  44  84 159 177 168 159 150 142 132  93  77  86  90  82  80 104 113 119 128 118 123 142 157 165 161 157 162 134 108  95 107 114 121  94  88  92  84  93 119 107  98 104 127 142 151 142 140 135 142 136 125 134 140 135 117 102 109 121 104  81  65  52  21  20  21  22  21  22  21  22  22  22  21  22  23  24  25  28  30  31
  53  55  54  54  53  54  54  53  53  52  51  49  44  83 158 177 167 158 149 141 134  93  72  87  88  96  90 106 110 108 110 117 134 144 155 138 152 139 146 137 118 107 117 107 120 116 100  92  96 132 116  89  86 109 116 140 168 153 148 145 138 142 111 122 126 127 115  92  97 121  93  81  75  50  17  21  21  21  22  22  21  21  22  21  22  21  23  26  25  28  30  32
  55  55  54  53  53  53  53  53  52  53  51  48  43  83 159 177 166 157 148 140 135  92  63  85  95 111  89 114 115 108 104 128 149 156 150 120 131 130 134 133 103 129 131 112 117 120 109 111 117 112 108  99  99 108 128 144 156 151 143 154 145 119 118 113 106 112 111 103 108 118  78  70  71  43  20  20  20  21  21  21  21  21  21  22  21  22  23  24  25  26  29  31
  55  54  55  54  53  53  53  53  54  52  50  49  43  85 158 176 166 157 147 139 138 109  61  83 108 122  88  98 109 122 119 125 142 149 140 106 111 116 136 119 126 116 119 125 123 118 127 133 119 112 115 107 107 109 124 146 152 131 134 129 141 130 107  90  99 116 105  98 121 114  80  70  65  32  19  20  22  21  21  21  21  21  22  21  22  22  23  23  25  26  28  31
  56  55  55  55  53  53  53  53  53  52  51  49  44  87 159 175 165 156 146 138 136 115  70  83  93 101  90  87 115 146 119 113 125 112 101 100 103 120 129 119 132 119 131 127 130 126 133 134 134 125 110 107 100 106 116 124 127 101 110 115 128 131 110 103 105 126  97  87 120 108  82  72  78  28  19  21  20  21  22  21  21  20  21  21  21  22  23  22  24  25  27  30
  56  55  55  56  54  53  52  53  53  52  50  48  44  90 161 175 165 154 146 139 134 122  76  76  81  96 100  83 123 151 120 115 110  92  96 101  89  80 101 113 114 123 122 130 139 138 125 135 140 137 117 118 113 117 123 124 111  87  89 100 107 102 106 112 124 127  94  79 106  83  76  73  64  32  18  20  23  22  22  22  21  21  20  21  21  22  22  24  24  25  28  30
  56  55  55  55  54  54  53  53  53  52  50  48  44  94 162 173 163 153 146 139 134 129  91  63  72 100 101  86 110 140 139 101  93 111 119 127 118  95  72  70  89 100 107 117 114 114 117 118 116 121 121 117 112 110  96  92  85  95 108  97 114  99 109 121 146 136 104 100 103  74  70  88  69  28  20  21  21  21  21  21  21  20  20  21  21  21  22  23  24  26  28  30
  57  55  54  54  54  53  53  54  53  52  51  48  46  96 163 174 163 154 146 139 133 129 107  68  71  93  99  94 110 134 137  99 100 103 125 140 134 127 107  90 100  94  92 100 103 103  99  99 101 101 100  91  91  78  76  85 104 124 136 122 122 101 107 126 139 134 101 100 118  85  70  89 108  25  15  21  20  20  20  20  21  21  21  21  21  22  22  23  24  26  28  30
  57  56  54  54  54  53  53  52  52  52  50  48  45 100 167 175 163 155 146 138 132 120 120  87  66  83 106  94  90 122 112 105 124 109 118 132 136 127 127 124 134 133 130 131 133 139 124 126 131 124 121 122 125 117 109 122 138 142 132 111 111 112 110 104 113 105  99 101 106  86  76  86 144 132  12  16  20  20  21  20  21  21  21  21  21  22  22  22  24  26  28  30
  56  55  55  55  54  54  54  52  52  52  51  47  46 105 169 174 163 156 147 136 126 149 158  86  72  81  96  93  79 100 115 118 120 121 129 133 134 151 144 148 148 143 149 155 154 154 145 144 148 149 151 144 139 138 133 135 146 147 133 119 126 110 100 114 119  98  97  99  96  78  70  75 135 231 120   4  19  20  21  21  20  21  21  20  21  22  23  21  25  27  29  30
  55  56  55  54  54  54  54  53  53  52  50  47  48 109 169 173 163 156 144 136 164 195 203 109  77  79  88 102  75  78 105 111 113 131 134 130 128 135 140 154 141 129 137 141 144 148 145 148 148 153 154 139 134 138 139 144 146 143 137 139 128 107  94 107 119  83 107 109  89  73  68  69 157 226 228  95   2  20  21  21  21  21  20  19  21  22  23  24  26  27  29  31
  57  56  55  54  54  54  54  54  54  53  49  47  49 113 171 174 165 153 151 181 199 206 214 147  74  63  90  90  75  62  94 109 122 127 129 132 134 128 119 130 143 125 127 134 133 130 134 132 125 136 134 133 131 136 148 148 144 133 134 146 148 114 100 106  87  82  91  84  74  81  70  62 145 219 230 220  70   5  21  21  21  21  20  21  22  21  24  25  27  28  30  31
  58  56  56  55  54  54  54  55  55  53  52  46  50 116 170 174 161 161 192 205 209 212 217 177  82  73  78  65  72  72  86 119 132 134 141 129 130 135 124 118 127 128 130 134 135 139 131 130 134 133 139 148 141 127 129 138 149 144 133 140 142 151 118  98  69  89  74  71  86 101  75  61 141 201 232 234 208  45   8  21  22  21  21  21  22  22  23  26  28  29  31  31
  56  56  56  55  54  55  54  54  53  52  51  46  52 119 171 169 172 199 209 213 217 218 218 177 106  80  64  69  71  71  70  92 119 128 139 121 127 129 124 120 121 115 122 127 134 152 143 142 134 137 141 142 128 120 110 127 140 128 137 150 145 142 127  85  69  87  82  77  95 100  54  75 143 179 230 233 240 189  25  12  21  21  22  21  21  23  23  25  28  29  31  32
  56  55  55  55  54  54  54  53  53  52  51  46  55 123 166 180 208 215 216 219 221 220 208 161 111  94  72  66  72  65  72  91  96 117 122 123 123 113 130 125 133 126 124 128 129 145 155 153 139 130 133 129 122 123 121 125 145 116 130 156 148 134 101  78  66  80  89  91  89  76  58 139 142 159 222 237 230 240 164  13  16  20  20  21  22  22  23  26  28  29  30  31
  56  55  54  55  54  54  55  54  52  52  50  45  58 121 178 215 219 220 222 220 222 216 191 141 102 104  75  80  84  78  65  77 104 121 121 128 125 119 139 137 140 143 135 126 126 140 149 149 145 141 135 126 145 135 136 130 132 129 126 143 132 117  86  78  78  77  77  88  94  78  92 191 163 149 212 237 233 230 242 135   4  19  21  21  21  23  24  27  29  30  31  32
  57  56  55  55  55  55  55  55  54  53  51  46  52 148 221 222 223 226 227 225 218 200 172  97 102 123 100  87  78  80  65  75 109 127 141 135 141 137 136 141 141 150 141 138 127 147 138 137 150 144 139 154 157 143 130 130 121 126 118 127 105  88  91  83  81  79  83  93 101  78  89 202 183 155 204 232 237 234 231 241 101   3  20  21  22  22  24  26  29  30  31  32
  57  56  56  55  55  54  54  55  53  53  50  31 103 224 227 225 226 229 230 229 209 189 134 105 105 125 122 105  80  80  72  73  99 100 114 131 140 146 138 135 141 140 153 144 151 163 150 140 138 141 143 141 152 136 124 135 128 132 132 132 123  99  82  84  93  96  84  92 117  79  64 188 201 165 203 227 238 237 233 233 231  63   4  22  21  22  25  28  28  30  31  32
  56  57  56  55  55  54  54  53  53  52  34  86 223 231 225 227 229 231 229 221 198 168 117 123 112 119 114 113  89  71  72  66  85  96 111 134 143 146 144 154 148 135 149 155 156 156 159 146 145 161 161 141 144 130 125 139 143 129 124 123 123 109  72  73  91  84  92 125 131  80  53 159 211 164 202 224 238 239 237 233 241 206  35  11  22  22  26  28  29  31  31  32
  56  57  56  55  55  55  54  53  53  37  73 219 235 228 229 231 233 231 228 209 189 140 138 135 133 110 115 119 110  91  69  79  81  99 127 121 145 155 133 155 147 137 153 163 161 157 171 159 154 157 156 150 156 136 144 159 138 135 123 116 110 101  84  83  98  96 107 128 126  84  32 101 211 177 209 223 237 240 238 235 234 248 171  19  19  22  25  29  30  31  32  32
  56  57  56  53  55  54  54  53  41  59 206 238 227 229 232 236 237 234 219 205 166 134 157 144  96 108 124 124 125 115  73  71  84 100 107 105 142 150 147 155 149 141 137 155 141 143 155 157 157 160 143 152 162 152 157 167 136 137 132 110 112  93  98  88  85 120 134 116 115  79  47  59 185 189 215 225 235 241 239 237 236 235 248 126  17  25  23  27  30  31  32  32
  57  57  58  56  55  54  52  44  49 191 242 229 231 232 236 237 238 232 213 201 139 158 159 107  63 109 127 127 121 118 103  71  86  96 104 106 134 156 154 158 157 143 134 147 131 138 148 149 158 152 139 155 153 137 148 160 140 135 117 103 108  91  83  85 106 128 129 119 110  76  63  52 146 200 223 227 231 242 241 239 238 236 239 235  72  23  29  26  29  31  32  32
  56  57  57  56  54  53  48  41 174 245 229 231 233 236 237 236 236 223 216 182 132 183 126  77  81 103 122 123 127 131 126 104  63  80  96 122 141 139 153 150 144 149 145 140 148 138 146 146 163 149 150 150 154 148 150 151 149 123 125 110  93  84  70  96 125 124 119 115 105  70  69  64 102 204 221 232 229 240 241 239 239 237 235 244 198  34  32  31  29  31  32  32
  56  57  56  55  54  50  35 148 244 230 231 232 236 237 239 239 231 219 226 170 148 177  89  88  97 106 119 123 124 129 122 113  92  72  75 123 115 133 144 137 141 152 143 130 141 140 134 148 145 153 160 146 147 161 160 152 133 133 123  92  84  79  95 124 131 132 117 112 103  72  67  72  89 203 225 237 230 237 241 237 237 237 236 234 249 139  17  38  33  31  32  32
  56  57  55  55  53  30 127 242 231 229 234 236 238 239 241 239 224 221 223 175 166 149  89 107 113 105 119 123 122 124 122 119 122  89  66  87 125 136 136 139 146 139 135 128 129 128 116 147 138 160 159 147 144 156 149 142 137 140 104  78  79  92 114 141 128 127 112 106 103  76  72  69 111 212 227 235 233 235 243 240 236 235 236 235 236 235  75  24  39  34  32  34
  57  57  56  52  30 117 237 232 230 233 236 238 239 242 241 234 225 223 212 177 168 124 104 125 114 100 120 126 127 121 122 129 127 113  89  66  87 126 121 114 139 137 118 129 135 122 117 142 131 153 155 142 124 135 144 155 120 121  87  68  89 119 118 125 125 121 111 103 108  87  82  67 144 220 225 234 238 235 241 243 240 236 235 235 234 243 194  35  33  39  35  34
  57  52  45  25 112 238 232 230 233 235 238 239 240 242 240 231 230 221 203 180 158 117 121 131 114  99 113 123 125 125 128 132 130 129 109  86  73  84  98 123 149 120 110 133 119 116 132 138 129 151 135 133 133 151 152 147  98  81  67  89 123 133 116 120 127 114 105 102 113  92  94  73 165 225 230 234 237 238 241 243 242 240 237 236 235 232 246 127  20  37  39  34
  40  35  18  87 235 231 227 232 235 236 239 239 242 242 237 232 228 217 201 183 140 118 127 134 114  94 110 119 126 127 127 126 135 135 120  95  92  80  70  79 120 131 112 119 104 103 105 139 136 124 128 132 124 135 124 102  80  74  87 114 113 120 111 120 116  97  97 108 120  94  91  98 187 227 229 229 238 238 239 243 244 242 239 236 236 233 235 225  62  30  39  37
  32  23  72 221 235 228 229 233 235 237 239 241 242 242 238 235 227 212 205 182 117 131 136 131 107  95 116 127 126 127 128 135 127 121 127 105  97 110  91  74  74  87  91 109 113  76  68 110 103 114 104  93  90  84  81  72  88 108 108 114 116 126 116 119 113 101  95 109 119 108  84 117 205 225 223 234 240 240 240 245 246 244 242 238 236 234 231 245 166  26  36  37
  21  50 214 240 229 228 231 233 237 239 241 242 242 240 237 234 230 211 203 174 106 145 141 120  96  99 121 127 123 124 124 125 119 130 131 120 109 116 104  97  97  80  77  87  89  81  79  82  79  83  75  81  76  81  87  93 115 116 112 122 127 128 114 118 109  91 100 118 124 121 100 118 214 221 225 234 240 239 241 245 247 246 244 241 238 235 233 232 238  85  22  40
  17 177 246 230 229 227 231 235 239 240 242 243 243 239 236 232 231 217 200 170 111 141 136 109  99 101 124 127 126 128 127 119 117 127 124 125 118 102 108 107 110 103  96  97  95 101 111 101  92  93  87 105 102 106 115 119 115 102 127 127 126 114 107 110 101 100 114 124 130 132  98 132 217 222 226 235 240 239 240 244 247 246 246 244 239 235 234 231 242 190  34  38
 181 235 229 230 226 229 233 237 239 241 242 243 241 239 238 231 229 222 199 164 102 131 123 111 105 105 124 130 126 128 131 122 117 116 121 123 121 105 105 103 107 116 116 113 114 121 123 119 128 128 121 120 119 129 125 118 107 112 134 131 116 110 112 100  97 111 116 119 121 119  90 156 219 223 229 234 237 242 241 244 245 246 246 246 243 238 235 233 229 244 113  24
 242 230 230 228 229 233 236 239 240 243 244 243 242 240 238 234 226 219 196 156  96 119 116 114 106 108 121 132 125 128 121 129 128 124 125 121 115 108 113 110 114 114 121 117 122 134 133 133 137 125 117 123 122 127 123 112 114 128 131 134 115 110 110 104  89 103 111 114 111 109 104 174 219 224 230 230 238 242 242 242 244 245 246 245 243 241 235 234 232 238 209  50
