P2
# Generated by OpenCV 4.2.0
92 112
255
  66  71  75  76  75  71  74  70  69  72  70  73  76  79  79  74  73  72  63  63  62  55  50  45  40  44  49  53  54  56  60  57  59  57  54  43  42  51  53  57  54  59  59  56  50  51  48  50  52  50  48  49  45  42  35  27  24  26  26  25  25  25  25  25  25  25  26  26  26  25  26  26  26  26  26  26  26  26  27  27  27  26  26  26  26  26  26  26  26  25  25  25
  74  79  80  80  78  75  75  69  69  73  71  74  80  81  79  76  78  75  68  70  68  61  57  53  51  58  56  54  57  57  60  60  62  60  55  45  53  59  64  65  66  65  62  60  63  60  52  56  56  52  50  53  50  44  39  32  27  26  26  26  25  25  25  25  25  25  26  26  26  26  26  25  26  26  26  26  26  26  27  27  27  26  26  26  26  26  26  26  26  25  25  25
  82  85  85  84  78  76  72  64  65  67  66  73  80  81  79  78  80  79  76  76  72  65  63  61  63  67  62  56  61  56  59  66  61  58  55  56  64  68  75  74  79  81  76  72  71  67  75  80  83  80  73  71  64  64  58  47  32  25  26  24  26  26  25  25  25  25  26  26  26  25  26  26  26  26  26  26  26  26  27  27  26  26  26  26  26  26  26  26  26  25  25  25
  88  90  90  86  78  73  65  49  47  54  56  64  73  77  77  78  81  80  78  78  71  66  66  65  69  70  65  61  59  57  61  63  57  62  61  63  76  89  90  93  97 103  91  92  91  95  97  93  86  82  74  70  67  76  67  67  64  54  40  30  22  25  25  25  25  25  26  26  26  26  26  26  26  26  26  26  26  26  26  27  26  26  26  26  26  26  26  26  26  26  26  26
  94  94  90  84  74  62  43  32  40  48  53  61  68  70  69  71  78  79  78  77  70  68  68  68  69  70  67  60  58  56  59  60  57  67  74  91 109 113  95  89  89  83  92  92  86  87  76  70  79  72  69  83  91  83  66  65  68  73  66  66  50  29  21  23  24  25  26  26  27  26  26  26  26  26  26  26  26  26  26  26  26  26  26  26  26  26  26  26  26  26  26  26
  96  95  91  82  66  41  30  31  40  46  51  61  67  65  64  64  73  76  76  78  73  68  70  70  70  65  63  58  52  50  56  62  66  89  99 103  96  81  80  81  85  95  86  79  85  87  74  83  81  86 102  97  78  78  76  76  69  65  68  81  77  69  55  33  22  23  25  26  26  26  25  26  26  26  26  26  26  26  26  26  26  26  26  26  26  26  26  26  26  26  26  26
  97  94  87  76  46  25  29  30  39  46  50  58  64  63  61  60  67  70  74  80  74  71  70  70  69  66  59  61  54  45  56  63  70  85  80  79  70  69  75  78  93  90  80  86  86  76  82  80  90  98  80  64  60  71  81  91  90  86  80  76  72  66  61  59  49  36  25  23  28  25  26  26  26  26  26  26  26  26  26  26  26  26  26  26  27  27  26  26  25  26  26  26
  99  94  86  63  27  23  27  30  38  44  48  55  60  62  57  57  62  63  69  76  76  74  73  72  66  60  55  56  63  50  44  58  62  62  49  61  58  69  75  91  74  73  81  93  87  77  71  90 104  91  79  77  83  97 112 106  96  88  90  95  89  69  64  62  56  54  47  32  25  29  26  26  26  26  26  26  26  26  26  26  26  26  26  26  27  27  26  26  26  26  26  27
  98  93  79  46  22  24  27  28  37  41  45  54  58  59  57  55  55  56  62  70  71  75  76  69  72  73  62  60  62  61  39  57  56  48  46  60  55  78  81  88  74  76  93  99  99  72  75  99  99  90  88  86  98 103 103  86  92 102 101  93  85  71  67  65  62  59  61  58  37  30  26  25  24  26  26  26  26  26  26  26  26  26  26  26  26  26  26  27  26  26  26  26
  96  89  68  34  23  26  27  28  37  42  45  53  57  58  55  53  52  51  56  66  66  53  44  54  67  76  90  96  80  77  53  55  66  64  61  75  80  88  87  87  77  96  87 102  90  80  91  91  88  94  87  95  98 107  99  99  98 105  87  78  74  76  78  67  64  62  59  62  50  54  29  27  30  25  26  26  26  26  26  25  25  27  26  26  26  26  26  26  26  26  26  26
  94  85  58  28  24  26  26  30  39  43  47  54  57  57  54  52  49  45  52  57  39  33  38  55  81  92 102  98  87  82  88  66  73  86  88 100 109  97  98  87  84  87  84  91  90  76  98  88  91  90 102  99 101 102 101  95 106 108 100  92  86  84  71  68  74  75  79  83  60  62  59  41  34  33  27  26  25  25  27  27  26  26  26  26  27  27  26  26  26  26  26  26
  93  79  48  25  25  26  27  31  39  42  48  54  56  56  55  53  48  43  50  26  24  39  52  83 111 117 115 100  86  73  90 103  93 107 112 118 119 104 106  93  84  77  82  86  92  78 100  88  98 114 116  98 101 100 100  98 107 104  99  98  98  94  90  92  90  74  72  78  78  78  69  54  48  35  32  27  28  25  31  30  25  25  27  26  27  27  26  27  26  26  26  26
  90  73  42  25  25  27  27  31  39  42  47  52  55  55  54  52  48  43  27  20  33  45  65  75  89 108 112 103 100  92  96 118 124 121 134 131 129 116 113 101  89  85  82  83  95  98  98  96 119 133  99  96 111 105  97 106 116 103  99 110 113 105 103 102  90  83  80  78  75  83  86  68  64  47  40  37  31  27  28  28  31  33  30  27  27  27  26  26  26  26  26  26
  87  69  38  23  26  27  28  32  39  41  46  52  54  54  51  51  47  27  15  26  38  56  80  93  92 103 106 107 103 115 124 130 143 138 143 143 135 128 118 119 108 104 101  91 106 114 110 120 130 120 100 120 122 119 120 122 111 113 118 115 119 118 115 118 110 105 101  94  92  86  78  81  68  59  59  45  35  34  34  32  30  27  27  27  27  27  27  27  27  27  27  27
  85  67  36  24  26  27  28  32  38  41  46  50  53  52  49  51  29   9  21  39  58  77  90  87  83  79  86 106 121 127 134 145 155 153 147 146 142 136 130 138 138 134 125 113 125 125 135 138 144 131 135 153 152 152 147 137 132 130 132 128 132 130 132 128 124 114 117 106  93  90  85  77  69  58  62  54  45  44  29  27  27  27  26  26  27  27  27  27  27  27  27  27
  82  64  35  24  25  27  27  31  38  39  45  49  49  48  48  36  27  29  45  64  85 101 108  99  87  91 107 123 140 144 149 153 160 164 156 153 153 151 145 153 154 155 149 141 145 143 148 163 167 163 175 179 180 177 163 164 167 159 148 148 153 155 152 147 141 130 115 100  94  85  83  87  82  71  63  57  35  44  51  29  26  27  26  26  27  27  27  27  27  27  27  27
  81  63  35  24  24  27  28  32  36  38  42  49  49  50  39  26  25  36  56  81 110 123 101  87  98 121 138 146 148 153 154 159 162 165 163 166 160 162 164 166 164 175 177 174 173 169 174 180 184 189 199 200 200 196 184 184 181 182 184 189 185 182 176 169 158 150 142 129 112  99  84  85  96  96  76  58  43  34  46  49  25  26  27  26  27  27  27  28  27  27  27  27
  78  62  36  25  25  27  28  32  35  38  44  48  54  38  15  15  23  38  59  80 101 112 110 118 134 140 144 145 144 152 154 153 158 162 165 172 169 169 175 179 182 186 185 192 195 193 194 189 192 199 204 209 210 209 205 206 200 198 202 203 200 196 191 191 186 182 172 168 156 130 107  96  92  89  93  70  52  41  38  48  41  26  26  26  27  27  27  27  27  27  27  27
  77  62  37  26  26  27  28  32  37  40  43  49  40  17  14  19  33  54  66  69  89 125 128 126 139 142 143 148 148 150 151 154 159 169 170 168 174 177 180 184 187 186 188 195 195 197 198 199 199 203 207 211 210 209 210 208 206 204 204 206 203 206 199 196 199 196 192 186 181 172 146 107  93  90  92  91  69  50  46  49  48  30  25  26  27  27  27  27  27  27  27  27
  77  65  42  27  26  27  30  33  37  39  43  44  22  13  16  28  48  55  58  92 126 123 119 135 139 140 146 145 146 148 149 158 160 163 168 168 172 180 186 188 190 194 192 194 196 196 201 203 203 206 208 206 209 207 209 211 212 211 209 209 206 207 204 198 198 202 200 195 187 185 176 155 106  97  95  92  88  76  44  37  45  43  29  27  27  26  27  27  27  27  27  27
  76  67  47  28  26  29  30  34  38  40  45  31  11  18  25  34  45  57  83 110  98 101 126 137 136 134 141 144 152 150 151 159 162 158 165 171 175 179 187 194 196 193 191 194 197 200 201 204 205 205 208 207 206 208 207 207 210 210 209 209 206 204 204 196 196 197 197 200 195 191 187 179 155 107 108 100  84  86  65  37  32  38  35  26  27  27  27  26  27  27  27  27
  75  69  51  33  27  30  30  35  39  42  38  14  19  27  28  34  49  72  99  86  87 117 123 127 138 138 139 145 144 147 149 153 157 164 167 169 170 177 186 195 197 194 193 196 199 201 202 201 205 205 205 207 207 205 203 206 209 207 207 208 209 207 206 201 197 194 198 200 198 191 189 186 183 152 109 110 106  80  77  68  37  34  36  26  27  28  27  27  27  27  27  27
  72  67  55  37  30  31  32  37  40  42  19  16  22  21  29  38  54  79  75  77  98 118 117 129 132 135 139 144 146 148 149 154 158 163 165 169 171 174 187 193 192 195 196 198 201 204 201 198 204 205 204 207 210 208 206 206 207 202 205 211 209 209 208 207 203 198 199 200 200 193 187 191 187 187 144  96 108 107  70  68  55  29  32  30  24  27  29  27  27  27  27  27
  71  65  56  42  36  35  34  40  43  32  15  22  24  31  37  44  59  69  80  93 110 113 120 124 137 137 143 141 138 147 152 151 160 167 168 171 179 182 185 192 196 197 198 196 199 201 200 201 204 202 204 204 209 209 207 207 204 199 204 204 206 210 206 205 201 201 200 198 195 194 193 192 189 187 189 134  86 107 122  80  60  50  29  36  31  28  27  27  27  27  27  27
  69  65  56  49  42  40  36  42  40  20  15  15  27  35  45  50  67  71  79  98 110 109 115 127 137 139 141 137 133 147 154 155 163 169 171 172 177 191 193 193 195 194 198 197 196 199 201 199 199 202 207 203 207 206 207 207 207 203 204 204 206 207 205 207 202 200 197 193 193 197 196 193 191 187 188 174 114  92 111 114  72  54  39  29  30  28  27  27  27  27  27  27
  67  64  57  54  50  48  45  45  29  11  17  27  32  37  43  57  66  64  80 101 111 109 117 129 139 138 137 140 137 144 157 160 154 161 166 175 185 189 195 200 197 191 200 200 200 200 201 201 202 202 202 202 204 205 205 206 202 200 205 205 199 202 206 208 207 202 202 199 200 193 191 191 190 186 179 182 138  92  89 111 105  59  47  38  28  26  27  27  27  27  27  27
  64  64  59  57  57  56  55  50  25  24  23  25  29  41  54  53  50  59  86 105 104 112 116 127 142 138 140 144 140 153 161 154 151 159 164 181 182 185 198 203 203 203 200 198 202 203 202 204 206 205 202 202 203 203 206 202 202 207 205 205 204 204 202 198 209 208 203 200 196 197 193 193 188 190 183 178 158 102  86  93  91  72  41  38  27  27  27  27  27  27  27  27
  62  61  60  58  60  59  63  47  25  23  23  29  34  48  53  58  66  69  81 100 108 116 117 127 135 137 139 142 142 151 156 157 159 164 174 182 189 199 200 202 198 197 198 200 197 201 202 199 199 202 205 201 203 208 204 199 203 209 207 207 209 208 206 203 209 208 205 199 194 195 194 194 192 191 190 179 165 119  86  84  77  61  47  38  30  26  27  27  27  27  27  27
  60  60  58  57  63  65  64  36  15  21  30  33  43  49  60  71  78  83  93 100 103 110 114 129 136 140 140 140 144 154 161 157 164 167 174 184 193 195 199 201 199 199 200 202 201 200 204 195 198 207 202 205 209 208 209 210 208 211 208 205 207 207 204 203 207 205 203 204 200 194 189 194 193 189 188 182 168 145 115  99 111  90  60  46  31  26  27  27  27  27  27  27
  58  58  57  59  64  68  56  22  19  24  31  43  47  51  60  71  75  84  88  94 105 112 111 128 138 137 142 140 144 154 161 153 161 172 178 183 183 194 200 199 203 201 201 198 201 198 201 202 204 209 207 210 207 208 209 208 203 204 206 203 205 206 209 208 205 207 200 201 200 195 189 189 194 197 188 184 172 148 112 108 110  97  66  49  36  27  27  27  27  27  27  27
  55  55  55  59  65  68  50  19  24  29  33  42  53  59  68  73  74  80  89  96 111 113 111 124 134 141 137 137 140 151 152 145 155 161 167 178 177 190 195 199 203 203 204 200 198 197 202 202 208 206 208 213 206 205 206 206 203 206 207 209 210 209 208 210 208 210 212 202 202 205 197 188 192 193 191 182 172 155 137 118 134  96  65  47  38  30  27  27  27  27  27  28
  52  51  53  58  65  67  45  20  26  29  33  52  60  59  59  68  74  75  85  97 106 109 111 123 129 135 138 134 142 149 149 146 153 158 167 177 176 182 191 200 198 195 200 204 202 198 203 204 206 198 204 204 196 198 207 210 202 207 208 208 211 215 214 213 213 210 210 205 202 205 198 195 196 192 188 186 175 158 144 139 147 121  71  41  44  34  26  27  28  28  28  27
  47  49  50  55  60  63  40  22  25  34  50  58  52  51  62  70  69  75  89  99 104 111 111 120 127 136 138 137 141 151 147 147 154 157 166 180 174 174 186 194 192 190 189 192 194 196 191 193 197 189 195 201 211 207 209 211 209 211 213 213 212 219 222 217 215 220 211 211 207 203 197 197 199 196 187 184 179 152 130 120 126 134  85  38  37  43  29  26  28  27  27  27
  38  44  47  51  54  57  37  18  29  56  56  46  50  61  66  57  66  72  80  92 105 114 114 119 126 133 134 138 139 147 149 143 144 148 163 170 165 172 184 196 191 193 197 199 200 199 195 197 200 185 179 186 202 206 209 212 212 208 212 214 216 211 210 217 214 214 215 216 211 206 202 195 191 196 188 186 181 156 137 123 105 121  89  47  31  46  41  24  27  27  27  27
  33  36  40  46  48  52  31  14  45  51  43  48  53  58  53  64  70  73  81  90 102 114 110 112 122 133 136 136 142 144 148 144 143 148 158 171 171 174 177 181 181 185 188 193 199 199 196 198 202 189 175 174 181 190 197 199 196 195 202 205 210 208 210 209 202 200 205 210 209 210 204 201 195 195 194 189 185 165 146 134 110  99  88  50  35  31  44  28  27  27  27  27
  28  30  32  37  43  44  20  33  49  34  46  55  53  54  58  58  66  70  78  87  94 105 112 110 118 134 137 138 137 143 151 147 146 147 152 165 171 173 177 173 181 181 180 179 189 194 196 197 201 194 185 193 197 198 201 201 202 200 205 207 209 207 211 212 210 205 201 202 201 210 208 204 204 197 197 194 182 158 139 137 118  88  73  54  35  27  37  38  26  28  28  28
  26  27  27  30  37  32  25  46  30  37  44  50  52  51  57  60  60  72  76  77  92 110 113 109 115 130 136 135 133 149 149 147 144 142 146 153 156 155 160 165 176 185 190 194 196 187 195 197 198 199 182 192 198 201 200 202 204 202 201 205 208 210 211 213 212 210 208 210 203 201 201 207 205 196 194 192 180 156 132 118  99  73  64  61  32  27  31  43  27  26  27  27
  26  26  27  27  30  26  34  35  31  38  36  46  47  56  54  55  63  73  72  74  89 108 110 110 118 128 135 135 133 142 146 144 143 143 150 164 177 187 185 179 172 171 177 185 192 185 198 203 194 198 184 187 196 203 207 206 196 192 198 197 195 192 194 199 202 209 211 211 208 204 203 206 203 200 195 189 178 153 126 102  87  69  63  59  37  29  26  44  35  27  27  27
  26  26  27  27  26  25  33  27  32  31  40  40  49  57  42  64  57  57  67  73  86 102 114 109 114 127 131 137 136 138 148 148 152 152 161 169 183 188 187 178 174 169 166 159 163 161 172 193 200 198 189 191 190 193 195 189 184 180 177 176 186 191 198 198 198 204 202 201 206 204 206 206 200 199 193 190 180 154 130 108  74  64  53  53  47  28  25  44  41  30  30  28
  27  27  27  26  28  28  27  25  31  38  43  40  51  43  44  51  50  54  71  79  85  97 109 109 114 123 129 132 134 136 140 147 147 148 155 170 185 193 196 197 196 199 203 200 189 181 171 172 173 193 196 192 194 195 199 193 191 191 192 190 197 202 205 206 207 211 206 201 203 205 207 204 199 193 190 191 184 155 114  91  74  64  51  50  48  30  26  35  45  26  32  29
  27  27  27  27  27  28  29  29  25  33  36  40  43  35  40  35  44  61  70  73  81  93 104 107 115 126 129 133 136 138 138 142 145 150 151 172 182 186 189 195 193 194 195 198 202 203 200 197 190 186 190 196 197 198 197 199 197 190 197 197 206 209 205 207 210 205 204 207 206 207 204 197 196 191 188 195 190 157 106  70  65  63  50  46  43  31  29  30  41  27  28  28
  27  27  27  27  26  28  31  16  22  32  29  36  33  37  37  36  52  62  67  74  80  87 107 110 117 120 129 132 134 135 143 143 144 150 153 160 172 177 187 195 197 200 202 197 196 189 198 198 203 205 192 193 199 199 199 200 191 194 200 200 207 207 207 211 211 207 201 204 205 204 202 197 197 192 189 196 186 164 118  83  66  58  52  48  34  29  30  29  33  30  27  28
  27  26  27  27  27  28  25  13  21  26  25  35  33  34  33  45  55  55  66  72  86  94 102 115 117 121 138 143 136 140 144 144 143 143 153 153 162 173 180 179 183 183 190 202 209 193 182 197 205 206 192 189 195 200 203 204 195 197 203 205 208 207 207 210 210 209 208 211 211 204 200 195 193 194 193 194 184 159 113  73  58  60  59  37  35  28  29  29  31  30  28  30
  27  27  27  27  27  29  20  15  19  20  30  30  31  33  35  47  47  51  59  80  94  97 106 117 116 140 151 152 151 150 154 149 154 155 173 180 173 185 198 204 204 203 196 189 195 209 200 186 204 211 196 190 190 192 197 198 195 199 206 207 210 208 212 217 210 208 205 203 211 208 206 194 192 193 192 196 185 157 114  66  54  55  65  53  39  27  30  28  30  30  28  28
  27  27  27  27  27  28  20  16  20  26  37  31  26  29  34  33  44  59  79 100 101  99 115 116 131 152 154 154 160 174 172 170 160 165 173 177 178 186 198 196 194 199 205 205 189 192 214 213 196 197 198 198 192 195 200 200 198 209 210 212 210 208 202 203 207 212 211 208 200 206 209 198 195 190 195 198 186 175 134  85  59  52  49  52  37  29  30  29  29  29  29  30
  27  26  27  27  27  27  20  13  13  23  26  22  22  26  28  33  49  66  84 101  99 102 109 119 140 148 145 132 145 157 160 162 154 156 151 162 166 175 171 167 172 176 178 193 200 193 204 206 194 188 199 204 194 192 199 198 204 209 204 195 198 206 214 215 215 209 212 214 214 206 205 208 200 194 197 199 184 176 145  81  65  45  41  57  30  29  29  29  29  29  29  30
  27  27  27  27  27  28  23  10   3  11  17  18  20  21  33  39  52  74  88  98  92 101 109 128 137 151 148 129 139 139 142 139 133 129 129 147 150 143 141 142 141 153 167 175 197 194 201 208 190 177 189 202 193 182 192 191 200 201 196 202 204 207 209 213 212 209 209 215 216 215 209 204 201 201 198 192 175 176 156  84  62  36  38  44  29  30  29  29  29  29  29  30
  27  26  26  26  27  27  28  16   7  13  14  15  19  26  36  36  57  83  95  98  92  94 106 120 132 147 133 126 131 142 142 136 123 117 113 111 123 127 120 126 131 147 153 161 178 182 186 199 185 175 174 185 187 180 184 187 194 189 196 209 206 211 207 202 204 204 202 206 202 199 187 191 200 201 203 196 182 173 161  94  57  46  48  41  27  29  29  29  29  29  29  29
  26  26  26  26  27  27  27  24  48  43  12  15  25  35  33  42  64  88  95  96  89  87  89 106 127 130 126 122 133 137 143 139 131 116 105  83  73  83  86 103 125 133 133 150 163 172 178 185 176 166 170 172 166 154 164 177 186 191 178 180 174 170 185 184 181 187 185 180 180 181 184 189 193 195 201 195 180 174 159 102  41  77 110  38  29  31  29  29  29  29  29  29
  27  27  28  27  27  27  25  35  70  70  32  20  25  33  34  43  69  90  96  98  93  85  85  94 106 122 119 122 132 133 146 149 154 155 139 123 112  94  82  83 103 112 116 129 155 159 168 181 167 168 177 179 152 139 152 162 176 172 161 159 143 134 134 138 150 158 161 161 174 186 187 179 192 193 195 190 180 178 156 107  46  69 162  66  20  30  29  29  29  29  29  29
  28  27  27  26  27  27  25  41  56  66  74  36  24  31  31  48  76  88  99 101 102  90  87  90 106 115 119 125 133 139 157 163 172 181 184 181 168 146 122  98  76  85  98 104 130 151 169 186 168 162 195 201 158 135 149 147 152 147 141 138 130 109 103 110 123 138 156 177 183 190 195 198 194 195 187 182 181 182 162 114  59 105 165  71  19  29  29  29  29  29  29  29
  27  27  27  27  27  28  24  45  50  32  81  58  30  33  35  59  93  92  92 100  97  92  82  88  99 110 113 127 136 138 149 163 164 177 185 185 184 176 165 143 104  74  72  74  86 111 149 174 168 160 184 194 190 167 156 142 129 136 135 133 130 126 133 145 161 178 191 201 196 197 196 194 189 186 187 182 182 184 166 105  71 169 146  44  22  29  29  29  29  29  29  29
  27  27  27  27  27  28  23  52  58  24  56  70  34  27  37  77 107 103  91  93  93  90  90  82  79  98 107 110 119 121 126 141 163 186 197 201 208 199 191 183 154 121  88  61  61  59  88 147 170 167 182 196 189 193 161 132 122 110 117 136 146 163 165 176 187 189 194 199 198 199 198 186 185 189 189 182 176 186 165 100  80 166 114  23  28  30  30  29  29  29  29  29
  27  27  27  26  27  27  23  62  69  39  62  71  46  28  49  91 103 121 108  92 110 117 105  87  74  93 103 108 116 139 149 166 180 172 166 160 147 150 164 169 164 139 118  81  61  58  43 110 169 172 197 201 196 193 165 141 126 127 130 142 159 167 174 180 192 203 206 204 205 198 196 191 180 173 176 180 179 182 175 114 126 181  90  18  30  29  30  29  29  29  29  29
  27  27  27  27  27  27  24  74  67  50  78  72  69  42  52  84  94 124 143 120 103 120 145 126  89 103 119 123 141 137 126 101  49  40  39  51  66  69  80  93 115 116 109  91  63  75  55  90 169 176 200 209 209 196 183 149 120 127 135 125 115 100  89  94 111 113 123 141 171 211 201 186 181 178 186 193 187 186 166 100 134 204  80  18  30  29  28  29  29  29  29  29
  27  27  27  27  27  26  29  79  59  66  95  86  76  48  49  94  95  95 122 129 131 123 130 130 114 101 108 104  82  53  41  59  36  55  56  69  80 164 131  64  83 102 122 119  74  86  88  99 168 189 197 206 205 194 185 137 104 117 117 101  80  86  45  51  21  43  21  50  51  90 154 184 178 191 199 198 189 187 166  92 154 213 118  16  30  30  29  29  29  29  29  29
  27  27  27  27  27  26  29  78  64  84 108  90  76  48  57  94 111 103  85  87 105 125 134 132 104  84  72  50  62 100 108 122 104  82  82  99 119 178 151 115  96 101 147 157 104 111 111 113 167 186 195 198 198 191 175 167 174 137 111 115 125 143  90  83  73  63  77 173 118  45  57 137 196 198 190 200 194 183 170 113 167 204 152  20  29  30  29  30  30  29  29  29
  26  26  27  28  27  25  28  77  82  88  81  48  55  59  56  75  92 120 121 124 130 138 147 149 116  84 103 140 125 118 149 154 159 173 167 181 194 188 168 136 129 153 163 138 112 132 127 129 176 189 195 197 197 190 179 178 191 170 144 133 147 165 165 141 111 109 156 170 164 173 125 101 155 194 201 194 193 185 170 144 177 193 170  28  28  29  29  30  30  29  29  30
  27  27  26  27  27  25  24  75  93  88  73  39  46  71  45  72  80  86  90 102 121 132 145 154 145 134 123 129 179 163 160 175 177 184 191 198 198 174 146 128 137 156 157 127 132 142 125 137 174 192 195 198 197 194 186 180 168 165 142 124 139 165 184 201 201 206 202 192 199 185 175 169 155 174 196 199 198 180 171 154 189 193 174  32  27  30  30  30  29  29  29  29
  27  26  26  26  26  26  21  63  94  85  81  48  69  94  43  72  92  99  93  98 136 153 157 157 159 159 164 133 129 167 164 166 157 149 149 154 155 148 133 136 145 148 148 133 141 144 132 134 162 184 196 197 201 199 183 186 183 167 158 133 128 164 181 188 208 204 195 195 195 193 193 193 195 185 188 197 192 185 166 144 196 202 160  28  28  30  31  30  28  29  29  30
  39  38  36  35  33  31  27  52  92  85  73  53  99 123  53  67  79  84  84 107 133 137 133 135 159 152 137 161 157 126 139 137 146 145 150 154 148 137 148 157 150 154 145 138 136 143 147 135 148 173 187 195 200 196 184 184 195 187 180 168 143 143 163 181 198 199 194 195 202 200 196 201 201 203 195 202 190 182 161 146 203 215 145  19  28  31  31  30  30  29  29  31
  61  63  62  60  57  54  49  59  90  99  87  68 109 123  58  60  78  87  91  96 105 116 134 152 144 167 162 147 149 149 151 157 160 170 164 159 156 153 160 160 163 162 145 132 144 149 148 134 144 175 190 198 204 193 186 185 190 192 184 188 179 163 164 161 173 184 196 203 197 196 203 201 202 202 204 201 181 173 159 156 204 213 113  17  31  30  31  30  30  29  28  29
  84  88  92  88  86  83  79  77  91 104  92  85 107 115  62  43  71  82  72  81 115 125 147 141 141 163 176 185 161 165 164 163 166 166 156 151 150 157 170 177 173 154 137 131 146 160 145 136 147 173 191 197 197 190 184 184 185 189 200 203 193 181 177 177 177 171 176 184 183 186 191 198 195 196 198 195 188 171 164 163 209 206  83  19  30  30  30  30  30  30  32  35
 109 113 117 117 115 112 108 104  97 109  98  96 107 104  78  33  64  73  84  95 108 126 137 131 140 141 158 172 178 188 191 189 185 178 172 172 177 177 179 175 160 141 129 126 141 153 142 135 152 168 188 199 198 194 188 179 180 185 197 206 204 191 188 192 188 189 189 191 190 203 203 202 203 197 202 195 182 171 151 160 210 207  76  18  30  29  30  33  38  41  44  47
 132 137 142 143 141 138 134 127 103 119 113 105 109 100  76  35  59  75  84  79  95 123 117 127 132 143 158 161 162 175 182 191 188 186 175 181 184 182 173 164 152 135 130 138 151 156 142 130 149 174 183 191 193 187 188 188 184 185 190 192 203 208 196 191 190 190 194 196 198 198 200 204 205 202 198 200 183 170 154 170 206 203  73  18  30  35  41  45  50  51  52  52
 152 157 162 163 163 158 155 149 110 119 124 114 103  98  77  42  53  70  80  77  93 103 117 140 149 150 161 169 177 182 183 188 192 192 183 182 178 176 172 170 159 146 138 141 153 150 144 145 148 166 186 192 188 181 183 197 188 179 195 198 191 201 201 196 186 197 194 192 199 197 199 205 207 205 197 197 184 164 141 187 208 199  66  21  40  47  52  53  55  56  57  57
 167 171 178 178 175 173 171 168 118  95 128 125  98  89  85  58  47  68  81  88  85  83 126 139 148 156 159 160 174 179 179 186 188 188 187 182 180 178 177 176 167 153 138 131 138 130 143 158 149 158 185 191 185 177 179 189 189 189 191 195 190 191 201 203 190 186 192 192 190 200 205 204 207 206 195 185 179 155 132 205 206 196  63  35  51  56  59  60  59  61  62  62
 177 181 187 186 183 181 180 178 123  97 127 139 106  81  81  77  50  63  80  93  87  97 117 134 142 149 154 160 168 172 178 183 189 180 179 179 177 179 178 181 183 164 128 123 127 134 140 147 154 161 175 186 183 177 180 182 189 189 196 193 195 192 190 199 201 197 195 198 197 205 209 205 203 205 195 171 175 133 158 212 202 190  66  48  57  61  66  66  66  66  66  66
 183 189 192 191 189 187 184 188 133 109 126 129  98  74  72  81  60  61  78  90  89 105 112 127 135 143 154 154 160 168 174 182 179 176 179 178 185 183 184 179 171 139 124 137 139 138 146 141 142 163 179 182 191 190 180 181 185 189 198 199 190 189 192 191 200 201 192 195 202 205 204 205 208 200 187 171 167 154 200 217 208 182  62  58  65  68  70  70  69  69  68  68
 189 194 196 193 191 189 186 194 148 113 122 110  96  90  83  78  67  61  82  94  95 107 114 121 130 136 151 148 154 167 173 178 168 172 178 171 171 175 172 157 128 106 135 150 149 145 159 144 138 173 192 188 187 189 184 183 192 182 194 202 193 193 185 183 197 200 198 194 198 208 204 203 202 197 187 172 164 186 222 222 211 151  57  68  71  72  74  75  75  72  70  69
 187 190 193 191 188 186 188 194 164 111 117 112 110 114  99  78  71  63  78  93  94 103 110 114 125 128 135 138 147 149 151 156 159 160 168 168 168 157 146 133  89 109 142 146 152 153 147 141 165 189 188 192 183 186 187 183 193 185 186 197 196 194 190 191 195 196 201 203 207 205 199 206 197 190 183 172 165 192 215 215 215 125  60  75  78  78  78  79  77  74  70  69
 180 184 186 184 182 181 183 191 162 105 112 121 117 120  92  78  74  65  75  86  90  91  99 110 114 117 128 126 136 144 143 139 152 158 160 155 144 135 131 123  79 116 134 141 144 142 130 131 159 170 179 200 205 194 187 184 193 196 182 177 187 188 192 196 192 191 194 209 215 210 195 202 200 193 183 173 170 206 216 210 210 103  67  80  80  82  81  80  77  73  69  66
 175 177 178 175 174 175 175 186 152  91 107 119 115 104  53  55  78  68  73  84  83  82  86  98  99 112 118 122 127 137 143 141 148 148 139 129 124 132 155 129 101  94  98 102 116 121 108 109 134 148 149 155 187 199 185 169 194 199 187 171 168 178 186 194 193 194 193 205 212 205 202 207 193 190 181 169 175 208 212 213 205  96  75  84  84  85  84  81  79  73  67  61
 169 170 170 168 167 168 167 172 162  87  87 102  93  58  19  41  79  69  72  80  77  75  70  84  90  93  99 107 120 131 134 138 138 142 131 126 133 150 159 141 125  79  41  25  34  75 104 104 113 138 138 135 159 163 152 161 173 156 174 188 163 152 168 177 193 200 195 200 203 199 199 196 189 186 176 165 181 213 186 205 174  79  84  88  90  89  85  82  78  69  60  49
 164 165 165 160 159 159 160 161 172 139  79  62  63  72  38  41  76  71  73  81  83  74  55  59  69  84  92 103 121 126 131 125 121 127 128 126 133 142 149 148 143 115  44  14  12  15  46  85  97 122 129 126 143 149 156 151  86 113 178 200 195 151 147 171 179 183 192 189 195 186 185 184 186 180 171 164 180 215 186 193 117  78  89  91  92  91  87  80  74  61  43  33
 165 164 161 154 152 153 154 157 162 172 162 141 158 162  81  39  70  71  72  85  90  86  63  46  59  78  91 102 113 120 127 122 120 125 121 123 129 139 145 145 147 145 114  62  45  33  22  28  74 103 100 105 128 149 160 149 136 163 180 195 196 188 149 143 154 174 181 180 188 184 180 180 174 175 165 171 172 192 210 153  78  87  93  93  93  91  87  79  65  42  29  29
 165 165 159 150 147 147 150 156 163 169 177 182 181 168  95  30  65  72  73  92  99 107  88  55  60  70  83  99 103 107 113 116 112 112 115 120 133 142 142 143 140 135 134 115  93  67  39  27  43  73  80 108 145 160 167 173 174 180 179 180 186 191 176 137 140 158 165 177 175 177 174 170 167 164 157 175 153 135 153  88  85  92  94  96  96  93  84  74  48  29  29  30
 164 164 158 149 146 147 152 157 167 174 177 177 177 164 120  57  58  73  72  97 110 120 108  66  67  69  84  99 107 107 100 103 104 115 133 131 137 146 144 145 146 139 137 127 117 118  90  56  41  44  85 125 142 155 168 169 175 179 181 176 180 181 180 158 130 143 159 175 171 171 172 164 153 153 167 177 138  56  77  81  91  94  96  97  96  92  83  63  35  30  30  30
 164 164 157 151 148 150 154 159 170 176 180 181 178 172 135  53  55  75  70  91 112 119 124  83  70  77  90 103 105  98  87 103 124 137 141 138 139 145 141 137 141 144 140 137 130 129 135 125 104  95  98  99 128 153 165 165 174 182 187 187 183 187 169 154 137 129 149 159 171 171 167 160 144 159 172 179 127  55  75  84  91  94  97  98  96  90  78  47  28  30  30  30
 162 162 157 151 150 153 156 162 172 180 182 182 181 170 122  56  57  72  68  90 111 117 130 106  72  83  97  93  88  85 107 136 144 149 145 137 133 135 140 130 129 137 138 134 134 134 140 140 133 123 114 112 127 144 156 168 174 183 183 183 189 192 179 152 134 120 125 147 164 172 169 163 158 168 175 178 117  58  79  86  91  93  96  97  93  88  70  37  28  30  30  30
 160 160 157 154 156 158 160 166 174 182 185 188 182 174 152  76  56  69  68  84 111 124 139 119  71  82  95  94  90 106 129 136 141 144 137 124 120 115 123 131 136 134 133 139 147 151 160 167 162 154 144 135 135 146 152 166 170 177 181 185 188 186 184 181 166 130 111 129 158 164 161 170 175 173 173 180 106  60  79  86  91  92  95  94  92  84  61  33  30  30  30  30
 161 161 160 161 162 164 166 171 177 183 187 190 188 184 166  88  59  69  64  80 114 125 137 129  73  84 111 116  99 106 120 128 127 119 112  97  95 105 107 117 134 139 127 139 149 154 158 164 171 168 162 158 165 167 163 169 174 176 181 183 178 175 187 189 183 168 146 120 133 145 160 174 180 179 174 171  91  61  78  83  88  90  92  91  88  80  52  32  30  30  30  30
 164 165 165 166 168 170 174 177 181 185 190 193 192 187 163 119  62  66  61  74 108 123 128 135  79  77 127 143 114  87 106 112 109  90  72  61  68  87  96  96 108 118 119 114 125 146 150 157 166 169 171 170 177 175 175 174 170 169 170 167 170 170 180 186 180 188 187 151 124 155 170 173 176 179 174 167  74  62  76  81  84  87  88  87  83  72  45  31  30  30  30  30
 170 172 172 172 173 176 178 182 185 188 192 196 194 182 179 160  68  60  61  67  93 115 126 130  91  68 117 149 142 103  77  87  86  70  58  45  37  36  43  60  71  89  90  92 106 114 118 127 137 144 147 149 150 153 168 174 172 170 159 165 169 163 162 173 173 186 193 168 143 169 180 172 171 178 176 156  58  63  72  79  81  82  83  81  78  65  41  31  30  30  30  30
 177 178 177 177 179 182 184 186 186 190 194 195 193 190 186 165  72  59  62  61  82 104 117 131 100  63 106 144 155 146 109 108 120 116  92  92 105  88  70  65  80  81  71  78  89  90  97 105 114 116 125 128 135 138 134 136 136 138 132 138 126 103  93 119 149 168 169 162 152 177 181 171 177 179 182 135  44  63  70  73  77  78  78  77  72  59  40  32  30  30  30  30
 183 184 181 182 183 185 188 186 186 189 191 193 193 187 173 150  72  59  60  59  69  97 114 129 115  65  83 134 154 149 143 142 139 129 118 101 109 117 127 128 147 143 143 151 152 148 152 149 141 125 132 143 153 156 148 139 133 140 141 132 144 153 103  73 108 136 154 169 167 183 180 174 179 177 182 101  37  59  65  70  72  74  74  73  66  54  40  32  30  30  30  30
 185 186 185 186 185 186 187 185 183 185 185 187 187 183 182 171  77  61  58  56  61  85 108 119 122  68  63 117 153 152 139 142 145 142 138 130 112 106 109 122 144 147 149 166 178 182 191 190 201 188 194 195 198 203 201 193 186 191 184 177 183 192 189 144 139 156 168 181 182 188 179 177 177 178 172  64  40  55  62  65  67  67  67  64  60  51  38  31  30  30  30  30
 184 186 184 184 184 185 185 181 178 178 177 176 176 180 184 186  83  61  58  56  52  69  96 110 118  81  55  92 133 138 136 134 142 145 145 150 132 113 103 116 127 122 129 135 145 152 160 161 176 185 190 188 187 201 198 189 186 184 182 183 182 188 188 173 173 175 182 180 182 180 177 182 187 180 144  34  43  53  56  59  63  63  62  60  55  49  38  31  30  30  30  30
 179 184 183 181 183 182 180 177 170 166 164 162 162 166 173 181  87  63  60  56  55  56  78 104 117  91  57  68 111 132 137 136 137 146 145 142 142 131 105 103 123 117 122 125 132 140 147 145 147 157 167 162 172 180 180 184 183 182 178 180 186 192 188 186 184 181 181 182 178 176 181 183 180 175 110  22  42  49  52  55  57  59  58  56  53  47  39  32  33  30  30  30
 171 178 178 175 175 176 174 170 159 152 146 144 145 149 155 173  93  62  64  52  58  53  64  88 113 113  73  51  85 119 129 131 134 139 145 146 139 132 119 103 113 120 117 126 130 142 149 155 145 127 155 163 167 171 172 177 182 178 180 186 190 194 191 186 184 182 179 182 181 176 182 179 170 166  73  22  39  44  48  52  53  53  54  52  49  45  40  35  32  31  30  30
 159 163 165 165 166 165 161 155 148 135 125 120 121 126 136 158  94  63  69  54  54  56  55  74 100 122 102  53  55 104 126 124 128 136 143 139 137 131 127 118 116 120 105 119 126 129 140 146 134 117 155 161 161 167 174 175 175 183 188 186 191 193 192 193 190 179 177 179 172 172 176 179 170 149  35  28  38  41  45  49  50  52  50  51  50  46  41  39  33  31  29  29
 140 144 147 148 148 147 143 137 128 115 100  93  93 100 115 138  87  66  74  64  50  59  53  61  88 109 118  77  42  72 117 127 125 130 148 139 131 129 127 125 122 123 118 122 122 127 136 141 138 140 151 157 159 160 170 175 182 193 188 183 187 189 191 194 188 180 178 168 167 171 169 170 172 103  19  33  35  39  42  45  47  50  50  50  51  48  45  42  37  32  30  31
 117 119 122 124 124 123 120 114 105  92  76  64  62  71  90 113  84  74  72  72  50  50  52  51  70 100 113 103  62  47  94 126 130 134 147 145 135 130 129 125 127 136 137 124 135 137 138 150 145 145 154 160 161 162 170 181 188 187 180 184 185 192 198 194 185 179 169 163 168 169 168 158 153  44  25  33  34  38  41  43  45  48  50  51  51  52  49  46  44  37  31  30
  86  89  93  96  97  97  94  88  80  70  55  43  36  45  65  83  76  83  73  76  61  46  50  50  56  88 111 112  90  53  70 111 124 123 136 139 139 128 136 131 130 141 151 149 150 154 154 157 155 157 159 162 163 175 187 186 182 183 185 187 182 193 194 191 185 172 160 169 176 168 156 168  98  18  32  31  33  36  39  41  43  46  50  50  52  52  51  50  50  45  36  30
  55  57  61  64  66  67  65  61  55  46  38  30  26  30  41  55  71  86  79  74  72  51  46  49  52  71 102 117 112  75  58  92 116 127 132 143 140 131 136 138 142 141 155 165 168 178 181 180 180 176 179 180 180 180 186 183 178 183 185 182 180 189 193 187 175 165 164 176 177 164 161 146  33  27  31  31  33  33  36  39  43  46  50  52  52  53  54  55  55  53  46  38
  34  34  36  38  40  41  40  39  35  34  29  29  27  27  28  34  66  90  83  73  76  62  47  43  48  60  92 117 119  92  62  86 110 125 131 144 140 132 140 141 149 151 150 161 168 181 180 182 183 187 189 191 193 186 191 192 182 178 178 183 182 190 195 181 168 170 178 179 172 165 165  61  21  32  31  32  33  31  33  37  42  46  51  52  55  57  57  58  58  58  54  48
  26  26  27  27  27  27  27  29  28  28  27  28  28  29  29  22  62  93  87  76  77  73  57  43  46  53  76 106 121 106  72  73  98 112 126 140 138 136 144 145 146 151 157 155 164 173 179 179 186 182 181 184 185 189 198 189 174 182 190 185 191 189 187 179 168 176 182 175 167 170  90  16  33  30  30  30  30  30  32  36  41  46  51  53  55  58  60  61  62  61  58  56
  27  27  27  27  27  27  27  28  29  29  30  28  27  29  25  10  63  97  90  84  74  77  72  54  41  45  63  88 115 113  89  72  86 100 117 134 138 136 143 142 144 146 153 159 166 168 175 180 183 186 179 182 184 191 196 189 182 191 191 190 191 188 186 173 171 178 181 170 167 105  19  29  31  30  30  30  30  31  31  34  40  45  49  53  56  59  60  62  63  64  63  60
  27  27  27  28  28  28  27  28  29  28  28  28  28  26  13   8  67  99  96  86  78  78  75  63  49  41  48  69 100 103  97  71  77  91 114 132 134 137 141 134 135 140 159 168 168 163 171 181 185 185 183 189 188 195 193 189 195 191 189 190 189 186 179 165 173 180 175 157 125  28  26  31  30  30  30  30  30  31  31  32  38  44  49  53  57  59  59  62  65  65  64  63
  27  27  27  27  27  27  27  28  28  28  28  27  22  17  10   8  68  96  94  86  83  84  79  69  58  47  42  51  75  87  88  74  73  82  98 122 128 135 138 136 136 134 144 172 172 167 177 186 195 187 186 198 201 202 198 197 192 193 188 189 187 180 172 166 174 175 160 162  95  17  31  30  30  30  30  30  30  30  31  31  34  41  48  52  56  58  60  63  65  66  65  65
  27  27  27  27  27  27  27  28  28  28  24  17  15  14   9   8  67  89  97  87  84  82  77  74  68  55  46  42  52  70  80  70  68  77  87 105 124 128 134 134 131 140 140 153 169 172 183 183 192 181 192 200 197 194 197 195 188 192 187 186 185 178 162 169 174 161 151 184  79  18  31  30  30  30  30  30  30  30  30  29  31  36  44  49  53  58  59  61  64  65  65  64
  27  27  27  26  26  27  27  27  30  27  18  17  18  14   8   5  66  93 105  86  83  85  81  75  71  61  51  43  42  49  61  61  61  65  74  96 118 117 123 123 126 129 146 148 159 165 176 188 190 181 180 185 190 192 187 188 188 181 184 191 186 167 157 170 160 150 175 184  56  21  31  29  29  30  30  30  30  30  29  28  29  30  37  45  52  54  56  59  61  61  62  63
  27  27  27  26  27  27  27  28  29  23  20  20  19  19  13   3  63  94 119 109  91  86  85  81  72  65  60  47  42  42  46  52  53  59  61  78 105 113 119 119 121 125 131 135 139 153 162 169 182 174 169 167 180 186 178 177 181 190 191 184 173 157 158 154 142 166 189 171  43  24  29  30  28  30  30  30  29  30  29  28  28  29  32  36  45  51  53  55  57  58  59  61
  27  27  27  28  27  26  26  27  24  22  25  23  20  20  18   8  67  98 117 126 108 104  94  81  76  67  59  52  45  39  39  41  44  51  58  54  80 103 105 110 109 115 114 133 145 146 147 153 156 160 164 175 173 167 169 176 186 190 185 174 153 150 141 130 152 177 186 154  31  27  30  30  28  29  30  30  30  30  29  28  28  30  30  30  35  41  46  51  53  55  57  58
  27  27  27  27  27  26  26  28  25  25  26  23  20  21  19  11  62 106 107 123 116 111 113  92  78  72  64  55  47  44  40  39  39  42  52  50  52  76  90  93 102 109 103 109 125 135 135 140 147 147 153 166 164 154 160 172 179 182 170 156 140 129 127 143 171 180 185 134  22  28  29  28  28  30  30  30  28  28  29  28  29  28  28  28  29  32  36  44  48  50  53  54
  26  27  27  27  27  27  29  24  20  27  26  22  20  23  19  10  59 102 110 117 122 112 124 123  90  73  69  58  52  47  41  42  40  39  40  45  45  49  66  79  86  96  92  86  98 104 116 120 122 128 136 146 154 153 153 150 159 162 148 131 125 134 144 160 181 185 185 113  18  30  30  28  28  28  28  28  28  28  29  28  29  28  28  28  29  28  29  33  38  42  45  47
  27  27  27  27  27  27  26  23  25  26  25  21  22  23  19  10  56  97 119 113 124 117 124 130 107  83  71  61  58  51  43  43  42  41  38  38  41  41  41  54  59  66  75  78  82  80  75  83  97 109 115 120 131 139 138 130 135 123 123 136 149 146 151 171 180 183 190  88  12  31  30  28  28  28  28  28  27  29  29  28  29  28  28  28  30  29  29  30  29  31  35  38
  27  27  27  27  27  27  26  25  25  25  24  21  21  22  20  10  51  98 118 111 124 118 122 129 116  87  72  65  57  51  49  44  44  42  42  39  39  39  39  38  40  41  45  57  55  49  44  40  52  66  68  90 100 101 103  99 107 125 144 158 149 145 164 180 181 183 179  59   2  23  29  29  28  28  28  28  28  30  29  28  28  28  28  28  28  29  28  28  28  28  27  28
  26  27  27  27  27  26  26  25  25  25  25  21  21  23  20   9  47 100 111 118 117 123 114 130 125 100  78  70  63  58  55  47  44  44  44  41  40  40  40  40  37  37  37  39  45  49  46  48  41  37  46  63  71  86  96 110 133 151 156 152 143 154 168 181 188 184 163  35   2  12  22  30  30  28  28  28  28  30  29  28  28  28  28  29  28  28  28  28  29  30  28  29
  26  26  27  26  24  38  27  22  24  24  22  20  20  21  18  10  38  97 104 122 116 124 117 127 130 113  82  68  69  62  54  50  45  45  45  41  40  39  39  42  40  38  44  52  56  67  71  73  89  92 101 103 105 120 129 147 158 158 151 145 151 166 172 179 182 184 145  12   0   4  12  23  30  30  28  29  28  28  28  28  28  28  28  28  28  28  28  28  28  28  28  28
  26  27  25  21  51  74  22  21  23  22  21  20  20  21  19  12  26  91 104 114 122 120 122 126 136 131 104  76  71  67  59  53  48  46  46  42  41  39  37  39  41  39  45  54  65  82  95 100 103 121 127 132 135 141 150 159 155 156 152 153 160 170 176 177 176 183 123   1   1   4   6  11  21  30  29  29  28  27  28  27  28  28  28  28  28  28  28  28  28  28  27  27
  28  26  36  63 100  69  18  24  23  21  20  20  19  20  19  14  18  85 108 106 125 115 121 124 131 137 133 108  84  74  63  56  50  48  48  46  43  43  40  39  40  41  51  56  63  76  91 112 121 135 145 148 152 159 165 161 160 159 159 164 164 174 181 182 179 173  89   0   1   2   4   9  12  21  30  29  29  28  28  28  28  27  28  28  28  28  28  29  28  28  29  28
