P2
# Generated by OpenCV 4.2.0
92 112
255
  69  69  69  69  67  66  66  69  67  67  65  64  65  65  64  64  64  65  64  64  66  66  67  67  66  65  66  65  66  65  66  67  72  79  76  81  84  74  75  76  84  99 102  94  80  73  75  68  72  75  71  73  77  72  65  69  68  67  72  71  70  72  71  74  79  91 101 101  88  61  38  23  18  21  22  23  25  20  21  23  22  22  22  22  23  22  23  22  23  23  22  23
  66  66  66  66  66  65  65  64  64  63  63  62  62  62  62  62  61  61  62  61  63  64  64  63  63  63  63  62  63  63  64  68  67  74  82  88  88  89  97  97  92  84  76  62  63  69  74  74  70  72  80  80  75  65  56  62  62  57  58  61  60  59  59  61  67  83  99 101  86  64  35  17  19  21  21  21  23  22  21  22  22  22  23  23  23  24  24  23  23  23  24  23
  61  61  61  61  61  60  61  59  58  56  56  55  54  56  56  55  54  53  53  54  54  54  54  56  56  55  56  60  59  57  63  68  66  77  82  90  95  90  83  77  73  71  77  85  86  93  87  99  92  93  98  99  91  79  75  75  66  58  57  61  59  59  58  60  66  80  98  99  83  64  32  14  15  15  17  17  17  19  19  19  20  21  21  21  20  22  24  22  22  22  20  21
  58  58  57  56  57  55  55  53  53  51  50  49  49  50  50  49  49  50  51  51  51  52  52  50  48  50  52  49  53  62  70  61  67  77  80  79  80  84  82  89  94 100 110 117 119 122 120 114 109  98 100  98  94 101  90  87  80  72  68  63  71  76  66  63  71  85 104 106  88  64  37  12  10  11  11  11  11  12  13  13  14  13  14  14  15  15  16  17  15  16  15  13
  54  54  54  54  53  53  52  50  50  50  48  47  47  48  47  46  48  48  47  46  47  51  48  47  52  50  48  52  54  73  61  61  67  75  77  88  98 112 117 116 123 131 129 123 122 115  98  86  79  76  76  75  68  74  77  85  87  86  90  91  90  84  78  70  76  84 104 115  94  70  36  10   9  10   8  10   9   9  10   9   8   8   8   8   9   9  10  11  12  12   9   9
  52  52  53  52  52  51  50  50  49  48  48  49  49  48  47  48  48  48  49  48  50  52  52  48  53  58  57  54  52  65  62  66  72  74  90 100 107 108 102 105 113 117 118 121 117 102  86  84  86  87  82  75  68  68  73  72  74  80  88  91  89  83  87  84  84  97 109 112  94  71  46  16   7   9  10  11  12  11  11  10  10   8   6   5   5   6   7  10  11  11   9   7
  51  52  51  51  51  51  51  50  49  48  50  49  49  48  48  51  51  53  57  67  81  79  72  69  61  60  64  60  63  59  56  65  73  76  91  92  87  84  86  95 102 110 115 116 108  99  96 101 100 100  89  77  78  75  80  77  75  77  78  89  90  93  96  84  81  96 115 109  93  74  40  21  16  19  20  24  21  19  16  14  14  13   8   7   5   7  10  11  10   9   7   8
  51  51  51  50  50  49  51  49  49  49  48  48  47  54  55  60  61  70  68  63  74  78  78  94  97  85  85  83  75  69  61  61  68  77  84  76  82  76  74  94 101 111 115 113 108  93  94 109 117 104  90  94  95 103 103  96  94  94  91  91  92  92  95  94  92  97 115 105  94  78  49  27  21  16  14  18  20  21  23  18  14  11   9   8   6   7   9   9  10   9   7   7
  51  50  50  48  49  50  49  49  49  49  49  47  57  59  61  58  59  61  69  73  74  81  99 113 113 114 110  99  85  71  65  56  74  83  69  74  82  66  82  93  92  92 101  94  89  85  98 114 109  93  90  91  89 104 107 102  98  89  85  81  80  79  82  94  98 101 108 106 103  80  44  20  17  11   7   9   8  10  15  20  22  16   6   4   6   7   7   8   7   6   6   6
  51  51  51  51  51  50  50  50  50  48  46  57  61  56  59  51  59  70  75  89 113 130 134 125 109  92  89  85  82  73  54  61  78  70  71  82  71  76  77  80  72  82  84  71  77  83  84  99  93  85  87  79  77  90  96  96  90  81  74  73  77  80  78  79  92 103  99  98  96  82  61  35  23  11   3   4   4   4   6   7  10  14  11   3   3   5  12  18  14   8   6   4
  51  51  51  52  51  51  50  50  50  51  56  69  71  79  79  82 100 106 119 127 121 116 105  96  93  90  76  67  64  72  64  67  76  80  88  82  74  79  71  64  65  74  59  64  68  62  67  77  73  77  75  72  76  91  92  95  99 100  96  84  77  74  81  74  80  81  80  94  97  87  71  54  37  28  22  16  11   5   6   5   4   3   5   8   1   9  20  24  24  16   6   4
  51  51  50  52  51  51  50  51  53  56  69  69  78  82  85 100 119 127 132 127 121 113 104  93  85  77  72  72  64  66  79  87  95 106  99  86  84  79  65  58  69  65  57  64  65  69  71  62  72  74  67  76  81  90  88  82  87  90  95  87  78  78  76  80  76  74  73  85  90  91  88  78  69  58  52  42  29  14  13  12   8   2   0   1   7  18  28  26  23  18   8   5
  52  52  52  52  52  51  53  53  56  66  65  60  68  81  95 104 110 112 111 106 114 106  93  87  84  87  87 101 110 116 116 120 119 118 109  94  93  79  72  64  74  70  73  71  75  79  68  79  83  77  81  83  81  77  68  79  87  90  84  76  68  70  75  72  76  80  82  84  77  86  94  98  98  83  73  58  40  30  26  22  17  10   7  15  32  47  53  53  46  28  12  10
  53  52  52  52  51  51  54  56  64  54  64  74  77  86  86  84  90  97  98  98  96  89  89 103 116 127 124 134 144 142 145 141 142 129 119 114 103  90  89  81  87  89  91  93  94  84  94  99  95  97  95  88  89  87  86  85  93  97  91  78  69  64  62  67  79  79  91  98  97  93  90  89  89  82  91  83  60  42  36  30  26  20  19  40  57  72  80  73  58  40  23  20
  54  53  53  53  52  52  55  62  58  62  65  64  60  63  74  85  84  90 100 111 107 115 107 106 111 119 125 134 145 146 155 149 148 144 136 131 121 115 104 102 109 121 118 117 116 110 115 114 119 113 104 113 105 103 103 101 112 117 105  93  87  68  59  64  59  69  71  87 104 100  87  86  84  77  73  76  73  48  44  42  37  31  38  56  67  79  81  67  55  41  30  29
  55  54  53  52  52  54  58  63  60  54  47  56  71  80  86  78  83 100  96 105 115 111  94  92 104 125 147 151 156 161 159 159 153 161 151 153 136 131 123 123 127 140 144 142 138 135 135 140 142 134 132 130 126 123 120 122 126 127 109 102  89  84  76  69  64  78  78  79  85  95  84  78  81  85  73  66  70  63  49  46  41  38  48  61  69  73  69  63  59  44  33  42
  54  55  54  53  56  54  59  58  50  52  65  72  77  88  91 101 118  96  87 105 110  90  84  98 131 153 159 160 166 171 165 168 167 169 169 169 161 157 160 148 137 147 160 161 157 157 163 167 162 152 144 147 144 145 152 150 149 141 125 107  82  78  95 103  90  78  80  82  88 113 111  89  73  78  84  66  68  61  53  46  43  47  56  60  62  60  60  72  70  58  42  46
  54  54  53  53  55  48  52  58  68  77  79  81  80  82  97 107  81  73  97 122  91  76 100 139 158 164 163 165 168 169 169 175 173 175 182 184 178 178 182 172 164 167 173 167 173 179 185 184 181 177 171 163 164 168 171 177 172 156 148 141 112 104 117 113 114  95  71  67  71  87 108 119 102  75  79  79  69  67  42  50  41  46  59  63  65  64  88 101  95  80  54  44
  56  56  54  54  55  57  62  67  74  71  80  78  72  82  80  67  70  88 124 106  97 114 134 151 159 163 163 166 166 173 175 175 178 181 182 186 188 181 187 189 184 181 180 180 189 186 189 191 188 186 183 182 179 177 177 178 178 175 170 163 151 146 144 143 137 122 102  76  58  56  74  95 109  99  86  81  64  70  48  41  42  42  53  61  74  98 133 127 114  97  55  40
  56  57  55  59  65  62  66  71  68  74  65  56  61  59  56  68  92 119 109 105 116 140 157 158 160 160 163 164 168 173 174 174 180 183 183 183 188 184 190 190 187 185 187 188 183 189 191 190 186 183 181 179 181 179 182 181 179 182 180 174 173 172 164 163 149 144 128 105  79  47  37  63  90 105  91  79  78  68  71  42  41  39  45  61  86 117 140 136 119  90  41  36
  57  57  60  66  60  67  67  68  67  57  47  47  53  58  69  89 105 104 117 108 128 149 152 158 160 164 162 165 172 171 177 179 181 185 187 189 191 191 189 189 188 189 190 186 185 190 190 186 182 180 177 179 178 177 178 178 176 175 172 170 173 176 178 170 165 162 156 141 116  85  42  33  63 111 119  86  82  81  81  56  39  43  45  61  87 111 128 130 107  64  29  33
  55  59  63  61  70  70  72  65  53  45  49  55  64  71  71  74  73  95 101 112 142 148 147 154 160 165 165 168 173 176 181 176 178 180 184 189 188 188 187 190 186 187 191 189 189 189 190 185 184 179 179 181 179 178 175 175 173 171 169 170 170 170 170 178 171 164 162 156 140 114  96  61  30  52 116 112  76  83  83  74  59  53  50  55  76  97 109 102  79  41  30  35
  60  59  64  68  80  78  65  59  58  60  62  60  50  50  58  59  69  79  92 131 140 151 156 158 166 165 167 167 173 173 175 173 175 180 183 181 187 188 187 191 191 188 185 192 190 188 189 188 188 184 184 181 176 180 179 174 175 173 173 169 169 169 169 170 174 168 164 161 151 134 120 104  68  43  64 110  98  78  83  81  70  60  55  53  62  69  76  70  55  35  32  35
  61  65  61  52  52  54  54  54  48  47  45  39  44  55  52  53  79  79 111 130 140 158 156 162 164 165 167 166 168 171 174 177 176 174 180 185 187 188 185 188 188 190 191 190 189 190 188 188 188 190 187 184 178 181 178 175 175 174 171 169 169 170 171 168 171 166 166 167 157 146 140 124  95  88  68  84 112  87  70  81  73  71  60  53  53  60  58  51  41  31  31  33
  61  68  53  43  28  32  42  45  43  42  47  45  47  41  44  67  79 100 126 131 142 159 157 162 158 159 169 167 171 174 172 173 178 177 178 181 183 186 186 185 188 189 190 189 190 193 191 192 188 192 192 188 185 186 188 184 181 174 173 170 168 168 168 164 170 171 173 171 165 155 146 138 109  93  97  87  94 101  73  70  82  84  73  58  49  53  52  46  36  31  31  31
  75  65  48  30  31  33  26  42  45  48  45  44  43  47  54  74  86 113 129 129 149 157 155 157 154 159 172 167 164 168 170 176 177 180 182 181 177 187 190 191 189 191 191 191 191 190 192 193 195 194 189 188 188 193 192 183 181 177 178 173 169 169 167 171 169 171 169 174 166 161 151 136 117  92  93  94  94  99  83  67  79  82  72  58  55  50  45  43  40  32  32  32
  69  59  49  27  26  33  42  45  44  43  42  46  47  48  67  80  98 122 128 132 153 159 157 162 157 164 171 160 157 167 176 178 181 188 192 191 191 191 195 197 195 196 196 196 195 195 195 194 197 196 191 193 191 195 194 188 184 176 174 181 174 171 170 170 172 170 165 170 164 168 155 137 117  96  87  83  87 107 100  75  68  80  68  57  60  55  45  41  38  34  32  34
  68  59  57  42  41  41  44  43  50  57  57  51  41  56  82  83 104 121 125 136 150 156 159 158 155 163 167 166 168 172 179 186 192 193 195 187 191 191 197 197 197 196 193 192 197 200 196 201 205 199 195 198 195 196 199 199 193 187 182 183 178 174 169 165 168 170 169 168 168 172 161 140 112  93  84  84  81  83 103  86  70  79  70  59  58  54  44  38  36  35  35  35
  64  60  60  43  34  40  39  48  50  52  47  42  49  81  78  95 111 119 130 140 153 158 160 156 162 170 170 173 176 175 182 184 189 190 189 189 193 197 198 195 200 199 195 200 205 206 200 200 207 203 198 197 199 195 196 195 195 188 187 187 179 175 172 167 167 168 171 167 168 171 167 141 112  98  79  66  81  96  92  87  80  64  72  58  52  44  41  36  35  34  34  35
  61  62  61  43  52  63  62  59  59  65  52  50  70  85  99 105 105 118 130 136 153 157 160 160 163 173 171 173 179 178 179 180 189 192 194 196 194 194 197 200 200 202 201 210 211 208 199 198 206 201 196 193 196 194 197 196 197 190 184 186 176 173 170 166 162 167 169 166 166 166 168 153 123 103  91  74  60  83 100  76  80  67  60  49  46  46  33  31  31  31  32  35
  74  74  58  49  62  50  38  37  47  64  52  63  91  90  83  88 109 121 134 141 148 161 163 158 162 169 164 169 175 181 181 178 187 193 203 201 203 203 198 200 204 207 209 211 209 207 200 196 200 198 197 197 198 201 200 198 192 186 180 178 179 172 165 170 165 161 164 166 164 167 169 155 131 104  87  78  75  69  88  78  66  75  68  53  42  34  28  27  27  27  30  31
 108 103  59  47  33  30  51  58  52  61  85  92  87  81  83  94 109 123 134 141 151 160 164 157 164 165 162 170 172 178 182 182 187 192 198 198 203 209 210 208 211 215 216 203 203 197 188 185 198 200 198 197 200 201 202 201 195 189 181 177 176 173 164 169 167 164 164 166 161 167 169 154 135 115  89  69  68  86  89  92  65  72  73  52  32  27  26  24  24  24  27  28
 135 125  52  40  35  50  87  98  88  99  91  80  64  72  87  92 105 120 138 143 152 158 164 163 166 168 164 167 168 175 181 177 185 195 197 188 190 188 192 195 195 193 201 195 194 197 197 183 196 199 199 202 202 202 197 195 193 186 180 183 177 174 172 163 162 159 162 169 166 164 163 159 137 112  91  73  60  73  84 108  86  60  75  64  36  25  26  24  24  25  26  27
 157 129  43  33  43  63  62  77  69  53  62  71  73  75  85  91 105 120 142 145 152 160 163 166 168 170 165 165 167 174 180 176 186 193 190 190 200 198 200 199 196 195 194 190 186 192 195 193 200 200 202 205 207 205 197 187 186 182 178 178 180 173 171 168 166 162 161 164 164 162 160 157 143 113  91  81  67  62  76 113 110  56  67  79  50  24  26  26  26  26  26  27
 151 122  41  33  64  67  72  43  52  75  79  73  68  70  87  95 108 125 140 141 148 161 168 167 167 168 171 169 168 173 182 184 188 183 187 188 187 188 198 203 199 199 194 182 177 176 182 191 189 188 191 197 199 196 191 183 178 175 172 170 174 171 172 170 166 162 162 162 159 158 159 153 140 116  97  82  74  72  78 103 133  70  50  70  53  31  28  24  25  25  25  25
 121 104  39  50  67  32  32  73  76  73  72  62  60  80  90 101 114 115 136 139 146 162 166 164 166 173 173 167 167 168 171 172 172 172 175 181 184 185 193 191 195 202 196 180 182 187 190 191 190 192 189 194 199 196 187 188 182 179 178 179 170 168 168 167 169 167 165 165 162 161 157 152 135 104  85  85  78  77  85  95 131  99  43  58  59  28  23  22  22  22  22  23
  79  76  43  68  54  28  53  75  80  82  76  68  72  77  92 107 107 110 134 140 144 159 163 161 167 172 168 164 167 167 170 174 175 173 175 177 189 195 199 186 195 203 198 187 183 198 202 198 192 196 195 193 199 199 189 183 176 174 175 182 176 175 170 163 162 162 164 165 161 161 155 146 133 103  82  74  71  75  97 107 104  98  56  55  57  30  17  19  19  19  19  20
  41  43  50  71  46  66  83  70  73  75  69  71  69  77  93  96 108 116 133 142 144 155 166 166 164 170 170 171 170 172 179 190 189 183 177 171 170 169 172 171 180 196 197 191 180 198 198 193 190 186 174 176 185 176 173 167 168 167 166 172 170 170 171 170 168 166 162 160 161 157 151 142 133 105  86  78  68  71  88 118  98  90  71  68  45  38  16  13  13  14  15  17
  25  26  53  63  56  70  64  71  68  62  62  63  69  76  90 100 110 114 129 143 144 158 163 164 163 168 169 173 166 172 183 190 191 189 188 193 196 191 179 171 163 162 174 185 179 176 178 178 175 169 166 167 169 167 174 181 187 181 175 179 174 164 167 169 166 168 163 161 156 156 150 140 129 105  90  77  74  73  84 116 107  83  72  71  66  42  26   9  10  12  13  15
  26  23  46  58  55  53  56  55  45  42  54  68  73  81  95  97 104 114 128 142 148 160 161 164 166 164 168 171 169 176 186 190 190 193 194 195 196 196 199 194 189 184 175 176 183 184 189 191 186 186 184 183 190 194 198 194 190 181 176 176 167 170 170 172 168 166 161 158 155 149 151 141 120  98  84  73  65  75  85 108 107  79  64  61  76  74  26  14   7  10  11  13
  30  27  46  56  55  71  69  59  62  68  62  65  74  84  85  90 100 113 128 142 154 159 161 167 165 166 172 172 173 174 180 187 189 195 200 199 202 196 192 190 195 193 194 198 187 192 196 195 191 186 188 191 192 196 198 197 188 182 178 176 168 164 172 169 168 165 162 160 158 153 149 146 120  94  82  73  63  66  87  96 106  65  60  65  63  54  24  15  12   8  11  12
  51  49  57  56  67  66  55  45  51  58  57  62  70  75  69  80  95 107 123 143 155 152 168 168 168 169 170 171 169 176 177 182 186 186 192 192 197 205 202 193 185 197 196 187 184 190 193 197 193 191 188 193 198 200 199 198 198 187 179 174 171 174 172 166 165 163 157 159 157 154 154 147 117  91  75  75  68  69  94 100  97  60  51  61  67  27  12   9  18  12  10  11
  57  55  60  62  60  42  36  41  50  54  56  60  64  68  69  77  91 118 129 144 150 161 174 176 175 174 170 175 180 189 187 184 193 201 202 207 208 199 200 204 195 192 201 199 184 183 186 189 190 188 191 200 202 206 201 193 191 184 180 178 171 168 172 173 171 164 159 155 159 155 153 147 121  90  73  62  60  74  93  93  83  52  38  56  68  30   9  10  11  20  12  12
  49  49  67  64  52  45  68  73  60  51  51  62  62  67  73  79 107 130 134 143 157 175 176 175 179 181 180 181 184 183 184 188 192 195 193 200 207 209 198 200 206 201 197 198 196 194 195 198 199 197 197 200 200 199 194 189 184 185 181 183 175 173 166 167 175 166 160 157 154 155 152 148 124  92  75  62  53  72  96  84  76  49  32  48  81  31  11  13  10  14  19  12
  31  40  62  63  49  47  50  43  41  53  54  63  64  63  64  97 124 133 137 144 164 176 177 172 171 174 179 178 175 177 182 183 184 177 168 180 188 196 198 201 202 198 198 194 198 203 197 200 200 199 200 197 191 191 195 197 199 191 186 180 180 176 177 172 166 169 162 163 155 154 157 155 124  95  81  63  59  76 102  82  56  49  29  41  68  20  11  12  12  10  16  17
  20  40  52  55  27  25  45  48  49  53  54  56  58  54  65 104 126 130 133 154 168 173 168 165 164 173 181 171 171 175 178 173 173 166 161 168 184 194 190 194 199 201 193 194 194 200 192 196 200 197 194 191 201 202 196 197 199 189 188 182 188 184 180 179 171 172 164 164 163 158 160 153 129 106  93  65  55  86 101  82  50  48  42  56  47  14  12  11  11  10  10  13
  44  20  52  44  31  40  50  70  60  60  58  46  56  46  71 112 130 124 130 154 165 167 163 162 163 167 163 164 175 160 154 148 153 151 156 173 165 180 176 184 193 188 185 194 185 185 182 183 187 190 195 197 192 188 181 179 189 191 182 179 175 178 172 175 172 168 168 165 167 160 157 147 132 112  98  69  58  82 106  75  50  49  55  67  54  15  14  10  11  11  11  10
  14  19  52  50  43  40  47  53  46  52  40  45  53  50  88 123 136 124 128 137 151 154 141 148 164 162 158 158 152 139 131 124 127 133 145 168 160 163 174 185 186 183 179 187 180 174 169 170 179 186 191 186 176 175 161 148 161 173 176 174 167 169 177 172 160 160 159 167 167 168 158 146 131 113  98  71  59  81 106  76  49  49  62  81  46  23  19  11  11  11  10  10
   7  35  43  46  31  52  50  33  45  44  34  46  52  67  91 123 139 127 116 119 139 148 153 154 150 161 172 180 186 178 174 167 153 142 138 147 154 158 165 171 179 183 181 182 185 177 169 164 172 176 171 165 159 146 137 127 134 148 149 151 152 157 170 165 150 149 155 161 169 168 160 144 131 114 101  78  50  75 100  71  47  46  51  70  51  52  14  11  10   9  10  10
  30  23  39  41  40  49  41  50  58  37  34  45  58  67  93 125 143 134 119 131 139 139 153 149 162 172 178 180 187 190 192 191 183 169 150 138 140 146 153 167 178 187 186 179 185 177 166 166 180 175 153 149 143 133 123 114 113 125 131 141 154 157 155 158 145 137 147 158 164 162 151 139 131 121 101  75  53  68  92  60  44  54  51  61  61  24  12  16  15  14  10   9
  19   8  19  39  42  27  52  58  36  38  43  44  64  72 105 125 142 136 128 130 133 139 145 153 160 162 167 172 182 186 188 189 184 182 168 145 128 127 134 147 164 185 192 184 183 167 169 186 184 160 140 133 130 131 132 148 162 171 176 181 188 178 171 173 160 147 152 140 145 157 142 138 136 123 103  74  51  65  82  52  44  62  76  74  57  18   9  13  11  11   9   8
   5   4   3  19  44  51  45  30  37  56  42  43  68  82 122 129 135 132 130 126 131 135 147 153 157 157 163 170 177 186 186 185 181 179 173 165 150 132 118 122 128 166 190 186 191 180 177 178 150 127 120 115 125 144 165 181 188 189 193 187 182 174 171 168 166 152 147 133 136 146 142 141 140 123 111  79  45  70  64  46  60  55  74  74  61  17  10  12   9   9   9   7
   3   3   5  13  35  32  23  31  31  57  45  31  66  92 130 145 132 142 137 134 133 138 149 148 153 148 130 114  99 107 105 106 124 138 147 153 151 143 126 120 125 140 180 186 194 184 182 156 121 118 113 133 156 161 172 174 171 167 164 172 170 168 167 167 154 147 137 127 127 140 145 148 140 127 111  78  48  62  59  60  57  67  74  69  48  22  10  11   9   8   7   5
   2   3  12   7  20  36  26  26  24  40  41  27  59  96 141 163 145 140 167 168 150 145 144 148 120  78 104  97  52  76 103  79  86 119 112 133 140 138 132 119 137 142 172 185 193 189 181 145 128 125 124 144 154 150 135 126 108  83  96  86  79  89 109 148 160 149 137 126 120 137 143 160 141 140 115  81  52  48  52  65  76  83  78  74  70  24  14   9  10   9   7   6
   3   3   2   2  16  40  37  26  58  61  36  36  60  96 138 158 156 150 161 167 161 150 140 101  82 101 128 130  89  87 101  92 127 162 116 117 141 153 167 138 141 144 171 181 188 185 174 141 132 122 136 141 129 113 101 135 143  75 105  87  61  55  99  82 110 146 143 129 136 143 154 155 146 150 124  89  44  59  55  61  73  67  66  71  69  39  11   8   9   8   7   7
   3   4   4   3  13  36  42  25  83 114  42  46  76 116 144 139 137 152 166 168 151 122 117 120 143 168 163 161 167 165 168 164 166 158 144 134 151 181 182 150 148 143 173 179 178 179 169 146 129 128 174 164 120 122 132 152 165 105  94  78  67 102 132  90  82  95 140 154 149 152 158 158 152 144 144 106  52  48  56  54  48  51  69  73  72  36   5  11  10   7   8   8
   4   3   5   4  10  22  47  31  97 152  69  58  73 113 152 157 153 164 174 176 157 141 149 167 174 177 181 182 190 193 197 181 157 155 156 161 178 181 163 145 146 149 177 184 179 177 166 148 134 133 168 175 165 151 154 164 172 176 160 134 137 150 149 143 117  86 111 145 148 155 158 155 146 159 156 131  89  54  61  56  32  40  49  64  87  39  10  12   7   6   6   6
   4   4   2   6   6   6  33  32  90 163 109  79  57 104 136 142 146 165 171 174 172 170 167 163 171 169 172 170 170 172 165 160 155 152 158 165 174 170 155 148 143 149 174 183 181 177 166 147 136 133 144 177 170 150 149 166 184 189 192 189 182 168 164 157 151 142 128 123 139 160 164 161 160 155 157 133 101  67  75  74  49  46  52  58  61  16   2   3   3   4   4   4
   1   1   0   2   0   0   5  14  82 167 125  97  55 112 139 146 164 178 174 176 179 171 173 178 161 160 161 167 166 166 163 168 171 170 174 169 171 161 146 147 147 152 169 173 173 175 167 140 134 138 143 160 174 167 150 152 169 177 185 180 167 160 166 173 157 161 163 158 149 159 168 162 147 152 172 133  98  69  77 109 109 123  61  25  12   1   1   1   1   1   1   1
   0   0   0   0   4  26  79 123 111 147 137 112  62 109 132 146 155 163 170 181 181 176 168 168 162 164 166 171 176 174 176 176 178 174 173 173 172 155 144 150 149 148 161 170 171 178 162 136 137 140 151 156 166 169 172 165 165 168 171 174 179 178 179 165 160 170 175 174 173 168 176 172 168 166 170 129  88  72  98 125 140 165  55   1   2   1   1   1   1   0   0   0
   1   0   0   7  45 111 189 210 148 131 158 146  74 105 139 133 139 160 177 180 179 185 184 166 164 164 166 168 174 173 171 174 175 178 179 179 166 148 145 158 149 146 160 170 175 172 155 132 137 138 141 161 170 168 171 171 175 174 166 159 153 157 154 153 160 159 164 167 167 171 175 170 151 154 155 131  94  86 139 146 140 160  37   0   1   1   0   0   0   0   0   0
   0   0   0  27  67 142 193 204 144 135 172 177  86  95 137 134 144 157 167 166 179 181 179 178 184 184 178 175 175 177 175 176 179 181 185 173 154 139 146 157 150 152 159 169 177 167 152 134 137 136 133 152 177 189 177 166 171 174 174 171 162 162 165 164 167 166 173 169 166 172 161 161 151 138 147 122  96  92 155 150 145 148  18   0   1   1   0   0   0   0   0   0
   1   1   6  32  70 130 181 169 135 136 179 169  73  89 133 136 139 152 147 163 171 174 179 181 183 182 182 177 178 176 180 186 186 177 171 158 149 148 155 159 148 155 159 165 174 164 149 136 138 132 135 147 165 189 195 180 173 168 172 178 173 172 168 170 170 173 178 175 171 171 167 141 141 136 134 119 100 113 167 155 153 121   1   0   0   0   0   0   0   0   0   0
   2   1   7  27  56  94 124 124 112 139 173 173  90  83 133 116 132 150 149 168 173 179 184 184 178 184 187 182 188 184 182 186 183 180 167 159 157 162 166 159 148 152 163 168 172 158 145 131 136 143 137 144 160 180 192 199 187 178 171 173 174 170 176 177 174 178 182 176 170 166 174 153 128 122 128 104  91 129 187 168 161 114   0   0   0   0   0   0   0   0   0   0
   1  15  26  35  49  59  64  80 100 151 168 153 118  71 115 118 130 132 153 169 179 176 177 183 183 186 187 182 188 191 185 183 179 180 174 170 167 163 161 150 151 153 159 172 172 161 147 131 132 147 146 146 158 172 184 193 197 189 183 177 171 178 177 177 181 175 173 177 169 164 156 153 126 115 122  98  87 125 177 172 170 105   0   0   0   0   0   0   0   0   0   0
   1  14  32  36  44  50  52  68  90 157 157 155 136  66  91 123 141 135 154 165 172 177 179 179 179 184 187 185 184 183 183 181 185 187 186 183 164 149 144 148 153 152 156 167 165 158 150 138 130 140 152 155 161 168 181 190 191 192 190 187 180 179 177 178 182 178 170 164 165 164 143 143 131 113 111  92  93 114 157 163 172  90   0   0   0   0   0   0   0   0   0   0
   0   2   8  26  40  56  73  87  86 153 163 171 157  96  71 129 140 141 152 159 169 177 172 170 180 186 188 189 193 185 186 191 193 190 183 172 149 145 143 152 154 149 160 162 160 159 147 137 132 140 140 155 168 173 174 181 185 185 191 189 182 180 175 178 183 177 173 167 160 158 144 134 132 112 110  78 110 132 157 155 177  71   0   0   1   0   0   0   0   0   0   0
   0   0   0   8  39  66  73  66  64 138 170 176 167 125  81 135 135 146 146 156 168 169 164 174 177 182 188 188 192 186 187 186 183 173 159 149 148 153 153 160 152 148 161 171 166 159 150 141 134 150 142 143 169 179 178 181 182 180 185 191 187 187 179 177 178 171 169 161 161 159 144 136 133 105  92  76 113 154 158 167 176  58   0   0   1   0   0   0   0   0   0   0
   0   0   0   0   6  38  56  63  61 125 175 165 161 140 122 131 132 141 144 153 162 162 162 166 164 170 180 184 185 189 188 170 161 159 166 150 155 158 161 162 154 165 178 184 173 161 152 144 136 154 151 138 160 181 187 187 184 185 183 184 188 187 187 182 173 169 166 163 159 158 156 140 131  94  77  88 137 177 164 183 156  21   0   0   0   0   0   0   0   0   0   0
   0   0   0   0   2  17  30  26  34 110 172 167 151 155 150 120 131 134 139 145 157 162 159 164 163 168 177 184 182 171 158 150 163 182 174 147 156 158 159 152 153 173 188 197 191 173 156 147 140 150 159 142 143 171 185 188 185 185 183 184 179 176 186 182 171 167 167 165 164 162 151 145 128  97  81 132 180 178 167 179 118  28  14   3   0   0   0   0   0   0   0   0
   4   3   4  13  10   7  10  25  40 111 166 161 150 168 157 116 129 126 130 135 155 157 155 159 164 169 174 181 170 150 146 167 187 184 172 133 135 145 146 142 145 162 172 174 181 174 155 142 139 150 154 137 138 173 174 174 180 179 183 187 182 174 185 179 166 167 163 158 159 166 143 141 125  96  99 154 170 161 170 176  70  40  34   9   0   0   0   0   0   0   0   0
   9   8  10  13  11  17  26  31  25 102 164 154 158 177 158 117 127 122 120 135 143 147 151 162 168 166 173 168 158 146 160 180 172 163 157 128 101 108 120 141 142 146 162 151 158 156 135 125 134 138 132 127 138 181 182 167 163 173 185 186 179 174 171 170 161 160 160 161 153 153 141 137 128 108 137 156 155 163 183 151  38  19  13   5   0   0   0   0   0   0   0   0
  10   8   8   9  19  25  21  28  27  49 152 152 166 172 105 114 129 125 104 117 136 142 151 163 163 167 166 164 151 152 161 162 161 156 152 144 127 106  92 106 131 141 147 140 146 134 124 125 108 105 109 105 146 174 174 180 164 166 174 171 176 167 163 165 158 158 155 149 145 141 135 129 119 127 163 147 159 173 183 106  15  14  14   6   1   1   1   2   8  11   7   3
   6   7   6   7   8  10   8  38  19  11  80 133 143 105  40 124 137 131 114 107 127 139 147 154 156 162 157 149 150 154 161 158 158 161 152 151 144 130 122 105  99 125 132 128 131 120 101  90  80 102 113 128 153 157 163 162 169 159 156 163 166 162 158 159 157 151 145 136 135 130 127 131 120 136 161 154 171 176 149  41   6   6   8   3   3   4  11  21  28  28  22  13
   1   1   2   2   2   6  16  28   9   9  20  52  51  17  29 126 149 152 131 107 119 132 137 143 152 155 146 142 157 155 165 163 157 160 155 152 148 134 133 130 121 121 119 122 118  95  91 106 114 117 134 138 146 149 152 152 158 159 156 161 158 157 160 153 151 146 138 129 124 120 118 135 118 107 161 153 176 148  66  24   8   6   5   6   7  13  26  37  45  44  37  26
   0   1   0   0   0   5  12  11   3   6  22  30  23  17  28 126 157 162 149 114 117 130 134 139 147 140 130 152 163 163 164 159 156 156 152 156 155 146 140 142 135 130 125 123 120 112 123 126 129 132 137 141 151 153 147 152 148 142 150 151 155 156 154 153 145 139 133 122 110 116 126 136 115  63 133 149 141  87  30  26  21   6   4   5  12  26  40  52  61  57  49  38
   0   0   0   0   0   0   7   5   0   2  15  21  29  22  29 119 155 166 163 127 124 132 139 139 140 134 154 168 169 163 155 151 152 153 156 158 159 160 155 152 152 135 123 124 117 123 136 142 137 138 132 144 154 153 150 151 148 143 141 134 134 145 142 144 142 136 134 122 109 128 134 135 117  35  65  90  55  44  31   6  11   6   3   6  18  37  54  67  74  71  59  45
   0   0   0   0   0   0   4   3   1   5   5   9  24  17  19 113 156 166 173 135 129 141 139 133 130 157 174 172 168 160 151 144 151 153 161 164 161 164 166 167 163 158 155 151 150 155 154 151 139 141 143 145 152 149 144 149 153 157 163 141 127 123 130 139 140 136 137 120 125 150 142 136 111  30  21  25  22  23  25   3   2   2   2   8  26  49  67  80  87  80  66  52
   0   1   0   0   0   0   0   4   5   1   4   5  11   7   4 109 158 168 182 146 129 150 150 141 144 162 163 158 160 162 150 144 153 156 157 169 162 161 165 169 178 185 179 176 178 179 173 155 143 147 152 151 150 146 141 145 156 164 166 165 155 134 113 126 127 124 135 118 149 163 145 136 108  13  14   2   4   3   6   4   2   3   3  14  39  63  81  95  99  91  77  74
   1   1   1   1   1   1   1   2   1   1   7   5   3   1   2  99 151 163 180 165 130 157 163 147 143 152 161 152 146 145 142 138 154 155 152 156 153 153 154 168 184 190 184 183 191 191 182 160 153 154 152 150 150 147 148 145 153 162 166 173 168 153 135 127 130 128 127 122 160 162 142 133 104   1   3   1   1   1   1   1   2   2   5  23  51  77  98 111 112 100  89 121
   1   2   2   2   4   3   3   3   3   3   5   5   5   4   2  86 148 163 173 173 133 153 171 168 146 144 143 135 110  78  89 109 116 122 121 129 134 133 138 145 157 176 187 184 183 176 161 150 156 160 157 154 145 145 146 143 144 151 158 159 162 154 138 144 157 138 130 129 165 158 135 135  96   1   1   1   1   1   1   1   1   2   9  35  67  95 115 125 124 109 111 179
   5   4   3   5   5   5   6   6   7   7   6   7   7   8   1  68 140 152 165 173 143 149 177 182 164 135 127 125 130  96  36  73 110 109 104 106 116 112 123 124 125 133 144 148 143 139 142 139 138 139 139 144 136 139 136 131 125 118 121 129 133 128 135 157 166 153 134 138 172 155 132 134  85   2   5   3   2   2   2   3   2   2  15  48  82 111 130 139 137 119 134 200
   6   4   4   5   5   6   9   9  10  10  11  11  12  12   5  51 128 140 156 173 150 136 179 187 183 163 153 164 167 160 118  86 117 143 156 155 180 139 147 136 111 122 121 112 113 112 117 116 111 102 108 100  96  94  90  65  46  92 115 123 132 149 168 175 171 156 126 157 174 151 130 134  77  15  10   8   3   3   4   3   3   4  24  60  98 128 147 153 149 128 141 200
   6   2   3   4   5   8  11  12  13  13  14  14  16  17  12  42 115 133 151 171 169 128 166 181 180 177 177 175 173 158 151 137 119 108 122 134 202 191 193 207 169 187 176 146 152 161 145 148 161 157 171 151 117  91  72  72 109 139 159 165 168 174 180 180 171 141 128 168 164 140 124 124  88  51  19  10   6   4   5   4   3   8  34  74 114 145 161 165 161 142 137 181
   7   3   2   4   6  10  12  15  16  17  16  17  17  19  16  29 103 124 143 164 173 129 150 178 183 178 182 174 170 163 159 154 142 126 116 116 148 142 162 189 186 200 199 183 192 195 177 192 170 150 140  91 106 102 108 137 161 156 167 173 175 176 177 176 166 124 149 172 155 133 120 122 112  71  32  10   7   6   7   5   4  13  44  88 130 159 173 176 171 154 133 151
   8   4   2   5   8  11  13  14  14  16  16  17  18  18  17  16  81 113 132 152 163 139 135 173 183 175 173 173 170 164 162 160 144 148 146 146 140 141 147 161 167 173 163 149 163 164 146 138 124 114 112 117 125 135 146 152 161 168 173 170 172 173 174 172 150 124 167 165 152 129 110 148 190  80  34  13   8   7   7   6   6  19  55 100 145 170 183 185 180 163 137 123
   9   7   5   7  10  11  12  12  11  11  12  13  14  15  15   8  60 110 123 145 161 147 125 160 172 175 176 175 172 172 164 160 153 147 148 152 155 161 164 172 174 178 183 183 181 168 165 154 145 150 137 136 140 141 150 160 167 168 171 171 175 176 176 165 133 133 167 157 138 122 110 182 244 100  27  12   8   8   8   6   7  25  64 113 156 180 192 193 187 171 145 112
  11   9   7   9  10  11  10  10   8   7   8   9  11  11  12   6  33 101 113 139 159 159 125 143 168 173 172 171 175 170 163 161 156 150 148 151 151 158 175 177 181 184 183 187 184 176 173 166 155 147 150 146 138 146 156 162 165 169 170 171 177 178 173 157 120 154 162 148 127 112 105 202 241 101  24  13  10  10  10   9  11  32  73 125 165 188 199 200 192 178 151 113
  13  11  11  12  13  12  12  10   9   7   8  11  10  11  11  10   9  82 108 125 151 158 134 129 160 167 168 166 171 166 163 164 152 150 159 149 149 152 155 161 165 177 181 179 177 176 171 166 152 145 142 140 141 152 157 160 165 167 169 173 170 175 163 127 127 161 149 142 122 103 112 228 195  75  22  16  15  16  14  12  15  37  82 133 172 195 203 204 197 181 155 115
  15  13  13  17  17  15  14  11   8   8  11  12  12  12  12  13   6  54 105 112 142 159 145 120 147 165 161 166 169 168 164 160 153 146 152 152 157 162 160 161 160 157 164 169 159 163 162 157 147 143 136 141 144 151 155 159 166 169 167 169 170 164 142 111 149 155 138 125 110 100 124 193 113  46  20  21  21  23  21  18  20  43  89 140 178 199 207 207 201 185 159 117
  17  17  17  18  19  18  17  14  12  12  12  13  14  14  12  13   7  51  95 100 125 149 153 127 124 157 156 157 166 167 162 157 155 152 150 151 153 168 170 173 171 172 159 162 166 167 164 158 153 146 139 142 154 156 158 155 161 168 167 168 165 152 120 124 157 139 128 113 105 104  96  87  49  26  24  25  26  27  25  21  24  49  94 146 180 202 209 210 203 188 160 118
  20  20  20  20  21  21  21  18  17  17  16  16  16  15  15  16   9  55 105  92 107 141 157 144 117 144 153 158 165 168 160 156 156 154 156 152 154 166 169 179 176 177 153 158 174 173 166 157 149 143 147 149 153 156 155 154 161 165 168 164 150 126 113 145 150 135 118 104 109  96  41  30  24  26  28  29  32  31  29  25  27  52  98 148 184 204 211 212 206 190 163 120
  23  22  20  22  23  22  22  22  21  21  20  20  18  17  17  18  12  53 120  93  92 121 152 154 124 125 151 157 159 165 163 161 161 162 158 153 161 158 160 173 179 178 174 169 173 174 162 152 151 153 158 154 155 159 157 163 162 161 163 151 133 105 127 151 144 125 111 104 107  77  23  26  29  32  33  34  34  33  32  29  32  54 100 151 185 206 213 214 209 194 167 123
  25  24  24  24  25  25  24  23  24  24  23  23  21  21  20  19  15  53 125 105  82 104 142 156 138 121 144 158 156 158 165 164 164 163 164 164 162 162 165 173 184 188 181 175 176 167 162 157 158 157 154 157 157 163 162 163 162 157 151 141 112 117 150 146 129 114 108 107  98  76  25  31  34  37  37  39  38  39  36  32  35  57 101 151 187 208 216 218 212 199 170 127
  28  26  26  25  27  27  27  26  26  27  28  27  25  25  25  24  18  55 124 118  94  87 122 153 148 122 139 150 155 162 165 165 166 160 160 163 168 170 176 182 189 197 190 190 185 171 167 167 168 161 151 159 163 166 158 160 163 152 146 126 110 141 152 133 123 111 103  89  99  85  27  36  39  41  42  41  41  41  39  35  38  58 101 151 188 208 216 216 210 195 168 127
  29  28  28  29  29  29  29  29  29  29  28  30  28  28  29  29  24  55 125 125 116  83  94 139 152 126 131 144 151 159 160 158 165 158 163 167 168 173 175 184 194 190 190 193 182 174 170 164 169 156 156 163 161 159 158 162 155 151 140 115 127 153 140 126 112 102  92  83 123  87  29  39  43  43  44  44  43  42  39  37  40  59 101 148 182 201 207 207 200 184 158 123
  31  29  29  31  31  29  30  29  29  29  30  30  30  30  31  32  26  53 130 127 125 105  80 114 146 134 122 137 147 157 160 163 163 157 159 161 162 169 174 170 175 180 173 175 178 176 169 166 167 159 166 162 159 157 159 155 149 148 127 114 143 145 129 112  99  89  78 112 136  81  31  41  44  46  47  46  45  44  41  37  41  57  89 129 162 182 190 191 183 165 139 109
  32  31  31  31  31  30  31  31  30  29  30  30  30  30  32  32  27  51 132 135 125 118  91  87 132 137 118 128 143 151 155 162 167 157 151 154 159 163 169 165 171 177 170 166 170 170 159 161 157 161 155 154 162 161 153 151 145 137 114 128 143 129 118 103  88  75 106 129 135  72  32  41  46  50  50  49  48  46  42  39  41  52  72 103 132 152 161 160 149 128 106  93
  32  31  31  30  30  30  31  32  32  31  30  30  30  31  32  32  28  46 125 135 128 126 108  78 102 128 118 118 138 151 153 166 169 162 152 150 158 165 173 172 175 177 176 176 162 159 151 154 148 148 149 164 160 158 153 147 141 130 114 132 137 125 103  87  75 104 124 132 135  65  34  43  46  49  52  52  49  49  46  42  40  44  55  75  97 113 120 112  95  78  75  81
  31  31  30  29  30  31  32  32  32  32  32  30  30  31  32  33  29  41 121 133 132 128 121  95  80 112 115 112 126 146 154 162 165 154 154 152 153 168 174 172 172 173 177 174 167 150 150 153 148 150 159 159 156 154 149 143 136 112 121 131 124 107  85  74 102 121 128 133 131  70  45  44  48  50  53  54  54  51  49  44  41  54  79 101 109 104  93  76  60  57  63  70
  31  30  30  30  30  31  32  33  33  34  32  30  30  31  33  32  31  38 116 137 133 135 128 117  87  85 109 104 107 134 151 157 160 151 158 161 158 165 163 162 174 178 173 177 174 157 153 153 153 157 153 157 154 150 144 142 119 107 122 121 104  87  77  98 118 127 135 138 123  58  61  51  49  51  54  57  57  55  51  48  56  79  98 110 113 105  89  72  57  52  52  57
  30  30  29  30  31  32  34  34  33  32  30  30  31  31  32  34  30  42 115 136 132 143 134 120 105  81  87  98  99 119 143 149 156 158 160 155 160 166 164 168 176 179 184 188 179 165 154 153 155 147 155 155 158 150 137 123  99 111 113 103  89  80  92 111 121 131 136 141 116  46  55  58  53  55  55  56  57  56  53  52  64  84  98 107 110 107  91  73  56  46  42  42
  30  29  30  31  33  34  34  34  34  33  30  30  30  32  33  34  35  51 110 136 135 142 139 128 117  95  80  88  90  95 128 143 147 154 167 157 160 163 158 166 181 180 183 186 174 161 156 155 150 145 147 153 155 144 126  99  97 104 100  88  83  91 110 120 129 132 141 144 106  34  48  61  46  56  56  53  55  56  56  55  65  83  94 102 107 103  86  69  54  40  31  25
  30  31  33  33  35  36  35  36  35  33  30  31  30  31  34  35  50  45  98 136 135 142 142 137 125 109  88  81  92  84 101 127 138 149 160 159 159 157 163 174 193 187 180 173 164 158 163 157 143 137 147 159 151 132 103  90  97  97  90  88  89 103 120 132 138 137 140 144 107  23  43  53  57  35  59  54  53  56  56  56  60  73  86  94  97  86  70  57  46  33  23  12
  29  29  32  33  36  36  36  36  34  32  31  31  32  33  32  47  51  37  92 135 135 146 146 138 134 119 100  85  87  92  81  99 122 139 147 151 156 149 162 164 169 171 167 162 163 163 156 142 133 141 161 155 131 100  83  94  98  91  89  90 100 115 126 135 138 141 142 146 102  18  41  53  65  48  32  58  55  55  57  57  57  60  65  68  65  55  51  48  42  34  24  11
  24  25  27  30  34  35  37  36  33  32  31  31  33  34  41  56  43  35  87 136 134 142 145 141 137 128 113  97  84  93  92  81  91 112 137 138 153 161 156 157 154 152 156 161 155 146 138 131 139 154 149 131  93  80  93  98  92  89  89  96 113 122 132 133 143 143 139 147 100  13  28  52  51  68  30  37  58  55  56  58  59  59  58  56  55  54  54  54  49  40  29  12
  15  15  19  24  29  32  34  34  33  34  32  33  34  37  54  49  43  31  74 133 135 139 143 144 142 132 122 110  92  90  96  89  78  81  95 114 120 130 140 144 145 144 144 144 134 133 134 137 134 123 106  83  80  92  98  95  94  93  99 114 121 129 133 141 147 142 142 137  96  14  21  48  49  62  52  20  43  62  56  59  61  62  61  60  59  58  58  58  53  44  31  16
   5   6   8  14  20  23  26  29  30  31  34  35  35  51  56  46  43  18  68 129 130 137 147 147 147 137 125 121 100  90  99  93  90  84  80  83  86  82  88 100 102 103 102 100 102 110 112 106  91  81  77  80  93  98  96  94  92  99 114 119 124 128 129 142 142 144 138 142  95  25  15  43  50  51  65  27  27  48  65  60  62  62  62  62  60  60  59  58  54  48  40  37
   2   1   1   5   9  12  17  20  23  26  29  34  43  57  54  47  33  20  60 125 132 137 138 146 150 138 129 130 116  98  98 102 100  91  85  91  96  98  93  89  92  92  92  86  85  86  88  87  83  83  88  97 101  98  97  98 103 109 116 119 127 133 137 148 149 142 140 144  87  38  10  43  53  47  67  46  23  31  51  67  63  63  62  61  61  60  60  59  58  55  55  59
   0   0   0   1   1   3   6   9  12  17  26  37  55  57  55  46  31  26  44 123 132 137 138 152 151 147 141 138 125 105 100 105 104 103  96  90  91 100 106 113 112 111 110 108 111 108  98  89  86  94 103 105 100  96 100 107 114 112 119 127 138 142 149 150 143 133 142 133  81  58  32  37  58  49  59  61  22  29  32  52  67  63  64  63  63  62  61  61  61  65  69  75
   0   0   0   0   0   1   1   1   3  14  40  46  58  51  52  39  35  20  45 118 129 140 146 149 153 156 151 143 124 117 110 107 110 105 107 101  96  93  96 103 108 110 110 107 100  95  92  92  97 108 111 107  97 104 110 116 113 120 131 138 141 141 145 148 139 136 142 127  81  64  53  42  56  57  53  65  28  24  29  32  55  69  65  63  63  61  62  63  66  72  78  84
   0   0   0   0   0   0   0   0   8  36  43  56  57  50  51  39  37  18  65 116 127 136 144 148 150 153 153 151 132 123 118 111 114 114 113 112 111 106 103 100 100  98  99  97  98 100 102 107 112 115 114 105 104 114 118 121 123 129 142 145 145 145 151 148 137 136 137 130  88  68  62  51  57  58  49  65  40  18  27  29  36  56  66  64  63  62  62  65  72  77  83  88
