P2
# Generated by OpenCV 4.2.0
92 113
255
 221 220 218 217 215 215 216 220 222 223 226 224 221 222 221 220 222 219 217 217 214 213 211 216 223 222 221 220 217 210 202 200 198 196 193 185 187 178 168 165 159 150 149 137 143 134 161 173 180 185 192 182 184 186 186 185 186 187 190 191 191 192 190 194 192 189 193 199 200 199 195 196 202 210 215 220 221 222 221 221 223 223 222 223 223 223 221 218 216 217 217 215
 221 220 221 220 216 217 216 219 220 221 220 221 225 226 226 226 225 224 222 219 219 221 224 225 228 228 227 224 225 218 212 208 205 199 195 195 192 200 184 181 161 175 192 171 165 171 170 179 187 191 194 194 192 188 183 180 183 189 195 191 192 192 187 189 198 205 209 214 215 214 210 210 208 209 217 222 223 221 222 222 225 225 224 223 224 224 225 223 221 220 220 218
 218 217 217 219 216 217 217 221 222 223 223 225 228 231 229 231 231 229 229 229 227 229 230 230 234 235 235 232 231 225 217 214 211 206 204 206 211 206 193 190 215 206 187 181 172 190 183 194 201 203 204 207 207 203 198 194 195 198 202 202 203 204 205 204 211 217 226 229 228 226 221 222 219 214 217 223 227 226 226 226 228 228 228 230 230 229 229 228 226 223 224 221
 221 219 219 220 220 222 223 224 225 227 228 228 229 230 232 233 233 233 235 237 236 235 238 235 235 233 234 236 231 224 221 215 212 212 214 217 211 220 218 197 182 191 193 184 197 212 224 201 181 174 167 181 199 209 199 204 210 210 212 212 209 211 216 219 224 226 236 241 237 239 232 226 226 223 223 228 231 233 231 230 232 230 233 235 235 235 235 232 227 228 229 230
 222 224 224 224 223 224 225 226 227 229 231 232 233 234 235 237 238 238 241 239 239 237 238 238 239 240 238 232 227 221 220 216 213 219 219 215 210 197 202 201 200 206 207 193 188 174 176 178 161 151 150 144 146 159 183 199 200 193 188 189 198 213 220 231 224 232 238 239 240 241 235 235 234 231 230 234 238 239 237 236 237 236 237 238 238 239 239 238 234 233 233 232
 223 225 225 225 226 227 227 229 230 232 234 234 237 238 241 242 245 245 248 244 243 241 240 240 238 235 231 223 218 221 219 212 216 229 224 201 205 211 205 211 194 194 189 165 185 188 173 142 137 150 139 143 149 153 137 143 148 175 194 186 175 179 201 224 228 234 240 244 246 247 241 241 243 241 241 243 246 245 244 241 245 246 245 244 244 243 245 243 239 238 237 234
 222 226 227 228 226 227 230 230 231 234 236 237 238 243 245 245 248 249 249 245 245 244 244 239 230 227 219 220 221 216 222 225 224 226 210 210 208 197 201 180 199 192 176 186 194 156 127 131 147 122 121 131 138 178 165 172 150 134 140 159 179 175 164 162 191 226 253 240 249 251 247 244 245 244 246 249 251 252 251 249 247 248 245 246 246 245 243 242 240 236 234 231
 225 225 227 228 229 231 232 232 232 236 241 241 242 246 248 251 250 252 252 251 251 247 237 233 227 220 214 225 213 217 219 226 220 214 200 207 194 204 180 196 185 181 170 183 153 113 131 126 120 143 136 126 120 115 109 120 153 172 157 132 142 166 165 161 162 165 177 245 248 247 246 245 245 245 247 250 250 252 252 250 248 248 247 245 245 245 243 242 239 237 234 232
 227 226 228 230 231 232 235 235 235 239 243 244 244 248 251 252 252 252 252 249 247 237 227 223 218 214 210 219 215 213 230 220 217 202 195 197 192 186 180 194 178 167 173 154 121 118 123 141 151 132 126 110 109 128 135 141 134 139 149 165 146 145 155 149 153 130 159 151 209 250 242 244 246 246 249 251 251 253 253 251 251 250 246 245 246 247 248 247 246 239 236 235
 230 230 232 234 235 237 239 240 241 242 243 245 246 248 249 250 250 247 248 238 231 225 223 219 208 209 205 212 202 215 232 220 213 201 195 187 179 189 185 181 178 154 161 138 119 137 165 148 139 148 166 175 166 165 149 155 142 143 139 146 160 164 141 143 149 161 141 146 152 190 240 242 241 247 253 253 253 254 252 251 252 250 249 247 247 247 245 244 242 239 238 234
 233 232 235 234 234 235 235 237 238 239 241 242 244 246 246 247 245 245 242 235 224 221 223 212 206 215 204 200 193 223 227 212 190 194 184 197 183 171 183 161 167 153 161 143 158 172 160 153 167 187 183 173 170 166 143 151 136 140 131 143 152 155 162 150 148 152 162 151 142 156 201 239 246 250 252 253 253 254 253 252 248 247 247 245 246 247 245 242 241 240 236 233
 228 228 229 230 231 232 236 235 235 237 240 242 245 245 245 244 241 240 232 221 223 214 208 203 207 209 201 200 201 210 206 193 175 194 179 178 177 188 174 167 149 152 155 168 161 162 166 177 173 175 163 166 158 122 139 122 112 109 122 132 138 147 157 127 147 140 161 147 138 132 153 200 243 251 251 251 251 253 250 248 246 246 246 245 245 245 242 243 240 239 236 231
 226 228 230 231 230 231 234 234 235 238 241 243 245 245 243 242 241 225 221 213 210 206 206 208 215 220 203 182 181 193 188 169 195 173 178 184 184 181 163 154 150 163 159 152 159 147 166 156 165 157 161 140 140 147 135 123 105 100 110 121 135 148 156 176 152 137 151 127 136 147 139 153 217 241 250 250 251 248 247 244 242 244 243 245 244 243 240 242 240 238 237 234
 227 229 230 231 228 230 231 232 234 237 239 240 241 237 239 231 220 212 213 211 208 192 194 192 196 190 170 161 169 182 167 175 194 173 187 187 184 173 170 143 157 165 156 144 138 145 148 157 154 157 157 152 166 160 160 152 145 133 130 126 138 153 159 158 139 146 141 107  98 125 141 147 143 216 244 242 244 248 245 244 243 244 244 243 244 241 239 241 241 236 239 235
 227 229 230 231 227 229 231 231 234 235 236 237 237 234 232 220 212 211 198 199 184 164 172 190 181 184 161 151 170 187 175 191 191 183 186 185 171 159 169 137 154 153 140 132 140 145 146 145 142 149 159 178 184 175 171 172 176 180 160 148 143 136 136 136 135 140 113 104  84  72 113 144 136 155 226 247 246 243 243 243 245 244 244 244 243 240 239 242 239 236 239 234
 226 228 229 228 229 230 230 230 233 236 234 236 233 232 220 212 203 186 162 175 166 160 173 190 191 174 173 165 179 197 196 198 189 196 179 182 161 154 150 128 146 144 132 135 136 145 155 132 132 133 141 159 172 168 181 183 174 169 156 154 148 150 117 102 105 118 124 126 118  98  73 100 124 133 170 236 241 242 242 241 244 244 244 243 242 238 237 237 238 237 239 235
 226 228 228 229 229 230 229 232 233 235 234 237 232 224 214 193 187 190 179 172 171 169 177 183 180 184 172 176 185 206 202 200 199 200 174 167 157 143 136 134 137 135 133 145 145 135 126 130 123 127 125 128 152 159 163 164 161 159 167 159 150 138 128 115 106 103 109 124 114 105 107  97  91 119 137 179 239 242 243 242 242 243 243 242 241 238 238 239 239 240 238 235
 226 228 229 229 229 230 230 230 233 232 230 234 225 212 205 180 184 168 130 127 140 153 181 190 191 186 193 193 199 213 210 202 196 189 168 154 146 136 127 133 136 132 135 155 132 127 138 126 125 122 117 134 148 167 177 182 179 166 163 159 167 157 135 123 109 108 108 114 114 109 115 112 104  97 120 148 217 239 241 239 241 241 241 241 241 239 239 239 239 239 238 235
 226 228 229 229 230 230 229 232 231 231 232 224 218 206 168 170 172 163 162 155 166 187 197 210 209 193 195 209 212 220 216 205 186 178 171 153 134 128 126 139 140 139 139 152 139 132 142 144 136 133 139 142 158 169 175 177 177 185 185 175 177 166 160 134 127  95 100 101 124 115 103 105  98  99 105 126 171 241 240 239 240 241 241 241 239 239 239 238 239 239 238 235
 227 229 231 232 230 233 234 232 232 230 230 226 217 184 197 200 162 146 143 155 170 187 189 202 206 205 206 218 224 227 217 211 192 181 170 155 144 134 141 143 154 147 156 152 142 151 162 152 140 138 142 147 167 179 178 166 162 167 176 176 183 180 167 166 150 123  99 100 108 128 138 120 111  93  93 100 145 201 244 239 240 241 242 241 240 238 239 239 239 238 238 236
 227 229 231 231 231 235 236 235 234 234 234 214 190 167 142 125 112 113 120 141 166 181 165 186 200 212 220 228 224 231 224 216 198 194 176 161 160 147 151 165 161 171 166 166 172 168 169 164 153 158 152 161 173 183 177 173 167 169 175 175 181 190 177 177 171 158 130 113 107 125 137 140 124 120 108  93 115 201 227 241 243 243 242 240 241 238 239 239 239 238 238 236
 230 229 231 232 232 236 235 235 238 223 210 167 153 168 143 144 118 136 147 157 168 172 170 196 211 219 228 231 231 234 226 222 200 198 183 173 176 159 177 171 170 174 173 182 170 191 195 179 179 172 172 176 175 179 183 182 184 186 189 197 192 193 195 190 189 184 166 157 120 101  97 134 144 105 121 102 107 139 188 232 240 239 240 243 240 239 238 239 239 238 238 236
 228 230 233 233 234 234 235 233 233 199 190 137 169 168 142 132 122 139 142 145 161 174 193 208 226 233 232 235 231 232 225 227 215 203 196 187 186 189 189 184 189 187 193 193 196 199 200 197 191 191 193 191 193 189 192 194 198 194 194 196 198 201 204 209 206 196 193 184 167 124  74  74  92 108  89 109 106  97 156 217 235 237 236 236 239 239 238 239 239 240 238 237
 226 227 230 230 232 232 234 238 215 210 140 159 128 113 131 141 137 133 141 148 175 198 214 223 231 237 237 234 233 228 219 224 212 206 199 200 201 204 202 203 203 199 203 202 208 207 213 211 206 197 200 202 206 210 212 214 213 209 212 210 209 214 211 207 198 198 195 183 189 161 100  62  60  66  92  71  90 112 117 169 220 230 233 234 236 240 238 239 239 240 238 237
 224 224 225 227 229 229 231 231 196 210 171 188 185 147 128  94  98 121 148 177 196 212 224 233 238 238 238 233 226 232 224 225 212 218 212 211 211 213 212 215 215 206 210 206 211 216 218 220 219 209 218 217 218 216 217 218 217 213 215 216 216 219 215 216 209 212 207 203 188 164 133  88  63  63  75  94  66  90 113 125 211 226 230 233 235 239 238 238 238 239 238 236
 215 219 220 221 225 226 225 225 203 191 174 131 119 121 124 123 147 152 181 188 205 224 234 237 237 234 232 232 230 230 229 223 222 221 216 215 212 212 216 217 218 219 218 217 220 222 220 216 211 203 211 213 213 216 217 216 216 218 211 216 213 206 199 199 195 202 200 188 188 182 150 110  81  63  64  62  79  71  88 119 166 224 225 225 228 234 238 240 239 241 240 238
 210 212 213 215 216 218 219 227 195 153 155 145 124 128 141 143 140 185 171 206 230 239 238 236 229 225 228 232 228 231 227 220 221 220 217 216 215 214 215 221 224 224 222 221 219 215 211 209 211 209 208 212 210 213 220 219 223 223 219 223 224 218 217 219 201 182 169 172 190 186 165 136  89  53  24  43  63  77  63 101 167 215 220 223 225 232 234 237 239 240 240 238
 206 202 204 204 207 210 212 215 212 191 173 155 154 147 122 142 180 160 182 220 238 237 233 234 229 229 233 233 226 218 214 211 207 207 212 210 205 203 212 211 204 209 207 205 206 205 202 198 197 206 215 222 218 223 220 211 215 211 207 203 207 208 200 192 199 207 204 192 182 175 166 137 117  81  50  35  64  75  75  86 117 199 218 220 223 228 235 238 239 239 240 238
 198 198 198 200 200 207 210 199 165 147 153 144 116 108 126 164 169 151 184 222 233 219 219 231 234 233 228 223 218 217 209 208 211 213 217 220 209 206 205 203 200 201 204 197 201 205 207 216 223 227 217 209 205 199 197 198 202 210 214 219 199 182 158 151 153 153 149 178 188 189 165 159 125  90  48  48  38  48  79  75  88 172 215 219 222 227 232 237 239 240 240 238
 191 193 193 195 201 198 205 185 139 178 167 147 122 117 159 152 155 169 201 216 207 224 229 222 228 226 226 211 200 214 217 219 211 210 213 222 221 220 207 201 198 194 207 219 218 218 217 218 206 196 191 194 207 218 216 223 218 214 213 216 219 224 213 208 204 209 194 171 164 177 177 164 136  88  71  62  42  33  75  86  95 117 208 218 222 227 232 237 238 241 240 238
 190 188 189 190 191 202 197 179 131 173 168 158 158 175 148 161 155 169 198 200 226 222 212 209 202 214 214 204 206 216 202 202 198 202 207 218 219 218 215 214 200 201 202 196 201 201 200 200 202 209 220 216 200 194 187 183 170 162 163 169 171 171 168 172 179 176 176 190 186 162 159 161 139  84  64  49  60  64  50  94 120 100 195 217 220 227 231 234 238 241 240 237
 186 184 187 196 198 194 195 181 158 166 150 152 150 136 158 137 167 177 200 225 201 184 202 225 225 223 218 215 218 217 217 207 205 201 199 209 208 219 222 221 216 212 213 220 211 211 208 198 206 202 184 180 173 154 160 188 203 194 186 171 161 154 166 184 175 150 142 160 175 171 151 155 134 115  90  56  55  68  72  84 104 163 187 220 222 225 230 231 235 236 239 238
 194 194 202 202 202 195 199 201 174 144 199 159 171 147 167 175 161 186 201 187 206 226 219 220 221 214 199 188 184 186 206 209 212 214 214 212 212 206 204 201 197 194 184 177 179 182 192 188 174 154 140 130 152 198 219 185 169 159 153 160 166 182 180 168 154 147 140 129 127 140 157 153 130 108  86  79  63  52  82  96  80 197 203 219 221 226 230 231 235 236 239 238
 202 206 205 206 206 209 207 204 173  75  59 198 190 185 160 161 189 200 200 211 216 222 216 205 180 176 199 214 218 218 221 209 201 186 174 168 169 167 165 168 169 171 179 191 205 198 175 153 142 137 135 185 211 188 186 192 198 190 180 179 179 171 172 172 179 185 187 185 172 132 131 145 123 106  91  74  80  70  74  93  94 112 222 217 220 227 230 231 235 236 238 237
 207 214 212 211 211 208 208 209 180  59 142 176 189 195 177 172 189 195 191 189 214 196 181 193 221 219 217 216 218 209 198 184 187 200 210 210 211 215 215 211 213 207 200 190 171 146 129 127 134 159 199 200 191 194 192 181 160 135 128 125 118 106 105 110 127 127 146 149 168 169 138 115 113 100  90  76  77  91  58  98  95  98 202 220 221 227 229 231 232 235 238 238
 212 215 214 214 214 211 211 206 165 132 222 214 199 179 169 179 181 189 197 186 183 197 224 216 208 207 201 194 191 194 191 188 199 197 194 197 199 201 188 187 185 181 177 160 130 128 142 175 203 204 199 196 185 172 164 160 175 182 176 169 168 180 176 160 142 136 134 120 110 144 149 116 115  90  76  71  68  71  76  82  98 128 205 221 222 225 229 229 232 236 238 238
 217 220 218 217 217 216 216 211 160 193 179 201 176 159 160 192 201 189 191 185 212 206 202 190 184 172 162 171 169 178 185 194 192 178 175 174 169 165 168 164 169 169 156 146 171 191 207 193 182 191 171 144 137 153 170 175 160 148 133 124 125 129 133 136 155 175 178 193 172 109 136 126 121  98  79  67  62  77  71  79  87 118 220 222 221 224 229 228 231 235 238 238
 219 216 218 219 217 216 215 217 187 204 223 204 177 179 187 210 203 199 194 198 192 196 180 192 202 204 198 203 195 189 184 180 180 160 150 148 150 163 167 160 146 125 127 130 151 166 168 154 148 149 143 158 164 170 150 145 117 124 183 190 196 181 164 168 167 156 164 141 164 164 105 123 107  88  76  64  63  77  77  72  72 131 213 215 223 225 228 231 230 233 236 236
 219 220 221 222 220 218 219 217 210 197 170 169 179 192 190 199 203 202 191 196 188 188 200 197 199 197 196 203 196 193 178 169 175 182 183 186 183 184 183 202 190 201 198 186 174 154 139 153 174 185 174 157 138 117 125 153 189 206 185 177 174 166 149 118 110 114 120 129  99 147 136 115 111  90  67  69  71  74  84  73  70 123 164 201 223 229 228 232 232 234 237 236
 219 223 223 224 223 222 221 219 212 176 207 192 194 189 188 195 193 185 188 184 178 193 186 192 186 180 183 196 195 186 183 185 182 175 161 158 153 158 154 162 163 177 182 184 194 197 193 175 157 133 119 125 150 182 181 190 163 161 155 149 129 120 126 148 156 161 163 169 152  98 145 122 105  85  65  55  64  90  79  80  76 118 158 207 224 228 227 231 231 232 236 236
 221 222 223 223 226 225 224 221 183 203 201 181 200 189 198 197 196 191 186 177 182 192 192 173 181 202 200 182 173 161 156 145 136 136 137 155 162 165 163 152 155 159 162 159 158 151 148 140 154 172 180 169 164 164 157 163 165 151 156 147 127 117 105 116 116 126 138 151 164 152 116 138 107  90  66  52  64  83  56  46  66  91 114 172 219 232 230 233 233 236 236 235
 222 223 224 224 226 225 223 215 159 193 198 201 191 196 174 193 195 188 172 181 180 186 175 200 206 180 152 153 168 175 181 182 187 184 172 162 165 153 145 134 125 118 117 119 118 127 158 181 186 167 157 138 132 147 164 150 145 134 117 103 118 155 166 174 173 160 119 105 126 174 144 153 121  85  62  42  49  68  44  39  63  99 129 173 222 232 230 232 233 236 237 236
 223 224 224 226 227 225 221 194 176 201 200 203 201 184 187 193 189 185 179 171 181 181 192 195 163 164 191 196 180 185 182 190 190 186 193 190 177 174 176 181 169 174 176 169 168 169 162 147 135 129 124 137 169 182 161 172 152 133 137 162 169 153 145 158 152 153 148 127 109 108 169 158 142  94  74  40  34  65  53  30  41  88 106 181 226 229 230 232 233 236 236 236
 222 226 225 225 229 225 223 176 187 188 219 200 177 192 176 176 190 171 171 189 178 178 186 183 158 189 183 177 179 172 172 176 172 169 169 174 170 177 168 154 137 144 166 163 137 129 127 121 135 162 173 166 161 145 145 124 137 170 177 175 167 175 172 181 152 128 132 137 136 107 125 171 151 102  80  43  32  49  58  47  63  77 123 187 231 227 229 230 231 232 235 235
 224 226 226 225 226 224 225 184 138 161 170 172 178 165 150 183 168 181 198 172 170 180 193 168 186 188 183 178 170 154 155 140 140 145 153 154 142 132 145 165 173 176 146 130 148 164 189 181 175 174 159 146 144 141 144 181 184 182 182 177 183 182 193 166 146 147 147 146 150 138 119 154 158 115  84  52  46  41  42  38  50  85 165 220 229 226 230 230 232 233 235 235
 223 225 225 224 225 224 225 222 211 200 184 184 159 164 166 158 161 182 170 160 165 176 175 181 188 188 176 157 143 152 167 162 154 158 168 181 177 173 160 135 129 148 151 144 132 148 163 148 151 145 143 150 173 174 180 186 175 164 155 156 175 156 143 144 124 138 137 143 155 147 151 140 158 124  94  60  50  32  40  61  75 159 232 225 226 228 229 230 232 233 235 235
 224 227 227 227 228 224 227 230 232 195 197 155 175 158 155 124 129 173 166 181 159 171 164 205 188 174 174 187 186 186 178 176 188 184 185 181 180 178 171 164 169 157 146 142 144 146 153 137 138 133 145 153 173 183 177 162 162 119 127 114 121 101  87  88  95 105 113 117 131 124 155 148 157 131 108  71  60  59  45  73  78 163 222 223 225 228 232 232 233 235 232 232
 228 227 229 228 231 227 228 228 223 194 175 190 155 162 138 111 154 158 159 155 162 181 174 216 176 187 205 180 186 181 178 186 188 191 188 168 170 154 149 170 172 170 165 169 167 162 165 140 146 143 140 154 163 162 149 138 120 117  97  93  84  79  84  82  86  90 103 107 121 132 134 135 152 139 123  86  57  64  56  79  85 121 231 225 228 231 232 232 232 233 233 233
 232 231 231 232 232 228 230 229 231 217 203 171 172 153 103 102 146 141 155 144 165 190 201 187 193 200 182 167 185 180 167 185 182 168 148 142 147 139 145 163 159 151 154 164 161 154 156 147 148 138 136 143 148 139 116 113  97 100  96  84  82  88  88  91  95  99 106 109 106 119 125 118 141 161 124  99  67  57  82  94 139 103 220 227 230 232 231 232 233 234 233 233
 233 229 228 227 229 230 228 228 231 222 194 180 170 130 108 124 138 129 127 152 171 192 216 184 198 194 170 178 170 172 174 159 150 146 135 138 139 132 148 141 144 145 150 157 151 137 143 152 150 136 132 132 137 122 108 100  93  90  92  88  92  97  98  90  97  91  97  87  98  93 107 120 112 181 148 110  74  80  82 121 104  72 193 225 227 229 232 232 231 232 234 235
 229 230 229 227 230 230 228 230 228 231 224 172 145 118 132 113 104 107 117 154 177 204 201 200 195 181 178 175 161 143 141 135 113 110 111 125 123 129 137 134 135 138 138 143 135 129 135 153 152 140 118 131 129 109  98  93  93  91  85  97 100  97 100  93  70 104 119  98  83  81  90 107 127 173 170 133  92  72  78 107 118  75 183 225 226 226 226 226 225 226 227 228
 223 230 229 227 230 230 228 227 229 231 223 189 154 133  80 123  74 105 125 160 181 207 192 211 200 171 151 153 153 137 130 130 124 124 120 114 120 123 129 128 129 131 126 131 129 127 127 147 139 123 119 124 116  98  90  87  84  88  99 106 107 101 117 133 132 138 119 117 106  81  79  89 103 166 188 168 125  82  95  92  98  70 192 215 217 220 217 218 217 221 221 222
 232 231 231 230 228 231 228 230 230 229 225 199 161 117  77  92  98  90 135 170 184 206 194 186 168 157 147 152 152 140 135 135 128 135 121 119 117 120 121 120 123 122 127 129 123 125 121 147 143 115 107 101  88  78  72  63  76  99 109 107  88  69  30  37  53  56  72 115 111  89  80  84  96 154 182 178 148 110  74  94 100  81 193 215 215 216 211 212 212 212 212 211
 231 232 231 229 229 233 230 229 229 228 227 210 171 127 112  74  89 127 158 179 194 205 186 178 162 156 155 160 157 140 134 137 133 127 116 110 110 107 109 113 114 113 118 120 125 136 131 148 153 123 101  69  55  46  45  60  80  96  84  57  32  80  51  54  53  82  51  61  85 107  77  76  89 122 182 180 175 120 102  86  69  95 200 215 216 216 212 213 213 214 215 215
 232 231 232 231 232 235 234 233 233 233 225 202 184 142 143 114  99 152 166 183 199 211 196 172 163 155 148 145 135 140 130 149 137 141 140 119 115 105  97  93  95  92  98 105 111 132 148 162 166 131 104  50  42  42  46  67  83  72  59  66  64  43  27  55  51  99  77  42  53  63  85  84  85 107 168 189 175 133 121  66  62 109 190 208 209 209 208 209 209 212 212 213
 237 232 233 234 234 235 237 234 237 235 234 227 181 138 152 136 109 141 175 187 197 209 185 174 150 147 149 130 152 142 174 170 175 164 158 135 129 118 103  88  72  74  78  87 107 120 169 174 180 153 123  56  42  47  45  68  64  48  81 110  58  96  82  66  88 104  75 100  82  75  72  92 107 131 157 180 174 126 101 117  63 106 181 203 200 197 203 197 193 194 195 194
 232 231 234 236 235 236 238 235 237 235 241 239 200 166 169 171 124 140 183 203 206 219 203 172 158 150 145 143 161 178 189 147 117 103  87  88 110 108 109 102  82  67  80  82  98 126 165 191 193 167 145  69  48  58  82  52  62  68  90 137 120  83  69  96 105 118 137 114 113 128 108 108 120 137 161 181 164 135  85  63  77 110 161 169 170 171 171 170 172 173 174 174
 224 232 235 238 239 239 237 235 238 235 234 234 208 167 160 168 138 159 185 217 219 222 197 161 163 163 139 181 181 119  86  40  45  30  64  47  76  75  88  91  78  67  81  92 107 141 177 201 200 174 170 122  76  62  92 111 105 115 133 142 145 144 140 148 163 161 133 131 162 154 131 138 148 174 182 167 154 124  64 104 108 102 155 140 138 139 141 139 142 146 147 145
 231 233 236 237 236 237 237 235 236 235 236 231 218 150 179 170 159 179 188 221 225 221 185 144 153 163 159 179  85  77 117  65  75  89  81  48 113  91  62  82  69 104 130 110 121 163 191 206 201 192 186 154 117  77  86 119 116 117 136 146 158 166 156 151 139 124 122 169 169 140 151 169 179 185 154 141 140 105  80 105 105  97 166 173 169 168 167 167 167 166 166 167
 232 233 237 237 237 237 237 235 236 235 232 226 236 161 181 162 156 165 198 217 216 219 204 175 153 169 141  85  69  72 150 135  84  82  66  91 117  93 101 108 119 130 113 120 146 179 199 221 214 204 189 162 126 107 107 110 129 129 126 145 154 141 148 145 128 137 167 182 140 132 153 174 175 184 182 160 142  91  76 152 127  94 176 190 187 185 185 184 185 185 185 184
 233 232 237 238 236 237 237 235 236 235 235 216 237 180 172 136 156 167 208 216 217 218 183 152 152 140 119 123 152 145 138 141 147 130 116 135 153 164 149 140 141 122 124 145 170 180 205 212 212 206 200 173 132 119 128 133 126 129 133 144 165 161 161 160 165 177 190 151 156 162 181 191 186 169 168 160 139  70  81 130 156 112 199 206 209 206 206 207 206 207 207 206
 231 232 236 238 239 237 235 235 233 234 235 212 233 211 173 162 170 175 200 213 222 222 195 186 174 169 182 195 187 182 182 174 169 169 167 163 152 140 148 137 127 122 150 166 175 187 205 210 209 214 205 171 126 131 123 134 144 141 128 126 144 142 167 179 194 184 174 168 160 172 171 166 201 177 167 143 129  59 105 128 161 133 219 218 219 221 221 221 220 222 222 222
 231 233 236 237 238 236 235 234 232 231 228 222 229 213 177 148 146 172 195 211 213 221 208 188 175 177 208 214 199 184 189 178 171 170 169 171 160 156 148 142 135 148 172 174 186 194 195 206 209 215 197 162 125 130 123 121 137 151 147 129 119 125 126 128 122 124 126 136 146 169 178 194 164 171 161 136 122  51 122 103 164 146 227 227 228 230 231 230 228 228 228 228
 231 234 237 238 236 235 233 233 232 230 231 222 219 217 187 153 122 158 180 204 209 223 208 197 201 202 212 209 210 194 194 184 180 184 184 164 149 153 141 128 141 180 174 181 189 184 188 200 202 207 198 167 124 121 118 115 124 140 151 146 122 121 117 120 123 130 140 154 174 176 196 178 176 131 140 136 102  54  85 106 135 146 228 224 225 227 228 227 225 224 224 224
 232 234 236 238 236 234 233 232 231 230 229 218 212 221 175 161 154 161 155 197 208 226 217 209 208 212 209 195 193 199 202 213 192 174 160 160 151 143 133 139 177 180 174 182 188 191 192 198 197 206 197 169 143 120 111 117 119 123 138 148 145 139 141 141 141 150 162 169 171 180 177 161 161 140 112 130  78  62  87  97 113 165 232 226 226 227 226 225 224 226 225 225
 233 233 236 238 237 235 233 232 231 229 224 222 222 166 171 184 158 169 156 188 198 217 206 213 210 213 214 208 185 171 169 157 171 171 169 157 144 127 146 171 175 175 171 178 183 188 192 197 189 196 199 175 150 129 116 107 106 119 121 136 152 152 153 155 163 167 177 186 179 181 180 162 127 123  84 120  66  94  72  98 106 220 229 226 225 227 225 225 224 226 225 225
 233 233 236 238 237 235 233 232 231 230 222 224 193 113 149 178 182 163 149 155 197 202 203 204 214 218 216 189 188 179 186 165 163 158 151 143 135 152 175 181 169 165 169 178 185 193 197 201 200 191 182 170 151 133 128 112 115 115 133 135 141 151 161 168 171 170 165 167 165 168 150 135 120  94  89 112  64  92 102  85 183 232 223 226 226 227 225 225 224 224 225 225
 232 232 235 236 234 234 232 230 231 225 210 196 152  87 115 171 201 203 165 146 161 198 191 197 209 203 182 181 184 179 167 169 157 155 157 157 171 180 184 173 161 164 171 179 192 200 199 197 198 198 180 176 163 142 129 101 103 118 124 142 145 150 160 160 164 171 160 150 150 140 125 105  86  79  96 111  78  79 107 144 230 219 226 227 227 226 226 224 224 224 223 224
 231 233 234 236 232 233 233 230 230 227 218 210 125 118 121 163 195 188 188 129 132 199 184 190 189 170 194 184 180 170 185 173 171 171 172 180 187 187 180 167 163 174 178 178 189 197 206 195 201 205 189 180 171 146 126  96  91 112 136 142 151 159 156 163 165 166 157 156 153 137 123 103  77  80  83 118  90  62 109 214 222 223 225 226 225 224 224 223 224 226 226 226
 231 230 233 233 232 232 233 229 229 230 224 211 213 142 112 111 184 202 211 146 102 168 186 184 182 179 178 180 177 182 178 178 180 183 186 188 185 181 177 173 174 176 168 169 188 201 211 196 199 203 193 175 162 154 136 138  84  95 137 142 151 150 153 163 161 158 150 149 141 128 122  98  77  74  91 117 112 229 224 212 220 220 223 223 225 221 223 224 223 226 226 226
 231 230 233 233 232 232 233 230 229 227 229 223 215 176  90  89 200 204 166 142 113 113 177 184 167 173 166 173 179 178 171 178 181 186 191 186 182 172 172 178 179 174 154 175 197 209 207 198 200 195 191 182 178 164 155 185 143  92 128 144 155 148 152 159 155 154 144 138 128 120 106  82  70  65  76 115 106 218 217 219 216 220 220 223 221 220 222 221 222 223 222 224
 231 232 233 233 233 232 234 230 227 229 227 226 227 215 161 124 193 213 158 140 143 124 187 183 167 167 156 180 160 165 167 179 180 184 180 176 178 175 180 180 178 165 141 201 215 214 208 199 202 205 196 178 175 173 174 182 179 118 110 133 148 152 151 150 148 147 143 132 120 112  91  75  63  70 105 112 120 218 212 218 217 217 219 219 219 217 219 219 218 219 221 223
 233 233 233 232 232 231 233 230 227 229 226 224 222 217 198 174 173 193 171 190 168 136 193 169 156 163 171 156 154 165 176 178 172 172 169 175 180 182 184 177 166 128 160 207 217 210 214 219 202 193 174 170 171 169 164 164 159 142  93 123 141 146 152 146 142 140 134 124 110  94  70  66  51  66  96 106 112 138 190 207 214 219 215 218 217 216 217 216 218 217 219 221
 233 231 233 233 233 232 232 229 227 228 229 225 222 209 202 189 170 181 187 197 157 196 183 173 153 175 158 158 163 159 164 171 168 166 173 168 176 171 171 155 134 113 172 205 204 202 214 199 174 156 159 161 161 151 140 120 108 100 105 101 118 124 143 146 137 132 129 116  96  82  63  60  48  72 108 106 125  47  12  14  59 122 173 209 213 213 212 212 214 218 218 221
 233 232 233 232 232 232 231 229 230 230 230 229 227 216 207 198 180 174 180 196 136 148 178 173 145 161 150 149 155 161 159 159 164 174 173 176 173 167 153 134 105 118 175 181 174 175 175 162 152 132 128 134 136 109  85  81  83  90 127 134 107 110 129 130 128 125 119 105  87  68  60  54  54  73  96 121 122  73   6   6  11  14  19  25  45  77 144 185 221 213 219 220
 234 232 234 234 232 232 231 230 231 231 233 231 229 219 207 193 164 138 145 148 136 135 178 191 152 157 152 144 150 153 157 153 166 170 169 167 166 165 140 106 105 149 156 137 114 139 157 158 144 130 115 117 105  74  70  41  56  79 137 142 143 104 101 110 122 117 107  88  76  62  59  58  55  75 112 108 128  39  38   6   4   2   5   8  15  21  21  28  45  91 161 215
 234 232 234 234 236 236 233 235 234 234 235 234 233 224 208 191 164 128 127 117 127 116 190 197 157 164 146 137 143 144 146 145 157 152 156 160 163 142 103  93 155 167 159 118  81  61  67 141 134 119 105 101  89  74  48  29  36  79 113 139 139 133  92  91 104 101  95  83  68  62  65  60  59  71 109 119 143  51  15  38   2   2   1   1   8   5  10  18  25  32  26  26
 237 234 238 240 240 239 239 239 236 239 244 234 226 213 207 190 154 122 103 100  98 110 141 177 155 147 144 137 128 132 127 135 146 154 152 161 148 110  88 128 167 165 166 122  79  83  91  95 121 121  99  97  80  63  46  38  34  71  97 121 134 131 129  76  95  97  89  76  67  67  58  63  67  62  94 107 119  53  10  26  19   5   1   0   0   0   1   4   9  14  17  20
 242 242 242 243 243 243 243 240 246 241 222 194 174 167 163 166 155 115 104  96  87  86 113 190 177 161 141 136 127 133 126 130 143 156 155 147 128 101  88 150 159 167 167 142 116 100 109  98  97 108  99 103  80  56  39  42  54  80 105 120 138 123 105 116  73  89  82  74  68  71  60  71  64  75  92 105 135  56   5  21  13  12   4   0   0   0   0   1   1   8   9  14
 242 247 246 246 245 245 244 244 244 219 200 185 173 159 159 155 140 106 105  96  87  78  85 181 171 160 144 145 146 139 125 130 146 160 152 135 113 100 132 165 169 165 156 141 115 121 123 101  96  74  60  67  72  58  41  40  59  64 107 124 139 135 127  97  75  81  74  70  66  69  56  63  64  79  84 128 106  53  11  19  10  14  11   1   0   0   1   1   1   3   4   8
 248 247 249 248 249 248 248 248 226 201 189 176 168 162 157 155 139 112  95  94  85  86  99 149 176 172 151 135 143 148 124 130 163 161 148 120 107 108 147 171 169 161 169 151 136 136 120 110  95  76  54  66  77  52  48  48  60  80  90 114 134 129 127  86  93  61  74  67  65  67  60  59  83  77  81 100 113  50   9  19  10  11  14  15   1   0   0   0   2   2   2   4
 248 250 251 251 252 248 250 227 195 189 185 171 160 157 155 149 119 113 103  92  86  90  94 132 202 177 155 146 144 131 121 135 171 157 133 122  98 122 147 175 173 176 166 152 148 140 140 110  85  67  61  81  79  65  64  58  65  72  95 117 103 108 112 135  85  59  74  66  69  64  58  69  73  81  68  96 127  58  11  23   7  10  11  14   7   1   0   0   1   0   2   1
 248 252 252 252 250 248 237 211 195 191 176 166 155 151 150 131 127 116 104  89  84  90 110 111 193 173 163 146 134 126 129 138 169 160 124 112 118 134 154 166 170 168 170 146 141 138 128 121  92  79  80  89  91  74  64  64  70  75  87  85  96  83 100  89  94  77  67  60  71  68  60  71  81  68  89  89 136  51   9  19   8   9  12  16  19   1   0   0   0   0   0   0
 246 249 248 248 248 248 225 201 188 176 162 163 157 149 149 137 123 120 109  93  87  90  95 110 153 174 164 147 136 118 127 149 161 161 121 100 111 152 151 160 149 154 151 123 140 135 127 128 104  87  83  95  92  88  73  72  64  81  79  74  80  75  89  93  93  86  56  83  68  65  67  65  68  85  79  96 119  46   7  11   4   8   9  11  21   4   1   0   0   0   0   0
 245 246 246 246 244 234 198 186 169 159 166 164 159 147 145 124 149 122 106 105 101 100 106  68 117 156 167 146 131 120 124 141 152 156 117  94 133 160 150 146 150 124 128 132 142 135 141 133 117 104  98 102 104 106  86  77  82  80  77  76  69  58  67  71  65  88  52  87 109  71  60  55  81  67  68  81 115  56   3   9   3   7   9  16  23   7   4   0   0   0   0   0
 246 245 245 244 241 209 190 186 170 155 149 150 150 137 128 127 143 120 111 111 108  73  37  27  43 163 147 155 134 125 128 135 143 159 123  98 142 151 143 130 123 120 133 144 123 139 135 125 124 119 107 100 103  89  81  78  84  88  80  77  76  58  64  59  71  56  57  80  74  85  61  56  92  76  59  89 147  48   8   8   2   7   9  12  22  16  11   4   1   4   3   3
 244 242 242 243 225 196 180 166 163 164 170 158 146 132  90 167 134 128 115  80  54  39  37  25  22 151 152 149 135 134 131 138 137 155 122 106 144 148 123 107 117 110 131 132 128 120  98  99  95  91  96  89  79  84  84  78  75  62  57  44  24  30  46  59  65  59  73  85 103  93  68  52  80  60  81  85 174  54   6   6   5   6   9   9  28  13  12   7   4   1   4   4
 243 239 243 240 219 201 190 184 170 169 164 157 131  96 161 180 137 110  41  24  21  26  29  28  31 113 162 135 137 139 129 133 131 141 121 118 130 123 108  90  98  86  99 100  92  93  84  79  80  73  75  55  45  24  16  10  10   8  10  16  27  47  50  57  52  49  77  72  90  89  64  55  80  56  59  78 180  58   3   7   4   7   9   6  25  14  12   8   5  10  12  13
 238 239 246 227 204 193 173 158 150 149 146 139 108 132 185 122 106  31   8  14  15  16  22  23  29  28 157 140 134 138 131 127 122 147 143 127 117 122 106  89  63  34  21  21  14  12  11   8   7   7   6   9   7   9  13  21  23  29  39  48  60  67  65  60  57  62  75  69  79  71  55  65  85  70  50 102 194  41  15   4   5   7   9  12  25  10   7   8  16   9  12  21
 239 244 221 205 192 184 166 153 141 143 139 133 102 110  91 104  58  14   7  13  16  12  15  17  10   6  95 126 138 130 126 125 122 145 148 118 100 105  90  81  81  86  75  70  53  59  64  53  46  35  31  31  37  52  58  57  58  70  73  79  83  84  79  65  68  62  72  66  71  71  49  57  88  61  51 106 189  30  11   2   2   4   6   9  21   6  17   6  10  10  10  19
 238 227 199 182 167 165 169 161 165 172 153  99  89  95  98  96  26  10   3  12  16  18  11  11   5   4  64 140 140 128 127 117 140 162 151 140 112  78  82  85 108 119 118 118 108 111 106  94 108 107  97  79  91  91 100 101  88  94  89  91  88  92  87  82  78  70  67  69  67  66  46  52  74  75  76 126 194  12   8   2   2   7   5   9  20   5  15   6   4  10  10  15
 223 213 200 192 186 160 165 169 166 135  87  81  95  85 102  69  22   7   5  13  16  12   6   7   4   5   2 133 130 120 133 113 118 138 142 128 100  87  96  99 119 132 135 140 140 148 139 142 137 135 127 115 142 122 116 108 103 103  91  82  88  89  74  89  82  84  84  60  52  69  38  48  59  59  64 154 192   1   4   3   1   3   5   9  19   4   9   9   8  10   6  10
 200 195 182 186 194 186 173 167 148  91  96  80  78  83  99  42  15   5   7  12   8   7  11   8   1   1  10 226 162 119 123 112 100 132 158 112  94  94 100 111 120 136 150 153 147 153 146 150 154 146 135 127 135 128 119 108 104  89  97 103  89  85  77  88 113  88  76  59  57  57  59  53  92  75  67 192 189   1   9   3   3   7   7  10  10   6   7  10   6  13  12   9
 181 181 185 194 189 187 178 161  95 111  73  83  97 104  69  20  12   5   6   9   7   5   8   5   2   1  26 246 200 152 126 126  91 101 164 114  97  95 111 123 121 132 141 152 159 153 128 130 137 127 123 118 121 110  99  94  88  89  88  87  76  89  74  90  89  96 105  81  45  38  39  58  92  69 110 190 177   4   9   2   3   7   7  13  11   3   4  13   8  10  14  14
 173 165 176 188 185 167 145 115 129 112  74  99  92  50  26  15   9   5   6   6   3   6   7   3   2   6 110 229 195 168 138 120 127 113 143 110  99  96 122 121 122 135 144 143 146 132 124 122 116 107  96  91  95  90  86  87  91  81  72  77  69  97  87  95 103 101  78  73  61  40  43  71  56  58 164 193 147   6   9   3   3   7   7   9   9   6   6  15   2   5  15  17
 145 125 158 182 163 143 126 136 141  80  87  81  37  29  17  15  13  10   8   6   5   7   7   2   1   6 204 222 181 144 167 130 113 130 119 106 102 118 125 125 123 130 137 132 130 119 122 129 103 100  87  84  74  83  94  89 102  68  68  78  74  73  73  75 118  93  79  54  56  36  46  63  71  79 180 193 107   5   6   5   7   7   8   6   9  10   2   5   8   6  18  14
 142 161 198 183 173 161 152 143  98  71  80  43  24  18  12  15  13  11  12  13  12   8   7   6  10  21 246 206 176 148 170 137 123 117 105 129 123 150 135 115 129 134 129 125 130 110 116 107  98  94  93  88  94  90  83  72  68  65  77  77  74  92  92 100  95  86  69  61  62  33  38  57  59 132 187 197  57   6   3   3   2   6   6  13  10   3   4   6   8   7  16  17
 178 201 205 192 187 182 181 173 113  59  36  32  30  38  33  34  28  21  18  15  13  12  11   9  17  81 239 194 170 162 168 148 145 110 109 115 135 114 128 137 159 130 121 132 142 127 120 110 100 107  89  94  94  88  93  82  69  79  91  77  93 107  77  85 109  91  82  72  68  47  59  66  59 163 191 187  12   3   3   2   6   7   8   9   9   5   3   6   7   6  14  19
 205 201 191 190 173 156 156 126  51  36  28  27  21  29  20  20  18  18  12  11  12  14  17  15  15 167 228 188 171 174 148 139 141 144 106 108 141 118 133 118 108 139 125 133 131 122 130 128 122 100  95  93  80  86  84  74  93  95 102  93  94 107 120 103  85  82  85  69  64  35  74  57  93 169 195 162   3   6   5   6   3   7   6   5  10   5   4   2  13  11   8  21
 206 195 189 183 162 151 145 108  18  29  27  26  20  24  16  18  11   9  10  12  13  10  14  14  13 217 219 188 173 182 118 153 143 168 135  97 140 137 152 132 142 147 131 151 148 138 148 153 136 126 123 123 120 124 118 127 104 125 121 116 110 110  95 118  76  83  82  74  42  51  60  52 130 180 197 125   2   6   5   5   3   5   6   6   9   5   4   3  13  11   7  20
 201 187 190 179 167 165 168 132  19  27  24  23  25  18  15  18  13  15  13  12  12  13  13  20  21 242 211 181 168 186  97 172 145 168 154 121 148 136 140 131 162 148 150 144 152 158 170 164 161 150 148 138 143 141 135 141 122 128 127 120 122 135 114 103  91  78  57  77  58  79  49  77 145 182 201  62   6   7   6   5   2   3   6   7   6   4   4   3  16   8   7  18
 196 189 183 177 175 151 143 113  20  32  28  23  20  23  18  15  17  11   9  11  10  13  14  27  40 240 208 186 177 193 104 162 149 160 143 140 124 162 139 123 153 154 164 163 172 155 163 153 161 141 142 155 144 144 140 144 133 153 134 118 135 124 108 113  87  80  78  64  70  57  29 104 158 188 192  16   0   3   3   5   2   4   7   4   7   2   6   9   8  10  14  11
 191 191 175 170 168 150 147 128  30  25  22  23  22  19  19  16  19  14  12  13   8   8   9  15  85 238 206 187 176 192 114 126 154 156 142 148 135 136 134 142 153 148 157 173 164 180 166 148 144 145 138 142 135 131 150 148 130 146 121 135 125 129  98  85  78  68  78  42  44  43  54 127 168 186 174   1   3   6   4   2   3   3   7   6   7   2   9  12  11  15  14  10
 187 188 174 172 159 151 138 107  18  26  27  19  20  18  18  18  17  12  10  10   7  12  11   8 153 230 202 186 177 194 127 112 134 165 155 141 134 125 156 171 158 167 175 181 176 154 143 148 142 141 139 129 121 127 150 154 131 130 131 122 118 131  81  88  85  72  59  43  50  31 100 149 180 188 117   1   6   4   7   3   3   2   7   5   7   2   5  11  11  17  13   6
 184 182 177 171 164 134 131  86  23  24  19  20  14  17  16  14  12  15  11  10  12  18  13   7 208 225 204 193 180 186 128 106 119 154 156 148 145 110 145 155 158 137 159 169 174 152 148 147 139 138 131 121 122 133 148 129 118 123 119 103  87  80  82 106  87  61  44  46  52  38 119 152 185 192  70   7   2   5   7   7   3   1   4   6   3   5   5   6  11  10  15   7
 177 170 172 163 154 130 115  70  19  25  15  22  16  13  15  16  11  12  11   7  17  13   7  11 240 225 197 192 188 189 138 118 123 115 169 158 145 126 132 151 155 158 178 157 168 149 136 137 142 135 126 122 104 121 138 131 113 101  96  87 101  95  79  93  67  42  52  53  40  60 139 165 185 186  24   4   0   3   3   6   3   3   6   6   3   3   8   9  14   9  15  12
 174 167 160 154 135 126 116  57  22  20  16  19  19  14  13  16  11  12   9  14  20  11  13  22 252 221 200 197 192 182 145 129 121  93 157 162 146 136 129 139 143 169 153 169 133 154 138 131 136 118 116 113 111 118 136  88 110 115  88  78  82  92  85  97  42  51  59  51  34  97 143 176 189 172   3   2   0   3   3   3   7   6  10   6   4   4   6   9  14  13  13  14
 178 173 154 151 131 117 109  37  15  14  16  19  14  11  13  11  12   8  10  23  12   8   9  45 246 217 206 206 196 184 156 152 110 122 114 157 153 138 132 132 148 136 167 142 121 148 149 132 101 110 102 117 113 107 105 102  80 101  89  78  93 111  72  49  56  55  49  46  49 116 156 188 196 177   5   3   1   3   3   4   6   4   9   4   9   6   2   8  16  12  12   9
 167 163 160 140 118 114 108  20  17  16  20  14  15  14  15  13  12  10  16  15  10  10  15  93 241 217 211 208 195 183 159 170 124 125 105 150 153 146 129 120 129 128 121 154 120 119 105  98 110 111  95  90  95  99 106 102  94  89  77  92  91  60  46  50  47  47  48  34  70 131 169 193 195 146   4   5   8   5   6   6   5   7  12   2   7   6   2   8  16  12  13  11
 156 149 147 135 117 109 111  15  22  19  15  13  15  11  14  12   7  15  19   8  11  17  17 155 230 216 215 204 195 185 165 177 153 112 111 138 142 121 127 115 129 138 112 112 117 138 151 117  96 109  90  89  79  93 104 100  93  89  82  64  55  62  48  54  54  54  42  37 104 143 179 198 193  96   4   7   6   9   8   8   3   7  14   6   7   7   2   8  16   9  11   8
 154 161 126 127 121 100 101  10  16  20  16  18  16  14  15   6   9  22  12   8  15  17  15 212 242 217 226 202 196 176 166 177 167 123 115 114 136 138 126 113 127 115 126 104 114  92 114 119 119 114 112  77  78  76  66  69  51  55  59  62  65  58  57  58  54  50  37  70 121 160 184 210 180  51   4   0  12   8  13   6   1   9  11  12   7   8   4  10  16   9   9  13
 155 129 125 104 119  99  78  20  19  15  12  14  12  14  13  10  18  15   7  10  17  16   5 234 240 229 220 194 209 193 174 176 177 152 110  77 119 136 131 123 123 116 125 113 107  98  98 126 132 109  91  87  85  74  69  67  61  66  59  64  67  63  58  60  55  50  32  87 130 170 198 201 182  18   5   4  13   6  10   6   2   1  14  13   7  10   1  10  15  19  12   9
 150 109  98  98 107 105  41  17  17  14  16  11  10   5   8  16  13   7  13  14  19  14   5 251 235 229 222 192 208 193 176 175 178 173 116  95  95 126 127 122 125 119 105 120 105 117  92 112 127 117  95  87  89  74  64  62  57  50  62  66  71  64  63  61  58  52  39 115 148 183 205 199 201   1   2   1   2   2   4   6   5   4  11  12   6  10   5   5  14  12  12  17
