P2
# Generated by OpenCV 4.2.0
92 112
255
 198 198 198 195 197 196 196 196 197 196 196 197 197 196 198 198 199 199 195 195 195 191 190 187 187 188 191 192 194 194 194 193 193 199 202 198 200 200 200 193 187 185 184 185 188 196 200 202 202 202 203 199 197 194 194 200 201 202 205 205 203 201 201 199 202 200 198 200 199 198 197 196 196 194 194 192 192 190 188 188 186 185 184 183 179 179 178 175 176 171 170 165
 198 197 196 198 199 198 198 197 198 198 198 196 197 197 196 196 196 197 195 194 196 194 191 190 190 187 189 188 190 189 188 188 191 194 197 197 200 200 199 194 187 185 185 187 191 197 202 204 204 203 205 204 204 202 202 204 204 205 203 202 203 203 203 202 203 201 202 203 203 202 202 202 202 202 204 204 203 201 201 200 200 199 198 196 194 193 193 190 190 186 183 179
 199 197 197 199 197 198 197 198 199 200 200 197 198 198 197 197 197 197 199 197 194 192 190 187 189 189 191 188 183 181 184 186 186 188 192 196 200 200 197 190 187 186 183 189 192 197 201 203 204 204 203 201 202 202 205 207 208 207 207 206 204 205 205 204 202 202 203 202 201 202 203 204 202 204 203 200 203 202 203 202 202 202 203 203 202 203 203 200 200 201 197 192
 199 199 199 200 197 200 199 198 200 200 200 200 199 198 199 200 199 198 199 199 196 193 192 191 189 192 188 188 183 176 173 175 179 185 193 198 201 201 198 193 193 185 185 187 192 198 201 203 203 203 203 197 199 198 199 202 205 207 207 205 205 205 206 204 202 204 204 205 206 204 205 206 205 205 205 204 204 205 204 205 204 204 203 203 203 203 201 202 201 201 199 196
 198 198 197 199 198 200 200 200 200 200 200 199 201 200 200 200 199 197 198 199 197 194 192 190 189 190 191 192 190 184 182 182 185 192 192 198 205 199 204 197 188 182 177 154 185 195 203 206 199 199 197 193 194 194 194 198 201 202 208 206 208 206 206 205 204 205 206 206 205 205 205 204 208 205 205 207 205 206 204 205 203 206 206 205 203 204 203 203 202 203 201 198
 200 200 200 200 200 201 200 200 200 198 199 200 198 200 198 200 200 200 199 198 197 193 191 190 191 191 195 195 193 194 191 191 196 197 201 201 206 217 189 172 187 180 185 189 190 187 195 198 201 194 199 196 194 185 189 195 199 205 208 208 207 209 206 204 204 205 206 205 206 205 206 205 208 208 207 208 207 208 208 207 206 206 207 205 204 205 203 203 204 204 201 199
 200 200 200 200 200 200 200 200 200 200 200 200 200 201 199 200 200 200 199 199 198 194 192 193 191 191 196 194 196 195 195 196 199 204 208 212 214 201 183 183 191 181 169 164 191 191 190 189 189 187 194 198 195 194 187 187 194 205 207 208 207 208 207 206 208 208 208 208 207 207 208 208 206 207 208 208 207 207 207 206 208 208 207 206 205 204 206 206 204 203 202 198
 200 200 200 200 200 200 200 200 199 201 199 200 200 201 200 200 199 200 199 198 197 194 192 188 193 192 190 197 194 199 200 200 210 214 213 199 186 190 202 193 138 146 123 125 120 117 136 144 154 156 190 205 195 179 186 190 179 181 203 210 210 209 208 207 208 206 207 208 207 208 207 208 207 207 208 208 207 208 206 207 208 208 206 208 207 207 206 206 206 201 202 201
 201 200 200 199 199 200 200 200 200 201 201 201 202 200 200 201 199 199 200 199 196 195 193 189 190 193 187 191 190 193 194 211 221 221 211 185 203 193 166 136 138 117 139 114 103 104  92  94  97 120 156 190 202 212 192 184 200 185 176 149 182 201 207 206 206 208 206 207 208 208 207 208 208 208 207 206 207 208 207 208 206 208 207 207 207 207 207 206 206 205 204 200
 200 201 200 198 200 200 200 199 199 201 202 201 201 201 200 200 199 200 199 199 193 197 167 178 186 192 189 188 195 198 213 215 211 202 194 204 187 144 137 140 137 128 120 112 110 110 112 105  86  91 101 161 194 191 192 189 200 212 210 196 195 164 181 203 207 206 206 207 208 208 208 208 209 209 209 207 209 210 210 210 209 208 209 209 209 206 205 207 208 206 204 200
 200 200 200 200 200 199 202 200 199 201 201 201 201 201 201 200 199 199 199 199 195 159 167 179 190 192 192 191 194 200 203 191 209 210 188 150 135 146 151 166 161 148 151 148 149 153 155 153 157 159 147 145 152 196 201 191 179 210 208 208 194 190 179 172 204 205 207 206 206 208 208 210 209 210 209 210 210 210 210 210 208 209 209 207 206 208 207 208 208 206 204 200
 200 200 200 200 200 200 199 199 199 202 201 198 199 198 200 201 198 199 200 198 183 161 177 185 190 199 195 184 194 185 183 203 208 194 161 141 143 191 193 183 191 197 207 207 204 206 206 189 183 169 177 166 162 175 191 199 179 172 182 193 198 203 187 157 168 199 207 207 208 207 207 210 210 210 209 209 210 209 210 210 210 210 209 209 208 207 207 207 207 205 203 200
 200 200 199 200 200 200 198 200 200 199 200 199 200 199 199 201 199 194 193 201 172 177 186 181 194 191 188 176 186 186 174 204 185 158 147 151 195 189 195 209 215 208 213 209 199 167 181 181 181 160 172 176 170 182 176 175 172 164 152 172 196 211 190 187 180 163 200 206 208 209 209 210 210 210 211 209 211 210 209 210 210 210 209 209 210 208 209 208 205 206 204 201
 200 201 199 200 200 200 198 199 200 200 199 200 200 198 199 200 198 193 193 194 191 173 193 181 176 180 166 183 161 176 190 187 181 140 157 187 184 194 211 213 198 200 215 195 197 194 189 195 173 155 137 136 141 149 178 160 161 149 142 136 156 180 209 204 184 188 160 200 208 207 209 209 209 211 211 210 209 210 208 209 209 210 210 210 210 207 207 206 205 206 202 199
 199 197 200 199 199 198 200 200 201 200 200 200 199 200 200 199 196 192 199 191 183 189 187 194 186 174 177 165 179 151 176 162 139 153 192 174 179 186 193 191 194 211 206 216 220 217 204 198 197 199 181 179 161 167 181 177 183 180 178 183 156 153 160 182 197 173 183 183 206 205 207 208 211 210 209 211 208 208 209 211 210 210 209 210 210 208 207 208 207 207 203 201
 198 199 200 199 199 199 200 199 200 200 200 200 200 199 199 198 188 185 164 150 182 192 200 177 177 161 180 168 161 170 149 162 129 170 169 166 170 181 175 181 190 179 196 202 203 206 201 197 187 190 192 181 183 171 160 170 154 134 125 149 153 147 141 140 150 171 178 158 142 197 205 209 210 209 209 211 210 211 211 210 210 210 208 208 209 208 208 208 207 206 202 200
 199 197 198 197 198 198 198 198 199 200 199 197 198 200 199 195 180 132 135 166 194 202 194 174 185 184 178 180 162 157 140 139 144 164 147 169 166 154 164 151 169 182 166 177 176 180 190 185 183 183 189 195 187 189 171 168 146 140 126 137 142 152 161 149 131 151 155 155 153 146 197 204 207 208 209 209 210 210 210 210 210 209 210 208 208 208 208 207 206 207 202 199
 196 197 198 199 199 199 198 199 199 199 198 199 199 200 201 156 123 123 131 177 206 205 204 182 192 202 191 180 162 140 132 141 152 147 148 168 159 162 145 159 164 149 151 170 181 193 200 201 203 205 205 200 196 188 184 183 153 139 134 130 122 123 122 128 149 126 121 140 152 129 157 194 210 210 208 209 210 209 209 211 209 209 210 208 208 209 208 206 208 205 202 199
 197 199 198 197 197 196 198 198 199 199 198 198 200 196 146  92  88 127 175 198 218 217 199 196 211 199 196 180 157 140 133 146 148 152 167 177 166 165 168 166 165 173 175 187 196 205 208 212 215 211 212 213 211 205 203 192 174 162 135 120 123 138 144 116 133 123 100  92 118 134 135 138 192 211 210 210 210 211 209 210 211 209 209 209 207 208 208 207 206 205 201 198
 196 197 196 197 198 198 196 197 198 198 198 197 194 142 133 100 105 136 192 219 229 221 213 216 218 211 196 184 163 153 141 161 154 168 175 181 170 177 183 200 190 192 192 192 206 213 212 209 201 205 202 207 207 219 221 222 211 202 181 146 128 120 123 130 133 142 150 125 101  98 116 143 146 207 209 208 206 208 209 209 208 210 209 208 208 208 208 207 205 202 201 199
 198 197 196 197 198 198 198 197 197 198 199 190 156 144 100 107 130 175 212 225 230 214 209 222 230 216 210 187 185 173 165 177 180 185 196 188 197 209 216 213 210 210 209 211 217 224 224 224 222 220 220 223 219 221 227 229 230 231 218 208 167 142 143 147 157 155 152 140 128 103 101 114 127 177 207 207 210 206 210 210 211 210 208 208 207 206 207 208 208 204 200 197
 197 197 196 196 196 198 197 198 196 193 183 168  94  85  79  95 141 192 204 212 212 226 224 229 230 224 214 202 188 199 185 192 195 206 212 214 223 225 233 233 223 224 225 225 224 229 232 232 233 234 234 230 232 234 234 235 233 235 234 232 223 196 185 169 200 190 158 145 117 107  97  87  83 113 164 204 209 207 207 211 210 207 208 208 207 209 207 208 207 202 201 197
 194 197 195 197 197 197 194 197 194 192 188 109 107  91 100 139 169 190 190 188 212 222 226 229 230 225 220 215 209 207 206 210 214 220 228 228 233 236 242 243 240 241 241 237 239 240 240 242 240 240 240 243 244 244 242 241 240 238 238 235 235 233 216 191 160 165 199 164 128 122  96  94 100  85 125 183 201 207 210 208 208 208 208 205 207 208 207 208 207 204 200 194
 195 196 196 197 197 196 195 197 193 189 157  90  95 101 107 126 156 183 179 201 221 227 228 229 227 230 224 219 216 223 224 225 228 227 232 236 241 243 245 249 247 246 246 246 246 245 246 245 245 246 244 242 244 246 246 244 241 241 238 236 237 236 235 217 163 128 165 185 168 122 125  98  92  82  91 157 205 208 211 207 207 207 208 206 207 207 206 207 205 202 202 196
 195 194 195 196 194 194 196 197 195 186 100  91  76  95 107 144 155 194 201 217 221 229 228 226 229 224 224 227 231 232 232 236 239 239 241 242 246 247 249 250 249 250 250 251 251 247 249 249 248 247 247 245 246 246 246 246 242 240 239 238 237 238 234 235 216 159 156 152 165 165 109 112 100  95  86 112 196 206 206 207 207 207 207 207 207 207 205 205 204 203 200 194
 196 196 196 196 195 195 193 186 180 129 115  69  62  70  91 116 181 195 215 223 224 222 226 227 229 228 232 234 231 233 236 239 243 243 244 244 246 248 247 249 251 251 250 250 250 250 250 252 251 250 249 248 247 247 245 245 240 242 239 242 237 234 233 230 221 193 147 126 162 153 136  95  95 104  96  83 151 202 202 207 207 206 204 204 205 205 205 204 205 201 199 194
 194 194 194 193 193 194 195 183 181 142 135  58  74  63  92 156 185 208 221 222 221 223 222 226 226 227 233 234 238 236 238 242 243 245 246 247 248 246 245 248 247 248 247 248 248 249 251 251 250 248 248 247 247 245 246 247 245 237 238 238 236 233 233 225 224 209 166 112 102 107 107 124  79  74  93  96  95 180 203 205 204 207 205 205 205 206 204 204 205 200 197 194
 195 194 195 194 194 194 195 169 161 156  95  79  83  87 124 147 191 212 217 219 215 220 220 225 225 229 234 237 237 236 237 240 242 244 244 244 244 243 242 242 246 246 246 245 246 248 248 248 248 247 248 248 247 244 245 243 241 234 234 233 233 234 228 222 222 216 198 162 104  90 107 115  97  79  68  93 100 115 202 208 204 205 204 206 203 203 205 205 202 201 197 193
 195 194 194 195 194 195 195 180 103 111  97  94  93  89 116 129 203 208 212 215 217 216 218 219 226 231 233 239 237 234 236 235 236 239 239 237 241 240 240 240 242 243 242 244 245 245 246 244 245 244 245 247 244 244 245 241 239 237 234 234 232 233 228 222 220 217 214 186 147 118 101  93 106  80  76  67  95 115 184 203 202 205 205 204 205 205 203 204 203 199 197 195
 194 192 194 194 193 194 195 194 133 121  85  65  63 100 110 151 191 202 206 212 213 212 215 220 220 231 235 239 236 234 232 233 232 233 237 238 237 236 236 237 236 236 237 237 241 240 242 242 242 244 245 245 242 236 238 237 237 234 232 231 231 231 225 221 218 221 217 195 160 108  95 101  95 103  81  73  70  96 146 199 206 205 204 204 203 204 204 205 202 198 195 195
 194 193 194 194 194 194 193 192 192 134 100  76  91  89 107 168 186 194 202 212 214 207 217 215 223 225 231 235 234 234 230 230 226 224 228 229 230 230 229 232 229 234 233 234 234 236 238 241 238 239 241 243 244 241 237 236 233 231 230 231 231 228 223 217 221 218 212 193 147 142 135 107 101 105  88  61  63  79 113 195 204 204 204 204 203 203 201 204 202 198 194 194
 194 192 193 193 194 193 191 191 190 133  94  77  79  95 110 168 189 190 193 204 207 206 217 218 223 226 231 233 227 226 228 226 224 215 217 226 226 224 225 225 229 225 228 223 223 227 231 229 230 227 232 232 234 230 230 225 227 226 226 232 228 227 220 217 216 211 212 191 148 124 126 128 110 102 103  61  67  79 104 190 203 204 202 204 203 204 202 204 200 198 194 191
 194 193 193 194 195 193 193 195 190 113  91  92  89 102 130 169 177 181 189 198 207 212 216 222 220 225 226 225 223 221 221 218 217 213 215 217 212 215 214 216 215 217 219 223 219 217 225 227 226 226 226 215 222 220 229 228 226 222 224 224 225 222 215 215 220 212 206 205 191 149 111 134 127 128 105  86  64  72 117 191 199 202 202 203 202 202 203 203 199 196 194 190
 193 193 193 192 193 192 192 195 192 119  94  97 104  97 137 169 184 189 183 196 205 196 209 221 222 226 227 224 225 216 210 202 204 199 203 210 216 210 199 196 197 196 194 207 220 223 222 215 210 202 200 200 206 212 219 215 215 212 216 219 217 215 211 211 215 216 213 207 188 150 132 120 118 121  91 112  63  71 107 189 203 200 202 202 202 203 203 202 199 196 194 191
 193 193 192 192 192 194 191 193 193 112  68  96  93 112 150 168 180 188 183 178 195 205 214 215 218 219 213 207 212 209 208 204 205 206 199 203 194 197 192 188 185 183 207 218 215 216 212 219 224 228 226 227 224 224 222 223 218 218 219 220 213 209 206 209 215 210 208 198 181 166 132 122 112 103 121  73  87  57  94 150 199 201 202 201 201 200 201 200 197 194 192 191
 193 193 193 192 192 191 191 193 194 122  82 100 103 110 148 164 175 173 177 200 200 205 205 206 210 215 223 224 221 224 215 208 195 194 191 186 186 185 187 181 194 208 205 203 206 216 217 215 212 217 217 219 211 213 213 214 214 214 214 214 215 211 208 208 208 195 189 188 175 134 125 115 112  97 106  54 104 101  69 162 200 200 200 199 202 201 200 201 198 194 193 191
 192 193 193 192 191 192 192 192 193 139 107 103 102 115 144 160 171 179 178 190 197 194 201 193 200 213 219 221 220 222 211 204 197 193 185 169 170 181 202 207 195 191 202 206 211 215 207 201 188 201 193 191 186 190 194 204 204 212 214 213 208 209 205 202 195 200 197 174 153 118 121 113 110  94  94  91  86 100 111 154 195 199 200 202 200 201 198 199 196 192 191 191
 192 191 193 193 191 190 190 190 187 134  84  79  97 120 148 158 168 176 168 172 168 175 176 175 185 193 198 210 209 210 215 208 196 181 168 165 186 204 216 208 206 215 209 204 199 192 201 212 213 211 212 220 217 212 203 197 189 194 206 201 206 208 201 200 194 198 192 179 162 126 101 111 105  81  99  80  93  75  74 107 171 205 209 202 201 200 198 200 196 193 191 189
 192 192 192 191 191 189 192 191 187 154 109 103 109 119 137 155 167 172 156 147 158 167 178 183 174 180 178 172 164 164 177 181 176 156 153 152 156 178 175 178 194 181 162 167 171 171 188 201 203 203 204 200 205 213 211 221 220 216 219 214 208 198 202 202 197 194 189 169 142 116 102 105 102  80  88 106  71  75 111 132 142 194 200 200 201 201 198 199 196 192 191 190
 189 190 190 189 190 192 189 191 190 159  77  97 111 108 133 157 157 162 170 171 167 172 180 187 178 171 177 199 207 216 217 220 216 206 190 176 152 143 137 150 148 153 166 174 186 178 167 166 151 168 185 194 206 204 202 208 217 216 216 213 208 205 199 197 199 201 192 168 131 115 113  94 121  83  72  96 114 118 117 115 108 153 197 199 200 199 198 197 195 193 189 189
 188 189 191 191 190 191 190 190 186 156 102 109 100 106 124 151 150 162 159 168 162 163 171 172 183 184 178 187 184 177 184 201 205 214 216 207 165 151 167 191 193 184 177 164 134 125 133 159 208 225 226 224 211 212 217 216 209 218 211 209 207 205 203 204 201 195 179 165 133 117  95  91  85 110  90  69  74  97  97  96  90 106 198 197 200 197 199 197 193 191 188 187
 190 189 191 190 190 190 189 190 188 156 113  89 114 110 120 136 144 151 158 155 155 162 163 175 178 167 150 140 143 171 163 158 167 185 193 203 202 190 177 168 151 145 120  97 128 187 216 218 215 216 220 216 219 214 202 202 198 206 212 202 202 207 206 205 201 194 181 161 129 104  88  88  82  78  80  64  75  93 109 113 109 107 180 194 199 199 198 196 192 190 186 187
 189 190 191 189 189 189 190 188 168 134  94  94 105  96 113 132 140 148 140 157 167 153 141 132 121 130 130 154 160 150 143 127 133 144 155 156 169 158 137 133 140 168 184 191 196 191 188 180 181 193 201 201 201 210 218 216 215 212 218 219 206 200 201 204 205 197 183 165 149 115  86  89  82  93  74  84  78 102 117 125 101 116 188 197 197 196 195 194 192 188 187 188
 188 189 189 188 190 189 190 190 177 147  96  96  96  95 102 125 137 139 161 153 139 126 128 158 172 172 176 173 187 186 178 166 145 124 119 123 124 149 185 194 198 195 182 180 189 200 209 200 196 206 215 210 208 187 191 202 204 208 214 213 218 217 204 204 207 205 192 175 160 133  98  87  79  76  74  94 106 106 103 131 133 144 196 197 198 198 196 195 192 187 186 186
 189 188 188 189 189 191 189 189 188 147  93  90  87  91  88 112 133 141 149 137 133 153 150 155 167 182 184 195 176 167 172 187 183 179 192 187 183 170 168 165 154 158 166 168 196 184 185 190 169 157 171 197 214 217 215 217 202 186 185 206 215 222 219 213 216 209 196 187 172 145 110  90  63  69  88  98 102  99 109 134 148 194 196 197 197 196 195 191 191 188 189 185
 190 190 189 188 188 188 189 189 185 137  99  88  88  86  94 111 129 142 144 138 143 144 148 150 164 166 161 169 181 182 189 183 170 145 175 192 163 133 123 110 128 159 189 207 188 185 181 174 185 198 208 208 193 202 215 214 219 218 210 198 196 205 216 219 218 206 201 194 179 160 121  93  69  67  82  74  92 119 100 109 156 196 195 197 197 195 196 193 191 188 186 186
 188 189 188 188 188 187 189 188 187 173  97  88  86  80  92  95 123 145 137 146 145 146 148 156 147 126 147 139 131 127 130 144 175 196 151 141 172 203 190 183 184 194 191 171 169 146 138 169 190 188 194 200 216 200 211 203 193 204 208 217 216 206 203 222 215 211 206 196 190 173 144 118  88  80  65 100 118 143 116 101 184 195 194 195 194 195 195 193 190 186 185 185
 186 186 187 187 189 187 185 186 186 181 115  88  86  73  83  96 113 140 143 147 144 154 156 144 137 135 157 174 162 154 150 139 134 146 162 148 128 174 185 180 171 173 161 167 133 137 164 181 183 188 189 202 208 217 210 188 210 203 205 208 218 216 220 197 213 206 205 205 194 187 166 122  91  86  92  94 125 153 123  88 171 196 194 196 197 196 195 192 189 186 186 186
 186 188 189 188 188 186 186 186 185 184 143  86  80  79  75  71 111 136 168 168 163 158 151 168 174 170 184 183 174 175 161 153 159 148 136 146 135 155 162 160 136 150 150 146 143 146 154 161 154 170 187 187 182 182 196 202 194 199 203 208 213 200 218 213 199 204 209 207 199 194 186 143  93 104 102 124 124 160 165 108 150 196 194 195 195 194 192 191 188 187 184 184
 192 190 189 190 190 189 187 186 185 188 159 115  70  74  68  70 118 145 185 175 192 194 186 180 168 185 180 171 160 151 141 160 162 159 156 145 141 130 117 130 117 116 120 131 141 138 145 122 111 110 125 134 120 115 131 143 156 174 168 184 190 188 196 213 198 215 209 210 200 199 185 156  93 104 116 125 151 174 163  96 125 195 194 195 193 193 192 190 187 183 184 182
 202 202 199 198 198 197 195 195 193 195 187 153  63  62  48  63 117 161 164 186 188 181 151 162 160 165 147 123 124 122 122 139 149 147 142 145 141 119 109 108 108  97 105 115 118 107 115 101 104  90  97  97 107 110 111 132 147 157 171 159 176 183 180 184 199 206 217 215 211 204 202 164 118 112 122 139 137 150 173 133 135 192 195 193 194 192 192 189 186 184 182 184
 209 210 209 209 209 206 205 204 204 202 204 192  96  49  38  57 118 155 172 179 156 160 181 158 163 163 127  99  94  96  99 105 124 127 122 129 123 105 110 104 109  83  92  98  98  95  96 100 102 103 101 103 104 108 122 131 142 156 167 171 151 164 176 176 185 205 213 214 213 211 206 182 135 115 131 107 112 122 168 156 153 194 194 193 193 192 191 188 185 184 181 183
 214 214 214 215 215 214 214 214 214 210 210 209 192  42  34  61 118 148 153 149 168 173 153 147 117  94  78  82  86  89  92  92  93 108 102 113 109 101 111 118 115  84  93  98  95  99  99 105 110  94  94  96 108 115 117 143 178 171 164 174 177 173 168 175 188 199 213 221 217 209 205 195 165 124 127 102  92 108 144 172 166 193 193 194 192 192 190 186 185 184 181 183
 214 216 215 215 216 217 214 216 215 214 215 213 206  89  91  71 122 141 152 154 154 144 132 103 102  92  85  92  90  95  93  93  92  91  94 106 106  99 109 110 111  93 103 104 102 102  98  93  85  89  98 111 114  94  76  78  88 132 154 193 197 179 173 170 187 193 212 219 215 212 208 201 174 157 139 116  95 103 130 180 181 191 191 194 192 192 189 185 185 183 182 180
 214 214 214 214 213 215 215 213 215 215 214 217 205 140 108  70 121 137 123 130 120 107 105  99  99  97  98  98 104 102 100  93  87  82  83  82  93  99 105 115 118 101 108 107  97  80  72  79  89 105 110  72  53  54  36  51  75 108 102  71 130 178 181 170 174 191 197 207 222 212 209 208 178 154 133 129  88  97 128 183 185 194 192 191 192 191 189 186 184 183 180 180
 205 206 207 205 208 208 212 211 210 210 212 211 202 171 134  79 126 141 115 104 112 116 111 106 100 104 106 109 119 119 113 102  85  66  55  55  62  95 102 121 124 113 115 104  95  72  59  84 106 103  67  75  72  69  31  57  74 117 146  70  89  94 137 190 191 187 204 212 216 208 209 204 180 139 141 155 102 104 148 188 185 191 192 190 191 191 188 185 185 181 179 178
 196 195 195 194 198 200 199 200 203 202 199 201 201 181 132  83 129 139 112  98 105 106 111 109 120 108 122 122 122 126 120 111  97  71  53  41  42  75 108 142 138 128 123 113 101  85  63  81  93  72  61  82 102  68  73  65  71 132 122 145 162 147 156 161 190 205 202 206 207 214 205 199 186 121 134 191 122 123 191 183 189 193 194 193 191 189 191 186 186 181 180 177
 183 183 185 183 185 185 186 188 191 190 187 189 185 186 132  88 142 165 119 106 114 145 125 110 113 103  52  39  29  55  51  78  85  70  50  48  47  66 140 160 163 149 132 111  95  92  88 107  57  61  63  76  80  84  71  86 117 133 171 185 194 205 211 202 200 209 215 216 216 206 201 195 178 106 127 167 171 174 198 171 186 200 200 198 199 197 194 191 187 185 182 177
 176 177 180 179 181 180 180 182 183 184 182 183 173 164 150  88 142 170 134 115 125 107  83  39  70  70  52  46  24  87  62  56  36  54  65  63  59  78 168 186 184 183 159 121 103  90 104  92 102  80  76  84 104 116 129 137 149 164 181 188 208 212 215 215 218 217 218 209 204 203 193 186 163 114 140 167 187 216 197 180 191 208 209 206 206 204 201 200 197 191 186 183
 169 171 171 171 173 172 175 175 176 177 177 177 174 168 138  86 140 161 142 107 116  89  31  34  98 100  56  45  56  48  67  45  32  40  58  84  80  95 187 201 205 213 196 156 124 105  93  80  90  83  85  97 112 117 131 148 145 152 167 191 199 206 210 212 217 220 223 218 209 199 194 175 143 122 121 154 180 210 200 196 195 214 214 212 212 212 209 203 200 196 192 185
 166 162 160 162 166 167 166 169 171 168 168 171 171 168 135  89 145 151 121 106  93  63  94  97  88  95  81  58  55  81  87  68  60  76  75  73  94 132 212 215 223 219 211 183 145 124 113  97  91  98  96  96 116 115 126 133 142 170 200 200 211 212 221 223 225 213 202 214 207 197 187 178 123 117 143 149 202 206 216 214 205 216 216 215 216 213 211 209 203 198 192 186
 152 151 151 149 156 162 162 160 158 155 158 164 160 162 148 102 123 156 146 122 106 113 118 128 128 121 113 109 105  94  74  75  78  78  72  94 106 155 208 220 226 231 227 196 169 148 141 133 112 110 107 107 123 135 161 183 207 210 214 214 213 217 209 202 215 218 221 206 200 195 181 165 121  97 124 162 205 197 208 212 207 215 216 214 212 212 212 210 204 196 195 187
 146 149 152 151 146 144 145 148 150 150 149 149 153 154 143 105 113 148 141 133 129 141 148 138 147 143 138 127 118 100  98  87  83  83  88 104 126 175 207 221 223 232 226 202 184 173 162 149 136 129 122 107 113 127 131 135 145 157 168 189 200 203 206 215 208 197 204 206 202 190 178 152 118  96 144 149 173 191 203 198 208 210 210 212 211 209 211 208 203 197 192 186
 149 152 156 154 149 147 144 149 150 154 150 144 143 142 143 114 105 148 171 170 161 145 151 170 168 162 149 126 108  96  96  93  93  88 120 112 148 170 192 214 226 223 217 206 188 181 170 154 143 148 149 125 118 111 113 123 132 151 168 190 202 200 199 212 208 208 188 199 194 187 170 127 116 120 171 187 170 191 194 184 203 202 202 202 201 202 201 201 202 198 194 185
 157 159 161 159 156 152 155 156 160 156 155 151 147 148 150 107 107 136 166 166 152 161 151 141 132 115 116 112 112 110  97  89  97 122 118 127 159 175 188 205 215 224 219 206 191 180 170 166 144 134 138 150 138 122 114 118 136 158 187 200 200 201 211 206 195 201 198 180 190 184 166 104 112 160 190 200 184 189 183 188 192 191 191 192 194 193 191 192 193 192 189 184
 165 164 164 163 164 161 161 163 162 162 161 157 156 155 155 140  85 107 149 163 168 141 144 140 140 124 123 123 113 104  95 109 119 121 118 131 166 184 198 206 218 225 223 211 201 183 179 172 157 130 114 133 141 157 150 148 162 169 185 201 202 203 199 206 198 187 183 176 184 178 162  93 122 152 164 194 187 186 182 189 189 185 186 186 188 189 187 186 183 181 183 181
 166 168 166 167 164 165 165 167 166 165 167 164 162 163 165 155 107 104 151 165 129 156 145 144 131 127 116 109 112 108 123 124 118 111 117 139 172 185 205 205 216 220 215 210 205 197 188 181 164 145 123 105 122 145 158 181 176 177 175 179 191 195 188 186 188 184 177 174 178 175 159 110 148 152 119 158 186 181 182 178 181 182 182 183 181 181 183 180 177 177 178 175
 170 170 169 169 167 169 169 169 170 169 167 167 168 166 167 156 148  68 142 143 157 155 160 162 167 154 141 137 138 140 144 129 119 113 118 142 174 191 201 209 218 217 214 209 209 207 193 186 176 160 132 115 110 129 147 163 170 183 184 186 192 190 191 193 181 183 183 174 175 179 167 144 161 162 162 137 171 177 170 169 172 176 174 176 177 173 175 176 174 173 173 173
 170 170 167 169 167 168 169 169 169 170 170 170 169 167 166 167 105  83 132 137 150 127 155 161 159 155 150 149 150 146 138 126 120 122 124 130 174 188 192 208 206 215 214 212 211 206 190 174 171 173 147 130 123 133 139 157 164 171 179 181 184 189 195 193 193 176 178 181 175 177 175 165 158 155 159 166 169 166 162 161 163 168 172 173 169 162 162 166 169 169 166 164
 169 169 171 168 168 170 169 170 169 169 170 171 169 169 172 167 141 125 115 117 124 131 135 137 142 151 156 162 153 144 131 121 129 129 118 117 177 198 190 199 207 215 216 211 209 202 202 180 151 150 157 135 129 123 135 150 156 162 171 173 176 189 188 185 190 182 157 176 180 180 173 168 159 161 156 156 157 161 164 162 156 154 159 162 163 160 157 153 156 159 160 157
 172 170 168 171 174 173 172 169 172 171 170 172 171 169 170 167 168 151 127 104 135 138 127 141 149 156 148 139 143 136 128 130 126 127 104 139 196 193 191 195 209 214 207 212 207 206 220 211 179 122 134 139 139 135 133 142 152 157 169 171 166 168 178 179 186 182 167 160 186 181 175 180 164 160 160 161 163 167 166 163 159 158 159 162 164 163 158 154 148 150 153 154
 176 175 169 173 175 176 177 172 171 172 175 175 176 174 171 166 165 155 130 103 128 132 140 140 143 141 133 138 135 139 136 135 124 102  72 191 189 185 192 215 210 210 210 214 213 214 221 219 207 125 105 113 117 128 134 140 141 157 168 170 161 174 156 166 179 174 177 133 181 187 168 177 149 172 171 171 172 172 173 171 169 166 166 168 168 166 166 159 155 156 157 158
 175 176 173 175 175 175 176 177 174 175 176 178 177 176 174 173 173 166 148  97 116 128 142 142 140 129 138 140 143 136 123 119  99  66 118 196 187 191 196 203 203 201 210 217 218 214 221 222 212 144  84  85  99 108 122 128 126 139 149 163 162 151 155 157 160 160 175 163 157 185 176 184 163 176 174 178 175 175 175 174 174 171 171 172 173 171 168 165 163 161 163 163
 175 175 171 172 171 173 174 176 173 174 172 176 175 176 176 174 174 176 174 137 110 128 131 135 126 137 138 134 130 129 114  94  67  49 154 179 184 192 183 170 174 187 202 205 208 205 202 194 188 157  91  76  69  79  95 109 125 132 135 149 139 153 153 141 149 156 158 164 162 180 176 179 165 180 177 178 179 180 179 179 179 176 175 173 174 173 175 171 168 165 166 166
 167 165 165 165 166 167 168 170 169 169 170 171 171 172 174 172 173 172 173 161 109 111 113 114 111 121 117 119 116 111  96  70  54  43 127 136 151 138 128 106 119 141 167 171 176 165 167 129 139 140 120 109  87  62  76  85  94 110 121 129 135 129 141 142 150 152 156 154 147 168 165 181 153 178 180 180 182 180 179 179 177 178 178 177 176 176 174 173 170 170 168 166
 156 155 157 160 160 160 163 162 160 163 163 161 162 165 164 165 164 166 169 161 104  97 108 104 104 107 105 105 108 101  71  57  44  63  92  93 103 108  83  78  73  87 108 125 129 138  63  67 113 156 169 144 107  93  63  70  80 106 113 118 133 136 149 135 135 128 146 159 150 154 179 176 171 181 182 180 182 182 182 180 179 179 177 178 179 176 175 175 172 172 169 166
 144 141 144 151 157 156 154 149 145 150 153 156 156 157 154 154 156 156 162 163 110  99 102  96  97  97 101 100  89  82  68  52  60  91 112 121  66  85  97  89  80  81 101 119 123  89  72  92 145 171 166 157 137 107  87  75  65  86 104 112 127 133 142 143 128 130 137 156 163 141 169 175 172 181 183 182 182 180 183 181 182 180 181 178 179 179 177 174 171 172 170 167
 131 137 135 133 132 136 137 138 138 140 142 147 149 144 143 141 146 153 154 155 119  96  93  93  89  94  99  93  80  76  61  58  83 124 125 114  72  53  80 100  96  98 109 117 114  92 102 115 142 168 151 154 154 119  87  83  69  74  85  97 114 132 136 136 136 127 129 135 147 150 175 176 176 187 185 185 185 182 183 180 184 183 184 181 179 179 177 177 176 172 169 167
 126 129 127 122 120 123 125 130 132 125 125 124 127 130 132 132 132 136 137 139 124  92  92  81  87  99  95  90  79  75  54  80 113 126 126 108  87  58  66  68  89 103 106  83  82  83 102 129 133 149 165 154 149 132 117  87  80  77  74  86 112 122 128 131 138 133 130 142 147 151 166 175 180 185 185 186 185 184 184 184 184 185 182 183 180 179 179 179 178 175 172 168
 118 120 119 116 115 115 117 121 123 121 117 118 119 122 126 126 123 121 127 132 136  91  78  78  80  91  85  81  82  62  70  94 113 119 113 130  91  87  71  70  68  64  60  61  66  80 102 109 142 138 133 147 162 146 115 101  83  83  81  84  94  97 130 133 145 131 121 150 154 153 158 166 178 183 181 182 184 183 183 184 183 181 183 183 183 181 182 179 179 177 174 169
 107 108 109 108 107 109 110 114 113 113 112 111 111 117 118 115 115 118 124 131 137 107  82  75  81  86  86  80  70  71  87  94 129 122 114 115 100  83  72  73  68  57  50  54  54  70 102 122 124 120 121 135 132 135 120 122  89  99 110  98  91 105 133 121 134 129 117 138 145 152 159 174 174 174 174 176 177 178 178 179 176 179 177 179 181 179 176 174 174 174 174 172
 101 103 102 101 101 104 102 104 105 104 103 104 105 107 107 107 111 115 122 128 136 125  85  76  79  79  82  74  59  88  89 103 107 117 111 108 108  97  86  75  61  61  54  58  59  79  91 105 113 117 104 124 111 102 101 100  87  99 111 115  92  95 144 136 129 116 112 140 155 162 159 165 165 168 167 170 172 169 167 170 171 170 171 172 171 174 171 169 167 170 168 168
 101 103 103 101  99 100 101 101  99 100 102 102 100 101 102 102 105 111 121 129 136 146  93  71  85  88  88  76  75  97  87  80  95 108  96  88  92  94  86  76  74  63  63  61  58  77  85 102 101 107 105  98 105 107  88  76  67  74  97  88  87  80 105 144 143 132 106 146 149 152 159 165 159 163 164 166 164 159 158 162 165 164 165 163 162 162 164 162 161 163 161 162
 112 110 110 110 108 107 108 106 104 103 104 102 101  99  98  98 103 111 122 128 136 145 117  85  82  78  74  76  94 100  89  78  72  80  85  82  91  84  90  79  75  67  58  64  73  84  89  96 111  98 107 106 104 109  48  55  51  60  57  55  76  87 125 140 143 111 105 146 143 138 158 151 141 146 149 151 154 149 147 148 156 159 158 155 151 151 155 159 157 156 153 147
 129 127 126 124 123 122 121 119 117 116 116 114 111 108 106 105 108 115 123 128 139 142 141  89  80  84  73  84  91  79  76  65  51  41  87  90  79  88  89  89  81  74  71  69  82  84  89  90  96  96  96  92  80  51  83  89  69  64  58  56  59  81 111 144 126  99 118 146 134 151 175 165 134 135 134 139 143 142 141 136 135 138 144 144 143 138 135 141 142 145 147 142
 141 140 139 136 133 132 131 131 130 128 127 125 125 121 117 115 119 122 129 132 138 138 139  97  80  73  86  85  86  73  71  51  25  40  36  58  71  70  63  67  66  59  62  59  64  72  74  74  74  68  75  88  88  95 100 101  95  73  59  52  78  67 109 127 116 104 123 137 142 141 143 164 129 124 125 129 132 136 132 127 126 128 133 137 134 131 126 128 132 137 143 140
 149 147 146 146 144 145 142 144 142 142 139 138 134 130 127 124 126 129 135 136 140 137 134 117  85  84  82  83  75  68  38  38  36  49  63  63  57  52  47  55  50  52  47  49  48  60  61  79  89 106 112 112 118 122 114 108 104  87  75  63  66  84 109 134 107 102 129 141 138 123 162 174 132 119 117 120 124 124 122 121 119 120 125 127 126 124 119 124 131 139 143 143
 154 153 152 150 150 149 147 148 147 147 146 144 143 141 133 133 132 136 136 140 144 143 142 146 101  69  83  86  71  57  45  56  49  56  69  88  82  77  75  73  76  73  66  62  70  90  97 116 132 127 135 132 132 132 122 115 110  97  90  77  74  82 110 122 104  92 114 130 138 137 153 172 148 112 114 117 115 115 114 113 114 113 114 117 117 115 117 122 130 137 146 149
 155 155 153 152 153 152 152 150 151 150 151 148 147 144 140 138 135 138 139 142 148 148 152 153 143  89  74  82  83  66  51  53  61  71  78  81  96  92  87  86  87  86  83  80  80 101 121 138 138 135 130 135 147 132 125 120 119 117 101  90  89  95 107 130  98  97 114 119 130 157 158 168 231 129 114 114 111 111 111 109 111 109 110 111 107 110 113 122 130 138 146 152
 157 157 156 154 154 154 153 153 154 153 152 151 149 144 142 138 135 140 142 142 147 152 155 157 158 123  73  67  91  70  58  50  73  65  80  86  93  99  97  78  83  91  82  90  88 103 106 127 111 136 130 133 142 128 133 118 108 101 124 118 104 107 106 139 110 117 123 133 141 151 160 169 235 207 112 115 116 114 116 114 113 113 112 109 105 106 114 123 129 138 143 151
 157 157 158 157 156 155 155 155 154 155 153 152 150 145 142 139 139 139 141 142 145 149 153 155 184 183  94  66  76  71  59  69  73  72  76  93  89  90  84  84  81  75  83  71  87  93  84 120 111 128 120 128 122 133 138 126 123 134 136 117 110 102 107 107  99 111 136 140 150 159 161 169 214 242 152 128 127 127 124 123 120 118 118 117 111 110 116 124 131 138 143 147
 158 159 158 158 154 154 155 155 155 155 151 151 149 145 143 141 139 141 144 141 140 148 154 187 202 133  89  86  81  68  66  94  83  72  83  78  87  87  81  76  81  76  66  76  77  78  94 109 118 112 129 136 128 135 122 126 120 137 140 120 116 118 114 111 113 134 126 139 162 158 167 167 172 242 219 143 142 141 138 139 135 135 131 130 124 123 126 132 138 143 141 140
 160 161 157 156 155 155 155 154 155 155 154 152 151 148 143 140 139 143 141 142 140 141 175 212 162  86  65  87  85  76  65 100  84  93 107  87  94  92  83  77  80  79  71  80  73  76  79  88 105 113 131 129 130 115 139 128 145 150 132 136 120 127 131 117 104 120 117 135 148 162 167 175 127 224 246 171 151 153 153 152 150 148 145 144 138 134 138 140 144 145 142 136
 160 159 157 157 157 155 156 154 154 155 154 152 150 148 144 140 140 140 140 143 139 154 221 183 121  70  66  75  91  79  72  90  94 106  94  94  92 101  90  93  85  70  78  70  68  84  94  92 108 112 142 133 134 141 142 113 128 156 139 151 131 119 131 104 109 111 127 137 142 155 165 168  98 203 246 215 159 158 158 158 156 156 154 149 145 142 141 144 145 145 145 139
 160 160 156 157 158 157 155 155 153 153 154 154 150 147 144 141 142 142 144 144 146 213 209 147  92  72  61  54 103  94  77  83  99 100  91 100 107 106 103  99 107  91  73  73  64  68  79  88  96 122 147 146 125 126 139 163 131 148 146 154 148 133 114 122 123 130 130 145 150 155 158 170  72 162 245 244 160 165 161 161 161 159 158 157 152 148 148 148 148 150 150 146
 161 159 158 157 158 157 157 154 153 154 154 153 150 147 145 142 142 141 142 146 200 222 184 105  80  70  60  52 104 102  82  90  98  93 113 108 114 114 109 114 110  98  77  73  61  60  68  68  85 137 142 148 123 134 141 138 167 130 158 149 136 139 106 114 125 121 123 143 166 156 171 164  61 120 240 250 152 160 165 161 162 162 160 159 155 151 150 148 151 150 152 153
 159 159 157 157 156 156 157 156 155 154 154 152 151 145 143 141 142 139 145 178 229 201 143  86  81  71  68  50  88 106  94  90  91 103 122 123 120 119 121 142 118 117 107  99  90  92  98 123 137 138 150 165 134 140 165 137 157 169 149 144 142 149 121 107 108 118 123 150 150 152 161 156  55  97 226 250 209  74 162 169 166 163 164 160 158 152 151 152 151 149 152 151
 158 158 157 157 156 155 155 156 156 154 153 152 151 146 143 140 141 144 152 231 211 150 106  89  78  77  69  41  73 102  96  92  93 105 116 119 128 139 113 116 124 120 118 107 115 124 130 137 152 140 158 157 139 148 157 150 184 159 152 140 133 110 108 107 109 130 133 138 153 152 156 144  59  74 211 250 244  23  69 161 166 165 165 160 158 152 152 152 151 150 149 148
 160 159 157 157 156 157 156 156 156 154 154 151 147 148 141 133 122  94 207 225 176 112  94  87  86  84  71  40  48 106 106  86  88 111 128 131 146 132 134 117 110 108 114 128 133 138 135 143 152 169 171 153 156 162 150 154 161 171 145 134 110 106 104  98 108 110 125 145 145 148 153 131  52  47 188 250 254  75  18  79 158 165 165 160 158 152 151 152 151 147 145 143
 157 154 155 159 156 155 154 153 155 150 152 150 140 115  81  46  25  97 235 208 138 109  96  91  91  86  57  25  24 104 103  92  91 118 121 135 133 135 115 124  95 108 101 118 129 125 134 147 164 145 163 162 160 165 136 153 158 160 129 116 103 105  98 103 110 120 128 139 138 140 147 120  45  16 164 246 249 150   9  10  84 157 166 161 157 153 153 153 151 148 140 136
 158 157 155 156 157 154 155 153 146 128 100  60  33  12   4   3  13 228 226 186 121 109  98  95  96  82  32   7  17  98  98  91  91  98 115 140 132 138 107 103 110 105 105 108 118 115 125 133 134 139 168 157 161 139 143 147 161 163 120  96  99 101  99 112 117 118 125 133 133 135 147 104  47  19 146 245 253 220  14  12  14  77 151 160 158 154 153 153 149 149 140 133
 159 159 156 149 143 125 103  69  37  16   8   3   4   9   1   7 147 237 216 163 113 113  96  99  94  72  10   7  17  85 100  98  94  76 101 124 122 125 110 109 101 122 102  98 111  99 129 102 125 107 137 149 164 145 135 137 156 128  96 102  99  97 102 111 111 115 126 126 121 136 141  93  42  12 128 240 252 245  13  11  12  22  37  89 136 155 153 154 152 150 143 141
 116  94  70  45  23  13   5   2   4   5   4   3   2   6   6  39 239 231 205 152 127 106 103  98  91  58   5   8  15  84  98  97  93  91  68 107 137 108 123 103 108  95  91  92  89  87 123 109 105 130 123 138 144 138 134 152 155 112 107 100 104 107 107 108 114 121 120 120 113 128 143  86  43  16 109 237 254 252  42  13  11  16  34  17  28  75 129 150 151 148 151 149
   5   2   6   3   5   1   2   3   3   2   2   2   5   9   5 168 243 224 192 140 136 105 103  98  83  40   4   7  24  89  98 104 103  88  83  80 115 110 119 114  82  74  98 106  94  94  98  88 111 123 132 118 132 140 147 128 107 103 109 113  98 106 108 101 108 110 114 118 107 118 140  81  46  19  93 224 253 254  79  14  10  13  31  28  18  17  29  75 122 146 154 148
   8   6   5   5   1   2   5   1   2   3   3   1   6   8  28 246 243 212 183 136 128 104 110 100  76  23   6  12  38  97  99 105 101  96  90  80  89  94 100  99  91  89  86  83  87  87  98 101 106 112 108 117 134 131 117 119 120 116 114 104 109 111 111 107 104 102 103 107  98 107 128  89  48  16  81 205 254 253 113  16  10  16  28  31  15  17  22  21  28  72 130 144
   4   4   3   1   3   4   4   2   3   4   6  10   8   6 179 242 225 205 176 160 120 110 108 100  59   7   7  12  67  95 100 100 101  97  89  88  85  83  86 110 114  86 101  87  87  96 105 104 114 112 130 105 110 110 117 117 117 108 121 111 114 112 107 103  99  90  88  79  76  88 106  95  43  16  73 201 251 254 168  14  11  12  15  26  16  13  19  10  20  19  26  80
   6   3   2   4   2   2   3   4   2   3   8   8   5  31 247 240 225 210 180 169 115 114 113  99  17   6  11  23  80  96 103 100 101 103  97  83  81  85  86  77  87  74  84  92 103  85 104  89 113  98 116 104 114 117 112 112 110 112 118 110 119 120 106  99  96  86  83  71  61  70  87 101  54  23  78 203 250 253 196  10  18  10  15  26  17  12   8  12   9  10  14  16
   5   3   3   1   1   3   2   4   7   9   5   7   5 192 242 238 219 214 171 154 118 119 110  89   5   9  16  48  91  97 105  96  98  98  87  90  84  86  88  82  81  80  85  84  88  83  90 111 111 111 119 108 114 110 114 112 107 109 108 120 116 114 108 100  97  97  94  74  57  53  70  94  61  23  77 205 248 253 210  18  13  12  12  22  21  15   8  10  10  11   9  10
   6   2   3   3   3   4   3   8   7   6   8   5  28 252 247 233 225 210 176 140 126 126 111  65   7  15  30  63  92  97 106 100  96 101  99  86  87  85  86  80  70  66  80  87  85  83  94 116 107 112 110 108 114 112 114 116 110 116 113 122 110 107 103  99 105  99  89  77  58  46  53  62  52  29  85 209 249 250 224  11   9  11  13  22  22  15  11  11  14  11   8  10
   7   0   2   2   2   4   8   9   9  13   6   3 185 250 244 233 223 184 185 140 131 125 113  41  12  24  43  79  95  99 105 103  97  98  95 101  90  85  88  81  75  74  78  84  86  85  96 107 112 110 112 106 102 109 114 119 107 109 117 111 110 105 106 110 104  97  86  78  57  39  43  43  47  35 100 211 248 253 230  14   9  10  10  14  23  12  14  11  14  11  11   9
   3   3   3   1   2   7  10  10  18  10   7  30 249 246 240 234 216 187 173 144 141 129 120  23  19  38  55  79  96  97  96  98  97  97  97  91  99  92  79  81  72  77  72  83  78  80  86  85 106 118 101 101 102 114 122 118 108 100 109 110 107 108 105  99 103 102  91  78  64  43  41  43  45  35 124 220 249 254 235  15  16   6   8  15  25  14  13  16   8  16  11  12
   2   2   4   3   8   8   8  11   9   9   1 148 253 246 237 233 213 200 176 156 152 129 123  14  25  46  62  83  97  96  96  96 101 100  99  89  99  85  77  80  85  77  76  73  74  89  86  96  97 103  93  98 111 108 119 120 104 105 105 107 107 105 102  94 100 101  97  83  65  47  43  39  41  38 154 228 248 252 249  28  10   9   7  13  16  12   8  11  13  10  14   9
