P2
# Generated by OpenCV 4.2.0
92 112
255
 122 122 122 122 122 122 122 122 122 122 122 122 122 122 122 122 122 122 121 122 121 122 122 122 122 122 122 122 122 121 122 122 122 122 122 122 122 122 122 122 122 122 122 122 122 122 122 122 122 122 122 122 122 122 121 122 123 122 122 121 122 122 122 122 122 122 122 122 121 122 122 122 122 122 122 122 123 122 122 122 122 122 122 122 122 122 122 122 122 122 122 122
 122 122 122 122 122 122 122 122 122 122 122 122 122 122 122 122 122 122 122 122 122 122 122 122 122 122 122 122 122 122 122 122 122 123 122 122 122 123 122 122 122 122 122 121 121 121 123 122 122 121 122 123 123 123 123 123 122 123 122 122 121 122 122 122 122 122 121 122 122 122 122 122 122 122 122 122 122 122 122 122 122 122 122 121 122 122 123 122 122 122 122 122
 124 124 123 122 122 122 122 122 122 122 122 122 121 122 122 122 122 122 121 122 122 122 122 121 121 122 122 122 122 122 122 122 121 121 121 121 121 121 121 123 122 120 123 126 129 130 129 129 127 127 125 125 125 127 126 125 124 123 126 128 127 125 125 125 125 125 125 125 124 124 124 124 123 123 122 122 122 122 122 122 122 122 122 122 122 122 122 121 122 122 122 122
 132 130 129 128 126 125 125 124 124 124 124 123 123 123 123 123 122 122 120 121 121 121 122 120 120 120 120 120 120 120 121 119 121 122 121 120 121 120 124 126 127 133 140 141 139 137 136 141 143 141 135 137 140 138 138 139 140 146 147 140 141 136 132 132 130 128 127 125 124 123 122 120 119 118 118 117 117 118 117 117 117 118 118 119 120 120 121 121 121 121 121 121
 140 137 134 131 129 127 125 124 124 124 122 121 121 120 119 119 118 119 119 118 119 119 122 123 122 121 121 122 121 120 121 123 126 126 127 129 133 136 138 144 153 158 160 158 157 160 163 165 160 162 161 160 163 165 166 167 169 172 162 154 147 155 148 131 132 127 121 119 117 116 116 114 114 113 114 113 113 114 113 115 115 115 116 116 117 117 119 119 119 120 120 120
 137 134 131 128 125 124 123 122 122 122 122 121 121 121 121 121 121 121 122 122 122 128 128 128 124 123 125 126 130 134 134 140 143 139 141 151 151 161 166 168 170 169 169 171 169 171 170 167 166 169 176 178 176 177 177 173 172 175 176 175 167 170 184 146 138 130 124 117 116 117 117 118 116 116 116 116 115 115 117 117 119 120 120 120 122 122 123 122 122 123 123 123
 132 131 131 130 128 126 126 128 128 128 129 129 128 128 129 129 128 129 128 129 130 131 130 129 129 139 150 149 149 153 146 144 147 149 167 176 179 179 176 176 176 177 175 171 167 166 167 168 172 177 178 173 172 171 167 167 161 166 178 174 170 168 198 187 155 146 141 134 125 125 128 124 125 125 125 125 124 124 124 125 125 126 125 124 123 123 122 120 119 118 118 117
 142 141 142 141 139 138 137 137 137 137 137 136 136 135 134 134 133 133 133 133 130 127 128 143 163 160 149 139 140 143 147 156 178 190 191 186 184 189 188 183 179 181 173 170 178 175 174 178 181 185 182 177 169 171 174 176 178 183 179 176 166 163 192 197 169 154 149 152 146 134 130 128 128 127 126 124 122 121 120 119 118 117 116 115 114 112 112 112 110 110 111 111
 154 153 153 150 148 145 143 140 140 139 138 136 134 133 131 129 128 127 126 126 126 133 163 180 169 144 125 120 140 154 171 193 193 189 190 187 190 195 188 185 185 184 182 186 183 180 180 170 168 163 162 170 172 174 183 183 179 176 189 187 184 184 185 180 180 177 164 166 160 141 127 125 122 118 116 115 113 113 113 112 113 111 111 111 111 111 111 111 111 111 112 113
 154 153 150 147 142 139 137 134 133 130 130 129 128 127 127 126 124 125 126 127 137 172 192 162 140 137 131 144 174 191 204 196 190 192 189 185 187 186 183 183 183 182 178 171 175 179 183 177 174 163 153 165 173 179 181 182 172 174 180 163 170 186 178 175 182 172 173 168 164 164 133 122 120 118 115 114 116 115 116 116 117 117 117 116 118 118 118 119 119 120 121 122
 146 146 142 140 136 134 132 132 131 131 129 130 131 131 130 131 130 130 134 140 158 192 168 143 135 146 155 183 199 203 197 192 188 191 186 174 174 175 175 166 166 160 160 162 159 150 152 163 175 184 183 184 183 177 173 171 173 173 163 161 176 173 161 168 176 171 169 163 154 159 161 150 127 122 123 123 123 125 125 125 126 126 127 127 128 129 128 128 128 129 129 129
 142 141 140 139 138 136 136 137 137 137 137 138 137 138 138 138 140 140 141 152 172 179 151 137 138 159 185 202 200 194 186 192 195 178 153 154 161 157 144 153 151 148 153 140 124 134 138 135 145 150 162 170 176 165 166 160 152 162 151 165 172 153 148 155 163 173 180 172 162 157 169 170 156 139 131 132 136 132 132 132 132 132 131 131 129 129 128 126 125 124 122 121
 148 147 148 147 147 145 144 144 144 143 141 140 140 139 138 137 144 141 141 158 169 165 151 146 152 173 195 189 186 184 186 193 173 138 148 153 165 153 156 154 145 130 127 106 118 142 140 138 137 126 130 138 158 158 148 139 136 142 151 162 146 134 133 140 161 157 150 156 158 168 172 175 171 168 154 147 140 126 126 125 123 122 121 119 118 117 116 114 113 112 112 112
 151 151 151 149 147 145 142 141 141 139 136 135 134 133 134 131 134 148 155 171 176 167 163 177 180 180 184 178 177 182 188 166 135 141 148 163 165 153 146 144 136 130 122 122 150 134 116 125 121 122 128 129 137 148 135 113 111 136 157 150 126 118 119 142 160 161 166 170 172 171 164 160 165 173 175 163 129 117 118 116 115 114 115 114 114 116 114 114 115 115 115 115
 148 147 147 144 140 139 138 137 137 134 134 134 134 132 134 143 157 178 192 187 179 177 174 173 169 175 180 170 180 188 170 148 136 139 160 162 147 143 141 138 131 128 130 141 128 123 119 120 127 126 118 110 112 118 118 115 127 142 133 122 119 114 124 125 125 128 137 144 147 141 138 137 147 146 148 155 151 135 124 120 121 121 122 122 121 123 123 122 124 124 125 125
 144 143 143 141 139 138 138 138 139 140 138 138 138 138 156 168 163 171 189 194 190 181 177 162 168 183 174 168 183 175 160 146 140 148 158 140 147 140 139 126 123 130 134 127 119 120 122 120 121 131 140 142 135 119 110 101 103 112 122 119 105 109 106 108 111 123 131 140 148 151 139 137 134 132 138 145 139 147 146 132 130 130 131 131 131 132 133 133 134 134 134 133
 146 145 145 145 144 143 144 144 144 144 145 143 142 158 175 167 176 188 198 202 197 186 186 182 179 187 174 170 177 162 158 138 144 153 142 138 146 138 131 127 120 136 133 130 131 134 142 144 146 147 145 147 144 142 122 110  96 108 130 120 125 124 102  93  87  92 116 135 140 152 153 145 130 123 130 149 147 148 144 143 139 135 135 134 134 132 131 132 131 131 131 128
 152 152 151 151 150 149 148 146 145 144 142 143 145 151 169 176 184 194 199 197 190 197 201 207 207 200 183 181 166 157 149 140 146 148 140 144 140 133 134 129 141 152 146 141 142 144 145 148 158 163 161 161 155 147 138 129 117 124 148 155 154 145 133 115 104  90  94 111 128 136 153 157 155 133 110 115 142 164 146 132 134 129 124 123 121 121 121 120 120 122 118 117
 151 150 149 148 147 145 143 140 140 139 139 145 147 157 168 174 186 200 199 199 202 208 214 220 225 218 196 185 167 156 143 144 149 154 157 152 148 141 150 157 167 159 158 160 161 156 158 167 172 173 172 169 167 164 161 152 134 160 176 181 182 177 161 149 131 104  94  93 111 123 140 159 172 177 158 133 123 148 164 135 124 122 121 117 117 117 117 118 120 121 119 118
 148 148 148 147 145 144 143 141 141 144 147 151 166 161 169 180 190 194 199 204 203 208 216 220 224 222 205 189 174 162 149 146 154 164 168 163 163 166 173 179 174 170 169 168 174 174 176 179 179 179 184 181 180 182 182 176 175 190 196 197 195 193 186 175 159 143 121  91  76  76  77  90 115 139 160 161 134 128 142 153 134 125 129 127 128 127 127 127 128 127 128 128
 149 150 149 149 147 147 147 146 146 151 151 161 168 162 170 172 181 187 186 191 193 209 223 225 228 225 215 201 180 170 164 154 156 168 171 175 177 178 184 187 189 188 184 183 184 186 189 190 192 193 196 194 190 189 193 197 198 200 201 206 205 200 196 193 185 169 155 125  93  72  70  78  87 102 123 141 140 126 122 147 162 142 137 137 136 137 137 137 137 136 136 136
 152 151 151 151 151 152 150 150 157 159 159 162 169 169 165 177 181 175 164 169 202 217 228 228 231 229 222 207 198 185 175 170 166 174 179 184 182 187 190 195 198 197 194 196 197 196 196 198 197 199 199 196 195 195 195 193 202 211 204 202 208 209 206 199 193 187 180 153 112  78  48  45  57  69  94 130 130 118 115 128 157 163 144 139 139 138 137 136 134 133 132 130
 153 152 151 151 150 148 146 144 156 166 154 150 159 163 169 178 173 153 141 174 218 228 232 232 233 231 222 216 208 202 193 183 179 189 187 184 187 192 195 198 200 202 201 199 202 201 201 202 199 198 200 197 200 197 198 198 200 206 208 199 208 215 214 211 194 188 182 171 145 115  84  65  58  59  60  88 118 129 116 118 137 154 148 130 127 126 126 124 123 122 121 119
 149 148 147 146 145 145 144 144 147 154 159 158 160 166 183 183 160 151 175 206 227 238 239 237 233 232 233 228 217 212 203 194 190 196 195 193 193 196 199 201 202 201 199 200 204 203 203 202 201 201 201 205 205 202 202 206 210 206 204 207 215 222 216 216 205 189 183 175 157 132 106  85  74  65  59  58  73 115 132 120 114 147 161 131 122 122 121 121 121 121 120 120
 149 149 148 148 148 146 146 150 151 149 149 161 167 171 192 178 162 167 193 225 238 240 239 236 233 235 239 227 216 209 205 202 197 195 202 201 199 203 203 202 201 201 198 201 202 204 203 201 204 204 203 205 203 206 209 208 205 205 208 209 221 227 211 214 217 191 182 178 160 136 104  87  73  65  68  65  59  80 121 129 116 139 172 141 131 127 127 128 130 129 128 129
 151 152 152 151 151 151 152 154 153 152 162 162 164 189 190 169 161 172 209 239 242 240 237 235 227 231 228 217 212 208 204 204 200 199 200 199 201 204 204 201 201 201 201 205 204 203 203 206 207 204 205 204 205 205 208 208 208 207 209 209 213 221 209 215 217 194 182 179 174 168 145 114  96  90  91  64  52  55  87 125 114 123 152 155 146 137 139 138 140 139 139 138
 154 153 154 153 152 151 154 151 150 159 160 161 192 189 168 156 149 185 229 240 241 240 235 230 223 218 215 215 208 209 205 203 202 202 201 202 201 203 205 202 201 202 203 205 205 202 207 206 203 204 202 201 205 207 207 208 210 209 210 210 205 211 206 207 208 194 183 181 178 172 166 137 106 103  87  54  44  53  67 109 117 109 126 153 153 138 139 138 138 137 136 134
 149 149 149 148 146 146 150 150 146 157 172 198 190 164 157 148 158 209 235 239 240 239 233 227 222 217 214 211 204 203 201 201 199 201 202 203 202 202 203 200 201 201 202 203 199 201 202 203 203 202 198 199 203 206 207 212 205 206 207 206 205 200 201 203 201 192 184 179 180 179 172 150 125  83  56  52  56  54  64  97 117  98 112 132 148 131 128 128 126 125 125 124
 148 148 148 148 146 146 144 150 149 169 193 181 173 170 157 158 182 225 235 239 239 236 230 224 217 217 216 207 203 203 202 199 200 200 197 201 201 202 201 199 198 199 201 201 199 199 202 200 198 200 200 197 201 205 204 205 202 202 205 205 201 198 197 197 194 186 183 184 178 170 161 160 138  96  57  46  49  47  61  86 121 109 117 140 154 136 122 123 123 123 122 122
 151 151 152 151 150 151 148 150 157 177 167 162 168 153 149 149 193 233 235 238 236 233 224 220 221 217 212 206 203 203 200 200 199 197 197 200 197 199 198 198 197 198 200 197 196 195 197 196 197 198 197 195 199 202 202 205 202 197 198 197 196 193 195 190 189 188 182 183 176 170 164 151 137 118  92  62  51  47  53  83 108 116 123 136 157 149 130 126 129 130 130 131
 154 153 154 154 153 152 152 151 155 159 170 171 167 156 141 155 208 231 232 235 236 230 217 223 221 212 206 203 201 201 199 199 198 198 196 195 193 196 196 197 196 197 198 193 195 193 188 189 195 195 194 192 193 194 192 195 196 193 192 191 191 191 191 189 188 184 181 182 181 174 165 154 142 122  86  67  64  50  52  72 106 113  98 118 158 167 152 138 140 140 140 140
 151 151 150 149 148 148 146 145 163 174 175 167 139 115 123 167 213 229 229 233 234 224 220 222 218 210 203 199 198 196 198 199 195 196 195 192 193 193 193 191 188 191 191 188 189 192 190 188 187 189 192 188 189 187 181 185 187 193 195 193 191 187 190 192 186 181 180 183 183 173 159 148 148 141  95  63  68  66  54  61 115 113  74 117 147 161 168 153 139 138 137 136
 146 146 145 145 144 143 143 144 154 160 153 150 140 147 156 179 217 223 227 232 228 220 216 217 214 208 203 201 199 196 195 195 192 192 190 189 191 191 191 186 182 184 183 181 181 186 190 189 189 189 186 180 177 178 176 177 179 183 185 183 183 186 188 183 182 180 181 183 181 170 160 155 156 132 108  88  69  72  73  54 104 119  88 116 147 147 150 158 137 129 127 126
 148 148 147 147 147 148 146 146 156 168 167 135 137 126 150 187 218 223 231 232 217 207 214 222 217 208 202 197 193 194 186 184 182 184 185 185 188 190 185 182 178 178 180 177 180 185 190 190 187 181 178 177 178 179 179 179 177 178 181 179 178 182 184 182 177 178 179 179 175 171 162 155 146 134 116 112  96  76  73  64  82 108  86 107 144 144 143 155 150 131 124 123
 154 154 153 152 154 153 150 157 159 164 184 163 145 148 167 194 218 225 229 213 205 221 220 214 208 198 190 188 185 186 188 188 188 189 191 185 184 183 179 176 174 175 175 180 183 182 181 184 182 183 184 182 181 182 182 178 179 177 179 180 175 176 178 179 173 175 178 173 166 169 157 143 139 132 124 113  98  72  76  86  77  77  69 112 124 132 142 158 150 143 130 130
 155 155 154 153 152 149 149 156 161 175 158 170 164 164 177 195 214 218 209 213 227 224 213 206 196 191 193 195 196 194 196 192 189 185 182 184 180 172 170 172 175 179 180 179 174 175 177 180 180 181 179 174 174 175 175 172 172 174 174 176 179 182 179 176 175 174 170 169 169 163 151 144 132 120 114  95  77  63  70  90  83  56  48  99 117 130 145 144 150 153 151 143
 148 148 147 146 146 143 150 153 172 189 175 172 182 174 174 195 213 209 218 225 219 208 205 194 187 193 198 195 194 196 196 190 182 180 181 179 171 167 172 179 187 185 176 174 172 172 174 176 176 175 173 168 165 160 160 160 162 163 166 168 174 177 176 173 172 173 168 165 167 157 153 143 129 114 110 108 104  86  67  91  92  61  59  95 118 143 134 140 155 157 155 148
 147 146 145 144 144 144 152 157 169 184 186 178 183 175 173 193 208 215 217 210 199 189 186 183 186 192 186 183 186 185 183 180 176 173 171 166 162 167 175 185 186 176 171 175 172 169 168 170 170 168 173 175 174 177 179 181 183 179 175 175 176 181 177 176 170 170 171 172 170 163 154 148 135 130 133 135 109  87  76  91  85  64  64  94 128 135 126 136 146 150 152 152
 150 150 150 150 148 148 158 165 189 198 192 185 171 163 173 193 209 210 204 190 178 189 188 188 184 183 176 168 164 159 158 161 163 163 158 155 159 164 167 166 158 160 165 165 157 157 167 169 170 166 168 177 179 177 177 183 185 182 182 183 183 185 181 179 177 170 171 174 172 165 156 144 132 125 112 105  92  81  85  90  71  67  73  99 127 126 130 128 148 143 148 152
 155 154 154 154 153 151 156 173 179 183 186 178 166 162 165 192 211 204 195 192 196 196 191 188 179 182 172 168 167 171 176 179 180 180 178 179 176 170 158 145 145 149 156 160 168 168 172 169 168 165 161 153 153 155 160 170 176 174 178 180 179 181 180 177 175 173 175 176 173 167 159 141 123  99  68  55  64  70  79  91  76  68  75 112 122 127 112 118 128 140 149 141
 152 152 151 151 149 149 161 164 167 165 171 175 179 168 163 187 207 197 197 199 196 189 189 187 175 173 174 175 176 178 177 173 175 175 180 181 182 173 162 158 166 172 176 174 172 172 165 158 151 147 146 157 173 178 184 186 184 183 181 180 184 181 175 173 173 172 173 176 172 169 160 146 126  93  61  41  56  69  75  80  75  61  94 116 107 124 111 122 134 144 143 137
 146 147 146 146 145 152 153 157 164 165 178 164 140 152 168 179 197 198 193 193 190 182 187 185 180 182 178 173 167 160 157 158 160 160 166 172 176 178 177 175 177 173 167 160 154 142 135 135 137 153 175 190 192 190 190 185 179 178 179 177 177 178 176 168 168 171 175 175 175 173 163 156 142 106  65  41  47  65  74  78  95  94 110  95  96 109 101 115 126 130 136 139
 148 149 148 148 149 155 145 152 163 163 153 127 133 180 187 176 188 196 194 191 182 186 187 179 171 163 153 147 148 160 169 167 166 165 162 166 167 165 168 161 153 145 138 137 141 144 155 169 180 190 189 187 186 187 185 184 183 184 185 179 177 180 182 180 174 170 170 175 177 176 170 162 149 121  79  45  42  59  68  75 101 106  86  88 108 105 102 121 116 124 135 132
 155 154 153 154 156 155 153 153 158 154 122 105 149 169 159 165 181 192 193 188 191 189 179 167 156 154 159 162 166 159 147 142 139 137 136 140 144 148 152 153 154 160 167 175 178 182 182 186 184 182 178 179 180 184 181 180 177 180 182 180 181 183 182 180 184 181 174 177 179 178 175 168 151 126  84  55  39  52  69  73  97 130 122 112  85  81 114 107 102 117 127 136
 154 153 152 153 153 153 152 151 154 143 119 102 158 163 148 169 181 191 192 192 190 176 172 177 185 186 183 175 170 168 170 172 170 166 159 155 153 149 159 174 185 186 186 182 177 175 181 181 182 183 180 179 184 188 186 181 177 174 175 174 172 171 176 181 185 188 187 182 180 175 177 173 162 137  97  64  40  36  65  90 103  99  79  93  94 133 131 115 119 127 137 137
 146 146 146 146 145 145 145 144 148 132 132 140 156 150 163 164 171 184 190 189 181 177 187 188 186 184 185 182 182 181 177 178 182 183 182 183 185 179 179 173 168 167 168 172 177 178 177 182 182 181 180 178 177 173 175 180 181 183 181 182 183 180 177 176 176 179 184 187 184 180 179 176 169 151 117  77  42  22  56  88 101  90  76  96 132 136 126 130 132 139 159 147
 143 144 142 142 142 143 143 142 146 133 112 136 143 144 171 161 166 181 192 187 180 182 182 183 184 187 187 182 182 179 178 177 174 173 168 172 182 181 173 160 151 153 166 172 175 177 181 181 174 177 177 173 167 171 175 175 175 180 184 189 189 192 193 189 185 183 178 184 188 181 180 179 172 164 134  94  54  17  36  82 112 140 143 135 123 119 123 129 140 156 156 138
 146 146 147 147 147 147 148 147 150 136 109 121 140 164 159 146 147 171 193 190 185 183 185 187 188 185 178 178 180 178 171 174 177 185 186 174 164 170 180 181 176 175 177 180 180 177 177 174 172 169 168 170 174 181 179 177 174 174 178 176 175 175 177 185 189 186 179 174 180 179 182 182 174 170 148 110  59  39  51  57 108 124 105 102 103  92  95 101 111 119 119 131
 149 150 150 149 150 150 150 151 151 138 107  97 128 144 143 146 138 162 192 192 188 186 191 188 180 174 171 175 172 175 174 170 170 172 184 186 179 170 169 176 177 177 177 178 175 170 167 168 164 161 165 174 172 173 170 171 170 170 176 166 175 180 173 172 171 173 177 178 172 176 177 184 179 170 158 131  68  55  71  48  71  88  69  79  73  76  85  86  74  67  95 126
 146 147 146 147 146 145 145 147 146 141 115 103 103 123 122 111 125 147 193 200 199 195 191 181 185 190 186 186 188 189 182 183 183 178 174 173 175 174 169 166 165 167 167 165 167 162 166 159 160 164 167 168 172 169 170 168 167 176 169 162 171 166 162 166 167 159 164 175 170 177 180 180 182 174 164 153  96  64  63  59  69  73  80  74  67  76  73  72  53  62 108 134
 144 143 142 142 141 140 140 142 142 142 122 115  95 129 111  96  80 118 196 213 202 197 202 198 201 195 193 193 188 185 176 174 171 177 173 169 169 172 162 158 158 161 158 155 159 157 157 152 154 159 155 140 142 151 148 138 142 150 139 149 152 150 152 159 157 154 146 154 168 177 186 181 186 177 171 158 121  80  72  78  77  74  88  82  79  77  78  81  64  91 136 141
 144 143 143 142 142 141 142 142 142 145 137 129 110 143  86  59  48  89 193 215 200 208 211 202 193 191 187 188 185 170 161 150 146 156 162 164 167 166 162 155 151 149 148 145 146 148 151 152 146 144 135 117 105 106 107 110 114 113 114 135 141 145 153 155 154 154 155 157 159 168 184 187 188 180 177 159 122  99  93  81  80  68  83  93  88  91 100  79  84 122 142 139
 147 147 146 147 147 147 146 147 147 146 149 146 142 130  78  64  41  77 186 213 207 205 198 191 189 188 179 170 154 148 141 127 132 140 147 152 155 154 153 149 148 142 139 127 132 139 143 139 129 122 113  98  85  80  81  92 107 120 134 144 154 164 161 159 157 148 150 148 154 167 173 185 185 186 179 172 146 102  86  84  79  75  87 107  99 107  98  84 111 136 132 131
 147 146 146 146 145 144 145 145 145 145 148 157 143 119  95  81  42  75 177 219 205 199 191 192 184 173 169 152 128 118 127 121 123 121 132 138 145 148 147 138 141 145 139 120 117 118 125 118 108 106 100  97  88  89 100 108 119 122 117 111 108 117 132 145 159 161 156 156 154 160 167 173 188 183 178 179 172 117  92  99  81  69  90 119 110 111  97 107 124 132 127 125
 143 143 143 141 142 142 140 141 141 141 140 149 158 120 100  95  55  65 166 211 203 190 180 170 160 155 141 119 105 107 109 113 118 118 120 129 134 139 141 137 135 146 143 128 114 121 122 108 100  97  91  85  89 100  91  75  48  43  22  51  42  73  80  47  78 139 155 161 156 159 160 175 183 180 180 179 172 131 101 132 105  61 110 123 117 119 109 119 132 130 128 128
 143 142 140 141 141 140 140 141 140 140 140 142 149 132 121 108  80  91 157 200 183 167 159 156 149 138 124 115 112 111 106 107 107 108 110 115 121 131 140 143 140 147 145 138 139 136 120 105  94  75  75  85  86  68  60  88  54  44  38  54  59 130 104  71  79  73 102 123 145 160 166 171 175 182 180 173 167 140 126 154 127 100 136 117 128 133 125 139 140 136 137 138
 146 146 145 145 145 144 145 145 145 145 145 145 144 149 145 129 108 104 157 194 171 152 159 162 156 149 143 139 133 126 117 107  99  91  87  87  91 103 124 152 153 156 158 157 158 154 127 108  89  61  63  77  67  56  80 128 118  72  69  56  95 140 136 148 143 139 141 143 152 161 165 178 185 183 179 176 164 142 138 147 144 145 149 119 137 138 135 143 139 139 140 139
 147 147 146 146 147 147 146 147 146 147 146 146 143 148 146 130 126 114 152 198 175 160 166 161 157 154 155 149 147 137 117  97  92  87  80  72  65  64  80 133 166 169 171 174 174 172 139 114  94  71  91  76  70  90 106 125 136 129 112 126 151 153 166 162 174 178 181 180 183 182 180 178 175 175 177 173 165 135 124 147 138 147 156 132 141 131 133 132 132 131 133 132
 142 143 143 142 142 143 141 142 142 142 142 143 142 140 139 118 118 125 151 211 189 166 166 170 159 131 108  94  70  48  32  44  43  64  73  77  73  60  65  99 170 181 179 179 181 174 150 133 109 101 126 114 113 110 128 141 155 162 164 166 162 152 150 168 166 172 183 179 177 181 184 188 187 179 176 174 167 136 124 144 145 158 158 156 157 121 120 125 126 125 125 126
 140 140 138 138 139 140 139 139 139 139 139 139 139 139 140 129 113 118 154 221 199 171 178 169 107  61  71  94  43  34  29  54  53  91  81  63  78 101 105 102 163 185 184 184 181 171 157 146 131 112 118 122 112  94 106 130 146 146 153 151 141 140 161 171 170 170 167 177 177 180 171 171 175 178 175 173 169 133 123 147 161 156 144 148 129 109 125 126 126 125 125 125
 143 142 142 141 141 142 141 141 140 141 141 141 140 139 139 142 131 124 156 220 203 173 187 146  68  30  93 145 108  58  61  68  75 112  98  90  94 124 120 120 164 186 186 183 181 174 159 151 146 132 125 123 120 116 102 110 124 130 137 147 159 168 164 157 164 165 166 160 158 177 190 184 174 174 174 172 163 133 140 145 150 144 143 128  87  70 123 135 134 134 133 133
 146 146 146 146 146 146 146 145 145 146 146 146 145 145 145 141 140 129 145 211 204 174 168 142  88 127 133 141 145 123 104 118 144 137 127 125 136 127 119 140 164 186 185 181 183 180 163 155 151 148 147 145 143 134 125 115 115 120 123 127 129 133 139 147 156 166 171 179 178 167 168 182 182 179 173 170 150 131 149 158 153 143 145 107  34  35 110 141 138 138 137 137
 144 144 143 143 143 143 143 143 143 143 142 143 142 141 141 138 137 134 132 198 214 179 151 146 167 188 186 159 158 160 162 150 133 114 106 115 125 134 144 156 173 187 183 184 184 181 169 158 150 158 158 157 158 150 146 132 126 128 133 138 138 142 150 154 165 170 175 175 178 187 176 168 174 176 175 170 141 114 153 165 167 157 150 118  83  93 128 134 131 130 131 129
 138 139 138 138 138 138 138 139 138 137 137 136 136 136 136 135 133 134 132 174 215 184 162 182 197 180 191 181 169 161 151 124 107 102 109 119 129 145 152 161 176 187 184 185 186 182 172 169 156 162 163 162 162 163 165 156 145 141 141 144 148 155 163 170 174 176 180 184 180 173 178 168 161 172 173 170 131 120 145 154 166 163 135 135 140 133 128 127 125 123 125 124
 136 136 135 135 135 136 136 134 135 134 134 133 133 133 133 132 132 134 138 157 216 203 196 201 200 188 184 160 139 131 113 105 113 120 123 123 143 157 160 172 179 185 181 181 183 179 170 170 166 166 164 159 156 155 160 166 167 166 162 161 163 165 166 174 179 182 177 177 179 176 167 162 155 164 170 168 134 143 126 105 139 136 109 133 143 127 123 123 124 125 125 124
 139 139 139 138 137 138 138 138 137 137 138 138 137 136 138 138 137 137 132 152 212 205 199 207 183 172 153 127 125 120 121 125 125 126 128 149 166 162 166 179 179 185 181 181 182 178 167 167 167 167 163 163 158 149 149 154 167 174 177 173 173 170 170 170 175 179 176 173 171 171 166 161 161 162 170 167 139 152 115  45  88 117 125 130 138 137 133 132 130 131 131 130
 140 139 138 139 138 138 138 137 138 138 138 138 139 138 138 138 137 137 136 149 203 196 207 182 176 163 146 140 137 139 139 135 129 136 158 170 166 166 171 180 180 185 181 180 181 179 169 169 169 164 166 165 161 157 153 147 149 161 169 168 169 171 173 173 176 179 177 179 179 172 171 166 166 161 163 165 147 156 133  51  78 122 136 137 143 139 133 136 134 135 135 134
 137 137 137 135 134 134 134 134 134 135 135 136 135 135 135 134 133 133 131 139 186 216 189 185 180 153 147 153 147 143 143 146 148 161 175 169 166 166 169 181 183 187 180 181 179 180 172 166 170 171 170 166 167 165 153 153 151 152 161 167 169 169 170 173 177 179 175 180 178 178 172 168 169 173 166 162 151 147 142  91  69 113 126 124 110  89 120 131 128 128 128 128
 133 133 133 132 132 132 132 131 131 132 132 133 132 132 132 131 131 130 132 136 173 205 196 196 183 181 179 170 165 165 167 171 175 177 173 163 167 170 174 184 187 187 180 180 179 180 172 167 173 175 173 170 168 169 165 161 159 161 161 163 166 167 168 170 173 172 174 175 173 176 172 163 157 172 171 159 143 142 141 109  78  80  84  73  52  75 119 124 123 123 123 123
 133 132 133 133 133 132 133 132 132 132 132 132 132 132 131 133 131 130 133 135 161 198 193 181 181 182 176 168 170 174 176 175 177 173 169 167 174 177 181 188 186 184 182 178 177 177 173 173 176 175 173 165 159 165 168 162 158 157 155 162 166 166 167 169 170 166 168 173 176 172 169 166 150 158 170 168 144 128 130 114  82  81  89  84  87 110 128 124 122 122 121 121
 134 133 135 135 135 135 135 134 135 133 135 134 134 135 134 135 135 135 136 139 152 187 187 179 177 172 174 174 181 181 179 176 173 172 172 175 175 176 175 187 190 186 184 178 175 175 177 175 175 176 174 168 159 155 162 163 161 161 157 157 158 162 163 167 168 165 165 167 166 167 171 167 155 148 160 157 151 136 133 120 108  92  86  91 116 130 132 131 129 128 127 127
 131 132 132 132 133 133 133 131 132 132 132 132 132 132 132 132 133 133 130 132 129 164 194 189 178 177 182 182 181 178 175 175 173 173 172 175 173 163 169 187 197 189 182 176 174 175 179 176 175 176 185 180 174 157 146 157 156 158 157 152 152 152 159 165 167 161 161 162 161 160 160 151 157 160 155 146 142 139 134 120 104  55  26  32  71 125 136 132 133 132 132 132
 129 129 130 130 130 130 129 130 130 129 128 129 129 130 130 129 129 129 129 136 132 146 187 186 183 180 183 182 177 177 174 174 173 168 170 166 153 141 172 191 196 184 178 175 176 176 174 175 180 180 191 188 183 165 134 133 142 147 148 148 151 155 157 162 159 156 158 158 155 144 143 147 149 154 150 136 135 138 140 122 107  45   5  10  31  79 127 129 128 127 126 126
 129 128 128 128 128 127 128 127 128 127 127 127 127 127 127 127 127 127 126 129 127 132 171 183 181 182 180 175 172 175 171 172 168 166 160 151 122 130 187 196 193 187 183 178 173 174 178 180 184 184 195 193 187 172 133 128 123 126 134 143 150 153 153 152 155 149 150 148 146 140 141 148 145 142 137 126 125 134 129 126  92  36   9  10  24  46  98 123 123 123 122 121
 129 129 130 129 130 129 128 128 128 129 129 129 129 129 128 128 128 129 128 127 126 127 162 185 182 180 176 171 173 174 169 165 155 152 142 127  98 147 203 198 192 193 186 185 176 170 177 182 184 183 190 186 178 174 140 145 143 120 116 128 131 139 146 144 145 150 147 146 144 137 137 145 139 124 124 130 136 131 121 107  89  29  10  10  31  36  72 101 119 122 121 120
 128 128 128 128 128 129 128 128 128 129 128 128 128 128 128 128 128 128 128 127 127 137 152 182 183 175 168 167 167 165 161 156 152 146 132 104  99 170 201 196 203 195 180 177 178 176 177 179 179 168 168 166 152 146 148 155 150 144 124 111 113 121 127 136 135 138 142 143 137 143 136 137 139 127 115 125 138 141 128 123 116  50   8   4  28  34  56  86 100 118 126 125
 126 127 125 127 126 126 126 125 126 126 127 127 126 125 126 125 125 125 126 125 129 129 137 177 178 171 164 164 160 152 151 152 145 125 104  96 127 168 181 185 188 170 156 156 156 165 169 166 156 151 138  96  90 129 150 147 145 142 139 122 111 106 108 120 123 128 133 140 133 141 140 117 130 128 123 112 127 139 126 120 121  89  25   5  15  25  45  76  86 103 122 132
 126 127 126 127 127 126 125 124 125 125 126 126 126 125 124 124 125 124 123 124 126 125 126 158 182 172 161 161 159 153 149 146 133 107  93 116 141 141 150 165 169 153 141 134 129 138 143 134 132 130  80  67  95 133 146 142 139 133 134 132 120 106 104 102 106 121 135 142 139 135 128 109 108 122 120 114 122 126 117 116 109  79  49  11   8  26  36  65  79  90  98 119
 129 128 129 128 128 128 128 128 127 127 127 127 126 127 127 126 126 126 126 124 125 125 121 141 175 171 162 159 159 156 147 137 123 100 102 126 143 142 119 103 144 164 135 121 117 118 112 116 122 100  81  99 119 135 132 139 132 126 134 130 135 112 103 104  96  96 114 131 139 116 110  96  98 122 126 117 128 129 126 117 114  70  26   9  12  32  34  54  72  81  88  95
 129 129 130 130 130 129 129 129 129 130 130 129 131 129 129 129 129 130 130 128 129 128 125 137 154 167 160 154 162 158 144 130 119 105 119 134 145 141 115  93 104 134 139 119 102  96 107 113  95  79  94 127 130 123 125 134 130 123 130 132 125 129 105 101  96  86  93 118 130 117 105 102  95 108 131 134 131 124 122 119 122  93  39  11  26  36  34  43  67  74  85  88
 127 127 127 127 127 128 128 127 127 127 125 126 127 127 127 127 127 127 127 127 128 127 127 134 144 152 157 157 166 157 139 120 119 121 132 145 136 133 129 126 130 108 107 111  99  97  93  72  70  71  94 129 134 115 117 120 126 123 124 121 112 100 109 110 108 113 121 110 123 122 107 100 110 112 115 134 120 110 113 113 110 107  56  26  33  19  30  38  61  72  82  87
 124 125 125 125 126 126 126 126 125 125 124 124 124 124 124 125 125 125 125 125 124 124 124 130 145 135 125 142 157 160 141 125 130 124 134 150 130 126 120 128 125 115  96  91  78  56  62  63  86  90  93 103 105 108 105 108 115 124 129 110 103 112 109 118  98  97 120 113 120 123 101 104 105 116 118 113 118 116 112 117 107 123  95  39  26  21  32  37  55  67  74  79
 124 125 124 124 125 125 125 125 125 124 123 123 122 122 123 123 123 123 123 122 123 122 121 130 135 142 119 123 141 163 153 122 116 124 153 144 139 129 108 125 112 104  80  87  78  53  68  75 109 104  88  80  85  90  91  98 106 113 113 109  97 101 101 112 111  93  87  99 132 132  97 112 118 129 128 107 109 103  92 103 112 132 113  40  26  37  39  34  54  67  68  75
 126 126 126 126 126 126 126 126 126 126 126 125 125 125 124 124 125 124 123 124 123 123 122 125 128 142 133 117 117 152 146 117 125 138 165 146 146 120 112 113  96 100  83  95  77  70  69  73  98  98  74  66  76  87  93  85  95  93  87  89  80  79  82  89  89 108 107 102 129 136 102  98 103 109 120 109 103  94  89 116 122 135 112  38  25  31  30  32  50  68  72  75
 124 124 124 125 126 126 125 125 125 125 124 124 125 124 124 124 125 123 124 124 125 124 124 123 123 134 140 128 112 131 142 139 143 164 159 132 122 117 110  95  91  99  84  86  79  89  78  70  79  96  88  74  71  76  82  88  93  93  79  81  74  67  68  87  98  81 114 114 131 122 112  93  97  99 118 103 100 102 109 128 129 139 116  41  18  19  22  30  43  67  72  72
 123 123 123 123 124 124 124 124 125 123 123 123 123 122 121 121 121 122 121 123 122 122 122 122 118 126 148 145 114 127 138 158 150 152 140 111 109 106 101 105  84  84  94  89  89  90  87  84  92  80  91  91  78  82  79  74  70  68  74  92 106 108 111 109 115  98 104 104 111 119 103  84  93 102 109 100  93  98 116 130 130 135 120  39  16  27  30  30  42  67  70  71
 122 122 123 123 123 123 123 122 122 122 122 122 122 121 120 121 120 121 120 121 121 122 120 120 118 121 138 135 130 152 156 151 128 137 129 100 110  95  93  95  90  91  91  91  92  86  87  86  83  75  71  69  61  63  71  87  96 109 120 129 135 130 131 128 120 125 110 108 120 102 105  96 102  96  87  97  87  90 116 136 133 125 111  32  13  28  27  28  37  62  69  68
 124 122 123 124 123 123 123 122 122 122 123 122 123 122 119 120 121 120 121 120 120 120 120 120 118 121 121 125 145 147 149 156 135 126 115  95  84  83  66  48  76  89  83  73  76  72  81  89  88 102  96  95 103 114 132 131 127 131 136 141 143 140 134 130 116 127 117 112 116  86  97 101  88  94  97 103  83  92 120 132 134 125 110  30  11  18  14  23  34  62  68  66
 122 122 122 123 122 122 123 123 122 123 123 122 123 122 123 122 123 122 123 122 122 122 122 122 122 123 121 127 136 136 144 152 133 117 114 103  89  98 103 107 120 135 136 130 133 126 128 133 136 140 134 138 143 136 132 130 135 141 149 152 157 146 134 143 117 125 121 110 101  94  96  90  69  71  84 101 100 116 125 133 133 128 106  26  13  16  14  25  34  59  65  64
 121 120 121 120 119 120 120 121 120 120 121 121 120 120 120 121 120 120 119 118 118 117 120 119 120 120 120 122 122 131 123 144 130 128 129 121 129 136 142 145 143 141 145 148 143 136 136 135 133 134 136 138 136 128 133 136 140 152 158 151 149 146 130 149 144 135 118 102  95  86  92  80  75  76  74  94 117 120 129 137 124 120  92  22  14  17  16  25  32  56  65  63
 118 118 119 120 119 118 119 119 119 118 119 118 117 118 118 119 117 118 117 117 116 116 116 117 117 118 119 122 124 132 128 128 129 146 126 134 139 145 151 153 152 152 147 142 138 130 127 128 124 125 122 131 128 126 142 146 145 148 163 157 128 141 137 148 165 139 145 128  98  90  90  79  68  67  78 100 116 118 124 129 124 117  71  14  18  18  17  24  30  59  64  61
 118 118 118 119 119 119 118 117 119 119 116 117 116 117 116 116 118 118 117 115 115 116 117 116 114 114 121 118 114 114 112 118 122 138 130 142 143 150 155 170 164 167 149 148 142 129 118 123 119 121 119 142 134 134 153 136 153 146 150 157 133 125 141 143 149 145 136 137  95  95  91  86  64  61  92 114 113 122 125 130 124 110  51  11  18  18  13  21  28  56  62  59
 118 119 118 119 120 120 121 120 121 120 119 118 118 117 118 119 119 119 118 119 119 114 103  96  99 109 115  99  75  63 103 127 109 137 144 134 136 150 166 164 172 170 163 166 166 134 133 152 155 127 135 146 153 148 159 141 146 139 128 134 124 123 116 140 132 126 113 128  96  97  91  66  69  89  95 106 119 122 131 127 122 102  37  14  20  16  14  21  23  50  65  62
 116 116 117 118 118 117 118 119 118 117 117 116 116 118 117 117 118 119 122 118 104  92  89  98 108 112  96  71  50  70  89 103 106 140 152 145 122 162 162 151 160 154 156 169 168 143 149 154 155 121 139 134 150 137 150 151 134 119 104 117 117 122 116 122 128 121  93 120 125 103  80  57  86  88  87 106 110 118 127 122 123  88  25  14  20  18  21  20  22  48  67  66
 116 116 117 116 117 117 117 117 116 116 116 115 115 113 116 117 115 115 110  92  79  83 100 113 114  82  57  65  48  47  72 108 102 123 147 113 133 155 139 150 147 133 151 163 161 158 118 141 158 109 117 121 119 131 130 125 136 111  99 112 119 125 124 122 127 143 117 106  97  80  72  75  82  89 102 106 121 128 124 125 124  77  19  13  19  18  24  22  20  46  68  69
 115 115 117 116 117 115 115 116 116 116 115 114 115 117 120 107  99  92  82  69  80  92  93  89  79  32  45  66  44  57 107  90  61  98 158 143 155 135 136 144 132 135 142 159 145 120 111 136 127 109 106 105  90  97 113 108 114 118 107 107 117 117 134 128 132 133 128 116  93  80  77  76  81  89 104 110 126 131 125 124 122  68  16  15  18  18  19  19  20  40  68  75
 115 115 115 116 116 114 116 116 116 116 117 118 113 106  78  56  57  62  64  71  69  66  73  82  44  24  46  60  53 105 102  71  46  87 175 170 159 140 133 128 150 137 132 150 113 105 122 108 100  81  98 105  86  92  92 116 122 114 101 105 116 107 119 125 128 127 121 101  90  87  81  77  83  95  99 110 120 125 130 122 115  57  10  18  22  20  17  20  19  27  57  72
 113 113 113 114 114 113 114 116 119 116 113 103  98  68  38  37  44  62  73  79  69  66  80  76  38  27  42  57  95 115  84  61  46  60 130 172 156 144 140 137 156 147 142 134 117 110 112  93  97  98 101  99  99 122 110 124 128 122 115 107 114 119 119 126 118 102 102 105  74  74  80  85  92  99  99 109 118 127 129 121 105  44   9  22  23  22  24  22  20  23  46  61
 113 114 113 114 114 116 116 118 111 104 103 107  82  46  45  45  50  51  55  69  58  67  84  64  27  22  37  81 122  94  70  55  33  15  80 167 156 160 144 143 153 155 145 129 123 130 123 112 117 123 109 104 126 135 129 136 134 122 127 132 124 121 137 145 136  93  87  88  65  71  80  82  94 101 102 105 116 121 124 119  99  36   9  19  19  18  21  21  21  22  36  51
 115 115 117 117 110 105 104 108 106 102 103  89  57  53  56  52  48  44  56  68  66  79  84  43  22  22  43 115 113  81  61  49  25   9  18 121 166 170 154 152 163 147 142 137 135 137 130 132 131 135 121 124 137 131 133 151 143 133 133 144 140 139 142 137 127 111  82  83  67  81  85  74  88  91 101 106 106 115 122 114  88  30   9  17  19  17  21  25  24  22  32  40
 119 119 112  98  89  88  86  85  86  89  84  67  60  65  57  50  45  48  57  60  68  75  48  24  22  23  87 125  93  70  56  41  19   9   1  52 153 155 155 170 162 154 145 146 137 134 148 131 130 126 143 131 132 146 139 154 150 127 144 139 137 131 141 125 115 112  72  70  73  82  81  81  91  84  88 100 100 110 117 112  79  25  11  17  18  17  22  25  25  23  34  36
 118 117 104  91  85  84  76  65  66  73  76  71  70  67  54  47  44  48  52  51  56  45  28  24  19  55 124 107  81  63  53  29  18   9   4  10 117 150 164 170 166 161 144 139 139 159 141 137 143 131 141 137 132 145 140 147 149 147 144 137 129 133 132 133 125 117  80  76  71  76  83  89  86  89  91 101 102 108 111 109  68  20  13  19  18  18  18  19  21  23  37  39
 116 115 102  93  92  92  80  68  58  58  65  70  72  63  52  44  42  45  49  51  49  37  30  25  36 110 118  91  73  58  47  22  15  10   6   0  57 149 170 171 181 157 151 139 149 147 146 137 138 130 131 148 141 146 138 165 142 146 149 143 128 138 118 110 118  97  77  74  80  83  84  87  82  85  99 104 105 110 112 105  63  21  14  19  16  17  19  20  24  25  39  42
 117 109  96  93  94  87  80  73  63  54  54  62  65  60  50  39  39  43  48  52  47  38  30  24  81 121  99  79  66  55  32  20  12  10   5   1   7 119 165 168 179 150 140 147 140 138 148 130 129 136 136 149 146 129 138 159 160 135 144 142 124 119 111  95  92  74  72  82  89  75  77  86  85  92  99 105 108 112 114  97  60  22  15  18  15  18  21  25  31  25  36  48
 109 100  93  88  87  83  78  68  65  57  50  57  60  58  48  34  35  41  46  51  45  34  20  45 119 110  91  75  61  44  25  22  15   9   3   0   1  34 122 174 171 148 138 146 139 137 129 122 128 130 133 125 137 125 124 129 147 142 126 150 145 103 105 104  88  75  79  88  84  77  82  84  83  92 102 105 105 108 103  85  54  22  14  16  17  17  17  22  27  28  35  50
 102  94  87  80  79  75  71  67  62  52  49  50  56  55  47  34  31  37  43  45  42  25  31 114 124  96  84  74  64  40  24  20  16   7   3   1   0   0  54 131 164 158 150 150 124 128 130 124 117 108 114 121 130 105  99 137 141 126 111 125 127 106 101  97  85  74  80  86  86  83  86  81  86  97 102  98 100  96  94  78  53  21  14  19  19  19  18  21  26  29  31  48
  95  86  77  73  71  70  66  64  56  45  45  47  51  52  50  37  29  33  40  41  35  25  95  97  34  34  35  31  32  37  35  21  13   5   1   2   0   0   0  38 162 156 147 143 124 128 128 116 104  92 102  98 109  98  90 125 104 106 105 103  94  78  80  80  83  80  75  82  82  84  85  83  94 104 104 101  99  94  88  67  46  17  14  18  21  19  19  25  29  30  28  46
  84  76  68  69  67  64  61  60  49  39  42  45  47  52  50  39  29  29  35  37  28  58  67   1   8  30  27  13   8  27  36  17  11   4   1   1   0   0   0   0  69 118 141 145 127 116 124 108  96  84 101  87  96 104  96 114  71  83  96  78  74  79  82  80  86  77  66  80  83  82  78  90 101 101 105 102  98  93  80  55  21  10  16  20  21  17  15  24  28  29  26  40
  71  64  61  62  59  56  56  51  42  39  40  44  42  51  50  41  30  26  31  34  29  58  15   0  26  33  19   9   8  21  33  13  12   5   1   1   0   0   0   0   0  46 109 130 122 111 114 106  74  74  90  97  94  91  77  92  88  79  68  72  84  83  81  86  82  68  70  84  89  87  88  92  98  99  98  96  94  90  66  26   6  12  17  18  20  19  18  22  27  28  23  37
  66  60  57  58  55  54  52  46  41  40  38  40  41  47  52  42  30  23  28  29  27  41   6   8  35  27  12   9   6  22  31  12  11   6   3   1   0   0   0   0   1  16  52  83 117 115 102 102  70  61  83  77  80  79  72  81  82  64  54  71  78  61  74  87  76  73  80  85  92  90  87  92  99  99  97  92  90  78  34  10  10  12  14  15  16  20  19  20  26  29  24  38
  61  55  52  53  51  50  45  41  39  38  36  36  40  43  51  44  31  21  25  27  26  35   8  15  34  19  11  10   5  21  28  13  10   6   5   2   2   1   0   1   0   7  37  55  79  95  91  89  88  86  78  68  94  76  69  69  68  68  66  60  63  75  82  90  83  86  90  91  87  92  93  96 100  96  94  87  81  43  16  14  11  11  12  15  15  17  18  19  29  34  30  31
  56  54  50  49  50  47  40  38  36  35  35  36  39  41  49  44  32  21  22  26  26  27  25  28  27  18  14  11   4  26  25  14  13   6   6   4   2   2   0   1   1   5  32  49  66  88  88  79  84  88  87  79  64  67  61  63  73  73  65  66  79  81  84  89  89  93  91  84  89  90  92  93  88  89  84  79  48  19  22  16  11  11  15  17  17  18  22  19  29  36  27   3
