P2
# Generated by OpenCV 4.2.0
92 112
255
 241 238 237 238 240 241 239 238 239 241 244 245 243 239 231 229 234 230 213 179 158 160 159 151 142 144 160 174 169 155 148 146 143 137 139 146 153 156 161 154 148 147 154 163 165 158 149 139 143 155 171 179 184 187 189 191 193 193 194 194 195 194 194 196 197 198 196 190 184 187 194 188 181 174 173 182 186 183 173 173 182 187 180 178 187 185 181 172 169 164 159 172
 237 236 240 241 241 241 238 240 241 243 245 243 237 231 229 235 244 243 235 214 181 158 146 137 129 128 138 148 153 152 151 153 153 155 161 165 170 173 168 158 148 146 149 154 148 137 136 138 148 163 178 185 187 189 190 190 191 192 191 192 193 192 191 194 197 198 195 183 177 178 187 186 180 176 181 189 192 192 181 178 184 188 180 177 180 180 180 175 176 175 168 180
 237 239 241 240 239 239 240 241 244 244 241 236 229 229 235 245 249 250 250 235 204 165 136 129 129 132 141 148 155 159 161 164 167 172 177 179 184 180 175 169 160 152 153 156 148 146 149 153 167 175 181 186 189 187 183 180 186 187 183 182 183 187 187 191 197 198 193 178 168 172 183 183 180 183 193 192 194 192 182 180 185 189 182 175 169 173 181 181 185 188 186 189
 239 240 239 238 240 240 242 243 243 240 235 229 229 237 246 249 250 249 251 241 218 182 150 143 146 151 157 162 165 168 169 173 176 181 181 187 189 182 179 178 181 171 163 161 163 165 166 172 175 175 180 182 187 183 177 180 187 182 175 173 170 177 184 188 198 198 190 174 155 164 177 178 180 181 189 189 191 191 184 182 186 192 186 179 176 179 184 190 193 193 195 195
 240 240 240 240 241 242 244 244 240 235 229 231 239 247 250 248 249 249 250 244 226 194 160 153 157 162 167 171 174 175 175 177 183 185 188 190 184 184 184 178 165 151 145 144 148 145 152 161 167 170 169 173 177 176 177 178 186 183 171 165 164 168 179 188 198 198 185 172 157 164 172 173 179 171 173 184 188 191 188 188 190 196 192 186 184 187 191 196 195 193 192 190
 238 239 241 241 241 244 244 240 235 231 232 241 248 249 249 249 250 250 246 240 225 202 173 163 167 170 173 175 177 178 178 180 185 185 184 189 182 174 166 149 135 133 145 140 134 133 137 137 136 136 140 153 159 169 172 180 188 188 176 164 164 163 171 188 199 196 183 174 167 170 177 176 179 175 174 182 189 196 194 192 194 198 197 192 190 189 189 187 184 181 177 173
 226 227 229 232 237 238 236 233 229 230 238 247 250 249 250 250 247 242 238 234 225 208 182 170 173 174 176 177 178 179 179 184 183 181 183 173 164 159 145 129 124 130 129 126 124 127 133 135 136 139 155 163 160 161 169 177 178 184 189 174 167 166 169 186 199 194 187 182 179 182 187 187 184 183 184 188 194 197 196 195 194 193 190 187 182 176 172 168 162 160 156 154
 187 193 201 209 213 208 211 212 209 213 227 238 245 244 244 237 225 217 220 224 218 200 179 174 175 176 178 179 180 183 182 181 179 173 169 157 149 134 124 122 124 122 109 110 110 110 115 120 125 137 136 133 139 157 169 171 169 159 171 187 178 174 178 187 199 196 192 191 194 196 192 195 194 192 191 194 196 192 191 189 186 181 176 171 163 154 149 144 146 150 158 164
 103 122 142 136 135 148 165 163 165 178 196 210 219 215 202 182 168 174 189 190 183 173 172 178 179 179 180 182 182 184 184 180 169 164 155 149 132 129 119 114 111 101  97  96  94 104 103 113 116 113 106 103 101 113 139 165 174 169 164 169 182 187 187 194 200 198 195 195 197 197 195 196 196 196 195 192 186 181 178 172 169 164 158 155 153 147 151 169 188 200 206 208
  43  48  55  51  52  73  84  84  90 100 110 118 117 106  92  80  87 103 115 114 129 152 170 180 180 180 180 181 185 184 183 170 161 156 146 135 128 131 117 108  91  88  92  89  96  94 111 107  98  90  92 112 122 121 121 130 155 179 181 168 168 182 195 196 196 198 196 195 195 192 190 191 193 193 189 182 172 165 163 165 169 171 178 187 192 194 208 225 232 234 235 237
  42  40  40  41  44  45  46  45  40  41  42  42  39  35  34  37  42  47  54  61 102 146 172 181 178 178 181 180 180 179 180 163 160 143 136 128 120 120 104  95  82  93  94  99  92 105 102  97  88  85 111 111 108 119 126 126 128 138 169 185 175 168 183 198 192 190 194 195 190 181 180 183 188 189 185 181 179 182 193 203 210 216 223 226 228 233 239 243 245 246 247 248
  42  41  39  42  45  47  48  46  41  40  41  42  41  37  35  38  42  42  42  52  98 149 175 175 171 170 173 167 164 166 165 150 139 129 120 116 104 105 100  97  89  96  98  99  95 109  95  97  87  98  93  76  85  98 110 123 125 117 124 157 176 162 170 188 201 196 193 196 189 183 184 191 199 201 202 204 210 218 227 233 237 240 243 243 245 245 247 248 249 249 249 248
  43  41  38  37  42  44  45  44  42  41  40  41  39  34  32  35  37  37  39  62 114 145 155 154 158 147 137 133 144 142 141 127 115 115 118 116 100 101 110 100  98 101 106  99 100 106  96  91  94  88  81  89  91  94  96  89  95 108 116 122 151 145 137 151 160 179 188 190 207 217 220 223 226 227 227 227 231 236 240 242 245 247 248 246 246 246 246 249 248 248 248 248
  43  40  37  37  42  43  43  42  41  41  40  39  37  34  34  39  42  47  77 117 133 134 126 138 145 142 122 117 130 134 110 108 107 116 120 110 108  99 109 101 102 105 106 100 111 101 100 108  99 102 102  99  96 100  99  93  94 107 121 119 128 141 132 119 123 130 149 171 191 216 226 240 244 243 243 243 244 245 246 246 246 246 246 245 244 242 245 246 247 247 247 247
  41  38  37  37  40  40  41  42  40  39  39  36  39  42  40  36  45  81 117 123 118 116 123 124 119 118 123 121 119 131 130 117 118 121 120 106 111 113 120 109 117 112 106 113 111 101 111 112 115 119 105 109 106 103 107 111 113 108 110 125 128 128 123 118 106 106 116 139 167 195 213 237 247 247 248 248 248 248 247 247 247 247 246 243 239 238 241 244 245 245 244 242
  39  38  37  37  39  40  39  40  40  38  37  36  36  33  26  52  99 116 104  88  86  99 119 127 121 121 118 119 119 125 143 143 135 129 122 119 118 125 123 112 123 122 126 126 109 115 121 131 137 126 131 133 121 126 134 132 134 131 122 113 120 134 124 111 106 109 111 113 130 148 197 240 245 249 249 249 249 248 247 248 248 246 244 241 238 236 238 240 242 241 240 238
  38  36  37  37  40  39  39  37  38  37  37  37  31  24  49 104 107  81  64  68  94 110 108 118 114 110 113 119 131 134 143 149 144 142 134 137 130 129 127 116 121 132 143 140 136 143 155 164 150 148 151 148 150 143 145 155 148 144 140 135 127 125 127 110 102 101 100 111 122 136 164 219 243 248 249 250 248 248 248 248 248 246 244 241 239 238 238 237 237 241 240 239
  36  35  36  37  39  39  39  37  37  35  34  35  34  43  92  95  87  66  71  94 116 109 117 108  98  95 109 129 145 147 150 153 146 149 145 157 150 144 138 139 132 147 158 160 168 179 182 174 173 167 168 172 174 172 175 168 159 153 146 138 136 131 120 110 103 102 108 117 122 137 146 174 223 243 246 247 247 246 247 246 247 247 245 242 239 238 238 237 238 241 243 242
  36  35  35  35  38  38  38  38  37  35  32  39  37  68  87  92  76  69  69  95 106 106  95  79  81 101 128 142 151 159 161 161 157 157 157 166 166 163 164 166 157 163 170 170 183 187 189 193 193 188 190 191 189 190 187 185 185 181 174 165 155 148 132 109  98 102 101 110 120 130 140 159 201 230 241 245 245 246 246 246 246 247 247 244 242 238 238 238 241 244 246 245
  37  34  35  35  37  37  37  38  37  36  33  30  40  91  95  66  54  51  65  99 107  92  81  88 111 133 144 152 157 163 166 169 173 167 171 176 179 178 184 185 181 181 179 183 188 193 199 201 197 197 197 197 194 194 191 194 192 189 190 189 182 172 162 146 120  97  89  89  91 108 132 149 180 216 227 242 244 244 246 247 248 248 248 248 245 242 239 239 243 247 247 247
  38  32  33  35  37  37  36  38  39  36  32  31  66 104  82  44  46  54  74 100 102  87  90 113 137 147 154 159 162 167 173 175 178 177 177 177 183 180 184 187 187 188 188 191 189 193 197 198 197 196 197 197 194 196 194 194 194 190 189 190 193 191 182 176 166 144 112  88  80  90 112 127 151 191 222 235 245 247 247 249 249 249 249 248 248 245 242 241 243 246 246 246
  39  32  30  33  36  36  35  37  38  38  35  41  79  81  62  50  58  68  87 111 106  97 114 133 146 153 157 160 165 170 178 175 172 177 181 180 186 186 185 189 188 189 193 192 192 197 196 196 199 196 196 195 193 195 194 193 192 191 191 192 194 199 200 194 185 178 159 119  91  85  97 122 135 158 211 234 245 248 249 249 249 249 249 249 248 246 244 243 242 243 244 243
  40  33  29  32  35  36  33  35  38  39  35  55  78  55  55  61  61  71 113 110 100 104 125 143 154 155 159 162 168 171 169 173 174 177 181 186 186 186 185 189 189 191 194 193 195 196 197 197 195 194 198 197 192 194 194 195 193 196 194 195 199 202 204 206 198 193 183 162 123  93  85  96 126 146 178 218 242 247 249 248 249 249 248 249 247 246 244 242 241 241 241 240
  40  34  28  31  34  36  32  34  38  38  41  81  78  59  65  62  68 102 127 103  90 116 138 148 155 161 164 163 170 170 169 171 170 176 180 186 187 185 187 189 189 191 189 192 196 194 196 196 196 196 198 194 190 196 191 193 196 198 197 198 200 200 201 205 206 205 202 190 158 110  94  86  96 129 145 185 228 243 246 245 245 246 246 246 245 245 243 242 242 241 239 238
  40  35  29  30  33  35  31  33  36  37  51  84  83  71  60  65  83 116 116  91 105 132 148 154 156 162 158 162 165 166 169 171 169 175 183 184 181 186 188 188 192 190 189 195 195 195 194 193 196 198 199 193 192 192 194 195 194 195 197 197 199 200 199 204 207 210 210 203 186 146 109 100  99 115 132 153 201 229 233 231 232 234 235 236 236 238 238 239 240 239 239 238
  43  36  29  30  32  33  31  30  36  43  62  93  84  67  65  71 100 115  84  80 118 137 153 155 155 161 162 164 165 165 170 174 177 176 176 181 183 187 189 188 191 191 188 193 192 196 194 197 197 198 199 195 193 196 194 193 192 193 197 196 198 199 202 204 204 206 207 206 201 170 117  92  87  99 133 146 166 206 208 207 211 214 218 219 220 223 224 226 227 229 230 232
  43  38  29  29  30  30  30  33  40  45  77  91  81  72  68  71 109  99  77  90 125 141 153 155 160 160 158 165 161 168 175 177 177 179 180 179 183 183 187 187 189 190 191 192 193 194 196 196 196 198 195 196 195 197 196 193 192 188 195 202 201 202 201 204 206 203 205 208 207 183 136 100  89  86 122 155 153 190 197 193 194 196 196 194 194 196 199 201 204 208 211 214
  45  40  30  28  34  39  38  37  32  50  74 101  78  66  61  90 109  87  79 108 128 139 153 156 157 156 155 163 165 164 170 174 176 178 181 186 186 185 189 188 191 192 194 196 196 195 196 198 197 196 193 195 200 198 198 199 198 192 195 202 203 202 199 202 205 205 204 207 208 188 161 121  95  91 103 158 158 179 203 197 194 192 186 180 176 173 171 168 171 177 183 187
  45  42  31  28  32  34  30  27  35  54  79  88  68  59  64 101 101  84  97 121 130 143 156 155 154 157 158 168 165 160 169 176 179 175 182 192 191 192 191 190 192 194 192 188 193 196 196 198 202 198 194 198 200 199 197 198 199 196 197 197 197 201 200 197 202 204 202 201 203 190 169 138 108  90  97 131 161 158 200 200 198 195 189 182 178 174 169 164 162 165 167 170
  44  41  32  28  31  31  30  27  32  74  94  78  64  52  71 108 101  94 103 118 131 143 155 154 157 158 161 169 167 168 174 181 181 186 187 192 187 187 194 195 192 192 191 185 195 199 197 199 201 202 201 200 200 197 195 196 195 194 194 196 192 198 200 196 197 202 201 203 200 187 172 150 122 106 104 113 150 154 189 206 199 197 194 190 186 181 177 174 173 174 175 176
  45  41  33  28  30  32  28  30  53  93  88  63  42  49  95 113  93  83  97 115 132 143 151 156 157 157 162 168 168 173 175 181 188 189 191 190 189 191 195 196 197 197 195 196 205 201 201 199 201 203 198 197 199 198 198 195 196 198 197 197 194 195 198 200 198 196 199 200 197 187 175 159 122 100 123 124 141 156 169 212 205 202 197 192 190 188 187 185 183 183 184 185
  45  42  34  28  29  30  31  37  69  84  63  34  39  74  95 106  87  93 106 118 129 142 154 157 159 157 165 169 166 175 182 183 190 188 192 192 195 195 196 194 199 201 200 206 209 204 201 199 196 201 201 198 199 199 201 204 200 199 198 198 195 194 194 197 196 195 201 198 194 188 178 156 130  95  98 138 148 144 154 203 213 208 204 197 192 189 190 191 191 190 190 190
  45  43  35  28  28  30  33  49  84  66  33  41  65  74  90 103  91  90 106 119 133 142 157 158 161 158 163 172 167 174 179 184 187 187 191 199 201 203 209 203 203 204 212 215 207 208 203 196 192 200 204 197 202 204 201 203 204 201 196 198 196 195 196 197 194 193 199 200 192 186 180 161 137 114  98 119 151 157 147 189 219 213 210 202 196 191 191 189 188 188 190 191
  42  42  36  29  29  29  37  68  73  35  38  64  67  67  94  99  83  94 111 124 133 142 150 159 160 158 165 169 164 172 178 184 188 189 194 203 207 208 207 205 205 208 209 211 206 204 215 213 198 202 207 205 205 206 201 200 201 196 195 194 196 195 194 193 193 192 191 193 189 185 179 162 135 114 105 100 135 149 146 174 218 217 213 207 199 193 191 192 194 196 201 205
  42  41  38  29  29  28  39  77  60  40  61  61  55  71  95  92  90  94 107 121 132 141 148 154 160 160 165 166 166 170 173 181 188 186 189 199 203 199 200 199 202 203 203 203 203 197 204 206 200 203 203 196 200 203 199 196 194 193 194 189 192 191 191 190 190 190 191 189 186 185 176 162 138 121 108  91 113 138 136 171 216 218 214 209 202 199 205 215 220 222 225 222
  41  41  38  31  29  28  39  76  55  56  64  51  60  78  96  95  90  96 108 118 137 141 149 153 157 161 163 170 169 166 166 177 187 184 191 198 197 200 204 199 201 204 204 205 203 195 196 197 198 199 197 193 199 202 197 193 195 195 195 194 191 192 191 187 188 191 192 185 183 181 171 160 141 125 124  96  84 126 129 172 221 221 215 211 205 209 221 232 238 237 232 227
  40  41  38  31  29  28  38  67  64  62  51  60  74  80  85  91  96  96 101 114 136 141 145 154 158 162 166 168 170 170 170 174 185 185 192 194 197 198 197 199 202 198 204 206 203 194 200 204 198 197 198 194 200 198 196 194 194 196 195 197 195 196 192 193 192 192 190 183 180 175 165 154 135 117 115 103  69  98 119 156 224 224 218 213 204 210 225 237 242 238 230 223
  38  40  39  33  29  27  37  71  63  57  68  76  76  71  83  94  93  87  97 109 128 138 141 153 161 165 165 169 171 172 173 175 182 188 193 194 196 196 197 204 204 195 200 203 203 194 194 198 199 194 198 193 195 202 197 191 189 190 190 190 193 194 187 193 194 196 190 184 177 174 163 144 130 115 108 107  65  70 117 133 217 235 225 212 198 198 217 230 234 228 215 196
  37  41  40  33  29  29  34  59  60  80  82  70  66  76  92  91  86  92  91 103 125 138 142 151 158 160 160 171 170 171 172 178 181 183 187 193 190 194 208 213 203 195 199 201 200 194 196 201 201 196 196 188 190 189 184 186 189 191 190 193 195 192 188 191 193 193 186 179 176 172 167 153 140 129 114 106  76  54 104 119 213 245 235 212 192 182 195 214 214 203 187 173
  36  40  40  34  30  30  28  47  85  89  77  68  71  78  87  91  85  94 100 102 123 139 143 147 155 159 159 168 172 171 172 178 181 186 196 193 191 195 199 201 200 197 199 203 203 201 199 197 195 192 189 188 186 186 185 192 197 194 193 196 194 192 192 193 194 191 185 182 176 173 169 147 124 112 111 112  97  52  85 110 204 246 236 209 183 170 170 185 188 180 173 168
  35  40  40  36  30  30  26  53  92  75  72  65  67  72  85  87  81  89 100 106 118 137 143 147 154 161 162 164 169 169 171 174 180 187 191 193 189 190 191 190 192 189 191 195 197 198 191 193 192 192 190 189 183 188 192 198 197 195 195 198 196 190 192 190 191 188 181 181 177 174 170 145 119 107 102  93  90  64  65 108 194 241 228 202 172 159 153 157 157 157 158 155
  34  40  41  37  30  30  28  66  86  90  72  63  64  82  83  83  82  79  93 101 116 132 141 148 153 157 160 162 164 169 172 171 181 187 188 189 190 191 196 195 193 189 190 190 190 192 191 192 192 194 190 188 189 191 193 196 193 194 195 198 196 197 197 193 191 189 184 180 178 175 168 146 111  94  90  82  76  64  57  95 185 238 220 194 165 149 136 127 123 124 129 135
  34  39  41  37  31  29  28  62  83  71  64  58  65  76  84  81  73  81  89  98 108 126 140 152 155 154 160 160 165 167 170 170 180 189 191 192 194 192 196 195 198 196 195 194 199 199 196 198 201 200 197 190 192 200 199 197 197 197 198 200 197 193 196 194 196 195 187 184 176 177 175 150 110  76  63  76  72  67  58  88 184 247 234 207 173 142 117  98  91  90  97 109
  33  39  42  39  32  30  29  50  62  57  57  56  67  73  88  76  74  73  84  95 103 122 143 150 153 159 161 163 169 168 172 175 179 188 192 196 201 197 199 202 204 198 198 200 200 198 194 195 194 195 192 191 197 203 200 199 198 194 193 199 202 197 196 192 192 192 191 190 180 181 180 159 124  80  58  61  77  72  63  77 171 253 246 225 188 147 122 101  87  84  85  97
  31  38  42  40  33  30  29  53  56  55  43  63  75  79  77  72  69  70  77  91 113 122 140 140 158 168 168 168 168 171 169 169 176 183 188 192 196 196 196 205 206 205 199 205 204 200 193 190 194 198 200 198 203 203 200 197 196 194 197 200 200 200 202 201 196 194 192 191 189 186 181 165 134  87  58  56  79  68  64  73 142 250 250 229 193 163 139 116 101  98  95 105
  32  37  42  41  33  33  30  63  66  58  64  73  73  84  69  62  67  63  64 101 123 129 135 146 169 169 171 173 176 177 172 178 186 186 189 196 198 203 201 201 200 205 207 207 201 206 206 205 201 207 205 203 202 197 191 195 197 202 205 204 199 199 202 201 198 191 187 185 190 190 182 169 139  89  60  54  78  72  66  67 124 243 249 222 195 180 154 127 111 104 102 112
  33  37  42  41  36  30  40  72  71  72  80  72  76  71  54  62  62  54  81 117 126 131 135 150 167 169 166 172 179 180 182 184 183 190 191 199 195 198 202 205 201 198 200 200 194 200 204 205 197 199 205 200 195 191 198 200 202 202 196 191 190 189 189 181 177 174 178 184 185 189 186 173 146  93  55  55  77  71  78  82 119 204 242 219 208 192 165 135 118 109 104 115
  33  36  41  41  37  30  45  65  72  63  64  70  69  55  57  64  50  56  90 114 124 125 137 150 158 155 150 154 158 166 172 169 172 178 183 173 165 173 183 193 200 198 199 198 187 187 188 190 190 187 190 191 191 192 195 189 171 168 178 174 170 170 178 169 169 173 171 175 171 182 180 172 156 106  55  54  74  71  69  75 102 149 224 228 220 197 171 142 127 118 113 126
  32  35  41  41  38  34  32  55  84  69  64  66  65  55  61  56  41  55  90 116 122 125 134 133 132 145 151 154 143 147 151 148 159 154 154 148 145 142 164 183 179 190 191 189 186 184 182 180 174 169 173 183 187 181 172 163 146 137 147 156 148 158 165 177 177 158 150 153 164 178 181 177 168 122  70  54  62  75  84  82  94 138 214 233 223 198 175 149 136 130 132 145
  33  34  40  42  39  34  30  57  82  75  56  69  65  54  56  44  36  62  98 121 124 125 125 124 131 137 149 154 155 143 145 145 133 118 116 127 134 146 156 162 161 180 185 186 182 179 187 183 174 164 165 172 169 158 144 136 122 107 112 117 132 154 168 175 170 171 165 162 160 168 173 183 175 138  72  51  53  61  82  98  92 131 204 227 214 194 175 157 148 146 150 161
  35  35  39  42  40  34  35  47  69  69  69  62  53  53  52  35  32  66 104 123 126 122 116 135 143 140 153 159 171 171 172 162 146 136 124 114 111 124 135 144 161 173 181 181 181 177 192 193 177 166 173 165 148 141 130 120 116 132 143 161 183 189 192 189 185 183 172 169 165 166 175 185 182 161  95  56  52  60  42  65  95 112 191 218 202 188 174 163 157 157 161 171
  35  34  39  42  40  35  34  41  65  53  63  58  60  50  39  33  34  67 102 125 131 124 124 142 145 149 157 165 176 183 188 195 199 198 188 175 161 141 121 114 135 155 169 182 192 184 188 187 179 186 176 147 124 112 121 143 171 187 193 198 200 194 192 191 189 180 170 166 156 162 178 184 186 167 107  70  73  64  72  65  60  82 138 210 205 197 186 178 169 167 170 175
  34  34  38  41  40  36  35  46  66  56  51  53  46  35  32  27  34  70 106 127 134 122 117 119 137 141 151 154 159 170 172 184 187 189 190 188 190 180 166 141 112 117 142 172 193 191 191 196 188 190 159 124 122 138 159 173 183 183 185 176 169 163 154 145 175 187 180 167 152 162 176 189 191 167 106  92  72  64  94  72  63  57  71 192 236 223 215 206 194 185 182 185
  33  33  37  41  41  39  36  46  59  52  47  39  34  32  28  26  30  80 124 127 133 124 125 116 123 143 148 153 154 163 175 188 195 198 194 189 184 175 170 169 145 118 113 129 173 186 192 201 196 191 158 143 145 167 173 160 138 113  89  85  71  63  65  96  86 108 158 168 170 179 182 185 191 182 128  91  82  72 130 108 110  74 131 230 247 238 234 226 216 205 200 200
  33  32  35  41  43  38  34  44  54  61  49  46  38  34  35  30  43  97 140 142 135 146 144 132 125 138 147 162 167 154 130 125 113  98 101 123 134 145 158 152 144 124 134 136 151 180 186 194 195 187 161 141 143 157 136 114 130 145  92  92  83  78 101 157 106  86  89 151 183 173 176 180 193 191 152  94  90  87 140 229 222 226 255 253 248 245 242 237 229 218 212 211
  32  31  34  41  42  39  33  47  61  48  39  38  36  34  37  36  55 105 138 164 142 150 177 163 140 146 134 116  85  92  82  54  62  73  83 136 141 105 122 140 160 148 130 148 148 177 182 186 188 182 163 141 171 173 125 131 152 167 132 118  98  99 148 161 157 154 123 133 150 176 182 186 191 192 160 101 100 121 186 255 254 254 249 249 249 247 245 240 233 225 220 216
  33  32  34  41  42  46  50  62  71  43  37  41  41  45  48  44  59 113 130 150 149 152 164 163 141 131  98 101 126 137 142 106  99 116 120 168 166 145 138 154 186 159 142 149 143 178 183 186 185 179 165 154 163 181 169 145 150 162 185 189 176 178 180 177 182 178 180 177 164 171 184 184 188 201 172 123 114 148 211 254 249 249 249 249 248 247 245 241 235 228 222 219
  34  32  33  40  46  44  44  44  74  58  50  60  63  61  55  43  66 120 141 130 134 154 168 171 140 126 151 151 160 168 166 171 175 183 183 168 161 155 156 173 172 148 149 144 150 178 185 184 186 184 165 162 157 166 166 148 145 159 184 186 192 191 181 181 187 186 183 193 196 191 191 192 196 198 179 153 130 155 225 254 249 249 249 249 249 247 245 241 236 229 224 221
  34  34  34  41  43  40  36  35  69  83  52  66  91  75  60  51  72 111 132 143 149 163 174 174 156 150 160 177 177 181 180 185 189 188 181 161 155 157 163 170 163 149 148 144 151 170 182 187 185 188 169 157 165 168 172 171 160 156 167 176 187 191 192 195 191 185 187 187 190 196 194 193 181 186 177 155 138 167 236 253 249 249 249 249 249 247 244 241 237 230 225 222
  32  33  35  39  41  42  36  40  49  78  69  61  93 105  58  47  65 115 121 125 136 161 171 174 175 172 166 166 175 171 174 172 170 166 166 169 167 173 170 169 159 145 146 156 148 161 171 173 186 190 172 166 167 175 179 175 177 173 171 168 172 168 167 170 169 174 181 184 183 185 189 184 191 187 165 140 141 177 237 253 250 249 249 249 248 245 244 242 238 232 225 222
  32  34  35  38  41  42  37  35  32  64  82  69  85  99  75  54  57 102 127 136 155 166 162 171 176 169 170 171 166 171 175 178 176 179 180 175 178 176 175 175 156 145 154 157 146 155 176 177 189 191 174 171 168 170 184 185 184 175 174 176 172 170 166 170 175 181 188 189 191 190 187 186 173 184 160 133 150 178 235 253 249 249 249 249 247 244 243 242 238 233 226 223
  31  32  34  38  41  42  37  33  32  42  83  82  89 104  89  58  58  89 116 125 129 144 158 173 174 178 173 166 159 167 166 175 173 172 173 176 182 183 182 168 153 151 164 159 148 156 169 179 185 184 177 177 168 166 179 192 196 187 180 181 177 182 181 182 185 188 184 190 190 192 191 184 182 176 141 134 164 180 231 252 248 246 245 243 241 240 239 238 235 230 223 222
  31  32  35  38  40  43  39  33  33  42  69  82  85 108 128  92  61  78 122 114 121 148 167 167 169 175 182 173 178 176 175 174 174 176 177 179 184 181 175 161 149 151 161 155 146 158 168 177 180 173 174 180 171 167 178 185 191 197 191 187 181 179 185 181 183 186 189 190 191 195 189 174 176 170 124 140 170 177 226 245 240 238 237 235 231 231 232 230 227 223 219 220
  31  32  33  39  40  43  40  35  32  46  60  60  85 109 152 131  88  70 111 125 133 142 150 154 161 171 173 175 180 180 180 177 179 181 184 187 181 177 165 157 157 164 167 157 146 153 171 175 177 174 173 177 182 172 174 181 187 189 191 194 191 183 180 184 183 184 190 190 184 184 189 173 168 165 107 146 172 179 225 238 232 235 231 228 223 221 222 222 218 217 219 221
  31  32  31  40  42  42  41  37  32  46  52  38  72 110 161 144 113  74 103 136 115 135 142 153 164 167 171 175 178 179 180 182 183 181 184 187 183 176 170 170 167 168 163 155 153 154 166 180 181 180 177 172 177 184 181 184 185 187 188 190 194 193 191 184 187 189 191 188 193 187 173 173 167 159 123 169 184 184 231 237 232 235 232 228 221 216 216 218 214 213 218 224
  31  32  32  35  43  43  43  38  36  35  39  33  62 104 146 143 126  96  97 133 121 111 135 159 170 172 172 178 177 182 182 183 191 188 185 186 182 182 187 182 172 155 146 151 161 158 163 176 177 177 179 172 171 178 184 190 188 185 186 187 187 194 191 186 183 186 186 188 190 190 172 171 172 161 159 188 179 193 238 234 230 234 232 228 219 214 215 219 217 216 217 222
  31  32  32  33  39  44  44  39  34  30  31  37  45  97 149 169 152 110  94 131 131 113 127 157 167 171 174 176 177 181 185 184 186 183 187 189 193 195 191 172 154 145 142 157 160 157 162 164 174 179 178 172 176 177 176 188 193 188 188 188 187 192 193 191 187 188 181 185 192 185 187 169 170 175 169 185 188 212 235 230 226 231 230 226 216 209 214 216 217 219 217 218
  31  31  32  34  37  44  45  41  35  31  29  26  50  93 158 175 165 110  92 132 131 126 130 153 161 171 174 170 177 181 186 183 188 187 192 194 188 179 166 145 145 153 153 161 159 149 159 173 177 180 179 175 177 184 172 177 188 192 189 190 190 188 185 181 188 191 185 181 188 183 185 172 166 174 172 183 189 213 230 226 223 226 223 219 212 204 210 216 217 214 213 218
  31  31  32  33  37  44  46  43  36  32  29  35  64  75 149 170 157 122  91 106 113 118 137 146 156 166 166 168 175 178 183 183 188 189 188 178 165 165 162 139 150 161 164 167 157 153 169 182 182 178 175 173 175 186 182 171 176 184 186 186 187 183 182 176 181 188 182 181 183 177 176 175 161 168 176 188 182 218 229 229 223 221 218 214 211 209 210 214 214 209 210 217
  31  30  32  35  36  43  47  41  38  33  31  37  55  73 132 172 156 142  99  95 104 113 136 139 149 157 158 166 165 164 174 179 186 183 170 157 166 187 173 142 153 162 163 159 153 165 188 199 197 185 177 181 178 188 189 176 183 181 173 176 178 182 182 180 181 181 175 174 175 173 169 167 150 170 188 184 203 239 240 238 228 219 216 214 213 215 214 213 210 208 211 218
  32  32  32  33  36  40  46  44  38  35  31  33  60  69 134 164 157 168 128  86 101 106 118 128 141 152 155 160 166 165 168 179 183 165 148 157 182 177 164 125 133 148 153 145 138 154 174 178 180 178 174 169 161 176 166 154 180 189 179 168 173 176 171 177 173 176 172 170 167 160 158 161 155 157 164 200 236 243 246 241 231 221 217 218 217 218 219 221 216 209 213 225
  30  32  31  32  35  40  44  43  40  33  32  35  55  73 113 147 164 180 127  90 101  96  93 108 128 141 147 155 162 168 170 175 169 150 154 171 158 148 150 112  81  77 106 134 137 139 155 159 153 161 153 146 148 113 101 132 166 170 174 175 164 161 165 167 166 167 168 164 156 149 141 138 149 157 177 236 243 245 246 243 236 229 228 229 230 227 231 232 228 220 223 235
  46  42  38  33  34  39  43  42  39  34  31  33  48  83 105 135 157 163  96  98  97  95  84  90 110 129 141 150 157 162 165 163 157 152 158 149 154 153 143 134 101  73  68  78 113 132 148 154 152 153 145 138  99  98 138 155 150 152 156 165 167 161 158 155 164 160 159 156 152 140 124 125 145 150 222 246 241 244 246 244 239 235 239 237 239 235 240 240 236 231 235 244
  66  66  59  44  35  38  43  43  40  35  32  35  58  85  90  81  95  76  46  84  99 101  89  80  92 116 135 144 154 158 155 154 146 145 155 158 151 146 147 142 126 121 112 102  70  83 131 138 138 136 115  91 106 127 142 145 150 144 144 150 155 151 145 151 155 157 156 146 146 129 114 136 138 146 222 246 239 242 245 245 240 237 243 243 244 242 244 244 242 237 238 247
  63  70  72  64  53  43  41  43  40  36  33  37  41  60  88  65  47  44  36  78 100 112 105  91  73  93 127 134 142 154 155 148 141 145 161 170 157 156 162 138 123 113 124 134 136  93  70  88 101  86 106 141 136 127 136 140 147 166 156 143 141 142 140 125 125 141 153 155 144 121 118 151 147 151 224 245 237 241 245 245 240 239 244 244 246 245 245 245 243 241 242 246
  49  54  64  72  74  64  50  43  40  36  35  37  32  37  78  92  74  69  61  68  95 114 116 112  80  79 113 125 141 141 133 136 142 157 165 164 150 158 151 139 125 122 128 128 127 124 104  82  78 101 148 141 122 128 128 147 146 168 179 158 151 138 143 129 112 109 124 133 142 125 124 150 132 153 229 246 237 240 243 243 239 239 243 246 246 245 245 247 244 242 241 245
  43  45  50  59  72  74  65  53  42  36  34  34  31  36  51  86  81  65  48  59  95 115 116 117  93  76 102 123 118 123 134 134 151 171 161 151 146 145 144 144 118 130 138 127 130 138 128 124 134 125 120 133 132 126 131 144 146 166 174 161 155 158 156 139 125  98 106 118 136 125 142 151 119 156 230 246 238 241 244 243 240 239 245 245 245 243 243 247 245 241 236 244
  41  44  44  47  57  67  70  66  53  39  32  32  33  38  34  40  43  35  46  68  88 113 123 127  94  96 114 118 112 112 136 160 167 172 144 139 140 137 149 147 138 127 135 148 146 151 145 147 154 148 135 142 141 141 135 131 147 160 153 146 154 149 158 150 135 109 119 142 138 119 143 134 108 178 243 246 243 245 246 245 245 244 246 245 245 241 244 245 245 240 235 243
  39  42  43  43  48  56  62  69  65  52  35  31  31  35  37  34  30  21  40  72  85 109 134 124 104  96 130 125 112 115 127 156 160 153 125 127 133 138 145 132 139 135 147 153 169 160 162 165 174 171 163 143 145 142 129 135 146 148 142 142 139 135 139 137 123 119 147 163 139 109 139 123 114 198 252 248 248 248 248 248 248 247 249 247 246 246 245 245 244 237 234 241
  38  40  41  44  46  47  52  60  67  63  47  33  31  32  36  32  24  23  26  43  81  99 133 132 122  88 128 133 141 131 118 136 121 122 118 109 119 128 130 123 126 131 134 136 149 160 157 153 168 166 156 147 151 141 134 144 143 138 122 108  99 110 118 126 118 129 163 167 122 118 137 121 122 207 253 248 248 248 248 247 248 248 248 248 248 247 245 246 242 234 231 237
  34  37  40  43  47  46  46  49  56  63  59  41  30  32  35  33  25  19  27  44  79  95 120 137 140 101 113 135 162 139 127 126 101  96 100  86  81  87  91  92 109 110 107 114 123 124 112 119 133 127 129 131 121 113 117 112 107  68  67  85 122 130 135 140 140 146 169 165 129 141 139 114 130 226 252 249 249 250 249 249 248 249 248 249 246 241 236 232 229 227 229 234
  32  33  35  39  43  46  44  43  48  54  58  51  35  31  34  32  25  21  22  33  63  96 111 134 144 105  90 150 166 149 138 127 125 134 132  69  60 107 140 142 173 171 138 158 115 137 151 127 125 146 142 127 159 166 186 143 105  73  99 160 163 154 155 149 157 140 148 150 138 162 150 120 141 240 251 249 249 249 249 249 249 248 246 238 220 199 184 180 188 205 221 229
  28  30  31  34  39  45  44  42  45  48  51  57  43  31  34  32  25  21  21  22  54  79  91 111 138 124  93 145 170 172 141 126 154 156 156 148 125 122 123 143 161 219 197 212 186 195 219 197 191 213 206 196 209 197 163 117 128 142 160 175 173 161 160 147 137 135 142 132 130 164 152 120 149 240 252 249 249 249 249 249 249 246 229 183 113  75  68  87 125 169 202 223
  27  28  28  29  35  41  44  42  42  47  44  52  53  35  33  32  25  20  21  26  46  73  75 111 135 137 115 127 155 166 140 132 147 164 162 161 155 144 118 109 121 176 160 194 206 204 211 203 196 207 198 177 164 137 134 143 158 170 173 180 174 169 157 145 139 147 146 123 136 152 139 110 159 246 250 249 249 249 249 249 248 236 174  61  17  20  29  44  71 127 183 214
  27  28  27  27  29  36  41  42  40  43  71 117 105  47  31  32  26  21  23  22  33  65  73  93 121 151 138 104 137 145 134 141 132 155 161 161 161 151 149 144 147 139 138 160 170 182 189 174 169 176 168 154 144 156 165 173 174 173 180 179 170 165 156 148 133 149 134 115 151 143 117 118 181 254 249 250 249 249 249 249 247 215  91  10  20  28  38  58  83 116 173 211
  31  30  30  27  28  32  37  40  38  44 125 195 178  99  38  31  26  21  20  22  18  64  79  69 106 138 130 100 108 146 144 141 141 152 164 166 159 153 150 154 160 161 157 160 163 175 196 206 187 176 176 174 171 174 180 176 169 175 180 178 170 179 160 135 133 128  94 114 131 128 103 130 216 255 249 249 249 249 249 250 243 183  45  13  23  34  47  68 104 130 169 215
  35  34  34  31  28  30  35  37  38  38  98 184 206 164  71  28  26  19  20  20  14  40  74  61  87 133 136 108  80 119 146 143 152 161 162 155 150 150 150 153 153 153 159 167 172 188 209 211 198 182 185 182 171 165 168 162 171 173 172 164 172 164 164 152 137  96  80 115 128  99  92 126 230 254 249 249 249 249 249 249 231 148  26  17  28  40  54  65  93 130 169 219
  34  35  35  35  32  31  32  33  35  36  42 108 166 150  77  32  25  20  21  20  16  31  63  69  75 120 136 102  72  94 136 141 146 151 151 141 143 147 146 151 144 137 143 151 155 166 175 185 173 154 168 164 154 157 152 161 176 177 174 163 167 167 171 168 141  84  99 110 116  98 100 165 243 251 249 249 249 249 247 239 198  94  19  23  34  41  48  56  66  97 161 219
  30  30  33  34  33  32  33  33  32  35  33  34  54  70  65  39  25  22  21  20  17  20  41  69  64  98 102 120  93  78 125 144 141 145 143 145 146 144 136 142 145 138 141 155 157 156 150 152 151 149 153 151 152 162 161 165 165 172 170 170 180 178 174 146 116 105 126 111 114 111 120 219 246 247 248 248 247 241 227 195 119  38  24  31  39  43  43  50  54  73 148 215
  29  29  31  30  29  29  32  33  31  32  35  29  21  41  58  42  24  21  21  19  15  12  24  51  62  64  86 115  95  71  95 133 140 150 147 140 147 140 134 133 135 141 149 149 154 160 159 164 153 154 159 152 166 169 159 151 168 169 158 148 176 166 173 144  91 117 138 114 113 119 165 245 246 246 247 243 231 208 165  96  36  23  31  39  43  45  45  50  59  72 133 207
  28  29  29  28  28  29  29  30  28  30  36  33  29  31  40  35  25  19  18  19  15  14  19  63  73  50  64 106  94  66  82 114 139 156 139 126 142 145 129 130 138 136 135 145 151 156 170 162 165 149 149 152 155 175 159 152 155 164 163 143 158 164 154 129  95 109 127 111 105 119 220 250 248 246 241 230 201 143  75  29  18  23  32  40  44  46  46  52  62  72 119 189
  30  29  27  28  28  28  27  27  27  28  33  41  67  58  30  28  24  26  33  42  50  58  59  62  58  49  55  88  90  86  71  98 126 128 129 139 141 142 147 159 150 137 146 139 130 159 175 163 173 159 155 162 146 156 169 161 163 155 145 152 159 158 130 108 106 116  99 105 115 150 236 249 246 240 228 199 141  71  28  17  16  20  29  37  42  43  44  49  63  70  91 153
  32  32  30  29  28  27  27  26  27  28  29  53 115  99  37  35  52  70  87 101 112 117 116 104  69  50  53  64 100 107  73  96 123 140 132 137 132 123 147 146 157 146 160 153 160 169 169 176 172 172 159 168 158 162 170 155 159 152 145 150 157 160 147 102 106 119  96  91 121 154 240 247 242 228 195 134  70  33  21  17  12  17  25  33  36  37  40  49  63  71  71  96
  29  30  32  32  31  30  30  29  27  26  26  70 144 116  53  71 101 122 134 141 145 145 140 126 101  64  56  59  83 101  73  83 118 138 137 138 135 145 141 140 150 165 159 159 158 163 173 173 176 173 164 162 167 178 168 152 155 150 153 155 146 166 156  97  88 102 113 111 123 168 242 244 235 209 146  74  35  22  20  15  13  16  24  30  33  32  38  49  64  71  67  62
  42  34  27  29  32  32  32  31  29  27  33  93 157 127  91 115 135 146 152 153 154 153 146 131 106  91  51  64  86  87  86  72  95 117 130 139 144 149 139 130 141 154 158 163 153 169 181 169 167 159 165 168 159 169 164 147 153 159 145 160 162 151 134  99  86  97 113 116 140 173 230 227 213 175 108  50  24  19  16  13  12  16  22  28  30  29  33  45  62  68  61  52
  69  71  51  35  30  30  32  32  31  28  39 101 156 140 123 138 144 149 153 155 159 159 148 127 101 114  86  61  66  74  84  76  89  94 133 146 145 145 140 144 155 152 154 162 167 172 173 174 165 159 173 175 166 166 159 145 161 162 162 166 161 144 117  94 102 105  92 135 158 183 149 165 158 120  72  40  23  15  14  14  16  19  26  29  27  25  29  40  54  63  62  58
  82 103 101  78  57  40  31  28  29  32  67 121 155 152 139 137 139 144 147 150 153 147 132 114 108 111 116  83  59  67  67  71  78  85 133 127 140 160 153 159 170 153 151 163 175 177 175 191 182 170 174 171 167 174 157 150 172 159 153 168 169 144 103 103 123 113 119 148 138 210 111  52  80  55  50  43  34  22  21  24  27  29  32  33  29  26  30  42  59  69  73  76
 105 120 126 118 105  91  70  46  28  31  91 147 166 166 142 127 133 139 142 145 144 129 112 113 140 116 125 101  60  58  61  72  69  89 111 123 154 164 155 158 160 151 148 157 176 162 161 173 166 166 176 162 164 173 174 162 170 161 165 160 152 127 100 129 125 121 154 150 141 232 175  21  54  53  47  53  49  41  36  40  44  44  44  42  37  33  35  49  68  80  89 102
 130 132 135 134 132 131 128 106  74  61  74 107 138 150 132 121 128 133 138 137 129 115 105 102 177 114 115 124  90  50  57  61  63  65  98 111 147 166 170 161 167 154 148 142 162 154 159 159 153 167 170 165 166 167 167 163 165 166 177 163 147  93 108 139 115 141 154 145 178 253 227  49  34  63  55  58  63  58  53  54  54  54  53  51  47  44  47  58  73  85 101 120
 132 136 139 138 140 143 145 141 132 123  95  66  79 104 110 114 123 130 131 125 115 113  81  71 212 131 107 123 116  88  53  57  58  67 100 122 151 163 165 167 160 149 159 147 152 160 151 167 166 178 167 166 165 170 179 172 158 156 175 169 137 103 113 111 123 153 155 152 232 247 249  94  21  46  67  63  66  71  65  63  60  59  60  61  60  60  62  71  80  85 103 128
 133 138 141 142 144 145 144 142 145 148 134  96  80  91 102 110 118 123 120 111 108  99  21  99 225 194 107 119 118 116  73  60  77  75  77 108 135 142 154 150 144 153 161 154 144 148 158 164 153 165 159 169 167 154 170 180 167 161 170 170 108 117 119 118 138 150 142 206 253 239 255 140  19  37  55  75  71  75  76  72  67  66  68  71  74  75  77  80  85  85  93 119
 138 143 147 148 148 146 143 143 146 149 142 111  94  95  99 107 114 116 109 101 104  52   6 133 205 235 179 115 121 117 110  74  67  63  77  98  96 115 143 140 148 150 143 142 145 141 142 149 148 158 159 177 174 155 154 176 186 173 154 140 112 109 117 132 142 134 180 254 244 240 253 185  27  35  44  62  81  81  80  81  84  86  88  85  82  85  87  88  86  75  69  88
 141 144 148 151 150 148 145 147 148 147 128  99  89  95  99 103 108 108 102  99  69  20  15 144 202 212 242 153 111 120 120 108  68  61  58  75  92 109 126 129 142 148 142 132 137 143 132 142 140 158 165 170 168 160 154 155 186 183 124 100 112 129 136 138 141 173 247 248 242 241 248 218  47  31  41  50  62  76  80  79  88  98 102 101  94  89  89  91  83  65  44  47
 144 146 148 149 150 150 150 151 152 142 109  81  83  92  98 100 102 102 100  68  25  20  17 141 211 199 229 231 148 121 123 109  99  84  73  59  61 100 115  95 113 133 132 117 130 149 128 129 137 159 163 150 161 147 146 151 159 143 101 109 130 141 135 137 163 241 250 242 241 242 245 237  72  25  39  47  54  56  68  76  79  90 103 110 109  98  89  85  74  53  26  20
 145 145 148 147 148 152 154 157 156 141  93  67  73  76  77  77  76  81  60  26  22  22  17 133 214 207 207 236 233 147 120 118 117 110  85  65  57  62  83  84 106 120 106 103 129 131  99 102 127 145 134 135 140 132 130 150 104  78 106 128 133 137 137 148 229 254 244 241 241 242 241 245  96  23  38  44  51  56  55  61  70  76  95 118 126 116  95  77  63  42  20  16
 140 143 147 147 148 155 158 158 160 140  79  58  60  49  40  36  39  39  24  26  22  21  18 126 208 215 211 216 239 234 153 123 125 115 105  90  82  58  49  64  75 100  96  94 115  99  67  78 112 104 106 119 117 112 104 101  81  98 118 137 147 140 157 228 255 245 243 242 241 241 240 246 116  24  36  43  48  54  54  51  54  57  73 103 130 136 112  78  59  56  47  49
 140 144 148 148 151 154 158 161 163 136  65  44  45  31  22  27  29  24  24  24  21  22  16 119 200 217 220 217 220 241 242 174 123 123 107  94  86  89  69  61  66  60  71  66 100  79  50  64  83  61  68  88  83  82  78  92 114 116 139 156 144 134 217 255 246 243 242 242 243 239 239 240 128  27  35  42  48  52  53  53  50  49  50  54  67  84  94  87  88 108 121 125
 140 144 145 146 150 151 155 164 168 134  54  27  28  25  30  29  24  24  25  23  21  23  16 111 194 211 224 226 222 227 240 248 192 127 123 113 100 102 106  98  75  56  50  60  63  60  52  46  53  72  68  73  80 104 110 120 128 152 158 152 138 207 255 248 243 243 244 244 241 239 239 234 142  32  32  38  44  50  51  52  51  50  50  47  47  44  45  50  65  93 130 160
 142 142 142 146 147 150 158 164 169 140  56  24  31  31  27  24  24  23  23  22  21  23  16 105 194 203 222 231 230 229 230 239 252 211 139 122 117 110 108 105 116 103  95  84  62  67  74  74  71  90  90 105 129 145 132 135 138 154 150 142 199 255 249 245 244 245 245 245 243 239 241 232 153  35  33  36  43  49  51  51  50  48  49  45  42  43  44  46  34  33  43  78
 142 139 142 145 145 152 164 171 164 118  54  39  34  25  24  23  22  22  22  22  22  24  16  97 193 199 215 229 232 232 232 235 241 253 228 147 116 111 118 102 101 115 126 115 113 118 123 125 121 133 147 151 143 138 135 140 152 150 139 194 254 250 247 246 246 246 248 245 241 238 242 231 165  42  31  34  39  47  49  49  47  47  48  47  43  44  40  41  48  39  32  27
 140 137 140 145 155 161 146 110  65  38  31  28  24  23  23  22  22  22  21  22  22  24  17  93 191 202 208 222 231 232 232 234 237 242 250 242 170 111 114 119 112 120 132 121 120 132 149 150 150 156 144 148 145 132 143 151 157 141 183 255 250 248 247 247 247 248 248 244 240 239 242 230 179  51  29  34  38  44  49  48  48  46  46  44  42  42  44  37  41  51  41  33
 143 141 139 132 110  72  41  28  26  29  26  24  23  23  22  22  21  21  20  22  22  24  17  87 186 205 206 217 226 231 233 234 237 238 240 247 250 190 128 120 126 116 123 129 135 137 133 137 151 149 140 136 137 138 149 150 148 186 252 251 249 249 249 249 249 249 247 242 240 241 242 232 187  58  28  34  37  40  46  47  46  46  46  45  44  42  44  45  33  41  46  39
