P2
# Generated by OpenCV 4.2.0
92 112
255
 117 119 119 120 117 116 118 118 121 122 136 147 159 168 184 190 189 202 200 208 202 206 205 206 209 210 208 202 191  20   5   5  15   0   3   0   0   2   3   2   2   1   7   9   4  16  25  25  24  25  32  25  28  19   7   4   1   1   2   2   9  22  47  63  71  75  78  87  96 103 111 119 123 127 128 129 130 130 130 131 130 131 130 130 129 131 130 130 127 131 141 151
 118 119 119 119 117 118 118 118 119 120 134 146 158 171 182 190 194 203 205 202 204 206 202 198 212 193 179 177  88   0  10   2   1   1   3   5   5   1   0   0   1   1   2   6  12  17  20  25  29  27  22  24  22  23  29  38  41  33  23  17  16  10  15  27  63  71  80  91  98 104 111 117 123 127 129 131 130 131 130 130 131 131 131 131 130 131 130 130 128 130 142 152
 119 119 119 119 117 118 119 116 119 118 131 143 161 172 183 186 189 193 195 192 198 193 189 192 198 201 209 116   0   5   1   0   0   0   0   0   2   7  12  14  16  15  10  10  18  17  14  16  23  31  31  27  21  16  22  35  35  31  26  10   7   9  18  20  33  57  80  93  99 106 112 118 124 128 130 130 130 129 132 132 132 131 130 130 130 131 130 130 128 132 141 152
 119 118 118 118 116 117 118 113 111 105 115 127 130 140 147 179 198 190 174 189 194 202 204 189 175 186  30   1   0   0   2   0   4   0   1   2   5   3  11  14  18  24  25  26  28  26  21  18  14  17  17  11  14  12  16  19  22  19   9  12   3  10  23  18  15  30  44  74  98 106 111 119 125 127 130 132 132 133 132 133 133 133 132 130 131 131 130 130 129 132 143 153
 120 119 118 121 117 120 113 102 100 112 125 131 122 145 154 159 144 180 186 191 207 196 190 196 185  21   7   2   5   1   0   0   0   1   0   6   3   9  12  13  13  10  13  13  18  21  27  31  33  24  23  23  24  22  24  17  20  19  20  17  12  10  18  22  26  24  27  28  43  80 114 120 127 125 133 130 131 132 133 133 133 132 131 132 128 132 130 129 129 131 142 153
 121 119 115 113 116 112 116 118 121 109 121  96 152 162 115  35   5  44 130 130 150 149 150 152  23  10  18  10   7   6   1   2   1   2   2   3   8   4  11   9  15  19  20  19  25  27  24  26  32  37  36  34  34  30  16  20  22  17  10  11   6   4   7   5   2  19  40  31  38  43  60 102 127 131 132 129 131 132 134 134 134 134 132 132 131 132 130 130 129 133 145 152
 118 116 112 112 112 118 117 116 118 117 111 101  51   0  30   0   0   2   1   7   0   9  72  79   5   5   0   0   0   1   5   2   3   3   5   8  10  15  12  20  24  26  38  42  44  41  39  39  47  38  32  34  22  23  17  11  20  26  21  15  14  19  13  17  16  22  35  61  44  49  50  77 106 126 129 134 133 134 135 135 135 135 135 133 133 131 130 130 129 133 144 154
 120 115 118 118 121 115 116 118 118 104  48  11  22  29  11   0   5   1   4   9  62  54   6   6   0   0   0   1   0   2   3   1   3   3   3  11  21  27  27  33  38  35  27  22  25  40  44  32  25  20  16  27  37  38  37  38  44  37  41  31  29  34  30  21  16  14  22  29  73  44  50  72  90 125 129 133 133 135 134 134 134 134 133 133 131 132 131 130 130 133 146 152
 120 115 116 115 122 121 118 117  48   7   6   1   0   8   1   3   0   2   0   7   1   3  13   3   0   0   0   0   0   2   2   5   6   8   7   5   6  12  16  28  32  26  30  42  37  28  14  29  27  22  26  23  19  18   2   4   2   8   6   7   7   6  10  12   6   3   5   6   3  24  51  68  97 108 139 134 135 135 134 134 134 134 134 133 133 132 130 131 130 135 146 156
 121 120 121 118 122 119 115  87   6   2   4   1   3   3   0   0   2   0   3   0   1   1   2   0   0   0   0   0   0   2   3   0   1   5   7  18  31  25  32  34  38  36  36  34  35  37  39  33  28  26  25  30  34  32  21  22  19  18  11   9  15  12   4   1   3   3   3   1   2  14  28  53  67 104 120 132 134 135 136 136 136 136 136 134 135 133 132 132 132 136 146 157
 113 102 106 109 107  90  86   2  26  24   9  10   9   6   0   0   0   0   0   0   0   0   0   0   2   3   3   3   0   0   5  10  21  34  27  14  13  19  16  26  30  20  16  10  14  27  44  47  40  30  12   7   8   5   3   2   6  16  25  13   4   2   2   4   6   6   7   3   1   8  16  42  44  72 104 127 133 133 140 136 134 132 136 135 134 134 133 134 132 137 148 157
 111 115 111 114 114  91  38  33   9   4  15   8   8   4   4   3   0   0   1   0   0   0   0   0   0   0   0   0   0   0   3   6  15  20  17  14  12   8   4   8  25  33  45  49  42  28  21  12  12  16  15  26  28  32  43  30  27  22  18  16  12  10   6   4   5   5   5   3   2   4   9  15  28  37  51  93 126 134 135 137 136 137 137 135 136 133 134 133 132 137 147 158
 119 114 113  82  56  45   1   5   8   5  21  11   8   0   0   0   0   0   0   1   0   0   0   0   0   0   0   0   0   0   4   1   2   1   4  13  30  49  43  34  28  15  19  18  16  17  19  16  20  22  29  28  29  20  15  27  33  36  31  22  11   6   0   2   3   0   0   3   4   6   6   1  17  11  16  42  63 105 132 137 134 137 137 135 135 136 134 134 133 139 149 159
 100  94  74  75  99  21   4  14   3   1  25  16   4   0   5   2   0   0   0   0   0   0   0   0   0   0   0   0   0   0   0   1   2   1   8  20  18  10   4  10  16  17  19  17  14  18  18  14  21  22  31  27  30  21  16  26  36  28  17   7   5   7   5   1   2   0   0   1  22  12   2  10   6  11  12  20  76  79  79 120 137 133 137 134 134 135 136 134 133 138 148 158
 107  64  93 110  41  79  73   0   2   0   7  17   5   1   0   0   0   0   0   0   0   0   0   0   0   1   2   0   3   0   1   1   5   5   1   7   8  11  10  12  15   7   9   7   2  11   8  14  28  22  20  28  33  33  30  28  23  30  22  16  20   5   1   0   3   3   2   9  18  17  22  18   2   2   7   4  40  89 100  90 128 136 136 136 137 134 136 134 134 140 150 160
  67 109 110  70  63  80  27  15   0   3   0   8   4   0   3   2   1   1   1   1   1   0   0   1   0   1   2   0   0   5   1   1   0   3   5   1   8   7   8  12   9  16   5   4   9  17  23  20  25  29  29  30  23  19  23  26  34  44  43  43  31  14  10   5   0   2   2  13  21  19  14   8   2   4   3   2   0  25  50 117  91 132 137 136 137 136 136 135 134 140 150 160
 114 120 127  21  41  74  19   7   2   1   0   0   1   2   1   1   2   4   3   3   3   3   1   3   0   2   3   2   1   2   9  19   7   9   4   0   2  12  11  15  13  27  36  36  38  27  19  19  19  29  33  27  21  21  24  27  17  33  26  25  26  23  22  14  13   2   7  17  14   7   8  10   7   3   0   0   7   4  16  57  91 129 136 136 137 136 136 135 134 141 151 162
 114 111 124  26  55  85   8   2   0   1   1   0   0   2   2   9  15  10  10  12  12  14  18  15  11   9   2   4   2   4   9  27  20  12   8   6   5   5   8   7  10   7  15  14  20  25  24  31  44  42  35  36  41  41  43  39  28  27  34  18  18  15   7   8  10   7   5  15   8   4   1   3   2   0   1   1   3   8  18   3  47 101 135 141 134 137 136 136 134 141 150 160
 126 121  46  77  53  46   4   4   3   2   1   3   0   4  11   9  17  18  16  19  20  16  14  13  17  21  18  14  11   7   8  15  21  21  37  20  21  28  26  11   7   4   7   7   8   9  25  20  22  23  39  33  22  29  37  43  50  55  45  44  39  28  16   6   1  11  15   9   2   2   2   1   2   0   0   0   3   2  17  78   4  51 116 136 134 136 137 137 136 142 151 162
 119  97  60  66  51  44  17   6   0   0   0   1   0   7  19  16  20  23  24  12   5   6   3   8   9  17  25  29  22  20  21  24  22  25  43  54  51  55  59  41  33  27  10  14  26  39  35  34  32  35  41  41  42  32  35  34  34  41  37  24  17  19   7   4   4  13   6   6   5   3   3   0   1   2   0   0   3   6  23  74  82  15  61 134 133 137 138 138 137 143 152 163
 115  48  97   4  54  28  10   3   1   1   1   5   6  10  23  20  25  18   5   3   4   2   2  13  17  27  27  34  42  42  45  41  51  52  64  54  53  76  78  64  54  52  40  25  25  29  30  30  34  37  48  49  48  55  49  47  48  48  34  23  20  22  19  18  15  12   8  12   5   2   4   6   1   1   2   2   0   4  10  29 104  28  40  94 132 138 139 137 137 143 152 162
  96  66  29  24  34  27   1   4   4   1   3   1  10  13  13  19  11  10   6   3   2   6  14  22  29  35  43  56  69  75  80  72  65  73  80  88  96 101  93  94  80  78  64  48  44  47  45  49  48  43  39  46  48  44  44  51  46  39  41  48  45  36  31  23  21  18   9   4   8   5  11   6   3   7   2   3   4   3  13  19  42  86  27  44 138 138 139 136 138 144 153 163
 113  85  11  19  39  10   9   3   2   0   0   0  13  18  25  11  15   7   4   5  10  16  33  51  65  70  82  90  90  99 103  81  97 105 109 116 121 110 116 120 100 108 115 114  99  82  77  71  69  69  58  55  57  49  47  56  73  72  62  52  52  48  49  37  22  20  15  13   7   8   8   7   3   4   5   7  12  16  17   6  33  54  78  30  96 134 139 139 138 145 155 165
 116  63  20  30  19   4  16   3   0   2   1   3   3  27  46  12   8  11  19  21  34  47  70  70  69  85  85  97 106 105 102  83 102 125 124 119 116 117 123 120 120 114 131 132 135 123 118 118 112 110 122 123 116 117 115 103  98  84  79  66  67  49  38  28  23  18  18  14  13  11   5   8   6   9   7   9  10  16  27  39  13  29  65  32  67 134 139 139 139 145 154 165
 114  14  13   6   4   2  23   1   2   1   0   4   5  26  50  36   9   7  15  28  41  49  47  55  73  92 103 110 105  91  69  99 126 127 135 132 126 133 137 136 133 131 135 144 136 141 142 142 140 140 138 144 136 139 141 142 138 132 121 108  98  89  56  49  46  39  34  27  11   9   5   4  13  25  28  22  17  18   9  28  36  25  54  56  40 131 135 136 140 146 156 166
  89   0   4   1  20  15  13   0   0   5   2   0   2  15  33  51   6   5   1  10  20  50  68  76  85  90  94  82  57  66 119 132 131 137 144 137 142 147 150 151 150 153 154 164 166 162 165 162 159 162 165 165 162 168 170 166 163 161 154 144 132 125 109  52  49  40  46  35  51  35  41  51  46  37  44  36  38  32  36  30  23  35  25  63  28 110 140 135 140 146 156 166
  31   3   2   0   1  28   0   2   0   1   1  22  21  21  21  73   2   2   9   3   4  13  14  18  36  81  72  37  78 122 125 131 139 145 144 144 154 154 153 156 156 160 167 169 168 163 167 172 174 172 171 171 173 182 179 182 180 180 174 174 164 148 139 104  26  60  36  38  43  49  37  41  38  38  33  57  49  27  26  35  34  58  53  41  45 103 140 138 139 146 156 166
   5   4   1   5   4  12   0   2   4   5   8  18  10  23  15  85   4   7  12  17  20  16  43  54  50  38  71  88 105 127 135 140 145 147 139 147 154 159 159 162 158 163 173 178 176 180 181 181 179 175 173 174 178 183 188 191 190 184 188 186 179 174 160 130 102  16  49  43  37  32  47  35  38  30  34  35  43  53  45  36  38  29  58  60  50 103 143 141 140 145 157 166
   8   1   5   3   7   5   0   0   2   1   2  18   8  29  27  62  21   5   5   4   7   7  16  32  45  48  65 103 115 131 138 143 149 145 147 158 163 162 168 168 166 178 181 184 184 184 182 182 183 179 181 183 184 188 187 194 193 193 187 186 187 186 186 172 148 106  21  26  16  27  28  34  24  46  40  30  35  23  42  44  38  36  25  66  44  89 142 140 137 145 155 167
   0   5   4   5   7   0   2   2   1   0   0  14  13  15  64  38  19   8  16  16  24  19  45  60  68  84  94 123 127 136 141 142 150 151 154 163 168 170 170 171 176 179 180 182 185 185 186 186 185 182 182 178 182 187 192 193 193 194 193 193 188 188 183 183 185 174 130  22   8  11  21  22  34  33  32  38  21  37  28  25  39  33  19  16  34  47 138 141 141 147 158 167
   0   4   2   5   3   1   2   5   5   4   2   5  19  13  47  41  27   8  25  48  61  55  46  81 106  96 111 113 130 135 138 148 149 149 160 167 171 171 171 173 173 180 184 186 188 187 186 181 180 186 185 183 178 184 193 194 197 192 189 190 189 189 187 187 188 179 179 191 116  30   8  22  27  23  33  23  33  22  33  22  13  20  20  11  22  28  96 145 141 146 157 168
   6   2   6  10   6   4  10   6   7   7   5   4  24   9  16  35  53  33  25  35  67  91  98  85  83 105 107 126 131 137 143 151 152 159 171 170 171 173 175 177 179 181 181 185 187 187 185 181 184 184 183 186 184 191 187 194 196 192 193 195 190 191 185 189 187 181 180 183 181 184 161  68  16  20  20  27  21  19  19  28  30  23  12   8   9  24  22 136 140 147 158 168
  20   2  11   7   3   8   9  14  13  11  11   3  27   9   7  25  49  47  51  61  55  66  92  93  96  89 120 127 132 140 149 152 156 160 168 171 173 174 175 179 180 180 182 184 187 189 185 182 186 182 185 187 186 190 188 192 193 191 190 192 193 193 191 188 184 185 183 184 178 186 184 169 119  47  25  18  17  23  16  19  16   6  14  16  14   7  29  75 146 149 158 170
   4   6  13   6  10  17  10  15  13  18   8  12  26  30  25  17  37  22  31  37  51  53  59  76  95 113 122 123 132 136 142 147 148 162 167 167 174 178 177 175 174 177 179 183 186 186 187 185 182 179 181 183 186 185 186 193 195 195 189 190 195 190 189 185 188 190 187 186 186 182 181 179 181 132  89  40  15  10  13   7   5   9   9   9   8  11  21  56 132 146 160 168
   2  18  13   7  10  16  23  24  22  19  13  17  27  21  35  36  49  51  63  64  69  85  99 103 107 118 121 128 131 133 132 138 143 165 165 167 171 173 176 176 174 178 181 183 183 182 181 182 181 182 182 183 187 186 192 193 194 192 193 192 194 192 191 193 192 190 188 183 182 185 182 178 175 170 139  84  52  29  17  18  21  30  15  19  13  15   4  34 136 146 159 170
  11  31   8  11  27  22  14  30  17  22  16  24  20  42  44  48  63  66  80  80  88 100 107 117 112 112 124 127 133 135 136 146 155 160 166 170 174 171 176 175 170 175 178 178 180 182 177 175 176 178 180 184 188 188 188 193 193 190 191 190 192 193 195 191 192 189 187 186 184 186 188 180 178 173 162 130  88  41  38  51  39  65  40  27  18  11   9  27 132 146 160 169
  27  19  13  17  20  33  17  16  27  16  12  21  27  45  49  57  66  74  77  82  91  96 111 111 116 121 125 126 132 141 138 144 148 154 159 159 164 173 173 170 170 175 176 180 180 179 176 173 176 178 182 182 185 196 196 196 196 193 195 194 195 195 196 192 192 186 183 181 188 183 186 183 177 176 158 154 116  48  18  41  57  77  40  52  24  16  12  19 101 149 156 169
  45  19  27  28  13  25  21  18  28   6  17  23  30  47  49  63  68  79  77  82  86  94 105 114 120 131 129 130 134 138 137 140 148 151 160 146 156 168 170 171 172 176 181 176 177 180 179 178 173 180 183 191 186 192 189 200 197 197 198 196 191 192 193 191 189 191 187 186 184 179 180 185 182 175 173 159 137  65  21  39  69  56  43  30  38  27  13  24  75 147 155 167
  27  21  28  32  22  23  35  24  12  13  18  23  23  44  64  64  78  82  81  83  85  94 108 123 119 125 125 131 134 136 129 139 146 154 154 155 163 170 174 174 174 178 182 178 181 180 178 180 176 169 178 183 184 198 200 198 193 198 195 196 193 193 193 191 190 189 189 187 187 182 179 182 181 176 177 169 142  70  38  40  66  51  58  43  40  35  33  17  58 133 144 159
   8  19  26   7  17  22  22  13  12   8  25  32  33  48  70  66  77  79  91  89  90  99 109 119 123 124 128 133 133 127 133 133 148 147 156 163 166 167 172 176 179 182 181 180 181 180 179 181 180 182 184 188 192 198 199 197 199 194 193 192 189 188 184 181 180 181 178 184 187 184 183 182 182 169 169 169 153  83  48  37  60  60  82  35  39  43  34  18  45 124 135 145
  19  23  24  13  20  19  15   4  22  13  27  21  32  47  66  79  82  93  88  89  89  95 107 117 124 124 128 129 129 134 139 141 146 157 159 155 165 170 172 176 177 185 178 178 177 181 181 180 182 187 188 190 198 198 199 184 190 198 192 189 179 176 168 163 161 157 170 178 184 181 182 180 184 168 169 169 163  87  52  39  48  62  71  37  19  53  17  14  30 104 120 129
  27  19  10   8   8  17   8   8  12  15  22  26  45  43  66  82  84  81  91  93  93  97 103 119 119 126 127 129 128 137 142 146 148 155 152 158 167 177 173 173 178 180 181 181 180 183 181 174 177 187 192 194 194 200 194 191 191 184 179 175 144 133 121 117 106  99  85 140 167 164 185 183 182 174 174 158 151  97  39  46  40  63  56  50  21  41  13  29  22  89  98 108
  19   9   7  10  11  22  12   8  13  17  17  23  36  52  65  74  80  87  91  92  93  91 104 113 116 127 123 125 131 141 146 149 152 161 164 164 171 176 173 176 181 184 186 187 187 190 183 174 178 194 187 188 190 186 188 188 190 158 126  85  90  79  83  78  88  86  80  78  73 126 183 169 177 171 165 167 151 110  46  28  31  49  42  47  23  19   8  34  18  67  75  86
  14   7   7   9  13  23  19  14   9  16  14  27  31  55  71  66  74  79  86  89  92  90 103 109 116 112 120 118 127 133 143 144 149 155 156 164 163 174 177 180 185 190 190 190 190 184 191 184 185 191 186 186 174 175 161 123  80  40  52  49  45  53  53  65  63  77  85  70  89  69  97 168 174 168 163 161 147 110  48  20  33  64  37  49  26  18   9  22  21  55  61  73
  13  12  16  10  12  16  14  17   4  33  20  24  46  55  71  67  79  79  86  89  90  91 103 102 105 106 109 109 124 123 140 139 157 151 148 151 159 165 173 176 182 186 190 195 191 184 194 187 185 180 188 172 156 116  64  25  16  26  20  12  31  32  48  48  79  74  82 108 103  87  82 104 173 170 165 156 140 104  35  10  23  67  50  36  29  11  11  13  23  48  60  59
  13  14  22   8  14  20  15   9  21  18  41  28  40  46  69  71  65  86  87  83  85  89  92  96  87  89  81  97  83  75  85 104  95  85  90 131 133 155 166 175 175 182 184 189 186 185 189 187 185 179 179 158 115  52  39  25  27  36  32  19  31 103 103 122 139 148 143 120 115 101  91  96 156 168 163 139 125  75  27  14  15  69  70  39  27  17  10   9  26  49  57  59
   7  17  19  16  23   6   7   4  17   5  35  33  37  55  62  70  62  77  86  81  85  86  74  33  37  49  40  35  27  25  31  26  19  29  26  42  79 127 143 165 174 171 174 179 174 181 184 184 183 177 167 114  87  59  67  50  56  55 101 141 173 161 173 172 177 175 166 173 159 170 151 136 135 162 163 150 123  66  39  20  22  40  64  44  21  20  11   8  20  60  67  67
  11  26  25  23  26   6   5   4   5  17  13  20  39  59  63  60  68  74  84  76  74  69  26  28  29  21  28  31  41  38  37  25  16  19  16  25  57  83 121 139 154 163 166 167 168 181 178 180 172 169 154 138 104  95 107 124 137 156 165 165 177 189 186 192 188 183 186 190 187 193 182 181 166 169 167 155 101  75  23  16  22  42  54  48  16  19   7   9  22  76  73  75
  22  33  30  32  32  13   3   0   5  11  18  33  46  55  63  70  74  72  82  71  49  17  12  35  29  18  23  22  49  43  29  24  15  16  21  38  58  84  95 129 140 138 150 155 160 177 178 184 174 171 160 135 132 135 152 144 152 140 119  74  25   7  14   7   4   3   6   5   7   3   3   4   4  17  82 118 108  83  31   9  18  43  21  43  21  11   9   8  25  81  85  85
  27  43  40  39  27  16   3   3   1   5  20  26  51  50  57  76  76  74  73  58   9  33  27  33  42  45  52  54  72  74  75  70  77  93 101 100  93  94  92 111 120 136 145 158 164 178 182 180 180 167 159 144 140 100 112  89  65  11  17  28  56  90 107 118 112 110 119 125 131 118  88  33   0   7   0   1  60  29  16  31  14  25  22  29  31   8  12  11  27  81  90  87
  19  33  35  45  25  15   1   3   5   9  12  33  57  55  64  73  78  73  67  20  15  21  28  32  54  87 124 136 136 129 109  91  92  75  70  75  89  92  96  98 105 113 119 147 168 168 196 194 183 158  93  73  56  43  71  83 104 108 154 206  34  19  37  21  27  78  84  93 128 145 134 133 113   5   1   1   0  28  22  23  27   3  43  14  22  17   8  14  23  78  96  97
  18  34  34  34  29  20   0   0   5   9  28  28  56  59  71  70  75  74  50   9  22  23  62  57  23   1  21   3  60  92  68  48  71  92  27  18   9   4  13  18   8  28  64  96 147 182 178 146  57   7  66   2  84 126  97  89  71  96 133 106  78  53  34 143  65  18  58 105  96 115 109 104  84  55   0   0   8  40  32  21  36   5  29  13  27  14  16  16  15  69  97  98
  24  23  16  38  25  15   1   0   1   5  24  25  39  58  59  76  67  69  41  10  22   8   1  11  40  54  60  81  81 110 108 174 110 103  99  99  97  97  98  78  36   1   2   5   0  17  91   6   2   1  15 152 131 135 124  82 116  97  72  82  51  50  60 169 122  90  62  68  91  85  89  87  85  94   1   1   5  35  40  17  30   7  20  33  11  23  40  22  11  55  97  98
  23  11  17  28  14   7   0   0   1   5  11  10  20  48  59  75  60  16   1   4   2  42  66  63  65  87  84  84  66  51  54 230 130  99  80  84  82 102 117 114 112  91  17   0   3   0  26   6   6   0 102 180 162 158 126 121 105 112  49  42  58  49 119 121 119 121 113  97  91  84  88  93  97  83   0   6   0  89  18  15  22   3  19  29  25  11 105 108   7  39  92  99
  23  18  13  18   9   4   1   3   0   0   0  12  15  15  35  14   3   1   1   3  55  58  79  96 103  84  69  40  30  28  30  61  84 134  99  53  77  88  97 128 120 106  83   5   3   0  22   5   2   0 117 155 170 154 128 127 124 112 113 109 123 117 132 155 153 135 113 110 112 120 118 117 132 127   1   1 101  62  75  31  27  23  15  29  40   5 100 151  25  22  87  96
  28  20  12  10   7   3   0   0   0   0   1  27  32  31  31  20   3   1   1  71  54  80  91  98  73  61  29  55  61  42  43  58  57 104 131 108  69  60  96 118 124 103  92   1   4   1   7   1   0   6  93 168 158 160 153 140 139 142 137 147 155 158 152 148 146 150 135 124 125 139 149 154 155 162   4  15 179 117  60  58  53  30  32  29  49  18  83 139  56  22  81  98
  30  15   8   6   6   2   4   0   0   0   0  25  35  37  32  26   4   2   1  80  75  78  88  90  79  41  40  92  79  53  42  48  63 133 100  87  94 106 115 117 115  94  83   4  10 135 165 180 100   2  42 163 157 164 146 140 143 134 130 144 152 158 159 161 155 156 140 127 140 155 163 169 170 179   6  79 182 155  59  92  52  61  49  37  56  50  83 164  64  28  79 102
  27  20   8   5   7   2   3   2   1   0   0  28  32  34  37  27   1   1   0  81  70  75  83  84  67  55  70  79  88 101 100 112 109 141 138 115 112 116 128 124  95  94  65   2  90 146 172 183 213  32  25 173 162 158 157 152 158 158 171 170 171 171 171 170 164 165 160 143 154 183 184 175 175 182   8 123 172 173  72  31  42  55  36  39  42  89  97 181  71  30  68  98
  30  14   5   6   4  13   7  13   0   2   2  30  17  17  25  34   2   1   1  79  75  81  77  81  86  88  92  93  97 118 127 143 140 133 131 112 105 113 112  99  90  92  46   2 113 141 170 184 199 190   2 167 172 168 161 161 159 159 166 172 178 180 177 171 173 164 171 169 176 187 183 181 176 180   3 160 170 177 112  25  60  30  51  41  86 136 109 175  62  32  59 101
  15  14   9   5   1   8  14  12   0   1   3   8  10  35  52  47  19   3  13  86  92  92  90  98  95  98 103 106 110 119 126 133 141 142 141 127 118 117 108  98 100  86  26  10 108 131 165 184 190 190  32  60 178 173 179 171 169 174 170 171 174 177 179 179 177 174 175 179 172 190 193 189 188 185  17 188 177 172 126  32  25  31  35  38 137 164 105 184  41  38  53  95
  22   8   4   5   6   0  15  14  15   0  10  18  24  54  67  70  73  34   1  91  95  95  93 102 107 113 123 129 133 135 146 147 148 152 144 134 120 118 111 105 109  83   3  46 102 122 158 181 192 196 142   2 175 182 178 183 182 181 178 176 179 179 178 178 183 182 177 183 176 187 193 189 184 121  44 193 178 172 144  31  22  44  14  45 178 169 117 175  31  36  51 102
  12   4   3   3   1   2   3   8  21   0  19  22  26  59  76  85  78  70   3  70  88  92  97 110 119 124 130 138 141 146 153 153 151 155 151 134 123 123 116 112 112  75   0  83 105 115 148 178 191 194 194  13  58 183 182 185 191 185 184 183 183 184 185 187 188 181 182 185 182 190 198 187 196  62 160 186 180 169 148  24  14  19  23  34 170 180 134 143  24  40  54  97
   6   3   1   3   3   1   1   5  17   7  29  19  24  59  83  94  93  87  17  26  89  91 102 119 129 132 136 147 147 151 154 152 154 155 151 137 131 130 126 117 109  54  10  97 100 107 134 171 179 191 186 165   9 192 179 188 190 190 188 186 185 185 186 189 190 185 184 185 174 198 204 184  28  82 198 186 179 169 134  19  13   9  18  29 132 179 138 104  25  39  65 102
   3   1   0   3   1   3   8  12  21   3  11  16  23  60  82  90  95  87  60   4  98  97 112 128 135 138 141 149 149 157 159 157 155 152 157 148 141 134 123 120  95   0  75  98  93 108 133 165 182 188 193 179 106  10 169 190 185 188 186 184 183 183 183 187 188 186 178 177 197 150  47   7 132 204 195 186 174 166 124   7  13   7  35  59  80 196 143  64  30  37  63 104
   4   1   0   2   3   0   7  11  11   8   6  10  17  61  74  87  94  90  91   3 105  98 116 130 133 137 148 154 161 162 163 160 161 162 170 152 145 128 116 105  37   7 108  94  93 108 138 166 180 191 190 182 188  97   5  44 179 187 195 192 191 188 184 193 185 142  71   7   4  46 194 203 195 194 192 188 172 165  96   5  17  11  26  65 125 158 156  45  26  50  66  96
   1   2   1   1   0   2   4  17  13   2   5   4  16  55  73  90  93  88  90  29  64 117 107 119 128 132 144 154 154 157 164 166 164 167 163 142 142 126 109  62  13 103 104  93  96 107 137 163 184 191 189 189 178 175 117 105  40  23   5   5   3   4   5  17  34  64 126 186 219 207 206 198 197 196 190 187 172 167  65   8   7   6  39  88 131 161 172  48  25  44  74  95
   2   1   0   3   4   2   4  23  15   3   5   0   7  41  62  87  89  87  88  92  22  64 109 125 125 126 133 141 155 159 165 165 156 156 157 146 123 132  43  25  94 103  96  87  97 111 141 168 181 190 193 184 182 181 167 139 168 174 182 184 186 181 188 191 191 196 200 203 212 193 202 194 198 196 190 182 171 168  41  12   3   5  55  89 145 168 180  52  34  45  78  99
   1   2   0  10  12   2   5  18   6   6   0   0  12  27  54  82  87  90  93 102 100  48   6   6  11  62 120 136 133 135 133 112  75  65  78  68   8  54 113 107  89  97  90  89  92 110 141 170 181 190 194 184 186 175 184 163 165 174 178 177 180 185 184 191 191 204 195 200 207 197 196 200 198 190 189 174 172 168  28   7   3   7  56  87 166 160 187  55  35  62  92  98
   0   2   1  31   9   5  10  10   2   2   2   4  15  15  46  67  80  84  90  99 104 107 112  91  81  65  55  53  46  48  58  74  97 123 146 145 146 140 130 103  86  96  96  90  96 117 144 167 185 194 201 192 187 180 186 184 161 168 172 173 179 187 188 196 199 201 199 203 205 204 202 198 195 189 178 175 166 166  10   2   2  14  70 150 155 159 179  27  47  81  99  99
   0   2   0  33  26   6  25   8   2   1   1   2   8  21  43  62  73  75  82  96 104 109 118 119 126 128 133 140 157 169 172 173 177 175 163 149 142 140 126  93  89 100 104  94 104 115 139 170 181 193 204 192 185 180 178 184 176 184 178 169 170 179 184 191 198 203 201 202 200 201 200 195 195 185 173 172 168 155   1   6  10  11  74 127 154 159 141  24  56  94 105 103
   3   1   1  42  27  22  23   2   1   2   1   6   5  61  32  55  70  71  80 100 106 108 106 120 130 135 140 149 159 166 173 170 173 171 159 147 146 147 128  97  95 107 102  98  98 108 126 159 184 185 193 184 175 175 170 174 181 195 187 174 164 169 177 184 194 197 199 199 195 196 196 195 193 184 172 172 175 138   2   3  14  26  31  95 122 170  78  12  71  93 103 108
   2   2   1  25  34  33  32   5   1   3   2   2   5  77  60  54  69  69  74  98 105 106 109 119 128 134 136 153 159 169 172 174 171 170 156 147 144 140 134 101  92 105 107  97  90  99 113 136 166 174 177 169 170 141 118 157 192 201 195 179 163 158 167 170 183 189 191 196 193 191 187 183 189 185 175 172 172 135   4   5  39  33  74  49  90 122  21  28  86  98 106 106
   7   2   2  19  77  41  31   8   1   1   0  11  27  47  84  45  67  72  74  88 101 102 107 116 126 133 139 148 160 167 172 174 173 168 145 141 144 141 133 116  84 104  90  86  82  92  98 126 143 152 161 165 156 149 174 194 199 194 193 189 177 166 160 169 180 185 189 177 173 198 191 193 189 184 177 176 171 125  10   7  43  65  73 132  83  32  20  46  88  99 108 112
   3   3   1  10  92  41  32  16   1   2   3   7  19  28  74  73  64  68  77  84  94  98 107 113 117 122 136 142 160 163 166 170 169 163 134 134 139 136 134 123 120  88  75  95  92  75  79 105 121 131 149 153 165 169 187 186 194 193 191 194 186 178 173 175 178 180 182 185 191 193 192 188 186 184 178 176 167 133 170 146 139  97  98  87  36  11  28  76  99 106 109 109
  11   7   1   1  68  65  27  27   0   4   3   5  23  11  21 100  43  66  76  81  90  96 103 108 109 120 136 144 157 159 161 164 163 152 127 131 135 130 132 122 118 114 110  95  92  85  74  83 111 126 144 149 166 181 182 187 190 189 190 194 189 187 180 177 185 187 185 188 187 196 196 187 189 182 180 178 169 125 170 182 176 157 104  15   7  24  46  86 108 109 112 112
  12   3   4   5  23  32  22  23   4   1   0   9  13  14  10  79  52  78  77  82  89  90 100 105 111 116 130 141 152 155 159 162 153 140 129 134 133 126 126 114 106 109 110 107 105  99  93  84  88 107 135 159 177 186 185 189 185 186 191 187 188 184 182 180 183 191 193 186 184 184 194 173 187 183 180 174 162   4  23  41  38  12   2   7  14  30  81  88 113 109 111 113
  44   9   9   8   7  30  54  19   5  25  22  39   8  13  13  26  87  66  72  80  87  90  98  98 105 108 123 138 140 150 157 155 150 147 141 137 130 127 119 114 104 108 115 122 131 138 142 136 133 139 159 183 187 185 189 183 184 188 191 186 186 182 180 179 178 189 193 196 190 195 191 185 173 180 180 173 151   3   8   4   6   9  10  10  25  37  92 107 112 113 111 113
  41   9   4   6   4  17  32   8  50  81  40  60  30   3  34  71 104  62  66  82  86  89  99  97 103 106 114 122 136 147 152 150 152 152 155 147 132 124 122 129 124 125 128 132 141 161 172 170 165 153 167 184 183 186 194 188 191 189 188 191 182 186 183 180 183 179 195 198 194 188 198 192 178 182 181 172 124   8   7   0   4  18  17  18  27  52  93 117 115 111 112 110
  84  11   7   1   7   1  16  54 106  76  55  87  42   5  20  86  93  78  65  76  92  90  95 100 105 106 115 118 142 151 156 155 150 159 153 145 130 123 120 121 122 126 130 136 148 145 162 166 175 170 165 165 164 165 168 169 175 176 185 186 178 165 186 185 187 176 194 199 196 191 196 190 190 186 178 176  60  12   6   9  12  19  24  32  20  65 109 113 111 112 112 113
  96  34   2   0   1   6   5  66  95  94  87  93  19   9  25  70  99 112  65  78  87  90  96  99 106  97 109 117 137 154 161 150 152 156 148 140 128 123 116 120 126 131 124 117 118 113 119 127 143 144 140 145 156 157 164 162 155 146 137 122 102 119 167 181 188 183 196 200 201 196 195 182 187 181 175 184   2   5   4  13  15  30  37  33  32  76 107 113 113 113 112 112
 105  84   2   2   1   2   0   5  63  91  85  68  25  14  44  82  87 128  81  69  86  89  96  99 104 103 105 122 130 150 166 152 158 158 139 125 113 112 113  98  98  95 108 113 111 118 119 123 139 137 143 152 148 146 137 122 119 116 111 103 145 177 184 186 186 186 197 199 198 192 194 183 183 178 174 167   2   3   8  11  13  20  38  33  41  80 106 112 113 112 111 111
 118 102  13   6   0   0   4   0   1  12  61  51  13  26  61 102  95  93  51  68  90  94  93 103 102 108 111 116 123 157 172 152 164 157 134 113  87  83  75  73  72  78  91  92  88 107 112 123 121 120 123 122 102 134 145 156 156 144 143 170 186 193 191 193 196 195 200 200 199 189 183 190 185 174 173 110   0   3   4   8  19  29  27  25  47  89 108 111 114 112 111 111
 121 110  80   2   2   1   0   3   3   2   2   6  17  24  48  94  76  11   2  75  80  88  90 102 108 111 111 116 122 157 172 166 163 169 153 133  77  52  40  52  62  64  71  77  83  85  94 105 110 115 141 149 164 171 171 162 158 170 178 188 194 195 197 199 199 198 197 195 198 190 187 189 181 181 174  32   1   0   1  15  22  31  31  36  49  98 109 113 112 113 112 112
 121 120 111  50   0   1   2   0   0   0   2   1   1   0   0   3   0   1   1  43  78  90  89 100 109 115 111 114 118 148 171 177 164 171 159 153 135 117 100  86  83  83  91 104 113 116 131 145 163 165 164 168 170 175 160 172 180 188 192 195 199 197 199 202 200 196 190 190 195 188 186 178 179 174 171   3   1  14   1   7  21  24  34  38  46 101 104 113 113 113 112 111
 122 116 113 100  22   0   1   1   0   1   0   1   0   1   2   1   1   0   2   9  74  78  89  97 106 115 110 106 112 132 162 178 170 165 166 152 134 113 115 113 110 101 102 108 114 129 142 150 158 160 163 171 169 176 180 186 188 190 192 193 197 199 199 199 201 198 192 192 187 183 185 183 173 173 128   5   9   8  11   6  17  18  24  32  33 107 109 112 111 110 109 111
 123 117 117 115  78   1   5   0   0   1   0   1   1   0   2   3   2   0   0   1  51  74  80  86 105 107 119 108 108 121 146 168 173 168 161 155 150 130 119 115 117 117 128 137 138 143 151 150 160 161 165 171 178 181 181 188 189 196 198 198 199 200 201 200 201 197 193 192 185 182 183 175 177 181  15  10   8  17  27   9  13  18  14  32  41 104 109 111 112 112 112 110
 122 120 118 114 108  42   2   3   1   0   0   0   0   0   1   4   1   0   2   1  42  57  77  83  95 113 114 114 109 115 133 160 172 167 159 152 145 144 131 118 117 125 129 137 146 156 156 154 161 161 160 173 176 176 187 191 194 200 200 200 201 201 200 199 200 194 190 191 187 186 182 174 172 144   6  14  24  27  43  18  13  12  19  37  58 101 108 109 110 112 112 112
 123 117 122 115 118 102  31   6   1   0   0   1   2   2   1   3   0   1   1   0  50  40  74  83  85 104 113 112 109 111 122 139 157 163 157 150 140 137 138 132 126 123 129 136 148 158 165 161 160 167 160 161 167 182 180 190 199 199 195 197 200 201 202 197 196 193 191 185 186 183 180 175 171  27  15  13  28  45  47  32  12  12  25  31  76 106 112 111 113 112 112 112
 124 122 119 118 116 119  87   9   6   1   0   0   0   0   3   3   3   2   1   1  36  54  45  75  81  92 105 115 111 109 114 126 145 157 152 149 136 132 141 139 134 133 131 140 143 155 161 164 159 162 164 171 176 175 186 191 197 198 198 198 201 203 198 200 198 195 190 186 185 183 179 174 147  22  12  22  45  49  57  47  15   8  15  29  93 110 110 113 114 113 114 114
 124 121 120 118 115 114 119  43   2   1   0   0   0   0   4   3   3   3   1   4  23  87  34  51  70  84  92 103 111 108 113 120 126 132 141 143 137 136 142 142 141 137 141 146 154 163 169 172 169 175 179 172 180 183 189 192 196 201 194 198 201 199 194 198 193 194 191 182 181 180 179 155 125  22  26  25  54  44  60  52  20   7  12  46 100 112 111 113 113 114 113 114
 124 121 120 118 117 119 118  94  14   3   0   0   0   0   3   3   3   1   2   7   7  81  58  51  61  82  86  93 104 105 109 116 118 124 134 136 135 137 139 143 144 138 145 127 132 160 172 180 180 184 185 186 191 191 196 199 202 202 198 201 200 199 196 198 191 189 184 182 185 175 161 150 127  18  22  37  49  39  37  51  22   4   5  85 104 113 113 113 114 114 114 114
 122 121 120 118 115 118 118 114  53   0   1   1   0   0   0   0   3   2   0   1   1  72  82  49  37  71  71  84  96 106 106 110 112 115 124 128 127 136 139 145 144 147 148 147 151 162 177 182 187 185 186 194 199 193 197 204 205 202 195 204 203 196 199 198 188 187 185 181 180 167 146 176 130  10  17  43  31  49  48  42  29  21  44 105 105 112 113 113 110 111 114 115
 123 121 121 118 119 114 112 108 108  25   1   1   0   0   0   0   3   3   2   1   0  43  97  65  51  54  72  77  82 101 105  92 106 112 117 122 129 136 135 144 150 157 155 155 162 166 172 173 184 190 188 190 185 161 197 201 202 204 201 202 201 196 196 196 185 186 180 176 167 139 165 179 137   8   9  15  16  30  63  34  38  36  59 104 114 113 115 112 113 113 113 114
 123 121 120 118 118 116 115 117 117  74   3   0   0   2   0   0   3   3   2   0   1  17 103  88  68  47  54  70  75  85  99  97  80 104 107 113 122 131 122 147 152 156 160 157 155 163 173 182 181 189 188 188 189 197 204 205 206 208 206 203 203 199 199 197 187 181 179 168 150 146 190 183 146   8   6  11  18  20  44  55  34  39  91 104 114 114 116 114 113 115 114 112
 123 121 118 119 116 117 114 116 120  76   3   1   1   2   0   0   2   1   0   2   1   1  89 109  85  75  47  53  70  75  83  89  91  97 103 104 114 124 127 141 147 154 154 154 158 163 176 186 192 191 194 193 190 198 204 207 207 202 203 199 201 199 196 194 183 177 173 151 133 185 191 183 166   1   9  13   6  17  35  67  61  76 109 113 116 115 116 114 115 114 115 114
 123 121 119 118 116 115 115 117 119  91  31  13   1   1   1   2   3   1   0   1   2   0  34 104 103  96  73  53  58  66  75  84  90  93  95 102 109 113 119 133 141 148 146 147 155 170 179 184 192 199 198 189 187 196 201 203 205 204 202 197 196 198 193 186 177 171 145 138 162 194 197 187 167   2   7   6   7   8  19  86  95 112 110 117 115 117 116 116 115 115 115 115
 122 121 118 118 117 116 116 118 121 102  83  45   1   1   1   2   1   2   2   5   7   2   6  99 112 108 100  73  58  52  67  71  82  88  90  99 103 113 116 126 128 141 145 149 158 168 179 183 193 199 188 185 190 197 200 201 202 206 202 192 194 195 182 176 168 144 139 151 185 197 194 189 160   1   1   4   9  11  16  17  94 105 111 113 117 115 116 116 115 115 115 114
 120 121 118 117 119 117 117 116 115 115 106  94   6   0   2   3   1   2   4   8   4   4   1  29 111 114 118 110  88  60  56  59  67  74  79  88  90 102 106 112 122 134 140 146 155 161 170 181 181 195 187 170 182 190 193 196 199 195 195 185 187 186 174 167 138 137 152 161 193 196 192 188 154   1   0   7  12   7   5  15  23 110 114 115 112 115 115 116 114 114 115 113
 123 120 119 120 118 117 117 117 117 117 114 106  20   1   6   0   1   1   3   2   1   2   3   1  71 122 124 122 117  87  64  54  61  58  72  76  80  86  96 107 116 122 130 137 147 157 160 173 182 189 188 183 178 186 187 186 187 184 181 186 181 176 170 133 137 153 153 179 199 199 195 190 136   1   3   7   4   4   7  13  13  69 115 112 116 112 114 114 116 117 117 117
 123 121 120 119 119 118 117 116 117 118 116 112  49   1   1   3   1   3   2   2   5   8   4   5   2 125 122 128 130 115  96  66  61  58  52  60  69  75  80  89  99 107 117 125 135 149 156 167 172 183 182 179 178 178 181 184 180 177 177 172 165 157 126 140 155 154 165 194 205 203 198 191 128   2   7   4   3   7   9  15  21   3  71 112 117 115 115 115 116 117 117 118
 123 121 122 120 119 120 118 118 117 118 118 118  97  40  11   0   0   2   2   3   5   6   2   3   2  26 134 133 140 129 112  89  71  67  64  57  54  61  64  76  86  95  98 107 121 137 134 151 162 166 166 169 166 167 165 167 166 171 169 160 140 117 140 151 158 159 180 198 206 204 198 192 118   2   1   1   9  10   9   6   8   8  22 109 113 112 113 115 117 117 117 116
 123 123 121 121 120 120 118 118 118 119 119 122 112 100  71   0   0   6   3   1   3   2   4   5   8   1  70 138 140 133 137 116  91  77  73  71  64  52  48  55  67  81  88  90 103 117 125 130 144 143 157 155 151 153 148 154 156 145 132 113 115 138 153 157 157 172 194 204 203 203 199 190 114   1   1   5  10   4   7   7   9   9   6  94 111 117 117 117 116 116 117 117
 124 124 122 122 121 121 118 119 119 119 118 116 117 111  56   1   0   2   2   1   3   1   5   6   3   9   0 105 146 143 140 132 114  96  79  80  86  83  67  55  45  55  62  68  79  86  97 105 117 120 129 134 132 130 122 114 103  92  96 114 145 159 165 160 168 186 200 205 206 202 200 193  82   4   1   8   5   2   9  11  14  17  13  30 120 118 117 119 116 116 116 118
 123 125 123 123 122 122 120 121 119 118 118 118 122  65  31   1   0   0   2   2   1   1   5   4   2   1   5   5 120 144 144 141 133 117  99  84  86  91  90  81  72  58  54  51  50  54  60  67  70  75  78  82  83  81  80  85  94 115 133 157 177 171 171 167 182 193 203 206 207 201 198 190  82   0   8   4   4   9   9   7   7   6  11   8  85 118 117 118 117 117 118 119
 124 125 125 123 123 124 122 121 122 119 117 123  76  28  36   4   0   0   1   1   1   4   5   3   4   3   3   2  29 144 152 149 146 136 118 100  97  89  97  94  89  87  79  72  68  62  62  63  67  70  72  85  89  93 109 123 146 159 172 179 182 176 175 180 191 201 206 207 204 201 196 187  54   3   4   4  10  10   4   7   9   8  17  14  59 118 117 118 117 118 118 120
 127 126 125 126 125 124 123 123 121 121 117 109  28  45  34   1   1   2   0   2   1   3   1   3   2   6   7   8   8  46 158 159 151 141 139 123 111 100  99 103 107 107 108 103 102 102 101 103 106 112 118 128 138 152 166 174 180 185 188 187 186 184 179 186 197 204 206 207 205 203 194 179  37   0  17   6   7   4   8   9  12  17   8  14  38 116 115 118 120 118 118 119
 129 127 125 125 125 124 123 120 122 118 119  69  41  37  60   4   3   0   1   2   2   1   2   3   3   4   6   5   2   1  83 150 156 147 151 143 130 119 109 106 113 118 126 134 142 145 150 153 156 160 163 169 178 185 188 196 198 200 198 194 192 189 184 194 202 204 206 205 205 200 189 177  23   1   6   5   3   9  10  10   7   4   7   7  12 104 114 118 118 118 118 120
 129 129 126 126 126 126 124 124 123 123 107  44  34  56  50  10   0   1   1   2   2   1   1   4   7   2   3   3   5   3  12 110 143 157 156 155 145 133 124 115 115 122 130 143 154 159 166 170 171 177 184 188 194 197 200 205 203 204 203 198 193 189 186 196 201 206 205 204 200 195 186 173   9   7   5   4   7  13   5   7  10   6  18  11   6  81 118 118 119 120 122 120
 127 129 129 127 125 123 126 125 121 108  47  28  53  54  50  22   0   0   0   1   1   2   1   3   2   2   6   8   9  12   8   4 102 167 167 168 158 146 132 127 124 123 126 138 149 157 166 173 182 185 197 203 204 204 206 207 209 205 205 200 196 187 187 200 203 205 205 205 200 194 183 155   3   0   6  11   6  10  15   9  12  14  18  26  14  74 110 120 117 119 120 122
 129 129 128 127 126 131 116 125  83  40  41  38  54  47  55  34   0   0   1   1   1   0   3   4   3   2   4   9  11   6   3   3  12 165 178 179 164 162 144 134 126 125 128 133 140 150 160 168 180 193 202 207 206 205 204 208 208 207 205 200 193 183 186 201 206 205 205 199 198 192 188 114   2   0  14   5   5  10  11  12   4   8  10   9  14  71 113 117 119 119 120 120
 129 129 129 127 129 121 127  66  28  39  32  33  44  45  69  43   0   0   1   1   1   3   1   2   2   2   5   9  10  10  11  10   3  40 182 180 179 166 153 139 127 123 125 128 132 141 155 164 175 191 201 210 209 210 209 212 210 205 200 193 187 182 189 203 205 202 201 199 192 193 178  74   1   4   3   4   9   8  12   5   9   8  13  11  13  32 112 120 119 121 122 124
 128 129 127 130 127 122  53  43  40  49  33  33  43  50  61  60   2   4   3   1   1   1   1   2   1   3   6   8   5   4  10  12  21   9  23 165 176 170 157 146 133 120 124 124 127 137 147 154 165 182 202 212 211 211 214 214 211 201 193 187 183 182 190 201 202 202 198 195 196 187 161  65   2   0   5   5   7   8  10  11  11  14  19  16  15  41 109 116 117 120 123 123
