P2
# Generated by OpenCV 4.2.0
92 112
255
 246 245 246 246 246 247 246 246 246 245 246 246 246 245 246 246 246 246 246 246 246 246 246 246 246 243 244 244 244 244 244 246 246 246 243 244 244 244 244 245 245 244 244 244 244 244 244 244 244 244 244 241 242 241 241 242 241 240 240 240 241 241 241 242 241 241 240 241 241 240 240 241 241 241 240 240 240 240 240 240 240 239 238 238 237 236 241 236 232 204 109  55
 246 245 246 246 246 246 246 246 246 245 246 246 246 245 246 246 246 246 246 246 246 246 246 246 246 243 244 244 244 244 244 246 246 246 243 244 244 244 244 244 243 244 243 244 244 242 240 241 241 241 241 242 242 240 241 241 242 240 241 240 240 241 241 241 240 241 240 241 241 240 240 241 241 241 240 240 240 240 240 240 240 240 238 239 238 238 231 185 117  64  33  43
 246 245 246 246 246 246 246 246 246 245 246 246 247 245 246 246 246 246 246 246 246 246 246 246 246 243 244 244 244 244 244 246 246 246 243 244 244 243 244 244 244 244 245 244 244 242 240 239 240 240 240 242 242 240 241 241 241 240 241 240 240 241 241 241 240 241 240 241 241 240 240 241 241 241 240 240 240 240 240 240 239 240 240 240 238 234 167  51  26  21  20  27
 245 245 245 245 245 245 245 246 246 245 245 245 245 245 246 246 246 245 245 245 245 245 246 246 246 243 244 244 244 244 244 246 246 246 243 243 243 244 243 244 244 244 242 242 243 241 240 242 241 241 240 241 242 240 241 241 241 241 241 240 240 240 240 240 240 240 239 240 240 239 240 241 241 241 240 240 240 240 240 240 240 240 239 239 238 221  65  25  24  25  22  92
 246 246 246 246 245 245 246 246 246 246 246 247 246 246 246 246 246 245 245 245 245 246 246 246 246 243 244 244 244 244 244 246 245 246 243 244 243 244 244 243 242 243 242 242 241 241 241 241 242 242 242 240 241 240 239 239 242 239 242 240 241 240 240 241 239 240 240 241 241 240 241 241 241 241 240 240 240 240 240 240 240 240 237 239 240 226 110  65  65 119  44 186
 246 246 245 246 245 245 246 246 246 246 246 246 245 246 246 246 246 245 246 246 245 246 246 246 246 243 244 244 244 244 244 246 246 245 241 243 243 244 243 243 243 243 240 239 239 239 234 238 240 245 242 241 241 240 243 241 242 240 241 240 240 240 240 241 241 241 240 241 241 241 242 241 241 241 240 240 240 240 240 239 240 240 240 239 239 238 225 167 189 176 166 230
 246 246 245 246 246 245 246 245 246 246 246 246 246 246 246 246 246 245 246 246 245 246 246 246 245 243 244 244 244 244 244 245 245 242 242 243 243 243 244 241 241 242 237 235 236 231 235 241 239 246 241 240 240 240 240 242 243 242 241 240 239 240 240 240 241 241 240 241 241 241 241 240 241 241 240 240 239 239 240 240 240 240 240 239 239 237 237 235 232 235 235 236
 246 245 246 246 246 246 245 245 245 245 246 245 246 245 246 246 246 245 246 246 245 246 246 246 246 244 245 245 245 245 245 246 243 243 245 239 241 242 242 244 239 244 219 199 167 152 114 100 126 183 221 230 238 217 235 244 245 241 242 241 241 240 241 242 240 241 241 241 240 240 241 241 241 241 241 240 238 238 240 241 239 238 238 238 239 238 238 236 238 238 238 239
 246 246 245 246 246 245 246 246 246 246 246 246 246 244 246 246 246 245 246 246 245 246 246 246 245 246 244 245 246 247 246 245 243 241 237 242 244 245 233 231 202 110  78 127 141 174  99  72  72  42  37  68  68  93 129 168 242 240 240 243 243 242 241 241 241 241 241 241 240 239 240 242 241 241 240 240 238 238 240 239 238 238 238 239 239 238 239 237 237 238 238 239
 246 246 246 246 246 246 246 246 247 246 246 247 246 245 247 246 246 245 246 245 245 246 246 246 246 245 244 246 246 244 246 243 237 244 239 238 210 165 154  60 106 186 159 144 117  32  25  25   9  17  18  15  15  17  43  42 158 220 227 240 240 239 234 239 240 240 241 241 240 240 241 242 241 241 240 240 238 238 240 239 238 238 238 239 240 239 239 237 237 239 239 236
 246 246 246 246 246 246 246 246 246 246 246 246 246 245 245 245 246 245 246 246 246 246 246 245 246 246 246 245 245 245 245 246 244 218 165 144 167 150 102 141 137  92  64  46   9  10   5  18  23  11  11  11  10  11  17  30  39  54  52  91 191 237 234 239 237 240 239 240 240 240 240 241 241 241 240 240 238 238 240 239 238 238 238 239 240 239 239 237 238 239 239 237
 246 246 246 246 246 246 246 246 246 246 246 246 246 244 242 242 243 243 242 243 243 245 245 245 245 246 245 242 241 231 197 173 147 112 114 140  54  36  42  48  65  35  16  15   3   0   1   7  18  14  14  11  11  11  20  21  27  29  41  88  48 187 234 239 242 240 239 241 241 240 241 241 241 241 240 239 238 237 240 239 238 237 237 238 239 240 240 237 238 236 236 238
 246 246 246 246 246 246 246 246 246 246 246 246 246 244 244 244 244 244 244 243 242 246 245 244 245 245 246 233 165  97  97  80  51  68  43  32  57  30  26   7  14  13   3   4   2   7   8   7  10  15  14  12  13  13  19  21  20  39  12   9  44  98 194 230 233 239 239 240 240 240 240 241 240 241 240 240 238 238 240 239 238 237 238 239 239 240 240 237 238 237 237 238
 246 246 246 246 246 246 246 246 246 246 246 246 246 244 244 244 244 245 244 242 242 245 244 244 244 237 178  83  70  67  45  37  44  43  21  24  27  12  16   4   9   8  10  17  21  21  19  19  13  11  11  14  12  11  16  26  26  18  15  16  59 104 179 188 206 224 233 239 240 240 240 240 241 240 240 240 238 238 241 239 238 238 238 239 238 240 240 237 237 238 237 238
 246 246 246 246 246 246 246 246 246 246 246 246 246 244 243 243 243 243 243 244 243 245 245 239 249 148 107  41  36  31  31   5  21  32  21   8  17  10   6  13   9   8  10  17  20  20  19  21  14  11  12  16  21  24  21  16  49  30  17  18  30 135 141 166 194 204 210 229 239 240 240 240 240 239 240 240 238 238 240 237 237 237 237 238 239 240 240 236 237 237 238 238
 246 246 246 246 246 246 246 246 246 244 242 243 242 242 243 243 243 243 242 244 243 244 245 232 128  61  29  32  26  33  55  40  19  15  15  16  12  10   8  12   4   2   9  20  20  11  13  11  18  13   9   6  10  17  23  26  30  55  33  17  24  77 129  95  95 122 119 151 166 209 230 238 239 239 238 237 238 238 240 240 240 237 237 237 237 237 236 238 238 237 237 237
 246 246 247 246 246 246 246 245 246 244 243 243 243 243 244 243 243 243 242 242 243 245 224 126  45  27  27  34  14  17  23  37  20  17  12  13  13  13   6  11  11  11  11  19  19  18  13  14  19  23  18   8   4   2  15  23  32  19  34  27  27  44  47  46  53  69  80 104 110 126 158 201 235 234 235 236 238 238 240 239 239 238 238 238 237 238 238 238 238 237 238 238
 246 246 246 246 246 246 246 246 244 245 243 243 243 243 244 242 243 237 247 241 242 164  88  48  34  20  24  51  23   9  23  24  20  13  11   9  10   4   6  14  13  13   9   8   9   7   9   5  13  26  28  30  28  10  13  30  30  40  48  26  23  27  32  25  40  20  18  26  41  64  89 105 163 229 235 236 236 238 240 238 239 237 238 238 237 238 237 238 238 237 238 238
 246 246 246 247 245 245 245 243 242 242 243 243 243 243 242 243 243 253 237 156  64  32  34  51  54  13  12  14  22   9  10  13  10   8   7   6   5   3   0   7  11   8   3   2   2   4  15  34  35  32  26  21  25  23  16  18  35  47  42  52  18  10  16  22  24  24  23  12  13  18  25  44  81 145 221 234 238 238 239 239 240 238 237 237 237 238 238 238 237 237 237 237
 246 246 246 246 247 243 243 242 243 243 243 242 243 242 240 247 237 227  86  34  36  29  28  33  38  19  17  18  20   6   1   0   5   5   5   3   4   4   4   3   7  10   2   3   4   3   9  14  35  42  36  21  28  38  33  14  48  30  38  36  34  25  18  18  26  27  32  34  27  29  29  28  33  53 133 220 234 239 236 237 239 238 238 238 237 238 238 238 238 238 238 238
 246 246 246 246 246 243 243 243 243 243 243 243 243 243 240 236 198  54  49  25  23  13  21  19  13  10   6   8  11  10   4   6   0   8   4   3   4   2   3   2   2   4   3   1   3   1   3   9  21  14  23  36  31  49  64  53  44  33  37  50  36  33  36  34  29  27  27  25  37  38  33  35  36  40  49 124 222 237 236 238 239 238 238 238 237 238 238 238 238 238 238 238
 246 247 246 246 243 243 243 242 243 243 243 243 243 242 244 204  45  19  44  27  22  24   8   7   6   4   6   6   7   9   9   9  14  13   3   4   4   4   4   3   3   2   4   3   4   3   2   1   5  13   9   9  16  17  17  23  20  30  25  39  39  31  16  19  65  50  40  21  15  21  29  38  41  43  48  51 129 234 239 238 238 238 238 238 237 238 238 238 238 238 238 238
 244 244 244 244 243 243 243 243 243 243 243 244 242 247 225  60  37   7  31  37  20   9   9   4   6   4  10  11   7   7   9  14  12  10   4   4   4   3   7   7   3   2   1   3   5   3   4   4   2   6  12  11   9  11  21  23  21  12  17  19  28  28  27  17  22  33  29  31   8   5  10  20  20  30  45  39  63 155 236 235 238 238 238 238 237 239 239 237 236 236 236 236
 243 243 243 243 242 243 243 243 243 243 243 241 242 241 104  93  65  30  59   8   9   6   3   6   5   8   8  17  13  15  21  23  16  11   7   8   6   6   7   7   9   3   3   4   4   3   2   3   4   3   5  12  18  28  18  25  34  34  10  12  14  24  32  27  15   9  16  28  18   4   4   5   7  16  41  49  51  68 192 236 236 238 239 240 239 240 239 236 235 236 236 236
 243 243 243 243 243 243 243 243 243 243 243 241 235 183  69  66  62  26  12  13  11   7   6  10   9  11  11  15  18  21  19  13   9   8  10   4   3   3   9   6   7   5   4   6   5   6   2   1   3   6  17  25  21  35  44  42  34  50  52  34  15  21  15  19  18  11  13  27  29  15   5   5   9  11  15  23  40  45  93 214 231 236 240 239 239 240 239 237 237 235 236 236
 243 243 243 243 243 243 244 243 244 242 243 244 240  89  49  42  26  18   7   0   0   7   8  12  22  18  18  14  14  12  12  13   9  12  12   7   4   4   7   7   5   5   7  10  12  12  10   5   3   3   1   5  36  48  36  13  10  18  28  41  44  33  27  15  10  16  15  27  37   9   7   6  11   9  10  10  21  32  46 148 229 233 242 238 238 240 239 237 238 236 236 236
 244 243 243 243 243 243 243 243 243 243 245 240 212  77  48  26  20  13   7   5   5   6  10  21  16  17  12  14  14  13  14  11   9  10  18  10   7   7   7   7  13   9   7   6   6   7  12  14   9   5   4   4   3  12  13  10  11   4   9  14  17  21  27  21  15  11  10  26  47  17  10   4   4  10  10   9  16  25  33  60 175 233 237 238 237 239 237 236 235 235 236 236
 243 243 243 243 243 243 243 243 243 242 243 240 180  49  31  15  14  12   8   4   4   7  11  20  15  17  11  12  12  14  12   8   7  11  11  12  10  11  12  23  16  13   8   6  10  20  24  19  20  26  19   8   4  10   9  10  11   8   4   7  10   9  12  10  11   8   3   4  16  11   9   4   5  10  17  19  19  15  22  31  62 207 240 237 237 238 238 237 236 236 236 236
 243 243 243 243 243 243 243 243 243 242 238 202  79  25  24  18  16  14  10   9   6   6  11  16  22  19  19  18  15  16  21  16   9  11  12  16  16  17  28  36  26  15  10   8  11   7  13  14  21  26  25  25  18  12   3   7  12  13  13   8   9  12  11  12  18  26   8   5   4   5   2   4   3   8  15  22  27  12  11  19  29  89 221 236 236 237 237 236 236 236 236 236
 243 242 243 243 243 243 242 243 241 242 227  92  49  28  17  18  14  11  11  12   9  11  18  20  27  25  25  25  23  25  28  18  13  15  17  21  26  31  49  43  36  24  14  11  12  15  15  10  11  19  26  21  26  27  14  10   5  15  33  28  18  25  23  21  24  31  40  25  15  12   4   4   2   8  16  21  33  27  11  13  24  31 121 232 237 234 234 237 237 237 237 236
 244 242 243 241 241 242 241 242 243 241 102  40  31  20  11  15  12   4   4   7  11  14  18  34  36  30  29  30  26  28  22  25  28  23  21  21  42  38  69  74  52  37  18  16  18  22  14  13  16  14  13  17  16  21  22  15  13  14  23  34  30  31  27  27  22  36  21  25  26  37  10   4   4   9  19  26  31  37  27  14  22  24  49 174 230 234 235 235 236 234 236 236
 243 243 243 243 243 242 241 241 238 181  35  22  31  15  12  12   7   4   5   4   5  13  32  43  33  35  36  37  26  34  29  30  34  27  34  23  53  50  60  81  78  61  34  18  19  17  13  21  22  19  21  23  24  25  24  17  20  27  21  24  34  35  29  28  23  19  18  10   9  10   1  11   3   8  12  20  26  29  29  22  21  24  35  70 211 235 234 237 237 235 236 236
 243 243 243 243 243 243 241 241 246  78  26  26  30  15  12  11   5   3   5   5  11  30  48  44  40  49  37  50  29  33  26  30  36  36  47  38  57  89  60  78  88  97  59  29  27  15  13  18  24  32  25  22  18  22  26  24  25  25  26  23  28  34  37  34  29  24  10  15   5   6   4   3   4  21  17  27  24  29  31  32  24  21  28  47 156 225 234 235 235 236 236 236
 243 243 243 243 243 243 242 242 200  28  26  25  29  13  11  10   5   0   6   9  14  50  48  46  53  73  60  62  36  19  30  38  37  33  61  62  53 107  71  78  76 104 112  45  22  37  38  30  28  32  27  28  33  31  23  23  25  24  25  26  32  45  42  40  47  29  14   5   5   8   4   5   5  12  43  37  22  30  44  30  21  16  21  44  68 231 233 236 236 236 236 236
 242 243 239 240 240 239 243 242 148  25  24  19  28  18  13   9   3   2   9  13  38  67  46  64  69  85  62  73  72  39  25  34  44  48  40  87  58  83 100  96  83  97  95  83  27  30  32  52  36  22  12  16  26  23  22  29  27  26  25  21  28  44  42  38  50  62  38  15   6   6   6   6   4  12  31  55  41  32  42  32  23  18  22  29  61 194 230 235 235 236 236 236
 243 243 240 241 241 240 242 243  94   9  19  15  29  18  11   8   6   7  12  24  41  44  60 101  85  83  64  70  87  77  32  24  37  64  46  67  98  76  96  97 132  82  89 100  67  33  37  50  49  29  18  18  12  25  24  31  31  20  22  23  26  36  45  37  37  47  41  29  11   6   5   6   6  12  14  17  42  32  25  37  29  18  20  29  33 160 232 235 235 236 236 236
 243 243 240 241 241 240 241 244  67  15  22  13  24  14   9   6   6   5  13  17  26  47 102 119  97 118  69  55  84 103  75  27  30  47  62  52  83  92  98 107  87  98 111 122 114  61  42  73  82  52  43  38  51  52  40  70  70  36  34  32  29  37  35  32  51  52  36  36  24  11   7   5   7   7  14   6  14  37  25  33  25  19  18  24  32 102 227 234 236 236 236 236
 242 242 240 241 241 241 240 244  58  13  25  12  16  11   9   6   6   6  10  21  24  80 120 127 123 141 130  77  47  70 104  61  29  39  61  45  44  65  82 115 101  87 109 112 124 110  52  46  52  74  74  61  64  69  62  62  92  58  40  40  38  41  39  33  29  76  50  34  32  20  16   8   5   7  11  16   8  16  15  18  19  17  15  17  30  51 211 234 235 235 235 235
 241 241 241 241 241 241 240 243  92  14  26  10   9   9   9   7   7  10  25  30  54 103 129 140 132 137 144 139  91  65  65  78  54  34  59  87  65  53  48  65  83 102 103  85 101 105  65  48  79 110 120 117  70  65  65  61  74  90  39  33  33  23  25  21  52  77  77  48  28  27  28  23   7   3   2  10   6   8  13  11  15  17  14  16  17  30 158 232 234 234 234 235
 241 241 241 241 241 240 240 242 150  16  21  10   5   6   8   8   8  15  29  44  82 107 128 145 150 137 143 144 126 119 104  90 101  86  46  71 109  94 115 102 107 125 134 129  92  80  82  66  55  72 114 140 106  69  50  56  48  89  79  20  22  13  15  12  30 100  96  63  43  36  32  40  30  14   2  11   5   3   5   7  11  10  10  10  20  23 100 235 232 234 236 236
 241 241 241 241 241 242 241 240 215  61  13  11   9   8   9   9   9  17  35  59  99 122 138 153 153 150 151 155 153 144 135 136 119 115 113  85  51  57  55  69  76 118 137 153 151 138 108  70  52  46  49 103 135  98  66  52  55  41  70  42  13  10   8   6  11  59  87  63  68  47  48  33  36  16   2  16   2   3   3   3   4   9  11  10  20  24  64 222 232 234 235 235
 241 241 241 241 241 241 241 242 237 103  12  12   7  10   9   9   9  26  40  72 112 137 146 156 157 156 156 155 158 154 150 152 144 144 142 147 148 146 134 122 144 154 136 119 119 114 126 143 102  65  48  50  82 126 115  86  73  58  47  39  36  15   9   6   7  22  87  89  76  63  63  40  24   4   2   3   1   0   2   2   3   5  12  14  14  33  55 218 237 234 235 235
 241 241 241 241 241 240 240 240 229  90  24  11   7   8   9  10   9  27  48  83 122 145 152 156 158 156 159 160 164 161 161 162 165 166 169 173 176 176 173 167 175 168 171 172 164 167 167 163 152 135  99  84  83  88 126 136 121 113 104  63  46  29  13  12   8  12  68 105  94  72  71  37   7   1   0   0   0   0   1   1   2   4   9  20  17  32  46 212 234 234 236 235
 241 241 241 241 241 240 240 241 224  68  23  14   6   6   8  12  17  27  52  88 124 151 154 156 159 158 159 166 169 169 169 170 169 167 170 176 178 179 182 183 185 183 179 181 180 183 186 185 180 172 162 157 157 161 170 169 162 156 134 134 119  87  65  51  22  17  35  56 104  70  72  35  18   2   2   3   1   0   0   1   1   1   6  19  19  29  46 209 236 234 235 235
 241 241 241 241 241 241 240 238 235  62  21  18  15   6  13  12  19  27  50  89 123 143 149 156 159 158 160 165 169 171 172 172 173 174 177 183 185 184 185 183 185 186 187 186 186 191 193 192 186 183 179 177 178 181 185 185 178 176 167 163 151 144 138 126 109  57  47  57  73  83  77  77  32  11   3   4   4   3   4   2   3   1   5  11  21  25  43 203 232 232 231 234
 241 241 242 241 241 241 240 240 234  64  16  17  14   8  11  20  23  36  54  97 130 141 147 157 158 161 162 168 171 172 174 173 179 180 179 185 189 188 186 185 187 186 193 193 191 196 196 194 190 188 184 183 186 191 191 191 186 184 185 175 171 160 159 153 146 121  96  97 101  89  86  83  55  22  27  16   8   7   7   5   2   2   3   8  20  12  46 208 226 231 231 232
 241 241 241 240 241 241 239 240 238  71   8  11   8   2   6  21  23  27  58  95 130 143 148 156 158 160 161 164 171 174 174 175 180 179 179 185 188 188 192 191 193 194 193 192 193 195 196 195 194 192 190 189 191 190 190 191 185 185 183 183 180 171 169 163 156 144 135 121 114 124 122 104  81  74  47  23  15   8  10   9   4   4   2   7  18   5  60 205 226 231 230 232
 241 241 240 241 240 240 241 241 239  67   4   9   7   7   7  16  25  33  62  93 127 143 149 157 159 159 163 171 172 175 175 173 175 179 181 186 194 187 194 193 196 194 193 194 194 195 196 196 198 195 192 191 189 191 191 190 186 186 185 184 183 177 175 168 158 156 143 138 132 130 129 126 116  98  68  44  28  14  13   4   4   2   2   4  10   5  94 199 223 230 231 231
 241 241 241 241 241 239 241 241 235 105  10  13  13  16  12  11  22  28  55  92 127 139 146 154 155 161 169 166 166 166 165 163 166 175 178 184 184 190 198 197 199 200 193 194 193 195 196 198 198 196 192 192 191 185 187 187 181 180 179 180 177 172 169 172 165 158 150 143 137 135 131 124 126 102  84  59  33  17  10   3   2   2   2   5  10   9 116 195 218 228 230 231
 240 240 240 240 240 239 242 241 231 139  23  12  11  17  19  15  18  23  55  91 126 138 144 147 153 156 161 143 145 148 142 150 152 159 171 172 176 188 193 198 202 201 199 197 198 198 197 197 196 196 194 192 188 182 182 181 176 173 177 175 170 165 163 158 153 158 150 142 135 135 131 125 124 112  91  73  31  15   6   2   1   1   1   1  14  50 147 184 212 226 229 233
 241 241 241 241 241 240 241 241 234 203  49  20  13  10  20  19  13  23  54  92 126 138 143 145 147 154 104  79  93  91 101 108 120 140 155 169 170 169 177 182 191 197 201 200 201 200 197 197 197 197 196 189 182 171 172 170 165 168 162 153 159 143 136 129 113 106 142 139 135 135 132 126 123 109 109  71  26   9   4   2   0   1   1  10  16 112 152 178 208 221 227 233
 241 241 241 241 241 240 241 242 238 225 103  16  11   6  18  17  24  30  64  91 122 135 145 145 120  73  47  36  45  55  50  42  53  57  60  67  87 116 139 156 172 186 190 192 197 197 194 193 191 188 184 178 177 167 157 154 155 152 123 105 103  72  69  72  71  69  71 133 134 132 132 133 130 118 105  73  27  10   5   3   2   3   3  11  26 108 151 173 196 217 225 233
 241 241 241 241 241 240 240 240 240 233 143  17   6   8  13  13  25  36  71 103 124 135 133 105  43  40  44  45  39  32  29  23  38  29  19  12  23  47  98 134 150 171 175 177 183 183 190 189 182 181 170 156 144 127 100  85  72  55  47  42  42  40  39  45  60  48  39  43  76 114 125 130 126 114 104  72  27  12   5   3   2   0   3   3  27 101 144 168 190 213 226 233
 241 241 241 241 241 240 241 242 239 232 145  22   8  11  12  12  23  41  66  97 128 139 123  59  43  40  35  24  25  21  29  38  44  48  23  15  11  24  57 104 128 143 159 166 168 169 172 170 170 169 156 143 112  76  40  21  11  10  17  26  32  37  39  53  55  47  35  27  26  59 123 123 124 114  98  61  26  11   5   3   3   0   3  14  32 104 145 165 187 207 221 231
 241 241 241 241 241 240 240 241 238 229 113  20  14  17  17  21  16  54  66  96  67  59  46  24  20  12  23  25  36  38  41  45  48  52  62 103  79  33  44  75 128 138 149 150 157 161 163 159 158 154 146 125  77  38  22   8   7  16  18  15  21  36  39  53  51  43  30  38  24  32  99 120 125 113  96  48  24  10   4   2   2   0   2  13  51 114 143 158 182 202 216 228
 241 241 241 241 240 240 240 241 235 226 158  28  20  20  26  12  36 137  93  89   6  29  32   4  12  41  70  96 122 128 135 136 133 124 130  97  73  46  26  49  84 122 133 133 143 143 139 138 135 128 125  98  53  19  46  85  83  58  30  26  27  25  20  24  29  45  66  64  44  39  76 114 122 114  76  44  18   3   2   1   2   0   2  16  74 128 142 151 175 198 211 226
 241 241 241 241 241 240 241 240 234 225 165  30  18  14  32  13  38 130 105  91  20  46  63   7  53  93 125 126 129 114 103  91  72  68 141  93  93  80  57  25  38  64  38  27  29  43  58  36  33  42  65  45   9  20  49  67  78  96  75  85  85  82  75  62  30  11  12  24  39  63  64 100 124 111  52  43  24   5   0   3   2   1   3  20  74 137 141 148 170 191 208 225
 241 241 241 241 241 240 239 235 232 212 134  22  17  14  17  22   1  14  29  74  35   4   4  51 103 124 123 103  82  55  49  18  17  27  22  69  95 104  95  70  17   5   4   4   3   7   7   5   5   8   6   2  34  66  84  88  95 172  45  37  38  51  72  89 102  72  35   9   8  13  18  22  31  56  75  85  72  33   3   7   3   1   9  50  98 140 143 148 168 190 210 225
 241 241 241 241 239 240 238 232 232 198 124  24  14  11   7   5  17  44  78 107  97  19   6  86 119 115  96  74  44  72 104  23  14  33  17  96  99  94 113 120  64   3   8  42  80  95  93  66  35   4   4  29  73 104 108  80  81  71  25  20   8  37  46  44  69  87  95  50   7  59  75  16  22  51  73  86  80  28   4   6   4   3  15  96 130 140 142 147 161 189 209 225
 241 241 240 241 240 239 240 238 240 179  67  33  13  11   6   4  26  63 113 150 135  53  13 101 118 112  93  56  64 126 134  36  12   5  27 115 152 109 100 125 122  27  22  96 151 166 159 137  95  13   7  64 132 119  88 114 149  43  18  41  14  38 127  50  42  75  96  95  40   9  10   2  24  81  68  41  13   2   3   1   3   4  16  94 138 140 140 147 158 188 209 225
 241 241 241 241 241 241 240 239 239 114  71  37  22   9   4  13  37  59 144 151 153  91  34 112 118 111 109  94 100 106 130 103  43  50  79 136 111  98  99 119 129  55   6  89 149 165 158 134  89   6  25 110 141  98 106 128 148  89  21  12  20  70 133  93  60  56  86  96  87   5   6  29  49  47  58  70  42   8   2   0   3   3  15 102 134 139 139 144 161 189 209 224
 241 242 241 241 241 238 239 240 219 112  57  32  22  14   4  13  38  98 160 159 159 119  28 125 131 130 131 133 127 122 111 117 136 127 133 131 133 143 146 156 144  72   8 103 149 173 171 143  82   3  60 137 143 145 129 125 114 110 101  83  78 129 116  90  91  92  96 106 108  24  12  49  60  83 116 113  62  15   3   2   2   2  16 101 142 143 143 148 166 189 210 225
 241 241 241 241 240 241 240 239 195  99  49  25  23  14   3  14  47 140 159 162 162 143  14 134 141 145 142 140 141 136 134 146 145 145 139 140 142 141 152 145 130  71  10 115 157 174 170 145  83   6  88 139 154 140 140 140 142 145 145 154 138 129 128 127 128 134 134 128 122  36  16  93 125 122 125 106  66  18   4   2   2   9  14  67 149 146 146 147 169 190 209 225
 241 241 241 242 239 240 240 240 200 112  52  37  28  20   8  11  60 151 162 161 161 155  34 120 158 152 153 153 153 151 145 148 151 150 156 155 151 150 144 138 136  63  16 124 168 184 180 157  88   4  93 133 146 143 140 143 143 144 156 153 150 141 140 139 141 146 148 141 138  29  38 125 130 129 129 113  73  26  10   1   2   5  16  40 136 145 146 152 175 194 216 227
 241 241 241 241 241 240 240 240 201 133  50  44  31  26  13  28  76 146 164 161 160 163  85  66 158 161 161 161 160 162 163 164 165 169 168 168 165 156 154 146 157  39  52 133 168 187 191 169 116  10  98 145 143 146 153 153 153 153 152 148 148 148 144 146 145 146 146 149 136  10  77 137 140 133 128 114  70  24  11   3   2   8  17  49 130 145 150 156 179 200 216 227
 241 241 241 240 240 239 240 239 208 138  64  49  43  38  19  22  68 148 164 160 162 155 142  38 138 163 159 168 167 167 167 169 170 170 170 169 168 167 163 157 134  21 102 139 169 188 191 173 135  29  55 149 149 151 160 160 161 166 167 163 156 155 158 153 152 150 149 150 108  26 106 142 136 134 124 111  59  13  15   2   2   7  17  49 130 144 150 161 182 205 222 228
 241 241 241 241 241 237 239 238 218 157  83  47  44  46  20  18  54 143 161 160 163 164 163  89  78 162 165 169 172 170 170 171 171 171 172 172 169 168 157 162  53  50 127 153 168 184 190 173 133  72  20 157 152 159 165 170 171 172 173 169 169 166 158 155 152 154 148 149  45  63 132 142 134 120 117 101  46   7   6   5   4  12  21  48 128 140 150 171 192 210 222 230
 241 241 241 241 239 237 240 236 227 156 105  56  63  86  38  16  39 129 159 160 164 168 165 146  46  91 176 168 174 176 175 176 177 177 177 176 173 169 165  96  26 113 151 154 167 184 190 178 144 121  23  84 164 161 168 171 172 175 176 171 171 170 167 160 157 156 154 100  26 103 146 137 134 119 110  96  40   9   8   6  10  18  28  87 141 144 158 176 198 219 227 230
 241 241 241 241 241 240 239 240 228 157 129  82  69  92  49  23  31 126 158 161 163 164 164 166 135  40  92 169 176 177 181 180 180 181 183 177 170 164  90  26 103 145 154 156 170 186 189 177 152 133  95  19 124 164 169 177 177 177 177 177 175 173 171 166 160 162 133  20  78 137 136 138 128 118 106  74  20   5   8   6  18  37  52 122 141 145 158 181 204 217 228 231
 241 241 241 241 241 240 238 240 236 166 150 112  99 106  80  31  26 114 156 163 162 164 165 165 166 142  58  98 159 178 181 183 183 182 183 178 141  60  42 111 139 152 157 158 171 187 190 177 160 134 123  76  27 138 169 177 179 178 178 178 178 178 176 170 162 144  26  67 133 145 132 133 128 117  99  55  12   4  11  10  40  55  71 139 146 146 160 181 204 219 227 232
 242 241 241 241 240 240 240 240 238 182 154 139 119 124 119  62  24 106 151 161 160 160 161 161 163 167 155 127  94  87 101 127 135 138  98  44  39  88 133 141 145 151 155 161 173 186 191 180 164 143 129 110  77  18  95 172 188 187 185 185 184 176 169 161 116  26  56 132 148 140 133 131 124 113  94  42  12  11  10  24  76  80 113 144 145 151 159 181 204 220 229 232
 241 241 241 241 239 240 240 240 244 192 153 153 130 123 132  95  32  84 155 157 158 157 160 161 162 166 164 166 167 153 132 116 105 112 115 143 154 154 134 137 145 148 155 161 174 187 190 180 164 140 133 119 112 128  58  50  93 144 169 173 173 151 137  88  30  86 134 142 139 135 129 124 119 107  86  35  15  12  19  80  96 113 138 143 146 150 162 187 208 220 228 231
 241 241 241 241 239 240 239 241 241 214 154 146 143 122 123 101  45  58 148 156 155 156 155 159 158 161 163 163 165 167 173 173 178 173 168 170 165 153 138 145 155 153 155 161 175 186 190 180 163 139 131 135 113 131 164 142  99  57  60  53  53  56  79 109 136 142 146 142 137 130 124 120 115 103  66  24  17  20  61 127 114 124 140 141 148 155 169 192 208 221 230 230
 240 241 241 240 240 241 238 237 238 228 159 141 152 151 144 134  80  43 144 153 153 151 149 155 153 157 159 164 165 167 170 174 177 173 166 161 159 146 143 155 161 157 158 162 175 186 191 178 162 135 136 140 130 123 150 167 175 181 179 179 177 171 162 159 150 142 147 143 131 126 122 117 110 100  57  15  22  26 104 148 123 131 143 144 149 159 176 197 214 221 230 230
 240 241 241 240 239 239 238 213 206 210 170 151 146 153 158 164 128  70 123 151 150 149 143 149 149 154 152 156 161 168 169 167 168 164 160 160 158 148 143 149 152 146 152 157 168 181 188 175 159 138 131 131 132 123 151 155 168 172 175 174 169 164 159 154 148 143 144 133 126 122 116 111 106  95  53  27  34  61 128 143 117 139 144 146 150 166 181 202 218 226 229 234
 239 240 243 239 239 241 237 213 143 137 173 154 156 160 163 168 165 132 116 151 149 146 143 146 143 148 152 155 160 164 167 166 161 156 151 154 156 154 138 136 138 133 138 148 164 177 179 169 153 132 122 121 118 122 151 153 155 161 171 168 166 161 157 154 150 140 138 132 121 118 115 109 104  95  50  50  86 116 134 124 117 139 144 146 150 171 186 209 221 228 230 233
 240 240 235 206 165 134 140 144 190 178 158 151 156 162 164 168 163 154 135 150 144 146 145 146 143 145 149 152 158 156 155 154 153 148 148 154 154 155 149 118  84  82 108 134 147 157 156 149 126 112  93  97  95 135 153 150 151 153 155 157 156 154 154 152 146 136 132 126 119 116 116 111 101  89  76 111 133 139 139 130 130 145 143 147 149 171 188 210 220 228 230 233
 238 243 233 218 165 110 160 134 190 109 135 167 155 161 163 168 162 151 146 144 142 144 144 142 142 141 143 148 153 151 148 143 143 140 153 161 154 156 152 146 124 106  95 110 134 136 127 120 108  69  53  78 120 150 152 150 149 147 149 154 155 152 151 148 144 135 127 121 117 115 111 106  97  77 113 147 144 142 140 133 140 145 146 147 152 173 193 208 221 230 232 232
 240 207 181 189 102 154 162 118 215 215 118 129 115 148 151 157 160 156 151 144 144 142 144 141 142 140 140 143 147 147 144 140 140 148 155 161 156 157 152 148 132 103 101  85 102 108 105  93  62  64  96 124 141 151 150 156 156 151 149 148 149 148 147 140 138 133 128 122 117 114 104 100  95  72 127 155 145 140 133 134 142 142 142 144 147 163 184 209 221 227 231 228
 130  71 131 119 123 194 152 130 159 139 144 112  81 124 133 138 138 140 128 130 147 143 142 141 139 138 139 143 146 143 141 141 147 150 152 153 152 151 148 142 129 125 109  99  84  81  78  56  77 105 119 120 138 153 151 156 163 160 155 149 148 149 144 137 132 129 126 122 115 111 104 100  99  82 130 136 143 120 117 114  93 106 140 147 143 150 146 144 171 170 160 169
 208 139 184  85 129 102 170 177 220 176 106 183 100  96  94 103 104 105 104 106 148 142 142 141 138 140 139 142 147 142 145 147 146 146 142 145 144 145 150 142 139 135 138 127 108  94  84 103 125 125 129 132 139 148 147 152 156 160 155 150 147 149 145 136 132 131 128 122 115 111 104  99  99  99 109 116 124  97 117 140 127  91  62 133 151 158 154 106 176 212 214 210
 114 143 178 159 136 200 129  94 216 149  67 179 148 122 129 125 109 113  74  66 137 144 144 142 138 139 140 142 145 142 143 146 145 140 142 142 144 150 150 152 150 151 147 146 131 125 129 137 141 143 138 137 139 142 142 146 146 149 156 155 150 149 143 141 134 127 126 121 112 112 101  97 134 146 147 145 133  97 145 143 144 137  69 123 145 155 169 107 201 230 230 231
  75 141 166 107  95 167 100  94 200 168 130 132  63  40  81 111 115 106  82  93 136 141 142 141 140 141 144 147 150 148 144 144 138 133 141 142 148 141 133 135 124 126 120 131 144 149 143 145 143 139 144 145 136 150 137 135 135 139 145 151 156 151 145 141 135 133 127 122 117 116  96 101 141 145 142 143 140 125 144 147 144 147  78 115 150 168 180 125 205 230 230 233
  79 160 151  53 119 178 123 155 160 200 190 184 126  23 118 135 112  74  60  73 117 142 142 141 140 142 144 147 150 152 149 150 128 116 110 114  97  93 100 107 108 108 107 105 114 124 114 105 110 115 115 125 131 141 138 134 134 137 143 154 158 152 146 141 136 131 123 118 117 113  96 116 143 144 144 142 143 140 142 143 143 147  84 107 154 176 188 138 211 229 231 231
 148 199  97  82 121 176 178 184 189 103 131 174 126   7  60  58  52  33  56  82 131 141 140 142 142 142 143 147 151 157 154 156 135 104  42  30  73  62  71  79  80  79  94  94  96  99  90  91  96 100 100 105  98  99 112 120 118 135 145 153 158 153 146 140 135 132 118 116 116 106 102 132 143 143 144 143 144 143 142 141 143 148  84 110 159 181 194 139 212 228 232 232
 164 206 104 146 211 116  59 115 166  36  80 105 106  18  13  51  42  77  86  97 104 139 140 136 137 140 142 146 156 162 163 158 158 145 114  66  87  71 108 136 153 150 138 128 119 105 103 100  95  92  76  67  56  49  40  55  71 124 147 159 166 158 149 144 137 132 124 114 106  98 103 139 143 143 144 144 144 144 144 143 144 142  79 138 171 192 205 134 207 230 231 232
 168 174  90  90 184  70  56 100 161  38  29 119 160 113 112 101  66  88  70  81  89 132 147 135 137 136 142 144 155 163 166 170 174 164 148 114 102  92  79  79  97 112 138 155 161 160 164 162 131 132  93 108  62  49  56  59 106 135 145 160 166 164 151 144 137 132 121 113 102  92 121 142 143 144 144 143 144 144 144 144 144 129  86 153 178 199 211 141 202 233 232 232
 176  80  48 114 196  55  45 103 181 141 174 196 133 150  93  96  25  34  40  68  95 132 142 139 138 137 137 139 148 161 168 177 183 176 159 134 125 114 104  96  99 104 100  94 104 100  98  93  85  89  85  80  80  81 102 122 155 163 164 161 165 160 149 141 132 126 118 104  92  94 134 143 143 145 143 144 144 144 143 142 143  75 103 167 189 208 218 170 201 232 230 232
 203  54  39  81 175  91 137 206 121 154 173 154  44  82  46 109  14   9  50  91  28  97 137 136 138 138 135 138 145 156 168 179 185 180 168 146 135 126 121 114 106 106 118 128 136 130 132 116 113 100 100 100 106 116 135 152 172 177 172 166 168 154 144 138 126 120 111  98  90 106 141 144 143 145 144 143 144 144 143 142 105  52 142 171 194 214 223 181 188 232 232 232
 157  41  68 145 161  73 117 159  43  76 117 150  26  20  36  97  44  79 105  56  78 127 136 133 134 135 135 136 140 151 164 177 186 183 170 161 142 140 142 136 124 120 121 131 146 149 143 124 115 110 115 118 123 131 151 167 185 180 176 168 163 149 141 130 118 113 101  95  87 115 144 144 142 145 143 144 144 144 144 120  52 120 157 177 198 221 223 183 189 231 232 232
 194 161 141 179  63  61  66 142  29  40 136 203 167 164 163 148 127  89  64 117 139 147 144 131 133 133 135 137 139 146 158 171 181 184 175 170 159 146 142 141 137 137 126 127 126 124 127 125 121 127 132 129 134 144 163 181 184 178 174 167 158 144 133 126 116 107  95  89  91 121 144 143 143 145 143 144 147 139 134  62 101 154 162 182 197 219 225 179 196 232 231 232
 120  61  93 175  58  43 106 172  73  81 162 161 163 126 120  81 111  38 120 150 151 152 144 132 127 129 135 137 141 144 151 163 170 181 183 175 167 159 148 142 139 134 130 126 129 123 125 125 132 138 140 137 149 166 179 179 180 172 167 161 150 135 124 117 109 100  89  83  90 131 144 144 144 142 143 144 135 135  57 106 149 151 171 175 183 223 223 175 191 232 232 232
  84  54 100 153  51  38 119 187 211 208 148  78 162 111  81 145 165 111 170 166 159 160 144 137 124 125 130 137 142 142 146 156 166 175 178 175 173 166 159 153 141 135 134 129 127 126 127 134 143 145 150 151 166 176 177 174 171 168 159 149 140 128 114 110 100  94  86  78  94 136 143 144 144 143 144 144 137  58  60 106 103 108 111  84 189 227 224 160 177 232 229 232
  67  19  58 197 178 173 179  53 146 138 134  81 187 201 188 139 170 186 197 185 180 173 150 143 130 123 128 134 141 145 145 148 165 174 177 177 173 167 161 156 152 148 141 137 139 139 141 148 154 154 160 166 170 176 177 174 169 163 153 143 132 113 109 101  90  85  80  82  99 141 143 143 143 143 143 145  84  33  38  45  53  63  77 106 214 225 194 137 145 165 177 174
 149 172 206 109  44 122 144  38 104 163 136  68 126 137 133 111 235 226 229 216 213 199 155 142 136 126 126 128 135 146 146 149 159 173 174 181 177 171 162 160 160 160 160 161 162 163 163 164 166 167 167 170 171 175 177 172 169 155 153 135 125 110 100  90  80  76  75  93 104 142 145 144 144 145 143 150 148 150 150 153 163 184 201 211 225 231 229 228 229 230 229 229
  64  60 195  71  57  57 147  49  38 121 169 155 192 193 116 199 237 233 233 234 227 216 160 148 143 132 123 117 124 138 142 142 150 168 175 180 184 177 170 168 175 174 178 182 181 183 184 180 178 174 172 174 178 176 177 170 166 152 140 127 117 102  91  83  72  70  82  99 119 145 144 144 145 146 149 155 158 164 168 173 185 205 220 226 232 232 232 230 230 230 230 230
  66  99 184  62  30  74 167  96 139 178 154 183 141 124 170 231 235 238 237 235 236 230 164 146 148 139 129 117 121 129 140 141 142 158 169 179 185 183 178 179 176 180 185 188 189 189 189 187 181 181 179 181 180 183 174 172 162 149 133 119 103  93  84  75  66  69  97 104 116 140 144 145 145 152 151 162 170 176 186 193 208 217 224 232 233 233 233 231 232 232 231 232
  49  71 185  53  50  92 210 155 161 123 125 150  50 213 232 238 236 237 238 235 236 231 163 148 148 145 133 116 112 118 123 132 138 150 162 176 184 184 178 178 181 182 187 188 189 189 189 190 181 178 177 180 179 180 168 161 151 138 123 109  91  79  71  70  72  94 102 108 122 147 144 143 147 151 164 185 193 200 208 217 222 225 231 233 233 234 233 231 231 232 232 231
  42 128 222 162 156 135 185  55  72  47  89 145 135 236 236 236 235 235 237 236 236 232 171 149 148 148 135 121 107 107 118 120 130 141 153 166 178 176 181 177 183 184 189 190 188 188 189 189 184 180 179 178 176 171 162 152 140 127 105  93  71  68  62  68  87  98 109 109 127 145 144 144 147 154 175 197 209 220 227 228 231 230 232 230 230 231 231 231 231 230 230 230
 216 232 168  55  60  52 173  55  26  74 165 160 203 237 236 234 236 235 235 236 236 232 171 151 152 151 140 131 112 100 101 111 114 126 138 152 168 166 174 182 186 187 191 189 189 188 189 190 185 177 178 176 170 157 148 140 125 107  84  74  63  62  65  77 100 110 109 109 126 145 143 144 150 166 184 205 217 229 231 231 231 232 231 231 231 231 231 231 231 231 231 231
 236 241 106  46  39  34 185 147 185 137 123 211 232 236 238 236 234 236 236 236 236 235 168 149 153 150 145 139 128 105  91  94  98 110 122 137 151 156 163 172 178 184 188 187 186 184 182 184 180 175 175 168 161 137 131 128 111  87  66  63  64  65  71  88 111 115 115 116 130 141 143 149 152 172 193 210 223 231 231 231 231 232 232 232 231 233 232 232 232 230 230 231
 235 230  75  21  33 137 167  82 186  56 205 238 237 238 237 237 235 235 236 236 235 236 168 153 152 153 150 145 137 118  95  86  91  91 100 114 125 141 144 155 165 171 173 172 173 173 173 177 176 175 174 160 147 127 114  99  79  63  53  55  61  71  76  99 121 122 116 117 129 141 145 150 158 177 197 215 228 232 231 232 231 232 232 232 232 232 232 232 232 231 231 231
 235 233 190 175 200 195  71  48 180 100 232 235 237 236 235 236 235 233 233 238 242 180 149 155 152 153 152 148 139 128 106  91  84  86  80  93 104 116 126 136 140 150 150 155 160 160 160 163 165 169 159 148 130 117  98  75  53  45  46  62  69  74  93 119 125 126 120 116 134 139 145 150 161 187 206 218 231 231 231 231 231 232 232 232 233 232 232 232 232 229 229 230
 240 232 235 235 236 143  24  38 206 178 240 234 237 236 235 235 235 239 240 242 131  34 140 152 155 154 152 149 145 141 119 101  94  79  79  69  80  94 103 114 117 127 129 135 144 145 141 140 140 134 122 113  99  88  69  54  39  51  66  70  75  88 115 126 129 130 126 117 134 140 146 149 173 199 212 224 232 231 230 231 231 232 232 232 232 232 232 232 232 230 231 231
 233 237 237 236 235 134  20 167 238 237 235 235 235 236 232 234 235 235 234 112  12  22 138 155 155 154 156 157 153 146 134 112  99  94  82  76  67  70  79  90 101 110 113 125 127 126 122 118 113 103  96  86  71  56  38  38  54  64  72  76  86 111 128 133 135 134 124 116 134 144 150 161 181 206 219 226 232 231 230 231 231 231 232 232 232 232 232 232 231 230 230 231
 237 236 236 236 234 178  66 229 233 238 234 235 234 236 235 234 233 237 136  17  12  17 141 152 155 153 155 158 158 152 146 127 107 102 101  90  76  62  58  64  73  86  87  97 100  98  94  90  85  80  62  51  37  34  43  69  78  77  77  90 106 124 132 134 136 134 123 117 133 143 156 168 188 211 225 231 232 231 230 231 232 231 231 230 231 231 232 232 231 230 230 231
 236 238 238 238 234 215 148 233 236 236 236 236 236 235 234 234 231 185  19  10   2  24 148 152 153 153 155 157 157 158 152 143 125 110 107 108 108 101  81  57  48  54  54  56  58  57  56  50  48  42  39  38  50  72  90  88  85  77  88 108 124 133 137 139 139 134 124 114  64 143 156 177 199 217 226 231 231 232 232 232 232 231 231 231 231 231 231 230 231 231 231 231
 237 237 237 236 232 230 221 236 235 235 235 235 235 233 233 235 230  39  16   3   4  28 149 152 153 153 154 156 159 159 157 151 146 132 120 119 121 129 133 128 104  87  68  60  53  50  42  47  56  72  83 101 106 112 104  93  91 100 115 131 135 136 140 143 140 134 124 108  29  71 151 180 206 224 227 231 231 231 232 232 232 231 231 231 231 231 231 231 231 231 231 231
 236 236 236 235 235 235 234 234 235 236 235 235 235 235 234 233 120  24  11   4   2  52 149 151 153 154 155 158 161 161 161 158 154 143 132 126 125 132 135 139 144 145 142 134 133 126 119 132 125 129 128 121 121 120 109 103 103 113 128 140 143 144 145 145 141 134 125 110  25  20  61 164 206 223 231 231 231 232 232 232 232 231 231 231 231 231 231 231 231 231 231 231
 235 234 235 235 235 235 235 234 235 235 235 235 235 238 232 177  36  19   6   2   0  78 146 151 154 155 155 159 162 162 164 164 158 149 139 134 131 134 138 141 150 149 154 158 156 154 148 147 143 138 135 130 129 123 115 112 116 126 137 147 147 146 146 144 138 132 126 108  22  20  29  35 169 226 225 235 231 232 231 232 232 230 230 231 230 230 231 231 230 230 230 230
 235 234 235 234 235 235 235 235 235 234 235 235 234 234 189  36  31  18   5   1  23 106 142 149 151 155 156 161 163 166 165 165 161 155 139 135 134 133 139 142 149 150 161 164 162 162 156 154 149 144 141 133 128 123 119 117 123 135 144 149 148 146 147 145 138 131 126 106  16  16  21  15  24 150 232 237 232 231 233 232 231 231 231 231 232 230 231 230 230 231 230 230
 235 234 235 235 235 236 235 235 235 233 235 233 234 183  54  23  21  19   1  26  66 122 140 147 150 157 156 159 162 168 168 169 164 157 146 138 135 133 136 141 148 150 165 171 168 163 162 164 156 149 140 129 128 122 123 121 128 138 142 149 150 148 148 143 139 133 127 106  11  14  15  18  17  18  98 217 227 229 231 231 232 231 231 232 232 230 231 231 230 231 231 230
