P2
# Generated by OpenCV 4.2.0
92 112
255
  47  48  48  48  48  48  48  49  51  52  50  51  52  52  52  52  52  52  52  52  53  53  53  53  54  54  54  55  55  55  55  55  56  55  55  56  58  57  57  58  58  58  58  58  58  58  58  58  60  58  58  59  60  60  60  60  59  61  62  60  62  61  62  62  62  62  63  63  62  62  63  63  63  63  63  63  63  63  63  63  63  63  63  63  63  63  63  63  63  63  63  63
  48  49  48  48  49  49  49  50  50  50  50  51  52  52  52  52  52  52  52  53  53  53  54  53  53  54  55  55  55  54  55  55  55  55  57  57  57  57  59  57  58  58  58  58  58  58  58  58  58  58  59  60  60  60  61  59  60  61  60  60  62  62  62  63  63  63  63  63  63  63  63  63  63  63  63  63  63  63  63  63  63  63  63  63  63  63  63  63  63  63  63  63
  48  48  48  49  49  49  49  51  51  50  52  52  52  52  52  52  53  52  53  52  53  53  53  53  53  53  55  55  55  55  55  55  55  57  57  57  58  57  58  58  58  59  58  58  59  59  59  59  58  58  60  60  60  60  60  60  60  60  60  60  62  62  62  63  63  63  63  63  63  63  63  63  63  63  63  63  63  63  63  63  63  63  62  63  63  63  63  64  63  63  63  63
  49  49  49  51  51  51  51  52  51  51  53  52  52  54  51  50  56  54  53  53  52  53  52  54  54  53  56  51  56  58  54  54  55  58  59  58  57  56  54  56  58  60  60  59  58  57  61  63  60  58  61  61  62  61  59  59  59  60  60  61  62  62  63  63  63  63  63  63  63  63  63  63  63  63  63  63  63  63  63  63  63  63  63  63  63  63  63  64  65  64  64  63
  49  49  50  51  51  52  52  52  51  51  53  51  51  53  51  52  53  53  54  55  53  53  55  55  60  62  63  58  61  62  57  56  57  59  60  58  56  56  55  56  57  60  62  61  57  58  62  63  60  59  61  61  59  59  60  61  61  61  62  63  62  63  63  63  64  63  63  63  63  63  63  63  63  63  64  64  63  63  63  63  64  64  63  63  63  64  64  64  66  65  65  64
  49  50  50  51  51  52  52  52  52  52  53  51  52  53  52  55  58  52  59  61  59  61  63  66  65  62  57  51  44  43  42  42  45  48  53  57  56  54  56  55  57  61  64  60  56  57  61  63  63  61  59  58  60  62  62  62  62  62  62  63  62  63  63  63  63  63  63  63  63  63  63  63  64  65  65  63  62  63  63  64  64  65  65  64  64  65  65  65  65  65  65  65
  51  50  50  51  52  52  52  52  52  53  51  53  52  54  56  60  60  63  67  67  68  71  70  61  53  46  40  35  30  32  36  35  32  33  44  53  55  56  60  58  58  58  60  60  58  63  64  64  64  60  59  59  61  62  62  62  60  62  63  62  63  63  63  63  63  63  63  63  63  63  64  65  65  65  65  63  63  64  64  65  65  65  65  65  65  65  65  65  65  65  65  65
  51  50  51  52  52  52  52  52  52  53  51  54  56  58  62  65  69  70  77  75  76  69  53  39  40  46  48  47  42  44  52  47  44  43  43  46  52  57  59  57  53  50  49  48  48  48  47  46  47  48  51  57  61  60  60  61  63  67  65  62  63  63  63  64  64  64  64  64  64  64  65  66  65  65  66  64  64  65  65  65  65  65  65  65  65  65  65  65  65  65  65  65
  50  51  52  53  52  52  52  51  52  52  53  56  61  63  69  68  76  77  77  84  69  57  49  50  50  49  47  49  48  49  47  45  48  52  52  50  53  56  57  51  45  37  28  22  17  13  12  12  15  17  21  27  37  52  62  65  65  67  67  63  63  64  64  65  64  64  63  65  65  65  65  65  65  65  65  65  65  65  65  65  65  65  65  65  65  65  65  65  66  66  65  65
  51  52  52  53  52  52  52  52  52  53  52  58  63  67  74  75  83  90  88  80  68  63  57  51  45  47  47  46  47  44  43  44  46  49  52  52  48  44  41  34  26  20  13   8   4   2   2   4   7   5   1   2   8  21  34  50  62  65  64  63  64  64  65  65  65  64  64  65  65  65  65  65  65  65  65  65  65  65  65  65  65  65  65  65  65  65  65  66  67  66  65  65
  50  50  50  52  52  53  54  53  53  54  64  65  72  69  73  75  87  91  87  82  67  57  52  47  48  52  48  46  43  39  38  42  45  48  50  46  38  33  26  22  20  18  13   5   9   3   3   2   4   4   1   0   0   1   5  13  39  59  61  63  66  68  68  65  64  64  64  66  64  65  65  65  65  65  65  65  65  65  65  65  65  65  65  65  65  65  66  66  66  66  65  65
  50  50  51  52  52  53  53  53  50  60  69  69  68  68  66  75  80  72  91  80  55  52  48  46  47  48  54  47  39  29  31  34  28  24  20  15  12  10   8   7   7   7   5   3   6   1   0   0   0   0   1   0   0   1   2   1  21  50  64  63  68  65  66  69  66  63  64  65  65  65  65  65  65  65  65  65  65  65  65  65  65  65  65  65  65  65  65  65  65  65  65  65
  52  52  52  52  52  52  52  53  56  62  66  77  65  61  62  72  54  75  93  58  56  55  41  48  51  45  41  29  26  26  17  12   8   5   2   2   1   2   1   0   0   0   0   1   1   0   0   0   0   0   1   3   3   0   0   1   6  18  42  59  64  64  67  67  66  65  67  68  65  65  66  66  65  65  65  65  65  65  65  65  65  65  65  65  65  65  65  65  65  65  65  65
  53  54  52  52  52  52  52  51  56  61  73  67  62  67  55  58  50  74  60  49  50  48  50  44  41  41  31  30  36  21   8   6  16  10   2   1   0   0   0   0   0   2   1   0   0   1   2   2   1   1   1   1   3   3   3   2   0   2   6  11  36  59  68  63  64  67  65  65  67  67  67  67  65  65  65  65  65  65  65  65  65  65  65  65  65  65  66  66  67  67  67  67
  53  53  52  52  52  52  52  57  62  67  74  63  60  49  48  43  49  54  45  48  58  51  47  56  41  34  49  53  41  38  46  33  13   3   0   4  11  11  11  10  11   7   9  17  23  17  13  10   8   9  12  15  15  10   7   7   3   1   4   3   5   8  36  66  66  62  68  69  67  66  68  67  67  67  67  67  67  67  67  67  67  67  66  65  65  66  67  67  67  67  67  67
  52  52  52  52  52  52  52  57  60  68  62  61  66  48  46  37  45  55  66  68  56  62  70  54  63  84  71  50  38  24   7   3   2   7  17  32  42  49  54  54  54  59  62  55  45  40  33  23  14  11   7   5   6   6   3   6   7   4   1   0   0   1   2  17  56  68  63  65  68  69  68  68  67  67  67  67  67  67  67  67  67  67  67  67  67  67  67  67  67  67  67  67
  52  52  52  53  52  53  53  57  55  55  56  55  47  41  41  35  58  72  75  61  57  64  55  69  93  78  57  55  29   4   0   0   3  24  57  72  67  62  55  45  35  36  46  48  43  46  41  32  22  17  13  10   7   2   2   1   1   3   4   1   3   0   0   0   8  44  67  67  68  68  68  68  68  68  68  67  67  67  67  67  67  67  67  67  67  67  67  67  67  67  68  68
  49  51  52  52  52  53  55  60  57  49  53  53  43  38  33  52  66  83  52  21  30  36  51  79  82  75  66  38  14   8  36  55  71  78  71  50  33  23  18  15  10  10   9   7   9   6   7  12  13  12   9  10   8   6   2   2   1   0   1   0   0   2   0   0   0   9  40  66  69  69  68  68  68  68  68  67  67  67  67  67  67  67  67  67  67  67  67  67  67  67  68  68
  49  55  52  53  54  53  60  65  57  51  50  45  41  34  38  60  71  59  23  15  15  19  43  61  60  62  58  42  58  75  78  50  24  14   8  10  11  14  19  22  16   8   3   4   1   0   0   2   3   2   3   5   6   3   3   2   2   1   1   1   1   0   0   2   0   1  11  39  63  70  68  67  70  69  66  68  68  68  68  68  68  68  68  68  68  68  68  68  68  68  68  68
  52  53  51  53  54  51  58  66  59  46  45  42  38  39  69  49  74  30  12   7   5  11  20  17  29  40  30  45  59  51  28  16  13  17  23  32  46  50  54  49  39  31  24  12   5   2   2   0   1   0   0   0   1   3   2   1   1   0   0   0   0   3   2   0   0   0   1   5  28  58  70  69  69  68  66  68  68  68  68  68  68  68  68  68  68  68  68  68  68  68  68  68
  52  52  51  54  56  51  58  66  56  46  44  44  39  64  59  54  76  17   9   3   3   3   5   7  11   9  22  44  34  13  15  22  32  29  48  58  61  58  50  46  38  27  23  14   7   7   5   1   0   0   0   2   2   1   1   0   0   0   0   0   0   2   0   0   0   2   0   0   3  25  55  65  68  71  66  68  68  68  68  67  69  69  69  69  69  69  69  69  69  68  68  68
  52  51  52  53  55  52  57  65  58  48  50  46  43  85  34  87  60   6   5   1   2   1   2   3   4   8  18  14   6   9  22  33  32  45  60  65  53  41  34  26  24  25  22  14   7   5   1   0   1   0   0   0   0   0   0   0   0   0   1   0   0   0   0   0   0   0   0   0   0   0  21  54  67  70  68  69  69  69  69  69  69  69  69  69  69  69  69  69  69  69  68  68
  52  54  54  52  53  54  56  62  57  49  55  54  56  91  35 101  57  15   7   3   2   2   2   2   5   5   6   8   7  12  13   9  28  58  66  62  54  58  66  60  57  60  55  41  25  11   6   3   1   1   0   1   1   0   0   0   0   0   0   0   0   0   0   0   0   0   0   0   0   1   4  21  51  67  69  69  69  69  68  69  69  69  69  69  69  69  69  69  69  69  69  69
  53  54  54  52  53  55  55  61  58  50  52  56  71  90  48  83  56  25   9   4   3   4   5   6   7   6   6   6   8  14  11  11  23  40  45  38  34  42  49  43  43  50  54  53  43  25  18  12   7   3   1   1   1   0   0   0   0   1   0   1   0   0   1   0   0   0   0   0   0   1   1   1  16  47  65  69  69  69  69  69  69  69  69  69  69  69  69  69  69  69  69  69
  54  53  53  54  54  55  54  60  61  53  50  55  84  78  51  57  55  32  11   6  10   4   6   6  10  15  18  18  23  32  31  32  32  36  36  23  21  28  35  39  38  33  35  36  34  32  30  27  19  11   4   2   2   0   0   0   0   0   0   0   0   0   0   0   0   0   0   0   0   0   0   0   0  17  49  67  69  69  69  69  69  69  69  69  69  69  69  68  69  69  69  69
  54  53  53  54  54  54  52  56  63  61  56  57  81  60  48  38  54  50  29  19  24   9  11  17  23  37  49  60  63  72  69  68  70  65  61  53  45  51  59  61  46  31  29  25  28  22  22  21  23  26  17   6   3   1   0   0   0   0   0   1   0   0   1   0   0   0   0   0   0   0   0   0   0   2  16  55  71  68  68  70  70  69  70  69  69  69  69  69  69  69  69  69
  53  54  53  53  53  53  53  54  62  68  63  65  79  53  42  43  48  62  54  43  50  40  29  36  49  74  95 120 123 127 129 121 121 114 109 102  96 101 106 107  98  93  91  83  73  54  47  32  23  24  26  16   9   2   0   0   0   0   0   3   0   0   0   0   0   0   0   0   0   0   0   0   0   0   0  25  62  66  71  69  71  71  71  69  69  69  69  69  69  69  69  69
  53  53  53  53  54  53  53  52  57  60  59  71  76  43  40  47  48  60  77  70  75  74  62  60  74 103 136 172 183 181 174 164 165 162 163 163 160 163 164 165 168 167 161 158 146 131 119  98  73  52  37  28  18   7   4   2   1   0   1   3   0   0   0   0   0   0   0   0   0   0   0   0   0   0   0   4  31  60  71  69  71  70  69  69  69  69  69  69  69  69  69  69
  53  53  53  53  53  53  54  55  54  53  52  62  65  47  41  50  65  78  84  87  83  88  94  91  97 114 144 183 202 203 195 183 189 195 195 195 196 202 199 195 196 193 192 194 192 180 171 159 139 113  87  64  43  23  11   4   1   0   1   3   0   0   0   0   0   0   0   0   0   0   0   0   0   0   0   1   5  42  67  68  69  67  68  69  69  69  69  69  69  69  69  69
  53  53  53  53  52  53  53  54  52  50  52  61  66  51  40  59  85 100  93 101 111 109 113 124 139 152 172 196 207 211 214 202 204 205 200 197 201 207 206 204 205 203 204 203 200 196 194 187 175 161 146 125 101  74  42  16   4   1   0   1   0   0   0   0   0   0   0   0   0   0   0   0   0   0   0   1   0  13  55  68  66  68  70  69  69  69  70  69  69  69  69  69
  53  53  53  53  53  52  53  55  54  51  55  68  71  56  47  71  93 103 111 122 137 148 164 180 194 200 208 215 218 221 222 218 216 208 203 204 208 208 209 210 208 211 210 207 203 198 196 194 189 181 173 167 155 131  99  55  20   5   1   1   0   0   0   1   0   0   0   0   0   0   0   0   0   0   0   0   0   2  27  67  68  69  71  69  69  69  69  69  69  69  69  69
  52  53  53  53  53  53  53  53  55  61  82  81  86  71  52  77 115 129 152 181 196 198 202 211 215 218 222 223 225 222 226 228 224 219 218 221 219 217 217 214 211 213 211 211 207 205 203 195 188 188 186 182 178 172 155 121  70  24   5   3   0   0   0   0   0   0   0   0   0   0   0   0   0   0   0   0   0   0   5  45  71  68  68  69  69  69  69  69  69  69  69  69
  53  52  53  54  53  53  53  53  56  70  77  87  76  70  73 113 152 177 199 199 209 213 217 221 220 222 223 220 226 224 224 227 223 221 226 226 224 224 222 222 221 220 219 212 209 203 203 197 190 193 191 186 186 183 176 162 131  86  39  12   1   0   0   0   0   0   0   0   0   0   0   0   0   0   0   0   3   0   0  11  64  70  69  69  69  69  70  69  70  68  69  69
  53  52  55  56  51  53  52  51  59  70  78  53  66  78 103 154 190 203 209 213 213 216 215 216 220 222 222 222 223 225 227 227 226 227 229 229 227 224 223 223 222 219 216 215 216 206 203 199 195 191 188 186 186 181 177 173 159 138 108  73  38  15   4   1   1   1   0   1   0   0   0   0   0   0   0   4   0   0   0   5  42  68  70  71  74  74  71  70  71  69  69  69
  54  52  55  55  54  52  54  62  67  69  55  50  63  86 144 183 204 209 211 213 216 218 216 218 221 224 224 224 225 226 227 227 227 229 230 229 226 224 224 224 224 223 219 217 217 213 210 206 202 198 195 193 193 190 187 177 160 145 136 125 102  77  48  27  18  11   7   3   2   1   1   0   0   2   0   0   0   0   0   1  21  68  69  69  70  71  69  70  71  70  69  69
  56  53  53  54  57  54  60  73  69  66  42  44  66  90 171 206 211 212 211 214 217 218 218 220 224 227 227 226 228 229 229 228 229 230 231 229 226 225 226 225 225 225 223 219 216 213 211 206 202 200 197 195 195 193 188 176 161 148 141 136 134 129 116  97  74  54  37  24  17   9   1   0   0   0   0   0   0   0   0   0  13  62  72  68  67  69  69  69  71  70  69  69
  57  55  52  54  55  57  67  67  63  56  31  32  63 110 181 207 207 210 213 214 216 217 220 223 226 229 230 230 231 232 231 230 230 230 231 230 227 226 227 225 226 226 225 220 216 212 209 205 201 198 196 195 194 192 188 179 170 157 146 140 139 138 138 130 117 102  79  51  34  19   5   1   1   0   0   0   0   0   0   0  14  60  73  71  68  70  69  69  70  69  71  71
  55  57  53  55  53  59  68  57  48  37  23  34  66 130 188 203 206 211 213 213 214 218 222 225 229 231 231 231 233 234 233 232 231 232 232 231 228 227 226 225 224 225 222 220 218 212 210 207 203 200 198 198 196 192 187 178 169 158 149 145 143 140 143 136 121 112  97  70  45  27  11   2   1   0   0   0   0   0   0   0  11  53  71  71  72  73  70  69  70  69  71  71
  55  56  52  54  52  58  62  44  39  30  35  40  70 160 195 204 211 212 213 214 214 218 222 226 229 231 232 232 234 234 235 234 232 233 233 231 228 226 226 224 221 219 218 217 217 211 211 208 204 201 199 200 199 194 187 181 170 158 154 150 149 144 141 133 122 112  96  73  56  34  13   4   1   0   0   0   0   0   0   1   8  30  55  67  74  73  70  71  70  70  71  71
  55  54  52  55  52  58  55  39  34  28  45  55 100 186 199 204 216 212 214 218 215 218 221 226 229 232 232 232 233 235 236 234 234 234 233 231 228 225 224 222 218 215 213 215 217 212 210 208 205 201 200 200 197 190 183 180 170 159 156 152 147 145 138 132 128 117  98  79  59  39  18   6   2   0   0   0   0   0   0   1   4  10  30  59  72  71  69  72  71  71  71  71
  54  54  55  54  53  54  46  30  26  28  43  66 141 197 196 203 214 215 216 218 218 219 221 226 228 230 232 232 233 234 233 234 234 233 232 231 229 227 225 223 220 215 213 215 218 211 211 209 206 204 201 201 197 188 182 178 169 162 158 151 147 145 140 136 132 124 106  87  66  44  18   5   0   0   0   0   0   0   0   0   4  19  34  60  70  70  70  72  71  71  71  71
  54  55  57  53  51  52  39  26  25  22  43  80 166 200 196 204 212 218 219 219 221 222 223 226 228 230 232 233 233 232 231 231 231 231 231 230 230 229 226 223 221 218 216 216 217 215 209 208 208 204 203 201 195 188 183 178 171 164 157 152 149 140 136 135 133 127 116  98  73  44  18   5   1   0   0   2   0   0   0   0   5  29  53  67  68  70  71  71  70  69  71  71
  56  55  55  51  51  54  36  20  18  27  63 102 178 199 199 204 212 217 219 219 221 222 223 226 227 229 231 231 231 230 229 229 229 229 229 229 229 228 224 220 220 220 218 218 218 218 212 212 209 204 207 207 197 192 188 179 175 164 153 153 151 140 134 133 135 124 118 111  90  53  22   5   1   0   0   1   0   0   0   0   3  23  57  68  69  71  70  70  69  69  71  71
  55  54  54  46  50  52  30  11  11  37  77 116 180 201 200 204 211 217 220 219 221 223 224 226 228 228 229 229 228 227 227 227 227 227 227 228 228 227 225 221 221 223 221 219 221 216 215 214 211 206 206 205 200 194 191 184 176 162 150 147 142 143 139 130 132 125 120 114 103  77  35   8   1   1   0   0   0   0   2   0   1  17  59  71  71  71  70  71  69  69  71  71
  56  55  52  43  51  47  23   6  14  39  71 110 179 199 202 203 209 216 219 219 220 222 225 225 227 228 228 228 227 226 226 227 227 227 227 227 227 227 227 225 227 225 222 221 222 218 214 213 215 212 205 202 201 195 181 170 160 157 151 143 138 136 137 132 128 121 121 117 109  97  61  17   2   1   0   0   0   0   1   0   0  14  58  73  72  71  71  71  70  69  71  71
  53  57  51  40  53  43  16   5  15  34  56 107 174 197 200 203 207 214 220 220 220 224 226 224 226 227 229 229 228 227 228 228 229 229 229 229 229 229 230 231 230 226 222 220 220 218 212 213 213 207 202 192 184 176 162 143 113 117 131 130 126 122 128 132 126 124 121 117 114 102  85  39   7   1   0   0   1   0   0   0   0  12  54  73  72  71  70  70  71  71  71  70
  53  56  50  39  53  39  10   5   9  27  53 109 172 194 199 202 207 214 220 220 220 224 225 224 225 227 229 230 230 230 231 231 231 231 231 231 231 231 232 233 229 224 221 218 212 213 207 206 204 198 187 160 134 113  95  93  75  55  53  71  68  89 115 124 114 125 125 119 115 104  94  65  16   1   0   0   0   0   0   0   0  11  50  73  72  70  70  71  73  74  71  71
  51  57  49  39  54  33   6   6   5  22  52 112 176 196 201 202 206 214 220 221 220 225 226 224 225 228 231 232 232 232 233 233 233 233 233 234 233 232 234 233 227 222 220 215 205 208 201 195 187 163 121  82  64  66  60  60  53  39  24  15  14  28  67 113 117 123 122 122 113 106 101  73  27   3   0   0   0   0   0   1   0  10  48  71  71  69  70  73  76  76  72  71
  58  53  50  38  54  34   5   2   7  21  50 107 165 192 204 203 212 209 216 219 220 223 226 226 227 223 227 234 237 239 239 237 235 234 232 232 232 233 230 225 225 221 214 204 197 195 183 164 128  69  48  44  40  49  51  52  46  39  28  31  33  18  23  72 104 114 119 127 115 112 109  88  37   5   1   0   0   2   0   1   0  10  47  69  69  70  74  71  72  73  72  72
  58  51  53  38  53  40   8   3  12  26  54 111 159 194 202 203 210 209 214 217 221 223 224 226 228 228 230 233 234 236 237 229 237 235 235 236 230 230 228 223 222 213 201 193 168 145 112  72  41  19  17  20  25  30  36  59  75  72  70  68  54  57  41  44  78 100 121 125 117 114 114 100  46   9   1   0   0   0   0   0   1  11  50  73  72  70  72  72  73  73  72  72
  55  53  53  37  51  45  13   2  16  29  53 103 157 190 201 203 208 211 212 216 220 224 221 224 229 229 228 230 230 231 233 228 234 232 231 232 229 226 223 219 213 207 200 170 128  70  21   7   9   8  14  28  66 105 136 143 136 133 130 114  96  97  70  47  61  83 106 109 104 102  98  82  41  27   5   1   2   0   0   0   3  12  51  75  73  70  72  73  72  72  72  72
  52  58  52  36  47  46  13   2  14  28  45  91 149 186 199 203 205 208 212 219 222 223 223 224 224 223 227 228 223 218 221 225 227 227 225 226 225 218 215 213 207 198 185 143  73  27  20  13  21  39  77 112 142 155 149 136 119 101  86  79  64  57  58  46  27  26  38  38  27  16   6   1   0  19   6   1   5   1   2   0   1  18  61  72  73  70  71  73  71  72  72  72
  54  56  52  42  40  45  18   2  15  22  37  77 139 184 202 202 203 206 211 215 215 214 211 209 213 215 212 202 197 204 208 217 220 219 218 220 217 211 209 206 200 189 167 120  62  39  37  47  67  85  97 100  99  93  78  71  72  80  77  71  47  25   8   8   1   0   0   1   2   1   0   1   2  12  13   2   3   1   1   1   4  25  64  70  72  72  72  71  69  71  72  72
  58  55  54  49  38  45  25   4  16  19  31  64 121 183 205 203 200 203 206 201 201 191 182 175 172 164 146 126 129 155 187 204 213 210 213 217 215 210 203 198 189 172 146 101  65  57  70  79  99  90  99 108 108 109 106 108 110 118 120 123 127 106  53  10   5   6  27  33  30  26  21  13   7   9   9   2   4   3   3  20  43  64  78  76  72  73  73  72  69  71  72  72
  58  58  57  53  43  43  32   8  15  20  25  46 107 179 203 205 202 200 189 161 158 137 120 110  97  78  58  47  58  88 131 171 194 200 207 211 215 212 200 191 178 150 109  80  68  74  92  98 111 128 141 144 137 107  73  69  75  79  82  93 121 122 105  32   9  45 108 114 106  92  72  47  28  11   2   1   1   0  13  72 115 120 109  87  73  73  74  72  70  71  72  72
  57  58  58  54  46  39  41  15  11  17  18  29  95 174 199 199 197 189 138  97  91  71  61  58  46  35  25  22  32  51  82 122 156 180 196 203 211 213 206 194 170 128  90  61  65  77 125 142 143 139 130 107  86  64  33  39  53  57  58  74 105 110 108  71  16  94 136 125 116 100  80  66  53  31   7   2   1   0  27  98 114 106  99  87  74  73  73  73  71  72  72  72
  58  57  56  57  50  36  44  25   6   6   9  15  82 174 198 199 194 155  93  82  73  59  52  50  52  54  52  51  55  65  73  81 107 132 162 195 213 218 216 199 163 108  59  40  77 115 132 142 136 111 135 112  54  42  32  50  79  80  63  68  96 108 111  99  17 102 133 120 108  98  89  87  81  60  18   2   2   1  31  87  73  52  51  67  72  70  73  73  71  73  73  73
  58  58  55  58  55  44  37  29   7   4   5   6  70 170 196 196 185  95  76  93  92  81  80  79  87  99 106 109 105 102  99  91  76  63  95 130 169 186 179 142  90  46  21  72 106 124 148 131  83 118 176 155  90  62  63  95 114 104  90 101 115 125 128 116  18  93 126 115 103 101 100 100  93  73  30   3   1   3  40  59  30  22  28  74  87  71  74  71  72  74  73  73
  58  56  57  57  54  52  41  32  13   3   2   3  53 168 192 180 144  76  78  72  89 116 146 161 165 168 165 161 155 149 147 149 134 100  55  48  67  78  67  35  17  12  31  82 117 142 171 110 104 145 168 174 150 130 140 148 145 134 128 141 144 141 141 126  35  90 120 111 105 105 104 104  94  78  41   3   1  27  57  36  64  68  53 101 103  75  73  73  71  73  73  73
  56  55  55  57  54  54  50  41  21   3   0   3  37 140 127  93  51  71  88 100 141 176 187 188 185 178 153 130 115 106 122 144 164 160  95  17  23  25  18   3   0  10  31  65 105 141 157 159 170 172 181 186 183 183 178 167 165 169 169 174 166 164 157 144  76 102 116 111 111 108 105 101  89  77  45   7  11  45  58  61 106 108  94 120 109  75  72  75  75  74  73  73
  57  54  55  57  56  56  54  50  32   9   1   2  34  56  42  33  93  98 135 160 181 183 171 157 135 110  83  66  51  61  96 129 152 165 143  49  20  27  55  82  53  13  11  62  96 114 147 165 170 184 186 193 195 196 191 191 194 195 194 189 183 182 178 164 104 120 125 115 111 106  99  92  80  67  38   7  14  43  44 102 128 121 110 125 109  72  72  75  75  74  73  73
  58  54  55  56  54  58  57  57  41  14   0   1  14  29  24  89 149 135 172 173 170 154 134 112  88  68  83  79  32  52 110 101 113 152 165  82  18  82 181 199 171  84  14  52  98 105 133 151 171 183 194 204 208 211 212 210 208 206 199 198 195 193 192 168  95 128 137 125 116 106  96  86  73  60  33   5  14  31  18  61 109 117 110 118 102  70  70  72  71  73  73  73
  60  57  55  56  58  57  56  56  47  18   2   2   6  26  23 131 187 137 161 151 143 121 100  94 104  80  73  48  39  64 134 123 134 168 183 101  38 148 225 222 202 147  33  38  99 122 133 155 173 184 195 205 213 219 219 214 211 213 205 201 196 193 191 167  69 128 143 130 124 109  95  81  68  55  29   7  23  23  14  44 102 124 111 101  89  68  70  72  70  74  73  73
  58  58  58  57  57  57  57  57  54  27   3   1  24  24  23 119 172 120 124 122 105  88  71  87 148 142  82  63  88 128 177 180 199 214 205 112  54 184 229 223 209 178  84  30  95 144 166 165 171 189 201 207 207 212 216 216 215 214 210 203 200 194 190 170  36 134 146 129 117 101  89  74  61  51  30  12  29  26  39  66 100 132 120  95  85  73  73  70  70  71  73  74
  58  58  58  58  57  57  57  58  54  39  11   4  37  38  16  89 120 103 100  95  88  73  78 119 160 186 179 176 185 199 195 201 204 213 202 132  81 197 225 228 217 186 137  40  52 140 177 185 207 211 207 212 214 213 215 216 218 217 213 206 201 201 188 160  41 155 141 127 116 100  86  72  58  48  27  12  37  48  77  93 104 139 122 100  90  74  72  70  72  72  73  73
  58  58  58  58  58  56  56  58  57  47  18   3  31  26  14  63  93  82  85  89  92  91 104 135 159 179 196 201 205 196 200 202 211 214 207 138 102 209 226 228 217 193 154  98  22  91 164 180 204 219 211 209 214 218 221 218 213 213 211 203 205 196 189 129 128 157 142 129 116  97  80  66  54  44  23  13  38  59  98 104 109 137 133 106  94  74  73  73  73  74  73  73
  58  58  58  58  58  58  58  58  60  56  40  12  32  28  19  40 126 123 119 111 112 129 148 172 190 199 202 203 208 217 219 221 215 221 207 125 121 215 224 228 222 206 164 132  81  18 133 203 192 198 202 214 220 221 221 222 222 218 212 206 195 184 153 132 169 150 136 126 113  93  74  61  51  41  22  17  39  67 104 111 115 138 138 105  87  74  73  76  74  73  73  73
  58  58  58  58  58  58  58  56  57  58  50  34  20  33  93  29 153 178 164 158 155 167 182 194 208 215 219 224 226 228 224 221 223 223 194  95 143 219 219 228 226 213 181 141 127  64  20 148 191 191 200 209 215 219 217 213 211 207 196 180 159 136 160 178 167 144 132 121 106  89  73  61  54  37  18  24  41  49  98 103 116 139 131 100  89  71  73  75  74  73  73  73
  58  58  58  58  58  59  59  57  55  55  52  50  34  39 130 107 127 191 190 190 186 193 197 205 221 229 232 229 230 229 224 225 228 224 175  74 175 218 220 227 225 219 192 159 133 126  74  35 102 142 165 181 189 191 192 185 172 158 151 149 176 193 191 170 155 142 133 117 101  88  75  64  55  33  16  26  32  41  94 103 120 134 121  98  90  71  72  71  73  74  74  74
  58  58  58  58  58  58  58  57  57  57  51  70 113  85 123 163  78 188 202 201 201 205 208 209 221 232 234 230 228 229 229 226 227 213 132  88 199 218 222 228 226 222 200 172 143 123 131  97  53  71 110 137 156 168 178 185 189 195 202 204 197 182 174 159 147 137 129 116 102  90  75  63  51  31  14  25  29  80 115 109 122 130 119 104  85  72  72  70  73  74  74  74
  58  58  57  58  59  58  58  59  60  56  58 126 184 113 103 197  69 140 209 205 206 213 214 214 227 235 234 231 231 228 230 230 220 181 122 153 210 218 222 227 227 220 203 179 145 121 134 142 106  90 122 153 181 195 201 201 197 192 186 182 175 162 158 152 145 136 126 115 102  91  74  60  47  30  18  19  59 110 126 119 121 125 124 101  75  71  72  71  73  73  74  75
  58  59  59  58  58  58  58  58  59  56  81 163 183 111  71 197 146  62 193 207 209 216 217 221 236 242 239 233 233 229 225 214 183 161 172 183 216 215 222 229 230 224 208 182 154 136 140 152 135 112 138 160 175 184 187 189 187 186 183 179 176 167 162 158 149 139 129 117 100  88  73  58  44  32  25  28  71 114 129 128 129 126 107  82  71  72  75  72  72  73  74  74
  58  58  58  58  58  58  58  58  59  56  93 174 147  89  48 170 190  85 115 192 209 215 218 220 231 236 231 222 213 204 198 197 182 188 182 193 216 214 220 230 233 227 214 185 158 139 137 144 140 118 151 190 203 207 208 209 210 207 201 196 192 183 177 171 158 145 136 124 103  87  70  58  43  31  27  49  80 117 132 132 127 105  77  70  75  75  74  74  73  74  74  74
  58  58  58  58  58  58  58  57  59  56  91 167 113 100  74 128 196 173 124 141 160 169 174 175 183 187 186 188 195 198 204 212 209 188 180 205 216 216 219 228 232 228 213 187 158 127 116 118 123 108 133 192 209 218 217 220 220 214 207 203 201 194 189 179 163 149 139 128 108  89  72  56  43  29  25  58  88 110 127 127 103  79  68  69  74  71  72  74  73  74  74  74
  58  58  58  58  58  58  58  57  57  54  76 166 140 159 139  83 188 193 188 173 165 166 165 169 178 191 200 204 209 209 205 200 196 195 203 208 213 214 217 223 227 221 209 181 136  97  96 101 108  98 120 186 206 213 215 218 215 208 203 204 201 196 191 180 164 152 142 129 109  90  71  55  42  30  25  45  73  85  95  93  78  73  70  71  73  71  73  72  70  73  74  74
  58  58  58  58  58  58  58  57  56  57  61 153 181 188 195 109 159 191 198 206 205 204 204 202 199 203 201 198 196 196 201 203 211 218 219 211 208 205 208 214 213 207 196 159 112  85  58  68  92  79 119 178 203 207 213 215 212 204 202 204 199 193 189 177 164 152 143 130 107  85  68  54  40  33  37  54  62  68  70  69  69  72  70  68  72  74  73  72  72  71  74  74
  58  58  58  58  58  58  58  59  58  61  61 119 191 196 215 176 120 186 188 200 211 211 209 205 197 198 197 203 210 216 223 221 227 227 219 215 204 196 191 198 200 189 167 136 101  47  22  36  58  64 130 178 196 204 210 213 209 204 202 201 195 190 185 174 162 153 142 127 104  82  65  52  39  36  47  65  68  70  68  68  71  73  71  70  72  73  71  73  76  73  74  74
  58  58  58  58  58  58  59  60  59  60  60  84 192 198 222 208 173 169 181 199 208 212 212 212 207 213 219 225 227 229 228 229 227 228 223 219 197 163 125 141 170 161 136 122  62  35  29  40  66 111 157 182 193 201 207 207 204 199 198 195 192 187 180 170 160 152 139 122 103  85  67  52  39  37  46  66  70  69  73  70  70  76  71  71  74  76  74  73  73  73  73  74
  60  60  60  60  60  60  60  61  60  58  56  63 174 205 225 220 198 171 181 195 205 209 214 220 223 225 228 231 231 228 228 229 227 224 226 223 210 173 116 125 153 145 119 104  66  53  51  74 107 143 170 183 190 195 200 202 202 197 192 193 187 186 179 175 169 154 139 120 101  82  66  54  39  32  48  67  71  70  71  72  72  71  72  73  73  73  73  74  74  73  74  75
  60  60  60  60  60  60  60  61  60  58  59  60 151 211 230 219 208 180 181 192 203 210 215 220 224 226 228 231 229 226 227 226 222 221 226 226 222 208 183 175 174 157 125  97  75  73  92 110 129 153 172 183 190 194 193 198 200 195 191 190 185 185 178 172 165 152 136 117  99  77  62  53  41  30  45  68  71  71  71  70  72  72  71  72  72  73  72  73  74  74  74  74
  60  60  60  60  60  60  60  60  62  59  58  56 122 210 226 222 209 200 180 185 196 201 211 219 222 224 225 227 226 223 227 223 219 220 225 228 227 223 219 214 206 191 156 129 115 128 149 149 156 168 171 180 186 184 188 191 195 193 186 186 182 183 175 167 157 145 133 118  97  74  58  53  43  31  40  69  71  71  71  71  72  72  72  72  72  73  73  73  74  74  74  74
  60  60  60  60  60  60  60  61  62  60  59  61  75 197 215 217 203 200 187 175 192 200 210 215 220 222 222 224 223 220 222 221 222 224 227 227 225 220 218 216 217 212 190 187 192 202 195 191 191 188 185 184 181 180 182 190 192 188 184 179 176 179 174 166 155 141 130 115  91  71  57  49  41  28  39  68  71  71  71  70  72  72  72  72  72  73  73  73  74  74  74  74
  60  60  60  60  60  60  61  62  62  61  60  57  62 164 208 212 215 202 198 177 182 199 206 211 216 219 220 221 221 218 216 218 222 226 228 226 224 222 222 222 221 222 211 210 220 218 207 199 194 194 186 177 176 167 165 184 194 194 186 177 171 175 172 165 153 138 127 109  85  68  56  47  37  24  40  68  71  71  71  71  72  72  72  72  72  73  73  73  73  73  74  74
  60  60  60  60  60  60  60  61  63  62  58  61  56 116 200 212 222 217 214 200 182 188 199 206 212 215 217 218 220 218 218 222 223 223 222 221 221 220 221 220 214 211 215 214 209 184 168 161 156 147 136 131 135 129 122 143 179 186 183 181 173 176 171 163 149 133 119 102  79  66  56  45  34  21  38  68  71  71  72  71  72  72  72  72  72  73  73  73  73  73  73  74
  60  60  60  60  60  60  60  61  60  60  61  62  57  67 176 212 221 221 224 218 198 184 196 204 209 212 215 218 219 217 218 224 224 219 217 217 219 217 211 201 191 187 188 188 171 156 149 145 135 109  84  72  68  69  70 107 168 187 188 178 178 177 169 158 143 125 110  95  76  62  54  42  32  22  38  67  71  71  71  71  72  72  72  72  72  73  73  73  73  73  73  73
  61  60  61  61  61  61  61  61  59  60  58  59  63  58 118 208 218 218 221 225 209 188 192 200 207 209 213 217 219 217 214 221 222 218 215 219 218 205 189 183 183 184 171 157 135 126 116 114 108  90  83  87  86  99 133 174 195 195 188 185 181 177 166 153 135 118 104  89  73  59  50  40  31  20  38  66  69  72  71  72  72  72  72  72  72  73  73  73  73  73  73  73
  62  62  62  62  62  62  62  61  60  61  60  60  60  59  60 146 200 218 218 227 219 197 188 194 203 207 209 211 215 215 215 220 218 213 210 211 199 166 152 155 152 154 153 138 120 130 136 149 162 164 159 155 156 160 170 185 198 201 196 189 181 173 160 146 123 109  95  82  65  54  45  35  28  23  41  66  69  71  70  72  72  72  72  72  72  73  73  73  74  74  74  74
  62  62  62  62  62  63  62  60  61  60  61  61  60  60  60  70 136 195 212 220 218 201 184 188 198 205 206 206 214 217 217 219 212 207 191 170 144 118 129 144 150 163 176 185 190 203 201 195 188 182 175 167 159 159 173 190 200 199 192 189 180 169 155 136 113  98  87  75  60  49  41  31  24  22  41  66  69  71  71  72  72  72  72  72  72  73  73  73  74  74  74  74
  62  62  62  62  62  62  62  62  61  60  61  61  61  61  60  61  71 114 153 171 180 164 151 174 194 201 204 205 211 214 216 215 209 200 174 152 141 140 168 190 199 207 212 205 199 197 188 178 177 178 174 165 161 171 185 195 197 196 191 186 178 166 153 130 108  90  79  68  53  44  34  25  22  24  42  66  69  71  71  72  72  72  72  73  73  73  73  73  74  74  74  74
  62  62  62  62  62  62  62  62  61  61  61  61  61  61  60  64  60  62  74  88  97  89  89 140 185 197 203 205 206 211 214 216 212 203 195 196 199 199 203 205 204 202 198 185 179 170 161 158 166 175 175 172 177 188 192 196 195 190 185 184 173 159 148 125 104  83  74  60  45  37  29  24  23  28  43  67  69  71  72  73  72  72  72  73  73  73  73  73  74  74  74  74
  62  62  62  62  62  62  62  62  62  61  62  61  61  61  60  62  61  61  57  60  61  60  60 104 166 190 199 206 207 211 218 215 214 210 213 218 214 209 205 206 206 198 181 171 165 158 158 167 183 190 188 187 192 197 195 194 191 186 183 178 167 154 140 118  98  78  65  51  38  32  25  25  28  33  44  66  68  71  71  72  72  72  72  73  73  73  73  74  74  74  74  74
  62  62  62  62  62  62  62  62  62  63  62  62  61  60  61  56  60  59  59  59  59  62  61  73 134 183 193 201 206 209 215 215 216 213 215 220 218 213 209 208 206 199 186 183 181 177 185 194 200 198 198 199 200 199 197 193 189 186 180 176 166 150 132 111  90  71  56  42  34  29  23  26  34  39  45  66  69  71  71  72  72  72  72  73  73  73  74  74  74  74  74  74
  62  62  62  62  62  62  62  62  62  61  62  62  62  61  61  60  60  62  61  60  60  61  61  57  94 159 185 196 202 204 206 213 215 216 217 220 220 217 214 211 209 207 205 201 204 206 206 210 212 211 208 209 209 203 199 195 189 184 179 177 164 146 119 100  75  61  44  34  33  27  22  28  39  42  45  65  69  71  71  72  72  72  72  73  73  73  74  74  74  74  74  74
  62  62  62  62  62  62  62  62  61  61  61  60  60  61  61  61  61  61  60  60  60  60  61  58  65 120 175 193 196 201 202 209 212 216 217 219 217 216 216 215 214 212 213 215 220 224 224 226 226 223 220 219 216 209 202 197 192 186 179 173 157 139 113  92  63  47  35  31  28  22  25  40  49  48  45  68  71  68  71  71  71  72  72  73  73  73  74  74  74  74  74  74
  62  62  62  62  62  62  62  62  61  61  61  61  61  61  61  61  62  61  60  61  61  60  59  60  63  82 148 184 191 199 197 201 208 213 214 215 215 215 215 216 217 218 221 225 229 227 227 230 232 226 222 219 213 208 202 197 191 180 169 160 147 125 102  76  52  40  32  29  24  22  35  49  56  53  47  67  71  68  71  71  70  72  72  73  73  73  74  74  74  74  74  74
  62  62  62  62  62  62  62  62  62  62  62  62  62  63  62  62  61  61  60  61  60  60  59  59  59  60  98 159 183 193 197 196 200 209 212 212 215 216 216 220 222 224 226 230 234 230 229 233 233 228 223 216 210 205 199 195 188 173 159 149 132 104  84  57  41  35  30  29  22  29  46  58  62  57  47  66  72  68  71  71  69  72  72  73  73  73  74  74  74  74  74  74
  62  62  62  62  62  62  62  62  62  62  62  62  62  62  62  61  61  61  61  60  60  60  60  58  55  61  61 118 165 183 196 194 195 201 208 211 212 212 217 220 224 227 228 230 232 231 230 231 232 226 221 214 205 200 193 185 178 167 154 137 111  83  63  42  37  34  33  29  26  39  57  66  66  59  45  61  70  70  70  72  71  73  72  74  73  73  74  74  74  74  74  74
  62  62  62  62  62  62  62  62  62  62  62  62  62  62  62  61  61  60  60  60  60  60  59  59  60  59  58  89 152 166 181 186 192 195 201 207 210 210 214 219 224 226 228 229 231 230 226 226 223 220 215 209 201 193 184 173 165 154 137 115  86  62  46  38  38  36  34  29  33  50  67  71  70  65  49  58  70  70  69  72  71  72  71  73  73  73  74  74  74  74  74  74
  62  62  62  62  62  62  62  62  62  62  62  62  62  62  62  61  61  61  60  60  61  60  59  61  61  62  58  76 146 156 164 175 186 192 198 205 210 213 216 219 222 224 223 224 226 225 220 219 217 214 210 202 196 189 177 162 152 140 113  85  61  47  38  40  40  38  34  31  42  60  75  79  80  72  57  57  70  70  69  73  72  72  73  73  73  73  74  74  74  74  74  74
  62  62  62  62  62  62  62  62  63  63  63  63  63  63  63  62  61  61  60  60  60  60  61  60  61  60  59  63 146 168 158 162 170 180 190 198 204 209 212 214 217 216 217 219 219 215 211 211 212 210 205 198 189 178 162 147 132 114  82  60  45  38  42  45  43  42  37  40  55  73  84  88  88  78  61  55  71  72  69  72  72  72  73  73  73  73  74  74  74  75  75  75
  62  62  62  62  62  62  62  62  63  63  63  63  63  63  63  62  62  61  61  60  60  60  60  61  60  59  59  58 130 188 166 153 151 161 176 186 193 198 203 206 208 210 212 214 216 210 207 208 209 207 200 191 180 163 144 128 109  87  58  46  42  40  49  50  45  44  43  51  66  83  92  95  94  81  61  53  71  71  70  72  72  72  73  73  73  73  74  73  74  74  75  75
  63  63  63  63  63  63  63  63  62  62  62  62  62  62  62  61  62  62  62  62  60  60  61  62  62  59  61  61 107 189 194 168 147 147 158 169 178 187 194 195 197 202 205 206 205 202 201 201 201 198 189 177 162 139 120 106  85  62  49  46  48  54  54  49  45  45  49  61  79  93 100 101  95  86  70  50  71  69  71  70  73  72  74  73  73  73  73  73  74  74  75  75
  63  63  63  63  63  63  63  63  62  62  62  62  62  62  62  61  62  62  62  61  62  60  60  61  62  59  61  59  90 179 202 193 170 149 144 148 158 168 174 181 188 191 192 193 193 192 190 189 189 184 171 156 138 115  96  79  64  54  53  55  55  59  53  47  46  50  59  72  87 100 105 104  99  88  72  52  69  69  71  71  72  73  73  73  73  72  73  73  73  74  75  75
  63  63  63  63  63  63  63  63  63  63  63  63  63  63  63  62  62  62  62  62  62  62  61  60  61  62  61  58  71 169 202 204 194 172 152 143 143 145 148 157 165 171 174 176 177 171 169 166 164 156 140 122 105  87  74  66  60  59  62  63  57  57  51  45  48  57  71  85  96 108 110 108 103  92  75  55  65  70  72  70  72  73  73  73  73  73  73  73  74  74  75  75
  63  63  63  63  63  63  63  63  63  63  63  63  63  63  63  63  62  62  62  62  62  62  62  61  60  61  61  59  60 160 205 205 203 194 172 155 148 140 134 136 139 142 143 143 144 136 135 131 123 114 100  88  80  74  69  68  66  65  63  56  51  51  48  46  53  65  82  96 105 113 115 112 106  94  77  56  63  70  71  71  72  73  73  73  73  73  73  73  74  74  75  75
  63  63  63  63  63  63  63  63  63  63  63  63  63  63  63  63  62  63  62  62  62  62  62  61  60  61  62  62  56 149 205 210 210 204 190 172 158 151 142 135 127 122 117 114 110 107 105 101  94  89  83  83  83  79  75  73  68  62  57  48  45  48  47  50  61  77  92 104 111 117 116 112 109  96  80  59  59  70  71  71  72  73  71  73  73  74  73  73  74  74  75  76
  63  63  63  63  63  63  63  63  63  63  63  63  63  63  63  63  62  62  62  62  62  62  62  61  60  61  61  62  56 134 206 216 216 209 200 188 174 166 157 148 138 127 117 110 104  95  96  98  97  94  92  90  87  79  71  65  57  53  50  47  48  51  53  58  72  88 102 112 117 120 119 114 113 100  83  61  56  71  71  71  72  73  71  73  73  73  73  73  74  74  74  75
  63  63  63  63  63  63  63  63  63  63  63  63  63  63  63  63  63  63  62  62  62  62  61  60  60  63  63  62  56 120 204 214 218 216 211 203 188 175 165 161 153 141 129 120 115 108 108 105 102  96  88  81  75  67  60  56  51  49  53  56  56  58  59  67  80  95 110 119 121 123 121 117 117 103  87  62  56  72  72  72  73  72  69  73  73  73  73  73  74  74  75  76
  63  63  63  63  63  63  63  63  63  63  63  63  63  63  63  63  64  64  63  63  63  62  62  61  62  63  61  61  59  99 196 213 219 221 219 215 208 195 180 174 170 168 160 148 139 131 117 104  95  84  74  68  64  61  60  58  55  57  62  70  67  65  66  74  91 107 116 122 125 126 124 119 114 106  90  65  51  71  69  71  74  73  72  71  72  72  73  73  74  76  75  74
  63  63  63  63  63  63  63  63  63  63  63  63  63  63  63  63  63  63  63  63  63  62  62  62  62  62  61  61  59  92 193 213 219 222 222 220 217 209 197 186 183 184 185 184 184 181 169 158 149 134 120 108  96  88  85  81  75  73  73  77  74  72  74  83 100 116 124 125 127 130 127 122 113 108  93  71  55  70  69  70  71  73  75  74  73  73  73  73  72  71  74  74
  63  63  63  63  63  63  63  63  63  63  63  63  63  63  63  63  63  63  63  63  63  62  62  61  63  63  61  62  59  89 190 212 220 222 224 222 220 219 214 203 195 193 193 197 201 205 201 200 197 190 180 168 154 140 126 109  96  86  84  83  80  77  82  94 108 119 129 131 134 133 129 124 116 112  97  76  57  60  69  71  70  70  71  74  74  72  74  74  73  73  74  75
  63  63  63  63  63  63  63  63  63  63  63  63  63  63  63  63  63  63  63  63  63  62  62  62  61  61  61  62  59  82 186 210 219 222 226 224 224 221 217 212 205 201 200 202 206 213 210 214 219 217 209 199 190 175 147 122 107  97  98  94  87  88  94 103 115 126 135 139 139 136 131 125 119 115 102  81  58  50  65  73  71  68  68  70  71  73  72  73  73  75  74  74
