P2
# Generated by OpenCV 4.2.0
92 112
255
 208 206 206 208 207 185 114  41  36  37  38  39  38  38  38  37  38  38  37  37  38  39  38  37  36  36  37  36  38  39  37  38  38  37  37  38  37  38  38  37  37  37  37  38  38  38  38  38  38  38  38  38  38  38  36  37  38  37  38  38  38  39  38  38  37  37  36  37  38  38  39  38  38  38  38  37  39  39  37  38  38  37  39  38  38  37  36  37  37  39  42  51
 208 206 206 208 192 139  63  36  38  37  38  37  39  38  38  39  38  38  39  38  38  40  39  38  38  38  38  39  38  39  39  39  37  38  37  37  37  37  37  36  36  37  37  37  38  38  38  38  39  38  38  38  37  38  38  38  38  39  37  39  37  39  39  38  38  37  37  37  37  38  38  38  38  38  38  39  39  38  37  37  37  38  38  38  38  38  38  38  38  37  39  47
 208 209 209 194 144  66  34  38  38  37  37  38  38  39  38  38  38  39  40  39  39  39  39  39  38  38  38  38  38  38  40  38  37  37  38  37  38  39  38  41  43  40  38  36  38  38  38  38  38  39  38  38  38  39  39  38  37  39  37  38  38  39  39  37  38  38  39  38  38  38  37  38  39  38  38  38  38  38  37  37  37  38  39  37  38  38  38  39  37  36  37  42
 212 206 186 139  68  35  38  39  39  38  38  37  38  38  39  38  38  39  39  39  38  38  39  39  39  39  37  38  38  38  39  38  38  40  38  37  38  39  41  56  62  50  39  37  38  37  37  38  39  39  38  39  39  38  39  38  38  39  38  38  39  39  38  39  39  38  38  38  38  38  39  38  38  39  39  39  39  38  38  38  38  38  39  39  39  39  38  38  37  37  37  38
 194 169 117  57  34  38  38  38  38  38  38  38  37  37  38  38  38  39  39  38  37  38  38  38  39  38  38  39  39  41  41  38  40  42  37  38  40  38  41  53  57  48  42  42  45  47  46  47  45  40  37  38  39  39  41  39  39  39  38  39  39  39  38  38  38  39  39  38  38  38  38  39  38  38  39  38  38  38  37  38  39  39  39  39  40  40  40  39  38  37  37  38
 124  84  44  35  38  38  39  39  37  37  39  39  38  37  37  37  37  37  38  37  37  38  37  38  38  38  40  41  42  41  40  39  42  41  34  33  39  36  37  46  48  50  48  50  54  50  46  44  42  39  39  39  39  38  39  39  39  38  37  38  38  38  39  39  39  39  39  38  38  38  38  38  38  39  39  39  39  38  38  38  38  39  38  39  39  40  39  39  38  38  38  37
  44  36  37  39  38  38  39  38  37  38  39  39  38  38  37  38  37  37  38  38  38  38  37  37  37  39  40  43  44  43  41  40  39  33  29  23  21  28  32  32  43  50  46  44  41  41  48  43  32  33  39  41  39  40  37  39  40  38  39  38  39  40  39  39  38  39  39  39  39  38  37  38  38  39  39  39  39  39  37  38  38  39  38  39  39  38  39  39  37  38  39  39
  37  40  39  38  38  39  39  38  39  39  38  38  37  38  38  37  37  39  39  39  38  38  38  37  37  39  39  38  37  38  42  42  38  31  30  25  19  20  25  26  34  37  43  42  45  49  49  40  33  34  41  41  40  47  42  42  40  37  39  40  39  40  40  39  38  39  38  39  40  39  39  38  39  38  39  39  38  39  39  38  40  38  37  38  38  39  38  39  38  37  36  38
  38  37  38  39  38  39  38  38  38  38  38  37  37  38  38  38  39  39  39  40  40  39  39  40  41  36  35  36  35  35  38  39  33  30  25  25  26  26  21  24  24  26  32  35  44  46  45  37  30  36  37  40  44  54  53  53  50  49  43  39  40  39  40  39  39  38  39  40  39  39  39  39  38  38  39  38  38  39  39  39  38  38  38  38  38  39  38  38  39  38  38  38
  38  38  37  38  38  38  38  38  38  38  37  37  37  38  37  38  38  39  39  38  38  38  40  39  31  31  35  37  34  28  28  29  22  17  18  28  25  16  18  21  26  35  35  28  33  38  39  43  39  42  44  44  44  40  34  39  43  47  49  49  43  38  37  39  40  38  39  39  39  39  39  40  39  39  39  39  38  39  38  38  39  40  39  38  39  38  39  38  38  38  38  38
  38  37  38  39  38  38  39  39  38  38  39  38  38  38  38  39  39  38  39  38  41  43  39  33  31  36  35  32  27  26  27  25  20  18  26  29  22  21  23  29  29  26  27  36  40  48  52  54  55  54  62  60  53  45  46  41  40  41  43  44  45  48  41  38  39  38  39  39  41  40  40  40  39  40  39  39  39  39  39  40  39  39  38  39  39  39  38  38  39  39  38  38
  38  38  38  38  38  38  39  39  40  39  39  37  38  38  39  39  38  40  43  40  37  30  28  28  33  42  37  27  23  32  30  23  18  23  28  26  26  30  32  31  27  31  42  47  48  56  55  55  58  56  58  53  57  60  52  52  54  51  51  51  44  44  55  44  38  39  39  39  39  40  38  40  39  39  39  40  39  38  39  39  39  39  39  38  39  39  39  38  38  39  38  38
  38  38  38  39  39  38  38  38  39  39  39  39  38  39  39  39  39  40  41  29  30  32  32  29  24  31  23  21  32  37  18  17  22  26  29  26  24  29  33  32  42  53  58  57  59  61  64  64  60  61  62  58  52  55  54  53  48  52  56  59  56  49  46  48  46  40  38  38  40  39  39  40  40  39  39  39  39  38  38  37  39  40  39  39  39  39  40  39  39  40  39  38
  39  38  38  38  39  39  38  38  39  39  38  40  38  38  39  39  39  36  23  31  32  26  23  18  20  24  19  21  43  26  21  24  24  19  25  22  25  29  32  39  55  63  63  63  66  62  62  64  64  62  64  63  61  61  55  52  44  38  36  35  46  50  50  48  48  50  42  38  39  39  40  40  40  40  40  39  41  39  39  38  38  39  39  39  40  39  40  40  39  39  39  39
  39  39  38  38  40  39  38  38  38  39  39  40  39  38  39  40  39  25  29  28  20  23  21  21  16  19  23  34  38  20  19  21  25  27  29  35  42  45  53  63  61  64  64  61  50  46  52  56  53  61  59  55  52  53  59  58  49  45  40  28  25  26  32  49  53  48  48  47  41  39  39  40  40  40  39  39  39  39  40  40  39  39  39  38  39  39  39  39  39  38  38  39
  40  39  39  39  40  39  39  39  39  39  39  38  39  39  39  40  28  32  33  21  29  33  28  17  14  14  28  35  24  22  22  24  28  34  43  44  40  47  49  46  51  54  44  37  39  47  57  62  66  65  62  60  56  50  46  31  22  23  25  31  33  25  20  28  41  51  40  43  46  44  40  39  40  39  39  39  38  40  40  41  39  39  39  39  39  39  40  39  39  38  39  39
  38  38  39  39  39  39  39  39  39  39  39  39  40  39  40  34  24  34  28  31  34  27  17  16  11  14  23  22  16  18  22  32  42  50  48  39  32  30  37  43  39  37  31  31  36  48  57  64  65  66  60  51  43  43  38  33  32  31  23  23  37  41  32  28  25  34  39  37  36  42  44  41  40  39  39  40  39  40  40  40  39  39  40  40  40  40  39  39  39  39  39  39
  39  38  39  38  38  38  38  39  39  39  39  41  40  40  41  36  30  36  38  30  20  12  16  17  12  17  25  15  13  17  21  24  28  39  43  47  43  41  44  29  19  27  28  29  38  50  56  56  57  50  34  30  30  33  36  41  48  53  50  53  53  46  39  29  31  29  28  40  44  33  38  46  41  39  39  39  39  39  39  40  40  39  39  40  40  40  40  40  39  40  39  38
  40  38  38  37  37  38  39  39  38  39  39  40  39  41  42  45  38  35  31  14  11  18  18  14  18  25  19  16  12  16  17  18  21  28  31  35  41  49  50  42  25  24  23  32  44  46  40  36  33  29  30  33  35  42  46  43  44  48  50  50  42  38  33  26  20  19  24  27  35  41  38  40  52  46  40  41  40  38  38  39  40  41  40  39  39  40  40  40  40  39  39  39
  39  37  38  39  38  38  39  39  40  40  40  40  41  38  40  35  31  35  12  12  15  23  20  19  26  23  15  17  16  15  16  23  31  35  36  38  33  34  45  53  32  20  25  32  34  40  42  39  40  44  45  44  39  39  42  43  45  49  49  52  54  44  33  27  22  17  16  22  28  34  38  39  45  56  50  41  39  40  39  40  40  40  39  39  40  40  41  40  40  40  39  39
  40  38  37  38  38  38  39  39  41  39  40  42  42  41  37  28  28  24  11  13  20  19  17  22  26  18  19  16  15  16  23  32  45  51  52  48  42  39  32  32  40  49  56  59  57  57  46  39  41  47  44  42  41  40  43  49  54  54  51  51  46  45  50  47  46  46  36  23  27  39  40  38  41  47  61  53  41  39  39  40  40  40  40  39  39  39  40  40  39  40  40  40
  39  39  39  39  38  39  39  39  39  40  43  40  45  43  31  25  21  18  15  22  18  14  17  24  15  23  31  26  24  23  24  29  38  33  26  22  22  30  37  42  50  48  45  47  46  42  39  41  46  47  50  51  54  53  53  57  53  49  46  38  31  31  45  52  54  50  48  39  37  30  32  44  40  42  52  55  54  42  39  39  39  40  39  40  40  40  40  39  39  39  40  39
  40  40  39  39  39  39  38  39  39  40  42  40  43  30  28  15  19  29  30  27  27  24  21  18  24  33  38  45  33  23  27  23  16  15  18  26  35  32  32  29  32  32  30  29  24  23  28  30  37  43  46  47  47  50  53  47  40  40  43  49  57  42  40  39  44  51  54  44  34  30  25  29  37  30  45  50  55  53  39  39  40  40  40  40  40  40  39  40  39  40  40  39
  38  39  39  39  39  39  38  39  39  39  40  41  35  29  23  10  22  37  39  44  37  31  24  21  28  35  42  43  39  29  27  26  21  22  30  35  22  23  28  28  41  47  39  25  23  27  34  28  26  31  39  45  45  47  40  36  35  31  41  51  54  60  49  42  41  42  49  48  45  32  28  27  30  34  31  43  55  56  49  42  40  40  40  40  40  40  39  40  41  40  39  39
  38  39  39  40  38  36  38  39  40  41  40  42  28  36  21  15  18  33  56  52  41  34  30  29  36  39  42  42  44  45  36  34  30  33  32  29  29  31  35  41  43  35  21  22  20  25  29  33  29  30  32  29  27  36  43  46  54  52  44  45  43  51  54  54  51  43  39  42  36  33  33  31  25  31  36  38  52  56  54  45  39  40  39  39  39  40  40  40  40  40  40  40
  39  40  38  39  39  38  39  40  41  39  43  42  35  33  20  36  48  58  49  36  28  27  32  41  51  56  52  55  65  58  50  53  54  46  34  31  31  35  39  36  33  28  33  36  30  28  27  33  34  32  43  40  35  45  45  38  39  47  47  49  44  46  41  42  48  56  48  39  40  29  24  25  31  25  26  35  42  52  53  56  42  40  39  39  40  40  40  41  40  41  40  40
  38  40  40  39  38  39  39  40  43  39  45  46  39  25  32  42  51  40  33  30  28  28  42  64  79  63  57  71  77  79  71  94  84  61  48  43  52  67  57  49  57  43  49  50  52  37  31  43  45  40  53  66  55  56  66  66  57  46  50  48  49  55  54  46  48  44  46  50  41  44  32  23  24  31  25  22  22  41  53  57  53  39  40  40  40  40  40  40  41  40  40  40
  38  39  39  38  38  39  39  38  40  44  49  45  44  22  31  43  39  36  40  37  30  43  67  89  81  55  69  80 106  99  91 111 109  97  83  72  74  76  63  75  73  56  74  71  70  51  40  39  49  56  54  75  89  78  91 103  89  74  60  50  52  63  67  64  55  52  43  40  46  41  39  32  25  23  22  24  21  37  49  48  59  46  40  41  40  40  41  40  40  40  41  40
  39  39  38  38  39  38  39  40  43  55  48  36  42  37  34  38  45  42  49  52  55  65  81  93  79  65  77 103 132 129 103 118 137 130 113 102 101  90  78  86  77  80 116  92  88  65  48  54  58  58  61  69  95  97  92 109 109 101  82  67  50  53  59  60  58  52  50  37  30  37  37  36  28  22  20  27  28  32  58  54  48  52  43  40  40  40  39  40  40  40  40  40
  38  39  39  39  39  39  43  42  47  52  37  34  44  35  34  42  44  42  45  42  57  80  94 100  69  77  86 117 145 157 121 115 142 143 139 121 108 100  91 105 107 104 132 114  94  77  63  60  70  67  71  69  89 111 111  96 118 126 112  87  74  53  58  52  45  50  46  42  35  25  28  29  26  21  21  23  29  27  47  63  45  51  48  40  40  38  39  40  40  40  40  40
  39  39  39  39  40  40  40  43  51  44  24  36  35  28  31  39  43  44  38  42  58  78  83  77  74  82 101 135 151 166 156 124 154 157 144 130 126 126 109 130 125 113 131 124  91  97  95  67  76  73  98  88  83 104 123 105 113 132 129 115  92  72  65  63  49  39  33  30  31  37  27  25  23  25  21  23  22  23  28  37  49  43  47  40  40  40  40  40  41  40  40  40
  38  38  38  39  39  39  40  45  55  29  23  31  30  28  41  35  37  37  36  57  76  71  84  94  95  94 125 151 164 174 177 151 133 157 153 149 144 136 122 133 128 120 140 127  98 106 114  83  86  83 104 130  84  80 120 126 109 127 140 139 120  85  73  73  53  44  39  32  18  26  32  28  29  22  21  22  23  29  27  24  34  35  38  42  39  39  39  40  41  41  41  41
  39  39  39  38  39  40  39  46  47  22  33  23  29  27  35  28  37  34  43  80 109 102  98 110 106 112 138 160 172 181 179 177 144 146 160 157 145 141 132 126 135 127 148 127 127 115 123 102  89 102  92 143 138  83  85 131 124 111 144 156 152 131  91  82  68  41  40  40  28  19  19  25  31  25  21  30  31  31  34  33  28  31  33  40  41  40  40  40  40  39  40  41
  39  39  39  38  39  39  39  46  31  26  27  23  23  28  25  31  36  38  61 100 122 125 136 136 127 133 145 159 176 182 181 185 175 154 160 155 146 139 139 121 147 140 137 142 153 130 125 116  87 103 106 116 160 143  91 100 134 131 131 168 175 171 140 105  88  58  40  37  30  19  20  22  23  24  36  37  34  29  21  31  29  32  38  36  43  42  41  41  40  41  40  40
  39  39  39  39  38  39  41  47  23  26  27  23  21  27  32  34  31  35  70 105 128 139 150 150 153 154 156 163 173 179 183 185 182 164 157 152 156 142 136 124 141 140 138 158 169 148 132 129 112  91 104 107 132 160 116  85 104 126 131 153 182 182 173 146 122  90  55  37  29  23  18  23  22  35  65  55  44  36  26  27  28  25  43  41  41  40  41  41  41  40  40  40
  40  40  38  39  39  40  42  44  16  25  26  26  22  34  41  36  31  33  65 113 139 155 156 163 163 163 166 171 172 174 180 186 185 176 165 155 152 155 148 142 141 159 152 166 176 168 142 135 139 114  88  96 114 138 144  87  90 126 123 128 169 185 182 175 167 150 117  77  51  29  23  25  27  96 128 101  80  57  42  37  39  50  42  47  39  42  41  40  41  40  40  40
  40  39  39  40  42  43  36  22  11  21  24  32  26  46  45  42  41  41  72 102 131 156 165 168 168 165 168 173 173 173 178 184 186 183 170 157 148 168 167 153 144 157 162 159 172 179 167 144 139 145 120  91  87 107 129 103  79 107 136 111 137 183 183 182 177 174 166 145 111  85  53  91  95  74  83 123 126  79  42  58  56  61  56  44  43  43  45  43  40  40  40  39
  40  39  40  40  41  42  27  12  12  18  25  33  50  62  53  56  62  68  71  98 134 154 165 168 170 171 171 173 175 177 176 180 181 176 164 156 177 174 178 162 154 143 159 166 169 176 176 164 137 127 134 130 116  96  97 118 114  93 112 142 132 155 187 189 184 178 174 170 156 133 105 116 150 145 141 153 153 111  43  40  55  52  54  43  44  48  47  46  40  40  40  40
  40  40  40  40  41  40  18  13  13  19  25  42  61  62  52  66  68  75  84 117 142 155 164 169 172 174 172 174 176 182 184 183 180 175 171 182 181 177 180 178 163 154 143 155 177 178 170 165 163 157 140 138 129 127 120 122 137 135 133 150 141 142 189 192 190 188 187 178 174 171 162 156 149 167 175 169 157 130  66  43  50  40  31  34  37  46  46  44  42  40  40  40
  40  39  39  40  40  39  15  15  15  21  23  43  52  58  58  57  63  80 111 135 147 161 166 169 171 175 173 174 178 179 179 176 173 177 191 191 189 190 188 190 180 171 156 137 148 181 184 181 174 174 174 165 162 156 157 156 158 172 171 172 159 155 177 190 189 193 194 194 188 185 184 179 179 173 173 172 162 138  86  50  46  37  36  39  37  43  46  44  42  42  40  40
  40  39  38  39  42  39  15  14  18  23  23  35  50  56  64  57  71 103 123 139 149 160 165 172 173 175 174 174 174 172 172 174 182 193 193 192 193 192 190 193 193 186 177 161 132 142 176 189 187 175 178 176 180 184 181 177 180 180 180 183 181 174 181 191 194 192 195 195 193 185 185 180 180 176 174 172 166 145 103  52  49  46  42  29  29  39  44  41  42  42  42  41
  39  42  50  41  38  36  17  10  15  17  19  27  49  60  55  56  79 107 125 132 148 161 167 172 176 176 176 174 174 172 178 188 192 193 194 196 195 194 192 195 199 194 192 187 178 160 167 180 190 188 190 191 189 187 185 181 183 186 189 193 193 189 191 190 194 195 197 196 193 190 185 182 180 178 176 174 165 153 107  54  46  42  38  17  20  39  44  42  41  42  42  41
  35  99 135  99  68  62  22   9  15  14  20  23  44  48  52  60  79  97 116 129 148 160 170 174 176 176 176 175 174 178 184 188 190 192 193 194 194 198 199 203 203 202 200 198 192 185 174 182 192 193 196 196 195 192 190 185 190 191 194 196 198 195 198 198 198 198 198 199 194 191 186 181 180 180 179 175 166 152 120  64  40  35  36  22  23  42  42  43  42  41  41  41
  65 164 196 172 144 139  53   5  12  18  21  24  30  39  50  62  71  92 119 123 144 163 170 174 174 174 178 178 178 179 182 186 191 192 193 195 197 199 202 203 204 204 204 203 200 197 195 196 199 198 198 199 199 197 196 192 191 193 195 200 199 199 201 201 201 201 199 199 196 189 186 182 180 182 178 174 169 155 126  79  40  32  22  26  28  42  44  43  42  41  40  40
  99 188 215 189 162 156  75   3  11  23  16  25  33  33  41  55  64  88 111 122 151 166 173 171 173 175 177 179 178 179 182 187 193 192 194 195 197 203 204 203 205 206 206 204 201 202 201 199 197 201 199 200 202 201 199 196 195 197 199 203 202 202 201 200 202 203 200 200 197 191 187 184 182 181 179 176 172 166 138  88  52  25  15  22  28  47  43  42  42  42  41  40
 127 196 203 153 107  98  59   7  11  12  13  21  25  26  34  45  56  79  95 129 152 166 176 171 172 174 176 178 177 179 183 186 190 193 195 193 198 203 203 204 205 207 205 204 205 207 204 203 199 199 200 201 202 203 204 201 203 201 200 205 204 203 201 201 202 201 198 198 196 194 187 184 182 180 177 176 173 171 151  93  49  32  17  14  22  43  42  42  42  42  41  41
 153 194 172  81  41  45  35   8  10  11  15  16  16  20  26  37  46  55  86 128 155 168 173 172 173 174 175 175 177 181 183 183 186 192 191 191 197 195 197 199 198 203 203 203 204 209 209 207 206 203 204 204 205 206 206 204 203 206 204 207 208 200 200 200 199 195 192 193 193 188 185 182 179 180 177 175 172 172 157 101  51  29  21  12  16  40  41  41  41  40  41  41
 165 182 131  43  38  41  32   8   9  10  12  14  15  17  25  33  41  56  97 147 167 171 170 170 171 171 170 173 176 180 180 177 175 181 182 184 181 181 186 193 195 194 197 199 197 204 208 209 211 209 210 209 209 209 207 207 207 207 205 199 204 200 194 194 190 187 185 184 180 170 158 172 177 176 179 175 173 173 164 103  53  31  22  13  17  38  40  39  39  40  41  40
 154 155  91  36  40  42  35  10   8   7  11  14  11  15  23  31  34  68 123 157 171 171 172 169 167 170 171 170 172 176 158 136 142 153 151 146 152 158 172 184 186 183 179 183 186 193 198 203 205 202 208 211 207 207 206 204 200 197 193 187 191 191 187 182 170 158 150 136 145 131 116 121 159 171 178 176 174 173 170 116  50  31  21  13  20  40  39  39  38  40  40  40
 116 108  58  37  40  42  37  12   9  10  13  13  11  12  20  25  33  84 143 162 171 172 170 169 166 166 166 167 161 137 105 104 116 104  93  87  82  74  75  80  91 101 129 149 168 181 190 190 193 190 194 201 201 196 192 188 185 184 176 170 162 147 128 108  96  83  83  92 101 102 102  98 113 136 170 177 173 174 174 127  53  34  20  12  23  39  37  38  38  39  39  39
  67  60  43  41  41  40  42  20  10  11  14  15  11  12  15  19  38  99 157 166 169 170 169 171 166 164 163 159 118  94  99 104 103  86  70  60  51  35  29  33  33  35  62 101 145 163 174 182 182 183 184 186 190 186 182 179 176 175 154 132 100  56  40  36  41  41  55  75  83  91  99  90  95  92 113 172 175 174 175 134  58  40  19  19  30  37  37  37  38  38  38  38
  43  41  41  42  42  40  44  28   8  12  16  16  11  12  16  21  52 123 159 169 172 170 169 169 165 158 148 101  91  95  92 104  91  78  67  61  51  36  36  38  35  49  69  82 119 149 164 174 175 177 179 177 179 178 181 177 172 158 122  79  43  30  35  37  35  37  70  79  81  82  82  97  93  87  91 150 177 173 174 141  53  32  23  20  33  37  36  38  37  37  37  37
  39  40  40  40  40  41  42  32  11  13  15  13   9  10  14  16  62 136 162 170 171 171 170 168 167 155  97  72  88  75  71  83  82  71  58  54  54  44  39  47  69  81  89 100 108 132 153 159 167 172 176 179 178 176 172 167 160 138 103  85  71  60  61  63  58  66  83  84 104 114 124 145 137 113 101 127 171 175 179 142  42  21  21  22  38  38  38  37  37  37  38  38
  39  39  39  39  40  41  42  36  12  12  17  12   7  10  12  18  67 141 170 174 176 180 177 176 170 132  98 101 116 123  96  49  47  49  67  84  94  97  89  69  52  75  88  87 107 120 130 148 167 179 186 190 184 181 178 166 143 125 116  86  45  41 104 105  77  85  86  83  72  60  57  66  93 123 132 141 172 186 187 144  32  16  16  23  39  40  38  38  36  36  38  38
  37  38  38  39  40  40  42  40  18  14  22  11   7   8  11  18  62 123 149 148 144 140 134 116 110  95  54  51  86  75  53  88 110 144 138 129 123 118 116 157 163 111  97  50  31  66 109 138 141 146 154 156 156 135 124 108 115 102  43  19  47  81 101 117 156 100 105 123 137 147 136  93  32   9  43  77 107 127 150 116  24  15  12  26  39  39  37  37  36  36  38  38
  36  37  38  40  40  40  41  42  25  10  22  11   6   8  13  17  24  32  36  31  26  31  42  33  19  30  63  43   1  19 114 132 114 135  94  51  41  29  32  91 132 108 129 139  92  16  39  54  21  19  21  25  45  16  11  11  34  26  27  89  99  77  57  48  99  33  32  52  79  93 123 163 165  87   7  13  31  23  16  57 133  27   9  31  40  39  36  36  36  36  38  38
  33  33  36  37  38  40  41  43  31   9  22  18  15  17  12  13  15  16  15  15  16  23  28  35  12  33  97  81  33 119 129 101  83  50  50  37  64  66  65  70  92  88 106 118 147 112  10   1   3   4  14  22  22  18  14   9   4  11 117 128  92  87  59  50  51  41  41  70  52  71  74 101 127 147  85  36 102  69   0  58 149  20  17  36  38  37  36  37  36  37  37  37
  30  32  32  34  37  39  39  40  30   8  13  21  16  29  27  16  16  27  46  62  72  80  77  76  69  33   9   9  82 127  97  71  41  82 132  69  42  38  48 111 167  96  75  97 114 134  93  10  25  92 125 141 138 117 113  44   0  89 150 107 114 158 117  48  35  45  65 129  79  43  60  67  76  83 117  46   4   1  20  67  88  22  33  38  37  36  37  37  37  36  36  37
  29  29  29  32  34  35  32  36  55  36  10  13   9  14  25  22  26  71 120 127 122 116 113 111 121 117  21  12 102 102  93  76 100 138 156 122  76  78  83 136 146 131 105 110 126 138 139  52  47 142 174 186 189 172 127  31  15 154 143 134 144 151 149 102  86  86 117 145 120  92  71  61  64  74  97  82   6  39 142 134  37  23  31  29  36  37  37  36  38  37  37  37
  28  28  29  30  31  28  53 136 175 173 129  76  31  17  20  21  48 120 144 138 134 129 126 133 145 154  52  22 117 115 127 137 140 142 144 156 162 161 159 154 153 156 162 160 140 136 155  81  13 103 171 184 188 172 120  13  51 164 159 163 160 159 164 167 164 163 164 155 137 132 138 115  96 119 140 119   9 107 189 170  68  73 123  90  36  36  37  38  39  37  37  37
  29  28  28  29  27  33 143 183 186 190 186 169  50   9  22  28  62 136 150 152 150 146 147 158 162 175  87  42 154 149 160 162 154 151 154 161 168 172 169 157 155 164 161 159 150 141 156  92   2  97 173 194 197 184 115  12  73 162 152 157 156 155 160 169 175 171 170 167 151 163 173 171 147 145 168 142   6 133 186 169 108 157 185 180 106  33  38  37  37  36  36  37
  27  27  28  27  19  75 180 163 156 164 175 169  79  17  22  33  68 137 153 155 153 153 158 168 171 182 125  54 169 162 171 171 168 169 168 167 169 170 168 167 170 173 167 162 162 155 164  95   1 108 185 203 204 200 145  15  80 167 160 164 166 167 170 171 171 170 171 168 161 175 179 178 161 166 190 136  17 161 179 170 118 169 179 173 155  49  33  36  36  36  37  36
  28  28  27  27  19 119 183 115  66 106 139 158 168  80  22  32  73 144 159 160 157 156 164 170 173 179 159  46 161 176 180 178 179 182 185 186 189 187 185 179 177 173 171 171 174 172 171  84   6 134 187 202 206 206 177  22  74 183 171 172 173 175 184 187 186 183 184 184 170 178 182 180 170 174 195 108  51 184 173 169 118 154 116 117 151  51  32  36  37  36  36  36
  27  27  26  26  23 136 161 113 115 160 153 143 165 157  64  35  75 147 164 165 162 158 165 171 173 177 186  59 132 189 184 180 181 187 187 188 189 190 189 184 179 178 181 179 178 178 174  74  55 164 183 197 206 202 196  59  47 185 179 180 180 180 184 189 191 188 184 188 177 179 184 185 177 175 195  67 110 188 171 168 119 150  83 106 143  44  34  37  36  36  36  37
  27  27  27  26  22 137 174 150 159 184 172 152 146 163 126  45  66 142 159 164 166 158 160 170 173 178 195 115  87 194 186 184 185 187 188 189 190 190 189 192 186 186 188 185 180 180 160  36 111 180 181 193 203 200 203 120  23 167 185 183 184 186 186 189 190 188 190 192 181 180 189 190 180 182 168  49 167 177 170 161 131 179 137 148 136  33  36  37  35  36  36  36
  29  28  28  27  19 128 178 148 167 186 177 166 165 132 147  77  52 139 157 163 169 162 155 167 173 175 185 179  77 167 195 187 191 193 192 190 190 190 193 195 195 190 189 184 179 184  98  38 162 180 180 189 200 199 198 174  34 112 193 183 188 190 190 190 190 189 189 191 184 183 191 189 176 192  83  96 191 173 170 154 142 185 144 160 114  27  37  36  37  37  36  36
  28  28  28  27  16 104 188 147 170 192 187 156 106  76 129 123  61 132 157 157 161 165 159 156 165 177 181 196 144 121 201 190 192 196 192 192 194 194 194 198 193 188 187 180 181 151  22 108 183 180 180 191 201 197 197 193 115  32 172 191 186 190 192 190 192 193 191 191 184 183 192 187 184 150  51 178 179 170 166 156 169 182 152 168  77  29  38  37  38  36  37  36
  29  28  29  29  18  78 191 151 174 193 171 119  85 108 121 145 108 120 153 156 156 162 164 161 157 166 178 184 195 107 103 205 197 193 194 196 196 195 194 196 192 187 185 184 169  52  70 173 181 179 183 192 201 199 201 190 181  61  64 187 191 190 193 192 191 193 195 197 186 184 192 192 158  79 155 190 174 168 163 147 160 181 168 153  41  35  37  36  36  36  36  37
  29  28  27  28  20  63 187 155 180 193 170 126 107 138 143 160 155 119 147 153 158 157 159 165 166 164 164 171 188 196  80  87 193 208 200 199 197 197 197 197 192 191 193 173  88  73 155 178 177 175 181 193 202 200 202 193 183 152  58  85 188 204 200 195 194 195 195 197 187 195 200 136  51 139 195 179 173 166 161 146 158 177 182 109  27  36  37  37  37  37  36  36
  28  28  27  27  21  53 185 163 187 195 177 132 121 156 155 173 180 140 143 152 155 155 157 166 171 174 171 168 170 184 195 105  63 151 199 209 213 211 209 203 193 165 135  84  99 143 171 178 174 173 181 195 206 199 199 195 179 172 151 108  68 115 183 205 211 212 209 200 191 167  94  70 160 195 178 175 170 166 158 150 164 179 175  70  30  37  37  37  37  37  36  36
  29  28  28  27  23  42 174 170 190 193 178 138 129 164 162 173 188 156 141 149 151 154 154 164 171 172 175 180 179 177 176 190 144 115  99  93 117 133 141 135 103  75 103 140 141 160 182 180 176 176 181 194 205 202 198 193 178 174 172 146 130  89  75  87 108 121 117  96 112 109 126 190 192 179 177 173 170 165 156 151 165 179 157  48  34  37  36  35  36  37  36  37
  28  28  28  29  26  28 156 178 184 193 178 147 140 174 179 168 182 163 138 149 151 149 152 162 168 171 175 177 181 184 184 184 178 175 154 126 106 107 124 140 137 155 170 147 146 177 185 182 179 179 183 194 201 202 204 191 178 176 180 162 142 155 140 115 103 105 118 138 162 188 195 183 182 180 175 173 168 163 156 155 166 184 141  37  36  36  36  36  36  36  37  36
  28  28  28  28  29  18 110 189 178 196 178 157 150 179 193 175 172 168 139 145 150 146 147 158 162 169 172 174 177 180 183 184 185 190 190 191 191 191 187 178 167 167 165 135 155 179 179 175 172 173 177 187 194 204 202 190 178 173 177 171 162 171 177 187 192 194 197 197 194 191 186 183 182 176 173 172 166 158 155 158 166 187 127  31  36  37  37  36  36  36  36  36
  27  28  28  27  29  21  57 184 172 187 190 169 158 174 179 175 177 169 142 142 146 149 149 157 162 166 170 172 174 176 182 182 184 185 186 188 186 184 178 164 159 165 169 134 136 163 169 164 160 161 163 172 181 187 183 176 167 169 165 165 167 173 176 188 193 191 191 190 189 187 185 184 182 173 171 170 163 156 153 155 170 183 117  29  36  36  36  36  38  36  36  37
  28  27  28  28  28  27  29 151 186 171 187 190 186 191 177 150 156 164 142 141 147 149 151 159 164 165 167 171 171 173 175 180 183 181 180 181 181 177 165 153 162 166 170 160 131 129 110  82  94 127 154 161 169 172 170 163 155 119 135 163 173 174 170 176 183 186 190 189 182 184 185 183 178 175 172 168 161 159 170 168 176 178 100  29  38  38  36  36  36  37  37  36
  28  28  27  27  29  28  21  85 189 182 178 187 188 196 192 177 172 161 146 140 144 148 150 158 160 163 167 169 169 167 171 174 176 180 178 171 172 166 149 157 167 170 172 171 160 142 105  89  97 100 112 141 151 151 151 151 137 125 155 173 177 172 168 172 178 181 184 184 182 182 182 180 174 174 170 167 157 170 189 178 172 172  67  32  39  37  38  37  37  35  36  37
  27  27  27  27  28  28  27  28 136 193 188 184 185 195 199 182 178 170 154 140 142 146 149 157 162 163 165 165 165 165 166 172 175 175 173 169 166 151 154 169 173 174 176 175 169 162 155 137 125 115 106 122 137 135 136 137 145 160 169 176 180 180 174 170 175 174 176 180 181 183 180 178 175 174 169 164 155 178 190 182 186 145  39  36  39  39  38  37  37  37  37  37
  28  28  28  28  28  28  29  23  49 157 185 185 189 193 198 183 173 180 165 140 141 144 149 156 160 163 163 161 161 166 166 169 174 170 167 166 158 156 168 171 173 175 175 171 163 161 156 148 136 116 101 100 103 117 130 142 156 161 169 174 180 185 182 178 175 175 177 181 181 181 180 176 174 173 169 163 157 185 187 189 184  79  30  39  39  38  38  39  39  37  37  37
  27  27  28  29  29  28  29  29  21  53 134 181 191 195 200 196 183 183 170 139 138 143 147 155 162 162 165 163 160 163 167 170 171 170 164 163 161 161 168 168 171 174 175 171 168 168 167 164 158 149 131 117 120 135 156 164 164 167 167 171 179 182 181 182 182 177 177 180 181 178 175 175 174 170 166 158 162 189 187 188 117  31  35  38  38  38  37  37  38  37  37  37
  27  28  28  28  28  28  28  28  27  22  33 103 169 190 196 198 180 166 149 137 133 139 145 155 161 164 168 166 162 162 162 168 171 168 165 164 164 164 165 169 171 172 174 177 180 183 185 187 186 184 173 170 170 171 174 171 172 169 169 171 173 177 179 181 186 181 177 178 180 179 176 171 171 167 167 158 168 185 186 122  38  35  39  38  38  37  36  36  36  36  37  37
  28  27  26  28  27  29  28  28  28  29  24  23  55 105 155 176 166 129 102 112 134 136 141 151 161 165 170 167 163 165 168 167 172 171 168 168 167 162 165 171 174 176 178 180 181 182 178 175 170 181 184 186 180 181 180 178 177 178 178 174 174 175 175 177 181 184 180 179 176 178 176 173 172 168 166 154 115 118  92  38  35  39  39  38  37  37  36  37  37  37  36  36
  26  27  27  28  29  28  28  28  28  28  29  29  22  20  37  64  67  69 131 107 129 132 139 146 157 167 168 169 164 163 167 172 175 176 173 174 167 148 157 165 165 161 152 147 147 143 139 141 139 141 153 166 154 149 149 148 151 161 171 174 176 174 176 176 175 178 181 179 177 178 177 175 173 168 166 132  33  31  30  37  38  38  39  38  37  37  37  38  38  37  37  35
  27  27  28  28  28  28  27  28  29  28  28  29  28  28  26  22  16  49 158 136 120 128 136 142 152 164 165 170 167 165 167 172 178 184 181 181 177 148  91  77  90  94  94 100 107 115 110 120 122 115 117 120 115 113 119 123 129 133 135 149 170 174 176 174 172 172 180 180 176 175 177 175 168 166 167  98  29  37  38  39  38  37  37  37  37  37  37  38  37  36  36  36
  28  27  27  28  28  28  28  28  28  28  27  28  29  29  29  29  25  50 148 138 116 128 133 139 147 158 163 168 169 166 166 172 180 188 189 186 186 175 130  69  66  96  79 107 122 126 137 124 129 144 131 124 146 138 118 125 111  99  98 107 129 154 159 170 174 176 183 186 179 176 177 171 169 167 157  56  32  37  37  38  38  37  37  36  37  37  37  36  37  37  35  36
  27  27  27  27  28  29  28  28  28  28  27  27  28  29  29  29  26  46 138 143 117 128 130 136 143 155 163 168 169 167 167 171 181 188 194 190 189 189 184 169 137 129 125 137 148 156 173 173 196 221 208 198 219 211 182 192 148 141  72  47  62  88 137 168 176 180 188 191 184 180 175 171 169 168 124  32  37  37  37  37  37  37  37  36  36  36  36  36  36  36  36  36
  27  27  27  27  27  29  29  28  27  28  30  28  28  29  29  29  26  47 140 153 121 128 128 133 139 149 161 168 165 165 165 169 177 188 197 195 193 194 186 177 166 154 148 149 151 151 150 151 155 162 166 168 164 157 140 141 127 131 119 116 115 131 160 172 176 181 190 191 183 180 176 172 167 164  82  29  37  38  38  37  37  37  36  36  36  36  36  36  36  36  36  36
  28  27  28  27  27  28  28  28  28  28  28  28  28  29  29  29  25  49 148 167 129 128 126 132 136 145 158 165 168 169 165 167 173 183 195 199 198 195 194 183 172 167 159 152 152 157 165 167 164 161 160 157 158 153 153 150 151 149 144 143 156 170 184 185 183 185 192 190 181 177 174 171 164 141  43  36  38  38  37  37  37  37  38  38  36  36  37  36  36  37  37  37
  27  27  27  27  28  28  28  28  28  29  29  28  29  29  28  29  23  56 154 175 138 129 128 129 131 140 152 164 167 167 167 165 172 179 190 197 200 198 195 194 179 169 167 168 162 156 152 157 161 164 168 166 169 161 159 151 147 147 153 163 171 181 190 191 190 191 190 185 179 175 170 167 165  97  28  38  39  37  36  36  36  37  37  37  36  37  36  36  36  37  37  37
  27  27  28  28  29  28  28  29  28  29  30  29  29  29  28  28  22  78 169 185 148 134 131 128 128 134 142 156 165 167 166 166 168 175 185 195 199 197 194 192 188 177 169 166 170 171 164 160 158 156 156 155 154 153 151 156 163 166 168 171 180 192 192 189 193 191 186 181 177 171 168 165 150  50  34  38  38  38  37  37  36  36  35  36  36  36  36  37  37  36  37  37
  26  27  28  28  27  28  28  28  28  29  29  29  29  28  28  34  43 107 169 173 144 140 135 132 127 131 135 145 160 166 166 166 164 171 180 191 197 195 195 191 192 186 178 169 166 170 166 163 161 157 160 160 161 158 163 169 171 171 171 179 186 193 194 192 191 189 185 178 171 169 165 166 100  28  38  38  36  38  36  37  36  36  36  34  37  36  37  35  36  36  35  37
  27  26  27  28  28  28  28  28  28  29  28  29  28  28  44  70  86 110 129 107 111 149 138 135 130 127 131 140 154 163 166 166 164 168 176 184 192 192 194 194 193 191 185 178 170 167 161 160 160 155 157 156 156 160 167 168 169 170 180 189 190 192 193 193 189 187 180 173 167 166 162 145  45  34  38  38  38  37  38  38  38  37  36  36  37  37  36  37  37  37  38  37
  27  27  26  27  28  27  28  28  28  29  29  29  26  28  49  79  87  76  61  34  77 155 143 139 133 126 129 136 146 158 163 164 162 166 172 179 186 190 193 194 191 191 191 184 179 171 165 161 161 161 153 155 159 164 167 171 176 183 187 191 194 196 194 188 188 179 173 169 166 163 162  87  28  38  38  38  38  38  38  38  38  36  36  36  35  37  36  36  37  37  37  36
  27  27  27  27  27  27  28  28  29  28  29  28  27  28  33  43  44  36  31  26  61 154 150 147 141 130 126 132 140 152 160 164 162 162 168 174 181 186 190 193 194 191 191 188 182 179 173 170 167 166 157 157 168 175 176 179 182 186 188 190 195 196 189 184 184 177 170 164 163 162 132  40  36  38  38  38  38  38  39  39  36  36  37  35  35  36  36  36  36  36  36  36
  28  27  27  28  27  27  27  28  28  28  28  28  29  29  28  26  27  29  30  30  49 146 157 151 150 139 130 131 135 146 153 162 162 161 167 171 176 185 191 194 195 195 189 189 188 186 185 185 184 181 176 175 180 184 185 188 187 188 188 189 196 195 189 186 182 176 166 159 159 154  75  32  39  38  39  38  37  38  38  38  37  36  36  36  36  36  36  35  36  36  37  37
  27  27  27  28  27  27  28  28  29  28  28  29  28  27  28  30  30  30  31  32  43 138 161 158 154 146 135 133 134 141 150 154 159 160 164 167 172 176 190 191 194 199 195 189 188 191 194 197 193 194 194 194 194 192 195 194 192 194 193 195 197 194 190 187 180 173 163 155 156 123  40  37  39  38  38  37  37  37  38  38  37  37  37  36  37  37  37  36  36  37  36  37
  27  27  28  27  27  27  27  29  28  28  28  28  28  29  28  30  31  31  32  32  38 131 163 166 163 156 145 134 134 136 147 150 153 158 161 164 167 171 182 193 195 199 200 198 197 196 198 198 200 199 202 202 202 199 198 195 190 190 195 198 200 195 189 186 179 168 159 152 149 105  34  38  38  38  38  37  37  38  37  37  37  38  37  36  37  39  38  39  37  36  36  36
  27  27  27  28  27  28  27  27  27  28  28  28  28  28  29  31  30  31  33  33  38 127 166 168 171 168 156 142 136 137 139 148 153 159 157 157 160 167 172 183 193 200 200 200 200 196 196 196 199 200 203 202 203 200 196 197 191 189 196 198 200 191 187 182 171 162 151 144 151  95  32  39  38  39  38  38  38  37  37  37  37  36  36  36  37  38  38  38  36  36  36  36
  28  27  27  27  27  27  27  28  28  27  29  28  28  29  29  29  30  32  33  35  36 119 168 170 172 173 166 152 143 139 139 143 149 152 155 154 156 162 164 170 186 195 194 195 198 196 195 197 201 202 202 201 204 203 198 197 193 189 195 198 196 189 184 177 164 152 146 143 160  80  32  38  39  39  38  38  38  37  36  36  36  36  36  36  37  37  36  37  36  35  36  36
  26  27  27  28  28  27  28  28  28  27  28  28  28  29  29  30  31  32  34  35  32 112 168 174 177 174 175 164 150 142 138 144 145 147 151 152 150 154 158 160 173 187 193 188 192 197 195 196 202 204 202 200 200 200 199 195 192 188 193 195 186 181 178 168 152 144 143 150 160  63  32  38  39  38  38  37  36  37  37  37  36  36  37  36  35  36  36  36  36  35  35  36
  28  27  28  28  28  27  28  28  27  27  28  27  28  29  30  30  32  32  34  35  35 123 166 173 178 176 175 172 158 146 146 146 144 145 146 151 148 145 151 155 163 172 183 184 189 195 197 200 202 204 201 199 197 197 193 191 193 192 192 186 179 175 170 154 143 146 145 160 156  53  33  38  38  38  37  37  37  37  37  37  36  36  36  36  35  36  35  36  36  35  35  36
  27  28  27  29  28  28  28  28  29  29  28  28  27  30  30  31  32  33  33  30 105 172 160 175 180 178 177 177 169 155 145 148 147 143 142 147 146 143 142 146 152 160 167 174 179 183 190 195 196 197 198 196 197 194 191 193 194 192 188 177 169 164 153 140 144 147 149 167 145  42  35  39  38  37  37  36  36  36  36  37  36  36  36  36  36  36  36  36  36  36  36  36
  27  27  27  27  27  28  29  28  28  28  28  29  29  29  29  31  30  34  51  63 190 170 162 177 181 183 182 179 177 167 153 149 150 146 143 145 147 143 139 136 140 148 154 162 169 169 175 180 185 185 188 190 190 187 186 185 184 179 176 167 159 149 141 143 150 148 155 172 131  35  37  38  37  37  36  36  36  37  37  36  36  36  37  36  35  35  36  37  36  36  36  36
  28  26  28  28  27  27  28  28  28  28  28  27  30  28  30  30  34  72  65 108 222 166 160 175 179 184 187 185 180 173 163 154 150 149 148 145 147 148 143 136 134 137 145 149 155 160 161 166 174 179 181 181 182 176 172 169 158 160 161 154 146 138 142 150 151 149 163 176 117  31  37  38  37  36  37  37  36  36  36  36  38  36  36  36  36  35  35  36  36  36  36  36
  27  26  28  28  28  27  28  29  29  28  28  29  29  30  30  29  69 100  60 171 238 179 161 176 179 184 189 189 183 179 171 161 153 149 150 147 145 148 146 142 136 132 135 142 146 151 153 158 163 171 171 173 168 164 163 160 151 153 146 137 135 141 145 147 148 153 170 177 104  28  38  37  37  37  39  38  36  36  36  36  38  36  37  37  36  35  35  35  36  35  35  36
  28  27  28  28  29  27  29  27  29  28  28  29  30  30  26  52 100  90 106 216 238 209 164 172 180 186 188 191 188 185 180 170 160 153 152 149 145 145 146 145 144 140 132 130 135 141 149 152 157 159 159 163 158 155 156 153 145 136 134 135 139 143 148 150 150 164 174 177  89  29  38  38  38  37  37  36  36  36  36  37  38  37  37  36  37  37  36  35  36  36  36  36
  29  29  29  27  28  28  28  28  29  28  28  29  30  27  38  79 100  92 165 226 233 238 178 170 180 185 189 192 191 189 186 179 170 160 155 151 149 146 142 142 144 146 144 137 130 132 134 139 142 142 144 147 147 146 142 136 134 134 139 139 142 148 153 150 158 171 174 173  74  30  38  37  38  37  36  36  36  37  37  37  38  37  37  36  36  36  36  36  36  37  37  36
  28  29  27  27  27  27  28  28  28  29  28  29  26  30  73  88  94 101 198 231 229 247 216 172 182 186 189 193 192 190 189 182 177 169 160 154 153 150 144 140 140 141 143 145 144 141 137 133 131 128 130 127 136 138 139 141 143 142 143 145 150 156 152 156 169 174 175 167  61  33  38  37  38  38  37  36  36  38  37  37  37  37  37  37  36  36  36  36  36  36  36  36
  27  26  28  29  28  28  28  28  30  28  29  26  31  73  85  78  83 108 213 234 230 238 249 200 176 188 191 190 192 191 191 188 183 179 170 163 157 152 152 148 142 141 137 138 140 142 144 140 139 142 144 144 146 147 146 145 144 145 151 156 157 155 156 168 173 177 180 158  48  35  38  38  37  37  37  37  37  38  37  37  37  37  36  36  36  36  36  35  35  35  36  36
  27  27  27  28  28  28  28  29  28  28  24  36  77  86  71  76  86 107 215 236 235 235 247 241 187 183 192 193 190 192 193 192 190 185 178 171 166 160 155 155 153 150 146 137 135 133 134 135 135 136 138 139 142 145 147 149 154 159 163 164 162 160 166 173 177 179 182 144  38  38  39  38  37  37  37  38  37  36  37  37  37  37  36  36  36  36  36  36  36  37  37  37
  28  28  27  28  28  29  28  29  29  24  42  82  84  75  79  84  88  99 203 240 238 239 240 252 230 185 189 193 194 194 194 194 194 191 186 180 175 172 168 161 160 166 164 157 154 151 148 144 143 144 142 146 153 156 163 167 172 172 171 169 169 167 175 179 180 179 183 126  32  39  38  39  38  37  38  37  37  37  36  38  37  36  36  36  36  37  36  36  36  36  37  37
  28  27  28  28  29  28  28  28  25  47  83  85  79  83  85  83  86  88 182 244 239 243 241 243 254 221 190 194 197 199 195 195 195 194 191 187 180 177 176 173 170 172 174 173 173 173 173 170 167 168 166 168 170 172 177 180 180 179 175 172 171 175 181 182 182 182 186 110  29  39  39  37  38  38  38  38  37  36  37  37  37  36  37  36  37  36  36  36  36  36  36  36
  27  27  28  29  28  27  27  28  52  86  84  87  90  90  86  79  82  79 143 242 241 244 243 241 246 254 220 196 200 201 200 199 198 198 195 192 188 182 180 178 179 178 179 182 186 188 191 191 185 183 182 182 186 187 187 187 185 180 177 173 174 180 184 183 184 181 182 144  36  38  39  37  37  38  38  37  37  39  38  38  37  37  36  36  37  36  37  36  36  36  36  35
