P2
# Generated by OpenCV 4.2.0
92 112
255
  66  68  60  62  57  59  65  58  56  62  72  77  66  68  73  72  70  58  54  57  53  51  53  42  41  51  60  64  68  61  63  59  54  42  30  37  10   1  23  24  20  18   8   8  36  57  33  18  39  58  61  64  74 164 189  68  68  78  71  67  81  92 143 160 240 102  86 111  82  72  77  77  72  69  79  75  70  75  76  74  71  70  76  68  75  76  74  51  60  61  75  79
  69  70  67  55  58  61  58  59  61  72  68  74  67  62  71  68  71  67  61  57  60  53  54  38  31  27  25   8  16  22  31  22   8  13  17  16   5   7  15  18  18  20  17  14   9  17  11  22  18  20  44  58  49  57  45  52  29   1  19  74  73  71  72  76  69  68  74  74  81  72  71  68  71  73  74  74  81  73  65  72  75  78  75  63  71  67  67  56  67  71  75  78
  65  66  67  70  54  64  57  57  57  67  66  67  63  61  67  67  73  71  64  62  56  45  47  16  24  14   8   6   4   7   0   5   3   6   6   3  11  12  15  10   7   9  10   9   5   4  10  12   7   6  11  31  42  40  19  17   7   0   7   0  39  59  63  70  68  71  75  83  81  69  73  70  72  75  76  76  76  72  68  73  71  74  75  71  71  70  73  59  63  67  73  72
  67  71  68  68  60  65  57  61  56  62  66  72  64  64  50  61  78  71  61  62  57  48  17  25   7  11   5   6   7   5   3   2   1   3   4   3   2   3   4  10   8   6  11  11  14  21  11  14  16   2   8   2   7  10  19  13   9   3   3   4   4   0   5   9  34  50  66  70  64  71  67  72  72  73  74  75  62  67  71  73  71  73  77  78  71  69  79  62  67  70  73  65
  71  68  62  66  67  57  63  68  67  64  58  71  60  62  57  70  64  67  65  52  24  17  12   7   8   4   4   8   5   1   5   9   4   1   3   7   8  11   8   3   7   4   5   6  25  33  35  22   4  15   1   1   7   3   1  15  14   8   4   3   5   5   3   4   4   0  11  19  64  67  69  74  68  67  73  77  71  67  74  76  81  70  72  69  72  77  72  69  68  72  73  67
  63  61  59  63  56  57  64  67  54  60  61  68  65  64  61  68  59  56  24   8   5   5   6   6   7   5   5   5   1   7   4   5   5   5   6   8   8   7   6   7   2   2   2   9  10  14   4   9  15   8   8   5   2  11  21  12   3   2   5  30  23   2   6   3   4   9   0   8  16  49  70  74  66  75  73  71  68  71  73  83  81  71  74  69  77  76  67  65  67  73  64  70
  52  66  64  71  56  56  63  66  61  62  64  56  62  57  57  50  52  12   7  11   7   7   7   5   4   3   2   2   4   4   5   3   2   5   4   5   3   2   2   6   9  13   7   3   4   1   3   2   2   7  12   6   8   3   1   0   6   9  15   7   4  16  12   6   3   2   4   1   5  24  45  47  63  64  64  74  70  78  76  69  66  73  68  72  73  71  75  73  70  76  66  73
  53  54  52  56  46  54  61  62  55  55  61  57  45  45  52  59   9   3   7   3   2   5   1   3   1   6   6   4   5   2   2   7  10   6   5   4   1   3   8   5   2   5   8   7   4   7   7   1   5   8  15  22   9   9   1  15   8   6   0  12   0   5   2   4   4   2   3   7  12  27  23  41  43  53  58  54  73  72  70  76  64  66  69  74  68  66  74  75  78  75  64  70
  58  56  58  54  51  55  61  57  50  55  48  43  51  55  61  17  11   4   2   1   4   4   4   5   6   6   6   3   4   4   3   7   3   5   2   6   4   5   4  11   6   2   9   5  10   7   1   1   4   5   0  34   9  16  12  14   8   0   5   0   8   5  10   2   3   9   5  17  11  20  30  41  52  58  53  50  58  68  67  75  66  66  70  75  68  69  72  71  74  76  75  72
  59  54  59  50  51  54  64  64  55  56  59  50  48  56  17   5   3   3   4   7   3   0   1   3   7   9   6   6   2   2   2   4   4   3   5   2   3   2   6   7   3   3   2   2   7   7   8   9   4   2   5   6   9   6  14   8   0   7   2   4   1  15   1   6   4  10   4   4  12  12   6  11   5  31  50  53  59  60  63  57  57  63  76  68  65  77  74  72  71  76  77  72
  57  61  55  48  57  61  63  57  59  55  54  56  61  18   6   3   8   5   7   5   5   8   8  14  11   7   7   3   0   3   2   0   6   0   5   4   8   5   9   1   5   5   8   1   2   8   8  11  15  15   1   3   3   9  10  12  13   1   3   4   8  10   2  13   7   2  15   3   2   4   4   4   8  11  14  33  62  61  65  59  64  61  68  71  70  78  73  81  72  72  66  69
  58  55  56  51  56  58  70  55  53  61  60  47  18   3   5   5   2   3   6   4   4   4   3   4   3   5   2   0   0   2   2   3   6   3   5   2  11   4  17   2   3   1   3   5   4   5  12  17   9  13  15  10   4   5  10   8  15   7   0   4   2   5   8   4   9  10  13   4   4   1   1   2   6   7  10  21  44  66  66  61  60  63  72  68  73  78  82  81  71  72  72  71
  57  55  62  53  54  57  63  60  55  59  55  14   8   5   2   3   0   5   7   8   2   1   3   5   6   5   2   1   0   3   2   2   6   0   8   6   3   5   7   3   8   5   8   5   4   1   6   4  19   4  15  31  13   7   4   8   8   8   2   2   5   4   9   9   1  19  12  11   3   0   2   6   3   9  11   8  36  66  62  66  64  70  79  69  73  73  68  63  71  70  70  76
  57  47  51  50  55  64  56  59  59  50  22  16   2   4   3   5   9   9   5   4   7   5   4   2   5   2   1   0   1   1   2   0   8   3   5   3   9   8   5   6   4   9  11   1   3   1   7   9  10  29  18   5   7   8   3   7  14   8  15   4   3   6   6   6  17  19   5  11  12   1   5   6   4   6   6   8   9  33  69  62  67  65  66  66  55  62  61  62  73  76  71  72
  59  45  49  53  63  58  56  57  53  43  29   3   2   4   5   6   2   4  10   7   8   3   8   1   3   3   2   3   2   0   4   3   6   3   2   6  12   7  13  13  12  10   4   9  10   7   9   7  15   3  12  18  35  20   4   9  15  10   5  11   1   4   8  12   7   4  15   9  16   2   2   3   3   4   7   6   7  23  44  69  58  65  65  71  61  53  67  71  76  78  73  66
  55  42  53  57  61  51  58  68  62  48   4   7   3   3   1   5  12  11   6   5  10  20   3   2   3   2   3   2   3   4   0   2   0   4   4   4  10  18  15  14   8   9   7   7   5   6   9  10   5  12   8  10  14  14  15  11   9  11   5   7  20   1  13   4  16   6  12   9  23  10   5   7   5   4   0  15   9   5   4  18  46  69  69  62  62  59  67  70  76  76  73  74
  54  43  62  67  60  58  61  54  37  31  10   0   1   1   2   4   4   1   5   2   0  13   0   2   2   2   2   2   1   4   3   7   7   3  15   3  10  15   6   9   6  14   8  10  12  14  16   9   5   9   4  18  21  11  13  11  10   7  10   6   2   6   4  13  19  10  12  12  19  26  11  10   7   4   9  15   3   1   4   7  16  40  65  60  64  59  67  71  70  66  67  77
  53  49  49  61  64  57  62  44  21   8   3   7   3   7   4  10  16   2  17  24  19   7   7   2   1   2   1   2   3   2   3   4   6   2   5   2   2  10   6   2  12  15  33  12  17  10   5   8   9  11   6  16   6  15  15  16  14  14   9  19  31  15  17   6  38   8   5  24   9  23  25  13  10   0  11   2   6   6   7   6  19  47  60  56  57  62  69  76  72  66  70  77
  56  52  51  51  64  68  45  18   6   5   0   0   1   6   4   1  19  22   2   0   7   7   1   2   3   0   6   0   1   4   0   6   1   4   4   3   2   6  13  12  15  18  10  30  25  16   9   8   3   4  22  24  19  12  29  26  23  12  23  16   6  36  23  32  19  24   3  12  25  19  43  11  10  19   6   4   5   4  12   8  16  45  45  56  53  64  67  72  65  71  75  68
  50  52  51  47  47  56  22   6   4   5   0   4   2   7   6  10   5   9   4   0   0   6   3   1   1   3   6   2   1   0   4   0   0   4   4   5  16   8   9   7  11  22  32  33  21  18  25   7   3   7   8   4  29  18  22   4  19  20  11  19  26   6  34   8   7  32  34   4  26  24  26  28  19   4  17  11  16   9   7   2   4  18  43  55  53  65  71  74  65  76  75  73
  48  43  50  46  57  45   8   9   4   5   1   4   3   4   3   2  10   2   0   7  11  11   8   4   0   0  11   6   5   1  13   2   8   4   6   9  19  19  17   8   6  72  36  38  30  37  27  21   7   7   3  12  12   7   4  14   5  40  22  15  19  47  16  17  10  30  31  23   8  11  19  18  16  20   8   9  10   4   6   8   8   4  22  52  62  68  73  73  64  73  70  67
  51  51  49  50  42  19  12   7   2   2   3   4   1   3   7   5   3   4  13   6   6   0   2   4   1   2  17   7   1   8   6   9   1   2   5   6  15  28  25  17  64  36  27  46  40  39  30  35   9   7  13   8  22  31  43  20  24  30  26  14  18  36  33  19  15  14  17  13   5  10  23  23  26  51  13   5   7   7   8   5   6   5  20  40  63  72  76  72  65  71  77  70
  53  51  51  51  21  14   4   1   1   1   2   2   1   5   2   5   3   7   6   3   4   3   1   5   0   6  22  11   8   4   1   2   1  15   0  14  17  30  38  25  62  45  33  71  70  53  52  41   7  20  19  16  19  20  39  34  31  17  21  21  24  61  40  14   8  13  13  16  17   9  13  31  18  26  48   6   2   3   6  18  13   9  15  39  56  70  74  75  75  76  72  74
  56  50  40  22  16  15   2   2   0   2   2   2   3   4   1  10   1   1   4   6   0   9   8   2   5  12  12   5   2   5   2   1   6  13  13  25  16  39  36  19  55  41  36  68  77  59  55  23  30  28  16  36  36  31  49  33  31  19  19  32  14  32  39  11  12   9   9  21  26  28  14  19  17  25  11  29  13  14  17  11  15   4  26  34  67  67  80  73  70  67  75  72
  56  45  38  26  30   4   0   1   1   5   4   0   1   4   6   8   5   6   5   4   7   6   4   5   1   0  18   7  11   7   4   6   2  10  21  21  33  42  39   9  66  25  50  92  72  64  58  30  26  31  32  42  39 109  38  53  20  28  22  34  33  19  41  13  19  22  15   7  13  38  54  28  32  21  19  13  39  11  10   7   5  33  14  28  63  72  73  72  67  68  70  68
  52  54  30  34  18   1   1   1   2   1   1   0   2   6   3   9   8   6  14   5   5   4   3  10   8   9   8   3   5   4   5   4   4   6  13  18  49  58  38  16  52  26  55  89 101  81  59  28  35  42  39  60  43  95  84  54  47  46  42  33  38  18  36  34  20  39  13  22  24  31  37  52  52  50  35  12   6   5  20   5   9  21  24  20  46  70  73  70  69  63  64  67
  48  42  35  27   7   0   0   0   3   9   4   6   5   3   5   8   4   9   7  17   2  13   3  10   2   4   9   7   4   3   1   6   2   5  10  27  68  56  33  24  52  45  58 119  80  79  72  36  54  71  55  80  48 110  87  88  67  53  56  24  49  52  45  50  39  45  28  33  45  43  37  60  56  28  29  21  20  22   4  18   8  17  18  22  50  52  68  62  72  71  70  74
  50  47  42  20   5   3   1   1   2   4   4   6   1   3  10   6   1  14   9  12  13   4   7   6   5  10   7   8   3   7   4  11   8   4   9   7  65  55  58  14  62  55  75 114 110  93  80  42  51  77  73  33  70 108 126  91 108  68  67  31  67  39  55  39  58  54  92  84 107  44  70  52  64  67  42  38  24  12  14  10  17  26  35  29  79  47  68  68  74  67  70  75
  49  39  37  26  11   4   1   1   6   2   6   4   4   1  19   5   1   6   9   6  15  16   4   4   4   3   6   9   4   4   4   1   8   5  12   9  39  68  40  31  89  41  75 124  97  98  97  62  84  97  86  52  80  82 124 106 106 103  91  99  69  76  65  78  78  88  77  93  62  90  88  77  47  33  20  31  15  21  30  17  18  35  51  40  51  41  65  72  69  72  75  73
  55  37  37  28  15   4   3   2   0   4   5   6   4   3  15   1   4   7   8   8   4  12  11   8   7   8   7  10   9   4   4   3  12  10  10  10   6  65  56  46  18  51  75 113 123 129  99  54 103  96  85  87  45  82 125 128 141  98 118 108  86  96  81  86 104 112  82 113 118 108  91  73  51  44  53  21  34  13  14  17  18  50  43  50  58  57  64  59  73  76  72  65
  39  35  37  33  26   9   5   3   1   4   8   3   6   2   5   4   9   4   8  13   9   7   9   8   9  13   8  14   6  12   6   6   6   7   7  30  20  45  77  46  41  34  59 103 136 105 124  78  97 110  98  86  74  63  97 118 136 139 115 113  69 109 101  88 101 146 153 135 143 133  98  74  52  48  32  32  17  20  26  22  18  69  45  52  67  56  64  69  70  67  64  62
  28  33  37  34  25  13   5   2   0   0   4   6   7   8  10   5   9   8   7  10   6   8  10  11   9  11   9   7   6  13  10   6   9   9  12  10  15  20  92  62  44  30  58  68 113  91 112  93 115 130 115  99  98  66  66 123 125 158 119 143 107 149 140 115 126 146 157 182 159 163 126 123  95  58  37  30  26  22  24  40  41  59  65  64  62  56  62  67  70  60  63  61
  26  32  29  32  29  20   8   3   2   0   3   2   4   4   3   5   8   6  12   6  19  12  12   8  22  10  14  15  18   7   6   6   6  15  11  23  22  21  62 101  11  67  33  37  74 105  70  77  98 133 135 121  87  93  99  79 127 127 167  98 135 141 167 132 110 132 162 161 167 151 164 144 126  65  46  31  37  33  54  35  44  49  72  67  57  53  51  62  70  66  62  61
  27  26  31  37  30  19   9   1   2   1   3   5   5   5   4  13   8   7  14  20   8  26  19  21  23  12  10  23  16  12  11  11   9  13   8  38  52  74  58  86  81  21  58  48  44  75  99  96  84 140 136 129 127  80  98  95  94 127 165 106 104 167 163 159 116 128 118 122 147 142 171 170 142  86  61  58  34  43  50  43  79  49  50  72  53  46  59  61  74  73  63  55
  23  32  36  35  29  19  10   3   3   3   2  10   6  12   5   7  12  10  19  16  28  34  28  30  38  18  18  35  25  25  14  12  14   7  15   9  61  64  85  99  94  75  60  58  65  32  52  73  49  95 140 133 112 115 100 107  78 110  90 108 128 122 132 154 155 115 151 189 179 209 185 161 160  97  72  57  56  57  69  57  46  63  58  74  55  64  58  69  65  70  57  58
  27  32  41  39  34  24  12   4   5   1   1   6  19   8   9   7   7  20  17  32  21  51  31  40  37  26  34  31  32  29  13  19  20  14  11  20  28  49  85 104 109 109  80  88  87  85  68  49  27  48  67 106 136 121 123 109 117  74  94 107 141 128 109 157 177 170 158 162 193 189 177 182 153 130  71  56  51  57  65  67  60  65  52  53  53  52  62  68  62  67  65  48
  29  35  45  43  37  26  16   2   3   0   6   3   7  25  21  10  11  15  28  24  29  22  28  27  31  53  37  39  36  39  28  15  25  31  31  27   5  36  73  77 100 142 134  93 134 123 114 120 101  47  68  70 129 133 131 130 135 159 164 132 181 181 216 224 207 193 202 195 179 172 191 188 180 153  90  64  27  69  65  58  56  56  53  54  58  45  64  64  69  76  65  50
  29  38  44  43  41  29  15   8   7   2   2   7  11  11   9  13  25  27  23  30  26  22  25  34  39  51  61  44  48  47  43  35  27  14  32  16  11   6  36  77  91 119 127 110  95 125 136 147 144 149 161 149 152 116 136 157 198 194 217 220 215 210 219 219 206 212 212 205 209 195 196 193 179 158 109  74  62  81  51  56  52  43  47  54  43  45  66  71  73  70  53  52
  33  46  49  49  50  39  24   6   3   2   3   6  11   8  15   8  14  17  17  27  23  26  28  36  41  60  65  72  54  61  54  40  47  36  20  20  20  30  26  13  50  51  88 102 122  92 137 152 165 184 171 201 195 208 200 200 207 204 211 218 220 212 212 214 218 216 212 213 210 205 205 199 186 158 124  89  76  71  74  59  68  34  42  32  44  43  69  62  56  62  60  59
  36  52  61  62  56  39  26  10   6   1   2   6  13  22  22  11  30  16  23  40  40  34  36  20  49  52  68  88  91  84  63  73  57  51  47  45  26  17  18  27  26  47  54  74  96  88 104 139 180 174 205 210 210 199 210 209 206 214 216 215 213 219 214 213 217 213 208 208 207 205 206 199 204 162 127 105  74  56  72  59  63  37  42  24  40  31  71  61  68  58  60  59
  44  59  70  70  65  49  27  11   3   2   1   6  13  22  27  22  32  26  25  26  30  44  30  32  51  55  77  93  91 105  97  96  94 105  93  79  65  74  64  78  47  53  33  27  71  98 164 198 192 198 203 203 215 209 206 204 208 212 216 215 210 218 211 220 217 213 209 209 211 209 205 208 187 177 149 104  73  69  53  42  40  45  34  26  30  44  62  65  72  62  54  63
  46  63  76  80  76  62  32  11   6   4   2   5  15  31  33  35  28  31  36  29  27  33  38  45  39  64  73  89  99  99 113 118 123 133 149 148 154 147 145 150 144 144 131 146 155 183 187 197 202 204 209 210 209 213 207 209 210 212 213 213 210 204 216 210 208 208 211 214 211 203 206 196 199 197 143 111  76  47  66  59  51  43  24  27  16  49  62  71  68  65  51  54
  66  78  89  91  80  62  28  10   5   5   1   5  15  33  32  31  34  34  33  36  38  32  31  34  40  49  54  72  94 110 123 131 136 144 159 164 173 164 162 163 166 164 158 163 164 170 186 206 206 211 208 216 210 210 204 199 198 201 203 194 194 198 198 199 204 209 203 205 211 206 209 197 206 194 152 112  71  44  38  55  38  31  37  19  19  31  65  71  62  62  52  47
  72  87  96  97  87  67  36  14   5   5   2   3  15  30  33  35  34  34  33  36  42  47  52  53  66  69  93 110 115 129 135 146 144 145 156 174 180 176 170 169 174 176 162 166 176 170 181 199 205 206 209 216 205 209 212 190 189 190 181 181 168 177 189 196 190 199 210 206 213 213 204 202 197 198 168 123  67  53  37  42  24  16  34  20  24  30  52  64  60  69  55  47
 102 100  99  96  96  72  41  14   8   8   4   5  13  30  35  34  34  33  34  35  37  51  60  60  79  86 105 114 129 132 139 146 157 146 156 167 174 181 173 177 168 169 161 164 164 182 192 193 210 210 210 208 207 196 186 181 177 162 153 142 148 130 139 173 190 195 197 204 200 203 205 202 195 197 184 141  64  38  35  19  28  24  25  29  14  55  52  68  60  62  51  49
 113 112 111 104  89  80  35  18   9   7   3   6  15  33  37  34  34  35  34  32  41  55  59  61  75  98 106 116 130 150 139 152 154 155 156 174 173 179 178 181 180 172 164 171 176 180 197 187 200 213 199 211 188 171 156 128 128 105 115 115 121 106  98 116 124 155 195 193 200 197 203 201 197 198 181 139  49  32  23  28  18  15  22  28  18  60  62  71  67  57  52  54
 134 130 124 112 100  89  59  19   7   5   4   0  14  33  37  34  32  33  33  38  36  43  50  62  67  95 100 104 118 135 143 150 149 150 156 157 176 182 177 169 183 176 168 179 174 179 187 180 190 193 172 148  99  67  46  47  60  85  76  90  95  82  93 117 118 113 157 202 197 203 202 199 198 196 193 161  35  26  32  19  19  21  20  23  18  50  64  65  68  58  54  50
 142 137 129 118 110  96  79  30   9   4   1   1  15  35  37  39  34  31  31  27  35  43  46  55  59  79  92 102 120 120 135 135 156 153 155 155 163 181 179 177 174 173 170 174 174 176 174 180 153 121  76  34  30  39  45  31  33  39  75  79  99 114 120 121 133 119 130 161 194 193 199 194 197 179 173 109  25  10  17  25  13  25  21  26  34  55  69  62  63  59  41  56
 157 151 142 125 116 101  80  45   7   6   3   1   6  34  34  34  37  32  28  17  15  20  21  20  28  40  53  63  92 113 114 133 128 142 149 151 153 174 180 174 173 179 174 187 166 172 162 119 100  58  35  35  60  41  30  44  32  92  99 121 147 122 145 143 122 140 127 166 181 185 176 167 156 110  52  28  16  24  15  28  21  24  19  21  52  65  61  69  62  53  46  65
 160 160 151 141 134 117  91  56  16   3   1   1  12  32  34  35  31  26  10   8   5   7   9   4   7  19  63  12  31  45  74 102 120 137 138 142 148 171 167 160 171 176 189 188 175 160 120 100  67  62  42  42  54  32  31  23  28  22  37  32  52  97 117 143 165 150 151 127 139 147 123  85  35  34  38  27  31  25  50  41  21  47  74  86  85  62  48  67  66  48  49  64
 167 168 154 144 135 119  96  63  21   4   2   0  10  28  33  30  36  13   6  12   5   6   4   4   7  10  17  26  23  31  37  59  96 115 132 128 130 154 153 155 172 179 187 184 160 124  99  79  71  30  18  15  35  64  93 132 131 134 109  98  64  30   2  10  16  38  59  51  48  40  41  89  41  31  32  46  46  59  44  74 101 101 115 155 176  72  73  64  63  52  54  67
 177 167 162 146 131 115  96  63  25   3   0   1  13  31  34  32  23   8   9   5   8   6   2  12  10  12  21  16  16  15  16  38  56  88 112 117 107 137 137 147 157 170 176 165 126 122 105  35   7  52 112 135 128 131 122 117 115 113 111 109 110 134 127  49   9  26  29  31  26  83  46  88  40 130 184 180  77  47  33  35 122 143 147 183 178 142  61  68  61  54  45  62
 180 164 158 147 127 111  86  62  23   6   0   1  13  29  31  28  14   6   9   7   2   3   1   3   5   8   4   7   1   9  11  17  29  45  59  61  70  89 106  98 116 100  96  70  73  68  14  20 113 117 126 111  74  57  41  18  32  38  46  76  87  97 131 143 137  21  39  57  12  70  43 157 193 194 207 190 102  49  38  70 140 124 146 103 173 169  59  64  55  55  49  61
 184 170 156 144 123  98  67  48  19   2   0   1   6  18  29  18  15   9   6   5  27  49  82  96  97 117 103 103  81  49  27   5   5  14  21  19  11  15   5   5   7   9  10  13  15  12   4 135 115 126 101  71  65  55  25  29  14 126  36  82  53  89 134 130 171  96  28   6   8 166 186 193 197 200 200 194 115  50  44  73 154 214 201  76 156 168  59  66  61  57  56  67
 178 170 153 142 132  99  63  38  20   3   2   4   6   6   6   5   2   5  33  31  59  82  97 111 112 101  94  66  69  58  40  34  23   3   9   4   1   1   9   2   5  10  11   8   7   6 116 144 126 109 100  78  86  94  46  11   0 127  37 120  95  84 100 135 158 168  20  19 200 198 204 205 205 202 197 194 132  65  50 112 221 228 207  92 170 180  68  66  69  53  46  62
 232 170 160 144 130  98  71  35  17   1   6  20   2   4   3   2   1  34  21  44  61  94  94  63  34  15   7   9  10  15  38  32  21  24   5   0   2   5  15  57 100  94  52 109  16   1 192 163 130 124  60  75  76  80  74  77  96 112 136 129 155 139 147 167 178 162  90  11 191 205 201 199 206 200 198 192 143  57  25 183 201 211 206 119 169 158  62  66  54  38  43  66
 244 225 167 151 128 102  77  34  14   7   2  31   0  20  32  14  40   9  41  58  85  64  29  21  26  22  11  17  98  41  23  26  19  19  23  10   3  21  42  84 135 145  86  87   6  22 198 167 167 108 121  94 110 113 123 128 146 187 187 169 159 174 164 181 186 200 123  16 212 204 204 203 204 196 195 190 162  55  43 201 219 203 204 144 189 122  63  64  46  37  53  69
 248 244 199 145 126 107  70  33  17   4   1   7   7   0   6   0  33  34  44  50  70  19  22  25  52  41  25   9   0  16  34  29  24  10  13  54   6  60  24  92 148 164 109  67  17  44 188 195 156 136 114 123 118 116 133 148 163 169 167 177 163 165 176 195 188 205 147   4 216 201 205 202 201 199 195 185 147  63  44 117 176 214 212 148 206  82  62  54  43  43  55  70
 177 248 241 152 126 107  69  34  14   1   1   2  10  20   6  39  35  38  47  58  26  20  23  39  37  51  55  58  79  81  73  46  36  17  17  21   9  29  18  71 145 182 154  49  12  49 190 174 159 139 135 120 119 120 129 135 151 149 158 154 160 168 174 187 198 202 131  41 209 206 206 200 195 199 195 199 147  80  71 119 145 194 213 161 201  66  66  55  49  45  63  69
  12 155 243 201 128  88  72  34  12   3   1   5  16  37   8  53  34  37  48  41  29  29  37  55  71  90 109 115 120 114  90  72  35  28  17  13   6   6  18  71 134 168 193  91  28  63 194 187 180 163 158 149 148 153 145 152 148 151 160 157 158 165 172 183 200 201  99 129 210 204 203 202 199 200 198 194 150  77 128 125 140 178 216 184 172  61  61  55  42  39  60  69
  27  23 130 229 120  98  54  25   7   4   2   3  19  33  16  75  13  50  45  48  46  49  59  61  72  99 103 118 103 105  88  62  35  21  11  13   8   4  22  55 133 170 199 188  21  35 188 184 180 173 171 167 158 154 160 164 162 162 153 157 156 149 167 180 196 198  41 192 207 208 208 201 201 191 194 187 119  91 167 138 140 172 208 190 143  61  59  49  43  45  59  63
  26  24  11 131 148  76  54  20   6   5   0   1  12  29  43  49  69  44  50  62  70  70  71  74  84  97 107 106 113 101  81  55  36  15  17  20   5   4  18  61 124 165 195 205  88  26 160 189 173 185 181 179 170 159 154 153 152 153 151 151 153 155 159 176 203 167  32 213 206 204 203 198 204 191 196 197 132 140 174 148 136 161 204 193 131  56  59  49  36  49  66  70
  32  18  21   3  52  72  48  16   7   8   1   4   6  30  29  27 141  37  56  81  86  93  94 103 107 109 116 110 106 106  89  65  41  23  21  21   9   7  20  61 117 167 199 204 189  33 116 186 191 188 188 182 176 165 160 156 156 155 159 150 153 151 160 191 194  74 139 219 213 203 209 200 206 196 194 186 132 204 190 140 137 168 204 197 109  66  53  45  34  44  65  67
  23  23  16  13   4  46  34  16   6   2   3   2   4  28  26  26 151  47  54  75  84 100 112 116 122 124 126 124 119 109  98  71  46  24  22  25  10  19  23  48 116 166 196 198 218 145  49 165 187 186 191 181 175 167 160 163 150 154 161 156 155 156 167 180 158  24 208 207 210 207 203 199 195 203 190 185 177 203 165 138 146 173 201 199 102  54  51  40  33  55  63  71
  24  20  15  23  20   8  26  11   8   7   4   1   2  20  26  33  62 136  50  68  80 103 110 125 128 135 135 132 128 115 104  84  52  22  19  22   6  22  24  42 109 157 192 206 204 217  98  84 196 190 188 189 179 165 163 151 165 163 159 149 161 149 169 174   0 188 207 208 206 203 207 201 196 197 193 190 204 179 191 149 162 204 199 200  54  50  47  31  29  53  58  66
  23  19  17  17  16  10  14   7   4   6   6   6   3  17  30  29  21 148  74  56  74  88 104 115 129 134 141 142 139 133 106  92  49  22  17  15   5  14  23  42 100 157 185 201 203 207 208  68 107 176 197 189 170 164 162 159 160 164 158 151 148 147 140  10 158 208 211 210 207 208 200 205 203 195 188 190 205 197 214 218 206 210 202 180  62  54  35  35  42  60  74  72
  22  21  20  15  13  13  13  10   9   4   5   2   1   7  28  27  23  70 173  65  81  86 101 119 134 141 149 150 143 140 118  86  43  17  25   7  14  20  28  46  90 148 181 202 204 196 209 197  81  66 139 181 179 173 169 157 163 161 158 146 128  74  25 184 211 216 213 217 204 207 200 203 201 193 190 192 204 219 224 206 217 196 208 121  49  46  46  36  37  55  73  76
  27  17  23  19  21  14  13  11   5   2   3   5   2   7  21  23  27  32  67 178  42  83 104 125 135 148 151 148 158 140 112  71  34  38   7  19  23  27  29  51 102 145 179 200 198 195 197 214 188 108  79  38  78 127 151 144 145 136 105  59  16 129 206 223 214 215 209 210 201 205 202 200 196 192 193 190 214 217 223 210 204 208 182  60  53  48  46  34  40  57  67  69
  25  19  20  17  11  13  14  10   5   6   8   2   6   4  14  23  22  28  29  11 103 102  92 126 135 144 143 160 156 149 106  59  45  16  24  24  21  23  32  61  98 149 184 200 198 201 206 204 201 175 144 143 109  74  57  51  61  75 123 170 196 199 199 207 210 210 212 209 203 202 196 193 194 194 196 183 211 217 216 213 217 203  86  62  43  43  37  29  40  55  67  66
  22  23  22  19  16  16  15   6   6   6   7  13   8   5  10  16  16  21  27  29   9  15  94 119 136 142 154 152 132 115  86  25  13  48  21  18  19  26  28  63 101 152 178 200 204 202 196 205 201 189 188 169 135 119 131 128 156 157 178 191 194 204 203 208 203 204 200 204 203 202 201 199 195 196 191 193 209 216 216 210 198  99  70  47  53  44  39  36  52  65  67  57
  22  24  23  19  14  12  37  47  33  42  52  29   9   5   5  16  14  17  20  25  32  39  41  28  40  43  54  51  47  35  55  80  70  29  19  19  19  23  30  59 111 137 171 201 211 202 201 195 194 200 203 188 155 146 111 108 138 155 166 185 197 197 190 201 204 201 198 195 195 205 197 195 200 194 194 189 212 218 209 204 109  69  56  53  54  44  39  33  62  66  71  72
  21  20  21  22  17  14  40  53  52  55  48  28  26   8   7  12  12  12  20  25  27  54  65  94  99 107 114 115 126 123 114  83  63   9  19  29  30  23  25  58 100 148 171 197 212 206 200 199 202 204 206 189 167 181 142  97 103 132 146 171 183 198 192 197 199 197 198 197 190 204 202 203 196 197 191 151 182 171 147  75  63  50  56  53  51  49  42  42  60  65  75  61
  20  23  22  22  15  33  47  53  45  50  49  29  20  19  19  14  10  10  15  22  32  61  84 114 115 141 141 140 135 131 114  79  36  10  26  31  24  23  29  58  96 144 175 203 219 208 198 198 198 206 192 196 192 193 180 143  88  83 126 140 167 180 185 188 193 197 196 202 199 205 197 196 194 196 200  30  28  34  74  66  59  59  43  49  49  50  35  43  54  61  66  58
  24  18  18  19   8  44  52  57  52  51  50  32  19  17  16  12  10  10  11  15  20  59  77 113 120 143 140 146 140 126 105  69  31  10  17  30  26  25  30  48 102 127 162 196 216 204 193 195 202 195 191 204 200 195 197 168 134  80  83 117 139 165 180 183 192 192 191 193 199 200 197 200 199 199 177  19  18  28  65  69  67  61  55  55  55  52  35  39  51  54  59  62
  26  19  18  23  31  61  59  57  53  49  48  47  26  19  22  12  11  10  10  16  24  39  74 107 111 138 143 140 139 122  99  66  41  26  20  29  30  23  26  44  97 131 174 188 204 202 191 196 169 178 204 197 200 197 196 185 167 131 103  90 106 139 163 176 178 191 190 190 195 199 198 200 201 196 162   4  20  24  37  69  68  65  62  53  53  46  37  42  58  60  61  62
  24  20  26  20  38  55  52  49  51  57  57  60  39  18  19  11   8   7   9  12  12  34  68  93 121 118 134 138 139 117  92  61  45  35  25  20  21  23  31  26  77 126 158 179 190 188 183 186 176 192 192 197 198 194 199 192 180 159 138 118 119 114 134 166 176 191 190 200 194 192 196 199 199 193 116   5  18  16  27  56  66  61  57  46  50  36  33  51  60  61  59  66
  22  23  27  37  46  51  48  50  49  57  58  54  49  31  19  18  13   5  11  10  15  31  54  93 118 125 132 139 132 113  90  63  52  39  31  23  26  13  15  25  49 110 138 166 183 174 183 173 192 188 196 192 201 197 197 192 180 170 146 130 130 146 121 165 162 184 182 195 193 186 198 204 199 193  53   6  15  16  20  30  55  53  56  52  50  36  33  56  67  62  59  65
  18  20  15  40  56  51  50  58  53  60  55  47  47  44  32  20  21  14   8   8   9  24  47  96 117 124 144 144 122 104  82  58  45  38  32  28  32  27  27  31  42  68 111 132 156 168 168 188 193 193 198 200 191 206 196 199 194 178 167 142 129 116 139 153 186 177 180 189 188 182 200 202 195 188  22   3  13  16  18  15  47  64  64  54  52  34  38  53  61  57  62  64
  23  21  30  55  52  48  49  56  54  58  48  49  50  48  51  47  26  16   7  11  14  19  39  87 113 130 146 137 119  99  71  54  37  32  37  31  35  37  49  63  90  97 115 123 129 131 168 187 202 202 208 205 204 207 197 205 192 185 157 175 149 130 102 157 183 190 183 194 188 200 198 200 194 158   0   3  12   7  19  19  21  57  60  49  42  31  41  61  62  57  63  64
  19  20  42  50  55  57  48  54  55  57  48  46  48  53  57  55  55  50   7  12  11  15  27  78 126 148 146 135 121  89  68  49  35  27  31  38  42  51  65  85 113 127 147 136 148 180 171 190 206 204 204 199 198 191 192 174 181 108  84 131 161 144  92 154 199 189 184 194 192 201 198 195 197  79   1   2   5  20  17  12  24  43  51  46  42  38  41  67  66  64  67  59
  18  21  52  45  53  55  60  59  54  54  48  48  45  50  58  58  53  54  26  14  13  15  33  67 116 150 150 133 116 110  53  33  28  35  34  46  50  64  68  81  93 125 148 173 150 144 154 161 151 158 146 165 154 138 150 168  26  43 117 168 165 151  92 165 210 196 192 192 194 199 197 188 183   1   4   0  11  15  13  20  17  29  42  49  42  35  45  66  67  72  64  56
  24  10  26  35  45  48  48  48  48  44  46  42  41  52  57  55  52  45  41   7  16  17  16  69 116 163 160 140 137 128  55  37  38  30  33  30  44  54  52  58  53  71  77 100 117 121 134 142 151 146 143 143 181 212 212 140  68 146 172 174 188 145 117 173 193 193 189 196 201 197 190 194 134   4   1   3  10   6  12  17  18  26  34  41  49  43  55  72  63  59  60  64
  21   0   1   1   3   4   4   4   2   4   2   6   6  14  20  17  23  25  35   9  15  20  15  49  92 156 175 154 147 142  95  63  22  13  11  26  25  44  53  33  51  66  73  92 114 108 123 137 154 196 189 231 225 212 170 117 147 192 188 191 186 150 140 187 195 194 197 193 195 199 192 196  65   6   3   1   6   6  19  18  18  25  32  31  45  38  53  63  52  53  56  65
  15   0   0   1   0   0   0   0   1   0   0   0   1   0   2   0   3   2   1   4  12  12  18  36  66 143 179 172 156 141 116  93  60  34  10  12   8  66  50  97  95  93 111 163 153 194 226 210 225 236 195 224 203 106 140 170 191 199 187 187 188 161 160 191 204 197 197 188 192 193 191 166  28   9   0   2   5  17  24  21  19  23  29  31  34  36  58  64  58  63  59  61
   6   0   1   0   0   3   3   1   2   3   0   1   3   0   0   0   0   0   3   2   5  14  17  22  49 107 165 189 172 140 123  90  68  65  47  23  12  51  68 110 156 139 173 195 173 222 225 233 236 200 127 131 150 148 176 202 206 197 188 192 195 173 178 193 200 202 202 196 192 189 176 178  27   5   0   0   9  20  18  25  23  21  23  32  31  37  58  63  62  61  56  60
   0   0   0   0   0   0   0   0   0   0   0   0   0   1   1   0   3   1   1   0   6   9  16  18  35  68 143 176 180 149 120 102  70  57  57  50  52  51  39  64 104 119 143 171 143 178 183 155 121 131 146 158 167 200 208 211 206 203 198 200 197 185 189 200 202 196 195 193 186 178 164 186   7   0   0   3  14  19  16  19  15  17  16  30  32  30  33  31  51  58  58  58
   0   0   0   0   0   0   0   0   0   0   0   0   0   0   0   0   0   2   1   2   0   2  17  17  27  40 108 157 178 163 125  95  78  60  46  45  49  56  64  80  74  96  93 118 110 118 128 141 141 161 178 188 203 200 209 210 204 192 197 194 199 191 191 197 203 199 196 191 188 172 173 173   1   1   2   9  16  11  12  11  13  17  27  18  35  29  28  23  16  28  43  63
   0   0   0   0   0   0   0   0   0   0   0   1   0   0   0   1   0   0   0   0   0   0   3  15  17  34  69 119 157 158 132  90  77  67  46  38  48  56  69  67  85  96 111 116 132 123 130 142 167 187 204 204 192 204 206 205 202 192 197 203 201 197 196 199 200 198 191 188 176 159 183 180   1   0   1   9   9   9  18  19  20  24  19  22  42  20  28  26  20  16  24  29
   0   0   0   0   0   0   0   0   0   0   0   0   0   0   0   0   0   0   0   0   0   0   0   6  11  22  39  84 134 143 126 102  75  74  57  37  39  51  66  73  69  92 109 107 120 117 132 149 171 193 198 196 205 207 211 199 190 194 194 199 194 200 203 199 196 189 191 183 172 172 190 164   0   5   4   6   5   5  11  18  18  17  22  21  27  33  21  32  24  20  19  19
   0   0   0   0   0   0   0   0   0   0   0   0   0   0   0   0   0   0   0   0   0   0   0   1  12  17  22  41  87 117 123  95  77  75  64  50  44  46  65  81  85  91  93  96 113 121 128 154 161 168 186 197 200 202 205 200 193 195 195 197 204 207 204 195 187 196 184 175 170 190 192 174   2   1   5   5  11  12  13  19  17  16  20  28  26  35  25  33  20  17  19  18
   3   1   0   0   0   0   0   0   0   0   0   0   0   0   0   0   0   0   0   0   0   0   0   1   2  12  19  19  43  88 104  87  88  75  74  61  47  54  58  77  84 105 115 117 134 139 141 152 165 175 182 190 201 201 200 195 196 198 202 200 202 202 204 196 189 186 179 163 180 187 189 162   0   0   1   9  10  12   9  12  13  15  15  23  24  37  28  31  25  20  19  18
   0   0   0   0   0   0   0   0   0   0   0   0   0   0   0   0   1   0   0   0   0   0   0   1   1   5  15  16  26  45  74  76  88  83  81  71  64  60  65  80  97 114 120 124 128 144 147 153 162 160 185 190 200 204 196 190 196 198 196 204 204 201 195 195 191 175 166 177 190 193 190 168   1   2   8  15  17  17  12   9  11  12  15  24  27  34  26  29  23  16  16  13
   0   0   0   0   0   0   0   0   0   0   0   0   0   0   0   0   0   0   0   0   0   0   0   0   0   1  10  10  18  20  41  60  76  81  92  80  82  74  82 100 105 112 126 122 119 132 142 147 159 154 175 194 202 199 188 190 191 197 201 203 200 204 197 191 184 166 165 182 191 198 187 164   1   1   5   9   8  11  17  16  13  14  16  20  27  35  30  28  31  17  19  18
   0   0   0   0   0   0   0   0   0   0   0   0   0   0   0   0   0   0   0   0   0   0   0   0   0   0   0  10  12  12  25  36  63  83  96  95  91  92  90 102 110 125 129 127 128 139 150 152 160 167 184 197 196 198 196 190 197 202 204 201 194 198 196 182 174 158 177 196 197 194 192 178   0   3   3   9   9  16  21  19  14  17  21  20  24  32  32  28  32  16  13  17
   0   0   0   0   0   0   0   0   0   0   0   0   0   0   0   0   1   0   0   0   0   0   0   0   0   0   0   4  12   7  12  22  44  69  92 116 102 100 102  97 126 134 138 151 145 142 146 154 166 177 188 191 201 194 192 188 199 203 203 209 198 193 188 179 154 180 187 200 195 207 195 176   3   2   2   7  10  15  19  17  21  18  22  25  26  30  35  33  34  13  14  16
   1   0   0   0   0   0   0   0   0   0   0   0   0   0   0   0   0   1   0   0   0   0   0   0   0   0   1   1  12  11  12  14  26  51  86 108 120 111  92 111 114 133 139 138 143 150 158 162 168 172 184 189 196 186 187 194 204 205 204 201 190 190 175 157 171 179 193 197 197 194 192 167   1   2   5   9  10  12  17  18  20  20  22  20  26  32  38  32  33  14  18  11
   0   0   0   1   0   0   0   0   0   0   0   0   0   0   0   0   0   0   0   0   0   0   0   0   0   0   0   0   6  10   9   8  12  32  64 114 116 124  93  95 112 128 136 139 140 158 154 160 166 164 185 189 200 185 194 199 201 210 202 198 189 179 165 164 178 186 197 200 196 197 193 156   4   1   8  12  16  17  21  21  20  18  22  22  29  27  41  30  34  13   9  11
   0   0   0   0   0   0   0   0   0   0   0   0   0   0   0   0   0   0   0   0   0   0   0   0   0   0   0   0   3   8  12  13   9  22  37  82 109 105 107  86 101 123 144 152 155 157 156 152 160 166 182 196 194 187 190 202 200 199 203 190 177 156 168 166 179 196 197 202 197 192 183 117   2   7  12  14  18  21  21  18  20  18  18  25  24  25  43  30  34  12   9  12
   3   0   1   0   0   0   0   1   0   3   0   1   0   0   0   0   0   0   0   0   0   0   0   0   0   0   0   0   1   3   9  10  10   9  21  53  83  83  99  97 101 127 131 155 159 159 151 150 155 164 186 189 192 184 194 204 202 195 193 171 157 165 167 183 190 199 195 199 194 188 165  49   3   6   8  11  16  19  19  24  19  16  18  24  31  22  31  36  38  15  17  12
   3   0   0   1   1   0   0   0   1   0   0   1   0   0   0   0   0   0   0   0   0   0   0   0   0   1   0   0   0   1   6   7  12   7  12  23  68  64  74 113 108 129 153 164 163 160 153 145 157 165 175 178 188 188 204 202 197 192 177 155 169 172 175 190 194 203 199 194 190 182 131  17   2   4   6   8   8  20  22  20  20  19  19  24  26  28  23  42  33   6  11  11
   4   3   0   0   0   0   0   0   3   0   0   0   0   0   0   0   0   0   0   0   0   0   0   0   0   0   3   0   1   2   6   5  12  16  11  10  33  61  62 105 113 133 157 169 171 165 153 156 154 158 170 172 181 191 202 189 190 179 148 165 163 169 187 197 196 195 196 193 190 160  89   4   1   6   7  11   8   9  18  21  24  23  19  21  23  23  25  35  32  10   9   6
   0   0   0   0   0   0   0   2   0   3   3   1   0   0   0   0   0   0   0   0   0   0   0   0   0   0   0   0   0   2   7   8   4  12  17  11  18  31  60  89 115 130 153 175 180 170 154 152 147 159 168 179 181 189 186 176 181 142 159 164 170 183 194 200 195 194 193 184 170 137  53   2   1   3   6   7   7  10  11  16  14  24  24  30  25  25  20  25  25   7   8   9
   3   0   0   0   0   0   0   3   0   3   3   2   3   3   3   1   0   0   0   0   0   0   0   0   2   1   1   4   1   1   8   7   7  11  15  22  15  15  40  58  93 128 141 150 175 172 161 138 139 148 155 160 158 164 167 161 139 160 166 177 188 199 193 193 188 182 184 176 151 106  27   2   1   3   2   5   5  12  14  19  22  16  22  19  17  19  24  29  24   9   5   7
   3   3   0   0   0   0   3   1   6   4   2   3   2   3   3   3   0   0   0   0   1   3   3   1   3   2   2   1   0   2  11  12  12   6  12  18  23  23  20  46  67  95 120 145 155 157 144 137 135 139 142 137 142 156 143 151 164 165 176 189 193 197 193 185 186 179 171 154 128  73  14   1   1   5   2   5   7  12  13  18  21  21  25  20  19  19  22  31  20   9   6   5
   3   3   3   0   0   0   5   4   3   6   1   1   2   4   2   2   2   3   0   4   5   5   1   9   3   2   5   5   3   4  10  13  13  11  13  11  14  26  36  29  39  66  97 121 132 132 132 123 116 115 122 117 114 131 164 169 174 179 184 196 197 193 188 185 179 173 154 133 103  48   5   2   1   1   1   4   8  11  16  18  18  19  22  26  30  30  23  33   3   4   4   2
   3   2   0   0   2   3   7   5   0   6   4   0   3   2   3   1   2   3   2   4   4   3   1   0   0   3   6   1   1   4   9  15  13  18  14  13  15  21  27  39  50  54  60  73  85  89  95  93  90  99 114 131 150 162 169 177 185 190 198 199 193 192 186 175 161 154 138 110  71  28   3   1   1   2   4  10   6  19  12  15  16  22  26  25  25  33  32  36   3   1   2   2
   2   2   0   0   1   4   2   6   0   6   5   4   3   3   2   2   5   9   6   1   0   0   0   0   0   0   4   3   0   2  10  17  18  21  16  12  13  11  18  35  49  66  79  95  96 104 108 124 126 142 150 162 169 179 191 192 194 200 197 195 195 182 175 166 151 140 113  84  48  13   1   1   2   3  11   7  15  12  19  19  13  22  24  29  28  32  35  31   5   3   3   6
   5   3   1   2   0   7   2   4   3   2   2   5   5   5   8   6   3   0   0   0   0   0   0   0   0   0   5   9   3   1   8  14  21  21  19  13  10  14  18  36  53  74  92 109 116 126 131 143 145 158 168 180 181 193 197 195 203 197 201 192 185 175 169 149 133 118  93  62  26   5   1   0   1  14  11  17  13  22  19  14  19  22  27  24  29  27  31  19   2   2   4  10
   1   3   3   3   1   8   3   3   0   5   5   2   4   7   7   1   0   0   0   0   0   0   0   0   0   1   6   7   2   2  11  12  18  25  22  15  12  13  15  32  50  77 104 120 131 141 146 156 164 174 179 179 192 194 199 199 200 197 194 185 181 166 153 144 122 100  64  40  14   1   0   2   3  11  12   0   0   5  21  17  18  17  29  31  32  33  33   5   5   5   9  11
   5   3   2   3   2   7   7   1   5   6   5  13   8   3   1   0   0   0   0   0   0   0   0   0   2   5  13   4  14  10   2  21  12  33  27  22  14  18  19  26  53  81 109 125 139 147 154 172 178 184 190 190 196 199 207 197 199 190 184 182 171 153 143 119  98  67  44  26  10   2   0  11  17   6  15  10   0   3   5  15  24  22  24  24  35  39  32   7   8   9  16  14
   6   2   6   4   8   7   4   4   4   7  10   2   0   0   0   0   0   0   0   0   0   0   0   0   1   5   9   6  34   0  11   3  23  30  28  29  19  18  18  25  46  88 123 141 144 153 167 175 177 191 196 201 203 200 190 192 189 178 177 169 157 139 126 105  76  44  30   8   1   0   6  16  10  19  19  12   0   0   1   0  22  22  22  24  28  38  32   7   9  13  16  18
   6   6   6   6   9   7   2   4   8   9   3   0   0   0   0   0   0   0   0   0   0   0   0   0   1   4   3   7   0  91  21  18  18  30  31  29  24  23  27  24  33  74 112 145 152 158 169 178 182 198 198 201 196 187 190 187 177 172 163 152 140 129 111  77  56  39  14   2   0   2  11  28  44  21  24  14   0   0   3   1  15  28  22  22  27  36  24  11  11  17  21  17
