P2
# Generated by OpenCV 4.2.0
92 112
255
 197 178 157 150 149 179 233 251 251 251 222 162 152 156 156 155 153 191 244 252 250 215 121 166 241 251 252 252 252 252 252 252 252 252 252 252 252 252 252 252 252 252 252 252 252 252 252 252 252 252 252 252 252 252 251 251 251 253 253 252 252 252 252 251 251 251 251 251 251 251 251 250 251 251 251 252 251 251 251 251 250 251 251 250 251 250 250 250 250 251 250 250
 237 224 202 172 163 211 247 251 251 240 188 153 155 156 156 155 153 192 245 252 250 214 121 168 242 252 252 252 251 252 252 252 252 252 251 252 252 252 252 253 252 252 251 252 252 252 252 252 252 252 252 252 252 252 252 252 252 252 252 252 252 252 252 251 252 251 251 251 252 250 251 251 251 251 251 251 251 251 251 251 251 251 251 251 251 250 250 250 250 250 250 250
 251 251 245 225 217 241 251 251 246 203 156 155 156 156 155 155 154 193 245 252 250 214 121 170 243 253 252 252 252 252 252 252 252 252 252 252 252 253 253 253 253 254 255 253 254 254 254 254 253 254 254 253 252 252 253 252 252 252 253 252 252 252 252 250 251 251 251 251 251 251 251 251 251 251 251 251 251 251 250 251 252 251 251 251 250 250 250 250 250 250 250 250
 251 251 251 251 250 251 251 246 212 162 153 157 156 156 156 155 154 196 245 252 249 213 122 173 243 253 253 253 252 250 250 251 253 253 252 253 253 253 253 252 246 216 189 191 194 191 182 153 155 169 204 234 249 252 253 253 253 252 252 252 252 252 252 252 251 252 252 252 252 252 252 251 252 251 250 251 252 252 251 251 251 251 251 252 251 251 251 251 251 252 250 250
 251 251 250 251 251 251 249 220 166 151 156 156 156 156 156 155 155 198 246 253 250 212 126 177 245 253 248 237 231 230 221 220 226 238 240 245 242 228 205 191 171 145 136 151 136 114 108 113 110 105 101 110 141 187 238 253 253 252 253 252 252 252 252 252 252 252 251 252 252 252 251 250 250 250 251 251 251 249 248 250 251 251 251 251 250 251 251 251 251 251 251 251
 252 252 251 252 252 252 250 224 182 158 154 154 155 155 156 156 155 199 248 253 252 212 121 178 243 244 239 234 228 218 210 203 185 179 182 194 199 163 125 104 150 200 194 154 129 111 112 120 110 141 130 103  89 114 154 211 251 252 253 254 253 252 252 252 252 252 252 252 253 251 245 221 218 243 250 251 248 222 216 244 252 251 251 251 251 251 251 251 251 251 251 251
 251 251 251 252 251 252 252 249 235 204 175 163 161 161 160 157 156 200 249 253 251 211 122 178 234 242 238 232 216 198 179 163 143 130 136 135 138 105  87  87  91 120 138 127 114  88  64  64  68  67  85  89  77  82  91 104 187 247 251 252 252 253 253 252 252 252 252 252 253 248 213 123 132 224 251 253 242 181 178 237 250 250 252 251 251 250 249 250 251 252 251 251
 252 250 249 252 252 251 251 252 252 245 233 220 215 201 174 158 158 202 250 253 250 211 123 173 227 232 211 201 181 148 126 122 113 119 133 118  99  92 103 103  86  84  83  74  63  63  70  50  62  66  55  58  64  63  74  85 109 194 245 250 249 250 251 252 253 252 252 252 252 240 174  99 106 200 248 253 241 172 149 198 209 217 240 250 250 237 218 215 234 250 250 244
 227 204 199 234 252 252 252 252 252 252 252 253 246 216 171 157 159 204 250 253 250 208 126 173 203 158 136 136 115  88  89 104 119 122  96  76  94 102  89  85  82  76  49  39  37  28  54  45  41  57  66  56  48  67  91  80  70 110 143 150 175 214 243 249 250 252 252 252 251 219 164 169 150 173 240 253 242 168 105 150 150 139 187 235 231 185 159 168 204 241 240 203
 166 156 153 179 222 246 251 251 252 253 252 248 224 178 157 159 160 205 251 253 251 206 137 150 121 107 111  91  73  88 115 122  98  65  51  82  93  95  98  96  95  78  59  50  26  23  66  75  36  37  65  64  39  60  80  85  99  90  99 128 143 136 116 160 216 244 252 253 245 189 168 217 197 157 222 252 242 166 136 200 217 179 150 199 198 141 164 206 228 239 211 159
 153 155 156 152 165 195 222 236 240 237 224 198 166 155 159 160 159 206 250 254 250 209 144 109  99 104  84  80  87 100  92  79  52  50  43  78  62  89 111  92  91  71  68  60  49  65  88  87  64  58  54  50  44  41  78 115  89  70  70  87 100  96  80  98  98 135 185 220 230 153 154 217 193 128 195 249 240 172 182 243 252 231 168 182 201 159 156 201 235 235 180 168
 156 156 157 157 155 154 163 174 179 176 164 157 160 160 159 159 160 207 255 255 236 159 120 113  96  79  72  69  92 112  89  78  78  67  63  58  49 106 106  96  95  85  83  89  89  84  74  74  63  65  59  41  48  43 113 105  80  79  72  70  63  77  81 101  77  68  88  93 151 132 138 173 156 100 162 244 238 169 181 245 252 232 168 192 232 219 178 149 182 207 163 176
 155 154 155 155 154 155 154 153 153 154 156 158 160 162 160 158 160 208 247 227 151 103 109  98  73  58  72  94 102  94  93  93  97  91  80  90 119 128 116 112 104 104  98  83  67  54  49  46  66  79  64  43  51 106 122 104 102  97  87  80  64  77  87  82  77  74  77  47  71  97 102 138 172 162 150 220 230 157 133 204 223 186 156 209 238 230 206 156 150 202 180 156
 165 166 166 165 165 164 165 163 163 161 163 162 162 161 166 166 165 187 211 149 114 109  97  99  94 100  93  77  79  94  99 106 106 116 127 122 121  98  90  86  92  77  60  40  59  74  75  78  80  71  57  61  76 116 102  88  93  79  59  36  30  44  92  93 100  74  64  54  51  78  65  73 118 191 184 205 221 183 148 163 159 152 196 236 230 192 178 161 185 232 226 173
 226 224 223 223 221 221 220 219 218 216 215 215 213 214 197 186 192 198 153 115 110 108 110 107 109  96  62  75  94 101 103  89  91 107 108 100  92  81  68  72  57  50  68  94 108  67  69  78  71  66  70  74  78  85  89 114  89  80  72  47  25  26  66  87 109  92  62  83  75  70  70  53  74 130 213 238 241 235 229 221 209 222 244 251 244 218 202 209 234 250 250 230
 254 253 253 252 253 254 253 253 253 253 254 254 254 231 215 223 237 170 106 111 101 107 102  86  67  53  73 111 116 102  81  98  94  70  83 110 110  69  70  63  39  60  84  93  90  88  93  82  70  70  70  73  85  78 112  88  75  74  67  69  62  55  64  81 106  98  47  58  83  86  58  40  70  99 176 254 254 253 253 252 251 252 253 253 253 252 250 250 251 253 252 249
 249 251 253 252 251 249 250 251 252 253 253 255 233 219 234 249 201 101  96  94 101  94  91  75  61  63 113 114  85  72  97  82  49  71 123 126  70  41  36  48  55  71  84 108 116 106  92  76  63  72  89  99  78  90  95  73  85  64  61  71  51  61  82  95  99  84  49  47  71  94  55  23  59  79 115 215 255 254 254 254 253 253 253 252 252 253 252 249 248 245 238 241
 216 228 247 251 235 213 219 226 237 250 254 234 208 220 221 196  92  71  76  87  96  83  87  66  50  79  92  64  79  80  59  45  78 102 118  79  58  53  50  58  73  76  83 112 112 101  88  92  77  73  85  86  66  95  73  84  90  85  55  54  48  59  94 103  90  52  69  58  71  89  92  48  46  64  84 144 248 254 254 253 253 253 252 253 253 253 248 216 212 225 207 218
 221 210 228 249 217 195 224 222 213 226 238 214 220 202 160  94  62  81  96 104  84  80  51  30  52  75  68  93  64  48  52  79  79  80  68  74  82  99 109  75  73  72  78  77  85  72  78 114 103  77  58  72  89  86  75  99 102  76  49  47  61  90 118 101  73  50  54  83  69  92 100  70  55  53  74 101 204 247 248 248 248 251 252 251 249 249 232 173 186 226 211 222
 253 227 215 243 220 223 251 251 237 211 214 237 207 134  84  65  89 109 100  84  86  61  34  52  79  87 101  68  67  75  76  86  65  70  78  81  77  83  79  62  71  73  81  83  86  82 100 110 111 101  81  75  84  47  64  77 100  88  59  73  52  97 128  83  57  62  58  83  74  85  97  65  60  64  59  68 127 190 193 185 202 243 248 225 192 191 178 138 188 222 205 220
 248 223 221 245 220 226 252 254 253 230 215 222 133  77  76  90 107  89  79  74  72  52  52  80  85 105  70  76  77  57  84  99 101 108  93  77  72  58  58  43  62  79  75  76  87  82  98  98  91  91  67  45  87  64  55  61  94  92  62  62  60 116 119  78  76  63  81  77 109  98 107  77  54  78  64  61  96 158 168 120 156 227 219 162 157 173 144 108 191 211 166 193
 203 213 239 250 220 226 252 253 253 243 205 135  76  81  85 108  96  74  64  74  71  63  74  65  88  75  72  82  59  70  91  86  90  81  74  57  51  53  45  41  64  64  67  65  51  50  69  80  92  85  73  50  87  76  33  39  80  98  75  50  55 123 104  76  82  66  84  70  90 124 130  94  61  78  70  54  69 109 180 166 161 206 177 167 225 238 202 142 192 211 162 185
 184 222 253 250 219 226 252 253 254 238 152  79  76  81 105  88  79  48  66  64  68  64  70  76  68  59  84  83  86  97  98  75  41  22  18  26  18  15  21  34  41  46  43  34  29  23  53  89  97  83  70  54  45  89  56  20  44 100  81  71  63 100 105  95  92  92  85  73  52  88 133 121  82  84 103  71  78  69 100 156 172 192 169 200 250 254 232 170 193 210 163 181
 212 224 251 250 219 228 252 254 249 192  92  75  75  85 103  76  48  31  38  47  61  57  62  60  41  59  85  81  79  54  51  27   5   9   9   7  10   4   8  20  23  33  33  41  46  58  73  80  75  71  93  56  16  62 118  61  39  80  93  76  66  90 112 110 112  98  82  74  54  45 115 148 110 112 112  90  89  87  85 121 180 203 178 189 243 250 219 155 193 209 162 186
 234 216 232 248 215 213 245 244 216 123  79  69  76  95 101  59  23  23  14  39  61  51  49  41  52  66  66  45  30  35  27  10  15  13  11   5   2   2   1   8  18  17  19  30  40  51  71  71  85  96  63  35  33  46 101 133  75  76 107 100  90 103 100 114 112  97  78  71  70  38  78 146 112 103 119  90  80  86  95 110 172 226 205 161 187 201 162 124 199 208 160 196
 251 231 226 244 220 198 219 213 146  88  72  56  60  99  82  26  19  30  39  67  72  59  50  46  60  52  33  19  17  23  19  13  16  10   3   9   5   2   1   6  12  16  26  27  36  59  63  65  65  57  38  50  46  53  67 118 128  80 104 107 106 104 114 104  92  93  93 103  68  42  54 135 132  76 128  89  62  59  64  93 125 193 241 202 169 176 177 185 220 220 190 220
 254 251 247 250 245 234 235 193  86  70  52  43  59  88  58  20  33  31  60  83  69  59  49  53  35  33  23  20  24  22  20  25  12  11   5  11   5   5   5   7   9  12  24  26  37  49  41  42  39  43  24  35  46  37  49  77 107  97  94 108 110 123 117 116 105  95 119  90  50  57  50 111 146  81 117  96  79  58  71  94 107 132 198 248 237 237 244 245 248 246 240 247
 250 250 250 250 253 254 254 171  66  52  39  48  59  67  34  13  34  46  64  73  60  47  45  36  28  27  28  18   8  30  35  22  12  16  19  23  13   3   3   3   6   7  12  23  28  32  37  38  48  30  13  21  44  29  49  67  74  84 103 103 100 118 142 127 117 128  93  61  64  68  61  94 126  91  96  98  83  63  82  92 108 100 119 225 255 253 253 253 253 253 252 253
 188 187 196 231 251 254 246 116  70  33  32  52  49  48  28  14  32  54  69  66  59  57  46  27  25  27  33  22  16  36  40  22  22  25  37  42  29   3   1   3   5   5   9  15  29  38  50  49  32  21  22  25  29  28  33  57  62  85 104 116  93  96 136 144 121 120 123  99  68  73  66  79 104  95  96  89  87  58  63  86 115 104  73 130 248 254 253 253 253 253 253 253
 163 135 106 198 250 255 211  85  69  24  44  39  37  35  24  19  43  59  50  45  56  54  29  31  25  32  41  36  28  32  46  26  30  30  49  76  52  14   3   4   8  11  18  29  29  38  41  33  24  18  20  25  25  32  35  43  59  66  85 109 114  84  97 118 122 131 114  96  68  62  66  67  85  77  79 101  86  54  70  83 111 122  83  77 184 255 253 253 253 253 253 253
 240 206 130 192 251 253 178  83  47  32  35  37  31  27  22  22  53  56  51  48  50  38  38  32  35  55  51  32  19  24  40  26  43  32  63 105  74  17  13  15  13  18  38  51  31  19  20  28  28  23  24  20  23  41  55  48  57  54  53  67  81  85  81  81 103 108  80  66  47  61  74  61  78  79  77  94  87  57  70  89 106 124 105  76 122 244 254 253 253 253 253 252
 253 233 145 193 251 243 162  87  46  35  33  40  34  31  34  49  51  70  77  61  47  36  35  33  64  78  69  35  21  25  30  25  47  59  56 107  66  26  12  17  24  22  53  63  53  39  34  36  31  26  28  32  33  42  61  70  57  60  52  45  43  52  62  75  73  71  61  55  50  92 103  74  87  85  85  95  70  42  59  89 108 109 123  75  92 216 254 255 253 253 252 252
 254 231 143 194 249 222 132  74  47  28  31  46  42  28  41  76  66  58  84  46  36  29  23  51  75  77  73  50  31  23  28  25  40  81  58  84  58  33  20  21  20  25  40  52  63  54  43  44  44  41  35  39  38  43  49  56  55  54  61  56  39  38  49  50  47  52  65  68  93 126 123  72  76  84  80  69  59  52  57  88 113 102 118  90  58 185 255 254 254 253 252 252
 254 230 143 196 248 200  99  73  42  24  18  31  22  21  41  86  87  29  30  40  25  20  32  66  74  84  82  63  39  29  37  50  67  72  65  64  63  46  29  38  34  44  85  93  75  78  69  50  61  69  59  50  54  65  65  62  51  39  43  57  71  66  64  56  52  58  65  89 143 151 124  83  89  65  35  40  51  59  74  86 105 108 111 103  44 136 254 253 253 253 252 253
 253 229 142 197 249 190  96  72  38  23  17  29  23  15  54  83  72  56  31  39  24  32  73  93 100 104  95  69  64  37  78 115 123 130 111  87  81  49  37  53  58  74 141 177 138 112  98  76  73  95  93  82  61  53  43  45  52  52  54  60  77  80  88  65  61  85 102 141 168 178 137  91  96  68  41  48  57  75  73  71  98 102 107 108  69 115 252 254 252 252 251 252
 253 228 142 198 248 203 101  61  30  24  19  28  24  22  65 121  82  62  45  33  46  76 107  80 105  97  97  88  77  88 124 148 125 124 139 113  91  57  52  73  72  89 133 182 169 150 121 110  92  95 114 112 104  69  43  34  40  50  48  53  68  73  60  87 139 164 172 177 186 188 151  94 102  82  69  73  69  75  78  62  78  97  92 112 107 129 251 254 253 253 252 252
 253 227 140 199 250 224 113  57  34  22  26  25  22  28  95 152 147 112  88  61  72  96 113 102  94  95  88  94 123 158 151 142 163 161 128 115  85  64  62  94  94 104 130 193 188 183 156 116 112 111 130 130 126 130 101  73  59  46  46  53  61  71 122 192 209 206 209 214 216 211 165 109  94  80  86  91  72  50  55  64  80  98  82 101 121 191 253 253 252 252 252 252
 253 226 139 200 251 243 132  30  37  25  33  36  20  45 113 152 165 160 138 116 127 139 144 134 118  95 113 144 154 180 182 169 169 153 144  98  88  66  79 111 134 150 128 179 201 189 188 161 133 117 113 125 129 126 128 115  85  86  93 109 129 172 213 221 221 225 225 227 227 218 170 113  77  62  78  75  43  28  53  60  74  86  65  88 142 238 254 252 252 252 253 252
 254 224 139 202 251 253 151  27  35  33  49  42  13  57 121 161 170 164 155 148 160 151 128 120 124 151 166 162 176 193 198 180 156 149 108  83  84  71 108 129 153 177 152 166 200 200 200 203 186 155 143 128 118 122 118 118 143 169 178 200 218 224 228 230 233 234 234 235 235 213 173 115  75  62  71  81  46  32  37  56  65  66  58  79 138 246 253 252 252 252 253 252
 253 224 140 203 251 255 169  38  31  45  60  30  19  68 125 165 179 176 176 175 172 183 175 167 177 175 174 186 182 178 151 126 107  87  85  95  79  98 140 147 173 186 176 156 185 184 189 190 204 211 204 193 183 188 201 217 220 223 231 230 233 235 235 234 236 235 235 236 238 229 206 141  83  84  88  80  64  32  27  43  55  47  65  71 139 248 253 252 252 252 253 252
 253 222 139 204 251 255 182  41  42  51  56  16  29  77 131 166 179 178 187 187 186 189 191 192 189 185 190 191 189 172 124  92  89  96  86  81 110 154 163 166 198 203 208 184 164 175 187 215 224 226 229 235 237 237 236 237 237 239 240 239 241 236 233 238 237 237 239 238 239 236 226 176 119 118 122 102  58  35  25  28  41  40  56  62 130 249 252 252 252 252 252 252
 253 222 139 205 252 255 192  47  45  50  35  13  36  84 140 165 179 187 189 187 188 189 191 194 191 192 196 198 196 189 166 136 126 123 120 136 161 175 169 195 211 214 221 214 197 212 227 230 232 233 236 239 239 238 238 240 242 240 243 241 241 241 238 238 238 240 238 238 240 238 226 205 175 150 139 109  57  33  19  29  32  35  44  68 133 247 251 252 252 252 252 253
 253 221 139 207 252 255 198  62  47  46  22  17  43  97 137 161 184 187 189 188 189 189 192 192 194 198 200 201 203 199 191 184 177 165 162 166 181 174 192 215 218 223 226 225 228 228 230 233 235 237 242 244 245 245 245 243 244 242 243 245 242 241 240 236 236 240 239 238 238 238 231 214 191 157 132 108  60  25  21  23  21  36  42  75 143 247 251 252 252 252 252 253
 253 220 138 208 252 255 208  61  45  38  16  17  53  96 133 161 184 187 187 187 186 187 190 194 199 202 203 203 205 201 200 197 198 194 188 188 184 196 217 216 222 230 229 232 233 235 234 234 237 242 242 243 245 246 248 247 245 244 244 244 243 243 240 237 238 237 237 240 240 238 231 219 196 169 128  98  62  37  25  22  15  39  54  75 131 243 251 251 252 252 252 252
 252 218 136 210 252 255 202  50  49  36  20  22  53  91 131 162 186 189 187 187 187 189 194 199 199 203 204 206 206 207 209 210 208 210 207 202 205 220 219 222 226 229 234 235 235 236 235 237 241 244 243 244 248 250 250 249 247 247 246 245 244 241 240 240 241 239 237 236 235 236 235 223 200 176 134  94  62  35  22  28  26  26  50  72 115 234 252 250 252 252 252 252
 252 217 138 210 252 255 214  59  46  34  29  23  52  84 129 163 186 186 186 187 188 193 197 201 203 205 206 209 209 211 216 216 218 219 217 220 224 222 225 228 232 234 238 238 234 236 237 239 242 246 248 248 251 250 252 250 249 248 250 247 244 244 242 241 239 241 240 236 237 240 237 232 218 181 137 101  63  36  31  30  21  22  41  59 111 233 254 253 252 252 252 252
 252 233 195 230 252 254 239  72  31  41  33  34  43  78 128 168 184 186 188 189 189 193 197 200 204 206 205 208 212 215 220 224 227 226 225 230 233 231 233 234 236 238 240 239 237 234 240 243 245 248 251 245 249 252 253 250 249 250 250 249 245 244 245 243 240 240 240 236 238 238 238 237 225 196 141  91  54  37  38  33  21  20  32  47 108 237 252 252 252 252 252 252
 252 250 249 251 254 255 242  78  31  49  30  36  36  73 131 169 184 187 189 191 193 194 198 203 206 207 209 211 215 219 221 225 228 227 226 232 236 237 237 237 237 239 242 241 237 235 240 244 246 250 251 249 250 251 252 249 250 247 245 250 251 250 249 246 244 241 238 237 233 236 239 234 228 209 153  88  47  39  33  24  26  25  28  47 133 240 250 252 252 252 252 252
 251 252 253 253 252 254 242  82  33  49  25  30  32  68 136 171 183 188 191 193 194 196 200 209 211 211 210 214 216 216 223 226 223 228 231 229 230 234 237 239 238 236 241 240 239 238 237 243 245 249 250 248 247 246 248 247 248 247 246 247 253 252 250 247 243 241 239 237 233 234 235 234 229 213 167  90  40  44  41  24  24  25  27  41 164 250 251 252 252 252 252 252
 236 236 246 240 235 249 251 124  26  52  25  25  27  77 149 177 182 187 191 192 193 200 206 208 212 212 210 214 215 218 220 222 222 226 230 232 227 230 233 234 234 236 238 239 240 240 237 238 240 245 245 242 242 242 245 245 240 242 243 242 246 246 250 250 247 240 236 236 238 237 236 234 232 218 182  99  34  40  46  18  23  31  29  69 203 253 252 252 252 252 252 252
 224 225 242 228 220 246 255 185  21  50  30  18  26  92 155 180 184 188 187 188 195 201 202 202 207 206 205 207 212 215 216 220 221 221 226 231 225 228 229 228 231 235 238 235 233 234 231 231 231 236 238 234 232 233 236 235 230 230 236 230 229 216 222 247 252 247 243 238 235 235 236 233 231 221 196 117  31  40  38  10  26  40  24 132 252 251 252 252 252 252 252 252
 247 247 250 248 245 251 255 233  60  43  35  11  22 102 166 181 184 186 184 186 195 197 192 190 193 196 195 193 200 201 207 213 216 217 220 225 223 224 222 227 233 235 233 229 222 220 222 224 225 222 225 227 222 223 218 212 205 190 183 179 171 156 155 191 227 237 246 238 230 230 234 233 230 224 208 137  38  41  31  10  26  45  46 186 255 252 252 252 252 252 252 252
 253 252 251 252 253 253 253 255 184  48  47  11  19 122 177 184 184 185 184 188 198 163 124 126 143 146 151 164 183 194 202 206 204 202 204 213 213 214 214 216 217 221 222 222 214 212 211 207 213 204 209 212 217 201 171 145 141 130 108 111  97 111 124 131 146 166 198 238 234 233 233 233 231 228 218 155  44  25  11  13  22  42 107 231 254 252 252 252 252 252 252 252
 252 252 242 239 251 254 254 254 251  80  43  29  26 135 185 186 184 181 180 186 131  64  53  54  60  59  70  85 109 128 143 152 162 176 182 189 199 204 203 200 205 211 212 210 202 199 193 192 191 185 176 158 128 101  71  63  61  66  73  83  96 107 104  99 118 136 144 196 240 232 229 230 233 231 225 176  34  22 106  69   9  64 198 252 252 252 252 252 252 252 252 252
 244 234 198 199 238 239 236 246 254 154  31  30  27 135 188 186 182 178 170  99  37  44  51  36  30  28  21  28  28  23  34  43  63 104 152 167 182 190 192 191 196 201 205 199 194 190 180 176 155 122  83  53  18  11  14  23  17  25  43  57  74  77  78  95  97 119 154 176 227 234 229 229 232 236 224 124  77 155 194  41  19 120 240 253 252 252 251 252 252 252 252 252
 219 200 181 175 195 178 168 211 250 233 123 118   0 108 175 179 178 181 113  40  46  39  44  43  27  23  24  22  15   7   3   9  21  42  86 131 163 174 176 181 188 183 189 188 189 179 172 152 100  56  31  18  13  12  22  26  38  54  67  95 117 109 103 110 110 132 150 170 202 231 232 231 234 201 133 119 165 197 104   7  55 148 233 246 251 252 252 252 252 252 252 252
 201 199 202 182 169 147 163 191 202 205 168 179 120  68 145 170 176 158  97  73  65  50  36  34  38  54  67  63  50  35  25  20  25  38  52  90 135 153 158 165 171 174 179 174 170 164 154 123  80  57  40  29  35  53  66  80  88  98 108 114 117 137 151 157 164 171 176 186 192 214 234 221 165 126 150 175 176 130  31  17  82 186 227 227 235 250 251 252 252 252 252 252
 182 205 214 205 200 160 187 190 162 144 112 108 206 135 110 129 126  94  60  43  35  48  44  55  68  82  89  96  89  73  65  59  58  55  57  60  90 122 143 158 171 178 177 179 169 147 122  93  65  40  33  41  53  58  62  56  40  67 109 141 126  96  95 122 148 168 183 193 199 211 199 134 138 166 173 155  80  46  36  22  74 174 198 195 210 244 251 251 252 252 252 252
 219 236 240 242 240 222 198 171 155 106  41  24 107 152  88  11   5   2   2   3  83 121 116 124 124 110  92  68  46  27  18  27  47  47  53  67  65  74  90 104 112 118 124 118 106  95  84  49  10  16  44  51  43  33  28   4  46  52  20  28  44  54  42  28  29  61  87  98 107 125 111 136 168 166 179 172  91  75  50  33  55 139 127 117 166 233 251 252 252 252 252 252
 251 252 252 251 249 248 183 126  95  68  35  20  54 156  59  12  88  68   0  80 131 120 112  92  48  29  33   3  24  44  13  18  35  39  31  19  40  23  12  12  17  28  35  23  20  26  31   6  24  76  92  75  57 104  57  21  45  50  31  84  71  20  56  76  48   7  31  71  22  16  84 146 187 189 208 206 118  74  59  40  57 118 134 110 162 235 252 252 252 252 252 252
 240 251 253 251 234 222 153  83  55  76  47  28  62 171  93   7  43  33  54 147 125  99  68  25  13  86  90  21  27  26  12  50  96  59  73  54   0   0   0   1   4  11  18  14   6   2   0  16 110 122  98  71  95 135 102  28  11  15  49 149 142  94  66  77  99  58  44  85  23   1 153 192 200 214 225 209 122  73  76  47  79 150 149 133 185 242 253 252 252 252 252 252
 175 214 246 249 203 164 158 107 102  97  33  38  70 174 190 110   3   4 112 140 102  72  43  36  70 114 139  64  16  21  29  99 117  81  62 104  59   4  18  71 101 125 140 131 123  41   0  96 166 146 119 116 118 131 142 107 103 110 145 177 161 153 149 143 122 132  27   0  14 124 199 209 216 223 227 209 112  68 102  76 131 208 178 158 201 249 252 252 252 252 252 252
 126 146 193 220 186 141 170 126 111  61  42  54  74 173 190 196  54   2 136 134 101  84  87 110 122 114 126 125 112 115 130 135 124 116 118 127 125  33  22  85 148 181 188 170 141  20  11 154 160 152 151 144 147 156 162 172 178 184 174 171 167 168 181 190 185 194  96   9 131 224 209 216 222 225 225 198 110  80  84 101 184 220 204 184 226 251 252 252 252 252 252 252
 131 126 133 153 147 133 162 133 110  83  95  62  73 176 190 194  99  11 152 152 138 139 145 147 147 141 136 145 167 159 157 146 137 126 129 132 136  49   3  79 167 207 222 194 131   6  48 176 152 137 133 133 137 138 151 166 171 165 161 162 169 181 189 196 200 215 139   5 179 220 215 220 222 223 221 179 100  89  69  97 170 214 210 198 240 251 252 252 252 252 252 252
 131 130 128 129 129 128 168 157 140 140 109  55  66 175 190 191 138  26 160 168 161 160 165 162 158 150 146 147 152 151 141 143 137 124 121 121 133  63   0  83 183 223 237 221 133   7  69 195 173 152 144 153 155 156 157 154 157 158 164 170 179 188 191 197 203 222 147  11 207 225 222 224 221 219 210 151  90  92  92 111 156 206 212 208 249 251 251 251 251 252 252 252
 130 130 128 127 130 127 164 169 161 157 118  64  53 162 187 185 176  30 142 181 174 175 178 175 175 169 166 164 161 161 165 167 163 149 144 146 149  80   0  91 200 234 244 242 172   9  69 206 195 190 179 168 170 183 191 190 188 185 192 198 200 199 199 202 210 230 125  49 233 224 222 224 224 221 201 135  90 102 119 126 163 204 212 223 251 251 251 251 251 252 252 252
 130 126 131 146 140 126 159 180 172 163 139  86  42 146 190 184 197  62  98 194 183 185 185 185 188 188 186 188 183 182 183 178 171 169 168 162 171  83   4 114 211 236 245 249 219  34  47 211 206 201 205 199 188 185 193 200 203 195 200 206 208 212 215 221 223 234  88 118 237 224 224 222 225 225 198 146  80 116 143 138 168 206 215 237 251 251 251 251 251 252 252 252
 126 142 186 209 176 126 152 183 181 169 143 109  44 118 189 186 195 131  47 192 185 188 192 194 195 192 193 194 192 190 191 191 187 188 184 170 177  66  34 150 204 232 248 251 243  99   9 195 215 210 216 217 212 202 200 203 204 203 210 210 210 216 221 223 228 214  56 193 230 227 227 223 223 221 212 147  81 150 160 155 180 218 225 245 251 251 251 251 251 252 252 252
 173 209 243 249 195 152 194 194 181 172 147 126  67  98 184 183 186 191  58 142 197 192 195 199 201 202 203 201 201 199 197 197 195 191 184 177 163  26  87 176 196 225 246 250 242 182  11 132 229 215 215 220 221 213 212 213 214 214 217 218 220 221 220 222 238 123  77 233 222 222 225 224 225 220 216 126 109 175 163 170 193 221 230 249 251 250 251 251 251 252 252 252
 237 250 252 250 221 218 247 214 182 178 151 132 104  87 171 184 184 192 152  99 197 194 196 199 202 207 206 207 207 206 203 201 196 187 181 189  92  19 145 182 193 220 243 248 240 231  97  21 208 214 214 215 214 217 214 215 215 217 218 219 221 220 219 228 202  34 181 226 220 220 222 223 222 222 213 126 165 183 171 191 215 220 230 250 251 251 251 251 251 252 252 252
 251 252 252 251 249 250 253 233 182 179 162 130 121 106 162 188 185 182 194 118 104 204 194 196 200 207 209 211 211 210 207 201 194 189 190 142   5  84 178 182 193 216 240 247 242 232 213  42  83 224 214 214 215 218 214 212 213 217 221 213 213 214 221 220  56 114 224 211 215 218 218 220 219 220 200 161 218 230 217 223 223 214 233 252 251 252 251 251 251 252 252 252
 230 230 230 232 233 235 235 230 183 174 181 153 142 138 163 185 185 181 181 181  84 100 205 207 204 209 210 213 214 213 209 205 200 203 154  32  60 156 186 186 199 216 237 245 243 229 233 170  30 117 223 220 215 216 216 215 217 220 221 219 216 225 202  55  86 220 211 210 209 215 218 220 220 215 204 219 240 244 232 213 210 222 242 250 251 251 252 251 251 252 252 252
 134 135 136 136 138 140 139 154 188 171 169 178 185 168 158 181 183 178 175 174 181 107  90 164 208 217 218 217 217 216 220 218 188 108  45  82 142 179 187 190 204 221 238 246 244 233 229 217 137  63  92 192 226 223 219 218 222 224 223 227 224 155  39 101 225 217 208 207 208 212 218 218 217 213 214 241 245 240 235 226 228 231 249 250 251 251 251 251 251 251 252 252
 133 132 131 129 127 127 125 128 186 186 175 180 188 180 167 178 180 179 177 178 178 189 150 106 108 138 168 186 188 185 162 106  57  62 112 129 152 180 184 190 204 220 238 247 244 235 227 222 182 155 117  87 122 159 184 196 197 195 176 141  94  76 162 221 214 211 206 207 206 208 214 217 215 213 215 227 238 240 247 244 231 243 250 251 251 251 251 252 251 252 252 252
 227 226 225 224 224 224 223 221 224 194 187 191 185 181 176 176 181 178 176 177 177 175 178 177 150 117 105 103 104 115 105 102 131 146 132 136 171 185 179 186 203 221 237 247 245 233 222 225 217 178 160 155 136 116 106 106 105 112 107 121 161 205 209 201 207 209 206 208 204 206 210 212 212 214 232 228 224 236 241 236 240 251 251 251 250 250 251 251 252 252 252 252
 251 251 251 251 251 251 251 252 251 229 184 189 185 177 166 171 180 173 173 177 178 175 171 173 175 172 169 164 161 164 165 163 156 150 136 154 193 193 181 183 202 222 237 246 245 233 221 227 235 219 165 137 152 164 172 173 174 175 184 193 194 199 200 200 208 208 206 202 200 206 208 211 213 212 216 239 236 229 227 240 250 251 250 251 251 250 252 251 252 252 252 252
 251 251 251 251 251 251 251 251 252 251 216 180 181 175 170 171 180 172 171 175 175 174 171 175 180 182 180 181 181 181 174 166 158 154 131 163 195 191 187 189 202 218 236 243 241 232 225 226 230 232 182 140 151 148 157 172 178 181 184 188 194 200 201 196 200 207 205 195 202 210 212 212 214 192 168 201 209 210 236 251 251 250 250 250 249 250 251 251 252 252 252 252
 250 251 251 251 251 251 251 251 251 251 249 203 164 172 178 173 179 173 169 172 173 171 169 171 180 183 184 187 181 176 166 156 154 157 134 153 184 179 184 191 201 214 227 237 236 232 227 220 216 216 179 163 169 157 152 165 176 183 192 193 194 199 201 197 196 201 205 201 202 204 209 211 211 223 214 220 230 243 251 251 251 250 250 250 251 250 251 251 252 252 252 252
 251 251 250 251 251 251 251 251 251 251 251 248 213 172 156 142 160 174 170 171 171 169 170 173 175 178 176 176 171 163 145 141 152 155 145 132 151 156 166 179 188 201 211 216 219 223 218 201 174 174 175 188 183 166 151 155 169 180 189 190 191 192 194 197 198 198 205 201 202 205 207 210 216 250 252 251 252 250 250 250 250 250 250 250 250 251 251 251 251 252 252 252
 251 251 251 251 251 251 251 251 252 251 250 250 251 242 208 189 195 173 170 165 165 166 166 167 170 172 164 159 156 138 131 152 163 159 155 134 109  88 112 155 171 180 192 194 195 200 191 114 102 163 189 197 199 188 167 154 160 170 179 185 185 187 188 194 196 196 202 202 202 206 208 210 224 250 251 251 250 250 250 249 250 250 250 250 250 251 251 251 251 251 252 252
 251 251 251 251 251 251 251 251 251 251 251 250 250 250 251 252 250 179 167 161 158 160 157 159 160 153 154 144 131 131 149 162 167 166 160 145 122 104  89 111 146 152 159 162 168 173 136 109 155 187 199 206 210 206 192 176 160 159 171 185 188 186 183 187 195 198 198 202 202 206 207 210 234 251 250 250 250 250 250 250 250 250 250 250 250 251 251 251 251 251 251 251
 251 251 251 251 251 251 251 251 251 251 251 250 250 250 250 250 251 201 163 163 155 158 154 155 150 142 141 131 128 142 153 151 153 157 152 144 134 124 115  96 100 120 119 124 137 126 124 154 178 190 200 207 209 206 197 186 179 168 165 176 184 185 188 191 191 194 193 200 206 207 206 212 244 251 250 250 251 251 250 250 250 250 250 249 250 251 251 251 251 251 251 251
 250 251 251 251 251 251 251 251 251 251 251 251 251 251 250 250 252 225 165 163 155 154 151 151 149 144 132 127 137 137 141 139 150 155 154 153 148 139 138 124  96  85  94  93  89 114 153 173 183 191 201 203 201 203 191 182 184 190 179 173 181 188 193 193 191 188 197 195 201 206 204 218 250 250 250 250 250 250 250 250 250 250 250 250 251 252 251 251 251 251 251 251
 250 251 251 251 251 251 251 251 251 251 251 251 250 250 250 250 249 246 178 160 154 151 154 150 153 147 134 128 132 131 136 144 156 156 158 169 173 166 161 154 133 111  99  96 122 162 184 198 200 203 207 204 194 195 187 186 183 186 188 182 181 184 192 191 193 188 194 194 197 206 201 228 251 250 250 250 250 249 250 250 250 250 250 251 251 251 251 251 251 251 251 251
 250 250 251 251 251 251 251 251 251 251 251 251 250 250 250 250 250 251 203 157 155 150 157 154 158 158 148 138 137 117 120 149 166 174 173 178 181 179 174 173 171 171 167 174 189 205 217 223 224 221 218 212 201 190 187 187 176 170 176 185 185 186 188 189 198 192 187 196 203 202 204 243 250 250 250 250 250 250 250 250 250 250 250 251 251 251 251 252 251 251 251 251
 250 250 250 250 250 250 251 251 251 251 251 251 251 251 250 250 250 251 233 161 154 153 154 152 161 171 167 156 155 142 109  80 111 138 142 145 140 136 134 133 148 173 184 179 180 188 194 201 211 218 217 215 217 201 188 186 180 165 162 185 194 192 192 197 198 195 195 198 200 199 215 250 250 250 250 250 250 250 249 250 249 250 251 251 251 251 251 251 251 251 251 251
 250 250 250 250 250 250 251 251 251 251 251 251 251 251 250 249 250 251 251 186 150 153 154 152 159 176 183 174 169 170 159 103  43  25  58  73  93  94 103 106 106 118 129 122 123 127 134 140 146 150 151 163 172 163 130 149 177 177 173 186 201 201 200 197 196 199 195 197 198 196 230 250 250 250 250 250 250 250 250 251 251 251 251 251 250 251 251 251 251 251 251 251
 250 250 250 250 250 250 251 251 251 251 251 251 251 251 251 251 250 250 251 225 150 147 150 153 161 175 186 184 178 177 177 167 142  87  59  45  69  97 120 111 104 105 105  98 104 105  98 104  88  73  74  58  58  68  89 133 167 185 184 195 202 202 202 199 196 195 194 197 197 199 238 251 250 250 249 250 251 251 251 251 251 251 251 251 251 251 251 251 251 251 251 251
 250 250 250 250 250 250 250 250 251 251 251 251 251 251 251 251 250 250 250 252 183 144 149 151 155 171 184 189 183 180 182 176 165 153 136 125 106 102 112 116 133 147 144 140 155 142 110 106  98  87 113 130 145 174 201 191 187 189 190 197 204 205 202 196 192 191 194 198 194 205 244 250 250 250 250 250 251 251 251 251 251 251 251 251 251 251 251 251 251 251 251 251
 250 250 250 250 250 250 250 250 251 251 251 251 251 251 251 251 251 251 251 251 219 152 149 151 152 160 181 189 187 187 190 191 169 158 153 145 154 152 145 142 138 140 140 143 148 149 158 166 189 192 185 193 206 210 212 217 211 200 202 202 203 204 203 193 188 190 194 196 191 210 248 250 250 250 250 250 251 251 251 251 251 251 251 251 251 251 251 251 251 251 251 251
 250 250 250 250 250 250 250 250 251 251 251 251 251 251 251 251 251 251 251 251 231 165 149 148 150 155 169 184 187 192 191 191 185 159 157 158 151 153 166 177 184 190 182 191 192 195 195 193 190 188 196 204 208 208 217 222 219 213 204 199 199 199 197 192 189 189 190 190 195 220 250 250 250 250 250 250 251 251 251 251 251 251 251 251 251 251 251 251 251 251 251 251
 250 250 250 250 250 250 250 250 250 251 251 251 251 251 251 251 251 251 251 252 236 174 152 147 147 151 160 178 185 185 191 189 188 178 157 160 164 154 154 165 173 180 177 184 184 182 172 170 182 194 201 201 207 217 220 222 222 215 204 199 196 191 188 188 187 189 190 186 199 228 250 250 250 250 250 251 251 251 251 251 251 251 251 251 251 251 251 251 251 251 251 251
 250 250 250 250 250 250 250 250 250 250 251 251 251 251 251 251 251 251 251 253 239 176 161 147 146 150 151 165 176 178 182 190 187 186 172 155 154 160 158 158 158 159 162 162 163 163 169 179 187 187 190 206 217 223 216 220 221 219 211 195 192 188 187 184 185 185 186 193 209 230 250 250 250 250 250 251 251 251 251 251 251 251 251 251 251 251 251 251 251 251 251 251
 250 250 250 250 250 250 250 250 250 250 251 251 251 251 251 251 250 251 251 252 241 178 164 151 145 147 145 155 171 178 177 185 194 190 185 169 155 148 140 138 139 148 151 147 144 147 156 165 172 179 196 216 219 219 219 219 219 217 209 197 191 189 184 181 179 184 184 199 212 233 250 250 250 250 250 251 251 251 251 251 251 251 251 251 251 251 251 251 251 251 251 251
 250 250 250 250 250 250 250 250 250 250 251 251 251 251 251 251 251 251 250 251 245 182 164 156 146 145 145 152 163 173 181 178 191 191 190 181 169 151 141 134 127 125 129 130 134 145 156 166 179 200 210 214 218 216 218 219 217 211 206 198 189 187 181 175 175 181 192 206 216 236 250 250 249 250 251 251 251 251 251 251 251 251 251 251 251 251 251 251 251 251 251 251
 250 250 250 250 250 250 250 250 250 250 251 251 251 251 251 251 251 251 251 252 250 186 166 157 148 141 143 151 154 164 181 186 190 192 188 185 174 163 160 156 142 133 136 138 147 161 168 180 197 207 211 213 218 221 219 220 219 215 207 202 193 180 179 171 175 184 198 211 218 239 250 250 249 250 251 251 251 251 251 251 251 251 251 251 251 251 251 251 251 251 251 251
 249 249 249 250 250 250 250 250 250 250 251 251 251 251 251 251 251 251 251 253 196 174 171 161 154 143 139 147 151 158 172 187 197 200 192 186 181 175 175 170 163 158 157 161 169 179 186 193 206 209 211 211 219 222 217 217 219 216 208 203 197 183 173 169 180 189 202 213 220 241 250 250 250 251 251 251 251 251 251 251 251 251 251 251 251 251 251 251 251 251 251 251
 249 249 249 250 250 250 250 250 250 250 251 251 251 251 251 251 251 251 255 191  77 179 173 163 154 146 135 135 148 155 166 184 192 203 204 192 186 186 187 191 191 194 195 200 204 207 213 216 216 219 220 222 227 224 220 218 217 212 204 199 190 173 162 172 185 194 205 213 221 244 250 250 250 251 251 251 251 251 252 251 251 251 250 251 251 251 251 251 251 251 251 251
 249 249 249 250 250 250 250 250 250 250 251 251 252 251 251 251 250 253 240  66  53 186 175 166 154 147 137 135 140 147 164 180 190 202 210 208 199 197 197 203 207 209 211 215 221 221 227 228 231 226 226 232 235 234 224 217 213 205 202 192 175 155 162 176 187 200 206 215 223 211 247 251 250 251 252 251 251 252 250 251 251 251 251 251 251 251 251 251 250 251 251 251
 249 249 249 250 250 250 250 250 251 250 251 251 251 251 251 251 251 254 138  11  57 188 177 168 157 148 144 129 125 136 153 165 181 198 208 214 210 200 204 210 215 214 215 214 220 227 227 233 229 226 230 235 234 227 220 216 210 196 187 176 159 157 170 175 193 205 209 218 230 158 207 252 251 252 252 252 252 252 252 252 252 252 252 252 252 252 252 252 251 251 251 251
 249 249 249 250 250 250 250 250 250 250 251 251 251 251 251 252 254 189  51  17  56 187 174 169 160 152 145 133 124 125 136 154 171 187 197 206 207 202 202 209 215 212 218 215 217 222 219 225 227 229 234 236 234 227 223 214 201 183 168 155 152 164 172 183 199 207 213 219 233 139 140 239 245 246 246 246 246 247 247 247 247 247 247 246 248 248 248 247 250 251 251 251
 249 249 249 250 250 250 250 250 250 250 251 251 250 251 250 254 221  81  44  19  61 187 174 165 161 158 148 138 126 121 119 137 152 176 193 194 197 206 205 208 214 214 217 214 209 212 214 214 220 222 227 230 221 216 212 206 187 164 149 143 151 166 175 192 201 209 216 222 233 129 105 174 186 182 184 184 185 185 186 188 188 188 189 190 191 191 190 197 231 249 249 247
 249 249 249 250 250 250 250 250 250 250 251 250 251 251 252 242 108  54  47  16  69 190 174 167 165 162 152 143 128 121 112 111 134 158 180 185 193 201 199 208 214 216 215 209 207 206 203 203 209 219 221 216 207 206 198 184 162 140 133 145 156 167 182 198 207 211 218 224 233 114  96 137 131 116 117 119 120 120 121 120 120 121 120 121 121 121 119 135 211 249 247 239
 249 249 249 250 250 250 250 250 250 250 251 251 251 251 253 144  59  57  46  16  83 190 175 171 167 165 160 151 138 126 116 108 106 129 152 168 181 189 194 200 210 214 213 203 205 206 210 213 209 212 209 200 191 188 178 153 126 128 137 147 157 174 195 203 209 211 217 224 234  98  90 128 147 194 203 201 201 200 200 199 199 198 198 197 196 196 194 199 231 250 249 248
 249 249 249 250 250 250 250 250 251 250 251 251 251 254 188  66  65  53  47  21  98 191 177 171 171 169 165 159 148 132 121 115 101  97 119 142 152 157 171 183 194 201 202 196 190 194 200 204 202 194 190 185 176 167 139 122 119 128 142 149 166 188 200 206 210 216 219 224 235  86  80 127 128 199 251 249 248 249 249 249 249 249 248 249 249 248 249 248 250 251 252 252
 249 249 248 250 250 250 250 250 251 251 252 251 254 221  82  63  62  51  46  26 107 187 177 172 171 172 168 164 156 142 128 118 109  96  91 104 123 134 141 156 170 174 179 182 179 175 174 172 170 163 156 153 145 122 106 114 125 136 149 166 185 196 204 209 213 216 221 224 232  72  63 123 123 146 238 253 252 252 252 252 252 252 252 252 252 252 252 252 252 252 252 252
 249 249 249 250 250 250 250 250 251 251 250 252 245 114  62  65  58  49  46  30 107 185 175 174 170 172 169 164 163 154 141 127 117 106  93  87  83  97 108 121 132 144 151 153 150 143 140 138 131 122 120 108  96  95 108 125 140 152 170 185 196 199 206 213 212 214 219 221 223  71  75 116 123 125 173 238 238 237 237 237 237 238 239 238 237 239 239 239 239 241 239 240
 249 249 249 249 250 250 250 250 251 250 251 253 154  63  68  63  56  48  46  33  99 180 175 174 173 173 170 169 166 160 151 139 126 115 110 103  86  75  73  80  89 101 106 111 106  94  94  91  85  78  79  83  96 115 133 147 159 174 187 193 202 204 209 214 216 217 219 221 207  77  94 111 119 126 136 172 176 175 175 177 177 179 178 179 179 179 180 181 180 179 182 182
 249 249 249 249 250 250 249 250 251 252 254 196  72  69  65  61  54  49  46  36  84 172 176 173 172 174 174 173 170 166 158 150 138 131 122 118 112  96  80  72  68  67  67  67  70  73  67  67  66  76  92 111 128 142 152 163 175 187 193 201 206 206 211 215 217 215 216 224 185  80 103 107 115 123 128 144 156 149 151 151 151 151 151 151 152 152 152 152 151 151 149 150
 249 248 250 250 250 250 251 251 251 253 230  95  70  68  62  59  53  48  47  39  69 162 176 175 175 175 180 175 170 171 164 158 148 138 132 125 125 122 116 103  90  80  75  71  70  74  79  88 100 117 130 141 152 162 168 178 188 194 200 206 205 206 213 216 214 213 217 226 153  80 107 106 113 118 122 133 156 157 154 154 155 155 155 155 155 155 154 154 154 156 160 165
 249 250 250 250 250 250 251 250 254 252 129  67  73  65  59  58  54  50  49  44  55 148 173 175 175 179 182 180 175 172 170 163 156 144 140 131 131 127 125 124 121 116 111 112 113 112 118 128 139 145 146 151 160 171 179 186 191 199 205 205 206 209 212 214 215 213 217 219 116  89 107 106 110 115 119 124 140 161 153 155 155 155 155 154 152 153 160 175 189 203 214 223
 250 250 250 250 250 250 250 244 218 148  72  76  69  62  59  56  52  49  50  47  48 132 169 175 174 175 181 182 181 176 172 167 160 150 144 140 136 129 125 126 130 135 140 144 148 147 151 154 153 155 158 164 167 175 181 186 195 201 201 207 210 210 212 214 215 215 219 186  89 105 109 106 110 114 119 121 127 149 162 157 155 156 155 156 169 191 215 230 240 246 250 251
