P2
# Generated by OpenCV 4.2.0
92 112
255
  79  79  79  79  79  78  79  79  79  80  80  79  79  79  79  79  79  79  79  79  79  79  80  79  79  79  79  78  78  78  78  78  78  78  79  79  79  80  80  80  79  79  79  80  78  79  79  79  78  79  79  78  79  79  79  80  80  79  80  79  79  79  81  80  80  80  80  80  80  79  79  78  79  79  79  79  79  78  78  80  79  79  79  79  80  80  80  80  80  79  79  79
  79  79  79  79  80  79  80  80  80  80  80  80  80  80  80  80  79  80  80  80  79  80  80  80  80  79  79  80  79  79  79  79  78  79  79  79  79  79  79  80  80  80  79  80  80  80  78  79  79  79  79  79  80  79  80  80  81  80  80  80  80  80  80  80  81  80  80  79  80  80  79  80  80  79  79  79  79  79  79  80  80  80  80  80  80  80  80  81  80  80  80  80
  80  80  80  80  81  80  81  81  81  81  80  80  80  80  80  80  80  80  80  80  80  80  81  80  79  80  80  80  80  80  80  79  79  80  80  81  80  80  80  80  80  79  80  80  80  80  80  80  80  80  80  80  80  81  80  80  80  81  81  81  81  81  80  81  80  80  80  80  80  80  81  80  80  80  80  80  80  79  79  80  81  80  80  81  80  80  80  80  81  81  81  80
  81  81  81  81  81  81  82  81  81  81  81  81  81  81  81  81  81  81  81  81  81  81  81  81  81  81  81  81  80  80  80  80  80  80  80  80  80  80  81  80  80  81  82  80  82  81  81  81  81  80  80  81  81  80  81  81  81  81  81  81  81  81  81  81  81  81  80  81  81  81  81  81  80  81  80  80  80  79  80  81  80  79  81  81  81  81  81  80  81  81  81  80
  81  81  82  82  82  82  82  82  82  82  82  82  81  81  82  82  82  82  82  82  82  82  82  82  82  82  81  81  81  81  81  80  81  81  80  81  81  81  80  81  81  81  81  81  81  81  81  82  81  80  82  81  81  81  82  81  83  81  83  82  82  82  82  82  81  81  81  82  81  82  80  81  81  80  80  81  81  81  80  80  81  81  81  82  81  81  82  83  82  82  82  81
  82  83  81  82  83  83  82  82  82  84  82  83  83  82  82  82  82  82  82  82  82  82  84  83  83  82  81  81  82  80  81  81  82  81  81  81  81  81  81  82  81  82  82  82  80  80  80  81  83  82  82  83  83  83  83  82  82  83  82  83  83  82  82  82  83  82  82  82  82  82  82  82  82  81  81  81  81  81  81  81  81  81  82  82  82  82  83  82  82  82  82  81
  82  83  83  83  83  83  83  83  83  83  83  83  82  82  83  83  82  82  82  83  82  83  82  81  81  83  83  82  83  82  83  83  82  82  82  82  81  83  84  84  84  83  82  80  76  81  82  80  77  78  77  78  79  82  84  87  87  85  83  83  83  83  83  84  83  83  83  82  84  82  83  82  82  83  82  82  82  81  82  82  82  82  82  82  82  82  83  82  83  83  83  83
  82  83  83  84  83  84  84  83  83  84  83  84  83  82  83  84  83  83  84  86  80  71  70  72  73  73  71  73  72  73  75  75  79  83  84  84  82  81  77  72  66  65  67  64  59  57  54  51  48  46  41  37  36  33  37  47  61  75  84  87  84  83  84  84  84  83  83  83  83  83  83  83  83  83  84  83  82  83  83  83  82  83  82  82  82  83  83  83  83  83  83  83
  82  83  84  84  84  84  84  84  84  84  83  83  84  84  83  82  81  86  85  68  49  54  49  38  33  35  33  36  45  42  42  37  45  58  65  75  74  68  59  58  51  50  50  43  39  37  35  30  26  22  20  20  16   8   4   3   3   9  25  52  79  85  83  84  85  84  84  84  85  84  84  84  83  83  84  83  83  84  83  83  83  84  83  83  83  83  83  84  85  84  83  83
  83  83  84  84  84  84  84  84  84  84  84  84  84  84  81  81  85  67  39  28  31  37  19  18  19  13  15  15  22  24  27  27  25  17  23  40  53  56  61  62  66  60  51  53  51  48  46  45  48  45  43  44  38  35  25  21  22  19   9   8  29  72  87  83  84  85  85  84  85  86  84  84  84  84  85  84  84  85  84  84  85  84  84  84  84  84  85  85  85  84  84  85
  84  84  84  85  84  84  84  84  83  85  85  86  85  84  83  78  55  36  50  43  39  26   5   3   7  11  16  17  21  25  33  41  45  47  34  27  28  30  44  58  64  60  56  60  63  64  62  64  67  64  60  54  48  39  38  30  26  29  29  28  21  34  68  81  83  85  85  85  85  84  85  85  85  84  84  85  85  85  85  85  85  84  85  85  85  85  85  85  85  84  84  85
  84  84  85  85  85  86  86  85  85  85  85  85  84  85  88  60  35  60  55  46  19   4   8   1   4  12   9   9  13  17  17  21  23  33  45  47  44  37  36  32  37  48  54  62  54  54  64  62  54  49  49  52  46  40  46  39  31  19  13  15  15  19  32  49  65  81  88  86  85  87  87  86  85  85  85  86  85  85  85  84  86  86  86  86  85  85  85  86  86  85  85  85
  85  84  85  85  85  85  85  85  86  86  86  85  86  86  87  46  59  61  58  44   2  10   7   1   5  12  16   5   3   6   6   2   1   2   8  15  25  34  41  34  27  29  32  43  57  61  66  56  50  47  51  56  60  56  50  40  38  37  33  25  18  11  10  17  35  55  73  87  89  86  85  85  86  86  86  86  86  86  85  85  86  86  87  85  86  85  86  86  86  86  85  85
  85  85  85  86  85  86  86  85  86  86  86  86  86  86  82  44  68  69  64  35   0  10   4   1   5  12  11   3   2   5   2   1   1   1   1   2   3   3   6  10  20  22  15  12  15  30  51  72  74  70  60  48  47  58  68  59  38  21  22  26  25  28  23  14  12  24  38  51  76  89  87  86  87  86  87  86  85  85  86  86  86  86  85  85  86  87  87  85  85  87  86  85
  86  85  86  86  86  86  86  85  86  87  86  86  85  86  81  45  65  74  70  32   0  11   5   1   3   7   2   1   1   2   1   1   0   0   0   1   5  18  32  44  48  51  37  29  17   6   4  18  43  61  67  67  52  40  47  53  57  42  21  10   7   6   9  10  13  11  14  23  34  59  87  89  87  87  87  86  87  87  87  87  87  87  87  86  87  87  87  86  86  86  86  86
  86  86  86  87  86  87  87  86  86  86  87  88  87  88  82  43  61  76  76  31   3  12  10   2   2   3   2   1   1   1   0   1   0   1   2   6  14  27  35  35  38  36  23  19  14   8   1   0   0   6  28  57  74  61  46  42  45  50  44  37  30  10   5   3   3   3   4   7  18  24  49  84  90  87  88  87  88  87  87  87  87  87  88  87  88  87  86  86  87  87  87  86
  85  87  86  87  86  87  86  82  84  86  87  88  88  88  85  46  53  71  76  40   8  14  10   9   5   2   2   2   1   1   1   1   1   2   3   8   6   4   5  10  13   4   0   0   3   6   6   6   4   1   0   3  26  55  68  50  30  39  46  40  46  36  16   4   4   3   3   3   2   7  13  38  82  91  88  88  88  87  87  87  88  87  88  88  88  88  88  89  87  87  87  87
  86  86  87  87  88  87  84  85  86  87  88  86  87  89  88  58  45  59  65  45  13  24  20  17  12   7   3   2   2   2   2   1   3   2   3   4   3   2   2   6   0   2   6  17  23  24  25  25  28  22  16   8   2   4  29  52  43  18  23  34  33  38  36  20   5   3   3   3   3   3   4   5  26  79  93  88  87  87  87  88  87  88  89  88  88  88  88  88  88  88  88  88
  87  87  87  88  88  88  88  89  88  89  88  87  89  90  90  70  49  70  65  45  26  34  30  23  15  15   8   4   4   8   9   3   3   4   4   3   3   3   2   1   2   2   3   4   2   6  12  20  28  35  32  23  19  13   5  17  44  33   6   5  13  20  22  28  20   8   5   2   2   2   3   2   2  19  71  93  89  88  88  88  88  88  88  89  89  88  88  89  89  89  89  89
  88  88  87  89  89  89  90  89  89  89  88  89  90  89  88  79  62  65  75  65  45  31  26  25  21  18  14  18  14  20  23   8   5   7  10   8   5   4   3   3   3   2   4   5   9  18  32  44  54  58  55  46  40  32  25  17  14  36  36  13   1   3   6   7  13  11   6   5   5   1   1   2   2   1  11  64  93  89  88  89  89  89  88  90  89  89  89  89  90  90  90  89
  88  88  88  89  89  90  89  89  89  90  89  89  90  89  85  73  68  64  72  67  41  22  17  16  18  22  19  22  24  26  32  19  11  18  17  16  13  13  12   8   5   4   9  10  11  12  20  33  50  61  69  66  62  53  45  36  26  11  26  39  23  10   3   1   2   3   2   2   6   9   3   2   2   1   1   7  54  91  90  89  89  89  89  90  89  90  90  91  90  90  90  90
  89  89  89  89  89  89  89  90  89  89  90  86  88  85  74  74  80  68  54  42  36  26  17  14  17  22  29  33  30  33  34  36  33  33  30  38  40  33  36  35  24  23  25  18  17  16  15  11  13  22  33  44  55  57  58  55  42  19   7  24  35  19  16  11   5   1   1   0   1   2   5   4   5   5   1   1   4  59  95  90  90  90  90  90  90  90  90  90  90  90  90  90
  90  90  90  90  90  90  90  90  89  89  88  88  83  76  83  87  71  57  47  42  43  37  26  28  38  47  52  54  53  58  54  56  51  50  55  68  80  76  86  82  71  62  50  44  35  30  27  18  14  13  16  16  24  37  43  48  58  53  30  12  35  28  12  15  19  13   3   0   0   0   2   3   4   7   4   5   3  13  74  93  90  90  90  91  92  91  90  90  90  90  90  90
  90  90  90  91  91  91  91  91  90  89  89  81  82  85  79  67  50  32  31  39  41  33  41  54  54  57  63  70  73  81  79  78  86  94  92 102 109 120 126 107 101 103  88  65  50  45  43  35  26  19  13   9   6  10  19  34  45  36  34  28  14  31  20   8   8  12  12   6   2   0   1   1   2   2   5   8   6   1  29  88  91  90  91  90  90  91  91  91  91  91  91  91
  90  90  90  91  91  92  91  90  90  90  75  79  80  59  54  41  29  23  20  30  35  49  69  76  71  81  94 108 122 126 131 134 138 142 141 147 146 148 146 135 121 125 125 107  97  92  83  73  60  47  29  18  15  13  13  17  31  31  18  12  12  12  26   8   8   6   5   7   5   2   1   1   0   1   1   1   3   4   5  56  95  93  93  93  93  93  94  94  93  94  94  94
  92  93  92  93  94  93  92  94  94  78  78  78  39  48  42  21  16  14  19  27  46  77  89  98 109 123 135 152 161 170 173 171 173 170 176 173 172 170 173 173 173 165 157 157 147 136 125 114 105  93  80  59  44  23   8   7  17  29  36  22   5   2  15  25   3   5   6   3   4   4   3   3   2   1   1   1   1   2   3  15  76 100  99  99  98  98  99  99  99  99  99 100
 100 100 100 100 100  99 100 100  88  79  85  37  49  47  16  16  10  13  23  37  71 109 121 131 143 149 160 167 174 178 183 187 185 187 188 183 186 191 192 192 191 184 174 168 165 168 162 154 142 134 122 107  92  72  47  22   7  17  40  36  22   9   1  17  15   2   2   4   4   4   2   2   3   2   2   2   1   1   1   1  24  90 109 106 106 107 107 107 107 107 107 108
 108 108 108 108 108 110 110 102  87  88  44  52  67  15   8   9  12  16  29  57  98 131 142 156 162 159 168 178 183 186 188 188 190 188 190 192 193 196 198 196 196 201 198 190 187 187 184 181 173 162 155 149 136 117  94  69  42  19  25  36  28  21  14   4  10   5   2   2   3   4   4   3   1   2   2   2   2   3   3   2   2  49 112 114 114 114 114 114 115 114 114 115
 115 115 115 116 117 116 116 100  95  58  40  81  30   8  12  14  18  23  51  80 118 141 153 161 163 167 176 183 189 191 194 192 190 189 197 197 199 202 204 202 205 211 211 209 206 202 198 193 192 183 176 170 160 150 138 114  87  62  29  30  27  20  19  13   5   7   4   2   1   2   2   2   2   2   1   2   2   3   6   6   2   7  81 124 120 120 120 120 121 120 121 121
 122 122 123 124 123 125 116 104  81  41  80  54  10  18  16  22  29  32  68 104 137 154 159 162 166 171 177 182 184 193 196 196 191 196 196 202 205 205 206 208 212 214 216 215 214 214 211 209 207 205 197 193 188 179 166 153 131 106  70  37  31  22  17  15   9   8   3   1   1   1   1   2   1   2   1   1   2   2   4   8   6   2  32 119 129 127 126 126 127 127 127 127
 130 130 131 130 129 130 116 102  46  62  71  18   6  10  19  25  32  70 119 134 147 165 175 174 168 165 171 179 184 190 194 195 196 199 199 205 207 205 206 210 213 216 217 218 217 217 215 215 215 212 209 208 204 198 192 185 169 151 122  83  53  38  21  15  12   8   7   1   1   1   1   2   1   1   1   1   1   2   2   3   5   6   5  77 139 133 132 132 132 132 133 132
 137 136 136 135 135 132 119  75  35  77  56   2   3   7  16  25  58 125 145 140 151 170 175 176 174 170 169 172 181 187 191 194 196 200 205 205 208 207 207 209 213 216 217 216 216 217 216 215 213 213 213 211 210 207 203 199 193 179 163 141 106  72  46  22  15  11   7   4   1   1   1   1   1   0   1   1   1   1   2   1   0   2   2  28 126 141 136 137 136 137 137 137
 140 140 139 139 141 134 113  48  48  88  20   7   9  13  21  34  96 145 143 140 153 168 175 176 176 175 171 173 177 183 189 193 194 198 203 205 207 206 205 211 214 214 215 216 217 215 215 212 211 213 211 214 211 210 206 203 197 196 187 178 162 130  90  50  21  12  11   5   3   3   2   1   0   0   1   1   1   1   2   2   2   2   1   1  52 140 144 140 141 140 142 141
 145 145 145 145 144 135  94  31  85  68   1   5   9  15  25  58 124 146 142 144 155 165 171 170 173 174 173 173 178 182 189 193 196 199 201 203 205 204 205 209 210 213 215 215 215 215 212 211 212 211 212 213 212 210 208 205 201 201 198 192 186 176 158 122  76  29  12  11   5   3   3   3   2   3   0   0   0   1   2   1   1   2   3   3   1  62 145 146 143 143 143 144
 149 149 149 149 145 135  68  50 105  23   1   3   6  19  30  78 135 144 144 144 156 166 168 171 173 173 174 173 177 184 191 194 196 197 198 202 205 207 207 208 210 213 215 215 213 211 211 213 213 212 213 213 213 212 210 209 208 203 200 198 195 189 183 171 144 100  49  18   9   6   3   3   3   4   4   4   1   0   0   1   1   1   0   3   2   2  66 148 147 145 144 145
 151 152 151 152 152 131  44  78  82   1   2   2  10  20  37  98 137 146 143 144 154 167 168 171 173 173 174 176 178 182 189 194 196 198 198 200 205 205 206 209 211 215 215 214 212 210 211 213 214 212 210 211 209 210 209 207 205 205 203 203 200 196 192 185 174 161 132  85  42  13   4   3   3   2   2   4   4   1   0   0   0   0   0   0   1   1   4  90 148 145 144 144
 151 153 152 153 156 111  45  77  35   1   1   4  11  22  57 109 138 144 142 143 155 165 170 170 173 175 178 179 177 183 188 193 196 198 202 203 205 207 207 208 212 213 212 213 213 211 209 213 212 209 211 209 208 207 207 206 204 203 204 203 202 200 192 184 178 173 167 154 127  85  36   5   3   1   0   2   1   2   1   1   1   0   1   1   0   1   1  59 134 143 141 142
 153 153 152 152 158  94  52  64  13   0   1   6  16  26  71 118 140 141 142 142 152 162 167 169 176 181 181 183 180 187 192 195 198 197 203 205 207 208 208 210 213 214 214 215 214 210 209 211 210 211 212 211 211 208 206 205 205 202 204 203 202 199 192 185 179 174 173 173 167 159 135  93  41  11   3   1   1   2   2   2   2   2   1   1   0   2   0  33 132 142 140 140
 152 152 152 153 159  87  55  48   5   1   3  12  15  37  85 121 140 141 139 141 149 158 166 169 175 184 183 185 187 191 195 199 200 204 204 199 205 207 209 211 213 212 214 213 212 210 209 208 209 212 211 209 209 207 203 204 204 203 203 201 200 196 190 184 180 175 170 173 174 171 169 164 135  84  42  20   6   2   2   1   1   1   1   1   2   1   3   2  90 147 139 139
 153 153 152 153 159  94  48  40   3   2   6  13  24  55  88 122 140 140 141 143 148 158 166 167 165 180 187 188 192 196 197 202 205 207 207 203 206 210 209 212 215 215 212 211 210 209 211 210 212 210 209 208 208 206 205 205 204 203 203 202 199 192 187 181 178 178 175 174 174 175 173 167 157 131  99  70  47  24   7   4   3   2   3   2   0   1   3   1  36 136 140 137
 153 152 152 152 159 102  49  49   2   3  15  19  33  53  93 126 139 140 140 142 149 158 166 171 176 182 186 190 195 200 203 205 206 208 209 211 211 212 214 212 213 214 210 209 208 209 210 211 211 212 211 209 207 205 206 205 203 203 201 199 196 191 186 179 178 179 174 173 175 175 173 168 160 140 117  94  70  58  29   8   6   1   1   3   2   0   1   2   9  99 142 136
 153 153 153 153 159 105  52  59   1   6  16  22  30  53  97 126 139 140 141 142 149 158 166 175 180 185 189 190 193 198 203 206 205 203 207 211 213 213 214 214 214 211 210 209 210 213 213 212 212 210 212 209 210 209 207 206 206 204 201 196 192 188 183 179 178 178 178 176 175 174 170 163 159 147 113 101  79  48  45  19  13   7   2   0   1   5   1   3   8  71 136 135
 153 154 153 153 158 120  64  64   1  11  17  20  29  56  97 127 136 138 142 142 150 161 172 179 184 186 190 189 188 194 198 198 200 201 203 211 214 215 216 215 215 211 210 211 213 214 215 214 213 213 213 211 210 210 208 208 205 201 201 196 192 188 183 180 179 177 177 176 173 173 167 162 157 143 117  91  82  52  31  27  21  18   5   3   4   3   3   3   6  74 128 131
 153 153 153 153 156 131  72  55   3  16  16  19  29  59  99 129 136 137 139 144 156 168 177 182 184 188 188 186 187 190 192 195 197 201 202 207 212 215 215 215 214 211 210 213 216 216 213 213 213 214 214 211 210 209 207 209 208 201 201 198 194 192 185 181 178 178 177 175 171 171 169 163 151 133 115  93  71  56  27  20  19  15   7   3   8   3   2   6   2  43 121 128
 153 153 153 153 153 141  85  53   6  13  13  16  32  57 105 129 134 138 140 149 163 173 178 180 178 180 181 182 183 188 191 192 192 198 196 203 209 209 213 215 213 211 209 210 203 206 206 207 209 210 206 206 208 210 206 208 208 207 203 199 197 192 188 184 180 179 174 173 173 172 173 165 150 136 115  90  63  49  37  17  12   9   6   5   4   5   4   5   5  12  96 129
 153 154 153 154 152 148 101  45  10  10  10  13  26  62 109 129 131 136 141 154 163 165 169 163 161 159 166 172 176 181 179 176 181 193 191 196 202 210 213 212 208 202 196 195 188 192 201 196 196 200 197 200 204 203 203 201 205 200 199 195 193 192 186 181 179 177 176 170 171 172 170 168 154 134 117  93  59  37  28  18   9   9   4   5   5   2   4   7   5   6  56 126
 153 154 154 153 152 150 116  39   7   9   9  11  23  67 115 127 131 134 144 147 118 119 124 119 117 124 138 151 159 157 159 163 159 174 181 185 187 197 206 205 202 196 190 185 183 182 189 183 185 193 190 189 189 191 195 183 182 185 179 178 176 180 182 176 174 173 175 172 171 170 169 169 162 146 115  89  58  34  22  18  11   6   4   3   5   4   1   3   6   2  24 112
 154 154 154 153 153 150 119  47   5   9   6  10  25  72 118 130 130 138 131  87  52  50  61  53  47  56  60  71  76  80 100 124 143 154 166 172 172 176 188 194 195 191 184 176 170 168 166 161 170 175 171 168 150 137 130 124 122 122 122 135 130 136 170 178 169 170 172 170 170 171 169 167 168 157 125  87  57  33  18  19  11   5   5   5   9  13   4   0   5   3  11  94
 155 153 154 154 153 153 131  54   5   8   3   7  26  86 124 130 134 121  69  62  63  48  32  19  23  27  28  24  21  31  47  77 114 134 149 157 158 167 176 179 184 178 171 165 161 159 143 123 111 100  84  67  45  31  50  62  69  78  81  95  93  85 112 149 168 174 172 170 172 172 170 168 166 166 143  93  58  26  14  12  11   7   4   4  12  19   4   0   3   4   8  68
 154 155 155 155 155 153 135  61   6   6   4   4  30 103 133 139 128  65  45  47  52  44  29  19  25  20  14  14  13  17  24  35  68 107 130 141 146 154 162 165 168 167 161 154 147 136 106  76  47  27  17  18  18  17  27  34  45  54  63  75  75  73  68  74  97 148 170 169 171 171 169 169 166 166 158 113  59  30  15  12  11   7   4   7  16  13   3   1   2   5   5  56
 154 155 154 154 155 156 137  58   2   5   4   4  39 102 106  98  69  43  41  39  42  40  43  42  42  36  30  21  17  20  23  29  42  74 101 116 130 141 150 159 159 154 145 135 125 104  66  39  26  19  18  25  19  16  13  16  30  41  37  43  54  60  60  60  54  75 145 164 161 168 169 168 166 165 162 135  69  28  13   8   7   6   4   5   6   3   4   1   1   8   7  51
 154 154 154 153 153 155 145  64   1   4   2   9  12  13   5   0   0  10  16  20  27  37  42  47  48  50  54  55  56  57  56  51  43  45  65  89 109 131 142 153 156 155 138 119 102  74  50  43  38  33  33  33  33  40  50  65  78  87  85  86  70  71  76  70  64  60 109 159 162 166 168 169 167 164 160 148  85  28  12   6   4   5   3   1   1   4   5   1   0   8  14  47
 155 156 155 154 154 155 154  70   1   3   3  20   2   2   0  15  54  51  60  64  83 102 111 110 102  90  74  61  56  51  48  51  62  63  49  63  99 128 149 160 165 161 140 105  77  60  53  53  51  50  49  56  74  94 109 122 133 136 135 130 119 117 108  99  94  78  91 139 162 163 167 168 166 164 160 156  98  27   9   8   4   3   4   1   0   3   5   3   0   9  23  47
 155 155 155 156 155 153 158  79   1   1   9  47   7   2   6  95  97  64  85  94 100  99  87  73  61  56  45  48  50  57  60  52  36  34  58  62  85 134 161 179 183 171 141 102  70  52  45  43  45  52  57  62  71  76  79  85  92 105 118 125 134 139 135 128 124 105  92 123 154 163 166 169 165 163 162 158 103  32   8   8   5   4   5   2   1   1   4   3   0  16  39  48
 155 155 155 155 156 153 161  94   1   4  48  64  28   0  37 133  88  74  88  85  69  48  26  12   8   6  20  20  29  39  51  62  77  59  15  33  68 117 173 206 210 191 149  81  34  17  27  43  48  43  46  46  39  37  40  45  45  49  53  59  70  87 106 120 128 123 119 129 151 165 167 165 165 165 167 157 102  31   7   5   5   3   4   4   1   2   4   3   0  25  52  60
 155 155 155 155 155 155 162 114   5  12  75  44  67   7  59 132  91  83  78  55  32  21  18  14   9   7  17  16  39  61  44  60  68  85  65   2  12  31  75 122 129 104  59  12  18  67  84  88  86  74  48  38  19  22  77  47  39  40  45  45  37  35  26  31  57  79  92 107 137 172 179 177 176 174 174 161  98  30   7   6   4   3   5   6   2   4   4   3   0  24  57  75
 155 154 156 156 156 156 158 131  17  16  69  22  65   8  71 126  98  76  53  41  28  15  18  33  16  12   6   9  57  74  52  36  46  67  80  21   4   4   4   5   5   3   2  14 108 129 112 110  95  54  49  65  26  18  36  24  50  89  59  40  52  62  71  37   1   7  16  18  28  65  85 107 126 142 158 154  98  29   9   4   4   4   5   6   5   3   8   4   0  24  57  87
 156 156 156 156 156 155 157 138  42  23  36  10  50   7  74 118  90  60  35  24  20  27  49  81  72  50  55  77 118 105  83  61  46  62  82  30   4   3   1   1   2  11   2  60 159 154 164 142  87  66  87  96  50  30  32  34  91 132  97  60  52  61  79 107  43   3   5   1   4  25  22  17  20  24  27  29  71  39   4   3   3   7   5   7   7   4   6   3   0  29  72 104
 155 156 155 155 156 155 157 143  91  44  16  16  53  13  66 108  93  63  42  46  70  82  90  97 110 121 125 140 144 148 149 146 134 107 101  32   1  31 102 109  41   3   1  87 167 170 158 144 131 118 105 109  92  80  87  98 143 149 140 121 113 104  93  98  86   6   3  11  40  39  27  22  24  28  24  17  34  34   8   7   5   5   3   8   8   6   3   1   0  39  89 120
 155 154 156 155 156 156 156 146 128 108  40  30  74  51  76  83  94  85  93 118 128 118 103 105 112 119 115 112 117 125 129 135 134 124 113  14  18 157 213 221 194  49   0  95 163 148 130 123 120 119 127 135 143 153 167 167 160 159 161 157 165 170 154 130 112   9  14 115 138 112  94  75  51  34  27  25  46  40  16  16  15  11   5   9   9   5   3   0   1  55 108 129
 156 155 155 156 156 157 155 147 146 116  43  62  93  63  87  74  95 124 131 133 131 130 125 120 119 118 114 114 119 129 140 150 146 136 105   2  80 190 206 213 221 139   0  78 183 163 148 142 137 128 125 125 127 134 146 155 157 164 170 171 177 179 187 187 146   3  61 145 125 124 129 127 108  72  45  24  31  30  21  24  21  22  10  11  10   5   2   1   7  88 127 135
 156 156 156 156 156 157 147 141 141  96  34  86 122  53  60  93  89 123 145 146 145 146 143 138 132 130 134 137 139 136 141 151 150 160  93  19 130 178 204 214 213 184  30  63 163 197 188 170 152 140 134 128 119 114 116 124 135 153 169 174 178 175 167 162 125   2  97 153 135 126 119 106  92  84  78  66  26   7   7   9   2   3   8   9   2   0   0   1  20 110 134 136
 156 156 156 156 157 155 135 112 110  84  38  96 127  68  42  98  78 108 157 157 144 142 144 146 149 148 153 157 154 150 153 162 163 154  43  69 154 173 204 215 210 200  89  68 150 174 191 200 197 187 178 173 172 167 157 149 144 146 157 164 164 153 138 137 101   2 114 142 137 141 144 138 140 137 135 121  64  21  12   8  26  45  61  97 118  76   9   0  46 128 135 139
 156 157 156 156 158 151 122  66  42  49  36  97 123  93  33 104  88 113 144 146 152 163 169 174 180 183 183 181 187 186 179 169 165  99  15 123 152 173 207 218 210 204 126  36 149 176 179 192 203 209 205 195 190 195 198 195 185 182 173 160 147 144 149 159  97  43 146 157 164 169 157 146 140 139 138 125  71  25  18  15  82 120 159 174 186 183 128  17  71 137 135 140
 156 156 156 157 158 142  88  32  32  46  28  91 121 113  43 100 115 118 138 159 174 181 181 187 191 192 193 190 187 183 171 159 152  26  62 151 152 179 207 217 211 199 175  34 114 188 181 186 196 203 201 198 192 189 190 190 195 195 179 167 161 156 160 176 106 118 193 179 166 151 141 136 141 142 142 131  74  26  17  34 117 128 153 163 164 165 174 103 102 137 135 140
 156 156 156 156 157 145 102  52  88 100  27  81 120 116 104  64 114 137 152 170 176 183 182 179 181 184 186 185 181 179 178 161  63  23 138 152 163 190 209 216 211 198 200  91  61 184 181 183 192 204 207 205 203 199 195 190 187 184 179 164 165 178 194 194  90 152 188 175 161 141 137 138 141 143 144 132  72  25  16  67 140 135 101  81  69  94 139 140 131 135 136 138
 156 156 157 156 156 153 131 106 140 149  63  66 115 112 131 118  68  86 113 145 168 179 183 182 185 188 190 192 189 178 143  76  29 102 156 149 170 194 212 216 209 197 195 165  32 143 189 185 187 195 205 206 205 203 198 199 195 191 186 170 175 196 209 160  52 178 180 165 153 144 141 141 139 142 139 121  66  22  36 111 140  90  57  64  37  31  90 130 135 136 135 136
 156 156 156 156 157 154 147 137 159 157  87  56 111 112 122 138 116 101  97  86  89 109 123 130 139 143 144 142 135 106  81  91  83 139 141 147 173 199 214 217 208 197 187 192  89  48 164 194 192 193 197 201 200 201 200 199 196 195 198 187 184 192 204  82  75 195 169 156 154 149 140 139 140 135 128 107  51  22  74 125 128 121 157 171 107  29 100 136 134 135 134 135
 156 156 157 156 156 156 159 153 160 138  85  56 106 111 119 134 123 126 154 156 156 155 150 146 149 152 157 163 163 149 130  86 104 154 142 149 178 204 217 218 210 194 182 185 167  62  60 134 184 202 207 204 200 198 198 191 191 197 197 186 184 204 160  42 158 183 160 158 153 145 141 140 136 129 119  90  36  39 105 103 122 173 179 189 147  65 139 147 132 134 134 134
 156 156 157 157 156 156 161 153 162 145 110  71  99 108 115 127 124 111 127 133 138 150 159 161 161 166 160 148 132 117 104  93 144 157 150 159 180 204 218 220 208 189 181 182 201 153 107  93 110 137 159 181 195 200 206 200 201 202 200 191 187 164  87 136 185 163 157 157 148 144 143 139 130 124 114  82  41  92 114  54  62 148 185 192 159 120 159 142 131 132 132 133
 156 157 157 157 156 157 164 163 172 154 124  83  94 109 110 121 125 113 119 116 119 128 135 137 136 138 134 129 132 136 115 114 147 142 145 155 175 194 208 209 202 187 178 179 194 197 139 133 153 157 148 144 148 147 137 147 144 138 138 134 126 129 166 190 166 149 152 155 144 142 139 133 127 122 109  71  82 140  88  31  41  88 156 187 166 159 167 133 131 131 131 131
 156 156 156 156 156 158 163 169 177 158 128  99  97 107 106 112 115 110 121 123 129 134 134 136 141 146 151 151 147 134 109 109 129 120 117 132 157 175 185 186 186 179 170 167 178 196 160 112 128 146 170 185 188 183 170 169 157 155 161 159 164 189 189 176 159 144 149 149 143 138 134 130 124 122 100  73 126 151  76  36  57  88 139 180 160 171 154 129 132 130 129 130
 156 156 156 157 157 156 159 168 176 161 134 127 108 102 103 106 113 111 117 120 122 126 133 136 143 144 146 144 136 118 109  97 101  97  89 103 125 144 158 162 155 145 143 148 159 173 152 115 138 134 137 150 155 165 173 176 176 189 192 172 172 176 170 166 154 144 146 140 141 136 131 126 124 116  89  93 142 152  98  62  82 103 148 179 158 166 138 130 131 129 129 129
 156 156 156 157 156 154 159 168 175 158 139 140 118  99 101 105 114 108 108 113 119 127 133 140 145 148 140 134 121 106 111 104  77  58  43  72  94 101 109 119 122 124 111  89 106 134 114 105 145 144 140 143 147 145 146 145 140 157 155 157 171 170 165 158 145 143 143 138 139 135 130 126 122 106  84 111 145 149 123 116 108 116 160 179 157 161 136 131 130 129 128 127
 156 157 156 156 157 156 162 154 178 166 141 149 122  92 101 102 108 103 101 108 115 130 140 144 146 149 145 131 115 117 128 132  76  23  22  36  63  65  68  80  89  71  31  10  38  84 103 128 143 135 128 126 128 137 139 135 134 139 135 150 155 153 150 146 140 138 136 138 138 132 130 126 119  98  83 122 148 148 148 143 130 134 171 180 163 159 134 132 129 128 126 126
 156 156 156 156 157 155 159 143 155 174 169 175 139  91  97  98 103 104  99 106 123 134 139 136 135 138 137 125 125 138 145 141 102  46  43  44  45  63  58  66  65  68  67  40  51  84 132 162 160 150 144 139 143 143 137 136 150 155 165 165 159 150 141 138 141 134 129 135 133 128 125 121 114  87  92 132 143 157 174 155 145 154 184 180 169 157 132 132 129 128 126 125
 156 155 156 156 157 154 153 166 152 165 176 176 161 110  91  96 100 103  98 111 125 126 122 127 130 132 131 128 138 145 146 143 127  91  69  56  41  44  59  62  67  82  98 109 138 149 153 164 173 167 157 149 145 146 146 155 159 161 161 164 164 160 152 145 137 133 130 132 131 128 121 118 109  84 103 127 135 160 176 162 159 171 192 170 169 150 133 132 129 128 125 123
 155 155 155 156 156 156 146 168 184 183 177 173 156 109  91  96  97  99 102 112 120 121 119 126 128 131 130 129 135 147 144 137 140 131 104  75  57  33  29  34  46  82 120 143 158 176 181 169 176 178 166 158 147 145 152 158 159 161 157 149 149 144 146 145 139 137 131 133 128 123 122 117 105  90 109 134 157 185 188 177 178 192 187 161 167 139 134 132 129 127 124 122
 154 154 155 155 155 156 149 143 171 182 174 168 161 131  94  93  96  98 102 104 113 121 126 128 132 131 121 124 135 149 140 139 150 154 151 127  83  57  44  41  67 119 151 159 167 180 187 184 184 182 173 171 168 161 155 152 155 155 157 150 149 143 144 142 140 138 137 135 127 122 119 113 104 100 124 151 188 196 189 185 189 184 168 170 155 133 134 132 128 125 122 120
 153 154 154 154 155 155 156 139 140 166 170 170 171 152 107  92  96  97  97 101 106 115 126 126 127 124 119 124 137 145 140 148 148 142 138 141 141 135 132 128 144 161 178 184 180 180 182 191 194 186 179 172 172 175 164 152 152 158 156 153 150 147 144 142 140 136 137 132 128 124 114 111  99 119 152 161 185 194 190 188 189 185 183 167 137 136 133 131 128 124 121 120
 153 153 154 154 153 154 154 153 136 133 150 160 155 131 104  90  91  97  98 101 105 109 122 126 123 118 116 125 137 144 141 126 106 101 103 106 133 155 158 155 155 161 180 194 196 188 186 194 197 184 175 168 166 173 171 165 156 155 155 152 150 146 142 138 135 137 133 128 127 123 113 108 105 126 151 174 190 192 192 196 198 191 170 140 136 136 133 130 127 124 121 120
 153 153 153 153 153 153 154 154 154 138 122 119 115  94  83  91  88  94  99 101 105 108 119 124 120 115 115 119 128 134 101  83  86  86  98 103  97 106 111 108 110 115 121 140 167 186 198 196 191 183 174 165 162 164 166 166 161 154 154 154 151 146 141 139 133 137 134 127 127 120 111 114 109  95 130 170 190 196 195 190 177 153 137 138 139 136 132 131 127 124 121 119
 152 153 153 153 153 153 153 153 154 156 150 132 114 112 128 102  86  94 101 103 103 102 122 126 119 118 115 101  96  78  57  55  56  52  52  62  63  62  72  76  84  94 102 104 105 124 159 185 193 181 172 164 155 155 161 161 162 158 155 157 152 146 138 137 136 137 131 129 123 116 116 118  89  71  94 125 153 171 168 151 136 134 140 142 139 136 133 131 127 124 121 120
 152 153 154 154 153 153 153 153 153 153 154 157 156 157 155 114  84  90  99 102 107 106 120 126 121 121 112  77  44  35  34  32  23  31  38  34  41  42  41  45  46  50  59  68  73  77  86 111 145 160 154 156 154 151 154 159 158 160 149 145 148 143 134 138 136 133 130 130 124 119 115 110  88 110 113 109 116 124 130 135 140 145 143 141 139 137 133 130 127 124 121 120
 152 152 152 152 152 153 153 153 153 153 153 153 153 153 154 125  90  90  96 102 104 109 117 129 126 128 121 109  60  14   4   8  33  50  69  66  74  74  63  60  57  48  31  27  29  34  44  49  63  80  84 123 149 146 145 158 161 157 150 144 143 143 142 141 135 131 133 131 124 119 114 109 104 123 129 133 133 135 138 141 142 143 142 141 140 137 133 130 127 123 121 121
 151 152 152 152 152 153 153 152 153 153 153 153 153 153 155 138  95  88  94 100 103 108 118 129 133 133 130 131 135 104  64  64  80  73  78  77  95  89  90  90  89  84  48  37  30  16  19  10  10  21  57 109 134 144 147 160 164 158 154 148 146 142 141 138 134 129 128 128 123 118 113 114 119 123 127 130 132 136 138 140 141 143 142 141 139 136 133 130 127 123 121 121
 151 152 152 152 152 152 152 152 152 152 152 152 153 152 154 149 105  85  93  99 100 104 114 126 134 134 135 136 136 133 134 135 140 143 141 149 150 153 150 149 142 143 146 145 138 127 112  94  98 130 148 150 146 141 148 159 161 157 152 149 145 141 138 134 132 132 130 125 121 116 112 116 122 124 127 130 132 134 138 140 141 143 142 140 140 136 133 131 128 124 122 122
 151 152 152 152 152 152 152 153 153 153 153 152 152 152 153 152 117  86  89  99 101 103 112 124 134 135 139 144 151 127 122 136 139 138 135 144 157 173 169 175 180 175 172 170 165 164 160 158 165 170 176 173 163 153 156 160 159 157 150 143 141 139 136 132 131 132 129 123 118 114 105 116 121 123 126 129 132 135 137 140 141 142 142 141 139 136 134 131 128 124 122 122
 151 151 152 152 152 153 153 153 153 153 153 153 153 153 153 152 130  89  86  97 100 101 107 118 134 144 151 151 157 140 111 118 136 138 136 142 145 145 147 156 166 165 157 153 155 158 162 163 163 173 186 185 176 170 166 158 153 152 146 141 139 137 133 132 133 130 125 121 116 108 102 120 122 124 127 129 132 135 137 139 141 142 142 141 139 137 134 131 129 125 124 124
 151 152 152 153 152 153 153 153 153 153 153 153 153 153 153 153 137  92  85  92 100 100 103 113 130 150 156 153 152 149 127 108 112 123 131 135 132 132 139 151 156 155 158 160 156 151 149 155 170 187 190 186 181 174 168 159 150 146 139 139 135 133 131 132 131 128 122 118 113 106 113 124 122 124 127 129 131 134 137 139 141 142 143 141 141 137 135 131 130 128 126 126
 152 152 152 153 153 152 153 153 153 153 153 153 153 153 154 155 146  95  84  86  96 102 102 108 121 143 152 154 149 151 142 124 109 108 103  97  93  96 102 106 106 108 117 130 131 133 151 174 187 192 190 186 181 176 167 158 147 138 135 135 134 132 128 127 126 124 118 115 109 109 120 123 124 124 127 129 131 134 138 139 141 142 143 142 141 138 136 133 131 130 128 128
 152 152 152 153 153 153 153 153 153 153 153 153 153 153 154 155 147  97  82  83  88  97 103 106 116 133 143 150 154 152 148 141 127 116 108 107 100  88  91  90  92 102 118 130 140 154 179 189 192 192 188 185 182 177 167 156 145 138 134 132 132 131 128 125 122 120 114 110 110 115 125 124 124 124 126 128 130 133 136 138 140 142 141 142 140 139 136 134 132 131 130 130
 152 152 152 152 151 153 152 153 153 153 153 153 153 153 153 155 146  99  81  81  86  91  98 105 111 123 138 149 152 147 148 146 141 133 128 126 126 117 116 119 121 135 149 158 168 181 183 188 188 187 185 183 180 174 166 157 145 139 135 134 133 130 125 123 120 115 108 109 112 122 127 125 124 125 126 127 129 132 135 137 139 141 141 142 141 140 138 136 134 132 132 132
 152 152 152 153 153 153 152 153 153 153 153 153 153 152 153 155 146 102  82  76  82  88  95  98 106 115 129 144 148 145 145 144 141 136 138 140 140 140 141 145 148 151 160 173 180 182 184 185 184 183 184 182 176 169 164 155 142 137 134 132 129 127 124 120 114 110 104 110 114 127 129 126 125 125 126 127 129 131 133 136 138 140 141 142 142 140 139 137 136 134 133 133
 152 152 152 152 152 153 153 153 153 153 153 153 153 153 153 155 145 102  84  73  79  87  93  97 102 110 124 130 143 148 150 146 143 139 145 157 162 170 180 176 180 181 177 180 183 183 184 183 186 186 184 179 177 171 161 151 140 133 132 131 130 127 121 114 108 106 109 112 118 132 130 127 126 125 125 126 128 130 132 135 138 140 141 142 142 141 140 138 138 136 135 135
 152 152 152 153 153 153 153 153 153 153 153 153 153 153 153 155 142 102  92  76  74  82  88  95 101 110 120 133 142 146 157 156 151 156 160 171 177 192 201 203 206 203 196 194 194 194 190 192 191 185 181 180 177 168 160 151 141 132 133 131 127 122 115 109 104 103 112 114 127 134 130 129 128 127 126 126 127 129 131 134 136 138 140 141 142 141 141 141 140 138 137 137
 152 152 153 153 153 153 154 153 154 154 153 154 154 154 153 155 142 108 102  84  70  75  85  89  98 106 114 131 143 150 158 163 169 172 178 180 182 183 193 201 206 208 209 209 207 204 203 200 196 188 183 180 176 164 152 149 142 133 128 126 121 116 107 102 100 106 114 117 132 135 132 131 127 126 125 125 127 128 131 132 135 137 139 141 141 142 141 141 140 140 139 139
 153 153 153 153 153 153 154 154 154 154 154 155 154 154 153 155 141 111 110  93  72  69  76  87  93 101 110 121 138 149 158 164 172 168 175 193 198 192 191 195 204 206 208 210 208 208 207 202 199 192 183 176 168 162 153 147 136 128 126 122 116 107  99  97 103 112 117 121 135 135 132 130 127 125 124 123 125 127 129 131 133 136 138 139 139 140 141 141 140 140 140 140
 153 153 153 153 153 153 153 153 154 154 153 153 153 154 154 156 140 115 117 106  79  66  68  77  87  94 104 112 126 141 155 160 160 165 180 193 199 196 193 194 194 202 207 207 209 209 207 203 195 188 178 173 163 157 152 146 133 127 117 115 108  97  95 101 111 119 120 125 137 135 132 128 126 124 122 122 123 125 128 130 132 133 136 137 138 139 140 140 140 140 140 140
 152 152 152 153 153 153 153 153 153 153 153 153 153 153 153 155 141 123 124 118  93  68  66  69  79  87  96 105 115 128 139 152 155 165 173 183 187 188 185 185 186 192 197 200 202 205 201 194 186 182 177 169 157 148 144 138 129 122 111 104  99  93  99 109 118 122 119 128 136 133 129 128 126 123 122 121 121 123 125 128 129 131 133 135 136 137 138 139 139 139 139 139
 152 152 153 153 153 153 153 154 153 153 153 153 152 153 153 155 141 130 132 127 108  77  67  66  69  76  86  95 104 112 120 135 153 160 165 176 180 178 175 174 176 183 192 190 190 194 184 180 179 173 170 156 141 139 134 125 120 110  98  97  94  95 106 115 122 122 119 131 134 132 129 127 125 123 121 120 120 121 123 126 128 129 131 131 134 135 136 136 137 137 137 137
 152 153 153 153 153 153 153 153 153 153 153 154 153 153 153 153 142 137 137 129 119  95  70  66  66  65  70  79  92  95 106 121 135 148 154 162 174 174 167 169 171 176 182 178 182 180 174 169 168 164 154 142 131 129 118 111 106  98  93  95  97 102 111 119 122 122 121 132 132 130 128 127 124 122 121 120 120 121 123 125 126 128 130 131 132 133 134 135 135 135 136 136
 153 153 153 152 153 153 153 154 153 153 153 154 153 153 154 153 141 141 139 131 127 116  82  67  65  64  62  65  72  83  92 107 117 127 136 146 156 163 162 158 157 163 166 168 164 161 159 157 154 145 137 130 119 114 106  98  94  92  97 100 104 109 114 121 123 120 124 132 131 129 128 126 124 122 122 121 121 122 123 124 126 127 128 131 132 133 134 135 134 134 135 135
 153 154 154 153 154 153 153 154 154 154 153 154 153 153 154 152 138 141 140 133 130 129 102  72  66  66  64  60  61  66  75  88  98 102 115 132 144 149 143 145 142 143 143 143 135 133 139 136 138 130 120 117 105  96  96  90  89  92  97 102 108 111 119 124 123 121 128 134 132 130 128 127 124 123 123 122 123 123 124 126 127 128 129 130 131 132 133 133 134 134 134 134
 153 154 154 154 154 154 154 154 154 154 154 154 154 154 154 150 141 142 145 139 129 133 124  85  70  66  66  65  59  61  63  67  75  84  92 103 118 125 126 123 123 123 118 110 111 114 118 119 111 104 103  93  84  81  83  84  89  95  97 103 107 116 123 125 125 121 131 133 131 129 128 127 125 124 124 123 123 124 125 126 127 128 130 130 131 132 132 133 133 133 133 133
 153 154 154 153 155 155 154 154 154 153 154 153 154 154 154 149 144 146 145 144 137 134 137 112  78  69  65  67  65  61  58  58  58  63  66  69  82  91 100  98  91  95  96  90  91  98  94  94  90  88  80  75  73  72  78  83  86  94 101 107 113 121 124 126 124 123 132 132 131 130 128 127 126 125 125 125 126 126 127 127 128 129 130 130 131 130 132 132 133 133 133 133
 153 153 154 154 154 153 153 152 154 155 154 154 154 154 153 146 144 148 145 145 146 139 136 134  98  76  67  63  65  68  63  56  55  55  56  59  59  63  67  68  66  66  70  69  66  66  62  61  61  62  62  64  67  70  75  83  91  97 103 111 119 124 127 127 124 126 133 133 130 131 129 128 127 126 126 127 128 128 129 129 130 130 131 131 133 132 132 133 133 133 133 133
 153 153 153 154 153 153 154 154 151 154 155 156 153 147 152 147 147 146 145 146 145 144 140 144 123  86  77  67  60  62  66  65  61  58  56  54  52  52  50  50  48  48  48  48  46  46  46  48  52  57  61  61  61  70  80  90  95  99 107 117 123 128 129 128 123 129 135 133 132 131 130 130 129 128 128 129 130 130 131 132 132 132 132 133 133 133 133 134 134 134 134 134
 154 154 154 154 154 155 154 147 138 125 108 106 115 146 163 149 148 145 145 147 146 144 144 144 144 111  84  78  67  58  55  60  63  63  61  60  58  55  52  52  52  53  53  55  55  57  58  60  62  60  58  60  73  86  92  97 102 108 116 123 128 129 133 130 123 133 137 135 133 133 132 131 130 131 131 132 132 132 134 134 134 135 134 135 135 134 134 134 135 135 135 134
 155 155 154 151 151 149 143 136 135  63  25  83 147 177 167 148 149 148 147 148 149 147 147 147 149 138 100  85  81  70  55  52  54  55  55  56  55  55  56  54  55  55  55  56  56  55  53  50  45  48  67  85  97 104 106 108 114 121 123 127 133 136 136 129 124 137 139 136 136 135 134 134 133 133 133 132 133 134 136 137 137 136 137 136 136 136 136 136 136 136 136 136
 142 140 135 138 136 133 135 136 127  56 108 175 185 180 159 147 150 149 150 152 152 153 153 152 149 150 124  93  87  82  74  54  46  47  48  46  43  39  36  34  32  29  30  30  32  31  28  30  56  91 107 111 115 116 117 121 123 126 130 136 140 136 132 125 126 139 139 137 136 135 135 135 134 133 135 135 135 136 137 138 138 138 139 138 138 138 138 137 137 137 137 137
 130 132 130 135 137 134 136 131 118 120 179 188 182 176 153 148 151 148 149 154 153 157 158 160 153 152 145 113  93  87  84  77  58  44  45  43  41  37  32  28  24  22  21  21  24  26  45  86 120 127 124 124 126 123 126 127 129 134 139 143 142 138 132 123 127 141 139 138 136 136 135 135 134 135 136 135 136 137 139 140 140 140 140 140 139 139 140 139 139 139 139 139
