P2
# Generated by OpenCV 4.2.0
92 112
255
 171 173 171 172 174 174 173 176 177 178 177 180 178 179 178 180 180 179 179 181 180 180 180 181 182 184 182 183 182 183 183 182 182 182 183 182 181 180 180 179 179 178 177 176 176 175 175 174 174 173 174 174 174 173 173 175 175 175 175 175 175 176 177 178 176 176 176 176 176 176 176 175 176 176 176 178 178 179 179 179 181 181 182 184 185 186 184 185 184 185 184 185
 171 172 172 172 172 173 174 175 177 178 178 178 179 179 178 178 179 181 179 180 180 180 179 180 181 181 181 181 181 183 181 181 181 181 180 181 179 179 178 178 178 177 176 175 175 176 174 173 174 172 172 174 174 174 174 174 176 175 175 176 176 175 175 174 176 176 176 176 176 177 177 175 176 176 175 177 178 178 178 180 182 182 181 183 184 184 185 185 184 185 184 184
 172 172 171 172 172 173 174 174 175 177 177 177 177 177 178 177 178 178 177 178 178 179 178 179 178 178 178 179 179 180 179 179 179 179 179 179 178 178 178 177 175 174 176 174 173 173 174 174 173 173 173 173 172 174 176 174 174 175 176 176 176 176 174 175 176 176 176 177 177 177 176 177 175 175 176 176 177 178 180 181 182 181 182 184 185 185 184 184 185 185 184 184
 172 173 173 173 172 173 172 173 175 175 176 176 177 177 177 177 177 176 178 176 176 177 177 178 177 178 179 179 178 178 178 178 178 178 178 177 177 178 177 175 175 174 173 174 172 173 172 172 173 173 175 174 173 175 176 176 176 175 177 176 176 176 176 176 176 176 176 177 177 176 177 177 176 177 176 177 178 179 179 181 181 181 183 184 185 184 185 185 185 185 185 185
 172 172 173 173 172 172 172 173 174 174 175 176 175 175 174 175 175 175 175 175 176 175 175 175 175 176 177 178 177 177 176 176 176 177 176 174 175 175 174 174 174 173 172 172 175 178 180 181 179 177 176 177 179 176 174 175 175 176 176 178 177 176 177 177 176 175 177 177 177 177 177 177 178 177 177 177 177 179 180 180 181 182 184 184 185 185 185 185 185 186 186 185
 173 173 172 172 172 172 173 173 174 175 174 174 176 174 173 174 175 174 174 176 174 175 174 174 174 175 175 175 175 174 175 175 174 174 174 173 171 171 170 171 174 176 178 178 162 138 126 115 115 120 116 117 134 168 183 177 177 176 177 177 177 177 177 177 177 176 176 178 178 178 177 177 177 176 178 178 179 179 182 181 182 184 184 184 186 185 186 185 186 185 185 184
 174 173 172 173 172 172 171 172 173 174 174 174 174 174 174 174 173 174 174 173 172 173 173 173 174 174 173 173 173 173 174 174 173 173 174 174 172 171 167 167 169 160 141 108  98  81  64  52  57  56  55  55  43  61 125 169 165 173 178 180 178 177 177 176 177 177 177 178 177 178 178 177 177 177 177 178 178 180 180 180 181 182 184 184 185 185 185 185 186 185 185 184
 172 173 172 171 171 172 172 172 173 173 174 174 174 174 174 173 172 173 172 172 173 173 173 173 173 173 174 173 173 173 173 174 175 171 170 171 169 164 160 149 111  91  79  88 102  94  91  83  67  66  69  65  58  47  47  78  90 120 138 153 172 179 177 178 177 178 178 177 177 178 179 179 178 178 177 180 179 180 179 180 182 182 183 185 186 186 186 185 186 186 187 185
 173 173 173 172 173 171 172 172 173 174 173 174 174 174 173 173 175 173 172 173 172 172 172 172 172 171 172 174 174 173 171 169 168 158 144 132 122 124 124  99  92 110 118 127 105  92  74  59  47  38  33  22  19  25  31  30  47 104 117 109 144 174 181 179 178 177 178 178 177 178 178 177 177 177 178 178 178 180 181 181 182 183 184 185 186 186 185 186 187 185 186 185
 173 173 170 172 172 172 170 172 173 174 174 174 174 174 173 174 173 173 173 172 172 173 172 173 174 174 176 175 168 151 141 126 113 108  86  78  98 114 107 104 106  92  96  82  66  67  58  23   9  11  11  17  20  19  21  21  20  28  33  49 100 115 154 171 180 180 178 178 179 179 179 178 178 178 178 178 179 180 181 181 182 184 184 185 186 186 185 186 186 186 186 186
 172 172 171 171 171 171 171 172 172 174 175 174 173 174 174 174 173 174 173 172 173 173 173 179 176 168 160 137 138 124  88  83  85  88 114 130 122 119 106  84  85  76  65  85  99  99  75  59  85  82  48  37  40  42  32  30  24  19  11   7  18  31  44  60  68 141 183 178 180 179 179 179 178 178 178 180 180 181 181 181 182 184 184 185 185 186 187 185 186 186 186 186
 171 171 171 172 170 170 172 172 173 174 175 175 175 174 174 174 173 174 173 174 174 179 171 145 122 135 134 123 110  94  97  94 103 117 123 126 105  93  85  79  95 106 120 120  79  71  98 104  73  27  37  55  90  70  35  21   5   4  20  47  55  36  13   2   4  78 175 182 178 178 179 178 179 179 179 179 180 180 182 183 183 183 185 185 186 187 187 186 187 187 186 186
 172 171 170 172 170 171 172 173 174 174 174 175 175 174 175 175 174 174 173 174 176 146 111 110 128 123 124 112 117 141 116 129 130 120  93  75  72  83  57  63  92  89  66  55  82 100  54  46  48  62 104 102  59  13  10  17  47  81  80  56  25  12   7   7   0  72 181 182 179 179 179 179 179 179 179 180 180 180 182 182 183 182 185 186 185 187 187 186 187 187 186 187
 171 170 170 171 171 171 172 173 173 175 175 174 175 174 174 174 174 174 173 167 135 117 129 149  99  96  91 105 157 123 143 126  80  75  47  40  57  35  21  35  28  15  16  78  61  35  64  61  78 119  96  45  20  30  62  79 100  96  55   9  12  33  20  26  13  44 132 184 186 180 179 178 178 179 180 180 182 180 182 183 183 184 185 186 186 187 187 185 186 186 186 186
 169 168 169 170 170 171 172 174 173 175 176 174 175 175 173 175 175 175 176 147 125 134 151 107  73 104  76 106 114 105 112  75  54  40  29  40  27  10   7   5   3   7  65  46   1  40  71  79  98  70  18   6  46  76  96 115 104  60  18  27  28  32  39  36  33  29  41 107 169 187 187 180 179 179 180 180 181 182 182 183 183 185 186 185 187 186 185 187 186 186 186 186
 167 168 169 169 170 171 173 174 174 175 175 175 175 172 173 175 174 178 168 130 123 134 113  68  85 104  71  73  78  83  63  54  43  25  29  19   7   2   2   6  14  45  39   1  13  24  37  57  27   1  12  26  53  94 116 110  55  12  33  47  54  62  40  28  18  11   3   3  33 100 155 187 180 180 181 180 181 181 182 183 185 185 186 187 186 187 187 188 187 186 187 187
 168 167 168 168 170 172 173 174 174 174 176 176 174 172 173 172 172 179 163 116 116 114  84  62  65  71  57  64  68  65  57  47  37  22  13   5   4   1   6   7  25  33   7   2   7  16  27  14   5   8  19  54  73 105  77  31  16  43  35  46  67  45  33  14   7   5   3   4   1  10  36 121 187 182 180 180 181 182 182 184 184 185 186 188 188 188 187 188 188 188 187 186
 167 167 168 169 171 172 173 174 175 175 176 176 175 173 174 175 174 173 131  97  96  98  73  55  42  53  41  49  62  54  50  41  40  13   8   5   1   6   3   7  17  14   0   1   3  12   7   2   4   6  29  41  78  58  13  14  40  38  44  46  41  34  24  17  12   3   3   2   1   0   5  25 133 188 180 180 181 181 182 184 183 186 188 187 187 188 188 188 188 187 188 187
 167 167 167 170 171 172 173 175 176 175 175 175 175 174 173 174 173 173 109  76  78  93  53  36  27  38  43  47  46  33  36  42  26   5   4   4   2   7   1   6  10   8   0   1   3   6   1   1   1  11  16  41  35  10   6  37  26  43  63  61  40  19  32  33   5   3   4   8   3   1   2  22  70 176 181 180 180 182 182 183 184 185 186 187 187 188 187 188 188 187 188 188
 167 167 168 170 171 173 173 175 175 176 176 177 175 172 175 174 175 173 117  68  71  69  42  28  28  24  33  37  33  21  22  31  16   1   2   5   6   7   1   7   7   6   0   0   2   0   0   1   3   4  17  22   1   1  15  20  18  56  62  50  55  55  28   4   6   9   0   1   2   5   2  13  51 131 187 181 181 182 183 183 185 186 187 187 187 188 188 187 188 188 187 188
 166 167 169 170 171 172 173 175 173 176 177 176 173 174 175 175 176 169 120  65  54  52  43  21  29  15  24  35  33  26  13  21  13   5   2  10   5   4   4  10   6   5   0   2   3   0   0   1   2   4  12   6   0   3   3   2  30  58  40  42  61  36  21  15  22  20   4   2   0   5   3   5  15 104 186 182 182 183 183 185 185 187 186 187 188 188 188 190 189 188 188 188
 167 168 169 170 171 172 173 174 174 175 175 173 174 175 173 175 175 158 109  62  32  32  41  28  23  18  15  31  20  34  15  20  19  10   1  33   5   1   7  14   6   4   1   2   3   1   1   0   1   5   7   1   1   1   1  11  31  30  16  31  28  27  47  38  36  31  23   4   0   0   0   5  12 128 186 182 183 183 183 184 184 186 187 187 187 188 188 189 189 187 189 188
 168 169 169 170 171 172 173 173 174 175 174 174 176 173 173 175 166 147  96  57  36  27  28  35  29  23   9  35  13  27  30  20  21  30  13  35  17   1   6  21   7   5   3   3   4   3   3   3   7   8   5   2   0   2   8  17  19   6  10  22  21  44  48  44  45  42  46  10   1   3   1   0  55 180 182 182 182 182 184 185 185 185 188 187 188 189 189 189 188 187 189 188
 169 169 170 170 171 172 172 173 173 174 175 174 174 173 174 169 158 133  66  45  42  32  33  38  49  28  25  41  23  20  35  17  20  28  40  32  24   8   8  35  24   9  13  14  14  15   9  14  18  15  12   6   6  14  14  17   9   7  19  27  38  45  43  42  55  56  65  35   7   6   3   0  38 173 184 181 183 183 184 185 186 187 188 188 189 188 189 189 188 189 188 188
 170 170 170 170 170 170 172 173 172 172 173 173 172 173 173 167 152 104  34  28  47  32  39  38  62  45  29  33  41  21  21  42  17  27  31  36  32  22  19  35  42  33  36  43  42  38  32  31  32  32  25  20  21  24  24  19  16  29  40  50  61  56  41  41  50  56  64  38  29  17   6   2   4 126 187 182 182 183 185 186 186 188 188 190 189 190 190 189 189 188 188 189
 170 170 170 170 170 170 171 172 170 172 171 171 171 172 169 169 142  79  25  15  36  34  33  37  53  61  34  25  38  26  13  51  61  26  42  45  46  60  52  46  51  57  67  76  90  90  81  73  72  66  56  53  50  51  43  36  44  51  59  66  68  53  49  58  58  65  58  33  23  20  20   3   4  64 175 184 184 185 185 185 186 188 188 188 188 190 188 189 188 189 190 189
 169 169 169 168 169 170 172 171 171 171 172 170 168 169 166 163 127  69  20  10  18  34  34  38  41  42  33  20  36  35  18  28  67  54  35  52  52  50  59  72  77  75  80  84 106 128 137 134 126 110  99  89  83  85  85  80  88  90  87  81  77  79  78  79  81  78  65  53  37  32  34  15   1  15 142 188 183 185 185 188 190 189 189 189 188 190 189 189 189 190 189 188
 170 170 169 169 168 169 170 170 170 171 169 165 168 167 159 156 106  49  23  11  11  23  28  31  28  28  25  14  27  39  44  33  41  54  49  40  49  49  45  55  74  88  96 100 116 137 158 173 164 156 149 144 144 144 143 141 144 156 160 161 160 149 136 125 120 111  87  65  56  56  58  53  21   1 108 190 184 185 186 187 189 190 190 190 189 190 190 191 191 191 191 190
 171 170 168 168 169 169 168 169 169 167 161 163 159 156 148 142  94  36  21  11  13  14  16  25  26  25  27  23  21  27  43  53  52  63  72  76  72  80  92 105 114 119 124 143 159 164 178 184 188 189 187 188 187 188 187 188 197 200 202 201 202 196 192 186 175 163 146 112  75  58  59  63  66  26  73 188 185 185 186 188 189 190 190 191 190 190 190 189 190 190 190 189
 170 169 167 168 169 168 170 169 166 162 158 140 146 153 133 115  78  31  15   9  11  14  10  13  23  31  32  37  39  50  54  66  80  93  94 102 118 133 142 155 162 167 171 178 183 189 188 192 199 197 197 198 197 202 205 202 206 203 200 199 198 199 199 195 191 188 180 171 132  65  50  67  69  66  60 168 187 186 187 189 190 191 190 190 190 190 191 191 190 191 191 190
 170 169 168 168 168 168 167 166 159 157 137 136 139 119 114 107  74  29  14   9   6  10  16  14  19  32  44  57  68  77  88 101 102 111 124 138 147 166 176 175 182 190 185 181 188 193 192 194 197 200 197 196 199 202 206 208 205 204 203 202 200 199 200 196 192 191 189 184 182 136  61  63  66  78  65 123 193 186 188 189 190 191 192 191 190 191 191 190 190 191 191 191
 170 169 169 168 168 168 167 158 158 143 130 112 103 114 119  95  58  28  16  14  13  33  43  35  40  47  62  82  92 105 121 131 138 149 159 168 172 177 190 183 183 181 178 180 190 191 200 196 193 194 197 199 202 206 208 209 207 206 205 206 204 202 198 198 196 193 191 187 186 191 145  82  72  67  65  68 172 189 189 190 191 192 192 191 191 191 191 191 192 191 191 192
 170 170 169 168 168 167 161 158 152 128 105  79 100 127 104  55  35  30  31  49  49  57  65  59  62  70  90 110 128 135 153 155 166 166 170 177 200 206 210 210 216 212 200 195 188 188 191 193 197 198 201 204 205 208 209 209 208 208 207 206 208 206 205 204 199 196 193 194 191 183 187 154  94  53  50  41 134 185 190 191 190 191 192 192 192 191 192 191 191 191 192 190
 170 170 170 169 169 166 159 156 131 105  63  92 124  96  66  51  65  70  69  73  80  73  77  82  85  95 115 131 140 158 182 175 190 179 179 191 201 210 220 219 223 222 219 218 210 202 196 197 199 200 203 202 203 207 210 211 212 212 212 210 210 210 208 207 204 200 195 194 196 191 185 187 151  70  37  29  99 179 189 190 191 191 192 192 192 192 192 192 191 191 191 192
 171 170 169 170 169 165 159 137 104  66  66 121 105  68  73  96 122 104 102  92  85  73  87 100 102 113 127 139 153 179 196 187 194 202 193 197 199 204 210 211 214 214 214 210 212 210 202 201 203 205 205 201 205 210 211 212 213 213 214 211 210 211 211 211 209 206 203 198 193 192 190 187 186 144  52  18  27 120 188 194 191 191 191 192 192 192 192 192 191 192 191 191
 171 171 170 170 168 165 147 119  65  51  92  87  76  78  90 124 134 122 119  98  76  80  99 124 130 130 134 143 161 189 206 197 199 208 204 199 203 204 204 203 204 207 207 207 209 209 208 205 204 205 206 206 208 211 212 212 214 215 215 212 212 212 214 214 212 210 209 203 197 195 193 188 185 188 139  32   9  33 128 186 191 191 191 191 193 192 191 192 192 193 194 193
 172 170 171 171 169 160 133  77  40  85  94  72  74  84 108 123 133 113 110  83  75 102 123 155 142 144 152 148 156 189 208 204 203 206 205 205 205 202 200 194 195 200 203 204 206 209 210 206 204 204 205 207 209 213 212 212 213 215 214 210 212 213 215 214 215 214 210 204 197 200 198 191 187 185 200 126  17   6  55 156 193 193 193 192 193 193 192 192 194 193 193 193
 172 172 172 169 166 163 110  53  62  79  68  59  66  89 106 127 102  99  98  80  95 120 150 171 159 162 171 168 161 189 202 196 197 199 199 199 197 195 194 192 190 192 193 196 200 204 204 205 204 203 207 209 211 214 213 215 215 212 213 212 212 212 211 212 215 212 209 206 203 202 198 195 193 185 195 201 110   8  41 159 190 192 192 192 194 193 193 193 193 193 191 192
 174 175 173 166 173 160  87  57  62  58  55  47  57  66  99 113  80  87  90 100 113 139 171 178 177 180 179 172 181 194 190 190 191 189 190 189 188 189 187 185 186 185 187 188 192 197 200 203 203 205 208 209 210 211 214 217 217 215 214 211 207 208 209 212 213 211 208 208 206 205 198 199 195 187 190 203 184  86  15 136 198 190 191 191 191 192 192 192 193 194 193 193
 177 176 169 173 176 152  74  49  44  46  52  51  60  68 117  97  77  85  90 102 116 154 171 177 181 182 184 181 174 173 178 183 188 189 186 182 183 182 180 181 181 178 180 185 190 198 202 204 205 206 208 209 208 208 211 215 215 215 211 207 205 206 208 213 209 209 208 208 208 206 202 202 197 190 191 197 198 157  49  37 180 196 191 193 193 191 193 193 194 193 194 194
 176 173 173 179 178 120  48  34  29  40  44  38  49  89  87  69  75  91  87  92 122 159 170 175 179 180 181 169 153 159 168 177 183 183 181 178 177 176 178 175 174 179 181 185 193 197 203 205 209 208 207 207 206 205 208 213 215 213 206 202 204 205 206 210 211 205 205 208 206 204 203 203 199 192 193 194 198 177 104  16  88 196 191 189 191 189 190 192 193 195 195 195
 176 177 179 184 166  84  35  25  31  45  27  25  47  79  53  70  81  83  79  86 119 153 166 174 173 167 173 163 158 160 166 173 172 175 176 175 174 173 175 175 176 177 181 183 190 196 201 211 214 212 213 208 202 205 209 213 216 212 206 202 203 206 207 209 212 206 203 207 207 205 205 204 198 194 195 193 194 190 140  50   6 128 197 189 191 191 189 189 194 194 195 194
 184 183 181 188 139  52  25  24  30  23  16  28  53  54  37  66  71  62  64  79 115 143 157 163 168 164 162 166 165 166 166 167 165 166 170 172 172 175 175 177 177 181 183 184 191 200 207 214 215 215 213 214 210 207 208 211 213 210 205 206 203 206 208 210 213 211 207 206 208 208 207 206 198 195 196 193 192 192 163  93   9  24 149 201 191 193 194 195 194 194 195 194
 186 184 184 183 118  38  26  22  17  12  23  30  43  27  39  43  38  48  60  70 100 132 151 162 167 165 160 159 160 164 160 157 154 158 163 168 172 174 177 182 184 186 188 193 200 205 210 212 214 212 209 210 213 212 210 211 209 209 207 209 207 207 209 209 215 213 210 208 210 209 205 205 202 200 200 195 190 190 172 128  40  13  62 169 198 195 192 193 194 194 194 195
 188 186 185 177  81  28  25  16  16  13  21  28  20  23  32  21  26  43  43  58  95 122 143 156 160 165 161 158 163 156 151 150 150 154 161 168 174 177 179 183 187 190 194 202 205 206 207 208 207 206 207 207 210 213 212 212 213 207 209 213 211 211 211 211 214 215 211 210 211 208 203 201 201 206 206 199 192 192 179 134  73  33  70 124 199 194 194 194 195 195 193 194
 190 187 190 158  56  28  13   6   7  16  26  24  14  26  18  13  23  31  37  58  89 111 136 144 145 156 164 158 154 153 148 146 145 151 161 167 171 174 181 186 190 195 200 204 204 203 205 203 205 204 205 208 208 212 217 217 217 217 218 217 215 213 214 213 214 214 209 211 209 202 194 194 196 201 204 204 194 190 188 145  79  30  45 100 192 194 193 195 195 194 194 195
 191 189 192 124  30  21   5   7  12  14  20  22  29  40  26  15  21  24  32  53  79 108 127 129 141 146 155 155 152 146 144 148 143 150 157 163 171 180 185 191 195 198 202 202 205 206 203 204 206 204 205 208 207 213 215 217 218 219 217 217 215 214 212 212 209 207 207 209 195 167 141 124 119 129 135 170 200 190 191 160  85  38  26  75 190 195 193 195 196 195 196 196
 190 190 187  94  21  14   2   5  17  19  27  24  31  22  10   9  18  21  29  45  69 103 109 118 129 139 147 149 146 146 147 144 145 148 156 169 176 183 188 195 196 195 191 202 203 201 205 206 204 198 194 202 207 213 211 213 217 220 215 212 210 209 206 201 188 180 152 125  90  71  61  45  53  58  56  76 141 192 191 174  98  41  15  54 176 198 194 196 196 196 195 195
 190 191 177  72  20   9   1   8  23  23  23  33  43  20   4   7  13  18  23  37  67  94  98 103 115 129 139 141 141 143 140 144 149 152 159 170 181 188 196 199 193 184 172 164 144 139 148 147 150 160 176 187 198 203 206 207 211 213 209 206 201 200 195 181 139  91  43  20  20  27  32  43  46  50  53  49  43 107 190 186 115  49  16  48 156 198 194 194 196 196 196 196
 191 193 165  49  15   5   5  18  25  27  23  34  30   6   0   7  12  16  24  46  62  77  87  97 112 125 132 134 136 139 140 143 149 157 164 174 180 181 171 153 129 118  99  63  46  32  25  37  43  72 125 166 180 190 195 197 200 200 203 201 198 190 188 153  79  38  14   9  18  17  18  33  60  74  79  82  64  38 124 195 139  54  36  32 134 196 197 196 196 197 197 197
 194 199 148  26  10   2  10  23  18   4  16  23   6   0   1   5  10  10  30  51  58  70  79  90 103 116 128 131 130 132 134 139 145 157 166 178 152 120 103  76  39  35  34  32  25  13   8  13  22  31  65 122 154 178 183 185 191 190 189 192 194 186 173 127  75  50  33  32  39  62 103 127 145 151 153 132 111  72  74 182 166  65  29  38 128 191 198 197 196 198 197 197
 194 201 128  18  11   2   8  21  14  28  38  20  10   5   2   6   5   9  31  46  56  60  69  79  98 114 123 126 129 127 132 137 141 157 169 140  90  88  79  46  19  19  29  29  22  17  22  28  31  41  71 106 142 165 169 175 182 185 182 182 182 175 160 118  92  79  87 112 137 157 161 174 157 128 121 125 123  92  79 130 151  80  45  45 134 184 198 195 196 197 197 196
 195 197 120  15   9   6  16  21  14  26  21   5  10   4   2   5   3  11  32  44  48  53  60  76  97 115 122 121 120 121 132 139 144 161 119  75  65  57  52  36  37  41  49  50  49  53  65  64  64  72  84  96 119 142 158 166 180 187 186 182 184 174 150 118 114 128  99  69  73  66  56  96  78  56  57  61  69  67  31   7  10  25  35  28  66 175 197 196 197 197 198 196
 197 191 126  30  16   6  20  15  12  17   9   1   0   1   4   2   5  20  32  39  41  51  62  77  99 110 118 118 113 122 133 136 145 115  64  52  38  40  61  94 120 130 152 162 126 101 102 105  66  56  57  72 100 131 149 165 188 204 209 205 191 160 107 104  70  69  56  70  98 117 131 137 141 150 165 168 167 162 136 132  85  16   0   0   1 158 200 195 195 196 197 198
 195 193 139  29  14   6   7   6  10  16   8   0   1   1   2   1   3  21  26  34  37  49  58  83  99 104 116 119 121 125 133 136 109  53  47  40  60 115  96  65  59  69  96 103  68  61  78  87  55  45  37  39  42  67  65  63  91 109 117 107  72  48  15  24  88 117 117 103  97  95  90  76  79  89  98 123 150 158 154 175 157  54  33   1   0 142 205 198 197 197 196 196
 192 193 157  35   0   7   7   7  12  16   6   1   1   2   1   1   2  13  20  25  26  41  66  84  93 104 114 120 130 131 138 132  89  71  44  29  26  62  52  50  84 116 136 148 154 148 144 139 141 137 124 101  67  50  24   2   2   0   0   0   0   2   8 121 149 117  88  73  45  11   3   5  28  46  79  87 118 150 152 162 163  86  71   1   3 147 205 198 198 198 197 196
 195 192 176  58   1   5   6   8  16  15   3   3   2   3   0   1   2  10  18  19  22  41  74  87  94 103 115 129 137 140 114  41  18  19   0  16  57  99 129 139 136 119 100  81  63  53  49  56  80 117 134 126  99  77  61  26   1   1   0   0   0   0  42 145 128 111  74  68  12   0   0   0  24  35  23  68 101 133 133 136 142  76  47   1  46 187 199 198 199 197 200 199
 194 192 192  92   6   9   7   9  16  12   3   2   1   3   1   1   2  11  15  15  19  47  76  88  95 104 123 131 126  96  16   0   0   0  21 102 126 121 112  88  72  48  21   4   4  18  26  43  50  64  97 118  94  47  36  33   1   0  11  38  19   0  24  75  61  49  55  57   7   0   1   2  22  41  16  16  58  92 113 109 103  42  34   1  79 197 199 198 198 199 199 199
 196 192 201 137  18  13   8  11  22  18   5   2   2   3   1   1   3   8  11  12  17  51  77  88  96 108 117 102  81  51   2   0   0   0  68 114 108  95  71  60  35  19   2   0   2  42  46  67  35  39  37  45  39  26  40  31   0  39 146 189 178  55   6  98  62  45  64 108  95  35  24  49 119 103  64  32  15  23  72 102 100  48  27   1 104 205 199 198 199 199 198 198
 197 194 198 171  51  14   7  15  25  17   4   2   3   3   1   2   4   5   6   6  14  45  74  91  84  57  50  63  63  56  22  24   2   4  83 111  98  72  53  23  18  31   8   0   0   1  39  96  18  10  34  62  78  77  74  26   2 116 173 178 201 169  23 154 196 177 168 170 167 146 132 143 164 159 144 124  90  46  36  86 126 115  91   3 129 209 200 200 199 198 198 199
 197 195 194 193  92  30  12  15  22   6   0   3   4   4   1   2   4   4   2   2   9  38  60  50  29  10  26  63  64  80  99 109  54   9  82  98  73  47  11   9  42  95  73  23  26  37  96 116  88 100 126 127 116 114  83   8  17 120 154 177 196 207  88 102 214 194 184 180 172 163 163 169 170 177 180 169 160 144 115 100 130 169 137  13 162 208 201 201 200 199 198 198
 196 197 196 199 134  62  31  12  19   5   0   2   4   2   0   2   3   1   0   1   4  22  21  13  12   8  23  72 115 129 123 123 107   8  42  57  29  23  39  73 108 128 136 120 130 143 151 157 167 176 174 142 118 125  70   1  34 117 139 174 210 212 177  70 187 189 187 188 191 188 191 192 192 194 191 177 173 173 161 148 142 168 108  36 188 205 201 201 201 201 199 199
 197 196 198 202 175 101  55   9  18   6   3   3   3   1   1   1   1   0   0   3  15  16  16  14   7  33  89 122 126 124 127 133 114  22   9  35  48  93 130 141 137 135 145 159 161 165 167 167 164 165 160 135 126 131  52   0  59 124 135 163 204 212 213  98 130 204 193 191 192 194 199 201 199 197 194 184 177 178 173 170 158 170  67  63 207 202 201 202 202 202 200 201
 197 197 197 198 199 132  61  15  16   3   1   3   3   1   1   0   0   0   2  15  16  16  13   9  38  86 108 112 118 117 116  94  50  19  12 100 126 141 150 152 155 155 164 171 175 183 183 177 172 173 162 149 145 136  40   3 100 129 134 160 198 211 215 175  67 196 203 199 197 195 198 200 199 194 196 190 180 184 180 174 168 150  26  62 194 204 201 200 201 200 200 202
 194 194 194 195 201 162  77  26  15   2   0   2   3   0   1   0   0   4  16  19  16  13   3  28  67  78 104 115 120 114  76  34  51  74  19 121 147 145 153 160 165 172 177 182 187 189 191 189 185 177 167 157 156 122  10  32 133 130 128 167 204 210 212 214 105  81 209 213 210 206 205 205 202 201 205 202 193 198 192 191 165  42  57  91 149 203 201 198 199 202 203 202
 191 190 191 190 192 182 130  63  11   2   1   2   1   0   0   0   3  16  20  17   8   0   8  36  63  70  94 109 106  84  55  64 101 131  55  89 160 150 154 163 170 176 183 185 189 194 194 193 188 178 173 168 161  79   1  96 139 126 124 179 210 211 212 214 198  52  66 137 168 187 197 199 199 194 183 166 138 107  70  76 112 101 164  88 108 191 198 199 201 203 202 202
 184 185 185 183 185 186 160 111  22   3   8   3   0   0   0   0   8  16  14   5   1   5  17  49  77  90  97 103  85  71  84  99 109 134 105  25 142 166 157 169 173 179 184 188 192 196 197 201 203 196 180 151  85  18  68 142 131 121 130 183 206 208 209 211 209 172 102 102  85  81  77  71  78  86  85  84  79  89 114 145 165 186 170  71  87 187 194 197 203 204 202 202
 177 176 177 177 177 179 169 138  52   0   2   4   1   0   0   0   0   0   0   1   9  15  30  62  85  98 103  95  87  99 108 113 118 124 150  66  26 109 162 167 176 186 190 196 192 187 183 165 145 114  61  25  14  63 135 132 122 116 127 166 191 204 209 206 205 198 147 126 168 186 189 186 188 192 201 204 198 196 194 187 175 175 166  59  61 184 201 191 198 202 202 202
 169 169 169 170 170 170 170 159  91   2   0   0   1   0   0   0   0   0   0   6  14  21  33  58  83  92  93  95  98 108 113 121 127 129 138 153 106  61  90  79  59  60  71 104  75  78  91  77  86  78  37  30  87 136 126 123 116 111 123 161 181 194 204 209 206 194 183 135  88  81  85  89  88  85  84  94 122 143 149 161 169 176 161  59  56 166 201 196 192 198 200 199
 160 160 161 160 159 159 162 161 107  29  48  71  62  27   7   2   0   1   6  11  18  21  30  56  80  87  86  92  96 108 119 123 125 127 134 144 160 167 158 157 152 151 156 163 174 185 172 143 102  65  77 127 151 124 114 125 119 114 121 152 163 180 198 208 203 190 183 198 202 186 170 165 166 163 161 166 170 171 163 159 164 175 152  54  76 132 190 193 188 189 194 194
 146 147 147 148 148 148 149 148 132 147 131 104  99  75  32  11  14  14  17  19  24  24  30  51  74  81  85  90  91 100 117 124 123 123 124 139 145 159 168 175 176 160 163 171 157 127 100 100 125 162 184 175 139 107 115 126 122 117 120 130 139 157 176 194 195 184 172 178 208 215 219 222 225 221 219 218 213 211 202 192 178 173 142  48  76 122 170 183 184 182 188 187
 133 136 136 135 135 136 136 135 165 162 111  83  71  69  46  31  32  32  25  24  24  27  33  41  66  79  83  84  87  94 111 121 119 120 114 122 131 134 125 106  97 128 167 170 163 174 199 211 209 201 187 164 121  96 110 121 122 117 107 110 114 131 151 170 177 164 155 166 193 202 207 213 214 212 210 210 207 206 203 198 188 182 133  41  67 124 163 173 176 174 175 179
 123 123 124 124 124 125 123 132 156 129  74  39  33  26  20  37  45  42  23  27  28  27  32  34  58  73  78  82  84  90 101 113 120 117 112  98  85  81  89 112 169 202 196 201 208 210 212 207 198 187 177 150 104  91 105 114 118 107  95  95 101 112 125 134 142 146 129 148 192 196 198 205 208 208 208 208 207 205 200 194 186 183 123  45  76 118 162 165 169 166 165 169
 108 110 111 113 112 111 109 119 133  91  38  44  54  43  25  19  45  49  17  29  28  26  30  35  50  67  77  81  82  84  91 103 111 112 106  98 100 118 152 193 200 191 191 193 197 199 201 198 191 176 169 150  98  76  92  96  75  29  19  33  61  91 101 104 111  83  60 153 200 195 192 196 200 204 206 205 204 204 199 192 182 181 114  51  67 118 160 155 161 159 157 159
  98 100 102 101 101 102  99 103 132  80  44  75  91  73  58  63  50  34  13  24  24  29  33  41  45  60  74  79  80  81  85  93  99 100 103 115 134 152 169 180 178 178 185 191 193 196 194 188 175 166 161 148 114  55  61  69  32   9  15  16  16  56  86  93 103  58 106 190 198 190 189 191 198 202 206 204 203 200 195 189 181 178 108  76  79 123 149 144 148 148 146 147
  99  99 100 100 100  99  99  99 120 114  86  88  95  97 121  86  26  15  12  26  28  27  39  45  49  53  69  76  80  82  84  89  95 102 114 126 137 151 156 160 168 172 176 183 186 190 186 173 162 159 151 141 132  85  33  31  46  55  55  53  56  69  78  93 118 131 166 197 200 193 189 185 191 197 198 199 198 193 191 187 179 170 107 103 106 115 131 132 134 135 134 133
 100 100 102 102 101 101 101  96  96 129 115  88 111 133 115  43  12  12  13  29  32  23  36  52  55  51  65  76  79  82  85  90  99 107 116 123 131 140 146 153 159 163 173 177 178 177 174 162 158 159 152 145 138 121  91  73  76  71  61  53  53  65  69  84 120 158 188 200 203 200 193 186 187 193 195 196 194 190 188 184 176 165 104 124 132 112 116 118 121 121 120 120
 102 103 103 102 102 101 102  96  90 130 117  92 126 140 106  51  26  16  14  28  41  27  33  51  54  50  61  77  80  82  88  93  99 105 111 119 124 130 138 147 155 159 165 168 169 165 159 155 155 158 155 145 142 138 131 128 118 100  84  59  40  38  56 107 156 176 194 196 201 203 195 191 189 189 190 192 194 191 185 181 172 160 123 148 138  99 100 103 104 104 102 101
 104 103 104 103 102 100 100  98  91 133 136 100 131 144 111  61  40  28  16  26  54  39  28  41  49  49  55  73  82  84  89  94  96 103 108 116 121 123 128 138 145 152 158 159 163 157 149 154 156 158 157 147 142 142 144 145 147 142 135 115  98  94 120 170 192 199 197 187 189 194 195 187 186 190 189 191 192 189 183 177 170 161 162 169 141  86  81  86  87  86  84  83
 104 104 103 103 101 101  99  98  93 128 163 109 125 137 110  61  52  35  19  19  53  71  43  32  40  47  49  64  83  89  91  94  97 100 105 111 115 118 123 131 137 145 152 154 157 149 149 151 150 153 151 148 148 150 153 155 162 171 180 194 199 199 203 204 202 198 201 195 188 184 188 185 177 189 189 189 189 186 182 177 167 164 176 183 142  75  73  75  77  79  79  79
 104 103 104 103 101  99  99  98  93 116 162 112 106 129 109  61  58  34  18  14  21  63  89  52  31  29  36  59  80  88  89  93  96  98 103 108 110 113 118 125 132 139 148 152 148 145 146 141 139 144 146 148 152 157 155 148 145 144 139 153 171 187 175 161 158 158 167 180 190 186 180 177 174 181 190 188 187 185 182 174 166 174 189 182 111  62  66  68  72  76  78  80
 104 104 103 102 100  99  98  98  95 104 139 111  91 134 100  56  54  27  15  22  10  15  85  93  63  47  36  57  81  86  87  92  94  97 102 108 108 110 114 119 128 136 146 150 145 147 142 132 137 141 142 145 140 129 118 112 109 115 122 117 119 123 123 123 129 132 135 135 144 170 178 170 169 177 186 190 185 184 180 169 167 183 191 155  76  57  59  63  69  75  79  81
 105 105 103 102  99  98  97  97  95  99 119 134  98 113  97  63  50  28  43  77  47  13  51  96  78  74  67  69  82  86  89  94  96  98 102 109 110 108 109 117 126 132 143 151 151 152 138 123 130 134 129 109  87  83  87  83  71  71  76  77  71  73  80  74  75  80  85  94 100 112 139 140 167 179 182 193 188 183 180 173 167 177 170 103  59  57  57  59  65  72  79  84
 104 104 102 101  98  97  95  96  95  96 102 132 139 113  87  74  74  68  82 115 101  78  69  85  76  71  72  76  79  85  91  92  97 101 103 110 117 111 110 117 127 132 147 155 154 157 140 109 100  91  71  56  52  48  43  57  60  55  72  86  80  84 103  97  75  69  52  59  51  37  46  93 160 180 182 196 192 185 179 176 164 133 102  67  60  57  57  59  63  72  80  86
 104 102 100  99  97  97  97  96  96  98  98 109 134 142 114  93  98  97  98 113 113 109  84  67  69  63  73  76  78  83  90  92  94 102 105 110 117 117 115 117 130 134 150 165 161 166 158  87  25  24  27  24  49  69  81 124 151 141 162 183 181 189 206 193 121  92  36  57  14   2  64 143 173 180 187 198 192 185 179 176 148  86  73  69  63  59  58  59  64  73  81  88
 102 102 100  98  96  95  96  95  97  99  99 101 107 122 139 136 126 119 117 115 111 103  87  75  68  54  71  79  81  84  86  90  94  99 105 113 117 122 119 119 130 134 149 173 175 171 177 138  36   8  20  10  51 126 106  93 106  82 111 115 105  99 117  92  44  46  47  47  68 112 183 197 188 187 195 199 192 183 181 175 130  79  78  71  66  62  61  62  67  74  82  88
 103 103  98  96  96  95  95  96  97 100 102 103 104 107 115 124 123 127 129 128 120 112 103  99  80  51  65  80  81  82  86  89  93  95 101 109 116 122 122 118 128 135 148 174 184 179 180 182 161 121  90  78  93 125 108  95 101 101  99  98  97 106 120 132 148 156 156 163 161 168 192 205 201 194 198 196 191 180 176 170 116  82  80  75  70  67  65  67  72  77  83  90
 101 100  97  97  96  95  95  97  99 101 103 104 103 105 108 107 104 108 122 131 128 123 122 115  81  47  63  82  81  80  84  88  92  94  98 105 114 121 123 120 123 134 145 168 189 188 182 184 176 162 152 146 138 126 126 133 131 153 171 188 194 192 194 195 189 174 154 155 164 178 196 206 206 202 196 193 186 178 172 162 105  87  84  79  76  75  73  75  78  82  86  92
 100  98  96  95  95  96  96  99 100 102 104 104 103 104 104 104 103 103 101  93  94 101 102  79  41  34  62  83  84  81  82  85  90  91  98 102 110 118 125 123 119 127 138 161 188 194 188 187 189 171 151 141 140 138 135 130 126 135 157 165 168 167 167 168 166 158 162 169 177 187 203 211 208 205 197 191 180 175 170 144  98  92  88  83  81  81  80  82  86  87  90  94
  99  97  96  95  95  96  98 100 101 103 104 106 105 105 104 103 102 101  96  89  58  25  20   5  12  38  52  79  85  82  81  84  87  90  94  99 108 116 124 125 122 122 132 149 176 193 193 189 187 185 166 143 134 137 144 151 149 147 152 152 150 148 152 157 160 165 175 181 181 192 206 209 207 206 197 187 176 170 162 128  97  95  90  87  85  86  86  88  90  92  93  97
  97  96  95  96  95  97  99 101 103 105 106 106 106 105 104 104 103 102 100 101  88  47   3   0   2  29  49  69  82  83  82  83  87  87  92  98 105 114 120 123 122 120 124 136 160 183 191 188 188 184 177 165 145 136 138 144 150 150 148 147 144 151 154 154 159 165 174 177 186 203 209 208 208 206 194 184 174 165 155 115  98 100  92  87  89  90  92  93  94  95  94  97
  96  96  95  95  96  98 100 101 104 106 106 107 107 105 104 103 103 103 101 102 105  94  51   8   0  13  44  62  80  84  82  83  85  87  89  93  99 107 115 120 123 122 121 129 146 168 182 183 185 181 179 176 164 150 141 142 149 153 152 148 147 154 156 161 167 173 185 188 196 204 206 207 206 203 194 180 167 160 143 105 101  98  92  89  89  92  93  94  98  98  97  97
  96  95  94  96  97 100 101 103 105 107 108 108 107 106 104 102 102 103 101 102 102 103  98  56   6   2  36  59  75  82  80  80  85  85  86  90  94 102 110 116 120 125 127 126 136 155 171 175 174 178 181 177 173 167 158 156 153 152 157 163 158 158 167 169 174 182 195 202 202 205 206 207 206 201 194 174 159 159 127 102 101  98  91  90  91  93  93  95  99  99  98  97
  96  94  95  96  98 100 102 106 107 107 108 108 107 105 104 104 103 102 102 103 103 101  99  91  48   2  25  59  70  78  79  80  81  83  84  87  91  95 104 111 118 121 125 127 131 143 159 166 169 170 175 175 175 177 174 169 169 167 171 173 169 175 184 187 194 195 200 205 205 206 207 205 203 199 190 167 159 151 109 103 102  98  92  88  90  93  94  96 100  99  99  98
  94  94  95  97  98 101 103 108 108 109 108 108 108 105 104 103 103 101 102 103 103 103  98  99  78  14  11  60  69  75  78  80  79  80  81  83  85  92  97 104 113 119 120 122 125 132 146 156 162 167 177 182 180 178 179 175 178 183 187 198 202 204 205 203 207 210 209 208 207 209 209 204 202 199 184 165 160 135 102 104 100  96  90  88  89  91  93  96 100 100 100  99
  94  96  96  98 101 103 105 108 109 111 109 108 108 105 105 104 103 103 102 102 103 103 101  97  79  24   2  58  71  73  78  78  79  80  78  80  85  90  94 101 107 115 118 117 119 125 136 142 153 163 171 180 189 190 184 178 186 191 194 207 208 209 210 213 216 214 210 210 211 211 210 205 201 196 179 162 154 115 102 103  99  93  88  86  87  89  90  94  99 100  99  99
  94  96  96  99 102 106 107 109 110 110 110 109 107 106 104 104 103 102 102 103 103 103 100  84  62  20   0  44  74  71  76  75  78  80  77  79  82  84  91  97 100 108 114 115 117 120 128 134 140 154 163 174 186 194 197 188 188 190 196 202 208 208 210 213 215 213 209 209 210 212 210 203 198 193 176 159 138 103 103 100  96  91  84  84  83  85  87  91  96  98  98 100
  96  95  96 101 103 106 107 109 111 111 110 109 107 105 105 104 103 102 102 103 102 103  95  65  43   7   0  23  74  76  73  76  77  76  78  79  80  81  86  93  98 102 109 112 115 117 121 129 135 141 153 167 183 191 199 197 189 187 196 206 211 211 208 207 210 213 213 210 208 211 209 202 196 186 168 155 117 100 100  97  93  86  79  77  76  78  83  88  92  98  99  99
  96  96  99 102 104 107 109 111 112 112 110 110 107 106 104 103 102 103 104 103 104 104 103  85  25   3  19   5  64  83  77  77  80  78  77  78  80  82  83  87  93  97 105 109 114 113 115 122 129 132 139 156 171 187 189 194 195 192 201 205 209 209 209 208 210 211 212 211 213 213 206 197 190 177 161 140 101  99  97  91  89  81  73  71  69  72  78  84  90  96  99 101
  97  97 100 103 105 108 110 111 112 112 110 109 107 105 103 103 103 103 103 103 104 105 104 104  81  57  27   0  48  84  83  80  81  81  77  76  78  79  80  83  86  91  98 106 111 113 111 116 120 124 127 137 156 176 185 184 191 196 200 208 210 210 210 207 210 210 212 211 214 211 198 191 181 162 156 122  98  98  95  88  83  76  67  63  63  67  73  79  88  95  98 100
  98  99 100 104 107 110 112 113 112 112 110 109 107 105 103 103 103 102 102 103 105 105 104 104 108  94  38   1  29  82  85  85  85  84  82  78  77  76  78  81  87  89  93 101 104 109 107 108 109 110 115 123 134 152 168 175 180 190 198 205 209 212 209 205 209 209 212 211 208 201 190 182 166 152 148 108  99  97  93  87  81  74  63  60  60  62  67  75  85  95  99 100
  97 101 103 106 108 111 112 113 113 112 110 110 106 105 104 103 103 103 103 104 106 106 103 104 104 102  53   5  15  74  83  85  88  88  87  83  76  76  77  75  77  85  90  95  99 102 105 101 100 101 102 109 115 123 139 154 163 175 183 191 196 202 204 201 200 200 200 197 193 186 181 168 149 148 142 103  98  96  91  87  80  72  62  57  55  58  65  73  83  92  98 101
  99 102 105 107 110 112 113 114 113 111 110 110 108 104 104 103 103 101 103 104 104 104 104  99  96  90  42   9  10  65  82  87  89  89  90  89  82  76  77  75  74  82  84  86  92  95 100  98  93  94  91  90  94 104 114 128 141 154 164 178 186 190 192 191 187 187 185 176 173 172 163 144 137 152 143 103  98  97  93  87  79  70  61  56  55  57  63  72  84  92  98 100
 100 103 106 108 111 113 113 113 113 110 110 108 106 106 104 103 103 103 104 105 105 105 105 102  91  80  58  26  11  47  81  88  97  96  92  92  88  79  76  76  78  76  81  82  83  89  92  97  94  88  83  81  80  84  91  98 112 128 140 152 162 172 174 176 171 168 164 155 155 147 134 131 141 156 145 103 100  98  95  89  82  72  61  56  54  57  62  71  83  91  97 100
 102 104 108 111 111 115 115 115 114 112 110 107 106 105 104 103 103 103 104 104 105 106 106 108 107 101  80  27   0  30  78  88 101 110 106  99  94  86  77  74  74  75  76  79  80  83  85  88  91  90  84  79  76  72  74  79  85  97 108 118 131 145 150 149 145 141 139 132 122 115 121 136 144 161 149 106 103 102  97  91  84  74  64  58  56  58  64  74  81  90  96 100
 103 106 109 112 113 115 115 114 113 112 109 107 106 105 103 103 103 104 104 104 106 106 107 107 108 115  67   3   0  21  74  85  99 114 120 116 106  93  84  75  75  74  73  74  76  78  81  82  84  87  87  86  78  74  72  71  73  75  83  89  98 104 107 108 106 100  98  91  91 107 125 138 147 167 150 107 104 104  99  93  86  77  67  62  61  61  66  73  81  88  92  99
 105 107 110 112 114 116 115 114 113 111 109 108 105 104 103 103 104 104 105 105 106 107 107 108 115  78   4   0   0  13  71  87  99 112 123 126 122 110  94  80  74  73  73  73  75  73  74  78  79  80  82  81  81  78  73  69  69  71  73  74  75  74  73  74  74  74  75  84  99 117 128 138 151 173 153 106 103 104 100  94  87  78  69  64  63  63  67  72  79  84  91  98
 105 108 111 114 115 116 116 115 113 111 109 108 105 104 105 104 104 104 105 106 106 108 108 114  92  10   1   0   0   9  68  87  98 107 119 124 128 127 112  94  82  72  72  71  72  71  71  72  75  78  78  79  80  79  78  73  69  67  69  70  71  69  68  70  72  74  83  96 107 120 129 136 162 179 156 106 104 104 100  94  88  81  71  64  62  64  67  70  75  81  88  93
 108 111 113 114 114 117 116 114 114 111 110 107 105 104 104 104 105 104 106 107 107 108 109 108  31   0   2   1   0   7  61  80  95 111 121 127 131 132 132 119  99  84  73  71  70  70  71  70  71  75  78  81  80  80  80  79  76  74  72  73  72  73  75  77  78  84  90  96 110 123 130 149 171 182 154 106 103 103 101  94  87  80  72  64  60  60  61  64  68  76  81  89
 110 111 115 116 116 118 116 115 112 110 109 107 105 104 104 104 104 104 106 107 107 107 114  69   0   2   3   3   0   5  51  79  95 113 123 133 139 138 137 136 124 102  86  77  71  68  68  67  66  68  72  76  79  81  83  83  82  83  83  84  83  84  85  85  83  84  89 101 120 132 142 163 177 184 156 107 103 105 102  97  89  82  73  64  59  56  56  59  62  69  77  86
 110 113 115 115 117 118 116 113 112 110 108 107 105 103 105 104 105 105 106 107 108 111 106  24   1   6   5   4   0   1  42  78 101 113 122 131 140 148 145 139 139 131 111  92  80  72  69  67  65  63  62  63  65  67  72  74  76  78  80  82  82  78  76  74  75  86 107 129 143 148 157 172 183 183 158 109 104 106 104  99  93  85  78  66  59  56  54  56  60  66  76  84
 112 113 116 117 119 118 116 115 113 110 108 107 105 104 103 105 105 106 106 108 109 114  78   5   5   7   8   7   4   0  32  72  96 116 124 130 139 144 151 149 143 142 138 121 102  90  83  77  75  72  68  62  59  52  50  47  45  45  45  45  48  55  65  84 108 133 151 160 160 158 167 180 182 182 159 103 102 105 103  99  94  86  78  70  61  56  55  55  59  66  74  83
