P2
# Generated by OpenCV 4.2.0
92 112
255
  12   1   0   0   0   0   0   0   0   0   1   2   7   9   9  11  11  22  37  38  39  39  40  40  39  38  38  38  39  39  36  39  39  41  40  39  40  40  39  41  25  15  13  17  15  15  15  18  14  15  18  16  16  17  17  17  18  18  16  18  20  20  20  21  21  20  21  22  22  22  22  24  24  24  25  24  24  24  27  26   7   0   0   0   0   0  29  52  56  57  57  58
  12   1   0   0   0   0   0   0   0   0   1   3   8   9   9  10  11  22  38  38  39  39  40  40  39  38  38  37  38  38  38  39  39  40  40  40  41  41  41  35  18   9   6   9  13  11  11   9   9   8   9  10  12  14  16  16  15  14  13  13  16  17  16  18  18  16  16  17  18  17  18  18  19  20  20  20  22  22  21  20   6   0   0   0   0   0  28  52  57  57  57  59
  13   2   0   0   0   0   0   0   0   0   1   3   8   9   9  10  11  22  36  38  39  39  40  40  39  38  38  37  36  37  40  37  39  41  39  40  42  42  42  33  15   9  18  25  23   8   5   5   4   5   6   6   7   9  13  13  11   9   9   9  11  12  12  13  15  12  13  14  13  13  13  12  13  15  15  15  13  14  12  13   3   0   0   0   0   0  27  50  56  57  58  60
  13   2   0   0   0   0   0   0   1   0   0   2   8  10   9   9  11  21  37  38  39  39  40  40  41  39  39  37  38  36  39  39  38  39  45  44  41  41  41  37  30  35  37  50  51  37  19   4   1   1   1   1   1   1   3   3   2   2   3   3   4   5   4   4   4   4   4   4   4   4   3   4   4   5   6   5   3   3   3   1   1   0   0   0   0   0  27  49  55  58  60  60
  13   2   0   0   0   0   0   0   0   0   0   2   8   9   9   8  11  23  38  39  39  39  40  40  41  41  39  36  39  44  41  39  46  62  71  60  49  54  64  68  54  38  25  30  42  70  81  39  21  12  10   1   0   0   0   0   0   0   0   0   0   0   0   0   1   0   0   0   0   0   0   1   0   0   0   0   0   0   0   0   1   0   0   0   0   1  29  51  56  58  59  60
  13   2   0   0   0   0   0   0   0   0   0   2   6   8   9   9  11  21  38  40  40  41  39  40  40  41  48  47  70  69  46  63  66  78  85  95  92  98 121  90  69  42  21  29  49  55  64  61  63  59  42  38  11   1   2   1   1   1   1   1   2   1   1   2   1   2   7   2   1   2   1   1   2   1   1   1   2   4   1   1   0   0   0   0   0   2  32  51  55  58  59  59
  14   2   0   0   0   0   0   0   0   0   0   2   7   8   9   8  10  22  36  41  40  38  41  44  61  73  72  71  68  58  72  71  54  55  70  74  57  78  79  68  64  61  54  49  73  72  35  48  98  95  49  66  42  14  20  21  23  22  22  24  14   6  13  12   9   9  13  12   9   8   7   7   8  10  13  12  13  11   7   2   0   0   0   0   0   3  34  51  54  58  59  60
  13   2   0   0   0   0   0   0   0   0   0   2   7   9   9   8   8  20  35  37  39  57  58  62  70  64  50  53  57  58  55  35  15  59  86  61  32  42  45  76  84  69  74  62  59  71  64  52  97  83  64  73  83  61  57  70  69  56  41  47  51  57  27  11  11  26  20  13  16  15  14  12  13  15  16  15  15   9   9   5   0   0   0   0   0   3  35  51  55  58  60  61
  14   2   0   1   0   0   0   0   0   0   1   3   6  12   9   9   9  20  47  55  73  87  71  48  55  62  41  71  58  38  35  41  52  61  92  95  34  63  80 107  69  55  56  52  50  46  67  75  53  65  76  75 102 101  91  95  84  80  82  68  49  67  60  27  16  25  25  10  13  15  15  14  13  13  11   7   3   1   3   5   0   0   0   0   0   2  32  49  53  56  58  59
  14   2   0   1   0   0   0   0   0   0   1   3   7  12  10  13  28  58  92  75  68  58  70  55  62  71  68  86  71  59  61  85  62  41  37  63  85  75 111 123  67  54  78  67  68  74  73  73  36  42 108  75  62  59  72 105  97  80  81  82  67  47  78  68  31  36  33  37  32  14   4   7   8   6   4   1   0   1   2   3   0   0   1   0   0   0  14  25  31  33  35  36
  14   2   0   0   0   0   0   0   0   0   0   2   7  10  15  44  60  64  53  44  49  41  57  44  73  65  42  72 101  95  85 105  63  71  45  16  37  47  63  67  52  70  99  80  61  53  99 102 101  77  99  79  67  67  65  60  91 121 105  68  57  64  74  80  64  53  54  51  62  67  23   1   1   1   3   1   0   0   1   1   0   0   0   0   0   0   0   0   2   3   3   3
  15   2   0   0   0   0   0   0   0   0   0   3   5   8  39  88  68  45  39  36  34  38  24  43 108  76  75  52  86  97  68  90  83  56  31  13  34  43  41  42  41  22  61  78  80  27  42 102 109 112 113  68  59  95  67  91  70  77  88  91  56  43  43  49  85  98  77  68  51  52  61   9   0   2   4   1   0   0   1   0   0   0   0   0   0   0   0   0   0   0   0   0
  15   2   0   0   0   0   0   0   0   0   1   3   9  25  58  80  53  44  40  29  28  33  22  72  77  78  90  62  71  80  55  62  84  73  39  11  24  46  59  56  66  64  67  80  80  60  39  47  88  80  93  83  44  95  70  80 115  96  63  64  56  48  30  18  31  87 104  98  67  54  52  23   5   3   4   1   0   0   2   0   0   0   0   0   0   0   0   0   0   0   0   0
  15   2   0   0   0   0   0   0   0   0   1  19  34  40  45  40  38  41  33  31  36  54  60  72  46  71  71  44  74  61  50  47  56  68  73  59  53  60  64  69  74  80  77  76  78  78  81  75  96  93  71  69  67  67  85  36  46 103 103 101  68  44  40  24  14  33  64  72  92  92  81  51  29   5   3   0   0   1   0   0   0   0   0   0   0   0   0   0   0   0   0   0
  15   2   0   0   0   0   0   0   1   0  23  38  43  44  39  33  41  35  29  42  69  79  66  61  25  51  73  47  91  56  60  54  55  50  48  47  46  43  35  37  43  42  52  63  74  76  67  82  95 105 100  88  81  52  51  44  14  34  68  77  72  48  46  40  27  23  10  26  52  83  99  77  71  35   1   1   1   1   1   0   0   0   0   0   0   0   0   0   0   0   0   0
  16   2   0   0   0   0   0   0   0  20  30  32  47  40  32  42  45  33  24  39  68  76  48  41  18  43  59  83  85  57  44  48  43  41  39  37  36  31  27  24  26  23  24  37  51  64  83  80  86  78  83  99  95  69  39  38  27  16  47  58  66  54  42  42  34  29  13  10  25  22  54  69  72  63  40   3   3   1   2   1   0   0   0   0   0   0   0   0   0   0   0   0
  15   2   0   0   0   1   0   0   9  29  16  33  40  30  36  43  28  23  41  34  48  56  49  34  25  43  50  75  61  53  50  50  58  57  54  54  60  55  47  39  30  26  22  21  32  34  51  65  69  61  62  62  66  80  73  64  49  19  16  59  60  53  46  41  41  33  27  13  21  23  17  33  52  53  73  24   2   2   1   0   0   0   0   0   0   0   0   0   0   0   0   0
  16   2   0   0   0   0   0   1  24  20  22  36  26  25  42  15  17  63  55  25  40  49  39  34  43  50  59  57  49  46  47  50  56  52  50  51  62  70  64  49  64  71  55  42  49  64  53  58  58  64  55  48  43  49  66  73  65  51  16  16  45  43  51  40  51  44  34  28  16  23  15  14  34  46  42  65  14   3   1   0   0   1   0   0   0   0   0   0   0   0   0   0
  17   1   0   0   0   0   1  16  23  14  39  37  22  35  22  10  59  70  70  52  38  49  43  47  48  49  45  44  51  50  47  48  42  41  43  38  36  37  48  62  79  84  71  66  48  27  38  43  49  59  59  52  40  46  52  51  62  73  82  47  29  38  44  47  42  32  35  44  28  23  15  14  18  38  35  47  46  21   3   1   1   0   0   0   0   0   0   0   0   0   0   0
  16   2   0   0   0   1   1  25  26  36  33  23  31  25   9  48  68  74  64  60  48  41  50  52  54  54  44  43  62  46  39  38  41  42  41  48  46  37  50  60  74  68  79  84  70  48  42  22  11  17  19  22  25  25  33  37  39  48  65  64  60  55  58  55  39  24  17  43  37  32  12  18  29  19  32  35  36  49  35   4   1   1   0   0   0   0   0   0   2   1   1   1
  17   2   0   0   0   0  10  48  32  42  28  26  32  17  22  70  37  55  36  39  31  37  51  38  40  48  48  46  51  46  47  49  46  42  48  54  49  41  39  33  33  33  44  58  61  58  67  59  58  41  55  36  19  22  22  22  19  17  28  40  41  53  65  78  74  69  37  33  55  38  27  24  22  17  21  44  33  36  47  37   7   0   1   0   0   1  12  21  28  30  31  33
  17   2   0   0   0   6  30  31  28  38  31  29  21  14  38  47  30  38  27  26  23  42  44  44  38  35  41  45  48  52  50  50  47  44  41  38  38  33  38  35  30  34  37  42  42  42  40  50  54  36  30  24  33  33  39  33  27  25  28  28  20  23  36  69 101 107  98  81  71  49  39  27  20  19  38  41  35  28  35  52  25   2   0   0   0   3  31  49  51  53  55  57
  18   4   0   0   4  24  28  15  36  36  33  22  13  20  37  25  34  37  29  28  36  37  42  48  42  36  37  45  47  43  40  45  41  40  36  33  37  35  34  30  30  31  28  31  25  26  25  23  17  27  32  34  36  38  43  33  36  31  37  34  36  29  28  33  48  64  81  88  87  87  77  61  38  26  35  23  35  44  38  59  46  10   0   0   0   6  37  52  53  56  60  60
  19   3   0   0  18  30  23  16  35  38  28  16   9  17  32  18  23  43  37  34  39  41  41  41  51  50  38  39  40  36  30  31  38  39  35  34  28  30  25  31  31  28  31  35  40  33  39  54  60  59  53  56  57  49  37  31  28  21  19  23  28  28  29  25  33  41  46  59  73  84  79  71  52  25  34  49  60  50  22  43  42  21   0   0   0   5  36  50  52  56  59  60
  17   2   0   6  27  31  19  14  24  32  15  18  14  19  32  21  21  35  38  44  45  51  54  61  65  54  49  51  43  35  31  28  34  37  37  32  35  37  28  33  28  25  32  25  29  34  39  54  58  51  44  52  51  44  29  24  17  18  21  19  16  18  23  26  26  29  45  57  61  68  71  71  74  99  98 109  82  35   8  30  48  28   3   0   0   5  35  50  52  56  59  59
  17   2   0  22  37  30  17  22  20  23  10  27  17  17  30  23  19  37  39  48  64  61  53  66  77  64  70  75  60  50  49  47  44  44  43  38  40  38  32  33  31  27  32  34  33  35  30  26  25  19  23  32  25  23  23  25  24  27  22  21  19  22  27  24  20  17  21  45  64  52  52  49  52  67  64  77  54  14   8  32  46  29  10   1   1   6  35  52  54  56  59  58
  19   3   5  35  37  23  31  28  26  19  16  24  24  22  32  36  23  41  42  59  70  62  65  68  79  92  91  98  72  61  68  71  64  58  54  54  52  49  40  37  40  36  32  29  34  34  31  28  26  24  21  21  21  22  21  22  27  32  24  24  24  19  23  23  13  13  14  31  61  61  50  60  59  48  51  45  40  23  17  24  28  33  10   2   0   7  34  50  52  56  59  58
  20   8  14  39  32  27  35  29  30  22  28  22  30  33  33  42  26  40  50  63  61  80  76  76  85 103 112 108  77  69  87  89  92  72  71  75  75  71  58  45  49  41  43  41  35  29  29  31  32  32  31  29  32  30  25  26  21  23  23  27  31  18  18  18  15  16  18  27  40  48  57  72  86  78  45  38  32  20  24  12  16  25  15   5   0   6  36  50  51  54  58  59
  20   9  28  44  27  36  31  32  31  34  35  32  35  38  36  43  31  41  56  54  55  85  77  77  95 110 116 110  99  73  84 102 106  79  82  93  96  90  81  64  58  59  54  55  57  46  43  43  42  43  45  39  32  34  35  34  30  22  21  23  26  19  14  12  11   8  10  16  22  33  48  61  61  35  19  37  34  16  22  16   9  17  25  11   5   6  37  51  51  56  59  59
  19   6  37  39  37  46  29  33  35  46  41  42  47  33  35  38  40  51  58  52  66  89  77  77 108 115 111 110 113  84  67 111 112  90  87 104 113 109 107  92  75  71  69  64  64  60  52  57  64  59  53  52  47  42  36  36  36  34  29  25  24  21  12   7   3   2   7  17  24  51  43  17  30  28  24  36  40  19  22  17   9  12  28  23   4  11  37  51  53  56  58  59
  23  30  55  38  46  44  29  40  47  60  54  55  46  12  27  34  42  60  58  55  69  90  92  91 114 128 119 119 119 111  62 107 121 110  96 113 126 117 118 116  96  94  90  93  88  82  72  64  65  66  67  66  58  53  45  41  33  27  24  19  21  24  17  12  12   8   8   7  11  23  19  27  41  40  38  32  36  21  16  13  12  15  19  38   6   8  38  51  54  57  58  58
  39  35  52  40  52  40  40  49  63  70  57  60  24  12  21  36  50  55  56  58  81 104 109  96 114 136 132 130 128 130  90  78 132 119 105 108 137 130 125 125 109 112 113 109 114 115 104  93  79  83  86  75  70  68  59  59  51  31  27  26  26  46  49  51  62  52  32  26  33  36  37  53  68  62  49  31  33  16   9  12  14  19  21  30  27  11  36  49  54  56  56  58
  28  44  53  42  52  43  56  58  65  74  64  46  24  22  17  38  54  54  61  67  86  99 111  99 115 143 151 127 129 131 128  69 101 134 114 103 126 137 132 128 122 118 133 117 115 115 114 113 102 103 102  98  96  91  85  78  74  61  52  40  34  46  80 102  99  86  65  91 100  86  89  89  96  87  61  38  30  18  10  11  11  16  23  23  37  26  36  51  53  55  57  57
  17  60  50  41  55  48  63  61  55  69  70  51  41  27  24  41  51  59  74  79  84 103 110 105 114 146 156 135 123 126 139 117  59 114 129 114 113 130 141 133 128 120 127 129 120 121 114 117 114 114 114 109 103 101  91  87  82  80  81  86  79  45  36  62  60  52  81 119 115 117 118 114 115 103  68  51  39  34  19  17  13  14  26  39  40  37  38  52  53  55  58  58
  33  59  43  43  59  57  65  55  45  65  65  53  45  34  28  43  58  64  90  96 110 128 123 127 127 139 157 153 123 132 125 146 102  65 121 122 118 118 135 137 136 133 121 130 134 131 122 119 122 123 111 117 120 114 105 107 114 123 124 122 115 105  92  85  92 108 123 124 128 128 126 123 117 108  77  62  51  35  33  25  21  28  25  24  39  38  39  52  54  56  59  60
  46  51  40  49  57  51  59  49  35  56  55  33  32  33  31  44  56  68 117 125 135 142 136 143 133 129 155 162 126 130 129 133 144 105  88 104 117 128 119 126 137 144 147 132 126 135 141 138 126 105 117 124 123 117 113 122 135 139 143 142 138 135 133 130 132 136 139 138 130 126 125 123 117 103  79  77  65  43  32  22  23  25  23  15  25  31  38  53  54  57  59  59
  46  46  39  53  46  41  45  41  28  54  47  32  27  28  32  49  49  66 123 134 147 147 144 144 139 126 153 159 134 127 149 127 135 139 119  81  78 109 122 123 135 140 149 154 141 134 133 136 136 142 148 141 135 135 138 144 148 148 147 145 145 144 141 140 139 135 134 134 128 127 125 123 121 112  97  91  75  51  31  22  18  14  23  26  22  27  37  52  52  56  58  59
  47  44  37  52  33  35  38  32  29  56  40  35  28  28  37  60  60  66 125 134 143 146 147 146 137 122 155 156 138 133 155 144 129 130 134 127 107  84  88 108 118 116 122 133 146 148 141 139 149 156 154 153 155 157 156 150 149 153 153 151 149 150 144 143 145 141 140 135 130 126 123 123 122 118 110  98  87  59  39  26  15   9  16  21  22  20  36  53  53  55  58  61
  45  40  37  41  29  32  36  23  19  45  42  39  33  34  42  65  81  74 111 134 139 143 142 148 139 119 150 154 139 142 151 149 148 136 132 135 141 130 118 102 104 107 105 109 115 118 127 131 139 146 156 159 156 152 153 152 151 153 155 154 152 152 151 150 147 144 142 136 130 127 122 122 120 117 114 106  96  70  41  29  17   7   6  14  16  16  38  53  53  55  58  61
  39  38  36  31  25  29  26  15  17  40  45  37  38  39  45  65  84  92  87 116 132 138 135 146 143 119 147 145 138 145 147 147 151 152 147 144 140 134 143 136 130 134 136 130 126 119 115 128 138 150 155 156 156 153 147 153 153 154 154 153 151 152 150 150 148 144 142 136 131 125 121 120 121 117 115 112 104  84  41  25  13   7   4   8  12  15  38  54  54  55  58  61
  37  31  30  27  19  23  23  15  23  49  37  35  41  36  40  64  81 102 113 100 105 123 127 142 141 112 146 145 147 146 148 152 150 150 151 153 151 141 145 151 147 149 152 147 150 152 152 152 154 158 159 156 154 154 150 152 153 154 156 155 154 153 148 148 148 140 140 139 134 123 121 118 116 114 113 112 107  97  45  18   9   5   4   4  13  14  38  54  54  55  58  59
  35  32  30  24  19  24  15  16  36  44  34  41  44  38  47  66  83  99 110 129 124 130 133 131 128 123 151 146 148 152 153 151 150 154 155 157 154 146 145 158 152 152 159 158 158 158 160 159 160 160 161 162 160 160 156 154 155 156 157 160 159 152 146 147 146 134 133 135 130 116 115 113 111 113 113 112 109 105  62  15   7   3   0   3  11  13  37  53  53  55  57  59
  29  33  35  20  18  25  12  17  36  38  42  48  41  42  51  69  86 100 102 122 132 134 136 135 119 132 148 147 146 151 150 152 152 152 154 155 155 157 154 160 158 157 160 160 160 161 160 161 161 160 161 161 162 161 160 160 158 154 156 159 151 143 141 141 143 135 131 128 113  99  89 100 104 110 112 111 111 108  81  19   4   3   1   3   8  10  38  54  55  56  57  59
  25  23  35  19  19  25  17  17  37  41  52  53  41  44  50  67  84  99 106 122 134 139 140 138 129 139 144 145 146 148 154 155 154 154 155 157 158 159 157 152 162 160 158 159 159 159 159 160 161 160 161 161 161 161 159 155 155 153 147 151 146 134 133 135 127 118 105  88  82  73  55  66  81  91 106 110 107 109  96  26   2   1   1   2   9  11  37  53  55  56  57  59
  29  15  35  23  20  22  17  20  37  40  59  58  44  46  51  59  77  92 106 124 136 137 143 141 142 145 143 145 148 150 156 156 157 154 156 158 157 156 153 146 159 158 158 157 157 158 156 158 159 159 161 161 161 159 155 151 148 148 139 138 141 133 126 115  93  71  64  55  55  55  50  50  50  51  79 106 107 109 105  38   2   1   1   1  11  19  35  55  54  55  57  59
  29  10  38  25  16  20  18  21  40  33  51  62  51  54  46  60  73  83 103 122 139 141 140 143 146 146 145 147 151 154 160 163 161 157 157 150 150 155 158 150 146 154 156 149 151 156 155 156 157 155 156 156 154 152 146 143 137 133 132 129 122 113  95  69  46  33  37  41  47  51  51  45  46  40  42  93 110 106 107  46   2   1   2   3   8  22  39  51  53  56  57  59
  27   8  31  19  13  16  14  18  32  27  40  53  49  50  43  59  65  84 106 120 145 145 142 142 143 145 148 148 150 156 161 159 153 149 147 145 143 142 143 144 143 146 143 141 138 146 147 149 149 149 151 150 146 143 135 131 124 123 118 107  88  66  39  24  20  18  24  34  38  41  44  50  58  47  42  75 109 114 114  51   1   2   1   5   7  19  40  51  53  56  56  59
  23   7  21  17  12  15  12  20  21  25  32  36  42  36  42  50  61  80 105 121 136 142 142 142 143 144 146 145 150 156 153 141 141 133 127 126 124 120 126 130 129 123 118 121 119 128 139 138 138 140 142 145 141 134 128 122 116 113  95  67  40  21  17  28  26  15  14  22  31  39  27  24  21  24  36  51  75  76  75  55  15   3   3   8   5  18  40  54  54  55  56  60
  21   5  12  11   9  12  14  16  19  19  23  21  30  24  34  42  57  77 102 127 132 136 139 140 140 141 142 141 150 149 115  96  93  90  85  79  75  71  66  54  51  60  66  82 100 107 119 126 130 131 135 133 132 130 125 121 108  97  65  36  34  15  14  44  48  52  66  77  85  85  80  72  53  24   6   8  19  43  18  27  30   4   5   4   5  16  40  53  54  55  58  59
  24   4   1   9   8   9  11  15  14  14  16  12  16  16  22  37  55  76 105 131 135 139 138 138 139 141 141 143 145 109  71  57  60  56  47  41  34  25  20  15  13  19  35  48  72  89 105 113 119 119 125 130 127 126 122 112 101  73  42  15  55  31  45  57  61  66  65  66  71  74  80  91 102  91  52   8  83 111  24   2  21   5   5   3   6  13  40  54  56  56  57  58
  24   5   0   7   7   6  12  18  10  10  11  11   7  10  17  35  53  85 114 132 137 141 140 139 139 138 136 139 105  70  69  62  59  45  33  29  18  15  24  20  19  21  32  44  60  75  93 101 104 112 125 125 118 114 105  79  65  58  27  11  33  54  65  42  39  31  26  25  27  27  37  54  70  87  96  46  14   7   4  35  22   5  11  12   9  12  40  55  53  54  56  57
  24   5   0   5   6   3  16  16   9  10   6   5   9   9  17  31  54  97 124 135 138 143 142 141 139 135 132  95  61  63  53  44  41  34  28  25  32  83  31  20  17  42  14  23  36  51  67  79  92  95  82  79  78  43  27  18  13  20  24  42  44  45  42  33  44  47  25  10  10  15  27  30  47  62  69  72  21   4  35  94  58  32  50  40  13  12  35  46  43  43  45  46
  25   5   0   3   4   5  15  13   4   7   5   4   7   8  17  31  64 106 127 139 136 137 142 142 138 132 106  65  54  57  59  47  25  17  28  41  62  83  56  55  50  50  38  24  13  13  22  49  55  22   8  13  21   9   9   6   3   2  16  43  49  48  51  71  81  60  43   2  16  29  27  43  42  37  44  52  41   8  68 110  82  50  76  62  39   9  18  26  25  25  27  28
  25   5   0   0   4  10  10   9   3   6   3   3   5   6  16  34  79 114 131 139 137 137 140 140 140 126  85  73  64  54  36  46  45  58  72  74  69  60  58  55  51  49  56  61  58  39  11   4   4   4   7  10  14  17  17  24   7   3  40  70  67  60  84 107 112  30   3   6  33  80  64  50  59  37  31  60  65   8  75 116  93  41  64  57  60   9  11  21  22  22  23  22
  25   5   0   0   3  11   7   7   6   4   1   2   4   6  15  42  87 118 137 146 146 149 145 143 137 110  69  57  31  11  37  93  78  69  62  57  48  36  27  17  21  19  30  42  57  67  53  13   5  12  31  53  78  78  64  46   8  17  91  84  61  72  97 110 120  69  24  33  65  88  74  70  70  70  67  83  73  10  81 115 100  39  27  34  65   9  12  23  23  22  22  22
  25   6   0   0   1   7   8   4   4   2   1   2   4   8  22  40  75 117 130 126 110 103  97  73  58  47  22  53  35   8  67  72  61  53  44  38  38  56  59  34   9  11  25  29  43  50  60  46  10  17  68 111 141 143 116  57   5  39 111  95  93  90 103 114 111 104  89  86  84  77  82  85  90 105 107  93  78  18  97 115 104  35  27  66  83   7  12  23  23  23  23  22
  25   6   0   0   0   3   7   4   2   2   1   3   5  13  14  20  26  35  39  33  26  25  27  34  23   5  31 120  77  29  69  53  45  37  25  41  85 109  58  45   6  17  38  36  57  67  57  52  27  10  73 126 156 159 141  76   9  47 121 114 115 119 116 119 112 108 107  94  86  92  94 102 118 117 119 109  77  36 117 108 103  44  72  91  90   6  14  23  23  24  23  22
  24   5   0   0   0   5  13   8   3   2   4   6   3   6   5   3   3   7   7   9  20  26  34  35  29  18  19   8   9  56  57  44  40  26  42  85 120 117  35   6  16  31  66  69  74  94  85  78  53   6  60 123 151 152 156 107  14  36 121 116 114 114 113 113 114 116 119 111 104 105 117 126 128 124 122 124  59  55 121 106 102  52  94 102  83   2  17  23  24  24  22  22
  25   5   0   0   0   3  14   9   5   3   7   7   3   9   7   2   3   8  20  28  41  57  72  74  79  79  47   9  15  52  56  55  48  60  85 101 106 114  69  42  49  68  82  96 115 118 106 102  72   4  52 124 152 153 155 141  45  14 117 125 122 118 118 116 120 124 126 124 115 114 136 140 133 131 125 129  39  88 116 105  98  68 108 119  68   0  15  26  25  25  24  23
  25   5   0   0   0   0   4   7   5   8   8   3   2  10  13  14  12  28  58  61  56  50  57  70  61  45  38  11  14  50  55  68  76  87 100  99  99 105 117 110 109 104  99 115 125 117 105 122  89   8  54 133 153 155 152 154  97   8  95 133 127 131 127 122 123 128 132 134 128 119 133 145 136 134 130 102  36 118 112 105  93  81 115 124  46   0  19  27  25  25  26  23
  25   5   0   0   0   0   1  11  56  63  30  19  14  14  15  24  41  85 121 125 117 110  96  85  65  39  30  19  18  53  59  75  88  92  90  89  89 104 120 102 104 107 112 119 123 116 120 134 102  16  78 137 145 154 157 154 134  35  43 134 130 132 130 129 130 134 137 140 140 127 124 147 140 132 136  60  71 124 109 102  94  92 119 114  30   0  17  30  27  27  28  25
  24   4   0   0   0   0   7  96 149 139  75  47  43  16  14  29  52  97 135 142 141 133 127 120 110  95  83  71  22  74  86  88  94  93  92  91  97 109 115 115 118 122 128 129 126 128 132 142  99  24 107 140 139 150 156 154 142 101  12  94 141 133 135 134 136 140 143 143 144 137 122 142 140 141  79  40 116 121 109 101  93  99 122 106  24   0  17  30  29  28  28  27
  25   5   0   0   0   0  62 146 135 139 129  69  28  23  24  31  48  89 131 143 146 136 126 124 125 123 120 130  48  70 133 118 114 108 107 106 110 122 127 128 130 130 132 134 133 137 138 153  76  34 126 142 136 143 154 158 144 130  72  19 109 141 135 136 139 143 146 145 147 142 125 137 138  92  35  93 122 117 109 100  90 102 126 106  17   0  19  30  29  29  27  27
  25   5   0   0   0   1 104 129  86  71  82  81  41  33  36  30  46  78 122 139 140 136 135 133 132 134 130 148 112  30 139 148 142 132 125 121 125 132 133 133 135 135 137 140 143 148 147 147  33  68 144 140 133 140 151 158 153 130 126  51  21  97 140 143 145 147 149 147 151 149 134 124  91  36  85 115 121 115 109  99  91 105 129 107  15   0  20  30  30  30  28  26
  25   4   0   0   0   5 112  98  30  33  58  60  53  55  44  26  40  68 112 133 133 132 134 139 144 144 136 144 164  59  86 160 150 148 136 127 132 138 137 134 133 133 139 140 144 147 150 106  27 114 149 137 132 141 155 157 152 138 121 109  47  27  65 125 140 150 151 153 146 130  86  42  74  94 116 123 118 111 105  98  94 108 127 112  20   0  17  28  29  28  27  26
  26   5   0   0   0   6 108  72  41  99 147 114  93  81  63  25  34  57 107 127 128 130 131 136 140 145 143 138 159 142  42 134 166 150 139 132 142 146 145 141 140 140 140 139 139 142 136  39  78 144 144 133 132 145 156 158 156 145 123 119  89  65  58  61  56  67  76  69  64  50  60  87 105 120 127 123 113 108 102  95  93 114 124 110  26   0  18  29  29  28  28  27
  26   5   1   0   0   0 102 111  82 128 161 138 136 111  75  39  28  46  92 122 126 128 131 134 139 143 148 138 142 165 111  57 139 163 143 135 146 147 147 150 151 152 144 140 144 130  60  60 121 136 132 128 132 152 159 159 159 150 131 118 111  87  83  73  70  66  69  71  72  74 106 122 129 127 124 118 112 106  99  91  99 123 118 104  23   0  17  30  31  30  29  29
  25   6   0   0   0   0  83 133  93 133 171 156 140  81  46  56  27  45  74 116 124 123 126 131 135 139 144 143 133 143 160  97  49 132 151 144 151 153 153 155 157 160 158 145 101  44  49  96 120 131 127 128 132 153 158 159 159 154 135 115 120 110 102 103 100 100  98  99 109 125 135 135 130 122 123 116 110 106  99  90 109 122 112  99  11   1  23  33  33  32  32  31
  25   5   0   0   0   0  45 143 102 133 152 125  89  50  27  51  37  33  66 112 118 118 123 128 131 134 142 145 139 126 135 147 114  66  68 113 146 157 160 160 159 151 125  84  45  69 103 109 126 139 136 133 138 152 157 159 161 157 140 118 117 121 106 107 114 125 130 137 142 141 139 133 128 122 119 115 109 103  99  89 111 123 123  79   1   1  24  34  33  33  34  33
  26   7   0   0   0   0  16 137 110 125 138 112  96  75  51  53  75  34  45 104 117 117 122 126 130 128 135 141 139 135 125 122 136 134 106  76  72  90  78  78 116  93  65  64  94 108 107 124 135 150 143 141 150 154 155 159 158 152 141 123 113 115 109 110 112 121 128 135 137 137 135 129 126 121 114 112 110 103  97  88 115 128 122  37   0   3  26  35  33  33  34  33
  26   7   0   0   0   0   3 118 122 125 140 119 107  89  68  89 116 102  44  88 118 116 119 122 124 126 130 133 136 137 136 131 128 128 136 131 106  87  78  75  77  81  92 109 115 107 104 121 135 143 136 136 143 140 142 146 151 141 132 117 104  99 112 121 113 113 118 126 132 132 130 127 124 120 112 111 110 102  94  89 119 122  83   5   0   3  25  35  33  33  34  33
  22   6   0   0   0   0   1  95 133 128 143 121 112  99  94 111 113 145 107  89 115 115 117 120 122 122 126 128 131 131 135 139 140 140 135 134 127 115 110 113 121 130 127 117 111 109  99 103 121 126 119 115 121 121 125 128 132 125 119 107  80  86 122 123 118 112 114 118 122 125 126 124 122 118 111 110 110 103  93  90 121 102  22   0   0   3  25  35  33  33  34  34
  14   6   0   0   0   0   0  59 137 124 146 119 110 107 112 123 118 133 141 120 108 112 113 117 120 118 123 126 127 128 131 136 137 139 142 146 145 142 142 145 144 135 124 113 111 116 111  86  94 100  84  75  92 107 113 112 107 103 100  86  72 110 127 127 125 118 110 115 119 120 123 121 118 117 114 110 108 101  95  87  90  43   0   0   0   3  25  35  34  34  34  34
   8   4   3   2   2   1   2  22 133 124 148 120 101 105 122 129 126 122 140 126 111 112 109 113 117 117 119 123 125 127 131 134 133 134 135 137 133 132 136 139 138 124 114 107 108 114 120 104  77  62  31  21  33  61  88  87  73  72  72  81 115 123 124 135 133 126 121 117 115 116 119 118 117 114 110 107 105  98  97  55  10   1   0   0   0   2  23  35  35  35  34  34
   2   1   1   1   1   0   2   1  91 143 136 135 108  97 116 132 128 105 128 129 114 108 105 110 114 116 117 121 122 126 130 127 128 129 128 127 129 131 132 133 126 115 104 108 117 119 121 119 108  92  77  71  57  47  57  71  59  56  63  97 122 116 119 131 132 128 128 124 121 116 118 118 117 113 110 110 103  97  96  29   0   1   0   0   0   3  24  35  36  36  35  34
   0   0   0   0   0   0   0   0  30 145 129 132 136 119 132 148 134 106 110 121 115 108 105 107 107 112 117 117 119 121 124 120 122 123 118 123 129 128 124 123 112 106 103 114 125 126 130 125 118 116 116 117  92  62  47  51  46  42  76 107 111 115 116 124 127 127 125 125 126 120 117 116 115 113 110 108 102  97  89  14   0   0   0   0   0   1  20  31  30  30  29  28
   0   0   0   0   0   0   0   1   2  95 145 122 122 130 146 158 147 143 143 114 110 113 107 104 105 110 115 116 117 114 121 122 121 118 118 122 125 125 118 109 107 107 110 123 131 129 131 129 121 121 124 128 119  93  62  46  46  73 108 114 118 120 118 120 122 125 122 121 125 122 118 114 115 112 109 100 101  99  74   5   0   0   0   0   0   1   8  17  16  16  15  14
   0   0   0   0   0   0   0   1   0  23 121 145 134 139 146 148 149 148 146 124 108 113 107 103 105 109 113 116 114 112 119 122 124 117 116 120 123 122 114 111 112 111 120 127 132 134 129 126 126 129 134 134 134 120 115 106 116 130 121 121 126 127 124 120 119 121 122 116 118 118 118 114 113 112 108  97 100  98  57   0   1   1   0   1   0   0   1   3   4   4   3   3
   0   1   0   0   0   0   0   1   2   1  45 129 150 151 150 148 143 135 134 145 121 110 110 104 104 107 110 113 113 110 117 119 119 119 117 117 120 119 114 113 114 115 118 122 126 130 128 130 140 140 136 126 116 110 126 137 133 118 103  99  93 100 102 110 114 115 120 113 112 114 118 117 112 108 106 101  99  92  38   0   1   1   0   0   0   1   1   0   0   0   0   0
   0   0   0   0   0   0   0   0   0   0   1  51 118 145 151 150 138 134 142 157 132  99 108 103 104 106 108 112 113 112 116 114 115 116 118 118 118 119 115 111 114 116 116 119 122 127 126 137 141 124  99  86  79  75  80  89  84  67  63  62  64  65  67  79  96 101 107 113 113 113 118 117 113 107 106 103  94  83  17   0   2   0   0   0   0   0   0   0   0   0   0   0
   0   0   0   0   0   0   0   0   0   0   1   1  24  86 131 137 134 132 137 139 125  71  86 105 103 105 107 110 108 112 116 116 115 109 114 117 117 120 118 115 115 113 114 117 121 126 140 131 101  79  66  58  62  59  52  52  47  42  42  39  41  34  34  42  55  65  86 110 114 114 118 118 114 107 103  99  90  65   3   0   0   0   0   0   0   0   0   0   0   0   0   0
   1   0   0   0   0   0   0   0   0   0   1   0   0   8  51  88  99 110 112 106  83  32  58 103 105 108 107 110 110 111 116 119 116 111 115 116 116 119 117 118 116 114 114 114 117 122 122  87  56  44  44  43  48  53  52  49  56  69  64  62  53  19  16  17  24  42  84 105 113 113 118 117 111 105 102  97  89  46   0   0   0   0   0   0   0   0   0   0   0   0   0   0
   5   2   0   0   0   0   0   0   0   0   0   0   3   4   4  10  24  45  54  50  35   5  41  86 105 106 108 109 110 112 113 112 114 115 118 118 119 122 116 119 118 114 110 111 101  96  72  45  35  41  62  96  92 105 110 104 115 122  94  67  51  29  30  43  60  96 107 111 111 116 119 115 106 104 100  93  84  30  10  11   4   0   0   0   0   0   0   0   0   0   1   0
  12   3   0   0   0   0   0   0   0   0   0   1   3   3   4   3   5  11  23  23  28  16  35  70  96 105 108 110 108 112 112 110 111 116 119 118 118 120 121 122 118 116 111 100  74  47  23  19  42  51  75  86  82 103  99  88  78  81  72  66  75  82  88  84  97 114 122 120 116 118 117 111 105 102  96  87  72  38  36  39  17   0   0   0   0   0   0   0   1   0   0   0
  17   4   0   0   0   0   0   0   0   0   0   0   2   4   4   4   5  12  24  27  27  24  36  79  81 103 104 107 107 106 112 110 112 116 118 117 117 120 122 125 121 117 110  99  73  48  39  49  79  76  82  86  86  86  82  82  84  90 105 106 105  97  97  95 103 117 127 123 122 120 115 109 103  99  91  83  59  42  45  47  24   0   0   0   0   0   0   0   0   0   0   0
  17   4   0   0   0   0   0   0   0   0   0   1   2   4   4   4   5  11  23  26  25  24  30  97  89  92 103 104 110 109 111 111 115 115 118 118 119 120 123 127 126 122 115 112 114 112 100 103 112 114 113 116 116 115 111 115 121 118 116 107  90  89  90  94 111 128 129 127 124 122 117 108  99  94  87  75  46  43  44  46  23   0   0   0   0   0   0   0   0   0   0   0
  17   4   0   0   0   0   0   0   0   0   0   0   2   4   5   6   6  11  22  27  26  25  25 101 115  92  98 103 107 109 110 110 113 112 116 120 121 122 123 125 124 121 120 123 127 123 117 117 114 114 112 108 113 119 119 115 111 106  99  90  88  88  89 101 119 127 129 128 127 122 113 105 100  93  85  63  42  44  43  45  22   0   0   0   0   0   0   0   1   1   1   2
  17   4   0   0   0   0   0   0   0   0   0   0   2   4   5   5   6  11  21  27  26  26  22  95 126 104  95 100 103 108 110 110 113 112 117 119 120 122 122 124 123 118 122 132 138 132 118 113 106 106 104 101  99  94  91  86  83  81  76  77  83  90  99 116 126 126 125 125 126 119 111 103  99  91  81  50  42  46  44  45  22   0   0   0   0   1  14  25  24  14  16  30
  18   4   0   0   0   0   0   0   0   0   0   1   2   3   3   5   6  10  21  27  26  25  18  83 128 116 103  97 101 106 110 109 115 116 117 118 118 118 120 121 121 125 130 135 139 139 132 121 112 105 101  97  88  81  74  69  72  67  66  77  89 101 116 127 126 124 124 122 120 116 110  99  93  89  64  42  44  45  44  45  24   0   0   0   0   4  39  53  37  31  47  58
  18   4   0   0   0   0   0   0   0   1   0   1   3   3   2   4   6  12  21  27  26  26  20  65 127 121 114 102  98 101 103 104 111 111 113 116 115 114 118 119 121 131 135 137 135 134 140 133 127 118 108 100  92  82  74  73  72  74  86  96 108 120 130 127 125 126 124 120 117 114 107  95  91  80  41  33  41  45  46  45  22   0   0   1   0   5  37  43  35  45  59  62
  18   4   0   0   0   0   0   0   0   0   0   1   3   3   3   3   5  11  22  27  26  27  20  46 127 125 116 110  98  94  96 103 107 108 109 112 112 112 116 119 121 128 130 133 132 132 136 134 132 128 121 112 105  99 100  98  93  98 108 115 122 128 131 128 129 129 124 119 118 113 103  93  85  67  34  26  29  37  44  46  22   0   1   0   0   1  23  35  46  54  61  62
  16   3   0   0   0   0   0   0   0   0   0   1   3   3   3   4   6  11  21  28  27  25  21  33 125 132 120 115 106  97  94  98 102 104 106 109 111 111 115 118 122 124 128 128 128 129 130 130 130 129 125 122 119 119 119 119 117 124 130 134 136 136 139 135 135 133 125 122 118 111  98  88  76  62  41  34  31  28  31  35  16   0   0   0   0   2  26  47  58  59  62  63
  18   5   1   0   0   0   0   0   0   0   0   1   3   3   3   4   5  10  21  28  27  26  25  24 106 140 127 119 116 104  96  98 100 100 103 106 108 107 111 116 120 123 125 125 126 125 125 126 126 128 129 125 129 137 138 142 140 144 149 151 148 147 143 142 142 135 127 122 116 105  94  81  68  64  45  43  43  38  33  30  11   0   0   0   0   6  37  57  58  60  62  63
  16   4   0   0   0   0   0   0   1   0   0   2   3   4   4   4   5  11  21  26  26  25  27  20  83 137 135 125 118 109  99  93  93  97 100 103 104 105 108 111 116 119 123 125 125 129 132 133 130 129 132 134 140 150 154 155 155 155 153 150 147 148 144 142 139 133 125 117 110 101  87  68  72  69  41  42  44  45  44  40  17   1   0   0   0   6  41  57  57  60  62  63
  16   4   0   0   0   0   0   0   0   0   0   2   4   5   5   5   5  11  22  25  26  25  24  19  60 134 137 135 121 113 106  95  90  99  99 100 101 104 107 109 113 117 120 125 132 131 134 141 140 142 146 151 153 155 154 154 153 153 152 148 145 145 140 142 141 131 119 111 103  86  72  64  84  74  40  44  45  46  46  47  21   0   0   0   0   6  42  56  56  58  61  62
  16   4   0   0   0   0   0   0   0   0   1   3   4   5   5   5   6  12  22  26  27  26  27  24  44 126 137 136 132 125 114 103  97  94  94  96  98 101 106 108 110 113 117 122 130 135 139 147 149 151 155 152 151 153 154 154 151 150 150 145 142 141 137 137 135 122 113 103  96  75  64  73  94  73  39  46  46  47  46  44  20   0   0   0   0   6  42  56  56  59  61  61
  17   4   0   0   0   0   0   0   0   0   1   3   4   5   5   5   6  11  21  26  27  27  28  26  31 117 138 137 135 132 121 110 104  96  91  90  91  96 102 106 107 108 113 117 123 131 138 147 150 151 150 150 149 153 151 147 144 141 139 141 138 136 134 130 124 114 106  99  85  63  68  88 104  72  41  45  46  45  47  46  22   1   0   0   0   6  41  56  57  58  60  61
  17   4   0   0   0   0   0   0   0   0   1   3   5   6   5   5   6  12  23  27  28  28  30  29  23  98 140 136 135 133 127 119 110 102  95  90  87  88  94  98 101 105 109 113 111 116 126 136 143 141 145 149 144 146 148 138 136 135 134 137 134 129 127 123 114 106  98  86  66  64  81 102 106  70  42  46  48  48  49  49  24   1   0   0   0   6  41  57  58  59  61  62
  17   4   0   0   0   0   0   0   0   0   1   3   5   6   6   6   6  11  22  28  29  30  29  29  20  77 142 138 135 131 128 122 114 106 102  98  88  85  86  92  97  98  99 105 106 106 114 123 131 130 133 138 136 136 139 134 130 130 130 127 125 122 118 116 107  98  85  64  61  74  95 107 105  68  44  49  52  52  52  52  26   0   0   0   0   7  42  58  59  60  62  64
  17   4   0   0   0   0   0   0   0   0   1   3   5   6   6   6   6  11  21  28  28  28  29  28  23  61 141 139 135 130 128 123 115 109 106 105  96  89  84  83  85  85  86  89  99 103 108 112 112 114 116 119 122 125 123 125 125 122 122 119 112 110 103 102  95  83  66  58  72  88 110 104 103  71  49  53  54  55  56  57  28   0   0   0   0   8  44  61  60  61  63  64
  17   4   0   0   0   0   0   0   0   0   1   3   5   6   6   5   6  13  22  28  27  29  29  29  25  46 136 139 134 129 127 122 115 111 105 104  99  93  85  80  79  80  80  79  86  89  94  99 101 103 107 106 108 110 111 116 118 119 119 112 104  94  82  82  73  59  53  70  78 103 112 106 103  71  54  57  57  58  59  59  31   0   0   0   0   9  46  63  62  62  64  65
  17   4   0   0   0   0   0   0   0   0   0   3   5   6   5   4   7  13  24  27  29  29  28  30  28  35 120 137 134 128 123 118 116 112 108 102  96  92  86  82  78  75  75  72  70  73  76  78  84  87  92  93  90  88  96 100 103 107 103  92  87  75  65  58  48  52  65  75  90 112 112 109 106  62  48  60  57  57  59  59  32   1   0   0   1   9  47  63  63  62  63  65
  17   3   0   0   0   0   0   0   0   0   0   3   5   6   5   4   7  13  25  28  28  29  29  28  33  39 112 135 135 131 125 119 116 112 109 103  98  92  87  78  73  72  71  69  66  64  61  61  61  65  70  73  74  74  73  79  81  81  73  62  56  49  44  42  49  62  73  83 108 115 111 107 104  58  35  59  57  57  59  59  31   1   0   0   0   8  47  63  64  63  64  65
  17   3   0   0   0   0   0   0   0   0   0   3   7   6   6   3   6  13  25  27  30  28  26  36  48  36 100 139 133 134 129 125 122 115 109 106 102  95  89  79  67  62  59  60  60  56  55  51  45  47  48  52  53  53  53  55  53  50  42  36  34  36  42  53  62  75  77  97 115 114 113 106 104  61  24  51  60  57  59  58  29   1   0   0   0   8  47  63  63  63  63  65
  17   4   1   0   0   0   0   0   0   0   0   3   6   6   5   5   7  13  25  28  28  30  41  52  49  25  80 139 136 135 132 129 128 117 112 110 107 101  94  87  75  60  48  49  51  51  50  46  44  41  41  43  44  44  40  34  32  28  20  26  41  50  55  61  69  82  89 113 117 114 112 105 101  60  22  36  59  59  59  58  29   1   0   0   1   7  47  63  65  63  64  65
  17   4   0   0   0   0   0   0   0   0   0   3   6   6   5   5   8  15  23  26  33  48  54  53  41  14  67 136 134 137 134 130 127 124 120 116 114 114 109 104  97  85  66  55  47  38  33  29  25  24  24  23  22  22  21  19  17  10  25  42  49  51  59  70  79  82 108 116 115 112 111 104 102  56  25  22  45  60  60  58  29   1   1   0   0   8  47  63  66  65  65  65
  17   4   0   0   0   0   0   0   0   0   1   3   7   7   5   5   9  14  20  38  50  52  49  48  33   5  50 134 137 139 133 131 129 129 127 124 121 122 122 119 115 109 108 100  80  64  49  31  23  12   9   9   9   8  13  16  12  27  47  49  53  59  62  73  78 105 115 114 115 113 110 107 103  49  25  23  31  56  61  58  31   0   0   0   0  10  48  64  65  65  66  66
  17   4   0   0   0   0   0   0   0   0   1   3   7   6   6   5   6  12  39  55  53  51  47  39  25   4  33 129 138 143 142 135 131 130 130 132 131 131 130 126 125 124 123 120 119 107  94  75  60  44  29  15  14  15  18  18  31  49  50  51  57  59  66  77 103 115 113 117 116 112 110 109  96  38  22  22  26  39  61  58  31   0   0   0   0  11  49  65  65  66  66  66
  19   5   1   0   0   0   0   0   0   0   0   2   7   8   6   6  13  40  54  51  50  47  40  30  21   8  22 123 140 142 146 145 136 133 133 135 135 130 130 129 127 126 125 125 130 131 129 115  99  86  59  29  18  19  21  34  47  51  51  53  58  64  77 102 117 111 115 117 115 111 109 109  88  24  21  20  25  30  49  59  31   1   0   0   0   8  48  65  66  66  66  66
  18   5   0   0   0   0   0   0   0   0   1   2   6   7   6  19  47  54  51  50  48  44  37  26  20   7   8 113 139 145 145 147 145 140 134 132 134 132 131 131 130 128 125 123 130 135 136 136 132 124  98  46  23  23  37  50  50  49  50  56  67  84 105 118 115 113 116 116 117 113 107 111  65  16  21  18  21  29  33  52  31   1   0   0   0   8  48  65  66  65  66  66
  18   4   0   0   0   0   1   0   0   0   0   1   4   4  20  50  48  48  49  49  46  41  33  24  13   3   6 107 140 145 146 145 141 140 135 133 134 135 136 135 133 131 126 123 122 131 136 130 126 127 110  71  43  41  48  45  44  52  59  73  92 110 117 116 115 115 114 114 116 113 108 107  43  16  21  16  20  24  33  40  30   1   0   1   0   9  48  64  66  65  66  66
  17   4   1   1   1   3   6   8  12  18  24  29  33  33  46  48  48  49  49  47  42  37  29  20  10   3  11 107 138 142 143 142 140 138 136 135 137 141 136 135 133 132 130 125 122 124 127 123 117 113  84  66  68  67  64  72  79  87  98 111 120 117 115 117 115 115 112 114 114 112 111  98  23  20  17  19  23  29  31  33  31   9   4   1   0   9  49  65  67  65  66  66
