P2
# Generated by OpenCV 4.2.0
92 112
255
  62  63  74  80  87  96  95 103 108 114 123 123 115 106 110 101 100  91  81  67  63  69  71  79  83  88  87  85  93  93 105 104 107 118 111 109 118 118 130 123 119 112 116 125 125 127 125 122 120 128 142 134 136 129 133 132 136 134 135 133 132 130 130 131 132 128 142 142 134 128 131 132 123 136 138 139 128 131 131 136 129 127 131 131 126 134 124 131 128 126 121 124
  56  65  66  75  85  86  93  92 104 111 122 132 123 110 116 114 101  95  88  85  74  66  69  77  82  85  84  85  83  86  91  94 100  98 104 119 119 108 105 104 111 101  92  94 102 102 119 118 121 116 121 124 132 138 139 134 131 135 136 137 131 122 126 133 127 128 128 125 129 129 129 130 126 124 130 130 136 138 133 138 137 138 135 134 132 131 131 133 123 127 126 126
  48  56  63  78  90 102 104  97  98 111 117 121 124 124 123 112 110 113 113  96  86  74  70  73  77  78  79  88  92  88  89  92  91  99  93  97  92  75  60  58  51  55  54  53  57  62  57  66  63  57  65  86 103 113 132 132 130 127 123 129 132 132 133 135 129 131 130 125 125 128 134 138 131 122 128 135 137 137 136 134 136 131 131 124 133 132 129 123 120 124 130 126
  50  54  55  61  80  91 109 107 102 114 113 112 111 117 107 120 117 123 127 109  80  81  70  72  69  73  79  77  86  86  81  90  83  90  63  55  39  45  49  49  44  37  28  31  30  36  42  44  46  52  57  69  83  74  62  86 117 132 130 135 124 121 128 125 114 130 129 129 128 127 130 128 126 133 134 136 134 126 131 131 134 130 134 140 129 121 136 136 128 125 130 131
  55  52  55  57  66  79  98 108 115 113 116 111 115 118 113 115 114 114 125 116 102  94 101  93  76  74  76  79  82  83  78  76  74  49  40  33  46  54  52  53  64  58  55  50  52  48  49  48  44  56  55  57  60  69  74  86  76  76  94 133 137 130 119 116 114 125 124 125 130 137 129 127 128 128 129 134 130 127 133 131 127 127 131 133 126 124 126 129 124 121 131 128
  59  55  54  55  56  64  83  93 104 106 109 106 104 103 113 130 126 125 138 124 108  96 111 131 100  80  73  75  77  78  70  65  58  49  56  62  62  72  79  79  76  77  77  72  72  73  76  79  75  85  85  86  79  68  62  73  73  74  71  65  80 115 117 123 119 134 132 132 130 132 122 129 134 136 132 126 130 132 128 124 124 124 123 123 126 123 121 132 134 129 130 131
  58  56  50  53  54  55  62  75  92 101  95 101  98 106 103 119 128 121 140 127 107 107 122 129  95  94  87  70  68  51  47  44  55  50  57  56  63  58  56  49  42  42  40  42  50  54  59  50  49  61  51  57  67  75  70  72  71  68  80  79  67  62  69 107 128 129 124 124 129 133 127 132 138 140 140 140 132 125 131 133 128 131 133 138 123 124 121 129 133 132 137 130
  53  53  53  53  51  60  64  63  75  86 110 104  97 103 107 102 103 113 120 111 113 103 111 138 151 138 110  77  62  43  38  54  72  73  71  75  75  80  84  97  95  95 101  96 108  91  78  74  71  76  88  74  78  67  60  54  50  53  67  73  68  67  67  59  79 119 133 140 127 125 123 126 127 138 137 136 127 131 133 137 135 130 125 125 126 131 129 122 129 128 134 129
  51  50  56  54  55  53  55  62  73  72  80  95  94  99 101 110 107 100 102 108  93  92  83  90 129 109  87  70  56  35  39  41  49  57  63  74  69  64  63  68  72  80  90 100  97 102  93  88  81  84  76  77  64  65  68  64  60  57  56  55  59  71  62  58  58  53  85 126 134 127 125 123 126 128 130 134 126 128 130 127 132 129 122 123 130 134 139 132 133 128 127 126
  53  51  53  56  59  56  57  60  63  64  67  77  83  82 100 118 106 102  98  96  76  99  89  78  72  67  52  49  46  35  35  35  37  47  46  34  54  54  59  61  74  82  90  77  94 115 109  93  72  68  59  54  48  48  49  51  50  54  51  64  61  52  66  61  56  58  60  65 115 124 123 123 135 138 128 121 121 125 127 131 131 129 129 126 126 124 131 133 128 125 128 136
  51  50  51  53  56  56  56  55  60  62  63  73  79  81  81  87  90 101  80  82  84  78  69  73  57  44  37  35  38  25  27  33  29  29  37  24  27  39  51  60  72  72  71  61  90  99  78  62  57  68  68  64  57  53  54  60  60  54  58  59  54  54  55  47  47  62  57  67  62  92 118 121 135 132 135 129 133 130 129 131 129 132 129 127 128 115 117 125 129 130 126 128
  51  51  50  51  52  54  57  59  60  62  62  66  68  74  87  97  88  87  74  78  71  76  72  52  47  49  37  28  34  26  24  19  19  36  22  17  27  52  49  31  34  55  74  90 102  89  71  77  89  79  71  60  54  50  50  48  43  52  47  55  58  67  68  71  64  48  38  44  53  61  83 122 130 132 133 126 123 127 130 133 134 131 127 133 131 126 120 125 135 133 126 128
  54  55  50  52  54  53  54  59  61  62  60  63  62  73  79  82  78  72  79  78  79  71  58  66  46  48  60  48  43  33  26  18  43  35  32  25  33  17  17  57  59  67  87  78  59  67 103  88  63  61  57  58  53  59  77  78  76  62  55  34  27  24  27  37  37  41  50  64  63  47  58  78 120 122 129 133 123 131 132 133 136 134 136 140 135 131 128 137 134 130 127 135
  53  52  52  53  53  51  57  59  60  57  58  61  70  74  67  65  67  79  85  76  68  71  65  58  78  85  75  70  63  58  41  32  67  40  34  27  28  24  35  45  48  37  31  61  43  23  17  23  37  76  77  74  71  59  63  61  53  51  47  49  58  61  60  50  36  30  35  44  49  55  49  55  67 129 132 134 131 130 124 135 134 131 131 140 137 138 138 134 134 130 133 133
  73  58  54  55  54  53  53  53  54  57  58  64  64  62  61  64  75  79  83  66  67  68  74 110 104  85  73  67  62  63  57  58  67  46  44  39  41  48  29  36  28  37  34  26  24  20  44  54  65  66  49  55  56  67  61  47  46  45  50  45  49  46  48  49  48  51  48  42  34  44  52  67  63  77 127 125 127 126 127 126 128 136 138 133 130 135 142 138 133 136 135 124
  83  78  58  50  56  52  54  57  55  54  54  60  55  56  66  72  83  84  72  72  71  74 113  91  88  80  82  78  77  75  74  63  66  73  57  53  62  42  42  39  44  51  49  28  37  41  46  57  23  43  53  31  39  55  62  67  56  54  51  43  40  50  55  45  36  39  47  47  46  45  42  52  68  75  79 145 138 134 137 130 133 132 132 132 134 135 135 131 130 138 135 134
 182 197 144  68  64  55  52  55  54  59  60  49  55  69  70  81  87  77  74  69  79 111  83  74 105  92  85  93  94  81  72  65  64  73  67  54  72  63  51  58  72  73  51  46  34  43  45  43  35  32  36  38  97  91  51  51  63  73  69  48  55  54  53  51  41  37  30  26  29  36  39  46  61  63  70 100 135 136 135 132 138 135 134 133 132 129 134 129 130 135 133 128
 164 210 170  92  73  59  55  55  55  57  59  51  60  70  72  90  76  81  73  71  95  82  87  99  96  83  87  97  90  85  84  71  68  63  68  73  63  68  74  81 105  89  81  67  71  78  54  64  34  39  49  57  55  46  55  78  74  56  60  50  47  40  38  38  43  49  48  36  34  30  20  28  37  53  51  64 111 135 133 138 132 128 131 132 138 130 125 127 136 137 133 132
 138 179 135  89  79 165 135  57  54  54  57  52  63  69  85  80  70  76  79  92  74  85  84  79  75  83  95  96  94  81  83  95  75  69  65  69  85  71  69  86 105 136 111 108  91 100  65  50  62  56  47  43  52  64  77  74  70  47  58  59  65  67  54  41  36  43  34  42  49  16  34  33  27  24  52  55  56 125 139 136 130 132 134 140 134 128 129 138 138 133 135 141
 101 104 104  87  97 150 155  70  56  64  51  50  61  80  83  76  87  84  66  72  70  68  63  77  89  95  94  96  98 106  86  94 101 101  96  98  92  98  89  92 120 140 151 122 134 100  89  95  68  74  69  54  55  53  47  42  42  63  66 101  68  77  72  71  63  67  40  39  47  56  39  20  30  35  22  35  54  69 139 131 126 133 134 132 132 129 134 140 146 145 145 141
 107 103 104  99 101 104 108  69  56  47  50  51  58  85  72  84 100  50  58  67  62  54  69  70  79 100  99 116 110 113 125 129 139 122 127 126 133 109 112 120 130 144 156 148 139 134 126 108 100  95  89  88  90  75  64  57  56  55  50  51  62  47  52  50  44  52  48  57  35  51  51  49  36  24  34  31  38  65  88 127 127 131 141 137 133 127 135 135 135 133 134 136
 110 108 106 105  91  86  79  67  51  49  56  47  79  79  69  67  44  65  67  45  53  58  72  73  83  86 105 102 124 141 141 151 162 166 153 159 151 163 162 150 151 150 163 161 157 139 134 141 135 121  95 101 115 106  91  94  83  70  73  75  67  74  76  59  53  41  37  42  46  27  52  63  50  42  27  30  40  52  62 109 143 135 138 137 134 133 139 144 142 135 139 142
  92 105 106 110  93  84  66  64  52  45  50  62  68  54  67  53  67  56  50  38  67  61  63  64  72 105 102 127 148 157 167 173 173 182 190 185 186 182 178 181 177 180 181 177 167 164 157 153 145 153 161 147 132 138 142 129 129 133 135 129 116 112  93  84  76  61  72  28  55  33  30  36  62  53  45  31  32  52  53  71 130 133 137 128 133 137 138 138 142 138 140 141
  82  79  90  84  86  69  61  54  49  50  42  57  51  58  54  57  46  53  54  62  47  61  58  77  80  87 109 135 157 161 176 182 191 198 197 200 197 197 197 193 192 190 190 184 187 179 183 172 167 174 173 178 179 173 166 171 166 166 161 145 142 125 120 102  81  82  71  77  35  47  54  39  39  59  55  45  40  37  55  57  73 138 133 137 132 138 138 136 133 143 142 139
  86  84  96 112 109  82  78  55  41  37  47  44  46  52  47  51  41  39  48  58  64  66  65  73  81 124 119 148 163 177 184 192 201 204 202 203 204 200 203 199 199 196 195 193 195 192 190 190 181 169 173 181 180 186 185 184 177 176 172 170 161 152 140 129 120  97  80  85  84  48  36  53  34  37  49  53  45  39  45  50  67 103 137 140 138 151 147 135 134 145 141 136
 113 121 109 106 103  75  62  48  47  38  37  41  46  38  40  21  42  52  53  60  90  74  67  80  87 114 140 162 176 181 188 200 205 206 208 205 206 205 205 204 204 202 198 194 201 196 204 200 202 200 197 200 193 192 190 185 186 185 183 179 173 166 160 147 137 125 107  97  98  60  45  25  45  33  30  49  54  36  38  34  46  60 130 133 138 140 137 133 140 138 136 135
  99 100  95  80  66  74  65  44  33  47  39  44  33  49  34  48  47  51  62  98  74  80  99  97 114 146 162 178 182 189 194 203 205 206 208 208 207 208 208 207 202 202 206 200 203 201 204 205 208 204 203 201 205 201 198 193 194 189 188 184 182 179 175 168 150 142 129 115  93  83  67  46  31  37  39  28  55  53  37  39  33  48  91 142 137 140 133 138 138 139 139 135
 114  97  88  85  75  61  54  50  34  35  36  40  43  38  45  38  39  54  78  84  91 101  84 110 146 168 180 185 192 196 195 197 204 204 202 206 207 206 207 206 206 206 204 206 206 207 209 206 210 205 207 204 203 204 202 201 195 194 194 195 186 189 182 176 169 159 147 134 107  84  73  37  22  53  26  37  20  56  46  38  40  29  52 127 137 141 138 143 142 143 138 135
  81  74  86  96  87  86  73  34  37  35  35  43  36  36  39  42  53  68  83  78  76 111 135 133 166 183 192 193 196 194 196 195 197 200 202 204 204 203 206 207 205 205 206 207 204 208 209 208 209 208 209 206 207 207 205 203 200 199 198 197 194 194 192 186 180 172 163 148 134 108  58  30  41  22  39  25  27  22  51  39  31  42  34  61 133 137 134 140 142 141 130 126
  90  86  82  62  57  58  62  36  26  33  46  28  36  45  52  51  52  55  78 110 147 150 141 156 167 189 197 196 198 196 194 197 197 195 198 202 204 203 203 206 207 208 207 207 207 207 208 209 208 207 210 206 206 205 206 205 204 202 200 200 202 198 195 192 189 184 176 169 158 136  83  35  38  16  28  33  35  21  24  49  37  24  45  46  90 134 139 139 141 133 127 133
 124 124 118  89  85  66  51  41  29  38  34  30  37  50  56  47  58  83 128 140 148 145 147 161 176 187 191 194 193 194 193 194 195 192 197 201 204 203 202 204 206 206 207 204 203 205 207 208 210 210 209 210 208 205 207 204 205 204 204 205 203 203 198 198 194 192 184 180 172 159 124  66  23  39  24  24  36  25  18  33  52  30  24  31  53 131 146 135 131 133 127 138
 115 103 104  74  54  55  55  32  30  33  35  34  43  43  54  54  79 111 133 145 148 148 157 167 178 189 194 193 194 195 192 194 191 194 194 199 201 203 203 204 206 204 205 206 205 206 209 209 210 207 207 207 207 206 205 205 204 204 207 206 202 197 196 200 198 196 191 188 183 174 158 118  40  37  19  20  27  24  25  19  35  47  31  19  28  62 141 142 143 136 133 145
  93 111 118  84  80  88  55  36  28  26  37  28  42  48  56  71  85 118 137 142 152 157 165 169 174 188 192 194 193 195 191 192 193 194 196 199 200 202 204 203 204 205 206 207 207 207 209 210 209 207 207 206 207 205 204 205 204 207 208 207 205 204 202 200 196 195 196 194 187 180 173 150 120  51  39  17  23  26  22  28  21  35  44  31  23  38  81 137 142 137 138 143
 130 149 144  85  82  84  54  30  33  24  35  38  46  62  53  68 103 115 142 147 154 163 168 168 175 183 191 191 193 193 192 189 192 194 194 196 200 201 202 207 204 203 205 205 205 208 207 209 211 207 207 205 204 206 206 206 206 208 208 204 205 206 203 203 202 198 195 191 193 183 175 165 153 118  61  29  14  26  22  21  24  26  25  30  27  23  33 110 141 136 141 146
 114 142 121  86  87  83  48  31  27  19  29  34  36  46  62  71 105 123 137 151 157 165 170 169 174 180 187 189 192 192 193 190 190 194 194 197 199 197 203 201 206 203 205 206 206 208 210 210 211 207 207 204 206 205 208 206 209 208 204 203 205 203 206 198 199 199 197 194 193 186 178 174 167 151 111  47  29  12  25  24  17  31  24  20  31  34  30  54 142 141 148 141
  81  94  96  75  91  94  47  34  23  21  30  30  43  51  57  90 110 121 137 154 161 167 168 170 174 175 185 189 190 191 193 193 194 192 198 201 204 201 204 204 203 206 205 204 204 207 212 209 209 210 210 207 200 205 207 206 207 207 206 203 204 201 201 200 200 201 198 198 194 185 179 178 174 169 145 106  43  27  17  24  27  15  22  25  28  45  41  41  98 150 147 148
  96  77  60  66  97  89  40  30  21  25  35  39  38  54  63  88 104 128 150 157 165 171 168 170 171 174 185 188 195 192 196 193 197 197 199 204 203 205 204 202 203 206 209 209 207 207 209 207 210 208 210 208 206 205 205 206 207 205 205 207 204 198 202 201 197 199 197 199 192 184 179 180 179 173 163 145  92  27  33  21  28  13  10  26  18  26  47  49  50 145 139 140
 117  85  57  55  73  91  25  32  14  26  36  30  47  44  78  92 109 133 146 159 168 167 167 169 172 176 184 191 193 194 194 198 199 199 202 204 203 206 206 204 206 203 199 206 210 208 209 209 209 210 210 209 210 208 207 207 206 204 206 205 204 200 201 203 200 201 199 195 191 184 186 179 182 175 170 158 128  83  27  38  19  23  23  11  17  22  30  43  46 122 138 143
 109  86  62  67  60  64  23  27  21  33  30  30  32  51  68  87 109 129 156 161 166 172 168 169 172 178 184 189 192 195 197 198 200 199 204 207 206 208 208 209 209 211 207 210 209 209 208 210 211 208 207 209 209 207 207 205 208 206 203 206 205 204 203 202 202 201 200 191 189 187 184 183 179 176 173 169 152 110  68  28  31  29  18  22  11  16  22  25  40  66 129 142
 119  98  70  71  96  81  25  22  29  35  20  28  26  58  61  76 112 137 156 164 164 170 173 172 173 179 182 191 192 197 196 200 200 205 202 205 207 207 209 208 207 208 208 209 211 210 206 210 209 211 210 209 208 205 207 207 206 208 209 205 204 204 203 201 202 197 200 193 191 186 189 184 179 176 182 168 154 132 100  54  47  39  41  24  23  19  14  20  29  34  68 144
 151 116  89  70  68  88  31  29  26  29  13  20  36  39  60  80 114 147 161 162 167 171 172 172 177 181 190 193 195 198 199 201 200 200 204 204 205 205 206 206 206 208 209 209 209 208 210 209 207 210 208 206 209 209 206 207 209 206 209 208 207 207 205 204 204 201 197 196 191 188 183 184 182 184 182 172 156 134 105  82  62  58  18  38  23  33  33  31  20  20  31 100
 144 106 114 100  82  71  33  33  23  19  18  22  34  40  53  86 124 150 161 163 166 170 172 173 178 184 189 195 200 200 200 198 202 199 196 202 203 204 205 205 204 204 206 208 209 208 209 208 207 210 207 205 208 209 206 209 211 209 208 209 207 206 206 206 203 201 196 196 189 186 184 183 181 183 180 169 157 132 113  79  63  67  37  12  28  27  27  31  20  22  31  38
 195 143  95  88  85  85  48  34  25  13  15  22  31  39  62  99 125 150 165 162 164 170 171 177 181 187 190 193 195 197 195 195 199 198 199 202 202 202 203 201 204 204 205 206 208 208 211 209 207 207 209 206 210 208 209 212 211 208 209 208 205 205 208 204 204 204 195 198 193 187 184 184 183 182 178 177 163 139 107  74  57  76  61  24  15  15  37  17  20  38  31  34
 187 163 114 110  96  85  52  35  31  15  17  22  25  39  81 106 141 153 160 159 161 167 169 176 180 186 181 179 189 182 181 183 188 191 190 198 199 199 198 200 204 205 206 206 207 207 208 209 209 210 205 208 212 207 206 209 211 208 211 210 208 203 206 205 203 201 199 198 195 190 184 185 177 177 179 174 169 155 119  75  49  89  57  31  21  14   7  21  30  32  29  45
 129 127 119 124 112 104  55  41  31  18  16  23  30  55  90 129 145 158 161 158 161 166 168 177 175 154 151 159 158 153 160 156 169 179 184 193 194 190 187 199 203 204 207 206 208 210 209 208 208 211 209 206 206 207 207 204 207 206 205 205 205 199 199 200 196 201 193 196 192 188 185 182 181 179 177 176 172 164 130  86  50  71  57  25  24  21  12  11  19  47  53  44
 115  96 103 108 116 106  91  56  32  19  17  24  32  54  96 139 150 159 156 159 163 163 164 168 121 104  98 105 126 127 111 110 135 142 153 168 168 173 184 173 196 201 206 206 213 210 209 210 205 209 207 207 201 209 196 192 203 200 193 194 189 195 180 187 180 176 187 188 186 179 182 182 179 177 178 175 175 168 141  90  50  58  54  27  27  20  14  10  33  35  95  77
 124 102  97  99 108 114 113  61  38  32  16  29  31  60 108 148 156 158 160 160 155 158 144  74  83  84  74  87  64  63  66  72  70  72  82  76 111 122 164 169 190 189 202 201 207 207 213 207 207 206 207 199 198 197 185 187 191 188 184 172 175 159 156 153 131 133 148 127 170 182 172 180 177 178 179 178 177 172 150  93  50  49  53  35  29  17  20  15  38  36 107  62
 131 110 114 107 111 106 107  85  33  56  44  21  34  57 123 149 157 160 159 159 155 106  68  82  85  89  84  69  79  67  69  47  36  35  54  47  57 101 117 162 168 187 185 188 196 200 204 202 197 199 196 194 187 176 163 163 156 134 142 120  93  92  88  83  96 107  97  90 103 160 170 173 178 180 179 177 175 172 155  95  55  49  56  44  18  24  19  12  25  37 130  72
 132 121 117 105 127 126  98  90  35  41  59  26  35  66 130 155 149 108 110  94  84  77  76  82  81  80  77  72  71  55  52  42  60  58  41  55  44  68  88 130 164 171 180 181 187 191 187 195 190 191 186 179 172 146 130 102  73  59  47  63  59  87  71  81  85  76  93  90  72  83 105 150 176 177 180 177 176 172 159 102  53  53  40  25  23  24  25  21  41  36 100 114
 140 168 152 102 106 121 102  98  39  37  36  36  64  96 107  76  83  41  38  49  49  40  23  16  33  36  40  41  56  68  90 115 122  87  38  36  69  81 111 119 142 164 170 177 181 185 184 184 183 183 178 169 146 107  65  50  50  39  41  40  37  37  56  69  81  96  69  85  74  77  71  96 158 169 176 178 174 170 158 114  48  42  27  24  14  25  24  18  29  52  88 138
 153 190 174 116 104 101 104 114  44  40  51  71  95  84  93  96  93  33  42  45  41  59 108  93 114 108 130 140 139 150 149 126 116  99  62  85 153 136  59  77 135 153 161 167 174 178 185 174 178 168 163 154 126 102 104  74  39  62  62  56  75 105 109 100  95 101 106  91  99  91  77  70 122 170 176 178 172 168 162 119  50  31  28  27  18  27  28  24  32  63 106 133
 154 186 143 124 117  98 119 131  70  40  86  72 108 113  96  92  83  82  31  50  54 110 114 125 126 138 137 143 146 148 150 148 144 145 199 237 201 100  65 132  98  94 156 167 173 181 184 179 178 165 148 138 123 123 124 131 140 146 157 167 165 167 164 174 163 146 134 130 134 103  89  85 110 165 172 177 174 169 165 117  57  26  24  21  17  27  26  29  49 110 114 134
 153 184 146 149 163 117 105 127  93  56  86  72 104  65  79  96 122 101  59  47  98 113 118 125 134 136 128 117  97  66  49  44  62  93 170 158 132 154 146 127  40 121  83 150 175 191 197 186 172 157 142 135 118  94  79  72  80  80  74  73  79  88 112 138 164 173 170 169 154 147 145 132 123 130 169 178 169 169 168 113  54  21  20  23  22  30  22  32  70 152 125 136
 154 153 159 154 156 116 113 115 120  58  16  50  17  70 121 133 136 124  74  45 122 124 122 124 127 101  92  60  68  66  68 123  59  61 176 116 127 125 141 145 110  57  75 109 107 183 199 191 180 151 100  88 119  71  45  63  70  80  85  70  85  84 103 116 111  98  61  58  91 143 151 151 146 151 170 176 178 175 167 112  48  19  13  16  32  30  25  42  94 137 130 137
 150 154 180 152 126 134 170 177 166 128  41  52  60 101 140 144 140 134  82  42 124 124 123 123 112  84  47  98 148  84  67  43  47  75 195 166 105 147 150 157 135 106  54  53  53  80 107  87  82 116  93  36 105 149 149 144 141  97  62  45 210  31  36  59  98  90  85  74  62  81  83  71  83 119 166 177 176 176 171 102  41   8  23  38  29  24  24  62  99 123 132 143
 152 162 170 162 137 169 163 168 177 148  41  41  73 120 150 154 151 140  90  42 138 124 118 114 103  74  92 120 142 140  65  67  74  69 190 150 150 109 173 158 150 134  37  58  43  45  48  43  42  75  66 137 155 159 143 108  91 155  54  63 189  39  69  91  52  94 113 108 134 117  62  42  64  83  55  72 103  86  65  69  95  55  48  22  31  26  48  57 129 138 137 146
 155 143 166 169 166 156 148 152 167 159  87  46  69 133 152 157 155 148  96  41 146 139 120 120 121 127 125 122 119 111 125 141 127 129 157 139 130 131 142 168 157 139  42  58  38  50  74  54  47  71  51 161 158 152  94 137 134 159  82  74 107  61  70 147 136  57  80 116 125 147 137 127  35  63  53  20  51  76  71  72  82  50  64  24  34  26  35  98 131 145 147 144
 146 136 169 151 160 145 115  99 133 155 144  39  78 138 157 159 159 153 120  94 159 152 141 145 144 145 142 140 143 154 159 177 165 164 160 165 158 164 168 158 157 135  44  52 103 153 145  79  55  72  99 171 169 156 152 137 130 124 142 158  84  78 114 161 131 114  81  98 118 131 137 117  75  63  52  19  66  75  74  70  86  62  62  23  39  30  74 116 132 148 151 147
 135 131 149 134 159 136 130 143 168 142 144  41  72 143 159 160 158 154 131  94 165 163 153 155 160 156 154 156 152 149 157 154 160 163 162 165 155 164 153 146 139 109  55  88 173 193 196 184  68  69 129 166 169 170 158 158 156 162 169 183 143 146 144 141 141 141 138 134 121 126 130 130 101  59  27  76 101  98  93  72  50  55 124 152 150  98 131 133 138 147 152 141
 138 113 114 116 169 143 135 165 168 155 124  49  77 146 158 158 157 157 139  45 163 168 167 174 172 165 168 166 168 169 171 170 175 176 176 177 164 161 146 140 149  71  49 153 192 203 204 196 142  67 127 167 163 166 164 167 153 153 183 163 164 169 162 166 161 150 151 160 151 142 144 148 108  46 107 142 151 155 149  96  55  51 166 177 173 166 149 148 146 152 156 143
 123 102 106 130 171 136 134 178 174 166 147  52  63 146 154 160 155 159 150  47 161 178 178 178 176 173 176 178 178 181 180 178 182 180 178 172 167 150 150 155 147  56  94 167 192 206 208 207 183  60 108 176 167 172 169 178 174 171 185 159 161 163 159 159 163 162 167 164 167 164 158 157 110  31 172 165 167 166 158  91  54  90 174 171 163 161 154 141 151 161 152 144
 130 127 122 137 171 133 155 185 183 173 124  57  58 139 154 154 155 160 159  50 136 168 180 185 184 182 182 180 180 184 184 186 182 184 179 176 174 171 159 161 100  59 156 169 185 208 209 211 190  87 102 180 179 174 178 179 180 185 190 184 178 174 176 178 176 175 176 181 174 173 176 169  97  14 174 168 171 172 164  94  77 164 162 117 112 143 156 147 153 153 144 150
 135 123 124 134 172 141 168 177 172 150 111  68  49 136 151 151 154 159 163 115  94 179 181 188 184 190 192 192 191 191 189 187 188 187 186 182 181 173 173 155  21 123 162 172 189 201 210 207 184 117  63 185 185 183 186 181 186 191 188 191 191 185 185 182 183 182 180 179 180 184 185 176  62  96 174 169 169 170 160  83 119 166 179 153 134 137 154 158 149 140 143 141
 117 119 123 122 172 149 177 180 173 160 132 110  71 122 149 151 151 159 167 164  77 149 177 184 189 188 192 192 192 195 191 192 196 193 195 190 185 180 168  67  77 163 166 172 187 203 210 208 193 167  29 178 189 189 192 191 193 195 192 191 187 189 193 192 190 188 188 190 186 192 188 174  84 170 171 166 168 165 157  74 147 175 192 175 141 165 159 158 149 146 144 134
 138 138 118  98 177 155 180 178 169 157 141 162 123 113 145 149 152 158 167 172 166  86  88 154 183 191 189 198 198 198 199 197 200 197 195 186 179 172  86  51 146 172 171 177 189 203 213 212 197 171  51 132 186 188 195 199 200 197 196 195 193 194 196 197 194 193 191 194 192 195 191 157  93 182 168 167 163 163 147  63 167 187 184 182 138 171 145 155 155 147 143 141
 127 115 118 119 176 158 184 172 165 157 163 180 145 104 144 148 150 162 167 177 172 170 166 118  55  83 127 168 186 194 196 198 199 196 190 175 140  77  91 131 164 165 167 183 196 206 209 211 200 182 140  45 180 186 193 196 202 202 200 200 200 198 199 199 200 198 196 198 196 197 191 108 135 182 173 167 160 156 122  89 121 179 191 180 143 178 141 145 151 154 147 133
 140 122 119 120 174 160 182 166 163 160 169 176 146 111 141 147 150 158 167 170 172 178 181 181 185 188 164 142 111 103  96 101 106 110 110 104 114 148 146 156 168 167 173 189 196 208 212 211 200 181 177  60 103 186 188 199 203 205 201 202 201 204 200 200 199 200 198 202 191 196 183  20 181 177 167 165 156 148  86 134 128 159 187 185 160 172 146 142 147 150 146 132
 143 130 126 134 166 168 182 166 152 154 168 178 149 111 133 146 152 157 165 168 171 177 179 183 185 184 189 186 185 187 189 189 190 185 184 171 167 159 144 162 164 165 174 191 201 203 211 211 202 190 180 145  50 114 185 199 201 204 204 203 205 205 204 201 199 196 197 196 194 190 130  86 182 173 168 161 155 144  93 155 141 162 183 182 177 152 151 154 146 146 140 143
 146 138 136 147 160 175 167 179 154 151 166 177 155 113 130 139 150 155 161 164 167 175 177 182 184 190 190 196 198 196 197 200 199 194 186 183 174 156 150 169 169 165 174 191 200 204 208 213 205 187 179 173 153 133  67 133 175 196 201 206 207 206 206 202 204 198 194 195 187 166  75 184 178 170 162 157 148 131 139 162 148 168 187 179 178 148 146 154 150 145 141 148
 150 131 119 126 140 179 159 177 178 163 172 180 164 110 115 136 147 153 157 162 167 173 178 178 182 183 190 190 196 200 200 200 195 195 188 178 164 151 164 178 172 171 177 191 202 205 211 211 206 188 182 187 158 163 181 182 143 102 110 137 160 181 196 197 198 191 184 174 169 108 176 183 180 166 160 154 147 114 167 162 152 169 186 175 174 148 140 148 157 157 146 146
 129 122 126 113 118 169 174 164 170 182 191 188 169 123  98 140 147 150 155 160 164 169 171 174 181 185 187 188 194 198 197 195 191 184 179 174 159 157 171 178 174 176 182 196 197 206 211 212 207 189 183 194 182 161 170 189 191 193 196 183 167 134 128 108 102 112 126 139 167 187 180 178 170 165 161 147 146 124 177 163 157 169 186 170 168 151 150 147 153 160 147 139
 138 132 132 130 130 149 180 181 179 189 189 187 192 177 103 134 146 147 152 158 161 165 171 174 177 183 183 185 190 188 188 185 179 171 172 171 157 158 166 171 169 173 179 187 196 205 206 207 201 188 185 191 191 162 171 183 185 189 195 194 195 195 187 188 193 192 192 192 186 184 181 175 167 164 149 151 126 147 180 158 162 171 189 170 162 155 155 158 145 144 142 145
 168 136 131 131 149 142 163 182 188 192 192 189 189 174 102 132 144 147 153 158 157 162 166 173 176 182 181 185 187 183 178 172 165 168 169 167 160 150 152 162 155 152 166 181 188 203 196 194 197 182 186 180 182 161 167 169 175 184 195 196 198 197 195 193 191 188 189 190 186 184 180 173 168 158 150 147 106 170 169 158 162 174 186 171 159 158 156 159 148 149 144 140
 180 150 134 134 148 148 147 166 184 187 189 187 185 177 138 124 140 147 153 157 158 161 166 170 171 177 178 171 172 170 169 161 160 165 169 165 162 148 136 125 115 139 150 168 175 181 181 185 177 166 163 166 163 161 173 172 171 178 189 191 194 194 195 192 191 192 190 189 185 181 173 172 166 154 151 143 119 164 189 168 176 185 173 175 163 151 162 169 151 146 150 147
 159 128 112 110 115 129 134 137 170 178 182 185 186 188 169 127 136 146 154 155 155 157 159 164 167 171 170 168 167 164 159 151 163 168 170 169 161 162 157 126 144 116 131 148 159 163 165 164 154 142 117 134 157 176 172 172 166 169 176 184 191 193 193 191 189 188 187 186 183 179 170 164 162 145 145 122 158 196 195 190 187 177 173 166 159 153 157 166 158 144 150 142
 183 157 131 124 116 113 117 107 134 158 174 180 182 176 171 126 135 148 149 154 153 154 155 163 167 163 165 167 157 155 152 163 169 172 167 167 162 160 156 152 140 132 118 128 140 141 141 141 137 137 138 165 177 181 182 178 166 169 174 181 184 184 187 187 185 186 186 185 182 178 173 165 159 149 147 124 179 196 194 189 187 183 180 167 159 156 164 166 150 151 162 141
 174 162 149 141 127 122 140 141 140 137 138 155 166 164 147 122 139 143 145 152 153 153 152 160 164 162 163 158 155 148 155 162 164 166 164 166 157 160 157 154 149 141 140 117 129 132 137 136 138 153 170 172 181 184 185 184 177 168 171 172 175 183 179 184 187 182 182 183 181 175 172 163 156 147 139 152 191 198 196 193 192 184 161 175 170 155 161 158 141 153 163 145
 155 162 153 142 134 131 136 148 148 131 132 126 128 137 138 137 132 142 145 153 156 156 153 155 160 165 164 154 152 159 160 162 161 161 161 166 162 164 163 162 155 157 143 137 119 115 128 139 161 167 169 176 182 185 187 189 183 178 169 173 173 180 181 178 181 181 178 177 179 176 168 160 151 145 141 177 187 196 195 192 184 158 154 157 159 153 154 151 151 154 155 144
 163 184 180 176 154 138 127 129 128 136 126 115 124 140 138 128 131 138 146 151 154 156 154 157 157 164 161 156 159 158 159 161 159 154 162 169 170 173 167 164 165 167 160 156 165 155 164 167 170 178 176 182 184 186 186 189 183 181 177 173 174 172 177 177 181 179 179 179 178 173 166 159 150 141 143 169 183 190 189 177 154 155 165 160 143 142 148 171 164 152 151 145
 160 164 160 157 142 136 146 132 138 139 132 131 121 120 126 125 133 129 146 149 156 154 156 152 160 169 165 164 163 158 154 158 158 153 163 175 176 175 169 167 167 179 178 171 163 174 179 182 185 184 186 184 184 187 192 187 183 181 177 176 173 177 178 179 175 176 179 175 173 167 162 151 150 141 115 139 152 156 153 143 161 154 154 154 145 141 144 168 186 154 156 162
 156 145 169 176 176 149 149 146 155 151 136 123 122 121 137 131 132 129 139 151 154 159 149 152 163 174 174 166 162 152 141 142 145 148 140 142 138 138 138 137 133 137 154 186 185 174 174 177 181 182 191 192 190 190 185 185 182 182 179 180 179 177 175 180 179 179 177 176 174 165 159 150 146 141 109 115 111 118 135 149 161 153 166 156 147 146 146 150 156 145 158 180
 170 169 172 184 195 182 176 167 161 166 174 130 118 124 142 145 139 131 138 149 151 151 149 155 162 177 183 169 164 150 123  89  94  99 106 115 124 135 126 130 128 124 131 139 146 143 149 147 150 154 160 166 185 192 187 178 180 183 182 180 182 176 178 180 180 182 179 175 172 163 155 152 145 127 102 114 124 134 148 158 155 157 177 162 149 153 161 157 156 150 149 152
 166 175 166 167 181 176 183 183 177 176 180 144 128 123 123 125 130 131 135 140 153 152 153 152 157 175 187 178 179 165 160 123  90  65  58  74  82 101 100  97 114 123 119 124 139 138 135 143 146 154 149 145 144 158 176 177 177 179 179 181 182 182 184 181 178 179 177 156 164 164 150 151 152 130 116 115 132 157 155 159 155 148 163 179 168 154 153 154 152 146 146 155
 166 185 178 162 163 164 152 165 164 158 166 150 117 120 132 142 130 131 135 138 149 154 153 151 154 171 187 187 180 181 171 155 137 103  95 101  93 108 141 158 162 148 146 157 115 121 110 105 107 111 114 118 121 120 132 157 162 177 180 180 183 185 185 180 180 178 176 173 168 153 152 150 149 142 137 134 142 152 157 161 166 153 150 164 175 157 147 151 155 152 153 158
 155 163 163 154 154 160 163 153 163 174 185 182 140 124 137 137 128 126 130 136 144 153 153 151 152 167 184 187 186 181 178 168 148 135 122 122 127 139 122  98 110 157 181 188 170 177 171 159 166 150 109 130  70  57  70  86 126 169 174 176 180 188 190 183 182 175 173 169 164 149 151 154 146 147 157 153 145 145 148 153 162 158 155 150 151 150 152 150 150 154 156 161
 160 166 159 160 177 184 193 171 173 197 193 183 150 133 139 132 127 128 131 133 140 150 152 151 150 160 176 186 188 184 182 179 164 145 142 140 134 145 140 148 143 130 123 128 119 120 123 120 121 122 132 129 127 129 105 119 129 159 172 176 183 191 188 183 175 175 172 166 156 147 152 153 145 148 168 167 150 153 155 157 153 158 159 150 143 141 149 151 145 149 156 148
 173 173 164 187 182 175 176 178 186 198 202 190 163 132 127 126 134 124 132 131 136 144 156 154 146 155 168 179 185 182 181 181 179 159 150 149 149 140 138 138 149 156 163 151 159 161 164 169 166 157 161 163 149 143 166 175 174 180 180 182 185 192 185 182 177 173 168 164 152 146 151 158 148 145 160 161 151 149 154 164 156 157 155 155 152 145 151 158 149 145 138 147
 182 178 171 188 192 185 174 180 187 189 196 196 184 145 138 129 116 128 131 129 131 137 148 153 150 147 157 168 181 180 184 183 180 175 163 154 151 156 148 144 145 148 153 150 166 161 160 156 148 145 149 152 171 173 178 189 193 193 185 185 190 189 185 178 174 168 167 156 151 149 151 160 149 147 162 168 158 151 154 172 160 158 158 151 147 152 157 164 147 146 137 142
 178 186 191 193 201 184 165 176 192 190 181 180 171 131 126 128 122 131 136 123 128 133 141 150 151 144 149 158 171 176 180 183 183 181 175 166 160 156 158 150 148 142 145 148 147 149 150 147 152 162 165 173 172 178 190 197 198 194 193 185 186 180 180 174 171 168 162 152 148 148 155 162 158 158 152 176 161 150 150 158 157 153 165 159 149 156 155 159 158 157 140 141
 185 181 191 191 190 185 160 164 174 190 189 180 181 146 111 115 125 125 136 129 120 128 136 147 152 147 145 152 162 173 178 185 184 184 180 176 167 168 161 157 153 145 154 150 155 156 156 159 163 168 173 170 183 189 199 199 200 195 190 184 184 179 174 167 167 164 158 144 145 148 165 166 156 158 163 168 161 154 148 160 167 153 150 157 163 159 150 146 152 159 155 149
 172 164 177 183 186 190 189 185 169 160 171 167 175 148 122 131 123 126 140 140 119 121 135 140 147 144 145 145 157 168 176 178 183 184 181 180 176 170 168 164 166 156 155 158 159 158 158 167 171 170 171 179 190 198 199 200 199 197 190 186 180 173 167 163 164 161 146 142 143 149 159 164 161 158 164 164 164 157 149 159 167 155 150 151 172 173 158 151 149 162 174 163
 169 179 190 184 187 192 195 199 192 169 180 191 188 166 135 125 129 126 144 144 131 120 133 136 142 148 142 146 151 164 175 174 184 184 180 182 178 174 174 172 174 167 162 166 168 164 172 174 177 182 189 190 196 197 198 200 197 195 186 184 173 168 166 164 160 153 140 141 147 151 163 165 160 160 152 157 157 161 154 153 158 149 153 150 157 168 161 151 147 154 167 159
 185 192 198 198 182 190 192 188 187 167 158 171 186 161 127 110 121 127 143 150 138 120 128 135 137 144 143 141 146 160 174 179 182 185 184 182 180 176 180 180 180 177 177 176 177 175 178 182 183 185 191 192 192 196 196 196 194 192 183 178 174 165 164 159 158 147 137 144 156 151 173 166 165 153 148 151 154 150 151 155 155 155 157 148 149 151 147 158 159 145 161 159
 176 185 189 178 170 170 184 182 181 177 166 169 165 138 115 113 107 124 146 148 147 130 126 129 132 138 137 138 141 154 167 175 178 189 189 186 181 179 180 186 191 189 189 189 184 184 186 188 189 191 193 195 194 192 196 194 193 190 185 177 169 160 160 158 150 139 138 152 153 153 162 156 168 175 155 152 159 155 151 149 160 171 154 157 152 153 145 152 150 142 150 162
 152 159 176 177 172 174 178 176 179 178 178 167 161 145 113 125 109 112 149 153 150 142 126 128 129 136 138 139 141 144 156 176 181 186 190 187 185 186 185 190 189 192 197 195 200 201 203 200 194 198 196 194 193 195 192 193 192 192 183 176 166 155 159 149 146 138 144 153 156 155 165 165 168 175 167 156 156 153 150 147 151 158 158 164 158 155 147 153 153 140 143 156
 158 168 161 179 177 182 179 180 190 177 167 163 173 165 123 105 111 122 150 153 155 148 133 127 124 132 132 135 135 139 154 165 174 185 189 193 190 189 188 189 188 193 199 197 196 200 199 198 197 200 200 198 199 197 196 194 190 186 178 166 164 153 150 142 133 132 152 158 155 164 163 157 160 159 164 161 157 157 158 157 157 147 149 156 155 155 149 153 163 144 140 143
 176 170 156 163 170 167 171 176 189 188 177 161 172 165 139 113 105 123 149 157 156 153 141 130 121 127 129 133 133 132 144 163 172 181 186 187 190 187 185 194 195 197 198 199 197 200 200 201 203 195 194 196 204 203 196 194 185 182 174 164 155 147 140 137 137 146 161 164 155 166 179 175 162 153 153 156 166 167 155 166 166 154 158 162 151 151 153 150 153 146 145 137
 175 172 158 175 184 188 177 186 188 191 186 171 184 167 139 125 117 130 146 157 159 157 144 137 125 128 130 133 137 125 136 145 165 176 181 184 185 188 189 192 200 201 203 205 202 197 202 201 199 200 199 203 201 201 193 186 181 173 163 157 147 142 137 135 141 156 165 165 157 158 172 186 177 166 163 163 172 164 148 157 169 153 151 154 153 152 151 157 157 154 146 140
 188 186 172 169 171 188 183 175 164 178 181 179 198 167 128 107 109 125 150 158 163 161 153 143 128 130 123 123 129 129 123 137 151 162 172 177 181 188 191 194 201 203 202 202 200 197 201 200 198 197 196 202 197 193 193 188 175 166 156 144 141 133 137 135 155 165 166 164 155 158 163 174 179 173 169 165 170 159 146 161 173 162 150 162 155 154 151 156 159 151 143 154
 176 188 184 176 163 178 182 176 160 167 182 177 191 181 134 116 133 139 152 157 162 160 158 149 137 128 124 122 128 123 123 128 139 150 162 171 177 183 188 192 200 201 200 197 195 195 199 196 194 197 201 199 184 188 180 179 161 147 141 137 132 136 138 147 160 172 169 164 154 164 163 172 176 172 169 165 170 158 149 158 171 176 158 162 152 152 145 149 157 150 144 150
 169 183 183 180 175 172 189 187 163 159 179 176 175 167 129 129 141 181 151 160 164 164 160 155 145 129 126 125 126 124 124 117 124 135 145 160 167 178 178 186 191 198 195 194 197 196 196 203 195 192 195 179 173 178 175 164 144 137 134 135 137 141 143 156 167 171 167 166 152 174 172 174 174 178 169 166 167 161 153 153 157 156 159 170 162 153 152 153 153 155 139 134
 193 194 174 182 181 179 191 185 180 175 184 176 174 160 117 121 208 165 156 158 163 168 166 157 155 135 130 131 123 127 126 118 118 125 134 148 156 163 165 177 178 181 185 192 186 190 195 193 190 189 181 180 173 169 153 144 133 131 136 136 144 145 155 162 174 172 172 168 156 182 174 170 169 173 162 166 160 165 163 161 161 158 151 155 157 150 161 150 172 174 146 148
 176 181 161 190 186 176 177 167 175 174 185 185 189 164 133 148 225 153 154 157 164 170 168 164 159 144 135 129 133 128 126 124 123 120 121 131 144 150 156 170 173 178 178 178 179 172 180 179 175 174 165 163 159 152 138 133 127 134 139 146 146 150 161 173 175 176 171 165 155 183 181 178 173 168 160 153 159 168 171 161 157 160 148 150 143 151 161 160 156 160 145 159
 175 186 179 179 180 176 172 189 182 178 186 185 187 149 139 204 223 147 154 159 165 171 168 168 169 157 149 136 133 133 132 126 129 124 121 118 126 137 145 144 157 163 165 166 165 163 168 161 156 146 145 146 142 133 129 129 131 138 145 152 151 162 167 176 177 175 174 165 160 168 176 178 179 157 161 151 160 168 159 164 156 160 151 156 147 144 158 180 162 144 150 156
 185 186 189 192 188 178 171 188 186 194 196 176 172 131 129 224 226 144 155 157 163 171 171 172 172 163 155 143 136 136 139 128 124 130 125 123 123 121 134 140 143 146 145 155 148 145 151 146 140 143 140 130 126 118 124 131 140 148 152 154 160 167 174 180 179 177 173 164 203 165 171 170 176 172 168 160 160 166 163 166 157 161 158 153 151 148 145 171 168 162 160 167
 181 182 187 183 184 186 183 182 180 187 195 176 146 112 150 225 227 150 158 159 163 170 173 171 172 166 160 153 144 138 139 141 135 133 127 129 130 123 119 121 131 134 138 140 135 135 137 138 133 125 122 121 128 127 133 146 151 151 152 157 169 171 177 180 179 176 172 161 220 186 163 168 170 157 165 164 169 166 166 158 153 160 158 153 153 147 140 152 155 157 159 168
 177 157 174 166 163 171 173 176 172 164 155 149 129  73 186 222 237 163 156 161 167 170 173 170 172 172 172 162 151 145 144 144 147 144 136 131 127 133 132 128 123 118 117 118 120 118 121 120 122 119 127 128 134 140 147 155 155 154 162 169 176 179 184 179 181 178 171 165 227 209 167 162 167 147 166 168 173 175 175 166 145 154 158 154 161 159 145 145 148 150 158 174
 150 156 160 157 155 157 146 151 162 161 153 128  75  29 214 222 232 182 168 159 170 171 169 172 174 173 172 168 159 153 149 149 147 156 157 153 142 134 130 130 131 131 127 133 130 131 129 132 126 133 129 144 148 152 153 158 158 163 170 177 178 181 181 183 182 179 171 167 232 223 105 164 171 161 151 164 168 172 187 177 154 149 156 151 151 163 154 148 146 153 148 152
 163 173 172 176 158 161 156 151 160 158 139  81  47  85 220 221 232 224 164 162 168 171 172 173 173 174 174 174 168 160 156 153 153 157 165 167 164 164 153 145 138 133 133 132 133 137 140 140 145 154 156 160 161 162 161 167 170 177 179 182 181 180 184 181 182 178 169 176 239 228 112 127 164 158 154 151 158 163 172 172 155 155 158 153 148 162 164 154 151 154 145 143
 169 165 174 175 173 182 187 176 166 152 124  44  47 162 220 230 232 238 182 173 171 172 176 179 173 178 178 173 169 162 155 155 155 160 163 168 169 170 169 170 168 162 163 159 159 160 166 168 166 171 171 168 169 167 169 172 180 178 182 186 182 181 184 184 181 180 173 195 237 223 163  34 136 153 156 154 157 151 164 167 155 151 165 173 153 150 153 159 152 150 148 147
 170 184 173 168 167 185 183 177 164 148  45  43  36 206 218 230 231 236 236 172 178 176 181 175 182 176 181 176 174 167 157 158 155 163 161 165 168 173 178 180 184 185 185 181 180 181 181 179 181 176 177 175 170 175 173 181 181 185 188 186 183 186 185 182 182 181 182 228 235 225 193  40  60 157 155 161 166 164 167 158 161 152 158 170 158 149 152 150 154 158 149 146
 178 191 192 190 186 191 178 177 164  83  43  47  43 216 220 225 226 232 243 206 177 176 178 182 180 183 183 179 177 170 161 159 160 156 159 164 169 176 182 191 193 191 192 190 189 190 190 185 183 179 178 178 177 175 178 182 185 188 188 184 183 186 185 184 180 183 189 240 233 223 198  41  42 112 162 165 157 161 157 163 163 156 151 150 155 151 150 148 151 160 150 145
