P2
# Generated by OpenCV 4.2.0
92 112
255
  54  55  55  53  55  56  55  54  52  54  55  55  53  51  51  53  53  52  54  55  56  56  56  54  55  57  57  57  55  58  57  56  55  58  57  53  37  40  40  33  21  13  14   7   6   3   9  12   7  10  19  15   7   6   8  11  18  31  27  19  53  51  48  52  55  53  52  53  54  54  53  53  56  54  54  53  54  54  53  55  53  51  51  51  50  52  52  51  52  53  53  53
  53  53  54  54  54  54  54  53  54  55  55  55  54  54  54  53  52  51  53  54  54  55  54  54  55  57  57  55  56  57  55  55  59  49  57  48  16   8   8  11  10  10   7   6   6   4  12  19  23  34  30  20  28  24  29  16  11   8   7  10  25  33  40  46  52  53  55  54  55  56  53  53  54  54  54  54  56  55  54  54  54  53  51  51  51  52  53  52  52  53  54  54
  53  54  54  54  55  54  54  53  54  55  54  56  55  55  54  53  53  54  53  52  54  55  55  52  53  56  56  54  56  58  56  49  41  20  19  21  13   7   4   5   6   5   6   4   7   7  12  44  48  49  38  32  45  23  22  16  19  24  18   7   4   8  12  27  47  55  56  55  55  54  56  57  56  56  55  55  56  56  54  54  57  54  51  51  53  54  54  54  52  53  55  56
  53  53  53  53  55  54  51  53  53  54  54  55  54  54  54  52  52  54  55  54  55  55  55  53  54  55  54  55  56  44  26  35  56  24  10  22  23  13   7   5   4   5   8   6   7   5  14  41  27  27  26  25  20  15  11  15  19  27  33  28  17  10   8  11  23  44  56  58  55  55  55  58  59  58  55  56  57  56  54  54  56  55  53  53  54  54  54  55  52  54  56  56
  52  52  52  53  53  52  51  52  53  54  54  54  54  54  53  51  53  53  55  56  55  55  54  53  55  56  55  41  20   7   8   7  19  15   8  11  13   9   6   5   4   5   5   6  12   4   7  18  16  21  33  31  15  12   8  15  17  15  11  11  16  15  11  12  11  13  38  53  56  56  54  55  56  54  53  56  56  57  54  52  54  55  53  52  52  54  54  54  52  53  54  55
  52  52  52  52  53  53  52  53  53  53  54  55  55  55  54  51  52  54  54  56  56  55  55  55  52  42  25   9  14  25  16  20  22  12  10   5   8   8  10   9   6   5   5   4  12   7   3   9  16  23  37  20  11   5   8  16  24  28  31  15   5  13  14  12  18  13  15  34  51  54  55  56  56  54  53  54  55  55  55  53  52  55  54  53  52  53  54  53  53  53  54  56
  53  52  51  52  53  53  53  53  54  53  53  55  55  54  53  53  53  54  53  53  56  57  54  37  22  11  10  21  30  22   9  14  31  25  10  12  26  25  19  22  12   6   7   6   9   8   3   5  13  22  33  13   9   7   9  13  17  32  45  32  15   7  11  10  12  14  32  27  29  43  55  59  57  55  54  53  54  53  53  53  52  53  52  52  52  52  53  52  53  53  54  55
  52  52  53  53  53  54  53  53  54  54  55  56  54  53  53  54  53  53  54  52  56  45  22  19  17  14  21  28  12   5   4   3   1  10  13  10  27  43  18  12  11   8  10   7   9   9   7   8   6  26  34  18  11   8   8   5   6   6  13  17  20  19  13   9   9   7  22  42  15  23  39  36  51  56  54  53  54  53  52  52  52  53  52  53  53  53  52  52  53  55  56  56
  52  52  54  54  52  53  53  54  55  54  55  55  53  53  54  54  53  53  53  55  33  26  35  34  24  22  20   9   8  19  21   5   6   8  10   9  11  42  37   4   6  10  13   6   8  10  10   8   4  29  41  30  13  12  11  19  18  11  11  13  16  21  27  28  26  10   4  11  21  18  22  24  41  57  53  54  55  55  53  52  52  54  54  52  54  54  53  51  52  56  56  57
  53  54  54  54  53  53  53  54  54  53  54  54  53  53  53  54  52  51  56  37  33  51  44  24  27  18   8   7  13  10  11   9  10  10  12  11   9  29  35  13  11  10  13   6   7  11  12  10   6  18  41  30  22  21  12  12   9  11  16  13   5   6   6  13  29  33  15   2   5  12  16  26  46  53  52  53  54  55  54  54  53  54  53  53  54  53  53  53  54  57  57  56
  52  54  56  56  54  52  54  55  53  53  55  54  54  53  52  53  51  43  40  44  42  38  37  23  15   9   9   8  11   8   7  10  12  13  13  11  10  24  28  12  13  14  12  11  14  14  23  15   9  14  36  30  33  33   6   5  15  29  19  13  15  12   9   6   8  20  33  19   4   6  10  17  42  45  50  55  54  54  54  55  53  53  53  53  53  52  53  55  56  55  56  55
  53  55  58  56  55  54  54  54  54  55  55  54  53  54  56  59  45  43  52  44  31  23  31  29  11  12  10  12  14  12  12  14  11  15  15  15  15  28  35  12  14  20  14  15  14  13  29  20  13  11  27  37  37  28   7   9  33  42  20  14  10   8  14  17  12  10  19  41  24   5   9  13  17  39  47  52  54  54  53  53  52  51  53  52  53  53  54  55  55  55  52  55
  56  56  57  56  56  55  55  54  55  56  57  53  56  55  53  44  46  53  40  27  37  20  43  80  18  14  20  15  21  20  14  17  12  35  25  23  19  25  32  16  15  18  16  21  20   9  19  20  17  17  19  25  25  25  20  14  26  24  12   6   7   4   5   6  10  12  13  24  34  20   7   9  16  29  46  50  54  53  55  53  52  52  53  53  55  54  55  55  55  55  53  53
  56  55  55  58  56  54  55  56  56  56  55  55  54  53  37  38  46  29  14  36  53  37  25  92  61   7  15  16  21  29  20  19  14  41  36  33  22  22  25  17  18  23  18  25  27  11  14  18  22  30  25  13  24  47  40  17  23  17  12  17  22  13   6   7   6  10  15  21  30  31  16   7   8  19  28  40  54  53  55  53  54  55  54  54  54  55  54  54  55  55  55  53
  55  54  55  57  55  54  56  56  56  55  55  55  55  42  36  46  31  12  33  43  53  41  13  31  47  15   9  20  22  24  25  19  17  36  38  33  30  26  34  18  23  23  21  24  26  19  25  21  25  44  44  28  37  42  43  30  36  16  33  21  15  21  14  12  10   9  11   9  18  29  22  12   4   7  19  27  38  56  56  54  52  54  54  54  54  54  55  56  56  58  55  55
  54  55  55  55  55  54  54  57  57  55  56  56  43  34  56  40  12  20  53  39  38  26  15  21  28  20  12  15  21  19  20  19  16  32  39  38  37  24  34  26  24  21  26  28  30  31  37  37  30  39  51  57  32  31  48  45  49  26  20  25  35  36  41  31  23  17   6   7   7  19  26  18   6   7  10  17  24  47  54  52  52  53  53  54  55  54  55  57  56  56  54  54
  54  54  54  55  54  53  54  56  57  55  59  50  30  48  41  20   6  32  45  29  39  42  19  18  28  32  23  14  22  19  21  17  15  21  36  33  45  28  27  44  32  30  29  47  41  40  46  44  48  42  49  51  22  24  41  45  33  28  31  37  35  37  30  21  21  18  12  11  11   7  20  24  16   6   7  10  11  24  50  53  54  52  53  53  55  55  56  56  56  56  54  54
  55  56  54  54  54  52  53  54  54  54  57  30  39  40  18  11  25  40  33  61  38  40  27  20  26  47  48  35  34  23  21  17  16  20  29  27  38  43  30  33  38  49  36  59  57  41  49  42  44  35  43  35  27  24  34  44  28  39  40  28  28  21  27  37  32  32  25  26  24  23  15  23  22  12   9  10  15  17  40  55  49  53  53  54  53  55  57  58  57  57  55  57
  57  56  54  52  54  54  52  50  53  56  41  26  37  17   8  27  48  40  21  47  45  26  32  21  21  70  48  23  30  30  27  27  31  45  48  37  42  46  48  39  39  57  52  57  60  45  42  46  53  44  42  44  48  29  32  34  41  38  38  33  30  41  50  44  28  24  39  36  18  25  22  17  17  15  11   6   5   7  20  50  42  50  54  55  55  55  56  55  55  56  56  57
  54  55  54  55  53  54  52  51  62  51  22  28  21   7  25  44  53  43  23  35  44  29  36  27  15  40  32  20  25  27  31  38  49  48  46  45  49  57  66  66  66  74  72  69  67  69  63  64  87  66  60  63  74  56  43  38  43  39  49  48  42  32  26  24  27  31  34  43  26  20  25  22  21  17  14   9   7   8   9  25  40  47  53  55  54  54  56  54  53  54  56  57
  53  55  56  57  54  54  53  53  62  32  20  20   9  24  46  39  68  32  32  34  24  32  40  31  30  39  26  26  29  35  43  56  71  70  73  75  79  86  95  94  99 105 110 104 112 108 101 105 113 114 100 106 101  96  65  61  54  64  70  61  44  37  35  34  32  19  24  37  41  15  12  24  20  16  10  13  13   8   8  17  33  50  47  53  54  55  55  55  53  55  56  57
  53  56  57  54  53  54  55  54  53  24  25  14  11  56  30  67  57  17  30  26  20  26  19  20  30  38  33  39  43  48  56  81  91  90  95 105 112 124 136 142 139 145 145 133 144 154 135 145 140 150 155 145 135 131 101  85  83  87  94  90  73  73  71  65  60  25  21  36  45  27   7  15  27  15  10   8  12   8   8   9  24  49  40  36  51  56  56  55  55  56  57  56
  55  54  54  52  52  55  55  55  41  21  14   4  50  25  41  72  27  15  23  25  25  23  20  23  36  47  54  60  63  70  84  96 101 115 125 126 136 146 151 152 156 163 166 168 163 169 168 162 168 164 172 164 156 161 141 119 118 109 112 122 123 110 103  97  88  61  35  35  39  37   6   6  29  19   9   6   5  10  12   8  15  41  55  37  43  56  56  55  54  55  56  55
  55  53  52  51  52  54  54  52  48  15   4  35  56  15  64  38  14  13  30  32  25  25  27  35  60  88  87  86  98 109 118 125 132 139 143 143 140 146 148 154 156 160 161 168 172 174 173 172 170 170 169 168 163 160 152 146 136 132 129 133 138 131 122 122 115  94  69  29  34  39  12   6  21  33   9   8   7   6   9   5   7  22  45  36  32  51  58  55  54  56  57  56
  53  52  52  51  49  49  56  39  21  10  16  66  14  38  58  16  21  19  45  38  36  39  47  59  88 105 107 115 128 131 134 136 138 140 139 141 144 146 150 153 157 162 168 170 168 173 176 176 173 169 165 162 159 155 152 150 144 144 149 138 136 138 130 135 134 122  90  43  17  33  18  10  10  21  15   4   6   6   6   8  11  13  16  29  42  41  54  57  55  56  57  55
  52  52  51  48  47  53  62  32   7  10  35  43   4  57  36  15  35  32  66  66  64  54  64  83 101 114 119 127 131 134 138 139 140 138 138 146 152 154 156 161 165 169 170 174 176 174 178 177 174 170 165 163 159 157 155 156 148 150 149 147 145 135 132 141 135 128 113  72  30  22  16  10  14  13  26  14   9   8   9   8   8   9  10  18  24  22  35  55  54  57  60  56
  52  52  51  49  52  50  34  11   6   6  52  16  22  45  14  30  61  51  86  70  58  73  84  97 110 115 119 125 131 136 139 143 147 146 148 150 156 161 164 167 166 169 171 175 181 184 185 179 175 172 168 167 164 160 158 153 149 151 152 151 146 140 139 141 139 134 134 110  67  24  15   8  13  16  22  20  17  16  14  10   7   6   6   9  10  10  34  52  55  58  57  55
  52  55  56  56  46  19   6   7   7  27  50   7  29  25   5  54  92  67  81  50  65  82  89 103 111 116 122 130 135 137 139 141 148 151 154 157 159 164 164 166 170 171 175 183 189 193 189 186 181 178 172 171 164 161 160 155 153 151 151 153 152 148 140 140 141 142 134 123 105  63  33  12   5   7  11   8  17  22  19  13   6   5   8   8  10   5  14  48  51  54  54  54
  53  55  60  44  15  17  20  20  21  43  30  16  26  26  16  68 103  65  48  49  73  87  98 105 110 117 125 130 136 139 145 145 152 156 158 158 159 158 163 169 171 172 179 189 192 191 195 193 187 183 177 173 168 168 164 155 155 156 156 155 155 153 147 144 145 146 140 133 132  97  59  26  16  15  17  14   9   4   8  14  10   6   9  11  13   8  19  22  27  28  54  54
  52  56  44  18  30  31  22  36  26  46  17  19  22  32  22  60  76  47  28  50  75  80  94 106 114 118 126 134 133 139 142 146 154 157 159 158 162 162 168 171 175 180 188 196 199 205 206 205 202 192 185 181 175 171 176 172 157 156 157 155 159 156 152 150 146 143 146 141 136 113  85  57  39  53  32  19  18  22  11  11  12   8   9  11  19  15  26  28  33  25  49  54
  54  48  20  37  38  24  29  39  30  50  22  21  24  31  27  48  53  29  25  52  75  88 101 105 113 119 125 130 133 135 142 150 152 157 161 163 167 170 175 176 180 185 188 203 206 209 206 207 204 191 194 189 184 179 174 181 177 161 159 160 155 157 154 149 145 141 137 142 143 127 104  77  45  50  39  15  12  32  42  17  14  32  19  11  17  15  17  37  24  28  47  56
  54  29  35  39  37  34  39  28  49  48  19  19  18  30  46  43  31  19  30  57  80 104 103 104 115 119 121 128 137 140 148 151 153 155 160 164 169 176 176 181 183 190 197 207 211 209 208 208 207 194 191 193 189 186 184 178 176 175 165 163 160 154 154 152 146 145 140 144 150 136 115  82  56  45  34  22  22  22  37  38  13  24  28  14  15  13  10  33  30  39  44  56
  36  36  51  38  43  44  33  37  53  32  13  18  22  28  39  40  21  17  35  67 102 107 100 108 117 117 120 128 135 140 143 146 149 152 160 165 171 176 176 184 183 193 198 208 208 209 204 215 212 202 201 196 189 187 187 184 176 178 170 165 164 162 157 153 149 146 145 146 143 141 123  87  56  53  46  32  24  24  30  40  18  27  26  12  16  14  13  30  39  35  42  58
  29  54  57  31  54  53  29  43  51  35  14  28  26  16  33  34  19  20  46  87 122  99 102 106 112 114 122 128 133 137 133 140 146 147 159 166 169 173 172 183 186 193 196 206 208 212 214 216 208 201 203 201 193 185 183 183 174 167 167 166 162 161 157 154 153 146 146 149 146 148 134  98  64  42  41  36  25  12  16  34  21  20  15  10  16  18  18  26  42  26  41  59
  61  58  57  34  57  64  37  50  48  32  19  30  19  16  29  25  20  24  55  98 106  95 102 108 107 112 122 125 126 128 128 138 143 150 154 160 172 175 180 181 188 188 194 209 212 205 204 213 210 200 191 196 195 183 178 173 165 162 160 162 158 157 156 158 158 152 151 151 151 153 144 100  74  44  28  29  20  27  27  32  19  16   9  11  20  19  28  27  41  36  45  60
  69  65  56  45  51  58  37  56  48  29  24  28  26  24  24  23  18  28  65 101  85  95 103 108 103 110 116 118 120 123 126 133 139 149 158 161 168 176 184 184 186 188 199 205 206 202 208 211 201 194 186 184 181 177 171 166 149 152 156 155 154 154 152 153 158 157 155 157 161 167 158 111  67  48  35  20  19  20  30  24  22  11   7  12  22  18  35  43  41  42  57  62
  76  64  46  40  54  63  33  45  44  25  28  32  39  27  25  20  15  31  79  97  80  95 106 103 101 107 113 115 116 115 123 128 133 143 153 161 169 176 175 181 184 192 199 202 203 203 198 191 191 180 174 173 169 167 163 158 150 146 149 148 150 150 149 144 152 158 159 159 164 174 164 121  82  45  45  27  19  14  21  26  20   8   9  12  15  17  28  56  39  36  67  73
  76  68  55  51  48  61  34  34  32  21  37  36  45  27  24  15  16  37  79  87  80  93 102  98 101 113 110 110 113 118 128 133 142 150 159 164 171 173 174 180 186 191 199 206 202 201 194 193 195 190 174 170 169 165 164 162 157 155 155 154 151 149 151 147 148 152 157 163 169 172 172 124  80  52  33  31  26  20  31  30  16   7  11  11  13  17  32  61  48  40  57  80
  66  68  59  60  38  47  31  25  26  29  44  45  41  22  18  13  15  38  81  86  81  80  99 103 108 118 108 107 116 124 135 148 152 163 171 172 173 174 177 181 187 191 200 209 201 195 191 195 193 187 184 173 171 171 169 164 161 160 162 160 160 155 149 148 147 154 159 166 173 174 164 122  82  55  33  27  31  19  31  35  12   6  12  12  11  11  32  59  52  49  51  80
  67  75  57  45  32  30  27  21  24  33  44  45  26  13  13  14  15  41  75  86  77  74  97 105 104 106 107 111 124 138 148 157 164 172 177 181 179 183 182 183 192 202 205 200 192 192 192 190 183 183 188 189 186 183 181 175 172 174 168 164 156 153 149 143 145 154 161 171 174 169 156 128  86  55  33  22  22  22  26  33  13   5  11  10  11  11  24  48  45  53  48  82
  71  74  60  37  34  22  20  24  24  30  41  42  24  13  10  11  15  45  82  77  73  75  96 101 100 105 114 124 133 140 152 160 170 182 185 185 187 193 195 193 198 201 195 201 199 191 200 190 188 190 199 202 204 199 191 186 182 179 173 172 164 151 145 144 144 153 165 173 176 171 164 136  94  54  33  29  22  17  29  21  10   5   8   9  10  10  23  37  44  55  50  80
  63  68  61  37  37  17  21  25  19  22  36  36  19  12   9  11  18  42  79  65  67  76  96  98  99 109 117 119 131 145 159 169 175 186 189 189 199 199 204 210 205 206 206 208 202 190 200 192 192 192 209 217 212 209 200 192 187 179 173 172 159 140 135 130 126 148 160 167 178 173 165 141 107  63  34  37  27   8  27  18  10   7   6   8   8   9  24  39  41  54  49  74
  53  70  54  29  31  19  19  17  15  18  30  30  20   9   9  11  23  38  67  61  61  81 107  97  86  97 100 114 130 146 161 170 179 190 195 197 199 204 211 211 213 218 218 217 211 212 209 201 203 202 222 227 213 210 205 199 191 181 165 154 128 130 133 110  94 125 156 167 178 172 169 150 118  75  34  28  20   6  12  13   9   8   7   9   8   8  23  45  39  52  52  67
  44  62  45  27  24  24  14  15  11  16  20  24  16   9   7   7  22  40  66  56  55 110 136  91  71  72  83  95 101 123 145 169 183 189 195 201 201 200 209 215 219 222 224 222 219 219 217 208 200 204 221 220 214 208 202 197 185 165 153 120 116 139 125 106  90  99 140 169 172 171 173 155 123  85  33  18  12   8   6   8  11  14  13   9   8  12  24  38  35  36  55  63
  45  58  37  23  19  25  21  13  15  14  12  13   9   8   6   6  22  37  55  48  64 126 118  79  58  53  55  65  82  98 125 155 168 181 198 201 201 200 200 205 212 216 219 222 219 220 215 203 193 201 210 214 216 197 185 175 147 122 111 118 157 129 101  81  77  87 112 156 169 166 167 172 153 104  41  17  14  10   7   9  15  17   6   5   8  15  25  29  32  33  50  59
  37  53  29  14  19  22  22  15  24  17   9  11   9   9   5   5  23  39  53  45  90 109  84  62  53  38  32  36  43  58  74  99 129 149 177 193 199 203 195 202 200 204 213 216 213 206 208 200 194 202 202 197 194 169 126  99  76  60  66 147 119  84  92  86  71  65  87 117 150 155 159 173 175 134  59  23  16  24  21   8  15  76  75  12   4  14  22  24  33  33  50  53
  19  40  29  17  24  18  18  10  20  22  11   8   8  12   5   5  22  38  47  50 110  96  63  44  44  40  35  31  31  39  42  57  66  84 129 166 183 195 193 197 195 193 200 207 208 201 197 195 195 190 166 147 108  85  70  53  42  53 120 118  74  69  72  81  89  82  71  90 132 142 157 170 174 153  71  27  30  36  32  20  19 120 170  70   6  16  18  20  35  32  41  43
  23  18  24  30  26  25  17   7  13  15   7   7   8  14   5   6  20  35  42  65 102  77  48  38  55  68  75  71  67  49  38  34  37  47  62  93 123 155 187 190 185 185 193 194 198 198 193 183 178 172 137 107  66  54  47  43  76 136 104  40  50  74  84  95 104  96  92  81 103 137 148 166 171 152  81  30  28  37  42  34  29  88  77  77  22  16  15  21  30  38  37  42
  57  22  17  25  20  12  14   9   8   6   5   7   7  12   6   5  24  41  41  94  95  56  55  74  83 100 133 144 155 138  99  58  35  30  36  50  69 106 154 167 178 188 188 187 192 191 190 185 165 150 126  87  60  59  69  98 146 145 106 121 145 153 148 157 163 142 101  79  81 125 151 161 167 154  89  37  26  31  43  35  22  55  71  93  40  13  13  23  40  50  38  37
  62  51  22  19  25  13  16  12   8   6   4   7   7   8   6   6  31  38  57 117  93  63  78 108 128 141 152 159 166 175 166 127  85  58  46  47  51  71 110 153 168 174 181 183 191 193 184 179 159 131 116  98  95 102 119 133 147 147 160 175 177 172 168 171 168 149 112  93 101 123 147 161 162 154  93  41  32  29  40  39  47  91 133 104  29  11  12  22  43  53  47  35
  53  58  35  11  22  17  17   9   6  12   6   5   6   7   5  18  36  37  86 128  93  65  99 123 127 124 108 100  98 102  99  89  85  71  58  57  62  75  96 131 151 153 169 179 183 186 178 170 153 130 119 110 103  94  95  93  85  86  92  98  97  99 108 129 147 144 137 109 104 112 140 160 158 151  99  46  36  37  40  43 104 169 126  71  15  14  12  23  49  51  47  40
  55  58  47   9  18  20  17   8  15  21   4   5   8   7  16  34  38  65 123 129  96  66 111 118  93  76  69  63  48  33  41  50  32  50  54  53  53  58  80 105 123 139 153 169 176 175 166 155 145 121  95  79  70  61  53  35  13  20  23  17  36  60  79  78  89 122 135 108 108 121 144 159 158 158 117  52  36  33  32  41 103 120  91  77  24  15  13  18  38  49  51  50
  55  54  56  14  18  26  23  22  20  19   4   4   6   9  32  36  45 111 148 134 102  79 107 103  62  45  34  39  26  13  23  35  64 124  99  66  63  60  50  75 101 120 137 157 172 174 166 156 132  96  83  81  71  82 120 129  44  35  32  18  30  29  39  52  83 108 118 114 124 138 157 162 160 157 126  62  34  27  29  58  88  78  72 100  41  15  13  16  34  54  50  54
  54  53  53  31   6  24  24  14  21  20   3   3  11  18  37  38  75 139 146 133 112  94 112 115  52  16  29  55  63  55  79 102 121 158 132 109  82  74  75  70 103 125 142 164 186 185 173 167 130 121 120  94 122 134 136 145 109 115 103  92  82  68  63  46  82 131 142 152 148 147 160 163 160 155 130  89  57  44  53  72  89 104 112 133  50  16  15  12  36  54  55  60
  55  55  52  50  23  37  26  16  34  16   3   7  14  22  33  46 100 144 147 140 128 110  96  84  71  92  92 106 112 124 149 167 148 154 155 157 163 155 148 106 111 131 153 181 204 196 177 162 143 160 174 178 176 155 153 157 156 170 155 163 153 150 150 136 113 120 154 168 166 160 161 159 166 162 139 112  82  60  68 110 130 142 152 152  62  14  22  15  25  53  59  58
  54  55  54  51  60  35   7  28  43  14   4  14  17  32  36  63 124 143 153 148 143 145 127 105 133 142 142 155 163 162 157 174 172 166 157 141 147 162 143 124 125 127 154 177 196 192 172 160 156 165 180 184 170 144 134 146 158 177 179 177 178 178 168 163 167 160 152 164 167 167 163 165 170 167 148 125  97  90  79 109 152 144 142 182  93  13  19  17  21  53  61  61
  53  55  54  55  46  20   7  37  33  13   9  11  33  39  35  74 138 148 160 158 148 153 148 141 137 130 138 147 149 147 137 138 131 122 120 135 157 141 126 133 121 122 148 168 180 174 166 160 153 149 159 182 180 148 125 118 120 125 134 141 144 158 159 158 165 163 119 163 170 168 168 173 170 171 156 126 106 107 105 105 139 156 170 197 121  10  11  10  18  52  62  60
  54  54  56  52  31  13  15  36  30   7   8  14  49  43  42  83 145 158 174 168 150 149 145 146 142 127 121 121 126 127 128 129 137 150 167 178 156 135 134 130 113 121 150 161 168 165 161 154 151 157 159 164 177 167 152 145 150 157 159 158 162 168 165 170 172 164 153 164 165 171 172 173 166 167 156 121 100 119 141 124 139 176 187 190  64  14   6   6  17  46  62  59
  56  55  53  51  27  10  22  31  26   7   4  28  70  43  46  98 157 166 177 167 150 146 149 149 147 143 146 149 149 162 165 159 169 188 188 165 147 135 131 113 106 127 149 161 165 163 152 147 145 153 161 160 173 185 181 170 170 185 187 186 193 186 183 183 179 177 173 173 151 135 171 169 158 167 167 122  83 119 146 139 148 191 197 101  15  32   9   4  15  43  63  61
  55  57  53  55  18  20  23  30  16   8   6  42  55  38  43 103 150 155 173 166 151 151 152 145 151 160 168 176 178 184 179 177 183 181 159 151 145 131 122 105 107 131 147 167 174 167 153 144 138 143 157 157 167 184 190 185 177 178 188 184 181 180 183 181 177 172 175 177 167 156 168 165 155 170 172 119  78 104 154 147 167 206 169  54  28  35  28  15  23  48  63  62
  55  54  56  51  15  20  17  30   9   6  14  36  38  35  43  99 132 139 167 166 148 148 151 153 153 153 156 162 168 182 181 181 172 161 160 156 144 136 111 106 114 121 146 162 175 173 158 141 138 143 149 155 168 194 184 183 188 187 187 189 190 185 183 182 181 175 170 170 173 157 174 173 150 157 165 118  76 106 138 150 171 207 144  44  32  42  38  18  23  49  64  61
  55  56  57  40  20  16  21  33   7  11  21  29  37  45  46  86 126 129 151 164 148 149 155 158 155 157 155 160 172 179 179 179 181 183 176 153 149 136 111 110 113 123 147 160 167 164 154 140 135 144 146 152 170 184 193 180 180 178 175 182 195 196 179 174 177 178 180 165 159 168 188 167 141 155 153 110  72  99 140 156 173 204 101  34  27  55  38  11  22  62  63  62
  52  58  51  40  28  13  33  19   9  12   8  13  33  39  42  72 107 115 140 171 159 153 156 158 157 160 159 164 170 180 194 199 201 200 169 157 153 136 118 111 104 114 143 162 171 167 155 145 130 139 143 155 178 185 183 189 184 182 187 186 185 192 196 173 167 176 181 171 160 161 166 159 138 149 146  97  61  93 136 142 174 171  64  33  22  57  40  16  32  67  64  63
  47  58  53  51  25  18  37  12  14   8   5  10  30  46  41  55  89 102 131 175 164 154 150 152 153 153 159 164 177 193 211 207 197 182 165 163 156 141 123 104  98 116 135 153 167 169 164 150 133 132 143 170 194 204 196 199 193 194 196 200 196 191 191 183 169 173 173 174 174 167 153 144 138 141 136  87  55  73 114 137 152 107  48  40  22  54  40  32  44  68  64  63
  48  60  51  51  17  22  23  15  15   7   6  14  38  40  39  47  77  92 125 148 149 150 149 149 152 155 160 171 183 200 206 203 198 179 173 165 147 130 122 104  99 119 133 147 161 168 159 154 140 126 141 162 187 202 218 215 207 199 196 202 207 204 195 186 175 176 177 174 172 172 148 132 132 138 124  69  65  99 121 113 103  52  38  34  21  40  33  45  60  67  65  64
  47  57  50  50  16  24  15  22  13   9  10  11  22  30  42  49  64  87 118 124 132 147 151 152 151 157 165 178 184 192 196 198 194 184 175 157 121 116 127 107 102 117 134 153 168 172 162 161 157 124 140 150 162 177 197 211 213 210 215 214 212 211 202 189 176 175 178 176 166 165 148 129 130 138 123  57  51  91 119 108  68  26  31  26  26  31  30  52  73  66  65  65
  58  50  50  48  22  15  15  36  18  15  19  10  19  34  32  33  54  90 125 125 127 156 158 158 152 161 170 180 185 184 190 187 182 176 169 139 103 120 130 114 111 120 144 164 174 179 169 163 172 133 144 151 149 164 173 183 193 198 206 210 208 206 196 187 179 180 177 174 161 157 152 132 122 125 114  52  61 102 105  93  40  21  26  19  27  35  46  56  70  64  67  66
  60  47  43  48  25   9  19  40  23  20  10   6  22  49  25  32  43  78 124 126 127 139 148 147 149 160 171 177 183 187 184 182 175 164 158 119 107 132 131 121 123 135 159 178 185 203 180 169 180 144 153 159 147 155 176 167 174 182 196 199 200 204 196 187 180 177 175 172 161 141 140 135 125 114 101  55  52  75 113  78  19  15  19  18  22  37  49  56  61  62  64  63
  56  52  36  47  15  11  26  25  21  20   6  10  17  37  30  32  43  66 106 117 117 134 133 134 154 157 165 174 178 181 178 179 171 165 149 106 115 141 144 126 130 157 170 182 199 234 199 167 187 169 166 169 154 143 171 166 164 173 182 186 194 193 190 186 175 171 172 169 162 136 127 115 103 102  94  57  73  74  93  49  10  14  14  17  24  28  52  62  60  60  61  60
  56  55  43  49  24  14  23  30  20  19  17  14  10  23  23  40  49  53  93 108 110 114 119 127 144 154 161 170 176 178 173 167 174 176 149  95 110 127 115 107 133 157 172 181 192 210 189 169 173 173 152 163 149 144 178 177 164 158 155 175 184 186 188 180 169 165 164 162 158 137 121 122 100  90  78  65  67  72  35  17  13  18  17  20  26  33  35  52  64  64  62  58
  57  55  46  54  46  24  31  39  23  18  26  13  15  20  20  36  41  42  71  99 104 114 118 121 134 146 162 167 168 168 165 166 178 178 158  94  68  85  53  45  83 123 154 173 179 187 177 165 144 105  78 112 127 164 197 194 171 151 154 169 179 183 181 176 165 160 147 149 136 134 113 112  95  87  71  64  40  19  14  13  10  15  19  14  23  41  44  43  48  53  59  60
  57  53  47  52  53  36  25  29  29  25  32  22  18  24  29  33  37  49  65  91  89 104 113 122 131 138 148 155 154 151 152 168 178 170 161 117  50  49  53  38  36  62 113 152 160 166 169 133  84  87 102  90 121 178 194 202 191 164 149 159 171 173 171 168 163 157 150 128 125 125  93  91  96  77  61  60  41  19  16  11   8  10  13  11  15  33  57  63  61  56  59  61
  56  55  47  54  56  37  23  33  49  31   8  17  22  22  40  33  38  52  62  78  86 105 111 123 132 132 139 135 133 144 153 162 165 163 160 131  81  76  67  52  40  32  60 118 131 136 122  70  96 121 127 135 149 177 189 192 194 192 173 161 162 161 158 158 160 158 156 135 122 100  74  80  94  74  57  44  40  23  15   6   7   7   9  13  29  44  53  60  65  63  61  61
  53  57  48  54  54  26  26  38  70  57  11  19  17  27  33  32  45  40  50  68  88 109 105 123 127 128 133 132 141 157 161 154 151 146 144 123  77  63  62  49  47  47  39  75  90 100  83  98 109 115 119 106 125 162 180 187 188 198 197 184 173 164 155 152 153 153 155 152 133  91  88  86  83  57  51  46  33  21  14   9  11   9   7  11  20  39  57  60  59  59  60  61
  55  59  52  47  55  28  33  35  86  56   2  18  11  18  36  38  32  36  52  61  81  95  97 110 123 127 130 132 138 132 131 125 127 117 110  82  49  37  40  30  49  68  63  47  50  60  92 109  84  50  60  77  91 121 145 158 166 173 165 159 162 163 157 147 147 146 149 155 156 122  87  80  78  52  43  47  32  23  21  10   7   6   6   9  14  17  33  53  58  59  60  60
  58  61  57  45  39  23  31  35  71  43   4  17  18  11  29  34  26  46  58  71  81  95  98 105 118 120 122 104  85  95  84  84  89  90  62  43  39  32  30  38  59  98  83  53  58  62  77  76 104  71  56  67  49  66  82 102 124 136 134 116 115 126 145 146 136 138 142 150 158 133  76  64  70  53  37  38  31  21  22  13   7  10   8   8  14  23  20  22  39  52  58  61
  57  57  60  50  25  19  26  26  53  42   9  16  20  13  33  54  54  67  49  65  89  93  93 104 109 118 111  61  66  74  48  63  59  50  33  43  42  41  40  46  77 100  42  60  61  45  68  65  87  83  63  59  44  49  50  66  72  77  89  76  75  82 115 142 139 134 129 139 132 100  99  72  61  53  37  38  29  24  15  10   8  10   9  14  15  25  25  11  14  24  33  48
  54  56  58  47  27  24  30  24  42  35  22  17  11  25  41  50  48  56  51  65  78  81  75 101  94 103  74  48  81  54  54  59  57  42  42  44  50  54  57  56  73  43  36  57  48  40  56 100  73  74  81  75  48  61  55  54  56  48  49  46  56  58  77 127 143 147 130 104 112 104 119  83  59  48  34  38  28  17  18  23   8  10  12  20  23  24  35  30  12   7  11  27
  54  55  57  38  30  24  18  23  42  42  32  22  11  15  27  35  35  43  53  62  71  74  62  86  81  58  59  75  64  48  59  68  55  43  58  54  53  54  49  62  62  76  72  90 126  99  60 115 107  91  89  94  67  81  69  55  65  56  46  45  46  46  60 108 143 148 121 105 105 106 116  84  57  52  40  30  26  22  22  24  12  14  14  29  37  32  18  45  32  17  21  33
  55  54  54  40  28  25  23  17  27  34  33  30  17  11  17  33  32  38  39  53  61  67  58  65  64  49  65  75  58  52  54  56  43  49  54  47  40  40  42  65  84  99 104 139 155 132  84  93 109  97  92  82  83  82  78  70  58  62  62  57  50  45  50  92 135 135 114  99  97 115 119  80  49  53  50  26  25  28  27  23  19  21  28  37  55  38  23  17  40  27  30  43
  55  55  55  34  24  27  30  16  20  43  28  22  16  22  23  25  37  40  36  49  57  73  58  59  55  49  63  57  60  53  55  42  40  50  40  39  28  35  43  66  85  88  95  93  93  95  82  75  82  70  65  68  66  58  57  63  54  52  75  73  62  56  59  88 110 120 111  81  87 116 101  78  57  43  45  26  28  19  30  23  27  36  36  41  50  47  35  16  16  27  32  39
  56  53  56  38  20  33  31  15  15  35  29  19  19  28  19  16  38  37  41  49  55  62  54  54  43  44  47  48  46  53  51  46  56  53  34  34  33  44  73 121 146 156 163 161 153 151 152 148 138 114 101  94  71  63  75  83  84  76  62  80  68  59  66  90  85  97  97  69  86  97  76  65  57  39  41  29  28  27  32  32  33  44  49  44  37  39  33  30  16  18  32  41
  55  54  54  50  23  17  22  12  12  24  21  29  20  21  17  18  29  32  42  43  43  50  48  47  36  38  38  39  43  46  35  52  75  56  46  56  63  80 101 126 138 150 157 176 188 196 207 190 161 141 125 122 126 121 115 100 113 113  82  51  57  55  82  81  70  83  99  69  74  79  67  63  50  38  36  27  24  39  29  26  33  40  62  32  27  34  28  37  25  10  28  55
  53  53  55  44  25  16  12  15  17  17  18  16  17  17  16  19  25  23  37  39  41  45  62  42  31  37  40  51  64  38  39  86 100  81  67  71  97 117 133 139 149 160 170 177 187 202 205 196 180 172 168 166 165 153 125 116 143 144 113  50  41  43  61  79  71  74  78  62  64  55  61  65  49  35  31  27  23  38  18  18  17  28  47  21  19  32  24  25  26  12  16  53
  52  53  53  52  41  38  24  14  14   8  10  16  12  17  17  25  29  21  25  41  46  45  60  32  32  32  33  49  49  33  74 120 126 118 105  96 101 118 134 146 156 167 170 168 175 180 169 175 164 169 174 165 150 149 139 147 153 154 129  66  24  26  49  73  63  72  73  67  62  52  65  55  33  41  25  22  31  26  18  21  17  19  30  12  15  25  20  22  21  15  10  36
  52  55  54  55  48  40  43  27  19  11  13  12  16  13  19  22  22  22  26  42  36  42  35  37  39  36  28  29  28  35  87 119 140 145 134 127 125 113 111 123 127 138 136 125 137 142 131 135 131 132 147 158 156 162 164 168 169 164 112  70  29  20  40  67  50  61  66  80  61  50  59  48  39  52  23  18  25  21  20  18  15  17  25  19  14  20  18  16  16  19  12  33
  53  53  55  54  52  44  35  25  17  11  11  14  11  11  23  19  20  24  27  25  29  30  25  38  36  28  33  29  23  46  75  88 126 154 153 151 149 132 120 113 117 127 101  87 101 100 114 123 126 122 137 171 177 175 178 183 184 146  93  51  40  26  29  66  53  56  57  57  60  60  48  42  38  42  28  25  25  19   8  10  12  16  22  29  18  13  24  19  11  15  23  39
  53  53  52  52  53  53  47  34  28  25  19  21  15  12  15  21  19  38  28  35  33  28  26  39  31  28  26  22  29  46  53  74 101 140 153 156 144 124 124 113 129 132  78  85 104  80  91 128 136 138 137 167 184 183 185 173 152 108  59  48  43  31  26  38  38  45  55  56  55  55  43  42  39  44  35  26  23  20  12   9  13  15  19  21  18  12  17  14  10  10  21  46
  53  53  54  51  50  50  48  45  42  45  37  27  18   8  14  15  22  32  30  37  27  25  28  37  37  22  23  26  25  32  40  59  84 122 141 145 129 122 120 135 161 110  83 133 162 112  95 150 169 154 142 166 189 184 182 152  99  67  42  34  35  28  22  30  24  35  45  54  46  43  36  39  45  42  32  29  25  13  15   9   9  14  19  15  18  18  17  17  16  13  31  53
  54  53  53  51  50  35  22  18  18  24  26  11  11  13  14  15  29  29  24  31  36  29  24  25  37  29  22  26  23  23  32  49  73  86 119 138 140 145 153 162 131 102 148 185 178 131 109 158 167 163 147 175 188 172 155 123  68  42  34  31  27  23  21  24  29  27  39  54  43  45  34  29  33  42  43  28  20  14  14  10   9  12  11  12  12  15  26  34  33  21  46  55
  52  53  53  54  52  47  35  21  10   7   8   9   9   9  15  16  23  27  20  24  30  33  26  25  29  27  23  31  19  33  33  53  57  75 101 124 139 152 155 143 119 126 170 179 168 143 126 158 161 159 138 178 175 141 118  91  60  31  27  29  24  22  23  36  31  24  31  33  39  39  29  34  34  42  46  31  16  16   9   7  10  13  10  10  12  14  22  33  32  35  58  58
  52  52  53  54  54  56  50  27  17  12   8  12  13  12  13   9  18  23  19  22  29  32  29  30  35  26  23  23  26  35  23  44  49  66  82  88 108 123 117 122 107 128 149 149 162 144 143 144 156 165 132 151 152 106  81  73  51  34  26  28  25  23  22  32  31  22  34  27  37  32  30  43  41  49  54  34  20  17  10  11  14  17  17  13  15  26  39  42  47  61  58  58
  53  52  52  55  57  42  22  17  16  13  10  16  15  20  13   7  17  22  24  28  23  24  33  34  40  49  29  14  29  35  35  31  39  41  47  52  77  78  89 105  96 107  99 125 158 145 137 127 134 148 115 116 122 105  66  49  35  32  37  29  26  25  27  24  26  37  33  32  30  34  40  47  46  58  77  45  25   9  12  15  15  22  25  21  21  29  37  47  62  64  60  59
  53  53  54  53  43  29  23  21  17  16  18  27  22  21  11   6  18  28  24  34  39  24  30  37  24  29  33  25  27  20  24  28  33  30  42  48  63  66  92  76  66  85  90 119 138 128 133  86 109 123 100 103  85 101  64  39  29  30  31  31  35  28  32  35  30  40  34  28  26  31  39  45  55  71  99  59  48  18   9  13  12  21  25  29  31  19  15  18  33  53  64  63
  51  52  52  45  36  32  30  32  33  32  32  35  29  26  14   9  13  17  20  30  58  36  45  36  20  22  24  30  22  21  27  35  24  34  38  51  52  54  51  59  67  78  86 110 107 124 120  72  81 110  73  76  65  79  64  40  24  32  35  27  37  30  26  32  31  27  28  27  37  36  35  57  76  81 101  74  61  37  12  19  10  10  22  34  40  29  34  37  30  32  43  57
  52  54  54  49  45  44  45  45  41  40  38  35  33  25  12   8  10   8  13  45  55  37  49  32  34  25  19  20  17  23  30  19  33  39  37  44  45  44  48  58  54  71  89 107  84 103  96  66  61 103  65  48  59  56  46  32  26  25  37  28  33  30  34  42  30  23  21  25  38  46  43  62  89 108 115  92  71  69  23  23  28  22  28  58  51  35  42  50  54  61  51  39
  59  60  57  56  55  51  51  44  41  37  37  36  37  26  10   9  12  14  10  45  61  41  38  31  29  17  17  24  23  24  18  18  35  25  31  40  54  44  46  48  41  68  89 106  74  75  81  61  51  76  69  43  51  41  26  28  22  28  30  36  35  30  37  35  30  24  25  25  29  52  51  78 110 123 125 102  85  99  35  23  25  31  36  61  56  36  46  49  46  56  75  72
  62  57  57  59  56  52  47  39  40  38  41  39  39  28  16  11   5  11  13  43  64  38  37  37  35  25  22  21  31  24  23  43  27  28  38  40  50  48  38  41  50  57  76  84  61  55  62  49  38  51  62  37  42  32  17  22  19  21  17  34  29  27  43  33  26  28  29  27  35  48  59  97 108 122 129 105  95 111  38  27  26  51  51  59  69  50  46  55  44  44  48  65
  57  52  57  58  54  53  51  48  44  43  43  40  38  40  25   9   3  10  18  34  51  39  37  38  27  28  38  27  27  22  28  36  24  36  32  32  42  38  32  40  49  40  55  77  49  44  54  41  27  48  50  24  28  23  14  12  20  24  19  32  33  24  37  40  34  20  25  27  35  44  82 112 120 125 130 106  94 123  45  19  68 123  66  56  58  60  57  59  46  46  48  42
  62  67  69  69  63  60  55  47  43  43  57  55  41  40  29   8   4   8  14  28  72  55  41  31  27  27  38  37  27  26  29  21  37  46  19  39  37  39  33  32  37  42  44  52  32  45  43  27  35  46  34  34  21  15  14  15  13  16  15  24  44  27  29  47  39  18  23  29  43  65  97 119 125 127 133 101  93 133  58  16  75 147  75  55  58  61  55  64  52  48  48  46
  67  67  66  62  60  58  59  60  58  54  45  36  30  41  35  12   4  11  13  21  75  62  39  33  33  27  40  38  25  21  33  33  43  29  25  25  42  47  30  22  31  34  27  31  53  40  22  22  40  36  21  29  18  15  13  17  16  14  11  22  39  40  24  41  28  21  26  37  55  89 110 123 126 129 135  96  94 133  53  15  75 147  65  52  55  65  60  62  58  51  48  47
  76  77  77  74  70  66  62  56  43  36  34  42  36  54  33  24   9  15  17  15  48  49  39  30  24  29  28  32  26  15  29  34  25  25  19  25  35  33  21  21  30  27  20  24  39  21  24  22  25  31  18  12  13  15  12  12  18  21  15  23  28  39  30  34  35  29  25  50  83 110 118 124 127 133 131  91  99 127  39  17  82 138  59  52  56  57  58  64  54  51  45  46
  87  90  83  78  65  60  57  54  40  36  40  44  43  67  40  26  14  15  19  18  32  35  29  26  28  27  27  28  25  29  35  22  19  20  27  24  18  35  21  24  25  19  15  17  25  26  40  34  26  24  16  13  16  27  18  11  20  18  24  22  20  33  37  29  27  33  43  65 105 121 131 136 131 132 123  85 102 122  35  17  85 121  58  53  59  68  61  63  52  53  49  46
  88  87  79  82  65  53  48  51  37  30  42  47  62  91  54   5   7  19  22  18  23  29  28  27  36  26  32  25  21  35  30  18  19  24  24  15  15  36  20  29  26  21  15  20  23  30  29  27  24  23  16  14  19  28  19  16  16  17  20  17  14  35  37  24  29  38  54  68  94 130 136 132 132 132 113  89 111 111  25  18  83  91  43  71  61  57  57  65  61  56  51  48
  93  73  65  71  56  48  43  41  34  35  56  61  64 100  64  11   9  23  24  22  24  30  25  27  33  32  36  25  23  25  24  19  15  25  17  13  16  31  21  27  22  19  15  20  26  26  24  19  21  16  12  18  17  25  19  19  18  18  19  13  20  31  29  33  31  39  56  98 109 135 131 133 131 129 107  94 116  92  19  18  81  77  40  73  76  73  70  62  61  67  68  60
  96  71  59  54  43  39  30  30  37  32  58  72  68  86  60  12  12  31  25  30  31  25  28  26  31  33  29  23  21  21  21  15  20  43  16  16  14  30  20  24  24  21  15  24  22  29  30  21  20  11  12  15  15  19  16  18  22  17  12  21  23  29  34  28  24  35  79 118 136 140 137 133 133 116 107  98 119  74  21  20  87  76  56  46  54  62  59  57  59  63  64  60
  56  57  51  44  41  37  36  41  43  30  60  60  61  95  57  14  14  37  30  26  26  24  23  23  30  24  28  33  27  21  14  17  41  54  14  22  12  25  20  21  22  25  18  21  32  21  17  23  15  15  19  18  26  21  19  16  24  15  23  33  27  50  30  29  31  43  97 141 144 145 140 134 122 111 113 107 115  43  25  21  77  56  66  62  75  82  55  48  49  57  65  62
  68  65  60  55  45  38  43  52  40  32  64  58  48  77  56  14  16  42  33  26  26  27  24  23  25  22  22  25  28  19  18  21  38  37  19  17  12  19  19  23  24  25  24  13  21  20  20  17  15  20  20  12  27  27  20  27  19  22  26  22  35  42  28  37  45  58  97 136 140 146 143 127 117 118 115 117  91  28  28  27  68  53  86  80  62  79  76  86  84  87  69  59
  69  59  59  55  49  53  52  51  36  36  73  68  50  79  54  15  17  46  37  28  28  30  27  22  23  27  35  22  24  20  21  19  38  27  20  17  15  10  25  20  36  24  27  19  17  17  29  21  14  12  17  13  26  29  36  25  18  28  22  29  33  37  33  50  60  78 103 132 141 146 132 119 119 119 113 121  57  30  31  23  84  73 131  78  67  87  77  82  81  87  93  83
  53  53  50  52  52  59  67  61  37  38  75  75  56  84  59  18  10  22  35  32  29  30  29  21  22  21  37  33  28  30  16  17  31  28  19  20  15  11  20  21  32  24  29  25  15  21  18  30  17  12  17  27  30  25  26  17  25  35  25  28  27  33  36  60  69  86 129 145 142 128 125 127 123 117 118 109  31  49  37  21  87  89 143  83  83 114  82  77  98  81  80  81
  52  51  51  56  59  60  64  61  48  43  74  63  59  92  59  19  18  14  16  31  31  31  30  25  20  23  24  28  25  19  16  20  29  28  21  24  15  16  18  21  28  26  22  16  14  20  14  25  25  17  14  33  26  22  18  15  24  33  23  23  30  36  47  74  91 130 146 143 139 137 134 132 130 119 125  79  28  87  41  19  71 101 139  97  82 112 100  67  96 111  94  77
  53  56  61  57  63  60  64  54  50  49  84  62  65  96  52  22  19  20  12  27  34  29  32  31  24  32  32  26  20  24  29  33  30  22  25  23  17  22  20  19  26  24  19  19  20  25  20  22  22  20  21  29  23  14  21  21  17  28  25  26  44  63  71  97 117 144 143 140 140 138 138 136 134 128 118  43  53 106  29  30  92  98 123  89  69  86  79  62  74  90  89  84
