P2
# Generated by OpenCV 4.2.0
92 112
255
 255 255 255 255 255 255 255 255 255 255 255 255 255 255 255 255 255 255 255 255 255 255 255 255 255 255 255 255 255 253 250 252 150  69  16   8  14  14  18  15  25  25  30  36  57  46  56  63  42  26  32  39  30  44  42  26   0  25   8  16   2   4   6   0 171 254 237 244 251 255 255 255 255 255 255 255 255 255 255 255 255 255 255 255 255 255 255 254 253 255 254 241
 255 255 255 255 255 255 255 255 255 255 255 255 255 255 255 255 255 255 255 255 254 255 255 255 255 249 255 255 250 238 188  23   8  16  12  10   9   6  12   1  18  25  49  54  45  51  47  31  36  23  20  15  13   9   7   5   8  10  29  25  46  26  13   8   9  96 254 253 253 253 254 254 255 253 255 255 255 255 255 255 255 255 255 254 255 255 255 255 254 254 246 168
 255 255 255 255 255 255 255 255 255 255 255 255 255 255 255 255 255 255 255 255 255 255 255 255 255 250 250 245 172   7  12  23   9   7  16  21  21  27  24  23   4  38  50  34  42  39  27  39  24  11   1   3   4  16  29  16  11  11  13   7   4   6   2  11  22  16 183 234 247 249 254 255 255 252 255 254 255 255 255 255 255 255 255 255 255 255 255 255 251 251 186 111
 255 255 255 255 255 255 255 255 255 255 255 255 255 255 255 255 255 255 255 254 254 254 255 254 254 253 215  22  12   6   4  22  26  21  18  36  63  73  52  50  27  30  56  54  38  36  31  37  14  11   6   5  16  13  16  23  10  17   4   3  13   0   3  11  25  28  18  74 218 226 248 252 252 254 254 255 254 255 255 255 255 255 254 254 255 254 253 253 252 201  97  95
 255 255 255 255 255 255 255 255 255 255 255 255 255 255 255 255 255 255 255 255 255 255 247 246 252  58  38  27  37  60  42   6  10  29  38  22  29  13  38  48  53  56  69  60  52  42  56  15  11  33  36  45  55  56  30  19  14   9   9  14   3   5   0   0   1  21  37  16  89 144 242 252 255 252 255 255 255 255 255 255 255 255 253 255 255 255 253 254 217 103  90  91
 255 255 255 255 255 255 255 255 255 255 255 255 255 255 255 255 255 255 255 254 255 252 241 166  38  67  42  34  35  12  23   4   7   7  11   9  14  25  11  13  25  44  64  53  63  59  26  30  27  67  98  57  55  53  29  25   9  41  16  18   8  60  27  47  42  22  16  16  27  39 105 248 249 253 254 255 255 255 255 255 255 255 255 255 254 253 253 232 117  91  91  87
 255 255 255 255 255 255 255 255 255 255 255 255 255 255 255 255 255 255 255 252 241 246  99  29  32  39  28  35  35  21  22  14   7   4   7  12   4   6  13  19  39   7  44  62  65  56  24  46  77  78  66  90  67  41  68  59  69  36  17   9   4   7  44  26  47  35  23  15  14  24  20  79 242 250 255 255 252 255 253 255 255 255 255 253 254 254 241 131  90  91  88  89
 255 255 255 255 255 255 255 255 255 255 255 255 255 255 255 255 250 251 254 238  80  20  20  50  21  35  37  47  43  35  37  22  32  31  28  24  14   8   9  22  46  28  33  67  67  69  28  99  77  76  66  81  46  35  29  36  33  30  21   7  23  17   1  10   5   2   4   6  15  21  40  50  64 211 254 250 253 255 255 255 255 255 254 254 254 245 153  88  88  88  87  86
 255 255 255 255 255 255 255 255 255 255 254 255 255 255 255 255 248 251 238  83  63  37  28  55  38  55  68  71  79  56  54  44  39  67  53  30  25  22  21  50  27  63  62  83 110  51  89  60  85  44  66  53  15  29  33  42  53  47  43   8  24  13  16   4  12  21  24   8   4   6  30  45  54  60 179 248 239 247 249 254 255 255 254 253 252 171  87  91  91  88  89  89
 255 255 255 255 255 255 255 255 255 255 255 255 255 255 253 255 249 250  95  53  30  36  10  39  42  61  66  80  92  62  78  58  46  56  42  84  43  38  44  40  51  54  90  78 105  47  81  65  56  50  46  14   7  51  29  60  92  44  60  30   2   8   8   9   9   5  14   6   5  17  18  31  53  70  48 149 255 255 255 248 252 255 255 248 192  94  89  94  91  89  89  87
 255 255 255 255 255 255 255 255 255 255 255 255 255 254 253 252 253 155  76  39  25  18  21   9  63  31  51  62  63  61  69 101  35  45  19  82  47  62  60  51  56  65 106  86  69  59  85  63  54  31  30  14  22  20  44  70  23  67  20  18  31  19  18  16  15  23  18  18  10  24  32  61  60  58  77  72 133 243 254 254 255 254 253 213  98  88  87  85  93  92  89  92
 255 255 255 255 255 255 255 255 254 255 255 255 255 247 251 248 123 111  62  24   7   8  19  13  27  31  38  61  59  57  62  82  43  58  63  51  65  66  78  61  79  69 112  70  60  74  73  60  50  39  19  22  32  25  35  31  50  55  49  67  60  53  53  47  62  54  50  36  33  55  56  77  81  73  62  89  68 148 255 254 254 254 225 113  88  89  86  92  92  93  93  98
 255 255 255 255 255 255 255 255 255 255 253 251 252 248 238  78 101  81  50  28  11  18  18  46  24  30  31  34  56  70  49  79  67  47  48  47  54  62  63  57  52  71  99  48  55  94  56  49  47  67  27  66  35  34  19  49  53  58  68  36  56  89  41  50  61  79  74  74  61  52  25  38  54  69  46  66  62  72 188 249 251 235 131  91  85  83  89  89  93  91  98 132
 255 255 255 255 255 255 255 255 255 255 250 251 254 188  99  88 104  41  19  20  19  34  34  39  39  37  48  57  65  69  57  52  74  53  50  40  52  40  57  66  61  62  69  71  71  65  66  40  44  65  46  52  43  24  27  54  53  30  22  39  57  29  52  62  54  51  73  26  36  11  27  40  54  36  52  46  66  51  76 232 223 148  87  84  85  84  87  87  89  93 123 172
 255 255 255 255 254 255 255 255 255 255 255 255 241  61  97  86  70  36  19  36  16  12  18  21  25  40  46  73  54  65  51  51  51  66  62  59  53  46  58  57  73  65  72  78  63  65  71  70  50  63  75  55  48  19  26  30  25  17  14  27  27  46  28  62  44  48  49  13   6  11  26  56  45  46  30  54  57  47  64 140 158  87  88  83  83  86  86  83  91 112 160 193
 255 255 255 255 255 255 254 250 252 252 240 225 174  64  71  43  33  15  15   9  13   6  32  49  39  48  47  53  62  62  60  57  72  75  68  61  71  64  61  72  92  88  80  85  86  77  89 104  82  85 101  73  61  58  36  36  31  28  24  36  43  44  49  35  39  28  23   5   7  13  22  32  58  47  43  56  53  34  55  84 109  87  80  83  82  83  84  85 104 151 187 198
 255 255 255 255 255 255 255 254 249 218  86  68  33  44  26  30  28  16  12   7   8   7  29  68  58  58  50  64  56  61  60  75  82  81  85  83  94 109 108 118 127 114 112 122 123 115 114 148 144 128 141 121  73  70  57  59  77  70  65  56  56  43  39  31  30  26  17  17   1   7  13  33  64  55  69  68  65  45  39  70 100  91  93  87  85  83  86  99 148 179 193 196
 255 255 255 255 255 255 254 250 237 157  63  40  45  24  33  13  16   8  16  13  13  17  42  59  69  71  86  64  71 104  86 102 105 118 123 132 145 150 155 148 160 169 162 165 169 155 174 171 198 187 178 168 124 134 109 124 139 132 116  96  79  78  62  60  50  35  28  30  26  15  21  24  59  59  96  87  82  64  53  63  61 100  87  84  87  90  94 135 175 189 193 193
 255 255 255 255 255 255 253 238 251 112  31  23  26  12  12  12  10  29  46  34   8  31  48  72  82  85  77 103 119 131 135 124 130 143 159 174 182 185 184 184 191 197 204 203 210 191 196 203 203 208 200 190 185 169 164 157 178 158 146 134 132  97  86  74  73  57  53  42  12   5  13  22  51  66  68  55  89  73  69  74  70  85  87  87  88  93 128 172 190 188 194 192
 255 255 255 255 255 254 243 245 119  31  20  15  15   7  11  12  16  13  20  20  29  23  51  70  83  95 130 133 146 147 163 171 181 184 185 185 189 191 192 189 194 200 209 211 217 213 218 216 214 209 204 205 206 195 183 176 175 170 166 158 150 162 151 129 113  88  81  64  60  25   1   7  48  56  56  39  80 100  87  55  79  75  84  89  96 122 169 188 191 191 197 194
 255 255 255 255 254 255 254 185  36   8  13  21  10   3   7  23  16  40  42  38  31  33  60  86  77 143 154 162 171 172 184 184 184 180 183 183 185 184 190 194 198 202 203 204 212 218 214 213 213 204 204 202 200 204 204 198 196 193 184 179 173 180 184 175 151 125 129  88  80  45   5  23  34  59  40  63  56  83  99  58  79  48  75  85 113 163 191 188 188 191 194 195
 255 255 255 255 254 248 212  34  21  13  16   4   7  17  57  10  26  45  61  41  46  53  79  67 135 156 164 172 177 179 185 184 181 180 183 188 190 189 194 203 200 207 207 204 212 216 217 212 210 207 205 202 204 205 200 197 194 193 193 187 181 183 186 178 179 157 145 112  92  67  38   9  29  58  26  43  48  50  88  65  72  39  77  97 136 177 193 190 189 193 193 194
 255 254 255 255 253 245  42  18  13  11  14   3  29  60  37  17  54  50  34  37  59  71  71 143 152 165 170 169 180 180 181 185 183 184 185 187 190 193 200 201 197 201 209 211 217 219 218 220 212 211 202 203 207 206 201 194 197 199 196 192 185 183 188 181 175 172 153 125 100  94  43  14  24  52  16  33  28  32  88  71  80  73  62  94 170 176 185 192 192 189 192 193
 255 255 255 255 254  46  15   1   2   1   0  57  38  23  10  20  37  22  40  55  74  86 117 151 155 174 171 175 181 182 180 180 182 187 187 191 195 197 198 203 203 210 211 216 217 222 225 221 217 214 206 201 206 203 204 196 199 196 205 196 185 182 186 178 178 176 174 130 108 106  80  26  19  64  23  13  46  17  77  73  74  75  27 107 140 167 171 192 190 190 194 190
 255 255 254 255 101  27  16  70  56  59  84  34  21  26  10  32  23  29  33  58  89 115 130 145 160 170 173 175 176 180 184 172 188 190 191 187 187 191 198 194 209 209 215 217 222 226 225 225 218 214 209 201 203 208 196 203 203 204 204 208 193 186 184 182 175 176 174 168 144 104  65  35  21  44  13   9  58  28  47  77  50 119  88  23 103 168 174 172 181 189 187 193
 255 255 250 230  45  49  49  56  51  56  57  22   7   6  22  25  30  19  37  68 114 125 133 145 161 165 172 171 175 177 179 179 186 191 192 194 196 197 192 195 203 210 220 222 227 227 231 227 222 220 215 211 208 210 213 200 190 196 200 207 194 187 189 181 172 174 175 168 148 109  80  58  39  26  11   7  30  43  31  72  49  84  64 115  43 131 167 187 169 184 190 192
 255 255 255  58  41  52  94 177  79  87  43   1   2  32  34  14  23  22  53  84 115 133 140 149 158 163 170 171 169 168 178 182 188 193 192 200 193 201 197 204 208 212 215 215 215 214 217 216 212 219 214 213 210 212 214 206 199 200 198 194 187 184 184 185 171 172 174 170 154 117  95  79  67  31  12   4  18  16  20  66  82  32 140  83  87  40 149 166 150 174 187 193
 254 250 156  43  39 186 229 222  76  28  49  11  20  16  11  15   6  25  62  96 116 134 140 150 154 159 168 174 173 171 176 181 182 189 190 198 198 200 200 204 209 213 219 225 220 218 226 220 217 221 211 209 215 212 203 214 195 192 202 196 190 190 184 183 182 167 169 175 158 139 104  70  76  49   8   0  43  11   2  38  59  46  71 125  86  97  27 131 170 150 174 191
 250 255  35  44  74 151 169  90  47  58  36  38  29  66  12   2  10  31  71 102 121 136 141 149 152 159 164 170 177 175 175 182 185 191 196 199 199 199 211 205 212 215 219 213 223 219 224 218 218 214 219 210 204 207 214 202 194 190 197 195 194 186 184 178 179 179 178 176 168 140  96  92  72  33   5   1  31  10   4  10  93  51  43 125  79  81 100  27  72 106 119 132
 250 162  22 145  48 187 235  61  41  51  57  44  47  57  23   6  14  43  81 109 126 134 137 140 145 158 162 168 172 171 173 179 184 193 200 202 204 199 202 211 211 211 215 213 217 216 222 216 212 214 217 211 201 204 199 190 185 184 189 184 187 183 187 182 179 177 178 174 165 138  99  78  70  38  16  16   9  11  10  22  16  91  55  45 143  53  47  99  67  56 172 166
 253  53  62 149  50 228 243  63  49  23  54  76  22  19  24   9  30  51  82 105 125 134 134 136 139 151 161 165 167 170 178 185 190 196 197 203 207 213 207 216 212 215 218 219 214 225 222 218 216 215 213 211 205 205 193 183 187 186 181 185 181 178 181 182 176 164 171 164 158 141 109  77  54  26  32  58   4  29  14  44  11  59  85  63  62 120  44  40 121 116  40 161
 230  28 142 153  90 233 139  54  38  52  67  50  12  23   6  10  11  42  76 104 117 132 135 131 136 146 155 162 166 172 177 178 185 199 204 209 213 206 212 213 220 217 225 221 212 211 218 220 210 210 208 206 205 201 206 202 195 194 187 183 183 180 173 176 178 179 165 162 157 141 111  97  45  44  15  36  34  52  42  46  14   5  59  80  83  71 102  68  42 107 113  56
 137  20 125 181 147 234 101  32  63  47  45  38  28  21   8   8  11  49  78 103 112 128 129 121 128 130 144 162 175 178 184 192 190 199 203 210 208 210 214 225 222 221 225 222 216 216 215 214 222 216 204 210 211 205 205 205 203 192 186 185 183 182 178 171 172 167 165 158 154 135 108  80  53  16   0  14  10  80  15  27  78  23  25  69  91  69  82  77  88  62  83  83
  60  27 179 161 180 191  53  52  55  29  50  55  32  33  10   8  11  46  74 101 109 120 125 124 124 138 156 170 181 186 193 196 206 207 209 214 217 213 213 224 216 218 222 218 214 210 214 209 213 214 217 218 218 218 208 207 203 196 192 183 177 176 170 168 170 162 159 158 153 140 127  87  43  24   1  13  79 101  22  13  48  54  61   6  98  94  51  65  63  53  65  91
  63  69 194 123 158 158  48  65  29  34  83  88  50  48   1   5  14  39  74  95 111 116 123 128 129 149 162 176 181 185 195 199 209 212 215 220 218 219 218 226 226 228 227 224 221 223 210 211 217 215 222 222 220 218 213 207 204 201 195 177 175 176 170 165 170 165 163 158 143 136 122  89  38  15   5   7 111  14   3  32   6  41  44  59  33  72  86  33  84  72  39  41
  56 184 154 110 126 118  41  43  31  44  53 101  66  42   4  12  21  43  69  88 112 120 130 119 131 154 156 167 183 182 194 199 202 209 213 220 224 227 223 228 228 232 233 231 220 217 210 210 208 220 224 229 228 215 210 207 201 197 188 163 190 171 157 135 148 167 161 162 148 141 116  86  35  16   1  30  58  17   0  19   3  16   7  32  51  59  63 120  25  96  54  36
  53 226 114  83 157  99  26  28  45  36  48  60  89  27  10   4  11  39  73  85 106 120 121 106 106 121 148 163 168 181 190 200 205 208 216 219 221 221 230 233 235 234 236 233 223 224 213 207 209 232 234 226 223 219 207 204 200 179 149 151 189 158 127 111 137 157 156 160 149 142 127  95  35  14   1  18  13   1   0   0  14  17   4   1   6  38  59  74  98   9  81  18
  48 231 138  74 159  59  37  17  38  24  47  57  87  21   6   0  14  29  65  83 105 115 107  82  72  91 113 134 146 157 175 197 209 213 208 210 219 222 224 223 231 234 236 233 230 218 210 210 207 221 228 224 212 209 191 175 153 144 121 153 143 122 111  98 123 132 147 151 155 142 130 103  45  19   3   9   3   0   0   0   3  13  32  13  21  17  30  60  83  74  50  35
  34 198 250  44 143  54  39  16  17  33  64  78  86   1   5   0   6  47  72  87  99 106  96  71  66  60  74  86 104 137 171 175 192 202 205 210 208 212 217 222 222 228 232 227 223 211 202 201 201 209 211 209 189 177 146 127 111 101 127 154 133 101  85  87  97 111 141 151 154 139 132 112  67  18   5   7  24   1   0   2   2   6  10  22  31  27  33  34  34  71  65  67
  37 238 249  46  50  64  33  18  28  39  54  66  90   0   2   1   6  47  80  88  91  84  72  66  57  37  45  56  76  96 119 143 150 187 198 201 208 199 205 202 206 212 212 212 211 212 201 190 191 182 181 171 135 111  85  75  45  79 123 117  89  82  83  84  91  88 100 143 146 140 132 113  86  27   7   8   4   0   0   0   7   6  10  13  42  34  10  29  17  31  50  53
  48 230 252  68  47  56  43  22  64  24  36  40  65   1   0   0   3  50  73  87  86  66  57  54  56  44  34  34  54  67  75  88 120 142 166 183 190 191 195 194 199 203 203 204 200 202 195 188 167 142 115  82  73  57  35  33  73 123  77  67  84  98 103 105  97  96  92 116 134 133 132 121 104  22   5   5   1   1   2   3  21  29   7  13  31  28  33  19  19  30  25  39
  36 186 255  68  32  42  35  23  78   0  24  19  40   0   0   1   3  58  78  89  76  56  50  67  76  55  47  33  31  26  39  64  79  90 121 152 164 173 184 188 181 190 189 195 197 190 177 160 141 120  78  47  44  35  41  69 134  78  66  72  93 114 108 121 117 100  88  94 124 125 131 120 115  27   5   0   4   5   0  11  28  39   8  21  32  27  48  32  10  22  46   6
  31 182 255 100  97  36  15  24   6  15  17  11  25   0   0   1   4  71  76  90  55  52  59  78  98 111 105  93  57  47  32  26  28  48  74  78 108 154 160 168 174 179 181 182 183 180 158 128 115  92  70  54  47  50  57  97  98 100 121 153 148 145 154 159 116 103  92  73 100 125 131 130 112  48  11   4  18   5   0  38  39   7  15  20  37  35  57  50  20  25   6  32
  76 166 255 161  97  25   9  18   1   6  11  11  13   0   0   1  10  65  74  82  53  58  72 111 127 137 149 142 130  71  44  33  28  32  37  52  74  98 127 146 162 174 166 175 175 161 140 105  91  75  69  56  48  48  72  97  99 120 130 126 126 129 144 139 135 116  99  82 109 122 128 129 127  84  35   0  18   7  15  70  38   1  15  20  35  49  77  59  29  10   8  28
  89 134 251 193 130  22  16   7   0   7   6   6  11   9   0   2  21  60  77  76  53  59  84 115 124 125 105  97  83  62  41  33  28  27  40  43  53  71  99 115 137 151 161 169 162 150 134 101  78  70  58  53  46  43  29  20  17  19  27  37  36  52  95 118 129 121  92  80  87 122 130 129 129 110  44  22  16  28  45  69  20   4   4  13  36  61  59  55  39  17   4  41
 100 157 213 227  56  18  16   0   0   5   2   9   5   0   0   6  22  68  78  84  60  63  86 101  88  40  59  99 113 119  51  26  11   9  18  38  49  59  69  83  99 123 138 148 149 152 133 102  79  64  54  43  11  23  24  23  22  29  47  73 131 133  63  64 100 104  80  79 107 131 142 136 140 121  58  31   8  50  78  24  32   6   1  17  46  53  81  72  24  23  10  14
 163 142 228 231  73  18   6   1   3   6   8   5   7   0   0   7  32  74  92  77  60  58  80  69  40  85  80  50  24  11   2   5   6   9  19   9  21  40  55  61  81 105 126 144 162 163 147 108  70  55  38  35  41  34  88  36  37   1  15  19  33  66  96  64  83  82  76  93 117 140 149 138 141 127  49  43  20  34  58   3  40  14   3  16  25  51  88  62  33  20   8  14
 242 119 200 235 114  20   4   0   1   6   3   5  19   0   3  16  55  82  95  79  62  57  73  54  47  44  29  50  36  46  20  27  38  33   7   5  15  12  30  58  97 129 162 183 193 179 163 113  67  63  42  34  60 127 143  83  68  49  67  47  83  49  47  75  88  90 108 121 132 155 159 143 149 138  45  53  37  45  51  52  12   7  18   3  61  47  45  76  49  30  16  14
 224 212 209 214 130  22   2   1   3   4   0  12   2   0   4  21  64  92 104  84  68  61  69  66  41  38  73 100  82  80  92 121 139  97  66  38  19  30  39  83 136 158 198 211 216 197 163 148 160 157 165 184 165 156 169 172 182 153 164 140 117 104  65  75  99 143 160 154 153 164 168 149 158 135  57  66  29 174   7  55  23  14  14  11  18  58  53  85  38  45  19  17
 122 201 173 120 114  19   0   6   1   2   6   0   1  15   9  47  79 101 112  85  72  66  64  64  59  63  72  80 102 143 157 127 139 152 143 128 116 127 136 136 150 185 215 226 225 201 184 177 190 208 185 163 149 158 151 139 131 103 130 113 106 123  86 140 151 169 178 181 171 175 166 158 156 146  74  75  78  93   6  26  67  27  30  23  17  34  61  47  78  40  21  13
  81 187 107 119 124  14   2   3   5   3  10   8   1   0  34  45  90 108 118 109 104 100  94  98  79  77  91 113 119 136 137 133 142 151 146 142 157 152 155 163 161 189 209 218 215 206 196 187 183 187 207 188 134 111 118 135 139 137 137 115 104 116 135 157 182 192 192 190 181 178 172 161 149 136  97  75 116  33   1  27   6  66  50  61  31  38  55  64  45  58  33  27
 118 224 159 139 167  12   5  18   9   2  63   2   5  14  45  54  96 108 123 129 130 131 138 124 109  90  84  94  95  93  93  98 102  95 118 159 184 165 167 160 172 194 209 212 213 202 191 195 196 196 205 200 168 137 105  91  91  91 103  97 124 159 164 176 189 118 185 191 193 179 171 167 148 145 124  72 131  12   0  15  10   4  44  65  70  31  57  64  76  47  27  38
 136 225 108 112 230  23   6   3   0   0  56   1   5  17  48  69  95 119 131 138 147 147 141 128 118 112  91  95  96  85  85  83 114 157 183 188 182 165 164 161 171 193 202 211 210 193 189 190 197 197 198 209 200 183 162 155 156 150 141 152 172 162 175 189 193 188 190 191 191 182 168 157 147 137 133  72 132   3   0   9  14   3  22  57  64  81   9  40  62  81  44  34
 199 194  90  89  92   8   1   1   0   3  41   9  10  21  52  66 107 117 128 143 152 157 148 142 153 151 149 135 133 140 156 176 182 187 199 199 175 160 147 149 174 186 213 216 213 199 188 187 191 197 193 205 214 206 182 191 208 214 203 206 209 198 209 204 197 195 192 199 180 185 167 152 140 137 123  52 128   6   0   4  10  11  23  77  39  58  44  27  46  55  31  37
 253 177 100  88  92   0   6   8  36  11  22  22  15  30  37  70 106 116 133 144 157 159 159 160 165 173 179 182 194 193 191 192 190 200 202 187 168 157 147 154 158 190 205 216 217 205 185 180 185 187 191 201 217 219 201 187 196 207 199 205 205 204 207 205 206 201 202 201 143 166 162 150 133 133 122  50 117   7   0   2  37  11  16  59  63  38  30  17  24  36  46  37
 245 123 104 207  72  23  57  32   4   0   7   2  24  13  50  72  99 109 126 138 156 172 170 161 168 173 179 192 192 194 204 205 206 206 194 180 178 153 146 147 162 187 203 215 213 198 186 177 179 187 184 203 214 218 216 210 202 208 207 208 204 205 202 203 199 206 202 196 180 172 170 149 133 134 136  63 105  21   0   8  35  52   3  60  48  21  15  11  15  13  25  30
 192 148  66 223  45  74  30   5   1   6   5  14  22  37  49  58  94 101 126 136 151 166 168 168 171 178 182 183 196 203 206 208 208 203 199 177 174 155 137 142 160 190 207 218 220 201 189 172 175 183 187 204 210 221 220 214 215 209 206 214 208 207 205 205 200 202 202 192 170 182 157 147 130 134 125  61 102  17   2   3  33  74  21  66  39  30  20   6  24  15  24  18
 202 169  49  62  66  56  17  30  20   5   1  10  37  52  47  55  84  99 117 134 149 162 168 178 177 180 182 191 196 200 208 210 212 208 197 186 168 154 141 141 163 182 200 214 222 209 194 175 178 178 183 205 215 218 224 224 215 210 209 209 214 206 204 204 200 198 179 176 188 170 161 143 128 134 108  48  76   9   4   4   3 104 106  33  31  23  19   4   4  38  39  32
 177 229  63 144  65   9   9   1   6   2   1  11  25  35  30  53  71  89 113 122 142 159 173 174 179 186 182 186 193 202 209 212 212 209 200 186 163 150 148 146 177 193 205 212 216 205 200 185 168 177 183 203 207 209 220 221 219 219 217 211 217 201 199 199 205 200 187 180 168 166 147 136 131 137 106  26  61  19   2   0   0  91 114  42  13  10  12   5   4  14  28  36
 225 198  77 118  75  33   0   1  17   2   0  16  40  32  32  34  50  82 113 123 140 160 163 175 184 186 186 196 204 204 215 213 202 208 197 186 156 147 157 157 183 194 213 220 223 210 195 187 170 181 176 189 207 216 221 221 221 219 219 214 212 209 197 200 202 188 190 180 169 151 137 128 120 137  86  18  42  36  39   3   0 114  66  75  62  12  10   5   2   6  26  45
 250 179  50 190  35  38  17   1  10   0   0   7  29  32  40  34  56  69 105 126 135 148 161 179 180 183 191 195 203 209 216 212 208 210 203 182 141 159 171 179 187 203 213 222 233 211 193 184 181 189 178 176 198 210 211 216 215 201 217 220 220 213 205 202 200 186 183 177 160 146 127 118 113 133  81  18  25  53  32   8   0 114  39  68  39   7   7   6   0   0   9  20
 248  98 127 204 134  45   6   1  12   4   3   6   9  18  42  39  39  53  97 117 129 139 160 173 172 181 184 193 200 205 203 212 209 210 202 186 158 175 173 185 191 208 221 224 247 210 198 187 198 200 201 176 189 199 208 204 211 212 210 214 218 214 206 200 196 185 176 170 158 147 130 113 113 123  80  36  30  45  23  47   0  91  22  38   6  21   9   5   1   0   6  15
 203 170 164 105 243  22  10  23  14   6   5   9  12   4  33  34  29  34  79 113 118 133 144 162 170 181 182 191 202 198 203 205 208 203 196 191 164 163 156 174 195 207 213 217 229 211 196 188 198 196 199 186 188 188 198 198 205 207 206 213 211 204 203 196 192 179 168 168 147 123 115 104 107 111  69  35  44  42  32  65   3  57   8  26   1  33   1   3   6   0   2   3
 155 242 187  74 236 114   7  18   2  12   7   9   8   3  39  43  28  29  62 106 118 124 140 153 169 176 184 189 196 194 192 200 198 196 186 177 125 107 100 125 156 183 198 198 199 195 183 172 168 145 161 174 194 184 183 191 199 204 205 211 208 201 200 193 187 180 167 154 145 128 115 106 118  88  57  23  53  35  41  80  15  44  11  17   0  20   5   0  11   1   0   1
 148 245 247  87 181 174   4  28  11  13  14   7   4  15  28  42  32  20  47  89 105 116 128 141 158 170 179 188 195 198 195 195 192 190 182 160  87  37   4  40  86 132 164 171 179 178 149 108  23  12 100 148 193 188 177 184 194 198 195 196 197 195 189 186 184 169 164 144 145 125 103  89  99  93  58  24  30  25  29  43  41  28  10  10   4   5   4   0  15   0   0   1
 191 212 254 207  54  32  49  34  33  20  34  17   9   1  13  46  42  27  34  78  97 118 121 120 139 165 172 179 183 182 188 184 195 189 187 137  71  26   7   2  13  81 123 133 138 136  88   7  21  37  93 107 199 193 177 170 168 179 187 190 193 193 188 185 173 163 154 129 134 114 101  82  95  72  70  13  16  26  19  19   9  22   8  12  49   5   0   0   6   2   0   0
 254 214 234 240  89  32  58  67  70  40  36  39  11   5  12  16  43  25  40  65  90 106  92 125 127 161 170 171 178 180 186 187 183 189 185 103  60  42  37  48  46  43  77  83  92  86  41  67  92 138  95 106 205 209 194 172 170 180 184 186 188 181 176 175 157 154 130 124 120 107  83  85  85  71  62  22   9  25  16   4   1  21   4   8  29   0   0   0   0   6   0   0
 253 157 251 194  74  48  44  44  64  58  62  35  13   6   3   3  24  17  39  53  84  86  98 116 129 149 160 166 174 170 174 180 180 195 189 122  69  82  28  43  46  45  51  47  57  59  69  80 133 133 168 191 205 216 208 182 173 179 175 179 180 174 169 163 148 126 119 119 102  90  80  75  76  75  74  19  15   4   8   0   0  12   7  14   4   1   8   1   0   2   0   0
 254 233  80  77 117  79  50  38  37  73  56  40  40   4   2   0  18  12  45  64  78  75  83 104 123 142 153 152 158 167 168 169 184 189 191 182  92 102  62  37  18  31  31  20  34  61  86 153 142 163 183 183 206 218 210 202 181 174 175 172 169 168 170 169 155 142 120 119 103  84  76  70  67  58  60  44  17   6  10   0   1   4   3  17   1   0   0   2   2   0   4   0
 245 230  89  82 145  67  50  29  37  44  47  34  16   8   6   0   3  11  49  44  62  68  95  91 123 135 139 151 155 157 166 172 178 183 186 166  78  55  73  65  72  38  19  29  45  67 160 119 116 136  92 148 188 207 211 209 203 188 179 171 168 168 170 163 159 149 129 123 102  88  78  73  60  56  54  26   8  14  10   1   6   4   4   0   0   0   1   0   2   0   7   3
 253 124 238 126  63  55  45  59  65  83  67  42  21   6   2   1   1   9  35  40  55  68  94  97 112 136 143 148 157 159 171 169 167 161 147  73  63  45  51  59  80 113  69  45  53 118 119 133  95  97  92  92 127 147 193 192 193 192 188 180 172 165 161 168 163 171 144 128 103  86  65  74  70  43  45  28  23  19  12  38   3   2   3   2   0  13   8   7  10  16   2   9
 230 127 207  73  81  61  33  22  35  54  60  38  15  10   6   0   0  13  29  52  51  74  83 101 106 131 149 147 153 165 143 144 118 115  79  67  65  62  51  76  85  73  61  54  59  99  98 133 104  66  67  68  69 102 137 155 158 160 168 179 173 167 166 156 170 179 172 141 106  80  61  74  63  42  29  39  24  35  31   0   2   1   3   0   1   1  27   9   3   2   0   5
 108 118 233  79 149  58  35  28  38  25  27  32  14   3   6   1   9  29  33  41  49  70  87 105 112 133 138 144 150 124 106  98  86  77  68  63  62  43  85  72  86  70  54  61  52  90 143 114 115  87  71  62  51  72  83  83  93  99 132 158 177 170 159 146 178 190 164 114 113  82  64  67  54  32  25  19   9  15   3   4   2   1   2   0  34  16  30  27   4   0  12  13
  86 222  76  94  93  54  41  47  33  31   7  40  12  10   7   4  30  20  49  32  44  74  88 108 113 133 133 121  96 107  92  66  83  90  47  52  56  66  64  83  77  68  63  51  70 122 144 107 125 101  76  67  68  70  70  79  63  67  82 113 143 167 160 172 162 157 128 131 110  78  69  54  54  26  20  16  31  10   3   0   0   1   0  11   1   8  19  14  17   0   2  11
 145 246  53 109 100  80  47  65  30  28  27 122  44  15  14   3   7  28  34  43  50  69  94  94 108 120 123 109  86 101  73  92  56  52  58  50  50  45  45  51  53  77  69 123  98 105 118  98  99 101  97  89  72  80  75  68  71  71  76  78  93 153 168 172 146 130 134 125 106  82  86  71  44  48  17  21  10   4   3   0   0   3   0  25  51   0  15  20  30  40   4   0
 156 213  70 150 106  61  58  55  52  29  85  53  40  32  20   8  10  11  19  23  59  67  91  94  90 112 100  85  99  84  80  42  76  52  35  52  39  30  42  62  60  76  74  75  74  71  85  85  90  74  51  69  67  67  96  75  69  71  80  65  81 104 135 167 147 130 114 121 108 107  78  76  59  34  23  15  16   4   0   0   0   0   1  17  12  15  21  29  30  32  75  10
 126 179  68 111  66  54  83  65  50  64  62  58  24  23  36  20  15  13  22  26  53  65  85  67  69 115 100  87  67  68  50  69  36  42  17  29  12  14  11  17  31  32  35  43  38  57  84  64  46  36  21  36  51  35  52  91  63  73  93  79  81 100 133 152 136 120 102 115 106 116  69  73  57  25  36  39  11   2   0   0   0   2  12   0   1   8   7  22  65  60  43  87
  17 120  89  71  33  71  63  70  55  48 119  48  23  35  33  14  20   1  24  30  47  62  77  56 100  69  83  79  63  61  65  53  21  43   7   9  38  56  86  97 176 193 205 203 184 182 213 198 178 179 104 105  54  68  71  65  43  61  78  90  77  83 107 145 130  99  97 111 126  85  71  71  51  17  47  26  16   4   0   0   0   1   0   0   0  10   7  13  31  10  89  65
  53  98  57  51  36  44  55  70  72 101 112  63  21  36  45  27  22   5  31  13  47  52  68  77  73  67  86  49  54  49  40  15  20  22  34  67  54  63  94 152 174 195 202 203 203 193 199 190 171 168 131 144  87  79  99  71  38  35  64  95  90  98 128 116  98 101  95 105  79  72  71  57  60  31  17  26   2   1   1   4   0   1   3   0   6   5   9  10  17   6   5  11
  78  57  48  39  55  25  58  79  76 169  75  63  45  32  30  34  31  38   4  17  41  40  71  49  68  69  61  57  49  29  37   4  27  46  34  73  50  78 127 159 173 184 194 189 193 189 183 193 180 165 133 121  93  75 112 115  77  48  43  80 108  87 110 101  90  87 100  99  67  63  51  60  60  47  38  32   7   1   1   1   4   0   6  12   3   3   1   0  14  12   4   1
 195  29  44  35  33  26  49  63  85  99  88  61  65  38  63  24  31   9  30  27  32  43  47  65  62  56  45  35  34  28  23  19  79  56  63  68  51  70  91 103 107  88  92  98  90  73  98 107 119 123 102 116  97  80 134 135 134  69  51  37  80  99  73 116  78  87 108  77  53  62  50  41  31  52  26  13  12   2   1   2   4   5   6   6  17  11   3   6   8   7   8   2
 254  46  46  20  23  37  59  61 120  99  80  58 130  38  37  14  22  18  17  11  22  41  55  48  49  28  47  33  37  57  22  53  88  73 134  83  86 101  96 116  84  90  89 105 101 108 117  91 114 134 140 138 146 101 138 174 144  86  46  35  78  71  66  85  75  85  86  71  52  58  31  29  47  44  13  29  16   2   0  14   6  12   3  10  22  18  11   2  16  14   4   4
 252  97  37  21  23  36  59  47 119 102  61  49 113  47  19  11  12  12   3   4  23  32  48  44  36  25  36  37  30  34  24  62  78 133 167 140 156 143 113 106 112 113  76  77  76  87 110 120 125 143 172 169 173 146 152 175 134  87  28  30  47  75  69  88  63  81  83  61  44  38  32  37  29  34  13  29  15   9   8  15  26  18  17  19  25  12  44  33  14  28  27   2
 249 144  38  47  21  34  51  70 105  70  26  33  59  37  18  12  12  18  13  35  29  35  31  43  30  18  22  48  24  23  30  58  73 131 168 177 177 165 119 112 124 123  84 111 112 102 138 157 148 153 176 191 191 182 152 143 122  80  24  17  33  44  86  51  71  81  79  47  32  26  34  44  48  13  19  30  21  14  16  18  28  18  17  27  16  21  18  47  31  39  51  24
 218  59  41  32  23  56  62  82  88  28  21  39  37  30  20  19  12  14  13  18  36  21  33  34  18  27  30  21  24  16  32  68  71 126 175 168 165 145 137 147 141 133 144 128 148 120 144 167 179 182 199 214 209 161 141  85  81  49  31  17  38  38  26  61  52  48  57  42  30  30  15  34  37  24  21  17  33  30  29  32  39  20   8  21  35  30  33  25  49  32  60  65
  74  44  36  15   9  29 118  78  36  14  26  44  41  32  38  28  25  17  28   6  43  37  28  29  11  17  29   3  17  38  55  53  76 131 144 163 157 192 149 181 153 161 176 166 182 141 160 193 168 205 212 209 196 145 115  96  78  58  50  46  30  30  23  35  35  55  38  48  29  30  30  27  33  40   7   6  39  25  25  23  33  19  12  19  38  60  29  59  34  41  44  40
  47  30  27  23  11  57  92  44  43  35  45  42  54  21  26  30  18  36  20   6  24  13  16  20  20   7   7  12   7  34  29  50  62  94 115 135 131 163 185 115 150 169 175 155 171 169 136 160 171 164 214 183 166 144 108  93  74  57  39  37  39  34  23  39  18  26  24  25  37  29   2  43  26  21  12   6  79  33  38  51  12  40  10  34  47  36  60  41  48  25  50  34
  37  52  15  15  27  20  46  42  52  67  47 116  52  22  33  30  18  19  23   8  26  17  15   8   9  10   7  12  34  18  49  47 101 107  97  88 134 140 119 105 139 143 159 145 151 157 125 140 168 149 165 143 135 111  75  84  61  56  50  25  46  20   6  43  15  11  17  13  18  33  14  35  24  22   4   0  67  46  49  42  34  25  70  40  37  39  53  44  54  51  37  32
  42  24  17  27  40  34  28  32  49  41 143  67  39  25  36  42  26  21  26  18  13  14  13   6   4   8  17  49  41  21  36  47  74  66  75  97  77 110 140 109 125 125 131 138 111 122 135 101 135 137 120  89 109 102  67  54  57  42  38  62  10  48  33   2  14  22  18  18  35  25  28  49  14  28   2  12  64  59  52  53  54  23  33  61  51  26  39  44  38  47  58  36
  25  14  30  59  30  21  29  49  36  42 116  28  45  36  46  53  24  14   9  19  14  27   7   6   6  13  13  18  13  22  54  44  50  70  91  80  70  92  84 105 104  75 117 118 118 101 125  91 103  88 101  86  80  54  96  73  66  31  61  52  36  48  15  20  18  22  17  20  10  31  26  26  12  27   8  24  54  87  48  70  48  46  17  39  68  31  19  21  40  25  41  42
  33  35  69  25  26  36  44  42  41  29  32  36  46  23  34  49  24  13   8   2   5  10   3   0  10   8   3  13   6  42  23  39  56  57  68  77  54 102  46  84  82  75  92 104 103  75 108  86  89  76  85  67  49  59  62  60  54  51  28  47  36  29  27  33   7  22  44  19  46  15  26  17   8  17  14   4  31  76  90  78  78  76  59  34  38  83  45  39  34  29  45  13
  53  64  47  56  54  53  55  65  54  41  47  22  19  37  39  64  56   8  19  10   7  20   0  27  20   5  10  25  25  20  34  56  50  58  66  41  71  65  86  70  68  82  69  91  78  88  73  75  75  67  77  67  56  59  58  45  42  35  13  32  27  47  19  34  34  65  74  11  32  20  33  27   7  19  30  11  46  82  68  66  65  86  94  52  49  45  33  53  40  26  23  15
  71  51  54  45  40  45  55  51  48  59  68  31  31  36  35  57  62  13   4  10  27  14  41  19  14  33  11  22  18  21  51 105  60  42  43  63  58  51  57  83  51  85  78  72  68  80  53  66  80  63  66  45  62  53  45  44  37  33  23  21  30   5  10  19  23  20  42  31  57  32  34  14  12   9  18  30  31  65  66  55  67  85  68  71  63  42  43  33  31  33  18  18
  65  48  51  66 110  65  57  47  53  70  77  35  67  31  36  67  46  25  14   8  19  44  25  21  21  22  29  13  44  27  52  50  61  37  33  56  70  48  53  62  50  69  64  79  87  57  39  68  76  57  62  57  38  46  27  30  34  21  18   9  31  18   6  35  51  52  10  29  31  29  12   9  13  32  17  10  12  31  10  46  41  85  47  56  48  40  35  29  23  19  16   3
  45  29 158 118  92  75  44  53  66  70  77  30  66  73  38  59  32  23  26  22  25  41  17  14  25  22  12  39  39  41  60  37  26  42  33  55  44  65  64  53  38  68  48  36  71  44  30  58  72  57  41  48  33  23  20  18  23  28  22  20  15  18  27  24  24  15  35  47  63  14  10  19  47  25  13   9   9  19  30  21  19  62  69  91  68  53  29  40  33  36  26  14
  55  54 140 111  61  45  96  74  48 103  68  49  81  79  47  56  32  29  26  23  54  35  34  24  27  63  47  19  15  38  27  34  25  12  38  58  38  89  54  74  12  62  49  29  34  38  47  20  46  47  31  63  28   9  32  20  22  36  14  19  22  35  29  32   7  36  11  39  18  24  15  33  75  25   5   7   5  15  36  19  20  23  33  56  65  68  52  26  25  43  27  38
  51  78 125  63  70 107  74  75  81  83  76  48 145  89  62  40  34  24  37  17  30  59  13  32  12  41  24  25  23  31  31  69  51  20  47  85  39  56  59  48   9  60  31  46  48  22  38  34  25  57  51  49  42  61  19  16  31  29  24  55  41  46  46  38  14  28  35   9  16   9  22  33  44  24   4   9  12  28  11  21  36  46  49  43  39  11   9   7   8  33  15  25
  81  65 110  75  71  74 143  82  72 131  86  53  96 145 155  52  37  17  26  40  37  28  11  51  23  39  48  17   8  37  47  81  34  29  26  58  26  52  45  47  20  28  59  41  46  51  14  45  24  27  59  46  56  33  20  46  11  28   4  39  49  30  19  31   3  20  17   6  14  11  60  47  55  33   7  12  10  22  33  17  31  32  21  58  29  34  25   6  16  33   9  33
  88  62  52  56  60 148 208 115  71  67 116  69  77 131 125  40  34  25  27  43  25  44  13  29  32  24  25  10  26  27  72  54  68  18  34  41   8  31  36  45  20   2  75  42  35  46  50  36  33  16  53  49  34  44  35  22  48  23  31  31  34  53  35  53  20  42  32  30  21  36 108  49  51   8   3  27  18  12  11  17  15  13  18  63  39  13  13  17  22  27  22  11
  89  55  42  64 176 182 180 100  44 101 122  96  88  78  47  38  41  30  29  52  17  55  37  22  25  50  23  13  27  32  45  50  41  46  38  63  43  39  37  21  38  33  37  34  45  48  48  43  33  33  28  32  61  62   4  28  43  15  49  40  42  20  15  70  14  39  41   9  35  83  77  40  39  32  24  12  11  22  15  10  41  28  28  62  36   0   8  27  21  31  15  19
  87  57  94 113  80 182 214  47 147 122 161  72  41  55  56  43  49  31  40  54  21  27  21  15  23  44  91  47  49  42  41  41  53  59  49  65  37  40  35  26  27  41  20  56  42  35  47  20  55  56  40  66  53  88   9  48  59   7  23  28  45  42   7  70  26   5  21  53  48  80  83  43  22   4  24  26  27  25  26  26  51  45  48  63  42   8  17  11  41  19  31  46
  78  64  58 175 113 133  66 139  76 114  95  58  28  28  48  65  95  45  56  59  30  57  19  22   6  48  56  37  30  44  24  39  53  36  42  52  25  54  25  39  28  33  16  68  30  34  44  36  56  72  46  51  29  66  38  31  23  32  27  14  39  47   6  88   6  13  32  54  32  95  78  51  10  22  28  49  36  19  33  47  41  83  88  60  48  18  41  40  31  64  51  23
  78  66  90  89  94 135 135 150 136  71  62  28  43  50 154 140  97  40  62  48  21  16  21  57  35  32  33  25  42  35  41  29  61  26  53  38  40  66  42  31  30  13  21  86  20  30  51  24  56  55  51  43  39  49  50  20  29   7  45  19  49  36  15  64  18  14  38  44  70  82  68  29  22  34  26  47  38  23  43  34  27  91 106  66  36  30  55  20  72  96  14  14
 139 147  96  64 214 233 236 119  77  38  32  41  71 227 166 171  70  46  60  54  28  34  32  41  15  30  38  33  45  55  47  18  50  36  67  37  41  44  49  51  26  26  54  59  40  28  53  31  38  51  40  21  33  20  71  26  28  25  13  46  37  41  16  49  21  55  52  50  42  72  53  10  15  25  38  49  24  19  34  10  27  53  62  49  30  52  24  63 107   4   8  22
 151 162 126  88 123 222 232  99  48  28  36  77  78 109 154 121  45   9  31  31  25  32  17  33  59  38  37  35  87  14  19  42  40  61  28  48  28  53  35  43  66  42  65  17  15  36  37  72  59  81  37  36  20  16  53  58  33  20  62  25  19  24  12  66  44  55  57  73  59  63   4  12  28  31  47  30  41  17  16  10  21  26  40  21  29  35  45  61  15  16  20  30
 193 206 160 118  91 134 139  45  44  40  45  95  67 130 127  85  18   8  20  53  35  18  20  19  74  32  17  56  43  16  11  22  38  32  29  15  36  58  40  45  26  49  21  29  28  18  51  42  46  20  32  28   9  32 120   8  23  20  31  51  54  44  29  40  55  46  35 100  73  33   1  10  46  27  35  38  19  18  12  36  20  20  13  18  18  30  53  17  16  28  29  11
 156 186 148 115  97 109  63  46  49  60  66  61  43 170 120  40  41  23  10  60  38  21  39  13  72  30  31  23  63   0  30  11  30  21  14  56  29  24  53  41  41  33  24  32  40  22  22  31  26  40  29  50  55  72   7  25  34  58  49  27  45  57  32  19  71  46  41  91  76   8  13  47  37  54  53  24  13  16  18  24  51  19  14  15  30  23  48  20  21  30  11  26
 250 118 177 155 128 103  57  56  59  55 107  71 128 178 133  42  97  73  21  57  22  14   8  23  37  17  31  48  59   0  31  31  22  11  29  44  49  49  53  38  13  52   9  24  34  13  39  46  39  56  37  24  36  19  27  30  67  39  13   3  22  37  57  43  41  75  65  91  33  54  43  42  73  74  44  20  10  19  17  48  34  11  28  39  26  37  21  46  18  14  30  25
 214 235 156 143 165  63  67  56  62  64 106  75  48 130  88  46 118  97  33  24  41  14   2  41  44  23  29  27  35  35  23  34  21  39  41  30  33  32  51  34  37  15  32  19  43  28  28  41  54  15  59  49  28   2  30  32  16  44   8  35   9  50  39  28  69  50  66  69  30  37  32  60  49  39  23  17   2  25  29   8  26  28  21  14  14  39  43  13  29  30  37  19
 247 234 156 102  70  84  64  60  56  60  97  85  92  76  96  67  57  12  15  36  48  19   8  17  14  40   5  44  22   3  22  44  49  51  29  31  35  56  71  13  74  25  40  11  27  17  42  31  43  18  34  32  23   5  27  19 117  59  19  36  22  40  48  62  46  73  95  41  17  62  72  77  77  39  17  19  44  42  42  57  10  29  43  34  23  23  30  37  49  33  58  15
 251 220 117  94 129 107  77  74  44  53  56  48  77  89  90 144  29  28  29  13  15  23   8   3  17  11  16  24  26  15  11  14  38  35  38  24  55  53  41   9  28  94  32  44   6  49  18  73  19  22  31  42  17  18  74  45  29  52  39  11  42  57  87  82  60  77  55   7  19  55  78  65  50  68  30  11   6  16  17  35  67  20  59  64  41  35  33  19  33  34  53  30
 189 192 217 238 169  87  58  75  55  52  25  28 119 129 115  48  38  49  15  11   8   8   9  10  27   4  11  19  24  33   9  18  29  37  36  31  64  28  42  16  30  32  19  34  33  37  23  40  17  11  56  18  21  22  36  46  73  24  49  23  60  40  36  61  66  46  22   5  33  72  72  63  61  22  53  36   7   9  41  26  33  48  32  75  56  51  42  21   8   0  59  38
