P2
# Generated by OpenCV 4.2.0
92 112
255
 127 110  96 106 123 122 113 123 122 252 165  72 131 112 131 124 117 111 117 244 250 240 251 244 250 105 186 153 183  30  25  18  12  12  11  17  15   9  13  15  16   9  13   8   9  13  11  10  11  13  26  41  30  19  15   9  14  17   7   8   6  12   7   6  10  18 142 237 251 227 227 235 251 253 254 254 254 254 254 253 254 253 254 253 253 253 253 253 254 254 254 254
  97  85  78  97 138 120 121 129 144 213 142  75 108  94 137 118 122 122 118 246 251 238 246 249  26 213 121  79  14  13  14  17  15  15  14  16  13  16  21  15  11   9   8  14  11   9  12   6   9  13  15  23  42  31  17  24  35  26  43  17  12  12  11   7  18   7  17  17 216 237 254 236 217 250 253 254 254 254 254 254 254 254 254 254 254 254 252 253 255 255 254 254
 193  83  75  81 172 122 122 135 145 169 148  87  83  88 134 113 113 121 112 247 252 250 178 202 147 109  17  13   9  15   9  14  18   9  12  11  26  10  15  20   7  13  10  12  10  11  12   6   8  13  15  19  16  30  26  14  25  14  11  22  27  24  16  10   9   8  13  15   0  60 218 250 230 249 243 253 252 254 254 254 254 254 254 254 254 254 254 254 254 254 252 254
 254  72  76 119 200 125 120 122 131 131 148  80  81 103 124 120 114 101 106 249 249 174 238  12  19   9   8  11   8  10  15  28  38  22  33  40  31  20  28  24   9  13  12  12  12  13  11   7   9   8   8   6  17  21   8  22  15  17   8  22  18  35  37  23   6  11  10  14  10   8  41  43 255 213 247 249 254 251 254 254 254 254 254 253 254 254 254 254 254 254 254 255
 255  53  76 127 194 133 127 128 130 118 152  82  77 122 125 124 112 110 107 250 209 190 119  10  10  13   5   5  12  12  20  20  22  20  11  26  13  15  22  18  10  13  22  12  13  11  11  10  11   8   9  13  16  12   7  28  24   8  12  12  17  17  15  13  28  50  26  15  12  18  13  97   0 214 187 254 250 254 254 253 254 254 254 253 254 253 254 254 255 252 252 254
 254  73  77 134 190 134 132 141 143 111 131  76  71 122 134 111 107 113 126 248  97  96  25   8   4   5  12  18  10   8   9   9   8  10  17  12  15  19  25  15   8  19  37   6  13   9  10  10  11  10   9  12   7   8   7  47  25  32  20  17  14  12  16  16  19  15  26  28  16  13  17  20  81   2 208 223 243 248 254 254 254 254 254 254 254 252 254 254 254 254 253 254
 255  79  76 104 191 139 137 145 127 116 129  76  84 112 119 113 108 122 132  14  74  79   9   9  26  19  13   7   6   4  18  15  19  25  32  25  16  43  18  13  10  44  18   9  21  11  19   7  11  10  12  11   9   6  15  18  13  22  17  17  21  22  18  18  15  18  18  19  16  13  14  18  14  72   6 206 248 251 251 254 254 254 254 253 255 251 254 254 252 254 253 254
 255  79  82 131 180 135 128 127 119 109 125  81  77  98 124 123 116 125  32 189  73  38  21  15   5   4  10  22  10  29  36  44  25   9  12  13  20  31  22  10  15  28  14   9  22  20  17   8  10   9  12   8   9   8  12   8  11  34  30  38  30  25  20  21  21  19  13  18  18  18  15  20  12  10  65   1 210 248 251 253 252 253 254 254 249 254 254 254 254 254 253 254
 255  91  82 101 191 134 127 131 118 109 123  79  81  97 130 127 113  14  50  33  15  22  33  42  35  38  27  16  20  12  14  13  10  10  16  23  19  32  15  13  13  28  12   7  38  20  11  13  10  11  13  11   7  10   9   6  15  18  14  30  18  17  16  10  14  13  11  20  15   9   9  12  22  13  12  21  12 250 246 250 255 253 254 253 252 254 254 254 254 254 254 254
 255  79  81  72 193 131 119 120 110 106 119  80  69  87 101  84  36  16  27  13  12  12  20  14  18  16  16  17  18  13  11  10  16  17  10  19  25  33  16  11  12  31  12  18  30  14  12  16   7  12  13   7  11   8   6  11  13  12  29  42  42  40  35  22  21  15   9  10  11  14  12  10  12  14  12  15  15  89 246 255 252 251 250 251 254 254 254 254 253 254 254 254
 255  84  87  79 192 132 119 116 118 115 126  92  67  59  76  21   9  25  18  14   7  13  20  12  12  12  10  10  14  12  15  28  17  14  10  29  21  21  11  11  18  16  13  23  14  18  11  14  11  16   5  24  12   9   7  13  12  12  13  24  23  26  38  41  43  22  15  13   9   6   8  12  10  11  16  25  14  23 215 250 252 254 253 250 254 254 254 254 254 254 253 254
 255  83  87  98 189 129 115 127 116 111 136  39  71  33  22  20  12  11  24  12  15  16  16  18  14  15  12  11  11  13  15   7  27  12  39  18  35  19  15  30  25  13  10  39  16  17  16  15  13  17   9  35  13  12  12   9  11  33  58  46  52  40  34  26  20  20  20  18  23  27  16  16  18  14  12  16  18  11  25 250 250 251 250 254 254 254 254 254 254 254 254 254
 255  83  86 116 197 135 124 130 115 139  59  44  57  26  15  12  20  25  40  25  17  37  20  16  14  15   8  11  14  17  10  14   4  30  23  19  31  13  16  32  17  29  17  23  12  16  18  19  17  13  15  21  16  16  18  10  12  21  17  15   9   8  18  39  37  40  12  11  16  17  23  15  14  16  15  15  17  22  30 211 249 254 253 255 254 254 254 254 254 254 254 254
 255  75  92 105 191 143 132 116 110  84  32  27  31  33  17  24  44  20  29  35  23  27  34  34  22  15  16  13  12  11  18  16  33  20  25  26  34  25  18  51  19  34  29  18  18  39  16  43  15  12  20  17  24  26  12  14  14  27  41  43  39  17  21  24  42  44  52  28   7  14   3  18  14  15  12  11  20  18  22  18 252 251 252 253 254 254 254 254 253 254 252 254
 254  82  90  89 179 129 123 130 124  64  20  15  39  49  24  21  35  54  28  40  36  22  59  12  21  18  31  27  15  19  12  27  18  30  24  37  35  25  25  39  34  18  49  13  14  13  26  55  13   9  26  33  21  43  11  12  29  32  30  22  21  29  20  24  23  14  25  18  24  16  15  11   8   9  16  18  10  18  13  27 115 252 252 254 252 255 254 255 252 254 253 254
 231 103  69  94 145 113 126  96  43  67  40  27  29  58  16  35  36  56  29  28  44  25  42  23  14  21  18  12  38  18  23  19  32  18  22  34  40  20  41  56  28  37  56  23  28  38  24  33  14  30  29  52  15  22  23  31  18  23  40  35  48  21  31  21  25  41   9   8  10  15  13  27  13  14  10  18  16  15  25  15  15 216 251 253 254 253 254 254 255 255 255 255
 172 107 117 150 131 127 113  87  20  29  40  30  23  36  22  37  41  31  20  29  23  30  30  20  22  20  20  20  21  34  16  22  25  53  16  31  40  26  41  40  41  43  47  15  35  29  33  24  43  43  37  27  37  22  39  35  25  25  44  38  55  53  63  51  28  17  13  22  10   5   7  30  18  40   4  12  14  22  27  38  21  83 204 255 252 253 254 254 255 254 255 255
 189 215 224 148 123 124 112  33  45   8  29  20  35  35  45  24  22  33  41  24  42  35  20  28  20  18  22  19  23  18  24  20  16  24  41  30  43  43  64  17  36  48  34  20  31  53  50  24  51  30  53  19  62  28  37  54  29  32  51  47  14  60  40  52  47  20  14  10  12  11  13  12   3  13  31  17   8  11  18  69  61  21 199 242 253 253 254 255 255 255 255 255
 136 137 115 130 124 134  48  33  27  38  32  25  25  35  47  42  43  20  15  23  15  59  32  16  23  21  15  15  22  23  23  22  17  19  27  50  39  43  48  35  52  45  64  77  45  37  48  41  44  40  41  31  30  74  54  78  14  29  51  26  22  22  21  32  60  41  22  16  11   7   5  10   5   3  18  34  25  11  18  14  85  37  23 235 248 252 255 255 255 255 255 255
 133 128 116 127 123  75  48  14  21  21  21  10  32  27  31  27  30  65  22  17  21  24  28  26  21  21  27  27  31  15  34  28  23  28  40  37  66  64  55  27  48  67  59  43  55  44  45  39  28  25  38  77  31  61  50  69  22  21  26  42  29  28  27  49  65  31  24  16  14  13   6   3   8   7  13  39  33  19  12  14  44  57  17 102 221 247 251 255 255 255 255 255
 146 128 118 116  99  68  18   9  16  12  16  25  32  43  35  33  38  18  50  27  27  20  28  21  27  20  18  23  33  33  32  30  47  32  41  64  59  51  62  46  52  47  55  36  42  56  66  30  29  57  40  51  38  48  30  35  38  30  33  33  21  19  17  16  38  54  21  19  16   8  17  13  17  11  11  29  43  34  36  29  18  29  68  39 208 239 248 253 255 253 255 255
  99  97  97  84  69  29  28  11  16   7  48  51  40  22  33  33  42  46  43  35  46  32  44  34  35  32  54  49  35  53  33  44  54  65  61  70  74  63  76  70  41  83  75  50  56  51  65  61  32  64  79  43  40  50  33  34  35  49  51  24  23  23  29  26  27  37  70  72  34  27  11  12   8   8   9  10  20  55  25  28  34  36  45  31 116 225 243 253 254 254 255 255
  79 100 118  75  36  28  23  30  19  40  25  31  31  52  45  38  28  28  36  39  47  41  43  67  66  72  76  75  73  63  66  75  72  65  77  76 107  91  85  74  91  76  90  77  99  94  76  88  78  82  95  46  66  48  48  44  63  48  54  67  54  46  45  31  21  19  32  41  53  59  15  18  14  15  11  12  15  15  23  40  57  38  85  65  41 201 206 240 245 249 253 255
 253 158 109  52  63  21  23  31  28  30  32  27  23  36  46  38  26  33  49  52  49  45  55  61  74  78  70  85  80  93  81  80  75  91  90  97 106 113 126 112 122 107  94  98 102 112  99 104 110 111 128  88  82  55  75  62  65  83  45  76  85  64  38  40  35  31  25  16  50  55  37  18  18  19  19  19  18  19  13  29  56  59  67  93  37  75 239 234 249 254 253 255
 107 171  29  90  30  35  50  53  55  19  22  29  13  44  25  28  43  42  43  46  55  61  65  89  95  92  91  92  88  93 105  90 108 109 106 109 110 117 115 132 130 128 144 131 126 119 138 108 122 113 111 106 109  85  65  87  89  88  72  85  90  70  80  77  55  50  39  50  35  38  47  31  17  13  14   9  14   9  12  19  29  29  57  81  61  26 180 226 234 248 251 255
 189 101 202  74  38  49  14  20  32  35  23  33  45  35  32  21  30  36  48  66  76  73  86  92  91  87  99 104 106 114 105 111 111 110 107 112 116 121 124 123 128 135 134 139 139 133 139 138 128 132 121 125 125 110 111  88  93 103  76  92  81  84  83  87  64  90  60  43  58  37  30  22  21  28  28  39  42  29  16  17  10  73  34  77 120  34  93 199 211 249 254 255
 139 145 104  46  14  27  13   8  31  16  13  38  22  27  16  26  31  46  67  73  75  92  93  96  99 104 106 106 105 109 108 107 106 111 110 111 114 123 123 127 130 131 127 145 138 145 139 135 138 128 128 119 121 114 114 110 104 101  91  93  98  92  80  91  86  92  87  76  46  34  34  23  18  15  17  26  44  50  45  13  20  32 102  57  69  19  29 189 218 247 245 252
  50  88 128  28  24  22  15  38  16  14  10  36  20  16  21  18  31  66  79  75  75  89  90  94  99 103 105 105 107 107 112 108 107 109 112 114 118 123 118 127 134 135 122 140 142 143 141 135 132 129 127 120 115 116 111 115 111 112 105 105  97  97  89 102  97  91  91  82  58  53  28  36  33  16  13  22  22  32  48  31  37  64 115  51  42  77  44 103 214 209 243 248
 165 208  29  45  19  14  52  38  14   9  22  25  29  27  22  29  31  49  78  74  78  90  91  95 102 102 104 109 110 111 109 109 111 116 118 120 121 123 131 139 137 139 144 143 143 142 141 138 133 125 127 124 125 118 112 109 114 114 115 107 104 103  99 102  92  93  92  89  77  65  47  37  26  41  12  15  18  36  56  64  48  42  96  20  46  80  25  15 181 211 240 245
 180 100  48  42  17  41  39  27  25  25  11  26  18  26  28  31  30  63  82  79  82  89  93 101 102 105 106 108 111 113 108 112 116 120 122 125 136 135 136 139 137 138 146 139 146 147 141 136 136 128 127 124 117 117 114 116 115 112 118 113 106 103 100 109  87 101 100  90  91  76  64  40  38  29  24  15  21  22  27  28  93  55  38  42  36  82  38  24 133 213 200 253
 167  27  26  32  32  27  26  14  24  17  20  46  39  29  35  40  44  55  70  72  86  93  99  97 104 105 107 115 109 114 118 114 121 128 125 133 130 143 139 144 149 149 150 170 160 157 146 152 139 137 130 125 124 120 122 112 117 117 115 116 112 101  98 104  96  99  94  95  95  77  73  67  44  45  35  41  27  45  37  45  41  58  43  24  39  42  43  31  50 147 230 241
  35  35  25  28  34  39  18  32  19  12  14  34  38  48  37  34  44  60  61  82  91  95  99  99 108 105 106 113 119 112 123 122 129 122 129 125 135 140 147 142 150 157 161 162 157 159 155 151 144 146 137 130 127 123 121 118 119 120 118 120 121 107 108 103 104  99  95  98  88  84  79  59  54  50  39  28  26  43  81  17  33  46  57  37  25  30  37  39  25 138 208 215
  29  37  19  46  23  23  31  22  13  23  59  40  49  20  25  38  49  52  74  85  91 101 103 103 100 107 107 109 113 119 125 122 133 127 130 133 139 149 150 156 156 159 168 153 171 169 159 156 146 150 134 136 133 149 118 120 117 124 122 121 118 114 107 105  98 101  95  96  90  81  76  63  50  51  60  40  66  42  39  35  34  38  60  18  11  32  38  22  24  80 201 220
  33  18  47  23  25  23  21  18  18  29  15  40  34  27  28  35  57  63  75  87  93  94  99  97 107 108 112 114 119 127 123 134 132 134 143 140 147 145 149 157 161 182 175 191 179 168 185 163 164 151 152 141 142 143 140 119 118 115 121 126 123 115 111 109 106  94  94  99  97  88  83  72  49  41  55  60  95  50  43  42  31  18  60  13  18  35  25  24  23  25 141 214
  23  20  39  39  44  26  22  10  17  25  28  46  24  25  28  50  58  74  85  86  90  95  95  99 103 112 115 114 120 124 130 125 133 141 142 149 154 153 163 166 173 173 166 170 170 166 169 153 158 160 145 155 136 137 143 145 124 126 122 122 117 114 116 110 110  99  95  91  94  97  93  71  60  50  57  71  49  29  45  25  35  30  68  36  53  22  20  26  29  11 105 172
  14  21  28  16  46  25  13  14  24  23  36  54  15  22  23  38  52  76  84  90  87  92  95 100 104 109 115 112 122 125 124 132 131 138 145 150 150 161 161 171 175 176 183 184 185 182 174 167 167 158 145 142 153 145 132 144 138 118 127 124 123 117 120 110 106  98 100  94  97  99  98  88  88  69  64  25  26  39  27  29  29  36  53  28  55  20  33  35  31  12   3 153
  43   6  58  31  52  15  17  23  18  30  18  45  10  22  19  35  60  74  84  92  92  97  89 107 107 109 115 116 114 121 123 127 133 139 143 147 156 161 164 170 172 177 177 184 172 178 186 163 161 154 155 149 146 142 138 135 124 124 127 124 122 117 114 112 101  99  99  99  96  97  90  78  72  48  43  56  13  20  22  14  34  53  67  32  72  20  31  41  18  24  17   5
  36  19  32  42  26  27  18  22  30  37  49  38  12  11  17  45  58  76  84  92  95  98  95 106 105 107 104 105 118 122 120 124 131 138 141 147 143 152 169 182 167 175 185 179 193 174 164 170 150 165 157 146 145 144 138 129 120 123 129 123 123 111 124 118 105 103  99 103  94  90  93  77  55  53  46  43  31  16  25  26  39  78  69  33  24  18  23  38  36  17  19  60
  16  19  17  29  22  13  16  17  26  21  52  23  17  15  20  41  67  75  85  94  92  99 100 101 102 102 108 107 113 119 125 129 130 141 146 157 156 154 156 161 170 181 183 176 167 168 175 155 172 152 156 147 140 140 128 124 120 116 117 116 114 114 111 116 112 105  98 101  93  91  87  79  63  40  26  42  28  17  21  16  49  74  67  21   9  19  34  88  94  16  21  24
  12   6  28  45  27  22  26  20  19  32  39  29  13  11  18  39  60  73  81  88  97  90  96  96 103 103 103 109 113 114 122 135 138 143 144 148 149 162 161 162 182 177 175 165 182 182 168 166 152 139 147 143 124 136 119 107 116 114 108 115 111 110 101 110 110 108 100  96  92  86  81  69  71  44  27  24  11  11  14  27  25  32  40  26  13  28  68  30 116   0  20  21
   7  16  44  41  25  52  13  21  15  37  44  22  11  12  19  35  57  73  80  89  97  93  95  94  95  97 103 108 112 118 124 126 137 136 144 147 148 146 169 171 162 179 165 178 160 158 160 150 149 142 134 131 126 123 123 111 110 109 108 107 112 110 103 100 103 100 103 100  87  79  77  69  60  39  32  15  14  39  13   6  24  13  30  11   9  21  86  22  81  24  10  19
   4  16  49  30  51   7  13  15  32  27  45  23   9  13  19  51  61  74  80  89  96  95  92  90  97 105 106 112 118 127 126 133 138 146 146 150 151 156 156 162 168 173 177 168 179 159 154 157 131 146 137 129 131 124 124 126 122 119 114 114 110 111 108 100  99  99  98  97  93  87  72  75  51  40  43  11  21   5  14   8  21  18  13  12   8  14  99  20  12  51   4  14
  10  21  58  16  31  20  27  22  18  29  32  22  10  14  35  36  58  67  83  89  92  95  85  90  98 106 111 121 127 136 137 145 143 148 149 148 155 159 165 148 176 182 172 171 167 166 156 163 163 134 147 146 134 127 127 128 126 121 119 121 107 110 105  96  95  92  95  96  89  83  82  70  59  41  42  15  11   4   3   9   9  19   8  12  16   3  83  14  12  29  33   7
  13  44  28  40  27  20  24  17  24  18  42  20   9  14  28  44  59  69  77  88  90  82  95 103 108 119 127 134 133 140 152 154 156 153 159 156 156 166 165 169 170 176 164 164 160 175 172 162 153 153 152 146 151 133 140 144 136 140 119 111 112  94 102  99  94  89  88 102  91  86  87  68  51  55  29   9   3  12  12   5   7  10  10   8   7   4  58  21  14   7  40  17
  35  44  56  29  30  17  19  17  21  28  15  26   7  16  23  46  63  69  74  80  78  95  88 105 111 124 131 134 144 145 149 159 160 168 169 163 163 155 170 171 168 170 167 172 168 156 160 170 172 164 163 165 151 156 152 157 146 137 129 118 111 103  96  94  94  89  91  94  93  88  81  71  61  46  25   8   7   2   6  10   8  11  14  11   1  11  36  19  10   7   8  40
  44  32  25   8  34  18  13  13  23  16  16  12   7  12  24  45  64  68  67  74  77  61  82  91 109 117 132 138 144 153 151 158 166 163 178 186 175 177 175 174 175 176 176 174 171 169 174 164 168 172 168 166 167 164 157 155 150 148 137 113 108 101  98  81  83  91  88  91  83  89  81  64  61  61  29  10   5   4   6   4   6  12  12   9  13  88  34  10   9  11   5  15
  23  24  33  25  14  19  19  15  17  22   7   4   5  14  25  45  62  68  64  73  69  77  67  87 108 124 120 138 146 152 161 159 164 177 173 180 192 193 173 190 184 173 175 149 174 172 166 175 182 183 194 173 172 161 160 152 143 132 120 100 120 113  81  57  58  88  85  82  92  81  79  65  58  66  30   9   6   4   4   3   3   8  18   8  12  12  42  19  41  19  14  10
  15  55  35  23  16  30  16  12   7  14   9   5   4  14  20  42  65  64  59  77  64  34  64  61  76 102 120 140 148 150 163 171 169 173 175 183 191 170 173 187 178 178 191 184 182 178 169 182 193 197 194 181 167 170 161 142 137 127 101  64 109 113  74  47  80  68  78  81  80  82  74  63  62  72  32   2   7   5   6   6  11   6   4  34  14  11  14  17  16  49  74  60
  59  36  35  18  25  21  12   8   8   7   8   4   5  10  25  51  60  64  54  46  47  42  41  50  51  80  95 111 146 147 165 154 169 179 183 191 190 192 182 189 184 198 187 194 185 190 168 187 184 186 181 172 175 162 154 136 115 103  57 127 130  73  49  61  50  65  53  70  71  82  69  66  70  73  25   7   6   4   4   9   9  13  18  87  34  10  16   9  11  24  13  26
  55  55  30  15  29  14  14   4   8   5   5   4   5  10  35  55  56  56  30  42  53  40  22  18  33  45  54  94 108 124 152 171 168 168 169 181 179 177 185 180 185 187 183 186 169 172 174 182 173 177 193 166 153 132 113 104  75  74 131 107  83  71  87  82  62  36  70  52  59  68  76  73  71  74  32  11   7  10  10   9  36  25  23   8  10  41  28  18  16  20  30  28
   3  58  44  23  12  14   9  17   5   9  14  10   8  12  40  53  58  43  39  25  35  38  31  22  26  27  43  35  72 107 104 131 155 157 167 150 168 166 180 181 188 180 174 166 184 166 168 183 167 164 174 148 102  95  68  55  31 103 126  91  63  59  74  74  67  52  30  39  55  65  71  72  71  79  60  17   9   5   4  10  19  54  19  13   9  17   9  19  17  10  24  66
  78  36  45  20  14  19  17   0  11  14  26   9  19  28  49  53  55  34  38  49  54  51  64  65  47  32  36  45  45  53  77 104 131 146 158 169 165 161 162 167 174 186 172 173 171 172 175 166 157 117  68  54  46  47  26  33 101  82  19  41  39  38  68  78  55  42  58  43  40  65  70  71  79  73  58  42  11  10  10   7  15   2   8   8   9  15  15  16  14  13  12  24
  26  25  26  19  22  24  12   9  40  48  27  27  40  41  51  52  63  28  63 102 102 122 130 137 138 141  93  44  26  30  38  43  87 102 138 151 165 167 151 160 165 161 167 174 168 161 132 111 131  76  44  40  32  21  48 124  88  26  48 105 113 124 134 127 129 106  78  46  27  60  74  77  82  80  70  45  16  20  11  11   5   8   7   4   1   6   6  14   4  34  11  31
  11  21  21  26  19  24  42  35  23  83  71  70  47  49  51  53  68  62  67  95 100 117 129 124 132 130 135 134 110  54  17  24  38  52  93 121 136 145 155 159 162 163 163 161 165 156 132 115 101  47  47  33  57  87 101 111  94 120 130 136 135 129 124 137 115 110  88  68  48  56  78  83  81  82  69  49  27  17  15  22  14   9   3   2   3  25   7   6  16   7  13  15
  28  57  49  13  17  17  82  51  17  39 116  93  52  52  59  61  67  60  82  81 100 113  99  83  80  77  89  96  76  83  88  46  20  25  50  82 101 137 142 151 156 164 162 164 151 145 104  94  66  84  72  77  81  91  99  94  94 103  88  87  88  88 112 109 116 106  85  75  43  53  86  83  83  78  63  55  26  23  22  16   7   6   4   6   6  15   5  26  36  12  13  11
  15   8  16  10  72  32  29  37  17  38 183  75  47  71  57  62  74  71  77  86 100  91  85  86  61  14   7   4  19  12  66  69  92  93  27  65  94 110 117 139 146 157 158 151 144 137 124  89  78  75  62  76  87  38  11   8  31  24  81 105 119 105  75  98 100  97  76  66  76  64  91  86  82  83  72  59  36  13  23  27   6  10   6   7   8   3  10  11  50  10  31  24
  32  34  57  18  53  49  27   5  12  46 131  68  59  55  62  66  75  85  87  92  99  81  48  20  20  25  26  42  37  47 187 158 108 134 121  82  56  77 108 123 142 150 152 140 130 126 109  73  60  93  83  81 130 159  40  17  18  17  13  26  39  68  88  95 100  88  94  93  78  82  92  93  86  88  71  62  53  33  35  45  13  11   9  12  32  63  33  14  28  43  21  23
  50  51  50  48  19  41  23   9  14  25 113  43  70  52  62  65  90  98 106 108  80  61  19  33  41  65 119  81 132 130 101 103 118  90  75  84 108  83  95 113 123 143 150 149 133 123  91  77 118  57  96 101 103 120  83  70 103  42  61  29  48  16  37  80  96  99 119 119 109  97  98  94  92  87  74  62  65  40  61  40  27  31  36  36  38  60  46  11  18  72  31  20
  55  66  45  58  24  15  12   8  15  24  90  30  68  54  70  77  90  98 106 116 123  95  86  73  94 114  96 115 108 126 120 122 120 129 139 129 123  84 107 121 145 155 168 156 139 127  90 124 112 120 149 141 121 117 107 126 137 143 109  95  48  88  52  76 106 124 127 124 116 105  96  92  88  87  78  61  61  38  51  30  36  21  46  66  41  45  37  34  16  40  67  18
  33  71  56  37  30   9   7  11  21  19  78  33  57  56  76  75  94 113 110 123 131 118 112 110 112 125 135 131 124 124 132 129 115 109 113 134 108  99 105 117 157 173 181 162 143 117 109 131 138 139 152 132 142 127 139 149 120 159 137 131 121 116 111 126 135 130 132 126 123 107 104  99  89  93  81  70  63  31  36  20  36  24  40  84  45  71  25  37  14  24  48  38
  30  65  47  46  30   3   5  23  12  14  55  51  46  64  70  82 104 104 122 117 125 124 121 113 115 117 123 125 121 125 113 114 117 124 138 110  99 102 100 114 143 158 169 158 135 121 122 117 122 151 148 143 112 113 121 135 138 141 141 149 130 136 127 134 134 100 127 132 128 111 103  97  92  86  80  73  53  40  29  26  19  38  38  96  43  72  41  49  41  22  18  25
  26  42  30 105  34   2  14  27  11  16  41  52  31  70  72  91 101 110 125 127 124 136 130 123 122 123 124 123 120 124 128 133 134 145 134 101 107 109  99 123 138 152 144 139 132 115 120 116 124 134 155 138 130 124 124 128 116 122 123 136 134 133 137 133 138  77 137 133 133 115  97  92  95  80  78  73  40  38  25  42  26  35  26  85  30  58  52  70  68  29  27  48
  39  31  39  72  32   7  20  20  23  22  38  49  35  53  83  95 102 117 123 131 128 135 136 141 140 142 135 147 147 149 148 148 155 141 123 112 123 103 107 129 144 153 144 130 134 112 113 122 116 121 148 145 136 134 139 152 163 143 145 140 138 132 140 138 137 138 134 134 128 121 103  86  86  86  91  68  52  41  18  56  27  40  48  46  13  50  39  52  68  33  25   3
  23  34  45  57  34   8  22  47  23  25  29  91  37  62  73  88 106 120 126 130 135 145 143 145 151 152 155 156 154 156 151 152 147 136 122 115 111 103 121 125 143 143 136 132 122 116 110 132 123 120 138 149 153 141 153 164 162 153 175 157 138 147 153 147 135 136 129 143  49 116 102  88  85  93  90  70  34  29  23  42  29  29  88  27  24  51  38  37  32  17  22  33
  23  35  45  57  20   6  18  74  44  25  28  79  68  45  70  87 103 126 121 133 132 145 146 146 152 157 158 152 166 159 154 152 142 131 118 114 108 112 119 135 145 157 151 135 122 118 114 121 130 119 143 147 160 155 149 162 171 166 168 164 159 156 148 151 143 138 136 141 123 108  99  90  83  87  81  62  28  28  37  21  30  20  71  25  35  37  24  33  13  30  24   3
  35  36  24  65  30   6  17  50  45  22  56  71 105  46  66  84 100 117 126 131 145 139 144 147 149 158 164 158 155 166 160 142 137 131 128 115 107 116 120 125 148 157 165 132 125 114 119 120 131 128 128 156 158 163 163 160 168 166 163 162 159 159 155 148 146 144 140 140  65 117 100  90  77  81  83  61  34  45  35  20  26  20  42  19  40  35  19  19  14  10  16  34
  48  40  37  62  42   4  14  20  56  16  36  70 104  85  64  77  82 117 126 137 146 149 142 148 148 153 156 157 162 153 142 144 150 136 130 116 112 110 111 133 141 169 163 135 127 100 115 123 127 135 147 164 161 162 170 163 173 169 178 169 155 161 163 154 151 144 134 146 132 118 101  90  73  85  73  37  48  37  29  36  29  32  12  18  26  28  10  19   4  21  15  42
  26  37  54  75  53   7  29  14  16  37  36  56 114 133  52  72  95 110 132 137 145 144 151 147 144 151 158 158 150 154 157 152 158 142 139 120 109 111 112 131 142 158 146 131 121 102 108 114 131 138 164 160 171 156 170 162 167 165 178 170 161 161 157 154 154 152 143 126 138 117  95  94  81  73  77  36  70  21  38  47  21  32  15  29  26  19  11  13  10  34  16  18
  47  53  42  52  49   7  18  19  12  19  21  23 107 110  35  78 106 114 126 140 142 146 149 143 143 150 155 161 165 158 159 168 159 155 130 117 103 104 105 135 138 158 161 139 123  99  96 108 114 152 175 173 170 172 158 168 166 163 166 176 144 146 166 156 163 153 134 139 114 111  88  85  78  79  72  33  46  31  35  37  25  23  13  23  10  12  10  11   6   8   9  19
  40  50  42  60  54  14  18  49  34  14  14  33  32 109  43  61  87 107 126 139 144 139 148 152 151 146 150 160 166 163 172 171 168 161 127 123 102 104 112 118 131 147 159 141 124 104  94 105 122 148 157 176 176 180 182 173 177 169 166 162 163 143 158 158 153 153 147 137 125 107  81  84  68  70  50  56  18  29  43  19  16  13  12  30  20  34  11  10  12  56  41  43
  38  57  52  59  37  39  13  28  38  37  25  63  10  26  57  49  83 112 125 136 128 144 141 129 150 152 157 160 171 167 175 173 181 157 135 109  98  96 114 124 133 138 150 143 129  99  93  97 118 133 164 179 173 173 161 173 172 177 161 170 168 157 159 156 154 158 145 142 124  97  89  79  63  71  72  20  32  28  46   9  15  12  10  34  38  27  18   7  19  48  50  42
  60  64  37  38  28  46  20  35   9  41  15  18  29  41  21  28  82 109 114 123 132 142 140 150 138 158 164 164 164 168 174 181 173 143 119  98  98  91 113 119 137 144 151 142 124 107  95  92 118 116 151 167 175 176 188 173 165 179 176 167 163 157 158 150 160 144 139 137 123 113  77  72  65  68  43  15  41  29  37  15  14  12  18  52  13  24  15   5  17  22  30  31
  26  25  51  22  30  19  40  52  30  11  20  18  46  10  20  34  76 103 112 119 133 138 146 144 154 150 156 157 161 169 178 169 169 163 112  91  98  97 115 131 143 153 154 135 123 100  97  93 101 105 140 158 170 172 175 179 174 165 175 172 164 154 151 151 149 145 137 133 115  99  84  72  70  66  28   9  35  27  30  16   9  16  18  20  15  15   8   6  16  48  39  49
  31  30  29  40  20  12  23  87  74  12  13  11  10  31  43  10  51  99 110 114 126 136 143 148 153 153 156 158 165 177 167 161 157 163 102  95 106 100 115 139 149 157 156 152 134 103  99 105 104  92 129 153 160 168 166 167 171 166 169 159 158 150 156 156 148 137 135 126 115  99  75  71  76  54  29  21  39  19  34  24  18  24  22  28  43  35  10   4  39  40  41  45
  30  30  17  21  26  11  10  46  40  39   2   6   1  12  13  22  47  76  96 118 124 131 139 149 150 151 158 166 157 154 162 152 156 154 100 122 114 115 136 144 160 171 203 176 134 108 104 114 117 101 103 164 150 153 162 174 166 169 167 162 159 149 146 157 129 138 128 118 104  86  82  68  60  59  27  15  32  27  36  16  23  42  41  44  34  25  14   3  25  63  43  57
  20  24  12  25  19  12   7  10  28  24  15  11   5   0  18  12  53  72  96  95 125 124 139 145 148 149 152 151 158 158 175 162 157 143 108 137 121 135 141 155 163 182 230 168 141 120 109 123 124 117  99 158 161 151 157 170 165 157 160 157 157 156 150 141 138 134 108 112  97  75  72  69  60  50  18  25  31  32  49  11  58   1  57  41  10  17   7  11  27  31  37  49
   7  25  27  12  52  23   9   8  11  11   9   1   6   3   2   5  28  70  84 102 111 120 137 143 147 144 153 148 153 160 171 161 160 140 115 110  79 125 140 158 172 174 183 157 142 121 106  91 109 114 106 171 159 150 155 146 154 159 156 158 153 148 147 139 140 123 117 110  86  78  84  86  53  58  19  22  38  31  28  72   4  13  35  34  29   7   7  17  27  25  44  12
  36  17  29  15  29  16  26  11   1  14   3   8   6   4   0   2  20  73  88 101 101 116 118 141 136 144 142 141 148 151 156 160 152 151  98 125 143 115  95 138 155 156 165 155 128 102  59 155 115 100 145 164 169 159 165 154 167 159 156 156 153 141 143 116 140 121 113  99  99  93  79  78  68  56   8  27  41  34  31  14   5  39  55  15  32   6   7  19  29  17  63  17
  23  19  25  17  27  24  21  25  13   4   9   0   4   2   2   2  23  66  76  87 102 109 118 133 139 128 133 143 144 137 153 153 151 145 121  68 105 135 132 106 131 137 138 130 106 119 155 124 100 142 150 159 169 161 167 165 166 151 148 148 146 147 134 128 122 102 106  89  78  85  78  78  45  46   4  20  39  35  25  18   6  45  14  13   5   7  12  18  25  19  33  33
  22  18  16  27  32  39  36  35  43  25   7   4   4   3   1   1   6  54  74  82  99 105 120 125 132 128 124 130 138 138 150 149 144 143 114  87 111 104 131 131 110 114 116 104  76 130 114 124 136 123 152 157 161 163 162 165 156 149 147 142 141 142 132 123 110 107 102 100  95  79  75  82  65  36  10  17  12  30  36  28  23  26  11  15  10   7  15  28   8  66  21  44
  14  23  10  29  21  44  58  22  34  37  24  15   6   3   1   1   6  65  77  86  96 107 112 133 128 127 124 128 140 137 144 139 138 135  98  88  87  76 105 134 140  99 102 132 140 122  82  97 129 108 139 159 165 152 166 164 153 146 146 138 136 134 128 115 118 107  99  94  96  82  88  81  39  29  15  17  43  48  13   7  13  25  47  11   8   6  19  13  36  37  30  21
  21  21  20  18  21  31  32  21  29  23  53  49  24   9  10   4   5  54  87  95 103 101 110 129 122 128 111 127 135 110 119 141 125  97  68  67  49  83  97 120 149 117 126 136 129 118  97 120  61 102 136 136 151 148 156 157 158 143 139 133 133 113 130 113 121 110  84 102  90  90  75  82  38  24   4  57  33  39  28  24  23  24  22  19   6   6  22  25  38  35  33  25
  17  13  20  50  22  54  29  16  20  19  19  21  35  13  17  10   1  38  70  92 101 101 109 123 116 108  90 100 102  88 110  97  98  82  87  66  98  84 125 132 115 100 100 121 111 137  96  93  85 108  94 127 114 136 131 138 139 153 143 122 116 122 115 119 123 124 110  97  89  81  84  65  32   8  14  19  30  34  29  19  51  36  20  11   8  13  44  40  40  56  10  46
  14  13  15  45  24  36  23  27  39  18  29  21  25  17  19  20   6  36  75  82 105  92 116 127 122 100  87  67  55  85  56  72 109  57  82 112  92 104 121 169 108 103 117 129 137 160 136 116 114  74  62  66 132  81 107 126  89 113 130 126 121 123 126 123 112  83  94  87  95  71  86  58  42   8  36   2  23  33  18  22  46  33  16  16  10  56  45  54  73  41  16  66
  11   8  50  16  29  16  28  24  39  15  34  65  21  19  23  37   8  19  65  84  98 107 102 131 113  83  82  77  60  77  49  74  88  67  83  88 126 127 145 117 105 110 101 130 149 147 141 147 117 110 106  67  81  68  69  83 114 112 111  98 111 123 119 102 100 102  93  89  86  83  80  54  34  25  15   4  34  26  36  24  20  20  24  14  97  73  53 123  35  24  20  75
   7  25  32   9  18  35  13  15  31  33  39  30  31  25  20  34   8   1  79  67  95 100  99 111 115  75  97  55  95  73  89  81  91  92 109 127 116 154 153 167 136 112 132 156 172 154 162 144 139 137 114 129  61  86  71 112  71 137  93 109 116 128 106 116 114 100  92  92  92  87  44  62  30  35  10  10  38  35  38  42  24  20  33  80  65  59  46   2  23  28  23  33
  14  12  16  30  24  12  17  23  19  29  19  10  41  21  38  16   6   7  42  62  92  91  97 104 118  86  69  89  67  51  72 113 114 127 127 122 116 118 108 118 153 176 154 129 111 119 120 121 123 139 118 128 114 102  91  65  94  81 106  90 101 120 104 109  91 100  99  83  83  78  63  28  44  20  13  13  24  35  37  43  15  52  32  43  31  60   6  27  31  34  87  52
   6  19   9   9   5   9  18  27  31  15  29  26  18  21  19  22   4   3  33  55  76  97  67  76  76  89 101  89  86 102  87  70  86  77  91  95 102 112 101  97  89  91  90  95 102 106 105 103 104  95  88  93  96  94  57  98  86  93 108  90 129 119 108  95  99  95  94  93  75  87  65  34  50  14  10  14  31  27  49  35  22  28  23  25  26   3   8  27  37  51 114   2
   9   5   5   3   8  12  11   6   5  32  12  15   6  28  17  10   9   2  20  59  58  95  80  75 115 116 112  90 112 130 123  92  61  63  65  67  71  64  75  64  69  68  63  70  80  68  74  67  79  62  61  60  57  69 111 125  58 118 115 128 110 105 100  79 103  95  84  69  87  61  62  15  18   8   7  20  34  27  42  43  20  23  18  18  11  10  14  17  39  51  11  11
   1   5   1   3   5   4   4   7   9   6  12  16  17  22  20  12   8  30   3  54  75  75  57  95  85  89 108 108 100 135 130  90  96 106 104 104 111 118 122 125 118 118 122 119 125 123 124 143 108 108 114 103 103 108 142 136 115 122 121 128 122  88  91  74  98  71  86  84  70  56  30  49  20   7  14  29  37  43  52  17  25  18  13  10  40  11  15  16  14  10  52  16
   7   7   3   3   4   4   2   6   6   7  12  13  36  28  22  11  35  17   2  43  62  83  88  79  71  81  99  81  81 120 158 122 102 101 108 106 116 138 147 151 149 149 138 144 157 152 150 133 122 121 109 108 106 125 154 156  94  86 109 111 106  84 104  93 103  86  91  80  82  70  22  44  23  12  12  29  31  37  53  21  24  12   4  64  35  44  10  11  12  62  31  21
   8   2   0   1   2   3   1   5   5  10   9  21  53  24  23  46  20   8  23  21  39  77  78  88  91  75  65  98  92 136 146 133 105  98 102 112 119 113 123 143 149 151 147 155 157 136 116 113 119 122 113 125 121 142 157 158 123 129 104 103  68  73  92  76  97  75  66  74  75  44  58  50  18  44  12  30  41  49  55   9  22  12  10  59  27  14  15  23  38  42  68  31
   7   8   1   1   0   3   3   4   4   8   7  14  33  54  10   4   3  27  21   9  30  59  60  97  91  66  61  63 128 140 145 147 126 110 108 115 119 117 121 136 132 133 140 138 135 141 132 121 123 114 122 115 138 152 156 152 139  89  72  81  79  53 102  69  97  78  64  71  66  23  50  64  21  41  21  25  26  58  36  20  11  19  22  49   3   6  52  16  56  30  47   8
   7   9   7   1   2   2   3   3   7   8  11  17   6   5   5   4  29  15   3   1  15  52  45 100  85  34  34  74  94 128 134 136 135 131 119 112 109 113 113 104  98  99 104  96 111  93 116 118 122 128 131 130 150 151 146 139 105 114  97  42  85 112  69 110  95  82  74  48  15  26  48  51  56  51  15  35  42  46  35  56   3  22  25  13   7  51  28  28  59  16  10  78
  11  13  13  10   9   1   1   5   3   1   4   7   1   1   0   3   9   2   4   9  12  27  70  79  77  48  60  48  95 119 116 133 140 136 131 143 100 133 103 115  92  88  93  66 127 105 111 127 117 142 147 149 150 161 150 143  74  98  83  67  57  65  74  86  85  64  81  57   8  78  50  20  56  48  14  36  41  42  38  36   4  26   2  20  29  23  37  28  10  45  20   9
   7   8  13  15  10   4   8   6   2   3   2   0   5   2   4   1   7   1   2   1  13  19  45  58  65  35  50  72  65 110 105 121 135 146 136 121 118 115 134 122  74 130 106  82 112 112 135 108 145 137 155 157 152 149 144  99  81  58  74  52  97  49  68  73  54  53  44  15  46  75  57  62  80  31  14  56  26  38  37  24  13   9   5  23  20  26  15  17  24  50  32  32
   6  19  10   4   8   2   5   1   3   1   8   7  10   1   1   2   0   1   2   3   9  46   5  53  43  66  33  71  67  61  95 116 123 141 149 146 150 144 125  98  83 112 134 135 121 163 157 112 157 150 155 155 143  88 117  49  75  65  56  80  49  76  41  64  29  30  26   9 123  15  20  70  83  19  49  41  27  43  34  24   9   9   4  13  19  17  12  30  29  40  41  45
  11  10  11  17   4   3   3   2  10  28   4   3   3   1   1   0   2   4   2  11   6  49  73  13  17  44  36  47  45  54  87  94 105 134 142 149 147 147 101 105 152 150 116 140 141 150 127 174 152 159 162 145 107  82  71  69  60  55  63  83  53  59  47  47  36  13  25  31  90  20   7  94  76  13  34  34  29  43  40  15   6   3  14   4  17  22  24  12  16  48  33  57
  11   9   9  22  15   0   3   6   8   0   1   4   1   3   6   1   1   2   2   5   9  51  73  49  16  26  17  35  49  58 119 104 132 113 122 134 146 111  83 156 146 109 120 148 132 136 158 140 164 144 129 152 129 103  89  90  29  48  82  33  69  25  50  15  20  21  95  80  18  53   7  95  81  38  28  57  28  31  25  16  12   6   7  12  14  10  18  15  22  26  36  41
  12   4  10  19   6   5  10   2   6   2   0   2   3   1   2   1   1   4   4   3  11  55  69  89  35  17  21  32  34  37  72  79  73 106 115 102 116 107 107 135 159 152 173 163 162 130 154 143 140 147 121 100  99  89  60  71  62  58  76  37  50  33  20  17  20  55 117 105   3 103  10  88  75  22  50  49  49  26  19   7  19   5   9  13  18  31  16  26  30  28  26  59
  17  12  18  18  18   4   6   5   5   4   4   2   3   3   3   2   1   8  19  28  31  51  72  92 110   9  14  18  32  62  57  64  83  99 107  71 136 124 101 145 136 156 133 149 130  80 138  93 117 103 108  91  74  81  72  45  56  32  42  30  18  28  15  16  24  93 114  81  31 107  73  70  69  28  43  52  54  22  23  13   6  33   6   8  18  10  27  38  60  42  38  55
  15   7  15  26  33   7   5  19   7  15  11   1   1  10   4   7   6  10  11  11  38  54  75  83  95  71  11  11  17  27  45 105  71  58  76 109  89  94 132 136 118 159 141 130 128 123 144 119 105 111  94  86 122  62  66  52  47  40  35  23  19  15  23  32  79  92 133  23  93 120  99  12  76  17  38  56  24  21  21  15   4  14  22   4  17  17  24  44  48  58  30  38
  15  23  16  32  62   3   2  11   8   7  10   5   7   3   9   2   6  16   4   0  47  52  75  85  89 110  65   8  16  37  62  69  77  88  83  75  85 115  98 108 142 127 128 120  94 114 123 106 106 100  97  75  54  70  47  89  18  33  21  12   9  34  27  62 117 110 125  46 137 106  93  50  48  29  38  38  41  26  26   9   9   8  22  13   7   8  35  84  53  40  87  52
  12  29  16  33  59   4   6   4   6  15   9   2   1   9  10   6  10  10   7  10  49  54  73  86 101 106 114  31  17  24  23  36  39  67  58  81 107  61  82 131 102  95 131  84 112 106 103 125  81 110  68  55 110  40  35  64  37  19  15  13  17  41  76 100 116 118 122 119  64  99 105  87  34  35  29  24  28  38  21  39  12   4  20  11  18  21  19  20  46  62  29  46
  24  41  24  40  47  17   2   5   8  15   8  14   2   8   6   3   8  13   8  17  53  63  82  93  94 105 114 101  17   8  25  28  41  58  50  71  40  88  91 117 123 109  85 103 130  79  82 114  63  71  74  66  53  56  39  18   7  23  20  20  64  63 112 111 132 128 121 123   8  81 106 100  50  24  31  42  32  48  31  20  43  44  19  15  12  19  41  43  38  77  85  65
  33  60  47  36  28  31   5  10  13  18   7  14   1   5   6   8   9   9   9  28  57  69  68  96 107 100 113 115  93  32  23  23  53  30  81  61  35  70  85 104 115 109  94  93  96  68 102  60  68  74  61  47  28  26  21  14  15   9  49  74  78 109 123 136 128 124 136 126 104  39  61  68  70  30  33  32  36  51  12  41  43  72  61  11  11   9   7  21  31  41  45  35
  45  22  79  73  50   5  10  16  10  20   3  29   4   8   4  15  16   6   8  14  57  65  72  91  94 110 111 112 108  86  30  13  10  20  32  64  44  58  83  51  69  90  51 101  62  57  80  79  61  90  29  27  16  15  11  18  66  50  68  71  97 113 120 117 132 136 133 127 106  93  10  35  21  22  33  38  28  46   8  33  29  35  44  30  16  20   7  22  11  32  24  20
  34  55  45  46  41  14  13  26   3  33  12  24   6   9   8   8  12   8   8   7  46  73  84  85 106 104 120 112 115 123 108  70  14  26  40  27  44  57  48  45  42  43  46  28  42  77  44  35  22  15  31  16  13  23  17  42  83  94  93  99  95 118 122 135 132 132 135 124 118 111 104  77  29  18  36  30  36  28  55  64  60  31  36  19  16   7  42  17  14  47  24  27
  37  14  84  45  29  22  16  19  10  38   5   8  15   7   8   6   4  12   8   8  52  73  76  90  98 116 111 121 121 112 125 103  77  24  35  10  17  17  12  11  15  17  14  21  28  33   8  17  30  31  23  37  56  92  97 104 105  97  77  98 111 118 128 135 137 139 129 134 124 114  98  94  69  71  37  40  46  35  60  69  85  34  24  34  21  17  18  55   9  26  36  30
  55  20  34  71  37   7  18  23   5  64   4  11   9   4   8  13  10   5  10   8  27  72  81  91  99 110 112 118 118 119 117 118 135 106  59  50  32  21  23  27  13  47  23  39  30  20  39  38  39  62  59 113 114 126 106 112  80  75  89  99  99 133 133 124 138 132 130 126 119 119 101  98  76  80  20  39  19  26  33  30  44  36  17  25  27  42  26  23  71   4  36  17
  11  38  11  76  58  10  31  26  11  99   3   7  12  16   3  13  10  11  11   9  51  56  80  98  96 104 114 123 118 122 125 122 126 127 136 107  76  77  88  95  72 110  91 100  84 107 124 112 124 129 135 130 117 116 107 106 102  96  96  93 127 126 139 127 138 128 138 127 125 121  98  94  98  54  51  62  34  18  47  23  16  26  53  64  39  48  57  37  22 117   2   9
  14  19  59  60  66   6  21  13  48  88  12   9   4   8   7  25   5  12  11   7  13  43  95  95  96 107 110 119 116 121 126 130 123 128 126 131 127 108  93 107 111 116 113 123 115 118 132 141 128 132 145 133 130 109 114 112 103  99  84 120 117 124 127 130 134 130 130 127 115 112 100 100  91  41  36  49  46  36  33  22  22  22  42  46 108  51  23  53  31  13  69   8
