P2
# Generated by OpenCV 4.2.0
92 112
255
  81  83  85  87  90  93  95  98 100  99  98  96  94  91  87  84  80  78  79  81  84  90  97 102 113 116 101  50   6   8   3   5   3   2   4   5   7   7  17  10   8   9   8   9  15  23  22  12   7   6  23  37  38  24  16  25  27  30  29  23  25  30  44  48  58  74  84  85  86  86  86  86  87  86  85  84  84  83  82  82  81  80  81  83  83  82  84  81  83  83  83  85
  84  83  85  87  89  91  92  94  95  94  94  92  90  87  86  82  79  77  77  79  82  85  88  96  86  54  24  10  10   5   3   4   3   3   4   3   8   7   8   9   7   8  12  12  16  17  22  22  20  13  16  32  40  30  30  22  18  18  21  22  24  25  25  30  35  34  47  77  88  87  88  87  86  86  86  85  84  84  82  83  82  81  81  81  82  80  80  81  81  81  81  82
  90  89  89  90  91  91  92  92  92  91  90  89  87  83  83  83  81  79  77  77  77  75  75  60  23   5   8   9   4   2   3   3   1   1   4   4   4   5   5   4   4   5  12  19  21  18  22  24  29  21  27  33  35  42  30  22  27  25  21  23  23  19  19  26  30  24  26  42  76  87  85  85  85  87  88  89  88  87  86  85  84  83  82  80  80  79  78  79  79  79  79  80
  95  96  95  94  95  94  93  93  93  92  90  88  88  85  83  83  79  78  76  72  74  66  42  18  16  17  13   9   9   7   5   4   3   1   2   5   7   7   6   7   6   6   9  13  19  17  22  34  37  26  32  36  32  36  25  23  25  25  23  20  24  18  19  21  25  24  24  27  47  73  83  81  84  88  89  90  90  89  86  87  85  85  83  79  79  79  79  79  78  78  77  79
 102 103 102 100 101 100  99 101  98  96  93  93  91  89  87  85  81  79  76  71  53  31  13  17  20  18  14  11   9  11   9   6   8  10   7   6  11  12   8  11   9   8  15  15  14  14  23  29  29  27  32  27  32  39  31  31  35  35  21  19  14  15  17  26  26  20  24  22  31  52  72  81  84  86  87  88  90  89  88  87  87  86  84  81  80  79  77  78  78  78  77  78
 106 105 106 107 108 108 107 106 105 102 100  99  99  98  93  88  93  80  66  52  35  19  18  16  14  25  14  11   4   5  11  16  14  17  21  15  18  23  16  21  20  12  23  30  34  19  28  27  24  21  30  25  27  30  34  21  24  29  37  24  13  15  10  12  27  24  24  27  27  44  57  71  83  85  86  87  88  88  87  86  87  85  85  83  81  80  78  78  78  78  77  79
 108 108 109 110 111 112 111 110 110 106 105 108 104 104  99  94  85  71  49  23  17  17  20  23  21  30  23  16  12  10  10  13  18  19  22  25  23  20  19  22  41  25  28  33  49  45  46  29  34  23  29  41  29  31  50  23  19  47  47  28  20  21  20  25  19  22  27  35  30  34  46  59  75  79  84  87  87  87  86  85  87  85  85  83  81  81  79  78  79  79  78  79
 104 107 108 110 111 112 113 113 111 109 113 109 106 106  95  84  63  31  16  21  26  24  35  51  52  37  21  22  19  20  23  18  11  17  27  30  36  36  22  21  45  53  43  33  38  48  56  42  46  38  43  55  33  47  62  52  27  47  48  46  51  30  36  33  21  22  16  27  45  46  40  48  69  77  76  81  85  86  87  87  85  84  83  82  81  81  80  79  78  78  77  78
 101 102 104 107 109 111 113 112 112 110 111 105 107  97  88  79  37  20  22  21  28  27  40  48  39  37  31  25  20  17  14  16  21  27  28  42  48  55  49  35  26  45  53  36  31  39  32  48  72  56  46  60  47  48  50  63  34  25  43  55  57  43  36  27  39  30  11   6  20  41  37  40  58  74  76  75  75  79  81  83  83  83  81  81  81  81  79  79  78  78  77  78
  94  97  99 103 106 109 107 109 111 112 112 104 101  85  78  49  26  28  23  21  26  20  18  28  23  21  19  21  22  18  17  21  24  34  24  35  51  50  45  50  35  32  32  34  21  26  28  27  40  53  47  53  48  40  41  60  41  17  32  35  39  49  37  36  32  18  13  19  18  23  43  29  33  62  74  75  76  75  79  79  80  81  81  81  80  78  79  78  78  78  79  78
  90  92  94  97 100 102 102 107 109 107 105 103  79  56  44  37  53  43  33  31  36  35  23  15  23  20  17  18  21  20  19  20  18  22  23  23  28  33  35  23  22  21  21  25  27  22  33  27  23  33  55  49  39  39  36  41  36  25  21  20  35  48  48  48  49  46  46  41  40  33  36  41  21  32  67  76  77  77  77  79  78  79  79  80  80  79  78  79  79  78  78  78
  85  85  90  91  95  98  99 101 103 103 103  80  49  49  34  29  45  47  35  30  25  25  18   7  10  16  22  19  24  25  19  17  17  24  30  25  24  22  28  35  20  18  26  26  30  29  37  36  36  35  44  54  45  39  36  32  35  27  15  13  28  31  55  56  68  55  47  39  34  24  30  35  25  17  34  71  76  80  79  79  80  78  79  79  81  80  82  81  80  79  78  78
  81  82  85  88  89  92  96  93  95  96  86  51  48  42  25  27  29  30  22  19  14  13   9   6   5   9  22  32  26  32  29  21  16  17  25  29  34  41  38  43  50  45  46  54  57  54  52  51  64  61  52  55  57  48  51  44  46  31  16  14  27  16  28  34  33  27  42  43  31  15  17  22  39  28  14  45  71  80  84  80  80  78  79  82  84  84  84  85  83  82  79  79
  80  81  81  84  86  88  90  88  90  87  69  42  52  25  22  20  20  17  17  14  15  15  10  12  15  17  20  27  24  25  34  33  28  33  47  56  63  69  74  82  86  92  95 104 108 101  95  88  94  92  94  85  80  74  75  71  61  40  29  21  23  14  16  18  25  20  22  31  18  16  17  28  34  41  26  35  58  71  86  84  81  82  82  82  85  86  86  88  86  85  83  80
  81  82  81  82  82  82  85  84  84  75  60  43  33  23  22  18  17  17  17  14  17  11   8  15  29  30  23  25  30  45  61  62  65  81  92  98 101 102 100  98 101 112 128 133 134 132 135 134 138 136 133 139 133 113 111 114  98  77  52  36  28  24  18  13  16  17  12  17  13  10  14  26  43  43  31  32  63  66  77  88  85  84  83  84  86  89  90  89  89  89  87  83
  81  81  81  82  79  77  80  81  70  77  52  24  25  36  28  22  28  27  24  25  20  12  12  18  31  37  31  44  62  73  81  93  98 111 118 119 118 123 124 129 131 134 136 138 140 144 147 155 161 166 167 169 167 150 151 151 156 133  99  76  61  45  33  22  17  16  10  10   5   7   7  14  38  47  25  29  59  78  70  84  86  85  88  85  85  92  92  92  92  92  89  86
  81  81  82  83  77  75  79  77  72  74  36  25  30  35  41  34  32  36  35  26  18  18  16  20  32  49  71  81  93 100 108 111 109 117 124 125 126 131 129 132 134 135 135 138 141 144 150 153 160 167 171 172 173 169 167 168 173 167 151 137 115  89  78  52  33  20  14  10   6   3   1  10  35  40  32  38  55  93  75  75  88  87  88  88  85  93  95  95  94  94  92  90
  81  81  81  79  77  80  79  73  72  53  48  37  31  45  40  42  43  40  26  14  13  14  25  40  52  80  97  99 110 113 115 120 122 128 127 128 128 130 130 129 127 130 136 139 140 145 150 156 161 168 167 169 173 173 169 168 171 167 167 164 151 139 134 104  70  45  23  12   6   1   2  16  37  37  50  51  37  94  83  71  78  88  88  89  87  93  95  96  96  94  95  93
  81  80  80  77  81  79  72  72  57  60  75  38  34  53  52  48  34  35  21  16  15  23  53  60  75  92 101 106 115 114 117 125 125 129 131 132 129 127 132 132 134 138 145 148 154 157 163 165 166 170 170 172 173 176 171 171 170 168 169 163 160 159 156 146 122  93  58  33  11   3   1  21  34  41  60  55  30  64  91  66  76  81  88  87  87  94  97  97  95  95  97  95
  81  81  79  79  81  76  70  58  41  76  61  41  44  54  59  46  37  35  22  19  19  48  53  64  86  96 100 106 113 116 120 125 128 128 132 133 131 131 128 135 141 145 152 153 157 162 163 163 167 175 174 172 174 172 167 170 169 168 170 165 163 159 164 162 141 122 102  74  42   9   4  17  30  32  53  75  36  39  95  81  64  81  82  86  89  93  94  95  94  97  98  96
  82  80  78  80  78  73  61  42  32  48  39  42  44  57  43  35  35  39  21  23  37  49  52  81  99 101 101 104 111 118 121 122 125 129 130 133 139 137 137 147 149 149 149 151 156 164 168 168 175 176 179 179 178 174 171 171 169 167 165 162 162 157 163 165 151 133 119  98  82  42  15  19  26  16  49  99  46  30  82  98  54  61  75  82  88  91  93  93  94  98  98  97
  80  78  78  80  76  65  53  29  27  38  36  40  40  36  31  34  36  29  22  25  40  46  68  84  96 104 102 107 114 119 119 123 129 131 129 133 135 138 144 148 152 153 154 157 165 174 176 185 193 194 189 185 186 185 181 178 180 176 167 165 163 163 158 160 157 140 131 104  97  78  33  26  22  18  58 102  48  36  69 103  54  45  61  78  85  89  91  92  95  97  98  98
  79  81  82  79  68  56  38  21  28  36  36  35  34  26  28  39  33  22  19  26  32  50  70  83  99 100 104 110 111 114 117 120 126 130 135 138 138 144 147 149 154 153 164 171 173 179 179 186 191 189 190 193 195 194 190 190 188 185 178 174 170 163 161 162 165 150 143 116  99  88  52  23  13  41  71  92  49  51  54 100  62  38  49  68  82  85  89  92  94  95  96  96
  80  83  80  75  59  47  21  21  34  34  36  34  30  26  39  43  28  21  18  26  26  52  78  90  98 108 106 108 111 114 115 118 124 128 131 136 139 140 144 147 149 152 168 172 179 178 191 200 204 203 198 191 192 187 186 187 189 188 183 177 175 180 172 166 169 164 150 136 106  93  65  29   9  71  71  68  58  49  48  93  93  32  35  46  75  84  88  90  93  94  94  95
  80  82  78  69  51  36  15  18  34  32  37  36  30  29  33  33  21  20  20  19  34  62  81  95 106 115 112 110 113 115 115 119 122 124 129 137 133 130 144 147 149 163 167 172 181 184 194 198 203 212 212 203 200 193 189 190 190 193 188 184 183 186 188 174 173 169 158 151 113  98  74  35  14  80  56  54  59  46  48  90 111  36  25  39  61  80  83  89  90  93  94  93
  81  79  75  65  52  30  17  18  25  29  33  43  29  30  35  30  16  17  27  28  42  62  83  98 110 117 115 115 116 119 114 119 121 124 126 129 130 131 142 143 149 160 166 174 178 187 188 195 200 201 205 205 207 200 194 192 193 196 195 188 190 192 193 194 179 179 162 158 125 107  84  43  23  80  65  51  62  55  52  93 111  35  32  34  52  81  88  84  91  91  94  93
  80  77  78  66  44  22  18  15  15  25  29  40  35  32  41  33  16  18  19  33  40  59  81 103 112 114 118 117 116 117 115 117 117 120 128 130 135 136 137 142 151 157 163 169 182 188 189 200 198 203 204 203 198 193 192 184 189 191 187 183 183 189 193 192 186 182 174 160 139 114  97  59  30  65  79  45  63  63  61  98 113  25  32  36  44  62  92  86  92  90  92  93
  77  81  83  62  35  22  20  12  13  25  29  30  34  33  42  24  11  13  10  20  34  59  89 112 112 117 125 119 113 110 110 113 113 117 122 125 131 135 137 141 149 159 165 174 182 181 186 194 203 202 203 207 204 199 187 180 179 177 175 173 173 176 182 184 181 180 182 167 148 115 107  76  41  54  87  52  50  65  65  96 108  34  27  37  42  42  75  91  93  92  90  94
  82  84  82  57  29  21  16  13  12  24  31  27  36  43  42  16   8  11   8  16  42  67  97 109 114 118 123 121 115 110 112 112 110 116 126 135 139 143 148 154 157 163 167 175 174 178 186 192 201 203 201 203 208 197 188 178 174 171 171 174 171 175 172 169 168 167 177 178 157 120 109  89  50  50  82  60  39  59  65  94 107  45  27  33  37  38  50  88  96  94  94  94
  82  84  78  56  27  21  11  14   9  25  30  28  32  42  39  12   8  15  13  21  44  71  94 104 114 114 119 117 114 113 110 105 112 127 139 149 154 157 161 167 173 174 177 177 177 178 181 190 191 202 199 203 206 201 194 185 177 171 170 171 171 173 165 162 165 167 170 175 160 130 109  92  52  44  66  57  40  42  54  95  95  63  15  23  28  34  25  54  86  94  99  96
  78  82  76  47  21  14  11  12  14  30  28  38  44  41  26   9   8  11  14  26  51  69  84 101 110 115 120 116 114 110 100 106 125 138 147 158 166 170 171 177 183 189 192 191 189 189 188 193 196 197 196 196 198 196 188 187 181 173 170 175 178 178 174 178 182 175 172 170 161 132 110  97  49  33  46  45  38  33  51  95  85  73  39  27  28  28  25  30  57  89 100 101
  78  82  77  40  15  11  11  13  19  34  27  37  66  69  30  10  12   9  16  35  58  68  82  94 104 113 116 111 105 100  94  98 113 125 140 155 166 177 184 189 193 199 200 199 199 199 196 194 199 198 199 199 202 202 191 189 187 182 182 183 186 182 183 192 186 180 176 174 170 132 109 106  52  34  40  42  31  30  44  88  75  71  46  32  38  41  33  21  30  77  99  99
  86  85  75  32  13  10  10  18  19  34  25  37  80  94  40  18  15  13  18  34  58  75  85  91 100 105 110 106 100  87  77  84  86 106 123 134 151 169 183 196 203 204 206 205 204 203 206 201 199 200 201 200 196 198 197 195 194 194 198 202 201 201 199 196 189 188 175 169 163 140 111 108  56  35  35  39  33  32  35  80  75  78  44  33  39  45  61  59  38  41  92 100
  83  81  73  25   9  10  11  19  20  26  18  32 103  93  43  13  15  15  23  37  51  70  81  91  97 102 105 101  94  81  73  70  78  84  89 108 128 157 181 193 197 201 204 203 203 205 208 207 203 202 203 203 200 203 198 202 204 205 207 208 212 212 210 204 197 196 180 162 161 148 117 113  57  33  32  32  31  23  27  60  76  79  57  28  33  36  50  80  70  29  66 101
  82  81  64  17   6   9  13  24  21  23  18  17  88  95  57  17  19  17  28  53  61  73  83  89  94  99  98  92  82  82  68  65  59  60  67  77  95 113 148 168 179 194 192 193 194 198 202 201 204 205 206 209 210 206 204 208 212 207 209 208 209 207 212 205 195 180 162 162 153 145 119 111  66  39  33  25  33  17  25  50  70  72  68  36  30  37  36  45  42  18  29  86
  79  79  55  12   8  13  21  32  18  27  21   6  46  95  60  13  18  19  39  65  70  81  89  90  92  95  86  71  69  69  67  67  51  44  40  54  63  82 102 116 145 168 183 181 184 184 189 187 194 200 203 206 203 203 201 199 198 193 202 195 198 199 193 181 173 148 138 158 133 124 121 110  76  41  33  23  28  29  25  43  64  68  63  34  22  34  55  59  41  20  17  62
  82  79  41  14  11  14  25  27  19  22  15  10  22  71  65  14  15  20  50  74  72  82  88  88  90  84  69  61  58  58  72  70  53  30  31  36  39  46  56  72  97 129 149 165 171 168 175 180 184 188 194 195 191 193 189 186 188 182 183 182 161 148 141 125 116 113 137 140 123 116 122 103  77  48  35  22  23  32  29  34  58  66  61  43  15  10  32  58  46  25  15  45
  87  74  29  15  10  17  21  14  21  22  13  13  15  41  58  23  13  27  64  75  74  80  91  88  88  67  54  51  54  73  85  90  99  89  65  50  40  35  27  35  50  71 102 124 147 160 161 160 165 174 179 185 178 174 177 168 163 148 124 121 105  87  73  61  70 121 124 103 103 108 108  94  78  55  34  23  24  26  25  34  56  62  58  53  25  13  15  19  25  29  26  42
  80  53  16  20  18  17  18  20  20  28  18  17  20  28  39  33  11  29  72  80  76  79  91  90  80  60  54  61  84 106 119 125 134 139 133 109  75  48  42  34  32  39  60  78 114 140 149 151 160 167 166 172 169 160 154 133 122 100  69  57  49  41  35  45  85 104  89  90  99 105 103  91  80  57  34  23  24  24  21  30  44  52  57  64  43  19  12   8  26  32  33  41
  76  36  15  23  19  18  33  33  22  28  26  18  18  20  29  36  23  36  74  83  76  80  87  88  67  51  66  79  97 117 131 135 136 133 129 123 100  67  49  48  48  41  42  59  87 113 129 146 153 158 165 160 155 145 133 111  92  65  44  32  29  34  45  73  75  61  61  78  91 104 111  88  77  57  31  21  23  25  28  20  37  43  53  56  55  22  14  13  20  26  39  46
  59  22  16  26  23  31  39  29  25  25  25  20  15  17  28  29  27  43  73  91  90  82  89  83  65  51  67  82  94 109 103  85  70  62  63  58  52  48  45  42  47  55  53  60  78  88 113 129 143 151 152 153 140 126 106  80  63  49  40  38  43  47  66  78  76  83  92 105 105 110 110  92  70  56  31  18  21  20  28  20  29  39  51  62  57  38  23   7  16  14  36  60
  54  14  20  29  30  35  25  16  29  25  23  26  15  16  26  24  27  52  75  87  91  88  92  86  69  62  68  86  96  75  51  61  78  89  83  70  42  19  16  22  31  43  55  61  63  76  97 110 128 139 143 137 122 107  83  62  52  50  47  43  40  48  78  94 117 138 144 148 148 135 115  95  64  56  33  15  22  18  21  21  21  33  40  62  58  38  14  20  19   6  28  72
  36  15  26  27  30  27  14  19  38  23  25  23  16  13  23  26  34  62  81  90  93  96  93  86  78  70  74  84  75  44  68  71  56  45  37  30  20  13  12  13  16  27  40  51  61  66  77  95 114 122 126 113 100  84  66  55  49  45  43  39  35  47  69  86 101 114 132 147 154 136 128 101  55  53  35   8  18  16  18  17  18  31  31  46  64  61  12   9  29  17  26  71
  19  20  32  34  31  18  11  34  41  27  28  18  15  12  21  28  37  62  83  92  98  99  92  86  82  78  80  82  55  41  28  20  36  61  70  51  17   4   7  10  13  13  23  36  48  58  70  91 108 112 119 122 108  78  53  43  39  33  24  19  15  15  18  23  26  33  49  82 122 135 135 108  55  54  41   0  15  16  17  22  18  26  29  27  50  76  48   9  26  20  34  66
  26  31  36  38  31  20  13  41  32  36  28  17  13  12  23  31  32  59  82  93  99 102  97  90  87  86  85  78  60  35  45  69  80  99 107  87  45  28  24  14   6   8  14  21  33  62  92 116 134 145 150 147 134  78  31  27  21  16  16  15  13  11  14  14  19  30  41  30  59 108 123  87  51  58  46   0   9  18  13  22  29  22  28  24  36  61  83  61  27  16  42  68
  27  34  54  44  36  22  16  43  32  39  24  15  13  13  26  31  34  62  88  95 102 104  94 101 105 108  96  75  68  74  93 106 110 109 107 120 132 114 101  78  55  43  38  49  57  92 122 142 163 179 181 174 150  52   8  10   5   5   9  25  39  62  47   9  18  26  49  61  32  76 108  63  43  60  47   1   3  15  15  12  34  24  26  21  35  46  61  97  70  34  50  71
  21  38  52  35  33  35  35  41  31  32  20  12  10  15  26  31  39  62  84  93 107 113 108 117 120 124 126 121 107  90 114 124 140 149 146 143 130 127 128 123 107 100 108 113 111 136 142 161 186 202 205 199 171  81  12  18  43  57  64  89 135 135 103  32  15  10  20  51  42  78  78  48  53  66  49   3   1   8  16  10  25  29  21  23  23  49  48  56  84  71  51  62
  32  44  41  28  29  56  52  37  35  25  17  13  10  19  26  31  47  72  79  92 108 122 124 127 129 131 138 136 118  97  98 103 111 120 114 104 106 112 106  85  80  99 120 133 136 146 146 162 176 191 196 198 185 164 120 122 147 159 180 156 149 135 121  98  91  84  64  38  57  91  53  54  61  73  47   5   2   7  22  11  18  28  21  23  13  32  54  43  53  67  60  58
  37  44  32  32  39  59  57  41  34  22  14  13  17  24  21  29  47  67  91  95 108 121 126 131 135 134 132 134 130 111  95  88  81  73  61  53  50  44  43  77 121 146 144 142 149 144 144 156 163 176 182 187 182 174 149 143 132 110 121 136 143 146 137 136 138 132 133  99  80  91  60  66  73  81  54   8   1  19  30  11  14  26  23  28  16  22  53  48  69  77  83  59
  44  36  21  37  49  53  58  47  29  19  17  12  28  26  20  33  59  67  90  96 109 121 130 134 139 141 134 141 149 141 134 116  92  80  87  92 100 122 147 167 171 159 144 147 145 139 143 145 165 184 185 186 175 178 167 158 141 107  72  76  92 108 126 145 146 139 144 148 141 122  95  82  80  87  53  11   7  19  20  15  11  20  23  30  19  32  48  35  41  67  98  90
  45  28  20  27  48  54  52  43  23  16  12  17  28  28  22  38  64  72  90  96 108 122 126 135 143 141 141 146 152 154 158 163 171 177 181 183 185 187 186 179 168 152 144 144 133 135 141 135 168 194 188 189 179 175 183 167 164 135 113  82  60  52  57  66  85 106 147 159 172 169 126  94  82  94  57  13  14  20  12  17  12  16  18  32  26  35  42  39  37  39  69  76
  43  29  23  19  42  53  47  43  17  13   9  21  30  21  21  44  63  76  95  97 110 115 126 138 145 145 145 145 154 153 157 165 170 177 181 191 193 193 183 169 162 156 155 138 129 133 129 131 161 190 186 190 184 166 183 183 190 182 155 134 133 123 110  98 108 136 147 161 159 144 148 114  87  94  64  18  12  23  13  19  16  18  19  26  35  32  41  46  47  42  57  56
  42  35  31  12  37  53  46  38  17  13  10  24  27  15  22  44  62  81  99  92 102 114 133 136 143 146 149 153 153 154 156 162 170 185 192 195 190 182 178 175 171 169 161 138 126 128 128 134 161 188 189 182 185 162 176 186 200 204 193 166 166 179 184 187 187 182 180 183 175 162 156 132 103 100  68  22  12  20  14  19  20  13  17  22  40  34  47  48  47  40  56  50
  39  54  37  13  43  54  42  30  18  16  11  22  22  19  25  36  57  85  89  95  98 111 125 136 142 144 151 153 153 155 156 163 175 187 189 187 187 194 196 198 187 176 161 131 122 120 122 133 148 178 191 189 190 163 168 189 205 206 205 194 173 167 177 177 180 185 186 193 193 190 177 139 110 100  70  23  12  17  16  15  22  13  16  22  38  34  40  45  44  36  44  67
  32  62  48  18  46  53  39  26  21  20  17  20  22  18  29  35  57  78  82  90 100 104 124 137 148 151 149 154 159 160 159 169 178 184 191 202 201 207 211 201 177 155 146 129 121 121 129 141 144 164 186 189 188 166 170 193 206 199 201 202 197 182 180 186 182 188 186 189 189 194 196 148 107 101  76  29  10  10  13  16  22  14  15  17  35  37  27  40  46  36  38  65
  31  60  42  25  49  57  35  23  23  16  20  21  17  19  30  40  51  64  80  84  95 111 125 134 148 153 155 155 158 157 165 174 181 195 199 201 202 185 190 175 157 147 142 131 123 126 134 141 146 165 185 189 186 174 172 188 202 201 200 201 200 191 188 186 191 197 198 195 190 190 194 171 112  99  74  33  12  10  11  17  20  13  17  19  30  46  25  34  54  39  47  51
  30  53  25  26  54  56  28  27  26  18  13  15  12  18  30  30  50  65  73  81  93 113 125 131 139 150 150 150 156 163 165 178 188 195 196 194 190 186 173 161 144 142 137 133 129 130 134 140 163 189 201 198 193 173 178 176 183 193 198 201 203 202 199 192 192 196 197 197 195 187 184 174 124  96  76  40  12   9  14  16  21  18  20  24  25  42  42  29  53  35  45  58
  17  29  18  23  57  59  28  28  27  22  14  15  14  17  26  27  60  62  63  77  95 112 118 120 133 144 142 146 158 163 169 177 187 190 187 188 180 171 159 150 137 135 134 140 140 140 143 152 191 223 230 216 207 175 177 177 159 181 197 198 198 203 206 203 200 199 196 192 200 193 179 172 130  85  82  47  15   9   7  13  23  29  29  27  27  40  62  33  52  53  30  54
  14  20  17  23  50  51  29  33  31  18  13  18  16  23  29  34  55  52  59  66  87  99 104 114 131 140 142 145 158 167 173 178 184 182 175 175 162 150 143 147 148 132 142 156 152 144 151 164 194 221 222 206 211 184 180 185 155 163 182 190 198 199 195 208 210 212 203 199 200 198 186 171 127  85  91  53  14   8  10  18  26  20  33  32  40  41  58  52  50  63  28  42
  23  21  14  26  44  48  29  51  44  18  11  10  13  23  24  27  39  51  56  63  78  99 103 105 125 131 132 140 150 164 169 176 176 175 170 166 154 136 130 156 163 135 148 149 127 129 138 148 166 175 176 173 181 176 186 200 174 149 170 185 185 191 193 202 210 212 213 208 203 200 194 174 115  86 106  59  26  18  11  19  27  18  33  47  45  42  44  68  54  71  33  35
  19  21  11  32  57  50  33  75  62  26  11  10  11  20  22  27  36  53  62  61  79  87 101 103 126 121 127 147 154 164 165 167 166 165 165 157 151 145 162 178 150 126 120  67  22  42  82 113 139 145 143 155 157 156 161 162 181 163 156 169 173 183 194 198 204 207 207 207 206 195 187 173 107  89 109  49  16  18  13  24  24  25  38  60  59  43  32  79  72  68  39  34
  16  16  13  17  44  60  44  88  78  45  17  19  19  19  22  22  39  55  62  66  69  78  97 100 113 117 126 144 152 157 158 158 160 163 162 157 154 168 190 187 131  98  68  10   0   0   9  57 112 117 104 123 144 102  47  62 143 160 146 149 167 181 186 189 198 203 201 204 203 187 174 165 100  93 103  65  29  10  27  33  28  21  36  53  74  67  20  60 109  77  42  39
  16  13   9   5  26  58  55  83  84  55  21  16  14  17  20  22  39  47  54  67  68  75  96  94 104 113 131 131 133 144 147 152 156 150 151 153 164 185 195 201 142  60  42  31  30  17   8  12  77  85  75  94  68   5  10  36 119 157 147 140 151 163 172 182 191 193 196 194 196 186 163 147 100 100  88  56  39  11  49  39  33  18  28  49  69  81  31  27  98 104  63  50
  15  12   7   4  20  51  58  79  78  82  28   8  17  19  17  16  37  41  52  61  63  76  83  87 106 112 124 123 132 138 133 135 141 144 146 159 185 196 193 193 144  61  45  48  69  70  38  30  55  53  67 100  59  20  29  75 144 171 158 140 136 136 154 167 179 186 187 188 185 170 157 143  92  95  83  47  30  18  62  49  35  23  24  45  70  68  50  23  60 118  73  64
  14  10   7   6  13  43  65  61  59  83  28  10  16  15  15  18  26  41  54  49  67  84  88  89 105 110 114 122 127 130 122 129 130 135 152 167 182 191 192 190 146  85  67  84  75  73  73  45  32  38  66  94 101  75  99 142 169 179 172 149 134 139 149 160 174 177 176 179 175 163 139 119  85  94  88  44  27  41  84  67  35  25  20  32  71  61  46  28  24 100  84  43
  12   8   8   6  11  31  58  57  47  55  28  13  11  14  15  20  27  46  50  51  67  85  86  91 108 106 109 121 131 126 127 130 134 148 165 166 180 181 176 162 135  93  75  59  49  62  74  64  29  20  44  54  61  70  92 131 177 186 195 165 135 135 141 152 162 160 159 151 150 152 141  93  73  73  59  37  30  57 106  98  26  15  25  26  66  53  53  38  20  69  81  28
  11  14  18  11  11  20  43  58  41  40  33  18  13  14  15  19  29  40  39  43  66  78  78  98 105 104 115 123 124 124 125 125 138 143 149 145 148 158 152 121  92  59  50  43  49  65  78  73  40  11  14  29  51  64  77  97 142 184 204 191 157 134 134 137 147 152 151 141 139 127 123  91  84  83  53  46  39  56 135 116  14  19  29  28  56  46  60  41  21  53  70  27
  12  14  22  13  16  18  31  56  33  25  24   7   6  10  17  24  29  36  36  46  68  80  85 104 101 102 118 123 127 121 129 117 111 110  98 115 110 119  99  65  55  48  46  54  57  73  83  59  31  22  35  71  82  80  78  74 103 153 187 194 183 157 146 150 146 145 151 150 130 119  96  75  66  81  61  45  38  61 145 114   8  15  30  33  45  45  55  53  14  47  69  30
   6  15  11   9  14  16  16  48  40  22  20  12   7   8  16  23  32  32  38  49  54  73  94  92  90 104 114 128 123 126 135  97  95  69  78  81  88  85  61  47  53  54  61  57  62  77  74  47  22  34  78 123 113  88  91  83  58  88 137 157 159 153 150 159 158 147 144 143 135 131  83  65  69  66  54  38  24  62 138 118   8  13  40  45  33  44  49  56  35  42  72  45
   8  15  10  11  12  13  10  36  42  28  19  12   7  10  15  21  28  27  32  40  54  77  93  90  97  94 106 126 121 120  88  75  82  73  55  57  65  66  54  61  77  66  57  43  66  78  65  54  34  78 103 129 129 103  92  98  71  71  92 124 122 123 122 148 164 152 137 150 146 119  81  69  75  62  54  40  16  62 138 116  15   9  41  52  27  39  46  52  50  31  69  43
  10  12   9  13  15  14  16  27  49  40  30  20  17  16  22  25  21  21  29  40  50  73  83  92  96  82 100 119 114  97  80  80  77  68  60  65  55  57  63  78  77  42  34  40  54  54  59  54 112 135  79  95 104 103 107 111  89  92  83  67  88  99 110 139 160 155 144 151 155 131  75  68  65  60  50  34  19  68 125  88  15  17  24  58  28  33  45  53  67  38  60  53
  11  10   9  19  17  17  20  23  42  44  29  31  19  14  21  23  18  21  30  36  51  62  74 100 100  73 101 114  95  84  81  77  70  63  57  59  52  55  58  52  47  38  34  41  31  29  27  32  67  64  40  65  74  76  87  93  79 103 103  96  77  79  91 143 161 150 137 154 166 117  80  66  61  54  41  38  32  69 109  62  15  17   9  59  35  35  40  57  66  64  67  55
   7  11  16  23  15  17  16  29  32  46  32  64  59  13  20  27  29  24  23  27  49  63  75  92  85  67  81  78  74  67  62  63  64  55  51  39  32  21  27  26  35  29  26  27  23  37  51  62  56  49  50  41  29  27  32  46  38  89 113 113  97  87  68 126 153 154 144 148 143  97  80  72  58  45  39  43  40  56  98  54  19   9   6  54  51  31  28  55  59  47  75  62
   9  15  24  23  16  19  21  39  42  28  44  49  82  29  11  25  25  22  26  29  44  59  73  83  77  65  68  60  57  48  46  40  50  36  33  30  30  30  35  47  52  44  31  46 110 166 182 180 165 164 158 141 119  88  59  24  21  29  55  93  94  99  96 109 140 164 143 133 138  91  77  71  52  41  37  51  29  51  93  42  15  10  10  51  56  19  24  36  46  24  74  94
  24  27  28  22  20  23  37  36  41  16  42  42  62  60  24  23  26  19  30  29  37  55  74  75  72  63  55  41  42  45  38  29  25  23  31  33  48  56  73  90  78  52  53 100 143 164 174 174 175 169 159 159 152 131 116  79  41  15   9  65  75  87 106 108 127 154 144 132 103  85  88  66  53  49  36  40  25  52  72  18  14  13  14  37  67  18  15  26  35  21  81  71
  34  33  21  16  27  34  38  33  41  19  25  35  48  73  43  20  23  24  29  29  40  55  63  63  64  58  33  35  34  33  31  32  22  27  47  63  51  57  80  93  76  61  96 127 134 130 128 132 140 140 140 161 158 139 139 110  73  48  20  12  32  59  99 141 127 146 127 102  92  88  82  72  53  38  31  23  16  47  63  12  15  14  16  21  60  25  25  22  21  35  69  47
  38  30  24  18  33  42  34  33  32  26  32  21  37  66  89  51  17  28  29  33  39  51  57  56  56  40  31  29  24  31  31  28  21  33  71  81  73  81  87  86  68  59  90 100 102  81  87  93  94  86  95 107 108 118 110  89  71  48  35  13  13  51 110 138 136 126 103  89  95  89  77  66  49  35  21  17  17  46  53   7  17  13  13  16  62  47  23  32  25  51  45  49
  37  30  23  34  40  44  37  43  24  23  35  26  23  58  82 108  55  26  40  33  44  49  51  54  45  32  30  29  25  32  20  14  17  42  76  97 113 127 121  95  78  78  89  97  88  87  81  90  82  96  99  90 107 108  85  83  69  59  65  38  20  60 115 125 117 110  90  87  84  74  69  59  54  40  18  14  28  40  46  17  23  16  12  17  34  37  26  36  41  75  33  44
  37  23  28  47  47  42  39  35  18  17  38  33  14  35  68  89 106  56  27  30  45  39  45  48  33  42  47  39  27  18  13  13  17  39  62 108 140 146 133 109 121 127 126 106  97  97  64  71  68  74  93  93 114 129 123 107  90  91  95  62  40  65 130 139  86  82  82  89  75  65  69  60  46  33  24  23  32  33  37  16  37  27  15  20  22  26  35  25  68  41  38  40
  23  32  58  58  60  33  41  25  13  17  33  24  12  18  42  91  85  77  37  24  43  37  42  42  39  60  64  38  26  20  21  22  27  48  63 103 147 141 145 150 159 154 136 116 112  87  81  89  84  77 126 131 121 140 145 128 134 123 133  82  43  90 133 116  79  66  83  92  64  52  60  56  42  39  40  34  30  42  47   1  31  31  21  17  22  64  38  63  56  29  51  31
  29  52  74  71  41  31  41  16  10  20  18  10  18  17  25  49  73  55  50  22  31  40  49  46  41  46  42  26  26  32  32  29  28  48  62  94 131 139 170 177 177 156 133 122 117 118 128 125 129 110 142 157 143 137 147 163 156 122 123  85  44  74 121  88  60  62  74  77  63  49  63  64  49  41  26  31  42  47  47   6  22  41  24  14  19  63  81  63  23  34  47  23
  58  74  70  41  29  22  34  12  10  19  18  11   9  13  16  23  57  58  47  30  26  43  40  45  38  36  32  26  43  32  32  31  35  51  59  86 106 127 165 175 164 136 134 127 132 163 161 160 156 142 152 176 163 155 165 169 139 111  92  65  44  50 103  63  56  68  69  69  66  58  67  67  50  28  23  40  28  58  42  14  13  46  31  16  41 100  70  21  32  36  39  15
  86  60  40  34  29  29  25  11   7  24  21  11  12  15  15  10  25  52  56  38  30  29  34  48  32  23  31  26  31  21  37  39  50  54  60  85 103 114 118 132 135 132 125 130 148 167 150 147 151 138 147 165 169 164 163 144 121  87  61  47  46  56  96  58  54  68  62  59  60  57  53  52  59  58  52  20  33  65  27  18  11  30  37  38  47  72  52  20  33  47  30  13
  39  45  40  28  35  39  19   7   6  30  23  18  19  17  15  15  15  20  46  48  29  17  23  45  23  24  20  17  25  33  36  45  43  31  57  67  74  83  79  92 107 115 106 111 151 165 121 124 138 128 140 143 156 137 140 129  91  73  50  34  37  57  57  80  56  61  59  49  48  55  50  45  51  46  18   1  80  45  19  15  15  33  55  38  19  66  56  26  23  56  26  16
  63  53  50  23  51  40  12  12  11  33  40  18  22  17  18  13  15  14  19  40  26  17  22  26  27  20  26  24  27  33  36  30  31  40  42  48  61  49  68  81  92 100  80 106 148 128 107 121 137 129 136 127 128 122 106 116  81  58  47  33  36  46  49  60  80  64  54  48  43  51  49  49  43  32  22  30  87  22  23  18  20  37  34  10  37  65  51  25  33  57  28  15
  63  61  46  41  59  19  10  30  19  28  47  28  28  14  10   5  12  14  15  30  23  18  24  23  34  33  24  31  21  19  32  25  30  32  38  44  44  55  73  71  87  75  70  95 128 108 106 119 114 117 122 121 119 107  84  77  60  63  53  34  34  42  45  47  71  70  53  33  30  43  41  52  34  26  10  79  73   6  24  16  21  21  21  17  32  49  43  26  39  35  32  17
  58  58  39  62  31  12  16  18   6  15  50  32  18  14   8   6  11  14  10  22  22  18  18  23  24  33  31  22  15  32  30  23  24  31  40  38  44  58  72  68  69  60  86  86 103  86  98 113 102 114 106 103  97  85  75  66  43  40  39  38  53  40  43  55  53  68  41  43  37  34  33  36  37  21  28 112  27  11  19  14  18  13  15  26  24  34  37  22  24  26  15  17
  48  41  62  45  28  15   8   6   4   7  31  31  13  18  11   6   9  13   9  18  24  17  16  23  27  33  27  19  20  25  29  17  39  46  47  25  38  47  67  56  51  55  88  74  90  79  86 103  94 110  84 101  85  71  61  49  42  37  41  34  50  47  52  53  53  66  41  40  50  38  39  41  35  16  99  58   8  18  18  12  13  12  16  14  13  40  31  16  14  24  16  11
  34  55  49  45  17   6   5   3   4  10  27  20  24  21  10   4  11  15  10  19  26  15  20  26  28  18  23  19  16  17  20  27  53  51  34  26  27  39  58  57  53  54  55  60  86  79  81  82  73  87  78  87  70  69  59  45  42  36  49  31  35  50  44  64  52  38  61  52  46  38  37  44  34  95 109   7  39  28   8  15  13  12  19  16  10  34  21  13  12  14  19  13
  49  39  49  41   6   6   1   2  10  18  17  22  25  10   5   6  15  19  16  14  28  22  15  17  14  16  19  17  18  21  21  44  39  42  28  41  25  37  62  59  34  35  36  46  57  73  47  59  65  73  77  60  45  62  71  38  28  33  52  48  40  56  54  53  50  35  44  45  40  45  34  43 104  96  16  10  64  28   4   9  12  13  18  12  16  34  12  13   7   7  12  18
  43  46  53  14   8   6   4   7  15  11  11  27  30   7   8  10  17  18  18  18  30  21  18  13  15  26  18  11   8  16  25  27  20  27  32  26  27  55  58  32  31  33  36  36  41  54  43  45  46  60  60  47  54  40  55  37  37  24  44  62  49  49  54  47  43  39  42  47  42  44  54  95  76  15   4  26  45  52  15   9  14  19  25  19  27  27  22  24  19  11  19  16
  39  51  25   7   7   6   7   9   9  16   7  39  28   7   7  17  15  13  25  27  21  17  25  19  21  26  20  13  14  12  19  14  17  25  30  22  52  62  45  28  32  36  34  49  40  48  56  36  27  40  54  56  64  41  52  33  34  21  37  52  53  61  38  55  43  35  53  54  53  63  77  71  45  24  21  20  36  57  30  11  18  15  29  32  26  32  19  13  19  41  44  22
  43  35  16  11  12  19  12   8  11   9  23  38  18  14  13  24  11  24  35  29  29  21  26  19  17  25  28  14  17  11   7  10  25  35  26  40  57  50  46  25  36  30  35  50  59  54  44  29  25  43  56  43  50  31  36  39  26  23  32  43  42  50  39  54  35  44  50  52  65  65  54  60  69  38  11   9  30  48  38  19  12  11  33  40  16  17  12  11  23 105 106  42
  36  19  20  16  20  27  14  12  11  10  43  14  18   7  26  18   5  23  22  33  29  21  20  22  22  27  30  21  10   8  10  14  27  34  21  48  40  59  26  38  34  31  56  34  49  38  26  24  33  52  55  31  47  24  32  32  33  33  28  42  31  33  50  55  22  38  68  60  66  67 101  64  67  34   4   6  10  27  30  21  12  12  31  33  15  21  16  18  68  91  83  28
  20  11  16  15  17  17  15  12   8  24  20   7   7  17  25   3   3  15  25  31  17  26  18  27  28  29  25  17  14  14  12  23  24  23  36  38  37  54  11  35  36  33  50  40  49  40  22  33  47  62  37  37  47  26  41  32  43  31  36  47  25  32  56  48  20  39  72  60  52  87 145 102  51  87  47  13   5  13  31  10   6  13  23  47  27  11  12  57  87  45  16  16
   7  10  10  11  17  20  18  16   8  22  11   1  25  42   7   3   2  15  31  27  23  26  24  31  25  25  29  13  18  17  12  30  32  21  43  30  46  52  26  24  46  37  27  42  43  36  17  31  64  57  34  42  29  37  36  38  42  31  34  35  39  42  65  36  34  52  56  41  59  92 138 129  76  75 106  37  12  15  30  11   2  12  27  36  51  19  24  55  38  17  24  16
   8  10   9  25  38  40  28  14  22  21   3  25  43  11   4   5  10  25  24  24  25  26  24  25  16  22  30  13  15  11  15  36  22  14  42  46  40  47  32  20  32  33  40  39  47  31  22  46  58  32  50  40  33  34  41  41  38  22  20  19  50  52  61  37  37  49  53  38  82 116 129 132 102  55  82  83  17   7  19  19   3  13  36  37  46  32  33  26  12  23  25  20
  12  13  23  35  34  22  13  14  14   9  60  61   3   3   5   6  13  14  18  29  27  27  27  20  20  27  27  13  23  23  37  46  13  28  61  39  29  44  31  22  43  44  41  42  59  34  23  55  28  36  50  29  42  42  38  50  32  18  19  15  49  59  58  36  38  39  44  59 111 120 114  95  93  73  79 117  22   6  14  22   8  16  34  45  32  25  27  16  10  15  27  15
  15  22  19   9   7   5  12   5  22  74  54  16  13   7   6   9   9  14  30  44  38  26  24  25  28  40  29  11  18  32  60  51  24  34  54  30  44  40  34  44  60  33  38  44  51  37  41  36  20  42  37  39  38  33  33  46  34  22  24  16  50  55  30  26  33  32  41  75 131 140 104  74 110  92  77 147  58   9  23  28  18  37  31  30  31  31  33  32  24  13  24   6
  16  14  16  10   7   5  11  71 104  63  14  10  36  15   5   4  14  25  37  64  50  30  33  23  22  15  33  17  20  16  62  63  35  51  48  31  39  35  48  64  42  42  54  46  50  33  29  32  30  39  32  48  30  32  31  42  36  29  20  24  43  44  36  25  36  41  57 106 134 139 103  88 132 103  77 119  46  18  39  44  36  35  31  21  24  54  53  43  42  18  14  23
  20  20  22  11   9  16  65  72  32  31  32   6  23  31   6   1  28  35  36  62  51  42  45  24  17  14  21  32  31  14  27  42  41  55  48  34  46  39  60  52  16  45  59  47  46  20  29  34  27  40  41  50  24  35  39  39  23  34  28  33  51  42  50  41  38  53  92 125 136 132 119 120 155 102  65  90  33  27  44  56  50  41  42  22  30  45  58  60  53  33  22  45
  18  22  27  39  48  81  69  25  30  32  55  29   2  25  19   2  36  38  44  59  49  56  62  34  13  16  17  25  31  24  25  24  34  56  45  40  60  56  57  29  19  51  52  30  39  28  42  51  24  39  52  36  32  39  48  39  28  44  40  34  40  46  54  42  41  70  95 131 136 133 132 146 170  88 108 148  65  41  71  60  55  55  44  28  34  31  42  41  30  28  57  46
   9  16  28  45  76  86  90 114  88  56  71  64  11   7  16   8  46  44  45  62  48  67  71  49  29  23  17  19  27  27  24  21  41  59  49  52  67  70  37  29  15  39  52  32  42  32  44  59  48  37  49  31  40  34  56  41  37  39  40  35  47  44  38  50  55  81  99 136 139 137 144 151 151  64 100  75  73  60  81  66  70  63  63  44  45  36  35  37  33  27  62  41
  11  13  26  51  67  79  97 101  84  75  59  68  49  22  23  16  49  46  47  67  49  66  79  61  48  43  24  24  29  34  31  32  27  50  39  48  58  58  21  37  25  24  44  31  40  41  37  41  63  36  50  34  37  31  41  28  36  44  36  32  51  64  37  52  46  82 113 137 151 145 140 156 118  49 128 115  51  59  72  73  76  64  65  48  47  33  30  29  38  43  58  57
  10   9  13  53  33  37  60  62  42  32  27  36  52  28  23  16  44  48  61  65  48  68  78  64  50  47  40  36  28  22  22  28  29  42  50  40  44  42  25  40  25  31  40  36  55  35  37  39  56  41  57  48  33  38  45  39  36  37  34  31  43  68  50  58  58  89 112 141 159 158 147 172  89 107 133  47  42  69  77  71  76  73  54  40  37  48  29  34  42  41  45  58
  20   7  14  48   8  20  27  31  33  30  41  32  30  26  20  18  29  57  74  58  55  75  76  65  63  46  40  40  36  26  22  29  29  28  55  41  32  32  28  39  34  29  34  40  46  29  45  39  40  41  54  68  43  37  37  44  38  35  38  34  43  67  68  56  91 126 121 122 145 144 134 128  40  70  72  68  46  79  83  82  77  71  46  29  39  66  49  48  35  42  30  43
  27  11  25  60   6  13  14  16  28  31  19  24  28  26  18  25  52  77  82  53  68  79  73  69  63  45  38  36  34  38  32  27  27  19  45  48  31  27  34  38  41  23  32  43  33  29  34  39  40  41  43  47  46  36  35  55  49  31  37  48  43  49  65  68  89 122 141 157 157 137 152  92  97 193 108  19  66  79  83  89  81  67  55  40  53  87  48  50  43  56  38  66
  12  20  41  74   8   9  14  16  17  30  20  13  22  20  23  27  52  82  76  56  86  80  73  67  66  45  38  37  36  38  36  28  29  20  31  44  33  35  39  37  35  33  34  50  33  39  23  30  55  49  52  33  51  39  41  77  42  26  37  42  48  35  55  87 117 143 141 154 159 159 140  38  40  78 134  64  70  79  82  88  88  69  77  71  60  89  53  65  55  55  52  53
  27  29  25  71  36  13  24  20  18  20  33  20  12  11  20  32  47  83  58  81  97  85  77  74  72  52  42  36  35  35  35  35  31  25  15  34  47  37  32  38  32  31  33  53  51  44  29  26  47  48  52  36  38  35  46  60  45  29  33  30  40  42  83 136 131 143 169 167 164 159 114  60 139 122  40  57  64  74  95  97  92  60  87  84  63  85  57  66  76  60  61  46
  53  46  30  28  81  12  39  36  23  23  48  23  12  13  17  32  56  65  63  99  99  89  79  75  76  58  45  43  37  35  37  36  33  30  22  29  42  42  32  40  43  25  45  42  47  53  33  35  38  39  44  36  28  31  29  42  44  41  39  39  31  59 108 140 150 143 155 168 148 126  59  25  59 136  78  50  75  94  98  95  85  59  90  83  68  85  60  56  84  71  60  54
  48  54  40   5  77  65  25  46  33  30  52  33  13  11  17  34  62  67  91 107 104  91  84  77  81  68  47  42  39  39  40  38  35  32  24  24  32  38  32  41  30  24  50  33  34  45  40  35  42  41  29  40  31  32  26  36  44  46  43  30  45  84 119 154 160 158 163 161 134 113  81 136  90   9  47  72  77  83  93  71  81  80  90  90  71  92  61  49  89  92  69  52
  42  57  32  18  18  86  45  26  42  47  50  35  32  25  24  41  59  95 108 108 108  98  88  86  85  75  51  42  43  43  40  39  40  34  30  29  27  42  36  29  28  31  39  34  40  45  50  50  43  41  38  43  34  42  39  35  37  52  45  40  83 108 134 160 163 167 163 141 135  80  51  98 140  55  48  86  75  86 102  70  75  82  94 105  74 103  79  46  69  94  85  54
