P2
# Generated by OpenCV 4.2.0
92 112
255
 255 255 255 255 255 255 255 255 255 255 255 255 255 255 255 255 255 255 255 255 249 252 250 250 254 240 248 125  16  32  31  20  16  25  13  24  19  30  49  42  37  27  43  47  27  23  19  17  23  28  25  13  13  21  18  20  15  22  17  15  12  14  13   7  12  16   0  52 162 178 189 180 168 170 173 174 172 171 181 179 180 181 187 191 190 192 193 193 193 193 194 196
 255 255 255 255 255 255 255 255 255 255 255 255 255 255 255 255 255 255 254 255 251 246 254 243 247 161  13  24  27  25  21  21  22  14  15  14  20  23  37  33  29  37  47  29  16  21  30  32  23  15  12  12   9   5  11  21  17  12   4   6   9  14  12  20  14   9  14  20  17  69 182 167 155 178 162 173 175 174 177 179 179 179 185 190 191 192 192 193 192 192 194 196
 255 255 255 255 255 255 255 255 255 255 255 255 255 255 255 255 254 255 253 254 253 245 254 206  71  10  39  15  22  26  28  26  25  17  32  19  16  34  41  44  39  38  27  27  33  26  22  14  20  35  41  24  10  19   8  10  10  11   9  12  10  11  12  28  22  17  26  12  22  23  47 125 170 166 171 172 179 176 173 177 181 174 182 189 190 191 192 193 191 191 193 194
 255 255 255 255 255 255 255 255 255 255 255 255 255 255 255 255 255 254 252 251 239 246 107  12  24  18  25  19  28  46  40  36  42  41  47  43  26  36  44  49  37  31  30  36  26  14  14  14  38  51  40  16   6  13  14  10  13  12   0   6  11  13  14  15  14  21  33  18  27  31  35  53  87 171 164 173 177 174 174 177 181 172 180 189 189 189 191 191 190 189 192 194
 255 255 255 255 255 255 255 255 255 255 255 254 254 254 255 253 255 247 253 246 239  49  48  33  32  21  19  29  23  38  42  35  54  61  55  62  54  39  48  50  45  47  28  20  18  18  21  17  28  24  16  15  18  19   8  11   8   4  10  20  23  14  10   5   6  12  22  32  46  35  39  61  57  87 188 176 173 174 173 177 182 172 175 192 191 189 192 192 191 190 192 193
 255 255 255 255 255 255 255 255 255 255 255 255 255 255 254 255 230 251 239 173  43 135  15  33  28  33  25  23  31  25  34  15  14  27  34  38  32  42  59  54  57  35  29  24  29  28  22  16  24  28  22  17  14  10  12  11  21  52  39  48  47  31  16  15  14  12  20  25  47  53  47  45  71  51 119 189 178 172 175 176 185 173 176 194 191 188 191 192 190 191 193 193
 255 255 255 255 255 255 255 255 255 255 255 255 254 255 255 252 248 246 138  91 205  25  32  32  26  39  24  18  19  17  26  18  20  21  13  27  36  47  62  48  46  39  31  23  34  47  36  31  36  26  19  11  18  16  17  11   6  23  24  22  26  29  17  13  11  11  12  25  28  54  47  70  54  66  55 173 164 187 170 175 189 172 182 191 189 190 192 192 191 192 192 193
 255 255 255 255 255 255 255 255 255 255 255 255 254 254 253 252 248 113 152 153  16  38  31  22  24  21  17  12  11  17  15  11  11  15  16  25  16  36  44  56  49  31  26  44  31  51  43  42  30  31  34  25  34  20  17  10  26  55  29  16  13  13  18   9   7  10  12  19  20  40  58  55  76  50  59 129 178 160 175 176 185 177 188 187 188 191 192 191 193 194 193 194
 255 255 255 255 255 255 255 255 255 255 255 255 254 251 248 248  91  89  48  18  39  25  23  28  19  25  17  12  19  10  17  20  12  15  15  29  30  29  37  64  39  30  43  40  50  49  51  53  40  52  45  48  66  22  17  10  15   9  18  23  28  23  28  18  10  12  15  12  27  35  74  61  50  65  48  68 144 169 168 178 181 179 191 187 188 190 191 192 191 191 193 193
 255 255 255 255 255 255 255 255 255 255 255 254 248 247 239  89  36  31  31  39  24  27  26  30  26  29  17  28  28  23  23  17  22  13  29  30  42  28  28  38  39  32  30  50  38  59  66  48  38  23  32  33  21  28  17  12  17  25  17  16  17   8   7   8  12  18  21  20  35  54  62  89  67  51  59  63  95 152 145 166 174 181 192 186 187 188 189 189 189 190 192 193
 255 255 255 255 255 254 255 254 255 255 255 249 253 245  91  61  51  37  40  34  41  48  41  45  38  35  38  42  35  42  34  21  22  20  28  48  33  38  42  46  58  43  36  42  43  53  41  51  24  24  25  32  48  25  29  24  19   9  13  15  13  15  15  16  18  15  12  39  56  94  76  61  89  44  59  76  49 118 167 159 174 190 188 187 187 189 189 189 188 190 193 194
 255 255 255 255 255 255 255 251 255 254 251 253 253 106  95  49  35  22  28  46  44  65  60  72  52  44  51  54  36  54  47  30  32  27  27  51  46  40  60  54  64  49  61  45  53  30  56  49  23  52  48  51  50  44  33   9  14  23  26  27  17  27  29  22  24  35  44  57  45  75  93  75  67  85  33  77  79  69 123 154 173 189 186 185 186 188 190 190 189 192 192 193
 255 255 255 255 255 255 255 254 255 254 248 243 117  70  84  41  28  31  17  51  50  69  61  70  63  52  51  60  48  40  61  47  38  46  48  47  53  48  69  55  73  52  69  37  57  39  45  38  43  55  36  65  50  65  26  34  46  36  34  26  41  46  37  36  46  61  58  46  52  65  73  76  70  70  61  57  83  80 103 139 164 177 194 183 185 188 191 193 193 191 189 189
 255 255 255 255 253 253 250 251 250 240 215 181  71  86  45  36  25  25  25  31  39  71  52  66  74  54  68  64  47  43  55  58  58  61  59  60  59  49  72  62  59  48  66  48  52  44  39  54  53  23  66  77  47  46  48  61  63  38  46  36  51  47  59  57  46  45  37  40  44  54  68  71  70  71  77  44  84  94  72 109 146 185 179 192 187 190 190 188 189 191 190 190
 255 255 254 255 254 255 254 248 246 195 157 154  65  79  36  34  24  19  24  44  37  65  65  59  82  65  65  63  56  65  53  68  57  59  57  55  67  58  86  62  58  50  73  55  53  60  37  63  31  43  50  49  48  57  58  52  56  62  44  35  52  42  67  53  33  28  24  33  43  52  60  70  66  74  71  51  73 108  61  94 132 192 195 190 189 192 190 189 191 190 191 189
 255 255 255 254 255 254 251 245 222 140  77  57  86  53  37  23  24  29  29  49  48  52  82  62  60  60  54  65  55  62  52  65  69  75  71  56  54  52  78  59  55  59  64  61  48  67  40  47  31  39  29  51  56  29  31  33  52  48  41  49  51  54  52  44  25  24  22  31  42  56  65  68  82  79  69  83  68  85 101  53 112 133 192 183 189 189 185 187 192 192 191 190
 255 255 255 254 254 251 244 232 156  17  35  31  67  33  21  19  22  26  27  48  42  39  62  66  54  59  42  53  62  51  63  54  59  49  56  68  72  63  70  65  59  70  64  88  44  64  70  43  63  34  36  40  39  42  43  44  47  37  45  53  56  55  46  43  32  31  32  30  26  46  68  62  91  73  80  75  62  76  97  71  79 110 171 182 191 190 185 188 192 194 192 192
 254 255 255 254 252 251 236 230 147  13  31  31  38  27  25  23  20  18  22  57  53  49  46  56  55  50  48  44  52  62  64  69  70  64  50  51  74  74  70  77  72  69  74  98  82  64  85  51  83  45  49  44  59  77  69  69  52  60  54  56  44  54  57  52  44  44  30  27  26  35  66  84  79  60  51  58  67  47  60 119  44  73 152 169 181 182 199 188 187 190 189 191
 255 254 255 242 254 237 222 205  24  24   5  29  32  23  26  26  24  21  26  60  60  66  49  64  48  55  61  57  70  79  76  74  76  82  81  81  98  96  83  99  98  95  78 120 122  94 121 105 103  75  87  77  85 106 116  93  93  72  83  88  78  92  75  64  57  65  49  28  23  27  42  81  59  44  39  37  47  33  47  63  83  27 100 155 166 170 181 198 193 193 190 193
 255 255 255 254 235 241 185  55  21  11  52  23  27  16  26  29  23  22  32  70  68  78  70  54  61  57  60  66  77  93  99 103 105 110 114 111 115 129 123 132 119 124 117 121 148 148 138 122 138 120 125 115 121 140 119 110 108 116 114 122 104  97  94  98  69  85  62  47  31  21  33  70  55  38  28  24  40  34  31  34  59  93  51  56 153 158 173 186 188 182 196 191
 255 255 255 243 252 208 129  25  34 156  10  22  33  34  40  38  31  31  33  59  74  82  84  78  85  81  87  93 101 113 117 122 133 141 144 143 143 147 141 148 162 146 157 157 151 167 160 145 152 148 146 136 138 150 132 145 134 125 143 143 139 126 108 116  88  91  79  64  44  27  35  59  58  32  27  28  27  33  20  30  37  47  61  91   5 135 186 161 187 188 194 188
 255 251 254 253 229 120  21  13  20  32  24  30  39  40  35  23  29  26  34  55  77  78  93 110 106 111 117 121 120 128 137 145 150 151 151 151 152 164 166 165 168 169 163 173 170 172 167 162 165 163 157 152 148 150 146 143 148 139 147 148 145 142 124 125 107  95  98  73  48  41  16  68  57  25  21  29  38  26  11  23  39  34  52  52 124  17  69 156 170 185 188 193
 249 254 250 249 120  43   8 173 140  35  44  35  42  46  56  46  37  28  34  67  70  82 123 129 129 132 138 142 151 153 153 150 153 155 155 158 160 162 168 169 175 172 174 175 175 170 166 163 165 164 160 158 157 157 153 152 154 144 147 150 145 143 141 135 112  89  90  93  58  46  34  65  59  17  26  12  56  42  20  22  26  45  26  46  59 106  16 163 113 183 180 187
 255 244 249 192  40  16  62 159  57  47  55  41  44  42  48  40  38  37  49  63  73 109 136 129 142 142 144 145 148 150 150 152 153 153 154 157 160 167 169 165 167 176 180 175 174 168 167 165 164 164 162 160 160 160 158 157 157 150 147 151 145 144 141 138 120  93  90  97  62  43  49  57  59  22   7   4  50 122  34  14  26  26  36  29  34  69  25  70 164 185 173 185
 254 248 247  79  79  44  35  27  47  48  50  46  48  47  48  36  41  53  63  66  91 127 136 139 146 147 148 151 152 152 150 152 154 153 156 160 161 163 168 169 177 178 178 175 171 170 170 168 165 166 162 160 158 158 162 159 156 154 150 152 147 145 146 142 138 122 103  83  59  45  49  52  42  34  11   9   9  61  98  31  19  26  28  47  29  34  36  18  74 142 172 190
 251 253 145  30 153  31  54  61  37  49  44  53  52  39  40  37  49  64  65  86 124 130 136 142 144 149 148 153 150 149 152 156 160 162 165 168 169 170 172 173 175 183 179 178 173 171 172 170 168 167 166 162 159 159 164 163 160 157 150 152 148 146 145 140 141 132 110  80  61  52  63  67  29  22  17  15  12   6  30  48  26  19  25  35  44  26  36  30  59  48 126 145
 254 197  31  39  67  34  80  55  39  33  42  38  28  31  27  31  48  79  96 111 124 135 143 145 141 150 149 152 151 155 157 159 160 162 166 167 168 165 170 173 176 182 184 179 178 174 173 169 168 169 163 161 164 164 163 166 167 161 155 152 148 142 141 140 140 133 120  93  73  62  68  55  28  22  21  11   5  10  14  26  25  18  20  23  31  35  30  26  25  24  42  67
 232 136  41 103 145  90 100  68  53  40  44  34  27  34  29  32  54  93 104 114 128 137 143 146 145 152 150 146 153 156 159 161 160 162 165 167 167 169 173 179 182 183 185 184 184 177 175 172 170 174 168 163 165 163 162 165 167 162 156 156 150 141 142 140 139 135 120 107  81  64  74  65  26  11   5   6   3  10  19  20  21  18  15  21  25  37  28  15  22  26  22  24
 169  82  53 115 207  37 146  35  35  36  46  26  27  27  18  32  60 102 109 118 126 136 138 143 147 151 152 149 154 157 160 162 160 160 166 170 171 174 177 181 184 186 186 189 187 179 177 174 173 172 181 178 163 164 162 164 162 154 154 153 150 149 141 139 139 137 128 116  88  80  75  59  25  20  11   9   7   9  20  25  30  28   9  10  18  26  32  28  13  14  19  13
 120  29 126  88 227  73  91  38  43  54  62  41  24  24  23  33  67 107 108 119 127 137 136 143 149 149 154 157 155 158 162 163 164 167 168 170 170 174 179 186 192 191 189 193 188 181 179 175 174 172 170 177 174 163 164 166 164 156 157 150 147 152 141 138 140 138 133 116  92  96  74  42  17  20   6  13  22  14   9  29  30  35  26  24  17  18  17  21  29  21  12  21
 141  30 192 115 242  58  51  39  69  32  61  34  25  19  21  42  77 101 114 119 132 136 138 147 144 148 147 154 158 160 163 167 169 169 170 172 173 177 179 186 185 184 183 187 187 182 186 178 175 179 175 175 171 163 159 160 159 160 156 154 150 146 146 146 142 139 131 114  91  75  65  41  32  13  26   9  18  39  21  21  25  42  57  43  39  31  39  20  20  23  22  17
 163  15 217 123 229  35  43  47  69  41  33  32  18  16  29  56  82 102 118 120 129 133 135 142 147 152 152 156 158 158 162 166 170 172 174 176 177 181 182 187 187 186 186 190 187 185 185 181 176 177 177 175 169 162 158 157 157 158 156 161 160 151 144 146 142 136 134 120 105  85  65  34  26  22  18  15  17  21  51  36  20  54  87  50  76  48  50  22  14  20  23  24
 171  12 212 163 175  31  37  70  54  42  20  25  15  17  35  67  93 106 118 116 129 133 135 143 147 153 150 153 155 157 162 168 169 169 173 175 176 183 183 188 187 186 187 191 185 188 184 184 178 174 174 170 161 156 150 151 151 149 151 150 153 160 149 144 138 136 137 118 101  90  71  37  18  17   9  12  24  30  63  50  27  39 106  37  67  64  51  25  16  18  11  20
 119  35 199 177 127  39  46  67  50  27  31  23  15  22  39  65  92 112 117 120 124 129 132 138 142 149 147 147 155 155 161 167 168 169 171 177 178 183 181 186 184 184 187 187 183 178 175 178 176 166 168 161 151 150 150 149 149 148 148 145 144 148 148 150 143 136 136 118 109  95  71  40  11  11   9  28  23  29  28  37  45  32 126  60  41  60  55  43  21  24   7  22
  91  58 168 149 122  76  52  63  56  33  27  24  16  16  31  57  97 109 119 126 124 124 130 136 140 141 140 145 150 155 163 166 167 172 175 175 179 180 183 183 182 181 185 188 181 174 175 173 168 167 164 162 161 163 162 158 158 161 157 156 146 142 144 146 141 135 139 126 122 105  72  48  12  11  12  15  23  71  69  39  60  30 102  57  47  46  58  51  38  11  29  12
  56  44 162 150  67  63  54  47  47  54  35  18  13  17  32  62  94 107 120 121 118 125 131 136 139 143 143 148 151 154 159 163 168 174 176 177 180 181 183 185 183 184 182 183 181 174 171 168 169 170 167 168 168 169 164 163 160 159 159 155 147 144 140 141 144 142 134 120 114  98  70  53  19   9   3  13  29  50  30  23  34  37  52  70  32  56  45  56  54  35  27  28
  35  55 174 132  50  71  23  41  68  69  42  15  14  18  32  67  88 103 118 118 115 118 124 128 135 141 143 148 153 155 159 169 173 174 174 175 181 182 184 186 185 182 181 186 188 184 178 173 172 173 172 169 170 169 163 161 157 154 149 146 144 151 150 142 140 147 134 122 116 103  79  62  30  15   9  13  61  45  33  66  55  30  36  76  77  55  60  52  58  52  26  28
  52  80 161  93  34  36  28  33  60  65  55  14  19  22  31  66  85 105 113 123 124 117 119 125 139 147 152 156 159 159 160 166 174 178 175 177 183 182 185 185 185 184 182 185 183 178 179 179 178 179 178 173 172 171 166 165 158 151 153 141 129 132 138 148 138 146 132 127 124 115  94  72  33   8   5   1  25  14  51  64  98  39  41  40  90  42  52  61  60  67  40  24
  42 101 140  75  55  27  24  28  78  53  46  21  22  18  46  59  85  98 127 127 116 113 127 136 140 150 158 164 166 166 171 172 174 177 178 178 180 184 184 185 184 184 183 182 180 186 184 186 190 186 181 177 173 166 171 166 145 156 156 121 109 109 124 147 140 136 137 129 125 118 104  85  36   9  15  15  20   6  22  76  54  65  50  28 106  61  44  71  61  81  66  22
  61  85 114 134  56  18  23  50  63  56  37  13  19  21  47  65  89  90 114 118 114 128 132 146 153 160 162 163 165 171 177 180 181 183 182 182 183 187 188 189 191 191 186 181 178 178 186 192 194 192 184 179 177 174 165 151 124 156 149 125 104 101 111 124 143 140 135 127 125 118 105  95  37  18   8   8   7   6   4  83  52  47  45  22  78  77  51  51  64  69  75  63
  58  66 133 111  49  28  36  57  31  47  35  23  21  11  34  67  89  94 108 110 102 102 120 139 143 154 160 166 168 174 181 187 186 187 186 188 189 187 188 193 195 188 185 182 178 183 191 197 194 191 185 179 172 165 142 133 128 149 131  98  94  90  98  99 133 144 132 127 124 118 112 107  33  22  11   7   9   8   9  28  61  61  37  25  46  88  62  53  75  82  75  62
  50  36 205  28  27  26  55  48  26  34  32  14  12   8  27  72  93  98 105  99  86  75  98 127 141 152 160 166 168 173 181 185 184 186 190 194 194 192 193 195 195 191 188 182 180 183 192 200 197 191 186 177 159 141 130 112 157 140 101  68  82  79  94  86 103 135 130 127 122 119 117 101  43  20  15   9   9  11   8   6  41  48  42  64  20  67  67  69  49  91  82  53
  91  25 213  41  30  30  83  14  24  26  24  12  12  15  15  67  95  96  95  94  69  64  79 114 121 139 152 163 167 172 176 182 182 183 189 194 199 198 198 197 199 200 193 185 180 182 189 196 197 187 172 158 129 112  80 105 140 111  97  88  96  95  91  82  84 115 128 123 125 122 121 108  70  36  22  16  16  23  13   6  29  40  39 101  16  42  61  85  51  92  89  76
 123  46 110  53  31  35  55  16  21  20  16  10   7  13  13  63  85  92  81  58  56  63  56  66  96 122 144 161 170 176 181 182 177 178 184 189 196 199 201 202 202 195 190 184 180 183 182 187 188 176 135 118  88  57 123 169  94 101  93 111 117 119 123  98  72  86 112 117 131 122 118 114  83  50  27  23  21  19  11  15  14  30  46  92  59  24  45  89  69  67 108  55
  89  87  66  51  42  31  13  17  18  15  11  12   7  10  13  58  83  99  87  45  47  42  39  42  63  90 124 151 167 170 178 177 172 176 181 184 190 190 196 196 190 187 188 186 183 182 174 160 133 102  98  66  48 100 169  82  88 127 157 145 146 157 130 123 102  75  96 121 130 118 121 122 103  66  40  24  19  24  12   9  18  26  58  57  64  80  16  48  61  63 105  60
 138  96 124  57  31  19  15  15  17  16  13  10  10   9  16  52  82  94  64  38  48  55  64  42  41  55  79 110 138 150 161 171 176 175 179 180 185 186 189 190 188 185 185 184 180 168 159 143 101  68  57  75 120 163 149 137 170 177 163 157 165 148 146 134 122 100  99 117 129 121 126 126 109  83  51  31  20  36  51  52   9  26  65  57  70  50  80  25  25  54  56 107
 104  83 183  91  19  18  13  19  15  17  17  13  15  12  17  48  83  97  58  59  80  90 105 115  86  72  61  74  86 119 141 150 166 171 174 174 178 179 177 179 181 182 183 176 168 162 143 130 102  82 102 125 135 156 145 175 161 156 147 151 156 159 142 153 121  99  90 110 138 131 128 124 108  99  68  42  15  30  84 104  58   6  83  44  65  76  74  94  61  25  32  90
 114  44 159  79  27  22   8  18  13  16  15   8  39  15  20  41  86  90  48  91 101 127 132 137 149 152 116  71  65  70 100 115 131 150 156 172 169 172 175 176 178 176 180 176 166 149 136 136 122 115 123 120 154 122 154 115 123 113 110 107 122 145 146 137 115  96 104 118 135 134 128 129 111  90  65  49  24  11  53 104  75  12  93  52  21  69  76 100  72 109  27  30
 144 136 153  52  37  14  14  15  12  18  18   9  35  17  22  55  90  92  66 100 110 131 137 149 159 154 159 143  96  66  51  62  84  93 118 152 155 164 174 177 172 176 174 168 161 149 134 136 116 111  87 104  51  60  43  76 100 117 154 143 118  96 135 130 122 126 124 132 143 140 129 133 118  95  79  48  41  16  10  74 104  26  77 111  27  40  85  70  66  52  78  13
 186 223 123 119  44   0  27  13  15  18  17  20  38  24  22  57  95 101  62  87 118 133 125 106  92 104 106 115 104  96  82  59  57  64  90 115 143 153 163 167 165 172 170 166 159 156 142 116  98  98  90 110  83  50 171  16  51  56  44  85  93 105 135 125 140 143 136 139 145 140 131 137 125 104  84  57  59  69  43  15  54  57  62 139  10  34  55  79  65  39  24  37
 224 190 133 207  72  39  15  14  16  19  15  11  27  25  28  74  99 104  84  87 117 125  93 104 106  42  36  34  40  64  97  99 105  83  72  89 122 133 143 155 162 168 170 168 163 146 118 100 107 102 132 213 147 116  92  98 194 133  76 110  37  65 126 136 159 160 152 149 149 146 139 140 128 112  82  70  62  89 107   8  11  42  80 110   9  32  52  64  62  77  30  18
 251 166 201 195 111  34  28  26  15  16  11   6  42  29  37  81 106 111  99  96 113 119  99  68  38  30  59  55  59 177 189 151 152 106 136  93  92 109 134 146 159 169 178 174 164 140 111 143 113 166 130 147 165 134 155 139 162 137 116 130  81 106 128 150 163 169 159 158 152 144 139 138 130 117  91  83  54  97 154  45  18  27  57 109  18  32  40  51  67  67  62  23
 252 193 246 136  75  50  17   8  11  13  10   7  35  40  46  90 110 112 107 111 110 124  70  27  85  93  89 103 156 210 184 154 128 116 191 126 131 110 141 149 170 182 190 181 163 140 153 170 162 167 158 142 135 144 151 134 158 128 122 127 115 146 151 162 169 159 167 162 153 148 143 139 132 124  98  78  66  79 141 112  19  24  23 134  22  72  24  59  87  56  76  41
 251 214 213 143  85  74   9   9  25  20  17  16  19  45  58  94 111 112 116 125 127 113  62  74 102 128 137 144 147 156 146 159 155 155 148 137 161 133 142 163 181 189 193 182 163 162 167 179 177 168 159 145 146 158 170 161 164 136 141 142 149 158 166 169 137 168 167 161 151 146 141 137 132 126 102  70  83  90 119 149  24  15  34  99  57  48  27  33  81 101  63  77
 252 238 193 232  25  70  37  21  41  27  17  21  26  96  85  84 113 119 129 134 135 134 122  97 108 108 110 142 135 140 150 136 135 148 145 175 177 138 144 160 177 193 191 179 169 159 153 166 173 181 171 142 131 142 133 147 156 153 155 156 163 161 168 167 129 156 166 163 155 145 136 133 129 122  98  64  61 101 107 158  26  19  48  74  82  33  37  47  40  95 125  74
 238 254 191 227  61  53  52  74  47  37  15  14  37 131  72 101 118 129 135 136 136 140 137 127 119 120 131 130 131 144 151 145 142 146 166 164 139 147 145 155 169 177 175 169 162 163 161 163 169 188 181 165 155 151 157 161 157 157 166 167 167 170 167 167 162 165 171 167 152 148 131 128 127 133 103  45  55  89  67 159  12  20  47  67  83  49  45  48  25  66  62  94
 247 253 228 200  79 104  68  25  27  26  22  24  29 128  69  96 114 126 136 138 144 145 142 138 138 137 142 146 150 147 138 139 149 162 169 158 142 143 145 164 175 176 174 168 160 164 166 168 162 178 181 179 172 168 173 182 179 176 182 179 176 177 171 173 168 169 163 127 150 135 139 129 131 133 104  66  42  63  82 116   8  29  59  50  77  45  43  71  54  30 123  47
 249 254 201 121 176  84  49  36  33  19  26  38  25  98  61  95 113 125 139 144 148 143 142 146 146 141 139 140 133 140 148 158 168 174 169 150 146 141 144 161 166 174 172 165 157 156 162 172 163 168 177 181 176 169 174 184 185 179 181 177 173 172 176 175 174 173 182 153 152 151 132 126 132 131 105  63  56  43  92 107  31  19  44  40  73  51  38  61  57  66  77  99
 241 223 156 203 200  74  65  37  40  33  31  23  25  67  69  96 111 122 136 144 147 145 148 150 152 155 152 153 155 161 164 168 174 173 161 147 144 134 146 158 177 176 173 166 157 159 156 166 164 168 178 187 184 179 176 179 182 177 183 179 177 178 177 176 178 174 166 143 149 146 132 121 133 127 106  59  49  59 138 126  49  28  21  27  62  59  37  59  64  66  76 110
 251 195 229 229 215 129 103  73  45  37  57  26  32  45  70  76 106 121 134 142 153 149 148 155 158 165 167 170 172 170 169 174 174 168 154 153 139 141 145 156 173 177 176 169 157 154 152 160 163 165 178 181 187 184 181 182 183 182 183 178 177 178 179 176 176 165 165 164 162 138 132 121 131 128  93  51  48  64 120 100  90  45  24  13  46  78  35  51  72  66  75  51
 189 218 235 249 209 210  79  57  52  48  58  36  35  33  60  69 100 119 131 143 147 150 150 155 157 164 167 172 171 177 180 176 170 164 154 154 138 138 142 156 170 177 175 168 159 149 150 158 164 166 178 180 187 185 183 183 183 183 183 181 177 181 179 176 175 164 159 160 153 136 127 120 125 126  91  49  37  54  72  86 134  68  39   5  31  74  51  35  80  63  89  34
 159 243 237 245 253 187  83  98  66  85  66  37  34  24  44  64  89 114 125 142 141 154 157 158 158 163 166 173 171 177 180 175 170 163 159 153 139 140 143 158 172 178 178 169 164 149 147 154 163 170 182 180 184 182 184 185 185 185 184 185 172 173 173 176 174 168 164 151 146 133 121 116 123 123  85  59  49  52  68 101 141  85  51   3  25  51  54  26  57  68  81  47
 181 252 234 251 244 223 146  85  80  98  38  45  41  34  37  48  76 115 119 136 141 156 161 161 161 164 164 171 173 173 174 174 174 165 166 155 144 139 140 159 170 179 186 174 166 153 145 150 162 171 186 183 186 184 186 187 187 187 182 186 176 169 171 174 171 166 167 152 139 131 119 110 119 117  76  60  65  51 107 111  80  47  97  11  10  34  53  39  21  70  54  52
 190 248 238 250 251 251 224  53  66  38  17  31  22  32  39  41  68 116 117 131 142 153 158 161 164 164 163 170 169 175 177 177 177 168 170 157 148 134 136 157 165 174 186 175 166 156 147 144 157 167 184 187 191 189 188 186 186 187 182 186 186 176 171 173 166 163 163 151 134 124 120 105 110 110  72  53  64  48 106  66   4  29  99  50   7  29  40  36  24  62  50  33
 243 232 243 250 239 246 247  60  55  39  42  21  24  32  36  39  47  99 119 135 142 150 157 161 162 163 167 172 170 180 182 178 175 174 167 153 146 134 142 157 168 175 179 175 168 158 153 137 156 153 175 189 188 187 189 187 183 187 190 189 184 178 173 170 165 162 161 151 134 118 111  97 120  78  83  47  50  45  27  22   8   1  73  60  16  20  38  36  44  38  38  27
 226 254 230 242 254 248 174  39  35  57  40  23  17  20  34  46  42  70 119 126 138 143 158 157 161 162 167 174 178 185 184 180 178 177 172 142 136 138 145 159 171 182 185 181 172 158 155 141 150 141 159 183 183 188 187 188 188 187 190 189 184 178 174 171 164 158 155 140 128 117 110  88 104  77  71  37  34  52  32  18   0  12  22  71  33  15  31  27  59  37  36  32
 196 246 247 231 233 187  77 179  42  36  26  21  20  24  27  30  39  50 111 128 134 141 154 155 158 159 166 172 180 185 184 181 183 180 175 140 142 142 148 163 177 180 189 187 170 159 158 156 154 150 150 178 179 183 183 187 190 186 190 189 184 178 176 172 163 157 150 145 130 110  92  90  88  74  74  36  17  21  19   8  32  10   4  44  43  15  20  19  45  48  45  49
 144 252 251 248 226  55 133 167  47  55  49  28  21  15  18  27  46  43  90 119 125 136 142 150 161 161 169 176 177 182 183 183 184 176 174 138 150 148 152 168 182 186 199 196 173 161 163 165 162 167 147 176 179 178 178 185 191 182 190 189 185 178 173 169 160 152 136 146 132 106 102  74  79  64  62  53  26  23  23  13  30  10  30   1  42  18  21  24  24  54  39  40
 179 248 244 249  81 154 232  92  51  43  37  27  29  25  18  20  33  37  73 110 119 134 142 148 160 162 168 174 178 176 177 179 182 174 167 134 156 143 160 171 189 187 202 211 176 165 165 158 176 160 156 158 180 173 176 182 185 187 184 183 178 175 175 171 156 145 132 142 118  97  89  86  67  70  80  55  30  23  24  14  17  17  15   8  16  24  18  22  15  33  42  22
 251 169 254  86 180 206 102 178  10  22  31  29  20  23  25  20  34  40  52 102 121 133 130 139 154 166 169 176 179 178 177 177 175 171 172 130 136 132 152 170 175 184 186 193 177 168 163 137  95 143 154 153 190 173 174 172 176 182 181 180 178 176 170 158 166 135 129 127 106  89  76  79  66  64  78  51  32  23  26  13  13  10  11  19   2  18  24  20  22  15  38  18
 251 194 181  79 184 174 138  69  66  50  22  24  16  16  17  15  23  38  53  84 108 132 122 132 143 168 168 175 174 175 175 179 181 173 170 129 134 126 114 133 161 174 173 176 171 153 110  96 148 158 132 173 187 189 181 174 176 182 182 178 173 169 165 156 144 125 130 122  99  97  86  75  63  52  50  42  27  19  27  17  11   9  14  25   9   9  13  21  22  10  37  27
 254 254 112  74 200  64 107  61  47  91  25  22  20  15  15  17  20  41  40  62  93 114 104 134 133 168 165 172 177 176 175 176 179 171 174 130 126 161 152 133 132 157 161 162 160 103 120 172 150 143 158 179 180 192 185 179 178 181 177 176 173 169 168 161 147 141 127 131 101  85  86  76  52  47  38  39  31  22  31  22  14   9  18  28   7   9  10  27  19  17  23  28
 254 255  67 171 137  71  61  49  74  51  27  27  17  17  12  21  18  31  49  58  82  96 119 127 142 156 168 166 172 170 171 175 179 172 175 156  83 129 120 146 134 140 138 147 135 104 156 150 156 166 163 180 179 186 184 180 180 175 175 173 171 172 170 160 149 151 101 140 122  98  69  97  43  49  43  34  31  38  21   4  15  19  18  30  17   2  28  10  29  12  17  22
 248 254  29 220  95 141  75  58  39  34  16  26  20  22  18  24  41  33  59  47  81  77 121 119 141 151 158 161 169 169 169 169 168 178 171 155  93 113 102  99 131 140 125 136 139 148 137 145 117 142 149 166 191 176 180 183 182 183 172 170 168 167 161 160 152 166 137 125 114  93  61  91  63  42  31  31  28  22   8   5  13  15  20  54  14   7  12  10  23  12   8  18
 245 253  66 214  91 159  46  61  33  47  25  23  18  25  23  26  28  43  41  43  64  66 132 106 138 144 152 154 157 162 166 167 168 165 174  96  79  56  59  71 111 129 145 140 137 164 127 121 134  99  92 149 136 174 168 177 173 176 175 166 159 161 159 160 154 168 161 131 119  87  53  74  70  43  28  23  30  22  14   5  16  11  15  75  17  14   1  10  14  16   4  12
 248 251  80 174  97  81 101  79  46  45  46  24  21  27  24  26  29  39  38  40  54  69 113 122 130 142 153 153 158 163 166 161 158 142 136  57  37  38  44  72 108 143  97  97 116 124 114 113  90  96  39  73 100 143 145 156 148 153 159 166 162 153 152 149 157 167 137 132 115  99  78  59  53  41  20  16  31  25  16   7  23  12   5  78  28  17   2   8   7  22  10   9
 254 255  91  79  55 181  84  86  57  46  67  25  35  22  32  26  34  36  43  37  49  72 102 113 126 140 155 152 157 148 146 136 116 110  63  47  37  45  57  61 118  64  77  55  68 123 116 143  65  61  57  50  42  95 106 111 113 117 134 151 164 157 152 156 144 149 129 144 113  93  93  81  59  50  27  26  39  41  23   9  22   7   9  65  44  10  20   7  10  22  13  14
 253 253 187  59  57 182  81  86  66  40  51  26  36  24  32  24  40  38  34  52  44  70 101 117 127 137 149 146 142 129 108  86  79  75  47  42  57  52  62  68  68  62  48  45  53 121 102 133 142  73  67  49  58  61  62  79  66  72  93 105 133 152 154 163 145 122 145 118 118 109  99  87  61  37  31  32  49  48  14  16  13  15  11  43  69  30  13  12  11  11   8  11
 249 246 254  55  54 160  90  90  38  41  32  25  34  32  34  30  38  39  37  36  45  71 102 120 122 139 143 118  99  86  90  67  65  63  49  51  58  65  70  84  64  79  51  35  74 132 127 121 141 118  83  82  57  59  68  61  55  65  71  76  96 122 162 144 144 123 116 127 108 115  84  77  55  31  40  38  46  50  16  18  18  17  13  22  61  50  17  20  21  16  22  11
 253 245 249 103  27 101  81  80  47 110  29  22  27  30  27  28  30  36  45  25  35  67 100 126 102 121 121  90  88  95  49  51  67  50  59  73  71  65  75  73  98  99  85 129  96 141 149 107 115 140  97 103  70  80  83  79  72  64  60  59  70  96 102 166 124 128 105 113 116 118  72  68  49  41  40  37  49  68  36  23  21  22  14  19  42  71  38  29  23  16  36  19
 255 249 239 219  32  52  50  65  65 105  23  36  31  33  26  24  29  35  45  35  48  65  88 111  92 108 103  82  88  68  69  78  47  50  62  73  70  45  56  78  89 115 110 130 113 112 129 127 128 114 106  96  89  83  98  81  70  90  76  62  62  78 119 123 118 108 102 117 115  68  85  70  52  55  38  37  69  87  56  26  14  31  15  11  28  74  39  31  28  17  48  37
 255 253 248 179 131  42  37  57  88  42  29  41  24  30  28  23  33  35  41  35  46  62  81  93  54  99  78  74  82  64  67  59  54  58  57  49  42  55  78 100 110 102 108 114 116 104 118 126 129 129 111 101  95  81 109 100  89  83  92  80  82  63  83 107  97 113 102 107  86  63  85  60  39  53  67  43  81  92  50  27  24  26  20  10  24  39  62  30  25  21  34  12
 255 254 247 177 159  10  32  31  62  29  22  78  37  27  30  26  29  19  31  36  31  55  69  77  78  99  71  85  94  62  93  74  54  63  73  56  56 103 121 138 155 164 170 173 171 171 181 179 173 166 143 131 121  98  93 108 124  75 102  82  81  75  97  84  85 102 117 104  69  58  75  42  40  35  52  86 110  78  61  25  22  16  18  24  16   8  60  42  36  14  23  23
 255 254 252 208  56  43  36  41  42  40  33  84  34  16  28  34  23  16  29  37  43  49  54  70  90  72  68  76  56  86  89  59  55  79 117 110 113 116 131 152 172 178 180 178 174 178 185 178 163 162 156 161 157 135 104 122 154  99  79 105 102  91 133  70  83  72 118  89  63  65  56  39  39  45  62 108 107 105  59  32  11  17  20  39   1  12  22  41  51  31  30  26
 254 254 254 214  35  49  29  17  58  43  64  69  38  32  20  16  19  18  30  36  33  45  55  81  65  74  91  69  63  66  54  66  77 108 130 119 120 128 152 142 160 169 171 177 183 181 180 173 174 168 159 156 155 146 142 142 143 119  88 106 108  91  85  90  64  74 122  94  53  53  46  41  40  52  46  86 117  96  59  28  12  11  20  17  13   3  16  29  31  19  39  38
 253 254 254 190  27  32  57  14  48  54  86  42  37  30  12  18  12  18  26  23  24  35  62  62  59  66  57  48  44  50  46  38 109 126 139 123 127 137 140 149 157 164 156 152 144 142 142 144 144 140 152 152 160 153 140 173 157 124  93  60  95  73  79  87  77  58  94  78  60  44  32  40  42  46  55 121 124  79  97  27  16  16  22  18  20  13  20  36  29  27  21  27
 246 247 215 200  17  36  54  37  42  46  74  37  29  29  17  14  22  26  24  27  33  39  52  59  53  59  49  52  44  53  47  68 137 130 153 154 135 144 130 140 133 135 121 126 124 109 137 131 125 143 161 167 166 169 174 166 166 144  91  66  92  74  70 118  53  59  88  78  67  24  34  38  42  45  87 127 129  79  85  61  31  20   9   9  22  20  13  19  23  39  29  10
 251 243 223 143  13  26  36  58  59  61  41  39  25  25  18  16  20  23  26  33  31  41  44  52  40  49  30  53  41  63  36  94 125 137 170 160 162 162 144 133 129 136 121  99  95  93 133 139 126 152 160 174 173 181 180 157 144 104  73  43  65  66  71  63  62  54  53  39  51  39  45  37  41  45 107 146  90 112  45  90  46  35   7  14  27  24  25  24   8  24  34  24
 252 207 197 104  17  45  52  94  51  36  41  38  28  26  19  26  23  13  22  29  23  35  39  39  40  34  33  35  41  41  48  62 112 121 155 167 166 159 151 116 123 147 112 105 117 128 141 149 140 168 158 177 177 185 152 120  96  63  52  28  27  67  71  53  59  35  21  36  36  30  32  37  40  43 106  94 108 109  38  98  75  43  12  23  32  23  18  28  13  32  40  21
 190 149 128  50  26  68  52  86  52  41  31  25  27  30  19  23   9  26  24  23  18  38  45  31  34  28  28  39  40  39  44  55  85 102 140 162 172 140 145 120 160 136 126 142 139 151 126 135 148 172 174 181 178 165 128 138  76  69  52  55  35  33  59  59  37  64  17  15  22  41  37  25  36  49  76  98  88  88  75 100  98  25  42  39  19  41  16  20  31  20  49  30
 201 151  67  49  51  48  37  35  33  27  24  20  30  35  21  30  24  16  27  18  25  30  31  27  25  24  26  31  22  40  27  55  66  89 135 157 156 126 154 153 160 132 157 142 176 153 150 150 152 162 162 187 160 172 114 109  91  53  45  46  53  42  47  44  31  25  27  28  24  26  25  36  41  54 103  91 130  73 111  95 114  32  51  33  20  28  13  21   8   9  26  50
 175  71  58  40  54  39  31  36  23  25  21  22  25  39  18  26  14   3  37  18  27  22  28  33  30  24  28  23  31  22  55  49  67  83  80  98 137 140 158 172 121 142 146 170 159 137 148 134 135 172 137 182 141 127 112  89  49  73  40  39  29  22  60  40  38  20  21  30  25  26  18  30  36  38  78  96 118  82 111 109 123  35  55  21  13  18   9  20   9  11   5  33
 184  76  39  39  74  38  29  23  30  33  28  36  24  45  19  21  15   6  17  23  22  18  27  26  21  14  20  21  26  34  43  36  61  60  93 129  88 125 132 112 130 147 138 155 152 133 128 142 129 145 135 147 118 139  91  78  47  55  35  53  44  36  26  45  14  44  25  25  24  34  22  31  34  44  79 133 104 116 110 123 119  49  74  21  13  20  19  19  18   9   8  14
  62  57  59  51  65  38  14  40  78  15  52  42  39  35  29  11  15   9  15  26  15  16  22  14  13  15  12  24  35  47  20  57  66  80  81  62  91 114 101 108  95 135 125 124 134 103 113 145 115 139 138 109  70 105  75  74  66  46  36  40  59  33  40  30  28  30  56  44  28  37  24  37  27  46 107 139  95 136 117 136 110  74  69  63   9  16  10  25  11  11  11   9
  85  69  33  55  45  28  45  41  37 109  54  49  62  42  24  19  13  10  18  12   9  15  16  31  14  17  20  35  22  33  29  57  55  59  62  52  67  58 109  98 117  99  80 139 123 142  94 128  92 106  80 104  82  48  47  71  77  80  61  34  62  44  36  26  43  52  51  38  42  33  26  36  23  80 138  77 108 125 127 134 115  75  78 107  23  20  17  21  25  15   4  12
  59  54  52 119  60  37  74  43  71  60  49  44  61  50  37  26  18  16  15   3  15  16  21  14  11  21  20  21  28  25  25  39  45  53  54  57  61  61  97  54 105  76  94 111 126 118  79 114  85 110  76  73  73  61  52  60  65  82  71  35  56  45  38  23  38  39  54  39  46  25  24  28  43 136 153  41 138 129 136 136 129  87  87 106  61  26  22  22  19  12  13  10
  31  37 147 189  47  63  77 146  89  94  50  44  55  56  48  35  32  19  10  13  20  22  29  19  16  24  22  27  22  23  33  33  41  49  46  54  61  73  97  75  79  69  96  74 119 106  90  95  68  78  68  62  51  51  50  45  45  44  52  42  41  40  35  27  32  36  42  24  29  34  22  29  39  87 139  60 146 149 136 135 115  82  97 105 111  22  14  18  13  14  20  19
 185 141 156 118  72  62 115 140  83  54  49  31  47  47  39  37  39  20  11  20  37  32  20  26  34  36  17  22  20  20  41  35  38  57  56  52  49  57  63  60  70  59  70  84 119  81  88  58  59  66  72  55  61  52  46  55  54  50  37  52  41  41  36  46  30  47  41  37  25  50  27  30  38 113  85 100 142 156 138 134 133 117 106  98 125  23  27  20  14  15  15  27
  48 182 167  67  66  60 129 103  62  51  42  32  43  49  48  48  40  19  13  14  31  44  33  40  30  38  20  27  21  20  31  29  74  49  37  79  50  57  48  48  62  50  55  54  75  90  77  48  66  61  71  61  48  50  57  41  55  39  36  44  33  47  45  29  24  30  23  30  10  45  30  56  46 131  55 129 141 153 148 140 127 131 104 111  98  35  39  22  19  24  16  20
 225 167 152  71  49  47 112  46  37  64  53  36  34  40  48  47  37  19  16  11  18  39  52  39  15  30  16  22  25  36  34  33  75  32  35  84  34  36  45  46  56  43  63  46  59  87  56  48  64  78  69  52  70  52  38  51  32  38  35  52  37  43  33  38  24  31  22  36  25  31  26  54  39 180  46 140 147 158 142 154 128 144 113 113 119  33  93  10  26  28  20  22
 203 103 136  75  51  38  36  36  45  69  52  70  61  53  51  45  36  20  27  14  16  21  52  30  21  35  19  24  25  23  32  38  42  34  25  40  39  39  59  58  65  50  60  54  46  47  38  57  48  78  71  41  61  48  40  30  46  36  40  36  36  57  44  26  35  36  35  34  25  27  38  69  50 130  53 144 159 161 139 151 136 138 139 136 144  95 104  14  22  18  32  28
 221  69 124  39  48  33  47  50  59  70  85 100  89  66  53  46  35  22  34  19  23  22  45  40  15  32  23  27  34   9  25  43  30  40  27  30  40  44  46  55  57  51  36  63  42  31  30  68  38  39  57  71  37  91  40  32  25  37  42  37  31  36  39  47  22  35  41  41  47  37  43  62  89 139  72 153 160 155 156 133 137 130 157 138 159  79 127  15  14  20  41  29
 173  43  47  30  50  37  47  97  74  71 131  48  52  72  48  34  33  26  33  22  19  25  45  45  16  21  24  21  27  25   9  23  21  54  29  34  29  41  53  43  70  48  37  62  52  36  40  45  41  38  46  58  50  45  34  39  27  44  44  42  25  39  29  49  31  36  22  40  44  38  63 120 159 148 119 128 161 155 160 158 154 159 154 140  88 170 158  18  20  25  22  15
  61  67  57  59  76  74  63 105  52 109  38  57 111  61  49  52  34  21  30  29  24  31  40  38  10  28  23  22  29  24   6  37  29  37  24  35  13  38  46  37  51  47  10  61  40  49  33  47  45  40  42  47  42  40  36  43  12  38  57  36  34  18  16  43  20  28  46  30  21  53  92 146 150 142 175  69 165 162 169 164 156 161 151 134  97 165 164  22  22  22  18  31
  99  79  73  44  91 112 100  54 113  69  28 124  76  53  43  43  38  40  35  26  25  34  32  40  18  23  31  23  28   9  20  21  44  26  35  19  22  31  37  40  41  81  41  34  56  68  37  51  53  48  54  42  29  43  47  44  18  35  48  26  23  14  27  37  16  41  29  41  45  70 100 158 162 172 168  37 187 165 169 170 162 169 158 143  48 140 182  23  26  17  16  19
  97 114  67  49 130 103 121  44  44  66  96  85  73  36  43  42  40  59  40  11  24  33  29  46  34  21  17  28  22  28  15  18  25  37  20  29  30  30  37  43  37  44  38  50  33  57  37  49  33  32  47  56  49  39  43  32  32  39  44  45  19  18  29  35  20  47  32  37  46  77 117 144 177 178 171 118 140 158 180 178 165 173 158 163 142 161 128  42  21  15  17  37
 155 156  78 104  71 126  72  70  59  32  43  72  37  39  36  31  36  38  21  21  26  24  38  37  34  17  18  21  23  33  25  30  22  39  29  30  34  27  26  55  36  41  31  29  54  64  28  43  46  34  50  59  48  54  69  19  47  41  36  29  17  19  27  20  30  26  46  44  52  72 135 173 170 184 177 180  68 171 171 172 176 169 159 126 137 160 167  70  26  16  37  28
 118 194 148  78 162 103  85  57  45  28  40  53  40  25  22  40  36  31  31  21  21  33  35  20  32  22  21  30  41  25  29  24  14  23  43   6  33  27  15  42  33  30  26  23  43  59  16  26  36  22  41  33  43  38  64  23  30  31  32  28  16  26  25  26  37  29  52  72  80 100 119 181 174 182 180 165 119 134 174 175 182 163 180  54 184  48  40  60  18  26  39  25
 135 114 122 178  85 129  47  32  32  38  33  35  33  20  32  52  37  33  29  15  23  40  24  42  21  22  28  29  32  26  35  28  20  27  60  14  37  43  28  48  35  30  25  20  41  53  28  32  41  30  46  33  34  18  50  33  30  31  23  36  27  33  27  25  31  22  35  96  90 111 131 176 173 183 183 173 172 106 164 180 179 172 182  46 113  68  64  44  13  20  21  28
 156 145 197 158 157 108  39  70  47  47  29  23  26  26  34  23  34  41  24  18  34  37  18  27  33  12  27  37  26  40  22  33  30  19  25  23  35  57  27  43  36  22  30  24  36  24  22  20  46  55  45  37  24  21  29  33  27  13  34  42  28  30  32  27  33  31  43 126 111 117 151 167 172 179 177 188 171 149 122 164 162 157 166 127 132  82  22 135  12  12  24  28
 100 203 207 212 167 152  51  67  57  49  36  35  20  16  23  25  35  45  35  31  34  57  31  27  19  26  41  49  40  31  17  45  25  26  26  39  19  39  20  43  48  23  40  34  37  23  36  19  37  52  27  18  29   7  36  21  24  23  22  57  23  34  45  42  33  51  46 112 134 148 173 181 182 177 180 184 174 181 140 127 181 162 105 148 162 174 149 179   6  13  28  32
 168 214 205 205 208 202  83  34  41  45  45  32  17  15  25  24  21  34  63  43  38  41  36  28  22  31  36  56  31  30  32  34  13  27  22  34  33  25  18  35  38  35  21  28  27  23  22  19  16  25  27  20  32  33  47  20  21  23  25  37  34  45  29  32  42  57  72  78 113 157 147 178 180 180 182 187 184 184 185 112 128 187  56 216 155 161 173 165   4  16  25  27
