P2
# Generated by OpenCV 4.2.0
92 112
255
 221 225 226 226 226 226 227 230 233 239 241 242 242 243 243 243 243 242 241 254 255 162  62  39  32  37  36  62  81  92  75  65  66  86  81  62  95  92  69  50  53  56  61  73  74 109  97  69  69  55  57  71  59  56  82  88  71  52  32  21  22  15  13  19  18  21  27  45  59  60  43  54  76 172 238 228 234 233 229 231 229 230 229 227 232 229 229 227 227 226 226 226
 224 225 227 226 226 226 229 231 236 240 242 243 243 243 243 243 244 244 250 206 115  58  56  63  65  44  34  44  73  75  75  63  60  58  84  67  53  77  88  87  68  63  75 103  97  99  88  69  63  68  62  56  71  79  73  54  32  27  21  16  12  14  18  15  13  11  12  20  30  42  49  48  49  85 207 235 231 231 233 233 230 230 228 229 230 229 228 227 227 227 226 226
 225 226 225 226 226 228 230 233 239 242 243 243 244 246 245 244 245 254 190  77  54  67  58  39  44  47  35  34  56  67  74  62  61  45  65  74  39  46  67  82  75  88  90 107 102  94  73  70  74  65  60  78  69  54  39  20  22  21  14  10  15  18  14   9   8   9   7   6  13  24  36  51  49  27 134 233 236 236 235 234 231 232 228 230 231 230 229 228 227 227 226 226
 225 226 226 227 228 229 232 237 241 242 243 243 244 245 244 244 255 202  71  56  79  71  56  52  57  52  32  22  32  69  74  65  56  36  49  71  54  40  46  71  65  76 100 114  95  85  79  78  65  63  71  62  46  33  25  24  18   9  10  14  13  10   9   9  10  10  11  11   9  12  23  45  64  50  71 208 235 235 234 234 233 231 230 229 231 231 230 229 228 228 228 227
 226 226 226 227 230 231 235 239 242 241 243 244 245 245 243 253 213  73  57  83  67  57  61  60  61  64  53  27  26  53  65  76  48  37  44  70  58  50  44  67  56  74 102 125 101  80  86  60  58  58  67  48  31  27  18  15   9  12  15   9   8  12  13  16  14  11  11  15  17  16  17  29  50  71  65 145 229 227 234 237 233 232 231 228 232 231 230 229 228 228 228 227
 226 227 227 228 229 232 236 240 243 244 243 242 241 240 250 231  95  52  81  71  67  67  64  62  69  66  65  47  35  41  48  68  49  39  44  69  59  49  50  56  64  78  80 112  96  78  72  59  45  62  55  30  27  23  15  17  15  17  13  12  22  24  23  22  18  15  14  15  17  19  26  33  41  41  61  67 166 226 222 228 230 233 232 229 232 232 231 230 230 228 228 228
 227 227 228 228 230 233 238 241 243 244 244 243 240 245 240 113  54  71  59  71  74  62  50  51  51  49  58  56  50  48  38  47  42  32  28  48  59  49  48  45  66  63  62  85  81  73  63  58  54  60  30  29  32  19  23  26  22  19  19  27  21  16  19  21  21  22  20  13  11  13  17  27  44  43  54  57  74 197 222 217 220 228 226 230 233 231 230 229 230 229 228 228
 228 227 228 230 231 236 241 242 243 244 244 244 247 246 135  56  69  47  54  64  47  35  37  37  38  41  46  48  35  41  34  33  36  27  25  30  37  53  45  43  49  54  62  66  69  65  67  64  51  43  33  35  34  29  38  35  33  37  44  43  36  36  30  33  27  26  32  33  21  18  18  29  39  51  60  83  58  99 215 219 216 222 221 227 227 232 233 232 229 230 229 228
 228 228 229 231 234 238 241 243 244 243 245 247 251 166  56  70  41  49  52  36  38  42  42  47  45  41  35  39  26  27  30  30  37  32  28  26  27  44  43  42  44  50  55  60  68  67  64  51  43  31  46  44  41  42  36  31  38  38  41  28  18  15  21  30  37  35  35  38  36  31  24  32  41  44  48  58  77  59 143 231 217 224 223 221 222 229 232 232 232 229 230 230
 228 228 229 231 235 240 242 244 243 242 245 249 204  63  69  37  41  48  19  30  54  36  32  35  38  29  22  31  32  25  29  31  35  39  33  28  28  34  40  44  51  49  48  65  63  64  53  46  35  32  52  45  43  31  37  40  35  38  34  23  17  19  26  32  27  24  42  45  58  43  33  29  37  38  46  55  63  71  71 174 226 217 231 226 222 225 230 232 232 229 228 229
 228 228 230 232 237 240 244 244 243 241 246 228  79  61  44  33  42  22  18  40  25  18  28  33  32  28  23  29  35  35  40  40  42  43  40  40  35  38  42  41  65  65  57  69  64  52  48  46  34  42  51  39  32  34  48  34  30  31  33  30  34  25  14  39  39  30  29  46  61  57  41  39  33  28  31  41  57  64  67  82 189 216 218 227 227 220 227 233 230 230 230 229
 228 228 231 234 239 242 245 245 244 240 235 121  51  54  20  40  25  20  35  29  29  38  35  30  36  37  33  40  44  46  50  54  52  58  57  59  58  60  59  57  66  73  81  78  74  65  57  52  48  55  50  32  31  33  30  22  30  30  28  28  29  18  13  25  51  46  33  38  51  61  53  37  36  33  31  31  41  61  61  59  95 209 226 225 233 222 222 231 229 231 231 228
 230 230 230 237 241 243 245 238 234 226 163  78  86  43  38  36  34  39  43  42  43  36  31  28  30  41  46  53  60  68  76  79  72  70  71  88  93 103 101 102 109  99  96 105  98  87  73  72  72  73  62  47  38  29  32  30  35  34  28  27  21  14  18  20  37  57  44  35  38  59  62  41  35  36  31  36  31  43  63  57  62 103 209 224 225 229 221 231 234 229 230 229
 229 229 233 239 242 246 232 222 235 188  74  57  55  62  59  49  45  37  36  34  35  35  29  20  31  57  75  83  93 106 118 111 108 109 110 116 132 149 147 141 147 150 126 130 135 115 108 106 115 106 100  76  60  50  49  48  59  53  41  39  34  31  23  20  19  56  57  27  33  50  68  48  40  34  29  33  33  30  55  57  63  73 116 220 220 227 221 224 232 229 232 231
 230 233 235 240 245 240 225 236 243 109  42  45  36  38  39  33  30  32  30  31  31  32  30  34  62  92  98 118 131 137 143 139 131 133 144 154 162 171 176 179 172 181 172 159 162 152 142 140 143 145 144 116 111  95  80  80  88  81  70  67  58  55  46  39  23  44  61  30  36  45  72  48  46  34  27  24  38  33  36  63  55  86  74 130 229 225 223 218 229 231 232 231
 230 233 238 243 243 228 232 249 170  60  60  58  53  44  36  26  28  25  25  16  20  28  39  73 106 126 138 149 155 159 160 163 164 162 168 177 183 188 188 188 192 194 192 182 177 174 169 171 168 169 165 155 151 139 126 116 120 113 110 103  85  82  73  54  39  49  56  35  41  52  83  50  45  42  26  21  31  40  35  54  63  66 108  68 154 234 231 227 227 230 231 232
 232 235 239 242 241 229 224 224 102  40  34  35  39  35  31  23  23  24  22  14  17  24  62 110 135 159 169 171 176 179 178 180 179 184 185 185 187 190 191 193 194 193 192 189 190 188 182 180 179 175 171 168 165 163 154 150 144 138 134 128 115 106  92  74  61  65  56  33  40  57  85  66  39  47  30  19  20  36  47  43  64  61  86 123  78 183 243 230 228 228 229 231
 233 236 240 239 237 218 229 165  49  30  16  23  40  25  23  18  18  17  12  17  28  57 107 136 156 167 176 180 185 187 188 189 188 187 186 188 191 191 194 194 195 196 194 188 190 190 187 184 178 177 172 170 169 167 165 165 162 159 153 146 131 117 106  90  75  78  65  31  39  64  84  69  36  40  42  24  16  33  39  39  61  69  72 122 134  84 215 239 228 229 232 231
 235 238 241 238 235 226 222  89  42  31  32  35  32  33  22  15  22  18  16  28  50  95 129 152 167 175 181 186 190 193 191 192 191 192 194 197 198 198 198 198 198 198 195 194 192 192 189 187 180 176 173 170 170 170 168 166 167 165 161 154 138 126 116 102  85  81  70  33  35  68  79  72  37  39  45  39  14  21  35  40  47  69  71  90 171 133 111 239 231 231 231 233
 236 240 238 239 239 226 168  59  40  40  40  38  33  33  26  21  22  25  33  44  76 117 142 162 176 184 191 191 194 195 193 195 193 196 195 195 196 200 198 198 198 198 195 195 191 189 184 183 180 177 174 172 172 171 170 168 166 167 168 163 148 133 124 108  97  90  70  39  37  56  71  77  44  38  41  46  27  12  29  39  43  64  68  74 133 208 119 136 232 227 233 230
 238 242 237 242 239 208  95  34  36  40  42  37  35  27  27  21  28  43  49  56  89 135 156 168 182 192 194 193 195 195 195 189 190 196 195 194 193 198 199 198 199 197 194 191 191 185 185 185 180 176 176 172 172 173 171 172 168 169 169 166 155 137 128 112 103  97  75  40  39  53  62  68  47  37  44  47  42  20  17  39  43  55  72  70  80 176 207 114 173 235 228 230
 239 242 238 243 231 180  59  36  39  38  35  32  25  19  23  24  36  41  44  59 109 150 164 174 188 194 195 197 195 198 199 193 194 195 194 193 195 196 200 200 194 195 194 195 193 188 189 182 176 175 173 171 171 175 174 176 175 169 167 169 159 145 135 118 104  99  88  45  35  53  57  60  44  31  32  48  43  40  20  35  46  46  71  66  61 138 220 190 124 212 234 226
 241 241 235 229 203 151  62  53  40  34  38  32  25  22  25  30  40  37  43  79 131 155 172 184 193 193 196 196 193 195 195 194 193 195 196 195 198 197 197 196 192 194 189 191 190 189 185 180 173 172 173 172 174 177 177 175 167 165 165 164 159 148 141 123 109  99  96  63  28  43  54  47  46  32  25  32  43  37  38  23  40  39  70  67  63  88 203 214 173 134 216 230
 240 240 222 218 211 135  70  41  28  38  36  28  27  32  35  37  43  37  48 100 140 165 180 189 192 193 195 195 196 193 190 190 192 193 197 197 195 195 197 195 194 188 184 183 184 186 182 180 172 174 174 173 173 176 175 170 167 163 161 160 153 152 145 130 118 100  95  85  37  25  44  41  42  30  26  22  37  34  51  39  30  39  62  72  69  55 150 217 210 156 152 227
 247 223 227 244 198 119  64  40  31  45  33  37  35  39  31  34  41  36  63 123 152 173 182 190 193 192 191 192 193 191 190 189 189 191 190 191 192 197 193 190 190 187 186 186 183 184 182 179 172 175 175 169 170 173 171 169 163 157 158 156 155 156 149 133 122 103  97  96  67  17  30  35  38  30  27  20  32  35  42  63  34  36  59  75  71  64  72 192 223 201 150 194
 229 231 246 249 155 117  59  29  44  48  45  44  37  29  31  31  25  32  77 133 164 177 182 189 190 190 190 188 188 189 185 187 188 187 188 188 191 193 191 189 188 184 186 184 187 184 182 174 168 170 170 167 166 166 168 166 159 154 153 159 159 154 151 137 123 110 100  98  85  37  19  31  31  28  24  23  24  30  37  59  56  33  51  70  78  64  55 115 220 217 187 154
 238 241 244 238 139 134  58  38  44  43  42  38  29  27  25  24  21  35  88 136 162 179 186 188 185 186 190 186 185 184 183 184 183 183 188 189 187 185 184 184 183 184 187 179 183 182 178 172 166 165 168 167 162 159 161 157 154 153 157 156 157 151 149 139 127 113 100  98  87  62  22  28  25  23  18  24  14  21  40  53  69  40  42  61  82  65  61  65 176 240 211 159
 240 240 238 222 152 142  49  49  49  47  39  31  25  24  28  28  23  47  93 140 165 178 184 184 184 186 188 184 183 183 185 187 187 192 188 186 188 186 181 185 188 184 183 184 184 184 179 174 171 169 168 167 163 165 162 153 157 160 157 156 154 148 142 139 128 108  95  92  88  71  33  21  25  20  14  26  21  16  38  49  74  60  36  44  77  70  58  56 110 213 229 193
 241 241 245 211 176 124  56  61  52  40  29  24  21  25  27  24  32  51  96 143 165 175 181 177 180 185 185 186 186 185 187 189 187 189 192 188 189 189 186 191 192 186 182 187 188 184 182 177 174 174 172 174 174 176 171 168 172 170 166 163 156 151 135 131 125 113 100  91  87  78  48  22  23  20  10  24  32  14  27  46  58  73  54  43  66  82  53  58  58 162 220 200
 242 245 243 198 166  92  75  59  41  36  26  24  17  21  29  29  29  47  92 143 162 169 178 179 178 182 184 189 188 190 194 194 190 186 188 191 194 189 194 197 195 193 188 185 191 188 185 182 179 179 180 179 183 180 180 179 177 173 168 162 157 153 143 132 119 110 100  90  88  80  62  27  21  21  15  12  34  36  13  43  50  74  58  51  62  85  63  55  45  91 217 200
 248 243 243 198 157  89  70  46  37  36  25  26  20  33  35  30  22  39  92 136 160 164 175 184 178 182 193 198 199 200 201 202 199 194 193 193 194 190 192 196 189 188 187 184 189 190 185 182 184 181 179 184 187 183 179 181 178 169 162 157 151 143 137 132 121 109  99  92  87  80  67  32  18  20  19  15  18  49  32  35  55  66  68  42  55  80  74  56  52  41 154 223
 243 241 248 208 131  75  62  44  36  31  34  27  34  44  33  21  24  41  93 131 155 165 172 176 180 193 197 200 203 205 203 203 202 200 193 193 191 191 190 194 191 188 186 187 189 188 187 189 190 188 191 191 190 188 181 181 178 177 177 161 158 143 131 127 124 111 100  95  85  81  72  37  18  23  26  24  23  30  67  35  58  55  71  42  49  70  74  56  62  50  81 192
 242 243 240 206 114  63  52  42  33  32  36  29  45  40  26  34  25  35  99 140 152 164 170 178 191 196 201 204 203 201 202 200 199 196 193 193 190 193 189 188 188 185 187 188 192 189 189 198 198 192 194 196 193 186 183 182 182 176 173 159 154 157 146 132 123 116 103  96  88  85  72  43  21  23  30  24  10   7  44  60  49  48  61  47  47  63  71  69  64  60  67 151
 249 244 243 187 114  65  50  46  39  35  35  36  50  33  30  27  16  30  93 138 150 161 169 178 173 190 204 198 202 203 201 200 199 196 189 189 188 190 190 185 184 185 188 186 183 188 192 197 196 191 191 187 181 179 179 177 168 162 159 138 153 149 128 118 118 113 104  96  89  85  72  48  26  22  32  38  14  12  23  67  49  45  53  43  44  59  71  80  61  63  57 136
 247 247 248 183 107  77  57  47  44  36  39  46  46  21  23  19   7  29  95 136 153 160 169 162 148 164 175 182 185 193 193 193 193 186 184 183 184 183 184 185 181 185 189 189 189 193 191 193 194 189 183 179 179 176 172 168 159 145 122 129 152 123 104 105 117 114 101  95  89  81  70  51  30  28  20  44  31  18  22  46  58  51  45  40  40  50  58  89  69  61  57 127
 242 249 227 154 116  77  63  45  44  41  44  46  41  22  22  14   5  31  99 141 151 155 163 154 136 129 130 139 154 160 180 186 185 177 174 175 176 171 173 175 171 180 185 184 190 188 183 183 184 177 175 173 169 166 161 142 116 105  97 132 118  93  87  90 106 110 104  95  90  79  65  51  32  38  19  33  52  13  17  37  62  47  35  36  32  45  50  75  91  63  57 105
 238 246 176 169 149  68  66  52  39  41  43  55  38  22  21  13   6  29  97 141 152 150 150 133 113  92  89  92 115 130 147 164 167 175 174 168 163 161 163 163 165 170 173 177 176 174 173 171 170 164 167 164 147 132 116  91  73  69 114 111  84  77  76  77  81  91 101  94  89  75  65  54  34  29  13  15  57  42   7  25  57  37  24  32  28  41  44  61  88  80  56  80
 252 220 179 170 137  69  63  58  38  34  40  53  30  21  19  13   8  25  96 140 153 136 124 108  93  78  68  65  68  87 104 117 139 161 162 160 158 153 158 153 153 157 161 166 160 164 163 160 158 152 142 134 108  83  64  44  38  68 100  85  74  75  83  81  85  84  84  89  84  69  63  55  37  35  17   4  37  60  17  15  54  31  17  27  22  40  34  47  73  96  68  81
 224 218 165 165 177  72  56  54  40  28  39  38  28  23  20  13  11  23  93 140 147 123 109  91  91  78  54  39  41  48  58  70  93 117 132 148 150 147 148 147 148 149 153 156 153 153 152 147 135 122  95  71  56  42  35  30  50  65  53  59  60  71  81  82  86  84  83  80  80  65  61  55  38  39  21   4  17  62  39  15  62  29  15  26  19  36  29  37  56  84  89  89
 206 217 148 218 179  77  59  56  45  31  32  28  26  26  22  13  12  23  92 140 135 111 113 113 120 115 100  78  56  44  36  39  46  65  91 110 119 130 138 139 135 139 144 148 145 139 135 124 108  86  62  42  30  26  30  43  59  50  57  67  76  86  93 102  92  84  78  72  68  64  62  58  40  40  18   6   6  50  60  26  67  20  18  24  22  32  23  32  44  67  86  93
 229 179 163 223 144  83  74  54  39  24  28  28  21  24  19  15  15  24  95 136 131 112 123 151 153 146 140 132 120  96  63  42  31  34  48  62  80 104 119 126 129 133 137 134 128 125 117 100  83  64  50  42  38  43  46  56  63  72  89  98 102 108 114 109  98  85  83  76  64  63  63  58  43  44  17  11   3  32  61  52  61  14  16  21  25  33  19  30  32  50  74  91
 223 147 206 207 114  87  75  62  42  26  29  24  19  20  21  17  16  28  92 134 130 110 138 161 156 142 129 119 114 104  76  52  44  40  38  41  55  70  86 105 119 126 129 131 121 109  97  77  61  55  55  53  51  47  42  52  63  74  79  77  77  82  89  99 100  93  84  70  60  61  66  62  49  51  19  15   7  27  62  64  43  10  15  23  23  30  20  25  33  39  58  82
 188 141 218 194  89  78  62  63  51  30  28  25  21  16  19  20  17  31  97 135 138 119 139 151 118  79  64  60  55  46  38  32  29  32  40  47  53  58  67  84  95 112 125 123 111  96  87  73  60  59  57  46  35  28  23  24  27  30  31  35  39  38  42  65  81  83  73  62  59  64  71  67  52  51  18  14   8  28  69  62  28   8  13  22  23  30  21  26  29  40  49  68
 211 157 215 181  78  69  43  53  53  33  30  22  24  13  15  19  18  35 105 135 140 126 136 121  58  66  73  56  37  23  16  15  15  19  22  28  40  57  65  68  80 101 112 105  95  91  82  71  62  51  36  24  17  14  14  13  13  13  17  25  39  50  48  33  54  66  58  60  64  67  75  66  52  53  25  17  10  25  68  64  19   8  14  21  21  30  20  23  31  35  53  63
 190 177 212 189  83  69  36  44  52  39  34  19  19  17  15  20  16  39 111 138 142 132 135  93  50  65  40  42  28  24  16  19  23  35  24  18  18  29  51  67  79  98 103 100  99  95  86  73  52  34  21  15  19  28  54  37  18  13  19  25  26  27  39  41  47  64  63  67  71  74  80  67  54  53  31  15  14  21  69  65  13   9  16  23  20  25  18  20  28  36  40  65
 169 217 198 191  88  78  32  34  48  44  36  19  13  18  17  21  12  52 119 144 147 144 141  94  44  45  62  94  75  34  32  34  54  69  38  27  24  23  37  64 100 122 136 132 121 108  97  76  48  32  21  29  41  58  83  73  44  41  43  55  59  45  33  38  50  72  83  79  80  85  86  67  46  55  41  18  15  29  72  58  10   8  15  20  19  21  18  14  21  39  34  52
 219 239 194 168  98  71  33  28  43  49  39  22  13  13  17  20  14  63 129 144 147 158 157 111  82 109 107 107 113  99  86  93  95  92  81  71  72  64  69  88 130 155 167 162 146 127 105  86  73  62  67  76  79  85  84  84  90  87  83  78  73  76  82  69  70  91 103  98  94  92  87  56  45  63  42  26  13  30  65  46  14   7  13  20  19  15  17  14  19  34  33  43
 239 247 221 121  81  67  32  32  45  53  42  26  12   8  16  16  21  77 129 157 161 165 170 163 153 159 142 125 108 111 109 102  95  94  93  81  70  91 114 131 153 174 185 182 171 141 116 103  98  90  81  78  74  86  91  89  95  92  92  95  92  98  96  99 111 120 118 112 108 101  88  41  49  68  46  27  18  27  58  34  14  13  16  22  21  13  13  15  19  28  38  39
 240 246 236 100  67  69  34  39  45  52  51  28  10  12  21  15  27  88 134 159 167 173 178 180 166 154 150 150 132 112 101  96  92  80  61  51  75 115 137 150 158 173 185 181 166 147 128 115 105 102 104  97  78  64  66  73  82  91  92  91  87  94 105 112 122  99 106 121 116 107  77  29  60  68  49  29  17  27  51  26  10  12  20  18  24  17  16  11  15  22  43  38
 234 229 131  55  77  69  35  30  41  54  55  30  14  15  22  13  37 100 136 159 172 180 182 178 172 146 122 111 101  81  65  61  49  44  57  90 136 144 157 159 167 180 183 173 163 148 129 123 128 124 118 122 110  98  83  70  63  62  64  68  81  99 108 118 122 104 112 122 119 113  58  27  65  67  50  30  16  25  45  22  10  11  18  14  18  21  20  13  14  17  31  44
 207 105  27  85  97  56  38  28  55  58  48  26  17  24  18  12  43 107 137 159 174 182 182 177 182 165 137 103  78  67  65  67  80 102 127 152 158 154 157 161 172 183 187 175 163 149 131 124 129 133 125 138 145 132 115 117 113 115 114 116 124 125 133 139 136 130 131 126 105 105  42  32  70  63  50  31  14  21  38  20  13  14  18  11  20  24  21  15  17  16  21  42
  58  36  88  97  58  55  34  46  68  60  38  23  20  24  14  10  41 108 134 152 167 178 180 182 182 177 166 153 146 145 139 140 149 157 165 171 166 165 163 168 177 188 195 182 168 156 135 128 129 136 127 140 153 149 130 130 138 146 144 145 149 146 149 147 147 140 139 133  93  89  30  37  71  62  51  32  15  18  31  16  15  17  16  10  20  27  25  17  15  15  18  32
  60 134 103  59  53  51  41  62  71  57  31  21  27  19  13  14  35  99 131 149 167 179 182 175 175 178 177 177 168 160 161 169 170 172 176 176 174 171 170 175 178 185 191 183 170 163 141 126 125 129 128 135 153 157 149 142 145 153 146 144 149 148 145 144 140 142 139 130 106  86  21  39  69  60  53  32  19  18  25   9  11  16  17  12  26  29  32  25  16  17  21  28
 164 113  68  63  68  58  53  70  72  49  35  20  26  17  11  15  32  91 128 145 169 177 178 175 177 176 173 170 166 170 176 177 182 185 184 177 178 172 173 179 184 190 193 185 168 162 144 127 124 125 127 135 149 154 157 156 155 152 153 154 154 153 148 144 140 138 133 122  95  78  20  46  65  58  53  31  18  16  22   9  10  15  16  13  30  28  32  33  19  16  20  31
 108  84  87  64  73  58  61  85  51  42  32  23  27  15  10  18  23  72 124 142 163 173 176 179 178 175 170 174 180 179 179 184 192 188 188 183 179 173 174 182 188 192 201 190 178 167 149 128 123 124 127 141 151 155 160 165 163 161 158 158 164 161 152 149 145 145 128 114  99  76  24  42  65  55  50  28  18  17  20  15   9  16  16  17  33  25  26  34  24  15  19  33
  95  87  64  76  65  59  87  69  34  43  23  25  21  11  13  20  20  58 119 139 158 175 178 178 180 180 182 181 180 185 189 184 186 185 182 180 171 171 181 189 194 194 200 192 179 175 156 134 124 122 124 140 153 154 163 169 172 171 166 160 163 163 151 146 148 148 136 122  99  66  27  33  61  54  48  26  16  18  21  18  10  17  16  21  29  22  27  31  31  17  19  29
 131  81  63  76  58  82  82  46  39  35  24  27  16   9  12  15  19  40 106 142 156 169 173 178 184 188 189 186 190 194 188 178 172 173 174 166 160 179 185 192 203 205 200 194 187 179 163 142 127 122 123 124 144 152 161 162 164 172 169 161 164 159 150 153 153 146 139 128 106  71  32  26  54  54  47  31  15  12  18  19  13  17  18  20  26  21  32  30  32  21  24  24
 118  78  75  65  85  86  51  41  37  27  31  28  14   8  10  10  20  36  94 141 158 165 170 180 185 190 193 195 193 188 178 169 163 165 159 137 153 183 187 198 207 206 203 196 191 181 161 146 128 127 129 110 118 145 149 156 158 155 158 162 166 159 159 156 150 140 130 125 108  77  40  19  51  55  45  29  15  13  16  16  14  22  24  21  20  22  36  26  29  26  33  32
  76  80  77  78  91  53  42  39  27  30  36  25  11   9  16  14  17  29  77 136 154 152 162 178 189 193 192 191 180 172 167 162 162 158 139 121 156 186 192 205 212 210 209 201 191 177 155 143 138 137 138 112  95 125 139 147 148 146 149 153 156 154 150 141 141 136 119 114 106  75  47  22  40  53  44  26  15  12  15  15  15  20  27  21  20  23  40  27  26  30  34  32
  71  80  74  87  65  47  42  33  24  33  27  19   9   9  13  14  16  27  68 125 144 148 160 177 182 188 184 174 164 161 154 155 152 139 121 131 182 199 206 215 207 218 210 212 198 169 155 147 158 159 155 130  94  99 126 134 139 144 144 149 149 143 136 135 137 130 115 106  93  72  57  29  32  50  41  24  17  13  13  15  11  17  32  25  21  24  44  30  22  34  36  40
  81  66  77  72  52  43  32  23  31  27  18  16  11  10  10  13  19  28  49 108 141 138 153 173 174 178 172 163 160 153 144 146 138 122 115 154 202 207 206 202 194 193 181 181 177 159 148 148 156 162 154 138 102  91 102 120 134 144 142 143 145 136 133 134 128 123 108 102  87  69  65  44  32  42  38  28  19  12   9  14  12  15  34  35  25  32  47  32  15  34  33  39
  73  62  77  54  52  62  36  30  34  21  13  13  15   8  12  14  22  25  38  98 126 134 145 160 158 167 166 160 156 148 140 137 128 114 126 159 176 167 171 169 162 158 157 151 142 134 131 132 127 100 106 121  98  91  96 107 124 128 130 134 132 129 129 126 122 113 104  90  81  68  62  53  34  39  27  30  21   9  11   8  14  17  32  37  24  35  50  35  10  31  32  30
  68  67  67  59  63  66  34  39  28  20  13   8  14  12  13  13  20  35  37  86 117 125 139 146 150 161 158 151 142 136 136 128 120 119 136 150 121  57  50 103 130 133 130 123 117 111 113  94  41  15  51  89  87  94  95  96 101 105 117 122 124 124 119 114 114 106  97  88  76  64  56  56  33  39  28  26  20  13   9   7   8  17  33  36  23  28  41  45  12  28  33  34
  67  75  62  56  65  57  36  39  27  23  11   9  12  11  14  16  19  28  47  80 104 123 123 134 145 157 154 145 137 135 130 123 116 130 151 161 119  44  26  42  80 105 104  94  89  92  77  36  33  37  46  68  88 110 105  91  95 106 110 112 115 112 106 105  91  97  92  84  74  62  51  50  33  38  42  20  22  14   9   8  10  14  23  30  22  25  38  50  29  31  29  35
  68  71  59  60  66  58  40  36  36  27  13   9  12   9  11  14  21  33  45  67  97 118 120 133 138 141 145 139 137 127 125 118 126 149 164 168 149  66  38  70  76  83  84  64  66  67  50  53  57  51  67  88 101 119 120 104  91  99 106 108 105 102 100  95  88  80  82  69  56  60  48  46  38  28  55  30  21  12  11   9  13  21  21  38  23  26  31  39  43  52  27  29
  72  67  56  63  77  68  38  35  37  30  17  13  14  10  11  16  19  37  40  65  91 119 123 124 126 136 136 128 119 121 122 125 148 167 174 170 148 101  91  91  94  94  75  52  50  51  48  49  50  69 100 104 110 118 123 116 106  98 100  95  94  92  94  94  91  78  70  66  54  55  47  46  39  23  51  48  21  10   9   8  14  21  14  42  25  29  24  31  45  58  32  27
  72  59  54  46  62  60  42  35  34  29  23  15  13   9  11  14  21  31  39  62  86 114 119 130 130 137 127 118 118 119 129 148 164 171 169 161 120  89  67  65  76  76  58  42  37  39  37  40  42  61  84  85 101 119 122 120 119 112 109 106  95  90  90  93  90  87  80  61  56  55  49  43  39  24  36  78  27  15  10  10  15  18  19  37  30  32  25  25  39  45  31  32
 124  51  53  33  49  53  44  34  31  27  29  17  12   9  13  13  21  32  45  51  80 104 113 123 124 132 128 126 127 133 153 159 155 153 152 122  88  52  42  53  58  49  40  29  33  35  35  41  48  54  49  60  84 100 113 109 101 101 103 110 109  96  89  89  93  86  87  69  59  60  50  36  39  28  20  87  58  11  12  11  12  16  17  38  31  33  24  24  33  41  35  33
  99  55  60  34  46  62  43  30  31  23  27  19  14  13  16  14  20  34  41  52  68 100 118 122 133 135 130 129 133 155 145 131 133 140 128  87  56  56  53  54  52  55  42  22  27  41  52  56  45  50  47  37  49  65  78  84  78  85  84  89 107 101  90  86  87  87 100  84  67  66  47  34  35  23  13  66  93  14  11  10  14  14  16  39  29  28  30  17  28  35  45  49
  66  66  86  53  50  74  47  27  35  24  28  20  18  16  12  13  24  27  33  47  70  93 111 125 134 137 134 128 147 133  96 100 110 106  78  61  60  61  54  52  56  62  37  22  35  57  79  68  56  53  64  51  41  47  55  55  56  63  69  75  89  98  93  90  88  94  90  75  74  61  46  35  27  25  15  42 109  22   7  16  15  14  21  36  32  22  33  26  11  28  43  53
  56 103 116  64  47  86  47  26  34  26  32  26  18  19  11  12  25  25  33  46  65  81 102 119 138 142 135 137 120  91  78  83  87  70  57  63  72  63  59  60  67  63  40  26  54  75  92  85  76  61  63  60  54  61  49  50  46  50  54  63  73  94 102  91  96  76  75  77  77  62  47  37  26  22  19  27 107  44   7  13  14  19  25  33  29  26  29  31  22  19  22  27
  63 157 131  87  37 104  54  30  34  25  38  30  17  22  14  11  21  26  30  39  59  82  91 115 129 136 125 104  92  80  75  84  74  65  73  71  65  61  64  57  64  58  44  50  73  87  80  75  79  74  68  67  58  62  61  52  47  48  57  54  55  81  95  92  75  78  77  75  79  73  47  36  28  22  22  15  95  57   9  16  18  21  23  31  29  23  31  27  31  32  24  41
 156 186 151 111  32  86  51  35  34  23  43  35  19  21  20  14  18  21  26  30  67  74  84 111 110 121 106  98  86  73  85  89  75  72  71  61  56  59  43  42  51  43  42  55  55  52  51  57  55  60  48  60  55  46  55  67  48  61  57  61  51  65  90  95  73  65  62  74  77  64  45  37  24  22  22  13  76  73   7  17  17  25  22  30  28  25  24  33  30  34  22  42
 227 176 170 150  42  72  64  32  29  22  41  41  25  18  21  19  20  16  23  27  53  62  80  95 104 108 114  98  79  72  78  92  65  50  48  39  44  37  34  37  37  30  33  40  32  33  41  42  34  36  33  31  33  29  34  63  60  56  73  71  66  67  81  87  69  59  59  70  77  58  41  34  27  21  19   9  63  81  12  16  20  26  25  37  25  23  24  39  36  36  29  29
 235 180 191 181  43  72  70  32  32  26  39  40  34  25  22  18  17  20  20  34  46  60  79  89  94  95  95  80  84  68  85  65  51  35  44  41  49  63  76  89  96  96 110 120 107 109 127 122 107  89  72  53  44  41  38  42  44  42  64  65  79  75  74  69  57  52  55  71  71  47  37  31  26  16  20  12  54  77  16  16  20  28  25  40  17  26  25  30  56  37  42  33
 228 202 198 159  43  71  64  30  31  27  40  40  35  28  21  20  13  18  16  28  48  61  85  81  77  86  77  80  68  75  66  39  36  31  52  67  76  82  85 101 117 139 155 157 147 146 152 139 118  96  84  78  69  63  45  37  34  30  51  61  77  81  73  60  49  51  59  68  58  43  37  27  23  14  20  14  52  77  19  13  23  27  24  34  13  27  39  16  43  67  50  39
 245 207 163 160  71  66  62  27  37  28  40  39  35  31  22  20  15  16  15  28  40  59  90  69  72  79  72  68  63  66  44  23  21  42  61  73  87  93  99 107 121 141 150 147 142 142 132 125 115 100  86  76  66  62  50  44  42  32  39  60  71  70  70  49  46  55  59  61  52  45  34  22  22  13  11  12  59  75  15  10  25  24  25  30  14  16  56  58  79  54  68  55
 236 210 159 186  81  71  55  21  41  33  33  33  29  33  26  25  18  14  17  24  35  59  73  78  76  72  62  57  56  52  34  22  36  65  82  73  83  98  98 102 106 105 100  91  95  85  75  80  80  74  71  69  67  65  68  58  50  44  40  52  65  61  63  45  40  49  49  46  42  38  29  17  19  19  10   9  61  74  13  11  26  24  32  19  20  12  28  88 103  63  65  59
 234 201 151 190  65  74  40  21  41  35  31  25  26  33  39  29  21  15  23  26  40  50  69  82  68  65  57  63  55  45  26  29  48  84 100  89  90 102  94  90  83  74  69  64  57  56  64  62  69  72  72  86  85  79  80  78  54  45  34  49  57  58  56  46  36  39  44  40  32  27  22  17  19  13  14   2  61  75  16  15  31  33  22  11  20  16   7  44  75  85  52  50
 200 162 161 141  75  80  37  23  41  40  33  26  24  30  51  41  21  18  24  22  42  51  75  62  52  57  62  51  39  28  23  32  57  92 108 108 121 126 116 111  97  86  76  58  60  65  71  62  70  86  94  99 103 101  97  90  57  34  31  36  52  60  52  36  28  35  41  31  25  20  19  24  18  15  14   3  50  69  19  19  33  30  11  13  17  24  16  17  49  63  48  36
 166 186 148 106 100  82  34  28  38  50  33  27  24  29  46  58  22  23  24  23  41  55  66  45  53  57  56  48  30  25  27  29  51  82 111 130 144 139 134 128 112 100  81  68  77  73  68  76  79  91 107 106 114 118 101  78  46  28  28  25  40  43  43  36  25  30  34  26  24  20  21  21  16  16  15   6  46  68  21  23  31  22   9  13  14  27  31  28  26  34  41  43
 218 171 130 100  99  54  39  34  36  50  33  29  29  31  38  55  28  23  22  22  32  60  52  50  52  51  49  42  31  26  31  29  46  74 116 143 157 155 156 152 132 110 102 115 111  80  82  93  97 106 118 126 124 116  86  62  42  30  28  27  28  33  39  38  34  27  29  24  20  21  19  18  16  13  15  10  38  71  24  26  32  18   8  10  15  23  32  39  31  30  25  29
 177 152 155 100  75  48  38  42  42  50  32  28  34  34  31  44  39  22  22  28  56  50  48  45  41  47  44  35  28  27  29  29  49  67 106 139 167 171 171 159 134 123 123 141 117 107 112 110 116 122 126 137 118 104  66  56  39  31  39  34  22  35  32  29  38  30  24  25  19  21  15  16  15  16  14  10  26  75  33  27  30  16   8  11  13  24  33  33  32  36  34  23
 165 149 116  58  53  50  49  48  55  45  37  31  35  37  35  40  43  27  25  44  49  34  43  33  34  35  35  29  24  30  34  30  34  55 102 120 140 161 168 151 138 136 131 116 112 133 129 119 104 114 118 125 100  72  51  51  42  27  31  44  31  30  35  23  29  35  24  21  22  17  16  15  15  12  14   7  17  75  40  25  28  15  12  15  21  20  37  43  28  29  37  31
 107  83  69  68  67  66  64  54  52  39  39  38  36  37  35  38  36  30  36  46  39  41  37  32  27  29  32  28  26  30  36  33  39  64  89  91 114 132 138 137 123 121 110 111 116 130 126 100 102  97  92  94  84  63  46  42  37  28  27  37  38  31  34  35  25  37  30  22  21  15  15  14   9  13  13   6  12  63  43  26  27  15  14  19  19  23  24  63  63  29  31  41
 128 116  78  64  98  84  58  63  43  40  32  39  40  32  30  34  37  32  41  42  37  42  30  28  29  33  33  32  29  30  31  33  36  41  60  81  82  97 115 109  94 109 119 102  93 117 116  99  97  83  84  72  64  58  52  36  33  32  28  30  34  36  31  31  25  26  26  24  18  14  13  11  11  17  12  11   6  46  55  22  27  27  17  15  10  19  33  27  64  64  40  34
 208 115 129  62 128  72  55  46  32  40  26  34  41  33  27  28  40  30  39  33  34  32  24  27  29  24  32  33  27  30  27  31  30  40  66  62  73  87  96  93  91  98 101  91  89  89  98  90  86  78  63  63  52  47  45  36  26  22  26  32  29  25  35  31  20  22  25  24  19  11  14  11  21  13  12  11   5  36  69  27  26  29  14  17  17  13  44  34  28  52  71  51
  95 162 139  72 120  63  42  30  34  46  32  29  46  34  27  31  35  29  38  23  30  30  24  29  26  26  28  30  28  29  30  26  26  52  64  56  71  68  83  74  76  74  82  88  87  73  71  63  65  72  59  54  38  36  41  37  24  22  15  25  23  26  25  31  17  30  30  23  19  13  18  21  16  14  12  10  10  28  72  43  20  29  10  19  17  11  29  49  31  29  48  59
  55 166  92 115  83  45  29  31  40  57  42  26  39  35  23  28  31  37  25  26  25  25  31  29  26  21  27  28  33  28  24  22  33  58  41  48  65  61  60  59  67  62  56  75  74  70  72  57  68  56  54  41  34  31  31  41  32  26  18  21  19  19  25  22  13  20  25  19  16  15  20  18  14  19  15  13  13  30  64  69  19  31   9  18  12  12  16  43  35  26  30  41
  56  84  93 149  67  35  30  38  51  39  37  37  21  41  33  25  32  37  18  22  22  27  28  30  28  26  23  36  49  25  24  24  50  47  36  39  43  53  53  60  58  59  42  60  58  60  63  48  61  58  49  34  21  24  27  27  39  28  22  19  19  14  19  19  12  16  20  23  16  13  16  15  22  22  13   8  23  38  43  91  28  36  12  17  15  14  14  28  43  28  33  42
  68  82 104 119  57  33  37  49  53  35  30  27  14  31  37  23  32  26  18  22  27  23  26  42  36  25  28  47  35  27  31  41  48  30  27  29  36  48  59  59  49  43  38  45  38  59  50  39  46  54  39  28  20  18  23  24  31  38  17  14  21  20  20  21  14  12  19  20  14  14  17  24  27  19  11   7  68  58  19  85  58  32  18  16  19  14  18  19  42  38  31  38
  85 102 139  94  44  39  49  48  47  36  27  21  18  25  35  31  28  26  22  22  17  20  30  44  34  22  39  34  29  36  44  43  31  26  30  33  35  44  54  51  50  36  49  47  35  53  40  38  49  43  32  34  24  24  20  30  25  30  28  18  22  25  24  23  22  10  17  20  15  15  26  29  21  13   8  23 133  65  13  53  89  36  22  14  20  16  22  11  18  45  25  28
  89 127 118  58  42  51  36  49  56  30  14  20  23  20  18  42  32  29  24  25  20  20  35  48  28  36  38  25  37  42  46  33  23  26  38  34  40  52  40  55  50  40  48  40  32  51  34  34  45  30  28  38  27  25  23  23  27  24  37  28  16  26  23  25  26  14  15  26  15  21  30  15   8   7   7  79 173  51  20  26  73  59  27  17  26  28  19  15   8  28  40  24
  80 106  67  55  49  46  32  79  50  15  16  19  16  15  16  32  36  27  23  25  23  27  42  47  38  41  37  38  47  49  34  30  33  38  28  34  48  37  46  60  43  34  48  41  40  46  27  39  41  23  27  33  32  20  30  24  25  20  30  34  17  20  23  24  23  16  14  17  17  26  17   8  11   8  44 157 158  42  16  23  35  81  40  18  16  33  14  17  12  19  28  35
 111  66  64  56  58  43  42  49  29  19  18  18  15  12  19  17  34  36  23  31  31  26  41  50  50  35  34  43  48  30  30  40  37  33  27  51  36  39  47  42  38  38  46  42  39  33  26  45  27  24  28  36  29  23  26  22  22  22  30  29  15  17  27  19  19  19  13  11  19  23  13  11  13  10 140 213 138  41  10  21  11  77  53  26  14  28  11  16  25  33  10  20
  72  76  73  67  62  49  41  31  41  24  16  19  35  30  17  21  25  37  35  35  27  33  59  51  38  32  29  45  36  25  45  38  37  33  42  44  36  41  36  42  37  36  36  35  32  20  28  31  20  34  27  36  21  24  23  23  26  24  32  30  18  21  23  20  27  18  12  12  24  24  15  18   4  69 224 209 133  54  10  16  11  43  57  29  20  15  10  17  42  44  24  20
  75  65  64  69  66  62  44  37  55  27  22  20  26  45  29  21  15  41  53  35  21  39  56  43  41  41  44  43  31  35  39  28  40  39  44  39  38  38  43  50  39  33  25  30  28  26  34  26  24  31  31  28  19  26  28  26  29  27  36  32  24  27  26  23  28  13  10  16  28  23  22  15  14 182 233 198 124  68  23  15  21  19  60  26  25  16  14  27  42  35  45  38
  77  71  63  71  68  69  50  52  62  30  25  31  25  27  42  27  14  48  56  29  34  65  50  35  42  48  51  33  21  33  32  34  41  46  43  42  35  39  49  48  34  22  29  25  31  34  29  26  29  34  31  20  23  23  21  26  30  30  35  30  23  31  26  31  22  16  14  22  34  26  12   0  93 244 235 185 112  72  49  23  19  20  57  32  25  16  16  32  38  43  43  41
  79  53  47  63  66  69  65  64  71  48  22  32  23  22  24  40  27  49  39  32  54  77  40  44  48  46  40  31  31  36  38  32  40  42  42  39  37  50  46  42  28  24  24  25  41  28  24  27  35  36  25  20  20  27  23  31  27  28  35  32  24  36  26  20  18  11  13  30  32  19   9  16 189 251 232 167 106  78  59  35  27  25  40  36  21  20  18  29  21  33  43  49
  62  40  52  49  65  74  72  64  67  74  41  18  20  33  24  29  42  47  37  26  59  57  45  49  47  41  34  34  39  40  47  34  46  39  42  31  46  44  44  29  29  29  16  40  43  24  22  32  30  18  18  22  22  27  24  30  28  27  41  38  33  29  18  19  20   9  17  38  27  17   4  91 252 249 223 153 100  80  44  28  44  40  48  38  17  16  28  31  23  24  41  44
  65  61  60  39  43  73  83  66  74  62  54  38  32  39  25  20  37  46  27  31  62  69  58  56  41  41  34  35  31  41  46  53  52  41  30  41  38  47  31  23  33  29  22  45  43  25  31  32  26  15  25  22  22  22  23  33  30  31  34  34  33  29  21  11  14  15  28  37  17  15  14 198 254 245 204 143  94  78  40  16  40  52  60  41  26  27  36  30  27  28  34  44
  99  77  55  61  61  65  65  71  72  59  37  44  41  38  28  22  23  38  19  41  73  76  69  40  35  39  31  28  29  47  45  50  46  34  23  46  46  43  23  19  25  22  36  45  43  32  39  28  24  14  29  25  24  24  25  26  20  33  31  26  27  30  23  17  20  27  39  31  14   0  99 254 251 237 190 133  90  83  27  17  28  59  74  39  13  44  47  30  33  34  22  28
 207  92  41  64  82  85  58  62  78  59  33  34  32  41  35  19  26  32  28  56  69  68  64  38  37  38  34  28  37  47  56  40  41  32  35  45  43  40  22  14  30  21  45  44  42  29  29  29  22  16  28  26  23  30  28  24  25  25  23  24  28  29  26  18  13  21  38  26  16  21 209 255 251 225 178 126  92  79  23  20  24  54  83  45  16  46  50  28  39  36  12  26
 170  63  63  63  56  63  75  66  79  61  44  38  36  28  35  26  26  38  53  67  71  55  45  47  38  40  34  25  41  46  62  47  42  34  39  41  40  37  23  19  26  19  40  46  37  33  28  37  30  23  24  32  26  37  28  30  31  15  16  32  23  23  30  18  14  25  41  22  16  95 250 244 236 205 168 115  86  64  20  33  32  40  89  60  22  41  50  33  38  30  21  23
 115  62  92  79  63  46  49  64  81  58  53  51  75  24  27  34  28  49  54  66 102  66  43  46  37  44  31  21  40  55  60  46  44  33  44  34  41  41  27  27  23  19  29  43  37  34  22  33  36  31  27  35  27  38  32  29  31  18  19  33  26  16  18  20  19  32  38  19  24 212 255 246 229 200 166 106  91  57  32  37  27  22  83  75  34  41  42  37  21  25  31  27
 160  74  95  87  71  49  41  41  76  57  49  54  59  27  23  26  37  61  65  67  87  68  47  41  37  41  32  22  40  52  55  41  46  42  38  29  37  43  32  27  27  22  32  48  50  42  24  28  40  43  30  34  31  33  31  28  35  27  31  29  26  22  18  20  22  31  26   6 128 255 253 250 227 195 158 107 101  61  29  25  29  35  72  85  41  51  37  36  22  30  27  26
 192 106  68  77  71  58  43  39  66  56  49  46  37  31  23  29  36  55  61  81  92  53  42  43  38  36  30  25  40  49  48  46  40  49  34  33  36  39  44  28  28  22  34  41  48  57  30  31  43  39  40  25  33  36  40  38  42  34  27  29  32  26  18  18  16  22  10  53 242 255 253 244 216 182 140 104  85  41  29  35  45  40  62  92  35  49  40  40  35  32  36  34
 168 109  56  65  80  59  41  37  54  57  45  48  33  29  26  42  57  57  84  85 104  78  53  33  40  40  30  23  40  41  43  44  45  64  28  36  40  42  49  27  29  25  29  37  26  45  37  35  41  41  43  30  28  43  45  40  37  23  33  34  26  26  20  17  17  19   5 154 180 202 252 235 203 173 130 103  66  50  44  47  41  33  40  81  43  46  54  41  35  35  31  33
  78  82  79  59  80  49  41  26  47  63  44  41  36  36  33  47  75  78 115 103 119 101  92  35  38  47  32  31  29  36  40  38  47  57  32  42  43  40  43  36  32  28  34  41  23  22  34  37  44  43  38  30  27  36  35  37  25  27  34  32  24  31  26  25  16   3  78 206 140 104 177 239 207 166 116 101  72  45  28  27  34  32  33  75  50  30  73  53  36  38  30  32
  87 128 125  71  78  58  40  33  50  62  46  40  42  41  37  95 143  71 126 117 108 107 108  62  42  38  39  35  29  32  39  49  50  50  35  43  45  35  26  33  43  41  43  36  29  24  31  36  37  40  41  31  29  30  30  41  29  19  32  28  21  34  20  27  13  20 184 174 132 115 115 215 207 146 105 114  82  41  22  27  33  36  36  73  54  25  56  74  37  36  36  34
  68 121 125  68  74  65  46  37  52  59  46  48  57  39  78 176 168  61 108 113  99 114 110  76  57  36  40  42  35  36  33  55  48  42  36  37  50  36  25  26  44  44  40  43  37  29  29  30  39  39  48  38  27  33  35  35  31  21  34  30  20  33  18  23   8  88 216 145 133 120  92 162 200 129 106  97  76  38  20  28  34  42  37  65  64  31  32  66  56  36  40  37
  60  81  80  61  80  56  52  43  48  54  50  49  60  51  89 124 113  68 103 118 111 111 127  99  59  52  41  53  37  43  37  43  45  45  42  42  46  35  33  33  43  41  40  38  40  35  37  35  41  39  48  44  33  34  33  33  29  14  27  45  22  25  19  25   8 161 197 150 143 117  93 146 189 117  94  69  57  31  20  28  39  43  34  49  67  34  37  43  65  52  42  40
