P2
# Generated by OpenCV 4.2.0
92 112
255
 184 187 187 188 189 189 188 188 191 189 190 191 191 192 192 193 196 193 193 190 183 176 181 187 186 184 171 183 166 111  90  29  23  26  32  23  25  27  29  25  25  19  17  27  26  13  22  21  28  23  17  18  12  10  12  13  15  17  16  11  12  11   1  52 130 124 134  94 134 206 198 194 192 194 199 198 194 194 191 191 192 190 190 189 189 187 186 186 187 189 189 187
 187 186 188 188 188 190 190 189 190 191 190 190 191 191 192 193 193 191 192 189 190 178 172 170 169 172 172 159  97  46  26  22  22  23  30  33  28  29  33  32  32  35  32  30  41  23  21  34  23  13  22  20  15  16  23  37  35  18  16  18  17  15  12  15  37  63  48  55 107 137 197 200 194 194 196 198 195 193 192 192 191 191 190 190 188 188 187 186 186 188 189 188
 189 189 189 189 189 190 192 192 189 191 191 191 193 192 189 191 193 191 191 186 168 171 152 144 143 151 129  73  16  14  19  17  17  18  22  26  24  18  17  16  23  29  35  29  29  37  27  37  23  12  28  28  23  34  39  43  38  29  33  34  25  20  28  24  58 113 141  90  30 101 136 196 199 195 194 195 194 192 192 192 193 192 191 188 189 187 188 186 186 188 189 189
 189 189 189 189 189 190 191 191 187 188 191 194 191 191 192 196 189 181 183 180 176 179 157 148  79  66  35   7  14  16  16  12  15  17  15  14  15  19  19  11   7  11  21  27  24  32  27  19  25  16  29  36  36  33  22  17  22  24  25  14  10  13  17  19  21  22  88 152  60  16 120 142 208 194 195 195 195 194 193 193 193 191 190 188 189 189 188 186 188 190 189 190
 189 188 186 187 188 189 190 190 190 187 194 193 188 194 198 183 176 186 183 169 173 159 146  46   4   7  18  12  16  16  12  13  16  19  19  20  19  14  15  14  11  12  15  30  31  31  29  18  20  22  36  47  28  14  14  16  14  20  10  11  19  14  10   9  12  26  38 110  79   6  67 133 173 199 197 196 195 195 194 193 192 190 190 190 188 189 189 188 189 190 189 190
 188 187 186 188 188 189 190 190 188 188 189 192 191 191 184 178 190 185 172 169 181 134  86   9  13  15  26  30  24  34  25  17  28  26  21  18  17  20  15  15  13  17  22  21  32  38  33  20  26  31  31  27  22  23  18   9  13  16  17  18  17  27  27  20  14  16  23  34  50  22  50 166 131 197 194 198 198 194 194 193 192 192 192 191 189 190 191 189 190 191 190 190
 188 188 189 190 188 190 190 190 193 194 192 191 193 182 181 191 179 173 171 192 128  61  32  11  12  18  28  38  38  42  47  36  38  36  28  26  26  21  19  14  13  22  26  18  25  25  34  25  41  49  27  36  23  15  12   9  14  17  24  17  16  25  26  33  23  13  18  28  36  37  89 193 122 185 194 195 199 197 195 195 194 194 194 193 193 192 192 192 193 193 192 192
 188 189 191 191 191 190 189 192 188 190 191 188 183 182 188 169 160 165 196 138  47  39  16  14  21  25  19  19  18  21  36  42  39  56  44  48  35  14  24  17  10  19  25  21  39  29  32  32  37  37  28  28  13  15  16  15  18  17  26  15  10  16  25  23  23  24  24  27  31  41  45 117 123 148 198 193 194 198 198 197 197 195 195 194 194 193 194 195 196 195 194 194
 189 188 191 191 190 190 188 189 188 191 190 191 181 190 182 149 163 195 145  52  30  22  20  28  43  47  39  27  19  17  18  24  25  33  45  51  52  20  31  27  21  21  27  36  22  27  31  39  31  27  24  21  21  30  21  17  19  32  27  11  20  16  10  14  26  24  22  19  20  34  43  54 104 117 170 184 188 196 199 200 197 197 197 197 197 194 195 194 195 196 195 195
 190 189 189 192 193 189 182 178 177 183 182 181 170 167 160 156 142 125  49  24  26  30  40  42  30  27  43  58  55  42  35  30  23  18  24  39  59  42  53  47  46  34  28  50  39  23  27  60  49  29  27  26  42  31  19  22  33  36  29  20  17  13  20  30  29  24  22  22  24  18  25  45  62  69  99 135 157 168 192 200 197 199 198 198 198 197 196 196 196 196 197 199
 188 189 189 191 191 185 180 187 189 192 194 181 143 112 117 127 110  51  41  43  40  40  32  30  28  40  47  49  56  48  45  46  40  44  45  27  44  48  60  75  47  46  59  56  42  34  36  44  53  28  31  39  38  28  36  45  55  41  20  18  25  24  34  33  32  39  43  38  40  27  23  30  41  43  46  46  73 110 143 197 200 196 199 200 198 198 198 197 198 197 196 199
 189 189 189 191 188 187 189 191 194 191 190 157 129 125 111 107  60  42  43  39  37  32  27  28  34  35  29  35  42  41  39  37  39  48  66  50  49  51  50  78  56  40  49  59  54  57  62  44  39  37  40  50  40  45  52  48  57  47  30  31  34  45  33  53  50  45  52  44  33  43  47  33  33  47  41  41  15  31  63 136 202 199 197 199 199 200 199 198 198 198 199 199
 191 191 191 193 190 188 192 186 191 186 159 128 117  98  95  66  55  48  40  41  44  33  27  27  34  30  22  33  42  50  32  23  23  38  51  62  49  52  54  64  64  49  40  38  47  60  73  69  33  47  47  38  47  47  42  35  44  42  55  38  48  50  43  33  39  57  44  27  27  39  52  55  46  38  42  49  50  30  28  68 134 198 203 197 199 200 201 199 199 199 200 199
 192 192 192 192 193 189 193 192 173 158 135 114 105  99  76  54  55  53  52  48  39  34  28  43  38  15  19  39  69  45  33  42  36  38  48  50  43  49  55  52  45  50  50  52  49  42  45  50  55  65  52  46  36  32  33  44  39  47  67  63  42  57  47  15  24  47  31  21  16  23  34  51  54  62  45  28  47  65  40  27  64 141 184 204 198 199 201 200 198 198 198 198
 192 191 193 193 194 198 197 173 140  99  83  91  86  80  54  45  46  48  52  57  56  43  70  94  25  12  24  45  36  27  45  59  47  42  61  56  55  53  60  61  54  55  55  61  82  68  57  46  61  68  56  47  46  43  35  29  26  25  46  39  33  58  32  16  18  37  40  19  18  18  27  37  50  63  71  38  26  55  70  35  29 107 147 183 203 199 201 200 198 197 197 195
 193 195 194 194 193 161 105  65  50  33  53  69  82  70  57  49  35  27  42  51  44  71 132  56  11  20  29  25  21  45  63  55  59  65  66  74  83  81  88  93  90  85  90  86  89 108 107  72  84  73  80  75  66  68  51  34  33  31  32  26  39  36  32  23  23  33  47  17  15  24  26  33  47  48  77  54  25  40  62  47  25  71 124 161 185 196 197 196 196 196 196 194
 193 189 193 199 132  71  86  63  43  74  69  71  58  50  50  42  36  46  66  47  43  89  80  11  17  24  22  15  34  67  72  85 106 117 117  99  97 104 123 134 152 145 137 135 142 124 141 140 121 117 115 124 122 121  84  73  68  53  44  54  50  44  50  43  40  38  39  30  16  17  16  30  35  46  58  67  32  40  69  46  40  50 118 149 157 172 183 183 193 196 195 196
 194 188 187 149 113 123  90  54 120 117 108  75  48  31  24  25  37  49  42  34  47  68  37  26  26  25  25  30  51  75  96 127 135 137 134 125 119 132 153 162 172 179 183 186 195 180 162 178 162 159 159 157 172 161 136 134 117  84  77  88  79  71  64  71  68  47  47  60  42  23  14  31  38  50  45  64  62  44  89  40  47  41  97 147 159 172 179 179 179 189 191 194
 193 195 186 126  99  73  35  58  73  89  87  83  57  46  49  59  50  34  25  44  56  57  46  45  47  44  40  42  69 106 130 139 139 150 155 160 165 171 175 182 184 183 184 187 188 190 192 185 181 173 177 174 174 169 163 168 157 133 112 116 112 106  93  93  91  72  64  53  59  38  17  24  32  47  59  50  55  48  77  41  47  46  89 124 155 159 178 177 179 182 186 187
 195 195 198 127  35  88  35  43  73  81  65  60  61  70  83  85  65  48  50  49  42  32  30  42  65  80  80  73 110 138 147 156 159 168 169 174 179 177 172 176 176 177 183 183 182 182 178 187 185 184 181 179 176 169 170 172 169 161 153 148 137 128 123 118 115 104  88  64  69  64  24  17  27  49  51  47  41  39  52  49  33  29  44  85 136 159 169 167 175 187 197 195
 195 195 200 173 101  33  32  73  93  46  42  47  63  51  34  34  47  44  39  37  34  38  55  79 104 128 129 128 145 152 163 168 170 174 174 170 170 168 175 174 173 176 178 184 187 188 182 188 189 185 184 182 178 176 170 167 166 162 161 162 157 148 142 140 139 125 116  99  76  68  43  21  22  50  49  55  44  29  32  82  49  19  29  43  93 153 174 168 169 179 194 192
 194 194 195 180 131  37  28  94  53  44  45  38  39  39  39  32  27  32  25  32  45  47  81 107 134 141 147 144 151 155 156 164 168 175 173 168 168 174 179 184 184 187 192 194 193 189 189 188 188 185 183 181 178 175 172 172 168 161 158 158 159 154 150 145 143 134 126 117  97  73  53  31  20  35  57  53  51  40  18  81  98  35  27  40  68 109 159 182 184 169 169 193
 192 192 190 188 104  42  32  58  36  37  30  31  37  26  20  26  35  26  20  42  53  71  92 116 143 146 149 150 155 158 157 167 173 174 169 168 176 178 183 187 190 191 193 190 189 187 186 188 188 185 179 179 177 176 172 171 171 166 159 153 157 154 148 142 140 135 127 126 118  95  59  37  28  24  48  42  33  41  32  45 109  70  24  43  64  88 130 167 192 182 177 177
 192 192 186 194 108  45  33  31  33  23  21  26  22  20  25  28  27  19  26  53  69  99 117 133 142 148 148 155 160 160 165 169 168 167 159 170 174 182 181 183 186 191 191 185 181 187 189 190 187 186 184 182 180 179 175 171 169 164 164 155 156 157 153 146 135 134 133 128 123 102  78  54  33  28  38  38  28  33  45  36  72  99  52  35  47  60 117 162 171 179 170 182
 191 191 192 197 114  35  30  22  19  20  15  18  21  35  39  25  20  20  30  54  74  99 119 132 141 144 150 156 158 161 167 166 167 170 168 178 178 179 178 181 188 194 195 192 191 196 195 195 196 196 191 185 182 180 182 179 176 170 161 160 157 155 156 151 144 135 130 127 125 111  88  68  43  40  43  40  25  23  35  49  45  87 108  46  52  29  85 168 177 187 175 169
 189 193 192 198 127  48  14  17  15  19  24  26  35  43  32  19  26  26  32  56  83 102 119 137 143 150 159 159 160 168 166 163 165 168 175 181 184 185 188 190 192 198 194 200 204 202 203 204 206 201 198 196 191 190 186 183 181 179 173 161 153 156 156 153 151 140 129 124 128 119 101  77  56  55  56  42  18  35  51  62  41  53 114  85  66  51  35 149 169 176 191 175
 189 189 191 167 111  46  18  25  27  37  48  37  34  53  56  39  23  21  40  52  68 101 125 134 150 155 161 160 166 170 171 174 175 181 185 186 186 186 193 196 197 202 202 205 208 207 205 202 206 200 197 195 194 193 187 182 182 181 176 173 162 158 154 151 155 144 136 136 127 129 121  89  69  59  62  31  21  26  75  74  61  44  82 119  85  72  46  77 153 163 175 179
 188 192 170 135 115  25  21  21  34  49  45  38  43  58  48  29  17  25  26  41  81 114 124 140 150 157 161 162 166 171 178 182 184 190 188 182 185 188 192 196 198 199 207 207 210 214 214 207 206 205 205 198 197 198 192 183 184 186 180 177 166 161 162 161 160 152 139 140 131 131 130 107  77  57  43  43  30  14  26  41  49  64  53 108  98  79  69  42  92 145 162 170
 192 191 132 179 103  18  26  31  32  27  47  41  29  46  40  21  22  24  27  67 105 121 131 145 150 161 166 168 168 173 177 181 182 183 186 182 183 190 197 198 200 203 210 208 213 216 216 212 214 213 211 199 197 200 198 186 182 184 182 175 168 163 161 161 157 155 146 139 132 129 137 121  82  56  44  36  24  14  15  17  15  66  77  92  97  59  67  39  77 102 128 166
 189 185 150 153  44  20  25  42  42  38  67  38  41  34  27  28  27  22  46  78 101 121 140 149 154 157 164 163 169 176 182 183 181 178 186 181 183 191 194 199 200 202 200 208 209 208 213 210 212 208 205 198 192 192 194 188 177 178 173 167 163 161 162 158 159 159 157 147 134 129 128 124  91  53  29  26  30  41  34  22  11  36  87  67  90  42  53  45  53 101 100 125
 189 178 141  95  20  20  33  34  26  54  58  44  44  19  23  30  30  41  58  84 101 124 145 152 154 163 169 163 176 183 180 175 177 179 181 183 186 186 188 194 198 200 200 205 205 207 210 211 212 212 204 194 192 189 184 180 173 170 161 154 160 157 156 159 162 160 161 151 136 135 122 117  86  50  23  18  37  47  23  25  25  26  45  55  71  44  43  51  40  48  80 135
 182 173 122  62  17  25  31  39  46  57  44  38  26  14  30  32  31  42  59  72  95 130 148 151 158 166 167 169 178 174 172 178 176 178 176 172 180 184 189 192 196 192 197 203 208 207 207 208 212 205 198 197 185 179 178 172 167 162 160 148 150 152 155 153 151 148 158 156 138 134 124 113  91  50  19  23  24  26  24  27  34  35  38  38  53  52  32  53  35  36  29  96
 183 166 108  48  18  27  35  40  41  45  33  23  13  17  36  38  36  34  44  61 103 143 152 151 159 163 164 173 171 166 169 169 169 171 171 173 173 175 180 187 189 188 197 200 202 206 206 205 212 211 206 201 196 185 177 175 172 170 168 160 159 157 159 154 153 146 147 148 142 132 120 113  97  65  20  14  19  33  38  32  55  49  52  37  36  55  36  60  39  40  44  41
 169 164  98  27  20  21  21  28  24  33  37  16  12  15  35  37  33  30  43  77 112 143 151 156 160 164 163 165 168 161 160 165 168 168 172 178 185 185 181 183 185 187 189 194 193 202 207 205 205 203 203 202 200 193 187 181 179 176 170 170 170 162 159 159 150 149 144 143 137 131 123 113 101  70  26  11  16  44  34  26  55  50  56  71  18  39  40  42  59  34  69  60
 173 174  66  15  16  18  21  22  15  27  31   9  14  14  29  38  30  27  45  75 109 141 154 159 158 165 168 168 161 152 154 163 168 177 185 190 195 193 195 194 194 194 192 195 201 200 202 201 204 205 203 200 201 202 200 197 193 188 183 182 178 170 161 151 144 138 138 138 135 128 124 109  96  65  30  11  17  24  18  22  40  32  45  81  25  20  42  46  54  38  44  80
 192 155  38  10  19  16  17  22  12  17  24  12  11  10  23  37  29  23  40  77 117 141 154 158 157 158 171 168 150 144 160 174 180 188 193 197 201 204 203 205 203 206 200 196 199 197 197 203 201 204 200 203 204 204 206 209 204 198 192 187 182 176 170 155 136 134 140 132 128 128 121 110  99  61  32  13  14  21  15  12  46  47  38  61  36  14  27  44  38  35  32  57
 191 146  45   7  15  15  11   5   9  16  24  12  10   9  20  29  25  26  45  82 115 138 154 161 157 158 166 156 147 160 161 170 184 188 198 201 205 210 210 214 214 211 211 206 204 203 203 200 194 201 208 208 215 212 213 212 208 203 197 193 183 172 165 138 141 134 119 132 126 129 125 114 102  62  31  12  17  21  14  15  43  40  26  39  34  25  14  38  45  32  29  60
 186 149  56   4  14  11   6   5   9  16  19  12   9   7  17  27  30  30  44  84 125 143 155 160 157 158 155 133 130 137 135 152 176 190 197 206 214 216 219 216 220 219 219 218 212 208 212 210 211 214 215 217 223 222 217 215 213 204 195 195 178 166 134  98 135 122  74  81 118 123 120 116  96  65  38  16   9  13  16  19  48  36  28  33  28  27  21  21  43  41  37  50
 169 144  75   3  13   9   7   8  15  13  14  10  11   9  14  28  28  29  55  90 120 144 151 156 153 146 123  93 100 115 120 128 157 179 195 209 213 211 216 221 220 221 226 225 220 218 217 222 223 221 225 226 228 222 216 221 206 204 189 171 143 121 100 146 135  95  80  66 100 114 115 118  98  70  43  19   5  16  23  23  45  45  24  26  30  21  23  20  28  43  47  41
 157 148  85   4  14  15  11  15  16  11  14  12   7   7  18  28  22  32  67 100 111 139 148 153 146 134 105  80  85 111  99 103 132 151 170 188 205 216 221 218 218 214 217 221 222 220 223 226 223 220 223 222 224 221 216 221 209 173 135 108  90  68 134 162  99  63  74  68  79 100 112 113  92  81  52  14   6  12  20  27  45  28  24  25  24  20  21  23  24  35  50  51
 145 158 106   8  18  21  12  12  13  11  17  10   4   6  17  22  21  27  72 110 113 136 144 146 132 110  90  68  80  72  72  78  87  98 123 139 171 189 207 213 214 212 214 214 214 220 220 224 219 216 219 216 217 201 183 151 135 111  81  53  40  79 139 112  77  72  71  63  51  60 101 108  87  86  62  20   9  12  11  11  23  12  21  29  27  23  20  19  24  27  45  62
 154 168  99  13  22  45  10  14  11  10  15   9   9   7  15  19  20  21  70 119 117 134 144 132 106  90  77  75  79  61  54  45  44  48  63  83 104 125 152 184 199 203 212 210 206 209 211 216 216 213 211 206 192 173 137  94  72  56  40  36 103 162  90  65  78  82  77  71  59  45  69  98  83  89  73  22  12  12   7  10   7  11  29  22  43  38  23  22  23  23  29  50
 160 155  74  20  28  61  10  12   6  13  15  13  13  16  17  17  19  19  71 122 120 131 143 119  78  65  65  80  79  66  64  60  64  59  47  36  44  53  88 118 142 176 203 204 203 206 209 211 210 207 206 191 173 151 112  83  51  42  56 117 164 105  80  97 116 105  94  88  82  57  48  81  83  92  86  33  12  14   9   7   8   6  38  53  12  60  54  29  17  22  20  25
 149 146  78  32  16  33  14  14  14  21  21  19  12   9  14  16  16  17  68 124 122 130 134  97  64  63  84 112 133 148 161 161 169 154 125  86  56  45  57  71  93 139 169 184 202 206 205 209 208 201 197 189 152 134 102  73  68  87 126 172 161 160 185 192 172 153 147 140  99  58  40  63  91  99  91  51  20  15   9   8   6   5   5  84  27  27  85  74  21  14  21  23
 131 111  79  42  21  20  16  15  23  24  19  16  22  16  11  12  14  17  74 126 129 127 127  92  58  71 107 136 156 176 187 203 212 213 196 163 126  93  87  87 106 126 153 176 188 196 203 203 203 191 187 177 144 125 108  96 105 134 154 164 170 183 187 179 178 175 166 139  97  70  55  62  90 100  95  56  29  10   9   7   6   7   7  25  52  12  57 108  78  31  13  17
 109  88  85  59  54  16  18  19  21  19  10  25  65  47   4  10  14  21  78 127 135 130 121  83  70  99 125 157 178 188 184 174 166 163 148 132 120 100  85  88 108 136 144 160 175 185 195 197 192 186 177 167 135 105  93  93  87  89  73  65  72  73  78  83  96 107 134 139 112  81  66  56  84 101  97  62  41  14  11  14   9  10   8   5  25  33  13  78 104  90  53  24
  67  90  94  61  57  13  20  20  18  12   9  32  52  70   8   8  15  24  74 122 134 134 119  90  93 101 127 163 167 143 124 113 107  92  66  48  40  48  60  65  72  99 128 144 156 171 186 188 187 178 159 141 101  73  76  81  78  90  93  75  50  48  15  26  47  70  79 124 119  85  69  69  86 100  99  62  48  20  10  12  14  13  13  20   5  46  24  21  64  89  92  68
  61  81  77  60  43  20  17  13  14   7   7  25  32  39  18  10  18  33  78 118 139 136 122 113 102 108 150 155 110 100  95  80  63  30  28  33  43  57  81  81  98  81 100 136 156 174 184 194 196 179 161 120  80  95  95  93 144 191 221 209  99  43  29  32  24  30  66 115 102  76  89  89  96  94  98  61  44  25   7  11  18  21  14  12   4  23  84  32  25  44  81  72
  55  59  67  63  44  20  12  13  12   8   6  35  70  54  31  18  23  41  85 122 141 141 129 124 118 120 151 115  54  45  33  69 104  69  58  58  87 120 131  98 121 144 122 146 176 185 202 207 202 184 159 115 127 128 116 150 174 169 165 163 150 131 122  99  75  43  41 104 108 119 113  98 104  94 102  73  42  44  10  10  17  17  20  12   9   1  37  75  26  19  43  73
  47  54  61  58  50  22  11  12  11   7   5  58  73  91  58  29  32  50  94 123 142 146 137 135 151 148 141 103  38  59  73  85 115 121 143 150 138 137 143 161 155 179 171 155 177 189 211 216 206 187 158 134 155 168 180 178 176 173 168 162 171 152 155 145 123  98  80  87 135 162 145 119 114 101 105  86  34  45  23   8  13  14  21  23  12  12   2  26  48  20  20  41
  60  59  50  56  59  24  14  16   9   8  12  37  58 111  83  59  34  58  95 123 145 146 135 146 162 160 138  91  90 126 133 148 168 166 158 157 148 146 142 152 182 197 168 169 174 185 201 205 197 179 157 148 153 168 174 171 156 149 164 165 164 159 151 142 139 134 143 145 153 161 148 134 122 107 106  90  42  41  33  13  17  14  15  47  36  15  21   7  15  29  19  17
 103  56  42  61  76  46  22  16  14  14  18  36  55  75 120  62  37  63 105 124 142 151 143 158 170 177 169 143 138 149 156 163 172 162 146 149 145 129 128 155 175 164 166 169 166 175 184 188 179 167 154 146 144 152 179 188 166 146 132 126 122 119 115 140 156 150 156 164 120 155 154 139 124 114 111  97  63  39  32  16  12  20  11  37  65  29  26  18  15  18  18  20
 148  55  35  63 101  60  29  19  24  21  15  40  73 106 119  49  44  82 114 128 140 153 159 162 171 180 189 185 169 159 162 163 156 150 140 138 143 155 169 178 174 168 176 167 163 176 177 177 172 157 144 139 159 157 162 181 189 168 164 166 164 152 169 179 171 176 169 161 147 154 159 156 127 112 111 101  80  41  32  17  11  17  22  18  50  53  43  23  17  26  18  11
 112  65  35  61 110  60  38  24  16  19   9  52 105 119  88  42  40  83 114 134 144 153 162 165 170 175 176 181 181 179 178 173 161 160 173 186 200 208 200 185 174 169 166 158 172 174 184 185 180 160 141 135 145 162 157 174 190 186 183 193 198 192 200 196 191 187 183 176 168 163 146 142 136 112 110 105  81  46  30  16  16  16  21  29  36  52  49  34  34  27  39  19
  76  83  46  57  90  62  44  17  15  23   8  56 164 165 116  48  39  80 121 141 142 151 161 166 172 173 176 183 186 188 187 191 201 207 206 203 205 206 189 182 176 167 160 158 176 169 182 191 183 172 145 128 133 151 150 165 186 190 190 189 195 189 189 190 189 185 179 173 172 174 158 128 131 115 112 108  78  53  44  15  19  21  24  34  46  48  38  32  55  47  40  29
  56  83  45  63  91  50  34  22  22  32  16  78 195 149 119  58  54  92 128 142 142 156 161 166 173 171 177 180 185 191 195 197 196 196 197 198 201 192 185 182 182 176 162 165 168 161 179 189 182 172 155 124 129 144 154 170 186 187 190 197 199 199 193 192 189 192 188 178 175 172 163 135 133 114 111 112  83  49  44  33  22  18  28  42  68  75  42  23  39  65  34  24
  53  79  40  71  87  43  38  24  20  37  17 110 199 122  92  65  49  87 128 143 145 155 161 172 174 173 178 180 187 191 192 192 196 202 197 189 190 185 192 187 188 184 165 165 161 160 181 195 189 169 155 133 126 137 155 178 190 191 189 195 194 193 197 204 193 185 187 183 183 166 151 143 137 117 105 104  79  50  40  44  36  28  22  37  69  73  55  23  29  37  37  27
  57  70  50  83  76  42  34  27  16  29  10  99 198 111 100  50  59  85 127 142 147 150 161 174 169 175 183 189 187 193 193 196 204 201 197 199 197 200 204 202 202 191 171 160 154 158 177 189 196 180 157 139 127 131 153 188 199 193 196 197 198 195 193 197 203 181 171 179 183 163 153 151 140 112  94 103  68  37  35  38  36  38  39  37  63  80  46  22  28  33  32  26
  72  71  64  86  71  51  37  41  13  21   8  65 175 133  87  61  57  74 114 138 146 148 153 166 169 179 189 194 192 196 194 199 203 208 211 213 211 209 222 218 207 190 169 159 155 165 172 180 189 184 161 143 129 129 146 184 207 205 205 200 201 206 203 201 204 191 178 176 176 168 163 145 130 110  93  96  68  33  22  29  40  44  44  45  44  61  47  20  21  34  33  21
  73  84  72  90  59  51  50  54  15  17  10  44 177 133  48  67  41  64 101 124 141 147 144 163 171 183 190 191 191 191 190 200 206 215 221 220 219 218 225 213 196 181 166 160 156 163 168 180 193 191 169 147 128 128 140 162 202 218 217 212 207 208 211 214 212 196 188 178 176 165 166 150 123 105  94  95  67  32  34  31  46  55  35  22  34  20  33  22  13  38  30  26
  76  80  62  96  79  49  48  59  21  16  27  26 122  96  59  68  45  48  77 112 138 141 153 166 171 178 187 188 188 192 192 206 218 225 223 219 219 220 214 195 181 172 159 158 150 156 166 187 196 193 176 146 131 131 143 141 174 205 216 212 208 211 212 214 215 203 192 179 176 162 146 149 122 100  92  87  42  32  60  72  72  59  21  18  23  19  20  19  20  35  22  26
  95  62  59 100  88  62  34  50  32  22  32  27  69  81  82  67  48  42  66 102 123 143 153 160 153 173 180 181 193 198 203 213 221 218 214 215 216 212 201 189 175 157 156 153 155 157 179 201 205 206 187 154 139 140 143 140 153 182 199 204 206 213 210 212 207 198 191 186 177 159 155 143 115  85  80  76  43  38  90  87  56  48  14  12  13  19  17  14  15  21  24  32
  76  55  85 103  81  54  36  46  54  27  25  28  29  91  99  48  54  43  59  85 106 138 155 146 151 173 180 178 189 200 208 215 218 213 208 209 206 194 184 195 177 153 167 164 159 178 201 216 224 230 210 166 147 154 160 152 146 181 182 193 203 211 206 208 207 199 190 185 182 164 142 141 120  85  72  62  36  37  80  80  51  33  12  11  19  16  11  13  13  17  26  34
  54  50 119 108  72  46  44  48  74  34  22  20  28  91  93  64  70  48  46  61  92 129 151 150 152 167 166 169 179 199 204 209 210 208 205 203 200 180 186 202 167 170 186 180 177 192 209 221 228 230 209 177 156 158 163 158 142 171 179 180 194 199 200 201 200 195 191 186 180 159 130 139 119  79  76  66  30  41  53  44  51  22  10  15  15  13  12  12  13  13  25  28
  54  67 109 104  81  39  36  57  76  42  18  21  21  66 104 108  82  75  52  53  87 124 138 138 149 160 161 180 189 197 201 203 200 198 204 203 195 190 204 195 162 184 180 126 152 182 193 206 205 203 196 174 151 108  70 129 130 174 190 177 179 178 191 195 196 193 184 177 169 162 127 127 105  72  67  44  43  57  69  71  63  14  12  14  12  15  10  12  15  14  19  22
  54  71  81  96  79  34  25  30  71  55  19  22  20  38 113 143 102  76  56  47  76  97 117 133 153 161 166 177 185 197 200 197 198 200 201 199 196 205 212 194 157 168 114  40  46  87 154 188 190 184 189 162  89  72  81  95 120 178 197 186 180 185 190 190 196 188 178 167 151 157 136 126 100  70  63  54  43  36  66  95  46  11  17  11  14  14  11  11  17  17  13  19
  46  64  70 109  70  29  29  12  45  54  26  24  22  17 110 150 128  83  61  49  57  78 101 130 145 139 162 169 178 189 193 192 198 194 194 194 201 209 209 203 148 109 125 160 159 117  92 157 176 165 164  97  91 108 114 138 159 181 192 194 185 183 187 187 188 185 178 167 151 144 139 115  93  68  60  40  38  37  45  33  12  15  18  16  16  13  10  14  16  16   9  32
  48  58  68 129  53  32  31  14  55  45  38  33  23  13  67 154 136  85  59  41  56  68  90 119 115 131 147 166 179 188 182 180 187 191 188 193 206 205 204 202 154 130 127 137 158 177 142 118 119 123 110  69  88 101 125 136 145 174 188 194 192 186 182 181 177 178 175 167 154 144 126 111  80  64  65  42  39  25  24  12  20  17  11  19  16  11  11  15  17  15  10  56
  31  59  72 117  48  31  25  13  59  46  38  46  23  22  23  84 143  84  56  51  49  65  79  84  88 132 156 158 177 185 178 179 178 180 184 192 201 203 204 187 136 101  97  89 100 122 153 135  80  70  84  77  88  85  87  82  87 143 178 192 192 196 189 182 179 171 170 163 150 132 132 100  73  60  42  34  32  20  17  18  15  10  21  19  18  13  13  16  19  12  16  46
  60  54  90 102  43  38  20  17  44  47  30  39  28  22  23  19  54  68  51  40  41  77  67  89 103 136 131 150 176 186 182 182 177 181 197 190 195 193 186 163 103  47  47  39  64  90 122 148 145 135 148 126  82  68  81  67  63 114 141 157 176 176 176 188 184 170 156 146 134 141 133 103  93  55  34  36  17  19  14  11  14  27  26  13  12  12  16  17  14  18  58 110
  79  34  94  88  42  56  30  21  49  58  35  20  26  23  25  22  21  18  27  41  43  68  69  94  97 139 133 160 172 182 182 176 169 183 184 173 164 162 146 123  68  51  37  53  56  85 121 101  98 102 112 147 113  82  56  46  47  62  87 111 131 144 141 143 176 171 150 136 128 136 151 111  91  55  35  30  29  15  13  20  24  20  11  13  16  17  19  16  20  62  75  63
  41  56 108  67  37  59  58  21  46  58  37  18  20  19  21  22  32  25  16  37  44  52  76  93  92 133 131 160 170 179 170 159 147 148 138 129 131 124  96  74  44  34  42  53  45 115  83  41  50  67  64 125 133  88  61  56  50  41  39  58  66 102  96 103 129 163 142 124 134 142 135 104  84  52  36  29  29  16  22  27   8   7   7  13  18  17  20  18  32  41  31  31
  69  92 118  45  36  30  55  24  41  57  37  21  23  26  18  19  20  27  21  23  41  47  65  66 101 131 125 145 172 176 164 145 129 122  79  84  89  69  61  51  43  42  55  43  59  86  53  51  24  71  90 111 130 107  86  73  73  69  41  38  42  60  74  66 101 143 159 129 162 128 106 110  82  56  34  32  42  31  25   6   6   9   7  12  15  17  21  23  29  27   8   7
  66 106 106  38  32  31  54  28  37  60  30  24  25  20  17  18  18  21  22  24  55  40  54  63  97 122 125 137 167 156 135 115  90  62  59  64  59  50  57  48  48  63  66  63  76  66  86  77  68 149 112 127 131 114  97  81  98  86  70  59  72  44  63  43  66 114 149 146 146 114 100 103  80  52  28  28  32  24  19   7   8  11   8  13  19  21  17  23  21  15  15  17
  61 130  91  36  26  37  58  28  55  56  27  27  34  10  22  23  22  19  22  22  63  48  56  71  81 117 127 115 143 131 100  72  50  55  58  68  66  63  63  64  59  79  59  57  76  81  82  73 116 129 105 101 117 106  84  62  67  79  65  62  85  65  43  46  46  84 111 139 132 125  98  96  79  47  36  35  26  26  33   7  14   8  14  22  22  18  17  17  12  16  24  22
  67 123  63  36  19  37  50  34  89  47  22  37  32  13  38  23  28  24  22  25  55  40  56  60  78 103 126 106 119 102  79  55  61  65  74  90  82  73  66  68  72  61  39  51  62  81  79  89 105 106 112  93  93 104  86  59  56  76  50  58  65  91  65  45  38  57  87 118 131 100  90  98  73  36  52  34  18  16  23  10  10  12  20  21  22  17  18  11  11  17  17  23
  92 109  37  29  29  47  37  51 102  41  17  31  28  40  33  25  35  28  24  29  45  40  43  48  78 105 122  91  86  82  80  60  80  80  95  79  69  54  55  58  57  57  56  76 106 132 142 148 156 156 161 168 159 164 164 120  89  70  56  53  48  65  81  73  51  54  81  90  96  80  90  90  56  52  40  27  20  14  20  12  13  16  21  19  21  26  17   9  10  16  13  15
 162  84  29  28  47  52  20  75  78  33  21  27  43  54  26  32  36  34  24  36  46  31  42  54  80  90 122 107  84  89  76  75  85  76  74  76  62  47  67  64  58  77  97 129 174 198 213 208 206 195 193 196 180 168 157 151 137 112  89  61  55  44  71  69  55  59  81  76  71  73  77  81  45  48  29  24  21  10  12  15  15  23  24  15  20  28  23  14  12  17  20  19
 143  59  27  43  51  28  34  86  51  39  19  47  39  21  38  41  31  36  21  34  35  32  37  47  60  80 101 100  91  72  91  94  68  51  59  65  68  52  76  83  87 131 140 159 179 194 207 209 207 204 202 200 196 190 186 185 179 150 100  76  71  44  62  71  83  72  75  65  58  83  80  66  38  38  35  24  16  17  19  15  16  28  17  27  24  17  19  24  17  13  20  27
  81  41  46  55  37  15  76  81  54  33  66  62  32  23  46  47  36  33  23  29  41  46  24  38  59  70 105 107  65  75 106  80  55  49  58  65  73  77  79  95 109 150 176 192 196 198 203 200 197 197 193 184 191 177 179 172 153 139 119 119 105  70  65  75  76  66  72  69  50  91  64  45  41  40  39  28  16  19  24  12  18  26  22  38  21  20  15  25  26  22  16  31
  49  44  49  41  25  31  76  52  69  71  74  31  41  42  47  43  40  35  28  23  48  42  26  33  58  54  92  90  66  72  87  67  52  44  47  68  84 120 101 120 131 152 161 156 152 155 161 155 139 143 135 137 128 118 126 145 153 143 148 155 147 102  68  77  81  86  70  82  61  66  52  39  39  42  28  29  21  28  20  12  38  34  24  39  19  27  19  14  28  36  29  30
  50  46  31  28  26  55  51  74  86  49  29  29  39  47  39  50  46  35  24  36  42  38  53  49  59  57  76  68  86  54  63  52  51  36  60  80 117 144 160 163 175 175 156 132 134 119 116 102  97  86  87 109 107 107 112 139 157 168 171 179 177 110  64  67 102 101  65  50  72  62  50  37  37  31  25  27  31  35   9  20  41  32  29  35  26  31  20  12  18  24  33  31
  40  22  19  23  45  49  60  90  40  24  30  27  36  60  57  75  48  27  31  42  26  30  35  44  46  67  65  60  72  57  59  46  34  40  56  85 115 151 195 187 194 189 179 162 139 123 107  75  84  90  73  89 121 119 123 144 152 183 188 174 144  85  57  51 118 112  66  40  62  61  33  33  33  26  32  35  47  27   4  24  58  37  33  34  37  31  22  16  20  14  23  36
  22  19  23  38  43  38  72  59  29  32  29  33  44  54  69  90  46  21  45  29  21  34  36  28  37  74  55  50  46  48  44  29  24  32  59  69  84 146 184 191 196 194 188 162 137 139 111  87 122 144  95 101 151 134 133 151 163 172 172 123  76  62  64  65 118  95  80  71  46  63  35  31  25  22  38  42  40  12   9  42  92  24  34  43  36  29  25  20  24  20  20  27
  25  15  36  52  31  60  80  45  32  32  34  47  51  46  71  99  34  24  32  17  25  34  36  25  47  69  51  49  40  37  50  31  26  36  53  49  76 132 171 182 198 195 194 175 158 122 101 147 166 160 137 107 143 164 154 183 189 169 140 107  60  56  55  69  96  88  84  66  73  59  45  25  42  32  45  46  16  20  29  84  94  26  40  35  29  25  20  23  31  23  29  26
  12  30  62  28  43  87  75  31  30  30  30  53  55  40  75  80  32  31  28  28  18  26  29  42  57  57  41  30  30  34  46  30  40  35  54  56  75 111 147 173 184 192 190 179 167 125 128 161 158 161 161 106  99 159 156 177 177 145 121  91  70  57  38  72  74  82  68  39  75  50  46  25  29  38  54  50  11  19  51 119  76  42  34  39  34  22  19  30  29  39  35  38
  16  66  36  28  70  97  59  31  32  32  32  64  42  38  81  62  34  26  27  26   8  24  34  34  35  37  22  40  41  38  23  28  47  55  51  56  74  98 150 149 130 173 162 161 150 136 122 144 155 157 171 123  78 123 137 123 135 103  87  63  46  40  33  47  66  67  50  48  46  70  58  41  23  39  56  47  14  14  55 112  53  37  36  55  28  18  20  26  18  38  52  43
  78  44  32  69  75  84  47  33  42  35  41  52  26  39  59  72  34  24  36  17   5  25  36  33  34  34  33  49  46  34  44  32  42  36  34  46  46  77 109  88 115 138 110 136 138 156 111 138 138 117 164 110  93 111 127 107  87  81  58  56  41  38  42  43  55  54  35  39  36  41  38  37  45  40  63  47  17  31  52  91  37  30  37  44  26  19  23  15   9  24  56  52
  48  29  68  78  73  87  39  26  52  39  35  30  27  38  46  81  32  25  31  18  14  24  22  32  36  33  31  42  48  40  39  30  28  31  54  55  40  53  59  74  93  94 108 113 110 172 107 120 118 106 131  86  80 100 113 102  59  70  49  52  29  28  30  40  36  38  42  46  29  26  29  22  42  47  66  38  26  26  56  72  29  37  38  38  33  34  47  45  32  15  27  63
  20  45  73  56  87  65  24  36  46  31  43  39  37  32  40  69  34  29  24  17  10  13  14  36  37  33  28  25  36  37  32  35  26  33  61  43  37  47  54  63  65  76  94  72  85 138 101  84 113  99  98  73  77  88 104  82  56  46  56  37  33  20  36  29  40  39  33  46  46  23  24  37  32  54  63  49  31  29  63  71  45  45  41  39  29  29  52  55  48  36  17  43
  27  60  68  62 112  53  30  54  39  38  52  46  35  27  28  56  50  31  22  17  12  12  22  56  39  43  23  19  33  41  30  24  25  48  43  24  32  37  45  56  67  56  68  56  66 124 110  72  92  85  76  73  66  87  71  77  51  31  46  38  34  21  24  28  28  56  26  34  54  29  22  34  45  58  64  43  53  54  65  50  46  49  56  31  22  24  38  20  17  29  28  31
  33  56  51  89 134  41  39  51  39  44  52  57  38  32  29  45  59  33  23  30  17  14  21 103  50  50  33  21  37  39  30  27  42  46  29  39  31  27  39  42  46  39  61  62  55 112 100  69  97  88  66  75  62  58  50  67  62  22  35  58  35  24  30  29  14  40  34  39  42  66  22  29  47  54  62  89  69  54  65  36  48  75  57  22  24  47  32  19  21  18  17  21
  32  48  48 114 113  34  40  32  32  38  45  81  44  42  27  39  47  45  41  44  18   7  10  95  51  28  39  42  44  36  20  32  48  41  29  36  19  19  35  26  42  63  53  54  55  70  79  65  75  75  58  70  61  46  33  49  68  20  18  46  38  35  42  19  26  43  41  46  39  64  19  35  55  57  89  68  32  48  71  49  62  70  41  22  48  38  27  28  21  19  19  20
  31  41  68 137  98  24  31  27  33  43  49  85  50  54  22  32  30  28  34  43  48  53  30  60  29  17  38  56  54  38  19  30  57  36  28  28  20  21  39  24  26  61  48  52  46  52  53  55  51  66  69  68  78  46  41  45  34  40  30  19  52  58  41  15  28  42  39  29  28  35  25  35  46  51  61  42  43  63  68  41  79  59  35  42  33  23  35  30  24  22  21  21
  23  41  82 132  76  24  32  32  29  42  76  85  63  55  18  21  25  25  31  17  26  36  53  73  39   6  43  39  33  26  20  21  44  23  51  34  26  36  37  35  18  45  62  73  47  41  46  47  36  46  75  68  78  65  70  71  45  56  39  28  55  63  42  15  24  51  44  20  22  17  24  38  31  47  43  33  36  62  80  61  73  28  29  33  12  46  51  28  36  26  25  19
  28  46  79 122  47  26  35  33  33  48  81 131  70  51  23  19  20  21  25  10  12  14  22  36  33  20  44  47  36  33  39  22  29  33  57  38  23  37  54  49  51  52  65  71  52  38  33  44  38  30  63  70  78  68  79  81  60  61  43  39  54  65  39  27  41  60  53  25  20  21  29  29  46  73  59  52  19  73  92  83  39  11  35  41   9  50  97  29  29  36  35  21
  37  56  62 123  55  26  28  35  34  60  73 123  86  48  25  19  27  24  23  13  12  13  14  35  11  10  32  50  36  30  30  31  34  35  29  51  19  43  60  51  68  58  35  64  49  27  24  30  43  29  51  71  59  52  70  72  47  45  36  30  49  43  51  48  45  44  34  31  24  19  34  54  61  80  67  27  31  92  94  81  23  17  33  41  16  29 118  42  29  48  52  32
  43  65  49  84  57  19  28  43  57  47  49  98  93  43  29  33  24  30  30  18  15  14  16  28  16   4  31  54  41  46  36  23  27  29  43  49  17  48  57  60  52  56  34  56  54  34  31  35  61  60  29  41  49  46  68  73  35  34  33  45  31  39  69  35  20  42  27  27  28  32  56  65  65  80  50  47  79 102 111  39  22  35  33  34  58  22  84  73  43  44  45  46
  67  84  44  80  63  31  29  58  58  52  38  89 121  39  38  56  36  42  48  34  13  11  21  25  17  10  27  79  71  46  36  30  31  54  58  52  45  46  49  44  47  63  49  33  56  47  56  41  56  81  31  31  49  49  55  56  38  40  35  71  36  39  41  17  32  39  31  21  34  59  74  68  81  65  90  96  51 106  82   9  29  70  21  22  75  74  61 115  79  41  40  55
  89  92  48 103  64  59  40  60  61  47  23  65 100  45  43  41  57  51  74  36  11   9  19  28  15  11  22  73  85  60  36  42  34  52  54  23  56  49  53  37  39  53  47  34  58  54  59  27  42  42  44  21  43  47  32  34  38  55  40  57  29  27  25  28  26  26  25  31  45  77  83  52  83 114  90  34  37  99  44  16  29  55  27  34  57 102  64 107  76  32  39  61
  86  90  68  92  36  67  74  53  55  42  26  53  80  48  42  31  45  75  80  24  14  14  22  27  18  15  23  79  94  84  27  30  34  59  42  32  37  34  29  37  61  50  41  42  47  52  58  36  46  46  59  34  37  43  36  38  41  50  38  51  22  28  21  29  14  21  35  35  64  93  71  73 134  75  21  47  32 103  31  15  34  50  46  41  33  90 100  86  73  29  47  61
  63  81  58  68  18  55 112  51  55  40  37  56  71  69  36  30  42  78 105  27  18  15  25  21  21  27  29  84  88  88  55  25  35  61  24  48  42  27  33  47  62  68  32  27  24  39  52  33  38  62  56  28  34  34  30  37  45  37  33  58  25  19  19  43  15  35  44  39  81  92  94 130  70  22  28  31  55 100  26  15  33  40  55  60  51  61 119 102  75  43  58  53
  76  73  85  59  27  44 121  73  58  34  42  62  62  83  56  22  45 101 124  41  16  23  28  29  20  24  16  72  96 104  92  30  26  51  33  51  47  18  39  43  60  56  21  27  28  37  66  38  30  64  53  32  56  34  25  28  42  41  31  46  27  22  26  27  29  41  42  51  84 101 128  68  21  29  38  30  69 100  23  23  39  36  34  84  99  71 117 116  70  44  48  38
  47  99 113  65  31  28  77  89  59  44  48  51  72 108  67  20  50 113 114  47  25  25  21  34  26  19   6  50  92  98 107  46  31  58  55  31  40  33  28  28  39  50  20  18  26  25  38  32  42  67  48  33  55  45  32  39  49  31  23  29  30  22  23  21  47  41  46  62  90 101  65  40  44  29  32  30  93 102  31  40  50  34  34  35  83 115 119 136  79  28  45  23
  49 121  94  62  42  36  50  86  55  34  59  54  79 150  54  24  47  96  77  50  30  17  24  27  20  23  13  44  96 111 112  66  31  39  49  29  35  37  22  32  31  39  18  11  13  22  31  25  51  57  33  20  28  55  46  27  33  25  24  28  25  17  23  39  30  34  51  64  84  83  54  50  50  33  35  54  87  94  31  39  52  33  37  43  21  64 120 137  83  28  53  28
  81 101  92  57  40  40  67  85  35  40  56  51  50 124  66  22  54  86  56  56  31  17  23  41  17  22  17  47  95 112 113 100  65  53  28  29  46  50  34  33  30  26  18  16  18  31  43  29  49  44  24  23  35  40  38  22  32  39  43  39  29  19  30  32  24  44  49  51 102  79  66  57  39  44  58  69  80  99  41  46  46  51  47  61  34  19  83 152 100  30  55  35
  76  89  92  61  60  81  95  70  14  38  51  43  39 130  82  20  73  86  43  80  26  24  25  44  18  19  15  36  88 102 116 121  93  74  41  30  49  54  43  38  26  19  22  26  16  49  34  38  34  20  25  18  37  40  38  40  26  44  33  47  30  19  25  28  26  46  53  65 108  79  85  63  43  45  52  77  91  93  50  37  48  44  62  81  30  49  66 155 123  69  31  50
  78  83  97  78  86  93  79  38  14  37  51  43  42 128  78  26  74  81  50  90  34  32  25  41  23  21  15  18  73 102 114 118 119  89  47  37  38  53  56  46  30  22  22  32  42  58  30  36  34  22  29  16  45  32  31  43  23  26  32  43  19  21  32  30  36  79  67  70  99  85  91  77  58  41  56 101  80 100  65  27  35  60 110  80  29  85  94 147 115  85  49  36
  74  86  73  76 106  83  42  28  26  38  59  46  47 117  64  43  79  77  53  89  43  36  22  40  30  15  18  17  54  96 108 125 131 124  68  38  39  55  65  61  37  35  40  36  42  43  33  37  30  42  42  22  40  32  26  45  35  34  29  40  14  24  29  32  73 103  76  82  84 103 118  76  50  38  66  93  58  79  87  47  19  62 125  70  38 102 134 128  88  63  73  42
  75  72  76 100  75  38  38  34  44  53  56  62  96 116  55  62 109  61  55  69  30  37  27  34  32  13  23  22  39  90 108 125 129 128 108  60  46  55  72  70  42  31  44  48  59  38  35  32  44  54  23  43  53  36  35  39  39  44  52  41  17  19  41  46  99 108  80 100  63  94 123  74  38  41  63  66  50  59  92  66  38  44  94  53  45  92 163 119  58  50  56  61
  73  74  83  71  52  29  36  46  59  73  56  86 112  89  67  94 113  47  60  76  33  27  23  31  37  20  21  24  40  80 112 121 125 121 122  79  53  61  69  59  43  48  40  55  55  47  27  40  49  33  28  47  72  58  40  27  34  44  48  38  16  33  43  93 116 102  91 103  94  76  87  62  56  47  54  56  56  57  74  60  70  47  55  69  43  82 168 108  50  31  44  32
  83  87  66  60  41  26  40  56  61  78  97  77  94  70  91 122  73  33  36  71  40  17  19  33  40  25  20  30  53  70 107 118 117 132 123 113  85  55  75  86  54  39  33  50  35  40  35  41  39  39  41  56  51  40  50  37  36  42  33  24  39  47  60 110 111 108  97  96 115 107  89  96  80  55  48  47  51  65  84  56  81 108  48  69  99 102 140 107  48  36  32  31
