P2
# Generated by OpenCV 4.2.0
92 112
255
 134 134 136 135 138 136 136 138 139 139 137 138 138 137 139 138 139 139 141 142 141 142 141 142 143 144 141 135 133 124 125 135 132  85  41  34  30  28  35  30  28  22  14   9   9   7  15  18  18  14  34  53  34  20  13  11  11  11  12  14  14  13  34  96 146 146 137 141 140 143 141 141 141 141 141 140 140 142 141 140 141 141 140 140 139 139 140 139 138 140 137 135
 135 135 136 136 136 135 138 139 138 138 139 139 137 137 138 138 138 140 141 141 140 140 140 136 135 134 129 128 131 129 116  84  49  32  28  26  28  27  25  28  28  27  27  22  14  11  12  17  22  12  11  22  24  14  14  12  10  12  12  11  11  12  12  31  67 130 147 139 138 140 142 142 141 143 140 140 140 141 139 139 140 141 140 139 139 138 139 138 139 136 135 160
 137 137 137 137 137 138 140 139 138 140 139 139 138 138 136 139 139 140 140 140 139 136 131 131 126 129 131 126  99  77  55  28  23  25  26  26  24  22  28  30  25  21  26  31  28  22  15  17  22  17  14  11  12  22  23  20  19  22  14  10  10  10   9   6   3  35 104 144 144 142 143 141 143 143 142 141 143 143 141 139 141 141 140 139 140 139 140 138 135 139 168 205
 139 139 138 138 137 139 141 141 141 141 139 139 139 140 138 137 138 142 142 139 136 135 139 139 127 109  98  83  47  24  23  29  30  28  24  21  15  15  19  25  22  17  12  16  27  34  24  20  20  29  18  16  13  16  27  31  30  24  19  19  15  13  14  12  11   7  15  69 138 147 144 142 143 143 143 143 142 142 143 142 143 144 142 141 142 141 138 137 151 184 211 223
 140 140 138 138 139 139 141 142 142 141 141 139 138 141 140 137 138 141 140 135 138 142 142 134 100  79  65  36  22  23  31  29  23  21  17  14  14  10  12  12  15  17  14  11  14  18  23  24  32  31  22  19  21  17  17  20  15  13  15  13  12  11  13  11  11  11  10   4  49 135 151 143 143 143 142 143 143 143 143 143 143 144 142 142 139 137 145 173 203 219 227 224
 140 140 140 140 140 139 142 143 145 141 139 140 143 144 140 142 142 137 137 139 141 141 134 103  73  61  23  20  31  31  26  18  15  15  17  18  17  19  19  17  14  15  16  16  15  15  18  17  25  21  20  16  29  26  21  12  13  11   9   8   8   9  11   9   9   9  12  12   6  37 123 155 147 144 144 145 145 144 144 144 143 143 141 141 149 171 199 218 226 229 219 198
 140 141 141 141 140 140 142 144 143 142 138 143 144 144 143 142 145 134 132 137 141 125  94  61  58  36  30  39  28  16  15  18  15  14  15  14  14  14  18  24  20  12  13  14  13  18  26  28  25  25  17  16  20  25  22  16  18  13  11  10  11  13  13  10  11  13  13  12  14   8  25 110 152 146 144 144 144 141 140 140 142 148 162 183 205 220 229 230 225 210 191 172
 141 142 143 143 143 142 142 143 143 143 142 144 145 144 142 142 140 138 138 137 126  96  56  54  44  31  34  29  21  21  18  29  37  25  20  20  15  16  12  18  24  22  13  14  14   9  15  34  31  31  25  15  17  22  20  22  16  18  18  20  16  12  12  14  18  19  18  18  14  16  15  24 119 152 147 146 150 155 162 173 188 204 218 226 231 232 227 214 197 181 165 153
 141 143 144 143 145 144 143 143 143 143 143 147 145 144 143 140 143 144 145 123 106  84  46  42  29  32  33  32  39  45  29  20  28  33  29  37  34  20  18  18  12  16  22  13  13  13  13  20  38  28  28  25  15  29  38  17  16  27  21  12   9   9  10  12  12  10  13  21  23  18  18   7  72 191 208 206 209 215 220 226 231 233 233 231 223 212 196 182 168 158 152 152
 143 143 143 143 144 144 145 143 143 145 144 146 145 140 142 140 136 138 113  73  80  42  42  37  34  38  30  32  27  25  25  18   9  10  21  25  44  41  39  31  17   8  17  21  11  10  28  24  25  33  22  27  23  20  24  16  30  27  11  13  12   9   8   6   6   6   8  18  23  20  20  13  24 146 221 235 235 234 232 230 228 223 215 204 191 178 167 158 154 155 151 146
 143 143 143 143 144 145 146 145 145 145 144 147 144 139 137 132 132 105  61  86  54  40  46  49  45  33  21  14  12  11  11  10  12  11  10  17  17  38  53  60  39  28  13  21  13  10  14  35  19  28  28  22  26  17  25  26  23  14  20  20  12   9  10  11  12  10  11  13  23  20  16  17   6  48 143 215 221 217 210 202 194 188 178 170 163 158 157 155 153 148 145 145
 145 144 144 144 145 147 146 147 147 147 146 144 141 141 145 137 114  79  77  87  44  60  57  43  37  28  21  15  13  10  12  18  27  31  23  14  20  22  34  50  63  31  24  29  33  11  16  21  24  25  25  19  28  29  42  26  25  26  22  10   9  10  10  11  12  11  10  11  16  22  14  15  13  18  68 118 171 176 173 171 164 160 160 157 157 156 153 148 146 146 146 147
 145 144 144 147 148 147 148 149 148 145 141 136 137 137 140 115  97  68  84  52  43  45  37  29  20  18  14  12  12  19  31  50  42  27  24  24  23  25  28  26  43  44  26  45  56  24  26  25  19  23  22  29  35  28  29  21  29  26  15   9   9   9  11  10  10  10   9   6   8  12  12  14  15   7  23 101 112 150 159 158 159 154 154 154 152 150 147 146 146 146 147 149
 144 144 145 147 147 146 147 148 145 143 142 141 142 141 122 106 100  73  69  37  42  30  29  30  25  23  15  15  21  36  39  43  33  41  46  38  35  34  34  37  27  44  42  37  57  56  44  39  24  29  23  30  48  25  19  24  21  14  11  10   9  10  14  13   8   7   8  10   8   7  11  15  13  10   5  35 107 107 152 155 153 150 147 146 149 151 151 149 148 148 149 148
 145 145 146 146 146 148 147 149 142 141 137 140 141 119  94 108  91  69  42  38  38  30  28  24  26  35  25  27  27  22  23  39  48  42  36  38  40  43  45  52  39  37  50  41  50  67  55  66  28  43  44  26  49  35  24  26  27  16  16  16  13  14  14  11   9  10  11  10  10  10  12  13  16  12  16  17  33  66  91 145 150 149 149 146 150 151 150 150 149 149 148 148
 146 146 146 146 148 147 148 144 137 132 141 137 114  75  76  71  70  70  58  41  27  21  16  18  27  46  49  36  15  13  24  37  27  35  41  33  27  32  34  51  53  35  40  55  39  39  36  58  41  35  53  33  42  41  28  29  31  22  19  19  16  17  15  12  11  12   8   8  12  15  15  12  17  17  13  18  28  38  35  78 151 149 151 151 148 150 150 150 149 149 150 149
 146 146 146 146 147 147 147 141 137 128  94  66  56  66  72  66  58  43  46  46  24  15  17  23  36  54  58  39  24  19  25  20  28  52  48  35  41  37  42  50  51  31  32  47  33  29  23  22  29  40  45  45  33  28  30  33  32  28  18  21  22  31  25  11  10   8  13  20  18  15  13  14  11  11  13  12  19  27  40  32  73 152 148 150 149 148 151 150 150 151 149 149
 146 145 146 147 149 149 146 141 122  63  51  63  81  94  94  74  36  24  16  19  21  20  20  30  38  45  62  56  36  25  24  22  35  41  43  47  47  40  43  57  55  39  36  43  35  31  31  29  21  42  47  61  38  34  49  39  36  25  25  31  37  43  27  10  17  25  32  24  22  24  33  18  14  11  13  16  17  21  24  38  27  93 157 149 150 148 150 151 150 149 148 148
 148 147 147 148 148 148 141 122  77  91 101  97  95  99  97  57  42  30  18  21  17  16  20  19  21  25  37  45  34  28  26  27  44  34  49  51  56  59  66  63  50  55  57  54  47  42  42  41  49  38  30  53  44  59  54  42  29  39  38  41  38  41  21  18  30  43  31  26  32  31  35  26  23  17  13  17  15  15  17  30  43  29  88 148 152 149 150 151 151 150 148 148
 148 150 148 148 148 149 128  55  45  65  70  89  90  86  54  37  37  35  39  24  21  12   9  31  38  41  42  42  42  52  39  42  40  48  66  79 105 120 120 106  89  81  88  92  77  68  65  56  73  74  43  38  39  59  43  36  31  37  36  33  29  34  44  45  28  36  33  17  20  41  28  19  30  35  32  21  17  13  13  11  29  33  35 108 149 152 150 151 150 150 149 149
 149 149 148 147 153 136  77  45  53  63  76  79  83  61  57  51  53  73  57  31  28  18  20  44  43  37  48  62  76  97  59  46  43  75 101 123 139 146 144 134 117 108 109 125 129 105  96  86  84 112  99  63  48  53  42  35  30  30  26  22  25  38  45  56  28  43  23  11  19  34  16  13  15  28  40  39  23  14  13  14  13  25  19  78 133 151 150 151 151 151 150 150
 149 149 148 148 152  85  23  75  83  86  87  84  83  79  74  67  84  80  45  37  19  24  30  41  47  42  58  76  91 124 111  83  89 110 128 141 142 146 147 143 142 134 139 144 152 156 139 127 118 112 130 108  80  76  68  61  42  39  33  23  18  22  23  32  26  21  12  10  13  22  20  10  13  30  41  38  35  15  13  17  14  16  19  27 118 141 152 151 150 152 152 150
 149 149 149 154 126  37  33  80  89  77  96  85  73  74  73  74  77  48  34  18  13  16  17  58  61  70  86 109 125 143 135 118 129 130 142 152 156 163 167 167 167 167 165 168 168 167 168 165 169 149 132 145 123 106 100  96  80  74  51  33  28  24  26  25  20  19  16  12  14  22  16   6  11  21  46  40  39  25  11  10  15  23  23   6  76 129 149 151 150 151 152 150
 149 149 147 156  94  32  59 108  88  91  72  76  74  74  68  76  51  31  17  19  21  14  26  60  69  88 110 129 138 148 126 118 137 136 155 163 169 172 171 170 171 170 169 171 171 171 171 172 176 174 160 155 148 137 134 126 129 117  88  74  60  40  36  32  29  30  29  27  20  17  17   8  10  21  36  46  47  33   9   8  12  22  18  13  33 105 140 152 152 151 151 151
 148 148 150 148  58  57  86  85  77  66  82  76  68  75  62  40  33  12  16  24  27  25  44  65  80 109 130 133 146 139 118 135 145 149 158 164 169 172 173 171 170 169 170 169 167 167 171 172 169 169 169 165 161 152 151 144 143 131 123 120  96  68  64  62  54  45  44  43  32  27  23  12  10  19  36  49  48  30  15  18  11  23  22  15  10  53 131 156 153 152 152 152
 150 150 154 129  37  82  72  68  76 102  85  55  52  47  31  27  19  21  31  25  29  32  54  75  95 121 132 144 149 132 122 152 151 159 162 168 173 173 173 171 172 173 175 175 172 171 171 173 172 170 164 168 165 161 156 150 143 139 139 140 127 108  96  93  83  68  60  61  48  38  22  18  13  16  41  54  53  28  14  22  19  27  27  14   5  36 111 157 152 151 154 154
 151 150 157  97  50  88  62  86 103  98  57  33  30  35  33  18  18  28  41  31  32  44  47  71 102 120 143 150 147 121 139 149 152 163 169 171 171 171 169 170 174 175 179 182 180 179 179 180 177 174 168 170 167 160 159 152 147 144 141 139 134 130 123 114 102  92  86  80  67  54  33  25  18  19  41  46  49  30  14  18  18  24  34  28   6  51  99 136 155 154 154 154
 151 149 153  73  85  76  79 117 121  74  34  32  58  76  45  39  25  37  47  42  44  40  60  94 117 132 143 151 133 133 156 153 161 168 171 170 172 171 165 173 174 178 178 179 182 182 181 178 177 173 171 167 165 160 158 151 148 145 141 140 135 129 128 123 115 107 101  93  79  73  54  41  22  23  48  44  36  26  15  25  27  26  27  34  21  50  90 102 149 150 153 154
 150 150 141  71 113  77 102 129 106  29  11  28  42  69  49  37  33  48  38  34  38  54  83 111 131 135 150 145 128 152 153 159 168 173 171 170 173 174 176 179 179 178 176 178 181 184 181 177 173 172 171 168 166 160 155 153 148 143 142 144 135 126 126 125 119 112 102  99  88  84  66  50  23  21  52  45  35  26  19  21  26  29  30  27  22  57 103  90 147 151 151 153
 150 151 127  81 113  86 117 131  76  21  25  30  29  67  26   9  28  32  15  19  31  67  99 114 129 145 143 122 149 154 158 165 170 175 176 178 177 178 182 183 183 182 180 181 183 187 186 180 177 174 171 169 165 165 159 155 152 145 142 144 139 129 122 125 121 111  99  96  92  91  81  62  36  19  56  44  30  32  28  20  14  20  25  34  31  45  95 102 136 151 153 151
 151 156 112  97 117  97 128 109  36  28  20  26  34  77  55  12  23  30  27  25  43  67  87 110 136 138 125 147 151 155 164 168 172 175 179 181 184 185 185 184 185 184 187 187 189 188 186 186 184 181 177 173 171 168 162 155 152 149 145 142 137 132 125 124 121 116  96  91  94  90  83  66  46  26  46  33  18  32  40  20  13  16  28  31  35  56  73  87 136 141 153 152
 162 152 103 113 122 110 125  80  18  29  27  26  15  51  79  10  27  40  21  26  50  72  96 119 126 132 154 153 152 161 162 166 172 176 177 179 180 183 184 182 184 184 186 188 190 191 191 190 185 179 177 178 175 170 164 156 155 154 147 150 145 130 123 120 123 120 103  93  90  87  83  68  47  34  40  32  21  46  65  21  18  14  23  26  23  55  69  53 130 132 151 150
 143 146  99 125 121 115 112  66  15  22  25  19  15  52  69  15  26  37  25  25  53  91 110 115 143 153 151 154 158 164 165 170 175 176 175 178 177 179 182 181 182 186 188 188 188 190 191 191 192 188 180 179 174 167 164 159 158 153 153 149 149 137 122 118 121 121 107  98  87  82  83  76  60  44  37  24  19  53  94  33  23  12  19  26  23  36  50  54 123 134 150 153
 150 142  87 129 125 119 115  47  18  21  10  11  33  44  50  39  37  41  40  45  65  93 116 142 152 148 152 155 160 163 168 170 171 174 174 174 175 178 179 176 181 184 185 187 188 191 189 190 190 189 183 182 175 170 165 162 163 157 153 153 147 144 132 119 122 116 110 100  92  84  82  79  68  53  36  22  15  56 113  55  29  12  16  29  28  38  41  45  95 142 140 155
 154 134  91 128 122 126 107  38  22  18  10  15  28  11  30  42  27  31  34  42  68 106 138 147 149 152 153 159 165 163 164 165 167 170 174 175 176 177 176 177 178 178 181 185 187 185 187 188 184 184 181 182 179 172 163 164 164 158 151 154 151 146 133 122 126 123 115 104  94  89  84  85  80  51  33  22  11  69 120  81  44  14  19  27  24  30  47  46  58 134 133 149
 153 124  96 125 126 118  82  38  22  10  10  15   9   4  18  29  13  19  21  40  75 112 138 143 146 150 155 161 166 168 163 161 160 162 166 169 170 173 172 174 176 178 178 181 184 184 190 188 185 184 183 182 177 169 161 158 162 161 150 148 147 137 127 124 128 124 117 111  95  85  81  81  77  52  27  17   6  40  99  92  72  18  27  39  40  29  40  51  38  93 135 144
 157 121 101 132 122 100  75  43  17   8  11   7  10   8  18  33  21  17  18  47  98 131 136 140 145 158 159 164 165 164 161 162 164 167 170 170 171 171 172 172 171 174 179 180 177 181 186 190 186 186 187 188 182 171 163 160 158 158 151 146 139 129 127 125 121 119 118 116 105  84  80  75  68  43  26  25  21  19  64  89  96  22  32  35  41  46  38  52  44  57 113 134
 158 114 108 142 115  94  57  33  13   9   8  11  13   5  31  48  16  12  23  48 107 121 130 150 160 161 161 164 162 163 163 164 171 173 176 178 179 179 179 182 179 174 174 174 174 180 183 186 186 183 186 191 182 177 166 159 157 155 151 147 141 131 135 129 121 108 102 103 111  91  73  69  60  34  17  18  27  13  43  83 104  30  35  38  16  33  47  31  47  48  79 114
 140 119 111 123 109  90  47  34  16  14  11  14   7   5  44  43  12  16  26  57 120 133 155 163 165 163 163 160 161 152 136 145 159 165 173 180 184 188 187 189 185 184 178 176 175 175 178 177 181 182 186 192 189 181 175 163 159 154 152 151 152 146 141 134 127 119 106  88  94  95  73  60  52  33  16  12  21  23  34  85 108  52  40  38  18  12  46  36  35  48  67  97
 144 129 100 104 100  85  36  38  22  21  13   6   6  12  60  22  10  22  25  68 141 152 160 167 164 162 160 156 151 127 121 131 149 157 169 183 189 190 191 191 189 189 187 182 181 178 179 178 178 180 184 185 186 183 178 172 163 159 157 152 150 145 141 131 121 116 112  98  78  82  75  57  48  32  18   9  15  12  31  73 102  74  34  32  21  17  35  49  39  34  36  58
 157 137 118 110 109  71  43  44  23  19  12   9   9  40  64   8  12  16  28  91 146 149 157 168 166 159 153 141 129 122 102 116 136 143 159 181 189 191 192 193 193 192 192 188 188 180 177 178 179 182 188 189 188 188 186 182 177 171 164 160 152 147 142 138 129 112  95  98  87  71  72  58  46  32  15  10  11  19  31  61  85  59  29  28  22  27  19  43  43  40  27  28
 153 134 136 113  88  57  52  57  19  18  17  12   7  70  34   8  14  15  49 110 147 151 155 167 165 157 132 115 114  99  95  98  98 107 137 166 182 191 196 194 196 195 195 194 190 188 182 179 181 182 185 186 189 190 189 184 181 181 173 163 155 152 148 143 133 115 103  89  99  78  69  57  43  28  13   8  12  26  61  61  69  42  31  32  20  29  22  34  44  51  64  37
 121 121 141  86  63  65  58  85  29  16  18   6  45  68  12  16  15  22  57 115 149 155 156 163 163 144 112 106  98  97  95  72  72  85 110 139 161 184 191 191 193 194 195 194 193 193 186 182 185 183 186 188 190 190 191 186 184 181 175 166 159 153 145 136 112 108 112  66  70  87  68  57  43  24  11   7   7  37 104  57  58  35  29  39  25  28  27  32  45  44  65  84
 101 129 138  88  92  71  64 108  60  21  11  28  72  27  15  20  21  31  67 123 150 161 156 160 159 124 105 110 117 128 127 100  72  60  63  85 133 154 176 191 191 191 192 188 190 192 186 185 187 190 193 190 192 193 198 192 183 179 176 166 158 150 138 118  78  98  91  47  45  77  64  51  43  23  11   8   3  50 108  46  51  35  29  38  36  38  35  39  37  51  43  88
  97 122 140 111  86  80  62 106  77  19  39  62  21  14  23  22  20  40  99 131 153 162 159 160 145 122 127 138 155 155 158 160 144 104  73  55  68 103 147 172 183 188 187 184 185 186 185 185 188 191 192 192 195 193 195 186 181 179 170 163 148 130 101  72  93  95  47  35  44  62  59  50  45  21  11   7   5  36  72  44  48  33  31  38  35  44  49  55  38  52  34  77
 119 107 140 112  77  89  66  81  72  46  58  18   9  22  32  19  25  77 116 141 159 164 164 161 141 124 147 151 159 168 172 172 174 176 157 113  64  51  83 117 155 175 181 181 183 182 181 183 184 188 187 190 191 188 189 182 178 177 160 132 104  72  48  69 109  58  27  31  32  40  56  49  41  20   8   5   6  20  40  35  45  32  33  40  34  47  54  61  41  42  37  61
 120 109 148 117  95  88  62  59  64  55  23  10  17  22  25  17  46  87 120 150 160 166 167 159 152 145 146 157 166 171 172 168 164 168 176 167 129  76  46  58 102 138 158 172 181 180 177 180 182 187 184 187 186 182 177 164 145 126 106  81  46  29  47  85  73  37  31  33  28  25  44  47  36  18   7   5   6  18  30  25  39  37  29  34  37  46  53  45  38  42  44  57
 132 119 154 137  92  86  60  45  60  51  24  20  15  17  28  30  54  93 132 151 162 168 168 160 158 148 153 166 167 141 123 129 140 150 152 137 121 105  87  65  68  86 121 160 171 175 175 179 180 182 179 179 176 166 153 127  91  62  47  33  25  61  92  68  46  39  40  43  40  30  33  41  35  19   8   7   8   9  22  25  35  40  27  20  34  53  52  39  37  38  46  56
 136 124 142 144 103  97  50  55  56  81  29  16  16  15  42  39  65 115 146 155 163 168 169 163 162 161 162 164 139 125 147 143 129 116 107  99  93  89  76  79  88  96 116 138 153 169 176 177 179 179 171 166 160 142 120  84  58  39  31  37  79 101  75  75  83  79  80  81  60  33  23  38  38  25  14   5   9   9  15  24  25  32  34  19  26  49  58  41  36  33  61  60
 139 136 140 146 105  91  59  58  49  86  40  13  18  21  41  45  73 130 149 159 164 171 161 164 171 174 172 160 124  85  68  63  43  24  14  26  39  71  82  82  74  94 121 128 146 159 166 174 176 172 159 148 140 111  85  64  46  44  52  84 117 111 123 134 127 114 108  94  66  40  23  36  40  31  20   6   5   7  11  20  22  16  32  26  23  28  56  65  39  25  73  77
 144 127 136 155  97  64  90  57  52  61  55  19  17  21  39  44  81 136 154 165 166 172 173 172 176 180 180 156 103  65  71  89  97  67  58  55  97 117  72  85 102  94 103 125 134 147 160 169 168 158 142 130 119  86  64  50  40  48  68  88  95 102  99  88  93 105 107  94  71  47  27  33  41  32  21   8   4   6   8  19  20  20  18  31  28  26  27  52  51  34  51  93
 147 134 107 152 101  38  90  81  59  75  88  23  14  29  30  49 103 145 160 166 167 173 177 178 180 181 188 176 141 143 138 138 139 136 136 130 134 133 117 108 116 141 147 137 150 158 165 168 162 153 130 106  79  51  38  32  43  59  56  62  74  84  93  83  63  64  90  90  67  40  27  32  43  36  28   7   4   5   9  13  16  25  20  28  35  28  20  27  31  39  36  75
 160 120  74 149  97  41  82 105  75  75  92  35  17  25  18  52 113 151 163 166 166 172 177 181 182 184 187 188 176 163 157 156 159 153 154 147 133 126 134 140 154 167 184 168 177 183 185 182 175 160 130  87  47  38  41  69  97 124  64  12   9  20  37  72  96  67  75  81  51  35  34  37  44  37  30   8   5   6  10   9  11  17  29  22  33  37  31  23  23  26  41  48
 143  90  89 152  91  59  80 113 103 102  97  47  20  31  30  56 120 151 164 168 168 175 178 180 183 185 183 185 181 171 161 149 148 146 137 128 130 123 117 119 145 175 184 181 186 191 199 195 182 161 121  74  93  90 101 132 146 163 146  90  67  47  33  23  34  55  87  68  55  47  40  39  43  35  30   9   5   7   8   8  12  11  22  30  24  37  41  28  27  21  39  51
 114  92  92 108 114  84  72  97 124 123 106  63  19  40  35  57 114 151 162 168 169 177 177 180 182 185 185 185 185 181 174 166 151 137 124 119 120 119 126 145 164 174 178 182 187 190 200 196 182 158 112  98 131 134 151 163 163 144 143 142 128 115  88  55  25  31  70  80  93  68  51  47  51  29  31  15   5   6   8   5  28  22  11  23  28  28  45  39  41  25  44  61
  88 111  54  81 101  90  87  90 141 136 115  79  21  46  37  43 107 146 161 170 169 174 178 184 186 185 187 188 188 188 186 180 172 166 166 167 175 176 179 180 182 181 183 183 181 185 190 186 171 149 117 107 118 143 160 153 147 155 155 148 124 118 102  86  55  50  79 113 109  83  67  57  52  35  29  18   7   6   6   6  32  57   6  11  24  26  38  49  54  37  46  57
 114  89  42  66 103  70  81 130 146 148 121  87  30  54  55  42  88 132 155 169 168 170 180 183 183 186 185 188 190 192 192 192 195 193 193 195 194 194 194 189 183 182 185 182 181 185 182 176 161 143 118 112 127 145 166 153 134 129 124 127 120 105 103  94  86  96 101 116 110  91  76  63  60  44  24  15   7   4   7  13  13  57  25   6  16  23  26  46  59  47  42  63
 126  87  52  82  92  38  82 138 151 157 115  73  27  44  63  51  83 118 151 167 167 168 176 179 182 189 190 192 192 192 192 191 190 190 192 198 200 197 191 190 186 184 180 179 185 187 182 170 157 135 110 114 132 134 159 167 152 137 126 112  95  94 117 117 113 117  96 100 113  95  76  67  62  43  23  11   9   6   8  13  15  20  28  14  14  11  22  34  57  73  48  62
 122  90  72  90  74  62  77  90 140 158 103  62  40  44  57  59  73 122 147 162 167 165 172 180 186 191 195 192 194 194 194 195 198 196 194 194 194 190 195 200 195 189 181 181 185 186 190 178 162 136 109 104 130 131 152 168 157 157 161 157 149 154 148 139 135 128 113 112 118 103  72  63  58  41  29  10   8   8   9  14  19  23  22  20  13   8  16  30  52  75  65  64
 111  86  79  77  91  69  70  57 114 149 100  60  49  54  69  63  56 105 134 158 167 170 176 180 189 193 196 196 197 198 198 201 200 196 190 190 194 202 207 203 203 190 181 179 178 181 191 181 166 145 107  98 114 122 145 166 161 159 166 166 163 168 162 160 155 142 131 127 114 102  75  61  59  36  23  13   8   9  10  13  23  23  20  19  13  13  11  31  44  67  82  64
  88  88  86 102  78  64  44  74 111 126 100  65  37  70 102  79  63  89 120 152 166 170 175 181 185 194 197 196 198 197 199 202 202 200 203 205 209 212 205 201 198 186 176 176 174 181 191 179 163 147 106  90 105 121 148 164 165 167 168 165 162 165 162 157 150 144 138 136 113  89  74  61  60  35  15  15  14  12  13  17  27  26  23  18  13  16  14  24  47  62  87  76
 127 109 107  89  65  67  25  83 124 103  88  67  35  72 124  87  64  76 117 149 163 170 167 170 182 190 193 195 196 194 201 203 208 208 207 207 200 197 189 188 186 180 175 175 173 184 192 186 164 142 106  88 103 125 152 166 165 170 173 170 165 164 162 161 153 141 139 134 117  94  71  57  51  31  14  10  14  13  15  29  29  24  23  20  11  12  13  24  42  54  77  86
 130  95  75  68  83  42  33 107 140  92  69  68  30  59 109  67  55  75 117 144 162 167 165 175 182 185 190 195 199 199 204 207 205 204 200 195 187 185 179 179 180 180 179 177 176 182 188 189 171 142 108  90 102 131 155 166 169 174 177 174 170 168 162 159 157 148 140 124 110  93  69  49  43  20  11  11  13  19  18  27  29  33  20  21  12  10  19  24  43  53  66  88
  92  78  73  60  68  33  58 115 133 103  60  75  22  16  54  61  56  71 111 130 155 163 165 174 182 184 184 196 199 200 201 201 199 195 190 187 185 179 171 173 181 180 180 177 180 183 185 187 172 146 113  93 101 132 157 168 176 177 182 179 173 171 167 148 149 148 140 116 114 100  62  45  38  16  10   8  15  26  43  49  36  33  22  20  13  16  37  33  54  53  69  93
  94  72  63  62  43  44  96 118 120 111  65  81  42  28  28  48  44  60 102 125 140 153 161 175 179 175 183 188 197 198 199 198 191 187 187 182 177 172 167 176 178 177 174 174 178 180 185 188 177 151 116  94 100 124 154 171 182 179 183 185 174 172 167 147 143 145 137 126 109  96  61  42  29  17  14   7  17  30  48  59  44  20  26  20  14  23  36  43  67  60  70  97
  56  60  67  65  53  72 115 102 123 100  61  61  27  39  66  79  65  61  97 114 129 153 162 176 177 181 187 188 193 194 195 194 190 186 182 172 163 168 181 177 173 176 173 176 174 181 190 190 181 154 112  95 101 113 148 167 183 185 180 173 178 178 166 156 147 143 131 128 106  81  53  35  16  21  19  16  20  22  27  24  24  19  29  19  18  20  26  59  83  62  71  90
  60  60  62  57  75 104 107 114 131  95  62  55  28   1  20  48  51  78  95 112 122 145 160 161 171 181 184 190 192 190 189 185 185 184 177 166 168 189 188 176 184 186 180 177 183 195 201 199 186 153 110 100 108 108 138 156 175 178 175 175 176 177 168 158 145 140 125 116 102  71  44  27  18  24  20  19  16  17  15  16  14  17  17  21  26  16  30  84  95  83  91  92
  57  57  71  90 106 114 109 129 105  92  57  35  40  24  18  37  36  66  80 105 106 121 134 151 164 174 179 184 190 187 186 186 185 183 173 177 191 193 183 183 194 196 190 187 198 207 210 214 196 158 114 110 118 108 133 147 155 172 178 177 175 174 165 156 146 135 118 107  91  63  38  21  23  19  23  21  13  14  13  13  11  11  15  25  25  13  30 106 105  86 105  99
  82 103 113 111 112 125 117  94  90  87  54  20  29  39  23  30  44  56  78  88 102 123 128 148 167 171 179 183 182 179 181 182 182 177 179 192 201 196 181 181 161  97 127 185 193 199 202 200 186 157 120 117 122 108 124 145 142 162 178 175 174 172 162 153 145 134 115 103  87  55  35  19  21  19  15  19  13  11  11  11  12  11  17  37  33   9  47 135 114  92 113 106
 118 106 109 122 131 104  77  73  71  76  52  10  24  43  35  30  39  54  87  93 108 132 136 155 151 168 180 180 174 171 174 179 179 183 194 200 202 203 184 151 125 107 111 140 171 185 184 180 172 145 113  86  72  92 109 145 137 148 164 169 170 166 160 152 143 129 101  93  78  48  32  18  17   9   7  12  15   9   9  10  12  11  23  40  26   8  80 166 122 100 116 113
  67  91 133 134  89  61  50  53  61  71  28   8  30  52  34  37  43  75  84  97 113 120 139 157 153 169 177 179 177 178 174 177 184 193 202 204 202 202 182 143 133 170 195 177 153 169 172 161 158 126  75  44  45  68 105 150 140 136 147 164 165 162 155 147 134 121  92  81  67  43  33  28  11  11  12  15  10  10   9  10  12  10  38  33  22   5  92 174 130 114 112 122
  87 120 118  70  62  47  38  48  67  43  19  10  24  58  27  49  55  73  74  87 108 112 141 152 161 170 175 177 177 174 178 188 193 196 199 200 199 193 173 153 149 150 172 189 171 156 143 138 124  68  45  51  71  99 132 150 145 136 142 160 164 159 147 135 119 112  93  76  59  46  23  23  12  16  11  10  10  10   9  10  12  14  28  42  19   5  99 168 144 117 105 125
 101 103  65  82  62  48  48  54  48  25  19  12  29  71  35  48  46  65  66  81 102 107 137 148 153 167 179 174 167 165 175 174 177 174 179 183 183 180 141  93  95 103 124 149 169 132  81  77  49  35  39  56 101 128 144 147 145 139 135 147 156 151 141 125 108  98  88  69  49  36  22  14  14  13   9  12  13  11  11  12  17  15  35  42   8  16 123 165 130 114  90 130
  96  73  77  97  64  61  41  35  33   9  16  15  38  65  33  38  47  55  50  83 104 108 128 146 145 168 178 170 167 159 155 140 138 145 153 154 151 141  95  70  49  52  77 100 119 113 105  84  45  37  43  56  58  91 130 144 145 147 136 133 142 143 136 124 107  96  75  53  39  23  19  15  13  11  12  21  12  13  12  19  15  29  60  26   8  20 128 160 114 111  99 136
  75  82  83 101  77  58  22  45  21   8  15  23  39  47  33  39  54  42  71  94  85 105 128 148 140 158 165 153 145 140 116  93  81 106 111 105 100  81  68  53  38  58  58  84  88  74 103 128 113  54  52  56  34  57 106 121 130 133 136 139 141 136 127 115 100  91  67  55  36  20  19  13   9   9  25  20  11  14  17  15  23  59  44  17   9  30 127 152 108 100 107 133
 109  95  95 116  93  62  42  36  15  11  17  34  50  45  37  37  43  37  59  70  87 117 131 144 135 150 150 129 107  90  68  60  56  75  62  66  78  48  47  35  53  54  61  90  49  32  58  93 129  95  60  52  41  45  66  84 110 113 103 123 139 130 119 101  94  98  77  62  35  19  21  10   9  16  22  15  12  14  15  23  59  51  20   9  20  34 118 146 110  95 104 124
 101  87 105 134 102  92  49  26  15   8  24  46  42  37  32  36  40  51  53  55  87 107 125 135 114 130 125  99  77  54  72  70  74  74  63  71  68  55  61  66  54  52  80  63  35  22  57  85 119 116  87  66  59  46  40  42  69  96  78  92 128 122 107  92  96 101  74  50  26  18  20  10  12  15  16  15  14  15  17  47  60  24  12  19  20  39 122 147 104  87 111 129
  76  89 102 139 131  87  47  23  13  15  48  53  29  27  19  27  40  55  51  54  81 107 126 128 110 107  94  92  65  73  96  98  98  89  83  77  91  80  88  80  67  71  75  77  53  61 118 113 127 123 102  84  70  71  54  42  31  64  63  89 109 125  95 103 112  77  62  46  25  19  16   9  10  16  19  19  16  17  39  57  38  13  15  17  17  36 111 147 111  97 119 129
 106  89  83 149 173  67  40  23  11  36  79  37  20  20  31  23  38  45  53  58  83  86 109 127 120  99  93  90  85 108  86  99  98  85  75  81  83  81  73  59  60  70  71  60  57  91 109 103 116 103 100  79  85  86  65  64  52  48  46  54  91 114 104 108  82  68  61  39  17  18  17  14  17  16  15  15  15  43  61  39  17  10  12  15  22  40  96 158 117 113 130 119
  95  82  68 132 192  68  28  20  32  71  39  18  19  25  32  22  35  39  49  57  76  67  93 131 128  96  79 109 113  89  63  79  90  70  69  74  72  85  79  63  71  74  72  72  73  78  84  87  86  78  68  43  55  67  55  53  68  56  45  41  74  93 107 104  75  67  52  28  18  17  14  15  16  14  15  20  35  59  44  19   9  13  11  15  21  66  89 158 128 106 129 113
  84  81  73 100 166  78  27  28  52  41  18  18  20  34  24  17  29  38  37  70  69  60  80 132 112  85  94  97  99  71  53  79  80  78  71  89  88  96  89 106 128 143 158 154 147 152 152 151 136 129 114  79  49  58  47  36  59  73  43  40  57  76  87 100  70  73  44  28  24  16  14  13  13  14  18  29  60  54  30  16  13  14  11  15  20  73  96 126 133 103 132 119
  92  63  70  70 133  68  32  32  35  22  23  19  25  34  22  16  29  35  39  43  54  66  99  97  93  83  74  86  63  52  52  81  84  92  96  92 101 121 133 145 154 173 185 183 177 174 178 175 159 146 134 105  74  58  44  30  29  57  59  44  46  59  65  64  58  65  28  28  22  13  13  16  15  19  23  39  49  48  19  13  17  19  16  17  23  54  94  94 131 101 135 116
  93  72  64  70 114  72  36  33  45  34  24  20  40  34  21  28  18  27  32  38  60  84  88  70  90  78  66  71  38  31  54  83 102 135 126 120 130 133 144 155 165 171 172 171 172 176 172 166 155 140 125 118  99  64  43  47  32  40  61  61  50  53  44  51  56  42  16  23  15  11  13  13  20  21  38  44  57  21  19  11  13  25  20  13  23  27  98  86 117 111 141 118
 105  90  84  62 107  70  37  32  41  39  34  30  55  44  26  27  22  25  35  54  67  70  73  72  64  63  72  46  26  33  56  74 112 157 162 161 161 164 149 138 136 134 135 132 137 134 130 139 136 122 113  99  96  86  82  61  38  47  81  95  49  52  48  55  42  32  19  18  13  14  14  18  17  20  41  48  31  12  23  10  13  39  28  12  28  28  61  98  98 118 132 132
 117 101  93  61  96  68  47  38  26  43  44  26  84  68  24  25  26  29  44  64  63  63  56  44  45  47  56  23  26  34  47  57  99 159 178 182 182 186 176 162 139 119 114 104 106  95 101 113 102 105 107 107 108 118 121  96  62  59  71 100  66  55  55  40  25  23  23  17  17  15  17  21  11  30  47  25  13  15  24  14  21  50  40  27  27  45  47  76  71 104 115 142
 100  98 127  83  86  71  53  45  33  36  48  30  93  95  47  27  35  24  45  55  42  43  41  45  36  48  39  24  35  46  55  61 112 156 179 186 192 190 183 164 144 133 106  82  86  85  84 114 112 109 117 127 132 141 147 124  77  60  83 109  82  52  61  30  19  17  15  12  13  15  25  16  17  40  23  12  14  14  22  25  17  65  81  57  31  46  54  45  57  64 119 127
  75 118 148  86  85  74  65  61  23  46  58  41  76 125  71  35  35  40  56  41  35  31  37  49  38  47  26  32  31  50  54  77 114 155 174 189 196 198 189 168 152 133 101 111 118 100 102 126 111 101 110 140 153 150 148 104  59  65  99 123  80  51  40  27  18  14  15  12  11  27  30  24  24  23   9  14  10  12  21  37  22  40 113  87  48  45  63  44  53  42  91 116
  79 139 134  82  93  80  63  92  19  31  90  69  52 145 119  48  39  44  58  35  31  40  38  43  51  40  29  36  31  40  53  92 115 160 171 177 185 194 187 180 151 118 134 148 141 132 110 126 111 121 123 146 148 118  83  68  76  61 117 124  59  59  29  26  14  16  10  12  22  50  26  23  26  11  10  12  12  14  13  48  41  44  82 112  74  46  61  55  52  37  53 102
 144 128 110  96 103  85  46 102  71  22  46  79  63 120 154  74  45  41  53  45  37  30  24  45  54  34  32  29  33  36  45  62 103 145 139 138 171 174 177 171 145 137 147 149 152 144 109 132 126 141 152 143 127  93  55  54  64  53 135 104  54  59  34  24  11  10   9  21  52  47  22  13  22   8  14  12   8  15  16  27  55  68  62  66 111  58  55  60  55  27  37  53
 144 133  92  93 102  69  54  69 106  51  33  26  40  97 123  78  46  51  45  51  43  30  20  45  32  37  30  29  50  54  48  50  62  70  94 126 143 140 159 159 150 125 141 145 154 151  99 104 123 130 149 127 104  88  69  48  56  83 116  80  51  57  45  28  13  14  14  57  66  25  17  13  12  14  18  10   8  15  21  15  34  96  80  51  70  81  45  50  49  35  37  59
 145 134 117  92  99  73  52  53  72 100  39  33  14  75  96  74  55  55  62  46  60  30  23  41  32  31  28  40  66  55  34  48  57  68  86  87 111 126 137 136 160 115 134 128 135 144  94  77 106  94 107  96  76  62  57  51  58  99  87  65  43  32  41  35  22  14  37  77  32  26  11  12   8  18  23  11  15  19  26  39  44  65  90  86  79  64  51  48  58  52  35  64
 141 142 111 107  69  60  55  67  41  81  74  41  32  62  98  48  55  48  86  55  50  49  43  39  38  19  38  64  45  36  30  37  38  59  67  81 102 110  91 118 146 101 111 112 118 115  77  78  97  89  67  65  53  43  37  40  48  71  64  53  31  24  34  35  28  17  67  42  29  24   9  10  10  16  18  20  18  15  22  40  57  62  72  96  98  73  45  48  59  71  99  88
  77 141 143  96  77  73  69  59  36  25  66  59  51  59  92  59  46  45  64  75  42  52  44  45  28  27  52  41  28  49  52  32  35  45  56  70  56  78  70  98 127  96  96 101  82  88  78  66  80  82  40  59  40  51  43  58  62  39  58  64  19  17  26  41  19  31  43  26  49  16  10  12  10  23  23  20  18  15  17  29  54  52  82  86 115  65  48  41  57  57  83 150
  75  72 148 146  93  98  69  34  37  23  40  65  53  36  57  70  47  46  45  77  50  41  37  28  23  24  41  33  38  39  40  18  39  44  34  51  47  72  58  86 117  81  85  85  69  67  67  71  73  62  33  60  46  36  34  30  53  57  59  36  25  14  21  26  11  29  23  31  32  13  11  14  10  20  22  21  20  26  18  25  56  44  52  94 105  73  51  38  48  59  67  93
  71  64  67 118 141  88  59  38  40  35  31  50  46  29  42  59  41  53  42  66  53  43  42  33  34  17  34  33  49  37  33  24  37  30  27  48  58  49  43  69  89  74  76  74  69  58  53  57  53  58  34  35  32  31  31  13  56  54  34  29  33  20  15  24  21  19  22  30  24  11  11  11  15  21  25  26  24  28  18  26  44  50  51  94 105  81  57  44  51  44  60  82
  77  57  48  56  98 113  60  50  49  36  24  37  34  26  37  49  55  70  79  56  50  40  33  26  23  25  35  32  54  43  28  39  42  29  46  46  70  53  45  47  60  71  64  87  60  65  66  52  40  52  30  26  41  29  31  26  40  36  31  39  28  18  14  17  33  18  27  35  12  16  14  12  17  24  36  33  33  27  14  18  35  43  44  71 112  94  76  49  68  69  28  65
  74  39  45  94  68  81  88  57  66  44  19  31  34  24  33  39  44  83  97  76  48  44  42  33  28  45  37  26  43  36  23  48  50  50  48  47  48  74  48  32  57  59  52  69  57  75  71  59  52  46  57  32  28  26  36  33  30  26  44  35  26  18  15  13  21  19  35  26  11  17  22  16  14  42  76  49  38  29  21  24  31  43  53  56 126 110  93  45  53  65  51  52
  50  29  75 117 101  50  70  99  91  35  14  43  37  26  33  51  30 108 115  91  55  33  45  39  29  44  32  33  57  36  25  70  40  59  46  53  36  41  38  24  51  66  41  44  62  72  74  58  57  44  69  20  19  51  58  26  16  27  45  21  19  21  17  15  11  27  29   9  14  17  15  12  22  45  92  79  50  24  21  32  34  38  58  83 136 148 122  37  46  66  51  57
  36  62 101 116 129  51  66 127  70  15  29  46  44  33  36  52  15  90 148 112  73  32  46  38  33  33  24  46  67  35  31  54  44  43  34  34  30  49  31  25  44  78  40  39  52  54  76  60  45  57  53  17  32  54  42  32  18  28  36  31  16  19  16  15  24  28  13  18  19  14   9  16  33  65  87  94  79  32  19  31  27  47  56  73 124 168 140  51  41  68  53  45
  84  92  93 109 119  65  93 114  64  46  38  51  56  44  44  46  44  84 140 119  70  53  64  34  32  47  37  51  41  36  59  52  56  49  43  34  26  48  37  24  29  64  47  40  44  50  52  42  35  52  42  23  41  31  50  29  24  34  34  24  12  14  20  29  31  17  16  19  16  13  12  39  47 103  69  99 114  66  12  16  16  28  57  72  91 151 143 119  84  48  53  44
  99 105  94 121 104  83 111  71  84  85  38  76  95  67  76  53  63  98 124 106  65  68  68  54  37  46  43  65  33  34  42  46  49  41  36  37  20  35  49  31  28  66  67  47  30  35  32  47  41  35  33  19  35  43  50  31  27  28  19  14  13  14  38  46  22  17  10  17  16  14  12  75  82  96  47  89 122  97  21  12  18  34  42  89  94 137 118 115 138 125  88  54
 115 119  99 118  86  85 119 120 116  55  57  94 122 125  94  68  82 105 115  90  70  80  86  70  50  35  50  48  32  42  34  44  47  31  34  32  26  54  63  48  49  50  57  36  20  27  39  67  42  35  27  36  50  30  34  45  20  19  16  22  16  27  42  19  19  10  11  25  17  14  17  97  79  57  39  51 122  88  45  15  40  46  32  69 109 132 125  64  81 109 139 120
 129 108 106 109  90 121 142 158  82  60 101  68  98 127 107 106  99 111  87  65  75  78 106  74  57  43  48  39  28  47  28  29  72  41  38  26  29  48  55  55  32  31  41  40  21  32  30  46  38  42  16  61  41  30  65  29  12  20  19  19  18  33  19  15  12  11  20  30  19  15  27  99  53  46  57  39  81  69  61  32  52  68  34  46 107 131 149  88  55  52  75 109
 110 109 118 100  99 149 151 117  47  94  76  60  67 100 124 115  89 112  64  53  58  72 122  87  83  43  62  66  49  41  30  40  50  51  55  25  26  32  35  62  51  32  55  53  25  27  19  23  25  42  16  35  12  32  44   8  16  19  13  14  31  27  28  22  18  20  25  38  25  17  33  83  46  56  52  48  56  52  57  37  66  50  32  81 113 128 143 116  49  47  53  54
 112 117 141 103 137 159 131  85  86 118  44  58  51  87 123 118  98  92  60  43  46  55  98 100  92  67  73  61  42  38  26  43  38  33  48  21  35  38  33  56  44  34  84  52  19  25  22  21  22  29  26  27  15  28  18  10  17  12  12  19  33  27  33  20  39  27  46  55  26  27  41  65  47  61  51  91  57  56  51  36  84  36  51 110 115 127 114 136  52  44  51  60
 117 151 137  93 155 148 104  94 134  68  24  53  51  58 116  97  84  69  46  35  44  60  74 121  88  98  78  50  55  64  58  45  54  38  35  18  31  34  30  45  44  43  61  38  30  21  25  33  27  30  31  27  19  19  15  14  11  12  11  36  39  30  61  47  49  28  52  83  51  42  55  60  53  60  47  81  75  77  36  34  90  87  75  68 119 143 101 136  66  60  78  75
 126 150 109  96 158 144 112 102  71  51  36  46  55  61 112  81  67  47  36  50  57  55  73 103 126 118  88  57  73  81  87  68  36  43  34  13  17  29  40  31  54  48  53  38  29  28  22  28  31  27  38  30  17  15  19  18  13   8  27  51  40  40  55  78  44  38  40 105  96  55  86  66  62  61  38  66  99  65  49  33  75 138 107  49 129 165 120 146  77  94  76  60
 120 122  94 107 151 142 108  60  31  71  38  19  31  70  70  58  47  59  73  88  79  54  62  85 114 130  69  53  79 102  88  72  29  32  25  23  26  32  29  28  39  37  50  26  24  37  27  26  19  17  31  21  15  17  14  15  14  14  56  43  33  40  38  55  46  40  35 105 112  70  83  63  66  65  67 104  90  59  70  33  39 103 163 103 131 179 146 147  70  99  83  54
 106 136  97 110 149 120  72  16  51  75  32  17  26  53  41  45  51  51  83 112 109  87  52  87  88 135 106  59  63  99  89  63  28  34  36  20  23  33  38  31  40  26  37  33  24  32  21  30  25  27  26  15  13  17  19  21  17  21  41  49  40  44  74  54  49  40  26  73 102  60  79  61  69  82  95 115  78  71 100  38  36  46 113 174 158 183 162 121  82 104 110 102
 103 151 126 106 148 113  56  29  52  66  38  22  44  40  37  47  43  50  44  65 112 135 102  70  98 118 137  72  71  93  93  69  43  50  42  30  33  57  52  30  32  23  27  19  27  30  30  25  28  24  25  18  13  13  25  35  17  38  41  61  50  62  64  49  78  59  19  52  99  60  53  69  58  94  95 109  85  63 119  52  35  50  44 134 181 169 151 110 108 139 139 117
  95 126 128  94 132 142 103  72  54  55  37  21  33  40  43  33  27  51  43  47  45  88 140 111  74 114 135  97  79  93  97 105  42  55  52  44  48  55  35  44  41  48  28  24  30  29  40  24  23  18  21  16  14  16  32  38  22  44  37  62  69  69  40  57  48  88  47  44  92  79  43  76  52  83  88  92  86  74 136  74  42  40  43  74 164 169 142 109  93 108 142 140
  92 107 124  80  91 152 154 120  81  66  36  25  38  41  46  39  35  61  65  52  57  85  90 128 108  68 122 139 104  94 117 105  64  49  41  50  52  50  41  53  43  44  41  37  39  34  41  40  27  20  21  13  21  30  44  42  25  51  24  58  82  45  34  52  30  29  85  67  78  78  38  83  61 102 107  92  75 108 146  98  64  54  55  88 148 173 137 127  96  64 112 143
