P2
# Generated by OpenCV 4.2.0
92 112
255
 123 126 127 128 129 129 130 131 133 133 136 137 141 142 142 143 145 144 143 142 144 142 141 138 142 142 122  30  86  16  18  22  26  21  12  12  22  33  23  17  16  10   6  15  15   7  12   7   5   8   7   5   4   5   8   8   5   7  11   8   7   7   4   4   9   5   1  16 137 158 145 154 153 152 149 153 150 148 149 147 147 146 144 142 139 140 139 137 135 132 132 130
 125 128 130 132 132 134 133 134 134 137 137 137 139 142 141 143 144 144 143 143 142 139 139 142 143 118  52 120  10  21  26  18  15  16  21  17  16  18  20  15  10   7   9   7  10   9   5   6   7   4  19   5  10   8   8   7  14   5   7  13  12  20   7   8   9   9   4   2  84  91 110 161 163 158 161 163 154 154 153 153 150 148 147 150 151 146 145 142 142 140 138 134
 128 129 129 132 133 135 134 136 136 139 138 142 142 143 142 144 144 144 143 143 139 139 147 148 106  63 105  15  21  23  15  11  13  27  14  19  18  14  12   8   8  12  13  20  22  18  15   8   7   5   8  12   6   6   8   6  14  14   4   8  38  17   8   6   5   3   5   5   3   3   1  24 131 166 167 166 159 159 157 159 157 155 154 153 152 152 150 150 147 144 144 141
 127 130 131 133 136 136 137 140 139 139 142 143 142 143 142 144 143 144 143 143 137 140 132 119  32 108  25  18  19  12  12   8   7   8  15   7  13  12  12   8   9   7   6  11  21  22  16  12   7   6   5   5  11   5   7   4   9  25   9   8  12   7   4   5   6   5   6   7  15  10   3   6  86  31 136 162 166 165 165 162 162 162 159 158 157 156 156 155 152 150 149 146
 131 131 132 134 136 138 139 139 140 140 139 142 141 140 142 142 144 145 148 144 138 141 149  30 105   4   9  22  17  11  13  11   8  14  14  13  18  17  14  10  10  10   9  11  17  16   7   8   7   4   8  16   5   6   6   6   6  41   9   4   4  10   6   4   4   5  11  11  20  14   4   4   5  43  87 194 168 170 172 168 167 165 166 162 162 160 161 161 158 157 154 152
 132 130 133 135 138 137 139 140 141 140 140 141 141 140 144 144 145 145 143 133 150 141  47  25   6  15  21  11   6  10  19  13  23  21  17  10  15  17  14  15   8   8  20  16  15   4  21  21   4   7  13   9  11   7   6   6   3  28  14   9   7  13  13  17   7   5  11  16  17  17   9   7  31   3 125  10 141 183 180 173 169 172 169 167 167 166 165 167 164 162 160 156
 132 132 132 135 137 138 139 140 141 141 143 142 141 138 137 137 140 136 136 136 143  88  29  21  21  13  13  13  11  17  20  19  17  15  21  34  46  21  13  14  19  28  30  16   9   9  21  13  10   7  17  18  13   7   6   6  11  25   5  11   4  28  35  34  24  10   5   4   6  16  20  15   8   6  18  85 158 153 178 176 175 176 175 172 172 171 169 167 167 166 165 161
 133 135 134 135 138 137 141 140 140 144 140 138 140 143 145 142 140 141 146 150  67   7  47  30  17  14  19  22  13  13  12  10  22  20  19  15   5   6   9  19  22  19  13  25  22  13  15  27   6   5  22  22   8   6   7   6   9  19  21  15  22  29  12  27  25  22  29  23  12  12  11  13  24  10   4   6 118  76 191 179 180 182 179 177 175 175 174 174 171 172 169 167
 135 135 137 138 137 140 139 140 144 134 141 141 141 144 143 144 144 151 136  62  13  81  50  14  19  26  20   9   7  15  15  14  13  30  10  18  23  20  15   4  14  15  36  13  21  29  14  19   5   6  31  23  15   5   9   6  10  34   6  44  28   6  15  20  16  21  36  44  27  27  16   7  20  32  24   5   6 144 155 184 188 181 182 181 180 180 179 177 175 177 174 171
 135 137 135 138 138 136 141 140 136 142 141 141 142 141 144 146 145 153  60  55  37  11  18  25  12  10   8  12  27  31  22   8  10  14  24  29  31  26  14   7  21  17  10  15  28  21  30  12  11  13  21  30  26   7   8   6  12  26  11  36  19  10  18  15   4  12   5  25  16  22  29  34  21   7  13   6   2  14 202 175 182 191 186 185 182 185 184 182 181 181 179 177
 135 135 136 137 139 139 141 136 142 141 141 139 142 139 133 133 133  43  56   4  11  16  14   7  15  10  18  34  15  11  17  13  17  21  12  12  11  32  37  10  10  43  49  26  20  40  27  26  17  10   5  16  23  15  15   9   8  13  24   7  14  27  26  35  11  11  12   3   8  14  46  36  20  26  12   5  18  13 101 182 199 181 188 187 185 188 186 187 184 185 183 183
 134 135 137 138 141 140 141 137 143 141 141 142 143 143 145 133  52  76  15  13  10   7  11  11  18  11  18  11   6   6   9   6   7   6   6   7   6   8  17  15  18  23  46  42  46  20  16  42  20  47  14  26  18  39  44  12   7  36  29   6  28  44  30  17  27  32  11  12   7  26  34  33  31  13   8   8   4  17   1 199 173 192 189 188 191 190 190 188 188 187 187 186
 135 136 138 138 141 142 140 135 142 141 141 139 143 144 144  91  74  23  12   7  20  18  14  36   9   5   8  14   9   8   6   6   8  10   6   9   8   9   9   4  15  14   9   4  16  54  49  25  38  28  48  34  38  58  22  33   9  25  22  17  22  26  35  21  16  11   7  12   3   8   7   7  15  24   8   6   6  14  17  48 202 199 197 194 189 193 191 190 192 192 191 190
 135 137 138 141 138 138 136 139 138 141 141 141 138 138 126  74  22   6  12  35  16   9  54  14  13  11   5   8  10  15   8  14  18  11  14  13  14   9   8   6   5  11  13  10   5  38  76  30  21  31  37  35  50  13  23  42   8  13  30  27  12  26  26  37  15  33  15   6   8  12   9   7  13  35  22   5   6   4   5   4 194 184 199 194 196 192 198 194 194 195 194 193
 136 138 140 138 140 138 136 142 139 143 144 144 134 146  38   4   3   6  37  16  15  50  31  24  35  16  11  18  22  29   9  31  17  31  22  35  23  14  11  16  19   9  23  23   8   8  18  55  48  28  53  77  46  19   8  34  16   9  32  18  15  12  17  11   9  10  12  11  15  15  28  33  39  26  21  17   6   4   5   7  22 199 198 200 197 199 192 199 198 198 197 197
 139 139 142 138 140 137 137 144 143 143 142 137 134  38  19   4   8  31  39  16  47  59  37  64  12  30  22  16  84  25  51  25  48  11  43  67  59  39  27  42  42  21  16  53  29  11  11  30  63  29  84  79  39  39   7  12  26  19  36  38  21   9   7  11   5   8   9   6  13  19  16  17  19  38  53  44   8   6   8   7  15 208 202 205 204 200 205 194 198 199 199 199
 137 140 141 139 139 139 138 143 139 133 132 134  55  52  10   5  32  89  12  47  40  30  58  27  27  17  31  22  23  37  43  29  38  61  27  65  54  57  53  44  66  37  18  29  44  21  20  14  70  37  51  67  64  13  14  31  28  19  32  28  17   4   8   9   9   9   7   8  13  23  22  27  29   4   7  18  18   9   8   7   2  28 211 207 205 204 203 202 197 200 201 198
 140 141 141 140 139 141 139 142 138 144 110  45  49  24  16  10  32  27  83  45  73  77  45  34  12  24  31  39  28  37  55  38  55  56  44  53  25  43  83  74  44  24  60  14  22  34  28  16  38  70  46  67  30   4  35  36  31  25  47  21   9  11   7   8   8  16  19   7  11   6   9  11  28  36  27  27  11   9  10  10   9   5 198 205 207 206 205 203 204 201 206 202
 139 141 140 142 141 138 137 143 135 117  55  45  29  14   3  17  60  69  38  71  36  55  33   9  16  26  40  30  15  36  62  62  46  25  53  33  31  34  45  46  19  57  35  67  42  71  14  24  34  38  48  67  38  43  19  36  55  32  51  40  37  13   8  12  18  22  23   6   6  13  16  11  15  11  21  44  28  15   4   7   6   3 172 200 207 207 207 207 207 204 208 206
 141 141 139 138 140 142 136 144 120  85  73  19  12   9  11  66  26  61  55  43  46  37   7  22  20  19  24  34  28  40  50  63  59  48  47  43  23  13  24  24  41  41  46  85  44  21  49  37  33  26  69  52  26  69  18  33  18  49  51  44  24  22  20  32  26  40  16  10   6  36  35  43  42  35  29  26  32  37  25   8   5  11  75 162 215 208 208 210 208 207 207 207
 141 141 140 139 138 139 141 132 119  79  35  16  11   8  14  52  84  63  65  32  37  16  27  22  24  30  33  41  48  26  41  48  63  56  46  42  36  22  40  39  43  26  36  39  34  43  41  72  32  23  58  49  23  41  51  48  34  47  36  19  24  35  47  66  25  27  29  22  52  34  45  29  21  30  46  43  24  11  44   4  10   8  31 172 219 210 210 212 211 208 211 209
 139 141 141 139 139 135 144 141  88  51  21  16  10   9  48  42  57  40  47  45  11  25  13  27  33  27  32  31  26  45  53  68  55  51  48  47  31  28  26  45  45  40  19  42  36  29  52  38  29  41  39  26  39  56  30  39  42  37  37  15  56  43  48  37  61   9  41  47  55  30  24  11  21  14  18  32  41  35  15  44   8   9  26 145 193 218 213 214 209 213 211 212
 139 141 141 144 138 146 154  56  98  16  15   7  15  11  67  40  44  33  29  24  33  29  21  20  25  18  29  35  45  76  88  45  49  66  78  84  67  65  67  39  32  54  43  46  61  57  36  48  45  19  39  50  45  39  43  49  25   9  39  30  65  39  52  29  27  35  45  37  37  29  27  23  13  20   6  18  41  41  21  22  13  35  12 143 167 220 215 214 210 214 215 214
 140 141 141 143 140 147  57 151  38  31  13   7   8  32  79  58  41  42  22  24  15  31  54  53  53  45  37  54  75  92  73  74  37  48  64  76  83  83  95  91  70  80  69  67  72  67  79  73  50  80  69  68  67  46  54  41  39  18  33  35  41  31  33  29  47  26  50  41  44  50  35  29  24  10  21  25  32  41  25  17  19   8  58  55 116 211 217 216 216 215 215 215
 138 139 142 138 141 146 127  64  34  18  18  19  27  20  73  46  29  19  10  21  16  21  42  52  44  49  55  77  86  84  92 126  91  88  97 107 116 127 107  99 132 129 112 112  93 121  73  85  85  64  84  94  89  82  55  77  33  25  33  42  77  59  57  60  60  40  44  54  82  63  47  38  29  17  21  34  49  46  26  14  15   8   9  38  55 188 223 211 217 219 214 218
 138 140 146 143 135  48 119  63  35  18  19  35  39  54  37  27  53  12   9   5  24  34  50  59  75  90  92  95 117 117 113 125 151 157 153 161 160 161 159 157 157 160 164 158 161 145 158 120 123 130 111  75 136 118 119 101 101  92  91  52  99  73  83  77  86  69  91  98 104  52  42  51  45  14  12  22  41  75  50  22   6  11  10  16  38 157 225 209 218 217 218 219
 138 140 138 133  82 150  92  67  36  33  19  18  20  75  16  44  30  16  14  22  24  30  48  55  84  93 114 135 139 133 136 147 156 158 152 168 159 160 162 161 157 164 164 168 167 176 170 172 165 168 122 155 141 163 158 143 142 129 122 104 107 132  97 114  99 115 106  99 102  86  77  79  56  35  12   5   6  10  32  16   8   8  10  21 105  52 130 224 214 221 219 219
 138 141 144 142 107 137  66  68  54  28  22  24  24  71  39  42  22  11   9  25  34  30  38  64 101 107 126 148 150 149 155 156 159 158 160 166 164 157 158 157 159 158 158 163 164 170 168 180 177 175 177 171 167 166 167 154 156 160 140 123 131 134 120 120 122 128 127 121 114 109  80  79  54  39  21  13  13  18  38  50  27  10   8  10 116  57 170 177 216 218 218 221
 142 144 133  48 129 136  67  79  47  40  29  32  52  72  36  59   6  18  28  30  32  44  36  69 105 121 126 132 149 146 153 160 158 164 168 166 164 161 163 172 168 165 166 165 164 168 172 169 169 180 173 176 170 167 158 164 158 156 151 143 140 137 125 120 126 128 130 123 126 121 104  86  48  33  21  16  13  19  29  48  48  19   9  14  29 112 160 186 209 218 220 221
 142 143 134  88 142 114  72  65  75  22  47  35  75  38  89  12  12  30  28  28  38  43  62  91 110 126 143 140 147 146 154 158 156 169 165 163 161 169 167 169 168 174 172 174 178 178 172 177 178 177 179 174 171 170 159 158 158 154 151 145 139 135 136 136 125 126 139 128 131 125 112  81  58  42  28  20  21  22  19  37  44  23  17  10  17 199  19 219 192 211 217 219
 136 137  45 139 135  96  62  50  61  42  24   7  87  32  80  21  23  35  23  33  37  46  71  92 113 139 138 145 150 150 157 159 164 169 167 168 161 166 173 172 168 168 172 176 177 178 179 180 178 179 179 176 175 171 163 161 158 158 151 143 147 148 139 136 131 128 136 130 130 124 115  95  64  59  40  27  16  14  23  34  53  44   3   5  35  51  99 145 220 202 214 223
 136 142 109 128 110  94  60  41  62  42  89  52 109  64  63  15  50  27  25  18  29  45  79 101 129 146 142 142 141 151 157 157 158 169 166 169 169 174 177 172 169 169 177 178 178 176 178 179 181 180 180 174 176 172 166 162 163 159 151 146 143 145 149 146 128 127 126 123 121 118 123 113  82  41  34  41  34  25  17  51  49  45  39  17  61  57  32  94 228 208 212 221
 138  60 151 111  93  60  70  28  55  19  50  66 122  48  16  14  22  29  12  18  31  44  75 112 149 143 147 139 149 152 150 154 171 169 173 171 170 173 179 178 174 176 179 185 182 179 183 187 184 183 180 177 180 172 172 165 160 159 151 150 147 145 152 151 136 133 138 122 120 117 116 107  76  51  38  33  51  30  28  40  40  55  50  23  31  72 168  91 220 187 203 224
 139  94 131  81 125  58  31  30  42  53  22  82  92  42  37  28  33  21  12  14  29  46 103 121 148 153 144 147 156 155 147 159 164 164 164 163 171 169 179 176 183 180 181 178 183 189 191 191 191 189 185 184 183 174 171 165 158 169 152 149 150 147 154 158 139 136 130 115 116 122 116 113  85  69  52  22  47  47  44  41  46  50  40  26  35  84 175  54 137 222 224 214
 105 138 117 114  53  54  35  25  48 104  29  56  59  29  58  39  26  22  14  15  27  49  97 120 143 151 153 150 153 136 159 160 164 168 156 168 166 173 171 181 179 183 184 186 187 188 177 187 192 193 185 188 182 179 176 173 165 169 181 154 137 155 150 153 144 135 136 125 112 117 120 111 103  71  51  62  44  43  61  46  54  27  87  34  29  69 156 132 157 235 201 213
  50 116  90  38  53  41  19  32  48  76  49  85  27  12  65  52  24  23   8  12  29  44 103 117 140 153 146 143 147 153 150 155 155 156 155 165 168 166 177 179 181 184 180 181 188 191 194 196 190 185 175 174 169 174 167 174 171 170 160 163 149 145 155 137 139 140 129 131 114 112 121 123  94  76  49  45  72  44  52  54  43  33  47  70  44  48 100 120 109 204 219 220
  84  68  44  65  36  39  25  31  71  16  68  89  36  14  56  43  22  18   7  17  37  49 104 117 141 142 141 146 132 153 158 162 163 159 161 160 165 167 178 174 181 182 182 187 189 187 193 187 193 185 183 179 173 174 172 170 174 173 169 180 152 141 145 146 142 133 121 119 117 114 116 118 100  62  38  39  31  38  39  49  29  42  36  49  54  76  61 193 155 147 209 221
  56  68  72  40  50  45  19  32 122  38  39  33  15  26  42  35  21   7   5  24  47  62 102 111 141 155 152 154 139 145 141 142 145 156 162 167 168 171 175 178 184 183 185 179 181 186 190 188 196 193 185 174 172 174 177 169 170 168 167 157 150 139 144 147 143 135 133 108 111 117 114 106  99  70  40  31  45  51  21  32  36  34  54  58  46  65  61 211  95 114 231 224
  92  67 100  38  76  34  36  30  72  65  31  58  62  30  33  21  19   7   8  22  61  73 106 102 139 154 156 140 136 146 147 152 165 164 166 164 163 169 178 173 180 184 181 189 189 184 190 190 188 190 182 170 170 179 176 171 156 157 156 152 140 133 132 132 136 131 136 123 106 109 104 101 102  80  30  30  31  27  38  32  54  61  34  47  70  69  66 112 204 119 229 229
  87  92  65  39  75  59  39 114  43  39  19  46  56  32  26  44  13   7  14  23  68  84 105 112 134 151 143 137 143 157 166 167 174 171 166 172 175 173 173 180 183 181 177 185 191 190 183 187 191 193 191 179 174 173 172 172 162 153 153 135 148 133 129 128 131 122 123 120 117 111 101 107  93  69  43  38  43  27  29  37  24  32  65  41  46  58  33  79 208  99 193 233
 101 107  22  57  42  43  36 146  63  27  20  81  62  16  20  72  11  10  10  15  71  91 112 120 138 136 126 139 140 138 157 162 176 177 177 179 177 181 180 183 176 178 177 189 191 194 192 180 192 189 188 185 178 173 174 174 164 164 161 164 158 167 141 141 131 131 120 115 114 115 107  94  96  52  20  25  44  21  22  43  33  22  32  43  57  28  47  55 179 195 127 229
 124  61  37  62  55  46  32  74  84  57  23  66  81  23  31  46  16   8   4  19  66  95 115 119 127 123 136  92  94 128 157 159 180 179 178 185 186 189 184 187 181 180 186 186 180 184 192 189 194 193 195 190 186 181 171 177 167 163 159 164 163 151 146 143 137 128 111 111 119 112 100  93  88  54  20  48  54  24  20  28  44  28  30  35  48  18  26  49 190 198  55 224
  71  40  62  83  55  41  77  51  86  11 101  62  78  23  45  42   3   8  16  27  66  99 107 126 115 112 118 106  85 100 137 152 179 185 184 182 189 192 194 189 185 186 183 185 187 184 189 178 186 184 186 182 181 183 180 179 175 172 166 172 164 168 160 139 124 123 125 106 103 124 111  97  84  42  25  38  40  14  14  42  54  38  34  27  60  35  25  83 189 217  63 228
  50  57  81  56  37  22 114  58   9  15 125  54  37  26  65  57  38  33  14  26  72 105 111 127  92  84  72 100  84  91 100 146 162 189 186 187 189 192 196 190 188 195 192 188 188 187 188 192 190 194 186 189 192 185 190 187 180 176 171 171 171 174 156 124 129 116 107 121  97 113 104 101  80  55  35  51  50   7  13  49  35  48  41  18  39  50  41  49 196 196  74 171
  10 101  91  31  26  31 133  12  43  21  75  67  27  33  57  44   5  30  27  43  77 106 120 116  91  82  89  80  72  76  73 108 139 163 180 201 191 192 191 195 194 190 195 190 193 192 191 193 174 192 191 190 188 189 192 191 188 179 173 170 172 171 136 125 141  96  62  97 111 104 103  94  75  61  30  40  37   8  14  45  34  52  37  21  28  41  45  38 146 179 109 202
  53 102  63  35  45  99  59  33  46  73 104  79  34  15  16  50   4  35  29  42  85  98 109  99  73  71  63  70  58  47  37  43  83 128 173 190 190 188 191 191 195 191 197 197 196 193 194 190 193 198 191 194 194 193 192 192 186 185 182 178 170 133 106 162 118  88  73  82 104  94  99  89  78  66  38  26  23   6   9  31  34  40  28  26  52  41  44  45 121 196 156 226
  89  67  47  29  23  25  52  19 101  75 124  99  35  14   6  41  11  21  31  56  93  91 120  78  79  88 101 125 116 120  60  23  51  55 130 160 186 193 192 193 191 191 198 198 194 197 196 199 199 198 194 195 199 198 194 189 190 184 178 129 104  87 154 120  48  45  49  82  67  92  93  83  77  64  31  18  24   5  20  37  30  43  25  30  17  31  51  54 106 146 181 194
  30  40  26  48  35  11  11  18  90  65 105  90  81  12   9  60  30  21  38  74 100 112 107  76 104 129 135 156 158 145 150 145  69  29  51  90 141 178 191 191 191 182 190 189 192 192 197 198 194 193 189 189 194 199 190 191 172 147 108  98  79 176 133  88  65  67  49  50  64  75  80  83  83  49  35  17  18   3  14  49  33  45  22  22  33  30  68  29  55  72 186 189
  82  40  20  25  56  71  14  38  74  69 112  61 118  11   7  54  21  27  40  88 103 120 105 102  86 120 141 164 162 160 159 163 155 134  32  39  71 126 160 177 195 184 190 187 191 187 192 193 191 195 188 188 189 189 173 152 110  78  31  24 131 152  79  60  75  67  78  63  38  59  92  90  81  43  14  17  16   4  45  41  27  24  10  12  32  23  95  22  49 108 178 191
  87  98  82  44  19 118   2  41  73  67 145  43  65  22   7  26  61  42  56  79 111 121 112 127 110 134 150 144 101 101 105 107  99 101 101  45  34  48  86 134 162 188 184 185 179 185 189 188 187 187 187 178 165 136  84  59  30  32  24 153 110  51  47  58 111  98 110  88  51  31  87  89  76  55   9   6   4   6  60  24  34   7  14  36   8  18  92  80  47  55 184 148
  38  73  61  74  19 151  12  48  95  77 134  54  50  56   5  36  38  48  58  97 103 131 125 157 141 135 142  92 147 107  61  27  22  23  44  79  66  35  40  84 128 161 166 177 179 184 184 183 184 177 164 171 123  77  52  35  41 102 154  92 105 147 154 134 134 142 115  93  84  37  76  97  96  62  22  20   5  18  91  42  61   6  14  77  12  38 124  39  62  70 222 213
  74  51  69  67  28 126  45  59  70  71 112  73  42  44  12  25  40  42  67 103 115 127 151 158 164 145 123  72  18  53  56  28   2  15  22 113  58  86  46  76  97 126 153 167 182 179 181 181 176 168 146 125  91  76  76  82  94 117 140 135 146 151 146 138 151 151 131 110  67  45  85 107  91  89  33  20  11  27  77  40  41  34  18  57  21  28 113  26  45 177 152 228
  93  31  40   3   7  93  20  42  39  81  79  64  52  54  13  39  23  42  88 109 123 128 151 147 166 160  93  19  49  65 146  58  74  75  73 197 179 129  83 100  75  98 122 149 168 176 175 170 164 152 139 114  91  71  54  61  28   8  18  22  68 105  85  71  98 124 125 111  80  54  81 111 101  77  27   2   8  38  57  63  41  33  42  18  21  29  93  25  98 111 121 194
  96  57 101   7  24  41  16  42  40 100  75  71  39  44  23  40  37  47  96 113 126 144 145 156 178 182 152 129 143 152 157 144  76  89 194 165 127  98 174 107 154  93 121 138 159 164 162 161 152 138 112  66  49  91  86 128 186  67  31   2  12   9  58 118  91  91 115  88  71  70  90 119 107  89  47   6  14  42  33  58  38  30  30  33   8  33  68  29  35  43  83 219
  79  30  69  32  69  11  35  28  39  96 116  55  45  68  22  43  27  42 106 125 137 142 161 148 179 183 171 151 145 165 146 132 148 167 143 154 157 148 159 153 148 153 153 165 168 170 171 171 153 127  75 119  88 176 172 200 216  73  70  59  41  64  47  14  57  96 108 112 119 115 123 119 110  99  32  17  30  48  47  53  20  14  62  28  22   7  51  55  17  91 184 214
  38  52  29  70  42  40  44  36  29 118 115  72  54  75  29  26  19  39  95 126 141 145 159 171 162 172 185 172 150 162 169 176 169 154 159 147 139 130 129 151 185 164 169 178 180 186 186 178 152 106 142 153 158 165 149 150 149 143 116  99 102 127  82  67  25  77 110 144 141 131 129 110 112  91  24  36  32  79 130  69  35  22 118  18  24  25  36  23   5  62 185 188
  70  95  29  34  45  35  59  35  42 133  87  78  50  77  49  23  17  37  90 120 144 142 169 175 183 175 178 178 167 152 158 162 149 140 142 132 124 127 148 167 169 154 177 178 191 196 195 182 146 130 153 163 164 153 147 146 137 120 152 121 131 112 116  96 107 119 152 153 153 146 133 119 115  97  29  26  55  95 117  54  39  57  90  33  18  30  71  23  30  17 190  73
  60  19  43  18  81  47  76  40  26  94 101  90  56  82  82  16  43  32  81 120 147 143 180 179 182 181 183 189 186 178 157 142 138 140 144 150 165 173 184 174 164 165 164 170 180 190 183 174 150 148 132 143 182 170 146 125 136 165 175 166 160 143 136 126 146 153 150 150 157 157 132 127 113 108  29  21  40  39  45  58  35  77  89  32  42  51  62  23  14  19  94 146
  59  40  26  21  52  68  55  40  16 129  78  95  61  58  84   6  23  26  57 110 141 141 176 176 175 182 188 191 192 189 192 187 184 182 178 176 179 185 187 170 174 169 169 175 178 182 172 162 155 151 149 147 166 173 155 136 123 118 138 144 147 152 153 158 155 158  96 148 163 156 137 114 101 101  35  22  37 102  63  51  30  65  82  38  34  51  49  22  41  10  37 134
  80   9  47  66  35  44  90  12  29 123  88  91  37  55  66  14  25  15  56 106 143 140 171 170 180 188 189 192 189 190 190 187 187 186 183 185 188 188 184 172 167 163 170 174 176 178 169 161 142 146 144 149 151 176 163 156 151 157 163 162 153 160 165 160 169 166 165 161 157 155 137 110 105  96  57   9  45 130  66  49  56  60  64  50  40  69  59   7  29  35  22  78
  30  40  45  55  63  73  57  10  40  89  84  93  22  61  77  47  15  22  47  99 138 130 165 173 180 189 187 186 189 190 187 187 190 189 186 188 179 183 173 173 168 165 176 175 184 177 175 158 140 139 135 146 148 174 177 167 164 170 181 180 176 170 182 170 168 158 167 160 161 136 126 111  92  71  55  30  20  63  73  61  51  39  38  30  54  72  37  18  36  24  35  47
  36  21  73  63  41  23  29  37  26 104  74  93  34  50  79  51  11  13  35  79 138 154 167 178 182 191 189 184 185 187 187 187 188 189 187 185 183 184 177 175 169 170 172 169 185 188 179 166 138 142 143 147 149 162 175 178 166 170 183 175 177 177 166 178 171 173 172 167 174 106 115 102  97  75  33  56  61  41  77  75  39  84  91  70  64  50  35  50  80  24 136  48
  36  11  42 102  69  40  15  38  33 110  82 108  38  38  64  45   8   9  26  67 125 157 158 179 191 192 191 188 185 184 186 187 184 185 185 188 189 177 180 173 170 171 170 173 182 189 178 166 132 127 143 143 154 156 171 176 180 173 177 177 184 177 177 175 175 169 173 170 169 134 129  97  83  59  35  61  91 103  51  68  19  61  76  40  58  78  36  53  16  23 140  80
  53  43  29  83  62  40   8  26  44 110  95  98  47  44  56  47   8  10  22  55 119 159 150 179 187 188 190 189 188 185 189 189 190 190 189 193 190 176 176 172 171 168 171 178 179 180 174 161 138 122 131 144 152 168 166 172 177 178 174 178 184 174 178 180 180 176 172 165 165 140 127  97  73  49  36  50 115  69  72  77  39  93  62  49  92  83  60  61  44  13 120  86
  65  49  42  71  38  34  23  16  56  95 122  93  62  33  47  64  16  15  22  38 112 156 143 178 179 185 188 190 182 189 188 192 193 191 189 185 187 181 181 175 170 167 166 178 186 185 178 162 140 114 126 134 160 169 168 172 180 178 181 183 180 174 177 178 178 176 170 148 148 140 112  89  70  51  43  79  92  51  76  75  38  71  61  36  39 112 110  52  71  33 121 138
  71  34  77  69  42  63  34  26  63  94 115 101  50  37  47  72  63  13  15  36  87 145 151 166 177 181 186 184 179 188 189 190 191 189 190 187 187 181 177 167 166 166 175 181 179 181 182 169 145 118 125 134 156 170 163 175 180 186 181 174 177 179 162 172 172 175 171 151 145 139 100  81  57  30  50  28  82  48  81  57  37  51  37  37  67  79  27  54  37  67  60 129
  87  49 110  65  55  93  73  41  55  77  89 110  57  44  38  46  80  22  17  12  63 129 155 164 171 171 180 184 183 187 186 189 189 188 188 188 187 176 166 155 164 161 175 173 181 178 181 166 144 121 112 130 154 170 173 180 166 181 184 180 176 180 161 164 167 170 170 157 143 127  98  71  47  31  99  29  86  84  68  69  58  52  88  57  45 128  68  37  81  23  52  79
 105  74  88  76  88 102  70  54  57  52  60  54  70  34  45  28  10  34  10  32  39 100 148 161 170 170 166 179 185 186 191 189 182 185 188 185 183 177 151 156 152 154 173 175 178 182 183 163 145 127 105 123 149 176 177 180 174 180 173 179 177 173 167 165 168 164 169 161 139 118  86  52  49  17  87  64  32  74  59  28  66  60  46  60  61  77  67  47  60  27 125  36
  76  75  52  45 127 106  84  61  44  88  80  57  80  37  55  36   6  48  20  32  40  83 135 164 153 174 174 180 182 185 187 190 187 184 182 183 183 174 152 164 157 161 167 173 186 194 190 171 138 124 119 122 127 172 179 180 172 176 180 177 180 176 163 166 161 162 156 150 130 111  81  71  20  56  38  75  29  70  95  47  75  57  76  41  89  29  49  35  67  40 141  15
  65  69  59  62  99  93  87  71  62 145 142  58  52  38  56  27   9  18  70  32  27  78  91 149 153 162 166 178 182 183 186 182 182 189 186 180 181 171 170 181 178 176 178 186 196 198 199 174 143 127 145 138 118 170 174 174 167 180 175 180 178 166 159 157 161 148 147 137 134  98  74  38  24  47  33  80  44  73  72  39  50  76  68  56 129  40  55  36  67  43 104  29
  88  30  51  66  70 104  82  70  94 103  54  68  64  39  61  23  10   9  57  22  17  50  69 119 148 157 181 158 179 182 182 184 185 183 187 184 184 167 173 158 180 196 197 199 199 200 215 180 145 145 144 144 124 168 170 172 175 181 173 177 175 170 164 161 156 146 145 137 121  87  53  41  26  29  56  98  58  90  42  35  66  61  93  77 132  45  38  43  49  26  69  63
  51  49  57  85  39  99  48  91 133  93  77  57  72  39  87  14  12  21  18  44  39  72  79 109 167 159 159 168 175 177 184 185 185 185 187 184 181 175 156 121  96 168 182 193 196 196 198 178 152 141 124 110 123 170 172 171 172 169 166 172 170 166 166 158 151 141 134 137 103  78  34  36  21  18  66 139  72  84  39  47  52  57  81  95 120  47  31  60  76  18  65  47
  16  57  67  98  54  73  81  92 118  88  76  53  70  30  76  18   3  12  24  66  59  44  95  97 139 159 161 171 174 167 173 183 182 182 187 184 181 177 125 130 168 178 142 176 182 180 179 163 132  98 137 130 124 171 177 173 170 162 169 168 168 163 162 154 151 134 133  95  81  85  28  26  22   8  58  94  43 160  52  85  47  35  77  84 105  42  22  49  35  41  39  39
  48  56  48  99  98  65  92 113 106 128  56  40  65  29  57  13   6   6  19  44  36  45  71 128 126 150 167 167 175 167 170 173 181 183 186 185 183 179 132 117 133 172 181 141 167 159 166 144 130 147 120 132 171 185 177 178 171 173 170 172 166 158 157 146 141 138 125 114  91  53  31  19  18  12  69  49  76 144  24  89  57  48  68  90  97  42  25  24  30 111  60  84
  68  88  35  53  82  81 115  90 140 102  68  82  49  34  33  13   9  10  17  42  64  63  72 111 123 141 167 173 168 175 169 176 187 177 183 183 185 155 132 117 112 105 152 159 133 123 126 118 136 117 153 150 173 178 178 181 182 172 171 171 164 160 150 142 135 115  94  80  90  48  23  32  11  26 107  98  92 154  50  95  69  71  43 120  95  30  31  28  23  73 105  55
 114  61 113  85  56  75  88  79 139  36  40 100  46  32  21  14   6  14  10  23  58  69 100  76 126 129 150 179 161 161 182 168 159 158 157 174 167 114  93  40  21  67  68 140 125 148 152 131  58  75 118 127 174 185 177 180 178 167 164 164 154 164 149 139 131 117 123  66  87  40  15  10   7  33  52 102  66 138  32  87  63  84  98 127  81  45  39  28  33  55 168  40
  54  33 138  77  45  99 105  99 113  30  69 113  20  40  17  20  10   7  15  18  50  43  73 110 134 135 149 165 171 151 129 108  99 118 124 143 105  46  21 100  53  37  70 103  88  78 112 115  65 118  63  71 107 165 176 173 179 171 166 168 152 149 149 135 143 117  97  55  52  35  24  16   6  30  79 147  35  94  30  66  73 116  92 106  93  38  47   9  20  60 103 115
  35 103 112  47  82  85  94 121  73  65  75  86  47  53  15  31   9  11  28  23  38  39  65  95 101 134 144 144 121  87  93  81  80  59  82  70  50  38  36  24  15  41 109  98  35  27 123 126 113  68  58  41  94 123 148 158 148 164 171 148 143 146 139 133 157 102 104  58  44  24  13  14  16  36  37 165  25  68  63  67  84  91 133 120 111  53  65  11  37  75  64 140
  54 136  73  70  85 105 134 118  87  40  96  72  25  53  11  39   8  10   9  49  30  20 100  87 103 110 127 104  56  47  52  46  53  56  74  28  42  37  38  40  25  60  73  34  15  13  90 121 106  71  89  37  29  71  89 105 119 128 143 163 130 135 134 141 127 114  97  61  47  26  22   9  27  47  34 158  93 108  87  76  87  81 112 121 130  35  72  31  28  61  63  81
  73  59  99 124 113  86  80  79  47  61  86  64  27  38  29  40   6  14  20  25  23  30  75  82  80 118  96  79  72  50  26  67  52  50  41  51  38  24  49  41  53  93  69  29  15  43 128 112  85  81  46  39  31  31  64  57  62  64 100 134 141 137 125 111 100 114  71  47  59  36  16  14  44  53  38 113 134  68  98  99  87 110 105 126 116  49  63  25  37  46  88  53
  84 135 150 139 104  79  94  57  87  68 118  45  36  45  25  49   8   8  20  19  18  56  89  85  92  70  76  83  39  36  53  62  66  44  48  48  78  59  66  48  80  61  87  57  98 124 163 121 120  87  55  65  43  35  39  40  45  46  33 122 125 135 119  75  80  73  59  42  39  21   8  10  55  81  52  56 159  39 115  77  85  95  94 114  58  56  38  58  32  23  85 100
 131 132 138 111 105  91  70  56  85  93 113  55  37  54  44  19  17   4  19  30  17  35  79 105  74  92  61  56  56  50  86  82  73  66  43  43  35  46  60  74  87  86 103 103  83  99  98 110 108  79  68  66  75  62  46  66  49  45  44  58 115 120 117 114  81  60  49  37  35  23  13  16  46  79  60  35 115  69 100  47 104  89  86 123 128 115  79  67  78  39  60  97
 118 134 113 114 117  71  54  76  95  70  67  72  41  62  32  23   6   7  23  15  20  18  74  95  69  38  50  60  50  63  56  27 100  87  75  75 104  93 100 122 130 126 112  91  90  73  74  85  72  78  82  74  48  59  60  71  69  53  80  32 114 126 100  98  46  67  59  44  27  30  29  17  33  83  67  27  65 144  59  78  87  97  86 106 111  89  41 129  72  65  23  92
  96 102 124  94 117  63  84  87  46  60  69 117  99  47  19  26   6  11  26   5  18  25  40  65  43  34  27  54  55  43  30  31  66 132 113 122 134 135 131 141 159 182 173 172 163 165 173 163 157 135 106  97  91  54  82  67  85  54  50  42  85  85 119  72  51  43  38  26  29  49  19  22  44  77  28  58  90  87 119 116  62  95  94  90  90 110 112  81  67  44  40  67
  97 137  92  98  70  68  90  47  67  77  47  59 100  50  17  30   7  20   9  13  15  32  36  68  46  28  35  35  42  46  47  79 109 153 145 130 144 142 155 159 147 159 172 180 174 177 186 167 152 125 108 126 118 103 107  93  68  55  73  60  60  96  46  51  20  52  39  39  23  18  21  54  32  89  25 104 102 109 131 135  55  61  88  41  78  94 128 116  88  90  28  38
 112  86 103 105  71  66  68  51  36  72  63  50 111  48  36  25  11   6  27  10  14  25  25  36  38  24  37  24  46  29  31 107 152 172 171 156 144 136 145 151 163 159 170 171 173 172 167 159 153 142 134 128 135 102 131 139  82  61 105 106  56  60  69  44  57  53  32  31  23  10  34  38  35  90  70 130  80 123  85 140 111  45  99  50  68  95 111  75  46 118  95  50
  96 116 120  59  88  75  61  58  69  77  85  22 132  47  37  32  18  16   8  25   8  20  24  22  30  32  21  18  12  15  52  68 114 159 178 174 171 157 144 131 124 113  98  98 107 100 100 114 107 130 121 129 132 151 146 157 124  54  94 119  57  63  83  37  35  23  31  25  13  15  15  12  75  74 116  55  39  85  80 117 121  79  81  59  58 124  72 127  94  37 115  39
  87  85  98  87  89  61  50  29  56  84  47  44  96  52  71  52  17   6   5  10   9  24  15  17  22  16  17   8   7  22  28  77  90 102 175 181 181 173 166 159 127 113 115  90  70  76  89 109 104 124 148 145 140 173 155 152  75  55  77  72  52  43  32  52  41  37  17  21  19  40   5  25  81  58  71  55  99  51  54 114  87 105  99  46  54  62  80 104  78  35 131  56
  66  89  97  86  69  65  58  55  57  58  39  28  95  33  30  64   9  11   2   9   6  25  12  14   9   7  11  19  10  20  35  32  51 106 176 166 182 181 172 169 118 158  80  81  87  63 112 126 124 140 157 164 169 172 165  76  89  33  57  57  25  36  56  47  27  26  21  17  15  48  15  77  68 114  71 111  77  24  50 126 103 165  75  62  64  72 106 151 116  36  40 130
  56  83  92  80  61  44  50 122  61  36  45  14  55  35  55  43  29  19   6   8   9  15   6  14   8   9  12  44  15  26  29  45  67 102 112 151 184 185 178 137 144  93 109 119 134  87 136 147 125 162 173 173 168 135  96 103  40  34  45  39  16  20  62  35  19  22  39  16  32  54  21  90  70  88  92  97  27  18  35 110 100  41  84  51  71  33 124 187  71 104  15 156
  82 119  92  92  62  74  64  79  51  68  55  55  46  70  52  46  67  13   8   9  25  47  14  15  14  14  23   6  17  24  37  43  39 109  98 144 180 181 151 147 134 105 151 125 147 103 114 149 151 173 172 165 138  86  80  42  28  28  39  33  17  15  50  24   9  23  17  30  43  60  21  35  81  76 117  85  79  32  31 120  95  61 116  42  89  93 103 178 101  84  38 179
  98  91  67 105  63  50 109  43  40  47  15  16  58  91  61  41  37  40  11   4  42  89  24  21  21  15  11   8  12  23  34  22  44  78 107  72 135 132 151 130 115 180 123 163 127 143  97 133 112 145 169 150 103 102  37  19  22  35  49  30  12  23  16  20  14  16  23  22  53  42  30  45  76  77  67  56  76  36  43 113 117  81  24  55  82  92 100 168 139  47  89 145
  70  55  58 108  71  76  58  48  18   7  51  47  64  77  54  59  40  59  16   5  93  45  90  16  14  17  10   7   7  13  21  19  39  64  46 113  73  80 101 146 141 110 123 132 104 109 111 109 150 140 118  92  71  55  35  28  29  31  33  28  19   6  39   9   8  29  10  34  49  62  12  63  62  69  49  51  34  26 133  96 101  99  51 116  39 127 106 177 119  33  20 105
 129  95  85 110  83 102  14  23  17  16  22  60  98  49  62  45  86 123  20   2  75  56  96  15  16  23  26  23   5  39   9  20  27  44  48  48  74  87 116  99 119  84  68 101 134 111  81 125  76 111 101  60  55  40  45  30  17  18  33  26  13  27   9  14  14   9  36  44  50  60  66  44  48  73  48  39  24  39 145 105 145  59  77 139  41 118  82 164 100  15  22  83
 173  89 105 115 105  64  34  11  15  28  15   6  54  54  46  26  81 106   9   7  25 173 114   8  11   7  14   8  61  37  26  19  33  30  49  44  58  59  60  74  80  83  57 113 106 101  91  78  79  82  61  62  54  29  45  47  20  45  11  20  19  11   6  18  11  25  38  52  66  28  65  38  52  53  33  35  25  36 126 137  25  74  60 129  35 100 171  93  55  80  42 123
 129 105  71 131  98  31  21  15  13   7   8  20  57  13  72  82 103 102  37  18  15 155 120  36  12  10  16  34  28  24  15  20  35  39  30  54  58  41  79  42  64  42  70  93  83  67  78  65  58  59  41  32  29  21  16  60  41  20  17  11   5   5  20  14   8  18  58  83 137  69  42  41  67  45  33  16  31  61 179  86  18  70  36 138  17  85 153 140  65  42  16 154
  94 122  33 128  88  50  99  13  17   7  12  56  93  71  60  12  62  85  47  11   3 174 201 117  51  18   7  17  27  25  25   7  44  38  47  49  22  50  39  58  50  64  78  59  79  34  53  52  29  40  61  23  25  37  34  44  41  29   8  16  17  17  10   6  18   6  72 151 117  73  69  43  81  53  25  11 140  88 117  50  63  50  52 152  46 114 120 121  68  53  75 186
  75  79  72 137 117  78  51   5  13  26  10  68  93   5 107  28  89  98  79  37   3 140 169  31  58  24   7  24  20  18  28  10  45  22  43  69  44  52  40  48  47  46  47  45  44  65  56  55  68  46  22  24  15  34  29  31  38  25  21  26  36  24  19  17  34  54  87 185  61  57  47  46  80  98 136  39  47 108  56  57  66  29  80  66  52 121  91 108  67  47  74 105
  63  60  99 113  80  52  17  15  11  20  32  43  93  12  44  46  54  97  83  64   4  82 208 186  74  19  14  26  12  30  17  11  47  30  41  43  27  50  42  47  41  38  44  46  47  49  61  53  75  51  14  40  29  22  28  15  14  23  25   8   7   7  27  22  44 103 225 157  67  94  61 127  94  56  43  88  99  52  99  67  54  20 156  44  74 112  90  50  63  52 130  97
 100  90 113  84  53  53  58  57  29  18  21  65  60  13  28  39  36  33  89 107  59  33 199 192 143  15  11  29  24  31  12  19  12  27  20  62  34  26  40  51  25  25  33  19  36  82  52  41  53  51  16  45  63  21  20  12   5  13  33  26  12  33  35  41  87 224 211 194  66 126 107  91 126  64 120  88  52  70  32  29  50  38  72  70 135 118 132  26  57  45  46  46
 103  51  54  30  33  41  71  68  20  21  26  49  16  29  12  16  21  14  32  52 100  10 178 200 213  63  43   7  38  11  20  22  32  21  18  36  34  24  21  22  50  34  44  24  31  36  59  39  41  27  30  45  53  48  30  21  22  14  25  20  29  57  66  99 211 218 189 180  81 126  94 113 125  94  73  32  42  49 111  28  54  25  84  85 124 109  29   8  11 123  74  37
  54  66  59  46 122  26  65  72  31  23  28  25  35  83   5  20  34   4   3  80  12 117 196 175 208 181 128  22  37   9  21  20  32  18  35  38  30   8  25  35  66  30  33  14  38  25  61  50  30  31  23  33  45  21  17  33  17  22  23   1  21  50 125 220 220 173 188 151  78 149 108 130 128 100  13  32  25 101  96  48  48  45  59 167 155  78  24  41 176  47  38  35
  51 120  54  43 145  36  64  94  49  15  41  82  30  63  40  27  11  14   9   5  90  11 150 210 232 176 179 110  25  12  22  24  21  40  28  15  23  21  27  20  56  57  51  26  34  33  33  51  27  13  21  20  33   5  12  52   9   9  24   7  97 170 227 236 212 212 220  90 121 152  96  94 188 100  74  38  28  81 124  65  53  65  33 146 193  36  21 152  22  30  50  53
  80  93  41  47 107  32  47  83  32  51  35  54  60  41  36  11   4   2  26   6  35  59 114 171 219 192 227 222 146  68  35  79  13  12   9   9  15   2  38  19  54  28  26  29  33  31  51  29  17  29  34   3  33  13  15   3  20  30  55  78 183 225 226 218 192 211 224 158 153 116  93 174 209  95  72  20  67 109  91  70  34  96 150 132 161  46 153  31  28  44  63  61
  69  65  65  67  66  39  42 110  39  23  69  40  54  43  14   7   6   6   8  13  46  11 101 148 199 180 231 232 218 107  37  86  46  21  10  12  24  25  27  23  69  10  15  25  23  13  23  23  23  22  27  16   6  15  18  28  30  30 125 216 228 228 221 213 211 223 147 194 164  81 137 162 191  71 123  69  21  96  96  70  57 116 106 139  97 103  30  21  26  37  36  62
  50  28  58  81  35  91  27  94  20  71  45  44  35   7   9  10   7  14   7   7  16   3  11 158 149 163 225 228 224 166  29 139  67  29   7   9  32  28  18  40  32  23  38  26  25  50  11  27  25  28  27  14  13  12  30  31  44 174 229 233 230 228 221 205 224 227 153 189 101 133 156 168 153  90  84  48  83  98  76  95  68  92  94 106  34  85  15  21  29  38  23  46
  49  57  93  73 103  90   5  54  69  34  32  19   8   8   5   7   4  12   7  27   4   4   1 155 162 155 173 199 217 235 176 129 162  67   9  15  15  15  40  31  19  16  30  22  28  53  28  47  11  21  23   9  16  27  25  46 185 239 241 230 226 220 218 210 220 195 191 158  96 134 181 164 160  96  68  30 114 115  57  84  78  36  93  83  36  52  71  11  13  29  37  35
  59  32  76  67  57  81  20  76  62  30  19  13   6   6   6   8   9  10  11  17   6   3   1 195 204 200 204 192 198 223 220 196 206  46  25   9  39  20  28   4  34  39  51  35  38  12  22  35  32  20  16  24  16   7 110 229 236 235 230 229 223 225 210 209 223 210 214 118  89  96 195 160 136  88 110  79 140  63 109  63 102  74  96  69  60  59  76  16  39  20  18  33
  46  39  78  77  58  92  77  29  35  53  43   8   8   5  10   7   8  17  24   5   6   2   5 183 196 215 223 220 212 219 226 218 229 196  43  14   9  44  26  67  24  35  68  49  58  35  25  50  17  15  18  17  26 101 234 241 236 233 230 227 223 226 219 219 196 193 183 138  57  85 161 155 131  93 106  76 138 117 111  66 101  42 101  53  54  49  41  34  74  12  32  31
  63  42  65  76  71  32  73  23  63  32  78  25  12   6   8  23  18   4   5   8   5  61   2 148 205 222 226 231 230 218 219 232 231 239 168  32   5  41  34  87  27  85  47  60  41  35  38  20  24  36  63  37  43  75 117 234 237 232 233 227 227 225 219 219 203 212 131 153  60 105 154 144 160  99  66 114  75 126  39  54  83  34  70  50  50  29  36  22  46  40  23  24
  30  78  69  54  67  16  64   9  50  42 110  14   4  43  17   5   7   5   6   3   2  16   5  51 208 218 227 227 228 227 224 219 226 233 231 206  54  44  21  77  44  38  33  11  26  17  23  14  10  12   3   9   2   0   5   1  56 248 236 233 228 225 227 173 208 207 144 176  48 127 173 176 150  68  62  37  90  66  41  80  21  42  78  57  55  47  26  48  47  54  23  19
 121  78  89  48  98  58  78  28  34  41  91  14  29   7   7  11   5   6   5   6  39   1   2   1 228 214 227 228 227 230 224 225 221 228 235 238 199 189  93  78  25   9  17  28  30  10  21  12  32   6   6   5   6   6   3  13   0   3 173 238 235 224 219 217 220 164 190 191  94 172 161 186 112  78  54 101 125  42  71  66  71  72  61  49  50  41  34  92  43  38  38  28
