P2
# Generated by OpenCV 4.2.0
92 112
255
 117 125 127 131 128 130 133 138 143 145 145 144 144 144 142 140 140 138 138 140 142 143 138 136 141 139 135 139 139 139 145 143 134 129 144 139 146 196 138  70  78  97 114  92  83  88  73 113 154  97  63  60  55  70  74  83 105 113 115 124 140 137 136 143 140 138 142 145 146 145 144 144 146 147 148 150 152 150 149 147 145 142 138 135 134 133 133 132 129 126 126 126
 117 123 126 127 127 132 135 141 143 144 144 145 147 145 143 141 140 137 138 140 139 139 136 139 144 139 136 140 135 123 135 129 118 121 120 101  78 148 131 102 100  99  89  62  67  85  86 122  82  57  43  52  66  82  88  80  90 100 100 116 126 131 135 138 139 145 149 147 145 145 148 147 146 146 148 148 152 150 149 147 145 141 139 137 136 135 134 133 128 129 128 131
 120 121 118 120 125 134 140 144 145 143 144 145 145 144 140 141 141 139 140 135 136 128 129 137 138 128 102 114 138  92  73 110 105 116 112  80  48  84  93  96 113  90  49  47  54  74  69  39  40  42  51  58  82  91 100  93  93 100  82  70  66  78  86  84  94 107 124 144 145 145 144 145 148 149 147 151 151 152 150 149 146 143 140 139 138 137 137 134 129 130 134 136
 126 126 117 117 126 137 143 144 143 143 146 145 144 144 141 140 142 142 135 129 130 125 131 135 124 100  61  49  86  91  61  70 103 111 110  88  33  62  96  57  88  80  39  32  47  67  61  26  36  45  67  85  92  63  60  66  82 105 107  77  57  49  53  52  43  48  66 110 139 141 137 141 146 149 148 149 151 152 151 149 147 144 140 137 137 137 137 134 129 129 135 139
 129 128 121 124 133 141 144 144 144 144 141 143 144 144 142 140 144 144 131 131 128 127 127 126  95  58  49  32  30  55  82  77  88  89  96  87  65  68  85  55  62  51  38  47  54  56  75  73  61  50  61  67  48  47  55  62  61  53  65 103  99  76  70  68  69  64  68  78 108 128 138 141 145 146 149 149 151 152 152 151 148 143 139 136 136 138 137 137 132 130 135 140
 128 126 126 131 141 145 144 143 143 142 140 142 145 143 141 142 139 132 137 144 138 127 118  97  60  50  40  48  24  24  48  75  83  83  82  73  76  76  86  56  50  44  43  46  63  65  76  69  50  69  77  52  66  86  76  81  93  86  76  72  78  93  80  68  75  82  70  52  67 113 130 144 146 148 149 152 152 152 152 151 148 143 139 137 137 139 137 138 135 133 133 136
 120 121 127 136 145 146 144 144 143 142 141 142 145 143 144 138 131 132 140 138 135 111  79  63  61  58  72  79  69  74  92  97 102 102 101 100  86  74  91  48  41  39  40  43  44  65  68  54  51  78  73  75  68  39  42  51  56  57  70 109 104  91  73  62  50  66  75  70  69 102 121 143 144 149 149 153 152 153 153 151 149 145 140 139 138 138 136 136 138 138 137 136
 111 116 128 141 147 147 146 145 143 144 143 145 145 146 143 132 133 142 146 129 101  77  72  66  54  58  65  70  75  74  73  67  76  75  64  77  86  91  82  65  52  45  48  53  50  65  80  66  68  93  63  48  54  61  62  69  67  74  77  89  98 100  96  88  80  64  36  49  64  62 103 143 144 148 149 149 149 152 151 151 150 145 140 139 138 136 136 134 138 141 141 139
 116 121 134 146 148 147 147 145 144 145 144 146 147 146 138 139 142 140 108  66  52  61  44  33  37  57  47  33  41  41  41  46  40  55  44  41  55  76  81  78  59  55  61  55  50  83  75  59  81  61  42  40  49  68  84  92  83  58  45  53  84  94 101 102  77  65  68  71  77  86 113 136 150 150 150 148 154 150 151 150 147 143 141 141 139 137 133 135 138 141 141 141
 124 131 142 146 147 149 148 148 146 145 144 146 151 143 134 136 145 128  75  73  86  59  23  25  39  46  44  54  39  56  49  53  48  43  53  48  37  54  60  70  64  69  59  58  63  86  57  64  77  72  89  90 102 114 121 123 131 123 109  86  73  77  85  84  95  98  67  58  69  76  86 103 121 144 152 149 152 151 154 152 148 145 143 142 140 138 136 136 135 138 140 139
 133 136 144 146 147 148 149 150 147 144 144 146 132 117 127 134 114 108  93  81 115 120  84  54  23  33  30  41  56  61  58  52  69  61  60  39  34  36  46  51  70  83  76  70  83  64  54  69  83  95  82  72  72  65  55  56  73 103 120 125 121 108 105  96  66  75  91  82  71  79  75  76  97 116 143 149 152 152 151 154 151 149 146 142 140 137 135 136 135 136 139 136
 139 140 144 146 147 148 150 149 146 144 141 121 113 139 125 112  95 102 107  98  61  82 103 110  83  62  73  53  43  62  49  67  67  65  69  62  66  46  41  55  59  76  91  87  77  68  56  56  56  33  38  52  51  39  54  55  57  68  86 106 121 125 131 131 108  60  57  86  98  74  64  76  79  83 111 142 152 156 152 151 151 149 147 144 140 137 137 136 136 136 139 136
 145 140 142 145 147 149 151 150 146 142 119 119 130 111 119  96  99  99  76  96  72  25  44  48  57  42  62  85  71  56  52  41  61  61  58  64  68  67  59  56  52  66  97  93  67  52  45  40  27  36  37  37  37  43  44  36  41  52  73  93 107 122 123 131 137 133  99  69  76  93  77  67  70  56  69 124 136 157 155 150 150 149 146 143 140 139 138 138 137 138 139 137
 144 143 144 147 149 150 150 150 145 127 121 137 116 121 120  96  94  82  72  80 101  56  39  40  26  30  21  32  54  28  47  26  20  52  58  49  56  57  68  70  73  74  97  71  59  47  38  33  36  37  29  28  37  26  29  31  27  20  19  25  37  69 106 122 117 124 133 127 102  90  93  80  78  62  53  99 119 135 147 149 152 147 146 144 142 141 138 138 139 142 140 138
 139 140 146 147 147 150 156 150 132 116 136 119 118  96  76  79  84  79  72  60  65  64  34  53  41  34  32  27  38  29  26  32  23  32  48  43  49  55  52  64  85  93  72  53  57  40  38  43  29  28  25  33  26  29  33  20  15  12  14  15  24  33  42  71 112 108 104 126 132 111  87  79  94  94  69  70  94 110 137 145 148 146 146 146 143 140 139 138 138 141 141 138
 131 138 145 146 147 153 148 139 128 139 127 115  87  74  71  59  52  45  46  55  41  27  17  34  48  36  37  34  38  36  31  40  36  42  48  44  48  55  55  65  86  78  48  62  51  37  46  33  33  30  38  30  27  23  26  26  20  13   6   6   6  15  18  19  38  91 108  98 109 135 112  80  67  81  94  87  74  99 122 138 147 146 144 143 142 139 140 140 141 140 141 137
 129 135 143 147 149 147 143 130 131 126 124  80  68  58  41  36  41  55  63  45  25  14   8  10  18  20  30  45  38  39  32  38  28  37  45  43  48  54  62  80  96  60  61  63  45  35  40  33  40  44  36  17  16  27  25  20  18   9   6   9  10   5   8  23  22  40  84  88  76 103 128 109  87  69  67  74  71  73 111 133 146 147 145 142 141 140 138 140 140 140 140 136
 125 135 141 148 149 149 135 125 127 116  85  70  56  47  40  41  47  49  46  37  26  14   6   7  13  12  11  35  45  47  34  36  37  28  41  44  45  54  59  82  93  73  68  56  48  32  41  45  46  51  18  18  33  33  21  24  23  22  25  27  34  20  11  17  24  33  65  67  68  65 107 135  97  65  58  50  43  35  79 125 141 148 144 142 136 137 139 140 140 141 140 136
 128 136 143 149 150 144 123 126 123  81  44  44  55  54  50  47  37  35  39  49  32  18   8   8  14  26  29  28  42  45  39  31  39  38  38  43  51  52  54  62  82  86  57  61  49  40  49  50  55  45  24  48  40  25  28  28  24  29  34  32  32  35  29  23  16  28  53  70  62  66  65 100 124  94  53  42  40  39  40  96 140 147 143 141 139 138 140 141 139 139 140 138
 128 139 146 148 145 131 122 134  94  48  40  47  59  58  47  37  30  27  41  54  41  22   9   9  15  48  57  42  41  41  43  37  38  50  46  37  49  46  54  61  69  88  60  52  51  52  54  42  49  47  45  48  36  35  31  27  31  34  27  34  42  49  31  28  33  30  48  64  53  51  67  54  82 109  81  48  40  45  35  51 117 145 146 144 142 144 142 142 140 138 138 137
 132 138 144 145 140 122 132 112  46  22  21  39  46  45  27  30  23  24  27  35  35  10   9  20  23  47  44  39  41  38  36  37  36  46  49  35  40  54  45  59  65  84  58  45  66  53  47  35  46  55  37  48  50  38  36  41  39  35  40  42  49  36  19  12  20  33  45  57  44  40  42  57  45  85  97  57  30  34  43  27  83 130 147 147 141 143 143 144 142 139 137 136
 128 133 143 144 132 128 124  62  20  17  35  33  39  21  13  23  16  23  19  30  28  15  24  36  42  55  44  36  34  40  35  35  49  50  40  29  31  47  49  61  69  75  55  42  56  56  41  36  43  46  33  47  44  47  57  47  44  50  40  43  47  29  20  13  11  20  35  42  22  34  23  49  56  36  72  83  42  17  26  37  49  96 140 143 140 141 143 143 144 141 139 138
 126 136 146 142 127 122  82  26   8  20  32  32  20   6  23  19  12  20  19  24  32  35  36  48  54  63  61  46  40  43  50  42  49  56  43  45  43  48  52  53  58  72  67  54  58  64  43  53  58  62  35  33  28  35  39  29  36  54  44  38  27  32  38  27  16  24  25  27  14  32  28  24  53  58  39  57  75  50  23  55  48  68 118 141 143 142 142 140 140 140 141 141
 134 141 147 128 122 111  39   6  13  30  30  25  13  18  18  12  17  23  12  30  44  48  51  60  65  69  74  56  56  60  61  66  65  67  71  72  71  81  84  82  73  71  90  81  75  80  72  77  83  76  39  44  34  33  40  48  54  37  41  38  38  40  44  41  17  32  36  32  14  18  35  31  23  47  54  38  55  77  49  33  52  47  83 135 144 143 141 137 136 139 141 140
 142 142 138 115 125  68  20  18  38  42  13   9  17  15  12  23  29  19  13  44  56  50  61  78  81  63  74  97  91  92  89  88  96  93 103 114 119 114 119 118 112 106 108 117  98 110 110 111 111  88  80  83  60  65  84  75  61  64  77  75  56  64  57  41  21  36  48  49  18   4  26  42  30  41  53  54  48  42  58  43  51  69  69 116 139 141 142 140 137 139 141 142
 148 141 130 120  91  34  25  16  40  56  24  28  31  34  26  29  27  19  25  45  52  54  77  87  85  87 111 120 120 122 128 121 120 126 133 141 152 155 148 150 141 141 141 143 132 131 144 153 143 128 123 108  94 109 118  99 100 102 109  98  79  73  68  49  24  44  60  66  52   7   6  29  39  31  37  43  58  59  52  71  55  49  47  86 132 143 145 143 141 141 141 142
 147 141 114  78  54  51  49  48  54  56  59  66  66  58  47  38  22  25  34  40  47  72  94 101 102 113 128 138 140 142 150 153 156 159 158 162 163 164 166 173 174 164 170 164 157 159 164 172 163 160 156 141 132 132 136 131 128 124 125 120 100  89  86  68  33  47  59  67  65  34   9  14  44  67  77  67  57  64  42  43  71  73  67  77 121 145 147 144 143 143 142 143
 148 119  63  29  31  52  50  71  66  72  92  94  89  65  47  34  32  33  35  33  51  83 100 120 126 134 138 151 152 157 160 160 162 163 162 166 167 170 172 175 178 179 181 183 178 180 180 177 173 170 170 162 159 152 148 146 148 144 139 139 123 117 112  83  49  47  52  48  37  39  34  22  21  42  74  80  87  85  74  37  30  54  76  92 115 143 146 145 141 141 145 142
 132  77  53  45  46  58  57  70  69  80  81  73  63  47  44  42  26  29  29  29  63  95 109 122 137 141 145 151 156 159 161 159 160 162 165 169 171 173 174 176 178 177 183 187 188 183 182 178 176 176 170 169 166 165 162 159 161 157 151 150 136 125 117 104  72  45  43  36  28  30  32  40  35  34  44  58  67  76  69  63  41  40  54  82 106 134 143 141 139 141 142 143
 106  60  51  51  70  61  61  83  76  75  68  60  49  35  30  30  27  26  20  43  83 103 113 129 139 145 150 153 159 160 161 158 157 163 168 173 176 177 176 177 181 180 184 187 187 187 182 179 176 174 171 169 165 165 165 165 162 158 156 158 146 129 127 113  81  43  28  31  27  28  27  35  48  42  37  40  50  52  60  61  44  39  58  89 103 129 143 139 141 142 143 141
 118  63  34  31  79  69  58  69  64  61  46  44  45  37  34  32  24  15  22  54  97 111 116 131 144 146 148 153 158 159 159 160 161 162 166 168 173 175 176 178 181 184 185 187 185 184 182 179 177 175 173 170 167 161 163 170 169 164 155 156 156 137 120 112  89  52  28  33  25  25  26  35  36  44  37  35  44  54  58  65  69  50  40  80  97 119 149 146 142 141 144 143
 142  44   8  47  73  48  45  47  48  41  28  28  26  23  19  14  12  14  31  68 101 113 120 136 144 142 148 152 157 160 155 162 165 167 166 168 176 178 179 181 182 185 188 189 188 185 185 182 180 177 175 170 169 168 171 170 171 167 159 159 157 146 129 115  97  70  38  35  26  25  25  32  32  30  47  49  49  57  64  60  69  51  55  73  87 115 139 140 143 145 148 145
 136  41  15  76  52  44  53  37  38  35  34  18  19  23  20  16   8  17  45  77 101 117 126 135 137 143 151 151 156 161 163 168 170 170 169 171 176 182 182 182 185 186 190 189 189 189 185 183 180 176 174 176 173 173 169 169 170 167 158 159 159 147 136 126 105  89  60  36  30  32  25  29  36  29  21  21  28  41  37  42  52  59  62  69  79  92 124 133 137 144 148 146
 129  32   7  73  52  37  39  30  35  35  19  12  13  19  22  15  12  25  66  95 111 122 126 132 136 143 149 152 154 157 164 169 171 171 171 173 176 176 175 183 187 192 193 192 191 190 185 183 181 176 176 183 180 168 167 169 167 161 157 156 157 155 143 132 122 110  78  47  34  43  40  35  39  43  41  36  30  22  22  22  26  36  43  70  86  81  96 131 140 144 143 144
 125  20  25  76  50  31  26  35  37  22  12  14  11  11  15  12  11  32  74 105 118 122 126 133 138 138 148 157 155 160 162 166 168 170 175 173 178 178 180 182 183 186 189 189 187 186 181 182 178 179 182 181 178 175 171 169 167 163 159 159 157 158 148 141 140 126  98  62  33  34  43  41  45  49  48  53  51  40  32  28  32  43  45  52  76  89  76  99 131 144 143 144
 117  26  56  83  55  26  31  27  29  16   8   9  10  11  16  11  13  36  69 104 115 123 128 131 132 138 147 154 158 160 162 163 165 169 173 175 178 179 180 182 186 190 189 188 187 186 185 188 185 180 182 183 180 177 167 165 165 164 160 159 155 149 147 145 141 129 111  80  52  32  27  34  34  41  44  40  36  34  27  23  22  29  43  58  66  74  86  75 115 139 146 143
  79  26  53  95  71  27  28  27  25  17   6   7  10   5   9  14  11  35  71 100 109 119 123 126 132 142 154 158 160 157 164 166 168 172 174 176 178 180 181 182 184 189 192 192 192 187 186 187 184 176 175 175 172 165 157 158 156 157 155 154 155 148 140 137 135 128 113  83  59  38  28  25  27  20  25  27  24  19  15  14  26  19  25  60  65  68  88  64  75 130 137 154
  36  15  58  95  66  29  24  31  22  18   5  16  14   6   7   8  12  38  80  98 107 118 118 121 129 140 150 155 155 156 164 166 170 175 179 178 179 180 182 182 184 184 189 194 193 184 180 181 181 175 170 171 164 160 160 158 159 158 151 145 148 148 141 136 127 123 115  87  53  35  32  17  29  25  17  15  18  22  18  12  27  32  22  62  65  55  76  85  55 110 147 194
  28  22  58  84  51  30  26  27  16  22   7  27  11   6  10   6  17  46  81 100 109 122 123 114 114 122 137 151 157 159 163 169 175 177 180 183 185 184 187 184 188 188 188 193 192 183 183 180 180 178 175 174 169 165 170 166 164 162 162 152 144 137 137 136 129 123 114  93  54  35  28  14  30  29  24  19  11  11  15  12  27  44  32  61  69  57  44  77  64  82 176 205
  29  29  53  85  45  36  28  27   9  16  12  28   4   7  12  10  18  56  88  97 108 125 126 119 120 125 134 145 153 161 166 169 175 180 184 186 186 187 189 193 192 191 188 189 192 189 184 184 184 179 177 176 176 176 174 168 162 161 164 160 148 140 133 131 130 127 114  97  60  34  26  17  27  26  18  17  25  16  10  10  26  47  37  61  75  71  38  52  62  42 151 202
  31  45  51  74  42  39  27  26   6   8  16  31   3  15  16  10  15  56  87  97 105 121 121 124 133 136 143 154 158 166 173 177 177 182 187 187 186 190 190 193 193 188 191 188 191 192 190 184 181 179 177 176 174 176 171 165 164 163 153 150 151 145 136 135 135 127 120 104  67  35  27  14  19  23  14  11  18  34  29  12  32  40  52  58  75  89  71  40  60  45  77 163
  39  64  54  48  43  37  30  24   4   7  17  22   3  23  22  19  11  58  92 100 103 115 116 122 133 143 151 157 163 168 177 180 184 187 188 188 187 189 190 189 192 189 188 187 186 184 187 186 186 186 187 185 179 180 178 182 176 163 163 153 140 142 141 135 137 127 122 108  73  44  33  21  20  18   6   5   4  23  42  35  30  40  64  67  71  72 106  76  51  51  68 105
  73  69  44  42  45  41  32  26   8   7  11  11   1  21  25  18  10  58  97 103 101 105 100  93 114 144 151 162 165 171 176 184 188 189 190 188 190 194 195 193 194 190 189 189 188 188 194 193 195 197 192 189 183 185 183 184 174 159 168 148 122 121 132 132 131 126 124 112  81  51  36  16  22  22   6   3   1  11  34  42  31  40  59  65  72  67  81 108  77  31  57 107
 104  65  42  49  48  36  32  21   8   3   7   8   1  17  23  17  22  58  94 105  96  98  87  80  95 127 152 165 174 177 175 181 188 190 189 190 194 193 193 193 193 194 191 189 188 190 189 192 196 196 194 187 185 181 174 167 138 136 140 125 109 126 122 125 126 126 123 114  90  57  33  12  17  21   5   4   2  10  24  43  36  49  57  65  55  58  65  88  97  48  28  78
  95  58  43  49  55  34  26  25  12   3   4   2   1  11  13  20  31  49  94 108  97  77  74  69  70  95 130 156 171 179 178 178 185 186 183 187 196 195 194 197 197 196 188 190 189 188 188 194 200 195 192 185 180 171 157 131 116 144 115  86  81  96 117 124 126 125 121 113  92  54  21   5  15  20   4   3   1  13  15  38  41  48  65  73  52  41  58  74  93  80  28  46
  94  55  43  57  54  32  25  20  12   6   5   2   1   5   6  19  29  50  92 105  86  62  61  51  50  58  88 127 160 174 175 177 182 182 176 179 189 195 197 195 196 193 195 193 189 188 190 195 197 193 186 181 170 144 117 105 131 120  89  79  82  79  94 111 122 123 121 112  98  45   9   2   7  15   5   3   1  15  22  33  38  51  64  64  44  39  47  57  79  84  54  31
  86  60  38  52  46  28  27  17  11   7   4   4   1   3   2  19  27  55  95  97  67  57  47  45  35  28  47  83 129 158 176 182 182 180 172 176 186 193 190 191 195 192 193 190 187 185 186 186 192 185 161 145 121  89  65  99 121  86  74  88  96  98  93  98 115 123 124 118  99  41   6   2   5  15   6   2   0  16  30  39  38  59  66  61  25  26  52  53  62  79  70  71
  72  62  43  46  41  26  29  15   9   6   3   4   1   2   4  24  30  57  98  93  59  71  80  78  65  37  23  38  68 122 160 173 181 178 174 177 178 181 183 183 186 187 185 187 184 179 182 173 157 141 114  82  50  34  87 116  74  70  90 102 116 112  97  85  87 120 123 118 103  68  20   5   4  14   5   3   0  19  40  42  40  62  63  62  20  19  32  56  52  74  60  65
  72  61  44  49  44  22  22  11   9   7   3   4   1   1   7  35  31  63 104  98  66  83 103 120 116 105  82  47  33  56  94 139 165 179 177 175 171 177 175 177 177 181 180 181 178 172 158 137 111  68  46  31  41  96 119  76  95 124 133 137 142 127 118 104  84 112 127 121 113  98  52  15   8  14   7   4   0  21  43  30  45  66  77  53  28  18  22  44  55  59  62  57
  77  58  49  50  40  27  25  10  10   9   3   6   3   1  12  37  27  71 106 103  72  83 108 125 131 132 133 128  87  45  34  76 118 149 161 164 165 168 169 168 169 173 177 173 165 153 137 110  84  64  57  82 114 138 119 135 152 149 147 150 143 136 127 110  96 108 127 127 117 107  74  33  13  15   9   5   5  18  32  33  54  65  83  44  27  29  33  42  46  45  54  62
  61  68  49  50  39  27  22  15  11  12   5   6   3   4  20  24  31  83 106 104  81  85 110 117 102  97 104 113 116  93  51  39  52  85 108 132 150 159 164 163 165 167 167 164 154 137 117 104  99  96  96 105 111 116 120 125 118 108 107 121 136 131 123 107  96 109 130 132 121 113  87  55  17  15  11   6   3  10  21  37  61  68  79  52  26  13  33  39  40  57  50  62
  62  67  50  51  34  25  19  14  14  13   8   4   3   5  27  19  45  93 109 109  97  92 107  96  87  98  80  54  40  35  36  30  31  31  49  82 111 129 145 158 161 160 164 157 145 131 119 112  97  82  73  63  50  43  52  64  87 107 110  93 100 119 113 106 109 119 136 134 127 121  96  69  34  10  19  18  16  20  18  47  66  68  76  48  28  30  34  41  38  67  67  62
  90  53  54  54  29  22  15  12  16  13  11   5   5   6  24  23  55 101 113 107 110 107 104  90  66  40  37  23  16  22  30  60  92  71  48  55  63  99 121 134 147 153 153 147 138 130 111  84  78  75  80 104  73  25  24  19  24  56  77  97  94 111 117 122 127 134 142 140 133 124 104  78  48  22  16  28  34  38  21  48  67  69  75  51  24  32  39  44  59  79  80  70
  64  59  67  55  27  27  11  11  20  17  15   8   9   9  18  15  67 107 113 117 122 125 115  72  31  48  82  93  57  68  78 128 129  97  94  82  72  74  97 115 125 141 149 149 141 117  96  96  92 103 119 163 158  78  65  54  68  75  52  42  79 114 133 146 145 145 145 138 136 126 109  86  59  42  28  43  62  27  19  41  57  68  74  60  29  47  35  30  35  65  88  74
  62  76  66  58  23  25  11  17  25  22  23  12   6  11   7  14  79 114 118 126 130 132 134 100  83  96 111 120 119 130 129 121 118 112 118 102 108  95  99 123 136 151 161 161 142 118 131 134 123 131 125 125 140 130 119 118 124 115 113  91  95 125 149 159 157 152 146 142 138 130 116  90  57  47  47  47  79  42  12  40  61  68  77  57  25  45  37  27  46  51  66  78
  85  75  61  51  24  18  13  25  30  33  27  10   9   8   5  20  82 116 117 131 138 138 140 135 117 110 124 126 124 126 124 124 126 119 121 136 146 118 116 135 159 175 177 167 142 134 150 156 151 135 128 132 128 133 133 141 131 130 134 132 146 154 159 163 162 160 150 145 135 127 116  94  46  43  70  73  38  28  14  42  68  73  83  53  32  55  64  17  40  63  36  74
  96  70  54  39  33  22  18  26  39  47  28  11  13   6   9  28  86 116 120 134 140 146 140 143 132 115 119 127 125 117 119 120 114 109 116 133 128 121 128 144 175 189 189 171 151 145 140 146 157 141 121 120 126 133 132 133 136 136 140 150 158 158 127 160 169 163 154 142 129 124 118  92  40  26  74 102  65  44  12  39  70  78  80  68  39  54  90  44  28  67  63  61
  90  69  50  42  35  25  32  30  50  59  18  14  13   7   8  30  79 111 120 130 140 148 145 151 148 131 118 114 114 109 109 109 116 129 140 140 130 132 131 151 176 189 186 175 160 150 149 145 158 155 133 121 118 118 123 126 128 143 153 157 164 162 147 167 173 169 158 139 124 123 121  94  46  19  53  68  75  63   8  41  72  73  77  70  54  68  98  96  49  35  53  46
  83  71  44  35  28  30  41  32  64  45  24  18  13   8  16  31  66 106 118 130 146 152 152 153 157 158 149 138 131 133 138 142 147 153 158 146 140 140 142 161 179 186 182 175 164 155 160 153 153 168 158 141 140 150 159 161 160 166 162 165 168 165 171 176 158 146 153 137 123 120 115  83  30  31  68  65  65  43   3  44  82  74  71  74  48  84  94 101  54  26  32  36
  79  63  35  40  27  33  41  42  59  38  43  20  19  10  21  35  47  98 114 129 144 155 156 156 160 164 167 169 166 162 158 160 162 166 160 148 141 134 150 163 180 186 182 174 165 157 159 161 156 170 175 156 148 161 173 173 173 172 166 168 171 174 174 179 162 143 150 137 120 114 112  73  22  39  75  75  53  26   2  41  85  77  72  84  60  72  67  88  63  30  30  26
  75  57  44  41  21  34  45  38  49  60  39  22  24  19  15  25  33  87 112 128 142 150 158 160 162 166 167 170 169 169 171 169 168 163 158 151 140 135 147 158 181 187 185 177 162 159 155 157 161 166 178 174 161 159 167 173 173 173 172 174 174 177 180 179 173 151 155 138 116 108 106  59  23  45  76  64  43  18   3  36  89  80  87  80  70  60  49  62  79  44  35  25
  74  64  50  31  22  34  41  38  83  59  29  24  28  25  17  21  25  69 107 122 137 149 159 164 164 163 165 169 173 175 177 173 170 162 154 151 137 134 138 151 178 189 188 178 160 152 153 154 162 168 179 177 174 172 171 172 172 172 176 179 178 178 181 173 165 155 156 136 116 107  99  49  21  51  85  73  46  14   6  30  91  72  92  71  82  66  45  46  81  36  30  34
  75  70  55  29  28  28  30  52  88  53  26  26  29  24  12  14  26  47  97 122 134 148 158 164 163 162 163 167 174 174 177 175 170 166 154 150 136 134 138 153 175 187 184 176 161 148 149 150 159 171 176 178 179 177 174 172 173 178 179 178 177 177 176 168 165 160 150 131 110 104  85  36  19  49  82  78  35   9   8  22  75  61  88  65  82  90  44  45  80  46  28  29
  74  67  54  32  36  30  32  65  78  52  24  26  27  23  14  14  18  34  85 119 131 144 157 162 167 166 161 163 172 175 179 175 172 165 156 146 133 131 134 151 173 187 187 177 169 150 149 147 160 175 176 181 185 185 181 177 175 179 177 172 176 178 174 166 164 146 141 122 102 105  73  35  33  44  68  43  13  10   7  15  60  57  79  68  65 109  55  33  88  71  40  27
  80  61  49  39  38  33  31  85  64  47  22  27  20  18  14  17  19  23  65 113 128 137 155 161 162 162 162 163 174 177 178 172 171 165 158 143 135 132 139 153 166 183 190 182 171 155 148 146 153 169 175 182 184 184 188 186 180 175 173 168 171 173 171 166 159 144 127 112  98  97  63  33  41  34  19   6  12   9   8  12  56  66  72  85  45  91 101  41  83  77  48  33
  75  59  44  56  38  36  40  96  57  46  24  24  17  13  19  17  22  21  50 107 116 129 145 154 156 160 162 167 173 176 178 173 168 165 155 136 133 133 144 161 171 183 190 183 173 161 146 148 147 158 176 179 179 178 181 183 180 180 171 173 173 170 164 159 155 147 124 105  96  84  49  22  18  10  12  10  14   4  10  11  36  67  70 101  65  56 110  82  87  86  52  45
  59  50  62  51  27  32  53  91  51  47  31  24  17  15  17  18  24  23  34  87 114 118 131 140 151 161 163 165 169 174 174 170 169 166 153 129 138 142 150 160 174 190 195 187 175 159 149 155 144 149 168 170 176 177 174 179 184 182 178 173 170 169 157 146 144 136 116  99  98  81  37  16   9   9  17  14  12   4  17  13  18  63  79  73  95  66  90 114 100  94  77  45
  40  54  75  38  21  34  59  73  45  45  29  24  14  14  17  18  26  20  30  76 101 114 131 141 149 157 162 164 169 167 169 168 166 162 151 138 149 150 154 163 186 193 196 189 171 157 158 164 153 143 161 171 172 174 179 179 180 178 173 167 168 164 151 139 133 120 113  94  89  76  34  19  12   8  13  19   9   7  21  20  12  57  85  54  76  88  68 102 122  82  85  59
  32  62  51  24  28  45  84  59  47  41  26  25  11  11  18  16  28  20  31  59  84 113 125 131 142 155 161 164 172 168 167 166 164 159 151 149 156 157 161 175 190 191 199 187 170 164 174 176 167 151 158 162 168 173 178 177 181 177 171 168 168 159 141 135 127  99  94  82  75  60  28  16  16  13  17  21   8  10  25  20   6  43  87  60  36  92  79  75 118  97  87  76
  46  56  24  25  33  49  91  48  56  50  25  22   7  17  13  16  21  13  32  46  73  93 115 120 135 151 159 162 165 167 166 163 163 163 151 142 145 152 166 178 185 189 205 189 172 170 173 164 159 153 158 161 166 173 174 176 177 175 170 167 162 154 134 122 117 106  92  76  69  57  23  15  17  19  17  21   8  13  26  26  10  44  82  80  38  53 106  98 102  99  75  79
  54  40  24  33  31  60  90  52  55  47  23  20   9  13  12  14  16  14  29  41  72  85  95 112 122 145 156 156 159 164 164 163 166 167 150 128 106 107 140 163 176 177 183 173 166 158 121  99 133 147 166 166 163 164 165 170 170 171 168 165 156 150 128 114 113 102  85  74  60  49  25  14  11  16  24  22   7  18  33  39  17  39  70  70  73  55  83 122  95 101  79  71
  36  38  35  29  31  84  89  53  54  40  26  21  12  18  13   7  12  12  24  38  56  64  95 100 111 135 149 152 157 159 161 161 166 167 158 124 114 117 108 124 152 159 161 162 145 117 116 124 120 152 178 175 164 161 166 167 168 166 160 156 146 139 127 118  99  85  77  58  52  34  23  20  18  18  37  21   6  21  37  36  31  29  64  52  81  79  62 114 105 100  90  70
  50  37  31  24  40  93  83  58  52  36  27  23  13  18  12   7  15  19  28  32  47  67  94  97  97 131 140 142 148 154 156 159 165 167 165 131  84 112 121 115 124 137 137 138 115 129 140 133 144 167 177 179 173 164 167 166 164 161 157 154 146 136 127 112  81  82  80  51  41  34  18  18  21  21  36  19  15  20  34  30  42  27  57  52  56  89  51  83 107  95 111  71
  46  34  36  33  59  90  73  53  49  35  30  24  15  15  14   8  15  23  23  30  46  71  99 108 103 124 136 138 141 147 155 162 167 169 161 119  99 101 101 118 119 108 113 119 120 125 124 133 154 165 176 179 178 173 166 162 159 157 157 156 152 143 127 110  94  94  72  51  36  28  18  18  21  33  36  28  26  17  24  31  44  32  36  62  36  87  60  64  97  86 109  90
  35  37  44  33  79  87  73  51  57  33  31  28  21  15  17   8  11  21  24  23  41  55  85 109 115 128 137 138 142 150 160 158 161 157 147  77  69  57  50  95 121 113 106 117 106  96  80  85 102 136 164 171 178 180 172 165 160 155 149 152 147 145 140 119  97  98  73  51  32  20  16  24  29  40  36  36  31  18  19  31  36  46  27  47  44  66  69  45  80  82 110 103
  27  49  35  41  87  79  67  51  54  35  33  24  26  19  19  16   9  18  22  32  40  51  77 107 114 122 130 135 141 145 140 144 138 133  92  42  33  31  49  77  98 108  81 106 108  93  68  87  75 104 127 148 159 162 158 164 164 152 144 142 143 141 147 121 100 101  85  44  33  25  17  30  45  39  35  32  25  23  14  27  30  44  30  24  56  46  53  39  74  84  91 117
  30  39  29  52  87  72  49  57  58  41  32  23  36  24  20  10   8  14  19  27  45  59  74 105 108 123 116 116 116 109 119 115 106  91  55  46  44  37  59  78  82  59  42  86 117 117  79  64  61  57  83 109 114 129 124 132 150 155 138 133 138 147 129 103 109 101  88  51  37  24  32  39  42  36  26  28  20  18  20  24  31  44  37  15  36  50  70  42  65  81  83 117
  29  27  35  56  76  60  34  63  60  50  22  27  41  28  21   4  10  14  17  25  43  48  73  97  86 109 111 110  97  97  86  83  72  53  51  46  43  51  67  79  66  26  25  69 110 108  86  68  64  50  56  83  74  73  95 101 120 141 142 129 136 135 112 105 118  94  68  51  31  28  41  34  48  35  20  22  17  14  21  19  23  37  48  16  24  37  93  63  55  79  87 117
  28  25  29  65  64  43  37  66  62  39  11  29  41  38  26   4   7  18  16  22  38  39  59  70  80  96 104 103  83  77  71  77  54  49  43  52  61  75  75  88  63  27  47 107 127 114 101  84  81  72  66  77  65  56  69  77  96 107 132 133 131 122 114 101 117  93  45  40  29  30  31  40  55  26  23  19  17  14  21  16  21  36  57  21  26  37  88  72  55  77  87 111
  32  24  41  65  50  26  50  71  59  22  11  25  40  50  45  11   6  12  13  15  29  38  48  65  77  83  92  74  64  67  77  58  57  54  55  57  66  72  75  73  58 105 114 113 119 113 100  92  84  79  83  80  81  69  63  62  84  94 114 127 135 127 104  99 111  83  48  34  28  27  35  56  37  16  22  18  19  18  23  25  19  34  60  43  36  38  85  72  45  64  91 103
  21  27  58  55  40  18  60  71  46  11  17  24  37  50  53  19   6   5  13  15  28  36  51  53  59  64  71  67  60  75  67  62  58  44  27  36  44  59  68  73  76  97  92  85  96  96  91  81  67  60  69  70  64  75  76  79  79  94 102 122 123 112  97  90  99  73  51  42  29  23  30  62  32  20  16  19  17  23  27  39  32  36  51  49  29  53  97  66  57  64  98 106
  17  36  53  46  35  33  75  65  22   8  15  22  32  44  57  26   4   3  15  18  18  27  50  52  46  57  66  65  62  64  44  50  40  35  34  45  59  76  94 102 108 108 107 110 117 113 108 101  72  63  61  67  65  62  74  83  81  89  87 109 109  97 101  91  78  65  41  38  33  27  38  43  29  36  12  22  20  22  24  35  33  41  54  58  33  82  86  55  71  82  90 109
  35  45  47  44  30  55  79  38   8  13  17  23  19  33  54  36   2   4   9  21  15  28  40  38  49  59  56  53  57  49  35  51  56  59  63  89  98 112 135 153 163 164 158 160 169 161 145 129 112 115 111  88  71  59  61  77  85  90  79  88 100  76  98  96  60  42  40  32  27  31  43  35  44  49  15  21  22  14  25  27  35  48  49  61  66  82  58  66  76 103  75  99
  35  44  42  41  43  78  53  18  11  10  19  25  19  30  43  37   7   5   5  20  18  25  23  31  39  42  47  56  51  38  37  63  91  89  91 113 117 128 135 148 158 161 162 168 167 161 153 146 143 138 132 103  96  87  63  68  90  80  80  73  81  63  82  89  50  36  36  37  18  26  47  29  59  44  26  24  21  13  16  27  41  49  40  57 100  64  64  58  87  87  79  83
  37  44  39  37  74  78  20   8  13  12  24  18  30  32  37  40  15   5   5   7  23  24  20  22  36  43  41  50  42  36  30  73 116 121 110 109 118 127 132 135 140 142 145 143 139 143 140 138 131 128 124 123 129 125  80  59 101  81  72  61  60  70  76  74  51  38  25  26  23  48  58  31  61  35  31  21  16  17  11  26  35  37  48  90  89  71  57  79  82  74  88  73
  35  44  39  59  92  43  12  12  15  25  15  21  35  33  46  29  13   8   5   8  26  28  20  23  33  34  34  36  43  31  31  85 129 134 132 124 122 102 106 102 104  94  99  92  97 101 104 117 129 140 135 139 148 138  80  51 100  72  67  64  50  61  73  66  40  26  26  22  27  62  58  44  62  31  34  21  20  20  21  42  26  30  62 113  83  76  70 101  62  71  88  94
  52  42  46  96  68  17  13  13  24  15  18  25  28  46  53  27  15  19  11   8  14  26  30  30  29  23  17  21  23  25  36  75 116 143 145 143 134 115 113 107  97  77  78  71  85  97 108 121 144 149 156 157 154 126  73  60  82  58  59  59  53  42  59  48  33  17  21  19  31  64  50  56  59  35  33  25  33  21  36  50  21  30  87  95  81  76 108  55  66  75  90  99
  42  38  95  98  25  15  17  27  14   9  20  29  41  38  59  33  27  44  17  19  24  21  28  25  21  20  17  12  16  28  39  55 100 140 149 155 143 129 127 115  92  87  96  83 102 124 123 131 150 156 164 153 126  85  56  52  57  45  44  51  47  32  39  37  22  21  24  20  32  78  55  59  55  41  28  35  48  22  34  47  29  31 102  79  85 101  78  43  80  80  92  97
  31  88 122  50  19  23  30  14   7  13  21  32  32  40  54  53  45  50  30  20  22   8  23  29  15  15  12  10  17  22  28  44  94 128 142 160 145 142 124  92  95 121 127 100 120 139 139 150 166 169 157 138  98  52  40  37  41  40  32  29  31  25  30  23  19  22  22  27  42  93  62  59  53  41  32  37  64  25  27  45  36  35 102  71 108  97  42  50  85  86  75 110
  99 122  62  34  35  38  19  13  10  11  24  25  22  25  55  61  58  49  29  21  22   7  24  33  17   9   7   7  16  23  36  51  70 100 127 147 130 117 106 107 102 133 133 103 127 139 148 153 174 165 142 111  94  44  31  35  41  44  25  28  25  21  22  14  15  23  30  34  62  86  59  53  58  33  42  39  47  27  44  46  37  39 101  65 119  74  44  54  90  70  90 122
 124  68  27  39  35  16  19  13   6  10  21  18   7  24  54  55  55  37  25  25  19  10  31  34  27  13   8  13  18  19  28  44  66  95 101 101 110 112 108 108 117 143 121 117 132 115 144 139 147 146 122  83  82  51  37  27  42  49  19  28  24  19  16  18  16  26  32  54  74  85  58  50  59  32  47  33  33  72  63  47  45  39  88  70  99  82  54  65  90  70 131 116
  73  26  36  31  12  11   5   7   5  12  17   7   3  34  50  66  48  18  21  20  13  19  30  31  30  16  22  18  11  17  31  34  52  62  56  82 108  89  97 116 131 122  99 123 121  97 132 118 111 110 103  74  67  50  42  44  28  28  14  13  21  19  21  13  21  30  38  82  85  92  57  61  45  43  44  28  38  98  34  48  57  38  85  78  92  98  71  80  60 114 108 118
  16  25  36   6  13   6   3   7   7  13   9   8   9  39  54  70  41  15  22  24  15  31  39  28  32  26  22  13  12  18  28  29  27  40  44  86  83  76 108 117 109  85  91 120 110  85  99 106  76  67  77  62  60  46  41  53  36  18  13  15  11  12  22  19  22  29  58  86  82  93  51  44  36  54  36  33  52  83  22  47  54  44  81  71  93 119  82  72  81 103  80 118
  17  33   6   3   6   2   7  12  14  10   4   4  14  45  63  71  18  13  26  27  27  43  48  36  26  21  22  14  10  17  30  32  34  33  63  77  70  58  74  83  80  71  93 107 102  75  77  90  67  46  51  50  38  47  42  39  43  24  18  18  19  14  15  26  22  29  86  82  87  76  39  27  43  56  32  38  77  98  54  49  43  45  78  70  89 118  73  68  98  46  86 112
  35   8   5   4   7   9  15  14  10   6   5   8  16  47  76  63  15  21  31  29  43  48  59  33  40  26  17  11   8  19  32  38  27  36  49  63  54  47  56  70  66  58  88  85  88  68  70  71  57  48  38  42  31  41  41  23  40  29  18  16  21  20  18  16  30  79  99  92 103  56  46  38  48  72  27  36  98  85  70  43  45  55  82  72  84 116  76  80  64  51  98 126
   6   5  10   6   8  10   9  11  15   8   7   5  18  37  81  53  19  29  26  40  57  53  67  45  31  23  17  11  13  20  33  25  24  36  34  58  57  47  50  56  62  51  64  65  75  64  54  54  42  48  46  33  33  44  37  24  27  34  16  14  11  15  17  15  50 115  96  96  93  48  55  36  57  76  11  56  93  85  71  39  45  68  87  71  82 114  91  71  54  78 101 134
   6   7   9  11   6   9   8   9  15  17  12  11  19  48  77  32  18  28  29  58  68  59  69  64  32  15  18  14  21  23  21  19  37  38  37  63  58  44  42  46  43  42  49  48  54  48  43  53  41  24  26  47  47  33  23  26  22  33  16  19  14  17  21  35 105 117  86 102  77  58  46  30  65  68   6  91  85  97  69  27  49  72  91  77  82 104  86  63  65  88 108 128
   8   7  17  14  10  14  16  13  12  12   5   8  25  66  61  25  24  32  50  78  80  64  68  79  34  18  23  14  13  21  19  32  30  35  54  56  31  29  26  36  28  36  34  39  30  50  32  43  39  28  28  35  47  36  24  27  13  32  22  14  15  16  33  80 127  95 108  99  66  55  46  28  64  86  22 112  72  88  60  51  72  72  92  71  90  96  87  82  77  84 124 107
  21  27  37  23  20  17  20  17  13  10   2   3  45  63  38  26  35  52  77  92  89  72  72  74  48  26  22  18  15  16  20  25  25  41  50  44  27  15  35  31  25  31  28  36  27  41  28  43  36  20  26  29  36  29  29  24  14  28  32  23  16  41  59 114 108 104 111  77  58  62  43  27  59  88  64 108  63  77  73  54  59  67  99  69 102 100  86  85  84  80 126  77
  34  38  38  30  35  24  14  16  12   5   0  13  56  54  34  40  66  81  98 102  98  83  75  71  72  37  21  18  10  18  24  22  27  44  43  40  24  27  40  24  33  30  25  40  31  42  24  30  36  19  20  28  32  21  22  21  12  29  29  23  17  65  97 106  99 111  89  65  53  58  40  35  47  86 124  83  62  73  71  47  60  76 100  75 102 106  80  84  81  83 125  66
  30  41  42  37  48  23  11  11  10   7  11  28  58  52  57  89 103 104 112 111 105  97  77  80  78  57  19  11  12  22  17  24  28  32  31  33  27  31  33  27  33  33  32  31  39  29  17  25  39  25  20  19  24  27  27  16  15  38  18  16  50  86 111  97 117  95  76  71  50  56  36  39  40  55 134  64  63  69  66  67  61  81 102  85  96 106  89  79  89 100 124  63
  55  52  39  51  44  21  16  12   6   7  19  42  51  61  97 113 118 119 120 119 112 108  84  83  78  69  36  18  17  26  21  22  24  28  35  29  27  31  23  21  22  29  34  51  41  13  20  29  33  33  21  20  25  22  19  19  23  30  16  28  87 105  92 106 106  84  75  74  56  56  41  47  44  31 121  79  47  62  86  81  77  91  87  80  91  79 106  89 109 114 113  57
  57  48  46  42  28  23  20  10   4   5  18  52  29  76 126 127 130 130 130 129 120 111 105  76  91  74  64  29  20  26  21  26  33  37  37  30  23  35  21  25  19  34  35  42  25   7  25  25  32  29  20  20  25  18  16  22  29  32  33  67  97  86 101 111  86  84  77  77  54  54  45  54  47  67 125 106  38  74  84  77  82  86  72  79  74  58 107 120 133 108 114  61
  44  45  35  24  16  15  11   4   5   8  34  49  29  86 140 140 139 135 134 136 127 112 120  88  87  88  70  42  25  24  23  25  22  41  31  33  35  44  19  29  35  28  15  42  22  12  18  14  27  26  24  20  26  17  19  20  42  64  56  77  95  95  98  98  82  83  85  77  46  50  50  58  58 102  96  98  76  77  85  79  78  76  69  82  57  45  89 127 118  95 119  72
  45  38  25   8  11   7   5   9   8  17  39  39  32  74 150 146 146 142 140 136 130 117 120 117  76  94  71  54  34  22  24  21  27  39  27  32  39  37  15  35  34  18  21  41  15  18  18  18  15  27  29  32  31  18  25  40  66  77  81  94 102 101  96  94  78  86  89  58  48  47  53  59  68 112  83  49 112  88  89  77  83  61  65  76  61  54  76 107 137 109 117  75
  40  22   9   8   9   9   8  12  14  23  34  40  36  39 150 154 154 147 148 143 135 123 118 127 104  81  99  62  48  29  25  20  29  38  34  27  38  38  22  40  23  25  38  36  12  21  19  22  14  25  35  33  26  15  33  75  74  69  87  96  96  96  97  91  78  99  88  61  50  51  52  59  66  91  64  31 105 110  91  73  89  57  64  76  59  59  60 109 122 132 134 104
  14   5   5   8   9   8  10  12  14  27  39  41  43  11 118 164 156 153 152 148 139 127 120 125 129  89  92  95  44  54  32  28  23  49  37  22  38  47  30  48  36  42  40  21  20  38  26  19  22  23  28  28  19  22  43  58  72  82  92 100 100  97  96  85  96  93  94  66  54  54  66  58  68  88  44  62  87 112  92  75  83  46  70  85  54  66  55 107  82 122 130 140
   8   7   8   9  10  15  10  10  11  21  39  41  33   4  69 165 157 156 158 152 143 133 125 127 131 119  79 108  66  58  45  26  28  37  37  20  37  41  29  43  36  38  20  28  37  28  25  28  23  17  24  23  20  32  41  57  77  91 100 109 101  94  96  98  92  88  99  52  55  65  67  51  75  79  67  60  69 116 101  95  59  45  85  90  56  65  69  92  89  85 106 142
   9  10  10  10  10  13  16  15  12  23  52  40  22  10  24 144 163 157 158 158 148 138 129 131 130 134  99  84 102  59  49  25  30  24  26  20  25  29  24  34  25  27  19  27  34  24  35  32  17  19  25  22  33  36  64  74  88  99 102 101 101 110 109  88  80  94  96  64  57  74  67  40  73  81  79  57  73 119 101  85  54  56 101  94  67  63  64  83  82  52  83 129
  11  10  11  12  13  11  14  16  15  22  37  38  18  13   7  97 168 160 157 157 151 144 136 133 133 134 131  85  96 103  59  34  23  24  19  19  14  19  22  33  34  31  30  38  29  29  31  20  16  21  21  30  39  55  76  89  97 102 103  99 120 134 107  88  99  85  84  75  48  57  49  56  84  68  76  67  81 108 108  62  80  62  92 104  74  72  72  95  77  35  57 119
  11  12  13  12  12  11  12  12  12  13  29  24  14  18   9  32 156 163 158 157 153 146 141 136 136 135 140 122  80  99 101  52  29  25  17  18  14  12  18  24  20  28  37  34  25  24  33  29  26  25  31  28  49  81  96  97  95  98 109 131 143 112  97  99  95  72  65  80  53  78  57  54  84  63  67  86  89  93 118  62  96  83  92 115  88  78  93 112  63  32  33  82
  14  12  12  12  12  11  11  12  14  18  23  21  14  19  15   5 110 167 159 157 154 150 138 137 138 140 139 142 115  84 104 101  63  55  37  22  19  12  12  13  23  25  29  35  31  41  40  32  38  47  58  50  77  94 105 105 102 122 146 141 112  97 107  92  74  70  55  85  89  65  44  37  87  74  65  97  91  82 125 103 109  74 103 122 104  82 106  90  55  44  52  67
