P2
# Generated by OpenCV 4.2.0
92 112
255
 189 189 190 189 189 189 190 190 190 190 190 191 191 191 190 191 191 192 191 191 192 192 191 192 194 191 192 192 192 192 192 192 195 196 187 182 183 184 179 180 177 175 175 173 182 182 184 188 194 199 197 197 198 195 194 193 194 195 196 195 194 195 196 196 196 196 195 196 196 196 197 196 196 195 197 196 196 196 196 197 197 197 196 195 196 196 197 196 197 196 196 196
 188 189 189 189 190 189 190 190 190 190 191 190 191 191 191 192 191 191 191 191 191 191 192 192 192 192 192 193 192 192 192 194 191 182 178 175 166 158 145 137 137 133 116 126 139 139 134 161 174 177 186 186 188 194 199 197 197 194 195 195 195 194 193 194 195 196 195 196 195 196 197 197 196 196 196 197 196 196 196 198 197 195 196 195 196 196 196 196 197 197 196 196
 189 190 190 190 190 190 190 191 191 191 191 191 192 191 192 192 193 192 192 192 192 192 192 192 192 192 191 193 193 191 194 184 171 172 164 150 136 115  98  99 121 124 119 122 118 117 114 127 160 145 126 127 134 142 157 175 189 197 200 198 195 196 194 194 195 196 196 196 196 197 196 197 197 197 197 196 196 197 196 196 197 195 197 196 196 195 196 196 197 198 196 196
 189 190 190 190 189 189 190 190 190 190 191 191 191 190 192 192 192 192 192 192 191 191 191 191 192 192 192 192 193 195 183 167 172 164 160 117  88  83  86 103 120 138 141 123 119 123 107  91  90  82  87  93  92  86  89 100 117 146 160 187 201 201 198 197 196 197 196 196 196 196 196 197 197 197 197 197 197 197 196 196 197 197 196 196 197 196 195 196 197 197 196 196
 190 190 190 190 190 190 191 191 190 190 192 192 192 192 192 193 192 193 192 192 192 192 191 192 193 193 193 193 194 187 166 168 153 132 114 101 108 114 133 147 146 154 165 154 143 128 110 106  92  76  61  61  79  87  71  80  76  89  95  98 128 167 187 197 200 197 196 196 195 197 197 196 196 197 197 196 197 197 197 196 197 197 197 197 196 196 195 196 196 196 196 197
 190 190 189 190 191 191 192 191 191 190 192 192 192 192 192 193 192 192 193 193 192 191 192 192 192 193 192 193 193 176 164 127 103  83  86  97 108 143 165 158 145 149 159 168 144 131 103  93  92  89  78  59  51  61  68  66  61  55  63  72  81  86 117 154 184 192 194 193 195 196 196 198 198 197 197 197 197 198 197 197 198 197 197 197 197 197 197 196 196 196 197 197
 191 191 191 191 191 192 191 192 192 192 191 192 192 193 193 193 193 193 193 193 192 192 192 192 193 192 192 197 188 135  91  77  75  77  83 112 143 165 175 169 149 139 136 146 121 110 105 101  96  78  69  61  51  40  41  40  42  41  35  34  54  70  70  81 116 166 189 191 195 193 195 195 198 197 197 198 198 196 197 198 197 198 198 197 198 197 197 197 198 198 198 198
 191 191 191 192 191 192 192 192 191 192 191 192 192 192 192 193 193 193 193 194 192 193 193 194 193 193 199 190 132  77  76  88  96 101 107 115 130 144 150 148 142 141 115 109 111  92  87  96  91  84  81  79  69  57  54  48  38  32  33  28  22  37  46  49  65  97 162 194 188 194 195 194 197 197 197 197 197 197 197 197 197 197 198 197 197 197 196 198 197 198 197 197
 191 191 191 191 191 190 191 192 192 192 192 192 193 192 193 192 192 193 192 193 192 192 192 192 194 199 171 108  92 104  86  75  79  97 118 123 125 135 123 107  93  94  79  78  87  98  97  86  83  81  73  67  68  59  49  45  41  39  37  34  28  21  30  37  47  49  80 154 189 192 195 194 197 198 199 198 199 199 198 197 198 198 197 197 198 198 197 199 198 198 198 198
 192 191 192 192 192 192 192 192 193 192 192 192 192 192 193 193 193 193 193 193 193 192 192 196 197 160 109 100 105 104  87  65  59  70  91 139 159 157 147 120  98  81  76  76  70  75  82  86  82  78  73  57  49  47  45  39  37  35  38  38  36  28  29  31  34  42  43  80 164 189 195 196 195 198 198 198 198 198 198 195 196 198 198 197 197 198 198 198 198 198 197 197
 191 192 193 192 192 192 193 192 192 193 193 193 192 193 194 193 193 193 193 192 193 192 198 199 142  95  86  87  91 119 138 138 125 110 110 132 173 155 126 107 106  99  90  78  75  79  85  84  83  79  76  67  54  45  39  37  30  28  31  36  39  38  38  44  48  60  73  72 102 147 161 186 196 199 197 198 199 197 198 198 198 198 199 198 198 198 198 199 198 198 198 198
 192 192 192 192 192 192 192 193 193 192 192 193 193 193 193 194 194 193 194 193 193 200 187 111  57  58  64  79  94 119 170 211 182 142 124 133 129 160 138  88  79  99 101  86  69  70  79  71  87  91  78  78  80  79  70  60  59  67  73  79  83  79  78  88  79  61  63  58  72 115 145 156 180 199 199 199 199 198 199 196 198 199 199 198 198 198 198 199 198 198 198 198
 192 192 192 193 192 192 192 192 192 194 193 193 194 194 193 194 194 194 194 193 200 171  71  33  44  46  51  66 120 138 134 148 156 149 130 132 120 110 146 113  67  75  88  92  92  76  68  49  58  83  89  84  91  98 101  95  89  90  87  81  72  63  69  78  63  60  63  63  70 119 159 160 157 176 195 198 196 197 196 197 199 198 198 198 198 198 198 199 198 198 198 198
 192 192 192 193 193 193 192 192 193 194 192 193 193 193 194 193 194 193 193 199 176  62  27  47  41  41  43  65 126 135  67  43  54  75  87  83  98  85  87 121  77  50  53  71  80  95  99  72  54  52  59  83  89  81  71  59  49  46  47  46  47  60  73  66  56  55  51  51  64  91 110 127 141 144 166 182 192 197 196 199 199 199 199 199 199 199 198 199 199 199 199 198
 192 193 192 191 192 194 193 193 193 193 193 194 194 193 194 194 194 194 195 190  92  26  33  28  20  21  29  33  81 103  61  39  34  28  38  45  65  83  79  69  79  42  48  47  56  72  90  98  92  73  56  58  63  78  87  90  87  82  75  72  70  75  82  74  70  72  72  73  62  67 102 131 143 123 113 145 180 191 196 198 199 199 198 198 199 199 198 198 198 198 198 198
 191 192 192 192 193 193 193 194 194 193 193 192 192 193 194 194 194 196 201 143  46  39  50  58  38  20  16  12  14  30  44  58  66  35  31  31  36  60  87  73  66  50  29  46  50  43  54  68  84  88  84  79  73  65  73  83  94  95  93  95  98  97  87  86  87  65  51  40  40  61 112 137 137 126 104 100 140 182 186 194 201 199 199 199 199 200 199 199 199 199 199 198
 192 192 193 193 194 194 194 193 193 193 193 193 194 193 194 193 196 197 152  82  53  63  66  70  62  44  31  15  18  43  47  41  47  57  47  39  28  33  60  69  67  74  48  37  57  53  45  45  55  70  81  78  76  68  65  68  71  76  73  71  72  68  61  61  68  58  49  51  58  70  90 125 126 115 108  91  83 134 179 182 197 200 199 200 199 200 199 199 199 199 199 198
 194 193 194 194 195 195 194 194 194 194 193 194 194 194 193 196 195 140  74  48  42  47  47  31  21  29  40  32  20  35  38  42  21  30  45  49  39  30  46  52  51  58  67  59  47  52  62  60  46  35  48  61  65  63  58  52  47  60  63  66  77  78  78  79  88  88  78  60  58  78 109 110 107 113  93  82  73  83 145 178 185 200 199 199 199 199 201 199 200 199 199 199
 194 194 194 194 195 194 194 195 195 194 194 194 194 194 198 202 132  58  43  38  33  28  21  11  19  25  27  32  27  28  26  29  26  19  27  38  40  38  35  49  36  34  35  58  70  44  44  54  57  49  29  29  41  50  62  62  48  33  52  66  87  91  87  93 108 125 116  84  56  71 110 116  90 106  95  87  83  78  93 162 179 193 201 200 200 200 200 200 200 200 199 199
 194 195 195 196 195 195 195 195 195 196 194 194 194 196 189 131  55  35  36  33  31  24  13  12  16  23  28  30  30  30  30  26  28  22  21  27  29  31  31  34  42  32  26  23  49  67  58  54  50  56  55  41  34  33  36  50  59  61  63  71  81  94 102 121 141 148 139 116  82  68  88 103  85  82  90  73  94  91  86 112 174 188 199 200 199 200 200 200 200 199 199 199
 195 195 196 195 195 195 196 196 195 194 194 193 195 195 128  45  36  39  34  33  26  15  15  19  22  24  26  31  32  31  34  33  29  29  29  28  31  28  30  32  38  40  32  25  23  38  60  69  68  60  56  55  53  48  39  40  61  76  75  91 110 123 139 154 160 164 158 140 124  89  74  91  95  80  97  67  66  92  91  82 140 179 195 201 199 200 200 200 200 200 200 199
 195 195 196 196 196 196 196 196 197 195 194 194 198 168  71  39  38  38  36  31  15  17  25  26  27  36  45  50  45  53  57  56  51  43  39  39  38  42  39  42  43  42  44  47  41  38  48  64  74  77  76  66  62  65  62  78  98 116 123 136 156 171 177 188 195 192 180 168 159 113  92  90  96  71  83  96  63  77  81  76  86 160 188 202 201 200 200 200 200 200 200 200
 196 195 196 198 197 196 197 197 195 193 189 193 183 114  56  40  36  40  35  20  13  33  36  41  70  85  94  82  70  77  81  79  71  73  69  62  59  63  64  59  58  66  77  77  86  81  80  89  94 100 104 104 105 108 117 134 153 163 173 177 190 198 199 202 207 209 205 188 183 152 105  87  81  68  78  93  86  61  72  76  64 118 180 197 201 200 200 201 201 201 201 200
 196 196 196 197 197 197 195 197 196 196 194 192 157  97  51  34  37  36  25  13  25  45  59 102 120 126 122 108  90  88  93  94 101 107  99  94  98 100  94  95 111 119 120 116 127 135 142 144 138 139 139 142 144 146 161 177 187 197 202 203 206 205 206 208 208 210 209 200 193 180 134  80  70  76  76  82  98  73  62  71  65  70 159 189 200 202 201 202 201 200 200 201
 197 197 197 198 197 198 198 197 196 195 192 183 139  62  40  38  37  29  18  23  39  57 113 136 129 128 127 125 113 110 108 114 120 124 125 131 141 137 136 142 148 153 159 164 158 167 174 173 167 166 165 167 173 181 192 195 197 205 210 212 216 213 211 211 211 210 208 206 204 191 162 111  74  68  65  73  77  87  57  54  58  47 109 186 200 201 201 201 201 200 200 200
 198 197 196 198 198 197 198 197 197 194 201 155  57  39  43  38  28  23  17  34  48  95 131 134 130 131 131 137 138 132 124 129 137 148 151 155 163 166 166 164 165 176 186 191 190 188 190 186 184 183 188 191 194 201 206 210 210 212 211 209 213 214 213 210 213 211 208 206 203 198 179 141  89  70  59  64  72  69  66  41  53  49  62 160 197 202 202 201 202 201 201 201
 197 197 197 198 197 199 197 198 197 202 175  61  52  69  49  31  24  17  24  41  77 124 139 148 150 141 136 138 146 147 152 157 161 170 174 177 182 182 182 184 186 191 198 201 201 200 200 201 203 204 207 204 207 209 209 212 212 209 211 208 208 210 208 209 211 210 210 209 200 197 187 164 113  71  55  47  64  60  53  42  44  49  41 119 194 201 202 201 202 201 201 201
 196 196 197 196 199 198 197 198 199 197  95  39  77  63  45  30  19  18  39  63 111 134 148 161 152 144 149 148 147 155 162 167 177 183 185 189 189 189 190 192 194 197 201 206 207 208 209 209 211 208 204 204 206 209 211 213 212 210 207 209 208 210 211 209 210 209 211 208 201 199 192 175 139  88  57  55  49  60  49  39  36  42  38  76 175 199 201 200 200 200 201 201
 191 193 193 193 193 193 193 193 199 162  57  42  41  43  36  29  19  33  55 100 131 131 145 148 143 152 176 165 151 160 167 170 179 186 191 193 194 195 192 193 198 199 202 204 204 207 209 207 207 206 205 209 210 210 210 211 211 212 209 208 210 209 210 207 208 205 207 205 201 202 201 189 161 111  63  52  49  45  45  31  34  37  36  47 142 192 195 195 194 194 194 194
 185 185 187 187 186 187 188 187 192 137  46  34  25  23  30  26  27  50  87 127 142 150 144 140 152 177 172 157 162 164 168 173 177 185 194 197 195 195 196 195 197 200 201 203 205 209 208 209 208 208 208 208 210 207 210 210 209 211 209 208 206 207 208 205 206 204 205 203 203 203 202 198 182 129  86  55  45  39  36  31  27  33  31  36  96 175 189 186 186 185 186 186
 176 177 179 178 178 179 180 179 184 137  48  29  23  27  27  27  42  87 123 136 154 154 149 158 166 174 152 154 164 175 170 173 174 180 185 191 195 195 195 194 195 197 200 202 203 208 208 205 209 208 208 208 208 204 206 209 210 210 208 208 207 204 205 205 206 206 208 204 202 205 204 204 196 154 105  80  55  35  28  31  23  29  30  37  67 153 179 176 176 176 176 176
 168 168 169 169 170 170 170 170 175 121  41  27  35  35  27  28  84 155 178 166 141 151 166 176 174 155 145 157 180 189 175 172 175 173 178 184 189 192 194 191 192 196 194 197 202 203 202 204 206 206 205 206 206 207 206 207 208 209 209 208 209 205 205 206 205 206 206 208 203 203 204 207 203 178 116  87  80  38  24  26  21  26  28  36  56 131 169 164 164 164 165 165
 158 159 158 158 160 160 160 163 156  74  29  39  45  36  20  61 158 195 191 174 157 149 168 180 162 142 144 161 190 188 180 173 172 174 177 184 191 193 193 193 193 196 196 197 199 198 199 202 204 206 206 205 205 206 206 206 207 209 209 208 210 207 205 207 207 205 205 203 203 201 201 204 202 195 144  86  80  48  23  22  20  19  27  33  41 107 153 149 149 148 150 150
 146 147 147 148 149 149 151 153 114  44  36  50  43  27  29 104 181 180 154 158 174 167 164 155 143 150 150 170 185 187 185 174 172 175 177 182 187 191 190 190 190 192 195 200 200 197 198 199 202 206 203 205 208 207 205 208 208 206 208 208 209 208 209 209 210 206 204 202 203 203 202 200 202 202 170 102  75  54  26  20  20  15  26  30  32  87 136 134 134 134 134 134
 135 136 137 138 138 138 140 133  87  45  44  47  31  29  74 126 130 125 127 142 159 153 146 149 145 147 154 182 186 186 188 180 174 176 179 181 185 188 190 188 189 190 192 197 199 197 198 198 203 205 205 205 204 205 205 206 207 207 206 207 209 209 207 211 209 206 205 203 201 201 200 200 201 202 182 125  85  59  29  19  19  15  21  28  26  69 116 115 116 114 114 116
 123 124 127 126 126 129 129 115  74  52  49  33  28  45 129 178 168 154 149 136 135 134 148 154 156 152 164 183 181 182 188 186 177 177 177 180 184 186 189 192 192 190 191 195 195 195 195 198 199 201 205 202 199 205 204 206 208 206 207 207 208 207 208 208 205 205 207 204 202 200 200 201 200 201 190 136  85  64  33  18  18  16  14  28  29  59  98  95  95  96  96  98
 117 116 118 118 118 120 119 100  62  54  41  28  36  67 150 184 193 189 192 174 159 165 157 166 168 154 176 186 188 187 192 197 188 183 179 180 184 186 189 190 190 190 192 191 196 198 196 200 202 201 203 202 205 206 206 208 209 208 206 205 204 206 207 208 205 205 205 205 201 201 202 199 199 198 190 154 100  66  38  18  16  18  12  24  39  51  84  85  84  85  84  84
 117 117 117 117 117 118 117  94  64  45  30  32  41  82 150 176 188 196 196 195 183 172 171 178 162 163 188 190 192 193 194 202 199 192 188 187 188 190 193 192 190 191 191 191 195 198 198 198 200 206 205 202 204 206 209 208 211 209 207 206 209 204 205 207 207 206 204 205 204 199 199 200 196 191 187 164 120  77  44  21  14  17  13  15  31  53  86  86  86  85  86  87
 116 117 118 118 118 117 117 109  66  30  27  42  43  86 147 174 187 193 194 197 195 180 162 162 163 180 185 183 187 191 194 203 204 193 190 186 190 193 191 196 198 195 190 191 195 198 196 198 202 202 202 203 206 207 207 209 211 210 211 210 208 206 204 206 205 205 203 201 199 198 196 196 195 189 188 170 129  83  45  22  13  17  17   9  20  41  84  88  87  87  88  88
 116 118 117 118 118 118 117 123  53  25  30  43  44  86 149 178 184 188 195 192 188 184 181 169 183 185 177 180 180 187 190 191 198 196 189 189 192 195 193 195 200 199 195 194 197 197 198 198 202 202 201 205 207 210 209 211 213 214 210 210 208 207 207 207 205 207 203 200 198 196 194 192 192 188 187 174 134  82  51  26  14  15  18  11  14  25  76  92  88  87  89  89
 117 118 118 117 118 117 118 118  48  23  33  39  42  87 155 179 183 188 189 184 186 184 185 180 178 185 182 174 173 178 179 177 181 185 183 185 189 197 196 195 198 202 199 199 198 200 198 197 201 203 204 203 206 208 206 208 209 213 210 210 213 209 207 206 208 205 202 201 199 193 192 193 191 189 188 177 137  78  48  29  16  14  17  14  10  20  74  92  96  92  88  89
 117 116 117 117 117 115 122 117  52  24  34  37  38  88 163 176 182 187 183 178 183 186 189 189 176 172 175 167 163 165 166 166 168 169 172 178 182 189 192 195 198 199 196 197 197 199 199 198 201 203 205 204 206 206 209 206 207 207 208 210 210 209 206 207 204 202 200 199 196 193 194 195 193 191 190 184 142  77  46  32  18  14  14  18  13  15  63  92  90 105  96  88
 117 117 117 118 116 116 118 107  49  26  34  35  34  94 172 175 178 181 179 177 178 185 192 190 180 162 167 165 162 154 153 157 159 166 168 174 178 181 185 189 195 197 197 195 199 199 198 199 200 201 201 201 202 202 205 205 205 206 206 209 208 207 205 206 205 201 195 198 195 193 195 195 194 193 191 191 148  77  46  33  22  14  11  18  15  12  54  92  88  88  90  89
 117 116 116 116 116 117 119 102  53  28  33  32  32 100 172 172 173 172 170 171 176 182 184 181 181 166 163 168 162 155 151 149 149 153 157 162 168 170 177 183 187 191 195 195 196 194 194 196 197 195 193 192 193 196 198 200 204 204 204 205 205 202 207 206 204 199 194 194 193 192 195 196 196 194 193 192 159  80  43  33  22  16  10  16  20  18  51  91  89  89  89  87
 118 118 117 116 116 115 121 106  50  32  34  30  31 101 172 171 165 160 158 165 170 174 168 165 160 150 146 148 147 142 141 143 147 151 150 149 154 161 166 175 180 185 187 195 191 190 188 191 188 185 184 184 188 189 191 195 199 201 203 201 199 201 206 206 198 191 193 190 190 191 192 194 191 191 192 189 166  91  41  31  22  11  10  12  19  18  40  92  92  89  87  88
 118 116 116 116 118 115 121 113  53  30  30  28  28 102 172 166 162 151 148 151 157 157 143 136 129 132 116 113 115 106 102 105 110 114 127 134 141 148 154 169 176 178 185 192 189 183 183 185 177 165 166 165 166 170 173 178 180 180 182 181 181 183 192 203 201 198 193 187 184 187 190 187 190 191 192 190 165  94  42  29  24  16   8   9  14  16  36  89  90  88  89  88
 117 116 117 117 116 117 118 117  66  27  28  26  26 109 181 162 152 139 138 141 145 140 119 110 105  99  83  69  67  62  56  52  58  61  72  95 113 132 142 157 167 172 183 188 188 178 172 168 165 145 127 107  93 101 101 103 112 127 143 142 141 143 148 163 183 193 190 186 181 185 189 188 191 190 191 190 170  99  47  27  19  16  11   8  12  16  43  90  89  89  88  88
 117 117 119 117 117 117 119 122  81  29  25  25  29 111 182 164 143 131 124 127 125 114  93  71  66  67  58  46  42  41  39  38  40  46  58  68  81 103 123 142 157 166 178 186 185 177 158 138 138 134 103  76  65  57  53  50  58  71  84 102 121 119 120 128 144 164 170 178 182 185 187 188 192 193 192 192 174 107  51  28  16  17  16  11   9  18  53  92  90  89  88  87
 120 117 119 119 118 119 120 125  92  34  27  28  29 118 180 160 143 125 114 115 102  83  66  56  57  70  76  72  67  66  59  51  51  52  55  59  65  79  99 114 131 153 166 182 184 176 155 132 120 117  98  83  74  61  57  58  62  63  76  90  98 101 103 103 112 131 137 157 183 186 187 189 194 197 193 191 173 110  55  30  21  15  17  10   8  14  52  92  91  90  89  88
 119 118 119 117 118 119 120 127 105  44  28  28  32 126 178 158 145 118 103  98  79  64  63  70  82  92  96  97  92  95  90  67  52  52  52  53  57  64  74  91 116 141 159 175 181 182 163 134 109  96  89  85  83  83  85  90  92 104 115 119 119 116 110 112 116 116 125 147 174 184 187 190 194 196 194 191 176 115  61  35  24  21  16  16  20  23  55  93  90  89  89  90
 119 118 118 120 120 119 121 125 119  49  23  30  36 134 176 161 147 119  95  73  62  64  70  77  80  63  54  49  38  39  41  33  35  37  40  44  47  50  60  92 125 147 169 184 190 193 181 150 107  84  89 100  93  79  81  83  86  88  94  95 100 115 138 142 136 129 126 132 154 173 187 195 195 195 195 190 177 121  70  38  21  19  14  17  23  29  55  92  91  91  90  89
 119 118 118 121 122 121 122 128 116  40  18  31  40 143 175 155 136 115  91  65  60  64  75  73  50  45  38  37  58  60  24  44  26  30  36  36  35  40  50  87 134 163 187 202 210 208 201 169 107  98 110  94  75  75  63  53  45  50  55  55  73  85  86 125 149 146 138 141 160 180 187 195 197 196 192 190 181 118  67  37  23  16  21  22  17  29  69  96  92  91  91  91
 119 118 121 121 123 124 124 128 122  60  30  31  45 149 171 150 131 111  94  76  71  75  78  52  40  39  32  78 115  57  14  49  23  31  55  52  62  43  39  81 138 169 189 208 216 213 208 179 123 114 100  91  93  89 112  52  21  40  31  29  55  79  90  73 126 153 152 159 167 180 184 192 196 196 191 190 184 122  65  40  27  17  50  87  69  37  70 100  93  91  90  90
 119 121 123 123 122 123 125 131 133 115  66  32  52 153 167 148 128 115 104  94  88  82  69  52  34  20  51 114 138  65  22   7  15  50 126  78  90 123  74  82 137 170 192 207 215 210 206 189 165 151 142 109  84 139 150  62  27   5  21  59 115  47  67 100 102 146 160 169 174 181 186 191 195 196 193 191 186 126  62  41  27  30  78 128 120  45  42  92  93  93  92  92
 121 122 123 123 124 125 126 126 126 125  75  37  58 154 163 147 134 122 112 103  93  82  69  66  50  62  97 120 138 112  51  43  57  98 141 127 120 155 124  99 137 175 189 203 211 209 205 199 201 200 176 141 128 156 164 124  56  35  51 120 170 124  83 102 123 139 161 172 180 185 189 194 194 195 191 190 187 132  66  43  40  57 102  75  77  43  46  95  94  92  92  93
 121 121 122 124 124 125 126 126 126 127  95  50  64 153 160 145 132 122 120 113 106  93  84  82  82 100 111 124 135 143 135 134 147 141 129 134 149 143 126 111 135 177 187 203 210 207 201 203 207 203 186 176 168 167 173 177 161 142 147 177 168 158 155 169 155 154 169 179 182 189 198 199 197 193 191 190 186 133  66  49  70  79  70  54  59  14  63  97  95  94  93  93
 123 123 124 124 125 125 127 126 126 127 113  67  71 157 159 142 135 129 126 125 118 111 108 107 107 103 104 108 108 110 120 124 131 137 131 132 146 138 123 112 134 179 193 202 208 204 201 204 206 206 184 165 167 164 158 158 167 174 168 165 169 178 189 201 202 188 187 194 197 198 199 198 198 193 189 186 186 137  69  56  82  88  49  60  87  42  74  96  95  95  95  95
 123 125 125 125 125 126 125 126 127 127 126  95  80 156 156 142 140 138 133 131 128 128 127 120 115 111 106 111 120 123 127 135 142 152 158 156 150 128 118 111 142 212 217 202 204 202 202 206 206 211 209 185 173 173 171 172 173 177 185 191 192 197 203 206 209 211 209 207 208 207 202 199 194 188 190 188 184 136  70  61  84 128  78  57 118  79  86  93  95  95  95  94
 123 124 125 125 125 127 127 128 129 127 126 107  70 149 156 144 144 148 146 139 131 133 133 124 119 118 110 115 126 136 142 152 162 170 177 164 141 124 117 117 182 221 218 207 203 197 201 204 203 206 216 213 192 182 184 186 183 182 188 194 196 196 198 203 209 214 217 213 212 209 202 199 194 189 189 191 186 139  69  68 112 147 116  73 147  96  91  94  96  95  95  95
 123 124 126 127 127 127 126 128 128 127 128 104  66 150 158 148 153 159 169 169 150 142 149 140 128 122 126 136 144 154 160 164 171 177 179 159 136 125 113 154 214 226 224 205 203 199 199 202 204 204 208 219 217 201 188 186 191 195 195 197 197 196 199 205 209 210 212 212 210 208 205 199 196 188 188 188 187 146  62  84 142 159 139 101 156  99  89  94  96  96  96  96
 123 124 125 127 127 127 127 127 127 126 128  99  64 151 160 153 161 171 185 193 189 170 162 161 151 140 142 152 156 155 158 162 171 178 178 152 133 120 123 198 218 226 230 221 209 203 198 198 202 202 205 212 221 221 210 201 199 199 200 203 204 207 207 207 208 211 212 211 209 204 204 200 194 191 187 184 187 154  64  79 129 167 172 133 158  99  94  96  97  96  96  95
 125 126 126 127 127 128 129 127 126 128 131  96  64 152 162 159 166 177 187 196 200 190 177 167 163 160 160 165 163 165 170 173 176 180 172 146 128 105 153 218 218 220 221 230 218 206 198 195 197 203 205 211 215 217 216 218 214 212 211 211 211 210 211 211 211 212 212 211 209 205 202 202 195 189 182 183 188 158  69  80 116 158 179 166 152  92  94  96  96  96  96  96
 127 127 126 126 127 127 127 127 126 127 130  90  63 155 166 162 167 179 188 191 192 194 187 167 162 168 168 171 174 177 173 174 175 178 167 142 127 106 182 212 213 214 219 226 219 210 200 193 187 189 203 211 213 215 216 218 216 216 215 210 211 213 216 216 218 217 211 212 209 207 203 199 196 188 182 186 190 163  73  82 119 157 181 181 121  89  95  96  97  97  96  96
 125 127 127 129 128 129 127 127 126 126 129  86  78 162 166 163 166 179 186 185 189 189 189 178 163 164 165 168 173 174 171 175 176 174 165 146 125 125 192 192 201 211 213 216 221 213 201 195 197 183 182 204 211 213 214 215 215 215 215 212 213 215 216 213 214 213 210 209 208 207 204 196 193 188 186 187 190 173  85 103 144 173 195 172 100  93  96  97  97  97  97  97
 128 127 127 129 129 130 129 128 127 127 127  85  95 165 169 166 172 177 181 183 181 181 181 173 161 157 161 165 169 168 170 176 180 178 163 155 130 150 161 158 172 189 191 189 195 193 191 193 199 197 175 186 208 214 214 215 212 214 214 214 214 216 213 209 208 211 211 210 209 206 203 197 192 186 187 187 191 177 103 132 166 206 209 151  92  96  97  97  98  97  96  96
 127 127 128 128 128 128 128 127 127 128 125  88  98 167 173 167 170 172 177 178 172 178 173 163 161 161 162 165 165 165 173 179 185 174 156 153 126 122 100  95 115 152 167 160 154 148 153 165 187 194 179 158 186 205 216 219 216 215 215 214 218 216 216 218 215 212 212 211 210 202 203 198 193 187 185 188 190 178 107 135 183 222 211 131  88  96  96  97  97  97  97  98
 127 127 129 129 129 129 128 128 126 127 122  95 108 168 171 166 170 172 174 175 176 176 176 178 178 167 162 163 164 167 172 177 182 169 156 144 105  73  52  44  65  95 124 127 123  89  51  62 115 158 173 142 155 187 206 210 216 217 218 216 217 219 218 217 217 216 215 215 213 207 200 196 192 188 183 189 190 169 122 165 204 223 202 114  90  96  97  98  98  98  97  97
 128 128 131 129 128 130 128 128 128 128 123  94 102 164 164 165 170 169 172 180 182 183 189 193 196 181 167 159 164 167 168 177 176 161 147 135  87  58  30   8  30  65  75  85  86  38  13  11  41 106 148 141 128 157 184 201 206 210 217 218 214 217 217 214 216 217 217 213 209 207 204 199 192 187 187 190 189 158 118 178 224 210 179 105  93  96  96  97  97  98  97  98
 128 128 129 130 129 129 127 127 128 129 119 103 105 150 163 162 167 173 177 179 181 185 188 193 203 191 175 162 162 167 172 176 166 156 148 133  57  48  42  36  45  56  64  65  79  87  90  69  50  85 146 175 134 132 162 186 201 208 212 213 212 211 216 217 214 217 215 210 209 206 203 200 193 183 188 190 188 149 110 177 200 181 176  98  93  96  97  97  97  98  97  97
 128 129 129 131 129 128 128 129 129 132 118  99  91 140 162 156 165 172 176 180 181 183 187 191 191 190 183 166 156 165 172 170 158 151 147 135  52  31  41  44  41  43  49  57  84 136 158 152 135 151 189 206 171 128 146 172 190 203 204 208 211 210 212 216 216 217 213 211 207 206 205 200 194 183 188 190 185 137 112 164 177 205 186  96  93  96  96  98  98  98  99  98
 131 130 130 130 129 129 129 131 130 130 122  93  83 136 155 152 162 171 177 178 180 181 184 189 187 185 175 165 162 167 167 158 153 149 152 148 104  67  48  39  27  29  56  86 105 139 133 128 180 205 211 209 203 158 133 155 180 194 199 202 207 209 209 212 213 216 213 210 208 204 204 199 193 187 186 187 178 125 101 169 204 223 175  94  95  95  97  98  97  99  98 101
 129 130 131 130 130 130 130 129 129 128 124 102 101 134 153 149 162 169 175 176 181 181 182 181 180 176 176 169 162 166 165 155 155 153 157 150 145 121  83  52  44  61  98 141 142 120 114  90 107 159 200 211 212 192 144 145 170 186 193 201 206 210 209 209 211 212 209 207 206 208 204 199 191 186 183 182 170 116  95 183 214 217 156  91  96  98  97  98  98  99 103 105
 130 131 130 130 129 129 129 131 129 129 129 112  99 111 146 145 159 174 173 174 173 175 176 174 175 176 176 169 163 168 161 153 153 152 153 147 138 113  82  56  84 102 136 177 161 124  99  82  77 110 171 211 214 207 176 149 170 185 192 198 203 205 209 210 208 207 210 208 205 206 205 199 190 181 181 179 165 107 100 197 223 209 130  90  96  97  96  98  99 100 101  92
 131 131 130 129 130 130 130 130 129 130 128 116  89 107 138 146 153 163 169 175 170 170 169 169 169 170 167 163 166 166 156 155 156 153 150 140 116  87  59  63  88 127 171 190 176 157 125  96  74  97 133 181 198 210 199 163 166 185 193 193 198 207 207 206 204 205 210 208 207 204 200 197 191 181 177 176 156  88 111 210 220 207 117  91  96  98  97  98  99  99  86  69
 131 132 131 131 131 131 131 130 132 131 132 122  83  98 124 144 151 155 163 162 165 165 164 164 165 164 154 152 158 157 148 153 155 150 134 117  96  70  55  63 105 162 190 193 189 182 147  98  81  99 122 157 167 181 204 184 168 180 188 195 202 203 203 204 205 205 206 205 204 203 198 192 187 181 176 173 145  85 118 215 216 197 113  91  97  97  97  99 100  88  70  27
 130 131 131 131 130 131 131 131 131 131 136 122  79  78 112 140 153 157 156 153 160 159 151 152 155 153 151 147 152 149 146 148 146 130 112 102  86  71  74  96 125 127 139 153 152 143 132 110 111 148 154 147 150 146 174 196 177 177 185 190 199 205 203 201 195 201 205 205 203 202 199 192 186 177 172 167 129  80 142 219 210 165  99  94  96  97  99 100  99  72  42  13
 129 131 131 130 132 132 130 132 131 132 134 124  82  74 100 136 147 150 151 150 150 148 145 145 137 139 146 153 152 143 140 138 125 101  86  86  87  87  85  99  97  94 105 118 130 134 133 136 135 147 166 171 145 123 141 183 186 177 183 190 194 201 203 199 199 198 202 203 201 201 193 190 182 173 167 158 107  69 173 214 187 118  93  97  97  98  98 101  96  58  28  10
 131 132 132 134 132 133 133 131 131 132 136 124  85  67  97 126 142 140 135 137 140 141 140 140 134 135 141 151 147 138 141 137 111  76  67  68  73  70  68  70  65  64  78  84 100  95  92  98 121 134 127 142 138  95 108 172 191 184 182 190 195 196 201 199 198 199 199 200 195 195 189 186 177 169 161 147  86  76 178 182 124  93  97  98  98  96  98 103  90  49  19  13
 131 132 132 132 132 134 132 133 134 134 136 127  84  69  84 115 133 126 120 125 130 133 131 131 130 129 137 149 146 140 141 132  88  67  61  50  43  41  40  29  21  41  57  59  49  50  46  38  65  96  90  68  86  90  91 146 191 190 187 192 199 200 200 199 197 195 194 195 193 194 189 183 173 164 154 130  69  73 130 117  96  98  98  98  99  99  98 102  90  41  12  15
 131 131 131 131 132 132 132 134 134 135 136 133  86  63  75 104 115 111 110 115 120 127 125 123 123 126 129 147 151 148 152 133  78  72  52  26  27  56  68  82  82  66  61  61  65  94 119 138 151 136 112  54  45  85  92 121 180 194 193 193 197 201 201 199 197 193 193 193 188 191 185 174 168 158 141 107  64  76  97  97  99  99  98  98  98  98  98 103  91  33  13  12
 133 132 132 132 133 134 133 136 137 138 140 138  74  52  59  89 103 101 100 105 112 116 112 117 116 122 126 147 154 160 163 137 100  89 102 103  88  99 112 129 156 164 154 141 163 186 194 186 179 175 165 145 144 138 116 135 174 194 194 193 193 193 197 197 194 193 190 188 188 187 177 168 162 146 119  86  66  90 104 101  99  99  98  98  98  99  99 100 102  39   6  11
 132 132 132 135 135 132 125 118 110 108 112 108  56  49  49  73  87  91  88  95 105 103 105 113 117 119 121 142 153 158 166 146 123 140 147 139 133 119 106 106 141 168 179 177 182 186 178 162 163 168 179 194 205 195 166 159 181 193 194 194 193 188 193 193 191 194 186 185 183 169 164 160 156 131 103  75  68  95 104 101 101  99  99  98  98 100  99  99 107  64   1   7
 133 133 135 126 105  89  71  59  50  51  55  64  44  46  57  56  65  77  78  83  94 101  96 103 110 114 115 133 152 162 168 154 150 161 160 150 135 125 119 106 120 142 149 152 153 149 154 162 172 181 194 202 209 210 195 171 178 189 191 194 192 192 192 188 185 189 183 182 175 164 155 141 142 115  91  57  68 102 103 101 102 100 100 100  99  99  99 100 103  94  10   2
 132 136 112  79  68  69  67  45  33  40  51  58  39  45  55  53  57  68  72  77  86  91  88  93 102 108 120 132 148 155 165 164 161 162 160 152 141 122 126 118 113 119 120 124 131 143 157 169 175 183 196 204 208 214 207 181 173 186 192 193 193 193 186 184 175 180 172 172 173 168 153 133 126  94  68  48  77 105 104 102 102 101 101 100 100 100  99 100 102 109  48   0
 141 117  64  59  53  38  41  54  62  56  48  39  29  43  48  44  48  56  69  71  76  76  77  88  91 104 112 125 140 149 160 168 154 153 154 151 141 123 119 117 114 102  92  95 104 128 149 158 170 183 192 197 202 210 209 192 172 177 188 192 183 176 170 172 163 167 164 164 163 154 137 127 116  68  47  48  82 107 104 103 102 102 100  99  99  99  99 100 100 103  99  24
 114  66  58  77  84  59  12  12  32  41  42  48  44  49  51  43  40  48  68  64  73  74  66  81  81  93 105 121 130 143 154 162 149 143 145 147 138 121 114 118 118 103  87  88  91 116 139 152 164 178 186 189 196 201 205 199 183 174 177 175 169 160 165 170 160 147 159 156 132 136 131 119  97  52  46  56  95 103 104 105 102 101 101 100 100 100  99 100 100 101 107  88
  44  55  70  76  83  80  24  19  54  66  69  64  48  47  53  43  39  42  58  58  66  68  67  70  82  85  95 107 122 143 151 154 144 139 141 144 139 123 109 109 114 104 103 107 106 115 130 147 161 170 178 184 190 194 201 201 188 177 168 160 158 157 150 152 154 142 151 138 120 123 118 101  73  47  47  62  91 101 106 106 103 102 103 102 100 100 100 101 101 101 102 106
  55  67  72  72  75  74  39  61  72  71  67  60  45  40  52  42  33  40  44  48  49  55  66  65  73  79  89  89 108 133 146 151 144 142 147 145 139 132 119 113 121 119 115 112 117 127 138 146 160 168 177 184 188 193 196 198 193 181 166 153 145 150 151 147 145 141 144 133 114 106 100  75  62  49  36  60  83  94 104 104 105 102 103 101 100 101 100 101 101 101 101 103
  63  68  71  69  72  75  56  69  69  67  60  53  45  48  50  43  28  39  32  37  39  43  59  63  57  65  79  78  92 113 135 142 141 146 154 155 149 140 133 128 134 129 116 114 135 148 154 159 167 171 177 184 192 195 195 197 189 178 160 138 131 132 136 140 136 137 135 118 101  88  76  56  48  37  31  51  81  97 108 105 104 101 102 102 101 100 101 101 101 101 102 102
  68  67  66  69  72  77  64  68  72  64  54  51  38  41  48  40  23  28  24  31  32  40  54  52  48  63  75  66  90 121 119 123 134 139 155 163 165 157 150 151 162 148 119 140 167 174 177 180 175 174 181 189 195 197 195 191 177 165 162 133 128 118 118 123 126 125 124  91  74  77  64  43  32  30  29  35  56  82 109 108 104 103 103 103 102 101 101 100 101 101 101 102
  69  66  67  67  67  77  70  65  63  54  48  46  35  37  40  41  21  23  17  26  25  37  43  42  48  77  75  57  89 120 101 105 132 144 156 166 178 172 169 173 174 142 140 182 195 187 190 198 195 187 186 194 196 199 194 176 158 151 155 132 111 108 107 109 111 101  94  72  68  57  50  34  18  24  26  30  37  46  70  96 111 110 107 105 104 101 100 102 101 102 102 103
  68  71  68  59  69  75  74  57  52  47  43  37  26  30  33  31  23  21  15  20  24  31  37  31  49  70  59  52  76  90  79  98 115 138 153 167 184 183 175 171 156 139 161 180 199 206 211 212 202 199 200 202 202 200 192 167 126 122 131 126 101  90  90  98  84  80  59  72  61  44  36  20  21  28  22  21  26  36  43  48  56  74  88  99 104 104 103 103 102 101 103 103
  67  71  65  61  63  69  73  59  46  45  39  33  24  25  34  22  18  20  15  19  23  26  28  25  51  58  56  60  66  66  67  79  95 117 148 169 177 181 173 161 142 142 162 162 180 201 202 216 210 209 207 207 203 195 189 168 122  98  93 104  96  88  79  65  62  54  47  57  45  39  33  25  23  28  24  18  16  27  38  44  34  34  44  54  62  75  88  99 101 102 102 102
  55  56  63  60  59  63  73  57  45  44  42  31  19  24  23  16  17  15  11  16  18  24  21  27  48  48  47  56  60  48  48  54  73  98 130 163 168 167 160 153 135 151 169 155 174 169 183 188 205 210 211 205 202 193 176 157 117  88  67  78  74  80  74  43  45  46  43  47  47  35  31  24  21  32  34  14   6  17  30  41  65  79  74  73  68  55  54  69  90 103 103 103
  21  34  48  47  46  57  69  64  43  41  39  27  23  25  19  14  13   6  10  14  14  16  19  24  32  39  40  53  52  40  46  44  54  77 112 145 148 133 140 121 124 159 157 154 162 156 163 165 160 187 207 203 205 196 165 138 105  82  65  46  54  67  64  41  36  42  40  44  44  35  27  25  25  21  26  16   0   8  22  34  50  76  74  72  84  89  85  82  88  94  96  99
   8  15  20  29  34  45  58  63  45  39  33  25  26  30  20  12  10   8   9  10  11  11  14  18  23  29  30  37  37  32  42  41  45  62  88 112 118 108 104 102 123 144 149 150 135 123 134 132 144 146 177 182 196 189 149 118  95  64  43  41  52  55  43  34  30  38  37  38  30  25  24  30  24  23  25  17   0   4  12  27  37  60  71  62  67  74  79  80  80  77  82  89
   8   7   7  16  27  32  48  62  55  36  31  26  21  21  20  10   5   6   5   7  10   9   7  13  22  26  22  26  23  28  46  42  52  47  65  88  93  78  84  89 109 127 128 127 118 110 109 107 120 136 136 144 180 171 127  83  78  66  41  42  43  47  37  30  35  37  43  35  28  26  21  32  29  22  21  15   3   1   3  18  33  46  71  66  62  69  72  70  67  70  75  80
  45  24   5   7  16  24  36  58  56  35  31  27  19  18  16   8   6   6   5   7   9   7   7  12  16  27  24  27  32  40  31  34  38  34  43  54  69  53  64  77  84  97  99 109 105  94  87  93  93  99 125 124 140 126  93  72  65  53  36  32  40  35  32  30  40  39  38  32  37  29  26  36  27  15  19  20  11   0   0  11  27  38  61  70  62  61  63  68  66  67  73  75
  82  60  31  19  16  14  23  42  48  45  33  26  23  17  12  13   6   4   4   3   4   6  12  12  19  16  20  23  26  22  19  23  23  19  25  28  46  38  40  57  72  76  87  80  79  85  76  79  80  76 100 112 108  73  68  63  57  44  31  31  39  33  24  34  45  51  37  32  33  31  44  52  25  15  19  20  23   7   0   4  19  33  47  53  48  43  44  58  65  65  65  69
  78  78  64  44  32  18  14  26  43  47  36  28  29  23  16  10   6   6   3   3   4   5   8   5   5  28  27  22  16  12  14  20  21  20  20  27  45  28  29  56  58  57  69  60  63  71  66  65  54  63  76  81  62  55  56  55  47  41  32  31  28  31  32  39  47  45  33  34  25  36  73  80  18  11  17  21  31  26   6   0   9  26  38  43  35  30  33  42  54  62  66  70
  64  75  80  64  42  29  11  13  34  43  41  31  28  27  19  10   8   6   3   2   3   6   7   5   4  10  14  14  13  13  13  20  17  17  17  18  22  20  22  38  51  47  50  50  54  64  69  49  43  47  56  59  48  54  44  46  40  38  30  23  31  37  36  50  44  32  30  32  23  48 101  74   5   8  15  19  35  36  22   6   2  16  33  43  37  29  33  36  39  53  61  67
  62  62  73  81  61  40  20   5  17  37  43  36  27  25  23  17   5   6   3   3   5   5   6   8   9   8   7  11  12  10  10   9  19  20  16  16  15   9  13  17  36  50  34  37  45  58  77  40  34  37  41  37  44  54  48  33  38  42  26  21  34  41  36  50  34  27  33  27  27  73 119  65   0  10  18  19  30  34  34  15   2   7  25  40  40  31  34  37  35  35  37  45
  68  62  63  75  74  56  39  16   2  26  42  40  29  27  23  16   6   5   5   1   4   8   5   5   6   5   4   7  16   8   8   8  13  15  14  12  12   8  11  12  24  50  48  39  42  44  49  40  32  28  28  31  30  41  48  29  32  30  20  20  28  35  30  39  25  24  29  26  47 105 129  43   1  12  18  19  26  32  35  24   7   2  16  35  44  33  32  36  37  34  30  32
  72  72  68  65  75  75  54  36   6   7  34  49  33  33  23  21  13   2   3   3   5   6   7   5   4   4   5   6   5   7   7   8  10  10  12  10  10   9  12  14  12  24  40  38  31  37  39  23  31  21  19  31  28  25  29  34  31  22  21  19  24  30  30  26  24  30  32  30  71 142 122  15   5  13  18  18  23  32  34  30  14   1   7  28  44  37  30  35  36  34  31  29
  79  77  72  66  68  77  76  55  26   0  16  42  42  27  36  28  23   7   2   6   3   4   3   3   4   4   4   4   5   5   5   4   7   7   8   9   7   8  10  15  14  14  17  23  19  25  31  26  21  13  15  23  25  18  19  28  25  23  19  16  23  26  24  22  24  25  26  41 105 148  86   1   7  14  19  16  21  30  33  33  23   5   2  21  40  42  32  34  37  35  32  28
  72  76  75  71  66  67  77  69  47  11   0  25  48  30  24  41  26  14   5   5   2   2   2   1   2   6   4   3   4   4   4   4   7   8   4   6   8   6   8   9  11  13  20  22  14   9  12  22  20  13  15  21  23  11  11  16  16  13  19  19  18  19  24  24  18  21  28  73 136 136  42   1   9  17  17  15  18  29  32  32  30  13   2  14  33  42  36  33  36  36  30  28
  68  74  78  75  70  61  67  71  61  36   3   9  36  46  15  23  38  25  10   7   3   1   2   1   1   4   4   5   5   4   4   5   8   6   3   3   8   9   6   7   8  12  17  21  19  19  18  15  18  17  20  17  16  11  14  18  16  17  20  18  15  26  29  17  19  21  54 116 145 102   7   5  10  18  17  16  18  24  32  32  31  18   5   6  28  45  43  34  36  38  33  28
  61  63  70  73  72  65  62  62  59  54  24   0  20  44  36   2  18  38  16   9   7   0   5   2   1   1   2   4   4   4   3   3   3   3   3   4   5   4   6  13  12  13  12  14  11  13  16  14  16  15  15  13  14  13  15  16  12  14  14  13  22  24  19  16  23  61 110 137 139  53   0   8  12  18  16  15  17  21  30  31  32  23   8   2  20  37  45  38  38  37  34  30
  60  55  64  71  72  69  65  59  54  54  48  11   3  31  47  20   0  16  34  14   3   2   3   1   1   1   1   4   4   2   3   2   1   9   7   3   4   4   4   7  15   8   9  12  17  15  16  16  13   9  13  14  17  16  15  13   8  12  16  14  17  15  10  21  65 106 132 140 108  11   3  11  17  20  15  15  17  20  28  31  30  26  12   2  11  31  44  44  37  37  34  31
  56  54  51  61  68  68  66  59  51  54  56  35   1  14  42  42   5   0  17  33   6   3   3   2   1   0   1   4   6   2   3   4   3   5   4   2   2   4   5   4   5   5   6  10  20  14  13  15  10   8  15  18  19  15  13  10   6  12  14  12  14  14  27  62  96 120 134 134  52   0   9  15  20  19  14  15  19  19  25  32  31  30  18   5   3  22  39  47  38  36  32  30
  44  54  48  49  58  71  73  61  50  49  55  52  23   1  27  47  25   0   2  19  25   4   6   8   2   1   0   0   2   4   1   3   4   4   4   3   4   5   4   6   5   6   6   7   7   6   5   6   7  10  15  16  15  15  14   9  11  12   9   9  11  34  72 108 120 129 135  93  10   4  14  19  22  18  14  15  19  21  23  30  34  32  24   9   3  15  34  45  40  34  32  29
  29  46  49  37  47  59  70  66  52  47  51  57  50  12  10  38  42   7   0   4  23  16   6   9   7   2   0   1   0   0   1   2   4   6   4   5   3   4   4   4   5   7   5   5   6   6   6   7   8  12  13  14  17  15  12  13  16  12  10  10  36  76 109 119 125 130 113  31  13  12  15  20  22  17  13  14  17  21  21  26  34  34  30  15   3   7  28  41  44  37  35  31
