P2
# Generated by OpenCV 4.2.0
92 112
255
  39  34  26  27  36  51  69  83  94  97  96  94  93  91  97 101  76  42  41  52  49  46  46  42  47  54  51  50  50  32   8  12  36  61  62  65  58  50  47  31  32  24  39  34  35  36  42  43  39  36  40  57  64  73  77  78  79  82  83 123 159 158 158 160 158 157 159 159 159 159 160 159 159 159 159 159 158 157 157 157 156 156 156 156 155 155 155 155 154 154 154 154
  37  31  26  27  35  50  69  86  95  99 100 100 103 107  90  56  40  36  36  33  28  31  37  34  32  37  42  46  51  54  51  32  19  27  45  58  71  63  52  46  33  26  21  21  25  27  29  34  42  48  58  60  58  61  63  63  71  77  84 105 142 160 161 160 161 161 157 160 160 160 159 159 159 159 159 159 159 158 157 157 156 156 157 157 154 154 154 154 154 154 154 154
  31  26  23  26  35  51  69  87  97 101 106 116 112  65  27  15  15  20  21  17  15  19  14  15  22  19  16  22  29  23  35  47  50  34  27  30  36  56  66  67  56  49  37  29  33  37  38  40  42  46  46  50  51  43  41  40  39  44  60  77 118 161 163 156 155 158 159 158 160 161 159 160 159 159 160 160 159 158 158 157 157 156 157 157 155 155 154 154 154 154 154 154
  27  23  21  25  32  47  66  85  97 105 117 110  46  14  12   7  16  28  11   7  11  19  24  15  14  25  12   8  20  29  12   7  21  36  43  34  30  39  55  74  86  82  48  32  30  30  30  22  20  25  23  22  24  24  29  32  39  46  46  51  87 115 102  99 102 108 125 143 159 164 160 159 161 161 160 160 159 159 159 158 157 157 156 156 156 156 155 155 154 154 154 154
  22  21  19  22  28  42  59  77  95 109 103  34  14  12   8   8  16  28   8   6   6  10  19  24  16  15  18  12   4  21  39  22  10  11  27  38  33  31  41  53  63  90 101  66  27  22  23  32  28  36  40  38  38  42  42  42  43  32  26  27  33  39  50  67  72  76  78  88 113 147 164 160 159 160 161 160 159 159 159 158 157 157 156 156 156 155 155 155 155 155 155 155
  19  16  13  16  24  37  52  71  90 102  71  43  22  10  19  12  10   5  19  23  10  25  10  18  21  21  16  21  16   3  22  39  27  23  19  25  46  39  26  35  46  42  65  94  89  64  34  18  14  13  17  23  28  29  30  25  20  21  23  17  17  25  44  52  57  60  66  72  78  91 128 158 163 160 159 160 160 159 159 158 157 157 156 156 158 155 155 155 155 155 155 155
  16  12   9  11  19  31  46  63  84  75  53  42  39  45  18  18  21  11  27  29  22  34  15  13  24  15  31  31  31  14  12  35  37  24  26  32  38  50  40  33  32  45  32  31  66  84  81  65  44  27  22  23  21  21  24  27  26  26  29  29  33  22  38  53  62  62  63  62  69  71  80 118 155 162 159 160 158 159 159 158 157 157 156 156 157 156 156 157 155 155 155 155
  11  11   7   9  18  29  42  57  70  61  62  34  63  30  21  40  28  14  26  25  29  31  21  17  26  26  40  40  34  27  16  30  42  29  23  38  45  43  38  43  35  24  56  37  15  43  63  67  80  69  50  43  44  44  43  44  44  37  44  56  42  26  39  54  51  50  64  68  62  74  71  75 111 152 163 160 160 159 159 158 158 156 156 156 156 156 156 156 155 155 155 155
  10  10  12  14  20  30  41  54  65  63  72  43  49  26  27  34  30  23  28  27  31  29  30  34  32  32  32  25  39  21  10  28  37  41  24  52  60  39  35  19  47  42  32  55  43  11  35  51  54  77  74  52  37  41  43  45  51  57  55  60  53  31  35  52  65  57  52  60  63  65  85  72  69 106 151 163 160 159 159 158 157 156 156 156 156 156 156 156 155 155 155 155
   9  13  17  21  27  33  39  51  65  70  72  48  28  19  26  23  20  27  32  36  37  36  34  40  45  42  30  21  23   9   1  19  34  43  34  48  63  39  38  36  18  55  35  25  47  46  12  38  45  37  70  79  65  38  24  22  28  43  43  58  67  41  34  34  36  50  67  56  61  64  69  84  68  69 102 144 163 158 158 158 158 158 157 157 156 156 155 156 155 155 155 155
  12  16  21  27  33  40  46  51  64  70  60  42  25  17  19  18  11  18  36  37  55  33  19  25  39  51  53  30   5   9   0  14  31  41  36  53  48  40  29  54  39  28  53  18  17  35  38  15  51  41  23  50  67  63  46  32  39  52  62  79  71  48  31  46  46  31  51  72  61  64  65  78  80  61  70 100 152 162 157 158 158 158 157 156 156 156 156 156 155 155 155 155
  16  20  25  34  41  48  52  58  59  52  43  40  27  21  20  19  21  30  34  35  55  26   9  11  13  22  53  34  10  18   0  11  40  60  58  53  28  15  21  39  60  29  52  40  15  11  33  31  25  53  29  42  53  44  50  65  60  60  68  94  57  44  40  33  49  58  36  57  76  67  69  68  84  72  57  72 115 160 160 158 157 157 156 156 157 156 156 156 155 155 155 155
  17  23  29  36  46  54  57  58  48  42  20  22  35  24  15  18  19  28  33  19  36  23   4   9   2  10  43  25  20  20   1  19  64  66  69  51  43   6   9  16  57  38  41  52  29  27  24  36  26  46  39  49  57  50  46  68  95  91  73  79  73  46  52  54  40  56  59  37  59  79  72  75  78  92  66  51  74 130 163 158 156 157 156 157 158 157 156 155 155 155 155 155
  18  22  31  41  54  64  65  62  43  21  16  13  22  28  25  18  14  25  35  18  15  15   5  12   3  20  33  22  33  21  20  45  74  40  40  36  35  26   9   5  41  38  34  52  47  30  43  55  51  42  40  50  70  75  62  81 103  95 103 103  82  56  42  57  69  51  57  65  41  64  83  75  80  84  90  60  46  87 157 160 157 156 156 156 157 156 156 155 154 154 154 154
  18  37  60  66  71  68  74  51  14   7  14  21  27  24  26  33  36  43  39  32  22  14  10  16  13  28  24  22  38  46  63  41  35  18  17  22  21  30  19  12  31  34  23  33  50  63  67  81  94  64  38  78 109  92  83 111 143 132 140 128 101  81  59  47  62  73  57  67  66  40  72  80  75  76  82  86  57  47 123 167 158 156 157 156 156 155 155 155 154 154 154 154
  55  77  86  83  73  67  59  18   7  11  14  21  23  28  17  14  25  31  31  35  27  21  16  25  40  41  25  27  44  59  43  10  10  11   9  10  21  22  25  21  37  32  21  34  55  59 112 110 124  72  52 105 116  88 118 141 167 179 176 161 133 102  90  75  51  64  78  74  74  62  47  74  77  75  66  76  80  46  71 161 159 157 158 157 156 155 154 155 154 154 154 154
  81  86  88  88  77  65  30  10  16  19  18  20  23  33  32  16  13  25  33  29  30  32  27  30  50  54  34  35  48  33  17  13  12  20  24  14  15  26  40  30  39  49  37  41  60  69 117 154 124  60  91 133 136 143 157 161 182 192 185 178 160 139 111  85  75  54  58  80  77  76  56  48  75  66  66  57  75  69  43 124 165 157 158 157 156 155 154 154 154 154 154 154
  95  99 100  93  79  56  28  18  14  12  14  22  32  34  30  25  24  33  44  41  33  35  43  33  34  51  48  40  46  47  49  45  33  30  50  37  25  36  46  50  47  62  75  59  69  89 118 119  96  98 124 161 167 173 179 183 191 190 198 196 181 161 146 105  88  83  58  58  86  79  69  55  59  73  54  64  54  75  49  74 163 158 157 157 156 155 154 154 154 154 154 154
 109 113 111  99  69  38  13   7  12  19  28  40  40  33  36  37  42  57  86  88  56  43  50  48  47  40  49  51  52  48  57  67  75  59  68  66  54  58  67  78  87  78 108  87  95 117 120 113 144 153 150 175 181 187 192 197 197 196 194 199 193 177 169 137  96  87  80  54  67  86  72  59  63  74  55  53  53  49  62  41 135 163 157 156 155 154 154 154 154 154 154 154
 118 119 117  96  57  12   2   9  16  22  29  24  24  31  27  38  77 119 138 134 113  76  68  66  61  52  55  59  67  62  47  49  51  62  68  71  89  95  97 110 117 121 135 128 131 134 133 153 176 170 167 187 189 195 202 201 199 197 202 200 199 184 179 164 133  87  87  75  56  69  78  62  62  68  56  39  52  39  49  41  91 165 158 156 155 155 154 154 155 154 154 154
 121 119 110  84  40   4  11  20  22  20  19  26  24  18  20  79 138 160 164 168 166 154 111  89  85  76  82  84  83  90  82  77  80  70  80  86 106 129 144 155 159 162 163 158 163 150 150 183 181 179 185 193 196 198 201 201 200 199 204 204 197 192 184 174 158 121  77  83  69  57  67  63  49  64  63  40  35  50  34  40  59 158 157 157 156 155 154 154 154 153 153 153
 122 118 103  76  48  24  21  19  13  13  16  14  22  24  66 140 160 170 174 181 183 186 176 142 135 133 124 127 131 124 125 132 130 135 136 142 150 155 162 173 173 167 176 178 184 171 177 190 191 191 191 197 200 198 199 201 200 201 201 205 200 196 189 179 169 150 100  71  84  57  53  58  44  51  61  45  31  34  39  30  34 136 162 156 155 155 154 154 154 153 153 153
 123 119  99  73  44  16  10   9   9   4  13  30  25  31 117 164 168 175 182 188 190 192 190 183 175 175 174 177 178 178 175 165 166 170 171 174 182 192 194 193 189 187 184 190 192 186 190 191 193 195 198 200 200 201 200 200 202 202 202 201 201 199 193 183 176 164 138  89  73  65  41  49  46  40  67  43  39  20  31  29  25 107 167 156 155 155 153 154 154 153 153 153
 124 118  89  64  35  20  14  10   4   6  18  22  19  70 157 172 171 178 187 189 192 194 190 182 188 188 191 192 189 188 191 189 185 185 190 194 196 199 199 196 195 194 194 199 198 196 195 197 198 197 198 199 199 200 200 198 202 205 205 203 199 196 194 184 178 170 154 120  75  75  45  40  43  38  48  51  28  28  18  26  16  79 166 156 155 155 155 154 155 154 153 153
 129 115  81  55  32  17  16  13   3   6  13  21  40 120 166 170 175 180 186 188 192 196 189 183 189 192 190 195 192 195 195 196 198 198 198 200 203 201 197 197 197 197 195 198 198 197 198 196 198 198 196 198 199 199 197 200 201 202 203 204 196 198 196 193 185 175 170 144  92  75  70  35  32  32  31  58  28  29  17  16  12  36 153 158 156 156 154 154 154 153 153 153
 129 109  75  43  28  20  18   7   4   5  15  19  63 147 165 172 176 181 183 187 190 189 188 192 196 194 194 197 194 197 197 200 202 203 202 204 203 201 200 196 197 199 197 197 196 194 197 199 196 198 198 198 198 197 200 200 201 201 203 203 196 199 199 196 192 187 179 161 127  70  72  52  28  27  25  48  47  18  24  13  19  12 118 164 154 153 154 154 154 153 153 153
 124 101  66  38  35  30  23   6   4   7  10  25 106 161 167 173 176 180 181 185 185 187 191 193 197 199 198 197 196 197 198 200 201 202 200 201 201 202 199 200 200 199 197 199 197 199 199 199 198 197 199 197 199 202 201 200 199 200 202 199 197 200 200 198 196 192 188 175 147  98  57  60  38  25  18  33  59  19  15  19  19   7  78 166 154 154 154 154 155 154 154 154
 116  93  56  39  41  41  21   7   7  11  23  56 136 162 168 173 176 174 179 184 185 188 193 192 195 195 196 197 199 199 195 196 200 202 202 202 201 199 195 198 200 199 200 202 199 199 199 200 201 200 199 202 202 199 198 199 200 200 202 197 197 197 199 201 199 197 194 188 163 116  67  50  51  29  16  15  44  34  11  14  18   8  41 156 156 153 154 154 154 153 153 153
 112  83  57  47  58  53  23   9  13  22  26  84 152 159 170 173 170 172 175 181 184 189 191 193 196 197 196 196 198 198 196 198 198 201 202 201 202 200 196 197 197 197 200 202 199 198 200 200 202 201 199 200 199 197 198 200 201 200 201 199 199 198 198 201 200 199 198 195 186 143  92  57  53  34  21   7  24  43  17   9  15  12  16 137 159 154 154 153 154 153 153 153
 110  91  68  58  72  48  19  12  18  22  32 113 158 164 170 170 168 175 175 182 188 189 192 195 196 197 195 195 196 196 197 199 200 200 199 200 202 199 196 196 198 196 199 202 198 198 199 200 201 198 200 200 198 197 198 200 199 200 198 200 200 196 197 199 200 201 200 198 192 165 122  81  59  42  28  17  10  33  26  12   7  11   8 122 163 155 154 154 154 154 154 154
 128 115  78  65  69  37  14  13  14  21  59 142 159 164 170 167 171 172 178 184 188 188 187 194 199 197 196 195 195 195 199 198 200 199 199 200 202 200 198 198 200 197 199 198 195 197 201 200 200 198 197 200 200 199 197 198 197 196 195 196 194 197 197 200 201 198 199 201 194 175 136  98  65  48  31  24   9  23  27  15   6   7   5  99 165 155 154 154 155 154 154 154
 148 142  97  80  92  38  17  12  13  20  87 154 158 164 166 167 171 170 178 184 188 186 188 191 197 195 196 195 194 195 195 196 200 200 196 199 201 196 199 201 199 197 200 200 201 199 196 199 201 202 199 200 200 198 196 200 197 196 196 195 195 197 197 200 201 201 199 201 200 177 148 112  79  60  37  26  16  12  19  14   9   5   4  79 164 154 154 154 154 153 153 153
 164 165 136  84 107  54  15  10  17  36 111 158 159 163 164 165 165 171 178 185 187 187 188 189 192 191 192 196 196 193 192 197 197 196 200 200 196 199 198 200 201 199 198 200 201 201 198 201 199 200 199 199 197 194 196 197 198 198 197 194 193 196 197 198 201 202 201 202 200 183 161 121  89  65  42  30  16  12  12   7   8   6   6  36 151 157 153 153 153 153 153 153
 170 166 166 112 113  51  11  10  17  51 138 159 159 163 167 163 161 169 177 182 186 187 190 187 188 192 194 196 195 193 195 196 198 198 200 201 197 196 200 201 203 201 202 203 203 202 200 201 198 197 200 198 199 195 192 199 198 197 199 198 195 195 200 200 203 201 201 202 196 187 170 134 102  73  49  37  22  10  13   7   8   6   5  13 121 160 153 155 154 153 153 152
 171 166 161 112  94  45   5   9  18  67 153 158 160 162 167 161 156 164 173 178 186 186 188 189 186 192 194 196 194 190 192 195 196 197 199 195 195 196 197 198 200 200 202 204 199 198 201 200 195 194 196 199 198 195 197 198 197 194 199 198 197 195 197 201 202 203 199 197 194 187 170 145 110  81  59  43  32  18  11   6  12   8   6  10  95 159 153 153 152 153 152 152
 168 162 156 104  69  52   5   8  18  93 158 156 160 161 163 161 161 163 166 172 181 183 186 187 190 189 190 191 192 189 191 193 192 194 196 195 193 196 197 201 203 204 203 198 199 198 199 199 195 193 195 198 196 195 197 198 196 194 194 195 200 199 198 201 201 202 198 194 191 185 175 148 112  83  57  50  34  30  20  14   5   9  11   5  55 155 155 153 153 153 152 150
 167 158 146 113  77  59   6   9  28 116 157 156 157 161 163 160 161 166 165 169 179 182 185 187 189 188 189 188 192 195 192 191 190 192 193 194 193 195 195 198 201 201 197 197 200 198 197 196 192 191 194 193 196 198 195 196 196 196 194 194 199 195 199 198 196 195 193 190 191 187 180 146 107  85  53  43  39  35  24  16   6   4  10  11  31 125 158 153 153 153 153 148
 167 157 148 130  89  75   9  12  38 123 156 157 156 160 162 160 163 165 165 170 172 178 182 182 183 183 181 185 187 191 192 191 195 193 193 195 193 195 199 199 200 200 201 198 199 198 196 197 196 192 193 197 198 196 193 195 195 197 195 192 195 198 200 196 197 192 190 188 192 191 185 160 106  80  57  43  35  35  31  17   8   4   5   8  31 135 157 153 153 153 152 145
 168 163 158 149 107  90  23   9  40 126 153 154 158 158 163 164 167 166 167 171 172 177 177 180 181 180 179 184 188 190 190 189 192 190 190 195 196 196 198 201 201 200 196 197 198 198 197 197 196 193 196 199 196 196 194 192 194 196 195 194 196 197 194 193 194 193 194 191 192 193 188 168 115  76  53  43  37  31  35  26   8   7   2   4  33 115 160 152 152 153 149 139
 170 166 158 153 133  86  27   9  36 125 150 153 154 158 165 168 168 169 169 172 178 181 182 182 182 183 183 181 186 192 190 193 190 190 193 193 193 195 198 197 198 195 196 200 199 200 199 198 200 198 198 199 200 200 197 195 195 199 195 193 194 195 191 194 193 192 191 193 192 193 191 172 120  80  53  43  38  25  26  25  11   9   5   4  53 100 151 153 152 154 147 135
 165 163 159 153 147 117  45  10  36 117 145 150 154 156 160 166 166 167 171 172 173 181 185 183 183 183 184 186 187 189 189 194 195 188 192 195 195 196 198 197 197 193 194 198 201 204 203 205 204 203 201 201 201 199 195 194 197 193 194 192 192 194 191 194 191 190 191 192 192 193 194 174 123  75  51  42  42  25  18  21  13   8   7   1  59 121 142 153 152 152 145 130
 161 160 156 149 147 144  78   8  34 114 143 150 154 157 161 162 164 170 171 173 175 182 187 186 187 186 185 188 190 189 188 191 193 195 197 197 195 197 195 196 195 196 193 198 205 206 207 203 199 200 199 199 199 199 195 197 197 192 192 193 194 193 191 190 192 193 191 191 193 191 192 183 122  73  56  38  48  40  19  13  11  12  13   0  41 148 128 152 152 150 141 124
 153 150 143 135 130 127  88  17  31 110 142 150 151 157 162 161 165 171 173 174 177 182 181 186 189 188 187 192 192 191 187 189 192 193 192 194 195 194 192 195 197 199 197 202 208 210 205 201 199 198 202 202 201 200 196 195 200 197 194 194 194 192 191 189 193 190 186 191 191 191 189 188 145  81  61  30  43  55  25  11   9  21  48  45  24 135 157 151 151 148 137 120
 140 134 126 117 106  98  79  25  29 107 140 147 148 155 163 162 166 172 174 173 178 179 180 184 183 184 191 191 188 190 194 194 193 190 188 191 196 195 195 198 204 203 207 209 209 208 205 202 201 202 200 202 200 194 196 196 197 193 193 192 192 190 188 190 188 182 186 188 190 194 189 189 169  95  70  29  37  48  36   9   7  65 163 194 137 108 158 151 149 144 132 114
 127 120 111 100  90  80  69  24  22 106 139 146 148 154 159 163 166 169 172 170 174 174 179 183 187 188 196 190 188 191 192 195 194 194 189 194 195 193 199 202 203 208 208 205 205 203 202 201 201 200 197 196 195 192 197 196 190 187 190 193 190 186 185 186 185 182 186 189 190 193 192 193 173 112  94  43  22  35  43  17  15 129 202 207 192 135 150 151 149 140 127 108
 122 113 103  91  81  72  68  41  18 105 136 145 151 152 157 164 166 172 174 171 170 168 172 176 182 184 188 192 185 190 194 196 193 197 198 195 193 194 199 201 202 202 198 197 201 199 198 200 198 197 199 193 188 189 180 178 185 194 193 191 189 186 181 181 180 181 183 188 189 193 194 193 180 126 112  72  22  41  47  19  34 162 195 128 125 126 147 151 147 137 123 103
 115 103  86  75  66  60  60  55  20  92 134 142 151 150 157 162 167 168 173 170 166 170 171 172 175 179 180 186 191 190 192 193 192 192 196 196 199 198 198 199 191 185 188 194 189 186 185 187 178 176 180 181 165 144 127 146 172 177 185 188 189 186 182 182 181 183 186 186 186 194 192 191 187 130 119  96  45  34  43  41  59 140 112  92 131 117 142 150 143 133 117  95
 103  86  69  57  51  52  58  60  23  77 132 137 149 150 155 160 161 156 161 156 157 161 159 166 172 171 176 177 184 183 189 194 193 195 199 199 199 194 196 191 176 168 155 131 114 115 113 110 106 124 141 128 114 115 119 135 138 150 162 169 180 180 186 184 185 184 185 186 187 193 193 188 191 148 123 108  60  29  42  61  73 111 105  93 130 158 146 148 140 129 111  87
  91  78  64  55  54  61  69  83  39  65 129 135 141 146 156 158 134 129 131 120 117 100  99 111 120 132 146 161 173 179 187 195 193 192 197 200 194 191 186 173 165 153 121  94  82  82  72  75  80  82  90 101 114 135 137 142 140 137 135 136 148 165 173 179 178 183 188 187 188 192 188 190 192 161 115 109  68  39  51 104 102 146 155 127 146 179 147 146 137 124 105  79
  83  77  73  73  76  80  85 100  71  58 126 131 134 142 148 125 108 107  94  80  63  54  56  61  70  90 106 128 151 167 177 184 188 190 191 194 193 188 169 161 151 148 136 114 116  91  87  99  95 103 121 131 138 142 147 147 141 131 131 136 134 141 150 168 179 183 186 185 188 190 188 189 190 161 127  97  63  56  60  85 110 156 186 156 147 182 150 143 134 119  99  72
  82  81  85  91  94  95  97 104 103  67 121 126 132 136 115  84  88  88  77  71  66  70  67  61  58  67  86 101 118 148 164 179 182 185 192 194 192 188 173 157 154 151 143 137 135 130 131 135 147 152 156 162 162 159 157 153 153 152 154 149 147 142 146 160 174 174 181 185 188 189 188 185 187 169 129 100  61  57  86  90 141 183 194 171 152 181 149 139 131 114  92  65
  90  90  95 103 105 106 109 112 119  89 119 121 130 119  87  71  74  83 103 125 138 139 139 136 128 115 111 113 115 129 151 164 175 183 187 185 186 188 179 172 164 157 149 148 146 152 153 145 138 136 140 148 143 137 142 149 156 161 163 159 158 160 162 165 173 179 177 183 185 190 186 184 186 177 133 108  67  64  91 126 155 168 199 187 157 182 143 137 125 109  86  57
  98 100 102 106 110 113 116 119 119  82 119 130 121  96  73  82  94 122 144 151 154 155 155 153 153 142 132 126 117 113 130 150 165 174 179 183 183 187 187 177 170 159 153 152 149 134 105 104 111 121 119 115 120 125 119 115 110 127 152 158 163 167 169 173 175 175 179 183 185 185 186 184 182 183 145 106  64  64 102 104 128 159 191 188 162 180 139 134 119 102  79  48
 105 106 107 112 114 117 121 123 124  78 117 140 121  91  88  99 116 131 142 149 150 139 139 127 125 124 114 111 120 121 108 127 156 168 179 193 193 192 190 183 174 158 154 145 128  97 108 118 101  59  52  57  49  61  81  90 108 112 124 144 157 164 168 169 175 180 184 184 185 183 184 180 178 180 147 109  79  72 105 110 134 164 184 190 173 167 138 130 115  96  72  41
 106 108 110 116 117 119 124 127 131  91 110 140 128 105 103 101 118 130 138 123 107 101  89 105 112 113 118 111  99 105 118 112 138 171 185 196 207 201 194 188 176 160 154 136 118 118 116 106 124  48  46  53  48  60 125  69  43  95 122 128 143 157 170 175 178 185 183 182 181 182 179 180 176 176 156 115  93  74 127 147 155 170 189 193 184 160 135 126 110  90  64  33
 105 109 112 116 118 121 123 126 132 108 108 138 140 124 109 106 112 129 101  69  66  60  85  75  35  52  59  71 103 102 115 121 121 163 189 194 206 201 196 192 178 169 165 161 147 117 109 171 195  92  48  35  47  90 161 147 102 104 140 143 149 161 173 180 188 186 181 181 182 181 179 178 177 179 164 121 103  80 152 190 189 180 197 201 188 150 132 122 105  84  57  25
 108 109 113 114 117 120 122 126 131 103 105 140 138 132 123 118 116 110  68  39  44 125 174  84  43  74  65  51 133 127 133 153 134 155 186 194 196 197 196 192 182 175 181 189 159 129 142 160 182 155 113 118 125 150 148 146 154 160 168 175 177 178 183 187 189 185 180 184 187 182 179 178 174 179 175 124 105  82 165 198 193 176 195 199 189 144 130 117  98  76  49  18
 114 114 114 114 117 122 122 123 131  80  94 144 142 140 138 134 121 100  62  40  79 154 179  77  39  33  44  73 153 131 123 178 149 150 181 192 196 195 195 195 187 180 183 186 170 154 146 143 140 146 159 162 153 149 157 162 174 186 185 186 190 194 190 188 187 185 184 187 186 179 178 175 173 174 183 135 107  81 170 193 185 172 193 199 184 137 125 110  91  68  38  11
 117 118 120 119 120 122 122 123 129  82  86 142 144 149 147 141 128  99  68  73 114 143 178 142  82  96 132 148 145 143 158 168 149 152 181 190 194 196 196 197 191 185 186 182 173 152 142 138 144 155 161 162 169 168 170 175 181 183 186 185 186 191 189 187 186 184 184 185 184 180 180 174 169 176 187 147 121  96 164 192 170 168 199 195 178 132 121 105  84  59  29   5
 120 122 125 124 122 123 124 124 129  82  73 142 143 154 159 154 131 115 109 100 111 125 127 133 139 146 147 147 140 138 161 166 144 155 184 188 195 196 194 187 191 191 187 185 187 178 175 165 162 167 167 171 178 184 187 185 187 187 185 184 183 187 189 189 186 185 188 185 183 183 184 173 178 182 188 165 131 107 144 180 160 189 196 188 176 124 115  99  77  50  21   3
 123 125 127 127 126 124 125 126 129  88  71 138 147 159 163 163 150 147 147 134 121 128 128 129 132 140 140 138 142 161 176 159 144 158 186 192 195 195 194 188 190 189 188 187 189 190 190 187 187 185 188 193 195 198 197 191 189 186 182 183 187 187 187 186 189 187 189 190 185 185 183 180 181 184 184 178 131 100 108 196 200 199 175 196 175 114 109  93  68  40  13   2
 125 129 130 131 130 130 128 128 131  89  63 135 143 155 166 168 166 162 155 152 138 138 143 151 150 146 149 153 171 181 173 157 146 157 180 190 188 191 192 189 190 192 189 189 186 189 191 194 194 190 190 193 194 192 191 186 181 182 186 188 189 190 189 192 191 191 190 187 188 188 184 179 179 183 186 183 137  99 100 204 205 179 185 204 176 112 103  87  60  30   5   2
 128 130 134 136 136 135 134 131 136 100  52 125 137 155 166 169 167 167 157 157 156 144 148 153 160 163 175 179 183 181 171 154 149 153 176 185 187 189 188 188 190 192 191 190 188 186 188 189 190 187 189 186 185 184 185 185 182 190 190 195 196 192 192 195 195 193 192 189 188 186 181 180 178 185 187 178 141  94 106 179 190 181 195 202 166 103  98  78  52  24   4   3
 130 133 137 139 138 138 137 135 139 117  52 115 132 153 167 166 169 173 167 163 162 163 170 175 176 178 180 182 181 178 167 156 149 150 170 184 187 187 186 186 187 191 192 192 189 189 190 186 185 186 189 185 186 189 190 188 191 196 192 191 191 193 195 194 194 193 193 193 188 187 186 177 178 185 188 177 133  99 118 173 198 198 195 201 143  98  92  70  45  16   2   2
 130 135 138 140 139 140 138 138 141 128  64 111 137 150 163 163 164 175 179 176 172 176 181 179 176 175 178 180 181 175 169 157 149 158 179 187 185 190 190 185 184 190 194 195 196 191 195 190 189 193 190 190 192 194 189 190 192 199 196 194 195 201 197 195 195 195 193 193 188 187 188 182 182 187 187 180 132  95  97 172 201 203 204 197 130 101  87  64  35   9   3   3
 131 135 139 141 141 142 142 142 141 144  65 101 140 146 160 161 165 174 179 179 182 183 177 181 179 178 179 178 176 174 167 157 153 163 180 185 185 187 188 191 189 186 191 190 191 193 195 193 190 188 188 188 192 195 194 194 195 194 197 200 194 198 198 199 195 195 195 193 190 191 185 184 184 187 185 181 131  96  93 168 207 199 202 193 122  98  81  56  26   4   2   2
 132 137 141 144 144 145 145 143 143 146  93  91 138 146 157 161 168 173 176 179 179 178 181 183 179 177 177 181 179 178 169 155 151 167 176 182 184 187 188 190 189 185 181 178 176 179 190 193 190 189 191 192 189 196 191 192 197 198 199 196 198 198 200 196 194 192 195 195 192 193 186 181 183 186 185 176 118  88  83 153 209 194 195 191 119  93  72  48  18   1   2   3
 134 139 143 145 145 146 145 145 146 144 126 102 131 142 157 166 169 172 177 179 177 177 180 182 177 179 179 176 183 179 172 153 158 171 176 183 186 187 189 189 192 187 185 181 178 164 167 176 179 187 193 196 197 199 196 197 196 199 197 195 195 200 199 195 194 193 197 194 192 196 193 183 183 185 185 169 107  83  81 158 201 196 190 167 107  87  65  39   9   1   2   3
 135 140 145 145 145 146 146 149 150 148 129 108 133 142 155 161 170 176 177 173 177 178 181 180 174 179 180 178 186 186 174 149 159 172 176 184 189 192 191 191 194 188 193 192 186 168 154 153 168 178 181 185 194 199 201 202 195 197 199 198 194 196 196 196 195 193 195 195 192 193 192 187 182 184 182 169 100  78  82 158 203 199 190 133  94  80  56  31   6   1   2   2
 136 140 145 147 148 149 149 151 153 154 126  99 128 139 152 158 172 178 175 172 174 180 179 176 179 181 182 181 178 181 168 148 152 173 186 186 199 203 188 186 181 180 188 184 181 166 147 136 137 160 166 168 183 200 202 203 197 194 196 197 200 197 194 194 195 194 192 194 194 193 188 184 182 180 181 169 102  71  74 160 205 197 166 107  91  69  45  18   2   3   2   2
 139 142 147 150 151 153 153 154 154 158 127  86 125 138 153 163 173 175 174 171 176 178 177 177 179 181 182 185 173 176 158 140 136 162 183 182 179 180 165 158 145 131 137 148 156 139 141 161 141 135 156 167 175 186 195 200 192 189 189 195 198 196 194 192 191 190 194 194 192 194 188 182 179 180 180 166 110  57  55 158 195 184 123 100  87  62  34   7   2   3   2   3
 141 145 150 151 153 155 157 158 156 158 127  80 121 138 156 164 169 175 174 169 172 175 174 177 176 177 181 184 175 166 144 125 105 123 159 172 163 149 142 123 112 117 126 115 112 139 161 173 172 138 132 153 164 169 186 188 188 190 188 188 190 193 190 190 191 187 189 192 190 192 188 184 179 178 177 155 101  47  50 150 181 132 104 101  79  50  22   2   2   2   2   2
 146 149 152 152 155 158 158 158 157 160 137  68 111 140 155 163 167 172 172 173 173 171 173 178 176 172 177 177 171 160 149 122  86  79 101 131 139 129 124 123 149 161 149 144 152 173 174 165 173 174 130 132 155 163 174 181 187 189 186 187 189 185 187 192 191 188 188 188 184 186 186 180 177 176 171 147  84  46  47  99 114 107 110  97  72  43  10   1   3   2   3   3
 149 152 154 156 157 159 159 158 158 162 140  66  95 138 154 162 164 166 168 170 170 171 172 176 172 170 173 172 160 155 163 151 123 105  98  89  88  98 115 139 157 154 141 151 162 156 166 167 170 181 169 126 143 158 166 182 184 183 185 186 181 183 184 186 185 188 187 186 188 183 183 176 175 175 164 140  73  55  39  72 118 121 107  90  68  40   8   2   3   3   2   2
 150 154 157 160 160 160 160 158 156 158 142  65  74 133 150 155 159 163 168 165 164 169 168 168 170 171 169 165 157 166 168 162 153 136 114 112 112 129 146 152 147 138 114  97 125 121 140 164 169 177 184 155 126 154 166 172 176 179 178 177 178 179 178 184 184 186 188 186 183 186 182 174 174 166 160 127  70  53  53 121 129 120 105  88  66  39  10   1   2   3   2   2
 152 155 158 160 160 160 160 160 156 155 153  75  62 125 144 154 158 161 166 163 165 166 167 169 168 168 170 165 170 180 170 160 149 133 101 107 123 132 154 159 134 122  99  80  87  92 104 138 154 164 168 171 143 138 166 170 176 180 174 175 177 166 173 180 185 187 184 182 177 179 175 172 170 162 156 111  71  54  77 124 126 121 106  90  69  42  14   1   1   2   3   3
 152 155 159 161 161 161 160 159 158 154 158  82  49 118 145 152 157 162 158 160 166 167 166 167 167 173 170 165 176 177 167 153 136  96  83  95 108 115 164 183 158 123 103  88  76  84  96 128 141 133 136 142 159 138 153 171 173 181 179 174 174 177 177 181 181 182 180 183 181 178 173 170 165 159 144  86  66  58  86 118 124 121 109  94  73  47  21   4   0   2   3   3
 153 155 158 161 161 162 161 159 155 153 154 102  41 100 143 154 160 161 155 159 162 163 165 163 170 172 171 174 181 175 154 132 105  73  76  91 112 146 180 185 178 161 117 103  92 107 105 133 148 124 112 110 125 149 139 163 173 177 178 179 180 176 180 180 170 178 181 183 183 178 172 167 163 151 122  67  55  67  87 121 124 121 113  97  78  55  29   7   1   2   2   3
 153 155 158 160 161 163 162 158 154 152 151 120  35  75 133 148 158 159 157 159 156 160 164 166 169 172 173 180 182 158 128 115  85  70  80  98 135 154 170 172 172 163 118 116 117 138 133 141 152 141 112 101 104 131 149 149 176 180 180 179 180 179 179 178 177 178 180 186 177 178 172 166 159 136  96  56  41  66  97 121 124 122 116 102  83  60  37  14   2   2   2   2
 152 153 156 159 161 160 159 157 154 150 146 137  49  60 128 144 157 163 157 156 153 158 165 168 170 171 175 175 164 139 109 110 103 102  94  96 122 117 129 138 135 125 123 129 134 130 121 119 118 111  95  82  78  97 153 159 178 182 182 181 184 183 181 182 180 179 178 179 171 168 167 165 150 105  74  52  35  83 158 117 125 126 121 108  90  68  46  22   3   1   2   2
 144 148 151 154 156 157 157 155 151 146 144 143  78  44 114 148 156 163 159 155 152 154 165 169 172 172 175 165 143 109  94 111 118 101  95 103 112 109 110 109 106 117 116 109 103 101 109 112 102  78  74 101  89  68 146 174 181 183 185 181 186 184 185 185 177 181 177 164 161 163 158 162 135  84  61  40  45 100 204 160 118 130 125 114  99  80  55  29   4   2   2   2
 135 140 144 147 149 152 152 149 146 141 140 140 103  27  91 139 154 163 164 159 152 153 165 174 175 178 178 166 125  73  81  75  78  83  84  77  72  92 111 123 111  93 116 124 121 133 138 133 124 124 147 166 162 113 152 185 184 188 186 184 184 184 182 184 180 177 168 153 173 160 145 152 122  71  50  33  44 121 180 215 132 127 129 120 106  88  63  37   9   2   2   1
 126 128 132 137 140 143 144 142 141 137 134 131 120  38  61 130 152 162 162 160 152 152 163 175 179 180 177 171 129  74  94  77  69  89  97  97  96 120 140 157 140 139 162 156 161 161 154 147 149 161 174 177 184 167 167 191 189 193 186 189 187 184 179 177 180 172 154 161 167 146 139 133 102  65  44  39  41 118 161 214 186 126 132 126 114  95  69  44  17   2   2   1
 116 118 121 125 129 131 132 132 133 132 130 126 121  55  38 109 141 158 162 159 155 156 161 176 183 182 184 172 147 122 150 137 115 110 122 134 144 152 158 157 160 169 170 166 158 155 153 158 175 181 181 180 185 180 172 194 193 194 191 191 187 180 161 169 171 158 155 149 156 138 135 108  79  54  39  26  35 133 160 179 224 120 143 131 123 102  76  51  26   3   1   2
 108 109 113 116 119 119 120 122 125 124 123 122 119  68  29  86 128 141 153 155 157 159 159 172 181 184 188 174 163 175 176 158 133 120 122 131 147 160 161 166 160 172 180 170 160 162 167 177 185 182 184 183 188 191 177 185 197 194 192 182 179 166 157 160 153 163 153 137 148 133 112  90  57  41  41  25  45 146 171 155 249  88  90 150 128 108  86  58  35   9   1   2
  97 102 105 107 108 107 110 114 119 118 119 120 118  80  27  54 116 140 150 152 153 156 159 170 180 183 186 188 182 184 177 163 156 142 136 134 130 139 133 142 138 146 157 166 175 176 179 183 187 189 188 189 185 190 192 181 190 192 187 170 162 152 171 155 152 166 143 130 131 114  93  72  50  36  31  30  48 132 169 151 255 157   2  93 139 114  92  66  41  16   2   2
  91  95  98 104 113 116 114 113 114 117 114 117 114  89  34  35  82 126 146 150 148 150 157 163 178 183 185 191 188 184 177 170 165 156 156 154 145 144 141 140 137 148 160 176 182 181 180 185 190 194 190 189 185 190 197 186 184 178 176 157 142 142 162 147 161 151 128 115 115  95  79  60  39  29  25  25  80 131 171 160 248 230  37  13  91 127  98  75  49  24   4   2
  80  85 101 124 142 146 138 123 114 113 117 114 109  93  35  22  52 110 130 139 142 143 151 160 173 183 184 188 188 180 176 173 169 159 154 162 166 164 159 160 158 164 166 173 176 181 185 187 194 198 196 193 188 189 193 193 183 158 139 136 139 150 148 147 157 125 109 117  95  77  64  52  27  23  34  43 102 147 171 181 247 254 120   1  26  89 109  81  57  32   6   1
  65  83 117 148 163 166 161 143 120 110 117 118 115 106  61  21  35  80 111 117 126 134 147 158 167 174 183 185 186 177 170 170 169 164 157 161 166 164 162 142 144 154 170 174 181 183 190 193 197 199 195 187 183 186 185 182 174 145 125 121 138 145 125 118 118 111 114  93  70  63  51  30  14  23  33  60 136 167 172 201 247 246 200  19  19  30  88  91  62  39  13   1
  49  84 131 167 177 177 177 163 132 107 110 117 118 114  88  26  26  54  90  90 109 132 141 148 163 166 176 182 184 175 170 170 169 170 170 165 166 167 163 139 141 152 171 172 182 182 185 192 195 198 193 187 184 180 172 163 156 134 122 128 138 138 116 111 121 123  95  71  63  55  35  18  25  24  37 102 146 186 172 221 245 236 248  80  10  25  37  85  73  46  21   2
  29  81 146 183 189 190 189 177 143 103 100 113 116 112 108  49  16  37  66  75 102 119 127 140 156 160 171 183 181 174 173 172 169 169 171 171 167 164 158 140 136 148 167 175 182 187 185 188 197 199 194 190 188 166 142 133 131 126 123 130 132 126 108 123 118  84  61  53  51  45  26  21  23  25  41 126 170 185 175 239 240 235 253 164   8  25  28  50  80  55  30   7
  13  76 152 193 201 200 199 188 147  93  88 104 110 109 103  76  18  27  37  62  94  95 106 125 146 152 159 177 178 176 174 174 173 171 171 175 173 168 152 136 134 158 173 188 190 190 188 192 198 201 195 188 182 166 139 130 128 144 113 125 111  96 105 109  84  69  55  46  37  31  23  18  25  30  63 125 183 178 195 249 239 237 244 225  39  19  28  33  61  67  39  14
   6  70 151 198 207 207 204 191 147  81  75  91 100 105  97  74  30  17  30  43  71  81  81 104 127 128 148 173 167 161 170 172 174 175 176 175 178 180 150 142 153 181 186 187 192 195 195 194 199 198 193 192 184 174 131 108 108 110  88  94  79 101 114  83  66  56  43  34  25  25  20  24  26  44 113 158 184 166 228 246 238 238 239 249  89  13  28  32  39  64  49  20
   5  67 149 199 209 211 207 194 148  75  62  78  93 102  98  81  37  11  26  36  47  65  69  87 110 114 141 165 146 156 163 170 168 175 180 177 180 171 154 171 172 188 195 194 198 202 196 195 203 198 193 194 181 171 133  99 101  87  68  82  88 115 119  68  51  46  33  25  26  27  20  29  34  69 146 178 167 184 250 240 237 237 240 251 129  14  26  31  32  45  53  29
   7  65 148 202 210 211 213 207 161  75  56  70  81  86  81  69  39  14  23  30  25  40  54  85 102 101 118 131 143 158 157 171 177 175 178 179 182 179 169 182 167 184 189 190 195 200 201 201 203 198 193 191 176 156 117  97  92  84  76  76  98 111  68  54  45  32  29  25  22  20  23  32  70 119 172 185 162 232 246 238 238 239 241 249 158  19  25  28  31  34  45  35
   6  62 148 207 222 223 203 158  99  51  43  46  46  40  35  32  24  16  20  21  16  27  45  75  86  90  92  97 123 138 131 165 178 179 180 176 174 179 162 161 164 184 185 177 188 194 197 199 200 194 197 193 175 127  90  84  78  72  61  64  63  71  62  40  33  30  28  17  18  21  29  60 111 146 180 168 206 249 239 238 239 240 241 246 163  25  26  28  29  33  42  37
   3  64 162 204 159  95  51  27  24  32  35  34  31  28  26  29  28  17  15  19  14  22  41  51  47  70  74  78 104  95 125 143 170 183 182 176 173 169 155 154 164 176 173 178 180 176 186 191 198 191 193 187 161 115  91  57  60  75  43  42  33  47  65  35  34  23  14  15  18  23  38  98 155 180 168 189 247 242 239 240 240 241 241 244 153  22  25  26  29  32  34  40
   9  59  89  56  23  19  24  26  27  25  26  24  23  26  28  30  21  20  10  11  16  12  24  27  31  53  54  58  61  66  97 118 157 176 179 174 163 152 158 155 159 167 161 172 164 167 170 173 184 164 187 178 139  78  80  57  67  58  32  39  41  43  46  21  27  13  15  21  20  21  66 115 181 178 181 244 243 238 240 240 240 242 243 243 128  14  24  25  28  29  32  35
  29  28  17  17  23  24  22  20  20  19  21  23  24  24  29  28  16  13   6   6   8   7  18  19  26  30  36  47  42  50  72  95 122 152 164 157 144 131 143 146 135 152 128 145 152 153 147 145 151 145 161 173 104  62  70  64  58  36  32  34  44  32  28  20  23  14  22  27  18  31 114 153 172 185 238 244 238 238 239 240 241 242 243 235  85  16  25  26  27  28  31  34
  25  24  22  22  21  20  20  18  20  22  23  23  24  26  28  21  15  10  11  10   7   5  12  20  16  26  26  24  33  34  35  68  96 136 138 137 118 115 126 129 119 136 110 124 124 122 122 132 123 126 129 136  91  60  64  49  39  34  36  36  29  17  11  20  21  17  20  20  31  74 141 173 188 239 245 238 239 239 239 241 241 241 245 208  40  22  25  25  26  27  29  32
  21  20  19  18  18  18  17  18  21  21  22  23  25  26  23  18  13  12   4  14  39   7   5  16  14  15  14  13  27  20  22  41  71 113 117 108  95  88 101 110  96 108  92 101  99  98 104 111 104 116 107  86  66  47  41  33  28  25  22  32  33  18  10  11  13  10  19  26  53 119 150 185 241 246 241 241 240 241 240 240 240 239 244 154  18  24  24  24  25  27  29  31
  18  18  18  17  17  18  20  25  23  21  22  25  26  24  20  15  14  12   0  47 141  62   0  10  11   7   9  11  18  14  15  24  40  68  85  87  67  79  86  91  92  98  78  90  80  88  93  92  84 104  70  64  52  33  36  32  26  18  20  28  29  13  17  13  14  15  21  40 102 142 190 238 245 241 240 240 240 240 240 238 236 235 230  86  13  24  22  24  27  27  31  32
  17  17  16  17  17  18  20  23  21  20  24  24  25  23  18  16  11   7   0  90 194 157  27   0  11   6   9   9  11  22  25  21  30  29  46  60  62  65  70  81  85  82  70  78  75  80  73  74  70  69  34  44  39  28  24  20  19  24  24  23  13  17  12  24  14  19  35  88 152 204 245 242 241 241 241 241 239 238 237 235 233 234 192  31  21  24  23  24  26  27  31  32
  17  16  16  16  18  20  20  19  21  22  25  26  23  19  15  12   6   0   0 120 209 186 145  33   6  18  15   9  10  18  30  24  16  19  31  35  51  57  53  57  62  70  60  57  65  59  59  58  44  36  35  28  29  20  14  16  18  13  11  16  15  10  15  20  15  35  60 133 217 246 241 241 241 242 240 239 238 235 234 233 231 238 129   9  25  22  24  23  25  27  29  30
  16  17  17  18  21  21  21  21  23  25  24  25  21  17  10  10   5   0   9 146 211 204 210 124  15  16  19  11  16  16  23  19  12  11  24  25  36  37  36  35  36  54  44  38  41  40  39  47  23  23  31  27  21  20  12  15  14   9   7  10  22  16  15  17  20  50 113 210 242 242 241 241 241 241 239 237 236 234 234 235 234 220  54  17  25  22  22  23  24  26  29  29
  16  15  17  21  21  19  21  22  23  25  25  21  18  13   9  11   5   0  37 169 211 216 212 194  98  12  11   6  18  12   9  14  12  11  21  26  28  24  23  33  24  25  24  29  26  18  19  23  19  15  24  22  21  11  17  23  11  12   7  13  20  22  18  22  42 104 203 237 240 241 241 240 239 239 237 235 234 234 234 235 241 146  11  25  23  22  23  24  25  26  28  29
  16  19  24  22  18  17  20  21  22  24  23  20  17  11   9  12   4   0  63 183 207 219 221 221 209 106  23  13  16  17   5  14  17  14  12  17  16  18  14  23  20  22  21  21  21  14  13  14  18  13  15  10   7  14  15   9  13  11  14  28  23  29  22  47 130 189 237 236 239 239 242 239 238 238 237 234 235 236 236 237 223  52  15  24  23  22  22  25  25  27  28  28
  13  19  22  20  20  19  19  21  24  24  20  18  16  12   9   9   3   0  91 184 207 218 225 227 218 203 143  49  18  19  13  10   9   8  14  15   7  20  12  13  15   9  10  17  15  12  18  14  12  12  10   4   9  15   8   8  17  20  21  38  37  29  54 161 212 212 240 240 238 241 241 238 239 237 237 236 236 238 235 246 154   9  24  24  24  25  24  25  25  26  26  28
  12  12  18  20  22  21  21  23  24  19  19  15  12  12  11   7   0   6 111 177 205 217 225 226 219 215 215 149  54  16  12   8   9   6   4  12   7   9  20   9  13  16  10  14  14   8  16  24  13  12  16   6  12  14  17  16  20  22  31  32  28  73 186 231 220 220 239 239 241 241 239 239 238 238 238 238 238 238 238 231  64  12  23  23  23  24  23  26  25  26  26  27
  15   5  11  19  20  21  23  26  24  19  18  15  14  13  13   8   0  28 133 169 201 216 226 226 224 223 215 195 186 116  31  17  16  16  14  10  13  13  12   9   9  10  19  16  11  13  22  17  10  10  11  15  25  20  13  18  20  26  40  30  93 211 235 233 236 234 239 241 241 239 238 238 238 239 240 240 240 238 247 164  11  23  23  23  22  23  23  24  25  26  26  26
  14   8   1  13  21  21  22  19  20  18  18  18  15  12  14   7   0  68 150 161 198 214 225 228 229 226 220 209 213 202 145  51  11  15  23  17   9  13  10   6   6   3   7  16  13  15  10  12  12   8  13  20  22  16  15  25  34  44  50 122 215 239 237 240 240 240 242 240 241 239 239 239 239 240 241 241 241 240 238  67  10  25  23  23  22  23  24  24  25  25  25  26
  13  12   2   2  17  20  19  21  21  18  17  16  12   9  12   5   0 104 168 166 191 211 223 229 229 228 226 216 217 207 203 174  76  27  23  19  18  12  10   6   5   7  11   9   7   5   8  20  23  13  22  25  19  32  37  42  54  69 149 231 237 236 240 240 242 241 241 241 241 240 240 239 239 239 240 241 238 245 165   7  16  21  24  22  22  23  23  24  25  25  26  26
