P2
# Generated by OpenCV 4.2.0
92 112
255
 190 198 203 182 154 151 143 157 159 133 138 154 138 131 132 118 115 103  94  89 123 137 108  99 103 107 105  69  77  66  28  15   1   0   0   1   0   2   6   3  10   9   6  11  17  13  23  34  27  10  19  21  26  19  15  35  20  41  56  47  34  33  33  49 120 152 164 152 154 153 137 132 132 115  86  66  60  59  57  59  61  63  64  72  82  76  69  70  75  76  71  66
 160 180 183 149 142 161 134 130 130 138 137 128 136 139 141 143 143 107 108 116 118 136 122 111 114 111  95  77  71  20   0   1   2   0   0   0   0   0   2   4   6  12   9   8  18  24  19  19  20  20  20  26  18  14  25  35  36  33  36  49  61  63  44  38 104 125 143 157 158 154 154 166 177 167 152 131 114 101  85  80  73  67  61  62  73  74  67  70  71  75  71  65
  81 114 106  94 119 148 121 110 123 132 136 125 107 117 124 133 129 101 116 125 121 138 128 111 117 110  91  50   6   4   2   2   2   0   0   1   1   1   1   4   4   9  10   7  14  19  18  18  26  32  15  11  10  21  43  51  26  15  24  37  45  57  35  57 118 144 127 132 145 153 152 158 170 175 178 170 166 149 128 119 104  89  78  69  73  73  70  69  77  79  72  64
  65  77  74  71  87  89  91 108 139 129 114 124 110 108 108 126 133 134 132 122 113 136 152 138 105  74  25  12   9   6   2   2   3   1   0   1   2   1   1   1   5   6   8   9  11  21  22  22  27  22  11   6  20  50  64  22  13  12  21  30  34  34  17  30  60 101 109 104 120 149 144 142 146 151 156 162 165 152 136 124 113 100  95  92  88  81  74  71  78  83  72  65
  67  68  67  73  75  73  89 115 113  98  96 107  96  85  88 113 126 135 140 144 125 115 141  99  55  29   8   5   3   1   0   2   3   4   2   2   1   1   1   1   4   6  11  11   7  15  23  27  15  11   9  10  54  91  33   5  12  14  24  21  27  18  10  26  13  23  48  39  90 120 117 115 115 128 133 132 131 129 121 114 104  98  95  95  90  81  74  69  76  82  68  64
  71  70  67  69  67  74  78  79  74  68  70  74  71  68  70  79  88  90  98 114 103  67  26  10   8   2   4   3   4   2   3   3   3   5   3   2   4   2   1   2   3   7  12  12  14  12  21  23  13  11   8  49 105  53   3  10  11  15  29  18  20  10  16  28  25  19  25  34  53  74  85  77  72  89 106 104 104 112 106 102  92  85  83  82  83  82  74  70  81  83  70  68
  89  78  75  78  82  95 100 100  74  71  67  65  68  73  72  71  76  80  79  62  29   4   1   1   1   1   1   1   1   3   5   4   7   8   5   6   6   3   2   4   3   7   7   7  11  11  22  26  31  15  29 112  80   4   7   9   8  16  30  26  16  13  21  23  36  22  17  21  28  35  71  83  65  61  65  65  70  81  78  77  78  75  77  80  77  77  73  71  80  71  68  68
 165 146 139 130 114 109 106 106  89  75  73  71  72  77  79  80  74  41  15   2   1   1   0   0   0   0   1   1   1   1   2   3   5   9  10  10   9   4   3   2   5   7  10   6   8  18  16  27  36  20  78 112  22   5  19  10   8  17  27  17  11  12  16  22  21  21  20  18  22  23  51  82  78  70  64  61  61  62  63  70  72  72  71  76  75  71  73  73  78  71  68  66
 177 169 181 183 174 162 138 148 137 121 106  90  87  88  78  50  16   3   2   2   1   0   0   0   0   0   0   0   0   0   0   2   3   5   9   7   7   3   4   3   4  10  10  10   9  16  26  26  25  33 109  62   5  23  17   7  10  20  20  11   8  14  20  28  15  23  35  40  42  19  12  54  88  75  72  66  66  67  67  66  66  66  69  69  71  71  70  70  73  70  69  69
 129 142 144 136 158 173 167 166 169 178 165 140 130  92  30   3   3   4   1   1   0   0   0   0   1   0   0   0   0   0   0   0   2   4   7   9   4   6   2   3   6  10  10  12   8   8  38  39  31  76 110  25  21  26  18  11  12  18  11  14  17  20  26  25  31  26  35  47  54  33   8  15  89 107  86  77  71  70  66  66  66  66  67  68  70  71  70  71  70  68  71  69
  90  90  82  79 105 130 131 140 145 149 147 150  89  19   2   2   1   1   0   0   0   0   0   0   0   1   0   0   0   0   0   0   0   1   6  11   9  11   3   4   8  17   7  10  25  12  31  44  65 111  87  13  44  48  28  13  14  19  15  12  23  25  25  25  36  29  34  27  28  45  24   4  49 131 114  99  94  80  75  70  71  72  71  70  68  70  70  69  68  68  68  66
  68  73  75  64  69  91 115 111 109 110 106  66   8   1   7   1   0   0   0   0   0   0   0   0   0   0   0   0   0   0   3   4   0   1   7   6   0   3   2   3   8  16  10   6  33  35  32  59  84 121  69  23  79  73  45  18  23  21  19  15  30  24  26  34  30  31  27  24  25  35  38  16   5  66 136 135 119  98  86  83  80  80  78  75  70  69  73  71  69  68  65  66
  67  68  67  68  91 102  95 106 106  99  70   6   3  10   4   0   2   1   0   0   0   0   0   0   0   0   0   0   0   0   3   4   3   6  11  19  15   2   1   5  12  25  16  13  27  49  62  88  93 113  58  30  75  83  66  43  38  30  16  19  30  21  40  34  35  31  23  30  23  24  23  16  11   3  71 142 144 125 109  99  91  85  83  81  77  74  70  69  68  66  65  65
  70  73  83  91  76  65  66  74  84  75  17   4  11   1   5  10   6   2   1   0   0   0   0   0   0   1   0   1   0   0   0   1   3   7  20  24  47  11   4  10   7  37  25  35  38  44  81  92 100  91  55  11  46  67  70  84  45  61  22  27  42  33  48  36  55  44  31  25  28  27  33  31  16   6   6  70 130 136 122 108  96  94  90  85  75  71  67  67  66  63  64  65
  95  96 107 110  90  77  71  71  65  21  10  17   3  11  17   6   4   2   1   0   0   0   0   1   0   0   0   4   7  12   9   2   5   8  25  27  20  13  13  16  24  68  33  59  48  41  72  79  82  74  57   4  19  37  54  80  70  80  36  36  49  45  31  62  58  38  30  27  27  31  36  43  23  16  11   5  63 127 125 113 106  95  82  77  72  68  65  63  66  65  65  65
 114 114 110 121 120 102 110  89  48  15  16   0  20  26  15   4   5   2   0   0   0   0   1   5   2   0   0   2  10  15  17  13   4  17  22  23   0  13  31  19  40  43  37  77  69  36  76  72  81  55  42  16  12  25  55  64  89  90  75  60  66  85  42  64  57  52  39  38  71  58  31  32  27  16  11  10  13  91 121  99  96  84  75  71  69  68  65  64  66  65  64  69
 134 130 119 127 125 116 111  95  38  30   5  23  60  18  13   7  10   0   0   0   1   0   5  12  24   2   4   3   9  22  14  12   4   9   7  21  52  56  25  15  46  38  35  53  85  49  83  63  85  54  35  40  20  25  58  47  99  68  82  59  62  54  31  81  66  85  46  54  70  64  48  42  38  22  15  30  10  43 104  82  76  73  71  67  64  66  65  69  66  64  65  73
 132 125 141 132 123 124 122  76  24  37   9  55  31  15  21   2   8   0   0   0   7   5  21  32  37  27  16   7  11  20  17  20  18   8  10  10  70  47  18  55  68  45  43  50  95  71  82  54  71  64  43  49  43  60  44  34  81  69  65  57  95  32  21  74  67  77  59  38  40  55  54  39  52  25  23  25  16  28  79  80  71  68  67  66  65  65  64  68  66  62  63  69
 137 141 152 160 144 129 112  52  57  32  66  60  22  20   3   3   3   0   0   0   6  14  11  24   9  27  17  26  19   9  19  11  19  14  13   0  47  26  31  80  96  38  31  80  70  55  65  57  44  61  46  61  54  87  77  68  58  94  60  79  95  39  26  71  50  41  39  20  21  46  51  55  46  20  11  13  14  11  46  80  76  70  68  67  70  70  67  63  66  64  65  68
 153 158 136 151 155 149 111  72  76  59 127  31  27  16   0   2   4   1   1   2   2  12  13  14  19   7  32  29  23  19  20   4  27  14  18   1  45  33  40  92  98  37  16  86  68  50  45  69  24  48  41  82  74  79 110 127  94 114  96  86  94  65  39  82  31  24  45  49  42  40  34  47  52  23   9  12  15  15  12  56  80  71  68  68  71  71  68  66  65  67  70  73
 163 147 142 160 164 157 139 101  82 129  78  29  26   6   4   0   0   3   4   9   6   1   7   4  13  11  30  24  25  35  24  18  19  13  31   9  33  29  24  91  91  26  22 110  56  46  39  72  27  43  63  77 110 101 135 168 145 132 145 120 134 106  70  74  36  25  30  70  90  45  20   5  24  29  19  10  14   8   0  10  64  76  69  68  69  68  69  66  66  69  73  74
 161 150 144 156 158 148 160  96 100  87  30  45  11   4   1   2   2   3   7  16  13   7   1  13  37  26  12  13  38  41  42  28   9  34  47  16  18  42  16  63  57  23  40 121  53  35  49  73  48  24  61  74 112 136 145 170 187 162 165 164 164 152 122 110  70  18  25  88  48  51  53  43  14   7  11  15   8  13   1   4  31  76  70  71  68  67  69  68  66  73  73  73
 129 125 130 144 140 133 143  83 110  68  28  15   1   1   1   2   3   3   5  11  31  34  18   8  31  38  17  16  55  51  57  22  31  35  70  25  22  70  49  63  27  10  60 105  59  26  42  64  60  43  48  73 112 130 162 171 196 189 183 180 173 182 168 153 106  60  53  30  18  60  71  72  60  31   7  11  11  17   3   5   6  53  76  68  67  69  69  66  69  75  73  75
 133 138 145 146 123 125 118  81  75  37  23  11   0   1   1   2   2   5  10  10  17  35  29  17   7  27  34  33  76  59  32  22  34  10  72  51  32  83  73  59  26  29  54  93  71  34  45  60  64  68  72  82 117 144 157 178 194 205 199 190 188 185 195 171 137 111  65  34  29  33  29  32  37  34  20  10   8  14  10   8  22  32  76  69  68  67  66  65  75  74  73  75
 140 161 148 153 147 149 138 101  34  39   5   5   0   1   3   3   4  11  14  11  10  12  16  26  19  10  29  46  61  53  48  33  15  18  50  66  46  78 121  71  47  61  56  95  68  63  78  62  70  82 101 122 128 159 178 191 207 213 206 206 201 197 202 185 166 140  96  66  65  50  17  28  20   7  24  15   7   6   5  10  33  27  74  71  70  66  65  72  79  76  69  72
 106 134 143 132 133 121 143  89  18  51   1   1   2   1   2   1   3   7   7  12  18  20  42  50  56  38  20  40  68  42  67  50  39  80  43  62  75  72 127  73  59  72  86 100  73  93  87 104  88 100 117 155 174 173 196 204 214 212 210 211 214 213 211 201 188 170 134  95  72  88  69  59  47  15   7  16  10   4   2   8  15  27  73  69  67  66  72  82  81  78  71  70
  95 123 118  94 111 121 133  67  40  25   3   0   2   2   2   0   5  10  17  22  31  66  93 104 102  89  56  46  69  56  54  68  52  99  80  82  90  70  96  91  79  83 108 112  88 110 103 124 135 128 153 168 185 197 203 214 213 211 215 211 213 214 220 211 206 190 166 113  91  84  93  70  44  47   9   9   8   5   5   4  17  36  76  69  67  68  82  85  79  76  74  75
 127 139 116 115 128 116  95  62  78  27   1   1   3   1   2   5   8  16  22  26  74 124 141 143 142 147 118  86  72  76  63  82  83  73  96  93 101  84  75 102 108 114 142 133 119 132 152 139 156 173 191 197 196 210 208 215 217 215 215 217 211 213 218 213 214 202 168 135  82  71  82  75  39  65  40  11   4   7   5   6  35  66  75  69  70  75  83  79  80  77  79  74
  97 100 107 105 115 114 112  89 112  45   1   5   4   4   4   5   5  18  22  69 135 145 142 149 158 169 168 144 107 114 108 105 126 119 105 121 126 132 125 132 143 151 170 172 172 167 180 191 195 204 212 214 211 216 215 213 212 212 213 214 211 209 214 216 215 214 191 148 102  59  70  74  56  43  59  14   4   6   7   4  50  83  70  69  74  79  77  77  85  82  80  75
 105 104 110 100  98  95 113  96  91  23   0  10   3   2   4   1   2   7  43 112 144 139 145 161 170 181 186 181 157 153 158 156 157 162 154 157 167 172 182 191 197 204 208 208 209 200 203 215 219 214 212 214 217 217 216 212 210 208 209 211 211 212 211 215 212 213 210 161 112  73  64  82  56  35  38  33   5   4   7   5  29  81  75  77  82  85  80  77  81  85  79  78
 104 108  99  90 100  95  99  86  71   7   2  12   0   0   0   0   2  22  79 130 145 139 152 174 171 182 192 190 185 184 186 192 199 201 199 200 190 187 200 212 216 231 231 225 218 214 214 214 213 213 215 211 213 214 215 215 214 208 206 211 211 211 212 214 212 213 216 193 140  83  69  95  81  48  25  24  17   6  12   6   4  67  83  79  84  81  83  86  79  81  78  82
 102  94  92 101  96 113 126  97  53   0  15  15   0   0   0   0   4  51 104 134 141 140 155 161 173 184 189 192 194 196 193 199 210 208 209 215 213 210 220 221 218 225 221 213 210 210 211 212 214 214 213 213 210 208 209 211 211 209 207 208 213 212 212 211 210 207 212 204 165 129  75  93 114  77  43  18  23  11  18  11   1  50  88  81  81  76  80  83  81  81  77  82
 102  94  87 118 105 122 115 102  36   0  10  10   0   0   0   0   9  71 115 131 138 140 146 157 181 181 182 186 194 197 198 204 208 208 208 209 212 219 226 220 214 216 217 216 216 216 214 211 212 211 211 212 211 207 209 208 209 207 210 208 208 209 209 208 209 207 208 208 190 141 113  76 115 108  64  27  14  12  15  14   5  33  90  83  79  79  81  85  87  81  80  81
 112  99  93 104  91  77  83 102  32   0   9   8   0   0   0   1  22  88 122 132 139 141 139 162 172 173 176 185 193 201 210 209 205 205 200 202 209 217 218 212 207 212 213 213 213 213 214 214 215 216 212 213 211 210 215 211 211 210 211 211 206 207 206 207 208 208 210 210 202 152 121  97  94 106  78  46  20   9  11  21   8  19  91  86  80  77  82  88  81  76  80  84
 120 106 123 111  86  58  94 121  36   0   6   2   0   0   0   1  46 106 122 126 141 134 142 149 158 172 179 190 197 205 207 198 197 199 199 205 212 217 212 208 206 204 207 210 209 213 214 216 216 217 217 217 218 212 214 214 212 211 210 211 212 209 204 207 209 208 208 213 204 174 128 108  92  83  62  48  37  20   9  25  23  12  83  89  86  87  81  82  83  77  80  85
 111 103  95  97  65 100 113 102  35   1   5   1   0   0   0   2  69 113 124 133 142 133 134 142 165 180 178 188 198 203 203 202 204 201 202 209 212 211 204 206 208 211 213 213 214 216 217 218 219 221 221 219 218 216 212 214 212 213 211 213 212 211 206 205 206 206 207 210 209 192 145 121  94  83  49  44  42  28  10  19  26   9  73  88  85  87  78  79  80  80  82  83
 115 116 112 100 119 147 109  93  63   1   3   0   0   0   0  16  93 122 123 141 139 129 128 150 170 177 177 185 198 205 204 205 207 203 198 200 206 210 209 211 214 217 217 218 219 218 217 219 219 220 222 223 224 219 215 214 213 211 212 213 208 210 206 204 206 205 206 208 211 200 173 144  97  73  52  24  33  33   8  10   9  10  79  87  82  85  82  80  77  83  83  79
 138 128 106  98 105  97  89  96  76   2   0   0   0   0   0  37 114 122 119 142 130 125 127 151 169 178 189 189 190 193 196 203 203 201 195 194 204 207 207 214 214 212 216 217 220 218 218 220 221 222 222 223 224 223 217 215 214 210 212 212 209 206 203 208 209 208 205 210 212 203 181 156 117  66  42  20  14  22  13   6  12  15  84  90  87  87  84  82  77  82  83  81
 148 112 102 128 120 111 107  93  70   8   0   0   0   1   1  58 129 118 128 129 125 122 132 151 159 173 186 191 190 195 201 208 209 199 200 205 212 212 211 212 207 208 211 215 220 218 218 221 223 223 222 223 220 221 219 214 215 213 211 211 211 205 204 206 207 207 210 208 211 202 184 161 129  78  34  21   8  10  15   4   9  23  81  93  88  90  83  86  82  79  81  85
 115  97 119 114 100 110 117  93  83  36   0   0   0   0   3  85 129 120 132 124 134 129 129 140 149 168 182 193 195 198 201 204 206 201 200 203 211 213 218 219 214 211 214 216 215 217 217 218 220 222 222 222 218 218 215 214 215 212 215 209 209 209 206 207 206 208 210 207 208 207 189 167 138  88  52  17  13   7  12   4  12  36  87  89  83  85  81  79  83  81  84  87
 103  97 103 112  97  93  89 105 126  43   0   0   0   0  14 109 125 129 122 127 138 131 130 134 150 171 177 183 189 195 194 195 198 198 203 200 203 206 212 214 210 208 211 209 207 208 208 208 211 216 217 220 217 215 213 215 216 213 211 212 212 211 208 207 210 210 209 205 208 210 197 167 152  93  66  25   9   5   7   3   9  47  84  87  87  83  82  81  76  78  82  83
 113 111 101  89  84  96  98 104 103  42   0   1   0   0  31 121 123 125 120 137 137 130 138 141 149 165 178 181 186 191 194 191 192 195 198 198 201 206 210 217 220 220 221 217 217 218 215 216 219 219 217 217 217 214 215 213 213 218 213 210 211 207 209 212 211 208 211 207 204 207 203 179 147 113  67  40  11   2   4   4  21  69  72  80  88  85  82  74  78  84  86  88
 109  98 104  88  87 100 105  90  83  44   2   2   0   0  38 120 123 119 124 138 132 139 139 141 156 171 182 187 189 195 204 198 195 193 200 204 205 209 209 216 219 218 218 216 215 214 215 218 218 219 218 217 215 214 214 215 215 216 216 212 213 211 209 211 213 206 211 210 205 204 203 185 142 121  70  45  24   3   4   4  30  73  79  78  79  83  78  73  81  85  86  82
 137  99  72  90 126  84  96 102 106  66   1   2   0   0  39 115 121 121 129 134 139 142 141 146 157 171 178 182 193 201 204 201 202 192 185 192 200 205 209 215 216 216 217 217 216 211 212 218 220 221 219 220 216 215 217 215 213 215 215 213 214 211 211 211 211 211 210 211 206 208 211 187 145 122  84  40  39  12   3   2  37  87  99  89  84  89  84  82  85  89  86  79
  91  91 101  83  94  86  84  80 107  64   0   0   0   0  40 107 121 123 128 133 141 140 141 154 163 170 172 179 195 201 200 205 212 208 200 197 196 198 202 202 207 215 218 217 218 216 215 216 221 222 222 222 220 217 218 219 217 216 215 212 211 206 211 213 210 211 211 212 212 210 215 205 147 124  91  40  27  18   5   2  28  96 108  98  94  96  94  99 106 110 107 103
  84 125 133  95  80 105  86  65  78  63   0   0   0   0  28  97 122 124 128 138 141 135 148 162 163 166 172 180 187 195 197 208 215 216 211 209 209 203 199 192 198 208 216 214 218 217 216 218 222 225 223 220 221 220 220 222 219 215 216 215 211 207 207 211 210 212 210 211 212 210 213 212 152 122  94  54  20  14  12   3  30 113 106 100 101 100  97 100 101 105 112 114
  99 115  97  86  76  75  71  75  86  68  12   0   0   0  18  92 117 122 129 139 136 133 154 168 166 168 180 184 186 184 189 191 202 209 207 213 207 205 206 197 200 206 213 216 210 210 210 221 226 228 229 228 226 225 223 223 222 216 216 216 211 209 210 214 213 212 211 212 210 209 213 208 165 125 101  58  23   6  12   2  72 154 127 121 139 127 112 122 124 122 120 129
 133  84  70  82  91  49  49  57  65  71  36   0   0   0  14  93 114 119 128 139 132 138 153 162 170 173 185 197 196 195 192 187 191 203 201 211 214 207 210 206 204 211 214 216 203 199 197 211 224 226 232 230 225 226 228 227 220 217 222 222 216 208 211 211 210 211 213 211 210 212 214 206 171 120  93  47  25   7   4   5  86 149 144 145 156 154 141 143 161 169 156 162
 134 134 127 121 114  92  93 110 116 110  67   2   0   0  10  94 111 121 127 133 131 147 152 156 170 165 177 163 143 140 150 161 174 195 204 205 216 212 210 213 212 212 214 216 185 172 165 163 192 226 235 230 230 227 226 223 220 221 227 218 216 212 208 208 212 212 207 210 211 211 210 206 182 124 100  68  16   0  30 154 155 147 153 144 126 148 128 109 130 153 161 142
 141 144 134 134 121 120 131 129 135 134 113  26   0   0   6  96 107 121 130 130 129 146 143 151 151 132  96  59  80 122 144 152 159 178 197 207 222 214 211 220 219 212 201 201 184 169 138 107 140 164 188 215 222 225 223 218 221 221 215 213 214 212 209 208 211 213 205 210 210 210 210 207 187 137  98  62  12   0 114 227 215 170 166 137 124 159 171 135 132 138 147 143
 137 142 134 129 137 141 143 122 119 117 132  81   2   1   0  86 109 118 134 128 133 129 123 113  91  78  56  83 120 129 144 151 154 168 191 204 217 215 215 220 225 214 196 191 186 185 156 152 129 100 105 139 164 174 183 177 177 189 207 215 219 213 211 210 210 212 209 209 211 211 209 209 197 134  98  67  20  22 205 230 198 170 159 142 147 165 161 155 166 169 172 169
  74 100 102  95  95  94  94 112 130 130 126 142  74  22   1  78 111 109 128 127 125  93  93 102  73  57  84 118 132 134 137 155 165 167 187 199 209 212 215 222 227 217 204 198 191 195 180 163 135 131 124 123 108 123 143 145 168 176 175 206 215 214 208 207 208 210 211 209 210 209 210 211 201 146  99  70  32  53 233 194 154 172 159 140 159 168 157 155 168 165 175 156
  66  83  81  59  48  52  80 103 120 119  91 102  94  56   6  70 110 111 120 123 101  66  67  80 100 152 180 175 162 143 137 149 164 171 180 192 196 204 211 220 222 219 213 201 202 201 196 186 172 153 149 135 140 149 167 173 181 172 166 181 192 188 193 203 210 207 209 207 207 209 209 210 202 150 101  78  86 111 212 159 183 182 163 150 166 177 178 167 167 158 174 162
  81 101  92  73  52  76 114  91  85  80  91  85  95  82  10  64 113 107 114 108  69  68  94 118 164 176 178 177 171 161 141 125 130 151 168 180 190 199 205 211 213 220 215 206 204 203 199 192 179 168 163 165 169 175 185 186 186 169 155 145 150 172 186 194 199 200 206 209 205 209 206 205 207 153  90  98 134 135 185 176 186 186 166 168 146 152 166 169 165 134 148 160
  95  86  80  80  91 125 106  95  93  84 104  97 110  96  20  53 121 105 110  81  71 111 135 159 169 169 175 173 161 152 150 139 120 115 131 154 175 191 200 209 214 217 216 209 204 199 189 184 182 172 142 124 134 148 167 183 189 192 193 190 177 179 181 183 196 205 210 209 207 206 204 207 211 162  81 107 126 136 197 185 186 187 168 177 173 154 166 163 170 158 153 157
 109 105  96  99 123 117 106 109  98  99  82  93 113 102  45  47 124 112 106  69  83 113 147 158 162 172 158 144 141 135 128 121 113 118 110 113 139 177 198 209 216 218 217 212 202 192 178 176 174 156 145 158 162 162 165 171 174 183 198 207 202 197 198 198 199 207 208 210 211 208 206 206 211 168  77  94 120 160 206 187 191 172 148 168 178 140 172 178 158 157 166 154
 112 110 110 128 120  92  88  88  86  75  85  94 113  98  57  46 120 119 105  74  93 115 132 148 163 141 131 140 160 180 183 165 112  94 118 118 101 144 195 210 221 222 220 216 203 187 173 170 167 158 164 144 102  77  82 106 129 148 169 175 198 200 200 200 202 208 210 209 209 208 206 205 209 179  84  86 133 159 220 191 195 160 156 173 178 138 155 164 149 166 147 143
 121 131 112 104  98  80  68  69  76  66  82  81 106 105  60  48 114 119 113  92 101 115 123 148 129  93  90 110 111  71  95 133 157 113  97 123 111 103 177 208 223 226 219 216 210 192 175 173 166 151 136 118  40  55  75  79 127 128 115 142 155 192 196 196 202 208 209 214 212 206 207 206 210 186  98  95 125 151 219 209 186 128 139 143 149 136 140 138 134 150 139 136
 122 118 112 105  90  77  82  78  70  69  80  77  90 102  78  48 111 122 115 103 108 109 117 124  54  41 117 192  97  40  71  78 130 141 122 131 138 100 148 209 220 231 222 219 217 205 193 192 164 132 186 198  88  61  57  77 182 209 122 125 158 170 184 193 199 205 214 214 213 208 204 205 207 191  94  89 144 177 216 218 154 133 151 139 144 129 125 134 136 147 155 148
  98 103  86  88  86  86  82  78  76  78  84  96  82  77  84  51 107 127 124 122 119 112 106  80  53  95 166 185  77  61  69  86 166 188 102 141 168 121 133 205 215 226 223 219 219 221 220 210 163 162 190 216 150 102 104 134 200 191 178 157 176 180 184 198 202 207 213 213 212 207 205 207 206 196 114  83 184 206 223 218 121 150 160 152 162 164 154 157 151 142 150 154
 110 103  99 101  95  86  79  77  83  86  81  94  93  72  76  57 102 128 132 130 124 118 111  85  73 124 153 191 115  70  85 125 180 178 141 156 161 129 134 195 210 219 220 220 216 220 219 205 189 179 172 174 175 176 185 182 178 175 186 202 203 204 201 204 209 213 210 212 211 207 205 204 202 200 134  81 209 209 225 204 109 137 138 137 132 140 154 153 146 154 159 158
 114 101 115 116 116  98  88  84  89  88  84  92 100  82  91  52 102 126 133 136 135 129 114 108  83 113 146 158 151 154 175 189 188 181 164 156 146 123 142 193 204 212 218 217 209 211 216 202 181 168 164 169 179 184 184 181 188 195 207 212 209 216 217 210 210 212 208 210 213 208 205 201 202 204 149  95 202 203 223 185  87 105 112 140 145 107 121 164 152 140 151 156
 116 107 121 124 123  98  94  91  75  74  86  90  96  83  92  45  99 125 135 141 144 137 113 119 117  97 119 131 141 153 162 170 178 174 161 162 138 119 153 193 198 208 215 213 204 203 213 218 201 192 183 183 185 191 198 204 202 205 206 208 210 214 216 214 209 208 210 209 208 203 205 201 202 206 162 106 159 203 217 167  87 117 116 147 170 110  87 124 158 117 102 107
 138 120 119 120 116 113 101  89  75  63  63  65  79  91  81  37  98 123 135 148 150 138 127 128 129 122 120 139 156 165 171 168 173 183 172 156 135 120 150 189 201 207 217 214 211 210 211 218 217 209 205 202 205 207 207 213 216 214 212 213 212 208 207 208 209 206 209 211 208 206 203 197 205 205 174  98 125 218 218 167  96 123 117 126 109  96  69  86 105  97  95  93
 151 142 131 122 131 122 118 103  86  80  69  58  60  81  75  27  85 120 125 145 152 148 144 135 132 145 138 144 160 171 177 176 187 186 171 154 133 120 142 185 198 205 211 211 216 217 211 210 216 219 219 214 213 221 224 225 229 222 214 211 206 205 204 209 211 208 206 211 207 206 203 201 202 204 172 115 141 200 223 175  89 105 120 120  93 114 116 106 100 110 102  99
 144 151 140 134 140 120 121 129 117 105 108  94  77  61  71  21  69 122 121 146 149 152 159 154 142 146 151 160 175 180 184 190 197 175 164 148 133 116 142 185 203 209 209 205 213 215 211 209 214 214 218 217 213 217 220 218 213 208 206 205 205 206 207 210 211 213 212 207 207 205 204 201 201 205 174 131 157 187 220 168 103 122 136 141 138 165 150 108  93 111 115 127
 153 149 150 142 136 127 128 130 118 112 126 134 130 121  87  21  68 120 124 140 148 154 161 174 164 150 152 167 182 184 185 191 184 165 157 148 129 114 145 183 200 201 206 201 203 209 212 207 206 210 211 212 212 208 207 207 203 201 203 206 210 215 213 211 212 214 214 210 209 206 202 202 202 205 173 132 163 194 211 161 139 158 157 169 157 160 154 140 142 143 144 165
  78  90 123 146 159 150 143 130 126 116 106 137 137 125 120  40  65 111 118 135 147 158 165 174 174 164 162 172 182 187 192 186 169 160 157 145 123 118 154 185 201 202 204 204 201 205 213 211 205 210 208 211 211 207 206 208 208 204 210 210 213 217 215 219 218 212 210 212 208 207 204 198 201 207 173 111 152 204 206 146 119 139 148 143 124 123 131 134 156 143 149 139
  72 110  84  77  87 101 133 134 139 126 103 117 131 119 101  50  67 109 112 129 146 158 164 170 169 168 172 174 181 191 186 177 161 162 161 141 115 125 162 188 205 205 204 204 203 202 205 215 218 216 215 207 207 206 207 209 204 207 215 218 217 217 219 218 217 214 211 212 207 203 205 201 204 207 172 101 147 212 202 135 122 141 140 138 131 124 126 117 130 120 120 117
 113 116 121 112  94  78  77  87  95  99  95  96 107 102  87  53  61 106 116 128 143 157 160 170 171 173 177 179 182 186 178 170 156 165 167 151 115 137 168 191 205 206 204 200 200 197 192 196 217 226 222 209 205 204 204 205 208 210 213 214 217 217 221 219 217 216 213 211 209 207 201 200 204 208 175  98 143 210 202 139 144 158 145 125 132 137 136 130 133 130 135 131
 135 155 160 110 139 156 116 102 100 102  95 105  90  85  97  64  51  99 116 126 142 153 163 170 171 174 175 177 179 177 176 168 158 173 181 161 114 144 176 196 202 205 211 204 206 202 197 193 195 213 219 217 217 213 207 211 208 211 217 216 215 216 217 218 218 215 214 212 211 210 202 199 205 207 162  90 149 208 192 154 161 164 154 149 146 153 151 149 140 135 138 138
 138 143 111 108 130 122 117  95 105  81  77 101  99  71 102  89  49  92 111 124 142 154 166 170 172 175 171 173 176 175 178 169 170 176 186 147 108 144 183 199 210 213 221 215 211 210 208 201 192 191 202 212 217 216 214 217 215 216 218 220 217 218 218 220 218 218 216 214 211 208 206 200 205 207 146  70 135 214 177 161 157 146 152 167 152 158 156 141 147 162 160 147
 141 124 127 127  95 114 122 111  99  72  62  68  82  94  76  70  36  80 111 124 143 153 166 171 173 169 169 174 175 180 177 167 176 178 185 128 107 132 177 206 210 214 214 205 205 210 214 210 198 183 175 195 208 211 215 219 221 221 221 222 221 218 217 218 218 219 215 216 213 207 207 202 204 202 138  65 173 194 159 162 149 151 159 153 147 151 152 145 152 155 157 153
 115 130 139 122 108 130 117 132 127 100  91  65  90 120 119  81  30  62 106 122 140 156 167 172 171 167 164 167 176 182 170 164 178 183 177 116 104  97 153 200 205 194 189 181 145 111 143 186 186 190 166 162 192 204 214 219 222 224 221 219 222 223 222 221 217 218 217 216 213 211 204 198 201 201 140  86 173 131 163 177 164 162 153 145 159 164 164 155 154 155 163 162
 144 127 134 134 146 144 142 142 141 113 114 123 102 100 111 104  44  62 101 122 140 153 163 166 164 170 167 170 180 185 169 170 174 176 176 123 100  75  70 138 181 180 175 183 179 178 160 144 183 215 208 157 166 191 203 210 220 221 219 217 217 221 220 221 217 215 216 217 214 213 208 200 203 197 132  84  69 117 180 171 169 167 153 145 162 169 167 163 152 160 163 158
 171 164 161 150 150 145 142 151 138 129 128 124 127 137 124 108  45  46  92 122 139 151 158 163 165 165 170 172 176 189 174 172 179 177 180 164 116 111  91  77  91 119 162 199 211 205 188 193 214 221 225 201 148 166 191 203 213 216 218 220 219 220 220 218 218 217 215 216 212 213 209 202 202 183 107  58  28 157 177 172 171 171 163 147 170 168 163 168 163 162 168 162
 155 156 159 165 161 126 132 159 150 137 135 142 146 153 146 138  47  33  82 117 138 151 155 163 167 164 164 169 178 193 177 172 178 178 179 171 162 137 110 119 123 157 181 194 191 175 195 217 216 217 219 224 185 146 176 197 209 216 218 220 222 220 217 218 219 218 217 214 212 208 206 198 200 167  93  65  74 184 174 173 175 160 170 160 166 173 164 166 172 171 181 174
 116 124 147 138 102 126 141 140 127 107 133 160 165 149 134 142  78  18  69 116 138 146 159 161 160 163 165 168 180 192 196 186 180 182 174 172 165 151 119 131 152 183 199 180 172 149 151 166 176 206 222 222 224 163 153 189 206 212 212 216 219 217 216 218 219 217 216 215 214 213 206 196 199 151  67  61 113 168 152 148 159 155 178 164 166 147 133 146 172 177 172 154
 110 113 102  96  93 107 126  99  96  86  76  91 109  83  94 127  90  17  52 110 137 145 155 157 157 163 162 169 181 193 202 204 203 194 188 187 164 132 108 108 127 161 198 172 138 116 113 123 133 188 200 218 225 208 144 170 198 205 214 217 214 216 211 214 217 217 215 216 208 208 204 195 188 126  65  93 135 127 107 106  96 110 141 128 133 114  79  98 130 172 155 121
 106  93  84  90  90  87 101  87  76  79  68  52  42  55  78  72  93  29  36 101 133 149 155 156 157 161 162 172 184 193 200 204 207 200 201 179 139 105  97 104 124 159 201 191 144 112 102 108 112 151 170 183 201 218 181 149 188 202 211 219 218 213 206 212 216 217 211 209 207 209 202 189 170  92  77 104 103 103 105 102 115 102  95 102 113 121 108 107  87 103 105 119
  44  49  63  65  68  72  71  79  75  67  69  66  55  57  63  59  72  36  23  96 132 143 156 152 158 154 161 174 183 191 197 201 202 200 169 153 109  82  98 117 141 187 209 204 187 161 112 116 115 132 163 153 154 171 202 157 166 198 204 212 216 215 208 215 215 211 210 213 212 207 199 181 145  68  81 104  91 100 102  95 126  99  80 101 116 105  94  99  94  86  92 107
  34  36  42  40  47  45  42  43  46  47  45  47  50  53  53  55  60  32  15  78 130 145 154 155 155 157 164 177 184 190 195 195 193 169 125 117  87  66  82 124 175 197 205 196 197 180 134 119 108 125 172 148 125 136 169 182 151 190 205 209 210 213 208 211 211 210 209 213 209 202 195 171 113  71  46  81 108 103  98  92  98  90  83  80  86  91  83  78  85  73  80  77
  37  39  46  49  49  44  47  49  45  42  39  38  37  35  38  35  35  28  13  50 124 140 150 157 154 153 164 179 186 191 197 189 162 124  96  99  88  78  88 138 164 160 164 170 168 165 155 144 123 117 142 127  86 112 134 182 160 183 202 210 214 213 208 209 210 211 209 213 201 192 192 159  88  84  27  35 125 164 145 155 129 127 130 122 106 103  99  94  91  70  67  67
  38  41  47  48  48  48  50  49  49  45  43  40  41  39  39  39  38  35  18  37 111 136 149 154 152 153 161 178 187 190 197 175 132 102 100  70  70  93  90 119 132 130 140 144 154 159 160 155 144 148 134  96  88 108  92 159 175 182 202 206 208 211 210 209 206 209 212 205 187 189 186 120  44 122  85  13  48 137 167 169 156 159 167 161 157 150 136 146 139 120 121 108
  37  41  46  46  48  49  52  48  50  47  42  39  40  39  41  39  39  40  20  20  85 123 145 147 148 154 164 174 188 193 194 163 109  90 121 105  63  77  83  97 108 117 132 134 154 169 177 177 175 169 165 168 178 173  98 124 181 188 204 206 204 207 210 209 207 207 210 192 191 175 164  87  31 151 181   2  21  52 150 154 146 149 120 113 151 154 141 147 148 142 144 140
  34  40  45  46  50  51  51  46  49  47  41  42  38  39  40  41  41  41  19   7  47 103 136 141 147 148 162 166 187 192 190 165 104 131 180 156 136 122 129 135 159 178 188 185 190 191 191 190 184 180 195 213 215 199 152 127 170 204 206 208 210 209 203 205 206 201 199 185 182 162 130  73  39 185 248  22  10  33  68 109 107  95 107 101 117 145 143 146 131 117 124 130
  37  42  44  47  49  51  50  49  51  48  43  39  42  40  39  40  40  42  28   6  24  81 122 136 137 142 152 169 183 187 190 167 133 136 161 153 147 140 131 126 150 168 182 175 180 179 182 188 195 200 213 214 214 213 221 181 157 211 212 210 209 208 201 189 189 191 182 168 175 145 107  71  69 155 255  82   0  35  43  60  60  66  78  79  75  84  95 107  99  87 101 112
  38  42  45  46  49  49  47  50  49  47  44  40  41  41  41  41  44  40  28   4   7  51 102 131 131 135 144 160 175 184 192 185 159 169 174 166 155 149 153 144 149 160 165 171 176 187 197 207 213 214 214 215 214 219 224 211 162 199 214 209 204 195 200 190 173 182 176 163 167 113  91  48 103 138 253 151   0  20  49  49  36  35  37  39  40  42  42  42  48  51  52  60
  37  42  44  49  50  50  49  48  46  45  42  43  41  39  40  40  43  36  34  11   6  22  73 107 108 115 134 147 168 185 191 206 190 170 180 175 160 153 163 172 177 182 184 194 195 197 207 212 214 214 217 215 215 219 222 223 190 185 205 203 195 185 185 193 185 183 163 158 139  88  77  43  89 185 255 205   3   5  45  52  47  36  35  38  37  36  35  34  34  36  32  31
  37  40  47  50  51  50  48  50  49  51  45  42  43  41  41  39  43  39  32  27   7   9  46  79  74 110 130 144 155 174 193 201 191 174 171 170 173 163 164 179 187 189 172 173 181 194 200 204 212 214 214 214 215 219 221 224 214 191 190 191 182 173 170 180 173 178 142 129  94  73  53  34 122 223 255 245  53   0  39  52  58  41  39  39  40  41  41  38  37  39  39  36
  35  41  47  47  49  48  48  52  48  51  48  42  43  40  43  44  48  46  33  12   1  13  32  44  69 104 119 127 139 159 186 199 185 172 172 178 178 174 168 169 178 173 154 148 165 191 197 204 213 214 214 215 218 219 218 220 216 198 179 174 170 149 160 174 158 164 123  96  76  65  21  33 195 255 254 254 126   0  34  52  65  54  39  39  39  40  42  41  40  39  40  36
  35  41  43  48  50  52  53  51  52  50  48  45  45  44  43  43  37  20   4   1  11  16  35  27  62  80  86 104 114 145 159 186 177 170 172 175 175 178 177 171 169 161 146 148 169 192 199 206 207 208 214 217 218 217 213 207 198 190 169 169 158 135 141 148 134 118 101  54  79  42  25 112 254 254 252 255 172  17  29  51  63  69  52  38  40  40  41  39  41  41  40  38
  34  39  47  50  50  54  53  51  55  56  53  46  40  34  26  23  18  14   6   3   8  11  12  19  27  56  74  80  96 111 138 171 158 153 169 178 183 182 184 176 167 160 146 164 169 198 205 207 208 208 211 216 216 216 209 177 167 166 167 162 146 101 137 136 109  88  72  41  64  17  72 228 255 255 249 255 206  55  24  49  59  70  66  46  37  41  40  40  40  42  41  38
  32  39  45  49  54  55  53  53  47  40  30  20  16  19  19  18  20  12   4   3   4   4   5   4  14  34  47  59  68  80 121 154 134 151 166 175 179 186 189 183 181 165 163 163 191 211 210 211 209 206 214 217 217 214 209 170 136 129 141 158 138 121 129 118  90  85  47  34  32  23 154 255 255 253 248 255 226  80  21  50  57  68  71  65  46  35  39  42  39  39  39  36
  36  42  47  48  40  34  28  24  17  16  15  20  20  20  20  23  17   7   6   3   4   2   4   9  12  13  16  62  73  74 116 121 122 145 160 178 181 190 190 188 189 163 161 175 208 222 220 222 214 212 219 220 217 208 198 171 121 116 116 127 145 124 100  96  77  65  19  32  41  49 232 255 255 252 249 255 236  99  23  50  59  70  70  65  60  48  44  40  39  41  40  39
  37  35  29  19  18  18  15  16  19  20  18  22  24  21  22  19   9  10  11   7   2   4   7   5   3   3  12  26  49  90  87  85 102 121 140 162 182 186 189 186 180 162 179 179 194 208 203 219 227 222 217 219 216 210 180 161 115  93  97 102 133  90  96  93  39  33  16  29  42 155 255 255 254 249 252 255 236 105  25  51  61  69  73  67  65  55  49  52  46  41  37  37
  21  19  16  16  20  17  16  21  22  21  23  22  22  22  22  11   9  11  11   7   5   2   0   1   2   4   7   5  29  58  61  67  73  97 121 139 174 184 184 189 177 163 186 174 174 185 183 203 212 216 218 219 217 211 181 168 120  85  71  62  95  65  84  65  34  16  29  40 135 255 253 255 251 249 254 255 228  97  27  53  64  66  71  64  63  52  46  47  48  52  47  38
  17  17  19  20  20  19  21  23  23  24  24  24  21  24  17  11  14  14  11  10  11   6   1   1   1   4   4   9  16  28  42  44  63  64  83 114 159 177 160 169 165 164 176 181 166 162 189 187 190 212 208 204 221 214 163 139 102  73  30  34  53  60  65  32  28  21  40  68 216 255 253 254 251 251 255 255 218  71  28  55  62  64  70  66  63  61  52  48  44  47  54  56
  16  20  21  21  18  20  20  20  23  23  26  21  24  21  10  10  11  12  11  13  13  16   8   3   2   1   1   4  12   9  22  37  50  46  52  96 118 146 137 137 150 154 157 166 162 140 167 165 158 186 192 195 216 188 119 107  82  61  64  44  63  64  33  45  36  47  52 140 252 255 255 253 250 253 255 255 200  41  31  58  64  69  67  69  65  60  56  48  46  46  42  46
  20  23  22  20  21  22  22  20  24  25  22  21  23  14  10  11  10   9  11  14  13  18  11   1   7   3   0   1   6  26   9  31  33  27  22  53  81 111 116 111 140 141 146 145 138 125 152 134 139 153 165 177 188 146  87  77  61  61  75  47  41  39  38  37  40  63 104 240 255 255 255 252 251 254 255 255 172  17  43  53  62  68  70  69  64  60  54  52  46  48  48  45
  20  21  20  22  25  23  24  22  23  23  22  23  19  12  13  11  10  12  14  16  17  26  20   1  16  69  16   3   2  25   5  17  26  16  35  25  46  82  86  81  92 118 124 136 130 126 151 107 119 142 152 146 146  94  50  53  49  45  53  42  32  52  50  30  51 133 242 255 255 255 252 251 251 253 255 253 131   6  50  50  61  66  68  69  65  62  60  55  48  47  50  52
  21  22  21  24  22  22  23  22  22  23  25  25  13  16  13  11  12  13  12  14  21  25  23  10   8 110  78   1   2  26   7  12  19  23  22  18  27  48  58  72  65  79 101 111 109 115 121 107 113 134 151 125  83  59  39  40  51  34  51  30  50  47  30  31 117 246 255 255 255 254 252 251 251 253 255 242  85  12  57  55  58  64  69  69  64  62  57  56  52  46  50  45
  25  24  25  24  22  25  24  23  23  23  25  16  10  14  13  13  10  12  16  18  23  27  24  16   2 120 143  71   6   5   7  14  16  25  16  10  11  13  35  55  66  75  93  95 104  91  85 121 105 111 101  73  50  40  30  29  34  25  36  39  46  31  42 118 239 255 255 255 253 252 251 251 252 252 255 223  44  25  52  55  61  62  65  67  67  62  57  55  55  47  44  44
  30  28  26  24  25  24  24  24  25  24  20  10  11  12  14  13  11  11  15  21  27  25  25  16   8 125 174 155  63   1   0  12  13  26  19  10  11   7  16  24  47  57  63  62  72  77  59 105  80  70  62  47  40  26  26  24  34  16  33  40  43  35 111 240 255 255 254 255 253 252 249 251 251 252 255 189  14  44  50  60  61  66  67  68  65  61  59  56  56  47  45  46
  39  39  33  28  22  20  24  24  23  25  15  11  15  16  11  11  14  15  20  26  25  22  23  17  14 127 186 199 162  52  11   8   4  21   1  10   7  15  18  20  15  45  48  53  35  59  56  49  55  52  52  57  37  20  32  22  12  24  24  46  43 107 235 255 255 255 255 254 252 252 250 251 253 254 254 146   3  54  48  56  60  65  66  67  64  60  59  55  58  52  50  49
  42  43  40  35  28  23  24  22  23  18  10  17  17  14  10  10  14  19  20  26  26  24  21  18  16 129 182 204 207 177  73   0   3   6  19  13   5   2   9  23  24  22  26  29  26  15  26  38  47  55  62  35  40  32  31  17  24  44  38  44 118 219 255 253 255 255 255 252 253 253 252 253 254 255 254  92  14  56  48  59  62  68  70  66  59  57  59  55  58  53  47  49
  51  46  46  42  36  30  24  23  24  22  14  16  20  15  13  15  22  23  22  24  23  23  21  14  15 134 174 199 215 223 159  61   5   0  21   7   8   6  12   6  19  19  24  20  21  10  17  35  32  52  47  31  44  37  13  30  51  40  47 140 235 255 255 253 255 255 253 251 253 253 252 254 254 255 235  39  36  55  50  56  64  66  69  65  66  61  58  56  55  52  46  48
  44  45  47  46  44  38  26  24  23  25  22  16  12  11  14  21  24  24  22  21  24  24  22  16  10 138 170 189 214 227 230 197 101  18   0   0   3   4   5   5   5   9  12  16  14  14  23  40  35  31  22  20  19  26  34  52  56  62 175 255 255 255 255 255 255 254 254 255 252 251 253 255 255 255 196  11  52  49  51  56  64  65  66  63  67  66  59  53  54  55  49  48
  48  45  45  45  45  40  31  26  22  23  23  23  16  16  13  20  22  21  22  24  24  23  24  19  11 138 174 179 208 221 233 242 225 132  16   0   0   0   6  15  15  21   9  13  18  35  35  21  21  28  27  31  48  46  47  44  76 206 255 255 255 255 255 255 254 253 254 255 254 253 255 255 255 255 140   7  51  45  48  57  64  66  63  65  63  61  56  55  51  53  50  44
  49  45  45  44  45  41  37  32  27  25  22  18  20  23  25  23  22  21  23  24  25  23  23  21   9 139 180 175 201 216 227 235 246 214 106  40  26  36  19  11   6  16   6   5  20  36  36  21  28  26  25  46  48  47  42  89 226 255 255 255 255 255 255 255 255 254 255 255 255 255 255 255 255 255  85  23  53  43  47  59  66  68  66  64  65  61  55  53  50  52  54  44
  44  44  46  49  49  43  39  38  35  24  20  26  37  35  28  24  22  22  23  25  24  24  24  23   6 136 187 174 196 214 224 230 236 236 199 168 161 148  91  46  17  18  12   6   2   9  23  26  16  40  77  83  86  86 144 249 255 254 255 255 255 254 255 255 255 255 255 255 255 255 255 255 255 243  42  41  51  51  54  54  63  65  67  65  66  63  56  51  48  50  54  48
  47  46  48  47  48  46  42  43  33  32  43  46  47  44  35  29  28  27  23  25  26  24  25  22   4 131 193 179 191 213 222 227 232 232 227 232 228 226 218 211 187 141  84  33  26  34  51  79 111 134 135 120 135 196 255 255 254 254 255 255 255 255 255 255 255 255 255 255 255 255 255 254 255 197  20  55  49  53  56  59  59  62  64  62  64  58  55  49  48  48  53  49
