P2
# Generated by OpenCV 4.2.0
92 112
255
  41  41  41  39  40  40  41  40  38  40  39  41  39  42  40  45  39  41  41  42  43  40  41  41  41  42  37  32  28  30  26  31  33  27  31  31  51  58  57  57  53  40  43  59  39  39  30  27  25  25  23  24  25  29  29  32  32  25  33  35  32  37  36  31  36  36  55  82 193 241 216  69  52  41  41  40  43  42  41  42  39  40  37  41  40  42  41  43 100 127 198 245
  41  41  38  39  41  41  38  40  38  39  39  38  39  39  42  40  41  40  40  41  40  39  43  40  41  39  38  46  44  45  45  37  29  26  28  41  51  53  51  56  51  43  42  50  48  41  31  31  26  23  28  24  32  28  21  27  32  34  29  26  24  24  23  24  27  20  17  95 174 201 148  70  48  42  42  40  40  42  42  40  37  41  38  41  38  39  43  48 201 178 207 251
  40  40  39  40  39  41  39  41  41  41  40  38  39  40  41  40  40  39  40  42  42  41  41  39  40  38  37  41  48  52  44  36  25  27  33  32  60  53  48  46  39  39  38  49  54  49  31  31  32  30  28  30  32  19  20  39  43  30  21  21  17  14  13  16  15  13  35   9   3 154 143  59  45  40  42  39  37  41  39  36  40  38  41  39  42  42  43  41 136 102 225 245
  37  38  40  39  38  39  37  39  39  39  38  40  40  39  38  37  41  41  39  38  37  37  30  37  38  37  40  30  43  52  59  36  24  19  36  39  55  60  45  48  37  38  40  54  61  43  38  30  32  32  34  37  34  39  44  36  20  21  22  23  18  18  22  22  22  18   5  18 150  14 140  53  54  47  39  42  39  41  39  39  36  40  40  43  39  42  44  51  79  96 202 250
  40  41  40  38  42  39  38  40  40  40  39  38  40  40  40  39  40  40  44  33  18  21  21  28  28  38  42  57  41  52  45  45  22  28  27  41  55  42  46  50  27  34  38  54  56  45  40  38  33  36  43  37  44  38  29  27  20  21  27  24  29  32  30  30  32  30  33  28  13  45  34  57  49  45  44  43  41  41  39  38  39  39  38  39  39  41  42  48 108 108 242 250
  39  40  41  41  39  38  38  40  40  38  42  41  39  40  39  40  41  34  20  12  18  23  22  26  30  32  35  55  75  53  51  41  20  30  35  44  47  61  48  45  58  39  32  42  54  48  42  34  36  49  40  44  40  29  33  31  21  29  26  30  36  29  35  31  32  34  43  65  63  18  10  44  52  42  46  43  41  40  40  41  41  41  39  40  38  43  40  57  64 117 206 252
  39  37  42  39  40  39  38  40  38  39  37  38  38  39  40  36  30  29  29  28  30  25  28  33  36  25  38  42  49  58  51  63  21  27  53  47  54  44  63  46  46  40  36  40  52  48  38  35  43  52  47  48  30  36  32  29  27  29  30  33  37  37  37  34  29  26  19  20  16  47  31  20  36  48  46  44  43  43  41  40  38  40  37  40  41  43  38  47 105  76 235 251
  41  40  40  40  40  40  39  41  40  40  43  39  43  41  39  26  29  27  23  28  23  24  31  35  42  43  47  34  47  54  53  53  47  29  47  63  52  52  45  52  43  44  34  33  52  44  45  46  50  49  55  42  34  41  31  32  28  32  26  39  40  43  41  32  29  28  26  21  20  16  14  30  22  32  41  48  46  42  44  37  43  37  39  40  40  41  40  50  75 140 232 247
  40  39  41  39  40  40  41  40  37  40  38  40  38  45  20  30  45  49  53  20  27  25  36  38  48  52  58  65  45  44  57  48  43  38  47  60  55  47  58  48  55  39  36  30  50  54  46  56  52  49  49  48  40  40  30  33  34  32  44  49  43  40  37  31  32  29  23  19  17  19  18  12  21  30  35  41  53  47  45  43  39  40  40  39  41  40  39  51 116 242 207 247
  37  41  41  37  43  39  39  39  42  37  41  38  36  31  29  27  20  18  21  36  35  46  37  41  42  72  65  65  54  46  39  72  49  50  55  65  54  49  44  50  63  35  30  28  49  60  51  52  61  70  37  42  41  37  22  25  36  39  54  49  48  42  28  43  32  32  27  27  23  21  17  13  13   4  21  31  44  53  52  41  41  39  39  41  40  40  41  50  82 113 228 249
  41  37  39  39  38  37  41  38  40  40  37  37  34  24  18  18  17  20  21  22  32  50  63  48  58  44  58  47  59  48  38  25  59  44  58  58  56  48  48  44  42  45  26  30  46  46  53  62  62  63  38  53  34  31  22  24  42  47  40  46  44  32  38  25  35  28  34  33  26  22  23  18  13  17  11  30  38  47  46  46  41  43  42  40  42  39  42  58 108 222 221 247
  40  39  39  38  38  40  38  41  40  40  39  36  24  16  16  18  19  23  24  34  20  52  53  46  47  56  42  40  47  52  53  37  48  36  59  59  52  49  60  51  32  37  27  30  47  46  57  75  65  60  38  41  35  31  28  32  42  38  50  51  41  26  22  35  32  25  22  22  26  24  18  20  13  12  10   9  29  40  47  47  45  46  42  41  42  40  42  50  63 136 215 243
  40  39  40  40  36  40  39  41  42  37  32  34  19  21  21  16  19  26  25  30  28  26  40  45  35  43  45  44  41  51  48  51  31  53  45  54  53  49  49  42  48  28  34  34  48  54  60  53  92  43  36  39  37  38  38  44  39  38  41  31  20  21  21  21  25  22  24  22  22  21  35  20  23  16  10  10  15  35  44  52  50  50  42  43  43  44  42  62  93 170 224 238
  40  40  40  42  42  40  41  40  38  40  32  14  15  19  26  26  26  29  34  32  35  31  37  63  34  45  42  55  44  41  47  54  16  62  54  45  51  53  49  59  32  29  34  37  52  53  55  46  65  43  33  49  41  34  42  50  38  47  33  24  25  23  25  19  17  26  23  23  24  31  30  28  19  18  16  12   8  23  39  46  53  50  47  42  43  40  40  61  74 189 227 233
  40  40  38  38  40  38  38  41  41  32  35  24  19  22  20  44  40  40  42  47  22  44  30  60  54  24  47  55  59  47  45  59  39  41  54  50  51  47  63  65  59  29  32  43  50  41  51  48  59  47  47  53  44  51  55  61  70  41  50  44  33  27  23  18  17  32  26  41  10  11  47  44  27  19  22  17  14  10  37  43  49  51  46  47  44  44  39  64  87 211 222 190
  40  40  39  41  38  38  41  40  37  36  24  20  24  24  24  33  43  53  50  47  37  26  41  58  40  43  37  40  46  46  57  54  31  25  48  53  59  54  74  43  38  38  36  42  52  40  46  56  59  51  84  56  61  77  85  93  77  81  87  59  46  44  54  64  43  44  37  33  49  33   8  21  27  24  21  19  14  12  22  43  43  41  55  41  41  45  37  68  96 150 241 228
  39  39  38  38  42  39  39  36  42  31  13  19  19  26  31  39  46  57  49  47  50  33  30  42  33  56  35  34  29  39  44  57  46  28  36  27  51  60  33  75  56  39  33  44  44  53  50  63  62  71  89  94 101 114 121 114 136 132 123  93  78  48  49  53  64  48  41  35  38  47  40  21  16  27  17  21  18  13  15  34  41  62  46  50  37  38  49  65 124 124 242 219
  40  40  40  39  36  37  42  41  31  23  23  25  27  31  34  54  57  50  53  49  49  44  34  32  37  36  36  35  41  22  29  35  41  60  43  36  30  58  46  46  39  30  39  37  62  59  59  70  75  90 104 114 121 152 147 152 142 141 125 122 105  76  61  39  35  54  43  39  35  35  33  40  29  24  40  18  19  14  12  21  39  42  47  50  49  40  36  76 105 155 245 213
  39  38  37  40  37  41  44  44  30   4  28  33  32  49  40  38  50  57  54  52  48  49  42  37  34  38  39  41  26  38  36  36  40  39  52  47  37  28  51  42  43  46  30  46  45  69  85  82 100 122 135 142 155 169 175 165 171 150 147 144 138 108  84  61  45  42  55  33  31  32  31  31  30  27  39  27  19  21  12  19  34  34  51  47  46  40  42  51 100 119 230 204
  41  41  40  41  39  39  40  39  27  27  35  38  36  32  39  37  55  69  74  67  52  51  50  45  37  39  44  48  41  40  43  41  51  52  49  67  59  48  41  45  63  41  61  60  57  74 111 118 130 142 158 166 164 172 178 180 173 170 157 152 144 137  96  69  66  41  30  54  40  29  27  31  30  28  27  30  21  21  17   7  37  40  42  47  50  46  45  66  71 185 243 195
  43  40  39  40  43  38  41  37  15  48  28  36  31  34  47  61 102 132 130  99  77  55  54  56  62  67  53  68  62  53  78  87  54  91  89  85  94  99  79  74  80  82  62  82 122 121 128 139 160 162 175 174 177 179 181 185 179 181 169 162 158 144 143 105  80  59  29  46  46  30  26  25  30  30  26  24  21  22  19  10  19  42  41  49  51  44  45  59  65 151 230 210
  43  39  37  39  45  43  38  35  19  22  27  33  31  44  32 134 151 157 161 163 123  98  65  70  75  83  82  88  90  71  75  69  88 118 141 144 108 137 126 128  93 124 115 117 146 158 161 172 177 178 184 181 182 185 184 188 185 181 172 166 160 148 148 137  99  70  52  33  35  42  27  24  27  31  29  24  25  21  17  20  23  37  41  46  46  46  41  67 134 125 249 182
  43  40  43  39  37  40  38  19  46  29  39  36  42  41 125 163 171 185 189 188 190 146 126 129 105 111 128 140 160 184 140 120 130 126 152 164 168 151 173 176 148 152 164 147 170 175 185 185 186 186 186 189 187 186 186 184 184 179 175 173 167 160 149 137 123  80  76  48  22  37  40  31  25  20  24  26  19  21  18  19  22  32  39  41  44  46  42  51  64 147 243 158
  42  44  43  42  40  37  41  10  45  39  27  50  43  44 168 174 179 191 191 195 199 204 149 166 170 164 172 171 183 170 165 176 180 184 189 189 188 190 190 184 180 179 186 185 181 184 191 189 190 192 192 188 189 187 185 184 184 182 176 177 170 162 158 154 138 104  69  59  51  27  55  42  35  28  20  22  22  18  19  18  21  29  35  40  42  40  47  60  88 105 249 156
  43  43  41  40  42  39  41   5  46  32  37  34  43 157 181 180 187 195 195 199 204 188 202 192 187 189 195 197 202 197 192 198 192 197 201 204 203 201 199 195 196 195 192 191 194 193 190 192 196 193 191 192 189 185 183 187 182 178 179 175 171 163 162 162 159 119  81  74  61  45  51  48  48  30  17  17  24  20  23  13  16  25  32  37  40  42  44  51 110 116 249 163
  42  41  40  40  39  40  41   3  43  29  36  53  51 176 179 185 188 194 199 201 204 207 203 204 202 195 204 205 205 204 204 205 200 203 203 204 203 202 203 203 201 203 198 201 195 198 195 196 194 194 192 188 187 183 184 184 182 179 178 174 171 169 164 164 163 140 114  58  66  50  39  50  46  44  19  20  25  25  17  18  12  20  31  30  43  39  42  80  69 120 245 133
  42  43  40  39  40  38  40   9  37  29  32  57 134 173 182 186 191 194 198 202 204 203 205 207 206 207 205 206 206 207 209 210 209 208 206 207 207 207 205 205 205 205 203 202 199 199 196 197 195 192 190 189 187 186 184 183 183 176 176 171 170 170 167 164 167 146 133  93  69  54  50  23  54  43  35  21  21  22  20  16  15  21  26  31  39  39  40  72 107 117 248 133
  41  40  40  38  41  40  41  21  36  28  55  52 185 176 183 187 190 192 196 199 205 206 212 210 212 210 208 207 209 212 213 214 213 210 210 209 210 209 207 208 208 207 204 203 202 200 199 194 192 190 188 187 187 186 184 183 180 176 176 173 172 171 169 166 164 159 127 114  72  56  56  36  44  55  35  26  20  20  20  16  16  19  25  31  37  33  42  59 107 164 238 140
  42  42  39  41  38  40  38  20  31  34  71  72 178 176 187 188 187 194 195 198 206 209 209 211 209 210 210 210 210 211 214 214 212 208 208 208 209 209 209 209 209 209 206 207 201 201 195 192 193 189 188 187 185 185 183 181 178 175 176 174 174 174 171 171 165 162 134 113  86  65  49  75  28  42  50  28  21  18  16  20  16  18  25  29  36  37  38  69  98 220 243 109
  45  41  41  42  40  41  41  25  20  48  51 175 168 182 184 186 187 192 195 201 208 210 210 211 212 212 213 213 212 214 213 214 212 211 210 209 209 209 207 209 208 211 207 207 203 203 196 193 190 189 187 185 184 183 183 181 178 177 175 174 175 173 171 171 173 164 149 115  93  77  50  64  47  28  45  54  34  19  19  13  18  17  20  29  36  37  40  90 117 128 222 109
  41  40  40  41  40  40  39  37  37  53  53 188 179 181 187 180 184 192 198 200 206 211 210 213 212 212 213 215 216 213 216 214 212 212 213 209 208 210 210 211 212 211 207 208 203 204 198 195 190 188 186 184 185 183 182 181 180 180 177 175 175 171 175 169 169 172 158 124  89  82  73  54  69  42  30  64  38  26  17  14  15  16  17  28  32  39  38  66 216 216 234  95
  40  39  43  38  39  41  42  40  50  60 110 176 180 183 183 182 184 191 197 200 203 206 210 212 213 213 210 215 215 214 217 212 211 209 211 210 210 209 210 211 211 209 207 205 205 202 197 195 190 189 186 182 186 183 181 181 182 180 177 176 175 172 174 170 170 172 163 127 106  81  82  64  61  40  41  30  55  41  21  14  14  10  16  31  31  39  34  90 160 214 232  93
  58  42  39  42  41  41  41  42  53  73 176 169 176 182 184 182 185 191 196 199 204 203 210 215 213 213 214 211 214 214 210 217 211 212 212 210 211 210 211 212 210 206 203 204 203 202 197 194 190 187 188 189 186 184 185 183 180 180 179 177 175 172 173 170 170 167 159 139 113  90  70  62  49  72  34  33  37  53  47   8  16  12  13  25  33  36  33  67 177 218 239  84
  63  44  43  39  41  41  42  42  54  50 193 171 175 182 182 180 185 191 195 202 201 205 204 208 203 203 206 204 204 205 210 205 209 210 210 211 211 211 211 209 209 205 203 202 200 199 195 194 191 191 187 187 187 187 183 183 182 179 178 180 177 174 170 171 170 168 159 139 115  93  83  61  52  58  63  34  40  35  41  37  20  16  16  29  36  30  31  63 134 224 232  72
  72  67  39  41  40  41  42  40  65 100 171 174 174 181 180 179 186 193 195 198 200 202 195 199 201 210 210 206 207 209 205 204 208 202 205 208 209 210 208 207 204 204 202 201 200 198 194 194 191 191 190 190 188 187 186 185 183 181 179 180 176 175 174 171 170 167 156 146 116  85  74  69  41  45  71  43  33  34  28  23  16  13  18  25  38  31  28  75 162 212 240  68
  74  67  53  40  44  40  42  51  57 170 170 174 178 184 183 181 186 189 192 192 196 198 206 210 209 213 212 212 211 212 213 215 213 212 209 208 209 212 209 208 205 204 201 198 199 195 192 196 190 192 190 190 190 190 186 184 183 182 181 180 178 175 171 169 167 166 156 145 135  92  64  72  46  42  43  48  30  28  24  20  18  17  12  24  36  32  29  72  86 204 239  55
 105 123  53  43  45  44  42  54  58 196 169 175 180 186 185 183 184 185 186 194 205 205 211 207 212 210 210 210 210 209 212 213 210 209 208 209 211 211 209 208 203 203 201 196 200 192 196 191 193 193 190 191 190 189 187 185 184 182 180 180 179 176 171 167 162 159 157 144 130  97  62  57  47  44  39  37  36  24  27  16  20  16  12  16  38  32  33  60 119 244 238  54
 101  58  78  52  43  44  46  41  93 182 172 175 182 184 183 183 187 189 192 199 201 204 205 205 206 209 208 209 209 208 210 210 212 212 212 207 206 207 207 205 204 202 198 196 195 194 195 194 193 191 192 192 191 187 186 185 184 182 181 178 176 173 169 165 157 155 156 142 140 109  65  49  55  37  44  35  35  26  24  19  17  18  16  16  34  32  31  39  98 210 234  37
 178  71 131  90  43  43  47  52 100 165 173 177 182 185 187 187 189 194 192 196 198 200 202 207 201 207 207 208 208 206 210 210 209 211 208 207 207 206 208 208 207 203 199 197 196 195 193 194 192 193 188 187 190 187 183 183 183 181 178 174 173 170 168 163 158 154 157 150 140 115  78  52  41  39  39  33  30  26  22  18  17  17  13  14  37  26  25  57  93 209 237  30
  74  97 107 109  71  44  48  48  91 166 173 179 181 184 188 189 189 193 194 196 203 207 208 212 213 213 209 213 210 207 209 208 206 208 203 208 205 210 208 205 202 202 197 195 194 192 192 191 192 190 189 188 187 187 186 184 182 176 177 176 173 170 166 163 160 157 157 155 131 115  92  58  42  41  31  28  29  25  21  18  13  17  14  12  34  26  24  49 125 191 234  18
 176  92  99  92 129  40  38  43  98 163 172 176 182 185 185 186 188 191 196 199 205 206 206 212 212 210 209 209 210 210 211 209 216 211 211 210 213 208 209 209 205 200 196 194 194 190 189 193 187 191 191 192 189 187 184 177 179 177 173 170 168 170 167 165 162 162 157 155 146 119  96  67  52  40  38  29  27  21  20  18  13  16  16  21  28  26  26  46 186 213 241  11
 100  72  58 109 123 202  40  36 108 161 172 176 181 182 185 187 187 190 199 199 200 206 210 209 212 211 209 209 208 207 206 205 211 209 210 211 209 208 209 208 205 201 196 194 193 191 188 192 189 190 191 192 190 187 184 181 175 172 171 170 170 167 165 163 165 158 161 157 149 122 102  74  60  44  42  33  26  20  19  16  16  17  14  23  25  25  27  70 113 235 234  10
 174 115  85 107 119 163  31  37  98 167 169 176 182 183 183 184 187 188 198 199 199 201 204 208 209 211 213 212 210 203 206 206 205 207 209 213 212 211 209 203 202 194 192 187 192 193 192 191 190 191 189 190 187 187 183 175 178 173 171 167 170 166 165 165 160 159 162 157 150 127 107  80  61  38  41  38  25  21  16  18  13  14  14  20  28  25  34  92 172 217 234   7
 186  85 107 113 103 218  72  36  89 157 175 177 177 183 185 184 189 188 191 196 198 199 198 204 209 212 207 207 208 209 206 205 205 206 205 205 207 209 208 202 197 192 191 188 191 191 191 194 194 192 190 191 188 189 183 175 174 173 170 171 169 170 167 163 164 165 161 155 147 131  95  79  70  43  45  36  31  22  18  16  15  16  15  20  26  30  32  88  97 226 237   2
  95 125 139 103  97 130 103  30  89 158 170 174 179 182 184 187 189 189 192 195 197 197 197 200 208 206 208 204 207 204 207 206 205 204 203 205 205 203 203 203 196 192 194 195 195 195 199 197 195 192 190 189 188 186 179 176 172 172 168 166 167 164 161 161 162 160 162 155 151 127  89  96  81  51  41  32  29  22  20  15  19  16  15  20  27  29  39  76  95 228 238  14
  89  68 207 115 126 172 146  29  74 155 169 173 177 183 185 189 189 191 195 194 195 195 197 195 192 193 197 199 205 203 205 205 205 200 199 196 197 195 196 198 198 200 196 197 201 199 201 196 193 193 194 191 185 177 177 174 174 169 169 168 164 161 161 163 160 163 161 157 151 136 106 101  81  59  44  34  29  23  19  18  17  21  21  22  26  30  44  68 131 213 224   3
 120 153 120 132 176 145 173   3  44 154 166 170 175 179 187 189 191 190 192 191 190 191 187 184 172 177 188 196 203 202 206 207 202 199 201 192 184 183 175 185 189 191 195 195 196 197 194 193 188 192 191 185 182 186 180 173 174 169 164 166 162 160 161 165 162 166 163 156 153 135 123  90  78  61  39  40  30  22  20  21  19  21  17  25  27  35  36  76 135 218 240   6
 130 186 160 254 160 186 194  38  18 166 162 167 174 176 179 182 192 196 184 184 185 183 178 155 148 157 172 187 199 204 201 202 201 192 187 178 173 146 167 163 178 184 183 181 182 186 184 178 172 170 170 184 182 177 178 172 172 166 165 162 162 163 165 166 167 166 163 158 151 136 114  80  77  63  40  42  36  26  15  21  33  36  57  22  27  30  42  99 186 216 224  20
 215 120 179 187 219 104 147 162   9 155 159 159 169 172 171 152 159 162 168 142 110 116  98 110 119 141 156 180 186 202 198 202 196 187 178 171 165 140 133 111 106 127 145 164 159 168 165 149 138 149 151 159 161 161 167 169 166 167 164 163 161 163 167 166 169 166 160 159 150 143 110  86  74  67  50  43  34  26  20  69  44  69  94  76  23  31  38  41 212 206 231   2
 177  98 189 181 214  94 217 214   0 178 151 160 168 170 137 133 149 130  93  96  91  88  73  89 104 131 136 163 185 190 192 194 192 188 173 158 157 144 152 112  93  77  73  88 106 108 102 116 125 110 123 115 120 128 135 138 149 165 171 166 164 164 165 170 170 167 166 157 151 143 111  90  74  67  46  45  34  37  26 140 195  40  58 159  15  29  44  47 235 207 229   3
  99 229 181 184 139 216 190 197 118 187 152 150 161 112 127 104 103  73  72  80  64  72  93  86 108 126 135 144 161 181 188 192 192 183 174 165 162 151 140 139 120  99  73  62  57  72  67  92  99  94 104 106  95 104 111  92 117 134 152 155 162 167 171 169 169 173 163 160 149 152 101  92  75  61  36  47  30  59  52 184  75 108  90 151   1  29  50  37 234 211 224   7
 254 143 194 188 146 243 116 128 121 168 154 154 127 101  98  92  91 114 124 137 142 134 136 135 131 117 109 120 141 172 184 185 184 179 175 168 158 154 142 135 138 147 147 169 174 174 175 160 154 151 159 148 147 143 139 140 109 116 138 147 161 167 172 171 171 171 164 159 152 151  96 109  80  56  27  62  53 116 135 119 125 104 125 180   5  31  42 133 168 223 230   7
  66 201 162 174 218 109 150  84 112 161 156 140 122 114  92 105 125 138 153 153 160 157 140 130 128 136 145 127 107 158 179 181 187 179 178 167 162 150 145 153 162 149 122  93 108 106 113 120 114 146 157 168 167 156 158 161 155 146 148 148 151 168 169 173 172 168 165 161 157 153  92 112  69  67  43  59 123 150 127 109 145 109 139 171  19  33  41 146 150 216 235   6
  48 112 254 136 154 152 160 143 123 158 160 147 127 111 129 137 150 174 176 140 104 117 128 128 115  93 116 135 146 128 171 183 189 186 178 170 159 148 148 157 145 137 103 138 133  75  28  18  52  48  98 107  99 122 166 156 152 151 154 160 164 166 172 166 166 173 162 159 154 142 109 108  73  65  38  87 142 151 121 132 162 111 157 170  45  36  41  71 196 205 233  15
  70  68  81 223 175 138 202 188  77 155 163 156 146 138 131 154 161 102  81  49  30  52  52  73  88 130 121 116 137 135 176 191 202 201 183 174 162 151 153 156 136 127 128 107 107 169  26  62 185  68  59  84  67 118 107 134 151 154 158 162 166 170 173 174 173 168 164 159 151 143 128  96  73  64  43 120 130 130 149 170 167 132 153 161  43  35  42  37 174 222 177  24
  71  67  61  84 166 156 181 228 158 155 162 156 148 138 140 137  80  68  47 162 174 113 125  77  50  73  83 157 149 153 172 202 204 206 194 177 162 157 160 179 164 169 104 128 192 209  61  58  40  63  51 149  97  69 119 130 141 151 158 162 167 173 175 176 175 174 163 160 152 145 138  89  66  64  45 150 134 133 162 168 173 151 147 182  22  35  47  59 113 235 125  42
  68  73  90  61  37 232 196 219 142 154 166 162 153 147 141  72  64  60 121 178 171  62  28   4  60  98 142  85 188 178 179 207 214 207 196 179 167 159 155 182 188 103 148 148 155 172 155  80 105 128 162 134 116 125 149 150 151 153 162 165 170 177 176 177 175 169 161 159 157 143 133  90  74  59  34 131 112  93 131 163 170 171 122 211   1  34  27 138 152 216 131  46
  72  63  65  63  58  58 233 214 183 158 166 167 156 144 134 108  65 120 140 166 189  74 107 195 195 147 158 178 184 177 191 206 215 211 200 185 173 162 162 177 181 184 165 158 155 151 137 155 145 120 125 128 147 166 177 168 165 164 166 172 176 178 182 177 175 168 163 161 151 147 137  82  71  56  44 116 131 126 134 160 180 188  87 200  19  32  43  56 186 210 128  42
  79  72  54  81  80  77  61 209 211 151 168 168 165 151 150 119 119 111 123 135 147 142 145 146 142 146 156 175 183 181 203 212 209 209 198 180 172 169 165 163 174 173 166 161 166 173 184 163 177 160 158 158 165 179 176 175 174 178 177 182 183 176 182 178 176 170 161 160 147 142 130 105  65  63  43 114 148 164 135 168 180 194 122  63  28  30  35  66 148 163 205  40
  90  72  56  71  62  57  77  42 179 146 164 169 171 167 159 158 165 138 136 154 152 155 157 158 153 164 171 178 189 181 200 208 210 205 194 175 172 175 169 170 174 180 180 179 178 178 177 177 176 176 173 174 178 178 179 176 178 184 183 182 181 181 178 178 175 169 159 148 149 138 136 107  63  58  78 129 142 179 149 175 188 191 188   2  25  30  40  37 226 215 193  31
  72 107  87  83  62  53  54  49  33 108 163 170 178 180 173 169 169 167 152 149 150 153 157 155 171 181 187 190 186 182 202 209 207 195 187 176 176 178 175 174 175 179 187 187 185 190 187 189 187 188 183 186 181 180 180 181 183 184 188 184 180 182 177 176 173 161 162 153 139 142 133 106  80  23 137 156 148 161 145 169 180 158 217  13  26  30  34  58 214 212 205  33
  66  57  80 102  79  49  62  53  82  94 162 168 175 184 180 178 166 177 175 172 164 162 178 181 188 193 195 193 184 180 206 214 206 197 180 171 177 175 177 178 179 182 190 194 194 192 194 197 197 196 193 190 188 186 189 186 189 192 188 185 183 181 180 176 171 166 159 148 146 143 127 116  89  47 153 156 148 162 142 164 184 119 128  28  27  27  68  46 177 209 230  33
  77  73  71  97  72  55  54  46  46  60 161 161 174 179 185 182 174 175 178 176 183 183 186 189 191 194 195 192 181 182 207 208 205 197 181 175 172 173 174 178 177 182 189 195 198 196 199 196 198 197 192 193 189 189 190 191 191 189 187 187 183 181 180 175 171 166 159 151 149 143 131 115  95  56 160 122 161 144 131 165 180 105  35  21  24  29  82  45  77 204 204  39
 104  84  80  60  68  49  49  53  57  29 163 168 173 180 185 189 184 179 180 185 189 190 189 189 192 200 201 193 179 190 203 210 203 194 181 173 173 175 177 178 176 181 189 195 198 198 197 197 196 197 196 191 193 193 195 194 194 192 191 188 186 182 178 174 172 164 160 153 146 141 132 114  78  79 154 135 138 127 177 182 141 172   2  18  24  31  43  40 166 216 155  53
 100  73  70  96  73  74  87  72  54  22 175 165 176 182 185 192 192 191 189 188 189 191 189 193 198 205 198 192 186 192 209 211 206 195 188 182 169 171 174 174 181 180 190 193 195 198 198 197 197 195 196 195 197 197 197 197 195 195 195 191 185 182 176 175 169 161 158 151 148 144 138 111  86  70 110 113 133 171 176 131 139 207   1  21  21  34  41  64 218 206 210  34
  66  71  63  96  88  60  87  57  63  41 168 160 174 180 187 192 194 193 194 191 190 194 199 203 204 198 196 183 183 202 212 207 209 195 187 176 174 158 169 174 182 180 191 193 196 200 199 200 200 198 196 193 197 194 197 194 194 193 193 190 183 185 178 176 169 160 153 150 143 141 136 104  91  65 111 132 168 155 123 155 171 195   1  24  20  29  43  31 167 209 201  27
  43  44 112  94  78  68  76  75  77  73 158 154 175 181 189 188 190 192 193 194 196 198 200 201 201 200 196 187 193 201 209 211 208 200 190 177 170 162 168 154 165 191 189 196 198 199 200 198 200 197 196 193 196 196 195 195 195 191 191 188 184 183 177 173 165 163 153 148 147 141 135 112  91  73 152 168 169 130 138 177 175 175  16  21  17  30  60  84 238 203  78  90
  39  39  43  72  71  60  51  78  66  66 141 158 171 183 187 186 187 188 190 190 196 200 199 200 201 200 202 180 190 203 205 211 204 195 188 177 169 166 171 171 153 177 203 199 202 200 199 196 200 193 201 195 195 193 197 193 195 190 192 189 187 183 177 169 166 164 154 150 147 140 135 112  81  83 134 150 152 164 154 173 174  98  13  15  21  28  37  82 219 206 225  27
  40  38  41  41  45  67  57  56  85  59 124 159 166 181 185 188 188 187 185 193 198 201 202 200 203 203 196 175 190 205 209 206 210 195 182 177 173 174 182 171 168 137 185 199 202 204 202 198 196 197 194 197 195 193 191 193 191 193 192 185 184 183 179 170 170 153 151 147 147 142 128  97  76  58 142 147 157 176 167 162 164   0  21  19  25  35  12 175 203 212 162 167
  40  40  36  39  40  46  51  92  71  67 110 157 170 182 184 189 185 187 189 197 196 193 200 202 201 193 190 159 172 192 202 190 191 179 167 154 154 163 170 173 158 130 163 182 199 205 202 201 198 197 193 190 193 193 191 192 194 192 189 187 184 181 176 170 166 158 148 149 144 142 123  93  64  72 132 157 157 173 177 154 148  13  15  26  31  37  62  90 225 210 202  88
  40  37  40  40  40  45  40  53  61  63 102 157 167 182 184 191 190 189 191 193 195 195 200 200 197 189 178 136 135 163 176 170 159 143 127 125  86  95 127 148 152 136 155 151 178 198 199 199 197 197 197 191 193 192 191 191 192 191 188 188 183 182 177 169 164 155 151 147 142 142 126  89  56  74 146 153 156 171 175 159  41  20  18  25  33  43  53 102 223 213  74 152
  37  35  38  39  41  38  40  40  44  50  90 151 174 179 188 191 190 187 188 190 194 195 194 196 194 186 170 123  88  85 145 153 151 134 100 110 130 138 143 123 128 114 152 154 157 178 198 198 200 196 194 191 190 190 188 191 190 189 185 184 180 181 176 171 164 159 151 145 142 131 118  81  58  50 153 152 154 169 168 167   3  20  19  24  30  33  88 145 219 190 227  65
  37  38  37  38  39  40  39  42  41  42  78 147 169 180 188 190 189 190 191 187 193 193 192 194 192 184 178 177 116 160 100  89  98  95 115 138 153 154 139 111 103 135 162 177 134 179 183 198 197 196 193 191 189 191 193 190 189 190 184 184 181 179 174 168 160 147 144 142 136 133 108  84  63  38 122 158 156 161 156  36  22  13  19  25  33  51  48 225 207 213 151  70
  37  40  39  39  39  40  37  45  40  34  75 133 172 179 186 186 189 189 191 190 191 190 195 192 190 187 176 189 202 134 141 134 124 134 144 148 148 137 134 154 167 167 168 175 187 146 174 187 198 195 190 191 186 187 187 188 189 185 183 182 180 179 173 168 160 147 142 138 134 127 104  82  56  10 139 146 137 163  90  16  16  18  20  29  33  47  80 217 218 202 171 183
  39  40  37  38  40  41  40  43  41  40  56 121 163 176 182 187 190 186 187 186 189 191 187 186 188 180 192 197 194 173 117 138 147 156 154 148 127  73 109 138 164 164 168 179 181 166 165 179 190 194 190 190 190 186 185 186 185 184 181 179 176 174 171 164 157 146 142 133 131 122 104  72  57  27 139 146 140  84  14  17  20  19  22  37  20  68 103 219 215 207 177 152
  39  39  38  37  38  39  40  41  41  41  56  90 160 177 180 188 189 187 185 187 187 185 189 186 183 188 195 200 190 144  98 105 107 137 164  85 104  74  62  95  92 144 165 182 181 181 157 175 181 192 190 188 185 184 186 184 181 184 182 180 177 173 168 159 153 142 135 132 119 113 100  74  63  65 141 143  47  16  17  24  19  12   9  67 218  54 110 229 214 217 107 177
  39  40  39  36  38  38  39  41  40  39  57  47 167 176 179 186 186 184 183 185 186 186 185 183 187 193 200 198 150 123  94  77  93 129 176 105  77  69  57  53  79  83 128 164 172 179 164 168 185 190 191 189 189 185 186 181 183 182 178 177 173 171 167 161 148 144 132 126 113 104  81  63  55  82  97  13  22  22  28  35  35  74 179 195 208 182 188 213 208 223 125 232
  40  39  38  37  37  38  40  40  39  37  53  52 166 173 182 185 185 181 182 182 182 184 183 184 190 200 185 172 100  89  88  96  75 124 169 155  81  65  72  62  54  46 149 107 147 179 190 151 174 185 187 189 187 184 184 183 177 180 183 176 173 171 166 155 154 143 132 116 103 110  79  54  46 127 101  28  31  37  37  50  89  34 147 194 182 209 211 212 209 203 198 186
  36  40  36  39  36  38  38  40  40  41  52  51 170 171 180 183 184 180 178 180 181 181 182 190 195 164 167 111  95  83  78  82 137 173 172 190 141 111  56  74  66  63  57 112  86 138 168 167 162 181 185 189 184 186 184 178 175 174 176 173 170 168 158 147 149 139 132 115  96  95  76  50  38 127 107  26  30  34  92  89  52 181 157 205 210 209 215 212 210 218 123 211
  40  38  39  34  39  39  39  39  39  39  34  64 149 169 182 182 181 179 178 176 177 182 178 181 174 150 101 101  86  78  68 126 167 175 182 179 161 123 141  49  65  71  78  50  58  88 127 170 158 172 183 182 182 183 182 180 181 176 176 172 168 163 157 147 143 131 120 104 101  93  59  49  55 110 107  44  47  27 155  84 152 150 192 209 200 207 216 206 205 210 210 205
  38  37  37  38  36  35  39  38  41  39  42  62 139 162 178 180 179 177 175 176 176 177 179 176 161  88  92  92  88  75  76 107 126 122 124 127 115 118 116 124  84  58  74 106  69  62  79 118 182 168 178 187 183 180 181 177 175 175 174 169 165 161 155 140 136 126 113  96  98  77  54  34  87 115 109  55  83  89 106 159 144 172 204 206 209 210 228 232 186  84  29  34
  39  38  37  38  37  37  37  38  39  38  38  46 134 158 172 179 178 174 175 175 176 176 172 180 111  97  71  88  88  93 101 111 112 118 117 112 116 113 123 102 102  99 108 101 111 106  72  84 179 169 181 184 185 184 180 176 175 174 168 167 160 160 153 138 136 123 102  97  85  62  49  46 101 120 105  71 121 111 106 122 194 225 234 240 207 160  73  22  32  51  43  49
  39  38  40  39  37  35  40  39  40  36  38  53  58 159 166 177 176 174 172 174 177 176 181 156  99  78 108  73  64  81  77  79  90  94  78  93 107 105  92  98  87  77  81  83  62  72  74  72 140 165 188 185 182 184 181 176 175 168 167 170 158 156 151 131 118 114 111  80  60  55  44  35 124 114 103  78  91 107  92  83  68  57  27  12  30  41  52  43  50  54  53  54
  41  38  37  37  37  38  37  38  39  37  39  35  79 153 166 175 165 170 174 173 177 182 182 124  74 122  95 110  93 104 121 138 140 137 139 164 172 161 151 142 133 120 111 117 107 125 120  60  94 169 186 184 183 180 182 175 174 171 167 154 161 147 139 137 105 105  90  61  61  41  30  47 125 115 107  23  19  20  21  25  36  46  40  38  43  45  47  50  50  49  46  41
  38  40  34  37  40  36  34  41  41  40  31  33  61 126 153 158 167 166 175 167 179 183 189 163  98 121 178 156 141 146 150 159 173 180 167 179 171 158 150 135 145 129 139 148 158 164 170 114  72 174 190 187 184 182 176 172 173 171 171 149 154 140 134 122  88  97  88  60  48  34  27  82 120 123  76 146  21  24  22  29  37  37  35  39  36  36  37  36  36  32  33  33
  37  40  38  38  37  38  36  37  39  37  35  24  63  93 140 149 148 159 164 170 181 189 194 211  64 139 175 166 154 152 150 147 160 160 163 159 160 163 151 153 152 164 167 171 170 165 172 180 124 164 187 186 182 179 175 173 170 159 157 139 137 136 110 114  93  90  70  55  40  29  26 140 121 120  84 229   7  21  24  30  33  33  34  29  29  31  30  32  31  32  30  31
  39  39  38  38  37  38  39  38  41  38  35  33  41  47 131 141 150 156 161 170 175 185 187 188 175 131 178 176 173 164 174 159 162 156 157 156 157 166 163 162 168 167 175 175 174 177 180 178 162 171 188 189 180 177 166 169 162 144 132 151 135 145  87 103  70  90  54  45  40  29  22 137 111 120  78 242   0  23  27  32  32  30  29  29  28  31  30  32  31  32  30  29
  38  38  39  37  36  39  40  37  38  36  36  31  31  49 113 126 137 144 161 166 168 184 185 187 178 172 174 179 176 173 170 169 166 166 160 159 166 171 170 167 170 170 175 178 180 182 187 185 177 173 178 186 178 168 159 160 152 147 138 127 134 109  79 112  63  82  42  35  29  29  45 116 113 121  94 205 126  30  38  33  31  33  32  33  30  32  32  30  27  29  30  31
  38  38  35  38  39  39  37  38  39  39  37  33  31  39  69 124 117 125 138 160 171 180 183 178 173 180 183 179 178 173 167 170 162 150 139 144 139 161 164 168 167 171 177 180 181 186 185 186 184 175 179 180 171 156 155 148 143 141 135 124 107 100  89 100  59  54  37  27  27  16  77 113 122 120 114 196 192   1  30  32  31  30  31  31  28  31  30  29  33  32  30  31
  39  39  37  34  38  38  37  38  37  40  35  33  34  36  49  86 115 114 129 156 159 172 176 166 180 185 181 179 180 175 168 163 164 142 103 120 133 153 164 169 173 174 177 179 186 186 185 190 190 184 184 159 159 157 151 132 132 131 120 116 101  57  83  74  38  38  38  30  24  18  81 127 113 120 156 196 171  79  28  33  31  30  30  31  32  30  30  30  31  30  32  31
  38  39  35  37  39  40  40  40  38  38  40  37  31  30  43  51  96  91 107 136 148 160 167 167 175 185 181 181 180 175 175 156 157 136 115 110 123 159 168 169 174 176 179 182 182 184 187 188 188 184 178 150 157 146 119 128 130  93 128 124  62  54  59  60  31  36  30  24  26  35 118 122 123 111 213 191 174 185   9  29  30  32  30  32  32  30  31  30  30  30  31  31
  39  39  37  40  37  40  41  37  37  40  36  36  31  27  33  41  56  79  89 115 141 137 128 164 164 176 183 183 182 174 170 169 168 140  99 105 126 158 179 179 179 179 183 185 189 187 188 183 176 173 168 158 118 126  78 107 127 108 100 102  65  46  58  38  30  28  24  28  18  60 125 129 124 107 227 188 181 208   1  22  29  29  31  32  32  31  30  31  31  30  29  30
  39  39  37  39  37  37  38  38  38  38  36  37  31  33  32  38  38  63  74  83 137 131 118 153 153 167 180 183 180 179 182 185 183 152 114 112 138 174 186 188 189 192 188 187 186 185 177 172 152 145 137 158 121 109  88  89 105  97  66  57  56  38  41  31  32  25  25  23  35  79 110 131 125 180 213 191 189 187  54  31  27  29  27  30  29  29  30  29  29  29  31  31
  38  38  39  36  39  39  39  39  39  39  37  37  30  30  27  37  38  43  60  74  78  99 112 144 139 149 173 180 182 186 188 192 176 168 118 122 161 174 194 197 196 193 192 191 187 186 186 151 134 128 143 130 119  74  97  79 102 104  79  61  37  34  36  32  23  20  22  22  63  94 124 130 102 235 206 198 194 185 168  28  22  29  28  30  30  33  31  30  27  30  29  30
  38  38  38  40  38  38  37  38  39  39  39  36  31  24  27  36  26  34  48  44  67  95  78 103 125 143 143 181 182 190 191 191 178 184 114 171 147 178 190 194 191 193 198 193 190 184 172 160 133  88  97 100  91  88  84  97  54  54  63  37  35  29  22  27  26  21  23  19 114  85 126 126 193 221 204 204 199 187 207  10  24  28  29  31  33  30  29  29  33  27  29  30
  38  36  36  37  41  40  38  39  39  39  39  37  32  27  26  32  28  33  29  41  65  56  74  62 123 106 146 173 177 188 191 197 192 150 148 120 162 154 149 179 188 191 194 189 185 180 169 153 135 107  88  72 106  65  84  74  54  60  41  41  21  34  24  32  28  29  30  64 107 133 140 112 220 217 206 206 203 191 206   2  22  18  29  28  31  30  30  30  29  31  30  30
  36  37  38  36  37  39  38  39  39  38  39  36  34  32  28  25  28  27  22  34  41  40  57  53  61  62 111 140 184 188 184 188 192 150 148 125 135 164 149 158 180 169 187 187 178 174 163 131 116 104  61 108  72  68  85  57  59  34  32  37  23  27  26  19  30  17  65 107 127 132 120 223 236 210 211 208 204 194 199   1  26  15  19  31  27  30  28  28  30  29  30  31
  38  38  36  37  39  37  38  38  39  39  38  37  35  30  28  26  24  26  22  25  31  24  34  54  58  68  94 121 175 185 149 164 135 149 140 109 104 146 114 121 179 141 178 176 169 169 144  98  99 103  77  53  50  49  56  43  44  38  27  25  30  24  24  23  28  64  95 132 134 140 171 226 214 212 211 212 200 197 208   1  29  16  17  22  28  28  28  30  32  28  30  30
  37  37  39  38  39  39  39  38  40  40  40  38  38  32  31  31  30  33  17  23  28  21  47  33  38  40  84  85 140 150 130 138 124 130 102 124 115 141  94  92 166 131 146 132 164 165 149  93  80  68  62  45  41  38  32  65  22  35  26  26  28  21  22  13  34 105 127 138 141 121 224 224 218 218 215 210 208 201 216   2  25  20  15  19  24  27  29  27  28  31  30  31
  39  39  39  38  39  39  40  38  39  40  38  38  37  36  30  31  40  36  24  17  25  26  27  37  36  41  48  72 141 118 125 108 121 118  93 133  97 108  92 122 115 128 121 120 155 143 110  79  62  55  49  26  35  32  52  28  25  26  27  26  31  18  31  23 112 116 140 149  93 236 223 220 221 220 215 210 212 204 220   7  26  20  16  18  22  21  20  24  27  27  27  30
  37  39  39  38  39  38  39  40  40  38  41  40  39  42  41  44  42  35  49  16  22  24  30  29  37  26  39  59 104  98  94  99  89  84  57 102 105  95  76  84  97 105 122  79 103 126  85  38  41  50  38  24  39  31  31  18  24  26  21  26  27  22  26  43 117 131 145 108 224 230 225 223 221 220 216 212 214 207 211  32  24  17  19  19  25  22  23  24  23  25  25  30
  38  38  39  37  41  41  39  37  39  39  39  40  42  44  45  44  42  42  38  22  17  24  31  24  33  27  25  29  39  85  87  80  64  77  76  78  83  99  71  84  63  84  98  59  80 107  73  36  33  50  42  28  39  27  24  26  23  28  32  23  19  31  31 112 131 134 111 216 237 226 223 223 221 220 217 214 213 207 165  38  22  20  17  18  20  24  24  26  25  23  25  23
  38  40  39  37  39  40  40  39  39  38  39  36  42  44  42  43  41  38  38  42  20  34  25  26  25  25  21  23  14  55  57  60  72  67  63  60  87  94  60  82  51  74  78  68  65  36  54  26  29  34  39  34  27  34  25  24  31  26  23  30  31  33  61 148 149 115 214 239 228 226 222 222 221 220 217 216 217 212  80  35  26  21  18  18  18  24  27  24  25  23  23  25
  35  42  37  39  37  38  37  35  36  36  32  43  45  44  44  41  41  39  39  44  79 103  19  19  21  23  17  29  27  34  43  45  52  52  50  56  79  67  69  49  56  66  51  51  33  44  36  29  40  33  27  30  26  25  26  33  26  30  28  25  36  68 117 144 116 214 237 228 230 226 225 222 221 220 219 215 217 225  18  34  24  21  16  20  22  23  28  25  26  23  24  26
  39  35  37  38  36  34  37  34  36  35  37  44  44  47  43  39  42  40  41  46  56 231  16  22  24  16  24  28  31  27  39  28  38  37  44  44  59  46  41  45  53  26  33  31  47  34  27  32  24  26  26  22  22  25  27  32  25  45  30  50  83 126 132 115 217 232 226 229 230 228 225 222 222 221 217 218 216 248   9  32  26  21  19  18  19  25  28  26  27  25  25  24
  40  33  36  38  35  34  37  33  35  38  43  43  45  44  42  45  41  38  42  48  31 244 210  60  13  16  33  33  33  23  31  31  28  33  20  34  33  31  34  35  34  32  23  30  35  22  27  38  26  24  22  30  24  27  24  31  42  28  51 126 124 132 145 243 232 230 231 235 230 229 226 223 221 220 220 219 215 190  26  30  25  18  18  17  17  25  26  28  27  26  26  23
  37  35  37  37  38  37  37  38  37  41  45  48  44  45  48  41  41  40  46  47  41 229 217 187 154  22  30  20  24  24  39  27  27  27  24  24  27  27  23  26  23  23  21  27  26  29  26  25  32  33  21  30  29  28  27  32  36  48  88 137 113 192 236 232 232 233 233 232 230 228 224 224 222 220 220 219 218  78  42  28  24  19  19  20  21  24  27  29  29  29  26  23
  39  39  40  38  37  40  37  38  37  43  49  46  47  49  43  42  40  40  42  44  64 199 222 228 190 158  25  20  25  25  20  27  27  23  28  21  20  26  27  19  28  23  22  25  25  28  28  42  24  26  26  32  30  32  35  24  52  81 123 111 235 230 235 234 234 234 233 231 228 228 224 224 223 223 220 217 238  12  34  27  24  20  21  20  22  24  29  30  30  30  28  25
  38  38  39  39  39  37  39  39  45  47  46  50  47  46  43  44  41  42  43  39  89 182 216 226 232 201  94   6  27  25  25  24  32  21  23  24  18  19  23  26  18  17  21  22  26  23  28  31  24  31  29  24  29  29  44  67  94 118 134 251 235 237 234 236 234 234 233 230 227 226 224 225 224 223 219 215 217  14  31  31  22  21  21  20  20  25  26  29  30  30  27  24
  36  37  39  39  36  38  39  40  50  50  47  47  46  46  44  40  40  45  43  43 111 181 215 226 232 205 216 213  96  43  21  26  26  22  20  22  17  18  21  17  22  18  19  22  19  28  28  34  26  36  31  44  52  42  80 116  95 176 239 233 236 237 237 237 233 233 230 228 229 226 225 225 223 222 223 203 124  46  31  28  25  21  22  22  22  25  25  32  31  31  28  28
  35  38  36  37  39  38  40  43  45  44  49  49  46  46  43  40  41  44  46  43 121 187 209 219 224 231 225 250 228  65  36  20  19  17  24  18  19  21  18  21  18  19  21  24  30  28  36  33  33  36  40  41  45 107 127  97 223 235 238 238 240 239 237 235 232 230 229 230 230 228 227 224 222 221 216 211  16  38  30  27  25  22  21  22  21  25  26  31  31  32  30  28
  37  38  36  38  43  38  39  47  45  55  49  51  46  46  43  42  44  46  43  41 176 197 210 223 224 229 229 240 244 222 142  63  63  40  30  31  22  23  20  17  32  22  30  26  30  36  30  34  29  41  50  83 123 114  97 241 236 235 240 241 240 238 237 235 231 231 230 231 229 230 230 224 220 220 207 250  17  36  37  28  25  24  20  20  24  27  26  31  31  33  30  30
