P2
# Generated by OpenCV 4.2.0
92 112
255
 170 170 170 170 169 169 169 169 169 169 169 169 170 169 169 169 169 170 170 171 173 176 179 180 185 191 167 109  59  28  24  14  14  27  22  36  26  18  33  18  20  15  29  36  36  54  46  85  45  36  22  27  31  38  68 115  89  47 121 157 163 162 168 172 175 175 175 175 174 174 175 174 175 174 174 174 175 174 174 174 176 173 174 174 174 174 174 174 174 174 174 175
 173 171 171 171 170 170 170 170 171 170 170 170 170 170 170 171 171 171 173 172 167 169 167 160 155 137  97  76  43  45  30  19  29  19  15  16  18  14  17  14  14  12  16  24  18  26  27  43  30  28  27  25  36  36  42  61  75  42  75 152 157 171 176 171 176 176 176 175 175 176 176 177 175 176 175 175 175 176 175 175 176 175 176 176 175 176 175 175 175 175 175 176
 175 174 173 173 173 172 172 172 173 172 172 172 172 173 173 174 173 174 172 163 152 123  86  60  32  25  34  33  32  42  29  29  17  15  15   8  23   8   6  11  10  13   7  13   7  10  17  21  18  20  23  25  28  40  43  42  40  30  40 127 151 180 183 177 177 177 176 177 177 178 177 177 177 177 177 176 175 177 178 178 176 177 178 177 175 177 177 176 176 176 177 176
 176 177 176 175 176 175 174 173 175 175 174 174 173 174 174 174 175 180 154  97  45  19  10  12   8  13  14  23  34  62  80  71  34  10  21  16  24  28   3   8  17  14   8  14  17   6  17  19  14  13  19  26  43  46  47  43  39  24  21  46  78 122 162 183 183 182 179 180 179 178 178 179 180 179 178 178 179 179 179 178 178 179 178 178 178 177 178 178 177 176 177 177
 178 178 178 177 177 177 177 177 177 176 175 176 175 176 177 177 183 158  61  10   6  10  12   8   0   8  14  17  24  59  66  52  42  16  17  31   7  42  14  15  15  11   5  11  16   7  13  14  16  11  14  23  53  47  55  37  41  35  18  32  32  34  53 108 142 163 187 183 180 179 180 180 180 180 180 180 180 180 180 179 179 179 179 179 178 178 178 177 178 177 177 177
 180 180 180 180 179 178 178 178 178 177 177 177 177 177 178 181 137  74  29  26  13   6   4  22  26  14  12  10  13  13  15  16  12  11  10  34  16  18  55  28  20   7  16  11  16   8  16  18  16  11  12  22  30  38  45  51  34  35  35  26  43  51  27  20  59  91 141 184 186 180 181 181 180 179 179 180 179 179 179 179 179 178 178 177 178 178 176 177 178 176 176 176
 182 182 181 181 181 179 179 179 179 179 179 179 180 179 184 141  73  37  42  21   1   3   5  12  20  19  19  21  15   6   1   7   9   6   6  28  32   0  43  62  31  12  24  19  19  20  16  29  21  18  15  14  23  31  50  36  29  32  33  33  35  48  46  38  21  41  82 124 165 180 177 179 179 178 178 179 178 177 177 177 176 176 177 176 176 175 174 174 174 173 173 173
 183 182 182 182 181 181 180 180 180 179 179 179 179 180 180 105  71  61  30   0   7   9  10   8  10  12  14  15  10   6   4   4   6   7   7  30  48  20  12  60  53  17  25  37  19  34  17  26  38  38  29  27  29  32  33  31  22  26  25  20  36  57  49  49  56  28  20  70 111 170 178 174 176 175 175 175 174 175 176 175 175 173 173 172 172 170 171 170 170 170 169 169
 181 182 182 181 180 179 179 178 179 178 177 177 176 178 178 105  50  35   4  17  18  22  29  21  25  11   8   6   7  12  13   8   6   9  11  26  38  33  20  34  65  34   1  25  34  33  32  11  47  47  43  52  32  41  28  23  30  20  29  20  20  58  68  54  50  43  45  36  67 103 169 173 174 172 172 173 172 172 172 171 171 168 169 169 169 168 167 167 167 168 167 167
 179 180 179 178 178 177 176 176 175 175 175 175 174 173 168 115  39   3  11  24  13  23  46  29  17  13   8  11  19  22  14   8   8   9  17  22  28  33  19  23  41  61  14   0  22  23  51  12  26  56  39  43  39  42  50  22  34  39  35  29   3  39  69  66  43  32  38  63  33  47 132 163 171 169 170 169 169 168 168 167 167 167 166 166 165 165 165 164 164 164 163 163
 176 176 175 175 175 174 174 173 172 172 173 171 170 172 157  91  21  16  25  23   7   6  22  28  19   8   8  12  20  20   3  12  23  21  16  28  32  26  20  10  19  55  47   6   2  32  42  46   5  42  36  26  45  25  41  38  14  45  47  45  11   7  45  57  62  52  30  50  40  43  84 133 148 165 169 168 166 165 164 164 163 163 162 162 161 161 161 161 160 160 159 160
 172 172 172 172 171 171 171 170 169 168 167 167 169 163  99  36  28  33  27  11   3   1   1  11  22  17  13  11  15  24  15   0  20  20  12  40  50  35  23  11   1  24  49  26   0  15  39  45  26  16  46  32  33  40  20  43  30  29  27  43  41   3  23  64  58  67  42  26  18  42  74  83  95 135 154 145 150 165 164 160 159 159 158 158 158 158 157 157 156 156 156 156
 168 168 168 168 169 168 167 166 165 164 164 164 162 108  94  40  41  32  14   4   1   0   0   0   8  16  14  15  23  33  34  12  10  10   7  39  74  49  28  32   8   0  27  42  16   3  33  45  41  15  27  35  25  32  24  26  36  21  19  23  38  25   6  26  49  35  38  29  24  18  63  70  91 105 112 114 117 111 147 160 157 157 156 156 156 156 156 155 154 154 154 153
 164 164 164 165 165 164 163 162 161 160 159 162 113 131  97  23  27  16  11   4   0   0   0   0   1  12  20  16  21  32  24  21  15   8   2  13  50  50  23  37  37   9   9  29  46  23  20  40  31  26  19  24  34  25  33  25  32  28  21  22  22  23  20   7  31  39  25  24  33  16  26  61  70  78 119 140 142 133 104 142 156 154 154 154 154 152 152 152 151 152 152 151
 160 160 161 161 160 159 159 158 157 156 159 130 108 144  51  17  19  12   7   3   1   0   2   5   6   5  18  24  23  26  32  33  24  12   7   6  16  38  26  21  41  30  19  22  44  41  25  27  27  23  22  20  24  32  27  37  33  41  39  38  43  33  26  24  17  28  23  22  26  23  23  27  57  89 133 141 135 156 131 102 154 151 151 153 152 151 151 151 150 150 150 150
 156 157 157 157 157 156 156 155 154 153 155 115 127  81  24  28  17   9   4   5   5   4   5   7   9   7  12  24  31  31  35  33  36  39  34  21  17  21  32  29  31  38  27  28  47  46  32  36  29  30  32  36  35  40  46  50  53  59  75  63  75  76  52  46  37  28  27  20  25  23  19  16  26  90 146 151 139 153 154 106 137 156 151 153 153 152 153 152 153 152 152 151
 153 154 153 154 154 154 154 154 153 151 147 121 104  92  50  34  26  12   9   5   4   3   4   6   8  11  14  21  32  35  35  49  53  56  49  43  34  30  39  45  39  50  50  40  49  62  45  35  36  42  45  56  62  63  68  73  90  97 109 109  95 102 101  90  73  51  39  34  24  23  18  15  18  85 143 129 112 126 142 136 120 159 155 152 154 155 155 155 154 154 154 154
 153 153 153 153 154 154 154 153 152 151 147 141 130 142  85  68  21   9   7   2   3   2   3   6  17  25  29  29  27  25  26  32  44  58  62  61  55  52  59  62  66  74  89  90  86  89  96  74  63  70  73  82  83  95 109 119 132 135 139 150 135 136 155 154 124 104  79  59  44  36  30  28  36  54  87 106  72  50  68 103 117 161 158 155 156 158 157 157 157 157 157 156
 153 152 155 155 156 156 155 154 154 152 151 153 149 154 108  63  13   6   3   4   7   4   4  31  55  69  72  66  51  44  44  47  57  66  76  86 102 104 112 121 137 144 146 156 154 145 158 147 125 129 129 132 134 148 164 173 166 173 176 178 179 177 191 195 184 170 146 109  85  63  51  69  73  61  77  83  62  42  29  20  52 150 166 158 159 159 159 159 159 159 159 158
 155 155 155 156 157 157 157 156 156 154 154 153 154 152 100  30   5   1   2   2   2   6  39  71  89  92 101 108 105  93  93 101 110 121 132 140 153 167 171 174 182 195 201 209 210 204 197 189 173 174 185 190 186 191 203 200 197 205 198 199 202 202 205 204 196 191 189 172 137  98  68  66  84  88  80  76  62  53  40  17   7  70 153 166 161 162 162 162 161 161 161 161
 156 157 157 158 159 160 159 159 159 155 156 155 160 126  44   8   2   0   3   2  13  65 104 120 127 128 125 124 127 141 141 142 151 156 161 166 175 184 193 203 209 211 215 221 224 226 219 215 213 215 216 218 217 215 213 214 214 214 210 208 211 210 207 209 208 201 199 189 159 150 101  71  72  79  75  61  65  65  53  37  15  17  90 160 168 163 164 164 164 164 163 162
 157 158 160 160 161 161 161 161 159 157 159 161 155  71  15   3   0   3   3  15  81 118 122 123 122 129 138 140 143 165 168 166 175 176 178 187 196 203 214 216 219 219 221 222 224 224 222 221 221 224 221 219 218 217 216 217 219 216 213 211 211 211 208 207 210 208 203 198 180 179 150  93  75  85  80  67  53  50  49  35  25  21  29  98 170 168 166 166 165 165 165 165
 159 160 161 161 162 161 162 162 160 159 160 166 122  41  10   2   5   8  13  80 118 117 112 113 125 132 146 148 160 172 177 185 196 195 194 198 199 204 210 212 216 217 219 219 220 218 217 215 215 215 214 215 214 217 215 215 216 215 212 212 210 208 206 205 208 209 202 198 190 187 178 135  76  78  84  83  68  69  51  48  27  31  24  25 107 175 168 166 167 167 167 167
 160 162 161 162 164 164 163 164 162 161 163 162  79  22   7   8   7   7  72 115 105 106 117 128 142 150 160 168 175 183 191 200 202 195 193 196 200 203 205 212 214 210 214 217 215 215 215 213 211 211 209 210 213 211 209 209 208 208 210 212 210 206 204 206 204 204 202 199 194 198 187 174 117  54  56  86  90  82  62  45  44  23  32  31  27 140 174 168 168 168 168 168
 162 163 163 164 165 165 165 165 164 165 169 137  53   9   0   4   6  45 110 106 105 118 138 149 159 162 168 175 177 185 191 194 194 189 194 197 202 204 209 212 212 210 211 211 211 212 212 210 210 208 209 209 210 210 207 206 207 206 206 206 206 210 210 205 204 204 206 199 195 201 194 183 151  99  52  54  95  93  70  41  39  49  19  34  20  59 170 171 169 170 169 170
 164 165 165 166 165 166 167 167 166 167 167 125  37   0   2  12  27  89 103 108 118 132 144 158 162 164 172 177 182 185 186 186 189 194 196 200 204 207 209 207 208 211 209 207 210 209 208 209 208 209 208 209 208 211 205 203 205 207 204 206 206 207 210 207 209 208 205 198 197 195 197 193 168 120  85  49  50  72  79  57  26  42  36  22  47  26 112 181 169 171 171 172
 165 166 167 167 167 169 168 168 168 169 163 119  11   2   8  20  64 105 109 117 116 121 135 149 157 163 163 172 184 188 189 188 192 196 199 202 204 206 206 206 212 212 210 207 206 208 208 209 209 210 208 207 208 209 209 207 208 210 208 209 209 206 210 212 208 208 203 199 195 194 197 196 186 142  95  72  35  37  60  68  41  21  32  27  38  42  44 159 176 172 173 171
 167 167 167 168 168 169 168 169 169 169 162  65   1  11  13  38  95 105 114 113 118 121 133 143 153 161 165 169 182 188 189 191 195 196 199 202 203 208 208 208 209 212 209 208 207 209 209 207 206 205 206 207 208 210 209 210 212 211 210 210 208 208 209 209 208 208 202 199 197 196 196 201 198 163 103  79  59  41  41  52  44  28  28  41  24  48  37  93 180 174 174 174
 168 167 168 169 170 169 169 170 171 172 125  12   8  13  15  68 116 114 112 114 118 116 126 142 155 159 166 172 180 182 186 191 195 196 197 199 204 209 206 212 211 210 208 208 209 208 205 208 208 207 206 208 212 211 211 213 215 216 214 211 210 209 214 210 209 206 199 200 198 196 197 198 199 187 132  78  59  52  30  40  43  36  27  31  33  28  56  53 156 182 177 176
 168 169 169 169 169 170 170 171 175 163  50   1  12  11  37 106 122 121 110 108 108 116 134 145 152 161 170 175 173 179 181 191 194 196 198 200 205 208 208 211 210 209 209 208 208 209 206 206 208 210 213 211 212 214 217 217 213 217 214 212 213 213 213 208 208 204 199 199 199 198 198 198 202 198 162  95  64  57  54  16  36  38  34  26  32  30  40  56  99 184 182 180
 168 169 170 170 170 172 172 172 181 105   5  10  12  14  82 119 118 117 114 105 106 118 134 141 152 163 169 170 175 179 187 190 191 191 196 197 204 207 210 208 208 208 205 206 208 209 208 211 212 213 214 213 215 216 220 222 219 219 219 213 211 212 208 206 205 206 202 199 197 199 200 200 203 203 179 118  71  72  75  21  24  39  29  34  25  40  22  46  56 143 193 187
 170 170 171 171 171 172 172 177 160  44   7  10   7  46 115 112 114 116 107 101 107 118 125 135 150 160 169 172 176 179 184 187 186 186 190 198 201 205 210 209 208 205 203 204 206 206 208 214 214 215 214 217 220 220 224 225 222 219 217 216 213 211 206 205 204 202 198 201 199 197 199 202 202 201 185 135  81  80  86  45  15  43  27  25  28  28  27  29  60  75 180 196
 170 171 172 172 172 173 173 178 114  18   9   8  14  95 120 103 104 107 103 104 105 114 123 131 145 156 165 170 173 178 182 187 186 189 189 194 193 200 207 206 207 204 202 204 208 209 213 210 211 211 213 216 222 224 225 221 221 221 219 215 216 215 210 207 200 198 201 199 201 199 198 201 202 204 193 141  95  89  93  84  22  41  47  17  29  29  31  23  50  59 120 206
 171 172 172 172 173 175 177 169  76   9   7   4  56 122 110 101 100 102 104 105 108 114 123 131 144 153 162 166 173 176 177 181 186 192 192 190 195 197 201 203 201 197 202 203 206 208 206 203 207 210 211 214 218 222 224 224 224 221 217 218 214 210 207 206 201 199 200 200 202 198 197 200 204 205 201 157  97  84  93 102  49  33  66  25  20  34  30  24  36  61  69 172
 171 171 172 173 173 174 179 141  45   5   7  14  97 117 106 103 105 103 105 104 107 115 125 133 140 151 157 162 171 173 173 180 184 188 186 186 199 197 193 200 199 197 201 203 203 201 204 205 207 209 209 212 216 222 227 225 222 219 217 218 217 211 209 207 206 205 203 195 197 199 200 201 202 203 196 169 111  69  89 107  89  21  76  44  19  23  40  24  28  50  60 109
 172 172 173 173 173 175 171 106  21   5   2  45 116 109 109 105 102 103 105 102 109 118 126 134 140 151 158 165 172 175 176 181 187 191 186 186 194 193 198 200 203 200 200 201 205 207 203 205 207 208 210 213 216 219 221 221 219 221 221 221 222 215 210 213 206 205 203 198 198 199 199 199 199 202 196 168 122  62  83 113 116  35  58  61  26  16  31  36  18  38  63  76
 172 173 173 174 174 177 166  91   9   4   5  80 116 109 106 102 101 106 104 105 112 121 130 139 146 156 163 167 173 178 178 183 185 191 195 197 194 194 197 201 201 199 202 203 201 202 203 205 206 208 210 213 215 215 218 219 220 219 216 220 217 215 215 211 209 210 205 201 201 198 197 198 196 195 193 172 134  84  65  92 106  59  38  67  32  19  19  33  19  28  57  73
 172 173 174 174 174 179 159  68   4   1  22 106 111 107 102 103 100 105 104 106 115 123 130 142 152 159 164 173 179 180 184 189 185 188 193 200 197 195 199 200 199 203 200 201 200 198 201 207 211 215 215 217 219 220 217 218 220 221 220 220 216 215 214 213 210 206 205 203 198 197 198 196 192 189 187 178 136  98  60  64  90  88  32  60  35  25  19  23  20  17  39  73
 173 173 174 174 175 180 150  43   2   0  49 110 107 104 104 104 104 104 103 113 119 125 133 146 153 162 168 173 179 180 184 193 191 186 186 202 198 200 203 199 198 202 200 201 203 200 203 207 217 219 216 221 221 223 219 216 218 220 220 220 215 215 215 208 204 203 204 197 194 194 193 194 189 188 184 181 137 104  68  52  66  97  41  57  50  31  21  17  24  18  22  51
 173 173 174 175 175 180 142  31   2   1  66 108 104 104 105 108 105 101 104 115 121 126 134 148 151 156 163 169 172 179 186 193 193 189 198 199 193 195 196 194 199 198 199 206 208 206 207 213 222 225 224 222 220 223 224 216 219 220 221 217 215 213 213 208 199 201 199 192 189 192 189 190 186 183 180 177 133 109  75  53  50  76  50  55  42  35  20  10  20  17  16  40
 174 173 174 175 175 181 142  27   1   9  82 107 103 105 106 108 106 104 110 115 120 126 132 143 146 153 158 164 169 179 185 188 194 193 198 196 189 191 193 199 199 198 205 210 213 213 214 220 226 227 223 222 224 223 223 222 220 221 222 221 215 208 207 200 200 197 195 190 187 189 188 186 186 184 179 176 137 108  85  55  48  64  51  41  42  43  33   7  10  17  14  32
 174 175 175 176 176 184 140  23   0  20  94 107 105 107 107 106 106 112 113 117 121 125 134 136 141 147 155 162 165 176 179 183 184 185 191 193 197 191 196 199 200 202 210 215 213 211 213 217 216 218 215 219 222 222 224 222 221 219 218 216 216 211 205 194 195 196 192 188 185 188 187 186 189 190 183 183 141 109  90  55  41  39  41  28  37  29  42  14   6  13  13  22
 174 175 175 176 175 184 141  16   0  29 103 103 106 108 105 105 109 114 113 115 120 128 131 131 132 137 145 154 155 162 169 173 177 183 185 190 195 196 195 198 200 203 209 212 207 203 202 202 206 206 208 213 217 219 221 221 220 215 219 219 212 210 202 194 194 194 189 189 185 189 188 186 191 192 185 187 153 109  90  47  29  24  34  28  34  23  30  20   5   8  11  13
 174 175 175 176 175 184 134   9   0  42 108 102 103 105 103 104 105 107 107 104 107 109 112 118 120 132 141 147 151 153 157 167 166 174 182 182 186 194 196 197 201 203 202 202 193 192 199 203 202 198 197 206 210 212 217 219 212 214 221 213 211 202 191 193 193 192 188 187 186 191 191 190 188 189 186 188 164 107  91  48  27  17  26  38  33  25  20  20   9   6  11  13
 174 175 175 175 177 185 120   5   0  52 109 101 103 101 101 103 100  88  72  79  85  84  81  83  84 100 113 131 143 139 140 154 155 170 178 176 181 194 196 194 192 192 189 183 171 167 158 153 154 137 153 173 174 171 184 180 183 184 184 197 203 205 198 193 190 190 187 184 187 187 187 186 189 188 186 187 174 106  92  49  28  15  16  34  32  22  15  21  12   7  10  13
 174 175 177 176 177 184 102   0   0  62 109 102 100  96  99  96  81  62  58  67  53  45  43  46  56  54  62  84  93  99 115 134 144 160 170 168 176 184 193 192 184 178 165 159 147 116  91  70  56  57  77  73  84 102 117 106 114 125 139 138 160 181 193 193 189 189 186 183 187 183 179 183 181 185 185 185 176 105  92  53  23  13  11  29  30  13  11  17  13   8   9  13
 175 175 176 176 177 185  89   0   0  67 105  98  95  91  90  72  57  49  56  51  32  22  23  26  35  32  36  44  53  67  82 108 130 143 155 162 170 174 187 189 176 163 141 142 127 101  73  47  43  48  43  38  53  54  65  74  95 109 115 122 123 132 155 171 183 187 185 185 189 186 182 185 182 184 183 185 180 105  89  61  19  15   8  17  20  11   8  12  11   7   7  15
 175 175 177 177 178 181  78   0   1  71 106  97  94  89  71  60  43  33  32  37  39  37  26  25  26  24  30  33  41  57  70  94 112 129 144 152 161 175 183 180 170 151 137 128 118 106  72  62  54  50  50  55  53  65  92  99 115 124 121 121 119 121 125 132 157 173 183 181 184 185 181 184 186 188 182 180 180 111  85  63  19  19   7  10  13  11  10   9   9   9   7  19
 175 176 177 177 180 180  80   0   2  76 104  94  90  76  58  49  41  45  49  64  77  85  77  65  54  48  42  35  36  47  61  78  93 110 120 136 155 167 171 176 172 154 131 117 108  95  79  74  68  69  78  87  99 109 120 126 133 128 133 135 131 120 119 121 134 164 181 181 182 185 184 185 189 188 181 178 180 120  81  63  19  18   8  10  10   9   8   6   8  10   7  19
 175 175 176 175 178 181  91   1   6  87 102  91  87  72  54  51  52  64  75  82  86  89  98 103 101 100  88  71  53  38  39  53  71  86 101 124 147 164 171 175 174 159 138 116  93  77  78  87  96 105 117 132 141 146 151 153 148 144 143 143 143 147 141 134 137 151 172 186 184 185 187 189 191 186 182 178 177 117  82  68  17  15   9   8   8   7   7   5   8  14   8  23
 176 176 175 177 177 182 102   1   8  92  99  91  78  60  54  55  63  74  77  82  91  96  97  92  91  97 100  99  90  72  42  31  46  74 103 124 150 176 189 188 182 169 153 116  83  87 102 109 114 121 129 131 127 130 134 135 143 155 157 154 148 145 145 147 137 135 150 166 174 187 189 189 190 189 185 179 172 114  85  75  19  10   7   5   7   7   7   5   4   8  15  36
 175 176 177 177 176 185 110   3  12  96  97  91  76  63  59  60  64  71  76  70  68  70  74  71  62  59  56  61  74  88  78  37  29  62  98 129 160 189 205 205 198 181 160 116  93 106 108 105  95  87  94 111 124 137 130 108  84  85 116 144 151 151 149 141 137 129 140 160 176 188 196 189 189 189 185 178 173 120  82  84  29  11   7   3   5   5   5   5   4   3  22  33
 175 175 176 177 178 185 118   5  16 103 100  89  79  64  61  62  65  71  51  32  37  36  42  58  63  74  75  68  48  52  75  73  34  43  92 134 169 195 215 216 206 194 171 125 107 102  91  73  73  86  91 103 101 115 132 154 153 119  84  77 121 148 144 140 141 147 150 168 181 186 196 189 189 189 183 179 174 127  93  92  45  11   8   1   4   6   5   4   4   5  15  14
 176 176 176 176 178 184 128  10  24 104 100  89  79  67  60  61  65  50  24  29  24  16   7   5  28  53  44  52  61  59  57  81  67  38  90 140 173 191 208 211 210 203 182 158 120  92  66  63  64  37  18  15  50  69  49  45  83 118 139 109  79 112 140 147 149 155 162 172 180 182 190 190 192 184 176 174 177 135  95 104  53  12   8   3   3   4   6   5   5   8  11  77
 176 176 176 176 177 184 135  13  35 108  97  90  82  73  65  63  59  34  27  18  12   3   0   0  26 115 119  68  35  51  73  97  93  58  93 145 170 191 208 208 205 202 196 190 162 127  96  52  19   8   0   3  41 144 146  91  44  29  45 100 132 123 135 148 160 166 172 182 188 186 188 189 188 183 179 177 179 141  91  99  59  16  10   5   5   2   5   6   9  11  28 181
 175 176 176 177 177 183 144  24  48 107  92  90  91  83  74  68  60  51  20   3  15  28   1   0   8 103 151 134  80  40  45 114 128  81 108 157 173 194 205 206 204 203 201 209 211 197 105  29  25  21   3   0  27 143 159 151 133  90  60  48  75 109 129 147 163 174 182 187 192 193 190 187 186 183 179 177 178 144 104  95  73  29  10   5   3   4   5  13  14   6  43 207
 175 177 176 177 178 179 164  48  54 106  92  92  97  91  81  74  58  45  20  30  60  68  55  60  81 112 118 116 109 110 122 136 117  84 120 169 188 199 203 199 193 198 200 213 217 197 156 115  95  88  77  73 119 171 161 149 141 143 141 122 142 145 139 152 168 183 186 193 198 196 189 186 182 179 177 178 175 148 108  89  72  45  13   7   2  44  84  54  77   4  50 216
 176 176 176 177 176 177 181  81  55 108  90  92 100 101  92  80  65  54  52  77  87  88  94 109 122 120 120 105 109 116 128 127 103  83 126 178 187 187 195 195 192 195 198 205 207 190 160 137 127 129 135 153 172 176 175 177 177 186 188 180 191 199 191 182 182 188 195 201 199 191 183 184 181 176 174 175 172 151 102  82  64  55  27   7   8  51 115 102 133  58  63 225
 177 177 177 178 177 177 183 105  61 104  89  93 103 111 104  97  96  89  83  76  79  84  90  97 101 107 114 108 116 134 134 118  92  89 141 186 186 188 190 188 192 199 201 198 203 211 187 152 127 116 117 133 146 157 170 186 191 190 190 192 199 207 208 207 201 197 200 205 199 187 182 180 175 171 173 169 170 153 110  75  63  57  39  32  57  76  54  41  83  78  91 236
 177 177 177 178 178 177 180 118  74 104  90  94 107 114 114 113 121 117 105  80  66  65  68  80 101 127 144 152 149 150 133 106  89 107 149 183 183 185 188 186 192 200 200 200 201 208 214 208 194 178 162 159 161 148 152 160 170 184 193 199 199 197 193 195 198 200 200 201 196 184 180 176 167 168 173 172 167 154 103  73  51  48  55  78 119  75  28  36  60  49 111 240
 176 176 176 178 177 178 178 145  92 100  88  94 105 105 109 126 137 146 138 130 127 119 128 144 149 158 164 158 143 140 126 104 100 121 155 184 184 184 193 190 189 195 201 201 201 203 206 208 210 208 203 199 201 200 198 197 194 190 187 188 189 192 192 194 197 203 200 193 193 182 176 174 163 168 173 168 166 154 102  77  49  59 104  82  87  48  27  34  63  37 123 242
 178 177 177 178 178 177 178 164 105  92  86  95  99  97 111 129 142 164 166 166 168 172 173 174 170 175 180 164 136 124 114 104 110 136 160 186 196 194 194 190 192 189 197 204 204 198 198 201 205 202 203 201 201 195 197 194 191 189 184 186 192 195 197 201 203 205 195 189 182 182 173 169 165 167 167 160 165 152 102  64  50  71 102  80 124 133  55  31  94  62 139 242
 178 177 178 178 179 179 178 157  93  90  87  97  98 101 109 119 134 149 154 160 169 171 168 171 179 185 186 151 124 113 103  99 122 141 164 183 194 198 196 190 189 183 189 199 209 210 205 206 204 200 200 198 194 197 197 196 195 193 197 204 201 205 214 214 209 205 197 191 185 183 176 167 167 165 162 161 165 154  98  72  55  75  98 116 172 166  98  46 136  93 158 242
 177 177 179 178 178 179 177 144  91  91  90  98  98 100 103 114 121 134 146 154 170 173 167 168 177 178 176 141 114 106  92 100 126 147 165 181 189 207 208 194 187 180 181 179 186 193 202 206 201 195 191 192 191 193 197 198 197 198 205 210 210 221 225 213 209 204 200 194 190 179 175 173 172 159 161 160 167 155 101  77  56  80 120 145 181 186 135  61 138 131 184 239
 178 177 178 178 179 180 174 148 107  92  92  96  98 100 104 109 115 129 146 159 165 169 171 175 182 184 172 139 124 102  87  99 119 151 171 179 197 215 213 194 190 182 187 180 175 167 166 189 189 189 185 188 192 186 193 194 200 203 205 206 218 230 220 213 207 204 200 192 191 183 178 176 170 167 169 167 168 159 107  83  57  92 103 156 196 210 164  94 146 168 208 236
 178 178 179 179 179 180 174 150 103  93  94  95  98 101 103 109 119 134 144 155 157 168 177 184 185 188 152 132 127 102  93  91 110 139 167 162 171 183 181 178 180 182 197 193 178 177 140 139 158 165 176 185 194 195 205 203 199 207 210 211 215 223 223 214 206 203 205 194 191 188 181 175 169 171 169 170 170 166 117  92  67  75  62 115 175 210 188 138 162 188 225 234
 178 178 177 178 178 179 177 140  93  96  95  95  95 101 105 110 118 127 139 139 156 164 168 181 192 177 135 121 100  92  83  68  77 104 138 141 133 134 128 135 145 162 187 187 177 174 141 103 122 140 155 164 178 197 213 214 213 211 214 222 223 221 218 212 210 209 203 201 195 190 181 176 170 171 171 170 171 166 131 102  71  58  64 108 157 198 201 162 174 200 232 234
 178 178 177 178 179 179 181 143  88 101  97  95  96 100 106 112 119 122 132 143 154 158 166 177 179 140 110  86  69  68  56  39  40  60  87 104  95  95  83  67  60  78 112 141 155 153 133  87  82 110 127 145 156 177 210 218 217 210 223 237 232 224 218 214 212 207 193 198 198 192 183 176 175 168 172 174 174 164 134 107  67  72  74 120 157 190 200 166 177 210 234 232
 178 178 178 178 179 179 180 147  85 102  98  98 100 102 104 111 115 121 130 138 147 156 165 176 151 112  91  71  82  57  30  16   9  28  45  52  56  66  35   9   7   7  14  51  91  99 114 107  75  72 102 121 143 169 198 210 210 213 225 229 222 222 213 210 210 202 199 197 193 192 187 181 170 169 171 176 173 163 130 100  73 127 134 145 172 200 199 174 178 215 236 232
 178 178 178 179 179 179 182 145  86 106 100  99 101  99 100 104 107 117 125 129 140 154 168 158 117  97  75  66  95  40  18  18  16  22  35  37  41  42  21  16  15  18  13  14  42 105 163 144 123  66  76 102 119 147 169 189 195 205 218 215 215 213 211 206 204 202 201 195 195 189 187 186 171 167 172 177 174 158 120  95  66 172 217 183 196 216 200 179 183 221 236 235
 179 179 178 179 180 179 183 112  80 110 103  99  99  96 101 103 100 104 114 124 135 150 151 122 100  82  63  97  98  26  12  17  19  22  26  31  34  33  34  59  87  87  68  83 126 176 194 155 133 110  61  83 100 124 150 173 175 188 203 205 205 201 201 205 200 198 198 189 190 194 189 185 175 165 172 176 174 156 111  78  80 182 220 195 201 216 195 180 175 231 235 235
 179 179 179 179 181 185 160  85  84 112 107  99  94  95  98  99  97 100 109 120 133 139 120 107  93  67  89 121 100  32  12  12   6   6  12  20  26  31  79 123 115  95 116 151 158 171 190 180 134 140  91  64  92 111 132 161 170 182 196 198 196 194 198 198 197 193 193 193 196 192 189 185 179 170 172 171 173 153 104  72  76 180 219 194 196 210 195 166 174 239 236 235
 179 179 180 181 185 187 117  72  84 113 104  97  94  97  92  92  94  99 104 115 125 116 106 105  80  72 113 108  96  63  25  12  10   2   1   8  23  50  91  92  85  68  66  91 103 114 152 192 158 133 134  71  76 101 122 147 162 173 181 191 193 191 190 190 192 192 187 192 196 191 188 184 179 170 171 170 169 148  90  72  70 160 206 196 205 196 188 135 182 241 235 236
 178 180 180 182 190 178  91  68  85 110 100  97  93  91  90  90  92  95  99 113 112 104 103  92  73  98 117  93  74  43  24  20  19  20  26  48  84 123 110  92  73  56  55  58  63  77 102 156 177 125 128 104  58  91 114 134 146 159 174 178 184 183 179 182 190 190 190 188 186 188 188 182 172 166 170 170 164 139  86  67  61 171 214 206 186 158 180 121 202 238 235 235
 179 180 181 185 195 167  78  65  85 112  97  94  91  89  86  87  86  88  94 103  98 102  97  83  78 110 101  70  45  27  18  26  28  56  98 142 165 170 157 148 127  85  82  81  57  62  71 118 154 120  95 116  66  65 104 124 138 154 155 162 170 173 178 180 183 183 182 181 182 182 182 183 176 167 164 164 158 132  78  68  84 189 216 162 131 171 178 110 220 234 236 235
 180 182 183 188 201 151  52  53  80 106  97  94  90  90  85  84  82  84  89  91  93  95  87  78  88 102  78  60  38  33  25  28  38  72 123 140 155 166 175 169 149 114 104  96  82  77  97 115 128 117  76  76  79  46  82 111 133 150 155 159 164 164 167 174 177 182 181 180 184 183 177 176 172 166 161 159 154 121  73  76  78 155 202 150 173 208 174 123 224 235 236 235
 179 181 186 190 203 137  58  52  77  96  91  89  91  94  86  80  78  83  90  93  94  92  88  77  90  74  54  49  36  41  28  25  34  55  74  84  96 114 131 130 118 115 112 114 115 128 133 146 156 113  76  54  59  50  57 102 120 140 153 158 156 154 156 165 172 178 181 183 185 180 176 174 169 163 158 157 151 101  63  68  86 139 191 188 207 203 165 173 229 236 235 235
 181 183 188 194 198 136  56  61  72  91  88  91  94  93  88  81  78  80  90 103 105 104  96  88  80  47  34  35  33  33  29  24  29  30  39  50  62  67  83  94  82  81  94 100 109 121 126 132 149 138  82  57  39  57  54  90 115 130 141 151 158 155 157 162 171 178 180 179 179 168 174 171 165 158 151 150 140  88  52  72  97 157 205 202 196 192 157 201 231 235 235 236
 184 186 191 197 209 139  43  60  71  89  90  92  92  94  95  85  80  81  92 108 116 119 110 102  64  45  38  29  22  19  21  18  18  16  18  33  48  47  45  49  52  50  43  36  37  57  77  74  70  81  71  51  24  40  73  89 121 138 145 150 160 157 158 165 169 174 178 178 177 169 169 165 161 150 149 143 125  81  44  77  97 176 220 212 198 167 165 226 230 235 236 235
 186 190 195 199 206 168  44  56  66  84  90  89  91  97  99  87  84  85  94 111 126 131 126 112  49  53  32   6   2   0   7  30  25  49  40  86 140 152  96 101 168 170 131  82  84  74  40  26  19  15  18  19  22  33  85 102 131 145 154 159 163 163 164 165 173 176 173 173 175 173 170 161 153 146 139 138 116  61  43  75  94 182 214 207 204 162 155 234 235 235 236 236
 189 192 196 200 210 183  48  47  58  81  84  85  92  98 100  91  84  86  94 113 128 132 126 106  50  53  51  19   0   0   1  72  75 113 113 136 170 205 189 187 229 231 201 144 203 190  81  25   5   0   0  46  50  38 101 117 138 149 159 166 170 169 170 172 176 179 171 174 172 172 166 157 150 144 136 126  97  49  39  55  89 198 205 202 186 164 192 225 236 235 236 237
 192 196 200 206 213 196  69  39  63  71  78  85  88  94 101  95  80  85  91 111 132 135 134 123  65  61  88  75  43  20  17  82 108 110 117 143 171 192 191 191 207 213 192 171 199 181 137 100  61  64  90 131 105  73 122 132 145 157 158 161 168 172 173 171 171 170 174 178 169 162 158 151 143 137 131 116  79  38  21  51 122 202 195 196 159 141 227 237 247 246 241 239
 194 198 204 207 212 219  90  29  52  62  76  82  86  92  98  88  78  84  92 109 129 136 146 137  90  79  98  81  69  65  68  77  88 104 114 138 162 171 170 177 189 178 179 187 172 158 152 151 159 179 196 165 142 119 137 147 161 165 162 164 166 171 172 172 161 169 176 165 156 154 152 150 137 130 120 104  66  37  21  52 147 188 183 164  87 157 248 219 169 150 145 116
 198 201 206 210 214 227 145  38  46  55  69  78  85  93 100  90  79  80  91 105 122 128 137 140 113 104 108  91  75  64  67  82 100 117 145 168 166 153 163 170 185 182 186 212 187 158 158 170 193 205 203 202 177 142 147 159 166 168 173 174 168 163 164 171 159 166 170 146 143 146 140 142 133 120 100  79  55  36  24  67 133 158 142  65  70 212 144  67  54  60  69  42
 199 204 208 212 216 229 169  43  51  46  63  73  74  87 100  90  71  74  87 103 118 132 135 128 128 130 111  96  83  74  76  75  82 101 126 151 156 145 152 154 170 159 175 202 200 183 188 202 206 202 205 211 197 147 149 165 168 170 169 171 167 160 154 164 157 161 158 143 160 139 127 129 122 107  76  52  40  32  27  44  68  82  51  17  97  92  32  50  48  29  30  36
 203 205 210 214 218 231 170  49  65  34  51  67  72  86  93  84  63  69  81  91 111 126 135 132 136 138 118  96  92  86  82  79  75  81  97 106 119 118 117 125 146 150 152 168 187 197 210 207 202 201 201 206 197 160 149 162 168 168 167 159 155 151 144 155 156 149 150 154 149 124 120 124 115  92  60  43  32  25  24  15  21  29  19  32  38  22  39  45  29  32  33  36
 206 208 212 216 220 230 199  66  73  32  45  59  71  76  80  71  65  68  73  83 110 125 136 138 142 135 115  99  92  92  93  86  80  82  90  92 100 107 112 121 132 153 167 172 183 194 199 196 198 196 207 206 204 179 153 159 157 150 154 144 148 148 144 138 151 142 147 137 131 117 107 108 102  70  55  38  30  23  19  17  21  21  18  29  22  23  23  19  26  30  32  34
 208 209 214 219 221 228 225 100  26  19  38  54  64  68  70  69  71  63  63  78  99 122 156 147 133 128 115 105  92  91  96  95  95  99  96  95 108 121 129 131 142 153 167 179 181 183 188 190 200 195 210 211 206 185 161 152 146 142 142 126 136 145 139 134 143 137 129 113 115 105  92  97  83  56  44  36  31  22  17  18  20  13  22  25  22  17  15  26  22  26  25  22
 207 212 217 220 224 239 211  73   5  11  23  43  57  57  55  60  59  55  58  81  91 113 163 166 139 129 122 113 102  90  90  94  96 100  99  92 102 117 120 127 141 148 159 168 172 177 184 193 203 202 205 209 204 191 173 152 140 131 134 120 137 138 133 124 136 119 107 118 116  97  81  86  65  46  32  27  29  31  21  16   6  14  35  22  15  10  25  28  26  17  16  15
 210 213 219 226 236 179  62  18  11   9  14  32  48  46  48  51  50  49  57  66  77 112 156 167 149 127 121 118 111  97  87  87  93  95  93  84  89  98 109 123 132 144 153 163 169 177 183 195 202 205 211 208 202 194 177 155 133 114 124 114 134 136 127 120 127 106 106 109 103  79  72  74  48  37  27  19  30  40  19   9  33  83  36  15   9  12  23  24  16  12  10  10
 212 215 228 226 136  36  19  22  12   9  13  21  34  38  45  48  45  43  44  53  65  99 132 144 132 124 125 124 118 105  96  95  99  97  96  87  76  82 111 123 134 148 157 163 174 181 188 197 201 210 210 207 195 190 176 156 121 105 104 111 137 135 121 122 121  96 100  98  91  72  62  51  34  26  21  27  34  39  15  74 178 161  13  12   8  13  24  25  15  10   5   8
 213 227 210 100  25  21  21  14  15  14  10  13  18  24  41  41  39  34  38  48  57  83 116 118 115 119 123 127 128 115 106 100  98 101 103  94  83  85 111 130 145 154 162 170 176 184 190 200 207 208 207 202 190 170 168 153 115 104  99 110 120 120 116 116 103  88  93  91  73  53  48  34  23  19  28  35  49  27  66 198 249 149   0  15   9  13  13  21  12   6   3   5
 235 196  76  26  30  21  16  11  12  12  10  12  13  18  30  32  33  29  32  39  49  78 102  96  99 111 121 134 138 129 122 113 101 108 114  99  86  97 135 161 175 183 182 181 177 186 195 205 210 204 203 190 168 147 148 132 106  95 107 104 111 106 103 100  92  79  89  76  49  44  39  26  20  21  23  30  24  61 191 233 248 145   0  13   7  14  22  15   7   3   2   6
 159  68  32  36  31  17  11   6   4   8   8  11  10  15  23  20  26  22  33  40  38  63  93  78  78  96 125 144 155 159 142 129 116 127 130 101  98 132 181 197 204 208 204 200 192 188 198 207 205 202 198 186 153 123 144 121  93  95 109  93 100 105  93  84  78  73  73  50  49  37  26  26  14  15  16  32  89 193 236 230 244 168   0   9   7  13  25  18   4   3   0   8
  41  33  34  31  27  15   6   3   2   6   7  10   9  10  17  18  16  14  34  42  37  54  62  53  63  72 123 139 159 172 149 134 132 135 137 118 103 148 199 201 203 208 214 212 207 202 207 208 205 199 199 180 127  99 118 103 105  95  89  84 106 100  78  78  64  60  49  41  40  28  25  15  12  13  15  55 162 226 232 229 238 202  11   4  10  11  17  17   4   3  14  43
  35  35  33  29  24  15   5   2   2   4   8   8   8   8  11  13  14  10  25  38  30  44  46  48  53  70  98 127 148 163 147 137 144 138 137 133 112 156 174 182 191 197 213 209 208 209 210 212 207 202 201 177 102  90  87  91  84  86  84  74  98  75  59  69  48  44  43  32  27  26  23  13  12  10  14  79 193 223 227 230 232 237  52   0   7   7  15  18   6   1  19  38
  35  35  30  25  21  15   6   1   0   1   3   5   5   5   6   9  13  12  26  31  29  31  31  38  39  56  78 126 137 153 150 135 141 132 124 127 127 135 139 162 164 178 189 210 209 207 214 217 209 202 184 171 106  67  66  65  71  81  86  65  72  65  48  50  35  38  37  28  30  24  15  14  11  10  11 104 225 229 228 231 231 249 140   0   2   3   6  14   7   1   0   0
  33  32  28  24  18  14   8   1   1   1   1   1   2   3   3   6   9  12  18  19  19  25  29  24  23  36  62 105 133 138 139 122 116 110 113 120 135 140 118 141 147 155 165 199 201 209 215 212 205 194 157 128 105  67  56  50  48  79  94  72  70  57  39  32  24  26  28  28  24  18  13  12  14  14  24 138 234 227 230 232 232 237 233  44   0   1   4   8   7   1   1   0
  30  28  26  20  18  15   6   1   0   1   1   0   1   2   2   3   5   6  10  12  15  22  26  16  20  28  52  83 106 112  96  94  90 101 109 114 128 153 114 124 124 135 146 177 179 200 197 197 195 178 142 106  79  65  49  43  37  54  73  65  61  45  30  22  23  21  22  23  20  17  13  13   8  23  49 180 240 236 239 241 241 241 250 196  13   0   1   2   3   0   0   1
  22  20  18  16  15  13   5   0   0   0   1   0   0   3   2   3   2   3   9  10  11  17  23  15  14  17  33  60  86  74  60  79  77  85  92  96 116 124 109  95 107 113 116 153 161 169 165 188 181 161 117  83  60  49  26  38  32  44  56  44  52  28  21  21  23  17  20  18  16  10  11  10  11  32  74 161 219 210 202 195 186 181 190 224 133   6   0   1   0   1   1   2
  19  19  18  17  16  14   8   0   1   0   0   0   1   1   1   2   2   1   4   7   8   7  19   9   9   7  15  41  61  44  49  77  67  65  67  86 109 116  92  73  83  95  91 119 131 133 134 151 159 137  81  52  52  52  28  30  32  27  39  35  33  24  20  14  18  20  16  16  14  12  12  11  22  71 105  54  57  62  58  56  50  45  47  58  85  41   1   0   1   2   3   4
  19  19  18  16  15  12   9   1   0   0   1   0   0   0   0   0   0   1   1   2   3   4  14  10   7   4   7  19  39  28  42  58  55  54  56  71  86 103  76  75  62  67  83  89 108 107  99 114 122  82  50  50  41  37  27  29  26  33  31  29  28  21  21  11  17  14  13  10  12  13  15  12  41  96 104  29   5  20  31  39  44  38  33  29  31  44  34  12   0   0   1   0
  19  18  16  17  15  12   9   2   0   0   1   0   0   0   1   0   0   2   1   1   2   1   4  10   3   7   6   6  16  19  36  38  36  49  54  55  65  72  66  66  55  61  72  63  77  80  68  93  74  37  39  45  33  41  28  20  26  29  25  22  21  16  14  13  13  12  11   6   8   7  11  26  59 105  95  24  11  14  22  31  38  41  39  37  36  43  50  47  32  19  13   8
  18  18  15  14  14  12  10   2   0   0   0   0   1   0   0   0   0   0   1   1   0   1   0   3   1   4   6   7   7  15  19  26  26  45  37  46  55  56  50  45  66  46  46  44  40  48  44  53  30  31  32  31  32  31  19  19  32  25  20  19  18  15  11  11  10  12   9   6   8  10  18  35  75 111  89  17  14   9  11  16  18  22  32  36  34  46  52  47  42  39  38  35
  15  16  12   8   9   7   5   1   0   1   1   0   0   0   0   1   0   1   0   0   0   0   2   2   3   3   6   7   3   8  11  19  22  30  23  21  32  39  27  31  41  39  27  26  22  27  29  32  25  24  14  19  30  27  14  18  23  19  12  18  17  12  12  15  10   8  12   9  12  28  30  42  96 116  76  12  15   7   8  15  18  17  20  28  32  46  55  52  45  40  38  38
  11   8   8   7   4   4   3   0   0   1   0   0   0   0   0   0   1   0   0   0   1   2   4   2   2   3   5   4   0   3   4  10  12  13  14  11  19  25  18  17  17  33  20  14  17  16  16  21  24  19  13  16  28  26  22  19  17  18  12  12  11  16  12  10   8   9  13   7  20  41  46  73 109 116  64   7  15   9   6  13  17  19  21  27  33  46  52  54  50  46  46  45
  10   9   8   8   3   3   3   1   0   1   0   0   0   0   0   0   0   0   0   1   1   0   0   0   1   1   2   4   1   1   2   1   8   6   6   6   9  15  14  12  13  26  14  10  12   9  17  21  22  16  13  17  25  20  30  22  16  20  11  10  11  18  13   8  11  14  13  12  30  52  79 105 114 117  50   5  15  13   4   9  17  24  27  31  37  47  52  49  49  48  46  45
  10  10   8   7   6   4   3   3   1   1   0   0   0   0   0   0   0   0   0   0   0   0   0   2   0   0   1   1   1   0   0   1   4   5   0   1   2   6   9  10   5  15   8   7   8   7  10  10  10  12   9  16  26  21  23  16  13  11   6  14  15  16  12  10   9   7  10  16  47  69  95 108 118 114  37   7  14  16   9  14  23  26  22  25  42  50  52  48  49  48  46  47
   7   8   6   5   4   4   2   4   7   7   1   0   0   0   0   0   0   0   0   0   0   0   0   0   0   0   0   0   0   2   0   0   0   1   0   0   1   1   3   5   2   7   3   5   6   8   8   9   8   9   8  18  18  17  13  13  11  11  10  13  13  13  10   8   7   6  10  33  67  91 105 112 118 108  26   8  13  19  16  11  24  29  26  19  32  50  51  50  48  46  44  45
   3   3   4   5   6   6   5   5  11  10   0   0   0   0   0   0   0   0   0   0   0   0   0   0   0   0   0   0   0   0   1   0   0   4   1   0   1   0   0   3   1   0   0   6   6   6   8   6   6   7  11  13  10  12  11   9   6   9  10   7   6   4   5   7   8   5  21  48  84 108 114 117 120  98  16   9  14  20  19  11  21  27  28  24  19  37  50  51  50  47  42  40
   6   5   5   8   8   9   8   7  15  17   5   0   0   0   0   1   0   0   0   0   0   0   0   0   1   1   1   2   0   0   1   0   0   6   2   0   0   0   0   0   0   0   1   3   6   3   3   4   7  10  10   9   8  10   8   6  10  10   5   3   4   4   2   7  10  12  35  57 101 114 115 121 123  88  10   9  16  23  22  15  17  23  27  28  22  26  42  48  49  45  38  35
   5   6   5   7  10  12   8   6  17  22  11   0   0   0   0   0   0   0   0   0   0   0   1   0   0   1   1   0   0   0   0   0   0   1   1   0   0   0   0   0   0   0   0   0   2   0   1   4   7   9   5   8   9   8   6   4  10   8   2   2   2   3   3   9  14  20  45  86 112 115 119 123 124  70   4  10  17  23  23  16  13  19  24  28  26  24  33  40  46  44  42  39
