P2
# Generated by OpenCV 4.2.0
92 112
255
  32  30  33  29  32  31  32  30  28  30  31  30  30  33  35  66  86 142 208  36  34  32  33  33  33  30  31  31  31  31  30  32  30  28  30  57  84 109 214  98  31  32  31  33  31  33  30  25  32  28  22  19  21  25  33  35  38  67 176 182  29  39  37  30  31  29  29  30  30  29  30  30  30  30  31  32  30  31  35  35  31  29  33  31  31  28  30  30  31  30  33  31
  31  32  31  30  31  34  34  32  30  30  29  30  33  33  34  86  91 128 207  36  33  33  33  31  31  29  29  30  30  30  30  32  30  30  30  54  75 122 218 103  32  30  29  30  32  35  23  26  22  18  17  18  11  15  23  15  22  31 165 176  32  38  39  30  31  31  30  30  32  30  30  34  32  31  30  30  30  34  31  33  31  32  31  30  30  30  31  32  31  30  29  31
  30  30  32  32  28  32  32  31  28  30  30  32  31  32  33  73  87 130 205  37  34  32  32  30  29  33  30  31  31  30  31  30  32  28  25  26  20  52  58  71  36  27  25  21  20  28  30  18  17  21  20  22  12  11  14  17  18  22  76 158  31  38  36  32  31  32  32  31  31  33  32  32  31  30  31  30  33  30  31  32  31  31  30  29  30  28  30  31  33  32  30  32
  30  29  32  31  31  31  33  29  30  29  27  31  32  32  35  62 100 122 204  33  32  32  33  31  30  29  32  31  31  31  32  20  16  20  16  25  22  33  34  18  17  22  16  17  15  20  27  27  29  29  18  16  23  23  15  17  15  17  42  88  33  38  39  30  31  33  31  32  32  31  31  31  31  31  31  29  30  31  32  31  33  30  29  30  29  30  30  30  33  36  34  34
  30  33  29  31  33  34  30  31  31  30  31  30  34  32  34  72  85 126 202  38  32  31  32  31  32  32  32  33  32  31  21  14  18  19  20  19  21  30  32  34  15  13  11  12  17  21  30  29  42  36  26  25  20  28  24  14  14  11  14  14  33  35  39  34  32  29  32  31  30  29  31  31  32  29  29  31  31  31  31  30  33  29  32  30  31  30  31  30  33  33  32  33
  31  32  32  32  32  30  32  31  31  29  32  31  30  31  33  66  82 126 203  39  34  31  32  31  31  31  30  28  27  21  11  11  15  14  17  22  23  23  32  33  32   9   8  13  13  21  25  34  40  33  29  23  25  29  29  17  15  12  13  15  13  22  25  24  29  31  30  31  30  32  32  33  32  30  31  31  30  30  33  31  34  30  28  31  30  30  31  30  29  31  31  33
  34  34  33  31  32  34  33  32  31  31  31  31  31  31  32  71 105 128 203  39  35  32  31  31  30  32  29  15   7   6   4   6   9   9  11  17  20  25  32  32  28  18   9   8  13  18  20  32  34  33  24  37  29  31  27  22  13  16  19  13  18  18  10   9   8  22  22  24  23  24  29  32  31  32  31  33  31  30  31  30  31  30  30  30  31  31  30  32  30  28  31  31
  33  33  33  35  32  33  32  30  31  31  30  32  31  32  34  59  79 142 204  38  34  32  31  31  24  10  14  15  16  13  12  13  15  12  19  17  13  17  22  29  37  31  15   5   9  18  23  27  32  23  34  47  33  36  27  25  18  18  19  17  18  16  15  19  22  23  11  10  11  14  19  27  29  33  30  32  32  30  29  30  29  30  32  30  30  28  31  30  32  28  33  32
  33  32  32  37  35  32  30  31  30  32  33  32  32  31  32  70  80 126 202  37  34  27  10  13  14  11  10  12  11  11  14  12  13  14  23  19  22  19  19  24  25  29  39  16  10  16  28  30  29  27  23  40  38  37  31  25  23  24  18  18  19  18  20  22  16  15   9   9  10  12  11  19  29  37  29  32  28  29  29  28  31  30  32  30  30  30  31  29  31  30  30  32
  29  33  32  31  33  33  33  30  32  31  30  34  33  30  34  74  87 115 200  38  16  22  27  10  10  14  18  28  30  23  18  13   9  10  14  21  27  30  28  26  24  27  29  26  16  15  25  31  31  30  28  35  33  30  37  26  26  43  17  22  17  20  19  17  17  18  14   8  15  13   9  14  26  29  35  33  30  30  29  31  30  32  30  31  29  32  31  32  31  31  31  32
  31  33  33  32  32  32  31  32  31  30  31  31  30  30  32  61  67 122 190  38  20  27  11  12  13  13  11  12  12   9  11  16  21  18  30  23  26  31  33  31  31  25  29  30  25  19  22  31  31  30  36  32  31  25  33  25  23  18  22  31  25  25  22  21  20  19  14  19  18   9  11  12  18  27  32  35  32  32  30  30  30  31  30  29  30  29  31  31  31  32  32  32
  30  31  30  33  30  32  30  31  31  31  29  32  32  31  33  71  76 115 193  35  19   7  10   7   9   9  11   6   5  11   9   9  15  18  31  30  23  31  26  26  28  26  12  18  28  24  27  28  33  29  38  41  38  24  27  33  21  19  28  36  28  26  22  27  21  23  22  25  20  18  18  15  12  19  29  32  31  31  31  30  29  30  31  30  29  30  30  30  30  30  29  31
  30  32  29  31  35  32  30  30  30  31  32  30  30  31  37  77  78 122 183  20   7  10  11  10   7  14  17  14  15  14  19  16  28  24  27  26  24  29  26  28  28  30  34  15  24  28  28  29  31  34  39  35  37  25  23  38  26  23  35  30  29  31  27  32  26  23  27  27  21  24  24  19  13  11   9  21  32  33  31  31  33  30  29  30  29  29  31  32  32  28  31  31
  29  32  30  30  31  35  34  33  31  32  31  32  32  36  36  70  76  87  20  10  10   9   7  15  14  10  10  17  16   8   9  11  17  16  40  28  33  29  27  32  38  36  40  32  24  34  29  28  27  30  36  39  33  24  20  36  32  32  38  35  29  32  31  33  28  27  33  25  26  26  23  16  14  12   8   8  13  29  31  32  32  30  30  31  32  30  30  30  29  30  32  32
  32  31  31  31  33  35  31  36  32  30  31  29  33  32  36  82  47  22  12  12   5   8  12  12  17  25  21  14  20  20  14  10  11  19  12  49  57  32  35  41  49  48  35  45  14  38  37  29  32  35  35  42  34  20  25  28  32  31  46  36  29  44  28  23  16  41  37  34  31  28  24  19  16  10   7   9   9  18  27  32  32  30  30  31  29  34  31  31  30  29  33  32
  35  31  32  33  30  31  33  34  33  32  32  31  32  31  31  55  38  16  10   7   9  19  14  20  21  18  21  21  27  30  27  17  15  20  17  33  69  50  25  54  60  56  29  40  34  18  49  35  34  47  49  51  35  23  26  28  42  39  43  39  35  38  29  17  16  28  34  45  33  32  35  29  22  18  15  10   8   4  14  31  32  30  31  30  32  31  30  31  32  29  29  32
  32  32  30  33  32  30  33  32  30  31  31  31  33  33  34  24  12  11  12   5   9  13  10  18  21  21  16  25  27  28  26  24  23  15  28  18  65  39  29  33  30  37  36  51  35  20  41  50  48  41  63  57  57  21  42  41  47  41  45  51  29  27  28  24  19  27  29  41  38  26  22  32  31  25  24  11   7   8   6  25  31  29  30  31  31  30  30  30  32  32  32  30
  31  31  32  33  30  30  32  31  32  32  30  31  32  30  27  20  12   6  10  13  16  12  14  16  28  37  30  29  32  29  31  36  28  28  14  37  35  19  36  29  23  17  22  52  36  20  29  28  56  53  52  55  42  30  33  39  41  40  41  46  30  28  34  29  23  21  34  30  18  17  23  28  22  20  15  11   6   5   7  13  30  29  30  31  31  31  32  31  31  31  32  32
  30  31  33  30  32  31  31  29  30  31  33  31  34  30  21  12   9  10  10  10  14  19  28  38  38  37  34  36  32  34  31  40  33  38  23  23  23  23  29  20  21  19  16  29  32  30  24  24  25  54  36  49  36  29  30  45  31  32  39  41  33  39  35  33  37  29  26  16  19  13  18  18  29  30  21  12  10   7   6   8  33  32  28  32  31  32  31  32  29  32  30  32
  35  32  33  33  30  32  32  33  29  31  31  32  31  24  24   9  10  10  12  18  24  22  27  27  34  39  40  36  43  43  38  37  34  37  23  23  21  23  30  24  20  22  29  22  28  27  33  26  21  26  41  27  27  26  31  38  35  39  41  45  57  53  51  53  51  43  32  14  21  25  22  24  30  18  16  25  16  10   7   3  16  37  30  31  31  32  30  31  33  31  30  32
  30  33  34  31  31  31  33  33  30  32  31  31  33  21  17  11  16  25  30  27  28  34  31  39  55  69  81  82  64  49  50  44  40  28  34  31  33  33  28  38  41  34  36  37  28  34  33  33  25  20  31  30  26  28  28  36  46  48  48  56  71  77  79  86  83  83  65  35  30  33  48  38  35  33  14  12  32  15  10   6  13  35  36  36  35  32  29  30  32  30  31  29
  32  32  32  31  33  30  32  32  32  31  31  28  27  20   8  19  17  15  27  25  33  31  54  74 100 125 126 134 125 113  68  59  48  40  38  46  44  40  40  43  41  65  58  44  60  43  48  51  45  33  39  39  36  30  34  38  64  64  70  77  97 101 125 131 121 106  95  70  36  34  32  50  33  26  29  22  16  18  16  11  12  39  33  37  32  32  35  32  32  32  29  31
  33  33  31  32  33  32  32  35  30  33  35  35  21   8  21  19  14  26  29  41  32  63 102 125 135 133 136 144 153 149 146  89  76  56  53  59  71  71  67  64  57  54  50  70  90  98  82  72  82  69  64  58  57  48  51  60  81  92  90 104 130 128 132 147 138 131 105 102  74  33  29  35  47  33  23  20  21  23  13  16  11  29  44  32  34  31  31  34  33  35  31  31
  34  33  30  33  34  32  32  29  30  31  29  31  15  12  24  14  28  36  36  35  53 108 132 143 145 151 164 163 169 171 170 164 113 111 103  90  95 114 107 110 124 119  93  90  88 115 126 107 111 110 119  98  80  83  81  96 123 113 131 137 144 143 145 153 152 147 136 117 104  61  34  30  25  38  32  21  22  23  22  11  12  26  51  33  32  36  32  33  32  33  32  33
  32  33  31  33  33  34  32  30  33  30  31  33   5  21  15  24  29  40  36  39 102 125 146 155 154 159 164 172 173 178 177 180 164 147 149 141 144 155 143 155 149 135 152 141 142 148 154 156 151 154 151 124 121 132 120 144 147 140 151 152 156 154 156 157 159 156 149 130 116  98  53  33  34  38  43  22  18  21  26  18  10  19  50  40  32  34  35  32  35  34  33  34
  32  31  29  32  37  36  34  33  31  32  32  19   7  25  14  27  29  36  38  87 122 137 154 157 159 163 168 172 175 179 180 180 171 177 170 168 173 175 179 182 177 172 176 177 174 175 180 175 173 175 169 154 161 160 153 154 159 165 161 164 163 160 162 157 162 159 152 141 125 109  92  41  37  31  42  29  15  14  21  18  15  17  29  43  36  34  31  34  33  33  32  35
  32  31  33  31  32  36  33  31  32  32  33   7  18  14  23  24  35  47  58 118 134 145 157 156 161 164 169 174 176 179 183 183 176 177 181 176 177 182 185 187 181 183 187 178 182 184 184 182 181 177 180 174 175 168 168 168 168 168 168 169 167 165 163 161 159 158 154 147 135 121 104  68  41  37  25  32  21  13  20  18  11  14  26  42  38  33  31  31  30  33  30  32
  29  30  32  33  30  31  35  32  34  32  24   9  25  18  15  24  39  57  86 136 140 149 156 158 162 165 169 172 177 177 179 179 184 185 183 184 186 184 184 189 185 189 193 192 187 188 186 184 185 188 182 181 183 178 175 173 168 167 172 171 170 167 161 159 160 158 155 148 143 125 123  92  44  45  44  25  32  19  11  15  16  18  22  39  40  34  30  32  32  33  30  33
  30  30  31  34  31  32  32  31  32  30  18  21  21  17  17  32  49  62 119 142 142 150 157 162 164 164 165 166 172 172 177 183 186 190 191 191 188 183 185 191 189 193 194 194 192 191 191 187 188 186 186 183 184 181 179 173 173 174 170 170 168 165 159 159 161 158 155 151 142 136 127 118  67  39  56  28  53  23  13  17  18  22  14  31  38  36  34  33  32  33  33  36
  30  32  32  31  31  31  31  31  32  31  11  33  18  13  20  43  57  97 141 141 144 151 159 159 164 160 160 168 167 166 177 186 183 189 188 189 189 191 191 191 190 194 194 193 190 192 191 191 188 187 188 187 190 184 180 179 174 172 172 168 165 163 160 157 156 157 153 149 145 139 131 134  99  51  42  48  35  37  21  13  17  19  18  30  43  37  29  29  31  33  33  32
  31  30  31  30  31  35  32  29  33  32   8  31  11  14  31  49  63 123 146 142 149 155 162 166 160 157 162 165 173 177 183 188 188 190 193 192 191 194 193 192 193 194 197 197 195 190 189 191 187 190 190 189 190 186 183 179 177 173 170 167 163 160 159 160 160 159 150 150 143 142 140 128 114  73  52  49  31  43  36  19  14  18  19  26  38  32  34  31  30  31  32  32
  32  31  33  33  30  31  33  31  32  30   8  28  12  15  45  47  89 140 145 144 151 155 161 165 157 156 163 167 174 181 183 185 191 192 189 189 191 192 198 197 196 198 197 196 193 196 194 190 190 190 188 190 193 188 184 182 179 172 170 170 164 162 160 159 160 154 155 148 145 144 142 138 130  88  52  43  40  29  47  29  13  18  21  30  33  32  31  31  29  31  31  32
  32  31  31  32  31  35  32  32  32  32  15  22  14  32  42  59 109 142 145 147 151 155 164 162 156 162 163 170 174 180 182 182 186 192 195 193 195 196 197 198 200 196 197 195 193 194 195 190 195 194 192 193 195 192 190 187 185 179 170 169 165 163 161 158 158 157 150 150 152 148 144 142 131 103  60  60  53  38  36  31  19  17  17  32  27  29  32  34  32  31  31  30
  32  32  29  31  31  32  31  31  33  32  29  20  17  34  49  68 128 149 148 151 151 158 163 163 159 159 166 167 174 181 180 186 190 196 195 194 197 198 200 198 199 200 199 199 196 197 193 193 191 198 194 194 194 187 190 187 185 178 172 170 165 163 164 158 158 156 154 150 151 149 145 144 142 112  74  53  45  57  31  39  23  14  15  32  29  31  33  31  31  31  33  32
  31  31  34  33  34  36  33  31  32  32  30  15  29  36  49  92 141 153 146 148 150 156 162 165 157 159 168 171 179 181 183 186 192 188 195 195 196 198 193 196 197 200 200 202 198 200 192 197 196 198 196 195 189 185 185 189 183 178 171 168 165 162 164 160 159 157 157 154 150 145 149 143 146 122  81  47  75  46  48  29  34  20  16  28  30  30  31  31  32  31  31  33
  30  32  37  35  36  38  30  32  32  31  27  16  28  48  53 119 147 152 147 151 153 160 164 163 163 162 169 176 177 181 183 184 188 182 189 187 195 194 191 189 193 193 192 194 198 194 198 198 196 197 193 194 190 186 183 184 180 182 174 173 169 168 163 164 160 160 155 153 151 150 147 147 145 137  90  66  59  56  51  30  31  27  11  27  25  27  31  32  32  32  31  32
  34  34  34  36  37  38  36  33  33  31  26  20  34  41  72 141 151 148 147 150 156 161 167 166 167 167 169 174 173 173 176 184 187 190 193 197 200 197 193 192 194 197 198 197 194 190 190 192 197 196 195 187 188 186 183 185 182 179 175 174 173 168 167 166 163 160 153 157 155 154 149 145 148 137 106  74  46  57  50  46  21  39  20  25  26  24  31  33  31  31  35  35
  36  32  32  33  34  33  36  31  30  31  24  25  35  36  96 146 152 149 149 153 159 164 167 169 166 166 168 171 175 176 186 192 193 195 194 196 200 199 194 195 198 200 198 199 198 196 195 195 194 198 191 192 188 184 183 182 181 175 178 173 171 168 169 168 164 161 159 157 155 152 149 147 148 141 109  78  52  61  49  58  27  35  28  20  26  26  31  34  34  39  36  36
  33  32  34  33  33  35  36  31  30  29  17  26  31  50 110 140 148 147 154 155 161 164 167 169 171 166 172 175 181 181 188 191 191 193 195 198 198 200 199 199 195 197 200 197 196 198 196 197 198 194 196 191 190 182 181 181 179 177 171 176 175 170 173 172 165 160 161 159 157 151 149 147 150 141 116  80  66  64  44  48  28  26  61  24  24  30  31  34  32  39  41  37
  35  34  36  36  37  35  34  31  31  26  19  29  35  48 115 132 144 145 151 158 162 165 165 171 170 172 171 176 182 181 182 189 186 189 192 192 194 196 194 197 196 198 197 196 199 195 197 194 191 193 191 183 183 183 178 180 176 177 177 174 174 174 174 170 167 163 163 158 157 155 147 144 145 136 118  79  59  48  35  35  62  19  20  28  22  28  31  31  33  35  34  37
  36  36  34  37  36  33  33  30  31  24  20  23  34  46 112 119 141 149 152 162 157 167 165 170 170 170 174 174 176 184 184 189 193 193 194 197 195 198 199 195 194 197 195 198 200 200 198 194 198 197 191 192 188 183 179 174 175 175 179 174 175 175 175 167 166 164 165 160 159 156 149 141 137 137 122  91  54  49  33  33  43  23  18  18  21  29  32  30  31  31  32  34
  34  35  34  33  33  35  32  34  29  24  25  20  32  54 113 123 138 145 154 156 166 166 163 170 173 168 172 176 181 187 186 189 193 192 200 199 199 204 199 203 202 199 195 197 201 194 193 200 194 197 194 191 186 182 180 177 179 175 176 176 173 168 171 171 164 162 163 160 157 153 148 140 135 135 117  98  55  37  29  28  31  21  12  19  17  26  31  29  32  33  33  32
  32  36  34  36  33  36  33  32  30  25  21  24  29  62 104 124 139 150 155 161 160 167 170 170 168 170 172 174 179 188 189 190 193 198 200 200 202 200 200 199 203 197 199 199 201 196 196 197 196 194 193 196 187 182 179 177 173 178 174 171 170 169 169 167 163 160 159 156 155 152 146 138 134 132 123  98  53  34  27  28  28  26  12  16  17  22  29  33  31  33  29  32
  30  37  34  34  32  36  34  33  32  27  20  21  24  57 108 127 140 150 155 157 159 159 167 170 166 171 178 173 172 182 185 188 188 192 198 200 205 203 199 198 197 201 197 199 199 200 196 196 199 198 195 192 189 184 183 182 178 173 174 175 173 175 171 168 165 155 153 156 153 149 145 139 139 135 127 101  60  36  27  27  24  20  16  16  19  22  30  32  31  30  32  32
  31  29  33  32  31  32  37  35  32  27  19  22  25  58 114 129 137 147 154 161 156 159 167 172 171 171 174 181 177 182 185 186 189 189 191 198 203 199 199 200 200 197 199 197 200 202 200 198 200 198 197 193 186 184 178 181 184 176 177 177 170 171 171 169 165 158 151 148 151 150 145 139 137 136 130  87  57  41  29  25  17  20  14  13  16  23  32  31  31  30  30  31
  31  31  30  31  31  30  32  32  32  28  15  18  22  55 118 133 134 144 154 155 159 161 167 169 176 179 177 181 179 180 184 188 188 187 194 196 200 200 200 197 201 197 201 200 201 200 201 198 198 203 197 189 181 180 180 180 182 183 182 180 175 173 173 170 163 157 152 151 148 148 142 141 140 141 133  91  59  43  30  23  20  17  13   8  16  20  28  33  32  33  30  30
  32  32  31  31  31  31  34  31  33  27  14  18  22  52 117 132 137 142 152 152 156 159 161 171 176 174 183 183 181 186 183 184 190 186 188 185 192 192 193 203 198 199 201 198 199 200 202 200 199 192 194 186 185 187 184 187 185 191 187 181 178 173 174 170 163 153 153 150 150 147 144 140 139 138 129  91  61  41  34  22  19  13  12  15  19  21  28  32  33  30  29  30
  34  32  30  33  36  36  36  33  32  28  12  19  22  46 114 130 135 136 145 150 152 155 163 163 173 171 178 180 183 179 182 183 182 182 182 176 180 184 189 197 195 197 200 198 197 200 195 194 190 188 188 187 184 187 186 186 190 189 187 178 178 177 175 166 160 152 148 149 145 144 143 138 138 139 122  95  62  44  31  26  19  13  11  16  21  22  30  32  32  33  32  32
  35  32  34  32  34  35  37  33  32  27  11  15  22  42 113 133 131 138 144 141 147 154 155 150 125 121 140 153 165 157 138 144 152 150 142 143 153 172 179 194 199 197 200 198 190 192 189 179 174 172 177 181 181 183 183 181 185 184 177 177 176 176 166 156 158 148 148 146 145 137 138 141 139 138 125  93  74  50  28  24  18  11   9  13  21  21  30  33  34  33  31  30
  32  32  32  33  31  33  34  36  31  23  10  12  18  41 107 136 133 136 140 135 140 152 123 103 103 117 127 118  97  86  85  88  83  79  90 112 137 154 170 187 196 195 198 193 186 183 175 165 148 133 134 157 168 172 168 171 171 168 162 158 150 153 166 157 158 148 149 141 144 143 139 144 140 135 121  97  71  53  28  20  16  12  10  15  21  24  32  33  30  31  31  31
  32  31  34  32  31  33  34  38  32  27   8  12  19  37 111 132 138 131 134 136 135 107  86  84  79  88  80  68  77  66  69  60  53  60  88 104 121 131 156 176 188 188 194 189 181 172 161 146 132 120 114  73  88 111 134 139 144 144 127 121 121 133 154 150 156 147 145 141 139 141 143 145 143 135 124 101  62  54  24  16  18  14  12  15  25  27  32  30  29  31  30  30
  30  36  33  31  33  32  31  34  33  24  14  13  19  35 115 130 139 134 132 121 103  98  78  84  83  83  93 115 107  94  87  91  94  89  90 102 117 123 144 160 176 185 193 187 178 165 151 147 129 136 101  69  63  60  82  77  88  92 102 100  95 104 101 117 118 134 144 144 138 143 145 150 144 138 125  97  58  54  27  21  12  12  10  18  29  28  32  35  34  31  29  29
  29  31  30  30  32  31  32  34  32  25  17  16  23  29 116 135 143 139 130 120 100  92 101  95 104 125 139 146 149 157 160 160 158 153 150 142 122 105 122 147 168 180 184 178 171 168 156 146 133 119 115  99  80  58  57  58  68  73  84  83  88  85  78  87  88 103 126 147 144 143 146 154 148 139 127  94  53  52  28  18  12  13  13  16  30  29  30  32  37  34  30  31
  30  31  31  30  31  32  33  32  32  26  55  28  20  31 112 135 144 144 134 128 115 107 111 126 138 146 158 165 155 151 132 119 107 107 114 137 145 132 107 131 160 178 185 179 170 167 156 143 130 141 154 156 159 153 157 154 147 149 141 140 137 112 109 101  94  83  96 124 138 146 152 153 153 139 123  95  56  47  32  15  13  16  28  23  28  31  30  30  36  35  33  31
  31  32  31  34  32  34  32  32  31  22 143  62  24  30 122 138 147 146 138 130 127 125 123 129 147 135 104  90  66  73  82  92 102 116 103 104 125 144 127 121 161 182 190 186 174 165 156 141 144 160 156 139 108 115 117 126 134 140 144 146 153 151 142 132 124 111 108 115 135 155 156 154 155 139 123  98  62  42  33  16  17  80  34  45  27  30  30  30  35  36  34  34
  29  31  32  31  31  33  33  32  27  22  96  76  24  32 126 136 147 150 145 143 136 130 125 124  83  70  52  58  60  39  41  53  41  92 100 125 136 147 141 124 160 187 196 196 182 166 150 131 151 147 127 106 127 111  78  58  69  71  84 106 106 119 143 145 138 131 134 130 131 154 160 159 152 139 125  99  61  51  30  25  28 139  89  87  36  32  31  31  32  33  32  33
  32  32  33  32  32  31  31  32  28  17  48  62  28  39 130 141 150 151 152 146 140 130 121  94  56  41  71 150  81  45  27  43  55 149 145 117 152 172 156 130 161 187 196 194 185 162 146 132 156 159 146 123  98 124  43  32  68  30  41  60  70 101  87 123 133 136 144 146 153 156 160 152 151 142 126  94  58  49  32  50  66 130  85 102  31  33  33  32  34  35  32  33
  34  31  31  31  31  33  33  32  26  19  17  94  43  49 131 140 151 155 154 151 142 133 116  97  50  70 107 147 136  48  44  61  71 140 120 121 128 193 166 138 164 184 194 192 183 165 142 132 155 177 144 106 136 193  81  51  22  45  55 136  75  45  95 115 130 135 149 158 160 159 159 153 154 133 130 105  51  54  27 135 115 103 143 141  28  34  36  36  32  36  31  34
  33  32  33  31  31  31  34  32  25  18  10 127  52  60 132 144 152 159 162 159 152 139 118 122 109  91 106 120 133 131 143 156 147 142 146 146 182 183 156 147 162 187 187 189 179 163 142 136 155 184 146 141 146 145 132  85  77  71 114 121 114  80  82 117 130 134 156 157 161 166 164 160 149 140 124 107  52  51  54 153  90 125 152 152  28  31  33  35  37  36  35  37
  32  31  31  34  32  35  33  35  29  19  14 108  84  62 130 143 149 163 164 169 160 146 141 155 152 127 126 138 131 137 145 149 152 157 156 161 187 185 149 149 157 182 184 186 177 155 144 142 143 170 181 164 155 149 146 140 153 134 114 121 112 116 131 144 139 144 157 155 164 166 167 159 151 134 123 116  45  52  92 106 140 131 137 160  28  31  30  34  33  36  36  34
  31  33  31  32  33  33  33  33  28  19  13  96  91  64 129 143 150 157 163 171 165 161 158 161 161 160 144 145 149 156 155 158 160 172 172 181 195 159 149 152 154 179 182 177 170 148 144 150 142 155 176 166 165 167 172 175 164 161 151 148 149 157 163 158 157 152 156 165 170 168 163 161 144 136 124 111  51  41  91 139 150 168 139 154  29  29  31  32  33  33  31  29
  32  30  33  31  33  34  34  32  30  20  11 106  84  61 127 142 150 156 163 168 168 171 168 160 161 165 167 164 162 165 171 179 185 189 195 196 184 157 153 148 152 180 186 174 161 143 145 151 150 154 168 180 178 177 180 175 175 171 166 167 169 170 169 160 164 169 168 170 166 164 160 160 148 140 123 107  50  36  94 156 163 143 141 128  30  32  32  31  31  33  34  33
  31  32  32  31  34  34  32  32  28  17  13  99  95  54 125 141 144 150 165 163 164 177 183 169 167 170 173 174 175 180 183 190 196 197 196 194 172 155 152 141 154 178 180 176 158 138 140 149 150 156 164 181 187 185 187 185 183 179 177 174 169 168 167 165 166 174 174 167 167 163 159 159 138 134 114 105  48  47 111 155 167 134 149  63  32  31  32  29  32  32  31  32
  32  31  33  34  33  35  34  32  32  23  15  25 131  51 120 138 143 151 159 164 164 174 184 180 175 172 172 178 184 186 188 187 193 195 197 186 168 150 145 142 162 173 180 165 161 142 137 146 149 157 161 179 191 190 189 193 194 189 183 180 174 171 169 168 172 173 174 166 160 162 156 150 140 126 115  99  50  39 138 163 179 142 168  18  33  34  32  31  30  31  32  33
  34  30  31  32  31  33  33  32  33  28  20   8 135  54 118 127 143 153 159 162 168 170 182 187 185 179 178 181 185 180 189 185 195 198 192 179 170 150 138 151 169 186 187 176 164 155 133 137 149 150 161 174 187 191 191 191 191 191 188 178 177 175 175 177 176 177 173 166 161 160 154 145 138 122 113 100  56  44 169 177 189 139  98  25  31  31  32  31  32  31  32  32
  34  32  32  31  34  33  32  33  29  25  17  15  86 102 112 123 139 140 158 160 171 177 181 185 188 187 188 187 186 190 194 196 194 192 185 178 159 149 138 158 178 187 187 180 167 155 137 129 147 149 155 171 181 185 188 188 188 185 187 183 176 177 180 180 179 173 170 165 158 160 153 145 137 119 114  93  51  93 186 182 196 137  12  21  29  31  32  30  32  33  32  32
  33  31  29  31  31  33  32  31  29  19  13  12  28 130 110 122 135 142 150 168 175 179 177 181 183 187 189 190 195 196 194 190 187 189 182 175 161 143 150 168 181 187 187 182 178 155 141 124 131 159 158 168 175 182 186 186 185 188 182 179 182 181 183 183 181 175 178 170 169 156 149 147 135 122 112  95  55 126 167 175 187 116  14  19  28  33  31  32  34  35  33  35
  33  32  30  31  31  31  31  32  32  21  11  10  15 116 103 124 135 147 152 166 175 176 179 180 183 178 182 184 192 193 190 184 189 180 184 175 166 131 152 169 184 189 193 186 173 161 141 130 129 128 171 168 176 179 184 184 183 186 182 181 184 181 182 184 178 179 178 171 164 160 155 142 131 119 115  98  52 123 153 164 170  61  15  19  30  32  33  34  37  37  37  35
  31  33  33  33  31  33  29  32  32  28  15  10  19 100  99 119 136 142 153 167 170 175 182 184 183 177 177 187 187 186 186 187 189 184 188 184 162 135 145 166 183 197 197 204 179 158 147 137 140 130 157 183 185 183 180 179 179 179 178 179 182 182 176 176 180 175 176 170 166 160 155 143 127 119 116  98  58 107 131 157 140  13  15  24  31  33  34  34  34  35  33  49
  31  30  33  31  31  31  32  32  33  30  19  12  16  92  91 117 133 142 155 168 168 177 180 177 185 177 184 186 186 176 187 186 188 189 186 189 143 132 130 143 167 187 186 177 164 139 134 137 143 141 133 190 194 190 189 185 176 180 175 174 178 172 183 177 178 174 173 169 165 160 153 140 128 119 115  98  64 109 148 137 131   6  18  25  32  31  32  34  35  34  38 171
  29  32  32  33  34  33  33  30  31  32  19  13  15  99  81 118 130 142 152 170 172 177 186 181 180 176 180 182 183 180 185 191 190 191 187 193 131 120  93  99 129 156 158 150 129 108  93 110 135 143 128 171 194 198 198 191 185 180 171 171 173 177 173 174 175 175 174 170 165 161 150 143 128 118 114  96  66 108 110 139 152   8  17  26  32  33  32  36  33  36 149 215
  32  31  33  31  32  31  30  30  32  31  22  16  10  73  63 108 126 144 160 168 175 177 182 185 177 176 177 176 174 183 184 187 190 194 192 190 120 121 108  66  80 120 132 124 103  68  70  79 104 133 124 161 173 192 200 191 187 184 176 175 170 172 168 171 175 173 173 166 167 161 150 141 121 121 118  90  63  90 140 160 139   9  16  26  33  32  33  33  36 138 216 214
  32  32  33  33  32  33  31  30  32  29  22  10  14  69  57 105 118 145 157 167 170 177 181 180 179 176 175 173 178 183 186 189 192 197 189 189 142 122 151 122 110  95  92  93 104 139 148 154 141 118 120 167 159 174 189 198 189 181 179 177 172 171 172 170 175 171 168 167 164 154 149 137 121 122 115  85  55  84 148 159 110  15  16  26  32  31  32  41 150 217 212 214
  31  34  36  36  35  33  31  30  30  28  23  12  11  78  52  98 118 139 152 163 168 178 176 179 178 174 173 175 174 184 186 193 194 194 189 187 178 128 115 135 137 135 133 133 139 145 130 119 107 114 144 168 159 166 184 191 195 183 176 175 168 172 168 171 171 174 169 164 164 157 147 133 120 120 116  75  51 110 141 147  55  16  20  27  34  33  39 165 215 216 212 214
  33  32  32  34  32  33  30  30  29  28  24  15  11  71  49  91 114 133 148 161 170 174 179 179 178 173 173 170 175 184 183 189 194 190 190 187 180 163 140 112 126 150 154 154 149 133  78 108 138 155 156 163 176 160 173 188 194 188 180 171 169 168 171 170 173 168 167 167 159 157 150 138 121 120 109  75  54 117 160 125   6  16  21  30  34  40 162 214 213 214 214 215
  32  32  32  32  33  33  32  31  31  30  26  16  10  82  40  65 106 136 146 163 167 177 180 176 176 172 169 172 177 176 188 192 187 190 193 189 177 166 132  77  86 104 133 153 116 108  67  43  91 137 155 164 176 167 164 174 189 185 178 171 171 170 170 168 173 167 165 165 164 159 145 130 114 114 108  67  48 125 163 118  10  16  25  32  49 174 210 202 214 214 214 214
  30  32  32  30  31  32  32  30  30  30  26  19   9 109  39  60 106 123 151 161 164 172 179 175 172 169 166 172 176 185 186 188 190 191 192 185 164 131 109  64  61  77  87 163 114  60  62  35  42  58 123 161 173 173 164 177 188 189 181 174 170 167 169 168 166 165 164 162 158 156 145 129 116 109  99  56  52 119 160  88  14  20  27  62 189 215 215 214 214 214 215 215
  33  31  32  32  33  33  32  30  30  29  29  22   8 103  44  42 104 116 149 160 169 176 176 169 172 168 167 174 180 184 188 190 192 192 185 164 130  99  70  56  62  61 107 166 145  68  48  51  35  41  83 116 168 175 163 171 185 192 186 177 175 172 170 165 163 166 165 166 161 152 141 128 112 108  84  48  47 127 152  13  16  22  97 204 215 215 214 214 216 214 214 206
  34  33  30  29  30  31  32  28  30  30  28  24  13  36  46  44  90 115 142 152 169 174 173 176 167 167 167 173 178 183 187 189 193 183 135 137  77  90  59  59  69 105 164 172 169 119  93  49  57  52  47  78 104 168 170 161 179 191 184 181 176 170 169 165 166 164 164 159 155 150 137 124 103 102  74  49  50 138  49  16  19 117 215 214 214 213 216 215 215 215 190  58
  35  31  31  32  32  32  32  30  30  31  30  24  13   9  37  34  74 111 140 153 169 173 170 174 168 166 167 172 176 177 184 186 164 140 123  78  70  81  60  69 105 165 165 163 171 162 129  94  44  49  40  46  64  96 165 159 174 186 183 180 175 173 172 167 163 165 164 157 156 152 135 121  99  96  62  48  68  54   8  19 109 208 215 217 214 210 216 215 214 173  39  37
  37  33  34  32  31  29  29  29  30  29  31  25  14   7  32  33  59 110 133 151 168 169 168 170 165 168 165 173 174 180 174 166 132  95  84  68  74  71  69  74 115 132 134 149 141 124 116 116 105  47  56  49  41  57 121 163 166 181 183 178 173 176 170 166 164 162 161 160 154 138 135 116  95  86  52  40  37  10  41 117 185 209 215 213 217 214 215 208 115  28  35  35
  85  41  32  33  31  32  31  29  30  30  31  23  15   8  28  31  50  98 127 144 162 169 168 171 165 162 168 174 172 170 176 137 105  83  71  72 100  80  88 100 117 109 115 113 111 110 112 107 106  78  94  82  68  52  66 142 167 179 177 180 174 170 170 165 163 161 160 155 150 134 128 111  96  70  47  35  22  71 128 147 190 212 215 215 216 215 186  77  35  35  33  36
 132  90  57  40  35  31  31  32  30  30  27  24  14  11  15  32  41  89 127 147 162 167 163 165 166 166 169 172 174 181 180 112  68  72  75  79  94  85  86  96  95  98 103  99 102  94 103  93  96  98  83  92  88  84  74  87 169 183 183 181 182 174 171 166 161 164 154 150 149 133 122 106  79  63  43  35  97 132 131 152 194 212 215 216 210 144  32  34  34  34  34  34
 112 107 105  83  47  35  32  31  29  30  29  25  13  12  18  34  39  77 117 137 153 160 154 164 164 169 168 177 181 181 170  88  83  94  86  75  75  84  89  94 102 101 101  89 111 114 107 104  94  85  75  68  60  75  58  72 159 181 188 178 180 175 173 167 163 161 158 146 146 132 114  97  75  55  37  79 127 133 135 154 196 215 216 187  75  29  34  36  36  34  37  37
 114 112 126 117  85  52  41  31  28  32  30  24  14   9  22  51  33  62 103 128 148 148 155 158 162 169 163 180 182 185 174  71  91 154 147 122 110 121 131 130 142 144 145 153 152 146 131 122 117 108 107 101 127 134  78  64 156 184 187 182 182 177 172 166 165 159 155 148 144 124 102  86  59  46  39 103 124 133 137 161 202 208 136  31  36  35  37  36  32  34  36  36
 103 111  94 135 133  87  83  49  33  31  28  25  15  10  33  94  32  45  78 115 135 137 147 154 158 167 166 179 184 185 185 103 109 173 168 153 135 133 128 124 138 154 150 151 157 145 139 119 133 122 138 145 155 163 139  78 139 190 189 180 180 176 171 166 166 159 140 147 133 123  82  70  46  39  47 113 125 132 140 170 173  68  31  32  36  33  36  35  36  31  34  32
 126 170  96 102  90 112 108  91  59  41  33  26  15   9  45 120  46  34  60 110 122 132 137 135 150 163 163 175 183 187 188 164 120 184 172 165 158 154 154 144 142 157 149 158 153 148 142 141 146 152 155 155 157 165 174 139 157 185 191 184 177 174 171 163 162 154 131 137 123 110  66  64  38  30  52 118 125 134 128  78  29  37  35  37  36  37  35  35  36  32  33  31
 177 172 120 115  98  95  91  98  90  70  55  38  17  24  69 120  96  32  51  98 106 104 128 131 141 158 162 172 182 186 180 174 173 165 167 172 168 159 165 165 165 162 164 157 162 161 166 161 161 157 164 165 167 177 181 166 175 189 191 184 172 169 170 157 134 148 133 128 100  93  64  47  36  30  66 122 118  84  21  24  32  33  33  35  36  36  35  35  32  31  30  32
 131 141 172 111 115  95  91  98  92 101  86  57  34 109 119 117 105  31  37  67 102  93 111 121 141 150 165 171 179 183 168 179 182 181 174 175 169 166 164 168 164 150 142 141 142 158 165 166 163 167 170 168 171 180 183 175 168 183 191 183 167 157 158 147 147 110 141 116  81  69  70  38  38  26  95  86  20  10  20  28  38  36  36  33  38  35  33  31  33  31  33  34
 204 187 170 166 204 107 107  92 119 117  79  67  41 100 115 115  92  42  37  44  76  90  87 111 121 146 147 156 174 175 170 185 184 178 179 177 176 173 165 166 153 134  95 100 115 152 161 166 170 168 171 172 175 177 181 184 177 184 177 170 147 148 146 132 136 123 107  92  71  60  57  38  33  31  36   9  12  16  24  30  36  38  39  36  33  30  35  30  30  32  33  31
  46 127 187 202 195  95  99  89 118  67  93  86  74  92 126 123  92  44  28  33  59  70  83  78 103 122 135 149 156 160 170 179 183 180 181 181 178 175 175 150 163 122  96  91 111 161 167 170 177 177 177 179 179 177 185 184 182 176 154 159 145 141 132 118 123 113 100  75  80  46  46  28  34  26  23  11  14  19  30  38  36  37  37  34  31  31  34  32  31  32  29  33
  52  45  30 121 192 191 150  71  64  70  94  99  84  76 132 124 104  58  27  27  44  47  75  66  81 103 133 122 125 156 155 169 179 182 182 179 175 176 178 170 172 131  93  81 122 154 177 182 177 169 174 176 178 179 183 179 179 178 144 153 141 129 111  98 109 121  98  48  56  42  31  25  28  20  12  13  17  28  37  39  36  32  34  33  34  35  32  33  33  31  31  31
  46  43  44  45  34  65 150 178 175 131 106 119  87  54 128 124 112  78  26  37  28  46  51  71  62  78 100 120 116 150 143 151 175 179 181 182 181 187 180 189 183 139 103 110 132 175 187 188 186 185 180 179 181 179 174 166 171 170 136 126 129  83 118 100 111  95  63  48  49  33  31  26  28  35  14  16  26  37  37  33  33  31  30  34  31  33  35  31  32  33  29  32
  49  46  48  41  40  37  36  36 111 172 187 169 125  68 103 123  85  84  49  26  22  33  41  61  52  72  84  80 114 126 117 128 168 162 177 176 184 189 193 193 181 127  90 129 153 172 192 193 192 187 184 179 179 170 152 141 141 142 134 101 121  65  98  90  89  62  42  43  36  27  26  24  36  91   8  21  27  29  29  31  34  30  33  34  32  33  33  31  33  33  33  31
  46  51  44  43  45  39  42  37  35  31  38 112 160 153 127 120 113  79  56  27  21  29  38  35  42  63  68  78 111  84 117 126 118 174 176 180 183 189 190 196 180 115 112 106 170 162 187 185 192 189 181 180 180 177 131 109 107 119 117  97  95  71  71  94  68  50  38  34  34  26  24  22  61 120  22  19  25  30  30  32  32  33  31  34  34  33  34  32  29  31  31  33
  46  44  39  44  39  39  39  38  37  41  34  33  31  28  32  43  45  54  53  33  20  19  33  36  38  54  53  78  71  64  97 107 105 143 163 184 180 184 191 189 162 131 106 105 148 146 167 176 184 185 180 177 170 160 137 109  87  79  94  68  85  83  67  64  52  33  32  28  33  21  31  32 105 148  81  19  27  31  29  30  30  32  31  33  32  36  35  35  30  30  33  34
  43  45  36  39  39  37  40  31  36  36  35  36  36  31  22  13  11  21 129  74  18  19  19  28  37  37  47  50  46  57  56  62  95 134 150 177 180 163 174 170 128 170 120 112 119 150 142 158 169 179 172 172 169 166 109 104  62  62  98  68  52  82  50  35  38  28  29  23  22  18  20  60 140 154 135  18  24  33  30  30  34  34  31  32  32  33  33  34  33  32  33  36
  38  41  39  38  35  40  37  36  38  33  33  34  33  30  26  12  23  20 164 119  34  15  17  24  27  27  38  48  81  37  50  53  95  97 140 166 156 131 135 131 126 147 109 119 118 137 100 157 134 175 173 163 160 135 110  77  62  69  70  50  71  55  35  41  35  25  28  27  24  29  27 109 140 168 155  21  16  30  29  31  29  30  32  31  31  31  31  30  33  32  32  32
  32  31  29  34  35  36  32  38  39  33  34  32  33  32  26  21  26  49 182 133  60  15  11  14  24  26  34  37  31  30  40  48  73  91 107 136 104 136 116 120 103 115 111 117 101 115  83 144 116 144 136 160 160  98  78  88  53  37  58  46  45  44  29  28  24  21  21  22  25  32  56 140 161 180 165  60  21  17  31  31  32  32  31  30  32  31  34  34  31  31  31  31
  32  33  32  31  35  32  30  29  31  30  33  29  32  29  30  25  32  91 179 181 137  34  17  12  14  24  29  18  34  32  32  34  56  50 127  94 110 107  94 119  92  88 106  89  95  93  75 122  99 116 125 150 137  90  59  60  42  36  40  36  46  30  25  32  24  27  26  17  14  59 116 185 190 186 168 106  25  14  30  32  32  34  33  33  32  32  31  30  32  32  31  32
  32  31  32  33  31  33  30  26  26  28  27  27  26  29  29  28  32 126 181 185 168  50  23  10  11  21  25  22  24  32  24  25  29  43  89  82  96  80  79  87  61  69  92  81  82  84  71  76  96  92  78 120  96  54  44  52  32  26  33  29  27  25  25  20  20  20  15  23  18 153 154 203 196 187 180 137  25  15  19  31  35  35  33  33  34  33  36  29  33  32  32  33
  31  33  32  32  32  32  31  28  29  29  27  26  27  31  23  27  30 135 182 195 192 104  18  22  14  17  19  23  18  30  17  24  27  33  46  81  66  56  83  63  77  65  66  61  78  65  56  66  79  83  71  93  48  38  45  40  29  26  33  30  21  32  31  24  25  17  24  22  94 187 196 202 198 186 185 150  25  19  15  31  32  32  33  32  34  32  32  32  33  34  30  32
  31  33  31  33  31  30  29  29  27  27  28  27  29  31  25  26  31 140 183 194 202 168 114  31  17  21  13  22  16  15  20  22  21  32  29  55  48  57  50  61  54  47  67  60  49  61  70  65  59  78  53  53  43  29  30  35  39  25  26  28  24  32  34  21  24  30  23  85 172 205 206 205 198 192 185 164  21  18  16  15  23  30  30  31  33  34  33  32  33  32  33  33
  32  31  29  31  33  33  29  29  28  28  28  31  29  26  23  24  32 136 192 194 204 197 167  77  25  14  16  14  12  15  19  15  32  25  27  28  33  38  38  51  43  44  44  57  67  67  51  51  51  46  33  32  36  26  31  35  30  27  25  30  34  32  27  29  18  19  36 183 194 214 206 204 199 194 194 179  23  20  14  15  15  17  20  26  32  32  33  31  31  33  32  33
  31  32  30  29  33  34  32  31  31  30  28  28  25  24  26  26  31 131 196 197 206 206 192 110  24  17  16  19  17  14  16  22  27  17  27  16  24  30  27  27  35  41  38  52  46  43  32  33  25  34  45  30  25  33  31  26  21  30  26  37  34  30  30  33  22  33 114 219 212 214 207 204 199 197 195 179  25  24  17  14  16  16  18  13  18  16  19  24  27  29  31  31
  31  30  31  32  30  31  31  29  26  26  27  25  26  27  24  26  31 114 199 197 205 211 208 197 127  41  23  15  16  18  24  22  17  25  21  19  18  28  27  25  24  25  22  22  27  24  31  27  19  27  31  20  26  23  20  31  26  28  26  30  37  23  30  20  40  77 199 222 219 213 208 205 201 199 196 175  27  21  16  13  14  16  17  17  17  21  20  24  21  21  19  24
  31  36  33  32  29  26  22  23  28  25  25  27  28  26  25  25  31  84 197 199 204 206 212 215 190 135  77  32  18  28  17  18  17  16  18  24  15  18  23  21  23  20  22  22  23  19  20  15  19  29  19  25  20  28  20  24  25  27  28  27  20  41  26  42 130 186 219 221 218 211 209 205 203 202 197 169  22  20  15  14  12  13  20  19  21  19  17  17  17  21  20  22
  32  30  29  20  18  19  18  24  29  29  28  26  27  27  27  30  33  58 191 199 203 206 211 215 216 197 151  73  28  22  21  18  14  12  20  21  16  15  17  19  20  12  15  19  15  14  18  15  19  18  29  24  23  18  32  25  27  25  29  35  38  31  61 185 191 215 223 221 217 213 209 206 203 203 196 163  27  22  17  12  12  16  17  18  18  20  21  17  20  18  18  21
  23  19  20  19  18  19  20  27  29  29  29  30  25  23  27  27  34  42 173 193 201 208 208 213 221 219 199 196  98  32  25  26  14  23  14  14  21  17  13  13  13  12  12  13  16  14  12  17  18  25  18  22  19  27  34  22  28  27  24  27  29  75 225 215 224 224 221 217 215 211 207 208 207 203 195 158  28  21  17  14  14  12  16  18  19  21  17  24  19  18  19  16
  17  21  18  18  20  17  28  25  27  30  29  28  26  25  25  26  32  27 168 188 198 203 207 213 221 225 226 205 194 122  59  39  21  17  14  13  12  12  12  12  12  14  10  16  11  18  11  17  20  25  29  36  34  28  29  24  29  29  34  30  68 204 230 227 224 223 217 216 217 215 211 208 207 202 189 144  28  23  18  15  12  15  17  16  18  17  21  20  18  20  20  20
  18  21  21  20  20  22  29  29  27  29  31  28  25  25  25  29  29  17 172 187 193 198 205 210 217 224 230 229 224 201 161  67  37  22  22  16  14  12  13  16  11  15  14  11  14  23  18  22  18  29  32  42  28  30  24  33  29  32  34 125 187 235 231 229 222 220 218 220 217 215 213 208 205 197 185 111  29  24  17  16  13  14  16  19  20  21  20  21  22  19  20  20
  24  22  19  19  18  26  30  30  32  30  28  27  26  26  27  27  32  18 180 189 198 195 202 207 215 222 230 233 226 227 213 190  99  41  37  35  23  18  21  16  18  14  16  14  21  17  20  23  38  27  50  28  30  32  30  50  37  65 163 223 233 233 231 226 224 218 218 221 219 217 213 206 205 191 187  88  30  24  20  18  16  15  15  18  19  21  24  24  22  20  20  21
