P2
# Generated by OpenCV 4.2.0
92 112
255
  59  61  59  63  63  56  55  45  39  40  43  43  40  45  47  44  44  42  41  42  41  44  43  46  44  43  47  44  43  48  50  55  45  44  37  50  55  52  45  44  47  48  50  49  36  44  41  41  38  34  40  43  44  44  46  46  46  44  60  84 103 106 110 118 121 107 116 111 101  96  60  39  31  37  52  59  72  77  74  79 100 115 132  94  73  84  73  85  75  68  99 168
  54  59  62  60  55  53  50  45  41  38  40  46  40  41  43  44  42  40  43  39  44  44  45  45  44  46  45  49  46  51  53  53  44  44  50  47  55  57  49  36  44  47  46  45  46  46  45  47  49  47  42  44  41  41  38  42  46  47  42  47  62  94 111 107 117 111 130 117 107 110 100  63  39  35  36  43  49  49  60  76  86  95 118  96  83  74  62  67  87  87 139 116
  56  59  61  56  53  51  51  45  39  37  39  42  42  38  39  41  42  39  41  44  48  48  49  47  44  47  48  43  42  43  48  48  44  48  44  44  45  44  55  50  50  47  39  36  36  40  40  42  47  49  54  51  43  37  43  40  39  39  48  47  40  53  91 109 108 110 133 119 122 120 123  92  69  49  33  35  38  45  55  57  67  70  91  98  62  66  57  66  76  76  84  71
  55  55  56  49  52  52  49  42  36  39  39  40  40  42  39  37  39  43  40  44  50  44  48  50  47  43  44  48  40  38  43  49  46  45  41  40  43  49  43  47  58  53  49  42  41  39  36  34  36  38  46  52  57  50  46  43  42  40  39  42  48  46  50  73 118 102 111 123 133 126 118 121 100  77  57  42  33  36  40  48  50  58  60  71  57  53  51  65  68  67  65  57
  55  52  53  49  53  54  47  42  38  40  38  40  40  36  35  39  42  44  41  45  48  48  54  46  36  31  39  42  41  38  36  39  45  52  51  47  47  51  51  46  47  48  48  43  44  40  38  41  39  37  35  35  40  51  48  44  47  46  41  40  41  43  42  54  76 107 114 119 130 124 122 120 126 104  86  75  52  41  39  31  42  41  55  51  44  38  37  46  49  61  47  44
  53  51  51  48  49  49  42  39  38  37  37  39  39  38  37  41  43  42  44  46  47  52  56  40  28  44  43  43  40  38  38  40  46  47  49  48  49  50  48  42  50  39  42  41  39  42  42  40  46  45  42  36  35  37  46  44  45  46  45  45  42  40  41  49  65  74 120 120 121 124 128 133 135 121 112  94  74  65  66  48  49  44  42  42  42  39  44  43  41  47  46  41
  48  51  51  56  53  52  45  41  39  37  38  38  36  38  39  39  41  41  45  48  46  52  48  43  45  45  42  41  42  41  42  40  37  38  39  38  39  45  43  38  41  37  36  38  36  39  39  38  41  37  42  39  39  31  37  41  40  45  49  52  49  42  41  48  56  69  92 121 127 135 135 127 129 131 121 112 111 102  97  88  71  63  66  59  58  64  63  56  51  56  54  65
  51  49  57  60  54  51  45  40  38  38  39  37  34  39  37  40  45  42  43  48  50  48  49  49  39  43  43  38  31  26  28  28  26  32  38  33  29  35  41  39  38  39  35  32  33  35  37  36  39  34  34  39  37  41  43  43  39  44  51  57  57  54  40  41  50  64  84 109 121 127 125 130 122 142 129 136 123 128 118 121  97 107  89  77  73  74  74  79  76  76  87  88
  49  51  67  61  54  51  43  37  37  37  38  40  36  37  40  40  41  39  46  44  43  44  37  54  52  47  39  36  38  34  36  38  38  34  35  31  33  29  32  34  36  36  35  28  29  30  34  34  39  42  33  27  40  49  45  50  41  45  45  55  55  58  53  44  47  64  74  97 115 142 136 135 139 127 126 145 136 130 133 136 122 119 115 111 102  98 106 100 103  98 113 103
  53  64  68  57  55  50  43  38  37  37  37  36  38  40  42  42  38  44  47  40  35  42  45  43  46  47  45  43  41  39  40  41  41  44  40  38  32  30  27  28  32  32  36  35  29  28  35  27  39  40  46  41  24  25  33  35  39  44  53  53  52  47  47  46  45  56  72  84 101 130 137 134 146 129 135 142 139 150 139 132 136 136 136 120 123 113 127 122 124 118 123 120
  63  68  62  55  57  53  44  38  38  37  37  35  40  42  39  43  39  48  44  36  33  34  37  37  35  34  36  37  39  40  40  36  35  32  31  27  32  29  26  24  28  34  37  37  35  34  36  37  34  37  41  46  55  29  25  26  21  36  52  48  49  47  41  42  47  51  67  81 104 106 119 130 138 124 140 143 145 145 138 142 149 146 141 141 138 136 134 133 131 127 124 125
  62  66  57  58  58  54  44  35  38  38  38  37  40  41  41  48  46  42  39  34  35  38  33  30  34  30  30  27  24  27  31  32  31  28  27  27  28  26  26  27  27  28  35  37  36  38  38  39  48  42  45  52  53  44  41  23  16  27  41  44  40  46  36  36  40  46  59  76 104 114 112 121 142 119 131 138 148 143 157 153 149 151 146 150 141 137 138 147 136 133 141 142
  81  63  57  63  65  53  46  39  38  37  37  38  41  44  41  41  45  32  29  29  34  36  37  36  33  30  19  13   8  11  15  14  29  28  25  25  28  28  32  30  29  30  28  33  40  46  47  40  40  45  43  52  51  49  40  36  22  19  38  39  31  42  32  28  36  40  46  70  92 103 123 123 124 140 147 144 147 154 151 155 143 143 148 157 141 142 140 150 136 132 130 132
  76  66  60  71  62  53  46  39  39  37  38  40  41  42  42  43  37  35  36  36  36  36  39  40  37  30  26  28  23  19  21  23  20  24  26  29  26  26  29  31  31  30  37  31  38  50  52  47  37  38  31  29  45  49  41  31  31  22  33  33  28  34  31  25  33  34  39  50  65  67  77  98 131 125 146 146 138 137 144 149 137 131 131 132 128 124 130 146 161 185 191 209
  71  74  69  70  66  56  47  43  40  44  44  41  42  44  44  39  38  38  36  37  37  38  42  42  42  39  37  37  32  30  24  19  19  20  28  33  33  28  31  39  42  38  32  34  42  42  54  45  33  27  32  20  29  40  44  30  34  19  28  34  26  31  34  24  31  32  35  42  45  41  43  49 101 117 126 138 151 177 100 133 197 189 187 199 205 203 189 201 181 181 170 186
  64  64  81  78  64  58  51  44  42  40  42  44  46  46  40  35  31  36  36  33  34  39  43  43  40  39  33  26  21  26  26  26  24  24  35  38  30  36  37  39  32  33  33  36  33  46  45  37  30  22  21  21  17  29  46  39  27  23  28  33  32  31  39  27  29  27  30  35  42  42  43  42  41 116 156 163 160 189 156 179 195 195 188 184 169 176 179 181 185 180 184 192
  74  70  79  80  63  59  56  49  42  46  47  45  43  39  32  29  26  24  23  36  38  40  41  39  30  26  24  25  26  27  29  31  30  31  34  41  35  29  35  51  35  27  23  26  32  35  32  37  28  21  20  20  19  26  31  41  28  27  28  36  35  37  41  45  43  36  34  31  43  51  42  34  36  59 155 171 167 180 180 183 175 182 164 161 158 168 167 173 192 196 185 194
  69  72  83  94  75  63  57  47  41  47  47  46  38  29  21  18  13  24  39  36  25  21  22  23  22  20  28  40  50  56  59  58  61  56  46  40  36  31  26  42  48  39  30  29  25  26  38  29  34  27  24  24  25  26  34  33  33  30  33  42  43  43  52  64  56  59  44  31  42  53  53  42  38  15  99 170 171 181 187 177 164 173 194 192 182 182 183 180 185 183 190 209
  66  77  89  96  69  66  60  51  44  46  51  47  30  21  19  20  26  34  25  11  16  23  26  28  33  50  65  80  99 112 112 107 104  99  74  54  48  35  31  32  42  41  39  31  39  44  35  33  36  36  29  34  37  34  38  37  36  37  45  52  67  66  70  87  88  98  86  50  42  59  52  46  38  28  41 179 180 181 144 173 160 169 194 205 196 183 187 198 204 172 194 212
  73  84  82  88  64  72  62  55  47  48  52  55  29  20  24  24  18  12  15  19  21  24  25  35  66  94 105 121 131 134 136 137 141 140 129  96  66  53  39  38  54  63  56  46  36  55  63  50  46  50  47  48  55  59  57  56  45  53  64  65  72  82  91 113 135 134 134 100  49  45  56  44  38  35  15 128 188 168 176 165 149 171 193 165 189 197 186 214 204 147 180 206
  79  82  84 100  78  70  69  58  52  52  62  60  37  21  19  11  15  20  25  27  27  27  37  74 103 119 132 137 138 141 145 152 156 157 161 153 122 105  92  72  69  80  82  82  75  72  74  80  71  77  76  84  77  96  87  80  72  86  86  82  93 113 126 145 150 158 151 133  92  51  56  58  41  35  27  39 199 208 124 196 169 184 213 168 175 184 190 173 187 192 143 180
  81  83  87  89  69  75  72  64  51  52  66  43  23  21  11  11  21  30  34  33  27  38  75 104 120 134 138 140 146 151 159 161 166 168 164 166 158 138 140 139 121 118 119 116 122 116 107 109 106  98 102 120 122 122 126 109 106 117 107 112 131 133 154 160 161 167 162 151 129  74  46  48  48  34  29  17 107 215 152 163 158 209 188 168 174 191 191 169 185 182 156 204
  80  83  81  81 100  76  80  66  57  59  61  51  29  12  11  22  33  42  44  37  38  63 104 122 131 141 145 144 149 156 164 167 166 169 165 161 156 156 151 150 148 155 163 155 148 150 151 151 151 146 148 146 138 137 140 133 134 143 150 154 160 164 170 168 171 168 165 159 144 112  52  52  47  41  31  30  30 162 206 201 201 198 192 180 204 180 145 163 169 161 176 159
  78  86  84  93  97  73  77  70  59  62  57  62  32  14  20  32  37  39  40  39  50  96 130 138 145 148 151 152 154 158 160 164 166 168 168 165 164 158 161 162 161 164 162 163 166 170 168 174 172 163 161 162 164 161 156 156 160 166 171 169 171 172 175 168 164 168 167 164 152 139  82  42  51  45  31  27  25  72 170 160 173 183 170 168 198 184 171 203 180 162 173 155
  88  80  98 102  87  91  82  77  63  60  58  64  36  15  22  32  37  38  53  52  80 123 138 151 158 155 152 153 152 156 160 165 163 164 163 161 164 164 163 165 163 169 169 173 180 181 180 183 179 177 181 176 175 173 173 176 177 176 173 174 175 175 173 173 167 164 165 165 153 148 113  50  45  47  36  23  28  15 161 148 165 150 174 165 170 160 148 191 161 146 169 124
  94  81  94 114  98 104  90  88  68  57  51  56  27  15  20  30  34  47  61  66 107 143 150 165 162 159 156 156 156 158 163 162 161 165 161 164 165 166 169 168 171 175 179 179 183 188 187 191 187 183 186 184 180 180 176 177 175 175 175 174 174 172 170 169 167 163 162 163 159 147 134  84  39  43  40  29  20  24  57 152 150 154 149 145 182 129 113 182 110 123 116  96
 104  95 102 104  98 102  90  83  70  57  54  46  14  14  21  26  36  50  63  91 132 149 152 160 160 157 160 158 154 154 156 158 156 158 158 161 164 164 169 173 176 177 183 183 185 188 187 190 191 188 187 184 184 183 181 179 176 175 173 173 170 167 166 165 165 162 160 162 158 154 138 117  51  49  37  33  18  30  16 121 159 148 135  98 178  97  97 152  99 117 110 110
  93  95  92 110 120 109  89  79  66  54  47  31  10  13  22  25  40  52  77 117 139 151 154 161 160 159 158 158 156 154 154 156 158 157 160 161 164 173 174 178 173 177 182 184 185 186 186 187 186 189 188 182 183 183 182 180 180 177 174 172 171 165 161 163 161 161 159 158 158 151 145 141  79  51  47  26  26  22  17  42 119 104 108 103 160 102  87 158 103 119 109 101
  93 108  98 106 114 110  91  76  68  56  37  18  14  15  16  30  42  62 102 129 151 157 155 156 160 160 158 156 154 155 156 153 157 155 158 159 158 166 178 181 176 176 182 184 184 185 185 185 184 187 184 183 180 179 183 177 177 177 171 169 173 167 165 166 163 161 160 157 156 151 148 145 121  47  53  39  27  17  25  37 109  90 103 130 150  92  95 161 118 113 115 104
 107 112 106 106 112 108  97  74  74  62  36  13  12  17  24  26  44  74 117 144 160 154 157 152 159 161 158 158 153 155 150 152 153 156 159 157 159 165 175 179 176 177 180 186 189 190 191 188 184 181 183 183 180 179 178 179 177 179 174 174 171 171 167 166 162 160 158 156 152 150 155 150 143  78  49  43  30  17  24  37 100  90  92 163 159 102 119 134 112 121 126 113
 109 117 112 101 114 108 110  82  74  64  35  20  17  16  19  34  54  92 121 152 164 153 154 156 156 155 153 153 147 148 150 150 151 154 159 159 161 168 170 176 176 175 180 183 183 186 187 192 186 179 183 180 176 177 178 180 174 175 172 170 172 169 164 164 160 157 158 158 153 151 149 147 145 110  52  47  37  26  20  30 143 147 136 148 145  88 128 111 101 109 107 113
 103 106 104  96  94 102 118  93  74  71  49  19  13  18  22  39  63 102 131 159 162 154 153 151 151 150 152 150 145 142 142 143 147 150 155 158 164 167 166 168 171 173 174 175 179 181 183 186 181 182 182 174 179 178 177 175 172 173 171 167 168 168 165 161 160 156 155 157 152 152 151 151 151 137  66  45  33  30  27  30 151 154 157 141 182 145 166 134 114 104 111 125
 116 115 112  97  93  89 106 103  82  72  58  16  16  19  30  47  71 107 144 158 156 153 150 148 146 148 151 148 146 143 140 140 140 143 150 152 161 167 171 172 174 174 177 176 176 178 183 183 180 181 179 175 174 176 176 174 171 170 167 165 166 165 163 158 157 155 153 156 150 148 150 148 151 151  89  50  32  28  25  16 113 141 165 129 166  97 159 128 144 132 145 148
  98 120 119 102 102 103 119 116  90  77  58  15  16  17  32  51  83 119 140 151 146 147 148 146 142 144 151 148 145 143 144 146 143 145 148 154 158 164 169 170 172 177 174 172 172 174 178 179 178 177 180 177 172 174 177 172 172 170 166 163 162 161 161 157 155 154 155 155 151 146 149 149 150 152 111  56  31  36  34  17  59 124 133 119 161 117 138 105 118 130 152 129
  90 116 126 113  94 111 109 101 102  95  64  13  16  19  40  58  95 133 145 146 143 145 146 144 144 148 144 144 148 148 146 145 147 145 146 149 156 161 166 170 171 173 177 176 178 174 172 175 171 173 176 173 172 173 174 171 166 166 164 162 159 159 160 156 154 154 153 154 151 146 148 147 148 150 129  66  34  33  38  45  47 112 115 133 126 119 108 116 117 126 115 129
  95 111 127 124 110 116 119 102 101 101  61   9  13  23  41  67 103 129 138 142 141 144 142 142 143 142 142 146 150 146 147 148 149 147 151 151 154 160 161 164 168 168 170 172 174 175 173 177 174 171 170 170 171 168 162 165 155 158 162 156 156 156 156 155 154 154 153 151 149 149 146 145 147 151 138  77  40  27  30  74  61 137 116 150 109 144  84 110  96 100 102 104
 108 102 117 111 102 118 119 101 105  96  49  15  15  25  43  65 107 123 130 137 139 143 141 139 139 144 144 148 148 144 147 148 151 148 152 154 160 166 165 164 169 168 169 170 175 172 173 176 175 170 172 173 173 171 164 166 161 163 159 157 154 155 156 154 154 155 155 152 148 147 147 144 144 145 139  87  39  23  30  73  83 132 126 139  93 140 100  99 106 113 107 113
 104 107 106 119  92 112 102 111 103  98  40  12  19  24  42  69 107 118 128 132 136 141 140 139 139 142 141 145 146 147 150 153 154 151 155 158 156 160 164 165 167 165 169 170 173 172 173 174 171 169 172 173 170 171 171 170 163 163 161 159 158 157 156 157 154 152 152 148 149 149 148 145 144 143 135  98  44  24  26  46 112 130 140 111 110 124 110 105 113 116 113 110
 111 123 100 103 107 115 105 103 112 117  28  14  20  25  38  76 104 122 125 132 133 137 138 140 142 140 141 144 144 149 151 155 157 154 155 159 160 161 167 171 168 166 171 170 174 175 178 176 170 174 174 173 172 172 172 168 168 167 163 161 164 161 159 157 155 151 151 150 150 148 148 144 141 139 131  96  44  25  22  37 122 117 122  95 138  92  94 102 113 103 106 111
 116 112 110 110 111 123 124 107 125 107  29  10  19  19  33  74 100 118 127 131 133 138 138 139 139 143 142 144 145 150 151 156 160 158 159 163 163 162 168 169 171 171 173 175 174 173 174 176 176 179 177 174 175 175 172 174 169 170 168 167 167 168 163 161 156 153 150 150 149 145 144 142 137 135 133 101  44  27  26  63 131 124 118  96 180 174 162 142 119 163 127 154
 119 128 119 106 114 114 117 121 114  80  29  15  16  21  37  77  99 120 129 131 133 137 139 139 135 140 143 143 148 150 150 154 158 155 158 160 164 170 176 178 174 177 181 182 179 177 177 175 178 177 179 177 175 175 177 180 175 171 174 171 168 167 168 164 161 156 154 152 147 147 141 138 135 134 134 103  45  32  21  78 109 128 100 146 126 123 107 123 155 138 125 145
 133 121 139 128 125 120 121 122 136  94  30  14  12  20  40  76  97 122 128 132 132 134 138 141 139 141 146 145 147 150 154 156 161 160 162 154 157 164 167 175 179 183 179 177 179 178 176 170 176 175 180 179 176 177 182 184 181 176 178 177 170 165 165 166 164 159 155 152 146 144 142 139 139 138 142 112  50  34  22  75 100 104 121 148 121 126 135 151 129 125 142 121
 133 129 129 134 119 115 113 128 149 110  35  12  14  22  41  74  94 124 128 129 131 135 134 137 139 141 146 146 150 154 152 154 153 149 149 153 154 165 164 172 176 173 181 182 180 180 179 176 178 175 178 179 175 178 184 179 179 174 173 177 171 167 169 168 165 165 162 157 151 145 143 139 137 138 139 117  53  32  23  74  92 138 156 106 112 118 124 129 118 133 131 118
 136 143 133 128 126 142 124 117 143 106  42  12  19  24  41  75  99 125 124 126 128 132 132 137 142 142 147 153 152 145 140 137 133 134 133 135 130 136 159 161 177 174 178 182 181 180 179 178 177 177 179 182 180 178 180 170 170 166 167 167 163 167 165 163 163 162 162 162 155 146 143 140 135 138 136 117  54  31  40  76 104 120 154 119 118 110 113 118 100 107 132 109
 141 150 137 138 139 132 134 123 118 101  60  14  21  27  40  74 102 124 123 126 128 132 132 132 140 142 145 150 139 116 116 112 102  98  94  97 102  96 111 123 132 151 165 176 180 185 182 179 183 182 177 181 175 168 169 160 163 166 163 162 162 160 163 161 158 159 165 162 154 147 145 141 137 139 136 118  50  30  42  88  97 151 117 133 122 121 130 106 136 125 120 100
 142 145 143 138 142 140 130 131 115  99  64  14  25  26  41  69 105 121 129 127 124 132 134 131 138 147 144 140 127 109 106 105  91  77  73  80  79  73  78 102 107 118 148 167 175 188 183 182 183 179 173 179 168 155 154 138 140 134 142 135 143 146 145 147 140 144 153 160 155 147 143 140 138 136 136 120  46  31  47  83 112 134 122 136 126 111 127 156 153 125 129 130
 141 142 122 129 137 139 134 136 112  83  69  22  19  29  38  67 103 120 133 129 125 127 129 131 140 143 128 116 100  93  96  93  87  86  95  88  77  81  84  96 110 122 134 144 156 179 178 179 180 173 170 165 155 138 138 122 100  93  83  84  80  92 115 116 112 112 119 136 149 142 138 137 136 138 139 121  50  36  66  99 114 134 125 120  99 121 127 118 124 125 137 132
 150 150 132 123 129 115 124 125 118  76  71  22  26  35  40  69 105 121 131 129 127 123 124 131 134 122 103  97  99 103 118 128 132 133 135 137 129 119 120 114 123 128 131 137 153 169 164 173 171 170 167 162 148 131 128 115  92  77  67  72  69  64  77  99  98  86  90  95 114 126 133 133 133 138 139 129  49  40  76 119 131 115  96 104 124 151 122 131 119 125 114 116
 146 144 135 117 146 128 115 125 121  78 127  62  27  32  38  68 106 120 126 129 129 125 124 127 124 111 105 107 110 127 136 137 140 138 138 134 139 130 131 124 125 135 134 139 149 160 161 162 164 162 160 157 147 134 123 118 102  89  84  76  77  82  74  77  80  82  70  84  92  99 116 138 133 138 141 137  55  39  55 127 106 130 118 104 107 117 108 129 137 132 114 130
 151 152 152 140 130 123 133 139  99 103 151 117  30  34  39  67 106 121 128 129 130 127 117 109 111 113 111 117 124 131 134 136 140 140 132 132 123 129 120 123 121 120 125 132 145 153 159 162 161 156 156 157 147 135 121 121 119 122 126 132 131 128 125 128 125 112  94  94  94  98 123 135 138 140 140 135  57  39  81 128 121 122 107 131 146 132 118 106 116 111 119 103
 148 149 148 152 142 108 126 135 113  86  90 127  44  35  38  66 110 121 128 128 128 129 122 119 113 119 121 118 120 127 130 113  98  96  93 105 101  94  92 103 114 115 116 120 133 148 155 165 165 166 159 154 137 119 119 122 126 127 124 128 125 135 138 135 136 133 132 118 112 106 104 123 139 141 140 134  62  44 118 116 128 128 132 123 119 115 126 119 143 124 144 170
 143 147 142 153 148 119 127 132 114  97 112 100  79  36  39  71 116 124 127 130 133 131 127 125 118 119 113 111 115 107  82  70  76  67  63  89  79  91  95  80  92 111 125 118 127 138 154 167 170 172 161 149 126 115 123 116 102  93  96 104 107 109 105 104 103 124 128 132 122 119 122 130 137 141 142 133  73  86 106 114 152 177 163 142 121 152 118 125 114 116 132 143
 148 146 141 151 160 134 129 122 118  88 133  95  93  56  39  73 115 124 129 132 132 126 128 126 127 123 115 107  93  70  68  47  82  42  44  38  47  86  89  87  95 102 124 123 126 134 153 167 173 176 162 143 122 119 115  95  95  97  74  57  50  42  66  76  92  83  94 118 125 126 130 133 139 143 143 135  83  92 119 116 120 140 147 175 140 143 135 125 139 140 130 116
 143 143 143 148 140 148 145 113 113  80 127 128 100  72  46  74 116 130 133 135 133 132 133 129 128 123 117 102  89  63  45 115 125  35  40  61  36 113 158  93 100 127 144 131 129 130 154 169 172 178 168 147 122 128 130 113  95  92  35  46  40  39  81  89  41  64  81 105 119 133 136 139 141 137 135 141  78 100 134 157 165 133 125 108 144 120 134 134 136 141 136 125
 138 144 151 150 138 145 139 126  94  62 135 151 139  96  59  70 124 127 131 132 133 134 137 136 126 121 110  90  75  58  73 112 125  65  40  52  59 133 134 109 104 119 162 141 134 131 149 164 170 173 167 152 133 144 137  84 118 145  54  43  29  44 119 134  90  53  64 105 110 134 138 145 148 147 138 139  89 101 138 137 142 121 144 137 118 112 111 124 136 136 184 137
 151 163 149 150 152 162 143 136 108  53 139 144 136 133  66  68 126 128 132 134 136 140 145 143 136 124 108 103  99  94  94 104 110 117 122 129 127 124 121 119 125 140 150 139 137 136 151 166 167 173 171 161 138 146 145 118 114 126 116 112 112 107 122 117 101  95  89  95 113 132 142 150 149 142 137 134  94 112 142 120 119 147 128 123 140 163 152 103 100 100 125 122
 149 184 150 141 150 170 140 143 138  71 144 127 144 142  88  60 124 127 130 131 138 143 146 150 146 136 132 133 128 123 117 115 121 116 117 123 127 126 126 117 123 144 143 141 135 133 148 166 164 169 174 161 141 139 146 134 120 118 125 130 127 122 118 122 118 127 128 134 131 143 152 156 150 143 136 139 100 117 154 161 133 115 118 128 136 144 115 124 125 145 136 118
 167 169 158 141 151 155 150 129 127  92 138 125 157 145  95  59 120 128 132 136 139 142 150 154 153 147 145 144 136 138 130 119 115 124 130 129 128 126 131 139 151 153 145 142 136 139 142 159 163 164 168 158 148 141 143 143 141 136 133 137 136 141 140 131 133 142 146 148 154 151 154 157 151 144 130 134 111 135 151 154 145 138 140 117 140 130 149 124 130 142 120 128
 135 145 154 136 147 158 155 132  85 112 110 141 171 155 110  64 119 128 131 136 138 146 149 155 155 154 151 148 150 148 143 135 138 138 143 149 150 156 161 166 166 154 144 139 137 136 133 150 159 164 162 152 149 147 145 150 154 158 158 150 148 145 143 141 142 148 153 151 153 155 155 155 152 142 130 137 115 142 142 149 138 153 139 122 109 123 130 132 118 158 129 100
 134 138 159 152 143 160 153 133  95  89 102 140 173 169 145  69 118 126 136 138 140 146 151 153 152 153 156 159 159 153 151 153 158 161 159 159 161 162 169 169 164 150 141 136 138 133 130 145 155 162 159 147 148 150 144 151 157 165 163 164 167 162 159 159 156 155 157 153 154 156 158 150 151 140 132 124 131 139 119 142 146 148 136 120  97 113 140 130 142 124 105 124
 144 133 117 161 155 152 153 139  91  75 101 131 167 160 158  82 114 122 132 138 140 141 148 148 150 151 160 159 157 153 151 150 154 153 152 152 152 156 163 163 155 147 142 141 138 131 134 149 155 161 154 149 139 151 150 143 152 158 160 158 161 160 161 160 155 153 157 156 154 155 159 153 153 143 132 126 131 138 136 142 140 151 131 133 108 113 152 147 141 141 113 150
 151 147 125 147 151 155 149 153 107  70  90 128 159 148 148  99 120 126 128 134 131 142 146 148 151 147 149 150 151 156 154 156 158 154 147 145 146 152 157 153 153 148 147 149 134 130 139 155 160 165 163 156 144 147 161 154 152 156 159 159 152 156 154 152 150 150 156 157 159 156 159 160 154 145 138 131 132 127 137 135 135 148 139 131 108 114 136 145 133 148 150 142
 140 152 134 143 153 151 151 157 123  70  78 115 153 146 130 104 118 126 131 137 134 141 142 149 152 148 148 152 151 153 157 162 163 156 149 149 150 150 154 160 157 157 156 140 130 133 141 152 163 167 167 160 152 144 155 166 156 159 161 161 160 157 154 156 156 156 158 159 162 159 162 161 156 148 142 134 121  86 133 153 135 125 140 128 126 121 152 143 135 135 135 158
 141 142 141 125 145 159 145 154 132  74  73 118 139 161 128  97 110 127 136 137 141 140 141 143 144 149 148 155 149 148 157 160 162 155 149 150 154 152 158 164 165 161 143 130 129 144 146 158 165 169 166 161 155 143 139 145 156 161 163 160 152 156 159 156 158 158 162 159 161 164 164 163 158 154 142 135 113  95 115 122 141 138 126 126 133 127 146 135 146 150 138 154
 143 150 136 148 124 137 153 153 140  92  78 121 152 141 156 118  98 129 136 133 140 137 142 145 145 151 150 147 150 157 158 162 162 155 156 159 159 159 160 162 163 136 126 137 131 147 147 160 164 166 170 165 162 147 146 138 140 165 171 169 158 159 154 156 153 155 160 166 167 166 164 162 160 156 142 138 114 106 127 148 134 132 123 133 126 134 131 149 121 123 151 132
 146 155 136 153 133 135 149 153 144  93  80 114 165 145 152 109  93 127 130 138 137 140 140 143 144 147 152 152 152 154 156 159 158 163 166 168 163 155 149 137 136 118 134 144 133 138 147 161 173 177 185 166 161 147 147 151 131 141 159 173 174 163 157 156 151 158 163 164 166 168 166 158 155 155 151 143 112 113 138 144 142 129 115 119 127 126 117 125 140 144 143 131
 160 159 136 148 146 140 152 151 135  91  86 109 163 167 151 109  87 126 134 134 138 141 141 145 143 145 150 152 156 155 154 159 156 165 174 173 153 138 132 119 129 113 128 135 126 132 138 153 185 180 173 158 139 130 135 142 126 120 140 156 172 165 151 158 157 158 163 166 165 165 166 159 156 155 151 144 116 108 143 134 132 119 113 124 150 145 120 125 135 112 125 148
 153 160 151 147 160 149 154 159 135  90  91  97 158 170 154 114  75 122 136 136 138 141 140 145 142 145 147 146 153 154 156 155 155 166 175 163 138 132 115 118 137 117 108 108  96  96 106 128 145 150 143 133 101  91 100 120 114 115 119 130 144 160 151 151 154 153 157 165 168 164 163 161 157 156 151 140 115 115 153 131 122 124 128 119 137 147 146 125 125 138 138 141
 157 144 155 147 158 158 147 143 147 107  95  86 148 163 158 115  71 110 129 133 138 134 138 145 141 143 145 147 151 148 150 150 151 159 168 150 128 118 109 139 138 137 116  92 100  99  81  95 117 129 117  94  91  94  89  94 122 124 115 121 133 144 154 147 148 149 153 162 165 163 157 157 156 153 149 141 116 115 160 150 113 127 130 131 127 131 131 134 127 134 132 150
 162 142 153 157 148 156 152 145 137 107  91  82 137 159 164 127  58  93 130 136 136 135 138 141 141 142 140 143 145 142 144 148 152 155 156 139 117 105 125 143 140 133 127 116  97 110 108  90  88  92  88 101 107  98 106 123 133 136 134 116 122 134 146 149 145 146 149 156 159 160 156 154 153 152 149 144 113 100 150 141 116 122 126 138 123 114 112 126 139 136 145 144
 167 158 164 157 153 147 143 163 160 118  95  80 128 161 162 134  54  83 125 130 132 136 137 138 140 140 140 137 138 140 142 143 149 153 147 126 120 107 138 139 130 112 108  78  70  76 103 111 111 107 112 112  89  68  83 103 119 136 139 117 111 126 144 148 138 143 148 155 153 154 147 147 153 151 147 140 108  84 128 130 122 112 117 121 111 109 109 118 123 131 141 141
 156 151 162 165 153 154 163 150 153 132  89  82 108 145 153 144  62  76 115 125 133 134 136 139 135 137 140 133 132 135 136 139 142 145 138 130 108 125 141 123 111  94  73  56  54  49  77  84 110 124 116  81  71  52  52  61  88 114 135 123 111 127 140 145 141 144 147 153 152 144 145 146 147 149 144 139 108  79 106  97 103 105 111 117 113 105 103 104 103 126 132 134
 161 152 152 153 147 160 154 148 145 138  95  85  90 125 139 149  71  70 107 122 125 130 138 139 136 138 138 133 134 137 137 137 139 139 140 124 114 142 119  97  88  73  60  61  57  61  65  77 127 155 144  97  64  53  50  55  62  78 112 132 112 119 138 143 142 139 142 144 141 138 142 145 144 146 141 136 101  75 111 100  99 121 118 119 126 120 112 110 103 110 119 100
 146 146 154 158 126 126 143 139 134 143 103  83  73  99 112 129  72  57  94 118 118 123 133 136 138 138 139 132 132 132 134 138 138 140 134 118 124 124  91  75  69  60  61  59  60  68  82 133 153 151 150 130  99  65  55  49  56  66  71  99 116 107 130 140 138 142 139 140 140 141 143 146 149 150 142 135  95  78 136 112 111 117 115 115 129 127 112 114 116 102 101 107
 151 153 154 153 145 144 150 130 119 135  98  70  85  75  73  95  72  51  82 112 120 129 134 136 140 139 138 137 132 131 136 137 139 138 129 114 117  90  77  83  87  82  82  62  59  81 115 147 149 153 143 135 120  91  52  57  52  72  62  59 102 106 121 134 133 141 143 137 132 136 141 149 147 145 137 125  76  90 139 127 129 127 118 122 123 132 131 119 118 103 121 110
 153 152 158 160 150 129 154 132 132 135 101  78  72  77  70  73  70  40  69 104 120 129 132 132 139 142 142 140 133 131 134 143 144 142 132 121  87  88  88  93  96  96  89  82  84  95 102 113 123 115 109 110 100 104  88  64  56  68  68  50  73  97 116 137 139 139 141 136 136 138 143 145 147 144 135 118  69  83 133 137 124 127 102 118 118 124 124 113 110 103 120 117
 162 162 153 158 165 159 140 130 136 138  95  81  71  70  67  71  65  50  50  94 113 119 127 131 138 143 147 145 137 135 134 146 149 148 140 138  79  73  62  63  69  71  97  79  84  87  84 104 105 101  92  92  92  92  87  91  74  72  69  62  57  88 114 141 144 146 141 139 142 144 148 150 145 140 128 110  57  95 114 143 133 117 123 131 111 121 128 123 121 107 118 118
 154 159 156 159 149 154 146 121 122 140 101  74  81  73  59  72  63  53  54  81 101 111 126 136 137 144 148 148 139 142 142 145 157 163 156 133  67  66  57  83 127  84 158 130 123 145 130 183 182 144 136 158 144  89 111  74  61  31  37  79  66  83 117 149 150 155 148 148 148 146 151 150 146 135 127  96  54  98 123 151 151 139 137 126 144 142 134 122 128 129 116 125
 149 152 156 159 152 157 159 133 135 126 110  80  81  73  69  81  72  68  45  64  88 103 123 126 135 140 148 149 142 142 143 149 165 173 167 133  67 101 111  77 102  69 159 179 151 169 168 195 187 184 186 190 179 163 167  93  77  56  72 109  84 111 133 157 155 155 153 153 151 152 149 152 145 125 116  74  50 123 130 144 152 154 163 143 138 155 127 116 124 144 145 141
 151 158 163 160 151 157 158 150 144 116 114  82  82  81  84  94  78  76  39  53  75  92 111 122 132 138 145 144 143 142 145 153 162 172 177 156 107 132 139 115  96  87 118 117 107 128 145 199 192 176 189 182 157 130 116  88  73  81 114 137  99 136 156 162 157 157 153 152 151 148 152 150 124 129 106  54  48 143 168 141 150 153 150 143 122 136 142 133 127 132 131 140
 136 154 160 161 160 154 129 148 151 129 111  79  75  76  90  84  83  85  41  40  62  82 100 118 131 133 147 146 140 142 146 149 160 172 178 160 144 152 149 143 121 111 111 116 111 109 121 132 142 128 138 136 129 122 115 105 102 122 141 148 138 156 175 165 160 161 159 155 150 146 144 138 129 119  86  48  54 142 174 173 151 144 138 143 130 139 154 151 131 119 142 154
 158 153 157 168 172 156 149 152 139 135 102  73  75  84  88  80  81  84  55  35  55  71  90 110 120 142 118 139 137 129 139 150 158 173 177 162 162 167 152 151 140 126 117 118 125 129 134 135 136 136 143 140 135 130 117 115 130 146 148 162 160 152 184 173 160 155 150 149 136 140 138 122 119 100  64  45  68 142 164 177 155 136 137 129 150 183 157 147 153 147 134 146
 152 154 152 158 162 151 156 170 153 140 146  80  96  96  98  90  70  74  69  28  48  52  87  93 117 112 115 113 132 136 135 146 153 168 175 166 171 174 161 156 152 144 134 127 123 130 138 163 152 153 138 128 117 111 124 135 151 153 154 167 165 158 178 170 159 141 143 134 128 131 135 114 103  83  60  39  80 148 161 168 155 153 154 128 131 172 176 156 151 153 149 148
 153 157 159 149 151 145 148 158 152 146 151 113 108 104 103  91  68  68 113  43  34  42  71  88 104 101  99 106 130 131 136 137 150 160 172 169 175 173 163 155 152 151 144 134 127 121 123 135 137 134 121 115 116 125 141 147 155 156 160 170 171 170 175 161 149 124 128 134 127 123 120  89  94  73  50  40 101 158 152 147 145 154 154 149 149 180 182 170 148 136 133 139
 151 166 147 137 157 140 144 155 154 126 119 145 120 121  97  81  61 125 164  51  24  33  54  76 100  91  90 107 116 109 116 130 148 158 160 172 178 178 169 160 154 154 148 150 149 144 138 139 134 134 138 141 147 150 153 152 156 160 165 174 173 177 165 139 135 117 109 119 110 113 116  93  78  49  49  41 114 165 162 162 150 161 154 159 168 167 168 164 154 146 155 134
 150 147 156 135 127 123 158 163 155 133 119 151 132 144 128  98  73 218 129  67  25  32  41  58  79  73  86 107 100  94 109 120 134 138 164 175 172 177 173 169 168 156 149 150 152 148 146 144 143 145 150 152 155 155 152 148 157 165 169 175 174 170 154 128 118 112 108  92  87 105  85  69  57  39  37  50 125 162 166 170 159 163 160 156 175 171 170 161 151 151 141 130
 149 150 142 138 125 134 142 157 151 134 128 126 150 143 132  93 137 202 142  74  36  26  23  30  59  55  79  84  89  79 103 108 120 132 159 151 168 173 176 168 169 164 155 147 149 142 136 119 111 119 127 139 147 150 151 155 160 167 174 176 163 160 139 126 104  95 108  81  74  82  55  50  40  33  31  64 122 159 166 157 159 149 150 158 153 178 174 163 148 143 147 139
 151 158 161 156 135 136 146 154 143 145 137 123 134 164 150  92 202 208 145  87  64  16  18  24  35  44  54  54  79  74 105  83  96 136 144 138 158 171 179 173 174 167 157 154 139 145 129 109  90 109 136 145 152 152 157 162 166 174 171 169 143 125 129 105 101  85  93  76  69  68  48  40  33  31  31  89 116 148 154 145 161 153 142 152 153 175 166 161 151 152 146 141
 165 160 153 158 145 138 155 145 148 147 144 115 138 159 150 113 226 238 128  86  83  28  17  13  22  36  47  50  55  71  89  86 101 134 131 133 156 169 177 181 177 172 165 155 147 147 126 107  84 116 143 151 156 159 162 169 174 177 166 154 117 100 102  74  80  85  84  61  64  52  48  36  28  29  44 113 163 168 164 156 157 150 148 138 157 150 160 166 156 140 175 167
 164 162 147 162 171 150 142 148 153 147 147 107 126 143 154 120 237 248 184  97 109  46  11  14  17  28  38  43  43  51  67  83  94 114 107 122 133 147 179 181 184 180 172 170 164 171 135 125 103 120 177 171 167 161 166 176 177 177 160 161 102  80  81  56  55  75  65  53  46  47  39  31  28  30  67 136 164 174 175 158 153 150 153 167 171 139 158 166 148 152 155 166
 153 151 144 155 166 147 128 147 147 152 155 121 128 148 135 103 236 250 220 156 121  80  15  12  13  18  27  27  34  37  48  62  70  74  88  99 107 137 171 173 185 188 176 175 176 173 144 137 127 136 162 173 173 168 173 180 180 177 157 148 102  59  57  52  44  60  41  46  39  39  26  27  25  35  79 139 172 148 173 154 143 150 165 164 164 159 172 177 159 171 172 171
 150 146 150 150 142 137 113 131 150 145 156 137 123 149  93  98 237 246 237 193 116 108  23  11  10  13  19  35  26  31  36  46  45  66  94  76  77 124 155 173 179 179 168 167 168 158 140 125 115 135 150 170 174 163 171 177 182 172 160 134  89  60  39  51  42  53  38  43  30  36  28  24  29  30  82 129 148 140 156 151 146 149 156 162 158 169 165 168 172 169 174 168
 152 155 143 136 136 111 133 137 139 133 141 120 120 117  52 134 225 240 250 221  98 131  47  12  12  11  17  20  22  23  26  34  47  58  51  56  69  93 138 164 174 176 165 162 153 144 131 136 113 121 130 134 145 164 171 172 175 167 155 105  78  65  36  42  40  32  39  28  24  30  23  23  37  33  44 140 145 158 166 151 144 143 144 146 152 154 153 163 171 165 167 173
 152 155 147 139 121 117 121 129 137 141 135 122 125  72  52 165 224 240 251 247 123 120  82  26  15  12  15  16  23  18  27  33  27  43  31  39  51  72 103 148 161 174 146 150 144 131 115 130 110 124 135 134 124 137 155 167 168 161 144  86  53  66  38  35  25  28  46  24  26  27  28  19  51  35  30  61 146 158 162 178 156 157 153 160 162 152 140 138 154 160 179 181
 160 162 147 125 127 124 122 123 132 134 137 133  91  56  51 172 219 233 247 252 237 127 102  33  17  12  12  14  20  19  21  19  18  21  24  34  49  68  90 126 144 152 121 130 122 125 110 127 110 141 125 112 117 114 132 152 153 148 122  65  59  35  24  28  25  28  27  19  24  24  28  32 136  76  32  37  37  73 138 181 172 153 165 163 175 166 152 149 177 164 175 172
 154 156 144 107 128 138 122 106 128 126 122  81  51  57  40 169 221 227 241 249 249 205 114  86  24  19  11   8  12  18  17  17  16  14  24  34  37  55  75 111 129 121 117 113 116 127 103 128 118 133 108 103 111  79 102 113 126 122  80  45  38  40  24  22  23  22  20  22  24  24  22 103 199 108  34  37  40  42  33  75 129 158 169 176 169 184 175 156 172 175 175 176
 144 150 153 124 120 131 123 110 108  93  55  49  56  52  41 158 219 227 232 242 249 252 187 110  68  28  14  12  17  14  24  21  11  17  21  23  30  49  57  90  94  94  96  91  94 115  82 104  94 116  95  84  86  66  81  85  86  71  47  41  34  30  21  24  28  26  21  17  22  30  46 178 219 142  36  34  39  32  37  35  37  54 100 149 159 172 174 165 176 164 180 184
 145 148 150 123 125 123 122 103  70  50  57  53  54  52  41 136 214 224 230 237 243 244 250 181 110  68  26  13  18  16  29  18  19  16  16  18  22  28  49  49  71  86  81  83  78  82  88  78  77  99  86  69  76  64  69  75  73  43  38  29  30  27  22  24  26  25  20  27  27  27 128 208 229 166  34  35  31  36  37  33  37  38  33  29  43  44  80  99 150 167 169 175
 142 139 133 136 137 125  98  63  55  53  51  51  51  51  44 117 209 226 232 234 237 240 250 251 178  97  53  23  24  31  21  23  21  16  15  18  24  16  33  34  42  63  44  59  57  60  75  77  63  79  66  65  74  55  55  72  54  38  31  30  28  24  23  22  20  23  21  26  29  71 197 225 229 186  40  36  33  35  37  34  36  33  36  37  38  38  39  42  36  48  67  98
 128 142 143 140 111  64  50  53  53  52  51  51  50  51  42  94 201 231 235 236 236 237 243 244 243 203  99  51  29  34  18  17  21  19  18  14  13  19  25  30  21  36  47  52  46  53  53  51  43  56  50  49  56  52  44  43  35  25  21  21  22  20  20  19  22  20  19  28  41 158 224 239 235 201  45  38  37  35  34  35  33  34  34  39  36  35  34  36  36  39  44  44
 148 125  96  58  48  49  56  52  54  53  51  50  51  49  42  75 189 230 236 236 237 237 244 243 246 248 211 121  39  27  24  20  17  16  14  16  19  21  21  26  24  33  34  35  36  43  45  37  38  46  37  35  34  42  29  27  33  26  25  19  20  17  18  25  20  25  26  25  96 211 237 242 238 216  52  44  39  36  31  35  35  35  36  35  36  36  36  34  35  37  37  41
  77  45  47  49  51  50  51  53  52  54  53  53  50  44  44  58 171 224 236 236 237 239 236 241 245 247 245 227 116  30  24  23  20  18  18  18  18  13  18  21  23  27  22  29  31  40  30  23  26  35  29  27  27  28  17  15  21  16  17  15  16  16  18  18  18  24  31 107 203 237 244 245 241 229  77  41  39  36  34  33  34  36  34  34  36  36  35  36  36  36  36  37
  43  48  49  52  51  51  51  53  51  54  55  53  48  44  46  53 146 220 235 238 238 237 239 240 240 244 248 244 180 112  46  26  19  16  15  15  16  15  16  15  20  21  30  28  25  31  25  24  24  26  23  20  20  21  20  16  20  16  16  19  14  16  22  23  24  37  80 181 212 243 246 245 242 234  99  34  39  37  37  36  34  35  36  36  36  36  36  36  37  34  36  34
  47  49  51  51  51  50  51  53  53  54  52  48  45  45  48  48 118 214 237 238 240 237 238 240 241 242 240 234 225 209 102  43  23  17  14  17  13  11  15  13  14  15  23  20  16  20  15  21  25  21  21  15  19  17  15  11  19  16  16  20  17  17  21  28  36  87 190 239 227 236 246 245 244 235 118  33  36  36  38  39  38  35  34  35  36  36  36  36  35  35  36  38
  51  50  50  51  52  50  51  53  55  53  47  44  45  45  45  45  94 207 234 237 238 240 239 240 241 240 243 236 243 244 174  74  33  21  12  13  16  11  12   9  11  11  16  11  15  19  16  23  20  18  20  10  15  18  15  15  20  19  14  16  20  22  26  26  99 173 235 237 242 237 240 244 244 237 135  38  43  36  39  42  42  36  36  34  35  36  36  35  36  36  35  36
  50  50  49  50  53  54  54  54  55  50  45  42  43  43  44  44  71 193 229 236 237 241 240 241 241 239 242 242 241 240 231 134  48  32  21  13  17  11  13  10   8   9  11  13   9  15  13  15  18  18  17  18  18  17  18  19  17  11  15  20  26  20  30  94 195 232 241 241 241 241 244 242 241 236 150  40  38  36  39  41  41  40  40  39  35  36  36  35  36  35  35  35
  49  49  52  52  54  53  54  52  46  45  42  43  43  44  44  46  54 175 227 237 240 236 241 240 241 240 242 242 246 242 246 207 129  66  26  23  24  16  14  10  12  11   7  10  10  11  11  11  20  20  13  11  12  15  16  16  17  19  21  24  24  70 131 191 242 244 245 241 241 243 247 245 244 236 157  45  36  38  39  40  41  46  47  43  38  34  33  36  35  36  36  35
  48  50  50  50  50  52  51  48  45  45  43  42  43  45  45  47  47 152 221 236 239 239 241 242 241 241 242 243 241 242 245 239 211 154  66  38  36  22  17  11   9  12  11  12   9   8  11   8  12  13  12  11  12  19  17  17  21  26  34  44  92 177 226 245 251 247 244 246 245 244 245 246 244 235 163  47  37  38  38  40  45  45  45  46  45  40  39  37  36  35  36  34
  49  51  50  52  54  54  48  45  41  44  43  42  40  45  46  45  45 127 217 236 242 240 241 241 240 239 241 240 241 242 246 247 246 239 164 100  60  48  38  25  17  20  13  11  10  10  11  11  17   6  16  10  21  21  26  30  32  59 113 167 214 236 243 250 244 245 248 246 247 247 248 247 246 235 172  50  36  34  40  40  41  45  45  45  40  45  41  38  39  41  39  37
  46  46  50  51  47  47  43  43  43  44  44  42  41  42  42  43  42 101 214 236 241 242 242 241 240 242 242 243 242 242 245 249 247 250 241 204 141  95  75  51  26  29  24  16   8  16  15   7  15  14  16  26  35  52  61 107 147 192 216 242 247 249 248 246 249 249 250 248 248 248 248 246 246 231 173  58  37  33  37  39  41  46  46  44  44  43  40  40  42  40  38  36
  43  49  52  49  45  42  43  44  44  44  45  43  41  44  44  46  45  69 201 234 240 244 245 244 244 242 243 243 242 245 243 250 244 249 250 251 230 183 158 142  63  42  51  43  29  18  26  34  25  34  43  68 140 188 201 221 232 236 245 247 248 250 252 251 249 249 251 249 248 249 249 246 245 229 176  75  33  35  38  38  41  45  46  46  45  44  43  43  45  44  44  39
  20  22  37  42  43  46  41  43  43  43  39  45  41  45  43  45  46  49 172 228 242 245 247 248 245 243 242 244 242 245 245 243 246 247 249 251 248 240 226 225 174 117 100 102 103  93  86  54  64  85 159 198 220 232 222 239 242 249 249 250 251 251 252 252 250 250 251 251 246 248 247 248 243 232 189  69  38  40  37  39  43  44  46  47  46  43  42  41  41  45  43  38
