P2
# Generated by OpenCV 4.2.0
92 112
255
  35  28  25  34  28  55  40  22 182 184 184 183 186 187 187 185 187 189 190 188 186 189 188 186 187 192 191 194 194 190 189 199 185 195 188 204 186 189 192 195 202 201 215 210 187 196 198 204 194 193 185 195 196 198 197 196 197 196 189 196 196 196 196 198 195 196 195 197 198 195 201 200 199 198 200 198 200 200 200 202 203 201 200 202 200 201 203 203 199 202 205 199
  29  27  29  30  46  33  21  11 185 181 181 183 187 188 190 188 186 190 189 193 189 186 188 183 179 189 193 193 189 188 196 184 208 139 124  90 104  73 193 120 120  51  54  54  93  60  54  92  98 221 131  72 150 161 173 195 198 202 184 190 195 197 194 196 195 197 198 196 198 197 198 198 199 201 200 201 201 199 198 199 199 201 202 203 201 202 200 200 203 203 203 199
  31  22  21  24  24  19  28  15 187 180 179 181 184 184 185 187 187 187 188 192 190 187 190 187 185 188 189 191 192 192 179 154  93  28  62  64  43  84  83 110  80  56  65  67  72  58  59  81  71  55  59  71  65  62  48  26  26  73 152 189 193 191 186 198 199 197 195 196 198 199 196 197 200 202 200 202 202 200 201 200 198 199 199 203 203 201 203 203 200 201 203 200
  56  24  17  16  25  33  28  14 183 181 180 180 184 188 189 187 186 187 189 186 189 195 190 188 188 182 189 188 194 197 136   8  67  64  69  66  55  75  67  84  70  64  78  52  60  74  65  55  69  69  58  79  72  45  55  61  58  61  45  26  57 140 189 198 195 194 198 200 196 199 199 200 201 202 198 200 199 202 202 200 201 201 201 203 203 200 200 201 199 199 200 201
  27  24  14  24  20  24  26  14 179 176 181 183 190 193 189 187 188 188 188 186 183 191 187 186 192 179 165 192  70 139  45  56  49  80  73  70  63  65  63  64  65  62  76  60  65  79  68  50  68  54  69  76  43  54  75  63  63  62  57  35  31  45  33  58 151 212 200 199 194 204 201 199 199 199 201 201 200 201 201 201 201 202 202 201 200 202 203 203 203 203 203 203
  49  56  33  20  19  21  34  17 175 180 182 180 187 189 188 186 186 185 187 189 192 190 189 169 196 199 165  58  57  57  58  64  47  61  45  63  58  56  56  61  55  63  71  63  62  65  62  51  60  59  68  59  39  69  60  61  55  61  41  41  49  57  51  31  40  34 177 206 199 198 199 200 198 198 201 201 201 201 202 201 200 202 202 203 202 200 199 201 202 201 201 201
  51  58  64  29  19  15  29  18 174 179 181 180 181 187 189 186 186 187 186 189 190 185 195 105  62  43  52  45  57  64  61  66  48  53  45  67  60  58  55  52  43  62  60  58  64  60  53  59  51  59  56  49  48  61  49  54  43  55  33  40  48  60  54  51  58  52  84 130 207 197 203 202 201 200 198 202 200 201 200 202 200 203 202 201 204 201 199 202 204 203 202 204
  27  46  44  45  21  17  25  18 170 178 183 183 182 184 186 186 186 182 188 189 184 186 174 169  49  77  59  54  53  57  64  53  59  46  56  60  51  57  56  46  40  60  61  51  58  56  47  58  48  60  57  37  62  53  65  30  63  37  41  38  61  50  48  45  45  45  45  55  85 188 203 195 200 201 200 202 201 200 201 201 201 201 201 202 201 203 205 202 199 201 203 201
  20  20  31  28  31  28  36  32 180 181 182 185 182 182 187 188 188 186 186 187 187 194 196 151  59  73  70  60  57  46  61  48  56  42  57  56  52  52  53  49  65  51  52  45  60  58  46  53  50  56  52  51  60  59  58  34  60  41  38  42  64  48  51  49  48  48  60  41  66 112 201 198 202 196 201 199 201 201 203 199 200 203 204 204 205 203 202 203 203 201 201 201
  23  24  42  30  31  31  33  30 184 182 181 182 182 183 186 188 187 189 190 186 186 203  82  64  65  66  64  59  57  49  50  57  52  45  54  52  54  47  50  55  74  43  47  45  58  58  49  50  58  53  50  53  51  63  50  49  56  45  32  51  47  44  43  54  59  67  36  36  42  55 128 208 192 206 196 200 200 200 201 201 203 203 200 203 202 200 201 202 203 200 201 202
  39  27  41  34  28  40  37  25 183 178 179 183 183 182 183 186 186 188 188 191 194 137  45  70  53  59  70  54  59  50  50  55  48  52  48  51  55  44  46  51  60  47  47  43  58  55  46  44  61  47  45  54  48  67  47  52  51  53  27  53  62  44  44  62  53  54  56  43  35  25  58 146 200 200 205 200 200 199 201 200 202 204 201 202 202 200 202 202 201 200 204 203
  43  40  36  27  38  43  32  25 187 178 183 183 183 185 185 186 180 186 180 181  56  57  61  63  52  55  60  62  46  54  49  44  54  43  48  56  46  45  45  47  45  62  49  43  63  60  43  41  61  49  46  52  49  72  40  49  50  50  41  54  52  42  49  58  58  56  57  51  48  38  70  78 186 200 198 201 201 200 200 202 203 201 199 203 199 203 201 202 201 202 203 201
  40  40  31  35  42  34  34  27 179 179 182 181 179 181 189 189 193 179 164  32  58  55  53  55  52  49  46  71  41  52  50  39  50  48  47  59  47  45  43  46  48  62  50  44  58  56  43  46  59  45  50  53  48  66  43  46  51  48  41  52  55  45  54  51  52  53  53  52  53  46  53  91 186 185 202 199 199 199 199 199 200 201 201 203 200 204 199 201 203 204 201 200
  33  44  39  33  25  25  30  23 180 179 182 180 186 186 186 191 191 199  33  49  50  48  55  44  48  49  46  63  51  45  47  43  46  49  48  58  52  48  41  44  50  59  49  44  56  56  43  51  57  42  53  54  47  61  49  49  54  55  45  51  50  53  49  48  55  45  56  60  56  47  42 108  99 178 201 200 200 199 200 200 200 201 201 204 201 205 200 201 203 204 203 201
  29  36  32  25  25  28  28  20 177 178 182 182 185 185 187 167 173  61  57  43  49  50  51  44  48  44  47  46  60  44  47  44  45  48  53  53  52  47  42  46  52  53  46  45  56  60  43  54  58  42  56  53  49  60  53  49  51  58  44  49  47  43  47  54  41  61  58  51  45  40  41  32  68 163 178 199 199 202 200 202 203 201 201 204 201 205 202 203 202 202 203 201
  31  32  28  27  24  24  27  27 178 178 181 184 184 181 184 184  97  41  35  63  50  53  46  39  50  47  39  43  54  46  47  45  39  43  51  60  48  53  43  46  48  55  49  40  53  53  47  52  52  48  53  53  48  57  52  52  47  60  42  54  48  48  47  41  57  54  45  51  55  55  48  52  39  64 178 202 201 204 208 202 202 201 200 199 201 201 204 201 201 202 202 202
  35  29  30  24  33  31  31  23 168 179 180 181 180 183 199 176  67  48  59  49  59  59  52  47  41  48  41  42  54  42  43  43  46  43  38  57  47  55  46  45  48  56  54  42  54  50  48  58  48  49  53  48  48  55  52  47  47  58  47  60  62  63  57  52  57  46  57  63  54  55  60  61  53  60 110 197 206 191 201 202 201 203 202 200 201 202 206 204 202 204 201 202
  29  31  34  28  32  29  34  21 163 177 182 183 183 188 115  45  50  61  60  48  51  54  57  55  51  47  47  38  48  40  43  42  43  41  43  55  47  53  48  43  50  53  55  45  49  44  49  60  48  51  50  51  50  50  54  46  49  61  57  69  98 114  89  76  63  51  55  58  60  59  54  38  54  42  34 119 197 203 196 200 200 200 201 201 202 203 203 201 201 202 202 201
  31  30  23  31  33  31  35  34 183 182 182 182 179 156  32  67  53  49  44  58  48  47  50  51  53  55  54  51  45  41  46  41  50  43  50  48  45  50  46  43  50  50  52  46  48  42  49  59  49  54  46  49  44  42  59  57  60  71  79 111 121 142 126 119  97  67  59  41  42  45  42  49  44  39  25  94 174 198 200 204 204 204 199 200 202 205 201 199 202 205 200 200
  49  34  29  26  30  31  36  33 176 180 181 180 208  16  58  49  47  51  52  48  50  43  41  48  56  54  56  58  54  48  44  46  50  46  56  53  53  43  45  39  51  49  51  45  54  40  56  53  53  52  48  52  48  52  65  75  80  79 113 136 144 163 162 162 160 120  82  52  49  56  52  52  40  37  36  18   5 228 192 191 212 200 202 200 201 202 203 203 203 201 200 203
  40  37  34  29  24  25  32  22 173 181 182 192  57  65  34  54  47  44  46  48  39  51  59  58  63  64  59  63  59  52  48  50  58  53  56  55  52  44  46  52  52  50  54  53  54  51  63  55  55  50  52  54  49  55  77  88  91 100 134 142 155 182 183 180 162 161 129  76  63  60  72  63  63  59  49  45  55  75 231 209 197 207 201 202 202 202 200 202 203 201 202 204
  36  48  40  25  24  21  28  24 183 181 178 174 129   7  40  40  47  47  46  44  53  54  59  67  70  73  68  64  58  61  50  53  59  62  60  61  51  49  52  52  49  55  53  58  55  59  64  56  53  47  52  55  65  59  90  92 118 132 157 182 177 190 192 184 181 178 165 118  66  59  54  58  57  61  63  51  52  67  97 210 200 205 205 202 202 202 201 203 201 202 202 203
  40  35  34  28  19  25  28  16 185 177 177 127 119  35  39  30  44  45  43  54  53  61  77  96 101  99  91  73  80  82  75  64  63  68  61  59  60  55  67  60  56  61  53  63  58  62  58  59  59  53  62  72  85  73 102 119 137 165 175 183 181 193 195 193 198 186 176 161 112  62  67  64  62  54  41  54  38  45 127 160 207 204 203 202 200 201 204 206 199 200 203 203
  39  28  35  35  38  31  27  24 179 174 186 106  74  23  31  30  34  48  55  60  60  82 110 116 126 128 133 132 121 108 100  94  95  74  77  83  72  67  76  66  65  59  63  65  74  70  79  66  71  74  83  98 117 104 113 147 157 175 185 188 191 194 195 195 196 193 184 177 152 104  64  64  69  64  48  41  36  43  74  73 206 207 203 199 202 201 197 201 203 202 200 201
  33  30  32  38  35  27  27  28 182 176 191 136  47  46  36  44  47  54  58  61  72 125 145 155 160 154 153 154 159 140 141 127  99 109  86  74  83  84  82  89  88  86  82  81  88  92 123 123 111 126 121 130 151 133 146 172 173 186 190 194 194 195 196 196 194 191 192 179 169 120  87  65  58  54  51  45  30  40  28 164 114 203 203 204 200 198 199 200 202 204 204 202
  36  33  26  34  28  21  26  50 176 172 182 140  30  39  44  43  46  52  67  63 118 154 152 168 163 163 170 174 164 169 172 157 138 134 124 108  95 106 130 130 141 142 143 146 155 167 168 180 165 172 161 151 167 171 165 185 190 189 192 193 193 193 195 196 192 184 187 185 175 163 106  76  67  67  58  47  42  32  33 150  96 166 197 200 202 200 198 203 205 202 203 203
  43  43  35  32  32  27  19  18 178 175 177 105  36  45  47  54  50  55  61  96 151 152 168 170 170 173 178 177 177 180 177 179 176 152 154 157 157 157 159 170 169 165 169 175 182 181 191 185 186 186 183 183 185 186 183 193 193 191 194 191 191 193 194 194 196 189 183 184 177 174 139  98  67  64  52  52  46  42  37  91 116 142 194 202 222 238 241 235 219 199 198 203
  53  45  37  31  36  45  32  18 182 167 156 105  32  44  41  46  53  61  63 134 152 160 175 173 175 177 180 180 182 183 182 181 175 179 178 167 179 184 185 186 180 182 188 192 193 194 193 194 192 194 191 191 189 189 191 193 193 194 193 192 193 192 191 193 192 193 186 181 180 176 163 126  90  64  60  47  41  39  32  54 147 175 169 253 246 248 246 249 246 252 209 198
  43  42  35  42  54  73  51  16 181 155 168  31  40  43  41  46  46  64  83 156 155 165 181 179 178 179 180 183 183 183 184 187 186 185 189 194 187 189 193 191 194 194 195 196 194 195 196 197 197 196 195 194 195 195 194 194 195 194 193 192 193 192 191 192 193 193 188 180 181 178 178 142  90  75  59  51  43  38  41  21 162 177 221 248 254 237 231 240 254 245 254 206
  49  47  45  47  48  60  24  17 183 163 138  30  44  40  40  40  50  77 111 165 160 166 180 178 177 177 180 183 181 184 185 190 189 194 193 191 195 195 195 196 198 196 196 202 201 198 198 199 198 195 195 197 197 197 195 194 195 193 193 193 192 192 192 192 191 192 188 183 183 180 180 164 117  72  68  55  46  36  39  36 141 207 239 227 188 200 198 197 206 250 245 249
  38  48  41  35  41  52  22  20 193 151 164  31  33  35  39  43  69  81 126 165 161 166 180 179 178 178 179 182 184 186 188 189 192 196 198 200 198 198 196 197 194 196 202 204 203 202 201 202 199 197 198 197 197 197 195 193 191 194 195 191 191 189 190 190 187 187 186 186 185 180 180 167 138  85  59  67  48  40  38  32 127 226 254 167 189 199 205 205 201 213 253 219
  43  42  34  32  37  63  47  39 180 173 103  28  37  33  39  48  67  94 147 161 157 162 176 177 177 179 180 183 186 191 187 192 193 195 197 199 198 199 199 199 200 200 204 205 204 201 203 203 199 197 198 198 198 200 197 195 193 192 191 193 194 191 190 188 186 185 184 185 184 183 180 180 144  99  62  68  42  45  34  35  90 241 229 166 201 198 202 199 206 200 199 197
  37  39  31  32  36  51  71  32 181 179  71  41  35  35  45  55  74 113 156 162 163 164 173 176 175 179 180 182 184 188 183 189 195 196 197 196 198 198 201 202 202 203 203 203 201 198 201 203 201 199 200 200 201 200 198 195 195 193 190 189 191 189 187 189 188 186 183 183 183 182 182 184 165 103  75  61  54  40  40  36  70 251 215 193 187 191 204 202 201 208 200 201
  46  39  39  34  48  43  63  23 179 166  70  42  36  44  48  55  71 131 162 166 170 170 174 174 176 176 174 178 182 186 188 192 194 196 197 195 199 198 199 200 200 201 199 200 199 197 199 201 199 199 199 199 200 198 195 193 196 194 192 188 186 186 185 188 189 186 185 184 181 182 184 180 179 125  81  58  61  42  38  32  48 238 222 218 167 199 196 203 204 201 206 200
  46  44  42  37  48  41  48  27 176 179 140  17  46  48  46  49  97 144 166 165 165 167 173 172 176 174 174 176 182 184 186 192 190 194 195 195 199 196 197 197 198 200 198 197 198 199 200 198 197 195 196 197 196 195 194 193 194 192 189 185 185 185 185 188 185 181 183 182 181 181 183 184 178 136  80  60  56  50  35  36  28 238 221 255 179 203 200 202 196 203 204 208
  41  57  21  37  32  35  45  26 165 180 159  37  44  44  45  58 102 147 169 161 163 164 171 175 174 174 177 177 178 182 184 187 187 190 194 197 200 197 198 197 199 200 198 197 197 198 197 196 194 196 196 194 195 194 193 190 190 191 190 188 186 187 186 187 184 183 181 184 183 180 181 184 179 149  91  61  55  48  41  36  21 161 234 248 237 240 191 202 206 204 203 201
  43  22  29  19  33  40  43  36 183 179 134  51  37  41  47  58 112 154 174 164 170 167 169 173 176 177 178 174 176 180 183 186 182 185 192 196 194 195 198 196 196 195 196 194 195 195 195 193 195 196 193 192 193 194 191 188 188 188 188 186 185 185 187 184 186 184 180 182 182 181 182 183 177 156 103  57  58  47  44  37  24 116 160 250 218 246 252 237 200 205 206 204
  42  46  22  23  22  38  42  36 168 176 144  14  41  43  50  69 125 157 167 166 163 164 168 173 176 172 171 173 175 181 181 183 184 184 187 180 187 192 194 195 194 192 193 193 193 193 192 190 190 191 191 189 190 189 188 187 185 184 187 185 183 182 183 185 185 182 180 179 181 182 184 180 174 148 121  61  53  42  36  47  42  90 147 156 199 248 248 243 253 228 201 203
  42  36  37  25  28  30  26  44 159 158 131  41  35  43  50  74 144 154 160 160 168 164 166 169 174 173 167 166 177 180 177 182 187 188 189 186 190 193 195 193 194 194 195 195 196 196 195 195 195 195 193 192 191 189 189 187 186 182 184 182 185 187 184 184 182 180 180 179 178 181 180 173 169 151 119  68  48  45  41  36  32  99 149 168 159 191 242 250 253 246 248 192
  21  16  25  26  27  37  27  22 182 169 104  28  37  42  54  88 146 154 155 161 162 165 169 168 170 171 170 171 172 177 177 180 182 184 183 192 191 192 192 191 190 192 193 195 195 196 196 194 193 192 193 193 192 190 189 186 186 183 184 184 182 185 185 183 182 180 180 181 180 179 175 169 164 152 123  76  49  43  39  42  32 110 144 147 186 205 198 189 249 247 248 240
  39  34  30  29  27  28  36  27 173 166  78  30  31  43  59  94 146 159 159 163 167 166 167 173 170 173 171 170 176 179 180 181 180 185 191 188 185 187 191 191 192 191 193 193 194 195 195 193 189 188 189 190 189 189 187 188 185 187 186 186 182 184 186 183 182 179 179 179 177 172 167 166 161 157 133  77  50  43  38  39  39  77 143 148 202 196 201 203 181 244 249 252
  59  54  37  30  30  36  32  22 168 186  94  38  30  40  54  90 131 154 156 157 166 166 168 170 167 172 173 173 179 179 181 179 180 181 185 181 185 186 189 190 191 190 191 189 191 193 193 192 191 188 190 192 191 191 189 190 186 189 188 187 185 185 184 182 180 178 179 177 174 168 167 169 163 165 145  84  53  46  37  37  39  73 148 144 195 205 207 191 206 198 253 253
  56  62  45  34  36  39  38  51 159 185  68  35  32  43  50  93 121 142 154 160 161 168 164 166 168 173 173 175 177 179 178 176 177 179 183 181 180 182 181 186 190 189 185 190 191 187 191 191 191 194 194 192 191 189 190 188 189 188 186 188 189 187 185 186 184 180 178 173 171 167 170 172 166 168 165  91  52  39  37  32  40  65 142 148 188 205 196 195 202 201 250 244
  31  27 103  19  37  33  31  25 173 172  77  27  41  44  45  96 122 141 154 159 163 161 160 166 168 172 172 177 175 178 178 182 181 184 190 190 190 192 191 192 192 191 189 192 192 188 189 189 191 192 192 193 192 191 189 187 188 188 185 185 186 187 187 186 185 181 178 177 169 169 170 171 167 166 155 101  58  44  32  36  36  46 147 143 185 202 199 203 203 195 251 246
  54  68  52  24  25  33  47  40 172 183 103  31  33  47  43 110 124 143 153 155 160 161 164 164 158 172 174 172 177 178 178 182 182 185 191 193 190 193 193 193 194 194 193 196 193 190 193 195 194 194 195 192 191 191 191 189 189 187 186 189 189 188 185 184 185 183 180 179 170 172 173 171 167 168 153 105  61  43  35  25  34  30 148 150 181 203 201 205 207 199 252 249
  44  20  21  25  25  40  40  39 183 182 102  32  35  39  50  92 122 141 154 154 162 157 164 162 165 170 170 170 171 175 176 176 182 182 186 187 188 191 194 197 194 195 196 195 194 196 196 194 196 195 194 192 190 186 186 190 185 184 187 192 190 189 187 190 189 185 179 176 174 170 172 169 162 167 154 109  64  41  38  37  26 125 227 124 180 197 201 207 197 237 247 249
  32  17  21  26  26  33  43  36 179 181  96  30  32  37  48  81 130 142 150 155 157 160 157 161 164 167 164 168 173 173 173 170 176 179 178 181 186 183 190 191 191 193 191 193 194 194 194 195 194 194 194 190 192 187 182 184 182 182 183 191 186 190 189 190 193 190 181 174 172 171 163 162 165 163 160 109  67  49  40  31  57  58 242 243 215 211 207 221 249 252 250 231
 144  93  24  23  33  27  40  17 183 182 102  25  32  37  45  78 135 144 149 153 158 158 157 160 170 170 166 170 174 174 172 170 173 175 176 179 182 181 187 187 190 194 193 192 190 188 189 194 192 193 192 191 190 184 182 184 184 183 182 188 187 186 186 188 188 187 182 174 170 168 168 163 164 165 166 113  69  49  40  35  30 160 155 230 240 252 249 249 249 250 236 193
 132 128 138  43  29  34  39  29 178 182  85  32  26  36  45  79 139 141 147 151 156 160 158 162 168 169 172 174 170 168 168 166 169 169 169 173 178 179 184 185 187 184 190 192 191 187 185 189 188 189 187 183 184 181 179 182 183 182 182 179 182 180 183 184 184 176 183 176 164 159 166 164 165 164 165 116  74  52  41  38  52  96 102 219 251 251 253 250 235 209 195 203
 131 131 131 138 108  29  41  26 186 178  94  35  31  33  43  73 137 137 145 153 148 159 161 162 166 171 176 173 174 172 168 169 167 166 162 166 168 170 177 176 182 180 187 183 187 186 181 183 184 184 180 175 174 170 175 177 175 176 179 175 177 167 166 172 174 180 171 171 168 161 166 163 166 169 166 121  72  52  45  44  61  68 153 134 145 199 193 197 196 202 205 204
 133 128 133 129 130 141  60  17 172 180 144  36  31  35  44  66 132 142 141 151 151 152 159 159 169 169 169 169 172 167 168 161 154 151 152 153 154 153 155 167 174 177 180 180 181 183 178 177 176 178 172 166 154 162 163 164 155 154 152 146 148 134 123 123 140 150 163 149 160 167 163 168 171 168 168 143  74  52  47  50  87  76 100 142 164 194 200 203 202 201 200 202
 134 130 134 132 133 129 138 101 158 164 194  28  23  32  43  64 135 143 140 147 146 146 150 159 164 164 161 154 148 160 148 144 141 138 138 135 132 138 138 149 159 166 176 181 181 180 177 171 169 160 165 141 126 119 121 114 110 109 104 103  94  92  99  97  86  94 115 145 163 168 168 166 172 171 170 158  69  61  52  57  75  79 139 139 167 185 203 204 202 202 198 203
 134 130 132 131 133 132 131 106 175 171 187  46  29  33  43  52 133 140 142 144 150 148 148 154 160 156 141 126 109 105 110 105  93  80  77  75  71  82  95 117 142 157 175 176 179 180 176 174 155 154 146 123 102  70  70  63  66  74  84  79  78  78  78  84  92  95  92 103 123 146 158 168 169 168 172 170  59  58  55  46  76  99 146 135 146 166 202 204 205 202 203 202
 134 132 134 134 134 131 138 102 174 170 171 129  38  32  44  46 118 139 151 143 141 146 145 145 130 114  96  90 102 103  77  78  61  60  62  61  63  73  85 100 118 143 158 174 176 178 174 172 149 122 127 114  91  71  69  56  50  48  53  73  98 111 112 110 112 101 106 102 128 155 156 168 173 173 171 173  71  64  62  78  65  96 150 141 136 163 204 203 201 201 202 202
 133 135 133 134 133 129 132  98 164 173 168 137  46  25  34  47 105 135 143 148 138 142 138 127  93  70  61  72  66  42  46  64  62  56  65  68  82  81  83  90 105 125 142 155 164 173 175 174 158 136 123 115  98 103 104 118 118 131 123 137 132 137 152 162 141 148 139 136 141 144 159 167 174 176 172 176  78  70  62  78  72 111 165 162 134 185 199 199 203 203 199 200
 134 133 135 134 135 133 132  96 167 169 166 129  41  30  33  43  94 142 143 149 145 140 123 111  87  73  70  72  87 106 112 126 136 149 151 150 137 124 104  97  94 105 127 148 161 171 175 174 166 153 134 123 119 138 107  74  92  74  54  38  45  72  89  94  81 143 150 146 152 154 162 167 169 173 169 171  86  81  68 102  78 100 176 223 120 203 201 201 201 199 203 198
 136 134 135 135 134 135 131  97 167 167 172 180  85  40  36  42  73 141 144 144 143 134 119  96  92  91  98 106 115 139 145 137 106  92  74  67  60  83 101 111 100 101 117 147 160 169 172 176 170 160 140 115 137  92  92  72  40  45 104  25  53  87  49  60 106  95 117 148 151 156 161 170 174 170 173 172 100  95  60 115 148 102 206 244 124 196 201 199 200 199 203 207
 135 135 133 133 134 135 130  94 167 169 172 175 149  45  47  43  53 149 147 139 147 140 122 109 109 116 124 137 123  74  45  34  30  43  29  34  70  98  87  91 109 106 112 152 172 184 187 190 180 166 136 126 118 129  77 125  96  54  45  57  48 133 118 100  63 102 135 138 153 151 168 173 173 169 163 162 116  76  71 120 155 100 226 237 175 191 201 202 203 203 202 193
 135 134 136 134 134 134 135  85 171 168 171 165 174  62  60  41  41 155 152 144 144 139 127 123 126 121 141  83  61  52  80  71  50  38  47  62 148  93  63 141 128 108 115 145 176 187 195 197 189 170 144 137 165  97 116 114 139  87  93 104 135 147 109 112 115 132 139 139 155 163 174 175 172 168 167 161 127  67  91 119 161 124 244 228 229 182 204 202 199 199 200 199
 135 135 136 135 133 137 136  79 171 165 168 170 195  69  70  43  36 153 150 146 147 145 137 137 123 127  88  80  29  63 130 117  47  57  51  43 135  99 108  84 159 138 120 149 181 193 197 198 197 180 154 159 167 145 136 130 118 110 107 125 106 132 126 144 155 162 163 167 173 178 178 177 173 173 162 156 140  57 106 126 163 172 236 231 244 194 201 201 198 200 203 199
 133 134 134 133 132 136 136  75 175 165 168 176 178 108  63  41  39 148 148 150 145 150 145 134 138 114  93  71  85 104 129 142 137 117 146 150 116 127 121 132 145 133 134 146 181 192 193 196 198 188 168 153 160 145 136 134 144 151 151 146 151 142 145 158 164 168 170 176 179 183 182 178 179 171 161 158 154  34 118 132 156 235 224 235 228 226 198 200 201 202 200 195
 133 132 133 132 132 134 136  76 170 167 169 173 179 136  78  54  46 145 147 149 146 152 150 144 131 113 105 121 119 120 108 112  95  95 115 120 134 123 120 137 142 140 138 152 180 189 193 197 201 186 174 170 166 159 153 162 155 147 133 151 156 161 167 169 171 175 175 173 179 181 183 182 178 169 164 157 165  37 113 149 159 211 233 230 237 253 194 198 197 200 203 207
 133 132 130 131 130 131 134  76 171 169 170 169 176 140  78  61  44 147 146 145 150 154 153 144 145 140 142 148 146 132 133 137 136 138 136 135 127 137 146 145 148 145 147 149 173 186 194 199 198 181 177 173 167 169 172 172 176 177 174 177 174 172 172 175 178 181 183 180 181 183 181 181 180 177 166 165 157  53  95 160 170 146 241 230 239 254 205 197 197 201 200 197
 131 131 129 128 128 127 129  73 170 164 169 171 170 179 100  81  48 136 132 148 147 153 160 161 158 161 152 154 155 150 137 134 134 129 137 146 160 164 161 161 153 152 154 156 170 187 192 190 191 186 184 178 172 173 182 181 181 182 184 183 183 184 185 183 186 185 185 186 183 183 184 183 181 179 169 164 170  74 132 183 137 107 247 228 247 245 236 198 202 198 198 191
 128 130 128 127 126 129 129  69 169 162 169 172 167 174 108  80  48 114 136 141 146 153 162 169 171 169 161 158 157 153 149 154 160 164 169 168 169 170 169 166 157 153 157 156 166 185 194 198 192 176 181 180 176 175 180 182 182 183 181 184 186 187 186 184 185 188 189 188 186 187 188 187 181 182 173 167 168  74 116 125 163 110 193 237 245 247 251 197 205 202 202 190
 130 128 127 128 127 129 131  70 166 162 167 170 173 168 152  80  51  85 138 145 146 153 164 171 174 171 169 159 155 161 167 172 168 171 171 173 171 169 171 168 160 156 160 161 175 186 191 193 190 185 184 183 182 177 179 181 183 185 185 184 185 188 186 187 190 190 194 191 189 189 186 188 183 183 182 171 169 103  63 151 176 111 135 247 249 250 248 207 203 195 204 189
 129 126 126 125 125 126 128  72 167 164 167 171 168 167 174 101  61  66 138 141 144 151 164 168 173 169 173 174 177 178 176 176 178 176 174 172 177 176 174 169 166 164 165 171 180 185 190 195 193 193 189 183 186 188 181 184 183 184 187 191 190 191 188 184 190 189 191 195 193 193 189 186 185 181 180 170 174  98 103 125 170 113 102 242 248 245 246 239 197 200 201 189
 127 126 126 125 124 127 129  75 168 166 169 170 165 166 175 114  66  61 124 131 141 147 163 169 172 173 179 181 180 179 178 180 179 180 179 180 181 179 177 173 173 165 156 177 183 187 191 194 192 195 190 182 182 185 184 186 188 189 192 191 194 196 194 192 194 192 194 194 192 193 188 189 187 181 180 182 175  90 113  94 174 103 116 205 243 241 252 253 196 195 203 189
 126 126 126 125 123 127 130  76 170 165 166 169 171 169 172 122  64  76 108 129 140 144 162 168 174 178 179 179 182 181 178 180 187 183 181 179 180 181 179 175 167 154 156 179 181 187 191 195 195 197 193 187 182 176 164 179 187 187 191 193 193 196 195 195 193 195 195 196 195 196 189 189 186 181 181 182 179  93 101 118 158 163 162 197 251 251 245 246 218 193 199 194
 126 127 125 126 125 122 127  76 175 165 168 167 166 167 179 120  50  78  85 140 139 148 157 166 174 178 179 181 177 176 182 185 185 185 186 183 179 180 177 175 148 149 157 176 183 189 190 192 194 192 191 185 187 185 177 158 175 180 192 193 194 196 193 190 192 195 189 192 195 195 190 190 184 181 180 177 177  87  83  99 220 228 231 238 247 242 245 247 247 199 194 196
 124 125 126 125 127 124 127  70 169 161 165 168 170 167 166 139  62  68  86 134 139 149 155 167 171 176 176 178 177 180 186 185 186 185 184 184 184 175 175 161 115 170 148 176 178 185 190 193 195 190 190 182 185 193 193 123 147 171 181 185 189 195 193 191 190 191 193 192 196 194 191 190 189 182 176 178 177  87  88 105 221 221 227 240 244 248 242 251 250 184 197 204
 125 124 126 125 124 123 128  70 172 165 164 165 166 170 174 146  73  73  83 134 139 148 154 166 171 175 176 178 181 180 183 182 186 184 184 185 182 169 161 134 138 165 136 156 165 178 187 187 185 181 177 159 161 184 178 141 124 138 159 168 175 182 182 185 187 190 189 191 193 192 189 185 188 183 179 174 175  82  82  61 227 220 217 233 240 245 247 241 244 224 191 197
 123 123 124 125 124 129 129  64 172 162 166 167 167 162 164 153  94  79  77 128 139 146 151 166 168 171 174 177 176 177 179 181 181 182 179 175 166 158 137 130 138 141 133 130 139 158 167 162 159 156 137 112 109 135 142 132 138 122 141 151 164 173 177 180 183 184 188 187 188 188 184 185 184 180 175 175 169  91  77  62 158 173 177 215 216 245 246 242 244 254 189 198
 122 123 124 123 123 130 130  67 175 165 165 164 161 162 162 164 101  67  80 108 135 150 149 162 168 167 170 174 179 177 174 176 177 177 175 166 159 149 132 136 126 107  82  66  80 114 140 138 138 118  81  90  92  90 108 159 153 133 121 138 153 163 172 176 177 178 177 184 184 181 182 176 179 179 176 171 168  91  74  72 108 119 118 193 196 217 249 247 246 248 194 193
 124 123 124 124 124 126 127  67 168 160 165 167 164 167 162 176 101  68  74  91 140 142 147 158 163 163 164 169 169 175 174 172 173 172 171 164 152 136 131 146 129 112  74  83  81  81  92  98  95  99 106 122 123 133 161 163 161 152 125 130 141 154 166 170 172 175 176 179 178 176 179 177 176 173 170 169 163  75  68  62 107 118 125 182 198 190 250 248 248 248 242 199
 121 124 124 124 123 126 131  60 173 162 162 170 169 172 165 175  90  73  65  66 146 140 147 152 154 156 160 164 166 166 165 166 164 168 166 154 145 129 146 150 146 139 128  84  83  85  78  87  92 106 116  90  95 133 146 168 159 161 146 110 129 148 159 170 171 173 172 172 172 173 175 171 171 169 165 163 152  78  62  70 111 115 126 186 192 187 242 250 248 248 251 191
 122 123 122 124 123 124 131  52 166 161 156 155 162 163 169 177  70  73  64  60 128 142 144 153 155 155 158 160 160 159 159 161 166 163 160 150 136 143 163 156 160 133 107  84  68  77  85 101 113  99  93  81  61  94  99 144 165 162 165 145 112 144 155 165 166 168 168 169 169 172 168 171 170 169 165 157 138  65  38 109 113 119 132 184 200 196 189 186 188 190 206 182
 124 124 125 123 122 127 132  47 159 160 163 161 167 170 166 176 101  70  68  53 111 135 155 152 154 153 159 155 154 154 157 161 160 161 159 149 145 155 165 168 123 124  89  83  68  67  80  93 137  94  71  69  64  79  89 106 118 161 177 156 116 132 147 161 162 165 161 165 160 162 163 170 170 150 165 156 112  74  50 112 114 120 133 184 196 193 194 198 190 205 193 197
 124 122 123 125 124 125 133  48 165 161 165 167 169 172 171 168 138  58  64  62  88 138 148 152 157 152 151 147 152 152 155 158 158 160 154 150 144 171 145 129 115  74  75  65  57  82  68 106 160 141  88  63  72  65  72 100  98 107 101 123 144 102 143 154 158 162 164 160 160 164 165 167 166 161 154 153  89  53  57 115 114 119 142 187 195 194 195 194 195 194 192 199
 123 122 123 125 124 125 134  46 168 160 163 165 169 169 166 164 163  50  67  63  69 135 143 148 151 156 153 147 147 148 151 153 157 154 149 154 149 155  91  91  98  78  64  65  80  83 112 147 166 173 152 111  63  80  77  77  93  92  87  84  92 107 121 151 158 160 161 161 159 159 162 158 160 155 147 147  68  62  80 115 115 125 153 196 195 194 197 193 192 192 196 196
 124 123 125 123 123 124 131  43 166 159 159 161 176 170 166 166 178  98  53  59  60 114 137 142 148 155 150 147 144 147 150 150 150 149 150 146 146  96  83  94  91  80  76  71  86  79 112 164 163 160 146 102  99  81 106  83 113  99  79  70  83  88 110 148 162 164 163 163 161 159 159 159 155 154 141 125  64  52  76 113 120 120 164 201 196 198 195 198 190 198 191 195
 122 121 122 124 126 124 133  38 163 154 153 152 175 168 163 162 157 133  35  51  55  89 136 137 147 150 151 148 144 146 144 155 154 152 151 134 127  70  86  91  97  90  80  63  67  83  73  84  85  98  91  97  97  94  95  88  88  88  86  69  75  79  80 152 161 168 168 166 167 153 157 154 156 146 135 105  60  45 119 112 120 123 184 192 202 195 200 193 187 191 195 196
 122 123 122 124 123 127 135  32 164 156 158 154 162 161 161 159 156 168  64  58  44  73 119 134 141 146 148 146 148 144 150 153 159 155 152 138  91  71  76  58  66  80  74  71  80  79  94 101 102 100 103  91  90  85  91  94  77  33  51  74  66  70  63 151 164 165 166 168 160 160 147 156 151 135 124  76  50  58 110 112 123 135 196 192 199 196 190 193 196 195 195 197
 122 122 122 123 124 122 133  33 163 158 163 160 158 158 157 160 164 160 138  37  48  59 106 121 140 145 147 150 144 145 144 153 161 161 163 163  68  74  80  83  52  55  61  58  59  74  62  59  63  59  96 112 118 124 111 104  99 114 140 132 107  59  76 151 167 168 163 162 161 153 143 138 148 123 128  62  49  66 106 115 119 147 204 194 197 197 195 196 196 196 196 197
 124 123 122 122 123 125 130  30 165 160 161 160 158 162 163 162 163 162 167  91  51  53  79 107 131 138 140 145 148 145 145 147 166 168 179 145  72  76 136 137 123 108 106 122 129 112 135 159 157 158 151 142 148 146 124 129 148 152 149 143 142  86  86 171 167 167 168 162 153 148 148 140 140 109  99  54  47  86 108 114 130 161 195 195 196 191 194 196 196 198 198 197
 121 125 124 124 124 125 135  29 167 160 161 158 156 160 163 163 159 162 156 153  58  59  66  97 115 127 139 140 140 142 148 145 157 162 173 143  75 118 148 140 139 132 119 115 120 140 149 145 130 153 153 151 138 139 143 158 167 166 165 161 159 110 102 178 175 165 157 152 145 132 138 139 109 111  68  55  43  88 119 118 130 175 192 194 196 195 195 197 197 198 193 200
 123 125 125 125 124 124 132  30 168 162 163 159 156 155 158 162 165 154 165 152  73  52  50  85 108 113 123 126 140 134 148 148 153 165 169 150 107 154 155 151 149 152 140 131 129 121 127 124 117 127 127 136 133 145 156 166 174 174 174 165 160 147 101 170 178 156 157 139 145 127 126 126 102 105  46  49  49 108 112 117 128 187 190 197 197 194 193 194 196 197 199 197
 125 124 125 125 124 125 131  28 169 160 161 160 157 159 161 161 159 160 165 154 136  32  47  71  97 108 118 115 123 117 150 146 145 154 161 150 115 140 162 159 156 150 152 147 140 124 117 118 118 128 138 139 147 160 163 167 172 176 176 178 166 164 133 163 164 149 132 132 127 124 125 103 102  69  55  46  50 110 109 123 143 194 196 197 198 196 197 198 197 195 196 196
 123 123 123 123 124 126 131  27 170 164 162 161 164 160 158 158 163 167 159 148 146  35  54  44  90  93 105 110 112 111 130 130 127 148 156 162 119 143 147 160 155 151 152 144 146 147 143 139 141 137 143 148 154 158 161 169 176 181 181 179 178 167 154 146 149 127 119 123 113 118  97 100  74  52  39  45  74 106 114 113 151 193 197 194 197 198 197 197 196 197 195 200
 129 123 118 125 120 123 134  25 168 160 162 163 158 159 160 156 158 161 161 162 144  90  53  47  60  91  87 102  99 113 112 121 118 141 146 162 129 156 149 164 159 155 151 145 142 137 139 116  95 109 110 128 147 159 163 170 177 179 180 177 180 172 156 147 125 107 102 108 118  95  74  65  58  41  40  54 101 101 109 118 163 196 191 201 198 200 192 195 197 197 196 197
 122 123 126 124 123 123 132  21 176 160 161 161 159 157 161 159 159 158 161 156 155 180  17  44  45  73  81  93  93  87  96 108 110 125 129 142 131 152 158 158 159 155 150 150 148 135 128 103  96  91 122 133 159 164 168 173 178 178 177 181 169 147 141 123 110 103  88  94  84  92  65  53  43  38  38  67 100 104 115 126 186 195 193 196 198 194 197 199 198 197 200 200
 119 128 128 125 127 123 131  18 179 165 163 160 160 161 159 160 156 155 161 162 138 169  41  30  45  55  68  82  80  92  80  85  99  93 115 123 120 159 159 167 163 159 151 150 147 136 133 109  83  92 133 133 160 164 166 171 178 175 172 173 161 117 115 100  92  98  75  83  77  61  54  44  39  38  35  89  91 107 109 130 193 190 196 194 194 194 196 193 194 199 197 197
 216 143 125 126 124 119 135  20 178 165 164 161 161 160 156 159 158 161 159 162 198  27  44  61  40  44  56  63  71  79  63  75  88 101  92 117 118 119 159 159 166 164 162 152 139 141 148 119  85  85 145 147 171 170 175 174 178 174 169 173 164 107  88  82  82  70  76  64  73  52  46  41  36  38  41  90  98 101 116 144 193 196 195 197 193 201 193 195 199 198 197 197
 190 198 200 121 123 116 141  15 173 165 163 160 159 158 158 160 157 150 154 166  63  35  32  69  37  41  40  52  53  73  62  72  65  71  72 116 102  95 138 147 165 164 168 161 157 159 157 138  91 107 159 157 165 170 170 170 181 179 179 156 136 107  73  56  62  62  74  67  60  46  44  44  38  26  46  42 106  99 119 169 196 198 194 196 198 200 195 198 199 199 198 199
 195 200 180 205 171 116 139  14 183 168 164 160 158 161 160 158 159 174 159 111  40  48  35  69  42  37  36  37  47  56  59  58  82  56  58 104  75  84 115 160 172 169 174 172 168 166 166 159 107  87 167 168 172 181 172 184 185 177 180 167 121 104  61  49  70  60  58  50  44  35  37  27  32  78 115  50  70  96 139 185 194 195 194 195 192 195 197 193 199 201 197 197
 192 191 199 194 193 209 145  87 167 168 165 163 162 160 161 160 162 163 148  39  49  46  58 135  36  37  35  37  37  48  40  52  74  60  54  79  53  92  82 140 141 167 173 179 174 172 170 146 117  85 128 158 145 160 167 160 175 178 167 170 116  92  77  46  56  43  46  42  40  34  36  30  43 133 175  38  45 106 169 187 191 195 195 193 196 198 199 196 198 201 198 193
 194 193 193 196 198 184 203 185 134 162 168 165 162 160 159 159 157 160  26  48  42  47 103 187  31  40  27  30  38  33  40  47  40  61  45  44  66  82  73  97 131 161 178 176 166 172 164 130 109 114  77 142 131 129 153 129 160 174 149 153  93  70  60  35  39  31  33  36  36  31  32  50  12 203 204  26  45  57 179 188 197 200 197 193 196 194 198 202 201 200 197 195
 197 197 194 192 197 195 193 195 199 133 141 159 161 161 157 166 154  34  39  42  41  37 141 208  95  43  31  31  31  35  37  41  37  37  39  46  46  55  66 101  95 147 157 172 150 164 122 132 117 133 128 102 111 106 101 151 145 164 170 139  65  59  50  40  30  32  35  36  31  31  30  14 121 226 229  24  43  51  65 223 191 185 197 198 196 198 199 197 199 198 196 199
 193 196 195 192 194 198 189 198 189 196 167 125 160 160 166 149  18  47  41  44  41  42 122 196 161  69  16  29  28  30  33  31  35  36  36  37  41  43  61  68  96 128 154 155 119 119 104 117 103 119 133  91  98  77 107 105 112 111 109 101  62  45  44  37  30  35  41  34  35  32  23  69 185 225 244  13  47  48  55  68 214 201 187 195 195 197 200 198 196 197 201 197
 191 192 193 198 199 191 203 197 199 194 189 179 144 138  99  36  49  42  40  41  42  34 102 186 176  94  34  31  28  29  27  26  30  35  32  26  33  47  45  50  81 130 126 122 123 100 108  95  92 102 104  85  82  86  77  85  84  97  91  48  60  39  44  39  35  33  34  31  31  38  75 213 213 216 241  12  44  47  42  55  74 217 196 197 195 195 199 197 196 198 194 196
 191 192 193 192 199 205 196 199 195 199 190 187 207  88  41  43  43  37  46  39  43  46  49 214 166 171  89  29  27  29  26  28  28  30  31  31  40  30  40  48  63 100 102  93 102  78 102  83  74  82  96 102  81  68  66  68  85  74  69  55  37  38  39  33  36  34  31  27  41  34 187 211 231 219 227  20  45  41  50  47  48  81 214 202 194 198 198 195 195 193 199 196
 185 187 187 193 197 195 201 195 199 199 215 155  54  39  39  46  42  42  42  42  39  40  31 228 197 212 117  97  35  33  26  33  31  32  30  30  29  28  32  37  45  68  90  69  77  63  73  63  76  63  83  79  76  72  63  69  71  46  45  43  39  33  31  31  31  33  34  42  38  70 233 223 228 225 237  23  44  42  44  54  45  49  58 151 207 201 189 190 198 196 195 186
 186 188 184 193 194 196 200 212 182  99  28  41  49  39  45  42  41  40  41  42  40  39  16 238 205 173 177 130  59  21  31  29  26  29  32  30  27  26  30  35  39  44  55  55  62  51  58  62  61  59  61  64  62  59  61  52  50  40  42  34  36  35  31  30  31  24  39  27 152 217 228 225 227 223 237  20  40  44  46  43  51  47  52  46  37  85 169 211 203 193 190 195
 190 191 185 189 203 187  98  39  32  52  51  49  41  49  38  45  41  42  42  42  40  39  20 225 208 188 214 209 180 100  50  29  26  35  33  31  27  27  31  31  32  43  38  53  47  43  48  52  51  54  58  58  55  52  44  42  34  42  34  31  32  34  33  30  26  38  16 195 229 222 228 227 229 225 238  11  41  44  45  48  47  41  48  53  53  49  38  32  81 171 216 202
 183 208 198 117  49  38  54  55  50  48  46  48  47  42  44  43  41  42  42  42  40  40  25 190 206 204 204 206 207 164  63  41  28  39  24  29  30  28  32  30  29  30  39  34  38  40  45  42  47  45  44  46  44  44  35  35  36  37  35  31  33  35  32  28  34  34 107 224 220 231 231 231 233 226 240  12  45  41  44  46  45  51  46  49  44  51  48  50  51  37  37  92
 148  70  33  59  54  56  51  51  50  48  48  47  46  46  42  43  42  42  42  42  42  41  35 133 207 203 202 204 206 199  96  86  47  28  30  33  25  28  26  28  34  34  33  32  35  37  38  29  37  34  36  43  35  39  33  33  32  30  30  27  30  30  33  38  29  87 216 218 226 230 237 235 233 227 234  20  44  44  44  44  45  46  47  47  48  48  47  46  48  49  45  59
  54  54  55  47  56  50  48  48  47  48  48  46  46  45  43  42  42  41  42  41  43  41  40  68 211 209 205 206 195 203 200 201  88  56  38  33  28  26  25  24  29  30  29  31  33  29  36  29  32  39  34  31  33  32  26  31  28  31  31  37  31  26  36  34  92 192 217 224 233 235 238 238 231 225 216  30  41  47  44  44  45  46  47  48  48  47  47  47  47  46  45  47
  58  49  53  53  49  46  48  47  47  48  48  47  48  44  45  44  43  42  43  43  41  40  40  33 198 211 207 209 205 215 201 191 200  93  67  32  33  28  28  29  30  29  29  28  32  24  27  36  26  26  43  37  32  30  27  32  30  33  32  29  26  37  28 106 192 230 227 232 238 243 238 236 227 220 194  38  41  46  46  44  45  46  46  47  47  47  48  48  46  45  46  47
  48  49  46  47  47  47  48  47  48  47  47  47  47  46  44  44  42  41  42  42  41  43  40  24 182 203 209 211 211 210 213 210 204 191 147  76  49  36  24  32  27  24  32  27  24  29  28  31  29  24  28  31  29  29  30  33  32  26  41  37  34  23 175 187 204 226 236 239 242 241 242 232 236 223 168  45  44  44  43  45  45  47  46  46  47  48  48  48  44  43  42  43
  50  49  48  47  48  48  47  48  47  49  49  48  47  46  44  44  43  42  43  41  42  43  41  24 159 197 209 212 211 211 214 214 209 210 189 148 159 101  44  40  42  33  27  25  25  28  28  29  29  27  31  29  29  30  35  31  34  36  40  38  57 165 206 222 225 233 238 244 244 244 244 235 231 223 119  43  45  42  44  45  45  47  47  46  47  48  48  48  45  44  42  43
  49  46  47  48  47  44  48  46  48  49  49  47  48  46  44  44  45  45  45  44  43  39  41  35 118 189 210 213 209 209 216 217 216 213 202 183 194 142  79  77  40  41  38  32  28  32  27  28  28  30  29  30  28  30  34  38  43  58  35  94 170 223 223 226 232 237 241 245 245 246 246 240 228 227  62  47  46  39  45  45  45  47  46  46  47  48  48  48  45  45  43  40
  47  48  47  44  44  46  46  48  47  49  49  48  49  46  43  44  45  45  43  43  43  46  44  38  87 185 207 214 215 211 216 219 220 218 213 206 178 180 157 121  71  49  34  42  36  40  32  34  35  39  32  34  36  40  42  49  62  47 147 164 212 214 221 232 238 243 247 244 246 247 245 242 231 229  33  50  43  42  45  45  45  47  47  46  47  47  49  48  48  47  45  44
