P2
# Generated by OpenCV 4.2.0
92 112
255
 160 160 160 160 160 160 162 158 162 163 162 161 164 166 165 165 164 165 166 162 160 162 161 163 165 166 164 167 169 183 182 146 105  80  95 112 142 140  85  58  79  77  73  79  88  73  89  63  72  93  79  50  43  61  57  53  86 131 171 185 179 173 167 168 170 176 173 169 172 172 171 170 170 166 172 170 172 200 202 202 203 202 202 202 203 203 203 202 202 202 202 202
 162 160 160 160 160 161 164 162 161 161 163 164 161 160 162 165 164 164 163 162 163 162 160 164 162 165 164 168 170 122 116 103 108  73  93 116 112 117  88  86  76  83  83  95  67  74  90  65 109  91  42  53  92  71  68  68  68  56  53  94 130 160 181 179 174 172 173 171 172 170 169 172 170 171 171 170 174 201 203 202 202 202 202 203 201 203 203 203 203 203 203 203
 158 159 162 162 161 162 162 160 160 163 163 163 165 166 163 160 161 163 161 163 164 165 166 163 163 168 168 163 139  58  94 106 113  90  88 107  88  89  90 100  93  91  96  87  59  94  77  89  95  44  55 100  70  68  85  66  43  25  23  39  63  58  86 119 168 182 171 172 169 170 170 170 170 172 171 169 173 201 205 204 203 203 203 203 202 203 203 203 202 203 203 203
 161 161 160 160 161 163 163 163 164 162 163 163 166 165 161 159 159 160 162 162 163 161 164 157 157 151 101 142  94  62  92  92 105  87  88  81  73  71  84  84  91  92  92  62  70  81  78  88  61  47  87  68  67  56  66  39  33  40  45  80  56  34  27  34  63 130 178 174 167 170 170 168 167 169 172 170 174 201 203 203 203 203 202 202 202 202 202 202 202 203 204 203
 161 161 161 161 160 160 163 165 165 162 164 164 165 163 162 161 160 161 163 166 160 150 154 159 143  97  90 112 103  78  80  86 100  81  87  80  71  65  81  79  80  81  80  61  65  67  81  71  57  75  73  76  57  59  57  35  43  42  76  61  54  48  40  48  45  47 104 167 177 170 168 167 169 171 170 169 174 200 204 203 203 202 202 202 203 202 203 203 202 203 203 202
 163 160 162 162 161 159 163 162 163 163 162 163 163 163 161 160 158 161 163 163 154 115 104  91  99  69  96  95  89  83  72  88  88  70  78  75  86  69  76  75  72  77  77  63  57  72  75  63  67  80  82  75  42  69  43  42  29  53  78  47  54  47  40  46  44  46  54  78 157 177 169 170 170 171 169 169 172 201 204 203 203 203 202 202 201 201 201 201 201 202 202 202
 162 159 159 162 161 160 161 159 162 162 164 164 163 163 163 163 163 161 160 160 158 110  99  94  92  78  70  90  70  77  65  82  83  69  65  66  89  81  65  72  65  82  76  57  58  70  70  64  76  64  86  63  58  64  38  44  28  58  62  50  39  47  45  60  66  56  49  53  81 155 173 168 169 169 170 169 172 200 203 202 202 202 201 201 202 201 200 201 201 202 202 203
 161 161 161 161 160 160 162 163 163 162 162 163 162 162 162 163 163 161 159 156 157 125 107  90  92  84  72  78  76  70  62  76  80  64  59  54  72  89  64  63  61  81  71  53  56  69  60  63  74  65  82  57  53  57  45  36  33  63  59  48  41  54  72  71  47  34  25  27  44  77 152 175 171 172 170 171 171 199 202 202 202 202 203 202 202 201 201 202 202 202 202 202
 161 161 159 159 161 161 162 161 161 160 159 159 159 162 162 164 163 161 163 162 157 107  97  92  77  83  76  66  77  66  60  75  73  62  54  54  61  86  69  55  65  85  67  46  65  72  50  68  72  69  75  52  51  55  46  31  48  59  52  35  40  73  78  54  57  63  46  21  14  39  88 164 173 170 170 168 172 202 205 206 205 204 203 203 203 202 202 202 202 202 202 202
 159 160 160 160 161 159 161 162 161 162 162 162 163 163 162 163 163 167 163 148 123  79  81 100  64  67  71  55  68  66  51  72  69  64  46  50  58  83  71  50  66  81  65  45  71  63  51  73  64  63  69  54  52  55  54  33  56  62  55  38  57  63  61  59  63  63  50  40  30  23  66  98 169 166 169 169 173 199 202 201 201 201 202 202 202 202 202 202 202 202 202 202
 158 160 161 160 161 160 160 161 161 162 163 162 161 160 161 162 163 145 105  90  90  83  73  89  77  57  66  53  53  62  60  75  67  58  45  55  54  85  65  42  66  80  61  55  78  55  59  66  60  67  75  60  50  52  63  40  61  56  55  48  54  53  56  51  55  72  57  57  49  35  53  74 151 168 170 169 171 197 201 200 200 200 200 199 200 200 200 200 200 200 200 201
 159 157 161 161 160 159 160 162 162 162 163 163 160 161 162 159 143  91  89  83  76  76  69  73  91  59  54  52  51  53  63  78  58  61  42  55  53  78  66  43  65  71  53  57  76  47  62  71  59  62  67  59  55  45  62  40  61  47  45  49  47  49  42  57  76  70  54  50  44  43  48  85 121 175 167 167 170 201 204 204 203 203 203 204 204 204 204 204 204 204 203 203
 161 158 160 160 161 164 162 162 163 160 160 162 164 163 160 167  86  61  84  70  70  74  62  57  76  61  52  52  49  47  59  78  53  64  47  52  56  76  66  42  55  65  53  56  63  46  65  68  51  59  70  57  46  44  60  40  54  46  41  39  42  37  53  72  53  49  52  51  45  42  38  70  89 161 167 169 172 200 205 203 203 205 204 203 203 204 204 204 204 204 204 205
 159 160 160 160 161 164 163 163 165 162 162 160 164 151 160 141  79  40  60  61  60  73  59  45  70  55  49  47  45  46  60  75  52  61  52  47  52  69  66  46  56  57  46  54  62  50  59  55  46  60  72  53  42  42  66  47  55  57  56  51  44  42  64  40  45  72  68  70  69  60  58  59  62 124 173 169 172 199 204 203 203 203 202 202 202 202 203 203 203 204 204 204
 158 159 162 160 161 162 161 162 162 162 160 163 160 147 144  86  80  86  73  64  56  58  53  39  60  50  44  45  44  40  59  73  54  66  51  48  53  60  66  50  51  39  37  62  64  46  61  53  45  58  62  51  48  49  66  52  62  80 110 110  84  71  59  40  59  57  66  74  78  66  58  53  43  57 149 174 169 202 205 204 205 204 204 204 204 204 203 204 203 203 203 203
 158 160 161 161 161 160 159 160 159 161 160 163 161 150  99  69  67  85  87  83  69  59  52  50  46  46  42  48  47  41  62  72  50  58  53  44  53  51  59  46  48  39  40  68  58  50  65  45  44  49  60  53  57  62  63  76  95 121 153 166 142 126 104  65  56  50  57  58  55  51  47  39  41  32  70 164 181 203 207 205 206 206 206 206 205 204 205 205 205 205 206 206
 157 162 163 161 162 160 159 158 160 161 162 162 145  83  84  86  68  66  73  79  78  73  69  71  55  47  45  50  58  43  67  66  49  48  50  40  51  55  51  42  51  51  51  67  62  55  56  48  46  45  60  62  71  83  90 109 151 163 180 195 185 184 178 132  83  52  38  40  50  59  48  36  34  27  19  76 178 205 204 203 203 204 204 204 204 204 204 204 206 205 206 205
 160 159 162 160 161 160 160 161 163 165 164 150  92  61  73  65  68  66  63  62  69  71  69  77  75  60  50  53  63  51  65  71  56  43  48  44  55  60  54  55  59  60  67  71  68  62  47  53  54  50  63  80  93 110 133 140 181 183 198 210 208 207 197 186 153  94  55  62  64  65  60  50  42  36  23  16  92 214 208 206 206 205 204 205 205 205 204 204 204 203 203 203
 156 158 160 160 160 160 160 161 164 166 166 116  72  73  77  67  58  60  68  75  76  79  79  78  78  76  56  57  70  68  71  72  66  49  48  52  54  65  63  66  66  71  67  76  63  56  50  59  67  69  81  96 121 140 170 181 201 205 213 218 218 216 210 207 201 154  95  69  74  78  82  84  77  64  47  35  23 138 219 210 208 208 209 209 207 209 208 208 208 207 207 206
 158 159 159 159 158 160 160 159 163 170 125  39  74  63  52  65  68  63  63  72  74  86  97  95  83  78  74  64  71  79  78  72  69  64  62  65  59  65  65  65  68  77  69  73  68  66  60  75  89 102 103 118 150 171 190 205 212 217 219 222 223 222 223 218 209 198 149  87  60  61  63  59  63  58  48  42  30  83 179 216 206 208 208 208 208 209 209 209 208 208 208 208
 162 158 159 157 159 159 159 160 162 166  83  41  62  68  58  56  56  58  68  75  97 118 127 117 105 113 112  98  95  97  92  84  88  84  81  83  75  75  77  73  81  89  90 101  92  95  90 109 135 146 145 151 180 195 202 217 218 221 222 222 223 225 226 221 216 212 196 145  88  70  66  63  58  46  44  36  32  50 119 179 215 206 207 206 206 205 206 206 204 205 205 205
 157 156 160 161 162 158 158 159 164 147 100  57  31  51  59  56  61  66  67  96 148 163 166 168 172 171 153 143 130 127 109 101 102 101 101 108 111 110 104 108 118 125 146 177 158 155 164 165 173 185 177 186 207 210 215 222 221 223 223 223 224 226 224 222 218 213 208 184 125  78  77  69  70  56  39  36  34  24  84 123 202 209 207 206 206 206 206 206 206 206 206 207
 154 157 158 163 162 160 158 159 164 144 128  54  34  40  43  61  85  76  90 169 188 195 195 202 204 198 194 194 171 159 152 137 123 125 150 161 172 176 177 181 191 197 205 209 210 206 210 197 197 203 205 210 218 221 221 221 224 223 223 223 223 226 222 216 219 214 209 197 156 112  83  70  66  63  45  33  29  28  44 144 164 214 207 208 207 207 208 208 208 209 208 208
 157 155 157 159 161 162 161 160 164 141 132  48  44  51  66  81  82  66 157 206 204 205 207 213 212 211 213 212 205 189 188 179 180 179 195 204 205 206 208 211 215 217 219 221 219 219 219 215 215 216 217 220 221 222 223 223 222 223 223 223 223 223 222 217 215 214 209 206 191 143 101  77  76  69  58  40  27  24  19 126 180 203 210 209 208 208 208 208 208 209 208 209
 159 156 157 157 158 159 158 159 167 141 105  46  54  67  75  91  71 122 210 209 212 212 218 217 216 216 217 218 215 208 207 204 207 216 217 218 218 217 218 221 221 223 224 224 223 222 223 221 221 220 220 221 224 222 222 222 222 223 221 223 223 222 220 219 215 210 208 208 206 173 130  86  72  65  58  44  34  28  22  62 188 183 209 211 210 210 210 210 209 209 209 209
 155 154 158 158 157 160 160 159 166 124  86  50  62  68  82  81  80 192 211 216 215 216 219 218 219 219 219 219 218 220 220 220 220 221 223 225 223 223 226 227 226 225 227 226 225 225 224 225 224 224 223 223 223 222 222 222 222 222 221 221 221 221 220 220 217 210 207 208 208 196 155 112  78  68  54  41  35  33  25  21 164 189 200 208 207 207 207 207 207 207 207 208
 158 156 153 156 158 158 159 160 167 103  70  48  61  66  77  63 137 216 212 221 217 217 219 220 220 220 220 222 224 224 225 225 224 225 226 225 224 226 228 228 228 227 227 227 226 225 223 225 225 225 224 224 224 223 223 223 222 220 219 220 221 220 220 220 217 212 208 209 211 206 178 124  89  79  61  46  32  34  28  12 115 219 201 207 211 210 210 211 210 210 211 211
 159 157 155 157 158 158 162 152 167  97  46  56  55  60  73  88 183 213 215 223 220 218 217 219 220 219 220 223 226 227 226 227 227 227 225 226 226 227 229 230 230 230 227 228 227 225 225 226 225 226 226 224 223 223 222 221 221 220 218 220 218 218 218 216 215 212 212 209 210 210 196 149  96  82  68  50  36  30  30  21  54 206 208 206 212 212 212 211 211 211 210 210
 154 153 157 156 154 157 160 153 157  90  48  47  45  62  91 128 209 208 215 222 220 219 218 220 221 222 224 224 226 226 227 228 228 227 229 230 230 229 230 231 230 227 228 228 228 226 228 227 228 228 227 224 223 222 221 220 220 221 221 218 218 216 214 214 213 213 213 211 211 210 201 168 113  72  80  54  41  29  29  23  23 181 216 211 210 211 210 211 210 210 211 211
 155 154 158 153 155 158 158 147 131  85  39  39  41  74  99 153 215 209 214 218 219 219 218 222 223 223 223 224 226 227 227 226 227 226 229 230 230 230 229 229 228 224 226 227 227 227 227 227 228 228 226 223 223 222 222 219 218 220 220 217 217 217 214 214 214 214 212 210 213 213 209 174 128  82  71  54  40  32  22  18  27 190 220 213 212 211 211 212 212 212 213 214
 155 152 154 155 156 156 159 145 130  68  36  38  45  90 107 184 216 208 213 216 216 217 220 222 222 221 221 223 225 227 227 227 226 227 227 228 228 228 229 228 226 227 227 226 225 227 227 227 226 227 224 222 222 222 222 219 219 217 214 216 214 216 217 215 214 213 210 209 213 213 216 192 134  93  63  60  42  36  22  24  23 184 219 207 206 210 209 208 208 209 208 208
 156 152 154 156 155 151 156 153 117  67  33  38  69  89 122 203 214 212 214 215 216 217 216 218 220 220 222 223 225 226 226 226 227 225 225 228 226 228 228 226 226 226 227 225 224 224 223 225 224 223 221 221 221 220 219 218 216 215 214 215 216 218 215 215 213 213 211 210 211 212 216 201 157 100  69  65  49  35  28  28   9 126 232 224 225 226 227 226 227 227 228 228
 156 153 153 154 158 156 156 160 106  71  35  55  78  75 147 213 214 213 215 216 216 216 214 216 219 220 221 224 223 224 226 227 228 226 227 226 226 227 226 226 225 226 226 222 222 224 223 223 222 222 220 218 218 218 217 216 214 214 215 215 217 217 214 212 211 212 211 210 209 212 215 203 171 111  74  57  52  37  29  26  11  51 245 255 254 249 255 255 255 255 255 255
 153 154 153 153 157 156 157 159 103  55  47  66  59  87 181 216 211 208 213 216 216 215 218 217 215 216 218 220 221 221 223 226 227 224 225 225 225 226 224 225 224 223 223 222 222 223 223 220 220 219 218 217 217 217 217 215 214 214 213 214 214 215 215 212 212 211 210 210 209 210 212 206 182 122  75  59  52  44  28  27  21  19 209 255 254 247 255 255 255 255 255 255
 154 153 153 156 154 155 158 154 122  73  50  55  59 108 197 217 209 209 212 215 216 217 216 215 214 214 217 219 219 217 220 221 223 222 224 225 225 224 223 223 222 221 221 220 220 221 222 220 218 219 217 218 217 217 216 215 214 212 213 211 214 214 214 212 210 209 209 212 211 209 209 204 188 140  73  57  52  43  36  25  25  15 191 252 249 244 249 249 249 249 249 249
 153 154 153 157 156 156 156 159 139  83  39  54  71 130 207 219 210 209 209 212 215 215 212 212 213 215 215 217 216 216 218 218 219 221 225 225 225 227 225 224 220 222 223 221 219 220 221 219 219 218 220 218 217 215 214 212 211 213 214 212 214 214 211 209 208 208 207 213 213 210 207 199 181 153  79  56  44  39  37  28  27  13 152 223 210 200 209 210 211 211 211 211
 155 153 154 157 159 157 155 157 146  66  40  57  77 149 212 214 211 208 207 208 212 211 209 208 213 215 214 216 218 217 217 218 221 223 224 223 222 222 222 222 223 225 225 222 220 221 221 219 220 218 218 217 216 215 213 213 212 214 214 213 212 210 209 207 208 208 206 210 209 207 202 193 175 159  97  56  43  37  36  32  25  11 105 220 209 189 206 208 209 209 209 210
 151 151 154 154 155 156 156 159 138  57  48  54  76 171 211 207 209 208 209 211 209 210 208 208 210 213 214 214 215 217 219 220 220 220 220 220 221 221 222 223 224 223 222 220 219 219 220 220 220 219 218 216 217 216 214 214 214 212 213 214 213 210 210 207 207 208 206 204 202 201 194 189 182 166 111  57  42  37  35  34  29  12  91 222 215 198 213 214 214 213 213 212
 152 153 154 153 154 154 155 155 120  60  39  56  93 192 209 205 209 209 210 212 212 211 209 210 212 214 214 213 215 217 218 218 217 217 219 221 221 222 223 221 223 223 222 222 220 219 218 220 220 221 219 217 220 217 217 216 215 214 213 214 213 210 210 208 206 207 207 199 196 197 193 187 191 172 121  60  44  33  33  33  33  20  87 218 211 203 210 211 211 211 211 211
 154 153 154 155 154 153 156 153 120  53  39  66 115 197 208 207 210 210 210 212 211 210 211 211 214 216 215 214 214 215 216 216 217 216 219 221 222 222 220 221 221 220 222 222 220 220 221 224 220 220 220 219 219 217 217 216 215 214 215 212 214 210 209 209 205 204 202 196 197 199 198 194 199 178 125  69  43  33  29  28  32  24  79 217 210 209 209 208 208 208 207 207
 156 152 154 153 154 153 156 149 121  38  40  65 119 193 204 205 207 210 209 210 209 210 213 213 215 214 213 214 213 215 216 218 218 219 220 222 222 221 220 222 220 219 219 220 219 221 223 223 222 221 220 218 217 217 215 214 214 213 214 212 214 214 210 208 205 202 197 198 201 202 197 196 201 192 132  81  46  33  27  28  26  24  79 212 207 207 206 206 206 206 205 204
 153 154 150 151 152 157 156 156 126  27  38  53 110 184 196 205 207 209 207 207 210 211 212 214 214 214 214 214 215 218 220 221 222 221 222 222 222 223 223 224 222 220 220 221 221 223 224 222 222 223 220 219 217 216 215 216 216 215 215 215 214 214 214 211 207 203 199 199 199 201 198 196 199 191 143  89  48  32  22  23  26  21  77 211 206 205 205 206 206 206 207 207
 149 151 152 154 153 158 157 155 135  25  40  51 108 183 195 205 206 205 204 207 206 209 211 210 212 214 214 216 216 217 220 220 220 222 222 223 222 224 225 225 222 221 224 225 225 225 223 220 219 218 218 217 213 212 212 216 216 217 217 216 216 214 214 210 208 204 202 200 200 198 199 198 198 186 152  91  49  32  19  19  28  20  69 210 206 207 206 207 206 206 205 205
 149 151 151 154 154 155 154 157 145  32  42  46 118 186 196 203 204 203 204 206 206 207 210 211 208 211 212 214 214 214 215 218 221 221 222 223 221 224 225 224 223 225 225 225 224 224 223 221 219 217 213 211 212 211 210 214 217 218 219 217 218 219 217 212 204 202 202 200 198 196 194 196 197 187 154 101  57  32  24  17  17  17  69 211 203 202 202 201 202 201 201 201
 150 151 152 155 154 154 153 156 155  47  43  45 121 183 194 203 204 204 203 204 205 207 206 205 209 210 208 206 210 212 211 212 218 217 220 222 224 224 221 221 223 224 225 223 223 223 222 220 217 215 212 212 211 210 212 212 216 218 217 216 216 217 217 212 209 203 200 199 195 191 192 195 196 192 154 103  63  39  29  24  20  19  74 206 200 200 201 201 201 202 202 202
 151 151 151 153 155 154 153 155 163  63  37  42 110 181 198 202 205 204 203 203 206 210 206 207 209 210 209 208 209 210 210 212 213 214 218 220 222 223 223 223 221 220 220 221 221 219 219 217 215 214 211 212 213 214 214 214 214 215 214 215 216 214 210 210 210 204 196 192 193 192 193 194 197 196 160 103  69  43  32  22  32  27  59 204 200 199 199 199 199 199 199 199
 153 152 153 153 156 156 152 153 161  57  29  41  99 179 198 200 202 204 202 204 209 210 209 209 208 207 206 206 206 207 206 208 210 212 215 217 220 217 219 220 221 218 215 216 216 217 215 213 212 211 210 214 212 211 213 214 214 212 208 209 211 213 211 210 205 199 194 189 189 194 194 195 198 198 166 108  72  46  38  23  20  10  72 243 247 244 244 244 244 243 242 241
 152 154 153 153 151 151 152 154 159  46  26  40  84 181 198 200 200 202 204 206 210 210 213 212 209 208 207 207 208 204 202 204 207 207 210 211 213 215 216 217 217 215 213 213 214 212 209 208 205 204 205 209 207 205 207 205 204 202 186 176 180 191 198 202 197 191 189 190 190 196 196 198 200 199 174 112  71  48  40  26  17  55 146 211 255 255 255 255 255 255 255 255
 155 152 153 150 153 149 150 155 148  31  25  37  80 184 195 196 198 199 203 205 209 211 210 209 210 211 210 206 204 201 199 199 201 199 199 205 209 211 214 213 212 211 209 208 207 206 203 197 190 191 196 189 184 178 180 176 161 151 142 133 130 131 139 162 176 189 194 193 193 196 198 200 201 200 183 115  75  47  39  28  36  79 105 218 255 255 254 255 255 255 255 255
 152 150 151 150 150 149 151 153 146  36  20  35  75 179 196 194 197 195 197 204 209 209 205 204 205 208 200 194 194 193 191 191 187 184 187 193 197 203 210 211 212 212 210 202 196 196 191 181 160 145 126 121 109 105 111 113 112 104 104 109 106 106 113 123 137 161 187 195 193 195 199 202 202 200 194 117  76  56  46  36  58  99 111 184 255 255 254 255 255 255 255 255
 149 151 151 150 147 148 150 150 150  62  26  33  57 168 201 192 197 193 192 203 205 208 203 191 176 167 165 167 160 146 136 127 110 119 141 163 183 191 203 208 209 210 209 203 188 179 171 165 140 102  74  67  66  65  61  68  73  83  99 108 108 114 119 117 115 125 151 180 193 196 197 200 203 199 200 131  78  61  52  49  79 111  80 117 231 230 231 232 233 234 235 236
 152 149 152 153 151 148 150 148 155  95  24  30  54 156 202 191 194 196 194 197 198 189 168 145 138 138 126 108  89  76  72  70  73  80  98 124 157 177 191 200 204 206 207 207 192 159 147 147 126 100  85  79  78  77  79  95 120 151 166 164 162 161 154 147 138 138 158 173 184 194 201 202 203 202 203 149  82  55  55  53  83 101  86 138 183 177 177 177 177 176 176 176
 149 151 152 151 153 149 149 153 151 126  15  26  43 132 206 195 190 193 196 194 177 148 119 103 116  89  71  71  62  57  56  58  65  81  93 106 124 152 171 183 194 200 202 204 199 178 154 142 126 119 125 131 126 120 130 136 134 139 148 157 163 173 185 178 166 163 169 169 181 195 200 204 203 203 206 156  89  63  61  64  72  94  93 145 183 177 178 177 177 177 178 179
 148 149 151 151 153 149 150 149 150 141  36  25  45 109 200 196 193 190 191 182 145 109  88  84  92  88  97 111 119 134 136 133 138 136 127 114 112 121 146 174 189 196 199 202 200 192 178 157 139 150 160 132 113 108  81  82  68  44  57  72  95 110 121 154 175 174 175 181 190 195 198 202 203 201 207 162  90  84  69  72  93  91  96 145 185 179 179 179 179 178 178 179
 148 147 149 153 150 147 149 147 148 144  66  33  38  91 195 195 197 192 183 163 131 104 102 111 130 153 164 181 190 189 174 159 140 134 142 143 130 125 144 180 194 199 201 206 207 202 186 162 142 146 124 111 112 102  59  46  42  26  45  67  64  73 105 120 156 174 180 183 187 194 201 202 200 202 205 173  95  90  82 100 118 101  99 149 183 177 177 177 177 178 178 177
 148 149 148 147 151 149 144 145 143 149 109  30  29  73 190 200 198 192 179 155 129 127 141 154 172 183 169 132  88  73  55  57  63  84  95 116 131 134 148 182 207 215 219 221 220 208 193 160 139 142 146 110 106 181 121  31  23  37  44 123 134  83  87 134 147 164 177 180 190 198 201 201 198 198 202 184  92  94  92 132 122 130 107 147 178 172 172 172 172 173 173 173
 148 147 149 148 149 149 148 148 144 146 131  40  23  58 180 202 194 191 183 159 145 154 169 187 161 116  69  50  60  26  97  72  45  66  91 104 139 149 151 178 212 222 226 227 226 217 196 169 164 187 148 112 161 178 175 119 113 119 148 164 149 141 141 157 160 167 179 189 199 202 201 201 198 197 200 189  87  92  96 112 139 174 119 149 175 170 169 168 169 170 171 170
 148 147 149 150 150 147 149 148 147 156 129  51  31  45 169 206 194 189 184 169 161 168 184 144  85  57  50 123 126  38  36  21  47  92 125 101 148 183 166 175 212 225 227 227 227 222 202 179 180 191 170 169 165 164 162 170 176 171 156 157 154 169 187 190 190 191 196 203 205 205 203 203 201 197 195 192  89  74  82 101 146 180 136 148 171 167 168 168 167 169 169 169
 148 149 151 151 149 152 149 147 149 151 153  98  49  39 153 208 195 195 187 177 172 173 156 101  73  44 107 175 181  84  74 102 125 148 146 150 162 184 172 178 213 225 225 227 227 223 207 190 188 191 180 166 161 164 169 170 163 167 166 168 173 192 195 195 199 205 208 211 210 208 206 205 198 193 192 193  97  59  94 107 133 170 158 152 165 164 163 163 163 162 162 162
 148 150 149 150 149 151 149 150 148 149 152 135  74  39 138 210 196 195 191 180 172 169 140 113  95 124 157 165 173 161 162 171 158 151 146 140 166 180 179 186 210 224 224 227 227 220 206 200 193 194 190 184 184 183 183 179 177 183 187 189 192 196 200 202 201 206 212 213 211 211 208 204 198 193 190 198 111  53 113 112 138 174 163 159 162 161 161 161 160 161 161 161
 146 147 149 149 151 150 148 151 151 153 152 139  97  48 127 210 196 192 193 185 178 168 144 140 162 167 163 156 151 152 147 151 155 150 153 161 171 181 185 194 205 221 225 226 223 215 206 206 202 197 204 205 203 205 205 201 198 201 202 205 204 203 204 206 207 208 212 212 211 211 211 207 200 195 190 197 126  55 128 119 150 184 161 157 157 156 156 156 156 158 158 158
 144 145 149 147 148 151 149 149 151 149 149 155 132  53 121 208 197 193 193 187 182 175 168 180 192 184 170 166 162 163 161 157 159 171 184 184 183 188 192 198 206 221 225 224 219 213 209 209 204 198 204 211 211 211 212 212 213 213 211 210 211 211 213 212 214 214 213 214 213 211 213 208 205 197 192 198 143  63 114 128 157 191 163 152 153 153 154 155 155 154 155 154
 145 146 148 148 148 148 148 147 147 148 147 151 139  70 112 206 196 195 194 195 193 195 192 191 193 193 184 173 170 169 172 183 191 196 193 193 196 192 196 201 208 222 225 225 222 213 209 210 208 202 203 209 214 215 214 214 214 214 214 214 214 215 216 217 217 216 216 217 217 215 213 211 207 200 197 201 154  91 126 132 163 201 162 149 150 152 152 152 151 152 152 151
 147 146 148 148 148 148 150 151 149 150 150 147 149  99  90 199 197 193 198 202 203 204 201 195 192 192 192 187 192 195 201 203 200 198 194 201 202 197 201 204 216 222 224 224 222 219 214 209 210 208 204 205 211 216 215 214 214 213 215 216 216 216 217 219 219 219 217 218 218 216 215 213 210 205 200 202 157  87 110 148 196 198 155 146 148 147 147 147 148 148 149 149
 142 145 144 144 147 148 148 148 149 149 149 147 150 103  78 189 195 195 198 203 206 208 207 201 193 192 194 200 205 205 201 200 199 198 202 207 204 200 205 212 219 222 225 225 223 224 220 211 209 213 211 208 212 215 215 216 217 218 219 218 216 217 218 220 221 221 220 222 218 217 215 212 211 208 202 200 166  96  91 179 204 164 157 147 148 148 149 147 149 149 149 149
 142 143 144 146 144 144 146 146 148 147 147 147 137 101  63 172 197 195 199 206 208 208 206 206 201 203 204 207 207 205 202 201 200 204 209 206 204 205 208 215 220 221 225 225 223 224 220 214 207 209 211 212 215 217 217 219 219 221 223 220 217 217 219 220 220 221 221 221 219 218 217 212 209 208 204 200 166 122 117 159 165 180 167 141 146 145 146 146 146 145 145 145
 144 143 144 144 146 143 143 145 146 149 147 148 142 102  62 150 198 193 199 207 210 209 206 209 212 214 211 210 210 210 209 209 210 210 210 208 208 205 205 216 221 222 224 224 224 223 220 216 208 208 201 201 216 219 218 220 220 222 223 222 221 221 221 222 223 222 220 221 219 220 215 210 207 208 207 204 171 122 136 129 175 201 166 139 144 144 145 144 143 144 143 143
 143 144 145 145 144 145 143 143 144 146 145 148 147 103  79 130 193 188 196 207 210 211 211 213 213 215 215 212 211 214 214 211 213 214 212 211 209 200 202 217 220 222 222 222 222 221 219 215 210 216 214 192 199 216 218 219 222 223 223 222 221 222 223 223 220 223 224 223 220 219 217 212 209 205 204 205 172 110 116 126 178 205 162 141 145 144 144 144 144 144 144 144
 142 143 144 144 143 144 143 142 141 143 144 145 143 125  89 118 184 189 194 207 209 212 213 213 215 216 212 210 213 216 218 214 215 214 212 214 209 193 202 214 215 220 223 223 221 219 215 209 205 216 220 204 170 195 211 218 220 221 223 221 221 221 222 220 218 222 224 222 221 219 217 212 208 205 204 205 173 104  98 142 174 204 155 147 149 149 149 149 148 148 148 147
 142 141 142 142 142 145 144 142 141 143 143 146 144 141  94 104 175 193 195 203 208 211 212 214 216 210 208 215 218 219 218 217 216 215 212 211 198 199 204 197 204 210 214 209 205 201 193 185 187 202 209 203 159 163 191 205 211 213 217 218 217 218 220 222 219 220 222 222 220 219 217 214 207 206 204 202 172  99  85 132 185 192 146 148 149 149 149 149 148 148 147 147
 140 140 141 142 142 141 144 143 142 142 144 146 145 147  99  90 163 194 196 200 208 212 213 215 213 212 216 219 219 217 217 216 218 216 210 202 180 201 196 176 180 190 191 189 180 168 147 111  90 120 164 180 157 145 165 186 195 205 208 211 211 217 216 219 218 219 219 218 217 215 214 213 209 207 203 202 166  95  86 128 186 178 144 148 148 147 147 147 147 146 147 146
 141 142 141 142 142 140 142 144 142 143 144 142 143 148 105  89 158 192 194 200 208 211 215 214 215 217 218 219 218 218 217 216 215 210 204 187 163 182 160 103  96 135 157 165 156 139 111  63  58  67 114 145 153 159 150 167 184 197 204 207 210 212 211 215 216 218 216 217 214 213 213 209 206 203 200 199 163 105  85 104 171 166 142 145 144 144 144 144 146 145 145 144
 139 142 143 142 142 138 144 143 143 142 143 141 141 151 114  91 139 189 194 199 207 212 213 212 216 216 216 215 215 217 216 214 208 203 192 168 166 166 127  61  46  83 117 112 113 118 120 138 147 137 123 151 181 188 168 155 170 184 196 202 206 207 209 211 210 213 212 211 210 206 206 207 205 202 199 197 157 123  88  83 141 147 141 142 142 142 142 144 143 143 143 143
 136 141 141 142 142 141 144 144 143 141 142 141 140 149 115 100 130 181 194 197 205 210 210 210 213 215 214 213 212 213 213 207 204 194 180 162 178 187 152 121 143 142 114  97  97 107 130 140 137 149 176 191 199 199 194 168 158 173 188 197 201 203 206 206 208 207 206 206 206 203 203 201 199 198 196 192 151  94  82  86 126 140 139 140 140 140 140 141 140 140 140 140
 141 140 139 140 143 142 144 142 140 141 141 143 141 146 119  92 123 173 194 197 202 207 206 207 210 211 210 211 210 208 207 204 198 186 170 164 190 197 192 173 143 140 136 134 139 134 132 124  93 110 161 177 200 202 200 194 161 162 183 194 200 202 203 203 204 203 201 203 203 201 200 200 197 195 191 186 147  85  77  81 136 137 138 138 140 139 139 139 139 139 139 139
 137 139 139 139 142 141 141 140 140 143 143 142 141 145 120  83  92 149 197 195 201 203 203 206 209 209 208 206 206 204 203 199 192 181 167 183 199 200 199 185 141 110 113 120 142 158 129  94  85  85 113 135 165 192 203 206 191 155 171 190 198 197 199 198 199 200 201 199 199 199 199 199 197 192 188 179 134  82  67  95 145 137 137 137 137 137 137 138 138 137 137 137
 136 136 137 139 138 138 141 141 140 144 143 141 142 145 116  81  79 120 193 196 199 200 201 205 205 204 204 202 204 203 197 195 188 175 178 198 202 201 186 141 116  88  91  98 119 166 128  76  74  75  91 114 130 152 178 196 199 173 153 183 193 194 197 194 195 195 191 191 195 197 199 194 190 190 183 169 124  68  55 125 138 135 135 135 134 134 134 135 135 135 136 137
 136 135 137 138 138 137 138 140 143 142 141 142 142 146 113  80  82  90 183 198 200 200 200 205 200 200 198 200 200 197 195 191 185 180 191 202 203 190 158 112  93  74  91  97 125 185 172 123  89  77  85  82 114 129 129 134 152 168 147 163 185 191 192 194 193 190 189 191 194 196 196 193 187 184 179 154 101  56  94 137 134 133 134 133 133 133 133 133 133 134 134 134
 137 138 137 136 138 140 139 139 143 141 139 143 144 144 121  91  88  85 167 199 200 201 200 199 195 196 197 198 198 194 192 187 185 188 198 189 171 163 121  88  81  86 107 124 165 201 208 195 149  98  93  98 100 126 110  96 104 119 134 149 178 188 191 191 190 188 187 189 190 191 190 189 184 177 171 139  74  70 133 136 131 131 131 131 131 131 131 131 131 131 131 131
 135 137 134 137 138 139 141 140 142 139 139 139 140 142 130  86  87  78 138 199 198 201 202 196 192 192 195 197 195 193 187 182 187 192 192 145 133 126 114  92  88 100 114 141 191 196 196 185 142 129 110 120 111 125 120  92  84  98 111 131 171 187 193 191 187 189 188 187 191 188 186 186 180 171 161 126  70  63  78 128 133 130 131 132 131 131 131 131 131 131 131 131
 136 136 138 138 138 136 138 139 142 139 139 140 140 142 138  78  73  78 108 192 196 197 199 195 190 191 193 194 190 188 182 182 184 187 148 106 113 123 118 102  99  90 105 108 126 142 142 127 122 121 122 118 113 111 106  88  70  76  92  95 155 191 192 194 192 192 190 186 187 190 187 184 175 163 159 107  62  54  73 126 128 127 127 128 129 128 127 128 129 129 128 128
 133 137 137 137 137 135 136 139 142 137 140 137 139 139 144  93  54  76  96 172 195 195 197 195 190 190 189 189 187 186 183 182 181 174 101  85 109 132 125 106 103  94  99 109 117 127 125 122 119 116 113 107 108  95  59  30  43  58  69  74 131 193 191 192 194 192 185 188 182 188 189 175 165 155 137  75  52  50  89 132 125 124 123 123 124 124 124 124 124 124 124 124
 134 135 138 137 136 137 136 138 139 138 140 140 138 134 140 132  54  53  71 144 192 192 192 190 191 188 187 189 187 186 184 181 182 154  80  86  73  73  81  84  81  73  74  83  97  88  88 116 128 132 127 122 121 111  98 118 139 122  74  84 125 192 196 194 189 189 188 183 177 176 182 162 159 148 117  58  47  52 108 131 126 125 124 125 125 124 125 125 125 125 125 125
 134 135 136 136 137 138 135 136 137 138 141 140 138 138 138 139  83  46  54 113 181 187 190 189 189 185 188 185 187 187 187 185 195 131  82  78  56  63  74  92 101 108 125 146 160 160 173 185 181 176 178 171 158 162 173 175 171 171 117  96 130 197 196 194 190 188 184 178 176 170 171 158 144 139  92  48  42  66 126 126 126 126 126 126 126 126 126 125 125 124 123 123
 135 136 134 135 137 138 136 137 137 138 141 142 138 138 138 140 130  58  45  87 160 180 187 186 185 186 187 186 186 189 192 194 198 119  78  95 150 162 145 147 160 174 175 179 184 184 190 191 188 180 176 175 179 189 194 190 181 183 147 120 155 203 199 191 184 181 176 166 171 163 164 140 134 121  71  42  40  87 120 116 116 116 116 116 116 116 115 115 115 114 113 113
 137 135 134 136 134 136 134 137 137 139 140 140 138 137 137 136 143 110  50  59 123 172 177 177 182 185 188 187 182 186 192 199 189 106  91 155 178 177 177 169 164 166 172 179 173 162 172 172 172 169 175 182 190 196 199 198 194 195 181 129 155 206 200 186 176 167 167 154 163 161 145 128 133  96  50  43  41 111 130 126 126 126 127 127 127 127 127 127 126 127 127 127
 133 135 136 134 134 136 135 136 137 136 139 139 137 139 135 135 135 135  77  60  95 149 165 171 172 178 181 187 188 187 193 194 179 114 143 185 187 186 192 187 177 172 160 157 150 143 147 157 165 170 181 189 191 196 201 201 201 199 192 165 159 197 196 178 167 159 161 155 152 147 135 129 115  60  42  41  52 137 146 144 144 144 144 144 144 144 143 142 142 142 142 141
 133 135 136 133 135 135 134 136 136 136 138 135 135 136 136 133 136 137  96  50  70 129 156 153 163 169 176 184 190 186 189 192 185 125 150 195 193 193 191 188 184 181 171 162 162 165 166 174 179 184 187 191 191 197 202 204 206 204 200 192 178 183 181 161 145 148 147 145 138 133 129 112  86  48  35  29  61 156 158 156 156 156 156 156 156 155 155 155 155 155 155 155
 134 135 135 137 134 137 136 136 137 139 137 137 136 137 137 136 135 138 127  62  58 100 148 149 150 154 162 179 182 180 184 192 180 145 163 187 193 194 191 188 184 182 178 175 162 150 153 152 161 175 184 191 193 200 204 207 208 206 206 198 187 175 161 138 129 130 144 139 119 107  99  80  58  37  32  34  88 162 162 161 160 161 160 160 160 160 160 161 160 161 161 160
 134 136 136 135 136 135 136 135 136 141 140 137 138 137 136 136 134 136 144  95  47  66 126 136 137 141 151 159 170 167 177 182 182 161 173 186 191 194 191 189 183 177 173 166 145 116 113 140 159 176 189 194 199 202 204 205 207 207 203 196 186 165 137 121 112 116 128 129 101  86  67  54  41  31  17 107 157 152 162 160 161 161 161 160 161 161 161 161 160 160 160 159
 137 136 133 135 136 135 134 136 136 136 139 138 137 138 135 136 133 136 136 123  54  44  87 119 130 128 137 153 155 157 164 169 179 167 178 191 194 194 193 191 187 179 172 165 142 115  99 143 169 178 194 196 200 202 206 207 207 205 196 172 154 142 123 118 106 104 104 103  79  67  51  36  31  27  13 186 210 142 163 157 157 157 157 157 157 157 157 156 156 156 156 156
 137 135 136 136 137 135 135 134 136 136 138 139 136 135 136 136 135 135 135 138  76  42  52  94 118 123 122 119 136 145 151 156 160 156 177 189 194 195 192 190 189 183 175 173 161 119 102 139 174 188 198 201 205 205 208 208 206 202 183 140 128 117 102 106  96  81  92  82  58  48  41  29  23  20  31 221 231  98 149 164 158 159 159 159 159 159 159 160 159 160 160 160
 136 136 135 135 137 136 134 134 135 136 136 137 137 137 135 136 135 135 134 133 107  44  39  66  94  99 117 108 111 121 130 136 140 148 175 183 193 196 195 195 194 186 186 193 184 140 118 151 188 198 202 206 204 208 212 208 205 199 180 126 107  91  89  84  78  74  80  60  45  40  36  27  22  11 100 243 253  98  52 155 162 159 158 158 159 157 157 156 157 157 157 157
 139 138 137 136 136 135 134 136 135 136 137 136 137 133 133 132 133 135 133 126 123  67  33  50  64  83 110  99  91 103 119 103 132 157 146 161 190 195 198 202 201 201 201 202 198 158 122 173 199 207 211 211 208 213 212 209 202 190 165 124  80  65  63  69  69  70  64  47  34  32  26  24  27  24 173 250 254 146  11  97 169 160 158 159 160 159 158 158 159 159 158 159
 136 136 136 135 135 135 135 136 137 136 137 135 136 134 132 132 134 134 128 131 132  91  33  36  42  59  88  84  82  93  99  80 130 142 116 143 179 199 202 204 208 207 207 207 208 175 124 154 201 205 212 213 215 211 210 207 203 192 152 116  70  49  57  59  52  55  50  34  34  29  19  21  15  68 220 239 249 190  19  46 137 160 152 153 152 152 153 153 153 154 155 157
 133 136 138 136 136 136 136 135 136 137 136 136 135 134 135 134 135 135 131 127 136 104  28  27  31  36  58  64  66  85  78  80 110 105 108 131 163 194 197 206 209 212 210 210 200 177 149 123 173 179 181 194 198 209 209 202 201 186 135  98  74  43  45  45  32  35  37  29  25  19  17  20   4 109 254 235 242 228  44  31  81 180 199 200 205 209 215 220 223 226 229 232
 136 136 135 135 135 135 134 134 134 135 135 136 135 135 134 133 133 131 135 130 135 127  50  26  27  31  38  49  51  69  63  64  77  74 105 109 129 168 187 207 211 207 210 208 181 157 167 135 144 175 151 172 186 189 195 193 195 168 109  76  59  35  29  30  28  23  26  23  19  18  18  21  18 169 243 237 238 250  85  25  37 153 255 249 249 249 249 248 247 246 247 246
 137 137 134 135 135 134 136 135 134 134 135 136 135 133 132 134 133 133 133 131 132 136  73  24  22  30  28  32  44  48  49  51  53  66  90  83 114 146 168 203 208 192 195 184 164 143 157 160 126 138 124 139 160 163 165 189 190 146  76  56  42  33  22  20  30  26  23  17  18  23  21   7  63 213 233 238 236 253 109  21  40  50 210 255 242 247 247 248 246 247 247 246
 138 138 139 138 136 136 136 136 135 137 134 133 134 134 135 135 133 133 132 130 141 106  51  34  25  25  27  26  33  37  36  36  42  48  55  69 100 111 156 193 195 168 163 147 142 139 139 152 121 106 111 117 117 126 139 147 154 116  62  44  35  30  20  15  24  23  21  17  17  22   7  64 196 234 229 236 236 252 113  21  46  39  62 213 234 227 228 227 229 228 228 229
 136 137 139 137 136 137 137 137 136 137 136 133 136 137 135 133 132 134 134 142 114  53  53  45  29  21  18  19  23  26  26  31  28  33  39  52  66 104 141 177 162 146 142 136 123 120 123 127 123  98 100  90  99 106 114 116 105  66  52  40  34  27  24  17  21  23  15  16  15   7  34 164 223 230 237 236 235 251 106  21  42  46  38  51 134 157 149 150 151 150 150 151
 137 138 138 136 139 137 137 137 138 137 137 137 134 136 137 132 132 130 142 120  51  48  48  45  71  20  14  14  14  15  20  27  20  23  30  40  48  70 121 147 130 127 119 125 105  99  99 118 116 103  86  69  80  86  89  83  71  46  32  29  31  21  21  17  21  18  16  27  18  10 143 244 232 235 236 237 236 251  93  22  42  42  47  40  56 136 157 149 149 149 148 148
 139 138 136 136 137 138 137 140 139 138 137 134 137 137 134 132 130 142 116  53  48  51  42  50 170  68  19  14  15  13  17  24  19  24  24  26  33  46  85 118 112  94  83  92  87  89  83  92  85  93  85  67  64  71  62  52  40  31  26  21  21  16  17  17  17  14  18  29  12  61 227 230 235 236 236 236 236 246  73  28  41  41  44  46  43  62 137 156 149 148 148 147
 139 138 139 140 139 138 137 137 138 139 137 136 136 137 134 134 139 113  54  52  51  50  38  57 213 182  67  13  19  17  16  19  20  23  14  16  19  30  47  74  75  76  68  64  69  68  62  61  66  75  71  62  43  45  45  31  25  20  25  18  15  18  14   9  14  19  21  15  45 173 242 234 234 237 237 236 239 230  47  34  40  41  43  45  45  41  63 135 156 151 148 148
 141 140 141 142 140 140 138 137 138 138 138 138 137 135 135 142 105  51  53  52  51  50  36  64 234 228 170  53  15  13  15  16  23  17  10   9  14  22  33  39  50  54  53  50  55  54  54  52  58  58  54  52  34  31  32  26  18  14  20  23  20  15   9  12  17  19   5  91 215 237 233 233 236 238 239 237 245 203  28  37  40  41  41  43  44  46  44  61 115 138 149 149
 139 141 141 141 140 140 139 141 138 140 141 140 142 143 143 105  50  52  53  52  51  50  33  73 243 237 247 167  62  29   9  31  19  19  18  13  17  17  22  32  34  36  45  45  36  40  43  44  49  39  46  36  22  26  20  20  16  15  21  20  18  15  12  15  16  14  97 218 228 227 232 236 238 239 238 235 251 166  18  40  41  41  42  42  43  45  46  45  51  67  91 118
 141 144 143 142 141 141 144 140 141 143 148 141 129 104  79  54  54  55  52  50  50  50  31  74 248 241 244 246 135  49  30  28  17  17  18  20  22  20  20  27  26  28  36  33  22  31  28  23  36  28  33  24  15  16  17  17  18  17  16  15  15  14  14  16  15  90 202 223 222 229 234 238 239 239 238 236 253 109  19  40  40  41  41  42  44  44  46  45  46  50  51  58
 146 146 144 145 142 142 145 146 149 134 106  79  63  57  55  56  55  54  52  51  52  50  30  66 245 239 240 245 202 130  77  25  21  16  14  14  11  17  29  22  20  25  28  30  16  21  25  22  27  23  23  11  13  13  14  18  15  18  14  14  10  15  18  16  66 207 218 221 226 232 237 239 239 240 240 239 240  64  29  40  41  41  42  42  43  44  43  44  46  47  48  47
 146 145 144 147 152 150 140 115  84  63  58  60  63  60  57  55  55  54  54  52  52  50  32  57 239 239 239 239 229 227 199  87  45  24  19  15  13  15  20  20  19  26  16  21  19  21  18  38  31  22  22  13  16  15  14  17  18  18  15  16  17  22  33  72 177 222 218 226 232 235 239 240 242 242 241 247 206  31  36  41  41  40  41  43  44  43  44  45  45  46  48  48
 146 146 151 141 119  90  68  65  64  63  64  63  61  59  58  55  55  55  54  51  52  49  32  45 229 241 239 239 238 240 241 204 144  60  18  15  15  18  16  17  12  18  14  10  20  25  13   8  26  30  16  14  19  18  16  16  18  18  13  22  27  38  93 176 213 216 225 235 236 238 242 241 241 242 239 255 155  17  39  41  41  41  42  43  43  43  45  46  46  46  47  49
 158 126  91  72  61  60  63  64  65  61  59  62  60  58  58  55  55  55  54  52  50  48  34  36 214 245 239 242 243 242 238 238 208 162  77  37  16  22  23  21  17  12   8  15  16  12  11  10  15  15  11  14  18  20  20  20  24  23  22  30  53 130 176 202 215 226 234 236 239 241 243 242 241 241 238 254 101  21  40  41  40  42  43  42  43  44  45  44  45  46  47  49
  71  64  61  65  67  63  63  60  57  57  60  61  61  59  61  59  54  53  54  51  51  48  38  27 192 246 238 239 243 244 243 240 230 218 186 152  74  30  26  21  22  18  13  15  14  12  13  16  17  19  15  14  16  23  31  33  33  35  34  64 150 198 209 211 221 230 235 239 241 242 242 243 242 241 242 239  59  31  41  42  41  42  42  43  42  44  44  45  46  47  49  50
  68  66  65  62  61  59  60  57  56  59  61  61  60  59  59  57  55  55  54  53  50  49  37  25 173 245 239 238 243 245 245 243 236 228 215 194 158  87  58  30  27  20  17  24  20  18  19  20  18  22  23  26  22  36  36  38  40  78  96 163 207 210 215 222 228 235 238 242 243 244 244 244 243 241 249 193  30  38  41  42  42  41  41  42  43  44  45  46  46  46  49  49
