P2
# Generated by OpenCV 4.2.0
92 112
255
 104  97 105 117 102 105  98  79  89  93  98  90  95  95  92  89  86  83  83  81  80  83  76  76  65  56  59  50  48  49  50  52  53  50  51  53  44  38  37  43  34  35  33  37  36  35  32  30  37  41  30  36  41  43  47  44  41  43  40  39  50  53  47  45  50  45  51  48  49  50  50  50  48  45  46  49  50  48  48  51  48  47  46  49  50  49  53  52  52  56  57  58
 121 102 107 115 105 109 103  93  86  84  92  91  92  93  91  91  87  85  84  82  81  81  80  70  65  59  56  54  46  46  54  58  48  43  47  37  25  24  29  28  36  39  38  36  36  35  35  32  35  39  39  36  37  36  45  47  48  53  58  46  42  48  55  52  49  47  47  49  49  49  49  50  48  45  46  49  48  47  46  48  49  47  47  46  49  49  53  49  51  56  54  61
 115 106  91  99 110  90  96  98 101  98  95  91  94  96  91  89  91  90  83  78  79  74  68  69  67  62  57  45  25  23  23  26  30  32  31  34  30  30  26  31  26  30  30  32  37  40  42  41  46  47  32  39  38  34  40  46  51  51  58  63  58  50  47  59  58  48  45  46  47  49  50  51  48  49  48  46  47  46  46  48  49  47  48  47  49  49  52  49  50  53  52  64
 124 109 101 114 106 103 106 106  93  97 102 104  97  94  86  83  82  86  86  84  82  80  71  69  64  44  16  16  23  22  21  21  34  30  24  21  22  27  29  25  36  29  29  28  31  35  38  43  52  53  50  51  40  36  37  40  52  48  53  62  64  62  55  59  71  65  52  47  49  49  49  49  48  49  47  45  45  44  44  45  49  47  48  49  50  46  47  50  49  50  47  62
 113 125  97 115  99  88  85  99  82  88  99  94  93  94  86  84  90  86  87  79  77  84  74  85  40  16  25  36  31  24  23  21  22  24  26  22  13  16  18  25  32  33  30  29  34  32  40  35  47  53  53  55  53  49  40  42  47  53  56  60  64  63  64  58  65  78  80  55  48  48  47  50  45  47  49  50  48  46  46  49  49  50  50  50  47  50  52  51  50  54  52  58
 103 112 130  97 104 115 105 102  97  93  95  90  98 102  97  87  81  84  82  79  78  65  68  50  23  53  49  30  21  21  23  19  18  15  25  28  18  15  14  15  14  27  32  30  33  31  36  32  32  56  51  57  61  65  54  53  55  58  59  61  76  82  59  72  67  71  86  80  48  50  49  52  48  46  49  49  48  46  46  49  48  50  50  50  50  49  51  51  50  55  53  54
 113 109 100 114 111  65  89  97 103 106 107  93  98  98  95  96  87  85  76  57  48  49  43  34  29  28  28  20  18  17  21  21  21  19  10  13  21  21  17  16  15  15  25  32  29  37  38  48  38  39  60  56  61  66  64  54  61  65  68  71  79  93  94  72  70  80  82  91  78  52  47  49  48  47  49  51  48  46  46  49  48  50  50  49  49  49  50  52  50  56  56  53
 118 106 101 101 112  90  86  93 102 105 104 114 102  91  95  95  95  82  53  51  40  47  34  31  29  25  27  28  26  24  22  21  24  25  24  21  21  19  22  23  14  12  11  28  34  33  37  50  49  37  53  62  58  65  64  62  56  67  60  72  86  85  98  93  77  72  87  88  88  54  45  46  50  48  48  49  48  48  48  46  49  49  48  48  50  52  52  50  48  58  57  54
 102 110 109 113 121 102 106 108 108 105  98 110 110 101  91  78  97  80  76  62  32  22  23  29  28  28  29  29  28  28  29  26  23  21  23  19  20  22  24  23  22  21  20  12  25  36  37  47  54  55  41  65  57  70  74  70  61  45  64  68  83  79  95  94  88  80  81  92  93  74  50  50  49  47  48  47  47  48  49  50  48  49  49  49  49  49  51  53  50  56  57  58
 104 109 126 139  87 105 130 119 114 113 100  96 100  96  89  76  87  89  41  16  19  23  19  16  16  17  15  17  19  23  21  21  20  23  20  22  22  20  17  22  28  28  24  24  14  28  42  45  53  67  56  51  61  57  72  74  67  48  45  42  71  77  70  82  94  80  82  85  92  84  52  48  45  49  50  48  46  49  49  50  48  49  49  48  50  49  50  51  50  57  52  58
 116 101  89 119 115 113 109  98 107 108 107  93  92  92  94  96  84  91  26  22  21  23  21  20  21  16  12  11   8   7  10  13  17  19  24  21  21  24  28  28  24  31  30  30  29  19  30  47  44  53  62  48  49  56  66  69  69  64  49  27  52  67  67  57  72  67  73  79  86  75  59  52  50  47  50  47  49  49  49  46  49  49  49  48  49  50  49  48  50  58  55  55
 104 113 128 133 122 106  99 101  96 105 105 106 100  97  87  92  96  42  22  22  23  23  21  16  16  15  14  12  11   8  11   9  10  14  24  21  25  21  25  29  34  31  28  40  38  32  21  36  44  37  49  53  42  31  53  62  64  72  60  29  42  47  54  54  58  56  62  71  76  78  63  49  51  48  50  51  47  48  46  45  48  46  47  49  50  50  48  49  53  57  55  56
 113 110  84  81 102 118 109  95  98 104 118 112  96  91  94  92  36  17  17  23  22  23  21  17  18  19  21  19  19  17  17  17  14  11  22  31  25  23  38  35  32  37  40  33  39  39  36  28  43  38  34  51  47  20  39  38  55  51  65  49  27  46  45  49  56  50  53  61  64  68  65  58  60  57  53  51  50  47  45  49  50  49  50  49  50  50  50  51  55  53  52  56
 100 108  89 102 117 128 122 128 110 116 103 101 101  96  77  32  20  20  30  19  20  24  21  22  25  28  31  31  30  26  25  18  10  14  13  36  30  20  28  47  42  32  35  42  34  38  40  32  26  40  24  27  43  28  23  29  49  42  50  57  31  39  43  41  50  53  49  51  50  62  72  68  51  56  56  53  50  49  49  49  49  49  49  49  50  50  49  48  55  51  56  59
 103 108 108 106 100  99 112 118 113 102 110 104  98  64  39  18  23  23  20  24  23  23  22  24  23  24  25  30  30  28  26  24  23  16  20  30  40  27  25  37  44  48  27  24  38  39  41  38  32  28  32  21  25  34  22  23  33  39  41  51  41  38  41  43  51  55  48  48  44  60  72  74  62  55  52  47  48  49  50  49  46  48  47  47  48  49  51  51  51  50  53  54
 120 126 110 104  86  89 104 107 109 109 124 107  53  65  27  22  14  21  22  19  24  24  24  23  24  22  19  20  17  19  22  22  24  26  23  25  36  31  23  32  39  41  49  31  25  34  38  39  35  26  31  26  24  37  28  30  32  37  37  49  49  44  42  48  56  59  52  50  44  53  63  66  67  54  52  49  47  47  48  49  46  48  48  47  48  50  52  49  50  51  55  58
 108  91  90  99 102 105 111 113 107  94  79  63  80  35  10  19  20  29  20  16  11  10  13  14  15  18  21  17  19  24  23  27  26  24  26  24  32  31  30  18  35  38  39  43  33  29  31  36  37  30  33  32  25  37  37  32  33  38  39  46  58  55  52  60  65  73  67  65  57  56  62  85  71  59  42  47  47  47  47  48  48  47  48  49  50  49  50  51  51  51  52  60
 134 125 120 100 100 114 117 126 109  80  76  89  27  13  23  24  23  13  11  12  12  14  17  19  18  20  19  18  30  39  39  41  37  39  41  30  31  30  30  28  25  33  39  40  40  37  34  35  36  39  37  34  39  40  43  44  40  46  48  52  63  70  83  84  88 108 107 107  67  52  62  78  95  81  48  35  46  48  50  49  46  50  49  48  50  50  49  52  52  53  55  57
 105 110 117 122 114 101 102 106  88  95  93  50  16  23  27  16  13   9  10  15  17  17  18  16  23  27  39  50  63  69  74  69  69  73  55  45  38  36  34  34  34  38  41  43  45  46  45  45  46  48  52  47  50  51  52  54  58  53  58  66  79  80 108 101 123 131 149 146 137  65  71  92  90  92  76  42  40  45  47  45  46  47  48  50  50  50  50  50  48  50  53  57
 103  92  95 101  97 106 113  98  94 101 112  28  23  25  18  10  16  13  14  16  18  17  18  16  36  56  64  84  95  94  93  96  98  98  97  92  66  50  52  46  48  53  64  63  62  63  65  64  61  66  75  77  83  82  76  66  73  77  88  91  94 100 122 126 149 163 186 184 183 124  62  83  96  88  73  61  37  46  45  47  48  47  49  47  51  50  50  49  50  50  50  52
 134 110 106 108 106 106 106  98  84 100 104  31  20  18  13  14  11  15  22  24  22  20  26  45  69  78  92  96  99 100 107 109 110 107 110 114 107  94  88  87  79  81  88  84  86  93 100  97  99  97  97 104 112 115 115 105 106 100 108 113 110 132 151 156 189 190 200 200 201 185 114  76  82 100  79  61  49  47  46  47  49  48  48  48  49  49  49  50  49  50  50  51
 144 138 118 108 109 102 121 101  96  97  89  29  17  12  11  13  16  24  22  15  21  22  45  76  82  93  99 100 103 104 110 113 115 117 122 119 121 121 111 113 115 114 121 121 127 128 127 127 129 130 137 145 149 148 146 150 144 137 142 144 151 168 175 191 200 205 209 208 206 202 177  96  79  88  96  66  54  38  46  45  46  45  45  45  48  48  48  47  52  53  48  50
 137 150 133 124 104 112 127 115 123 118  64  32   9  14  17  23  21  21  25  28  26  40  70  80  88  98 103 101 103 109 114 117 119 121 125 125 125 125 129 130 133 137 139 138 139 147 148 151 157 159 163 166 169 174 170 169 166 165 171 180 188 194 194 205 205 208 208 208 207 204 207 151  69  84  75  73  59  44  45  47  47  47  48  46  48  50  49  50  49  52  56  57
 116 130 104  97  99 111 115 100 115 121 104  32  20  18  20  20  21  24  26  24  31  57  82  86  93 101 104 103 105 111 114 116 120 122 126 130 130 129 137 140 138 141 142 143 146 154 157 166 169 172 176 176 178 182 180 183 184 187 194 191 194 199 205 209 208 207 207 205 207 207 196 189 115  80  88  71  60  47  42  46  46  47  48  45  48  48  49  50  50  50  56  57
 130 141 120 115 124 107 119 120 120 116 122  56  13  22  25  23  21  25  28  28  51  79  83  90  97 103 104 104 107 109 111 115 119 122 125 129 135 140 147 148 149 155 158 158 159 163 162 170 175 179 183 183 187 185 188 188 189 192 197 200 202 205 207 208 209 209 207 203 203 203 199 193 162  76  75  71  61  47  48  43  45  46  48  50  49  51  51  50  50  48  52  57
 101 110 105 107 119 116 121 115 106 110 113  39  16  24  23  20  16  27  37  40  63  82  81  88  94  98 102 108 108 107 110 111 113 123 124 130 137 144 146 153 156 162 161 164 162 163 163 168 181 186 187 185 188 189 191 191 192 194 196 201 203 206 209 209 208 208 207 205 201 200 196 191 191 116  64  78  66  49  47  42  45  49  48  47  49  49  47  49  51  53  52  54
  98 124 129 109 118 113 112 108 116 101 117  29  15  20  20  19  24  27  39  52  73  86  83  89  94  96 103 105 105 104 106 108 112 120 123 129 134 144 148 155 157 160 162 162 161 164 165 172 178 183 189 189 190 191 192 193 193 195 198 201 206 205 204 205 205 204 203 200 197 198 196 193 191 162  78  72  69  55  38  50  33  46  46  47  49  51  51  48  49  53  53  56
 143 131 128 107 123 118 122 129 123 123 114  18  28  22  18  15  25  25  45  66  77  83  84  87  93  97 102 103 102 102 106 110 114 119 123 131 131 142 150 158 160 158 159 161 161 163 166 173 182 184 186 188 188 189 191 192 192 194 197 198 204 205 205 205 205 205 203 200 197 195 192 189 191 193 107  78  74  56  40  43  35  38  47  45  46  48  48  51  52  54  55  59
 117 121 107  93 117 117 115 108 114 112 111  14  19  19  18  20  27  32  55  80  83  84  85  88  93  97 101 104 100 102 105 110 113 118 125 130 128 134 144 153 158 159 160 162 161 163 164 169 175 177 183 185 186 187 189 189 189 191 193 193 198 203 203 203 204 203 199 196 192 190 188 187 188 190 176  72  96  62  44  35  46  28  47  49  50  50  49  53  53  53  53  57
 117 125 119 124 113 117 138 110 124 128  69  15  18  18  17  20  26  43  64  78  83  84  85  90  95  96 101 101 100 100 103 105 111 118 125 129 133 136 139 143 150 154 159 163 162 161 163 166 171 174 181 185 185 184 186 185 187 187 189 194 193 200 204 204 202 200 196 194 190 189 187 187 188 190 200 116  91  82  44  35  40  37  42  47  47  50  50  52  55  52  53  50
 137 139 119 166 150 119 100 114 123 132  26  24  21  20  17  18  36  55  72  84  86  86  86  88  93  96 100 101  99  98 101 103 109 115 119 125 128 138 141 144 149 149 155 159 160 161 163 160 164 165 172 178 179 180 183 189 186 185 187 189 190 195 201 197 194 196 193 191 188 188 187 186 188 191 190 165  80  84  56  42  34  40  41  48  48  49  51  54  58  50  56  60
 134 130 124 116 124 139 136 118 111 117  24  29  19  21  18  22  39  57  69  84  87  86  88  88  92  95 100 102 101  99  99  99 103 107 112 118 124 133 140 143 150 152 156 160 161 162 163 167 170 170 173 172 170 173 178 181 183 183 181 186 188 188 191 193 194 191 189 187 186 184 184 187 190 188 192 196 101  77  71  49  42  34  45  48  48  46  48  54  52  54  51  58
 130 126 116 141 110  83 117 128 108 119  44  21  16  15  23  25  38  62  78  88  90  90  89  91  91  94  99 106 104 100  97 100 102 108 111 117 124 133 140 141 146 147 152 156 160 161 160 160 165 167 177 176 172 173 178 177 179 177 183 186 185 184 191 192 190 186 188 186 185 185 187 185 188 190 191 200 139  82  61  51  40  40  45  50  47  47  48  51  54  52  54  54
 141 135 114 113 137 107 134 124 133 130  29  18  16  20  25  31  44  69  81  86  88  85  87  89  90  93  98 103 104 102 102 105 104 108 110 116 121 127 131 134 139 145 149 151 157 160 159 162 158 161 166 165 164 166 171 173 181 179 179 180 180 181 186 186 185 181 183 184 184 183 185 183 186 188 188 197 179  88  69  46  41  33  35  49  50  49  51  49  52  51  55  55
 171 135 143 157 137 145 129 136 123 140  22  21  19  19  24  34  53  75  82  84  86  84  87  89  90  93  98 103 105 104 104 108 107 109 112 117 123 126 130 135 140 140 144 147 154 154 155 156 160 165 165 168 165 165 166 168 174 172 171 173 176 180 180 184 185 183 183 185 185 184 184 181 184 186 189 193 197 112  76  45  46  32  31  44  47  47  49  52  53  56  53  55
 153 115 117 128 115 109 129 115 114 121  16  21  27  21  25  39  59  75  80  84  85  89  89  90  92  94 100 104 105 104 102 107 109 110 115 122 129 132 136 140 146 149 149 146 150 155 154 156 159 162 160 164 165 167 171 172 173 170 171 177 175 174 177 182 185 184 184 184 183 185 185 184 184 183 188 188 194 137  76  39  45  32  29  44  47  50  51  51  50  54  55  55
 154 149 146 138 145 136 139 132 124 120  14  25  21  23  29  44  63  75  79  83  85  87  88  88  90  95  98 103 106 106 105 109 112 112 118 124 128 131 137 142 147 149 150 151 150 152 155 157 158 161 162 164 166 166 170 169 171 173 172 180 180 179 182 184 186 185 184 186 184 182 184 184 185 186 185 187 193 156  80  52  37  45  31  43  48  46  49  51  52  55  55  54
 148 133 139 149 120 105 129 119 106 112  14  20  21  23  29  44  64  72  75  83  83  87  88  90  92  95  97 102 107 107 106 113 117 114 117 122 126 130 138 144 147 149 151 154 152 150 153 160 161 163 165 168 168 171 171 167 168 170 172 178 181 182 185 186 185 182 186 185 184 184 183 182 184 186 185 183 180 166  92  52  34  41  42  41  49  45  50  52  54  52  56  57
 131 122 131 132 120 119 127 125 121  98  11  19  23  19  29  48  66  73  75  80  83  85  87  92  93  96  99  98 103 106 108 112 115 116 118 124 125 130 134 140 147 150 152 156 158 158 157 157 156 160 163 167 170 172 173 169 168 170 174 178 181 184 186 187 185 183 184 182 184 185 183 183 181 182 182 179 177 164 100  56  32  30  44  50  48  51  51  50  51  55  56  57
 139 115  97 121  92 104 115 117 131  69  12  23  25  23  31  50  66  73  75  82  85  87  87  88  89  94  98  96  98 105 110 112 117 117 118 121 125 130 133 137 144 147 154 155 159 160 160 159 155 155 155 160 167 167 172 174 171 170 177 181 183 185 185 187 188 185 185 185 184 184 182 181 179 177 176 174 173 159  98  56  40  26  35  54  49  49  51  51  57  50  55  54
 135 127 123 145 110 114 120 123 115  58  11  21  22  19  32  53  63  73  76  79  84  88  85  89  92  95  99  98 100 106 109 110 115 115 119 119 118 121 128 134 142 146 155 157 156 156 160 161 157 157 155 158 162 165 170 172 175 174 176 179 182 183 185 186 189 188 187 186 184 182 180 179 178 175 174 173 171 166 103  53  46  30  39  51  48  50  53  52  51  59  61  54
 146 125 126 150 100  97 119 117 121  49  19  23  23  24  34  50  68  78  78  81  79  79  89  91  91  95  98 100 104 109 111 112 116 116 114 116 117 116 119 125 134 133 145 152 157 159 162 159 159 159 155 156 159 161 166 170 175 173 171 174 177 179 181 181 185 187 187 185 184 184 182 177 175 171 169 171 173 168  99  53  44  35  47  49  45  48  52  55  58  54  50  58
 141 129 118 138 101 116 121 124 122  46  22  20  22  23  36  52  66  79  79  79  80  80  83  89  90  94  94  97 101 105 107 105 107 104 106 106 106 110 117 122 128 129 133 140 148 153 160 156 157 161 156 157 161 162 164 165 165 162 162 165 168 168 175 175 180 184 188 187 187 185 184 180 176 174 169 171 172 175 105  51  43  36  48  47  48  47  48  47  53  48  57  55
 134 119 128 129 124 132 119 120 128  47  20  19  24  27  37  53  69  78  81  79  80  80  85  86  91  90  92  97  99  90  86  84  82  80  79  82  87  87  87 101 104 120 130 132 141 148 158 158 157 160 162 156 155 159 158 155 152 153 156 158 158 162 168 172 173 176 181 178 184 188 182 177 179 173 171 173 171 175 116  49  42  34  50  49  49  50  49  52  55  54  57  55
 120 134 139 132 123 120 128 131 105  39  14  15  26  30  36  53  69  76  76  77  79  81  83  83  87  90  89  98  91  72  71  74  70  56  59  54  57  63  56  71  75  82  98 118 130 139 154 155 154 161 163 155 152 154 151 146 136 133 141 146 150 153 159 163 167 173 171 185 187 183 179 173 173 173 171 173 170 172 116  45  41  41  48  49  49  50  51  50  53  55  51  59
 147 143 141 138 125 112 116 120 126  59  11  19  22  27  36  54  70  74  73  77  78  81  83  81  81  90  90  83  74  66  63  66  61  51  46  50  50  45  52  56  68  73  76 100 112 124 141 146 150 154 160 153 150 140 132 134 119  96  90  94 101 115 132 138 142 145 148 151 172 179 176 172 170 170 169 170 172 167 115  47  40  46  47  48  49  49  50  52  54  51  57  58
 140 135 128 124 119 111 109 116 120  86  16  24  16  28  38  50  73  77  78  79  78  78  80  81  82  84  73  65  65  60  61  63  71  70  69  68  65  61  59  61  65  73  84  89 102 118 132 137 145 148 153 155 145 129 120 122 109  90  74  70  70  72  78  98 108 119 117 128 136 153 175 167 173 167 166 168 170 170 112  46  38  50  48  48  46  47  49  55  56  53  57  54
 126 131 130 113 128 139 126 108 113 113  24  14  31  30  38  49  74  77  80  79  75  76  79  80  79  69  61  59  58  66  77  89  96  99 102  99  96  92  80  76  72  74  81  84  93 107 117 124 133 144 151 150 143 131 120 115 107  92  75  66  60  59  57  71  84  96 103 109 102 112 143 156 159 163 163 167 173 173 113  43  39  52  50  46  48  49  47  54  52  60  54  56
 128 139 134 107 104 125 133 119 123 132  29  16  23  30  37  52  73  77  79  78  79  80  78  75  71  61  62  67  74  83  93  96  95 104 103 105 106 107  94  86  77  73  75  80  87  97 108 120 132 136 143 148 144 135 122 113 108 101  93  82  77  76  69  70  73  78  85  93  90 106 121 134 150 162 163 167 175 177 114  44  39  50  46  44  45  48  46  52  51  60  52  57
 135 131 142 142 109 110 117 112 116 132  34  19  24  30  37  52  73  77  79  76  80  80  72  67  59  66  72  72  80  88  92  95 106 108  97  93  89  89  92  84  88  78  72  72  77  79 102 116 126 137 146 148 149 139 123 110 102 103 105 112 114 116 119 117 120 119 116 104  94 108 117 122 158 166 165 168 174 178 114  47  42  50  47  46  45  45  48  49  50  52  56  54
 123 128 123 136 145 145 139 140 132 139  56  18  29  32  32  58  76  74  81  79  82  80  74  71  64  73  76  76  78  83  86  77  61  64  82  90  90  88  80  68  74  79  78  73  69  79  89 116 131 144 157 159 155 142 119 112 107 108 106 108 103 110 112 125 135 136 132 130 132 121 120 124 138 155 165 167 171 173 128  50  48  41  49  48  47  48  51  50  54  52  53  57
 161 138 129 124 109 106 104 100 108  76  65  22  30  31  32  56  78  77  82  82  81  81  79  77  75  77  75  75  78  71  47  45  65  53  50  44  44  51  78  80  75  69  73  78  71  71  82 109 133 151 164 170 163 147 118 111 106  99  85  71  83  90 101  99 106 106 119 132 141 133 128 125 131 148 164 169 172 169 138  56  48  79  41  47  46  50  52  52  50  56  55  54
 144 155 136 117 102 122 131 129  95  82  98  50  26  25  32  58  77  78  82  83  85  83  81  80  81  78  75  72  68  52  50  44  33  69  42  28  69  72  40  66  67  80  82  80  81  71  80 106 133 154 173 182 172 150 119 104 100  87  83  90  76  49  45  58  75 100 113  99 117 141 135 131 139 152 164 168 173 169 147  65  94 201  92  43  46  50  53  53  51  54  62  59
 131 151 160 125 112 116 119 128  87  44  88  67  27  27  27  62  78  78  81  85  87  86  83  81  79  79  74  70  57  52  32  40  93 102  36  38  55  40  45 131  71  65  96 106  96  76  82 106 134 156 171 185 179 157 129 123 116  95  84  87  46  42  82  54  38  54  52  89  96 117 140 135 145 154 162 168 176 171 153  64 152 213 144  39  41  46  51  53  53  53  55  50
 109 127 149 147 101 115 123 124 106  41  65  82  55  25  31  61  79  78  81  85  90  91  89  88  80  79  79  64  59  43  41  66  94 101  51  41  26  40  70 124 106  83  92 124 101  80  84 103 135 160 171 184 188 167 154 150 121  91 106 136  55  45  32  38  45 126  65  52  99  99 136 137 141 152 161 168 171 170 157 101 199 155 121  37  42  48  51  49  53  52  52  51
 138 139 129 134 121 109 114 120 111  54  57  66  77  36  35  63  78  80  83  87  91  94  95  97  91  83  68  59  67  58  71  72  86  98  99  93 118 121 116 108 107 105 112 108  95  86  89 103 138 156 170 189 191 175 158 160 129 120 113 127 100  75  63  66 100 140 121  98  80 107 128 140 152 158 165 170 170 167 156 127 166 102  53  44  48  49  46  47  51  51  50  55
 134 132 127 130 125 115 106 108 137  60  60  56  71  56  27  68  80  79  83  87  93  99 103 106  98  88  75  84  79  83  75  74  78  80  82  92  91 100 100 105  94  98 113 100  96  91  90  95 131 153 170 192 192 179 165 151 132 117 111 113 113 131 140 137 124 116 115 121 143 129 138 150 160 168 173 172 173 166 159 121 103 128  37  44  46  47  46  51  53  50  51  55
 136 129 125 129 131 130 108 116 133  68  73  67  67  65  27  68  78  80  82  85  93 100 104 107 103  97  94  93  93  91  85  79  79  85  90  95  98  98 101 104 109 114 114  99  92  93  91  96 111 146 168 189 192 182 168 161 142 123 118 107 112 120 119 124 121 127 137 159 168 162 160 169 174 177 176 173 169 165 159 104 100 138  40  45  47  47  45  51  51  53  54  56
 130 129 118 117 124 120 120 131 132  76  86  83  70  67  32  64  78  79  83  84  91  99 108 110 108 103 102  96  94  96  98  93  89  88  89  93 102 113 120 124 128 127 111  99  94  96  93  92 111 135 166 188 189 179 175 166 168 161 145 141 125 118 117 126 135 144 152 165 165 172 182 182 188 186 181 174 168 163 165 104 105 150  36  44  45  49  47  47  49  54  53  53
 130 138 126 123 133 137 102 109 124  72  78  79  84  74  39  66  77  79  82  84  91  99 107 109 108 110 110 106 103 100 102 102 104 108 116 125 126 125 131 131 132 121 106  98  94  97  90  92 109 128 162 194 187 181 178 174 170 173 165 160 159 156 154 152 154 157 159 165 173 175 181 187 189 187 185 176 168 163 163 129 115 151  34  46  47  45  44  49  48  53  52  53
 135 140 144 134 125 136 131 132 124  78  74  87  81  70  40  71  79  79  82  84  91  98 105 106 106 108 110 119 117 116 108 111 116 121 126 131 128 131 133 133 132 120 108 102  94  94  87  94 112 135 157 186 189 180 178 177 171 176 173 171 168 169 174 178 182 183 180 183 184 186 184 187 187 190 186 175 170 163 160 156 120 134  40  48  46  45  44  47  49  51  51  50
 119 129 124 116 117 114 120 116 132  89  80  91  84  65  41  69  78  79  81  85  89  96 102 106 108 109 112 121 121 121 121 120 121 126 128 131 128 127 131 132 129 120 108 100  97  91  88 101 113 132 154 179 193 193 183 185 180 174 182 176 175 174 175 176 182 185 189 191 194 192 192 191 193 188 185 180 172 163 160 160 148  85  37  48  45  45  46  48  50  51  51  53
 147 124 127 128 125 123 114 120 121  96  81  99  89  71  54  71  76  77  81  84  89  97 101 105 111 113 117 114 114 117 118 119 123 128 132 130 128 127 129 130 125 118 108  99  96  85  88 106 116 132 149 168 184 191 184 182 182 184 176 179 178 180 181 178 180 184 185 188 194 196 195 195 194 191 187 185 172 163 159 159 147  42  45  45  45  46  48  49  50  52  51  56
 136 133 117 122 131 121  93  98 104 112  79 108  92  83  69  70  76  75  81  84  86  93  99 106 112 114 115 117 119 119 120 121 125 131 131 128 126 128 130 128 126 117 110 103  83  79  90 107 117 130 150 161 176 190 186 179 171 166 172 175 174 182 185 185 185 183 186 188 195 199 197 195 197 194 190 181 176 168 164 165 108  34  40  46  46  44  45  49  51  53  51  52
 127 140 134 118 120 132 115 109 106 106  80 103  93  76  71  66  71  79  81  81  88  92  95 104 107 111 115 115 118 118 118 121 125 127 128 127 129 130 131 130 131 121 120  86  84  82  87  98 115 135 150 164 179 193 181 179 176 152 163 166 173 172 179 183 187 190 188 192 194 196 197 196 195 190 188 187 182 175 162 171  55  47  42  44  46  47  47  54  53  53  53  58
 140 142 143 115 132 148 137 135 114 105  91  87  83  72  67  66  75  77  80  85  89  92  97 106 108 111 115 114 116 116 120 123 125 128 125 128 131 133 135 135 131 126 112  78  91  83  83  95 106 134 152 157 156 175 171 170 183 173 128 148 159 163 169 175 183 185 191 193 193 194 194 193 192 191 189 189 183 175 168 148  40  44  46  43  46  47  48  50  53  52  52  57
 124 138 135 131 119 108 108 116 118 120  96  78  82  66  59  54  75  79  80  84  88  93  99 105 108 112 115 117 115 117 119 120 120 120 124 129 133 134 138 135 124 118  92  83  90  86  79  84  92 118 135 131 132 137 132 137 162 180 119 122 140 156 159 166 177 183 184 191 196 198 197 193 190 188 187 186 180 173 171 115  41  43  42  45  45  46  50  50  50  50  48  54
 142 136 130 124 112 122 123 125 132 138 102  79  90  73  49  50  70  80  80  81  88  92  99 105 108 111 113 118 118 118 119 118 119 118 125 129 132 135 138 131 116 107  86  76  80  69  56  55  62  76 104 118 108 104  73  70 111 146 115 106 122 142 145 156 166 174 183 189 194 193 193 192 191 185 185 185 186 176 173  93  37  45  43  44  45  46  49  50  49  50  50  55
 111 126 128 132 114 117 121 136 104 101 121  77  77  81  67  43  64  80  79  81  87  91  97 104 107 110 111 115 114 117 119 118 120 120 126 130 131 134 133 123 107 104  90  67  69  58  36  23  44  59  75  82  87  90  60  62  76 107 100  94 104 116 132 143 150 163 173 183 187 189 186 186 189 185 183 183 185 176 176  93  39  45  43  46  46  46  49  50  50  51  48  56
 141 122 126 137 128 133 123 119  99 103 114  89  81  72  75  34  62  77  79  80  85  90  97 103 104 108 110 111 114 115 116 117 118 120 125 129 130 133 130 119 109 104  93  65  64  71  76  72  66  61  61  67  95 109 109  94  95 124 123 102  95 115 118 134 144 152 165 176 184 187 187 185 188 184 183 183 183 178 177  99  42  43  43  45  46  46  49  50  50  52  49  52
 148 144 124 133 117 118 114 123 117 117 114  86  93  82  73  38  53  71  76  81  85  90  96 102 103 106 108 112 114 114 112 115 118 119 123 130 129 130 126 116 110 110  97  86  78  64  66  71  68  73  86  95 100 112 102 114 141 149 129 121  95  97 108 121 135 143 150 161 174 180 184 185 183 182 182 183 182 178 175 100  43  42  41  46  45  46  49  50  46  51  52  49
 128 128 110 105 104 111 105 109 111 103 119  69  87  88  71  35  42  65  76  78  83  89  93 101 102 105 106 110 110 112 113 114 116 122 124 129 129 129 124 115 114 112  97  89  88  72  51  60  69  84 102 109  95  94  79  77 111 147 145 138 109  93 102 115 131 137 146 158 168 176 177 177 178 178 180 180 183 170 176 100  45  42  42  46  46  47  48  53  52  51  52  53
 126 125 128 111 112 112 114 116 116 115 134  76  84  91  77  40  34  58  71  80  82  90  93 100 102 105 107 106 105 108 109 113 114 120 122 127 126 126 124 121 115 108 100  88  74  42  49  49  64  76  99 118  94  79  75  75  71 101 146 141 121  98 100 109 124 135 144 155 162 171 173 173 172 174 176 177 179 173 164  94  56  42  42  46  45  47  48  51  53  53  53  53
 122 118 135 135 105 109 113 113 109 112 115  78  92  92  78  43  36  56  67  73  78  85  93  98 100 104 105 107 105 109 108 112 112 118 124 129 128 128 124 123 116 103  93  74  50  46  49  47  65  69 112 135 108  83  72  62  69  69 109 126 135 107  97 105 123 132 139 148 156 163 166 166 166 169 171 172 172 172 161  93  61  42  43  45  46  47  48  51  53  55  52  54
 133 136 128 100 111 110 114 109 102  92  94  80  93  91  76  45  33  53  66  75  75  82  92  95  97 103 105 107 104 104 106 108 111 116 122 126 125 127 126 123  94  81  69  53  44  53  46  57  64  94 142 140 131 114  93  70  62  70  75  92 122 126  90 102 119 126 134 144 151 157 160 164 165 166 167 168 174 168 156  75  58  41  45  46  46  47  48  48  50  50  50  53
 103 122 123 124 135 120 117 112 110  91  95  90  76  83  77  50  35  47  62  68  74  78  87  93 100 102 103 105 104 104 105 107 111 115 119 123 126 124 123  97  67  60  52  42  43  51  44  61  79 140 151 153 150 137 116  77  58  62  66  87  91 114 101  90 113 128 135 146 148 150 153 156 161 165 166 167 167 164 140  64  57  42  40  45  46  48  48  45  49  55  54  55
 111 110 135 116 123 116 109  94 108 119 104  96  76  73  79  60  35  42  55  65  72  82  85  91 100 103 103 106 103 103 104 108 114 117 122 123 120 119  93  63  58  52  57  53  55  60  52  60  90 104 109 114 115 114 106 100  81  62  71  83  80  83 111  89 108 124 130 145 151 149 149 153 159 163 165 165 163 163 125  53  50  42  42  44  46  48  48  49  50  56  57  56
 120 103 124 122 115 110 106 109 103  96  94 106 105  71  61  66  30  35  50  65  73  79  85  90  99 102 107 106 103 102 103 108 115 118 120 122 123 100  60  56  54  60  66  69  66  68  67  78  81  95  97  94 104 105 105 108 102  88  84  89  74  70  91  93 106 126 135 142 144 149 152 154 156 159 161 162 159 159  93  55  45  42  45  44  46  48  48  48  53  52  54  54
 131 121 147 136 107 108 100  99 105 104 114 104  83  95  79  43  31  32  39  63  68  74  83  95  97 100 105 102 100 101 104 110 118 122 128 130 124  67  55  60  47  52  52  57  56  55  53  58  64  66  78  71  82  86  76  73  91  93  81  77  74  55  94  95 100 118 135 143 147 150 151 152 153 152 156 161 152 152  71  53  45  41  44  45  44  45  47  51  50  53  55  56
 120 107 125 149 139 109 105 100 102 105 117 107  77  79  84  94  42  30  38  55  59  68  77  86  91  99 104 103 102 102 106 108 115 126 132 131 112  61  54  51  43  45  51  57  60  71  79  90 103 102 100 101 116 123 115 112  97  87  53  36  59  65  78  96  97 128 137 146 150 154 153 154 154 154 157 156 149 125  74  48  41  41  43  42  44  46  50  50  51  51  49  58
 124 110 121 101 130 115 106 112 106 108  89  97  97  91  74  86  63  23  34  46  51  63  78  80  90  99 103 101 100 101 105 106 115 129 133 133 112  56  58  96 100  93  83  81  84  89  98 112 131 145 144 147 149 147 148 141 138 122 119 108  83  73  76 104 105 134 143 149 151 153 154 153 153 154 155 149 143 105  59  49  42  42  43  42  41  44  45  49  51  53  50  54
 127 119 127 116  93 132 107 111 116 125  90  89  87  91  94  87  92  24  31  38  50  58  68  76  87  95  98  99  98  97 102 105 118 129 130 135 123  73  96 110 108 104  99  98  95  94  93 106 119 126 135 136 139 142 142 150 152 151 162 154 135 102  78 113 121 140 145 149 148 152 154 151 152 153 153 141 133  74  43  43  45  41  45  45  45  44  45  47  49  53  55  52
 124 120 121 120 105 121 119 110  93 102  95  87  84  89  91  89  84  16  29  33  43  53  63  71  81  89  93  97  97  96  96 109 108 126 130 137 129 104 120 118 109 109 111 107 104 103 104 111 117 120 122 124 131 137 148 157 161 166 169 167 155 139  91 119 139 147 148 150 149 148 149 147 142 144 138 140 121  53  48  41  39  40  40  42  45  43  45  46  50  52  54  55
 131 128 124 121  96 108 111 111 108  97 106  85  85  91  79  88 101  23  23  32  39  46  54  68  77  79  78  90  94  87  93 103 109 121 130 138 133 123 119 123 117 112 110 108 109 113 118 121 119 123 126 131 132 140 151 155 163 169 172 173 171 163 129 123 154 150 150 152 149 149 146 140 140 131 131 131  88  54  46  44  41  42  42  44  43  43  44  45  48  50  51  56
 119 127 126 120 109 109 103 103 105 101  93 106  98  93  82  81  84  39  21  31  31  40  53  64  68  66  65  74  85  85  90  91 104 115 125 131 130 125 123 122 120 115 113 108 108 112 116 118 117 113 110 115 124 132 145 152 157 166 171 173 173 170 149 116 147 150 150 145 139 136 136 136 138 120 124 110  63  55  40  43  44  45  44  43  41  42  43  45  47  49  49  54
 128 129 130 128 113 121 107 106  93 104  94 101  94  90  95  87  78  54  26  24  28  34  46  61  58  60  56  68  80  82  89  86  93 109 121 128 126 120 120 122 122 121 117 112 111 111 112 115 110  98  89 104 117 128 141 154 160 163 175 175 180 174 156 126 141 149 149 141 124 123 126 121 124 114 106  95  57  51  46  44  42  44  44  44  44  44  43  45  52  50  53  53
 131 126 127 129 126 122 112 114 113 101 104 101  85  85  85  83  91  56  23  28  24  27  37  56  58  50  55  64  71  74  72  76  84 103 111 124 122 117 117 119 117 120 118 115 113 112 110 112 103  81  76 103 120 130 144 153 160 165 174 175 174 171 165 136 133 130 125 120 111 116 110 112 118 104  89  69  53  46  42  42  40  41  41  40  41  44  44  46  50  50  53  52
 123 132 129 132 128 103 103 107 106  98  98  96  97  87  83  83  97  57  33  17  24  25  29  36  46  42  58  62  61  60  57  75  82  88  98 114 110 113 117 122 122 121 119 119 119 116 110 107 100  85  82 105 122 134 145 154 159 165 169 169 171 170 167 137 120 116 115 112  95  97  99  95 111  94  67  55  46  41  40  42  39  39  40  39  41  43  43  45  49  49  51  53
 118 124 126 124 134 129  99 103  94  99  97  91  98  85  83  85 108  55  49  18  21  22  24  29  32  37  53  49  48  49  58  71  68  75  93 106  99 106 114 122 123 124 122 121 121 121 120 121 104  88  88 113 128 146 149 151 157 163 163 164 162 150 146 136 117 105  97  96  94  91  77  91  90  61  50  47  38  41  43  41  41  40  42  42  42  40  39  43  50  49  52  55
 129 121 120 123 126 133 112  89 152 175 171 170 164 150 109  58 108  63  50  17  18  18  23  22  30  30  39  40  47  42  56  52  55  75  97  91  90 101 108 115 119 120 123 127 127 129 128 125 105  96 101 119 139 144 150 154 156 160 164 157 152 144 117 116 109  96  96  82  85  79  64  82  65  52  42  40  43  40  39  39  40  41  40  42  42  41  41  44  45  41  48  55
 133 121 118 114 117 119 106 114 197 191 188 188 187 179  24 101 108  78  50  11  13  14  17  16  22  25  34  32  38  41  57  51  55  78  80  87  81  87  90 117 123 120 128 130 131 130 128 124 114 108 111 129 145 158 157 153 153 158 164 159 151 141 104 102  95  78  82  70  77  64  57  64  48  43  39  38  40  38  39  38  40  41  41  42  40  42  42  46  39 120 210 204
 127 116 123 120 113 112 108 115  99 104 123 151 172  53  16 115 108  99  62  20  18  14  17  18  18  23  26  28  32  34  46  45  46  58  53  59  75  66  83 101 107 118 127 126 128 132 124 121 114 110 108 131 140 158 162 162 162 163 166 161 150 124  87  83  71  70  64  71  74  59  54  47  42  41  33  37  40  39  39  41  38  39  42  41  38  42  44  40  37 123 182 189
 133 125 125 128 120 123 104 117 107  95  84  93  61  19  51 114 105 111  67  28  17  12  19  16  15  19  19  26  23  23  29  36  37  32  47  59  51  52  76  94 104 120 125 124 120 118 121 108  99 112 110 116 130 140 145 161 159 162 163 163 146 102  77  65  54  53  55  63  56  43  48  39  38  36  40  37  40  39  39  38  37  40  39  41  42  41  44  41  47  39  32  32
 124 126 119 125 126 131 113 114 110  88 110  94  21  16  77 108 111 110  87  35  14  18  14  14  13  17  16  23  23  21  24  24  24  32  38  44  42  46  64  72  81 105 116 116 102 105 104 103  86  98  92 120 127 122 126 149 152 161 162 153 121  84  81  53  50  47  50  50  45  36  38  31  30  32  44  40  39  39  40  38  39  40  39  39  41  39  44  44  43  49  54  53
 127 125 119 121 115 115 120 114 103 100  77  24  21  16  93 107 108 115 113  59  10  17  12  13  12  16  15  18  20  19  16  22  25  25  28  26  33  34  47  66  86  88 105  92  86  90  93  93  83  80  85  98 105 112 108 118 132 145 146 139 104  78  61  53  43  47  44  45  41  29  31  33  33  33  43  41  40  39  40  38  39  39  39  39  40  39  44  46  46  46  48  50
 121 116 130 125 111 109 103 112 110  78  16  20  23  23  98 107 107 115 113  99  20  14  14  18  15  16  17  17  15  18  17  22  20  17  20  22  27  36  42  56  70  81  78  75  75  74  78  73  69  77  82  79  84  99  85  96 105 119 124 115  79  70  55  44  36  34  33  37  26  30  29  33  31  43  43  44  40  39  40  38  38  40  39  39  41  39  43  46  46  48  51  49
 137 130 126 127 111 112 113  93  41  20  23  24  23  15  92 108 113 112 116 105  57  13  14  14  16  16  15  15  16  18  17  16  14  16  15  18  28  26  36  45  60  64  62  63  63  69  71  67  62  67  72  71  75  74  73  86 100 102  97  82  58  48  49  37  31  33  28  32  30  28  30  31  44 102  32  39  41  40  40  39  41  41  41  38  38  40  40  43  45  49  52  49
 119 134 124 105 109 111  53  17  20  21  26  23  20  19  94 104 107 114 113 120  83  14  16  15  17  17  15  13  15  18  18  20  17  15  19  20  23  21  26  34  46  50  48  56  46  58  51  60  56  55  60  67  68  70  66  65  78  88  80  56  44  47  37  29  26  30  29  30  25  23  32  35 150 196  31  39  38  39  40  39  41  41  41  41  41  39  39  40  44  51  51  52
 119 129 144 127  79  23  17  19  23  24  26  25  23  18  86 103 108 114 111 113 109  16  15  15  17  17  15  14  15  15  17  24  22  17  19  18  21  18  20  25  31  36  38  41  33  45  41  55  47  43  44  54  52  57  60  58  55  82  66  47  44  36  37  30  25  30  35  32  27  27  33  99 242 211  41  45  37  39  40  41  41  41  41  39  40  41  40  41  44  47  51  55
 136 127 100  38  17  19  25  23  25  20  21  23  22  19  82  96 106 111 114 115 113  67  18  15  17  14  14  14  14  12  16  22  20  13  19  16  18  17  20  25  30  29  31  35  35  39  39  43  34  34  35  41  39  38  48  55  43  43  40  32  34  31  31  26  26  28  35  34  31  40  56 214 249 230  50  56  39  37  42  42  39  38  41  40  39  40  42  40  42  47  51  55
  45  22  13  21  21  20  22  24  24  24  24  22  22  15  72  91 106 112 114 116 115  99  41  13  13  16  11  12  13  16  16  17  19  16  19  16  17  18  19  19  19  22  23  23  25  33  33  34  25  31  30  31  31  31  41  37  26  40  38  34  32  29  29  29  29  31  31  26  23  31 170 240 251 241  60  58  53  38  36  39  40  38  39  39  40  41  43  40  43  49  50  52
  20  25  23  22  24  24  22  23  24  23  22  21  21  17  58  96 104 116 118 118 117 108  79  43  23  12  15  14  14  19  18  17  18  18  17  15  16  17  20  18  18  21  19  20  22  29  27  30  22  27  24  26  26  25  30  24  30  29  30  29  26  27  31  29  27  29  27  40  32 126 235 246 247 244  75  54  60  53  47  42  38  38  40  39  39  40  42  40  44  50  48  52
  23  22  24  24  24  23  23  23  23  23  23  23  22  21  43  94 105 116 120 119 117 119 102  93  68  23  15  15  17  20  19  17  17  18  16  13  14  16  21  20  17  18  20  23  27  28  18  24  20  21  19  26  22  19  25  23  22  26  27  24  20  20  25  24  25  24  34  37  59 186 249 254 252 249  96  53  59  59  57  54  46  37  36  38  37  37  39  38  43  48  45  56
  26  25  27  24  21  21  21  23  24  24  21  22  23  18  23 100 102 117 119 123 121 120 113 111 102  74  34  18  21  18  18  14  18  14  16  19  18  16  17  17  16  16  14  21  23  19  19  20  17  19  19  18  16  17  23  25  21  24  28  21  20  28  31  24  27  28  37  46 131 233 254 250 253 249 130  47  59  58  58  57  58  53  45  39  38  38  37  37  42  48  50  57
  24  22  26  23  23  22  22  23  25  25  24  23  20  21  15  77 100 117 124 127 127 124 121 115 114 110  71  42  21  18  16  15  19  16  18  18  15  14  14  14  14  13  16  17  17  16  17  23  21  19  17  20  11  18  24  23  19  20  20  15  20  24  26  29  29  36  44 108 221 252 253 253 254 246 163  37  57  57  59  58  56  61  60  57  51  46  42  41  40  45  49  52
  26  24  23  22  21  23  22  23  23  22  20  19  19  23  18  55 104 118 130 131 129 128 125 125 122 123 109  78  36  19  16  15  17  15  15  17  15  14  14  14  14  14  12  13  16  15  13  16  18  18  16  18  18  19  24  22  21  21  20  23  35  30  24  31  32  50  82 191 250 250 253 255 253 248 197  32  57  58  59  59  55  52  56  59  61  58  48  48  47  47  47  48
  26  25  23  23  22  22  23  24  22  21  21  21  22  25  23  36 109 118 129 131 133 133 128 126 128 128 117  96  51  54  26  15  18  13  14  18  16  16  15  16  14  15  12  14  14  13  15  16  14  16  18  17  20  16  17  22  25  26  22  22  24  28  28  29  51 101 193 238 249 253 254 252 254 254 224  34  53  56  57  60  56  58  58  56  56  56  54  56  56  52  48  54
  24  24  23  24  24  23  23  23  23  20  21  21  20  24  24  25 101 121 129 131 136 136 133 132 128 129 123 107  98  68  58  31  13  20  18  14  18  17  14  16  15  13  14  14  13  13  15  16  17  17  16  17  18  17  20  23  24  23  26  19  24  34  39  61 108 172 238 247 250 252 253 253 251 253 244  60  49  54  55  59  57  59  57  56  56  57  55  56  53  53  55  56
  25  25  23  24  24  23  22  23  22  20  21  21  20  23  26  18  86 124 128 133 138 139 136 132 132 130 124 123 112  97  84  75  35  20  14  18  21  18  14  15  15  13  13  16  13  15  16  14  15  19  13  16  16  15  14  17  22  24  23  32  32  31  67 114 165 238 246 251 249 253 255 254 253 253 249  83  43  52  55  56  58  58  57  57  58  58  56  52  53  54  53  57
  25  25  23  22  23  24  21  22  19  20  21  21  21  22  26  17  53 124 133 137 137 140 137 135 137 133 130 126 122 115 105  94  75  47  27  19  25  18  15  19  18  16  17  17  17  15  14  14  13  20  17  19  18  25  28  24  24  27  29  41  46 115 117 152 232 241 252 252 249 255 254 255 254 253 245 117  35  49  56  58  58  57  56  57  58  58  58  58  56  56  56  54
  24  24  23  26  24  20  18  18  20  18  17  21  20  22  25  24  40 132 133 137 140 140 139 137 137 136 135 133 129 124 116 115 106  89  66  30  22  27  23  21  15  16  19  17  16  17  16  13  17  23  18  22  24  23  30  26  34  39  51  88 115 120 142 221 240 250 252 255 254 255 255 255 255 254 251 155  34  40  43  55  57  60  58  58  59  59  59  57  57  57  55  57
  26  23  27  22  22  22  21  18  18  19  20  20  21  23  25  23  25 123 133 139 142 143 141 139 141 137 138 136 134 132 129 125 120 107  90  63  46  28  25  33  36  23  20  20  19  18  18  19  18  21  18  23  19  35  36  68  79  88  96 128 122 134 216 235 245 251 253 254 255 255 255 255 255 254 253 181  44  44  42  44  50  56  55  58  58  59  58  58  59  58  57  58
