P2
# Generated by OpenCV 4.2.0
92 112
255
 117 117 116 119 118 118 117 118 119 119 118 120 120 119 119 120 120 119 119 116 120 109  80  27  39  20  32  27  38  34  48  77  85  71  97  75  76  96  78  95  87  65  33  44  40  49  56  90 113  41  29  30  31  35  34  54  59  38  32  46  56  69 103 130 128 123 121 124 122 124 126 126 126 126 126 126 126 125 127 127 127 127 126 128 128 128 127 128 128 128 127 128
 116 116 115 119 119 119 117 119 119 119 118 120 120 120 120 120 118 119 118 110  98  69  20  20  20  20  24  34  37  38  44  62  68  52  89  56  64  44  59  48  61  46  63  40  48  54  43  84  25  33  38  45  42  38  33  30  34  48  53  43  41  46  55  79 111 128 126 126 124 127 126 126 126 125 125 125 125 126 124 127 127 127 126 128 128 128 128 128 128 128 128 128
 118 118 118 117 118 118 117 119 119 119 118 120 120 119 119 120 117 118 108  86  97  17  13  21  19  25  27  33  39  53  79  67  62  59  70  56  44  36  30  54  88  42  34  29  31  29  59  24  29  28  31  29  29  43  47  47  50  38  41  55  59  51  59  64  80 100 124 127 126 127 126 127 126 126 127 126 126 126 128 126 127 127 126 128 128 128 128 128 128 128 128 128
 118 118 117 119 119 119 117 119 119 119 117 119 121 120 119 119 120 115  67  52  22  16  21  17  22  20  26  30  41  35  42  47  75  69  61  62  54  30  34  63  78  39  32  40  36  34  40  27  38  63  56  54  42  42  44  51  34  35  47  58  46  81  64  72  64  95 111 124 125 126 126 126 125 127 125 126 127 128 128 128 127 127 126 128 128 128 127 128 128 128 128 128
 119 119 119 119 119 119 120 120 120 119 118 118 119 118 119 120 114  92  35  17  20  16  16  27  32  40  54  36  39  47  60  63  56  69  82  66  44  34  42  46  47  49  48  36  35  31  32  34  54  71  60  51  41  36  36  38  36  38  39  54  64  60  64  82  76  83  79 110 128 127 126 126 128 126 124 125 128 128 128 128 128 128 128 128 128 128 127 128 127 129 129 129
 119 119 119 119 119 119 120 120 120 120 120 119 119 116 116 118 100  42  24  23  16  25  36  27  24  29  31  38  48  54  51  50  45  40  29  54  41  52  59  43  60  85  38  42  40  25  25  43  43  52  48  44  40  37  35  39  35  25  25  27  20  36  38  67  83 107  59  67 115 129 127 126 128 126 127 127 128 129 128 128 128 128 128 128 128 128 127 128 126 129 129 129
 119 119 119 119 119 119 120 120 120 118 117 119 120 117 119 113  96  26  19  22  24  23  20  26  35  46  50  68  68  59  44  35  38  34  42  24  29  45  74  74  83  63  30  39  40  33  70  58  80  64  57  48  39  30  28  26  22  25  24  23  24  23  24  44  78  86  85 100  90 127 126 126 127 128 127 127 128 128 128 128 127 127 127 127 127 127 126 127 126 129 128 130
 119 119 120 118 119 119 120 121 120 120 119 119 118 118 118 109  29  24  31  24  18  23  26  47  56  56  49  42  37  25  26  25  16  22  29  42  28  46  58  76  58  26  41  61  34  34  47  97  59  43  49  47  43  32  32  29  32  27  26  26  25  28  25  32  57  44  80  71 111  91 146 118 132 127 126 126 126 126 127 127 129 129 129 129 130 129 129 129 129 129 126 129
 119 119 118 120 121 120 120 120 120 120 119 119 120 126 119  59  35  23  22  21  27  30  41  53  66  69  54  47  54  65  71  75  70  59  30  26  37  37  43  40  42  31  63  69  37  44  51  63  92  71  73  42  24  69  44  21  17  13   7   6  10  11  25  17  53  34  23  22  75  79 105 144 128 126 127 128 128 129 128 127 129 129 129 129 128 129 129 129 130 129 128 129
 116 119 120 119 119 119 121 121 121 119 120 119 119 116 113  32  18  21  24  27  29  41  53  45  46  60  63  65  67  74  63  62  74  76  78  64  48  57  31  30  31  47  90  78  41  35  67  94  85  69  23  31  84  47  30  17  19  22  25  27  30  25  33  16  15  35  52  44  21  48  95  63 126 118 124 127 126 127 128 127 129 130 129 129 129 129 129 129 129 129 127 129
 117 118 118 120 120 121 121 120 120 118 123 117 120 127  53  23  26  26  24  31  38  41  61  74  75  66  65  92 102  72  79  97  84  84  43  70  33  58  41  38  27  49 100  82  43  46 111  69  45  21  19  73  71  17   9  13  17  27  33  31  36  37  28  31  51  34  36  40  46  30  18  87  66  75 116 127 125 125 125 128 128 128 127 129 129 129 128 127 128 128 127 129
 119 119 118 120 121 121 121 119 119 122 119 120 126  63  20  23  26  28  39  45  57  65  70  75  95 100  92  70  47  61  75  45  84  80  95  48  43  63  44  39  38  55 103  83  70  76  57  80  17  13  29  46  33  34  53  57  57  51  43  41  39  37  39  64  74  71  77  64  40  47  22  66  99  63  64 105 130 126 129 126 128 127 127 129 129 129 128 128 128 127 130 130
 119 119 118 120 120 121 122 122 120 121 118 130  57  25  20  31  27  38  49  58  62  56  48  45  47  59  83 105  99  71  57  57  38  54  99  94  51  28  78  53  56  55 103  82  92  91  35  53  13  18  48  43  93  68  57  41  37  37  40  44  43  41  40  34  42  42  58  85 128 109  67  81  48  62  85  93 126 127 127 129 129 128 127 128 129 129 129 127 128 127 130 130
 119 119 118 120 121 120 122 122 121 119 123  61  31  21  31  32  46  46  34  29  37  41  38  29  18  24  34  31 104 101  64  60  38  33  60  95  79  33  76  67  58  53  84  72 105  70  37  28  16  34  71 117  52  72  56  44  42  51  63  64  62  46  47  47  28  36  59  66  80 118  85 115 127  86  38  40  93 124 129 127 129 129 130 128 129 129 129 130 128 129 129 129
 118 119 119 120 121 121 121 119 127 117  79  16  23  26  32  36  38  42  29  23  24  30  55  73  74  52  28  24  37 100 101  67  36  32  45  56  61  54  69  83  65  33  58  72  66  45  39  19  23  52 111  47  60  35  28  28  12  29  38  36  34  45  43  47  65  30  25  46  63  84  86 101  92 122 125 138  86  94 130 132 128 129 130 128 128 129 130 130 128 128 130 130
 118 120 119 120 121 123 121 118 121  87  19  29  25  26  37  42  21  16  37  70  90  90  82  67  45  55  74  30  18  68  81  81  49  24  30  41  44  56  66  68  76  38  43  53  39  33  30  27  32  71  52  52  27  19  19  24  32  32  29  49  68  47  42  40  44  69  34  41  30  47  64  59  28  27  51  63  91 132 131 125 130 128 129 129 129 129 129 130 128 128 130 131
 121 121 122 120 120 122 121 121  93  17  18  22  31  52  29  19  22  44  60  57  39  35  32  36  26  40  48  57  29  33  59  72  51  26  19  25  37  42  62  76  59  53  39  37  33  40  36  33  39  61  39  35  27  25  19  25  16  13  20  30  38  68  58  53  48  40  91  48  31  47  64  50  53  74  83  89 104  90 110 134 129 129 127 130 129 128 128 130 127 127 130 130
 120 122 120 120 121 122 118 112  26  17  26  28  54  27  22  18  61  79  49  34  27  24  30  31  41  20  31  54  44  27  61  49  43  32  23  28  30  34  38  52  48  62  47  39  46  44  45  40  46  44  40  38  28  23  28  24  23  18  24  19  13  17  36  46  49  70  52  80  52  33  80  73  88  87  62  79  76 101 117 117 130 126 131 131 132 129 128 130 130 131 129 129
 120 122 120 119 121 121 119  48  19  27  24  53  29  21  25  77  71  37  29  28  25  23  21  30  34  41  21  38  35  31  52  38  38  35  34  35  34  41  36  52  48  65  62  55  61  63  54  52  47  45  46  42  38  37  35  36  36  31  32  25  25  18  16  47  47  36  89  73 101  40  35 125  39  71 104 105  92  65  87 121 127 125 127 129 130 129 129 130 130 131 129 129
 119 122 120 120 120 119  94  21  24  24  52  28  19  25  49  68  54  43  30  24  25  25  28  30  33  38  32  35  44  41  44  41  40  39  40  55  52  48  52  59  66  84  86  84  82  79  76  65  67  59  54  50  51  55  57  58  62  54  54  48  43  30  23  38  63  61  48 110  93 109  53  43 132  51  98  82 102 123  87  81 115 123 130 128 130 131 129 129 130 130 131 131
 119 121 121 120 116 121  68  29  20  41  36  25  23  21  57  58  58  32  27  20  14  18  20  28  29  39  47  44  55  56  52  61  55  45  54  68  90  69  79  78  88 104 116 108 104  94  92  84  83  76  72  71  73  81  90  94  97  88  86  82  67  51  39  40  70  51  49  54  59  74 115  51  80 156  38  94 107  89 110  85 105 128 134 130 127 130 130 130 131 130 131 131
 121 122 121 117 120 102  50  26  31  37  27  19   8  37  44  66  43  30  21   9  11  19  29  38  44  54  70  69  84  91  81  67  81  57  55  69  97 102 105 108 121 130 131 129 123 111 105 103 105 100  92  90  99 108 116 122 119 116 110  99  91  79  66  54  60  44  51  31  59  43  71  77  33  90 138  66  79  98  66 127  65 131 137 138 134 133 130 130 132 131 131 131
 122 122 121 123 115  93  31  32  34  35  16  24  14  46  45  61  34  17  13  14  17  28  47  68  88 100 105 107 113 121 111 101  90  85  64  76  89 119 127 130 127 130 143 145 147 148 139 127 122 124 122 119 123 126 130 133 133 128 120 120 114 101  86  74  67  42  35  35  30  56  60  75  66  21 110 100  99  71  72  68 120  95 120 129 129 132 131 130 131 131 131 131
 120 122 121 123 114  95  37  42  41  14  32   9  28  43  49  34  27  17  13  16  22  40  71 107 135 138 150 150 141 137 136 119 114 100  93  92  92 108 124 152 150 137 151 161 162 167 162 162 156 147 149 145 136 141 140 141 138 142 133 130 120 116 107  97  82  51  27  33  26  33  45  69  43  17  26 124  83 127  78  32  74  97 152 132 127 131 131 129 131 131 130 130
 122 120 121 122 111  80  36  34  32  22  20  12  35  33  46  30  21  18  15  22  36  75 119 142 152 152 159 161 161 165 156 145 131 125 122 119 121 119 140 146 168 166 159 165 161 165 165 166 168 161 160 156 153 148 146 145 143 137 132 134 128 121 114 115 102  78  39  31  26  24  42  44  58  58  21  44  92  82 100  78  30 103 120 130 130 130 132 131 132 132 130 130
 123 123 123 121 117  39  26  34  15  23  13  21  35  27  38  27  38  26  11  30  62 108 139 148 153 160 167 165 161 165 164 170 166 158 165 158 153 160 152 180 181 181 175 167 163 163 164 167 170 165 162 156 155 152 147 145 141 136 130 129 130 122 119 118 112  96  49  28  25  24  23  42  49  52  27  33 101  43  79  89  40  55  97 126 134 130 131 131 132 132 131 131
 124 123 123 118  78  31  27  25  17  15  18  27  29  30  33  28  46  21  20  46  88 130 148 154 156 161 162 168 170 173 174 175 182 181 189 183 189 180 187 175 189 186 178 171 169 162 170 164 167 168 165 162 158 153 148 143 140 138 133 129 129 123 119 119 115 101  70  37  25  21  21  33  40  52  45  20  39  58  40  83  60  42  58 119 135 129 131 133 131 131 132 132
 122 124 123 123  34  23  34  13  22  18  16  37  26  28  27  31  43  21  29  64 104 137 147 150 156 162 162 167 169 171 177 175 187 188 189 188 188 188 192 189 190 193 185 175 170 168 167 167 166 169 167 160 159 156 151 147 146 141 136 132 128 119 119 123 119 104  82  54  29  17  22  19  32  42  38  29  17  80  26  42  75  59  21 105 129 128 129 130 131 131 132 132
 121 123 123  89  32  35  21  18  19  17  19  34  22  27  28  31  33  25  47  85 118 138 145 149 155 160 164 168 169 171 178 179 187 190 187 181 181 183 190 190 190 187 183 176 169 171 169 165 168 168 168 161 157 157 153 151 147 140 136 138 128 118 117 120 119 103  90  72  47  25  18  15  18  40  59  47  25  28  24  16  41  62  46  60 128 130 130 131 131 131 131 132
 122 122 120  52  23  34  12  18  17  18  21  31  23  25  26  26  29  33  62  97 127 137 142 146 152 157 164 168 170 176 177 180 184 186 180 186 188 188 191 187 188 188 183 186 176 170 169 174 169 171 162 164 165 161 155 150 143 141 138 137 131 122 120 116 114  99  85  77  58  35  20  18  17  19  38  53  25  31  54  18  25  49  52  47 111 133 130 131 131 131 131 131
 122 126 115  32  29  24  15  16  17  18  22  26  20  27  26  26  28  39  75 113 133 137 138 149 156 159 166 166 173 175 177 183 185 185 185 181 184 187 185 179 183 184 184 178 176 173 166 174 172 172 169 165 163 164 158 151 147 138 136 138 133 124 119 119 113 100  84  81  69  47  24  13  14  12  41  55  41  16  51  20  24  19  58  54  85 133 131 131 131 132 132 132
 131 118  53  30  29  16  16  15  17  22  25  25  20  23  27  28  33  49  90 125 137 134 142 151 154 159 163 164 170 172 178 185 181 180 182 182 183 188 189 182 183 182 185 182 177 173 172 172 168 171 167 170 167 163 159 152 144 135 132 132 131 121 117 117 112  95  76  77  71  58  30  17  16  14  18  44  57  22  43  22  30  16  25  76  75 128 130 132 131 132 132 132
 116 120  37  29  28  14  15  16  19  20  25  21  19  21  28  28  33  56 101 129 137 134 137 150 153 157 160 164 167 172 177 177 184 181 185 187 186 186 185 189 186 183 187 183 178 172 168 175 173 170 166 170 167 163 161 156 150 141 137 134 130 120 117 117 110  93  78  74  60  50  38  24  16  14  11  36  64  46  25  38  27  30  15  28  73 122 131 132 132 131 132 131
 129  73  31  26  24  13  12  18  20  18  24  17  13  23  28  28  37  62 110 134 139 132 145 154 158 160 160 166 166 172 175 179 183 183 184 184 190 182 182 189 183 182 179 181 177 174 174 174 169 169 164 167 166 158 157 154 152 145 141 137 132 121 117 119 107  95  83  78  55  46  32  29  22  14  10  31  44  42  38  58  50  27  30  28  58 110 130 131 132 132 132 132
 123  42  28  34  15  16  15  18  20  18  22  15  14  28  22  28  44  75 113 138 139 136 144 155 159 160 160 165 166 172 174 175 180 178 186 182 182 181 182 184 186 183 183 179 173 169 176 170 168 163 163 164 162 156 150 149 149 148 144 141 132 125 120 117 112  95  90  85  59  44  32  24  19  18  13  16  30  58  33  40  36  31  36  42  41 107 132 132 132 131 132 132
 102  34  28  28  13  15  17  21  19  17  17  12  15  26  22  36  53  82 116 137 140 137 141 151 158 159 158 161 167 168 172 173 174 180 181 184 181 183 183 183 183 183 181 178 173 167 178 170 169 166 164 164 159 153 150 147 147 147 143 140 134 128 124 122 114 101  97  91  63  46  32  21  17  14  22   9  32  40  37  42  54  27  29  21  39  46 129 131 132 131 132 132
  71  40  27  20  11  14  20  26  18  19  11  10  17  27  23  38  52  89 120 134 143 142 142 148 152 157 160 159 166 165 169 172 179 178 182 185 181 184 187 185 183 185 181 176 175 167 169 168 169 166 162 164 155 152 144 143 146 148 148 146 134 129 126 120 110 102 101  98  67  43  33  25  18  15  16  16  27  27  60  35  31  34  32  16  22  41 117 128 131 134 131 132
  52  40  29  18  14  17  24  25  17  14  10   9  19  27  23  37  52  91 125 137 144 144 147 149 153 157 156 160 163 165 170 172 178 179 187 185 184 184 185 187 183 182 179 176 177 171 169 167 167 165 160 161 156 149 147 127 144 152 153 140 135 129 127 119 106  96 105  94  74  52  33  25  20  17  14  18  20  38  53  38  36  30  38  30  29  33  87 133 133 133 131 132
  54  29  26  15  18  17  26  20  19   7  11  15  21  27  24  35  57 105 126 130 144 146 151 153 157 160 160 161 164 165 171 174 178 181 184 186 184 188 186 182 184 186 187 184 181 172 172 172 172 162 160 161 154 153 154 145 151 158 143 148 137 130 123 114 106 101 105  94  78  63  44  31  25  20  16  15  18  33  45  37  46  28  40  37  20  26  53 133 128 131 132 132
  46  26  23  20  16  24  21  18  14   9  15  19  25  24  24  35  64 103 122 134 141 146 150 154 157 162 164 160 161 164 169 170 173 174 179 180 174 177 177 177 184 180 181 182 181 175 172 170 169 161 162 164 159 156 154 157 156 149 153 143 137 121 119 112 107 104 109  99  83  69  45  36  31  25  17  12  13  33  37  54  43  15  40  36  26  27  53 111 129 133 132 132
  47  41  18  25  18  24  16  21  14  14  18  21  28  23  26  41  58 100 125 128 143 144 146 153 157 159 162 162 162 163 168 168 171 174 180 179 180 178 178 179 182 184 180 182 185 177 174 171 170 161 165 166 160 162 157 160 159 155 156 144 139 118 115 117 110 109 114  98  86  68  48  45  46  29  18  12  15  21  43  48  43  27  24  34  39  26  46 104 131 132 132 132
  47  67  29  23  22  23  19  16  13  14  21  25  27  22  29  32  57 108 124 126 139 146 149 152 157 161 163 163 165 166 167 169 174 177 181 180 179 176 177 179 179 187 187 183 183 179 178 173 171 160 164 168 166 164 166 165 163 158 156 148 139 128 126 126 126 121 115 105  86  63  52  54  56  44  25  14  15  14  42  45  57  20  21  39  44  21  38  98 134 134 133 133
  89  88  23  20  24  19  14  18  15  16  25  26  24  22  27  39  67  97 129 129 137 145 151 154 158 163 164 166 167 168 167 172 174 180 178 178 180 179 179 180 183 187 185 187 185 186 183 167 166 166 167 171 167 162 161 162 160 157 156 155 145 138 135 141 136 138 137 121  83  68  55  56  66  54  31  18  22  18  42  47  63   9  32  40  40  28  51  91 136 130 133 133
 108  73  27  26  23  12  17  14  17  24  29  22  19  18  32  39  54  96 127 133 136 145 148 155 156 161 166 169 169 169 167 177 172 178 178 184 179 185 184 180 184 185 180 184 186 185 177 170 172 166 161 167 166 158 164 162 165 159 151 150 146 128 127 137 141 142 142 152 107  66  56  60  73  67  41  21  24  23  33  43  57  25  27  30  28  36  42 108 131 134 133 133
 124  53  31  25  21  19  15  16  25  31  22  23  17  23  23  33  57 105 121 126 138 144 149 155 160 164 172 166 171 169 174 176 176 178 181 181 181 186 185 181 182 184 184 179 180 178 173 170 168 167 159 160 160 153 158 148 153 141 143 131 124 109 106  99 101 107 113 117 105  82  58  62  82  78  51  41  25  28  26  39  43  34  27  24  32  36  39 119 130 129 133 133
 125  39  34  23  19  16  21  31  24  23  27  16  18  23  22  37  76 110 125 127 137 147 153 157 159 165 172 172 171 167 177 175 176 176 176 179 178 180 179 174 180 180 179 173 171 169 164 160 160 158 159 151 126 125 102  95  99  82  98 101  95  94  87  86  86  84  72  80  85  83  66  70  83  85  66  41  50  37  25  38  42  55  19  20  40  48  40 127 133 132 133 133
 120  47  30  26  26  28  20  16  14  25  27  18  18  20  29  74 111 114 123 127 142 145 147 152 155 160 166 166 163 169 178 170 171 170 171 172 173 175 173 169 174 175 169 166 162 164 160 150 148 139 129 104  82  72  69  73  62  85  70  74  79  78  70  69  70  70  65  57  57  77  72  79  83  89  76  80  57  54  35  30  41  62  18  18  37  53  55 133 135 132 133 133
 123  64  26  26  13  15  12  17  19  26  20  19  15  26  38 112 120 118 119 131 147 137 137 135 144 147 153 150 154 155 156 155 162 154 158 166 165 168 168 165 168 170 170 160 157 157 154 138 126 123 104  81  69  66  60  62  55  58  62  67  72  74  65  63  64  61  56  61  62  64  72  80  90  85  83  71  82  60  38  30  33  57  25  25  46  63  65 136 130 134 133 134
 121  66  31  27  15  15   9  17  22  26  23  16  21  26  62 128 129 118 118 135 127 115 121 119 124 123 120 112 114 117 103 104 118 131 134 147 152 158 161 159 166 168 163 156 148 149 150 136 125 111  84  71  64  63  61  63  79  89 100 102 107 102  95  90  75  64  65  64  67  68  73  78  87  87  83  89  78  67  60  47  44  51  36  27  71  85  70 135 133 133 134 133
 125  40  36  30  18  15  13  19  23  26  20  17  21  31  63 128 127 127 114 112  90 106 104 104 109 101  85  88  82  71  61  72  85 102 111 130 123 132 145 153 165 170 164 155 146 142 137 122 110  90  72  61  60  65  80  89  92  99 111 121 118 120 117 112 102  85  83  82  88  81  73  74  83  82  73  79  87  80  55  36  44  43  58  34  80 107  93 132 133 133 132 133
 124  31  38  32  17   6  15  20  23  29  19  24  29  34  70 126 132 122 103  89  88  90  84  81  90  72  66  71  66  69  69  70  75  90  98 110 116 123 135 144 155 163 161 148 140 135 119 100  81  65  59  62  73  48  50  72  50  38  30  25  25  53  45  49  61  84  88  94  95  82  84  78  82  80  81  76  87  84  84  45  59  31  76  32  44  62 115 130 133 134 133 133
 128  31  57  38  18  10  18  22  24  29  26  32  35  35  76 125 136 125  99  89  84  94 112 122 125 129 136 135 138 130 119  97  90  80  71  82  98 111 124 135 149 165 169 158 146 135 121  86  63  58  69  70  58  72  90  92  69 101  69  33  39  68  63  50  51  61  82  94  81  93  98  92 100  91  83  74  81  83 106 118  59  54  57  32  45  55 116 130 136 133 134 134
 128  42  78  38  24  19  17  22  25  28  29  32  36  35  90 127 136 128 104  96  99 119 137 149 154 154 150 121  95  66  49  56  52  61  84  86  80  85  97 127 155 165 170 166 152 136 115  76  69  73  75  81  99  82 106 172 108  50  23  40  52 119 109  94  54  63  77  73  90 104 106 111 119 117 108  85  79  84  93 120 109  65  69  34  36  57 113 133 135 134 134 134
 123  66 100  31  35  19  16  23  25  29  31  32  37  51 110 127 141 128 120 106 119 136 148 137  82  47  44  29  51  71  36  55  82  92  82  87  97 103  98 117 157 170 181 170 157 141 113  85  88  86  98 132  85 128 134 156 167 128 118 124 140 138 121 102  71  81 101 107 111 120 119 120 121 119 130 103 102  89 105 113  99  78  78  36  39  53 102 137 133 135 133 133
 122  92  97  33  36  28  21  31  32  35  33  27  43  69 129 131 140 135 133 130 135 130  78  55  53  79  87  39  86  44  50  70 136  87  95 109 112 110 126 137 156 171 178 173 161 146 122  93 104 115 139 129 112 153 153 145 140 135 133 115 128 130 125  98  72 113 117 123 121 126 126 129 125 118 113 105  95 105  81 105 110  65  75  55  81  55  98 134 133 132 134 134
 129 119  72  59  49  19  35  47  53  51  27  35  59  74 128 136 139 137 145 140 131  94  80  68  74 129 126  52  44  32  66 104 154 127 109 123 156 156 155 153 152 168 177 176 161 147 132  98 109 132 168 157 170 156 139 138 148 152 158 149 135 119  93  80 111 121 129 127 125 131 133 139 135 128 124 108  90  92  79 100 119  88  74  87  57 139  85 136 132 134 134 134
 126 129  84  91  55  24  53  55  36  50  28  36  69  98 118 138 139 141 146 144 129 112  99 106 124 130 151 111  77  88 112 164 158 137 136 142 163 185 166 158 156 171 179 176 166 154 144 121 102 128 150 154 152 148 135 118 114 116 115 109  95  92  89 108 127 143 143 130 126 134 139 143 143 141 135 119 103  80  82  94  97  85  67  58  64  74  99 132 132 131 134 134
 126 128 118 107  60  30  62  88  24  46  41  65  73  80 125 137 137 146 146 148 132 118 130 131 136 133 141 140 142 149 137 139 135 143 161 172 181 179 173 158 162 175 178 174 167 162 153 130 101 124 134 153 156 157 150 144 140 132 121 111 116 121 136 147 157 150 144 142 136 141 141 145 139 139 133 129 106  95  83 111  84 110  80  55  59  81 105 133 131 133 134 134
 123 129 127 125  99  28 104  72  42  62  43  69  71  84 115 137 142 148 153 156 149 146 153 140 143 148 153 153 149 147 133 126 118 137 161 167 168 171 170 159 163 176 179 176 169 160 152 141 109 104 130 150 167 169 161 160 157 156 158 157 159 160 161 161 160 155 148 150 144 138 147 145 144 143 139 129 102  90  91  98 110  93  66  65  64  98 107 133 132 134 133 134
 129 127 127 127 130  39 123  60  88 111  82  72  60  86 122 137 144 154 157 157 158 154 151 144 128 127 127 127 120 113 104 115 141 160 161 163 179 176 167 154 164 176 177 169 165 158 148 115  93  96 119 140 160 169 172 169 174 168 170 169 168 170 166 166 164 164 159 152 144 149 148 146 148 141 135 124  96  90  76 110 101  83  59  56  66  87 110 135 132 132 134 134
 129 128 129 129 130  71 129  61 120 136 104  70  81  84 125 136 145 157 157 156 158 159 157 154 154 134 122 120 126 138 156 165 166 168 175 183 175 172 158 148 155 169 168 166 161 150 134  97  94  98 108 132 157 160 162 174 177 176 172 172 170 170 166 169 166 164 162 155 152 154 150 145 142 137 130 120 120  92  92  95  75  89  52  57  71  89 113 139 131 134 133 134
 129 129 129 129 129 102 127  66 143 148 107  74  83  85 121 136 146 156 159 159 159 162 161 165 163 169 172 170 171 173 172 173 176 181 182 178 172 161 152 148 153 166 170 161 155 146 124  98 108 111 104 119 146 161 157 170 165 171 180 173 173 171 167 168 166 165 162 155 156 154 153 144 134 130 129 121 116  85 103  85  81  88  53  57  69  87 115 134 131 135 134 134
 129 129 129 126 125 121 114 100 152 148 128  76  76  86 119 133 146 155 158 159 163 166 167 163 165 170 164 167 172 175 176 180 181 183 183 175 167 153 149 147 151 157 166 159 150 144 127 105 106 109  99 110 135 158 162 180 143 168 169 175 176 176 173 171 166 162 159 154 151 150 148 144 134 127 114 113 104  74  81 100  92  80  48  51  63  92 111 135 134 131 133 134
 127 127 128 123 124 127 121 138 171 147 125  73  71  81 118 136 144 155 156 158 163 167 167 168 168 171 171 174 177 180 181 185 185 183 180 168 161 148 149 144 151 153 165 158 151 140 124 112 113 113 103 111 128 147 165 178 164 176 175 177 176 176 171 172 160 158 159 154 151 146 141 137 130 127 114 113  92  70  85  97  69  80  55  46  68 108  94 133 131 132 134 134
 130 130 130 129 129 129 128 141 171 148 127  86  78  73 117 132 144 152 156 160 162 166 168 171 172 175 178 180 181 179 184 186 185 182 177 163 155 147 150 145 150 155 168 166 154 144 128 118 120 113 110 105 117 143 156 170 171 177 177 181 176 173 169 165 155 153 157 153 151 147 139 129 130 123 113 110  94  84  81  88  75  61  61 118  95  87  81 141 135 132 134 134
 129 130 130 129 129 129 135 152 173 152 134  93  79  71 114 128 138 149 155 158 165 171 169 170 174 175 175 173 177 182 187 188 185 179 171 161 152 147 146 145 151 161 178 171 155 143 133 122 125 114 106  96 106 131 148 164 168 172 175 171 173 169 164 162 155 154 154 152 147 139 137 129 126 116 106 106  98  72  86  78  71  69  64 109 151 105  96 141 132 131 134 134
 129 130 130 130 130 129 137 154 166 146 147 114  77  80 102 127 138 148 153 158 164 169 170 169 173 175 175 176 184 187 188 184 183 178 170 163 146 146 144 147 153 163 178 164 153 142 126 126 124 120 104  92  99 126 144 157 163 168 175 168 169 166 162 161 156 153 148 150 146 135 129 125 116 115  99 110  92  91  98  55  55 112  98  97 153 157 118 140 133 133 134 134
 127 129 130 131 131 130 135 139 177 152 150 129  61  66 108 125 136 147 155 156 162 167 168 169 170 169 174 180 184 187 188 185 180 174 170 164 148 142 148 146 156 153 169 165 151 126 123 120 125 125 112  97  89 120 144 158 157 163 172 165 167 162 160 155 150 146 147 145 139 126 127 121 107 103 101 114  72 101  83  57  66  66  86 103 127 153 158 134 138 131 134 134
 130 130 128 131 130 130 133 135 173 149 135 139 104  76  94 115 132 143 153 156 162 165 165 168 167 171 173 178 182 184 182 182 180 174 176 167 148 142 146 150 146 151 158 164 149 130 119 122 132 134 125 111  97 105 146 163 160 159 165 168 166 157 149 148 147 141 142 133 138 124 119 112 102  94  90  89  71  91  79  67  74  68  85 101 110 148 140 146 129 133 135 134
 131 130 131 131 130 131 134 133 159 150 134 134  99  74  86 107 127 141 151 151 158 161 164 166 168 169 176 179 182 183 185 178 177 178 178 164 144 146 146 147 146 154 177 172 150 131 125 126 135 136 126 105  94  86 133 158 167 164 160 166 162 154 147 144 143 141 138 132 131 129 114 107 101  97  89  90  82  83  79  58  76  59  82  94 110 122 139 135 133 130 134 135
 131 131 131 130 130 131 133 133 140 157 139 126 104  69  71 102 123 140 148 147 158 162 161 163 167 170 173 178 179 181 177 178 179 178 178 156 138 148 148 144 147 190 207 197 171 143 127 122 128 126 120 101  81  72 118 151 165 164 157 158 159 155 149 145 136 132 129 131 121 125 109 103  99  87  94  85  82  58  86  67  61  66  70  83  92 114 137 132 132 135 134 134
 131 131 130 131 130 131 131 137 139 141 163 144 126  73  61 104 121 136 147 148 149 153 162 164 165 168 172 176 177 178 177 177 170 176 174 148 136 143 142 147 161 171 171 164 167 160 136 114 101 100  95  77  69  61 107 143 164 168 161 155 155 149 146 138 137 123 129 123 115 118 105 101  93  94  91  86  70  62  72  63  50  47  54  80 114 141 132 132 133 133 134 134
 131 132 131 131 131 130 134 133 147 133 172 161 141  89  64 104 118 130 144 148 150 154 154 161 163 165 169 172 170 173 172 172 177 174 170 149 122 122 130 120 138 146 140 142 142 150 113  73  65  49  50  59  57  54  98 140 153 161 164 155 154 147 144 139 130 125 123 119 111 105 108 100  96  91  99  74  85  61  61  50  44  31  50  98 126 132 134 132 133 131 134 134
 131 131 131 131 130 130 130 133 148 152 156 166 133 122  74  80 119 128 142 147 146 152 155 153 159 164 168 169 167 169 172 172 174 176 168 161 104  74  61  96 104 110 118 114 108  96  62  47  20  10  26  47  51  53 113 137 146 151 161 153 151 148 143 133 125 121 120 111 105 102 106  94 100  96  83  82  72  78  46  56  66  34  53  93 121 134 132 134 132 131 133 134
 131 131 131 129 131 130 127 130 136 147 158 162 135 110  78  78 111 123 145 146 147 150 152 154 158 159 161 162 165 165 171 175 167 163 164 162 134  79  42  16  43  76  80  74  70  67  35  16  19  18  22  38  46  83 118 140 148 147 151 153 154 152 140 130 124 118 113 107  97 102 102 103  98  89  94  79  82  79  58  58  53  40  44  97 125 132 133 134 133 133 133 133
 131 131 131 130 131 130 131 132 132 137 158 163 150 110  65  84 109 129 141 147 146 149 150 154 157 154 153 160 161 164 170 168 166 162 163 159 137 115  79  69  46  44  44  37  32  26  20  25  29  41  62  61  82 102 129 141 145 146 146 145 152 147 135 125 122 113  97  95  89 104 106 106 102  89  77  76  88  89  55  58  51  28  47  89 123 133 133 134 133 133 133 133
 131 131 132 130 131 130 129 131 127 124 149 149 146 128  75  73 109 125 143 146 148 147 148 148 154 157 155 160 153 162 165 164 160 161 162 158 149 117  94  84  79  72  56  44  30  33  29  31  42  53  71  78  80 110 122 150 145 141 140 142 143 141 132 125 123 109  96  83  95 103 108 106 103 103  75  86  82  85  58  61  34  33  50  85 118 130 132 134 134 134 133 133
 130 130 132 130 130 129 132 131 130 125 109 115 118 105  60  54 102 120 137 146 146 146 143 150 151 151 154 156 148 157 158 162 155 157 161 157 147 106  79  79  90  85  69  53  31  43  47  44  57  60  80  83  69 102 124 143 150 137 127 139 144 136 130 125 114 104  86  73  98 100 107 111 101  88  89  82  83  64  56  90  51  32  53  90 116 135 132 134 134 133 134 134
 131 130 132 130 131 131 130 129 132 131 133  96  69  37  50  50  98 113 136 143 146 147 146 144 150 151 155 157 155 160 163 159 157 154 155 145 122  87  56  85 116  98  79  54  48  50  58  83  60  68  77  79  71  83 123 132 138 137 139 133 124 130 127 126 118  99  74  77 101 105 112 111 103  87  84  77  72  78  60  69  39  41  53  87 118 135 132 135 134 133 134 134
 132 130 132 131 132 131 130 131 132 131 129  96  59  47  41  49  95 107 132 138 149 143 140 141 144 146 156 154 158 163 161 145 140 140 140 121 106  73  67 120 106 118 114  48  58  88  77  58  61  64  50  58  62  77 104 119 124 130 134 128 127 117 117 115 113  91  74  76 106 112 115 108  95  91  73  68  76  71  55  69  39  52  59  91 121 132 133 134 133 133 134 134
 131 130 132 132 132 132 132 130 131 131 127 102  43  52  53  58  91 105 134 133 150 148 144 143 141 143 145 148 159 153 139 131 137 115 114  97 119  65  69 121  82  92  83 100  70  84  72  57  58  49  52  53  61  69  84 112 106 112 116 106 113  91 115 101 108  90  71  78  99  91 109 110  88  75  70  64  76  73  46  55  52  54  59  96 121 131 132 134 132 133 134 134
 130 132 132 132 133 133 132 132 131 134 128 103  74  77  49  61  57 116 119 129 147 152 142 145 140 145 145 152 149 140 123 114 112 104 101  94  88  70  84  94  55  69  54  77  67  64  41  65  48  63  61  55  53  63  74  96 101 101  89  82  77  89 101  97  92  94  76  77  90 114  99 114  84  70  68  69  67  67  42  68  44  38  57 102 112 130 133 132 133 134 134 134
 130 132 132 132 132 133 130 131 132 129 130 110  84  97  64  79  66 105 110 133 146 150 140 138 137 135 143 147 119 112 100  97 106 101  81  83  68  54  72  72  47  52  55  73  60  47  32  42  46  53  59  56  69  62  57  80 103  73  74  71  74  78  75  69  97  76  81  75 103  96  88 100  84  72  71  60  63  60  54  48  50  41  63  96 113 131 133 132 133 134 134 134
 129 132 132 132 132 133 132 131 132 132 131 113 113  98  70  82  67 102 105 122 143 151 149 138 143 141 134 143 107  93  95  67 100 113  62  85  58  52  45  68  65  48  68  60  80  87  58  51  58  59  68  52  59  46  56  59  73  51  73  52  52  58  60  47  66  78  70  74  80  82  96  81  76  71  61  64  57  47  59  45  44  51  60  88 120 130 132 132 133 134 134 134
 132 132 132 132 133 133 131 132 132 131 131 123 125  94 107  87  65  81 107 109 133 139 140 130 145 142 129 118  97  79  78  80  69  74  52  68  59  59  67  71  99  95  98  93  85  81  70  65  78  75  64  55  49  40  41  40  42  37  39  38  44  42  59  61  63  79  57  65  72  84  91  75  64  64  64  64  57  61  44  49  50  57  65  93 120 131 132 131 132 133 132 132
 132 132 132 131 132 133 131 132 132 131 131 130 130 124 114  70  63  85  86 112 113 141 112 125 121 142 122 110  73  85  60  63  50  49  46  40  41  54  67  81  71  81  84  93  85  81  89  95  95  98 104 106 102  85  73  74  69  65  66  66  57  61  72  70  46  73  43  63  68  59  83  73  64  61  53  55  44  44  50  35  41  64  67  97 113 125 132 132 132 133 132 132
 133 133 133 132 132 133 131 132 132 130 129 134 130 132 129  93  84  70  76  96 104 126 138 128 116 130 125  98  85  77  60  63  53  44  52  60  85 106 134 143 144 145 143 135 129 126 132 132 133 135 133 133 127 124 108 104 103 100  90  91  93  94  90  86  75  69  40  42  54  57  59  79  67  61  50  53  41  51  42  46  48  55  82 110 122 129 131 131 132 133 132 132
 131 134 133 133 133 133 133 133 133 133 134 132 134 132 128 113  49  68  66 105  97 109 137 133 130 114 113  84  68  63  76  55  71  92 113 120 129 133 148 148 152 155 163 173 155 162 147 140 146 138 134 130 132 125 130 116 118 107 109 105 116 113 107  78  71  54  55  37  41  49  57  68  78  57  55  41  41  44  46  34  53  61  99 114 126 131 132 133 133 133 133 132
 132 133 133 133 133 132 133 133 133 132 134 133 134 129 129 117  67  53  67  89  99 110 120 132 114 114 102  95  74  74  75 109  85 118 133 133 134 138 143 137 152 142 142 133 129 119 114 119 116 120 121 126 113 103 103  99 116 106  96 115 116 112 102  85  68  66  22  47  31  51  53  64  63  50  49  32  38  43  44  44  54 105 113 119 129 132 134 133 133 133 133 133
 132 133 133 133 133 133 133 133 133 133 134 134 135 126 132 125  73  64  52  78  93 110 119 115 111 105  82  85  85  69  78  94 102 138 131 134 146 146 142 137 139 117 115 127 112  96  98 117 109 113  96 102 104 101  98 102 108 108 120 114 113 126  98  79  77  36  40  47  35  52  58  62  48  44  47  39  36  67  38  40  83 126 119 122 131 133 132 133 133 133 133 132
 132 133 133 132 132 132 133 133 133 133 134 133 134 130 132 123  80  65  62  63  83  87  93  91 108 106  87  89  74  63  88 106 111 140 135 132 131 140 137 141 126 110  95 110  96 103 103 106 105 121  95  88 107 105 109 112 105 116 118 110 115 111 101  83  42  49  40  49  40  51  58  62  42  41  43  33  41  85  46  43 105 124 125 126 132 131 133 132 132 132 132 132
 133 133 133 132 131 132 134 134 133 134 134 134 134 130 127 125  75  63  61  56  58  84  76  87  95  91  83  68  86  86  79  78 126 142 138 135 131 130 120 134 125 103  93  93  97 107  70  83 108 112  98 112  89 108 120 114 108 111 123 118 104  97  86  66  50  53  61  40  46  47  38  38  48  38  44  40  50  93  61  49 111 128 124 130 133 132 133 133 132 132 132 132
 133 133 132 133 132 133 134 134 133 134 134 134 134 131 134 133  90  50  68  44  67  51  62  73  78  72  78  67  74  77  71  91 128 130 127 137 128 119 121 127 127 106 108  98  91  99  79 104  99 102  97  91  89  95 111 115 116 124 131 134 103  90  62  67  48  38  51  47  49  43  36  26  54  44  52  52  76  92  70  57 122 128 126 131 134 130 131 131 132 132 132 132
 133 133 132 133 132 133 133 134 134 134 133 133 132 130 135 132 110  59  68  60  35  50  54  77  71  73  58  49  61  77  63  93 125 126 134 138 129 128 127 121 135 114 107  90 111 107  72  75  85 103 106  85  87  99 122 128 107 110 118 112  94  87  59  54  54  47  48  42  32  31  27  35  50  21  42  68  80 102  78  89 125 129 129 132 134 130 130 130 132 132 132 132
 133 133 133 134 134 134 134 134 134 133 133 133 135 135 133 133 120  67  62  56  38  44  43  50  61  76  54  56  47  46  64 103 101 118 132 142 145 141 139 133 128 126 119 107  99  84  86  78  90  95  99  98  91 119 131 128 107 108 104 101  95  71  60  58  43  41  34  32  34  27  33  35  42  35  38  66  98 121  84 105 128 129 129 132 130 130 131 132 132 132 132 132
 133 133 132 134 134 134 133 134 134 133 133 133 135 134 134 132 126  79 101  68  46  36  42  45  52  62  40  46  49  50  48  81 102  98 124 140 144 143 139 148 141 124 118 107  82  74  82  80  79  88  99  98 106 124 119 122 110 108 109  83  84  66  61  47  32  28  34  27  30  21  19  40  23  34  36  58 105 103  85 118 131 132 131 132 132 130 131 132 132 132 132 132
 133 133 132 134 134 134 134 135 133 133 133 133 135 132 135 133 127  86 118 112  49  40  38  48  37  45  40  39  45  54  59  85  97  97 119 122 130 135 150 147 139 137 116  93  93  89  80  82  68 106  98  92 116 132 108 104 111  96  91  82  92  61  72  38  38  29  34  33  20  20  24  27  22  28  40  66  76 115  97 133 131 131 130 132 132 130 131 132 132 132 132 132
 134 134 134 134 134 134 134 134 135 134 135 135 135 136 135 135 123 103 125 108  93  39  31  40  31  26  45  41  49  41  59  62  84  87  83  96 125 121 120 119 126 131 103  97 113 100  77  80  92  91  99  96 111 112  96  98  96 114  92  75  83  49  49  41  34  35  22  30  18  19  35  21  25  28  50  71  43  24 109 135 129 134 130 132 132 131 132 132 132 132 130 129
 134 134 134 134 134 134 134 134 134 134 134 135 135 135 135 135 126 110 127 129  90  60  25  38  21  31  34  47  44  50  61  72  79  76  76  98  97  90 111 103 115 102  96 117 114 103  99  87  96  92  93  95 105 104  89  78  85  84  82  58  83  46  40  54  27  42  28  26  22  15  31  26  26  40  52  78  25  13  52 111 129 131 129 132 132 131 133 132 132 132 131 131
 134 134 134 134 133 133 133 134 134 134 135 135 135 135 136 135 126 112 128 131 115  79  63  32  25  35  28  30  47  43  57  43  69  61  69  83  69  89 101  82 108  90  85 130 131  96  83  93  93  95  97  93  82 117  67  71  66  82  61  44  58  39  36  39  23  35  31  15  17  23  27  27  33  37  51  81  28  12  28  77 119 128 134 132 132 132 132 132 132 132 131 131
 134 134 134 134 134 134 134 134 134 134 135 135 135 135 135 135 129 112 133 136  81  75  79  56  34  36  30  29  29  33  40  49  43  50  63  61  69  96  87  80  74  88 102 103 117  80  79  88 105  76  91  81  94 101  81  62  59  63  54  46  47  40  38  20  22  25  16  14  20  25  35  31  36  37  52  77  24  16  12  55  76 129 127 130 131 130 131 131 132 131 131 130
 134 134 134 133 135 135 135 135 135 135 135 136 136 135 135 135 134 117 133 109  46  87  97  88  64  34  25  25  31  39  40  40  31  42  46  49  62  80  78  73  74  66  80 105  83  79  80  71 122  73  90  60  94  80  71  42  47  39  46  41  54  43  33  21  19  16  18  14  24  24  26  29  35  44  56  79  19  12  19  37  72  84 129 132 133 129 131 131 131 130 131 131
 134 134 134 133 135 135 135 135 135 135 135 136 136 135 135 135 130 129 111  48  49  78 100 101  96  77  48  26  25  34  41  36  36  38  48  46  76  62  62  63  59  64  94  95  75  74  74  78 109  63  79  43  78  55  59  46  39  21  35  58  30  38  30  20  28  18  17  17  21  23  32  33  42  44  56  81  16  15  16  23  62  58  98 132 127 129 131 132 131 129 131 131
 134 134 132 133 135 135 135 135 135 134 134 136 136 135 135 135 130 127  53  53  59  67 109 108 111  93  73  55  29  29  28  32  33  41  39  55  68  41  39  54  56  56  53  78  68  73  59  70 100  49  58  47  75  65  42  39  36  28  31  43  31  23  26  24  17  17  20  23  25  30  33  36  43  50  56  81   9   8  31  21  63  59  63 116 135 129 131 131 131 128 131 131
 134 133 135 135 135 135 135 135 135 135 136 136 136 135 134 131 137  73  54  51  67  56 110 116 118 107  95  86  64  33  24  25  26  43  33  45  37  68  47  70  50  44  51  70  47  53  59  57  60  49  38  53  50  45  36  31  26  27  37  37  22  18  19  19  18  23  26  25  33  34  34  39  40  54  59  78  14  14  39  19  49  61  55  78 132 129 132 131 130 130 131 131
 134 134 135 135 135 135 135 135 135 135 136 136 136 133 127 139  85  72  68  46  84  37 108 122 122 123 118 105  96  64  34  38  28  29  31  37  42  31  48  64  47  42  42  58  43  35  43  56  45  47  41  57  47  30  21  23  26  32  36  28  18  17  21  20  19  19  25  27  34  36  38  40  45  57  65  78   6  15  41  27  50  65  60  57 100 130 131 131 131 130 131 131
 134 133 135 135 135 135 135 135 135 135 136 136 136 133 138 105  69  78  71  57  82  52 109 123 122 127 130 120 115  98  76  57  44  39  28  39  59  34  30  39  69  33  69  29  51  36  44  39  43  49  36  46  22  21  22  39  49  33  15  30  19  23  25  22  23  24  24  30  33  40  41  42  48  57  65  77   3   7  41  36  46  60  56  53  60 122 130 131 131 130 131 131
 133 135 134 134 135 135 136 136 135 134 135 135 135 125 130  75  73  66  64  63  81  80 103 122 128 128 127 128 127 113 105  87  64  69  24  66  22  30  33  48  38  22  38  48  35  54  46  51  28  29  21  29  22  19  17  25  31  27  21  22  28  28  26  24  30  29  29  36  38  41  44  44  49  57  69  78   7   7  42  44  48  67  54  51  64  87 132 130 129 129 129 129
 133 135 135 135 135 135 135 135 135 133 134 137 134 145  75  78  82  70  61  69  80 111 106 123 131 132 134 132 129 134 121 110 103  75  74  48  50  42  36  27  41  54  45  43  37  32  57  33  21  28  27  25  24  23  28  29  27  27  27  28  24  21  25  29  32  33  34  39  40  47  45  44  51  56  70  68   4   8  40  40  48  57  52  55  63  76 114 128 130 128 130 130
 133 136 135 135 135 135 136 136 135 134 134 136 141 107  65  83  83  78  61  73  74 116 108 123 131 136 133 137 132 133 131 121 109 101  90  81  62  53  40  47  46  28  19  25  25  17  22  23  25  20  26  20  24  31  34  27  30  31  28  26  28  31  29  30  32  34  38  40  42  47  49  48  53  62  71  46   7   7  36  41  59  62  53  53  61  73  80 137 125 127 130 130
 133 135 134 134 133 134 134 134 136 136 129 109  88  59  87  88  87  74  59  84  73  90  97 121 128 138 137 135 138 130 131 131 119 113 102  94  77  59  59  48  29  30  33  26  22  19  22  18  14  27  20  21  23  28  33  28  28  28  30  29  31  29  35  35  35  38  40  46  48  52  51  49  53  61  67  25  14  11  43  59  61  52  51  52  58  70  70  98 133 131 129 129
 134 135 136 133 134 136 134 116  86  66  68  65  68  71  86  89  83  71  56  88  71  55  80 120 129 135 144 141 139 134 136 136 129 126 118 106  85  78  60  51  47  38  44  38  30  26  22  22  23  22  23  25  31  35  31  32  28  31  33  31  34  34  35  38  42  43  44  49  49  53  52  53  56  70  50  24  19  23  65  61  69  60  55  52  58  64  68  77 124 131 129 129
