P2
# Generated by OpenCV 4.2.0
92 112
255
  79  79  77  78  78  78  76  74  75  75  74  74  73  73  74  74  74  71  71  71  70  69  68  66  64  64  63  63  63  62  60  57  56  52  71 115 145 116  74  43  57 105  69  30  21  24  26  17  36  38  22  17  12  10  20  32  25  21  20  22  22  23  23  22  23  24  25  26  24  28  30  31  33  33  33  34  36  37  37  37  38  38  38  38  39  40  40  41  40  40  41  42
  79  78  78  77  77  77  76  75  75  75  74  75  74  74  75  75  74  73  72  72  71  70  69  67  65  64  64  65  62  58  56  63  81  86  99 109 128 158 152 151 126 114 138  95  51  40  28  43  46  49  65  24  20  24  23  35  29  23  25  24  21  22  24  24  23  24  25  26  27  29  30  32  33  33  34  36  36  37  37  37  38  37  38  38  38  40  40  40  40  41  41  41
  80  79  79  78  78  78  77  76  75  76  74  75  75  75  74  74  75  75  73  73  72  71  69  68  66  66  61  60  75 102 119 127 134 133 129 137 130 126 135 154 166 157 141 149 156 133 114 108 121 106 112 102  73  55  46  41  38  34  27  23  24  25  27  26  23  25  24  24  27  29  30  32  32  33  35  36  36  36  37  37  38  38  38  38  39  40  40  40  41  41  41  41
  81  80  79  78  78  78  78  77  77  76  75  75  76  76  75  74  76  76  74  74  73  70  70  69  65  63  68  89 107 110 121 111  96  94  97 108 105  93  98 108 109 117 132 135 135 132 125 130 130 142 142 127 124 121 101  70  56  51  37  33  31  25  23  22  23  25  24  25  27  29  32  32  33  33  34  35  36  35  37  38  38  38  38  38  39  40  40  40  41  40  41  41
  80  80  79  78  79  78  79  78  78  76  76  76  75  76  76  75  77  76  75  74  73  71  70  71  69  82  92  93  75  87  96  92  79  65  71  83  95  99  86  79  76  70  63  62  84  90  99 104 111 113 130 149 147 153 148 119  82  60  44  38  23  21  23  23  23  23  25  26  27  29  31  32  32  33  34  35  36  36  37  38  38  38  38  38  39  40  40  40  40  41  41  41
  80  82  79  79  80  79  79  78  78  76  77  76  76  77  76  75  76  76  76  74  74  71  67  73  84  85  76  78  89  92  73  66  75  74  97 113 108 107 111 118 110 103  99  90  97 110 133 138 121 117 125 119 137 154 156 152 137  75  59  54  41  24  22  23  25  22  24  27  28  29  31  32  33  33  34  34  35  36  37  38  38  38  38  38  39  40  40  40  41  41  41  41
  81  81  80  80  82  80  79  77  78  77  77  76  77  78  77  77  76  76  76  75  72  70  77  88  69  68  82  94  89  83  94 111 111 103  92  95 100 112 114 119 123 125 117 114 127 135 126 136 132 123 115 107 116 123 129 141 143 163  91  69  79  60  32  17  20  24  24  26  28  29  32  32  33  33  33  34  35  35  37  38  38  38  37  38  39  39  39  40  40  40  40  41
  82  82  81  81  81  81  79  78  77  78  78  78  77  77  77  76  77  77  76  77  78  81  86  76  83 106 105  99  90  95  82  84 101 104 106 117 117 108 101  89  85  87  96  96  89 104 122 120 117 135 123 104  88 102 106 106 112 133 156 105  73  68  63  54  22  22  27  26  28  30  33  33  33  34  34  35  35  36  37  38  38  38  38  40  39  39  40  40  41  41  41  41
  84  84  81  82  82  82  81  80  78  79  79  80  78  78  78  77  77  77  77  77  68  71  83 103 106 108 101  92  99  91  85 100 100 107 116 111 112 110 108  88  73  68  79  92  80  77  80  77  93 117 147 138 116 102 103  81  84  69  90 128  98  82  60  75  87  33  22  27  28  30  32  33  33  34  34  36  35  37  37  37  39  40  38  39  39  39  40  41  41  42  41  42
  85  84  83  83  82  82  81  79  80  80  80  80  79  79  79  78  77  78  77  73  86  93  99  82  64  70  81  94 105 114 135 121 115 109 104 100 106 110 114 120 121 104 103 108 108 100  71  46  53  61  85 108 118 140 134 111  79  73  34  73 105 123 100  53  83  58  15  27  28  30  32  33  34  34  34  35  35  36  37  37  39  40  38  38  39  39  40  40  40  40  41  41
  86  85  83  83  82  82  82  80  81  80  79  80  79  79  78  81  86  81  87  86  78  63  56  60  64  84 101  97  96 111  94  93  91  83  88  92  87  76  86  98 108 119 128 121 114 123 112  99  58  58  63  80  96 106 145 166 138 116  83  64  64  83 103  98  78  95  40  17  28  31  31  33  32  34  34  35  35  36  38  37  39  40  38  38  39  39  40  39  39  39  41  41
  86  85  84  85  83  82  82  82  81  80  79  80  79  78  81  84  83  74  77  63  64  70  68  77  98 100  94  97  95  83  73  59  53  54  44  43  49  56  56  70  87 108 130 138 130 105 103 122 121  97  76  72  85  97 110 130 145 133 149 146  92  39  25  57  90  92 109  58  17  29  33  32  33  34  35  35  35  35  37  37  38  38  38  38  39  39  40  40  39  39  41  41
  86  85  84  85  84  83  82  82  80  78  79  81  78  79  81  79  67  76  78  76  75  70  75  78  88  99 107 104  87  72  56  51  64  79  80  76  81  88  79  61  49  46  56  89 106 123 137 132 121 145 129  76  58  64  81  92  91  93 117 128 147  93  42  62  81 110  90 113  73  21  32  33  33  34  35  35  34  35  37  37  38  38  38  39  39  39  40  40  39  40  40  41
  86  84  85  85  85  83  82  82  81  79  81  81  80  78  82  79  69  67  93 109 100  91  82  83 110 122 113 100  86  68  65  75  85  86  94  99 104 101 100  81  66  43  12  37  76  75  97 116 135 129 149 134  76  55  58  69  74  65  49  46  82 112  90 111 131 138 104  92 124  69  22  34  34  35  34  34  35  36  37  37  38  38  38  39  40  40  41  40  40  40  40  41
  88  85  85  84  84  84  83  82  82  81  80  78  85  87  82  81  87  84  85  72  59  63  81 100  99  88  74  86  83  76  82  81  77  75  67  70  85 105 121 124 112  94  75  77  96 104  57  52  78 106 100 147 137  77  41  32  56  89  74  49  43 104 110 129  86  79  73 103 120 132  43  21  35  34  34  35  35  36  37  37  38  38  38  39  39  40  41  41  41  41  41  41
  87  85  84  84  83  83  83  82  81  80  82  81  84  79  72  78  82  63  37  39  45  66  86  76  64  71  90  94  97  94  91  82  82  82  68  63  56  51  59  79 107 124 116 107  97  96  89  60  51  73  77  74 132 139  97  60  27  48  89 107  81  61  87  96  90 108  94  91 106 105 114  32  26  35  34  35  36  36  38  37  38  38  38  39  38  38  39  41  41  41  41  41
  84  85  85  84  83  82  81  81  81  82  83  85  77  76  83  72  66  45  43  53  43  38  47  58  69  73  72  62  48  49  51  62  72  66  46  38  35  31  24  25  26  50  81  84  89  92  86  94  85  45  79  79  74 135 128 122  74  31  55 110 104  94  67  80 112 120 118  83  84  83 114 103  24  30  37  36  36  36  36  37  37  37  37  38  40  39  39  40  41  42  41  41
  86  85  84  84  82  82  82  83  83  81  85  87  70  75  72  60  45  33  37  37  52  58  67  66  49  48  40  42  51  62  71  61  44  24  24  14  11  14  16  26  40  38  29  32  42  59  75  72  95  73  47  75  77  81  95  87 119  81  26  45 119  71  58  79 101 111  93  98  93 103  89 121  98  25  32  36  36  36  36  35  36  36  37  38  40  40  40  39  40  41  41  41
  85  84  85  86  84  82  83  82  81  84  75  64  70  66  53  48  28  25  29  40  39  39  42  35  35  47  67  71  75  66  64  55  50  46  39  31  24  19  16   9  24  59  50  22  29  23  41  58  56  79  55  47  63  53  68  75  59 100  93  33  72 134  47  56  78  69  85  97  80 124  97 102 142  86  21  34  35  36  37  35  36  36  37  39  40  40  40  39  40  41  41  41
  85  83  83  84  82  83  82  82  84  90  68  61  61  57  48  30  20  23  37  41  43  48  54  63  86  89  79  75  73  67  77  70  70  64  52  50  48  36  23  19  12  25  61  41  16  28  17  31  40  47  63  48  54  66  57  80  59  29  68  94  70 108  92  42  45  61  95 116 100 129 124 115 103 127  75  22  33  37  37  37  37  37  38  39  39  38  39  40  40  41  41  41
  87  85  85  84  83  83  83  83  87  75  66  67  50  51  37  23  28  47  49  43  50  61  77  88  77  72  80  93  94  88  89  90  82  71  61  49  38  45  46  33  27  24  41  65  33  20  27  16  22  34  38  48  47  57  46  57  88  49  32  47  71  71 102  66  37  93  89  55 115 146 133 119 102  92 133  69  24  36  35  36  38  37  37  38  39  39  39  40  40  41  41  41
  84  85  88  85  84  82  83  85  83  83  94  74  40  32  31  36  45  54  53  53  50  61  73  64  81  98  98  97  90  82  77  72  66  66  67  65  63  42  36  34  30  23  35  47  59  28  24  29  21  27  30  37  50  47  51  49  76  77  47  39  55  54  81  97  61  82  84  50 103 133 140 131 112 118 104 130  39  32  37  36  37  38  38  38  38  39  39  40  40  41  41  41
  84  84  86  85  83  83  83  81  84  85  82  48  25  31  45  47  47  43  36  46  38  57  72  84 101  94  77  53  37  26  18  14  13  13  20  29  31  38  43  44  37  29  30  33  48  53  28  37  37  23  27  27  47  51  48  55  68  70  51  43  46  62  85  72  67  95  99  61 115 120 128 132  95 136 109 155  99  21  37  38  37  38  38  38  38  39  39  40  40  40  41  40
  85  84  84  83  84  84  83  84  81  62  49  31  36  45  37  42  47  30  38  35  66  79  73  78  62  44  36  27  25  26  28  25  18  18  19  24  28  23  29  41  51  46  38  33  39  53  44  42  55  33  31  31  38  52  47  45  55  78  71  60  65  76  75  65  84 109  96  81 110  89 131 139  89 117 144 132 143  42  29  37  37  38  38  38  38  39  39  40  40  40  41  40
  87  85  85  84  84  83  86  83  61  41  35  41  45  36  52  47  20  27  34  47  72  74  66  41  41  49  52  50  46  42  37  39  35  29  25  38  59  54  29  26  29  40  45  48  44  50  52  51  63  41  37  38  38  55  59  55  64  89  99  93  90  93  96 101 112  98  82  91 105  65 124 172 128  95 149 136 160 115  26  34  36  38  38  38  39  39  39  39  40  40  41  41
  86  86  86  85  84  84  87  64  32  35  52  59  46  55  58  22  22  38  45  50  52  64  47  55  65  67  60  52  39  35  37  35  32  30  38  54  71  66  44  47  54  51  41  56  63  62  55  58  57  49  49  47  53  62  72  87  98  96 102 110 123 132 125 126 124  94  99 107  69  76 109 162 147 109 107 140 167 179  77  28  39  37  38  39  39  39  38  39  40  39  40  41
  86  86  85  85  85  87  79  42  32  48  71  48  51  66  28  31  38  60  54  50  56  57  56  66  64  61  55  42  43  50  60  58  52  62  66  67  64  57  50  48  77  91  60  70  92  74  68  86  76  60  63  70  76  77  95 123 124 120 141 152 156 154 145 145 136 112  97  95  68  70  82 136 165 142 113 129 153 181 148  37  41  42  37  38  39  39  39  39  40  39  39  40
  85  85  86  85  85  86  74  38  41  58  53  43  69  44  28  36  49  53  50  52  64  66  69  62  63  62  63  76  96  96  97 105  85  75  67  48  43  42  46  54  52  81 108  98 115  77 100 115 106  98  92  96 103 112 128 141 146 152 171 174 171 163 160 161 137 126 108  95  66  65  73 104 174 148 140 139 126 156 191  95  24  44  45  39  37  39  39  39  40  40  40  40
  86  86  85  85  85  87  80  50  47  52  40  67  61  28  31  48  54  42  46  59  69  69  57  54  70  84  94 121 121 119 120  93  75  65  53  71  83  83  77  92  76  72 113 130 125 114 135 158 162 158 153 147 153 159 163 156 156 175 185 180 172 172 168 159 153 145 124 117  88  47  75  80 156 145 139 152 127 130 190 171  51  28  39  46  41  38  40  39  40  40  41  40
  90  86  85  85  88  87  83  61  50  37  40  68  47  29  34  41  53  56  56  60  61  50  53  81  96 108 127 126 126 115  75  73  70  66 111 160 154 141 134 126 126 121 118 143 159 160 157 173 179 181 184 182 178 184 183 183 181 178 181 187 178 174 172 168 169 155 134 129 112  57  54  81 136 143 136 154 147 122 172 185  97  25  38  38  39  38  39  39  40  40  40  40
  88  87  85  85  86  87  83  61  40  28  48  58  41  34  40  41  58  57  51  50  47  56  90 110 102 118 124 119 115  79  86  99  90 135 160 174 180 164 171 168 169 169 162 171 179 187 184 184 181 184 186 185 185 189 191 189 190 185 181 185 186 181 180 178 171 161 152 150 120  88  61  68 107 155 127 157 155 127 160 186 128  27  41  39  37  38  39  39  40  40  40  39
  87  88  86  86  86  88  75  51  36  43  52  45  41  35  39  61  62  43  45  49  54  79  93  94 112 124 115 113  97  74 110 115 131 169 175 179 186 182 183 181 185 184 182 186 186 190 193 190 188 188 186 190 193 192 190 195 193 193 190 187 187 184 185 186 186 172 174 161 138 106  78  63  93 137 117 131 169 130 154 176 153  43  35  36  37  38  38  40  40  40  40  39
  87  88  86  86  86  88  71  44  46  59  43  42  38  36  48  62  49  43  51  55  90  95  90 109 125 114 100 103  83 107 145 126 154 175 185 186 182 184 183 186 191 190 189 189 191 191 190 191 188 188 188 191 191 196 194 196 195 195 194 193 191 187 193 193 192 184 182 168 143 112  75  65  84 101 146 120 162 135 139 166 179  73  32  39  38  38  40  39  41  40  40  40
  85  86  86  86  86  88  75  43  49  50  42  46  38  41  40  45  53  50  56  80 107 102 120 126 107  97 100  88 112 157 149 143 175 181 182 183 181 181 184 188 188 185 191 193 188 187 188 190 188 188 188 188 192 195 196 195 198 196 196 198 197 196 197 194 195 193 187 171 148 104  70  54  75  93 151 142 144 150 136 160 170 101  35  38  38  38  39  39  40  40  40  40
  86  87  86  86  87  89  63  49  54  47  47  41  41  35  37  41  50  47  64  97  98 105 125 103 100 103  90 122 157 157 150 163 183 186 188 184 185 186 190 193 193 195 194 192 191 189 188 189 189 192 189 187 193 195 194 196 197 197 198 197 201 203 200 200 198 198 193 176 157 129  74  51  50  89 144 159 118 148 119 155 174 106  32  37  38  38  37  39  40  40  40  40
  86  87  86  86  88  83  52  57  54  42  36  39  36  34  34  35  41  58  81  98 103 114  97  99 119  90 128 156 155 158 157 170 187 188 192 191 187 186 189 193 196 201 197 196 197 196 194 191 193 194 192 196 196 196 193 191 196 195 198 198 202 206 207 203 201 199 197 181 160 144 112  57  36  55 122 157 111 134 139 157 172  93  32  38  38  39  38  39  39  38  38  40
  88  87  87  86  90  70  48  58  46  34  38  35  28  34  32  39  50  68  73  96 102  88 115 131 104 127 152 160 160 158 152 170 188 186 186 185 184 188 190 194 196 194 193 194 194 197 193 192 191 191 195 195 197 197 194 192 196 196 196 200 202 203 205 201 202 203 197 178 162 149 131  91  45  38  98 152 130 131 139 146 178  91  32  37  38  39  37  38  39  38  38  40
  87  87  87  87  92  53  43  51  36  34  39  27  29  29  37  52  54  68  90  86  71 118 130 114 134 146 153 162 164 156 160 173 184 183 182 188 187 194 199 194 194 195 192 193 192 192 191 191 188 191 195 193 195 196 195 193 194 198 199 203 203 201 202 202 199 200 197 184 166 151 129 109  78  42  84 146 135 126 138 138 180  96  31  37  38  39  39  40  39  39  39  40
  87  87  87  89  88  50  52  45  34  39  33  25  28  31  49  51  59  86  95  75 101 114 124 143 139 140 153 164 164 159 156 177 186 186 187 192 192 195 199 198 196 194 192 194 193 191 191 192 192 192 194 196 193 193 194 199 197 200 202 197 198 201 200 198 199 200 192 177 168 161 130 104  96  61  72 134 134 116 133 136 171 110  32  37  39  39  40  40  40  40  40  39
  87  88  87  89  86  62  63  42  40  36  27  29  27  43  47  50  80  96  99  96 101 122 147 147 143 142 149 163 163 162 156 173 186 187 188 191 194 197 199 198 197 195 193 193 198 196 192 189 190 191 192 193 193 191 192 194 195 197 197 195 195 194 198 196 196 195 186 176 168 148 139 112  93  75  62 120 143 120 122 143 165 124  32  37  38  40  40  40  41  40  39  40
  87  88  87  88  88  75  51  46  47  36  27  32  34  47  46  80  82  94  98  94 108 135 150 149 149 146 152 161 166 168 157 166 186 185 187 187 191 193 197 197 195 198 198 193 195 194 195 188 190 195 191 190 194 191 193 192 193 193 191 193 192 190 191 191 196 195 187 178 169 156 141 127  96  73  67  84 133 130 115 150 168 145  44  33  40  39  39  38  40  39  40  41
  88  88  88  89  88  82  55  47  43  35  25  29  40  45  73  80  71  77  84 109 133 132 142 152 155 149 156 162 167 169 162 159 183 180 186 187 189 189 192 194 193 199 197 192 193 197 195 190 191 193 190 191 191 190 192 192 191 187 186 189 191 191 191 192 195 196 193 182 160 140 139 145 120  91  60  62 125 123 131 156 138 149  66  30  40  39  39  39  39  39  40  40
  88  89  88  89  90  87  70  47  38  42  28  34  47  59  81  62  64  65  83 108 127 136 145 152 157 153 160 167 170 173 174 155 173 187 185 186 189 191 195 193 193 194 194 193 190 189 186 188 187 185 187 189 190 189 190 188 192 193 187 187 190 191 193 190 195 195 190 185 166 138 115 123 149 103  79  70 100 118 134 148 133 136  61  31  39  39  40  39  39  39  39  39
  87  89  88  88  91  87  90  58  40  47  28  39  49  66  69  51  57  70  82  93 118 139 146 153 156 158 162 167 172 173 174 166 160 188 184 185 186 191 193 193 192 193 197 196 194 191 192 191 187 187 184 186 184 189 190 187 189 190 190 192 193 194 195 191 192 193 189 185 167 146 136 114 123 136 100  80  95 130 117 134 151 125  59  32  38  38  38  39  40  40  40  40
  88  89  88  88  89  87  94  58  41  48  31  44  55  58  49  54  61  69  75  94 126 139 141 150 156 155 162 169 175 177 172 174 166 164 180 181 182 186 188 185 186 192 196 194 193 192 193 190 188 188 184 183 187 188 188 190 191 194 193 193 194 194 192 190 190 188 188 181 166 139 110  94  97 131 142 113  89 121 118 140 147 125  51  33  38  38  38  39  40  40  40  40
  88  89  88  88  86  94  89  51  38  50  37  52  56  54  47  54  52  70  83  96 126 140 143 151 156 159 162 167 175 176 169 172 177 162 166 180 185 188 188 190 187 189 190 190 191 189 191 190 188 185 187 185 190 195 191 190 197 200 201 201 200 200 197 188 183 184 184 183 178 159 121  79  56  74 108 133 157 135 120 124 132 136  54  32  38  38  39  39  39  39  40  40
  87  87  88  87  87  97  84  49  35  51  40  52  61  53  38  45  56  57  69 100 127 140 146 146 155 158 162 168 173 178 175 173 177 180 172 175 180 188 187 188 189 186 188 189 193 192 190 185 187 184 190 189 192 194 193 195 198 201 202 203 204 203 202 195 187 183 188 187 181 167 146 101  54  36  56  65 111 179 137 119 134 114  49  35  39  38  38  39  39  39  40  40
  87  87  88  89  89  87  86  51  35  44  42  53  55  40  41  51  43  50  77 120 134 136 141 145 156 160 162 167 173 181 181 181 179 181 187 175 180 187 187 187 191 192 192 192 195 197 193 192 190 190 192 191 189 191 191 198 202 201 202 203 205 207 206 204 202 198 193 186 185 169 159 139  72  34  34  60  60 116 163 140 125 121  59  36  38  37  38  40  40  39  39  40
  87  87  88  88  88  87  87  58  35  44  40  58  55  41  42  34  42  78 115 128 138 139 142 149 158 160 164 168 172 182 183 182 181 183 183 183 182 190 194 190 192 195 193 194 194 189 197 201 196 193 189 187 189 192 196 196 197 202 202 203 203 208 212 212 206 212 206 196 187 172 162 156 101  51  39  45  76 122 126 143 133 116  48  34  38  38  38  39  41  40  39  39
  87  87  87  87  86  87  85  57  42  45  47  63  54  44  32  32  53 105 129 128 134 139 142 154 157 161 171 171 175 184 185 184 185 188 189 189 187 185 191 194 195 196 196 197 199 192 189 203 200 193 190 189 192 196 199 195 196 203 200 201 199 202 206 215 218 211 214 214 192 174 169 162 128  56  42  43  73 140 106 114 137 106  33  34  38  39  38  39  40  40  39  39
  87  87  87  85  87  91  77  54  38  40  52  65  56  36  33  37  69 121 130 132 132 135 148 159 163 161 157 165 175 184 187 184 188 192 193 189 189 192 189 194 197 194 188 196 198 197 182 193 195 186 188 190 190 197 194 197 192 193 195 193 186 180 189 189 206 216 215 220 210 184 174 169 150  97  59  44  68 141 114 110 113  95  39  35  38  38  39  39  39  39  39  39
  86  86  87  84  88  99  82  55  39  44  51  61  51  34  42  39  81 128 131 133 126 139 154 149 135 132 140 144 145 154 155 161 165 175 179 185 183 179 179 188 189 187 182 192 197 191 179 184 180 172 179 174 176 158 138 139 134 141 145 151 149 146 154 162 169 188 199 199 205 194 183 180 164 119  99  76  65 132 138 120 108  91  37  37  37  38  40  39  39  39  39  39
  84  85  86  85  86  94  83  46  40  48  42  59  48  48  45  43  89 131 134 135 128 136 124 106 105 109 118 117 119 115 109  99  97 103 114 140 157 160 160 171 181 180 175 185 191 187 170 170 172 156 154 140 128 101 100  89  88  97  95 101 118 126 123 143 156 149 161 169 181 199 191 192 185 150 119 129 104 109 133 110 118 105  30  38  38  38  38  38  38  39  39  39
  84  84  85  84  88  89  74  48  41  48  45  68  56  49  40  52 105 133 135 131 125 113 105 100 103 100 104 105  96  83  79  63  60  60  78  95 109 133 148 146 157 171 171 185 187 184 166 157 163 145 128 118 110 108  99  77  65  69  73  80  82  93 106 116 123 124 130 148 167 191 198 200 198 169 156 153 166 137 122  98 119 110  28  36  39  40  38  38  38  39  39  39
  85  85  85  84  89  87  75  60  47  65  58  72  58  55  50  77 113 132 137 133 124 106  98 101 110 124 124 111 103 107 109 107 107 101  92  89  98 107 132 139 146 163 159 176 187 181 169 155 158 151 133 122 114  99 101 101 111 127 133 135 137 138 140 145 142 133 133 139 159 188 200 203 202 181 167 173 185 167 151 113 132 101  27  35  36  39  38  38  38  39  39  39
  84  85  85  83  88  92  90  75  58  72  60  82  78  55  66 106 126 133 139 139 127 115 104 118 136 147 158 159 160 156 150 149 143 128 112 105  98  92 102 125 145 149 147 171 186 179 172 154 140 137 124 108 105 113 108 103 104  91  91 114 129 137 157 176 180 174 158 151 160 177 197 211 205 187 166 167 174 159 149 141 168  86  24  37  37  38  38  38  38  39  39  39
  84  84  83  82  85  97  95  80  77  69  60  87  69  73 107 126 136 134 140 142 136 126 128 144 163 164 135 100  84  61  51  47  50  78  93  88  98 104  93  97 111 131 151 172 187 186 176 163 146 126 115 117 120 107  98  98  64  44  56  38  43  59  69  80 128 177 182 165 167 173 196 204 201 191 173 193 195 163 140 127 153  69  27  37  37  39  37  38  38  39  39  39
  83  83  82  82  80  90  99  65  63  63  59  74  78 105 113 123 139 137 140 141 146 143 138 147 134  77  35  66  46  34  61  58  48  89 111 112 112 118 115 110 104 116 147 174 192 194 179 170 155 138 137 128 123 125 102 122 112  55  48  41  32 114 119  71  79 109 166 175 168 177 192 204 203 190 180 181 213 174 152 122 154  58  26  36  36  38  38  39  39  38  39  39
  81  82  82  82  78  84 130  85  65  90  66  72  95 118 103 128 144 140 139 144 154 148 145 126  83  58  82 133  89  33  41  40  52 150 146  88 103 139 135 124 131 127 145 181 193 193 191 175 154 152 144 146 148  96 100 148 143  89  92  88  99 138 141 160 140 114 130 157 172 179 192 204 204 197 180 179 200 193 170 139 164  58  27  37  38  38  39  39  40  38  39  39
  81  81  82  82  74  99 153 102 124 148  91  84 109 124 109 124 138 140 143 148 150 153 136 110 100 120 140 138 142 115 107 115 117 148 148 116  97 108 164 156 149 138 144 177 195 193 190 177 155 153 154 174 130 126 156 155 150 153 158 156 164 161 167 168 167 162 161 166 178 181 189 202 208 199 176 164 193 190 195 206 179  56  26  37  38  39  40  40  38  38  38  38
  79  80  81  81  73 116 146 100 162 180 120  93 116 122 112 126 141 141 149 152 157 154 142 128 133 143 146 157 161 164 165 162 167 157 141 148 156 146 171 184 163 140 146 179 193 192 187 183 161 148 164 177 169 175 157 140 155 173 179 172 164 159 150 152 178 179 182 179 178 184 195 202 205 202 181 166 177 191 194 211 202  60  24  36  37  38  38  38  38  39  39  38
  79  80  80  80  73 125 142 125 184 173 128  95 115 110 112 133 140 146 153 158 155 159 162 161 152 143 136 144 150 156 157 155 143 124 118 142 165 172 179 175 156 139 160 190 194 194 189 190 173 149 158 167 169 161 150 130 124 122 126 130 133 133 142 155 165 185 188 188 186 189 199 205 208 204 182 162 176 188 171 184 210  69  23  37  38  38  38  38  38  39  39  38
  78  80  79  79  72 127 146 162 193 159 116  93 117 122 113 127 138 151 156 162 159 153 160 161 162 145 136 131 122 116 114 115 114 122 142 156 155 162 169 169 151 146 180 188 193 191 189 190 193 166 158 170 172 170 164 165 157 151 139 135 136 144 158 175 183 178 186 192 189 192 198 206 207 202 188 171 181 169 167 180 205  73  23  37  38  38  37  38  39  39  39  38
  78  78  79  79  72 112 147 170 192 157 119 103 132 121 106 121 135 151 157 160 161 156 161 167 165 168 170 159 157 153 150 155 160 166 166 169 176 180 176 167 147 158 184 193 191 188 188 188 199 187 158 173 182 186 184 177 179 179 178 176 181 184 187 183 181 185 186 184 192 196 198 202 207 206 189 169 165 155 165 192 206  78  23  37  39  38  37  38  39  39  38  38
  77  77  79  79  71 102 154 178 179 158 136 113 133 133 122 120 132 150 155 160 159 157 161 167 174 176 175 182 181 185 182 185 180 179 180 186 187 183 175 157 143 155 174 193 188 186 182 188 190 172 161 169 183 183 192 193 189 185 187 183 193 191 191 192 188 183 185 189 194 196 197 201 209 205 190 155 178 157 144 172 208  88  20  37  39  38  38  38  39  39  39  39
  77  78  78  79  73  91 146 178 170 157 145 122 124 131 112 129 129 144 157 159 159 159 161 167 170 176 181 185 185 185 184 182 181 186 189 189 187 180 161 147 144 150 160 184 188 186 184 189 181 174 168 161 180 183 182 196 194 191 191 188 192 192 191 191 190 187 185 191 192 194 199 201 203 203 189 165 194 153 129 164 210  86  18  37  37  38  37  39  39  39  39  39
  76  77  77  77  73  88 137 170 173 143 152 144 126 131 101 127 132 138 151 160 156 161 166 163 172 176 182 185 188 189 185 183 188 189 188 190 183 167 153 148 145 148 155 175 190 181 186 193 185 180 176 166 175 187 192 183 176 193 191 193 189 187 191 190 190 187 190 186 191 196 194 193 200 202 194 182 189 164 131 164 220  92  19  36  37  38  38  38  39  39  39  39
  75  76  76  77  75  76 129 162 177 134 147 180 144 134 114 125 140 142 152 156 158 159 167 170 170 173 182 186 183 185 188 187 193 193 189 189 176 159 148 147 147 145 150 164 183 181 186 195 194 178 180 169 173 185 193 189 179 191 187 195 193 190 189 190 191 188 192 188 190 195 191 185 192 201 191 169 185 162 120 176 229 110  19  37  38  38  37  36  39  39  39  39
  73  75  74  76  77  69 119 151 170 142 127 160 154 137 114 127 137 145 152 155 160 163 169 173 167 174 179 181 182 184 187 191 191 191 188 182 170 155 148 145 143 142 151 167 181 175 181 195 203 190 176 175 171 182 188 192 194 191 189 193 192 196 192 188 187 187 190 192 190 189 189 186 187 202 192 150 173 180 163 199 217 130  21  34  38  38  37  37  39  39  39  39
  72  74  75  75  75  67 112 152 151 153 119 124 152 156 104 108 125 141 150 157 162 167 169 168 168 173 174 177 183 186 187 189 188 188 183 175 167 159 146 142 144 148 150 173 188 179 179 186 197 208 194 178 177 184 186 187 189 192 191 190 194 195 193 189 185 188 186 186 188 186 184 184 186 202 183 150 188 172 204 215 204 152  22  35  38  38  37  38  39  39  39  39
  72  74  74  74  75  67  99 160 134 172 166 141 139 161 104 114 128 136 152 160 158 164 170 167 168 169 175 182 189 188 186 188 189 185 182 182 175 153 137 146 150 149 154 180 192 185 181 187 185 195 208 191 174 183 188 187 185 194 194 192 196 195 197 192 187 188 187 184 183 183 185 181 182 202 171 151 194 201 206 219 222 164  28  33  38  38  38  38  39  39  39  39
  71  73  72  73  72  67  84 159 152 158 183 172 149 161 120 117 125 132 153 159 153 164 169 167 167 170 177 187 191 193 190 189 190 187 189 190 181 151 137 149 157 153 155 174 193 181 183 185 188 183 187 196 176 170 188 190 185 190 196 194 193 193 194 192 189 189 183 179 176 175 177 177 182 183 164 172 184 205 206 208 239 169  29  32  39  38  37  38  39  39  39  39
  71  72  72  72  73  69  78 151 172 166 181 184 175 164 134 110 118 132 148 154 158 161 165 167 169 171 180 184 191 191 190 189 187 191 192 190 169 146 141 153 160 157 153 160 184 186 188 187 184 181 183 197 195 170 171 186 192 190 193 196 192 194 190 189 188 186 179 178 174 172 171 171 181 171 183 196 181 193 196 201 237 139  16  36  37  38  38  38  39  40  40  40
  71  70  72  72  71  69  69 129 170 171 180 178 176 171 137 116 120 121 142 153 155 160 164 162 167 170 178 183 184 189 186 187 188 188 187 182 158 141 148 159 156 147 144 160 182 182 195 205 193 192 192 199 207 182 168 181 189 191 189 191 192 193 187 183 187 183 180 173 173 172 168 169 172 180 191 195 184 194 189 196 226  88  15  37  36  36  38  38  39  40  40  40
  70  72  72  71  69  69  64  91 156 175 181 182 181 184 153 114 123 124 140 149 149 153 162 164 167 172 176 182 180 178 182 183 182 179 181 173 148 138 150 162 151 138 155 197 201 186 182 206 214 203 198 191 191 181 173 176 180 185 184 188 190 189 188 184 179 179 179 176 173 172 169 174 174 180 210 190 179 191 194 207 140  26  32  37  37  37  38  37  38  38  38  38
  70  71  71  71  71  72  68  62 110 169 180 180 180 186 165 124 109 117 137 152 150 154 158 166 167 170 172 171 175 177 179 178 175 173 180 179 142 127 148 163 150 145 181 202 200 201 192 196 209 201 191 185 170 165 172 181 177 177 179 185 187 187 184 184 181 182 174 178 172 170 164 170 180 191 219 141  93 146 143 108  30  26  37  37  38  38  38  39  39  39  38  38
  70  70  71  70  70  70  70  66  64  97 137 153 159 138  84 118 112 111 141 152 155 157 156 162 169 166 166 167 168 176 178 178 164 163 171 181 161 113 109 127 142 141 167 169 164 166 182 189 185 179 149 133 145 155 168 176 175 171 176 183 185 186 186 182 181 180 178 180 174 174 171 165 180 202 219 109   8  27  19  14  33  35  34  36  37  38  38  39  39  39  38  38
  68  69  70  69  69  69  69  68  66  59  62  73  81  61  40 118 127 123 131 151 156 154 155 163 167 164 161 169 170 170 176 163 152 162 168 165 162 127  69  35  68 114 140 147 146 139 148 163 141  80  37  68 118 156 175 176 172 169 174 175 187 188 185 184 180 177 179 179 177 172 170 170 179 197 236  96  10  26  27  30  32  33  34  36  37  39  39  39  40  39  38  38
  67  70  69  70  69  68  67  67  67  67  65  62  64  57  49 104 131 116 140 155 156 156 157 164 165 166 163 164 155 166 162 148 159 166 159 149 162 152 119  89  61  59  88 113 116 112 110  99  67  70  67  95 140 170 180 178 176 172 168 174 186 191 186 184 187 180 175 178 177 176 175 174 179 195 230 121  16  28  30  30  30  33  35  37  37  39  39  39  39  38  38  38
  65  66  67  67  66  67  66  65  66  66  67  67  66  61  52 111 132 123 147 154 157 156 155 160 163 167 165 163 157 161 155 157 164 161 162 150 159 146 126 107 127 116  76  54  62  68  66  77 123 134 115 143 172 162 174 181 181 176 167 166 175 184 189 185 187 182 175 179 183 174 171 176 177 191 221 136  14  29  29  30  31  33  35  37  37  39  39  40  39  38  38  38
  65  65  67  66  66  66  65  65  65  65  65  66  64  67  60  98 138 129 144 151 154 151 152 161 160 163 162 160 166 164 154 156 155 145 147 150 150 137 123 100 132 156 149  97  96  99  93 135 131 123 119 134 157 161 171 179 183 181 172 169 167 175 182 189 184 182 170 174 175 174 168 180 177 194 225  87  11  30  28  31  32  34  36  36  39  39  38  38  38  38  37  38
  68  66  66  65  66  66  64  64  64  65  65  66  70  72  58  81 128 132 146 141 153 145 147 158 158 157 155 158 168 146 146 145 130 122 134 135 118 118 121 101 133 143 145 113 120 112 100 154 135 129 133 138 161 172 164 166 175 174 162 165 165 166 173 186 187 182 172 173 174 175 180 176 184 188 220  88  14  29  29  30  32  34  35  36  38  39  38  38  38  39  39  38
  65  65  65  64  65  65  64  64  64  63  65  65  65  63  57  89 117 132 125 143 153 146 148 157 159 153 157 164 161 149 130 114 125 120 122 125 116 119 112 120 160 148 135 133 112 119 111 122 141 129 127 129 130 152 161 157 154 157 149 137 155 160 166 179 185 181 171 164 182 177 178 177 167 198 224  66  17  29  27  29  31  33  34  36  37  38  38  38  38  39  39  39
  63  64  65  65  64  63  63  64  64  63  63  63  62  62  58  90 122 137 125 143 157 143 143 157 156 152 156 155 127 132 122 126 124 129 123 129 112  98 130 117 107 127 129 126 107 118 118  87 104 135 128 115 118 131 157 152 153 139 131 133 146 165 165 174 187 184 167 168 178 178 160 168 170 191 233  79  11  30  27  29  31  33  35  36  37  38  38  39  38  38  38  37
  62  63  64  64  63  62  62  63  63  62  64  64  62  62  56  80 139 145 130 132 154 143 138 151 149 151 158 140 122 138 130 139 114 115 112 104  97 105 119 117  90 129 131 106 114 114 118 108 119 134 122 124 136 121 126 140 143 124 123 145 142 155 138 168 188 185 154 164 173 177 155 155 170 181 227  94   8  29  29  30  31  32  36  38  37  38  39  39  39  38  38  36
  62  62  63  64  62  62  60  60  61  61  62  62  61  62  55  73 153 146 127 126 146 147 148 139 146 146 143 159 137 137 114 112  99  91 108 123 127 147 146 153 143 144 152 145 143 122 125 145 160 129 125 141 138 128 129 131 131 128 115 126 129 144 124 144 176 182 152 164 166 173 173 176 174 189 217  65  16  30  29  30  31  33  34  36  38  38  38  38  38  38  39  35
  62  62  62  62  61  62  61  61  61  61  60  61  61  60  53  77 145 115 114 128 142 154 151 130 137 132 137 157 146 121 100  91  79  79 104 131 134 123 117 119 120 114 117 119 137 139 132 132 129 138 148 149 147 145 141 137 128 101  81 100 104 123 120 140 167 160 149 164 169 170 175 186 189 202 213  41  22  30  29  30  32  33  34  36  38  38  38  38  39  38  40  34
  61  61  62  62  61  62  60  60  60  60  60  60  60  59  57  61 114 135 115 144 150 146 139 140 137 138 142 134 124 114 107 100  85  66  40  31  53  59  71  92  84  75  88  87  87  92  88  81  84  88  91  99 106 108 109  91  69  61  58  71  91 123 124 139 171 145 140 155 165 168 160 181 189 219 213  41  21  30  29  31  33  33  34  36  37  39  38  38  39  38  39  32
  60  60  61  61  61  60  59  59  58  60  60  60  59  58  59  51  94 146 117 127 144 145 132 136 136 121 138 157 146 134 127 116 122 123  80  52  69  83 104 127 105 126 127 147 144 128 143 147 124  90  87  55  48  66  69  56  71 112 103  85  96 120 146 146 165 144 149 164 163 165 160 165 185 223 191  37  22  30  29  32  32  33  34  35  37  38  38  37  37  38  39  32
  59  59  60  60  60  59  59  58  57  59  59  59  59  58  60  48  99 150 115 124 127 146 144 111 134 126 137 152 154 153 130 114 147 144 126 112 106 118 137 142 136 136 129 135 125 133 130 116 114 111 122 123 126 130 121 126 139 148 144 114 113 114 156 162 145 131 147 164 159 165 174 153 192 230 128  14  28  28  29  31  31  33  35  36  38  39  39  38  37  38  39  30
  59  59  59  59  59  58  59  58  57  58  58  59  58  57  58  50  85 138 135 123 114 132 150 119 134 136 131 142 149 142 126 132 136 141 141 128 125 136 140 149 158 156 157 152 142 135 133 136 146 150 156 165 163 160 157 160 159 156 145 133 130 136 159 165 138 122 143 162 144 156 184 169 192 220  88  10  29  28  31  31  31  32  35  35  37  38  38  38  37  38  39  30
  59  58  59  59  59  59  59  59  58  58  58  58  56  57  57  56  58  99 129 105 107 121 142 136 122 120 112 141 138 125 134 141 144 137 139 139 140 148 150 160 167 169 163 161 162 164 162 158 165 171 173 171 166 158 165 163 163 156 148 146 136 142 159 156 152 134 152 165 148 164 186 154 194 185  45  19  28  28  31  31  31  32  35  35  37  37  36  36  37  37  39  29
  58  57  58  58  58  58  58  57  57  57  57  57  57  57  56  57  54  65 103 108  98 113 134 136 113 106  99 119 127 126 131 126 133 139 140 127 141 151 142 147 136 146 140 139 139 134 133 128 131 148 153 137 138 141 154 157 153 153 152 145 145 131 154 142 130 143 159 168 163 157 165 177 185 124  17  29  29  30  30  31  32  33  35  35  37  38  38  38  38  38  38  27
  57  56  57  57  57  57  56  56  55  57  57  57  56  54  54  54  56  52  74 111 107 117 109 120 121 117 105  89 113 113 121 124 138 147 142 135 129 123 124 110 108 112 119 114 104 100 111 140 126 125 135 133 123 134 140 140 155 156 156 157 146 131 131 135 120 132 163 168 169 168 162 178 207 101   1  17  31  29  30  31  31  33  35  35  37  38  37  37  37  39  37  25
  56  55  56  57  57  56  55  56  55  54  56  55  54  55  54  54  56  50  69 121 103 106  95 110 126 106  97  92 110 115 126 136 142 140 141 149 144 117 111 120 114 102 118 133 122 115 126 119 123 115 125 146 149 153 150 143 155 158 149 149 151 144 147 129 118 134 160 147 178 174 160 153 190 187 147  39   3  29  30  30  31  33  34  35  36  38  37  38  37  40  37  25
  53  53  54  56  56  54  54  54  53  54  55  54  54  54  54  54  54  53  52  86 100  97  99 116 119 101  91  99 104 118 136 150 148 135 134 152 158 140 123 124 120 106 104 133 131 128 121 116 101 120 144 152 157 166 160 159 162 154 129 130 136 136 152 137 133 152 157 167 171 180 164 153 206 142 195 227  96   3  28  31  30  33  35  36  37  38  38  38  38  39  36  24
  54  52  53  54  54  55  54  53  53  53  53  53  54  54  53  53  54  55  51  45  85 100  92  94  99 108  99  96 104 127 126 147 140 137 142 160 156 147 140 139 147 128 124 132 113 131 126 119 125 131 153 161 167 167 165 166 153 139 140 157 131 132 137 134 138 145 164 168 160 186 177 177 214 139  75 183 253 123   4  24  31  34  35  36  37  38  38  38  38  39  34  23
  54  53  53  54  54  55  54  53  52  53  52  52  53  53  53  54  54  54  53  48  78 118  84  85 115 124  85  89 109 108 127 148 142 135 146 163 158 157 159 162 159 155 149 150 131 138 140 142 151 147 157 166 168 166 173 162 145 134 139 165 172 149 113 122 134 128 160 168 145 164 191 186 204 167  70  88 212 255 141   7  23  35  35  36  37  36  37  37  38  39  33  23
  53  53  53  53  53  53  53  53  52  53  51  51  51  53  53  52  53  53  53  46  73 120  94  75  92 110  97 101  99  99 131 128 122 128 140 141 143 146 163 151 146 143 153 154 128 129 140 134 159 156 153 168 180 168 163 162 149 142 146 156 163 132 128 134 151 152 151 162 141 156 175 189 209 169 121  79 162 230 255 151   9  23  37  36  37  38  37  37  38  40  33  22
  53  52  52  51  53  53  53  53  53  53  53  51  51  51  52  50  50  51  52  44  60 123 108  90  69  95 122 104  92  97 106 125 108 126 134 135 139 151 148 143 145 144 152 156 136 141 155 148 154 166 154 165 167 154 139 144 153 148 157 150 146 142 127 138 145 171 178 136 152 177 181 185 208 175 129  95 136 217 231 254 174  23  17  37  36  38  37  38  37  39  31  22
  51  51  51  51  52  51  52  52  53  52  52  52  50  50  51  50  50  51  51  48  46 120 128 103  77  87  88 122 123  98  85  98 106 126 126 115 131 147 130 137 146 151 157 154 153 147 144 170 170 152 157 154 156 150 149 147 157 136 127 132 129 122 109 123 135 162 156 149 168 183 177 183 206 181 120 106 120 209 222 235 255 205  48  10  37  38  37  37  35  38  29  21
  50  50  50  50  51  51  51  50  50  49  51  51  49  49  50  49  49  49  50  46  36 103 146 127 101  72  74  90  96  83  75  96 130 114 112 107 133 141 153 141 144 149 159 162 152 154 142 149 143 132 159 161 159 147 138 146 145 121 132 114 124 111 124 114 140 137 110 164 170 173 177 187 209 179  21  16  76 210 218 231 232 254 234  91  10  35  39  36  37  38  27  21
  49  50  49  50  50  50  50  50  50  49  49  49  48  49  49  48  48  48  48  46  35  78 144 146 125 100  86  74  75  84  90  90 104 109 127 129 141 168 162 134 132 154 153 172 160 156 162 144 140 140 142 136 137 140 141 135 124 121 131  99 102 131 105 119 133 116 152 182 177 178 185 185 205 184  26  52  87 201 215 226 233 230 245 254 132  11  27  41  38  38  26  21
  47  47  47  48  49  49  49  48  50  48  48  48  48  48  48  48  48  48  46  45  34  56 137 144 135 130 122  87  88  78  79  63  79 115 121 129 145 167 138 129 154 150 141 148 156 137 153 141 149 150 138 140 127 134 144 154 144 115 101  91  85 114  84 109 132 178 175 179 178 175 185 181 194 194  87  72  74 194 222 227 233 231 229 238 255 165  26   9  20  29  25  23
  46  46  46  48  48  48  48  48  49  49  48  48  48  48  48  48  47  48  46  46  37  32 125 150 136 133 141 133  83  63  78  60  54 113 140 131 147 145 117 127 156 126 128 130 135 137 127 126 121 148 148 126 104 131 130 151 139 135 100  78  84  92 102 111 152 174 173 174 172 182 186 185 187 198  91  56  47 175 225 226 231 233 230 229 232 254 211 125  80  44   6   3
  45  45  45  47  49  48  48  48  48  48  48  48  47  46  48  47  47  47  45  43  24  78 137 143 146 154 152 148 130 109  75  82  74  90 125 126 140 123 128 109 127 132 132 119 138 139 112 123 130 103 141 119 107 109 133 141 104 107  83  63  81 109 122 131 140 164 175 174 178 183 182 185 189 190 116  84  69 175 227 229 231 232 231 230 229 228 246 254 245 226 180 108
  45  45  45  46  46  46  47  47  47  46  46  47  46  47  46  46  47  46  45  26  68 174 146 136 152 157 152 147 153 148 116  87  68  72  92 110 127 110 122 113 124 124 108 100 122 113 103 105 126  90  89 115  93  89 112  99  69  79  73  60  97 121 160 152 163 173 180 173 176 178 181 185 189 175 108 104  88 170 228 228 231 230 229 230 230 228 230 233 231 233 246 250
  45  46  47  46  47  46  46  47  46  45  45  44  46  47  47  46  46  46  30  55 173 181 157 133 146 159 155 146 159 156 148 133 102  64  61  83  98 109 111 106 104  86  90  95 123 108  90  89 102  97  89 101  95  84  73  79  67  55  75  90 115 145 152 174 177 174 176 177 178 180 180 181 186 165  86 105  98 165 227 230 231 232 231 230 229 227 227 230 229 222 225 227
  42  43  44  44  45  44  45  46  45  44  44  44  45  46  46  45  47  36  41 169 182 177 178 133 142 150 160 162 153 157 160 159 149  98  75  70  73  68  94 101  94 110 107  82  79  82  86  69  56  78  70  83  57  66  79  96  86 106 116 136 138 163 170 171 164 175 177 174 177 177 177 179 182 157  72  89 106 166 226 229 231 231 232 230 228 228 229 229 230 225 222 224
  43  43  43  44  43  43  43  43  45  44  43  44  44  45  44  44  41  28 147 202 165 189 188 133 142 150 153 162 165 154 159 159 161 142 114  95  68  66  70  75  84 106  83  47  50  55  61  63  56  57  79  77  78  78 100 110 136 157 163 154 154 169 181 171 170 172 171 175 177 175 176 178 180 148  73  81  96 164 226 228 231 231 232 229 227 226 228 228 230 229 223 223
  43  42  42  43  43  42  43  42  43  44  44  43  43  44  44  36  20 123 212 180 166 194 189 120 138 150 150 153 168 167 150 148 153 149 139 135 116  99  86  67  63  59  54  58  62  57  78  72  63  72  81  77  88 121 135 143 148 154 152 156 158 171 181 168 168 176 176 176 177 174 174 181 172 134  69  80  88 167 229 228 229 231 231 227 226 224 225 227 227 229 223 222
  42  41  41  43  41  41  42  42  42  44  42  42  44  39  33  40 105 207 195 174 172 199 182  79 131 146 154 152 155 168 172 154 155 163 159 144 153 140 131 115 101  90  84  87  89  78  72  74  79  76  88 114 119 140 169 159 160 160 161 168 176 172 171 172 175 178 173 176 176 173 179 176 161 126  72  83  85 171 229 229 230 230 230 227 225 224 224 225 224 226 224 222
