P2
# Generated by OpenCV 4.2.0
92 112
255
  70  69  66  70  66  69  66  70  70  63  68  66  68  68  69  70  71  72  70  73  71  72  70  65  71  73  71  74  72  70  70  71  72  73  72  71  73  76  72  76  79  29  26  10  20  21  65  57  67  64  69  77  74  69  79  74  78  74  73  72  74  69  69  68  71  69  70  69  68  71  71  70  71  67  69  70  69  71  66  69  66  70  66  69  67  67  64  66  68  65  62  66
  63  64  69  66  67  66  68  68  67  70  70  67  73  69  68  73  68  71  69  69  73  70  73  70  72  71  73  72  74  73  74  73  77  79  72  74  73  83  46  40  30  26  13  10  14  20  20  24  21  13  57  82  60  56  54  46  59  65  73  75  72  73  73  69  74  70  69  69  69  70  69  70  69  68  71  71  70  70  70  69  69  68  68  65  69  66  65  63  66  64  65  65
  67  67  68  68  65  68  68  68  70  70  69  69  68  68  69  70  72  73  69  75  69  73  73  69  72  73  73  72  76  75  83  85  86  82 115  72  25  15  16  29  28  21  18  26  20  13   9   6  13  10  22  71  77  56   5  28  18  78  79  77  76  74  71  72  71  72  73  73  71  71  70  70  70  70  70  73  70  70  71  70  66  67  67  68  69  65  67  66  68  67  67  64
  69  68  66  69  66  68  68  69  70  69  69  70  69  70  74  70  72  73  72  73  70  72  74  70  75  74  77  76  72  74  72  68  56  34  20  16  45  39  22  28  35  24  28  23  19  20  23  18  14  18  17   9  35  32  39  51  40  55  73  68  79  74  73  75  74  70  73  71  70  69  73  73  71  69  69  70  70  72  71  68  69  70  68  68  67  68  68  67  65  66  64  66
  67  66  69  69  69  68  69  69  70  68  72  68  69  70  68  70  73  73  75  74  74  73  73  74  71  76  78  68  85  91  74  36  32   7  28  40  41  32  25  15   9  12  12   6   6  15  13  10  11   6   8  13  15  14  23  28  41  58  61  68  65  77  58  76  71  76  69  71  74  71  68  73  69  69  70  71  70  66  68  69  70  69  69  68  69  68  65  67  67  64  67  68
  69  70  69  69  70  69  69  68  69  71  71  70  69  71  72  70  70  69  74  75  73  71  74  75  75  72  77  73  76  84  18  48  77  68  31  35  30  14  14  18  13  10   9  10  15   7  10   8  11  17  19  19  18  16  19   6  12  20  18  58  51  71  67  76  75  74  75  73  74  74  72  73  71  72  69  69  69  71  71  71  71  69  70  67  68  68  66  68  68  68  70  65
  70  68  69  69  68  70  69  70  69  70  71  69  70  70  72  72  75  71  75  74  75  73  75  76  73  71  85  80  36  36  80  63  42  40  11  11   7  13  11  18  18  17  10  12  20  18  20  19  14  11  12   7  10  17  14  14  18  15  17  19  28  55  66  55  85  71  76  74  72  75  74  74  69  70  73  70  72  68  70  70  69  71  69  68  69  69  69  66  70  66  64  69
  71  69  70  69  69  70  69  70  73  69  73  69  73  72  74  75  74  75  77  75  76  76  74  74  79  95  47  57  57  69  40  61  34  33  35  30  16  36  19  37  22  19  18  17  11  24  36  43  20  22  14  16  13  11  13  23  18  18  16  14  18  21  22  53  66  64  76  68  71  73  73  74  74  70  70  69  70  73  72  70  72  70  70  70  70  70  66  71  70  71  69  67
  73  70  70  69  69  70  73  73  72  69  72  74  71  72  74  76  74  75  74  74  75  76  74  68  70  47  69  80  85  64 137  44  22  14  14  25  18  29  85  30  24  21  22  17  12   7   6   4   8  11  16  16  12  13  16  13  19  17  12  21   9   8   7  27  43  52  64  73  76  72  75  72  73  73  73  73  73  73  71  73  73  71  69  70  69  70  70  69  69  67  69  69
  71  73  69  71  72  68  74  72  70  73  74  72  72  73  72  74  74  74  74  75  75  77  80  86  91 120  37  25  43  46  20  31  43 117  82 114  93  80  87  52  67  43  33  17  53  26  13  18  18  18   8   9   8  11  25  16  11  10  18  16  15   5   7  10  17  29  55  70  70  77  74  76  72  75  72  74  73  70  69  72  70  70  74  71  72  71  70  68  70  67  68  70
  72  74  71  71  74  72  73  71  72  72  73  76  74  73  75  76  76  75  75  77  76  78  42  66  22  43  56  40  15  21  35  23  25  37  25  23  32  42  36  24  26  14  31  57  49  26  26  22  26  28  10  26  28  15   9  13  22  21   8  10  18   4   8   7  11  21  39  52  60  71  73  76  76  75  74  74  71  74  70  73  72  74  74  70  72  70  72  70  68  70  70  69
  72  69  67  73  70  72  74  74  74  70  73  75  75  73  72  76  75  77  75  74  72  31  35   7  57  23  30  61  48  44  33  65  60  86 104  56  39  35  42  47  41  66  64  63  36  26  16  21  27  19  75  16  14  34  12   6   5  16   7   6  12  18   5  10  13  17   8  49  36  72  66  77  73  75  75  74  73  74  72  74  69  75  71  71  72  70  71  71  70  69  70  70
  71  72  72  71  73  72  75  74  75  73  74  76  74  75  74  77  76  80  79  80  43  22  24  50  39  38  37   5  40  39  75  90  74  63  68  53  28  40  56  97 143 127  92  98  92  79  92  83  43  45  45  26  33   7  26  17  11   5  13  17  13   9  15  11  13  13  22  20  40  68  70  67  75  74  75  72  75  73  75  76  73  76  73  73  72  73  68  70  69  69  70  68
  68  73  74  73  74  74  76  75  75  76  71  74  74  74  77  77  80  78  84  23  29  42  75  23 126  22  63  71  72  86  66  59  33  40  38  59  50  57 107 118  84  80  60  80  54  59  45  29  17  60  67  25  34  40  10  18  10   4  10  16  18  19  18  12  12  20  11  17  26  72  65  67  76  75  75  74  76  75  73  70  72  75  72  75  70  74  74  74  70  70  69  72
  72  75  75  72  75  72  74  70  75  75  75  75  77  74  76  76  80  80   8  56  61  30  77  32  22  36  26  48  97 105  74  87  72  49  32  21  38  38  26  36  13  28  27  43  56  44  32  22  19  16  10  22  18  11  24  21  18  18   9   4  11  22  12   8  15  17   8  15  29  47  31  77  82  72  78  76  74  76  75  74  75  76  74  70  73  73  76  71  71  70  72  71
  72  69  73  76  77  74  73  74  75  75  77  77  78  77  80  84  77  17  38  51  30 114  28 135  46  29  20  24  88  70  57 112  60  58  60  69  48  51  30  25  38  63  34  24  14  22  16  20  25  15  12  15   6   7  13  12  13  12  15  17  18  12  17  21  16  11  16  12  19  59  53  43  26  84  73  69  76  76  75  75  74  74  73  71  71  72  74  73  72  74  70  70
  72  76  75  74  75  74  75  76  75  76  77  74  76  74  77  82  31  29  25  29  89  33  27  13  20  16  33  28  52 109  59  30  65  49  54  35  21  19  36  37  57  27  21  17  17  27  13   7   8  15  17  18  11   7   8  10   7  11   6  15  14  10  14  25  20  14  12  46  26  22  73  48  40  14  84  73  78  77  77  76  75  76  73  73  74  75  75  73  74  69  72  74
  75  74  74  74  73  74  76  74  78  77  74  75  80  81  79  69  34  22  27  19  34  39  17  19  14   7   8  56  40  39  99  80  91  55  44  39  55  56  43  57  32  29  52  42  30  11   8  10  10   6   8  10  11  14  10   7   7   7  10   7  10  11  12  10  11  16  23  18  41  22  36  58  26  17  27  84  72  76  77  73  73  76  74  76  72  73  74  70  70  72  71  71
  70  72  75  73  73  75  76  74  74  76  78  76  78  78  79  49  19  15  23  27  23  15   8   9  86  93  62  45 106 107  57  39  23  19  17  15  20  20  19  17  15  14  15  10   8   9  12  21  19  10  10   8   7   9   9   9   5   6   7  10   9  10  11   8  14   7  11  20  22  99  31  26  23  14  15  29  82  78  76  75  73  75  74  75  71  73  72  72  75  74  72  70
  77  73  75  75  73  77  72  77  74  76  76  79  82  83  70  53  11  16  20  34   8  16  56  22  54  64  80  45  44  32  40  37  61  27  19  11  12  11  13   9  10   7   8   8  11   9   6   7  20  15   7  11   7   8   8   5   8   6   5   6   6   6  16  10  10   8   6  20  44  50  22  32  45  20  18  16  31  79  78  79  77  76  76  73  74  75  73  75  75  74  72  73
  77  75  72  74  74  74  73  74  77  76  78  79  80  70  37   9  11  22  27  34  68  34  50  65  42  42  26  23  33  59  45  30  19  26  19  15  15  11  11  11   7   4   6   5   7   6  10  11   5   8  14   7   7   9   7   7   6   8   8   8   7   8   7  12  14   6   6  13  36  25  22  27  19  27  21  21  19  33  81  76  76  78  72  74  74  74  73  74  74  71  73  69
  75  73  73  75  74  76  76  72  76  77  78  79  81  69  17   9  12  33  35  21  35  16  15  14  16  43  44  46  35  56  47  44  16   5   7  10   8   6   6   5   7   8  11   9   7   4   6   7   8   7   7  10   5   8   7   5  10  10   7   7   5   8   7   8  11  10   8  16  13  39  46  31  25  13  29  12  16  26  33  81  77  78  73  73  77  73  76  73  72  71  73  74
  74  75  76  73  76  75  76  75  76  76  77  79  76  23   8  14  13  20  22  17  16  14  17  41  93  56  52  52  76  35  23  25  34  27  16  10   8   6   7   6   7   6  10   4   7  11   7   7   6  10   6   6   9   7   6   9   6  11   7   6   9   7   6   9  10   7  12  12  51  36  45  51  74  30  20  23  27  10  35  51  80  77  75  74  75  75  76  75  74  75  71  72
  72  72  73  76  76  76  76  74  80  77  77  86  36  16  12  20  21  13   8  18  20  20  36  19  25  23  30  39  33  25  15   9  14  12   7   7   7   6   6   7   6   7   6   9   9   7   7   5   7   6   8   8   6  13   8   9  10  11   9  12   7   8  11  13  15  12  10   5  12  38  70  39  38  24  21  32  21  14  14  48  73  76  76  76  74  76  74  73  74  74  70  72
  73  76  76  75  76  74  74  79  75  78  81  68  12   8  13  29  11  24  25  25  25  26  20  43  41  65  65  56  24  19  49  26  17   9  11   4   5  10   8   6  11   9  10   7  10  12  10  11  10   8  10  11   7   7  11   9  16  14  13  14  16  16  18  21  13  19  15   8  11  36  40  28  26  47  25  16   6  22  19  35  75  76  78  75  72  77  74  71  76  75  71  71
  75  75  73  76  72  79  77  74  74  78  82  12  16  13  22  32  20  14  21  21  23  15  16  13  13  11   9  10  15  27  18  32  29  19  12  11   7   9  10   7   8  12  12  13  11  21  17  16  12  10  12   8  11  11  24  13  10  22  18  22  29  27  27  28  32  29  26  16  13  21  51  38  25  20  29  26  24  15  18   5  86  78  78  75  74  76  77  74  74  77  73  74
  74  74  73  75  77  75  75  76  77  78  70  14  11  13  12  13  14  22  14  15  14  12  20  18   9   7   5  38   8   8  11   7  12  25  15  15  13   7   7  14  14  11  16  29  17  28  30  26  17  18  12  10  11  17  18  20  20  28  31  43  41  53  59  53  53  49  41  25  22  15  33  32  26  14  25  21  22  28  17  57  23  78  76  76  76  71  76  77  76  72  74  75
  73  72  71  76  76  72  77  78  77  79  26  10  13  10  12  13  10  20  14  22  28  22   8   5   9  36  48  33  28   8   7  16  16  10  17  14  19  14  13  19  13  30  20  35  27  51  63  35  26  22  14  16  18  21  26  25  25  42  53  75  66  87  81  86  80  76  70  37  18  14  15  47  40  19  11  14  15  19  16  15  59  76  77  75  79  73  76  74  73  77  72  71
  73  73  77  74  79  77  74  76  73  86  16  13  13   9   7   9  19  21  21  13  15  11   5 116  81  31  10  10  20  18 103  10   8   6   9  17  16  13  16  19  25  23  33  54  51  36  52  45  28  28  22  22  27  25  33  35  45  66  88  87 112 105 101 102  95  97 110  63  40  36  28  11  28  26  20  16  22  12  20  19  13  83  77  75  76  75  77  74  73  75  76  74
  74  75  75  76  74  77  78  77  78  69  10   7  18   9  10  11  12  13  12  19  10  12  59  13  23  50  71  43  33 105   8  13  12  17  22  21  17  18  17  17  33  46  38 116  76  82  63  56  51  42  33  35  42  41  61  70  86 106 111 118 116 122 111 113 118 113 116  85  68  36  22  43  20  37  17  15  14  19  16  22   7  68  80  76  76  76  77  77  74  75  74  75
  74  75  77  76  77  75  78  76  75  35  14  10  11  11  14  11  12  12  14  10  19  22  15  28  23  22  25  12 124  18  28  24  29  33  87  34  35  38  32  43  31  36 108 139 132  97  98  95  84  54  62  89  80  85  81  94 111 118 132  91 125 128 125 123 120 116 127 105  83  68  35  19  18  18  21  15  12  11  12  10  18  49  81  78  77  76  75  74  74  75  75  75
  75  75  74  74  75  75  76  77  85  21  15  16  14  20  11  12  10   9   7  17  14  26  22  21  19  27  30  67  39  37  42  56  72  94  88  92  70  39  44  57  89  84  67 154 158 168 170 161 167 157 127 140 150 144 127 131 127 138 137 126 127 121 133 128 125 119 110  68  60  59  54  23  45  11  13  16  16  14  14  20  15  60  81  77  75  76  76  77  77  74  75  76
  78  75  75  76  77  76  76  76  84  15  11  16  13  10   9   8  28  12  17  13  12  17  20  27  31  44  48  65  46  66  94 114 116 135 143 163 144 117 139 107 132 152 137 162 206 138 181 173 178 180 182 173 172 165 160 156 157 155 142 146 150 135 121 126 123 117  65 112  77  54  23  37  17  27  10  13   7  17  12  16  22  18  77  75  76  75  76  73  72  76  74  74
  74  76  76  75  77  76  76  76  84  10   6  16   9  11   8  25   9   9  16  11  11  18  28  23  43  65  83  74  89 117 135 146 156 160 164 181 186 189 188 178 177 203 177 194 205 198 184 185 185 191 193 189 192 176 179 169 164 167 159 151 133 136 131 119 130 121  79  58  42  60  29  37  30  20  17  14  12   8  17   7  11  58  49  81  75  78  75  76  73  74  73  75
  76  77  75  76  76  80  76  80  73   6  10  11  10  11  20  10   7  16  10  13  20  24  35  49  61  80  93 101 128 142 154 164 167 169 186 193 200 211 208 217 213 210 188 208 212 200 190 183 186 193 185 193 190 186 187 183 175 165 167 147 149 142 129 125 126 114  80  72  45  33  33  23  19  32  10  12   5  10   8  13   5  74  80  74  76  76  75  75  74  77  75  74
  76  75  76  75  78  79  77  79  85   7  10   8  11  13  10  14  14   9  12  19  17  44  39  79  79  92 110 139 158 149 165 163 174 181 195 200 214 215 205 209 209 217 207 216 210 209 202 194 188 183 187 197 192 190 183 184 183 173 168 159 154 134 118 125 115  97  83  50  40  42  19  22  20   9  15  12  12  12   7  17  12  54  78  74  77  74  75  73  76  74  75  75
  76  76  77  77  77  77  76  77  57  16   7   8   8  12  12  11  16  18  17  26  30  59  54  87  88 101 131 154 158 167 166 170 177 182 199 202 202 212 206 214 206 221 207 210 210 210 200 195 194 195 194 191 194 184 189 187 182 179 165 160 153 134 117 120 121  98  65  46  55  42  25  11  14  22   7   9   9  12  12  10  11  79  77  80  74  76  75  75  76  76  76  73
  76  75  78  75  77  82  80  79  84   7   8  15  10   9  10  15  16  12  16  27  37  60  29  97  93 115 143 157 164 169 172 173 183 190 197 205 214 207 200 208 211 214 212 210 209 206 205 203 194 199 197 192 192 192 196 188 179 175 172 163 152 146 114 122 111  96  58  45  42  23  22  26  11  10  16   6   6   5  10   3  10  81  76  76  76  75  75  75  77  72  77  75
  76  79  77  78  74  77  77  82  58   5  12   7   8  10  16  10   9  15  15  30  33  50  35 104 108 131 150 159 163 166 173 176 183 189 202 202 198 213 209 205 210 197 194 190 199 193 194 196 187 179 193 192 191 201 188 189 184 176 175 161 138 146 115 112 106  80  57  55  41  19  14  14  21  13  11   8   8   6   5  12  18  13  80  76  77  76  76  76  77  78  75  74
  75  75  76  76  79  76  73  79  92   9   8  10   8  17   9  19  13  14  31  31  33  96  49 130 121 141 153 157 163 161 169 181 179 191 202 208 204 205 213 208 210 217 210 209 208 210 205 198 201 196 205 195 189 197 189 185 180 165 172 154 153 142 130 104 101  79  51  46  29  29  16  11   7   6   6  14  12  11   6  10  42  55  83  76  75  77  74  78  74  73  75  75
  74  75  75  75  78  75  76  78  74  13   9   9  10   6  11  11  15  14  27  33  55  77  75 127 117 131 144 162 163 167 172 179 184 193 190 206 201 214 210 218 204 206 208 201 208 210 203 200 195 196 194 191 179 190 192 180 183 169 159 151 147 140 111 105  95  73  46  47  40  18  15  11   8   9   8  14   9   8  10   9  63  72  77  76  76  76  76  75  75  75  73  74
  73  77  75  75  78  77  77  79  61  19   9   6   8   9   8  12  21  18  13  52  57  88  97  81 133 134 148 155 157 162 162 172 182 185 192 192 198 206 205 198 198 210 200 211 205 208 194 202 195 199 191 181 185 184 177 180 170 167 147 153 143 130 108 104 100  83  68  46  34  19  22  14   5   7   8  11  12   7   7  10  45  77  76  77  77  76  74  76  75  75  77  75
  76  76  74  76  77  76  79  75  80  30   8   9   6   7   9  24  10  17  20  30  46  63  95  88 143 136 145 154 164 171 171 173 175 182 185 202 200 209 202 211 198 202 198 205 206 201 207 188 198 199 186 184 189 189 190 175 167 154 155 141 148 135 127 112 104  87  74  54  32  18  16  13  13  18   7   8  10  15   8   2  79  76  78  78  77  76  77  76  78  76  75  75
  75  74  75  75  76  76  76  79  73  52  10   8   7   4  20  11  15  15  17  28  55  68 109 122 124 117 146 151 158 159 164 171 180 185 199 182 196 204 212 203 203 208 198 196 205 203 200 201 197 188 193 179 196 187 175 170 153 152 140 145 137 136 113  98  99  82  75  64  35  23  15  15  13   7   5   8  10  12  11  12  82  79  77  75  76  76  74  76  75  76  76  77
  74  77  76  76  76  78  76  78  80  65   8   6   8  11  15  11   9  10  18  33  39  64 103 121 138 133 150 156 160 167 172 177 186 182 194 197 200 207 208 208 198 200 205 190 198 185 191 186 187 183 192 183 183 186 176 163 160 155 169 168 149 136 132 107  92  70  78  62  40  30  22  12   8   5  10   7   9  14  14  26  84  79  77  79  79  75  74  75  77  75  76  76
  79  79  77  74  76  75  76  75  79  77   9   8   8  14  14  10  12   9  18  29  31  67 112 120 134 129 147 152 158 164 165 166 176 186 192 186 190 203 200 199 203 210 202 204 207 210 210 207 193 203 197 186 180 177 169 173 166 169 170 170 160 138 117  94  91  86  86  70  52  28  16  13   6   9   8  11  12  13  11  97  78  78  78  75  74  77  74  76  80  76  77  75
  78  74  74  75  75  76  76  77  77  80  34   6  17  14  11  10   9  24  16  31  38  74 104 123 129 134 147 157 162 171 172 177 186 189 182 191 192 201 208 200 198 204 204 205 204 213 211 207 202 203 202 187 185 172 184 177 172 176 180 173 157 144 121 101  85  95  93  78  54  29  23  19   9   5  12   8  11  13  26   7  86  77  77  76  76  78  77  77  76  75  76  76
  75  75  73  76  74  75  75  75  75  78  66   5  12   8  12   7  11  13  12  22  31  94 103 127 131 139 145 147 165 172 179 177 184 185 187 188 195 208 208 204 197 199 204 213 213 206 211 201 201 200 196 192 183 180 183 176 183 179 182 175 168 144 123 122 100 101 103  79  50  38  29  25  11   9   6  15  14  22  41  60  74  78  77  76  77  77  76  77  77  75  77  76
  76  74  75  75  75  77  75  74  76  77  71  74  10   9  10  11   9   8  17  29  55  90  97 111 134 139 150 153 167 174 177 179 181 190 190 197 201 207 215 197 203 195 203 207 211 216 215 217 202 195 195 183 183 185 181 183 184 183 182 177 169 156 132 138 135 132 109  73  41  25  35  32  22  15   6  13  11  17  36  70  81  76  79  77  77  76  76  75  77  76  75  74
  77  76  76  76  76  75  79  74  77  78  70  84  16  17   9   9  11  12  18  62  99  91 105 106 131 149 158 161 174 180 174 179 185 182 194 196 204 200 204 207 205 200 204 210 211 206 209 203 211 198 176 167 185 193 187 174 177 183 179 180 167 163 159 150 136 124 127  92  48  40  40  37  21  24  20  11  14  15  22  78  85  77  77  76  78  76  77  75  74  77  76  75
  79  76  75  77  76  74  74  76  78  78  78  67  13  12   8  10  17  12  33  99 100  90 102 112 144 150 159 167 177 182 178 191 187 191 187 190 188 195 202 205 210 208 198 211 203 186 198 212 189 185 203 185 198 185 184 177 173 177 177 175 164 159 150 138 142 133 119 104  56  33  44  51  34  44  41  28  12  16  31  53  48  78  79  76  78  76  76  75  75  75  75  74
  74  76  77  77  76  76  77  78  76  74  75 140 159  14  13  10  19  10  43  91 108  87 100 130 147 160 168 171 183 179 188 179 186 191 195 193 193 193 190 194 195 199 182 201 197 187 185 185 184 183 183 183 179 167 172 174 166 158 164 157 134 112  92 113  96  91  82  85  52  43  51  57  43  27  37  35  22  25  33  26  19  84  75  78  75  77  78  76  77  75  76  74
  77  75  72  75  78  77  76  74  74  74  72 172  49  21  13  14  16  13  47 101 114  89 110 148 154 141 144 140 158 175 168 173 177 188 187 188 183 182 193 190 189 180 181 197 193 180 177 182 166 171 173 172 162 121 114  71  90  77  85  80  86  46  58  46  51  47  29  33  43  57  59  80  50  80  53  17  22  29  10   7  21  78  76  76  76  78  77  73  76  74  73  75
  76  75  77  76  73  75  75  76  77  74  87  59 185  13  16  10  12  20  71 115 111 116 110 104  68 101  99 135 129 123 113 139 132 145 154 169 165 168 167 174 176 176 171 188 184 166 167 175 161 151 159 122 134  54  39  32  43  41  38  42  40  45  48  36  27  24  26  24  29  34  53  62  46  41  75  26  22  18  11   7  26  80  76  77  76  77  75  76  79  75  76  75
  77  76  77  75  76  77  75  76  75  75 127  41  57 114  26  32  16  50  75 116 118 121  65  68  50  52  55  81  95  71  56  61  41  51  70  89 130 120 152 154 161 148 176 183 181 174 142 160 144 129  83  79  63  34  33  22  29  15  23  23  41  34  30  33  32  26  27  26  32  36  46  70  48  47  41  34  20  17  27  10  44  78  74  76  77  78  77  78  77  76  74  76
  78  76  74  76  78  74  75  74  73  77 160   9  96 127  39   9  37  43  88 104 132  91  52  43  39  45  37  41  39  26  30  19  30  26  26  40  40  71 122  97 125 141 161 183 187 173 145 130 127 119  83  48  30  25  23  24  32  36  33  55  59  70  67  85  78  64  51  53  46  39  52  60  59  48  40  57  36  18  45  63  38  78  77  76  77  76  77  77  76  76  77  75
  76  79  78  75  76  74  73  75  72  72 166  15 160 114  76   9  42  29 143 121 122 106  56  33  75  91 138 143 129 135 158 143 130  94  58  40  31  41  65  87  98 123 135 171 185 164 130 107  88  54  30  24  26  26   9  29  20   1 242   1  10  28  30  19  18  53  65  75  54  56  61  81  52  58  66  50  13  24  35  42  52  75  78  78  77  76  79  73  75  75  76  76
  75  76  75  76  76  76  73  76  74  78 111  61 172 158  95  30  71  50 124 123 119 112 122 105 120 136 144 115  80  40   3  16   1   3  12  20  25  42  32  29  64  79 135 179 190 166 135 111  59  24  21  22  24  32  35  69 129  29   0  16  13  73  53  53  41  27  37  45  62  72  90  59  68  66  42  71  71  24  20  39  45  70  76  76  76  78  78  77  73  73  73  74
  74  78  76  75  77  75  73  71  73  90 100 138 183 153  91  29  57  66 139 121 136 141 123 135  92  35  10  24  24  44  17  31   9  27 104  23  63  42  46  42  42  55 135 175 191 182 149 117  62  24  26  30  78  17  93 129 166  59 101  61 110 176  82  74  29  52  73  92 108  87  93  80  74  62  54  45  57  18  20  54  86  66  75  78  77  74  78  76  77  76  75  77
  75  77  74  76  75  74  73  74  70  92 103 191 175 132 109  35  97  85 120 121 131 124 138 116  51  39  40  84  82 150  22  26  35  26 164 127  73  80 132  72  73  79 148 178 206 194 175 145  70  47  40  96  74 110 165 165 158 169 149 103 146 133 119  57  55  97 114 111 104 107 112 103  98  63  53  22  68  26  28  68 104  72  76  77  77  75  79  78  80  75  79  78
  77  76  76  77  76  75  73  73  74  71 128 184 171 132  88  46 119  65 127 129 128 142 132 108  46  81  93 119 137 178 193 178 201 200 188 143 123 139  93 174 158 144 135 189 208 205 185 150  89  50  88 181 166 195 137 139 146 169 162 167 121  99  50  71 117 120 125 124 123 112 120  91  75  81  58  28  49  18  46  57 126  74  76  78  78  77  77  74  75  75  75  77
  76  76  75  75  76  74  76  72  74  69 147 206 169 148 146  95  58 103 117 119 129 150 154 142 152 134 114 132 161 165 145 104 131 156 112 117 147 182 195 191 171 155 154 195 211 206 187 165 134  52  97 126 159 173 142 109  87  79  77  71  63  68  75 110 118 130 131 127 118 129 114 101  82  52  44  48  53  30  36  66 110  63  76  77  77  75  75  76  76  77  74  73
  76  77  72  75  77  74  75  76  72  69 147 205 174 175 159 128  57  55 123 127 142 154 150 153 147 135 131  88 106 129 136 146 130  85  72  93 143 147 145 172 166 159 174 197 208 211 188 179 158  98  86 116 182 154 159 159 167 144 146 119 118 124 140 145 163 145 143 140 140 133 129  78  97  61  42  38  30  29  27  56  75  64  75  77  76  78  79  76  77  77  77  76
  79  76  77  76  76  76  74  70  72  73 143 184 176 176 182 178  35  56 108 121 143 146 162 165 150 158 122 148 100  72  64  65  63  83 130 159 151 155 190 179 169 145 189 202 216 205 193 187 174 141  62 139 166 211 179 174 179 167 160 155 160 164 184 165 155 159 150 131 134 137 122 109  72  67  32  24  26  30  22  59  49  63  74  75  77  76  78  78  76  77  74  76
  78  76  78  76  73  76  80  75  71  67 120 130 197 159 176 171  96  40  99 120 139 152 165 160 157 170 172 158 177 172 176 169 167 169 168 179 187 200 184 177 166 151 184 205 218 203 193 193 177 127  50 112 147 185 197 192 184 173 178 175 172 171 172 171 170 158 148 150 135 131 121  95  77  65  34  16  21  22  47  70  22  63  77  76  77  79  79  76  76  77  76  75
  77  75  75  79  74  74  73  74  71  73  70 109 196 152 133 185  72  50  99 121 137 153 154 162 165 163 164 174 177 181 168 183 184 181 177 190 202 191 182 167 157 157 179 205 213 200 192 183 159  55  59  77 125 199 135 186 187 178 170 181 182 179 168 172 176 166 156 136 139 132 109 104  82  50  28  20  22  27  73  55  49  58  75  79  77  76  75  79  76  76  76  74
  76  74  75  75  76  77  75  76  75  72  63 181 158 162 113 171 112  28 105 109 139 148 156 165 157 157 169 175 182 177 186 177 188 183 186 196 194 184 172 151 153 158 168 191 203 199 187 175 122  72  79  62 102 158 167 186 170 186 185 190 181 173 187 178 161 159 153 142 142 127 114 101  61  62  34  15  25  49  88 113  87  58  78  77  76  75  76  77  75  77  75  74
  76  74  77  75  74  76  75  75  73  74  64 189  86 217 180 169 136  35  86 117 146 142 148 155 166 171 175 175 190 183 193 194 194 205 198 207 192 172 161 154 156 159 164 187 198 189 190 171 122  86  98  74  95 142 182 206 139 202 191 189 186 184 183 178 176 160 152 141 128 122  95  94  56  53  26  16  24  55  77  98  86  56  73  75  79  77  78  78  77  77  76  77
  76  78  77  75  75  75  73  74  72  73  67 167 190 135 175 179 140  24  88  96 133 138 145 157 161 170 177 180 191 188 206 202 203 210 208 204 188 174 161 152 160 159 168 183 199 187 187 162 122  99 117  92  92 134 171 197 195 193 193 189 185 188 178 174 169 156 157 142 134 107  97  77  57  32  24  12  25  58  80  82  98  72  79  74  77  81  76  78  77  76  78  75
  76  76  78  78  75  76  74  72  72  70  68 134 187 182 191 182 131  94  38  85 131 132 149 151 165 168 176 181 185 195 201 204 208 204 205 197 185 172 159 149 161 153 165 180 192 201 168 166 124 125 126 105  88 122 171 186 191 196 185 191 185 188 176 170 164 162 144 136 118  90  82  77  48  38  18  12  33  62  76  71  41  74  77  74  77  77  78  76  78  77  75  74
  76  79  77  77  76  78  74  74  74  73  74  74 154 187 195 167 141 103  59  77 125 132 143 155 163 168 177 181 190 192 207 206 209 208 199 191 183 168 144 151 156 166 170 186 205 201 182 159 136 139 121 111  50 105 157 176 191 192 197 190 188 176 177 168 162 146 128 125 109 103  72  60  44  22  19   3  28  38  44  28  74  79  76  78  75  77  75  78  77  74  76  74
  78  75  77  77  75  77  74  77  73  71  74  69 125 182 190 182 177 158  71  78 100 127 125 145 153 162 168 173 172 193 199 208 202 207 198 191 192 174 146 151 158 155 169 185 211 202 179 156 136 127 128 103  61  79 154 173 182 189 186 186 183 173 173 165 156 149 136 117  98  77  63  45  41  29  19  96  40  24  48  78  72  75  77  76  76  74  74  75  77  78  73  75
  75  77  73  76  77  73  73  76  74  74  73  73  53 158 177 169 173 157  68  90  96 126 127 133 153 160 169 177 182 185 203 199 207 196 203 191 196 175 150 134 169 161 171 175 201 201 177 156 133 129 128  98  70  56 161 178 184 184 192 184 182 173 168 158 147 121 126  97  76  70  52  36  32  28  21  84  81  80  76  77  76  75  75  75  76  77  76  78  77  75  76  77
  81  74  77  75  76  75  75  74  75  73  74  71  69  66  62 112  84  35  73 106  83 119 126 140 146 149 164 166 177 182 182 192 192 194 201 200 194 161 150 145 160 166 167 161 190 199 171 132 114 131 142 138 115  77 126 181 188 190 181 179 175 175 159 143 142 123 109  88  72  69  58  39  32  21  18  63  81  77  77  76  77  77  76  75  75  76  75  78  75  76  74  77
  75  76  76  75  76  75  75  74  74  74  74  72  72  71  72  75  74  68  56 100  71 116 116 128 143 150 149 165 169 176 180 183 181 183 166 175 177 158 140 155 166 160 162 168 187 198 170 138 119 144 159 163 105  60  90 167 185 183 169 185 176 163 140 147 127 134  97 100  74  56  60  44  31  20  33  72  80  79  75  74  77  75  76  75  76  76  79  74  75  74  75  75
  76  77  76  75  75  77  75  72  76  76  72  74  75  73  71  71  69  69  87  79  99 110 116 130 138 147 162 159 168 167 168 180 172 168 165 173 166 137 120 167 168 159 153 190 223 216 175 145 134 145 146 132  72  37  59 162 187 182 182 160 161 166 142 135 116 112 103  73  75  82  63  32  33  28  25  85  81  76  76  78  77  76  76  75  75  74  74  77  75  75  75  75
  76  77  77  75  74  76  74  74  76  77  75  72  74  72  74  72  69  71  54  84  78 100 106 122 133 145 149 160 162 159 159 174 172 163 145 157 179 164  84 131 155 147 170 197 202 197 186 160 138 119  98  86  36  30  60 154 170 177 175 176 167 164 147 124 120  97  96  79  69  83  63  35  34  26  33  78  80  78  76  75  76  74  77  75  77  75  76  76  75  77  74  76
  75  76  76  76  77  74  76  76  76  75  75  74  73  74  73  69  72  70  78  97 101 138 135 122 118 133 149 152 160 168 157 158 158 136 154 165 175 167  66  40 105  93 158 161 172 167 163 169 104  38  28  22  18  13  79 151 166 174 172 170 167 156 151 127 116  91  82  72  71  79  60  54  38  26  48  81  78  78  78  77  75  74  74  75  75  76  76  75  73  74  76  74
  77  77  76  75  78  76  73  77  73  72  74  74  73  74  69  71  68  70  68  92  83 115 145 122 126 137 144 152 149 153 152 149 135 135 164 169 169 171 161  30   9  42  74 112 128 119 115 106  25  11   5   5  11  36 108 148 163 169 161 170 164 151 119 116 119  65  63  55  81  81  74  41  34  32  57  80  78  77  76  77  75  74  76  74  78  76  74  76  74  75  74  74
  75  77  76  76  78  76  76  76  75  76  73  75  73  74  70  72  70  68  68  60  82 108 122 115 108 121 139 143 153 151 119 152 127 160 156 167 174 156 150 124  46  41  17  45  50  40  45  27   4   7  10  18  39  60 112 162 154 154 160 154 153 151 124 103  92  75  65  76  67  76  56  33  29  18  54  77  79  78  76  75  73  75  77  77  72  77  74  75  76  77  72  76
  76  76  76  78  74  76  75  77  74  74  72  73  73  71  70  72  72  70  66  45 103  94 122 119  97 121 132 144 145 146 146 152 161 156 158 152 154 141 136  91  39 101  50  13   8   4   7  11  10  19  30  20  22  92 140 168 150 147 155 151 159 140 119  98  65  56  52  75  80  59  57  41  28  28  44  81  76  78  76  75  74  77  75  74  74  75  75  76  75  76  74  74
  77  77  76  77  75  75  75  75  73  76  74  74  76  71  73  74  68  70  69  58  80 101 121 144 118 116 130 133 123 142 149 145 160 132 122 153 159 136  92 109  64 100  61  50  24  20  19  28  52  29  40  17  67  67 125 143 147 147 104 133 147 111 110  90  46  51  72  83  80  89  47  29  34  29  57  78  80  75  75  75  73  76  78  76  77  75  75  77  73  75  73  72
  78  75  76  77  76  76  76  76  76  75  75  73  75  71  72  71  72  70  70  86  90  70 127 119 108  91 121 127 128 148 139 124 122 146 127 131 121 141  58  96  78 138  99  49  38  25  32  40  28  58  92  38 106  80 140 137 117  94  79  89  84 149  99  92  67  30  88  70  91  75  44  38  38   9  62  77  77  78  78  73  77  70  76  77  71  77  75  74  75  75  76  74
  78  75  76  76  79  74  76  74  74  73  71  76  74  72  71  75  70  71  67  67  83  79 107 124  97 101 116 123 128 141 131  86  97  92  88 137 125  80  56  76 113 117 102 117  93  45  80  96  55  82  47  63  42  76 104  93  82  79  69 128 174 115  88  95  44  27  58 108  88  83  38  39  33  35  64  76  75  72  75  77  76  75  74  74  74  73  75  75  73  75  73  73
  77  78  77  76  78  77  77  74  74  76  77  72  74  75  70  74  73  68  71  66  34  59  80 122 115  86 124  89 135 134 103  89  88 112 142 104  69 100  88  44 118 118 146 171 100  99 113 107  98 124 119  75  77  80  93  46  79  87  71  83  85 116  68  69  59  26  59  75  88  65  42  26  22  25  83  75  79  74  75  76  78  77  73  75  75  76  74  73  75  75  77  70
  75  77  77  77  76  75  78  75  75  73  75  72  73  74  73  74  72  72  70  71  38  54 101 115 109  85 117 102 104 123 136 132  60  56  51  64  71 129 149 155 146 181 161 159 138 155 155 160 142 102 112  78  57  58  56  75  70  47  47  94  70  60 102  69  51  26  76  98  68  54  28  39  25  21  80  75  76  76  74  75  74  76  72  75  71  76  75  74  75  72  73  77
  75  79  78  78  75  77  73  76  74  73  73  76  75  72  72  73  71  71  71  64  62  50  60 107 114 113 105  97 126 119 108  76  62  35  23  35  80 127  76  83  68  53  61  69 108 161 142 144 121 135 133 116 110  76  71  41  41  17   7  45  48  73  54  59  32  21  88  82  64  40  48  20  39  29  81  81  75  73  73  74  75  73  76  72  76  71  73  72  73  73  76  75
  78  77  76  76  77  75  77  75  76  76  74  71  75  73  73  73  72  72  73  70  82  38  43  84 101 122 108 112 112 112 111  94  84  86  55  54  11   3   3   4  17  14  23  29  26  20  29  11  15  21  18  20  23  22  11   9   7  18  51  56  96  99 121 110  25  20  70  57  44  36  45  65  13  18  80  76  76  74  74  74  73  75  74  74  75  73  76  74  75  75  72  73
  78  77  77  77  75  77  76  76  76  73  75  72  74  74  71  72  70  72  72  78  87  50  37  47 100 113 104 146 111 106 148 121 108 126 109 125 114  70  73  88  91  37  31  54  67  25  30  30  45  13  10   8  17  25  29  41  78  63 121  89 121 149 136  79  27  25  76 110  20  30  32  29  16  55  80  75  74  76  74  73  72  74  73  71  73  75  78  75  73  73  72  73
  76  76  76  78  78  78  77  76  75  77  76  73  76  76  72  72  73  72  74  72  76  26  22  68  63 135 112 127  99 104 119 149 111  96 152 125  87 116  86 140 166 153 119 143 131 126 108 121 119 130 142 127 117 136 106 122  60 110  97 131 156 112 157  54  18  29 127  81  15  46  54   9  17  35  66  77  73  75  73  76  75  75  74  74  73  73  75  76  75  74  71  73
  76  77  75  76  77  74  74  77  76  76  76  76  75  74  76  72  74  71  74  71  72  61  45  30  54  78 127  78  98  55 130 120  93  95 132 144 122  86 105 160 149 162 179 184 163 169 138 155 150 160 155 137 165 116  85 133  68  77 110 130  95 114 114  40  15  56  98  72  22  25  27  22   3 100   9  36  75  70  74  75  76  75  75  74  72  72  74  74  73  72  76  75
  80  77  76  76  78  78  75  75  75  75  74  76  73  76  76  75  73  72  75  75  75  71  47  14  23  66 124  69  61  55  81  98 109 136 120 123 125 111 130 122 137 161 178 192 211 186 195 189 166 155 148 134 114 127  89  54  72  99  99 121 135 136  91  20  31  76 121  43  29  34  21  12  26  75   7   8  53  75  75  76  71  74  75  73  72  77  72  73  76  74  71  72
  77  78  76  76  77  76  76  76  75  75  77  76  75  76  74  73  69  73  73  73  73  75  74  10  31  40  72  56  80  57  94  77  76 114  96 131 127 119 111 135 135 138 112 135 110 120  97  84  80 110 101  97  62  48  62  52  93  69  91  75 149  87  81  11  25  46  59  21  31  32   9  13 105  84   4   4   8  81  74  71  74  75  77  76  71  73  74  74  75  72  76  73
  79  78  77  76  77  77  77  78  75  78  78  73  75  76  73  74  72  72  76  71  75  73  74  80  18  36  53  81  16  40  74  90  79 128 139 125 121 114  70  87 118  83  60  72  83  65  31  40  93  89  49  46  43  29  42  60 101  99 111  93  84 130  55  20  18  55  40  44   9  15  12  23 137  93   4   6   7   4  86  77  75  76  74  75  73  73  77  73  73  75  73  71
  77  76  77  76  79  75  74  81  76  76  77  78  76  74  73  71  74  73  71  72  75  77  73  84  41  21  36  61  24  91  78  89 102 137 145 137 130 119 124 109  54  76  58  48  61  40  60  78  54  68  50  62  88  62  79  94 107  90 116  84  56  82  24  23  64  34  27  31  14  10   8 126 134 103   2   4   8   8   6  89  73  74  76  74  74  77  76  74  76  72  74  73
  79  78  80  79  80  76  78  74  77  77  76  76  75  76  74  70  74  74  74  75  75  71  73  67  47  39  17  38  41  61  72  38 137 123 133 124 137 114 125 154  90  76 132  69  65  46 122  45  78  42  83  81  79 125  83 117 119 118  83  85 135  66  17  27  33  36  11  18  12  15  29 159 135 114   1   5  11   7   8   3  87  72  73  76  75  77  72  75  74  75  75  75
  79  79  77  80  75  76  76  77  76  79  77  75  76  75  76  72  74  75  74  69  72  73  65 225  97  66  66  18  35  63  60  84  92 119 124 108 145 153 162 130 137 124 114  92  76 117  66 100  91  89  90 116 125 114 141 129 116  94 106 100  75  87  23  18  76  27  44  17  13  10 172 170 140 120  19   5   7   7   7   8   4  84  74  75  74  77  73  73  75  74  74  73
  80  75  79  81  76  75  80  76  78  80  79  76  76  75  74  74  72  76  72  71  72  72 156 216 153  73  74  32  25  30 101  46  40  75 102 113 131 145 124 147 165 160 136 173 170 150 166 155 104 150 146 161 137 152 149 125 105 130  17 100 112  85  15  23  33  20  20  15  23  58 190 177 148 125  23   6   8   7   9   9   5   5  94  75  76  74  75  74  75  73  75  76
  80  79  79  74  75  81  76  78  78  76  78  76  75  75  75  76  72  76  74  74  70  61 240 130  22  98  84  41  27  23  44  35  32  83  63  65 109 151  96 146 145 157 170 150 161 178 175 162 179 179 146 148 132 154 125 120  78  73  92  30  89  34  17  18  17  15  14  18   1 219 200 181 150 119  32   6   7   7  10  11   6   8   5  74  78  76  75  77  75  75  74  75
  81  76  76  76  77  80  77  79  81  80  77  76  76  76  75  74  74  75  71  70  73 195 184 160  36 112  98  90  80  38  24  27  32  67  90  71  68 144  98 123 130 144 146 133 166 190 132 191 187 155 150 142 146 102 123 110  86  97  55  49  30  16  19  23  13  14  20  23 127 208 206 185 147 120  36   6  10  10   7  10   9   9   8  13  26  93  76  81  76  77  76  77
  80  82  79  77  78  76  80  80  79  79  75  76  75  74  75  74  73  75  74  72  67 236 194  55  55  91 115 112  95  74  58  16  28  48  70  43  41  59  95 114 146 151 147 141 152 151 178 138 164 170 139 165 127 142  54 103  73 117  37  35  17  32  21  17  15  18  21  23 221 215 210 185 133 116  45   9  10  11   8   9   7  11   8  10   9   3  57  89  85  77  78  76
  76  80  78  78  83  79  80  77  79  78  78  79  76  76  77  76  75  72  73  69 130 204 197  61  99  85 113 131 117 117  77  42  30  13  29  64  76  67  98 162 130  92 144 180 139 167 177 148 112 141 152 135  92 105  81  65  74  23  31  19  17  23  14  17  23  23  32 169 222 219 210 179 118 105  54   9  12  12  11  10  10   9   9   8   9  10   7  11   6  55  87  91
  80  79  78  79  77  79  79  81  78  77  77  78  77  76  74  76  73  74  72  67 239 204 132  57 128 149 110 126 135 128  96  85  30  22  17  47  66  45 120 135 131  60 134 119 158 153 151 157 107 119 107 121 133  82  28  70  20  41  15  22  16  21  18  24  28  34  25 216 221 219 205 153  94 122  51  12  12  11  10  11  10  10   9   9   9  10   7   9   7  10  10   2
  81  79  77  80  81  80  79  79  76  77  78  74  78  76  78  76  76  75  70  55 239 223 136  86 148 218  76 119 143 145 116  95  85  47  31  61  92 138  50 106  48 159  92  86  85 106  90 107  53  94  97 132  75  39  46  27  62 118   7  19  16  21  24  27  30  30 211 232 221 215 207 119  76 126  33  13  14  11  12  10  11   9   7  11  10  10   9   9  13  10   9  10
  77  81  80  75  80  82  78  82  77  75  75  75  79  76  77  78  78  79  82 130 221 184 168 100 172 213  55 123 136 143 142 121 104  76  82  36  25  56 100  43  91  35  80  97 117  85 109  64 136 103  75  38  68  44  23  30  31  16  18  15  21  24  31  30  40  68 211 230 221 215 200  86  78 132  15  13  15  14  14  11  11  10  10  11  10   9  11  10   8  10  11  10
  79  78  78  81  80  79  81  76  77  78  78  77  78  81  73  91  75  13   5 233 219 189 182 108 180 199 110 101 129 151 137 140 129  95  84  67  46  31   9  45  52  60  25  41  97  55  60  71  46  93  41  70  26  15  16  22  16  16  21  21  22  31  35  40  33 215 230 230 220 210 173  75  94 137   6  11  12  10  13  13  13  11  11  10  10  10  10  10   9  10  10  10
  79  83  81  79  79  79  82  82  77  82  81  77  82  92  49   1  11   6  10 231 223 204 195 109 171 201 121  97 119 148 153 154 133 131 101  79  67  61  47  41  50  50  37  25  31  33  29  77  29  44  23  14  31  45  24  24  26  26  21  22  28  34  36  48  86 214 230 226 215 206 155  66 116 118   6  13  15  14  13  11  12  10  13  12  10  11  11  11  11  10  11  11
  79  78  80  81  79  80  80  82  80  79  92  80  20   7  10  10  12  12 112 229 230 200 187 109 173 190 132  89 115 133 145 142 152 142 121 109 100  50  55  49  27  14  34  31  28  26  19  39  33   9  19  19  20  17  26  20  26  22  25  35  40  47  55  37 202 227 230 223 218 202 140  67 127  76  12  15  15  13  12  10  13  13  12  11  13  11   9  10  11  10  13  10
  84  83  82  79  83  81  81  84  86  88   3  13   9  10   8   8   9   3 236 223 222 216 164 107 165 187 131  84 100 132 146 150 152 138 142 136 103  87  68  60  47  34  34  28  16  13  15  14  16  19  16  20  23  22  27  27  26  31  33  42  45  52  56  82 206 229 228 226 215 199 125  64 130  31  12  16  15  14  13  11  12  13  11  13  13  13  13  11  13  11  14  11
  83  81  81  85  83  80 100  57  12   6   9  10  10   9  10  10   9   4 242 234 226 212 174 126 164 183  35  63  84 116 149 131 145 149 140 141 120 105  78  82  68  46  50  34  22  23  20  22  23  20  26  31  30  34  35  35  33  37  46  56  58  59  64 172 230 232 229 226 218 193 108  74 129  11  12  17  15  14  13  12  13  13  13  13  12  13  13  13  13  13  14  13
  86  86  84  85  93  23   1   7   8   7   9  13  11  10  11   8  13 183 230 229 235 218 180 155 164 162   3  57  77  98 119 154 159 143 139 148 133 123  95  91  76  68  49  61  51  34  28  28  25  32  27  33  36  33  36  40  44  50  59  57  61  65  37 246 201 232 230 225 220 190  97  81  99  16  13  14  15  13  12  14  12  11  13  14  13  14  13  12  13  13  13  14
  86 102  75  17   3   7   9  10  10   9   9   9  11   9  10  13   0 239 225 219 228 229 183 175 158 149   9  56  83  82 115 129 147 147 145 134 145 129 112  92  99  76  76  75  69  56  52  40  48  39  38  39  46  45  45  46  53  54  67  76  67  46 236 108 113 105 114 187 222 192  78  90  45  11  11  13  17  16  13  12  14  11  10  12  12  12  14  14  13  12  13  15
