P2
# Generated by OpenCV 4.2.0
92 112
255
 145 143 142 143 143 142 141 140 139 139 138 137 137 135 135 135 135 134 133 133 134 133 132 132 132 132 132 131 132 131 129 131 130 129 129 127 126 122 121 121 124 159 181 173 172 141 126 128 144 162 164 146 129 133 131 147 141 123 125 125 121 121 121 121 121 122 121 121 121 118 119 119 119 117 118 118 119 118 118 118 117 116 116 116 115 116 117 115 115 116 115 116
 139 139 138 138 137 135 136 136 135 134 133 133 132 132 131 130 130 130 130 129 128 129 129 128 128 126 128 128 125 126 127 126 126 128 132 131 133 142 152 157 158 167 168 162 179 183 173 162 171 174 164 162 144 132 131 136 141 140 136 140 131 117 123 122 119 119 119 118 118 118 116 117 115 116 116 117 117 115 115 115 115 116 116 116 116 116 116 116 115 116 117 116
 133 132 131 131 132 132 130 129 130 129 127 129 127 126 127 126 126 126 125 125 125 125 125 125 125 124 124 123 122 124 125 124 122 121 123 137 157 187 200 192 186 184 176 171 166 171 181 178 170 186 196 186 178 158 145 129 127 138 147 171 166 132 121 119 117 117 117 117 117 117 117 116 116 115 116 116 116 115 116 116 116 117 117 117 117 117 118 118 118 118 119 119
 127 127 127 127 125 126 126 126 124 125 125 123 123 124 124 123 124 122 123 124 123 123 124 123 122 122 122 124 123 119 118 118 127 138 158 174 188 188 180 168 173 183 183 169 154 161 174 183 180 176 171 162 157 155 166 151 136 137 144 159 181 164 117 117 118 117 117 118 117 118 118 118 117 118 118 118 118 118 119 120 117 119 119 120 120 119 119 121 120 120 122 121
 124 124 124 125 124 122 124 124 123 124 123 122 123 122 123 122 121 121 120 120 121 120 121 119 120 127 129 127 131 130 135 147 158 178 176 172 174 169 161 150 164 181 175 178 181 189 196 179 177 184 190 186 175 172 190 197 163 138 138 140 168 178 128 118 123 121 118 118 120 120 120 119 120 120 120 120 120 121 122 121 120 121 121 122 122 122 123 123 123 122 123 124
 122 121 121 121 121 121 121 121 121 121 120 120 120 120 120 120 119 118 119 118 119 118 116 117 124 121 124 140 156 153 147 152 155 156 156 162 167 146 139 166 181 194 182 179 185 180 168 156 143 157 159 156 148 151 153 159 166 179 169 168 160 178 169 129 127 128 130 131 121 122 122 122 122 122 123 122 123 123 123 124 124 124 124 125 125 125 126 126 125 125 126 126
 118 119 119 118 118 119 118 118 119 119 118 119 119 119 119 118 118 118 119 118 117 120 126 126 125 127 147 136 123 118 135 150 146 132 145 151 142 164 165 174 192 192 177 165 146 133 133 134 127 116 115 128 116 116 129 140 146 156 179 189 170 162 185 158 130 122 130 137 143 129 123 125 125 125 125 127 126 126 126 126 126 127 127 128 128 128 128 128 129 129 129 130
 117 118 117 117 118 117 118 118 119 119 119 119 119 120 120 120 120 119 120 120 120 120 122 123 131 142 118 100 112 135 154 141 137 137 144 145 167 176 172 158 159 149 121  95  74  75  80  81  91  96 113 148 146 157 171 166 162 166 182 200 197 169 185 195 181 147 128 124 132 147 136 127 127 128 129 128 128 128 129 130 129 130 130 131 131 131 131 131 130 131 132 132
 118 118 118 118 119 119 120 120 120 120 121 121 120 121 123 123 122 122 122 125 128 127 135 131 131 112 111 137 141 136 143 145 152 149 148 153 151 131 121 139 132 101  95  77  70  88  97 130 156 160 161 165 182 164 157 170 181 176 174 183 189 197 190 181 184 180 169 145 130 139 143 134 130 131 131 131 131 132 132 131 131 132 133 133 133 133 133 134 133 134 134 134
 120 120 120 121 121 122 122 123 123 124 123 123 123 124 124 124 124 123 122 124 138 155 157 133 116 115 144 148 141 131 122 113 114 129 153 131 102 110 126 108  73  68  99 125 143 145 148 147 136 131 149 164 168 171 169 174 164 151 156 156 149 169 176 173 167 157 170 188 163 137 134 132 133 133 133 133 133 133 134 133 134 135 135 135 136 136 135 136 136 136 136 138
 124 123 123 124 124 124 124 125 127 125 126 126 126 127 128 130 132 133 145 159 165 160 138 117 119 133 141 126  94  87  87  83 119 117  99  92  99 102  88  98 104 124 132 123 111 102  91 100 139 149 152 134 128 133 149 173 164 182 183 179 174 162 168 171 173 168 167 169 180 167 137 133 136 136 136 136 136 135 135 136 136 137 137 137 137 137 138 139 139 139 139 138
 124 124 126 127 127 127 128 128 128 128 128 129 130 129 132 136 138 146 153 149 153 145 127 139 130 115  95  89  85 101 126 132 140 125 109 102  97 111 148 138 136 137 122 115 131 147 165 173 166 146 144 149 159 153 131 117 119 138 150 155 167 162 175 178 187 192 173 155 151 172 174 141 136 138 138 138 138 137 138 139 139 139 139 139 140 140 141 141 141 140 141 141
 127 128 129 130 130 130 130 130 131 131 131 132 132 132 132 130 135 138 132 147 156 138 142 117 102  95  97 109 119 133 136 127 117 103  92  91 100 128 143 141 142 143 162 181 175 175 176 156 143 109  98 111 110 111 118 120 134 126 125 108 100 127 137 164 179 187 171 143 138 167 189 165 137 140 141 141 140 140 143 142 142 143 142 141 143 143 143 142 143 143 144 143
 131 131 131 131 133 133 133 133 133 134 133 134 133 135 138 140 146 145 152 154 122 115  87  93 108 100 107  97  95 119 141 126 106  86  78  88  99 124 126 107 110 139 158 168 158 153 140 134 142 134 111 121 121 119 137 154 158 166 161 161 152 153 158 137 135 171 158 150 148 145 182 198 161 143 142 143 142 142 143 143 143 144 143 144 143 144 144 145 144 145 145 144
 134 134 133 134 135 136 136 137 137 137 136 136 137 137 138 140 143 156 159 138 118  86  95  95  75  79  90 103 140 135 119  95  90  97 106 126 136 154 133 141 154 162 162 160 148 124 116 117 141 162 148 125 122 120 117 109 115 106 131 138 166 167 148 172 149 159 189 151 145 146 170 196 188 156 149 147 144 144 145 144 144 144 146 146 146 146 146 146 146 146 147 147
 136 136 137 138 138 138 139 140 139 139 141 138 140 139 138 139 148 163 143 125 101 104  93  76  73  82 126 148 123 102  99  98  90 103 130 142 153 161 151 147 149 151 148 147 148 146 126 112 101 107 125 139 119 107 110  92 130 132 129 123 124 159 147 144 151 114 135 186 166 156 165 187 201 176 159 148 147 146 147 147 147 146 147 148 148 147 147 148 148 148 148 149
 141 140 139 140 141 141 141 141 142 142 142 142 143 141 143 150 155 131 114 104 109  96  78  82  96 115 122  93  86  77  65  75  85 120 137 130 139 142 147 144 147 154 147 128 100  94 102  96  94  91  88 129 160 146 139 151 157 189 193 185 155 154 155 144 144 151 131 142 185 182 153 171 200 204 191 169 153 146 148 149 149 149 148 149 149 148 149 149 150 149 149 150
 141 142 143 142 143 142 143 143 143 144 144 146 149 149 155 156 143 130  94  95  84  91  98 108 105  90  62  70  64  63  68  86 129 138 138 138 123 107 118 116 124 127 117 109 100  91 100 104 115 134 159 156 149 159 154 158 151 141 155 156 136 142 137 140 131 136 134 116 125 178 176 157 183 182 209 196 181 155 147 149 150 150 150 149 149 150 151 150 150 150 151 151
 143 143 144 145 144 145 145 146 146 146 150 150 149 148 153 142 144 104  67 101 116 108 107  95  58  47  64  59  63  80 109 146 129 116 108  95  91  83  77  83 120 132 130 139 160 166 162 156 166 155 145 139 145 134 117 113 119 111 110 112 102  95  86  96 113 121 134 139 158 154 176 189 181 155 181 205 199 188 161 151 151 151 151 151 151 152 152 152 152 151 152 152
 145 147 147 147 146 147 147 147 147 148 147 150 151 151 140 135 122  64  82 109 113 107  78  51  60  73  76  94 110 118 126 115  68  63  62  62  76 105 135 147 148 157 169 170 157 148 131 128 125 121 138 138 112  84  80 102 125 105  77  65  64  73  78  57  53  79  94 100 124 148 151 167 185 184 170 195 204 198 182 165 156 152 152 153 153 153 153 154 154 153 153 154
 147 148 148 148 149 149 149 148 148 149 149 152 152 127 112 109  79  82 102 104 109  78  40  64  97 112 105 108 128 129 123 115 118 126 128 131 140 166 168 160 147 148 139 138 132 121  87  86  87  88  93 126 142 143 146 136 119  97  88  98  98  78  75  53  33  31  53  78  91 128 128 132 144 158 168 179 195 200 195 172 162 155 154 155 154 155 155 156 155 154 156 156
 149 149 150 150 150 149 150 150 150 151 152 154 138 115 112  85  78  95 109  94  82  73  89 115 117  95 109 142 136 129 139 132 103  98 105 114 125 112  82  58  63  62  59  81  82  69  56  55  74  83  94 113 127 117 102  85  81  83  81  74  76  75  75  89  79  35  31  44  79 109 129 129 139 137 157 177 186 193 203 191 162 161 157 156 158 157 158 157 158 158 158 159
 150 151 151 151 152 152 152 152 153 152 154 152 139 111  84  87  89  95  77  83  65  65  94  95  76  82 106  92  68  95 100  87  71  77  89  93  89  82  68  68  73  58  50  51  49  53  61  58  64  79  73  72  63  49  50  56  37  44  51  60  66  71  57  51  91  84  45  28  38 100 125 119 130 141 153 182 185 191 196 194 174 159 160 159 160 161 160 161 161 161 160 161
 151 151 151 152 152 152 152 153 154 154 152 140 117  75  96  92  93  73  83  78  52  61  82  65  68  83  82  82  91 101 118 133 131 130 124 105  96  94  82  79  74  65  55  45  42  41  35  30  30  20   9   7   8  15  21  17  10  17  22  24  39  66  80  74  51  62  54  46  19  53  90 107 129 136 146 133 148 192 203 180 177 170 162 163 162 162 163 164 163 162 163 164
 152 153 153 154 154 154 154 154 155 156 146 123  67  80  93  88  74  61  95  84  78  98  85  47  69  84  87  81  70  92 112  85  84 105 100  98 115 112  97  82  68  61  53  45  41  35  23  15  16  30  34  24  15  13  20  22  35  42  51  53  36  31  43  60  70  52  50  49  37  40  61  71 100 119 120 141 125 138 181 196 174 172 167 166 168 165 165 165 165 165 165 166
 154 155 156 155 155 155 156 156 156 155 143  97  77  95  66  85  63  82 117 102  83  69  63  77  97  96  87  62  75  82  79  58  43  41  39  39  47  52  50  59  60  51  45  42  36  28  36  47  43  37  28  16  13  36  44  54  58  45  38  52  48  37  30  42  55  52  49  39  42  50  59  68  79 109 119 124 155 148 127 170 187 174 178 173 167 166 166 166 165 165 165 166
 156 156 156 156 157 157 157 157 158 155 119  82  96  65  59  71 108 138 142 115  83  69  68  73  81  70  87 100  88  84  74  59  63  56  53  46  37  29  21  22  30  39  49  47  39  38  51  43  26  17  20  19  20  36  19  17  13  13  12  15  18  23  31  33  47  49  60  46  52  65  77  76  70  78  94 125 151 174 143 117 163 185 182 166 164 166 166 165 165 166 166 166
 157 158 158 158 158 160 160 159 161 152  94  90  67  44  63  67 114 119 109  99  72  72  54  57  58  65  86 100  93  92  80  71  59  45  34  31  26  22  20  18  15  15  20  30  52  60  48  37  35  26  21  15  28  25  21  22  25  23  18  22  22  21  27  34  42  52  60  69  78 102 111  99  72  67  83 106 133 168 168 127 121 163 178 168 166 166 166 167 166 166 167 166
 158 159 160 161 160 161 161 161 165 140  87  83  48  59  58  93 113 110 104  82  74  76  64  56  70 104 116 104  68  32  32  46  43  47  48  48  39  34  26  21  17  14  31  58  51  42  34  37  33  29  26  20  31  31  28  31  36  32  26  25  24  25  27  34  44  66  79  93 128 153 143 133 110  81  95  81 109 146 161 153 133 148 151 166 169 166 166 166 165 166 166 166
 163 162 162 162 162 162 163 164 168 113  67  60  51  74  98 103 108 106  92  75  62  64  70  71  78  75  57  34  21  36  44  33  31  36  45  54  58  56  56  43  37  53  65  37  20  31  38  34  37  34  30  34  37  35  39  48  50  40  35  30  28  29  32  51  67  84 112 138 168 178 169 160 145  89  79 102  92 127 155 160 151 145 130 149 172 166 166 166 165 166 166 166
 164 164 164 164 165 164 165 168 169  91  61  61  57  93 102  94  87  83  66  55  68  70  58  58  50  40  32  29  45  52  45  44  46  44  46  43  43  44  48  52  76  77  51  34  32  33  42  39  38  53  53  46  48  60  63  60  59  51  44  44  42  43  55  79  92 122 146 177 200 203 196 179 164 117  70  87  93 102 151 155 151 136 127 154 171 166 165 165 165 165 165 165
 166 166 166 167 167 166 166 171 151  68  78  77  67  82  76  81  97  76  65  68  62  55  52  45  37  29  34  47  51  51  54  60  56  55  57  57  60  63  64  84  83  62  58  61  60  56  50  50  46  49  58  60  66  96  91  80  74  64  57  57  61  69  82  94 134 160 177 204 212 211 206 195 180 142  97  75  62  72 119 152 149 139 131 160 171 163 163 163 163 162 162 162
 167 167 167 167 167 167 166 174 114  62  82  63  66  66  52  67  75  58  58  54  53  51  42  33  29  29  49  55  59  60  66  68  61  68  70  73  82  85  93  97  83  80  78  80  81  76  71  62  63  67  70  77  92 120 116 103  97  91  83  83  91  99 115 134 163 181 200 213 215 218 214 206 192 167 115  87  77  57  79 131 143 139 144 158 172 163 159 160 160 159 159 159
 167 167 167 167 167 167 168 175  94  64  73  66  64  48  38  37  40  43  54  50  45  39  28  28  34  54  59  60  68  71  78  68  73  85  86  92  96 100 106 105 106 107 103 100 106 109 101  89  87  88  92  94 103 124 133 141 149 144 138 131 138 149 157 166 177 188 202 207 212 219 218 212 203 182 133  98  82  74  60  97 139 123 151 169 170 159 157 156 156 155 154 155
 166 167 167 168 167 168 169 174  95  65  72  65  56  38  31  27  40  68  59  45  40  38  31  38  65  57  57  68  73  88  80  74  93 100 101 101 106 112 118 118 125 128 129 130 132 147 134 130 125 123 120 122 125 141 154 162 171 167 169 167 168 176 183 187 192 195 207 212 213 219 222 216 213 195 147 112  85  72  66  54 114 129 123 166 169 152 152 152 152 152 151 152
 167 169 168 168 168 168 168 167  86  68  80  66  46  30  34  44  74  59  55  61  55  43  38  59  52  51  68  72  82 104  85  95 109 111 112 115 118 125 128 135 141 144 146 151 156 166 169 163 162 160 157 153 155 166 177 180 180 179 180 180 180 185 188 194 199 199 209 218 217 222 224 220 219 206 164 116 108  83  64  66  64 113 127 147 172 149 148 149 147 148 148 147
 168 168 167 169 167 167 169 168  88  72  72  53  44  41  50  59  55  57  63  55  47  43  54  55  55  68  81  78 100 113  83 117 120 120 121 123 128 134 138 149 153 156 159 166 170 171 174 176 175 175 175 173 169 179 182 184 184 185 185 186 188 191 192 195 197 201 207 216 217 223 226 221 222 211 179 136  97 110  91  62  70  69 115 123 164 153 144 143 143 143 143 142
 166 166 166 166 165 165 168 161  81  71  62  54  51  49  55  51  47  50  51  40  39  46  53  57  63  74  89  89 117 113 101 132 127 128 130 131 137 142 148 155 160 163 169 171 175 175 175 175 176 176 177 180 176 180 183 185 186 188 187 188 189 191 194 197 200 202 206 216 216 222 230 228 224 215 179 150 120  86 120  86  58  75  86 115 155 165 138 138 138 138 136 137
 164 165 163 164 166 166 168 156  83  68  49  56  54  71  54  38  48  50  36  27  35  50  59  66  71  81  91  94 121 112 126 139 133 135 139 136 145 149 150 158 164 168 173 176 179 177 176 176 178 180 181 182 181 180 183 183 185 188 189 187 189 191 193 196 200 200 206 213 216 222 231 228 229 220 186 141 132 122  95 118  65  85  87 104 146 153 143 133 133 133 132 132
 161 161 163 161 162 160 162 156  79  57  54  46  53  52  35  46  51  34  24  33  51  60  59  70  83  95  97 108 131 118 142 145 144 145 144 143 149 153 155 158 164 171 173 176 178 175 176 179 177 180 181 179 177 179 184 183 184 189 189 189 191 193 194 195 197 201 204 211 215 225 232 229 232 223 187 146 108 117 132 120 103  64 104  89 146 129 140 138 130 129 130 130
 158 157 158 157 156 156 158 151  73  59  57  38  38  41  42  43  32  26  36  41  47  49  66  83  89  93 104 117 131 122 147 150 149 147 144 147 151 154 154 156 160 170 175 175 178 180 179 181 182 181 183 182 180 179 182 182 183 186 185 188 191 194 192 195 198 201 204 209 213 220 232 232 233 217 186 159 131  90 119 128 128  59  95  90 141 134 129 135 129 129 129 129
 154 153 153 153 152 151 153 144  67  70  53  38  46  41  44  27  24  28  30  34  50  69  75  70  71  90 105 116 133 129 146 151 150 147 143 146 152 155 154 156 161 166 173 174 175 180 181 182 184 181 181 183 186 184 183 182 186 186 187 190 190 192 190 192 197 198 202 210 211 216 228 228 231 219 188 150 152 131  91 119  98  79  72 105 123 144 126 126 128 128 128 128
 150 150 150 148 148 148 150 142  73  66  42  45  41  47  33  23  24  24  30  56  73  58  60  67  78  90  99 117 135 136 148 154 154 151 146 146 151 156 154 153 160 161 166 172 174 176 179 180 179 179 177 178 180 181 182 182 182 185 187 190 192 191 190 191 193 197 199 204 205 211 224 223 224 209 189 145 108 130 120 108  84  73  85 116 114 135 129 126 126 126 126 126
 145 146 144 143 144 143 143 143  94  56  45  47  44  45  27  30  22  28  56  69  53  48  56  66  76  78 102 126 133 141 148 150 152 151 150 151 155 159 155 155 160 164 168 173 175 176 179 181 181 177 174 177 177 178 179 181 182 184 184 187 187 188 186 188 188 190 195 198 202 208 215 221 217 205 183 165 111  75 100 102  91  67  81 118 132 128 127 127 127 127 127 128
 138 139 138 138 137 138 136 139 111  58  51  41  31  31  32  31  34  52  61  56  44  48  55  64  78  89 104 113 125 141 147 151 151 150 151 153 156 158 155 154 160 168 171 172 174 177 179 180 182 182 182 180 173 175 177 178 180 181 183 183 185 189 188 186 186 182 181 190 197 205 211 216 216 202 184 167 145  85 103 115 100  78  87 123 129 129 130 129 130 130 130 131
 135 134 133 133 133 133 132 135 119  73  51  42  43  42  47  44  47  55  58  39  42  55  59  69  73  83  97 108 128 142 148 151 151 149 152 155 158 160 161 163 163 168 171 175 176 176 180 183 180 179 180 180 176 173 175 178 184 185 183 182 186 190 190 189 188 181 178 185 193 200 207 215 218 203 175 155 157 129  81 120 110  90 113 130 130 131 132 132 133 133 134 134
 131 131 130 129 130 130 131 133 125  81  56  63  51  47  53  42  40  53  36  36  46  48  61  66  73  83  98 112 135 146 148 148 152 154 154 158 162 164 167 164 164 167 173 176 175 176 181 183 181 181 181 181 182 178 176 176 184 184 185 186 186 187 189 188 192 187 180 182 192 197 205 214 214 204 169 147 152 161 126  87 120 112 133 137 134 135 135 136 136 137 137 137
 130 129 128 129 128 128 130 130 129  92  64  74  56  42  39  42  48  37  37  39  30  37  52  57  66  80 101 123 137 149 152 152 155 156 157 161 166 169 170 170 171 172 176 174 175 175 179 184 184 183 184 182 183 183 182 184 185 187 187 186 189 193 190 189 194 197 196 195 197 197 204 210 211 203 174 136 143 163 153  96 101 138 144 140 138 140 140 141 141 141 142 142
 128 128 127 128 127 127 128 126 128 121  93  74  65  52  48  53  43  43  40  25  29  45  51  64  90 106 119 136 142 150 157 159 161 162 163 164 165 169 171 172 173 175 177 176 175 178 179 185 188 186 185 188 185 183 184 186 186 187 186 185 191 192 192 194 198 200 199 202 203 200 205 208 211 208 188 150 129 136 111  90 116 152 149 143 143 143 144 145 146 146 146 147
 125 125 125 125 125 126 125 123 129 174 181 101  55  47  42  39  50  54  33  31  41  54  64  92 118 131 135 142 153 156 163 169 171 170 170 170 170 171 171 172 174 173 175 176 177 179 181 183 185 184 186 188 185 183 183 185 187 186 185 186 190 192 195 198 201 204 206 208 211 207 205 207 213 219 213 175 108 110 115 127 163 154 149 147 147 148 148 150 149 150 151 152
 125 124 126 125 126 126 126 123 162 194 180 134  78  63  49  46  65  49  35  44  45  64  92 117 127 135 141 141 150 160 169 173 175 179 180 180 178 177 175 173 171 171 172 176 176 177 176 177 182 186 187 188 187 184 183 184 188 185 186 189 188 189 192 197 201 201 205 210 215 220 219 217 219 229 224 194 116 113 112 127 175 158 152 151 150 151 152 153 154 154 155 156
 128 128 128 128 129 129 127 146 183 145 146 150 112  78  59  57  69  48  48  48  46  69 112 133 138 146 150 148 154 164 174 179 181 182 183 182 178 177 177 175 175 173 173 174 174 172 171 173 179 184 188 188 186 183 180 181 185 187 185 185 180 184 191 195 197 201 204 208 214 225 227 229 227 231 225 210 126 110 130 108 174 164 153 155 154 155 156 157 158 159 159 160
 132 132 131 132 133 134 134 172 153  72  75 137 121  95  86  76  72  53  52  48  51  83 126 145 150 155 156 149 159 172 176 178 178 175 171 166 167 169 173 173 171 174 174 173 174 173 170 172 174 177 184 178 179 179 173 173 180 179 175 182 186 186 192 194 195 200 202 205 212 223 226 228 238 234 222 221 143 108 143 138 180 172 157 160 160 161 160 161 162 163 163 164
 135 135 137 137 138 137 151 171 102  45  77 107 121 104  95  83  71  57  61  66  80 111 141 153 154 156 157 154 162 164 160 161 153 144 138 134 137 142 145 153 155 161 167 170 168 162 164 168 170 171 171 169 175 179 171 159 171 173 170 176 183 184 189 192 194 194 194 197 201 209 222 228 237 242 228 228 168 139 143 165 197 173 162 163 165 164 165 165 166 166 167 167
 140 140 141 141 142 139 164 154  68  74 126 112 116 108  93  82  77  76  75  84 109 125 145 158 161 160 161 164 151 137 133 123 109 108 108 112 114 115 109 107 110 119 130 144 148 146 148 153 162 164 159 160 169 176 169 154 160 160 159 165 167 162 167 171 173 175 173 172 173 181 201 221 232 235 234 232 187 166 171 182 235 186 162 166 167 168 168 169 169 169 170 170
 145 144 144 145 146 148 174 126  60 114 143 130 119 112 101  94  73  80  86  97 119 136 153 160 165 167 159 147 128 111 103 100  92  90  85  86  89  86  78  69  66  67  74  90 109 124 129 138 146 155 151 153 162 168 162 148 151 146 146 148 139 118 112 108 117 126 139 137 134 144 165 183 198 215 232 234 207 182 190 205 238 206 165 169 170 171 171 172 173 174 173 173
 148 149 150 149 149 158 171  92  77 145 146 139 134 126 111  80  73  96  98 107 128 146 160 164 165 165 153 129 111 105 103 105 107 110 109 104  99  94  87  80  74  68  62  67  76  88 103 114 123 140 138 146 161 165 157 135 140 130 116 110 103  87  74  68  81  88  91 104 119 126 133 151 160 179 220 238 212 191 186 197 186 195 176 172 173 173 174 175 175 176 175 176
 153 153 153 154 154 165 156  81 121 160 138 140 153 133 104  79  83  90  97 132 135 148 162 168 167 160 151 136 128 131 139 140 138 138 135 137 137 132 125 118 111  99  88  81  73  73  85  97 110 124 123 136 158 166 157 128 128 123 100  91  83  79  77  74  79  82  83  92 104 117 125 138 146 157 206 237 215 196 188 150 129 188 179 176 177 177 177 178 178 178 178 179
 158 157 158 159 158 169 147  90 151 144 123 129 124  88 103  99  91  95 119 134 132 153 162 164 167 161 148 139 136 148 151 130 102  80  68  62  57  50  50  52  54  64  69  70  78  74  74  83  97 106 112 135 158 165 155 125 106 102  93  88  83  80  79  87  99 113 128 134 141 151 165 183 165 158 201 235 216 188 193 136 125 192 178 179 179 179 179 180 180 180 180 181
 162 162 162 163 162 171 141 114 155 125 114 114  95  64  94 105 105 121 139 132 134 161 164 164 165 160 148 139 132 127 109  70  52  49  55  42  31  33  37  52  95  63  65  68  70  76  75  77  80  93 117 144 161 173 163 135 111 102  93  84  68  55  37  46  50  51  65  83  88 111 152 205 200 176 205 237 223 191 194 168 134 192 181 180 180 181 182 181 181 181 181 181
 166 166 167 166 166 171 146 128 160 119 107 116 113  92  94 122 126 131 125 128 146 162 166 169 168 159 156 147 135 116  90  82 102 117 112 110 107  93  82  96 115 103  82  69  73  88  85  86  87  99 130 153 170 180 179 151 127 113  99  72  60  77  60  51  49  40  75  92  67  71  76 131 192 183 209 235 231 204 201 217 185 190 181 182 182 183 183 183 183 183 183 183
 169 169 169 169 170 174 158 130 160 121 109 116 113 102 107 149 145 135 114 129 150 160 164 167 169 166 160 156 154 147 136 129 125 125 125 131 131 130 130 126 122 119 113 103  83 110 115 104 103 106 139 167 180 186 189 164 131 122 106  69  92 109 110 107 108 104 126 133 135 169 145 122 161 187 210 232 237 216 204 208 213 191 181 183 184 184 183 183 184 184 185 185
 172 172 173 173 173 175 169 132 160 129 106 117 116 105 117 159 159 122 116 130 146 164 167 167 167 164 161 161 162 165 162 152 134 111 106 111 117 121 126 121 110  96 101 119 124 131 134 116 109 116 148 174 187 191 194 177 138 141 128 121 117 107 115 129 137 142 148 155 153 171 183 176 179 193 208 230 239 219 202 182 200 192 184 184 184 185 185 185 185 185 186 186
 175 176 176 176 177 178 178 135 154 143 103 118 133 118 134 167 167 124 124 126 147 164 166 167 170 168 167 168 169 169 162 154 146 140 126 106 100  97  95  95  96 102 111 114 120 128 132 118 113 129 167 184 188 192 196 191 155 142 140 130 113  98 101 113 120 127 130 133 140 172 188 194 195 202 213 230 240 220 204 178 190 193 185 185 186 186 186 186 187 186 187 186
 178 178 178 178 179 179 182 147 143 158 112 107 131 135 143 168 163 136 121 121 147 158 164 168 172 168 166 161 163 160 163 164 161 153 146 139 134 129 129 132 132 134 134 132 138 139 135 126 122 149 179 185 189 191 194 196 180 150 146 136 134 130 118 110 106 106 115 129 153 164 181 201 203 202 214 233 239 223 194 180 197 195 185 187 187 187 187 187 188 187 187 186
 180 180 180 180 181 181 184 162 137 163 140 103 114 133 141 166 155 123 104 124 149 157 161 167 167 169 166 163 164 163 155 152 158 159 158 155 157 156 155 151 151 150 152 154 154 146 134 131 138 160 174 185 188 189 193 198 207 171 166 164 154 153 153 153 148 146 149 153 155 171 182 191 206 204 209 231 237 224 174 161 206 196 186 188 187 187 187 187 187 187 187 187
 182 181 182 182 183 181 185 173 142 145 164 140 144 145 137 162 152 116 100 119 143 157 162 164 165 165 167 166 160 157 154 162 164 161 162 160 162 161 157 155 157 159 161 159 153 142 133 138 152 157 170 185 188 188 189 198 201 177 173 177 178 170 165 166 166 172 176 179 174 168 179 192 201 205 203 223 238 217 174 152 205 196 186 187 188 187 187 187 187 187 187 187
 184 184 183 183 184 184 186 181 157 132 148 170 187 146 116 159 149 119 108 120 133 153 163 163 164 166 163 159 156 163 165 164 169 170 166 165 167 166 162 165 163 166 164 154 147 136 135 148 163 161 166 180 186 190 189 203 196 181 178 169 179 182 175 169 172 175 178 178 181 179 176 190 199 201 208 222 235 212 157 154 214 193 186 185 187 185 186 185 185 185 185 184
 184 185 185 184 184 185 186 185 172 157 162 183 181 171 155 148 137 112 120 117 120 144 158 162 163 162 161 162 160 164 163 165 172 173 173 173 175 176 173 171 168 166 162 153 144 137 144 159 171 169 168 179 185 187 192 212 208 191 182 176 181 172 177 181 177 179 182 183 183 186 186 186 193 202 212 225 235 209 137 173 220 189 182 184 184 184 184 184 184 183 183 183
 185 186 187 186 186 185 186 187 178 191 193 181 171 175 170 131 132 121 122 122 125 144 150 157 161 159 159 162 162 162 166 169 174 174 175 177 177 178 176 170 168 163 161 157 151 151 156 165 175 177 173 179 184 184 194 216 208 193 183 186 184 169 177 189 186 186 187 186 189 186 188 189 187 201 211 223 230 196 165 198 213 192 181 182 182 182 182 182 181 182 182 182
 186 187 186 186 187 186 186 188 179 180 178 174 170 162 148 128 135 131 123 142 142 141 145 149 153 159 156 154 162 167 168 168 170 171 174 176 176 175 174 174 170 168 164 156 146 149 158 163 174 181 178 178 177 180 191 215 213 191 187 187 187 186 188 188 189 190 189 190 186 186 185 190 189 196 210 214 221 190 192 214 198 195 179 181 180 179 180 180 179 180 180 180
 187 187 187 187 187 187 187 188 186 161 152 164 166 158 148 132 132 136 129 148 142 137 142 142 145 150 151 154 159 163 161 161 166 169 174 176 177 176 175 175 172 169 159 142 133 146 159 171 185 176 172 177 180 181 190 208 222 207 193 193 190 185 187 189 190 188 190 191 187 185 185 186 191 194 204 204 214 198 196 225 220 199 178 180 181 179 179 179 178 179 179 179
 188 187 189 188 188 188 187 188 189 181 149 137 139 135 123 112 121 143 136 150 145 145 145 136 138 140 145 151 152 153 156 158 160 166 170 175 176 174 171 171 167 159 153 148 148 157 163 177 172 160 163 173 183 185 189 201 217 226 200 180 195 189 187 188 189 189 190 192 191 191 188 187 187 191 199 197 204 199 209 218 241 198 176 178 177 176 176 177 176 176 176 176
 188 187 188 187 188 188 187 187 186 189 185 169 143 116 102  83 116 143 137 146 149 146 139 131 136 137 139 145 149 151 148 154 157 161 164 168 171 170 168 160 151 147 147 145 158 171 171 157 154 154 157 169 184 182 191 202 202 218 219 161 173 190 189 189 188 189 190 190 191 193 190 186 183 182 186 191 205 177 192 207 236 193 172 174 174 173 174 173 173 172 172 173
 187 187 187 187 187 187 186 186 186 185 186 185 179 148 101  71 117 144 145 151 146 144 142 138 135 135 136 139 143 147 149 150 152 157 161 161 163 161 154 143 136 137 131 139 168 185 175 153 149 152 160 166 177 184 194 201 190 192 223 185 145 171 186 188 186 187 187 187 184 188 190 186 182 178 176 191 198 167 183 201 222 187 169 171 171 170 171 169 169 169 169 169
 186 186 186 185 185 185 184 184 184 183 184 180 177 159 103  74 124 144 150 155 142 146 142 140 136 134 133 136 141 146 146 147 148 148 150 156 156 151 143 133 133 141 118 127 162 171 168 162 159 163 178 178 176 186 202 213 206 196 214 216 158 151 172 185 183 183 184 183 183 186 186 184 179 175 169 195 175 149 163 189 204 179 170 167 167 168 167 166 166 165 165 165
 184 184 183 183 183 183 182 181 181 181 181 179 176 165 115  79 126 139 148 147 148 151 141 141 144 138 131 136 140 142 144 142 140 144 145 147 147 145 134 129 143 150 133 116 135 143 154 165 173 183 185 181 180 185 196 221 217 205 209 220 173 155 155 170 177 179 180 180 179 181 183 182 179 169 164 194 152 133 160 177 172 164 164 164 164 164 163 163 163 162 162 162
 182 182 181 181 181 181 180 180 179 179 179 178 175 169 120  77 125 138 133 155 149 146 140 143 142 139 132 134 135 139 138 136 135 140 143 141 140 137 127 138 148 148 144 113  98 103 117 141 157 175 166 165 166 175 186 215 228 203 182 180 166 171 156 159 169 172 176 173 174 176 181 178 178 165 171 201 175 162 170 165 161 161 159 160 160 159 159 159 158 158 158 158
 180 180 180 180 179 179 178 178 178 178 178 176 174 174 124  74 125 143 144 157 146 139 134 143 142 131 131 129 130 135 135 133 133 134 129 125 132 127 137 149 150 142 139 131  95  58  44  72 114 123 128 137 140 141 159 188 201 152 127 148 163 174 161 151 164 173 173 172 168 169 173 179 176 170 177 205 173 158 159 158 157 157 157 157 157 155 156 155 155 154 154 155
 180 179 178 178 177 177 175 176 175 174 175 172 172 172 128  81 127 147 155 150 132 134 144 145 137 133 131 126 131 131 130 131 130 135 135 133 134 135 142 146 147 145 136 132 120  94  64  48  53  78  95 109 116 110 123 147 112  59  93 146 171 179 172 156 159 170 176 172 168 163 164 177 176 175 185 200 163 154 156 156 155 154 153 153 152 152 152 152 151 151 151 152
 177 176 176 175 174 173 173 172 172 171 171 170 170 165 131  87 131 153 148 157 134 132 142 139 133 133 129 130 128 127 124 122 127 133 139 140 139 135 131 138 142 140 137 125 117  96  69  76  62  48  58  78  81  83  92  98  83  95 141 161 173 178 178 163 153 166 175 169 165 164 161 174 177 181 192 199 155 152 153 152 151 152 151 151 150 150 150 150 149 149 149 149
 173 173 170 171 170 170 169 169 168 168 167 167 169 164 126  94 133 163 157 153 132 141 136 129 134 128 126 126 124 122 122 124 134 139 137 131 116 126 128 129 136 137 135 118 107  98  82  90  78  69  49  51  43  55  84  90 100 114 138 158 176 179 178 168 153 157 168 168 158 162 156 166 175 181 197 195 148 150 150 150 149 148 149 149 148 148 148 148 148 148 147 148
 170 170 169 168 167 166 166 166 165 165 164 164 162 160 120  99 134 165 166 152 143 142 131 129 133 126 124 120 122 121 120 127 138 134 119 108 107 116 125 129 132 128 128 111  99  98 106 111  93  87  82  70  59  68 102  93 102 118 146 156 163 173 175 169 160 156 162 171 158 159 144 158 166 180 197 191 144 149 150 148 149 148 148 148 148 147 147 147 148 147 146 147
 165 166 165 164 164 163 162 162 161 161 161 159 161 155 121 106 136 166 157 144 149 133 124 127 124 124 119 116 121 122 115 122 134 121 114 111 107 117 117 126 132 118 111 101  84 106 109 104 104 111  94  73  81  76  91  98 118 122 147 154 152 159 164 159 154 161 165 169 162 153 134 153 169 174 194 183 143 149 148 148 147 147 147 147 147 146 147 146 146 145 145 146
 163 161 162 161 161 157 158 157 156 156 157 156 159 155 132 127 151 167 158 145 140 119 117 118 118 121 115 115 116 116 112 122 131 118 109 103  93 106 111 108 113 100 100 105  95 106 108 107 113 111  97  92  93  88  95 112 111 121 129 142 151 150 146 144 131 148 173 176 168 141 143 157 161 179 192 164 144 146 148 146 146 146 146 146 146 145 145 144 143 143 143 143
 159 159 158 157 156 155 155 153 154 153 153 153 157 158 142 167 187 158 166 150 135 113 118 124 120 120 121 113 117 113 108 121 133 121 102 100  83  76  85  89  96 115 117 124 134 126 126 133 134 126 118 111 103 108 117 115 124 120 122 138 135 135 133 125 136 148 177 188 162 134 143 155 163 170 192 157 142 144 144 144 144 145 144 143 143 143 142 142 141 141 141 141
 156 155 154 154 152 151 151 151 151 150 150 150 152 152 167 225 203 160 158 145 129 115 115 117 117 120 123 112 111 113 111 119 128 118  96  92  79  59  53  63  81 101 105 101 104 101  98 102 107 110 120 130 119 129 136 132 130 124 117 119 122 140 133 112 126 146 158 186 157 129 145 157 169 177 187 149 142 143 142 142 143 142 141 142 142 141 141 142 141 140 141 141
 152 152 150 150 149 149 148 147 148 148 147 148 150 142 197 247 211 152 133 135 128 118 114 104 114 111 121 116 107 116 114 119 128 130 116 104  89  74  67  51  30  25  36  47  33  55  66  63  65  61  69  89  91  89 100 122 128 137 137 122 120 137 123 113 111 123 148 185 148 133 151 158 175 189 179 140 142 142 142 142 141 143 140 141 142 141 141 140 141 140 140 141
 150 149 149 148 147 147 147 145 146 146 146 148 146 146 223 246 216 151 137 117 119 118 117 100 111 102 113 119 107 109 116 116 126 127 131 114  98  98 106 102  82  56  55  54  15  35  80  72 102 108  96  82  84  75  59  63  80  98 116 120 107  95  72  87  97 115 144 176 133 134 145 157 162 183 176 137 142 141 142 142 142 141 141 141 140 141 141 141 141 141 141 141
 148 147 147 147 147 147 146 145 144 145 145 145 144 161 238 240 224 153 127  92 118 118 115  97 100 112 107 114 112 106 110 104 113 123 124 112 103 106 114 114 118 116 110 112 103  89  92  91 102 115 107  99 115 101  66  42  16  38  63  74  88  82  58  76  95 117 158 164 131 134 138 155 159 174 160 140 142 142 142 143 142 143 142 141 142 141 141 141 141 141 142 141
 147 147 147 145 146 146 145 145 145 143 144 147 123 143 247 237 234 160 119  95 103 114 125 107  94 105 105 107 114 107  96  90 105 122 119 118 114 115 117 115 117 122 123 124 126 129 123 111 115 108 104  98  93  80  81  71  75  95 108 119 126 124  95  88 113 131 167 144 125 124 135 147 159 170 144 142 142 143 143 142 143 143 141 142 140 141 142 141 141 141 141 141
 146 146 146 145 146 145 144 144 144 143 145 140  63 135 253 236 238 169 132 106  85  96 102  99  91  87 104 109 111 101  90  85  98 106 106 113 115 113 118 120 119 120 123 124 123 125 134 136 132 127 118 109 109 114 120 130 143 150 154 149 145 136 121 117 124 143 168 131 125 126 131 149 165 166 140 143 142 141 142 142 142 142 142 141 141 141 141 141 141 141 140 140
 144 144 144 145 144 143 142 141 141 142 147  92  36 127 252 234 240 178 139 104  77  82  85  92  89  98 102 101 105  97  96  85  91 103 105 105 113 111 114 124 125 123 120 122 120 121 124 129 130 127 128 130 131 135 144 146 148 151 149 142 147 139 132 126 130 151 152 127 135 140 132 157 183 153 140 143 143 142 143 143 142 141 142 141 142 141 142 142 141 142 142 141
 141 142 142 142 141 142 141 140 141 147 111  51  34  97 245 236 241 195 140 122  74  64  85  96  94  86 100 102 104 108  83  70  94 102 106 108 120 122 115 119 128 122 113 112 109 107 103 112 111 102 107 108 110 109 123 131 128 128 139 141 145 143 135 131 135 149 143 136 143 142 143 158 167 139 141 142 142 142 143 142 141 141 142 142 142 142 141 141 141 141 141 142
 141 140 141 141 141 141 140 140 146 124  63  48  37  60 223 240 237 223 144 128  91  67  69  89  98  88  89  94 100 103  74  87 100 108 113 120 127 129 121 118 124 122 116 101  94  92  85  93  86  83  81  84  93  95  99 104 107 115 126 143 145 142 128 134 134 138 138 148 137 136 142 161 153 141 142 144 143 142 143 143 143 143 144 142 142 143 142 141 143 142 142 142
 142 141 142 142 141 142 142 147 131  74  52  48  42  33 185 243 231 241 175 126 113  68  53  69  92  88  84  81  97  99  95 100  99  95 107 128 128 128 114 117 121 113 119 107  93  99  90  76  74  80  79  82 100 101  92  98 123 132 146 151 151 139 124 136 147 140 135 137 132 134 145 151 140 143 143 143 143 143 143 143 143 142 142 142 143 142 143 143 143 143 143 143
 142 142 141 142 142 141 147 132  79  57  51  46  41  22 135 244 230 235 225 140 123  85  65  61  71  85  75  78  94  98 108 102  97  99 106 117 119 118 113 117 128 129 126 111 109 111 104  88  92  93 107  95  93  92 109 122 137 149 154 155 149 137 129 136 141 140 134 139 140 161 167 140 143 143 143 143 143 143 144 143 143 143 144 143 144 143 144 142 142 142 143 142
 142 141 143 142 143 147 129  75  54  52  50  44  39  24  84 233 231 227 241 203 125 109  85  73  68  70  74  78  79  86  95  99 104 100  97 109 108 113 123 120 134 136 129 128 129 121 111 103 102 103 105 107 100 101 119 135 143 150 149 155 143 138 138 140 140 142 125 146 163 153 152 142 143 142 143 143 143 142 142 143 143 143 143 144 144 143 143 143 143 143 143 143
 142 143 145 145 147 125  69  49  48  49  47  42  39  29  47 207 234 229 229 243 181 123 111  81  58  51  64  60  66  78  95 100 100  95  97  99 107 108 103 113 131 130 128 138 138 132 132 130 122 113 113 121 119 127 135 147 159 156 156 146 140 140 148 152 132 140 136 153 158 146 140 143 142 142 142 143 144 143 143 144 143 143 144 144 143 144 144 144 144 144 144 144
 146 141 132 129 116  72  52  50  50  50  45  42  38  32  23 165 237 233 226 235 239 167 118 103  73  56  53  48  67  67  75  98  98  94  87  93  99  99  96 108 122 121 122 134 142 145 139 135 141 131 131 135 136 141 145 156 161 159 156 148 139 123 149 158 139 148 149 149 144 143 142 143 143 143 143 144 144 144 144 144 143 144 145 144 144 144 145 145 145 145 144 144
 114 100  91  87  79  66  63  60  58  52  44  41  37  34  18 116 235 233 229 228 240 234 138  95  98  85  63  56  53  61  72  78  87  80  83  91 106 103  93 104 114 115 123 119 132 141 139 138 149 149 141 140 146 150 154 156 156 152 148 146 138 123 141 159 129 135 192 157 140 144 143 144 144 144 145 144 144 144 144 145 145 145 146 145 145 144 145 145 145 146 146 146
  90  92  93  87  77  74  71  64  56  47  41  39  35  33  21  67 220 234 231 227 231 243 219 108 106 104  80  73  56  56  57  60  69  77  91  74  83 102 102 111 110 106 127 132 138 134 138 141 141 144 139 143 158 153 151 151 146 146 153 145 139 130 133 136 122 137 213 205 137 145 145 145 145 145 145 145 145 145 146 146 146 145 146 146 146 145 146 146 146 147 148 148
  60  68  79  74  67  63  54  48  43  40  38  38  36  34  28  35 188 237 232 229 227 232 247 200 102 102  95  84  68  60  47  43  62  86  73  65  62  86 100 106 110 115 129 143 124 133 140 141 140 144 140 132 145 145 148 150 144 134 141 146 134 129 127 129 143 174 188 231 162 141 146 145 145 146 146 146 146 146 147 147 146 147 147 147 147 147 147 147 148 148 148 148
  76  72  66  61  55  50  41  38  37  37  36  36  35  34  30  19 148 238 233 231 227 228 233 247 185  96 100  95  88  78  54  46  52  66  74  80  61  85  90 102 107 116 124 124 107 116 132 132 143 144 140 130 129 135 149 142 134 129 140 124 107 121 114 149 175 152 180 213 212 139 148 147 146 146 147 147 147 147 147 148 148 148 148 148 148 148 149 148 148 148 149 149
  56  57  58  53  49  45  40  37  37  36  36  36  35  34  32  16 101 235 233 231 230 228 229 235 245 174  96  99  98  91  80  72  60  56  60  67  70  79 100 113 109 100 113 103 110 116 114 119 125 134 132 128 122 127 134 136 129 119 125 104 110 112 129 173 168 136 171 197 231 170 142 148 148 148 147 148 148 149 148 149 148 149 149 149 149 149 150 150 150 150 150 151
  40  42  52  50  45  42  39  38  37  37  36  36  34  33  31  21  60 219 235 232 232 231 228 231 237 245 164  93 103  98  96  86  70  68  66  52  67  61  68  93  95  96 100 101  91  96  97 104 108 118 112 108 120 122 128 123 111 108  97 112 135 120 156 176 142 145 156 194 216 213 140 148 148 150 149 149 148 150 150 150 150 150 150 150 150 150 150 151 151 151 151 152
  44  40  47  45  41  41  40  39  38  38  37  34  33  33  31  27  31 187 239 232 231 231 230 231 233 238 242 155  88 101  98  96  88  79  70  72  61  58  57  69  82  79  91  88  82  84  89 102 112 107 106 103 118 107 104 107  99  82  95 111 137 153 169 158 124 153 156 184 201 233 171 144 150 150 150 150 150 151 151 152 151 151 151 152 151 151 152 152 152 153 153 154
  41  38  44  44  44  43  41  40  37  36  35  34  33  33  32  31  17 144 241 232 231 232 233 232 232 234 239 239 144  90 101 102 103  94  82  84  81  75  68  59  74  93  78  81  76  76  73  70  91  92  94  87  98  99  92 100  80  57  91 120 151 158 167 129 120 160 165 183 198 221 217 145 152 151 151 152 152 152 152 152 153 152 153 153 153 153 154 155 154 154 155 156
  38  36  41  41  40  38  37  37  36  34  35  33  33  32  32  31  16 103 235 232 231 232 233 234 234 234 235 242 236 139  92 102 103  99  95  92  95  87  85  81  76  72  69  68  67  74  69  58  69  76  88  73  75  74  76  84  98 106 135 152 156 158 154 105 123 161 173 189 196 207 241 173 147 154 154 154 155 154 154 155 155 154 155 157 155 156 156 157 157 157 158 158
  39  35  40  38  34  33  32  34  33  31  31  33  32  32  32  32  20  66 219 230 230 230 232 235 235 234 235 235 244 231 127  94 105 101 100  97 101  96  94  91  85  84  83  77  81  75  72  72  78  67  75  72  65  92 111 135 153 161 155 152 155 157 131  95 125 160 181 195 194 207 231 222 150 156 156 157 156 156 157 157 158 158 158 158 159 159 159 160 160 160 161 162
  40  35  38  38  34  33  32  32  31  31  32  33  32  32  32  32  28  33 184 231 226 227 229 232 235 237 236 237 238 246 218 119 102 109 109 103 103 104 102 103  92  98  98  97  96  94  95  99  99  95  97 105 117 146 169 170 159 153 151 154 153 149 110  91 119 161 186 191 195 211 215 246 185 153 159 159 160 160 161 159 160 161 161 161 161 162 162 162 162 162 162 162
  38  35  38  40  36  33  33  32  32  32  33  33  33  32  32  32  31  18 132 229 225 225 226 228 232 235 237 237 238 240 246 208 124 114 119 116 112 110 105 109 106 104 106 102 104 111 111 113 114 115 114 123 125 147 166 162 152 150 151 154 152 131  99  95 118 163 186 190 200 211 216 233 233 161 160 162 162 161 162 161 163 163 162 162 163 162 163 163 163 162 163 163
