P2
# Generated by OpenCV 4.2.0
92 112
255
  37  36  37  38  39  39  39  38  35  31  30  30  30  28  27  30  32  35  36  37  36  35  33  32  34  36  39  39  39  40  39  37  37  34  32  27  31  29  33  46  45  27  32  45  31  33  35  33  38  41  42  42  37  46  42  33  38  36  35  36  37  37  38  40  41  42  40  41  41  42  42  45  47  47  45  43  46  49  49  50  45  38  39  43  45  44  45  42  42  43  44  47
  35  36  38  39  39  39  39  37  32  30  30  29  31  30  29  31  33  35  37  36  34  33  32  33  33  35  37  37  37  38  38  35  30  25  29  43  34  38  60  80  79  73  80  77  65  59  52  46  47  47  42  41  51  53  42  40  36  34  37  36  35  35  35  39  41  42  41  41  41  43  42  44  45  44  42  39  43  47  47  44  42  39  42  47  49  48  47  48  45  43  44  43
  35  37  39  39  39  40  38  34  31  30  29  29  31  32  31  33  33  35  36  35  33  32  33  33  34  35  36  36  35  35  31  30  36  47  70  98 100  95  95  94  87  87  98  85  80  81  81  72  64  52  45  40  51  48  33  37  40  39  36  38  37  36  37  41  42  43  43  40  41  42  43  46  43  41  39  38  39  40  41  41  41  40  44  50  52  52  52  50  47  44  43  43
  37  38  39  40  40  39  37  33  32  31  30  31  33  32  32  33  35  37  37  36  33  32  32  32  33  35  36  36  33  33  55  80  99 105 101  88  89  91  79  70  67  73  75  74  85  76  65  62  64  59  58  44  49  39  30  19  27  31  39  43  42  39  39  43  45  44  43  42  42  40  41  43  42  41  40  39  39  39  40  43  43  44  45  46  49  51  49  48  46  44  43  44
  37  37  39  40  39  38  36  33  31  31  32  33  31  31  34  35  36  37  36  35  35  31  30  31  33  33  44  73  82  93 111 111 108 110 104 102  90  85  94  95  88  86  72  59  67  71  76  59  45  59  66  73  53  45  46  34  20  17  18  18  29  37  41  42  44  44  43  41  41  40  42  42  42  42  40  39  39  39  41  46  48  47  45  48  47  47  46  44  43  41  41  42
  36  36  38  38  37  38  36  31  30  31  32  33  31  32  33  35  36  36  35  34  30  33  50  72  86  80  93 107 102  88  77  89  97  94  97  98  85  83  87  92  94  82  79  74  80  95  81  72  66  69  45  27  38  43  40  38  36  31  23  13   8  14  27  37  42  43  40  39  40  42  42  42  43  42  41  39  37  40  45  46  46  48  48  46  45  46  44  40  39  39  39  40
  38  36  36  37  36  37  37  34  34  34  34  33  32  32  33  34  33  35  33  32  50  66  81  90 101  99 102  86  87  86  74  64  69  75  86  81  82  85  80  76  66  69  64  59  70  78  85  92  81  81  82  50  25  20  26  32  37  35  44  38  27  14   8  14  25  37  38  38  40  41  43  45  46  44  43  42  38  41  44  46  45  46  45  42  40  38  39  38  38  40  41  44
  38  36  35  36  34  35  36  37  37  37  36  35  34  34  34  35  34  32  33  42  69  78  66  53  58  60  71  81  82  72  76  78  72  61  55  61  57  61  62  64  51  56  68  58  50  53  53  58  69  88  87  82  92  65  47  31  31  32  34  40  41  37  28  11   8  15  31  37  38  39  40  44  45  44  43  41  39  40  42  45  46  45  44  41  36  34  34  38  42  43  44  43
  37  36  36  35  35  37  39  39  39  39  38  38  37  35  36  33  31  43  62  73  87  90 100  98  74  52  50  54  77  75  58  65  66  73  57  51  53  44  38  53  51  37  45  51  54  47  45  42  43  64  62  68  79  97  88  76  40  27  27  30  34  29  36  32  27  14  12  26  37  39  39  42  44  44  42  41  41  40  39  42  45  44  43  39  36  35  35  39  42  44  45  44
  37  36  34  34  36  38  39  39  41  40  42  41  41  37  40  49  61  75  82  84  82  75  79  93  85  70  53  43  37  74  66  54  59  58  73  63  39  60  55  36  53  42  31  47  49  44  57  48  29  43  42  46  43  51  66  61  54  41  28  24  21  28  35  26  21  26  17  16  30  38  39  42  43  44  42  41  41  39  38  41  43  42  42  40  39  39  39  41  44  46  45  45
  36  35  33  33  37  37  39  41  44  43  45  44  41  43  71  78  63  62  77  68  73  62  70  67  69  88  76  55  39  48  78  67  51  47  44  68  67  50  55  51  53  50  40  47  42  35  28  51  45  32  34  28  28  29  35  54  46  28  34  36  33  24  28  33  26  18  14  14  20  33  40  40  42  43  42  41  40  38  36  38  38  40  41  44  45  42  42  45  45  45  44  45
  35  34  33  33  35  38  40  44  45  45  47  45  42  45  58  49  50  49  56  69  48  56  51  53  62  66  66  75  58  53  52  69  69  40  32  29  62  76  59  50  50  47  37  45  33  35  25  27  44  36  32  27  25  22  15  18  46  31  23  32  35  34  21  18  20  26  22  12   9  20  37  39  40  42  46  45  42  41  39  37  36  37  46  53  58  60  59  58  56  54  54  52
  35  34  34  33  35  38  41  43  44  45  46  46  47  58  58  66  70  66  69  75  76  68  60  51  56  65  68  57  49  57  66  50  63  59  33  20  17  46  62  46  40  50  40  28  39  37  25  21  24  46  37  24  18  19  14   6   6  29  27  23  27  28  28  26  19  14  18  18  11  10  22  39  41  44  47  48  48  45  42  45  50  54  64  74  75  77  83  79  73  72  73  71
  36  35  34  35  36  38  41  41  43  41  42  44  47  57  57  63  70  66  47  50  42  47  47  56  52  52  67  59  60  48  68  55  43  52  47  26  15  14  45  50  32  30  43  20  23  34  24  13  30  42  37  20  20  15  15  11   7   6  22  23  23  22  24  21  18  19  13  15  15  13  18  24  42  44  47  49  49  51  59  69  71  71  81  89  87  93  99  96  89  91  91  89
  37  35  35  37  38  39  42  41  44  49  49  61  66  73  72  76  81  70  63  75  67  54  52  47  45  38  53  57  65  55  50  63  44  43  55  45  23  13  20  41  34  19  31  34  20  25  30  14  20  23  35  20  16  18  16  12  12   7  13  17  16  24  19  22  20  10  14  12  12   9   7  11  32  43  49  50  56  71  81  86  84  82  91  97  95 100 110 106 101 106 108 104
  38  37  37  37  39  41  41  41  44  57  66  75  73  72  84  71  63  54  56  61  63  78  75  69  57  47  43  43  51  51  32  51  63  39  40  47  34  22  13  24  36  21  18  33  23  19  36  21  10  19  30  20  13  22  22  16  17  11  13  20  18  21  20  18  26  25  10  12   8  12   7   7  27  46  50  61  79  92  96 100  94  90  97 101  99 106 117 113 109 115 119 113
  39  39  38  38  40  44  43  42  41  44  48  54  51  60  63  56  48  52  51  61  67  62  67  63  59  62  51  35  37  40  42  44  68  57  38  37  47  28  21  19  28  30  19  29  24  16  32  25  11  20  27  26  20  22  29  27  27  25  30  28  22  20  22  16  14  25  21  12  10  11   5  15  30  39  56  88  99 107 106 106 100  94  98 100  95 103 113 110 106 114 116 111
  39  39  40  40  43  45  45  42  40  43  54  47  45  46  47  38  36  38  31  39  56  73  67  65  57  50  69  63  46  48  43  36  44  63  42  33  42  44  34  28  28  33  24  31  33  20  30  35  21  23  34  34  30  35  40  44  50  49  58  53  45  39  31  24  13  17  15  11  10   7   6  10  19  24  39  74 115 116 110 107 103  97  92  85  76  88 101  96  98 106 107 100
  40  40  43  44  47  49  50  46  42  51  45  32  40  50  53  50  46  40  46  31  35  60  70  64  54  50  43  69  69  63  60  45  39  50  51  38  46  54  48  52  41  37  35  36  39  33  43  43  34  36  46  47  46  54  56  60  82  87  94  86  76  67  57  44  28  24  21  11   9  10   9  12  20  32  27  38  76 117 116 109 100  78  65  61  64  83  97  95  97 102  99  88
  40  42  45  49  51  52  54  48  50  60  56  62  53  54  64  66  56  52  62  69  65  55  57  69  65  65  60  60  80  67  66  65  55  56  60  59  57  68  68  83  71  60  61  56  51  51  62  61  57  66  68  74  77  86  89  98 113 111 111 113 110  91  87  77  63  43  28  30  21  12  16  26  25  31  36  30  34  67 113 104  73  42  49  58  63  82  92  91  94 100  95  83
  41  44  48  52  54  58  56  51  58  59  64  67  68  58  52  53  44  43  42  41  51  63  67  67  72  77  83  80  87  83  69  67  68  66  71  76  82  97  99 102  98  89  85  83  79  85  93  97  91 100  98 100 113 125 122 127 130 124 121 120 118 112 111 105  83  59  37  28  41  40  23  29  40  31  39  38  34  22  68  81  41  34  48  55  59  78  89  87  91  99  94  82
  42  44  50  54  56  59  58  58  57  58  67  63  50  44  43  33  24  30  25  35  58  86 100  97  96 101 107 108  96  94  88  78  72  78  83  98  91 129 126 120 124 122 115 112 114 118 124 131 125 127 132 132 142 146 143 138 135 137 134 128 124 127 123 121 106  77  60  39  36  59  52  22  33  44  33  45  36  24  31  42  36  37  49  55  58  74  83  80  87  95  90  78
  42  45  49  54  57  59  60  56  54  57  63  47  51  38  37  27  24  15  20  65 115 138 144 152 154 150 142 140 137 114 107  95  92  92  98 113 124 121 137 146 156 158 156 146 154 159 154 153 153 151 158 159 156 152 152 144 145 144 140 135 135 131 128 127 123  98  64  61  44  46  80  31  26  48  35  48  42  21  27  34  38  39  48  53  56  70  77  76  83  91  86  76
  43  46  50  57  59  60  60  56  60  67  53  48  55  38  37  33  30  29  79 134 156 163 169 170 169 172 174 173 175 157 145 134 132 128 125 134 145 137 137 158 174 173 176 177 176 176 177 171 168 167 170 166 163 161 156 154 153 150 143 143 137 133 135 133 130 114  80  70  67  36  69  60  23  38  44  35  45  26  23  30  37  41  48  50  54  68  74  74  82  90  86  76
  43  48  51  57  60  63  61  55  68  65  50  56  42  40  37  40  44  76 135 157 164 171 179 183 183 184 186 187 196 192 184 182 177 165 156 157 164 168 164 168 180 177 178 181 181 180 184 181 174 174 173 170 168 166 158 152 151 151 145 143 144 140 137 136 137 124  93  61  74  58  45  85  33  39  41  40  36  35  21  25  37  42  49  48  55  68  72  73  84  90  83  75
  44  47  53  59  62  62  59  65  68  61  62  45  34  37  49  54  67 129 161 159 169 178 187 193 196 198 198 195 201 203 196 196 193 192 182 174 180 185 186 182 183 182 182 186 184 183 185 181 176 177 171 169 168 165 164 157 151 151 148 143 144 144 139 137 137 134 113  77  61  84  40  77  61  26  37  46  37  34  22  21  34  43  48  48  55  70  72  74  84  88  82  73
  45  50  55  62  65  66  63  70  66  73  54  38  45  50  58  51 113 162 159 162 176 186 194 197 199 201 202 201 203 202 198 198 196 197 191 186 188 190 190 187 186 186 187 189 189 188 187 182 180 178 173 168 167 160 160 160 157 152 150 147 143 144 141 140 137 129 121  98  68  78  60  41  80  24  26  28  33  40  21  21  31  43  48  49  55  69  73  74  84  86  82  71
  47  53  60  66  68  69  69  71  74  61  39  37  47  57  58  91 149 167 166 170 182 188 195 199 201 201 204 204 204 203 200 199 198 195 196 194 193 193 192 189 188 188 188 187 188 188 186 185 182 179 176 171 169 165 160 161 158 152 148 146 145 144 145 140 137 128 116 113  77  59  94  34  73  47  23  17  29  34  26  21  25  39  47  50  56  70  73  75  85  86  81  71
  49  55  63  69  73  75  73  73  73  48  47  52  50  60  71 117 158 171 173 177 184 193 196 201 203 203 205 204 202 201 200 199 198 197 199 198 195 194 193 190 190 189 189 186 189 186 182 184 184 182 181 177 171 168 164 163 158 146 145 147 147 145 144 134 128 127 118 103 101  64  77  75  45  77  29  15  33  32  37  28  18  34  50  52  58  69  73  75  83  84  78  70
  52  60  67  72  78  79  76  77  72  58  46  53  58  62  74 123 162 178 178 179 187 197 197 201 206 207 206 203 202 206 205 202 202 202 200 201 199 196 193 192 193 192 189 188 189 186 182 186 186 182 183 179 172 166 168 163 153 143 147 151 148 143 137 129 122 109 110 108 108  98  61  84  54  87  43  19  29  32  39  28  17  30  52  51  57  69  72  75  81  83  75  69
  54  63  71  76  83  84  83  78  76  53  49  50  57  70  92 140 169 182 184 180 194 198 199 204 207 207 205 207 206 203 202 200 199 199 198 201 202 201 196 195 194 192 191 192 192 191 189 186 187 185 183 179 176 169 168 162 149 144 149 149 146 141 136 126 124 120 101 100 103 102  70  67  77  44  49  23  26  42  37  25  21  34  55  52  60  70  71  73  81  82  76  70
  56  65  73  79  85  85  83  84  84  39  42  45  58  84 118 143 166 184 185 184 197 200 201 204 205 206 203 203 204 200 199 201 199 197 195 197 198 199 197 194 194 190 193 193 193 193 191 192 192 186 184 182 178 171 168 164 153 149 150 148 144 136 130 124 119 129 115  93  87  91  89  50  91  78  63  28  21  47  31  25  30  37  54  54  62  69  68  70  79  79  74  70
  57  64  73  80  86  87  85  86  69  37  34  48  77  93 111 141 167 187 188 187 196 200 202 202 202 205 205 204 203 201 202 202 196 196 196 198 197 195 196 194 191 191 193 193 193 191 193 194 191 187 186 184 175 170 168 164 154 149 150 149 144 133 122 115 119 119 113 100  89  74  90  73  62  95  77  27  16  53  34  28  33  34  51  55  59  66  66  67  76  74  71  68
  56  63  72  78  86  88  85  83  69  39  38  61  72  66 102 140 167 189 186 186 196 198 198 201 202 205 207 208 207 204 204 203 199 200 195 196 198 195 197 194 190 192 192 193 191 191 195 194 189 188 186 179 173 171 169 162 153 149 150 148 140 130 122 115 108 105 107 102  89  74  63  89  51  75  80  48  21  50  30  32  38  29  48  55  58  64  63  63  70  69  66  62
  53  61  70  77  84  87  84  86  65  38  53  59  54  71 120 150 170 187 187 186 194 197 198 199 201 204 206 205 205 203 201 201 200 200 197 197 200 197 196 193 191 193 192 191 193 191 191 192 190 185 182 175 172 171 169 162 151 148 149 146 137 124 115 110 109 100  92  93  84  74  49  79  79  73  78  54  31  56  36  32  33  29  49  53  57  62  61  61  67  65  61  58
  50  58  66  74  81  85  85  87  68  31  57  54  72  93 128 148 173 187 187 186 193 199 197 199 202 204 204 204 203 201 200 200 199 199 197 198 200 197 196 193 193 193 191 190 193 189 190 193 188 183 181 179 176 174 171 161 151 148 148 142 132 122 115 106  92  93  80  81  86  74  64  62  85  48  81  58  32  49  35  31  30  30  46  51  55  61  60  62  65  64  60  54
  47  54  62  71  78  82  80  88  64  31  43  58  78  92 117 148 172 184 189 186 192 198 197 200 202 204 205 204 203 201 200 199 200 199 196 197 199 196 195 194 189 188 190 189 190 189 189 188 184 180 178 176 176 174 168 159 152 151 148 142 129 122 115  99  94  86  79  71  73  76  73  62  73  57  83  68  34  52  38  32  34  34  45  52  57  62  60  63  65  64  59  53
  44  50  59  66  74  77  75  85  56  31  48  61  72  85 113 145 174 185 191 191 194 198 199 199 202 204 204 203 203 202 199 198 197 198 195 198 198 197 195 193 188 184 189 189 189 190 187 185 183 181 175 175 178 174 166 161 156 153 150 140 127 126 118  99  86  77  73  66  60  62  70  62  67  71  65  64  35  48  38  47  39  35  52  55  60  64  62  65  69  67  61  56
  41  47  53  60  66  69  70  83  68  41  48  64  69  85 109 147 172 184 189 189 194 199 199 200 202 204 202 203 202 198 194 195 195 196 196 198 198 198 196 194 191 192 192 189 190 191 187 185 181 179 174 176 182 178 168 165 159 151 147 139 129 123 117 105  93  79  66  59  56  53  65  57  70  64  46  58  49  34  36  63  36  39  58  59  65  65  62  67  72  70  63  57
  39  43  47  52  57  61  61  80  76  49  49  70  75  86 107 144 170 183 188 188 193 199 201 205 206 205 203 204 204 201 196 194 195 196 195 197 197 198 197 195 192 193 193 189 190 191 186 182 181 180 178 179 180 173 166 164 157 148 144 135 128 121 120 110 101  88  71  63  58  55  57  56  67  70  40  48  55  37  36  71  36  48  64  63  69  70  66  69  74  70  64  58
  38  39  44  45  50  53  50  61  80  66  58  76  84  87 103 143 171 184 187 186 192 200 201 206 207 206 205 204 202 202 197 196 195 192 194 197 198 198 196 195 193 194 192 190 189 189 185 184 183 181 181 181 178 171 164 159 150 143 138 133 128 122 118 109  95  80  70  62  48  44  45  59  59  64  50  49  56  46  49  61  37  54  66  66  72  72  68  70  75  71  63  57
  37  37  38  39  42  46  43  49  74  79  61  80  99  94 108 148 175 183 189 189 193 199 202 205 205 205 205 204 200 200 198 198 195 194 195 195 198 199 198 194 193 193 192 187 187 188 190 186 182 179 181 184 180 171 163 154 146 137 134 135 129 123 119 115 104  91  77  64  46  40  41  51  53  70  52  56  63  52  53  63  44  55  64  67  73  72  68  72  75  71  63  56
  37  36  36  37  38  39  40  41  59  85  76  99 111 117 127 156 174 184 190 193 197 203 202 200 203 204 203 202 200 203 197 195 196 193 194 194 196 200 200 197 194 192 185 184 188 188 186 182 180 180 180 181 175 167 161 153 146 141 138 136 134 124 119 116 113 107 104  92  72  53  41  49  48  55  53  68  73  50  57  69  52  55  64  69  75  74  69  74  77  72  64  57
  37  36  35  34  35  37  37  37  60  78  79 108 106 104 130 165 172 186 195 198 205 209 203 204 207 204 200 198 197 201 199 196 198 192 193 195 193 199 203 200 195 194 187 184 192 190 187 182 183 183 184 183 178 171 161 151 149 147 139 137 134 124 118 116 114 106 109 110  94  70  47  47  57  53  62  71  78  56  52  66  61  54  62  69  76  76  73  75  77  74  65  60
  36  35  34  33  36  37  37  38  55  79  97 100  89  99 151 172 180 192 194 199 206 210 203 203 206 205 202 200 198 197 198 200 196 190 193 195 193 196 201 196 195 195 194 187 187 185 187 181 180 179 177 175 169 163 155 148 148 147 142 137 132 125 115 112 111 105 110 116 112  91  64  48  60  58  63  82  87  71  41  69  53  56  62  69  77  78  74  78  80  74  68  60
  35  34  34  33  36  37  36  35  61  92 111  89  85 115 160 172 184 174 165 173 180 180 183 186 194 199 197 192 197 195 193 193 190 187 192 192 188 188 193 186 180 184 180 181 161 157 146 139 138 138 143 145 140 128 125 119 118 124 124 135 137 123 111 106 105 110 115 116 116 104  77  54  63  61  72  89  77  76  34  64  54  60  64  72  81  80  78  83  84  76  68  60
  35  33  33  34  35  37  35  36  61  97  97  91 102 127 170 164 156 139 141 149 138 134 132 133 138 149 160 157 173 181 186 187 184 184 190 188 182 179 182 177 168 164 151 143 117 115  98 106 104  99 105 111 112 114 115 106 101 109 108 110 122 120 110 105 102 109 117 118 116 109  94  66  53  63  73  79  76  75  44  49  63  82  69  79  85  84  81  84  85  77  70  77
  34  32  30  33  36  36  37  38  50  94  91  98  99 133 162 143 135 128 139 136 118 105  99 100  94 104 121 130 142 157 165 173 174 179 187 185 178 167 171 172 162 149 135 125 113 105 101  87  93  79  72  80  81  94 105 106  99 102 101  93  91 101 103 105 104 108 117 118 120 113  96  80  61  58  81  88  84  79  56  39  63  91  78  81  90  86  82  87  87  83  85  98
  33  31  30  32  34  36  37  37  42  87  98 100 102 144 158 138 132 131 123 132 131 118 113 110 102 106 112 126 134 141 150 161 167 172 184 182 174 163 162 167 160 147 132 122 112 102  92  83  91 100 106 108 109 110 108 103 102  95  96  92  88  90  98 101 105 108 116 121 120 117 110  94  79  58  81  86  80  70  49  40  56  82  89  92  98  92  90  97  99 101 104 111
  33  31  30  31  34  38  39  37  42 100 106 108 107 148 162 136 132 140 150 157 156 165 174 176 167 148 130 120 124 137 146 156 158 165 182 180 166 154 150 154 143 133 117 106  96  88 103 125 148 163 170 170 163 150 136 128 125 115 105  95  98 106 109 104  98 107 115 120 119 118 121 113  95  70  75  79  75  63  41  40  46  62  84 102 108 104 105 110 112 111 115 118
  32  31  30  33  34  37  39  33  58 117 105 116 114 166 164 134 142 159 170 176 182 167 149 139 127 130 126 124 121 116 126 143 151 167 182 180 166 148 140 140 129 112  93  88  92 112 131 116 111 110 108 133 143 149 150 142 134 126 112 107 110 111 112 107 104 107 114 118 115 117 122 121 108  79  57  66  76  56  33  36  40  68  92 105 109 108 111 116 116 114 114 114
  32  29  30  32  34  37  36  37 147 153 117 119 132 175 165 144 151 171 172 138  96  67  30  32  34  57 102 112 116 124 121 125 136 160 183 185 173 151 137 127 111  96  93  99 114 112  90  98  92  51  39  50  40  46  71  86 107 128 122 113 114 122 124 118 107 109 116 120 115 114 118 114 118  98  58  63  71  51  41  54  82 130 134 111 105 106 111 114 114 111 109 109
  31  30  28  32  34  37  30  61 194 163 110 133 153 178 173 164 169 154  85  45  88  83  57  78  76  81 115 132 135 129 136 132 136 158 190 192 179 160 137 118 105 108 110 113 113 111 131 128 143 115  85  57  68  31  80  81  51  78 111 120 118 128 125 116 111 113 122 125 118 111 113 122 125 110  70  70  67  48  49  86 134 154 147 124  99  96 100 104 106 101  99  97
  32  31  27  30  34  35  31  44 148 169 126 153 173 185 176 176 166 110  74  98 157 108  51  61  59  79 153 149 125 140 149 143 146 165 194 196 182 167 140 117 108 117 109 108 132 146 123 129 175 144  85  77  86  87 132 132 100  73  89 110 120 124 122 126 122 117 124 124 119 115 116 119 122 121  95  72  67  61  76 115 153 146 138 129 105  81  86  89  89  85  83  74
  31  30  28  30  31  33  29  44 145 146 135 153 175 185 176 176 157 117 140 169 164 158 121 109 121 131 165 156 131 127 162 169 159 173 196 198 187 169 147 121 111 112 110 121 146 127 151 172 163 155 151 152 161 157 150 140 125  97  95 111 115 120 123 129 127 127 129 123 120 119 119 121 119 130 113  71  61  74 104 132 115  78  57 109 116  64  62  66  62  60  56  47
  32  28  28  29  32  32  24  63 168 109 118 157 183 186 178 175 153 133 159 179 181 180 183 181 181 176 166 164 168 165 174 189 175 186 198 195 189 178 156 131 111 108 118 143 154 166 178 168 169 178 176 172 166 157 148 132 119 117 125 138 143 142 140 140 136 137 133 124 121 122 124 118 120 128 121  95  71  90 109 107  92  84  41 114 128  45  37  40  40  40  39  39
  31  28  28  28  31  30  22  86 174  95 143 179 186 185 182 182 176 169 171 163 163 167 172 172 161 145 138 160 181 195 197 190 190 197 198 194 190 184 172 147 115 109 121 136 165 179 169 155 148 147 149 147 143 135 127 121 128 140 148 151 150 149 150 141 142 142 136 129 123 122 126 120 118 116 128 103  75  91 115 101 110 145 106 119 140  51  35  37  39  38  38  41
  33  29  27  27  30  31  20 116 172 102 167 190 187 185 188 186 189 186 170 159 154 143 142 140 135 134 154 176 181 185 183 187 202 201 192 192 191 186 180 164 128 111 128 136 147 169 178 172 166 156 154 147 141 138 138 150 160 159 161 161 151 150 152 150 151 146 136 131 128 125 128 124 114 120 125 114  84  92 117  95 122 151 134 117 149  56  33  38  38  38  39  40
  34  30  28  28  28  28  25 141 146 126 187 186 188 187 188 187 190 190 185 178 170 166 163 162 167 176 183 187 191 192 188 185 200 204 195 188 185 179 165 148 129 117 129 142 146 154 180 184 180 184 180 172 173 173 174 177 179 180 170 165 159 152 149 153 154 147 138 132 130 127 123 122 113 117 111 106  88  89 105 130 148 146 143 135 149  55  34  38  38  38  40  40
  32  29  28  29  29  27  33 152 146 173 186 175 186 189 194 193 193 196 196 195 192 193 194 197 197 199 200 201 202 197 191 186 202 206 197 188 182 167 144 130 128 124 127 139 150 151 160 188 193 190 188 184 183 188 186 183 187 183 183 171 159 150 152 154 153 149 138 130 127 124 123 118 109 111 115  98  90  92  80 127 164 147 145 148 142  56  35  41  40  39  40  39
  31  30  28  30  29  26  34 154 173 210 179 166 187 190 193 193 193 189 196 199 200 202 204 202 203 205 208 205 201 194 189 188 202 208 197 188 181 160 138 130 135 132 126 132 146 158 152 184 195 193 195 193 190 192 188 187 188 184 178 175 164 157 155 155 153 146 143 134 126 122 117 118 107 107 113  94  94  96  78 113 159 145 150 158 132  58  37  43  43  42  40  39
  30  28  28  28  28  27  28 149 192 206 172 165 187 192 193 194 191 197 201 200 201 203 205 204 207 204 204 207 199 191 187 187 201 206 195 187 174 154 140 134 136 132 126 129 140 158 164 187 178 179 195 196 194 189 189 188 186 184 176 174 170 167 162 156 152 147 140 135 123 120 120 114 106  96 105  97  98 102  95 136 161 144 161 178 131  56  42  45  44  43  39  38
  30  28  27  27  29  28  19 130 205 195 170 167 184 191 192 193 198 204 206 205 202 203 205 205 205 205 206 205 198 191 189 195 206 205 190 184 173 155 146 141 137 134 127 129 135 147 170 197 183 176 194 194 195 193 191 193 186 179 178 174 168 165 164 157 151 146 137 128 121 119 118 108  94  84 100 102 109 119 109 140 156 151 170 183 125  53  49  50  47  44  40  38
  30  27  28  28  29  29  14 115 211 189 163 174 183 187 191 197 201 205 207 208 207 207 205 205 206 206 203 202 197 193 195 199 209 206 193 181 169 156 151 152 142 134 133 132 133 142 158 186 194 190 192 197 198 195 192 192 184 180 176 172 170 165 164 158 151 143 133 123 118 114 113 107  89  67  85 100 119 136 112 138 154 160 169 177 124  57  55  54  51  47  42  38
  28  28  27  27  27  27  17 103 208 189 163 175 180 189 194 200 202 204 208 209 209 207 204 206 206 208 207 200 187 193 198 197 208 206 195 182 166 156 155 154 143 133 127 132 140 142 155 176 189 195 193 196 195 195 193 188 184 177 172 172 170 167 164 158 149 140 132 113 115 110 104  99  83  58  75 100 129 144 117 140 168 169 166 172 115  57  57  58  55  49  42  38
  28  28  27  27  29  28  17  87 206 191 162 169 183 188 197 199 202 206 207 209 210 207 207 210 211 211 207 197 189 196 194 193 206 204 190 172 160 156 155 147 140 130 123 123 138 149 158 173 183 192 196 197 195 195 192 188 186 174 167 177 171 164 160 155 144 138 129 116 113 105  95  94  70  66  79 108 136 141 112 140 173 157 161 165 102  56  57  56  54  48  41  38
  29  28  27  27  29  29  18  70 201 196 159 158 185 185 193 201 204 206 209 211 211 209 210 210 209 203 197 196 194 190 187 194 205 201 187 163 149 152 152 152 150 139 130 124 125 149 163 179 184 188 196 197 195 193 191 187 184 177 171 172 167 156 149 143 141 133 125 118 108  96  83  80  64  83  86 121 141 135 111 127 144 145 164 142 101  54  52  53  51  46  41  38
  29  28  27  28  27  26  17  69 196 198 165 166 180 185 192 200 203 205 208 212 212 212 209 204 199 192 191 195 195 190 186 200 206 195 183 163 142 147 159 163 163 150 134 130 123 134 152 171 195 192 191 196 197 193 190 186 182 177 174 168 157 151 142 137 133 125 118 111  94  84  81  73  67  83  98 131 149 125 106 138 143 158 151 126 107  53  52  50  48  44  40  38
  29  27  28  28  27  27  19  67 187 201 198 176 172 184 191 196 200 203 208 211 211 208 202 196 187 182 180 182 192 194 194 213 212 203 189 163 147 148 162 167 159 142 128 125 120 122 145 154 181 198 192 194 197 192 188 185 181 174 172 166 155 149 136 131 128 121 113 106  91  75  78  65  57  74  95 134 160 126 115 151 154 150 125 137 105  49  52  49  46  43  40  38
  30  28  27  27  27  28  18  74 189 201 209 184 168 180 189 191 196 203 203 203 203 199 192 183 176 176 184 177 177 188 189 202 199 198 200 177 154 146 147 143 141 132 117 113 111 118 147 153 157 189 193 190 194 191 187 182 177 174 167 161 154 142 132 123 122 118 110  98  90  73  82  62  53  79 100 127 152 147 154 160 157 142 134 147  90  46  48  48  46  44  41  40
  32  27  27  28  29  30  19  89 201 206 206 177 166 179 187 190 195 198 194 197 199 192 186 173 173 181 194 182 144 158 165 171 169 167 175 177 147 119 112 110 110 112 109 106 103 111 152 161 152 165 187 188 188 186 182 176 174 169 161 159 153 135 128 119 115 114 107  94  86  79  85  69  63  89 106 119 143 148 161 158 157 151 144 134  75  45  47  47  47  45  43  41
  29  26  27  26  28  29  21  95 205 206 207 174 161 177 183 188 191 191 192 190 190 189 178 170 180 188 189 191 154 105 126 138 142 141 139 141 110  83  74  50  27  47  82  90  88 123 160 159 155 150 179 186 183 180 177 170 168 162 160 156 146 135 127 122 111 107 106  94  85  81  84  82  72  98  94 114 146 159 161 159 155 151 137 109  57  46  48  49  48  46  43  41
  30  27  28  28  27  27  21  87 201 203 205 167 156 170 179 187 189 187 186 182 183 177 164 173 192 193 188 187 185 142 128 120 103 103 102  96  70  47  46  43  57  60  70  79 106 147 160 155 157 151 168 184 179 175 171 165 160 156 152 145 139 136 123 118 113 111 107  95  82  69  83  82  89 105  97 113 157 164 160 159 151 139 109  61  44  46  48  49  49  47  44  41
  32  29  29  30  30  29  23  57 183 201 192 162 163 168 175 182 183 181 178 170 173 168 161 180 182 185 179 150 135 117 131 125  95  76  68  61  45  40  67  82 100  91  99 118 133 139 148 152 158 164 168 172 175 174 169 162 154 151 146 138 135 132 122 117 114 109 109  98  80  71  83  88  89 106  93  79 128 150 151 148 133  97  59  40  43  47  48  50  49  47  43  41
  31  31  30  31  30  31  29  26  81 147 163 151 171 167 168 177 177 175 174 173 175 166 169 168 162 169 148 141 137 131 127 134 137  99  85 100  88  77  90  98 100  73  90 106 109 126 144 153 161 165 169 162 163 170 166 157 154 143 142 131 123 131 128 120 120 112 112 101  99  87  90  88 104  94  81  36  57  85  97  91  73  52  46  44  44  46  47  46  48  47  44  41
  32  31  31  32  31  31  32  29  20  27  53 131 175 171 166 172 171 169 171 180 166 152 146 143 137 134 139 151 154 142 146 150 138 111  90  99 116 108 126 117  98  90  89 106 117 126 142 152 158 156 155 153 156 161 160 152 146 137 135 126 114 129 132 121 118 115 111 101  99  80  98  95 101  99  74  38  40  40  46  51  50  52  50  47  43  42  43  42  45  43  42  40
  32  31  31  31  31  31  31  30  28  26  13 108 189 172 167 168 169 168 176 180 149 122 129 122 120 132 134 131 154 139 118 132 124 117  65  83 124 105 108 128  86 101 102  95  99 104 128 142 135 137 128 131 153 157 154 148 144 134 130 123 108 121 136 120 108 104 104 100 102  93  84  97  95  95  67  44  42  44  51  53  53  53  48  46  45  41  40  42  43  42  42  39
  32  31  31  30  30  30  30  28  28  27  30 113 175 173 171 166 169 170 179 162 130 134 142 118 115 129 104 128 106 104 102 102 115 122  71  83 106  96  78  90  90  98  80  82  89  88 105 120 113 105 106 110 133 146 150 147 151 135 124 124 109 127 138 120 107 101  94 101  97  78  87  95  93  92  70  38  45  47  52  54  53  52  50  45  44  42  42  43  44  42  41  40
  30  29  30  29  29  30  30  29  28  27  31 116 180 176 170 171 172 171 177 151 134 126 107 106 111 114 112 130 103  93 105 116 106  95  78  83  95  70  80  91  92  80  83 101  80  77  85  98  90 101 101  84 104 141 143 139 153 134 119 129 108 137 153 132 112 100  93 102  95  73  87  86 101  96  69  38  43  47  50  54  53  51  49  44  42  41  43  43  44  45  45  45
  30  29  28  27  27  28  29  29  27  28  36 118 174 172 178 172 169 167 171 139  99 102  94  95  89 117 117 114 113 111 119 110  98  92 105  96 101  90  90  88  85  74  88 112  88  76  68  74  71  83  87  69  85 145 131 113 134 136 121 113  98 138 157 131 115  96 105 108  95  88 100  92 102  86  61  41  41  44  46  49  50  49  47  44  40  39  40  40  41  45  48  49
  30  29  27  28  27  27  29  30  28  27  26 108 163 161 185 173 162 161 163 129 107  94  98  82  95 101  93 101  88  89 101 102  98  93 104 105 100  84  98  96  98  95 100 101  77  62  66  73  72  65  61  76  70  97 117 100  98 116 120 108  90 138 144 125 110  96 103 101 100  84  95 100 119  96  60  36  39  40  41  44  47  46  44  40  40  40  40  38  43  47  47  47
  29  27  27  28  28  28  29  29  29  27  38 100 160 155 169 172 164 152 150 128  97  90  92  78  67  35  21  69 107 129 133 143 152 141 136 137 117 106 119 118  99  93  87  76  69  69  72  74  75  59  57  50  60  71  93  84  88 111 109  94 102 131 123 128 101  84  89  99  99  89  84 101 106  89  48  35  37  39  38  40  42  42  41  40  39  40  40  41  43  45  46  45
  29  27  28  29  29  29  31  30  29  35  32  59 155 153 163 163 163 148 149 138 110  98  98 113 127  63   1  57 178 192 143 194 205 215 225 214 195 201 207 188 159 155 116  84  81  71  65  57  61  46  32  45  63  59  89  89  76 109 102  84 111 118 121 126  94  83  99 100  81  89  87 100 100  94  46  36  37  38  38  39  38  39  40  40  39  39  40  40  42  47  45  42
  30  27  27  29  29  29  29  30  31  29  22  49 130 145 169 150 161 146 145 163 140 112 106 124 155 134  48  11  87  83  20  87  99 147 186 165 160 204 211 203 153 149 104  48  88  65  50  47  14  10  32  62  67  69  67  79  88  92  87  84 117 113 126 109  89  96 100  97  85 102  94 100  93  90  68  64  65  66  64  62  61  62  63  62  57  52  46  40  38  41  42  42
  30  30  29  29  29  30  30  31  30  31  25  39 130 149 166 157 168 156 160 173 145 102  96 127 159 163 121  44  32   0  20  99  97  69  81  73  60  55  67  73  28  28  37  44  59  39  16  17  37  77 106 112  94  87  88  84  99  91  79  82 113 116 127 105  85  97  93  95 110 119  97  96 104  89 101 106 113 112 110 109 108 108 107 104  97  86  73  58  43  38  40  42
  30  31  29  27  29  31  31  29  31  32  27  25 111 158 166 164 173 150 162 166 147 116 106 133 157 167 161 134 105 107 100 138 181 185 161 146 135 113 108  90 105 144 125 107 108  70  56  82 129 129 132 152 133  93  90 108 102  79  73  81 115 120 115  99  89 100 105  99 117 121  92  99 102 109 135 143 151 154 152 150 149 148 147 143 137 127 112  92  70  49  41  40
  31  31  30  29  30  30  31  30  31  32  30  16 104 162 158 155 167 157 156 144 142 106 102 142 169 170 164 164 171 180 168 145 179 202 201 188 171 169 188 192 187 186 152 118 112 104 116 126 134 140 149 153 148 121  84 109 106  67  58  86 115 119  99  93  87 103  98  94 118 120 123 106  93 112 161 170 177 181 180 179 179 179 177 174 169 159 144 124 101  72  49  41
  31  31  29  29  29  28  30  30  31  31  30  23  70 154 151 142 145 153 153 124 123 108 116 151 166 169 164 165 177 189 185 166 164 172 184 178 167 163 166 169 158 153 149 140 133 132 131 133 135 134 131 145 147 139 109  96  87  66  66  88 102 110  95 102  97  94  95  99 113 109 122 106  74 125 177 190 196 198 198 198 197 197 196 195 190 182 169 150 128  97  65  57
  29  29  30  29  29  28  29  30  29  29  29  26  53 147 140 137 135 139 132 114 102 130 146 153 158 170 172 164 174 184 187 183 180 182 182 172 171 176 172 169 162 161 167 161 146 142 139 127 127 122 137 143 144 142 124  90  70  52  78  90 107 119  95 103  99 109 114 105  99 116 101  98  79 142 192 201 208 210 208 210 209 208 209 209 206 198 188 170 148 117  92  91
  30  30  30  30  30  29  28  28  29  32  31  28  40 152 147 128 134 125 134 121  95 129 148 151 163 160 163 175 168 176 180 183 178 176 171 164 163 165 171 176 172 162 147 137 135 134 126 124 125 119 128 148 155 141 110  78  57  58  77 105 111 127 107 106 112 129 102  98 102 112  98  95  88 161 196 204 212 213 212 211 211 210 212 212 212 207 198 184 162 135 119 123
  30  30  30  30  30  30  30  29  30  32  30  28  46 131 144 125 133 132 140 120  98 114 133 154 162 167 168 157 158 157 147 150 147 150 155 148 148 135 131 149 148 138 139 122 114 113 115 109 125 124 129 140 138 141  97  62  54  60  99 122 119 115 110 112 115  97  92 103  97 102  95  86  97 145 191 207 208 208 206 203 202 203 205 207 209 209 205 191 170 151 143 147
  30  29  29  30  31  31  33  31  31  32  31  32  40  93 166 121 132 130 119 114  91  96 143 164 151 165 161 146 137 125 129 121 119 131 139 125 119 117 114 117 114 110 114 115 105  97 105 112 123 122 130 132 125 111  92  53  47  66 101 128 114 114 119 128 119  93  92 104  88  98  91  74 106 165 193 205 208 203 198 192 189 190 193 199 203 207 206 194 178 165 159 163
  31  29  30  30  30  30  30  31  30  31  32  30  34  82 166 140 159 145 135 119  80  87 133 134 153 157 150 147 125 117 132 120 128 138 135 128 114 130 114 107 109 105  97 104 104 102 111 122 111 120 122 135 134 110 105  84  61  70  95 126 101 115 122 123 127 101  84  94  88 101  82  63 106 185 196 203 205 197 187 176 168 170 178 187 195 202 203 194 184 176 173 177
  29  29  30  31  30  30  31  31  29  29  31  32  31  42 133 145 138 131 132 122  87  82 113 136 148 154 159 156 135 127 146 131 124 141 137 131 136 126 123 107  94  93  97 108 113 113 106 112 115 127 123 136 141 100  88  74  57  88 104 104  98 101 121 103 112 106  88  75  84  92  76  57 106 186 195 201 199 187 172 154 141 142 157 172 185 196 199 193 187 182 180 183
  30  30  30  30  31  29  30  29  31  31  31  31  34  30  94 133 141 141 147 124  98 106 137 143 145 150 160 172 163 157 154 130 127 144 130 138 157 133 114 106 104 102  98 111 122 115 118 118 127 124 137 134 133 104  89  58  64  95  93  86  92 101 105  95 119  95  80  68  69  87  71  54 115 188 191 198 193 179 160 134 110 111 135 159 175 187 193 191 186 182 182 186
  32  30  30  31  30  29  29  30  31  31  32  31  33  35  57  93 133 127 137 132 101 126 138 144 147 154 157 165 174 170 158 146 143 131 133 127 121 125 107 111 116 110 113 116 120 124 127 126 118 114 111 135 119 101 103  44  81 109  88  93  85  95  95  92 123  85  74  53  59  71  74  64 138 184 185 193 188 173 155 127 100 100 125 151 171 184 189 188 184 182 182 184
  31  29  29  29  30  29  29  30  32  31  32  32  33  37  36  49  91 129 143 112  96 108 149 119 155 161 159 163 173 172 161 155 150 145 131 111 116 114 125 139 128 115 122 125 123 126 131 125 122 118  95 104 108 108  97  41  91 117 109 101  93  89  92 101  82  73  81  62  62  69  74  71 130 179 190 191 186 173 156 134 117 116 133 152 167 177 179 180 178 178 179 180
  31  31  30  30  29  29  29  32  31  30  32  33  35  37  37  39  40 123 132 114 121  84 110 120 172 153 160 164 153 156 170 161 144 151 131 130 130 124 141 146 139 123 122 136 142 133 131 127 122 101  99  92  85  89  60  58  90 112 109 100  91  88  60  83  57  59  74  72  76  75  73  67  29  58 124 177 191 176 160 147 138 137 146 157 164 168 169 167 168 169 173 174
  32  32  33  32  29  30  29  31  30  30  32  32  34  36  38  40  31  68 117 125 121  69 113 134 124 132 135 153 159 155 171 170 177 147 141 120 129 156 150 148 144 134 130 133 122 112 132 132 116  87  77  89  70  68  48  56  82  93  87  93  75 100  66  76  65  79  79  80  76  77  77  80  44   0   1  35 110 173 176 161 156 157 161 166 167 165 163 161 161 165 171 171
  33  33  34  32  31  29  29  30  29  29  32  33  35  37  36  36  38  43  51  78 101  89  90 103 131 132 140 168 171 170 170 175 174 146 141 131 133 154 181 158 148 144 141 126 113 106 124 135 116  81  74  81  69  73  48  55  56  72  68  85  81 100  70  58  53  86  91  82  83  88  80  95 105   7   1   0   0  54 159 179 170 173 176 177 173 168 163 161 161 164 171 171
  33  32  33  33  30  29  29  29  27  28  30  33  34  35  36  37  38  33  38  73 114 104  89 112 132 155 166 174 175 164 169 172 175 163 116 115 128 146 165 161 139 141 144 137 121  92 120 122  96  95  80  60  45  61  43  42  58  59  55  67  84  98  53  49  76  75  86  92 102  96  78 110 141  49   0   2   4   0  44 155 177 175 180 182 180 174 170 169 169 172 178 179
  34  32  33  33  29  29  29  29  29  29  31  32  35  35  36  36  37  34  25  35  85 136  96  97 149 158 167 186 186 157 162 170 177 152 140 141 147 150 146 130 137 127 134 131 127  94 108 124  85  75  72  49  33  43  49  41  52  57  56  62  70  58  47  60  81  90 103 113 117  97  78 133 143 102   9   0   5  17   4  51 164 173 178 184 185 182 179 178 179 182 188 188
  34  34  32  32  31  28  29  29  30  30  30  33  34  35  35  36  35  31  29  14  79 174 137 128 149 147 187 176 178 147 165 176 161 149 140 129 138 123 120 107 130 119 113 120 116  95 105 109 106  67  51  39  30  36  34  51  56  56  48  50  44  57  78  86  93 116 126 124 115  89  98 153 148 140  47   0   2  15  18   5  92 169 173 183 190 190 190 190 191 192 195 195
  34  33  32  30  29  29  30  30  28  31  32  33  35  35  35  34  28  29  37   8 140 195 163 127 108 179 190 166 137 141 166 151 136 127 140 141 109 107 118 116 112 102 108  86  98  93  95 110 129  98  51  17  28  25  29  39  39  43  38  54  71  91 109 110 116 124 130 123 110  81 131 171 156 164 104   2   1  10  23   8  19 140 171 179 191 195 196 196 195 196 199 202
  31  31  30  30  30  30  30  31  31  30  30  32  33  33  31  29  23  33  29  12 182 215 172 159 143 165 170 155 121 149 160 140 138 115 127 151 118  97 124 114 114  80  94  64  89  92 102  86  97 101  57  25  34  39  42  53  69  70  65  75  81  97 116 126 127 127 129 122  96 103 179 174 159 169 144  35   0  10  20  15   1  69 168 180 192 201 201 200 201 200 201 204
  31  31  28  29  31  31  29  30  28  27  27  27  27  28  27  26  23  23  15  20 203 230 178 186 162 155 141 125 135 141 157 137 138 124 128 124 110 114 132 101  85  86  68  61  59  85 105  76  50  49  40  26  42  50  61  71  72  74  74  83  97 110 125 124 127 130 124 110  98 172 195 171 166 170 161  88   3   8  19  16   7   8 133 190 195 202 202 200 199 199 201 203
  32  31  30  30  29  27  26  27  25  22  21  20  26  26  25  28  27  20  10  39 224 237 181 180 188 184 157 124 133 150 139 129 117 119 115 112  86 106 117  87  80  95  63  44  71  94  73  50  53  44  36  42  54  58  64  59  72  78  89 105 124 130 130 126 131 128 114  97 169 211 187 174 174 170 166 126  22   5  20  16  12   2  40 179 204 204 201 196 193 193 197 201
  31  27  24  23  21  23  23  25  23  20  20  20  23  21  21  24  21  22   4  76 238 245 194 181 195 190 175 164 151 150 131 132  91  93  80  85  85  93 117  95  70  55  55  58  68  83  65  48  54  59  65  65  66  62  62  72  78 105 123 132 136 136 133 133 126 119 103 168 220 200 187 180 177 169 166 146  55   7  20  18  12   6   1 116 216 205 200 192 187 186 190 197
  25  23  23  24  21  25  24  21  22  22  20  24  26  26  24  16  16  16   3 125 243 246 213 183 185 187 186 180 174 158 145 137 106 104  80  70 100 100 113  81  73  66  77  75  69  71  86  79  67  53  74  78  73  73  71  82  99 119 123 127 136 138 133 129 116 111 175 223 208 194 190 185 178 168 167 154  78  18  19  16   8   6   2  18 162 221 196 184 175 174 177 189
  26  24  24  22  21  25  24  21  19  18  23  29  28  24  19  15  17  17   4 162 242 244 231 186 183 188 188 184 175 168 156 140 126 114 111  87  72  96  84  87  90  87  75  65  79  69  76  71  69  73  74  74  75  73  80 102 128 122 125 135 135 136 133 119 120 190 228 213 203 197 193 187 181 170 170 156  79  18  19  13  10   7   7   0  28 165 202 173 160 157 162 177
  26  26  24  23  26  26  22  24  21  22  30  32  26  22  16  15  18  14  11 179 241 238 245 200 188 194 191 185 183 177 167 148 138 140 111  81  77  83  60  59  76  68  50  56  59  59  72  76  80  77  72  78  75  83 103 128 133 131 134 134 132 132 117 133 202 229 215 208 201 200 197 189 179 173 171 150  62  14  18  13  12   9   8   8   1  23 144 172 139 131 139 162
  29  24  23  23  28  25  22  24  23  27  30  29  24  21  18  15  19  11  25 201 242 236 246 230 187 195 195 190 186 183 173 161 149 145 142 129 117 107 105  81  72  55  65  69  63  58  64  82  87  83  83  82  91 123 136 133 132 136 134 133 128 125 155 215 228 216 211 207 205 202 197 189 180 174 172 137  35   6  11  13  10  11   9   9  10   1  16  89 110  94 105 138
