P2
# Generated by OpenCV 4.2.0
92 112
255
  40  49  52  51  50  49  50  52  52  53  55  60  64  67  72  75  83  89  95  86  94  89  53  25   5  10   3  20  42  27  20  18  17  28  22  26  23  10  11   8   8  23  51  83  76  34  10  22  21  10  14  21  11   7  11  12  11  10   6   3   4  14  17  16  11  14  17  61  76  63  57  50  34  26  40  71  98 126 160 174 169 168 171 174 175 173 166 148 134 124 114 102
  50  51  49  50  50  50  52  53  54  54  54  57  62  66  72  75  80  87  88  83  82  45  10  12  16  11  34  53  28  17  13  10  14  13  21  15  10   6   9  21  36  56  58  43  34  23  25  31  39  48  50  30  14  18  14  12  11  10   8   2  10   6  13  25  15  11   6  19  57  64  51  37  25  13  24  58  86 117 148 170 170 172 174 177 176 170 153 129 110  95  85  77
  52  50  50  51  52  51  53  52  52  54  54  56  60  64  71  76  78  85  87  91  85  25   3  19  26  20  36  15   8   2   8  32  35  42  32  20  23  40  47  59  90  74  75  86  79  56  37  39  49  49  31  15  17  13   8   7   6   5   9   7   4   4  11  22  30  15  10   6  20  51  50  27  15   6  10  41  75 100 129 157 171 174 176 174 168 155 133 105  79  63  55  53
  49  51  51  50  52  51  52  53  53  54  55  56  57  62  64  72  78  83  90  99  82  21   9   9   7  16  13   3   9  41  73  76  33  22  40  61  75 112 132 130 130 119  88  86 101  87  53  47  23  11   5  11  10   7   7   4   2   2   4   7   4   4   4   9  10   9  17  10  10  29  25  21   8   2   4  22  55  81 106 130 149 162 164 162 149 132 108  81  56  36  24  29
  49  51  51  50  50  52  54  55  57  57  54  53  56  59  64  72  78  87  95  72  44  24   8  19  24  15  13  24  53  69  34  13  32  63 106 108 110 121 134 133 126 114 116  87  79 101 105 104 104  90  44  20  13   4  11   2   1   3   3   6   8   9   8  13  19  16  16  17   9  20  35  19  19   5   1   8  30  60  82 101 122 142 146 142 128 106  82  61  35  20  13  15
  49  52  52  50  51  50  52  54  56  57  56  56  58  61  66  72  82  79  41  11  33  16   5  20  18  17  49  64  39  35  37  64 107 106  91  93  97  92  91  83  80  93 108  95  80  75  72  78 103 110 108  77  56  36  43  28  27  15   7  13  15   9  12  15  20  20  15  17  21  11  24  24  18  23  11   2   8  31  53  74  92 105 110 105  99  84  58  37  22  16  18  19
  52  51  52  53  53  51  54  56  59  55  55  57  56  59  66  77  64  24   7  28  21   0   6  17  38  62  51  33  51  88  93  92 101 116  95  83  71  73  84  91  59  46  68 114 119  92  52  27  65  79  68  77  63  56  51  54  46  25  15  13  12  13  14  11  22  19   9   5  17  16  21  19   7  22  32  12   0   6  18  42  63  73  76  75  70  60  40  26  26  29  31  35
  51  49  49  54  55  56  56  56  56  55  59  59  60  61  68  56  10  13  18   8   1  30  45  62  83  82  84  94 125 131 106  81  67  88 114 120 103  65  42  56  71  82  71  58  88 114 110  71  52  54  47  41  41  47  50  29  30  36  28  24  26  17  16  16  18  22  11   1  15  13  12  26  22  10  28  38   3   0   4   9  25  44  52  57  54  47  40  40  49  54  57  61
  55  51  52  55  56  57  56  57  55  56  57  59  59  69  79  29   1  13   5  22  62  89  87  66  67  81 110 118 128 134 132 125  98  84  88  96 121 107  67  56  51  43  46  40  35  35  65  69  85  67  54  39  26  22  33  23  33  30   7  11  16  25  24  14   7  14  35  22   5   6   1   9  34  18   8  35  57  12   2  13  21  37  53  60  59  56  59  68  76  81  83  83
  52  54  55  54  55  57  58  57  60  60  53  58  60  63  62  27  22  17  14  59  92  53  46  59  65  78  79  53  52  37  37  81 118 129 134 127 116 110 106 124 127  93  63  52  48  20  11  27  15  21  36  41  42  32  15  13  35  36  10   1   3  12  15  12   9   8   6  16  12   5   5  10   9  16  14  17  48  69  37  36  49  58  67  77  84  93 106 118 124 123 114 103
  52  54  55  56  60  60  59  59  60  60  54  54  57  61  26   2  21  30  67  86  70  68  61  70  79  61  60  59  52  59  37  49  59  95  98  97 100  77  74  64  92 111 103 104 114 119  66  49  57  28   6   5  16  46  37   8  14  19  29   8   2  16  26   8  12  17  13   7   6   6  10  11   8  11  13  13  32  64  84  92  97 109 113 124 137 146 158 170 170 165 152 129
  52  57  58  59  61  61  58  57  56  56  54  51  58  45  11  36  47  68  97  90  80  82  78  67  79  96 124 142 124 120 119 110  94  97 109 101  94 102 120 115 113  77  87  86  48  54 104  58  31  33  28   7   4  11  19  22   5   8  14  21  12  15  30  31  23  15  21  18  13  12  11  13   7   9  18  16  19  45  92 144 157 165 164 169 175 183 187 194 194 186 180 153
  54  58  56  58  59  59  58  53  56  54  52  46  64  53  61  81  58  73  60  52  60  79 104 100 125 141 110 108 109 106 123 109  76  89  92  91  89  77  67  72 100  94  49  51  66  22   6  27  33  16  14  13   6   9   1   6   9   5   6  12   7   4  12  21  16  21  20  19  12  18  20  17   5   3  11  23  20  23  43 108 184 192 191 191 195 196 200 205 205 197 191 173
  59  57  56  56  56  55  55  54  53  47  39  44  48  49  61  59  61  58  52  49  74  75  64  74  83  86  98 103  85  86  86 102  95  71  53  59  63  56  55  38  32  42  46  22  23  45  20   3  12  17   7   7   4  13   6   1   0   5   7   3  13  32  39  26  17  31  38  33  21   6  10  18  16  22  12   5  21  27  23  31 160 204 206 205 203 199 206 211 207 199 190 170
  56  55  55  54  53  54  53  55  52  48  46  42  60  50  34  40  43  65  97 109 111  97 124 127 113  84  93 103 104  94  77  91  96  75  67  61  55  36  29  27  33  57  73  59  28  11  19  23  18  21  14  13  10  21  30  24  12   5  11  16  33  40  35  39  36  42  43  24  16  11   5   4   8  12  16  13   5  24  26   7  91 209 207 207 201 195 193 198 195 181 166 145
  55  54  53  54  55  54  53  51  51  54  32  58  63  26  36  41  66 114 131 117 115 118 115 103  93  76  61  67  79  90 102  95  75  90  94  83  84  92  77  55  54  41  24  30  27  26  21  17  18  22  23  39  48  56  64  77  57  44  40  30  10  15  11  19  24  35  59  33  13   6  13  21  22   8   9  20   7  17  16   8  39 177 205 190 180 169 161 162 155 141 133 113
  55  55  52  53  53  51  55  52  52  44  47  61  18  26  28  45  68  80  81  68  65  78  72  56  51  58  69  84  86  80  57  61  69  77  90 112 120 113  97  84  55  40  31  31  19   8  15  16  20  17  16  21  23  46  62  64  67  51  26  26  17  12  17  18  16  15  31  30  44  29   9  17  23  14   9   7   9  17  27  18  31 127 177 158 142 125 117 114 111 106 101  86
  55  55  52  54  51  52  54  60  51  44  52  19  20  35  39  42  34  31  34  31  65  92 105  88  74  70  80  59  49  52  37  17   7   2   6  14  32  65  90  95  73  36  24  28  22  12  12   9  16  14  12   8   3   2   7  33  44  37  24  27  40  18  16  17  13  23  34  50  54  49  14  10  15  17  15  21  23  22  14  18  16 112 141 114 102  94  88  83  79  77  68  63
  53  53  50  50  49  49  57  55  46  55  27  12  24  36  20  30  47  52  82 119 115  98  91  84  69  73  65  71  61  59  36  21  19  33  27  23  22  14  12  11  45  76  33  20  24  17  15  10  14  11   6   7   6   5   6   2   2  23  47  40  39  27  19  22  33  43  16  22  32  32  19  14  11   8  16  31  47  42   6  34  18  74  99  79  75  71  68  65  63  60  56  57
  53  54  50  49  45  43  42  31  41  43  19  19  13   3  14  26  51  89  93  78  59  59  57  64  77  58  41  49  40  20  10  39  78  77  52  35  21   0   0  14  45  54  24  16  10   7   8   7  10   5   3   4   7   6   4   4   5  26  33  27  17  24  22  22  40  35  30  22   6  12  33  43  12   1   2   9  31  46  23  25  19  37  66  63  64  60  60  61  62  65  65  65
  54  51  47  44  41  34  25  27  39  27  41  22   3  17  24  40  58  42  61  65  75  74  71  73  56  32  11   2   8  50  83  95  73  33  10  10  23  35  69  90  94  70  61  59  62  49  27  20  22  14   5   4   4   5   8   4   8  14   8  10  14  17  29  30  26  36  52  36  16  17  17  17   8   7   9   1   5  29  30  10  25  38  54  66  66  62  63  67  67  65  65  64
  54  50  47  42  36  25  16  25  34  53  60  16  11  11  22  26  14  23  33  46  58  64  71  81  80  78  61  46  65  89  73  48  52  62  79  89  92  98  66  25  16  25  43  43  60  67  59  58  45  34  14   8  11  10   9  13  13  10  12  20  38  56  49  54  62  61  61  48  27  15  17  20  26  30  18   5  29  22  11  17  28  25  50  63  64  62  61  59  59  56  52  47
  52  49  47  38  29  18  15  21  36  62  39  12  15  26  15  25  58  67  66  69  70  92  99  91  78  65  79  99  91  68  55  59  48  34  45  35  22  25  38  43  30  13   2   6   3   2   4  12  22  28  20  11  18  26  35  27  15  20  29  34  37  66  81  95 112 109  86  66  41  34  20  15  23  10  28  27  27  28  25  44  31  10  41  54  47  45  42  39  38  37  30  26
  53  50  45  35  24  13  12  22  55  54  16  13  31  47  65  80  76  56  74  94 112 117 104  77  54  75  88  74  66  60  67  71  74  78  54  38  37  26  18  18  24  32  24  24  18   9   7   7  14  15  33  34  34  60  46  16  21  45  54  48  43  71  98 121 135 149 111  74  49  46  32  18  24  22  29  35  31  51  41  27  27   9  30  45  22  24  24  22  17  15  15  12
  52  49  43  35  24  15   6  19  83  70  18  35  54  63  40  25  53  96 117 112 100  54  30  36  38  46  33  35  49  67  96 102 111  97 101  95  93  91  88  85  70  46  26  26  28  23  20  22  32  44  57  77  47  54  23  13  29  54  45  42  74 111 127 132 123 115  81  44  52  63  58  30  29  54  40  28  15  21  50  28  13  27  40  48   8   9   9   7   5   5   5   5
  51  49  45  37  26  14   5  33 100  59  38  44  19  13  40  78  97  85  63  65  46  51  76  97  91  86  91 116 113 115  94  90  71  65  65  42  28  28  43  51  54  70  87  64  40  34  33  45  64  70  44  62  58  20   7  27  35  35  47  81 110 139 154 148 128 110  90  86 106 109  96  45  27  80 103  72  35  17  54  39  34  45  40  42  14   3   6   6   4   5   5   5
  52  50  46  37  26  17   6  59  79  46  51  10  11  52  63  65  65  68  92  88  78  91  90  88  78  67  87 105  88  69  45  44  37  24   8   8   7   6  13   6   5  13  24  44  63  52  46  57  88  62  33  65  40  18  34  39  41  60  94 132 157 151 163 168 146 128 123 123 146 144 116  67  34  63 127 115  66  50  66  54  19  29  34  31  18   6   6   6   8   9  10  13
  52  50  47  39  28  16  25  51  59  45  28  18  29  36  35  51  64 104  91  70  89 102 110 106  97  92  98  94  79  64  49  28  12  10  19  17  17  25  12  10  12  10  23  54  67  58  67  59  83  29  60  47  23  47  44  52  69 104 118 120 156 160 162 160 141 143 147 147 158 153 143  94  54  40  95 137 114  99  97  68  19  38  58  43  15  13  14  14  17  20  21  24
  50  50  46  44  35  26  29  61  70  33  20  25  25  37  65  52  71  78  68  95 108 111 124  96  88 104 111  90  73  67  54  38  49  66  51  33  42  31  19  16  22  34  37  68  98  87  81  83  56  35  49  25  35  42  62  70  85 123 143 142 174 168 167 166 161 162 159 153 162 154 154 128  95  84  72 127 153 115 109  79  38  72  85  67  26  20  25  27  29  31  32  34
  53  53  51  50  42  33  32  98  57  10  15  27  23  44  29  27  73  81  67  81 102 140  89  68 104 118 108  81  80  91  77  90 112  90  74  69  51  39  40  39  41  44  54  70  98  99 107  88  33  44  34  34  49  58  83 108 134 146 133 175 182 174 178 183 176 166 165 164 167 158 155 139 117 116  91  91 162 160 129  88  40  65  94  74  41  31  35  38  38  40  43  43
  54  51  53  49  44  36  47  89  42   4  15  24  27  20  19  61  64  30  54  95 130  77  57 101 124 109  93  97  80  77 115 133 106  73  85  91  52  58  59  61  46  56  63  80 104 121 108  58  44  42  38  55  72 102 128 147 146 138 169 179 181 179 184 184 177 172 177 173 168 173 171 150 132 114 114  70 117 189 177 107  60  37  90  92  51  38  44  46  45  44  46  48
  53  52  52  48  45  40  36  64  39  22  17  17  27  10  42  67  31  50  75 100  50  37 113 125 100  78  89  94  94 122 133 114  99  89  94 106  82  78  93  90  72  81 100 114 145 141  80  90  64  67  66  81 115 155 165 154 148 171 186 182 180 181 188 185 180 177 174 174 178 172 166 164 134 105  93  71  65 155 190 120  98  50  94 109  65  43  46  48  48  45  44  46
  52  52  48  47  45  41  36  43  64  39  16  31  17  17  60  53  39  64  84  34  31 110 114  74  80  80  80 106 134 131 121 123 107 100  98 102 130  98 114 137 139 146 159 185 172  85 103 116  79  76  88 133 161 179 165 156 184 192 188 183 184 185 190 192 186 185 183 178 173 157 147 152 131  94  83  54  55 110 176 136 108  87  93 141  76  38  41  42  44  45  42  41
  43  43  42  40  38  35  29  48  58  22  22  25  14  31  66  52  65  75  35  21  91 107  77  91  87  89 122 116 127 141 134 129  99 101 119 138 146 148 124 163 194 198 211 178  92 137 169 118 105 117 141 177 184 163 168 184 190 192 196 193 186 186 191 195 187 184 191 184 168 156 146 126 102  81  77  51  36  75 144 133 105 122 103 144  84  37  45  45  43  43  40  39
  31  32  35  32  29  25  19  43  43  16  27  26  22  49  63  77  59  27  22  59  83  77 108 106  88 112 102 117 156 133 135 128 109 115 142 153 164 181 181 157 198 221 174  99 161 195 172 120 124 165 185 178 177 184 193 196 200 199 193 194 191 192 192 190 184 187 191 176 161 152 151 143 109  61  60  55  25  46  94 109 113 144  92 118  92  37  40  41  40  38  38  40
  25  25  23  19  19  18  13  41  44  32  35  40  27  62  50  33   8  12  33  77  68  89  98  81  91  92 103 166 140 135 146 133 129 137 160 169 184 189 203 203 188 182 132 180 202 180 168 127 170 191 194 192 198 202 197 197 202 203 203 199 194 197 195 184 179 187 185 163 156 154 138 120 123  84  35  50  27  30  61  93 106 145  96 102  76  45  40  49  53  60  67  75
  14  14  12   9  11  11   4  18  56  34  32  37  50  62  10   5   4  24  71  80  61  81  87  86  80  98 148 146 145 149 136 140 143 159 175 183 199 203 210 223 180 127 195 210 193 200 116 157 207 201 200 199 203 206 204 204 206 207 207 203 196 196 192 187 177 181 185 162 151 135 118 121 107 102  54  32  30  17  42  88  98 132  99  81  87  91  86  91  96 105 111 123
   7   9   8   7   7   7   2  14  59  40  40  36  72  38   7   4  14  60  81  69  69  86  98  86  86 133 152 137 149 142 139 144 158 183 191 193 201 218 219 172 170 204 203 199 206 140 118 207 206 201 203 207 210 211 208 209 212 211 208 204 201 196 191 185 182 186 183 161 147 144 129 100  82  85  76  32  20  15  28  72  82  98  90  40  89 140 135 132 135 144 151 158
   6   6   5   4   2   3   0  16  53  42  36  49  52  26   8  22  40  40  51  59  75  98  81  86 111 151 147 139 141 136 146 151 180 198 204 209 211 205 172 183 219 219 194 198 184 127 202 209 203 202 207 208 208 212 209 209 215 214 210 205 201 193 186 184 189 184 173 157 135 132 124 106  75  64  75  46  10  16  16  51  73  77 101  40  83 173 165 166 169 175 180 179
   3   3   3   4   5   3   1  13  41  26  32  47  39  21  13  26  13  27  44  60  83  99  87 113 121 132 156 160 135 130 149 163 177 184 198 210 212 195 206 223 212 209 204 205 155 188 212 203 204 209 213 214 211 210 212 213 213 213 210 206 200 193 191 187 187 180 169 158 137 130 100  97  85  60  61  58  29  10  13  35  73  76 101  45  83 193 183 180 184 189 193 195
   7   7   7   5   3   3   2   9  38  25  37  50  35  19  34  14  18  25  43  74 102 104 101 130 124 138 158 159 140 135 150 169 184 197 206 206 211 219 223 215 211 205 207 171 178 213 207 202 203 209 211 211 211 208 212 215 210 207 207 202 199 195 190 184 183 178 167 149 139 138 106  95  73  50  47  49  44  36  33  41  52  77 104  46  95 205 196 193 195 198 201 202
  14  13  12  10   5   4   2   7  36  41  46  40  25  32  19  14  25  37  48  75 100  96 117 141 146 157 160 164 138 148 163 181 192 204 204 209 216 219 215 218 214 209 180 177 211 208 202 198 202 204 209 205 205 208 213 217 213 207 202 201 198 195 189 184 180 176 167 146 152 140  96  72  63  60  56  35  30  39  43  38  58  90  89  52  94 207 201 200 200 201 199 199
  24  21  17  14  11   7   3  10  38  49  42  35  32  28  12  28  32  34  38  67 105 113 131 150 159 167 162 168 156 164 179 188 191 202 207 210 216 215 210 214 214 198 185 201 201 198 200 197 199 207 206 206 211 213 216 216 212 208 207 203 199 196 193 187 183 180 166 152 164 150 108  77  56  42  40  41  43  44  26  30  37  88  78  52  62 202 196 197 199 200 199 199
  33  34  27  23  16  10   5   3  43  47  32  30  33  23  16  25  27  37  49  75 119 123 131 152 155 170 168 168 175 181 189 191 198 202 208 211 216 217 216 212 203 199 213 206 201 202 206 203 206 206 206 211 212 215 216 217 212 209 209 203 202 198 195 191 185 174 162 159 164 154 126  95  81  76  64  50  46  34  13  15  20  76  89  61  55 197 198 196 199 200 200 202
  43  43  39  30  22  13   6   7  44  41  30  25  30  27  15  13  25  46  63  82 119 125 132 158 161 168 172 177 183 188 194 199 205 204 208 211 211 218 216 213 210 217 213 214 213 211 212 214 212 213 214 213 215 219 217 217 212 209 206 203 202 200 201 196 186 172 161 160 161 143 132 100  78  57  43  32  29  20  26  19  16  69  78  63  92 202 201 197 194 195 201 205
  51  49  46  36  29  17  10  15  45  39  33  33  26  16   7  16  20  32  52  90 121 137 147 158 161 172 181 182 189 196 204 208 215 214 213 210 210 219 221 221 221 221 215 217 219 217 217 219 220 220 220 222 220 220 219 217 211 208 208 208 214 208 200 190 182 161 158 164 159 149 138 121  94  66  33   9  17   9  11  15  24  59  85  58 119 209 201 197 196 198 199 201
  51  50  47  42  37  29  19  19  61  45  29  40  25  16  28  34  29  58  73 104 125 137 146 156 160 172 183 190 193 200 205 212 224 226 220 216 219 218 223 224 226 226 225 221 222 223 221 223 221 222 223 222 221 222 216 218 216 212 213 220 220 209 199 184 168 156 158 168 162 154 146 124 114 106  70  20   9  16  14  13  33  59  94  60 148 206 196 196 198 201 200 201
  50  50  49  49  44  36  27  34  60  57  46  45  33  33  36  19  34  99 116 117 134 136 141 157 165 174 183 197 205 209 209 216 222 227 226 221 224 224 226 226 227 227 226 225 228 225 224 226 225 224 226 223 219 222 218 216 217 215 218 221 218 209 200 184 170 165 168 170 167 156 143 133 130 129 104  48  14  19  17  13  37  68  87  80 174 206 191 195 200 201 202 205
  50  51  49  45  45  42  35  52  82  75  33  44  31  33  23  15  59 125 129 118 133 142 149 164 165 187 203 212 219 221 214 217 220 224 226 225 225 227 226 228 228 228 228 229 227 226 225 228 228 228 228 224 221 227 222 220 222 224 224 226 218 212 201 185 181 182 180 176 164 153 135 134 138 138 128  82  43  23  25  24  42  79  81  73 155 205 195 197 202 202 204 206
  51  51  49  45  46  47  42  65 116  83  29  34  41  40  20  17  79 137 137 124 131 144 166 175 184 208 215 218 221 223 219 222 224 223 223 227 227 229 228 231 232 229 229 229 229 225 224 228 228 225 225 224 225 225 226 228 224 227 221 222 221 218 210 200 197 195 187 178 167 145 129 135 147 145 147 109  61  43  35  39  53  86  61  46  72 171 203 202 199 199 203 207
  48  45  44  46  47  51  42  79 108  58  31  46  52  29  20  30  89 148 148 129 128 157 187 181 169 179 195 202 206 218 216 213 227 228 227 229 228 226 226 228 231 226 229 226 226 224 223 227 224 224 223 223 224 225 227 227 223 225 218 220 223 217 210 195 199 202 190 192 175 147 141 137 148 154 153 122  86  59  33  52  67  67  46  73  80 139 204 205 199 200 204 207
  43  41  42  44  48  47  45 110 100  43  24  51  49  14  29  45 102 152 152 135 133 155 147 125 117 132 129 133 167 184 195 201 214 224 223 225 226 227 226 223 222 223 225 224 224 225 222 221 219 220 217 213 218 219 223 221 221 210 205 204 192 177 176 178 176 181 173 185 180 152 147 137 150 155 155 137 101  78  33  51  80  52  46  63  79 156 206 200 202 205 208 205
  44  44  47  45  47  46  60 160  97  37  45  52  42  32  48  76 119 154 160 133 124 117  95 100 102 100  96  83 101 107 109 129 157 184 195 206 213 217 221 219 217 218 217 218 218 219 216 217 214 209 207 207 204 202 188 160 154 159 160 165 155 145 139 129 132 137 133 127 142 140 142 142 155 159 149 145 124  83  68  49  78  74  70  35  73 156 205 199 203 208 210 208
  48  49  50  50  48  41  91 175  42  92 109  60  36  45  62 102 134 162 161 134 106 100 102 105 118 127 125 101  79  72  64  64  74 103 141 166 187 193 203 205 210 214 212 213 215 214 211 209 204 191 190 184 181 150 119  83  85  98 100 100 110 114 110  99  90  90  96  95 102 115 127 142 155 163 154 145 135 112  88  58  75  70  90  45  70 161 207 200 204 207 207 210
  52  52  52  51  49  43 126 158  43 148 115  60  34  46  91 109 141 163 164 136  99 103 116 140 169 177 170 157 147 125 104  89  73  70  87 108 140 164 171 183 196 202 205 209 215 207 204 195 186 180 170 168 139  88  89  73  60  62  69  71  81  83  88  93  87  89  93  88  88  99 126 139 151 164 158 145 145 123  98  62  64  63  95 110  86 165 205 202 203 204 204 208
  57  57  56  54  51  47 154 116  74 172 123  48  36  58 103 114 158 167 165 143 105  97 118 140 164 170 168 167 165 150 143 130 112  93  86  87 105 133 142 158 182 190 200 214 211 204 196 184 171 166 141 124  96  87  89  81  85  97 100 103 104 106 119 126 117 112 107  98  95 119 138 143 161 163 161 151 135 142 107  79  54  66 107 144 106 154 203 204 205 204 205 206
  62  61  56  53  51  61 160  90 128 197 125  40  41  79 130 129 162 170 163 146 130 118 118 143 153 133  83  61  45  38  41  44  64  79  85  89  87 104 128 149 170 177 190 208 208 200 182 160 157 150 122  92  84  84  76  62  50  33  29  30  32  38  38  59  98 135 141 125 127 142 131 142 160 160 160 155 136 131 117  87  53  64 146 170 146 148 201 202 201 203 205 207
  65  63  59  54  47  69 158 124 187 201 142  55  52 106 119 125 171 172 160 149 147 129 133 142  96  41  34  15   2  54  53  27  53  61  62  70  81  80  95 122 143 156 183 211 208 190 170 149 125 106  84  69  71  60  53  48  13  21  20  45  15 102  94  41  24  52 112 151 148 133 142 150 162 162 162 158 152 126  97  98  54  54 124 166 172 152 199 197 198 202 204 206
  63  63  59  57  51  59 152 139 205 198 149  57  54 101 110 124 164 167 167 164 161 143 140 103  49  38  98  58  30  66  60  88 171 124  85  74  68  74  72  76  94 143 187 213 215 199 181 154 111  78  69  67  61  58  56 107  89  52  59  51 104 221 186 125  90  55  58 106 128 140 156 161 168 164 157 157 148 117  81  97  77  45 101 164 194 165 198 195 196 202 204 207
  62  61  57  58  57  54 133 164 206 187 157  83  47  90 122 137 169 168 171 170 175 172 126  86  92 133 171 155  76  70  79 182 237 193  92  79  88  82  76  78  78 126 191 218 224 213 200 164 103  84  79  83  97  84  80 149 193 122  96 132 210 214 189 169 147 124 118  93 114 154 163 175 175 163 155 155 143  96  77  78  93  68  99 176 210 177 199 201 200 202 204 205
  61  58  57  60  56  48 124 174 212 178 163  79  52  84  92 130 169 175 183 180 184 176 144 118 129 158 181 193 195 171 185 227 218 206 165 131  92 103 139 114 105 129 199 227 226 220 213 169 117 115 118 163 122 117 164 180 196 207 198 199 188 191 200 184 152 146 163 156 156 163 173 181 171 164 157 157 138  83  72  62  78 106 105 164 205 179 200 202 206 206 204 204
  53  56  58  59  58  50 109 174 218 182 159  90  84  88  73 119 162 179 185 182 179 179 185 177 151 142 167 196 203 202 190 189 185 184 195 202 186 177 202 187 153 147 196 231 232 229 218 182 140 139 182 204 188 208 193 175 178 187 191 202 207 215 205 159 127 157 159 171 182 178 184 184 173 161 156 153 138  83  62  66  69 131 144 164 195 175 199 204 207 206 205 204
  51  56  57  59  62  53  91 165 212 196 147 104  87  71  90 125 156 173 184 183 177 184 190 188 163 125 122 149 175 187 183 165 151 138 152 181 203 205 205 202 172 165 208 232 235 228 218 201 156 155 186 190 202 195 168 138 126 150 175 181 175 166 133 106 120 143 175 188 187 185 194 185 171 162 159 152 127 106  80  57 101 166 157 165 180 164 204 203 203 203 204 204
  53  55  57  61  63  53  69 156 205 204 137 115  60  58  85 116 158 169 182 188 183 187 188 191 181 157 129  95  98 107 111 111 112 137 169 184 184 190 199 198 172 185 225 235 235 229 221 208 174 154 183 189 191 191 192 182 163 126 101  95  88  89  92 119 160 187 196 196 187 190 199 191 174 166 159 153 129  84  66  73 117 163 138 171 172 154 205 205 203 202 204 204
  57  58  58  60  61  53  56 153 184 212 159 143 117  72  68 117 162 163 178 184 187 190 192 197 192 200 195 169 150 138 149 165 184 198 201 196 201 218 211 195 172 208 231 236 233 232 229 212 192 154 177 214 223 216 206 206 212 210 196 182 175 177 189 203 202 205 201 194 191 193 197 192 181 166 159 148 118  76  62  83 132 141 124 168 141 150 204 204 203 203 202 201
  57  59  62  62  59  51  49 147 166 195 166 120 130  93  71 118 153 165 174 186 190 194 197 201 198 206 216 223 218 212 214 213 204 205 209 218 229 222 206 183 174 219 234 235 231 233 231 220 209 162 167 199 224 231 227 220 212 210 213 213 214 215 214 210 204 205 205 202 198 194 193 191 183 170 157 149 128  81  55  73 137 128 154 166 120 151 201 201 202 203 199 197
  62  65  67  67  58  54  43 133 181 153 187 158 123  80  65 109 149 157 176 188 194 202 202 203 208 212 217 219 212 208 209 209 205 213 220 230 224 209 195 167 164 212 235 237 229 230 228 219 187 152 159 181 216 228 229 233 228 215 211 214 212 218 211 207 209 206 207 206 200 197 195 188 181 172 155 147 128  66  41  76 124 152 165 140 133 155 196 198 203 203 200 199
  71  75  71  67  60  58  43 118 204 146 201 197 149  80  63  93 142 158 177 190 195 200 205 208 213 216 218 218 215 212 206 209 212 218 223 230 218 200 181 161 164 201 230 232 229 230 222 195 155 150 156 171 195 216 223 227 235 232 223 221 222 221 218 215 209 206 208 207 202 198 190 182 184 176 161 142  97  54  58 131 128 183 180 158 156 157 201 203 201 199 199 199
  76  79  76  75  70  65  51  96 203 176 168 202 180 126  70  75 130 152 171 182 191 193 202 209 211 215 217 221 222 221 222 228 229 225 226 225 210 190 172 160 167 199 226 231 228 228 214 181 162 166 163 165 185 208 219 224 225 233 232 229 228 225 222 218 210 204 207 209 202 198 192 182 177 169 155 130  86  34  78 159 186 201 194 181 163 168 204 206 202 198 198 198
  84  81  86  88  82  75  60  79 182 200 187 196 197 176 100  67 111 140 163 182 186 190 196 203 210 214 221 228 232 234 238 239 238 236 230 222 202 181 165 164 171 190 217 231 220 217 205 182 175 180 178 179 184 203 215 222 224 230 233 236 230 226 222 214 206 206 209 208 199 196 190 181 170 161 150 125  69  36  99 146 187 188 191 169 144 182 206 202 202 199 198 199
  89  92  99  99  94  87  77  68 148 195 200 203 191 168 107  59  94 135 165 182 189 195 197 204 206 212 219 230 236 240 242 242 240 238 230 217 199 185 169 169 168 191 213 223 217 216 199 178 175 183 184 184 185 198 212 219 229 235 235 234 231 227 221 212 204 203 206 203 196 192 180 175 164 152 143 125  51  42 108 150 172 179 182 157 139 198 205 204 203 203 200 196
  98 105 115 113 105  94  89  74 105 180 206 207 197 187 140  68  80 125 160 181 185 194 201 204 206 211 216 225 232 236 238 242 241 236 227 213 200 189 177 176 177 197 215 227 225 215 201 182 184 189 180 174 187 197 208 216 228 234 233 230 230 226 222 215 206 204 203 197 192 179 169 168 161 149 127 114  48  50 114 168 176 182 161 128 172 207 203 202 204 205 203 197
 108 120 125 123 118 107  98  88  79 134 201 201 191 194 183  91  74 116 144 172 187 191 197 203 208 209 214 224 231 232 236 238 239 234 231 213 200 188 184 180 186 196 216 235 233 220 200 182 186 182 175 164 172 187 204 215 220 226 231 229 226 222 220 214 206 204 198 189 180 168 166 162 163 146 119  98  65  71  88 132 147 131 121 163 206 203 203 202 204 200 199 198
 114 125 130 133 135 128 110 102  99  92 129 157 170 161 123  68  88 107 125 160 182 186 198 202 205 209 214 221 229 232 235 236 235 232 229 215 198 186 187 183 186 196 221 238 234 220 199 184 187 181 169 157 153 173 196 213 221 221 226 226 224 218 213 210 203 203 196 188 176 167 162 160 154 128 116  88  59 152 152 125 122 137 181 202 198 196 201 203 199 194 192 197
 120 127 134 145 148 140 122 112 115 122  71  26  50  49  17  38 102 106 121 151 163 181 197 200 200 201 211 220 225 229 231 231 233 232 224 208 192 177 185 189 190 194 217 236 233 215 189 183 179 178 177 172 157 163 191 207 220 221 225 224 223 218 211 205 200 199 188 180 172 165 158 155 138 114  99  60  64 159 203 208 203 206 204 197 193 193 200 198 195 193 190 193
 117 127 137 155 157 146 133 122 131 106  13   0   0   0   0  37 110 122 117 147 156 169 189 193 195 201 208 215 221 226 227 227 225 222 214 201 186 174 180 187 188 191 207 231 229 199 180 172 178 188 193 182 162 158 190 199 210 221 219 221 221 215 209 202 198 194 182 173 167 160 156 145 135 119  89  53  63 158 188 200 198 198 197 197 193 192 198 196 194 192 192 189
 115 125 136 154 157 150 139 138 134  30   4  10   7   5   0  29 113 122 114 147 154 165 183 194 195 202 205 213 213 219 223 223 219 212 204 200 177 177 195 189 180 183 199 230 229 199 180 181 194 208 201 175 146 145 190 203 200 211 212 214 217 211 206 201 196 188 179 168 162 156 150 139 135 123  95  65  79 164 186 195 197 198 196 194 195 197 197 193 190 188 191 185
 103 117 135 140 147 146 143 150  73   6  16   9   7   6   1  20 105 131 124 143 157 159 179 191 196 203 207 210 210 218 224 218 214 206 206 199 155 172 205 201 181 186 221 238 234 203 176 187 195 202 193 163 126 144 186 200 200 206 208 209 208 206 199 196 190 184 176 165 158 153 148 138 131 124  96  62 100 175 179 193 200 200 193 192 196 198 195 191 188 185 181 178
  88 105 120 128 136 138 147 117  13  16  19  13   8  10   6  16  95 124 128 157 166 153 172 185 195 200 203 206 213 219 220 217 214 207 207 206 147 128 182 191 178 201 227 224 229 213 184 187 190 188 163 121 109 163 192 202 202 204 204 210 204 200 194 192 186 177 168 160 152 149 148 140 128 117 100  57 124 168 170 188 201 197 193 191 193 192 192 194 192 185 173 172
  83  94 101 112 126 134 154  74   6  24  19  13  14  17  17  13  80 120 125 164 167 158 163 182 196 198 200 203 208 212 212 214 213 211 210 198 153  75  89 146 171 211 204 202 203 211 198 176 153 105  59  57 117 182 199 207 205 200 205 207 204 200 194 187 181 175 163 157 150 150 149 144 126 114 100  56 133 171 172 187 195 194 192 191 191 187 187 192 191 188 178 173
  68  80  88 100 119 133 114  32  16  23  20  15  19  21  23  15  69 113 121 161 169 165 153 169 191 196 197 202 200 204 207 209 209 217 211 187 165 108  34  54 106 150 167 163 157 172 173 118  55   9  10  68 140 171 203 209 205 200 197 206 208 199 194 184 176 167 158 153 149 147 153 144 139 122  88  70 146 174 175 186 193 193 191 189 189 185 183 188 190 187 182 174
  58  67  86  90  80  47  22  22  19  23  25  20  26  23  22  20  63 101 134 165 175 171 145 157 178 191 190 195 201 201 206 209 210 211 205 192 184 144  92  36  48  77  98 105  93  91  73  34  38  55  57 113 140 169 206 209 210 204 190 192 199 196 189 181 167 163 157 150 148 147 156 143 114 119  91  98 161 175 179 187 192 191 190 188 188 187 189 190 188 183 180 177
  59  59  55  36  10   6  29  30  18  25  24  25  27  21  21  20  71 107 125 156 164 175 148 149 166 179 188 193 197 203 208 202 188 196 192 180 166 117  72  71  75  57  43  37  43  39  32  54  66  77  66  93 137 181 198 201 207 200 198 194 194 193 189 176 162 160 156 151 154 149 150 142 113 112  86 103 156 171 180 193 207 202 193 187 188 190 190 191 188 181 178 170
  39  28  16  10  13  27  29  29  19  25  21  20  26  27  25  19  65  97 117 128 151 168 161 146 158 175 183 191 198 209 196 175 162 168 176 172 133  97  83  74  90  98  37  26  21  16  49  82  58  65  84  89 113 160 192 191 173 177 185 192 190 183 184 173 160 153 153 150 161 157 136 137 123 128 101  67  20  41  64  89 129 161 190 202 197 189 185 187 188 184 175 164
   9  18  27  18  19  30  28  24  18  22  21  25  32  31  28  18  59  97 125 122 141 164 165 148 146 168 175 186 211 198 147 151 138 136 133 134 107 102  99  88 102 131  80  33  21  37  87  79  67  80  83  74 102 135 164 174 163 147 156 168 171 181 172 166 152 144 149 157 159 157 128 127 110 122 110  64   2  13  14  14   7  19  55 105 157 190 190 186 185 183 176 163
   7  26  33  24  23  28  30  29  15  21  20  26  33  32  25  17  42 119 108 118 136 144 160 151 144 150 166 183 182 149 130 136 107 109 101 129  99  91 106  90 124 128 103  87  38  61  98  65  85 119  82  60  81 115 133 127 144 111 129 152 145 149 166 151 148 128 144 164 148 153 128  98 116 123 120  47   8  24  24  26  28  24  19  18  26  62 131 190 197 181 173 167
  11  30  28  28  24  26  34  32  14  19  26  27  28  24  19  11  36 104  94 119 129 142 167 143 146 162 160 180 153 144 124 113 103 121 112 110  74  55  96 108 101 127  91 114  91  69  83  60  88  90  80  78  70 104 107  99 119  94 125 160 132 115 149 151 149 132 140 165 144 135 122 107 130 132 122  24  11  17  18  21  24  24  25  26  23  21  25  65 140 186 179 170
  14  24  32  35  29  30  41  39  21  13  30  29  32  27  21  13  25  85 108 106 115 164 165 134 134 155 154 158 147 127 111 125  99 125 134 120  90  76 109 129 102 138 141  87  89  81 106 109 124 111 107 102  71  62  79 114 113  91 129 148 133 108 111 137 150 136 142 165 157 131 121 126 107 136 113  11  15  15  18  22  21  21  26  22  21  31  29  25  29  85 166 185
  14  19  29  33  44  37  38  46  29  10  23  28  32  25  23  16  14  78 115 102 100 154 147 145 154 142 139 147 154 104  95  98  73  94 114 137 141 128 135 151 142 156 136 120 110 107 132 146 137 144 131 132 108  96  87  93  97  68  83 113 105  61  87 138 147 146 141 154 152 134 132 108 107 134  84  16   9   8  14  18  18  19  22  21  22  23  25  27  33  21  52 134
   6   7  27  36  40  39  37  36  28  15  23  31  30  29  19  16   8  68 103  94  99 132 152 169 152 137 151 146 136  74  57  72  58  37  59  83  82  76  75  79  92  97  93  95 118 108  92  85  88  99  86  84  86  79  65  46  45  40  49  78  83  82  98 126 136 154 143 157 126 114 131 110 118 104  19  16  20  17  13  12  17  19  26  24  27  26  25  19  28  32  25  35
  40  30  26  35  37  37  31  38  33  12  19  28  31  31  29  19   9  35  96  73  85 120 147 163 123 136 154 141 147  95  89  94  80  82  92  86  98 126 112  97  79  85  92  71  59  45  37  43  56  56  59  69  58  57  77  85  94  89  99  90  79  99 115 117 125 139 147 156 117 120 104 117 119  75   5  13  18  20  16  15  19  22  24  24  23  28  28  23  23  28  29  32
  82  37  28  31  38  47  38  36  38  18  12  20  30  36  30  20  10  27  41  85  88  88 115 142 141 134 157 160 178 138 107 137 153 180 172 173 182 191 207 205 189 200 199 175 149 137 143 162 177 192 199 184 174 162 157 161 173 168 146 130 105 110 108  94 120 113 128 147 130 127 112 125 106  41  11  14  14  15  18  20  21  19  22  27  23  24  24  25  24  29  38  33
  25  33  39  38  46  56  43  29  43  20  11  22  34  32  29  22  13   9  25  93  97  85 120 119 133 132 146 137 160 161 127 129 151 178 187 168 164 190 208 215 227 231 228 224 221 219 222 225 228 225 213 195 179 172 175 179 176 158 129 126 129 101 111  82 105 118 123 145 134 113 114 113  50  31  29  21  20  23  23  23  19  24  23  26  28  34  31  37  47  42  45  46
  38  37  24  45  49  61  56  34  42  26  11  23  35  34  28  25  17  10  19  38  79  69 109 116 120 116 115 108 147 153 121 130 158 171 181 184 169 178 183 197 212 216 213 208 208 206 198 195 203 192 176 172 161 163 158 155 161 168 137 115 108 102 115  78  95 137 125 152 137 111 103  89   4   6  23  18  25  28  26  31  35  36  43  47  39  37  46  41  43  46  46  51
  52  24  16  30  56  60  71  37  44  44  17  17  31  31  29  30  19  18   9   7  36  58  90  93 136 117  91  88 139 111 109 153 173 164 167 162 166 175 179 178 165 166 149 154 143 128 140 133 148 154 136 122 140 145 132 138 164 174 155 125  88  85  99 102  97 144 143 139 124 126 112  38  11   3   1   5  10  14  16  23  20  17  17  15   8   4   8   5   3   8  12  35
  29  28  29  12  46  51  66  48  46  47  15  16  30  28  37  38  31  19  14  15   8  35  42  76 110  92  69  79  94  84 114 149 167 152 174 171 156 143 144 152 125 129 125 132 131 109 160 143 119 123 116 107 120 140 130 137 140 156 182 163  95  81  74  88 102 136 147 117  96 102  66  16  21  17   1   0   1   1   1   1   1   1   1   1   1   2   2   1   2   0   1   6
  31  43  37   4  39  61  52  49  47  45  23  12  21  27  34  39  30  17  14  19  11   9  48  82  71  77  90  96  92  96  99 140 183 169 163 159 162 136 118 128 130 126 145 169 122 139 144 159 103 109 131 133 133 154 144 151 150 160 177 166 112  92 104  88  98 135 108  97 105  50  15  20  23  26   8   1   3   3   3   2   2   1   1   1   1   2   2   2   0   2   4   1
  50  54  37   4  41  62  39  46  42  45  39  16  15  26  31  35  24  22  15  15  15   6  42  71  61  75  97 108  87 113 130 174 198 158 144 178 177 153 147 121 101 113  99 173 120 158 131  91  89 129 154 161 172 176 156 162 168 131 126 118 106 103 112 120  92 119  94  71  71  13  13  21  22  26  24   2   2   2   2   2   2   2   2   2   4   4   3   5   7   4   2   1
  54  52  28  10  38  71  59  52  51  52  51  35  16  19  35  37  38  33  24  20  19  15  10  24  46  58  80 108  88 129 154 155 138 109 141 188 155 148 142 134 115 116 116 129 145 147 128  96 117 157 170 206 186 179 174 169 168 169 153 144  88  92 105 107  92  90  75  51  20  20  17  19  25  28  31  16   3   3   5   5   6   8  14  16  15  20  22  20  24  25  24  10
  51  41  21  14  14  59  63  47  55  44  54  49  19  17  37  45  33  38  24  21  19  20  18   9  19  25  58  88  80 101 130 123 121  94 158 196 182 175 179 165 168 177 150 105 110 142 128 135 156 161 175 200 212 216 200 178 176 165 149 154 102  88  85  82  71  88  57  10  11  28  22  18  25  19  30  30  17  11  14  15  17  21  26  20  22  30  31  29  26  33  39  34
  40  38  28  14  14  22  59  50  50  45  50  49  34  13  27  36  28  33  26  19  23  22  18  14   6   5  24  69  72  71 109 148 137  94 162 188 194 203 221 204 179 160 161 159  92 120 147 166 177 178 172 191 207 212 202 156 154 147 138 140  98  69  63  49  78 103  27   0  19  28  28  18  20  20  26  37  27  15  17  21  22  22  22  24  29  38  34  26  26  33  31  35
  39  38  30  35  23  12  67  63  69  54  55  42  38  15  15  35  38  33  27  27  24  27  18  17  13   3   1  40  76  75  78 124 110  96 149 155 188 214 223 202 166 152 189 204 102 112 154 165 183 181 171 201 209 179 162 163 126 117 122 110 117  57  33  58 110  81   2   5  15  23  26  19  21  27  26  29  36  21  15  21  19  19  23  28  27  36  37  26  26  29  35  29
  56  42  22  31  24   6  56  79  53  42  53  47  38  25  16  27  42  40  31  34  25  28  23  24  22  10   3  25  39  64  82  91  80 114 137 121 167 210 190 168 152 148 185 210 130 107 158 178 191 186 151 182 196 162 143 157 121  86  96  73  64  31  63 102 110  40   0   5  12  20  22  21  23  24  26  23  38  29  21  19  21  22  20  26  26  24  26  30  29  23  32  33
  50  39  26  26  20  14  38  78  55  44  41  44  35  24  20  19  34  40  32  36  32  24  21  25  20  10   6   0  15  49  53  61  66 112 106 101 164 163 144 147 153 158 189 190 154 130 161 203 188 174 167 168 175 125 122 137  99  67  81  64  37  59 105 106  86   8   2   7  11  22  24  19  20  20  27  22  25  40  25  20  27  26  26  22  23  23  30  34  29  24  26  30
  46  41  29  26  31  38  27  74  56  51  41  49  37  29  19  20  35  42  35  26  32  32  23  22  22  19  14   2   1  34  51  42  61 110  65  89 117 140 139  99 131 171 187 149 157 169 139 155 168 145 157 153 162 115 101 131  94  57  47  34  63 102 106 108  45   0   4   8  10  17  28  19  16  29  30  28  24  33  38  37  27  23  30  23  20  23  29  40  35  30  27  22
  51  46  44  39  38  39  14  65  52  40  45  46  42  30  12  20  36  42  32  31  34  33  31  30  28  22  18   8   1  19  60  51  50  89  93  74 111 158 136 108  97 136 146 126 164 155 144 124 140 144 139 132 132 125 100  87  64  29  22  63  94 106 107  90  14   5   4   8  12  21  27  22  18  27  28  23  21  30  40  38  30  20  27  27  24  29  32  33  42  44  28  23
  46  45  49  47  46  33  14  58  65  45  44  47  40  29  17  21  38  40  36  43  39  31  30  27  23  24  17  10   3   6  47  86  82  52  52  96 117 125  90  96  92 115 119 143 174 121 120  99 139 137 127  98  80  73  79  85  80  49  65  85 100 107 102  65  18  20   2   5   8  15  25  22  21  27  26  26  33  28  29  38  41  33  25  24  21  24  28  33  41  36  30  27
  54  50  48  50  43  34  38  58  80  54  44  50  45  34  19  23  37  39  40  42  45  35  26  24  25  20  22  16   8   2  27  75  96  67  37  87 112  90  72  82  91  94  94 123 165 106 103 101 118 110  96  71  50  46  53  55  60  64  83  98 113 105 116 117  36  36   2   5   7  11  27  25  18  26  29  27  35  29  31  37  32  44  24  23  25  21  18  24  35  35  32  30
  59  59  47  40  40  57  39  41  81  53  36  49  56  45  22  19  29  40  40  36  40  43  37  27  31  26  28  20  14   5  11  48  76  79  75  59  62  48  63  80  79  82  85  88 106  89 101 122  88  76  75  38  42  34  66  55  71  78  96 113 114  89 151 166  48  48   1   4   6  13  23  21  25  31  31  25  28  34  31  27  35  41  43  26  28  24  26  23  26  43  34  27
  49  46  35  47  66  46  25  47  71  56  42  44  41  42  31  21  28  42  44  44  46  47  38  31  38  32  28  24  21   9   4  37  71  84  90  83  66  34  39  72  46  52  48  57  95  81  77  86  51  40  58  37  28  31  50  57  74  96 106 111 108  78 141 176  83  62   1   4   7  12  25  25  29  25  31  30  29  29  34  33  34  47  43  33  16  26  29  28  33  34  27  21
  38  40  53  58  50  40  50  31  58  60  37  34  30  31  26  26  29  39  42  44  39  43  41  36  35  36  37  27  26  13   0  27  59  87  93 100 103  86  64  65  43  53  33  41  57  47  47  35  52  49  32  59  59  57  65  79  92 103 105 110 101  65 140 183 111  79   3   4   5  10  31  26  23  28  33  39  26  24  36  36  33  35  31  34  27  24  25  29  34  28  23  20
  40  45  70  54  39  54  32   1  43  56  46  38  41  29  30  35  33  35  43  42  43  44  36  40  39  38  36  35  25  18   4  17  52  81  97 107 111  99  90  91  80  71  59  63  53  62  64  71  75  62  67  73  60  75  86  91  99 105 112 108  95  50 145 178 109 118  29   1   6   9  28  28  23  27  37  44  33  26  25  31  32  31  31  49  42  23  32  32  30  22  18  19
