P2
# Generated by OpenCV 4.2.0
92 112
255
 203 217 208 214 212 205 207 218 212 212 205 204 207 218 206 216 205 179 190 215 199 205 203 207 199 190 168 184 188 160 146 146 146  76  78  81  80  80  85  94 108  87  66  94 103 116 131 143 119 106 101  98  89  84 102  84  86 103 103 100 151 167 178 185 199 194 199 196 191 191 194 194 193 197 188 185 189 191 189 195 196 198 194 196 198 188 187 191 195 195 205 201
 206 211 221 208 208 204 207 210 216 212 211 212 212 208 198 216 213 205 211 203 206 210 201 202 215 192 172 187 151 134 128  96  52  78  59  60  66  58  46  53  53  81  81  71  79  92  89 101 103 116 107 113 121  92  89  90  97  81  96 102  87 107 169 196 185 198 196 193 193 190 185 194 197 197 190 194 191 188 188 192 194 194 186 186 188 186 192 195 198 198 201 193
 203 213 218 206 215 213 197 201 218 210 208 202 209 204 205 212 196 206 212 204 209 197 202 213 193 170 178 131 131  91  83 102  99  86  82  88  84  98 102  71  47  46  68  79  78  67  64  57  92 109  88 103  86 102  82 114  90  97  93 105  96  94 102 140 175 180 184 186 196 194 191 200 197 195 193 200 195 190 191 190 194 195 190 187 184 185 188 185 194 194 194 194
 204 206 217 207 213 213 202 205 215 205 216 206 216 193 196 185 168 200 198 202 207 203 202 200 190 167 112 128  69  72  70  68  97 115 142 144 140 130 116 108 115 105  70  53  65  53  47  68  96  61  74  90 105 105 103  80  72  76  92  96 101  96  94  93 112 167 175 194 193 192 193 194 196 203 198 197 195 193 195 194 191 190 187 184 184 187 186 191 203 193 191 187
 207 212 215 202 213 209 199 212 197 203 207 213 206 175 173 176 170 178 180 188 207 207 192 170 175 119 109  69  66  97 115 120 114  92  73  69  83  69  70  61  72  82 115  84  51  52  51  69  44  63 113  74  92  79  78  82  75  82  77  90  81 101 100 104 103 119 161 176 192 200 194 201 196 207 195 194 199 195 198 195 192 192 182 179 183 181 183 195 194 188 191 191
 210 216 213 212 214 206 203 205 207 213 215 215 194 171 168 197 193 178 171 173 199 185 178 169 107  75  74 100 108  91  79  75  85  83  86  79  85  86  93 101  99 102 101  99  82  57  48  53  51  71  60  73  55  52  51  56  61  59  64  68  73  92  93  91  92  86 115 157 175 182 197 194 200 205 189 193 198 195 195 191 191 191 196 192 178 178 185 189 182 183 194 191
 205 215 213 213 199 214 213 205 209 212 217 210 203 195 185 219 205 186 179 178 168 175 164  94  61  81 123  73  64  73  77  72  73  83  94  96  94 102 104  95  75  67  74  93 101  97  84  38  40  51  55  61  67  63  77  79  60  68  57  57  48  53  74  89  85  83  78 107 155 186 187 189 187 179 188 193 205 198 193 187 185 188 195 184 172 183 199 196 184 185 189 184
 211 216 214 209 203 212 201 214 206 202 212 205 204 199 198 213 210 210 201 153 193 129  95  56  90  98  79  66  88  68  89  89  49  37  28  30  29  31  38  74  98 112 101  79  72  85  80  82  41  54  54  75  63  72  69  62  69  64  71  64  56  50  30  50  69  76  83  69  86 108 165 182 180 177 194 194 193 183 187 191 181 187 184 179 185 188 187 189 186 191 197 191
 204 213 215 213 186 181 210 212 200 197 212 204 196 196 212 208 201 190 202 174 133  72  68 101  85  69  78  63  76  93  41  38  33  44  37  42  42  41  34  29  48  85  96 110  81  73  72  67  72  64  41  69  58  85  97 104  97  95  87  87  71  57  61  44  40  61  68  77  70  91  89 132 198 174 192 192 186 179 179 188 190 189 183 185 190 185 187 188 191 187 195 193
 200 201 209 202 162 184 218 204 206 203 217 214 198 209 196 209 209 196 166 106  73  91 104  68  58  64  50  96  71  19  40  55  80  80  76  62  51  49  46  61  31  36  89  96 134  92  50  61  61  61  56  75  92  95  98  95  97  84  94  90  86  75  60  55  50  42  39  62  79  61  81  98 117 169 183 186 187 179 179 186 185 185 188 195 198 193 185 193 196 190 193 188
 204 188 189 185 181 202 216 203 202 202 215 216 205 209 205 220 217 164  99  75  90  76  52  67  55  63 111  52  55  67  73  52  44  30  43  67  74  66  55  28  61  39  45  77 110 118 106  46  48  61  66  48  79  79  75  94  80  98  77  85  84  85  81  65  60  57  45  41  48  74  69  65 102 116 142 182 193 184 180 178 179 195 192 193 196 192 184 194 194 193 191 190
 211 197 201 200 194 198 208 203 196 199 212 221 204 206 216 209 154 114  49  82  75  42  78  39  74  97  63  52  52  50  55  63  62  57  57  40  26  61  71  70  32  63  25  63  86  82 112  77  63  48  63  48  59  84 109 100  86  74  78  61  75  83  79  77  64  51  49  46  37  39  80  52  54 101 122 138 174 188 182 169 183 189 192 187 187 190 185 196 191 191 192 191
 207 205 203 199 199 200 212 210 205 202 216 211 207 209 194 163 126  62  63  71  46  67  36 100  87  62  49  53  38  26  11  32  63  57  50  37  63  29  58  62  69  39  50  32  58  76  73  91  77  58  64  69  97  55  62  72  67  53  65  68  69  71  73  80  75  62  53  55  53  32  45  62  49  52  88 127 134 152 174 175 182 182 180 188 194 193 196 196 188 196 194 188
 210 207 200 202 200 208 212 203 201 198 204 200 201 185 173 129  62  66  65  45  68  46 111  84  60  47  52  15  30  43  64  76  37  89  81  83  35  51  28  59  64  57  54  33  44  54  45  77  71  83  68  58  51  44  38  31  57  71  90  90  88  89  86  86  89  91  75  65  57  54  33  37  67  54  51  85 138 161 154 172 179 170 178 188 199 202 195 190 190 196 184 183
 214 208 193 201 202 214 207 202 203 199 200 204 184 170 115  67  74  56  54  71  54 109  90  43  41  47  34  52  63  85  92  80  83  39  68  87  53  26  27  32  64  60  53  62  45  54  47  70  62  86  80  66  47  61  77  94  98 105  90  77  71  81  84  82  73  69  63  78  65  59  63  34  44  49  59  56  95 133 178 138 161 174 178 184 191 198 187 188 187 189 188 191
 208 201 191 208 204 211 201 203 200 204 202 196 170 105  61  70  60  73  41  59  78  92  41  44  39   7  16  11  23  53  65  82  75  84  48  79  69  55  25  26  60  54  64  69  53  56  60  64  67  95  90  91  70  77  86 113  99  91 101 109 111 104  96  81  72  72  65  62  72  68  61  37  37  35  47  52  52  87 149 190 149 168 186 174 189 189 190 190 182 190 196 196
 202 201 192 199 202 204 200 196 199 203 188 172 100  67  75  64  81  21  74  75  99  38  36  40  14  24  21  20  17  21  26  62  64  83  73  49  82  68  45  49  53  73  53  66  74  76  83  87  74 106 123  88  64  63  72  77 111 122 111  99  98  86  85  85  76  70  64  57  54  66  68  62  40  43  35  48  51  50 104 174 173 158 162 177 185 183 182 191 187 193 200 202
 206 208 199 198 206 204 201 190 206 200 167 106  85  63  48  67  16  85  72  90  52  35  28   9  18  10  10  10  15  28  25  44  57  61  73  62  59  75  66  68  74  72  78  76  92  95  86 113 108 133 105  78  79  65  78  92  54  67 109 104  76  64  59  61  76  71  51  59  54  51  68  73  67  54  36  38  42  57  64 122 172 151 162 181 184 180 181 191 198 196 192 196
 214 207 198 201 203 212 197 200 187 172 114  80  61  48  50  40  88  73  98  69  37  27  19  27  17  14  26  33  32  29  54  50  72  66  74  79  74  76  73  75  72  99  98 111 107 133 125 128 134 133 124 113  97  81  70  66  88  64  40  54  61  39  15  11  11  46  71  55  51  49  41  66  62  53  53  43  29  40  59  72 142 176 155 176 191 180 183 184 196 195 195 201
 205 203 192 198 205 202 206 191 185 119  90  61  57  37  52  66  69  78  91  53  24  22  34   1   5   3  18  33  59  80  94 100 103 104 102 112  97  78  78  83  86  99  94 119 152 144 144 155 167 165 154 146 125 125 114  92  77  70  61  51  36  38  39  17  15   7  23  61  56  43  40  59  70  75  51  50  41  29  28  61  76 159 161 153 186 185 187 177 190 191 190 194
 206 206 197 206 200 204 198 197 121  72  75  61  44  59  51  62  72  86  65  25  30  34   8   6   3  19  45  83 122 134 143 140 137 134 131 127 111 109 109  89 101  97 103 119 150 152 158 164 190 191 191 187 174 167 161 156 143 130 118 108  82  52  33  41  27  19   4  29  52  55  44  37  47  59  68  62  58  51  28  29  58 102 142 168 163 194 181 170 180 192 196 190
 198 203 201 207 197 198 192 144  88  81  54  40  68  37  65  68  73  80  42  20  41  22   1   9  25  64  95 140 146 151 152 157 155 147 139 159 156 140 137 142 129 149 143 149 163 181 186 181 188 189 189 193 189 186 185 184 180 170 167 162 154 140 103  55  40  28  24   8  27  57  46  40  50  54  53  61  58  59  41  36  36  55 128 170 157 182 185 176 172 192 196 189
 197 203 203 195 195 187 174  99  83  74  55  74  35  75  53  57  93  64  24  34  37   4  13  24  64  94 134 149 154 159 173 172 173 171 175 178 196 188 193 186 194 190 190 176 188 191 197 199 199 193 193 193 192 189 193 193 190 185 183 173 169 163 166 135  96  58  36  28  17  42  57  45  38  54  57  55  60  58  50  33  32  38  75 139 156 169 180 178 180 191 189 181
 194 196 198 187 199 174 137  81  87  64  71  47  62  51  54  72  93  41  12  33  40  19  28  51  84 124 146 153 157 168 172 177 183 184 191 192 200 200 203 203 200 199 195 198 192 195 202 203 200 194 196 195 193 194 192 190 187 187 186 183 177 172 173 162 147 117  75  42  20  17  47  54  39  53  55  61  53  52  56  26  33  28  41 117 149 166 178 174 183 196 197 196
 196 193 196 185 182 142  86 126  83  36  50  46  54  59  65  89  48  40  22  43  36  27  46  69 112 141 149 158 164 175 176 180 183 185 190 193 199 198 198 192 194 201 199 200 194 197 200 201 198 196 196 195 193 192 194 193 190 189 187 183 182 180 171 165 161 153 121  85  54  26  28  58  42  37  51  55  61  52  69  46  25  34  34  67 140 158 164 169 178 197 204 202
 198 188 200 186 161 106  95  83  27  47  18  71  41  56  64 108  55  18  30  54  39  38  65  85 127 140 146 156 164 173 173 179 185 188 194 194 196 192 196 198 202 201 203 204 202 200 199 200 195 195 195 196 195 194 194 194 194 194 192 188 182 179 172 168 167 168 153 129  84  68  28  44  53  32  41  48  57  56  50  65  38  29  32  36  96 154 159 174 178 195 199 204
 195 188 193 168 127  74  93  35  41  47  57  44  60  74  77  73  32  21  28  47  41  61  82 106 137 142 149 162 167 175 180 184 187 188 193 194 197 195 197 196 203 206 208 205 202 204 203 200 197 198 198 202 202 200 199 197 196 199 196 194 198 186 180 173 171 166 164 156 134  87  54  42  51  39  34  50  39  60  39  59  52  40  29  42  36 139 151 175 180 191 191 202
 179 186 200 128  84 111  65  66  56  30  65  57  55  70  98  59  32  28  17  37  62  75  97 125 141 140 155 169 169 180 181 186 192 192 198 198 199 202 201 203 208 209 208 207 205 206 205 204 203 203 206 205 204 203 202 201 202 201 199 199 201 195 191 181 180 167 161 163 156 129  79  47  48  45  32  37  41  50  50  57  57  39  47  24  41  84 147 175 179 177 184 202
 195 203 139 126  83 103  52  33  42  64  49  45  56  78  85  43  28  36   9  34  55  89 119 140 145 146 158 168 167 175 182 188 190 192 195 199 198 196 198 204 203 206 206 204 202 205 204 202 201 209 205 207 207 206 205 205 204 202 200 201 198 195 195 190 187 175 165 169 157 140 121  54  38  49  38  26  34  42  48  53  36  51  51  44  39  45 123 170 191 185 181 193
 195 208 124  59 180  51  53  51  38  49  52  55  59  77  72  40  24  23  16  34  67 105 131 143 149 147 163 171 173 177 187 192 188 190 193 198 201 201 201 206 207 207 204 203 205 205 208 208 202 204 203 208 208 207 205 203 203 203 201 201 199 199 196 192 189 185 171 172 171 157 147 101  43  40  35  27  30  33  44  44  37  51  41  60  26  49  81 162 179 180 173 183
 190 179 120 107  93  47  30  45  65  48  48  52  80  89  56  28  21  15  20  36  68 115 143 145 147 156 168 173 176 179 188 191 191 198 199 203 202 202 202 207 208 203 206 206 205 207 205 203 203 204 208 206 204 208 204 201 201 202 202 200 200 199 194 189 186 186 171 173 175 166 146 131  68  44  43  33  27  26  43  39  44  40  47  60  44  34  65 131 167 178 183 190
 228 107  66 165  46  38  48  58  41  60  48  71  54  96  46  26  22  13  31  48  83 124 146 153 148 153 166 172 177 184 184 186 188 196 201 202 203 207 209 209 203 205 207 206 204 207 208 207 206 204 203 204 205 203 202 204 206 205 203 204 201 197 192 188 186 181 171 175 173 168 155 136  87  49  46  33  33  24  27  41  40  36  49  44  56  40  45  99 172 179 190 182
 174 127  90  91  46  22  57  47  53  56  48  82  49  76  37  30  15  20  41  60  94 129 150 154 149 149 163 173 179 183 180 189 193 195 199 199 201 204 205 207 208 208 208 208 206 202 204 204 204 204 200 203 205 204 204 203 204 202 203 200 201 199 188 188 186 177 171 173 175 170 157 145 115  58  40  33  35  28  17  32  34  40  39  43  51  47  36  92 162 182 190 180
 144  49 135  45  31  50  45  44  45  39  76  54  79  65  27  23   6  36  45  64 102 132 147 152 150 150 167 178 183 179 182 189 190 192 193 197 200 203 203 202 202 204 207 207 205 207 207 206 204 200 199 200 201 198 202 203 204 199 200 197 193 199 190 189 183 176 172 169 175 166 152 141 113  96  57  41  29  38  21  20  34  34  35  45  49  55  38  82 123 177 185 186
  96  95  70  33  29  45  41  51  40  66  80  42  99  57  22  25  12  23  47  70 110 134 147 155 152 159 159 172 179 180 187 190 188 184 192 197 199 199 203 202 203 205 207 208 208 205 203 200 198 201 198 198 201 198 197 198 198 194 190 191 194 193 189 184 184 176 170 168 175 167 150 151 119  86  73  48  27  40  27  17  29  32  40  37  46  52  42  86  87 174 176 190
  83 193  41  29  31  54  47  57  55  47  70  42  79  53  19  12  12  35  51  77 116 133 144 156 150 156 161 175 183 181 182 187 190 195 194 196 199 202 203 201 202 203 205 207 206 208 204 204 205 206 201 200 200 199 198 199 194 191 190 194 190 188 183 182 180 175 171 170 173 168 157 148 126  94  75  64  38  26  33  24  24  22  34  39  49  51  43  60 119 164 189 188
  57 143  53  22  48  48  51  40  64  68  37  80  68  33  22  12  24  29  56  86 120 134 143 156 149 156 164 170 176 183 181 184 184 193 192 190 195 201 205 203 204 205 207 208 208 203 202 204 204 205 204 203 203 196 196 197 194 192 189 188 186 184 186 190 184 180 177 176 172 168 165 155 114  89  87  48  57  26  28  33  25  21  31  39  41  49  42  40  96 143 148 149
  77  68  25  32  49  44  48  63  54  72  38  68  64  27  24   9  25  36  64  87 122 134 140 157 148 159 165 175 180 184 186 191 189 198 194 195 200 203 204 203 205 204 206 207 207 203 203 203 203 206 205 202 200 198 197 198 196 195 192 188 188 190 191 190 183 182 178 176 170 169 163 155 123  86  67  68  51  35  28  29  27  24  30  38  28  52  41  43  72 112 155 154
 110  61  21  38  53  52  44  67  75  55  36  64  67  20  16  17  33  37  53  89 128 132 140 155 153 160 167 177 186 190 190 193 195 194 199 196 198 205 205 202 203 204 205 206 206 206 202 203 205 203 201 200 201 200 198 197 198 197 196 190 196 192 192 189 185 181 178 174 166 165 162 156 131  94  72  64  59  55  24  28  29  23  20  28  37  38  42  42  69 119 180 175
  92  34  31  28  48  57  58  46  76  31  50  74  67  16  14  26  27  37  63  98 133 134 136 150 156 163 169 177 183 188 190 193 195 192 201 200 198 198 199 197 201 205 206 207 208 206 206 206 204 203 200 199 200 202 198 200 201 201 201 200 199 195 195 191 185 183 178 171 163 166 165 159 138 103  73  56  59  54  36  28  21  22  24  33  33  37  41  42  58 129 166 162
  72  24  43  34  55  51  52  58  60  22  47  82  61  12  20  23  31  50  65 102 130 142 140 150 159 165 170 178 186 192 188 190 190 189 195 191 196 200 200 198 198 204 206 206 206 204 207 201 202 207 203 200 201 194 197 203 204 203 203 204 203 200 201 198 188 179 173 176 162 165 163 158 145 116  81  56  41  49  45  33  35  24  25  27  33  37  32  44  53 114 139 136
  57  18  39  59  56  49  52  74  50  28  40  76  47   4  26  31  38  39  67 105 127 143 142 147 160 172 183 190 194 200 197 194 193 196 196 194 194 191 196 197 201 203 204 203 202 205 204 197 204 205 200 198 197 194 197 199 203 202 199 202 199 199 201 199 193 189 179 180 174 171 166 162 154 129  95  65  43  36  47  44  31  33  26  27  27  38  40  35  49 115 157 162
  43  19  33  69  53  45  54  61  36  30  63  71  29  16  25  25  27  37  68 124 130 138 144 150 167 185 190 190 195 196 193 191 193 199 200 196 198 194 195 194 198 202 204 200 204 200 205 194 197 196 197 197 198 200 198 199 200 194 207 199 197 200 192 195 193 180 180 186 177 176 172 156 152 144 116  76  47  32  38  48  27  26  15  19  30  29  36  25  35 119 168 172
  29  27  53  58  51  60  68  45  24  33  66  75  29  26  25  17  20  52  83 130 132 132 152 163 169 166 171 172 178 174 178 177 185 194 191 183 184 187 188 190 189 193 195 194 199 204 200 196 184 190 186 182 186 187 189 192 160 170 156 150 174 176 180 173 160 160 149 159 177 171 163 158 154 148 139  98  34  26  28  49  49  25  20  19  30  31  31  28  34 105 163 177
  32  30  60  51  54  63  59  37  23  37  63  69  20  22  12  12  24  83 108 126 128 137 158 150 136 140 147 136 140 131 133 130 137 138 142 143 157 175 176 182 183 182 181 179 184 190 187 183 168 179 176 167 167 164 164 144 122 105  96 104 103 115 124 143 140 128 135 145 145 157 173 160 153 148 148 130  55  29  20  33  49  30  40  17  29  25  18  26  29  93 156 176
  43  48  59  56  55  61  44  24  20  30  79  62  20  24   8  12  46 105 111 124 130 138 131 117 105 109  97  91  96  99  87  87  84  78  91 104 115 136 151 156 165 175 175 171 177 180 183 175 165 170 164 149 140 138 117 100 100  88  78  80  97  83  98  94 111 116 114 111 125 134 126 153 150 143 153 135  88  23  23  22  42  32  27  28  30  23  21  27  30  91 176 165
  46  43  63  41  58  65  39  26  20  18  79  67  21  13  11  12  72 106 111 128 121 116 108 107 105  92 100  85  74  67  67  63  59  68  84  92 104 113 130 139 144 149 161 163 172 174 171 168 159 156 159 151 139 122 107 105 103  94  68  58  58  68  74  85 112 126 120 104 104 117 125 136 154 148 155 144 116  29  23  24  32  39  25  25  48  30  24  28  29  90 163 172
  51  49  56  56  50  56  32  19  21  27  74  68  16  12  16  18  91 106 116 122 112  98 102  93  98 106 108 107 118 117 110  97  94  78  76  84  97 108 115 128 136 141 154 155 160 172 169 161 154 148 150 142 137 112 106  99  90  82  78  91 117 125 127 121 116 119 120 118 113 107 109 115 137 147 154 152 126  48  20  29  26  37  21  18  29  26  22  24  25  75 179 192
  43  51  37  70  48  50  31  20  23  38  66  57  16  16  17  32 100 109 120 128 107 101  95 106 126 136 142 143 143 153 149 146 143 114  96  82  78  93 104 118 129 134 145 149 159 176 170 158 151 148 138 129 115  99  95  79  82  87 109 129 129 134 142 141 146 132 133 131 125 115 113 124 139 148 153 156 143  86  34  22  26  34  22  18  35  21  16  31  31  70 191 207
  19  69  41  58  54  41  36  18  20  57  69  49  19  16  17  41 104 114 125 128 105 101  99 112 143 128 146 145 148 138 125 106 115  96 114 104  89  74  84  96 108 124 135 144 161 175 174 162 152 143 127 116  97  82  76  83  97  81  47  39  47  34  47  40  56  76 122 146 137 131 117 113 133 142 159 160 153 108  67  27  28  26  28  20  28  24  16  28  24  69 196 196
  31  71  43  64  44  35  25  15  12  44  72  41  19  21  23  46 107 114 133 120 100  98 104 139 142 132  74  50  37  23  17  24  41  70  46  43  77  87  75  74  82  88 115 142 161 177 181 172 162 146 122 111  93  81  93  91  40  64  39   0   0   1  27  82  59  38  68  70 133 149 142 137 138 159 148 157 152 128  99  89   7  27  32  30  29  15  24  29  32  89 192 195
  43  59  42  61  28  26  21  20  19  26  79  45  29  17  13  62 110 113 130 128 119 116 128 143  86  50  47  13   8 117 186 197 142 111  99 125  77  74  88  86  86  91  96 136 163 185 188 180 166 150 131 123 124 125 109  76  84  62  40 109 101 163 122 181 162  89  39  84  82 152 137 159 169 131 148 147 156 148  89  56  81  14  41  39  24  15  27  37  36  97 172 185
  71  56  50  51  30  28  24  13  34   8  63  36  25  14  49  89 113 122 129 132 145 137 133 109  67  41  29  31  20  24  49  27 180 202 122  77 119  98  88  86  89 110 109 134 172 189 195 187 176 152 140 139 132 112  90  93  67 103  64  66  75  73 143 168 134 139 109  97  89 111 161 161 142 160 155 158 152 133 105 102  46  28  39  27  25  19  21  38  32 121 181 196
  81  58  50  40  36  26  16  14  47  10  56  35  18  48  66  93 109 122 118 140 136 138 137 102  79 107 125 132 149 128 116 144 186 165 153 133  76 102 130 120 123 124 132 127 177 200 199 194 178 162 143 143 128 132 155  94 133 144 157 148 146 146 154 170 174 173 168 159 121 117 111 138 137 138 141 145 155 147 110 108  60  37  55 122 151  65  24  34  40 159 194 190
 109  48  56  36  34  28  11   3  39  31  70  36  18  70  87 112 115 133 124 134 150 141 110 105 102 157 162 161 158 166 149 149 151 172 176 160 154 135  92 158 157 134 136 148 194 201 200 198 192 174 148 150 148 169 129 155 162 153 155 156 170 182 189 190 183 173 164 149 141 137 141 152 164 169 164 160 159 156 131 101  95  71  75  99 136 149  34  36  45 141 190 191
  97  54  41  38  32  28  14   8  20  30  77  42  49  64  79 119 129 132 132 143 132 130 112 105 137 137 137 157 158 164 167 164 153 142 138 140 155 167 176 170 173 142 150 194 202 205 202 204 202 194 165 147 165 160 173 151 131 129 123 139 158 158 156 161 150 138 130 127 149 158 163 164 163 161 154 147 151 155 138 115  82  74  57  99 140 153  95  30  62 150 203 195
  99  54  39  42  29  24  14  17   6  19  67  46  69  71  81 106 114 129 132 145 153 158 154 140 131 125 127 110 114 112 112 120 108 107 110 123 140 146 152 148 173 148 164 197 203 205 201 203 201 195 188 167 157 162 157 160 161 145 132 105  93  96  93  94 103 114 132 169 163 165 173 173 171 174 169 159 154 156 148 128 103  64 108  63  43 103 136  24  68 162 185 193
  86  53  34  39  17  22  16   8   7  26  65  61  65  85  94 122 128 137 148 161 154 155 154 165 143 138 160 118 116 106 102 103 115 117 142 158 161 167 164 167 159 144 172 192 204 205 204 199 195 195 188 160 154 166 171 168 169 174 175 176 166 145 144 142 145 148 152 150 171 184 172 172 172 177 171 164 157 154 149 126 102  67  86  59  23  80 137  39  77 161 188 179
  76  52  35  41  26  12  12   7  15  18  65  61  61  77 110 123 128 136 145 154 161 163 155 163 173 147 138 164 149 153 153 165 172 176 174 181 185 172 174 170 152 146 169 187 202 202 202 198 196 185 166 150 149 159 173 174 175 188 189 186 177 185 178 184 183 181 186 186 168 165 176 168 169 170 172 163 159 160 151 126 115  88  89 131  29  89 134  34  82 167 188 191
 114  52  31  30  22  22  19  14   9  18  77  63  71  69 109 121 126 140 155 163 159 150 168 155 154 187 181 165 178 179 178 175 178 188 194 192 180 176 172 158 146 153 166 182 195 199 200 200 197 180 158 154 154 153 174 181 169 181 186 183 193 188 186 186 189 188 191 192 195 178 160 167 174 163 167 163 160 162 151 122 105 127  91 156 123  76 156  41 106 175 189 199
 121  50  42  45  23  33   9  10  20  15  67  66  78  66 113 121 135 146 154 155 159 159 159 157 192 175 184 182 175 185 181 180 187 192 189 184 177 176 167 145 145 158 166 177 191 202 197 192 186 175 156 161 155 152 162 178 190 189 187 175 185 193 193 195 192 194 198 197 189 188 177 157 172 171 169 163 159 160 152 130  88 135 117 165 172 104 145  41 116 177 201 190
 176  43  37  37  20  26  10  22  39  42  67  63  88  70 104 122 135 144 155 157 154 157 166 180 184 187 189 186 184 188 190 188 194 191 188 183 178 170 157 159 153 166 164 178 188 194 195 192 186 178 170 166 164 158 157 165 180 184 186 190 194 195 197 201 201 200 198 192 194 183 181 171 164 166 170 163 160 155 149 139  84 110 118 170 170 170 153  48 115 186 200 199
 201  46  38  38  27  25  19  46  53  51  66  59  75  77 104 120 138 145 157 154 155 168 178 176 177 182 185 188 191 198 196 197 193 188 185 178 173 170 168 162 159 168 171 173 186 193 195 191 182 176 173 177 170 165 175 175 180 179 187 191 196 198 201 199 200 201 203 197 193 182 178 170 172 168 165 165 165 160 161 128  89 112 122 163 148 183 140  50 117 168 185 198
 138  62  34  42  34  29  41  76  70  60  68  64  77  69  98 123 140 153 153 150 157 169 171 177 184 184 188 194 193 192 190 193 189 188 186 183 180 167 150 149 166 168 169 170 183 193 192 189 181 174 169 179 175 164 157 173 182 190 188 188 196 198 200 200 203 200 203 204 198 190 186 173 174 179 170 164 166 156 153 141  83 139 162 149 146 180 145  59 127 152 179 202
 142  82  25  38  34  35  60  88  78  71  89  75  99  65  99 124 142 146 153 153 160 170 181 185 189 190 192 196 193 194 191 191 187 189 186 180 173 163 148 160 171 167 165 170 180 196 189 184 181 171 168 172 168 167 162 159 167 175 190 195 194 190 193 201 201 201 199 194 198 191 191 187 177 173 174 164 166 157 153 134  86 156 155 142 159 198 148  67 146 166 194 202
 164  85  29  38  46  38  72  98  80  83  97  92 118  62  83 133 145 147 149 149 162 171 180 183 188 192 196 196 192 193 188 189 188 186 176 177 167 160 161 164 155 162 163 166 173 184 186 182 166 163 162 165 169 171 173 169 160 160 158 176 191 196 195 196 201 202 202 201 194 194 188 183 176 170 168 171 166 160 154 115  89 159 156 136 162 181 158  76 174 186 206 208
 169 105  35  41  56  34  89 101  98  98 107 111  92  72  84 132 148 150 148 155 165 172 173 177 180 186 190 192 193 191 187 185 176 168 167 163 156 156 169 170 154 154 154 160 169 179 189 188 171 162 162 165 171 180 177 172 160 164 166 149 159 180 188 200 198 199 198 197 197 192 187 182 176 170 163 166 161 150 141  97 114 155 162 148 165 176 167  84 179 195 207 209
 155  90  36  44  43  32  99 129  99 113 127 127 112  73  73 122 143 148 151 154 160 164 166 176 177 182 181 187 186 179 169 162 153 146 153 134 132 156 165 169 164 158 154 163 181 189 189 184 174 169 167 170 176 179 165 163 155 138 158 157 146 149 163 175 189 192 193 195 191 187 183 181 174 170 164 160 161 151 136  98 133 159 169 146 155 181 156  99 177 191 211 207
 171  93  56  41  36  35  99 150 124 102 149 156 112  95  69 125 139 143 148 154 159 163 163 171 175 172 167 171 167 162 151 146 138 139 149 132 115 146 145 158 166 154 161 175 201 198 197 207 183 176 161 176 168 163 157 147 144 123 152 159 140 134 150 159 170 175 182 185 182 178 174 170 175 167 158 156 148 147 117 101 140 159 164 133 149 198 144 112 186 208 210 202
 172  86  66  57  43  51  80 156 123 112 121 151 127 114  60 111 137 140 148 152 155 160 162 163 162 166 162 163 160 152 150 136 131 150 160 155 132 113 127 130 153 146 155 184 176 169 171 183 194 180 167 155 148 146 121 126 117 133 151 156 154 129 125 138 155 162 169 172 172 168 168 171 169 166 158 148 147 131 131  76 133 159 160 152 171 192 134 132 200 203 208 205
 160  80  83  53  51  48 106 137 135 113 133 121 133 112  67 102 126 137 150 145 148 153 159 156 153 159 154 145 143 142 128 119 140 151 152 141 127  98  86 100 109 117 108 137 154 139 135 134 163 177 135 114 119  86  82  80 113 148 146 155 159 156 123 123 136 148 159 164 166 161 159 150 154 166 162 147 127 127 111  80 128 152 151 173 187 153 149 135 183 191 206 192
 172 120  99  54  61  52 133 115 167 156 157 126 138 116  87  99 120 138 141 140 144 149 149 150 148 151 148 139 137 123 105 133 150 149 148 132 125 109  72  25  18  59  78  81  98 108 104  87  94  88  84  61  13  20  41  78 135 138 150 155 156 162 146 108 108 132 152 155 153 152 157 150 135 145 157 151 127 124 123  84 113 132 154 186 183 176 159 128 184 196 191 170
 180 151  99  67  73  52 127 138 124 164 157 150 141 129  96  68 118 133 128 135 140 148 148 139 143 134 122 113 115 101 127 144 147 151 145 133 128 116 105  86  62  50  30  53  65  65  67  69  72  73  47  61  86  93  87 112 125 133 143 144 159 162 158 156 100  85 129 146 151 153 141 146 132 132 148 146 125 125 118  87 117 133 150 171 175 173 166 153 195 211 193 161
 172 162 119  76  73  46 137 145 157 162 154 146 145 134 102  73 114 129 123 127 138 139 134 135 122 124 130 132 120 121 134 132 144 139 128 130 125 100 109  77  75  96  66  56  30  49  36  41  42  40  77  72  84  86  84  83 101 135 136 142 143 157 151 151 152 139  82 127 147 151 148 132 139 110 144 148 133 125 114 119 113 148 166 172 172 168 155 160 199 210 201 189
 150 179 128  94  70  45 124 140 162 157 158 156 152 138 112  75 110 127 120 115 133 129 128 118 121 145 148 130 110 132 146 142 133 136 137 119 100 110  80  82 112 106  79  60  49  35  40  44  31  52  84  79  98  63  99  70 107 108 142 137 145 142 143 151 149 154 137  89 130 153 162 140 128 114 135 147 142 126 115 109 106 148 167 167 164 153 131 169 201 200 201 204
 159 204 122  99  81  47 133 139 149 149 149 153 146 131 118  75 108 131 123 117 131 118 119 110 155 151 143  83 104 119 135 139 131 129 118 120  96  91  87  80 135 102 104  74  61  48  49  48  56  48  83  66  86  76  89  87  87  91 126 125 121 134 123 132 144 156 152 114 107 147 158 148 134 107 143 142 148 126 118 101  72 119 137 142 139 123  99 176 192 194 203 205
 193 199 147 114  83  53 122  89 113 130 137 131 114  47  99  73 118 126 123 105 124 127 119 134 150 148 104  80  93 132  98 132 115 108 100 113  90  84  96 109  97  79 106  71  63  69  71  69  75  67  74  81  98 104  83  92  86  89 104 108 113 129 126 121 124 137 118 129 110 129 151 152 129 109 150 137 134 126 124  81   7  25  53  73  80  75 106 169 183 192 193 198
 207 198 136 129  89  69  91  52  13  34  30  26   7   5  59  89 117 111 131 106 123 125 134 134 141 126  53  91  90  81  89 113  93 104 102  95  83  81 105  99 115 113 102 102  71  92 101  85  98 111 110 105 121 112  89  84  96  79  80  98 101 116 117 118 103 108 114 100 114 121 145 142 126 118 133 139 127 120 135  45  29  27  40  28  64  56 103 178 184 177 190 207
 196 196 137 121 127  68  99  41  28  26  13   5  12   1  31  95 105  97 131 106 110 132 128 127 144 128  71  78  78  77  62  95  88  87  90 122 105 127 107 127 121 125 129 109 123 111 124 118 112 108 116 115 119 100 117 103 112 108 107 110 106 105  91  98  86  98  90  96  59 131 144 121 123 115 137 141 129 119 132  38  12  38  39  34  74  68 121 184 187 184 200 203
 193 201 166 119 135  99  79  50  39  27  11   7   5   9  35  92  95 112  98 120 101 123 118 121 141 121  70  95  67  52  65  69  79  83  69  94  92 105  92 100 102 101  99 108  98 118 113 121 114 105 103  95  81  82  96  94  92 104  98  92  94  88  94  72  59  80  68  87  81 139 146 116  95 132 138 124 119 112 121  57  49  64  51  56  72  78 140 180 191 204 202 199
 182 191 155 135 138 128  50  59  22  25  15  10   9   7  45  69  92 119 125 120 100 130 104 113 128 150  98  79  70  58  49  36  16  21  26  28  48  53  79  57  51  88  58  56  86  85  76  65  56  72  59  63  54  75  51  59  55  59  50  30  29   7  11  12  33  41  75  80  95 154 137 102 104 135 129 118 116 119 114  66  58  59  62  63  75  97 133 176 179 185 202 199
 176 183 145 146 150 114  47  28  26  27  25  22  15  13  40  75  97 109 129 128 100 109 127 102 122 144  95 109  94 107 123  45   7   7  37  63  96 119 210 183 148 222 163 142 246 244 220 152 144 198 212 148 153 178 139 150 175  92  84  61  32   7  22  78 100  77  74  75 125 137 119  83 112 127 134 118  96 114  97  65  69  70  69  68  69 114 155 174 175 185 184 183
 175 172 160 146 185  36  81  31  30  34  27  21  14  23  49  80 105 105 114 125 106 102 117 101  95 142 126 132 132 127 142 143  76  10  79 104 168 138 204 210 177 220 204 182 229 233 226 165 227 239 238 182 158 234 148 224 210 121 146 137  71  46 118 132 110  97  93 117 156 128 102  90 126 117 131 118 101 104  88  39  65  74  67  78  72 109 157 169 187 198 188 191
 179 184 185 164  88  65  71  38  34  32  28  22  26  20  57  91 103  93 119 109 105  91 115  95 101 118 162 150 145 120 141 137 144 120  80 124 164 148 196 200 186 195 228 179 236 225 222 194 214 217 220 199 226 210 166 216 190 150 156 124  91 124 129 128 130  99  96 154 148 108  83 103 130 115 131  94 105 102  95  42  69  92  61  82  72 130 182 176 188 201 206 205
 188 175 201 112 112 100  47  49  39  29  29  25  19  21  23 102  97  79 110 107 114 112  97 110  82 101 141 147 146 130 138 138 136 135 124 116 119 121 182 109  25 194 198 162 219 223 217 196 208 215 222 191 223 207 112 216 155 141 111 127 140 140 133 138 139 103 136 166 147  91  93  95 134 114 105  80 120 100 105  46  69  76  60  98  67 191 185 189 198 201 198 193
 184 186 175 146  51  91  49  29  36  48  22  23  19  24  61  92  96  83  94  88 121 118 100  94  87  72 111 146 146 149 146 135 131 137 131 126 122 126 142 140 117  68  78  92  55  62 118  63 170 219 202  71  61  40  52  88 137 119 139 144 149 142 127 137 150 127 150 155 106  68  96 117 120 114  81 105 105 100  94  52  60  72  74  84  87 202 192 192 203 199 197 188
 196 180 168 122  91  46  53  49  46  36  20  33  23  32  33  92  99  77  88  91 123 120 124  84  74  77 102 135 149 141 155 145 134 135 129 126 129 132 144 151 163 149 134 137 144 152 144 132 123 114 121 138 133 143 144 144 154 152 144 146 140 147 135 141 136 140 143 123  61  55  99 102 111 104 109  99 117  84  90  60  53  75  70 103  89 222 187 191 200 198 197 192
 187 187 154 105  51  94  45  44  44  26  30  26  28  15  36  51  81 101  93  90 100 123 126  97  85  86  78  96 122 157 146 146 141 129 133 123 138 128 154 168 172 164 160 159 166 169 170 164 159 157 154 155 160 156 165 158 162 153 147 147 139 133 140 141 137 135 145  80  67  65 109  94 128 102  92 106 101 103  84  61  60  75  74 123 156 215 197 173 184 194 200 192
 176 172 154  59 110  74  43  47  52  25  41  31  24  24  28  19  88  84 100  77 109  91 112 116  92  88  78  80 105 122 133 133 139 125 124 125 119 133 141 152 172 181 174 176 181 174 173 176 168 174 161 176 171 169 171 158 152 145 148 151 151 135 138 149 145 135 115  71  64  91 123 104 110 103  91 116  86 102  60  55  72  70  72 114 224 219 210 192 198 199 187 183
 186 121  82  69 107  64  85  83  45  70  29  38  18  38  21  11 107  76  89  86  94  78 111  95  90  82  81  70  88 106 115 154 134 143 139 129 131 135 142 154 153 155 160 159 153 164 148 149 149 159 170 160 166 164 159 145 128 151 149 144 134 141 142 129 139 127  85  78  67 121 104  91  94  98  91  92  84  68  44  62  79  76  78 167 207 211 223 211 210 194 171 182
 137 111  95  60 126 166 135 120  83  52  48  27  44  44  20  28  67  68  88  82  78  73  80 101  87  76  68  67  77  88 123 145 138 131 137 132 114 122 126 122 129 135 142 125 125 132 128 126 138 145 127 148 123 137 132 128 134 140 121 139 142 138 140 145 164 104  80  78 114 118 111  87  99  93  97  85  79  43  44  64  70  68 128 202 212 210 228 217 204 198 184 196
 122 115  84  83 242 212 124 119  95  72  40  29  81  26  25   4  71  99  88  78  65  61  60  62  86  96  70  65  69  93 131 138 151 144 136 146 136 109 112 110 121 112 115 102 129 132 129 118 111 134 125 129 138 118 119 137 131 130 141 147 146 140 114 116 136  93 104  93 101 107  92  88  97  87  99  88  82  45  50  59  74  64 196 218 222 220 217 205 201 204 206 213
 100 111 105  93 217 202 203 173  84  91  38  94  85  16  39   0  82  56  64  71  68  61  82  82  72  81  91  78  85  80 112 144 150 140 131 143 137 125 114 115 115 113 135 124 128 138 120 118 131 129 116 131 145 137 137 119 129 131 150 151 143 145 134 127 110 100 109 115  87 110 108 104 108  88 105  80  90  53  64  60  66 139 215 212 211 213 200 190 197 181 177 201
 116 120 135  88 218 245 198  96 153  44  29 129  15  34  18  13  43  54  57  48  51  61  81  80  69  79  75  87  68  79 112 140 126 119 132 141 131 134 138 123 110 124 110 121  98 134 131 115 113 125 115 124 137 138 155 141 144 154 152 152 148 134 128 122 101  88 104 126 111 120  97  94  81  77  88  90  59  70  60  66  59 179 199 186 185 206 204 180 180 166 174 193
 127 118 148  91 175 174 183 169 113  21 159  31  17  51  19   8  29  35  51  42  59  58  86  67  74  99  84  97  78  55  72 119 133 122 154 149 136 149 113 109 127 139 112 106 115 127 136 113 127 114 127 125 124 145 148 149 156 153 151 152 157 128 127 136 113 105 104  77 125 111 107 113  81  82  48  59  50  49  56  69  78 211 195 193 184 189 184 165 191 189 193 168
 148 113 142 103 202 169 148 174  52  64  71  28  30  25  23  31  25  40  61  26  57  54  81  69  81  87  90  80  91 103  80 123 112 139 131 143 141 146 137 152 147 144 138 131 119 127 122 107 145 135 138 126 136 147 146 151 139 153 155 152 128 146 137 132 115  95 115  76 102 109  92  84  58  76  70  33  46  54  66  67 145 182 180 192 181 185 167 166 192 185 184 172
 142 122 168 113 188 127 127  89  33  61  39  32  38  21  29  47  31  44  85  43  35  50  54  51  59  82  73  92  97  76  61 101 104 109 136 145 142 151 149 154 143 144 156 144 131 153 121 128 133 114 132 136 152 132 142 150 143 151 150 151 137 111 128 118  97  68 130  89  96  91  78  53  66  79  36  48  55  59  68  71 176 196 208 195 189 197 192 190 192 183 190 201
 149 144 175 137  95 117 169  50  55  44  41  31  27  38  47  39  35  39  78  56  40  31  51  47  51  76  87  97 107  80  76  85  95 110 120 137 144 150 153 151 145 139 128 138 160 136 139 126 141 144 135 146 144 148 142 153 161 157 150 139 130 135 116 101 100  86 116  89 104  97  51  54  53  76  32  54  64  53  62 139 195 219 211 196 195 197 199 197 194 197 207 204
 169 147 169  96 108 139  79  60  54  39  42  40  36  83  44  34  41  33  57 106  70  37  32  42  51  63  72  86 103  93  78  79  94 110 116 115 126 124 126 132 137 147 127 147 161 150 149 154 152 142 152 146 139 152 144 145 151 143 132 148 134 105 120  87 106  92  95  93  75  74  48  48  73  52  31  58  73  48 104 187 187 195 210 197 181 173 179 187 193 195 177 165
 204 219 139 157  83  74  46  47  62  45  27  59 117  53  42  61  45  38  48 123  97  53  28  33  35  43  61  58  61  75  83  80  88 116  97  86  95  94 121 130 137 129 127 148 148 137 148 151 165 145 133 149 147 142 139 143 114 132 141 137 130 117 108  85  77  89  82  49  45  51  60  95 109  46  29  51  65  69 112 189 172 199 212 206 190 165 178 196 194 183 164 168
 178 181 136  89  74  56  60  58  39  46  54 129  46  43  57  48  37  46  52 120 104  76  50  38  31  11  44  67  54  65  96  62  74  77  91  88 105 113 109 130 137 138 148 143 149 140 129 145 148 141 137 123 132 138 128 150 133 105 149 119  99 106 100  68  69  88  50  46  43  60  90 102 115  27  43  56  63  64 156 164 174 198 204 205 197 181 183 189 191 191 174 183
 130 105  77 133 100  65  40  40  46  38 115  47  48  79  59  39  41  48  52 151 117 115  82  44  32  35  33  23  46  50  64  55  64  75  82 104  99 130 113 117 123 141 116 147 137 129 144 140 145 139 106 127 118 127 132 111 115 101 111 129  98  65  65  64  58  50  43  37  45  82 108 106 106  30  73  37  56 137 154 160 164 186 209 210 211 201 195 187 201 200 189 192
 116 152 187 141 115  72  50  46  56  62  97  46  39 166  33  44  48  60  53 198 100 134 105 107  84  45  42  34  14  58  62  56  63  62  93  75 106  91 119 108  99 101  86 130 121 123 141 138 130 133 106 121 136 119 128 121 104 101  97  99  92  71  49  46  35  32  27  59  66 106 103 105 107  75  43  48  99 174 182 158 163 193 198 208 219 200 200 198 189 194 194 193
 179 197 207 180 119  79  49  61  48 135  26  38 104  42  46  47  58  60  61 227 156 125 137 124  96  91  76  73  43  27  29  45  42  49  75  83  49  99 107 115  94  94 103 116 109 122 117 119 115 129 115 114 112 102 121 108  86  93  82  94  89  59  44  43  26  33  34  58  99 103 118 110  91  46  62  75 190 160 197 180 183 181 204 207 203 199 196 182 177 187 194 186
 182 198 206 203 114  90  45  64  40  38  57  56  55  50  42  49  53  60  54 186 193 123 149 119 138 110  92  79  55  49  33  21  36  41  51  82  79  91 104  80  73  57  75  86  98 110  93 129 117 112 118 110 112 108 114  75  89  51  77  90  80  39  33  33  34  24  58  80  99 117 114 118  69  60  50 172 191 183 178 192 182 186 200 198 188 184 168 177 182 183 186 181
 175 191 229 213 102  81  45  77  47  55  64  55  66  45  48  57  61  61  61  90 223 164 128 157 122 134  87  92  64  55  48  40  31  32  40  48  47  90  76  75  65  79  55  76  93 103 107 106 109  95  97  98  76  79  74  68  68  48  66  29  35  41  31  46  46  48  72 108 119 120 115 120  43  83 191 194 183 177 184 178 178 185 193 199 184 179 166 177 190 191 189 190
 173 206 236 209 113  74  32  76  46  56  69  67  54  48  50  60  59  61  69  57 237 199 139 133 155 124 134 129  95  70  49  49  36  32  26  28  49  43  54  91  52  44  56 100  91  69  73  82 101  82  64  69  78  90  62  65  56  39  33  37  29  39  42  50  42  89  82 123 123 117 116 118  49 159 185 181 165 177 190 182 172 187 191 190 193 170 171 180 188 184 190 197
 183 205 250 216 125  64  37  42  61  59  66  61  59  59  51  61  66  72  65  55 160 191 210 136 143 162 124 137 109  98  89  58  64  41  30  40  34  27  71  67  63  41  58  69  50  54  64  54  64  66  44  51  64  60  37  45  25  37  32  33  43  42  57  64  70  93 122 112 126 123 116 164  76 183 218 177 178 179 181 179 187 190 203 199 194 186 186 197 195 185 195 200
 177 201 244 236 121  83  45  51  67  69  74  66  57  61  58  62  67  65  72  69  60 228 200 211 131 149 155 128 140 115 100  93  70  60  49  43  35  46  39  61  17  61  43  47  29  24  58  40  39  44  31  40  47  53  43  31  35  44  55  61  65  64  84  79  95 120 127 133 128 127 119 172 168 172 240 218 175 188 183 185 184 180 194 188 194 188 181 192 190 190 196 187
 202 203 241 235 116 151  65  62  75  79  73  60  56  66  61  67  66  70  67  73  63 175 187 222 216 123 160 149 128 131 113  96  79  66  64  39  38  45  37  40  37  44  52  39  47  40  25  39  22  39  26  34  39  39  36  48  46  47  55  75  82  91  87  90 119 133 125 129 128 126 121 149 238 127 214 234 198 181 197 189 181 186 182 188 195 191 187 180 185 197 196 178
 203 201 253 219  93  77  87  81  72  67  73  68  59  70  64  76  71  65  72  76  69  91 206 198 237 217 121 154 136 126 127 112  94  86  74  65  61  50  44  45  55  53  45  36  35  41  35  35  33  34  46  36  34  42  49  53  41  55  57  60  62 107 106 102 117 125 129 131 131 128 132 147 232 123 202 234 208 159 205 189 184 177 184 197 192 183 184 174 166 175 195 179
 193 122  71  75  91  93  79  71  75  68  76  73  73  76  76  76  77  68  74  70  69  48 196 190 209 249 232 136 141 123 124 124 110 106  88  88  74  68  55  58  61  49  44  46  37  36  43  34  22  26  22  30  47  42  51  52  51  67  91 101 105 111 103 126 133 129 129 138 136 131 133 131 199 210  97 167 197 163 192 185 178 177 182 191 187 187 188 176 147 159 192 183
