P2
# Generated by OpenCV 4.2.0
92 112
255
 176 176 176 175 175 176 174 175 175 176 175 175 176 176 176 175 176 175 174 175 175 176 175 174 175 175 175 177 174 172 178 190 147  68  54  84 108  89  78  77  62  73  86 133 162 147 151 130 104  87  41  77  84  87  77  82  74  42  36 113 184 183 172 174 176 175 174 175 175 174 174 175 174 174 174 174 174 174 175 175 176 175 175 175 174 174 174 174 174 175 174 174
 175 175 176 175 175 175 173 175 175 175 175 176 176 176 176 174 175 176 175 176 176 176 175 175 175 175 176 176 172 179 167 105  73  84  96  82  64  61  58  53  42  40  49  66  90 122 133 103  87  58  30  68  67  64  52  52  52  45  36  37  92 156 179 177 175 175 173 175 175 175 175 176 175 175 175 175 175 175 175 176 175 175 175 175 175 175 174 174 175 176 175 174
 176 175 176 175 176 176 174 174 175 176 176 176 176 176 175 174 175 176 176 176 177 175 175 176 175 178 176 167 167 136  70  44  62  48  37  37  36  34  28  29  31  34  50  52  58  90  99  68  69  42  28  53  63  64  42  33  31  33  33  32  27  58 123 163 175 176 175 174 176 176 176 176 176 176 176 176 176 177 176 176 175 175 176 176 176 176 175 175 175 174 174 176
 176 176 176 175 175 176 175 174 173 175 176 176 176 176 176 176 175 176 176 176 177 176 176 178 175 165 157 149 106  50  33  35  29  27  30  37  40  35  32  26  23  18  18  20  39  67  67  51  45  27  44  83  94  87  71  62  36  28  31  35  42  39  41  91 141 170 177 176 176 176 176 176 176 176 177 177 177 177 177 177 175 175 176 176 176 176 175 175 175 175 175 176
 176 176 176 175 175 176 175 174 174 176 177 176 175 176 176 175 175 176 176 176 176 176 177 174 161 146 140  91  41  40  38  30  30  35  42  48  56  69  79  69  63  38  21  13   7  15  42  58  34  28  33  34  49  90  80  37  37  47  49  45  36  33  26  31  65 114 165 175 174 175 175 176 176 176 176 177 177 177 177 177 175 175 176 177 177 177 175 175 176 176 176 176
 176 176 176 176 176 176 174 174 176 176 176 176 176 176 176 176 176 176 177 177 177 176 170 154 142 133  71  28  31  31  29  35  41  36  36  31  42  63  65  70  63  47  35  29  20  16  11  35  29  38  40  50  73  56  36  68  97  87  82  83  68  48  41  35  26  47 116 168 176 171 174 176 176 176 176 176 176 177 176 176 176 175 176 177 177 177 177 176 175 175 176 176
 176 175 176 176 175 175 174 174 176 176 177 176 176 177 177 176 176 177 176 177 173 169 158 149 129  66  24  25  27  28  32  28  26  27  34  42  44  46  47  57  57  41  32  38  27  28  20  21  32  61  79  43  29  21  52  95  85  90  85  80  88  95  88  68  52  42  42  97 174 177 174 176 177 177 177 177 176 175 174 174 176 177 176 176 177 177 177 176 176 176 176 175
 177 176 176 176 176 176 176 173 174 176 178 177 177 177 176 175 176 175 176 175 170 170 150 125  55  29  24  37  41  36  38  43  47  58  67  86  75  60  65  76  71  62  54  48  40  51  49  25  44  97  65  38  32  28  45  61  55  68  79  81  71  63  78  94  79  72  55  39 114 172 172 169 176 176 176 176 175 176 176 176 177 177 176 177 177 177 178 177 176 175 175 175
 177 177 177 177 177 177 177 174 173 176 177 177 176 177 176 175 175 176 174 171 176 165 116  55  34  42  42  40  38  45  50  64  83  91  94  91  83  79  84  78  77  72  80  74  50  77  85  44  52  96  77  49  28  27  38  31  19  20  31  50  69  76  65  65  76  98  80  71  56 105 170 174 173 175 176 176 177 178 178 177 177 177 176 177 177 177 177 176 176 176 176 176
 177 178 169 163 167 176 177 173 175 175 177 176 177 177 176 177 179 176 175 173 171 113  52  40  39  44  43  44  45  59  80  97 102  97  86  75  70  67  67  61  64  63  55  59  39  56  75  63  70  61  83  46  23  30  37  45  34  29  30  30  40  50  64  77  54  79  94  80  84  69  91 159 178 177 178 178 176 177 177 177 177 177 177 177 177 178 176 175 175 176 176 176
 178 155 145 152 144 149 171 148 138 152 155 172 177 178 177 166 161 160 170 161 118  52  47  43  44  49  40  47  69  80  80  71  57  56  66  71  73  67  58  47  38  39  61  67  47  61  42  63  73  66  86  43  28  61  84  79  65  65  58  50  38  29  33  36  43  46  56  78  96  98  74  82 150 181 175 171 174 177 177 177 177 177 177 176 177 178 177 176 175 176 177 176
 153 129 160 174 164 125 149 136 123 160 149 168 178 177 149 144 152 149 141 127  68  60  40  57  63  41  45  70  70  58  52  58  69  79  68  48  42  48  45  63  68  64  33  66  68  66  64  49  59  67  79  40  38  63  70  93  81  55  47  44  46  38  26  21  21  28  33  51  80 108  88  64  87 153 176 174 178 177 177 177 177 177 178 179 178 178 178 178 177 178 178 175
 127 127 172 179 178 132 130 136 126 158 157 173 179 155 125 161 169 163 126  62  55  48  54  73  38  43  72  63  54  54  67  62  39  29  27  18  14  16  11  20  34  75  81  46  66  63  77  78  42  51  64  29  36  65 102  69  34  43  36  39  67  82  57  35  32  31  28  30  55  88 122  71  77 101 165 180 178 177 177 178 180 178 178 175 172 171 169 169 169 171 174 176
 129 122 172 179 178 131 135 132 119 144 150 175 179 138 123 170 174 159  78  48  55  50  59  37  40  65  61  52  53  48  39  28  29  39  46  52  64  57  30  18  13  24  71  86  42  78  61  93  64  50  45  32  65 110  60  28  58  56  74  78  77  70  60  45  30  26  31  30  31  55 110 115  58  92 104 163 177 179 177 172 161 149 136 130 123 113 108 109 120 134 137 145
 159 124 145 173 162 130 156 128 134 172 169 176 180 144 117 170 171  92  51  56  54  56  36  34  61  63  51  36  27  22  34  52  49  56  65  61  63  76  74  60  36  23  33  79  64  64  86  68  74  55  40  50  94  62  37  62  86  82  67  67  74  74  78  81  62  45  39  41  31  29  56 134  97  67  98  98 159 157 143 123 118 107  90 118 118 107  86  97 111 127 116 134
 177 158 143 150 149 160 168 126 135 175 177 177 178 163 121 138 106  57  62  55  54  34  30  61  67  61  26  16  24  31  42  46  43  43  46  47  55  64  67  75  65  59  33  51  73  72  99  74  49  64  56  66  64  54  50  80  57  45  56  58  70  77  72  69  58  59  54  53  37  26  35  65 119  77  87  81  99 116 103 102 115 127 117 143 137 142 130 151 149 112 147 171
 179 179 173 170 173 179 175 165 163 173 177 174 174 168 161 105  59  64  60  53  42  36  69  70  67  42  14  25  38  49  66  78  84  84  75  74  68  64  61  61  58  64  66  52  66  70  72  86  51  71  64  47  64  60  55  56  40  55  46  39  42  45  37  32  38  55  62  51  45  34  35  26  67 100  76  90  75 101 124 117 119 148 138 122 129 149 144 166 163 133 172 179
 169 171 173 175 178 177 179 179 180 179 178 178 176 182 154  70  65  57  47  44  44  69  68  68  65  20  39  55  61  68  65  68  75  82  83  85  95  92  59  41  49  57  91  62  57  65  63  84  83  72  55  45  63  52  50  44  48  45  42  40  41  36  26  22  17  20  43  63  50  47  35  40  34  72  90  90  94  89 116 121 138 144 131 110 125 129 123 134 139 134 159 164
 113 116 118 120 125 128 133 137 141 146 146 152 159 155  89  66  62  47  39  50  66  65  66  76  45  51  95  81  56  49  48  52  46  43  52  44  54  84  70  47  56  64  98  76  66  74  77  81 103  74  63  68  78  68  67  62  58  64  69  65  66  81  80  71  54  28  23  51  80  65  39  36  40  36  72  95  98  82  79 108 127 124 106 101 112 112 104 108 110 107 117 112
 137 134 130 125 121 117 114 111 108 107 105 107 114  83  62  55  46  44  51  64  53  63  75  73  60  56  42  42  34  33  33  40  41  46  45  41  38  46  56  51  61  80 105 100  86  97  95  97 104  89  89 104 100 101 100  94  95  97  99 109 118 123 116 107  99  89  37  27  66 103  54  32  41  39  47  70 100  89  72  79  87 106 126 143 154 162 166 155 133 125 136 123
 177 176 175 173 173 171 169 166 165 159 154 154 109  56  57  53  42  48  62  47  47  64  78  62  48  30  35  44  46  46  49  50  49  52  57  61  56  55  52  54  61  78 116 125  99 114 117 129 132 118 124 128 129 132 128 117 120 141 146 142 131 124 121 122 110 105  80  32  57  79  73  42  40  43  64  51  78 105  90  75 105 131 139 140 130 132 136 124 120  99 109 118
 182 179 178 177 178 177 177 179 180 175 173 156  73  48  64  40  41  52  46  34  59  73  80  52  39  53  73  79  93  94  89  94 104  96  88  89  83  83  74  71  76  84 116 136 114 134 162 167 163 155 152 159 157 155 152 144 147 145 145 144 136 131 129 125 116 113 105  54  58  67  49  43  40  51  63  78  53  92 102  86 121 148 164 143 106 105 126 121 142 134 132 101
 148 169 177 176 176 176 177 178 171 160 146  94  41  60  52  31  47  44  30  29  68  78  76  39  64  87 105 113 111 128 127 135 141 142 121 119 123 109 105 106 106 108 115 143 143 151 172 172 173 172 170 170 167 166 165 161 159 153 151 148 140 137 137 129 122 119 110  90  56  69  49  32  34  50  56  84  70  63 104  93 101 137 135 106 117 136 158 147 138 131 151 146
  69 115 170 178 176 178 173 147 112  97  94  49  46  62  36  40  43  35  19  35  74  85  59  57  99 103 119 131 133 131 144 154 154 158 160 152 153 150 141 137 145 143 141 155 170 165 168 166 166 165 168 168 168 167 166 163 159 154 150 153 145 137 135 130 125 119 115 112  83  68  54  36  27  40  57  63  90  62  81 103  93 118 111 128 167 166 176 156 121 111 153 163
  42  64 148 180 179 175 129  75  66  98  71  42  61  47  36  44  38  27  14  46  86  92  57  88 101 115 132 139 146 152 158 158 160 159 176 179 174 178 176 168 167 167 164 171 176 177 171 166 166 165 166 166 169 168 164 161 158 157 153 149 145 142 137 131 128 123 119 117 102  70  51  37  25  32  57  60  76  82  56  94  95 107 126 162 165 148 144 112 122 137 138 151
  45  52 136 179 176 133  69  55 107 116  49  52  50  34  40  35  37  19  16  51  88  90  64  95 106 124 134 141 147 152 157 160 164 168 173 180 176 180 180 177 173 173 176 181 179 177 172 167 166 165 166 169 169 169 167 162 158 156 154 150 142 138 138 135 130 125 121 119 115  91  56  37  25  22  46  65  58  86  58  63  96  91 117 136 130 119 100 114 158 168 135 126
  36  69 155 181 159  81  50  84 134  84  40  53  37  39  34  31  23  15  24  54 102  89  72  94 112 124 134 142 148 151 157 160 165 171 175 178 178 176 173 176 176 178 176 176 176 175 172 171 166 163 164 171 171 170 167 166 162 157 153 150 143 138 136 135 132 129 125 119 120 115  75  34  26  19  35  56  61  81  87  54  93  87  92 113 151 160 133 140 163 168 157 140
  78 133 176 179 124  58  57 107 120  54  45  41  32  35  29  26  17  15  26  59 112  90  83 100 112 121 133 141 149 156 158 162 165 169 176 177 176 172 172 172 175 178 178 176 174 173 169 171 171 167 166 170 174 171 169 168 163 160 155 151 145 142 139 132 131 133 130 125 119 114  91  39  26  20  30  49  69  73  95  72  82  87  81 110 140 156 147 122 113 129 139 148
 158 175 179 172 105  51  64 115  89  47  45  40  29  26  29  21  17  15  27  68 116  87  93 103 110 120 136 143 151 157 161 165 168 173 172 174 173 173 175 176 177 176 178 177 178 178 173 173 173 174 170 173 174 173 171 169 166 162 158 153 149 146 143 129 126 133 133 125 119 112  95  54  24  20  30  51  60  73  89  91  69  87  75  93 106 106 111 121 106 116 134 129
 108 147 177 169  90  45  70 109  63  44  41  36  23  28  27  18  24  18  29  87 120  82 103 103 108 122 140 145 153 158 162 167 171 176 176 179 179 176 177 182 185 185 184 188 190 190 186 181 182 179 182 183 181 178 173 172 169 164 161 157 154 152 148 134 128 133 132 125 116 112 103  81  35  18  20  41  57  74  74  98  65  69  77  75 104 112 127 155 141 111 106 117
  43  78 156 171  83  47  74  81  46  37  32  25  24  30  22  20  24  16  27  89 115  86 109 109 107 126 141 147 156 160 164 166 169 176 176 175 177 175 180 181 181 182 181 184 188 187 187 184 183 183 182 179 179 180 177 176 172 167 161 161 157 152 152 144 134 136 134 125 110 102 100  89  59  23  14  37  55  67  64  84  77  49  78  69 110 136 152 142 128 108 111 132
  42  47 126 171  90  51  70  61  38  34  30  19  27  26  18  22  16  18  24  93 118  93 113 113 108 129 144 147 155 163 163 162 168 172 171 174 177 180 185 184 184 183 181 187 182 186 189 188 185 185 185 179 179 182 183 181 177 172 166 165 161 155 153 147 138 137 136 127 113 100  90  75  64  42  16  26  46  58  78  65  81  45  70  68  86 121 141 139 111 103 135 137
  46  44 116 175 106  61  70  56  35  30  24  19  25  22  17  19  16  19  30 107 118  93 114 110 111 137 148 155 160 163 161 166 173 171 171 176 180 178 184 190 192 189 190 187 182 184 184 183 181 182 184 182 182 185 186 185 181 177 173 171 168 160 154 150 140 141 136 128 113 103  92  69  52  48  22  19  40  45  74  62  73  50  53  66  62 102 108 112 117 111 122 101
  43  48 130 176 129  72  63  44  29  24  17  19  20  17  15  14  18  21  42 109 118  94 117 113 118 144 154 157 161 164 165 171 175 176 177 179 186 186 191 193 197 199 191 188 190 188 191 187 192 190 188 184 183 184 185 186 181 179 175 175 171 164 159 153 144 143 138 124 109 107  89  77  53  44  29  14  33  43  58  61  69  64  51  55  52 110 126 109  95  99  85  76
  34  80 162 176 154  93  51  37  28  20  17  17  16  14  15  13  19  25  46 111 118  97 122 118 122 144 157 159 161 166 168 172 174 173 176 176 187 193 196 197 198 201 198 200 194 196 191 189 192 193 191 185 184 181 184 184 181 180 177 177 173 169 163 154 146 145 141 126 110 110  90  67  56  48  41  21  26  43  47  51  60  70  57  49  49  95 145 135 106 113  93 108
  90 144 177 175 172 103  43  37  23  16  17  17  14  11  13  15  21  26  42 107 119 100 122 120 128 144 155 159 161 163 164 167 172 174 173 173 188 190 191 195 202 201 200 201 201 202 196 189 187 197 197 192 187 185 183 183 178 176 178 178 175 172 166 158 151 146 143 127 116 111  82  64  53  46  46  40  21  40  41  47  57  71  54  53  45  62 138 115 104  98  81 114
 167 175 175 174 172  81  40  32  19  15  15  17  12  11  12  16  21  26  39 102 125 104 121 126 134 145 152 160 160 163 166 169 170 174 176 179 186 192 194 191 197 200 197 200 194 196 191 192 187 186 184 185 178 181 179 175 175 176 174 177 176 172 166 161 155 147 143 133 124 112  84  57  48  43  47  53  26  31  42  43  53  70  53  45  46  43 107 102  90  86  83 101
 177 178 177 177 150  51  40  27  17  15  17  17  11  13  13  16  21  27  49 105 127 104 124 133 140 147 155 159 159 164 167 167 170 173 175 180 185 194 195 194 198 199 194 190 179 187 183 180 178 177 170 168 169 173 173 172 171 171 171 176 175 171 165 163 156 148 140 132 132 121  89  62  44  35  41  62  47  24  38  39  47  62  52  41  52  39  74 105  77 102 108  93
 177 179 179 178 121  38  36  22  13  12  18  13   8  13  12  18  23  32  46 107 123 104 124 135 141 146 154 159 162 162 165 167 172 176 174 177 180 181 184 188 190 195 195 186 188 188 181 177 176 170 166 167 168 171 172 171 171 169 169 172 175 169 164 162 157 149 140 133 133 125 103  77  51  34  33  50  70  31  34  35  39  50  41  43  55  38  56  97  99 127 118  98
 178 179 181 175  84  36  31  17  12  12  18  10   9  11  12  18  19  25  35 100 132 105 121 134 139 147 152 155 160 157 161 163 166 167 169 172 175 174 178 178 177 181 183 177 176 177 179 175 170 166 166 168 169 174 173 173 173 173 171 169 172 168 162 155 153 147 141 140 135 127 112  82  56  38  29  33  53  53  40  37  41  42  39  39  50  43  45  86 103 105 125 132
 177 178 184 164  55  30  25  13  11  15  16   9  11  13  15  16  14  20  28  96 136 103 122 133 141 146 153 157 155 154 161 165 165 167 172 174 178 181 178 176 177 179 177 180 178 175 175 174 171 170 172 173 176 178 176 175 174 173 172 172 170 164 157 150 146 142 141 143 138 130 116  99  75  52  33  24  26  38  42  37  39  39  36  31  43  43  33  81 102 127 170 162
 179 177 154 109  39  26  20  14  12  17  13   7  12  13  15  16  16  20  36  97 136 105 120 135 142 142 149 154 154 157 164 166 165 172 175 173 178 176 174 177 175 178 179 178 182 183 178 177 173 173 176 181 181 178 174 174 175 173 171 171 167 163 155 146 142 140 138 140 140 128 114 104  92  80  54  23  21  23  30  34  33  36  30  26  39  40  31  69 135 164 182 167
 179 177 158  87  30  25  18  14  11  17  10  10  15  13  16  15  16  27  38  88 134 109 119 131 138 139 145 152 158 160 167 166 169 176 179 179 175 177 179 181 176 178 183 176 181 189 187 186 190 191 185 179 177 177 178 174 173 175 174 169 169 166 157 149 142 140 133 129 129 124 114 100  92  98  84  35  21  23  23  24  33  41  27  23  32  38  35  52 141 164 178 171
 179 179 185  96  24  23  19  13  14  17  11  11  10  14  16  12  15  20  38  85 128 110 115 125 134 137 141 152 162 165 168 167 173 178 183 182 182 187 187 187 186 191 185 185 186 189 194 201 209 200 194 185 182 179 182 179 174 174 179 174 168 160 150 143 134 137 134 128 117 115 109  98  93 101 100  54  27  30  25  18  28  38  31  16  23  33  35  40 117 166 177 177
 179 181 179  75  25  26  18  15  15  14  10  10   9  15  13  10  13  27  50  86 118 103 111 125 129 135 143 154 163 167 169 170 175 180 183 180 183 193 196 196 203 206 199 198 201 204 203 214 219 217 214 202 197 181 181 175 152 151 159 163 156 150 134 115 110 118 123 126 123 104 100  97  95 100 102  69  31  34  33  19  23  31  27  15  21  29  37  39  92 160 171 157
 180 183 167  60  23  23  19  15  16  14  11  10  11  16  11  16  19  43  68  76 106 100 108 119 122 134 145 155 160 166 168 172 180 182 182 180 186 194 193 203 218 210 208 200 204 208 206 212 206 198 203 193 190 155 154 138 118 115 114 110 111 117 114 108  98 100 108  90  95 103  92  97  97 100 106  76  30  27  44  24  21  31  23  15  18  25  35  36  70 147 160 156
 180 184 155  53  22  23  20  18  17  13  12   9  13  16  19  19  26  61  81  78  96 100 105 103 103 120 138 140 145 148 146 154 168 169 174 180 182 186 199 202 211 205 205 204 203 200 199 199 193 171 167 161 154 119 121 113  97  98  98  94 100 104 109 114 111 106 111 100  86  90  92  91  98 103 105  91  41  24  35  30  21  26  22  15  13  24  31  36  56 123 171 146
 179 182 151  50  23  17  18  21  17  13  13   9  15  16  19  19  36  70  86  85  88 102  87  84  98 112 121 111 106 102 111 118 120 129 139 151 159 172 185 194 197 192 195 198 192 192 190 188 182 173 156 148 139 127 126 120  97 100 109 118 124 129 135 139 133 133 132 125 112  95  92  88  98 107 106  99  60  26  23  26  22  25  22  17  12  18  29  35  54  98 134 127
 180 181 141  46  27  13  16  22  17  12  13   9  15  17  17  22  37  78  90  82  77  88  64  91 105 101 101  96  81  86 104  98  86  95 112 124 133 154 161 164 183 186 186 195 191 188 183 177 173 170 166 148 143 131 125 123 133 148 154 168 170 166 163 152 146 143 136 134 127 120 105  90  92 107 109 100  79  42  22  21  22  24  19  18  13  15  28  33  45  77 119 157
 178 180 135  53  38  13  15  22  15  12  13  11  17  18  18  27  39  82  90  88  69  86  84 108 108 100 107 119 117 116 119 111 106 102 108 122 129 142 151 159 174 174 174 188 189 180 176 173 167 162 156 141 134 125 130 149 162 167 170 179 182 177 170 159 152 145 138 136 136 132 123 108  94 106 109 104  86  62  40  21  17  20  16  14  16  16  27  31  38  67 121 151
 178 182 132  62  47  11  18  24  16  11  13  13  19  16  19  30  37  83  90  89  66  79  92 112 126 142 152 156 164 170 168 167 159 143 128 116 120 130 146 158 166 165 163 183 188 174 171 166 161 154 142 128 121 132 148 140 130 133 132 127 119 124 133 142 144 148 144 138 145 146 145 126 102 108 109 106  99  75  54  28  12  17  16  11  17  16  24  30  39  58 113 147
 179 181 130  71  50  13  14  18  14  15  15  16  19  14  27  26  39  82  93  88  68  69  89 125 142 157 164 171 178 182 183 176 164 148 141 134 121 109 118 136 148 156 158 179 188 172 165 163 158 142 127 125 139 144 124 123 135 113  74  67  55  44  51  79 107 125 139 143 144 156 147 128 113 114 108 105 103  98  57  42  12  15  20  13  14  17  20  29  40  53 110 166
 179 183 141  91  60  17   9  11  17  13  17  19  19  16  26  18  43  82  93  90  89  69  76 122 149 159 161 153 134 109  96  98 115 128 122 117 128 125 111 109 118 134 151 175 190 175 160 153 145 134 138 142 152 140 136 138 139 127  66  94  77  39  68  99  67  80 119 143 144 146 144 140 122 122 109 105 103  98  77  40  19  18  33  42  18  19  23  28  38  52  96 138
 182 181 164 114  61  24  12  16  17  17  20  17  20  18  22  32  61  86  92 103 125  80  64 110 148 130  92  71  48  33  57  74  75 107 140 141 124 126 128 122 118 112 143 173 185 178 163 148 133 142 147 140 152 156 141 126 160 161  96  97  93  91 122 133 110  72  91 133 133 139 144 139 132 128 114 103 105 100  97  60  35  43  49  52  35  35  36  29  41  49  82 123
 157 166 154 106  49  31  18  21  21  34  38  28  19  13  41  48  63  94  99 116 146  99  63  92 108  69  54 128  83  40  72  97  68 141 164 131 136 145 139 129 131 115 131 168 178 173 163 148 127 138 144 145 168 141 139 152 149 141 151 161 158 163 159 146 133 119 114 134 138 147 153 144 140 133 114 102 102  97  86  72  46  72  72  74  73  75  47  32  45  45  73  94
 117 134 107  82  66  45  23  19  21  44  78  45  20  27  38  48  83  97 104 121 145 121  79  82  74  71 105 132 115  83  86  97 109 158 163 138 129 143 155 146 140 116 127 161 171 168 159 148 127 124 145 171 162 142 168 156 150 162 170 178 180 171 157 150 141 143 149 152 155 151 153 147 147 135 117 106 101  99  86  77  62  77 109 118 120 114  58  43  43  46  63 116
 167 166 151 149 144  75  27  22  23  35  40  34  28  38  47  74  89  98 107 124 145 135 103  80  83 114 132 139 139 153 158 163 171 174 156 162 158 139 156 169 146 115 138 161 167 168 161 151 133 117 139 172 182 172 160 145 145 155 157 158 161 156 149 144 149 151 159 161 156 152 150 149 150 138 120 107 103  99  83  90  82  86 111 122 120 135  82  56  48  49  67 120
 180 180 176 170 158  93  29  22  32  37  26  31  34  48  68  80  99 103 115 132 142 144 128  98 102 120 136 150 158 171 172 173 162 150 144 161 162 168 174 168 131 125 152 163 170 166 163 157 144 123 130 153 177 175 163 162 160 157 156 154 154 151 152 157 167 169 168 168 163 148 144 153 149 136 122 109 104  97  75  82  72  90 118 118 117 150 100  65  54  53  68 120
 178 177 175 167 158 105  26  20  68  45  24  26  31  47  79  85  96 104 119 134 139 147 146 134 123 128 135 144 147 152 153 150 143 142 148 159 167 173 165 151 122 138 155 164 167 164 161 157 153 134 120 145 163 175 179 180 184 182 180 175 168 170 172 176 177 180 180 169 160 148 145 154 155 139 123 110 104  96  78  78  58 100 141 113 128 122 105  82  54  55  74 142
 179 177 175 168 158 111  41  38  74  43  32  28  36  63  83  89  99 105 124 139 140 141 144 146 153 141 149 153 153 151 149 151 157 163 170 176 180 170 158 141 115 138 155 160 159 156 150 152 147 134 114 134 159 172 177 186 193 197 192 188 179 182 180 181 179 179 179 174 158 148 150 154 154 143 130 113 104  92  80  74  64  93 142 118 124 108  92  88  58  59  74 120
 178 177 174 165 147 117  64  46  66  46  51  47  47  71  83  87  91 104 129 142 141 137 145 154 161 167 171 170 168 167 163 172 176 181 188 191 178 166 157 124 111 130 146 152 154 151 150 144 132 133 125 120 148 171 169 178 189 193 193 193 185 181 176 178 179 178 175 170 167 160 157 157 151 138 132 114 103  94  83  65  69  78 126 117 126 146  98  97  72  66  83 153
 179 175 170 156 141 117  78  59  80  63  83  76  57  84  83  84  90 105 129 138 137 141 149 155 166 168 174 180 177 176 176 183 184 191 191 182 170 164 141 113 116 127 138 148 149 144 144 136 126 132 133 118 132 164 180 180 175 166 188 191 183 180 177 178 178 178 177 168 163 164 164 157 150 140 132 113 100  93  77  63  59  65  83 115 171 183 115 105  87  69 102 178
 178 175 166 154 136 116  92  66  88  81 113 107  64  78  67  81  92 109 127 139 139 141 146 160 160 170 178 178 175 177 177 180 188 189 182 175 168 155 122 111 115 119 127 140 145 141 143 130 122 123 130 120 122 147 173 185 181 167 178 177 177 179 178 180 178 174 173 167 166 161 162 159 154 143 129 114 103  99  79  58  65  68  82 125 186 179 122 108 103  74 114 178
 178 175 167 153 132 115  87  85 121 129 153 108  64  67  49  74  92 110 129 138 142 147 155 154 158 168 171 166 162 163 172 178 186 178 173 173 161 136 115 113 111 114 126 141 147 145 143 132 123 124 121 120 120 132 158 175 186 182 177 174 178 178 177 175 172 167 167 165 166 165 163 160 154 146 135 113 103  96  73  65  70  95 118 147 157 171 116 110 111  77 126 178
 179 175 165 150 129 112  94 102 155 146 172 105  57  64  66  73  93 112 130 139 142 153 154 152 156 160 158 155 160 168 174 180 178 173 167 159 148 130 118 110 111 116 130 151 156 151 145 134 127 126 121 116 121 125 142 162 176 179 179 177 177 176 178 177 175 168 163 165 162 162 160 162 152 143 137 119 104  91  72  51  71 123 124 149 128 139 104 102 100  83 139 181
 178 173 161 144 122 104 103  99 145 161 166  89  58  55  61  73  95 113 128 140 150 150 153 154 149 146 148 160 168 171 176 177 173 164 156 153 151 139 112 106 114 122 136 155 158 153 149 143 133 132 123 112 112 135 139 145 161 171 179 183 178 180 180 178 176 171 163 160 159 159 156 154 151 142 137 124 103  90  81  42  65 129 109 109 134 119  84  92  93  86 150 181
 178 170 158 139 114  96  99  88 130 163 135  90  60  52  63  72  96 110 127 142 146 148 149 143 144 147 154 166 171 175 178 175 171 162 162 170 171 134 100 112 122 124 137 154 155 150 149 144 142 139 132 112  98 122 156 162 160 162 173 182 184 184 183 179 172 174 168 164 159 152 151 145 148 141 133 120 100  89  67  36  66 130 130  95 115 115  67  94  98  93 161 180
 176 168 153 134 110  86  75  80 120 129 128 104  60  58  76  71  91 109 126 136 140 147 140 139 153 158 165 172 179 178 180 177 171 174 179 188 166 121 100 121 126 123 130 140 154 149 138 134 137 144 136 121 109 104 146 180 178 177 176 176 184 188 186 184 178 174 170 164 160 152 148 146 148 140 129 116  97  86  63  39  72 146 130 135 105  77  67  94  90  94 170 178
 173 165 149 129 104  76  65  78  99 118 150 117  66  78  82  74  89 113 125 130 138 140 140 149 158 165 173 177 181 181 179 178 182 187 192 182 137 107 106 123 124 113 120 135 150 144 129 124 133 142 140 130 118 108 120 164 188 191 187 181 184 189 192 188 183 176 169 167 162 158 148 143 143 139 129 116  89  80  62  38  91 161 134 158 146  73  58  91  70  90 170 175
 172 163 145 123  94  67  57  65  87 128 155 120  70  75  74  67  88 110 124 129 134 138 146 155 159 167 174 178 179 179 180 185 186 194 191 164 124 100 113 122 111 106 138 162 163 152 132 123 127 132 138 132 120 111 110 151 179 186 188 186 183 187 187 185 182 177 172 168 165 164 147 144 137 132 124 107  88  73  56  45 111 166 157 164 159  84  54  83  56 101 169 176
 171 159 139 118  89  58  48  61  87 125 133 118  82  79  62  60  91 108 121 128 134 139 149 157 166 170 173 175 176 181 182 189 192 189 181 164 122 100 116 121 105 126 176 194 194 195 151 134 129 134 139 136 123 111 106 148 172 182 184 184 181 182 183 181 178 176 174 168 166 163 150 137 131 134 125 102  85  63  45  51 127 166 164 173 157  75  58  68  57 115 168 175
 169 157 137 113  81  54  45  56  68 131 116 144 123 107  63  47  85 105 117 127 135 145 151 158 160 165 169 172 179 182 186 188 188 174 170 168 130  96 112 117 105 144 180 183 173 186 179 149 129 129 135 133 121 107 103 151 168 171 178 180 181 180 181 179 178 173 168 167 163 157 154 137 127 129 123 107  87  56  50  58 142 177 169 174 144  73  62  56  62 125 163 174
 167 154 133 107  76  50  47  52  53 129 138 131 145 116  77  49  72 100 114 121 130 145 155 158 150 158 168 171 175 180 184 182 172 161 158 154 131  88  83  88  97 118 150 157 156 148 162 141 109  95  70  81 103  95 118 161 159 164 167 174 178 177 178 180 177 169 164 164 157 150 149 142 130 129 127 111  91  67  47  56 142 183 171 164 141  77  64  44  72 132 158 172
 164 151 129 103  71  47  47  46  50 116 138 134 156 149 109  57  64  94 116 120 127 142 154 156 156 158 166 168 170 176 176 173 165 155 149 145 135 117  87  63  60  74 114 134 137 132 127  92  71  76  69  72  89 103 137 155 154 157 161 166 169 174 175 179 175 167 161 161 154 142 149 148 133 132 129 110  92  67  62  47  52 117 133 118  83  58  54  41  83 135 155 169
 161 146 125  97  65  46  44  42  48  97 119 156 163 164 139  68  58 101 113 120 122 140 149 155 158 160 162 149 164 172 172 169 163 152 139 137 142 132  95  83 100  68  67  90  96  96  82  88 112 115 106 105 115 133 136 139 152 153 153 157 160 163 165 171 170 164 161 156 150 136 145 154 133 130 127 110  93  67  69  51   8   4  18  17  29  49  40  48  95 130 150 166
 161 145 122  93  61  45  43  42  43  81 125 161 168 172 159  77  52  88 111 123 126 134 145 151 159 160 160 161 170 174 162 158 155 145 135 129 125 103  70  78 110 101  94  80  85  95  95 121 124 115 119 106 104 119 125 136 152 153 152 151 154 158 161 160 162 166 161 153 145 141 146 161 136 127 125 111  95  62  78  48  18  10  11  17  24  45  51  62  93 122 145 162
 160 145 120  91  62  46  43  42  44  53 103 150 167 177 167  83  50  79 110 125 128 127 142 150 156 158 157 167 169 158 151 149 142 140 126 121 113  92  81  91 115  96 120 116 115 142 104 101 118 111 100 101  90 100 128 135 143 149 144 150 146 153 163 161 152 160 161 153 142 135 154 166 143 124 118 105 104  65  69  56  18  13  17  21  27  50  52  61  84 114 137 157
 158 145 120  91  63  48  44  44  45  46  56  82 107 114  90  48  49  78 110 129 129 126 139 150 153 150 156 171 151 135 137 143 124 119 116 119 108  84  83 104 124  95 103  89 105 136  93  86 119  80  75  96  97  89 109 124 138 135 130 140 143 144 146 151 144 145 163 152 142 130 155 174 151 130 110 111  91  76  52  48  16  15  19  22  38  55  47  53  76 107 132 152
 159 145 120  93  64  51  47  45  45  47  46  36  20   8   5  26  48  74 104 132 134 129 139 152 152 144 160 160 109 114 126 119 107 103 108  83  84  97  96 123 131 102  90  77  83 116  83  54 101  87  87  99  74  80 103  98 120 119 125 121 129 134 132 132 122 119 150 154 134 132 158 175 152 131 112 107  86  67  51  42  22  15  21  26  46  61  48  51  70 102 129 151
 162 150 126  99  72  57  50  47  49  47  47  35  18  19  15  23  42  65 102 132 138 134 141 153 150 139 158 136 102 116 105 118 112 106  98  74  80  87 101 115 115  90  86  83  79 109  85  67  96  99  86  89  80  90  94  81  85 100 111 112 112 108 126 109 107  94 124 154 132 124 153 171 149 134 108  96  84  70  56  43  19  16  20  27  48  63  51  49  66  97 125 148
 167 158 140 114  88  69  52  46  48  45  47  27  18  22  15  17  36  79 104 127 138 135 143 151 144 132 154 115 105  98  80 102 106  97 110 103  84  86 107 110 100  93  90  84  95 105 105  96 104 114 114 118  92 102 103  80  90 109 115 102  95  92 110  93 101  97 121 150 127 117 157 170 142 132  94  95  87  53  52  54  13  21  21  32  56  60  53  46  61  91 120 144
 173 167 152 131 106  83  59  50  51  47  41  30  34  22  16  18  32  92 104 125 140 139 140 148 142 125 142 125 101  80  69  77  86  72  94 113 107 106 111 114 115  99  87 103 137 125 114 118 108 117 110 109  88 120 116  85 101 113 112  88  60  64 100 101 118 117 133 132 112 130 166 161 137 120  88  96  88  47  59  65  22  28  26  42  60  58  59  45  57  86 117 141
 177 174 162 143 121  96  66  49  46  51  42  39  34  25  21  22  39  76  90 112 128 123 127 142 144 118 137 125  96  95  91  98  82  55  53  70  80  81  90  97 104  94  87 103 111 112 114 107  98  98  89  87  99 103  90  84  85  83  62  71  79 116 137 114 127 137 130 116 102 134 166 143 137 116  96  93  74  57  62  70  32  28  29  52  61  49  54  47  53  81 112 137
 178 176 166 150 129 103  72  48  46  53  50  45  38  32  26  25  35  54  80 103 115 129 124 132 139 111 126 126  96 107 134 159 132  98  60  61 103 102 128 146 142 177 159 157 165 163 147 155 173 174 149 156 155 102  96  85  77  69  95 127 145 161 155 118 117 132 116 107  90 131 167 150 130 103 102  96  62  74  71  57  27  27  41  61  61  46  47  47  51  78 109 135
 179 176 166 153 132 107  77  52  48  53  50  50  46  45  27  34  28  48  79  90 114 116 128 119 129 117 114 127 125 102 126 141 144 135 109  86  83  87 100 111 122 160 168 175 196 196 179 190 198 188 162 161 143 103 105 107 101 107 132 148 153 155 154 115 109 121 107 101  87 118 158 131 118 106  95  92  76  80  66  40  33  30  49  64  61  51  47  45  51  78 110 136
 179 178 170 155 134 110  81  55  45  45  48  49  51  45  30  38  36  54  83  87 112 106 120 126 126 133 122 121 123 122 116 129 145 135 128 116  98  98 109 111 112 113 112 118 126 126 120 123 123 120 120 117 119 123 122 128 127 136 141 138 145 150 152 131 108 120 102  80  88 118 133 126 130  95  85  92  83  81  83  43  33  39  54  69  57  52  48  46  53  79 111 137
 180 179 173 159 140 116  87  59  46  45  44  45  51  40  47  42  37  61  71  89 109 113 120 127 127 128 112 118 126 124 109 130 150 138 132 126 119 123 135 134 134 136 142 147 152 152 151 144 148 151 152 153 146 141 140 134 132 130 135 133 142 152 149 141 107  93  75  74  91 116 134 134 129  84  89  86  71  91  88  42  36  46  62  70  52  50  49  46  54  81 110 137
 181 180 174 163 145 120  89  59  44  43  44  47  46  47  65  44  41  55  90  77  93 125 130 119 125 126 105 109 115  95 101 144 142 133 127 118 117 133 145 144 144 146 156 158 158 159 156 152 152 151 152 145 142 136 141 136 134 125 127 140 142 159 156 137 100  76  67  78  87 126 126 126 107  96 104  92  80  69  81  46  40  48  67  75  51  52  51  45  53  80 111 137
 180 180 174 164 146 121  92  63  46  43  44  48  45  59  70  42  48  49  82  78  93 102 119 127 118 120 109  89 103  88  93 140 140 130 125 124 122 120 134 141 133 140 139 136 145 145 134 140 147 145 145 127 130 138 136 117 126 131 129 140 142 137 148 135  94  81  57  73  92 129 134 100  87  98 104  84  83  55  77  62  46  53  74  78  52  50  48  47  53  79 110 136
 180 180 176 165 148 125  96  64  49  45  44  43  45  63  59  46  50  45  57  70  94 101 112 117 130 104  90  89  89  75  98 129 140 136 132 136 129 122 120 134 138 135 133 133 142 135 119 125 135 124 132 129 126 134 141 122 119 131 132 141 141 139 130 132  90  69  65  86  98 134 114  86  97 102  83  87  88  72  81  74  53  50  74  80  52  44  44  48  56  80 111 135
 182 181 177 167 152 130 100  68  48  45  44  43  48  57  46  54  52  38  44  66  77 103  98 104 134 112  80  78  84  63  85 112 127 134 139 140 135 137 132 132 140 136 147 141 126 113 115 113 114 105 116 110 126 141 144 149 151 144 140 142 136 131 116  90  88  67  92  92 108 124  81  93 101 113  82  98  85  67  59  65  55  54  84  81  48  45  46  47  57  83 112 138
 181 181 179 169 154 132 104  71  49  45  44  42  48  52  48  62  53  42  39  60  63  82  87  99 119 106  85  71  86  67  76 103 131 131 131 144 143 137 143 138 137 128 129 131 116 106 119 104 112 106  96 105 124 155 145 144 148 158 150 135 119 121 109  77  67  76  77  77  92 112  79  91 109 105  88  92  66  46  53  54  63  67  92  70  50  46  47  48  58  85 114 140
 182 181 179 169 156 134 107  75  52  46  44  44  52  50  56  66  58  51  35  42  50  61  83  96  96  93  91  74  87  80  77 100 128 114 122 132 145 148 143 135 148 137 126 116 129 134 108  95 103 102  98 100 124 154 157 153 153 157 144 128 118 104 104  78  61  89  71  74  99 107  79  84  88  64  80  69  57  48  74  46  59  74  96  64  48  45  47  48  62  90 119 143
 182 181 178 171 159 138 112  83  58  48  46  47  51  48  63  63  60  62  43  30  36  42  53  90  81  91  87  73  92  95  78  88 102 114 110 125 147 147 146 146 152 142 148 134 141 133  96 103 105 110 119 113 133 145 152 152 158 148 135 123 117 114  92  62  75  89  75  79  91  89  88  72  71  69  69  56  35  47  72  43  67  84  99  54  47  45  44  49  67  97 124 146
 182 181 178 173 162 146 121  93  66  53  48  48  49  50  74  62  65  68  57  20  26  45  40  69  80  77  78  73  67  86  72  72  80  95 109 120 137 140 144 151 150 141 123 135 132 133  86 113 117 110 127 117 146 142 145 144 141 139 122 111  95 114  85  56  62  72  72  72  78  73  78  69  64  62  57  54  29  43  58  45  73  87  94  50  45  46  47  53  72 103 129 150
 182 181 180 175 167 151 128 103  75  57  48  46  46  57  74  66  71  63  57  29  29  38  44  66  55  63  65  81  62  80  68  51  87 102  97 115 126 132 133 143 137 138 122 123 131 144  99 103 123 110 119 132 133 132 129 130 125 118 132 117  76  96  91  68  57  63  57  56  59  60  65  59  57  59  43  35  28  32  47  51  63  76  89  53  46  49  47  54  79 109 135 155
 181 180 180 178 170 155 136 110  82  59  49  47  44  60  68  73  78  66  58  40  35  40  34  46  44  52  64  80  75  94  62  57  85  79  83 104 106 107 124 123 113 123 113 124 135 158 123 105 143 136 128 130 111 120 111 112 115 106 108  97  87  83  81  75  56  64  63  62  74  57  53  57  51  37  41  26  36  52  43  42  66  78  74  55  46  50  47  57  84 114 138 158
 182 182 181 179 172 160 144 119  90  66  53  49  43  61  69  90  79  71  61  47  41  33  32  35  36  44  49  68  83  77  56  55  63  71  87  81  83 103 121 106 108 122 125 132 121 141 146 146 134 131 144 125 127 124 117 101 103 101  93  88  71  86  68  59  60  60  68  67  78  60  40  51  32  27  38  32  59  76  39  35  64  76  74  54  46  48  49  59  87 117 140 159
 181 180 181 180 175 166 152 130 103  77  59  48  47  68  83  89  80  77  63  51  46  35  24  30  29  38  36  52  64  58  58  49  53  84  88  78  71 100 104  96 113 115 123 120 114 125 146 143 148 122 126 134 138 127 108  95  95 108  88  71  62  65  53  58  56  51  61  63  49  61  44  40  27  28  44  77 105  83  40  36  60  61  73  51  47  46  48  61  91 121 143 162
 181 181 181 181 178 171 160 140 117  90  63  49  58  73  85  80  82  74  67  54  48  37  22  22  21  35  27  31  40  40  52  54  53  59  73  67  71  93  82 103  94 100 128 125 138 117 147 126 148 143 122 130 133 109  97  89  97  90  87  69  60  50  37  46  59  42  43  46  48  41  48  38  26  45 101 124 115  84  43  39  58  57  64  50  49  48  50  68  98 126 147 165
 182 181 181 180 179 176 165 148 126  99  70  49  52  80  70  75  79  68  79  68  55  44  29  26  22  31  28  26  27  26  39  52  44  54  64  61  67  72  95 101  90  98 117 129 132 112 124 124 115 124 118 120 126 101  95  82  93  83  80  55  55  43  35  37  34  35  34  52  45  23  33  38  80 125 135 132 113  84  50  49  51  57  57  48  49  50  53  76 105 131 151 168
 180 181 181 181 181 178 169 153 132 105  73  49  58  72  65  84  75  68  90  86  69  57  30  28  36  22  20  20  24  27  30  34  36  46  57  66  69  74  97  85  80  86 103 114 128 119 110 125 112 117 126 119 110  99  88  76  79  71  91  70  41  33  34  41  26  28  34  45  27  29  53 104 137 143 142 134 114  85  53  46  49  62  50  47  48  51  61  84 113 136 155 169
 182 181 182 181 181 179 171 157 136 109  76  55  63  50  71  81  71  68  92  99  84  73  41  25  50  41  24  18  23  26  24  35  34  30  57  62  50  76  97  78  55  78 110 106 109 130 115 116 106  99 109  99 103  76  83  77  59  50  78  68  37  43  50  33  30  27  35  30  34  64 109 143 148 145 141 136 114  86  45  39  58  57  45  51  52  53  70  98 123 144 161 173
 182 182 183 181 181 180 173 159 141 116  83  59  48  50  90  86  70  63  89  95  91  86  68  37  59  75  42  24  21  23  23  28  34  30  58  53  65  73  87  99  54  69 102  93  86 115 117 101  91  90  84  93  95  70  65  56  47  48  70  46  40  40  46  24  26  32  25  36  87 127 150 147 145 145 141 132 113  89  47  29  43  49  48  55  62  72  93 119 139 156 168 176
 182 181 182 181 181 181 177 166 150 128  97  68  48  61  91  82  60  61  95  89  84  91  82  59  51  84  67  39  27  29  36  21  30  26  44  75  66  58  76  75  65  64  64  82  72  92 108  96  75  75  63  65  80  56  46  45  43  59  55  32  28  29  31  24  30  46  50  62 120 155 161 152 142 145 140 128 115  89  48  30  31  36  46  64  80  98 120 142 157 167 174 180
 182 182 181 182 182 181 180 172 160 140 114  83  59  55  82  76  48  61  97  83  72  78  86  55  39  84  90  75  56  43  42  25  29  32  30  29  48  67  62  69  53  65  58  58  73  66  87  74  61  46  55  59  53  37  38  40  43  42  40  40  25  31  29  27  52  77  84 123 145 165 158 152 149 148 136 125 118  90  55  33  32  36  37  45  81 120 140 157 168 174 177 180
 180 181 181 182 181 180 179 174 163 147 124  94  66  53  91  70  43  63  93  79  64  72  67  46  35  84 107 111 104  58  32  33  32  35  29  25  28  30  44  63  28  63  75  33  43  48  67  59  62  44  51  49  39  33  33  31  28  28  32  39  33  28  28  49  93 127 140 158 166 167 156 154 155 147 129 129 122  94  62  37  36  39  40  39  40  79 146 168 173 178 179 181
 181 181 182 181 180 180 178 172 162 145 123  95  63  51  89  67  44  57  80  79  79  75  46  46  30  68 107 125 139 113  84  60  31  39  38  29  22  20  23  25  26  44  76  42  25  41  58  55  32  40  47  43  36  27  29  38  33  34  26  28  29  28  55  84 136 158 163 167 166 164 159 160 154 142 133 131 116  94  61  38  38  41  43  44  48  38  66 152 184 179 181 182
 181 181 182 181 180 180 177 169 158 139 117  88  59  50  88  73  47  49  71  85  72  62  57  48  23  56 107 121 134 138 141 119  82  60  35  18  20  24  21  29  31  36  35  35  29  31  34  28  22  24  22  31  33  28  32  33  29  24  30  47  69  88 122 131 147 164 163 164 164 165 162 157 151 144 138 126 116  98  61  45  41  40  44  47  49  53  42  57 146 191 183 181
 181 181 181 182 181 180 176 167 154 136 112  84  61  54  88  80  53  59  77  73  49  55  57  54  26  38  98 118 130 139 149 150 135 106  59  28  24  23  23  31  28  26  24  15  27  24  26  28  28  22  28  34  30  39  32  44  51  63  78 124 128 114 151 174 178 172 166 170 168 163 159 154 150 145 135 123 120  96  69  52  42  43  46  51  50  56  54  41  45 125 188 192
 180 180 181 182 181 179 173 165 153 134 112  88  70  60  80  77  67  62  61  64  48  55  52  53  31  23  87 113 127 139 143 148 145 137 114  77  54  48  58  79  73  64  42  39  35  20  20  21  15  13  38  43  73  84  90 106 124 123 136 156 157 160 176 182 173 171 169 167 163 163 161 157 151 142 135 125 123  85  66  52  42  47  52  55  54  56  54  50  44  38  82 123
 181 181 182 182 181 178 173 166 156 139 118  95  76  61  69  75  66  52  56  53  49  48  45  51  38  19  72 110 124 134 141 149 159 159 134 111  95  92  94 101 120 107 118 127 110  73  61  58  62  91  99 115 136 132 140 133 136 142 149 164 170 167 171 171 170 169 167 166 166 164 161 155 149 143 136 132 115  82  72  52  43  48  55  59  59  59  63  61  59  52  37  37
