P2
# Generated by OpenCV 4.2.0
92 112
255
 176 176 176 174 176 176 176 175 175 176 176 175 175 172 169 165 159 155 149 145 140 139 136 136 136 137 140 143 144 146 149 150 149 150 151 146 133 115 101  99 104 108  97  94  95  72  55  61  76  85 126 136 133 144 134 133 128 127 126 121 112 109 108 111 116 121 128 132 137 142 146 152 156 160 163 166 170 173 174 176 177 177 179 178 175 172 166 160 155 148 143 134
 176 177 176 177 176 177 176 176 176 176 176 176 174 172 169 165 160 154 148 144 140 135 133 132 132 134 137 140 143 146 148 149 143 143 141 142 140 130 139 133 130 127 116  99  88  81  77  85  87  82  92 107 112 129 124 132 129 127 106  95 113 112 114 118 123 128 135 139 143 147 152 157 161 164 167 170 173 175 176 178 180 179 179 179 176 173 168 163 157 151 144 135
 176 176 178 177 176 176 176 176 177 176 176 176 175 173 168 164 160 154 147 142 137 133 129 127 127 127 131 135 138 140 142 142 147 151 146 145 152 150 139 129 129 136 117  95  75  67  71  83  80  70  58  58  68  79  75  88 120  96  40  74 112 115 123 128 135 138 142 147 151 155 160 164 166 169 172 174 176 178 178 179 180 181 181 180 178 175 171 166 160 153 147 138
 177 176 177 176 176 177 176 176 177 176 176 177 175 174 169 164 160 153 147 140 133 128 125 121 124 131 141 157 152 149 130 131 163 154 142 151 150 145 129 127 135 135 137 121 105  91  76  65  59  62  60  48  50  58  54  55  67  48  47  97 108 121 123 118 115 140 151 155 159 163 166 168 171 174 176 177 178 179 180 181 181 182 181 181 179 177 173 168 163 157 151 143
 176 176 176 176 177 177 177 177 176 177 176 177 175 172 170 165 159 152 146 140 136 129 125 129 143 162 159 154 148 150 147 151 161 142 138 146 147 130 110 108 126 123 112 110  96  80  63  57  57  59  63  62  64  66  62  64  63  48  58  90  90  75  55  90 127 147 154 160 163 167 168 171 175 177 179 179 179 180 181 181 181 180 182 182 179 178 175 172 167 161 155 148
 176 176 176 176 177 176 176 176 177 177 177 176 175 173 169 165 159 152 147 139 133 138 144 159 163 149 137 142 147 155 149 143 134 126 128 120 124 108  99 110 105 100  89  74  65  61  67  77  93  94  74  66  65  65  62  75  70  59  53  67  61  52  67 102 121 109 107 110 124 159 173 177 178 178 181 181 181 182 182 181 181 181 181 182 180 179 177 174 170 165 160 152
 177 176 177 176 177 175 176 176 177 177 176 176 176 173 169 164 159 152 146 141 138 142 145 153 156 157 163 160 146 131 136 135 109 101 111 121 126 120 104  86  81  74  74  77  72  66  61  65  69  63  70  69  70  60  60  76  68  48  47  67  80  78  78  86  66  60  86 103 133 176 183 181 181 181 181 182 182 182 182 182 181 181 182 181 180 180 179 177 173 170 164 158
 177 177 176 178 177 177 178 178 177 177 178 176 175 172 168 166 159 151 143 142 149 138 114 138 158 158 149 144 143 137 137 121 106  99  91 106 119 108 108 105 103 108  94  87  79  71  63  55  55  60  68  69  52  52  48  41  42  49  43  85  74  48  49  38  21  36  75  82  83 120 148 167 181 184 181 182 182 182 182 182 182 181 181 182 182 181 180 178 176 172 169 163
 176 176 176 177 178 177 177 177 178 178 177 177 176 173 170 165 158 152 150 143 130 113 128 143 146 139 132 133 130 137 127 123 118 106 102  88  84  81  91 105  95  92  91  93  86  80  67  54  54  60  58  61  57  60  42  25  29  52  63  98  68  29  34  28  39  31  52  77  85 120 133 145 160 172 182 182 182 182 182 182 182 182 182 181 182 182 181 180 178 176 172 168
 177 176 177 177 177 177 176 177 179 177 178 177 177 173 171 165 161 159 149 138 126 126 142 142 142 144 153 152 139 128 124 117 106  99  98  89  92  86  80  75  65  60  58  64  66  65  60  46  39  33  25  31  34  27  17  12  47  76  97  82  81  73  41  45  44  30  48  72 116 142 177 183 176 174 180 181 182 182 182 182 182 182 183 182 182 182 182 181 180 178 175 172
 177 177 178 178 177 178 176 177 178 178 178 176 176 172 169 165 162 152 128 122 135 141 139 135 125 120 134 137 131 107 110 118 118 113 102  96  94  91  93  78  61  62  56  46  41  39  43  41  36  28  27  44  36  27  23  27  95 102  89  84 106 106  96  64  44  41  50  58  81 115 147 181 184 183 182 182 181 182 183 183 182 182 182 183 182 182 182 183 181 180 178 176
 177 177 178 178 179 178 178 177 179 179 178 178 176 173 163 157 136 121 144 163 163 140 128 128 127 117 118  96  83  74  70  72  70  72  71  90  93  89 102  93  82  87  80  70  62  50  41  38  39  41  49  51  35  41  50  54  99  96  60  68  85  70  82  86  52  64  55  32  19  49 122 162 186 183 182 182 183 182 183 183 182 182 182 183 182 183 182 182 181 181 180 178
 178 179 179 179 179 179 178 177 178 178 178 178 176 164 146 136 129 151 161 156 145 137 136 147 139 127 114  84  72  72  64  50  42  31  28  36  41  44  35  32  31  42  46  42  39  28  28  32  39  34  36  37  37  58  52  72  77  67  81  90  89  70  45  84  96  61  45  37  25  22  92 142 162 185 182 182 182 182 183 183 182 183 183 182 182 182 183 183 182 182 181 180
 178 179 179 180 179 178 179 178 177 178 178 179 173 151 140 145 155 150 145 137 113 126 134 131 122 113 100  73  56  46  32  31  26  30  40  46  55  57  54  52  60  66  48  34  33  33  39  28  24  19  27  35  40  50  71  86  66  62  76  62  88  62  60  55 112  83  22  18  28  27  61 111 121 172 185 182 181 181 182 182 182 183 182 181 183 183 182 182 182 182 182 181
 180 179 179 180 178 178 178 179 179 178 180 169 146 123 123 145 150 143 143 118 110 118 108 112 101  83  63  66  73  68  60  47  43  50  53  66  68  61  54  44  44  49  62  66  59  60  41  31  30  42  45  46  39  58  97  97  95  81  74  49  56 105 108 132 108 106  69  23  62  61  43  57  79 109 166 180 180 181 181 181 181 181 181 181 181 182 182 181 181 182 181 180
 178 180 179 178 178 179 180 179 179 180 167 126 111 111 130 156 165 140 114 112 118  98  72  67  60  51  77 111 110  83  67  61  68  75  73  71  67  55  50  44  46  55  55  51  48  47  48  58  62  62  44  36  35  61 101  73  77  84  57  55  59  99  99 167 139  64  95  43  58  83  27  49  93  77 135 173 178 178 179 179 179 180 181 182 181 181 181 181 181 181 181 180
 179 179 179 179 180 180 179 179 181 176 126  98 108 114 149 147 105  87  82  79  68  77  81  72  79 105 118 102  72  73  58  54  60  75  90  78  66  80  97  90  79  70  53  60  74  69  65  57  50  46  45  40  54  55  71  56  41  92  55  48  70  56  81 142 112  48  80  75  46  51  44  63 106 102 123 171 180 173 175 175 176 176 176 177 177 178 178 178 178 178 179 178
 179 180 179 179 180 180 180 179 177 152 111 106 115 130 117  94  92 104  87  86 111 109  92 101 111  96  56  40  39  45  67  46  67  75  64  62  59  63  70  60  48  46  49  69  76  70  60  49  40  36  38  55  54  47  43  38  31  54  66  30  45  71  76  85  74  92 102  54  35  26  56  62  83  83  92 103 158 172 170 171 170 172 173 173 174 174 175 174 174 175 175 174
 179 179 179 179 179 180 180 181 171 151 106  85  99  95 103 122 117  99 106 116  98  95 121 110  80  62  42  48  61  50  57  57  60  52  40  42  45  62  60  60  51  47  52  59  58  50  46  41  39  41  53  60  55  47  47  35  29  34  72  36  19  49  77  72  68  92  88  29  35  57  55  63  58  27  74  64  71 162 170 165 166 167 167 168 168 168 169 170 169 170 170 169
 180 180 180 180 179 180 179 179 179 136  81  83  95 112 121 111 105 112 115  85  91 116 103  92  91  63  49  71  70  59  53  55  36  29  61  89  97  65  55  51  46  42  40  41  46  46  55  56  44  52  55  35  42  46  40  36  25  36  59  40  28  23  55  67  71  80  63  48  55  76  64  51  45  53  82  88  66 116 163 161 161 162 162 162 162 163 164 164 164 165 164 165
 180 181 179 180 180 180 179 177 165 112 102 111 111 118 119 108 118  96  62  73 100 104  92  92  72  63  80  64  55  48  28  28  53  61  84  89  75  51  39  36  29  32  37  45  61  74  56  44  37  33  34  37  38  40  33  32  31  44  54  49  40  34  35  63  77  82  52  63  62  71  61  22  68 109 111 128 108  94 145 157 155 155 155 156 157 157 157 158 159 160 158 159
 180 179 180 180 180 180 178 177 140 116 125 103 111 114  94  96  84  64  71  71  93 104  97  87  60  57  64  66  55  53  72  81  72  54  45  30  25  33  34  37  44  51  60  70  80  53  35  31  38  53  49  42  38  45  42  44  42  56  55  62  63  46  41  44  66  63  55  58  42  67  63  32 111 128 132 134 121  92  97 145 155 151 151 152 151 152 153 152 153 155 154 154
 181 180 180 180 180 179 181 170 119 104  91  79  90  68  65  85  88  78  59  71 106  88  79  53  66 108  97  86  89 103  94  61  67  83  65  45  33  33  51  67  74  72  77  64  44  40  42  41  42  41  38  45  50  59  61  65  72  76  84  77  76  50  49  49  54  56  46  37  32  75  64  71 138 133  99  92 101  86  89 122 150 149 147 147 148 147 148 148 149 150 151 151
 180 180 180 180 180 181 182 153  99  91  70  64  54  70  77  75  76  69  83  95  85  69  59  96 124  95  87 103 104  69  31  41  67  51  29  24  24  45  78  87  76  64  48  38  37  35  32  36  40  48  60  66  70  74  81  95  96  89 105  91  79  66  56  65  57  61  49  42  47  73  53  80 157 102  73  84  73  63 103  99 114 142 145 145 144 145 145 145 146 146 147 147
 181 181 180 180 180 181 180 118  87  77  57  60  77  86  74  65  71 102  91  81  80  62 103  91  67  73  70  50  40  51  62  47  23  23  36  30  31  65  98  86  61  41  33  31  32  36  37  48  64  79  91  95 105 114 119 116  94 110 112  99  84  71  75  80  65  79  63  55  56  64  67  93 139  82  66  77 105  78  92  99  98 123 144 144 144 145 144 145 144 144 145 145
 181 181 179 180 180 183 157  80  70  57  73  81  75  61  65  87 101  87  58  63  62  75  59  73  84  50  25  50  81  76  44  25  39  53  38  38  52  86  73  45  36  35  35  32  37  47  59  77  93 114 121 130 137 139 129 111 103 125 122 111 101  75  82  96  68  82  75  58  44  54  73  95 115  98  72  58  96  88  66  89 111 107 142 143 143 143 143 144 144 144 144 144
 181 180 180 181 180 180 120  68  63  61  69  55  51  46  50  72  54  46  54  67  82  68  68  63  34  39  76  86  49  23  31  28  39  28  26  28  37  44  37  37  44  48  46  46  55  69  90 113 130 140 149 155 154 154 137 131 132 131 128 121 112  80  87  97  85  85  77  68  43  32  57  83  79  96  51  51  73  88  52  75 112  98 136 145 143 144 143 144 144 143 144 144
 180 181 181 180 178 168 101  72  55  56  51  43  47  45  41  46  58  61  65  85  77  57  37  35  68  81  58  27  24  39  34  29  26  27  28  30  40  43  46  53  62  69  73  80  82  96 122 144 154 162 167 162 164 160 156 152 144 139 137 127 116  90  89  90  90  86  89  68  57  28  53  77  67  54  25  48  70  86  74  59  93  94 117 147 144 145 145 145 145 144 145 146
 181 181 180 179 181 164  96  59  47  46  48  47  43  43  48  50  49  59  71  69  48  34  42  94  79  41  26  30  43  48  42  43  38  37  46  59  63  75  86  95 102 102 101 102 107 128 150 164 178 178 175 179 175 164 163 159 154 152 149 142 127 114 103  88  94  93  93  72  61  53  49  69  53  48  46  47  57  58  79  53  63  79 106 145 146 146 145 146 147 146 148 148
 181 181 181 181 183 156  74  45  47  43  46  39  33  40  39  46  51  48  50  46  32  38  70  62  38  35  37  41  56  64  53  44  50  65  89  91  96 100 110 123 123 116 115 126 144 162 178 187 187 189 189 186 179 178 170 161 162 160 157 155 145 139 125 100 102  97  96  90  76  67  58  60  53  61  72  47  65  49  58  53  57  74  89 139 148 146 146 147 148 148 147 148
 182 181 180 180 187 127  47  38  48  50  46  37  37  35  34  38  43  36  37  35  38  44  43  39  44  42  49  60  64  59  56  64  88 104 109 101 106 122 132 138 133 137 154 168 179 188 193 193 194 194 191 184 180 181 175 170 166 163 162 162 157 161 148 123 105  93  99 104  96  80  68  68  70  79  90  64  73  54  56  57  54  75  86 123 149 146 146 146 146 148 147 147
 182 182 181 184 179  78  38  37  50  55  44  38  34  30  30  35  39  38  38  42  41  38  44  50  45  56  68  71  64  63  75  98 109 118 121 113 126 144 143 146 155 168 182 187 189 191 192 193 191 191 189 186 180 180 174 174 173 168 165 167 165 167 164 144 116 102 104 106 107  85  71  77  75  97 107  94  75  76  73  76  58  67  94 123 145 145 146 145 146 148 147 148
 181 182 182 189 139  62  42  32  37  43  40  39  24  29  32  42  44  42  48  44  43  49  55  51  57  73  78  75  75  84 101 115 126 137 142 142 140 142 146 153 172 189 195 193 195 195 194 196 195 195 192 190 185 183 182 180 176 170 170 171 169 170 169 159 139 125 120 103  98  87  63  79  90  94 119 117  90  81  86  92  67  68  98 119 142 143 142 145 145 145 146 147
 182 181 183 179 124  77  37  37  30  37  43  34  23  28  39  46  48  50  49  48  56  56  55  55  75  90  92  97  97 116 135 144 148 152 155 148 146 153 163 165 179 188 188 190 193 194 195 198 198 198 197 192 189 189 191 187 184 176 172 172 174 173 167 163 156 144 136 120  97  82  64  69  87  80  88 127 108  98  96 101  84  81  91  97 137 143 144 142 143 144 145 146
 182 182 184 170 152  86  39  36  22  37  36  25  24  34  45  49  53  54  50  61  61  55  61  77 101 105 112 113 130 147 153 155 153 159 164 161 168 172 173 180 183 184 186 189 190 190 195 194 196 199 199 196 194 194 193 191 189 178 173 176 177 171 163 158 156 151 139 122 111  90  71  59  76  68  58  84 112  95  97  97 102  96  95  81 133 141 140 138 141 142 143 144
 182 182 182 178 173  84  38  26  19  31  27  26  25  35  44  51  58  51  60  68  59  61  85 107 111 115 121 134 148 152 156 160 164 163 168 171 175 170 174 175 179 185 189 190 195 194 194 195 195 196 197 195 197 198 194 193 186 177 173 173 174 169 161 161 159 150 139 130 115  91  68  56  55  56  52  46  82  94 101  94 108 103  99  80 117 140 138 137 138 139 140 141
 183 182 182 186 170  77  38  19  22  27  22  22  28  38  48  56  58  57  66  63  62  82 103 109 111 115 132 141 142 150 164 165 161 164 172 170 169 171 172 174 176 182 184 187 190 190 192 190 190 186 192 197 195 194 192 188 186 175 170 174 172 166 158 152 153 149 144 131 106  92  70  53  47  47  41  37  44  77  90 101 100 107 108  88 105 139 135 135 135 136 138 140
 183 183 183 189 153  60  36  19  22  23  20  26  33  41  47  58  61  67  65  63  80  97  99 107 114 127 140 139 144 158 168 169 165 167 170 165 166 169 171 173 176 179 181 184 185 188 189 189 188 191 188 188 187 187 188 186 182 171 168 172 168 165 157 155 147 133 131 125 106  86  70  50  41  43  35  31  28  48  71  91  94 103 116 108 101 135 132 132 133 134 135 137
 183 183 183 190 135  56  32  20  24  21  26  30  34  39  49  58  68  73  69  87 109 109 108 119 135 141 144 144 149 158 164 166 171 171 172 165 166 168 169 171 177 181 181 180 183 186 187 190 193 191 186 181 182 184 182 181 177 171 172 172 169 166 157 155 153 134 122 110  98  87  68  52  41  32  35  32  25  31  52  68  85  93 105 116 108 131 133 132 132 132 133 135
 183 183 183 188 127  53  30  23  23  28  30  31  35  39  50  61  75  77  86 102 106 106 112 119 132 138 143 147 151 159 165 162 165 167 172 170 166 165 165 171 178 180 180 176 174 181 186 187 187 187 184 180 179 179 181 182 179 175 173 175 174 167 161 152 139 128 119  98  86  70  61  48  43  34  28  29  26  28  44  47  73  80  89 102 114 131 134 133 132 132 134 135
 183 183 184 187 137  47  27  26  27  34  26  32  35  42  52  67  79  84  90  91  96 111 117 117 123 132 132 134 148 155 166 165 161 165 167 172 170 170 166 170 179 179 179 177 178 179 185 187 188 188 188 183 181 182 182 179 178 175 174 176 171 169 169 160 147 124 100  82  75  67  55  46  38  38  32  27  27  26  38  42  56  69  86  94 115 131 135 133 133 132 133 135
 184 184 184 190 142  43  27  29  34  28  29  33  35  40  54  71  78  86  91 106 123 134 138 142 146 146 143 140 146 157 167 171 167 166 168 171 170 169 169 175 185 188 182 181 188 190 189 188 190 188 188 186 186 188 188 181 177 175 172 171 169 165 166 165 155 139 117  94  80  67  51  42  35  33  33  29  28  28  32  38  44  55  78  91 112 131 138 135 134 133 133 135
 184 185 184 192 142  42  25  30  32  25  31  35  35  40  56  73  79  92  98 104 109 118 127 138 145 154 156 153 152 158 168 175 176 175 175 172 172 170 171 174 182 182 176 180 190 191 191 191 190 191 189 187 186 191 185 180 177 173 171 168 163 159 167 164 154 141 122  98  76  63  52  43  36  32  31  32  30  31  35  40  44  56  68  88 118 136 137 137 136 135 135 136
 184 184 184 191 135  36  28  35  30  25  33  36  37  40  59  75  84  89  86  96 114 120 122 130 136 145 156 156 155 162 162 170 177 175 175 173 170 164 171 173 177 180 181 186 190 193 194 193 191 192 191 188 191 192 187 183 178 171 165 162 160 161 165 161 156 146 131 115  86  65  55  41  33  29  29  28  29  31  34  36  40  57  67  88 129 142 139 140 138 136 136 136
 185 183 184 191 134  35  36  39  27  30  31  35  34  41  63  80  87  85  93 121 135 143 140 140 140 142 150 153 155 161 160 170 178 179 177 174 171 166 167 171 182 182 189 192 189 190 189 190 192 193 192 192 194 191 188 184 180 169 162 161 163 163 164 161 161 156 142 125 104  74  57  48  34  28  27  29  27  32  29  36  40  53  73  89 130 144 142 139 139 137 136 136
 185 185 185 189 134  40  42  40  26  29  31  30  33  46  66  80  86  95 118 126 127 137 137 139 146 153 154 156 150 151 161 171 176 182 177 172 178 170 160 167 183 184 184 185 183 183 191 195 195 196 199 196 196 196 192 184 180 173 171 167 167 163 163 158 157 157 152 143 132 107  71  45  37  29  27  28  27  34  33  36  38  51  70  93 139 143 144 142 141 138 137 136
 184 185 184 190 145  50  41  39  30  31  28  25  32  52  75  80  93 100 101 106 111 117 122 127 135 145 153 159 155 148 154 166 170 181 182 172 174 172 154 166 174 178 177 184 189 189 193 198 195 194 195 194 196 194 189 185 180 176 177 174 168 166 160 156 154 152 151 148 152 150 124  70  44  39  31  30  28  31  37  43  43  54  63  94 142 146 145 145 143 139 138 136
 185 185 185 190 167  77  39  41  34  30  26  26  35  62  76  89  96  78  70  71  75  78  90 103 115 127 140 147 152 152 154 158 163 173 175 171 170 173 152 156 169 171 169 178 184 181 183 187 190 191 187 188 191 184 181 174 169 171 174 175 170 165 159 152 148 146 147 150 154 155 149 101  51  37  39  35  35  36  42  43  43  51  60  96 144 148 148 146 144 141 139 137
 186 186 186 187 183 122  45  40  35  26  23  23  45  70  79  92  75  56  49  46  45  46  53  62  80  92 103 126 135 139 148 152 156 161 165 165 168 170 156 148 155 158 157 159 169 155 160 152 151 154 160 167 164 160 154 152 148 153 160 164 168 169 162 151 148 145 145 149 153 155 153 128  77  35  34  36  38  39  43  40  42  49  57 108 147 149 149 149 146 143 141 139
 186 185 186 186 190 159  57  40  38  25  23  27  53  75  86  79  59  50  47  46  42  39  41  42  47  61  65  85 104 118 125 138 148 151 155 156 160 161 154 142 144 141 143 138 134 118 117  98  96  96 108 114 123 129 129 130 127 128 143 145 146 153 160 151 149 149 144 147 154 155 158 143 106  57  32  36  41  40  38  42  48  48  67 127 149 149 150 151 148 145 143 141
 186 186 186 186 190 169  67  40  39  28  29  33  60  85  92  69  57  66  71  74  66  57  52  49  46  47  53  59  75  93 102 113 135 142 146 148 152 156 147 132 133 124 115 110 102  90  86  76  61  63  68  67  85 102 107 108 115 119 125 127 121 124 140 150 147 149 144 151 157 156 158 154 133  88  45  37  42  42  40  41  47  49  66 137 152 150 151 151 150 147 144 142
 186 186 187 186 188 179  87  37  39  35  34  32  64  87  84  64  63  76  80  81  76  72  63  56  51  47  50  53  59  73  84  97 122 129 133 149 154 153 143 122 122 116 104  95  90  82  78  67  55  52  48  51  59  70  71  74  85  95  99  99 100  99 114 135 138 142 146 151 157 158 158 154 145 117  76  46  44  41  43  41  43  54  69 137 152 150 152 153 151 148 146 144
 187 186 187 187 186 185  98  39  42  42  32  30  66  89  76  64  65  69  73  77  79  70  58  48  42  43  47  50  53  58  69  83 105 111 118 141 155 153 141 119 109 106  94  81  75  68  64  60  56  54  54  53  53  59  79  95  96 100  98  90  90  98 110 121 127 139 143 149 153 158 156 154 149 140 115  67  45  38  41  49  44  53  80 133 151 152 154 154 153 150 147 145
 187 187 186 187 188 189 122  46  44  45  32  32  72 101  73  59  63  72  78  70  60  51  49  50  46  34  31  41  49  51  56  65  81  95 111 140 159 156 142 119  98  83  76  68  64  59  56  55  46  38  39  37  38  51  75  90 112 134 144 135 124 116 112 122 133 142 141 146 149 154 154 154 145 142 128  98  62  40  37  52  50  49  94 145 153 153 155 156 155 153 151 149
 186 187 187 187 188 191 137  55  44  43  35  43  80 100  73  58  66  77  61  48  41  33  28  35  44  49  40  27  34  47  50  53  61  80 106 137 165 170 160 142 116  86  70  64  59  57  53  40  33  33  25  16  23  22  22  30  35  55  87 117 143 139 130 136 138 133 139 150 152 153 151 153 142 133 128 109  89  58  37  53  69  94 145 167 163 158 158 159 158 156 154 152
 189 187 187 187 190 176 127  66  40  44  44  53  85  92  70  65  72  57  46  38  34  24  13  38  44  44  53  43  30  33  43  47  51  64 102 142 168 179 177 169 148 116  73  51  49  49  39  37  45  43  29  18  14  25  32  89  77  48  39  39  72 126 140 138 137 138 142 150 153 153 149 150 141 131 125 112  88  73  70  72  83 141 172 165 162 162 163 162 162 160 159 157
 188 188 188 187 192 168  90  66  41  52  50  61  86  86  69  72  68  48  35  34  49  28  22  16  29  72  94  55  43  34  33  40  45  52 100 145 174 184 188 180 162 147 125  86  55  48  50  41  43  84  66  40  27  39  88 155 144 112  96  82  51  71 114 129 140 146 149 151 154 152 150 149 146 132 121 105  91  79  82  94 110 150 177 164 148 147 165 167 166 164 163 163
 188 188 188 188 194 170  62  55  52  57  57  69  87  80  71  70  61  49  44  63  77  50  35  31  59 125 129  86  46  36  37  41  44  44  95 147 175 185 183 176 164 160 161 145 128 133  84  71  98 139 125  97 101 116 154 165 145 150 144 130 125 101 100 127 147 150 148 152 155 154 150 151 150 139 125  95  87  79 104 113 145 154 123  88  84 117 159 173 171 168 168 167
 188 189 189 189 195 146  50  51  67  59  62  76  85  79  79  71  62  60  72 103 115 107  86  81 113 139 137 128 104  78  55  65  66  62 124 157 170 182 180 175 166 159 156 173 189 174 135 135 123 120 121 124 140 144 156 164 160 154 139 134 160 165 154 153 158 155 156 160 156 153 153 154 150 136 120 113  87  82 122 152 144  95  50  36  40  94 151 178 174 173 172 172
 188 188 188 189 193 118  46  46  65  72  63  73  83  83  85  80  82  71  77  96 108 114 121 121 121 119 119 115 127 128 106  99  89 102 152 164 169 181 181 175 165 158 160 173 173 169 167 142 111  93 104 124 137 146 159 158 146 130 128 146 158 164 168 161 158 156 164 169 158 156 154 153 145 132 125 107  96  80 102 159 142 115 132 100  42  93 153 181 178 177 177 177
 189 189 189 191 183  95  47  42  72  88  57  79  87  86  90  96  86  76  71  72  89  98 104 108 108 101  99  99 106 109 109 106 102 129 158 170 171 180 181 179 171 161 161 173 170 147 135 127 114  92  76  76  83  84  91  97 103 115 136 144 158 164 166 163 164 164 169 167 163 159 154 153 144 131 120 102  98  78 106 146 139 142 171 179  86  87 157 180 182 180 180 179
 189 189 189 194 166  76  46  52  81  89  62  85  93  96  94  93  89  88  71  63  56  59  64  69  75  83  96 108 111 107 115 116 110 129 158 172 172 177 183 190 182 167 159 172 181 179 153 135 133 134 125 106  94  89  90 100 118 137 157 167 167 166 166 165 165 169 172 165 164 163 152 152 149 127 113 118 112  91 116 141 147 165 170 186 147 105 155 180 184 183 182 182
 189 191 189 196 151  64  59  72  83  93  66  88  96  96  93  95 101 100 100  93  79  74  74  81  94 107 122 130 129 126 126 118 104 122 153 167 170 171 186 191 166 157 158 169 181 191 193 174 158 151 154 161 164 162 165 170 175 177 172 170 175 173 168 166 167 174 172 163 159 160 154 151 152 127 105 113 115 117 131 123 144 186 183 178 186 131 147 182 186 184 185 184
 189 190 190 196 139  68  77  83  83  86  80  91  97 103 110 113 111 115 117 119 123 122 120 125 128 125 133 143 145 130 121 106  99 120 148 164 168 174 184 174 155 156 162 165 172 186 198 193 191 179 172 171 173 172 174 183 183 182 183 178 174 175 171 167 171 174 173 163 159 158 155 152 146 129  98  94 113 121 143  95  70 127 166 162 183 159 145 183 187 186 185 185
 190 190 191 197 136  75  85  86  85  77  80  97 105 108 122 125 118 120 126 133 136 134 131 132 133 135 138 144 139 124 111  97 101 122 149 163 162 173 176 166 157 166 165 164 169 182 187 175 195 197 188 179 176 179 180 183 182 184 186 184 180 179 175 173 174 170 167 163 161 160 155 150 140 122 104  98 103 127 144  96  86 131 145 152 168 174 152 182 188 188 187 187
 190 190 191 198 143  76  88  87  89  81  75 109 111 114 133 126 116 125 135 139 139 137 136 135 140 144 143 142 132 120 105  95 107 124 144 160 166 177 172 159 158 166 167 162 167 177 187 186 195 184 181 187 183 183 187 186 185 185 186 188 185 181 179 177 174 171 165 164 161 158 151 151 139 118  99  91  98 129 150 135 138 155 154 148 164 185 155 183 189 188 187 188
 191 191 190 197 154  81  97  89  84  78  82 122 122 125 129 125 121 127 134 139 141 144 143 145 150 148 146 142 127 116 101 104 112 127 145 161 171 177 170 158 161 164 167 164 167 173 186 198 197 175 172 196 192 190 192 191 190 192 189 185 183 184 179 175 176 173 165 160 157 151 150 150 142 127 102  98  98 130 157 153 157 159 152 148 167 185 155 186 189 188 188 188
 190 191 191 197 160  92 105  90  81  76  97 136 126 124 121 122 124 124 130 140 145 150 151 155 154 148 145 133 123 109 102 112 113 123 150 170 177 179 171 161 160 160 166 167 169 171 181 193 196 193 194 193 195 198 198 196 194 189 184 182 179 180 179 172 175 172 164 158 154 151 149 142 135 123  93 100 104 138 163 162 156 158 158 160 170 182 159 188 188 187 188 188
 191 191 191 196 170 101 108  93  86  76 102 131 119 119 117 118 120 118 129 139 147 154 158 159 154 149 141 127 118  98 105 111 112 124 150 169 187 189 183 173 167 160 160 163 164 171 180 185 191 193 194 196 197 196 197 194 193 187 179 177 177 178 176 173 173 167 163 159 151 149 148 139 131 109  99  95 106 146 169 165 173 179 174 165 174 172 160 191 189 188 188 188
 194 193 192 195 180 107 112  89  80  79  96 128 116 113 116 117 119 122 128 138 147 152 156 154 152 149 140 129 118 103 105 107 109 119 144 166 182 184 176 179 172 166 153 148 159 167 177 185 188 188 192 194 196 194 193 193 190 187 183 180 180 178 174 173 170 163 158 157 150 145 142 134 129  99  92  79 116 148 168 164 195 209 177 159 179 160 160 192 189 189 189 188
 192 192 193 194 188 114 129 108  69  74  93 126 111 108 112 119 123 123 129 137 146 150 154 150 147 144 139 131 124 105 100 102 106 119 144 169 171 170 166 168 177 172 158 151 158 160 166 181 188 188 191 194 194 194 194 191 191 188 183 182 178 176 173 167 164 163 157 156 150 144 134 132 123  93  86  88 116 153 166 167 192 195 161 165 174 144 164 192 189 189 189 189
 192 192 193 194 194 126 122 176  79  59  84 115 106 101 108 119 122 121 129 137 143 148 150 146 141 144 139 130 114 101 105 101 109 134 160 169 162 159 160 167 175 178 163 152 156 158 164 168 173 187 192 194 193 192 192 189 186 187 182 179 177 174 167 162 157 157 152 149 147 135 129 130 118  84  85  87 116 160 168 154 157 162 167 182 148 136 169 193 190 189 189 190
 192 194 193 194 194 149 104 167 165 112  69 107  96  93 102 107 113 118 122 132 139 143 145 140 136 137 132 118  99 104 108 104 128 150 158 190 188 161 160 161 167 174 171 154 151 152 157 171 165 170 184 192 191 190 190 186 183 178 179 175 173 170 166 157 156 151 148 145 139 132 129 125 105  86  76  83 114 151 159 145 161 169 166 160 140 147 171 193 189 190 190 190
 192 194 193 193 193 168 112 126 186 170  76  93  91  87  92  98 106 114 122 128 135 137 138 136 136 132 120 104  83  92  96 103 136 144 138 159 190 180 166 156 164 167 160 145 142 138 148 170 172 161 167 181 187 189 185 182 180 179 174 172 166 163 161 157 156 151 145 142 137 133 128 118  98  92  76  81 107 132 152 178 185 184 168 155 161 148 175 193 190 189 190 190
 190 190 189 191 190 173 155 166 164 141  74  86  84  82  89  94 100 109 118 125 132 131 134 134 133 122 111  99  69  65  73  80 111 123 116 113 146 169 154 138 133 124 116 120 128 125 139 165 176 169 156 169 179 183 183 179 178 175 170 170 164 161 157 154 152 150 146 143 140 129 122 110  98  95  75  81 109 131 152 175 177 180 171 159 159 147 185 192 190 190 190 190
 186 186 185 187 186 172 193 182 137  97  69  80  83  77  84  91  99 108 114 120 125 132 134 139 131 111 107  93  58  43  41  49  66  84  87  71  85 107  98  82  60  32  38  70  97 109 142 172 174 173 156 154 171 179 178 176 170 168 168 165 165 158 156 155 149 148 146 143 142 126 116 115  98  84  72  93 110 132 165 174 176 179 170 157 137 160 193 190 190 191 190 190
 182 182 183 184 184 170 157 146 122  90  63  76  88  78  83  85  95 106 107 112 122 126 133 138 120 109 106  88  50  30  22  22  40  50  53  51  51  61  49  27  12  10  13  38  63 104 167 179 175 173 165 151 159 172 176 175 171 168 164 163 163 156 154 154 153 146 144 143 141 129 125 120 100  82  82 103  86 120 169 176 176 173 165 137 139 188 194 192 192 191 191 191
 177 178 177 178 180 168 101  98  98  76  63  90  88  78  81  82  90 101 108 110 113 120 130 128 112 110 104  84  58  34  24  20  21  31  38  38  43  39  27  31  37  49  56  64  98 154 178 174 174 174 173 157 152 166 175 172 168 163 156 157 157 158 155 155 152 151 149 143 140 132 132 127 114  98  93  92  83  94 125 145 147 142 129 140 185 195 192 192 191 191 191 191
 171 172 172 172 173 176 125  70  63  55  52  76  81  82  80  80  87  98 104 106 104 107 124 117 113 107 102  83  61  46  28  22  24  23  19  20  24  25  35  73  94 104 120 129 153 171 169 176 177 174 175 169 151 154 169 171 166 164 163 160 154 154 156 156 150 150 153 146 142 135 129 124 129 111  93  78 140 160 113 109 118 139 162 191 194 191 191 191 190 192 191 191
 164 164 165 166 166 167 171 148 121 114 129 106  84  84  83  79  83  94 103 105 106 118 121 113 102  96  94  79  61  52  41  27  23  21  23  27  20  21  51  96 102 104 116 136 147 157 173 175 177 176 172 173 165 150 156 164 165 164 162 161 154 154 154 158 156 151 151 146 148 138 133 129 135 121  96  79 169 191 188 181 186 192 194 190 189 189 189 189 189 188 189 189
 156 156 157 158 158 158 160 164 168 170 172 118  83  87  83  76  77  88 100 102 103 115 114 107  92  93  91  76  62  44  41  40  31  20  28  26  21  34  64 104  93  93 115 123 126 144 167 165 174 166 169 161 166 167 157 159 160 161 160 156 153 153 155 156 157 153 152 144 140 139 135 131 128 116 100  86 177 178 181 183 185 185 184 184 184 185 185 185 185 186 185 186
 148 148 148 149 150 150 151 152 152 153 157 119  82  86  90  78  74  80  89  94 103 108 100  90  84  78  80  70  58  41  37  44  42  37  38  43  42  62  71  96  89  85  97 111 109 126 146 160 166 151 155 150 148 164 167 159 161 157 153 152 151 148 154 150 153 153 156 150 142 134 133 123 125 115  89  91 175 175 176 177 178 179 179 179 180 181 180 180 180 181 181 181
 139 140 141 142 142 143 143 144 145 145 151 116  83  88  93  81  74  77  83  92 100  95  81  70  70  74  76  61  44  41  43  47  53  69  73  77 100  78  68  90  86  82  88 107 120 114 121 134 145 135 135 139 144 140 159 155 156 158 150 150 152 147 148 152 153 153 153 151 140 134 131 129 115 121  89 102 173 169 170 172 172 173 173 173 172 174 174 174 175 174 175 175
 132 132 132 133 134 135 135 135 136 137 142 119  85  81  83  82  73  74  79  87  90  85  73  66  70  81  67  62  56  58  67  72  80 102 115 114 126 101  83 103 106 102  92 104 107  95 102 110 123 122 119 126 138 140 134 148 153 153 150 148 149 150 148 154 155 151 143 139 136 136 133 121 119 114  99 117 166 162 163 163 164 164 165 165 165 166 168 167 166 167 167 168
 124 125 125 126 128 128 127 128 129 130 135 123  85  78  84  80  73  69  72  79  87  88  68  62  71  54  57  75  77  75  85  85  85  91 110 129 127 110 108 129 141 121 112 117 108 103 113 115 107 112 109 121 118 130 135 121 140 150 149 144 142 150 153 154 153 150 139 134 130 136 125 111 117 128 115 127 154 154 153 153 154 155 155 157 157 158 159 159 159 159 161 160
 122 122 122 122 122 122 123 124 125 124 127 119  83  77  81  79  77  70  69  72  77  68  60  60  53  44  49  66  76  61  56  55  61  62  64  77 100 102  90  90  88  94 106 107 119 119 129 120 109 108  95  90  98 114 117 122 133 138 144 139 135 147 152 150 145 147 136 133 121 141 124 115 100 116 115 127 143 143 144 145 145 145 146 147 148 148 149 149 150 150 150 151
 121 120 121 122 121 122 122 122 122 122 122 123  80  69  76  83  80  74  66  65  72  64  55  48  37  39  44  42  37  32  30  38  42  49  49  43  47  51  45  45  54  56  51  55  65  78  99 103  96  91  69  57  70  82 110 111 127 140 140 135 142 146 143 149 146 144 131 123 127 140 126 117 108  96 106 119 133 132 134 134 134 135 136 137 137 138 138 139 139 140 141 140
 121 121 121 122 122 122 123 122 122 121 125 126  78  65  73  80  73  74  72  64  70  65  59  57  42  29  22  19  28  52  70  82  81  84  92  91  86  84  82  80  81  79  73  66  62  60  51  50  55  51  38  28  50  72  92 108 115 128 136 136 143 139 142 152 151 142 126 124 127 139 125 117 108  92 104 101 124 123 123 122 124 125 125 126 127 128 128 128 129 129 130 130
 121 121 121 121 122 122 122 122 122 122 125 113  71  64  70  76  74  78  75  63  66  70  77  67  73  58  47  53  73  97 116 125 128 133 147 154 155 150 146 149 156 160 154 154 149 144 129 123 123 120 108  73  63  69  77 111 125 125 123 119 137 135 145 145 150 144 123 137 129 140 131 111  98  99 106  95 107 112 112 112 112 112 113 114 116 116 117 117 118 119 119 120
 121 121 121 121 121 121 122 122 122 123 125 113  64  58  71  69  73  78  73  64  65  76  85  85  85  81  77  78  86  95 107 116 122 130 141 143 141 151 153 158 163 165 163 165 158 156 152 148 152 154 153 145 112 104  99 121 133 122 126 126 118 134 146 146 144 145 127 135 128 135 134 100  98 107 108  99  98 105 102 100  99 101 102 102 104 104 104 105 107 108 108 109
 121 120 121 121 121 121 122 121 122 122 123 122  76  56  66  69  72  71  70  67  67  78  87  80  76  79  83  83  92 106 107 112 106 102 111 110 111 112 120 128 130 137 144 143 147 151 148 147 152 152 150 151 137 125 115 126 140 126 114 122 120 133 151 142 140 135 127 128 121 130 125  99 103 111 108  99  97  99  96  94  95  93  94  95  96  96  97  98  98  98  98  99
 121 120 120 121 121 122 122 122 122 122 121 127  89  52  63  66  73  70  62  66  69  77  76  76  86  85  72  78  84  95 103  96  81  81  87  91  86  83  89  96 106 110 109 107 129 141 145 141 151 150 147 152 152 136 120 119 130 124 109 113 126 127 137 141 141 127 130 123 122 116 104  93 110 106 105 100  96  96  95  95  94  93  93  94  94  94  94  94  96  96  95  95
 121 120 121 120 121 121 122 122 122 122 121 126 106  51  56  61  66  71  61  57  55  63  69  79  88  85  74  72  66  76  78  79  70  70  78  92  88  72  85  87  90  92  88 105 122 126 128 131 140 147 154 155 147 130 115 115 122 104  95 108 133 150 123 130 130 127 122 121 120  94  81  90 108 105 105  98  94  94  96  95  94  94  95  94  94  95  96  95  96  96  95  95
 122 122 123 122 122 122 122 123 122 122 121 123 113  53  41  55  56  62  57  48  47  49  62  70  79  78  76  76  69  69  65  65  65  67  73  88  87  79  78  79  77  77  92 111 118 126 129 138 146 150 149 149 144 144 128 116 117  99  87 108 130 137 132 123 131 127 108 114 121  95  83  87 112 109 100  96  95  96  96  95  95  95  95  94  95  96  97  97  98  97  97  97
 122 122 124 123 123 122 122 123 122 122 122 122 122  76  40  51  52  49  51  53  49  52  56  65  78  76  75  78  75  71  73  65  73  75  75  82  75  80  90  78  72  90 116 121 126 136 142 147 153 151 153 145 134 140 134 118 113  97  97 120 126 126 135 135 118 124 106 107 104  95  83  94 115 108 101  99  97  96  96  96  96  95  95  95  95  96  97  97  98  97  98  97
 122 122 123 123 122 123 122 122 122 122 122 122 127 104  43  40  44  41  49  49  52  53  52  66  76  80  82  79  75  79  78  76  81  82  85  79  75  84 103 103 105 117 134 141 143 149 152 154 154 155 157 139 125 136 137 118 112 100 104 118 119 123 129 130 110 117  98  94  81  88  68  97 112 106 102 101 100  96  96  96  95  95  95  94  96  96  97  98  98  98  98  97
 122 123 124 123 123 123 123 123 123 123 122 124 124  75  36  29  39  41  45  41  46  49  49  66  82  92  73  80  86  90  91  99  99  99 100 111 102 107 112 123 135 150 159 165 162 158 157 155 149 149 143 125 122 120 114 112  99 108 114 118 114 116 123 112  94 107  89  82  71  57  81 105 111 106  98  98 110  99  95  94  95  95  95  96  96  97  97  98  99  98  99  98
 123 124 123 122 123 122 122 123 123 122 123 128  87  33  32  24  37  36  34  32  43  46  44  74  74  66  73  87  88  91 104 103 103 102 102 117 124 121 127 136 144 146 162 163 167 161 160 150 141 134 130 132 121 118 115 114  98 111 122 118 106 109 116 108  91  86  75  69  54  52 100 114 108 103 100  97  96  96  95  95  96  96  96  96  97  96  98 101 100 100  98  98
 123 124 123 123 122 123 123 123 123 123 128 111  40  26  18  25  35  26  28  31  39  40  48  62  58  66  75  84  90  98  98 106 106  98 111 125 120 128 145 145 152 159 157 159 166 152 143 145 138 139 129 109 128 144 131 117  98 105 129 119  81  88  97  90  80  73  62  56  46  81 100 110 107 100  96  97  96  95  95  96  96  96  92  99  99 107 105  90  91  98 100  99
 124 123 124 123 123 124 124 123 124 126 125  65  24  21  12  37  44  20  25  32  37  44  44  45  56  60  63  74  85  99  97  88 103 112 114 118 112 111 142 152 152 158 155 153 148 156 146 134 133 143 138 105 120 127 114 113  90  90 112 107  85  72  79  77  67  54  42  50  78 104 106 113 106 100  97  96  96  96  97  93  95  95 133 123  76  87  92  90  84  83  91  98
 123 124 124 122 122 123 124 124 124 120  76  27  25  17  10  34  52  23  22  24  33  37  40  43  48  53  60  68  71  81  85  98 109 122 123 124 132 127 141 142 132 147 153 150 148 129 143 126 129 129 121 116 115 118 107 123  92  72  81  93  78  58  55  51  56  37  40  75  91  99 109 117 109  82  92  97  91  84  77  75  73  70  88  73  72  70  78  84 111 100  83  86
  74  75  76  77  80  82  86  87  82  58  31  25  22  17   9  28  47  29  23  18  22  29  31  37  37  48  60  58  62  74  91  83  82 106 119 130 123 126 131 130 129 149 141 138 128 113 120 133 138 128 111 114  89  92 100  95  77  60  52  51  56  44  33  26  35  50  65  83  92 105 111 113 105  48  52  78  72  68  66  60  39  51  61  66  57 109 124  71 129 142  82  55
  31  31  33  36  39  45  49  45  38  31  25  23  19  15  10  25  43  29  29  25  18  19  25  29  34  40  47  50  61  81  91  66  78 102 103 110 110 120 129 122 125 132 134 123 119 107 117 120 116 105 108 125  90  72  73  55  55  42  32  30  24  31  35  31  48  70  86  94 103 106 116 110  94  37  27  48  64  66  58  29  44  58  55  51  48  97 183 211 185 118  47  27
  19  18  18  20  23  27  27  26  26  25  22  19  17  14  10  20  35  28  29  30  24  16  17  22  24  35  48  52  69  84  72  69  81  89  84  95 102 102 114 107 106 113 111 108 120 114 114  98 103  93  79  83  73  60  48  48  35  24  21  19  19  26  30  47  62  79  85  91  99 104 113 110  81  27  27  31  48  61  29  30  48  48  47  33  37  70 136 243 245 136 119 108
  13  12  11  11  12  15  16  18  20  20  19  18  18  15  13  12  28  27  27  29  28  26  20  17  17  20  32  44  60  71  56  61  64  67  79  85  92  94 103 105  92  90  92 104 106  91  97  76  83 102  71  53  47  34  24  40  35  15  17  16  21  31  43  52  69  80  84  90 101 108 112 109  66  17  24  26  35  39  19  33  35  36  28  21  33  24   9  77 247 235 179 180
  15  13  11  10  10  10  11  12  16  17  18  20  19  15  12  11  30  29  25  26  25  23  24  24  18  21  28  36  54  52  45  47  61  64  69  71  75  82  83  84  84  79  74  79  82  68  61  79  88  69  48  34  27  21  20  23  24  19  16  22  31  44  59  69  80  81  85 103 104 110 114 105  52  13  20  23  39  31  25  31  31  25  16  20  19  91 131  78 134 203 192 155
  25  18  11  11  10  10  11  12  13  15  15  18  18  16  13   9  29  33  24  25  25  24  24  25  22  30  29  30  42  38  39  37  36  50  56  48  58  69  59  51  56  67  70  61  57  46  39  60  63  31  30  24  18  29  23  19  18  20  29  41  47  60  80  90  87  91 102 109 109 113 111 100  38  13  18  22  41  27  32  30  27  20  17  24  59 132 106  67  86 106 161 156
  34  28  16  12  11  10   9  11  12  13  16  16  16  15  13  10  19  31  24  25  26  26  25  24  24  23  26  22  20  38  42  28  29  33  35  33  37  33  41  33  32  50  55  48  42  39  44  31  21  24  22  22  25  20  19  21  24  34  46  53  49  58  77  88  94  99 105 105 110 110 106  90  26  12  18  22  38  24  30  29  22  15  22  55 103 109  29  74  61  34  58  92
  37  32  27  15  12  11  10  11  11  15  16  15  17  17  14  11  13  21  23  24  25  25  25  26  23  23  25  23  22  29  30  24  25  24  20  25  27  22  24  37  24  26  23  29  29  28  33  25  23  19  20  20  22  28  34  38  42  50  57  55  57  66  71  77  95 102 101 108 116 111 103  79  16  12  17  21  33  18  23  23  18  17  20  26  46  36  38  49  24  25  30  48
  36  29  27  22  12  12  10  11  12  13  14  14  14  15  14  12  11  17  21  23  25  25  23  24  24  25  26  27  24  21  21  21  19  19  20  20  27  29  23  27  16  22  23  21  19  25  26  23  24  25  27  32  42  55  53  62  54  54  60  72  80  84  81  88 102 107 109 121 118 110 106  67  11  12  17  19  21  17  14  15  20  21  24  22  18  17  42  40  29  26  36  38
  27  25  22  22  16  12  11  10  11  13  14  15  14  13  14  11  12  17  22  22  23  24  24  24  25  24  24  24  25  24  22  23  22  22  21  24  26  23  23  23  19  19  21  22  22  20  22  22  24  30  38  48  55  63  61  61  63  73  82  78  84  93  96 104 108 109 120 125 118 109  95  49  10  13  15  19  18  14  13  15  20  23  18  16  26  29  40  38  30  26  27  28
  22  20  19  20  18  13  12  11  11  13  15  16  15  14  13  11  11  19  25  22  22  23  24  23  25  25  24  23  24  26  25  25  25  26  25  24  23  24  22  24  21  23  21  23  26  25  24  23  27  35  54  63  59  64  74  80  81  80  89  92  96  97  99 102 109 117 125 120 115 103  86  34  10  15  16  18  19  15  14  15  17  20  15  14  25  25  33  31  28  31  31  31
