P2
# Generated by OpenCV 4.2.0
92 112
255
   9   9   8   9   8   8   9   8   9   9   9   9   9   9   9   9   9   9   9   9   9   9   9   8   9   9  10   9   9  10   9   9   9  10   8   8   9  10   9  11  11  10   7   7   6   5   5   4   5   9  10  10  19  35  32  29  23  17  12   9   9  10  10  10  10  10   9  10   9  10   9  10  10   9   9  10  11  10  10  10  10  11  11  10  10  10  10  10  10  10  10  11
  10   9   9   9   9   8   9   9   9   9   9   9   8   9   9   9   9   9   9   9   9   9   9   9   9   9   9   9   9   9   9   9   9   9  10  11  12   9  10   9   8   9  15  15  15  20  23  21  21  17  13  19  23  17  14  15  25  20   9   9  10  10  10  10  10  10  10  10  11  10  10  10  10  10  10  10  11  11  10  10  11  11  11  10  11  10  10  10  11  11  10  10
   8   8   9   9   9   9   8   9   9   9   9   9   8   9   9   9   9  10   9  10  10   9   9   9   9   9  11  11  11   9  17  20  19  19  22  30  40  40  40  42  43  47  48  49  53  47  43  41  39  33  30  23   7   9  12  10  20  30   8   9  10  10  10  10  10  10   9   9  10  11  11  10  10  10  10  11  11  11  11  11  11  10  10  10  11  11  11  11  11  11  11  11
   9   8   9   8   9   9   9   9   9   8   8  10   7   8   8   8   9   9   9   9   9   9   8   9   9   9  16  22  19  19  23  32  46  61  81  88  94  92  92  94  98  94  83  87  84  72  64  55  55  50  39  32  21  14  16  16  17  32  23  11  10  10  10  10  11  10   9  10  10  10  10  10   9  10  10  10  10  11  11  11  10  11  11  11  11  11  11  11  11  11  11  10
  10   8   7   9   8   9   9   9   9   9   9   8   9   7   9   9   9   9   9   9   9   9  11  11   8   7   4  12  34  44  54  74  90  99 101 106 106  91  88  90  76  67  63  65  63  60  59  54  62  66  70  57  35  23  16  21  28  40  25  10   9   9  10  10   9  10  10  10  10  11  11  10  10  10  10  11  10  10  10  11  11  10  11  11  11  11  12  11  11  10  10  10
   9   8   8   9   9   9   9   8   8   8   9   9   8   9   9   9   9   9   9   9  10   9   7  12  13  15  36  65  85  85  92 106 104 105  96  89  85  92  84  81  86  91  80  71  60  55  59  63  49  48  65  81  85  63  44  23  35  38  19  14  19  22  13   8  12  15  14  13  10  10  10  10  10  11  11  11  11  10   9  10  11  11  10  11  11  10  10  10  11  11  11  11
   8   8   8   8   7   8   8   8   9   9   9   8   8   9   9  10   9   9   9   9   8   9  12  35  61  71  87  92  92  96  96  97  93  96  93  89  84  85  91  77  75  81  74  63  52  50  57  69  66  64  56  48  64  73  88 102  77  57  37  19  24  23  12   8  12  10  10  11  12  10  10  10  10  10  10  11  11  10  10  10  11  10  11  11   9   9  10  10  11  11  10  10
   9   8   9   8   8   8   8   9   9  10   9   9   9   8   8   9   9   9   8   9   8   6  40  74  85  83  81  89 100  96  92  91  90  87  82  74  74  83  89  91  91  85  89  81  73  63  54  48  56  67  73  62  61  60  58  84 116  91  74  43  22   3   9  19  16  10   9   9  13  12  10  10  10  10  10  10  10  10  11  10  11  10  11  10  12  11  11  10  11  11  10  10
  10   8   9  10   9   8   9   8   9   9   9   9   9   9   9   9   8  11  14   8  11  39  63  65  72  70  81  87  85  79  68  61  56  55  60  71  78  82  83  81  81  82  91  99  97  87  78  62  52  54  56  66  59  62  67  62  93 102  98 102  66  38  36  20  10   9  11   9  10  12  10  10  11  10  10  10  12  11  11  11  10  11  11  12  11  10  10  10  11  11  11  11
  10   8   8   9   8   8   9   8   9   9   9   9   8   9   9  10   7   6   7  29  49  59  56  60  65  78  80  63  52  49  53  60  73  85  90  93  91  83  75  61  57  55  56  69  81  96  94  90  80  68  59  53  56  60  59  64  76  83  76  94 101 110  90  73  52  35  25  25  17  13  10  10  10  10  10  10  11  11  10  11  11  10  11  11  11  10  10  10  11  11  11  11
   9   8   9   9   9   9   9   8   9   9   9   9   8   8   9  12  12  13  34  58  64  71  72  69  66  59  43  39  44  54  68  82  82  82  89  92  81  80  68  60  58  55  55  50  48  58  77  93  97  88  74  58  48  55  58  56  81  83  79  86  96  99  97  99  91  82  58  32  21  10  10  10  10   9  10  11  10  11  10  11  11  11  11  11  11  11  11  11  11  10  11  11
   9   8   9   9   9   9   8   8   9  10   9   9   9  10   9  10  21  55  76  79  93  71  54  52  42  33  29  43  61  69  86  97  92  90  89  90  89  88  90  86  84  81  75  73  72  55  51  54  69  83  89  75  67  55  57  51  64  82  75  91  90  86  99 105  91  75  73  72  59  34   4  10  10  10  11  12  12  10  11  11  10  11  11  11  10  11  11  11  11  11  11  11
   8   9   8   9   9   8   9   9   9   9   9   9   9   9   9  13  43  65  66  83  64  47  44  32  31  44  64  86  95 104 115 115 117 115 111 104 103 103  98  94  93  90  92  92  80  68  65  61  48  59  73  86  68  70  62  48  47  82  90  75  85  71  82  95  97  86  77  50  54  67  40   8   9  10  11  13  12  10  10  11  11  11  11  11  11  10  11  11  11  11  10  10
   7   8   8   9   9   8   9   9   9   9   9   9   8   5  20  54  64  55  65  52  40  42  37  53  79  94  98  99 106 109 105  99  90  87  88  87  85  79  74  69  65  61  61  51  47  45  44  45  49  50  59  71  79  60  60  53  44  65  89  85  88  61  66  74  88 104 101  79  57  56  57  49  10   9  10  14  12  11  10  11  12  11  11  11  11  11  11  11  10  10  10  11
   8   8   8   9   8   9   9   9   9   9   8   7  12  28  46  32  41  56  54  43  56  64  74  86  78  77  86  85  80  66  64  74  79  78  85  95  95  98  97  93  92  85  80  72  60  51  40  33  23  26  36  55  71  69  57  56  45  58  87  78  88  52  50  56  77 101 114 104  91  62  39  53  47   9  10  12  10  11  11  11  11  11  11  11  10  10  10  11  11  11  10  10
  10   9   9   9   8   9   9   9   9   8  14  20  36  46  26  25  53  57  53  68  84  91  88  70  64  74  61  47  41  45  53  54  59  60  67  80  94 109 114 115 106  96  92  88  85  80  74  59  42  31  30  34  50  66  64  60  56  68  81  56  76  55  44  47  56  70  99 116 107  88  57  33  57  37   7  10  10  10  10  11  12  11  10  11  11  10  10  11  11  11  11  11
   8   8   8   9   9   8   9   8   8   8  17  35  37  29  30  56  68  59  74  86  91  85  69  65  68  60  42  49  55  54  45  48  50  52  51  53  59  66  71  77  80  83  79  74  74  76  73  75  69  52  37  38  42  53  68  71  71  70  72  54  65  53  45  50  49  52  63  85 110  97  87  62  40  59  27   9  10  10  11  10  10  11  11  10  10  11  11  11  11  11  11  11
   8   8   8   8   8   8   8   8   9  10  14  32  35  34  63  84  88  73  69  83  84  71  71  73  74  79  81  85  85  81  75  76  75  68  60  53  46  44  50  62  73  75  70  61  64  71  71  60  60  65  58  45  47  60  71  90  97  88  83  73  73  48  36  37  47  60  68  74  90 102  93  85  46  38  55  18  10   9  11  10  10  10  10  10  10  11  10  11  11  11  11  11
   8   9   9   9   8   9  10   8   8   8  21  35  39  67  87  73  57  55  67  73  72  70  72  78  87  83  90  91  90  84  79  84  78  68  72  84  90  93  91  81  72  62  55  59  56  59  71  69  59  57  65  62  58  68  91 117 134 127 113 110 101  69  42  47  47  52  63  83  92  96 105  93  79  33  50  32  12  10  10  10  10  10  11  10  10  10  10  11  10  10  11  11
   9   8   8   9   9   9   9   8   8  24  35  41  65  76  64  52  50  58  73  76  67  69  74  84  80  77  85  86  82  94  96  90  89 101 105  95  84  71  50  34  20  13  13  22  27  28  40  51  62  66  69  69  81  95 114 147 156 154 152 140 130 109  72  51  49  48  55  68  84 100  94  91 102  72  40  47  12  18  11  10   9  10  10  10  10  11  10  10  11  11  10  10
   8   9   8   9   9   9   7   8  17  43  54  67  65  58  60  61  60  71  78  61  66  74  84  82  69  81  84  89  92  90  91 102 104  81  52  59  48  31  21  24  27  26  17  22  25  27  29  41  52  63  75  96 111 124 142 156 160 165 168 162 160 146 113  67  52  59  56  61  69  87 104  86  76  94  75  63  24  12  17  10  11   9  10  10  10  10  10  10  11  11  11  10
   8   8   8   9   8  11  13  12  30  52  61  57  54  76  63  63  71  74  57  59  67  74  77  69  70  78  76  77  85  94  96  75  47  33  63  57  15  29  26  22  26  23  26  25  30  30  33  50  60  76  94 111 131 156 168 170 173 176 175 174 171 165 154 106  54  46  60  61  70  74  94  99  88  83  89  90  48   7  14  15   9  10  10  10  10  10   9  10  10  10  10  10
   9   9   9   9   9   9  10  13  33  48  58  59  63  59  53  65  65  58  61  56  62  60  66  58  60  61  69  92  93  63  36  14  25  81  67  26  20  29  33  29  36  32  31  33  39  43  51  62  74  98 124 138 152 161 172 173 176 179 178 177 173 168 162 146  97  53  45  48  64  84  95 101  93  76  69  75  67  25  15  18  12   9   9  10  10  10  10  10   9  10  10  10
   9   8   9   9   9  10   7  16  45  57  56  51  46  51  64  60  56  62  49  39  44  56  69  61  60  69  84  78  45  22  19  27  85  72  32  37  35  35  43  48  49  46  49  50  54  63  76  86 103 120 133 151 165 176 178 177 178 179 179 179 177 168 167 161 126  75  52  47  38  49  78 110 107  88  78  80  76  27  16  12  11  10  10  10  10  11  10  10  10  10  10  10
   9   8   8   8   8   8  10  38  55  52  46  40  53  60  63  59  52  37  25  56  57  71  55  57  73  76  71  45  23  29  41  82  89  44  43  49  44  49  60  64  63  74  81  83  88  95 100 112 124 137 150 163 172 177 183 182 183 179 179 178 180 177 172 168 139  93  54  46  51  46  48  74 106 113  87  90  94  45  20  24  10   8   9   9  10  10   9  10   9  10  10  10
   7   9   8   9   8   7  25  51  45  59  48  43  56  53  64  47  33  23  60  67  59  60  51  65  66  73  47  40  49  58  84  92  59  56  57  58  59  70  70  78  86 110 123 132 138 139 139 147 153 157 161 168 175 181 188 187 184 183 183 179 178 181 177 168 152 116  81  53  49  59  61  72  79 107 115  88  94  83  18  24  23  17  13  10  10  10   9   9  10   9   9  10
   8   9   9   9   8  13  41  45  37  43  36  44  50  48  47  31  24  55  78  50  60  57  54  58  71  55  41  58  68  92  95  71  66  66  73  78  84  90 104 126 133 146 155 160 166 170 173 176 177 179 181 179 180 184 184 183 181 183 182 176 177 178 179 170 158 139 115  88  68  68  74  61  78  92 110 105  90 101  56  13  14  17  15  10  10  10   9   9  10   9  10   9
   8   9   8   9   6  19  46  34  36  31  45  58  47  46  31  23  42  73  64  62  57  43  54  68  65  59  79  83  92 101  81  73  81  86  94 104 113 122 149 166 173 175 176 175 177 180 188 186 184 181 183 183 180 183 184 184 180 181 182 179 179 178 179 170 154 134 115 109 100  86  89  81  69  79  99 108  97  92  90  36   9   8  14  11  11  10  10   9   9   9  10   9
   9   9   9   8   7  33  39  36  36  38  50  49  50  36  26  30  54  56  66  56  37  43  63  72  73  93 106 102 104  89 100 100 103 119 129 137 147 154 169 179 182 182 182 181 181 180 185 186 186 188 188 186 182 183 184 184 183 183 182 181 183 180 177 171 157 135 109  95  94  95  83  79  75  60  71 102  96  89  95  78  26  13   8  10  10  10  10  10  11   9  10   9
   9   8   8   7  12  39  38  35  34  44  49  46  44  29  26  43  45  63  60  29  35  47  64  83 100 114 111 105  99  97 113 131 135 146 151 158 165 173 178 181 185 188 186 183 185 185 186 189 187 190 191 190 187 185 185 183 184 183 179 181 183 181 179 172 161 147 117  97  89  88  91  88  84  80  52  51  82  88 100  79  49  50  14  12  10  10   9  10  10   9  10   9
   8   8   8   7  21  45  41  29  28  47  50  49  35  28  34  42  53  57  31  19  31  52  80 102 112 107 100  97 105 118 137 150 160 160 159 164 175 184 184 184 187 185 186 189 191 190 190 192 191 191 191 189 189 188 185 187 187 184 182 181 183 183 180 170 158 151 131 103  89  88  87  89  99  83  68  57  57  89 104  82  85  43  11  14   9   9  10   9  10  10  10  10
   8   8   8  11  32  44  33  22  29  45  54  49  30  25  38  43  58  35  16  24  38  71  93 106 103 100  94 110 124 143 159 165 164 164 169 176 186 190 186 190 192 192 192 192 191 193 194 194 195 196 194 191 189 190 189 189 186 187 186 182 182 184 180 172 162 146 133 123 103  90  91  91  84  91  70  68  61  83 103  90 105  60  16   7  10  10  10  10  10  10  10  10
   8   8   7  11  28  31  27  20  30  41  55  38  26  30  41  49  50  17  17  30  55  85 100 101 102  99 112 131 148 161 168 171 169 169 174 185 190 188 189 189 190 192 193 192 189 194 194 190 194 198 195 192 193 190 189 190 188 188 186 182 181 182 180 170 158 148 129 111 103  98  81  80  87  87  85  62  64  95  85 116  84  67  49   9  10  10  10  10  10  10  10  10
   8   8   8  11  30  33  21  25  32  50  56  34  23  35  46  53  36  16  26  40  74  92 102 105 105 108 132 150 166 172 173 169 169 174 181 186 190 190 190 189 189 191 192 193 193 194 196 194 192 196 197 196 194 193 191 191 191 188 185 181 181 184 180 170 159 143 128 116 103  96  94  84  79  83  86  89  81  77  87  85  79  75  73  30   6  10  10  10  10  10  10  10
   8   8   7  14  28  20  16  22  29  65  60  32  22  39  46  47  34  19  31  58  87  94 107 114 109 129 146 161 167 168 166 168 173 180 187 189 191 192 191 189 190 192 190 190 192 192 197 195 193 192 195 194 193 192 193 191 190 188 183 183 183 185 181 170 162 150 141 125 108  91  91  97  97  85  84 100 100  93  83  77  89  81  79  60  15   8  11  10  10  10  10  10
   9   8   8  15  20  11  15  17  36  66  56  27  25  44  41  41  32  28  42  78  94  98 117 124 125 145 155 163 164 161 163 170 178 186 188 187 189 190 188 188 191 190 190 189 190 193 195 192 193 191 192 191 192 190 190 190 189 187 187 186 185 188 182 175 168 143 131 128 126 114 107  98  97 105 102  95  91  85  80  87  87  70  59  60  40  18   9  10  10  10  10  10
   8   8   8  16  16  13  15  17  35  62  51  24  31  45  41  38  31  37  61  93  97 108 129 137 143 152 160 163 165 162 167 173 182 191 192 191 191 193 187 186 188 190 190 187 193 197 194 191 189 188 191 190 190 190 187 186 189 186 185 186 185 185 181 178 173 150 130 117 112 108 106 107 105  94  91  87  83  76  85  88  86  74  56  75  50  10  12  10  10  10  10  10
   9   8   9  20  15  13  10  13  45  64  52  29  37  44  48  38  28  45  79 103 106 120 140 146 147 153 160 162 161 159 165 175 180 188 192 194 191 195 190 188 189 191 190 189 190 191 191 186 183 187 190 190 187 190 191 191 188 187 186 184 184 180 176 179 173 157 136 129 112 106 102  90  88  92  86  82  87  86  84  92  85  82  46  37  62  17   6  10  10  10  10  10
   8   8  15  21  12  10  14  18  45  52  50  32  40  42  46  42  31  57  91 114 119 126 140 151 152 153 153 157 158 160 169 175 181 186 190 188 187 189 192 192 190 188 186 190 189 189 187 185 187 191 189 187 189 190 192 191 190 188 187 183 180 178 176 179 171 165 142 126 117 104  98  92  88  83  84  89  92  97  83  68  85  90  55  16  41  60  17   9  10  10  10  10
   7   7  17  19  15  16  21  22  32  36  46  32  40  43  43  42  39  63 100 122 128 132 136 151 156 153 151 156 161 164 173 178 181 185 190 187 187 192 193 193 191 189 190 190 190 190 188 188 188 189 191 189 191 194 193 194 195 192 189 184 179 174 174 176 175 174 163 146 130 110  85  72  76  79  70  70  77  81  82  76  62  86  66  30  33  38  27   8  10  10  10  10
   9   8  13  23  21  18  18  26  33  36  42  31  40  42  48  40  43  72 107 126 136 140 142 152 157 156 153 156 164 172 174 176 176 180 187 188 188 191 192 191 190 189 187 187 188 187 188 190 190 191 192 192 192 193 193 194 195 192 186 184 182 179 176 175 174 174 173 161 149 125  88  58  52  62  66  65  68  74  91  96  75  62  68  29  19  13  11  10  10   9  10  11
   9   9  10  23  26  18  19  35  33  29  33  29  41  45  45  33  49  75 103 127 137 146 150 154 158 158 153 156 163 170 172 171 174 180 186 192 191 189 191 190 189 188 188 187 190 190 192 195 191 190 190 192 194 194 195 195 196 194 188 184 182 182 179 175 173 174 172 167 162 148 109  61  49  53  56  54  64  73  81  99 102  85  55  43  16   8  10   9  10  10  10  10
   7   8   7  24  26  20  26  40  26  31  32  24  35  47  42  37  51  79 102 127 139 143 148 153 157 160 157 163 169 173 173 173 176 182 187 191 190 190 193 191 192 191 190 189 195 198 196 191 188 186 191 195 192 195 197 196 194 192 189 183 177 180 180 177 175 172 167 165 168 164 137  81  54  56  64  60  50  69  71  82 103 104  65  14  17  10  10  10  10  10  10  11
   9   8   9  22  24  21  25  37  28  38  34  23  31  45  46  36  53  81 101 123 138 140 145 153 162 166 162 166 170 172 173 178 179 183 184 186 188 193 194 193 195 196 186 188 200 199 193 190 192 191 194 195 194 195 195 192 186 185 173 162 159 162 167 170 171 168 161 162 170 169 154 108  71  57  67  65  60  45  66  67  88  89  86  28   7  11  10  10  10  10  11  10
   9   8   9  19  24  18  21  32  28  38  35  27  37  46  48  40  53  82  99 117 134 139 142 151 158 162 162 169 172 169 175 180 182 184 191 188 189 195 197 195 198 203 190 185 197 195 194 193 190 189 183 173 165 152 156 154 153 153 143 144 146 141 147 155 158 165 159 162 168 171 165 132  93  81  64  71  57  56  43  69  71  94  75  39  12  10  10  10  11  10  10  10
   9   8  10  19  27  17  23  29  35  35  35  27  35  53  45  42  57  83 103 114 134 137 140 146 153 161 164 168 172 172 175 178 182 183 187 190 191 196 199 199 194 196 197 185 190 192 188 185 174 173 149 137 126 109 110 116 114 112 125 137 142 140 134 142 150 151 151 159 167 174 170 156 108  92  77  80  61  50  51  49  69  85  71  27  14  10  10  10  10  11  10  10
   9   8   8  15  28  20  25  40  40  28  33  33  35  51  46  51  61  84 105 112 129 140 140 144 155 166 172 174 178 180 182 180 186 185 186 187 188 192 196 192 194 195 196 188 187 187 175 170 160 141 125 128 124 103 100 100 102 111 123 141 147 146 144 143 146 146 152 155 163 173 173 168 145 116  88  62  88  53  57  45  65  85  76  29  13  13  12  10  10  11  10  11
   8   8   7  12  26  19  34  50  42  29  34  34  36  53  46  53  70  95 103 107 127 139 139 155 163 171 176 176 173 180 183 181 183 184 184 187 187 187 188 186 189 192 192 187 180 184 174 155 151 140 136 142 128 114 114 121 130 144 153 159 160 161 155 155 153 151 156 156 161 169 175 173 156 142 129  71  70  75  43  51  46  73  79  45  18  23  12  10  10  11  11  10
   8   9   7  10  31  32  38  48  34  27  27  32  37  47  49  51  68 105 113 112 130 138 142 153 158 157 158 160 151 156 159 161 165 167 170 175 177 183 183 181 183 184 186 186 172 177 178 166 154 149 144 137 128 133 148 159 165 175 181 182 181 179 171 162 158 158 161 166 162 167 172 172 166 153 145 126  83  77  39  41  46  54  86  75  37  20   8  10  10  10  10  10
   9   9   8  12  36  29  41  43  30  28  23  35  41  47  48  55  79 108 117 115 136 135 129 128 124 123 121 113 108 111 109 118 130 139 155 158 156 169 178 173 181 183 185 187 175 168 170 165 157 148 141 132 146 154 146 142 141 142 146 154 161 174 181 179 172 166 171 174 164 165 173 173 167 163 158 158 132 102  86  50  69  76  93  82  39  14  13  11  10  10  10  10
   9   9   8  15  29  35  47  37  36  33  37  39  40  40  47  64  97 107 110 119 128 115 111 106 100  91  83  89  96  90  92  99 108 119 136 146 148 161 168 165 171 180 184 186 179 162 157 154 146 135 132 146 137  98  94  89  66  62  44  51  72  83 110 137 163 170 173 170 169 168 173 168 167 163 160 162 142 109  97  86  78  84 100  75  55  20  16   9  10  10  10  10
   9   9   9   8  24  35  45  42  42  42  37  39  38  36  44  70  98 106 108 115 103  98  91  93 106 105 102 106 106 104 103 101 105 112 119 128 141 154 159 155 164 179 186 186 182 171 159 147 134 128 139 129  95 110 119  87  48  73  38  58 111  89  65  95 127 155 165 171 176 174 173 168 167 164 151 155 155 146 108 124 109 120 134 100  43  15  13  12  11  11  10  10
   9   8   9   7  24  34  38  46  49  42  34  39  34  32  47  76  96 111 103  98  94  97 102 116 132 141 148 153 149 151 145 130 117 106 102 103 115 128 139 150 161 176 187 191 186 178 160 142 140 138 131 118 128 116 137 135  55  29  41  71 128 140 134 126 132 143 161 177 177 178 177 169 168 170 163 150 147 153 162 151 133 136 142  62  16  21  12  11  11  11  11  11
   9   9   8   7  20  33  33  48  50  39  39  32  31  36  54  81 101 114  92  87 100 109 130 144 153 161 170 177 176 164 144 125 111 112 110  99  93  94 106 129 154 177 189 193 192 185 167 157 153 139 137 138 110 117 160 162 121 126 137 152 169 167 176 164 167 176 179 181 178 180 181 171 169 167 158 144 144 143 146 137 101 107 143  38  10  10  10  11  11  11  10  10
   9   8   8   7  16  33  30  43  49  42  37  31  33  42  48  84 107 112  94  91 104 115 136 153 160 167 156 125  95  71  72  91  91  82  89 105 101  91  89  98 145 176 189 192 191 189 177 168 157 155 165 118 136 153 156 153 156 166 175 178 186 175 165 174 182 186 184 183 181 181 184 174 169 163 157 151 135 133 128 123 123 108 145  56   7  10  10  11  10  11  10  10
   9   9   9   8  15  32  25  42  49  46  37  28  38  48  49  89 111 114  97  92 102 115 138 157 143 106  71  46  30  72  66  55 101 113 109 109 113 106 105 100 128 171 186 191 189 189 182 171 168 182 176 164 176 153 144 154 169 176 177 174 167 159 165 173 181 184 182 185 187 187 185 180 176 165 162 152 138 122 126 131 140 138 147  87  23   9  10  10  11  11  10  10
   9   9   9   8  15  30  26  39  47  48  33  26  50  52  61  96 113 115 100 108 109 120 136 111  72  62  98  60  27  34  33  45 119 117  88 102 128 133 132 114 135 177 189 195 192 189 185 173 172 180 183 180 174 163 150 141 138 139 139 143 149 161 178 186 184 187 186 185 186 189 187 177 176 172 168 148 132 126 120 131 130 145 161 106  38  15  10  11  10  11  11  11
   8   9   9   8  13  25  27  37  45  48  31  32  69  65  81 108 110 115 116 124 117 120 107  70  57  72 123 102  54  49  62  96 152 149 130 126 133 165 156 130 154 182 191 193 193 191 190 185 175 180 178 180 180 177 177 174 169 166 165 170 181 190 190 189 192 191 188 184 187 189 188 181 174 174 169 153 129 135 121 130 136 155 176 126  30  14  10  10  10  11  11  11
   9   9   9   8  11  25  25  34  44  46  35  58  79  82  96 118 112 113 124 133 115 112 106  85  90 113 132 145 129 129 153 166 157 154 163 166 167 170 155 142 169 181 192 193 191 189 194 197 180 179 188 190 195 192 188 190 193 192 190 193 196 197 196 196 195 195 192 187 189 188 188 185 179 174 169 149 127 133 126 137 140 153 190 149  21  13  10  11  11  11  11  11
   9   9   9   9  10  24  22  31  38  49  52  72  92  88 103 124 117 117 128 143 127 105 107 106 126 145 155 156 168 168 162 154 138 138 157 165 164 160 154 148 169 183 191 190 187 190 196 189 177 176 187 194 195 196 199 201 200 200 200 199 203 199 199 199 198 195 193 194 191 191 188 186 180 173 170 155 123 121 135 135 139 141 177 165  28   6  12  12  11  12  11  11
   9   9   9   9   8  17  26  29  41  45  63  77  88  93 109 124 118 120 132 141 142 121 122 134 137 141 153 158 162 156 139 125 131 152 164 166 168 165 154 143 158 173 183 188 187 190 191 181 185 179 180 190 198 192 200 203 201 203 205 203 202 199 199 198 198 195 195 194 193 193 193 186 181 174 170 156 128 121 147 147 126 128 162 179  51   5  12  12  12  12  12  12
   9   9   9   9   8  10  33  44  47  46  73  83  96 110 117 122 122 123 137 145 153 149 140 140 135 130 126 128 126 128 132 145 159 169 175 179 175 166 147 140 149 165 178 185 181 188 188 178 183 185 179 185 195 199 202 192 190 200 201 203 200 198 199 198 197 196 196 194 194 195 192 186 178 174 168 152 119 122 149 139 112 131 161 183  74   9  11  12  11  12  12  11
   8   9   9  10   8   5  30  57  54  56  73  90 109 115 122 122 123 130 146 147 154 156 149 152 148 155 147 147 151 159 169 174 175 180 187 182 174 159 142 139 145 155 169 180 177 187 184 177 176 183 181 182 188 197 202 201 196 199 198 199 199 198 199 196 194 194 195 196 194 195 191 185 184 175 168 150 119 123 148 139 121 125 162 187  86   8  11  12  12  12  11  10
   8   9   9   9   9   5  28  86  46  52  65  99 115 116 120 125 126 135 151 154 150 155 160 160 169 169 172 175 175 175 179 179 183 187 186 181 170 154 141 138 143 153 167 183 184 184 182 178 178 177 180 183 184 191 196 200 200 198 198 197 199 199 197 193 193 191 194 195 195 194 189 183 183 174 165 141 115 118 147 147 119 122 167 182 107   7  11  12  11  11  11  11
   9   9   9  10  10   3  41 117  45  56  67  93 112 119 108 118 125 137 150 155 154 159 163 168 168 172 180 180 179 179 180 183 189 187 185 177 165 150 140 139 143 154 171 188 190 183 182 178 179 180 177 178 185 189 191 195 198 201 199 197 199 198 198 196 193 193 193 194 192 189 187 181 179 171 160 136 101 121 149 146 131 154 181 169 142  22   8  11  11  11  11  10
   9   9   9   9   9   1  56 131  49  77  74  85 110 102 106 117 122 136 149 154 154 160 163 166 173 177 182 184 184 183 184 187 189 186 181 173 162 151 141 141 146 154 171 186 191 185 185 185 182 180 177 171 183 192 194 196 196 198 200 198 199 199 197 196 195 193 193 190 187 184 183 178 171 166 149 130 107 119 151 158 152 185 181 167 167  41   5  11  10  11  10  10
   9   9   9   9   9   1  58 133  81 109  78  82  99  85 101 115 119 135 148 151 157 162 162 168 173 179 182 183 185 185 188 190 187 184 176 171 164 145 141 147 146 153 165 180 188 183 184 184 181 182 181 174 171 183 197 200 201 199 198 199 197 196 195 194 193 190 192 189 181 181 182 172 168 160 144 114 110 119 145 181 188 194 186 182 181  55   3  11  10  10  10   9
   9   9   9   9   9   2  50 139 124 137  97  85  86  89 100 109 114 133 147 151 157 164 168 170 172 178 182 183 187 188 194 190 183 180 176 173 166 142 139 149 149 149 156 172 187 183 180 179 181 183 183 180 174 177 186 192 199 202 198 197 195 196 191 191 190 190 190 188 183 179 181 172 168 157 144 112 113 115 144 177 195 194 192 189 180  56   2  10   8   9   9   9
   9   9   9  10  10   4  31 139 138 154 119  91  86  93  85  93 108 128 145 150 155 162 169 168 170 174 177 183 188 189 191 188 185 180 181 180 167 146 139 146 143 142 156 181 191 186 179 176 177 181 182 180 177 175 180 187 187 192 198 194 195 194 191 191 189 187 184 185 183 177 177 172 167 156 133 103 115 133 155 180 190 191 191 190 162  37   4   9   9  10  10   9
   9   9   9   9   9   7  15 117 146 162 127 101  97  84  81  89 104 125 143 146 154 162 166 166 167 171 176 181 188 191 190 187 183 184 183 179 161 144 143 149 141 141 173 199 209 206 186 180 179 184 188 185 175 167 178 191 187 183 189 190 193 194 193 191 188 185 182 181 179 178 175 171 166 152 123 100 115 144 148 180 194 190 188 188 111  11   8   9   9  10  10   9
   9   9   9   9   9   9   4  87 148 163 130 104 101  80  77  89 101 118 140 148 153 160 162 167 164 170 175 181 189 191 188 185 182 184 182 172 149 136 146 153 138 150 184 191 188 192 195 191 182 176 181 171 166 161 169 187 190 184 179 187 192 192 190 187 184 186 185 182 182 180 175 170 161 150 133 105 129 136 128 169 188 189 177 115  27  14   9   9   9  10  10  10
   9   9   8  10   9   9   2  58 139 161 136 107  98  78  89  84  89 112 137 148 151 156 163 163 164 169 175 181 187 187 183 183 183 181 175 163 139 129 140 147 130 145 174 177 175 167 179 178 160 142  94 115 147 155 163 184 189 185 178 185 189 191 191 187 185 184 181 181 181 180 177 175 163 148 142 112 136 140  77  72 105  96  61  13   3  13  10   9  10  10  11  11
   9   9   9   9   9   9   6  28 120 153 145  99  80  79  81  80  89 101 129 147 148 151 158 162 165 167 173 178 181 183 181 182 180 176 168 161 131 122 123 121 116 116 144 160 158 145 141 150 117  45   8  54 111 128 165 188 188 190 182 179 183 188 193 188 185 185 181 180 180 181 176 172 166 150 143 125 137 151  73   4   5   0   1   7  10   9  11  10  10  10  10  11
   8   9   9   9   9   9   8   9  97 138 148 109  74  71  80  74  83  89 120 140 147 148 147 157 163 166 170 173 172 177 180 178 176 166 160 163 140  99 101  65  37  69 103 127 132 128 130 111  62  62  81  73  97 144 167 181 187 187 187 179 177 184 191 188 184 185 182 181 182 182 179 172 165 152 142 124 149 152  74  16   8   9  10  10   9  10  11  11  10  11  11  11
   8   9   9  10   9   9  10   2  68 132 135 130  89  68  84  74  69  81 108 132 142 144 146 147 157 163 168 170 166 175 179 181 172 160 160 160 146 101  64  38  26  36  49  71  81  77  79  62  69  93 122 109 106 136 145 177 190 190 188 185 175 173 183 186 182 182 183 179 179 181 175 168 160 153 135 118 153 156  79  16   8  10  10  11  11  11  11  11  11  11  11  12
   8   9  10   9   9  10   9   4  41 137 115 142 142 117  93  81  72  78  92 124 137 137 145 151 158 162 164 167 166 172 177 179 166 159 162 152 143 134 101  74  69  60  48  43  37  35  33  59  99 112 120 113  87 118 152 168 181 184 187 180 178 174 176 179 180 178 178 177 175 178 170 159 152 152 136 130 144 149  73  29  12  10  11  11  12  12  11  11  12  11  11  11
   9   8   9   9   9  10   9   6  18 127 136 119 149 145 126 103  75  76  90 114 136 138 144 149 158 161 159 164 168 169 172 171 161 160 160 145 148 122  95 106 108  95  76  93  68  47  57  65  98 112 118 111  96  87 126 142 167 168 164 165 161 173 177 174 179 177 174 173 171 170 170 158 149 156 143 136 144 158  80  36  20  11  12  12  12  12  11  12  12  12  12  11
   9   9   9  10   9  10  10   8   3  94 160 140 149 152 144 122  89  64  86 110 137 138 139 144 155 160 159 161 162 154 168 164 154 155 150 138 136 102  85  86  93 107  84 123  82  63  75  81  79 100  99 113  90  84  92 113 143 156 139 147 141 146 160 167 174 172 173 174 171 170 173 167 141 155 151 139 134 164  81  23  12  12  11  12  11  11  11  11  12  12  11  11
   9  10   9  10   9  10   9   8   3  63 145 152 158 159 155 138 101  71  70 109 137 138 138 143 152 155 159 160 160 159 166 161 148 138 135 120 123  86  76  73  95 118  89 104  80  56  59  96  97  99  91 101  82  75  92  96 108 128 127 126 128 124 135 134 159 173 168 165 164 167 176 169 135 145 150 139 138 153  80  15  21  12  12  12  12  12  11  11  12  11  11  11
   9   9   9   9   9   9   9  10   7  18 103 152 159 163 160 147 114  76  70 104 133 144 140 141 147 152 157 159 156 162 165 155 136 123 111  93  98  90  76  72 114 110  99 104  93  61  53  77  99  77  97  94  76  78 104  93  87 104 106 104 120 113 127 112 127 164 167 166 155 153 162 159 143 141 134 130 129 141  86  12  18  11  11  11  12  10  11  11  11  11  11  11
   9   9  11  11   9   9  10  10  10   7  31 110 148 158 155 132  84  70  80  99 130 148 142 140 145 149 152 154 152 164 158 132 117 100  91  76  91  96  78  84 100 102  80  99  89  85  70  75  72  74  82  99  93  91  86  87  97  92 109 101 111 119 119 117 118 142 162 162 154 140 153 156 156 146 131 120 128 137 107  21  15  15  12  11  11  11  11  12  11  10  10  10
   9   9   9   9  10  10   9  10  11  10   6  22  51  76  74  53  31  71  74  96 119 143 145 140 141 147 151 148 152 166 136 102  85  88  82  82 100  87  79  96  82  87  75  85  85  70  86 105  91  76  85  99 112 107  98 110  95  94 111 110  95 111 116 102 117 126 140 139 144 138 156 152 145 135 136 135 142 144 114  23  17  20  12  11  11  11  10  11  10  10  10  10
   9   9   9   9  10  10  10   9   9  10  10   7   4   3   2  17  32  68  72  94 118 136 144 141 141 144 151 147 150 148 103  93  94  87  88  89  85  89  81  96 104  93  93  97  96  86 102 106  93  89  88  85  97  99 100 103  91  96  97 105  80  82  92  87 107 119 122 128 122 125 144 147 144 133 131 145 153 155 109  30  11  13  11  11  10  10  11  10  10  10  11  11
   9   9   8   9   9   9  10  10  10   9  10  10  10  10  10  19  27  56  78 101 118 127 139 144 146 149 146 143 147 127  88 106 103  88  91  81  88  97  89  85  91  86  85  88  95 114 111 104  97 107  99  73  51  45  37  44  46  46  47  63  58  58  75  84  95 109 127 123  99 101 129 134 148 138 121 143 164 159 101  53  17  12  11  11  11  11  11  10  10  10  10  10
   9  10  10  10  10  10   9   9  10  11  11   9  11  11  10  14  22  46  75 106 113 122 134 144 141 148 145 141 140 101  85 102  99  80  89  73  79  62  54  52  60  65  78  70  95 120 124 100 103 104  93  80  85 102 103 105 101 107 113 108  94  81  90  90  93 121 121 104 102  99 121 139 139 135 136 131 168 161  93  62  24  11  19  10   9  10  10  10  10  10  10  10
  10  10  10  10  11  10   9  10  10  11  10  10  10  10   9  11  16  31  72 106 101 115 128 136 124 141 143 145 127  97  75  93  91  82  65  47  14   0  18  58  94 110 113 111 126 131 135 127 129 133 146 159 169 175 170 172 170 167 168 163 153 124 109 104 116 117 113  92 100 107 124 149 133 129 144 133 160 155  96  68  46  17   9   8   9   9   9   8   9   9  10  10
   9   9   9   9   9   9   9   8   9   9   9   8   9   9   8   8   9  18  55 107  92 104 126 121 113 126 132 136 122  93  76  83  76  73  57  58  75  80  98 125 136 145 157 162 165 168 163 164 166 170 175 179 173 170 168 168 164 154 161 163 157 147 119 112 107 116 117  92  86  92 122 156 129 118 143 137 166 151  94  58  59  34  17  11   5   6   7   8   8   8   8   9
   9   8   9   9   9   9   9   9   9  10   9  10  10  10  10  10  10  15  50 109  97  98 122 117 109 116 124 130 119  90  82  86  80  83  96 119 131 133 131 138 145 155 163 168 172 164 164 165 152 148 144 140 142 138 135 142 146 153 154 157 156 153 131 105 110 114 117  91  75  88 127 159 137 124 147 142 159 166 105  52  50  54  41  27  20  13   9   7   7   8  10  11
  13  12  12  13  14  14  14  14  16  15  15  15  14  15  16  16  17  16  45 106  98  96 110 106 104 111 123 113 105 102  94  77  76 114 119 139 144 141 142 142 141 144 153 149 141 125 127 124 115 123 119 120 120 119 126 124 125 138 139 139 149 153 147 120 101 105  98  85  84  96 127 146 145 129 141 151 146 174 111  52  36  41  38  39  44  42  36  32  29  23  19  19
  19  20  21  22  22  22  21  22  22  23  23  22  23  24  23  24  25  25  32  79 104  93 110  95  98 104 107 114 101 114  92  76  83 104 120 145 141 133 134 143 138 120 120 119 104 110 102 101 109 115 119 121 127 121 117 130 128 125 130 138 136 142 147 145 120  90  85  69  90 105 122 145 147 131 135 144 147 173 115  48  45  36  23  24  35  44  41  39  42  44  41  37
  30  31  32  34  34  34  35  35  36  37  38  37  37  38  40  41  42  43  42  66 106  95 104  96  95 105 101 110 100 112  99  78  85  95 123 132 131 128 131 135 120 109 103  95  99 105 101  97 118 115 123 101 118 116 121 140 150 140 131 135 134 123 122 135 127  90  83  75  90 119 121 125 143 133 137 145 147 171 117  36  40  45  41  33  29  38  42  34  40  45  47  46
  48  50  52  54  54  53  54  54  56  57  59  58  58  60  61  63  63  61  55  73 103  92 101 102  90 105 102 105 100  97  94  88  86  88 125 127 131 131 132 115 112 107  99  94  94  91  93  94 102 121 126  91  87 111 120 130 148 148 147 140 133 129 118 121 121 104  84  80  99 116 112 118 131 144 131 140 148 160 126  31  33  39  44  47  42  37  40  35  42  46  47  45
  66  69  71  72  72  72  72  72  73  75  77  77  77  77  77  78  81  81  80  72  89  98  96  93  83  98  99  97  97  87  86  79  78  92 114 127 130 136 126 125 110  99  91  91  94  94 101 113  96 108 107 100  90  97 116 133 148 151 145 146 133 128 120 106 111 111  93  79  94 121 118 113 130 141 142 141 150 160 137  37  32  39  42  44  44  42  40  36  42  45  45  45
  82  83  85  87  88  88  89  88  89  92  91  91  92  91  92  94  94  94  86  43  75  96  83  76  81  89 106  99 100  77  74  66  79  96 125 130 121 120 113 105  97  99  88  93 101  98 113 115 100  99 108  93  97 108 110 140 155 149 142 138 135 128 132 120 114 130 119  93  75 128 127 110 138 148 144 142 154 158 150  51  29  35  36  39  41  44  43  36  36  41  41  43
  95  96  97  99 101 100 100 100 101 101 101 101 101 102 103 103 103 101  73  30  47  83  74  70  77  74  93  93  84  66  59  61  66  85 128 120 111 109 112 105 107  95  98  98  99  96 100 110 102  97  92 103 119 128 120 139 162 159 145 130 121 116 112 118 116 121 123  97  77 109 129 121 134 138 145 146 153 158 155  59  26  32  35  38  41  44  45  40  36  41  43  43
 102 102 104 105 106 106 106 106 106 106 106 105 104 106 107 107 108  96  35  24  16  41  78  84  82  69  66  79  96  66  58  59  62  98 120 106  96 124 124 106 105 108 109 107  96 101 109 118  94  87  83 111 142 136 125 135 141 144 140 139 120  98  93  98 103 122 109  83  78 112 110 131 127 137 144 151 154 157 156  65  24  32  35  38  41  43  45  44  42  39  42  44
 106 105 107 107 107 109 109 110 108 107 106 106 106 106 109 112 113  64  24  22  22  22  42  82  80  69  72  71  70  65  54  46  67  87 101 117  98 124 111  94 104 111 105 115 101 111 121 117 101  98 111 137 130 133 133 131 138 139 123 130 126 100  94  90 112 105  96  74  84 109 114 131 134 140 145 152 157 155 161  78  24  32  35  37  40  40  44  46  43  41  45  44
 108 108 108 108 108 109 109 109 109 108 107 106 107 110 115  99  55  24  26  23  29  22   7  58  73  62  65  65  54  63  53  56  73  82 102 111 100 102 109  99 106 106  99 117 105 125 134 109  99  98 114 122 126 123 124 108 120 150 126 114 115 107  94  87  98  76  53  70  74 114 118 122 128 142 144 152 159 158 164  93  24  32  35  37  39  40  44  45  42  43  44  42
 109 108 108 109 108 108 109 110 111 110 111 113 114 111  79  32  15  24  26  28  30  10   0  24  61  59  66  56  61  62  62  66  57  82  99  99  96  94 107 103 107 100 117 118 117 118 121 103 103  90 113 121 124 114 112 103 107 129 138 110 105  94  94 104  74  58  56  62  97 104 103 132 138 143 148 155 162 164 165  97  25  32  35  38  38  40  41  44  44  43  40  37
 109 109 109 109 109 109 110 112 114 119 110  90  73  47  21  18  23  26  25  26  17   8   3   5  19  53  73  56  54  47  53  60  59  85  78  78  86  83  98  93 108 108 119 134 121 102 120 106 112  98 107 104 126 123  98  96  86 109 121 110 109  97  77  87  62  50  65  93 110 106 113 134 141 147 155 160 162 164 166  97  27  31  32  39  38  39  40  42  41  44  43  34
 111 111 109 110 111 113 115 119 121  93  46  25  20  19  22  24  25  24  24  13   8   9   6   3   5  37  57  58  62  47  43  51  54  67  73  65  71  71  84 104 119 136 108 120 128 108 122 118 106 106  96  95 108 107  94  96  81 111 126 112 118  96 100  67  45  49  73  92  97 119 134 138 139 145 157 160 161 164 164  93  27  33  33  35  38  39  38  42  40  41  45  38
 112 113 116 118 116 106  98  97  72  29  20  25  24  25  26  27  26  22  16   7   5   6   5   4   4  23  26  51  64  41  41  42  38  47  45  64  63  72  96 108 120 137 143 106 109 106 119 104 105 121 105  84  90  83  91  95  77  81 105 117 141 100 105  61  39  61  70  89 108 127 138 135 138 151 159 163 165 165 164  88  27  34  34  36  39  38  39  39  40  41  44  42
 119 115 102  75  53  35  28  26  23  24  24  25  25  27  29  29  25  20  11   5   6   5   6   7   6   8   5  32  69  62  49  45  38  31  34  55  67  90 110 101 141 135 135 123 125 114  98 107 109 108 119 100  90  84  85  70  70  66  93 108 130  95  71  48  60  68  88  99 103 112 131 139 148 158 162 165 168 164 163  78  30  34  33  36  37  40  41  38  40  41  43  42
  72  52  31  21  18  21  21  23  24  25  25  25  27  28  29  27  23  19   7   4   7   7   8  10   7   3   1  16  74  74  72  63  42  32  34  51  76  91 122 132 144 117 123 117 101 121 100 103 106  91 106 108 107  89  73  70  70  71  96  99 114  88  57  68  70  88 110 105 115 135 139 143 154 160 165 167 168 167 160  63  32  35  33  36  38  40  39  38  39  41  42  40
  23  23  25  26  24  23  22  23  24  24  27  29  29  29  28  26  23  16   4   5   9  10  10  10   7   5   3   5  64  76  74  82  78  57  47  48  52  77 116 137 113 112 101 107  89  99  74  85  90  63  92  99  69  87  67  80  77  66  72  79  94  77  74  87  81 103 124 131 141 142 139 149 158 163 166 170 171 172 154  50  34  35  32  35  38  38  37  37  38  41  41  42
  29  29  28  27  27  25  24  24  26  28  30  30  29  27  24  22  21  11   4   9  14  13  11  10   8   7   5   0  40  78  80  83  85  81  70  62  62  75  85 114 104 128  97 102 110 114  89  53  74  78  88  79  68  74  85  86 111  92  78  84  87  90  93  96 103 121 133 133 136 141 147 153 159 166 170 173 173 170 146  44  34  37  34  35  38  38  38  38  37  41  41  42
  29  30  29  28  28  28  28  29  31  31  28  27  26  25  25  21  19  10   7  14  17  15  12  11   9   7   5   0  21  73  79  83  87  92  88  73  62  60  59  95 112 121 108  93 103  97 101  94  63  69  97  77  70  84  92 115 110 115 108 107 108 112 111 118 120 127 138 131 140 151 154 158 163 170 172 174 173 171 136  40  39  37  37  37  38  38  39  39  38  39  40  42
  28  28  29  31  31  32  30  30  30  26  26  25  24  24  23  22  17   9  10  16  18  16  14  12   9   7   5   1   6  60  81  83  87  90  92  81  77  70  68  82 101  84  88 109 103  78  84  78  67  66  80  70  79 102  93 115 103  98 115  99 101 116 121 123 129 137 140 140 146 153 156 162 168 172 175 175 174 175 121  36  43  38  35  36  38  38  40  39  38  40  40  39
  32  31  32  33  31  30  29  30  28  26  25  24  24  23  24  22  15   7  11  19  19  19  14  11   9   8   5   3   0  40  81  87  89  91  91  94  95  85  71  75  75  64  83 107  93  93  92  72  69  72  71  67  83  86  81  89 102 108 115 113 121 129 124 130 144 143 141 143 150 157 161 167 172 178 177 176 179 177 100  29  45  38  37  39  38  40  40  39  39  41  40  39
  34  32  29  29  30  30  28  27  26  26  25  24  24  23  22  20  15   8  16  22  23  19  16  12  10   8   5   4   2  21  76  85  89  91  93  94  96  89  80  84  82  87  87  91  94  90  83  86  88  83  93  91  95  89  81  94 107 105 121 130 129 131 135 138 141 142 142 145 152 158 163 170 178 178 178 181 176 168  75  29  43  40  38  41  39  41  41  39  37  39  40  39
  32  30  29  31  29  29  28  26  26  27  27  25  24  24  22  20  14  11  21  23  22  20  16  14  11   8   6   4   4   6  59  84  88  92  95  95  93  94  90  75  81  89  88  88  87  78  83  85  84  76  89 109  99  82  90 103 107 123 129 134 143 141 141 146 143 143 148 154 158 162 166 173 176 181 184 180 174 161  53  30  42  40  39  40  42  40  41  40  38  38  39  37
  30  30  30  30  29  30  29  30  29  27  25  23  25  23  22  21  14  18  24  24  23  22  18  15  13   9   6   4   6   1  34  84  89  93  97  98  98  97  95  77  74  90  97  97  93  83  85  88  86  82  92 104  91  88 108 115 111 115 123 131 138 138 141 147 146 147 151 157 162 167 171 173 177 180 179 176 174 157  46  26  38  40  41  40  41  41  40  40  38  38  39  38
