P2
# Generated by OpenCV 4.2.0
92 112
255
 241 241 241 241 241 241 241 241 240 241 241 241 239 243 243 241 242 243 242 245 243 244 241 238 237 224 158 161 185 152 113 145 135 139 180 127  91  86 119 127 109 123 166 166 161 158 152 167 152 134 137 142 174 173 171 186 148 132 156 157 136 128 129 205 232 242 239 242 241 240 237 237 238 239 237 235 234 233 231 231 232 233 232 232 233 233 235 235 235 237 235 234
 241 241 241 241 241 241 241 241 241 240 241 241 241 241 243 243 241 242 240 242 242 242 241 237 227 180 181 191 177 133 105 140 112 185 156 136  94  79  85 114  99  83 155 206 168 148 180 175 152 163 141 146 177 144 138 131 128 145 144 123 140 150  96  86 147 195 229 236 238 237 238 239 236 238 236 238 236 233 232 232 232 232 233 234 233 233 235 235 234 236 236 233
 241 241 241 241 241 241 241 241 241 240 241 241 241 241 244 243 241 242 239 241 243 241 242 238 208 173 212 182 164 118 139 116 142 201 148 184 147  53  68  82 103 113 194 192 197 204 182 168 169 160 182 182 161 152 155 140 119 121 130 101  99 148 111 117  94 116 161 229 239 241 238 239 236 231 240 232 234 233 232 231 232 231 231 233 233 233 235 235 234 235 235 236
 241 241 241 240 241 241 241 241 240 241 241 241 240 242 240 239 241 240 241 242 241 237 237 224 178 157 188 186 127 111 118 118 175 144 176 151 148 130 109  72  94 161 206 198 189 201 194 192 184 170 158 153 142 161 170 152 133  93 109 106 101 130 127 140 112  72 105 200 240 230 240 234 234 231 240 236 235 232 233 231 232 231 232 231 233 233 235 235 234 234 236 235
 241 241 241 241 240 241 241 241 241 241 241 240 240 242 239 242 237 244 239 240 226 242 226 205 171 151 165 154 113 108 132 127 134 166 132 113  88 116 115  96 119 209 201 198 182 174 166 169 172 181 200 178 150 145 134 148 164 152  88 107 122 108 109 148 118  86  78 107 213 232 217 177 131 177 228 239 232 234 233 231 230 232 231 231 233 233 234 234 233 235 234 234
 241 241 241 241 241 241 241 241 241 241 241 240 240 240 243 241 225 197 197 189 179 173 201 170 166 187 179 145 100  90  94 124 112 110 104 101 146 138 132 145 129 116 117 107  95  97 100 101 102 107 125 157 170 173 159 133 135 165 156 104 109  94  97 126 119 105 100 104 114 186 167 160 176 122 168 185 221 235 233 231 232 231 231 232 233 233 233 235 235 235 235 235
 240 241 241 241 241 241 240 241 239 238 239 242 241 239 229 193 189 171 131 160 125 146 163 161 158 180 126 118 108  75 104 106 100  91 132 118 123 121 105  96  99  88  76  70  84  83  77  68  52  67  90 100 130 158 157 163 131 139 153 147  91  56  77 123 127 130  99 128 131 109 139 136 107  99 113  88 137 231 231 231 231 231 230 231 231 232 233 234 234 235 235 235
 241 240 241 241 241 241 241 240 240 242 240 241 239 183 128  99  68 136 150 154 132 151 179 177 173 161  93 121 101  82 101 121 127 125 126 103 109 102 102 107  87  73  67  57  38  25  44  71  86  63  54  88 108 129 151 150 160 129 125 159 141  55  40  92 111 110 130 134 171 110 126 110 130 124 137  69  77 232 230 230 230 230 231 230 231 231 232 233 234 232 234 235
 238 238 240 241 241 241 241 241 240 241 241 232 135 123 101 133 141 160 139 144 129 194 149 135 148 102 106 104  71  58  98 134 136 133 113  83  64  75  79  79  50  39  49  56  56  35  39  31  41  76  77  57  85 103 139 146 140 145 113 144 163 115  61  63  92  84 106 116 136 193 122 176 106 153 186 116  76 228 227 227 230 229 229 231 230 229 232 232 234 234 235 236
 240 238 241 241 241 239 241 240 240 241 232 138 133 128 153 192 180 145 170 118 179 169 109 112 111  63 102  95  66  55 121 146 111 105  48  33  56  64  68  42  43  38  40  48  43  32  34  43  28  26  76  78  64  78 120 146 139 151 120 122 146 176  59  50  85  86  72  79 128 171 162 120 113 171 176 147 100 228 227 222 226 228 228 230 229 231 233 232 234 234 235 235
 239 238 240 239 240 242 239 240 239 241 173 160 201 175 181 155 140 142 119  68 175 136 104 110  67  41  66  63  70  67 105  80  56  37  67  50  29  58  58  50  53  55  45  42  54  48  43  39  41  27  32  85  91  71 102 134 139 134 143 119 135 169 115  34  49  81  69  83 109 152 156 152 132 136 147 107 147 196 224 229 221 227 229 227 229 231 230 234 233 232 232 234
 237 239 239 238 241 239 241 242 238 236 175 214 204 156 143 147 151 145  97  76 185 126  98  74  73  33  47  56  50  76  80  25  25  25  35  73  41  45  67  49  48  55  62  47  49  53  54  43  35  32  38  45  94  87  99 115 141 132 143 121 143 160 154  23  46  51  80 104  86 166 150 145 145 137 144 154 158 134 166 214 223 225 228 227 229 231 231 234 233 233 233 234
 241 241 239 238 241 241 238 240 237 229 174 159 142 119 125 139 162 127  93 102 160 117 110  76  69  27  35  49  52  79  53  35  16  26  28  31  74  42  51  65  45  40  52  68  47  52  52  48  28  31  34  45  67 112  79 105 143 125 136 125 136 157 150  38  28  61  92 121 110 152 136 121 131 133 161 151 193 195 165 192 215 221 228 227 229 231 231 232 232 231 232 234
 239 237 239 238 238 239 240 239 195 196 137 128 130 105 114 129 166 124  91  93 155 119  92  74  55  24  32  43  59  65  25  34  30  26  21  30  50  68  44  56  72  33  51  72  61  52  57  56  38  33  37  47  48 102  74 117 118 124 130 130 138 155 147  79  37 101 113  98 143 130 131 131 106 106 144 189 181 199 162 182 201 226 227 230 228 230 231 231 233 232 234 235
 239 239 239 239 239 238 238 236 170 145 113 106 111 114  93 142 144 114 100  84 138 108  87  69  49  32  30  40  43  47  16  21  44  22  15  23  28  73  49  42  77  44  42  66  69  46  60  53  35  27  27  37  58  91  88 111 111 114 116 118 131 153 138  99  90 103 106 128 150  89 134 138 111 125 143 145 159 177 135 150 193 222 231 224 230 229 232 231 232 232 233 235
 239 238 238 237 240 237 242 220 140  95  76  90  72  80 102 130 102  73  79  84 129  91  97  65  47  44  31  21  41  41  16  14  32  29  13  16  19  30  62  29  68  64  38  60  60  49  66  44  35  24  28  35  60  84 100 104 110 115 117 120 124 144 124 110  72 118 108 122 123 115 138 115 128 112 124 115 125 124 134 103 140 206 230 227 227 228 231 230 232 232 233 235
 238 238 238 243 236 237 234 190 124 138  91  70  78  76  73 102  85  56  55  69  98  70  70  63  58  47  22  22  35  50  22  16  12  37  14  15  10  18  35  46  47  56  35  46  59  47  65  50  37  32  29  39  61  79 105 102 111 115 119 111 120 135 111 102  81 101 112 118 114 139 120 130 115 119  83 112 115 139  93 101 110 164 195 228 229 228 230 234 230 233 233 232
 238 236 238 237 236 237 234 151  95 170 189 111  79  86  72  87  71  45  36  50  86  45  58  74  65  50  36  25  28  58  26  18  17  22  27  15  12  14  15  42  39  46  22  43  45  45  70  43  51  39  27  46  54  76 103  91 108 114 117  96 124 117 105  96  66 102  99  93 136  98 144 119  92 112  96 113 135 102  83 105 101 180 133 227 230 228 231 229 233 231 233 234
 236 238 238 234 240 239 197 176 131 111 118 116  96  80  74  80  62  41  32  37  60  37  50  65  65  56  57  36  30  49  60  31  19  19  30  35  21  21  19  27  40  44  22  38  37  44  70  40  37  30  27  49  55  76  99  83 106 104 113 113 112 101 108  86  61  83  79 133  88 137 131  82  92  91  94 122 101  74  92 106 111 218 144 142 205 229 224 231 232 232 232 234
 238 236 237 239 237 229 134 159 147 122  90 105 110 107  62  69  70  36  35  31  48  43  37  42  60  55  41  63  29  25  55  63  58  36  30  37  40  26  31  27  39  41  25  29  37  40  63  36  30  29  24  49  52  61  93  78 104  96 104 112 101  91  92  53  76  61 107  99 132 123  82  72 112 110 110  99  80  78 107 101 158 214 215 126 184 212 230 231 231 232 234 233
 239 238 237 237 238 189 124 164 138 121 115  98  99  90  89  60  69  43  30  31  24  49  33  36  54  50  46  44  55  36  35  55  52  61  56  47  45  42  29  32  32  38  26  28  32  34  58  36  30  26  20  49  46  62  79  83  88  97 106 101  98  82  69  59  55  83 118 127 133  90  88 105 114  91  89  86  57  96  96 121 152 187 224 126 171 182 220 228 230 234 233 236
 237 238 239 240 235 149 135 122 133 145 111  87  85  92  88  78  65  63  40  28  38  36  41  33  42  54  42  47  48  55  50  37  39  42  40  42  48  46  40  37  35  41  30  31  31  29  48  32  31  27  24  45  47  64  62  88  83 104  98 104  87  80  65  41  67 118 125 113  87  78  96  99  73  78  80  57  70 101 103 147 163 159 203 154 122 171 198 231 230 231 232 233
 238 238 238 234 238 162 114 133 145 130 105  93  84  72  68  70  58  81  42  29  34  36  38  40  37  54  46  46  51  51  54  56  46  47  40  36  38  46  34  27  32  43  38  31  32  31  41  27  35  23  29  48  49  61  65  91  80  95  92  96  91  68  40  93 113 117 108  78  78  98  94  63  56  68  69  61  75  92 118 137 145 170 167 114  86 166 185 226 230 231 232 233
 236 238 237 241 208 173 119 123 101  93 116  90  91  81  84  70  63  66  68  41  29  35  36  39  43  40  46  48  43  41  55  49  46  44  34  45  38  30  28  28  24  46  44  32  33  34  42  38  32  28  30  41  42  59  81  77  92  89  89  82  76  62  87 105  96  78  76  99  95  73  53  59  74  61  57  63  75  90 111 106 121 146 149 134 103 136 182 225 227 233 232 232
 236 238 238 241 222 137 110  84  89 100  80  92  87  84  75  79  51  69  56  66  37  31  36  42  45  46  46  42  47  44  43  39  43  48  48  31  21  23  26  31  30  43  38  37  33  41  44  43  37  36  35  41  55  70  82  73  90  84  89  80  79  89  84  81  73  80  73  56  56  57  69  56  60  51  58  63  66  97  88  93 107 111  80  98 127 101 200 220 227 230 232 232
 237 240 238 238 232 175 157 115 112  94  93  97  85  76  65  68  62  65  57  58  72  53  42  47  45  53  56  58  50  50  49  43  38  41  45  42  40  34  33  37  45  44  46  40  36  36  45  44  40  33  39  46  57  78  76  88  83 103  97  71  71  67  76  66  66  69  72  68  70  50  58  62  50  65  61  63  81  88  98 107 110  99  91  72 116 153 208 216 229 231 230 232
 237 238 238 236 235 183 152 146 110 120  97  97  91  79  69  67  61  72  65  65  66  75  67  62  54  47  52  45  50  57  55  52  50  46  38  33  35  42  54  62  68  66  51  50  46  44  52  50  46  43  49  55  67  79  85  87  98 100  81  75  60  57  55  53  48  51  61  63  67  53  49  62  64  59  66  65  83  74  98  95  90  84  87  77 107 174 210 223 231 231 231 231
 238 238 238 237 238 229 135 119 111 128 112  96  90  83  81  86  72  80  61  82  89  87  88  86  73  67  60  67  61  63  58  61  58  56  54  53  48  56  70  89  92  86  73  65  58  62  69  63  65  65  66  72  88  98 103 103 105 100  89  84  71  72  70  64  65  64  64  61  65  64  58  58  56  61  58  77  71  92  97  89  93  83  83 113 144 183 214 220 226 231 230 231
 236 238 238 238 238 233 195 125 136 113 108 109 105  99  86  86  81  85 104 100 111 110 114 125 112 105  93  86  78  78  81  83  85  84  85  80  84  91 100 113 113 110 101  92  86  86  94  95 100  94  97  98 111 122 125 120 117 119 123 112 103  98  89  83  84  80  75  67  69  68  69  68  68  59  59  58  79  76  77  94 107 102 116 136 121 149 196 213 225 226 229 231
 238 238 238 237 235 237 202 128 124 125 129 138 120  95  90  93  88 109 113 121 123 130 137 140 141 130 127 124 117 116 118 119 125 121 115 113 117 118 122 121 116 127 131 127 123 125 125 121 130 132 132 137 142 143 137 135 142 147 144 141 129 116 107  98  89  79  75  74  75  63  64  58  57  52  54  69  60  75  83  78 100 121 118 170 178 114 160 185 226 232 229 231
 238 238 238 237 235 235 206 152 154 117 120 110 118 117 115 108 122 117 115 127 151 157 184 153 154 145 147 146 149 142 138 140 136 138 137 136 137 137 141 146 146 151 152 148 151 153 147 152 150 148 147 154 153 153 154 156 155 153 156 155 146 135 128 120 115 107  97  96  93  89  78  71  56  53  52  59  61  71  64  80  77  99 114 139 133 142 118 165 225 226 229 230
 239 238 237 237 236 236 230 161 138 129 116 122  99 130 141 126 124 116 117 148 165 166 188 175 158 160 161 156 155 156 156 153 151 154 146 146 154 157 156 155 149 156 157 159 162 165 166 165 164 166 166 163 161 162 163 165 162 160 157 159 159 150 142 137 130 127 123 118 112 110  91  74  69  58  66  57  59  64  66  61  71  70  88  96 101 102 117 185 227 231 229 232
 236 238 237 237 236 235 231 207 134 125 121 108 101 140 131 123  86  97 126 180 183 182 197 170 171 173 171 166 164 161 160 162 162 163 161 164 163 163 162 164 162 163 165 164 166 168 168 169 172 169 170 171 169 168 167 168 167 166 164 162 158 156 153 148 142 139 137 134 131 128 111  83  75  70  56  76  73  57  60  73  55  60  72 117 153 182 181 213 231 227 228 230
 238 238 238 237 238 237 233 189 165 136 136 123 124 119 145  93  90 105 145 204 199 186 183 179 184 177 175 171 169 170 170 167 166 169 169 168 166 167 167 165 162 163 165 166 167 168 169 170 172 173 171 170 170 171 170 171 168 168 164 161 162 159 157 156 152 150 147 145 141 138 123 104  81  80  68  69  79  68  60  58  71  51  67 109 137 199 211 224 227 227 228 230
 238 238 237 237 237 234 236 195 146 164 129 139 125 143 137  90  98 116 146 214 210 213 190 183 187 183 175 175 172 171 166 165 168 170 167 167 167 166 167 168 167 168 167 167 168 169 169 169 172 170 172 170 171 170 173 170 169 167 163 166 162 163 162 158 156 158 156 153 150 147 135 119 102  85  70  71  77  74  54  54  66  61  48 110 146 217 221 223 227 228 228 229
 238 238 237 238 238 235 238 209 149 139 133 132 128 145 124  87 111 128 161 203 210 221 191 185 185 185 178 177 173 170 167 165 168 166 164 165 163 165 163 165 168 168 168 170 169 172 171 169 169 173 172 171 170 172 173 171 172 168 165 167 167 165 161 162 161 160 161 156 157 151 136 123 113 102  77  59  72  84  67  47  48  62  77  76 147 219 216 227 227 226 229 228
 236 236 235 238 237 237 232 186 155 114 117 119 116 150 109 103 132 138 168 199 218 222 194 185 181 184 182 175 171 171 166 165 167 164 167 163 166 166 165 167 168 167 166 167 166 169 169 165 170 169 171 172 171 169 169 171 170 167 164 167 168 166 163 165 162 161 160 161 162 154 140 126 113 112  90  72  62  81  87  56  52  43  56  82 175 222 222 227 227 227 227 226
 240 238 238 238 238 235 231 181 121 119 120 139 144 145 111 127 131 147 174 197 222 205 186 188 186 183 178 176 171 169 166 165 163 164 167 167 164 166 167 164 166 163 164 166 165 167 167 164 164 166 172 168 171 170 168 168 168 166 164 166 166 163 161 163 164 163 164 160 163 155 143 136 128 117 108  84  68  78  94  68  46  39  39  75 133 225 225 225 224 224 225 228
 239 235 237 237 236 236 237 197 105 111 117 132 135 125 115 119 143 143 176 198 223 191 189 188 187 182 177 169 169 167 165 166 167 167 165 165 163 168 163 163 162 159 163 162 164 163 164 166 167 170 168 170 169 170 170 169 168 165 167 166 164 167 165 165 162 163 165 165 163 155 151 144 138 131 105  94  81  76  95  72  36  57  59  75 180 223 225 224 224 226 227 228
 237 238 238 238 237 233 231 198 140  83 129 136 104 137 112 127 148 155 195 202 214 190 195 187 185 183 171 168 168 163 164 164 165 163 160 160 163 164 163 164 162 159 162 159 157 159 161 163 165 165 165 166 169 168 167 168 169 169 167 165 164 165 164 162 163 166 167 162 165 158 152 150 143 127 113  93  83  83  99  82  52  51  50  68 206 226 226 225 224 225 225 226
 238 236 236 236 236 240 226 186 156 112 135  97 127 137 120 146 145 169 201 209 190 192 192 187 180 168 166 161 159 159 162 161 158 157 155 156 154 156 160 161 162 159 160 159 159 160 161 163 164 162 162 165 166 168 166 166 166 168 167 163 164 165 164 165 164 164 159 156 162 159 154 151 139 130 111  96  86  78 107  96  65  59  55  68 100 226 226 225 224 225 226 226
 237 236 235 235 235 236 233 200 138 143 139 133 124 132 144 144 145 188 205 200 187 196 189 181 174 165 167 164 166 162 163 166 165 166 163 164 165 164 162 162 161 158 160 160 158 158 159 159 161 162 163 164 168 167 166 170 171 167 165 160 165 163 160 160 162 162 163 159 159 159 155 156 149 133 115  93  87  86  92  96  74  45  56  75  87 211 224 224 225 225 226 225
 235 237 237 237 237 238 233 219 158 144 158 112 112 134 140 142 150 185 207 191 193 195 193 184 171 169 169 165 166 162 164 167 164 166 165 166 168 168 168 165 165 162 158 157 158 157 155 161 160 159 159 163 164 163 166 171 164 161 163 164 162 162 159 162 162 163 161 162 160 152 151 156 154 139 119 102  80  85  74  97  62  64  50  82 114 201 223 224 223 225 225 223
 236 235 235 234 237 237 231 217 169 134 141 129 113 131 149 134 155 170 203 192 193 196 189 183 169 166 166 161 164 165 167 167 169 171 170 167 169 169 166 163 164 171 167 165 166 161 157 155 156 157 156 158 161 160 162 161 161 160 160 154 157 156 157 162 159 162 161 157 157 153 155 157 156 141 121 100  76  80  76  85  67  69  63  75 104 205 227 226 226 226 224 220
 238 235 236 236 236 229 233 205 170 137 128 125 113 137 143 134 152 182 176 185 187 189 192 180 170 167 166 161 163 163 163 170 169 167 168 169 171 172 170 166 163 164 163 166 167 169 165 163 170 171 171 172 173 173 174 173 174 171 171 167 169 163 164 162 159 156 156 159 160 157 158 164 148 135 121  98  79  69  77  73  51  66  60  89 168 227 229 226 226 226 224 222
 236 236 236 236 237 235 229 201 193 167 122 120 106 134 137 137 160 182 184 186 183 189 190 182 170 167 169 162 165 156 160 165 168 168 166 170 172 172 175 171 169 166 169 170 166 171 168 167 166 168 172 176 174 174 174 173 176 170 169 167 166 163 166 162 159 159 159 156 159 159 154 153 149 142 121  95  66  64  76  78  43  53  54 180 217 227 228 230 226 227 225 220
 237 235 236 236 237 233 232 201 156 142 129 110 122 129 144 146 170 178 189 192 184 187 189 175 181 178 174 173 175 173 173 174 173 173 172 170 170 171 172 171 169 167 170 172 170 168 170 170 169 171 177 174 172 174 175 173 171 171 171 169 165 164 165 162 162 157 155 161 161 157 152 151 145 142 121  92  70  64  68  67  42  76 112 221 220 226 229 223 227 226 222 218
 234 235 234 235 235 238 231 233 209 147 128 129 136 135 120 139 155 173 187 189 186 194 190 184 191 183 174 172 170 169 168 169 171 171 173 174 174 174 173 174 173 170 169 172 172 168 168 171 169 173 172 176 174 173 173 170 170 171 169 170 167 169 170 168 162 160 156 157 157 155 158 153 154 146 118  92  75  58  67  62  62  71 163 233 232 228 227 228 228 226 222 219
 236 235 235 235 234 234 231 229 220 190 117  64 102 134  97 146 158 179 192 194 199 203 189 193 193 181 176 172 170 170 165 169 167 172 171 171 172 172 174 173 174 176 172 171 168 168 169 169 171 172 168 168 168 173 176 173 174 173 172 170 168 165 163 164 163 160 162 156 155 151 157 151 151 146 120  81  73  57  66  60  56 114 231 230 229 229 229 229 227 225 222 219
 234 233 235 234 234 234 235 234 213 194 103 106  87 128  83 129 164 181 193 195 202 194 199 199 189 176 174 167 167 164 162 162 162 164 168 169 170 172 170 171 173 173 170 169 171 168 166 168 167 167 167 169 170 169 169 167 167 166 167 165 164 165 164 163 164 161 169 167 160 156 158 157 148 145 120  75  72  60  71  67  55 185 230 231 230 229 228 229 227 224 220 216
 234 234 234 235 235 235 235 231 236 204 145 100 113 111  99 120 169 182 191 199 201 207 205 198 175 171 165 162 160 159 155 155 159 161 162 162 163 161 160 162 164 162 165 162 161 161 163 163 159 162 163 163 160 161 160 161 165 162 158 158 158 156 161 162 162 166 166 166 165 161 159 154 151 150 126  76  53  58  77  71 111 225 229 232 230 229 228 228 228 223 222 218
 234 234 234 235 235 234 234 229 236 236 221 130  98 104  99 133 176 189 198 198 210 211 196 181 175 171 164 154 153 150 149 149 150 149 147 149 154 152 155 154 152 156 160 159 155 154 157 156 152 150 153 151 151 153 153 153 154 146 140 142 148 147 146 141 147 153 162 161 162 160 155 156 152 143 124  72  52  57  84  73 149 225 235 230 230 230 228 228 226 223 222 218
 234 233 235 235 234 234 234 232 231 233 234 153 101 101 107 131 174 187 201 215 219 197 181 179 161 146 148 132 136 136 144 139 135 136 129 130 139 144 144 146 144 151 154 150 147 146 149 152 149 144 143 143 141 142 140 132 135 134 134 129 129 130 131 122 112 119 137 152 155 156 159 156 155 146 122  67  44  63  75  92 137 200 233 229 230 229 229 228 227 222 222 217
 234 233 234 234 234 234 236 234 235 233 203 159 124 101 104 118 183 201 191 210 196 184 176 153 135 127 117 113 122 128 118 109 101  94  96 108 115 133 136 139 139 149 149 144 142 142 144 146 138 133 131 131 124 119 117 107  96 103 102 102 107 107 110 111 110 103 111 132 140 144 157 156 154 148 121  55  44  60  93 122 143 163 229 227 230 229 228 228 226 225 222 216
 234 234 235 233 235 234 232 234 233 213 158 159 138 119  92 124 186 198 196 196 176 164 157 131 122 108  97  95  96  85  81  74  69  62  68  78  87 103 112 119 135 142 142 142 138 138 140 141 132 124 119 111  99 100  94  79  69  69  76  74  75  80  85  91  89  93  93 106 116 132 146 157 152 147 126  54  49  78 117 139 131 145 190 231 229 229 229 227 225 223 222 216
 234 233 232 232 233 233 233 234 235 203  90 135 147 148 117 136 190 198 196 170 158 121 103  99 100 100  80  67  65  60  56  54  50  56  53  57  71  80  95 109 130 135 136 134 128 136 135 132 129 125 105  93  79  83  68  62  62  57  51  50  53  56  58  69  76  77  88  98 107 115 137 150 157 151 134  73  65  92 135 139  94  99 137 229 228 228 228 227 226 222 222 217
 234 233 234 233 233 233 235 232 234 200 126 151 151 154 122 143 194 203 189 144 119 105  93  79  82  82  76  70  70  56  57  57  63  65  59  58  60  71  83 105 115 122 124 119 118 129 127 123 121 118  96  84  73  78  74  73  75  70  71  77  79  86  90  91  88  89  97  97 101 104 126 145 152 155 134  80  69 106 141 128 135  98 143 228 231 228 228 226 225 224 219 215
 234 234 233 233 234 233 230 233 231 139 161 146 149 157 116 147 206 204 180 138 107  99  93  87  96  90  92  92  76  73  63  50  41  53  70  76  80  79  84  95 103 109 110 116 122 123 123 114 108 106  97  92  84  87  85  74  62  52  53  60  69  75  91 103 107 112 107 107 111 108 125 142 147 155 131  84  78 112 139 128 141 126 138 226 228 228 226 228 225 221 219 215
 234 234 234 233 234 233 234 234 227 130 192 148 140 162 116 157 207 214 185 141 127 121 109 105  95  79  56  46  23  32  33  44  37  57  49  62  61  81  90  92  95 102 118 139 146 142 133 111 104 101  98  96  96  78  73  58  35  29  37  38  33  37  45  47  72  99 114 118 121 125 138 142 151 156 136  89  78 113 138 135 141 141 107 201 230 229 228 226 224 222 219 216
 234 234 234 233 234 233 233 229 222 166 174 158 165 163 118 163 214 213 174 140 124 123 115 100  67  39  74 119  77  60  32  54  59  89 101  68  77  69  80  94 100 110 133 154 164 164 143 122 109 107 106 101  89  86  64  89  57  60  28  50  55  63 105  75  47  66  94 119 126 128 133 137 149 159 141  92  87 102 150 146 143 146 111 172 231 228 227 223 224 222 219 215
 234 234 233 231 233 233 234 233 221 192 149 137 136 141 137 170 211 210 169 135 127 118 109  80  60  64  94 118  61  71  53  76  69 126 128  99  56  81  94  99 113 112 138 164 172 172 151 128 119 118 110 106 102  63  77 119  86  65  53  58  62  97 133  98  76  71  81  97 117 125 131 136 149 155 148  93  82 101 152 140 136 141 140 159 229 227 227 225 223 222 219 215
 233 233 233 234 233 234 232 230 231 173 130 125 117 102 129 184 217 205 175 143 130 111  97  98 108 111 104 118 106  72  75  73 114 131 127  93  91  78 101 117 123 118 140 162 172 173 154 132 129 133 127 128  86  84  86 116 122  70  57  68  78 137 129 117 114 117 112 105 116 126 134 140 150 158 153 109  74  92 113 123 128 132 145 153 227 227 226 225 222 220 219 215
 233 233 232 232 232 232 233 232 227 143 124 113 116 117 127 186 215 204 178 150 136 125 118 126 132 127 123 108 115 117 121 120 115 118 105 121 122 127 112 121 132 130 147 164 170 170 158 138 137 140 137 126 129 128 113 112 114 121 117 120 115 120 109 117 130 141 141 134 131 134 141 144 153 162 158 125  71  84 109 122 119 126 138 152 225 225 225 222 222 221 217 215
 233 233 231 232 232 231 232 233 221 142 117 104 107 144 131 190 220 206 187 152 142 134 134 138 135 138 134 122 115 112 111 112 114 112 106 102 110 111 119 134 134 135 151 163 172 172 163 149 137 144 145 139 124 111 107 111 110 107 109 110 111 117 119 130 137 147 146 143 140 141 142 146 153 160 159 127  75  99 112 119 115 122 138 157 223 224 223 223 219 218 217 213
 232 233 232 231 232 231 232 229 216 148 119 103 109 162 136 183 213 210 183 155 149 145 140 144 137 136 133 120 123 117 116 116 105 104 106 111 119 123 133 137 137 144 155 170 173 174 164 152 142 144 149 148 135 119 106 104 109 116 121 123 123 126 128 131 139 142 143 147 149 146 147 148 155 160 163 130  78 104 133 113 114 120 141 163 222 225 224 221 220 217 217 214
 232 233 232 232 231 231 232 233 217 153 123 113 116 155 140 196 209 215 183 161 160 151 149 149 141 136 131 125 123 111 107 111 109 115 119 121 133 138 140 142 141 144 161 173 175 175 166 155 144 142 142 151 148 135 126 120 109 106 100 109 113 116 127 139 145 144 148 150 149 152 148 151 151 157 154 135 107 111 135 109 114 134 153 168 224 224 224 222 219 217 215 212
 233 232 233 232 231 231 232 232 221 161 136 110 117 162 143 186 211 205 189 177 162 155 146 145 146 144 143 136 128 124 120 124 122 127 129 137 144 142 143 142 142 150 165 172 174 172 171 157 148 144 145 147 154 152 137 128 131 132 134 132 137 142 145 145 148 148 150 150 150 153 150 149 149 155 153 135 117 119 131 110 116 138 155 171 225 221 222 221 218 217 214 209
 233 233 230 233 230 232 231 233 224 173 159 155 140 152 136 188 214 201 194 174 164 159 161 156 151 146 146 142 139 137 134 134 131 137 142 148 149 144 143 146 147 154 168 173 174 176 170 157 149 149 144 149 155 154 153 143 133 137 135 138 141 146 149 147 148 154 159 155 156 156 152 150 151 153 152 137 116 121 128 110 128 154 152 189 221 220 222 221 218 215 211 206
 233 232 231 232 231 231 233 230 225 167 150 184 168 129 162 181 210 200 184 181 169 167 157 154 153 147 150 149 145 142 138 141 142 149 153 156 151 150 147 147 154 177 169 173 176 174 172 160 150 151 144 148 153 154 155 152 148 142 140 141 143 144 146 153 154 158 156 158 159 153 152 150 150 153 151 132 124 124 138 149 155 155 142 206 219 220 219 219 217 214 209 203
 231 233 232 233 231 231 232 231 229 183 169 208 165 130 153 176 207 197 186 177 169 162 155 152 151 155 154 153 150 150 150 155 156 158 155 154 153 149 149 150 187 195 175 174 177 173 175 166 157 153 142 144 150 152 154 155 156 154 148 145 148 150 151 154 153 154 152 151 153 151 149 148 150 154 151 123 124 115 148 159 140 131 157 218 220 216 217 218 216 212 206 200
 230 231 233 233 231 231 231 230 231 207 209 205 172 178 176 188 197 189 182 174 165 159 155 152 154 157 153 157 157 160 159 158 158 159 156 155 157 149 148 158 209 189 177 177 177 174 174 171 161 151 144 146 152 154 155 156 159 160 156 155 150 152 149 150 154 146 149 151 152 147 142 143 148 150 145 124 117 133 158 166 143 151 177 219 217 219 217 216 212 209 203 196
 228 228 229 231 231 229 230 231 231 223 212 170 162 156 146 188 198 188 178 172 162 155 150 151 153 156 157 158 160 161 159 161 158 159 157 151 151 147 145 168 220 185 177 181 176 178 176 172 164 150 145 142 147 156 159 159 160 158 158 157 153 152 152 151 145 143 144 144 147 143 140 142 143 146 142 121 140 159 148 158 164 151 204 214 216 215 215 212 209 207 199 192
 226 227 228 230 229 230 230 231 230 231 199 149 128 110 138 181 193 183 170 166 153 148 147 143 150 151 154 159 160 159 162 160 160 160 158 158 141 141 153 186 221 182 175 179 175 176 179 175 170 155 149 141 146 155 161 162 162 159 160 157 156 152 152 152 149 146 147 140 143 143 140 142 141 145 144 122 127 131 138 150 160 173 214 215 215 215 212 209 206 201 195 189
 221 223 225 228 227 227 229 231 232 232 224 167 137 123 140 186 191 180 161 162 149 148 146 145 148 153 155 160 158 161 164 163 161 160 154 149 139 143 175 210 216 187 174 176 172 175 177 171 167 161 158 146 144 149 156 159 164 162 158 158 156 156 157 153 149 147 142 142 143 138 140 140 137 138 137 125 121 123 131 142 159 205 214 211 212 207 208 204 200 193 188 182
 217 219 220 222 224 225 228 231 230 232 230 225 143 118 136 183 189 176 153 148 146 144 142 145 148 155 155 160 159 163 161 163 161 160 151 139 138 169 215 200 191 180 173 172 169 172 174 164 159 159 164 155 147 148 153 156 161 164 163 159 155 155 150 150 146 145 142 140 140 139 138 136 136 139 139 126 137 137 139 148 203 210 209 207 205 204 203 198 193 188 180 173
 209 213 216 217 219 222 224 227 228 228 231 229 233 194 174 193 186 173 157 150 144 140 137 141 149 152 155 156 159 160 158 159 157 155 143 140 140 179 176 167 167 165 165 166 160 163 157 145 147 150 163 158 150 148 149 152 159 158 161 161 159 157 151 146 142 138 140 135 133 132 136 135 135 135 136 122 122 125 141 196 212 210 208 203 202 198 195 191 184 180 172 164
 201 204 206 209 214 217 221 225 227 228 228 229 233 226 230 195 182 167 158 151 140 142 139 138 149 158 154 156 161 155 157 159 156 147 142 145 140 149 138 112 133 163 149 150 148 148 142 136 137 137 147 152 147 153 149 146 152 154 156 158 158 157 155 141 142 136 139 134 135 134 134 136 136 134 137 136 143 176 210 211 210 204 201 198 195 192 186 184 177 166 160 151
 188 194 198 202 207 212 217 221 224 226 227 228 227 227 216 194 184 170 154 149 143 141 141 143 152 157 165 160 161 157 159 156 150 140 147 152 139 130 106  63  22 125 138 134 137 138 127  89  43  74 113 128 148 156 159 150 148 156 157 156 155 156 152 148 143 140 134 132 135 137 133 134 137 135 134 180 219 214 212 209 206 200 196 193 189 185 179 174 165 153 146 139
 170 178 186 192 198 205 211 216 221 224 226 227 227 223 221 194 179 170 155 144 147 139 140 146 149 157 162 163 162 158 157 153 143 145 152 153 146 123  99  90 108 126 129 115 116 123 109  97  85  85  98 129 155 163 157 154 152 155 152 153 152 154 153 148 144 142 137 132 135 132 131 132 128 133 143 183 211 211 209 207 203 197 193 187 182 175 170 160 150 139 128 122
 148 160 167 178 189 197 205 211 214 218 222 222 225 220 216 194 178 166 145 141 140 142 140 155 155 166 166 163 165 160 157 150 147 153 159 157 150 137 118 108 114 122 124 105  96 113 114 114 101  97 119 144 154 162 161 161 155 152 158 156 154 153 154 146 143 141 135 133 133 134 133 134 132 132 146 193 212 211 209 204 198 192 186 178 171 164 154 144 133 119 108 105
 119 134 148 162 175 186 195 205 211 217 218 219 220 220 219 206 187 173 150 135 139 138 144 159 164 169 172 168 164 155 155 153 155 157 159 157 150 140 123 107 103 112 112 105  98 103 110 116 116 121 127 142 149 162 163 164 161 156 154 155 154 156 154 148 145 138 136 134 129 131 127 133 133 133 146 188 213 210 206 200 194 187 183 171 160 150 137 125 110  95  85  86
 101 109 126 146 164 177 186 199 202 208 212 214 219 219 216 204 191 165 148 143 138 133 149 153 165 169 170 173 169 160 159 158 161 164 161 153 149 138 120 118 115 104  99 102  97  94 104 118 123 122 134 137 146 156 160 163 164 161 161 159 158 151 153 149 147 143 134 134 127 132 127 127 132 134 146 192 214 208 201 197 191 183 175 159 149 134 117  97  79  66  60  69
 112 107 110 127 146 163 180 187 198 202 207 208 213 214 215 197 186 166 152 151 143 136 137 154 163 168 173 174 163 160 163 164 168 163 158 148 142 136 129 127 125 100  97  84  88  95 107 122 130 115 119 127 141 145 149 157 161 162 162 161 159 151 149 146 144 137 131 131 130 131 125 128 135 140 141 191 211 204 201 195 186 180 167 150 136 114  89  66  52  49  49  60
 122 113 105 113 129 151 168 180 188 195 200 206 209 211 212 202 189 168 155 147 142 138 144 148 154 175 168 170 169 165 168 166 166 163 150 143 131 128 126 121 121 117 100  84  82  94 112 127 133 124 122 120 125 136 139 151 149 153 163 162 162 153 147 142 139 137 131 130 129 122 124 125 136 133 148 208 209 204 196 190 183 174 158 142 121  99  70  47  40  42  45  59
 133 125 114 104 114 135 157 170 180 186 193 198 204 206 205 196 193 170 166 141 139 143 146 153 149 160 164 176 178 172 158 162 149 142 140 135 129 130 125 121 126 114  95  83  89  98 114 127 122 119 124 116 118 121 127 137 141 145 150 152 157 148 144 142 138 132 130 128 126 121 129 131 133 134 159 204 207 201 196 185 177 165 151 131 109  82  52  41  40  39  40  56
 140 133 123 110 108 126 148 161 170 177 187 192 197 200 200 196 194 174 163 150 135 137 141 147 155 164 165 178 183 165 151 137 141 128 135 130 122 129 132 134 136 126 103  93  91 104 122 132 137 138 144 129 128 122 120 121 130 132 146 148 153 147 143 139 137 131 127 118 127 125 132 132 134 140 162 204 205 198 191 184 173 159 143 123  98  67  44  41  42  40  39  57
 148 139 127 117 103 115 137 152 160 169 179 186 190 196 197 196 189 160 173 149 131 137 135 135 147 162 161 182 175 150 136 129 137 127 134 137 138 141 146 141 141 146 132 120 114 122 141 143 146 144 156 143 132 130 132 131 126 123 140 136 150 147 138 136 136 131 127 122 129 130 135 128 129 137 169 206 201 194 188 179 168 153 134 113  86  54  45  42  41  40  40  53
 154 143 131 122 109 113 128 144 153 161 171 179 186 192 194 192 187 186 156 147 135 128 135 149 144 152 160 173 173 152 155 153 140 134 133 141 137 133 129 116 105 106 115 130 140 127 111 104 116 124 130 135 143 144 134 135 136 136 127 139 143 142 138 138 132 123 127 126 124 133 136 123 133 127 178 205 198 196 186 176 164 145 127 101  71  46  40  40  40  38  40  49
 157 147 135 128 112 112 127 137 146 154 164 174 182 186 189 185 173 172 149 153 131 135 135 143 141 165 163 165 158 150 145 149 146 139 124 119 106  96  89  91  91  85  82  77  84  81  82  92 101  97  99 106 118 134 140 147 141 133 129 133 138 138 139 136 131 128 132 128 119 133 136 118 131 145 179 204 197 192 182 171 157 138 118  89  60  42  41  37  38  37  39  45
 155 148 138 129 117 116 126 132 139 148 160 170 177 183 187 186 177 170 161 146 138 135 135 138 149 164 165 171 161 151 138 140 133 122 106  83  64  59  57  60  62  56  53  50  53  50  61  62  66  70  66  69  78 101 119 124 133 136 138 132 132 135 137 136 129 125 131 122 119 127 128 127 123 147 194 204 194 189 178 168 152 133 108  76  49  38  40  37  37  36  37  41
 156 147 138 132 120 118 129 134 139 147 158 165 174 182 186 184 184 187 152 145 152 139 148 142 144 146 167 168 156 140 132 123 113  93  73  61  80  96  96  88  83  79  75  69  69  73  73  71  66  88  91  93  68  60  84 108 121 133 135 133 142 139 137 132 116 123 119 127 126 131 133 129 135 174 210 200 192 185 175 164 145 124  98  62  42  38  40  37  33  33  33  37
 155 145 140 133 122 124 134 139 142 148 155 164 174 180 186 184 176 166 156 146 149 141 147 139 140 152 167 174 162 138 139 139 123 118 114 117 126 126 124 124 129 131 120 118 116 121 123 124 114 130 132 127 120 114 112 113 126 135 133 139 136 141 140 133 118 120 112 126 130 132 125 133 151 185 202 200 190 182 171 159 138 118  86  52  37  34  35  34  32  31  34  38
 153 145 139 133 125 128 135 139 147 153 160 169 172 178 183 182 181 171 175 136 139 138 142 141 141 151 168 168 162 135 136 134 134 135 136 131 130 131 134 137 138 136 129 131 136 140 140 139 136 134 138 132 128 125 132 132 129 138 136 131 146 145 142 135 120 123 116 125 123 126 120 134 172 206 201 196 187 178 169 154 131 111  77  45  35  35  35  34  30  30  29  41
 152 147 140 134 129 135 142 146 154 159 165 171 177 179 183 183 179 175 174 158 138 143 135 135 138 151 152 153 154 132 134 133 138 141 138 134 133 136 137 135 134 131 129 132 132 134 133 132 134 131 130 132 125 130 135 137 134 130 134 136 142 142 135 135 121 115 121 126 117 127 111 150 192 205 198 191 186 177 164 147 129 104  66  38  33  32  31  30  28  29  28  46
 149 144 141 135 132 143 149 155 161 166 169 175 178 180 184 184 181 180 185 176 159 138 138 123 129 150 157 153 150 134 132 133 132 134 135 130 132 133 130 123 116 110 117 128 129 123 122 121 125 124 128 131 131 140 138 135 129 130 128 139 140 137 123 129 110 103 119 113 117 101 140 188 206 200 196 188 183 171 160 142 121  95  61  38  33  32  30  30  27  28  27  48
 148 145 141 137 138 149 155 160 166 170 174 178 180 184 186 183 180 178 182 188 165 144 146 128 136 154 147 146 138 125 133 133 129 128 128 141 137 130 118 120 104  91  88  99 101 100  97 107 113 123 122 134 132 130 129 125 126 124 128 132 133 128 127 121 112 109 110 115 108 111 161 197 198 195 187 183 176 164 150 135 113  86  55  33  31  30  26  27  24  25  25  52
 147 145 142 141 143 152 160 166 170 175 179 181 185 187 187 181 177 176 179 190 160 145 136 123 135 132 141 146 136 131 131 126 123 120 123 124 123 130 123 125 122 108  90  79  78  85  98  96 107 135 121 134 126 128 122 122 122 129 130 126 137 128 124 118 104 113 112 114 111 117 190 194 191 187 185 174 166 156 140 125 102  76  48  32  30  29  26  26  25  25  27  60
 146 145 144 144 148 160 165 169 174 179 183 184 189 187 184 181 174 170 169 193 162 135 132 129 133 134 144 134 141 135 128 124 122 118 121 111 116 121 116 114 117  97  86  89  85  93  92  97 117 120 123 125 118 124 122 124 130 130 129 123 124 126 121 120 111 109 100  96 111 146 185 188 185 180 175 166 157 145 130 113  93  65  41  29  27  27  24  25  25  23  31  59
 145 145 144 148 153 163 167 172 176 182 187 187 190 189 185 175 166 158 159 189 165 145 135 124 127 122 138 137 141 128 121 122 122 118 122 128 120 115 113 113 103 103  99  95  82  98  91  99 105 111 122 120 124 124 128 130 129 129 132 129 127 121 118 105 109 101  85 102 127 143 176 175 172 169 163 155 145 132 117 100  78  53  35  25  26  25  24  27  26  25  32  55
 146 146 143 148 156 167 170 175 178 183 187 188 189 186 180 167 160 159 143 171 171 149 146 129 114 129 134 134 136 128 123 125 124 128 130 131 127 127 120 119 113 113 108 108  99  98 104 112 108 116 120 128 132 135 133 135 133 133 131 128 122 122 114 107 102  83  98 127 129 106 153 159 159 154 147 139 131 115 100  82  63  43  28  25  26  27  27  25  27  26  32  46
 149 143 142 148 156 165 169 172 176 180 184 187 188 184 177 164 154 118 104 132 169 156 144 138 109 129 123 127 132 128 124 126 131 136 136 137 138 131 129 129 124 120 119 128 127 122 126 129 128 132 136 135 136 139 135 134 133 133 123 122 122 114 103  87  80  98 123 123 137  67 115 143 142 136 131 121 112  98  83  64  46  32  27  28  28  29  28  27  27  27  30  43
 145 140 139 145 153 161 165 168 173 176 178 181 186 179 171 160 138  48  97  73 169 151 147 136 128 114 112 134 133 138 135 125 136 141 140 141 142 143 143 138 132 133 135 137 129 132 145 147 148 149 148 147 149 144 140 137 134 132 123 116 122 104  88  83 105 113 124 126 132  15  74 119 112 112 107  98  88  75  61  48  34  26  26  29  30  31  33  33  34  31  33  38
 141 133 132 138 148 156 160 163 168 171 171 175 177 174 162 155  85   9 110  68 129 153 150 139 137 122 120 129 124 133 132 134 138 143 146 148 150 152 153 144 141 138 134 136 129 136 139 157 153 157 157 151 150 148 143 138 130 120 116 110  93  78  73  90 118 118 126 128 135  18  51  88  88  84  80  72  62  53  41  32  25  24  27  28  32  32  34  36  39  39  39  41
 135 124 123 128 137 147 152 159 160 162 164 167 166 165 163 126  53  14 120  93  49 144 147 139 133 128 109 102 121 127 135 134 133 139 150 152 153 151 149 144 143 135 132 135 125 127 136 144 139 144 152 154 141 139 139 129 120 109  99 102  81  78  99 116 111 123 125 133 132  27  49  45  58  49  47  44  38  33  28  24  23  24  25  28  32  34  36  39  41  42  42  43
 125 114 113 117 127 135 141 148 148 152 154 157 157 157 142  98  34   5 121  87  49  58 148 140 135 127 119 102 104 114 129 127 132 145 147 145 142 148 143 139 134 127 130 125 118 122 133 137 133 137 137 135 127 129 123 126 114 101  89  79  85 103 110 116 120 126 122 130 100  29  37  28  57  33  31  29  25  24  24  22  21  22  25  29  32  35  40  43  47  48  52  54
 117 108 100 105 113 122 131 136 138 142 145 145 153 139 124  87  31   2 119  80  64  38  77 137 143 126 117 114  99 104 118 122 132 135 128 125 131 134 124 128 129 133 117 125 120 122 129 132 131 131 124 121 123 127 109 116  99  85  79  94 106 114 123 120 124 124 125 120  35  34  38  22  52  43  26  24  25  25  24  20  20  20  25  29  36  43  50  53  56  62  66  66
 107  98  90  88  95 105 113 124 122 128 132 139 132 119 111  77  33  17 112  84  58  53  33  74 130 131 126 116 108 101 108 128 124 122 127 110 122 123 127 116 113 129 113 118 118 117 129 126 126 128 121 120 113 116 100  90  78  76  91 108 114 119 121 119 122 124 128  69  28  32  35  22  45  61  30  25  24  23  22  22  20  22  27  35  44  54  62  65  70  75  76  76
  96  87  79  74  74  82  96 101 111 114 127 128 110 113 104  74  36  16 102  78  57  52  44  30  64 118 126 122 118 109 104 104 112 112 116  96 120 104 108  91 103 108 108 106 104 107 124 109 113 116 118  98 111  89  89  66  69  93 108 112 118 122 123 121 123 121  58  22  25  35  23  19  39  53  46  24  22  24  22  21  20  23  32  40  52  62  69  73  81  81  85  86
  83  76  69  61  57  58  68  81  88 106 127 110 108 103  98  71  28   9  99  76  54  48  42  40  28  55 104 117 116 109 108 114 116  88  94  96  85  91  85  88  91  93  90  94  89  99  96  95  88  95  85  84  77  62  69  83  98 106 112 111 119 122 123 125 112  55  26  25  26  32  11  28  36  49  62  30  28  25  22  20  19  26  37  44  56  69  77  86  88  89  87  87
  71  62  56  49  40  29  50  80  93 124 112 105 102  97  89  65  34   7  84  74  52  51  41  39  35  24  39  87 113 109 113 117 122 114  91  72  72  61  66  68  75  71  76  62  67  77  84  82  75  76  62  58  53  62  95 107 110 113 117 115 121 123 120 106  41  22  24  25  23  31   8  26  38  45  52  56  24  25  23  20  23  30  40  49  65  77  85  93  98  98  97  93
  56  50  47  63  64  77  61  51 118 124 102  99  98  95  84  65  36   6  65  72  54  48  45  37  30  29  19  26  75 102 109 113 117 120 107  91  80  69  67  73  67  64  63  54  56  53  62  64  52  52  55  65  87 103 107 111 115 118 119 114 112 113  80  26  24  21  21  20  26  24   8  27  37  42  48  56  48  27  24  21  26  35  41  53  70  81  92  99 106 108 108 105
  85  85  74  47  34  34  35 121 120 103  92  93  96  87  82  65  35  13  41  69  56  47  46  37  30  29  26  23  16  56  91 107 111 110 107 104  93  88  84  69  67  59  55  52  53  50  56  62  70  72  88  99 107 108 110 115 113 115 114 113  92  42  20  20  20  20  22  20  27  17  14  31  36  41  41  47  62  40  24  24  35  45  50  60  74  83  95 103 110 114 115 113
