P2
# Generated by OpenCV 4.2.0
92 112
255
 115 131 136 137 127 130 114 119 118 159 145 147 112 127 122 174 150 131 112 124 141 127 136 140  79  83 124  56 113  25  84  41  42  47  83  66  61  79  33  38  93  32  41  49  53  17  35   0   8   7  57   0  18  76  59  56  49  16 119 122 130 108 110 104 101 123 104 107 122 113  99  88 105 115 108 122 102 115 104 116 115 102 129 135 131 129 105 110 118 113  91 101
 150 128 136 125 115 126 123 123 114 107 126 123 141 124 130 144 137 135 144 144 135 117 155 156  74 101  55  86  57   0  89  26  20  67   0   1  16   0   2  20  62  21  29  12   2  11  22  33  34  39   0  54  17  64  43  44  24  32  42 119 113 108 104 113 108 111 110  96 111 106  91 105 118 110 113 113  94 101 115 116 122 128 121 125 137 128 114 125  92  89 104  97
 141 153 115 139 142 124 133 140 146 118 129 129 144 119 130 148 127 138 131 159 135 141 142 171  58  66  78  22   0   0  25  42  11   0   1  34  36   0   0   2   1   4   6  22   0   0  33   0  25  21  19   7  11   9  24  15   7  16   1  56 106  99 113 101 105 117 109 135 118 125 107 107  98 109 114 131 120  95 102 109  96 125 106 118  97 131  97  89 103  94 129 124
 156 138 107 124 106 113 107 124 125 156 120 139 137 136 116 120 124 121 130 123 127  83  99  87   8  17  28  14   6   5  12  21  16   0   2   0   1  22   0   0   1   0  65   6   7  15  17   3  10  17  28   7   1   7  12   1  31  83  29   0  55  92 113  97  92 118 121 133 151 102 118 122 124 113  97 127 107 105 111 116 116 108 119 134 122 128 134 109 102 121 112 100
 147 141 145 133 121 125 124 141 127 145 126 155 132 165 122 130 134 136 130 105 139 114 107  82  34   5   0   0   4   0   0   4  34   7   0  23   0   0  10   0   2   9  47   0   0  10  16   0  27  30   3   3   9   0   0   5   9  25  35   8   1  63  97  90 105  94 104 121 117  93 119 100  94  99 119  96 110 115 111 126 119 131 101 123 105 112 104 122 119 118 108 105
 122 152 128 148 143 123 145 127 134 142 136 114 119 112 127 112 133 109 113 119  96 101 114  26   0   0  17  21   0   0  31  18   0  15  38  23   0   1   4   0   0  14   0   8   3   0  16  17   1   9   0  17  12  22  17   4  24  30  14   3   1   1   0  68  95 122  65  59  34  91  93 125 104 116  95  99 132 119 115 126 113 127 108  98  97 136 112 109 107  98  94  88
 125 145 137 140 141 137 120 119 148 127 114 144 124 117 107 109 114 123 139 132 112 123  38   6   3  26   9  11   0   0   0   0  14  23  61  29  97  62   0   3   0  13  58  12  11   2  28   8  42   3   0  36   3   2   2   3  12  21  27   0  12   0   2   6  20  30  49   0  17  83  79  99 105 106 117 146 158 117 110 125 118  92 141 131 117 106 107  86 123 101 111  95
 129 142 146 138 131 151 118 154 128 138 118 131 152 137 131 113 144 108 125 129 105 107  41  11   0   0  35  26   6   1   6   6  15   7  24  38  20   1  12   4   1  15  19  36  16  33  88 112  59  20  68  28   0   8   4   7   5   9  12   0   3   0  10   6  11  30   5   1   5   0  34  79  79  29 117 127 115 134 138 131 115 142 123 128 116 108 134 106 123 103 101  92
 141 128 117 113 158 129 134 149 153 115 134 123 122 115 149 130 138 113 131  97   5   2  21   6   0   0   8  26   2   0   0  48  62  26  29  23  13   2   1   0   0   6  28  10  18  72 136  21  36   6  94   1  42  43  60  61  53  59  59  43  46  30  29   0  20   1   1   3  13   4   0 110  72  69 137 108 113 131 106 115 110 111 131 121 105 109 100  95  94 107  98 101
 128 131 120 107 130 102 131 138 115 119 140 129 150 158 120 117 134 142  71  38  33   0  27  43  26  13  26  21  79  42  34  21   0  26  26  10   3   6   1   3   4  19  14  82  90 108  11  37  16  21   0 213  56  55  18  15   0   2   1   0   0  69  18 100  13  11  18  10   6   8  43  50 109  16 137 115 112 128 126 120 146 150 113 107 109 140  91 118  94 106  94  83
 134 116 112 125 130 149 147 133 125 126 137 110 123 138 128 129 134  41  13   0  59   2  13  35  55  66  28   0  62  30   1   0   0   0   3   0   9   3  15   0   0   1  62  28  94  20  23   6   1  22   4   0 104  35  83  45  16  25  34   1  13   0  28   2  22   6   7  20  33   0  62  28  32  22 123 138 117 122 131 125 131 132 113  95 110  89  96 108 102  89  97 100
 133 119 111 120 116 116 143 116 125 139 120 125 138 142 131 133   0   1   1   0   0  32   2   1   0   5  12  57   1   4  40  43  25   0   0  36  12   0   0   0  33  20  42  51  66   9   2   2   0  29   7   9  22  54  44 220   0   1  67  21   0  19   0   0  13  27   1  12   4  54  73  37  10   0 130 148 113 110 129  96 101 118 121 120 101  91  98 108 103  90  96  93
 125 120 121 124 132 113 128 125 110 142 133 134 118 116 126  75   6   0   0   0  79   3   1   0  11  11  27   1  22  93  14  10  46   8  24  11   4   0   0   0   4  23  37  46  28  11   7   1  16  50   7 121  88 189 158 103 247  93   1 112  31  35   0   4   7  26   6  19   3   6   1  25   6  13  59 111 108 114 131 133 102 119 100 120 104  97 102 100 106 100  97  87
 134 124 132 123 134 129 127 125 124 129 113 126 128 127 116  47   8   0   1  77   6  20   3   0   2  18  25  26  90  10  14  26   1   7  24   0   0   0   1   9   0   0  37 143   7   0  16   0   2   1  72   7  18 198 212 202 177 167 172  76  84  25  38  69   2  14   3  42  15  14   8   0   0   0   8  81 109 125  88  92 114 105 118 116  95 118  94  94  93  89  88  92
 151 114 134 106 132 134 140 135 121 132 124 134 120 112 128  16   2   1   7 100  16  23   0   0  10  40   1  97  16   4  94  33  17  27  52  12   0   0   3   6   3   0   0  35 174  59   0   5   0   2   6  54  22   8  39 206 207 148 101 122  45  36  43  24  74  77  19  85   5  10  45   0   1   1   0  10  39 107 108 124 121 123 121 106  99  95  84  92  85 109 103  95
 112 121 129 137 163 140 129 114 124 128 127 121 131 110 110   1  15   5   0   3  26  27   2  12  29  24  38  78  16  99  16  53   8  39 117   4   2   0   6  32   2   1   0  31 102  46 144 214 134  43  52  11  26  70   9  39 191 200 154  76 168  83  93  25  71  97  82   6  29  44  33   0   1   1  11  31   1  85  98 129 120 131 107 104  92  95 101  89 103  84  84  81
 115 140 128 148 134 134 144 130 156 138 118 129 106  85  71   5  17  31  15  22  41  44  59  60  39   3  37  16  33  41  41  18   1  16 111  34   0   1   4   7   1   0   4   7   4 110 243 250 212 151 122 132 148 123  79   4  75 118 170  85 100  69  41  66  31 136  17  83  63  65  22   1   3  16   6  16   0  70 115 115 110  99 110 116 103  81 105 114 104  95  93  77
 134 129 149 130 137 152 144 141 138 122 127 120 113  11  20  23  21   0  28  16  72  37  65  34  32  20  17  19  17  64   3  40   7   1  50 112   9   0  11   6   0   1   3   0   6  39 104  53 108  98  81 109  79 129  90 188  90  69  53  82  82  64  38   9  72   4 132   3  51  33   9   1  36  23   3  10  45  31 104  96 108 108 101 106  81  99  87 140 102 104  87  89
 139 137 129 113 132 131 144 119 128 137 125 115   6  45  54 101  21  14  47  27  20  70 152   0  19   9  28   1  45  14  15  33   6   0  74  95   6   0   4  13   1   6   3   0   6   0  40  86  98  94  20  19  48  92 101 119  84 109  93 108  22  64  98  60   6  57 101  74  50  16   8   0  11  51   6   9  38  25  55  94  95 101 113 101 102 109 104  73  80  85  91 100
 138 143 124 117 136 151 146 151 152 144 130 110  28   4  20  36  25  39   7  39  16  38  10   0   0   9   0   0   7  90   0   7   0  58  62  34  50  28   2  28  60  24   8  14   5  57  22  56  59  37  12   1   0   7   0 125  84  86   6  24 143 100  73  79  53   6  18  68  41  24   0   1  12   9  17  17   4  18  49  67  99  91  85 104 104  96 112  98 115  98  93 101
 152 155 143 131 155 137 134 150 138 153 106  59 101  42  38   3  30  25  32   4  47  39   4  17   0  27  19   1  45   0  71   1  24  11  69  65  56   6   4   3  83  87  26  28   3   4  37   1   4  63  36   3   0   6   3   1  13  66  64  86   8  59  65  83  56   1  16  29  61  54   0   2   4  19   1   0   3   4  49  51  62  91 101  99 114 107  92  93 115  92 110 102
 137 149 106 141 135 132 135 128 124 107 126 107   8  12  30  61  26  21  40   2  23   0   1   2   0  24  33  51  25  45  11   4  14   2   0  22  38  55   9  64  25  77  15  18   5  35  18  62  25  25  45   0   1   0   0   0  31  28   7  56   9  35  45   6  58   8   2   3  27  44  28   4   0   1   0   1   2  18  15   2   5  94  96  92  88  97  82 108  97 103  88  78
 139 121 145 125 148 142 126 108 126 122 119  58  31  13  40  17   3  44  31   9   3   0   0   0   0  39  27   0  75  75  54  46   0   0  11   0  13   3  46  51   5  68  20  49  17  11  19  20  28  12  17  15   0   0   0   4   0   8  11  25   0  51  72  29  38   2   0  22   1  10  23   2   0  14   3  22  33  29  23  18   1  85 108 105 100 113  89 115 119 104  82 116
 135 122 119 136 147 131 149 127 141 131  83  41   3  51  74  39  12  26   7  22   3   0   2   0   0   1  46  36  57  61   0  51   5  18   1   6  11  15   6  25   3  10   1   3   1   4   1   6   9   0   0   1   0   0   0   0  10   7  22  13   4  60  43  55  22   4   1   0  63   4  32   7   0   2   4  20  27   1   0  10   4  82  92  88 108  94  87  95 112  97  90 116
 132 147 138 146 141 130 133 139 138 113  39   2   0  55  36  38   9   1   0  38   9   0  12   6  12   1  43  53  18  42  59  71  38   8   2  13   1  19  32   0   0   1   1   2   2   7   0   0  14   2   0   0   0   1   1   5  12   0   0  54   8  56  28  32  15   1   0   0   7  37   1  14   0   0   0  17   0   0   1   1  15 105 106 115 108 121 114 108 108 118  97  85
 137 139 124 110 131 133 146 146 145  95  17   7  54  26  15   6   0   7  24  27  25   1  16   1   8  21  15   9  55  51  45  54  20   8   9   2   2   0   1   0   1   0   0   0  30   1   0   0   0   0   0   0   0   2  37   7  15   0  22  50  17  36  14  26   5   2   0   0   0  16  24   2   6   0   4   0   2   0   2   0   0 101  92 111 129  97 123 109 104 131 118 120
 130 135 136 147 124 158 133 133 109 120  38   3  33   0  20   5  48  31  20   0  44  25  23  29  31  26  85 111  71  24   4  27   6  33  29   0   8   0   7   0  14   3   1  12  19   0   0   0   0   0   0   0   0  15   2   8  28   6  33  46  49  40  54  21   1   0   0   0   0   0   0  22   5   6   0   3   0   0   2   5  26  95  90  99 111 117 104 110 117 111 113 119
 125 124 115 130 124 130 106 159 113 116  33  39   4  21  38  37   7   9  36  29   1  18  67  30   2  36  65  59  21  49  43  21  26   6  11  29   4   1   2  19  10  21   0  12   3   3   0   1   2   0   0   2   3   6   9  56  15   6  32  40  35  42   8  20   6   1   2   5  20   0   1   0  12   0   2   0   1   0   0   0  18 101 111 100 115 103  99 114 152 100 114 122
 162 145 152 132 131 128  98 154 145   0  86   3   0  12  11   4  29   3  34  19  75  12  93   8   4   2  23   5   6   4  19  17  14   5  23   1   1   2   1  10  24   0   1   0   2   3   2   0   5   0   0   6   0  21  68  41  30  17  28  24  35   6  13   3   4  17   1   4   0  49   6   0   1  40   0   4   0   1   0   5   6  94 127 127 102 126 115 119 110 112 104 117
 146 135 141 130 125 118 119 131 151   0 105  37   1  13  11   7  19  42  78  17  78  42  62  16  28   3  24  37   6  23  16  30   8  35   5  13  21  30   9  21  19   9  31   2   3   0   1   2   7  14   3   0  21  42  33  19  40  40  12  30  24  19   7   6   4   0  28  19   3   8  12  58  22   1   4   0  21   7  17   0   0  13 108 113 101 121 120 113 116 125 104 130
 126 151 149 122 165 126 149 160 131  41  19   0   0   0  19  46  11  47  66  63  53  18   5  13   3   9  25  58  33  57  56  63  21  24  18  35  15  29  59  89  68  48  13  36  12  24  12   0  13  28   9  13  10  31  28  65  35  41  35  30  25  27  30  26  14  30  29  15  32  10   9  22  15   0   0   1   1   7   6   0   5   0 112 109 100 114  97 125 126 122 109 126
 133 103 162 139 137  92 141 141 146 125  77  57  26   6   0   4  45  17  35  22  21  25   3   8   8  42  63 117 140  88 148  84 108 134  55  59  43  83  76  98 137 120 114  75  68  49  28  10  12  11  28  44  35  43  95  59  69  57  67  83  68  71  54  62  64  54  44  61  68  28  19  11   3   1   2  10   0   0   0   0   0  11  20 107 135 126 108 101 123 111 119 117
 155  96 137 126 148 130 135 139 127 144 130  15  29  17   0   9  18  23   7  18   8   4   2  58  86  92 172 194 186 185 156 191 203 190 198 150 122 126 133 125 157 137 164 166 150 105  78  80  62  57  50  61  82  77  83  94  97 112 110 111 106 101  92  90  90  78  87  89  59  70  34  11   0   1  30   8   1   5   0   6   2   0   0 100 120  98 110 138 117 140 128 126
 128 128 141 136 141 145 165 146 170 121  67   6  40  31  55  39  13  27   1  24  25  61  72  54 122 186 206 223 231 233 212 217 206 211 214 212 198 198 195 171 187 163 172 172 181 167 148 155 119 101  97  86  86 102 123 128 141 135 137 129 127 125 125 111 113  98 102 107 103  86  64   9   0   1  89   3   0   0   1   0   0   7   0 110 105 101 125 114 141 110 119 117
 144 118 122 118 136 162 161 144 135 146   1  24  27  50  47   7  36  21  27  12  97  90 138 163 191 220 231 234 233 236 235 231 238 237 241 229 224 205 209 188 208 219 190 209 215 209 193 185 167 172 163 162 164 163 156 168 163 166 156 159 147 150 136 139 135 127 116 107 116 107  91  32  10   2  64   1   0   0  10   2  21   0   1 103  99 109 117 114 111 113 107  96
 134 140 138 148 134 123 137 153 145 172   1  20  20   6   1  21  12  46  15  64 127 161 167 198 224 230 233 236 236 232 235 237 238 240 240 238 225 224 229 222 223 217 218 222 223 224 219 213 212 208 207 203 199 190 185 186 169 174 176 166 158 154 146 141 137 133 136 128 124 119 103  52  31   4  43   9   1   1  17   0  15   1 115  80  94  94 119 115 115 115 116 120
 110 151 118 139 138 132 140 152 154 143   0   1  11  16   4  34  80  58  79  98 132 194 211 228 229 231 233 230 225 235 233 238 232 240 238 239 237 231 235 228 228 226 225 224 226 227 226 222 219 220 209 213 212 206 205 203 206 192 191 189 165 163 158 147 157 148 143 138 135 126  99  53   1   9  29   4   0   0   1   0  17 117 121  94 110 113 117 121 129 121 100 118
 143 124 116 122 115 130 138 145 121 133  11   0  22   1  27  51  50  73 110  99 175 201 224 228 232 231 234 230 238 235 239 238 244 242 243 244 243 242 235 236 232 234 225 229 228 228 225 228 222 222 223 218 214 213 213 200 207 204 198 189 179 176 173 168 151 154 150 152 144 128  94  64  16   1  11   0   0   5   1   3   1  95 113 117 110 108 114 115 127 115 116 112
 105 119 112 105 125 113 119 135 139 134  35   0  27  22  48  70  85 117 136 155 168 205 230 226 226 229 232 230 230 233 237 230 241 244 245 244 245 238 233 237 238 233 233 230 235 229 229 233 230 226 221 223 218 216 212 209 208 205 196 188 184 180 173 162 142 154 154 153 148 127  93  69  28   7   0   6   0   9  11  10   0  92 133  98 116 107 132 121 106 134 126 135
 110 127 121 131 112 127 136 133 127 146 181   3   0   9  44  46  87 143 187 149 190 204 226 227 226 228 230 232 230 233 237 241 234 239 236 239 236 235 230 224 230 236 232 233 232 231 227 226 220 219 220 219 211 209 208 206 204 195 194 189 184 183 173 175 160 160 136 167 145 128 107  85  31   9   3   0   1   1  11  10   3 102 123 118 131 116 130 129 119 125 132 133
 135 134 120 136 137 142 129 132 114 126 156  64   4  34   8  58 132 161 185 200 206 211 214 228 225 223 228 229 230 232 227 234 239 243 236 239 237 233 230 224 226 227 230 222 221 227 219 222 220 221 221 215 219 214 211 207 218 210 202 204 206 196 189 175 167 167 164 162 138 131 114  96  70  30   8   4   0  20   2  27   4 114 126 117 129 128 120 119 123 118 137 117
 128 143 135 131 132 150 141 138 134 129 123  31  31  63  13  92 126 164 197 194 187 206 219 225 216 223 226 228 231 231 228 237 241 241 241 243 244 237 227 230 226 224 228 226 228 228 228 218 223 229 227 228 226 222 213 215 218 212 213 209 197 191 178 173 171 164 168 156 141 131 121 109  91  69  52  23   9   5  10   8  42 118 136 119 150 107 130 133 120 124 102 108
 135 130 128 138 131 128 150 130 140 139 141 118  29  13  37  68 125 176 212 178 196 206 219 222 224 225 223 226 226 226 230 231 233 234 239 233 235 225 229 226 229 228 230 232 232 235 223 224 227 230 229 223 221 212 218 216 214 208 208 198 198 174 179 183 172 165 164 166 145 138 129 114 115 103  65  45  44  40   0  17  87 114 121 124 136 114 132 124 137 100 121 119
 133 147 126 156 170 161 152 150 132 138 152 163  42  20  30  76 102 161 187 197 187 208 212 219 224 220 225 221 222 230 229 227 224 229 228 220 218 218 206 214 222 216 223 227 227 226 226 223 224 226 223 220 211 212 210 211 207 202 197 185 185 186 183 182 176 174 167 165 141 143 127 115 111 120  96  44  12   6  27  24 144 120 106 118  89 125 118 127 114 118 158 100
 134 130 138 130 141 152 139 146 145 139 127 126  66  58  12  33 113 112 157 184 193 210 216 221 219 222 224 218 224 230 230 232 237 241 237 237 235 232 228 231 221 219 216 220 223 219 217 214 216 213 210 207 202 184 188 182 191 166 171 162 172 164 156 162 161 167 162 160 148 135 123 121 124 105 112  69   9   9  19  25 123 110 127 117 120 110 126 119 139 123 113 128
 141 138 142 181 158 145 145 145 133 153 158 164  13  55  15  31  41 153 173 180 219 207 212 220 209 225 224 230 226 233 234 235 236 241 234 237 235 232 229 224 227 227 226 226 222 211 211 208 211 208 198 194 187 194 208 217 212 223 216 211 210 196 191 184 182 179 164 156 149 141 131 123 119 111 110  67  35  10  26  51  98 111 116 118 123 120 107 112 118 127 122 110
 136 135 174 153 174 127 125 146 151 140 131 144   0  56   5  22 101  88 158 193 208 213 212 211 222 219 222 225 227 222 225 234 234 235 242 239 236 229 228 229 231 228 226 229 225 224 225 216 227 233 230 225 220 226 223 218 213 216 215 210 197 189 184 173 168 179 166 153 148 140 128 117 122 112 111  55  10  17  35  42 142 114 122 122 131 112 127 126 111 105 131 132
 153 141 130 144 132 167 145 160 146 140 134 125  71  55  16  34  32  85 161 194 203 209 214 214 209 221 226 224 221 226 225 219 218 230 233 231 227 219 222 231 228 227 228 228 226 225 229 227 231 229 225 217 219 224 215 216 214 211 209 200 200 191 178 165 173 171 160 154 141 143 127 122 127 118 111  54  10  14  31 102 139 138 126 144 132 116 115 128 139 123 109 128
 132 156 147 152 164 130 160 154 155 154 138 169  93  50  33  27  19 104 191 188 208 212 207 214 219 220 223 218 225 225 226 220 216 230 231 226 219 221 226 231 233 226 218 224 223 228 224 213 217 232 224 229 224 220 225 216 213 215 212 212 205 199 189 183 179 176 157 145 148 134 125 131 109 118 114  60   4  32  26  83 144 123 107 100 141 134 124 115 156 124 128 140
 152 129 156 163 124 139 133 156 135 148 153 107 105  33  71  24  12  93 182 198 211 214 221 213 218 222 222 228 232 235 231 235 236 234 239 233 230 234 226 223 229 219 222 212 231 225 223 216 235 237 229 219 220 217 212 224 228 223 222 207 194 191 189 185 176 166 158 142 135 137 130 126 128 122 115  68   2   8  25 109 123 129 124 123 130 141 129 139 125 103  98 101
 182 163 144 150 140 137 169 148 148 171 142 146 123  61  31  47  17  91 164 209 207 207 214 214 212 211 217 227 226 233 235 236 234 239 240 238 235 231 234 231 228 227 221 228 234 228 225 216 239 235 228 214 214 228 229 224 220 217 215 202 200 191 184 189 176 167 156 150 147 143 125 132 127 114 118  78   2  20  49 117 121 124 157  92 128 116 141 107 120  96  95 107
 164 153 160 162 145 152 152 140 119 151 138 181 147  39  51  35  24  74 184 201 212 217 213 219 219 213 219 225 231 230 232 233 235 240 243 233 233 240 235 228 225 224 226 225 230 233 219 221 238 236 216 229 236 233 224 221 216 207 200 193 174 158 174 163 171 161 147 153 142 127 140 123 128 121 110  87   3   7  13  72  99 135 106 154 108 132 155 121 121 113 135  99
 156 146 147 166 121 107 151 156 155 133 158 167 208 128  43  20  36  98 184 205 214 223 216 217 212 207 219 219 228 226 228 227 235 230 239 233 235 234 225 228 223 215 215 223 224 229 222 218 233 223 227 230 222 228 213 218 194 211 192 188 153 155 141 150 145 126  97 124 139 133 123 112 126 121 112  85   2   5  60 121  61 123 135 135 111 117 130 119 116 117 102 111
 150 147 145 156 131 148 149 131 161 115 152 203 215 224  30  19  16  97 190 201 207 218 220 218 204 219 221 217 226 222 229 231 224 227 221 222 227 225 214 223 218 220 213 211 221 228 220 208 227 224 225 220 221 216 211 196 168 160 156 146 139 127  79 111  91  85  63  64  47  85  95 115 111 116 107  90   2   1 103 127  74 124 124 125 113 115 118 117 118 115 101  95
 138 138 127 160 160 173 159 185 135 154 137 200 219 233 221  18   9  89 192 200 213 216 208 215 223 206 211 222 209 222 215 230 215 213 197 214 214 193 212 181 204 194 206 200 221 224 213 204 218 230 225 208 205 204 181 134 135 134 119  65  93  41  74  60  67  86  69  56  51  53  45  90 111 106 106  87  13  10 106 129 129  88 118 129 134 146 123 128 129 105 123  95
 141 137 147 159 119 150 170 146 156 162 138 185  87 219 218  96  15  52 203 196 207 198 215 206 210 214 222 201 184 163 173 193 174 166 178 114 118 112 123 165 154 191 184 174 203 217 205 202 213 221 218 191 188 163 131  98 126  92  67  39  49  33  30  36  31  47  52  45  49  55  56  56  94 104 108  95   5  23 132 126 136  66 127 120 133 115 124 123 112  93 105 106
 146 146 145 144 143 131 144 160 148 151 157 219 201 204 224 178   1 102 186 199 212 205 204 206 208 205 179 146 152 125 163 147 152 136 115  71  68  89  71  84 117 142 157 160 186 213 199 192 207 216 195 187 160 143 120  96  58  43  47  41  37  22  26   8  29  35  38  42  55  56  58  59  65  98 113  93   3   1 127 125 129 130 128 121 118 147 105 124 107 110  99 100
 160 155 148 167 124 153 153 135 146 156 193 132 221 237 217 230   0  56 183 203 192 202 188 199 174 137 155 154 133 132 124 117  62  69  44  62  53  71  41  79 104 119 123 140 176 199 187 175 197 212 194 171 140 125  99  82  74  72  73  72  79  83  91 104 104  91  88  88  91  77  82  63  91 109 104 102  12  20  94 101 102 130 115 130 117 119 110 121  89 100 101  85
 137 163 136 137 133 163 157 142 139 144 214 150 214 238 230 231   0  36 184 198 194 200 195 123 117 118  89 128 142 130 108  66  28  33  27  42  54  71  72 100  90 127 124 131 147 180 164 169 191 188 171 168 150 115  90  96  90  82  56  44  36  19  29  45  81  96  97  96  84  95  93 110 108 116 109 104  16   8  63  84  94 126 116 135 122 111 130 110 104 114 109  95
 147 165 158 140 147 154 155 156 151 139 197 193 218 212 246 218  33  85 184 197 193 189 182 133 155 120 138 103  95  89  82 118 105 114 119 119 105 114 119 122 113 116 131 140 150 155 154 172 183 182 152 138 119  98  93  87  84  25  47   0   0   0   9   0  35   1   5  79  95 105 112 101 120 113 115 107  32   2  70  76  84 114 119 116 123  98 124 118  96 113  90 116
 155 135 146 131 162 149 147 143 149 159 189 213 214 214 210 184  87  94 181 197 205 203 124 144 131 115 113 135 148 145 128  90  48   7   0   0   2  46  59 102 122 128 136 141 141 155 187 196 201 172 131  99  95  90  88  81  74  49 144  15 222   0  37  62 121 139  32  18  62 108 116 111 115 115 110 114  43   8  73  70  72 124 124 115 115 100  89 117  94 119  90 111
 145 165 139 135 142 151 146 146 139 158 165 234 206 206 197 158  99  80 173 194 205 190 171 168 138 152 155 161 118  45   0  28   0 192   0  53  26 147  63 125  68 141 148 150 161 196 212 228 219 192 126 103 103  87  90 113  53 162 213  12  74   1  74  56 168 103 122  79  78  71 103 112 121 112 112 101  67   0  65  63  80 129 125 115 129 108 139  92 126  87 102 110
 141 156 160 145 156 144 147 148 164 155 161 221 201 192 197 172 132  65 153 195 199 208 195 174 177 182 157 109   0  10 163  69  46   0   0  96 100 199 155  77 174 174 175 193 206 218 239 243 236 198 125 111 109 118 125  41  71 170 217 238  25  45  30 125 174 113 125 116 130 114 127 130 134 123 117 114  86   2  74  59  85 130 123 118 151 109 137 126 117 101  95  98
 165 130 149 136 163 158 159 174 180 149 161 238 198 183 196 190 159  49 178 199 203 210 203 208 193 191 165  31  98 159 185 243  57 122  93  91 192 189 138 106 138 207 228 231 233 227 240 242 232 201 126 121 126 141 130 170 197 201 201 202 183 186 165 165 141 132 137 137 139 143 138 142 137 125 116 112  90  19  47  61 109 129 114 152 103 118 117  97 118  95 101  84
 156 128 159 141 161 149 140 149 160 158 159 244 202 190 198 196 217  48 189 203 204 209 206 196 193 155 146 193 186 192 210 216 228 175 164 195 204 173 161 188 208 217 213 240 245 232 237 243 235 210 142 126 138 146 133 170 187 170 187 165 180 166 158 138 140 139 136 137 148 146 149 145 140 123 121 110 106  26  88 122 147 123 137 134 149 106 137 112 102 125  96 100
 147 142 122 129 140 137 137 161 137 159 154 234 212 186 194 217 252  53 172 205 211 212 212 214 214 202 214 231 231 201 202 194 158 165 177 152 165 159 148 147 166 185 232 243 241 230 239 237 227 211 161 129 143 157 148 153 165 177 182 183 187 179 170 160 139 117 128 147 152 160 147 161 149 123 117 109 115  60 111 133 105 125 108 117 114 129 114 136 129 101 116 105
 144 132 163 153 152 147 160 142 157 159 168 210 212 197 177 210 247  21 156 200 208 215 220 215 215 216 220 228 226 224 200 207 203 198 188 183 179 147 133 146 173 220 243 245 237 235 234 233 229 216 180 145 140 157 167 175 179 170 177 169 152 138 138 130 131 142 155 158 161 160 159 158 149 130 116 111  89  71 127 145 124 136 119 112 113 103 124  99 130 130 119 123
 159 137 144 152 150 150 147 139 160 138 165 211 232 218 211 190 239 171 193 201 213 219 216 222 220 225 221 223 222 219 216 204 188 167 162 148 147 150 152 179 223 243 236 240 230 228 232 234 228 221 185 148 134 150 161 181 193 182 192 190 184 186 169 174 168 175 165 157 167 169 165 169 151 130 114 111  91  64 145 134 139 122 112 109 111 103 141 121 123  88 112 111
 169 167 121 153 138 157 155 156 161 152 156 203 212 218 202 203 197 175 173 204 209 211 221 223 225 222 220 224 227 224 216 205 205 193 182 172 158 168 196 228 244 238 240 235 228 230 234 237 227 217 201 148 141 147 157 173 187 198 194 199 197 194 188 195 184 178 182 180 182 176 172 154 154 130 116 111  89 108 130 132 132 128 113  97 105 107  99 129 128 113 109 117
 145 160 141 136 157 162 154 167 158 150 168 185 220 224 222 211 185 158 154 209 204 210 207 222 228 224 235 225 228 227 222 214 198 183 182 185 204 218 243 248 241 236 236 225 227 233 237 239 233 221 206 160 143 143 153 163 183 195 193 205 200 198 198 186 189 187 193 190 179 181 167 170 146 113 116 107  66 115 121 123 130 144 115 120 121 111 122 124 108 133  98 108
 140 148 139 148 149 128 136 142 163 170 179 164 212 209 226 227 224 207 161 208 213 205 213 212 220 228 229 223 218 229 223 231 230 226 227 223 235 242 246 245 239 238 232 230 227 226 239 239 230 223 206 159 144 142 151 160 170 187 199 199 206 208 208 208 206 199 196 197 178 175 175 155 136 114 108 106  67 110 127 115 133 127 130 110  98 132 118 119  97 144 102 108
 169 152 159 166 146 153 148 132 154 141 149 175 187 203 220 215 224 196 175 207 214 205 214 222 224 225 230 224 224 235 235 232 232 237 244 246 247 247 248 248 240 240 232 230 226 227 234 240 231 229 210 178 141 148 148 148 163 182 190 203 206 208 209 200 202 198 195 190 182 175 178 157 143  96 110 103 104 110 105 128 199 128 128 132 128 110 124 122 109 129 106  98
 159 150 158 140 142 172 163 143 152 177 150 174 156 200 199 214 195 214 168 195 200 203 198 222 221 229 227 229 226 234 230 235 237 244 244 245 245 245 244 246 241 234 228 225 226 226 236 238 233 228 222 184 151 146 144 147 157 178 184 199 206 202 205 196 196 195 196 184 182 170 161 141 127 111 105  90  70  99 124 147 121 124 118 130 130 126 118 137 111 113 125 125
 153 150 142 130 163 170 166 151 154 162 161 141 144 163 191 201 205 197 153 197 200 208 203 210 221 223 227 232 229 231 231 238 240 243 244 243 243 242 242 237 238 235 227 228 227 231 234 232 232 223 220 210 157 139 135 134 150 174 177 192 198 205 176 198 190 202 189 185 175 163 162 125 124 114 103  95  68 126 122 128 121  83 129 116 105 106 104 124 111 105 132 111
 165 153 151 147 152 138 151 157 164 148 145 159 151 168 163 172 197 185 157 188 201 203 209 217 214 221 221 217 224 229 232 240 237 244 241 239 244 244 243 241 236 225 223 225 226 232 233 239 237 224 222 204 174 139 126 127 129 152 172 185 194 196 197 192 194 181 179 177 165 160 134 130 126 112 101  91  93 130 140 126 138 121 129 113  92 136 129 118 124  96 101 103
 140 159 139 141 145 165 157 123 171 158 171 153 160 154 156 148 158 149 178 177 201 207 214 220 216 221 217 222 221 234 237 240 244 241 245 243 245 240 242 237 223 228 229 227 229 229 241 239 231 227 222 208 185 146 133 116 118 132 156 172 187 185 193 194 192 185 175 168 156 160 142 124 117 105 108  89  66 143 128 122 114 146 122 120 129 121 131 108 121 106 132 103
 152 138 130 156 146 142 152 156 168 157 139 155 147 151 169 169 141 157 155 184 192 203 209 206 216 215 218 220 228 233 231 238 241 245 242 241 238 243 240 223 225 227 229 229 224 229 237 246 229 227 225 205 177 151 136 132 119 121 136 160 179 179 186 183 188 180 182 165 140 143 127 138 121 106 103  89  99 132 132 119 138 123 110 121 111 114 125 106 113 118 108 104
 156 136 157 124 158 158 148 150 155 158 161 163 146 141 142 136 157 168 126 188 194 199 203 215 210 211 221 218 226 226 232 239 240 235 238 237 235 235 226 221 224 225 226 227 229 229 236 250 235 223 222 193 163 136 137 138 111 121 129 136 164 177 175 182 178 179 167 165 151 142 132 128 114 110 104  97  77 127 130 118 126 137 104 128 116 112 132 127 129 115 113 116
 131 154 158 142 144 157 160 142 166 149 152 130 149 154 152 150 167 136 146 168 172 204 203 216 217 222 216 214 222 230 230 233 234 242 233 244 238 228 217 227 233 222 225 219 217 222 226 242 226 226 219 184 146 127 128 138 103 121 129 138 160 167 177 174 178 179 164 150 141 136 124 125 116 100 102  76  99 147 134 118 143 140 120 116 109 112  99 128 119 119 104 117
 141 139 130 159 157 143 159 160 157 152 157 154 125 155 158 155 153 156 141 158 188 199 201 210 210 221 219 216 223 227 224 233 234 238 241 234 230 213 221 231 226 215 205 196 201 215 217 228 221 217 208 153 121 109 102  97 115 116 132 134 149 168 160 166 174 169 166 150 141 134 127 122 115 114 111 111  69 133 139 114 104 123 112 120  94 111 108 105 108 108 105 110
 151 145 109 136 136 160 102 165 157 153 142 156 150 161 150 166 148 157 156 163 162 189 191 193 216 212 221 222 223 231 227 238 235 234 240 236 226 219 230 237 236 221 184 103  77  73 219 214 198 195 178 118  64  73  70  90 110 127 129 144 149 161 173 175 171 168 163 145 148 130 119 120 108 107  89  80  92 129 115 131 136 103 100 100 126 104 105 108 114 112 102 103
 170 170 163 139 140 157 155 172 157 139 161 169 139 156 145 163 151 165 121 166 164 163 161 181 210 220 214 224 224 224 228 227 235 234 228 228 220 233 236 238 237 236 228 188 198 209 200 186 175 151 119 109  77  40  89 102 104 122 132 148 153 166 162 178 167 169 162 152 142 118 128 111 101  95 104 102 125 146 146 134 146 119 118 114 101  98 102 103 100 116 107 103
 152 157 177 173 128 157 154 165 173 161 168 154 146 172 155 165 169 156 163 161 191 193 193 165 200 213 220 220 220 229 227 230 227 234 232 231 235 237 239 238 238 231 211 212 186 217 216 183 102 120  94  88  75  47  70  98 109 121 140 157 162 168 171 179 174 163 159 143 137 127 113 103 107 105  98  98 105 128 138 117 120 119 120  97 133 106 117 107 110 130  94 106
 164 162 164 163 147 152 164 140 160 151 161 166 184 169 171 161 152 156 156 138 170 178 176 180 192 208 217 222 228 226 227 234 234 238 234 235 242 240 232 236 224 220 198 184 208 197 208 175 140 100  92 108  77  72  70 113 111 115 134 142 149 163 178 184 174 164 160 149 126 131 127 115 104 103  88  87 123 111 126 101 123 130 119 126 110 109 110 110 110  87 124 100
 156 120 142 159 141 145 156 155 167 160 170 156 168 148 143 175 152 157 178  90 189 188 190 186 206 209 210 218 222 228 225 227 225 239 242 241 242 239 232 238 206 213 186 207 203 200 150 120  93 138 118 114  99  99  89 107 112 131 119 137 137 152 156 173 170 153 151 136 135 120 124 103 107  69  81  78 129 139 138 124 121  88 122 129 122 125 106 122 103  68  88 119
 146 155 155 142 155 154 153 171 122 166 161 169 169 152 157 163 161 146 151 126 191 185 200 191 204 203 200 204 221 227 234 228 225 235 237 232 230 231 219 218 224 211 188 176 183 198 170 126  76 152 137 161 139 120 113  79  96  92 125 129 141 153 155 165 160 145 147 130 132 125 100  98  95 120  97  75 136 127 122 110 116 113  94 114  99 125 101 120 105  99 104  87
 147 171 149 167 157 157 151 150 164 157 177 161 144 153 159 162 155 156 170 130 177 196 204 190 209 194 189 181 214 221 220 227 226 234 238 233 233 209 226 208 214 206 196 184 170 176 155  98  95 137 136 184 170 140 118 121 111 106  83 103  99 127 124 163 149 143 132 133 117 116 115 107 114 112 106  60 119 110 125 135 115 104 142  92 114 103 106 108  99 116  95 109
 146 125 154 142 148 156 157 156 159 165 170 167 174 151 176 174 158 162 160 171 132 161 199 207 202 189 178 211 217 216 217 221 227 236 207 218 180 174 160 193 198 179 218 208 205 218 173 145 115 141 198 222 184 162 163 150 133 107 110 137 136 119 105 108 137 131 127 131 112 124 122  94  96 103  89  76 133 112 126 111 110 100 129 111 101 103 116  97  86  87  95 103
 164 146 156 152 153 154 164 146 156 169 158 162 155 171 161 157 156 181 152 177 113 185 169 174 155 190 175 189 201 201 215 227 222 219 202 182 183 196 175 182 207 211 223 206 235 234 213 173 195 205 219 234 192 183 178 170 141 142 132 147 119 136 117 139 112 128 131 129 104 111 105  85  89  97  85 107 101 125 127 118 138 121 117 113 107 107 140 100 110 110  90  92
 155 137 157 146 154 150 150 157 147 146 163 120 167 165 154 152 146 157 159 160 133 153 184 178 192 167 183 210 198 213 223 207 221 212 207 211 212 219 198 201 215 213 224 212 192 170 184 191 213 211 173 138 119 133 127 120 127 131 148 119 135 130 164 136  98 103 132 110  88 103  87  81 115  88  71 125 121 121 121 120 122 113 140 131 131 132 133 105 109 113  98  91
 141 154 157 182 161 144 158 155 169 155 142 153 155 166 177 161 138 132 158 157 160 125 167 190 171 172 165 193 186 182 220 198 218 203 204 192 217 204 214 193 175 158 183 161 150 146 138 131 122 118  94 106 103  91  88  64  66  72  91  95 139 128 141 143 143 115 133  94  93 102  81  88  76  88  98 122 128 120 129 117 120 109 119 113 138 141 131 109 100 103  87  85
 149 126  99 164 154 149 165 154 151 142 139 149 148 156 167 141 150 157 168 168 151 108 169 156 178 181 174 183 172 175 221 214 215 208 201 214 192 173 163 154 132  82  44  32  27  38  11   5   0   2   0   1   5  19  35  61  63  53  48  84 133 169 149 147 139 129 126 105  99  84  85  78  91 111 131 120 134 133 134 107 112 107 122 114 114 102  92 108  98 104  91  98
 154 153 145 157 170 156 165 163 142 173 169 146 154 164 153 149 164 155 162 157 148 193 100 163 182 148 196 181 161 189 188 218 185 196 200 205 185 153  52  67 140 175 176 163 161 153 148 143 149 155 139 142 145 154 134 138 127 109 127 152 167 171 154 149 121 125 134  91  72  80  74  81  51  93 107 116 128 131 127 136 118 103 144 105 124 105  90 111 115 106 112  94
 144 134 161 173 156 147 153 143 149 100 162 156 154 151 148 151 161 152 178 146 158 181 155 146 178 178 150 182 171 167 203 218 212 201 188 200 202 209 230 203 211 222 225 201 197 192 193 190 197 203 206 186 186 153 156 156 148 136 128 145 192 161 143 135 121 130  91 102  73  75  85  77  38 130 156 124 130 120 122 140 111 113  88 114 107 114 109 105  94 116  92  93
 134 154 161 159 152 144 161 156 145 155 143 141 153 146 142 174 161  96 145 154 156 171 210 124 164 171 191 147 161 161 201 220 206 193 207 215 226 222 224 220 222 213 222 224 228 228 209 192 207 215 213 206 194 176 154 140 160 129 137 144 152 155 131 121 117 125  85  83  72  62  92  67  22  71 122 117 130 115 113 146 125 131 127 125 121 104 110 109 102 111 103 101
 160 157 159 142 153 152 157 152 140 155 158 147 144 172 169 133 149 156 131 146 150 143 205 161 125 173 182 133 131 176 170 194 195 199 184 213 200 215 222 214 211 207 219 217 216 214 210 212 191 204 190 190 175 159 158 141 133 130 163 144 144 134 131 108 122 100  82  94  78  49  38  95  27  72  65 117 115 138 112 130 124 131  97  82 136 118 110 120  93 107 106  95
 154 143 154 159 157 137 139 145 133 153 154 146 140 139 141 160 132 176 163 156 177 140 201 214 159 110 159 160 125 164 182 208 198 187 207 216 217 209 206 211 208 208 208 200 202 195 180 184 190 177 175 171 162 152 133 131 133 154 124 127 124 121 130 112 115  96  86  76  66  40 102  85  19  54  59  83 120 123 128 123 118 127 147 121 127 102 142  93  97  94 112  93
 159 140 130 157 150 167 164 155 125 127 157 151 131 165 154 158 159 161 171 160 151 171 200 214 198 107 122 165 139 134 109 137 190 180 196 212 211 210 215 209 205 198 186 184 177 122  94 104 126 116  76  69  92 113 121 133 159  92 125 120 136 138 124 114  97  92  85  63  52  72 106  46   7  47  58  62  79 108 124 128 111 120 111 101 133 121 105 110 105 122  98 115
 158 149 170 152 141 136 161 138 144 128 117 159 133 162 168 160 159 143 161 148 159 182 180 205 209 202 109 116 141 142 163 142 171 197 196 194 209 201 204 211 203 195 202 153 148 158 133  99  80  62  82 135 122 139 112 153 120 123 125 130 131 115 103 116  78  74  81  50  84 107 103  11   7  33  58  71  64 106 113 114 138 117 146 118 133 119 126 118 115  97 106 101
 143 154 138 163 143 135 128 126 147 154 144 158 180 158 166 148 148 152 146 157 173 184 123 213 218 212 149 135 148 138 144 110 160 178 193 184 192 198 197 201 193 206 185 180 164 139 128 130 112 112 112  99 129 139 127 121 128 135 136 127 130 118 112 104  88  69  54  50 108  98 109   0  10  35  63  62  62  65 112 124 122 137 136 110 107 106 115 116 110 115 119 116
 150 148 154 153 154 149 151 142 155 139 149 166 161 159 141 161 153 175 144 155 166 172 105 196 215 217 196 169 117 145 141 157 145 117 169 189 194 199 194 200 200 201 207 203 205 196 167 160 146 124 169 148 166 148 152 153 149 155 151 132 121 126 109 103  76  52  45 107 111 101 102   0   9  34  63  63  58  58  70 132 134 112 107 111 102 122  96 114 118 101 108 102
 143 126 133 143 141 148 169 161 152 135 158 155 170 161 156 149 110 156 136 154 163 153 102 206 211 210 216 198 104  99 125 167 163 146 148 158 181 194 205 209 204 207 209 209 215 216 209 211 204 203 173 190 193 191 181 177 173 161 150 134 120 106  92  81  65   8 121 107 111 103  99   0   2  22  53  64  65  75  82  71 114 113 114 131 100 115  96 116 105 101 103 105
 147 134 132 163 150 140 155 146 154 158 159 162 146 159 169 153 145 179 152 149 139 152 122 184 214 215 215 198 193 141 130 160 124 103 168 177 164 202 212 215 213 219 218 221 218 225 226 202 217 185 213 215 208 206 192 182 175 174 152 151 105  64  93  71  33  90 104 109 109 105  76   0   6  33  47  77  67  71  76  59  92 114 125 134 125 110 108 113 117 101  96 100
 121 161 143 149 161 147 156 149 152 165 132 147 159 150 157 170 164 157 144 155 163 142 116  74 204 217 212 221 211 167 141 102 152 111 132 145 184 197 213 216 223 226 236 236 241 239 221 211 217 186 201 195 219 189 188 184 171 178 129 126  69  69  51  42  79 100 100 111 109 102  33   0   3  26  48  80  70  68  74  70  75 114 123 107 117 113  98 108 109  97 100 105
 136 133 145 145 152 136 143 154 142 157 152 148 162 170 156 166 170 133 134 165 159 129 123  65 213 208 220 214 223 219 199 136  78 130 118 144 153 137 168 203 225 225 223 217 228 224 226 210 211 190 168 204 207 195 183 164 160 135 129 108  94  56  42  77 103  97 109 108 109  86   4   0   6  30  46  58  79  70  70  78  80  47 136 113 138  97  96  96 126 108 100 103
 134 133 155 117 159 158 172 165 167 149 152 123 165 160 164 168 139 152 135 162 166 129 109  91 177 215 204 218 221 218 219 200 175 108 106 111 121 176 188 195 207 209 206 212 224 206 209 195 187 163 195 196 194 192 176 161 128 129 128 100  57  26  77  86 101 102 113 108  96  73   0   0   5  29  51  58  67  75  66  66  77  59  45  86 101 121 102 112 100 115 131  97
 170 154 176 112 176 152 137 153 169 170 161 180 152 167 166 171 150 141 141 172 161 128 115  90  63 207 211 222 217 221 221 214 211 186  90 108  86 114 167 192 181 196 193 208 193 197 192 160 169 137 178 169 168 162 171 156 112 107  82  44  33  92  88  94  97 100 102  98  83  51   0   0   4  26  46  49  75  57  73  67  56  74  68  58  47  54  78 105 109 107 115 106
 170 102 161 154 169 145 150 165 151 146 172 166 158 170 165 159 147 138 165 159 162 145 122 103   8 215 212 213 230 219 214 215 212 208 213 128 114  96  93 114 136 175 189 154 181 160 161 167 160 149 176 167 166 166 131 121  86  85  41  27  62  85  91  92  94 104 108  91  75  23   0   0   7  30  50  50  73  48  69  65  60  59  50  60  69  63  58  53  60 109  85  94
 174 149 158 145 141 151 152 163 146 158 166 152 178 151 168 155 150 145 163 160 178 150 111  98  52 193 206 217 219 223 219 217 213 212 206 201 185 130  78  47 120 111 127 108 140  98 135 118 157 130  81 135 115 116  70  71  52  31  59  89  79  86  80  94  96  93  96  85  58  11   0   0   7  30  51  47  69  54  62  81  73  60  46  54  68  60  77  61  55  55  60  82
 155 154 170 145 156 168 141 157 179 124 164 169 137 147 153 156 144 154 150 179 147 154 129 100  62  72 204 214 220 218 213 221 209 223 218 212 200 192 166  54  39  67  95  81  91  76  76  65  75  84  59  42 103  85  53  25  44  92  83  78  85  89  93  97  90  95  91  77  46   6   0   1   7  32  53  49  73  57  60  66  60  56  75  79  46  52  56  69  73  45  51  59
 155 157 144 158 165 152 171 158 150 146 169 151 156 178 153 158 152 154 159 154 144 151 124 106  59   0 217 208 212 221 219 220 216 217 210 219 210 203 194 184 181 110  55  74  39  58  52  65  52  43  46  44  30  57  72  82  76  77  84  83  86  87  88  86  98  97  82  64  34   3   0   1  12  41  53  48  64  63  59  72  55  59  67  58  52  63  61  61  49  70  79  61
 125 155 143 148 164 160 143 137 146 160 153 130 145 163 146 147 146 144 140 150 170 146 126  98  64   0 180 208 211 217 224 220 228 217 210 207 211 205 201 192 179 189 158 157 133 104  62  77  57  64  74  85  88  84  77  86  89  83  84  85  93  93  88  89  90  92  75  59  25   0   0   1  24  47  57  53  67  53  66  67  47  52  61  56  60  51  73  86  68  67  76  76
