P2
# Generated by OpenCV 4.2.0
92 112
255
 209 206 205 205 204 203 202 200 198 199 198 197 196 196 195 195 195 192 189 188 187 185 192 186 201 162 128  82 128 135 128 126 117 127 109 170 145 172 189 147 144 167 150 141  99  95 156 173 183 104 147 162 181 172 136 127  85  85  77  73  88  89  76  69  73  93  74  66  70  57  33  35  30  33  37  43  43  38  43  33  51  27  33  40  56  46  42  38  38  47  43  38
 208 209 207 205 204 204 202 201 199 199 198 200 195 203 199 206 202 194 190 191 195 165 100  65  85  77  55  55  57  50  51  97  74  52  95  85  62  71  68  93 111 130 138 114 138 131 125 137 146 167 113 169 177 164 135 114  79  67  64  71  90  90  90  76  76  81  83  68  59  68  68  45  39  46  52  46  28  31  35  32  32  10  12  18  40  57  56  49  46  48  46  43
 209 207 206 206 204 203 201 202 201 199 199 203 195 201 161  88  60  45  64  76 109 100  83 140 127 139 111  65  43  40  39  41   7  13  21  38  46  32  72  10  12  47  70  92  74  96 125 170 105 150 120 171 154 152 131 121  69  76  74  80  94 104  94  85  72  72  77  72  61  63  70  60  39  49  53  64  38  32  29  30  44  25  30  25  21  48  56  41  46  68  37  44
 207 205 205 204 204 204 202 202 201 201 199 199 191 188  95 133  85  48  71  75  49  83  63 149 102  33  33 136  36  50   1  15  15  76  69  43  22  23  37  29   0   6  11   0   8  92  59 120 131 150 146  86 168 141 146 120  73  68  64  99  83 107 103  96  84  69  70  66  63  62  67  69  63  57  56  51  51  45  41  37  59  38  50  46  44  42  46  31  29  33  48  41
 206 207 206 203 203 203 202 203 202 199 201 205 195 138  55  46  59  53  83 101 120 140 151  53  48  85  78  74  69  26 101  45  22  44  98  66  82   8   3  31  14  16   3   2   1  19  73  47  56 127 141 175 152 171 156 138 125  88 117 136 156 143 154 128 101  98  74  50  52  60  63  76  72  75  68  44  36  34  47  55  59  53  59  57  65  51  51  31  34  27  37  33
 204 205 205 205 203 204 203 203 202 200 201 201 205  11  15  46  97  52  86  62  42 125  40  89  94  56  44  57  56   7  12  88  62  42  40  90  68  73   1  14  22  19  36  12   6  29  18 121  62  40  99 131 146 151 135 137 142 130 143 141 143 108  74  85  41  36  67  98  59  86  52  56  60  60  63  60  38  37  33  48  45  50  57  58  65  48  60  41  40  32  46  32
 203 203 203 203 202 202 200 201 200 198 198 198  40  18  48  26  42  35  41  59  24  19  40 128  68  60  24  54  59  62  38  38 112  76  73  65 102  73  64   0  29  15  38  49  13  35  66  83  29  62  17  88  89 109 122  86 106 116 116 114 108 120 134 146 138 124 114  58 119 104  95  53  45  49  48  52  53  36  35  45  44  37  51  62  74  47  82  54  38  28  48  40
 202 203 202 201 201 201 199 199 198 191 197 188  21  49  68 111  80  90  64  56  94 115  73  89 111 134  18  47  63  57  32  41  61 110  56  68  66  77  72  26   5  28  19  37  10  53  63  65 122  26  28  14  51  65  86 120 110  89 111 129 122 121 111 100 122 102  79  76  78  91 113  32  29  36  36  42  45  35  39  43  43  33  48  63  82  55  82  38  37  19  32  50
 198 199 199 198 198 198 197 197 189 169  91  71  30  21  45  67  80 127  79  26  27  23 125  64  26  31 115  28  23  27   5   7  25  69  39  38  26  64  39  84  15  20  24  42  24  56  14  49 112  45  15  36  22  28  46 100 106 149 132 109 110  91  98  82  84  76  76  84  76  30  79  93  60  50  40  47  39  42  51  39  41  38  42  57  52  44  55  31  45  19  23  56
 196 195 195 197 195 196 195 194 190 131 104  74  61 119  59 104  76  67  87  64  40  41  26  74 109  30  26  76  56  39  46  10   9  41  67  44  48  36  68  49  26  44  13  16   5  43  42  58 155 118  43  23  21  19  23  61  76 108 124 145 118 117 139 133  97  91  88  57  13  41  48  90  80  76  55  42  39  46  57  41  46  27  33  58  32  30  38  30  39  14  11  42
 193 193 194 195 194 194 193 193 169 133  81  50  43   1   0   0  81  42  47  91  51  18  62  15  72 111  54  38  74  63  77  49  10   9  59  53  38  18  24  38  40   1   7  22  20  33 109  70 133 106  71  26  42  11  10  10  49  54 113 133  74  98 134  47  61  50  79  90  30  90  55  46 106  73  74  41  44  54  57  46  54  26  32  44  28  26  34  36  29   5   8  24
 192 191 192 192 193 190 195 191 164 121  66  64  89  42   6   5  76  59  15  42  53  25  33  59  39  62  28  77   6  58  49  14  12   4  44 101  50  29  21  62  38  15   5   6  23  12  73  61 127 154  77  87  40  42   3  12  11  50  55  67 133  92  52   0   1   0  14  72 119 153 115  82  62  76  78  60  52  66  68  59  70  34  34  17  25  20  37  35  32   6   2   7
 190 189 189 195 194 194 195 168 132  52  52  62  55 106 110 103  68  62  23  25  32  69  14  19  31  57  57  39  64  28  52  69  36  30   7  40  74  37   1  19  19  16   5   1  30  20  45  53 121 138 100  79  50  10  21   2   6   8  50  48  81 133  26  22   0   1   1 105  27  62  97 122 126  90  74  86  63  64  81  76  71  37  30   8  17  18  21  33  34  20  12  13
 192 190 192 191 194 194 184 180  94  74  40  51  63  50  24  54 126  93  57  31  49  45  44   7   0  34  59  67  41  39  33  35  58  30  26  33  70  31  15  23   0  15  21  19  30  66  73  48 121 143 118  45  72  37  24  14  15   3  15  33  41  53 110   1  37   0  29  53  15   0  24  58 104 100  90  76  74 108  82  68  65  43  33   9  23  14  12  11  22  20  15   6
 192 192 194 197 196 185 105  73  85  96  62  66  54  42  69  14  11   4  35  38   7  34  42  31   8   2   5  46  49  35  27  44  48  26  28   3  10  69  10   9  15  38   8  18  12  61  42  44 107 130  96  90  92  47   9  28   0  12   2  10  14  34  66  85  33  67  61  73 100  41  61  59  42  94  64  75  74  83  86  61  75  56  35  20  31  24  23   7  13  27  21   2
 193 195 196 199 200  47  37  63 103  60  78  56  72  97  76  58  61  62  23   8  51   2  18  35  18   4   8  26  36  42  28  26  43  43  31  35  28  42  48   1  10  37  13  20  44  29   5  44 102 116  71  64  66  21  27  39  12   3   2  15   9  22  61  89 119 131 101 130 122 143 174 129 123  76  60  30  85  74  98  75  67  52  38  27  36  37  28  15  26  16  24  15
 196 195 198 202 203  28 111  65  54  91  75  90  72  58  60  72  30  18   5  21  14  34  18  26  15   8  21   3   1  11  34  15  34  27  68  12  40  27  49  30   1  18   7  13  13  29   3  37  82 127  65  66  61  37  44  19  22   2   7   2   5   4  18  46 106  99 128 133 166 138 129 123 139 126 107 159  41  54  43 108  40  41  53  41  24  19  35  28  24  21  17  23
 198 201 197 205 204 135  98  74  98  53  76  74  91 118  60  37  38  32  37  43  23   1  12  14  29   2  10  28  10   3  29  14  24  25  19  29  11  12  19  39  23  19   1   6   8   9   2  25  83 106  74  74  61  54  36  28  19   5   1   1   7   1  11  24  80  70  61  61  51  64  73  97  83  61  82  95 109 119 102  71 105  50  43  52  34  22  29  59  30   8  21   4
 201 202 202 206 187  69  56  46  37  87  85  73  90  87 123  72  85  43  14  17  30  13  20   3   7  21   2   1  17  16   1  35  11  19  17  31  25   4   4  28  28  20  23  11  21   7  19  26  73  85  52  75  62  52  38  28  37  11   0   1   2   0   1  20  45  78  47  25  42  65   8  19  39  45  20  73 121  83 127  98 121  78  35  34  33  47  25  51  59   8  12   3
 203 201 206 161  25  29  61  48  36  25  53  76  81  74  69  82  93  62  52  54  19  26  19   1   1   6  15   5   1  11   9   2  38  10  20   7  75   9  11   5  28  35  15  21  24  10  34  21  70  77  54  44  63  54  36  31  33  18   2   1   2   0   2  14  26  61  26  32   4  33  19   2  11  11  40   2  54  49  71 105  60 125  38  33  21  40  47  54  44  28   8  27
 203 207 206 140 115  64  62  43  45  46   6  40  50  55  68  71  66  75  53  34   7  11  24  56   5   4   1  12   3   2   3   9   2  24   3  20   7  45  15   4  14   8  25   4   2   7  28  35  62  71  51  53  74  58  36  24  15  16   2   1  12   2   5  12  17  36  36  24  24  40  10   5   0   4  14   7   1  30  30 106  55  68  67  38  39  45  47  51  31  19  14  34
 206 208 192 119 129  76  53  66  73  26  49  34  45  40  43  36  43  68  70  74  54  31  15   9  12   8   2   5  12   1   4   2   3  12  15   6  13  20  27   4   8   9  13  18  14  36  19  40  53  60  60  53  67  58  37  27  24   4   2   4   3   4   8  18  26  29  14   1  29   4  12   0   0   3   0   1   0  22  11  48  73  57  73  49  48  54  37  57  52  25  24  24
 205 207 209  88  88  95 131  45  67  54  69  65  32  14  22  20  30  42  38  66  68  68  44  48  15  18   4   6   6  13   2   6   5  16  14  12   5  11  25  15   5  26  16  37  29  23  31  62  60  81  53  66  60  55  33  38  19   6   3  12   4   4  23   7  16  42  51  17   1   0   0   0   0   0   0   0   1   1   4  25  59  53  54  74  45  50  29  45  54  24  41  26
 208 211 103  29  48  57  93  95  82  31  29  31  48  49  50  55  27  18  40  38  22  39  67  44  33  25  31  20   9   4  14  11  21  13  31  20  10  15  12  37  17  14  14  27  36  29  25  66  67  71  70  64  70  39  61  25  31  16  14   8  24  23  14  14  35  34  17   7   2   0   1   0   2   0   0   0   0   0   2  42   5  20  52  42  55  69  59  52  57  38  56  24
 207 193  71  60  89  63  56  38  81  79  53  74  40  48  38  41  50  53  37  35  35  36  42  28  26  27  30  20  11  11   9  20  23  36  45  27  24  29  23  37  36  47  30  38  47  35  54  83  71  94  89  81  71  75  55  40  47  37  45  32  33  23  34  46  36  33  34   5   3  15   8   1   3   3   0   0   0   2   1   2   3  21  48  55 100 113 109  87  64  47  59  24
 207 180  91  96 131 136  77  38  35  34  28  90  88  62  54  59  46  50  56  63  55  36  47  39  23  32  25  18  24  23  14  23  39  62  71  57  62  49  46  58  68  80  50  62  92  70  87 103  91  96 104  98 107 101  92  92  73  63  68  59  61  68  61  50  41  35  34  23   5  13  11  14   5  17   0   0   9   0   3   2   5   7  49  63 102 108 125 127 107  80  62  35
 207 130  63  81  46 106  81  62  76  54  29  39  42  30  61  66  67  69  81  69  45  42  49  28  20  29  47  45  34  41  53  65  63  86 109 109  94  90  82  78  89 100  79  93 106 113 123 126 145 135 134 149 144 155 145 118 119  92  96 108  94  87  97 100  73  74  54  39  44   5  15   7  14  13  26   0   0   4  12   3   9  16  43  86  63  40  50 121 136 119  81  51
 206 118 152 119  93  45  35  42  48  54  46  46  56  73  46  41  30  36  18  33  28  24  38  43  44  50  58  72  78  80  76  99 113 103 108 125 134 134 119 118 112 123 138 130 138 151 152 154 167 166 170 164 171 168 164 158 145 146 139 130 128 117 126 131 122 115  83  67  54  50  61  85  29  37  48  67  52  65  76  97  88 105 101  97  27  51  29  84 150 150 123  62
 209   0 118 148 192   2  42  54  46  68  74  89  71  38  26  32  38  29  30  51  32  50  50  55  63  87  97 108 116 117 125 137 139 144 149 154 164 153 163 153 147 155 156 161 175 175 173 173 177 178 180 180 174 165 177 177 170 168 169 158 160 157 148 158 160 152 125 105  78  55  33  42  61  42  69  57  28  63  90  39 130  49  51  47  69  62  51  82 153 153 145  97
 198 141  19 193  24   1  34  51  53  35  57  34  37  21  33  22  22  46  50  61  71  66  77  86 100 111 122 129 149 145 158 155 152 166 163 173 176 168 173 177 178 173 181 184 186 188 186 187 182 184 183 184 180 178 173 174 178 178 178 177 176 176 176 176 172 162 155 112 108  67  60  33  79  57  53  43   7  35  25  18  27  51  39  85  38  59  38 105 165 155 153 123
 201 194 164  32   7  45  21  42  51  61  41  27  29  35  19  31  41  52  64  77  83  89 103 110 125 135 142 155 150 165 172 163 176 173 176 177 184 184 177 186 184 190 185 192 196 194 192 191 189 191 185 188 184 182 177 180 178 182 181 182 182 182 187 184 183 189 173 142  90 114  54  53  44  65  40  69  31  25  53 104  81  76  69  70  57  65  22  99 163 154 152 135
 206 168 202 138  25  13  30  14  41  58  34  45  37  38  38  26  55  77  87  98 107 122 127 134 138 146 156 167 169 174 175 177 181 182 178 183 190 188 189 181 186 190 193 194 193 192 187 190 191 191 190 192 184 184 185 185 184 184 183 186 185 179 193 193 195 193 181 158 102  92  62  51  34  26  87  35  69  89  24  70  38  26  34  45  51  77  88 147 169 156 154 136
 214 142 214 173  26  39  24  23  57  33  33  48  66  44  22  36  87 103 111 125 132 132 142 143 151 155 162 174 179 182 187 182 190 192 187 194 195 194 192 195 192 186 191 195 195 196 196 190 195 194 195 196 187 189 188 189 187 185 191 188 189 196 191 193 193 196 184 167 127  77  77  65  65  96  54  47  61  22   7  14  23  20  39  45  91  84  80 118 158 148 151 132
 212 202 181 200  30  21   5  20  21  30  41  43  55  28  33  67 127 124 133 143 145 161 163 169 170 174 185 187 188 189 190 191 190 193 193 194 199 197 193 197 193 193 196 197 195 195 192 194 193 193 193 188 190 188 193 194 195 189 193 191 192 195 197 194 196 195 174 171 132  98  82  66  63  59  27  88  26  45  36  10  17  26  29  61  83  43  96 121 149 147 153 124
 213 215 192 178  60  18   0   0   1  33  49  42  44   9  52 103 144 147 150 158 168 170 178 183 184 183 188 189 192 187 186 195 193 191 190 193 194 193 193 196 193 192 194 189 192 191 191 190 188 188 188 188 194 189 191 195 192 189 197 198 194 194 200 198 199 185 172 169 143 113  85  73  62  76  68  53  42  40  67  31  45  23  22  22  70  46  75 130 144 140 149 118
 215 217 209 197 102  31  42   2   8  49  31  38  38  28  66 125 161 156 169 176 179 181 184 186 187 190 189 190 190 190 194 196 193 193 194 191 194 194 194 188 189 190 192 195 194 194 193 189 192 190 191 196 193 198 193 192 196 195 196 195 193 200 200 198 195 183 174 163 155 123 105  75  77  63  88  28  66  41  75  53  32  49  33  47  48  61  78  98 139 136 147 112
 215 218 218 216 163  71  33  17  39  51  46  35  27  40  74 142 169 178 180 183 187 187 192 195 196 194 192 194 201 196 193 191 193 194 191 190 195 194 190 187 195 191 194 193 191 192 193 196 194 195 195 198 199 195 191 196 194 193 195 193 193 198 194 194 188 175 179 143 157 142 110 102  73  80  69  53  38  89  65  71  60  49  31  54  33  33  53  75 109 144 135  99
 214 215 217 218 208 175   7  47  50  37  29  43  45  53  91 146 178 184 187 190 191 188 190 196 193 190 193 198 194 190 194 194 193 192 193 194 196 193 189 188 191 188 194 193 191 193 197 196 194 193 195 197 195 195 193 193 195 195 195 196 198 198 191 192 182 181 176 168 160 140 128 103  71  77  53  79  47  33  94 105  88  56  57  48  38  32  98  89 113 142 124  90
 216 215 217 217 214 196   4  65  67  35  39  48  35  74 118 162 187 188 190 190 187 191 193 191 185 187 192 195 189 191 190 192 193 191 191 192 196 188 190 193 191 188 190 190 189 190 195 193 196 198 200 192 197 188 191 199 195 194 193 196 195 194 191 190 186 186 175 175 161 152 127  89  79  72  39  45  89  73  66 113  71  49  91  93  67  56  88  72 116 148 120  94
 214 214 215 216 216 207  48  57  62  50  57  63  69  87 123 166 192 190 192 193 190 188 190 188 186 185 187 188 184 187 186 186 188 190 192 191 192 191 192 190 187 190 187 187 185 185 190 183 187 189 189 187 191 194 193 195 196 193 198 196 196 194 190 188 185 179 159 164 134  97 120 102 100  73  58  48  97  94  38  66  80  70  82  97  56  46  52  59 127 154 119  94
 214 214 215 214 216 205 103  45  19  46  46 100  78 119 137 174 188 192 188 193 185 191 194 194 197 198 200 196 199 202 201 202 201 201 200 197 182 185 182 189 191 188 191 185 177 177 177 175 180 184 188 188 179 180 182 177 186 194 199 196 197 199 189 190 187 178 170 173 173 165 145 131  98  67  56  75  53  66  42  96  88  75  48  82  43  26  54  76 132 151 124  92
 211 213 214 213 212 213 128  59  47  42  38  70  88 115 148 182 188 193 192 193 190 195 199 195 198 202 199 201 204 204 205 206 202 198 199 200 199 203 197 196 195 196 198 201 200 201 205 207 201 203 202 205 203 199 200 203 200 195 196 189 196 193 188 185 182 174 173 170 172 176 160 141 106  90  56  41  59  83  60  61  70  70  70  81  68  22  35 106 134 151 122  92
 211 209 210 210 209 207 111  57  13  53  87  88 100 126 165 180 193 187 192 192 190 194 191 199 200 204 206 206 208 207 207 209 206 201 201 200 199 201 201 200 199 199 198 200 202 205 205 206 201 199 201 201 201 202 203 198 195 196 198 194 194 184 187 184 182 181 182 179 184 168 163 148 105  75  80  34  59  73  54  43  64  34  73  83  54  41 132 139 151 149 122  91
 210 208 209 209 210 206  77  45  36  55  66  71  83 129 185 188 186 191 193 194 191 193 192 200 195 201 202 204 205 206 209 205 209 209 205 203 202 203 200 200 201 205 203 201 206 207 204 203 201 201 199 203 200 201 200 196 195 197 197 190 192 186 187 187 180 179 183 179 183 177 167 149 121  89  67  47  41  67  62  59  52  59  66 101  59  73 145 142 164 145 119  92
 206 208 206 204 202 203  60  22  52  56  65  75  94 137 184 183 194 183 193 191 194 196 197 195 186 199 203 202 203 210 208 210 211 205 207 207 205 203 202 200 204 202 205 206 209 208 203 195 195 198 204 207 206 202 202 202 201 202 201 194 190 187 187 186 186 182 182 180 185 183 170 142 128  92  66  48  41  53  60  41  42  64  64  85  81  63 137 168 165 138 110  79
 205 204 203 201 201 201  85  42  67  37  53  71  88 149 178 182 184 192 190 188 194 197 203 209 209 209 212 209 215 214 216 214 211 211 208 208 208 204 203 198 203 205 204 205 197 199 205 202 205 199 197 194 196 198 200 198 196 196 198 199 189 191 190 185 181 175 187 180 186 183 173 149 115  88  68  54  42  38  56  32  48  55  40  83  62  59 145 165 157 125  97  64
 201 202 200 200 199 188 108  68  34  35  65  76  87 141 179 188 181 195 188 191 199 201 203 206 204 205 205 204 205 208 212 208 207 208 204 207 206 204 200 198 202 204 197 192 201 197 200 189 192 192 194 191 195 199 195 197 196 198 196 197 195 197 198 191 187 186 183 181 185 181 177 159 116  76  62  54  34  53  50  11  40  37  34 110  75  64 162 156 145 114  88  57
 201 199 198 197 196 187 149  78  19  28  55  74  83 157 188 194 186 193 192 195 199 199 199 202 199 201 202 198 200 208 206 206 206 202 201 203 202 198 194 195 198 196 189 190 191 197 188 184 181 187 186 181 179 184 184 185 188 195 196 191 202 201 205 198 190 184 185 186 184 181 179 164 120  70  54  53  30  53  36  28  65  73  66  88  85  62 156 157 134 103  84  63
 200 197 200 195 195 189 167  67  31  57  83  59  76 167 179 188 192 195 197 202 200 199 197 199 196 188 183 194 198 194 199 196 193 189 193 195 195 197 189 188 191 186 182 181 172 169 176 175 166 174 166 162 167 160 155 172 163 166 162 172 190 199 199 193 196 195 189 187 183 182 179 167 130  75  58  43  37  26  35  35  32  55  63  78  55  60 150 151 125  96  82  69
 198 198 194 193 192 181 177  75  42  98  70  53  59 146 188 193 197 191 198 202 200 194 194 191 185 178 184 184 183 185 185 188 183 182 177 179 192 184 180 179 177 182 176 165 173 155 147 154 154 137 124 135 143 144 143 135 135 152 146 152 134 172 185 189 191 192 183 182 184 183 178 163 143  81  44  28  47  21  36  26  42  18  59  66  25  74 144 143 110  93  83  74
 198 191 192 191 190 183 182  53  20  80  53  31  29 141 188 196 197 200 206 198 199 193 188 182 176 176 172 178 165 156 165 173 170 170 166 174 183 179 172 165 168 173 163 140 135 146 136 116 107  98  73  78  74  73  93  76  82  96  92  97 116 116 152 180 183 186 189 185 185 180 174 169 151  89  43  32  38  32  39  45  26  54  68  53  59  83 136 141 102  91  85  80
 197 193 193 190 187 191 174  41  27  80  52  21  25 131 186 196 202 199 191 191 187 183 171 156 166 147 160 126 127 123 123 135 144 145 153 165 166 167 160 155 163 164 148 134 127 113 107  62  80  48  51  48  53  43  38  39  52  65  82  62 103 101 123 141 163 152 173 185 186 181 178 170 151 104  54  44  33  20  20  19  34  58  69  57  54  89 113 124 107  87  85  82
 197 194 195 194 191 184 182  80  53  68  78  26   9 109 190 196 205 195 187 173 165 151 141 128 128 108  81  77  80  78  86  81 114 108 135 148 157 159 151 147 156 150 145 134 119  96  69  77  63  51  54  36  41  46  35  42  47  73  76  76  74  78 103 116 133 143 156 173 183 175 175 168 158 115  60  46  40  25  16   5  39  35  43  57  59  75 110 116 109  91  81  81
 197 195 194 194 191 191 184 123  14  63  82  27   7  78 187 198 198 185 159 140 131 105  97 105  85  67  46  50  42  66  69  76  86 109 125 138 147 147 135 136 143 143 130 123 122  96  81  71  68  65  82  77  86  80  89  94  96 106 121 116 101 101 108 116 135 130 160 173 180 183 179 169 160 119  61  55  38  21  25  14  24  32  48  63  82  94 103 105 101  90  84  86
 193 196 196 194 192 185 181 138  58  42  42  29   9  52 188 198 176 173 124 151 127  96  95  81  51  41  40  37  37  39  41  58  64  78  98 114 132 130 120 119 136 139 124 117 109 107  93  86  96  99  98 101 105 109 110 116 113 127 133 127 122 121 119 109 107 104 124 148 172 177 184 167 161 124  77  52  29  28  14  28  39  71  37  94 170 121 104 103  98  94  89  89
 193 194 193 195 192 193 186 137  75  60  69  29  19  62 183 173 153 118 118  93  79  83  62  50  41  28  33  35  44  37  45  46  62  73  89 100 115 112 122 134 141 133 125 116 116 109 105 104 110 111 107  62  77  82  80  55  43  54  93 109 116 126 130 129 134 124 143 162 168 174 175 171 163 134  81  49  29  42  30  38  46  61  64 120 165 174 104 101  97  94  92  92
 194 194 194 195 192 195 183 145  88  74  64  29  20  53 186 170 123  99  69  56  47  40  67  87  90  87  95  99  87  70  68  66  61  70  71  78  90 106 145 166 176 162 144 121 117 115 111 111 114 101  62 109  67  56  27  48  27  24  16  39  61  99 130 136 137 134 147 161 169 178 173 173 169 134  87  57  61  53  33  37  81  72 119  90  96 162 105  97  97  95  91  91
 191 193 194 195 195 191 179 164 103  82  44  55  23  43 177 162 113  88  61  64  73  84  97  99  96  80  60  14   4   8  24  49  55  65  75  70  80 123 161 195 196 182 160 137 128 120 111 110  90  92  87  58 118 134  26  62   2  67  40  23  27  56  84 133 154 154 153 163 169 173 170 169 167 142  86  52  52  38  63 113 130 102 137 145  87 154 104  94  96  94  89  85
 194 192 194 195 195 192 186 179 119 107  78  58  47  42 159 147 114  90  72  76  80  87  80  25  26  20  11  73  27  87   3  25  55  56  75  81  82 131 182 204 205 194 165 139 146 135 110 105 110  80  61  99 140 155 103  56  52  42  39  97  85  70  68  77 123 141 152 156 156 174 170 175 166 153  93  66  51  57  87 147 141 110 145 169 130 160 128  94  95  92  87  80
 190 190 194 196 193 191 183 174 157 131 102 126  63  52 168 161 132 116 106  95  82  50   9  42  88  60  40  37  18  45  20  64  24  61  86  96 112 133 188 211 209 197 170 147 161 144 143 130  56  89 100 109 129 125 113 112 128 133 145 142 137 141 123 115 118 125 135 143 159 164 171 174 171 162 107  64  49  56 109 158 152 144 147 169 169 120 180  92  95  89  84  81
 192 190 194 194 193 191 182 172 156 151 159  88 102  85 159 168 128 120 118 103  50  21  45  68  91 104  63  84  87 101 105  87  65  63  84 116 133 158 200 213 209 200 177 158 165 161 150 134 143 142 111 119 114 126 124 129 124 127 130 139 148 156 162 163 158 147 160 165 167 174 177 179 170 171 129  82  67  46 133 157 169 171 166 165 178 134 170  94  89  84  83  82
 188 192 193 193 191 186 180 170 159 140 153  85  78  57 169 170 137 130 134 101  57  71  97 107  96  88  94 107 110 107 110  86 113 116 112 129 144 180 205 217 213 202 184 168 164 171 161 141 118 117 122 111 119 126 131 133 130 133 130 141 153 161 171 167 173 171 167 168 175 177 181 179 181 173 163  99  65  69 125 162 166 178 159 154 171 174 160 101  86  82  83  78
 189 190 192 190 188 183 177 166 154 137 189 125  92  83 171 167 136 131 103  71  90 114 119 108 120 116 114 114 116 115  93 103  97  94 104 146 154 198 217 217 215 208 190 168 166 173 173 165 144 136 118 112 109 110 112 114 113 117 117 132 149 163 166 181 179 171 176 177 175 180 184 185 177 180 168 101  79  72 143 105  99 132 142 143 146 180 176 138  82  79  79  73
 187 189 190 188 184 179 172 163 150 141 165 162 112  81 181 179 153 137 113 118 143 142 123 113 106 102 105 105  96  96  97  97 110 121 144 152 174 207 221 218 212 210 197 173 167 173 174 175 173 165 153 149 140 138 135 134 136 141 149 162 166 171 171 173 173 173 178 178 177 177 180 177 182 174 173 112  63  55 161  99  63 108 133 125 139 166 186 148  82  79  76  73
 186 189 188 185 181 177 168 158 148 151 150 189 137  71 181 187 159 149 139 148 149 138 133 122 116 111 105 107 106 102 114 122 133 147 151 156 190 216 222 221 214 207 193 182 175 177 175 175 182 184 178 169 166 160 159 158 162 164 163 168 170 174 177 182 185 181 180 176 178 186 177 175 177 176 175 125  66  77 159 175  68 103 124 121 124 154 180 157  79  78  73  71
 185 185 184 181 178 172 165 155 139 156 172 186 141  90 189 187 169 166 161 163 142 148 144 140 127 113 109 115 116 123 140 152 158 154 162 171 194 214 223 220 216 203 195 185 181 177 177 180 184 188 189 184 182 178 175 173 175 173 175 179 181 183 180 183 190 190 187 185 180 182 179 175 175 172 169 127  92  77 149 186 155 105 120 113 121 155 189 163  76  71  68  66
 186 182 182 178 176 171 164 153 141 141 193 161 111  94 195 192 182 175 166 151 168 163 158 151 142 137 138 138 146 157 167 172 166 169 165 181 199 217 225 220 217 209 202 187 185 178 181 183 186 184 185 192 190 191 190 186 185 185 183 182 181 183 184 183 182 183 185 189 180 178 179 176 176 173 168 136  84 109 140 181 154  99 110 102 125 161 191 161  70  65  64  65
 183 180 180 176 172 167 159 149 137 139 194 142 114  80 196 190 185 181 173 178 171 162 163 163 163 165 163 170 177 181 180 178 173 178 171 192 218 225 221 214 217 216 210 189 185 182 182 181 184 187 189 187 191 196 194 194 192 187 185 181 176 182 181 181 182 186 184 179 177 174 175 174 175 171 167 135 102 112 153 186 162 112 102 105 136 178 192 161  64  64  64  64
 182 179 178 176 170 165 157 145 137 140 171 133 108  85 195 187 179 171 183 176 165 154 169 174 176 181 184 181 186 187 185 185 183 177 174 205 216 226 223 219 219 212 210 196 184 179 179 178 186 190 188 189 191 196 195 191 198 187 185 187 186 184 182 181 179 184 171 170 174 174 174 174 169 171 164 127  98 112 149 178 162 132 110 112 160 194 178 131  60  62  62  62
 182 177 177 173 168 165 154 143 133 149 173 143 115  93 186 181 171 178 176 169 163 165 165 165 182 185 189 193 193 190 186 180 180 166 177 210 220 224 221 221 218 215 212 205 188 179 174 173 176 186 191 191 190 196 192 199 194 194 189 191 190 185 185 181 176 172 175 175 172 170 173 171 166 169 159 130 107 125 167 173 152 141 129 157 193 180 179 102  57  58  61  60
 179 178 176 171 167 163 153 142 133 155 184 148 121  94 189 178 175 180 178 166 162 166 170 171 179 190 190 196 187 190 192 179 169 160 197 206 220 220 215 208 215 209 206 199 193 189 185 174 173 171 182 188 192 194 196 195 197 191 187 194 191 183 189 180 176 175 170 165 171 172 168 169 171 169 166 133 112 138 157 139 138 181 192 171 167 156 180  73  57  61  60  60
 179 176 174 171 166 161 150 137 129 157 195 155 123 108 177 177 175 178 173 168 167 163 174 178 188 188 186 170 186 187 185 176 162 182 199 202 206 213 206 205 203 193 191 189 187 193 198 184 175 170 170 181 181 199 199 193 196 196 192 186 185 181 180 180 169 172 172 166 171 165 162 164 163 158 154 136 118 154 159 150 173 196 199 172 160 176 155  54  57  61  65  62
 180 176 173 169 163 157 146 133 121 146 200 182 142 120 167 172 170 169 163 160 159 169 170 184 181 185 180 182 190 184 177 165 161 202 174 170 187 199 198 189 187 179 171 171 181 189 198 191 175 171 164 168 176 181 187 194 196 193 195 190 188 182 176 173 175 159 163 162 164 164 162 162 160 163 154 137 136 145 164 196 188 185 198 192 192 186  99  55  55  57  65  62
 178 174 171 167 160 152 141 128 122 135 196 203 196 156 166 170 169 160 156 158 161 166 181 178 181 184 184 187 183 179 172 164 172 175 145 150 157 169 168 165 165 154 151 150 154 166 181 182 171 168 171 166 166 168 180 188 184 194 194 191 188 158 178 169 172 167 160 158 155 160 161 158 161 155 146 149 139 141 161 157 168 175 190 199 186 154  62  57  58  57  65  63
 176 172 168 164 157 148 136 124 116 133 186 163 209 195 155 162 169 156 157 159 164 178 178 181 180 170 176 185 182 175 159 161 161 133  88  55 148 139 139 148 146 136  95  12  13  96 137 153 157 162 179 180 163 169 180 182 191 184 184 187 183 179 183 170 169 157 159 162 155 158 158 157 168 149 135 164 133 161 164 151 156 164 173 190 172 101  61  59  64  58  66  64
 174 168 164 163 154 144 132 121 116 110 186 187 202 208 158 160 148 154 142 151 158 171 172 172 178 179 179 176 173 163 162 163 153 120  68  33  39 110 115 118 129  86 103  79  45  79 104 131 154 181 185 181 174 164 176 173 177 189 188 184 189 180 178 172 168 161 160 161 162 155 153 158 157 143 152 158 144 142 169 176 173 171 178 161  97  81  74  64  65  60  65  63
 171 165 162 158 149 138 128 116 112  97 162 209 196 188 144 158 147 145 139 146 150 174 171 179 174 176 178 172 167 159 170 177 171 135  86  82  95 109  82  94 126 128 135 133 137 116 106 140 175 178 193 186 180 173 165 178 180 180 185 184 187 177 173 170 162 161 161 159 157 153 153 157 150 139 149 162 137 146 142 156 169 168 143  87  70  80  82  71  66  62  58  58
 168 162 157 152 142 132 122 111 101  87 111 203 175 155 144 158 145 138 145 144 152 161 169 171 177 178 172 164 156 164 177 188 192 184 134 111 111 114  98  81  97 115 129 126 108 136 127 160 171 181 192 193 190 180 175 175 173 178 179 183 181 174 173 169 163 161 161 159 155 156 158 152 141 149 162 150 143 136 102 121 129 101  52  86  76  73  77  76  70  66  59  61
 164 158 151 144 135 123 112 103  90  84  76 180 151 143 137 154 151 144 141 147 155 159 167 176 177 178 169 164 168 182 189 198 198 167 144  92  98 116 104  88  93 100 105 104 135 132 152 157 175 177 183 197 193 189 181 179 181 180 182 177 178 177 171 174 165 168 155 152 150 144 151 152 144 156 158 147 140 145 147 125  12  13 100 103  84  73  74  77  75  70  68  64
 160 154 145 137 125 114 104  94  82  76  64  89 162 142 140 157 148 150 140 150 143 159 170 175 180 167 167 167 178 189 200 193 177 172 132 131 137  95  74  79  81  76  88 113 130 123 134 139 157 164 162 183 189 195 187 179 182 183 184 177 174 176 173 169 166 155 156 151 144 139 147 158 148 155 150 151 150 146 159 133  12  13 145 130  88  72  69  71  79  75  72  66
 157 151 141 131 118 106  97  87  80  67  58  47  95 133 141 160 140 139 143 143 155 162 173 174 175 174 173 182 191 197 197 182 161 157 144 143 107  90  91  81  68  77  95 128 127 127 130 138 147 161 168 159 184 185 178 175 182 191 188 184 171 170 165 169 159 158 154 155 151 140 143 156 155 160 155 154 143 146 155 148  19  38 152 146 120  80  61  62  73  82  74  68
 153 145 135 124 111  99  88  77  70  60  51  43  37  41 114 163 145 137 146 149 156 166 175 184 177 179 184 187 189 182 180 178 154 136 153 109 144 118  94  80  79  73 102 113 140 122 126 118 133 133 134 134 170 157 167 161 166 179 183 176 166 167 168 159 157 158 159 149 147 139 146 152 151 163 165 151 148 130 154 156  30  61 140 161 143 117  77  56  61  72  73  70
 148 140 129 116 104  92  81  72  63  54  46  37  31  25  54 147 137 153 142 147 151 160 177 177 174 183 177 188 187 176 156 159 149 148 131 143 127 103  83  93  80  89  97 127 117 125 138 138 127 135 127 121 128 153 145 152 171 160 183 177 164 168 163 169 158 157 148 144 130 139 139 134 147 157 158 148 137 135 152 160  41  86 147 159 158 148 125 101  87  85  88  81
 143 134 122 110  98  85  75  68  57  49  41  33  29  21  75 150 146 139 141 142 152 159 172 174 180 181 164 172 159 155 161 140 131 141 143 128 140 135  94 106  81  88 118 140 157 147 147 153 142 143 135 130 131 131 127 148 163 156 178 174 168 167 159 160 157 151 144 150 138 141 142 155 149 152 147 147 139 132 167 161  51 109 153 160 162 155 150 136 124 116 112 102
 139 129 118 107  93  81  71  63  54  44  37  31  27  22  37 138 150 142 128 142 140 149 164 179 179 175 167 141 156 118 144 141 127 152 144 152 143 152 143 142 149 156 144 129 130 140 150 153 148 145 147 131 137 147 116 128 143 138 156 179 172 159 168 162 146 144 143 156 133 145 154 153 155 154 139 145 123 118 168 162  78 137 164 167 159 160 153 145 138 127 117 108
 134 125 113 102  89  77  69  59  51  40  34  28  25  19  45 141 153 145 147 147 125 145 165 178 175 145 143 127 139 135 145 126 128 139 125 113 107 102 103 105 105 103  92  98 112 116 115 123 124 134 141 148 136 140 125 129 150 153 155 163 166 157 161 154 136 146 147 147 144 142 152 134 151 155 145 149 113 134 165 160  78 131 155 164 168 162 156 148 140 130 121 108
 132 121 108  98  85  76  66  57  48  36  29  25  21  17  23 105 134 146 147 135 135 138 155 170 162 151 141 144 145 119 147 121 105 105  91  96  94  81  81  68  83  73  73  82  90  89  96  96  86 101 112 108 126 130 131 124 123 143 135 148 155 159 164 151 147 151 144 153 144 148 151 125 151 147 142 137 133 144 168 154  46  94 168 176 169 165 158 151 143 133 126 116
 126 119 105  95  84  74  64  56  45  34  28  23  20  19  19  53 149 117 134 148 140 141 147 166 153 132 164 133 140 126 103  84  77  70  60  73  72  59  61  60  41  34  40  48  60  71  72  73  78  73  69  71  79 117 120 137 148 131 143 150 136 156 158 153 138 144 159 130 135 154 152 122 159 139 143 119 121 141 169 162  91 192 199 195 180 169 161 152 147 138 130 121
 123 117 103  91  80  73  63  52  44  31  25  20  18  16  14  88 145 131 136 118 131 125 142 147 154 149 117 141 122  97  76  63  48  52  45  56  45  48  55  58  64  69  71  84 104 102 115 127 120 112 102  86  62  80 103 120 136 136 156 166 157 156 156 142 126 143 154 121 136 141 143 142 150 146 125 111 119 143 164 145 186 218 217 208 193 179 167 157 150 142 134 126
 122 113  99  88  78  72  64  54  43  29  25  20  18  16  17  41 140 141 134 119 142 131 144 160 157 118 119 102 107  87  46  49  85 105 113 123 113 119 130 122 118 127 130 140 149 141 157 153 145 149 137 128 148 142 120 126 144 141 149 155 152 160 152 129 130 137 131 130 139 158 151 134 134 136 122  92 121 165 167 168 211 229 227 219 205 194 178 163 155 145 138 128
 119 111  97  86  75  69  61  51  40  25  22  18  17  16  16  46 110 138 112 123 125 116 140 147 141 120 135 118 109 115 118 122 135 144 145 145 161 158 160 166 167 166 162 167 163 154 163 160 153 157 156 155 156 161 149 133 139 134 154 167 148 166 151 138 135 142 138 158 151 163 149 142 137 133 113  97 112 170 169 181 231 235 234 228 215 205 193 176 164 150 143 132
 118 108  93  84  74  66  57  51  38  24  21  19  19  18  16  31  84 134 122 135 125 128 124 155 148 140 138 133 126 144 148 145 146 149 151 149 151 160 157 142 156 157 154 159 152 150 149 158 166 158 156 160 159 164 156 141 144 134 147 162 155 153 153 140 124 146 124 146 155 129 136 142 130 133 114 105 152 161 170 179 237 236 238 233 225 215 201 186 171 156 145 135
 115 103  90  80  72  65  59  50  37  24  22  19  18  17  17  17  41 123 113 134 123 127 128 146 159 124 110 121 142 161 155 153 151 159 155 154 155 150 142 146 151 158 151 152 155 152 154 153 159 149 152 167 156 160 156 153 147 135 149 149 145 146 140 136 137 121 134 130 133 137 133 133 130 104  99 116 161 177 151 153 222 244 242 238 231 222 211 196 182 167 151 140
 114 101  88  77  69  62  55  46  32  22  19  19  16  17  13  20  35  99 126 117 134 117 125 152 144 142 112 131 130 135 150 140 153 151 140 139 132 122 128 129 137 133 123 122 125 130 131 136 159 148 151 152 161 158 152 155 153 138 155 153 142 140 135 130 109 130 123 137 136 140 125 129 115 104  98 139 165 164 119  31  80 247 245 240 236 229 219 205 191 175 155 143
 111  99  85  75  66  61  54  45  30  23  18  19  19  17  17  15  16  47 104 145 126 113 109 139 128 150 113 132 137 137 143 134 150 133 124 147 122 111  92  77  64  63  86  83 114 113 120 150 144 153 142 157 157 160 156 155 154 144 153 140 143 138 134 126 119 123 134 130 129 118 102 110 101  99 112 158 181 132  12  13  30 250 246 243 240 232 224 211 199 182 162 147
 106  94  81  71  63  57  50  41  28  22  18  19  19  18  13  15  12  30 123 119  98 117 125 149 133 149 119 131 130 135 137 138 123 145 121 136  93 106 117  88  82  63  94 122 126 119  97 129 129 155 131 159 160 158 164 165 158 156 152 148 139 142 134 130 123 119 134 131 115 129 116 103  92 100 145 162 133   4   9  14  10 187 251 241 238 237 229 216 204 187 168 150
 103  92  79  68  60  53  49  39  26  23  18  19  19  17  16  13  16   9  47 113 127 105  87 120 129 125 112 124 127 121 130 121 128 119 121 110 117 101  77  84  88  79  92  98  94 107 120 124 141 146 156 160 161 169 168 168 160 153 141 143 134 140 137 104 141 124 134 126 123 116 110 103  85 117 151 113  14   1   7  15  16  17 254 244 242 238 230 220 207 191 171 153
  98  89  75  63  56  49  43  35  24  20  18  18  17  14  15  12   9  12  20  73 113 107 123 103 128 126 132 122 127 123 125 116 132 119 111 109 114  98  96  83  83  75 110 105  98 124 123 142 142 157 158 170 171 166 168 160 162 158 161 137 141 133 143 126 119 115 120 118 105 107  89  76 102 149 106   4   0   3  13  11  16  15  88 182 249 240 232 223 211 193 174 158
  94  84  72  59  52  46  40  33  23  19  19  19  17  15  14  11  11   9   6   8  96 106 112 109 107 121 128 124 130 130 130 130 135 128 125 126 122 116 115 101 102  92 106 103 135 140 140 149 154 163 170 173 175 173 169 165 166 158 153 134 141 142 132 119 130 123 111 107 107  88  82  80 140  57   6   1   4   9  12  14  16  17 124 163 177 240 234 223 215 196 176 159
  92  80  70  57  50  44  37  30  23  19  18  18  17  15  13  11  10   8   8   5  28 107 116 118 118 106 116 122 126 142 145 146 140 136 138 139 137 131 136 116 153 145 132 148 145 165 164 164 161 175 174 173 172 174 163 170 153 143 142 139 143 126 129 129 123 122 112 103  86  83  79 131  22   1   0   2   4   9  13  11   6 121 163 161 158 229 235 234 216 197 177 159
  86  75  64  53  46  39  34  26  21  19  17  15  15  12  11  11   9   9   6   6   0  27  91 108 106 102 120 107 127 141 150 150 156 155 145 147 157 148 141 149 161 159 158 162 167 173 178 179 179 181 181 184 175 173 166 161 159 144 134 143 134 111 123 106 110  98  79  77  64  59 122  28   0   6   5   7   3   7  11  13 120 165 172 169 163 165 237 224 217 201 181 163
  84  73  61  50  42  36  31  24  20  20  17  14  13  12  11  10   8   7   6   5   4   3  31  80 100 118 103 115 121 140 156 154 160 166 154 162 166 170 171 178 173 167 167 166 180 184 179 192 184 180 178 184 169 171 155 144 148 133 130 140 116 115 104  93  97  70  68  67  77 128  21   1   2   1   8   8   5   0   8 120 151 163 158 168 158 144 224 231 218 202 184 169
  78  69  57  48  39  34  26  22  17  17  16  15  12   9   8   7   5   5   6   3   1   1  10  69  98  80  93 124 129 131 151 158 169 175 176 190 182 184 180 167 165 161 159 165 181 167 165 175 182 179 168 167 169 166 150 115 141 114 114 112  83  98  82  77  65  70  75  73 120   4   0   1   4   3   4   5   7   5 109 151 162 158 164 161 167 160 170 228 220 206 191 178
  73  63  53  44  36  30  25  21  19  16  14  11  12   9   7   6   4   6   5   3   3   3  15  30 112 101  94 113 120 128 151 159 167 177 181 176 172 162 161 168 161 155 148 165 167 166 166 171 164 169 152 156 132 154 130 119 128 101 113  91  77  74  65  53  76  83  69  97   1   3   1   1   4   1   4   6   0 105 145 158 159 162 166 166 159 162 146 229 220 208 198 186
  71  58  49  43  33  27  22  18  16  16  14  12  11   9   8   5   6   2   3   4   2   9  22  39  75 108  97  97 122 116 129 166 164 164 173 157 149 173 163 155 147 139 137 143 147 163 159 157 147 138 137 151 124 140 135 110 105  81  91  57  59  44  46  54  79  76  43   6   1   1   0   0   7   0   3   1  89 133 157 157 156 163 158 168 170 159 160 167 223 215 204 193
  67  51  44  38  30  24  19  17  16  15  12  10   9   7   6   6   4   3   3   3   3  18  36  52  70 140  96  86 104 111 128 148 130 135 167 137 143 141 150 126 136 134 132 134 146 141 142 164 146 140 135 142 127 111  98 100  93  81  67  45  46  59  74  80  74  28   1   3   2   2   0   3   4   0   0  88 137 151 149 155 164 160 160 164 168 165 156 153 223 218 212 201
  63  48  41  35  28  23  17  15  16  14  12  10   9   6   5   4   4   4   1   2  11  35  54  69  85 152 119  86  74 102 110 113 115 116 135 131 110 112 124 127 121 124 119 143 113 136 146 135 119 125 135 109  98  83  85  80  63  58  39  54  64  78  60  63   5   0   2   1   1   0   2   1   2   1  98 142 145 150 147 156 149 159 165 166 172 166 168 167 173 225 215 208
  58  45  36  31  24  21  17  14  15  13  11   9   6   5   2   3   2   3   3  11  29  51  72  87  96 152 140  94  78  69  82 101  86  94 102 105  82  81 101 102 100  77  84 114  94 101  83 116 129  95 108  81  85  46  50  37  46  53  51  68  87  74  47   4   0   2   3   0   2   1   0   2   0  99 135 143 151 148 143 149 151 155 162 174 169 175 168 172 163 203 220 215
  58  42  32  26  24  20  15  14  13  11   9   7   6   5   3   1   3   2  15  29  50  70  90 104 112 142 147 128  87  83  79  38  63  75  86  80  77  78  95  94  78  84  70  58  73  96  84  79  76  87  56  50  40  45  40  46  45  65  75  94  83  10   0   0   0   0   1   1   2   1   0   2  99 132 140 158 138 158 150 144 149 161 167 163 169 176 175 174 174 161 220 217
  70  41  30  25  19  17  14  14  10  10   9   5   6   4   3   2   5  19  33  50  72  90 109 121 130 147 153 147 109  70  92  67  53  79  43  56  47  60  64  52  69  60  52  51  68  53  54  49  52  48  26  26  34  53  51  60  66  82  99  71   2   1   0   0   0   0   1   1   0   2   9 117 131 133 159 142 162 157 139 156 158 164 160 165 174 174 182 174 172 167 170 229
  83  52  31  22  16  17  14  11  10   9   7   3   4   3   1   9  22  42  57  73  91 111 128 137 143 155 156 141 138  98  95  82  65  38  38  28  26  47  47  40  42  35  60  34  48  34  44  35  29  33  42  48  53  57  61  64  86  97  42   1   1   1   0   0   0   0   0   0   0   6 111 127 133 150 150 138 149 143 152 150 156 162 162 171 170 175 176 174 173 168 160 190
  98  65  43  24  17  15  14  11  10   9   6   4   5   6  13  28  44  63  79  97 113 129 143 150 153 155 161 153 145 144 100 107  85  53  44  41  30  42  28  39  26  24  33  29  37  33  39  29  40  52  54  57  53  52  66  89 103  25   0   0   0   0   0   0   0   2   4   0  14 114 127 136 139 145 145 157 145 144 138 161 152 163 159 174 165 176 172 176 174 176 153 169
