P2
# Generated by OpenCV 4.2.0
92 112
255
 204 205 205 204 204 206 207 207 206 207 208 209 208 208 210 212 211 208 202 221 148  34  13  25  14  14  14  15  12  13  12   5  11  10  10   6  12  31  15  10   8  23  33  31  29  36  71  64  28  60  66  54  55  56  49  34  21  80 145 155 141 156 175 156 109  46   1  20  29  25  66  93 138 155 167 169 169 166 166 170 169 166 167 170 169 168 168 168 169 169 173 175
 196 195 195 196 196 199 197 198 199 199 198 200 201 202 201 201 201 201 203 134  51  33  23  18  25  21  22  37  21   9  19  32  15   9  12  18  24  24  26  25  14  19  31  35  39  39  43  62  46  36  44  62  56  42  37  67 107 136 141 138 150 156 156 157 163 158 122  55  51  50  50  56  90 141 151 155 160 165 172 174 170 168 168 170 170 170 169 170 170 169 171 175
 182 183 185 186 186 185 187 189 187 187 187 188 188 189 189 189 190 203 141  51  78  20  37  65  31  19  71  70  22  22  22  35  28  31  29  34  27  20  21  26  25  23  24  32  41  38  32  38  45  34  38  51  55  64  94 111  99 100 119 105  96 102 112 113 108 122 166 158  72  56  63  74  49  65 141 137  79  64  81 130 173 174 170 169 169 170 169 168 169 171 172 174
 177 176 175 177 177 175 177 178 178 178 178 178 178 178 180 178 182 155  63  91  50  17  52  49  19  26  47  25  11  21  17  12  15  25  29  23  24  26  34  35  27  26  20  24  31  25  16  14  19  28  43  52  63  80  63  51  50  55  54  59  63  76  98 109 119 103  87 124 150  70  35  64  90  53  60 130  76  37  29  22  72 165 174 169 171 170 169 169 172 171 171 174
 172 172 171 173 172 172 171 172 172 173 172 173 173 173 173 176 171  82  57  44  15  16  12   9  14  11   4   6  11   8   8   9  13  21  24  33  35  32  38  40  44  43  25  15  15  11  11  11  11  18  31  34  40  60  61  36  19  20  26  41  61  69  64  72  87 120 144 115 134 140  34  36  63  88  54  97 128  21  12  23   7  66 172 173 170 169 172 170 169 170 172 173
 169 170 170 170 169 171 171 171 170 171 171 172 170 174 165 150 114  36  21   7  12  11  11  11  12  12  11  13  12  11  11  10  17  27  35  36  45  46  44  37  44  33  13   9   8   9  10   9   9  17  19  23  22  15  35  56  33   8  17  31  40  41  48  52  73  70 116 146 114 134 101  27  41  53  77  57 118  64   0  29  52  17 105 179 170 170 171 171 172 171 172 172
 169 169 169 169 169 170 169 170 170 171 170 172 169 152 136 124  66  13  14  16  15  14  14  13  14  12  11  16  17   9  22  19  15  19  28  43  37  37  37  32  21  11   7  10  10   9   9   9  12  19  19  17  16  16  13  21  45  35   7  15  23  15  23  35  57  58  50  79 104 111 122  59  50  42  42  46  85  94  17  16  71  43  59 163 173 170 171 172 172 171 171 172
 169 169 169 169 169 169 170 171 168 170 170 165 154 143  84  36  23  30  15  16  19  18  12   9  10  11  10  16  21  22  25  25  11  13  16  19  24  24  26  32  16  16  18  13   8   9   9  15  27  36  35  29  34  30  23  19  18  48  39   9  10  12  15  20  38  51  41  38  51  94 114 100  42  34  28  52  73 103  46  29  83  71  55 143 174 171 172 172 172 173 171 171
 172 170 170 171 170 170 169 171 170 172 162 156 157  68  13  30  33  34  39  31  22  14  11  11  10  12  13  14  15  15  13  15  11  11  18  15  15  24  21  11  15  15  24  37  37  37  28  23  25  30  26  17  16  18  22  19  14  29  68  38   8  10   8   6   8  43  49  39  31  66 110  99  38  16  21  41  80 105  61  50  75  91  81 133 170 171 171 171 172 172 172 171
 169 169 170 172 170 171 171 171 170 164 157 165  77  33  44  34  42  38  25  18  17  12  15  10  14  13  14  18  17  22  17  10   8   9   9  12  12  17  22  19  12  16  18  22  25  28  41  52  49  49  38  37  50  32  10   9  15  15  44  66   9  11   9  10   9  39  54  47  49  58 102 110  46   5  12  40  76 105  71  69  78 101 116 136 169 167 171 171 172 173 172 171
 170 170 168 170 171 172 170 169 171 159 166 112  27  37  41  44  38  15   7  10  14  13  14  11  14  12  11  16  14  13  16  17  13  12  10   8   9  11  13  17  19  20  35  46  43  34  31  36  47  60  67  47  52  60  58  14   4  11  24  58  25   8  10   9   7  33  38  31  52  58  94 112  65   7   7  42  88 104  69  54  61 105 116 139 170 170 173 173 172 172 172 173
 170 169 169 171 170 171 170 171 164 154 161  79  29  38  51  41  18   9   9   9  13  15  10  11  14  14  10   8   9  10  10  10  10  10  10  10  10  10   9  11  16  12  15  25  39  45  44  37  38  41  63  53  24  25  40  46  18   5   9  42  44   6  12   8   9  21  30  22  48  61  88 108  99  26  15  59 118  98  68  41  55  97 107 135 160 175 175 173 173 173 173 173
 170 171 170 170 171 170 169 171 162 152 154  70  39  46  30  24  22  16  10  17  13  11  11  13  11  12  19  20  17  12  15  14  15  16  13  11  11  10   9  10   9   9  11  14  13  17  32  41  45  51  51  56  54  17   3  18  46  19   7  25  43   7  10   9   8  25  33  18  52  69 100 106 119  47  31  69 125  91  70  25  51 101  91 129 152 172 170 174 175 173 173 174
 171 170 171 172 172 170 170 174 161 153 101  32  46  39  23  13  13  12  11  14  11  10  16  14  10  18  21  20  18   9  14  22  21  26  26  30  31  27  22  14  12  16  13  13  21  17  12  14  26  43  51  48  55  33  12   6  13  43  10  17  43   9  10  10   8  25  26  20  59  77 100 109 120  64  35  81 104  77  65  28  57  79  86 113 141 176 171 173 174 174 175 173
 171 173 171 173 173 173 172 174 157 114  51  36  46  35  13   9   9   9  10  11  10  10  11  10  11  10   9   8  10  12  13  13  10  11  13  19  17  10  10  11  10  16  15  12  10  12  18  19  15   6  11  25  39  35  12   9   6  26  19  17  40  13  10   9   8  27  18  33  65  74 101 113 124  68  61 110  93  69  58  33  50  62  89 107 128 179 173 173 175 175 175 174
 173 171 171 172 172 173 172 174 133  88  42  40  30  19   9   9   9   9  10  10  11  10   9   9  10  10   9   9  10  12  11  10   9  10  12  13  22  27  17   9  13   9   9  12  17   8   7  14  29  27   6   7  12  19  14   8   9  15  20  25  33  13   9   7  20  34  22  54  64  79 118 121 112  84  95  99  79  63  67  45  32  45  93 136 125 176 175 174 174 175 175 175
 171 172 174 172 172 172 178 144  85  31  12  23  18   9   8  10  12  10  11  19  12  10  10   9   9   9   9   9   9  11  13  19  17  18  14  17  33  57  58  41  12  11  11  10  13  22   7   6  11  31  18  11   9  11  14   8   9  15  18  34  25   9  10  14  21  22  35  59  67 100 122 116 111  94  92  91  68  63  64  35  19  47 104 130 140 171 176 175 175 176 177 176
 173 174 172 171 172 175 169  92  23  15  30  18  15  10  11  10  11  13  14  14  11   9   9   9   9   9   9   9   9  10  11  20  31  27  24  17  15  26  44  73  46  22  13  12  10  19  44  11   8  15  28  14   8  10  10   9   9  14  20  33  15  11  16  20  16  24  49  60  82 112 127 119 107  76  69  59  75  53  61  22  16  54 106 126 151 170 175 175 176 176 177 176
 172 172 173 173 172 181 130  25   6  25  34  21  21  13  11  12  11  11  12  10  11  10   9   8   9   9   9   9   9  10  11  12  17  19  23  24  15   9  10  33  71  70  44  32  26  18  43  59   4  13  10  15  10  14  10   9   9  10  20  18  12  12  16  17  18  38  60  76  92 110 103 109  83  51  44  65  59  53  59  23  29  61  88 121 153 166 170 175 175 176 176 175
 172 173 172 173 172 180  73   0  33  28  23  17  15  10  11  12   9  10   9   9  10  10   9   9   9   9   9   9   9   9  11  12  19  22  27  27  24  22  23  13  16  49  46  51  51  41  27  47  45  29  23  23  19  13  10  11   8  14  13  12  12  15  16  20  36  55  64  80  95 100  93  79  45  41  49  47  35  52  36  23  53  64  86 130 134 162 153 173 174 176 175 175
 174 173 173 174 175 166  30  13  28  17  10  11  11  12  10   9  11  11  10   9   9  10  11  10   9   9  10  10   9  10  11  11  16  22  19  33  37  27  29  35  39  23  28  22  39  51  40  34  61  73  49  28  22  12  11  12  14  15  13  18  11  19  34  39  57  69  71  82  86  77  68  43  42  49  41  39  43  53  26  35  45  64  80 130 110 138 161 176 175 175 176 176
 175 174 174 175 182 146  16  18  17  11  10  11  12  10  10  10  13  13  10  10   9   9  11  18  13   9  10  10   9  10  11  11  14  19  22  36  39  41  34  31  51  41  33  37  28  32  40  49  69  97  69  45  29  19  22  24  26  20  22  21  33  39  53  59  65  76  88  90  78  80  56  45  55  52  52  49  53  44  37  40  36  68  65 100 109 116 161 180 177 175 177 176
 173 174 175 175 181 113   3  12  12  11  12  13  10  11  11  10   9  10   9  10  10   9   9  10  11  11  14  13  12  10  11  11  10  11  11  20  30  32  36  41  38  40  38  39  47  40  36  47  66  84  79  76  56  42  39  37  36  37  36  42  51  56  63  68  78  90 101 113 103  99  89  78  66  66  65  54  41  31  33  29  28  67  68  78  99 116 165 187 174 176 178 176
 174 175 176 169 163  52   3   9  13  18  13  12  12  11  10   9   9  10   9   9   9   9   9   9   8  10  20  12  13  12  10  10  11  12  14  15  19  28  29  30  31  35  42  40  51  59  70  81  83  79  95 110 100  80  74  66  58  59  57  55  64  72  88  99 115 137 159 159 149 146 130 116  93  76  58  49  34  24  21  18  24  40  65  83  94 114 150 181 177 177 176 176
 174 175 175 171 126  15  13   9  14  13  11  12  11  10   9   9   9   9  10  11  11  13  10   9   8  12  11   9  10  11  11  11  11  14  20  25  27  25  25  26  30  44  66  73  82  89 103 108 110 102  95 119 136 128 109 105  94  85  87  90 100 119 139 149 163 181 188 190 192 185 172 162 144 106  79  63  57  25  18  13  12  16  27  82 111  98 130 169 178 176 178 178
 171 173 172 169 136  40  13  10  11  11  10  10  10   9   9  10  12   9  14  12  10   9   9  16  17  15  10   9  10  10  12  11  12  12  14  21  24  30  38  55  73  86  96 105 113 120 117 118 128 127 132 149 155 150 145 147 141 132 131 137 155 164 168 173 181 184 190 190 196 198 193 188 180 161 122 102  73  39  28   7  11   9  18  62  83  90 109 159 178 178 177 176
 172 172 175 175 134  60  19   9  10  10  12  11  12   9   9  14  16  10   9   9  10  11  12  15  11   9  10  10   9  11  13  13  15  16  29  44  55  69  85  93 102 105 111 118 110 111 126 137 147 152 150 158 162 160 163 170 175 171 170 175 181 180 180 183 181 185 188 189 192 194 196 192 187 188 165 127 114  61  32  16  10  10  16  49  58  78  69 123 177 180 177 179
 174 174 176 179 102  27  12   8  10  10  14  11  13   9  10  10   9   9   9  11  13  11   9   9   9  10  10  11  15  17  20  30  36  44  63  80  92 100 107 115 124 124 122 125 123 132 147 154 155 156 154 155 163 169 168 169 176 174 171 178 185 185 183 184 183 186 187 192 192 189 190 192 188 187 185 158 115 100  48  17   8  10  18  37  39  78  58 105 177 180 182 181
 175 177 178 160  48  14  12  12  14  11  12  10  10  10   9   9   9   9   9  10  10   8   9   9  10  12  12  21  33  38  44  53  59  74  95 100 109 113 112 119 122 124 128 132 135 141 146 147 152 157 154 153 157 169 171 169 164 165 176 183 186 183 181 183 183 186 187 189 188 190 187 191 190 186 185 183 137  93  70  19   5  10  29  28  20  69  57 124 182 180 179 179
 174 175 182 108  22  18  13  19  14   9   9  10  11  10  10   9   9   9   9   9   9   9   9  10  13  17  27  48  59  60  68  75  81  98 105 107 111 115 114 120 124 127 127 134 136 140 143 149 153 157 157 158 164 168 171 168 168 175 180 184 184 186 184 185 185 185 188 191 193 195 193 190 190 187 186 184 171 109  91  54  17  21  22  28  31  50  51 109 177 180 181 179
 175 176 179  64  12  19  17  19   8   9   9   9  10  10   9   9   9  10   9  10  10  10  10  14  19  29  48  75  74  70  85  95  98 105 105 110 116 117 120 122 127 126 130 135 139 140 148 154 156 156 160 163 166 169 171 175 176 187 189 186 186 188 191 190 188 189 193 197 197 199 201 195 191 191 186 183 180 147 105  83  44  40  25  25  34  54  61  97 161 182 179 179
 177 178 176  46  15  11  15  11  10   9   9   9   9   9  11   9   9   9  13  10   9  10  11  16  27  43  63  78  76  75  98 103 106 110 111 109 119 123 123 123 125 127 131 136 142 144 145 153 162 160 159 160 164 164 167 172 184 190 188 187 189 188 190 193 191 189 192 192 199 200 204 200 192 193 186 184 183 168 125  90  73  41  36  36  52  52  74  77 139 182 182 180
 178 185 152  24  18  12  13   8   9   8   9  10   8  10  11   9   9  15  22  11   9  10  14  21  29  45  59  74  85  90  93 105 115 119 118 118 122 124 126 127 127 128 132 133 138 142 148 156 162 163 162 165 167 165 165 170 184 186 185 181 181 184 189 189 186 187 188 195 197 198 196 197 198 197 190 187 183 180 155 120 113  94  43  36  39  63 134 157 169 178 181 181
 178 187 133  13  20  15  12   8   9   9   9  11  10   9  10  10  14  23  15  10  10  12  23  27  29  43  50  70  83  91 101 111 118 121 119 121 121 127 127 132 132 131 135 133 137 144 150 158 164 168 169 170 170 170 167 173 183 187 185 184 184 188 191 189 188 190 192 197 201 203 200 202 199 195 192 195 185 181 172 144 128 139  90  44  44  47 124 183 182 181 181 181
 178 185 140  21  22  17  12   8   9   9   9   9  11   9  10  10  20  20  15  13  19  25  34  32  35  45  51  65  72  93 116 116 120 117 119 118 121 123 126 130 132 134 132 135 142 145 146 158 166 173 174 171 174 172 167 172 182 187 184 184 185 185 190 192 192 189 191 196 202 202 201 202 201 201 197 196 186 183 177 153 141 132 116  78  98  98  48 129 176 180 183 180
 179 186 133  19  19  13  10   9   9   9   9  10  11  11   9  10  21  14   9  13  24  34  40  38  38  46  53  64  74  94 108 110 114 122 117 117 117 121 126 129 130 130 135 137 141 142 149 157 158 162 172 173 171 171 169 167 181 185 184 181 181 185 190 194 193 193 196 196 198 201 200 203 204 203 199 199 191 185 182 161 142 123 104  93  93 124  89  76 183 178 181 182
 176 187 132  41  22  16  12   8   9   9   9  10  11  11   9  10  12  10  11  13  29  42  40  45  41  47  58  68  75  91 103 110 113 120 120 113 116 122 125 123 128 133 136 137 139 142 144 156 157 159 161 166 170 169 170 168 180 187 182 176 178 185 189 191 195 194 196 197 198 204 202 205 203 200 201 199 197 192 183 169 136 127  93 100  86 113 112 115 193 183 182 182
 180 188 142  54  29  18  14   9   9   9   9   9  11  10  10  12  12  10  11  13  33  45  47  51  51  60  69  66  75  90 100 108 112 114 116 112 116 123 129 130 133 133 137 146 146 151 153 160 166 166 165 165 171 173 167 168 180 186 175 171 175 182 187 188 191 189 191 192 194 202 203 201 205 205 204 201 199 193 187 172 139 125 115  93  93 121 109 174 186 183 183 182
 179 183 167  75  32  18  13   8   9   9   9  10  11   9   9  12  11   9   8  15  33  49  53  55  61  66  73  70  77  88  97 100 107 113 116 119 120 125 129 132 131 131 139 145 147 153 159 165 169 169 171 169 172 175 173 173 181 184 169 165 170 179 181 183 184 181 185 186 189 192 196 199 202 202 203 203 197 191 190 186 156 122 103  85 104 117 159 190 185 184 184 184
 180 182 183 115  31  11  17   9  12   9   9  10  11  11   9   9  14  12   9  17  37  52  54  61  63  75  79  75  78  87  94  98 104 110 115 117 120 126 120 125 132 133 137 144 150 154 160 167 171 173 175 171 171 171 169 177 184 186 175 171 174 184 185 182 182 183 185 189 195 195 198 199 200 201 199 201 198 192 190 190 168 121 105  88  90 134 190 184 186 184 185 186
 179 181 187 144  41  14  18  10  13  10  10  10  11   9  10   9  13  11  10  19  35  50  52  58  65  74  83  81  79  84  86  94 102 108 116 119 120 126 120 125 128 126 133 141 148 151 158 162 171 172 175 175 175 173 169 177 185 189 183 176 174 181 181 179 181 185 185 187 191 193 199 198 194 201 201 201 198 192 192 190 175 140 113  85  92 144 186 185 185 185 186 185
 181 182 189 142  27  17  16  24  12  10  11  15  11   9   9   9  11  10  14  21  34  44  49  59  68  69  81  83  82  84  86  89 100 107 115 116 121 127 123 127 125 122 132 139 148 152 157 164 169 172 178 178 179 176 171 175 187 185 179 175 174 174 175 180 182 188 191 191 191 194 200 201 198 198 202 200 194 194 190 193 182 119  87  94 101 153 183 184 186 184 185 186
 180 182 185 165  40   9  13  34  12   9  16  14  10   9   9  10  10  12  12  20  37  43  48  59  67  71  73  79  80  81  84  93 101 108 110 113 122 126 126 127 130 132 133 141 151 154 157 162 165 172 177 180 179 178 172 176 191 187 173 174 173 173 181 183 187 188 190 192 192 196 199 202 201 198 199 196 193 195 189 192 187 118  76  89  95 152 188 186 186 185 186 185
 183 182 181 192  96   3  11  31  17  12  21  21  17  12  10  10   8  13  17  30  36  40  51  64  68  76  76  79  80  83  82  90 102 108 109 110 117 125 130 128 130 132 134 137 146 149 155 162 168 173 179 181 180 182 176 178 191 187 169 171 177 177 182 179 183 186 191 193 195 197 201 205 205 199 197 193 191 190 187 193 189 106  78 101 108 160 185 185 186 186 186 185
 184 182 182 188 156  28  14  27  29  16  28  34  23  19  11  12  10  14  26  35  35  38  52  67  75  84  77  79  82  83  83  88 100 101 107 108 117 123 125 129 129 130 133 134 143 149 152 164 170 174 175 185 188 187 184 182 196 190 167 173 183 179 177 179 187 192 193 196 197 199 204 206 205 204 201 192 193 190 186 191 192  99  78 110 138 183 184 185 188 186 186 186
 183 184 184 183 177  74  10  31  28  19  30  40  20  15  11  10  11  17  22  33  28  35  50  62  74  80  78  79  86  85  83  87  96  98 104 108 115 119 120 121 128 130 132 134 138 144 153 161 166 175 177 182 189 187 182 184 198 189 166 174 184 178 170 180 182 184 188 191 192 194 197 196 195 202 199 189 189 191 183 189 194 111  86 111 161 185 187 184 184 187 188 186
 184 184 183 180 189 114   5  34  20  13  30  36  12  13  11   9   8  15  27  33  22  34  48  56  66  75  81  85  85  84  84  88  95  96 102 109 116 118 116 119 127 128 128 130 133 140 149 159 164 170 173 178 181 176 176 185 191 182 168 172 181 172 164 169 171 170 177 185 176 175 180 185 184 182 183 179 170 186 185 185 193 109  63 108 163 178 184 185 184 187 186 187
 182 184 183 185 192 130  16  31  25  15  19  36  19  17  10   9   9  14  29  32  24  31  44  57  68  74  82  86  82  84  86  89  92  95 102 107 110 112 116 117 122 124 124 124 120 123 131 148 151 158 164 166 168 163 164 181 187 174 159 164 176 162 153 155 161 160 162 161 145 155 152 146 134 133 135 128 119 129 151 182 187  96  68 105 149 160 179 186 187 187 189 188
 185 185 184 185 190 134  27  28  29  19  14  29  25  20  11   7  10  12  24  21  24  33  46  57  69  71  79  86  82  82  88  90  90  91  98 105 101  96 104 104 111 108 111 106  99 101 103 110 124 132 147 158 151 149 151 169 175 160 143 151 165 148 129 131 140 129 124 108  97 107 112 107 120 119 117 111 111 106 114 136 179 111  80 102 129 160 188 190 190 189 188 188
 184 185 184 185 189 155  43  29  26  21   9  20  27  20  11  11   9   9  16  19  20  31  38  54  67  71  76  82  82  81  86  85  87  91  95  88  73  77  79  80  85  80  69  67  73  75  69  77  97 110 115 136 142 137 143 159 165 147 133 141 146 133 117 115 118 102  89  76  73  75  76  78  86  90  96 112 119 123 124 123 156 123  93 139 170 185 190 190 189 190 189 189
 185 186 184 183 185 179  59  13  25  15  13  16  22  15  13  11  15  13   9  17  21  29  28  52  67  69  76  76  78  83  85  85  88  89  79  62  55  54  58  59  55  57  60  52  51  55  60  56  61  75  95 114 119 124 134 153 152 132 130 136 134 129 121 109 101  86  79  69  66  60  52  47  51  76  93 104 116 125 129 130 161 128  83 155 190 189 188 190 190 189 188 188
 186 186 184 185 185 193  75   1  32  31  25  32  23   7  13  10  13  19  11  12  19  27  29  52  68  69  73  75  70  77  75  76  78  65  55  45  46  47  52  48  46  56  61  53  44  35  45  45  44  53  74  94  98 117 132 140 130 117 124 133 126 124 122 109  93  85  78  71  69  75  84 103 119 126 124 131 148 145 143 142 163 140  78 148 186 188 187 188 188 189 189 189
 186 187 186 185 186 200 100   5  63  50  34  36  34  17  11  10   9  11  16  15  19  26  36  58  67  65  69  72  67  67  65  59  48  38  31  31  37  43  47  47  45  42  30  30  32  34  39  38  41  50  58  70  90 105 120 125 120 115 122 126 122 111 111 110 102  96  85  77  72  74  82  90  98 104 120 138 154 164 166 162 179 149  94 156 188 189 189 189 189 189 189 189
 186 186 186 186 185 194 123  39  66  46  31  20  37  17  10   9  13  15  15  21  17  27  41  62  70  67  71  70  67  62  42  36  31  32  29  32  35  44  54  57  51  53  49  35  28  29  34  43  47  46  48  54  67  83 108 127 141 152 162 160 134 119 123 126 124 101  78  49  22  21  37  30  46  42  41  71 131 173 182 177 192 163  95 150 187 189 190 191 191 190 189 190
 187 186 186 186 184 186 150  67  42  18  19  17  20  19   9  10   9  13  13  18  17  23  46  61  67  66  74  71  58  46  35  31  27  31  37  46  60  77  73  62  46  39  28  13  14  14  27  23  37  45  43  43  45  66 104 132 156 178 200 209 177 155 146 132 117  95  82  54  40   9  52  84 124 142  46  34  91 169 195 196 205 166  93 161 190 190 190 190 190 190 189 189
 188 189 184 187 188 192 170  65  21   9  18  19  20  22   9  12  10  11  12  17  21  32  56  64  69  66  68  71  60  49  39  32  35  42  56  66  69  51  26   7   3   5  63  44  74  90  53  62  54  43  50  53  48  48  83 124 150 175 199 209 193 171 140 142 109  96 127 102  92  37  51  73 149 170 145 136  83 129 184 196 199 165  87 153 195 188 190 190 191 190 189 188
 186 188 187 187 187 192 156  55  21  24  19  18  20  20  11  12  13  14  15  15  23  40  59  65  70  69  65  70  66  54  47  48  50  56  65  51  13  13  31  35  42  11  42  62 142 186 114  59  99 102  81  77  84  68  59 100 136 169 196 207 208 202 191 149 100 114 137 135 125 131 137 135 156 165 194 203 177 151 158 176 188 158  97 140 192 189 191 190 190 191 192 190
 186 188 189 187 183 191 111  30  28  41  23  16  21  22  14  10  11  11  12  19  26  44  62  65  70  70  72  74  76  76  69  71  78  79  53  23  45  84  95  74  80  69  78 102 163 163 140  99  86 106 114 101 103  90  61  84 123 159 189 197 206 216 201 171 160 149 134 135 139 136 149 156 173 184 204 210 203 199 194 197 199 156  96 162 197 190 191 192 192 191 192 192
 187 187 188 188 185 193  92  17  36  44  31  25  38  28  16  11  10  12  12  24  24  39  58  67  72  74  71  71  75  83  94  89  86  79  71  72  84  98 109 113 107 111 117 129 132 130 137 158 172 147 120 110 111  90  69  86 115 142 174 186 194 216 201 166 145 139 126 126 141 156 163 176 187 190 191 190 180 192 194 197 198 170 101 171 195 191 193 191 190 191 192 192
 187 189 190 188 188 190  86  28  48  37  39  46  44  32  16  17  15  12  13  21  26  43  59  65  72  76  76  77  80  80  81  82  86 111 124 121 122 118 106 103 105 114 119 128 140 141 146 158 151 126 117 120 106  79  72  90 111 134 166 182 184 200 207 183 157 144 128 118 120 129 141 155 164 172 186 192 194 188 192 186 194 185 104 159 196 192 191 191 192 192 192 192
 188 188 188 191 189 192  85  42  55  35  32  36  29  16  16  19  19  12  11  15  27  46  56  65  69  72  75  87  95 105 106 109 116 121 109 100 107 113 116 127 133 141 146 146 146 139 142 146 141 125 125 122  95  74  71  88 107 131 159 177 185 188 199 204 204 188 172 167 148 148 150 157 167 175 188 184 181 193 197 196 187 191 118 158 194 192 192 192 192 193 193 192
 187 188 189 190 189 195 100  57  58  36  30  21  15  12  14  18  21  15   9  13  30  49  58  67  73  77  81  91 102 110 118 126 112 106 123 134 125 103  96 101 108 116 121 122 127 136 144 150 142 123 122 109  81  75  75  83 111 130 153 172 184 190 193 201 211 211 205 194 193 192 187 185 187 182 181 185 186 190 195 198 193 188 146 176 197 193 193 192 192 193 193 192
 187 189 189 188 189 196 111  79  66  36  24  19  15  11  17  21  22  16  10  10  27  53  59  66  75  83  91  99 107 115 117 109 110 129 135 137 134 119 102  96 102 114 115 129 147 155 150 146 136 121 118  97  81  81  79  85 122 138 148 167 183 189 192 203 207 208 206 204 201 201 197 193 192 194 193 188 194 200 197 198 196 189 151 177 195 191 191 192 193 192 193 193
 188 189 189 190 190 196 118  88  88  44  26  17  15  10  26  39  23  16   9   8  23  52  60  65  76  85  87  94 104 110 104 113 127 131 123 134 143 150 145 141 141 145 150 157 163 160 147 139 132 125 115  96  84  82  81  95 122 137 148 162 182 189 190 202 206 203 203 204 203 199 194 192 194 192 190 194 199 202 204 204 194 189 159 172 196 191 191 191 192 192 194 193
 191 189 189 191 190 196 126 101 110  58  27  17  15  14  26  51  27  23   9   8  27  49  60  67  74  79  84  93  98 100 112 128 128 129 139 148 156 159 158 162 162 161 163 164 161 150 143 145 136 129 114  92  81  77  86 104 123 136 146 169 186 193 189 200 209 211 208 205 201 197 193 192 194 192 195 196 200 206 208 205 199 187 172 181 195 191 192 192 195 193 193 192
 168 170 170 172 172 182 120  99 113  68  25  17  17  14  32  55  35  37  18  11  28  55  68  71  73  78  86  93  95 106 125 132 130 135 139 143 148 154 158 162 164 163 163 162 155 151 147 149 149 130  98  76  70  74  89 104 133 138 148 172 187 189 195 197 207 197 194 202 202 200 197 194 193 195 201 202 204 206 208 208 201 185 178 194 194 192 194 193 194 194 195 194
 108 110 111 112 120 129  99  86 110  81  30  15  16  14  36  54  38  39  27  23  41  59  70  73  78  77  83  86  94 113 126 126 125 135 139 142 144 151 157 163 164 161 164 162 159 163 161 158 145 112  85  72  66  76  86 106 133 134 154 176 179 183 196 192 206 202 175 172 185 200 206 202 198 200 204 207 208 210 215 211 199 189 186 195 194 193 193 193 196 195 193 193
  44  44  46  46  47  55  79  72 100 103  63  21  18  14  28  50  34  40  45  35  47  61  69  70  75  78  78  83  98 112 116 120 124 133 138 141 149 156 161 167 165 167 167 167 169 167 156 146 126 103  87  86  83  85  87 110 125 132 150 172 182 193 202 195 195 205 193 156 147 161 180 198 207 204 208 211 212 214 213 208 199 188 186 192 193 193 195 195 195 194 194 192
  34  31  32  32  29  30  69  74  70  99 100  81  67  39  21  43  37  41  47  44  51  63  68  70  70  76  76  88 103 107 108 114 124 132 134 138 149 153 162 163 166 166 166 170 163 150 143 136 104  96 100 102 103  95  95 103 117 132 151 180 177 193 215 212 196 196 197 168 136 126 140 167 190 195 204 211 216 215 206 206 196 185 187 186 186 185 186 187 190 190 189 189
  36  35  34  36  32  30  54  92  87  72  80  92 107  82  28  36  42  40  45  48  51  58  66  67  70  71  74  88  99  95  97 107 117 125 132 135 145 152 159 158 156 164 165 158 143 133 138 109  82  95 103 107 103  97  96 101 116 132 158 191 171 197 226 216 192 199 194 168 145 112 108 136 161 180 190 201 208 210 205 204 196 191 175 135 135 139 145 144 146 150 151 152
  33  35  34  34  34  34  39  79 100 102  88  96 113 107  80  59  43  40  48  48  47  56  59  65  67  71  75  85  88  86  92 103 115 127 129 134 142 148 149 155 156 154 147 136 129 133 118  81  62  77  91  97  97  90  87  90 100 124 158 194 175 189 211 200 191 197 199 187 155 131  93 113 138 160 179 189 194 201 201 197 194 190 168  89  60  67  68  70  73  78  79  82
  34  34  34  34  34  35  30  53  93 104  94  96 109 103  96  69  40  43  44  47  48  54  60  64  67  71  77  84  81  83  91  99 108 118 121 133 139 139 143 145 147 142 130 127 133 132 114  99  46  50  63  63  62  61  69  77  77  95 143 175 168 170 188 185 173 175 200 211 172 160 113  93 120 139 166 183 189 193 195 186 186 186 163  78  32  37  37  36  35  37  37  37
  36  34  34  33  33  33  34  33  75  82  81  82  94  93  81  56  34  41  46  49  51  55  61  66  65  68  78  79  71  76  85  92 104 115 114 123 131 133 141 143 139 128 123 134 138 122 107 115  76  25  19  19  12  10  15  28  56  74 114 156 158 167 182 146 128 170 194 204 201 168 149  96 102 130 153 167 180 186 188 184 181 190 141  59  40  40  39  40  37  38  38  39
  35  34  35  35  34  32  35  32  42  79  77  69  80  89  78  50  31  34  45  48  52  54  61  65  62  69  77  75  66  71  79  87  96 108 110 115 123 131 132 132 128 123 130 136 128 110  97  96 100  84  58  32  13  11  12  11  16  53  85 117 136 160 151 124 140 169 182 191 202 187 162 115  96 123 144 163 173 177 181 180 178 186 135  61  40  39  38  38  37  37  39  39
  34  35  36  33  34  34  33  34  32  38  67  77  70  76  67  49  27  24  43  50  55  51  59  64  66  69  78  75  66  66  72  79  88  94 102 113 119 125 124 117 123 130 130 130 115  97  86  87  90  94  96  81  51  23  15  25  29  39  64  79 126 151 136 148 161 159 171 181 187 198 173 142  96 115 143 163 170 175 179 174 173 185 129  48  38  39  40  39  38  37  37  38
  36  36  35  33  32  34  31  34  35  34  33  54  67  61  53  42  29  30  50  53  52  49  55  64  67  71  80  69  65  66  67  70  68  78  92 106 116 119 121 125 134 130 130 124 103  96  89  77  81  73  78  74  80  65  33  20  26  44  71 103 129 141 147 155 154 146 154 174 174 188 188 172 119 105 141 173 177 172 176 174 176 184 126  47  37  40  38  38  37  39  40  39
  38  36  35  34  34  33  34  35  34  35  34  35  40  50  40  46  52  38  55  52  48  46  52  66  63  73  84  72  62  67  73  66  59  73  92  99 105 118 130 141 130 116 112 110  97  91  89  78  77  74  81  84  78  75  68  37  41  68  78  95 106 132 148 148 150 148 144 161 162 162 179 178 154 110 134 173 180 171 181 178 183 190 117  46  37  38  38  37  38  40  40  39
  37  36  36  35  34  34  35  36  34  35  37  38  36  34  29  42  61  39  60  56  52  54  56  56  61  77  87  74  60  68  80  69  53  72  89 101 116 136 150 131 109 105  99 103  97  85  81  84  82  91  90  81  83  82  94  91  94  94  93 108 110 125 145 141 145 153 151 154 164 154 163 173 170 140 125 176 183 172 187 180 194 184 102  42  37  39  38  37  40  40  38  40
  42  40  40  38  38  36  38  39  40  39  41  39  36  39  40  45  65  44  47  56  55  58  56  57  66  74  87  70  59  79  91  75  49  73  90 104 129 148 136 109  98  91  94  90  78  78  78  77  76  88  91  84 104 109 110 107 109 100 114 105 106 120 151 159 161 170 174 170 163 161 154 148 160 158 138 174 188 178 189 182 194 166  86  44  38  39  39  37  39  39  40  39
  74  75  70  68  65  63  63  64  65  62  62  57  55  57  63  47  61  50  49  56  63  58  51  61  61  74  80  71  72  92 103  80  53  85  96 103 127 136 109  87  92  90  72  62  76  81  86  85  78  88  96 106 122 122 130 129 117 116 134 132 145 172 178 184 189 190 188 185 182 173 166 145 144 153 155 165 187 183 191 176 186 156  82  48  37  41  40  40  39  41  41  39
 129 127 125 120 116 116 115 113 113 110 107 104 103 100  81  33  54  56  45  53  65  54  51  56  63  85  75  72  71  86  98  78  51  92  99 107 126 115  80  93  97  81  67  75  89  94  83  83  94 100 103 110 116 118 130 134 139 139 151 162 155 151 159 170 176 180 172 173 180 190 174 142 146 161 165 160 183 193 187 174 180 155  73  39  40  40  40  39  40  42  42  40
 176 176 173 169 165 164 164 162 159 159 158 157 155 153 139 118  94  62  42  57  54  48  48  60  61  79  75  67  70  90  92  80  48  86  89 106 127 105  81 111  95  77  75  74  77  85  76  70  78  81  90  97  94  98  96  94  96  98 106 103  99 111 119 123 130 132 133 134 141 164 168 153 138 161 172 169 181 191 179 165 171 165  78  37  40  41  44  45  46  46  46  45
 199 200 197 194 194 196 194 193 193 192 192 191 187 190 190 192 144  62  56  56  49  49  51  60  54  72  70  66  75  94 103  87  52  75  81 106 124 106 106  98  92  82  69  63  56  45  42  42  44  44  53  67  71  63  73  84  93  86 101 139 144 107 153 148 154 174 105  28  32  83 145 151 145 152 163 182 182 184 180 162 166 159 102  36  40  46  56  72  82  85  80  76
 200 204 205 208 208 208 208 207 208 207 206 206 204 205 202 197 146  67  57  50  52  50  58  57  53  61  64  68  77  95 102  74  49  68  83 100 131 112 118  96  84  71  58  37  24  19  27  28  53  72  61  96 131 112 130 171 188 167 178 215 234 197 223 227 229 236 147  54  46  70 116 137 155 164 174 195 184 181 169 174 174 166  92  35  39  59  95 127 151 157 155 146
 182 193 201 208 210 210 211 210 209 211 211 210 211 208 198 169 123  76  56  46  53  52  54  54  53  58  63  60  72  86  92  80  51  63  77  94 130 137 131 125 116  90  31   4  12  21  45  47  91 137 121 149 193 171 173 209 223 206 205 227 228 197 215 182 192 209 134 113 129 150 146 142 165 166 177 191 186 171 160 179 160 140  74  36  45  79 144 185 209 215 212 207
 144 167 189 204 205 209 209 208 208 209 210 209 206 198 180 153 118  75  53  44  50  53  60  55  61  52  59  56  62  77 104  88  57  60  76  83 125 154 146 137 141 139  96  61  31   9  35  43  58 104  49  77 108  68  95 133 132 108 119 141 157 115  97  23   8  61 133 135 159 183 176 163 159 159 187 192 187 156 147 169 154 128  65  37  46 100 175 219 239 243 242 239
  98 138 179 199 205 206 208 206 205 208 206 205 195 175 145  96  60  71  61  47  50  57  59  55  60  55  57  55  59  70  99  90  70  60  69  76 115 150 151 147 142 126 124 109  92  44  14   7  10  18  23  31  54  53  51  49  68  94 124 140 160 138  70   3  15  97 146 157 175 205 189 175 158 168 190 196 184 156 149 175 165 131  59  39  50 111 191 233 250 252 251 249
  87 129 174 197 206 205 205 205 205 207 207 197 176 141  99  70  60  75  62  37  47  51  50  53  60  51  43  51  63  71  86  88  79  57  63  77 109 146 159 157 150 131 111 109 102  98  84  67  52  55  65  69  80  95 109 124 133 147 160 152 133 115  79  80 122 155 166 173 187 208 202 188 165 176 195 192 180 165 160 167 137  79  46  39  50 114 194 238 251 252 253 252
 125 155 181 199 204 205 204 205 206 207 205 190 155 109  64  51  53  71  66  39  37  45  47  53  53  45  40  54  58  63  72  86  78  60  63  78 100 142 167 172 157 142 115 103 100  95  97 102 104  94  97 104 104 114 119 120 124 123 127 131 132 137 148 156 171 184 182 185 201 207 208 199 176 179 189 181 176 159 162 155 107  55  39  39  51 113 189 233 249 251 251 250
 166 183 194 200 202 204 205 205 206 209 204 183 138  82  49  58  85  88  66  48  33  35  46  45  47  50  43  49  59  62  80  94  79  70  57  72  85 124 161 175 160 143 127 108 100  96  91  87  85  90  94 102 115 124 139 147 149 155 156 164 169 172 164 165 192 192 186 194 204 207 208 198 182 184 183 176 173 159 167 144  92  63  38  38  51 108 184 228 247 252 251 246
 179 194 199 201 201 202 204 203 205 208 205 179 126  70  48  78 125 116  66  57  35  33  40  43  51  49  46  48  59  54  61  92  85  78  63  66  71 102 145 168 160 142 129 109 104  96  94  93  91  91  92  97 104 110 126 144 149 158 163 162 165 170 169 169 187 189 193 201 199 203 207 198 190 191 174 179 159 156 168 122  63  40  42  43  48 108 185 228 248 252 250 235
 168 187 197 202 202 201 203 202 203 207 201 176 123  64  48  91 146 142  69  62  44  33  30  36  48  46  54  54  43  45  54  78  75  78  71  67  72  87 130 155 161 140 126 115 105  96  95  98  94  97  99 106 109 108 119 134 143 152 153 156 161 167 170 177 190 196 198 202 201 202 209 211 205 183 173 172 143 160 130 100  56  39  43  43  49 110 187 229 248 251 248 221
 147 175 196 203 206 205 205 207 207 208 200 173 124  67  48  88 141 139  75  60  49  32  27  37  46  39  45  49  38  40  45  53  66  77  67  56  52  65 112 152 162 149 124 120 107  90  92 111 103 106 103 111 115 119 120 133 151 159 161 162 163 162 167 174 187 191 192 195 201 209 210 212 207 181 165 166 148 145 113  82  42  40  42  42  51 113 188 229 249 253 246 208
 128 163 193 205 206 206 208 207 207 207 200 175 127  68  45  78 119 129  79  56  51  36  26  32  35  31  38  42  40  38  35  40  56  60  60  60  48  50  89 133 157 159 132 122 116  98  96 103  98 103  99 123 120 121 127 127 123 121 123 135 139 146 153 160 168 178 189 197 200 212 212 204 196 179 162 157 155 133  88  49  40  43  43  44  50 114 189 231 249 253 247 205
 140 167 193 203 205 205 207 207 206 208 203 177 126  68  46  69  96 102  75  58  51  41  28  24  27  35  39  37  40  36  38  40  44  52  74  73  57  53  74 105 143 158 144 124 113  97  98  86  97  89  89 121 112 125 120 140 127 113 126 121 132 138 141 155 164 174 196 204 209 210 211 209 193 177 177 158 122  94  64  41  42  43  43  42  52 114 191 233 250 253 249 214
 171 187 198 205 205 206 206 207 206 208 202 176 124  67  48  69  95  90  75  59  51  47  34  21  21  29  33  33  33  34  37  38  39  52  59  59  53  43  53  95 132 146 151 130 116 108 101  92  92  81  90  99  99 108 102 110 116 136 156 125 128 134 148 159 173 192 206 209 209 210 212 206 176 151 159 154 113  68  42  41  44  44  42  40  48 115 193 233 250 253 251 231
 182 195 201 205 206 205 205 206 206 208 202 174 121  65  47  75 104  97  77  57  45  46  40  28  21  20  26  25  28  32  30  31  40  45  52  51  43  40  50  80 110 135 149 144 132 123 121 107  98  95  93  97 107 114 119 113 120 137 135 129 134 139 160 176 190 203 208 209 212 213 212 201 165 129 135 121  83  45  37  41  43  42  43  42  51 118 193 233 250 252 252 243
 168 187 197 203 206 206 206 205 205 206 200 175 125  67  48  76 101  93  74  58  44  41  42  35  25  22  19  19  23  33  31  29  35  39  44  47  47  41  41  59  85 121 140 146 145 143 139 130 118 116 115 115 116 125 134 140 134 129 124 133 150 159 176 189 195 207 208 212 215 211 201 170 154 151 128 100  66  41  41  41  41  43  42  42  52 119 193 232 250 252 252 248
 145 168 189 201 205 207 207 205 205 208 203 182 138  79  51  65  88  81  67  61  47  44  43  39  30  22  16  15  18  24  26  28  28  34  46  48  50  44  44  49  75 104 125 130 140 145 152 154 139 128 130 137 136 138 137 148 147 146 150 155 178 187 193 200 207 208 207 211 211 210 193 151 118 125 114  76  48  41  41  42  43  43  42  41  54 118 193 233 250 252 250 244
 118 153 184 200 204 207 207 207 208 210 207 192 163 114  72  65  74  67  64  64  51  46  45  42  35  25  17  18  20  22  19  21  25  30  39  45  54  44  30  36  49  75 109 111 125 134 149 159 156 145 140 146 147 144 135 146 166 166 170 176 189 192 196 202 204 206 207 206 212 206 181 141 124 104  81  49  38  41  41  43  42  44  44  44  53 116 192 235 250 252 246 229
 109 147 185 200 203 205 207 206 207 207 207 200 183 149 106  78  73  68  72  70  50  47  44  40  36  31  20  19  17  17  18  20  24  24  34  41  42  38  32  33  46  67  88 103 106 122 143 150 157 158 149 141 141 143 145 157 168 167 168 165 181 176 182 193 196 198 201 196 198 181 150 120 130  89  41  40  41  41  42  42  43  43  43  43  52 116 194 235 249 250 242 209
 125 155 182 196 199 200 201 201 201 200 200 198 190 169 136 106  91  87 101  83  51  47  43  40  38  33  27  19  16  15  15  18  19  23  29  35  37  33  30  30  57  52  68  78  87 118 122 144 156 154 149 140 137 144 152 162 165 175 174 177 179 183 185 190 190 198 196 195 185 158 123 102 100  74  41  38  40  42  43  42  43  43  43  41  54 118 195 236 249 251 241 195
 138 157 171 179 181 184 181 180 183 180 179 183 182 170 152 133 119 121 137  95  52  47  45  44  37  34  31  29  21  16  13  12  14  22  24  28  32  27  29  27  29  35  53  63  82  96 109 127 136 143 134 132 137 139 148 159 175 170 158 170 168 169 175 189 202 196 182 187 172 139 115 109  83  48  43  38  40  43  42  43  43  41  44  41  53 119 194 233 250 253 243 203
 127 138 140 143 145 148 146 143 144 141 142 150 154 151 144 135 130 135 143  89  53  49  47  46  44  39  36  33  27  20  14  16  14  16  22  22  23  27  27  24  21  25  38  58  73  80  87  98 120 126 115 122 123 125 145 157 162 154 151 150 139 158 165 182 190 193 178 169 155 130 104 136  67  40  41  39  41  41  42  42  44  43  44  43  54 117 192 233 249 252 248 222
  89  93  91  92  94  96  93  91  89  88  90  98 104 110 112 110 112 116 106  70  58  54  52  52  50  45  41  39  30  28  23  18  16  16  20  18  22  22  27  23  19  26  35  40  50  60  58  88 103 102  97  99 115 122 129 135 157 140 139 132 128 152 160 173 182 181 177 160 140 112 111 181  73  36  43  42  43  42  43  44  43  43  44  42  56 119 194 233 249 252 251 239
  53  52  54  53  56  58  56  55  55  56  60  63  65  69  74  80  84  86  77  69  62  58  57  62  60  58  48  43  41  34  28  18  14  14  13  12  14  16  24  22  21  23  22  23  26  51  40  71  74  87  79  80 101 105 122 136 142 128 131 125 137 139 139 161 163 164 160 126 113 104 160 193  69  35  41  41  43  43  43  43  44  44  43  42  54 119 193 231 248 252 250 243
  40  40  41  39  40  42  41  47  61  71  74  76  72  70  75  80  85  79  69  70  62  62  61  66  66  66  64  59  54  41  36  31  18  13  13  11  11  15  16  20  16  14  15  12  16  17  26  44  61  66  68  73  73  95 116 126 126 119 126 108 125 125 118 131 142 139 129 100 101 168 194 189  67  36  41  40  44  44  44  44  44  43  42  41  55 121 195 235 249 250 248 240
  47  43  41  37  39  40  43  62  89 107 114 115 108 104 104 119 105  69  66  67  62  64  68  65  68  74  82  76  65  56  49  40  27  16  13  13  12  12  15  17  16  13  13  14  12  10  16  31  54  50  43  64  70  77  74  84  98 110  97  99  84  94 114 111 116 108  88 103 163 202 204 186  58  35  40  42  43  45  43  43  45  45  45  42  56 124 200 236 249 251 247 229
  69  58  45  39  39  39  53  84 121 142 152 149 141 143 145 109  72  66  66  63  62  67  74  69  71  75  80  83  76  71  66  52  37  23  19  18  15  15  12  12  13  13  17  14  12  10  10  12  21  21  33  40  51  61  66  58  88  84  78  81  81  81  91  85  81  77 108 179 208 202 204 192  58  37  41  44  42  43  43  45  45  45  45  42  56 124 199 237 251 252 244 211
 103  81  54  41  39  40  60 103 144 165 172 171 175  99  45  46  71  71  64  64  63  66  73  78  71  75  81  84  84  80  78  76  59  38  23  18  16  17  15  12  12  12  13  12  12  12  10  11  12  11  20  22  31  49  69  54  62  53  53  59  60  70  67  83 103 142 187 201 207 200 202 191  60  38  44  43  44  44  44  43  45  45  46  43  60 126 200 237 250 254 243 196
 133 111  72  48  40  43  62 108 148 168 176 190 155  18   0  52  81  80  71  64  63  67  72  75  77  75  81  81  81  87  86  85  85  70  44  27  18  16  16  15  13  13  11  10  12  13  13  11  13  16  16  17  21  26  29  37  46  41  39  49  64  95 120 154 171 190 201 206 208 205 206 191  60  38  43  42  44  44  44  44  43  47  47  43  60 129 201 239 253 253 242 191
 157 139  99  63  44  44  60 102 140 167 178 154  38   1   6  25  77  91  82  68  64  69  76  75  80  81  77  82  86  87  91  91  94  91  71  48  26  14  15  16  14  15  15  14  12  11  12  11  12  13  13  18  19  22  19  28  35  55  75 104 140 173 181 185 190 192 204 206 207 204 203 188  58  41  43  43  44  43  44  45  44  44  44  43  60 128 201 238 251 253 240 191
