P2
# Generated by OpenCV 4.2.0
92 112
255
 153 158 162 167 172 173 180 187 193 207 194 139 127 122 102 131 133 107 103 147 158 137 127 117  78  49  34  24  20  55  86  87  62  53  42  47  71  51  40  17  26  26  21  39  80  96  62  74 120 131 160 163 125  87  69 105 136 120 104 124  78  72  83  77  61  84 136 181 172 170 169 170 170 172 172 174 178 179 179 182 182 182 184 185 187 189 189 191 191 190 191 193
 157 163 168 174 178 182 189 194 207 170 104  89  80  71  85  76  68  85  92 107 128 116  85  69  74  51  45  55  62  45  61  81  99  86  79  41  29  52  46  50  42  31  21  42  57 107  75  59  67  96 119 131 137 124 110 112 118 112 111 104 101  99  81  55  60  72  91 139 178 174 171 172 171 173 175 177 179 179 181 183 184 185 187 188 189 191 191 192 193 193 194 196
 165 171 179 185 189 192 197 199 171 109  99  86  91  93  94 105  94  99 114 101  93  68  77  87  78  47  34  67 102 100  62  57  75  98 102  87  37  26  53  56  60  42  23  36  68  79 110  50  50  45  66  77  97 125 144 117 104 104 126 119 104  99 109 113 116 104 102  89 128 167 173 172 173 175 178 178 179 181 183 184 186 189 189 190 192 193 194 194 195 195 197 199
 174 180 188 193 195 199 199 192 116  70  63  68  74  84  91  92 108 117 122 118 108  86  67  74  76  80  72  44  28  78 123  91  64  82 102  88  94  37  33  56  44  57  28  38  71  82 124  96  34  47  39  47  55  79 118 126 130 137 115  85  62  55  63  84 110 128 145 140 116 119 174 177 175 177 179 181 180 180 185 186 188 189 190 191 193 195 196 197 197 198 199 201
 184 191 195 201 206 213 196 154  64  39  55  63  58  70  77  70  77  62  61  89  96  87  81  58  55  63  81  80  55  33  91 119  85  73  83  93  85  83  36  42  53  55  38  44  68  88 107 149  74  39  48  40  41  45  69  97 115 118  93  64  41  16  23  52  52  73  97 109 118  96 122 180 177 180 179 181 180 183 185 186 188 189 191 191 194 197 198 199 201 201 202 203
 192 198 203 203 206 189 144  64  30  55  64  58  62  70  68  47  69  86  76  55  60  82 114  97  65  58  62  71  55  45  39  92 104  67  68  73  87  67  71  35  49  58  28  50  70  92  88 160 127  67  41  49  35  36  39  60  86  92 118 101  37  28  27  66  83  45  64  76  90  84  64 115 176 180 184 181 183 184 186 187 188 190 191 191 194 198 200 202 204 204 204 204
 199 205 204 154 122 121 105  52  53  67  83 112 124 113 112 105  63  76 105 113  99  78  88 109 115  97  45  37  43  35  34  43  91  85  65  62  65  68  67  53  46  58  24  47  62  95  83 132 154 101  58  55  47  27  38  36  56  67  68 113 112  51  39  81 108  77  75  95  97  82  74  47 106 173 174 185 185 186 187 188 189 190 192 192 195 200 203 205 206 206 206 206
 205 203 159 129  87 104  98  56  42  59  84  90 117 100 113 132 106  66  50  52  87 114  82  47  50  94  99  59  46  56  27  31  54  96  72  64  50  64  60  66  54  41  22  52  62  95  81 111 165 114  77  63  63  35  24  41  33  53  60  62 112 108  75  99 106 102 126 150 146 124 112 101  82 152 182 174 186 188 188 189 191 192 193 194 198 202 205 207 208 209 208 208
 212 197 146 144  93 103  97  59  69  89  70  38  85 107  79  88  93  79  58  50  42  64  94  99  79  44  62 105  76  51  54  21  26  66  93  72  54  44  53  45  61  37  28  56  65  89  82 104 158 125  92  77  64  50  35  27  39  34  44  50  55  96 124 112 130 139 143 136 140 141 126 124 131 140 174 180 182 191 189 191 192 193 194 197 199 203 206 208 209 209 209 209
 214 216 159 132 108 116 103  93  74  42  26  39  40  91  89  57  77  94  81  42  54  65  62  77  85  76  58  63  92  63  48  49  18  31  75  94  64  40  40  30  50  54  26  48  77  85  67 100 156 132 100  85  65  53  56  27  35  28  40  42  38  62  95 129 137 140 145 148 126 111 105  96 101 110 104 146 156 184 193 192 193 194 196 197 200 205 207 208 209 211 211 211
 229 199 155 106 121 101  78  61  72  57  52  57  54  63 100  68  43  64  82  76  41  61  80  72  82  72  66  59  45  76  83  68  54  28  38  79  76  39  41  31  32  56  38  39  78  75  59  94 140 128 101  93  65  58  55  45  27  25  30  36  24  49  64 102  99  83  74  90  75  72  83  76  66  79  89 101 140 168 195 193 193 196 197 199 202 206 208 210 211 211 212 212
 214 148  73 120 119  76  84  89  91 100 107 107  88  62  74  95  51  40  61  72  75  37  42  64  72  80  78  72  65  60  76  81  71  47  29  42  76  66  36  38  28  49  53  49  71  55  55  80 126 126  95  97  76  62  57  54  30  23  23  30  25  34  53  75 102  66  55  51  58  38  38  42  53  31  58  59  97 167 182 195 195 197 198 200 203 207 209 210 211 211 211 212
 171 101 116 146  90  88  87  86  87  87  77  68  75  84  64  76  76  44  42  60  68  67  35  26  38  56  74  81  59  56  64  78  81  64  39  36  45  79  56  36  36  33  54  54  66  43  56  71 111 127 102  94  83  72  62  50  38  24  18  27  24  21  52  60  92  80  45  53  57  25  24  28  35  39  44  55  58 141 181 192 197 198 200 201 204 208 210 210 211 212 213 212
 104  98 147 113 103 116 100  82  74  65  54  56  52  36  15  12  56  59  39  30  53  65  57  34  20  23  36  71  71  58  57  61  60  64  54  40  49  49  83  47  32  27  50  51  59  48  61  65 108 120 100  95  92  75  58  48  45  27  15  24  21  18  39  53  77  82  42  38  57  35  25  26  34  33  25  29  50 108 171 187 198 199 201 202 204 208 210 210 211 212 212 212
 113 129 105  98 103  97  94 101 102  95  99  83  69  62  51  33  47  61  56  40  31  41  57  54  40  32  26  32  53  72  54  51  48  48  68  45  41  49  57  75  49  25  38  54  42  52  58  64 103 116  98  93  89  72  58  53  51  31  19  22  23  23  36  45  69  90  49  46  29  19  14  18  23  23  22  29  61  76 160 181 199 200 201 201 205 209 210 211 211 211 211 212
 180  87  57  70  77 100  99  90  85  85  93  99  81  72  54  45  40  50  44  48  54  29  38  54  41  47  49  26  24  42  67  50  49  43  48  68  40  35  38  58  70  47  30  56  49  54  55  62  98 110  98  88  85  76  60  51  53  30  29  29  22  31  48  47  69  85  65  33  16  26  24  20  21  24  24  28  52  73 171 189 179 203 204 204 205 207 210 212 212 212 213 213
 165  48  83 118 108  95 104 111 118 112 100  89  79  72  64  54  53  49  60  39  39  51  40  45  54  30  38  50  41  24  32  55  44  40  42  49  65  38  34  40  53  60  44  50  53  56  57  63 101 104 100  95  92  74  58  62  53  35  39  28  30  46  49  50  67  74  59  36  35  31  39  31  21  23  25  50  45 108 197 205 168 181 195 208 205 208 210 211 213 214 215 215
 137  98  90 101 107 117 114  90 102 110 112 115 112  85  66  57  48  39  35  47  41  43  24  27  38  47  26  26  46  46  29  27  54  43  45  40  54  66  37  35  48  53  58  62  61  60  58  72 101 106  94  94  95  70  69  64  51  44  38  39  58  58  51  63  76  65  50  51  49  48  36  43  36  28  36  59  81 127 173 155 137 164 125 201 209 208 211 213 215 216 216 216
  74  76  77  70  73  76  85 109 101 104 102 100 113 110 102  86  73  65  55  52  49  58  37  20  20  31  44  35  23  36  40  30  34  59  42  46  41  58  60  46  45  52  47  67  70  61  63  76 100 104  93 101  90  71  78  64  58  54  59  70  73  67  73  74  66  62  60  44  42  63  51  42  67  71  78  85 112 124 117  94  70 148 135 145 213 209 211 214 216 217 218 218
  96  69  88  80  66  63  52  55  82  91 100  99 104  94  92  97  82  63  54  41  38  47  64  51  33  25  33  46  38  30  39  42  36  51  56  37  42  45  61  56  46  53  55  65  73  69  68  87 105 101  97 108  88  86  77  74  74  81  90  84  83  91  95  90  82  77  71  75  72  79  86  65  88  97 104  90  89  97  99 102  97 100 105 139 217 212 212 215 216 218 219 219
 155 131  93  68  60  59  70  75  53  66  76  80  91  98  89  84  94  88  74  59  57  47  43  45  42  37  32  36  49  46  46  47  47  49  60  52  40  50  50  65  56  54  63  66  73  71  84 104 106 102 115 116 114 110 101 109 106 104 103 106 107 109 114 116 105  99  96  88  81  68  63  82  90  90  95  70  65  61  66  76 112 117 157 207 212 211 212 214 216 218 219 219
 138 164 135  93  75  87  80  77  75  64  51  46  50  68  68  71  76  82  89  96  92  87  70  55  51  48  41  34  40  51  58  72  67  65  71  59  56  61  63  62  78  74  71  84  88  91 104 117 119 129 133 145 156 153 148 146 142 136 136 143 132 131 150 163 155 129 112 114  96  85  80  95  95  82  71  50  37  60  99 104 105 132 173 199 211 210 213 214 216 218 219 219
  68 111 143 141 113  84  83  65  73  85  71  72  61  60  60  54  55  64  65  65  72  83  83  79  69  64  55  46  42  43  52  62  76  91  91  81  74  79  81  78  94  97  99 109 116 110 126 150 155 158 167 179 176 177 176 172 167 169 165 159 164 169 174 181 177 161 118 106 116  83  94  86  74  80  81  77  87  93  87 101 130 132 137 193 212 212 212 214 216 217 218 218
 179  95  88 103 128 126  90  64  57  68  73  82  78  70  70  72  57  54  60  61  62  64  73  75  69  63  57  55  53  52  57  71  90 108 117 115 108 107 104  98 116 121 123 128 136 149 161 166 178 181 187 186 185 185 189 187 183 184 185 183 187 190 189 185 187 180 153 107 102 106  72  63  76  79 109  92 104  79  59  87 107 115 114 186 211 212 212 215 216 216 216 216
 135 117  87  72  67  83  98 107  98  87  91  81  77  78  79  81  87  79  75  78  78  72  64  59  60  61  61  66  73  79  91 105 117 133 137 145 147 146 133 135 136 143 149 157 164 176 182 183 187 192 193 192 189 181 184 190 193 193 193 194 195 200 198 198 202 194 169 128 102  95  84  63  91 123  89  88  85  77  68  77  80  95 111 132 198 210 209 205 211 217 217 217
 181 153  90  70  67  58  59  80  93  95 102  98  94  92  89  86  88  94  92  91  82  68  60  63  65  75  91  99 106 112 123 140 147 142 139 152 172 164 169 171 167 166 176 179 189 198 192 193 194 195 195 195 196 194 191 191 194 197 198 199 197 197 202 207 206 198 183 155 116  93  87  79  83  73  85 101  78  81  97  78  86  90  86  92 160 210 203 199 211 216 215 215
 117  97  95 103  87  81  83  94  91  71  74  85  84  83  84  80  80  82  78  78  78  78  82  89  99 109 123 132 138 139 145 155 161 164 169 174 183 179 183 186 189 190 194 199 201 202 203 201 200 200 202 200 201 198 198 200 199 200 201 194 192 200 205 206 204 197 189 169 138 109  87  83  81  73  94  99  91  84 105 105  75  83  67  99 140 212 215 214 214 216 216 216
  97  83  92  82  80  83  78  89  87  76  76  73  79  79  73  67  70  76  80  87  91  90  98 110 126 141 146 154 159 161 168 175 178 177 180 185 190 191 189 190 195 200 201 200 206 207 205 205 203 205 205 205 205 198 201 204 202 200 201 198 201 207 207 207 208 197 183 172 149 125 103  92  81  80  88 100  89 104 104 125  87  86  95 111 166 211 211 212 214 215 216 216
  35  46  80  76  83  88  84  92  91  84  81  66  64  70  79  83  89  99 102 101 108 113 128 134 144 152 158 167 169 169 183 185 185 185 192 191 195 201 197 195 196 201 204 206 206 206 204 202 204 206 207 207 207 202 203 203 207 204 201 204 205 206 209 208 209 197 183 177 160 142 121 102  91  91  94  87  88 105 115 121 120  97 114 126 201 212 210 211 214 215 216 216
  27  68  69  70 105  88  68  87  93  80  65  69  75  76  84  99 108 111 114 121 129 138 141 147 154 166 172 180 180 188 194 193 190 196 197 194 200 204 204 201 201 201 204 204 207 208 209 207 205 206 207 207 206 205 204 206 207 205 202 204 206 206 208 211 208 198 184 182 172 154 127 114  98  98 100  67  69  95 104 106 122 103 125 121 196 212 210 211 213 213 216 216
  66  79  65  92  82  56  54  85  87  72  65  78  81  80 112 122 123 132 136 141 151 157 159 160 167 172 178 185 193 195 192 196 198 201 200 202 207 207 206 205 207 208 206 205 206 208 209 207 206 205 206 205 204 207 204 205 208 206 203 205 206 206 210 208 204 197 186 183 172 157 137 119  96  96  88  87  64  78 101  98 114 111 101 110 201 211 210 210 212 213 215 215
  73  81  85  70  57  45  71  88  87  78  76  95  75  99 138 137 142 149 155 162 163 165 166 169 175 178 185 196 198 198 200 203 202 203 204 205 205 208 208 206 206 206 205 208 207 204 206 209 207 206 206 205 208 208 208 207 205 207 206 206 201 206 207 202 200 193 182 177 175 166 141 113 103  99  89  88  74  63  96  92  98 115  90 116 204 210 209 210 212 213 215 215
  50  82  38  28  46  52  84  75  82  80  88  93  70 127 150 156 159 164 168 174 177 179 182 188 189 189 194 204 203 203 205 201 202 203 205 205 205 206 206 204 206 206 204 204 204 206 208 208 205 207 208 206 208 211 208 206 206 205 204 207 207 208 206 200 200 195 185 181 176 155 132 128 123 105  94  96  86  71  85  94  78  99 111 189 210 209 210 210 211 213 214 215
  90  66  34  37  43  65  92  76  82  76  87  81  83 141 167 175 173 176 180 186 186 191 197 197 200 199 200 204 206 205 203 203 206 206 205 206 206 205 206 206 203 203 206 207 208 208 210 207 207 208 208 208 209 210 208 205 204 208 208 206 207 207 206 202 198 198 191 185 183 176 166 149 135 108  85  87  98  93  77  98  77  87 117 186 214 210 211 211 212 213 213 214
 100  71  37  48  50  80  90  79  76  67  85  82  98 140 177 189 185 186 192 193 196 202 202 202 203 203 204 204 203 204 205 205 202 205 203 205 204 205 207 205 201 203 204 205 207 204 204 206 209 208 206 207 209 208 210 206 206 209 206 208 206 207 206 203 202 198 191 185 184 185 176 160 135 118  96  66  69  92 104 100  93  77 116 184 217 212 211 211 212 213 213 214
 163 101  40  62  77  89  86  83  72  75  82  90 106 147 178 194 192 196 195 202 205 206 206 206 207 207 205 205 207 209 208 205 206 206 204 205 203 204 205 203 201 204 204 203 206 204 204 205 208 209 208 210 212 209 209 206 208 210 206 207 209 206 207 202 202 199 191 188 189 189 177 166 136 108 110  80  79  98 100 101  99  76 112 199 218 214 213 213 213 214 215 216
 254 136  50  78 101  84  87  82  76  79  85  96 118 149 173 192 196 201 202 207 209 206 207 207 208 205 206 205 208 208 205 206 207 206 206 202 204 204 204 202 203 202 203 202 205 202 203 205 208 207 206 210 211 209 210 211 207 207 208 209 209 207 209 203 197 197 193 189 190 189 176 166 145 113 103  94  88 100  87 101 103  78 110 203 220 216 217 217 216 217 217 217
 255 128  60  85 103  77  82  79  72  79  95 112 131 156 186 200 204 206 207 207 208 206 205 204 206 204 205 205 207 204 204 204 201 198 203 203 203 203 204 203 202 204 203 204 206 204 204 203 206 206 206 208 207 208 210 209 208 210 210 209 209 206 204 202 200 197 198 193 188 188 188 176 147 116  96  99  81  84  71 113  97  87 112 193 224 220 221 220 220 220 220 221
 254 161  48 109  97  82  82  80  86  86 103 126 141 161 187 201 206 206 208 209 206 207 203 203 202 202 203 203 204 202 201 204 205 205 206 207 207 205 199 200 205 203 201 201 202 205 204 204 207 211 211 213 215 215 216 214 214 215 213 214 213 208 204 200 200 200 197 193 186 189 189 179 148 109  95  94  83  74  98  94  96 105  99 186 222 222 222 223 223 223 223 224
 242 220 108 108  85  82  77  85  89  88 121 131 152 161 187 201 205 205 206 208 206 202 202 201 199 204 207 210 210 211 211 211 212 211 210 210 209 210 209 210 210 206 204 206 206 210 213 215 217 217 215 216 216 217 215 215 215 211 209 211 211 205 201 200 199 202 198 192 193 191 189 183 160 113  94  88  95 120 111  82  93 123 100 182 222 222 224 225 225 225 226 226
 233 242 187  90  83  80  72  87  83 107 123 142 160 169 193 201 199 203 207 207 207 201 203 206 209 211 210 213 210 212 214 213 213 213 211 209 209 210 209 210 210 210 211 211 210 211 213 218 216 216 216 216 217 215 214 214 213 212 208 210 207 202 202 202 203 201 196 192 191 188 188 185 173 122  91  95 108 104  73  77  93 121 102 162 223 224 226 225 226 226 227 227
 235 239 214  89  75  89  71  75  98 120 132 151 158 175 196 201 198 205 206 206 207 206 207 207 207 208 212 214 212 215 216 215 215 216 215 213 211 211 210 212 212 210 211 213 214 211 215 217 217 215 216 215 214 212 212 212 211 208 209 208 208 206 205 206 206 202 202 197 193 194 186 186 176 140 106  97 103  87  67  68  98  93 105 190 225 227 228 227 227 227 228 228
 234 235 222 100  74  81  64  78 100 117 129 141 153 180 203 202 201 204 201 206 207 205 207 204 204 211 212 213 215 213 215 213 214 216 216 216 214 214 210 213 213 210 210 214 215 215 215 218 216 212 211 212 213 212 213 212 207 207 208 203 206 207 204 209 211 211 205 200 196 194 190 188 178 157 121 109  96  82  66  75 100  89 107 197 232 227 228 227 228 228 229 229
 232 235 217  99  90  68  68  87  95 100 118 132 150 181 206 206 201 202 201 204 205 207 205 208 210 213 206 211 214 212 215 215 216 216 217 216 213 213 213 214 213 212 210 213 215 215 216 213 213 211 212 213 210 209 206 205 203 204 205 206 204 202 207 209 210 209 205 206 201 196 194 189 179 168 136  95  80  61  64  78  82  98 105 200 234 229 229 229 229 229 230 231
 229 231 220 111  94  72  85  84  87  99 113 122 148 182 201 203 201 201 196 203 206 206 209 211 212 210 205 215 217 218 218 218 219 218 218 216 216 216 215 215 214 211 207 212 212 212 211 209 209 208 205 205 206 205 200 201 201 202 201 203 205 203 204 208 207 205 203 204 202 197 194 191 183 172 137  96  82  71  55  66  78  89 111 212 233 231 231 232 232 233 234 234
 228 230 225 130  86  82  91  69  82  97 105 114 144 181 196 194 198 200 202 202 201 203 209 212 214 217 219 217 217 217 217 217 216 216 217 215 214 211 212 214 210 208 208 210 212 207 204 206 202 203 200 199 198 200 198 193 190 193 193 192 190 185 176 188 198 198 197 193 197 199 197 193 184 180 144  94  86  72  65  77  83  86 150 186 220 237 235 236 236 237 238 238
 224 225 227 166 102  93  81  59  81  89 101 111 139 177 195 197 201 199 206 203 199 203 211 213 213 212 214 211 213 214 212 213 213 212 212 214 209 207 209 209 208 207 205 207 207 197 193 195 194 194 194 191 189 188 189 183 177 171 180 179 168 163 165 148 158 178 187 182 178 186 195 194 187 186 158  97  87  82  73  84  97 109 129 132 202 244 238 239 240 241 242 242
 218 217 220 187  99  92  69  67  95  97 100 107 140 189 196 199 201 200 205 206 205 207 208 208 209 207 207 206 209 207 206 206 210 210 208 205 204 202 200 203 208 204 199 201 198 194 184 182 182 180 179 181 181 169 171 171 163 156 155 162 151 153 138 123 138 146 158 166 164 173 189 197 193 188 169 113  84  84  69  87 133 166 144 120 201 247 243 242 243 244 244 245
 216 214 211 215 145  97  74  67 114 107  95  99 129 174 190 197 201 203 206 205 208 211 209 207 208 207 205 202 200 195 200 203 204 201 201 198 198 191 185 197 201 192 188 185 188 189 177 173 174 169 161 157 141 124 116 113 120 109 107 100  98 107 100 105 114 119 134 151 153 160 177 192 195 192 177 121  88  89  85 140 158 169 186 147 169 239 247 245 245 246 246 246
 213 211 207 213 200 116  90  70 118 120  91  84 102 156 188 201 203 207 206 203 206 214 211 209 202 204 202 198 190 192 193 192 192 187 192 190 187 184 181 190 193 187 178 179 184 185 167 157 157 156 139 110 105  91  78  76  79  69  65  66  78  95  98 107 110 120 136 145 135 134 168 189 191 194 181 127  95  90  96 166 173 177 190 176 136 206 250 246 247 248 248 249
 214 212 210 208 214 146  96  90 100 109  78  68  74 145 188 200 205 209 207 206 212 214 209 211 206 201 197 191 181 184 188 183 176 172 173 179 172 169 172 182 183 179 172 173 180 179 163 152 139 131 104  91  89  75  69  67  65  70  79  95 111 121 136 142 139 138 139 144 142 154 177 183 192 194 187 148  95  83  99 169 188 183 184 191 157 164 245 249 248 248 249 249
 215 213 211 207 214 183  92 116  81 101  79  65  54 126 186 199 204 211 210 209 212 206 205 205 203 192 188 183 181 169 165 148 141 138 130 140 148 142 153 169 176 173 162 165 174 166 158 152 135 115  97  91  87  89  93 102 113 121 132 143 139 141 143 143 150 153 152 163 164 166 179 184 191 194 192 165 107  85  94 164 203 195 176 181 190 170 227 253 250 250 250 250
 216 214 211 209 211 209 116 121  90  90  80  68  50 101 179 202 206 210 213 213 203 202 194 186 182 166 158 160 157 134 109  95  91  97 102 103 118 125 142 160 167 162 143 151 163 159 145 140 133 121 106 104 116 121 113  97  74  70  79  76  74  70  83  79  85 114 143 167 180 178 178 179 187 195 195 180 125  94  95 135 177 176 169 167 184 187 209 254 250 250 250 250
 216 214 212 213 210 216 171 121 112 103  90  74  60  81 165 200 205 211 210 204 196 191 171 154 150 137 132 124 112  96  82  77  73  77  87  95 101 113 130 143 152 143 138 151 160 153 137 130 128 124 121 127 128 110  89  84  64  60  49  31  57  64 100  76  74  83  98 129 152 162 166 174 180 191 197 194 157 104  99 109 126 156 161 156 171 186 202 252 251 250 251 251
 218 216 214 216 212 213 209 134 115 115 103  73  62  71 155 203 206 211 203 191 190 171 158 158 137 124 112  95  80  73  66  63  70  67  75  83  93 101 115 125 132 134 164 181 183 170 152 139 137 132 127 127 116  92  83 140 111  62  72  66  72  87 116 126 147 145 135 129 139 158 172 181 187 192 199 197 181 116  96 104 112 149 156 149 161 183 200 248 252 250 251 251
 219 217 216 217 217 212 205 130 109 102 100  94  66  75 152 201 201 201 188 174 162 151 140 139 115 105  89  77  70  77  91  99  94  91  93  96 102 104 104 106 119 146 181 205 206 196 177 155 149 138 128 129  99  70  94 128 132 104 106 114 128 144 145 154 165 171 174 176 174 174 183 187 191 195 198 201 192 136  89 126 152 144 153 142 153 185 201 244 253 251 251 251
 220 220 218 218 218 215 216 171 135 120  99  93  85  82 144 201 207 193 176 155 131 119 105  97  92  92 104 117 122 117 102  64  58  75  84 100 104 114 114 110 119 156 193 213 215 206 184 157 165 152 145 135 105 124 130 132 137 141 136 145 146 150 151 163 169 175 181 185 187 186 188 188 192 195 196 201 198 160 101 120 205 158 139 137 155 189 203 241 254 251 252 252
 219 220 220 218 218 219 220 214 174 152 119  90  82  93 144 200 206 196 166 146 124 100  92  96 102 119 118  99  74  58  49  69  57 123 106  82  99 114 122 121 132 153 195 214 217 211 193 169 170 170 155 145 153 152 136 136 142 147 149 152 152 149 149 153 164 178 182 190 187 187 191 191 190 192 196 200 201 168 121 114 184 165 131 135 161 195 201 238 254 251 252 253
 221 221 221 220 220 220 223 208 131 138 156 118  87  95 133 196 208 186 152 136 118 105 108 117 119  87  68  43  43  50  40  72  64 134 125  82  72  96 130 141 150 159 195 215 219 214 202 181 173 178 171 160 142 137 132 132 134 135 136 136 136 139 145 162 176 182 182 185 189 194 195 191 191 193 194 199 201 176 116 118 180 171 129 135 172 201 194 238 254 251 252 253
 222 222 222 221 221 221 223 216 129 122 161 149  84  88 120 195 212 190 161 146 136 135 131 114  59  38  81  80  60  80  86  94 108 118 125 132 140 137 130 150 165 171 198 214 221 220 209 192 176 178 180 177 166 159 151 150 147 147 147 150 155 161 174 186 187 188 191 196 198 197 198 196 192 195 195 198 199 181 126 122 183 173 128 152 195 200 190 243 254 251 252 253
 222 222 222 222 220 220 223 218 157 173 172 164  89  84 121 192 214 197 170 152 152 152 141  84  59  98 118 123 121 127 135 135 138 140 132 133 144 132 133 165 168 179 202 219 224 224 216 200 179 178 181 181 186 187 178 174 170 169 174 176 181 186 187 189 190 194 195 199 200 200 197 198 197 192 193 197 201 181 134 144 168 175 190 197 192 177 197 249 253 251 252 253
 222 222 222 222 220 220 224 199 138 194 189 173 103  93 120 191 215 197 176 168 163 152 116  94 117 142 143 139 130 132 137 143 148 142 134 138 133 129 154 174 172 184 212 228 229 223 221 210 191 180 185 181 186 196 197 191 188 187 184 184 191 191 193 193 197 202 199 193 195 195 197 197 195 191 189 194 201 183 140 152 162 171 213 204 176 177 206 251 253 251 252 253
 224 222 222 222 221 220 225 200 157 203 200 208 124  96 122 192 215 197 174 161 153 132 122 145 158 161 152 143 144 141 139 138 134 132 138 137 143 155 172 177 176 190 215 226 227 224 221 212 198 186 186 189 191 196 199 200 199 201 201 197 197 198 200 200 197 201 196 190 194 195 196 191 190 189 189 192 200 187 150 151 168 194 213 210 198 193 217 253 251 251 252 253
 224 222 223 223 222 222 225 206 184 197 180 192 138  97 111 191 216 200 185 172 164 151 159 175 171 162 154 144 141 137 134 137 138 139 148 155 164 173 177 182 180 197 219 227 228 226 224 214 202 195 188 190 193 195 197 199 203 203 205 204 204 205 201 200 198 196 193 188 190 192 190 187 188 185 188 190 199 191 153 151 195 211 201 207 212 197 230 254 251 251 251 251
 225 223 223 224 224 223 224 215 201 187 167 148 112  96 117 194 215 206 197 181 173 177 180 176 167 168 161 159 155 146 143 145 150 155 172 180 181 182 188 185 187 201 217 227 230 226 225 220 208 199 194 191 193 196 198 201 202 203 206 205 205 206 203 199 201 199 194 192 189 185 187 188 188 187 186 187 196 186 161 155 176 185 189 197 202 203 248 251 251 251 251 251
 227 225 225 224 225 224 224 226 209 171 151 143 113  83 123 198 215 208 202 188 185 185 182 174 178 182 181 177 166 160 162 166 173 181 193 193 191 193 195 187 191 204 217 227 231 227 225 226 218 202 195 193 191 195 200 201 205 206 207 207 206 207 207 202 202 200 194 192 186 186 185 183 185 187 179 181 189 185 173 160 160 171 180 183 190 232 253 251 250 250 251 251
 229 227 227 227 227 226 226 231 203 159 142 140 134  99 118 192 213 212 203 194 194 189 183 190 193 192 188 185 188 186 188 191 196 201 204 201 200 197 196 190 193 208 224 229 230 226 225 226 223 209 196 190 185 189 197 203 205 205 207 207 207 205 205 202 203 199 195 193 187 182 186 185 184 183 181 182 187 182 174 164 172 184 185 178 212 254 250 249 250 250 251 251
 230 230 229 229 229 228 227 231 206 168 139 131 148 158 113 180 213 211 201 198 197 191 195 196 192 186 191 198 197 195 199 204 205 208 208 204 205 199 192 187 195 213 224 229 231 227 227 225 222 216 202 194 187 184 185 195 201 203 209 210 208 209 208 204 200 197 192 187 186 183 178 179 180 179 180 182 185 181 176 165 167 177 172 190 246 251 249 249 250 250 251 251
 232 232 231 231 231 230 229 232 215 180 145 130 144 172 116 166 211 209 202 192 191 193 197 192 185 186 194 196 197 200 208 207 208 209 206 205 201 198 187 183 196 217 227 230 231 226 227 226 222 214 208 204 201 189 185 185 192 199 206 208 208 208 207 205 203 200 189 183 181 185 178 174 177 176 180 180 183 176 176 167 145 160 197 243 251 249 249 251 250 250 251 251
 232 232 232 232 231 231 230 233 221 194 158 136 139 172 127 150 209 210 199 190 194 197 196 190 187 186 190 193 199 204 207 208 209 207 205 207 201 193 179 188 207 217 225 230 227 225 219 221 218 208 202 203 210 203 190 186 182 186 195 204 206 205 205 206 204 202 186 185 180 177 173 175 181 178 177 177 180 174 173 175 198 235 250 249 247 248 249 250 249 250 250 250
 233 233 233 232 232 232 232 234 225 208 190 159 139 168 139 137 204 210 198 194 197 197 197 194 190 189 189 192 199 206 210 210 202 204 206 205 200 186 179 202 216 217 220 225 224 218 213 215 207 196 189 193 204 207 192 188 188 180 182 193 200 201 203 202 203 200 194 191 185 177 173 174 176 177 172 174 173 176 177 186 231 250 246 245 246 246 249 249 249 250 250 250
 235 235 235 234 234 234 234 236 230 206 210 209 205 186 146 130 186 211 197 191 192 193 192 188 187 184 190 192 201 207 210 210 201 204 205 202 191 176 186 213 214 203 199 208 217 209 204 201 193 181 184 184 185 189 186 188 195 192 180 186 197 202 202 202 200 200 196 189 183 177 171 171 172 173 175 178 172 171 179 183 232 245 245 245 245 245 246 248 249 250 250 250
 238 238 237 236 236 236 236 237 237 202 179 206 227 199 160 137 177 208 197 190 190 186 183 184 182 184 189 195 204 207 209 209 206 208 203 198 184 179 192 210 197 189 192 189 194 190 184 181 179 160 108  97 130 157 177 194 201 196 192 187 192 196 195 200 199 199 195 188 183 177 170 170 173 174 171 172 178 175 175 178 225 246 245 245 245 245 246 247 249 249 249 249
 240 239 238 238 238 238 238 238 241 221 184 203 219 216 216 175 170 202 196 190 188 181 179 182 182 183 191 197 198 201 205 206 206 203 199 192 177 186 189 187 162 123 119 172 176 170 168 170 160 116  68  88 121 145 179 200 206 202 200 196 187 192 198 197 198 197 195 188 184 178 174 173 166 168 166 163 179 182 184 178 210 245 245 245 245 245 245 247 247 247 248 248
 240 240 240 240 239 238 237 237 240 233 208 221 212 209 210 176 155 196 194 188 185 180 180 176 178 182 190 194 196 201 203 200 203 204 196 182 182 191 182 166 127  76  35  94 160 147 145 150 149 152 163 155 140 159 189 199 207 211 207 202 197 192 194 197 199 197 194 193 187 182 173 170 170 171 167 160 174 179 184 181 217 246 243 245 245 245 245 245 245 245 246 246
 240 240 240 240 239 238 238 238 237 239 224 215 199 189 166 148 163 186 197 186 175 173 176 168 172 176 186 193 194 201 203 203 204 202 190 178 191 198 192 169 130 112 125 139 152 133 118 135 157 160 153 150 159 164 186 199 204 210 211 210 203 197 197 198 198 193 193 190 186 180 172 171 169 169 164 161 165 173 181 175 210 246 243 243 245 245 245 245 245 245 245 245
 240 240 240 239 238 238 238 237 236 236 237 216 180 167 156 153 173 186 190 185 181 175 169 170 167 169 187 192 196 200 199 201 204 199 190 188 197 205 207 197 169 150 158 156 157 144 125 130 141 147 149 153 165 171 180 186 193 200 206 208 207 200 198 201 201 200 193 187 183 177 175 172 173 160 160 165 165 171 179 171 206 246 243 244 244 245 245 245 245 245 245 245
 240 240 240 239 238 238 238 237 237 235 236 236 198 167 159 158 169 178 183 180 180 176 171 172 171 174 180 188 195 198 202 206 199 193 191 200 208 211 212 207 189 177 153 146 155 146 132 123 126 123 140 162 163 163 167 173 184 191 196 203 204 198 197 202 204 201 192 189 186 181 175 168 169 164 152 165 176 176 172 168 204 247 243 243 244 245 245 245 245 245 245 244
 240 240 240 240 238 238 238 237 236 236 234 237 237 209 166 146 162 175 175 182 180 177 172 168 170 174 177 190 196 199 202 202 200 194 198 207 212 214 212 207 194 172 158 153 138 123 122 119 124 128 142 157 162 155 156 159 178 187 187 198 189 186 187 189 197 198 192 187 185 184 173 168 164 168 157 168 174 167 172 167 209 246 243 243 243 244 245 245 245 245 244 243
 241 240 239 239 238 237 237 236 235 235 234 235 235 237 227 215 213 183 176 182 177 173 171 168 167 173 180 191 198 199 200 198 194 196 204 209 214 216 208 198 186 166 171 163 131 117 113 103 112 127 149 161 161 152 159 150 160 162 165 181 175 173 179 183 185 196 194 185 181 180 170 166 162 167 163 170 166 158 171 167 205 245 243 243 242 243 244 244 244 244 244 243
 241 240 239 239 238 236 236 236 235 235 235 235 235 232 231 233 229 192 178 179 175 168 166 171 171 171 181 192 197 199 199 200 200 203 208 210 212 207 196 184 172 173 172 164 149 137 119 110 117 126 137 149 156 144 149 153 157 157 148 155 165 154 165 181 176 193 195 184 181 180 165 165 164 166 169 174 165 153 168 161 208 244 244 243 243 243 243 243 243 243 243 243
 239 238 239 239 239 237 237 236 234 234 233 234 233 231 230 229 228 198 176 174 170 162 169 170 168 172 182 192 198 198 201 203 206 207 206 208 204 197 188 176 167 169 161 158 152 131 122 113 113 124 136 150 153 155 160 154 151 164 153 156 156 139 152 165 165 178 190 181 179 177 165 170 168 163 167 177 167 154 170 160 206 244 243 242 243 242 243 243 242 243 244 245
 238 238 239 239 239 237 237 236 234 234 234 233 232 231 229 227 229 211 180 177 166 165 164 165 164 169 182 193 201 198 197 201 204 201 201 202 198 187 180 166 161 164 152 152 151 134 119 112 111 127 152 159 164 158 162 155 153 156 164 159 154 144 147 156 172 170 176 179 181 174 163 167 172 149 154 165 163 161 155 164 220 248 244 243 243 243 244 244 242 243 244 244
 238 238 239 239 239 237 235 235 235 234 234 233 231 229 227 226 227 219 194 177 172 169 168 168 163 166 174 188 198 197 198 201 201 187 189 178 173 176 174 156 154 157 159 153 157 160 144 152 157 159 158 146 147 148 147 139 144 153 160 152 152 145 146 154 163 169 166 172 174 174 154 160 164 154 158 166 170 163 157 179 232 247 242 243 243 244 245 245 245 245 245 245
 238 238 238 237 237 235 235 235 234 235 234 232 230 229 227 226 226 227 207 172 175 174 175 170 166 173 168 177 193 196 198 203 194 175 173 169 157 162 169 156 153 160 160 152 145 145 143 145 150 136 115 118 128 134 133 129 125 125 131 134 141 151 152 157 158 166 178 178 174 167 150 156 156 164 168 177 172 167 157 198 240 246 244 244 244 244 244 245 245 245 246 246
 238 238 238 236 236 235 234 234 234 235 233 231 231 229 227 226 226 228 207 179 167 169 168 162 159 168 165 175 192 194 199 196 180 168 155 160 153 157 161 151 151 145 147 138 131 126 124 117 126 123 119 122 124 121 115 111 101  97  80  87 121 134 148 157 159 168 176 179 178 166 161 164 156 163 172 170 159 160 162 212 244 246 245 245 245 245 245 246 246 247 248 248
 239 239 238 237 237 237 237 237 238 238 234 232 231 230 228 227 227 228 224 192 163 172 166 148 156 156 167 174 185 190 196 188 172 158 152 156 155 146 151 147 131 127 126 131 134 129 124 124 123 121 104  96  97  97 105 116 124 124 115 123 144 145 153 160 161 167 178 176 176 171 154 161 154 157 159 161 153 148 155 231 250 247 246 246 246 246 246 248 248 249 249 249
 240 240 240 239 239 238 238 238 238 237 236 234 233 231 229 228 229 230 225 195 178 177 172 148 157 154 150 170 175 185 190 183 164 155 165 158 157 145 132 122 114 110 111 118 116 102  87  87  77  76  73 110 136 146 153 151 150 157 159 169 174 169 166 163 164 163 178 179 174 172 157 151 154 155 155 157 150 134 159 247 250 248 249 249 249 250 249 249 249 249 250 250
 242 242 242 242 242 241 240 240 239 238 238 236 234 232 230 230 230 230 227 210 185 174 176 163 152 147 148 168 165 180 182 175 160 153 147 147 145 130 110  85  85  95 100 110 120 110 104 104 108 126 148 163 164 165 149 151 162 173 173 177 182 186 179 171 164 167 177 172 162 169 152 139 154 160 154 147 139 127 171 250 251 249 249 249 249 249 249 250 250 250 250 250
 244 244 243 243 243 243 242 242 241 240 239 237 234 232 231 231 230 230 232 223 181 167 167 166 149 147 153 155 162 179 180 179 164 148 140 135 128 123 100  89 116 131 141 157 165 171 173 169 178 179 179 175 165 155 155 160 174 181 180 186 187 184 181 179 173 172 176 165 157 161 152 143 143 156 153 141 136 142 186 247 252 250 250 250 249 250 250 250 250 250 251 251
 245 245 245 245 245 243 243 243 243 242 241 239 237 235 233 234 233 232 233 227 202 175 152 161 152 150 161 155 165 169 178 181 163 146 150 152 147 142 145 152 151 141 141 139 149 164 169 174 169 172 167 164 167 169 171 178 183 185 184 185 187 185 180 181 176 166 174 168 164 160 147 143 150 157 156 146 122 157 192 243 254 250 252 251 249 251 251 252 251 251 251 251
 247 247 247 247 246 245 245 245 244 243 243 241 238 237 236 236 236 235 234 235 231 185 148 166 157 158 163 161 163 157 171 183 170 158 155 157 160 162 162 169 168 160 154 147 141 145 152 151 147 152 156 166 182 185 183 186 184 189 186 182 186 186 182 183 182 174 176 170 166 168 150 147 152 150 150 128 125 175 189 241 254 251 251 251 251 251 251 251 251 251 251 251
 248 249 249 249 248 247 247 246 245 245 244 243 242 240 239 239 237 237 236 238 229 196 162 157 158 156 162 167 157 160 170 179 181 170 152 158 166 177 178 179 178 173 176 175 174 168 161 162 164 173 180 184 176 166 169 176 182 182 181 175 187 184 183 190 189 180 172 166 160 165 160 154 154 140 126 121 155 183 188 241 254 252 251 251 250 251 251 251 251 251 252 252
 249 249 249 249 249 249 249 249 247 246 246 245 244 244 242 242 239 239 239 238 232 231 190 153 156 163 168 158 151 150 162 177 172 165 158 167 175 176 177 180 180 181 183 181 179 176 169 161 164 168 157 137 131 141 156 164 172 173 177 170 183 185 191 192 189 180 175 166 166 164 157 149 158 135  99 127 175 184 183 221 255 253 251 251 252 251 251 250 250 250 251 251
 250 250 250 250 250 250 250 248 247 248 247 245 244 243 243 243 241 241 240 238 238 237 221 176 156 163 162 151 154 141 161 174 165 171 171 171 179 181 181 183 187 183 181 177 173 170 150 142 139 120 108 113 131 147 145 153 159 171 176 178 182 188 188 187 186 183 182 166 165 161 154 147 143 109 113 155 179 182 189 163 248 255 250 250 250 250 250 250 250 250 250 250
 250 250 250 250 250 250 250 249 248 248 247 245 244 243 243 243 241 241 240 238 237 238 231 205 155 158 167 162 141 133 155 167 164 170 163 166 172 175 180 185 184 177 172 175 174 167 159 148 127 113 121 113 128 134 133 149 160 168 176 182 188 189 191 191 189 179 168 166 167 153 146 130 117 109 136 169 178 182 198 122 147 254 255 251 250 249 249 249 249 249 250 250
 250 250 250 250 250 250 250 249 249 249 247 246 245 245 244 244 242 241 241 239 238 237 240 231 169 144 159 156 137 143 157 159 159 167 161 162 170 176 174 180 174 171 169 167 160 160 154 134 118 125 120 115 135 131 139 155 163 173 177 184 189 191 190 186 186 176 162 164 167 151 138 122 115 125 149 174 179 177 200 135  46 168 240 254 252 250 250 250 250 249 249 250
 250 250 250 250 250 250 250 250 249 249 248 247 245 245 244 244 243 243 243 242 241 241 241 246 217 158 156 155 155 163 160 151 150 159 174 174 175 177 178 176 173 172 170 164 160 157 150 139 133 125 115 109 126 133 153 161 170 173 183 187 194 193 191 187 178 169 165 157 139 131 124 101 125 152 167 174 178 181 198 152  47  91 175 219 250 252 250 250 250 250 250 250
 250 250 250 250 250 250 250 250 249 249 249 248 248 247 246 245 247 247 246 246 246 246 247 249 243 189 146 134 157 159 160 163 150 156 170 173 179 183 179 174 176 173 169 168 166 160 156 150 146 137 134 125 132 147 164 178 182 181 190 195 197 195 191 184 170 162 147 147 134 117 104 107 137 164 169 173 178 184 198 158  46  70 105 179 210 252 252 250 250 250 250 250
 250 250 250 250 250 252 252 252 250 250 250 250 250 250 250 249 249 249 250 249 248 249 249 248 250 207 161 130 136 151 148 152 152 153 162 171 171 179 183 184 180 178 174 173 170 167 166 157 150 152 162 157 156 175 180 187 194 195 192 195 196 191 192 178 159 151 138 141 119 102 109 120 157 166 172 173 178 185 197 157  44  72  61 134 186 213 254 251 250 251 251 251
 252 253 253 253 253 254 254 254 253 252 253 251 252 250 251 250 250 250 250 250 249 249 249 250 252 221 193 162 124 136 143 155 165 148 150 163 158 173 181 184 181 179 181 178 172 173 174 167 164 170 176 168 175 181 189 194 195 200 195 189 186 175 179 172 149 138 130 126  99 109 123 148 163 166 170 174 178 183 193 151  35  67  57  96 188 187 224 254 252 251 251 251
 253 253 253 253 253 254 254 254 253 253 254 253 253 251 251 250 250 250 250 250 249 250 249 249 252 235 192 185 166 131 125 155 151 150 149 159 163 164 175 184 186 182 185 187 186 190 188 190 187 185 185 177 178 181 193 189 181 191 191 184 174 169 156 166 148 133 128 110 122 140 156 160 162 165 171 175 180 182 192 139  38  58  60  76 172 190 185 229 255 250 251 251
 254 254 254 254 254 254 253 253 253 253 253 252 252 250 250 250 249 249 250 250 249 249 249 249 250 245 202 186 182 161 123 133 145 156 151 154 163 161 169 175 181 187 190 195 197 200 199 200 197 188 182 176 172 178 181 185 184 185 174 163 168 171 154 142 139 118  99 111 139 156 163 162 160 169 174 178 178 182 189 106  40  53  61  55 146 191 185 184 233 255 251 251
 254 254 254 254 254 254 254 253 253 253 253 252 251 250 249 250 249 249 249 249 249 249 248 249 249 251 214 185 184 183 156 118 120 141 145 147 148 156 164 169 173 189 194 194 197 197 190 188 181 177 180 170 169 171 176 176 179 180 172 166 163 162 152 125 114 101 111 138 151 158 160 161 160 170 172 178 177 184 173  66  44  49  59  50 132 191 188 177 187 242 255 253
 254 254 254 253 253 253 254 253 252 251 250 250 250 249 249 249 249 249 249 249 250 248 248 248 248 253 223 183 185 182 181 156 126 121 133 138 142 156 154 161 174 183 187 187 185 188 178 181 181 174 166 167 166 167 171 170 167 173 168 158 158 148 132 104  94 114 140 149 154 158 162 165 166 172 173 177 179 185 124  43  47  48  55  44 130 191 187 182 179 194 242 255
 252 252 252 251 251 251 251 251 250 251 250 250 249 249 250 249 248 248 249 249 249 248 248 248 249 248 206 187 187 182 178 171 161 139 110 116 134 140 142 160 172 173 161 170 168 170 166 171 172 167 152 156 162 156 165 157 161 162 156 145 136 127  99 100 114 141 149 156 156 157 161 164 167 170 174 176 182 161  63  39  41  47  48  47 137 189 185 183 184 182 194 238
 250 250 250 250 250 249 250 249 249 249 250 249 249 248 248 248 247 246 247 247 247 247 247 247 249 237 165 182 189 185 181 177 168 165 145 113 110 123 119 142 159 154 148 148 154 152 153 146 145 150 145 140 136 138 154 130 137 134 133 120 109  90 103 137 143 147 155 154 154 158 161 167 168 169 175 178 177  81  29  39  42  47  40  51 153 189 185 182 185 188 190 196
 249 249 249 249 249 249 249 249 248 248 248 248 247 247 247 246 246 246 245 245 245 245 245 246 249 219 129 165 193 182 186 178 172 168 161 152 136 116 111 118 122 133 131 129 137 130 139 117 131 134 124 126 117 114 126 115 116 110 100  88  88 114 140 144 147 151 155 157 156 160 162 168 167 168 172 181 116  37  40  39  42  43  49  79 160 188 186 186 185 187 190 191
 248 248 248 248 248 247 247 247 246 246 246 245 245 245 246 245 245 245 244 245 244 244 244 246 234 210 113 140 197 181 184 178 179 173 169 166 160 155 137 109  88  98 110 112 117 115 113 111 116 117 116 107 104 100 101 104  94  92  94 110 127 147 146 147 150 151 155 160 161 159 162 170 170 169 175 136  42  41  44  41  41  35 121 127 164 189 186 185 187 187 189 190
 244 245 245 245 245 245 245 244 245 244 244 244 243 245 243 242 242 242 240 239 239 238 238 233 208 199 100 103 204 186 181 176 178 175 173 171 163 160 163 148 122  96  84  87  87  94  82  94  97  91  90  90  85  84  88  95 101 115 125 139 147 147 144 150 151 151 155 156 159 158 165 168 169 173 149  56  36  40  37  38  37  51 102 123 180 189 189 187 184 186 189 193
 244 244 243 243 242 242 241 240 239 237 237 237 236 234 233 232 231 231 229 229 228 229 227 212 200 196  98  64 198 189 181 184 183 179 173 168 169 168 170 173 164 142 106  88  91  84  79  83  88  92  81  80  95  97 110 122 125 134 139 140 145 148 148 148 150 154 157 157 160 161 163 158 171 155  65  32  42  38  35  37  37  44  39 129 183 185 186 185 185 189 188 188
 235 235 234 233 231 231 229 228 227 226 226 225 225 226 226 226 226 226 227 227 230 229 211 200 199 197 114  41 157 198 184 185 181 180 176 170 172 171 171 173 175 169 156 146 133 124 125 116 107 109 119 124 128 130 134 141 142 141 140 142 148 152 151 153 154 159 162 163 164 165 157 149 158  78  30  39  38  36  39  38  37  32  48 154 181 182 184 185 187 188 187 188
