P2
# Generated by OpenCV 4.2.0
92 112
255
 209 208 209 208 208 208 209 209 209 209 211 210 211 214 219 220 202 117  34  22  22  23  20  16   7  10  13  11  16  17  12  14  25  37  33  20  33  43  34  39  61  75  79  71  51  51  57  49  33  20  30  23  35  55  52  31  28  38  51  67  64  43 104 200 220 214 214 215 215 216 215 215 215 215 214 214 214 214 214 214 214 214 214 214 214 214 214 214 214 214 214 214
 208 208 208 208 208 209 209 209 209 210 210 212 218 209 191 159  90  45  18   8  16  20  14  17  14  12  16  10  12  12  11  11  13  33  46  28  13  34  43  48  49  69  84  84  92  80  79  87  91  93  75  64  48  47  68  61  32  28  35  48  70  62  48  99 193 215 215 214 215 215 214 215 215 215 215 214 214 214 214 214 214 214 214 214 214 214 214 214 214 214 214 214
 208 208 208 208 209 210 210 209 210 210 211 215 190 110  41  27  19  25  22   9   8  13  14  12  16  11  16  18   9   8   9  13  13  16  31  47  41  29  35  54  53  58  81 104 115 110 110 116 117 127 100  91 106  78  58  89  85  47  39  44  53  61  63  63 104 177 214 217 215 215 215 215 215 215 215 214 214 214 214 214 214 214 214 214 214 214 214 214 214 214 214 214
 208 208 208 208 209 210 210 210 211 212 209 156  54  12   5  11  16  19  16  18  17  14  17  18  16   9  12  26  16  11  11  12  15  20  28  36  60  62  58  59  72  84  93 106 147 139 104 105 130 126 134 120  92  97  89  74 101  97  68  53  59  59  61  64  56  84 158 212 219 216 216 215 215 215 215 214 214 214 214 214 214 214 214 214 214 214 214 214 214 214 214 214
 208 208 208 208 209 209 210 209 210 215 186  85  11   7  11  10  12  17  13  10  14  21  27  34  28  15   6  13  28  20  21  24  20  28  33  30  38  65  71  71  68  83 102 104 126 161 152  97 114 127 132 144 122  74  92 100  74  88  75  59  64  78  51  71  83  61  73 152 216 216 216 216 215 214 215 215 214 214 214 214 214 214 214 214 214 214 214 214 214 214 214 214
 208 208 207 208 209 209 210 210 215 214 145  60  15   7  10  11  10   9  22  23  10  11  25  34  35  38  13   8  19  29  28  30  29  27  34  38  25  44  67  72  66  60  85  84  96 119 150 132  96 117 132 124 129  97  66  76 106  75  53  53  59  66  62  56  96  92  70  71 165 224 217 216 216 214 215 215 214 214 214 214 214 214 214 214 214 214 214 214 214 214 214 214
 208 208 208 208 209 209 211 215 205 149  56  18  26  13  15  11  16  13  13  25  21  14  13  19  28  35  36  14  13  37  38  34  40  38  29  36  20  12  61  89  74  51  54  69  59  80 104 127 119 115 114 116 130 112  74  40  67  93  48  27  40  60  64  62  75  96  88  55  73 196 223 216 215 214 215 215 214 214 214 214 214 214 214 214 214 214 214 214 214 214 214 214
 208 208 209 209 209 211 212 168  88  38  31  21  19  18  19  17  25  34  34  26  25  22  21  22  25  24  33  34  18  40  73  60  50  45  55  50  45   8  16  83  79  50  27  45  61  36  74 101 119 125 125 107 119 141 100  50  18  75  79  32  21  47  54  60  50  71  92  84  45 111 214 219 215 214 215 215 214 214 214 214 214 214 214 214 214 214 214 214 214 214 214 214
 208 208 209 209 209 213 206  92  31  21  29  27  22  21  26  28  29  33  25  24  21  32  22  33  43  29  31  34  37  31  54  81  75  61  55  57  78  62  13  26  70  55  43  22  47  45  41  85 105 123 133 119 108 125 127  83  32  26  80  53  15  26  47  46  38  36  76  97  64  54 131 218 219 214 215 215 214 215 215 214 214 214 214 214 214 214 214 214 214 214 214 214
 208 208 210 209 210 214 196  67  24  29  30  29  23  22  32  30  32  35  25  20  17  19  30  24  42  51  33  42  51  58  39  36  70  99  57  30  51  74  58  13  31  63  57  38  28  49  35  59  73 103 120 116 119 115 125  99  49  17  46  62  25  13  38  46  36  21  54  87  65  50  62 163 222 215 215 215 214 215 214 214 214 214 214 214 214 214 214 214 214 214 214 214
 208 208 209 210 210 218 159  38  21  21  23  27  27  15  16  18  22  32  42  35  24  14  23  35  29  41  49  37  66  78  65  40  25  59  76  26  15  37  59  35   6  45  76  67  25  43  47  46  57  79  89  96 110 103 108 109  65  30  37  59  28  11  23  44  40  23  35  66  71  47  49  88 206 219 215 215 215 215 214 214 214 214 214 214 214 214 214 214 214 214 214 214
 209 209 209 210 214 182  86  27  24  21  20  25  23  32  33  18  17  23  32  40  43  29  18  32  33  38  40  33  41  67  58  55  31  16  42  50  12  16  28  44  15  14  74  84  38  46  58  54  55  60  68  73  93  96  94 100  77  32  33  69  33  17  11  41  48  29  25  40  69  47  47  55 160 222 212 213 217 215 215 214 214 214 214 214 214 214 214 214 214 214 214 214
 209 209 209 209 217 159  48  26  17  20  19  21  23  22  26  33  28  25  32  41  45  35  32  38  42  38  43  30  19  34  34  46  47  18  10  52  31   5   8  24  27   4  42  88  41  37  61  58  40  54  63  62  81  94  87  80  95  48  36  74  48  28  10  39  43  38  25  23  51  41  43  44 104 211 214 215 215 214 215 215 214 214 214 214 214 214 214 214 214 214 214 214
 208 210 209 209 211 156  54  38  18  15  14  12  17  25  24  22  34  42  36  31  53  54  41  37  50  47  51  53  35  19  19  27  47  36   9  18  45  15   6  10  23  10  22  67  44  31  48  47  31  50  67  65  70  76  76  82  93  46  43  63  47  24  12  33  32  37  23  18  53  46  38  47  75 183 216 216 215 216 216 215 214 214 214 214 214 214 214 214 214 214 214 214
 207 208 210 210 179 107  55  52  23  15  16  15  13  15  34  43  32  47  58  51  37  60  63  54  48  49  52  57  61  35  15  18  37  49  16   8  29  35   7  10  23  16   9  52  57  19  28  38  29  40  64  56  64  67  75  84  82  51  52  61  48  17  20  39  32  32  22  21  59  53  39  48  63 166 218 215 215 215 216 216 215 215 215 214 214 214 214 214 214 214 214 214
 204 202 203 206 176  73  68  79  43  18  21  28  33  24  24  38  48  49  58  69  63  46  77  74  64  59  49  56  57  63  39  19  16  43  30  14  16  27  15  12  22  16  13  39  55  17  21  36  28  39  53  55  73  71  73  85  77  59  52  53  50  21  30  44  28  37  30  24  53  54  36  40  67 167 213 212 216 216 216 214 215 215 215 214 214 214 214 214 214 214 214 214
 209 207 205 205 200 134  60  61  57  36  20  27  33  37  35  36  41  49  60  70  74  64  62  82  66  54  55  52  49  54  60  42  14  22  34  29  25  25  26  22  22  18  19  26  46  24  17  32  37  40  48  57  79  72  69  81  77  59  45  49  46  22  36  42  29  39  41  28  48  43  32  28  69 165 211 212 215 216 217 215 215 215 215 214 214 214 214 214 214 214 214 214
 209 209 209 210 212 203 142  62  27  37  32  27  26  30  32  37  45  45  45  62  71  63  62  67  78  54  50  59  47  46  49  59  37  26  30  40  38  28  26  34  30  28  23  19  41  30  22  30  33  38  45  61  81  71  77  73  69  53  40  53  39  30  46  40  35  36  37  34  44  35  30  21  66 142 194 210 218 218 215 215 215 215 214 214 214 214 214 214 214 214 214 214
 209 210 210 203 183 153 111  66  37  27  39  45  35  35  35  37  39  47  50  44  56  59  55  54  61  67  52  41  44  39  42  48  60  53  41  45  62  47  33  44  44  44  36  25  37  33  28  28  32  42  55  69  72  72  78  75  72  49  49  53  38  48  50  41  35  38  38  33  37  30  39  41  48  73 111 151 190 218 219 215 216 214 214 214 214 214 214 214 214 214 214 214
 210 210 208 201 158  80  46  48  46  31  26  33  34  40  38  45  53  42  47  63  60  53  55  57  53  40  50  53  38  36  33  36  48  65  73  62  75  78  52  52  60  64  50  37  41  35  31  31  42  51  68  77  67  77  78  81  68  63  57  49  51  57  56  40  40  41  40  38  49  32  33  52  59  52  59  81  99 143 203 223 216 215 214 214 214 214 215 214 214 214 214 214
 209 209 208 208 153  78  65  41  41  38  26  25  25  28  36  41  46  54  46  49  66  55  47  49  54  49  37  44  55  49  45  38  44  55  78  97  94 107  84  74  83  92  69  53  55  45  40  46  53  61  75  79  89  91  90  81  74  65  53  57  63  59  50  47  51  53  49  45  45  42  43  40  60  63  59  67  73  75 107 180 219 214 212 213 214 214 214 214 214 214 214 214
 209 210 211 212 145  71  63  45  41  39  31  33  28  24  31  46  51  53  56  49  46  56  54  51  55  58  63  60  65  75  84  82  64  64  75 102 127 126 127 119 117 117  97  76  72  61  67  70  70  83  88  92 107 101  88  86  82  72  80  80  76  71  70  68  65  68  61  51  49  57  63  58  61  67  64  64  75  77  66  79 166 220 213 213 215 214 214 214 214 214 214 214
 211 210 212 204 106  39  40  35  36  43  34  33  38  38  42  47  47  55  66  74  69  69  76  83  83  79  78  84  85  88 103 118 115 113 111 119 142 156 168 171 149 133 116 105  95  87  92  94  96 106 116 124 125 113 116 120 116 115 117 108  98  95  92  76  73  83  76  67  63  61  65  71  63  58  60  64  67  66  66  54  75 184 223 213 216 215 215 214 214 214 214 214
 209 210 210 199  92  29  32  29  29  28  34  44  47  42  43  47  60  66  71  88 108 115 119 132 130 126 122 126 144 153 151 149 147 153 151 142 138 147 171 184 180 172 156 141 129 134 131 134 139 136 145 153 150 158 164 166 166 160 152 138 131 120 116 103  94  94  98  88  73  65  56  59  58  50  53  54  55  48  56  55  39  96 211 218 216 215 216 215 214 214 214 214
 208 210 210 212 177  63  17  18  22  35  41  42  41  41  47  63  70  84  95 112 137 154 156 159 159 162 175 174 180 184 183 181 180 176 178 174 163 161 170 178 192 196 189 177 167 169 168 165 167 170 178 183 188 189 184 182 179 177 169 167 163 150 144 139 126 117 116 110  90  68  57  47  44  41  44  43  40  40  37  50  47  40 153 220 212 215 215 215 215 214 214 214
 209 211 208 212 184  88  29  27  34  44  36  29  38  49  65  70  82 110 126 151 162 165 171 176 179 182 187 190 190 190 192 192 191 192 192 194 187 187 190 187 191 196 199 196 194 188 182 185 189 188 188 187 188 188 185 179 177 178 176 173 169 161 156 157 147 133 123 121 105  80  67  57  43  39  42  35  37  37  36  43  44  38  98 214 215 214 215 215 215 214 214 214
 209 210 212 207 146  75  38  36  35  30  28  30  44  63  71  78 113 138 151 166 170 174 179 182 183 184 187 189 189 187 184 186 189 192 193 194 189 190 192 192 194 195 198 200 200 195 194 192 192 190 186 186 184 184 181 176 175 176 173 170 167 164 160 161 160 145 131 130 109  88  84  71  53  43  40  39  34  35  32  44  42  42  65 191 220 216 215 215 215 214 214 214
 209 209 211 203 123  52  34  32  25  27  30  32  56  71  70  95 132 154 160 169 172 173 177 179 180 183 185 187 185 184 182 184 190 192 191 194 190 189 191 195 194 196 197 199 197 193 195 193 190 191 190 189 186 184 179 176 173 175 172 169 166 164 162 161 156 153 147 140 115  97  95  95  72  51  47  46  36  33  34  33  38  40  49 165 223 216 215 215 215 215 214 214
 209 210 212 200  99  34  31  38  36  31  29  45  70  68  81 113 147 166 166 170 171 174 177 177 177 180 184 185 184 187 188 191 191 191 192 193 187 187 192 196 197 199 196 196 197 195 194 194 191 189 189 190 187 184 181 175 170 175 173 167 166 165 160 159 154 152 148 142 127 103 100 108  98  69  46  44  36  33  33  37  30  31  37 129 221 216 216 215 215 215 214 214
 209 208 212 187  82  25  27  38  36  32  36  64  62  68  95 127 157 166 166 170 173 175 177 179 178 180 182 183 186 189 189 191 191 193 198 197 197 201 204 201 201 203 202 200 201 198 198 197 194 191 191 190 188 185 182 176 171 175 175 170 165 166 161 161 158 152 149 140 124 105 104 116 104  80  66  47  33  39  31  35  29  25  25 121 218 217 216 215 215 215 214 214
 209 210 214 160  64  23  30  34  34  39  48  58  53  78 103 137 161 161 163 170 174 175 176 178 180 182 183 184 189 191 195 195 198 202 205 205 206 205 207 208 209 208 207 208 207 204 203 201 199 197 195 195 191 186 183 178 174 175 175 171 165 163 161 161 157 151 148 141 122 104 106 114 120  96  66  51  35  35  37  30  29  27  21 112 214 216 215 216 215 215 214 214
 210 210 212 143  43  24  31  37  44  47  47  46  66  88 104 130 161 163 163 172 176 176 174 175 179 182 183 185 188 192 195 193 199 204 202 203 204 206 208 209 210 210 209 211 210 210 206 203 199 200 198 195 191 186 183 180 176 177 175 169 164 163 163 160 157 154 151 137 116 108 114 114 117 112  83  45  35  31  32  29  23  31  25  95 210 214 215 215 215 215 214 214
 209 211 211 142  37  26  30  32  45  42  45  55  80  95 106 127 156 161 165 172 173 174 173 173 178 182 183 186 192 194 196 198 202 205 205 206 207 208 207 209 208 208 208 209 207 205 206 203 199 199 194 194 191 187 185 182 181 178 173 170 166 162 158 163 162 157 152 133 115 111 116 122 107  98  89  68  39  27  34  29  21  29  33  86 207 214 216 214 215 215 215 215
 209 210 210 153  36  23  26  28  30  35  55  70  90 104 108 127 150 160 167 170 172 173 174 175 179 181 182 190 194 197 197 202 208 210 208 212 211 210 211 214 213 212 212 212 212 211 210 207 204 203 197 196 195 189 190 186 183 181 175 169 165 163 159 164 161 153 147 131 116 115 118 124 112  90  75  73  61  29  32  29  20  23  35 101 216 217 215 215 215 215 215 214
 209 209 214 158  32  23  26  28  32  51  64  78  91 109 110 121 144 162 168 172 173 174 174 174 177 181 185 190 193 196 199 203 210 212 211 213 211 211 213 213 212 212 212 216 216 216 214 210 206 205 201 199 195 190 192 189 186 182 177 174 169 169 168 165 160 150 144 131 117 115 117 115 107  94  71  58  66  43  28  29  25  22  32 126 222 217 215 215 215 215 214 214
 210 208 213 172  45  23  29  32  43  65  63  70  87 116 115 119 142 163 169 171 176 173 175 178 180 181 187 190 193 196 198 204 206 210 212 210 209 210 211 213 212 212 213 215 217 216 214 210 206 208 204 201 194 190 190 189 185 183 180 176 172 169 168 167 162 154 149 133 117 121 119 115 103  92  76  54  60  55  28  26  30  31  39 136 220 217 215 215 215 215 214 214
 211 210 212 186  58  24  30  43  58  62  58  70  95 113 119 127 142 163 167 170 172 173 176 180 182 181 188 190 191 195 195 198 203 204 207 207 207 209 211 213 213 212 214 215 215 215 213 209 208 210 207 206 199 194 191 190 187 183 182 177 172 170 169 171 167 159 154 139 120 125 123 119 110  87  75  59  46  55  34  30  29  36  54 147 220 216 214 216 215 215 214 214
 210 209 214 192  62  23  33  46  56  48  54  73  93 109 125 133 145 163 166 169 174 174 175 181 184 185 189 190 196 199 201 203 208 211 211 209 208 209 208 206 207 211 214 213 214 214 212 212 209 211 210 208 198 193 188 189 189 183 182 177 175 174 173 171 165 159 150 136 123 126 129 127 113  91  62  52  38  45  37  38  36  31  55 151 218 216 215 214 215 214 214 214
 208 209 213 206  88  18  35  43  48  43  56  72  86 110 133 140 145 158 166 172 175 177 177 180 183 189 191 193 198 201 205 206 209 212 214 215 215 215 214 210 208 208 209 207 203 204 203 206 206 204 203 201 194 190 186 188 185 183 183 179 176 176 172 172 167 156 147 134 127 129 131 129 118  96  63  42  36  42  36  41  51  39  51 148 220 215 215 214 214 214 214 214
 210 209 210 216 149  37  30  35  44  46  63  67  87 112 142 147 146 155 165 170 176 180 178 179 181 188 191 194 201 202 206 208 209 211 214 213 214 215 216 216 216 214 213 210 209 209 210 209 207 203 199 199 201 192 189 189 188 186 183 181 178 174 169 170 166 157 149 137 130 131 132 126 120 105  71  42  36  39  38  34  58  55  53 148 222 215 215 214 214 214 214 214
 210 208 209 212 207 102  23  34  44  42  58  63  90 121 139 151 150 155 162 171 178 180 181 181 182 186 183 192 200 204 206 208 207 209 211 211 213 215 216 216 217 216 216 216 215 212 209 208 208 205 202 200 201 198 194 193 190 186 183 180 177 172 167 168 164 157 151 140 132 132 131 126 116 103  72  44  38  37  44  26  48  62  57 147 222 216 215 214 214 214 214 214
 210 209 208 210 217 149  31  33  46  37  51  63  94 128 144 151 149 156 164 172 176 180 181 184 185 186 183 191 197 198 203 208 210 209 208 212 213 215 216 215 214 214 218 217 213 211 206 203 205 204 202 203 206 202 194 193 189 185 181 178 175 170 166 165 162 158 153 140 132 134 132 126 119 104  73  43  34  40  50  26  45  54  61 161 220 216 214 214 214 214 214 214
 209 210 208 209 214 157  46  40  43  42  52  62 101 129 148 152 151 155 164 171 177 179 182 186 187 189 192 195 199 200 200 201 203 205 208 209 211 213 216 215 213 217 217 214 215 212 209 209 210 210 207 208 206 201 195 193 189 186 182 178 176 171 166 163 161 158 152 138 131 136 136 131 123 106  70  44  28  29  42  31  46  49  74 182 218 215 214 214 214 214 214 214
 210 210 209 208 214 171  56  37  37  41  47  53 103 140 153 155 156 153 160 170 177 178 180 184 188 191 194 196 200 204 205 207 208 208 207 206 206 205 209 212 214 217 214 215 216 211 211 218 214 212 211 211 210 207 200 196 192 190 185 180 177 171 166 164 163 159 150 139 136 139 136 131 124 109  73  45  37  30  35  31  48  45  85 197 216 215 215 214 214 214 214 214
 209 210 209 209 213 188  68  33  32  37  34  50 104 140 152 155 158 155 160 167 174 180 182 184 187 190 194 196 199 206 209 212 214 214 212 213 214 216 216 215 217 217 216 219 221 223 221 216 215 218 218 216 213 208 199 195 192 189 184 182 179 172 168 167 166 162 151 141 137 140 138 132 124 109  80  45  31  33  33  29  41  40  95 207 215 215 215 213 214 214 214 214
 209 211 209 210 212 200  78  25  39  44  33  45  99 132 149 157 159 156 160 168 172 179 182 182 186 191 194 198 197 203 210 212 215 216 219 218 219 222 224 220 224 221 221 222 224 225 221 220 220 219 218 212 210 208 201 194 189 187 184 183 179 174 171 171 167 160 154 144 136 140 138 132 125 111  81  39  23  23  30  30  43  42 107 212 216 215 215 215 214 214 214 214
 209 209 209 210 212 211 100  25  48  50  34  37  94 132 151 161 159 156 160 168 172 176 180 180 184 190 192 193 198 197 202 209 211 217 216 217 214 214 221 222 221 217 219 220 216 215 212 204 207 209 209 208 201 195 189 184 175 172 174 176 173 164 151 151 158 160 154 144 133 133 136 132 121 105  85  43  20  18  21  29  40  43 110 214 218 214 215 215 214 214 214 214
 209 209 209 209 211 215 138  35  50  52  33  35  93 129 149 156 155 158 163 168 174 173 172 179 182 186 186 184 186 188 190 191 194 202 206 202 203 198 204 214 211 205 208 207 210 208 195 188 190 191 192 187 181 173 168 154 151 149 142 142 136 119 101  95  96 129 142 144 133 132 131 128 118 108  89  50  26  16  15  30  29  46  95 191 219 214 213 214 214 214 214 214
 209 209 209 209 211 215 162  58  53  55  44  37  90 129 145 156 153 158 165 172 174 168 161 155 156 165 159 160 159 159 157 158 157 168 186 173 183 189 198 207 202 197 199 199 203 197 179 175 174 167 156 148 137 127 115 108 122 109 105  97  90  90  87  88  85  80  93 113 129 126 127 124 118 111  88  45  32  18  19  25  27  57  87 136 209 216 214 215 214 214 214 214
 209 209 209 209 209 210 182  88  50  47  52  40  90 127 143 152 153 157 167 165 142 118 113 107 110 116 124 117 116 121 118 120 124 124 146 150 143 174 194 197 196 190 192 196 198 185 166 155 152 147 119 105  94  81  74  86  88  78  91  88  86  94  94  97  81  66  63  70  87 105 117 120 115 111  88  46  36  26  20  13  36  61  83 109 177 219 216 214 214 214 214 214
 209 209 209 209 210 213 182  77  43  44  48  38  82 125 140 145 152 157 159 142 112 100  96  98  97 100 100  97  97  98  98  94  98 103 104 122 118 164 188 191 190 183 185 191 191 177 165 158 127 113  94  89  75  70  74  63  53  58  59  62  80  86  88  86  71  64  64  67  69  82 101 115 116 112  94  50  33  27  19  19  58  88  88 115 175 219 214 215 214 214 214 214
 209 209 209 209 210 214 176  76  42  53  50  38  72 127 136 142 140 126 112  98  88  93  86  96  99  92  87  79  72  70  68  74  83  86 103 114 121 158 180 183 178 172 178 184 181 176 166 155 117 101  90  76  63  58  50  44  55  66  75  92 100  98 104 111  92  68  69  68  58  57  81 111 117 110 100  58  32  25  21  41  84 116 117 141 177 218 215 214 214 214 214 214
 209 209 209 209 211 213 166  88  50  52  49  45  72 126 139 136 105  83  73  70  70  74  79  82  76  66  58  53  49  50  49  54  63  73  92 101 122 146 166 168 162 163 174 178 172 164 147 130 120  99  74  69  71  73  76  96 119 133 148 155 146 141 142 135 117 100  85  71  55  68 102 114 113 110 102  65  32  25  39  72 116 126 125 141 157 205 217 215 214 214 214 214
 209 209 209 208 210 216 165  91  78  59  53  46  65 122 139 121  84  70  68  67  69  81  91  94  97 102 101  99  90  78  66  63  64  70  81  86 104 126 139 148 159 179 188 185 169 150 130 109  96  86  89 100  99  97  97  82  67  62  57  64  72  78  97 116 127 120 105  91  85 101 112 116 115 113 102  68  30  26  57  96 127 137 145 138 136 184 217 214 214 214 214 213
 209 209 209 209 209 212 172 119 128  92  53  49  63 121 134 107  83  67  60  67  88 109 124 130 121 112  97  79  66  50  58  85  98  94  92  97 100 102 113 141 176 200 210 206 179 144 118 107 108 123 135 128 128 121  89  51  75  65  46  28  43  58  44  54  96 125 133 126 116 119 127 123 114 110 103  70  36  31  67 110 136 157 161 145 132 165 217 215 214 214 214 213
 209 209 208 210 211 205 170 138 150 145  76  49  65 124 136 117  99  83  80  91 110 121 109  85  56  31  18  44  73  68  67 114 127 147 160 151 142 137 132 147 184 205 216 209 185 150 131 136 146 160 161 158 131 138 149  92  85  42  64  69  98 128  90  56  66 104 135 141 145 147 135 123 116 113 107  77  43  24  67 117 142 158 163 153 138 155 209 215 214 214 214 213
 209 208 210 210 210 201 169 146 155 162 108  50  73 126 139 133 119 115 120 129 130 106  55  41  77  67  63  65  58  95 108 186 176 134 149 186 187 187 182 165 181 203 211 204 184 146 144 163 174 192 181 135 124 170 190 134 109 116 111 111 142 143 123 108 101 116 118 127 140 142 135 125 115 117 111  85  51  26  57  86 120 151 156 156 141 139 201 217 214 214 214 213
 209 209 209 210 211 201 170 156 158 167 137  58  73 129 142 143 147 147 150 156 139  92  68  90 136 126  92 103 102 106 142 189 185 156 132 150 191 209 199 176 175 197 209 202 183 152 154 176 196 206 178 172 181 177 174 175 157 146 147 143 146 140 137 134 143 166 157 151 155 158 154 135 123 120 116  94  53  34  61  85 122 151 154 161 149 130 197 217 214 214 214 213
 209 209 209 210 212 200 171 164 165 171 147  64  73 128 144 144 151 159 157 143 131 126 116 132 154 152 136 142 151 148 159 160 165 181 196 196 190 200 201 180 176 193 203 197 181 159 155 177 195 196 196 202 192 181 172 174 168 158 162 155 149 145 145 144 161 179 180 178 173 172 161 140 130 123 121 103  63  43  78 107 129 151 158 171 163 131 192 219 214 214 214 213
 209 208 209 209 211 200 169 171 171 156 117  57  75 128 149 155 161 166 155 149 167 174 154 145 148 145 137 144 152 153 161 167 168 177 194 199 195 196 193 175 177 189 199 195 180 162 152 165 184 191 193 187 185 176 167 166 166 163 159 152 143 137 138 152 171 180 183 180 176 174 162 142 132 126 124 112  77  54  90 123 133 152 162 179 176 136 191 219 214 214 214 213
 208 208 209 208 211 200 173 178 170 159 129  64  77 131 149 162 172 179 177 177 189 188 176 160 156 157 154 159 163 161 165 165 166 175 187 195 196 196 181 171 179 189 195 194 182 163 148 154 174 188 194 198 194 182 177 169 163 156 152 148 151 152 164 181 184 183 185 179 172 171 162 143 132 125 121 111  84  69 104 138 136 151 160 175 177 139 188 218 214 214 214 213
 208 208 209 209 211 199 179 186 170 158 148  78  77 137 152 165 175 184 190 189 185 184 179 168 162 158 155 157 160 160 165 170 179 194 203 205 195 183 168 170 182 192 196 195 184 166 149 146 160 175 191 203 204 200 201 192 184 181 180 180 179 181 189 189 189 186 184 182 176 168 161 144 134 127 120 111  90  66  98 144 145 152 155 165 166 136 190 218 214 214 214 213
 208 208 209 209 210 193 180 191 173 163 154 104  78 137 157 169 180 187 189 185 185 189 191 190 182 171 166 166 171 170 179 191 201 209 210 200 186 172 164 170 184 191 195 193 184 165 149 146 150 161 182 196 203 207 208 206 200 195 193 192 189 190 191 191 191 182 182 181 178 170 160 143 136 130 119 108  95  75  92 139 149 148 152 166 153 133 200 217 214 214 214 213
 208 208 209 209 210 192 181 190 175 168 165 133  89 136 154 166 180 186 188 189 193 195 198 198 195 189 185 185 189 192 200 212 215 212 201 193 181 167 163 171 188 193 196 197 185 164 147 147 148 156 173 189 198 206 211 210 211 208 205 201 200 200 199 197 195 188 179 175 176 173 161 143 135 130 118 105  88  79  91 127 133 142 165 176 135 148 209 215 214 214 214 213
 208 208 209 209 210 195 179 185 176 173 168 137  92 135 152 163 176 181 187 191 191 192 200 202 205 205 204 204 209 211 214 216 211 203 197 188 173 163 163 172 187 195 197 198 188 166 150 145 148 153 169 183 193 200 207 208 210 211 208 205 203 201 200 197 196 190 179 176 175 171 157 141 129 126 121 103  87  68  85 101 125 155 171 152 132 166 215 214 214 214 213 213
 208 208 208 209 211 196 171 179 174 169 163 137  99 132 152 165 170 179 189 192 192 196 204 208 210 210 211 212 214 213 214 210 204 201 196 186 171 160 163 175 184 196 201 202 194 174 154 140 141 146 166 183 191 197 200 204 210 212 207 205 201 196 195 195 194 188 183 179 172 163 153 140 127 125 117 102  90  62  78  97 143 159 150 145 142 183 219 213 214 214 213 213
 207 208 208 208 210 199 158 175 182 165 157 146 122 133 152 164 174 184 190 189 193 199 205 207 208 210 214 213 212 213 212 205 203 203 200 189 169 157 162 179 190 199 201 198 196 182 157 133 131 137 157 185 199 204 202 198 204 209 211 209 207 198 195 197 193 185 183 176 171 160 151 140 129 122 113  97  91  71  80 118 150 158 155 155 145 197 216 214 214 213 213 213
 207 208 208 208 209 204 163 154 174 175 164 148 134 130 150 158 172 182 185 189 193 198 200 204 208 211 214 214 214 211 208 206 205 205 202 187 167 159 165 180 193 202 202 198 193 183 163 138 132 143 155 182 202 209 209 208 206 205 208 211 209 203 196 200 191 186 181 174 168 159 148 136 130 119 109  94  97  81  94 128 141 152 150 141 155 211 216 214 214 213 213 213
 207 208 208 208 209 206 178 162 168 187 181 151 130 123 146 158 171 179 182 187 193 194 197 205 211 214 214 214 215 211 207 209 211 209 199 183 171 165 169 182 194 200 203 204 195 182 167 147 139 155 159 170 190 203 204 209 212 210 211 211 210 206 199 197 189 183 174 169 164 155 144 134 124 113 102  94  93  85 102 121 133 143 138 135 189 218 215 215 214 213 213 213
 208 208 208 208 209 210 187 165 171 185 185 167 133 117 139 162 171 176 182 189 194 194 201 206 211 215 215 215 213 213 214 212 206 202 190 178 173 168 169 185 198 204 199 202 199 184 166 150 141 155 158 154 172 193 198 196 203 210 212 211 209 207 201 197 192 178 167 165 161 147 135 130 120 108  97  98  95  93 108 123 144 144 131 172 215 215 214 213 213 213 213 213
 208 208 207 208 208 211 200 162 160 178 180 179 142 120 132 156 168 174 181 189 193 193 202 208 213 212 209 216 217 215 210 201 200 196 179 172 169 164 170 186 205 217 215 215 200 176 163 146 139 152 155 142 154 185 193 191 189 196 203 204 205 206 202 199 192 177 167 164 157 142 128 123 115 102  95 103 102 100 118 133 151 139 158 212 215 212 212 213 213 213 213 213
 208 208 208 208 209 208 209 176 145 167 172 165 142 122 129 152 164 173 180 188 193 194 201 207 211 212 210 213 210 204 195 195 198 190 164 163 163 159 159 177 206 220 220 218 198 166 148 134 134 142 146 121 138 179 189 187 184 183 193 199 202 201 196 192 188 181 175 166 153 137 126 121 108  97  96 104 105  98 111 126 133 154 203 217 214 213 213 213 213 213 213 213
 208 208 208 208 207 208 210 200 154 149 168 165 147 125 128 151 160 169 179 186 192 195 200 204 207 208 207 205 196 189 188 195 197 187 153 136 133 130 146 162 187 203 202 195 180 149 131 118 102 101  99 101 148 176 184 187 185 181 188 190 191 193 191 190 186 180 171 161 150 131 121 114 101  95  99 109 103 107 118 136 171 208 217 213 213 213 213 213 213 212 212 213
 208 208 208 208 208 208 209 212 192 148 144 159 141 126 129 144 153 163 175 184 189 191 194 200 201 201 199 194 185 183 190 196 198 195 169 116  80  52  73 132 168 180 181 178 158 121  80  48  33  46  71 119 156 165 178 186 194 189 183 184 188 190 188 187 182 177 165 154 140 124 111 105  98  96 102 103 101 158 206 209 216 216 214 213 214 214 213 213 213 212 212 212
 207 208 208 208 208 208 209 210 211 194 154 138 128 129 129 137 142 157 169 182 187 187 190 193 196 195 191 181 177 186 194 196 194 190 187 155 117 109  95 102 137 155 163 155 116  59  41  58  78  97 125 156 156 155 171 185 192 193 188 185 187 187 184 182 179 173 161 151 134 116 106 100 101 100 105 102 103 173 222 216 214 214 214 214 215 213 212 213 213 212 212 212
 207 208 208 208 207 208 209 209 209 213 206 193 180 135 127 135 134 150 164 176 180 184 186 190 189 186 181 177 183 192 195 192 187 180 175 168 159 143 144 127 109 111 119 114  71  66  87 104 123 136 150 159 157 154 160 174 182 191 192 190 189 186 181 178 175 170 158 144 130 109 101  98 103 104 103 100 107 167 215 214 214 215 214 214 213 213 212 212 212 212 212 212
 207 207 208 208 209 209 210 209 210 209 210 214 208 145 131 136 129 141 157 165 173 181 185 186 188 185 180 181 188 192 192 185 174 168 166 171 157 146 138 133 121  85  67  62  68  88 108 113 131 140 149 150 151 154 157 161 167 182 197 192 193 193 186 180 173 166 152 141 121 101  98  99 103 105 105 103 111 175 215 215 214 214 214 213 213 212 212 212 212 211 211 212
 207 207 207 208 208 208 209 209 209 209 209 211 206 156 135 142 127 133 148 158 169 179 181 183 186 187 183 181 181 182 185 177 166 159 155 156 158 155 129 131 121  96  76  65  74  97 124 127 136 150 140 138 152 153 145 155 161 168 181 182 188 195 190 178 169 164 152 132 110 101  99  98 103 108 108  99 108 187 217 215 214 213 213 213 213 212 213 212 212 211 211 212
 207 207 207 208 208 209 209 209 209 209 209 211 210 162 136 148 129 133 145 153 168 177 181 183 188 184 177 177 175 171 179 173 161 155 153 158 158 154 147 138 118 112 121 121 117 124 148 150 140 159 153 141 144 140 141 141 144 153 167 173 182 189 188 175 160 159 150 123 106 105 105 106 104 109 113 106 110 190 217 214 214 213 214 212 213 212 212 212 212 211 211 211
 207 207 206 208 208 209 209 209 209 209 209 211 214 170 133 144 136 134 143 143 162 174 180 188 190 173 167 162 147 153 159 150 147 148 151 156 149 154 155 148 125 121 133 138 146 147 160 167 151 152 159 146 149 141 142 132 134 132 150 165 166 175 185 175 156 157 146 119 103 112 111 111 116 114 110 102 121 200 218 214 214 213 213 212 212 213 212 212 212 211 211 211
 207 207 207 209 208 208 208 208 208 209 209 210 214 180 127 137 142 139 148 139 157 172 179 188 177 155 152 161 139 126 135 139 142 141 142 155 150 165 173 159 138 128 147 151 145 158 169 178 172 167 170 162 158 149 143 134 140 136 143 156 149 163 179 171 153 152 141 114 115 119 110 111 122 112 108 103 128 203 216 214 213 212 212 212 212 212 212 210 211 211 211 211
 207 207 207 208 208 208 208 208 209 209 210 210 213 180 129 138 141 139 150 141 151 168 175 182 160 141 149 161 158 145 144 138 142 142 150 167 176 179 179 179 159 162 171 167 166 179 188 182 184 179 180 171 160 151 141 135 138 139 144 147 150 165 170 165 141 143 138 110 115 118 107 112 119 112 104 106 131 205 216 213 212 212 212 212 212 212 212 211 211 211 211 211
 207 207 207 208 208 208 208 208 209 209 210 210 212 190 139 136 139 136 152 144 149 160 168 174 163 157 164 164 160 158 153 154 149 150 163 165 165 168 167 173 169 171 169 171 166 156 156 154 160 160 157 152 145 141 137 135 131 146 149 152 160 166 165 158 132 143 139 115 119 118 110 113 111 124 114  98 139 210 214 212 212 212 212 212 212 212 212 211 211 211 211 211
 207 207 207 208 208 209 208 208 208 209 209 209 211 202 144 129 136 142 149 146 143 155 160 168 167 163 156 144 133 131 127 133 133 134 135 139 142 142 140 134 128 119 119 116 108 108 113 116 119 113 110 106 100  96  84  77  80 115 149 161 166 157 154 147 126 148 136 122 128 120 106 114 116 121 114  98 155 214 213 212 212 212 212 211 211 211 211 211 211 211 211 211
 206 206 207 207 208 209 208 208 208 208 208 209 211 205 156 121 133 140 147 154 132 147 157 171 172 167 160 165 143  96  65  48  58  79  88  94  99 109 109 106 116 120 117 119 141 151 136 120 130 114  94  98  73  39  35  35  65 132 165 175 172 160 163 149 134 148 123 118 134 124 118 116 131 121 102 105 170 216 212 212 212 213 212 211 211 211 211 211 211 211 211 211
 206 206 207 207 208 208 208 208 208 209 210 209 208 212 169 122 133 135 143 151 130 143 154 168 177 171 176 192 193 157 109  76  42  61 106 136 133 161 170 168 200 211 200 194 220 223 197 176 191 144 105 144 105  71  92 113 161 193 196 192 186 172 167 144 139 143 120 118 132 120 120 118 123 114 103 107 184 215 212 212 212 213 212 211 211 211 211 211 211 211 211 211
 205 206 207 207 208 208 208 208 208 209 209 209 210 212 187 133 131 127 131 147 142 132 151 166 179 188 190 192 194 191 169 149 121 103  95 120 116 142 143 143 176 183 167 159 169 159 132 109 110  97 107 134 129 130 142 161 181 195 198 195 187 180 163 140 138 135 114 118 122 117 113 113 107 103  98 129 202 214 213 212 212 212 212 211 211 211 211 211 211 211 211 211
 205 206 207 206 208 207 208 208 209 208 208 210 210 212 198 148 124 122 125 146 153 135 142 159 178 191 198 197 194 188 181 165 154 144 119 108 112 117 117 119 113 111 109 112 110 117 116 115 119 136 152 146 142 142 143 159 179 195 197 193 184 177 155 141 142 134 115 111 115 120 107 109 108  98  87 155 213 213 212 212 211 211 211 211 211 211 211 211 211 211 211 210
 205 206 206 206 207 207 208 208 208 208 208 209 209 212 208 156 115 117 125 140 154 144 129 151 171 183 195 203 199 187 183 176 161 156 157 148 147 158 159 158 152 150 151 152 156 154 153 152 146 147 154 153 146 143 146 159 181 197 202 195 180 171 146 139 146 126 115 119 109 111 112 100 100  85 117 195 215 212 213 212 210 211 211 211 211 211 211 211 211 211 210 209
 205 206 206 206 207 207 208 208 208 208 208 208 209 211 212 185 125 116 121 136 145 138 126 142 161 177 197 205 203 195 182 174 165 158 155 152 156 167 171 173 172 179 182 178 175 177 169 160 153 147 150 153 148 146 148 166 185 195 198 195 176 157 142 137 140 125 122 120 111 106 111 102  83  84 159 213 213 211 211 211 211 211 211 211 211 211 211 211 210 210 209 209
 205 206 206 207 207 207 207 208 207 207 209 208 208 208 209 206 156 105 109 118 132 142 129 132 145 165 190 201 199 198 189 174 167 161 159 158 159 160 161 170 172 181 184 182 179 178 167 158 155 151 149 150 147 145 149 165 181 187 188 188 177 147 139 136 126 121 121 116 104 101  99  93  77 115 197 215 212 211 211 211 211 211 211 211 211 211 210 210 210 209 209 209
 204 205 206 207 206 206 207 208 207 208 208 208 208 208 208 212 187 120 105 113 131 145 141 136 137 156 180 192 196 194 193 182 166 162 158 157 160 155 152 160 169 173 175 175 171 163 157 155 157 150 147 149 154 150 159 174 177 183 184 180 171 147 132 125 124 112 117 110 100  95  92  77  76 157 217 212 212 211 211 211 212 211 211 211 211 210 210 210 209 209 209 209
 204 204 204 206 206 207 207 207 208 208 208 208 208 208 208 209 207 163 105 114 123 125 128 128 125 142 172 188 195 193 191 187 170 159 156 154 155 155 150 151 162 163 159 151 143 140 144 141 141 144 146 144 148 154 166 177 178 181 180 175 160 147 131 120 126 117 117 105  93  87  78  73  79 181 218 211 211 211 211 211 211 211 211 211 210 210 209 209 209 209 209 209
 204 204 204 205 206 206 207 207 208 208 208 208 208 208 208 208 211 200 134 102  99 106 118 120 118 125 154 179 189 192 191 188 176 158 153 149 151 156 151 147 137 125 127 126 132 143 143 137 142 146 144 143 156 165 169 174 177 177 170 167 153 138 126 120 117 121 114  93  82  75  77  68  75 184 217 213 211 211 211 211 211 211 211 210 210 209 209 210 209 209 209 208
 205 205 205 205 205 205 206 206 207 207 207 208 208 208 208 207 209 212 181 102  89 100 109 119 120 126 138 164 184 190 190 189 181 169 159 148 147 149 155 151 135 135 131 137 142 151 145 148 150 153 151 160 169 171 171 173 173 171 165 157 144 132 122 117 106 104  97  87  81  72  64  58  63 157 216 212 212 211 211 211 211 210 210 210 209 209 209 209 209 208 208 208
 205 205 205 205 205 205 207 206 207 207 207 208 208 208 208 208 209 213 203 113  78  94  98 119 130 121 118 150 180 187 189 190 188 183 171 158 150 149 149 147 144 150 146 149 153 150 142 154 161 164 166 173 176 174 175 175 172 168 164 155 142 125 120 115 109  94  81  80  80  63  56  55  71 134 206 216 210 211 211 211 211 210 210 209 209 209 209 209 209 208 208 208
 206 205 205 205 206 206 206 206 208 207 207 208 208 208 207 209 209 210 209 135  79  90  91 102 127 121 119 132 163 181 187 191 192 191 184 173 163 159 153 156 155 149 150 154 166 160 155 169 170 170 175 180 180 179 179 175 169 166 160 149 133 121 114 106 108 100  80  72  66  56  56  60  92 151 166 198 217 212 211 210 210 210 209 209 209 209 209 209 208 208 208 208
 205 204 204 205 205 205 205 206 206 207 207 208 207 207 207 208 208 209 214 158  95  86  81  94 119 128 124 129 143 160 179 186 194 193 190 183 181 178 172 170 172 159 153 166 165 167 171 176 176 179 184 187 184 184 183 175 167 164 157 146 128 111 114 105  95  91  81  63  51  57  64  73 120 179 117  77 177 217 210 210 209 209 209 208 210 209 209 209 208 208 208 208
 204 204 204 205 205 205 205 206 205 206 207 208 207 207 208 208 208 207 213 176 113 101  80  85 102 116 117 119 128 141 170 183 189 193 196 191 187 190 183 171 178 179 180 181 170 185 184 184 194 194 192 190 189 188 183 173 164 158 147 137 121 105 104  93  78  72  61  52  56  62  80  87 147 186 143  27  35 169 216 211 209 209 209 209 209 209 208 209 208 208 208 208
 204 204 204 205 205 204 204 205 205 206 207 207 207 208 208 208 208 208 213 190 126 116  99  77  81  98 116 119 125 146 167 177 185 194 200 199 194 188 188 180 182 195 196 188 182 190 189 197 194 192 193 191 187 186 176 168 161 142 124 118 107  93  88  83  75  57  49  57  68  83  91  97 172 186 157  84   0  35 174 217 210 209 209 209 208 208 209 209 208 208 208 208
 204 204 204 204 204 204 204 205 205 206 206 206 207 208 208 208 208 208 211 199 135 123 123  97  78  84  99 108 119 135 152 165 180 191 198 199 195 187 184 181 181 197 182 176 187 195 195 194 189 180 189 181 183 174 157 152 150 130 112 106  95  90  81  72  59  49  59  69  89 102  95 117 191 181 154 123  21   0  58 197 214 209 209 208 208 208 208 208 208 208 208 208
 203 203 204 203 204 204 205 205 205 206 206 206 206 207 207 207 208 208 209 208 157 124 137 124  90  70  77  97 105 118 128 147 167 184 194 193 180 179 175 179 190 199 189 186 192 196 201 193 178 176 183 174 179 157 146 138 133 122 107  92  87  90  72  50  55  64  77  94 101 104 100 157 205 181 158 142  53   0   0 111 216 210 208 207 208 208 208 207 208 208 208 208
 202 202 203 203 204 204 204 204 204 205 205 206 206 207 207 207 208 207 207 205 183 128 135 136 115  90  72  75  92 106 112 135 152 166 179 180 168 168 177 186 193 193 185 181 177 190 194 187 184 188 177 161 158 146 141 130 111  97  92  85  82  66  51  52  65  84 100 107 106 103 121 200 212 193 168 149  87   1   0  22 173 218 209 208 208 208 208 208 208 208 208 208
 202 202 202 203 203 204 204 204 204 204 205 206 206 207 207 207 208 212 179 141 200 140 131 139 135 117  93  76  78  95 100 114 130 144 165 166 163 165 168 177 183 178 160 165 160 159 170 173 178 180 166 149 147 138 123 114  96  80  80  84  65  55  57  67  93 109 110 108 106 109 183 231 213 195 168 153 122  18   0   0  70 194 216 209 208 209 208 207 208 208 208 208
 202 202 202 202 203 204 204 204 204 205 205 205 207 207 207 208 210 207  89  78 217 165 126 139 140 138 125 103  81  79  87  96 113 131 152 159 153 153 159 165 158 164 156 152 147 140 148 154 157 161 152 141 143 124 107  96  89  84  72  58  57  61  70  94 115 115 112 113 112 168 235 228 208 191 168 156 145  42   0   0   2  78 179 214 209 207 207 207 207 208 207 208
 202 202 202 202 203 203 204 204 204 204 205 206 206 207 207 208 213 150  12  94 223 206 138 138 139 140 142 131 104  80  76  85  91 105 124 146 143 140 151 146 150 150 149 141 137 141 145 141 147 151 141 130 121 111  98  83  70  63  54  56  63  70  96 117 119 114 118 118 158 234 234 218 205 188 171 160 155  61   0   1   0   9  58 153 210 212 206 207 207 207 208 207
 202 202 201 202 202 202 203 203 203 204 204 205 205 207 206 210 186  51   4 129 211 236 178 142 143 141 143 145 131 108  94  82  77  84  97 109 128 125 125 129 143 131 137 137 135 133 136 131 136 131 115 103 102  92  76  61  51  50  60  65  72  95 119 122 119 120 123 149 226 238 223 215 203 189 177 164 157  71   0   1   1   5  13  34 118 198 215 209 207 206 206 206
 201 202 202 202 202 202 203 203 203 204 204 204 205 205 207 211 117   0  24 153 198 234 225 165 150 149 144 147 148 138 116 100  85  68  71  84  98 107 100 112 124 117 114 126 115 111 117 113 119 112  96  87  82  62  52  47  53  62  65  69  97 118 122 120 121 123 146 218 241 226 220 212 201 193 180 167 160  78   0   2   2   1  10  13  13  67 158 208 212 206 206 206
 201 202 202 202 202 202 203 203 204 204 205 204 204 205 211 173  34   0  36 164 195 217 243 214 170 161 150 149 151 153 144 120 105  97  78  69  69  84  89 102 106 103 101 108  96  94 102 106  94  77  68  60  47  43  45  54  64  69  74  96 119 123 122 123 123 146 214 242 229 225 218 209 203 196 185 170 164  83   0   1   2   1   4  11  13   4  19  89 176 212 208 205
 201 201 202 202 202 202 203 203 203 204 204 203 203 206 206  97   0   0  44 169 197 207 231 246 211 175 165 153 149 152 153 144 126 111 106  92  73  58  54  56  66  68  74  75  69  64  68  60  47  43  39  35  36  41  54  62  66  73 102 123 124 125 121 122 151 217 242 232 227 222 213 209 209 200 186 171 168  87   1   2   3   0   1   6   8  10   4   0  35 137 208 211
 200 201 201 202 202 202 202 203 203 203 203 203 204 213 172  29   0   0  57 175 200 209 222 241 244 208 173 165 155 153 152 152 149 130 112 103 100  89  61  44  34  29  29  33  30  24  23  19  22  26  30  35  45  58  64  65  74 103 125 127 128 127 129 168 225 242 234 229 227 220 215 211 210 202 186 173 174  88   1   2   1   1   1   1   4   7   6   3   0   8 103 199
 200 201 201 201 202 201 203 202 201 202 204 206 204 187  89   0   2   1  71 179 202 211 218 229 243 244 211 178 166 156 154 151 156 154 134 112 106 109  99  80  58  39  27  22  19  17  18  20  23  29  39  52  64  65  67  80 105 126 130 129 129 139 186 235 242 234 232 230 225 221 216 215 209 202 189 177 181  93   0   4   1   0   1   2   4   3   4   3   2   0   0  74
