P2
# Generated by OpenCV 4.2.0
92 112
255
 125 124 124 123 121 126 141 156 171 182 191 197 198 200 202 170 180 204 218 193  55  22  12  41  61   5   5   7   6   6   6   8  12  22  18  10  11   8   5   8  21  31  30  19  18  15  21  32  40  35  16   3  14  34  38  13  17  23  35  38  37  54  88 109 202 214 209 213 213 207 206 203 204 206 206 206 206 206 207 207 207 207 207 207 208 208 208 208 207 207 207 207
 124 125 123 123 123 133 149 164 177 187 194 199 203 201 122  89 193 188 143  74  28  36  12  31  39   3   7   9   8  11   9  10   9  10   9   7   7   7   7   9  12  23  27  19  17  17  24  30  34  38  34  18  10  27  37  41  45  48  50  36  36  45  36  46  96 123 123 136 182 216 212 205 203 206 206 206 205 206 206 207 207 207 207 208 208 208 208 208 208 208 208 208
 124 124 122 123 128 142 157 172 182 192 197 198 191 180  39  28  83  78  13   0   8   5  10  12   9   8  10  12   8   6   8   8  11  12   6   6   7   8  10  13  12  13  18  21  16  14  21  31  29  24  24  28  35  67  74  66  80  98  96  80  72  63  44  30  26  41  46  44  54 133 183 210 210 204 206 207 206 207 207 207 207 208 207 207 207 208 208 208 208 208 208 208
 125 125 124 124 135 151 167 178 188 195 200 194 152 142  46  20   0   3   5   7  10   5   9  11   9  11   8   5   4   3   6   8   8   8   5   4   8   9  12  16  12  10  14  19  26  27  23  32  35  24  14  22  59  89 100 103 111 116 100  82  72  81  57  42  36  40  36  36  40  39  48  93 189 210 207 207 206 208 207 207 209 199 201 208 208 208 209 207 208 208 208 208
 126 125 124 130 144 159 173 184 193 198 201 201 119 144  32   6   6   7   5   7  10   6   9  10   7  10   8   6   6   8   9   7   3   2   5   5   6  11  13  13  19  11   9  13  16  15  15  19  17  20  27  34  36  36  49  59  66  90 123 127  91  62  69  67  39  35  36  37  45  48  51  39  85 184 206 204 207 204 206 206 207 185 198 209 208 208 208 208 208 208 208 208
 126 125 125 136 151 166 178 187 196 196 202 199  86  56  16   9   9   6   7  11   7   3   4   7   4   5   6   4   7   7   4   5   4   3   3   5   5   9  19  18  22  33  17   8   8  10  12  12  11  11  19  32  39  52  52  47  46  54  70 115 138 120  63  63  76  40  33  22  34  47  39  46  49  78 144 195 206 193 199 207 198 185 208 208 208 208 208 208 208 208 208 208
 126 125 131 146 161 175 184 190 197 199 205 168  31  21  25  15   8   8  15   9   5   4   4   6   4   3   5   5   3   5   5   6   6   3   3   4   2   4  11  18  23  24  15  10  11  12  15  15   9  14  16  14  12  13  37  56  59  54  60  84 116 143  89  40  77  59  20  23  17  27  41  33  36  40  36  86 188 201 185 201 185 199 210 208 208 208 209 208 208 208 208 208
 125 127 139 153 168 180 191 194 195 205 176  51  13  20  35  29  11  12  10   5   2   3   5   8  10   6   7   9   8   6   6   6   9   8   4   4   6   6   7  11  18  19  13  12  13  15  11  17  25  17  14   9   8   6   0  16  57  65  61 113 112 114 118  61  49  69  36  18  24  12  28  39  23  33  37  35 109 187 154 175 189 208 209 208 209 208 209 208 208 208 208 208
 124 131 146 162 175 183 192 197 201 175  99  15  23  22  21  22  15   9   5   8   5   4   4   4  10  10   8   7   8   9   9  10  12  11  11   4   5  10  14  14  24  27  19  13  17  24  32  18  19  32  36  38  21  12   5   0   9  52  66  97 139  97 100  89  45  47  60  23  22  24  14  32  28  21  36  22  38  80 104 179 203 207 209 207 209 209 209 208 208 208 208 208
 127 139 155 170 182 191 193 197 205 161  27  10  30  32  22  16  18   4   6   8   7   5   6   5   6  14  18  15  13  10  12  11   9  12  15  11   5   7  17  22  31  46  29  22  22  35  42  38  24  18  33  40  38  25  19   2   1  11  49  78 127  99  77  76  49  48  56  29  14  18  19  12  28  20  23  31  20  37 149 200 201 208 208 208 209 209 209 209 209 209 209 208
 135 146 162 173 184 190 190 194 167  94  54  18  23  31  19  10  11   7   8  12  10   6   8   7   7   9  24  33  26  14  19  22  12   9  19  22  17   8  14  26  18  43  54  26  19  25  41  33  31  31  28  23  21  28  34  16   1   4  14  49  94 103  82  76  40  42  56  39  11  11  17  11  14  21  19  24  16  21 113 181 204 209 208 209 209 209 209 209 210 209 209 209
 140 153 168 181 189 194 160  73  80  61  20   9  20  24  14   8  10  11   8  10  12   5   5   8   8   8  15  30  35  20  19  36  35  16  12  29  30  20   9  23  29  12  46  44  14  10  20  34  24  22  33  25  13  15  26  34   8   6   6  19  50  95  73  73  42  32  51  50  13  12  15  14   8  12  15  16  10   6  18 151 210 207 207 208 209 209 209 209 209 209 209 208
 149 162 178 188 197 205 124   7  15  24  28   8  16  18  13   8  10  14   9   8  11   6   4   4   8  10  14  15  24  24  11  31  38  45  19  24  34  18  17  11  23  20  10  38  30   7   9  14  28  18  24  29  13  13  14  27  17   6   7  12  24  75  73  68  46  29  44  53  13   9  21  15   9  23  17  21  18  10  18  92 168 212 208 205 206 208 208 209 209 209 209 208
 158 170 182 192 199 177 164  97  18   6  13   6  10  14  10   7   7  11  13   9  11  14  11   7   4   8  11  13  13  18  11  17  21  38  36  16  33  31  13  17  12  25  14   7  34  23   7   4   8  18  16  23  15  12  10  17  20   7   8  15  15  42  64  67  56  32  43  51  12   9  20  16   6  18  26  20  21  17  27  25 114 210 209 207 206 207 209 209 209 209 209 209
 164 175 188 192 195 181 197 173  58  13   8   6   8  13  10   7   5  11  12  11   8  15  16  15  13   8   9   9  14  15   9  14  15  18  30  23  20  44  24  22  24  12  29  16   5  24  15   6   7   6  12  19  15  13  13  16  24  10  13  18  13  31  55  66  62  35  49  56  13  15  16  16   8   4  21  22  26  30  33  31  30 147 211 203 207 209 209 209 209 209 209 209
 172 182 193 196 191 157 137  86  29  15   9   5   6  10  13   8   6   7  14  12  12  12  16  20  21  20  13  12  11  21  15  11  20   9  17  20  17  24  31  17  31  18  11  38  24   5  13  10   5   4   8  13  13  11  12  14  26  23  23  25  22  32  58  66  66  33  60  54  15  18  13  19  12   9  14  16  19  23  29  40  40  70 190 196 208 209 209 209 209 209 209 209
 178 187 196 202 185  91  31   3   5  11  10   7   5   7   9   9   7   7  11  19  13  13  16  19  22  25  16  20  27  18  21  13  24  12   9  16  13   9  23  17  18  27  13  15  42  31   7  12   9   4   7  11  10  11  12  14  22  33  34  31  26  30  56  66  71  42  64  53  24  14  12  20  14   9  14  16  15  21  18  18  26  56 124 170 203 209 209 209 210 209 209 210
 185 192 199 201 199 176  84  24  21  12   9  10   8   8   6   8   9   7   7  13  16  12  13  19  20  22  23  21  32  34  23  18  15  29  13  12  13  13  14  22  12  24  23   9  14  36  26  10  16   8   7  13  11  11  15  17  27  39  35  31  23  35  59  70  63  54  63  49  19  16  15  18  12   8  14  16  17  22  21  25  29  25  69 172 205 208 211 211 210 210 210 210
 189 195 201 203 207 148  34  42  29  11  10  12  12   9   8   7  10  11  10   8  13  19  22  20  17  20  26  28  30  34  36  35  25  21  25  22  17  15  13  19  17  17  26  23  12  12  21  15  15  15  12  14  12  14  22  19  28  36  37  34  28  39  66  71  62  52  48  37  26  18  20  24  15   9  15  18  13  15  15  19  25  23  54 168 206 209 206 204 214 214 212 210
 194 198 202 208 191  50  31  35  20   9  11  10  12  14  11  10   9  10  11  10  10  12  20  31  30  28  29  31  32  37  44  42  39  37  25  18  27  21  13  17  19  16  19  27  21  17  16  22  21  20  19  19  20  23  23  20  33  43  39  39  34  44  67  70  58  45  42  33  25  22  25  24  20  16  19  16  12  14  16  19  25  28  32  67 110 114 111 133 161 181 199 209
 197 201 203 212 150  44  40  27  14   8  12  12  13  14  12  10  10  13  14  13  13  13  11  18  27  33  35  33  31  30  32  34  35  40  44  28  16  22  21  16  16  17  16  22  26  22  22  24  36  36  31  41  40  28  20  25  40  45  42  45  48  62  74  69  46  48  50  40  26  27  27  24  25  24  20  16  15  16  18  22  23  32  45  73 157 157 182 197 194 190 197 208
 200 202 206 202  85  47  40  15  10  13  13  13  13  12  10  10   9   8  11  10  13  15  15  11  18  28  32  35  32  26  23  23  22  28  32  39  38  25  24  22  18  22  24  25  34  32  35  40  45  54  50  61  41  24  25  41  52  54  52  55  67  69  74  59  52  53  48  38  36  34  27  28  20  19  20  18  14  17  18  21  27  30  44  83 153 214 207 207 213 213 212 210
 201 201 207 177  48  24  22  11  18  16  13  10   9   7   6   8  10  11   9   8  13  14  18  21  19  22  36  49  50  41  36  32  29  27  28  31  41  42  34  32  35  37  48  50  47  51  56  80  88  74  78  76  52  39  44  53  58  60  62  79  83  73  74  76  72  68  65  61  63  52  45  34  26  22  22  19  17  19  19  23  26  21  43 163 178 200 204 208 209 210 210 210
 204 204 208 174  46  12  12  18  15  12  15  11   9   9  10   7  10  13  16  17  18  21  26  26  24  26  24  24  33  41  46  42  46  42  35  33  43  54  63  58  62  72  89  89  80  85  88  99 101  95  98  77  71  70  74  74  80  76  87  95  96 110 126 124 108  97  95  94  78  66  62  50  41  36  34  28  23  18  16  20  23  26  27 123 178 191 209 208 209 209 210 211
 204 205 207 193  70  11  13  15  10   9  13  13  10  11  11  11  13  14  20  20  22  23  25  28  35  40  33  31  33  36  47  57  56  54  60  70  81  78  78  85  90  97 107 114 125 137 132 129 136 131 116 103 101  96  95  96 100 117 133 133 154 176 171 161 156 146 128 119 109  88  75  66  48  37  31  26  27  25  24  22  25  26  22  55 187 209 195 201 210 210 210 211
 205 204 204 178 106  18  14  10  10   7  12  14  15  14  14  15  18  17  17  26  34  32  35  36  41  48  53  63  72  79  83  86  97 105 110 123 122 118 115 119 126 132 129 132 145 164 165 160 164 154 139 128 133 134 128 135 148 154 163 176 190 190 188 185 184 177 166 154 144 131 107  86  64  45  39  36  33  29  20  24  25  26  30  34 133 189 182 207 209 211 212 210
 204 204 202 187  92  14  13  12  11  11  15  15  14  16  14  13  16  22  28  33  33  32  38  49  57  77  91 100 108 117 121 126 136 143 141 141 146 154 158 161 157 160 158 159 162 168 166 168 176 171 163 152 147 149 156 160 167 179 188 189 188 187 185 187 186 182 174 164 157 156 150 129  94  67  43  30  28  26  27  26  28  30  28  29  73 143 197 208 211 210 211 211
 205 204 203 206  87   5  16  14  11  18  14  12  12  17  17  16  18  26  28  27  33  54  70  78  98 113 112 123 135 136 136 141 148 151 153 154 162 164 167 170 167 170 171 165 164 171 170 174 180 181 179 177 177 177 180 180 183 186 187 187 187 187 182 184 185 184 180 174 164 163 166 159 137  98  64  40  29  23  19  19  24  35  32  30  52 146 208 210 209 210 211 211
 205 204 205 209  87   5  11  10  12  20  16  14  12  18  21  17  13  25  32  37  63  84 100 105 116 127 124 129 138 134 132 139 147 154 159 158 160 162 167 169 172 175 172 171 172 175 177 179 179 184 186 185 183 186 190 189 188 185 182 184 186 186 187 185 183 184 180 177 173 170 168 169 157 124  85  56  38  33  21  17  16  21  33  43  42 107 203 208 211 211 211 211
 205 204 205 210  93   2  10   9  10  16  18  20  12  24  23  14  25  43  45  58  85 101 114 116 116 123 122 128 133 139 140 143 149 152 154 153 155 160 166 170 171 170 172 172 168 172 179 178 181 183 182 184 183 185 187 187 186 184 183 185 185 184 181 181 184 183 183 180 179 176 168 169 168 152 112  73  55  46  32  24  23  24  31  40  39  70 170 205 208 211 211 211
 205 205 206 210  93   3  12  12  12  23  15  22  22  32  22  25  42  49  54  63  89 112 124 117 120 121 124 133 140 142 140 144 151 154 156 156 161 159 161 162 165 169 175 173 172 176 178 180 182 181 180 183 184 185 183 186 185 186 187 186 184 185 181 181 183 181 182 183 176 177 175 170 169 165 144 122  96  62  44  31  26  23  21  28  35  60 148 194 201 204 209 213
 207 205 206 213 105   6  16  11  11  27  19  27  24  33  32  42  52  54  52  61  91 115 119 115 122 126 134 134 137 139 141 146 150 154 155 161 166 164 161 165 169 173 175 178 176 178 182 182 183 185 186 185 184 186 189 190 189 187 185 186 187 187 184 184 185 186 181 180 178 176 174 171 169 158 150 141 126  87  57  45  36  38  36  27  28  40 141 202 201 199 210 212
 206 205 206 212 122  18  19  11  14  23  24  28  19  33  45  58  58  61  56  57  86 115 117 113 121 130 134 134 138 140 143 148 152 156 161 163 166 170 172 173 175 178 179 180 179 182 184 184 185 185 187 189 192 189 192 193 192 192 190 191 191 190 189 185 187 185 182 179 179 177 174 172 171 157 148 145 126  95  71  47  37  37  35  35  37  35 109 116 118 178 215 213
 206 206 207 211 145  29  15  14  24  23  24  22  19  32  42  62  58  60  52  55  81 104 116 116 126 132 134 135 138 141 144 146 151 157 158 163 165 170 166 169 175 179 180 180 180 184 184 187 186 191 193 193 193 196 197 195 193 192 190 190 191 192 192 188 187 185 180 178 180 180 177 174 171 159 149 147 131 101  75  56  45  35  28  28  33  43  89 143 175 207 213 213
 207 206 208 211 175  44  14  14  27  22  19  15  16  22  26  41  54  58  51  57  79  98 109 117 129 132 133 134 138 142 144 147 153 155 161 162 164 167 172 175 180 182 184 185 184 186 188 189 191 194 196 191 190 192 196 194 193 191 192 195 192 191 192 191 189 185 183 178 180 179 180 174 169 161 153 152 133  98  74  62  59  37  36  30  40 121 194 217 217 213 212 213
 207 207 207 211 201  70  11  20  27  20  20  13  15  21  25  32  46  56  55  60  78  93 104 125 127 132 134 136 138 140 144 148 152 155 162 162 167 171 175 179 184 186 188 188 188 190 194 193 195 199 196 197 194 196 199 198 195 196 197 196 196 196 194 194 191 189 186 182 181 180 180 176 168 161 157 154 147 112  73  66  61  49  48  39  67 158 211 210 206 207 212 213
 208 208 208 210 207  83  15  22  22  25  20  13  18  28  24  32  50  61  65  64  75  86 104 125 126 135 138 138 136 139 143 150 151 158 160 164 170 175 177 184 185 188 187 185 188 191 193 194 194 195 195 197 197 198 198 201 200 199 197 193 196 198 196 194 192 190 188 185 183 181 179 181 174 161 157 158 142 117  80  61  65  60  53  46  70 165 198 203 212 211 214 214
 208 209 209 212 201  78  22  32  25  28  17  15  23  24  21  37  55  66  70  71  78  81 103 128 128 132 138 138 137 142 148 151 152 157 160 166 169 173 176 181 184 183 184 185 187 189 193 191 192 196 197 198 196 195 198 200 199 199 197 198 197 195 195 192 189 190 188 184 181 181 180 179 176 168 158 162 148 108  78  69  76  62  43  40  75 193 213 189 205 215 214 214
 209 209 210 213 199  70  21  35  30  21  16  23  22  28  26  42  59  62  68  79  79  82 106 121 126 131 137 137 135 143 148 150 151 156 160 166 170 173 175 179 181 181 180 182 183 185 190 192 193 198 196 197 197 197 199 199 196 199 197 198 199 196 194 193 190 192 188 186 186 183 182 178 178 171 159 161 159 113  79  78  83  73  45  37 109 207 217 213 209 214 215 215
 210 210 210 213 206  78  18  34  35  21  22  27  34  37  30  44  54  67  75  83  85  86 104 116 123 131 138 140 140 143 148 151 154 154 159 171 172 176 180 180 186 186 187 186 186 184 188 187 190 195 194 190 193 196 199 199 195 195 198 197 198 195 193 194 192 190 188 187 189 187 183 177 176 169 161 164 165 131  90  85  86  86  65  36 127 216 212 215 216 215 216 216
 211 211 211 212 214  99  21  32  29  23  19  28  37  29  31  40  52  61  74  92  92  88  96 110 122 130 137 142 143 147 147 149 154 155 159 170 174 177 179 182 185 185 188 190 189 194 194 192 192 192 190 185 184 188 189 190 190 190 189 186 189 190 188 186 188 189 187 186 186 187 184 179 175 166 162 162 159 149 107  75  73  95  82  54 130 216 215 215 214 214 216 216
 212 211 211 212 215 129  22  27  29  30  22  36  38  29  32  34  43  60  77  90  98  93  94 105 118 126 137 144 144 145 146 146 154 155 160 170 175 177 178 181 181 185 188 187 191 194 196 198 197 199 195 190 190 190 191 189 187 186 185 189 192 193 190 190 190 191 188 188 186 183 183 180 177 171 165 165 164 155 108  72  68  99  96  78 140 200 185 185 204 215 217 216
 212 212 212 212 217 156  25  26  31  31  26  34  33  28  31  30  45  62  82  88  98  99  93 105 115 126 136 143 143 145 148 151 152 153 161 169 174 177 177 178 182 183 184 188 193 197 196 195 195 197 197 190 188 187 190 186 185 184 187 189 189 192 190 193 190 187 187 187 187 183 181 177 177 170 165 166 169 149  99  74  65  82  82  88 164 216 211 211 216 217 217 216
 213 213 213 212 217 184  40  26  29  28  30  36  31  27  29  29  47  65  84  92  93 100  96 105 120 129 136 141 141 149 149 150 151 148 156 166 173 176 178 181 186 187 188 193 194 195 192 190 190 196 198 189 185 185 182 182 186 187 191 193 195 193 192 192 191 186 184 186 185 182 180 175 170 169 166 169 170 155 106  67  61  68  69  91 190 215 214 217 217 217 217 217
 213 213 213 213 216 204  67  28  32  27  32  35  30  28  26  32  52  73  89  98  97 104 103 101 116 132 137 138 139 150 150 148 150 152 157 168 175 176 178 179 181 184 187 192 193 192 193 191 191 199 191 185 185 183 181 186 194 198 197 195 195 195 196 194 192 191 188 188 186 184 180 178 172 169 168 166 169 166 130  67  50  54  62 111 210 218 216 216 217 217 216 217
 214 214 213 212 214 220 109  27  38  32  35  33  27  27  25  32  54  79  96 100  98 105 104  99 112 127 135 135 138 147 149 150 152 156 158 167 176 178 179 181 185 187 188 191 191 192 190 190 194 201 187 181 185 185 191 193 194 195 193 195 197 198 198 196 192 192 190 188 185 180 180 181 177 171 170 168 169 169 142  75  46  55  60 133 220 217 216 217 217 217 217 217
 214 215 214 214 213 221 150  35  32  30  41  33  29  27  25  31  59  76  89  99 102 104 106 100 113 126 130 134 142 148 151 155 154 158 164 169 175 180 181 185 187 190 192 196 197 196 195 192 199 202 191 188 192 194 194 188 191 196 197 199 198 198 197 196 194 192 192 191 187 180 182 183 180 173 169 170 167 169 144  67  48  57  58 157 223 217 217 217 217 218 218 219
 214 214 214 214 213 217 196  64  21  23  37  31  32  29  22  32  59  73  86  98 105 107 104 100 116 126 125 133 143 147 150 156 158 162 166 169 172 176 181 182 188 192 193 196 198 198 196 197 205 202 192 191 197 193 185 190 196 196 196 198 195 194 192 190 189 190 191 191 191 187 185 185 180 174 170 171 170 167 136  59  43  55  66 170 221 217 218 218 218 218 218 218
 215 215 214 214 215 214 220 118  13  18  28  33  32  29  21  32  57  73  84  96 106 105 101 104 116 123 125 136 144 147 149 153 159 160 164 166 171 174 179 183 184 190 188 191 192 190 190 196 203 196 190 190 195 188 174 179 188 187 187 190 187 180 179 179 176 175 178 178 170 169 162 178 183 178 170 170 169 166 131  55  41  51  79 162 215 219 218 218 218 217 217 218
 215 215 215 215 214 214 219 175  30  16  23  30  30  29  25  33  58  71  85  95 103 101  99 109 117 118 127 139 143 148 150 151 157 155 152 153 158 158 165 174 175 181 184 182 185 182 183 194 196 188 181 185 191 182 167 165 172 172 170 170 171 167 161 154 145 139 135 112 103  98  98 109 145 169 175 169 168 169 125  51  40  46 102 156 188 220 218 217 217 218 218 218
 215 215 215 215 215 214 218 156  28  17  24  24  31  37  26  33  56  71  85  93  98  99  99 110 116 124 129 132 122 122 125 121 131 139 126 114 120 125 132 144 152 153 165 170 170 175 181 189 190 184 175 177 185 172 153 149 153 151 128 121 119 109 108  97  98 103  94  87  85  80  77  75  77 106 140 168 168 169 124  47  37  52 113 139 163 213 219 218 218 218 218 218
 216 215 215 215 215 219 185  75  31  20  30  26  28  34  31  30  51  70  83  90  94  96 101 110 121 128 118  94  84  80  73  68  73  80  73  67  73  81  91 100 109 117 126 129 142 163 173 183 188 182 174 175 178 168 146 128 128 113  86  92  76  69  74  70  71  75  80  84  89  89  85  79  73  75  96 142 169 170 126  49  33  69 153 145 167 214 219 218 218 218 218 218
 214 215 215 215 216 219 144  73  70  48  34  29  24  24  29  29  44  71  84  89  94  93 103 107 104  98  74  61  66  60  52  49  49  57  64  62  60  61  66  74  82  93  94 109 133 155 161 177 181 173 168 169 172 165 147 119 104  88  83  73  67  68  64  52  46  46  55  68  85  87  85  91  94  96 100 117 157 170 128  52  35  99 186 168 170 212 219 218 218 218 218 218
 216 216 216 216 217 214 118  58  70  77  45  30  23  22  20  24  37  68  85  88  94  89  89  77  63  50  43  48  51  52  54  57  58  58  60  58  54  57  56  54  62  81  93 108 129 151 154 165 163 152 152 160 160 154 147 126 107  88  77  71  64  65  68  71  80  97 109 120 131 131 134 125 115 115 107 108 144 165 131  57  43 147 193 166 149 198 222 219 218 218 218 218
 216 217 215 216 218 209 101  48  49  72  68  39  25  26  17  19  37  69  84  91  93  82  64  55  48  40  40  41  54  69  71  63  57  52  49  50  45  41  46  52  54  65  80  94 117 135 146 152 153 144 145 153 153 141 134 121 105  86  84  86  86  86  88 102 117 129 135 135 143 148 152 150 148 140 125 144 158 169 130  66  66 175 190 174 141 171 219 219 219 218 218 218
 217 216 217 217 222 189  90  73  79  68  73  58  26  28  18  16  38  69  83  87  88  68  51  46  46  44  45  52  64  77  86  93  98 101  96  79  57  45  50  52  57  60  65  74  94 110 128 144 162 167 168 165 153 135 124 117 112 119 124 120  96  53  36  49  51  38  44  52  57  88 122 147 155 155 156 162 166 173 130  65  78 176 187 179 159 160 214 220 218 219 219 218
 217 217 216 216 221 151  75  72  93  93  77  69  41  25  20  19  42  69  85  86  82  77  62  54  53  56  67  82 103 111 104  92  75  63  67  58  42  65  65  82  82  70  75  71  70  81 118 150 171 185 196 194 173 149 147 151 152 150 144 119  97  67  72  67  73  65  67 114  64  31  54 110 156 170 172 175 174 172 133  61  67 159 178 173 171 166 208 221 219 218 218 219
 217 217 217 218 215 137  75  75  90  91  73  72  63  24  19  26  45  72  89  87  87  88  85  81  80  85  99 106  96  62  49  40  28  24  43 101  77 150 154 108 122 133 114 113 102  89 102 149 172 188 200 200 187 175 179 170 168 166 127 123 167 112  92  67  68  77 105 157 139 121  95  90 127 159 172 174 169 170 143  73  64 153 174 167 170 164 202 222 219 218 218 219
 217 218 217 219 213 135  81  86  87  90  90  78  69  30  19  27  46  74  88  90  94 104  99  97 102 107 110  90  45  41  92  87  60  69  55  78  97 186 200 159 113 128 151 152 145 125  98 129 168 185 197 199 188 189 195 189 188 152 128 144 159 148 129 127 138 137 154 151 147 158 167 164 145 153 166 171 170 168 155  81  75 159 167 166 170 164 199 222 219 218 218 219
 216 218 218 218 215 136  89 101  92  93 103  77  67  39  20  28  43  73  89  93  93 107 120 120 119 121 105  71  61 100 129 129 113 119 123 132 146 168 160 162 161 141 141 153 160 145 111 118 160 181 194 196 189 193 201 196 187 179 178 159 143 143 147 139 146 152 158 162 157 161 182 189 184 181 179 181 174 170 165  89  72 165 170 167 177 169 198 222 219 218 218 219
 217 217 217 219 218 138 100 116  98  87  78  49  55  49  19  23  43  75  91  96  97 103 114 123 118 111 116 114  98  94 115 133 126 136 149 152 143 158 158 157 171 180 164 149 152 144 112 121 156 176 188 189 186 187 199 196 182 173 165 148 137 142 148 147 156 155 153 159 161 168 181 185 186 189 187 182 173 170 170 112  68 157 171 169 194 181 198 221 219 219 219 219
 218 218 218 218 220 146 116 126  99  87  82  57  53  58  22  20  44  80  93  98 109 119 134 138 130 129 146 154 134 113 117 125 123 128 139 149 151 162 162 159 162 154 147 147 151 129 109 122 148 170 185 190 187 182 190 198 191 176 164 153 143 143 143 144 149 149 149 154 163 176 182 181 188 183 182 180 169 168 170 116  72 156 164 163 185 180 198 222 219 219 219 219
 217 217 218 219 222 156 126 135 107  87  87  71  61  65  32  28  53  87  99 100 115 127 136 145 152 150 150 152 141 131 120 115 122 129 140 151 152 155 159 163 164 160 152 151 143 119 110 123 152 171 182 193 188 182 180 192 196 196 190 180 175 168 162 159 160 164 170 177 187 190 189 189 186 185 179 177 163 163 170 127  71 147 159 155 169 172 198 220 219 219 219 219
 218 218 218 219 221 159 137 152 117  94  88  84  86  77  33  25  59  88  99 107 120 131 145 152 160 151 147 148 149 146 144 140 134 135 142 150 156 161 168 171 171 165 150 142 129 114 110 124 151 171 182 188 191 185 180 183 190 197 201 200 196 193 188 185 184 186 187 190 190 189 189 190 191 191 188 181 168 166 169 138  78 124 146 160 174 168 203 222 219 219 219 219
 218 218 218 219 220 160 138 149 120  98  95 101 114  92  31  25  64  91 100 109 122 135 151 157 153 151 160 167 171 171 163 154 151 149 156 161 165 173 181 180 169 157 144 136 120 114 111 126 153 168 182 188 190 185 180 182 188 197 200 201 201 199 202 199 195 193 193 193 194 193 194 192 188 189 187 184 175 170 167 136  85 122 155 182 181 171 210 221 219 219 219 219
 218 218 218 219 222 158 134 143 118 102 103 114 114  90  37  31  66  92  99 106 118 140 152 150 152 162 166 162 166 169 171 169 167 167 175 177 182 188 183 173 160 154 147 129 116 115 112 125 153 170 177 186 191 183 180 184 188 193 197 198 200 202 202 204 202 199 198 198 198 191 195 193 189 188 188 187 176 167 169 127  79 131 175 183 170 183 214 220 219 219 219 219
 218 218 219 219 223 159 116 134 115  95  97  99 106  85  40  29  62  91  98 109 124 139 137 148 165 167 164 165 173 180 185 180 179 182 188 185 183 183 176 168 160 155 146 127 116 113 114 124 146 168 178 186 189 183 180 185 189 194 195 197 199 200 202 202 200 199 200 196 196 196 196 193 190 192 189 184 177 169 171 119  72 140 180 173 170 188 219 221 219 219 219 219
 218 218 219 219 224 171 101 133 128  95  83  76  91  83  38  29  57  92 100 110 127 130 141 163 172 167 164 173 175 179 182 182 185 185 185 184 183 179 170 166 162 159 148 125 110 106 107 128 153 169 184 190 193 189 181 181 187 194 199 199 201 198 202 204 202 201 200 196 196 198 198 193 191 191 186 184 180 169 168 111  94 160 182 180 173 195 220 219 219 219 219 219
 218 218 219 219 224 196 109 107 122 108  93  75  62  85  45  28  52  89 102 111 117 126 151 164 164 161 165 171 173 175 178 182 185 185 182 182 182 176 171 165 169 168 149 120 105  99 107 140 158 173 186 187 190 191 186 181 184 189 198 201 201 201 201 202 203 205 203 200 196 200 201 198 193 190 188 182 175 171 163 128 153 175 181 175 178 208 221 219 219 219 219 219
 219 219 220 219 221 214 136 111 106 107 120 101  63  76  53  30  49  88 103 108 114 133 152 157 155 156 165 168 168 172 177 184 187 184 185 184 180 176 174 175 176 163 139 117 101  95 115 142 156 176 187 189 194 195 188 183 185 188 193 197 198 202 203 203 204 204 204 203 200 200 200 198 193 191 187 182 174 169 160 145 167 168 173 168 190 219 221 220 219 219 219 219
 219 219 219 218 219 224 165 114 115 112 123 108  91  85  68  39  49  87  99 103 117 140 148 145 147 155 163 163 169 174 179 185 186 186 185 183 181 178 177 172 166 148 126 118 106 102 121 139 158 177 189 191 198 199 192 185 185 186 187 194 194 195 196 200 204 204 204 205 204 203 199 199 195 187 187 181 172 166 159 155 164 169 168 173 210 221 220 220 220 220 220 220
 219 219 219 219 219 222 205 120 103 117 123 110 112  96  71  50  55  87  95  99 120 141 138 135 142 153 160 164 173 177 180 182 183 184 186 186 184 175 171 168 151 125 118 120 114 110 123 137 160 181 191 190 196 203 197 189 185 189 185 190 195 190 184 186 195 201 201 201 202 204 201 198 195 188 184 176 167 163 157 162 180 179 171 196 221 221 220 220 220 220 220 220
 219 220 220 219 219 220 224 173 101 110 117 107  99  93  73  62  70  86  91  99 121 131 121 127 139 153 161 169 171 178 181 180 183 185 186 185 178 166 165 164 131 106 119 122 115 115 119 136 160 189 205 207 211 207 194 186 185 191 189 185 193 192 183 173 180 188 195 199 200 200 200 192 192 189 183 173 167 160 157 161 169 168 189 218 222 221 221 220 220 221 219 219
 220 220 219 220 220 220 222 221 158 101 103 102  90  92  79  64  72  87  91 101 122 121 110 124 140 154 163 167 171 173 176 178 184 183 177 170 162 164 163 151 111  90 110 120 114 114 119 126 157 197 211 206 208 198 183 180 185 190 183 188 198 193 183 170 172 179 183 190 195 199 196 195 190 186 180 171 164 159 153 155 170 196 220 223 221 221 221 221 221 221 221 220
 220 220 221 220 221 220 220 223 219 160 103  93  90  92  71  58  79  86  89 105 121 107 106 124 142 154 160 161 167 170 174 177 179 178 169 160 159 162 160 152 120  77  83  92  77  76 103 118 140 180 192 189 191 183 169 159 146 150 175 193 199 195 191 179 167 171 178 180 187 192 193 194 187 181 174 164 156 156 152 183 222 224 223 221 221 221 221 221 221 221 221 221
 220 220 220 220 220 220 220 221 223 223 182 118  88  88 104  83  75  83  90 108 118  96 104 125 139 153 157 155 160 166 172 176 178 170 160 161 166 162 156 149 143 103  67  59  48  38  45  83 123 160 176 176 179 162 139 115 108 148 185 188 188 195 198 191 179 170 177 182 182 184 189 191 186 179 171 160 156 158 155 197 226 222 221 222 223 222 221 222 221 221 221 221
 220 220 220 220 220 220 221 220 221 221 226 215 193 193 220 151  75  86  91 102 116  96 102 125 137 145 143 152 158 164 170 173 170 163 161 164 164 158 150 138 133 123 108  91  82  83  70  58  92 133 156 162 158 151 162 171 178 181 186 181 183 192 197 194 185 179 181 188 187 178 179 186 185 173 166 157 156 158 153 194 225 222 222 222 222 222 222 221 222 222 221 221
 220 220 220 220 220 221 221 221 221 221 221 224 227 227 230 185  87  84  85 102 116  94 104 128 133 125 129 148 160 167 172 173 167 163 163 162 161 155 139 125 118 122 126 118 100  90  87  73  72  95 109 127 150 169 175 177 182 179 178 177 177 180 189 190 188 179 177 193 197 188 173 179 181 167 157 158 160 157 161 202 224 222 223 222 222 222 222 222 222 222 221 221
 220 220 220 220 220 221 221 221 221 221 221 222 221 221 226 197  96  79  80 101 119  94 106 131 131 109 129 146 155 169 177 173 163 155 152 151 155 145 126 120 118 125 117 114 115  97  84  78  65  66  77 111 145 165 166 173 175 175 176 175 171 172 180 184 185 176 162 175 195 198 178 171 178 164 155 159 161 155 158 204 225 223 223 223 222 222 223 221 222 222 222 221
 221 221 221 221 221 221 221 221 221 221 221 221 221 221 225 214 119  77  82 104 117  91 106 135 131 105 130 143 157 171 179 166 142 143 137 137 145 139 120 114 124 128 123 126 124 113 108 100 101 110 120 121 131 149 166 177 174 178 172 166 168 170 168 176 177 171 169 162 180 196 182 168 177 165 162 161 159 154 159 198 226 223 222 223 223 223 222 222 222 222 222 222
 221 221 220 221 221 221 222 221 221 222 221 222 222 222 224 219 136  86  87 108 118  91 106 138 129  98 124 144 161 175 172 147 133 135 129 125 130 128 122 120 127 125 129 127 137 157 153 138 136 144 147 137 146 164 168 171 168 165 156 161 162 159 160 165 167 171 179 167 169 188 185 173 175 162 167 160 155 160 169 204 225 223 222 223 223 223 223 222 222 222 222 222
 221 222 221 222 222 222 223 222 222 222 223 222 222 223 223 223 150  90  90 102 110 101 112 143 129  94 118 141 162 170 150 133 129 127 120 101 104 116 120 123 128 127 132 130 145 157 153 153 155 151 150 136 157 161 169 167 164 167 162 158 163 162 166 169 162 154 164 162 168 186 184 175 173 164 167 160 154 164 171 212 225 223 223 224 223 223 223 223 223 223 222 222
 221 221 222 222 222 222 222 222 222 222 222 222 222 222 223 225 165  87  90  96  94  92 114 137 128  92 110 137 161 159 135 131 145 136 123 104 104 112 120 123 131 139 146 152 162 173 173 164 162 156 160 148 158 166 182 185 182 183 182 172 167 167 160 165 160 150 163 174 171 179 178 176 172 164 167 160 161 162 163 210 225 223 224 224 224 224 223 223 224 223 223 222
 222 222 222 222 222 222 222 222 222 222 222 223 222 222 223 227 172  93  89  90  95  97 109 130 129  91 102 129 163 160 136 137 153 145 125 115 110 121 125 123 134 149 155 160 162 172 182 176 177 180 182 180 179 186 185 187 190 187 184 178 175 175 176 171 168 152 153 176 174 172 175 180 169 161 163 160 162 153 161 212 226 224 224 224 224 224 223 223 223 223 223 223
 222 222 222 222 222 222 222 223 223 222 223 224 223 223 223 228 186  99  93  93  92  92 102 132 132  95  93 122 156 156 142 136 128 119 113 110 111 116 114 114 118 124 130 137 139 141 142 143 144 145 152 149 144 149 153 161 166 165 160 159 163 158 148 138 147 155 155 161 162 173 174 179 163 170 169 161 165 155 160 214 226 224 224 224 224 224 223 223 223 223 223 223
 222 222 223 223 222 223 222 223 223 223 223 223 223 223 222 228 191 103  95  97  86  80  96 126 119  86  89 112 145 160 161 151 142 119  81  63  52  53  65  73  76  82  91 102 106 106 107 105 106 108 116 122 126 123 120 128 126 124 124 107  87  81  97 127 155 165 168 166 172 179 176 173 161 165 166 152 166 160 175 221 225 224 224 224 224 224 224 224 223 223 223 223
 222 223 223 223 222 222 222 222 223 223 223 223 223 223 222 226 207 113  82  93  90  87  93 110 115  88  78 103 152 174 175 171 175 173 143  93  58  34  36  67  82 113 112 125 151 148 152 175 181 176 179 198 201 183 179 188 160 160 151 103 104 132 166 194 193 185 178 178 182 174 179 165 151 161 155 142 158 158 187 224 225 224 224 224 224 225 224 224 224 224 224 223
 223 223 223 223 223 223 223 224 223 223 223 223 223 223 223 224 221 135  86  86  88  85  85  97 131 114  71  95 141 170 178 175 174 173 170 155 132 111  79  83  86 139 140 144 193 180 181 214 221 213 206 219 220 194 177 191 150 152 161 157 164 174 192 200 200 190 182 181 182 171 174 159 153 156 153 156 157 155 193 227 225 224 224 224 225 225 224 224 223 223 223 223
 223 223 223 223 223 223 223 223 223 223 223 223 223 223 223 224 226 157  88  80  84  90  89  87 112 109  79  90 123 163 178 177 175 171 166 158 150 140 128 119  99 107  94 102 140 121 137 154 152 140 127 140 146 132 120 139 156 165 170 171 171 184 194 199 201 194 187 183 180 174 171 158 165 155 155 169 162 172 212 226 225 225 224 224 224 224 224 224 224 224 223 223
 223 223 223 223 223 223 223 223 223 223 223 224 223 223 223 223 229 188  90  85  91  96  90  90 102  99  79  77 104 147 170 181 182 175 168 152 149 143 134 129 126 115 120 131 136 144 145 143 141 141 137 133 140 150 160 167 172 177 178 177 181 186 195 201 202 197 189 183 173 174 169 158 159 159 158 158 151 189 224 226 225 225 225 225 224 224 224 224 224 224 223 223
 223 223 223 223 224 224 224 224 224 224 223 223 224 223 222 223 228 203 101  86  87  89  91  91  95  98  93  84  91 127 164 178 187 178 170 155 140 134 132 128 122 121 127 144 155 162 164 163 172 171 169 172 176 178 180 179 179 182 184 183 182 190 200 201 198 195 183 179 173 163 159 159 155 144 152 146 159 211 228 226 225 225 225 225 225 225 224 224 224 224 224 223
 223 223 223 223 224 224 224 224 224 224 224 224 223 223 223 223 226 215 112  79  81  92  91  85  89  95  96  82  84 112 143 168 184 180 169 162 145 129 128 126 124 124 127 134 142 150 158 160 167 169 172 179 183 182 182 181 181 182 183 178 183 193 200 197 195 193 183 170 172 159 146 145 147 143 144 140 182 225 225 226 225 225 225 224 225 225 225 224 224 224 224 223
 223 224 224 224 224 224 224 224 224 224 224 224 224 223 223 223 225 223 125  74  86  90  92  90  94 100  98  87  75  92 123 152 177 179 167 161 153 134 127 124 122 126 131 134 135 140 152 160 165 168 172 172 172 175 177 175 174 177 180 181 190 197 198 196 195 192 182 175 163 150 143 148 146 145 139 156 213 228 226 225 226 225 225 225 225 225 225 225 224 224 224 223
 224 224 224 224 224 224 224 224 224 224 224 224 224 224 223 223 224 227 140  74  81  81  88  94  91  87  91  96  77  79 103 136 166 174 171 158 157 146 125 124 126 129 131 136 139 139 146 155 163 160 156 151 152 152 158 158 164 176 183 188 192 194 193 195 196 191 179 171 155 152 150 145 147 140 146 199 228 226 226 226 226 225 225 225 225 225 225 225 224 224 224 223
 224 224 224 224 224 224 224 224 224 224 224 224 224 224 224 223 224 229 153  76  75  73  82  85  77  74  88  90  75  72  84 119 150 161 169 154 154 155 129 118 124 129 136 144 141 140 139 131 123 127 132 135 142 143 156 158 175 181 188 194 190 190 194 195 192 187 171 159 151 158 154 144 135 140 188 228 227 226 225 226 225 225 225 225 225 224 224 225 224 224 223 223
 224 224 224 224 224 224 224 224 224 224 224 224 224 224 223 223 223 230 172  81  75  70  75  79  76  78  84  85  87  79  77  96 132 141 155 153 150 149 143 128 118 121 129 132 135 136 138 136 138 146 148 151 154 160 164 175 184 189 194 195 191 191 194 191 188 180 170 160 151 151 153 147 131 176 224 227 226 226 226 225 225 226 225 225 225 225 225 224 224 224 223 223
 224 224 224 224 224 224 224 224 225 224 224 224 224 224 223 223 223 229 192  88  78  71  67  70  78  83  76  84  97  91  72  75 108 138 153 159 154 150 152 147 133 128 126 129 134 134 139 145 149 151 154 156 154 164 177 184 189 194 194 192 192 191 192 192 187 181 168 161 161 143 133 136 138 205 231 225 225 226 226 225 226 226 225 225 225 225 225 224 224 224 224 223
 224 224 224 224 224 224 224 224 225 224 224 224 224 224 223 223 223 229 201  93  77  74  69  64  72  77  76  73  84  90  78  72  90 125 149 157 156 154 157 157 149 142 137 136 140 146 149 151 154 146 152 161 161 174 184 188 190 194 192 194 193 193 194 191 181 173 167 153 151 142 132 135 160 208 228 226 226 226 227 225 225 225 225 224 225 225 224 224 224 224 224 223
 224 224 224 224 224 224 224 224 224 224 224 224 224 224 224 224 224 230 182  90  80  79  72  64  61  66  74  80  86  89  81  72  81 105 130 150 155 157 163 164 158 154 155 151 149 155 156 155 147 152 164 165 170 182 188 191 194 195 195 197 196 193 193 189 182 173 163 163 147 129 135 160 169 208 226 227 226 226 226 226 225 225 225 224 224 225 224 224 223 223 223 223
 224 224 224 224 224 224 224 224 224 224 224 224 224 224 224 224 224 228 164  91  86  86  78  70  61  57  66  72  83  82  83  80  76  84 105 135 149 157 161 171 169 160 161 166 161 155 157 163 165 171 173 180 189 191 198 199 198 198 199 201 201 195 192 180 173 163 156 150 130 133 161 170 172 215 225 226 225 226 225 225 225 225 225 224 224 224 224 224 224 223 223 223
 224 224 224 224 224 224 224 224 225 224 224 224 224 224 224 224 225 222 160 102  87  89  89  78  69  60  56  67  78  77  88  86  73  80  98 127 138 149 161 173 179 175 166 167 168 163 163 174 185 180 180 191 197 201 202 205 203 200 200 203 202 196 182 172 173 152 142 134 143 169 175 169 177 218 224 226 225 225 225 225 225 225 225 225 224 224 224 223 224 223 223 223
 224 224 224 224 224 224 224 224 224 224 224 224 224 224 224 224 227 214 157 122  89  91  96  86  73  70  57  55  65  76  80  83  74  78  89 113 129 143 159 170 180 183 178 165 165 170 169 181 182 181 186 192 193 200 202 200 203 201 201 200 193 187 171 165 163 149 127 141 168 176 177 171 190 225 218 226 226 225 225 225 225 225 224 224 224 224 224 224 223 223 223 223
 224 224 224 224 224 224 224 224 224 224 224 225 225 224 224 224 229 201 147 144  98  89  95  96  88  76  67  58  53  59  72  78  78  72  86  97 114 128 148 165 175 178 178 167 164 167 176 186 186 191 198 199 202 204 195 196 200 195 197 187 175 174 174 153 134 130 133 168 179 176 176 172 202 227 213 224 227 225 225 224 224 224 224 224 224 224 224 223 223 223 223 222
 224 224 224 224 224 224 224 224 224 224 224 224 224 224 225 226 233 181 139 156 128  87  92  95 100  90  77  76  61  48  51  64  74  71  77  81 105 125 138 151 165 170 168 162 160 167 181 188 198 191 188 187 194 199 202 205 194 186 187 184 179 160 150 146 119 132 166 183 185 179 176 183 224 225 210 214 230 225 225 224 224 224 225 224 223 223 223 223 223 223 223 222
 223 223 223 224 224 224 224 224 224 223 223 224 224 224 224 232 196 146 140 155 171 121  88  94  97  97  91  84  73  61  50  49  62  72  67  69  89 116 120 126 148 156 156 154 160 173 185 183 187 182 176 180 178 185 192 193 190 183 183 177 169 154 144 130 126 165 184 184 185 183 180 215 236 223 216 170 189 233 224 224 224 224 224 224 224 224 223 223 223 223 222 222
 223 223 223 224 224 224 224 224 224 224 224 224 224 224 232 179  82 135 148 152 171 180 123  97 100 101 101  95  89  73  61  49  48  61  67  69  78  88 101 111 130 138 143 148 149 164 175 177 173 173 170 165 168 176 182 181 181 182 171 157 155 134 107 124 164 183 187 187 184 178 201 237 232 225 222 172  82 195 234 225 224 223 223 223 223 223 223 223 222 222 222 222
 223 223 223 223 223 224 224 224 223 224 224 225 224 230 209  56  58 149 148 153 164 186 190 133 105 105 102 101 100  88  71  63  53  48  51  66  74  76  92 105 118 132 129 131 141 153 163 166 163 154 159 161 165 167 166 173 171 170 160 144 133 113 120 165 181 185 191 187 180 191 232 236 230 226 220 206  69  59 192 233 224 223 224 223 223 222 224 222 222 222 222 222
 223 223 224 223 223 224 223 223 224 223 224 224 225 231 123   3  89 152 147 155 163 173 191 195 141 107 105 105 106 102  92  75  66  60  52  50  58  67  75  85  98 115 119 118 131 140 152 157 153 148 153 149 161 158 156 156 154 153 146 125 110 129 171 180 185 190 189 183 183 225 240 233 230 226 219 217 116  13  60 190 233 223 223 223 222 222 222 222 222 222 222 222
 223 223 223 223 223 223 223 223 223 223 223 223 231 192  38  11 105 152 149 157 165 171 178 194 201 153 108 106 106 104 105  95  74  65  60  53  45  53  65  71  79  98 106 111 118 130 138 143 147 147 147 141 144 146 147 135 127 124 117 118 148 175 182 187 190 195 185 175 218 240 236 232 231 226 219 219 151  31  22  60 191 232 222 222 222 222 222 222 221 221 221 221
 223 223 222 223 223 223 223 223 223 223 224 226 228 105   8  22 109 152 150 157 166 173 178 184 196 206 167 113 103 109 109 109  90  71  64  61  57  48  45  52  62  75  92 107 116 124 120 121 122 133 130 123 121 124 119 114 109 115 137 164 181 183 187 193 193 186 176 213 242 238 235 233 231 227 221 217 176  44  30  20  65 199 232 222 222 222 222 221 221 221 221 221
 222 222 222 222 222 223 222 223 223 223 227 234 155  27  15  21 106 149 150 159 170 175 180 185 190 197 210 187 130 100 104 107 103  88  74  66  64  63  55  44  44  48  56  76  87  88  93  95 102 102  95  89  87  94 101 123 140 156 171 179 183 186 191 194 185 173 213 242 239 235 235 235 231 227 221 217 193  58  29  31  19  71 200 232 222 222 220 221 221 221 221 221
 222 223 221 222 222 222 223 222 224 224 215 141  36  16  20  22  98 145 148 160 171 176 183 188 192 195 198 210 206 161 116 106 107 107  94  76  69  66  65  58  51  46  41  39  40  42  43  44  49  46  54  73  87 117 139 152 161 173 180 184 189 191 190 182 171 210 242 240 237 236 236 234 232 227 222 217 205  79  28  32  29  18  69 186 223 221 220 221 221 221 220 220
