P2
# Generated by OpenCV 4.2.0
92 112
255
 207 206 206 206 206 205 205 203 202 202 201 200 200 201 201 201 200 202 203 205 207 208 209 213 203 183 177 175 164 149 143 135 142 138 142 142 149 165 177 184 182 175 171 166 152 123 100  98  90 130 150 141 156 133 139 130 123 134 150 107 143 166 165 168 155 145 184 204 204 207 205 202 203 197 205 210 212 210 213 212 213 212 212 211 212 212 210 212 212 212 211 211
 207 207 207 205 206 205 204 202 202 202 201 201 200 201 201 202 201 202 204 205 207 207 209 174 156 139 132 138 147 140 141 144 139 142 128 132 151 152 147 143 141 145 152 158 162 158 153 131  99  93 113 130 150 154 141 147 141 146 152 160 163 179 167 138 155 154 171 206 206 205 204 206 204 202 201 207 211 210 211 211 212 212 211 212 212 212 211 212 211 211 212 212
 206 207 207 206 206 206 205 203 204 202 202 201 200 201 201 202 202 202 203 205 209 207 150 130 136 103  86  92 115 133 120 139 142 136 149 149 130 116 120 125 127 127 130 133 120 124 135 127 114  96  79  98 148 172 162 161 150 150 137 142 160 138 160 167 163 153 159 191 198 199 204 203 204 204 203 204 210 210 211 212 212 212 210 212 212 212 212 211 211 211 212 212
 207 207 207 206 206 206 205 204 203 202 202 201 201 202 202 202 202 203 204 206 212 153  95 108  84  75 102 122 124 125 115 111 105 116 137 138 143 160 148 138 135 127 125 127 118 112 120 116 113  98  88  70  76 148 153 166 196 187 190 187 170 155 147 189 191 164 154 150 169 171 176 194 201 202 205 199 206 209 212 211 211 211 212 212 212 211 212 212 211 211 211 211
 208 207 207 207 207 206 205 204 203 204 202 202 201 202 202 202 203 203 205 209 192 117  89  76  62  65 125 128 105 102 132 132 126 118 125 127 119 121 115 114 108 118 110 101 109 116 121 126 121 102  83  78  55  75 122 119 162 191 174 165 197 182 170 175 182 183 147 151 176 172 163 164 170 190 205 199 195 211 211 210 211 211 211 211 212 212 211 211 211 211 211 211
 208 207 207 208 207 207 206 205 203 203 201 202 203 202 202 203 203 204 200 198 174 133 101  81  88 119 111 102 117 119 129 144 150 143 128  99  78  79  78  73  68  66  74  72  75  88  95 104 117 104  86  82  84  48  90  90  89 141 163 145 149 166 169 175 177 179 165 145 144 160 174 167 165 163 174 202 185 207 209 211 211 211 211 211 211 211 211 211 211 211 211 211
 208 208 207 207 207 207 206 206 204 203 202 202 202 201 201 201 200 187 172 166 125  80  61  78 124 122 119 133 142 144 121 122 110 105 105  95  64  61  81  41  43  24  39  52  52  46  63  80  83  98  84  68  63  68  45  88  68  84 118 142 149 152 143 151 167 178 180 155 131 135 153 147 147 175 159 173 178 195 208 210 209 210 211 211 210 211 211 211 211 211 211 211
 207 208 207 208 208 207 206 205 204 204 202 202 200 199 200 200 197 175 138 107  86  92 111 138 127  85  71  59  56  87 101  87  90  80  59  71  96  75  78  83  56  25  18  27  42  51  40  51  69  80  64  59  55  53  52  52  81  56  84 100 139 143 147 143 134 144 158 162 142 130 139 146 133 142 173 155 162 177 207 210 210 208 210 211 212 210 211 211 210 211 211 211
 207 208 207 207 207 207 206 204 203 203 202 202 201 201 201 192 184 153 126 131 137 149 133 106  77  78  80  89  64  43  67  95  74  76  60  44  61  74  70  80  98  68  31  25  24  39  46  26  43  73  78  27  28  41  53  31  68  65  59  77  93 124 137 136 136 115 131 150 160 133 136 126 128 114 143 167 142 145 190 208 210 208 210 210 211 211 211 210 210 211 211 211
 207 207 207 207 207 206 206 204 203 203 202 201 202 205 192 158 144 115 102 115 141 138 116  73  76  98 103  89  57  34  15  35  82  69  59  59  42  52  72  72  83  90  39  41  28  33  26  31  17  51  75  58  17  17  36  36  41  66  53  62  64  82 117 135 121 121 111 125 149 132 111 115 107 113  96 123 147 129 142 195 211 208 210 210 211 211 209 210 211 211 211 211
 207 207 207 207 206 206 206 204 203 202 202 200 205 198 157 139  99  84 140 154 154 126 119 110  98  89  73  56  45  33  32  20  20  60  48  60  60  35  49  61  59  91  70  26  38  42  23  21  25  28  48  65  27  11  18  30  29  51  53  44  62  67  88 119 111 117 100 110 128 130 107 105  84 115 100  75 121 133 125 154 212 210 209 210 210 210 210 211 211 211 211 212
 207 207 207 207 207 206 205 204 203 202 202 203 203 162 129 110  98 144 151 125 106 105 127 106  82  77  66  62  59  43  33  34  31  29  49  34  56  54  41  41  56  62  82  39  30  47  30  10  27  28  33  57  46   8  10  18  20  35  45  31  55  68  80  92 100 104  88  97 120 112 114 102  85  77 106  76  87 105 135 129 182 213 209 210 209 210 211 211 212 211 212 212
 207 207 207 207 206 206 206 204 203 202 201 204 170 103 109 105 146 136 109  81  80 101  88  67  56  39  35  30  26  34  53  45  25  26  35  41  26  49  44  39  53  55  70  66  30  39  42   9  16  27  33  47  53  16   5  18  18  23  33  27  53  77  69  81  93  90  82  87 105 100 102  88  72  71  95 100  81 101 121 127 145 214 208 208 210 211 211 211 211 212 212 212
 208 207 206 206 207 206 205 205 202 201 203 195 127  87  92 125 124  97  61  68 100 100  68  57  54  51  53  56  41  21  24  44  43  30  20  45  32  31  40  37  36  48  52  74  38  27  43  14  10  26  37  40  42  24   6  14  17  19  30  30  47  70  58  72  81  93  82  78  90 101  87  88  67  58  59  86  75  78 102 128 117 204 209 209 210 211 211 211 212 212 212 212
 207 207 206 205 206 206 205 205 204 203 205 172 133 107 117 114  73  56  61 100  87  53  43  51  47  47  51  45  45  46  38  31  24  42  20  18  47  30  26  38  32  33  36  57  54  19  33  20   9  20  36  37  40  25   7   9  14  25  36  31  42  73  60  69  71  82  84  77  84 104  78  87  64  46  37  57  88  71  77  97 103 182 213 210 210 210 211 210 211 211 212 212
 206 206 206 206 206 206 205 205 203 204 194 156 126 120 104  64  52  69  65  91  95  66  60  62  55  56  49  43  37  35  31  37  19  22  38  17  22  34  22  27  39  27  32  45  52  24  22  21   9  17  33  33  36  28   8   8  17  23  42  32  37  71  49  67  65  71  75  72  89  97  68  82  60  53  35  40  71  69  57  78  93 169 208 210 210 209 211 211 211 211 211 212
 206 206 207 207 206 206 205 203 202 205 180 144 116 100  62  52  82  70  63 113  98  91  68  59  55  56  50  47  44  31  22  21  21  10  20  26  15  29  26  24  33  33  27  36  43  31  20  25  11  16  32  29  36  32  11   8  19  20  39  32  33  49  41  60  60  69  75  74  86  87  71  84  58  57  23  24  42  57  45  54  86 164 204 210 209 210 210 211 210 210 210 211
 206 207 206 206 206 205 204 204 204 205 169 122 118  76  48  64 101  73  95  78  71  74  79  91 105  93  64  43  49  56  50  38  34  15   9  18  17  23  27  30  24  31  31  35  36  35  24  27  19  19  32  31  27  30  17  13  26  20  33  29  35  33  37  48  57  66  71  75  93  83  73  74  56  49  20  25  24  39  40  39  71 141 206 209 206 206 203 206 209 209 209 209
 206 206 206 207 206 205 205 205 205 204 147 104 109  56  44  79 108 105  99  88  85  67  61  60  63  77  87  80  67  58  49  50  48  44  20  14  19  15  24  31  31  26  30  31  34  40  30  33  27  28  31  36  29  28  25  16  25  29  31  25  32  29  37  42  56  68  67  82  88  67  68  66  54  43  24  24  15  29  34  50  70 110 198 203 201 204 206 206 207 207 207 207
 206 206 206 206 206 205 205 206 207 188 124  99  87  47  70  99  92  79  72  88  78  68  61  46  33  31  40  55  74  91  88  76  59  47  44  31  27  28  26  26  31  31  34  33  32  44  39  36  38  38  37  40  32  27  32  26  30  30  27  25  36  32  44  46  56  62  65  85  71  67  71  55  54  35  27  18  21  29  27  50  66  83 139 190 207 204 204 203 203 203 203 203
 206 207 206 206 206 206 206 207 199 157 108  98 100  67  94 104  90 103 113  99  81  64  50  44  41  35  26  20  23  36  60  82  83  83  72  67  48  37  34  36  33  36  36  41  38  41  54  52  48  50  49  46  40  35  40  42  30  26  28  32  36  33  45  46  61  68  72  78  62  66  57  49  47  31  28  28  34  25  34  55  59  81  87 141 194 202 200 199 200 200 200 200
 206 206 206 206 206 206 206 206 183 136 106  95 115  96  95 113 115 106  80  50  39  32  31  32  34  33  36  36  33  35  33  36  40  48  53  67  73  69  63  55  54  55  52  57  51  49  54  65  65  67  61  58  52  48  46  48  38  34  32  39  34  40  41  55  72  72  76  64  61  66  55  46  42  34  39  39  36  37  52  56  63  86  85  91 172 198 195 195 196 196 196 196
 206 206 206 206 206 206 205 205 178 135 102  92 111  81  85 105  85  60  38  31  36  40  43  37  30  26  26  25  24  23  23  28  38  44  47  42  48  56  60  63  62  59  67  78  77  64  64  70  81  89  82  79  64  67  70  56  54  41  40  43  36  48  56  68  72  77  76  73  80  70  51  49  42  51  51  48  48  51  57  48  49  67  92  79 142 192 191 190 191 190 190 190
 206 206 206 206 206 205 205 204 169 139 101 104 100  58  82  98  67  41  38  44  38  31  25  14  13  16  22  23  31  35  35  40  45  54  63  63  65  68  65  73  85  86  83  86  94  93  88  90  95 109 114 106  92  89  91  76  62  54  59  53  53  60  68  74  80  85  88  83  68  66  73  62  55  52  49  53  54  54  52  40  34  44  64  89 150 189 184 184 184 184 184 183
 206 206 206 205 205 205 206 192 164 132 101 115  95  50  80  75  45  41  26  15  16  23  18  19  27  42  41  44  46  46  52  64  72  78  82  81  81  88 101 104 115 129 127 122 117 120 122 119 122 119 126 140 132 125 115 100  86  78  71  70  72  82  91  97 104  99  97  97  88  81  77  82  66  61  63  63  57  49  40  25  29  39  36  71 134 178 178 177 176 177 176 175
 204 203 204 203 203 203 207 180 135 106 101 106  98  88  93  46  43  24  16  22  30  29  34  50  54  50  45  52  60  66  76  85  90  91  99 105 109 121 134 140 148 152 152 150 150 147 148 154 148 143 136 149 153 154 144 134 115 104 100 101 105 108 118 134 133 131 140 135 121 110  98  89  82  69  61  59  53  50  47  41  47  33  37  52 115 170 171 169 169 169 168 168
 201 201 201 201 201 201 200 173 129 117 116  95  98 104  90  50  27  24  33  38  42  47  56  51  42  46  57  65  66  85  97 102 110 122 129 134 141 152 157 161 166 166 169 169 165 166 167 167 166 160 156 169 167 167 170 158 143 138 130 129 132 143 155 164 164 163 157 154 154 145 129 113  99  86  77  67  62  58  55  47  34  18  27  35  70 141 162 162 160 160 159 159
 198 198 197 198 197 200 184 141 134 126 109 100  91 113  96  36  23  39  45  41  45  42  46  46  52  59  65  70  86 108 120 126 135 143 146 150 160 164 168 173 175 175 179 175 172 178 179 176 174 174 177 181 178 178 178 174 167 163 162 158 165 169 172 176 179 178 174 169 167 168 157 147 133 117  99  90  77  72  56  35  36  33  33  46  66 108 145 154 153 151 150 150
 195 194 194 194 193 196 163 129 140 120 113  87 106 112  53  27  48  55  45  38  35  38  48  48  57  68  78  99 116 128 137 143 149 155 158 165 167 170 176 178 181 184 184 182 183 184 183 185 185 187 186 187 187 186 181 180 178 177 179 179 180 182 183 185 186 187 186 182 177 178 175 167 156 144 126 110  96  73  57  43  40  50  36  39  50  83 141 146 141 142 141 140
 190 190 189 188 187 193 149 125 130 119  99  77  99  78  34  34  39  26  29  37  36  45  46  59  74  83 108 124 131 142 148 154 161 166 167 170 173 175 180 182 184 186 190 187 186 185 188 189 189 188 187 189 189 187 186 185 183 183 184 187 188 189 190 191 191 191 191 188 184 181 180 176 170 162 152 135 117  82  46  50  51  42  54  42  54  87 121 146 130 132 132 132
 185 185 183 184 183 181 144 135 116 101  87  74  79  67  49  34  33  33  34  42  45  42  49  63  82 104 127 139 146 155 159 164 168 173 174 175 178 180 180 183 187 189 188 187 187 187 187 186 187 188 187 188 188 189 188 189 186 185 188 190 193 191 191 192 196 195 193 192 187 186 184 180 177 171 167 159 135 111  63  51  51  48  54  48  66  97 119 142 124 126 126 126
 178 178 177 176 177 171 134 107  94  95  72  68  71  85  52  48  41  35  39  36  37  39  45  67  95 123 145 151 155 164 169 172 173 175 175 179 179 180 180 182 184 184 185 184 183 181 179 178 178 180 184 186 187 188 189 188 186 186 187 189 193 193 193 192 193 195 193 190 185 189 187 184 182 176 172 171 160 130  89  59  50  44  43  61  78  81  95 121 121 120 120 121
 171 171 170 170 173 160 135  90  95  81  58  52  72  84  47  41  49  47  41  38  42  49  58  78 104 133 155 162 164 171 172 173 173 174 174 176 177 181 182 184 186 186 186 185 186 184 185 182 178 179 179 177 181 183 183 185 182 181 184 186 187 192 188 188 189 191 188 184 184 187 190 186 184 183 182 177 169 154 120  81  67  46  36  63  79  63  81 120 115 116 117 118
 163 162 162 160 160 152 130 104  90  66  57  42  60  75  46  35  40  32  30  43  54  60  70  88 116 143 161 167 171 172 173 174 177 178 176 177 180 183 186 185 185 184 184 186 186 183 182 185 184 183 181 180 179 179 178 179 179 176 178 179 183 187 184 181 182 184 183 182 180 180 185 183 182 184 185 183 176 170 137 106  84  63  42  49  72  63  98 117 114 115 115 116
 155 155 155 152 148 152 118 106  90  58  52  41  76  62  37  42  53  33  40  60  64  74  84 100 125 148 162 170 173 172 175 176 179 177 177 178 179 180 182 183 181 182 185 184 181 178 178 179 178 177 177 174 179 181 180 178 179 181 181 183 185 185 188 186 189 188 188 186 186 186 184 184 180 183 185 186 186 178 152 126 112  79  53  46  69  72 113 114 113 114 114 114
 147 146 146 146 144 150 114  98  91  57  54  47  69  61  40  48  52  42  60  61  72  90  97 116 136 151 161 173 173 174 178 179 176 177 176 177 178 178 176 177 177 178 178 175 172 174 175 173 173 175 174 176 176 174 172 173 177 183 183 187 186 185 185 187 186 187 186 188 186 187 185 184 187 185 183 189 186 178 161 143 124 100  58  53  88  85 108 112 112 112 113 113
 138 138 137 138 135 140 105  87  80  59  62  43  64  60  37  48  62  70  69  68  93 105 118 137 152 156 166 169 171 173 174 176 175 172 170 172 172 169 170 172 171 170 167 165 164 164 163 166 170 172 172 174 176 171 170 171 174 178 179 182 181 182 184 187 187 185 184 185 184 184 182 182 182 183 185 185 180 177 169 163 138 103  68  73  94  82 111 114 113 113 114 115
 131 130 129 127 133 137  99  92  82  64  52  43  65  47  42  60  66  75  72  92 106 113 135 153 160 165 165 164 171 173 174 173 173 168 172 176 178 178 181 182 183 181 179 176 175 177 174 174 171 173 172 171 171 173 171 172 172 175 178 181 180 179 186 186 187 186 186 186 185 183 182 184 183 182 184 180 174 180 175 171 152 111  66  58  80  76 107 116 114 115 116 116
 125 125 125 124 130 130 118 103  78  75  71  42  61  48  57  56  64  72  87  92 107 128 149 165 166 167 154 163 170 172 175 176 176 175 178 182 184 185 186 189 192 188 189 190 189 190 186 187 186 183 180 176 168 167 171 172 170 172 175 174 176 176 179 180 180 187 187 184 185 181 183 185 182 182 183 181 173 172 179 174 156 125  82  45  84  95 108 115 115 116 116 117
 122 121 123 126 126 102 110 106  83  82  82  53  68  62  65  48  64  81  80  90 111 132 155 165 174 165 161 165 168 171 173 175 176 176 175 173 178 186 190 191 189 192 192 192 191 189 189 187 186 183 185 187 184 182 179 173 166 167 168 167 166 171 174 177 177 176 177 174 180 183 179 183 179 184 181 181 174 169 170 176 170 142 106  75  98 124 123 114 116 116 117 118
 119 120 119 117 121 101  80  83  70  83  81  75  71  77  63  43  70  77  67  94 112 139 156 163 179 169 162 167 163 165 172 175 176 175 172 177 178 183 183 182 186 189 190 191 189 191 194 193 191 186 184 188 186 187 188 184 182 180 183 186 187 189 192 194 192 195 194 190 189 183 179 178 178 179 181 180 173 167 162 176 174 147 114  91  85 109 119 116 116 117 118 118
 117 116 116 115 119  97  76  71  59  73  86  81  67  67  68  42  64  61  68  89 124 145 165 164 167 166 161 162 165 168 171 171 173 172 175 176 176 175 172 174 185 185 186 187 186 189 193 193 193 191 189 187 185 186 186 187 191 191 193 194 197 200 203 204 204 203 201 200 202 196 194 191 187 184 175 172 171 164 164 176 172 148 110  95  85 109 117 116 117 117 118 118
 116 116 116 118 129  89  66  69  70  60  77  68  62  49  60  52  55  56  68 104 145 153 161 166 165 167 161 161 168 173 169 168 171 177 182 184 186 191 194 194 197 200 199 198 198 195 192 191 193 190 187 183 184 189 186 185 188 193 192 188 198 201 201 201 201 199 199 196 193 191 190 189 190 189 181 172 168 169 168 175 169 146 100  83  76 109 118 116 118 118 119 119
 116 120 130 135 129  88  73  81  76  62  55  63  71  47  42  53  57  57  73 115 153 167 168 167 170 171 166 166 170 173 171 175 178 185 189 192 193 194 195 193 194 195 196 198 199 201 201 200 195 193 190 186 189 189 188 184 185 190 193 194 198 201 201 198 195 196 197 190 190 193 190 187 186 181 178 174 169 167 168 166 166 135  91  70  76 118 123 118 119 118 119 119
 118 118 119 122 111  72  86  93  84  73  44  74  73  56  39  41  44  53  79 113 133 154 162 170 169 170 170 168 173 175 174 180 186 188 187 191 190 189 188 190 189 188 189 191 193 195 199 200 198 199 195 196 193 191 189 180 183 189 192 195 193 190 191 191 196 200 196 194 193 189 189 189 190 185 177 172 170 170 168 168 167 139  85  68  83 123 122 122 120 119 119 119
 118 118 117 121 107  69  85 101  90  74  41  61  81  40  52  46  43  51  75 102 126 151 165 174 172 170 173 175 179 175 175 185 188 186 185 184 179 179 178 176 174 170 174 180 187 191 193 192 192 188 188 190 191 188 186 182 184 186 186 181 183 186 191 195 197 194 189 185 183 183 188 188 187 185 180 179 178 169 162 169 172 144  77  65  97 132 128 128 124 123 121 120
 118 118 119 119 111  71  95  96  91  67  64  59  67  47  42  44  49  56  70  97 137 159 167 173 175 172 176 180 176 177 184 187 183 182 181 174 177 171 165 160 158 162 163 168 173 173 176 178 178 177 175 174 179 183 179 179 181 181 174 173 180 182 183 181 180 179 176 174 173 179 180 181 184 183 183 187 186 176 168 167 174 144  66  66 108 142 134 131 127 125 122 120
 119 119 118 118 121  80  88 106  86  64  62  73  64  53  30  27  56  60  69 107 141 157 159 165 169 172 181 181 179 184 185 180 179 183 175 171 169 162 155 151 149 151 153 154 150 154 161 166 166 169 162 162 170 173 168 170 172 167 165 164 167 170 172 169 171 166 167 169 169 169 171 177 179 184 187 190 191 187 176 169 173 145  65  68 124 146 138 132 127 124 121 118
 119 118 118 119 120  89  72  99  88  77  55  56  61  60  46  41  61  61  81 121 145 157 161 167 172 172 177 184 191 182 177 176 172 163 149 143 134 138 141 138 139 143 143 132 129 129 135 150 149 149 150 153 165 163 156 154 156 159 160 150 149 155 155 157 158 154 156 156 153 146 148 162 166 170 174 185 187 185 184 171 169 144  66  73 141 147 141 135 127 123 119 114
 118 119 120 119 121 101  88  92  72  76  45  37  71  58  50  70  61  62  85 128 156 158 164 170 166 177 182 190 180 171 167 156 136 123 120 104 117 118 113 123 113 107 103  92  95 104 102 118 128 128 136 149 158 155 145 141 142 151 152 136 135 138 134 128 131 134 135 135 146 135 140 138 142 143 142 158 176 179 183 173 172 133  57  91 149 147 143 136 130 125 122 116
 118 120 120 119 120 110  82  91  75  90  61  43  80  52  57  77  60  56  86 134 162 165 166 163 163 175 190 179 164 156 144 123 106 103 105  95  95  89  84  79  76  65  71  65  67  71  80  85  94 103 122 140 145 144 136 135 143 149 141 120 114 114 108  96  93  88  87  87 101 112 120 118 126 124 115 119 139 170 178 175 171 129  58  99 149 147 142 136 133 127 124 118
 118 120 120 119 120 120  71 107 173 126  64  56  67  65  61  80  54  56  89 143 173 167 161 161 156 165 170 150 136 129 119 111 110  96  83  78  68  52  50  51  48  46  50  51  53  62  70  73  76  93 115 131 138 134 125 130 138 141 128 115 106  88  81  68  67  58  59  63  66  76  83  89  96  96 102 113 126 137 155 173 173 129  63 107 148 145 139 135 134 127 122 117
 118 120 120 120 120 119  76 159 204 140  79  64  65  81  61  72  51  56  90 153 178 166 160 159 158 166 141 128 120 110  86  72  63  58  57  56  53  45  33  34  37  40  42  46  46  53  58  65  74  87 109 121 124 118 112 122 127 124 121 113  93  73  65  63  57  49  46  47  48  51  46  46  61  78  87  89  85  95 121 152 172 128  72 133 140 140 136 135 130 124 120 115
 120 120 120 119 120 120  97 176 146 103 107  65  59  72  57  60  47  53  94 159 179 165 160 157 159 154 124 111  99  76  58  54  52  56  59  58  59  62  64  64  66  66  67  64  64  63  63  66  68  82  92 106 105  99 101 111 115 112 109  97  85  75  59  54  56  61  52  50  51  48  47  52  54  58  60  61  63  83 112 136 170 130 104 148 132 134 132 131 125 122 120 115
 119 120 119 123 125 120 110 152  87  58  95  91  71  70  54  53  48  60  89 157 177 167 159 153 153 137 107  85  66  59  60  63  71  78  82  86  81  77  73  64  64  62  63  68  76  75  74  73  74  78  84  92  96 102 110 114 107  99  94  87  79  70  66  71  74  73  74  77  79  83  86  85  80  81  85  81  72  82  93 117 169 140 116 170 135 127 130 131 127 125 122 117
 118 119 118 119 123 120 149 149  78 101  94 102  92  75  64  48  47  61  91 161 177 170 159 155 149 121  97  78  67  69  73  78  82  77  62  44  31  30  30  24  22  32  43  54  61  75  79  77  75  75  81  91 110 134 143 139 118  91  82  79  73  75  79  72  60  55  43  44  45  57  70  80  90  96  95  94  91  87  84 115 165 139 108 151 138 124 130 132 132 130 126 121
 118 119 117 117 116 118 175 132 120 151 114  97 119 110  84  61  44  69 101 165 178 167 163 164 151 119  91  87  88  86  84  83  64  32  24  14  20  38  29  49  29  61  53  51  63  58  71  76  76  76  80 103 137 165 177 170 135  97  78  75  76  75  65  54  44  21  30  32  34  18  22  29  41  62  82  94  98  96 103 129 165 139  94 130 136 123 126 129 129 129 125 123
 117 117 117 116 113 129 166  99 161 165 137 121 133 133 122  83  53  70 107 167 178 169 163 160 146 129 108  94  97  99  94  63  22  18  47  33  28  34  26  35  42  94  93  50  45  71  71  77  79  87  87 110 154 179 193 188 153 101  83  75  71  70  56  50  52  26  42  19  30  28  33  55  29  18  44  82 103 109 109 138 164 139 110 149 144 123 125 124 127 124 121 117
 116 117 117 116 114 134 157 131 180 163 163 155 152 130 135 104  56  82 112 168 178 173 164 148 131 119 118 114 106  94  69  46  55  77  86  80  71  76  70  68  78 102  88  71  50  50  71  91  99 104 104 114 154 182 198 196 167 111  94  89  86  61  37  55  79  49  46  41  39  28  60  85  60  44  35  59  98 121 122 135 161 140 124 145 158 128 130 124 125 121 116 111
 116 116 117 117 114 130 149 166 173 145 157 169 144 125 129 112  61  81 120 166 173 171 155 144 132 118 109 102  91  80  83  89 100 103 103 107 102 102 102 105  96  97  93  93 100 104  97  97 114 125 121 130 161 186 200 201 182 134 108 109  98  73  81  84  91  98  95  90  87  82  96  95  88  88  77  61  73 104 120 131 161 132 140 138 150 125 130 127 122 119 113 109
 116 116 116 116 113 133 167 181 151 133 120 106  77 107 130 108  65  79 127 169 175 165 156 153 144 135 128 118 107 113 130 132 127 119 111 105 102  96  97  98  99 106 100  93  98 103 100 110 130 134 132 149 171 187 202 208 196 162 124 116 105 104 109  97  94  96  99  95  95  98  96  93  99 110 116 111 101 109 126 140 161 119 136 150 145 126 126 125 118 114 111 107
 116 116 116 116 113 132 185 166 130 118 110  90  58  84 149 132  71  82 130 170 178 169 161 158 151 140 133 136 137 138 136 131 128 122 109 101 103 104 104 105 104 101  97  98  96  95 105 129 143 141 142 159 179 195 204 208 206 181 143 130 119 100  97  93  93  98 102 100 102 103 103 104 111 120 132 138 137 133 143 156 169 111 126 165 158 123 118 118 114 109 106 103
 115 115 115 115 112 136 182 146 121 109 107  98  67 102 184 149  70  73 134 171 177 171 168 164 151 142 139 143 146 139 127 127 126 117 110 106 100  96  93  96  96  93  96 100 110 123 133 141 148 149 151 163 183 197 205 209 209 195 159 139 137 126 111  98  87  86  90  92  94  96  97 100 106 124 139 149 152 151 151 155 176 108 106 157 161 117 109 108 105 101  98  96
 114 114 114 115 112 139 183 149 119 106 107  99  85 172 184 150  81  70 139 174 172 171 173 163 151 149 149 145 138 133 140 142 138 134 125 111 102  99  99 101  98 105 112 124 137 146 142 145 150 154 158 168 183 193 200 207 209 200 171 148 139 145 141 120 113 103  97  93  94  97 102 109 126 138 142 146 153 155 157 159 176 127 105 150 157 107  99  97  93  90  89  86
 113 113 114 114 110 147 186 157 125 109 108  98 112 187 173 149 100  86 147 172 170 173 167 157 153 154 151 146 148 155 156 153 146 141 135 127 121 115 113 116 120 131 143 151 154 150 148 152 153 160 163 167 182 196 202 205 212 206 178 157 144 148 157 152 139 126 118 118 119 120 125 137 147 151 155 149 153 161 159 160 172 148 119 151 159  97  87  87  86  84  81  77
 111 112 112 113 109 147 184 167 135 115 115 116 146 182 169 139 113  97 148 173 170 167 159 152 148 148 149 154 156 155 151 146 148 152 151 149 143 143 143 147 150 157 161 161 161 158 156 154 154 159 162 170 185 195 203 205 209 210 192 162 148 149 157 162 159 150 142 135 134 137 139 139 142 146 150 158 162 162 163 160 173 143 123 165 159  85  75  76  76  75  73  70
 110 109 112 112 108 142 173 175 159 127 116 130 160 172 162 134 114 115 150 173 174 167 158 152 149 152 155 155 156 153 148 148 154 159 160 159 160 162 164 169 167 167 169 168 165 161 160 156 154 158 163 173 190 198 203 205 208 208 204 176 151 150 154 158 164 165 162 157 150 148 149 149 149 152 146 155 163 162 163 161 170 139 132 183 161  78  63  64  64  63  64  63
 110 110 111 110 108 135 168 159 177 165 152 152 157 152 143 148 129 137 156 172 172 170 159 152 151 155 156 157 157 151 151 151 156 160 164 168 172 173 172 172 172 174 170 170 170 163 159 153 153 159 164 176 193 199 202 205 204 208 212 189 154 151 157 160 163 166 169 169 167 165 163 162 159 160 159 157 158 161 161 159 168 139 138 187 150  66  55  56  56  55  56  58
 110 110 110 109 107 136 175 137 138 172 196 188 143 129 143 150 142 145 156 169 168 167 156 153 148 153 155 155 153 154 151 154 158 164 167 173 176 177 177 176 177 176 171 169 164 163 155 149 151 160 166 180 189 197 204 208 207 213 211 198 162 145 158 164 166 167 173 173 170 172 166 165 162 161 158 155 160 160 158 151 162 137 150 180 139  56  52  53  52  51  52  54
 109 109 110 110 108 120 166 164 141 162 196 185 161 134 141 150 144 144 164 170 166 159 154 152 148 148 147 147 149 148 147 154 160 164 171 177 177 179 182 179 180 175 174 170 164 154 146 150 157 167 172 180 186 196 204 207 205 211 211 203 175 137 151 168 173 172 174 172 174 175 174 168 165 162 156 153 154 152 148 148 158 132 146 165 121  51  52  52  52  52  53  54
 109 109 109 109 109 107 140 175 178 194 190 172 188 195 151 149 146 148 168 170 164 155 153 149 144 146 142 145 147 150 153 157 163 169 176 178 180 183 183 182 178 173 168 165 156 145 151 165 174 180 177 179 184 192 198 201 199 204 208 197 186 147 141 159 166 173 175 173 177 175 173 169 171 163 156 152 146 145 145 144 155 138 137 170  96  47  54  55  54  54  55  57
 109 109 110 109 109 107 117 159 188 193 169 164 168 164 134 146 144 148 156 164 157 149 149 144 144 145 146 146 149 154 155 165 171 170 174 174 182 182 181 178 176 173 166 156 143 148 160 177 181 180 173 171 175 182 189 192 187 191 195 184 178 172 142 147 157 165 173 178 178 174 171 170 169 164 163 152 146 141 139 147 152 160 182 165  69  48  55  55  55  55  56  61
 109 109 110 110 109 109 106 133 168 160 139 142 128 114 118 145 150 150 152 159 154 149 136 136 139 136 145 144 145 149 156 163 167 164 170 174 176 174 174 174 170 168 161 148 146 148 163 178 172 163 154 153 152 158 174 178 174 175 173 157 152 177 163 139 146 155 167 175 176 175 172 170 165 162 156 151 142 140 137 138 149 172 195 154  57  50  54  54  56  57  58  61
 109 108 109 110 109 109 109 109 138 139 129 130 120 119 125 144 154 153 149 155 153 145 137 133 139 138 138 139 143 148 154 161 164 163 166 173 174 171 168 173 168 162 150 145 151 146 154 153 142 131 126 132 140 141 154 156 154 151 146 135 137 157 164 143 138 147 158 165 171 173 170 170 166 156 147 147 139 130 136 136 137 165 189 115  51  52  53  54  54  56  59  62
 107 109 110 109 110 110 111 109 110 133 128 113 112 122 107 132 156 155 155 162 149 140 135 134 138 133 139 146 146 152 157 162 163 164 170 169 171 170 170 165 160 150 148 156 152 136 135 123 101  61  26  34  83 131 132 131 131 132 127 106 103 118 142 151 146 139 146 155 161 165 170 168 167 154 147 143 139 128 132 136 141 156 162  71  46  51  51  51  52  54  57  60
 108 110 109 110 110 110 111 110 110 111 121 104  97  98  88 129 159 158 158 160 146 138 135 136 135 136 141 144 150 151 156 160 160 163 166 165 168 166 166 164 155 150 157 163 158 138 114  99  72  35  22  41  48  86 111 106 107 113  74  34  57 100 151 160 156 145 144 154 160 163 161 162 163 157 154 145 133 131 133 132 148 170 106  45  49  49  49  49  50  53  55  57
 108 109 110 110 110 110 110 111 110 107 112 116  76  93 149 143 155 157 147 150 147 135 134 129 131 138 137 143 148 149 153 160 162 162 161 164 170 168 162 156 149 157 165 171 170 159 124  90  74  78  93  99 101 100  92  83  90  91  61  53  74 135 171 172 165 157 148 152 154 153 157 158 157 154 149 141 134 133 133 133 155 126  51  43  47  46  46  46  50  50  50  53
 108 109 110 111 110 110 111 111 111 113 114  81  37  87 175 143 153 156 141 146 150 139 134 129 127 132 139 142 144 150 154 157 161 162 160 164 161 164 161 156 161 170 175 178 177 171 156 124 100  97  98 105 103 101  87  75  87  83  72  71 103 155 165 177 177 170 160 150 152 153 151 154 152 149 144 138 133 130 126 135 154  82  38  44  44  44  44  45  46  48  49  50
 108 109 110 111 110 111 111 111 110 113 115  80  30  87 175 148 160 155 149 148 145 143 127 124 126 130 137 143 146 151 152 157 160 162 164 164 164 159 159 165 173 176 180 180 178 170 157 141 132 109 101  96 101  86  74  75  79  84  82  97 129 153 157 169 185 182 173 165 155 152 149 150 150 146 140 140 133 131 126 138 140  68  40  43  42  41  43  43  42  45  48  51
 108 109 110 111 111 111 111 110 111 110 112 108  54  87 176 157 163 156 150 147 144 137 130 125 128 129 134 141 144 146 153 154 157 158 165 166 166 167 170 175 179 181 184 176 171 164 147 133 126 120 103  85  87  76  74  66  70  86  99 115 131 141 150 163 175 179 181 175 166 160 152 147 148 146 140 139 137 128 131 142 132  50  38  40  40  41  41  41  46  53  58  61
 108 109 110 111 111 111 110 110 111 111 111 113  85  94 174 160 159 163 152 145 144 136 127 127 132 129 131 134 145 148 149 156 159 160 160 160 169 172 174 173 172 170 170 171 162 152 136 125 124 122 111  94  77  63  68  66  71  94 108 119 132 130 147 157 157 161 172 181 175 168 163 152 144 143 141 137 131 130 129 144 119  45  38  41  41  41  42  48  56  64  68  69
 109 109 110 110 110 110 110 110 110 109 111 118  90 100 175 157 156 169 157 142 141 134 125 122 134 123 127 135 145 145 148 158 160 158 158 161 167 174 172 169 164 157 160 161 150 132 127 122 129 117 110 100  81  66  63  72  79 102 119 120 135 131 139 143 150 159 161 169 169 165 164 158 147 140 140 134 132 130 130 150  99  40  36  39  40  41  47  57  65  68  71  73
 108 108 109 110 110 109 109 110 109 108 111 116  78  99 181 162 160 152 147 141 135 136 130 130 129 125 124 138 140 136 144 149 154 159 160 161 171 165 157 149 136 130 137 138 131 126 125 117 120 108 118 118  85  64  63  70  87 105 127 120 128 127 130 140 140 142 152 162 156 153 155 154 143 142 136 133 133 128 130 149  97  40  35  39  39  42  52  63  70  73  78  81
 105 107 107 109 109 108 109 109 109 106 111 105  76  89 180 175 154 147 148 144 140 139 133 126 135 123 123 138 138 136 141 152 151 153 157 166 166 147 142 136 127 112 111 121 121 122 123 115 122 131 135 129  97  74  78  75  91 124 147 142 138 134 138 139 138 141 137 142 157 157 159 156 146 138 138 134 135 133 131 145  85  33  34  36  39  46  55  66  74  80  85  88
 104 105 107 108 108 108 108 108 107 107 109 101  71  78 177 169 158 162 153 141 138 131 130 128 129 125 125 130 136 130 135 144 140 151 159 159 143 132 118 129 130 125 118 124 126 124 126 132 135 135 134 138 133 124 125 119 131 152 149 149 151 151 144 135 133 140 128 134 141 137 152 156 149 139 134 135 137 133 137 143  70  28  33  36  40  48  57  69  79  87  92  95
 103 103 106 107 108 108 107 108 106 107 110  98  64  73 169 167 150 149 150 142 137 129 125 129 122 127 123 136 133 120 138 138 141 141 151 145 127 116 125 136 133 129 127 129 130 124 122 122 118 107 101 103 113 123 135 141 124 107 107 115 123 128 132 137 134 132 135 130 129 127 148 157 147 134 130 138 133 127 139 136  70  29  33  35  40  49  59  72  84  91  97 101
 102 103 104 106 107 108 108 108 107 107 112  91  60  66 164 172 139 137 148 146 136 129 128 127 126 124 129 136 128 123 136 133 136 140 142 136 128 124 129 130 132 128 115 108 106  99  92  87  86  91  89  85  82  77  85  85  80  84  92  96  94  95 103 115 129 126 136 124 121 136 149 155 143 133 130 132 132 127 138 121  42  27  32  33  39  49  60  75  84  89  97 103
 100 102 103 105 107 108 108 107 107 107 112  82  48  61 143 180 146 133 141 147 142 134 131 123 122 118 127 131 130 128 123 128 131 132 135 135 128 123 116 112 108 101  88  72  61  52  48  46  50  53  56  50  45  43  48  50  48  54  55  56  62  59  59  67  82 100 119 122 117 127 134 142 139 138 135 126 123 132 135 103  37  27  29  32  39  48  60  73  82  86  90  96
  98 100 101 105 106 107 106 106 107 107 110  72 107 115 122 179 149 127 129 135 141 142 126 124 125 118 122 126 129 120 114 126 133 133 136 128 122 116 104 100  92  65  53  46  56  73  88  95  97  95  93  98  91  83  81  85  91  91  89  89  93  80  67  45  41  61  83 102 113 119 123 137 138 131 134 124 119 124 137  78  24  26  29  31  39  48  58  72  81  85  90  97
  96  98 100 102 104 106 106 107 106 106 103 103 203 163 110 175 161 136 125 125 127 132 124 119 114 112 117 123 124 121 120 126 131 134 129 120 116 104 107 108 110 112 117 115 120 123 125 132 135 140 154 161 154 152 156 157 158 156 150 143 139 125 119 111 109 106  92 104 118 115 123 137 135 122 119 126 129 129 137  56  24  27  29  32  38  46  57  70  78  84  91  99
  94  97  99 101 103 105 106 107 106 107 104 124 216 188 100 164 164 139 126 125 129 131 118 116 108 113 121 121 120 122 121 124 125 133 133 124 119 114 116 124 129 135 147 151 144 141 138 141 147 143 148 154 154 153 159 162 161 160 155 152 146 149 145 138 140 140 125 117 121 119 123 136 128 113 113 124 123 131 118  52  24  29  31  36  38  46  55  65  74  81  88  96
  92  95  98 100 102 104 105 107 110 101  78  82 199 215 121 136 178 148 116 112 120 121 114 110 108 106 111 123 126 115 122 126 117 128 127 117 118 118 127 128 134 137 141 144 143 142 147 152 154 152 147 141 140 146 152 154 151 155 154 155 154 154 150 144 142 137 129 121 112 117 123 133 123 107 104 118 113 114  67  31  28  32  35  38  42  46  53  62  70  78  85  91
  90  93  96  99 101 103 105 109  96  70  54  41 162 220 184 123 171 162 119 109 114 115 118 113 108 107 101 122 124 109 117 122 112 127 124 113 115 117 130 135 136 131 134 136 135 135 139 138 135 130 122 113 113 127 134 133 128 128 132 135 137 141 144 143 141 134 130 126 118 118 119 126 122 105  99 114 110  98  50  31  34  37  40  43  46  50  54  60  67  75  83  89
  88  91  94  97 101 104 110  98  66  62  49  24 108 215 209 164 142 167 136 108 100 108 107 107 112 114 113 116 117 117 107 117 121 120 114 113 113 123 130 133 135 137 130 128 125 127 129 126 112 109  96  87  79  79  80  79  80  85  96 114 128 136 144 131 127 130 127 123 114 103 109 119 117 102 108 113 108  77  52  38  41  45  49  51  53  54  56  59  64  71  79  86
  85  89  93  96  99 104 107  77  61  55  44  25  47 175 203 198 157 147 150 114  94  97 101 103 108 111 120 116 113 113 105 118 124 112 112 110 110 119 122 122 124 130 131 123 119 121 121 116  96 107 101  91  76  55  56  69  77  83  89 102 127 129 129 120 122 123 123 118 114 105 105 109 114 109 104 108  92  54  46  48  51  54  57  60  61  60  60  63  62  68  76  83
  86  88  90  95  98 109  91  63  54  51  45  33  19  95 186 193 194 156 150 137  89  86  94  96 104 111 111 101 107  97 103 112 108 113 114 113 114 113 118 119 115 118 124 120 121 117 114 105  93  96  83  78  69  63  64  74  74  83  89 107 110 112 108 113 122 124 128 123 112 108  96  98 100 101  94  92  72  56  57  60  62  63  67  68  68  67  66  66  66  68  73  78
  84  87  89  95 100 105  76  57  55  50  42  37  28  29 138 184 194 183 154 142 121  80  80  95  90 106  99  98  96 100  97  98 105 100 107 112 114 113 116 117 117 116 119 122 123 121 111 104  99  94  88  79  71  67  65  78  72  77  89 102 105 109 118 122 126 131 131 125 111 102  97 105  95  84  86  80  69  67  70  71  72  74  76  76  75  74  72  70  70  71  74  78
  82  85  90  93 103  93  59  54  51  46  40  36  28  14  58 153 170 180 176 156 135  93  78  75  77  89  98  99  89  94  96  93  99 105 105 112 113 110 118 120 119 121 125 126 125 123 116 113 106 102  97  93  83  75  81  83  84  92  98 102 108 121 129 132 131 130 123 118 114 105  99  95  85  74  80  76  74  76  79  81  81  83  84  83  83  82  79  78  76  75  74  77
  81  83  86  98 105  77  56  51  47  39  39  36  29  23  15  97 146 157 169 170 157 113  69  62  67  74  87  95  87  90  95 103  99 104 106 106 109 121 124 128 131 136 136 135 134 131 129 127 126 120 109 108 106 107 101 103 107 112 121 126 130 140 143 143 139 131 125 122 117 103  93  76  75  82  82  82  82  84  86  89  92  90  90  89  89  87  86  84  83  80  78  77
  78  81  88 107  83  58  57  50  43  36  37  33  30  19  14  28 120 142 146 154 163 162 114  67  58  61  73  82  83  81  90 102  99 102 104 106 110 115 123 134 136 145 145 143 145 146 145 143 142 138 128 125 132 132 118 128 137 145 157 158 155 157 157 151 143 138 127 122 115  93  77  72  81  87  86  87  87  90  93  96 101 103  98  94  94  93  91  90  88  86  84  79
  86  95 106  95  69  57  53  42  43  35  32  31  29  26  22   9  55 135 135 137 137 141 150 119  70  48  53  67  84  90  89 100  97  99 107 111 114 104 107 128 146 151 149 150 155 157 161 164 159 156 151 145 153 136 134 144 156 169 171 171 169 166 166 157 148 143 132 115 100  85  79  88  92  89  88  88  90  93  97 100 105 112 114 106  97  96  96  95  93  90  87  83
 114 118 101  74  59  52  46  41  40  33  30  30  31  29  25  20  14  93 140 134 125 124 127 142 134  78  43  40  62  84  79  86  89  91  98 106 110 112 115 130 142 151 155 155 157 166 167 163 166 157 157 155 153 130 135 149 155 160 160 163 172 164 156 152 150 138 122 104  85  78  92  97  92  90  89  90  92  96  99 105 110 116 121 125 117 103  99  99  97  95  90  86
 128 109  80  60  55  49  42  31  34  34  34  29  34  26  23  23  16  25 120 149 138 125 109 105 124 136 100  41  33  49  70  75  80  85  90 100 106 107 115 123 127 140 147 155 156 154 155 148 154 148 146 144 133 127 128 134 147 146 145 159 160 161 144 141 137 116 101  88 120 106  98  96  93  91  90  91  94  97 100 107 114 120 125 130 133 127 111 102 100  97  92  87
  99  80  68  56  53  45  37  32  32  32  27  27  29  25  24  23  20   8  52 145 153 142 125 108  96 101 123 113  60  28  34  57  70  73  74  89  93  92 101 111 118 133 130 139 140 138 135 135 135 133 131 127 114 112 115 125 131 134 139 148 140 142 129 130 125  97  74 107 190 128  95  99  97  94  92  91  94  97 102 109 114 120 128 133 137 140 136 118 101  96  93  87
  77  68  58  53  46  33  28  30  28  30  35  35  30  27  26  23  19  15   7  83 152 147 134 133 119  91  85 105 115  85  47  25  38  58  67  73  76  90  86  96 106 113 111 120 128 122 116 117 114 118 114 110 108 102 104 105 111 124 127 132 128 124 125 119 111  82  80 171 199 112  94  97  96  95  95  93  93  97 102 108 116 123 130 135 138 142 142 137 118  98  91  86
  68  58  46  43  40  29  31  30  27  30  32  27  26  26  29  25  19  20  12  20 107 143 144 143 133 120 105  90  91 107 108  68  34  27  39  60  64  75  73  78  92  97  96 103 112 111 103 101 109 108  98 111 100  86  83  94  98 106 115 111 112 107 103  95  78  80 149 199 168  96  94  94  94  93  93  92  92  93 102 110 118 125 131 136 141 142 142 141 134 116  93  83
  55  53  44  41  38  30  35  29  28  29  27  21  24  28  25  23  20  18  16   6  42 130 145 147 143 134 122 107  90  84  91  99  94  62  36  31  45  61  71  72  72  82  81  81  89  98  86  87  82  86  85  89  93  77  79  86  88  95 104  95  95  93  91  67  73 139 187 189 124  93  96  96  95  94  92  90  89  89  91 104 117 124 129 134 139 141 141 139 136 128 109  86
  50  52  49  41  35  31  28  29  22  25  25  25  30  27  23  24  20  16  16  16   8  65 135 140 138 138 131 117 110  99  79  78  92  91  81  62  45  40  54  61  56  61  64  65  65  72  71  72  63  68  75  68  69  68  71  73  71  85  87  73  77  66  54  69 132 175 177 149 103 100 100  99  97  96  94  93  92  90  89  91 102 118 128 131 136 137 139 138 134 130 121 101
  44  46  38  31  35  32  27  24  18  21  21  25  26  24  23  23  20  18  20  14  12  13  78 131 136 135 134 130 124 116 105  86  73  72  79  85  81  64  51  48  48  42  43  53  55  51  59  53  57  63  62  56  58  57  58  63  62  64  59  51  55  56  75 129 160 162 147 118 106 106 105 104 102 100  99  97  96  94  93  90  87  98 117 127 131 133 135 133 131 128 121 109
  47  37  30  36  34  28  27  22  23  22  19  27  28  26  23  23  23  23  20  15  13   8  18  91 127 131 129 127 128 119 110  99  95  79  70  66  71  75  73  69  58  44  40  38  45  40  44  44  46  49  48  49  47  38  45  48  50  39  41  44  60  97 132 156 154 135 138 117 114 112 111 109 106 105 104 102  99  97  96  93  90  86  92 111 124 127 129 128 126 122 117 109
  49  37  35  34  32  28  24  22  20  22  23  23  18  21  22  25  22  21  19  16  14  12   7  35 100 125 127 129 134 127 116 109 102  95  79  75  67  60  62  67  69  68  63  53  51  46  44  40  36  35  37  33  35  31  36  38  47  51  63  87 111 133 143 139 124 138 143  91 118 120 115 113 112 110 108 106 104 102  99  95  93  90  86  88 104 118 121 121 119 117 112 105
  33  31  29  33  33  26  24  22  23  20  23  22  27  23  24  22  20  19  18  16  14  16  13   7  50 102 118 122 131 131 126 120 109 107  93  89  83  72  67  65  61  62  65  67  69  68  66  60  60  57  52  50  53  56  63  71  78  86  96 111 116 119 116 114 131 162 134  50  87 119 123 120 117 115 113 111 108 107 104 101  99  95  91  86  87  99 111 114 114 111 108 101
