P2
# Generated by OpenCV 4.2.0
92 112
255
  10  10   5   6  10  12  14  18  16  22  26  27  26  29  27  23  24  16  27  22  27  17  32  19  27  31  45  39  66 136  85 110 102  68  62  73  49  32  30  56  62  55  55  80  58 100 131 145 149 146 111 153 142  91 168 153  91  70  90  81  86  85 119  91  82 107  62  51  55   9  10  15   9  12  10  12  10   9  12   8   9   9  11  11   9  10  10  11  12   8  13  13
   8   9   6   7  12  12  12  16  19  21  23  24  27  22  23  22  19  15  23  59  55  49  81  59  62  30  21  76  45  83  55  91  75  75  53  73  38  57  54  41  49  74  89  73 126  64  50  63  87  64  80  84 114  66 113 159 136  88 100 120 138 119 140 151  67  96  74  46  59  54  13  15  14  12  11  10  11  12  10   8  11  10   9   8   8  12  12   7  11  13  12   7
  10   6  11  11  12  12   8   8  16  15  19  21  24  25  20  21  16  27  30  47  51  45  65  69  78  65  56  39  72  51  58  68  70  42  50  43 103  49  79  70  71  43  60  88 108  86 144  74  20  15  33  38  59  66 107  69 100 157 144 121  92 148 108 110 145 109  94  57  56  64  28  12  10  13   8  12  10   8   9  11  10   6   8  13   9   8   7   9  10  12  13   8
   9   9  11  10  12  13  10  15  19  18  15  19  19  20  25  17  22  67  62  72  97  35  77  60  44  27  77  46  51  76  52  93  97  66  93  12  74  99 109  92  68  75  83 101  93  98  85 126  83  23   9  20  38  54  67  63  42  67  97 107 129  84 141  92  76 131 113 147  93  99  98 110  74  18   9   7  11   9  14  10  10  11  10   9  11   9  10  11  11  11   8  12
  10   9  10  12   9   9  10  11  15  14  16  14  16  19  17  80  67  73  78  81  80 108  91  67  62  44 115  30  83 105 112 129 115 103  88  44   3 122 120  99 149  76  54  56  98 137  70  92 156 112  53  15  17  37  59  67  81  32  54  57  58 117 135 100 150  86  74 109 137 161  81  99  69 158  56  31  16  14  24  12  13   8  10   9  13  10  11  11  11  13  13   8
   9  10   8   9  11   9   9   7   9  10  15  18  13  18  81  72  57  77  44  55  60 122 107  81  87  53  35 117  41 101 112  36 111 120  71  53  32  70  89  77  89  82  75  60 142 129  85 101 115 104  89  52  15  19  38  67  89  49  44  28  55  48  84  55  85  96  51  88  84  87 128  97 116  49 105  96  27  29  37  23  14  11  12  10  12  11  13  10  10   9  13  12
   9   9   9   6  13  11  12  10  11  15  16  11  20  92  78  72  64  63  44  76  79 139 109  74  60  96  56 134  58  77 117  11  96 108  67 111  51  95  84  66  44  60  74  51 120 111  75 103  93  90 129  40  60  51  17  66  61  60  12  47  24  49  56  66  60  83  63  67  60  75  75 104  65 101  88  91  66  65  20  24  21  16  19  16  16  14  15  19  16  18  15  17
  10  11   9  12   5   9   7  20  12  11  14  10  96  75  81  69  83 103 112 105  97 108  74 100  45  17  23  47  84  74 133  11  74  90  57 133  23  70  74  24  36  38  84  45 100  91  63  86  55 103  91  64  62  36  31  32  64  75  89  44  34  29  42  60  38  60  55  63  70  55  57  52  79  60  84  96  71  33  33  32  23  28  27  25  24  28  30  26  27  27  29  28
  12   9   8  10  11  11  11  21  16  15   6  71  93  63  38  57  82  81  95  78 111  80  69  83  62  19  17  20  68  43 103  18  61  69  59  56   2  42  75  12  25  21  75  60  56  93  41  64  29  97  86  23  43  36  38  31  53  55  51  38  25  40  39  33  61  41  33  51  63  48  48  34  51  64 100  98  75  77  27  42  24  27  28  29  30  33  31  29  32  28  29  29
  10  10   9   9  11  13   9  23  10  14  56  74  94  60  66  84  57  69  75  62  71  66  52  52  81  15   5  16  41  41  65   4  36  44  43  13  18  35  53   5  34  25  44  44  40  87  22  44  24  67  76  37  31  25  90  60  48  36  55  45  31  24  45  22  45  37  37  36  43  50  47  38  38  43  66 124 117 111  39  41  45  28  30  31  31  29  30  33  30  32  32  31
   7  11  10  11  10  10  12   9  20  40  64  75  86  40  77  78  72  52  70  52  63  56  40  49  61  27  16  18  41  27  47  14  20  39  17  25  76  23  43  10  22  25  27  31  35  43  24  28  37  53  69  35   8   9  64  49  34  27  54  48  28  22  43  24  40  48  27  29  47  38  61  44  25  42  61 111 134 122  72  73  37  30  30  29  28  31  34  31  35  34  33  33
  11  11  12  12  13   9   2  13  38  54  73  73  78  75  47  67  68  51  67  27  57  56  40  40  42  24  15  38  24   7  41  28  11  36  25  38  57   5  18  26   4   9  21  37  79  33  28   9  20  45  44  24  27  25  83  50  38  34  45  41  32  15  35  23  31  55  28  26  43  42  56  27  15  40  56  64 133 128 140  87  35  29  30  32  31  33  29  32  31  33  29  36
  12  12  11  13  14  13   4  36  71  68  71  51  64  54  43  38  56  30  53  47  36  42  26  41  27  22  34  26  19  13  35  48   4  27  19   5  15   4  21  37  26   9  10  31  55  30  21   3  34  54  28  28  10  25  97  43  27  40  32  34  27  11  35  37  36  38  25  26  40  25  52  30  23  21  36  75  81  89  87  96  43  31  30  30  29  31  32  34  35  30  36  31
  12  12  14  11  14  14  33  48  48  64  84  71  58  53  26  43  26  30  64  30  41  19  37  33  30  31  13  20  22   7  32  28   7  25  20  11  22  14  18  24  11  20  20  23  18  27  13  46  16  35  40  22   6  37  76  57  29  37  25  40  32  34  33  39  33  35  22  18  54  32  37  21  24  13  40  73  51  84 103  63  35  31  41  35  30  28  31  28  29  30  27  29
  14   8  10  12  15   9  18  63  79  86  69  78  59  47  23  40  32  28  41  28  16  30  31  36  40  36  51  11  19  42  18  23  37  23  24  11  18  44  15  26  40   3  10  18  13  33  22   5  12  39  33  22  13  83  40  51  23  26  33  38  24  43  32  33  35  27  28  30  41  39  28  14  32  33  45  83  41  72  93  81  75  51  27  26  26  25  28  28  29  28  29  25
   9  11  12  13   8  17  49  86  66  58  85  90  57  44  35  14  38  44  33  18  19  21  44  31  49  58  18  25  20  16  28  14  25  35  24  32  13  15  13  13   9   9   8  16  15  18  25  10   8  27  30  18  61  33  15  54  36  28  31  27  37  53  30  22  60  34  42  49  19  44  25  17  28  51  34  57  37  40  79  74  87  48  28  19  20  20  27  19  21  23  24  19
   7  10  10  12  12   9  71  91  58  47  80  42  74  80  54  26  22  36  53  45  24  22  36  43  28  45  45  17  33  16  11  18  30  15  32  31  10  11  30  18  20   5  14  10  25  40  13   9  16  14  30  40  30  44  24  24  27  36  29  36  40  45  47  50  38  60  24  39  36  49  17  32  24  48  46  46  24  30  83  40  65  60  24  17  22  29  16  13  18  15  17  14
   9   9  10  10  12  13  69  84  58  62  61  58  37  57  77  29  34  17  22  41  83  30  37  51  41  48  43  61  10  36  24  28  24  18  34  11  39  17  18  35  30  13  16  15  29  28   9  21  34  27  42  41  27  35  32  26  25  29  44  34  36  40  49  49  46  47  39  37  30  37  32  42  33  63  59  57  25  24  79  40  68  54  63  21  42  19   6  10   9  10  12  12
   9   9  11   9  11  23  60  74  95  84  72  45  47  59  38  32  51  33  46  11  36  28  10  30  43  38  29  42  58  33  29  44  31  22  50  25  25  21  35  34  33  19  27  18  12  31  15  18  35  39  35  43  47  35  26  20  30  34  39  39  42  51  47  67  38  28  60  34  47  35  58  43  37  41   7  44  21  31  65  57  34  46  42  53  27  15  40  23   9  11  13  12
   9   7  12  10  10  39  59 103  62  80  68  52  40  36  43  45  59  47  45  30  55  44  49  49  48  51  56  44  45  49  54  47  41  44  52  31  44  42  43  46  31  37  33  42  32  28  28  36  25  38  54  43  33  38  42  45  44  40  35  68  51  58  54  38  43  42  49  64  56  70  43  31  42  29  31  32  18  36  68  71  24  25  23  66  34  25  44  26  11  13  11  10
  13   8  10  11  16  37  80  45  64  56  66  55  37  39  34  46  66  56  53  49  38  59  81  67  41  39  46  55  55  51  55  53  55  53  54  60  51  58  67  55  69  54  39  51  39  46  41  38  45  55  46  63  53  64  57  55  54  53  58  52  67  47  50  41  47  49  42  61  45  43  28  29  50  26  42  18  38  58  73  57  21  28  31  47  43  33  47  12  11  10  13  13
   9  13  11   8  38  43  69  44  55  69  60  34  37  42  49  76  73  67  72  46  40  52  44  35  44  49  53  60  72  76  73  66  59  71  71  82  70  73  83  90  77  80  75  57  56  57  47  67  83  54  69  74  75  73  72  63  71  78  76  60  69  65  53  63  51  61  65  44  52  32  42  40  47  37  35  34  41  60  35  54  44  23  32  35  43  42  44  14  12  14  13   9
  10  10   8   9  29  87  55  56  58  45  73  36  30  56  40  78  55  49  43  41  45  59  53  78  83  91  84  81  81  99 109 108  86  86  87  91  91  95  88  93 109 109  87  93  80  77  83  92  94  94  88 101 109 104 101 120 113 113 115  94  95  73  79  73  59  59  55  45  35  49  54  41  43  23  23  30  14  24  28  41  44  30  36  34  47  53  24  15  38  10  15  15
   9  11  10  13  39  67  63  39  39  46  52  52  39  31  67  40  57  50  57  56  66  77  92  91 102 106 102 108 133 147 150 145 146 146 151 138 143 141 159 135 143 143 147 120 117 112 136 124 116 129 116 127 148 155 152 140 147 156 149 147 119 116 108  91  75  78  67  55  51  38  30  38  27  39  31  30  12  39  18  34  35  42  32  35  59  40  31  60  10  15  14  14
  10  12  13  12  19  44  51  67  62  51  58  49  35  39  53  46  47  57  65  73  79 104 117 128 124 127 135 157 161 169 170 161 159 162 159 159 168 170 159 163 168 153 168 167 152 150 153 145 142 156 137 156 162 172 177 179 176 180 181 180 163 149 140 120 106  97  96  78  67  50  33  36  22  23  16  26   7  23  37  32  48  59  46  42  64  47  53  11   4  11  10  14
  12   8  12  15  23  58  48  43  48  43  49  29  31  40  43  38  51  86  85  85 115 123 121 129 157 157 161 168 179 175 177 170 169 171 178 173 174 181 178 187 185 180 190 184 176 175 181 175 170 171 176 176 179 181 191 187 190 191 189 183 189 175 166 155 138 127 125 101  91  72  51  27  23  19  41  32  16  50   7  61  50  45  51  48  49  57  18  16  23  12  12   8
  13  10   8  12  19  58  58  49  41  29  42  39  32  28  35  44  71  84  96 118 126 140 142 158 165 175 177 186 189 188 189 185 181 189 184 190 193 186 190 196 200 195 186 190 187 188 189 185 187 184 188 186 187 194 198 198 187 189 187 188 185 186 178 171 159 155 142 137 124 101  76  57  42  41  48  47  25  31  34  34  57  45  57  56  50  52  32  17  17  10  11   9
  13  10  12  14  21  37  50  42  35  38  34  32  52  29  27  63  81 100 124 140 153 150 167 169 175 178 183 188 189 193 195 191 194 192 192 191 195 200 191 190 198 197 198 194 196 195 202 194 193 190 188 197 194 198 195 205 198 202 195 200 195 191 183 175 184 169 159 155 142 133  89  67  65  81  52  27  45  38  37  34  50  66  48  47  61  45  22  29  26  18   9  11
  12  11  15   9  21  46  60  28  37  48  49  58  12  36  51  64  94 137 157 163 156 165 172 174 185 181 189 191 199 196 195 191 182 180 192 191 185 185 192 178 187 194 195 186 191 197 180 200 198 198 194 195 197 189 205 196 195 196 202 195 195 190 194 183 180 182 168 164 156 153 120  85  64  62  44  70  52  57  47  45  49  77  44  53  74  34  32  18  16  11  12  12
   9  10  11  13  10  26  64  42  61  58  41  33  41  43  57  70 125 161 165 160 167 179 175 184 181 182 185 184 182 184 181 177 175 177 175 180 181 178 182 189 193 193 180 193 185 189 198 199 192 206 187 187 188 194 189 185 189 189 197 197 195 189 189 190 190 185 179 176 160 162 132 100  83  69  63  56  53  55  75  84  72  53  44  57  62  58  12  17  11  15  16  12
  11  13  13  14  10  23  56  39  53  44  54  49  35  57  57  80 131 162 166 171 174 178 181 178 180 181 191 191 190 191 188 187 191 188 194 185 192 186 185 185 182 187 183 182 184 178 181 183 188 193 192 184 186 195 195 191 188 179 191 192 190 189 194 188 190 186 182 178 173 153 142 119 102  96  78  70  71  63  77  65  57  60  67  50  34  16   8  17  11  13  12  14
   9  13  14  13  12  25  56  56  42  65  65  35  44  56  60  88 129 168 167 170 167 178 178 187 177 187 191 190 185 184 181 194 189 185 183 195 184 181 180 191 180 191 189 183 172 177 180 183 192 186 190 192 199 193 196 196 191 196 189 188 181 186 188 187 183 187 179 176 174 153 151 121 132 102  99  92  75  73  53  79  60  69  54  48  46  22  12  11  11  14  11  13
  13  13  16  34  70  72  54  50  72  49  48  47  54  58  72 111 139 163 162 165 171 174 183 182 182 182 188 187 186 186 188 191 177 181 181 180 178 176 171 171 174 172 167 165 172 183 177 185 181 191 185 179 186 183 178 191 192 188 188 188 187 187 201 181 183 188 181 181 171 156 149 141 131 125  99  83  89  90  62  65  52  85  67  56  20  18  16  13  12  13  14  14
  14  11   9   5   8  38  59  46  69  35  34  48  66  91 105 114 139 167 165 171 180 181 174 182 180 181 185 179 173 180 177 169 169 174 167 170 169 171 169 175 157 165 157 159 162 165 165 170 171 175 175 181 186 190 185 193 192 186 184 187 192 191 188 196 195 189 181 185 170 157 151 161 147 135 101  90  84  65  84  63  51  71  60  40  23  37  30  15  10  12  15   8
  13  13  12  12   7  18 101  62  52  30  37  60 106 101 121 131 144 158 163 170 175 175 176 175 180 176 173 173 165 163 166 161 163 163 164 166 165 165 170 155 169 158 162 164 166 161 172 178 156 175 179 187 175 181 182 186 186 191 187 178 192 187 191 190 189 185 185 171 171 157 147 150 157 144 125  92  79  76  74  46  51  59  65  26  15  13  15  14  15  11  12  15
  11   9  10  13  11  24  43  56  53  31  42  73 101 128 132 149 148 150 165 165 173 171 166 168 178 188 193 194 182 195 188 194 186 191 195 193 177 168 170 161 169 168 156 160 154 160 159 171 160 179 183 178 177 177 192 179 194 176 172 192 184 187 177 187 191 187 179 170 157 157 156 159 146 141 129  99  73  75  63  39  50  66  74  28  19  12   9  14  10  15   9  11
  13   9   8  12  13  10  44  41  38  39  62  77 100 120 136 158 153 145 154 162 179 181 182 179 187 188 190 191 199 198 187 196 193 183 186 172 190 181 179 189 166 151 163 170 148 182 165 184 167 184 179 188 181 179 193 185 186 195 188 180 182 178 190 186 181 186 164 164 161 151 155 159 163 155 133 112 100  57  61  51  56  65  64   9  14  11  15  12  14  10  17   9
  10   9  12  13  13  15  31  60  42  44  62  76 103 119 153 158 152 146 156 169 159 179 169 181 176 172 187 193 194 198 204 200 196 193 194 196 184 176 186 180 186 189 191 176 180 179 164 172 153 147 164 154 163 168 166 168 166 168 165 153 156 167 181 186 182 176 167 163 163 149 161 162 160 157 135 106  87  79  55  62  44  72  37  23  18  16  13  15  12  12  12   8
  14  11  13  11  11  14  21  10  58  47  67  73  87 126 143 160 151 147 155 159 170 172 166 154 172 176 175 179 183 186 195 193 195 195 200 201 198 178 174 185 174 182 180 182 186 183 187 190 199 199 209 205 204 204 202 209 200 193 192 194 181 180 196 179 170 164 166 172 152 166 156 171 162 151 148 114  78  68  56  64  54  64  50  25  15  11   9  17  12  12  12  16
  13  14  11  11  11   9   9  24  54  57  59  71 102 129 155 146 164 144 155 161 158 166 162 167 172 176 165 161 179 170 179 182 191 201 203 194 192 201 193 179 180 189 184 189 192 196 182 194 206 200 216 207 213 205 209 196 203 192 191 177 188 187 190 185 174 168 162 164 160 154 160 162 159 158 136 115  74  69  50  60  55  48  19  30  10  15  15  14  11  12  13   7
  13  12  12  12  14   6  16  39  57  57  52  59 109 137 157 161 160 156 150 157 148 165 178 192 198 193 187 195 197 202 205 203 217 202 185 198 214 190 202 196 191 193 191 176 185 188 200 193 199 207 215 209 215 205 206 207 196 193 186 187 188 190 186 179 174 160 155 165 155 157 153 162 159 157 150 115  86  63  63  60  62  63  23  16  14  16  11  13  14  13  14   9
  12  12  12  12  13  11  10  31  57  50  36  59 113 155 162 164 160 155 151 150 155 173 185 189 198 200 185 188 196 193 193 193 215 204 200 210 213 215 218 176 210 186 187 187 201 197 206 200 200 205 199 208 207 184 183 179 169 195 184 188 206 201 185 187 170 165 168 160 160 155 161 158 158 155 144 118  84  55  44  45  54  56  24  18  16  14  17  16  11   8  12  11
  15  14  11  12  11  16   7  36  37  49  47  68 112 146 166 152 157 157 162 147 172 176 176 185 189 191 199 191 182 200 193 191 204 201 204 209 204 191 202 205 197 191 186 179 185 201 196 195 202 178 202 210 209 204 187 180 189 183 187 201 180 183 184 171 176 172 175 160 158 155 161 146 162 154 146  96  68  51  42  54  40  64  14  19  16  13  10  15  12  11  13  12
  10   9  11  12  15  10  12  14  64  49  49  68 119 136 160 151 162 162 157 154 168 165 165 169 162 181 174 175 168 163 169 181 184 192 200 203 198 196 191 185 201 190 188 178 185 188 174 182 201 180 187 182 183 175 175 158 168 179 186 194 185 187 188 187 187 189 183 174 164 155 162 171 161 154 153 110  74  55  40  49  50  58  19  18  15  16  15  13  13  12  14  10
  10  10  13  14  15  14  14  14  47  46  48  70 105 143 157 158 162 156 159 164 171 158 172 189 178 179 166 162 158 160 170 160 174 168 174 171 176 170 181 170 180 181 161 173 170 171 159 162 177 176 178 169 168 171 160 173 170 169 177 170 185 186 183 183 192 181 181 174 172 168 165 167 151 158 151 116  65  55  35  48  58  28  23  14  15  14  16  13  14  15  11  11
  12  10  13  11  15  13  13  12  50  47  54  59  98 140 150 160 157 157 170 157 159 178 170 164 166 162 157 158 156 152 156 153 148 146 162 155 171 164 150 162 167 168 153 162 158 158 158 160 161 157 157 166 157 157 163 153 151 149 154 161 164 158 149 167 168 176 180 177 177 173 163 159 161 151 141 118  67  61  39  51  54  37  15  14  12  12  17  13  10  14  12  11
  10  13  14  13  15  13  16  15  48  52  38  37  83 148 146 156 157 164 160 163 167 147 123 128 120 112 130 136 141 131 121 134 118 138 130 146 130 144 153 145 158 146 133 140 136 152 148 144 147 133 146 140 144 158 143 150 147 121 150 107 138 134 133 140 146 159 172 173 166 172 173 160 161 144 133 117  68  57  53  37  60  28  27  13  16  17  16  13  12   8  12  11
  18  14  13  11  16  12  17  16  27  63  53  57  75 139 147 142 162 170 155 152 141 116 120 105 108  92 113 129 127 107 111 102  79  92 104 103 111 122 123 149 140 130 125 117 133 131 136 136 134 130 123 112 133 109 108 117 122 130 112 115 125 161  98 105 118 120 143 155 164 164 167 161 157 150 130 127  68  51  41  47  36  17  18  17  15  13  12  17  12  15  12  14
  15  13  16  11  13  17  18  21  35  54  43  70  85 149 150 146 149 133 143 111 115  81  89 101  94  84  88  71  71  58  61  63  52  76  73  83  87  94 111 115 125 107 105 106 121 128 118 114 118 109  97  88  78  73  75  65  65  65  64  84  80  56  69  78  78  80 104 127 128 127 166 150 153 145 135 119  71  39  47  56  73 108  58  17  16  15  12  14  14  14  12  12
   8  12  11  17  18  12  19  22  32  37  43  52  74 151 151 145 152 125  79  85  81  73  76  81  72  61  34  53  52  43  41  44  46  43  56  69  73  77  95 104  99  95  89  95 108 102 110 100  94  88  73  75  63  55  41  53  54  50  43  43  34  56  54  55  62  62  79  96 116 141 140 149 144 145 136 124  65  42  53  77  98 153 202 119  17  14  14  13  12  12   9  12
  13  12  12  18  13  16  47 165 180 108  43  47  59 150 146 147 138 100  88  72  54  55  55  52  47  54  55  48  40  41  41  41  40  49  43  54  68  75  83  86  89  88  79  86  98  91  94  88  70  71  67  61  52  50  46  41  47  44  48  53  60  68  60  73  72  67  77  82  93  97 110 138 141 148 146 128  54  56  64 153 173 172 206 156  35  19  14  16  12  11  16  11
  12  15  12  12  18  19 109 170 186 164  68  48  54 147 142 133 103  78  86  63  61  62  69  66  69  62  57  61  65  64  63  67  77  64  54  58  58  69  72  79  84  81  77  84  89  85  85  82  73  70  55  56  57  67  68  67  62  65  66  63  68  68  77  73  81  80  75  85  90  85  88 120 127 148 138 132  55  53  84 184 186 155 154 153 124  14  17  14  10  11   9  12
  12  17  14  16  20  17 123 153 172 172 118  46  53 137 135 127  94  82  84  79  72  68  64  64  63  58  46  38  30  28  30  32  57  69  68  70  71  71  73  80  75  80  83  86  80  78  76  75  71  65  73  66  67  63  35  36  44  43  45  45  53  60  64  72  73  79  88  88  89 100 114 112 130 134 143 130  67  49 129 178 161 129 127 152 183  50  16  18  13  12  15  13
  10  13  12  18  20  19 145  85 148 165 146  52  48 131 143 126 111  77  88  80  80  74  62  56  46  38  19  21  25  26  28  42  47  36  54  74  71  71  67  73  76  88 117 123 104  79  71  65  66  65  62  69  54  36  56  34  12  32  30  24  18  33  34  51  54  74  79  91  97 104 116 133 133 140 149 135  68  66 162 168 153 106 113 118 111  69  12  19  14  13  10  14
  14  15  14  16  18  17 106  66 100 150 160  94  47 131 142 125 105  98  90  83  73  66  49  42  31  25  56  30   9  36  23  59  34  55  49  37  70  67  68  64  88 136 167 178 136  90  71  65  66  63  68  51  47  50  41  29  34  24  12  37  25  63  62  42  34  52  74  86  94 101 110 119 128 137 144 127  63  93 164 161 130 101 116 113 123  54  12  16  11  10  14  11
  14  12  12  13  19  32 139  90 119 124 151 139  61 140 133 121 114  99  94  81  69  51  37  33  69  30  34  13   9  41  34  65  68  42  54  55  40  59  67  69 101 162 187 193 165 118  72  63  65  56  58  58  46  36  64  38  45  25  16  38  30  70  82  55  45  45  52  67  81  96 102 119 136 136 149 141  67 114 151 152 107 114 131 124 113 105  10  13  12  13  11  13
  14  13  13  14  16  93 114 132 138 105 140 148  79 155 137 124 105 101  83  76  61  51  44  38  75  52  43  49  47  48  50  75  71  46  26  38  55  67  64  67 111 180 202 206 180 147  82  68  65  59  54  43  27  36  58  76  22  38  48  40  45  98  68  83  79  81  68  62  79  91 106 124 136 142 145 148  79 124 152 137 149 133 141 160  98 152  22  12  11  16  11  10
  12  17  15  19  14 110 102 165 165 154 132 141  78 153 140 124 112 100  83  67  74  66  83 100  79  95  47  37  33  38  57  51  44  45  39  38  50  64  69  79 150 197 209 213 199 165 114  77  68  67  54  48  54  52  64  57  62  49  53  76  99 103  82  81 112 106 108  90  94 107 122 139 134 136 149 157 101 133 137 118 180 161 147 156 151 129  39  12  12  16  12  10
  12  15  11  15  18 102 122 163 152 173 145 125  85 157 144 132 132 112  96  92  89 104  93  91  80 105 108  99  98  80  73  61  62  67  68  69  57  74  89 109 173 203 219 221 211 193 151  99  84  71  61  64  67  63  67  70  75  66  66  66  87  83  89 102 116 129 130 128 124 125 131 143 140 151 147 161 120 135 124 122 144 132 138 139 172 127  66  12  12  10  12  14
  11  17  12  17   9 109 167 150 129 127 106 128  99 153 141 139 129 123 113 110 116 115 117 105  99  93  87  82  75  76  79  77  61  56  68  60  61 100 115 154 191 211 216 225 216 206 172 127 105  91  84  66  65  58  63  74  73  82  84  89  84  87  96 108 124 126 137 136 136 143 147 141 152 153 149 146 147 103 108  81  92 113 121 121 147 159 105  10  14  10  14  13
  14  16  15  18  18 104 158 121 111  93  74 103 105 151 147 153 141 133 135 123 123 121 116 114  96  92  93  81  83  85  81  68  70  69  71  64 117 135 158 170 193 219 224 221 216 206 186 154 129 117  93  84  77  79  67  71  68  76  78  82  77  87  93 106 132 136 137 151 151 152 161 159 157 152 146 158 154 124 163  57  84 114 106 103 126 163 113  14  13  12  14  13
  14  11  15  16  13 123 136 104  90  90  73 158  97 158 151 147 149 153 142 139 135 124 127 124 104  89  74  78  73  70  71  74  77  84  81 126 136 146 165 177 204 215 223 227 221 200 192 167 149 143 127 117 103  83  87  86  88  77  74  80  82  96 109 130 141 132 142 148 162 157 163 163 147 157 151 151 151 177 206 190  96 134  95 100 120 156 109  15  12  14  15  14
  13  19  17  14  16 144 123 103  89  87 177 190  92 155 157 153 147 163 164 158 141 137 135 125 117 103  94  85  79  85  82  90 100 105 134 146 157 158 171 174 204 220 221 224 223 212 195 174 167 150 138 134 131 122 100  99 100 105 111 115 126 133 141 136 146 150 155 166 167 171 167 165 163 153 151 150 146 185 202 205 183 155  94 108 122 159 120  17  12  10  15  10
  12   8  16  14  18 169 144 104  84  84 189 181 169 141 152 151 162 163 165 169 160 150 140 131 129 114 118 113 111 102 104 110 122 142 153 149 164 158 177 187 211 223 227 224 217 212 198 183 169 154 151 144 139 139 126 113 107 114 117 115 124 128 136 131 144 155 167 171 174 172 177 153 156 154 147 143 140 182 189 189 170 131 107 118 153 167 123  16  15  12  12  12
  15  18  16  17  25 170 167 127 106  95 171 179 184 146 146 147 159 162 165 170 178 165 147 142 135 130 121 120 127 124 127 141 156 152 158 162 156 157 174 199 210 223 227 222 228 215 202 184 172 164 154 152 136 137 137 125 121 121 120 122 130 136 140 150 155 159 163 170 167 174 162 158 161 151 150 135 135 178 181 174 169 115 118 151 181 181 120  14  13  14  11  13
  11  11  14  17  39 156 179 141 117 108 167 166 174 143 144 148 147 167 164 169 174 166 166 130 159 146 134 126 140 148 146 173 163 165 157 165 158 157 175 204 215 227 228 222 222 221 203 184 164 161 158 160 153 143 133 141 151 134 128 131 126 138 152 138 161 154 157 158 164 171 160 167 153 152 141 135 142 170 161 165 174 116 139 164 186 161  91   9  15  11  12  13
  14  15  18  21  31 134 192 181 141 125 141 150 164 142 150 141 154 154 158 165 151 164 164 157 168 166 164 162 157 161 146 168 167 172 161 164 154 154 187 201 215 225 229 231 222 215 200 190 163 160 145 157 163 150 141 150 147 149 143 146 147 145 147 144 151 154 147 162 164 153 151 148 148 148 145 135 140 161 156 148 156 136 157 204 186 150  77  12  17  19  12  17
  16  17  17  21  24 111 140 190 197 184 163 141 157 141 152 144 147 157 158 154 157 147 160 150 158 159 167 167 162 165 173 172 166 167 169 148 147 178 189 198 215 225 224 226 226 211 204 190 179 152 141 148 160 160 155 151 148 147 149 147 141 146 143 143 150 143 143 151 154 142 145 140 147 144 147 138 145 155 132 160 183 197 183 165 137 157  35  20  10  12  16  11
  16  15  18  16  16 102 134 136 183 194 163 130 145 141 143 136 144 153 151 144 151 148 150 158 154 158 174 169 167 172 168 171 176 172 162 146 180 186 183 193 209 218 203 192 201 213 201 191 183 182 144 136 158 163 165 157 151 163 153 151 151 150 147 147 144 148 144 140 142 154 146 136 148 137 143 139 144 134 127 145 197 199 156 124 162 133  19  12  16  15  12  15
  15  11  15  13  17  67 157 159 183 192 197 167 132 149 138 144 153 137 138 135 143 139 150 153 153 169 171 158 174 181 179 179 178 166 146 159 190 177 158 169 190 191 184 185 189 176 168 174 178 188 170 142 146 158 161 166 172 156 156 162 149 153 152 149 148 146 142 139 142 145 130 139 138 137 136 143 145 126 168 197 197 187 187 186 168  86  15  17  13  15  13  12
  12  12  14  13  16  26 152 189 173 169 185 160 121 147 135 142 152 143 126 137 137 156 148 148 156 169 167 169 171 163 177 178 178 158 149 181 166 130 142 132 161 165 161 150 155 139 131 136 161 186 190 159 151 162 164 170 178 170 178 164 154 159 147 146 155 139 140 128 134 134 135 131 132 127 132 145 145 123 149 165 159 170 201 193 153  47  16  17   9  12  12  15
  11  11  16  17  17  15 110 175 138 135 126 107  96 151 137 126 133 131 129 134 147 146 157 153 164 159 159 177 173 178 174 172 177 162 170 151 127 111 117 132 126 115 117 111 115 112 112 106 127 150 170 163 164 159 167 168 173 173 170 167 166 154 145 135 135 135 147 131 114 128 132 132 127 126 132 150 148 108  99 108 127 150 184 163  91  13  18  16  14   9  14  15
  12  15  19  16  11  18  41 142 110 106  92  80  89 144 138 128 126 123 133 138 131 146 148 156 164 167 170 164 159 182 188 165 161 171 177 130  91  56  23  27 121  87  93  90  91  98  26  26  85  93 132 161 170 176 165 168 169 181 167 173 170 158 154 130 143 120 135 131 123 118 126 123 122 125 133 141 134 115 111 122 130 137 150 140  51  19  18  14  15  15  12  11
  15  16  14  16  14  19  11  68 116 105 104  97  83 138 141 123 120 123 131 127 132 140 149 155 160 156 178 173 185 176 170 166 168 182 163 131  80  53  22  26  84  84  80  83  78  48  33  22  43  85 115 159 178 185 178 167 172 178 174 175 168 165 150 149 147 135 130 125 116 131 124 123 127 131 138 140 127 130 136 138 146 134  99 129  58  15  16  16  12  17  12  13
  12  15  16  11  17  15  22  20  48  97  88  86  81 135 146 129 128 131 131 131 142 140 150 154 155 170 167 180 182 177 177 174 180 180 177 127  92  69  78  87  98  85  82  88  90  84  76  68  65  93 108 189 195 184 179 170 177 177 165 178 168 164 161 152 142 149 131 125 122 119 127 125 122 133 138 143  96  96 110 112 111  72  31 138  65  14  15  15  14  14  12  10
  12  11  14  15  17  16  22  24  33  37  66  77  61 115 145 130 127 126 126 131 137 146 153 148 153 165 166 194 179 172 169 186 200 193 189 184 125  74  91  96 103  83  78  73  82  87  85  80  65  94 175 200 192 192 192 186 168 182 180 164 169 166 162 165 149 148 123 123 124 121 122 121 124 129 142 151 123 137 177 170 155 150  51 138  54  15  14  14  15  11  12  12
  13  14  14  14  16  21  23  30  37  39  39  36  38  96 143 136 122 125 119 130 139 131 153 171 171 161 175 176 182 177 191 199 200 197 198 184 163 154 136 112 107  79  68  71  69  95 115 129 141 173 181 191 199 205 199 191 193 176 184 171 168 169 172 156 145 138 131 119 121 127 133 121 128 132 145 150 184 194 195 143 120 121  95 133  33  11  15  13  14  12  12  15
  14  13  14  15  18  22  26  32  37  39  40  41  37  86 143 138 124 120 129 134 137 146 155 163 154 176 171 175 178 179 196 205 201 197 194 186 179 157 153 132  90  67  64  65  75  96 126 147 164 167 183 198 203 211 206 207 194 191 191 185 178 168 169 152 143 145 139 134 129 112 125 126 122 142 142 149 142 132 145 154 134 118 129 118  13  17  19  10  15  12  10  12
  15  17  16  17  17  24  30  36  37  39  37  37  39  77 144 137 130 119 127 135 138 150 151 160 166 179 177 180 187 193 198 201 205 196 189 183 170 169 156 127  95  68  64  66  82 106 136 159 165 169 183 189 201 203 199 206 203 199 187 185 175 162 167 151 163 140 131 117 119 121 118 129 139 139 153 150 143 167 154 158 189 192 133  33  12  12  14  12  14  13  11  12
  16  11  16  17  20  23  30  38  38  40  41  36  39  83 143 138 132 124 129 139 136 142 153 153 160 175 171 185 194 194 199 203 198 191 190 175 176 168 156 139 108  78  72  76  95 116 148 156 171 176 182 183 195 202 202 203 202 194 194 195 181 174 158 149 154 139 125 125 121 119 119 132 133 150 148 155 179 176 181 160 159 119  31  17  15  17  14  16  12  11  15  14
  16  11  16  17  18  21  28  37  38  39  35  45  36  70 146 142 127 131 125 121 134 148 147 162 169 157 175 184 189 190 188 195 183 187 187 182 181 162 155 141  94  84  84  92 103 117 161 162 167 181 180 182 188 190 190 189 194 192 184 187 181 174 153 153 134 131 125 116 126 130 128 140 146 144 146 153 119  87  21   7  13  16  19  17  13  12  14  15  14  17  12  13
  17  16  16  17  16  24  28  33  36  39  41  35  39  51 147 143 133 134 132 133 133 128 142 148 162 176 168 182 184 189 185 169 187 182 175 180 174 175 167 163 127 120 120 123 137 162 176 172 173 178 184 187 181 179 185 188 191 193 186 184 176 167 155 143 140 141 131 131 127 121 126 147 141 157 148 144  19  18  17  23  11  19  14  17  12  12  15  12  12  11   9  15
  16  17  17  16  17  18  30  32  35  36  37  36  37  42 141 140 142 130 132 127 132 131 135 150 149 167 174 181 179 179 177 184 179 184 170 175 182 164 143 140 173 183 172 167 175 144 136 152 165 179 178 170 173 178 184 181 184 179 181 178 175 166 164 145 141 123 130 132 126 142 120 128 145 153 144 133  18  22  22  17  12  18  18  14  15  16  19  10  14  12  10  15
  17  18  15  16  16  17  24  30  33  32  32  38  34  34 147 143 136 130 124 129 130 138 132 145 150 165 168 175 174 177 178 172 171 165 170 151 131 114  94  87  87  96 108 114  92  83  77 101 102 119 136 158 169 172 161 168 171 173 163 175 174 174 142 147 145 130 123 122 135 130 123 134 142 144 145 124  18  20  16  19  19  18  16  12  15  13  14  11  13  13  12  13
  17  16  13  13  16  18  16  26  28  31  33  31  30  32 135 140 139 122 126 133 133 134 141 141 154 160 159 170 177 174 167 164 154 137 126 101  86  73  69  69  73  68  70  60  62  62  68  72  69  83  93 110 149 156 172 174 157 158 169 165 164 155 150 151 134 135 132 131 132 133 137 144 135 125 144 105  20  21  22  17  19  18  16  12  13  15  10  15  11  13  13  11
  19  20  17  17  14  14  17  18  25  26  28  27  29  25 111 132 139 130 128 125 132 140 140 142 157 150 163 168 155 154 148 140 108  92  76  55  56  61  64  67  56  54  44  51  56  52  63  60  63  51  59  65  78 101 120 126 133 147 159 160 154 156 152 154 149 139 137 135 126 129 139 136 141 142 141  59  19  21  18  18  21  11  13  14  14  11  13  14  13  12  15  14
  19  17  17  18  15  16  15  22  15  13  20  20  18  19  84 132 130 134 116 126 127 130 146 138 153 148 146 153 136 121 106  84  74  59  39  35  39  54  62  69  64  51  49  46  52  54  54  51  59  49  45  32  48  68  83 120 114 128 137 155 154 149 153 144 148 147 129 136 133 128 131 128 140 125 132  22  16  18  21  16  16  14  14  13  13  12   8  14  11  17  12  14
  17  13  15  15  16  15  12  11  18  12  14  18  18  10  37 128 123 124 127 123 131 120 143 142 149 148 145 141 118 114  87  52  40  54 114 145 150 156 183 173 169 159 169 166 159 162 167 156 151 151 134 123  77  54  44  75 109 105 132 142 154 146 157 146 148 138 126 126 124 132 123 131 136 131 125  24  22  19  18  18  18  16  18  18  11  14  15  14  13   9  14  18
  16  19  16  17  16  17  12  17  18  13  17  17  17  14  12 123 118 108 121 118 110 130 131 152 144 152 148 136 132 121 128 159 166 165 158 160 166 173 163 163 167 168 165 175 166 173 166 170 157 162 158 154 149 149 163 125 109 113 130 137 150 154 156 144 139 137 139 114 124 129 127 135 122 114  76  21  21  19  18  19  19  15  16  13  13  12  15  10   9  14  14  11
  17  18  17  15  14  15  15  15  15  15  13  15  17  29  20  78 120 115 106 118 112 117 141 145 148 144 143 128 136 131 140 144 155 141 146 163 163 166 155 136 132 144 152 147 143 144 157 163 166 165 155 152 129 134 133 138 120 105 118 127 150 154 149 152 122 137 137 125 119 122 125 103 121 120  16  22  20  17  21  18  15  15  15  12  12  14  12  16   9  11  13  13
  15  14  15  11  14  15  12  15  16  15  15  12  17  14  18  16 111 111 105 107 110 112 123 139 146 140 131 124 132 128 131 133 121 120 116 121 122 115  95  91  87  92  98  94  95  96 103 110 114 119 123 117 120 118 124 121 122 114 115 118 129 145 146 139 126 127 121 119 119 118 108 108 102  72  23  21  20  17  20  18  14  16  16  13  14  11  15  12  13  15  13  13
  17  17  16  13  14  15  13  14  16  17  15  18  17  18  12  13  59 105 113 111 105 116 112 133 144 126 133 116 122 120 120 115 104 100 114  95  88  78  72  76  72  66  64  60  66  76  72  77  78  89 100  98 110 113 106 116 122 117 113 118 121 137 126 129 120 117 108 122 115 118 111 102  98  15  22  22  19  18  17  19  19  17  16  15  10  10  15  14  10  12  13  13
  15  15  17  15  13  16  12  15  17  18  15  16  18  13  17  18  36 107 103 109 114 118 106 118 134 127 123 120 117 115 111 114 102 104  92  93  80  76  74  72  64  64  63  66  69  68  73  73  78  84  85  96  94 103 110 109  99 103 109 109 118 119 115 114 119 119 105 117 111 104  99  90 138  14  24  21  20  18  20  19  14  16  13  10  11  11  13  11   9  12   9  12
  11  13  17  16  14  13   9  11  15  16  14  10  19  16  17  16  21 138  92  99 110 101 115 109 122 122 114 101 116 102  90 109  96 100  96  86  81  76  74  69  71  69  63  66  66  68  75  76  75  82  87  75  89  99  94  97 102  99 104 104 112 114 107 112 106 116 105 104 108  89  84 132 134  10  21  19  23  20  20  20  16  11  15  14  12  10  11   9  15  12  11  12
  12  15  13  11  12  12  12  13  16  15  16  14  19  17  19  19  22 153 123 100 103 103 119 101 111 116 105 104 103 100  91  92  86  83  96  88  82  81  76  72  70  70  68  67  66  71  76  73  78  85  87  93  89  95  97 102  98 107 102  99 108 107 108 121 117 112 113  91  89  76 132 141 120  19  24  24  21  19  18  15  15  14  14  13  12  11   9  12  14  13  13  13
  12  15  13  15  16  12  14  12  17  16  14  15  15  16  15  17  16 140 144 112  92 105 108 116 110 109 106 105  88  95  86  84  92  98  94  91  90  91  85  84  76  77  81  79  76  80  85  82  88  90  99  97 101 105 107 103 107 103 108 109 110 114 121 108 112 104  94  94  86 119 139 146 110  23  23  20  17  18  17  15  16  14  15  13  10  15  12  12  13  13  12  13
   7   9  12  14  13  12  16  15  15  15  17  17  21  20  19  18  15 129 137 123 112  96 102 118 125 109 102  95  89  92  94  94 101 104 111 109 110 106 108 100 109 108 100 100 106  96 111 106 116 117 128 128 131 134 117 119 113 115 117 119 114 121 121 121  99  92  90  93 125 134 138 139 110  28  26  19  21  18  16  15  11  13  14  12  15  10   8  14  12  15  13   8
  12  14  16  13  11  16  17  15  18  21  26  24  26  25  26  23  22 115 141 133 127 108  90 110 111 117 110  97  97 103 111 112 124 133 133 136 136 128 133 131 138 121 115 119 130 134 148 151 158 158 157 156 154 146 143 136 133 120 128 123 126 120 110 106  96  86  98 107 121 138 134 141 180  42  27  24  14  21  19  19  18  12  15  14  10  14  14  12  13  10  11  15
  13  18  16  16  16  15  17  19  21  24  25  28  25  26  27  22  77 187 141 139 124 125 105  98 105 115 116 109 112 117 123 132 148 142 151 156 170 168 164 167 153 151 152 143 149 147 166 166 169 174 162 176 172 163 154 144 135 136 122 129 113 122 106  92  91  95 113 112 127 134 139 140 187 204  23  21  24  20  19  15  18  14  12  11  13  11  14   9  15  12  13  11
  16  16  15  10  17  16  22  24  25  30  33  32  34  32  33  31 209 168 149 131 125 117 118 102  94 107 117 107 111 123 137 150 148 162 155 167 168 177 164 167 155 142 120 141 148 134 151 145 154 165 174 171 172 161 164 160 135 119 109 104 103 106  93  88  97 102 105 120 125 139 136 147 183 208 124  23  20  20  17  22  14  16  12  12  15  15  12  12  10  12  15  12
  14  13  11  14  16  19  21  27  25  30  32  32  32  30  28 133 212 167 146 144 123 116 115 113 102  94 104 107 118 115 137 132 143 158 159 157 160 162 157 148 136 127 115 114 104 136 132 138 149 151 158 162 142 149 155 131 126 109 102 102  99  93  93  93 100 108 106 124 137 133 141 150 171 221 211  20  19  16  19  12  19  14  15  13  12  12  11  13  12   6   9  13
  15  12  15  16  17  18  26  26  30  31  33  33  33  38  36 205 213 144 151 145 133 120 113 120 109 100  94 101 106 105 126 131 141 137 148 141 153 139 136 125 121 111  95 101  98 110 117 126 134 132 129 135 138 139 130 122 112 112 103 100  90  90  92 101 104 106 110 130 132 139 146 159 162 224 230  44  21  15  21  15  17  16  13  12  11   8  14  12  10  14  10  10
  16  14  15  17  19  25  24  28  30  33  34  33  31  28  58 216 209 142 152 148 139 127 120 107 110 102  95  92 101 111 111 113 120 120 121 120 122 104 108 103 101  93  90  94  89  92  99 100 111 125 117 115 129 121 111 105  97 101 100  92  89  89  98  99 103 110 128 133 138 142 153 154 162 219 227  78  21  21  17  19  18  17  13  15  14  12  13  11  10   9  10  10
  17  18  14  13  17  21  24  32  33  31  36  35  33  27  89 220 214 153 159 145 141 130 127 121 109 104  98  91  91  99 103  97 101 103 101 104  91  92  90  84  82  89  87  92  87  90  88  92  92 103  91  98 101 100  99 101  99  93  91  92  91  91  95 104 107 114 124 131 141 150 156 149 187 222 225 119  24  20  18  18  16  17  13  14  11  10   9  10  11   9  10  13
  17  17  19  17  19  21  28  31  33  35  34  32  33  35 123 221 215 188 136 152 140 138 134 124 109 109 108  98  93  88  92 100  97  91  88  87  82  90  85  87  80  81  80  81  85  77  84  77  87  88  93  87  95  97 101  96  94  94  89  95  92  95 105  98 113 122 126 139 147 151 158 127 213 220 219 154  18  24  21  16  13  12  14  11  10   9  11  10  11  14  11  10
  13  13  16  16  20  24  26  27  29  35  35  32  34  34 134 217 221 207 113 154 148 138 135 127 123 110 104  98  90  88  91  91  96  99  97  90  90  96  90  87  89  87  85  85  86  86  85  93  93  89  96 102 100  92  91  92  93  87  90  92  94  99 105 113 118 119 133 144 148 150 142 178 222 223 212 172  20  18  20  16  17  12  11  12  12  12   7   7  11   8   6  11
  17  15  18  21  16  23  24  29  30  30  34  32  33  37 140 210 217 213 178 126 137 142 138 128 117 120 106 103 107  93  89  85  86  90  90  94  92  91  93  95  93  87  88  91  85  90  93  92  94  95  92  91  92  93  92  89  87  89  95  97 105 105 113 116 121 126 130 146 150 150 151 220 223 220 206 184  29  20  19  16  17  12  15  13  12  13  15  13   9   8  14   9
  20  16  14  19  18  21  23  26  29  35  32  36  36  45 141 204 220 218 208 136 138 138 141 136 121 122 113 112 104 101  95  90  88  85  92  91  84  96  90  91  90  88  84  85  89  86  90  91  90  86  87  88  89  83  87  94  97  88 102 105 106 113 112 118 121 133 140 139 140 128 213 223 220 211 203 197  42  24  19  16  14  15  13  13   8   9   8  10  11  11  10  13
  14  16  18  20  18  15  20  25  25  28  31  33  43  38 126 195 206 215 214 204 122 144 139 137 128 124 119 114 105 102 101  93  90  92  86  76  86  85  85  84  85  86  85  83  83  82  79  84  82  86  80  77  76  84  85  88  95  99 103 108 111 117 123 125 134 134 142 135 121 209 213 217 211 208 210 200  44  42  16  22  15  14  13  12  14   9   9  13   9  13  11   8
  18  14  18  15  17  15  17  20  23  25  24  44  40  34  96 201 201 212 215 209 205 119 135 143 126 122 119 115 109 100 104 110 105  96  92  94  80  79  80  74  76  74  74  75  73  72  73  71  77  74  74  81  86  88  82  94 106 103 108 109 114 117 123 126 128 139 137 129 204 218 220 212 213 205 212 197  38  48  28  15  18  14  11  11  10  10  14   9  11   8  12  12
  13  18  15  13  14  14  21  15  21  22  37  42  43  35  74 200 195 203 210 210 213 199 112 124 132 134 118 119 115 107 108 104 102 101 105 100  97  81  82  83  73  69  75  63  67  71  70  70  70  69  81  81  85  98 102  99 112 107 109 112 118 119 132 130 128 128 131 203 209 214 217 212 205 206 212 199  37  48  46  25  15  11   9  11  12  11   9  13  10  10  11   9
  18  15  16  16  15  13  17  18  20  39  40  38  42  41  46 201 201 197 207 214 209 210 199 117 122 134 121 127 118 112 113 103 105 118 105  97  96  99  92  85  85  86  79  72  70  69  64  70  72  71  87  87  91 103 103 116 114 108 111 126 128 120 124 141 124 134 211 209 215 213 208 208 206 207 215 193  50  42  48  49  34  11  10  11  12   9  12  11  11   9  11   9
