P2
# Generated by OpenCV 4.2.0
92 112
255
  17  17  17  15  15  17  16  16  16  19  18  17  16  15  14  14  14  16  16  16  17  20  20  20  15  14  19  23  28  27  27  28  24  19  15  16  18  28  30  26  30  28  31  29  28  30  35  34  27  31  39  35  29  27  22  20  28  31  33  27  26  30  26  34  35  38  62  75 102  86 104  93  99 109 104 103 109 112 113 113 113 115 117 116 118 118 119 119 120 120 121 123
  18  18  18  18  20  21  18  17  18  19  19  18  18  17  17  17  15  16  17  17  16  16  17  17  13  13  19  23  20  17  16  19  25  28  27  25  21  19  16  19  24  27  33  34  34  33  31  31  29  27  27  27  32  36  31  27  29  30  26  28  26  23  26  20  23  27  31  32  82  92  90 101  97 105 108 106 109 111 113 113 111 111 113 113 115 117 116 118 118 119 122 122
  20  20  21  22  22  22  20  21  20  19  19  20  20  20  21  20  18  18  19  18  13  11  15  14  13  12  17  25  25  25  28  23  21  28  34  33  29  22  18  19  20  18  27  34  33  29  30  33  35  37  32  27  26  29  33  30  27  31  31  22  19  20  21  19  18  12  15  16  31  80  80  92  92 108 109 106 107 110 111 112 112 112 114 113 115 115 116 117 118 119 121 123
  19  20  22  23  23  23  24  24  23  21  21  23  24  24  24  25  24  22  21  20  15  13  12  11  14  21  27  31  31  33  38  31  22  22  23  32  29  24  22  23  19  20  24  28  29  28  32  33  33  33  33  35  36  30  30  34  38  38  36  26  23  24  17  14  11  17  13  19  10  32  49  83  84 104 111 101 107 113 113 114 111 113 115 116 115 116 116 118 119 119 120 122
  21  21  25  26  27  28  28  27  24  24  26  26  29  29  29  30  32  29  22  23  21  17  15  17  20  24  27  34  35  37  32  33  30  21  21  27  22  21  21  22  23  24  27  28  31  32  32  34  33  33  32  31  27  32  36  31  30  38  33  29  27  21  15  18  15   6   8  11  13  13  15  53  81 101 109 102 110 113 113 114 113 113 115 116 116 117 119 119 120 120 122 122
  24  24  27  29  30  30  31  30  29  28  30  28  30  31  32  38  39  33  27  27  27  20  18  20  16  19  22  26  36  36  35  39  34  28  26  26  24  26  22  17  19  23  25  28  38  37  29  29  29  36  41  39  29  19  16  31  36  28  34  40  38  28  19  11  14  10   7   2   2  10  12   8  57 100 106 104 114 117 116 113 116 115 116 117 117 119 120 121 120 120 121 123
  28  28  30  30  30  30  31  32  30  30  30  29  30  32  31  36  34  21  16  17  19  16  17  19  18  18  23  25  24  26  28  37  38  34  32  27  24  29  27  25  23  23  23  24  31  32  28  28  30  37  40  35  34  26  13   5  14  30  24  34  35  25  21  21  11   9  10   7   4   2   7   8  26  82 109 103 119 122 120 109 118 118 119 121 120 121 122 121 121 120 121 123
  31  31  32  32  32  31  32  32  31  30  30  30  28  27  26  23  21  17  14  16  17  16  16  17  23  24  24  25  26  25  28  32  33  42  45  33  24  26  26  29  33  30  22  17  21  27  25  29  32  30  29  30  30  28  24  19  11   8  19  20  20  18  17  22  18  17  17  13   8   8   5   7  12  50  98 101 126 123 122 112 123 121 123 124 123 124 123 123 122 122 123 124
  35  34  34  35  32  30  30  31  30  28  27  28  24  22  19  15  18  17  15  16  18  18  18  20  21  25  32  41  47  52  47  42  34  32  38  45  39  31  23  26  30  40  40  28  16  16  23  26  25  28  35  35  29  29  25  18  14  10   5  12  13  13  12   9   9  17  16  16  10  11  13   3   4  26  66 109 130 123 122 116 125 124 126 126 126 125 125 125 124 125 125 124
  35  32  31  31  33  30  30  30  29  28  27  28  23  16  15  15  16  16  16  18  22  24  23  19  18  19  15  19  30  37  41  40  40  42  35  32  31  34  39  30  26  30  36  41  38  27  24  23  25  25  25  29  31  36  32  21  15  13  10   7   8  10  12  12   8   8  12  15   8   5   8   7   8  13  51 102 121 122 120 119 123 124 127 128 127 126 126 126 126 126 125 124
  31  29  29  28  29  29  29  29  28  29  31  28  21  17  17  13  10  10  11  16  20  25  29  31  24  26  25  20  24  26  34  39  43  47  48  44  40  32  36  44  32  25  24  35  47  48  37  27  28  29  25  27  30  29  28  27  23  20  16  10   9   7   8  10  16   9   6  17  21   7   2   4   6   7  24  87 122 122 120 124 123 124 127 126 126 126 126 126 126 125 125 126
  28  27  27  26  24  26  25  28  28  27  33  35  23  14  15  14  10   8   8  15  18  21  26  38  38  32  39  30  24  25  32  37  49  49  45  41  42  40  38  40  42  34  27  29  43  52  61  46  32  36  39  37  36  29  27  33  36  35  34  29  26  16   6   5  12  11   4  14  34  17   8   7   4   9   6  68 110 119 123 121 122 125 128 127 128 129 125 126 126 125 125 126
  24  24  22  23  24  23  24  24  27  28  29  25  17  13  14  15  16  14  12  16  18  24  31  38  45  49  40  41  40  27  38  35  42  44  47  44  39  39  44  45  49  45  32  30  28  33  49  63  57  46  47  44  34  25  24  30  36  37  37  37  36  33  24  13   7  11  11   6  25  29  14  12   8   8   7  35  66  89 116 117 120 123 128 127 127 126 125 127 126 126 126 126
  21  22  22  23  24  20  23  23  26  29  19  15  14  19  19  16  14  21  20  19  18  30  48  46  42  51  50  51  50  50  45  44  35  41  31  48  41  41  36  37  42  50  46  32  31  34  41  52  54  64  52  44  29  26  24  21  21  18  19  21  29  34  34  25  16  11   9   9   4  31  19  15  10   6  10  20  24  43  82 106 115 123 128 126 124 125 125 125 125 126 126 126
  20  19  22  22  23  22  23  27  28  22  15  14  16  20  23  28  31  28  31  26  23  27  48  56  53  48  61  49  52  58  53  55  37  45  40  28  43  44  37  39  36  49  63  39  35  30  33  38  43  64  74  50  33  24  20  18  20  15  12  10  13  17  17  22  21  19  14  10   5  15  30  14   7   8  13  24  27  19  30  87 114 118 123 123 124 126 124 125 125 126 126 126
  18  21  22  22  23  23  25  29  25  20  19  11  19  30  27  28  31  38  39  34  36  32  49  63  57  52  71  63  52  59  58  62  62  35  39  34  22  53  41  50  43  38  61  48  43  39  35  31  30  40  57  45  36  24  16  16  13  13  14   8   7   8  10  11   7  19  27  17   9   8  24  21   4   6  14  28  26  25  21  31  84 115 118 123 125 125 127 125 126 126 126 127
  15  21  23  26  26  24  27  28  27  26  27  19  26  35  40  38  28  36  44  52  46  45  40  61  57  60  68  70  61  70  64  50  68  61  30  35  31  27  64  49  65  38  40  42  44  61  49  29  18  18  26  29  31  25  22  19  10  10  11  10   6   4   6  11   8   5  16  22  15  12  15  22  12   9  11  23  27  25  31  17  29 103 120 127 124 123 126 126 125 126 126 126
  17  20  25  27  27  25  28  29  28  30  33  33  30  27  43  52  45  44  40  63  54  68  36  59  65  57  50  49  54  61  69  59  41  72  46  22  38  13  55  52  59  43  45  48  48  53  57  57  29  16  22  17  19  21  20  19  16  10   9  10   8   7   5   2   9  12   8  16  23  12  11  16  12  15  21  27  26  26  25  24  18  38 108 127 127 124 125 126 125 126 127 128
  18  21  25  27  27  24  30  31  31  35  41  42  44  44  40  49  57  54  49  57  58  66  52  55  68  66  53  33  34  39  68  60  43  46  73  34  27  27  35  58  53  67  40  49  42  44  50  63  35  14  16  19  15  12  17  19  13   9   9   9  10  11   9   7   4   8   9   7  19  15  10  14  15  23  28  29  29  29  27  24  26  23  72 120 126 126 125 126 126 126 125 126
  19  21  25  28  27  30  30  29  33  39  44  48  53  57  52  48  66  60  63  70  68  60  65  63  75  51  54  33  29  26  56  55  44  33  67  53  26  19  24  48  39  68  41  44  18  31  29  36  31  16  10  17  14  13  14  14  16  14   9  11  12  13  11   9   9  10  11  10  12  18  10  19  20  21  27  31  30  25  23  25  22  27  62 102 126 126 125 126 126 127 126 125
  22  23  25  28  29  33  30  27  32  39  43  47  56  58  64  57  53  67  53  72  76  53  61  57  70  50  49  38  22  18  40  61  37  31  47  49  26  22  22  47  46  49  43  34  19  22  19  20  30  21  11  19  17  19  17  13  17  15  16  17  18  19  18  18  17  16  15  13  10  14  13  20  12  15  21  19  20  20  20  23  25  16  65 103 128 124 126 126 127 127 127 127
  24  24  24  27  31  31  30  32  32  39  43  47  54  59  64  67  54  63  60  45  68  43  60  41  61  58  26  35  28  20  16  54  47  30  42  37  28  22  17  47  46  38  34  23  24  10  19  17  24  20  18  16  22  21  21  22  22  22  25  26  23  25  27  25  22  23  24  22  19  21  19  20  10  13  17  18  17  14  12  14  19  14  34  93 127 124 125 127 127 127 126 126
  25  25  26  28  29  32  33  34  34  39  53  62  56  55  53  68  60  57  67  40  50  54  56  40  54  65  33  20  30  27  15  35  50  31  30  43  44  28  25  37  41  36  37  24  27  17  20  17  23  23  21  19  27  23  26  34  32  32  33  32  28  31  38  38  33  38  44  34  30  30  25  21  13  14  21  20  18  13  10  11  11  18  17  63 130 124 125 126 126 128 127 125
  29  29  30  31  31  32  29  36  44  40  45  57  61  59  58  56  69  53  67  53  33  56  53  54  32  61  48  24  29  28  26  23  41  36  27  37  49  59  49  42  53  43  43  30  31  25  23  24  25  25  28  28  31  29  30  38  42  41  40  43  44  48  53  57  58  60  58  50  45  42  39  37  28  22  25  24  19  13  11  12  13  11  19  46 120 123 124 126 126 127 126 125
  29  30  32  30  29  30  24  33  45  42  46  49  54  54  61  64  64  58  50  68  45  30  61  68  40  56  63  32  24  24  30  26  32  38  31  33  40  62  74  96  83  56  58  39  48  27  43  51  33  31  27  41  33  38  40  47  56  52  51  62  70  74  75  77  78  75  71  68  58  50  49  52  45  34  24  24  19  16  13  12  12  13  14  26 110 119 124 128 126 126 126 125
  29  31  30  28  29  30  27  32  44  51  50  53  57  57  54  52  56  61  49  53  57  44  50  58  59  48  59  53  40  29  31  36  37  44  46  52  53  59  71  84 105  94  86  66  64  57  59  59  70  43  54  45  49  53  55  58  68  73  86  96  99 102 104  98  90  90  92  89  79  69  66  68  57  37  26  26  23  18  14  13  14  14  14  10  80 126 124 126 127 126 126 126
  29  30  28  27  28  28  29  37  46  55  70  68  54  56  52  53  57  56  54  52  53  56  50  53  61  61  58  60  59  60  43  44  46  49  59  79  88  95 114 114 127 133 117 111  88  94  89 111  95  74  78  60  69  70  76  88 103 112 127 132 132 129 125 119 110 109 110 108 100  94  90  86  72  48  33  30  24  18  16  16  13  16  16   8  50 121 124 126 126 126 127 125
  29  29  28  27  26  25  29  41  41  36  43  63  61  49  49  48  54  56  60  60  59  63  65  72  73  81  77  73  76  82  73  67  64  66  71  83 101 112 142 158 157 157 143 155 142 128 126 134 126 106  89  92  99 102 119 128 142 148 148 148 148 144 140 134 125 115 113 115 111 106 104  96  80  55  42  33  21  21  18  14  13  16  13   8  37 114 119 123 125 126 126 125
  27  27  27  27  26  24  26  33  36  38  34  43  50  48  54  56  57  61  66  72  88 100 109 124 132 138 141 138 131 129 131 120 113 119 121 116 120 129 141 157 170 172 174 179 182 165 166 161 155 134 132 138 136 138 151 160 169 165 162 158 149 148 145 140 131 122 119 120 119 115 108  99  86  66  57  52  38  25  17  15  13  10  16   7  44 112 119 127 126 126 125 126
  24  24  25  25  26  26  31  33  33  38  39  37  41  42  47  51  66  65  72  98 120 135 147 162 168 173 179 178 170 170 177 179 179 183 192 192 191 195 193 195 195 189 194 196 203 194 194 192 180 170 164 163 167 174 175 168 170 167 166 160 146 142 138 134 127 122 119 120 123 120 111 100  86  70  64  57  50  40  23  12  11  11  13   6  50 116 125 130 126 127 125 126
  24  24  27  27  28  27  32  35  28  29  31  34  41  43  44  59  83  85 102 138 153 157 165 176 180 185 190 196 200 199 199 203 206 207 206 199 197 198 197 200 202 200 203 204 204 206 203 201 196 190 184 181 184 183 177 177 176 170 162 154 145 139 135 132 127 124 119 117 117 119 113 101  87  72  68  66  60  48  34  22  13   8   8   6  38 120 126 127 126 128 126 126
  25  24  27  29  30  27  26  29  23  22  30  33  42  47  49  58  76  91 121 156 171 179 182 188 192 195 199 199 207 208 208 209 207 206 203 202 205 208 209 208 208 206 210 210 205 203 204 204 203 199 194 190 188 187 183 180 177 174 166 159 150 142 141 138 132 125 120 119 120 122 114 101  87  74  72  71  64  52  35  23  17  12   9   7  35 126 123 124 126 127 126 126
  23  25  27  29  29  28  26  26  17  16  33  37  43  51  53  64  84 108 136 170 187 194 195 197 198 201 199 202 202 201 205 209 207 209 209 209 205 202 203 206 207 206 206 205 205 204 201 199 199 199 194 192 188 187 185 181 183 178 170 162 154 147 145 141 136 129 123 122 124 127 118  97  82  76  77  75  67  56  39  21  13  13   6   4  58 132 123 128 127 122 126 125
  23  23  26  29  28  26  27  23  19  23  29  34  41  48  62  80 104 123 144 177 198 200 200 201 201 201 204 203 201 203 209 212 214 213 214 213 211 209 209 210 210 209 206 207 204 202 200 199 198 197 197 195 193 190 187 185 180 177 169 163 157 154 149 141 135 129 124 121 122 124 116  97  83  82  83  81  71  58  36  23  14  11  10   4  66 131 125 125 124 122 124 124
  23  23  24  25  28  27  29  26  23  23  29  39  54  64  74  93 113 129 159 187 199 201 200 202 203 203 203 206 207 207 211 213 216 218 219 217 217 214 212 212 212 212 209 209 206 206 206 206 204 201 200 198 195 190 186 184 179 176 169 166 164 161 154 142 135 132 128 125 122 120 115  99  83  84  86  84  74  60  39  23  14   8  10   4  75 132 126 124 125 125 125 125
  23  22  22  23  26  29  31  33  28  19  24  40  59  70  82 102 125 146 165 188 197 199 200 202 205 206 205 206 207 208 209 211 213 216 216 214 214 213 211 211 212 212 211 209 209 208 205 204 203 203 200 198 193 188 185 185 181 177 172 172 171 166 158 147 138 135 133 132 126 118 114 102  87  84  86  86  72  59  45  22  15   7  10  10  89 129 123 124 126 125 125 125
  21  19  20  22  23  25  30  34  26  17  21  35  53  71  92 122 151 165 169 188 198 200 202 203 205 206 206 207 208 208 209 211 212 213 210 209 210 209 208 208 209 207 207 208 208 206 203 200 200 200 200 197 197 194 191 187 182 177 174 173 170 165 159 151 142 136 133 134 128 119 111  99  88  87  88  89  74  56  42  22  17   8   8  14  90 126 122 124 125 125 125 125
  20  18  17  19  21  24  26  28  23  18  22  37  57  80  99 129 156 174 180 187 194 201 203 203 205 206 205 205 207 207 210 213 214 214 212 213 213 211 210 210 209 207 206 206 206 203 202 201 200 200 203 202 201 197 191 186 181 177 175 173 170 165 161 156 146 141 138 135 131 122 111 101  92  89  88  93  80  55  34  23  16   9   9  14  84 126 123 126 125 124 126 126
  18  18  18  19  21  23  25  26  27  21  25  35  55  83 110 137 167 176 185 188 194 200 202 202 206 206 206 206 207 208 211 214 215 216 217 218 216 213 214 212 210 208 207 207 208 207 205 204 204 205 206 205 202 195 189 187 184 180 180 177 170 168 164 156 148 146 143 138 138 126 113 103  94  90  91  89  79  54  33  19  12   8  10  11  86 126 126 126 125 125 127 127
  16  17  16  19  19  21  25  27  25  23  25  40  56  94 124 152 174 178 191 191 192 200 203 201 204 206 207 207 207 207 209 212 216 219 222 221 217 215 213 211 211 210 209 209 209 207 206 205 206 207 208 207 202 195 190 188 183 180 179 176 169 166 161 154 147 147 146 139 139 128 115 104  97  91  92  87  79  58  34  17  11   9   8  18  89 123 123 125 125 125 125 127
  15  16  16  18  18  20  23  23  23  26  26  38  57  95 127 147 164 176 186 189 193 198 203 200 204 206 206 206 209 208 208 210 213 215 216 213 209 210 208 206 207 209 209 208 206 206 206 205 205 207 209 206 202 196 195 189 183 180 181 176 171 168 164 159 150 148 151 140 135 128 119 107  94  89  89  86  82  64  39  19  12   9   5  24  98 120 123 127 125 123 125 126
  15  16  16  16  17  18  22  22  21  24  25  32  54  94 117 132 153 176 191 197 197 199 203 202 202 205 206 205 207 209 211 211 214 215 212 209 209 210 210 207 206 206 205 206 205 204 205 204 206 207 205 203 199 194 194 190 189 189 185 182 179 170 164 158 150 148 150 143 132 125 120 108  95  92  91  86  83  65  39  21  12  11   6  18  94 124 121 124 122 124 124 125
  15  16  16  16  17  19  20  21  21  24  23  32  46  74 102 123 157 182 197 202 201 201 202 201 202 205 207 207 207 209 212 214 215 216 213 212 213 212 211 210 209 209 208 206 202 203 204 202 202 205 205 201 198 197 198 196 192 191 188 183 180 169 162 158 150 151 151 138 131 125 120 107  95  94  92  87  83  65  40  23  14  15  10  18  67 111 124 124 120 124 123 123
  15  17  17  17  19  20  20  20  19  22  26  26  39  59  88 126 167 186 197 199 202 202 200 201 204 207 208 209 208 209 211 213 215 214 212 211 210 208 208 209 208 208 209 207 205 205 205 201 203 206 209 206 201 198 198 197 191 191 190 183 177 169 163 157 157 153 143 137 132 129 118 103  95  95  92  87  82  67  47  23  13  13  12  42  64  90 117 126 121 124 122 123
  17  16  18  19  19  20  20  20  20  21  23  27  31  48  80 114 151 184 198 198 203 201 201 205 206 209 209 209 209 210 210 211 214 214 212 212 210 208 209 208 208 208 207 207 208 207 207 203 206 210 210 206 201 198 200 198 193 193 193 186 178 175 166 159 156 148 139 132 129 130 119 102  96  93  93  87  81  70  52  28  15  11  15  69  74  87 106 124 122 121 122 122
  18  16  17  18  21  20  20  20  15  21  27  25  28  46  71  97 147 189 198 201 203 202 204 206 207 208 210 210 210 209 208 208 210 212 210 208 209 207 210 208 209 208 207 207 207 207 205 202 207 213 209 206 204 202 202 200 195 197 196 187 180 173 164 158 155 149 140 131 126 127 119 104  98  92  92  88  83  72  58  34  18  13  24  82  69  95 104 116 122 120 123 123
  18  16  17  18  19  22  20  18  17  18  30  32  27  41  56  83 145 188 200 205 205 204 204 205 207 209 209 209 210 209 210 211 211 213 210 207 206 205 205 205 205 204 204 204 205 209 207 203 207 210 210 208 205 202 199 202 198 199 197 189 182 174 160 155 153 148 140 125 112 111 116 102  92  90  91  87  80  71  60  34  19  10  36  88  85 102 109 117 120 122 122 122
  18  15  16  17  20  21  20  19  17  20  24  39  29  41  52  75 138 189 200 202 205 207 206 205 206 207 209 210 211 211 212 214 214 216 214 213 211 208 207 208 206 203 201 202 206 208 205 201 206 210 210 208 204 203 204 203 202 199 194 187 179 163 149 143 138 127 111  94  81  75  85  89  85  84  88  85  77  73  62  37  18   9  53  97 104  97 103 117 118 124 119 121
  20  17  17  17  19  21  20  19  21  11  60  55  37  37  40  73 141 184 193 203 207 207 205 205 204 206 208 209 210 211 212 214 216 216 215 214 214 211 209 210 210 206 202 204 206 206 203 198 205 208 206 208 209 209 207 206 203 199 189 188 174 149 129 116  95  70  60  50  41  39  36  42  56  62  73  81  78  74  66  41  13  20  70 104 110  94  88 106 118 121 120 120
  21  21  18  18  19  19  20  20  19  23 165  90  25  46  49  71 140 190 195 202 205 205 204 202 204 208 211 211 212 213 214 214 215 217 215 215 216 212 213 209 206 206 204 204 204 206 204 198 207 210 207 207 207 209 205 203 196 194 186 164 135 112  94  76  54  49  48  38  41  42  39  38  32  33  52  74  81  76  69  44  15  39  85 110 117 110  94 101 114 121 120 119
  23  22  19  18  18  19  21  22  23  57 198 160  65  44  52  67 136 191 196 200 205 204 202 202 204 208 208 210 210 209 212 211 216 217 217 218 218 210 215 214 206 202 202 202 204 209 205 198 208 208 207 204 205 205 199 192 185 176 145 117  90  87  84  78  69  58  48  54  61  48  45  43  37  31  40  64  78  77  72  52  14  45  98 113 117 117 104 100 107 120 119 119
  24  22  20  21  21  21  22  22  23  87 196 203 179  54  47  65 132 196 196 200 201 205 201 200 208 208 208 209 210 208 208 205 209 209 207 206 205 209 208 209 204 199 201 202 209 208 203 198 206 209 210 205 202 193 181 190 160 131 110  94  92  85  80  89  83  78  99 112 106 104  85  73  57  46  40  59  74  77  75  58  22  51  86 104 111 112 107 101 101 117 116 117
  23  22  22  22  23  23  22  22  17  87 196 188 210  98  49  66 126 188 193 200 200 202 200 201 205 208 196 186 187 181 189 191 193 187 174 172 174 171 172 180 195 190 186 200 208 202 197 197 205 209 209 200 194 178 161 166 124 112 101  80  84  83  93 111 121 143 153 147 140 135 118 103  83  72  63  70  78  77  78  64  28  58  76 102 109 106 112 106  98 117 117 118
  24  25  24  23  23  22  22  22   5 120 198 195 204 172  82  57 117 184 196 197 196 200 193 196 202 180 150 146 154 147 146 140 122 127 123 112 118 114 122 127 161 169 168 189 204 195 195 195 203 205 201 193 188 178 154 143 125  95  89 104 111 128 147 158 167 151 144 150 140 141 126 119 106  93  84  81  80  79  79  67  32  62  85 108 107 105 117 110  96 115 117 119
  27  28  27  25  23  22  23  22   5 162 189 198 214 208 139  58 124 171 195 197 199 192 183 171 156 125 107 112 110 113 121 114 108 105  95  95  95  96  98 102 125 150 149 182 196 194 192 188 197 200 197 190 182 176 158 145 113 100 119 139 152 148 126 101  91  93 105 114 115 124 131 127 119 106 100  90  79  79  79  72  35  61  99 109 107 112 125 121  97 114 118 118
  28  29  27  26  24  22  22  21   6 163 193 204 217 208 183  78 104 167 198 195 194 189 156 114  97 101 103 108 105 108 109 104  95  85  85  85  92  99  93  93 117 149 155 175 184 187 185 184 192 196 195 188 181 173 155 129 118 135 141 162 149  94  92  79  81  65  74  73  84 105 122 135 126 118 117 104  89  83  78  73  39  61 107 108 109 118 126 130  99 113 115 116
  28  28  30  28  26  23  23  23   6 163 207 205 218 211 205 101  92 168 191 195 190 158 113 108 121 118 119 120 123 126 116 109 114 117 124 136 141 137 138 131 136 155 174 180 179 180 180 184 191 195 193 184 172 156 135 136 144 145 169 163 122  87 116  40  86  92 116 111  59  72  90 125 122 128 129 115  97  85  78  69  41  57 112 119 115 109 124 129  98 111 114 115
  27  29  30  28  27  25  24  27   4 149 214 209 215 221 208 131  69 155 199 196 183 147 120 121 121 136 158 167 167 166 170 163 156 141 137 124 125 136 157 160 169 173 177 180 179 184 189 197 201 200 190 167 145 131 130 137 144 157 158 194 196 134 141  82  89  87 122 126  95  70  89 118 129 136 132 121 104  86  79  74  47  57 111 112 112 108 119 119  93 114 118 116
  28  27  28  28  26  25  23  28   3 139 218 214 210 207 191 149  61 154 193 195 192 178 159 157 163 169 184 178 174 152 125  73  67  87  71 102  96 132 144 160 164 174 183 184 187 191 203 210 209 202 181 141 115 118 127 133 145 132 150 201 226 145  93 103  93  94 122 103 102 101 112 131 135 141 135 124 103  89  79  75  52  44 102 102  93 108 130 113  98 116 117 116
  25  25  26  28  27  24  22  25   4 144 218 207 204 203 191 164  59 140 196 196 195 195 190 188 195 194 181 162 129  91 135 106  87 115  78 111 117 183 168 163 187 185 192 202 201 198 209 214 208 200 169 120 100 119 126 149 130 129 149 166 181 174 139 128 122 116 117 124 118 114 133 142 144 145 145 129 105  88  78  72  55  40  98  92  94 128 130 101 103 114 115 117
  20  21  24  26  26  25  22  24   8 156 216 198 198 201 201 188  75 136 197 195 194 199 202 199 196 191 170 134  89 113 209 163 101 158 105 132 146 200 184 140 141 180 199 208 211 210 212 215 210 197 167 116 104 123 137 150 152 183 184 181 187 187 183 170 161 155 152 138 132 129 141 151 152 140 141 131 105  91  82  73  56  39  87  93 105 119 113 103 106 114 113 115
  18  20  22  23  24  23  22  21  19 166 215 197 191 201 202 205 108 133 202 194 198 201 202 200 196 180 164 149 158 157 172 193 132 127 119 123 162 166 154 156 164 183 201 211 217 214 210 213 206 194 170 123 109 128 135 147 152 161 176 179 178 183 186 182 172 161 152 142 134 146 152 153 155 147 131 119 106  91  82  74  55  36  75  95 112 113 120 104 107 114 113 115
  17  19  21  23  23  21  18  20  11 167 212 188 186 197 205 220 161 120 195 198 199 200 204 202 196 189 200 199 190 174 172 172 167 167 167 161 165 161 168 182 193 204 207 214 218 212 205 207 203 197 172 134 111 119 138 141 150 152 164 171 171 171 167 162 159 153 148 148 147 157 163 163 156 147 133 118  99  95  83  73  56  30  71 103 116 112 115  97 110 115 114 115
  18  19  22  22  21  20  17  16   4 152 217 187 175 187 205 225 181 119 197 194 199 203 205 207 203 207 213 210 211 204 194 190 174 184 178 174 183 179 176 180 188 195 208 214 215 209 204 203 197 193 171 140 116 111 128 136 147 157 159 165 176 180 176 167 161 159 158 163 163 164 167 165 152 144 137 122  97  94  86  76  58  32  65 105 108 106  99 103 114 116 115 116
  20  21  22  22  21  19  18  18   4 134 213 195 176 167 184 223 187 121 199 193 200 202 206 208 209 208 206 207 208 206 203 201 202 204 198 190 185 178 176 184 196 210 211 213 210 203 199 196 193 188 177 145 121 113 118 129 144 154 158 161 170 177 180 177 171 172 173 179 177 177 174 163 148 139 136 122 101  91  86  74  56  34  63  98 107  99  93 114 117 116 115 116
  21  22  23  24  24  22  21  20   4 102 212 211 203 188 183 221 187 127 193 192 198 200 205 209 210 205 204 210 209 209 208 204 201 199 194 190 186 185 193 204 211 214 213 210 207 202 199 198 200 190 180 147 119 110 113 121 139 150 156 157 162 171 180 183 180 179 178 181 179 179 173 164 149 137 129 118 103  90  84  73  51  29  58  92 109  96 104 119 118 117 117 117
  22  25  26  28  27  25  24  22  17  66 200 209 212 208 189 204 187 124 187 192 193 196 205 204 206 208 212 216 214 212 209 207 204 200 197 197 200 207 214 216 213 211 209 206 202 197 200 203 201 191 183 154 123 108 111 116 132 142 148 150 155 167 182 188 185 183 181 176 173 173 168 161 148 135 126 114 102  88  82  74  51  27  56  92 103 101 115 118 120 119 119 119
  23  28  29  29  28  26  24  23  32  31 179 207 210 212 194 190 195 122 176 192 193 196 206 203 205 210 212 211 212 209 210 212 211 209 209 208 212 216 217 213 209 211 208 206 200 197 199 203 198 188 181 156 126 108 108 110 126 141 145 149 155 162 178 189 189 187 183 177 172 167 165 157 146 132 122 109  98  92  81  70  49  25  53  94  95 110 121 120 122 120 120 120
  23  27  28  28  26  26  27  24  26  15 123 211 207 217 208 200 203 126 170 191 196 197 205 206 208 210 210 213 214 211 209 211 209 211 211 210 211 210 210 213 211 210 209 206 203 200 201 204 201 192 183 158 128 107 105 105 117 135 148 156 158 159 172 183 184 185 181 179 175 169 163 151 141 130 123 105  91  89  80  68  49  31  56  97 115 121 120 122 122 120 121 120
  23  27  27  27  27  27  28  28  31  24  21 196 210 212 209 214 205 126 163 189 198 200 206 210 211 211 214 214 215 213 210 209 209 210 211 209 212 213 210 213 214 215 213 209 206 201 199 202 202 195 185 163 136 109 101  94 102 124 149 162 161 168 182 184 184 182 180 177 173 169 163 150 141 128 118 104  87  83  75  70  48  31  92 124 124 121 122 124 123 123 122 121
  20  21  24  24  25  27  27  31  28  31  13 101 204 203 210 210 205 124 148 189 194 200 205 209 211 210 212 214 214 213 211 210 210 209 209 209 209 211 213 213 215 215 211 208 206 201 200 199 200 195 190 174 148 114  98  92 103 118 137 153 158 169 185 188 189 184 185 181 175 173 168 150 133 124 115 102  81  82  73  65  45  33  96 126 125 124 124 123 124 125 123 123
  18  19  21  21  23  25  27  28  31  33  30  24 148 209 205 203 203 136 135 191 193 203 206 209 211 209 211 212 213 214 212 214 214 212 210 209 211 212 208 208 210 213 208 206 205 201 204 200 200 195 189 178 155 124 102  99 113 118 120 134 147 158 176 186 190 189 189 189 183 175 170 150 132 129 116  97  78  78  70  62  45  37  91 125 127 124 124 125 125 125 123 123
  19  18  20  22  21  21  25  26  31  29  31  25  37 188 210 207 208 133 123 182 193 203 208 209 212 211 212 212 215 218 218 216 216 213 211 209 210 209 202 205 209 210 205 202 202 202 204 205 202 197 191 183 161 130 107 101 117 124 112 116 138 150 171 177 183 191 195 192 182 176 169 154 143 139 114  99  79  70  67  58  40  37 103 124 124 126 128 123 124 125 123 125
  17  20  19  18  19  21  21  26  24  29  28  25  15  40 129 180 183 126 112 173 191 200 205 209 211 212 214 214 216 220 220 216 212 213 210 204 202 199 201 207 209 208 205 201 202 203 205 208 204 196 193 186 160 134 112 101 115 122 108 108 139 158 169 178 184 190 196 194 182 176 169 153 142 130 112  92  77  66  62  54  35  42 103 127 124 125 127 123 126 126 124 125
  17  20  20  18  17  17  18  21  24  26  26  23  22  15  13  33  45  77  98 169 191 196 204 208 209 212 213 214 217 221 219 217 211 209 204 196 188 191 203 208 206 206 207 205 204 204 206 212 208 200 197 187 158 129 113  99 107 113 102 119 146 160 171 182 193 193 190 190 184 177 169 155 142 126 109  89  77  66  57  49  34  50 109 126 127 126 127 127 126 126 126 123
  18  20  22  20  15  16  17  19  21  24  24  22  20  19  20  18  16  59  85 158 190 196 204 207 209 211 215 214 218 218 219 214 208 204 193 184 179 188 204 208 203 204 208 209 206 201 203 213 210 206 205 192 157 122 108  99 103 105 102 126 134 148 166 170 190 194 191 187 183 177 169 160 143 124 108  91  74  63  51  43  35  51 109 126 130 127 126 129 124 126 125 111
  20  20  22  21  19  19  17  19  23  24  26  23  22  22  23  25  20  54  77 138 182 194 198 204 207 210 213 213 215 216 216 209 206 197 182 175 181 198 208 211 208 204 201 199 195 198 199 211 213 209 207 194 154 113  98  93  99  99  99 108 111 129 151 159 170 184 194 191 182 178 170 162 148 123 105  92  71  58  49  41  39  52 102 129 129 126 129 128 127 125 118 103
  20  21  22  21  20  20  20  20  22  24  24  22  23  27  23  25  25  41  65 123 172 193 197 203 205 208 210 211 214 215 211 204 199 185 172 177 195 206 209 209 205 194 186 181 182 189 190 200 207 201 193 188 141  95  84  84  93  91  90  90  99 116 137 146 151 167 186 195 191 181 169 162 149 123  97  84  71  55  47  42  38  59 108 125 128 127 127 128 127 119 111  98
  20  20  21  20  21  21  22  22  23  24  24  23  26  28  27  30  28  36  79 115 157 187 193 202 205 208 208 210 213 214 210 199 189 178 174 187 205 205 205 203 193 188 182 184 185 189 194 191 196 188 185 161 107  93  91  85  89  83  83  83  95 106 109 113 125 143 157 177 193 184 165 155 152 127  94  81  69  53  42  45  38  61 118 128 129 126 125 126 123 121 104  98
  21  21  20  19  21  22  24  25  25  26  25  25  27  27  30  28  33  38  82 109 144 179 185 201 205 206 205 208 209 209 208 197 186 181 185 198 203 204 201 190 185 182 184 165 154 183 199 196 187 175 173 137 110 119 103  81  82  79  69  79  92  96  95  97 100 118 129 137 163 184 163 136 149 129  91  77  66  50  40  48  39  63 120 132 126 125 124 122 120 116  90 109
  21  21  20  19  20  23  26  26  26  26  25  26  29  32  34  34  33  32  69 104 134 178 178 195 202 202 203 208 211 209 205 200 188 179 191 193 190 199 183 170 182 168 160 172 145 151 166 183 178 164 156 138 126  99  82  79  76  82  66  78  83  82  84  77  77  84 113 115 125 167 166 122 141 125  85  74  66  48  42  48  35  56 122 127 131 125 127 118 117  98  87 111
  20  18  16  17  20  25  25  26  26  25  26  27  31  32  34  33  34  32  58  84 130 170 172 180 198 199 204 210 206 208 206 203 175 162 172 170 174 168 150 147 157 157 148 159 140 134 115 123 125 134 140 124  87  89  95  94  79  75  83  79  89  89  84  79  81  89 121 129 125 136 163 118 117 119  78  64  66  47  39  39  41  58 121 131 130 121 125 112 113  81  95  93
  19  19  16  16  20  24  25  25  26  24  26  27  31  33  34  34  35  30  36  73 130 158 173 168 187 195 202 205 207 206 208 187 152 142 158 157 151 145 154 145 145 150 143 147 129 128 138  91  89 126 130 128  97 100 107 115  86 101 116  98  97  93  90  87  88 109 131 133 130 132 155 111 104 117  76  63  65  50  48  39  38  87 122 126 128 119 120 107 108  71 100  75
  17  16  16  16  20  22  23  23  23  23  25  27  31  34  34  33  31  29  25  69 114 153 166 158 183 190 197 205 198 205 196 155 127 133 149 150 133 136 152 156 155 159 143 148 139 151 144  84  98 115 111 130 119 116 149 142 138 143 143 120 105  97  98  89 103 132 126 134 128 128 144  98 118 106  74  69  59  44  50  49  39  85 139 125 128 114 109 102  92  65  81  62
  17  17  16  16  20  21  22  22  21  21  24  26  29  32  34  31  28  25  24  47 102 159 162 157 177 177 186 200 193 205 172 133 124 149 157 152 140 149 163 182 181 181 178 186 184 191 176 161 158 155 156 168 168 178 180 167 157 147 139 122 106  90  74  68 111 156 156 146 137 132 144  92 122  91  71  66  53  43  49  49  46  87 128 120 117 107 101  92  72  57  65  64
  16  16  15  17  18  18  19  18  20  20  23  25  29  32  33  30  26  24  19  34  87 157 154 151 174 173 181 190 186 198 177 150 155 169 164 153 162 170 189 196 190 195 190 191 191 190 186 186 178 179 179 163 147 149 145 134 128 123 128 109  77  47  50  75 114 159 184 164 153 144 142  95 121  87  68  65  48  43  49  41  55 104 119 116 110 100  90  78  59  56  59  67
  18  17  17  17  16  20  19  17  20  21  23  24  30  31  29  28  22  20  11  20  71 139 143 148 172 166 163 181 182 190 178 152 149 138 150 154 158 150 150 158 173 177 179 177 173 168 158 162 157 150 150 163 174 151 159 198 160 158 176  97  57  70  81 108 139 169 183 172 160 148 122  95 111  71  61  59  50  48  46  42  70 108 116 107  98  87  77  64  57  56  56  59
  19  18  17  17  18  20  19  17  17  21  22  24  29  29  29  28  23  19   8  19  65 124 146 145 162 161 145 171 182 188 186 159 133 152 185 163 129 107  99  73 158 189 214 194 202 217 197 218 226 212 194 225 225 198 187 221 173 129 114  93  89  92 100 118 147 170 180 173 164 150 111 109  98  70  62  54  46  50  38  48  91 112 108  95  83  72  63  57  51  43  46  45
  20  19  17  19  19  20  20  20  22  21  22  23  26  29  29  27  23  18  11  17  49 115 150 145 146 167 146 157 179 192 185 172 141 171 199 203 190 159 151 129 120 163 230 216 231 242 212 244 242 217 211 237 223 205 185 179 122 106 114 112  98 100 104 130 153 166 174 164 157 136 107 114  89  74  62  49  41  44  39  61  99 105  94  79  72  65  61  47  36  38  45  42
  20  20  19  20  20  21  21  21  23  22  22  25  25  26  26  25  21  17  14  11  49  95 144 149 140 158 167 163 170 193 188 189 156 183 208 207 205 195 177 170 156 140 150 148 157 181 168 185 192 188 176 192 184 154 136 124 125 125 120 108 103 102 108 127 150 161 167 163 139 122 110  98  81  70  64  44  45  39  49  76  95  95  84  71  62  51  49  40  39  39  49  33
  21  20  19  20  22  21  23  23  24  23  23  24  22  23  24  23  21  16  15  16  35  82 142 153 149 151 173 146 161 176 198 189 180 193 213 208 210 212 195 179 177 176 167 151 141 143 145 141 142 146 147 152 153 150 153 147 133 120 113 107 105 109 114 133 145 157 162 153 129 113 100  88  70  61  50  47  43  43  67  94  89  81  72  61  50  45  48  43  39  41  55  34
  21  21  20  21  22  24  25  27  27  27  26  24  21  23  21  22  21  19  18  16   8  97 170 116 150 147 152 155 144 168 188 188 197 195 212 215 213 211 205 196 182 183 183 185 190 179 176 169 173 175 179 180 174 168 157 140 127 121 113 115 115 111 121 132 143 154 154 146 124 105  90  74  67  65  48  44  48  59  75  90  78  69  61  52  45  44  54  42  41  50  55  31
  21  22  22  23  25  27  28  30  31  30  28  25  21  21  20  19  18  18  20  18  23 151 206 149 143 151 147 140 142 162 178 190 186 196 210 212 214 209 211 203 195 188 186 183 192 189 190 182 183 183 183 184 179 172 157 143 139 130 119 119 117 111 123 135 141 147 148 138 116  98  97  73  65  56  47  40  60  73  82  83  68  57  50  42  39  42  53  44  43  53  58  39
  23  22  25  26  29  29  31  32  33  30  28  25  21  19  19  16  18  21  23  22  57 204 232 161 137 150 132 138 146 153 169 181 182 199 208 214 216 211 212 201 199 199 191 191 188 187 185 185 186 187 181 183 174 167 157 151 145 131 118 116 118 120 134 140 141 144 139 124  96  79  80  69  58  46  47  45  73  82  79  66  57  46  40  37  37  42  52  41  43  54  54  46
  21  25  26  29  31  31  33  33  32  29  27  22  21  18  18  17  17  21  32  24  95 240 242 185 150 132 132 152 157 159 151 158 182 197 204 212 216 213 211 200 194 198 189 192 191 192 186 185 188 185 178 168 158 158 158 151 134 130 121 121 128 131 137 139 139 138 132 114  86  76  69  52  50  37  40  80 110  82  69  55  45  36  35  36  40  49  55  36  47  42  52  48
  23  23  26  29  32  34  34  34  31  27  23  21  18  18  18  19  17  23  38  17 137 253 236 196 155 132 130 139 164 162 138 150 174 190 204 211 216 215 211 206 198 185 179 186 182 184 183 178 175 164 153 155 153 146 147 148 138 143 134 134 139 144 145 141 134 135 125 104  81  69  64  52  46  35  51 130 138  76  56  42  33  29  33  38  42  52  47  40  45  55  58  49
  22  23  25  29  32  33  33  32  29  23  22  18  16  18  19  19  23  30  38  29 190 247 242 186 173 148 115 144 167 145 151 154 163 174 191 210 214 217 213 213 206 189 176 172 159 164 170 155 157 144 147 149 154 152 149 154 155 155 150 145 145 152 148 144 138 129 117  96  76  60  55  41  37  30 101 165 142  70  39  30  25  25  30  36  36  45  42  39  49  62  54  51
  20  21  23  27  30  30  29  29  26  21  18  19  16  16  18  22  28  39  38  44 226 240 251 195 134 187 154 133 136 143 160 160 163 157 170 199 208 211 213 212 211 206 197 188 180 173 166 158 155 145 152 157 160 169 164 159 161 160 157 156 155 160 152 144 137 121 107  89  71  60  43  35  45  56 136 175 145  68  16  24  18  26  29  32  34  39  41  47  52  52  51  50
  17  18  21  26  28  28  27  26  23  20  19  17  16  18  25  33  41  44  15  99 242 244 249 237 109 186 188 143 116 136 164 177 161 147 163 182 203 213 213 214 212 210 207 199 198 190 181 176 169 159 159 163 162 161 168 169 168 168 165 170 163 160 150 137 125 109  93  77  66  48  42  47  61  72 161 174 143  73   9  15  18  27  28  27  32  41  43  54  47  53  54  49
  21  20  21  24  26  28  27  24  20  19  19  19  21  30  38  41  43  40  16 186 245 248 245 252 196 167 208 186 150 123 141 158 142 153 154 167 193 205 209 215 212 211 208 206 207 202 199 187 182 168 161 171 163 159 172 176 173 169 165 172 166 161 145 133 115  92  76  61  49  46  43  69  75  89 182 167 132  89  14  14  17  20  21  20  36  42  43  53  54  57  46  41
  20  20  20  21  24  26  26  24  23  22  24  29  35  41  44  42  41  33  65 231 239 251 253 252 246 182 204 205 193 182 129 127 160 161 138 147 165 196 207 211 213 213 212 210 208 205 204 194 191 190 190 186 168 171 172 177 173 167 164 164 162 161 141 122 104  79  61  53  41  56  61  76  88 140 196 155 126 110  24  12  15  19  20  18  32  39  40  43  53  55  39  37
  17  17  18  21  25  27  27  28  29  31  34  38  41  42  42  43  46  24 109 247 238 250 250 254 251 233 172 207 207 198 170 122 121 138 150 141 165 195 203 203 213 210 212 210 211 208 205 205 195 200 204 173 170 176 172 167 166 158 161 156 156 158 124 104  94  68  50  53  41  80  93  95 107 192 187 147 127 121  46   4  17  21  21  20  28  39  47  46  49  48  37  36
  22  20  21  24  27  29  30  32  34  34  37  40  42  42  40  40  44  36 155 250 239 248 252 253 250 251 217 179 210 204 205 175 130 118 156 149 164 170 186 198 213 213 217 213 214 203 198 199 188 201 205 170 169 181 178 169 169 151 155 142 145 130 106  92  72  49  43  64  73  99 103 104 162 197 171 144 129 126  75   1  19  21  17  18  30  48  47  50  53  39  36  36
  25  24  25  26  28  32  34  35  35  37  38  41  43  45  42  39  42  44 188 248 239 250 253 254 252 251 248 208 187 216 210 212 184 143 122 138 154 144 163 191 208 212 215 211 209 199 193 187 186 198 196 189 187 184 176 184 178 154 140 125 128 109 102  88  57  51  50  83 106 108 106 140 195 185 159 142 130 124  93   1  16  15  20  18  30  46  47  53  47  36  41  38
  25  24  25  28  31  34  37  37  37  38  40  40  43  47  41  41  39  54 207 246 238 253 255 255 255 254 252 249 207 190 209 208 204 203 156 111 122 132 153 177 195 207 212 210 204 198 188 179 188 200 187 183 186 177 178 178 175 163 136 121 109  91  88  82  52  59  75 108 126 120 133 203 196 174 153 144 131 121 106   4  15  19  25  24  34  46  49  51  43  44  47  37
  26  26  30  35  35  36  37  38  39  40  41  42  43  44  43  41  40  66 224 242 239 253 255 255 255 255 252 253 243 194 198 209 203 206 192 165 126 106 133 149 184 186 198 198 190 197 189 189 186 187 151 157 166 171 164 161 154 150 135 123 106  84  76  67  55  79 108 127 130 145 193 209 187 169 154 142 132 122 112  47   8  15  18  25  34  45  52  47  37  47  46  30
  28  29  33  38  37  37  37  39  41  42  43  44  43  44  43  40  37  77 233 242 242 253 255 255 255 255 254 251 251 243 192 198 206 210 214 199 158 123 117 123 152 167 178 183 185 190 180 173 177 175 144 142 151 152 144 147 153 143 126 108  99  80  64  65  86 117 131 132 164 207 211 201 180 165 153 141 134 121 112  69  10  20  20  31  36  41  50  47  43  48  43  34
  28  34  35  37  37  38  40  42  42  42  44  44  44  46  42  41  38  82 238 242 242 253 255 255 254 255 254 253 249 254 229 172 200 205 204 206 207 189 139 105 103 134 162 180 171 162 163 160 171 158 156 135 142 143 135 130 145 130 111 106  91  67  75 102 121 135 131 168 213 213 204 181 178 165 152 140 132 121 117  81  16  19  16  31  34  50  55  45  44  52  49  47
  34  36  38  39  37  39  42  43  42  42  45  45  43  47  43  40  39  89 243 241 243 253 254 254 255 255 255 252 253 251 253 225 178 204 208 210 206 210 193 157 108 102 121 137 150 144 156 146 154 137 136 135 143 134 135 128 125 125  95  97  89  89 108 143 133 139 181 211 215 206 194 186 175 165 151 140 132 126 122  92  25  17  15  27  40  56  56  43  43  56  56  45
  34  35  37  38  38  40  42  43  42  42  44  45  43  43  41  39  42 104 244 243 246 253 254 255 255 255 255 254 254 254 251 252 234 181 203 214 205 206 210 208 169 151 135 110 117 109 122 131 130 129 128 130 142 120 110 112  99 114  93  99 117 125 142 139 142 198 223 218 209 198 193 186 173 166 152 139 136 128 121 100  40  13  24  17  28  67  58  45  45  60  48  37
  36  35  36  38  40  42  42  44  44  43  44  46  43  43  39  41  34 116 244 244 247 255 255 255 254 255 255 255 254 255 253 254 253 221 166 203 208 204 208 211 203 197 190 155 128 105 101 101 114 118 122 115 111  98 101 106  94 109 114 130 143 149 144 164 213 225 219 213 203 196 195 187 173 165 151 140 138 130 122 114  82  13  19  18  20  61  65  50  50  54  40  31
  36  37  37  38  39  41  41  43  44  43  45  44  43  40  38  39  32 135 246 246 245 254 255 255 255 255 255 255 255 255 255 255 254 252 222 177 196 211 206 210 204 205 197 193 167 156 156 129 139 132 124 123 128 130 128 120 131 136 131 150 155 151 183 223 226 217 215 208 202 198 193 183 175 163 150 143 140 130 123 107  89  11  12  23  24  47  67  53  55  46  41  36
