P2
# Generated by OpenCV 4.2.0
92 112
255
 188 217 238 246 245 244 235 206 175 181 202 237 246 249 250 248 242 214 175 152 132 135 142 180 209 231 240 248 252 255 249 250 244 237 159 161 149 146 127 145 135 133 119 122 126 138 151 176 171 173 174 159 160 172 163 170 134 111 154 173 175 163 138 147 155 172 183 191 189 194 201 204 206 202 198 199 198 201 208 215 211 209 201 188 185 185 192 207 219 228 241 243
 172 213 237 242 240 240 234 202 176 182 194 232 246 248 248 246 247 222 189 165 144 145 153 185 212 235 245 249 250 251 254 247 241 180 159 170 163 129 130  95 117 111  98 102 121 121 133 158 125 100 105  95 105 151 129  98 105 123 170 155 165 143 151 147 159 174 183 183 187 183 197 207 207 200 204 198 194 199 212 212 208 208 204 198 190 189 193 203 215 223 234 238
 162 205 234 241 239 238 231 197 176 182 198 228 245 249 248 246 237 218 194 169 148 145 156 181 207 236 240 248 253 252 251 248 224 170 160 165 129 109 119 110 124  91  99 129 124 128 140 113 104 111  92  99 132  70  96 135 164 128  93  76 112 121 130 152 167 183 190 192 194 197 201 203 207 206 197 186 184 187 201 205 204 205 204 205 199 193 195 200 212 220 231 241
 150 196 226 237 237 237 228 197 179 191 213 232 247 253 251 248 242 211 193 166 143 151 152 177 199 232 244 246 250 253 252 239 203 175 139 139 116 122 106  99 120 113 112 118 121 132 101  99  87  77  87  96  99 123 112  91  62  46  54  78  74  79 102 128 162 176 192 207 206 206 208 208 202 198 191 179 170 165 183 193 195 200 198 200 199 204 196 194 209 213 218 231
 141 181 221 235 235 234 226 199 181 194 225 245 251 254 254 249 240 197 182 155 146 147 165 164 194 228 242 250 252 247 225 194 173 158 121 119 129 120  89 106 122 119 121  99  84  97  77  73  57  95 102  99  59  69  67  45  58  60  60  87  64  63  70  78 124 141 150 168 186 211 209 211 204 197 195 179 167 165 170 172 181 188 190 196 200 204 201 197 199 197 208 215
 131 176 218 228 230 230 227 199 180 198 228 252 249 255 252 253 241 201 162 159 144 157 162 170 195 225 236 236 210 219 145 160 165 152 113 116 107 115 116  95 119 151  99  78 105  69  66 115 144  85  74  67  54  87  58  40  68  83  72  59  55  69  73  95 115  94  85  92 118 163 210 212 200 191 189 175 165 156 152 159 170 178 179 201 209 216 209 206 198 187 185 185
 112 163 215 223 223 231 227 205 179 190 232 251 252 254 251 251 249 196 164 164 146 149 162 180 195 209 181 162 199 169 124 158 152 139  91 118 114 104  95  87 115 144  83  92  80  76 128  91  95  72  73  72  86  60  39  62  91  87  83  60  60  68 117  83  66  88 137 164 101 106 100 106 147 190 180 174 168 160 150 147 160 168 177 205 216 223 221 221 208 189 189 185
 101 152 202 212 220 227 224 212 184 191 229 252 250 254 252 252 246 201 176 156 150 163 168 144 122 120 157 165 171 124 114 160 143 128 102 130 101  97  81  92 130 161  78  56  89 117  88  63  63  93  78  83 126  63  54  73  93  87  96  62  80 110  76  88  72  96 107  79 110  82  98  81  95  89 165 173 166 155 153 149 158 170 178 208 219 225 229 223 218 194 187 176
  97 137 183 201 209 224 223 210 188 193 225 252 253 254 252 250 245 203 176 164 151 154 143 136 122 113  88 130 142 119 134 159 148 116 134 113  76  64  82  99 129 157  71  57 101 100  47  48 113  91  87  88  90  61  64  79  98  88 102  84  93  79 111  95  89  87  93 148 130  98  85  73  54  73 122 170 166 161 154 160 170 173 185 211 229 233 233 233 224 203 191 174
  91 124 159 186 200 216 217 205 192 199 225 248 249 255 250 249 243 205 179 163 126 111  97 137 120  90  80 126 131 104 147 147 126 111 135 125  80  60  71 116  97 159 117  59  98 114  57  51  86 115 118  99  62  63  81 102 109  67  99  91  87  84 111 106  94  92  82 103 118  69  62 108 100  67  64 135 171 167 160 172 186 184 190 211 229 233 238 232 226 215 202 184
  88 117 143 172 187 206 207 197 192 203 230 250 252 251 250 246 241 199 158 135 109  91  99 127 111  77 134 124 154 127 156 145 130 151 130 121  92  67  73 156 103 123 170  48  76 116 137  70  56 126 133 140  78  78  73  96 116  72 104  73 100  94 100  96  91 101  84 103 104  83  97  64  47  71  54  63 162 168 173 192 192 197 203 211 226 230 233 233 229 222 205 195
  96 118 144 164 180 201 197 191 191 204 233 250 253 250 250 249 209 165 117 125  71 118 100 115  97  81 111 159 135 148 143 140 135 140 131 122  96  69  71 169 106  77 135  80  95 102 174 151  49  66 160 138 166 120  93  98 123  86 102  85 105 101  99 100 103  97  91 105  81 115  55  48  66 102  71  49 146 177 184 196 193 199 205 210 223 230 235 235 231 220 211 216
 128 141 163 173 182 200 200 191 188 203 238 250 250 247 245 236 170 164 114 140 119  80 111 117 105 104 109 149 119 165 128 139 142 134 147 120  97  70  63 166 111 115 151 124  83 109 137 200 140  60  98 176 123 178 146 110 132  78 101  84 107  92 106 113 137  93 113 121  98 112  89  53  70  83  62  74 151 177 187 194 196 198 207 210 217 220 227 237 230 220 223 226
 149 156 172 179 187 199 199 187 178 193 229 247 247 231 199 172 142 126 120 152 118 101 138 146 130 122 134 144 138 149 105 115 129 129 155 104 138  78  98 159 126 122 164 154  63  80 138 138 176 108  62 107 146 124 172 158 107 100  95  99 113  90  97 126 142  91 140 124 130 124 123  85  65  87  87  84  79 152 191 190 193 197 207 213 206 213 226 229 226 227 230 237
 165 167 184 192 193 205 204 184 168 185 220 246 247 167 162 181 131 121 125 139 121 118 127 153 163 144 155 146 133 144 106  96 120 144 167 138 129 105  77 147 124 139  91 118 134  79  98 167 116 148 112  81  94 113  96 141 163 119 110 117 121 102 114 138 152  92 137 103 136  88 139  95  90  64  93  41  41  49 148 196 199 196 206 201 203 212 217 227 225 230 231 235
 172 173 189 200 197 206 200 179 157 175 213 238 188 174 205 211 144 147 129 114 133 112 132 159 166 177 145 150 133 140 102 124 124 135 157 160 119 139  82 132 135 103 108 133 119 116  82 124 134  91 132 106 125 110  83 105 139 148 157 144 122 121 141 122 143 114 143 101 130  99 132  91  89 164 124  78  61  33  62 190 187 184 200 199 194 207 212 221 224 228 232 235
 170 175 190 199 200 208 202 178 152 164 198 231 171 186 186 230 163 166 149 115 120 124 116 145 168 161 157 156 121 127 153 129 146 139 155 169 161 107 120 108 172  88  87 108 126  84  76  73 121  86  95 105  96 110 105  80 112 122 131 127 123 138 172 110 159 118 108 114 122  97 121  96 115 169 137 104 122  69  91 100 154 160 117 196 196 202 214 215 219 218 228 232
 170 171 183 195 197 203 205 178 146 163 189 221 226 152 159 182 185 157 151 116 133 122 119 117 108 136 162 144 120  99 167 159 142 145 109 150 163 113 129 128 140 110  81  91 124  46  59  54  94 108 105  82 100 104 105  84 119 103 108 105 126 120 143 112 140 105 110 123 125  92  85  79  62  73  66  98 119  90  72  90 190 174 107 188 193 201 213 213 212 212 219 225
 176 175 182 195 196 205 207 191 156 165 191 222 231 130 108 122 126 143 160 149 108 123 112  76 111 115 165 151 127  86 140 157 174 161 100 113 132 135  95 143  96 144  56  67  99  60  57  45  75 114  99  64  75 107 103  83 101 117 100  74  86  82  99 120  96 101 111  97 114 115  80  74  78 119 135 136 147  63  75  78 177 147 159 183 192 204 207 207 203 201 207 210
 195 189 186 199 194 202 205 194 165 172 211 229 191 105 149 151 135 142 153 167 103  83  92 105  99  77 136 133 128 121 108 175 165 130 143 108  97 124  95 111  73 133  92  69 101  89  62  55  95 127 122  50  60 111 107  92 106 125 117  81  67  74  79 101  72  81  98 105 103 103  95  73 124 149 140 165 176 100  56  92 157 174 184 193 196 199 204 208 203 200 201 203
 207 201 199 200 196 199 207 200 174 188 218 205 155 121 113 132 108 127 150 150 155 125 106  94  92 107  97 129 134 130 139 122 166 136 114 114  90  99 104  96  82 128 103  81 112  92  62  68 118 122 146  50  58 117 120  99 108 140 116  95  72  74  70  91  66  78  92 126 100  79  99 129 126 124 137 152 121  94  83  64  61  74 188 189 186 195 200 207 202 202 201 201
 216 215 210 204 197 198 207 202 179 192 229 183 147 148 161 111 125 108 148 125 169 145 125 123 122  95 118 139 129 154 172 158 164 148 116 104 108 116 141  90 122 135 119  98 135 111  81 123 113 145 150  52  94 125 129 116 137 161 136 110  85  83  69  74  74  78  95 107  87  91 114  96 114 136 125 114 117  83  51  81 131 139 114 176 186 196 203 207 204 200 198 202
 220 221 215 211 202 197 205 203 191 204 155 148 115 127  98 106 106 108 135 155 138 154 140 143 132 145 156 167 158 144 186 176 158 164 148 128 128 129 162 131 139 152 163 129 170 128 146 116 156 160 148  81 131  99 146 130 140 166 150 144 116 101  94  77  77  76  89 113  76  69  64  90 111 114 107  86  95  64  57  48  84 115  65 166 185 197 205 207 204 201 201 201
 225 224 222 216 204 196 204 204 202 190 186 131 150 152 127 122 123 136 120 156 143 142 155 150 154 179 164 166 174 179 185 189 195 182 171 162 158 153 165 174 163 164 158 169 166 164 162 153 160 135 128 129 126 119 139 148 153 172 172 170 148 132 128 106  95  99 105  88  50  63  84  98 108 124  97 152 148 102 109  96  90  89 128 159 183 195 201 203 204 209 205 203
 229 227 218 215 210 199 208 213 206 201 180 126 136 153 163 152 137 122 124 139 146 138 149 153 154 174 174 187 197 198 192 186 188 189 185 171 181 187 188 180 187 183 181 182 191 174 189 184 139 117 116 106 108 147 145 148 167 173 183 192 177 181 174 139 138 109  91  66  42  46  92  97 107  75  91 120 129 184 106 128 163  92  99 169 194 193 196 201 207 213 207 206
 229 229 220 212 210 203 213 218 213 224 199 125 129 132 135 120 170 160 155 157 142 139 147 179 192 191 203 212 208 213 207 205 205 206 203 200 199 207 199 201 196 192 181 174 179 197 176 147 156 140 119 132 137 152 161 160 176 187 199 200 202 188 179 176 164 154 118  83  94 101  77  63  72  77  93 106 132 154 131 111 146 116  52 168 174 192 199 205 209 212 204 204
 230 233 224 213 209 207 222 220 221 240 146 121  97  80  74  96  92 137 120 106 106 132 172 199 204 211 219 224 219 219 216 219 219 221 222 221 217 219 213 210 207 187 189 180 190 176 170 178 153 138 140 160 170 161 153 180 197 198 212 209 207 204 194 202 191 175 154 140 128 146 147 158 149 133 133 112 119 137  92 140  95 143  63 177 182 194 202 209 212 212 204 204
 231 234 228 216 210 209 222 220 227 146 123 122  86  53  49  50  90 126 118 101 141 170 203 214 221 223 227 223 225 221 219 222 221 222 226 229 221 223 223 222 208 202 192 193 185 178 171 174 177 176 174 166 161 160 182 200 202 214 212 208 209 212 204 204 198 195 178 152 115 119 133 130 111  90  81  73  69  76  72 163 145 131  68 184 188 199 207 214 215 210 209 207
 232 236 233 221 211 210 223 221 214 133 109  90  48  57  53  70  93 121  79 116 164 209 221 221 223 229 226 224 224 225 223 224 224 225 225 229 231 232 229 225 228 210 213 205 200 188 192 197 190 182 177 182 184 193 202 205 205 210 210 211 213 215 208 205 208 204 200 185 151 117 122 104  94 102  99  88  72  54  64  79  73  63 147 199 202 203 211 217 216 212 211 209
 231 238 234 223 216 203 217 213 162 103  90  47  60  67  79  96  96 107 112 162 207 220 228 222 223 226 224 224 224 223 222 221 224 228 229 229 229 230 228 228 230 229 222 213 213 213 215 206 206 204 198 198 206 207 212 207 212 215 215 208 209 214 212 213 207 209 206 201 179 153 114  71  79  76  64  62  74  88  80  78  77 103 139 171 204 210 216 218 213 217 210 207
 235 241 237 225 219 205 204 200 111 107  56  71  89  64  82  81  94 129 125 183 220 222 225 225 221 222 224 226 225 226 227 222 224 227 224 226 223 229 224 231 231 225 222 223 224 218 220 220 215 215 215 213 215 212 211 211 208 213 212 209 206 205 213 213 210 203 204 206 202 168 164 108  84  65  52  68  66  69  62  72  86  81  87 158 202 203 212 218 218 217 211 205
 234 242 238 231 219 203 197 173 115  68  88  98  34  70  76  92 110 134 173 211 220 223 224 222 219 222 221 221 221 223 224 222 224 227 220 224 229 227 227 231 230 228 228 225 226 219 220 221 220 220 218 219 214 217 213 206 208 215 208 211 209 213 213 209 206 199 201 206 205 187 149 122 105  72  69  91  77  54  53  58  50  52  83 105 190 203 209 213 217 214 215 211
 230 242 237 235 222 204 189 208 151 154  85  44  90  97  91  83 120 132 197 214 222 223 222 221 220 222 224 219 219 217 220 221 223 225 225 222 224 224 229 228 227 225 223 223 219 221 222 219 222 218 218 218 217 214 213 206 207 209 205 202 195 206 207 206 203 196 196 210 203 198 165 128  95  76  75  56  39  49  49  54  60  70  87 130 176 194 207 212 212 212 214 214
 222 241 242 234 225 208 182 171 177 155  71  73 129  91  82  85 126 140 191 215 223 221 222 221 219 220 218 222 218 220 225 219 223 220 225 223 225 227 224 231 231 229 222 222 223 219 222 220 216 215 213 216 212 213 210 206 202 198 192 199 200 198 206 200 198 197 201 209 207 193 178 143  93  62  72  49  80  92  70  59  56  57  63  89 101  99 131 201 208 218 214 215
 219 241 241 236 225 209 183 178 188 107  88 146  88  87  88  97 107 148 205 216 223 221 220 221 221 223 215 220 220 220 220 223 225 226 226 225 228 232 229 229 229 225 223 226 220 223 219 218 217 217 213 216 215 215 207 205 204 201 202 198 196 201 200 198 199 193 201 203 199 192 185 142  76  66  64  70  87  61  58  68  83  90 108  75  66 109  80  95 220 212 215 216
 219 241 240 232 222 205 187 188 176  91 141 141 111 104 124 111 117 175 205 210 219 221 222 222 219 217 219 217 218 221 220 222 223 223 218 221 221 222 223 229 221 224 225 221 217 222 219 214 215 216 216 215 215 215 213 206 201 202 194 197 196 198 198 199 198 202 200 205 203 197 191 180 114  61  52  62  75  93 110 118 118 113 105 110 103  85 102 125 136 215 218 216
 224 240 242 235 228 211 183 195 162 138 155 103  91  97 110 105 155 182 201 219 219 221 224 218 222 218 221 218 219 218 218 223 222 222 218 220 223 224 230 229 223 222 221 219 216 216 211 213 215 216 219 219 215 214 209 203 197 194 193 194 189 194 194 199 195 209 205 202 198 194 181 171 142  82  78  75  88 105  97 121 155 152 140 122  83  86 110 128 105 208 218 218
 225 239 242 239 232 220 199 190 147 119 115  95  96 126  99  91 143 180 203 217 221 220 222 216 218 217 215 214 221 218 221 220 222 220 221 227 225 225 222 221 215 227 221 215 212 216 216 210 207 210 207 213 209 203 197 195 191 195 183 179 187 188 185 194 198 192 199 200 199 193 181 154 120  90 102  83 117 129 130 124 118 117 118 124 142 119  78  98 136 163 211 213
 227 239 234 232 224 186 152 136 126 104  83 115 110 109 115  93 147 181 214 214 222 219 220 221 219 218 215 215 220 219 220 222 222 217 218 221 212 216 215 220 217 216 216 215 212 205 214 216 219 220 213 214 207 201 202 188 187 186 188 186 186 188 192 188 189 195 196 194 191 193 176 140  89  74  85 103 124 114  98  79  88  83  83  87 118  99 110 100 116 114 211 205
 224 241 234 193 134 121 124 118 117  69  64  52  73 127  90 104 135 180 204 214 219 216 223 221 216 216 218 219 222 225 220 223 220 218 222 221 217 221 215 222 210 216 207 205 209 213 214 214 210 205 210 205 204 198 187 187 184 180 180 179 185 188 191 192 196 192 193 194 193 187 173 141  88  78  86 103 101  73  58  66  66  72  70  77  86  82  81 101 121 100 208 207
 222 220 168 140 132 128 127 171 110  79  66  72  66  95 112 109 154 190 206 219 219 223 220 219 219 218 216 219 217 220 220 222 216 217 214 215 216 217 216 219 216 220 216 212 219 208 210 200 204 206 199 202 195 187 185 183 188 168 176 173 176 180 188 192 194 193 195 187 182 184 170 148  84  70  82 104  56  63  72  53  64  75  67  67  82  83 103 113  88 102 202 202
 132 132 143 151 207 179 154 136 107  76  88  90  54  96 122 119 151 182 211 219 220 215 221 222 221 222 218 216 219 217 220 209 211 215 208 208 207 215 212 216 219 215 202 206 212 206 206 207 210 208 207 207 201 200 190 186 172 161 163 171 175 183 184 187 193 199 188 189 183 174 166 132  98  83  84  52  57  37  31  56  52  54  70  58  56  69  73 135 105  92 199 204
 177 192 227 230 225 141 173 169  70 128  86  84  75  91 118 115 134 187 210 216 219 217 219 221 215 218 215 217 222 221 217 212 223 218 217 221 218 218 212 220 212 212 211 206 204 204 205 203 203 209 202 202 201 211 202 198 187 185 181 180 182 189 186 186 192 183 184 185 178 176 156 121  95  72  69  56  48  32  38  50  49  58  42  58  54  64  58  81 112  77 159 207
 189 220 239 235 221 144 146  91 111  94 122  60  87  81  96 130 139 184 210 216 218 219 221 219 215 220 216 218 219 220 214 218 221 220 219 223 218 217 221 213 217 217 212 209 205 208 209 203 209 214 209 207 209 210 204 204 191 185 174 181 187 191 186 189 189 184 183 183 166 172 171 110  94  70  65  70  50  38  21  65  47  39  46  55  45  41  43  63  79 102 159 198
 204 235 240 232 226 224 130 137 174 132 119  95  85  84 113 123 134 185 206 215 218 219 219 222 217 217 219 219 218 221 224 223 221 223 217 215 216 214 220 217 226 214 214 212 213 207 200 197 203 206 208 209 205 204 196 187 186 184 188 181 183 190 189 195 194 188 178 175 170 183 153 121  73  64  60  76  43  27  45  52  36  44  31  49  52  57  63  62  74 135 209 201
 232 238 243 228 223 182 151 199 165  92 155  89  98  89 110 123 134 189 214 216 218 219 217 222 223 217 217 218 224 225 222 224 229 226 229 225 219 216 217 213 214 209 207 199 198 203 221 222 222 225 219 218 221 215 213 208 199 204 202 198 200 193 197 199 192 187 184 176 178 170 158 134  85  71  59  68  60  49  44  25  23  25  29  42  22  33  56  50  74 123 203 198
 233 245 244 217 174 102 175 175 147 199 193 170 113 112 100 121 142 197 211 215 218 219 216 217 217 220 223 216 222 223 227 227 229 230 224 221 225 231 220 222 221 219 214 217 225 210 222 225 228 228 224 220 216 215 207 204 200 195 188 201 205 207 203 196 191 185 178 175 182 178 160 117  77  62  61  55  50  28  17  13  22  23  28  51  35  33  39  98  67 103 184 202
 236 244 250 220 148 145 189 144 175 168 223 204 162  94  98 112 149 206 212 213 216 218 218 218 224 226 227 225 225 224 227 226 223 222 220 218 223 220 223 224 219 222 221 225 223 224 224 223 227 227 216 217 200 195 201 192 196 202 205 193 195 198 195 207 188 178 182 183 181 174 172 116  73  50  66  69  29  33  13  21  20  26  33  52  38  46  38  97  44 105 167 195
 241 245 245 172 147 208 183 131 172 112 130 213 171 113  93 118 155 208 214 219 211 217 211 226 225 224 229 227 228 225 220 225 225 222 221 218 219 224 221 218 216 220 217 225 221 225 227 220 219 218 215 208 203 197 198 187 184 189 201 203 201 204 205 199 202 179 179 180 176 177 167 141  72  53  65  77  75  74  57  11  25  32  44  51  66  42  45  64  59 137 166 200
 231 230 232 228 204 181 151 103 161 111 140 186 202 163  97 108 152 208 215 209 217 209 215 223 227 226 227 227 221 229 227 220 221 223 213 215 217 222 215 212 218 221 222 221 218 214 217 221 215 216 207 209 189 192 188 193 189 202 206 212 211 209 200 198 200 197 175 176 174 174 165 149  87  67  57  54  73 104 100  20  22  31  44  63  74  69  71  53  66 143 181 200
 189 188 171 150 135 119 108  88 165 126 166 195 192 153  99 106 164 216 214 209 213 199 211 217 198 204 209 205 217 216 221 224 222 216 213 213 206 215 206 218 217 219 209 210 213 212 214 210 204 202 199 195 185 191 196 197 209 206 200 208 183 179 188 198 210 192 193 173 174 169 177 162  83  76  73  52  77  75  68  18  28  28  33  45  64  88  92  91  55 127 193 207
 235 234 230 235 184 166  97  99 179 149 184 199 187 143 102 106 167 214 216 212 216 209 182 185 179 173 168 189 202 222 209 223 216 217 216 212 205 211 207 212 211 204 207 212 210 209 208 208 197 193 190 187 194 206 203 214 205 198 185 179 161 160 145 145 161 176 190 177 175 172 169 169 102  64  40  51  69  61  71  11  17  27  36  47  75  81  99 123  93 106 192 208
 148 146 146 140 134 118  94  84 178 149 186 206 175 112 104 104 176 216 213 210 209 203 191 187 148 152 154 159 184 194 195 196 204 203 209 205 207 204 206 199 210 199 206 210 208 202 192 202 188 189 189 180 175 166 158 152 158 164 160 141 134 140 131 142 161 163 151 179 175 168 179 154 104  73  52  60  84  80  64  22  24  28  36  51  73 103  83 115 126 108 197 214
  90 104  94 111 123 126  95  87 182 147 181 214 173 133  93 120 187 215 211 205 208 207 192 161 146 145 166 165 181 156 171 149 165 153 169 175 181 190 196 203 209 202 207 209 208 206 182 196 180 178 162 133 133 123 102 103 119 114 108 110 103 113 124 127 120 127 154 174 174 170 169 159 114  60  62  58 103  79  68  27  30  37  50  57  80 102  83  78 129 159 197 218
  64  94  84 121 129  94  78  67 173 140 178 214 182 141 109 135 196 213 209 209 206 200 191 186 172 164 154 145 143 128 119 133 123 122 132 126 141 154 172 188 199 188 202 219 211 187 168 152 164 139 117  99 101  78  77  63  66  78  89 102 118 131 127 130 124 136 149 165 176 161 175 164 118  85  69  67 131  85  68  25  34  32  60  54  97  92  78  72 101 144 197 213
 171 149 137 113 103  80  75  75 142 148 181 211 184 149  93 136 204 213 206 212 202 195 177 165 185 165 151 113 102 111  95  90  89  90  62  46  86 122 138 164 171 204 221 219 213 187 150 110  93  77  59  51  35  36  56  79  84  91  64  52  78 114 122 121 119 113 130 157 170 179 175 185 151  92  78 116 151  94  43  32  38  37  71  63  98  85  88  72 105 125 201 217
 184 186 173 172 123  85  78  68 103 167 178 206 193 158 127 138 205 203 209 202 195 186 177 179 168 136  84 156 140  98  67  83  57  44  99  98  62 109 131 153 182 209 214 225 210 184 137  87  71  55  45  42  65  74  70  49  44  47 100 123  82  54 112 100 109 111 122 143 166 173 180 172 150  97  68 100 156 110  32  34  47  49  69  81 101  91  85  76  99 127 204 216
 163 205 165 129 122  98  79  64  79 157 173 204 189 167 136 141 213 207 208 202 199 171 148 132  98 103 148 110 204 122  96  21  54  75 146 106  97 118  95 152 188 210 224 221 208 178 129  78  54  52  64  59  73 136  49 104  45  53  55  96 137  90  62  79  85  93 106 140 157 185 179 179 156  95  49  96 149 121  22  34  64  50  84 101  86 105  83  81 103 114 195 206
 187 216 145 208 135 106  79 126 128 163 160 194 191 150 111 155 206 205 209 201 198 161 156 162 151 155 167 180 178 187 101  87  65  73 157 120 108 126 176 167 189 218 226 222 212 188 137  96  62  82  53  89 102 178  56  67  39  69  77 146  57 118  74  90  69  84  97 122 164 174 176 189 147  68  60  89 149 109  31  29  62  64 108  93  79 120  76  85 119 121 191 205
 217 242 158 192 148  78  66 108 152 153 153 187 186 142  93 161 214 212 210 206 197 193 169 179 175 176 184 188 192 197 177 172 163 164 159 135 132 170 188 204 195 222 229 231 216 196 146 122 112 106 101  98 136 163 148 115  83  99 139 166 151 126  98  75  88  91 110 136 167 174 174 189 157  71  77 103 154  90  33  32  51  65 104  96  78  98  92 103 135 147 188 206
 228 222 174 123 131 100  49 127 123 107 139 186 204 158  92 148 202 207 207 205 207 200 195 194 194 191 186 191 195 191 183 178 172 173 158 161 146 171 185 202 208 226 232 227 217 191 162 128 126 118 101 107 141 159 175 170 168 158 160 149 111 122  91 100 102 129 153 172 176 174 181 182 151  91  77 127 157  53  35  41  45  59  71 101  64 119  84 143 117 196 191 204
 231 231 164 127 118  78  88 128 107 140  91 166 202 161 112 153 204 196 208 213 207 201 199 203 205 204 202 197 191 173 183 180 167 155 155 157 170 176 192 208 205 215 225 227 217 207 168 141 127 126 131 117 110 117 149 157 148 138 125 116 112 108 113 140 147 160 176 189 179 176 179 177 122  99  86 146 156  38  39  49  32  55  57  98 101 131 117 153 184 191 193 202
 232 225 147 148 115  80  96 132  92  69 129 126 198 194 120 158 209 204 209 206 213 206 208 208 209 209 211 213 206 202 191 181 189 185 190 184 191 203 207 209 219 222 220 216 213 206 171 165 143 145 162 153 137 129 123 109 109 119 105 120 136 159 158 166 172 177 177 190 195 185 181 159 137  88  83 128 163  40  30  48  33  63  52  79 100 120 165 208 189 199 198 199
 236 233 147 120  95  96  78  34  37  33 164 127 196 184 140 150 198 206 211 209 209 209 215 208 208 215 213 210 204 212 209 211 201 206 204 198 206 213 214 206 212 227 224 220 222 205 150 158 156 157 172 165 171 158 160 153 130 143 144 164 167 179 182 178 193 196 196 204 198 189 171 176 139  73  81 138 179  41  32  41  42  55  67  66  55  70 166 200 196 193 201 197
 239 240 228 144  96  96  71  74  39  53 119 168 200 195 115 135 191 206 209 200 212 211 207 222 209 207 217 214 212 216 220 212 205 205 214 214 220 221 216 210 212 229 228 219 215 193 143 158 158 158 172 190 188 190 181 180 182 178 195 192 199 178 182 193 209 198 203 196 198 188 170 173 130 106 120 172 151  38  27  36  45  49  58  49  44  43  44 131 194 191 193 193
 233 226 155  67  73  70  93 131 122 111  97 199 201 184 101 143 190 204 211 213 215 216 214 220 217 214 220 218 216 216 207 209 214 217 221 230 229 225 215 216 212 220 228 220 200 183 153 165 169 156 185 197 198 205 200 194 199 201 199 186 192 202 214 212 200 203 206 196 196 184 172 164 123  91 135 184 127  38  30  32  45  50  49  54  30  36  45  49 131 190 192 191
 137  73  65  35  51  53  71  55  59  69  87 201 202 180 118 118 190 203 211 216 215 217 211 219 220 222 219 221 213 217 217 225 213 224 225 231 224 221 214 213 214 221 224 213 208 192 161 174 164 167 169 194 197 206 206 208 205 217 212 213 213 212 213 214 209 210 198 208 193 183 171 164 111  87 148 172 145  27  28  35  42  45  24  23  30  25  42  53  59 116 198 192
  57  55  48  32  29  22  44  55  47  39  65 204 196 174  83 124 187 192 205 218 218 215 220 219 219 207 216 214 211 217 216 221 224 225 223 226 225 220 219 217 216 224 224 223 212 182 168 169 176 177 179 200 200 210 213 212 215 217 204 214 224 217 215 217 207 204 210 203 191 186 167 158 117  75 110 156 160  28  22  35  34  28  17  17  26  48  50  46  51  61  81 192
  45  38  39  46  31  24  21  27  24  55  58 168 193 169  78 105 186 200 203 217 224 223 219 212 224 220 222 222 217 216 222 221 215 220 219 222 227 224 223 226 221 224 228 222 214 196 185 181 182 181 179 198 205 210 216 221 214 211 213 221 220 225 221 216 219 203 213 197 197 185 162 151  98  70 137 167 144  22  24  27  30  20  19  20  30  43  55  49  46  46  62  76
  40  46  49  39  36  32  33  20  20  37  65  86 185 172  89 111 176 204 207 214 218 221 225 226 226 225 225 230 228 219 214 220 221 219 227 233 214 223 222 223 219 226 224 224 217 204 192 188 172 172 188 195 210 212 216 220 217 224 213 221 221 216 219 215 213 214 211 208 191 182 169 138  76  87 149 161 132  21  23  26  21  15  19  26  29  33  50  51  55  45  51  55
  48  42  45  37  38  35  25  26  26  30  26  51 131 183  81 109 161 193 205 208 217 222 223 224 226 229 228 224 225 225 223 218 222 220 225 222 214 216 208 218 219 226 225 218 216 208 191 182 159 175 176 174 191 204 214 209 219 222 218 226 221 222 217 218 209 201 209 195 192 188 173 121  93  88 159 169  95  19  16  21  16  21  24  27  28  37  41  49  56  58  47  50
  48  38  40  35  32  36  23  25  34  22  20  29  53 135  92 117 142 195 205 208 217 221 222 232 230 224 222 220 222 214 218 209 214 224 224 221 214 215 207 217 222 227 233 224 229 207 196 185 177 196 192 150 162 185 194 209 213 212 216 217 209 216 216 215 206 205 204 197 185 181 164 126  94  73 163 164  66  12  20  14  12  20  19  28  28  34  39  38  54  61  65  53
  34  33  36  34  28  31  27  25  26  22  25  26  21  67 130 117 136 195 204 207 219 216 222 224 223 226 222 214 221 210 209 213 205 215 206 209 212 216 213 219 222 223 224 228 216 211 198 190 185 208 200 176 161 162 189 193 204 207 204 203 200 203 207 205 203 201 182 192 189 171 170 100 104  92 153 155  13  15  20  13  13  18  23  27  26  23  37  37  38  47  47  60
  30  34  29  27  26  27  24  21  25  21  23  36  45  91 126  93 113 182 205 204 210 212 217 224 226 224 214 203 206 209 209 201 199 198 197 203 222 222 224 220 220 215 224 224 219 203 205 200 202 212 209 192 164 170 168 186 195 204 200 203 203 196 200 196 193 179 174 176 181 163 150 111  93  86 146  81  21  15  16  10  13  14  20  21  23  29  32  38  38  41  44  52
  29  24  26  25  21  22  19  18  22  22  23   9  68  91  85  96 116 197 196 209 204 206 215 219 210 209 205 199 195 202 194 201 206 208 207 212 226 230 228 223 223 223 223 224 224 214 200 183 188 181 177 167 165 195 185 175 184 185 194 201 197 192 195 186 181 170 149 162 161 166 165 122  87  98  95  27  27  19  12  11  14  15  18  23  22  25  24  30  35  41  38  50
  22  20  19  18  17  19  16  15  18  21  13  43  72 115  95  98 122 181 201 207 197 204 207 199 200 197 187 188 194 199 209 212 220 220 223 215 213 207 217 219 214 222 230 225 218 208 176 154 150 114  87 120 180 200 211 203 190 180 179 174 183 188 185 188 177 156 153 147 156 166 164 100 119  95 105  62  18  20   5   8  10  13  15  18  16  18  23  31  35  35  40  40
  16  16  16  15  13  13  18  10  11  14  32  35  90 108  90 104  98 150 195 212 197 200 206 186 194 179 162 193 218 209 220 221 226 221 223 208 174 116  91 188 203 216 219 210 202 189 148 129  67  44  60 141 174 194 201 206 215 190 179 159 131 157 162 174 155 163 141 145 153 169 171 116 112 115  85  55  39  25  17   8  10  12  16  19  20  18  21  27  34  38  36  39
  12  14  12  11   9  12   8  20  21  32  50  46  93 111 104  86 109 156 195 197 190 209 198 191 180 172 203 194 211 209 171 203 214 221 206 195 191 158 154 132 187 205 210 187 168 153 130  75  78  76 127 156 154 166 171 147 173 164 175 173 174 137 128 149 155 154 126 154 167 170 145 123 138  70 105  58  50  15   5   8  13   6  16  20  19  19  21  24  30  29  37  38
  13  12  10  13  11   8  13   8  17  29  53  44 128 111 132  86 100 111 182 192 193 198 205 192 179 215 205 213 176 181 172 170 186 194 188 190 188 184 139 120 153 201 185 146 140 131 103  61  52  57  82 138 167 122 124 144 140 146 134 142 164 162 130 138 156 150 134 160 167 167 132 122  90 119  84  98  52  17  15   8   7   9  11  17  19  21  20  21  25  29  37  36
  19  14  11  12  12  12  10  12  19  12  23  68 113  93 103  77 104 115 144 194 181 196 207 197 208 190 178 193 159 131 135 151 159 158 164 172 163 150 133 100 120 119 139 125 116 106  70  59  61  66 102 106 103 132 116 112 118 125 128 104 111 159 162 139 161 142 115 168 180 157 117 119 115 107  72  64  59  18   8   7   4   6  10  11  17  24  22  29  21  28  36  41
  17  13  13  10  12  11  11   8  15  11  15  88 104  99  99  82  98  96 150 167 157 175 202 159 163 155 176 155 110 134 114 125 116 124 124 143 112 115 114  87 108 104  79  78  71  95  82  84  70 108 121 123  98 116 131  90 125 132 106 107 121 155 169 128 145 132 125 159 150 138  99  92 100 123 124  50  65  29  10   3   5   5   8   8  16  25  24  24  23  33  36  42
  22  19  19  15  14  14  18  26  10  12   8  92 100  91  87  87  88 115 129 165 134 167 154 159 154 150 159 128 132 106 128 118 114 105 101 131  86 106 122  77 119 101  92  77  98 100  85 125  79 110  91 101 123  98 100 125 112 108  99  90 112 126 152 127 156 117 123 146 131 105  96  77 104 105  87  92  38  57  52  15   9   6   8   9  15  19  25  24  31  31  36  36
  25  23  21  17  16  16  13  10  25  10  19 106  87  68  83  99  89  93 123 144 141 136 139 169 156 120 110 126 102  90 107 106 113  98  87 103 111 111 125  92 123 117  96  80  87 151 100 132 109 104 109  93 102 116  99 101  99 107  75  98  72 118 114 123 141 113 123 123  96 100  97  78  91  97 122 105  64  39  24  16  11   5   8  15  17  18  25  26  29  33  35  44
  29  27  24  23  18  16  16  13  15  17  26  82  87 101  97  78  78 114 112 121 124 144 127 147 133  96 109 119 102 106 102 104 115 101 104 120 108 116 113  92 157 100 133  84 125 129 120  95 101  91  84  74 109 106  88 108  79  81  58  75  75 109 101 115 132  87 118  95  93 104  96  82  93  81 121  91  54  62  27  18  12   6  10  14  18  19  25  25  31  37  43  53
  37  28  27  28  24  21  17  17  16  23  24  91 104 112  98  85  78  76 108 112 129 109 161 143 123  99 144 114 122 116 103 131  95 103 128 137  98  98 109 110 114 114 120 107 118 110 128 103  92  80  77  72  91  92 107  85  83  47  51  61  98  88 118  83  96  82  93 112  73  80  90 102  70  68  87  98  49  28  36   8  20   9  13   9  19  22  25  24  31  37  51  51
  35  34  29  26  25  23  22  19  21  19  29 107 101  92  92  67  86  97  94 105 127 132 133 111 149 130 129  93  82  86  97  91 106 130 155 156 114 118 129 116  97 101  88 113 140  99 104  81  73  77  85  71  62  67  66  72  38  33  34  50  81  82 100  78  69  66  78  94  74  94  74 114  94  60  89  80  77  11  39  11  12  11  13  19  15  21  26  31  36  43  58  71
  38  39  36  33  33  28  26  24  25  38  69 119  96 103  84  82  73  77  80 104 115 108 114 145 110 113 122  97  88  78 129 139 128 148 164 180 176 155 139 154 131 158 140 155 136 153 122 104  97 102  97  90  86  66  59  63  67  58  53  63  91  89  68  95  65  59  49  87  82  80  71  90 100  86  51  54  77  24   9   7  11  10  14  19  20  21  26  40  44  56  69  71
  46  40  38  31  32  30  29  30  25  36  97  80  64  89  95  80  84 110  91  87  89 128 138  84  86  90  92  91 108  89 119 148 141 150 170 165 188 185 168 153 187 192 193 168 172 174 163 148 147 140 132 119  97  86  92 108 121 119  56  72 104  78  70  74  68  77  40  96  71  64  88  76  89  98  58  53  29  36   4   9   9  12  18  23  23  27  39  50  58  60  71  68
  43  41  36  40  37  32  28  25  23  33  79  51  89  89 104  77  83  76  69  87  96 107 107  92 102  95  74 121 120 123 161 158 158 147 173 176 174 160 159 138 168 170 158 164 149 144 168 147 159 130 156 137 126 142 105 114 117 112  84  71 102  84 100  66  60  76  48  74  91  75  57  86  77  83  81  74  29  50   3  11   9  12  19  23  28  34  41  47  63  74  72  88
  46  43  43  38  37  31  31  27  25  33  59  79  89  98 100  87  83  83  92  84  77 107  79 108  97  98 103 134 111 148 119 135 158 173 169 174 161 146 147 147 145 153 143 165 151 163 161 175 181 158 144 151 158 146 149 129 144 147 123  78 101  83  65  62  78  55  33  65  62  54  69  60  78  84  67  33  56  25   8  10  14  18  25  27  33  41  51  62  63  66  75  74
  58  48  38  37  37  32  28  26  27  26  43  85 115  66  67  83  91  87  61  75  68  68 136 106 128  81 115 117 134 124 126 116 139 174 169 163 153 152 145 146 138 137 119 142 145 154 144 139 138 144 167 156 142 158 134 145 163 165 124  75  98  69  70  58  65  45  50  43  50  60  56  76  78  64  56  60  31  17  14  17  18  24  29  37  41  54  60  59  69  71  68  37
  53  56  45  35  36  30  26  37  31  30  37  87 110 109  75  65  98  65  77  65  68 101  99  92 104  87 127 127 124 138 126 134 127 157 157 167 148 143 125 128 120 144 111 114 121 117 136 158 183 184 177 116 145 116 114 113 118 166 121  95  92  70  74  85  79  58  46  51  46  83  51  83  68  58  58  39  44  30  22  20  24  33  40  48  52  60  60  65  82  65  38 119
  42  56  45  50  37  38  31  31  33  35  62 103 100  71  75  81  94  93  87  78  67 107 108 130 105 101 116 105 122 116 144 128 145 169 163 155 146 144 121 128 134 131 129 121 113 136 131 143 140 134 134 128  84  87 120 125 117 172 115 113  81  78  65  63  51  54  46  49  47  64  55  63  70  77  40  33  15  36  28  28  37  34  43  48  48  51  65  71  54  42 132 200
 207  71  45  48  43  32  31  37  28  37  69  61  72  90 104 107  72  90  90  71  77 100  88 120 109 104 126 116 148 132 132 126 145 131 150 126 168 159 148 149 160 128 135 132 130 144 154 135 118 110 124 146 114  94 117 110 158 166 114  69  72  89  50  65  46  35  49  45  42  66  74  60  96  81  41  33   7  21  24  26  33  35  44  49  44  60  61  44  61 155 193 209
 233 227 122  52  40  38  31  28  31  25  50  39  61  91  89  92  87  83  77  80  85 109  99  99  97  80  95 122 129 128 146 123 122 143 153 158 159 164 161 176 177 175 166 163 123 168 139 141 135 137 120 133 137 137  80 114 148  96  96  65  40  42  47  49  57  44  30  33  46  69  47  45  52  46  58  26   2  19  18  26  31  38  43  43  58  61  42  81 169 162 185 207
 238 235 203 135  59  34  39  35  25  17  29  50  62  79  78  82  88  81  80  74  85  94  91 109  92  90  91 144 125 130 123 123 139 162 151 157 149 171 169 196 172 167 165 157 153 132 143 135 159 136 124  83 115 104 111 114 118 102  77  76  56  61  53  49  52  47  53  34  40  60  61  44  52  68  58  41  14   4  25  32  34  43  42  54  59  37 107 198 179 144 183 205
 118 110  79  88 148  90  34  39  25  31  54  70  48  94  79 104  79  75 105  64  76  92  99  86  89  88  95 107 124 112 107 132 139 146 129 141 153 155 178 181 163 169 178 163 148 153 168 163 159 129 135  88  80 127  97 144 125  94  74  67  37  65  84  51  62  66  38  43  46  74  60  61  35  54  51  19   9   3  31  30  38  37  42  44  64 130 216 214 177 147 187 209
  97  69  56  90  84 138 116  30  42  37  45  45  76  89  85  91  71  88  81  72 101  81  92 100  92  96  56 117 132 132 135 151 126 145 147 115 160 141 159 196 178 163 187 160 155 160 164 141 149 148 140 116  93  89  81 124 133  51  62  39  52  73  83  70  55  76  69  50  46  69  60  55  50  41  23  32   1   6  19  35  35  44  27  75 136 112 197 216 192 164 188 208
  67  61  58  83  74  77  74  51  34  38  33  61  77  93  93 126  75  97  67  89 102 109  75  81  81  74 105 114 135 153 111 124 135 138 150 150 144 135 148 174 172 164 146 159 168 137 125 145 135 155 131 138  88  99  80 115 129  46  53  57  67  67  75 101  82  89  63  48  69  44  56  53  53  55  27   4   3   4  10  24  42  33 115 133  91  62  99  99 136 142 136 170
  44  51  64  69  74  67  52  31  51  44  33  70  60 103 114  81  86  79  88  79  90  89  98 119  65 107  93 113 121 139 131 122 127 153 151 128 134 127 131 189 160 141 152 143 159 143 104 155 130 111 107 108 126 125  91  77 107  41  69  48  68  90 107  83  88  79  84  42  41  45  48  51  34  27  19   2   2   0  11  46  30  86 143 191 153  74  67  87  77  80  77  74
  61  68  72  64  50  52  38  40  41  43  39  52 104  98 110 114  73  94  91  92 113  81  98  90 105  91 104 122  95 146 124 142 125 126 134 142 149 147 133 153 160 131 148 133 137 130 105 144 114 106 118 105 116 109  88  92 127  71  72  80  82  81  82  76  93  90  78  85  43  64  64  50  19  14  11   3   4   1  34  52  91 134 185 171 204  81  56  79  87  70  76  67
  55  49  51  48  43  37  51  47  44  49  41  43  81 100  95 101  73  76  87  92 123 106 122  92  87  84 113 115 101 127 128 116 111 151 119 127 144 126  97 124 144 171 137 118 132 120 120  98 140  92 107 113 124 101  66  69  98  79  69  54  82  70 104  74  75  82  71  59  74  58  56  43  19  11   4   3   7  33  38  53  71 107 136 117 109  63  75  59  73  74  68  59
  52  40  39  49  44  46  48  51  45  46  43  69  81 107 109  88  81 111 101 150 132 122 108 106  85  80 106 138 104  98 158 124 101 141 109 110 118 144 129 118 121 127 137 114 107 104 121 115 128 136  89 106 101 106  95  83 131  44  92  64  78  78  83  64  85  91  70  59  62  58  62  28  17  12   2  21  35  45  56  43  46  52  58  71  86  73  57  48  60  58  55  48
  54  46  53  44  46  47  52  55  50  47  47  54  54 113 128 102  97  91  92 120 107 118 110 112  78  68  88 138  95  73 100 114 112 129 112 140 139 139 119 116  87 116 140 131 118  82  87  95 140 123  94 106 109  69  86 115 108  52  81  83  66  76  80  74  70  97  79  58  45 101  47  30  15  10  28  32  33  38  45  41  40  55  55  60  73  67  72  80  81  65  60  43
  46  56  45  55  48  52  43  51  46  51  46  44  72 113 114 117 101 109 111 133 131 100 149 118  90  62  92 124 110  86  95  93  89 114 128 118 141 106 105 129  71 116 119 142 113  92  71  95 108  93  60 115  79  73  79 131 104  73  77  81  72  73  85  70  84  85 110  70  57  69  60  18  33  27  29  31  40  42  38  40  48  57  52  62  54  61  60  64  78  76  74  77
  43  58  49  53  51  58  56  50  48  47  44  45  86 123  99  70 112  99 126 115 113 127 107 105  84  75 115 142 110 104 116  87  95 119 122 111  78 119 143 134 106 107 112 114 128  99  58 117  68  86  87  79 105 101  71 119  89  34  87 104  87  96 107  62  75  96  72  94  71  54  63  28  36  29  33  33  40  37  47  52  50  57  54  57  75  56  64  53  67  62  54  64
  53  55  46  54  54  57  49  46  55  48  52  47  55  97  90  96 103 121 124 111 111 115  91 119 106  67 112 115 103  79  78 109  82 115  94 115  96  71 107 137  80  86  80  94  95 102  64  90  81  96  99  77  60  93  85  95  84  58  77 110 122  86 100  73  64  96  98 109  56  27  51  38  37  29  35  35  38  41  42  56  48  50  57  51  58  55  60  51  69  51  57  65
  48  45  54  45  42  49  50  57  50  51  52  50  47  96  80 110 105 124 117 120 105 127  93 124  84  79 104 104 107  93 109 103 103 124  78  89  82  70 101 117 108  76  82 114  78  85 103  98  80  80  86  95  82  94  96  85 116  33  99  86 108  90  79 116  58  64  99  99  77  43  35  40  31  37  37  43  42  44  44  48  51  53  53  64  53  53  63  58  63  51  54  54
  50  50  46  60  63  51  52  49  59  52  51  50  52  66  73  92 122 144 130  97 102 111 101 110 105  84 114 119  76  73 100  77  78 136  73 107  59  55  97  74  90  76  96  89  88  84  81  74  86  91  72  92  57  73  80  85  84  96  69  88  78 109 100 100  88  95 107  98  67  57  24  31  32  35  40  38  45  45  50  49  55  69  54  61  59  74  62  61  50  58  59  57
  55  69  56  55  56  60  59  45  59  53  55  62  51  53  23 101 140 111 121  92 102 111  94  99  97 103  99 109  70  83 119  87  64  93 108 105  70  84  97  71  87  97 105  97  83  73  86 117  68  82  80  92  80  90  83  78  84 118  61  73  80  85  77 125  75 120 104  90  73  18  21  24  35  33  41  45  48  43  55  56  58  68  57  56  63  60  58  65  62  58  56  58
  57  45  60  60  60  54  55  43  59  51  51  46  55  52  66 100 130 140 123 105 105  95 108 104  91 112 100  87 117  76 121 127  87 112 115  91  68  80 117 118  83  64 100  78  90  76  94  78  80  75  73  57  92  87  85  56  64  87  85  75  76  80 108 123  90  83  86  87  57  22  21  26  43  34  38  43  44  45  52  54  58  71  59  64  58  56  66  69  49  56  50  61
  53  55  49  54  55  52  59  45  61  45  52  50  50  63  53  64 117 129 106  84  84 142  89 101 116 108  87  87 103  71 115  93 124  93 104  84 102  90 103 104  97  74  96  99 115 109  84  96  73  68  69  94  81  85  92  66 105  69  70  70  75 103  85 105 113  96  98  75  59  30  22  27  41  46  38  42  52  49  54  53  57  51  62  66  56  63  61  59  61  55  57  48
