P2
# Generated by OpenCV 4.2.0
92 112
255
 115 115 114 116 115 117 115 111 114 116 116  88 117 220 254 223 157 128 107 113 172 211 231 190  33  89  73  65  77  61  43 125  64  67  79 101  78  56  65  77  71  81  79  66  71  68  80  75  95  12  95  81  86  73  85  69  82  61  62 108  94  95  85  66  71  86  98 101 125 101 220  96 110 103 103 103 104 104 105 104 104 105 104 100 104 104 106 107 104 112 105  84
 115 115 116 113 114 113 113 110 109 113 119 109 102  67 136 227 242 246 240 236 237 197 100  39  75  37  52  42  75 103  49 129  74  78  92  99  75  81  81  76  56  87  86  67  80  79  95  76  96  38 107  75  90  92  72  87  63  79  53  85 114  73  91  77  98 101  85  91  82 100  66 106 108  99 104 103 102 103 105 105 108 107 100  98  95 102 103 104 107 108 109 105
 115 114 115 114 115 113 114 113 111 111 110 112 108 120  84  66  23  55  85  60  60  60  64  77  51  82  72  59  40  93 119 117  84  66 106  93  90 103  77 108  69  86  81  72  95  74 111  58  95  80  78  87  98  88  64  74  70  77  66  85  97 100  98  81 110  77  88  60 120  99 119  28 103 110 110 100 110 100 106 106 100 112  79 159 153  98 103 111 103 106 108 108
 115 114 115 115 115 113 114 110 113 106 107 107 100 104 104  84  70  66  68  72  75  78  83  52  63  64  88  62  68  99 102 110  96 115  95 103 124  73  89  85  96  94  77 107  94  93 104  58  97  72  84  96  96  87  71  86  60  74  92  86  85 121  89 109 123  95  89  91 111  92  53  83  70  95  67 108 109 103 103 114 108  95  84 237 222  59 183 237  92 107 106 103
 116 115 115 114 113 114 113 110 114 118 103 109  92  73  80  98 118 111  98  52  59  75  83  94  68  53  94  83  90 120  67 111 114  95  90 116 104  97 114  77  95  97 104  68 115  95  92  72  98  77  95  81  76  93  66  76  62  75 100  86  89 125  92 126 128  89 106 113  93 117  86  91  57  80  86  10 107 105  97  99  85 115 227 246 115  94 121 246 125  94 107 111
 116 115 113 114 113 113 112 114 107 105 105  75 122 189 227 233 223 221 218 136 125  64  74 108 117  84 110  97 110 132  93 118 100 109 103 120 130 119 116  93 123  99 131 102 113 103 125  81 102  61 141  29 115  82  65  73  72  81  91  88 105 114 102 140 137  99 129  86 110 141  71  47  50  99  98 127  86 107 106 120 176 234 250 123  84 116  78 220 215  74 106 108
 116 116 114 113 114 115 114 109 106 106  77 165 231 218 154 112  85  85  74 169  42  10  57  82 123 116 115 116 114 108 100 126 113 122 107 125 122 129 123 115 124 120 118  87 134 111 109 106  87 123  82 105  99  80 100  96  81  93 106  91 124 116 127 124 136 137 118 117 121 103  35 113 106  86  54  62 105  93 250 240 241 211 116  86 110 111 100 125 253 212  95  87
 115 115 115 114 112 114 113 108 105  74 181 233 186  48  58  70  75  64  63  74 109  89 101  86 133 112 113 136 114 133 123 130 120 108 136 122 123 121 143 117 123 139 107 135 123 143 120 110 111 133 110 112 109 100  90 103 104 120 109 109 124 103 133 132 134 132 154 124 133  48 155 108  95  73  65  25   7  20 129 156  98  65 103 118 102 103 104  95 126 238 238 203
 116 116 116 113 110 108 107  99  78 110 229 172  49  81  88  72  70  28  46  12  68 131 108 122 112 146 115 124 120 124 123 126 118 122 122 150 113 125 153 121 138 135 141 136 129 134  97 119 143 103 123 118 123 110  98 104 120 110 107 131 130 151 150 134 146 137 130 144 120 160 120 136 109  56  57 106  73  34  26  92 124 118  99 107 109 110 108 111  94  84 188 226
 116 116 113 107 106  99  95  87  64 229 220  46  81  68  66  84  40 107  99  96  89  83 119 126 102 139 137 100 126 111 130 136 139 124 129 135 139 148 117 129 131 123 147 119 143 122 140 146 144 138 127 143 106 129 123 113 123 138 122 127 135 149 143 151 153 147 131 112 144 155 139 130  66 103 128  65  68  78  62  61  78 112  95 105 104 105 107 103 111 110  96  66
 114 115 116 108 103 101  95  85 114 231 115  59  72  76  75  89  59  81 100  92 112 119 130 112 135 127 142 124 137 142 121 160 152 156 143 151 158 136 148 154 145 142 153 153 152 151 143 151 139 148 146 145 142 133 143 132 137 154 126 141 163 154 161 160 167 155 146 127 155 106 148 108 147 125 115  68  62  34  73  80  69  86 103 105 107 105 107  99  79  84  91 102
 115 113 112 105  99  99  88  75 147 225  21  76  78  72  79  74  81 111  73 100 115 129 119 141 118 137 138 148 148 151 162 143 159 160 154 159 161 166 166 164 166 160 150 151 167 159 170 162 164 155 168 164 161 159 153 148 164 136 169 165 168 178 171 176 177 175 163 159 134 139 141 147 149 136  78  90 105 126  86  72  67 109 108 102 103 109  79 224 217 213 198 187
 115 114 104 101  99  91  90  63 177 205  57  75  72  76  68  63  65  67  90 104 102 112 114 108 134 152 150 164 161 158 167 170 164 168 174 171 165 172 174 177 178 179 166 181 162 153 172 171 172 182 167 177 171 169 164 173 149 168 176 169 180 192 176 182 181 177 178 172 164 161 149 130 121 117 125 131 126  93  71  56  49  38  87 117  99 110  90 225 217 207 220 231
 115 108 104  98  98  83  87  41 195 194  46  72  73  74  76  52  41  72  81 105 113 135 127 143 156 169 167 172 171 169 166 173 170 174 184 180 173 177 181 185 182 189 181 179 165 169 177 178 188 187 185 179 174 180 180 176 175 179 186 185 190 181 191 183 183 186 180 182 172 180 165 142 127 130 138 137 117 110 103  80  77  91  43 165  91 108  92 223 183  53  86  94
 115 106 102  96  90  87  85  44 193 202  54  73  75  70  54  37  81  60  96  95 123 136 154 165 167 169 170 171 171 167 173 173 174 176 178 176 182 183 185 185 194 191 186 181 186 180 187 184 189 192 189 190 193 189 192 184 180 188 194 189 185 184 191 183 189 181 182 181 178 174 173 168 150 138 120 116 106  84  87  90  57  42  49  85 136 116  98 231 177  91 105 114
 112 104  97  90  86  80  81  59 182 216  49  76  85  44  39  39  50  53  73  91 118 124 173 176 172 165 167 171 168 174 173 177 178 179 180 177 180 182 185 187 190 191 188 190 195 184 191 181 191 188 192 192 195 192 193 196 194 192 191 197 191 191 185 188 184 182 183 182 179 176 181 182 171 160 136 136 141 117  75  74  92 110 105  56  19  71 110 227 176  90 105 106
 108  99  95  87  83  74  78  69 130 228  35  83  39  23  37  47  62  73  95  96 112 156 168 170 168 164 170 170 171 172 176 179 178 180 181 181 181 186 184 184 187 188 191 190 191 187 194 185 191 195 193 192 191 195 191 195 195 193 190 190 187 187 187 184 183 185 185 183 182 178 174 178 182 174 164 145 128 110 127  84  81  63  73  64  95  73  84 237 153 104 110 113
 101  95  88  79  77  76  75  74  84 232 145  37  45  37  56  55  51  84  96 110 144 160 179 173 169 173 175 174 172 176 176 181 182 183 183 184 182 183 183 189 184 187 190 192 190 187 196 192 188 191 193 195 188 190 195 189 193 190 190 185 188 189 183 186 181 183 182 180 182 183 181 178 182 182 174 142 142 137 116 118  98  86  80  82  37  50  80 239 140  94 107 107
  96  89  82  76  74  74  80  77  36 203 198  25  63  36  65  79 109 114 106 133 158 166 175 175 172 172 174 180 178 177 176 180 180 181 183 184 185 188 180 186 188 188 191 192 189 189 196 195 192 191 192 189 189 190 186 190 190 189 187 188 190 187 186 184 185 182 181 179 181 181 184 182 184 182 171 173 152 132 134 126  99  85  66  60  73  69  40 148 196 127 117 106
  91  86  83  76  73  74  79  74  67 111  40  65  30  73  69  77 105  88 109 137 160 171 177 174 170 173 176 179 178 178 181 179 180 181 182 181 180 187 183 188 190 190 190 189 193 192 196 193 192 192 193 194 192 190 193 189 190 189 186 186 188 188 186 184 184 183 182 181 181 181 183 184 187 188 187 168 154 117 129 110  79  70  69  71  52  30  55  18 175 253 238 245
  87  83  81  79  75  75  73  74  90  38 111  41  58  41  54  86  86  95 116 146 165 172 179 177 172 174 178 179 179 178 177 179 177 177 179 177 179 185 179 190 189 190 191 192 191 192 193 198 187 188 200 189 194 194 192 196 194 190 190 189 190 186 188 185 184 182 183 183 181 183 182 180 178 180 186 177 166 151 112  89  66  56  65  61  57  66  39  81  15 147 128 140
  85  80  79  76  73  74  72  71  77  12  85  44  38  48  56  56 106  92 112 148 170 173 179 176 176 177 179 177 178 178 177 179 177 177 181 179 183 185 178 187 191 192 192 195 194 191 197 200 195 187 201 198 193 192 193 191 191 190 188 189 190 189 186 185 185 183 183 182 181 182 182 183 181 185 188 181 171 161 122 110  96  43  35  54  41  31  50  32 123  53 107  99
  85  81  78  75  74  74  74  73  49  57  34  41  30  53  61  74  80 109 136 156 169 174 177 179 178 180 179 179 179 176 177 177 176 178 182 179 182 183 181 187 190 192 192 195 189 197 194 200 192 197 197 195 199 196 193 196 195 192 190 189 188 188 186 186 185 183 182 184 183 181 182 184 185 184 183 178 166 159 136 119  85  82  66  58  24  41  41  46  83  67 121 110
  81  78  76  75  75  72  72  75  78  26  15  22  54  65  95  87 103 109 135 153 171 177 180 179 180 179 179 177 176 177 178 175 175 180 183 182 180 182 185 188 191 191 190 195 186 197 196 196 195 198 204 204 198 201 200 190 190 191 189 187 188 187 188 187 187 184 182 180 179 184 183 183 183 183 185 186 178 155 135 114  91  92  81  35  59  43  20 114 127  76 113 103
  78  78  74  75  76  70  81  75  48   3  16  38  37  58  53  61 102 121 140 155 171 177 178 180 179 178 178 176 176 174 175 175 176 180 182 182 182 182 184 187 190 191 191 194 192 196 199 194 197 196 192 198 198 196 196 200 195 194 190 188 186 187 187 186 184 185 185 183 183 184 184 183 183 185 183 185 179 158 151 114  92  56  60  52  22  44  41  39  72  53 117 103
  77  77  74  75  78  72  77  73  19  23  31  34  36  48  70  86 106 112 135 149 174 177 179 179 178 177 176 175 176 175 173 172 175 178 179 180 180 183 186 187 188 190 191 190 192 195 199 199 204 208 197 203 202 198 196 192 194 193 194 193 189 185 182 184 184 184 184 186 184 182 183 183 183 184 180 179 173 159 154 137 106  62  52  43  44  33  12 140 128  81 115 108
  78  76  74  74  78  73  78  70  26  24  12  27  17  68  73  89 107 116 131 150 170 172 178 177 177 176 174 175 175 174 175 176 176 175 175 175 180 186 190 187 189 190 194 197 197 203 201 192 190 196 199 200 198 201 198 199 196 199 193 192 188 184 180 183 185 181 181 185 184 183 183 183 183 183 183 178 169 158 158 117  88  62  53  47  61  65  48 205 110  74 101 104
  78  77  76  74  68  76  90  52  30  29   7  18  31  50  69 102 110 129 138 143 164 166 177 179 177 175 173 174 173 173 173 172 173 177 180 179 178 178 177 187 188 189 191 188 195 200 204 201 203 207 203 197 197 194 193 192 191 190 183 183 186 185 183 183 180 181 183 184 182 181 183 183 183 183 185 181 166 155 149 139 103  72  37  38  69  76  85 213 157 134 163 142
  77  76  72  73  77  79  81  25  39  27  33  27  24  68  83  98 105 119 135 147 164 166 175 178 176 176 175 175 174 173 174 172 169 167 166 175 176 176 175 179 180 182 185 185 187 196 206 197 202 206 204 204 201 199 197 195 197 193 187 183 180 180 180 181 181 182 182 182 183 181 182 183 184 182 183 183 164 153 144 144 100  62  30  59 106  79  74 238 235 140 247 252
  74  77  73  75  74  71  67  89  89  47  46  12  34  66  81  89  97 117 129 144 161 169 173 177 175 174 174 174 173 172 173 174 174 179 176 179 180 184 186 188 189 189 191 192 191 190 197 203 200 202 203 200 198 197 196 195 187 186 191 191 192 188 184 179 182 181 184 185 183 183 183 183 183 179 185 175 162 145 134 129  99  59  45  80  58  38  68  50  62  81  97 104
  76  77  76  71  78  66  65  41  29  31  31  56  39  55  76  79  96 112 128 147 161 167 171 175 175 174 175 173 172 172 175 176 176 176 179 183 175 180 187 187 188 188 190 196 200 199 193 201 196 198 206 200 199 194 193 191 186 183 187 188 186 185 185 183 183 181 183 185 185 184 183 182 182 178 184 170 160 138 131 105  89  56  36  69  59  72  74  51  76 110 102 105
  77  78  74  79  80  50  67  56  77  45  33  39  42  54  54  80  99 119 133 154 165 160 160 168 173 176 177 175 175 174 173 174 176 178 178 184 180 184 188 193 194 195 196 200 196 195 200 207 201 200 203 201 198 194 193 197 205 196 191 189 186 186 184 182 183 182 185 184 186 185 183 181 180 180 177 168 158 138 128 109  75  47  29  86  67  57  27  58 112 104 103 118
  78  77  72  74  63  69  87 116  54  50  33  13  40  31  46  77  91 110 135 147 157 165 169 166 170 175 180 180 177 176 174 176 175 177 179 183 179 185 190 189 190 191 192 192 194 199 198 195 194 188 187 188 189 189 191 189 182 188 189 188 188 186 188 187 186 187 185 185 185 184 183 178 177 182 178 163 167 146 116 107  65  56  61  89  44  94  67 114  97  93 108 110
  76  73  77  69  56  90 116  52  50  74  63  16  25  22  65  72  85 104 143 153 150 163 170 168 170 175 177 177 176 177 177 177 175 179 184 190 187 190 195 193 194 195 194 196 190 193 191 191 192 188 195 196 198 200 192 193 199 194 197 197 196 191 187 186 189 189 187 185 184 185 185 182 181 173 168 166 173 148 114 107  63  32  71  84  93  84  39  77  92  87 108 107
  76  72  74  68  71 115  50  76  61  63  70  25  14  31  52  77  92  95 126 161 153 152 168 167 172 178 177 176 177 176 178 179 176 181 184 187 188 190 191 194 194 195 195 195 197 197 195 194 203 205 202 198 197 192 199 197 197 204 200 199 197 193 192 189 189 189 190 189 187 188 186 181 179 175 166 170 157 133 122 107  79  46  55  43  51  88  42  37 148  97 107 107
  72  74  71  69 106  70  62 103  35  24  60  66  52  20  33  76  89  86 126 144 163 153 166 167 168 176 178 180 180 179 181 181 179 183 186 185 185 186 192 197 198 199 202 199 198 199 198 199 203 202 201 196 201 194 197 202 203 201 197 196 192 193 191 193 190 189 191 193 190 189 184 181 173 175 168 164 154 140 119  73  61  47  47 100  61  45  28  60 105 163  85  98
  74  74  74  84 108  79  52  89  41  35  62  24  26  47  60  63  62  98 141 148 162 157 165 168 169 177 177 180 183 183 182 181 180 184 188 183 188 185 190 193 198 204 203 200 201 199 200 204 203 202 201 198 201 202 207 201 201 197 193 192 191 194 193 196 190 190 192 193 188 185 185 182 177 178 155 170 159 135  92  74  50  48  63  84  58  47  89  60 118 169  65 105
  74  78  70  84  98  65  63  69  75  52  77  28  51  54  24  45  89 129 141 146 153 160 161 169 160 178 180 182 187 185 184 186 183 183 187 180 179 180 181 184 196 201 196 197 204 206 206 202 202 204 203 202 203 203 211 205 202 199 195 196 194 198 191 190 194 194 193 196 194 191 193 187 177 177 170 167 158 147 119  61  44  75  92  58  43  50  82  52 110 178  78 113
  75  77  74  73  75  48  57  68  51  56  49  53  30  64  50  78 105 122 143 148 152 156 166 168 176 181 180 192 190 185 183 184 189 192 185 184 186 184 182 181 193 196 194 195 203 209 203 204 204 204 203 209 206 204 199 200 196 195 197 197 192 191 187 190 196 196 190 194 192 194 190 188 180 175 169 165 157 149 122  54  45  81  85  76  43  18  46  90 146 152  77 113
  76  76  75  71 111  57  56  61 104 119  77  75  50  49  43  87 100 124 144 149 151 158 162 162 178 182 188 168 168 181 185 186 190 182 182 187 192 190 191 190 191 188 194 195 201 195 197 199 201 207 196 201 198 200 195 195 197 192 192 192 198 201 191 197 191 197 199 192 190 194 194 187 181 176 168 163 157 147 124  70  58  45  49  51  41  40  63 199 143 107  87 104
  78  76  75  80 107  54  92 200 155 119 171 109  72  46  29  96  99 127 142 150 142 158 154 109 125  94  88 141 135 124 131 158 176 177 175 175 173 165 177 188 193 189 198 188 195 199 193 198 198 202 196 194 201 197 192 192 185 193 184 178 187 187 194 188 183 178 169 157 165 167 193 193 184 172 168 161 154 157 128  97  42  91  81 160  86  72  66 111  99  99  95 105
  77  74  81  94 114  49 118 117  71 192 181 197  42  45  67 109 112 130 151 149 149 151 131 153 129 119 123 129 131 131 155 166 166 162 156 167 147 137 138 162 174 174 171 184 193 197 189 198 201 202 203 187 195 196 173 186 172 147 141 156 135 140 177 166 165 152 163 135 139 150 150 194 187 170 163 169 158 151 141  98  62  87  52 132 193  78  75  83 121  92 111 109
  76  72  84  97 113  53 169 147 145  60 131 146  51  83  59  90 105 139 152 144 150 138 124 110 126 143 142 126 137 131 115 131 141 125 141 125 128 129 125 116 147 164 160 182 179 192 191 192 196 198 194 177 167 179 172 155 146 127 135 122 132 141 138 134 152 145 147 163 151 145 139 129 131 161 155 160 157 156 144 105  63  60  41 123 104 131  94  69 114  98 106 106
  75  73  80  95 103  61 186 161 158 125  80 136  81  81  69  79 101 132 149 146 140 140 135 128 145 137 133 125 136 132 124 135 118 104 102 117  88  85  96  97 114 155 147 139 169 174 179 190 196 198 183 178 170 152 148 128 120 116 116 119 117 128 144 138 150 152 148 155 154 162 147 150 128 137 147 154 160 152 158 108  64  78  91  89 138 121 102  85  85 109 110 106
  74  72  77 104  96  64 187 154 155 115 138  87  97  72  77  78 104 147 149 152 132 140 142 143 145 140 139 150 133 136 131 135 138 124 110 102  98 119 107 103  89  95  94 118 138 158 179 189 194 199 190 170 149 132 107 114 105 108 103 108  95  85 112 136 126 130 133 148 153 145 155 158 153 115 150 155 156 157 150 130  84  70  57  81 168 108  90  79 122 109 110 108
  72  73  75 106  81  64 203 153 151 102 184 135  81 102  75  92 122 139 150 146 141 132 126 131 137 149 153 150 154 151 127 113  96 111 164 156 156 140 133 134 120 122 112  95 112 141 169 186 193 197 188 166 137 128 115 110 135 130 113 110 138 158 144 124 121 147 170 178 166 158 155 143 145 142 151 159 157 157 148 129  97  77  68  78 153  78 121  96 105 105 104 109
  67  78  78 108  86  64 205 154 148 119 131 109  83 105  62 100  96 151 151 137 149 136 144 131 135 140 149 153 127 107  84  97  89  62  81  18  96 129 144 138 136 147 123 120 102 121 152 176 196 193 184 169 143 142 124 142 138 130 137 143 110  87  81  85 131 134 103 130 167 171 161 166 156 159 162 165 166 152 158 135  88  67 102 101 193  80 104 110 104 104 107 108
  70  81  70 105 103  60 202 161 131 152 125  99  95  71  71  93 114 154 140 149 140 143 144 140 139 147 144  98  72  88  97 109  56  64 181  69  90 188 136 110 158 152 142 100 123 117 156 173 188 191 188 171 154 130 144 163 143 131 123 157  62  97 121  62  51 100 113 104  98 139 164 153 154 162 159 162 161 171 156 136  82  80 139 153 135  65 109 117 104 105 108 110
  66  80  68  90 111  46 201 163 145 126 115  94 107  93  96 117 136 142 150 148 146 151 147 132 129 112 116 106  94  62 144 147  65  62  22  55  72 216 191 128 115 148 173 108 123 116 158 173 182 199 191 167 148 135 156 144 124 138 197 174  72  78  23  70  63 179 110  67  85 105 115 151 150 154 174 166 159 161 168 143  59  59 102 111  87  97 114 105 106 106 108 109
  71  82  82  77 116  80 180 180 146 133 153 120  82  70 102  90 133 153 151 149 146 143 132 143 145 139 120  93  95 122 117 130 109  80 165 133 136 161 166 133 128 111 153 163 131 124 160 180 194 198 191 168 151 146 171 145 149 138 153 160 127 117 108 103 103 155 124  89  93 122 127 134 141 153 158 157 159 160 160 152 105  91  95  92  95 100  75 110 106 107 108 106
  70  90  90  76  85  90 157 176 164 132 132 111  72  75  76 106 146 151 154 154 152 163 161 136 123 114 126 119 126 122 116 105 136 170 162 177 172 162 157 158 143 154 162 156 130 133 173 188 197 195 188 170 158 143 175 153 149 152 149 160 174 177 185 163 141 111 116 125 137 128 134 132 129 141 155 160 157 164 163 150 126  75  90 113 101  85 103 106 109 107 108 108
  74  93  73  79  77  91  83 197 190 141 151 118  68  77  89 104 139 152 160 157 152 158 160 162 158 158 154 145 142 142 144 153 149 154 171 174 176 163 162 154 144 156 141 137 127 141 171 185 191 196 187 176 159 148 155 165 158 142 145 157 173 171 161 156 145 152 160 156 153 146 151 151 157 161 169 171 168 162 165 156 122 104  91 111 100 103  97 113 107 106 107 107
  83 101 122  82  56  98  57 205 171 137 135 118  75  76 103  92 144 148 155 160 161 170 173 169 169 161 155 159 149 136 146 142 148 155 161 145 144 158 151 154 166 167 145 135 135 160 179 184 191 193 187 178 160 159 154 162 170 154 147 154 154 155 159 156 150 154 150 148 156 156 163 166 173 164 179 176 161 166 165 142 133  96  78 122  92  90  98 117 107 108 108 108
  77 113  97  61  46 123  27 202 143 140 154 124  79  81 107 126 143 148 163 164 162 164 165 167 167 173 174 165 171 171 166 155 146 160 158 167 173 169 167 175 178 157 147 134 140 167 190 187 189 192 190 175 154 167 155 161 176 174 169 165 155 162 159 169 165 163 168 179 176 174 176 181 179 178 175 173 171 163 163 164 100 105  81  94  77  84  95 113 106 108 108 108
  84 110  56  55  77  70  62 145 194 143 144  97  69  72  74 104 147 146 167 169 166 171 172 172 176 168 167 178 170 162 157 172 168 174 165 174 187 180 175 183 163 159 149 130 152 159 186 186 189 190 191 178 154 168 163 163 164 170 182 178 170 174 161 160 168 170 181 166 174 179 177 181 178 179 180 177 170 161 156 156 120  96 104  77  68  91 117 106 108 109 106 106
  87  92  71  78  81  34  89  95 188 148 142  85  63  71  96 118 142 156 167 166 171 178 173 175 173 177 178 167 173 187 184 175 189 181 186 180 174 186 183 173 167 165 152 143 151 158 181 187 187 186 188 182 161 171 170 154 174 183 182 187 183 181 190 184 178 181 178 189 178 179 184 181 182 179 179 179 174 168 157 147 102 110  98 104  95  78 106 111 107 106 105 110
  93  89  87  81  86  48  63  39 191 138 121  91  86  59  92 130 144 152 162 171 169 165 170 180 185 185 182 184 182 182 184 188 177 178 177 181 181 183 180 179 174 166 154 153 158 162 178 188 188 185 189 181 165 177 166 165 173 178 182 185 184 184 185 183 172 183 178 177 186 191 185 185 179 183 179 177 181 172 162 153 123  97  93  77  89  65 121 106 108 110 106 109
  89  75  92  79  73  92  59  21 193 155  98 112  71  68 118  99 132 150 157 167 171 174 174 174 179 183 185 188 195 194 187 186 185 188 190 186 189 177 176 181 172 160 148 150 154 159 173 187 189 190 186 173 165 178 169 174 174 177 179 181 182 181 182 179 182 186 182 186 188 187 187 184 189 181 180 183 181 166 160 146 114 109 120  78  76  46 106 104 106 108 109 110
  64  79  96  81  70  84  82  36 155 171 130 109  70 107 114  89 148 142 160 167 172 175 175 174 177 183 184 188 186 185 183 186 180 186 180 189 181 178 177 175 176 162 153 151 158 164 174 180 191 190 184 168 167 181 183 171 183 188 184 189 184 186 184 182 179 175 183 189 192 189 188 184 183 180 184 185 180 168 160 146 118 117  98  91  94 120  58 104 100 102 116 109
  99  87  81 100 104  77  98  68  86 166 118  99  94 119 109  96 139 140 155 164 173 175 176 178 177 180 185 186 182 176 180 177 184 179 185 181 181 184 184 175 168 161 155 160 161 166 177 181 186 186 187 177 172 172 181 185 177 185 193 189 196 187 188 187 180 175 181 183 185 186 185 185 179 185 180 174 178 171 159 132 108 118 140  91  72  65 105  66 113 110 107 115
 113  85 103  95  94  95 111  73  20 164 142 135 107  97  92 100 126 130 150 162 171 171 175 181 178 182 188 188 188 186 187 190 187 184 189 184 193 189 180 175 173 168 160 160 165 169 177 181 180 183 181 177 171 171 175 180 188 190 188 192 188 191 189 190 191 189 185 190 192 189 192 191 190 184 189 181 179 170 165 113 113 117 118 110  76  75  67  92  96 104 107 110
  69  98  88  96  75 112 103 106  32 132 131  74 106  87 110  91 114 137 147 155 164 169 174 182 180 185 191 190 188 191 191 192 190 191 187 188 185 187 182 179 169 168 161 158 162 171 179 184 184 191 190 182 176 163 163 167 167 174 184 182 194 189 191 196 195 193 192 194 194 193 190 192 190 189 185 184 171 171 158 107  98 114 122  80  95  92  52  78  86 116 112  97
  67  82  90  93  61  87  78  81  47  98 126 124  78 138  99 140 113 134 139 151 161 165 172 180 181 189 192 188 189 189 192 191 196 194 192 192 191 185 186 174 156 159 157 160 164 174 179 181 188 192 192 191 181 168 167 175 164 161 163 180 183 189 192 194 197 197 195 194 194 195 195 193 190 188 187 183 172 178 153 123 111 102 106  86  94  54 114  59  84 107 121 109
  72  73  76  81  76  61  75  61  35  57 122 109 102  95 130  88  97 143 134 153 157 162 172 179 182 187 192 190 190 192 193 196 193 197 187 186 192 187 178 155 154 162 160 161 161 173 174 175 185 194 191 192 179 173 162 180 169 164 165 177 181 181 188 194 192 194 194 195 196 195 197 193 189 187 184 184 179 175 155 101 128 111  95  90  98  78  76  65 110  97  94  98
  76  76  77  70  66  64  35  45  32  30 117 109  94  99 102  78 129 122 139 150 152 162 169 176 180 185 190 191 190 190 193 192 184 185 184 184 177 174 166 135 161 170 173 170 166 173 171 183 189 200 186 181 187 182 172 183 188 173 166 172 172 179 181 186 188 192 193 192 194 193 193 195 192 186 182 181 167 158 149 123 118 111  86  92  56  86  44  42 104 100 116 102
  70  73  75  73  53  71  35  34  42  25  94  91  76  94  91 104 111 118 135 135 152 156 163 174 179 181 186 193 190 187 186 185 190 185 181 181 173 175 158 133 170 179 183 179 176 177 180 187 183 196 205 202 196 174 177 180 186 167 167 190 186 174 177 183 184 193 187 189 191 194 192 195 193 185 183 173 170 167 129 110 118 115 112  57  80  92  91  36  89 107 112 109
  73  73  75  79  64  57  33  31  17  35  65  69  80 109  83  96  85 113 126 141 148 152 159 165 177 180 186 192 182 181 182 183 177 172 184 175 184 172 177 121 162 164 177 177 164 153 179 183 205 211 209 202 194 165 178 171 137 139 169 185 193 191 179 175 184 186 182 186 187 189 189 185 184 177 175 168 167 153 115 122 113 104 101  87  78  52 107  57  84 122 111 114
  72  71  73  70  76  54  56  34   8  53  59  66  84  82  69 108 107  93 127 134 144 150 156 163 166 169 176 177 175 175 173 173 176 179 178 176 177 171 185 135 128 121 124 138 157 140 161 175 201 197 189 191 176 149 161  90 111 166 163 173 178 190 199 184 176 175 183 183 184 183 186 185 182 174 168 173 165 172  88 112  87 111  90  89 118  82 110  70  90 114 109 104
  78  76  73  82  79  58  48  13  21  79  69  69  97  91  83  86 109 109 108 143 147 156 143 158 161 160 163 175 174 169 164 173 184 179 175 192 183 174 187 148 111 101 104 100  84 169 136 159 177 175 181 163 162 148  98  89 126 137 144 156 172 158 182 191 183 181 170 172 183 172 186 168 173 167 162 163 164 158 118  96 109 100  77  84 104  99 114  90  88 103 110 109
  71  71  73  69  80  60  46  32  59  41  97  73  77  78  73 103 101  79 128 128 151 141 148 162 166 149 163 180 169 163 167 185 185 187 183 166 165 167 126 110 141 135 114  80  73  66 150 152 166 156 144 153 166  98  83  85  75  72 118 119 133 131 141 152 157 201 177 163 154 176 178 181 172 173 162 161 153 171 110  99  94  81  86  99 100  99 107 109  97 104 111 112
  72  63  68  87  86 126  94  91  56  42  64  72  87  68  78 113 104  86 120 120 133 133 145 153 149 164 156 156 146 162 180 172 173 138 126 159 132 138  97  99  99  94  97  59  58 105  69 142 134 127 142 146 107  97  98  75  62  81  74  93  97 110 100 120 110 177 174 167 157 171 181 173 171 165 158 162 149 140 129 110  83  96  62  74  94 101 107 105  95 111 113 111
  72  68  48  54  68  74  90  89  56  60  69  56  68  81  96  87 106  94  96 134 126 115 143 143 151 169 143 165 168 187 145 124  98 117 100  76 130 104  77 121  80  81  63  59  60  81 101  87 110 104 119  98  97  61  66  38  75  49  78  76  75  80  95  94  97 123 164 163 155 157 178 180 168 160 152 162 126 157  84 108 100  89  82  82 104 109 108  92 106 106 111 114
  77  88  76  84 117 134 111  72  46  79  62  61  79 104  78  86  82 102  87 117 118 131 139 145 127 162 129 152 163 150 116  98  98  81  88 119  99  59  92  93  61  76  53  69  66 101  79 103 116 132 106  76  71  44  82  66  40  85  63  66  92  83  73  86 114  74 129 135 185 170 171 183 171 148 169 169 155 133 114 109  78  86  96  86 106  97  97 113 111 113 113 114
  74  71  85  82  60  64  72  71  72  63  50  72  96  77  78  85 105  80 101 106 112 141 122 126 136 149 133 125 114 124  95 100  79  79  85  76  77  52  88  55  68  66  53  80  82  80  90 102  90  88  79  78  69  83  79  66  70  63  57  73  75  66  75  85  85 104 101 134 153 155 159 168 164 144 144 164 147 140 106 113 101  84  80  95  82  95 115 114 108 113 114 113
  69  68  71  67  67  68  68  70  60  46  89  80  96  86  91 111  96  94 104  93 118 122 110 133 138 115 100 111 114  89  70  71  92  89  76  85  67  68  65  60  63  60  80  84  85  84  82  92  74  85  80  78  77 100  85  65  66  64  68  50  72  70 100  80  91  84  97 102 135 155 122 176 155 127 144 131 146 129  90  95 109 101  87  96 100 105 109 113 116 112 115 115
  67  67  66  67  66  67  69  69  74  89  64  70  90  70  87  65  67  93 103  85 112 133  99 112 120  88 100 115  83  99  89 100  78  87  81  95  82  76  78  57  77  63  79  71  78  87  87  91  80  78  89  83 103  86  90  92  71  56  65  72  82  78  81  86  90  86 109  96 107 130 104 124 129 140 113 137 116 123 115  99 102  88  90  92 111 105 107 114 118 109 115 115
  67  67  67  64  66  67  67  70  67  54  81  80  88  64  84  98 100  92  96  72 108 114  88 109  85  92 116  79  88  96  67  78  64 100  97 104 129  98  71  49  58  51  38  54  70  94 112  98  89  97 105 114 100 132  84  77  88 107 106  87  88  78  77 105  67  80  81  96  97  91  95 124 113 142  92 108 118 112  96  82 106  97  86  77 113 109 111 114 116 111 114 116
  66  68  64  65  64  66  68  66  69  78  79  70  66  88  69  80  63 110  77 107  89 111  87  92  87  88  88  81  77  70  79  95 104  53 100  93  75  96 103 104 109 102  60  91  74  87  95 100 120 112 138 111  88  69  83 107 103 104  89  79 115 122 124  52  84  50  91  89 118  78  85 118 123  89 100 111 100 111  93  96  93 103  84 100 103 106 109 113 115 110 115 115
  67  67  64  64  66  66  68  81  71  72  68  73  65  70  85  77  99  69  91  87 106  83  84  80  72  77  83  95  90  97  89  93  86 115 147 140 144 123 112 116 105 120 134 130 154 155 135 131 121 128 128 149 123 149 124 143 137 152 143 161 151 144 129  76  91  92  79  81 104 114  79 102  93  96 103 101 100 113 106  85  87  94 109  76 117 102 105 113 117 113 115 115
  69  65  63  73  60  66  78  74  73  83  77  83  76  66  87  75 100  89  81  80  73  74  92  72  65  73 106  92 102 100  91 101 117 129 120 130 140 157 166 158 162 168 164 165 184 178 184 179 184 179 186 181 179 184 184 184 177 170 182 155 131 142 107 100  77 106  91 104 119  91 103 102  77 109  92  91  91  89 100  91  84  89 111  77 117 103 107 114 114 111 115 114
  69  66  62  70  63  64  81  75  79  79  79  68  81  61  87  75  81  70  82  86  76  69  86  56  92  57  84  80 116  92  82  93 115 133 144 136 148 176 157 152 164 172 173 179 176 185 169 181 186 183 180 188 180 174 177 174 160 153 165 147 134 126 102 119 113  67 113 118  88  84  90  74  81  74 107  78  99  94  91  64 103  71  86  99 111 103 104 112 116 112 115 114
  68  65  68  64  67  73  80  74  86  78  59  81  36 101  72  64  94 102  73  62  68  79  65  58 102  74  90  86 101 105  79  87 121 127 129 127 124 144 144 142 131 143 138 144 151 133 147 140 138 133 130 149 144 136 152 165 158 158 146 147 142 103 102  81  93  96  92 128 114  75 102  79  83 104  63  89  87  92  81  68  84  76  91  88 107 107 117 121 111 114 115 113
  60  65  65  59  62  74  61  83  83 103  68  56  71  95  69  64  86  53  63  81  76  71  51  67  64  75 101  73  68  78  77 105 110 124 128 133 133 127 137 144 144 128 128 125 131 122 138 136 128 151 116 125 135 156 146 151 132 149 148 145 113 114 106  91  89  88  93 100 118  69  99  87  62  83  94  76  88  85  73  71  99  74  87 106 102  88 112 111 112 116 116 115
  65  68  66  67  67  70  55  93  90  76  83  72  62  67  66  68  64  56  72  62  52  55  41  81  55 102  54  80 101  20  86  78 133 125 135 141 126 142 146 110 115 111 126 140 136 131 133 138 132 142 156 108 131 158 141 159 157 146 131 140 139 105 111  74  87  96 113  88  93  85  81  95  75  84  79  69  82  84  70  81  76  95  86  97  96 104  92 117 110 113 116 115
  67  67  66  55  67  64  72  76  90  90  69  55  69  83  72  59  45  56  44  68  50  59  44  91  67  54  82  66  76  92  70 101 111 117  97 100 125 135 118 140 113 125 121 101 102 129 119 120 113 144 124 124  90 104 134 134 132 145 137 108 116 106 113  82  85  86 103 105  94  89  69  70  96  61  65  64  54  70  66  85  86  76 106  95 101 110  94 112 114 115 115 115
  66  67  66  67  65  56  74  65  65  91  50  68  66  69  66  61  71  23  59  51  51  50  88  70  56  59  88  94  62  74  88  76  89  78  94 123 114 109  94  89 123 104 123 133 111 111 124 123 112 109 106 133 123 123 109 134 136 145 122  95 114  76  97  83  97  58  91  57  93 105  65  93  73  75  82  71  60  63  76  79  79  81  93  76 110 109 104 113 114 115 115 115
  65  65  66  68  66  67  72  70  72  86  65  70  53  53  67  51  88  40  65  62  51  46  45  68  76  47 117  48  87  44  82  81  79  86  97 105 107 101 107 127 129 143 107 110 116 121 116 125 126 115 118 102 137 120 124 111 109  95 127 109  85 108  59 100  72  97  81  88  68  75  44  94  49  61  88  89  54  62  76  58  79  71  63  86 100 114 112 114 114 116 115 116
  65  65  65  68  64  66  71  67  80  55  76  61  54  55  63  60  62  63  65  56  43  53  48  44  82  63  97  71  61  80  68  84  80  94 101 104 119  90 117 120 121 106 123 121 122 125 116 119 118 121 126  92 143 120 116 130 123 111  91 114 106  86  99  60  84  89  65  44  66  81  62  89  74  74  62  70  61  52  57  69  50  76  62  85  91 118 120 114 118 116 116 116
  68  65  63  66  65  69  66  74  68  92  66  69  73  58  57  59  53  66  53  49  59  54  47  87  60  39  88  67  45  74  74  66  80  78 110 107  84 101 122  95 116 121 133 126 156 146 126 147 107 141 133 100 142 141 100 130  82 121 110  91 122 105  83  74  84  89  69  63  55  53  83  63  50  54  79  57  75  54  79  59  61  62  82  69  86 111 109 112 121 117 116 116
  67  66  61  67  66  63  73  66  78  93  83  66  63  55  56  66  64  60  63  53  72  66  68  42  76  65  88  70  78  79  61  65  79  90 103  78  98 115 100 100 132 128 128 120 142 131 128 103 118 113 122 103 145 129 109 108 112 117  86 114  98 100 112  65  75  75  64  67  75  66  70  81  75  78  64  54  69  58  68  68  67  68  65  70 104  76 114 119 116 118 117 117
  65  65  65  65  64  68  72  71  78  79  67  81  56  61  63  52  65  53  60  53  66  27  76  94  32  52  74  67  82  89  28 105  65  79  80  90 106  96 105 106 117 140 106 114 124 110 112 127 133 116 101 123 126 119 118  85 128 103  86 104  93  93 125  76  88  66  50  80  70  60  48  74  67  68  61  60  66  34  59  63 101  74  67  92  97  98 111 113 115 118 117 117
  66  66  66  61  69  70  64  54  73  90 100  75  61  67  59  59  49  71  57  60  40  58  85  46  41  60  61  73  86  76  69 104  55  68  81  97  95 104  70 126  91 105 122 116 121 125 109  91  97 106 126 125 133 118 111 113  79 107  89  66 110  99 114  76  55 101  67  56  57  67  70  69  87  94  51  69  75  43  76  70  67  87  76  67  91 105 114 113 118 118 118 117
  66  65  62  63  70  64  65  79  91  83 100  82  71  73  60  50  54  53  61  56  41  63  80  65  51  46  70  66  69  84  56  77  73  82  93 117  87 105  89  93  99  91  72 130 101 122 103 108  83 101 104 141 111 134  93  90 137  88  88  86  80 109  68  71  88  85  60  68  71  58  70  71  65  61  62  73  62  58  77  70  79  46  92  73 101  91 112 113 116 118 117 117
  66  62  62  66  56  70  73  69  77  57  76  92  67  59  52  31  69  45  59  58  46  54  58  62  78  59  50  76  72  49  98  73  59  77  74  76  95 102  95  92 112  89  88 102 101  99 102 142 104 129  93 129  99 115 109  61 145  77  87 100 122  95  81  61  72  76  84  73  62  69  59  64  89  50  72  53  68  65  68  63  72  77  75  72  90 117 111 123 116 118 117 119
  64  66  64  63  65  64  74  79  99  57  79  99  73  67  67  56  95  94  74  62  56  86  57  79  54  65  56  49  78  85  68  63  87  92  73  61  95 109  84 109 113 101  88 117  86  98 101 119 118  91 107 108  84  96  99  83 120  90  88 101 109  95  71  73  67  50  73  79  82  36  83  68  64  49  54  70  71  76  89  76  62  72  82  84  97 116 116 120 119 118 118 119
  66  64  65  66  64  62  69  69  79  68  90  65  69  69  54  53  57  61  58  67  31  96  48  73  65  65  45  67  86  52  69  92  61  72  82  75 102  87  76  97 106  96 100 119  61 110 111  85 119  82 114 105  84  98  89  94 122  90  75  92 126  85  73  66  67  86  59  82  81  71  67  57  80  63  51  68  69  92  76  80  78  76  81  84  96 109 110 119 118 118 118 118
  67  65  66  66  63  64  61  72  78  65  76  73  62  49  45  64  76  46  78  49  93  59  72  72  61  50  78  47  77  94  71  67 100  83  37  54  96  79  75 106  84  85  68 107  78 120  98  84 107 102  90  97  98 104  75 108 109 109  83  90 100  90  75  72  70  92  72  82  73  70  67  76  84  74  83  63  73  85  75  76  71  83  88  89  89  96 112 123 119 118 118 118
  68  66  66  65  65  67  62  75  74  78  71  63  59  63  59  66  40  66  57  65  64  76  96  68  61  63  53  94  63  47  95  50  67  97  92  82  85  50  89  95  92  94  87  89  86 117  91 109  81  59  88  93  89  86 100  92 105  93  92  95  91  85  85  52  67  50  73  72  87  64  73  72  96  74  73  87  63  72  63  68  82  68  88  80  87  85 107 121 118 118 118 119
  69  65  68  67  62  66  63  71  71  90  69  70  57  66  67  61  53  95  48  69  72  81  69  57  70  68  76  85  63  76  69  70  72  69  89  76  87  61  93  66  86  68  91  72  88  72 109 107 132  77  94  89  71  95  85  84 129 101  67  86 106  53  82  60  89  66  99 101  69  76  78  58  75  61  61 119  93  73  74  90  70 112  83  92  85  91 103 119 118 119 119 119
  67  65  66  68  65  64  64  63  79  76  80  47  88  56  62  83  74  80  59  75  58  55  70  74  68  67  72  73  44  88  59  85  74  93  65  90  54  74  80  76 116 101 109  37 107  49 109  71 106  66 111  84  98  76 104 107 111  65  97  96 106  48  76  34  95  69  55  95  96  64  75  58  85  80 103  84  87  87  90  84  68  72  85  95 124 109 117 119 119 118 119 119
  66  66  66  67  63  63  57  95  57  42  67  65  60  80  95  80  72  55 106  88  53  75  79  78  58  80  63  89  60  54  84  70  85  71  78  98  59  76  92  80  94  72  75  80  65  76  62 101 107  71 102  70  59  75 103  97  88  91  81  90  71  57  77  84  69  74  68 100  59  94  50  86  78  65  66  82  97  70 114  84  80  90 107 105 105 103 110 116 118 118 119 119
  68  65  68  63  63  64  74  25  18  57  55  77  53  67  62  61  85 103  85  62  73  93  73  73  67  60  70  75  53  66  70  71  81  56 104  66  56  59 109  76  71  99  70  72  76 104  42  56  94  82  94  68  85  74 100  94  37  90  90  63  68  48  90  37  68  86  77  95  77  57  65  70  92  68  77  90  81  71  62  68  78  84  79 109 105 105 119 113 121 119 117 117
  68  60  65  66  64  52  27  11  27  78  28  65  49  68  71  65  87  76  75  75  91  88  70  83  63  60  78  83  55 103  83  76  51  93 116  34 112  83 110  33  85  90  68  61  78  84  56  81  85 100  79  83  69  56  73  90  63  82  77  79  46  77  67  48  80  72  78  92  91  64  90  84  92  93  89  73  94  84  73  95  84  91  55 113 118 127 108 123 123 118 112 112
  69  70  75  61  34   7  14  16  15  14  60  40  91  75  78  69  83  67  91  94  83  86  75  70  69  63 110  44 127  28  86  72  82 104  85  67 105  94  83  68  52 102  51  66  64  94  68  69  67  97  67  59  85  95  60  92  71  94  46  94  42  66  49  84  70  67  83  90  80  84  81  85  91  89  77  75  94  86  76  84  86  93  87  65  56  91 138 126 117 119 122 122
  69  53  40  13   8  15  18  22  28  52   5  58  55  70  69  68  59  59 109  87  73  85  73  54  65  64  74  70  99  23  67  91  75  90  87  82 124 106 108 103  69  68  68  67  76  32 106  21  90  73  69  74  81  60  78  63  79  95  69  73  78  51  77  61  68  77 101  85  65 107  56  65  81  75 104  73  75  93  75  87  92  95  64  75  75   4  35 107 127 140 134 137
   4   9  14  19  17  16  23  17  14  17  41  59  66  61  79  51  64  70  78  90  75  78  92  61  66  60  75  81  98  47  91  78  65  91 126  98 113  96  84  91  46  64  73  66  74  64  54  81  55  78  58  75  69  57 103  71  78  69  97  64  97  66  57  93  76  75  73 118 114  54  77  75  67  88  75  97  74  87  94  60  79  69  59  96  61  30  25  11   8  28  63  89
  16  19  18  17  17  15  29  25  18  26  14  68  47  78  55  87  62  89  71  80  80  70  74  59  68  70  55  86  47  99  84  68  61  62 112 100 121  92  77  78  68 105  85  54  50  59  56  85  53  60  59  66  69  68  70  81  93  66 107 102  76  75  74  65  94  85 100  75  76  62  98  90  89  88  78  89 110 102  89  85  92  55  84  65  84  25  22  27  27  17  10   0
  16  18  16  16  17  18  20  21  12   9  48  57  54  90  74  94  74  81 116  78  62  81  54  58  77  53  90  88  88  94  74 100  60  71  59 108 104  82  74  76  83  79 116  77  81  75  48  69  73  41  85  86  49  75  57  54  78  91  78  79  75  74  92  52  93 100  61  58  81  75  92  64  83  88  88 103 102 110  75  86  90  66  58  97  32   7  25  21  27  26  23  19
  15  15  14  16  14  19  25  20  21  44  24  75  63  75  71  85  91 102  92  86  71  72  66  71  58  68  68  73 103  50  83  81 102  91  45 138  99  38  79  98  88  89  61 104  67  74  67  66  62  54  74  59  72  65  68  58  73  72  50  96  67  81  98  78  80  64 104  47  99  66 101  74  99  99  74 103  75 110 102  91  95  69  94  70  61  58  29  24  23  22  24  26
  19  15  16  16  12  13  17  13   8  20  45  61  61  94  75  68  65  79  75  99  77  74  91  60  65  97  81  86  40  84  98  60  84  74  53 118  99  63  73  83  67  82  99  77  54  78  64  31  73  40  60  43  52  70  85  57  91  59  68  67  76  66  86  85  79  71 105  59  78  96  71  99  92 116 112 104  94  89  96  94  78 102  36  56  73  27  27  19  25  25  25  33
  16  16  18  19  14  13  16  13  23  20  48  51  56  87  85  70  76  65  78 106  70  99  68  59  78  92  81  78  65  89  74  76 125  59 123 126 119  61  66  82  75  90 103  80  92  91  64  68  52  90  50  40  70  75  65  62  82  62  97  28  91  68  73  98  81  60  84 119  75  72  88  76  85 101  99  94  84 101  78  64  95  78  67  35  56  62  20  21  21  22  26  25
  20  16  18  18  16  16  12  18   8  19  34  32  96  86  66  89  82  74  70  89 121  81  74  78  82  76  76 106  85  93  82  91 108  56 111  77 119 111  67  90  67 105  86 106  94 114  56  68  91  58  62  74  33  81  66  70  41  71  82  60  78  96  97  55  96  72  81  95  60 101  71 110  99 117  74  92 104  96 118  97  35  87  53  51  17  54  26  19  21  23  24  25
