P2
# Generated by OpenCV 4.2.0
92 112
255
  42  45  46  51  52  54  51  46  45  46  43  47  49  45  38  36  27  38  45  43  40  37  34  34  30  37  44  40  34  44  38  43  49  44  45  60  35  49  43  28  30  31  49  49  54 110  57  57  56  53  49  44  45  56  45  75  51  61  80  68  68  86  61  52  57  71  61  62  64  59  42  50  49  41  51  42  45  42  44  45  47  45  46  48  44  46  50  50  51  50  51  51
  42  42  45  48  51  50  48  46  46  46  44  46  52  46  44  34  28  33  27  29  29  33  36  26  26  35  28  34  46  46  92  39  72  47  45  47  41  53  49  45  42  29  33  75  38 108 122  45  60  48  61  46  52  56  46  70  81  81  66  71  78  68  67  58  56  54  27  40  45  59  49  41  44  49  48  53  44  44  45  48  45  46  46  45  46  46  48  51  51  51  50  50
  41  45  44  47  50  49  46  46  46  46  44  50  51  55  40  35  28  32  21  30  42  24  35  33  35  37  37  32  40  64  74  59  47  59  43  51  46  37  55  14  20  17  43  68  39  35 116 134  42  61  62  65  57  53  69  56  79  94  78  79  78  61  69  49  45  37  51  71  58  29  37  51  42  47  41  52  54  46  44  46  44  45  45  45  47  46  48  51  51  51  52  53
  42  46  45  47  51  49  45  44  45  44  46  54  55  52  32  35  34  35  20  23  40  53  36  40  34  40  43  25  55  64  56  46  42  54  59  47  23  35  49  57  58  71  65  51  56  30  72 105  69  79  71  59  76  51  44  35  70  84  90  70  85  52  63  39  59  63  64  76  51  49  51  45  35  42  33  25  48  46  43  46  44  45  45  46  46  45  47  51  51  51  53  54
  45  46  45  49  52  49  46  47  44  45  43  57  55  36  30  38  43  16  30  35  27  65  68  49  48  41  43  41  48  68  70  45  53  50  56  49  39  39  45  57  82  54  60  62  53  67  53  95 109  80  79  75  80  50  43  67  70  82  91  69  82  43  51  57  72  68  77  50  34  34  31  30  44  54  50  38  33  53  48  45  45  45  44  43  48  46  50  49  49  49  54  55
  45  47  46  51  51  50  45  46  45  42  48  57  56  39  42  31  34  29  18  43  41  56  95  71  57  73  56  44  38  60  68  63  54  59  58  49  59  71  92  90 109  99  71  68  55  45  60  97 113  89  73  90  71  59  64  59  83  62  79  76  80  39  69  61  67  73  71  35  35  33  37  39  22  35  48  41  40  55  47  47  46  46  45  45  48  49  50  50  50  50  54  54
  45  45  49  49  51  50  45  47  44  43  37  42  29  14  24  46  42  38  51  54  75  53  88 105  85  93  80  72  62  61  79  73  78  61  52  75  99 116  90  83 115  99  63  88  60  81  37  86 102  82  75  93  96  80  71  88  94  78  68  77  91  68  30  85  85  92  69  37  36  39  34  37  30  17  35  47  33  52  53  50  47  48  47  46  50  50  51  52  50  50  53  55
  46  47  46  50  50  47  45  44  42  41  34  33  12  24  23  24  52  50  50  75  75  85  99 102  87 105 107  88  92  89  96  94 106  96  76 102  89  83  99 129 118 109  72  82  58  77  65  82 120  90  90  96  67  91  57  67  75  66  64  97  89  58  48  94 101  58  53  61  39  42  35  44  35  28  27  35  53  46  54  48  46  50  46  51  48  51  50  52  50  51  52  54
  46  47  47  50  51  50  45  44  42  41  35  14  20  18  22  34  46  68  68  54  77  87  90 109  95 126 128  78 106  95 112 108 103  89  72  79  94  61  88 137 125  88 135 101  35  37  85  69  88  98  89  82 123  58  74  65  73  78  64  92  80  62  88 110 100  91  92  62  57  51  59  46  45  38  41  31  35  42  49  49  45  50  47  46  48  51  50  53  52  52  52  55
  47  47  48  51  51  46  45  45  45  39  31  28  17  13  16  26  34  63  90  77  74  91  88  92  83  84  87  96  90  67 118 108  87  46  67  67  52 104 117 128  86 104 101  59  55  75  84  65  83 101  97  88  84  84  70 102  71  72  68  83  72  70 105 101  97 108  98  79  89  76  56  57  38  37  33  30  36  37  45  50  47  52  49  48  48  51  51  53  56  52  51  55
  44  45  47  49  51  49  45  50  42  27  17  11  20  28  36  38  44  67  72  96  89  83  89  87  72  93  81  82  77  99 138 111  94  69  57  87 100 134 129  87  93 109 103  58  95  85  73  79  73  94  78  91  59  59  81  76  70  72  59  77  66  79  95  79 108 117  98 114  88  77  72  59  49  44  40  36  39  29  41  54  49  51  48  51  47  50  50  53  56  52  53  55
  45  45  47  50  52  51  47  40  37  19  23  20  29  30  33  20  44  87  77  98  96  96  96  74  78  74  74  61  86 116 109  91  82  79  81 101 103 102  91 115 124 106  72  95 101  78  58  67 110 110  93  70  56  80  91  64  81  77  66  66  82  80  71  91  91  94 106  84  95  70  83  89  91  70  49  44  33  41  33  35  48  43  49  46  47  49  49  53  56  54  54  55
  47  47  48  53  52  47  46  30  36  23  21  26  31  34  35  40  49  82  81  90 104  97 103  81  71  78  69  88 106 122 123  92  94 104 118  92 109  90 118  93 115  93 138 129  88  75  99  95 121  65  52  82  93 111  85  95  88  84  75  80  66  83  80  75  66 100  70  46 119  59  80 110 100  72  63  49  40  32  39  32  46  54  46  47  45  45  47  51  55  56  54  55
  46  48  50  54  51  48  42  48  38  28  27  37  51  66  74  74  83 105  85  63 103 104  91  95  81  70  95 101 119 116  93 108 106 126 107 114 112 112 122 122 138 184 131 135 101 104  95 125  91  91 115 118 104 116 102 109  98 106  96 101 106  85  75  85  64  65  49  74  85  58  74 130  79  59  62  77  54  36  21  29  28  37  55  51  48  47  49  50  55  58  56  52
  45  49  53  47  51  49  44  58  36  62  59  40  42  88  78  53  61  94 104  90  89  98  86  96  97 105 128 144 134 130 117 116 120 129 124 120 111 111 108 123 122 109 114 143 121 123 117 108 101 126 131 119 126 125 124 117 116 111 111 109 109 110  99  89  72  59  67  67  82  41  79  86  51  53  87  93  65  50  35  42  23  21  39  67  58  48  52  48  54  54  56  53
  45  48  52  44  52  56  48  54  46  29  40  73 103  90  90  81  69  86  89 103  92  94  93  89 108 131 140 143 151 135 143 139 159 154 144 152 144 125 126 129 113 117 128 166 137 132 123 141 147 129 145 130 136 130 133 132 126 128 130 123 120 115 111  99  73  55  54  77  55  53  77  60  40  66  67  77  70  49  46  43  43  26  23  38  75  65  52  51  55  55  55  53
  44  44  47  54  57  51  62  49  48  69  89 101  96  91  81  77  64  65  89 101  99  98 105 124 137 156 145 154 156 161 155 169 175 165 159 169 170 161 145 140 145 146 158 152 159 143 150 145 150 161 140 149 154 148 133 131 133 136 139 139 134 132 127 116 110 104  78  50  55  59  54  65  42  65  91 100 104  92  65  34  30  28  28  25  33  58  51  59  58  55  55  54
  40  45  46  58  59  57  62  51  63  86 109  82  72  84  84 102  55  53  62  95  91 121 131 145 148 161 153 161 165 172 164 176 186 184 185 177 190 167 168 163 180 175 171 181 164 173 157 155 155 155 152 158 154 154 156 153 144 140 145 147 147 139 134 130 134 119  98  77  61  59  25  52  25  56  91 103 102 105  88  60  28  31  34  29  34  44  66  54  54  59  54  50
  44  45  50  51  53  48  53  77  97 107  78  89  76  91 109  66  63  61  71  98 119 142 145 153 158 161 160 165 172 175 183 186 187 192 185 196 196 185 173 198 198 194 191 186 185 181 182 175 173 178 164 170 165 162 167 162 156 151 156 155 154 146 144 138 140 142 124 100  74  48  37  55  40  30  19  40  41  25  36  49  46  36  31  14  18  28  54  58  58  57  63  50
  45  44  47  49  53  52  80 105  94  89  80  75  83  83  92  49  52  62  91 120 145 149 152 161 164 163 163 168 171 176 179 189 193 192 187 195 194 190 188 196 198 194 205 193 197 187 190 187 181 179 169 182 174 172 167 168 161 153 156 148 153 145 147 144 143 151 148 140 108  87  66  63  64  61  89  87  75  52  45  16  23  23  24  25  16  22  38  61  63  59  47  56
  47  46  41  53  45  78  88  80  58  65  59  83  94  80  52  39  47  80 110 145 156 149 158 161 158 165 166 170 173 179 183 185 193 185 190 195 191 193 191 193 206 196 207 198 193 190 194 198 184 184 183 181 170 163 175 165 161 154 153 146 143 148 149 144 137 143 146 141 139 124  95  93  84  92  99 126 119  69  82  47  41  17  25  22  17  16  25  49  59  59  48  55
  45  38  34  57  52  49  61  57  80  86  98  90  82  63  57  42  61  84 130 153 155 154 161 161 161 163 169 167 170 179 183 185 194 189 185 189 193 198 198 195 197 195 193 194 191 191 187 182 187 184 185 180 172 169 167 162 161 157 150 152 152 146 150 144 143 145 150 148 148 129 116 100 109  86  70  90 109  94  55  32  44  36  16  13  19  11  18  32  52  55  60  56
  35  23  43  39  58  62  79  87  85  89  86  64  60  53  43  53  64 111 148 155 152 156 160 158 158 163 164 171 177 181 182 185 184 186 191 197 191 194 198 201 204 197 197 193 194 186 181 193 194 186 182 174 170 170 163 161 162 160 144 149 153 145 147 140 137 140 149 145 143 133 128 124 120  70  81 114 101 102 113  91  49  30  18   6  10  17  10  21  52  48  57  58
  34  32  38  40  60  76  75  67  71  72  48  60  54  43  38  72  84 138 150 154 149 157 158 152 152 159 170 171 175 182 187 188 190 189 188 198 201 198 201 204 208 204 198 203 188 194 192 199 184 182 182 179 174 170 163 157 156 158 149 146 151 150 144 141 135 135 148 143 142 137 123  93  71  89  78  80 107 101  96 110  89  31  30  19  15  17  10  12  48  46  53  51
  11  31  39  59  54  60  63  75  36  51  54  42  50  50  55  66 107 146 154 151 145 153 154 152 155 162 164 172 175 183 180 192 190 192 187 195 198 197 206 207 204 206 207 199 201 198 195 189 189 188 187 173 172 164 165 163 156 156 152 150 147 144 147 143 137 131 146 141 145 136 127 110  93  62  68  82  75  80  78  91  97  74  55  34  32  18  22  11  37  40  40  45
  33  33  32  40  57  48  44  58  53  41  34  50  46  36  58  77 129 146 152 145 147 147 146 153 156 165 173 175 177 187 176 183 191 187 194 195 202 206 210 213 211 215 218 208 203 200 195 195 193 195 182 182 177 165 164 169 160 161 153 152 146 146 144 141 142 137 148 143 143 131 118  98  88  71  87  93  93  66  75  63  76  76  57  33  36  31  19  16  25  46  46  35
  27  40  27  41  28  50  55  62  52  45  41  47  62  54  78 105 133 147 143 148 148 148 152 152 158 164 169 180 182 181 187 183 191 197 194 202 202 203 210 208 213 218 208 218 204 208 201 204 196 191 186 178 176 168 167 161 162 160 154 147 143 146 141 143 146 137 144 140 143 138 117  97  87  78  71  89  91  83  92  90  54  79  99  67  43  46  31  21   7  36  42  48
  27  33  28  32  55  57  72  57  56  62  60  70  46  48  94 113 137 140 146 146 148 151 150 156 161 167 171 177 185 182 186 191 196 199 199 198 195 215 217 213 212 231 218 206 208 193 205 188 198 191 185 188 174 169 166 166 156 153 159 154 139 145 150 142 134 141 138 142 140 131 116  91  78  70  61  64  76  90  88  94  81  69  85  83  61  45  43  41  18  27  31  36
  28  63  76  73  74  55  25  35  28  59  41  44  49  71  85 117 136 142 144 144 149 152 154 167 161 164 168 179 180 185 198 195 198 202 202 207 210 210 212 220 220 204 216 218 211 202 209 202 205 197 191 181 174 168 170 167 166 151 154 153 152 150 133 148 140 145 143 140 139 131 117  93  79  63  54  47  77  66  81  74  69  73  77  68  74  52  28  30  19  24  44  23
  88  60  46  45  47  43  40  35  45  49  27  35  50  50  70 108 132 141 147 143 151 150 156 165 161 170 174 178 192 181 194 193 196 200 204 198 197 203 199 202 206 216 212 211 208 218 200 212 201 195 189 180 180 177 167 163 164 160 151 148 157 146 145 148 144 143 141 133 132 126 113  94  81  58  59  63  67  61  56  85  77  66  50  60  98 102  74  44  25  26  37  31
  45  32  36  35  68  36  38  48  56  65  45  37  37  53  87 113 134 143 145 149 155 150 150 163 168 176 178 180 189 190 199 202 195 203 207 205 207 220 221 216 224 219 217 213 205 212 203 194 201 192 184 180 175 173 167 167 161 157 156 153 155 147 141 148 146 143 135 131 131 127 107  91  74  58  44  61  65  90  75  69  62  74  65  70  61  49  60  63  51  23  30  34
  37  47  34 114  23  43  50  78  79  69  41  52  46  56  81 113 136 143 148 154 151 155 158 163 167 175 179 181 184 189 191 197 201 197 205 207 210 211 219 209 214 213 214 215 207 208 207 204 192 190 187 180 181 175 163 161 157 158 155 159 149 150 143 149 146 143 134 130 128 123 100  93  74  49  45  35  69  85 105  67  80  59  75  79  77  46  22  42  57  35  33  31
  26  50  48  66  46  86  49  24  22  24  41  36  43  64  87 115 131 144 148 155 157 158 160 163 160 173 170 178 179 179 186 185 199 200 190 199 210 213 213 210 213 217 207 209 210 204 205 198 194 191 193 185 179 180 169 168 160 156 156 159 155 155 148 149 147 134 133 129 124 130 109  98  88  46  48  39  64  61  60  68  49  99  60  79  79  67  53  41  47  39  43  29
  27  41  59  22 101  45  31  20  45  34  29  26  46  54  86 120 134 145 143 154 157 164 165 164 175 170 167 182 186 192 192 198 201 205 199 201 207 209 205 213 211 212 214 208 203 203 207 194 200 197 197 189 185 177 167 161 158 159 160 160 162 156 152 144 138 138 132 136 115 126 110  98  79  60  32  50  36  78  49  43  21  80  75  37  56  56  50  41  50  35  42  32
  29  42  35  32  71  38  43  57  38  47  38  30  55  69  96 122 130 138 139 156 159 167 162 169 171 171 170 181 182 189 198 204 207 200 203 200 205 208 210 208 212 211 208 203 204 211 203 205 210 199 200 190 186 172 168 164 162 161 162 162 160 154 152 145 141 137 130 126 124 118 119  87  86  65  43  29  50  30  44  35  28  50  70  45  15  49  50  44  58  34  28  43
  29  41  26  66  21  43  57  57  78  54  40  29  44  65  95 123 129 138 144 157 167 170 167 165 166 167 179 181 192 192 194 203 209 206 212 210 207 207 213 210 209 210 201 199 202 201 204 193 200 203 197 187 188 174 169 168 165 161 166 163 161 154 149 142 143 140 129 119 122 124 112  97  67  57  45  31  27  31  47  36  46  36  72  80  53  38  66  54  42  40  21  47
  33  36  18  36  18  59  60  75  57  69  50  49  48  59  92 117 130 137 143 152 165 169 173 162 165 172 170 188 187 189 198 202 200 198 191 196 198 200 199 200 199 203 214 214 203 204 201 213 209 204 198 194 192 179 179 177 170 167 169 164 165 161 152 142 138 141 130 119 119 116 109  97  77  70  38  39  23  41  36  32   3  16  67  94  57  22  29  50  35  36  28  39
  32  26  33  20  28  52  64  56  55  54  47  32  40  52  98 116 123 137 150 155 164 163 166 164 169 169 177 186 189 198 204 201 210 209 205 204 209 211 205 205 213 199 209 213 211 209 208 210 212 206 200 199 190 185 177 180 171 169 169 166 162 156 155 143 136 137 125 124 121 115  97  98  80  68  48  25  28  53  57  35  17  28  32  81  50  43  24  38  42  30  45  27
  35  26  61   4  50  42  49  20  41  55  47  44  49  49  91 127 119 135 144 151 161 168 167 168 172 174 181 188 192 199 200 206 213 214 212 209 209 209 210 211 211 207 203 208 209 211 214 209 214 208 202 202 190 190 183 182 180 171 171 171 170 162 154 141 136 134 129 127 121 115 110 106  90  72  70  21  41  58  74  49  33  33  27  38 116  68  27  34  33  34  49  15
  46  25  64  17  49  49  48  30  32  36  49  30  40  37  81 119 118 134 141 148 158 167 164 174 174 174 187 188 192 192 200 204 212 213 213 212 210 213 213 214 210 217 213 216 211 208 214 211 210 205 200 198 193 188 183 185 177 178 176 170 174 167 158 146 134 135 127 133 125 108 103  96  84  70  57  41  35  64  74  58  34  37  22  15  44  42  27  32  40  39  42   5
  44  30  46  38  41  48  19  26  10  12  33  23  27  45  78 112 125 124 143 152 169 170 171 175 182 178 186 188 192 193 197 205 209 215 213 216 213 217 215 215 216 216 213 214 211 217 213 206 206 199 199 192 189 188 178 186 185 186 181 182 179 172 159 152 138 134 130 119 115 118 103  96  86  66  58  34  33  30  30  58  55  29  25  37  55  47  16  34  41  39  41  13
  38  29  33  41  38  30   4   5  13  11  35  24  39  43  88 112 120 124 134 167 163 180 176 176 184 185 191 187 190 187 195 202 203 208 204 209 210 214 214 209 211 218 205 213 206 205 204 206 201 196 196 195 193 186 186 180 186 173 162 150 157 158 151 143 138 123 121 115 119 112  90  89  89  63  63  33  34  50  47  32  34  38  12  26  61  12  50  32  38  38  45  17
  39  27  36  33  24  16   5   4   1   1  31  29  31  46  91  99  77 129 120 156 176 184 176 184 184 187 189 189 192 191 191 198 197 200 201 207 208 212 207 209 207 211 206 207 206 196 198 200 198 190 195 195 187 188 184 176 159 159 137 129 130 118 121 124 117 118 117 127 121 100  97  96  94  79  71  24  32  49  52  46  56  45   8  15  51  16  46  34  31  28  43  20
  36  24  36  23  21  10   4   6   4  15  15  32  65  62  96 107 128 106 117 119 136 166 151 162 184 191 191 186 192 193 193 192 199 199 192 199 198 200 200 202 204 209 198 209 198 198 192 192 187 187 177 158 153 146 144 143 142 145 126 118 111  91 107 106  92  83  94  93 117 109 101  95  87  77  69  26  32  47  59  78  35  56  41  24  41  22  22  43  20  31  40  24
  39  20  29  19  13  20   7  22  88 111  64  50  57  64  93 109 127 102  87  83  81 105 116 161 149 163 179 172 172 186 187 186 198 195 196 196 200 201 196 199 201 203 200 194 195 191 184 180 172 147 152 133 122 119 112 123 138 132 133 132 143 146 113 111 112  90  80  93 109 113 105  94  95  92  51  48  35  31  20  28  35  49  30  16  30  37  21  39  20  32  34  29
  40  30  24  20  14  19  22  81 134 132 117  59  61  59 106 110 119 106  81 108 113 139 132 149 127 145 126 149 133 138 155 166 174 187 174 188 194 197 193 198 200 201 201 188 186 182 175 157 149 136 115 121 123 116 143 130 117 131 138 149 147 151 138 128 113  98  79  84 116 107 110  98  99  85  82  40  33  32  32  28  38  53  58  20  16  25  19  27  26  33  34  29
  28  40  17  15  16  16  22  78  78 123 116  58  70  79 106 109 110 103 101 116 120 126 126 120 123 138 139 131 126 109 119 125 142 151 167 175 180 191 190 200 206 200 190 178 175 162 149 141 127 122 123 121 119 123 133 126 137 132 142 151 153 155 157 150 128  99  82  87  94 102 101  92 102  94  51  41  33  57  54  46  49  59  71  29  15  31  14  17  30  28  30  43
  25  36  15   9  10  20  30  92  70  62  80  49  67  70 110 107 111 110 122 123 131 125 133 123 127 137 113 101 121 119 110 112 109 123 132 142 165 169 182 202 209 206 190 174 159 149 127 127 127 108  89  53  31  45  55  50  52  60 130 146 162 148 154 143 143 134 114  90  98  90 107  98  95  95  58  67  54  63  56  49  43  56  66  33  21  22  21  24  23  28  33  37
  28  22  19  16  25  20  31 101  82  81  55  47  81  94 112 109 108 107 146 123 135 140 133 138 134 116  95  75  56  46  32  44  75  94  96 110 131 168 192 198 206 200 183 165 137 114 113 111 104  97  64  79  97 131 126 136 133 138 102  60 106 139 142 133 148 130 119  94  96  99  95 101 105  93  94  67  41  71  50  43  27  54  75  21  14   4  10  25  20  27  36  40
  30  18  17   8  21  16  21  91  96  82  71  67  71  76 113 107 101 103 116 141 143 146 124 136  75  95 126  99  99 105 101 101  64  62  90  76  89 135 170 196 211 203 177 155 114 108  96 117 107  82 111 126 122  78  57  79  51  96 153 134 104 105 115 132 116 117 127 108  96  93  98 101 112 108 110  84  42  55  44  58  36  52  72  17  17   2  16  22  20  20  48  35
  29  24  12  10  13  13  36  89 106  99  87  74  73  98 109 105 113 107 111 124 133 140 113 104 149 110  68  70 139  64  56 101 111  88  85  82  73 111 171 191 206 201 192 156 101 108  76 118 112 125 120 137 174  82  82  27  59  72 120 119 134 100 124 110 111 123 123 112 113  86 100 107  99  99  93  76  67  46  31  51  50  43  78  13  18  19  20  22  11  12  48  41
  27  19  11   8   3   4  37  88 120  99  85  57  83 107 114 113 118 127 120 134 134  87 111 102  85 147  64  71  10  22  92 138 134  86 113 124  80 115 180 196 211 209 184 155 112 114  90 145 126  98 113 175 184  89  78  20  55  85 139  73  95 132 133 128 123 122 117 114 109 105 107 110 101 111  70  79  64  46  53  60  62  44  84  12  27  12  28  18  28  15  41  40
  26  24  11   6   1   7  33  82 132 113  95  56  78 104 112 121 136 131 123  97 103 108 132  87  96 160 108  69  81  83  80 157 158 160 108 131 137 144 177 197 212 204 184 153 123 129 157 160 106  93 137 163 171 135  96 147  85 117 137 154 122 111 114 107 111 111 125 142 141 108 119 117  96 106  84  61  63  60  63  78  73  48  81  15  25  28   7  11  36  19  38  43
  20  29  11   7   2  15  34  55 139 121  90  65  69 104 112 129 132 123 111 118 113 116  96 124 156 163 162 116 119 114 156 167 154 134 153 161 151 156 189 195 211 200 178 165 137 146 140 149 173 170 168 174 187 182 183 185 176 166 152 134 123 132 127 129 127 131 139 150 152 123 110 118 101 102  81  66  58  50  70  71  86  48  70  19  27   6  21  24  33  18  22  38
  21  29  12   9  13  29  40  31 139 133  88  62  79 103 118 128 143 162 144 132 134 139 126 130 147 144 157 175 166 165 177 175 168 168 156 152 161 165 185 191 200 194 179 163 144 143 151 165 173 151 158 162 169 184 170 163 163 159 145 136 137 150 135 138 138 148 149 165 155 140 127 120  97 100  76  73  63  47  59  93  92  58  46  15  26  10  10  33  27  24  16  30
  18  23  15   6  10  18  32  24 124 133 100  64  78 104 122 136 146 169 166 158 154 136 148 150 156 169 162 178 175 173 169 158 159 180 170 162 164 175 188 194 196 193 182 161 150 149 151 155 180 186 167 151 146 159 163 169 163 149 141 141 131 142 145 147 148 162 173 176 163 138 130 117 103  91  89  76  61  43  51  67  98  60  28   9  28   3  19  37  30  25  20  32
  12  20  10  11   8  10  34  24  94 135 107  66  67 100 121 133 161 172 171 170 159 150 130 142 145 157 167 158 164 151 145 158 174 173 173 170 156 187 196 197 193 197 181 148 150 149 163 159 186 186 183 174 171 156 156 133 130 131 136 157 169 182 166 154 171 175 178 167 166 153 124 116 113  82  93  89  65  47  64  82 102  64  12   8  18  14  26  39  27  16  18  20
  12  23  11   9   8  22  17  21  50 136 100  55  54  98 123 140 155 165 179 183 170 174 168 152 144 140 135 141 153 167 178 187 187 185 187 169 155 168 188 196 198 190 171 141 146 160 152 164 167 183 198 193 182 178 174 179 171 164 178 173 174 178 171 177 169 182 182 177 159 153 129 113  96  86  94  57  46  56  45  91  92  42   5  10  22  22  37  34  21   5  30  10
  16  22  11   9   7  11  15   7  12 138  84  75  72  90 128 145 157 169 185 170 182 160 182 179 178 198 184 180 182 190 188 193 191 183 178 163 157 159 184 202 189 185 166 137 143 159 160 146 164 181 183 191 194 186 187 189 193 190 194 183 189 175 179 179 183 172 181 176 157 155 139 108  88  96  90  81  62  52  40 107  81  34   5  15  17  15  42  39  18  10  22  24
  18  17  15   9   6   8   9   3   3  96  84  30  71  90 120 138 154 164 178 193 168 191 177 192 187 181 181 182 190 194 187 196 197 191 175 156 152 153 183 195 190 180 165 138 147 160 154 147 156 176 185 191 195 196 199 198 198 195 190 189 192 185 186 194 171 177 169 170 165 150 137  99  84  76  50  70  52  44  54  88  74  29   2  20  35  24  34  36  32  28  24  24
  25  18  14  10   6  12   6   3   6  59  92  55  71  90 113 133 150 163 163 190 192 185 198 187 190 186 186 193 182 193 193 194 193 183 167 155 147 149 181 191 190 173 156 139 143 160 155 155 152 173 178 186 189 188 194 190 193 201 192 195 193 189 191 182 176 181 168 164 159 154 129  99  66  81  76  79  47  54  50  91 108  21   1  21  47  54  29  37  33  36  36  30
  26  20  14  12  11  11  13  15   9  33  96  49  64  77 115 139 159 164 173 184 183 193 193 182 189 192 186 188 194 191 200 195 189 183 168 158 157 160 181 190 191 172 157 143 140 155 152 153 156 177 179 185 191 187 188 190 192 188 188 192 181 200 199 186 173 170 171 163 162 148 124  88  71  76  85  40  49  39  39  79  88  10   1   8  43  47  47  34  37  47  43  46
  36  26  14  12  14  15  19  20  10  13  96  76  44  83 108 138 153 164 176 181 185 187 177 182 185 184 186 189 180 199 193 196 182 178 163 155 162 162 181 187 186 176 160 146 145 141 148 152 154 175 181 188 191 189 194 194 191 185 193 189 189 194 179 178 167 163 172 159 153 146 128  81  69  83  42  52  46  36  49  68  50   5   1   0  24  62  40  48  39  34  37  38
  38  23  12  12  15  16  23  26  16  10  74  63  55  67 108 141 154 159 166 174 185 191 196 194 189 189 188 198 200 198 195 185 180 175 164 138 157 166 177 187 191 178 163 146 138 125 134 147 152 168 182 192 192 195 191 194 195 191 191 193 186 187 184 180 173 164 164 155 149 143 121  84  62  86  41  39  35  41  52  63  47   8   2   1   1  25  58  49  33  38  29  30
  39  26  17  17  15  11  19  31  25  26  52  62  55  67 105 138 148 158 170 175 182 187 192 186 189 196 195 195 196 198 190 188 174 161 162 139 155 166 181 192 203 178 165 149 134 114 152 152 145 157 184 190 191 196 197 194 196 185 191 193 193 190 185 181 166 167 162 162 142 134 112  95  63  72  58  43  39  37  53  68  63   8   3   6   3   3  14  45  60  49  37  32
  33  21  20  21  25  17  15  28  35  40  37  57  48  57  99 130 141 159 167 175 185 191 188 193 194 194 193 192 190 189 196 179 155 164 169 148 161 164 177 195 200 181 165 152 141 139 172 170 157 140 161 188 193 192 196 199 198 199 188 192 192 183 183 173 166 164 159 152 142 131 124  82  64  72  39  45  28  42  57  65  72   9   7  10   3   7   9  13  32  44  55  60
  32  21  26  29  24  17  17  26  36  77  44  66  47  64 100 122 144 164 164 182 183 188 185 190 193 189 191 191 188 185 183 170 152 167 172 159 162 158 175 200 201 173 176 156 150 150 172 170 159 142 156 177 185 188 196 200 195 194 186 184 190 186 179 174 168 159 162 150 138 130 125  78  67  82  48  33  20  38  53  65  71  10   8   5  11   6   8   9  18  34  49  41
  31  30  27  31  29  20  24  35  28  57  50  59  60  71  88 113 136 151 159 173 180 185 188 191 191 185 174 180 179 177 161 154 154 170 172 159 165 171 177 198 217 203 170 160 145 159 163 161 157 140 144 177 182 187 187 195 193 189 188 186 181 185 179 173 167 155 149 142 130 119 109  77  73  76  63  28  54  39  56  69  50  15  27  17   8  12   7  11  10  25  36  51
  30  33  31  30  28  25  35  42  23  35  44  55  57  56  85 107 130 147 160 170 180 180 177 180 176 177 175 174 176 173 172 168 144 159 158 148 156 179 194 210 203 197 174 151 137 153 151 145 135 124 135 165 174 179 183 191 191 189 188 184 176 179 175 172 160 157 145 133 115 107 106  73  69  59  65  65  47  39  57  76  36   4  17  18  20  21   2   8   8  16  13  34
  42  34  33  37  33  30  43  44  32  33  26  40  57  46  89  99 118 133 153 164 170 175 175 175 173 169 168 167 172 183 168 167 114 102  97 137 134 166 183 182 185 184 159 126 117 136  82  77 110 109 116 178 188 178 187 180 188 189 177 188 183 180 174 165 156 146 134 132 124 108 108  78  68  71  63  51  60  44  53  65  10   5   9   3  14  18  10   5   4  10  25  16
  42  36  35  36  32  33  56  50  44  37  34  44  55  57  80 101 111 128 145 156 159 166 160 166 160 164 164 170 174 177 178 144 107  52  31  33 121 140 172 186 189 179 140 118  94  11  19  47  87  55 110 164 178 194 181 188 178 177 185 175 178 172 171 165 159 149 133 124 121 110 113  83  95  60  42  69  34  51  52  44   3  10   3   4  15   7  13  11   4  13   4  16
  37  40  41  34  37  58  57  46  46  54  35  46  34  28  92  98 105 119 133 147 154 157 153 131 143 163 177 168 165 170 166 138 113  86  62  43  55 137 156 163 155 150 134  97  26  21  27  42  55  86 130 164 178 183 192 189 182 166 170 176 167 171 170 160 147 141 131 127 129 112 108  82  75  55  64  62  64  35  28   6   1  15   8   6   9  28  15  12   5  11   6  15
  40  49  40  34  54  58  56  49  41  45  42  42  55  59  67 103 112 114 126 138 140 141 121 160 158 152 152 111 155 133 133 134 132  89  62  59  64 100 135 132 139 144 112  54  39  40  71  97 114 110 125 160 153 168 182 171 185 177 169 145 160 171 166 151 149 135 129 119 130 120 115  95  86  69  66  27  41  78  22   6   1  11  10  14  30  23  13  11   8  12   8   4
  51  46  47  58  67  67  56  38  35  35  35  47  66  55  63  99 118 112 123 126 137 118 156 150 151 144  96 123 107 119 129  97  93  87  55  69  47  51  67 106 118 119  64  44  53  75  64  75  91 123 107 136 138 152 144 154 152 158 165 167 128 164 157 153 146 121 130 119 139 106 108  83  82  73  59  56  43  20  17  11   5  15  21  37  28  17  34  14   5   8   2   6
  46  38  46  64  70  54  35  38  36  57  43  43  59  58  63  99 102 113 116 129 126 127 132 170 122  94  78  87 111  98 131 100  84  99  58  67  75  66  58  64  73  71  51  57  66  61  76  60  82  94  96 108 117 118 115 120 113 132 143 169 150 139 157 150 140 117 139 139 135  97 124  99  66  74  71  69  54  27  43  27  13  21  38  49  48  35  22  11   3   3   2   6
  20  35  53  60  46  38  41  31  36  53  39  42  45  38  70  91 129 113 125 126 133 133 126 135  78  83  86  87  97  67  92  69  91  53  68  84  74  94  63  72  75  67  60  65  84  66  81  77  60  90  88  85  96 107 106  85 117  87 116 117 139 141 156 153 132 125 131 138 130 121  99  61  94  87  50  32  54  29  33  19  18  45  73  76  51  24  12   5   7   3   3  13
  24  35  51  60  56  60  28  22  31  41  31  45  57  46  50  91 121 122 112 134 119 116 130  76  64  85  58  84  82  85  74  62  34  67  70  92  85  77  79  76  84  68  76  81  78  55  71  72  85  81  64  80  69  80  90  85  97  95  85 122 115 127 140 159 136 125 144 137 132 123 101  67  66  85  63  78  21  44  50  34  18  51  49  36  25  22   4   4   3   4   4   7
  30  32  52  73  64  26  18  18  15  48  42  76  41  28  69  96 103 118 131 123 114  99  94  75  97  76  99  65  72  66  63  57  70  50  66  59  93 103  80  73  90  98  88  85  88  67  81  66  79  80  59  60  93  81  67  77  70  68  79  81 112 110 126 141 147 103 136 158 131 121  98  67  99  52  63  42  54  61  27  29  27  13  28  28  21   7   1   2   2   6  18  39
  49  47  37  34  30  32  38  22  29  43  50  67  55  51  57  79  97  97 102 111 105  89  77  83  62  75  55  60  82  74  94  69  62  69  66  94  95  94  89  74 108 101  99 101  87  80  78  90  77  93  70  81  63 106  89  90  65  60  60  64  97  88 100 134 131  95 161 150 124 114 100  51  82  55  38  53  20  45  51  57  40  42  14   2  15   1   2   3   5   7  16  50
  66  72  36  37  45  50  35  32  38  57  39  51  56  47  34  62  91 120 101  94  90  85 105  62  68  62  32  42  61  79  73  68  76  68  90  98  82  86  97 109 141 108 105 101  81  85  75  92  84  78  80  85  81  79  90  73  52  83  59  62  73  90  88 111 140  95 138 141 133  99 105  41  77  61  58  47  66  38  71  41  33  25  54  24   3   1   8   4   4   8  54  17
  64  76  60  44  39  33  27  36  52  47  35  39  43  60  31  60 108 119 101  81  72  78  67  88  53  73  55  34  52  46  21  62  29  32  30  40  61  51  69  92 121 131 101 113 105 108 107  91 108  90  90  86  68  63  40  66  60  60  76  73  79  90  75  92 115  85 137 125 107  72  67  40  61  57  46  58  41  56  59  56  32  27  16  27   1   9   8   4  13  37  65  51
  67  62  58  50  47  32  29  36  50  22  45  45  40  49  29  81  73  99  81  81 104 124  85  64  67  77  59  93 117 101  86  56  82  73 109 123 118 103 111 112 110  91  86  60  60  48  43  31  24  24  39  29  33  36  47  35  47  66  52  55  61  75  58  94 108  87 103 128 152  92  61  61  64  50  27  52  57  50  57  86  48  37  33  17   2  10  10   9   7  26  25  49
  46  52  76  77  59  46  24  22  57  34  40  35  35  37  41  34  55  76  72  74  74  86  66  53  76  79  88 130 117 127 118  90 101 123 113 124 143 135 153 156 172 172 163 163 150 143 139 121 109  98  85  84  75  86  90  78  70  70  93  75  58  69  85  83  85 117 115 109  97  56  50  47  67  42  52  61  37  39  27  30  54  38  33  17  12  14  11   7  11  29  16  33
  35  60  61  46  46  50  29  32  50  54  45  35  49  61  39  38  29  65  54  70  87  52  66  67  71  64  93  85 129 145 126 133 112 112 113 103 111 121 113 125 116 122 122 126 133 129 136 109 111 106 117  98 108 116 105 118  78  75  71  99  72  76  76  82  75  97  79  96  58  78  66  39  49  37  43  60  57  30  60  33  39  45  24  23  19  25  21  13  13  30  32  41
  42  42  42  62  45  29  32  37  56  52  35  37  52  43  41  36  67  66  71  79  80  66  92  69 100  80  86 113 108 122 112 127 119 116 101 104 105 100 111 102 101 114 102 128 120 119 107 111 111 117 121 124 128 113  99 101 106 118  68  70  95  54  66  66  81 107  77  82  63  39  56  49  36  42  56  40  47  45  15  25  36  27  50  17  18  15  24  15  22  29  28  23
  39  37  41  37  47  43  43  43  44  38  75  59  23  53  58  38  47  83  60  67  70  72  73  85  94  93  95 110 104 104  99  92  92  99  91  97 102  93  88  91  89  85 108 100 103 110 124 117 108 113 131 128 117 119  76 101  86  78  79  58  82  89  50  59  67  96  71  59  47  47  44  43  34  35  39  36  30  44  34  37  33  30  56  28  12  19  30  19  21  27  32  23
  36  35  34  42  40  27  30  40  33  50  44  46  43  41  46  40  65  60  51  42  71  84  36  91  79  82 102 104 106 114 125 128 102 105  96  91  80  84  96  90  98  94  88  86 119 112 115 123 113 109 109 105 114  88 105  96  79  78  72  69  63  35  57  52  66  38  85  52  99  50  50  46  30  52  36  29  36  57  38  41  38  32  33  35  33  27  25  14  13  15  26  23
  35  34  35  36  32  38  28  56  76  64  37  38  32  40  52  52  72  37  49  55  83  60  45  66  90 104  85 105 102  83  91  82  81  93  87  76  90  81  79  75 112  86  78  96  91 101  99 109 122 111  89 109  94 106 101  95  90  81  59  75  48  54  64  54  61  68  96  79  74  78  35  21  43  32  38  41  22  26  33  36  19  29  21  18  19  16  16  14  10  14  17  25
  36  33  38  38  43  29  47  42  61  54  44  56  67  52  47  85  37 103  57  52  52  50  80  70  78  76  81  64  71  82 105  82  88 101  82  87  78  84  91  92 108 101  79  89  99 102 105  98  92  94  96 111  89  93  90  98  77  69  68  55  66  46  67  52  51  72  46  59  31  53  47  58  26  22  50  39  30  42  41  34  40  47  21  17   1   0   0   3   1  10   5  17
  37  36  38  33  25  20  27  42  41  44  44  25  39  33  55  48  58  59  60  30  68  53  71  79  73  75  77  66  93  91  82  88  99 100 105  94 103  88 101 106 102 112  75  95  99 105 103  99  97 103  81  87 105  85 101  83  96  68  61  60  56  52  55  31  41  70  44  66  46  60  27  52  41  37  41  41  27  31  21  31  37  20  19   4   2   0   0   0   1   6   2   3
  35  39  37  36  32  18  37  32  39  30  32  30  47  47  50  66  59  39  41  54  42  56  83  82  61  78  73  83  88  78  81  86  87  95 111 111 118 122 113 104 114 108  95  99 103  89 115  90  84  79 102  92  84  89  68  92  73  44  74  56  77  41  42  43  61  53  67  56  45  36  47  57  36  61  38  30  45  44  41  29  41  38  26   9   0   0   0   1   0   0   2   3
  35  32  33  33  36  16  34  34  47  29  30  33  37  60  41  32  42  43  50  47  58  33  47  45  52  63  75  97  63  71  91  85  84  85 110 119 115 122 102 113 133 109 102  96  98  98  95 117  85  87  89  70  80  78  73  71  77  41  57  68  47  77  64  45  38  67  32  57  40  42  35  26  39  42  34  56  52  38  57  43  33  17  18  20  21  16  10  20   1   1   4  19
  32  30  31  35  36  23  25  44  46  40  41  42  50  39  73  52  49  51  64  23  31  53  65  42  80  70  67  65  70  71  99  84  82  90  94 105 114  99  95 122 108 103 105 101  94  84  89  99  90  84  67 113  78  63  80  50  74  46  60  47  59  46  62  33  51  32  84  74  44  44  42  44  75  44  56  43  33  32  29  40  44  29  20  23  17  16  19  16  15  18  22  22
  33  31  29  34  38  41  32  37  38  29  53  54  31  51  50  81  60  47  61  67  58  67  60  82  66  71  73  77  64  77  82  89  81  92 100  93 107  92 100 105 110  99 103 104  88  80  94  87  80  80  52  74  55  76  66  66  56  55  63  53  74  36  42  41  27  35  58  47  65  43  26  43  38  31  38  51  48  49  26  29  33   2  10  17  20  19  19  20  20  22  22  21
  32  30  34  36  35  35  37  35  33  35  42  37  51  67  68  52  47  50  36  57  53  49  65  44  75  40  63  57  90  73  71  75  81  79  92  72 101  93  94 111  99 103  92  94  95  84  84  75  91  84  70  61  57  76  80  56  73  70  43  60  51  48  45  35  43  44  41  46  42  61  16  53  53  46  66  51  49  47  38  29   8  11   9  14  20  21  19  19  18  20  21  21
  30  31  28  32  36  38  34  33  33  31  35  45  58  58  71  53  45  52  45  54  81  87  72  67  64  69  65  71  54  65  61  71  58  84  83  79  79  93  95  98  87  91  95  99  99  83  79  87  76  82  57  69  61  52  67  57  50  58  55  47  46  45  48  57  51  31  49  54  71  57  46  34  41  48  29  50  30  32  41  42  20   1   0   1  16  19  20  19  19  21  18  21
  31  29  31  32  35  35  34  40  39  66  64  29  58  55  70  63  50  62  41  72  69  72  60  56  57  50  76  53  64  53  60  68  64  74  73  88  81  76  83  77  85  92  77 100  96  67  79  78  83  63  41  70  62  58  54  57  62  56  51  54  54  43  43  65  27  55  42  57  56  41  50  71  51  35  46  39  34  48  41  11  14   7   0   1   2  19  19  19  17  18  19  20
  31  28  27  31  34  37  36  29  27  41  31  39  49  40  60  38  33  52  64  64  59  58  43  46  60  52  80  70  71  59  74  62  68  66  75  71  71  69  82  71  82  78  90  80  76  75  66  64  77  59  50  66  47  56  44  54  51  60  60  52  32  36  48  37  39  42  42  30  39  31  52  31  62  57  39  42  40  37  35   5   7   8   0   1   1   3  16  18  16  19  17  19
  29  27  28  29  35  30  32  30  27  32  31  47  36  59  38  48  34  44  52  70  65  40  43  54  50  66  41  66  52  53  55  75  63  81  84  75  65  72  82  73  66  65  76  64  76  68  62  50  62  61  54  71  67  59  50  48  52  40  62  58  29  45  32  42  42  64  43  39  49  33  26  48  25  40  54  48  43  16  33  10   4   0   2   0   0   0   3   8  17  16  18  19
  29  28  28  32  34  34  32  29  28  31  32  32  58  62  50  58  49  56  53  54  39  87  63  52  54  64  72  60  48  64  57  76  72  51  70  82  79  69  58  67  68  52  68  71  73  64  69  53  70  58  56  55  59  52  50  39  43  43  50  56  38  45  25  42  54  47  48  39  48  68  58  52  50  68  42  39  47  32  18   0   0   0   0   1   0   2   3   2   3  11  17  17
  30  27  28  32  34  33  32  29  28  29  28  40  36  49  57  52  44  44  38  47  43  68  58  59  61  46  71  48  47  78  62  53  61  59  63  43  59  48  61  50  59  67  73  56  55  68  62  55  58  70  49  52  42  66  45  71  54  54  56  50  57  51  38  38  50  65  45  43  50  44  26  36  49  28  25  36  36  29  16   7   0   0   0   1   5   2   5   2   7   6  10  15
  29  28  28  32  35  33  32  28  27  39  35  37  36  28  38  29  56  39  53  54  58  50  47  74  52  62  53  50  70  50  61  48  59  57  50  55  74  56  57  47  53  55  56  46  55  57  47  53  44  72  63  38  35  52  32  67  44  46  49  60  66  35  52  26  45  35  54  48  41  50  62  41  41  44  35  32  34  37  32   0   0   1   1   5   5   4   6   6   5   6   4   7
  30  28  23  30  31  33  32  29  26  24  22  24  36  21  34  36  50  51  41  45  45  58  52  51  57  54  56  54  61  55  64  39  50  61  43  57  64  56  49  49  50  48  55  50  40  55  40  44  44  68  67  47  65  58  67  68  66  44  55  41  69  38  47  52  43  52  39  63  37  64  68  46  63  56  46  54  36  39  41   1   0   1   3   4   8   9  11  10   7  14   9   8
  30  26  27  28  30  31  33  29  20  13   4   1   0  16  31  31  34  46  50  58  41  55  54  54  33  59  63  55  60  43  70  41  59  50  45  54  49  54  51  50  42  61  56  57  41  60  46  44  47  53  58  63  56  59  47  64  28  63  55  40  48  68  46  37  44  36  42  49  45  64  85  65  59  62  59  50  39  50  61   1   1   4   7   8  12  12  13  15  12  16  17  17
  30  28  28  27  27  27  19   8   3   1   1   1   2   1  19  40  33  45  48  46  53  65  45  48  65  39  41  54  42  55  54  53  64  51  57  47  31  48  54  36  33  48  62  64  57  40  64  79  40  40  57  54  56  72  48  54  54  55  49  45  49  62  36  42  34  44  34  56  57  65  77  68  98  86  77  84  65  49  86   1   4   6   9  11  14  15  14  18  16  14  19  19
  31  28  27  21  11   4   3   2   3   1   1   0   1   1   3   7  39  47  43  35  62  69  62  48  34  43  56  47  42  44  43  52  71  57  47  64  36  34  73  52  42  33  63  48  49  51  55  52  46  60  58  52  61  79  68  56  46  42  40  31  43  47  64  56  60  47  50  46  44  71  93  95 109  92 104  98  94  71  93   1   6  11  12  16  15  18  18  19  19  16  15  18
  24  17  10   5   5   2   2   2   2   2   1   0   0   5   7  20   1  31  47  64  57  56  45  55  55  67  46  56  61  54  52  44  58  36  59  61  52  18  60  58  48  48  47  42  51  43  54  61  53  63  52  56  50  50  65  45  67  65  44  47  47  45  46  55  37  54  58  63  66  55  62  79  97 106 113  94 103 114 125  10   9  12  15  19  13  17  17  20  21  18  19  18
  12   7   7   4   6   5   5   6   5   3   3   1   1   1   4  18  89  37  36  43  43  53  72  41  45  53  69  29  51  59  40  51  52  48  40  46  64  54  36  68  46  51  50  23  47  59  44  40  52  47  45  56  49  42  54  67  72  53  50  34  43  50  35  50  35  67  47  71  56  76  87  97 132 121 133 111 120 117  91  11  12  15  17  20  18  20  24  20  22  22  17  21
   7  10   9  13  13   9  10   6   5   3   3   1   0   0   3  16   3  31  34  50  62  45  68  51  69  57  69  84  74  38  51  68  60  51  43  53  31  45  73  49  48  46  45  47  32  51  56  48  33  53  51  64  47  38  59  73  51  41  50  44  41  31  47  33  51  54  77 100  88  72  77  94 125 127 114 162 131 171  58  16  14  17  17  19  21  17  21  20  23  24  17  18
  11  12  10  11  12  12  11   7   6   4   3   3   1   1   1   5   8  38  52  51  61  70  50  53  44  52  54  57  57  47  62  60  53  69  67  40  38  47  51  46  35  43  50  57  44  40  46  63  29  46  44  47  42  38  37  61  60  50  38  60  40  37  31  55  68  87  86  89  68 100  96  98 109 142 148 143 152 157  33   8  18  19  22  25  26  19  25  24  23  22  26  20
  11  14  11  12  12  12  11   7   6   5   4   3   1   0  10   3  20  27  59  63  56  62  52  37  36  40  63  36  36  51  53  60  42  59  55  46  33  36  59  36  39  48  32  64  46  46  43  53  44  37  46  53  46  45  51  45  65  52  43  43  45  49  31  67 107  92  83  79  99  90  83 126 121 128 175 142 164 153  17  21  17  20  27  25  23  21  22  24  25  21  23  24
  13  15  11  10  12  12  12   7   6   5   5   2   4   1   1   0  23  45  64  61  73  65  36  51  59  66  52  45  48  49  51  53  56  37  59  41  55  53  42  68  40  50  50  53  53  42  33  53  50  47  53  57  49  55  40  37  71  48  47  45  47  36  51  49  59  81  87 108  89 110 131 125 138 134 163 167 155 170   9  13  22  22  29  18  24  25  21  23  25  21  20  26
