P2
# Generated by OpenCV 4.2.0
92 112
255
  40  41  39  39  41  41  39  37  38  40  44  40  40  39  38  39  38  38  39  38  42  41  41  38  38  42  47  43  54  62  57  64  63  56  56  80  66  72  77  94  97  93  94 106  77  92  93  55  84  84  73  95  59  59  77  85  76  82  64  90  69  70  66  78  59  52  50  48  42  41  41  41  38  39  40  42  42  39  41  69 151 215 212 109  61  55  49  46  52  51  47  47
  42  42  39  39  40  39  38  37  39  39  41  45  39  39  40  40  35  36  38  41  44  42  41  39  39  42  42  47  52  52  48  79  70  70  90  68  91  89  78  81  92  91  83  98 109 106  65  70  88  76  80  68  72  73  75  88  73 104 107  68  71  97  65  59  58  57  56  50  43  40  40  41  42  36  46  43  42  41  39  67  88 102  93  59  58  56  56  51  50  49  46  47
  42  41  39  39  38  39  38  36  37  39  41  43  42  39  38  41  40  37  39  41  44  41  41  40  38  43  44  51  55  54  53  64  46  41  60  87  76  93  87  78  83  94  86  87 100  83  92  84  79  62  63  75  84  79  86  78  67 102 113  68  57  93  76  69  66  73  80  78  78  71  63  42  46  42  34  49  44  40  38  74  62  38  39  53  55  58  56  49  48  48  46  48
  42  42  41  38  39  39  39  34  38  40  38  39  47  39  39  39  38  38  40  42  39  39  42  44  51  51  52  54  55  56  47  55  62  50  51 100  26 112  85  81  70  85  93  84  86  90  80  98  84  69  84  82  88  87  77  67  70  99 103  80  44 103  87  78  89  97  91  87  88  90  97  94  69  49  44  48  41  39  38  67  53  20  29  48  56  57  53  50  49  48  46  48
  41  43  41  39  39  39  40  36  39  40  37  38  45  44  43  41  39  40  44  39  42  46  56  45  43  43  48  52  42  54  58  66  55  57  56  97  51 100  94  83  79  69  85  66  64  79  89 107 112 125  74  97  99 101  81  77  77  89  79 106  56  90 104 106  96  97  92  84  79  72  74  62  62  75  55  43  37  41  42  67  53  20  20  46  52  56  55  53  50  48  47  48
  42  42  40  39  39  39  40  39  39  37  39  37  43  47  47  45  42  44  45  51  49  43  44  43  48  57  53  58  66  49  56  51  58  67  72  72  59  78  94  83  74  62  81  56  47  41  42  69 123 114 167  97  95  99 108  87  90  79  99 102  71  98 122  98  93  99  82  83  82  80  75  75  64  59  61  66  43  41  40  78  57  19  25  46  53  56  54  53  52  48  48  48
  43  43  41  39  39  38  38  39  39  39  36  35  40  45  52  50  44  52  54  41  48  54  48  37  38  72  65  66  69  54  60  65  63  69  80  79  83  81 104  97  56  64  76  67  64  59  55  55  69  88 104 160  94 100  88 108  85  96  91  64 118 115 111 108  99  87  97  82  82  79  66  73  83  77  64  58  59  42  39  93  60  23  21  45  53  55  55  53  53  49  49  48
  41  42  39  39  39  38  39  37  38  38  38  39  39  41  53  54  48  57  40  55  59  47  36  57  49  55  90  74  80  85  64  73  55  79  74  84  70  93  90 102  68  72  52  61  38  49  42  36  64 115  47 114 139  69  87 100  94 106  72  83 122 114 105 110  82  95  79  69  80  49  58  78  70  63  58  56  76  57  49  90  55  25  21  45  50  54  53  56  53  48  50  48
  42  41  40  39  39  39  39  39  40  40  38  39  37  38  46  58  69  58  53  58  50  52  36  39  66  68  78 112  86  96  78  76  64  58  81  74  69  57  64  84  88  53  56  63  76  77  77  67  94 103  66  53 126  92  93  92  97 107  75  67  97 137 100 111  98  76  85  64  80  70  87  89  44  49  53  60  46  77  57  75  44  16  19  48  49  53  55  57  55  49  49  50
  44  41  41  39  38  38  39  40  41  38  38  37  37  40  46  45  59  36  31  46  58  56  61  63  56  75  76 110 107 105 107  76  84  59  61  70  75  82  67  85  84  75  64  87  79 108 109  98  94  90  76  62 112 103  94  95  95 108  82  73  74 116 114  96  95  75  61  79  82  83  99  65  51  56  68  64  53  61  68  76  40  17  22  43  53  52  54  59  56  51  51  51
  43  41  40  38  38  38  36  36  41  40  40  38  43  45  46  61  31  30  41  42  49  78  65  74  76  77  87  87 122 104 107 108  92  90  74  82  87  83  95  81  97  88  90  94 115 113 102  98 105  76  88  81  95 107  89  94 104  97  99  77  94 101 109  99  86  68  72  93  92  81  91  49  46  39  38  64  61  68  67  92  49  15  24  48  51  53  56  57  55  53  50  51
  42  41  41  39  38  36  37  36  42  40  42  45  48  48  55  27  28  33  35  40  53  69  95  80  71  79  87  73 112 104 108 109  94 107  96  84  93  93 100  81  93  85  96  98  95  85  99 108  80  90  81  91  72 106  82  94  99  92 111  74  95 108 101 109  79  75  78 101  89  83  70  50  45  49  33  48  58  56  70  95  60  38  21  46  49  52  57  58  57  53  51  51
  44  42  41  40  40  38  38  39  46  47  41  45  51  60  43  39  32  24  26  35  45  51  80  96  77  70  79  90  98  89 104  96  94 103  95  88  94  88 106  94  89  87  92  73  94 131 124 107  74  94  61  81  88 100  84  98 106 103  81  83  91 102 101 104  97  76  99 100 105  90  75  65  68  46  47  43  40  59  62  73  49  40  45  51  50  53  58  59  59  55  51  52
  43  43  41  40  40  39  44  39  36  49  52  49  60  35  27  22  17  39  53  62  60  64  87  81  86  76  80  89  80  84  78  89  76  83  89  86  99 115 107  76  66  84  82  81 103 134 128  87 107  87  57  71  85 100  98 104  98 122  77  73  86 106  96  96  92  79 109 103  82 111  97  72  63  72  82  53  47  42  60  76  52  28  40  51  54  55  59  60  59  54  52  51
  43  41  39  40  39  41  40  35  48  49  52  56  41  36  21  22  36  39  38  35  32  53  86  78  98  89  66 100  77  80  74  78  78  87  81 113 118 102  85  74  59  73  94 114 129 129  94 109 101  77  64  94  84  99 100 100  93  95  90  90  99  97 101  98  82  92 118 107 113 131 101  99  93  73  68  59  56  52  51  66  49  27  30  50  53  51  59  59  59  56  54  53
  44  42  40  40  38  43  36  43  38  60  64  44  36  33  32  35  34  44  40  48  50  49  63  83  83  89  79  84  90  61  76  70  79  87 101 102 111  98  95  75  86  99 111 127 125  94 109 124  88  78  93 104  81 107 109 101  92  92  98 105  96  85 116  91  87 100 103 116 116 110 102 112 103  78  61  38  40  46  43  57  69  37  40  54  60  63  63  59  60  57  56  54
  45  42  40  40  43  41  38  40  56  55  53  50  44  41  56  74  80  79  85  87  74  66  70  77  72 101  94  90  87  94  86  86  96 102 117 115 120  94 104 105 103 119 111 115 106 128 127  94  71  92 103  85  81 109 112  98  80  80  91 107  91  82  97  78  74  98  81 101  95 119 103 104  88  66 104  85  84  65  49  50  59  65  53  64  57  60  61  64  60  58  58  55
  45  44  39  41  42  38  42  48  57  51  62  51  58  76  63  40  48  45  78  96  67  54  79  96  78  79  98  90 106  95  96 114 126 124 134 124 119 115 117 139 122 109 106 115 122  99 125 100 119 119  95  90 110 106 108  78  84 101 114 102 100 102  98  87  84  82  84  83 101 104  73 137  85  84 106 145  93  65  59  34  47  59  63  58  66  60  62  66  59  60  60  57
  44  45  39  40  41  39  42  51  64  64  51  88  59  27  51  84  72  85 116 103  85  64  66  87  94  89  91  89  96 112 120 141 154 150 145 148 127 127 128 149 128 126 118 129 101 148 157 180 161 115 110 102 112 120  91  97 125 129 124 116 125 113  98  99 105  95  86  82  94  86  83 102  78 117 147  98  61  50  52  29  43  32  67  73  59  63  64  67  63  61  58  56
  44  44  41  41  39  39  48  56  59  59  65  47  61  85  92 103 111 110  90  88  67  80  58  88  94  90  97 110 118 134 148 154 157 170 168 159 157 148 163 157 140 145 140 126 111 143 144 118 124 139 127 125 108 105 112 125 127 124 126 131 125 134 123 133 123 105  94  96  68  58  89  89  61  92 133  52  49  58  58  48  44  48  31  61  82  65  71  72  62  61  59  59
  43  45  42  40  39  41  47  51  53  64  61  58  71  56 113 112  89  52  65  83 103  54  54  70  87 102 127 137 143 154 169 168 164 176 180 172 172 177 176 171 171 165 151 143 132 129 127 149 150 163 147 124 125 134 151 153 142 142 137 133 145 144 145 139 140 119 104  87  57  71  70  74  55  92 101  54 109 113  92  68  68  61  38  32  77  92  78  76  65  61  58  60
  45  44  42  39  43  40  42  58  55  53  69  85 107 109 109  82  72  74  73  89  84  58  62  71 108 127 147 152 163 167 173 180 174 183 187 184 177 192 194 192 188 181 174 161 150 150 153 159 160 158 148 148 152 150 154 153 152 158 159 157 153 150 158 149 148 148 126 117  87  76  52  62  59  64  86  91  72  93 109  51  43  50  50  36  31  76 110 103  72  63  60  65
  43  48  42  39  43  57  60  46  56  61  74  95 115 105  79  75  71  74  80 106  63  55  82  98 134 153 163 162 173 176 184 182 180 185 190 188 194 195 200 202 198 196 189 174 184 172 181 179 178 173 172 166 158 164 165 162 166 171 167 168 162 152 162 164 155 152 149 144 122  89  57  65  67  38  63  66  82 100 117 101  73  56  48  45  39  39 123 139  92  73  64  65
  45  46  43  41  47  47  50  47  47  67  87  85  58  55  67  78  74  86  99  57  44  59  83 127 159 168 165 170 177 179 181 181 185 189 189 190 197 201 204 204 200 206 198 198 183 198 199 193 191 189 188 185 182 178 177 176 178 175 176 173 167 159 165 166 162 155 154 158 146 124  95  57  42  39  53  28  50  79  69  74  86  60  53  37  42  47 138 130  84  75  74  75
  45  46  44  47  43  50  32  38  57  71  68  91 108 106 111 107  93  84  57  63  56  64 103 152 167 174 170 175 178 179 178 182 187 186 189 195 200 205 205 202 201 207 207 198 202 201 203 200 202 198 194 196 193 189 190 184 186 182 179 177 173 164 167 166 165 158 156 164 162 148 120  88  68  55  63  81  91  78  68  38  28  34  38  42  32  39  44  87  89  69  70  70
  50  40  55  41  53  44  43  46  53  72  86  97  93  90  83  82  64  58  53  44  64  80 136 164 173 173 170 177 180 181 177 182 184 186 192 195 200 203 205 204 202 206 209 207 208 208 207 206 206 203 201 198 198 196 194 191 189 185 178 181 175 170 164 161 165 163 162 161 161 157 141 132  99  84  92  84  96 115  95  94  77  51  33  30  32  32  34  71  92  76  70  72
  50  48  49  42  51  26  34  49  63  58  77  71  88  88  58  46  43  52  48  50  72 113 156 172 174 172 172 177 177 176 176 181 185 188 193 196 199 201 202 204 205 205 209 208 211 209 207 208 208 204 201 202 194 196 196 194 191 186 183 184 178 175 168 169 164 169 164 163 163 159 159 140 124 106 103  91 100 108 119  97  50  39  53  43  28  26  23  46  84  85  82  70
  44  47  49  53  26  33  41  53  54  70  76  75  55  40  38  28  44  52  41  64  82 134 163 174 174 170 169 178 174 172 170 179 186 188 191 197 200 202 204 205 205 206 208 208 211 210 210 210 205 202 200 200 199 201 199 198 194 191 187 180 178 175 164 165 167 165 162 161 162 163 161 152 129 127 107  86 121 108 105 107  85  80  51  28  23  23  24  39  74  73  84  80
  49  45  55  38  36  34  46  41  47  48  44  58  51  59  41  37  43  29  34  72 107 149 168 176 170 168 172 170 173 173 173 181 185 190 190 195 197 203 204 203 204 209 210 208 211 209 207 210 207 204 204 201 201 201 198 195 192 191 182 178 177 176 170 167 170 167 165 156 158 166 160 155 137 103  92 100  66  86 124 129 118  75  50  41  22  29  27  23  68  64  69  79
  54  56  49  38  35  29  38  21  40  72  66  62  53  52  57  59  57  66  82  95 135 157 167 164 167 169 171 164 168 171 174 183 188 191 195 198 197 201 204 203 206 209 210 211 211 209 210 209 205 206 202 202 204 201 199 196 192 185 186 180 176 174 170 168 168 165 164 158 155 164 162 156 140 109  91  57  60  83  93  96 124 114  84  72  48  28  34  20  50  65  68  67
  48  44  36  43  36  22  66  82  65  51  39  22  25  34  49  32  61  61  60 104 143 155 156 164 170 169 169 169 171 171 177 184 186 191 195 197 196 197 205 205 207 207 206 211 212 210 207 210 208 207 204 203 204 200 198 196 193 188 182 183 181 174 170 168 165 163 166 161 157 164 161 158 144 113  79  76  86  71  76  71  73  96  91  71  48  48  41  22  42  67  70  61
  50  41  34  43  67  88  58  40  41  40  31  23  24  33  39  20  33  64  73 109 142 153 160 169 166 169 171 171 172 173 173 184 186 194 194 194 198 198 203 204 209 210 211 213 213 207 210 208 206 206 205 202 201 202 199 195 192 189 185 182 179 177 170 171 167 165 163 166 160 165 162 160 146 110  91  80  89  83  96 111 103  64  88  82  48  40  47  36  32  61  59  72
  59  61  57  66  57  47  39  44  42  54  37  37  41  45  55  37  35  59  70 109 131 151 161 165 166 168 171 171 174 178 175 181 186 193 194 198 204 206 204 207 206 208 210 211 211 208 208 210 207 204 203 202 203 200 197 193 188 186 179 179 173 177 169 163 166 164 160 165 165 159 158 160 143 110  87  73  69  99  94  88 103 101  62 113 126  84  41  57  41  46  61  68
  49  57  57  38  49  26  49  32 100  32  45  44  53  54  52  39  44  60  78 111 130 155 160 166 166 170 171 173 171 177 178 183 186 189 194 193 198 199 205 205 204 205 206 211 211 213 215 207 209 207 204 202 202 200 198 194 189 183 177 174 172 166 170 170 166 166 165 163 156 158 156 155 140 118  87  69  60  48  62  96 103 108 113 121  99  98  63  39  37  43  54  57
  58  55  47  33  41  31  54  50  41  52  48  27  16  24  26  44  43  58  85 111 131 154 160 169 170 172 169 175 174 178 179 180 189 192 196 198 204 204 200 204 206 210 211 209 205 206 213 208 205 203 206 201 200 199 197 192 187 182 179 174 172 164 165 168 171 164 156 164 158 156 152 154 138 112  94  64  51  79  79  69  81  81  77  65 103 132 120  76  43  41  56  66
  56  52  38  41  43  25  40  57  31  72  28  24  31  48  39  40  49  63  90 113 133 154 160 169 169 174 172 172 172 175 175 185 188 190 191 195 196 199 202 205 205 204 209 210 209 210 211 210 206 201 203 203 196 198 197 190 187 184 180 174 170 167 168 170 172 163 160 167 159 155 149 142 133 110  84  59  74  67  81 113  84  88  95  79  87  54  66  64  66  45  42  66
  67  38  30  44  42  32  34  25  63  34  39  53  29  28  44  35  52  71  80 106 137 157 158 166 169 172 175 175 176 174 181 183 179 182 188 188 191 192 203 202 200 206 207 210 203 211 212 206 207 204 203 202 200 198 193 190 181 181 178 171 169 165 170 172 172 164 158 166 161 150 146 146 125 101  82  65  46  48  58  96  71  96  86  86 107  80  39  33  53  50  47  60
  51  37  34  45  41  34  35  30  52  31  50  40  56  75  35  58  42  62  84 118 143 154 157 164 166 176 180 177 176 179 183 183 187 192 195 199 201 203 204 200 199 204 204 210 206 209 210 206 204 201 201 200 196 194 189 194 188 186 178 173 167 168 170 171 168 162 158 161 157 150 144 143 124 109  84  58  50  68  51  70  74  63 105  67  80  93  73  53  50  44  52  52
  41  39  34  49  43  34  26  43  23  48  43  49  43  50  65  44  66  63  85 117 146 152 153 162 168 176 178 185 182 181 183 180 183 190 194 200 204 208 204 201 202 200 202 205 206 208 206 206 205 199 200 201 199 199 198 200 194 191 182 177 172 171 170 173 172 165 154 162 154 149 141 144 124 109  87  52  47  41  72  51  38  39  83 101  30  64  77  51  54  39  49  48
  31  35  35  48  46  36  26  55  21  42  53  40  50  54  58  43  47  68  76 115 145 150 151 159 169 174 181 183 183 178 178 186 188 193 197 200 203 206 208 208 207 206 204 205 206 206 206 204 202 200 203 200 204 205 204 199 196 194 184 175 173 172 173 173 170 168 159 159 151 144 135 138 130 109  92  71  33  49  53  58  35  32  67  88  76  37  60  63  56  51  43  51
  33  28  43  53  45  40  31  50  33  32  62  22  31  48  48  50  53  65  79 115 148 149 156 160 166 171 182 183 183 179 183 183 188 198 200 201 205 205 204 204 204 203 203 205 202 203 201 203 202 208 207 207 204 204 203 203 197 192 186 182 177 171 171 176 175 170 165 159 150 139 136 137 132 107  84  58  44  39  38  43  38  33  38  86 106  39  46  63  45  49  43  47
  34  30  38  56  35  40  30  44  44  35  25  27  15  39  52  48  33  55  70 112 145 152 153 157 166 172 183 180 184 185 180 183 190 198 200 205 207 209 211 211 208 208 210 208 207 209 207 208 210 207 207 208 211 208 206 203 199 194 186 181 180 176 176 175 171 169 167 155 138 140 135 137 127 105  82  66  29  42  51  63  35  19  16  63  99  60  28  49  60  46  49  43
  40  35  37  57  36  37  26  44  42  37  15  13  24  20  33  35  35  41  72 110 140 149 150 161 163 174 181 188 185 186 186 189 192 195 201 204 205 208 213 216 213 208 206 207 207 208 211 207 211 212 211 214 211 209 206 201 200 192 190 187 180 175 180 179 183 176 167 155 143 139 129 131 117 103  88  61  50  33  60  67  33  31  19  29  84  89  29  54  40  44  47  43
  36  32  41  60  42  36  35  43  28  24   6   5   4  11  43  33  31  47  86 118 135 151 153 161 161 178 186 190 188 194 190 189 197 198 196 200 205 207 213 212 211 210 211 210 211 209 210 207 211 214 214 212 211 208 203 197 198 189 189 185 189 181 184 186 182 177 166 153 141 141 134 130 116 108  88  71  55  31  66  80  64  35  42  25  30 124  57  52  47  42  46  43
  38  30  42  56  39  31  36  36  29  14   8  24  72  56  30  31  38  55  95 129 137 151 150 152 169 186 194 194 194 197 195 189 194 194 199 198 202 206 209 212 211 212 211 212 215 214 210 212 214 213 212 209 209 205 198 196 193 191 192 186 188 184 183 191 187 180 173 153 142 133 132 132 122 109  85  67  61  33  49  30  63  50  34  31  18  58  67  33  39  36  40  42
  29  28  40  54  35  31  44  24  18  26  33 118 130 123  79  38  62  73 115 134 144 145 140 149 159 189 194 201 199 195 200 199 199 199 198 193 201 204 205 207 206 211 213 214 211 209 210 209 209 210 211 210 206 201 195 194 190 189 189 190 188 197 192 188 198 188 177 159 140 128 138 131 121 107  92  63  55  33  50  46  37  46  32  21  18  71  29  41  42  40  42  44
  26  32  39  54  39  32  39  28  29  20  89 106 133 162 121  28  76  75 107 134 143 139 144 138 143 155 186 184 193 191 200 199 200 200 200 200 196 201 200 204 203 210 211 210 206 205 205 205 207 209 200 204 205 196 194 194 194 191 191 194 194 198 200 199 194 190 179 168 143 131 131 130 119 106  94  73  54  34  47  57  42  58  48  23  23  67  17  59  46  30  36  47
  27  29  47  51  34  36  31  21  26  20 120 123 105 125 141  65  83  73 108 140 153 145 149 151 120 142 123 152 160 180 179 194 197 193 198 201 204 198 199 200 200 205 202 203 206 205 205 203 204 206 200 202 200 195 192 192 200 194 193 192 193 184 192 174 177 177 177 160 144 123 125 126 116 114  91  78  72  33  51  62  60  30  47  11  24  65  20  30  40  29  40  45
  30  30  55  62  27  33  23  24  23  20 123 129 126  91 101  61  72  89 119 146 153 148 140 130 138 131 123 141 140 163 168 179 175 171 170 183 186 195 195 200 195 197 201 198 199 201 203 199 195 199 197 190 191 190 186 180 174 169 172 177 166 158 154 146 141 141 138 141 133 135 127 129 123 114 108  76  58  33  23  40  37  59  56  15  19  51  26  35  47  33  37  41
  32  30  62  57  28  34  17  24  22  24 111 134 139 108  96  61  61  84 123 140 146 149 130 135 140 141 146 140 137 129 138 133 140 149 133 139 156 169 174 180 184 189 192 192 193 198 195 193 189 192 191 181 176 166 147 157 132 135 130 139 150 147 146 128 121 113 123 109 120 123 122 139 129 120 107  92  59  40  52  45  41  53  37  16  19  27  27  22  36  33  37  43
  36  29  65  54  35  19  15  19  18  46 111 147 129 111 144  69  82 120 131 146 149 149 136 142 149 151 154 146 140 139 134 128 124 116 118 112 114 129 147 161 173 178 189 190 194 199 199 187 180 173 175 162 155 142 127 114 131 130 135 128 136 134 146 140 146 145 125 123 111  95 110 129 132 116 106  67  70  36  70  54  56  36  21  20  16  20  26  23  32  40  39  52
  31  25  63  55  34   9  15  12  22  48 110 150 133 131 145  76  81  98 126 149 155 140 141 140 153 152 159 153 156 151 136 126 117 112  90  82  86 110 119 130 145 160 169 177 194 200 201 184 178 163 147 137 123 114 108  90  90  93 108 120 131 141 149 157 145 146 142 125 115 101 108 121 136 103 114  89  77  56  69  53  60  40  25  24  11  16  28  24  32  44  38  54
  27  28  55  52  32  14  14   9  30  39 109 157 144 137 156  82  92 108 140 148 144 146 136 139 148 162 161 160 154 144 125 117 105 113 110 109  83  74  97 108 113 139 167 188 194 201 200 178 160 139 118 100  96  97  69  73  90 114 102 119 128 143 158 156 163 163 151 128 116 113 125 114 142 118 118  99  87  49  70  57  67  46  22  31   6  23  30  18  34  38  38  52
  14  32  53  52  33  17  11  13  39  48  75 156 150 141 161  77  90 110 148 145 156 164 152 140 143 149 161 134 116 133 125  82  71  87  71  74 138 132 106 131 103 117 138 167 191 205 202 181 153 120 124  96 109 103 124 137 121  73  87  70  84 133 132 127 165 163 151 145 142 145 145 133 114 121 112 110  89  69  57  80  75  52  36  31  16  25  31  21  35  40  36  52
  26  39  55  50  44  19  12  24  42  47  47 162 158 135 177  85  88 102 148 139 158 147 170 157 135 141 109 108 117  86 166  69  55  32  39  99 189 135 128 145 133 104 138 168 190 201 202 187 147 117 109 124 135 124 120 153 120  90  79  47  65 121 113 135  90 129 146 151 160 152 136 136 109 110 129  86  93  84  57  86  83  25  37  22  25  38  33  26  27  36  40  39
  24  42  55  50  34  19  11  20  20  39  34 168 158 136 169  65 104 112 149 137 159 169 155 169 157 136 127 115 116 144 156 108  70 112  75  97 188 163 147 122 158 122 145 175 199 205 208 192 146 129  94 151 114 107 136 187 151  87 109  46  74 145 121  90 121 101 108 117 143 152 136 105 121 116 123  91  89  81  82  93  74  29  34  26  34  37  30  27  28  40  32  43
  29  56  57  55  32  20  18  16  27  30  30 150 164 135 143  63  96 119 140 147 151 157 172 159 146 143 141 128 143 148 163 162 145 133 134 158 165 146 139 149 168 151 157 182 198 210 209 191 153 129 124 140 138 139 142 157 163 125 124 102 114 143 146 128 110 110 112 118 127 131 147 140 105 109 119  92  71  64  69 101  58  23  30  18  36  47  25  20  23  32  31  52
  29  61  61  49  33  21  15  11  27  29  12 110 168 128 160  75  78 106 132 150 158 173 183 189 179 171 155 158 162 162 167 164 170 171 170 163 165 164 165 169 158 164 165 193 202 208 205 189 170 134 143 130 145 146 160 158 172 174 174 173 157 161 145 135 150 122 124 151 156 162 158 129 115 127 123  98  88  72  62 118  56  17  25  19  45  51  30  28  26  23  34  51
  53  65  71  40  29  24  12  13  13  19   8  32 179 147 148  90  77 112 141 143 167 170 173 182 193 186 182 159 167 171 172 182 187 184 179 174 168 156 164 163 168 172 173 193 195 203 201 187 171 147 143 147 153 166 145 151 157 179 180 173 166 154 151 145 137 129 143 158 171 169 163 151 125 123 113  87 104  68  65 105  32  19  23  35  55  56  31  26  28  28  32  37
  51  69  86  35  29  19  19  13  16  12   6   0 167 151 131  77  79 110 139 154 172 175 186 188 182 183 180 180 161 157 152 160 159 154 153 157 165 178 177 182 176 171 190 201 199 205 199 190 170 162 143 159 158 172 182 161 157 147 153 151 149 147 138 149 167 178 172 175 185 181 166 149 129 119 112  97  78  52  68  78  32  17  23  36  56  55  32  21  28  27  26  33
  56  63  79  40  31  23  23  15  16  12  14   4 144 151 129  61  78 111 135 147 162 168 177 189 195 189 187 191 181 175 173 164 165 172 178 183 187 184 191 191 179 172 185 201 203 199 201 188 157 157 155 153 169 174 177 181 180 172 168 165 152 157 152 170 163 169 187 176 175 176 164 159 124 122 122 101  83  71  72  78  16  18  52  29  67  55  25  21  33  24  26  28
  67  64  68  41  28  29  31  20  23  26  14  11 115 176 111  67  76 111 131 146 163 169 185 185 197 196 200 194 195 189 186 183 189 184 191 192 197 200 201 193 178 178 177 193 204 202 199 177 151 157 161 157 159 183 192 191 191 183 186 187 183 181 178 180 193 192 186 189 176 176 171 157 134 119 111  84  95  65  65  99  20  25  44  38  49  65  39  35  33  35  31  26
  66  79  75  48  34  41  36  23  31  36  15  11  66 175 132  75  77  73 132 143 162 184 185 187 199 200 203 195 195 193 192 198 192 195 199 204 201 202 199 191 178 174 167 187 203 198 192 178 152 150 169 163 156 173 186 195 192 188 190 183 188 198 192 187 191 202 197 183 184 167 172 165 136 112 103  85  50  54  65  96  26  18  51  59  40  54  54  47  47  34  32  34
  77  85  69  48  34  43  36  27  33  44  26  16  12 160 133  85  68  81 127 144 169 184 178 190 195 200 198 194 192 190 199 195 194 198 203 203 206 202 197 189 180 169 163 188 201 202 195 176 152 158 175 167 166 175 184 191 194 195 198 198 196 188 193 197 198 197 191 181 173 175 167 157 140 113 106  84  66  58  57  56  19  19  51  64  51  47  57  39  60  29  28  31
  68  82  64  45  46  44  40  32  28  33  38  40  12 122 128  71  71  89 122 149 175 178 182 186 195 202 204 202 201 200 197 199 202 198 204 205 203 199 198 192 190 175 173 189 200 203 198 176 153 158 174 167 160 178 191 195 198 198 202 201 199 196 198 201 199 198 190 185 170 171 159 160 146 119  97  66  73  48  53  65  26   8  26  74  43  44  37  45  59  28  34  38
  82  69  59  59  50  43  43  34  36  42  29  75  39 120 158  76  66  78 125 153 169 173 182 188 195 200 203 203 200 201 205 199 203 202 205 201 199 200 200 190 183 185 184 190 201 202 200 186 166 166 161 155 161 182 184 195 197 197 199 202 207 201 202 202 198 195 191 184 173 169 159 155 144 128  88  73  56  45  65  87  17  12  11  33  69  44  36  39  44  39  43  39
 100  52  58  50  44  45  46  36  37  51  28  56  79  93 128  85  72  65 122 155 163 173 182 187 195 199 202 199 201 205 203 202 200 201 205 201 197 191 192 189 171 177 178 189 199 201 198 188 169 160 142 149 159 166 182 195 199 198 200 199 202 201 199 200 197 196 193 184 170 167 162 151 156 129  95  71  60  53  80  99  11  18  21  10  17  52  58  39  42  47  42  38
  92  54  56  43  41  43  45  41  49  52  42  35  66  44 111  94  63  72 123 147 158 170 179 186 195 197 196 197 199 200 201 200 196 192 193 189 178 176 188 191 168 171 182 184 200 206 200 190 172 156 139 183 189 171 155 177 191 196 199 200 202 198 196 199 199 194 190 183 175 168 150 148 162 120 103  80  55  51  79  96   6  26  25  18  20  26  40  47  52  53  48  43
  84  59  49  39  57  60  47  48  53  53  47  49  46  43  56  85  73  71 119 143 153 165 171 181 189 193 198 196 198 198 192 193 192 190 181 173 167 172 190 192 180 167 179 189 201 210 208 189 171 158 154 195 194 180 155 171 184 188 196 198 201 198 194 192 195 192 187 181 173 160 157 143 146 117  99  74  74  75  77  79  15  18  24  27  16  30  43  57  63  61  56  51
  76  53  47  52  59  46  41  53  55  57  58  56  29  41  57  60  72  86 112 144 149 159 167 176 186 190 191 188 190 189 191 190 184 177 177 181 175 174 190 196 188 174 178 181 197 208 204 193 172 169 163 194 197 179 156 168 173 176 180 190 194 198 194 196 190 187 186 180 165 164 145 138 137 115  85  70  80  69  89  73  32  31  27  22  21  20  33  38  58  63  72  57
  70  51  67  66  56  47  52  68  60  65  62  63  35  30  61  54  73  72 105 146 147 152 162 169 177 184 183 185 182 183 183 182 169 180 189 187 184 172 188 195 190 179 178 184 199 210 207 186 189 169 167 185 178 167 139 162 178 182 179 182 187 195 192 190 186 185 177 170 160 147 137 139 134 120  81  72  68  87  85  46   8  20  22  22  16  20  33  29  34  43  66  68
  73  69  81  65  55  55  73  73  75  61  48  42  21  46  55  64  61  70 115 142 141 150 151 164 165 175 171 174 176 177 174 168 174 186 186 172 170 144 163 186 182 174 185 194 200 206 217 201 177 160 154 160 156 132 117 156 172 180 191 175 176 185 184 182 184 180 174 168 156 150 131 144 136 121  86  82  59  74  67  21  16  16  19  14  16  20  30  31  30  26  33  70
  94  90  76  46  48  60  75  86  65  32  55  42  28  51  59  63  77  71 115 136 153 149 151 159 162 164 164 164 164 168 163 163 171 161 167 161 157 130  84  94 157 162 170 190 201 208 202 194 167 139 136 118  62  71 114 143 164 174 169 180 178 175 179 175 177 173 170 158 148 143 136 143 133 122  92  70  58  81  33  16   9  12  18  22  18  17  25  30  33  47  43  52
  87  66  58  30  43  72  75  54  48  62  38  42  39  82  69  61  67  65 109 143 158 150 156 152 158 156 153 165 164 153 151 132 152 149 147 150 153 150 111  73  50 131 151 177 193 198 196 183 149 119  83  34  66 121 128 128 143 155 148 170 163 167 165 165 168 162 164 157 150 133 143 143 141 123  91  86  59  56  51  23  21  17  24  27  22  18  24  29  39  45  46  47
  87  37  39  32  46  53  57  78  66  32  30  47  62  82  63  55  67  72 102 137 152 160 152 155 153 148 163 170 155 130 115 131 121 118 128 146 140 121  88  83  60  65 133 155 183 177 175 161 133  90  46  65  72 100 120 122 126 134 141 135 140 147 154 164 146 156 164 150 143 124 157 156 137 136  94  77  61  74  42  36  25  35  31  27  33  16  18  33  38  38  51  52
  96  44  43  51  43  69  96  60  36  24  20  37  71  78  40  67  82  62  92 136 169 159 154 155 146 154 163 169 152 114 102 107 105 111 121 126 116  98  88  90  85  96  76 143 160 148 151 144 106  55  62  70  77  80 105 109 128 126 126 119 122 108 135 160 164 138 152 150 150 127 167 161 138 123 105  89  44  82  67  39  30  41  34  42  34  11  12  28  40  42  48  52
  66  80  71  72  44  58  42  45  36  32  24  46  68  73  52  70  66  60  93 135 160 158 163 168 157 163 148 133 114  84 100  96 101 104 107 108 104  97 102  93  94  90  80  67 104 120 123 102  58  67  69  62  84  86  98 112  94 124 120 115 105 107 103 130 152 158 148 159 144 127 150 160 145 122  75 107  90  60  55  46  69  80  56  36  20  22  16  15  41  52  52  66
  52  74  77  83  71  45  47  31  41  44  60  73  49  64  61  86  77  65  89 127 141 162 163 165 139 149 138 130 103  84 102  93 101 109  95  97  77 103  86  77 104 105  94  85  63  86  86  77  70  68  85  79  75  90  83 101  91  86 100  99 105  90  79 105 138 154 135 149 142 129 179 155 140 119  91  75  84  73  67  46  55  53  35  32  20  12  18  17  45  53  66  69
  53  64  79  84  95  63  35  42  46  67  61  62  56  68  58  75  69  57  85 114 127 148 146 156 145 133 128 114  77  92 105 117 105  96 106  77  85  68  91  70 113  97 106 109  83 108  88  80  78  95  73  68  91  75  90  88  81  89  96  89  96  85  73  89 119 130 135 150 144 131 174 151 133 113  82  71  88  73  63  76  53  44  28  23  15  10  14  34  53  73  75  53
  49  51  75  92  89  73  60  37  44  59  46  31  58  69  71  63  74  75  65  98 124 148 151 135 140 129 106  94  86  96  93  84  93  99 109 105  80  76  77  94 111  96 108 101  99  98 101 109 104  85  91  80  90  87  85  94 100  85 103 101  93  65  75  63 110 110 111 152 145 143 169 160 116 110  64  86  73  60  70  66  64  43  46  28  12  14  28  38  68  78  68  49
  54  37  46  62  67  69  70  60  37  25  30  45  87  55  55  61  55  74  65  86 107 138 150 129 128 104 102  91  69  83  78  64  42  59  71  96  92  99  90 107 115 100 116 114 105 138 117 130 113 107  88  87  96  97 100 106  88 103 100  91  86  83  78  69  96  91 102 134 132 133 167 151 105  86  66  70  54  80  65  72  80  46  50  37  15  18  26  72  54  45  49  49
  50  48  43  49  82  99  53  52  50  48  52  56  52  54  58  52  72  62  62  75  85 133 134 129 121 105 100  89  81  90  93  85 103  24  12  75 116 108 122 107 118 106 103 102 113 127 130 135 126 111 117 107 108 112  96  84  81  48  25  52  78  76  76  69  80 100 106 123 112 134 152 159  91  68  65  65  76  87  74  69  75  64  43  40  18  27  51  74  69  59  38  49
  49  41  44  59  65  49  85  68  38  45  49  50  59  53  59  54  61  66  52  65  93  92 110 111 102  96 114 102  87  82 111 130 145 120  48  23 127 122 145 137 154 136 116 140 137 120 130 136 128 107 145 133 145 124 109  96  67  19  42 111  87  77  79  77  77 111 115 109 112 136 126 142  70  55  61  52  75  78  58  43  43  59  58  26  21  31  49  59  85  63  41  47
  39  41  40  55  43  61  41  53  75  69  56  55  49  80  60  52  60  67  71  56  67  95  96  94 103  93 118 106 103  90 109 131 151 157 123  49  37  64 162  70 160 173 155 164 179 162 168 189 161 150 152 135 142 135  60  61  25  59 121 134 106  84  91  89  92  96 102 102 107 123 104  94 127  54  59  58  58  73  68  51  70  54  56  33  25  34  51  48  47  46  48  49
  40  32  43  38  48  47  51  44  31  45  52  42  50  65  95  47  63  52  53  68  68  91  81  94  95  96 108  95  81 102 128 132 148 157 170 135  76  61  27  45  38  29  74  75 120 104 152 145 101  85  40  22  37  51  63  34  71 112 138 131 105  84  84 106 105  96  96  92  94  90 100  68  65  54  53  44  63  69  55  56  42  42  50  69  28  41  50  40  57  55  44  41
  36  30  34  38  37  34  43  35  36  48 116 123  68  61  58  75  58  52  74  66  74  82  75  91  85  85  94  93  90 105  99 130 155 157 169 170 136 109 114  85 134 129 163 106  18  25  51  18  56  50 121 115 110 110 103  88 121 141 140 134 112  94  93 100 104  86  92  75 104  97  84  59  60  46  59  46  63  39  45  59  53  41  53  52  45  48  39  41  34  39  43  45
  35  32  31  39  37  44  42  49  45  68  90  84  74  59  48  73  49  71  56  73  88  79  71  84  79  87  92  82  84  99  99 130 135 150 157 164 173 166 147 130 121 126 139 131 164 145 181 152 161 148 133 124 103 100 127 135 144 137 127 119  93 112 103 105  87  87  80  84  80  85  85  80  55  51  56  59  42  57  57  52  55  55  42  47  42  39  47  36  33  40  48  46
  33  33  32  36  37  46  37  29  43  54  68  59  63  75  70  70  74  73  58  73  81  78  84 101  89  82  84  90  98  89 111 114 135 153 153 162 167 171 177 173 167 174 174 169 155 148 129 129 124 121 119 127 142 142 148 151 144 142 124 124 126  88  91 103  82  68  88  70  71  80  76  81  55  54  52  40  51  44  51  53  42  44  39  42  30  35  35  33  38  35  35  34
  34  32  30  35  39  34  40  23  45  47  39  36  54  77  67  55  50  60  55  66  89  71  77  82  74  72  97  74 103  92  85 128 136 146 152 149 149 157 169 186 189 192 198 190 185 183 178 180 176 164 165 156 160 158 149 145 134 121 121 130 121 107 121  81  76  58  88  66  60  79  65  57  65  66  41  44  43  66  43  39  47  62  37  27  28  21  25  32  33  34  33  35
  36  32  32  32  31  35  36  29  35  56  61  57  68  50  69  45  45  56  63  64  49  73  65  91  63  86  73  80  94 108 141 137 137 145 142 143 143 156 148 147 160 182 184 183 193 193 193 198 185 186 178 172 167 145 143 133 130 142 134  99  79 101  90  85  84  69  72  53  69  82  58  63  52  59  59  43  45  57  68  39  34  43  22   6  21  15  19  27  32  32  37  37
  36  31  32  32  32  29  35  36  31  62  50  34  42  51  52  64  55  56  80  45  68  72  70  81  58  59  67  93  97 122 110 127 129 123 132 141 154 146 141 134 134 152 158 153 156 163 150 162 163 163 157 155 151 139 142 150 153 137 125 125 129 105  90 101  78  75  64  61  63  61  56  57  46  57  63  64  70  44  58  65  55  42  40  13  12  21  30  31  33  28  35  33
  34  34  31  31  30  32  30  31  31  35  40  39  48  50  53  55  44  57  64  56  67  87  66  64  62  62  67  77 101  88 103 117 128 121 137 133 136 144 140 124 123 131 138 147 149 137 145 158 142 149 151 147 149 141 138 123 133 127 114 114  85  99  83  95  69  64  63  60  76  54  57  52  52  45  44  62  67  74  53  55  55  33  35  36  37  33  33  30  33  33  34  36
  34  35  31  32  30  31  29  27  27  30  26  32  41  41  55  63  54  49  73  79  87  58  58  64  59  63  68  99  73  86  99 118 121 124 130 134 145 131 124 140 117 128 130 131 137 139 141 138 155 131 139 131 145 142 129 123 133  98  86  89 101 100  91  68  56  80  60  70  63  68  56  41  55  64  48  59  48  53  55  57  39  48  33  33  32  32  32  31  32  34  31  34
  34  34  32  32  32  31  29  28  29  27  31  36  35  41  62  49  54  58  83  82  72  64  67  58  73  59  69  55  82  85  85  92  87 109 106 111 124 131 116 108 106 116 116 130 130 133 139 141 127 123 141 136 125 125 131 141 126 110 115 117 107  86  88  72  83  70  65  48  49  88  69  56  52  51  48  59  55  64  59  55  48  41  33  36  32  31  30  28  32  33  33  33
  34  34  32  32  31  33  29  29  28  29  29  31  31  47  44  26  53  69  69  86  69  68  63  73  64  43  63  88  70  83  74  85  94 116 116 117 114 121 124 114 119 125 121 113 121 118 152 122 111 116 116 119 129 126 106 110  98 117 131 112  89  92  90  81  69  54  81  50  35  56  60  68  62  48  72  43  49  63  43  39  51  20  33  33  33  35  31  32  32  34  32  32
  37  33  31  31  33  32  29  28  30  27  22  11  17  18  53  93  80  90  80  80  64  71  65  69  66  67  58  70  79  85  78  82 106  98 117 114 109 129 137 127 129 124 124 139 133 127 158 131 112 117 118 128 123 122 103 115  98 113 113 101 106  99  61 110  64  45  68  75  31  55  58  55  64  75  53  56  50  48  60  44   7  24  23  32  33  34  30  32  31  33  32  32
  37  33  33  33  31  29  30  25  18  10   6   6  12  28  37  49  75  55  53  61  56  60  65  84  50  78  73  71 109  77  87  93  98 119 116 103 124 124 135 136 137 142 147 146 111 131 145 126 117 125 119 136 130 122 117 107 119 105  95  83  78  88  69  90  71  61  50  79  65  48  61  51  54  46  57  63  52  46  45  20  13  17   2  25  40  30  32  30  32  32  31  31
  33  37  34  32  31  24  13  11  10  10   8   8   6  10  14  55  65  59  78  76  64  68  60  56  66  65  94  98  62  78  82  86  94  95  98 114 120 105 138 137 141 146 148 138 136 137 142 133 139 133 128 116 116 126 111  96 111  99  81  91  94  86  91  67  51  65  55  55  47  55  63  62  57  65  61  64  53  48  25  30   2   7   2   7  11  47  32  31  30  32  32  30
  34  33  29  21  18  18  18  14  11  13  10   8   2   1  30  20  65  61  90  63  61  50  58  67  85  94  80  65  81  86  70  76  90 101  97 123 127 111 108 130 133 137 140 138 149 153 134 136 140 125 117 118 116 116 116  96  77 109 101  91  79  85  94  74  54  56  83  59  58  60  61  45  60  54  61  64  50  45  28  11   7   6   9  10   9  15  10  23  29  31  32  33
  28  19  19  20  22  21  23  22  20  16  15  10  16  20  21  29  38  58  58  75  59  52  60  60  74  78  80  70  80  73  79  87  72 101 106 102 108 104 124 127 130 131 132 119 139 131 120 123 141 121 123 115 109 123 100 104  82 101  78  92  55  85  66  65  60  53  41  54  69  72  63  58  61  44  64  43  35  28   8   2  13   5   6   9  11  11  17  11  10  22  30  31
  19  22  24  23  22  26  24  23  23  21  17  12   5   8   0  35  62  51  60  55  41  53  55  84  77  86  63  64  65  91  74  94  80 110  82 102 101 109 107 119 119 135 125 122 139 133 121 131 127 128 112 104 116 101 106  99  88  74  89  78  77  76  74  73  46  55  42  47  57  63  65  53  71  61  55  53  43  12   0   2  11  12  12  12  11  10  12  12  11  18  20  24
  27  27  29  27  25  25  24  22  22  21  18  13   7   7   2   6  21  53  52  57  80  74  73  69  72  63  62  64  65  78  58  93  87  78  93  84  98  97  94 109 103 118 108 118 126 124 117 119 108 130 107 115 106  99 103  85  83  80  63  63  55  91  78  70  58  48  55  49  54  73  80  57  59  64  73  57  22   5   4   9  15  11  14  15  16  15  14  17  16  20  20  19
  28  28  27  24  24  26  25  23  22  21  18  12   9   8   4  16  28  16  61  76  82  67  62  66  54  77  72  71  65  50 100  79  72  65  79  81  91  91  97 108 108 116 109 121 109 117 110 112 121 108 107 101 101 100  88  90  55  85  70  76  54  72  52  77  66  65  50  52  52  58  71  64  67  71  75  55  13   5   6  12  16  18  18  18  17  19  18  17  17  18  17  20
  31  26  28  26  26  25  21  21  20  20  14  14  14  10  11  11  10  33  35  84  80  60  66  66  77  60  85  74  75  75  82  54  99  87  80  79  91  86  89  97  95  88  98 108  93 104 105  96 102 115 107  98  86  77  93  71  69  82  62  60  64  68  73  62  65  66  68  77  61  78  61  86  87  87  72  72  33   3  13  16  16  17  19  21  16  17  21  19  18  17  18  24
  27  25  23  25  22  21  20  20  20  20  18  17  17  17  15  11  11  12  55 112  90  61  56  79  81  76  82  73  73  94  75  95  71  67  79  71  78  79  85 100  91  80  92  88  89  88 104 102 100  99  89  76  87  69  75  77  60  81  91  62  60  64  67  63  51  71  63  56  72  79  67  84 110 115  92  61  16  19  13  23  25  19  18  22  17  20  20  20  21  20  18  21
  27  25  25  25  22  23  25  25  24  24  26  22  21  18  18  13   8   3  95 137 113  65  64  74  69  71  53  59  71  63  68  75  64  75  67  77  70  75  75  73  90  81  70  79  77  80  89  63  89  85  66  86  79  65  75  64  83  70  67  88  63  76  71  84  72  63  66  58  68  77  80  93 115 120 124  69   4  18  21  20  16  22  21  22  22  18  19  21  21  21  20  21
  26  25  27  26  26  28  28  26  25  25  24  22  24  23  20  16   5  27 131 142 116  75  66  87  70  61  69  77  72  59  79  71  82  67  81  80  63  84  65  86  82  79  62  84  62  78  85  82  80  64  86  70  76  62  75  75  61  63  52  84  62  74  65  69  65  84  73  68  77  78 105 126 156 135 141  78   7  16  17  18  18  21  20  21  20  21  20  22  23  23  22  25
  25  30  27  30  30  26  26  26  26  27  25  25  25  22  19  14   8  90 140 139 100  86  67  67  65  57  63  71  73  64  61  73  64  76  73  61  68  76  61  77  74  72  78  74  57  73  72  77  70  56  73  71  63  72  58  89  73  53  71  60  86  72  73  55  56  69  92  84  77  90 124 142 169 160 194  36  11  12  18  20  19  21  24  23  20  23  22  23  22  22  26  25
  31  30  30  29  29  28  28  27  29  27  26  26  26  25  21  13   0 139 172 171  94  82  77  59  59  77  84  63  71  69  62  78  77  63  74  63  75  76  71  71  72  63  75  66  65  65  67  77  65  73  59  59  61  61  66  87  85  73  84  76  71  73  69  67  79  65  71  87  78  91 137 152 184 181 188   8  17  11  18  18  19  20  25  24  24  25  23  23  25  26  26  26
  33  31  31  30  27  27  25  25  29  27  27  26  27  26  18  14  33 165 189 178  95  86  72  59  66  86  84  74  58  66  61  78  79  63  62  77  55  83  62  71  72  72  66  65  60  54  55  79  69  75  63  65  51  58  67  63  71  68  72  89  66  74  52  72  72  70  80  88  94 121 142 164 155 193 181   7  15  22  21  23  23  24  24  24  24  24  26  26  24  25  26  25
  32  29  30  28  31  30  28  32  32  30  31  29  27  23  16  15 104 182 217 171  85  92  79  62  83  92  77  87  73  52  60  67  77  71  62  74  71  78  82  65  67  62  59  65  62  80  57  77  76  71  59  68  74  75  54  52  57  77  70  74  75  76  80  75  66  90  93 121 133 128 147 183 190 189 189   2  19  21  23  25  20  22  20  24  26  25  24  26  26  25  27  27
  32  32  31  27  32  29  31  30  30  29  27  28  25  20  15   7 136 198 196 154 105  74  69  67  86  78  76  78  69  82  67  84  62  69  71  67  67  62  77  59  59  82  62  52  73  45  49  54  88  62  60  60  67  81  55  75  68  66  73  76  81  65  71  75  83 106 110 128 147 150 159 172 187 191 161  15  15  19  20  21  22  23  25  25  27  26  25  27  25  28  28  27
