P2
# Generated by OpenCV 4.2.0
92 112
255
  39  42  43  42  44  47  45  45  50  49  45  45  43  43  48  46  41  35  28  32  43  47  46  47  47  45  50  58  61  48  29  40  47  37  40  46  55  60  58  53  55  61  41  31  46  44  53  50  33  34  44  46  46  48  49  36  40  41  31  31  35  43  41  51  55  42  31  33  37  46  49  45  43  43  41  40  42  43  44  44  43  42  44  47  47  48  49  48  47  44  46  47
  39  42  43  42  44  46  45  48  51  48  46  47  43  43  49  47  41  35  28  32  43  49  51  48  47  48  48  57  59  45  53  49  52  43  40  46  65  74  56  44  60  61  43  41  40  36  39  51  46  39  45  44  46  52  55  34  44  40  35  40  42  46  50  48  50  54  56  56  48  41  41  46  45  43  41  43  42  44  44  44  44  45  46  47  46  48  49  48  48  47  46  46
  39  42  43  42  44  45  47  50  52  48  47  47  43  44  50  47  42  35  28  32  43  47  50  49  47  47  45  49  46  21  38  46  45  52  44  52  61  66  52  44  55  57  48  55  39  37  46  45  55  44  39  37  46  53  60  41  39  40  46  50  57  62  60  57  56  56  65  70  70  60  46  46  47  43  42  43  43  43  43  44  45  47  47  48  48  49  49  48  49  48  45  43
  40  43  44  43  45  46  47  51  52  48  48  47  43  45  50  47  40  36  31  33  43  49  49  49  50  46  42  42  37  34  36  50  44  55  43  58  60  48  44  34  40  44  54  71  74  56  47  52  52  51  36  43  42  50  64  44  36  58  59  59  68  67  59  55  55  53  54  48  48  54  55  50  49  43  42  42  44  45  44  43  46  47  47  48  48  47  50  51  51  48  45  44
  42  44  44  42  44  47  48  51  52  48  48  46  43  45  51  49  42  36  28  34  37  37  35  36  34  31  33  40  38  40  42  60  39  60  47  48  55  45  45  37  32  31  38  55  55  89  85  50  56  53  47  47  51  60  60  60  60  72  64  64  81  66  60  64  65  57  56  57  57  50  49  46  50  50  41  43  45  47  45  43  47  47  47  48  48  47  50  51  52  49  46  46
  43  44  43  42  44  47  48  51  49  47  46  46  43  44  52  51  44  36  28  32  29  31  30  29  32  27  30  29  33  42  47  67  54  63  54  43  42  47  48  45  43  28  26  51  45  66 130  84  51  57  55  57  55  58  56  73  83  79  68  76  72  66  58  55  42  32  49  52  47  47  45  45  46  55  51  42  45  49  47  46  46  46  47  49  48  48  49  51  52  50  47  47
  43  46  45  42  44  47  48  50  48  46  47  46  43  47  55  54  45  35  32  34  22  28  43  29  35  35  33  39  33  37  57  71  68  50  56  50  43  35  43  40  34  34  35  47  51  27  89 124  63  64  59  62  58  53  49  59  84 100  75  81  64  63  47  45  49  55  74  50  37  38  42  40  40  39  54  49  44  45  47  46  46  46  47  49  48  48  50  53  51  51  49  48
  45  46  45  42  44  46  48  52  48  45  46  45  43  51  58  51  34  35  38  30  28  24  39  56  43  41  38  42  35  43  61  66  39  41  48  54  41  30  46  47  53  67  66  54  53  39  52 119  93  76  69  73  67  48  45  56  74  99  77  84  57  51  49  63  65  70  57  46  45  45  49  50  45  29  38  53  45  44  44  46  46  47  47  49  49  49  50  53  52  54  52  51
  46  48  47  44  43  47  50  52  50  47  46  44  44  50  58  46  30  40  39  22  23  39  35  65  80  54  55  52  45  38  52  64  60  49  47  52  52  51  54  67  93  98  80  64  57  58  64 102 109  84  74  82  67  50  53  69  71  82  80  87  53  53  63  73  73  70  40  34  29  34  31  45  50  46  38  54  50  44  46  46  46  47  47  49  51  51  49  52  56  55  56  53
  46  47  46  45  46  48  49  52  49  47  46  46  46  47  49  33  30  41  36  33  30  46  55  57  96  89  77  76  63  48  48  64  79  70  57  61  78  81  85  90  95 111  82  69  66  62  73  94 105  76  77  91  80  72  66  74  75  62  85  93  62  51  63  80  85  58  29  38  35  41  35  25  39  43  36  50  54  49  48  46  47  47  48  49  51  52  51  53  55  55  59  57
  46  48  47  47  47  47  50  50  47  47  47  44  39  37  26  16  18  28  48  43  54  63  82  72  97 100  92 107  92  78  66  75  93  85  76  81  99  99  96  90 116 113  87  85  67  66  77  91  99  75  88  94 100  71  64  79  74  68  83  84  66  57  86  99  83  53  40  43  41  37  39  29  24  35  44  50  54  47  49  48  47  49  48  48  51  52  52  52  55  57  61  61
  47  49  48  46  47  48  51  51  49  46  45  42  39  28  14  16  21  27  42  63  60  59  76  89 102 100 104 119 104  97  84  93  99 100  91  82  87  83  68  94 137 109  86 104  64  55  83  81  88  82  92  93  93  60  64  74  75  71  76  82  63  75 106  96  87  78  57  50  48  52  50  39  38  34  38  44  50  45  48  50  47  47  48  49  51  53  52  52  54  59  64  64
  47  49  48  46  48  50  51  50  47  42  44  46  39  25  18  18  20  23  34  62  84  72  68  87  97  95  97 105  93  98  88 108 124  99  71  66  61  66  84 119 122  85 109  92  48  70  90  66  78  94  89  94  82  72  78  85  70  71  79  80  70  93 107  99 109  97  77  75  66  52  43  35  33  36  34  39  48  47  48  50  47  46  49  52  52  55  53  52  53  58  68  70
  47  49  48  45  47  50  51  51  47  47  49  39  26  19  16  23  30  35  42  61  79  95  83  84  90  85  78  81  78  85  85 120 119  89  62  59  70  88 114 110  86 105 113  71  73  96  72  69  84 100  90  81  59  69  89  73  69  71  70  72  75  99  86 102 110  98 105  92  74  60  52  45  38  33  37  33  41  51  51  53  49  48  48  50  52  55  53  52  53  58  67  69
  49  49  47  45  46  48  49  52  49  48  42  27  18  18  21  27  31  30  42  73  79  98  97  88  90  77  70  67  67  77 105 121  99  89  70  81  92  96  98  92 101  98  79  75  97  80  65  72  93  99  74  66  66  81  77  68  80  70  67  75  70  80  83  95 100 100  88  93  71  82  94  85  57  44  38  38  35  42  49  47  49  47  49  48  53  55  55  53  54  59  64  63
  49  49  47  47  47  49  52  52  47  45  35  31  21  20  22  31  34  39  44  72  84  88 103  96  96  78  70  72  78  85 109 111  91  86  94 105  96  92  90  99  94 100 112 119  98  80  84  88 102  85  66  83 101  98  88  91  88  76  76  74  80  77  80  76  91  77  79  90  67  99 123  88  63  49  38  30  33  32  45  50  47  46  44  48  49  54  56  56  55  54  57  57
  50  50  47  47  47  53  53  53  49  47  49  38  34  40  52  61  74  75  74  92  88  72  93  99 100  92  77  83  95 108 116 105  95  94 114 107 100  96 103 101 112 141 150 125 107 104  92  97  93  88 104 108 109 110 109 102 100 101  98  95  95  80  81  72  73  55  85  75  55 103 113  65  57  56  49  28  22  29  26  42  54  53  45  48  47  54  54  55  54  50  51  51
  51  51  50  47  47  50  48  50  47  48  52  49  49  48  56  90  98  69  64  88 102  90  83  93  89  93  92 109 127 128 121 114 105 119 129 119 108 110 106 106 118 111 105 125 129 120 107 104 106 127 127 117 124 123 115 116 113 117 113 109 107  98  85  72  54  58  74  59  58  95  70  55  80  90  73  57  45  42  27  22  44  69  56  48  51  54  55  55  53  48  48  46
  50  52  51  47  47  48  48  53  51  54  48  40  43  61  90  99  89  76  63  68  91 103  94  85  86  95 115 130 131 139 135 128 133 144 144 134 140 130 119 118 112 109 123 139 144 129 118 128 138 140 137 134 133 129 129 126 128 131 125 123 119 112 101  81  59  65  63  51  67  67  62  59  73  84  89  63  44  39  38  23  24  44  67  62  53  58  53  54  54  50  48  46
  49  51  51  44  46  47  55  58  56  57  45  52  79 104  96  75  82  76  69  50  82  98  94  99 110 126 142 142 141 149 153 145 156 165 158 159 163 155 140 134 130 139 145 148 149 145 143 139 141 144 142 144 145 139 140 134 132 138 140 136 132 126 119 116 104  77  52  55  61  43  56  49  71  93 111 100  69  38  31  33  27  25  40  66  60  59  56  53  52  50  46  46
  50  50  47  44  44  48  56  54  61  56  61  83 103  92  74  79  96  98  60  54  61  86 100 126 135 145 150 151 149 157 163 160 164 175 177 175 177 175 157 161 168 177 173 170 166 166 158 153 153 151 151 154 154 154 157 151 142 147 151 148 142 137 133 136 127 102  78  62  37  32  44  25  43  65  73  82  76  63  42  31  25  23  30  53  62  54  58  60  53  50  48  46
  50  48  46  44  44  49  50  54  48  68  98 106  97  79  80  81 105  77  53  53  68 100 131 140 144 149 156 151 152 158 161 166 175 178 179 174 184 180 169 174 189 188 183 183 179 178 179 173 168 170 169 168 164 162 161 159 151 151 154 154 148 145 142 141 148 136 109  82  54  46  54  54  55  50  46  33  30  40  34  31  24  18  20  36  63  59  55  55  56  51  48  46
  51  49  46  46  45  43  48  52  67  97  93  74  70  69  78  88  79  46  47  64  94 129 147 143 150 152 154 151 153 158 160 165 174 177 175 172 178 178 175 182 186 186 185 188 182 176 179 181 176 174 170 169 164 161 163 158 151 149 146 146 147 144 142 141 147 147 136 121  96  77  73  70  85 102  95  79  60  40  30  22  25  20  16  21  47  62  58  53  52  52  49  46
  51  51  48  47  46  34  45  58  67  68  58  61  73  86  93  80  55  45  48  71 115 149 147 147 153 154 152 154 153 153 161 168 168 175 170 167 173 177 177 181 185 185 183 184 180 177 175 173 176 173 173 166 160 161 161 155 151 148 146 146 146 147 142 139 142 147 143 140 123 108  96  90  91 100 108  92  62  40  38  28  17  18  16  14  32  52  55  57  54  49  46  45
  51  50  45  41  30  34  44  48  59  75  86  90  97  90  72  59  52  48  55  91 140 152 147 148 150 149 147 151 151 157 162 165 165 170 168 171 172 173 176 179 181 183 183 180 175 174 173 173 179 175 172 167 162 158 156 157 155 146 142 148 144 147 141 137 143 148 148 144 128 122 114  98  85  87  92 102  96  72  49  28  12   9  13  12  17  41  48  55  60  52  49  50
  50  47  44  34  28  34  40  54  72  79  77  78  71  59  56  51  38  49  73 119 148 149 142 147 147 145 142 145 153 157 161 164 164 170 168 169 175 178 176 182 187 184 182 176 178 173 172 175 174 171 167 164 160 156 152 150 154 150 143 146 147 144 141 134 136 146 144 138 133 115 100  86  75  78  95 110 116 102  62  36  21  12  12  13  11  37  48  52  56  57  55  50
  51  46  38  18  24  37  52  58  65  66  61  51  52  48  50  51  47  54  95 139 150 143 140 145 145 141 144 147 153 154 159 166 167 174 169 171 177 177 182 189 189 190 189 181 182 172 177 174 173 174 170 163 159 156 154 150 149 147 143 144 143 144 141 134 133 143 144 140 132 116  89  70  67  75  77  69  84 102  90  68  48  31  19  12  11  28  46  41  44  52  50  42
  49  47  32  23  31  38  47  54  53  56  53  47  41  39  45  42  51  66 113 145 148 141 141 138 139 142 147 153 156 158 162 165 164 168 169 171 178 181 186 192 192 196 199 195 187 179 179 177 174 171 173 167 161 156 157 155 150 147 144 143 143 142 140 139 137 142 143 141 131 115  93  74  76  83  78  69  62  64  88  82  55  37  35  25  14  22  39  42  38  43  50  45
  49  45  32  24  37  31  32  39  46  59  63  49  43  49  49  50  62  91 129 143 141 140 140 138 141 142 144 152 156 163 161 162 159 166 173 179 182 182 189 194 193 201 200 199 192 188 180 181 180 172 167 162 160 156 154 153 151 149 141 142 141 140 139 144 139 142 142 141 127 108  90  80  71  83  92  86  85  80  58  74  86  57  39  37  24  13  27  44  48  44  52  55
  45  39  25  26  35  28  40  58  66  59  51  50  52  60  60  56  78 108 129 136 143 140 139 143 145 145 146 152 157 164 166 169 173 174 180 184 185 187 199 197 196 199 203 193 185 184 182 179 180 173 167 163 161 152 153 150 145 148 146 138 139 141 141 135 136 140 141 139 128 105  84  73  61  61  71  85  87  94  78  78  96  77  45  31  34  23  20  38  37  49  55  54
  42  30  29  34  60  68  71  65  46  35  33  45  53  39  48  56  71 109 130 139 141 139 143 145 149 151 149 150 158 165 169 173 179 178 182 184 184 190 197 199 206 202 199 199 195 190 187 186 188 180 171 165 159 152 152 153 146 145 146 146 142 136 140 138 137 139 136 138 126 105  86  66  54  49  65  71  76  80  76  71  72  83  77  47  31  26  20  36  30  28  46  55
  35  34  50  69  65  55  44  46  38  34  36  48  49  30  41  53  66 101 127 138 139 139 145 141 147 151 154 158 163 169 170 173 177 180 183 183 184 190 194 193 192 203 205 200 198 194 190 186 186 182 171 165 160 157 152 153 151 147 144 146 141 135 144 144 141 134 133 130 120 103  85  64  51  66  78  80  73  78  73  61  59  72  94  86  59  36  21  35  35  21  41  61
  39  50  58  51  37  35  55  60  36  38  58  70  54  39  41  47  70 100 127 138 142 145 146 147 150 153 156 160 169 171 174 178 182 181 184 186 186 196 203 199 198 207 204 192 186 189 185 181 179 172 165 159 159 157 152 149 146 146 147 145 140 138 143 145 141 133 129 131 119 100  78  63  50  52  59  82  76  77  72  65  76  67  48  48  59  52  32  25  34  29  43  53
  51  43  40  41  41  45  91  43  51  55  66  63  56  47  42  52  74 104 127 139 146 148 148 149 150 151 156 163 164 168 167 173 176 182 187 186 187 194 196 193 197 199 198 193 190 185 184 183 174 166 169 160 159 155 150 147 145 148 149 149 148 140 143 143 136 132 129 128 117 100  83  62  49  35  58  79  87  76  76  74  75  90  67  40  32  46  47  34  30  28  39  52
  49  38  35  36  39  49  48  56  73  36  18  29  35  37  38  52  75 107 131 140 145 149 151 154 153 151 160 163 157 163 170 173 175 180 180 181 184 190 195 192 196 201 198 193 186 184 186 180 176 176 179 170 165 158 152 147 145 149 151 151 150 146 144 140 132 131 128 122 121 105  91  64  41  44  54  63  62  53  58  82  56  59  77  65  43  41  40  43  31  26  35  48
  47  33  39  37  44  42  37  84  43  29  39  44  37  28  42  52  75 114 132 138 142 151 156 158 159 159 161 156 164 170 175 181 188 190 185 183 185 189 193 197 197 197 197 190 184 188 189 188 186 183 182 174 168 156 151 149 149 148 155 156 151 150 142 138 132 128 123 121 124 107  87  75  44  31  52  58  46  31  31  73  67  32  48  61  50  50  33  41  41  28  33  41
  39  31  41  38  44  28  46  52  38  59  58  52  42  37  36  54  84 116 128 136 141 154 159 163 162 161 160 159 167 171 175 183 191 195 193 194 190 190 192 198 196 198 193 184 181 186 182 180 184 179 174 171 164 155 152 154 151 152 154 153 148 147 142 139 131 129 119 124 123 109  82  66  47  29  40  37  47  40  32  50  86  56  27  50  57  53  40  31  40  33  34  41
  37  30  46  39  39  26  40  23  50  58  64  71  60  44  46  50  78 117 129 133 142 156 160 165 163 158 163 166 170 178 179 183 190 193 194 193 193 191 193 191 189 187 188 187 192 190 187 186 186 184 181 176 169 160 159 155 155 159 154 157 154 145 138 140 136 126 115 121 117 103  83  65  45  31  27  31  42  35  24  39  76  74  37  31  54  48  38  35  39  35  39  45
  36  33  45  37  27  32  26  23  55  63  59  53  58  43  46  49  76 116 126 136 145 151 161 165 162 161 161 163 174 181 185 192 197 197 194 191 190 190 193 190 193 194 192 197 196 195 191 196 199 191 187 184 176 168 167 163 157 159 161 160 155 147 141 138 133 126 121 117 107  99  89  75  54  26  30  52  55  29  14  23  61  83  42  28  38  48  37  43  32  37  41  44
  35  34  43  36  24  41  20  34  53  56  43  52  53  41  43  47  73 118 123 132 142 152 160 166 164 164 163 169 178 181 189 194 197 205 206 202 196 196 196 196 199 202 193 196 198 199 201 200 204 198 191 187 179 178 173 173 165 163 163 160 155 152 141 136 132 127 127 119 106 105  95  78  67  33  31  57  67  42  26  28  31  86  71  37  36  44  39  40  24  36  35  44
  28  37  45  40  29  46  27  41  54  49  23  36  50  43  35  37  62 112 124 129 139 149 161 166 165 170 169 173 182 184 185 193 199 206 211 208 203 203 204 203 201 199 198 198 199 199 205 202 201 197 190 183 180 179 176 171 170 167 164 168 164 157 143 135 132 128 127 119 106 102  90  72  65  41  27  59  79  59  38  33  18  44  78  39  30  43  40  39  26  39  31  43
  20  35  48  43  34  40  36  44  43  23  20  11  30  34  24  31  62 104 125 131 137 151 164 166 167 175 173 177 183 182 187 191 199 205 212 207 207 206 209 208 209 204 204 204 202 204 206 201 197 187 188 183 178 178 174 174 182 178 172 172 172 161 150 134 127 128 125 117 108 100  92  70  57  44  30  37  42  56  52  26  25  33  42  36  25  37  44  37  26  35  23  35
  23  37  50  37  32  36  40  38  25   3  12   9  18  31  25  37  69 102 120 125 133 158 169 175 176 176 180 186 184 186 187 188 195 200 202 199 202 207 210 204 203 208 202 201 199 198 196 195 191 188 185 186 183 177 176 175 176 172 156 155 158 151 146 135 122 121 121 116 106  95  91  77  62  41  30  44  38  37  46  31  11  32  32  33  38  33  39  39  26  45  27  23
  27  37  48  38  27  35  33  24  15   6   2   0   5  31  28  37  78 100 106 108 115 153 177 182 178 181 187 185 189 186 189 187 191 193 196 196 199 203 206 204 203 203 200 199 198 190 186 190 189 185 187 186 182 179 172 162 150 145 128 125 118 116 114 117 127 124 120 110 100  93  95  85  71  38  24  47  48  48  53  33  11  35  42  17  41  30  35  38  26  47  40  21
  24  35  48  42  29  32  26  18  14   4   3  14  21  26  47  57  84 102 115 116 116 123 137 156 165 174 180 184 186 188 193 193 191 194 192 192 194 194 193 197 200 200 197 194 195 190 182 183 184 174 164 154 140 138 138 135 134 128 114 111 106 102 103 100  93  97 106 111 103  94  90  84  73  41  23  38  47  56  41  41  27  26  47  22  35  28  28  35  30  42  46  25
  20  34  47  42  30  32  20  15  17  11  49 105 102  60  59  55  83 110 119 118 104  98  96 114 139 157 160 170 169 166 173 183 183 189 189 186 189 194 194 190 196 197 196 189 189 185 175 174 164 140 131 123 116 111 114 121 124 128 127 130 131 123 116 109  84  76  98 114 110  95  95  95  66  44  27  24  33  32  35  43  26  12  41  31  28  32  27  34  29  39  51  26
  20  33  46  39  34  26  16  17  16  30  93 135 143  93  61  59  92 114 116  98  99 103 111 121 121 127 139 138 136 134 128 142 152 166 173 175 186 189 194 192 195 197 196 184 175 173 162 151 139 120 112 118 118 125 130 126 127 134 142 145 146 142 136 113  93  74  91 105 102 101  96  96  76  44  33  43  37  35  40  56  57  12  24  25  21  27  24  35  34  40  47  24
  18  36  43  27  39  22  11  15  13  42  75  81 112  87  59  69  95 114 108  97 115 122 126 122 119 121 123 128 123 119 113 109 119 128 142 155 167 178 182 192 199 203 194 180 166 157 138 129 122 117 108  96  82  78  80  93 112 133 151 153 156 156 149 126 103  88  86  94  99  98  96 100  71  53  35  62  56  46  49  66  68  23  14  22  19  24  30  36  40  43  48  15
  22  41  44  21  32  18  12  16  14  48  91  72  64  60  53  79 101 112 108 102 118 129 135 131 130 132 126 117 106  98  87  75  79  98 112 120 136 152 170 194 202 204 192 172 152 136 118 114 114 104  70  44  50  73  84  91  88  80  88 124 151 149 141 139 128 106  91  93  94  99  98  99  84  55  42  56  55  45  35  60  67  23  11  14  21  20  27  36  35  37  48   9
  22  42  47  25  24  14  13  20  17  41  95  87  72  56  73  85 103 111 104 108 125 138 144 142 140 133 112  97  99  89  83  76  61  55  75  89  92 117 163 189 202 204 189 165 132 106 102 105 105  80  81 102 112 105 106 114 123 136 104  81 113 132 128 129 128 118 100  89  93  99 106 106  96  79  46  57  52  43  27  58  61  13  11  11  18  18  21  39  34  36  51  13
  22  45  46  27  26  12  10  16  15  38  95 102  86  72  73  76 105 110 103 107 118 134 142 143 123 112 115 105  74  75  88  72  97  92  70  77  73  75 132 179 200 206 192 167 121  97  88 103 101 101 120 136 121  71 116  64  53 110 142 128  92 114 117 115 122 122 107  96  92 105 108 107 101  81  61  49  42  49  39  52  59  19  18   9  19  18  17  40  41  41  54  19
  22  44  45  29  26  10  10   6  11  43 101 112  96  75  68  92 115 112 114 115 111 123 136 108  97 109 115 115  52  61  60  53 100 127  91  99  88  68 129 184 196 207 199 167 118 101  84 116 124 107 116 171 146  81  40  28  66 107 100 102 122 123 122 117 117 119 118 102 100 108 106 104  91  72  70  51  43  60  52  52  63  20  22  22  22  25  16  32  41  39  58  28
  19  40  46  26  23  12   8   1   9  36 102 125  98  77  66  95 114 116 124 132 118 114 107  98 109  72 116 138  74  49  44  68 126 151 108  96 124 112 141 186 204 211 197 166 126 122 121 146 113 116 137 179 170  97  93  82  85 130 133 110 115 125 123 120 115 128 133 121 107 114 106 107  99  74  62  57  62  74  56  58  66  21  21  19  14  29  23  30  40  40  54  31
  20  40  45  28  28  12   6   2  15  34  95 140 109  80  63  84 108 121 131 134 127 116 113 112  98 130 151 160 118 102 131 116 154 151 143 137 152 149 160 189 204 210 191 169 141 137 139 153 164 155 163 178 182 166 152 146 146 160 150 125 119 126 120 115 123 142 148 132 118 119 105 102  94  71  62  51  64  78  72  64  54  24  21  14  19  27  23  21  37  40  47  23
  27  43  46  30  30  13   7  12  28  31  70 141 117  77  69  92 110 126 142 155 134 121 128 125 116 133 158 162 169 166 174 182 175 166 163 169 163 154 168 188 197 200 188 172 148 143 147 157 171 159 158 164 178 190 181 174 163 154 139 134 139 130 131 135 143 154 163 147 123 121 110  94  91  72  57  47  64  87  85  68  38  16  19   7  27  32  25  21  28  39  44  24
  26  42  45  26  23  15   5  11  23  25  50 138 125  77  69  93 115 134 144 167 166 150 145 139 145 151 156 164 170 174 178 175 167 159 165 173 166 162 180 190 195 193 186 171 147 147 148 155 179 181 160 143 149 164 167 162 157 145 138 139 141 143 143 151 164 171 170 153 130 124 114  91  90  86  61  46  48  83  95  63  21  11  19   4  32  34  25  19  25  35  37  29
  27  39  45  23  21  14   8   9  18  26  34 126 130  83  59  81 115 135 154 168 177 173 159 152 149 150 152 163 165 161 157 152 155 172 179 178 171 160 184 196 195 197 186 161 141 150 152 157 176 189 186 175 162 151 147 143 138 137 148 166 176 171 158 167 176 180 174 161 141 123 108  87  90  87  62  49  49  82 100  55  11  10  21  11  35  38  16  18  20  26  27  34
  34  39  46  21  19  12  12  11  20  23  14  91 137  77  58  78 114 140 155 165 179 180 173 173 170 155 144 143 144 151 160 170 184 187 188 183 167 157 176 195 198 198 182 153 140 155 156 157 170 185 193 190 184 178 177 173 161 168 177 180 175 175 171 172 182 181 169 163 145 123 100  88  94  80  64  53  52  86  90  36   6  17  19  25  37  29   7  19  18  20  23  31
  42  43  46  22  19  14   9   9  13  15   1  51 128  70  64  84 116 141 157 170 177 179 173 170 179 180 181 179 179 184 190 191 189 188 188 180 161 151 164 192 197 191 176 148 138 157 159 150 161 182 188 192 191 190 192 194 192 195 188 186 185 176 182 177 177 175 168 157 147 122  97  92  85  81  66  48  50  93  78  23   5  24  12  22  41  28  11  20  22  21  20  25
  50  53  47  23  17  15  10   6   9   8   1  21 103  67  49  80 110 133 149 164 177 187 178 186 185 188 187 183 185 186 190 192 192 195 192 174 156 145 159 189 192 188 173 146 137 158 156 147 156 176 186 192 197 195 195 197 193 192 191 184 187 187 184 179 177 172 166 159 149 117  91  85  78  76  68  43  52  94  83  18   2  29  34  26  37  38  31  23  26  28  25  26
  50  54  49  29  17  14  11   6  10   7   6   7  85  78  56  78 105 132 148 164 171 183 190 193 196 185 188 183 187 188 191 195 196 193 185 168 153 145 161 186 193 186 164 145 139 155 157 152 154 173 181 189 189 190 191 189 196 194 192 187 192 196 182 179 176 170 162 161 144 115  79  73  84  67  51  41  49  90  97  16   1  27  54  45  32  37  39  37  35  17  18  28
  49  54  52  36  22  14  11  10  14  18  17   4  63  85  55  61 101 134 155 161 171 182 188 191 186 183 186 189 188 188 193 194 195 187 181 169 156 155 166 185 192 184 167 150 144 151 154 151 156 173 182 189 190 186 193 192 190 183 193 189 195 196 183 170 170 168 162 158 137 110  75  74  80  69  39  41  51  73  70  10   0  16  52  51  43  35  41  41  43  17  16  24
  49  61  53  38  28  16  15  14  18  25  21   3  44  88  55  58  99 135 154 160 170 178 185 189 188 188 187 184 189 190 193 197 193 183 175 160 148 158 169 182 187 184 171 152 144 138 139 146 154 171 187 192 189 192 192 192 187 188 191 192 190 182 180 168 163 170 155 152 140 109  71  74  69  62  39  36  54  65  42   8   0   2  28  58  49  36  34  34  36  17  12  23
  55  60  53  41  26  15  14  12  15  28  26  14  36  68  59  60  93 135 150 159 167 175 186 192 197 190 190 191 194 197 198 198 189 179 168 158 140 155 169 182 195 191 173 152 138 120 128 143 146 164 186 192 192 196 191 197 192 191 194 190 186 183 181 174 165 164 156 147 131 102  71  74  70  51  32  38  54  64  47   8   2   2   1  25  56  52  43  35  24  20  18  19
  62  58  47  41  25  19  17  19  12  18  31  30  30  52  54  56  90 131 145 159 170 176 186 194 190 189 195 196 194 193 195 196 189 168 160 164 145 158 170 182 200 199 172 155 141 125 154 163 150 150 178 193 192 196 197 198 193 190 193 193 188 186 179 167 165 161 154 140 129 100  71  69  64  50  34  41  53  72  62   7   5   5   2   2  14  43  56  48  49  30  27  24
  71  54  41  33  24  24  26  25  15  17  28  53  45  52  56  47  88 122 140 161 169 179 187 189 186 193 193 191 194 189 186 189 177 152 163 169 158 159 162 180 203 192 173 161 146 146 169 172 161 140 160 185 191 193 197 196 195 190 188 191 187 185 176 165 162 156 148 136 134 104  70  77  58  41  33  35  54  72  62  10   4   7   5   7   4  14  33  48  54  50  36  32
  79  51  42  32  26  28  31  28  19  25  30  42  63  60  52  51  86 113 134 154 164 179 183 185 191 190 191 184 184 184 184 173 158 154 168 174 161 161 169 183 212 208 177 166 148 154 168 165 160 139 151 179 187 190 196 197 191 188 185 186 185 181 175 166 156 153 143 128 125  91  73  80  62  50  38  38  54  73  49  12  14   8  13   9  10  10  25  38  49  56  50  32
  69  47  43  32  32  31  31  31  26  36  37  27  42  53  54  55  80 103 127 145 158 171 180 182 183 186 182 179 178 178 170 167 160 150 165 167 153 163 181 194 210 211 185 161 143 152 159 157 145 126 142 172 178 184 190 192 192 193 189 181 182 179 173 163 154 147 139 115 108  89  74  67  59  54  43  39  58  75  32   7  21  18  22  10   8   8  15  22  34  45  59  47
  59  51  42  38  37  35  33  30  32  45  45  31  30  38  56  60  71 100 118 135 153 167 176 178 176 176 172 170 168 170 172 178 174 131 112 119 133 144 177 192 190 190 177 140 129 136 109  99 115 108 121 171 179 180 187 185 191 185 183 181 179 176 168 158 146 136 132 113 104  89  75  66  60  61  57  47  57  63  19   3   4  13  23  14   6   4   8  18  18  19  35  54
  58  49  45  43  37  35  34  30  37  55  49  41  36  35  49  52  71 100 110 124 141 157 162 169 164 160 155 161 164 165 176 182 166 116  53  28  63 127 159 181 186 190 162 129 108  51  16  39  82  70 113 168 188 189 184 185 181 180 181 180 174 172 166 157 143 129 125 115 109  99  77  69  63  65  54  46  52  44  11   6   2   7  11  11  10   5   5  11  15  15  14  37
  46  46  49  39  38  40  33  35  54  57  47  46  45  38  42  42  65  96 102 118 133 147 154 154 146 136 152 163 171 168 173 169 147 115  81  47  25  82 149 164 160 159 145 121  51  12  27  52  61  76 129 164 180 188 190 188 176 167 174 174 171 170 162 152 140 128 125 120 110  99  76  69  66  56  57  43  32  10   4  10   6   8  16  24  13   6   6  10  13  15  16  27
  38  42  50  41  46  42  37  55  60  56  43  43  40  39  47  53  60  94 107 115 128 139 143 137 132 154 163 160 144 143 141 136 135 123  93  64  54  57 108 137 136 144 134  78  39  46  59  82 111 116 132 163 161 172 179 176 178 169 157 150 171 170 156 147 133 129 126 124 109 100  80  76  56  39  45  54  22   4   6   9   8  23  25  21  12   7   9   9   6   9  19  27
  41  38  56  53  47  44  56  71  66  50  38  38  38  42  54  54  56 100 112 113 123 133 131 126 148 166 154 116 103 110 112 118 118  98  86  69  68  57  51  78 106 119  90  48  50  66  65  68  96 114 111 136 145 145 142 142 152 168 171 142 149 162 149 141 127 131 132 125 117 107  78  74  60  53  46  34  28  11  10  15  24  33  26  29  24   6   7   4   5  12  20  29
  56  58  62  47  35  48  65  67  46  39  40  42  56  42  46  46  57  95 110 118 118 129 124 132 147 148 102  80  85  94  95 106  93  90  80  67  73  70  67  53  69  75  58  55  63  64  70  64  69  98  99 103 115 115 109 115 120 134 154 152 140 158 154 141 122 134 142 125 113 106  88  78  62  57  63  34  23  11  12  29  52  61  45  30  15   8   3   2   9  22  23  40
  68  60  38  24  28  51  57  47  43  38  30  37  47  37  54  50  50  86 119 119 120 131 131 128 122 100  74  78  88  86  85  91  70  66  57  69  87  83  85  63  79  73  68  66  73  72  71  76  70  80  85  80  88 100  97  95 100 101 117 133 141 148 154 137 123 131 141 131 117  97  81  88  72  47  45  32  28  20  24  55  68  60  38  14   4   5   5   1   7  24  39  59
  75  47  25  25  32  51  68  71  51  22  16  32  41  42  65  42  47  86 114 120 120 132 118 115 102  79  71  85  88  78  82  65  59  46  59  79  80  84  90  77  79  80  81  83  79  68  72  70  80  70  64  74  78  77  81  84  91  87 102 117 115 122 145 137 118 138 142 129 118  91  75  73  73  55  49  39  34  37  30  40  42  34  23  11   2   2   5   6  10  34  59  43
  62  49  35  37  34  45  58  45  25  20  15  29  43  53  61  35  53  88  96 115 112 117 105  90  84  81  76  89  77  76  72  68  64  59  62  70  75  97  91  76  81  98  94  86  85  81  79  71  81  83  68  66  84  89  79  75  62  76  67  96 104 110 136 132 112 147 140 122 119  82  70  70  67  53  57  56  39  38  28  21  16  24  19   2   0   3   5  14  43  67  54  34
  43  41  41  53  61  40  29  34  40  40  28  38  47  56  60  49  53  70  82 103 104 106  98  80  83  68  66  60  51  73  86  81  73  69  69  92  94  87  86  93 110 113 103 105  84  78  77  79  77  89  75  75  83  93  89  69  62  68  62  76  87  89 123 129 116 152 145 109 112  78  57  66  58  52  50  41  54  45  44  34  22  20   3   1   3   4   4  23  42  27  31  38
  39  33  39  60  77  56  40  43  38  34  34  55  46  46  49  49  46  55  85 110 102  90  80  76  72  64  60  46  32  43  59  56  59  54  57  62  67  66  76  91 125 136 117 110 102 101  95  91  95  93  83  82  82  78  77  67  64  68  64  64  88  88 114 121 111 136 143 107  88  75  55  64  50  57  54  43  50  51  36  28  37  12   0   6   7  10  21  51  39  22  23  29
  34  37  48  64  69  58  46  42  31  28  43  44  32  45  43  52  39  60  79  98 100  81  79  85  71  59  55  57  64  68  69  64  54  47  53  70  92  83  74  78  90  93  86  76  70  71  67  60  57  50  54  45  44  39  34  41  53  58  65  67  80  83 103 100  95 117 127 112  74  62  55  57  47  52  58  51  55  56  47  37  25  16   2  11   4   5  20  46  55  48  29  28
  37  36  37  48  54  63  69  60  41  23  38  42  31  38  38  50  40  40  54  74  80  71  81  87  65  61  69  79  91 111 106 106  93  93 109 126 142 143 138 150 159 159 150 134 122 113 103  92  77  74  66  61  62  69  69  58  58  73  71  65  69  75  89  84 100 111 109  99  63  52  52  47  47  48  50  46  44  40  45  38  36  16   9  13   8   6  18  23  31  40  34  33
  39  42  36  33  52  71  60  51  47  27  42  48  41  40  39  47  44  43  42  58  67  73  82  66  68  76  86  82  94 118 137 127 120 118 116 110 112 124 122 133 131 139 145 142 144 144 143 122 114 110 107  98 101 102 106 101  77  75  88  70  65  71  78  82  97  98  82  75  76  50  46  43  44  54  58  45  38  38  44  39  27  17  20  24  16   9  20  35  40  41  32  27
  39  41  37  38  46  45  55  49  36  35  40  58  52  41  46  54  44  39  55  68  60  68  73  71  71  84  92  83  93 116 120 119 120 120 113 100  98 104 107 109 102 106 110 114 123 121 118 107 111 116 120 121 115 111 108 108 105  87  76  83  71  63  68  79  90  81  69  57  58  51  42  34  46  46  48  42  30  35  34  37  35  17  18  21  20  16  25  31  26  30  29  25
  38  37  37  39  37  40  47  41  40  44  40  48  66  52  42  44  50  49  62  59  57  66  64  74  77  79  74  87 118 111 111 111 112 115 104  90  96 101  92  93  92  96 104 103 108 114 117 116 112 119 131 124 116 108  94  92  88  98  76  73  80  57  59  74  88  78  68  50  49  47  40  36  44  45  40  39  34  38  30  35  47  22   9  18  24  19  24  30  23  17  23  31
  39  37  37  37  34  36  41  39  30  31  34  41  49  46  43  42  42  47  58  57  66  57  64  76  61  75  76  95 109 110 114 118 113 103  98  92  88  86  87  93  90  97  91  91 108 110 109 120 119 114 107 106 102 102  98  85  80  71  71  60  44  53  55  67  73  71  65  65  51  42  37  43  43  40  40  46  40  35  37  33  33  35  29  25  19  11  16  22  25  23  24  27
  37  37  34  35  33  33  37  33  34  36  57  71  54  40  45  46  43  57  63  61  61  59  75  57  53  67  87  91  95  97  94  92  86  84  95  85  78  83  84  81  90 105  82  89  93  94  98 109 116 113 100  91  97  98 105  87  80  73  64  58  42  57  64  56  61  77  64  62  56  42  30  28  37  38  36  35  35  38  29  22  27  16  17  13  14   9  12  15  24  28  26  24
  36  37  35  36  35  37  36  40  36  43  56  64  48  38  51  53  47  56  56  62  56  56  66  49  64  73  82  80  85  70  83  93  84  90 100  89  82  80  79  93  96 108  91  79  92 100 103  98  92  93  97 112  96  92  92  89  71  73  56  55  47  57  60  53  57  70  65  50  46  54  37  23  35  45  34  30  32  37  39  27  18  10   1   1   2   2   8   7  13  22  23  21
  40  40  38  38  36  36  36  26  19  30  40  46  46  36  41  45  51  57  64  63  52  49  55  58  74  82  69  76  77  81  96  85  84  96  96 102 102 102 101 105 102 114  92  84  98 106 107  95  91  92  88  98 100  86  90  84  75  64  60  51  47  52  49  53  54  63  63  51  39  42  48  44  40  40  45  35  28  35  34  33  13   2   0   0   0   0   3   3   1  12  22  23
  41  40  39  36  36  32  32  26  20  34  32  36  37  40  36  49  50  52  61  49  47  57  51  54  69  65  59  66  77  87  79  79  82  87  92 112 113 121 123 115 110 116  98  99 100  92 108 108  85  85  94  81  83  90  84  78  66  52  59  55  57  50  49  50  56  56  49  42  40  38  40  46  45  41  35  42  45  38  31  25  15   2   4   5   5   1   0   0   4  18  23  23
  43  39  37  34  32  30  33  37  21  30  40  44  35  38  36  50  55  41  45  51  50  52  50  48  50  51  63  66  78  77  67  85  90  83  84 102 115 114 117 103 122 120 106 101  96  92  93 107  94  78  88  78  77  71  61  76  63  50  64  64  62  63  44  43  68  65  46  42  42  36  36  42  45  51  43  39  44  37  33  25  22  20  15  16  18  11   5   8  17  24  23  22
  45  41  38  35  32  31  36  40  30  31  41  42  38  45  44  45  52  55  60  52  60  51  42  59  62  71  66  70  71  68  71  87  87  79  90  94 103 107  97 101 113 107 109 105  94  81  89  93  86  78  73  92  75  68  65  64  59  52  62  64  44  50  42  41  55  63  57  43  36  45  46  48  43  43  41  43  39  34  32  22  20  18  16  18  20  18  20  21  23  22  21  21
  43  40  37  34  31  29  32  37  37  34  37  35  38  48  46  46  60  63  53  60  49  57  58  56  62  61  68  70  64  77  80  78  75  82  86  96  95 109  91 105 108 100 101  99  94  81  86  80  84  79  63  71  66  73  68  64  67  54  68  60  48  42  43  35  37  57  53  51  38  41  46  42  40  45  43  48  39  30  19  10  12  19  19  20  22  20  21  22  22  22  21  21
  42  39  36  33  30  30  32  35  36  36  33  36  38  40  46  56  61  62  53  52  48  50  62  77  70  65  67  60  61  65  75  66  67  71  77  85  85  95  96  99  98  95  93  93  98  91  87  79  82  77  68  68  60  67  66  60  70  63  54  44  54  51  50  47  30  46  61  53  55  34  49  43  44  51  42  36  40  34  14   7   6  11  20  19  21  19  21  22  22  21  21  23
  41  37  33  32  31  30  33  35  36  37  37  39  46  52  58  59  58  54  49  51  46  63  74  76  63  64  62  56  68  56  61  61  67  66  76  74  90  85  88  91  86  86  89  96  96  81  78  83  82  74  57  67  58  54  59  59  56  47  47  41  42  45  54  44  42  51  56  52  53  52  56  53  45  36  38  46  41  22  14   0   0   2  11  20  20  17  20  20  20  21  20  22
  41  37  33  32  31  30  34  36  35  33  35  40  50  53  51  46  52  44  32  46  55  60  64  63  50  46  56  68  73  64  61  65  67  66  68  72  79  71  72  78  71  78  85  83  84  77  64  69  79  61  52  65  58  54  43  63  63  58  49  42  44  47  44  34  42  41  49  46  44  48  45  52  44  44  39  41  31   8   7   6   0   0   2  13  20  19  18  20  21  21  18  22
  40  37  33  32  29  30  33  34  33  32  31  28  31  37  45  48  54  44  32  45  55  58  64  41  45  50  57  61  57  67  58  60  70  64  77  79  67  63  72  71  71  77  68  77  73  67  64  61  62  58  67  71  56  51  42  51  43  58  58  38  37  35  38  45  50  43  40  43  42  45  39  44  50  55  43  19  29   6   4   4   0   0   1   3  11  16  19  20  20  20  18  22
  40  37  33  28  27  29  31  33  33  32  31  27  31  35  46  56  55  50  47  49  52  51  55  66  61  59  60  58  60  55  49  55  67  63  64  73  73  72  66  64  69  68  61  73  69  68  67  59  60  59  62  54  67  52  48  51  47  46  52  36  38  29  36  47  50  43  46  53  47  45  51  52  49  48  42  26  22   7   0   0   0   0   2   3   3   4  11  18  21  18  18  21
  40  37  32  29  27  29  31  34  34  31  30  28  30  35  35  43  45  52  54  49  50  48  52  70  62  64  50  63  61  44  60  59  58  57  64  68  55  58  57  58  55  57  69  65  58  63  60  55  57  68  56  46  60  55  52  60  52  54  51  55  44  39  43  50  56  53  47  50  43  31  43  45  37  35  39  33  18   5   0   0   1   1   3   3   4   5   5   9  19  18  18  21
  41  38  33  28  27  29  31  33  33  31  28  30  36  38  37  30  32  41  47  49  49  57  51  50  61  53  48  59  54  62  64  59  53  50  58  58  54  57  58  51  48  57  59  48  46  54  49  49  57  66  51  42  54  52  45  56  49  58  56  60  45  50  46  38  46  58  40  36  50  45  37  44  44  38  34  35  29   2   0   1   3   4   4   5   5   5   5   5   7  15  18  18
  43  38  33  29  27  28  31  33  31  33  29  29  29  22  27  23  32  36  42  42  44  52  47  58  56  53  50  50  54  57  57  59  56  51  54  54  60  57  52  48  43  51  52  52  47  52  41  43  52  65  61  48  55  53  65  64  61  48  50  64  51  47  48  45  42  50  51  46  62  54  49  63  54  46  38  36  43   8   0   2   4   5   8   8   9   8  11  13  10  11  16  18
  42  38  32  29  27  27  28  32  34  33  26  15   7   3   3   8  24  35  37  42  49  54  45  56  56  54  55  59  54  56  53  53  42  58  52  52  55  51  52  50  51  51  56  59  53  55  57  49  47  51  61  52  51  57  57  56  53  54  47  50  61  44  37  40  41  39  49  51  67  73  63  69  62  57  49  43  54  13   0   5   7   8  11  12  15  13  13  18  18  14  14  16
  37  35  33  29  28  27  27  28  25  18   9   2   0   1   0   1  10  31  35  45  42  43  56  58  53  55  52  44  53  50  49  60  47  59  54  51  50  45  47  45  42  39  55  62  57  47  60  64  46  42  49  53  55  70  54  58  50  46  44  46  59  50  43  40  44  41  52  54  69  87  88  88  79  82  77  61  68  12   0   8   9  11  14  14  17  15  16  19  18  17  16  16
  34  31  32  30  27  22  16  10   6   2   2   2   1   0   0   1   5  11  22  42  46  51  65  66  56  46  31  37  48  56  49  51  49  59  50  44  60  42  36  54  40  33  50  57  46  44  53  59  52  59  54  52  54  68  59  57  54  45  39  40  44  57  66  59  52  50  50  56  69  93  99 104 106 101  96  86  79   8   5  12  11  13  17  18  19  20  18  17  17  21  20  18
  31  29  28  23  15   8   5   3   4   3   4   4   2   1   2   9  13  21  20  33  46  57  51  53  51  47  48  53  48  49  59  50  45  52  45  50  55  48  38  59  54  44  52  43  44  45  44  53  54  55  56  51  45  54  59  61  67  51  42  43  45  45  52  46  56  62  66  64  62  80 101 113 126 112 105 117  88   4   7  15  15  15  20  21  20  22  19  16  19  22  21  19
  25  21  14  10   6   5   7   8   6   5   6   4   2   2   2   2   1   9  18  35  33  42  51  54  60  56  50  60  60  56  53  45  57  53  45  45  44  58  59  56  57  47  56  49  37  51  51  38  43  47  54  52  47  44  63  67  55  56  40  41  43  40  39  43  54  70  78  72  74  83 112 122 130 127 127 147  83   2  12  16  17  20  20  21  22  22  22  20  19  19  21  20
  12   9   9  11  10  10  11  10   8   7   8   6   5   2   2   0   0   2  12  38  40  52  56  60  50  52  49  50  63  60  51  52  59  50  52  52  48  44  49  54  47  50  48  52  43  40  57  51  34  45  51  54  43  38  56  63  49  45  48  43  39  44  47  53  64  83  89  82  83  84 109 122 137 151 148 169  77   3  15  20  20  21  22  21  22  22  22  23  20  20  22  22
  12  12  12  12  12  14  14  11  11  11   9   7   4   3   1   3   7   8  23  27  50  56  61  58  49  45  38  46  55  48  47  57  52  44  63  62  41  40  46  52  37  53  49  49  52  39  46  51  36  40  48  49  46  42  41  60  56  44  45  48  44  34  55  84  88  91  85  86  98  98 115 130 153 151 152 158  58   6  18  22  26  24  25  21  23  26  22  23  22  21  21  20
  15  12  13  14  14  14  14  11  12  12   9   6   4   5   2   2   6  12  26  42  60  63  67  53  48  53  49  60  54  44  46  53  56  50  53  57  49  47  47  49  56  50  51  50  47  43  46  49  49  43  53  49  46  47  39  55  66  50  44  43  44  43  60  85  80  85  95 102 107 121 125 137 154 156 166 163  36  11  20  22  28  25  22  22  22  25  23  22  24  23  22  21
  19  16  17  17  15  14  14  11  12  10   7   7   6   4   4   2   2   2   0  37  90  75  54  53  44  52  59  55  47  55  54  56  56  56  45  50  54  47  45  50  46  40  48  53  42  45  39  43  62  59  47  52  44  54  48  57  62  47  50  41  32  60  57  65  75  90  98 103 119 136 133 148 156 159 162 145  21  15  24  25  26  26  24  27  26  27  26  23  26  25  22  22
  19  18  18  18  15  14  15  13  11   6   7   8   8   7   6   4   4   3   1  68 117  84  57  52  50  50  50  45  45  50  57  54  59  53  55  48  48  50  48  50  36  40  43  49  45  45  49  43  43  57  49  46  48  51  61  63  55  44  41  32  36  66  70  68  64  85  90 101 124 141 140 159 156 161 171 123  11  20  24  27  29  29  27  28  28  26  24  24  25  24  21  20
  21  20  20  18  15  14  15  13  13   9   9   9   9   7   7   6   3   2  12  93 120  74  57  43  55  60  57  61  53  43  59  58  52  45  51  47  57  52  49  51  46  45  47  48  52  46  48  43  47  53  45  47  59  53  54  64  60  43  26  26  45  60  66  76  73  75  87 105 123 140 158 172 157 159 182  93   9  23  25  30  31  29  27  26  29  27  24  26  23  22  22  22
  20  22  19  18  17  15  14  13  13  11  10  10  11  11   8   6   4   1  42 140 150  77  50  50  54  57  52  53  54  48  59  57  48  48  45  49  56  49  46  47  51  45  50  51  53  44  44  46  50  56  43  45  53  50  57  58  52  38  18  43  72  77  84  99  89  87 105 122 142 152 168 181 173 172 182  65  12  23  27  27  27  27  30  25  27  28  25  25  22  22  24  22
