P2
# Generated by OpenCV 4.2.0
92 112
255
  48  49  50  49  47  50  50  51  50  51  51  50  50  51  50  49  50  50  50  52  51  46  56  70  70  58  56  59  87  71  59  59  62  51  55  51  52  58  53  50  45  42  76  91  80  65  86  81  59  57  66  67 112  71  55  59  57  62  97 139 133  94  69 104  90  84  83  75  85 143 170 155  87  57  54  53  54  54  54  54  55  55  54  55  55  55  55  57  56  56  56  55
  51  50  49  50  50  48  50  51  51  51  51  50  49  50  50  50  49  52  52  52  51  62  71  63  57  61  64  61  69  72  62  59  55  44  46  50  47  42  35  35  36  46  88  92  53  62  89  55  53  60  62  84  81  66  65  58  61  86 121 119 104  80 110 105  96 103  79  79  63 105 135 146 129  66  52  54  54  55  55  56  55  55  56  54  55  57  55  55  57  57  56  55
  51  50  51  50  49  51  51  51  51  52  50  50  51  51  51  52  51  51  52  59  72  71  58  57  61  59  53  52  48  56  48  48  49  38  42  51  53  38  33  38  34  36  76  71  61  76  69  47  58  61  70  63  52  68  72  68  77 111 111 114  90  94 123 117 130 100  73  67  73  63  93 115 113  75  53  56  56  56  57  56  55  55  55  54  55  56  57  56  57  56  55  57
  50  51  51  51  51  52  52  51  52  53  51  51  51  51  52  52  53  53  52  64  64  55  54  54  54  43  36  34  35  42  39  50  47  35  35  60  56  43  39  40  39  38  62  50  63  67  60  62  58  69  67  53  59  71  75  74  92  95 104 105 104 123 128 132 117  87  68  58  69  50  72 113 115  77  54  58  58  56  59  57  57  57  58  56  56  55  56  56  57  56  56  57
  50  52  52  52  52  52  51  50  52  52  52  52  51  51  52  53  54  52  45  43  46  54  49  44  41  30  28  33  40  48  49  49  42  29  35  64  47  50  32  55  61  40  59  64  50  63  51  61  64  74  70  55  61  70  76  88  97 103 116 103 122 142 140 131  85  72  73  67  72  54  86 120 134 108  70  72  69  60  59  56  57  59  59  57  56  57  56  56  55  56  57  58
  50  51  51  52  52  52  53  51  51  54  53  52  52  53  53  53  53  52  52  49  47  45  36  32  33  29  30  34  43  52  64  57  38  28  57  54  55  57  39  63  66  49  44  62  51  59  59  56  66  81  87  58  62  66  75  95 100 111 116 123 135 152 141 118  74  72  74  65  72  84 115 114 118 114  79  80  72  63  64  61  59  58  58  59  55  57  58  60  59  57  57  58
  53  52  52  51  53  53  53  51  52  52  52  52  53  55  54  55  54  54  55  55  59  48  30  26  30  29  27  24  29  38  54  63  41  35  62  55  55  58  57  53  59  54  48  66  65  60  68  56  65 104 122  73  64  71  73  97 101 102 109 132 142 146 138 126  76  66  75  66  96 106  95 113 132 135 132 138 124 112 102  83  66  60  59  58  58  57  60  61  61  59  59  60
  53  52  53  53  53  53  52  53  53  53  53  53  54  56  56  55  58  56  56  55  52  35  24  21  24  21  23  27  33  38  45  49  47  48  69  54  52  52  62  37  57  56  63  75  80  69  79  68  67 102 133  93  77  82  70  87 106 106 112 124 140 134 130 122  80  71  75  93 105  81 113 120 117 136 163 166 158 162 167 154 123  77  61  59  58  59  60  61  59  59  60  60
  52  52  53  55  55  53  55  55  54  54  56  54  53  56  54  57  58  56  54  50  42  30  23  21  24  26  28  38  68  63  61  58  54  57  74  59  51  57  59  44  49  49  70  82 112  65  89  87  88  87 126 110 104  95  75  89 118 119 122 120 137 128 135 116  92  73  89 103  92 117 108 104 131 140 145 145 126 106 103 110 139 146  91  64  64  58  62  62  58  60  60  60
  53  52  53  54  54  54  54  55  54  55  56  57  56  57  56  54  50  50  51  54  42  28  27  26  27  28  33  49  58  54  62  64  69  60  65  66  47  52  70  57  43  59  64  70 143  84  98 105 113  89 128 150 113 128 104 105 135 130 143 128 138 130 131 114  95  83 102 105 118 119  99 139 135 125 114  82  61  60  65  63  56 119 151  93  77  74  60  61  60  60  60  60
  54  54  54  53  54  53  53  53  54  56  56  57  57  58  59  48  41  42  45  46  34  25  23  29  32  38  51  56  52  56  59  66  83  68  51  55  57  44  61  78  64  66  63  67 147 111 112 131 111  99 109 157 107 117 134 123 130 147 158 146 150 140 134 110 111  97  94 134 137  96 119 149 129 117 111 103  98  98  98  89  57  52 121 144  79  78  67  59  60  62  63  62
  52  53  54  53  54  54  55  55  55  56  57  53  51  54  43  31  33  34  36  36  29  21  24  29  41  47  61  53  47  60  55  64  75  59  41  50  60  59  60  80 103  89  50  52 135 143 128 145  82 103 106 168 123 115 114 121 124 157 163 167 169 160 157 116 130 105 107 162 132  92 145 144 114  97  96 122 156 166 162 143 110  59  63 131 122  68  71  61  62  61  62  63
  54  54  53  53  54  55  55  55  55  56  49  46  42  28  20  26  28  32  36  34  36  44  55  63  71  53  32  43  44  38  61  63  69  62  46  48  57  57  66  72  91  91  62  63 108 157 131 128  64  90 114 158 152 111 105 122 130 160 176 190 191 163 150 100 138 127 110 158 138 104 147 107 100  89 124 155 121  84  99 100 114 116  94  75 122  80  65  69  61  59  60  62
  53  54  53  54  56  55  54  57  57  52  45  44  28  24  25  29  32  37  42  47  58  71  85  93  71  64  30  32  49  33  60  54  61  69  52  50  50  66  70  58  63  82  61  69  77 122 117 101  50  82 126 159 169 116 111 129 135 151 162 188 199 158 141 102 131 120  92 138 147 111 111  98 110 137 142 117  83  69  61  44  36  59  96  99 109  97  64  69  65  62  61  61
  56  54  55  54  56  56  56  59  59  50  44  35  30  31  31  31  32  36  42  48  57  70  82  71  59  73  65  35  51  50  69  65  49  62  64  48  56  78  94  87  63  80  73  60  69  91  97  81  63 105 108 146 151 124 119 135 120 132 151 173 202 149 121 109 123 106  83 122 134 112  92  93 107 118 117 109  86  80  85  75  55  31  44  85 125 108  67  63  67  65  62  61
  55  56  55  55  56  58  59  59  56  48  46  30  27  27  32  32  32  34  37  41  51  70  75  66  74  75  75  62  49  73  69  73  62  54  65  67  69  83  74  80  87  79  76  57  54  76  96  95  90  94 112 145 139 135 117 133 120 115 141 150 177 144 119 120 117 110  92  96  98 102  65  80  93  81  73  92  85  85  81  94 111  92  62  56  77 129 100  62  64  66  64  62
  58  56  55  55  56  56  57  59  60  52  39  26  26  29  30  31  32  29  32  40  41  44  51  56  71  61  60  72  77  77  64  60  62  58  62  72  86  91  81  78  83  82  75  69  70  76  88  97 108 123 121 120 136 162 119 131 121 122 128 144 160 148 150 139 126 122 104 103 102  81  59  81  79  55  47 104  84  93 110 147 158 142 111  76  48  88 130  88  60  64  63  64
  58  56  55  56  57  56  57  60  59  41  27  27  24  21  23  28  32  35  40  46  48  53  61  81  76  67  92 102  86  68  64  60  63  67  71  79 103 117  94  80  86  76  83  95 102  84  84 105 118 119 106 107 141 140 124 132 119 131 136 152 157 166 179 172 156 144 120 109 105  75  68  69  61  44  78  91  87 123 149 115  85 114 130  93  69  64 108 115  70  61  63  64
  58  57  56  57  58  56  57  59  48  31  22  22  22  26  28  27  28  32  37  41  52  56  58  62  78 101  97  79  67  80  83  71  74  78  85  93 101 103  93  90  89 101 103 114 115 100 101 115 119 118 111 111 121 107 163 154 137 151 163 158 166 189 197 198 190 176 147 120 104  81  74  61  64  63  70  74 101 106  93  70  69  85  82  71  58  69  93 114 105  70  66  63
  57  57  55  55  57  58  54  45  42  30  18  15  16  21  31  34  31  35  38  41  46  52  61  82  95  74  61  82  94 103  93  79  78  91  99  96  92  98 104 105 109 120 132 133 146 135 127 116 125 133 118 116 119 145 166 161 154 168 182 179 189 199 205 203 202 198 189 157 133 106  83  77  79  64  73  83  64  51  49  60  86  86  75  69  39  54  94 110 111  75  75  70
  58  56  56  56  58  59  58  53  50  33  10  19  18  17  24  34  35  37  39  45  47  54  71  74  67  73  85  96 118 117 120 126 108 109 120 123 125 124 137 140 137 141 151 150 161 164 151 138 141 144 141 147 148 151 162 157 171 176 181 196 196 198 209 208 207 206 202 198 177 154 129 102  78  80  81  62  48  34  40  58  67  62  82  78  52  26  75 100  93  70  71  69
  55  56  58  58  58  58  59  62  57  35  21  19  21  27  28  34  40  46  47  42  47  62  68  59  64  81  93 122 137 139 151 156 146 136 139 139 148 152 153 163 167 163 170 172 172 178 172 168 167 163 171 169 168 169 171 173 178 180 188 198 201 203 206 206 207 209 207 205 198 183 171 135 106  91  72  69  81  71  49  53  69  54  72  92  73  33  60  88  79  66  64  65
  58  57  56  56  58  57  58  57  50  48  23  16  20  25  33  35  40  45  40  49  60  58  56  59  64  86 123 140 143 150 158 158 157 158 156 161 163 162 165 174 178 179 179 179 179 185 192 193 185 190 192 190 191 188 186 183 187 190 201 207 208 209 207 207 206 210 208 207 206 201 195 184 145 110 100  92  91 104  94  73  69  71  64  82  65  32  38  78  78  71  66  67
  55  57  56  56  57  56  58  53  38  26  18  20  21  23  29  33  32  37  47  49  41  38  43  45  74 115 134 147 152 153 157 158 162 163 162 162 161 163 168 176 175 177 179 173 175 187 193 197 198 201 198 197 199 196 201 201 199 202 205 207 209 207 205 204 206 207 209 205 207 210 207 207 177 125 115  96  91 103 115 127 132 117 119 138 103  72  47  67  73  74  67  66
  60  57  57  56  58  59  59  46  29  25  21  17  19  25  30  34  37  44  50  52  48  49  50  69 106 127 142 152 155 155 157 158 163 163 159 158 155 158 166 171 172 169 172 171 175 182 193 197 199 203 202 199 203 200 201 205 202 203 203 207 205 204 207 205 204 205 206 207 206 206 210 213 199 155 122  97  92  95 103 113 113 102 136 141  98  88  68  60  73  70  68  66
 116  77  55  75 111 123  94  54  22  27  23  22  23  21  23  28  35  35  30  42  57  57  63  89 123 137 147 154 155 153 154 156 156 157 153 156 157 160 166 169 170 174 173 173 180 187 192 194 197 201 201 197 201 200 199 204 203 202 202 203 202 205 206 205 205 206 207 207 208 209 211 214 211 175 134 102  87  90  98  84  81  91 111 111  94  87  75  57  67  70  66  67
 161  96  58 116 175 183 138  67  18  25  27  26  20  23  31  37  46  48  46  41  50  59  68 103 129 147 155 155 150 149 154 156 152 153 153 153 157 160 161 167 171 170 173 175 184 193 191 194 199 200 199 198 197 199 201 200 202 202 202 204 205 207 207 208 207 207 208 208 210 210 210 212 215 201 142 104  92  93  82  84 102 124 123 122 104  85  74  62  56  70  66  67
 167  96  63 136 192 187 161  67  16  24  18  20  24  35  41  40  43  41  41  31  34  49  88 119 138 152 155 153 153 151 154 151 150 151 153 155 155 157 156 163 167 167 176 176 182 195 198 199 203 202 199 197 197 199 198 200 202 202 199 200 205 208 209 208 212 210 207 208 210 208 209 212 214 212 170 122 113  85  83 109 110 124 133  96  73  78  70  69  74  71  67  67
 165  93  71 149 190 186 134  31  15  17  15  19  31  41  35  26  25  30  33  30  30  62  98 125 143 149 155 154 153 150 152 147 150 152 150 151 154 155 160 164 164 168 175 178 185 199 206 208 208 200 198 200 198 197 199 199 199 200 200 201 202 208 211 211 212 211 210 211 211 210 210 210 212 212 196 129  88  79  92  95  99  91 118 128  90  86  76  74  72  68  67  66
 167  93  82 160 185 178  51   5  21  17  18  28  40  29  23  24  35  34  37  34  38  71 105 126 142 146 152 154 154 152 151 152 152 151 153 151 154 157 160 160 167 168 175 183 190 202 208 214 214 200 197 202 200 197 203 201 197 200 198 204 206 209 212 211 209 210 210 211 212 211 210 211 211 203 198 169 126 117  99 106 108 131 124 107  96  87  76  67  71  66  68  66
 164  91  96 171 177 164 109   9  25  21  20  38  31  21  25  34  33  38  39  38  49  83 109 125 138 144 150 151 151 153 152 156 155 154 152 149 154 156 159 163 167 173 180 185 196 208 213 219 220 204 202 200 198 201 202 202 201 199 201 204 210 214 217 214 215 215 215 212 212 212 210 213 214 209 196 179 158 139 140 130 132 125 135 108  97 101  97  72  70  73  71  67
 161  93 113 180 164 145 162  40   9  24  29  37  30  31  43  40  38  34  46  42  54  81 104 126 138 143 149 150 149 152 152 152 151 151 149 150 151 158 159 165 171 179 181 182 192 205 212 215 215 207 202 199 200 199 199 199 201 200 200 203 212 217 217 216 218 219 215 213 213 209 209 213 215 212 204 177 154 156 148 113 101 110 130 131 134 121  93  74  76  75  73  68
 159 100 129 181 158 135 155  75  28  19  31  35  28  34  39  38  45  41  48  49  49  76 102 123 138 142 147 151 150 154 151 149 150 149 151 154 153 157 161 163 167 176 179 183 183 191 202 203 202 204 203 200 199 199 199 198 201 201 201 209 215 218 222 221 217 218 217 217 213 210 210 215 216 211 204 185 152 116 112 127 107 109 141 154 123  96  79  79  76  77  76  69
 158 108 138 187 180 175 172  70  20  17  24  26  24  33  40  38  33  41  54  50  46  72 100 121 135 141 143 149 151 151 148 152 151 151 154 152 152 157 162 164 168 173 174 181 183 191 202 206 199 198 204 202 199 201 201 202 203 202 204 209 217 218 222 223 219 217 217 216 212 213 216 217 218 210 203 196 166 132  98 114 129 115 135 140  95  82  73  75  74  81  82  68
 156 120 158 197 192 179  87  33  26  22  21  20  28  45  46  39  37  42  56  48  45  70 101 124 136 138 142 149 151 150 152 154 152 150 149 151 150 152 154 155 158 161 165 169 176 180 189 196 195 195 200 201 202 200 200 199 198 200 201 205 212 220 224 220 216 218 218 217 214 217 218 217 219 214 205 194 160 139 133 126 137 138 141 129 113  96  70  67  73  78  82  72
 157 135 173 191 164  74  24  31  25  24  22  21  36  44  30  29  35  37  46  49  51  68  98 124 136 138 140 144 150 152 155 154 148 147 148 149 147 148 150 154 158 159 165 167 167 171 176 185 184 185 190 194 199 198 196 194 192 196 199 203 209 211 216 212 210 217 218 219 215 216 218 217 217 212 203 195 166 130 129 129 146 148 112  92 104  91  79  71  76  73  77  75
 137 134 162 162  77  30  63  36  29  26  20  31  42  33  27  29  32  41  48  48  52  72 106 126 138 136 137 144 151 154 155 154 149 149 150 150 148 155 157 162 168 173 175 167 164 172 175 180 183 186 187 191 195 194 191 191 192 190 195 205 214 214 215 210 210 217 220 220 216 217 218 217 216 213 201 193 165 137 135 136 125 122  98  93 120 113  99  84  78  73  72  70
  82  85 104  85  21  57  49  27  28  29  28  37  36  28  36  42  33  34  45  48  54  72 103 120 133 133 134 144 152 155 157 158 154 151 150 149 147 153 159 165 174 179 183 172 167 163 169 175 179 183 186 190 192 192 188 190 192 189 191 197 208 213 216 216 216 219 220 219 218 216 217 215 213 211 201 189 155 138 123 112 102  93 115 127 117 105  96  80  90  79  72  72
  59  59  61  35  38  53  24  34  41  33  30  28  22  27  30  34  25  39  46  42  52  69 101 125 129 133 135 144 151 152 156 156 155 152 150 151 150 155 161 165 174 181 185 179 175 170 171 171 174 177 181 186 187 189 190 187 188 190 191 194 204 213 217 218 217 220 221 218 221 217 215 213 213 210 197 185 154 104  91  96  96  95 102 107  95  85  82  79  83  85  81  72
  63  61  58  34  53  35  27  44  44  30  24  21  17  17  12  20  32  36  48  43  51  72  98 127 135 128 134 143 146 152 158 154 156 155 152 150 153 160 168 173 183 191 195 191 189 183 181 182 182 185 187 193 197 197 197 195 191 192 197 198 203 211 214 217 217 220 224 220 220 215 211 210 211 211 202 176 143 127 111  96  92  96  72  76  81  72  81  78  77  76  76  73
  61  62  56  38  48  26  37  47  40  34  27  18  14  17  14  17  33  31  37  43  52  86 109 121 131 126 136 142 148 156 157 156 158 160 156 158 160 162 171 179 186 194 200 207 206 206 204 204 198 198 198 195 197 199 201 201 201 199 199 203 211 220 221 221 218 221 221 223 220 214 211 209 207 209 198 177 127 101  99  88  50  77  87  74  65  75  94  83  79  72  69  71
  61  63  56  40  41  28  42  50  41  39  35  26  37  34  20  15  29  38  38  43  57  94 121 123 129 131 138 145 148 157 161 159 157 163 163 162 163 166 169 174 180 189 200 205 208 207 206 206 202 201 200 199 200 203 203 204 203 202 201 206 218 222 223 222 218 221 222 224 223 212 210 211 207 208 201 188 131  90  79  70  66  64  96  97  79  95  80  72  68  70  71  71
  60  62  57  38  39  26  39  44  39  29  31  59  66  53  31  24  21  33  35  36  61 105 125 124 130 132 139 144 144 161 168 169 169 168 166 163 163 166 167 168 171 183 194 200 205 207 206 208 209 206 204 203 204 202 201 203 204 203 204 209 219 222 224 224 223 223 224 225 221 211 207 206 205 208 206 189 139  97  93  90  84  71  80 104 101  84  81  76  71  72  70  70
  59  60  60  41  42  26  39  42  37  30  51  70  50  53  54  39  32  31  28  44  75 108 123 127 132 134 135 134 130 154 169 182 176 172 170 166 169 168 170 164 161 169 177 184 186 197 207 210 209 206 205 199 195 196 197 199 202 205 206 212 220 218 218 222 224 225 226 221 221 216 209 205 207 209 209 193 151 101 105  93  83  69  75  90  85  85  79  78  77  73  71  72
  60  60  63  45  47  35  34  43  36  34  67  63  53  62  65  60  46  35  31  41  73 115 127 131 130 136 132 126 116 120 142 158 167 174 173 171 169 174 175 172 165 164 166 171 174 182 196 207 203 194 196 193 186 185 186 192 199 203 204 214 219 214 215 224 228 225 220 222 225 221 211 209 208 208 209 199 137 113 113  95 111  72  70 101  85  77  74  75  72  72  73  72
  58  60  63  51  47  40  26  32  36  31  63  65  59  70  72  61  48  41  37  39  73 119 135 133 130 132 128 133 130 104  97 106 125 147 168 171 171 178 185 184 177 173 173 171 167 173 185 196 196 187 187 187 182 179 179 184 196 201 205 208 215 220 221 217 218 215 216 221 227 222 215 207 207 205 207 203 146 123 123 119 133  79  63  93  85  73  77  72  74  72  72  72
  60  59  61  59  45  34  27  28  33  25  65  84  67  68  78  63  50  57  50  47  83 122 131 129 128 133 118 104 108 106  92  99 114 127 141 150 162 157 162 171 174 172 174 173 167 164 174 185 186 183 179 178 170 174 176 180 186 193 192 193 196 203 208 200 196 190 186 195 211 220 219 209 207 206 206 205 164 149 133 129 119  83  78  80  76  64  76  72  72  75  71  71
  59  60  59  62  51  33  32  33  29  27  71 108  79  80  86  66  55  62  51  56  94 126 127 127 122 128 110  99  94  99 104  98  98 108 115 115 119 117 111 128 141 141 146 158 162 157 168 181 177 173 172 177 163 158 160 165 172 161 148 153 146 146 159 161 149 153 145 150 174 182 194 210 206 208 209 204 154 142 140 141  93  88  83 108  90  60  74  70  70  75  72  70
  59  59  59  61  60  45  36  33  30  28  69 113  85  88  91  77  58  54  45  68  96 127 129 130 124 118 109 104  95  87  86  85  73  78  90  93  97  99  88  94 106 107 113 125 142 155 163 168 162 165 169 172 156 141 147 144 138 128 134 126 120 125 129 127 125 129 131 127 131 147 158 184 205 209 210 203 160 125 135 154  86  60  65 112  98  62  74  73  71  70  70  72
  59  59  60  62  62  56  45  30  34  29  64 115  87  90  98  91  67  53  49  62  96 134 130 129 131 111  99  96  93  83  74  70  70  62  55  51  45  42  37  32  39  59  70  82 106 128 139 149 156 165 174 174 146 120 125 120 118 106  79  63  66  75  89  97 108 115 122 128 127 150 170 180 200 207 209 204 155 128 138 152  95  54  47  76  96  62  70  72  72  70  69  71
  59  59  61  61  60  63  54  33  33  33  55 115  83  96 102  92  72  62  55  62 100 135 131 127 135 110  89  81  78  74  70  55  43  49  49  40  30  28  29  29  18  17  32  43  63  88 107 134 149 165 185 192 168 134 131 117  74  30  14  26  47  57  63  84  78  94 109 122 131 148 164 185 200 207 207 207 168 109 123 136 110  66  49  56  91  62  67  79  76  74  71  69
  58  59  61  61  63  61  49  41  36  30  47 115 101 101 113  90  70  63  59  61 104 131 126 128 122 115  85  66  65  64  50  35  61  69  51  21  20  15  22  37  40  28  25  31  39  59  74 104 148 168 187 205 194 167 133  72  36  35  57  47  37  38  45  89 104  91 100 134 146 152 161 186 204 205 206 200 153 106 136 164  85  69  63  52  88  69  65  73  74  74  72  72
  61  60  61  60  62  60  46  45  44  33  41 115 142 118 106  82  60  63  70  76 116 134 122 126 125 115  97  71  56  48  35  55  63  49  52  21  17   9  21  44  54  33  30  28  23  45  65 115 154 174 200 219 198 165  67  39  45  56  73  45  36  13  42  81 134 106  95  92 142 169 178 181 198 201 203 206 149 129 178 163  65  73  70  48  68  87  78  72  73  72  71  72
  61  61  63  60  61  53  46  50  44  43  42  94 167 143 141 105  60  54  69  74 110 131 128 125 126 126 108  81  63  53  58  73  84 103  95  43  17  13  28  76  68  37  26  33  35  46  80 135 162 182 207 225 199 160 117  79  35  50  86  61  33   9  22  95 182  96 109  72  84 126 142 163 186 196 202 207 157 141 178 138  76  84 100  61  51  67  84  83  75  72  73  74
  59  59  61  63  59  53  52  52  50  53  47  62 163 155 154 135  67  55  64  59 108 132 130 132 129 137 138 111 101 115 122 102 104 136 153 124 105 106 117 138 115  72  61  68  80  90 129 145 164 188 205 225 205 181 175 101  66  76 110 106  91  76  86 162 178 179 177 153 121 102  99 131 184 202 204 201 154 137 173 129  67  91 116  91  59  59  62  81  93  89  79  75
  60  56  59  60  60  54  53  49  52  56  54  52 148 161 157 161  83  70  53  55 110 133 128 134 146 155 157 153 139 138 138 124 117 124 132 138 146 150 149 148 142 123 123 132 124 134 142 153 170 198 205 218 212 205 170 111  96 110 147 173 175 174 182 192 197 207 199 181 159 127 132 170 201 200 205 194 155 141 165 115  67  70 106  94  60  66  70  70  85  81  75  72
  60  61  59  54  56  54  55  47  51  59  56  42 114 164 152 159  98  77  62  64 107 131 129 146 151 151 156 166 160 147 136 128 122 119 116 120 125 123 114 109 107 115 135 143 144 143 137 149 173 198 205 216 212 208 204 173 134 114 107 126 143 152 160 170 173 181 177 165 176 174 165 188 207 204 206 198 158 138 167  96  59  53  67  76  67  56  70  76  86  78  69  72
  59  60  60  58  56  48  56  53  51  54  57  39  77 177 140 145 105  72  62  69 102 128 137 150 154 160 168 169 166 159 149 145 127 108  93  89  85  83  83  90 115 146 154 151 149 140 140 157 182 197 199 212 214 205 212 207 182 159 131 104  99 108 114 121 143 161 169 187 199 202 205 207 205 204 205 202 165 122 161 100  50  40  48  58  68  70  71  72  66  57  69  74
  58  57  58  58  61  48  50  50  46  49  53  27  40 174 165 119 105  70  52  72 102 122 133 142 144 155 161 167 171 155 147 154 145 136 131 128 126 136 146 151 168 164 164 161 145 133 134 161 190 197 199 213 214 208 213 219 207 193 183 171 154 144 146 143 163 174 172 162 178 195 197 202 209 209 208 199 162 130 160 105  57  41  43  53  67  74  78  71  59  66  71  71
  58  57  59  54  59  53  52  47  35  34  33  20  21 133 179 143  83  62  70  70  87 119 126 140 144 158 162 166 175 175 173 171 170 172 165 161 164 166 175 177 171 168 171 162 144 132 129 150 188 199 201 216 214 210 213 215 219 216 207 205 203 195 196 195 183 179 189 195 199 199 201 199 199 207 208 199 141 142 165  82  53  46  52  49  62  74  69  65  73  74  72  73
  57  56  56  55  51  44  37  42  38  31  26  23  16  80 168 155  84  63  67  59  80 114 123 140 152 159 159 167 176 180 181 181 175 173 169 174 177 171 172 173 177 180 168 156 141 134 131 142 179 201 200 217 214 212 215 214 217 215 209 211 210 207 202 198 199 197 188 189 204 214 213 209 206 206 205 198 147 143 150  58  42  42  50  50  66  76  70  86  72  71  71  72
  59  59  57  55  46  43  37  37  34  30  29  29  23  52 155 162  90  57  51  47  68 105 120 140 153 156 162 167 174 177 176 169 169 174 177 180 178 178 175 181 183 180 167 155 143 137 134 142 171 200 204 220 215 215 220 216 218 220 212 209 206 205 202 200 198 200 204 204 205 215 214 218 211 207 207 189 142 159 151  57  42  56  58  49  78  91  75  79  70  68  69  71
  57  59  57  59  58  61  46  28  37  44  38  36  30  29 132 160  98  60  55  52  69 100 121 139 151 157 160 165 174 181 181 181 180 181 180 188 188 183 183 184 183 176 171 161 153 148 139 143 171 196 207 215 212 215 222 219 219 221 212 210 212 207 205 201 201 205 208 212 211 216 214 218 212 206 207 186 130 160 168  71  51  77  68  39  83  88  69  71  72  72  71  70
  57  56  58  57  60  58  42  39  34  40  41  40  39  23  85 144  99  68  50  52  65 100 120 132 147 153 163 170 174 181 184 184 185 187 194 193 194 192 189 185 183 175 168 160 153 156 153 147 168 196 208 212 211 216 220 215 212 209 204 205 209 209 206 208 205 205 212 215 218 224 221 218 212 206 207 180 132 141 169  74  62  97  67  41  78  71  71  72  72  72  71  71
  58  57  57  57  58  55  53  62  53  43  42  37  40  32  35 106 114  72  39  49  69  92 112 130 145 152 164 169 175 177 180 179 184 188 192 187 183 183 183 170 159 154 159 153 140 148 149 149 167 190 201 212 212 216 216 209 209 174 166 185 197 200 203 206 204 208 214 217 222 225 221 219 211 209 211 170 140 149 143  65  71 120  66  57  74  71  71  72  72  73  72  71
  57  57  58  60  58  55  60  61  62  61  53  41  48  38  17  45  87  55  38  49  60  75 105 126 137 149 161 167 173 175 176 176 176 176 176 173 163 149 131 108 103 131 160 165 143 137 145 152 165 191 202 211 214 214 208 205 216 194 137 137 164 181 194 196 199 207 211 221 226 228 223 218 212 207 205 170 129 149 143  78  81 123  92  72  74  74  71  72  73  71  72  71
  54  58  58  58  60  51  53  61  61  61  56  41  44  48  26  20  35  42  39  47  51  72 103 118 131 143 149 158 165 168 171 168 162 162 156 148 139 113  87  89  96 126 165 170 157 140 144 154 164 193 210 214 220 215 206 206 213 206 165 122 132 152 176 184 189 197 203 212 224 225 219 214 213 204 197 168 136 148 132  83 105 105 101  71  71  72  72  72  72  71  70  71
  57  59  58  58  59  53  47  60  60  57  47  45  47  45  41  24  28  36  35  43  46  62  93 112 120 132 139 147 155 159 157 150 144 142 141 133 115  97 119 148 132 132 165 175 168 149 145 148 155 188 204 212 223 213 207 212 222 212 185 140 112 127 151 168 179 190 203 205 218 218 212 211 206 204 193 152 138 151 107  79 103 112  99  72  68  71  71  72  74  72  71  73
  57  58  58  57  57  58  51  54  63  58  52  52  35  33  39  32  32  33  35  47  49  60  95 105 108 117 127 135 140 142 142 133 129 128 120 105 102 133 158 163 158 130 154 172 172 153 152 150 156 185 202 203 218 218 212 222 227 207 195 183 141 118 126 145 166 180 190 198 206 207 203 200 202 203 188 148 121 127 111  94 105 111  87  74  73  73  72  71  72  71  72  75
  56  55  57  55  58  60  62  53  52  61  62  40  21  29  35  37  39  34  34  45  49  66 102 105 106 105 115 119 121 121 119 109 103 103 104 107 130 154 158 147 141 100  89 125 158 153 148 161 173 187 193 196 224 222 215 217 189 185 202 198 182 149 126 126 145 166 180 191 198 202 199 197 202 204 187 151 123 113 112  93  85  94  83  72  75  73  71  70  71  73  72  73
  55  56  56  56  60  59  60  62  57  51  39  19  19  28  38  36  35  35  38  46  47  68  91 105 110  99 105 106 104 105  91  87  99 109 120 119 124 132 130 118 119 102  45  38  68 120 128 140 166 182 182 188 210 202 200 165 170 178 183 184 177 176 152 132 133 145 169 182 188 194 196 199 201 209 192 142 124 110  80  63  84  84  78  73  72  73  72  72  71  73  72  72
  55  56  57  56  62  60  59  60  65  55  14  22  39  39  37  33  33  36  39  39  44  58  79 101 103  99  97  93  88  83  88 109 117 119 117  96  96 102 102  94  98  93  62  43  23  44 101 114 138 161 163 169 189 195 143 118 142 155 159 156 160 149 153 142 150 150 142 170 182 188 193 194 203 202 193 148 127 109  90  48  60  84  79  71  71  73  73  72  73  73  72  74
  55  55  57  56  56  60  60  60  63  42  17  41  41  40  46  42  44  41  43  38  44  51  69  96  96 103 103  97  86  85 121 121 128 105  80  72  73  76  74  68  73  71  65  59  39  27  47  94 112 132 130 136 180 144  94 105 112 129 146 145 142 130 139 128 147 169 157 150 180 186 192 194 200 195 178 149 142 120  92  68  58  69  76  72  71  73  74  73  73  73  74  71
  57  57  57  57  58  58  57  55  56  38  22  40  36  40  49  49  48  39  48  44  43  42  62  82  91 101 103 101  91 104 113 104  97  77  62  60  64  70  66  62  76  63  62  60  43  50  25  41  83  94  98 132 138  83  66  92 118 110 124 129 137 125 138 118 119 152 179 154 177 193 191 193 200 186 162 133 135 131 109  72  60  69  75  73  72  72  72  73  72  72  73  72
  57  56  57  56  57  58  57  55  58  50  17  26  47  54  56  52  42  41  44  45  36  39  59  71  80  85  88 104 104  97  97  87  78  69  61  52  63  64  62  61  65  59  62  44  56  59  50  32  52  60  68  86  57  58  74  95 118 113 117 121 121 128 122 133 116 131 179 168 166 193 186 192 198 178 154 120 131 131 102  83  70  70  72  72  72  70  71  72  73  71  72  73
  57  57  57  56  56  58  58  57  60  58  36  26  43  61  66  52  43  42  42  41  31  44  55  71  74  72  78  94  97  85  78  71  69  60  54  51  61  57  71  58  59  61  49  73  83  91 119  96  71  50  55  60  45  66  85  93 113 118 118 123 112 111 105 120 130 142 172 173 167 181 173 185 184 155 144 122 119 114 101  82  79  73  70  70  71  73  72  73  72  74  73  72
  55  55  57  56  56  58  58  57  58  61  60  53  56  53  56  53  45  48  46  37  35  36  51  67  69  71  69  76  77  78  69  64  61  54  53  47  53  42  56  58  60  46  69 106  92 123 136 129  94  52  59  89  66  94  98  94 108 122 109 103 118 108 103 106 115 129 146 165 165 176 156 164 158 151 136 112 118 112 104  79  91  88  70  70  71  74  74  74  73  73  72  71
  55  56  57  56  56  57  57  58  58  58  63  61  59  57  51  45  43  41  42  40  37  31  46  58  57  62  58  58  68  81  66  61  47  39  31  27  27  26  29  39  41  40  56  93  87 104 112 130 106  67  90 115  97 105 105  98 103 110 106 104 112 111 105 105 113 126 124 145 155 160 142 138 133 149 143 120 118 118 101  82  79  82  75  70  72  72  71  72  72  73  73  71
  55  57  55  57  56  57  57  58  58  59  63  62  59  53  51  43  35  36  41  41  37  38  48  53  53  51  55  57  63  75  61  57  47  32  28  19  29  42  45  48  47  45  34  35  44  53  64  78  64  80  92 102 120 100  86  87  88  81  83  79  80  67  64  94  83 104 106 121 147 138 130 133 134 141 121 125 125 120 112  88  72  67  85  77  69  70  73  72  72  72  72  73
  55  57  54  54  55  57  56  58  59  58  60  61  59  54  51  44  40  36  45  43  33  41  55  54  50  46  51  55  56  61  59  58  49  36  46  60  66  78  82  81  85  76  62  60  51  64  61  57  63  72  69  77 104 117 111 136 124 118  97  61  48  37  35  53  60  93 106 120 132 117 130 128 126 130 110 106 113 116 109  83  79  71  82  81  72  72  71  72  72  73  72  72
  56  56  55  55  57  58  57  59  58  59  60  60  59  55  50  41  38  41  47  38  33  38  42  48  51  47  50  53  54  58  69  59  53  48  68  86  91  94  91  91 105 106 124 117 109 127 111 120 149 147 130 141 159 179 192 197 189 169 148 103  72  70  52  44  69  97 113 125 122 110 120 138 132 122 115 100 104 110 106  84  78  78  77  75  75  73  73  71  72  71  70  70
  56  58  57  56  57  58  57  57  58  60  59  61  63  61  55  39  37  40  38  33  34  38  46  46  46  39  45  52  56  61  52  59  60  62  79  96 104 109 117 109 114 129 143 133 131 124 130 139 149 159 158 155 173 192 200 194 180 166 147 119  91 113 125  91  80 107 121 126 104 105 113 123 117 122 115 111 102 111 116  88  82  79  74  75  76  73  72  74  72  72  72  72
  56  57  57  56  58  57  57  58  59  59  61  57  58  58  57  45  39  40  36  32  33  41  39  36  43  42  50  45  51  48  48  62  54  75  84  77  79  96 109 122 129 123 118 128 133 128 134 119 126 143 137 132 151 171 177 179 182 172 150 141 119 135 142 139 115 106 116 106 103 104 107 108  99 122 113 103 105 104 110 105  86  78  74  76  80  73  73  73  71  72  72  71
  57  57  57  58  56  57  58  58  57  59  57  55  61  63  53  52  51  40  38  32  34  37  36  34  31  43  53  42  38  49  52  60  56  70  83  86  81  90 110 119 116 111 115 106 108 127 128 127 128 142 132 134 141 142 162 168 167 159 156 148 144 127 121 142 141 123 106  79 106 101 101 101  99 100 101  92 100 108 103 102  84  77  77  74  74  73  73  72  71  73  72  73
  57  56  57  58  57  55  58  58  59  60  61  58  61  56  46  56  48  40  38  34  30  34  34  30  28  43  50  37  39  40  47  59  56  64  83  83  77  74  93 110 110 113 117 110 118 132 111 120 116 131 124 135 139 137 148 156 163 153 140 139 126 112 121 138 146 134 120  97  89  75  85  88  88  90  94  91  90 104 113 117  87  75  80  71  70  73  73  72  71  70  72  72
  56  56  56  57  57  56  58  58  59  62  62  60  61  60  47  54  45  45  38  30  25  35  26  25  32  34  45  48  40  41  44  46  53  66  72  87  81  92 109 109 111 108 125 137 123 105 110 115 119 120 122 126 135 139 140 144 153 146 122 101  92  96 123 144 139 136 125 127  88  84  82  73  89  90  82  82  89  95 111 124  93  76  79  72  71  75  73  73  72  71  71  72
  56  57  56  56  56  57  57  57  59  62  65  59  53  59  57  52  42  46  44  37  27  42  47  31  51  60  54  40  40  41  40  45  57  71  79  83  92  99  77  88  94 101 114 108 109 106 115 106 114 112 127 114 111 126 144 145 140 125 119 111  95  80 100 140 115 126 107 109  88  77  78  73  75  80  81  78  89  98 106  99  94  75  75  72  72  73  74  74  73  72  71  71
  57  56  56  56  56  56  57  55  58  60  64  61  57  59  52  47  42  40  36  33  33  30  37  42  39  47  45  44  51  45  34  42  59  67  80  95 100  75  74  81  81  98 107 107 117 114 111 112 112 107 126 116 124 118 143 141 138 131 103 106 103 106  98 108 111 103  96  88  80  72  78  94  76  77  79  79  91  96 112  98  86  81  73  75  74  74  73  73  72  72  74  73
  56  56  55  58  58  57  58  58  57  60  61  59  64  62  60  44  40  40  38  35  38  38  36  43  39  35  40  42  49  43  42  49  48  54  65  72  75  73  86  79  77  90 104 118 127 139 124 115 112 114 126 117 124 110 131 126 122 132 117  88  91 105 122  94  98  91  79  79  72  71  74  88 107  75  92  83  97  94 106  94  75  81  72  75  74  73  72  72  72  73  74  72
  56  55  56  57  57  58  58  57  57  60  61  61  63  59  59  48  50  39  35  37  42  48  41  42  42  39  33  35  34  31  45  44  56  58  64  66  61  78  73  79  82  93 103 113 129 130 112 118 115 115 132 132 112 115 126 128 124 122 123  96  84 103  97  98  74  77  70  83  81  67  73  77 120 101  93 102  90 102  98  81  79  80  71  71  73  72  72  72  73  74  72  71
  55  57  57  57  58  57  58  57  56  58  64  65  67  52  72  60  44  40  44  39  44  49  46  43  43  47  40  31  37  41  43  43  55  71  84  67  58  62  74  82  77 111 123  97 115 114 119 122 116 121 134 139 121 126 131 125 132 120 114 118 104 104  86  93  77  90  83  75  89  77  71  79 103 113  95  95  98 104  99  95  89  76  72  74  74  71  72  72  73  73  72  71
  56  55  56  57  56  56  57  58  58  56  60  59  63 110  96  55  41  39  41  43  46  43  42  44  43  38  36  37  37  33  43  40  46  54  60  74  64  72  76  70  83 117 109  84  89 111 118 120 120 119 119 134 127 127 139 115 112 125 116 112 115  89  97  88  82  88  90  88  78  85  90  79  87 102 102  94  98 107 106  88  88  75  73  73  73  74  72  72  73  72  71  72
  53  54  56  58  57  56  57  57  58  57  50  71 149 149 101  58  51  39  38  43  45  41  43  40  40  37  35  40  51  43  40  38  54  53  58  79  66  63  60  69  94 112  93  80  79 116 118 126 111 114 114 131 130 123 122 127 104 120 128 115 113  89  89  73  70  83  97  90  79  90  97  94  78  78 114 100  81  96 117  80  79  71  73  74  73  71  72  73  73  72  72  72
  54  54  56  56  57  59  57  56  56  45  73 171 170 129 110  71  54  43  44  41  46  53  42  35  35  44  43  52  47  39  38  43  47  51  56  79  55  63  66  65  84 105  85  72  84 112 127 119 105 107 100 139 123 120 108 135 109 113 111 114 108  89  99  79  69  60  85  98 106  80  92  83  86  88 124 123  84  87 110  74  71  75  76  78  77  74  73  74  72  71  72  73
  54  57  56  56  56  57  56  56  43  81 182 201 150 136 121  74  61  55  51  43  42  58  53  38  47  45  39  42  42  45  38  42  44  44  50  65  42  67  69  71  79  91  83  82  78  96 126  91 103  92  98 131 110 110 104 130 137 111 100 121  91 104  88  71  69  67  65  92 104  91 108 101  90 100 131 144  99  95 106  66  47  51  59  72  77  79  78  76  73  73  73  74
  53  56  58  56  57  59  53  34  96 194 199 169 157 154 109  77  62  59  45  47  53  64  47  49  55  39  44  47  47  37  37  39  35  45  55  57  50  57  68  66  74  82  86  90  90  97 109 115 101  98 117 111 104 102 107 115 125 106  96 118 104  99  75  63  62  71  77  78  99  92 111 117 104 104 123 135  93 112  98  63  31  19  13  14  25  42  55  61  71  78  80  76
  55  56  59  57  48  31   8  97 202 207 184 145 135 114  88  85  72  62  59  58  68  53  46  47  53  49  50  50  43  34  37  43  42  58  58  46  48  57  60  60  68  71  90 113 113  89  96 120  90 119 100 101  93 103 112 121 117 101 106 103 109  95  95  78  67  76  95  84  78  80  89  98 106 103 121 144 110 105 101  55  28  32  31  13   8   6  17  15  25  39  56  72
  59  54  38  21   6   0 107 207 198 183 179 173 126  90  85  89  79  69  73  76  65  48  49  48  54  48  46  41  44  34  38  60  63  55  45  42  58  57  52  51  58  65  96  95 110  85 109  99  89 118  86  95  91 117 112 127 108  98 115 102  92  99  96  82  63  80  90 101  84  67  80  88 100  94 123 159 128  99  91  58  28  25  38  34  22  13  12  11  10  11  12  25
  25  14   5   0   0 117 207 194 176 169 190 160 109 107 122  97  92  75  69  73  59  58  56  53  39  43  55  48  46  41  40  44  55  54  49  59  51  55  48  63  80  56  80  94 101  83  92  73 100  97  90 100  97 105 100 105 120  83  90  80 112  97  72  79  58  89  78  88  96  88  78  98 105 100 112 160 152 118  72  63  44  28  24  30  26  23  15  11  14  13  12  12
   4   5   3   1 113 206 190 169 169 187 165 128 124 142 140 115  95  83  73  62  61  64  52  35  38  51  54  50  57  54  50  53  58  66  70  59  51  51  49  67  72  40  66  85  79  77  83  77  79  84  93  91  80  88  83  76 101  85  83  75 117  83  75  87  61  76  76  70  83 100 100 106  96 122 129 139 151 128  62  60  52  29  24  26  25  24  25  17  13  13  13  14
   6   5   7 122 212 195 172 147 180 170 133 127 158 167 144 135  97  75  71  69  65  60  43  44  55  54  50  49  47  57  58  64  71  67  61  46  48  48  61  72  50  54  66  75  67  86  70  71  96  80  85  83  77  72  77  69  79  89  88  89  92  96  71  93  87  69  75  76  84  81 100 109 104 123 129 158 159  99  58  39  38  28  25  22  23  22  23  24  16  13  15  14
   5   0  74 132 160 194 159 149 162 152 140 151 181 183 169 129  88  78  71  69  59  53  46  52  43  40  52  45  50  55  54  61  54  38  48  43  44  56  90  66  52  57  64  70  75  84  57  62 109  99  92  84  79  68  84  78  83  81 100  94  82  86  59  60  94  79  65  82  91  88  88 115 108 100 123 142 153  83  57  33  28  28  25  22  21  22  23  23  21  16  13  14
   7   0  84 104  79 171 156 150 153 160 142 166 183 199 190 135  87  84  68  63  52  53  50  47  40  71  65  48  51  47  53  51  41  43  47  45  55  80  74  51  49  63  58  62  71  69  50  62  92  91  80  70  68  61  82  84  71  64 101  98  81  76  45  42  73  97  59  82  85  85  92 119 111  98 112 120 143  85  42  37  28  26  23  23  24  24  24  24  24  20  14  14
   7   1  37 153  82 149 171 152 140 142 157 172 183 193 181 151  96  84  66  66  54  52  48  49  58  71  56  54  38  48  53  49  59  49  43  51  76  68  55  53  58  56  44  57  70  53  47  69  88  64  67  69  62  62  74  79  82  63  97 108  80  53  56  42  66  92  85  95  91  81  81 111 127 109 102 107 146  78  42  36  29  25  26  27  27  27  26  25  22  23  18  13
   7   7   0  79 146 168 183 146 118 149 166 171 191 180 176 162 112  73  72  62  52  52  59  56  70  60  69  61  50  48  40  55  67  50  55  72  82  56  45  54  55  47  48  47  82  51  48  68  77  57  57  64  63  68  74  68  77  58  89  96  87  65  67  52  65  86  87  90  84  72  84 114 107 116 121 130 146  61  43  46  26  23  26  25  26  26  27  25  23  24  22  17
   8   7   2  21 153 175 193 125 117 160 172 173 190 195 183 174 120  76  64  66  56  53  53  56  57  67  82  49  41  33  42  48  32  52  76  72  64  52  60  54  45  50  53  62  72  55  56  74  81  58  47  63  66  78  81  74  66  63  80  88  74  71  76  61  60  74  69  79  71  68  97 157 128 125 140 157 108  52  60  37  22  25  24  24  26  27  28  25  24  21  22  21
   6   6   0  72 170 156 150 113 135 169 177 181 188 192 192 162 106  81  76  66  60  51  55  57  59  62  60  44  38  41  45  38  39  77  65  59  50  52  63  48  42  49  59  60  61  60  69  71  57  51  57  65  87  66  71  74  63  74  73  89  82  69  68  55  56  73  78  90  78  57 118 134 123 132 142 157  61  37  46  28  23  24  24  26  28  27  26  24  24  23  25  23
   5   6   0  87 157 126 127 132 153 172 181 184 193 191 186 162 120  85  75  66  62  47  58  63  63  63  62  50  46  41  42  44  59  77  56  47  51  54  58  36  27  48  52  45  67  49  68  66  52  43  62  76  80  57  85  87  57  82  66  86  91  82  63  55  60  77  77  94  87  73 164 165 116 152 170 111  26  29  40  21  22  24  25  27  29  28  25  24  22  20  23  21
   6   5   0  88 165 147 153 159 166 182 181 187 192 186 188 148 143 119 102  85  64  53  59  63  60  61  62  49  39  39  41  51  58  69  43  42  49  58  54  31  34  57  59  54  56  37  77  90  49  51  72  80  63  64  92  81  74  75  65  90  82  74  61  54  61  77  84  97  92  93 169 186 142 159 167  64  33  40  30  21  22  25  26  27  27  27  24  23  22  21  23  22
   7   8   0  69 180 153 167 171 170 186 192 185 191 195 186 166 174 167 135 115  91  74  75  69  58  56  51  44  40  41  49  50  60  52  40  41  53  76  55  35  49  63  68  64  61  39  64  86  41  48  70  62  55  65  86  63  66  64  62  98  86  66  59  56  74  72  69  94  96  94 162 160 144 164  99  35  38  31  23  22  21  24  25  26  26  25  24  24  24  23  19  13
   7   9   1  37 180 176 155 158 177 185 186 195 189 194 196 197 192 188 114  77  90  82  72  60  57  56  53  43  39  54  55  57  61  53  40  46  59  55  57  45  73  74  59  56  59  39  59  77  45  32  62  52  48  57  76  75  58  59  63  93  87  71  63  67  75  83  70  85  91  99 175 157 136 142  69  21  26  25  23  21  22  24  24  24  23  23  23  18  12   9   9  11
   8   9   7   5 144 189 153 164 177 186 188 184 193 193 195 190 193 204 148  87  85  74  49  55  58  59  56  53  49  52  55  65  50  47  49  52  55  48  45  57  79  72  53  56  47  53  67  69  56  53  61  54  54  55  65  80  74  53  57  80  84  77  72  75  75  93  77 101 106 132 176 135 147  76  72  36  30  33  22  22  23  24  25  24  24  21  14   8  11  16  18  18
