P2
# Generated by OpenCV 4.2.0
92 112
255
  32  31  33  33  32  32  33  33  31  32  31  31  33  33  34  34  33  31  32  33  33  31  37  36  72  80  62  73  73  64  84  93  86  54  65  85  82  70  96  92 130 102  89  59  66  91  86  96 103  84 101  85  48  57  59  55  62  64  66  75  80  83  89  88  58  50  86  53  32  35  34  33  34  38  37  35  35  35  36  35  36  36  36  35  35  35  35  36  35  35  34  34
  33  33  33  32  32  32  32  31  32  31  32  33  33  34  33  34  32  33  33  33  32  32  35  47  84  70  62  76  70  75  89 102  76  57  67  77  82  70  95  98 129  99  76  53  76  79  79 103 106  97 112  85  49  64  59  58  64  70  73  68  76  84  90  87  85  52  81  82  34  33  34  33  37  39  35  35  35  35  36  34  35  36  35  37  36  36  37  38  36  35  35  34
  33  33  33  32  33  33  33  32  32  32  33  33  33  33  33  33  34  33  33  34  39  38  41  73  79  68  68  76  70  69  86 104  70  70  71  73  77  72  86 107 134 100  80  64  84  76  86 108 119 108 112  73  56  69  65  60  66  74  82  65  77  83  83  85  95  67  70  93  54  38  34  38  38  33  35  36  36  35  36  35  35  36  36  36  37  37  38  38  37  36  36  35
  34  33  32  33  33  33  33  33  33  33  33  33  33  33  33  33  34  34  35  36  39  53  64  79  65  69  74  73  59  58  88 102  82  77  73  70  75  71  78  97 140 107  82  72  83  81 100 115 134 107 109  63  71  83  67  62  78  79  85  68  75  77  78  85  93  83  73  92  72  52  54  49  37  36  38  37  36  35  36  36  35  37  36  36  37  36  37  38  38  37  35  35
  33  32  32  32  32  32  33  33  34  33  33  32  34  34  34  33  34  36  35  36  39  62  76  70  64  70  65  61  48  65  90 104  95  76  75  71  80  71  78  89 138 115  89  64  89  92 106 119 145 112 108  70  86  85  67  68  82  81  86  66  73  72  77  82  81  89  84  86  67  51  56  68  46  38  37  35  36  36  35  35  36  36  34  36  36  38  36  38  38  38  36  36
  33  32  33  32  32  32  33  32  33  33  33  34  34  35  33  34  35  34  35  35  45  54  76  57  59  63  57  58  51  73 101 103  97  79  83  69  75  72  74  77 135 114  89  67  92 105 113 130 150 117  98  67  92  81  75  73  89  85  78  67  76  71  86  82  68  86  82  84  56  48  44  55  51  38  36  36  36  37  36  36  35  36  36  36  36  36  37  38  38  37  36  35
  32  33  33  33  32  33  33  33  32  32  34  33  33  35  33  33  34  34  34  39  47  58  64  53  57  64  59  60  55  69  89  93  94  92  79  75  78  76  70  69 128 125  90  73  95 109 113 144 141 120  80  70  96  81  80  85  89  84  71  76  74  69  90  75  65  83  83  76  51  44  47  52  47  44  37  38  35  36  38  37  37  35  34  36  36  36  36  36  38  37  37  36
  32  32  33  32  33  32  33  33  33  32  33  33  33  34  34  33  34  35  37  40  45  69  51  51  54  66  60  58  66  61  68  94  91  99  83  87  81  82  71  68 105 118  96  74  90 111 119 150 131 123  68  73  82  84  83  91  84  77  74  82  71  67  86  56  74  86  81  60  48  47  53  48  38  46  47  38  36  35  36  36  35  35  35  35  36  34  36  36  36  36  36  36
  33  33  33  33  33  34  34  34  32  33  33  33  34  33  34  34  35  36  36  37  51  61  53  58  57  70  56  57  74  65  75  89  96 102  87  86  78  88  71  67  90 106  91  72  83 114 122 145 126 107  68  79  87  81  92  88  73  72  85  78  64  75  66  53  90  84  76  50  45  58  52  35  34  41  51  52  37  35  35  35  35  36  35  34  34  35  35  35  35  35  35  35
  32  33  34  34  34  34  34  33  34  33  33  33  34  34  34  34  35  36  38  43  58  49  53  62  61  64  59  56  75  80  91  76  97 104  88  86  77  95  80  70  77  99  87  79  81 115 127 139 117  87  71  87  75  78  92  74  73  96  88  66  69  75  52  62  89  84  72  48  59  55  35  31  37  36  39  54  41  37  36  35  35  35  34  34  33  35  35  35  36  37  35  36
  32  33  34  34  34  34  34  33  34  34  34  33  33  34  34  34  35  38  42  47  52  40  62  74  65  55  65  58  74  95 100  85 113 107 103  91  85 103  89  71  68  94  81  84  82 111 129 137  99  84  80  80  74  92  90  75 101 109  80  70  89  77  60  77  88  79  59  49  48  31  31  39  36  29  37  44  43  51  48  32  34  38  35  34  33  35  35  35  35  36  35  35
  33  34  35  34  34  34  34  33  33  34  35  33  34  35  34  34  34  36  43  51  46  38  68  81  73  58  71  73  81  95 102 113 118 105 105  98  96 115 100  87  72  91  80  85  82 120 128 127  88  97  77  76  84  98  86 102 123 106  79  92  96  62  78  88  76  68  44  49  43  43  44  42  31  37  42  34  42  56  58  42  40  36  34  34  34  34  34  35  35  35  35  36
  32  33  33  33  33  33  34  33  33  32  33  35  34  35  34  34  34  34  48  58  51  43  69  74  76  78  76  71  98  97  91 116 121 103 112 106 101 108 100  96  82  93  85  87  79 119 125 131  99 115  81  81  89  94  93 129 118  92 100 110  67  62  81  74  74  63  40  53  51  53  52  49  46  44  34  30  38  50  50  58  58  36  32  33  33  34  35  35  35  36  35  36
  32  33  33  33  33  33  34  34  34  34  34  34  35  35  34  34  34  35  57  61  55  48  66  86  79  83  84  75  96 109  90 118 127  92 111 114 109 110 109 104  88  93  95  87  79 115 112 142 112 123  93  82  95  92 110 113 102 109 126  89  59  73  74  77  77  48  52  55  58  52  53  56  54  49  40  39  37  41  43  58  53  43  40  35  33  32  33  34  34  35  35  36
  33  33  34  33  33  34  33  33  34  34  33  34  35  36  34  35  35  40  57  52  60  59  56  85  89  85  98  90  98 114  96 130 100  90 116 116 108 116 124 109 103  87 112  82  94 109 107 138 131 121 106  82 104 102 108  97 109 125 102  78  80  86  83  81  60  60  58  64  64  63  66  49  38  32  28  26  29  41  54  51  47  49  38  36  34  33  33  34  35  34  35  36
  33  33  33  32  33  34  34  34  34  35  35  34  36  38  38  39  39  42  59  60  68  64  60  76 105 107 100 101 112 125 113 118  79 111 114 105  97 115 118 123  97  93 115  71  98  96 114 130 143 133 110  97 109 104 101 103 105 111  86  89  83  94  91  75  58  60  51  77  91  68  30  15  19  23  28  27  24  33  38  35  40  44  37  39  38  33  33  34  34  35  35  36
  34  33  34  33  32  33  33  33  35  35  42  41  38  44  45  42  40  44  60  67  69  63  65  70 103 123 114 108 116 135 117  97  80 119  96  98  80 118 123 137  85 109  98  76  99 104 113 114 128 135  97 106  99 112 102  82 114 100  92  82 100 101  91  68  61  46  80 114  93  40  15  23  25  37  41  38  35  32  25  35  43  45  43  41  37  34  34  35  35  35  36  35
  33  34  34  33  34  34  34  34  36  36  44  56  55  54  52  41  37  49  60  70  66  76  85  83 101 119 127 111 130 141 126  97  98 109  88  90  85 121 137 125  79 112  75  79  92 103 103 110 110 121  88 106  92 110  89 104 119  94  93 102 112  97  83  64  53  69 113 106  66  47  53  64  66  66  62  49  39  34  35  38  37  42  46  42  37  36  35  35  36  34  36  36
  33  34  34  34  34  36  35  37  40  39  45  61  65  57  52  35  28  45  63  71  71  79  97 111 110 115 129 123 126 134 134  96 108  97  88  84  83 126 137  97  87 101  70  84  92 106 100  98  98 115  90 103  83  99 104 117 102  99 108 112 104  89  80  58  66  95 109  76  60  73  83  94  79  61  49  47  41  40  37  36  36  37  35  36  46  46  38  36  38  37  36  36
  35  35  34  34  35  36  37  38  41  52  57  59  59  50  43  33  42  64  72  72  73  86  99 119 128 127 116 126 116 121 128  91 109  96  92  79  95 124 121  84 100  86  73  83 107 103 111  92  99 101  97  94  87  97 106 103 109 109 122 106  83  81  63  65  71 106  90  69  90 100 109  78  53  50  46  43  47  34  25  26  37  39  37  32  46  61  51  39  36  39  37  36
  35  35  34  34  35  35  38  37  47  57  61  56  55  46  33  45  60  79  80  78  91  90  95 109 130 140 125 107 123 116 132  96 104  98  92  85 113 117 108  90 101  80  78 105 109 122 115  96 108  99  98  91  90  99 105 106 110 116 108  86  86  70  69  77  96  88  76  99 112 102  88  61  60  53  49  57  42  28  27  30  44  44  40  42  47  59  53  45  41  38  39  38
  33  35  36  34  35  36  37  40  53  70  66  53  47  36  38  50  61  72  81  85  92 103 125 134 129 124 135 120 117 120 129 115 104  98  96 103 120 109 102  97  95  90 110 133 143 128 115 118 101  96  95  96 104 112 107 101 118 118  98  89  79  80  81  79  90  82  93 123 113 106  82  87  79  58  52  46  39  33  31  31  28  25  26  29  33  51  54  42  43  48  54  45
  35  34  34  35  35  38  41  47  70  89  58  43  44  47  53  71  79  80  80  90 111 121 115 121 125 126 124 133 121 125 120 123 114 103 104 114 114 109 103 109 106 125 134 143 129 121 131 104 101  97 117  99 106 106 103 103 114 100  92  90  90  87  83  84  85  84 109 114 100 107  88  86  81  71  66  56  49  43  37  32  26  22  21  22  33  44  49  46  51  56  51  38
  36  35  34  36  35  36  44  59  82  72  43  39  37  34  45  60  73  93 103 102 111 117 116 113 116 126 136 129 126 119 121 118 116 106 109 128 115 103 104 124 125 123 138 130 117 129 104 109 105 125 106 100 119 109  96 103 103  90  94 100 106 101  95  99  99 104 107  93 104  89  89 110 121  92  67  63  63  51  39  42  46  41  32  32  37  45  42  37  46  47  45  42
  35  35  35  35  35  34  40  65  72  46  36  34  29  37  42  42  48  82 104 105 117 120 122 132 134 142 147 142 138 122 124 131 112 112 126 132 115 102 116 132 129 129 134 125 125 108 112 112 113 106 113 124 117 108 112 102  94 101 112 114 120 123 112 119 121 115 102 102 103  83 120 149 105  48  63  66  58  53  48  33  28  34  37  40  41  46  57  38  39  46  49  42
  35  36  35  35  35  35  43  68  55  39  39  35  39  41  50  59  72  71  91 102 103 115 127 129 135 144 151 150 150 138 133 133 125 122 138 135 116 115 135 140 133 134 128 127 125 120 117 109 104 120 132 122 123 122 107 101 104 112 121 130 134 134 132 133 131 127 125 121 106 107 115 112  75  37  52  60  61  54  45  42  35  27  27  36  42  47  61  43  42  53  49  39
  35  35  35  37  38  36  45  66  45  39  41  43  49  59  58  66  73  92  92  97 107 122 127 125 138 144 149 152 152 149 142 134 140 140 147 140 127 129 146 145 139 142 138 138 138 130 127 130 136 133 121 126 124 108 102 108 119 129 138 138 141 141 140 145 146 136 130 124 111 112 112 110  98  96  82  53  50  54  52  44  47  45  38  35  32  40  46  41  45  47  42  45
  35  35  37  39  37  34  46  68  43  35  32  33  34  48  66  80  91  85  98 106 125 144 140 134 137 141 149 159 154 157 142 144 148 152 149 140 141 142 145 143 148 152 154 154 153 149 147 141 131 117 117 120 124 123 122 125 134 143 150 152 148 142 136 138 149 148 139 135 124 122 129 113 102  98  80  61  56  49  43  38  44  46  37  34  37  38  44  42  40  43  44  45
  35  39  39  36  35  34  49  75  43  22  30  33  36  43  57  78  88  79  85 116 143 155 142 143 142 151 159 159 158 160 149 145 142 149 151 144 147 147 148 154 167 171 170 170 161 151 136 129 130 132 138 141 143 142 145 144 146 148 146 148 149 145 138 135 142 144 139 130 125 125 119 110 102  88  89  74  55  41  38  29  26  22  22  23  21  23  23  29  32  38  47  56
  38  39  36  36  36  35  42  70  48  29  32  42  48  52  63  78  72  60  82 128 153 144 137 147 141 149 157 157 158 164 170 167 155 161 164 156 149 149 152 171 180 179 176 168 164 158 156 156 164 169 166 162 155 150 153 155 148 147 145 145 143 143 135 132 135 136 134 126 119 117 113 103  93  87  73  58  64  83  73  60  48  33  21  13  12   8   8  17  24  30  38  50
  38  37  37  36  36  35  36  51  52  32  35  35  32  41  55  71  59  50  89 137 153 136 138 146 145 148 152 158 159 165 170 176 172 169 160 168 155 151 162 178 186 175 180 178 180 186 186 181 179 172 166 162 155 156 157 155 150 143 143 142 140 140 133 129 130 132 130 130 121 112 102  92  76  62  55  65  85  61  36  28  30  33  35  26  23  25  19  20  26  32  38  43
  37  37  37  37  37  37  37  41  42  28  26  24  27  25  30  53  50  50  99 145 145 133 140 145 147 148 152 156 158 163 170 177 176 174 162 169 171 156 163 183 188 180 191 189 183 188 186 182 176 171 168 162 158 156 151 149 146 143 140 143 142 134 133 129 128 128 126 122 116 108 104  90  69  57  63  72  39  46  56  52  44  32  25  24  22  26  29  36  35  33  40  42
  38  38  38  39  38  38  36  37  32  34  42  44  43  41  38  43  41  57 110 143 138 131 141 144 145 147 151 152 153 161 167 170 172 173 173 174 178 168 166 187 189 186 194 196 187 183 180 180 178 171 166 161 157 149 145 144 145 143 138 138 136 134 135 131 129 131 127 120 108  99  93  82  72  59  72  59  66  62  56  55  55  53  38  30  24  20  16  23  36  35  35  39
  39  39  39  38  38  38  37  40  33  30  35  43  44  44  42  43  36  68 120 143 134 130 140 143 143 144 149 153 157 160 163 168 173 172 175 177 178 175 178 185 193 190 190 191 189 176 178 177 172 168 165 162 155 151 148 145 143 141 138 135 132 136 136 130 128 127 126 121 109 100  93  84  68  58  60  56  68  86 102  95  69  48  48  35  28  30  26  23  28  38  38  41
  40  39  38  38  38  38  37  37  33  30  37  37  39  45  48  40  44  77 121 133 131 131 138 141 145 146 148 154 157 159 165 168 171 170 173 175 174 177 182 188 191 188 188 185 184 178 179 176 174 171 169 161 157 152 149 147 146 141 137 134 131 134 136 128 125 122 116 112 102  96  92  88  75  59  62  54  84  97  88  85  94  71  42  36  26  28  33  28  30  42  44  47
  39  39  39  39  38  38  36  32  29  31  41  46  54  52  50  44  45  85 122 127 129 131 135 136 144 146 151 152 155 157 165 168 171 173 172 178 179 179 183 185 188 192 194 190 189 183 177 178 174 170 167 161 159 153 147 144 139 134 131 131 136 138 133 129 126 122 113 111 104  95  89  83  70  58  54  74  98  64  53  60  69  71  53  39  34  39  32  25  31  38  46  44
  38  39  39  39  38  38  36  33  31  38  53  63  73  74  57  37  49  86 118 126 128 131 136 135 143 145 148 154 155 161 165 164 171 173 171 178 178 177 182 185 185 195 197 190 191 187 181 178 175 169 163 158 155 151 150 144 138 140 139 141 142 139 136 132 127 118 112 106  98  90  85  79  69  53  53  79  50  40  27  25  50  49  42  36  41  38  34  28  29  36  44  45
  39  38  38  39  38  37  36  34  37  47  43  54  51  60  63  43  57  84 115 124 126 131 135 137 140 146 147 152 154 162 163 163 166 171 172 176 177 175 181 187 188 193 192 186 187 184 174 171 174 168 164 158 153 150 149 147 142 138 135 137 137 135 130 129 123 112 108  98  97  86  77  70  60  39  49  60  39  46  32  23  36  30  26  26  27  28  29  21  29  36  43  48
  39  38  37  37  36  37  40  34  37  40  36  53  42  42  57  48  51  86 113 121 125 128 133 135 141 145 142 147 152 157 160 162 166 170 173 176 177 178 180 181 183 187 185 180 180 181 185 179 172 163 159 151 148 146 140 134 127 124 126 134 133 131 127 123 117 105 100  97 103  96  76  66  55  36  49  52  37  40  34  37  25  27  20  18  17  21  20  25  34  35  37  46
  37  38  37  37  37  38  42  31  33  29  33  41  28  39  56  51  52  81 102 117 127 129 130 132 139 145 146 147 153 154 158 165 167 167 168 171 169 174 178 177 177 178 181 185 187 184 176 171 159 149 147 144 144 141 139 133 133 139 140 143 143 139 133 123 110  97 101 101 102 106  81  66  53  35  44  49  47  53  58  29  12  14  17  11   9  13  14  24  33  35  43  51
  35  36  36  36  36  38  38  27  29  18  34  43  37  45  58  43  47  77 101 111 126 132 130 133 139 149 148 147 150 155 157 161 162 166 167 163 166 170 168 169 170 177 183 182 176 172 168 163 164 160 159 161 163 155 149 144 141 138 134 138 134 130 128 116 104  99 102 100 105  99  83  70  51  35  40  48  41  45  50  31  16  18  18  13   8   9  13  22  36  44  49  43
  35  35  36  36  36  37  36  27  25  21  39  56  51  51  54  36  44  76 102 110 124 132 134 135 140 149 154 154 154 153 156 162 167 166 170 171 170 176 178 173 172 182 179 177 171 177 177 174 170 169 173 170 158 147 136 134 133 131 132 136 139 137 126 111 106 109 103  99 109  86  86  75  48  32  32  55  52  36  36  30  25  22  24  20  11  10  14  24  37  52  68  56
  35  36  36  35  35  36  37  29  28  28  52  56  34  38  43  34  42  78 102 103 118 132 136 138 139 146 158 156 152 151 149 152 157 161 160 160 159 170 176 168 169 170 172 179 179 180 179 175 168 167 164 153 148 144 148 149 146 147 152 153 148 138 127 114 107 113 104 102 101  85  93  67  45  26  28  41  46  47  37  37  40  17  22  23  16  12  14  24  41  59  69  73
  34  35  35  35  36  40  34  28  29  33  45  38  39  45  41  32  39  70 100 104 112 128 135 136 137 149 158 158 156 158 160 160 164 168 166 155 156 156 162 164 168 168 175 181 174 168 165 161 163 167 168 166 166 163 155 153 150 147 144 146 146 145 137 118 108 112 107 104  99  91  96  64  50  33  24  36  46  44  35  53  66  43  21  27  19  15  20  25  41  65  89  80
  35  35  35  36  38  40  31  28  24  27  40  45  48  51  50  36  30  65  93 104 113 121 135 140 137 144 152 152 156 159 161 169 178 183 178 175 170 170 173 176 178 176 175 165 159 169 177 179 182 182 180 177 164 151 150 151 157 146 148 152 152 139 131 128 102 106 105 103  97  92  91  73  54  40  24  36  41  23  29  55  63  57  37  23  17  22  34  48  61  61  82 100
  36  35  36  36  38  37  28  23  23  29  41  51  57  67  57  31  23  54  94  99 113 120 133 138 137 131 140 145 149 156 158 162 170 183 180 182 172 174 173 171 166 159 157 167 185 191 191 190 191 183 173 168 160 150 152 158 166 170 160 142 139 134 127 128 116  96  99 101  97  91  86  79  66  49  29  32  43  38  32  47  43  59  50  22  21  31  46  73  90  73  52  78
  36  37  36  37  38  32  21  22  32  38  44  60  88  89  61  30  27  47  90  99 110 121 135 137 135 133 133 138 148 156 158 163 172 176 174 175 175 172 165 165 162 168 177 193 194 187 188 188 184 178 172 171 163 159 157 166 166 156 135 112 101 100  97  97 113 100  94 100  96  88  84  74  72  61  40  38  51  35  26  38  55  68  41  28  30  39  55  83  89  74  44  50
  37  37  37  37  39  34  25  32  37  45  51  59  82  86  73  35  25  54  90 100 109 118 136 141 140 137 136 143 150 157 166 172 174 183 193 190 189 188 187 186 187 187 191 190 186 185 183 190 188 187 172 169 163 165 164 163 148 137 117  88  76  67  59  63  67  74  84  99  94  85  79  76  75  65  41  34  40  34  37  50  62  75  33  34  33  36  48  72  62  56  44  40
  38  37  38  37  38  37  29  37  45  54  53  60  62  71  84  45  28  56  91 101 110 115 133 144 142 142 136 141 150 153 156 162 167 177 188 191 190 187 189 190 183 182 187 189 183 178 183 188 182 174 167 168 172 170 167 148 125 118  96  84  73  63  70  78  65  56  76  93  92  85  78  75  77  61  44  31  42  42  45  53  68  78  30  31  37  35  37  57  50  42  45  38
  37  37  36  37  37  36  34  39  46  52  45  58  66  60  71  46  31  56  91 101 110 119 137 146 148 148 145 136 144 148 151 156 166 174 180 185 184 181 188 188 186 189 183 180 171 171 170 168 165 163 165 162 146 133 127 121 110  90  63  54  82 111 122 114  87  62  66  88  83  84  72  72  73  67  40  45  47  44  49  55  70  71  26  26  35  36  34  40  45  39  39  40
  37  37  37  37  36  40  42  41  43  45  40  49  83  72  62  43  33  64  91 101 107 126 140 150 152 150 152 146 143 146 146 142 151 162 171 173 172 181 191 189 181 176 173 171 166 159 160 154 155 156 147 116  90  88  85  81  66  46  54  99 135 150 144 133 112  88  71  70  74  81  67  80  73  64  47  41  45  46  50  61  77  63  18  17  25  31  41  39  39  38  32  37
  38  37  38  37  41  48  43  42  49  46  37  40 102  98  55  37  42  69  88  88  89 120 137 147 151 157 163 155 154 156 152 146 144 148 155 162 165 172 178 174 167 163 165 166 160 159 156 147 149 132 101  72  68  65  54  46  41  69 112 136 138 139 139 129 117 100  78  66  72  72  76  92  82  66  55  40  42  47  52  66  76  54  14  15  20  25  44  40  35  38  32  32
  38  38  37  39  49  44  38  41  54  51  35  32 101 121  68  45  41  64  89  80  74  80  97 104 118 135 154 158 158 159 164 164 157 159 163 160 165 164 159 160 160 160 158 154 152 151 144 135 119  96  70  58  53  36  24  25  43  72  81  96 106 113 112 103 100  89  80  70  72  75  86  92  85  75  68  52  52  50  51  66  76  43  15  21  21  24  35  37  35  40  41  38
  38  37  37  40  42  37  37  38  47  58  43  23  72 122  74  44  44  65  91  77  67  73  77  78  88 105 121 135 145 143 140 144 149 157 160 160 156 157 158 152 150 153 154 154 152 139 127 108  84  64  50  38  17  14  37  58  70  64  49  35  39  62  72  80  83  79  77  73  74  80  90  97  97  80  74  61  50  43  53  74  68  33  20  28  30  30  28  28  34  38  48  53
  38  37  38  38  37  37  39  38  39  51  49  26  46 109  75  45  50  70  92  73  60  71  82  81  81  91 101 100 104 100  97  93 107 120 130 138 142 153 150 147 145 146 150 150 139 122  97  69  51  42  26  16  37  71  92  87  91 103 104 105  78  69  72  74  73  71  79  81  75  86  89 101 106  80  74  68  46  40  59  76  56  23  24  27  29  31  26  25  27  34  43  50
  38  37  38  38  37  38  40  37  36  44  45  30  33  90  76  45  49  76  94  73  67  74  77  71  66  60  57  58  60  62  65  70  76  76  80  94 107 122 130 135 144 152 156 147 127 104  64  43  39  31  31  60  97 107  67  87  58  49  82  92  94 109 103  88  77  69  78  79  79  90  93  97 111  85  75  71  52  42  52  73  58  24  27  26  38  43  28  26  32  34  40  50
  37  37  37  38  39  38  38  37  37  40  42  32  20  64  83  45  55  85  99  71  61  68  65  64  56  41  33  26  21  22  16  18  29  40  36  29  44  71  94 130 148 159 165 150 127  80  45  41  36  56  68 100 167 157  77  83  46  61 118 107  68  96 109  96  80  80  93  94  94  95  99  98 102  90  82  62  50  50  61  74  56  28  25  34  40  52  51  41  36  42  42  44
  37  36  37  38  38  37  37  38  37  36  40  36  23  35  76  54  62  87 100  79  60  56  62  59  42  42  43  61  84  29  34  43  13  43  56  30  20  24  53 102 141 163 169 162 126  68  59  53  85  90  89 147 218 188  94  41  43  82 146 159  92  84  96  92  97 106 111 113 106 100 104 100  95  77  84  63  50  62  77  80  50  21  30  42  40  39  52  63  56  48  41  39
  36  36  36  36  37  37  37  38  37  37  38  39  33  24  60  62  54  82 100  88  76  63  59  56  60  58  65 151 154  60  42  29  45 101 146  85  58  54  43  92 144 166 171 170 123  75  87 106 136 107 129 154 189 186 133 107 103 114 137 116  89  75  83 104 112 120 125 129 114 108 110 102  91  80  71  77  45  54  67  81  51  30  39  44  48  35  31  52  64  47  41  44
  36  35  37  36  36  37  37  37  37  37  37  41  37  25  41  50  56  82 101 103  93  83  79  91  90  59 106 172 189 120  72  67  82 156 177 129  92 111  95  97 150 168 180 170 123  95 109 134 143 138 124 131 140 138 136 133 122 110 107  83  80  80  96 116 124 128 135 135 123 117 111  99  91  87  63  75  55  42  47  63  44  23  32  39  45  37  24  30  46  43  36  43
  35  36  36  36  37  37  37  37  38  37  38  40  44  42  35  44  52  77 106 111 117 116  94  97 100  75  85 128 157 158 128 133 146 155 143 134 132 138 124 108 151 174 184 170 128 104 115 121 137 133 118 110 113 120 120 116 103  92  84  76  80 100 118 130 133 137 141 136 130 122 112  98  92  88  69  60  56  40  38  50  36  18  32  38  33  33  28  21  32  33  27  31
  36  36  37  36  36  37  37  36  37  37  37  37  40  48  39  46  52  74 107 117 128 142 120 119 119 100  81  92 106 112 125 128 139 132 130 133 139 137 115 121 160 180 187 167 139 116 119 117 123 136 129 113 102 101  96  93  92  87  88 101 117 131 137 142 142 146 148 143 136 123 112 100  92  85  70  60  50  49  43  51  39  23  29  30  25  22  26  19  20  20  21  24
  34  36  36  36  37  37  38  36  37  38  38  37  35  32  38  49  41  69 103 120 132 147 145 133 122 114  98  92  99 104 112 111 109 112 122 133 140 137 114 127 165 180 185 168 145 123 120 122 123 141 141 132 119 119 114 105 103 107 116 128 136 143 148 144 146 153 152 145 142 129 110  97  86  85  70  66  54  43  47  62  43  21  23  22  22  17  17  21  18  18  20  24
  35  35  35  37  37  36  37  37  38  39  38  39  36  29  35  44  44  67 101 122 133 140 153 147 134 128 121 112 102 102 103 108 114 124 130 137 147 136 117 138 166 180 179 170 148 125 122 127 127 134 147 148 150 142 145 145 139 142 143 150 145 144 149 150 150 153 150 147 141 128 108  93  82  81  71  60  63  49  42  62  43  15  13  22  22  15  14  20  22  19  23  24
  37  36  36  36  36  37  36  37  38  38  38  38  35  32  36  36  46  60 103 127 138 152 160 153 145 139 136 127 126 127 132 134 141 141 143 158 151 131 113 146 174 180 182 172 144 116 123 126 126 131 149 158 164 162 160 164 165 157 152 151 158 160 159 155 150 152 149 142 139 123 106  90  80  80  73  63  57  51  47  62  19  10  14  18  19  15  14  18  27  32  30  28
  37  36  36  37  35  36  37  37  38  37  37  39  36  35  34  38  47  64  98 126 140 152 159 154 147 143 145 145 149 151 145 145 149 159 160 161 147 126 106 141 176 179 184 172 136 107 126 132 127 128 152 161 163 167 166 171 173 176 169 164 164 168 160 157 154 148 146 142 134 119 104  88  78  85  80  53  48  49  59  45   5   3  10  12  15  13  20  29  38  50  47  36
  37  38  35  37  37  37  38  39  39  38  37  38  39  39  34  41  52  56  92 122 133 154 158 164 154 150 156 155 155 150 147 152 159 166 165 159 145 123 109 131 171 180 180 166 129 108 131 134 130 125 144 161 165 166 170 169 176 183 172 175 175 174 155 149 150 150 144 138 129 118 101  84  79  81  80  66  49  45  55  33   3   4   6   7  11  12  31  47  46  50  47  39
  37  37  37  37  37  38  38  38  38  38  38  37  39  40  35  39  50  51  85 120 137 150 155 162 162 156 162 156 153 150 154 159 162 168 166 157 138 118 112 121 161 180 176 165 132 111 133 138 130 128 140 158 169 172 172 176 176 174 170 173 177 168 153 149 142 151 140 134 127 113  98  88  76  77  81  79  56  49  62  35   9   9   9   6   5  10  35  64  52  42  38  35
  38  38  39  38  37  37  38  37  37  38  38  38  37  38  37  40  47  46  77 114 137 146 150 157 160 157 159 159 154 157 161 166 167 163 165 157 139 121 114 121 160 178 177 162 132 113 130 143 131 127 142 158 172 175 177 176 172 171 171 171 173 168 160 155 144 143 140 130 121 113  96  81  76  80  78  75  67  52  49  27   9  13  10   8   5   7  25  48  50  43  35  30
  39  39  38  38  38  37  38  38  37  37  38  39  34  32  37  47  45  45  67 107 131 140 150 155 154 155 161 157 158 163 167 162 161 164 165 157 145 128 122 126 162 177 174 157 133 121 125 133 123 125 145 163 175 180 182 178 177 173 172 173 166 162 157 154 144 142 138 127 115 115  94  72  77  75  87  75  64  54  51  32  16  13  10  10   8   8  17  27  37  37  32  31
  39  39  38  37  37  38  39  38  38  37  37  38  32  27  31  45  46  49  60  95 127 137 147 146 152 161 166 168 166 164 165 166 166 166 166 158 143 126 130 137 160 173 175 160 140 132 122 113 117 126 143 159 171 176 175 178 180 175 172 166 162 158 154 143 137 137 130 121 111 106  77  79  78  70  78  82  68  50  40  30  10   9  10  11  11  10  12  16  28  35  41  39
  39  39  38  39  39  38  39  38  38  38  38  39  31  23  25  45  46  52  61  83 112 132 141 147 154 159 164 166 165 165 166 171 170 164 158 151 137 118 122 136 157 171 174 163 142 132 116 104 130 130 130 142 158 165 169 174 173 172 162 155 157 151 147 139 136 129 126 116 103  95  76  78  92  81  86  73  62  58  45  32  14   7   9  11  13  14  13  12  12  25  33  30
  38  38  38  38  38  38  39  37  39  39  38  38  34  25  31  49  47  62  73  79  98 121 137 149 152 155 161 158 160 165 163 162 161 161 153 136 133 127 115 136 157 167 170 163 141 127 108 112 150 139 120 133 142 149 158 162 169 161 156 149 146 145 142 137 129 123 121 109  92  89  77  81  90  92  72  72  60  48  48  43  29  12   7  10  13  14  14  16  12  12  22  27
  38  38  37  38  38  38  37  37  38  38  37  37  36  33  39  49  60  68  70  71  88 112 132 143 150 154 153 154 156 156 156 153 151 148 132 116 140 134 111 135 157 168 177 163 140 125 106 121 156 146 122 118 141 142 147 154 158 155 152 150 140 141 140 133 125 119 109 105  92  88  80  84  87  90  74  72  69  47  47  52  36  15   6   9  13  14  15  16  15  12  17  24
  37  37  37  38  37  36  35  38  37  37  37  35  36  39  47  51  63  70  77  80  78 103 126 136 144 148 150 150 150 148 143 145 139 132 121 119 145 138 116 130 152 169 182 173 147 127 116 125 149 146 122 113 148 149 143 143 146 148 147 141 138 136 133 128 119 105 101  99  92  82  81  90  91  91  77  71  74  53  45  44  25  14  12  10  12  14  16  18  16  15  15  22
  36  36  36  36  37  37  36  36  36  36  36  37  36  37  44  52  58  62  82  79  78  92 115 129 136 141 144 141 138 137 134 133 133 138 142 129 142 139 125 131 145 165 188 170 149 137 122 126 134 125  99  90 150 166 165 152 146 142 139 139 136 134 129 125 117 105  90  94  92  87  87  77  84  82  76  69  64  61  53  30  20   9  15  12  14  16  16  18  19  17  15  19
  36  34  36  36  36  36  35  36  36  36  36  37  36  43  53  60  55  63  73  75  86  85 100 119 130 136 138 134 132 130 130 136 144 153 158 128 118 132 123 141 154 167 187 181 153 130 111 113  99  66  46  79 151 167 176 176 167 158 135 134 135 129 128 121 111 100  88  96  94  79  81  76  79  82  74  70  79  70  59  43  35  21  17  19  22  19  17  18  19  20  17  18
  36  35  35  36  37  35  35  35  37  35  35  36  36  41  44  55  64  70  77  80  91  85  88  99 117 122 127 129 127 128 135 142 153 166 166 130  73  87 109 134 158 168 171 169 148 110  89  73  30  27  66 118 150 160 158 161 169 159 149 129 119 123 126 118 109  92  82 102  93  69  74  72  84  84  70  69  67  72  57  51  49  38  29  26  22  19  18  20  22  20  20  18
  36  35  36  35  36  36  35  34  35  36  35  35  35  35  44  58  68  62  77  75  76  83  83  86 110 114 117 123 121 133 150 147 141 149 143 123  98  55  66 108 145 157 150 147 128  90  62  27  42  83 133 140 127 137 139 128 134 131 150 136 113 113 116 109 104  87  87 106  86  75  71  69  76  81  74  62  67  67  65  54  44  39  34  22  15  19  20  22  21  22  22  18
  35  36  35  36  35  35  35  35  35  35  36  36  35  37  41  56  59  64  71  72  70  79  81  86 103 107 115 119 127 132 145 117 111 132 126 124 110  85  49  75 126 142 126 115 100  72  25  34  74  90 105 127 115 117 123 119 105 107 121 135 114 105 113 105  97  80  83 107  86  69  74  71  73  75  85  77  75  59  65  50  32  31  22  23  18  18  20  22  24  23  22  17
  35  36  34  34  34  33  34  33  34  34  31  35  35  33  49  54  49  65  67  61  69  79  87 100 100 103 116 123 119 132 117  91 106 109 110 106  88  68  61  64  88 104  84  79  71  32  27  55  62  63  70  94 107 101 106 108 100  99  98 102 109 103 111 100  87  78  77  89  84  73  81  70  71  70  68  78  79  76  73  54  48  45  25  16  19  17  19  23  24  24  25  17
  34  34  32  31  31  31  30  28  27  25  23  21  22  29  37  42  49  57  54  69  69  70  86 107 101 102 120 108 124 120  87  83  94  89  93  81  74  77  93  88  48  40  35  38  28  23  59  72  70  69  79  89 102  87  91  85  96 104  97  90 102  96  87  99  84  79  77  80  82  77  79  82  71  70  72  69  73  80  78  67  53  45  33  17  18  19  20  22  24  24  20  15
  32  31  30  29  27  24  22  19  16  15  16  16  17  21  28  44  55  58  60  73  62  68  83 105 105 111 120 109 121  92  81  83  77  82  80  80  71  93  96  86  78  41  32  35  40  54  86  88  85  89  80  84  87  93  78  93  98  99  86  81  92  94  77  83  83  75  84  90  86  80  74  90  82  71  71  55  58  58  57  51  41  41  33  25  21  19  20  23  23  16  14  17
  29  28  24  22  17  15  15  14  14  14  15  13  16  16  29  57  55  55  59  53  52  72  93 104 105 105 103  99  97  84  82  79  77  85  71  77  80  89  79  84  96  83  87  77  74  91  98  94  98  95  76  79  79  94  77  78  94  79  77  70  73  81  82  74  78  74  90 102  93  80  70  81  86  71  65  64  58  50  52  47  40  36  33  20  16  18  19  18  15  14  17  20
  23  20  16  14  14  14  15  16  17  17  16  17  18  21  31  47  50  51  49  49  69  76  82  86  86  93  86  82  86  77  83  86  90  74  75  70  68  86  75  78  96 106 111  85  92  95 111 115  98  68  77  70  62  88  95  88  79  76  62  67  68  62  85  77  76  84  97 104  87  72  79  81  77  71  67  72  67  61  50  41  33  38  36  21  14  15  13  14  16  17  20  23
  18  16  16  16  17  16  16  17  18  18  18  19  20  23  29  42  55  51  50  53  71  70  75  87  85  84  83  85  85  73  88 101  93  79  80  85  70  74  72  70  71  91  94  97 102 112 106 106  99  73  64  80  78  80  80  68  55  58  58  61  67  62  76  88  70  78  85  99  82  71  81  79  67  68  67  67  68  61  52  49  43  28  25  27  16  15  17  18  20  21  24  26
  17  18  19  19  18  19  18  19  19  19  21  23  22  25  33  41  52  47  51  61  75  73  72  80  77  83  81  86  75  77  83  91  66  68  77  64  56  59  74  60  61  65  82  98  96  95  82  74  65  70  59  55  55  56  57  63  77  65  70  76  68  67  76  78  64  60  71  80  78  71  81  75  71  64  69  65  63  58  55  51  52  32  11  20  18  22  26  28  30  30  33  33
  20  21  21  21  21  20  21  21  21  22  24  25  25  25  28  36  38  45  52  63  67  68  69  68  62  70  73  76  75  85  85  64  58  70  73  73  70  66  57  56  60  58  82  81  77  65  71  67  58  61  68  69  86  90  81 109 142 122 102  82  75  74  75  68  63  56  63  69  79  75  76  76  70  74  67  67  64  59  55  51  54  33  24  25  25  29  31  33  31  32  35  34
  23  23  23  22  22  22  23  23  23  25  26  27  26  27  30  36  42  52  52  50  66  65  69  64  63  74  72  72  79  90  96  94 100 115 123 131 142 145 133 130 124 133 132 121 118 123 153 142 134 143 142 132 124 120 120 130 143 134 117 106  89  80  76  65  59  63  54  68  82  79  69  61  64  67  68  62  49  51  53  53  57  47  36  35  32  32  35  33  30  33  35  32
  24  24  23  24  24  24  24  25  25  27  28  27  28  30  33  34  43  54  48  54  62  59  63  56  60  75  67  61  81  84  93 112 125 135 153 153 152 156 161 170 171 170 164 170 164 158 167 164 155 159 145 141 135 136 149 151 140 125 116 108 101  92  73  68  59  64  54  64  73  84  72  56  58  59  65  64  52  46  49  52  38  31  29  34  31  36  34  29  30  32  32  32
  25  26  25  24  24  24  26  26  27  28  28  28  29  29  29  32  43  49  50  57  55  55  56  59  59  65  60  61  75  85  87  98 118 134 141 146 150 141 139 145 144 141 136 136 130 120 128 140 135 134 125 128 141 147 139 135 131 115 104 102 105  91  62  60  53  61  56  61  57  72  71  60  61  66  71  67  54  54  49  50  40  28  29  33  33  34  32  28  32  35  36  38
  26  26  25  23  24  24  26  26  28  28  29  29  30  29  28  34  38  49  60  60  59  54  49  63  65  59  60  55  76  77  86 106 118 125 127 127 136 140 132 130 121 119 124 128 129 122 127 127 141 131 131 134 130 138 131 111 105 107  97  95  89  87  73  64  68  61  56  65  55  64  65  64  58  61  62  62  52  51  60  52  30  27  29  32  31  29  26  30  36  39  41  42
  27  27  26  25  26  28  28  28  27  28  29  29  28  28  27  31  43  59  49  50  59  55  49  48  55  57  58  75  76  73  97 107 114 110 111 112 112 118 114 111 109 113 124 130 132 122 131 121 111 122 126 132 132 130 119 113 111 109 104  96  80  67  73  75  76  70  65  62  54  67  61  63  57  59  59  59  61  49  43  45  34  29  33  30  24  22  24  35  39  40  38  33
  28  27  27  27  28  29  28  28  28  30  30  30  29  29  27  30  48  45  34  49  47  47  58  54  59  54  70  85  66  80  94  93  95  97 102 111 108 109 102 111 111 111 113 114 111 110 108 114 121 117 118 115 115 112 105  92  95  95 103 101  88  64  61  66  74  86  76  62  60  62  67  61  60  56  51  53  52  55  55  46  40  34  32  24  20  26  35  41  40  38  30  36
  29  28  29  30  30  28  28  28  31  32  30  29  29  28  30  33  35  41  47  59  49  54  56  67  64  73  77  65  71  82  80  81 100  98  87  95 105 107 103 107 104 102  99 104 107 107 104  94 110 123 115 124 112  98  97  97  89  84  93  90  92  74  68  69  71  82  80  62  56  57  64  63  58  59  56  50  51  42  37  40  32  29  22  18  25  35  39  42  40  29  33  38
  29  30  30  31  31  30  29  30  30  30  29  29  28  28  27  29  33  43  60  53  47  53  58  57  59  71  64  57  72  73  83  99  91  78 101 108 104 104 109 113 114 101  99 110 111 106 116  93 101 125 122 120 115  96  94  94  95  90  81  85  91  63  61  64  65  69  71  72  57  58  55  60  55  55  57  59  61  52  39  29  26  17  13  23  36  41  40  36  24  31  38  32
  30  31  31  32  31  30  30  31  30  29  30  30  29  28  25  28  30  40  44  37  45  60  55  59  66  52  57  61  71  75  96  84  70  97 112 108  87  86 105 115 113 100 113 118 117 108 115 107  98 102 113 114 105 102  99  93  85  84  82  76  77  66  70  60  55  66  64  75  68  53  48  48  54  63  64  56  52  56  41  18  11  10  22  35  40  37  35  19  24  40  33  26
  31  32  32  31  31  30  31  31  29  28  29  30  31  28  24  25  31  38  33  39  46  52  54  61  57  64  67  68  67  83  88  74  88 104  92  80  68  97 117 117 105 119 128 125 119 107 116 123 114 105 101 110 105  88  98 102  91  80  88  72  67  64  63  80  60  66  71  60  64  52  50  45  47  58  65  66  56  47  53  30   7  20  39  42  36  31  18  19  39  32  24  16
  31  32  33  31  30  31  30  30  30  30  29  28  28  27  27  32  30  32  34  38  48  56  53  63  68  62  62  69  72  76  71  78  87  83  82  69  80 109 112 106 105 119 135 121 110 103 108 129 118 121 106  92  93  91  89 101  82  74  83  85  64  66  66  66  59  64  59  52  69  64  44  50  50  47  53  62  58  56  46  42  34  36  41  37  28  15  14  36  35  21  10   5
  34  34  34  31  31  31  28  30  31  30  29  27  28  25  30  36  28  36  41  44  50  49  51  66  60  62  66  70  78  70  70  70  72  75  78  89 100 110  98 108 104 113 121 102  98 104 114 124 110 110 111  92  85  80  92  96  87  81  76  71  63  57  54  57  73  67  58  70  58  60  55  49  55  45  42  55  53  58  39  27  36  44  39  25  13  11  36  35  20   8   2   1
  34  34  32  31  32  29  29  30  31  30  29  30  28  26  28  32  36  45  44  48  48  44  52  71  69  69  62  69  84  78  65  71  67  81  79  91 109 105  93  98 107 106 104 106 103  94 102 101 107 107 102  98  84  85  85  92  84  77  73  62  60  58  65  55  64  60  57  60  49  55  49  47  48  52  50  55  44  47  24  25  30  30  26  15   6  31  38  19   6   0   2  16
  36  33  32  33  31  30  29  30  31  31  31  30  27  28  30  32  43  42  45  48  53  53  56  63  68  45  55  68  68  62  72  76  68  81  76  81  91  97  86  87 105  97 102 101  96  87  89  94  97 109 105 105  86  82  86  84  76  68  65  58  55  59  67  58  55  55  55  59  49  50  56  47  45  48  55  57  51  48  33  30  32  22   7   7  25  39  21   3   0  10  26  35
  36  34  33  33  29  30  29  29  31  31  32  30  27  31  35  33  33  37  45  49  53  52  58  63  56  61  65  55  59  65  60  77  71  71  72  84  81  86  87  84  95  86  95  88  89  90  96  88  91  96 110 105  91  76  73  82  73  66  54  59  59  59  64  59  56  52  54  62  65  50  49  54  51  47  47  53  44  46  43  38  27  11   2  20  38  19   0   3  20  33  38  36
  34  33  35  31  32  30  29  29  31  31  31  29  28  31  32  32  29  31  32  42  56  47  53  61  59  67  68  57  64  77  60  70  67  66  80  91  82  93  83  79  92  78  93  82  78  83  90  88  85  79 102  86  85  84  83  74  71  62  58  63  61  57  70  53  50  51  51  59  76  64  51  50  45  51  66  57  41  36  34  31  14   3  15  37  15   2  11  28  37  38  38  30
  35  35  34  31  31  30  31  30  31  32  31  30  31  31  30  30  29  31  30  44  52  46  50  55  67  65  61  59  65  68  61  64  67  64  95  75  83  97  75  84  90  75  78  86  73  82  80  83  85  75  83  81  72  77  78  69  74  70  48  58  56  61  67  57  55  52  53  62  67  61  54  49  44  51  59  61  44  35  29  17   5   6  35  21   7  19  34  39  38  39  33  19
  37  36  34  31  31  29  30  29  33  32  31  31  33  33  31  31  30  28  33  38  43  51  56  56  67  64  58  68  69  72  67  65  64  80  81  68  84  93  78  74  87  77  75  77  66  81  78  78  75  71  72  64  63  66  85  84  65  63  57  61  59  66  61  58  58  61  59  62  63  65  59  47  54  50  50  42  32  33  30  14   4  20  30  21  26  35  39  37  37  38  22  18
  39  37  35  33  32  31  29  31  33  33  30  29  33  33  32  31  28  28  32  40  45  57  52  58  69  61  62  64  65  75  70  67  71  72  70  71  89  79  65  69  84  78  79  69  72  80  73  66  68  70  76  61  63  64  74  92  68  65  57  64  61  65  65  62  56  63  61  58  57  72  67  40  51  40  38  34  31  33  24   8   9  14  21  29  34  38  38  39  36  25  14  20
  37  35  34  32  33  31  31  33  33  32  29  31  33  32  32  30  29  28  30  36  42  50  50  54  64  60  57  65  68  56  71  74  69  70  64  64  83  69  66  68  76  76  71  61  72  71  70  59  61  70  65  58  61  65  77  82  81  68  56  53  58  55  57  67  58  51  63  67  63  57  68  54  38  34  17  26  32  32  16   5  22  16  20  32  37  38  37  39  30  13  15  20
  35  34  33  33  32  31  32  33  34  31  28  31  33  32  31  32  30  28  30  32  37  48  53  62  63  65  59  72  68  59  64  65  70  72  66  75  77  65  59  73  68  72  77  60  67  66  66  67  60  60  63  67  67  69  70  80  72  65  62  56  63  60  57  64  52  50  60  64  62  54  60  53  38  32  18  25  31  30   9  11  32  19  20  35  39  36  38  37  19  12  17  21
  36  35  33  38  34  31  32  32  34  29  28  32  33  34  32  31  30  28  32  33  32  39  51  63  55  61  58  68  60  71  58  67  63  71  66  66  76  70  71  63  56  71  70  65  59  65  64  63  58  57  67  54  61  76  68  76  59  60  63  49  66  62  63  62  68  50  60  60  63  62  49  50  41  32  18  22  34  31  12  20  38  20  23  36  38  36  38  26  12  15  18  25
  35  35  33  35  34  32  32  32  32  29  30  33  34  33  32  31  30  31  35  32  33  32  50  54  60  67  61  52  53  63  60  67  66  65  68  64  70  74  64  46  61  78  61  61  51  66  69  62  63  54  69  62  64  73  67  69  61  63  59  59  60  58  70  66  63  58  58  64  57  64  61  37  30  26  14  27  35  21   9  31  40  22  26  38  36  38  33  14  12  17  22  22
  35  35  32  31  32  32  31  33  31  28  33  34  34  33  32  32  31  31  32  29  31  45  55  58  66  63  59  56  59  65  63  73  74  62  71  59  64  70  50  54  64  73  56  62  61  59  56  70  55  50  60  63  58  61  67  65  68  76  68  63  68  61  68  66  64  65  60  59  57  55  63  42  27  23  19  34  39  16  11  35  39  21  28  37  37  38  23  12  14  16  21  17
