P2
# Generated by OpenCV 4.2.0
92 112
255
 104 106 107 106 106 106 107 107 105 106 104 105 105 105 106 106 107 106 107 111 102  88  77  72  71  65  73  68  58  63  57  55  46  39  33  38  34  34  39  45  42  34  38  36  39  39  39  43  60  75  64  72  56  64  69  78  80  82  83  59  36  66  93  94  63  68  71  66  79  85  90  98 107 108 103 107 111 112 112 109 108 108 108 106 105 105 105 105 106 104 105 103
 104 105 107 106 107 107 107 107 107 107 106 104 105 105 106 106 108 108 100  90  89  96  97  85  66  55  59  60  56  52  45  38  42  40  39  36  37  32  31  40  42  40  38  46  36  37  35  40  57  74  64  69  58  63  66  72  76  87  67  45  51  84  80  52  64  72  68  65  67  76  72  69  79 105 109 109 111 112 112 110 110 110 109 106 105 105 106 105 106 105 104 103
 104 106 106 106 107 108 108 108 107 108 106 106 107 106 109 107  97  84  83  92  93  78  63  49  43  44  42  43  45  41  37  38  33  30  39  45  40  43  28  31  41  44  41  46  36  35  40  41  59  67  63  70  58  46  64  61  75  65  43  41  74  81  40  52  58  52  57  66  67  67  60  62  46  72 104 111 113 112 112 111 112 109 107 107 106 106 105 105 106 105 105 105
 104 107 107 107 107 108 107 108 107 107 107 107 107 110 101  88  85  96  99  76  53  34  35  37  31  39  44  47  42  43  40  45  36  35  33  41  41  40  41  30  35  41  39  41  40  40  41  48  55  61  58  72  77  53  50  58  63  45  38  59  74  52  42  58  47  41  44  50  66  65  71  73  71  50  78 107 116 115 112 112 112 110 108 107 108 107 107 106 107 106 106 106
 106 108 108 108 108 108 108 108 108 108 108 109 109  99  84  88  91  83  62  48  52  55  66  65  46  42  44  47  46  42  39  37  41  35  35  40  43  37  39  41  36  34  35  39  43  43  47  45  53  55  53  70  69  48  50  54  53  40  49  65  59  42  47  50  50  65  64  74  53  46  60  66  78  73  70  95 110 116 113 112 111 111 109 108 107 107 107 106 107 107 107 108
 106 107 108 108 108 109 109 109 108 109 108 102  92  79  72  80  68  43  46  61  59  58  55  51  50  50  45  45  48  45  50  48  39  36  36  35  37  42  41  39  42  41  37  37  35  51  44  41  43  59  49  63  60  37  42  60  47  51  52  60  47  45  50  56  54  66  73  89  74  55  52  58  57  65  73  79 104 112 116 115 113 111 110 109 109 108 108 109 107 107 107 108
 105 106 108 108 107 107 107 107 106 105 103  89  85  73  87  67  42  61  79  57  31  31  35  36  34  36  36  32  39  38  29  38  48  38  33  31  28  29  42  52  34  34  40  39  38  50  40  46  38  63  49  60  51  34  38  61  49  47  52  54  43  54  53  61  59  64  88  83  69  60  67  62  57  71  77  75  83 100 108 115 114 113 112 111 110 109 109 108 108 108 107 108
 104 106 107 108 107 107 107 108 108 111  93  93  82  90  65  32  62  71  41  28  17  14  14  24  24  20  27  35  22  27  34  18  26  46  40  30  28  28  39  59  42  36  39  37  49  49  47  49  42  55  48  58  61  43  50  61  51  41  52  52  48  58  60  63  66  70 103  72  74  80  82  76  69  59  52  59  75  90 105 106 114 114 114 112 111 111 110 110 109 109 108 109
 105 107 107 108 108 109 108 108 112  98  85  85  94  73  29  56  73  46  24  21  19  18  15  19  23  25  22  31  36  28  32  32  22  35  51  32  35  32  44  59  56  41  35  31  66  59  58  45  59  53  59  66  69  58  66  56  53  48  54  54  47  62  69  69  74  95 116  83  94 101  94  86  64  57  52  39  51  78  99 106 106 109 113 113 113 113 111 110 110 109 109 109
 105 107 108 108 110 108 109 111 100  87  92  92  89  36  57  84  56  14  20  26  24  16  15  13  17  15  23  31  29  38  38  32  20  33  52  45  39  36  48  64  71  52  44  64  75  65  61  59  84  63  70  72  77  73  70  64  55  59  57  64  54  64  84  89  84 112 114 102 114 101  97  83  70  44  34  54  42  31  69 100 105 100 105 115 114 113 113 111 111 110 110 110
 106 106 109 109 108 108 110 102  93 105  98  79  48  68  85  43  16  22  27  26  24  20  20  20  19  21  23  37  40  40  39  39  27  36  52  59  50  49  56  69  77  51  69  90  80  67  61  95  80  74  78  86  68  80  72  74  61  63  57  70  61  76 101 102 101 112 101 113 128 101  99  63  47  58  64  67  65  59  66  86 110 102 102 115 118 114 112 112 112 111 111 110
 107 107 107 108 109 109 106  99 112  91  57  40  33  38  26  19  24  25  26  26  25  25  25  26  29  31  36  38  40  53  53  58  39  41  63  63  62  60  65  79  69  46  89  99  82  66 101  98  72  87  96  80  54  95  94  75  67  69  58  78  73  86 107 101 115  98  87 116 119  78  88  58  74  87  70  49  57  71  72  83  97 102  99 107 117 116 114 113 112 111 110 110
 107 107 109 109 109 110  97  93  66  36  28  24  24  24  27  24  24  24  25  26  26  25  25  30  33  37  45  46  38  44  49  79  44  42  67  77  75  69  76  84  72  66  96 100  73 107 120  69  83  98  93  50  86 103 102  71  71  72  75  94  79  95 119 101 106  95  76 117  88  66  86  81  94  84  71  78  87  78  78  58  55  99 100 100 110 116 115 114 113 111 110 110
 106 107 109 110 109 107  83  44  26  35  29  28  20  16  21  22  21  19  20  24  25  30  33  36  38  44  44  41  34  40  42  74  57  51  52  85  85  75  75  85  80  86 101  76 109 125  97  73 101 103  68  64 106 108  92  70  83  79 103 105  88 105 125 102  86  79  76 104  68  73  94  94  81  84  99 101  89  91  81  74  59  77  97 107 113 109 115 115 113 111 111 110
 106 107 107 106 111  93  47  32  60  49  33  29  18  14  14  17  18  18  19  19  23  27  30  34  42  53  65  67  59  53  54  65  57  65  46  78  79  66  73  94  76  99  86  98 129 104  89  95 109  97  57  89 108  99  90  89  96  93 118 106 102 108 115  93  85  74  81  80  56  76  95  96  95 111 109  93  88  72  44  38  46  64  90 104 114 112 109 112 112 113 112 110
 107 106 108 111 104  64  31  46  75  26  27  28  28  27  23  18  17  18  20  16  18  20  29  39  50  61  73  71  78  77  73  67  63  65  53  77  76  75  75  88  91  98  85 113 109  98  90 111 104  89  68  90  95  98  94 108  93 111 112 114 111 106 111 105  99  88  86  77  74  92 102 105 106  95  90  82  65  65  46  45  47  42  72 102 118 115 114 109 109 113 112 111
 105 105 110 105  84  47  51  40  30  26  28  23  21  23  26  25  23  25  25  23  25  31  35  44  55  61  57  50  52  67  67  64  75  66  62  76  77  76  79  84  92  83 101 106 102  92 108 111 113  93  85  92  97 100 111 107 106 117 115 130 121 125 130 130 119 107 105  97  95  97  93  86  77  80  86  85  91  96  86  76  78  70  76  96 114 116 114 113 104 111 114 113
 105 104 104  88  56  55  45  32  21  29  24  15  12  14  10  14  16  17  18  24  29  31  40  55  62  61  57  55  59  62  69  79  76  70  72  77  74  73  80  85  84  93 114 107  91  97 117 123 121  85 105 112 101 110 110 112 123 122 127 137 139 146 144 142 129 121 118 110  99  89  81  78  76  83  93 101 112 111 108 104 100  94  81  83  98 111 112 114 110 105 114 112
 103 101 101  67  59  46  27  36  26  21  18  18  15  20  25  24  24  25  27  31  32  36  56  74  75  65  55  57  61  69  71  80  86  79  78  78  75  70  76  84  84 102 115  93  84 105 120 128 120 110 118 106 103 102 107 121 132 135 149 153 161 162 161 157 147 137 132 126 111  93  81  76  79  81  77  77  87  87  98  91  72  46  30  43  63  94 116 114 112 105 110 114
 100 107  88  49  35  29  27  32  31  31  17  11  17  22  24  28  30  29  25  28  35  56  73  72  65  57  61  64  68  73  73  80  93  92  91  85  78  79  82  94  96 107 114  94  98 112 116 124 119 117 110 103 105 111 124 130 139 159 163 166 169 170 174 171 166 159 147 140 122 107  93  90  80  68  66  73  76  84  84  77  77  77  66  57  71  64  99 121 118 109 107 114
 105  96  55  30  35  40  28  28  31  28  27  28  31  31  31  30  29  24  22  30  51  64  57  58  53  58  67  73  79  82  83  88  97  97 103 103  97  95  97 104 107 110 111 106 111 115 119 129 125 126 125 122 119 125 133 148 168 171 162 165 170 175 178 179 173 171 165 157 144 126 110 100  91  87  92  89  89  93  95  93  91  97  91  81  77  77  61 110 122 112 107 114
  84  53  33  53  48  39  33  38  31  20  20  21  23  21  25  30  26  26  26  41  51  46  55  59  58  67  80  88  93  96  97 103 106 106 105 114 113 111 112 113 116 116 126 127 124 126 133 138 140 143 141 133 131 141 152 167 170 169 172 176 178 174 175 176 173 173 171 164 158 153 140 121  96  81  77  82  87  92 102 108  91  92  96  77  68  75  68  80 114 112 104 114
  45  42  50  52  49  54  43  46  21  19  23  24  21  21  20  19  24  22  28  42  42  49  62  67  68  82  95  96 104 106 107 111 114 115 120 124 126 130 128 128 127 128 139 142 141 147 146 151 156 155 151 147 156 165 171 172 176 178 179 180 179 178 177 178 179 177 175 174 171 169 157 138 114  89  80  79  76  76  86  87  91  89  60  60  63  45  61  74  96 116 109 117
  49  46  49  49  52  45  35  32  27  25  22  23  22  21  17  16  18  23  33  35  44  60  75  71  79  99 100 100 109 111 112 114 118 123 128 133 137 136 133 135 137 138 144 149 159 162 161 164 166 166 163 167 173 177 177 180 180 180 179 179 180 179 176 175 179 180 179 176 175 174 173 156 126 106  90  80  76  75  69  80  80  63  56  48  54  40  32  53  73 100 109 118
  38  42  60  78  85  53  24  23  26  26  24  22  23  21  18  20  24  28  31  38  55  75  79  75  90 101 102 108 108 111 115 117 121 129 132 140 142 140 136 136 139 142 149 153 162 167 164 168 170 171 171 175 177 177 178 177 175 173 175 180 178 178 178 177 179 179 180 179 178 178 179 171 145 120 107  93  82  77  75  79  76  75  66  62  47  47  46  43  57  83 102 109
  67  71  71 101  94  43  15  18  19  20  20  22  21  18  25  28  25  25  35  49  66  82  82  84  95 103 105 110 109 112 116 115 119 127 132 136 141 140 142 142 146 145 150 155 162 167 166 167 170 170 169 172 177 176 174 175 173 175 176 179 178 179 177 178 180 178 179 179 180 178 178 176 161 135 128 127 107  94  86  85  86  96  94  88  81  60  59  41  50  65  82  91
  88  78  78 105  87  30  14  14  13   9   8   8   8  20  23  22  25  31  43  60  80  89  87  88  94 104 105 108 110 115 116 117 123 127 132 134 140 141 143 145 145 145 149 156 159 165 167 167 166 168 170 170 175 176 175 177 175 177 175 174 177 178 177 178 181 180 180 177 179 177 178 180 174 149 131 138 133 112 103 103  94  90  84  81  71  69  60  42  36  62  75  87
  91  85  87  98  58  21  16  11   8   3   3   6  13  15  15  24  30  38  55  74  89  95  93  90  95 104 106 104 111 113 114 119 122 128 132 135 137 141 141 143 145 148 153 159 161 165 166 167 168 171 173 173 174 174 169 170 174 175 175 175 175 178 179 178 180 182 181 181 179 178 177 176 175 160 137 133 135 120 102  96  98  92  92  93  88  86  69  48  29  37  85  98
  94  88  88  72  26  21  19  13  11   9   7   7  13  14  23  26  35  48  66  82  94  98  97  96  98 102 105 107 112 114 114 116 120 122 129 134 136 140 141 143 151 152 152 159 161 163 166 169 169 173 175 175 172 174 172 172 178 176 177 178 179 177 177 178 181 182 182 181 179 180 180 180 171 162 149 146 133 117  91  86  85  87  92  91  90  74  47  38  22  25  56 111
  97  96  73  38  24  25  17  17  16  12  11  12  16  19  25  27  38  54  73  84  95 100  99  97  97 100 102 107 107 111 114 119 122 124 130 129 135 138 141 141 150 150 151 157 163 160 164 170 173 172 176 176 173 174 172 176 181 183 181 181 180 179 180 180 180 180 179 180 179 181 185 182 175 162 154 152 130  99  79  74  73  81  82  83  86  79  79  69  53  48  41  76
  95  95  48  30  40  23  17  14   9   9   9  10  15  12  21  33  44  59  75  88  95  99 101 100  99 102 102 106 107 107 114 116 118 125 129 129 130 137 141 147 148 150 150 155 162 161 164 170 174 177 177 177 175 177 176 178 181 182 182 182 183 183 182 182 181 179 179 176 178 181 183 182 176 163 159 153 141  84  63  70  80  88  81  79  87  94  81  56  39  21  24  53
  95  73  35  51  38  24  24  20  17  13  11   6  13  21  26  34  49  62  75  88  95  96 101 101  98 104 105 102 105 107 108 113 117 120 124 128 131 136 141 146 145 145 154 159 159 160 167 173 176 176 176 174 176 175 175 178 181 182 180 182 181 178 179 181 180 180 179 179 178 179 183 185 180 166 154 153 135  84  58  81  89  77  69  70  76  62  49  53  43  27  19  41
  81  45  44  49  27  25  35  31  22  15  13  11  11  19  27  40  56  65  76  87  94  96  99 100  98 100 103 104 105 104 106 113 116 120 126 131 135 137 138 141 144 143 152 157 159 162 165 169 170 170 174 176 181 180 179 180 184 181 178 181 182 179 179 181 179 179 178 179 180 181 183 182 180 171 156 151 137  85  69  86  69  47  48  61  82  89  65  47  42  31  26  47
  57  50  50  33  22  40  41  26  17  18  12  11  16  22  32  42  51  63  73  85  92  96  96  99  99  97 100 100 103 104 107 108 114 117 123 127 132 135 137 137 139 141 146 150 158 162 164 168 174 180 181 180 181 182 181 183 181 180 181 180 180 180 180 182 179 177 178 179 180 181 180 181 179 171 161 147 138  87  70  81  59  60  62  64  74  88  88  56  41  23  24  55
  40  44  40  26  32  51  34  24  23  22  17  10  17  18  25  40  53  61  70  81  90  95  98 100  98  99 101 101 104 104 105 107 113 117 122 129 134 135 138 138 142 143 150 153 155 154 162 171 175 179 178 178 179 177 176 174 172 173 175 178 177 178 178 178 177 177 178 180 182 179 179 179 178 169 161 148 130  85  78  83  72  56  45  59  74  68  91  99  58  34  23  60
  36  35  40  29  45  40  35  24  19  17  11  11  18  23  31  41  51  61  71  79  86  93  98 102 102 102 101 100 102 105 106 110 114 115 118 126 131 135 136 137 138 142 152 157 156 157 165 173 174 172 174 174 171 174 173 170 176 176 174 173 172 174 175 173 175 176 174 176 178 179 179 180 177 169 156 150 134  83  87  79  54  51  48  38  47  51  63 101  98  46  20  57
  20  39  37  33  44  38  38  22  20  17   9   6  12  22  29  32  47  59  71  79  86  92  98 101 102 103 101 100  98 101 107 105 108 115 117 121 126 131 134 134 133 137 145 151 149 152 158 166 174 175 175 172 173 172 168 175 180 182 179 176 180 177 177 177 178 177 177 178 175 177 178 179 179 174 159 147 135  95  86  68  61  49  59  29  40  54  57  60 112  88  47  57
  28  37  35  37  44  41  33  26  14  13   8   9  13  22  27  37  46  62  73  81  83  89  94  99 101 108 106 103 100 105 107 108 113 119 125 127 133 137 138 134 135 136 138 145 150 152 158 166 169 173 169 169 174 171 168 173 178 177 176 174 176 177 176 173 175 176 176 179 179 174 173 176 177 174 163 143 130 100  79  83  66  49  45  38  25  43  68  57  61  91  70  63
  43  37  28  39  49  47  35  25  15  12   5  12  12  24  37  41  46  61  74  79  78  86  92  96 100 106 108 104 105 106 107 109 114 119 125 131 139 145 143 142 140 141 143 145 152 153 158 163 168 168 169 166 164 166 165 166 168 170 168 172 175 178 176 175 176 175 176 180 178 176 175 175 175 174 159 144 132 101  67  69  56  47  28  43  56  48  62  71  57  60  61  63
  41  26  24  38  54  46  18  10   9  18  18  13  19  26  27  29  44  61  71  76  80  84  90  93 101 105 107 106 102 104 106 109 113 122 127 132 138 147 148 150 147 144 146 149 155 155 157 161 160 157 161 164 159 159 164 170 173 173 177 182 184 181 177 179 179 182 179 176 175 177 177 177 179 172 160 145 127 107  73  60  47  53  51  52  82  71  53  65  61  53  43  54
  30  18  24  49  50  33   8   6  11  12  13  17  15  16  21  29  40  58  72  74  82  83  90  92 100 104 105 107 103 104 105 107 116 122 126 131 141 147 151 153 152 149 145 149 149 150 149 153 159 161 166 165 164 164 169 171 177 180 182 182 182 183 181 183 186 184 179 179 177 177 176 176 180 178 168 145 120  91  68  56  35  60  63  66  73  66  57  48  58  53  32  52
  24  15  37  45  44  26   8   5  13   9   6  10  16  19  26  29  34  57  76  77  77  83  89  93 102 104 104 106 106 104 106 111 119 125 132 137 143 148 159 161 159 158 154 156 153 154 157 157 164 164 162 162 164 167 172 176 179 183 181 184 184 184 185 179 179 183 182 184 179 178 178 177 182 179 177 145 114  79  63  62  49  66  59  66  44  57  75  54  54  48  21  50
  18  18  40  33  47  29   7   4  15   7   7   6  15  21  27  27  36  57  73  78  76  81  85  91 100 104 108 106 107 106 108 112 116 123 128 134 140 148 157 162 163 162 162 161 161 160 162 161 162 160 158 160 166 171 173 177 182 188 189 185 183 187 188 186 185 185 179 176 178 178 177 179 178 180 181 152 109  73  79  85  62  72  70  47  41  44  64  75  64  31  35  54
  26  22  38  32  41  35   7   7  19  15  12  11  11  18  23  28  37  58  70  78  78  80  83  90 101 109 113 111 113 111 109 114 118 118 120 130 135 142 151 158 163 165 166 167 165 162 161 161 158 159 157 162 171 179 180 177 179 184 184 184 182 183 179 172 158 151 145 147 159 165 167 177 179 181 181 157 106  83  83  89  70  76  83  68  47  38  52  67  35  41  74  63
  27  25  43  35  32  31  21  36  35  24  19  22  18  17  20  23  38  64  71  78  78  81  83  93 106 116 118 116 115 118 113 114 116 119 122 124 130 139 146 154 162 167 168 170 168 165 165 161 159 156 160 167 169 172 172 172 174 180 182 182 179 171 158 141 124 121 125 125 135 155 169 174 177 179 180 164 118  90  89  92  90 110 106  94  74  40  48  35  35  67  84  83
  16  30  50  32  35  30  39  39  44  34  29  26  26  16  22  26  42  66  73  77  78  81  84  93 108 117 126 125 123 123 121 121 120 124 124 120 126 131 138 143 146 157 165 175 168 163 164 161 157 154 157 158 160 166 167 169 169 169 167 164 156 142 126 114 121 135 141 144 143 152 158 171 176 176 178 169 133  93  96  91  97 114 102  79  77  43  38  33  51  76  85  96
  15  28  47  31  33  26  32  21  25  31  37  24  19  23  25  31  43  65  75  76  79  80  85  89  94 109 117 125 135 138 129 125 125 125 131 128 128 130 131 136 137 146 157 165 163 156 151 156 157 152 152 154 156 157 160 153 140 134 134 125 123 122 119 125 131 138 146 153 152 146 149 163 176 175 174 167 146 104  89  88  92  99  85  89  71  32  34  50  57  76  89  90
  30  29  45  32  32  30  28  26  23  24  31  29  23  27  24  29  46  66  76  76  74  76  78  81  85  85  88  92 106 125 133 131 131 135 135 137 133 135 134 135 135 139 146 151 154 149 147 149 149 145 147 149 147 147 142 124 107 104 104 104 102 111 123 133 144 155 161 163 159 158 153 159 170 176 176 169 134  97  85  75  76 109 103  97  76  45  39  51  77  64  87  94
  25  22  48  36  34  37  27  29  29  28  29  32  25  29  30  35  46  66  74  74  77  74  67  68  70  72  73  75  85 104 117 120 123 128 124 127 128 132 135 134 133 132 137 144 146 146 144 146 150 141 143 141 139 134 126 111 105 100  92  91  96 109 122 132 140 148 155 161 167 166 161 157 168 174 175 173 142  87  78  81  85 113 101 104  74  38  39  44  81  65  68  99
  24  14  42  36  33  43  28  28  35  35  37  33  32  29  25  33  45  67  72  71  73  66  63  66  71  72  76  80  74  75  84  93  99 104 106 104 108 109 118 125 128 127 132 140 141 140 138 140 152 141 130 126 124 120 107  99  82  60  57  69  70  78  80  92 108 124 139 147 155 166 169 166 167 171 175 172 142  84  65  88  88  94 107 120  87  44  41  34  65  66  57  89
  26  16  41  34  25  43  38  30  37  38  39  32  31  28  33  37  49  68  70  70  70  67  66  64  65  64  65  67  62  54  52  58  67  64  72  77  82  83  84  97 112 118 124 131 132 133 138 139 141 140 125 113 105 105  94  71  58  61  77  94  95  93  97  88  73  90 112 131 141 154 162 165 166 170 175 175 148  96  83  95 103 105 117 124 100  54  57  46  53  70  59  70
  31  20  41  37  21  39  46  32  38  43  42  36  35  32  40  44  49  68  70  69  67  64  65  66  66  67  65  61  56  43  29  23  20  22  24  27  32  42  54  58  71  90 107 118 125 132 145 154 153 147 134 121 113 102  84  87 103 123 122 125 156 150 114 118 119  80  82 101 123 139 153 165 167 170 174 173 143 105 101 102 121 118 135 137  91  65  75 100  58  59  62  60
  29  23  41  35  22  35  52  39  37  46  47  41  35  34  40  38  48  69  68  71  63  60  63  67  72  77  74  58  46  37  45  31  20  22  34  30  21  18  24  37  42  55  72  98 119 129 148 168 172 165 149 138 115 103 101 111 128 108  86  79  92 185 200 129 121 127  95 100 105 128 147 163 169 170 174 174 149 103  92 103 116 130 147 132  80  63  76 117  78  49  51  57
  22  26  43  33  23  23  54  43  36  46  45  37  34  34  37  35  55  70  71  70  66  64  60  64  68  70  57  52  55  73  69  37  38  46  59 101  79  46  37  37  35  44  50  71 100 127 152 175 180 172 163 135 112 120 104 116 110  77  60  80  99 143 237 200 117 123 124 117 123 127 133 149 163 169 173 176 158 122 101  99 105 127 161 137  63  70  68  80  87  63  43  48
  22  33  42  33  23  15  49  48  36  44  49  36  30  33  31  37  58  68  72  70  69  65  58  57  64  62  53  70  73  77  54  42  17  67  80 122 138  90  64  60  53  42  52  66 100 125 151 180 185 173 169 153 145 134 107 108 108  88  45  35  75 111 197 178 135 116 127 125 134 134 132 151 163 168 172 173 161 128 109  97  87 114 150 119  51  76  76  74  86  74  42  42
  27  39  39  32  23  12  37  53  38  41  45  33  27  33  32  36  61  69  72  73  72  70  67  60  65  67  64  73  91  83  55  50  35  38  65 149 157 133 103  64  78  59  54  69 102 127 153 181 186 175 172 173 162 147 133 117 125  95  81  68  80 136 162 146 146 148 145 136 134 139 142 153 164 167 170 171 165 131 113 109 101 104 132  98  50  78  85  99  92  82  47  39
  31  41  36  30  20  10  28  47  43  45  46  32  24  31  32  40  61  71  75  75  81  85  74  67  66  71  62  62  84  98  88  73  73  70 111 144 137 114  99  98  86  73  61  73 101 132 156 180 184 173 171 168 145 128 120 121 130 128 119 117 129 140 145 155 154 158 152 148 145 148 151 161 168 167 172 173 165 131 117 104 108 109 103  79  48  92  90  98  79  99  67  42
  35  41  35  28  15   9  20  40  43  42  41  29  30  28  37  41  59  71  79  81  84 100  94  79  78  82  75  73  76  83  89  96  97 107 124 123 120 118 111 109  86  66  71  80 111 138 159 176 179 175 172 167 151 129 107 101 108 123 130 129 138 144 151 152 152 152 151 150 157 152 155 167 172 168 172 173 166 132 117 108  93 112 102  71  49 107  89  96  53 100  99  51
  38  39  37  25  17  14  14  34  41  39  40  29  28  28  35  43  64  72  77  84  95 107 113 100  88  81  75  74  84  92  95  99 101 109 119 120 119 109 106 103  78  73  71  85 118 141 159 172 175 176 173 172 159 142 126 106  93  98 112 122 131 138 142 143 152 162 163 160 165 161 159 164 168 171 171 170 166 128 113 102  84 112 112  69  63 117  88 117  65  63 123  65
  41  38  38  25  17  12  12  31  40  35  40  28  19  31  33  46  64  71  81  90  98 102 110 110 103  94  87  83  80  82  92  98 102 106 104 105 103 105 108  95  81  76  73  97 130 144 159 164 173 175 172 174 173 158 140 132 125 114 105 111 116 118 126 139 148 153 162 168 165 166 169 169 171 171 169 170 169 126 106  95  85  95 111  70  71 111  71 115  86  31 101  74
  44  41  39  24  19  11   9  26  37  35  41  32  21  28  35  45  63  73  85  96 100 109 119 121 113 105 102  98  89  84  80  81  84  91  93 101 112 112 105  96  92  75  72  97 135 149 157 165 175 172 171 173 178 176 167 154 149 146 139 138 143 142 142 153 153 156 152 157 162 166 166 169 172 175 172 171 168 124  85  94 109 119 135  65  62  89  49  90 111  35  67  67
  37  42  39  26  24  11   7  20  35  35  33  32  30  31  37  42  62  77  85  94 101 110 117 121 123 115 106 116 113 110 110 110 110 114 115 115 115 111 104 104  89  76  73  88 128 147 158 170 180 174 171 176 174 179 179 174 165 161 161 159 160 166 157 157 153 166 162 161 161 162 169 171 172 175 174 170 166 123  92  90 128 145 131  67  58  81  43  65 122  48  45  53
  35  44  35  28  26  11   9  19  27  36  33  36  39  39  34  37  59  74  80  88  95 108 117 126 128 124 129 128 125 125 121 118 119 118 116 119 114 114 113 103  81  75  78  83 116 146 154 168 179 174 176 173 175 177 180 177 175 171 173 172 167 161 160 161 159 153 155 156 168 170 170 172 175 175 172 168 164 120  97  94 123 148 127  62  63  89  53  41 113  64  29  45
  39  44  35  28  26  13  10  16  23  37  44  38  39  38  32  37  53  69  79  89  99 107 112 116 126 129 132 134 130 127 122 121 123 119 120 118 117 120 113  97  80  76  79  83 112 141 152 168 179 175 175 177 173 172 177 175 172 173 172 170 166 162 160 159 162 158 158 160 172 173 171 174 176 176 173 170 158 119  89 103 127 147 129  57  53  79  71  43  86  82  34  37
  44  43  36  26  22  19  13  16  20  30  54  48  40  35  31  39  50  67  76  85  96 104 108 119 124 126 130 129 125 126 128 125 126 127 124 120 123 121 111  93  81  79  78  82 110 138 156 168 175 174 174 178 175 175 179 177 170 170 171 168 166 160 154 156 160 164 166 166 170 170 171 178 174 174 173 168 150 106  85  94 138 141 142  58  49  69  79  55  60  77  45  34
  43  43  36  27  22  18  11  20  18  25  52  46  34  32  37  35  47  64  74  84  95 101 108 114 122 128 131 132 130 130 130 129 131 127 126 128 124 117 108  95  84  85  87  90 112 139 155 169 174 172 171 177 177 177 178 178 171 167 169 169 165 160 160 158 164 168 169 172 175 178 177 180 178 174 171 168 144  97  93 100 134 146 132  55  50  63  77  70  62  65  56  42
  45  42  40  34  20  12  11  22  15  16  46  47  38  33  36  33  40  60  71  81  91 102 108 112 120 127 132 137 136 137 137 135 139 137 131 129 123 116 102  93  86  86  92  97 113 135 153 166 174 170 174 175 177 177 178 178 173 168 168 167 162 163 165 160 168 172 173 176 178 178 180 183 181 174 173 170 142  96  89 101 121 138 113  55  49  55  75  77  81  67  58  62
  52  43  34  32  26  15  14  24  20  11  36  51  41  39  36  29  37  59  71  78  86  96 107 114 118 125 132 132 131 136 139 143 140 141 134 128 119 115 101  88  79  81  86  97 114 133 148 164 173 171 174 175 171 168 173 168 163 162 164 160 159 163 161 162 175 177 178 178 182 179 182 184 179 174 175 169 139  91  98  99 110 123 101  70  54  46  78  81  91  88  63  74
  48  47  36  22  23  17  18  25  22  10  22  45  40  37  36  33  29  52  68  75  82  93 105 110 117 123 128 129 133 135 139 143 139 134 130 125 117 108  89  85  81  80  85  96 112 134 150 165 172 174 175 170 162 164 167 158 146 141 145 147 151 157 158 164 169 174 177 180 182 183 182 181 181 175 170 163 143  97 101 101  97 104  82  65  52  47  66  92  94 104  83  74
  39  46  54  29  25  18  23  25  20  10  12  33  38  29  33  23  27  47  64  74  83  89  98 104 114 119 123 128 130 134 134 136 137 131 122 116 108  86  78  95  93  85  86  95 108 130 150 166 174 174 173 166 163 165 169 166 151 132 129 134 135 146 150 154 161 170 166 175 177 180 178 180 178 171 166 164 136  98  97 113 111 100  64  58  53  49  54  84  95  96  91  74
  59  37  59  32  28  25  26  22  18  12  14  17  33  32  26  21  26  42  64  70  78  85  95  99 107 113 120 122 127 127 129 128 127 122 114 105  91  69  79 103 104  97  91  98 108 129 148 161 166 171 171 168 166 172 177 167 154 142 122 121 127 134 143 146 157 163 162 166 168 169 168 165 168 171 167 159 132 106  95 108 122  90  45  50  55  46  54  68  92  99 107  82
  94  33  60  33  17  31  24  20  17  12  16  20  31  29  24  19  25  39  57  65  69  81  89  94 102 112 113 118 119 120 122 123 121 117 110 103  84  62  81 101 105  98  91 102 117 131 146 161 170 178 178 176 175 179 180 166 159 156 140 120 117 122 131 139 146 151 155 156 160 162 163 157 159 165 168 157 123 106  94  87  83  67  49  44  46  55  66  59  73  93  99  96
 120  52  38  42  14  23  19  21  16   7  18  27  31  30  27  24  27  37  54  61  67  71  83  89  95 103 109 108 112 112 112 112 112 113 111  93  84  59  66  81  90  89  79  89 114 136 151 159 175 178 170 172 170 158 144 155 164 168 160 141 123 115 122 129 136 144 148 151 154 156 157 158 157 160 163 152 116  97  88  77  78  73  70  50  50  58  67  63  64  80  88  96
 122  83  25  43  35  29  22  25  13  14  26  24  30  33  25  27  26  41  54  59  61  63  72  77  83  93  99  98  98 100 103 104 106 107 106  94  84  63  45  42  42  59  69  67  95 125 139 142 152 155 153 153 122  90 124 164 171 172 163 152 142 130 123 126 128 122 134 144 148 149 154 152 153 162 162 154 125 105  89  77  77  69  60  63  56  58  72  76  64  70  79  85
 118 115  48  22  64  67  37  24  15  23  28  29  34  25  25  29  24  36  55  58  61  57  68  72  76  85  86  86  88  95 100 102  99  99  93  88  75  59  49  36  18  19  40  65  74 104 124 125 132 145 150 135 129 138 160 155 148 154 141 134 135 130 126 130 136 131 113 126 143 141 149 150 150 159 162 147 114 103  95  71  70  65  59  58  60  44  72  84  68  63  69  81
 115 117  99  23  45 101  55  23  17  27  28  36  29  24  31  30  30  33  52  54  61  57  64  68  74  78  79  86  92  97  94  82  75  76  74  71  60  57  54  49  37  23  12  36  66  87 104 102 112 135 136 117 106 116 121 132 121 115 121 116 114 113 108 114 128 143 146 119 134 144 146 145 152 156 157 145 113  94  94  84  73  68  60  53  52  56  66  84  76  59  58  73
 114 114 119  85  24  41  50  35  27  26  26  30  29  31  28  35  30  38  45  55  60  59  63  66  73  72  86  90  96  94  69  62  67  64  62  58  56  53  44  42  39  23  17  13  33  64  74  80 105 117  96  88  96  89  84  90 106 108  93  97  92  88  87  93 107 119 149 149 124 146 145 141 146 153 147 137 106  97  92  89  73  71  64  68  54  64  61  86  79  59  55  67
 114 114 115 115  92  39  30  28  31  34  33  32  30  29  35  30  34  42  44  57  56  59  65  69  70  66  77  80  77  70  58  60  53  49  58  50  52  46  42  36  35  28  21  22  13  22  36  57  93  86  58  63  74  77  89  83  84  92  86  82  84  85  80  81  88 101 129 148 122 131 142 138 139 146 136 127 102  90  88  83  75  77  72  75  62  58  65  79  82  59  52  60
 115 114 113 107  97  90  64  37  37  36  32  31  28  35  33  30  45  33  45  52  56  61  65  77  71  61  69  67  55  52  52  53  48  56  54  48  48  44  34  34  41  36  40  50  42  44  53  58  55  64  58  60  64  67  72  76  76  76  79  70  69  90  87  74  76  87 107 129 127 133 144 129 134 141 128 111  99  82  90  86  67  66  74  80  80  62  56  71  84  56  47  56
 114 115 112 109 108  99  77  51  33  35  37  27  34  36  30  34  41  23  46  43  55  57  55  68  62  52  61  53  41  45  45  55  56  50  48  43  41  36  33  33  37  51  62  74  77  66  65  59  49  66  52  51  71  79  61  72  68  67  72  72  67  74  79  74  79  74  92 114 120 137 147 129 127 128 117 102  93  75  76  89  81  68  58  65  81  86  60  63  87  54  40  59
 114 114 109 112 110 103  90  51  35  37  27  30  35  35  34  34  21  31  47  41  50  58  53  58  50  49  53  39  39  48  50  48  44  48  44  42  39  32  37  34  34  49  62  70  63  69  69  67  54  73  61  55  69  86  73  66  72  73  66  80  73  62  78  68  71  76  87 108 114 121 140 130 125 119 108  93  79  75  68  79  85  79  68  64  63  80  81  59  73  49  41  72
 115 112 109 113 108  99  80  52  37  33  35  40  35  36  34  20  26  44  43  39  47  56  55  53  44  49  48  40  35  30  28  21  20  28  41  46  37  44  41  38  46  49  50  63  68  73  77  61  59  70  78  80  76  78  82  72  74  83  81  67  57  53  49  52  52  73  84 100 110 124 114 118 112 108 102  84  72  76  77  68  69  73  75  76  69  55  63  71  76  45  51  86
 113 112 109 113 107  96  68  47  39  32  30  28  32  33  28  28  48  38  37  40  44  48  50  42  43  50  59  53  40  30  20  17  16  21  23  30  26  34  35  32  44  42  46  52  61  70  74  56  58  64  67  62  87  80  81  83  92  94  96  82  67  53  47  52  57  69  91 104  96 114 101 100 105  97  96  85  77  74  77  73  73  71  68  68  69  62  52  59  83  53  54  86
 112 113 109 109 107  93  64  49  34  32  27  30  31  31  31  40  41  30  34  42  42  42  42  41  50  57  62  57  43  39  40  40  37  39  39  38  35  36  39  29  36  34  40  54  57  69  65  58  58  71  70  81 100 103 109 124 143 143 132 128 115  88  75  68  70  79  95 103  96  94  90  84  94 100  83  83  74  72  75  64  61  64  65  67  63  57  57  40  60  58  51  98
 112 111 110 108 110  94  79  62  39  32  33  34  31  35  36  37  25  27  31  40  36  38  37  38  40  51  54  51  48  52  51  48  49  52  60  69  71  68  69  73  73  80  86  96 106 109 113 113 116 127 135 148 154 160 163 160 155 143 136 128 116 106  77  77  79  83  91  93  90  93  78  68  81  85  77  71  72  68  64  66  53  62  63  65  62  53  51  41  48  64  81 121
 112 110 109 111 111  98  82  68  44  39  27  28  29  36  38  31  25  28  35  38  27  23  38  45  48  53  47  48  51  48  59  64  60  60  60  67  78  80  85  95  96  99 110 112 108 121 127 134 139 140 148 155 157 162 150 138 132 127 124 116 101  94  92  79  83  92  88  75  78  83  81  60  79  71  70  64  68  73  64  60  55  61  58  58  57  55  52  42  52  92 117 126
 110 109 110 110 106  97  80  63  47  46  32  24  35  43  39  28  29  29  29  27  25  31  46  55  63  55  47  51  48  52  57  63  63  64  70  63  70  78  80  91  90  89 100  94  91  89 103 102 104 111 116 117 122 127 126 128 127 121 115 106 100  88  83  78  81  99  83  67  69  70  81  71  71  71  67  57  57  68  69  64  64  57  52  57  61  54  53  60  94 117 126 125
 109 111 109 105 110 104  88  63  58  58  46  28  25  29  31  35  34  26  26  25  24  33  43  52  56  40  44  48  47  59  55  47  56  68  72  73  67  68  78  88  91  96  93  93 101  96  95  91  86  91  97  98  95  95 107 111 119 118 106  98  95  95  95  77  77  84  79  73  67  64  66  68  66  72  65  55  57  57  64  68  57  64  55  55  58  54  62 100 116 118 124 125
 108 109 107 104 108 105  98  58  69  56  44  36  25  28  33  38  28  22  27  27  29  32  36  45  49  39  39  42  61  56  49  48  53  59  58  70  75  72  77  83  92  90  84  86  93  95  95  85  78  81  84  92  94  99 102 106 104 105 100  95  86  81  95  87  76  77  76  63  65  63  59  69  64  68  64  60  62  63  57  66  58  59  59  60  60  68  83 108 115 121 122 123
 108 108 108 108 109 107  98  73  60  47  41  36  25  32  35  30  23  21  24  27  32  31  31  41  42  39  39  52  53  41  47  48  68  65  62  66  57  54  57  65  74  81  79  83  87  75  78  79  81  81  79  85  94  94  92 100  99 103  95  83  72  74  84  88  70  76  78  64  57  59  60  61  64  61  67  67  56  59  60  56  59  66  63  66  81  77  88 110 117 120 121 122
 108 107 106 106 108 104 100  90  60  55  38  32  29  28  23  32  28  22  25  24  34  33  39  45  50  43  48  44  44  52  45  53  61  50  56  59  61  72  77  76  80  79  76  71  73  73  77  74  77  67  79  82  82  88  92 102  95  91  90  81  68  66  69  74  63  64  82  69  54  53  54  52  58  51  59  63  56  48  45  51  57  61  68  79  79  83 105 112 117 119 120 121
 107 106 105 106 108 102  99  95  72  60  40  35  33  29  31  34  27  21  25  25  28  22  33  34  37  36  44  32  46  41  45  63  49  53  63  58  58  70  72  80  78  81  82  73  68  72  68  79  86  77  75  86  88  91  95  92  91  83  71  71  80  66  66  77  68  55  71  68  59  49  51  54  48  51  53  55  58  55  50  46  53  61  67  75  71  83 100 109 115 118 119 120
 107 106 105 106 105 106 106  94  85  61  44  35  34  30  29  25  18  24  29  25  22  25  21  29  38  33  37  41  42  51  63  61  50  47  52  55  67  72  71  82  77  76  77  69  76  78  83  88  87  92  95  81  86  91  86  83  87  80  67  62  71  71  71  73  64  59  65  67  55  55  47  51  51  47  54  55  62  65  53  47  55  58  65  70  72  83  91 107 114 116 119 120
 107 106 105 104 104 105  96  89  87  68  39  29  31  22  29  27  18  23  27  24  22  32  22  28  42  32  38  42  50  69  50  40  34  39  46  61  67  78  81  87  67  82  78  83  88  91  84  88  89  93  91  90  87  90  85  85  77  77  70  56  65  73  70  71  70  62  54  71  63  55  54  52  49  42  54  49  50  63  66  51  55  66  71  75  71  84  94 109 111 114 119 120
 105 106 105 105 102 101 102 101  89  61  43  39  25  26  35  32  23  22  21  19  22  31  19  27  32  28  42  50  57  44  35  39  43  43  56  64  73  77  76  61  66  76  76  84  83  88  82  86  81  87  81  88  90  84  77  79  79  68  73  56  56  67  68  70  70  62  45  51  69  60  53  51  47  39  45  43  48  53  56  52  55  59  59  65  78  84  91 112 109 115 118 119
 106 105 105 104  97 102 103 102  89  65  50  38  28  32  31  35  27  22  28  20  30  31  23  24  24  29  47  59  43  39  32  34  45  51  55  68  78  62  63  56  75  72  73  77  73  84  78  79  90  95  91  91  86  77  80  77  88  79  78  61  50  66  72  68  68  64  56  49  61  62  51  54  56  39  45  48  45  42  43  55  60  54  56  66  69  86  88 110 112 116 118 120
 106 105 104 103  99 105 103  98  91  76  45  40  31  24  23  36  24  16  21  21  36  22  24  23  23  39  51  48  34  24  23  35  45  47  54  67  69  55  58  61  67  60  75  79  81  77  77  86  90  94  87  89  86  72  78  72  76  78  84  61  58  60  67  66  66  63  67  57  60  56  56  56  56  49  40  48  49  49  48  49  60  57  56  68  61  74  94 104 115 114 117 119
 106 105 105 103 100 103 102  98  92  75  59  36  24  25  28  27  20  17  19  24  31  22  26  28  37  42  42  40  30  26  29  41  47  47  51  59  60  54  61  59  50  50  69  73  81  92  79  70  76  94  92  80  82  72  65  67  75  75  73  66  56  61  72  69  59  61  55  50  56  56  53  59  54  54  37  41  51  52  56  53  61  57  53  58  61  60  80  85 103 115 119 118
 105 105 104 104 103 102 105 102  91  79  66  41  35  26  27  18  14  14  19  22  22  22  26  26  42  43  34  40  33  32  31  41  39  40  46  50  53  60  60  49  43  50  57  61  79  85  71  61  71  82  82  64  76  71  60  62  74  81  72  72  56  62  66  71  64  66  50  58  59  60  63  57  53  54  46  41  51  54  55  55  60  56  59  63  62  59  57  42  66 104 119 120
 105 105 104 104 104 102 104 103  92  94  68  49  39  21  19  16  16  13  16  15  21  26  27  30  35  44  39  36  36  32  30  39  31  35  46  45  43  61  60  46  44  46  43  62  79  70  58  60  59  70  68  67  65  61  62  60  66  83  73  74  55  57  62  66  57  52  52  57  62  57  65  60  54  56  51  39  42  54  59  61  56  58  66  67  59  55  44  35  38  50  79 108
 106 106 104 104 102 102 102 102 100  94  67  54  36  22  19  13  15  18  19  22  27  30  29  22  27  45  41  34  40  31  30  34  29  34  41  37  40  59  54  43  46  44  41  73  76  60  47  53  55  61  63  68  70  64  61  62  60  82  80  69  55  53  59  55  57  50  44  53  60  62  63  59  61  57  51  53  43  48  59  61  67  66  67  67  60  51  37  38  36  36  37  54
 106 105 103 103 103 102 102 103 101  86  71  49  26  20  19  19  20  20  16  26  28  27  24  23  28  38  38  43  38  28  26  34  29  36  42  42  41  47  49  44  44  41  51  72  57  54  45  50  51  59  64  60  70  68  62  65  62  72  82  68  54  51  54  57  63  63  46  52  67  54  64  63  65  57  47  60  54  47  55  59  61  62  61  62  64  64  49  37  37  38  37  35
 104 105 104 102 102 103 101 100 100  92  62  22  17  25  22  23  18  18  18  23  29  32  30  22  31  36  37  40  31  16  25  36  27  30  41  45  39  39  46  55  45  36  56  60  55  46  46  58  65  63  64  58  64  62  61  48  66  69  69  68  48  53  51  62  68  64  56  59  69  62  54  59  62  52  49  52  57  53  57  64  65  54  61  55  58  65  57  44  43  42  37  37
 105 104 103 102 101 101  97 104  94  45  21  15  23  25  24  25  17  20  27  23  28  32  26  26  30  28  34  41  26  21  23  31  36  40  45  32  37  43  41  54  45  33  58  67  56  34  44  55  62  63  66  58  65  56  54  48  66  64  69  66  55  60  40  43  62  58  56  54  54  59  57  57  50  53  44  49  51  51  54  65  61  59  65  65  49  59  38  39  45  39  35  37
 105 104 101 101 100 101 101  85  33  10  16  19  24  24  24  22  19  22  27  24  21  30  18  28  33  33  35  42  26  25  25  25  36  33  48  37  34  47  37  34  34  46  56  67  53  34  37  50  51  64  64  61  53  48  43  51  77  58  65  59  61  55  44  27  42  51  48  45  48  54  53  51  49  52  46  54  58  51  61  59  63  58  60  62  48  43  38  36  42  38  35  37
 104 104 102 102 105 103  67  18   4  11  16  21  24  21  25  22  21  20  32  30  25  37  36  28  35  39  30  31  23  29  29  25  40  38  48  44  37  56  36  29  40  56  54  55  40  42  38  48  53  65  54  53  47  39  37  52  73  56  69  55  58  59  47  33  32  38  40  46  48  59  63  53  44  54  45  44  63  67  67  66  67  63  58  59  55  47  33  39  37  39  35  37
 105 107 108 105  87  44   9   3   5   9  17  25  21  25  19  24  21  24  36  26  31  34  28  28  45  31  29  31  31  35  34  42  49  42  41  32  30  36  31  33  41  48  62  49  34  47  38  45  57  54  53  51  47  36  37  58  66  49  60  59  54  56  46  45  36  39  39  47  44  53  59  59  47  51  57  45  51  79  67  68  62  62  54  65  64  43  23  40  38  37  36  37
  98  86  66  45  18   3   4   6   5   7  17  23  24  24  20  22  21  24  29  26  35  32  21  42  38  21  30  26  30  35  34  41  46  45  37  29  30  24  35  47  32  48  59  49  38  46  39  46  57  59  56  45  48  43  43  59  57  44  44  61  50  54  52  50  43  35  42  41  44  50  52  61  57  48  59  60  58  72  65  59  55  60  59  47  49  40  30  36  51  33  36  37
  25  14   7   3   4   5   4   4   5   9  12  23  26  26  25  19  24  26  22  29  37  24  33  45  27  32  31  29  34  34  31  35  54  33  34  33  26  19  33  38  28  55  47  51  36  31  45  50  53  67  50  42  47  42  48  53  51  44  48  69  43  46  52  52  55  39  33  46  47  44  48  48  63  61  60  50  70  81  76  55  50  58  56  47  45  37  37  37  45  33  36  35
   1   4   6   5   5   4   5   3   3   7   8  17  28  26  20  19  30  24  23  29  35  18  44  43  30  32  29  30  32  32  35  40  44  34  40  36  21  30  32  38  36  47  50  44  32  33  42  60  52  51  42  39  46  39  39  52  50  39  44  51  55  43  51  55  45  44  38  49  51  45  47  45  59  68  56  50  57  76  73  72  59  60  55  45  39  19  26  36  37  33  33  34
   6   6   6   5   4   3   4   3   4   4   7  10  23  26  21  24  28  25  33  27  35  25  33  36  27  26  28  28  28  29  38  38  25  39  33  40  24  24  28  37  40  41  48  33  27  44  42  63  50  45  45  42  45  40  32  44  48  38  37  42  57  48  44  49  32  36  34  45  46  46  46  45  53  69  57  47  50  61  66  74  76  62  62  46  36  29  26  30  30  33  33  33
   5   6   5   4   4   4   3   3   3   4   8   6  15  24  28  27  25  29  34  27  31  32  37  43  25  21  28  29  32  31  43  39  27  40  35  37  32  18  27  40  43  47  48  34  31  40  41  62  45  38  51  44  39  44  32  44  46  49  42  44  50  51  41  49  40  40  37  38  42  50  48  48  55  65  62  56  62  72  69  65  78  66  63  47  41  22  23  24  29  30  33  33
