P2
# Generated by OpenCV 4.2.0
92 112
255
 147 146 148 148 148 149 149 147 147 147 149 150 151 149 150 149 152 152 151 153 153 151 144 127 105 101  99  91  99  95  94  99  94 102  95 109  98  97  97 104  95 104  75  90  83  86  97  83  77 127  86  89 105  76  80  87  76 102  96  93 120 103  78 108 121 144 150 149 148 156 154 154 153 152 152 152 154 153 153 153 153 150 151 151 149 150 149 149 149 149 149 151
 147 146 148 148 148 150 149 147 147 147 149 149 150 149 150 149 152 152 151 153 153 153 148 138 115  93  84  85  82  80  88  86  88  87 102 102 100  92  86 123  87  97  76  70  71  80  81  58  71 140  98  80  98  96  75  90 101  97  84  96  87  88  89 100 111 119 133 139 149 154 154 154 153 152 152 152 153 153 153 153 153 150 151 150 150 150 149 149 149 149 148 150
 146 145 147 147 147 148 149 147 148 148 148 149 151 152 152 151 154 154 153 155 155 154 153 148 135 122 116 101 103 107  91  97  84  95  99  92  97  94 105 111  93  89  85  79  92  83  84  79  87 138 110  65 120 122  86  88  98 113  80  89  89  73  89 102 102 138 144 147 132 152 155 154 155 153 154 153 152 151 153 153 153 153 153 153 152 152 150 151 150 149 148 150
 148 148 146 149 149 148 149 149 150 150 151 151 151 152 152 151 154 153 152 155 155 155 155 149 104  78  84  83  98 109 107  87  99 100  89  77  77  91 113  91  98  93  73  93  96  82  59  85  82  92  96 108 146 141 108 104 126 124  96  84 103  86  80  86  86  95 115 107 146 137 161 149 154 154 154 151 153 154 150 151 151 151 151 151 151 151 151 151 150 151 151 149
 148 148 147 148 149 149 149 149 150 150 151 151 151 152 152 151 154 154 153 155 155 157 145  83  83 105 106  71  73 102 115  85  81  84  86  76  90  97 113 103  97  87  89 101 102  87  71  91  91  74 148 101  76 117 112 117 135 121  99  99 103  99  90  96  94  96  96  81  80  86 138 152 153 156 155 151 153 153 154 153 153 153 153 153 151 151 151 151 150 151 151 149
 149 147 146 148 149 149 150 149 150 150 150 151 151 152 150 152 153 153 153 154 155 143  75  83  89  80  99  90  75  94  99 112  85  84  86  93 104 104 106 108 102  94  92 106  86  80  88  94  91  90  90 165 175 157 124 103 129 118 119 111  96  95 120  88  98  89  86  59  56  94  81 152 153 155 155 151 153 154 154 154 154 154 154 153 151 151 151 151 150 151 151 149
 147 147 146 148 148 148 148 150 150 150 149 150 149 152 152 148 153 153 152 152 148  87  91  91  94  75  67  91  99  72 100  99  89 101  72  88  95 103 103 114  96 112  99  98  88  80 112  94  94  83  77 100 143 125 162 118 132 122 139 120  96 102  82 121  94  77  75  88  65  53  83 128 157 153 152 156 151 155 154 155 155 155 153 153 152 152 152 152 152 151 151 151
 149 149 148 149 150 150 150 150 151 150 150 151 152 150 153 147 152 154 154 157  97  91 110  87  84  83  75  95  80  91  77  88  96  78 134 124  89  93 138  91  97 105 112 100 104  89 112 111  93  80  80 112 158 150 124 150  90 117 142 124 111 106 130 103  94  93  75  79  66  51  54  53  73 148 131 149 155 153 155 155 155 155 154 153 153 153 152 153 152 151 151 151
 150 150 148 150 151 151 151 150 151 151 152 152 152 154 151 153 146 150 151 130  81 118  90  99  89  76  78  81  74  90  65  79  80 104 128 134 102 103 124 108  99 117 112 118  95  85 102 128 101  88  91  71  90 114 132 146 143 115 128 125  92 109 131 128  99 107  90  70  84  45  48  39  47  53  97 140 150 154 154 155 155 154 153 154 153 153 152 152 152 151 151 151
 150 150 148 150 151 151 151 151 151 151 152 152 152 153 153 153 147 149 148  88 104 105  94  89  78  68  73  66  59  88  56  62  81 107 111 122 138 109  96 129 116  99 104 132 104 105 104 125 127  93  96 101 153 146 132 121 120 119 118 132 109 109 130 127 109  93  84  99  71  66  58  60  47  67  44 113 151 152 155 154 155 153 154 154 153 153 152 152 152 151 151 151
 150 150 148 150 150 151 151 151 151 151 152 152 152 153 152 153 153 148 121 104 114  91  83  88  86  67  54  58  80  92  70  66  78  78 104 111 126 141 147 109 106 126 116 105 112 110 113  97 117 123 102  98 101 115 116 118 122 148 110 159 102 113 127 127 115 113  89 101  78  84  85  62  44  52  55 103 150 152 153 155 155 153 154 154 153 153 152 152 152 151 152 153
 149 149 151 150 151 150 151 152 152 152 152 153 153 153 152 155 133 146 115  95  92  85  84  90  91  80  58  74  95 114 109  73  79  65  78  80  67  78  88 140 120 113 113 111 106 116 108 106 110 119 126 122 120 120 133 129 142 110 111 121 135 111 119 124 118 122  94  97  88  67  70  62  64  53  46  87 146 143 151 153 154 153 153 153 153 153 153 153 153 152 151 151
 150 149 151 151 151 151 152 152 153 152 152 153 152 154 154 155 149 141  80  88  98  67  74  73  61  70  78  85  82 106  93  77  76  94  99 119  99  83  60 112  94  74  96 109 111 106 107 107 107 103 112 100 108 125  99 127 116 102 132 106 150 112 126 122 122 128 109  97  93 101  95  83  79  79  79  57 107 129 140 144 154 155 155 152 153 153 153 153 153 152 152 152
 150 149 151 151 151 151 152 151 152 152 152 152 152 153 154 150 143 135  92  79  95  77  66  61  60  78  91  84  84  92 111  88  90  84  91  96 121 125  90 110 126  87  92 115 123 125 107 118 109 125 115 138 128 126 130 124  97  98 115 101 113 124 129 134 129 118  89  99  91  87  88  73  67  80  84  83  88 137 152 147 150 151 153 155 153 153 153 153 153 152 152 152
 151 151 151 151 151 151 151 150 151 152 153 153 152 153 154 146  94  85  83  73  80  84  85  71  83  93  99  94  94 101 122 104  94 103  89 111 113 123 133 102 116 134 103  99 110 113 130 128 137 121 115 111 108 109 136 122 103 100 101 100 111 128 113 113 139 123 100  92 116 101  98  94  77  81  60  62  70  78 112 153 152 148 155 154 153 154 154 154 154 153 153 153
 150 151 151 151 152 152 152 152 152 151 153 153 154 153 150 150  75  70  77  82  80  61  66  84  84  92 108 119 113  81  95 129 113 114 113  98 131 140 127 113  82 109 116 108 109 102 124 112 131 122 101 119 103 111 130 120 132 106 102 106 129 132 109 125  93 128 105 119 123 128 107 105 113  68  82  75  47  52  99 134 130 143 152 153 154 154 154 154 154 153 153 153
 151 150 151 149 151 152 152 152 153 152 153 153 153 152 139 103  56  70  66  79  70  93  73  77  84  98  99  94 108 109 120 100 121 140 125 108 124 126 126 130  98 102 105 116 112 107 125 110 113 134 115 122 121 100 120 116 119 125 108 116 133 130 121 139 104 144 118 134 127 121 119 124 104 111  51  53  52  48  59  83 146 138 149 151 154 154 154 154 154 153 153 153
 151 151 148 150 151 151 151 151 149 151 153 152 151 133  77  78  70  57  47  53  61  80  62  74  84  93 105 117 120 123 106 142 110 113 119 123 131 116 112 108 126 136  94 134 117 126 120 110 107 128 119 134 132 101 113 117 125 108 111 108 121 129 120 121 119 132 123 141 128 136 106 131  99  67  73  62  67  68  63  64 129 142 138 148 153 153 154 154 154 153 153 153
 151 151 149 152 151 152 152 152 153 152 154 152 152  92  68  90  93  67  60  54  62  66  70  72  88 102 116 128 125 111 106 104 121 123 116 116 136 137 122 120 143 143 118 102 120 124 128 103 120 109 115 111 114 122 106 110 123 102 105 117 123 120 126 119 111 142 137 121 131 111 138 119  83  83  83  73  75  70  40  57  56  72 138 153 153 153 153 154 154 153 153 153
 150 150 148 150 152 154 154 152 153 152 156 148 110  87  66  50 101  64  77  79  73  84  85  97 132 133 133 128 141 138 118 119 126 135 133 142 125 123 116 126 134 104 134 127 130 129 130 116 112 128 129 133 132 117 123 127 107 104 114 130 125 116 125 137 125 137 139 115 115 141 120 121 100  90 101  96  67  71  49  55  49  64  80 142 153 152 152 153 153 151 151 153
 150 151 152 153 152 152 153 151 154 155 153 109  82  80  87  78  64  79  86  80  77  75  98 117 145 145 120 127 117 133 131 131 141 137 134 128 130 135 133 128 128 114 120 143 139 135 129 124 149 142 147 146 144 115 103 125 117 126 104 124 115 136 130 147 141 137 134 128 129 136 120 129 121 124 102 110  98  60  63  47  55  71  72  97 158 156 153 153 155 155 154 152
 153 151 153 153 152 152 152 156 157 144 139  77  62  70  84  84  84 109  98 106 114 117 114 124 127 111 119 133 137 144 144 157 152 163 156 157 141 130 145 124 129 133 138 150 139 134 146 142 161 154 146 134 121 118 123  89 121 125 126 131 128 134 145 151 155 146 142 130 136 108 119 114 140 139 127 112  95 101  75  67  53  52  64  63 145 153 156 154 154 155 154 152
 152 150 153 153 151 151 152 158 155 141 120  80  67  70  92  88 115 115  95 101  98 101 142 127 108 129 150 154 151 147 168 175 163 153 160 163 160 149 139 139 136 154 140 140 143 141 137 164 159 160 126 132 134 130 107 149 122 133 133 125 134 144 159 160 160 161 150 143 125 128  93 124 132 118 135 135 113  90  97  76  59  50  56  73 135 149 154 155 153 155 154 152
 152 151 153 153 153 153 153 156 149 134  52  61  54  59  66  83  93 122 109 137 125 120 122 114 132 150 167 171 164 168 163 156 164 172 170 165 161 170 153 140 164 152 140 158 136 147 154 172 151 142 151 147 140 140 146 153 129 137 137 147 147 150 165 168 161 166 164 154 146 144 137 118 118 131 117  91 101 120  75  68  65  57  58  83 131 156 147 155 154 154 154 154
 151 151 153 153 153 152 150 146 148  61  54  51  47  43  63  94 104  98 118 135 131 119 122 140 160 164 166 170 173 171 165 167 168 169 175 173 179 186 181 168 159 154 158 164 166 152 157 166 169 149 158 160 152 136 126 150 133 149 143 159 157 152 183 178 168 168 165 172 159 156 138 129 119 110 112 111 104  95  75  71  53  54  50  64 103 149 161 154 154 154 153 154
 151 152 152 153 153 153 152 156  77  73  61  67  49  59  46  45 103 126 119 112 117 125 137 161 173 163 173 167 172 177 176 170 172 162 170 178 182 184 176 180 185 178 172 166 174 165 159 160 152 171 173 161 155 151 146 152 145 162 153 161 164 174 170 170 171 169 166 166 163 173 156 147 134 122 133 111  83  57  51  51  43  53  45  42  98 142 139 146 153 151 153 154
 152 155 153 153 152 154 154 127  28  64  56  61  77  82  69  63  92 102 123 123 141 148 157 170 171 170 176 166 171 175 174 178 179 177 179 181 191 185 181 193 197 183 190 176 180 177 161 164 172 179 163 175 154 159 161 152 172 155 168 170 167 178 176 169 169 168 165 165 169 176 164 156 154 144 144 122 112  92  86  76  60  46  59  53  64 122 149 144 148 150 149 153
 152 153 155 155 153 150 145  86  75  48  63  61  58  60  76  75  90 112 119 112 129 152 163 168 178 176 166 169 175 176 174 177 175 181 182 186 188 193 197 201 196 190 198 188 191 169 170 178 181 179 190 175 168 166 163 163 165 162 169 170 174 179 179 170 170 174 169 164 165 174 175 162 158 146 136 134 138 114 104  77  61  56  47  39  46 131 131 156 152 155 151 152
 152 153 155 154 152 151 122  79  61  75  61  57  64  51  52  78  92  93 103 106 127 153 165 164 178 169 169 172 174 176 180 180 176 179 185 187 188 196 197 194 199 195 187 198 199 181 177 190 187 185 186 177 179 185 176 178 177 180 173 171 173 176 174 168 165 161 169 166 164 170 171 168 159 150 132 133 144 142 128 114  97  68  51  47  44  91 137 145 151 158 154 151
 154 153 155 155 153 155 147  44  57  59  67  57  80  67  64  84  70  82  94  98 127 149 164 168 174 170 171 172 172 178 182 182 177 183 180 185 191 197 194 189 195 202 191 193 197 189 185 185 185 184 183 191 188 181 182 176 177 174 180 179 173 173 176 166 167 157 161 169 162 164 165 168 162 156 148 142 135 114  85  56  45  58  54  61  49  46 140 137 150 157 155 151
 154 153 155 153 153 146  81  31  58  63  83  55  69  56  70  96  72  83  90 112 140 157 163 168 171 169 166 168 175 178 178 176 180 181 180 183 191 194 187 184 188 187 190 191 192 193 191 194 193 192 185 182 183 184 185 185 177 177 176 172 170 176 172 168 159 162 166 162 161 158 162 166 164 159 154 182 155 134 110 109  88  74  61  53  65  73 124 142 153 156 156 152
 152 154 151 153 154 144  48  70  65  60  60  65  64  65  65  85  81  65  87 115 139 155 164 170 176 167 166 168 172 175 170 173 176 181 185 181 191 192 189 190 191 188 187 186 191 193 193 197 197 191 191 191 190 183 184 178 180 184 174 171 169 174 170 166 163 157 162 163 158 155 161 168 163 157 158 140 143 108  99  78  73  58  50  31  28  43  45 152 150 153 156 148
 154 154 153 155 152 142  62  68  50  51  92  77  79  90  84  74  82  68  89 119 142 154 162 170 173 170 169 169 172 170 174 174 174 178 183 183 186 186 189 183 185 185 190 193 188 191 193 191 194 190 191 187 187 187 181 176 184 182 179 177 171 169 165 165 163 157 166 162 158 155 155 164 163 156 150 145 130 110  89  87  72  45  39  45  29  34  40  67 152 157 155 152
 154 153 153 156 154  83  60  67  63  69  60  70 111  95  65  64  72  67  89 127 146 161 163 166 171 170 171 165 169 164 172 175 178 179 177 179 181 184 189 180 190 185 187 188 192 192 189 195 196 188 190 182 187 177 174 185 185 179 172 172 168 165 161 161 165 156 161 161 158 154 157 160 156 156 149 133 114 106  83  70  71  54  57  46  37  32  42  38  63 150 155 152
 153 154 154 154 152  66  50  58  62  67  91 118  98 110  96  64  63  76  93 133 149 155 164 170 168 172 170 171 176 166 175 172 170 177 180 181 181 180 182 185 186 188 187 188 196 195 196 198 194 190 193 184 184 183 181 184 183 179 175 174 167 167 165 161 165 161 162 157 160 156 159 164 158 156 151 141 114  97  87  68  56  54  56  52  69  56  35  29  31  81 156 152
 153 154 153 152 148  54  59  46  55  92  90  78  58  49  65  72  68  81 110 139 142 155 162 169 171 170 170 169 167 171 170 168 175 173 178 174 179 180 182 183 185 183 183 189 192 194 196 197 188 191 194 178 181 179 182 184 178 175 178 169 169 168 165 159 159 156 155 158 156 158 163 165 160 154 145 132 114  98  70  56  62  63  80  74  37  29  52  47  49  32  93 153
 153 154 152 147 139  48  74  55  63  58  98  78  41  58  61  88  68  74  96 132 142 159 164 167 168 170 169 171 162 176 167 170 168 172 173 177 178 177 177 182 185 187 185 187 192 193 193 196 190 188 188 191 185 181 186 182 175 168 175 172 178 163 168 161 159 158 154 160 156 161 161 162 158 155 148 128 113  83  68  72  72  71  88  34  19  33  32  55  48  33  50 160
 155 153 150 150  96  46  66  60  41  47  69  32  43  51  57  74  67  96 106 132 151 152 165 161 167 168 168 168 167 164 167 172 166 169 172 173 178 178 178 183 184 185 189 193 194 195 195 197 188 194 190 190 179 183 182 177 179 175 171 168 167 163 161 162 161 157 159 159 156 160 151 157 155 154 145 128 103  79  74  56  45  54  45  57  65  47  31  30  44  39  38 142
 155 154 152 140  66  54  51  69  54  43  60  67  57  37  78  72  64  82 101 124 143 151 160 161 168 169 171 170 167 164 163 165 163 168 169 172 173 176 179 182 181 188 185 187 185 196 193 197 192 192 192 182 178 181 183 178 183 173 169 167 167 160 164 158 155 161 159 158 152 159 157 160 152 148 142 120  95  72  63  53  62  52  57  65  58  40  58  37  47  55  23 121
 154 154 146  89  59  60  39  50  50  58  60  35  26  87  64  63  57  85 100 132 143 160 160 155 169 170 172 168 164 166 165 164 166 170 170 178 172 176 166 175 177 181 181 183 190 195 195 191 196 191 187 193 186 187 181 182 175 172 171 166 160 156 159 156 156 159 162 161 149 162 158 156 152 148 132 111  91  70  64  59  79  97 114  97  45  42  46  56  48  59  36 108
 158 147  84  78  50  64  52  24  34  41  67  86  42  38  82  84  86  93  95 124 146 159 158 156 167 169 171 173 168 165 161 164 167 166 168 176 171 169 178 179 174 182 181 187 192 191 182 181 180 185 190 190 182 185 180 176 176 168 165 163 164 157 155 155 155 158 164 158 153 165 157 152 145 147 130 115  87  69  58  87  88  65  59  48  73  27  53  53  47  52  47  85
 144  77  69  70  55  58  42  42  48  60  31  19  61  59  55  73  76  97 100 124 149 157 153 156 165 166 169 168 169 169 168 166 161 167 166 165 173 167 170 172 175 180 182 184 185 193 194 192 194 195 188 181 177 182 178 170 169 167 164 161 163 158 155 152 152 157 163 161 151 158 159 154 147 141 126 105  88  66  58  51  68  72  78  65  61  45  44  70  51  60  38  93
  65  69  60  62  76  56  39  41  31  49  46  34  61  93  53  60  72  92  94 117 139 156 154 154 164 168 169 173 166 172 164 165 171 168 170 169 165 175 167 165 167 171 176 184 184 190 184 182 195 188 188 182 181 184 180 178 169 166 166 166 163 156 152 151 161 156 158 159 149 162 154 156 145 140 135 109  82  66  49  79  57  64  68  62  92  57  58  80  51  61  42  84
  72  64  43  54  75  42  36  59  54 136 160 126  75  63  81  71  91  93 100 115 152 146 153 155 158 166 170 174 170 174 170 168 168 168 166 172 171 179 181 180 181 182 177 179 177 179 193 182 184 184 185 182 179 177 175 174 165 166 171 165 165 159 155 155 159 160 165 161 153 160 154 151 140 139 134 111  87  68  56  72 102  80  72  63  56  68  52  78  88  62  50  95
  60  71  55  55  65  39  52  34 154 178 197 176 140  68  67  72  83  93 103 113 139 151 147 156 157 163 165 172 169 173 171 166 166 166 166 168 176 173 178 184 185 180 177 176 179 184 184 186 182 186 179 181 180 181 180 175 177 176 174 171 164 160 157 157 155 166 162 164 159 158 161 149 142 140 134 104  78  59  63  55 108  38  42  35  82  50  46  36  56  48  44  87
  71  69  63  74  65  43  23  87 138 111 189 189 167 102  65  64  72  91 110 124 131 148 148 152 157 158 166 173 170 169 174 168 167 166 168 177 176 181 182 181 192 189 186 184 182 190 185 185 180 187 189 174 185 186 183 187 186 179 174 170 166 159 158 160 160 165 167 161 159 153 152 145 135 140 121 109  75  53  49  94  30  67  58  89  23  70  45  54  60  56  50 105
  47  60  54  72  57  31  56 100 153 150 110 176 179 109  83  61  90 119 105 127 139 147 151 152 157 158 164 167 170 165 169 168 167 169 171 173 183 184 181 186 189 182 190 185 190 183 188 188 182 180 176 177 187 196 192 189 191 188 174 175 170 162 164 162 162 164 163 163 163 159 150 141 134 139 114 109  74  49  60  84  81  72  65  29  27  98  51  65  65  55  53 109
  66  56  69  88  65  44  43  96 150 157 151 109 169 102  81  73 104 112 117 133 145 142 156 150 160 158 162 172 174 173 170 174 174 171 174 176 184 189 188 192 188 196 192 192 192 188 188 181 195 187 195 193 188 195 191 195 192 184 180 177 169 161 169 167 162 168 168 168 165 158 154 148 135 133 125 108  78  61  64  62  80  74  47  44  53  64  49  60  45  53  56 121
  68  66  76  65  59  54  38  90 167 164 153 148 141 113  88  79 108 121 124 137 144 140 158 151 162 161 166 174 172 178 172 177 173 173 176 177 182 184 186 191 191 197 192 192 189 188 187 193 194 192 194 194 198 200 199 195 191 183 182 176 172 169 170 163 169 169 171 170 166 157 148 144 142 135 125 114  82  54  77 111  72 118  44  47  49  48  56  58  64  55  63 120
  65  61  72  62  50  59  52  85 172 165 151 164 187 138  95  78 107  93 110 143 150 143 153 151 160 158 170 179 178 185 183 182 180 176 179 181 183 177 185 184 187 195 193 194 190 191 194 196 192 201 194 195 200 198 193 192 189 174 174 177 165 172 170 173 170 175 173 169 170 151 145 143 143 132 128 119  89  65  66  78 136 123  38  37  75  56  68  52  59  66  57 119
  70  87  61  50  67  45  42  67 177 168 146 164 172 159  90  66  89 114 118 148 148 148 148 153 159 156 173 180 182 191 180 180 183 178 179 175 181 181 177 187 190 197 195 197 193 190 194 197 192 197 196 203 197 193 192 189 186 177 172 172 170 171 169 171 177 172 178 174 173 160 147 145 142 138 123 115 102  83  81  72 114 134  23  42  82  49  66  64  61  55  61 114
  62  77  68  81  68  64  40  49 188 168 150 175 177 169  96  79  87 127 124 148 152 150 148 144 117 162 166 177 182 187 187 185 189 184 182 181 185 180 175 177 186 187 183 189 195 198 193 195 195 195 190 186 200 193 185 182 184 174 179 167 176 173 178 181 188 181 179 176 176 167 153 144 137 137 129 116 103  87  84  91 114 111  54  44  72  47  71  62  65  68  62  99
  56  73  56  98  63  38  53  39 193 166 159 178 179 167 100  67  96 112 142 148 150 149 151 136 140 134 119 157 142 156 151 166 181 182 178 181 186 187 177 176 180 179 181 185 195 194 189 181 182 189 185 189 180 178 183 180 173 172 170 169 173 172 178 180 178 176 177 172 169 165 158 145 137 139 132 120 114 103  76  84 126  73  75  54  73  45  68  63  66  61  74  92
  78  60  87  79  54  58  44  30 175 174 160 184 176 170  85  98 113 121 138 156 149 148 151 147 136 152 140 130 105 113 120 142 157 165 178 185 179 179 183 178 178 177 179 183 191 181 180 181 184 183 180 182 177 184 177 182 167 168 173 173 172 181 175 163 171 167 158 147 138 142 141 151 137 142 139 115 125 108  86  91 112  62  71  71  77  52  86  72  68  52  80  97
  71  52  86  59  52  49  50  49 141 175 166 168 188 161  96 108 109 129 143 150 147 157 145 142 143 137 144 134 118 132 128 130 144 161 158 156 149 155 162 166 176 178 175 172 174 174 177 174 179 177 167 171 170 171 173 171 163 159 153 162 148 162 158 149 143 130 124 126 122 113 131 140 135 139 143 127 129 110 100  91 113  68  76  95  65  58  77  82  80  66  68  97
  76  65  81  53  61  57  51  64 110 188 168 169 177 158 100 102 126 127 149 152 149 157 138 146 119 138 138 130 137 131 128 122 119 125 130 138 135 133 132 143 160 161 163 166 166 167 167 168 173 173 169 160 166 162 161 150 138 123 110 111 120 136 139 142 135 133 136 126 111 131 133 103 134 137 143 141 129 122 111  96 112  81  64  79  69  62  74 101  91  68  65 106
  50  98  66  61  64  67  91  70 107 196 177 172 183 172  99  95 119 120 148 149 153 149 151 135 135 128 135 145 136 129 132 109 104  90 107 101 117 117 112 109 122 139 149 157 159 161 161 168 176 170 166 154 152 143 141 116 100  99 117 112 112 120 121 117 117 127 118 138 136 132 115 101 113 144 141 128 129  98 109  94 116  80  79  73  98  81  67 101 109  87  58  80
  67  80  64  62  67  86  36  77 123 177 183 168 181 176  97 103 103 127 154 153 147 157 151 151 139 133 131 140 141 112 123 119 159  98  93  90  84 113  90  81  80  81 105 123 146 151 167 170 185 175 160 145 133 104  95  81  60  93 102  67  55  72  88 112 115 133 144 135 137 125 122 120 145 149 133 136 128 106  93 108  77  96  72  76 114  74  75  96  97 108  59  94
  79  71  58  63  71  66  60 110  93 138 190 165 191 159 102  98 106 128 144 146 156 157 150 155 144 123 122 129 109 123 127 163 145  98  86 111 116 121 180 122 127 125 120 112 125 154 167 172 186 169 159 137 110 111 122 138 128 173  96  90  47  64  90 182 137 117 117 143 134 136 144 149 138 151 134 134 134 111 106 113 113 106  68  89  90  69 103 102 101 115  74  93
  90  53  49  74  71  71  74 125  87 101 192 162 189 149 114  90 113 114 155 150 157 146 161 159 141 143 138 129 125 120 139 149 158  91  76  76 110 160 195 160 134 156 146 108 125 138 159 174 186 173 156 124 114 149 160 125 162 190 122 112  14  68  93 162 154 134 122 106 133 145 125 160 149 129 149 133 121  97  97 100  96  97  90  97 106  96  95 110 112 121  74  73
  69  58  66  81  82  69  91  91  72  57 196 185 158 144 134  90 105 127 143 155 154 160 150 155 161 139 136 139 137 125 137 146 153 126  94 113 110 154 156 132 135 117 153 132 137 144 163 172 183 175 156 122 113 158 110 125 143 156 178 109  91  99 128 151 148 136 116 117 117 124 120 133 155 154 132 136 132 110 102 106  98  86  90  63 107 101  96 134  95 127  96  69
  82 113  82  72  79  77  94  76  56  73 180 190 171 153 120  77 100 129 143 149 157 155 165 173 184 174 161 157 147 138 134 142 148 150 168 155 146 157 149 149 152 160 157 149 143 145 166 175 190 175 154 123 124 145 165 158 142 149 166 167 168 156 149 143 142 129 139 130 127 129 152 150 156 145 131 133 122 113 118  98  74  76  87  85  76  86  97 123 122 125 101  76
 105  92  92  76  72  87  83  66  48  96 135 185 184 162  95  88  96 127 145 147 159 164 162 164 167 174 160 160 155 146 144 144 151 152 152 150 164 162 153 145 150 164 157 138 147 158 165 183 191 175 153 134 143 141 161 147 149 151 156 172 161 154 145 146 139 137 134 139 135 141 167 167 163 155 131 128 129  90 102  92  86  84  71  82  81  91  91 125 148 122 113  62
  85 111  89  78  94 105  72  53  61  91  84 188 182 145 117  94  92 127 147 152 161 167 173 180 177 182 186 171 160 163 153 146 139 147 151 148 152 153 148 151 161 165 142 149 143 159 174 182 194 175 154 138 136 139 156 162 159 143 142 147 151 151 149 144 137 146 162 146 161 164 176 166 164 149 140 133 128 121  94 100  81  78  62  81  69  88 107  77 106 154 108  59
 100  96  87  85  99  73  66  61  78  84  70 179 183 161 113  93 105 125 141 150 152 162 165 172 170 174 174 184 169 161 157 157 151 151 151 155 158 152 170 178 168 157 153 149 146 157 176 182 187 173 161 141 142 155 141 168 167 161 156 150 152 146 141 142 146 145 168 171 162 160 172 162 155 158 138 128 116  92  96  92  83  73  64  68  63  87 104  55 115 150 140  58
  92 102  89  87  84  64  65  62  69  74  67 172 188 167 117  98 106 102 138 146 158 160 156 171 181 198 171 182 183 178 164 166 173 170 162 164 171 167 169 163 160 165 153 145 147 170 182 186 190 182 164 143 143 153 151 151 174 174 173 165 162 162 155 167 166 170 161 167 188 144 170 161 164 152 140 123 112 107  78 116 102  64  65  70  64  99  98  55 112 121 152  84
  72  89  92  78  76  69  62  62  52  81  78 105 168 171 136 101 100 116 134 137 149 160 170 172 159 186 185 184 183 184 177 176 172 165 173 167 176 175 166 170 174 169 150 144 154 169 190 190 190 184 163 138 140 147 154 154 164 169 178 171 175 171 167 168 162 167 177 174 154 178 156 169 163 159 136 123 110  96  84 114  78  55  72  73  63 102  98  75  91  92 141 128
  65  89  90  72  81  73  70  66  57  78  82  69 160 178 137 100  90 115 132 134 153 160 175 168 176 178 184 191 186 187 181 178 173 176 177 180 174 173 176 178 172 164 154 146 150 161 182 189 192 178 161 138 147 152 145 158 164 169 175 170 168 167 166 173 169 169 165 188 171 168 167 168 158 153 143 125 108 105  82 105  73  57  77  59  72  74  93  59  76  73 116 150
  67  99  84  81  72  78  52  61  62  96  89 109  88 155 115  86  96  97 129 134 154 165 170 170 175 177 185 176 173 171 173 171 176 176 180 182 176 187 187 179 168 162 154 154 157 160 180 194 183 181 159 139 148 151 147 155 166 173 177 175 180 173 171 167 167 170 171 174 170 166 162 166 159 156 141 123  96  93  97 115  55  82  61  66  84  63  69  57  72  71  87 140
  82  93  74 109  74  65  59  59  66 104  90  86  72  99 109 100  97  79 126 143 147 162 168 170 176 179 188 191 187 188 187 181 181 183 187 187 191 190 183 181 181 163 160 159 157 161 180 191 187 182 165 143 153 157 150 157 168 175 176 180 176 188 182 173 174 175 178 175 175 170 165 167 160 151 140 122  72  89 110 126  60  70  74  59  60  68  74  61  69  78  80 129
  96 111  72  77  87  61  47  73  68 104  93  97  81  60  83  93  91  93 118 140 146 156 165 168 177 178 183 183 192 185 184 190 189 191 202 202 197 189 186 173 177 175 171 165 163 168 188 192 188 184 162 147 151 154 152 161 173 179 180 182 187 184 188 188 181 183 176 176 174 178 166 167 162 148 156 113 104  93 104  86  87  57  57  63  67  44  75  64  70  73  83 104
 117 122  89  57  80  64  38  66  75  93  78  75  83  80  90  67 107  90 129 137 146 151 164 171 177 176 183 189 187 185 198 200 197 197 198 208 195 186 185 178 174 169 162 166 180 174 188 194 199 188 168 166 150 139 149 163 169 177 185 185 189 187 192 187 182 192 178 179 178 174 169 169 158 152 155 120 104  90  84  52  78 103  51  52  61  52  82  71  73  69  73  84
 129  96 101  49  81  57  61  89  82  84  85  75  79  98  66  89  95 110 111 140 140 158 162 167 171 182 184 181 182 184 193 185 194 197 193 183 182 173 165 166 167 166 155 163 171 174 186 189 194 185 178 164 159 140 146 151 152 172 177 180 195 197 193 199 189 183 184 177 176 169 166 161 155 146 141 114 109  80  59  79  54 117  68  47  60  46  67  60  66  83  76  95
 133 102  84  73  58  73  65  73  81  79  84  75  80  91  83  93  90  91 101 125 141 145 158 160 166 172 177 180 183 183 181 184 172 182 177 166 162 161 156 155 165 172 163 158 167 178 183 188 187 188 174 160 153 148 157 152 143 164 170 178 180 185 200 190 194 182 180 174 171 169 163 160 151 143 133 118 103  84  87  78  87  71  95  47  48  45  73  74  68  91  85 106
 126  99  92  74  69  84  71  85  73  90  75  84  89  80  88  91  74  76 105 138 142 144 154 154 162 167 175 173 175 174 175 171 179 174 167 164 167 167 158 151 172 172 172 160 165 175 179 188 202 191 176 163 155 162 173 158 146 166 175 171 175 176 185 186 185 177 173 171 168 165 152 151 139 138 133 113 111  85  93  84  85  69 100  48  37  46  53  63  71  79  92 107
 115  84  92  78  91  90  86  80  94  95  71  74  85  79  90  78  92  76 119 136 141 141 146 146 155 163 165 169 168 168 166 171 169 168 164 176 176 177 177 152 173 184 187 171 164 173 180 192 196 195 179 167 161 164 178 168 146 169 180 184 170 174 178 183 181 172 173 166 162 158 151 143 132 138 135 113  94  84  72  89  57  87 105  61  44  53  68  67  75  81 107  95
 100  84  82  91  81 107 112  92  99  86  71  74  72  88  77  99  84 113  95 138 138 144 139 147 152 153 156 163 159 162 157 160 162 157 180 183 183 171 175 141 158 171 182 171 172 173 179 192 201 187 180 176 156 164 171 166 139 165 177 179 190 170 176 176 170 164 166 164 157 153 148 137 129 133 129 120  91  89  62  76  73  81 102  68  46  52  64  73  88 103 111  51
 115  93  85  89  83  90 105 108 106  80  72  82  75 112  85  74  81  76  74 139 143 148 143 142 146 149 151 154 144 153 158 163 174 161 166 163 167 167 170 153 122 151 165 181 167 179 185 188 208 209 175 177 156 163 153 129 127 165 174 176 172 182 174 169 161 153 163 155 154 148 144 129 129 132 132 105  95  82  87  80  78  84 107  67  41  59  62  80  93 103  82  88
 114 123  86  91  98  99  76  99  95  79  69  74  78  91  64 116  86 109 120 127 140 150 148 143 143 143 144 139 162 163 152 157 153 133 149 144 153 143 150 149 150 103  94 161 154 175 187 199 221 209 181 163 139 142  85 134 156 140 161 164 166 166 168 169 165 161 141 146 154 145 139 122 146 137 141 127 123 106  86 100  92  97 109  58  62  46  63  56  99  86  91 102
 111 100  93  93  98  96  90  98  78  87  89  80 104  91  86  93  95 118 108 117 143 161 148 148 148 148 138 161 164 178 168 143 119 125 120 121 130 129 135 124 118 125  90  80 146 149 165 183 180 177 169 142 120  58  91 121 131 127 130 125 146 133 146 142 158 166 160 138 147 141 141 125 150 139 140  99 115 110 102  79  97  66 103  56  49  36  43  89  86  84 113 124
  99  82  90  87  87  93  96  87  61  87  78  74  85  81  88  93  90 101 111 122 142 151 158 150 157 155 152 162 144 150 131 120  96 108 104 122 120 127 121  99  79  93  83 103  83 135 152 167 158 166 155 120  58  85  72 106  90  99 128 113 138 123 119 122 122 140 160 165 144 152 133 143 154 143 133 102 116 104 105  93  80  92  71  59  49  40  48  80  85  74  87 112
 102  82  82  88  92  97 104  76  75  85  94  87  79  93  84  96  87  84 101 126 128 146 157 157 154 160 154 133 138 137 111  89 110 105 103  98 111 101 101 105  85  77  82 104 120  90 139 144 134 134 131  74 102  79  86 108  93  89 101 129  97 117 118 119 114 126 148 154 149 150 131 164 160 138 126 111 103 101 104 100  85  83  67  55  48  64  62  88  90  83  87  80
  99  85  81  88  93  96  89  81  84  83 107  96  94  84  83  77  92  92 109  98 110 133 153 153 146 158 129 136 137 101 110 104 104  98  96 117  91 103 113  94  87 101 110 104 106 101  74 104 114 114  69 112  86 101  81  98  97 103 116  92 106 108  97 106 100 117 127 155 146 160 129 172 155 139 125 108 104  83 105  90  88  84  57  73  63  84  95  80  67  76  96  57
  96  93  68  96 104 100  87  93  95  91  91  98 102  81  84  89  97  89 120  92 107 127 141 149 147 147 121 118  99 123  99  97  92 106 107 111  90  98  95  89  91  82 109 111  93 117  69  86 109 105  90  91  83  98  96  89 106  85 101  95  89 110  91  88  89  92 125 127 137 143 145 160 149 125 113  94 129 107 109  88  75 108  66  49  67  79  73  67  75  78  85  60
  96  85  72 110 106 107  83 101  87 115 103  99  82  74  77  75  81  85  93 117  86 146 127 149 141 130 109 107 120  97 100  92  95  86  98 121 102  90 100  89  70  92 104 110 105 107  99 100 112 106 112 104 107 101  97  83  88  95  87  80 116 104  89  70  94  76 127 112 131 132 146 137 139 119 106  88  95 107  95  94  97 117  83  66  59  79  63  59  86 106  47  59
  77  52  90 102 107  99  92  95  92  98  98  87  81  85  70  69  89 130 102  75  83  98 109 140 140 140 102 114  98 106 106  88 126 115 120 119 133  97  88  96  92 103 112 105 112 118 115 111 141 128 121 139 103  90  99  97  99  96  85 106  95 115  80  87  76  72  91 109 120 123 154 140 148 106 119  91 110  94 104 114  79  86  87  77  88  88  87  98 102  72  49  54
 101 104 100 113 103  99  94  89  93 107  99  84  67  76  75  82  99  89 103  85  75 106 104 139 118  91 117 103 108 108  94 109 106 133 147 150 146 138 145 118 104 101 104 109 105 116 106 137 146 138 135 130  82 101  79  86  98 105 117 106 124 119  95 105  94  91 103 103  99 134 129 140 132  92 110 111  80  88  96  94  83  85  67  74  85  63  47  64  84  81  56  63
 105 103 107 112 106 115  93  79  90  99 105  85  79  72  78  84 108 125  96  92  83  97 106 109 127 106  89 127 133  99 113  83 100 116 138 165 146 149 158 153 159 158 151 146 116 130 154 135 145 148 128 126 115 121 118 148 146 150 141 139 122 108 101 122 105 114  93  96 102 107 110 143 100  86 109  99 114  86 109  77  84  79  62  84  40  50  60  59  73  76  64  54
 101  98 100 102 113 114  94  59  87  68 124  74  93  98  69 105  89 100 105  95  88  87 111  83 114 102 118 108 121 118 104  76 120 119 141 164 149 131 142 144 141 136 153 172 181 175 179 191 178 184 168 167 165 157 143 144 136 135 131 118 127 135 101 123 122 106 109  92 114 128  88 113 106 107 106 109  60 105  95  72  85  72  75  67  58  42  39  55  69  71  50  40
  97  97  97  94 109 109  96  61  59  55  71  67  89  58  77  82  78  98  89  76  96  80  92 128 106 110 107 118 106  91  98 105 108 120 136 162 150 138 137 139 149 136 129 140 142 151 157 137 134 144 142 148 145 149 145 137 143 137 139 124 140 128 106 101 141 113 111  97  84 111  89  93  77  83 114  85 101  85  74  80  80  81  62  41  45  38  30  44  68  71  53  41
  95  93  93  90  97 104  95  82  52  55  43  51  88  84  83  74  75  96  95 109  92  91 111  96  96  84 114 116  81  99  99 106 121 141 128 137 145 137 153 146 144 119 125 131 121 133 128 138 143 137 138 138 143 129 135 148 117 136 129 136 119 123 106 109 118  82 104  92  91  93  95 111  98  86  86  88  76  85  78  57  75  74  56  64  70  50  30  34  65  67  54  35
  98  96  93  87  89  95  89  94  79  56  63  64  78  83  90  79  79  82  72  84 105 110  86  99  87  95  97  95 103  98 107 121 105 119 118 137 125 141 136 137 133 125 130 125 129 128 129 138 130 138 139 140 144 147 142 139 138 135 124 119 143 125 107 103 105  96  94  90  94  96 105  91  96  75  54  99 113  84  83  81  71  56  58  74  84  65  37  36  54  65  55  32
  96  92  89  93  86  79  66  65  52  55  57  63  64  91  96 108  72  73 102  90 114 115 124  88  83 110  81 103 111 104 101 111 104  99 121 119 117 113 132 128 122 113 126 112 115 123 122 135 122 132 132 129 132 138 139 123 122 111 142 100 115 125 102  94  82 101  81  86  83  71  86 113 124  97  79  97  78 100  82  48  74  36  65  68  90  66  47  29  49  61  56  35
  93  91  73  51  33  30  47  51  46  35  27  72  84  62  78  84  86  90  83  75 104  91  96 103 106  97  91  79  88 119  86  88 124 116  91 129 115 110 137 127 111 114 134 105 117 108 119 154 142 120 112 128 149 112 130 115 124 119  98  96 124  90 118  82  87  85  66  90  83  64  98  80  89  98  71  93  73  89  55  90  66  71  36  27  78  68  56  41  56  62  63  54
  49  34  32  32  30  29  23  34  33  27  27  44  59  88  76  65 100  97  86 124 106  87 108 105  93 107  90  70  88  67  80  99 102 116 103 112 127 118 137 121 142 144 131 137 117 133 179 129 123 121 111 106 120 129 109  96 134 122 107 126 114  84 115  86  82  70 104  91  91  96  71  87  74  86 108  94  89  60  77  68  79  60  44  33  26  76  76  69  75  79  80  79
  32  28  33  32  32  29  34  38  41  35  21  11  29  45  70 103  77  88  92  98  98  80  90 120  93  84  93  69  85  80  90  86 105  85 106  93 115 135 110 140 147 153 131 151 144 142  99 144 140 126 110 123 129 123 129 114 120 132  96 114 121 114 103  84  68  68  77  87  92  54  77  96  82  79 102  86  74  82  74  67  68  40  35  41  35  33  73  92  93  97  96 100
  34  34  31  33  37  43  43  42  41  39  36  26  35  25  44  96  97  84  87  94  87  97  95  85  83  86  93  83  88 112 104  80 107 107 109 103 116 125 123 129 117 153 154 148 151 138 134 150 149 116 126 121 138 120 135 125 111 120 134 112  95  93  95  86  98  96  99  81  79 104  74  94  81 101  68  79  90  84  65  70  62  43  41  39  39  37  35  76 101  94 101 101
  33  33  33  42  48  45  45  42  41  42  37  38  28  52  49  29 107  92  90  97 111 103  89  80  56  89  76  80  99  75  96 101 101  94 109 122 126 122 121 135 121 117 138 141 153 156 111 146 152 154 128 123 119 135 115 129 122 122  94 102  99 107  89  92  92  75 112  82  67  87  69  91 111  64  75  85  75  95  53  60  38  60  35  45  39  38  38  39  30  83 103 103
  34  32  43  47  46  44  43  43  42  43  42  37  44  32  32 126 135 103  85  94 102  89  79  70  74  98  93 105  85 100  95 110 104  97 101 119 124 130 108 124 113 124 143 138 129 119 140 126 129 114 126 132 110 116 118 126 121 111 115 129 105 118  97  88  88  97  99  90  80  88  75  87  74  92  77  53  61  68  67  45  24  62  42  41  42  40  43  34  34  33  48 103
  39  45  45  46  44  45  45  44  42  42  40  40  35  26  21 204 156 106 112  80  97  86  87  76  66  58  96  87  80  64  84 102 105 104 101  99 111 129 112 123 124 122 127 119 119 142 143 131 123 139 121 116 138 125 116  95 124 113 118  96  99 113  81  80  96 103  98  59  92  76  82  87  75  85  56  82  85  69  71  46  51  52  41  39  41  43  42  41  38  36  35  36
  41  45  45  46  44  45  45  41  41  41  37  35  27  28 108 210 184  98 113  97  70  81 110  86  73  62  76  79 111 108  77  97  96 101 109 107 100 106 113 113 115 125 115 109 119 130 129 115 123 133 133 117 101 106 111 116 113 116 115  94  87  77  86  80 107  85  87 101  71 106  78  87  59  97  39  69  71  71  25  47  34  44  37  43  43  45  44  43  40  38  36  35
  36  46  45  45  43  44  44  41  41  40  37  27  28  34 201 250 190 114  93 109  76  80  85  76  83  88  87  94  86  97  92  96  65 105 119  98 110 109 121 107 108 117 109 119 121  99 127 113 110 110  97 115 108 118  90 107 125 100 117  95  92  90  82 101  88  89  96 105  56  51  66  68  72  77  85  58  59  43  39  42  40  28  40  41  43  46  44  43  42  38  46  37
  34  36  43  47  45  45  44  41  43  34  25  29  32  44 241 233 180 107 101  95  85  94  76  67  86  65  80  91  58  91  90  81  79  85  99  99 115 123 106  98 108 106 113 116 131 103  99 102 116 105 108 116  98  96 107  95 106 113  93  98 103  87  92  61  96  96 113  64  66  78  70  44  60  79  68  70  23  21  27  41  31  36  41  43  44  48  43  44  43  40  42  50
  38  28  39  49  46  44  44  42  30  27  27  30  35 136 243 252 196 110  98  87  86  84  77  73  83  74 103 105  78  72  65  89  90  86 114  87  83 105  90 108  98 121  98 108 120 118  99 107 105 110 123  96  95  88 116 101  95  62  94  92  90  89  69  77  70  81  72  74  91  59  77  82  87  73  80  22  18  34  31  35  37  39  43  42  46  50  44  48  47  44  40  49
  38  33  34  46  45  45  39  27  27  28  26  33  41 226 248 240 203 108  57  97  85 100  78  79  84  88  84 103  84 107 120 111  83  99  78 113 118  92 104  80 106  88 105 103 106 116 100 107  96 104  88 103 102  87 102  86  99  81  92  77  89  81  87  72 109  85  99  73  70  85  82  71  82  69  39  23  31  28  36  37  39  38  44  43  46  47  48  49  48  48  39  47
  37  36  33  37  41  32  26  28  27  26  31  35  75 242 253 228 202 127  77  81 105  93  81  79  78 105  95  89 115 101 107  94  96  71 106  79  54 108  92  99 106 107 100  85  88 132  83 102  87  85  90  84  75  85  81 103 100  85  80  80  98 106  81  86  90  59  65 119  91  84 102  72  76  47  19  27  28  37  35  38  40  41  42  44  49  46  47  48  49  49  43  46
  38  38  38  31  31  31  29  27  26  28  39  48 204 244 254 220 165 136 103  74  96 102 115  87  82  79  99  92  86  75  67  64 104  94  69  90  83  89  94  99  91  90  78  87  94  86  89  91  89  91  94 119 114  69 109  90 111  90  81  89  80  87  90 100  84  93  77  90 107  72  97  51  74  24  35  32  29  29  36  38  39  41  44  46  48  48  48  50  50  49  49  44
  41  38  38  32  31  29  27  27  29  32  40  40 218 244 251 216 153 130 115  97  76  95  91  94  89  91  93 105  95  83 105  71  94  77  87  89  93  72  94 122  71  89  69  85  88  71  83 103  79  65  82 100  79  78  81  78 108  96  57  76 106  77  89  79  95  97 107  88  78  99  74  44  35  25  30  30  31  32  34  37  41  42  45  46  49  50  49  50  50  48  48  46
  39  38  37  33  31  30  27  26  31  38  45  96 235 251 250 216 153 143 126  96  84  85 100  97  94  91  91  66  83  79  83  97  96  75 114  76  88  75 113  73  87  80  70  94  96  68  78  85  96  95  85  83  89  87  79  84  81  90  85  80 115  90  85 100  66  70  88  64  83  81  83  44  32  28  34  33  32  34  35  38  41  44  46  47  50  51  50  50  50  50  51  44
  42  38  34  33  31  28  26  29  32  43  42 189 240 253 241 219 164 147 140 116  92 101 105  95  93  96  89  82  84 114  79  88  95  69 107  97  79 109  75  72 123  94  86  95  91  86  82  87  90  79  96  89 105  79  75  99  94  98  98  84  79 112  77  64 112  94  92  73  79  50  12  47  36  29  34  34  33  36  37  40  43  46  47  50  50  52  50  50  50  48  52  46
  37  34  33  32  30  27  27  31  38  44  35 215 247 253 231 209 164 157 139 130 107  92  93  91 101  88 103  93  77  88  77 106  79  95  75  72  88  74 111  77  76  86  69  68  90  72 127  72  74  74  88  68  71  93  79  78  93  80  75 122  78  88  90  95  94  87  85 104  96 108  38  45  39  43  30  35  35  37  41  41  44  45  47  50  51  50  51  52  50  51  48  50
  37  35  32  30  28  27  27  34  44  43  73 221 247 250 207 174 169 161 147 143 123  89 103 106 109 100  85  99 115  83  92 104  83  93  90  83  91  75  92  77  94  62 110  62  64  68  88  88  65  70 102  88 102  87 101  76  76  76  53 107  99  97  98  93  81 109  68  62  71  18  58  40  40  47  38  36  36  38  41  41  44  44  47  50  51  51  50  50  51  51  48  51
