P2
# Generated by OpenCV 4.2.0
92 112
255
 186 191 198 204 207 208 210 210 204 202 203 206 205 204 202 202 201 204 207 204 205 208 207 202 197 191 189 177 186 173 123 133 129 117 126 135 113 106 142 156 156 155 147 149 162 141 130 147 144 146 155 140 135 154 162 145 140 108  82  93 119 129 136 153 153 174 205 197 186 171 161 159 158 154 150 145 144 145 147 147 149 152 156 154 152 154 157 159 158 155 152 148
 178 184 191 196 199 202 202 199 200 200 202 207 207 205 203 202 204 209 207 206 210 212 212 210 199 198 195 187 177 155 130 132 128 118 138 131 102 133 117 102 100  87  89 100 112 120 136 156 154 131 137 138 146 162 149 132 137 110 121 138 126 127 124 125 120 123 144 168 184 188 175 167 162 157 151 147 142 141 141 144 147 150 151 152 152 155 158 158 157 156 154 151
 164 173 182 187 190 193 193 193 195 196 203 208 209 206 203 202 208 209 209 210 213 214 216 198 178 178 188 184 164 139 150 130 111 114 131 140 144 108  88 112 127 107 121 108 104  83  64 107 160 148 122 131 147 143 144 136 133 110 125 134 130 135 141 139 125 104 112 115 144 182 195 184 173 163 154 147 147 137 138 145 150 148 149 152 154 155 155 156 158 157 157 151
 157 162 169 175 178 180 183 188 189 193 199 204 206 206 204 204 206 208 211 215 217 216 202 189 192 153 135 161 159 142 153 153 145 128 129 150 120 120 143 147 154 154 154 151 155 156 128 109 153 166 131 125 160 146 144 145 133  90 111 117 131 147 150 133 125 134 129 102 102 116 150 185 187 182 170 168 152 147 145 145 146 150 153 155 155 155 155 158 158 159 158 152
 144 152 158 160 162 166 172 180 184 187 193 195 201 204 203 202 204 207 210 213 218 208 190 180 178 182 176 138 146 127 131 141 140 147 165 143 112 128 128 117 126 113  91 119 134 146 141 152 150 152 153 138 166 156 146 154 152 107  99 107 137 142 131 134 142 153 156 148 127 114 104 134 180 194 192 162 155 159 150 146 148 151 156 157 157 155 155 159 161 159 157 152
 128 137 145 145 149 154 161 168 175 183 185 188 195 197 197 198 201 203 206 210 213 195 185 131 132 157 145 157 147 127 102 123 138 148 150 133 117 135 123 113 109 109 103 114 132 129 126 120 147 158 145 152 163 142 135 130 137 149 137 135 129 116 109 111 111 102 120 125 131 133 132 136 154 179 193 191 173 172 162 158 158 160 159 159 157 154 158 159 159 157 157 151
 119 124 131 135 138 144 150 157 166 172 176 181 185 189 192 194 196 197 198 207 195 166 150 112 122 141 125 102 120 129 122 118 136 161 151 133 133 135 123 113 134 121 114 113 133 124 129 107 119 154 148 149 159 128 122 124  96 137 151 140 139 122 109 118 108  96 106 108  99  93 113 144 146 152 174 190 190 190 185 174 165 166 158 153 151 155 158 157 156 156 152 147
 118 114 117 126 133 135 138 145 154 163 170 173 174 179 185 189 191 192 196 192 168 165 110 111 125 126 143 120 103 104 110 117 122 144 153 135 143 130 100 122 140 127 106 123 123 117 131 129 138 146 140 143 159 130  96 119  98 124 143 120 137 146 120 145 133 119 128 138  89  65 112  90 111 140 141 166 190 199 192 184 179 174 169 154 148 154 156 156 156 154 150 144
 124 119 117 120 126 131 131 137 142 150 160 165 166 166 174 180 185 184 192 175 155 143 122 126 136 119 133 131 119 103 111 124 107 126 147 137 137 107  99 138 143 110 108 135 115 128 125 140 149 147 133 143 161 157 128 115 127 142 132 128 149 133 119 124 114 125 154  94  77 119  95  73  70 109 137 140 163 176 199 179 171 160 157 168 174 165 158 156 157 157 150 145
 135 131 125 123 124 126 131 133 137 140 146 152 158 163 174 189 180 190 189 167 152 131 111 139 128 119 129 133 131 105 121 124 112 125 144 142 121 103 137 153 127 100 133 132 117 119 116 142 151 147 133 134 152 164 166 169 163 151 135 153 163 102  88 118 119 168 115  60 108  67  49  59  67  62 102 125 146 178 179 184 163 154 148 150 167 179 172 164 161 157 150 144
 147 148 145 138 136 132 135 139 140 140 141 148 156 159 168 193 180 142 169 157 154 134 119 115 111 103 113 123 132 114 131 134 120 130 145 130 113 137 150 140  97 124 130 127 114 105 123 139 153 143 127 145 172 181 173 156 144 131 138 166 126  86  96 129 160 148  95 146 113  84 114  97  65  54  63 107 128 153 173 168 166 162 158 152 150 152 162 168 171 153 144 143
 158 158 155 147 142 141 144 148 149 148 150 156 160 157 162 166 156  74  95 143 146 145 126 128 124 105  83 104 127 136 154 133 131 150 139 110 126 155 150 107 113 125 129 117  99 107 128 143 147 135 150 181 184 161 148 153 149 132 136 140  91  89 122 157 163 149 150 167 146  94 111 143 103  87  64  78 110 128 160 179 165 162 160 149 151 155 157 156 176 174 141 144
 174 175 175 167 160 154 147 147 152 155 161 162 162 167 170 134 129 126 100 115 144 143 153 155 161 149 115 102 118 163 157 121 137 136 127 105 144 154 124 104 120 119 116 104 110 117 134 142 142 150 173 171 145 136 151 155 146 134 123 118 105 135 166 168 162 124 132 136 144 112  94 115 115 121  99  87  96 114 143 183 182 157 159 151 152 158 159 161 150 171 175 144
 184 186 189 187 183 177 171 166 165 166 165 162 158 162 157 113 135 131 125 111 140 139 133 154 163 161 141 118 135 174 125 121 123 133 125 117 132 126 118 117 126 130 116 119 120 139 139 147 147 166 167 146 137 150 153 149 138 132 129 131 139 157 154 140  88  55 103 119 122 120 114 111 110 107 107 125 119  99  98 163 183 170 166 157 157 159 157 160 153 145 185 167
 189 194 196 195 193 191 189 181 175 180 175 178 177 177 174 124 109 110 122 118 140 158 130 139 146 147 138 130 142 135 117 116 117 138 134 119 117 125 133 142 164 172 166 152 148 154 157 154 159 158 153 153 161 170 167 163 161 155 148 142 143 137 123  93  69  92 115 130 141 145 154 156 129 106 109 109 103 106  93 109 179 177 170 171 171 170 164 153 150 159 157 180
 198 202 203 203 202 200 195 185 186 179 151 175 183 174 178 160 125 107 119 128 138 158 166 161 152 142 137 133 136 136 125 125 123 140 137 119 121 135 142 141 150 159 164 157 155 158 152 153 157 156 166 173 176 178 176 173 173 170 165 159 154 144 136 112 114 128 147 151 149 144 134 109  74  61  71  93 104 103 108  81 136 182 162 166 175 169 159 149 168 174 154 171
 204 207 212 211 208 203 193 191 193 147 157 151 145 135 135 143 134 132 131 140 134 131 156 158 154 160 158 151 147 150 143 145 140 143 146 128 136 145 134 139 146 155 159 159 156 147 150 158 161 174 181 180 184 184 184 186 187 184 180 179 172 165 157 154 148 139 136 127 112 115  97  86  85  69  58  69  90 102 110  92  76 162 182 174 177 162 147 147 199 195 158 171
 209 215 216 213 208 201 200 205 145  74 156 147 133 121 119 118 130 131 127 148 154 162 173 161 164 166 168 169 171 172 167 163 162 153 159 145 156 152 147 162 169 168 164 164 155 157 165 168 176 186 187 187 189 188 190 190 193 191 187 184 181 176 172 160 140 124 123 117 117 116 119  95  75  78  75  61  67  80  88  97  61 104 182 174 174 163 150 198 224 184 168 175
 215 218 217 215 209 204 214 163  70 149 141 128 137 138 121 106 119 135 145 160 177 183 170 169 181 187 182 184 186 186 182 182 169 168 171 163 167 167 171 175 175 176 175 172 170 172 177 183 190 192 193 192 192 193 194 194 193 192 189 188 185 183 182 172 158 147 136 125 117 118 104  73  86  90  99 103  79  69  74  88  89  64 136 189 176 169 189 232 205 164 178 179
 215 218 217 214 208 216 183  91 151 162 151 155 150 136 120 111 116 126 142 174 174 159 170 184 194 201 202 194 194 194 192 191 173 183 180 178 176 179 181 181 182 186 186 184 184 184 186 188 191 192 190 191 193 195 195 195 192 190 191 192 192 190 189 182 173 169 153 132 127 124  93  98 102 112 119 112 120  98  83  78 102 101  94 161 194 198 221 212 173 189 190 178
 214 218 217 210 216 203 126 143 141 145 192 152 129 118 130 131 126 136 146 161 153 164 185 199 207 211 207 203 198 197 197 184 180 187 185 187 183 185 187 184 185 188 188 188 189 190 189 188 190 190 189 191 194 195 195 195 195 196 195 196 198 194 191 190 184 179 165 149 128 110 110 116 121 119 125 132 121 108  99 105  93 103 117 115 175 215 213 200 190 209 211 202
 216 218 216 214 212 159  94 106 153 188 126 104 109 118 125 127 140 144 145 147 167 185 197 206 213 215 211 206 199 194 195 174 185 185 190 185 185 185 189 188 186 186 189 188 189 189 190 191 191 192 191 193 191 192 192 192 196 196 195 196 196 195 192 192 191 186 176 166 139 106  96 101 108 116 114 107 104 106  82  68  81 117 119  86 103 181 206 202 195 193 186 179
 217 219 217 216 183 107  61 163 241 165 109  89 100 109 103 116 121 127 140 164 185 197 210 212 213 211 206 201 193 193 182 178 184 185 182 181 187 188 189 189 188 187 188 189 190 191 189 188 192 193 192 190 190 189 192 193 193 195 195 195 196 194 193 190 193 192 185 179 159 135 122 131 112  92  87 104  83  56  58  79  82  72  91  79  83 105 164 184 187 164 159 173
 217 219 221 204 136  75 156 230 183 135 147  85 149 127 128 112 120 135 161 190 202 214 215 214 210 203 199 195 193 185 177 182 182 183 183 185 188 190 188 189 189 190 192 192 192 191 192 192 193 193 192 193 192 192 192 193 193 196 195 196 196 194 193 193 193 193 190 180 164 142 137 118  65  62  73  61  58  72  90  82  52  55  73  83  93 106 113 140 156 155 158 150
 219 217 223 173 103 114 220 205 132 164 148 112 160 154 137 129 141 156 190 212 214 215 210 208 203 198 193 189 187 164 179 182 181 182 184 184 187 191 186 190 194 191 193 194 193 193 194 192 195 195 194 194 195 191 192 192 194 196 196 197 197 194 194 195 193 192 190 183 170 145 133 113  96  84  58  74  87  96  89  83  71  87  78  71  81 126 142 144 139 126 130 140
 218 223 191 139 114 165 232 148 162 158 120 140 152 118 115 143 154 173 204 212 214 211 207 202 196 191 190 183 163 170 176 180 176 181 188 187 188 189 188 190 190 192 195 192 192 193 194 192 193 193 193 192 192 193 192 193 194 193 193 194 195 196 195 197 197 194 191 187 177 155 137 119 122 118 112 101  86  93 101  94 100  99 103  98  91 128 162 157 153 163 176 184
 223 207 142 147 105 190 189 139 178 122 100 121 118 126 132 149 156 187 209 214 207 198 198 191 186 184 176 163 168 174 172 175 179 186 185 189 191 186 186 191 191 192 192 191 190 191 193 191 191 192 190 192 191 190 191 194 195 192 191 192 193 193 196 195 197 195 193 188 178 164 147 139 140 123 109 107 114 112 107 108 110 116 131 141 126 122 155 173 186 200 207 194
 217 181 151 152 137 180 171 156 122  91 104 113 125 107 123 143 154 193 211 213 206 193 178 167 167 162 159 169 171 172 174 173 180 186 182 186 187 187 188 187 190 191 191 194 193 193 191 190 191 189 186 191 190 189 190 191 192 192 192 193 193 191 197 199 198 196 193 188 180 162 147 134 118 116 122 114 110 104  96  95  96 103 111 134 153 161 169 187 189 194 194 195
 182 176 163 163 168 147 160 102  78 101 127 119 111 123 130 126 162 199 207 206 201 195 180 168 165 163 167 167 171 172 173 176 180 182 181 184 184 185 187 188 189 193 193 192 192 193 189 189 188 186 187 188 188 189 189 189 190 191 191 192 194 193 196 199 197 196 193 187 179 164 144 124 121 126 120 104 100  93  80  90  96 105 119 127 137 152 168 189 192 195 193 195
 174 178 173 168 165 142 112  96 157 136 110 102 104 118 118 143 178 198 201 202 190 179 177 176 171 166 164 167 169 168 171 176 179 181 184 186 188 184 184 187 189 189 189 191 189 190 188 184 184 185 187 186 187 188 190 188 188 187 189 191 194 195 195 196 196 194 192 189 179 165 135 119 111 100 105 114 102  65  56  69  97 107 104  98 122 135 154 173 184 188 188 191
 187 180 181 160 132  80  90 142 137 103  93 101  99  99 138 157 178 191 196 190 179 176 169 168 167 167 166 167 168 171 175 177 181 184 183 187 187 185 188 188 190 189 188 189 188 186 183 182 185 187 186 186 186 188 190 187 186 186 189 192 193 193 195 196 196 193 186 181 177 167 139 117  95  97 116  98  72  74  63  74  87  62  58  61 100 107 132 170 169 176 189 192
 189 180 177 120  89 109 120 109  93  89 109 111 101 118 148 160 180 184 187 182 176 172 168 168 168 166 165 167 164 166 169 176 179 178 181 182 187 184 187 188 190 190 189 186 187 182 181 188 190 190 186 186 187 186 188 186 187 186 188 191 191 192 194 198 196 192 185 176 169 164 149 128  99 103  90  79  66  66  82  72  50  76  91  55  87 124 111 137 169 173 181 195
 171 168 143 108 103  86  80  66  93  99  95 122 122 135 148 154 170 180 183 181 174 172 169 166 167 167 163 167 171 168 173 178 181 177 180 180 183 187 188 188 189 188 187 186 188 187 184 188 191 190 188 188 189 187 188 188 187 188 187 190 191 192 195 195 193 191 185 178 173 164 153 137 117  93  77  61  62  77  71  46  68  96  54  45  85 112 113 114 153 166 183 193
 170 143 105 107  79  71  57  85 128 108  80  78 119 132 137 148 165 175 181 179 172 170 169 166 167 170 169 175 173 174 182 185 184 184 184 186 185 188 186 188 188 185 185 187 185 187 190 191 190 191 189 191 192 190 189 190 189 187 190 191 191 191 192 193 193 192 186 178 171 160 148 143 132 101  92  84  87  67  46  81  92  63  53  38  71  94 103 113 142 162 177 188
 153 109 110  78  73  74  86 102  95  86  77  59  92 134 137 146 166 173 177 175 168 166 165 165 168 170 170 176 177 178 181 186 186 187 187 187 188 184 182 182 186 186 188 189 188 188 192 192 192 192 191 193 193 191 190 190 188 186 188 193 192 190 190 191 189 192 188 178 169 156 148 141 126 101  90  81  72  66  93  94  66  46  49  42  65  88 102 107 133 160 168 176
 110 109  86  69  85  91 115 113  94  81  72  59  68 135 137 147 166 171 171 169 168 167 167 165 166 170 174 177 178 181 186 185 188 189 190 187 186 183 185 183 187 191 190 191 192 192 191 193 194 192 192 193 190 190 191 190 191 190 191 191 193 191 191 190 187 187 183 175 167 155 144 133 122  98  89  81  87  94  87  57  65  40  41  55  72  70  92 107 116 149 168 180
  93 103  72  85  91 120 118  95  76  66  59  51  92 125 123 138 163 172 166 167 168 168 167 169 167 169 173 177 181 186 186 189 195 193 192 189 188 190 190 192 192 193 190 191 191 191 191 190 194 190 188 191 186 187 190 191 192 192 192 191 194 192 190 191 190 186 183 180 168 152 134 128 122 102 102 115 113  93  65  52  57  38  31  52  74  68  89 113 119 140 161 179
 135  85  74  84 110  92  67  62  52  42  43  61  99 107 110 135 161 170 168 167 167 170 167 169 169 170 171 174 178 181 184 187 192 192 192 188 193 192 193 192 191 191 188 190 192 191 191 190 192 189 188 190 193 191 195 194 194 193 195 195 196 195 193 191 191 187 183 182 169 144 120 119 123 100  94 107 109  81  53  62  32  30  38  58  82  73  90 117 118 129 162 166
 119  89  93  97  80  60  69  70  54  40  25  53  85 109 110 130 156 164 167 170 174 171 171 171 170 169 171 175 173 175 182 188 192 192 190 191 193 191 193 191 187 189 190 193 192 192 189 188 194 193 189 192 195 194 194 193 194 195 198 199 197 197 194 191 189 187 184 180 175 153 118 103 114 105 100 109 102  85  68  34  23  26  34  56  76  67  91 109 123 135 159 160
 100 103  94  73  61  78  94  88  63  53  63  51  80 111 105 116 149 163 167 174 175 175 175 174 173 169 168 172 173 173 176 185 190 189 187 192 195 184 187 190 186 188 189 187 189 189 190 190 190 192 188 193 195 196 193 192 190 190 189 191 197 196 191 189 190 187 183 181 175 157 123 104  91  99  96  99  96  85  58  33  23  26  32  63  77  70  98 108 127 131 148 164
  84 105  85  59  75  88  85 102  73  64  73  54  82 106  81 108 146 163 168 178 181 182 181 179 176 173 172 172 173 171 173 180 181 183 184 192 192 185 187 191 188 187 190 185 184 186 189 189 191 194 194 194 194 194 191 181 181 184 186 190 192 195 194 189 187 186 184 180 177 161 128 107  97  83  83  98  96  79  53  25  22  32  34  77  80  75 101 102 127 124 136 161
  84 102  68  52  90 101  92  95  77  69  77  68  82  78  90 114 145 163 172 186 188 182 183 181 180 181 177 175 176 178 171 174 179 177 179 184 184 182 186 193 189 178 189 186 184 183 179 183 179 176 185 190 184 175 170 167 167 174 173 174 184 194 192 189 187 185 182 179 174 161 130 104  94  73  83  94  83  78  49  23  21  15  33  94  77  84 110  98 130 131 131 154
  95  84  65  65 110 113 110  90  72  74  81  88  74  67  87 103 149 160 177 193 187 181 180 182 184 184 180 182 180 177 175 174 178 178 175 176 185 181 188 191 194 179 179 181 178 169 155 156 154 149 150 158 160 160 161 158 162 165 166 166 163 178 187 191 188 183 181 180 173 160 133 104  89  74  78  83  81  69  42  39  38  23  45  99  68  92 116 105 139 170 149 151
  87  77  68  73 107 109 114  78  67  82  79  70  61  70  80 110 149 163 180 176 166 159 164 160 162 175 176 177 172 160 158 159 166 169 170 174 177 175 184 191 191 183 165 168 162 147 133 133 130 131 135 137 141 148 158 160 158 159 166 165 164 172 176 182 186 187 179 178 174 164 141 102  81  78  69  73  79  60  48  64  61  56  73  87  71 101 114 110 139 157 143 151
  90  68  74  84  87 106 106  60  65  78  57  71  69  72  79 102 146 167 172 161 138 140 151 151 148 151 150 147 149 142 139 136 137 143 150 159 161 168 185 193 190 184 164 153 146 133 122 113  94  82  92 109 126 139 149 157 166 169 167 163 165 163 168 174 188 187 177 177 175 167 151 123  73  69  75  77  72  69  71  69  61  50  84  77  87 103 109 110 132 150 145 152
  85  65  67  87 103 100 100  55  92  83  80  71  55  61  70 106 146 170 171 157 143 144 150 145 137 132 127 125 113 105  98  96 101 109 112 123 140 168 182 192 193 184 168 154 151 143 127 109  87 100 102  90  86  94 117 137 152 163 169 169 168 167 170 174 185 185 179 176 178 170 154 136  95  79  87  83  76  70  76  69  53  54  83  76  96  96 107 105 127 140 147 154
  95  66  69  90  90  87  70  99 103  91 104  69  63  68  61 104 148 170 165 150 140 138 137 139 141 143 136 126 117 103  89  81  78  99 114 115 127 151 173 190 193 184 170 161 160 133 116 116 112 118 118  73  74  58  75  96 131 134 142 160 169 173 171 173 178 182 180 176 178 174 146 131 110  87  93  89  86  80  83  79  60  72  83  80  93 100 104 104 130 133 150 155
 111  66  60 101  83  67  92 125 101 113  92  82  79  80  68  99 148 170 161 139 139 142 142 144 141 131 110  88  82  82  92 113 100  93 104 112 126 147 176 192 197 190 173 168 153 118 128 114 100 126 139  97  85  64  89 107 132 126 118 116 137 155 163 168 175 177 178 179 177 179 155 112  84  85  88  81  92  90  88  98  75  77  86  74  93 102  98 115 134 137 148 158
 113  80  49  81  89  72 120 118  95 108  85  90  86  73  81 110 149 166 155 142 142 147 150 132 119 114  69  68  73  82  93 126 107  88 103 107 124 151 181 192 195 190 176 165 152 146 146 119 120 138 146 145 149 151 153 159 159 154 139 121 109 121 138 149 158 171 180 178 177 178 175 140  98  94  85  81  80  78  88 112  88  73  74  71  98  96 107 121 119 137 150 150
 129  93  47  61  79  87 101 103  89 106  90  89  77  70  76 106 149 167 153 144 139 144 129 106 113  99  95  85  87 100 124 132 117  96 105 135 139 155 184 192 192 190 177 162 157 156 151 138 127 133 148 156 161 161 165 166 164 163 157 143 138 135 135 139 158 173 178 177 179 177 180 163 122  96  92  78  66  82  96 111  99  71  68  80 101  94 108 123 122 145 158 148
 121 114  66  50  70  93 103  69  70 112  94  86  70  70  76 105 153 162 151 143 136 130 103 115 121 137 143 146 154 153 149 136 129 126 130 139 142 161 182 187 188 188 183 169 159 154 150 148 136 134 139 144 147 153 152 152 155 155 154 154 155 155 154 156 168 177 177 176 181 180 178 172 135 109  75  82  86  93  93 112 103  72  65  85 102  99 109 118 123 150 161 154
  91 128 104  61  50  66 102  70  72 106  92  92  85  81  77 109 157 160 146 134 124 106 105 114 133 147 151 152 153 150 140 130 129 129 135 139 147 171 182 184 186 187 180 173 166 162 158 157 159 153 151 152 148 146 152 156 162 163 165 165 166 170 166 167 174 178 177 179 183 180 175 174 138 113  77  80  94  79  83 101 104  76  67  89 102 103 117 120 127 154 144 153
  85 130 108  96  55  44  67  65  57 103 101  81  90  93  70 107 157 159 146 132 118 112 117 126 132 138 138 141 141 132 129 135 140 143 146 146 146 173 182 184 188 187 180 175 175 171 166 165 168 169 163 167 164 157 166 167 171 171 176 177 173 176 175 178 177 178 181 182 183 180 174 172 146 117  94  82  75  60  77  97 101  72  71  94 101 107 122 130 141 146 143 146
 106 138 118  98  83  45  42  50  42  95 111  90  95 102  70 115 161 158 151 149 141 137 145 138 132 135 137 138 137 144 153 158 157 156 158 150 147 166 181 183 183 185 182 182 181 178 172 176 176 175 176 175 175 177 175 172 172 179 176 178 182 183 181 182 182 182 183 180 183 178 176 172 136 117 103  83  72  59  59  90  95  64  76  95  96 106 123 145 138 133 159 156
 129 150 114 109  94  71  35  41  39  88 129 109  92  87  80 123 162 158 158 157 157 158 156 153 157 155 153 159 163 163 160 161 164 165 164 150 149 162 181 184 189 188 185 184 184 182 175 175 181 180 180 181 179 176 178 175 172 178 181 183 184 183 185 184 182 184 185 186 182 182 180 173 131 107 114  94  72  64  61  86  92  67  78  81  95 109 135 156 136 145 159 161
 131 151 107 126 101  89  60  37  36  71 131 114  94  69  76 126 162 162 160 157 160 164 161 161 165 167 168 171 165 161 163 166 168 172 161 150 148 165 185 191 193 188 186 183 187 186 182 178 179 182 183 182 181 179 181 181 183 178 181 183 187 186 185 187 187 184 187 186 185 178 178 173 132 108  99 102  75  66  63  93  95  83  74  91 113 132 142 154 144 147 141 120
 108 153 129 127 116  88  81  55  36  48 122 115  89  70  89 127 161 166 163 166 168 168 168 165 172 173 168 165 162 168 170 169 169 169 157 153 155 172 188 192 195 190 185 185 189 186 184 185 186 181 186 182 184 186 180 180 189 187 186 182 189 188 186 186 188 187 186 183 182 178 174 169 129 112 105  97  93  61  64 105 108  76  74 107 126 141 143 146 145 135  98 100
  80 129 142 120 119  90  74  63  62  40 104 128  92  77  88 126 164 165 163 168 169 173 176 177 181 177 166 167 171 173 173 172 174 164 159 157 162 177 187 188 191 188 184 189 188 186 184 184 186 185 184 188 192 187 181 183 188 191 192 185 184 182 182 190 188 187 183 182 182 179 177 163 123 104 106  95  89  69  62  94 105  59  81 113 137 142 127 119 124 118 107  95
  79 101 126 130 105 105  85  74  81  41  82 133 109  81  92 135 163 161 163 169 169 173 178 175 176 169 165 174 175 167 168 176 171 161 156 156 162 176 187 185 187 189 189 189 183 178 176 179 185 187 187 187 188 187 188 184 188 190 190 189 187 185 183 189 185 184 182 181 180 176 174 162 120 104 107 101  78  80  88 102 113  65  83 131 130 126 128 110 102 116 115 105
 117  96 115 122 100 100  81  69  75  44  49 112 114  89  96 124 160 164 167 170 171 175 175 176 181 178 179 177 173 172 174 176 168 163 154 153 163 172 185 186 189 192 190 188 179 176 176 174 172 179 185 186 186 189 187 185 189 189 188 189 188 186 189 190 189 183 182 179 178 175 171 161 117 101 100 100  91  99 118 127 115  87 109 119 102 118 140  94  96 118 122 101
 120 133 100 111 110 107  89  54  78  59  30  89 122 100  82 112 157 164 167 170 172 171 178 181 183 183 184 181 177 176 178 175 168 158 154 157 164 167 180 185 183 189 192 187 180 183 185 182 170 168 174 180 187 189 187 187 188 187 188 188 185 182 186 187 188 186 180 184 183 177 167 151 120 107 104  95  93 101 119 109 123 115  74  77  94 115 153  82  64 102 113 106
 113 144 120 101 103 102  92  66  90  68  23  65 117  97  88 105 154 161 168 171 173 175 178 182 179 176 179 182 177 173 174 169 154 160 166 166 169 175 180 184 186 189 194 193 190 192 196 196 179 165 164 172 179 185 188 184 183 184 185 186 185 184 185 186 185 185 182 182 178 177 169 151 117 108 101  91  94  95 103 117 136  99  75  40  94 117 152 136  67  81 102 108
 105 130 130 110  88  90  82  88  93  58  26  49  94  92  80  95 149 158 162 167 173 175 176 181 176 178 175 174 176 170 159 145 144 171 174 168 165 177 184 185 187 188 183 186 191 195 198 191 181 161 169 165 169 176 181 180 181 185 181 188 189 186 181 184 189 186 179 176 170 173 169 152 115 105  97  93 104 116 112 136 141  75  85  57  46 117 140 154 145 108 102 104
 108 110 114 110  89  60  75  89  92  47  23  60 100  92  78 100 140 155 157 164 169 172 176 175 173 175 171 162 162 157 142 135 141 161 167 159 152 166 177 177 177 176 174 179 170 131 126 156 167 160 173 169 161 168 171 176 182 182 180 184 186 183 182 184 187 182 175 178 173 170 161 136 122 107 104 112 108 117 127 138 136  55  61  90  44  81 140 132 163 156 126 113
 112  93  94  86  78  59  70  88  85  41  23  63  86 106 103  99 130 150 157 163 166 168 171 171 172 168 163 161 154 144 141 147 145 133 106 123 149 153 167 166 167 168 175 150  93  77  85 123 142 161 178 180 172 161 163 168 175 178 179 179 182 182 177 180 183 180 177 178 172 161 151 120 113 107 117 119 114 110 131 138 115  44  49  78  75  58 117 106 131 170 155 128
  85  95  81  78  94  80  52  92  79  36  41  54  68 108 103 102 123 147 155 161 161 162 168 170 167 160 155 152 146 138 148 155 149 126  81  78 121 149 155 151 151 162 155 124 121 124 117 130 154 170 177 181 181 174 166 165 169 175 177 179 181 181 180 178 178 181 177 176 174 162 151 113 101 104 101 125 129 120 117 136 104  35  54  48  81  57 100  86  75 116 150 133
  80  87  84  73 108  96  50  81  67  35  51  51  62 106 106 103  97 142 151 155 157 159 162 165 159 153 149 145 138 141 161 148 127 112  96  83  80 120 139 132 142 152 139 128 113  91 104 130 143 155 161 164 162 172 176 172 170 171 174 177 179 177 179 178 176 181 177 171 168 155 146 112  94 106 103 108 118 109  97 125  74  34  52  38  49  70  81 108  89  69  82 119
  94 105  93  86  73  77  61  59  47  31  41  41  66  90  95  89  86 124 144 152 154 155 156 157 152 145 143 145 138 139 137 120 110 102  92  68  63  80 102 112 122 128 105  93  92  89 101 106 124 130 132 134 138 143 151 169 171 168 166 172 180 181 181 179 177 177 179 174 166 153 134 112  95  95 103 101 108 105 112 102  59  48  47  42  40  65  69 101  97  97  88  93
  87 100  81  79  66  59  72  61  53  42  47  46  67  75  82  82  81 110 139 150 148 151 147 149 147 136 142 145 120 113 111 109 103  90  88  72  71  74  80  98 109 106  82  74  83  92  99 102 119 110 108 120 128 130 125 141 157 169 173 171 176 177 180 178 176 178 178 173 160 148 128 112  94  86  93 101 104 100  93  70  73  64  48  43  38  41  54  81  89 105 135 104
  67  86  74  61  67  74  75  64  54  43  48  49  67  66  73  74  75 106 144 143 138 147 140 146 139 141 133 125 109  99  98 103  88  92  88  83  84  80  86  86  84  85  77  76  90  93  99  97 103 111 100 114 119 121 112 116 133 159 172 171 174 177 177 169 168 173 172 168 162 134 123 109 106  95  93  91  96  78  60  61  70  70  54  35  18  28  41  69  99 102 147 136
  64  71  75  65  62  80  88  61  51  53  43  55  62  60  60  69  76  99 132 132 136 141 139 140 140 134 121 110  98  90  96  89  83  92  82  83  81  97  85  78  70  85  85  78  93  96  91  94  89  98  82 111 100  99 112 102 122 134 157 176 172 172 177 166 153 163 163 170 157 128 117 107  96  99  96  84  88  93  86  79  76  63  57  43  18  20  41  67  99 106 132 143
  76  85  74  68  77 106  86  54  63  61  56  51  55  58  56  66  71  88 119 113 132 136 139 135 142 126 110  91  96  91  92  93  92  76  81  81  92  95  75  71  75  74  84  86  91  85  91  99  79  82  68  91  91  82 100 102 109 123 146 168 164 166 168 161 147 154 155 159 145 131 114 111  94  92  98  96  92  98  87  80  64  69  63  64  42  26  36  55  98 126 129 142
  84 106  84  74  87  85  67  55  64  55  51  48  53  54  56  62  63  85 103 109 126 130 137 129 132 113  93  87  91  83  91  87  68  69  78  67  91  97  83  88  88  74  87  89  89  81  84  93  85  84  82  97  88  79  82 101 109 114 133 153 153 157 162 148 141 143 147 147 137 120 115 106  96  87 101 101  98  91  86  81  73  78  79  57  59  48  62  62  92 132 142 140
  91  85  73  70  78  61  57  53  50  51  48  54  61  56  51  54  75  80  85 105 119 123 134 122 113  95  93  89  78  77  89  72  64  70  72  74  95  96  95  97 110  98  94  98  92  86  88  90  97 101  97 104  90  92  84  91 111 109 118 137 137 141 154 147 129 124 135 135 126 118 112 106  97  87  89  92  99  94  95  86  89  86  85  72  60  62  67  82  91 118 141 136
  85  98  85  71  55  54  54  55  47  55  58  65  65  59  60  61  74  71  71  90 109 116 129  99  91  95  85  73  73  81  88  75  73  75  70  80  91  90  99  90 104 103  93  92  89  96  97 106 101  95 106  99  85  99  91  80  92 104 105 118 115 133 145 139 121 116 117 122 115 109 102 101  98  90  80  87  97  94  93  85  82  98  94  88  64  71  71  77 103 110 133 134
  84  94  98  74  45  45  56  61  54  64  69  71  62  67  67  70  73  62  60  80 103 101  99  86  91  84  74  72  70  81  85  48  49  84  86  97 103 107 112 111 115 124 119 118 123 125  98  94  52 104  64  46  45  43  80  84  82  88  96 113 110 119 135 121 111 108 116 110  99  96  97  91  87  91  90  88  93  89  81  89  80  94  94  87  73  64  75  66  90 108 108 135
  59  72  73  76  52  39  58  50  50  68  73  76  72  71  67  74  62  60  58  78  86  86  84  88  91  69  78  98  68  56  53  31  18  78 109 106  60  83  81  87  77  75  75  62  44  29  10   9   1  27  14   4   4  22  74  78  84  84  93 109 120 108 114 112  99 101 108 108  85  86  98  94  86  81  91  96  90  89  85  87  87  95  84  86  67  52  88  67  62  95  96 114
  25  38  48  45  56  33  50  55  67  75  78  77  71  72  73  73  61  55  61  73  76  77  76  79  93  79  80  94  77  58  51  62  27   7  16  15   4  11  14  18  10   4   2   1   2   4   6   6  12  12  23  33  56  99 106  83  83  96  92 103 107 105  94  98  95  95  97  97  80  81  87  89  88  81  82 102  95  85  85  87  95  94  90  89  67  40  78  84  62  81  87  91
  19  20  24  26  37  39  62  82  82  81  85  82  81  80  68  67  56  56  63  63  75  64  68  79 104  87  88  81  71  78  94 110  97  49   6   4  34  50  58  67  65  57  44  36  36  35  40  52  76  85  92 108 132 132 117 101  92 100  93 104 106  98  88  85  87  88  88  84  77  74  79  82  88  89  89  93  96 100  95  93  93  92  93  82  83  65  68  67  88  91  92  87
  19  19  17  16  31  68  84  86  82  81  78  76  72  71  62  59  62  61  57  70  67  55  63  88  92  94  93  77  73  96 105 122 127 111  83  55  57  68  78  83  84  82  79  75  81  90 103 122 134 139 142 146 142 138 130 120 106 103  94 103 105  92  80  70  75  79  80  77  73  78  82  84  88  89  86  83  82  88  95  93  83  82  93  77  62  80  94  75  77  99 111 110
  19  17  15  16  35  62  54  72  87  81  78  74  69  70  70  66  72  68  58  72  59  65  76  89  92  91  86  77  89  97 101 116 127 139 126 120 114 114 126 130 128 127 126 139 139 144 148 156 158 159 156 143 132 124 116 116 114  97 101 105  92  86  72  62  68  74  65  71  74  76  86  88  85  87  77  80  83  89  92  96  85  80  88  81  66  50  87 103 102 107 114 117
  19  16  14  17  24  42  63  70  89  74  85  79  66  67  67  58  64  61  56  64  59  72  85  77  86  81  80  73  85  94 109 111 122 137 139 137 145 151 158 153 152 154 157 164 165 165 165 166 161 151 146 142 138 118 113 115 127 112  96 102  97  91  79  65  63  59  64  72  79  71  73  84  92  92  84  86  98  97  87  88  83  86  77  72  79  70  66  81 112 115 112 108
  18  18  16  17  21  43  68  85  84  75  85  75  73  75  66  62  54  55  64  57  65  79  82  74  75  66  72  78  78  76 101 100 111 119 131 138 143 146 144 136 143 141 138 140 141 143 139 136 144 145 135 131 128 127 116 117 121 107 100 100  89  83  85  72  63  64  67  65  76  75  77  82  75  78  80  90  89  94  86  85  86  83  67  60  58  73  84  83 101 105 137 133
  19  21  20  17  22  37  54  83  81  80  77  70  68  70  76  70  62  58  63  71  74  76  78  68  68  66  81  88  79  91 108 115 122 123 127 125 127 124 120 120 118 117 121 121 118 123 127 121 134 140 137 132 120 107 104 114 112 104  87  97  98  87  81  77  75  74  72  72  63  66  80  84  76  78  75  84  85  84  84  92  88  79  77  79  68  51  63  86 101  79 125 172
  15  14  13  15  20  37  42  73  73  73  72  73  77  71  75  70  72  71  74  68  76  79  69  72  74  77  81  78  84  95 108 125 124 121 117 119 117 113 118 121 110 116 122 115 111 105 119 120 128 130 123 116 103 106 106 106  99  99  82  73  82  87  84  85  89  83  75  77  75  64  78  76  73  78  82  84  84  81  82  90  81  81  67  76  88  71  50  42  54  98 148 185
  14  12  12  11  25  36  44  59  69  69  68  74  80  82  66  55  59  68  62  61  68  76  68  72  68  74  69  81  93  89  85  91 105 106 112 113 112 106 110 106 106 108 108 103 108 106 107 113 119 115 120 110  88 101 105  92  95 100  85  74  74  80  82  76  80  89  91  86  84  78  85  71  73  79  74  85  81  88  90  80  78  77  76  77  65  81 109  67  67 151 192 185
  15  14  12  13  26  42  55  67  71  70  73  76  79  74  66  60  55  57  63  69  71  74  65  74  81  68  73  85  91  97  89  86  95  94  96 104 112 103  97  98  88  89  97 100  90 100 104 106 106 106 108 114 107 100 101 102  96  91  83  77  68  69  78  84  85  78  83  80  78  80  88  71  63  85  80  80  71  79  88  95  84  70  67  76  93  67  95 132  96  93 164 205
  15  15  16  19  26  36  43  63  71  64  89  84  78  73  67  63  60  61  63  75  64  77  72  72  67  70  94  99 101  96  84  82  89  88  86  96 107 100  81  77  84  91  92  95  89  96 106 115 113 108 105  97 104 106 105 104  96  98  75  75  59  48  71  90  83  90  82  70  71  79  80  75  72  80  84  77  70  75  89  95 102  69  54  51  89 127  89  78 137 137 114 164
  12  13  15  17  25  20  27  30  47  99 108  90  83  77  68  64  67  69  66  69  62  60  74  72  72  89  98  95  95  87  71  77  83  94  99 107 107 101  90  87  92 100  92 105 100 101 107 107 106 104  99  89  93  98 110 116  96  97  77  70  79  67  63  88  86  90  83  62  69  77  78  76  85  85  81  78  79  75  86  90 104  81  47  61  78  80 135 110  82 150 175 139
  12  13  12  15  16  20  29  28 113 135  98  90  88  76  61  64  66  72  70  72  60  55  65  65  71  88  79  80  82  75  70  77  78  85  89 103 108 109 104  99  97 105 105 103 107 107 110 102  97 104  93  98  87  89  96 114 108  96  74  56  69  71  66  78  86  80  74  65  68  72  83  83  78  79  84  74  73  73  81  95 100  95  57  40  90 100  79 130 136  99 141 191
  13  12  13  13  11  19  29 121 177 137  98  94  79  83  65  55  66  69  68  61  67  60  68  65  72  77  71  84  64  78  74  81  77  83  93  94 109 101  92 101 104 104 105  96  98 104 108 104  98  91  86  97  91  74  95 110  95  96  90  77  74  72  76  85  92  81  70  65  73  77  78  87  80  83  78  73  80  81  75  88  89  87  59  31  61 108 125  86 121 158 120 140
  13  13  12  11   6  10  73 199 160 160 111  95  82  82  78  69  69  59  61  68  72  70  70  64  70  55  78  72  59  71  66  84  76  83  87  88  89  95  93  86 105  99  93  99  96  93 108 109 106  82  99  93  97  79  83  96  84  83  88  87  87  88  79  79  76  65  80  89  82  88  77  78  79  86  78  83  84  77  74  83  78  77  83  63  97  80 104 141 102 116 170 151
  13  12  12   6   9  69 171 197 167 170 147 105  96  78  62  67  66  58  67  67  57  66  60  63  70  53  83  75  67  57  73  84  81  87  89  81  82 100 100  89 102 100  90  94  91  89 105  95  95  85 106  95  90  81  78  89  80  65  70  61  57  82  82  73  71  70  75  87  83  84  96  82  79  82  81  84  77  72  75  85  76  65  88  98  75 115  99  98 148 130 111 169
  12   9   8  30  72 175 195 193 172 167 185 122  98  82  67  60  61  69  65  59  63  63  64  68  65  64  84  83  70  58  79  85  86  79  88  84  78  87  94  96 101  93  96 100  90  88  94  89  87  94  95  93  90  76  74  89  72  64  64  69  49  60  74  74  62  68  70  87  86  84  92 103  84  78  88  86  82  78  70  76  75  67  90  90  98  78 122 119  96 149 153 125
   8   9  45  66 174 199 196 184 183 169 179 122  93  73  70  63  61  60  59  56  61  61  67  68  61  67  68  67  78  74  82  79  75  72  86  88  85  82  80  83  86  88  96  97  82  85  88  89  85  89  92  82  77  73  73  82  60  64  61  58  59  66  74  76  65  65  68  82  86  84  80 111  96  84  84  78  79  82  75  81  78  75  82  93  83 108  86 126 140 106 142 172
   7  51  70 131 225 175 208 179 194 150 153 131 127  73  78  61  70  68  63  58  53  63  60  66  64  74  74  63  75  62  70  80  72  63  84  90  78  69  72  81  74  85  90  96  86  73  91  90  80  94  90  77  69  72  75  87  70  70  60  51  41  55  72  76  86  70  65  86  73  77  87  97  96  90  80  83  77  87  84  89  88  88  69  89  90  89 126 100 114 154 123 133
  62  65 110 215 213 179 209 181 204 158 149 140 152 101 100  62  70  60  52  55  62  64  60  64  75  78  58  51  72  63  57  75  75  60  73  85  80  67  67  80  82  78  81  98  97  71  86  87  88  83  77  74  80  71  71  82  64  63  72  65  55  58  63  70  81  67  69  89  91  76  93  92  96  89  88  95  80  90  75  84  79  84  62  68  98 105  91 134 114 108 159 147
  74  61  99 175 193 214 203 195 194 178 165 153 145 110 106  67  70  62  57  62  64  67  63  61  74  70  63  61  58  54  61  73  63  67  74  74  73  62  65  68  76  79  82  74  88  82  82  87  79  76  76  74  65  62  63  74  58  62  74  55  61  71  73  64  82  73  76  76  91  88  89  86 100  83  92 101  84 100  72  75  71  60  64  77  81  93 117  94 137 134 108 159
  70  66  59  49  71 117 154 212 190 194 172 162 136 134 123  65  68  65  63  59  61  57  66  65  65  58  57  62  51  67  59  61  53  61  62  58  63  64  66  63  77  74  73  71  71  87  76  89  77  69  70  61  64  69  68  73  63  57  75  70  63  66  83  58  73  81  76  76  86  99  98  84  99  93  91 100  94 104  87  72  72  57  66  44  73  85  99 128  99 132 155 124
  66  65  61  57  48  35  44  80 128 207 180 193 147 149 114  66  69  64  54  61  57  50  61  69  61  53  63  54  46  55  57  56  49  68  55  46  54  66  61  53  66  70  49  73  73  81  77  76  76  74  60  68  58  61  71  78  64  46  61  70  64  67  84  67  67  88  85  82  88  87  98  98  88  91  92 105 101 101 103  71  75  63  62  43  63  98 100 100 137 117 127 169
  63  62  60  56  54  52  50  37  31  63 118 198 162 186 126  78  68  66  56  62  68  61  64  67  61  62  59  51  54  47  64  52  50  66  55  42  37  61  57  46  60  74  59  72  69  55  80  72  68  86  66  67  55  68  64  64  55  54  68  74  65  69  70  68  66  69  82  86  78  86  96 105  89  93  95  94 103 101 112  83  67  55  34  44  51  91 115 115  97 145 139 129
  63  61  61  56  53  53  51  50  43  35  36  60 111 194 144 107  67  70  60  61  70  60  67  64  70  66  66  53  57  76  67  50  50  49  54  39  40  51  57  44  63  67  63  76  70  46  65  73  60  77  78  69  60  70  64  60  56  54  54  72  74  79  52  71  70  69  77  88  88  91  90  98  83  93  95  90  96  98  97  94  68  52  24  27  33  76 103 118 125 102 146 159
  64  60  56  55  53  53  55  55  52  47  50  37  28  64 119 141  80  67  62  67  64  58  55  61  60  49  57  49  76  80  67  57  41  44  47  32  40  54  51  58  70  59  50  55  67  44  54  62  50  68  63  65  68  63  70  61  58  59  49  69  87  66  60  68  72  67  81  73  88  86  92  91  83 101  99  91  96  91 104 102  67  46  41  20  17  51 102 104 120 137 115 141
  60  58  57  59  57  53  51  49  48  43  40  42  35  22  37  78  85  84  71  64  68  74  67  64  59  53  48  54  63  69  58  49  51  50  40  33  37  60  50  52  60  50  62  47  57  43  60  53  44  69  69  54  72  68  69  57  59  58  58  66  88  70  69  74  87  67  76  71  99  87  87  94  94 102 105  95  97  98 105 116  86  60  38  18  13  22  93 109 110 126 152 134
  62  62  59  56  54  50  47  46  44  43  39  39  36  29  31  49  60  71  68  70  76  83  70  69  65  56  45  56  66  67  50  50  63  48  46  51  53  54  47  58  46  44  58  46  58  49  62  60  56  60  58  57  74  62  58  63  57  43  47  75  71  81  73  78  83  67  76  78  96 104  98  90  84  91  94 101 108 100 105 101  99  66  29  20  17   9  83 122 108 120 131 149
  58  57  58  52  51  50  48  47  45  43  40  38  41  31  27  42  57  50  66  74  75  82  75  77  54  46  43  41  63  69  57  66  61  51  57  60  50  44  55  45  38  46  48  60  51  44  62  50  42  65  60  63  55  58  59  56  53  57  62  80  71  73  78  75  85  74  68  88  94 108  93  84  92  90  96  90  98 112 106  89  81  71  30  22  20  11  49 123 114 118 129 141
  55  55  56  52  49  49  49  46  45  43  41  36  40  35  30  33  59  65  63  61  67  69  64  68  47  27  35  48  59  64  61  60  42  54  59  50  50  42  35  34  42  46  51  51  40  55  54  48  54  60  69  65  55  51  62  65  66  61  50  71  62  58  84  80  82  78  72  77  97 106  88  80  87  93 103  90  98 106 100  96  85  69  41  26  23  13  30 116 139 120 125 144
  58  53  54  53  49  48  47  46  45  43  43  37  36  37  31  25  54  70  62  65  62  79  77  64  42  41  45  39  56  76  70  70  56  47  52  45  48  37  33  35  48  47  52  48  45  59  48  55  65  60  47  56  57  46  63  76  65  65  50  57  62  59  80  82  87  83  86  96  97 104  92  79  84  84  92  98 101 100 104 107  90  64  46  31  22  16  20 101 143 138 130 139
  55  54  54  51  48  46  48  47  46  44  43  40  36  38  31  26  54  61  62  67  69  72  66  63  43  56  34  42  61  60  71  73  44  46  60  59  58  48  38  36  47  50  48  39  41  65  59  55  52  45  59  52  64  51  50  67  60  69  66  52  69  77  79  77  85  81  86  91  82  91  89  74  99  88  87 110 105 106 111 118 101  64  49  36  28  19  17  91 142 146 143 146
  53  53  52  50  48  47  48  48  45  42  41  40  35  36  34  37  52  38  66  77  67  59  70  55  40  45  51  53  56  54  64  60  45  59  57  59  67  54  31  48  48  49  48  37  47  54  58  60  46  51  61  47  62  53  45  54  58  71  76  67  76  80  80  78  91  80  84  72  78  90  91  82 101 103  91 108 112 116 123 123 111  76  55  44  35  24  19  98 149 155 168 153
  53  52  51  50  49  49  47  46  44  42  40  39  37  34  36  41  28  33  65  61  39  57  55  50  42  46  44  61  58  59  58  68  57  61  63  63  54  42  48  49  31  46  45  36  42  43  53  67  52  58  60  41  53  48  54  47  45  58  76  75  67  79  85  90  91  80  87  89  78  81  86  94  97 100 106 113 122 127 127 124 114  82  61  51  44  32  27 117 166 157 173 149
  53  52  52  50  48  49  48  45  43  42  40  38  39  35  36  32  24  47  50  47  45  52  48  50  44  40  37  47  63  46  52  69  72  63  54  70  42  40  50  43  42  43  40  33  45  47  50  51  68  66  51  47  49  56  47  46  44  36  50  64  56  65  90  95  75  75  78  97  82  78  83  98  95 100 111 116 126 128 129 129 119  86  70  62  52  40  36 128 172 157 165 154
