P2
# Generated by OpenCV 4.2.0
92 112
255
 103 105 104 102 100 100 100 101 102 106 107 105 103 103 102 102 110 113 109 105 117  71  96  56  34  26  26  24  20  25  34  32  24  43  39  43  51  44  46  38  40  70  84  73  70  72  82  74  87  69  51  76 112 145 135 124 115 102  95 114  91 104 121 114  86  72  59  45  42  64  29  33  53  53  28  32  31  29  32  33  29  29  30  29  30  31  31  28  29  27  28  27
 108 108 105 103 102 100 101 101 102 105 108 109 108 107 103 102 111 111  93  89  85 106  69  46  40  42  31  28  45  32  43  49  58  45  41  45  39  50  48  43  42  43  43  53  66  94  87  82  76  78  87  91  67  82 106 128 129 131 127  97  94  93 103  71  51  45  56  38  42  61  53  41  38  47  48  34  31  36  33  33  31  31  31  30  32  31  30  31  30  28  28  29
 110 109 107 106 104 102 102 102 103 106 108 110 105 103 113 121 109 100  58  90  86  84  47  47  37  24  16  22  63  57  61  43  25  31  39  51  38  27  29  32  26  27  27  25  29  43  59  84  82  92  80  61  78  60  66  79  81  88  86  84  91  88  93  58  55  77  58  53  29  30  35  42  39  70  51  58  36  39  36  34  35  34  33  31  31  34  31  31  31  28  29  31
 110 111 107 107 105 101 102 102 105 106 108 108 110 104 107 109 105  63  81  67 102  39  55  54  60  49  40  31  57  65  33  12  44  50  36  26  25  29  28  33  42  43  43  43  44  41  36  51  72  96 111 113  84  56  36  23  32  49  42  51  56  54  37  22  44  41  24  77  71  53  62  74  48  59  65  69  61  46  43  37  38  36  35  34  34  33  34  32  30  31  30  30
 113 111 110 108 107 106 104 105 106 104 109 109 114 111 106 108  60  61  70 105 119  85  63  55  33  27  20  45  49  32  25  46  54  33  24  27  33  30  28  28  32  33  35  37  37  46  51  57  53  65  83  80  65  63  62  45  16  10  23  29  31  42  14  23  39  38  50  78  71  42  57  61  67  46  61  59  83  65  42  44  38  43  36  35  38  35  35  35  33  35  31  33
 113 112 111 109 109 106 103 104 107 104 109 109 108 111  89  74  78  77  72  63  52  49  27  41  73  68  69  73  51  53  70  54  31  34  33  24  27  28  29  35  34  33  35  36  33  32  39  42  35  44  66  72  59  66  61  52  41  30  11  11  42  33  18  33  84  77  76  67  56  54  54  28  61  90  60  53  63  74  48  54  52  42  36  44  40  37  39  37  37  37  36  40
 115 115 113 111 111 107 105 104 106 105 110 109 111  91  79  93  75  77  59  51  55  48  45  40  26  26  24  45  57  70  87  33  37  28  34  24  39  26  27  20  25  27  30  32  33  35  42  60  62  71  58  63  76  84  69  48  16  23  22  38  62  18  23  43  63  45  79  80  81  96  81  36  37  44  72  36  32  43  60  85  53  48  44  46  38  36  36  37  36  37  44  49
 116 117 115 113 112 109 105 105 106 104 111 109 104  84  85  88  97  62  71  48  47  66  40  22  17  36   6  42  50 101  47  63  44  35  18  22  11  25  25  32  42  43  50  51  43  43  43  56  57  67  71  63  96 111 133 163 136 120  66  80  36  26  52  56  71  44  45  77  79  86  76  47  53  31  60  41  24  21  31  64  81  49  38  50  43  38  39  40  37  40  51  60
 116 117 117 115 113 110 107 107 107 107 111 123  86  91  96 103  92  75  66  34  56  44  24  31  23  19  35  35 103  94  67  31  20  13  13  34  17  35  32  42  36  29  29  38  39  41  48  44  43  51  63  77  91  77  80 103 107  70  77  81  58  56  64  45  69  30  74  57  69 103  90  47  36  51  58  34  38  23  15  29  80  67  52  52  46  46  45  43  46  52  64  74
 118 118 118 116 114 111 110 109 108 118 114 120 109  96 118 119  67 101  64  67  58  33  44  19  16  20  30  66  98  37  36  23  13  13  22  31  35  48  47  34  26  32  35  26  33  27  37  47  49  43  40  49  77 105  97 126 124 133  71  59  57  54  58  96  43  35  55  30  34  70 113 122  58  57  74  55  43  53  18  19  70  86  55  51  51  46  46  48  54  63  76  86
 121 119 120 118 117 112 110 111 112 118 118 137 126 113 127 131 102 103  91  52  42  37  18  16  17  42  73  71  45  48  17  22  26  37  26  42  44  39  26  25  20  24  26  19  29  27  27  24  29  46  61  56  42  55 110 103 101  82  76  79  67  75  77  67  50  27  12  22  42  38  55  93 115  42  48  49  71  60  54  40  95  81  67  54  52  48  50  55  64  73  83  93
 120 120 121 118 116 115 111 114 113 125 107 112 141 121 115 145  97 101  73  53  38  13  24  13  53 103  61  42  31  30  22  23  28  15  40  50  36  33  27  29  20  16  16  21  20  20  17  21  24  29  46  61  71  54  49 106 133 130 158 128  75  75  47  60  31  19  17  29  48  76 114  84  98  93  45  50  71 112  69  69 103  77  79  62  59  54  57  69  77  84  91 100
 123 124 124 122 120 117 114 113 119 100  57 134 151 113 108 108  86  68  71  30  27  28  33  54  66  66  33  22  21  22  35  42  16  31  56  42  35  24  27  19  16  26   9  18  29  14  26  20  22  29  31  48  72  75  76  58  89 120 115  68  31  33  37  58  43  33  30  31  46  87  91  52  95 117  58  55  64 104 111  99 107  85  78  71  66  69  70  76  85  92  98 102
 126 126 127 125 123 119 118 117 113  60  93 122 162 101  97  84  85  59  50  42  25  45  28  33  30  26  31  19  23  30  39  31  37  64  46  25  23  31  22  18  31  17  31  26  15  28  24   6  13  32  35  35  57  60  66  79  65  54  95  80  17  58 126 101  49  32  32  36  55  49  60 102 157 121  49  53  70  70 113  99 121 127  83  46  65  79  74  88  92  97 102 105
 128 129 128 126 124 121 120 132  91  76  80 139 160 105 105  84  75  56  59  30  46  25  31  45  23  14  11  19  39  41  25  45  65  58  21  13  32  29  25  41  23  31  18  14  34  22  13  33  47  45  39  31  36  47  77  67  87  78  18  26  68 111  78  83  82  90  38  16  44  56  69 114 138 149 158  70  74  54 111  66 105  85  80  57  50  80  95  97  99 101 103 105
 129 128 130 129 127 123 122 140  87  86 102 162 140 125  92  76  61  83  63  54  56  40  30  22  16  20  20  47  45  35  22  81  49  51  14  26  32  23  51  31  25   7  30  34  21  24  50  70  53  54  67  62  59  58  67  68  42  39  37  62  62  81  77 114 134 136 118 122  74  48  84  78  53  81 133 178 117  93  73  85  67 115 106  85  62  58  96 109 105 105 105 107
 130 129 130 130 127 126 129 143 109  85 119 136 145 114  89  78  69  61  49  22  28  27  17  19  14  32  46  42  29  34  91  59  59  26  19  38  25  37  32  24   3  30  30  33  48  54  41  42  65  62  35  41  40  45  56  52  47  38  38  37  64  77  78  80  77  82 109 125 107 101 124  81  70  88 130 127 107  49  95 104  47  72 160 123  91  59  96 100 100 105 103 106
 130 130 130 130 131 129 133 144 122  89  81 155 124  98  87  75  60  37  43  31  26  28  27  38  47  49  48  32  36  34 133  61  45  13  34  28  38  31  27   8  23  33  33  37  56  27  56  64  56  48  42  41  31  23  21  40  51  44  21  47  53  81 103 102  84  80 100  99 112 133 138 121 101  99 104 131 130  56  82 107  75  60  95 126  89  90 101 109  98 103 102 106
 131 129 127 129 131 130 138 159 135  96 106 166 110  82  63  67  59  51  31  35  44  52  56  54  57  61  39  39  33  36 113  54  23  17  32  32  34  29  14  21  28  33  39  41  38  55  48  43  56  48  61  57  60  50  36  29  20  23  46  59  75  54  54  59  77  74  82  96  82 121 170 113  82 100  73 134  55  33  64 104  60  49  99 153  85 109 136 132 117 111 103 103
 133 132 129 129 134 134 137 158 142 119 120 110  90  84  68  71  43  38  63  45  44  47  41  55  54  79  32  26  16  72 117  40  13  25  32  32  23  18  23  33  28  25  39  49  54  53  54  54  50  45  48  44  36  30  43  42  33  35  51  68  86  75  68  45  39  45  49  50  49  76 140 153  81 102  71  95  40  45  95 110  41  61  56 119 136 121 146 157 137 131 125 109
 132 133 132 132 134 135 141 149 125 127 124  80  92  88  78  65  29  33  35  45  49  42  61  54  46  62  30  16  16  69 102  44  42  45  37  30  28  30  38  18  25  38  45  39  35  41  60  69  78  97  99  91 104  80  69  45  40  44  46  63  84  59  59  61  50  15  34  18  26  15  45 129 106 105 120  74  54  46  83 133  32  52 101 115 138 128 139 187 167 155 149 129
 131 134 135 135 135 134 147 151 131 140 104 106  97  75  65  59  46  38  39  52  42  58  42  35  31  49  44  20  12  57  74  15  45  37  33  22  33  25  30  29  35  39  42  44  54  62  70  81 103  99  99  97  65  46  41  31  31  39  69  76 102  82  71  52  46  37  20  69  44   9   5  62 155 105 128  83  58  60 108 126  62  49 101 140 127 170 133 168 194 176 167 156
 131 135 136 137 136 134 159 152 117 150  96  96 101  45  51  51  60  48  39  30  32  33  35  31  23  50  57  36  17  39  55  28  41  34  22  37  30  34  27  28  42  47  59  62  75  81  88 104 106  87  88  69  63  56  49  42  34  55  73  98  73 106  68  45  34  35  44 107  44  55  63  69  97  99 113 116  48  47  90 126 101  75 121 155 101 180 184 149 195 197 183 173
 126 134 138 138 138 139 166 154 117 110  94  90  73  53  39  49  33  35  42  50  35  26  27  27  24  16  43  37  24  39  56  39  46  31  43  53  43  35  38  43  59  65  78  71  83  78  68  60  57  65  81  66  65  50  49  58  66  60  62 108  63  89  55  57  35  81  82  55  51  56  91  95  88 126 100 111  69   1  82 103 119  82 155 143 137 173 203 175 186 197 200 189
 122 132 137 138 139 145 162 139 100  93  81  74  70  63  52  38  56  53  49  39  19  22  25  21  16  17  25  27  30  30  80  56  55  42  61  52  46  51  54  52  60  64  58  65  60  51  58  91  94  68  57  70  63  68  59  67  42  77  78  90  50  47  51  35  80  68  43  32  28  10  45  20  73 120 107  88  85  20  97 110  90  97 185 126  90 185 200 201 189 203 198 201
 115 128 133 138 141 159 143  98 108 103  75  39  38  54  64  74  35  41  61  52  21  26  24  22  21  18  17  18  18  59  72  75  65  73  52  54  47  37  50  48  55  69  76  67  77  81  75  74  71  68  65  67  74  55  81  62  63  61  94  66  49  59  74  85  74  42  43  34  30  18  25  24  45 125 127  80 100  43 126  88 124 150 150 160 153 201 208 203 201 204 201 204
 109 122 130 138 142 155 123 154 107  81  78  78  76  67  67  68  44  47  49  49  24  26  22  19  21  22  17  26  49 103  94  80  61  58  53  55  52  57  63  73  79  69  71  76  80  86  95  86  80  76  71  76  69  74  68  78  59  58 107  87  92  93  81  64  71  68  75  73  29  23  33  28  67 108 158  89 126  33 163  78 199 146 158 126 172 162 195 205 198 200 206 203
 101 118 127 137 146 117 123 114  97  90 102  79  74  55  66  45  41  43  42  41  37  30  36  25  25  25  22  34  70  96  86  61  70  74  62  56  65  66  72  72  73  80  85  89  89  93  88  81  87  85  79  81  86  88  89  86  80  74 106  87  76  69  67  65  58  56  55  42  24  22  30  53  99 116 176 155 140  98 142 148 198 157 141 166 134 137  77 134 181 199 197 199
  98 110 119 129 135 150 140 105  95 114  77  75  65  77  66  46  47  65  55  43  35  33  38  45  42  36  36  36  64  71  72  46  74  66  54  60  75  78  68  63  57  56  69  69  84  90  96  96  97  96 102 101 101 106 107  97 110 108 107  94  86  75  63  52  42  35  34  33  32  26  39  58 134 146 185 183 134  92 136 168 185 170 124 164 144 208 169 129 146 168 190 198
  98 102 114 142 155 169 156 141 110  88  81  48  52  58  53  40  29  53  67  27  41  40  33  35  42  43  38  61  78  48  49  43  66  60  54  60  56  55  53  50  79  76  75  96 109 110 104 110 114 114 115 115 121 122 122 145 145 126 131 121 112  90  70  63  54  45  42  41  34  40  46  38 126 159 195 171  64 139 141 173 163 144 150 137 192 205 203 192 182 199 195 197
  99 109 122 148 107  80  83 106 130 106  54  58  50  55  50  38  36  67  62  53  28  37  37  27  20  22  21  91  64  38  38  89  58  58  56  60  56  64  81  91  84  91 114 124 129 128 127 128 128 134 136 129 137 149 157 146 159 161 161 149 134 117  89  77  60  60  58  46  43  41  47  79 116 106 179 189  80 154 152 132 153 131 177 144 198 204 202 198 199 196 196 198
  85 132 104  96  90  84 124  93  94  85  70  59  67  53  50  40  34  39  63  71  71  48  44  34  41  44  99  68  64  44  77  52  53  54  55  60  82  96  83  89  98 129 134 138 133 134 136 140 141 147 148 156 164 169 169 173 172 176 165 157 146 138 113  96  77  77  74  65  43  60  69 116  99 121 168 168 108 152 208 106 165 145 149 153 192 203 201 203 199 198 199 199
  93 152 112 129 139 141 118 103  74  88  70  48  48  58  57  43  31  30  34  35  39  58  57  57  58  52  86  66  29  62  63  53  62  63  74  85  93  97  99 104 141 134 147 150 152 148 148 153 156 161 165 166 174 181 173 185 178 183 175 167 159 154 138 116  95  79  68  71  53  60  75 101 107  90 170 123 157 190 194 107 169 120 159 161 199 204 200 200 197 196 198 199
  94 115 146 146 160 133 101  83  72  77  81  63  58  44  45  50  57  48  43  45  38  37  31  40  34  50  60  67  60  60  44  62  65  83  88  95  95  90 118 139 141 148 152 154 157 157 154 161 161 164 168 169 174 176 183 178 186 185 183 170 161 156 153 133 110  91  77  74  61  85  90  85 125 118 158 136 179 185 185 125 156 152 191 181 208 202 206 201 199 197 198 198
  96 118 145 158 136 116  85  62  51  48  70  86  66  70  73  71  48  60  68  56  58  50  50  36  44  53  58  60  58  54  76  75  89  99  98  90  94 133 139 145 151 157 159 160 160 161 163 164 166 169 173 173 177 180 184 185 189 190 182 176 168 168 158 147 136 104  78  80  71  80  78  97 159 110 132 179 155 186 172 175 141 192 169 186 201 202 204 201 199 198 198 198
 108 117 155 170 127  84  77  78  72  43  50  63  62  86  95 100  89  81  81  80  75  72  63  69  68  64  64  60  72  75  82 102 107  87  85 115 141 140 145 152 157 161 163 163 162 164 163 167 170 171 174 176 179 182 189 191 193 194 191 184 178 178 163 161 155 125  95  64  82  84  91 109 136  74 130 176 162 137 161 169 156 159 156 187 204 204 205 202 201 200 199 200
 118 129 137 148 136 116 112 114  80  79  87  70  68  81  94  78  92  77  90  90  90  77  92  78  75  73  67  71  83  92 102  92  90 118 140 139 143 149 157 155 159 162 162 161 162 165 167 171 174 173 175 177 181 185 188 192 194 194 195 185 179 180 185 171 153 129  87  72  73  81  79  96  63  68 113 173 191 156 159 155 187 150 186 179 205 204 205 202 201 200 200 202
 143 106 138 164 130 127 103  95 150 101  59  85  83  77  98 116  86  91  81  82  80  97  89  80  75  69  72  79  90  84 106 127 148 142 149 149 150 153 155 159 162 164 164 164 165 169 171 175 176 173 175 178 183 186 189 189 196 197 198 191 189 197 191 188 185 162 159 110  79  81  75  60  58  41  92 100 151 137 192 145 194 174 172 188 204 203 201 200 200 198 199 200
 130 122 168 169 152 109  93  80 123 129  94 108 112 106 112 101 131 145  93  79  98  95  81  72  72  89 111 125 126 134 141 144 148 150 151 156 156 158 160 164 166 167 169 169 169 171 174 177 178 180 179 182 187 191 191 194 195 195 199 198 200 204 204 208 207 210 203 159 114  64  73  69  47  26 121 156 153 123 162 166 170 179 178 162 200 196 196 194 194 192 194 195
  99 135 150 148 152 135 131 108 107 136 119 112 127 124 108  86  92  88  98 114  97  84  88  97 122 138 145 148 149 147 150 153 155 155 161 162 161 162 164 170 170 170 173 172 173 176 178 179 181 183 182 184 188 191 192 196 199 200 205 206 209 210 211 215 217 215 212 198 150 101  70  54  38  26  97 176 127 160 162 192 177 180 183 169 187 189 190 189 187 186 188 189
 156 117 116 126 119 130 119 132 119 116 121 104  85  93 112 118  95 106 105  95  89 116 131 155 149 157 158 159 161 160 157 158 161 161 163 166 165 167 170 170 173 174 176 176 177 178 179 181 184 186 187 187 189 191 194 198 201 204 207 212 214 215 218 215 222 225 223 214 190 144  96  61  50  32  85 179 126 176 148 192 183 185 191 172 169 175 185 182 185 184 184 183
 121 129 120 130 120  70 102 144 139 150 138 143 125 152 152 131 121 105  93 101 120 162 163 158 163 167 165 164 168 168 167 163 167 166 167 166 166 169 171 173 174 173 177 176 176 178 183 184 186 187 187 187 188 191 194 199 200 202 206 214 218 220 216 222 227 229 228 228 208 185 126  94  58  66  94 157 161 173 168 175 197 193 206 199 186 182 178 185 182 186 186 182
 112 108  83  91 101 110 112 151 129 167 138 149 155 152 136 111 103 142 129 152 178 169 173 178 174 172 173 174 170 169 173 171 172 170 170 169 168 171 173 173 174 174 176 176 179 182 181 182 183 185 185 183 188 193 196 196 194 196 205 213 215 221 224 229 230 231 232 236 225 206 158 137 114 106 127 164 178 160 163 163 175 200 208 191 174 178 175 180 182 185 183 181
 152 153 154 160 152 125 112 122 117 133 199 172 150 116 114 117 141 132 191 198 188 183 182 176 173 178 181 179 178 179 180 176 177 172 172 173 171 173 176 175 175 174 177 179 181 183 182 183 184 187 184 184 188 192 194 193 191 191 198 204 213 222 227 230 236 238 236 240 238 231 203 150 138 133 168 182 167 162 184 170 163 196 203 202 169 173 174 179 183 184 182 187
 162 137 113 112  96  97  96 106 155 134 184 141 106 122 154 127 161 224 204 199 198 186 183 187 188 188 185 184 185 185 183 182 181 177 177 176 174 174 176 179 177 178 179 181 183 182 178 179 182 185 185 187 189 187 191 193 183 179 186 188 200 213 229 236 241 242 241 241 241 242 238 198 157 144 182 159 188 153 173 173 166 197 209 189 165 167 171 179 186 186 191 202
 184 181 174 167 169 165 158 167 166 172 135 131 135 131 140 153 205 224 223 207 197 195 193 195 188 188 192 191 187 185 187 186 184 182 181 179 177 175 177 179 182 182 183 182 185 186 179 185 181 189 190 187 189 174 171 178 168 152 161 164 165 174 199 225 235 243 241 244 245 247 243 240 192 150 150 134 188 140 156 177 181 175 207 179 154 175 178 183 186 191 197 219
 188 186 188 191 194 153 176 162 157 178 130 138 101 170 125 192 214 234 220 202 194 191 188 185 184 186 189 191 191 190 188 186 185 184 184 182 177 176 177 177 181 183 181 183 184 183 183 183 183 177 173 164 157 153 133 130 129 139 146 152 148 157 174 196 213 234 247 244 245 249 248 245 227 179 130 167 186 143 130 185 172 167 172 145 115 173 229 220 196 201 209 229
 191 193 195 194 191 168 131 170 161 193 149 124 162 158 163 223 226 222 192 180 179 161 153 156 161 160 160 163 171 182 184 186 187 188 190 185 181 178 177 177 179 183 183 183 181 178 170 170 153 143 108 102 103  90  97  95 105 125 138 140 147 155 167 186 205 212 236 244 249 250 245 248 245 178 143 159 155 150 124 175 151 144 103 104 150 200 237 249 206 199 211 234
 196 195 194 193 192 189 136 139 152 163 154 161 173 125 212 237 208 193 168 153 150 134 120 116 116 113 117 125 130 141 165 178 179 182 184 186 181 181 180 179 179 182 182 175 172 165 156 127 123 109 121 120 111 116 130 147 166 167 169 172 176 183 188 191 193 210 221 239 249 250 249 248 247 212 154 162 155 143 115 162 131 116 115 150 182 212 233 229 197 197 200 230
 198 195 192 192 188 180 171 140 139 153 156 165 119 186 239 224 197 195 190 183 168 165 164 149 140 126 125 122 124 135 148 154 163 170 176 184 184 179 182 183 181 177 175 168 159 153 143 128 131 132 139 141 147 155 165 165 166 169 174 176 183 190 195 206 214 220 225 237 245 247 250 251 249 225 153 162 164 142 115 137 128 140 156 169 201 192 149 205 180 179 185 213
 198 194 190 185 180 169 208 221 137 134 147 124 141 200 240 224 207 211 208 199 201 194 189 178 179 170 157 146 137 137 144 148 156 165 172 179 181 178 182 184 178 174 173 166 162 157 154 156 156 156 154 150 142 142 142 148 158 163 167 171 178 188 196 198 206 212 214 226 235 242 250 250 248 231 160 159 162 169 132 137 165 163 171 203 164 117 142 208 161 160 162 179
 196 192 186 179 171 157 206 235 197 157 145 160 145 201 238 230 221 213 211 204 201 195 182 186 171 166 162 158 158 162 164 157 163 163 164 171 175 175 182 181 175 171 170 167 169 167 163 158 150 137 109  95 109 104  97  90  91  89 118 139 156 179 193 199 202 203 205 215 229 236 245 249 250 231 180 166 158 185 131 169 193 195 201 220 166 126 158 202 131 134 133 133
 197 185 181 170 161 153 143 220 218 200 176 146 157 211 245 229 218 212 211 209 199 190 177 155 141 133 118 109 107 101 123 152 158 161 166 174 180 182 190 189 187 182 178 175 173 165 153 142 135 113 107 137 102  76  74  76  79  87  68  94 133 130 160 198 203 195 198 211 226 235 242 249 248 243 182 166 149 175 141 208 219 198 175 223 174 123 181 186 122 125 122 125
 197 189 176 162 152 142 128 200 188 203 197 147 141 212 247 234 219 210 212 210 192 140 163 116  91  80  82  87  83 103 110  97 108 153 160 181 194 198 200 195 190 192 193 191 179 165 149 137 117 108 121  96 129 103 122  52  40 111 139 132 105 126 145 123 201 201 195 214 226 237 240 248 247 246 189 160 159 164 187 212 234 206 191 220 207 124 195 167 133 129 127 127
 200 192 178 161 149 141 121 191 163 160 204 160 161 220 246 235 217 207 216 197 140 161  92 121 134 126 110  50  72 104  75 119 113 123 153 169 202 211 205 195 187 194 200 200 182 161 144 129 108 113  91 136 160  83 160  40  39 125 132 190 211 112 122 151 143 194 202 212 230 238 240 247 249 246 193 164 174 185 215 217 221 206 195 221 231 137 209 149 130 126 124 121
 200 190 176 162 151 144 120 164 183 141 193 209 176 214 250 242 226 208 219 168 145 107 146 206 180 108 117  23  49 144  81 114  99 132 151 171 203 216 211 197 187 191 199 205 186 165 154 130 117  88  82 132 167 111 152 127 106 125  96 207 179 154 190 140 170 178 201 216 224 234 239 246 250 247 209 178 168 219 229 170 171 173 175 200 239 168 209 142 128 121 116 112
 198 191 180 168 158 147 130 126 197 141 194 224 173 219 248 241 227 216 210 172 146 156 195 209 198  99 160 100 113 125  93 115  85 113 167 180 202 216 210 199 189 190 198 207 192 171 163 141 120  85  84 100 113 136 100  97 101  94 126 147 164 217 226 170 165 182 200 214 224 233 239 245 251 246 224 195 148 236 203 140 151 160 162 186 230 176 200 139 130 121 116 114
 193 186 178 168 161 145 129  99 193 162 191 225 162 217 245 239 227 221 212 191 179 229 189 187 196 145  92 101 114  88 113  94  88  96 175 190 211 222 207 192 184 186 200 212 205 181 172 151 144 126 127 134 137 135 129 123 128 136 149 167 192 210 219 206 189 194 210 214 221 228 237 242 248 250 232 201 140 228 226 167 157 157 151 174 231 196 177 140 133 125 121 114
 184 179 175 170 163 145 122  95 119 199 190 222 163 217 246 243 235 225 218 211 222 212 220 186 157 167 145 147 126 133 122 125 142 155 179 193 216 218 199 187 178 183 204 215 214 194 174 163 145 143 132 137 146 157 155 152 151 156 168 186 206 216 205 204 204 202 213 216 222 230 240 245 249 252 238 209 161 213 233 223 152 145 144 179 226 212 148 140 134 129 123 116
 177 175 173 170 162 147 124  90  59 167 221 215 162 213 245 241 235 230 224 222 225 228 200 199 171 166 171 161 159 142 146 147 147 164 178 207 226 217 197 179 172 182 211 218 219 205 189 176 158 142 135 131 141 151 161 162 162 170 180 192 202 202 205 205 203 206 214 220 223 228 239 242 247 250 240 220 173 211 223 243 160 141 144 191 215 215 154 148 138 132 126 121
 170 171 172 168 163 146 124  90  56  85 227 223 149 226 244 237 234 235 229 228 228 226 218 209 192 181 175 174 165 158 151 148 162 171 192 217 224 220 194 178 176 188 218 222 225 215 204 188 173 161 148 147 145 147 153 159 166 173 178 189 197 198 204 205 209 206 214 217 225 229 236 246 248 248 241 227 180 216 216 235 158 130 151 205 195 202 161 150 142 136 128 123
 171 170 170 168 161 145 121  86  55  33 198 203 154 218 246 239 235 234 228 228 226 224 219 211 199 189 182 175 166 167 165 171 176 190 208 223 230 224 199 178 177 191 218 224 225 218 208 199 188 179 165 159 154 156 161 165 169 176 179 186 192 194 200 202 204 207 212 214 221 228 236 245 249 246 245 219 205 212 208 228 149 138 168 227 201 193 159 152 144 139 132 126
 178 175 176 173 164 144 119  84  52  43 142 211 186 213 246 244 237 233 231 229 226 222 220 215 209 202 195 189 178 179 178 186 189 205 215 226 231 223 200 181 178 195 218 227 228 221 218 209 200 188 176 167 157 159 161 164 168 173 179 186 191 193 199 202 205 208 209 213 220 230 240 248 249 250 248 218 224 203 220 207 131 157 214 193 217 180 160 155 149 143 137 129
 186 182 183 178 165 146 119  83  54  39 122 216 208 209 243 243 239 233 233 229 226 222 219 214 211 208 203 198 187 186 188 195 206 217 223 228 232 225 202 183 180 198 221 225 232 225 220 213 204 193 182 174 164 161 163 164 167 172 180 183 186 189 196 199 203 207 210 214 225 230 242 249 247 253 245 227 225 204 219 162 188 212 202 173 230 171 162 158 151 146 140 136
 194 192 189 183 168 145 113  79  51  41 109 229 197 209 244 243 238 234 231 226 224 223 219 217 211 205 203 195 194 190 196 206 215 222 229 233 232 223 202 184 180 198 216 229 231 226 220 216 206 193 182 174 173 164 162 163 166 171 177 183 186 191 198 199 203 207 214 219 224 230 238 245 250 249 247 232 227 222 176 154 199 231 170 185 220 172 163 153 151 148 142 138
 203 197 195 187 170 146 111  77  48  47 101 234 208 212 245 241 239 233 231 225 225 223 218 215 212 209 203 195 193 195 202 210 219 227 232 233 229 222 202 182 185 198 213 225 227 227 222 217 205 193 182 174 172 173 164 166 168 170 179 183 184 191 197 202 203 205 213 217 222 231 241 244 244 251 244 223 222 235 190 190 213 239 211 226 202 169 159 158 153 150 146 142
 208 201 198 188 170 143 107  74  47  55  96 226 224 218 241 239 237 232 230 226 221 221 219 217 211 208 201 199 197 202 207 211 219 227 232 230 223 214 195 182 178 190 207 218 225 230 227 221 205 195 180 172 168 172 170 169 169 170 178 183 184 191 194 202 204 206 215 219 223 228 244 246 245 246 243 211 233 228 223 219 229 237 219 239 183 170 163 157 157 153 150 147
 212 201 197 185 167 141 105  73  47  58  86 219 229 207 231 241 237 231 229 225 224 222 217 214 210 206 204 204 201 206 209 213 222 230 233 227 219 207 188 177 178 184 200 217 229 235 225 217 200 190 184 178 167 170 168 173 173 172 176 181 186 192 192 202 203 210 215 220 227 233 242 244 245 243 244 207 220 217 206 223 225 223 208 242 173 174 170 155 157 155 152 149
 213 206 197 183 161 134 102  70  54  62  85 223 241 222 232 237 233 230 225 224 223 221 216 213 209 207 206 204 208 205 208 214 214 219 232 224 212 200 184 176 179 184 204 218 234 240 232 219 199 174 177 178 170 170 169 175 179 176 182 181 186 191 200 202 205 210 214 220 223 230 238 243 245 241 225 204 223 231 210 203 203 218 214 227 182 172 166 164 160 160 157 156
 215 206 198 183 157 130 102  74  58  66 102 230 239 225 225 235 233 230 224 221 221 220 216 214 210 207 208 206 208 208 209 209 207 229 237 221 209 194 178 173 176 188 210 223 234 238 225 219 207 169 163 174 173 171 171 176 182 180 187 185 188 193 199 203 204 212 215 219 225 226 231 241 240 246 229 190 208 240 222 191 193 205 225 212 180 175 172 168 166 165 164 163
 210 204 195 180 155 129 104  79  63  75 132 242 231 218 214 240 230 228 224 220 220 218 217 215 212 211 211 209 208 208 204 194 213 241 234 225 211 194 176 168 174 189 214 230 232 234 228 224 219 176 150 163 168 176 178 179 182 187 188 191 194 193 200 201 203 208 211 218 219 227 233 238 247 242 221 194 203 233 233 209 198 211 226 186 186 180 176 172 173 173 172 171
 206 199 191 175 156 134 108  83  70  76 118 227 229 211 197 238 231 227 224 221 220 216 215 215 214 212 212 212 211 205 198 190 235 241 237 226 210 195 174 170 173 187 210 233 234 231 224 228 229 197 147 155 166 175 180 181 182 192 191 194 196 194 200 202 203 203 206 215 214 219 232 234 240 238 222 199 204 212 226 223 222 215 203 197 189 183 184 181 181 180 181 181
 196 192 185 173 157 137 108  86  77  85  97 210 225 219 197 235 231 227 225 219 219 216 215 214 218 217 215 213 207 199 191 207 236 228 232 227 214 195 179 174 175 189 210 225 230 234 235 235 228 220 151 158 167 172 179 183 186 192 197 199 199 203 205 208 210 208 212 213 218 218 227 234 239 233 223 208 201 178 189 199 207 202 197 195 191 188 187 185 185 186 187 187
 179 178 173 162 147 131 104  88  85  88 102 149 227 224 192 223 231 228 224 218 217 215 215 217 220 219 216 212 208 195 189 210 217 217 220 213 204 196 176 176 179 186 203 220 219 222 231 222 217 218 148 160 168 172 179 183 187 194 198 201 204 210 211 212 213 208 212 221 210 217 224 228 236 230 213 207 200 188 183 192 191 189 190 190 188 183 183 181 181 181 183 185
 147 147 145 139 129 111  93  84  81  87  97 100 164 211 185 221 231 226 222 217 216 216 216 219 222 221 215 210 204 190 193 201 201 150 149 202 200 186 175 170 172 182 197 206 201 155 137 166 208 185 155 166 168 172 176 181 187 193 198 203 206 210 215 215 210 209 209 217 204 208 222 229 232 224 224 222 196 187 184 181 182 181 181 181 177 173 173 170 170 172 174 180
 107 110 112 111 106  87  77  73  72  76  81  91  99 114 160 203 227 227 220 219 219 215 218 226 223 220 215 207 204 191 202 205 198 157 136 144 190 172 155 162 167 183 203 185 141 133 138 159 183 153 168 169 172 175 174 179 186 194 200 206 210 214 217 219 219 208 212 212 208 211 222 222 222 222 221 219 187 163 161 161 160 160 162 163 161 158 154 154 154 156 161 165
  68  71  72  73  71  63  59  61  59  59  62  70  75  84 141 205 223 225 219 219 216 219 224 228 224 222 216 208 200 199 209 208 204 201 193 195 197 189 171 153 160 186 183 180 187 198 186 168 163 173 174 175 176 178 174 178 187 194 200 207 210 211 219 224 219 213 211 210 208 191 197 216 223 224 229 225 178 128 125 128 124 126 128 130 128 127 122 118 119 128 142 147
  37  38  40  42  41  43  44  45  40  42  46  47  47  46 108 202 216 222 215 214 213 220 224 222 226 223 217 210 200 209 211 207 208 207 212 192 180 163 168 162 148 152 151 162 163 172 179 183 180 173 178 179 178 180 176 178 186 193 200 208 211 214 218 220 222 217 210 207 207 193 200 209 228 226 227 218 170  82  81  79  79  81  85  86  88  86  85  86  94 109 123 131
  38  37  37  38  38  36  35  36  35  35  36  35  35  36  88 198 210 221 208 206 209 216 226 229 226 223 216 210 203 216 213 210 207 205 187 144 148 139 145 148 150 158 147 138 136 136 142 155 177 176 178 179 181 183 182 179 186 193 200 211 212 217 224 225 222 217 207 202 203 173 177 204 218 220 232 215 157  47  55  52  55  56  57  59  59  60  61  68  87 108 121 121
  37  35  35  35  35  38  36  34  34  37  37  38  38  34 122 191 215 212 199 207 206 222 226 232 223 222 217 209 216 216 216 207 209 198 154 139 136 114 123 117 133 132 121 115 107 103 104 133 162 173 173 180 184 188 187 186 189 190 202 203 208 216 221 225 222 222 200 194 191 196 181 217 212 204 231 227 157  39  36  35  39  36  35  37  37  40  41  58  88 107 132 125
  32  32  32  32  32  33  32  31  31  34  34  34  36  29  89 200 207 199 185 202 210 217 224 224 225 222 217 216 221 218 214 207 202 165 142 133 130 121 104 113 127 121 124 112  99  99 103 127 132 144 161 175 182 183 187 191 196 198 201 205 209 213 221 222 220 218 196 195 181 180 191 192 209 212 221 219 137  44  28  34  31  32  34  35  30  30  32  54  89 111 138 134
  32  32  32  32  31  32  32  32  32  31  33  33  33  33  86 195 210 194 186 194 198 213 224 222 222 221 220 221 220 216 209 180 178 154 149 135 126 123 108 115 125 111 110 110 104 113 111 113 110 120 135 158 156 177 183 192 198 204 200 205 211 215 212 216 216 214 190 172 173 170 190 207 218 216 232 223 109  40  31  39  42  50  57  57  48  38  33  54  92 109 135 138
  28  27  28  28  28  28  28  27  29  29  30  29  27  32  60 187 205 170 168 171 204 217 226 219 224 225 219 217 208 198 184 168 147 143 149 150 139 119 103 103 116 120 114 124 128 120 109 101 116 129 126 147 142 137 152 175 192 206 204 205 211 217 223 203 214 195 188 153 151 173 170 195 212 210 226 213 114  55  55  56  67  76  79  75  71  60  49  61  91 106 132 136
  26  24  25  25  24  26  26  27  26  27  26  28  29  33  28 164 205 174 194 171 182 207 224 224 221 218 222 210 199 179 165 151 155 155 161 154 151 135 107  97 111 119 134 135 140 138 133 144 139 131 137 132 132 130 146 149 179 196 204 205 210 212 220 216 208 215 190 171 141 156 176 181 208 219 223 213 115  74  81  83  85  93  99  98  92  82  68  65  87 100 122 127
  26  24  25  25  24  26  26  27  26  26  26  26  27  22  38 151 216 193 180 165 178 199 220 221 223 222 217 188 159 163 150 160 176 185 191 185 180 176 145 134 124 139 163 166 171 170 167 168 164 173 156 149 131 131 130 142 154 182 208 217 215 215 219 223 214 213 197 186 180 170 178 192 194 215 214 179 106  96  95  99  96 104 111 115 105  97  89  73  87  94 111 119
  26  25  25  25  24  26  26  27  26  26  26  25  24  26  27 103 199 203 190 179 157 189 211 223 224 218 195 141 152 142 166 183 212 207 193 177 169 172 169 169 167 170 155 155 154 154 154 170 179 181 187 179 153 142 139 138 134 155 196 213 213 217 218 221 207 208 197 171 170 170 175 192 211 203 201 164 105 107 103 107 102 104 109 115 108 105 100  86  91  92 105 108
  25  25  24  25  22  24  25  27  26  26  26  26  23  26  28  64 174 182 177 163 149 190 212 220 225 207 181 147 153 172 182 207 188 170 153 149 156 153 157 150 141 143 143 144 147 147 145 145 146 146 159 166 160 153 151 140 140 157 194 208 211 211 224 212 206 203 198 178 170 169 172 180 197 198 200 130 106 110 106 104  97  96  96 103 104 104 101  96  94  93 102  99
  25  24  25  24  25  25  26  26  26  27  26  27  27  23  25  39 130 168 168 143 150 180 201 232 216 207 154 154 161 167 184 174 154 134 130 134 137 138 133 134 131 136 143 136 128 106  96  98 106 103 106 110 109  99 129 144 157 159 188 203 209 217 224 220 199 184 191 176 175 162 164 188 188 211 155 114 112 114 109 110  94  91  87  92  97 101 104 105 104  99  98  92
  24  26  24  25  25  25  25  26  26  27  26  27  25  26  26  26  89 159 152 151 148 177 206 224 218 210 179 163 154 128 111 105  97  92  76  72  62  63  66  66  63  70  70  67  68  80  89  98 110 111 112  89 105 124 129 149 152 166 191 203 204 213 224 216 205 186 175 163 160 184 180 169 189 188 126 107 111 110 108 111  96  90  83  79  87  94 106 114 114 105  92  77
  26  25  26  24  26  25  25  26  26  27  26  27  21  26  26  22  51 119 153 171 177 161 201 225 223 206 194 166 157 149 151 147 142 156 168 165 170 143 125 117 118 118 126 124 125 131 138 141 146 145 143 157 168 167 161 164 160 165 183 198 204 209 226 219 194 185 182 176 165 176 191 192 177 153 109  99 101 101 105 103  90  85  79  66  73  85 103 112 117 109  84  63
  28  28  24  26  26  23  24  26  26  25  25  25  24  24  25  27  29  76 143 180 195 170 183 207 215 202 187 177 174 185 200 204 206 198 183 192 186 162 146 140 137 143 147 140 137 143 151 152 159 168 189 189 184 179 179 175 171 176 186 192 208 217 220 224 206 194 188 177 167 164 170 198 172 138  91  85  86  89  90  88  83  77  70  56  61  71  94 104 104 100  77  54
  30  28  27  25  27  24  25  24  26  25  27  24  25  26  26  25  29  27 118 181 202 199 146 183 215 200 192 189 188 197 207 211 214 212 204 193 184 164 154 147 141 144 147 144 141 147 152 171 186 193 195 193 189 187 190 185 180 185 194 196 208 214 224 229 211 192 196 192 173 157 150 184 201 123  78  74  67  69  68  72  67  63  51  47  51  57  78  89  89  82  61  49
  34  31  30  28  29  28  28  27  26  25  26  24  25  26  23  25  24  28  47 141 211 187 177 191 214 214 203 196 200 205 210 210 209 206 201 193 183 172 168 154 150 148 149 150 153 161 170 181 187 191 193 188 188 192 197 195 191 191 199 197 207 219 218 215 206 202 200 190 188 171 156 209 210  98  66  52  49  47  49  52  53  47  40  43  43  44  56  69  73  64  48  44
  36  36  35  33  32  32  32  31  30  30  27  29  28  25  24  24  26  25  28  93 145 200 166 197 217 210 208 205 203 209 214 210 208 202 198 191 177 168 158 155 154 152 151 156 162 166 174 175 190 185 187 187 190 193 196 199 200 196 200 202 209 215 216 209 200 205 206 198 192 163 175 236 198  68  56  46  41  43  43  41  39  34  37  35  36  35  37  42  43  41  39  40
  36  34  36  36  36  36  35  33  31  30  33  31  30  28  27  25  26  25  22  38  95 187 185 194 209 213 205 208 206 205 206 203 201 199 196 188 176 167 156 140 144 143 147 158 155 164 166 175 176 177 180 185 188 190 194 200 201 197 199 201 210 220 215 208 195 193 204 202 188 158 210 240 182  66  57  42  43  47  46  42  39  34  35  33  36  37  37  39  39  39  37  38
  37  36  35  36  35  36  36  36  34  32  32  29  29  29  27  26  27  23  30  22  45  88 187 200 210 221 210 208 209 205 204 202 198 193 193 179 169 159 147 138 136 129 133 154 159 163 168 173 176 178 178 181 187 192 194 195 194 194 202 204 210 217 220 218 212 188 192 165 139 182 226 244 173  60  51  39  41  43  42  39  38  34  35  34  36  36  38  38  38  37  37  37
  36  36  36  35  35  38  36  36  33  34  32  30  31  31  27  26  25  25  24  25  21  66 106 194 202 219 212 206 209 203 201 200 203 199 190 182 174 169 157 141 135 130 139 143 160 161 168 170 171 174 181 182 185 188 193 188 191 203 201 208 207 204 208 194 196 190 192 143 165 199 231 247 149  44  38  37  38  39  37  37  35  31  32  32  32  34  35  35  34  32  32  33
  36  35  35  35  34  36  35  34  33  32  33  33  33  30  29  25  25  24  26  25  25  26  45 137 198 212 212 207 209 203 203 202 200 196 191 181 174 167 152 149 141 136 146 153 162 165 173 170 168 174 178 185 189 191 190 189 185 194 203 203 205 211 206 180 187 164 154 147 165 204 235 249 146  40  34  35  36  36  36  34  32  28  30  31  30  30  32  32  33  32  32  32
  39  37  37  37  37  37  38  36  33  34  32  33  31  31  29  26  25  27  25  27  24  22  27  76 144 195 204 216 215 209 211 206 202 197 189 185 175 165 161 156 151 146 146 155 162 166 173 169 174 176 178 184 191 194 194 191 190 188 202 209 210 191 190 190 161 140 115 155 185 209 237 244 158  48  32  32  33  32  31  30  31  31  30  32  33  34  33  33  35  36  36  33
  38  39  39  40  38  40  39  38  35  34  32  33  32  31  30  28  26  26  25  26  27  23  24  41 119 159 208 202 209 213 211 209 206 197 192 187 178 171 172 167 162 159 158 163 166 169 171 173 174 172 179 185 191 195 195 196 194 189 189 192 203 205 180 152 129 140 130 169 203 218 236 246 143  74  43  42  45  43  42  42  40  40  40  40  42  43  44  45  46  47  46  43
  40  40  40  40  40  39  39  37  34  34  32  33  32  31  30  27  25  25  26  23  29  23  24  30 108 157 136 207 211 214 212 216 210 201 196 195 186 179 177 170 166 163 164 161 163 168 170 173 172 176 182 185 192 198 194 196 193 181 166 191 200 187 159 132 114 128 149 173 195 223 234 248 122  87  47  49  50  50  50  50  46  46  45  46  50  50  53  57  63  67  66  62
  40  41  40  39  39  36  37  36  32  33  32  32  31  29  28  27  27  25  24  25  25  22  22  62 110 189 139 152 198 190 217 215 212 209 205 201 194 183 174 171 168 166 167 164 168 165 166 169 169 179 187 193 192 200 195 190 184 178 156 171 163 162 135 116 103 135 150 170 192 223 228 252 120  77  86  40  46  43  47  45  48  47  48  49  50  53  59  65  76  83  83  80
  40  40  41  39  38  37  36  35  32  34  33  32  31  32  30  27  22  23  25  23  23  20  42  67  80 195 153 123 165 187 211 218 213 208 206 200 196 180 174 173 167 166 165 165 169 159 164 166 169 173 186 191 202 195 196 201 199 193 163 142 151 105 121 130 142 135 145 176 200 224 231 249 122  63 121  76  52  48  46  47  48  49  51  51  54  56  61  70  79  88  90  87
  40  39  38  39  37  33  34  33  31  34  32  31  29  28  28  26  26  25  22  28  36  60  76  49  53 207 176 161 131 178 213 211 210 206 200 202 184 178 166 164 161 162 163 161 169 164 160 143 152 164 178 175 196 204 202 193 185 158 126 135 123 121  98 140 130 134 160 180 210 224 230 248 136  51 108 120  72  49  57  56  58  59  59  60  58  58  67  76  82  89  92  89
  39  37  38  37  35  36  35  34  33  33  31  29  30  27  25  25  29  40  51  66  80  74  70  25  32 215 198 180 140 156 202 186 190 191 193 182 179 170 164 159 155 154 156 159 153 140 136 137 141 136 144 146 166 174 173 168 170 143 133 127 119 137 121 134 127 155 185 195 213 225 230 246 146  45  96 117 102  56  59  78  80  79  76  74  74  72  74  80  83  88  90  93
  39  41  39  37  37  32  33  32  29  31  27  27  29  32  41  54  75  77  81  84  65  67  49  15  21 192 219 203 174 138 148 183 163 150 183 164 166 159 160 151 142 138 135 152 126 104 118 129 126 133 120 138 145 160 148 162 131 139 121 126 137 134 138 148 125 167 191 208 215 229 223 245 151  37  84 126 100  79  37  61  78  99  87  85  78  74  80  75  77  79  80  81
  37  37  37  35  32  33  29  29  31  31  38  49  61  71  81  85  78  77  86  84  47  73  32   6  10 180 222 209 186 155 124 147 121 113 163 161 148 139 145 138 133 112 119 126 124 113 125 121 105 124 118 124 135 151 147 117 135 135 126 141 128 132 149 148 148 185 202 214 221 225 226 247 129  35  80 125  92  75  50  40  59  89 107  88  99  87  78  75  78  78  81  81
  35  35  32  31  29  27  33  46  54  68  78  80  82  79  76  75  72  70  80  61  38  68  18   9  15 186 230 216 188 175 164 121 111 104 112 124 113 122 142 136 122  99 106  86  98 107 108 122 111 116 111 106 138 114 119 145 126 141 142 122 142 120 154 165 183 200 209 218 223 223 224 243  92  39  76 118  98  66  47  36  50  65  96  84  64  79  83  80  76  77  79  81
  27  29  30  39  49  60  72  78  78  80  77  72  71  73  74  69  66  70  76  34  59  50  19   8  18 187 232 221 210 193 165 170 116  82  73  99 110 110 103 110  98  85  89  86  91  96  95 111  89  87  87  80  97 141 162 154 138 156 124 128 141 146 159 179 200 206 211 217 224 221 230 228  48  44  74 108  94  63  42  24  41  55  83  90  54  47  55  58  65  72  81  84
  41  53  62  75  79  78  77  75  73  71  71  69  69  70  69  62  62  66  63  20  76  36  10  10  20 184 237 229 220 209 197 193 185 128 101  85  75  76  85  80  78  62  78  75  71  81  86  79  65  79  87  82 136 165 170 165 160 150 132 147 152 158 175 190 197 203 214 217 221 229 221 208  29  50  72  98  92  61  35  23  36  44  73  91  58  48  47  51  50  58  54  66
  78  77  79  78  73  73  72  70  68  70  71  66  68  66  59  56  56  68  42  32  82  24   9  16  22 182 236 229 222 217 212 204 205 196 179 170 112  79  91  54  80  95  79  68  81  83  77 114 101 128 153 161 165 168 175 166 157 156 157 161 176 178 186 193 199 210 213 216 220 226 224 139  21  52  73  92  88  57  31  20  31  34  59  90  55  56  56  54  52  50  49  50
  78  76  77  74  70  68  64  65  72  75  73  65  68  62  49  47  52  65  21  39  73  22   6  13  26 181 236 231 225 222 217 208 208 201 205 194 185 170 169 143 153 147 148 156 158 156 160 157 169 177 167 158 167 175 173 172 176 168 172 174 187 184 190 195 202 211 214 222 223 221 182  53  33  55  73  91  83  53  30  21  29  22  57  89  58  26  32  54  69  68  65  64
