P2
# Generated by OpenCV 4.2.0
92 112
255
  43  42  45  43  54  63  68  69  73  69  71  82  98 108 111 115 111 112 114 110  91  70  72  62  78  87  96 100  97 108 111 106 117 104 117 107 104  76  83  70 116 100 114 141 134 142 126 128 150 146 152 130 120  94 100  92  70  73  79  74  46  39  35  33  38  43  46  53  63  69  73  84  86  88  86  84  73  68  58  51  52  51  45  42  40  43  40  50  52  52  51  54
  42  43  46  47  53  57  59  60  60  63  73  92 112 115 116 117 117 119 117 109 103  74  70  70  74  71  81  90 105 111 103  96  89 109 118  98  92  93  79  81  98  93  75  88 104 110  98  64 118 126 124 129 138 139 131 112 104  90  62  58  71  61  41  39  38  44  46  49  62  69  70  71  72  75  74  75  78  69  57  53  50  51  44  39  40  36  40  43  48  50  54  56
  44  46  44  49  54  60  58  58  63  67  75  94 108 111 117 117 117 124 120 113 101  79  64  77  69  76  92  99  82  84  78  60  88 103  96 103 125 122 107 103 108 136  96 102 114 116  75 150  62  86 112 111 119  98 125 133 125 115 146 125 131 109  75  51  43  41  42  50  63  69  68  72  68  70  71  72  71  62  52  48  51  46  45  44  42  38  36  40  47  50  47  56
  45  47  42  48  50  55  62  62  62  65  76  82 102 115 118 118 120 122 117 104  89  77  77  93  75  98  91  79  77  69  67  83  97  81  92 109 104 110 125 131 106  89 125  75 104  73  52 108  80  62 122 109 108 125 110  94 100 102  99 108 128 121 103  94  75  50  42  46  54  65  66  66  65  65  64  70  65  50  52  51  50  48  44  42  38  42  40  40  42  46  53  52
  50  49  46  46  50  50  54  57  57  61  64  70  87 100 105 111 112 119 110  93  84  79  80  87  89  76  86  73  49  84  83  72  76  79  87  87  94 100  72  88 119 113  66  81  87  61  77  84  87  83  57 107 127 127 105 102 108 103 117 101 103 103 108  73  71  76  60  45  42  55  64  65  64  63  61  53  55  51  45  47  44  41  43  40  41  40  44  43  48  48  52  58
  51  52  52  52  51  50  51  50  50  50  64  69  78  88  98 103 102  99 101  92  79  66  66  82  94  98  84  75  92  79  78  87  66  65  52  60  67  75  66  84  57  49  77  85  89  66  92 111 115  59 119 137 133 116 132 115 120 131  86 110  93  72  86  94  83  69  71  63  47  43  53  56  55  51  46  47  43  44  43  43  41  44  39  40  38  41  40  44  46  53  54  56
  57  59  59  59  61  55  54  52  52  48  74  85  76  73  85  88  99  84  85  77  61  64  83  98 112  98 114  91  71  88  95  77  65  63  79  73  70  64  70  49  74 103  75  66  71  57  78 100 103  48 100 124 120 125 116 100 135 100  95  94  90 101  83  74  91  86  67  62  55  48  49  52  52  47  44  60  41  42  42  43  42  38  38  36  41  42  39  41  48  52  53  57
  64  67  67  67  64  65  60  55  48  46  74  59  60  78  74  74  68  93  96  93  96  77  71  71  72  82  88  85  88  82  85  58  66  84  72  88  76  59  74  82  75  51  99 138 140 103  77 109  92  84  97 121 109 113 115 112  91 125 133 117  89 112 109 104  64  75  91  85  70  68  44  51  58  58  46  50  41  42  40  41  39  40  37  39  39  39  42  41  49  53  56  57
  72  74  70  69  70  71  72  72  66  65  76  59  70  56  79  77  83  85  89  98  84  88  90  90 111  98  74  69  83  83  80  74  45  49  62 102  67  68  57  52  42  54  51  62  53  73 121 114 104  85  83  84  76  76  86  75  61  31  40  69  78  70  82  85  80  89  96  69  80  60  58  51  55  51  52  52  50  60  41  44  39  38  42  35  37  38  42  39  46  51  53  59
  75  70  76  73  69  70  73  62  65  82  80 106  62  68  81  64  82  96  99 107  97  97  99  61  51  44  46  46  34  37  29  32  50  53  64  90  84  95  86 100 105 102  95  82  74 107 141 146 122 136 143 130 120 112 113 131 114  98  61  67  64  74  47  46  64  76  89 101  92  78  60  54  48  55  50  53  49  55  43  44  44  43  42  39  42  39  37  42  48  55  59  62
  75  73  77  76  75  79  75  63  61  69  89  94  84  76  81  84  84  97  93 103  90  47  37  31  32  32  20  21  32  35  36  58  81  80  68  64  84  73  64  59  71  60  82 101  90 100  84  71  70 118 113 100 133 143 135 108  61  66  89  78  83  79  68  48  43  61  69  93  94 100  91  54  53  54  63  57  53  54  44  45  46  44  38  36  36  36  38  43  42  53  57  60
  78  73  78  79  76  76  71  60  61  64  90  78  76  86  80  74  61  62  76  49  45  52  33  46  28  37  42  42  47  72  85  66  66  57  77  82  63  57  51  51  50  61  69  58  94  98  78 138 116  83  39  76  68  93 103  93 123 144 103  62  45  39  38  59  60  43  39  52  63  72  77  96  82  65  64  82  54  54  53  46  50  49  45  37  37  36  41  44  43  46  50  56
  70  79  78  77  75  67  64  60  65  78  76  76  84  67  61  73  78  68  41  64  45  42  35  50  58  53  75  78  83  66  54  45  31  44  36  30  36  31  44  41  44  38  42  55  63  74 103  99 101 114 127 109  57  54 107 136  94  76 110 108 105 101  97  75  62  48  48  49  43  62  92  81  68  70  69  61  69  59  54  50  48  49  42  40  37  41  43  48  45  46  49  49
  66  70  71  69  67  60  61  56  64  80  83  88  61  56  66  84  92  48  66  85  55  33  22  49  63  81  65  53  39  35  42  48  40  31  32  28  34  44  53  42  40  34  47  38  56  58  68  78  82 101 116 106  95 101  44  70 128  98  73  85  73  77  78  69  81  63  43  35  27  46  76  79  99  58  52  69  83  56  55  50  53  51  45  40  38  38  44  45  48  47  49  51
  61  59  55  60  58  57  59  63  65  78  81  68  55  73  87  74  32  63  57  70  32  60  50  76  55  42  28  46  46  53  49  55  65  44  36  50  50  41  51  48  35  48  52  38  30  41  46  48  67  80  81 113 135 116  80  78  64 108  94  40  76  76  52  92  65  50  56  48  35  31  65  74  97  92  82  39  73  65  52  50  50  50  40  43  37  37  44  46  48  49  49  51
  54  52  52  49  53  54  58  58  58  78  70  44  71  74  80  58  53  44  37  60  52  33  39  39  41  38  43  36  45  51  52  44  32  51  44  39  58  63  57  57  42  40  54  48  44  43  34  60  43  63  64  85  84  87 120  92  66  74  92  91  69  65  69  53  59  76  55  57  58  38  45 108  95  74  73  77  40  68  83  48  58  43  38  40  40  38  42  46  50  50  49  52
  48  48  49  51  51  51  52  50  51  74  61  72  73  80  47  60  25  53  37  76  30  19  23  31  25  47  53  55  61  44  27  37  57  60  58  67  57  52  44  58  59  48  37  39  47  50  39  20  78  80  71  60 110  81  93 104  90  75  93  91  70  76  68  71  70  77  52  47  53  50  47  53  85  58  55  47  47  60  85  67  55  46  40  41  42  39  39  43  45  48  47  50
  49  49  55  58  51  52  55  47  51  66  45  62  95  51  50  40  44  56  48  30  36  40  34  32  34  48  41  33  17  42  33  36  50  51  56  34  40  57  56  42  48  48  58  45  56  59  33  25  19  71  80  68  71  91  70  92 121  79  86 100  91  42  50  65  69  39  59  59  57  50  50  54  66  72  66  51  53  57  64  83  70  45  52  41  36  57  45  40  40  39  42  45
  50  54  52  52  51  51  50  54  56  70  64  68  44  51  64  29  45  50  41  45  39  39  28  37  29  18  28  35  43  36  36  40  56  40  25  44  45  44  37  54  47  57  48  75  45  38  37  60  40  30  78  69  71 118  88  75  91 109  42  48  49  90  46  62  55  75  58  30  31  18  19  28  11  85  68  85  56  63  55  81  84  69  62  40  38  39  36  37  39  36  43  45
  57  55  54  55  51  52  52  54  54  58  78  39  38  41  53  54  56  47  48  38  35  29  28  33  30  30  28  23  28  25  36  35  35  37  33  40  47  49  50  63  42  69  66  41  34  27  20  24  21  34  64  81  85  93 101 111  92 102 108  50  40  43  47  55  53  40  51  70  41  33  30  20  22  77 105  68  61  62  77  73  65  33  43  56  52  36  37  37  42  40  44  44
  57  57  54  55  51  50  52  54  51  71  52  49  51  48  48  43  52  51  37  30  21  23  27  30  33  27  38  35  25  26  27  24  22  28  36  34  50  56  59  45  61  63  61  48  31  23  47  36  25  20  28  39  74  54  78  64  81  75  63 111  56  45  35  44  46  60  34  42  59  60  42  59  36  46  84  46  38  30  54  49  54  78  71  56  56  52  41  36  41  42  42  45
  57  58  56  57  57  55  52  52  62  78  33  44  29  45  58  56  58  45  40  40  33  40  29  31  34  34  36  33  26  21  25  25  27  31  40  55  66  61  47  57  52  61  51  38  39  27  55  40  47  50  43  44  67  74  76  89  85  69  64  45 108  66  44  58  41  42  43  40  43  44  39  41  33  20  69  47  54  45  60  52  97  61  54  36  50  42  40  39  39  43  44  48
  63  68  66  64  60  63  67  77  69  71  40  22  56  57  56  59  42  35  36  23  35  34  44  32  23  26  14  25  18  22  31  28  26  49  62  58  60  59  65  53  49  40  37  35  27  26  44  23  43  51  38  43  45  62  63  85  93 112  64  40  54  55  55  50  62  46  38  38  47  28  35  11  42  34  51  44  61  81  45  75  42  85  68  52  42  33  39  40  39  42  47  43
  71  68  67  67  68  76  59  61  68  56  48  66  50  50  45  36  32  27  30  32  38  46  46  51  55  40  46  36  33  53  52  36  52  49  53  66  65  49  56  47  33  49  41  40  34  38  57  41  30  40  28  28  29  39  56  49  68  29  66 104 118  81  40  75  52  73  37  56  57  42  29  20  59  50  44  56  57  69  42  70  42  52  77  80  45  39  39  40  38  43  48  47
  72  68  66  65  64  71  59  55  64  40  44  38  61  32  25  36  38  40  49  43  45  46  46  47  48  50  42  49  52  57  53  60  53  56  58  46  52  53  34  42  49  45  40  47  47  31  37  50  24  26  27  27  31  32  23  46  48  78  73  52  70 121 137 118 103  45  54  79  57  40  19  95  62  41  46  65  49  61  99  90  64  25  49  78  76  42  36  39  40  42  42  50
  79  74  73  68  67  67  57  55  70  40  49  56  47  51  49  51  52  44  32  40  33  45  37  43  48  39  47  54  50  46  60  54  57  57  38  42  47  43  44  43  44  52  41  42  41  34  31  88  43  42  36  23  51  31  55  36  35  47  68  64  52  61  71  81  87  85  75  83  72  70  87  76  53  28  65  53  80  96  99  82  52  35  35  85  86  62  42  41  40  41  40  48
  84  80  75  72  71  66  54  56  61  47  69  41  42  53  45  34  38  22  38  36  34  24  31  40  37  38  45  52  34  54  44  54  49  35  35  53  48  42  43  53  53  54  53  60  54  62  59  59  64  53  40  41  50  56  38  54  45  58  41  29  55  65  63  53  47  29  44  90  95  44  51  54  71  70  73  61  69 114  68  38  32  44  37  62  82  83  52  43  39  42  44  49
  95  88  81  76  72  67  62  75  70  74  61  76  74  44  36  32  24  24  32  27  36  35  52  42  30  42  48  37  38  39  38  45  32  32  46  40  41  57  48  40  53  51  45  46  44  41  37  42  70  66  64  75  81  76  70  58  58  60  58  63  52  39  57  31  13  12  39  36  62  57  49  73  83  89  49  79  75  49  40  17  53  46  47  80  86  79  81  37  43  43  44  50
 102 100  92  78  74  68  71  71  54  59  67  64  52  52  39  29  72  26  42  47  46  41  41  43  57  39  32  32  40  36  30  29  32  51  49  45  36  51  57  60  40  37  45  37  30  38  57  73  52  51  52  43  62  81  70  74  66  58  58  52  63  66  50  20  44  88  44  43  58  35  74  84  36  46  73  71  58  49  41  42  61  37  46  80  80  83  58  39  43  44  41  48
 102 100  96  91  73  69  75  78  64  45  51  67  56  50  54  37  36  51  42  36  30  30  34  42  37  36  34  35  32  42  43  48  43  50  38  43  47  57  53  54  53  46  42  45  49  51  34  33  34  38  39  55  58  59  79  71  70  57  56  49  73  46  53  68  60  83  69  43  36  47  47  49  69  66  59  48  70  49  61  57  56  46  53  84  90  62  74  46  47  47  48  49
  95  95  95  92  80  78  71  70  68  48  31  80  67  60  73  36  41  35  51  35  38  35  30  33  33  32  27  34  33  24  38  58  61  56  60  53  57  54  55  54  57  58  59  52  50  44  53  44  55  62  46  47  64  93 106 137  90  71  69  62  35  52  66  59  48  51  55  58  31  30  35  34  50  55  55  57  45  41  41  56  55  52  46  70  87  70  90  62  58  45  48  43
  96  94  90  92  81  69  74  69  53  45  51  72  51  66  57  68  35  28  39  52  50  28  31  30  28  28  33  32  33  37  40  43  38  40  49  54  57  59  56  54  49  42  52  66  69  64  50  53  54  62  77  68  87 104 125  92  75  84  82  62  71  49  54  38  40  63  52  22  32  25  50  46  61  63  50  59  37  41  33  50  49  60  57  86  69  91 102  37  48  52  45  48
  94  91  94  92  86  79  85  65  71  49  55  54  65  46  46  54  57  52  24  46  51  58  27  19  15  15  22  23  35  31  48  50  36  55  50  40  40  54  56  55  51  54  43  44  51  62  70  82  88  94  82 118 115  87  62 107 137 115  89  68  64  59  58  43  59 102  55  73  11  32  58  63  36  49  83  55  52  43  42  60  57  50  74  77  73  85  92  44  44  49  64  50
  89  89  93  87  87  89  93  56  57  44  63  60  52  56  40  26  45  54  65  43  37  79  72  71  30  37  33  36  30  45  62  42  34  41  61  58  56  56  59  55  57  52  67  72  77  91 104 137 147  79 128 160 157 151 158 170 162 135 117 114  50  75  60  50  39  55  49  66  37  43  47  64 108  63  79  69  42  52  48  52  67  56  55  74  69  76 101  40  37  45  55  59
  84  90  85  86  92  89  56  74  68  33  47  31  55  39  42  50  28  32  51  54  49  33  59  59  73  49  33  39  40  43  51  68  73  73  57  57  73  79  88  96 112 113 116 117 134 148 141 114 112 168 184 189 186 183 180 171 170 154 135  96  75  69  73  66  40  41  47  38  53  44  48  41  39 119 109  92  67  46  53  66  52  70  36  55  54  77  90  50  48  42  49  55
  77  93  88 100  77  66  64  74  67  21  27  32  40  51  32  27  31  30  37  30  65  57  35  20  39  28  40  40  28  24  47  59  85  91 112  99 111 132 137 146 155 179 190 202 183 125 126 178 183 190 190 197 185 169 172 184 186 168 143 126 107 103  92  83  48  69  58  46  67  55  37  57  98  86  90  90  83  72  61  53  31  37  33  38  56  89  83  45  42  41  42  48
  71  45  73  44  46  43  55  46  84  37  22  31  30  25  38  30  23  27  28  21  30  37  47  41  29  26  32  37  45  73  76  96 106 122 136 136 124 132 134 148 154 125 115 121 156 191 195 195 195 191 185 167 169 183 184 187 187 173 169 173 154 110 116 115  80  95  60  77  65  62  65  79  64  76  76  97  62  76  68  50  51  41  42  31  55  83  73  50  40  41  42  44
  52  55  72  90  77  45  33  47  48  63  39  26  26  33  25  32  33  10  21  19  25  27  25  49  48  51  47  72  94 105 136 154 171 171 164 177 180 183 176 171 169 176 179 178 177 176 175 179 183 193 197 203 200 197 195 194 187 180 180 174 174 163 133 145 116  66  74  60  92  53  58  92  88  89  67  85 111  70  54  32  35  33  42  54  62  87  49  40  40  39  38  48
  47  60  60  69  85  38  50  32  37  50  71  32  15  27  34  36  41  40  30  26  29  46  68  69  80  47  82 117 142 164 176 180 184 181 184 181 173 173 177 191 195 191 193 195 193 191 194 197 197 203 202 198 197 192 188 187 189 189 182 184 179 187 175 158 143 122 113  44  69  62  65  80  61  47  77  76  91  76  96  43  45  41  37  39  75  78  51  43  44  39  43  47
  51  49  63  64  77  71  53  56  45  47  37  39  36  17  23  29  42  32  36  45  90  95 108 106  88 128 131 154 164 165 171 173 178 179 183 185 188 189 187 193 194 197 196 195 196 192 201 196 201 201 201 198 197 193 189 191 193 191 190 192 195 186 186 185 166 143 120  43  41  58  47  41  53  73  91  95  65 105  83  72  52  63  41  38  45  63  58  35  35  38  43  45
  53  88 112 112 114  70  64  39  24  17  34  30  37  34  29  33  35  38  53  93 107 124  86 125 150 143 167 175 179 178 181 184 183 185 187 192 189 190 194 194 193 195 194 193 198 201 199 204 204 199 198 198 192 199 197 192 197 195 198 200 191 188 189 199 175 149 114  39  24  47  76  70  74  87  77  95 104  85  81  82  39  53  42  46  38  55  63  34  36  37  41  43
  48  83  75  64  36  31  68  54  32  26  33  24   9  14  10  12  15  43  80 126  96  80 154 165 161 170 175 180 178 181 183 184 185 188 188 189 192 190 192 190 194 194 192 194 194 197 198 197 202 200 202 201 202 199 208 203 195 200 194 201 186 191 202 193 180 132  73  52  30  26  26  77 103  70  87  90  92  77 108  53  53  53  56  43  36  58  60  33  35  34  37  41
  54  57  71  78  81  68  49  49  33  33  29  28  24  16  21  20  26  72  76  61 145 162 166 170 173 178 179 181 180 177 184 184 185 186 189 193 192 190 191 197 194 196 196 196 196 202 199 201 199 202 205 206 207 204 200 206 202 196 193 188 188 190 188 178 171 139  88  62  38  55  73  91  77  74  90  79  86  86  79  73  81  61  51  29  38  62  61  34  34  35  38  37
  58  60  76  89  70  52  36  30  47  27  25  31  25  13   7  33  45  67 125 153 161 166 173 168 181 179 182 181 183 183 186 185 190 189 190 187 191 191 193 195 194 193 191 200 198 199 196 200 206 203 206 208 207 210 207 203 201 202 209 205 200 193 182 172 165 157 112  90  59  61  77  73  90  93  86  75  79  72  94  80  81  76  72  39  45  68  52  37  30  33  37  42
  65  70  74  85  76  75  46  35  26  22  14  18  21  18  14  32  53 103 134 162 168 170 168 182 177 182 182 182 182 184 187 185 188 191 191 191 191 191 196 197 196 194 194 196 198 199 200 199 203 207 205 209 203 207 206 207 211 214 216 217 205 202 193 180 171 163 136 100  65  86  66  75  75  77  83  88  89  87  99  86  89  91  64  48  49  74  31  32  31  35  33  36
  63  70  77  80  86  84  73  50  53  29   9  19  33  27  10  43  64 108 149 155 162 156 173 175 181 178 181 177 182 187 190 191 187 190 193 191 193 190 194 193 196 193 192 195 196 199 203 203 202 202 203 203 201 199 205 202 203 206 204 211 207 193 186 179 166 161 151 118  76  78  56  67  81  80  79  86  83  95  95  82  93  85  76  54  59  60  43  32  28  30  35  34
  65  73  75  75  77  76  64  50  59  42  20  26  26  28  27  39  92 127 150 157 158 148 151 157 160 164 173 176 180 183 185 190 190 193 189 192 192 190 191 191 190 189 190 191 194 192 197 195 194 195 194 187 186 185 181 184 179 183 187 190 199 205 187 177 171 175 155 123  91  65  54  59  69  73  66  82  85  83  84  89  84 100  70  54  73  59  29  27  31  31  34  35
  63  69  71  71  72  71  65  46  64  70  40  29  22  11  39  50 106 127 147 145 122 123 128 115 116 116 108 115 117 130 148 171 182 182 187 190 184 185 186 184 185 189 186 187 185 186 183 185 174 153 130 128 124 138 139 141 150 166 169 176 179 187 208 194 178 170 143 116  77  67  42  45  69  49  63  83  61  66  88  78  96  91  63  57  86  55  33  30  28  31  34  36
  61  58  65  67  74  70  71  52  52  67  29  46  33  26  47  64 113 126 131 128 110 105 120 120 111 102 113 112  99 110 118 139 156 165 179 182 183 183 184 183 184 182 188 181 178 174 164 137 116 105 126 105 110 107 112 106 131 133 139 144 162 169 183 186 212 171 160  94  88  76  37  48  58  33  55  73  72  70  65  74  92  85  89  37  77  43  26  31  30  32  37  41
  62  58  59  57  62  67  95  59  48  64  43  51  44  21  61  76 107 114 110 132 144 146 155 163 161 143 133 125 116 113 116 129 134 144 158 170 176 181 182 181 182 180 179 173 159 159 152 130 121 126 129 129 136 143 156 166 165 165 169 161 158 159 164 175 183 169 151  87 109  76  39  52  40  38  43  57  51  65  65  81  89  79  82  50  65  41  25  24  35  34  37  42
  57  53  46  64  73  85  96  63  50  64  46  53  44  42  64  85 105 103 124 148 146 158 159 161 164 163 155 149 141 140 138 138 140 136 147 160 172 176 175 182 181 178 172 166 155 153 144 144 142 134 132 136 137 152 160 164 170 170 173 171 171 164 175 180 185 200 183 153 145  88  67  60  53  39  36  47  42  55  63  78  64  83  77  76  44  30  28  28  27  35  37  39
  47  47  50  48  43  49  51  72  63  60  54  53  36  48  74  99 115 112 146 154 154 153 158 162 168 164 163 162 149 138 127 130 136 140 145 155 165 170 175 184 184 175 169 162 157 145 135 124 111 113 120 143 154 161 162 165 165 165 163 165 165 172 177 180 177 191 199 186 175 139 108  62  65  36  40  41  43  43  55  66  73  74  58 130 207 203  58  31  30  32  33  38
  50  42  48  46 124 153 100  75  73  59  72  44  33  43  84  97 109 138 145 150 147 150 156 168 164 166 170 168 166 156 138 126 121 123 130 141 158 172 178 187 190 181 177 165 149 135 118 115 113 124 139 144 155 159 159 170 171 170 165 159 153 154 160 172 177 185 198 194 191 167 153  85  61  52  43  40  41  43  56  61  69 103 191 205 211 208 216  12  35  34  33  37
  50  41  47  78 157 142 136 115  74  66  73  40  33  61  95 123 122 145 147 147 144 151 159 157 153 150 141 138 138 129 135 134 127 125 123 131 154 178 183 192 196 196 189 173 147 125 125 123 119 115 131 149 152 158 158 143 132 136 149 159 163 146 137 147 163 177 187 199 191 185 160 110  71  50  48  41  58  40  56  55 117 187 199 200 198 186 179  89  27  35  36  39
  54  43  48  87 147 155 151 149 128  74  64  44  43  80 120 134 137 144 147 138 147 149 116 133 148 157 170 174 172 165 175 156 112 112 117 120 141 176 185 193 197 196 193 171 143 138 136 130 127 147 148 134 117 134 151 173 184 185 165 108 154 173 155 147 155 171 183 191 198 192 167 123  89  63  44  46  38  42  52  96 182 184 185 183 152 114 128 115  30  33  34  37
  58  47  51  85 116 143 162 151 151 101  65  53  57  72 133 135 148 149 153 143 144 111 127 133  77  59  50  74  90 113 152 149 146 134 108 121 135 173 183 192 198 201 194 174 144 150 146 150 130  94  56  52  47  67  74  69  73 103 141 163 134 130 180 162 163 173 184 187 197 195 182 131 100  69  37  53  54  48  91 176 164 173 135  78  67  84 121  93  29  33  38  42
  54  44  49  74 119  66  86 141 152 133  61  32  58  76 135 140 151 159 150 145 127 109  74  56  43 118  33  52  76 149 121  95 110 145 153 145 145 175 183 191 200 205 211 183 160 164 173 166  81 109  86  69  23  48  89 120 115 110  71  86 109 146 148 174 169 173 186 196 198 199 188 130 103  66  58  56  55  60 156 168 133  84 100  87  82  92 145  70  27  34  37  41
  52  46  52  67 139  89  88 116 122 148  94  45  44  77 136 143 154 158 162 147 131  88  73  85  76  92  61  91  85 179 177 160 120 129 161 144 152 168 185 191 196 202 214 200 167 167 177 166 127 116  93  96  86  82  78 156 139 137 159 145 132 127 171 169 182 194 202 199 202 200 184 139 109  77  67  50  54 124 176 132  94 135 152 123 126 109 173  13  30  29  34  39
  47  49  54  66 148 111 111 131 155 130 113  51  54  86 142 151 153 158 161 151 135 122 122 119 126  91  86 113 146 159 159 155 155 173 173 138 155 169 181 184 194 204 207 201 187 169 167 188 182 150 139 158 163 156 186 165 148 134 139 178 188 193 168 169 178 188 194 200 198 201 185 142 102  64  77  55  77 161 151 132 162 169 195 155 140 142 189  20  31  30  35  39
  47  52  54  62 152 110 127 130 167 159 129  43  59 112 140 152 159 165 168 164 154 155 142 144 132 129 134 153 147 150 160 163 170 164 144 148 159 165 176 182 193 206 202 200 201 180 173 169 166 162 149 155 152 145 149 160 174 189 189 198 197 204 203 198 195 200 201 204 198 198 195 156  92  61  70  67 139 152 155 174 187 188 191 172 152 160 155  27  28  37  40  44
  48  52  54  54 151 117 136 129 171 160 136  57  59 118 144 151 162 164 168 159 158 164 152 161 169 165 156 165 166 151 150 147 155 152 154 157 156 167 180 186 197 210 206 198 204 195 182 179 178 158 163 149 144 142 157 166 171 181 186 196 198 207 208 207 204 204 203 206 202 202 194 156  96  60  65  72 153 141 101 162 164 178 194 183 160 180 102  32  36  37  37  45
  47  52  56  63 115 125 128 135 164 162 120  72  58 122 142 153 164 165 161 165 169 170 166 155 157 160 156 153 146 144 150 152 162 168 160 157 149 171 177 187 199 217 206 198 202 198 190 188 190 171 162 158 162 167 158 160 166 171 185 192 206 203 206 206 208 209 211 207 206 198 195 166  94  82  45 122 178  94  99 126 152 165 180 196 162 191  26  35  31  35  37  49
  47  52  60  72  87 150 118 136 163 139 123  70  61 124 143 154 162 166 166 175 173 172 175 172 166 153 146 145 155 159 162 169 180 172 163 157 156 170 180 190 203 217 213 202 200 202 195 191 194 188 182 173 170 163 171 175 182 190 188 198 203 200 201 207 205 211 211 208 202 198 197 175 102  79  45 190 216 163 119 148 159 165 186 186 174 181  39  33  32  35  38  45
  52  61  67  80  84 140 136 134 157 143 140  79  61 120 144 153 161 166 171 172 178 183 185 182 183 180 178 177 174 175 179 181 178 170 161 146 161 174 181 194 205 214 215 209 200 201 198 197 195 198 197 192 182 183 176 179 182 188 193 194 201 210 208 208 210 208 206 206 200 194 196 180 121  94  67 218 215 230 128 149 157 171 189 178 188 115  31  34  33  33  40  42
  59  66  80  92  99 105 155 142 148 147 143 106  72 122 142 150 161 173 174 173 180 185 183 186 187 184 177 182 180 180 182 178 179 171 154 159 172 178 185 192 202 209 218 208 201 198 198 210 206 204 205 209 209 203 200 194 194 193 197 199 207 203 210 209 211 206 207 204 198 195 195 189 109  81  95 211 207 221 155 154 156 168 196 170 198  25  33  34  31  36  40  45
  68  80  90  96 102 106 137 147 158 140 148 132  69 111 141 150 159 172 174 175 175 186 188 186 186 187 184 178 183 184 181 183 177 167 153 167 173 183 186 195 201 212 224 218 211 197 194 200 213 211 207 211 208 211 212 210 205 202 202 202 202 206 208 211 206 203 199 201 197 193 194 190 115  94 143 202 194 211 182 176 157 178 197 173 165  34  40  35  34  35  38  47
  79  84  91  95 101 106 113 142 154 138 147 140  68 111 144 145 159 171 176 176 178 184 187 189 186 180 180 183 179 181 183 182 177 148 156 170 177 183 189 192 201 220 224 215 209 206 205 191 191 210 213 209 211 208 211 211 206 205 205 204 206 207 204 203 205 203 200 198 193 192 193 190 107  82 192 190 193 193 173 160 157 186 191 188  93  40  43  37  35  37  38  45
  89  85  94  98 104 103 108 144 149 132 131 147  73  97 142 145 160 170 176 175 179 183 184 186 181 181 180 180 183 184 186 185 154 145 164 174 177 180 189 187 200 215 227 214 209 214 214 209 180 190 208 213 209 209 213 211 213 210 205 206 204 205 203 200 203 199 200 198 187 187 188 188 110  88 207 186 188 181 173 142 171 204 170 202  42  39  35  38  34  36  39  45
  95  88  91  94 100 106 109 140 146 125 122 154  75  70 144 143 156 167 175 179 179 181 180 179 178 180 181 186 182 186 190 164 150 156 169 171 177 186 191 197 199 211 209 211 214 220 222 219 190 183 195 205 211 213 211 216 215 213 208 209 205 201 203 198 201 197 194 193 194 190 193 191 101 121 191 188 192 188 181 184 204 180 189 185  34  41  38  38  34  38  42  48
  91  84  89  95  99 100 108 131 153 132 129 131 113  49 143 146 155 168 170 175 179 182 176 181 179 178 178 185 188 191 170 148 158 163 156 174 184 187 194 194 196 191 196 198 208 210 208 214 207 183 187 194 203 207 209 215 214 214 213 209 209 200 202 199 197 197 199 193 191 189 186 175 104 139 186 182 184 169 187 212 189 174 207 139  42  39  38  39  35  40  41  46
  81  78  82  86  91  92  93 130 133 163 155 133 151  53 142 142 148 164 170 173 178 178 180 180 179 182 183 188 187 185 155 152 150 141 150 147 168 179 174 178 176 176 171 177 180 184 190 198 205 173 190 191 195 207 211 210 210 212 213 208 207 203 198 195 196 196 192 196 188 188 194 167  96 128 182 182 219 212 205 206 206 204 213  68  43  42  40  38  42  43  41  44
  69  68  68  74  84  86  84 123 136 168 167 160 153  60 136 142 147 158 166 169 172 176 179 177 179 180 186 186 190 168 151 141 126  59  34 105 143 148 153 158 151 147 141 117  64  65 123 161 179 178 197 189 191 197 205 207 209 208 205 205 204 195 191 190 192 192 191 194 192 191 187 172 102 107 164 181 196 198 201 214 216 214 195  42  50  48  43  39  42  42  41  44
  75  65  60  62  72  77  80 117 166 167 171 164 147  54 127 144 148 160 166 164 172 176 176 178 180 183 184 187 179 162 159 135 116 116 124  86  96 111 106 118 113  89  58  55  76  89 112 132 165 198 200 199 187 196 202 203 210 206 204 204 204 196 189 189 195 193 191 189 188 190 189 163 109 105 179 185 183 185 206 220 218 219 150  72  61  57  53  50  44  45  43  46
  89  76  63  69  73  77  78 151 160 171 167 160 150  57 123 139 141 153 160 168 163 164 177 179 182 182 185 187 169 158 158 151 133 122 154 150 133 120 111  99  91  95 124 142 159 151 131 186 203 202 209 205 195 190 196 200 200 201 200 197 196 197 191 190 184 194 182 191 191 187 187 169 119 103 189 203 199 190 204 210 208 209  96  73  71  59  55  55  48  43  45  43
  93  84  78  73  77  77  83 153 163 167 166 156 147  56 115 139 140 160 159 159 166 171 175 174 181 183 184 182 170 161 158 156 148 133 113  94  98 119 128 118 118 130 132 137 132 173 206 208 204 207 202 205 204 194 194 202 200 202 197 194 193 186 186 191 188 187 183 186 192 184 169 156 118 103 182 206 217 210 208 207 210 201  69  76  70  67  61  58  53  50  46  48
  99  94  87  80  79  79  78 133 152 161 163 157 143  63 103 137 143 149 159 158 162 166 174 177 181 182 184 179 172 169 160 153 142  96  87  72 102 122 137 155 153 132 126 119 115 164 177 203 206 201 208 202 205 203 195 197 200 200 193 186 190 190 189 186 190 192 192 184 182 176 152 131 116 105 149 190 212 223 213 206 195 155  78  82  71  69  66  60  56  50  49  45
 104 103  93  89  84  82  82  92 159 166 158 156 129  53  96 133 144 138 153 158 157 162 172 175 180 180 181 179 175 170 163 150 116 101  64 104 109 125 131 168 114 130 117  96  86 109 167 180 194 202 205 205 208 206 200 196 200 197 195 191 185 189 187 188 188 187 190 176 185 179 157 109 111  88 113 161 187 204 199 191 150  84  87  85  78  72  66  58  56  49  48  43
 110 109  99  92  91  87  82  83 117 162 155 148 118  71 113 129 125 145 139 146 159 162 169 174 180 182 176 179 174 161 160 129  94  91  84 104 108 119 129 175 122 111 109 114 110 129 139 177 170 187 202 205 208 207 207 203 194 195 189 193 186 193 189 190 185 183 188 182 177 172 161 132 115  85  72 102 143 158 151 114  88  94  90  89  77  72  68  64  56  49  47  45
 115 111 101  90  89  91  85  90  83  87 114 111  87  65  90 130 120 142 143 155 142 160 160 171 179 173 172 170 161 130 125 109  90 102 114 113 126 117 144 152 137 111 127 154 138 140 119 147 137 173 180 184 199 203 213 203 189 196 188 182 182 186 187 188 186 187 180 165 158 148 162 112 121  77  80  76  81  89  93  98 100  97  95  89  76  72  65  56  51  48  46  43
 117 109  94  88  91  90  89  88  81  71  69  62  59  66  83 119 100 115 126 143 131 142 163 170 176 167 159 152 125 108 101 114 123 120 120 123 140 131 126 155 145 131 139 145 142 150 149 147 153 125 130 149 164 176 200 205 191 191 189 188 188 187 185 184 182 179 169 171 126 143 143 131 121  83  81  80  84  91  96 100  97  98  89  85  78  67  58  50  47  45  45  47
 113  96  85  84  82  83  83  86  72  71  63  55  60  66  85 102 122 100 125 119 125 137 157 170 172 144 145 124  93  99  96 142 152 154 166 171 170 185 174 168 173 180 180 179 168 164 183 180 165 117 126 137 137 153 173 180 200 186 192 192 182 184 185 182 179 175 159 169 135 133 147  89 114  92  80  83  82  87  89  89  86  82  75  65  62  54  47  46  48  48  46  46
  94  81  75  71  72  72  65  64  63  60  54  46  58  46  84  76  92 114 110 128 117 133 155 168 159 119 111  95  83 115 146 172 172 166 157 152 139 147 163 171 156 138 141 143 149 155 168 168 177 155 130 110 115 139 124 158 181 180 192 190 188 182 180 184 177 143 144 118 115 142 119  94  98  50  73  80  84  82  83  81  78  68  63  57  52  50  49  51  53  54  57  58
  86  74  71  66  68  66  59  55  50  47  48  44  49  46  87  75 104 111  90 104 120 139 138 172 151 121  74  85 133 160 165 158 141 135 136 125 132 122 121 120 116 119 113 130 125 126 131 128 134 152 149 140 133 134 106 154 164 185 194 184 192 174 178 179 156 129 131 108 114 124 122 134  88  56  74  77  81  78  78  73  68  63  60  55  51  51  50  53  55  60  64  67
  81  74  69  66  67  61  58  54  46  46  46  39  48  55 100 119  96  81  75  91 107 131 140 160 144 112  89 131 154 150 136 116 119 105 114 114 111 102  97  98  92  93  88  77  77  76  91  93  98  89 105 122 147 138 124 110 158 179 191 190 188 183 180 171 157 125  94 117 108 125 120 141 104  65  69  70  69  69  68  67  66  62  61  57  58  59  58  59  57  65  69  70
  75  73  71  66  64  57  52  52  55  54  50  49  44  47  90  99  69  84  80  70 115 112 150 162 149  91 103 144 129 104  81  93  89  64  60  78  99  91  86  86  94 105 115 121 124 132 137 127 111 102 113 114 133 133 113 114 155 189 194 180 171 174 178 173 151 122 133 100 115 126 137 115 103  56  64  60  62  62  61  62  61  60  60  57  57  61  61  67  67  71  75  77
  77  72  66  63  62  60  58  56  57  56  52  53  53  44  78  64  71  82  77  93  94 128 138 166 151 112 129 137 138 127 139 122 125 133 136 144 144 147 142 141 134 143 151 157 163 165 158 155 158 166 173 185 175 161 134 141 161 192 198 192 153 146 155 154 136 139 129 118 138 145 139 107  72  66  62  61  60  57  59  58  62  62  58  59  61  67  69  74  78  78  79  83
  77  71  66  60  60  63  63  59  57  56  54  53  59  42  59  71  67 104  56  79 110 110 126 158 163 128 146 156 162 172 168 167 158 156 149 151 157 155 160 154 152 163 167 162 168 171 179 185 179 188 185 184 173 165 165 146 186 189 192 184 170 157 153 159 140 119 110 106 115 147 112  86  54  56  51  57  56  53  52  54  58  58  58  60  61  67  69  75  79  79  83  85
  75  68  66  64  67  67  64  63  58  55  55  52  54  48  51  49  70  83  83  94 100  95 128 161 171 141 162 171 167 173 169 172 168 170 169 162 159 162 159 153 159 156 160 174 178 179 187 188 193 195 199 196 186 184 179 176 183 192 193 183 178 147 155 135 143 114 102  92  98 102 115 101  40  52  52  51  49  51  49  55  55  57  58  60  64  66  70  74  78  78  80  85
  75  72  69  70  70  70  67  64  61  60  53  53  50  53  34  47  53  82 113  83  90  80 116 160 169 135 175 171 170 170 172 175 169 170 168 164 151 151 149 146 145 148 152 156 162 184 187 192 194 198 194 192 190 188 185 187 168 189 192 182 167 162 172 145 110 117  98  91 102  80 106  64  71  52  50  50  52  51  53  53  57  58  58  60  61  63  66  71  74  73  79  82
  80  77  74  72  71  74  70  68  64  64  66  60  57  58  35  44  56  97 115 106  85  67  94 145 141 157 175 178 168 170 179 179 172 168 171 174 161 162 142 153 150 150 164 171 177 181 188 190 191 196 198 190 190 188 187 184 184 182 195 188 160 159 159 158 119 115  98  82  94  70  58  56  56  53  56  55  53  54  55  59  58  59  56  60  62  64  63  65  66  71  77  80
  84  80  79  77  77  74  79  79  79  78  72  72  67  60  47  29  84  78 110 131 100  63  92 142 154 172 176 170 168 172 175 178 178 172 171 155 155 151 133 148 156 150 155 163 180 177 188 189 190 189 186 191 189 187 188 187 181 176 175 167 160 149 146 148 130  98  90  72  63  71  59  72  61  57  61  61  62  60  58  60  59  62  61  65  71  71  74  74  75  77  82  87
  90  87  82  82  82  78  83  83  80  82  81  71  66  62  60  32  45  61  90 137 103  66 104 145 153 172 178 174 172 171 174 177 177 179 165 160 154 150 139 112 137 150 150 159 176 183 185 192 188 190 189 190 188 194 191 189 180 190 179 169 165 152 120 142 124  73  68  66  59  49 126  64  62  61  67  65  73  71  74  76  76  77  79  79  83  84  83  89  91  96  98  96
  89  89  86  86  83  84  86  85  81  82  73  69  68  66  63  55  34  70  95 131 103  72  94 135 144 164 170 166 168 170 173 178 178 179 176 180 177 173 129 139 135 171 180 173 184 187 191 192 192 194 194 192 190 193 194 192 189 186 188 174 156 160 126 123  99  96  72  59  61  60 144  87  71  78  83  85  88  91  93  92  97  96  96  96  98 102 104 105 110 112 112 114
  85  88  88  87  85  82  80  80  77  73  74  70  69  64  63  61  54  39  74 109 119  79 100 118 146 153 169 161 173 172 172 177 176 181 184 181 180 179 171 150 154 186 186 185 191 190 191 194 192 197 195 198 197 195 186 193 200 197 184 169 144 176 139 139 109  88  60  37  58 144 164  87  93  96 100 104 103 105 108 111 111 115 113 115 115 117 118 121 122 123 127 126
  87  83  90  90  85  86  84  87  80  76  76  75  70  67  65  63  66  50  33  99 100 104  89 109 144 156 170 172 169 171 173 179 182 182 181 183 185 183 173 159 173 188 187 189 189 188 191 196 199 201 199 195 197 196 199 190 190 172 168 163 146 145 119  98  80  58  38  73 135 170 166 103 107 105 116 119 122 124 126 129 129 128 129 129 129 131 136 136 139 138 138 142
  90  90  91  88  88  85  83  88  82  78  77  76  67  70  70  64  61  61  46  47 114 122  84  86 114 146 155 160 172 170 173 181 184 186 184 181 187 189 182 180 168 191 193 194 198 193 194 193 197 203 203 201 202 203 190 162 167 162 149 159 137 123  88  99  64  42  40 108 159 175 167 116 123 126 134 136 137 137 140 141 142 142 146 146 143 147 147 148 152 154 153 152
  91  92  89  86  84  85  88  87  85  81  76  77  74  72  65  63  61  64  78  79  58 122 104  98 101 129 136 181 172 171 170 181 178 184 186 188 184 188 190 188 179 184 187 192 199 201 204 201 202 207 202 189 203 200 185 171 132 131 105  97 110  87  94  49  32  43  90 146 166 182 162 134 139 141 145 147 151 148 153 153 153 152 154 155 156 159 159 161 160 160 162 160
  95  90  82  80  84  83  82  86  86  81  75  73  68  65  66  62  65  63  64 110  79  50 113  99  82 118 149 167 160 172 173 181 185 183 188 183 188 187 184 186 192 189 186 198 198 199 199 212 211 204 202 203 199 183 164 151 135 110 105  89  89  70  47  37  47  61 139 166 165 179 157 148 149 154 155 159 160 162 161 158 160 163 164 162 163 167 165 167 167 167 169 169
  91  82  78  79  78  81  83  82  79  72  68  65  62  61  58  60  58  61  57 122 108  42  49 112  90  78 114 126 159 164 168 174 182 183 183 184 185 185 192 182 175 183 174 185 197 197 195 188 198 203 195 197 186 183 152 102 105  77  87  62  49  27  49  48  46 105 141 166 181 176 166 158 159 162 162 162 165 167 167 168 170 169 170 171 170 172 171 172 174 171 170 171
  81  77  77  73  75  74  72  68  71  61  63  63  60  59  59  59  63  67  67 128 131  82  61  38  59  55  91 112 139 170 162 155 161 176 167 179 174 178 175 174 184 175 181 183 190 163 190 180 157 176 176 180 159 169 146 122  81  70  60  40  32  48  39  56  82 124 154 182 174 190 168 167 167 167 168 169 169 172 170 169 171 172 172 173 172 172 170 172 171 174 169 173
  75  74  75  75  74  74  74  72  68  67  70  71  71  73  75  75  80  84  86 119 131 121 112  57  40  44  47  90 118 138 132 134 153 168 166 156 178 164 167 166 171 180 144 157 151 171 151 139 148 141 137 177 148 125  90  58  49  44  35  48  54  60  67  66 111 156 177 178 185 192 170 171 171 171 170 171 172 173 172 173 174 173 173 173 171 172 173 173 174 174 173 173
  82  83  83  84  84  87  83  84  80  82  82  86  88  90  92  91  98  99  98 134 139 119 112 106  54  42  48  56  97 111 109 105 148 153 160 155 142 166 171 145 147 156 130 135 155 112 127 145 122 106 146 150 110  82  53  37  43  42  33  37  42  74  64 115 142 177 192 191 189 188 175 172 173 174 174 175 172 174 173 173 173 173 173 173 173 174 175 174 176 175 175 173
  93  94  93  95  95  97  97  94  97  97 100 102 104 106 110 111 111 117 119 140 139 143 132 117  80  38  44  35  55  72  81  79 114  95 126 153 141 160 142 129 122 132 102 142 147  96 125 109 104  89 126  89  67  51  33  38  36  39  44  46  63  66  62 134 163 172 167 172 192 187 174 174 174 173 175 175 176 175 174 174 175 175 173 175 174 174 175 174 176 174 174 174
 107 106 104 107 107 107 110 109 112 114 116 115 119 121 122 127 127 126  98 137 141 136 139 141 112  72  57  42  34  44  64  70  96  97  89 123 115 125 105 129 115  97 102 103 111  88  87  83  71  68  77  61  45  32  41  34  35  40  45  67  74  58 105 136 126 166 174 180 194 195 133 164 178 176 177 177 174 175 175 175 175 174 174 177 175 175 178 178 177 177 179 177
 119 117 118 116 122 124 125 125 126 127 129 130 131 135 137 140 129  68  65 154 145 143 149 138 134  95  72  65  45  30  46  60  64  81  62 102  80 114  83  93 112  92  95  99  81 110  66  57  60  34  54  29  57  38  63  47  51  57  73  88  89 116 120 154 149 159 189 186 189 193 125 110 132 144 160 175 174 181 173 173 174 176 175 179 178 174 175 177 178 178 178 177
 131 132 131 133 133 134 133 135 136 139 137 143 143 145 143 128  74  36 149 140 145 145 142 138 146 124 112  87  75  68  51  34  54  59  67  60  70  81  69  75  74  78  81  75  68  56  41  45  40  36  46  37  44  44  57  49  64  79  86  93 103 134 135 139 155 161 179 181 186 197 126 110  97 126 115 120 130 138 153 164 176 176 178 175 176 179 179 176 173 178 177 176
 140 141 141 141 140 146 146 148 146 150 152 150 152 153 140  82  65 123 142 140 148 147 148 146 147 142 120  93 101  76  82  47  41  34  36  53  38  48  52  55  43  36  46  43  40  25  37  34  37  34  36  36  58  64  77  86  87 112 110 133 130 125 169 159 168 167 182 183 188 192 118 109  98  94 122 108 109 105 115 114 119 132 145 159 166 179 181 179 176 181 174 179
 148 147 150 149 151 152 153 152 154 156 156 157 161 143  91  79  63 135 137 139 145 146 148 153 144 137 136 120 106  92  73  92  67  54  40  35  39  32  32  46  30  29  45  30  38  33  33  37  43  57  52  55  60  78 116 115 170 141 159 158 162 169 156 160 171 173 182 193 191 194 116 107 103  95 106 108 102 100  97 102 103 104 112 112 114 108 108 120 152 170 184 180
 154 156 154 156 159 157 159 157 160 159 161 165 146  85  75  71  74 126 143 136 145 152 142 148 142 144 139 141 134 116 106  88 103  88  72  73  75  63  59  56  52  60  39  41  44  44  45  40  64  77  75 101 131 128 111 166 180 165 171 164 173 166 160 181 171 177 187 193 190 189 108 105  99  97  92 103 104  96  92  92  94  90  99  91  96 107 101 109  88  94 105 129
 162 159 161 160 162 162 162 164 160 160 162 134  83  66  59  65  74 125 139 131 142 149 150 149 147 151 146 145 125 123 130 100  88  96  94  97  93  81  74  82  74  62  64  73  65  58  58  58  79  77 100 125 130 153 188 183 178 182 171 151 180 176 179 177 182 187 193 188 193 189 131  96  95  89  83  93 106  96  87  94  92  85  92  99  99  95  95  96 107  69 117  91
 162 160 159 159 159 159 159 157 155 159 131  74  73  56  50  53  54 128 135 128 142 146 151 154 153 142 141 145 137 136 116 113 105  93  90  93  93  92  89  91  80  98  83  83  88  81  93  75  97 108 132 140 161 162 183 172 183 163 182 172 183 187 180 181 189 190 192 192 193 186 183  74  99  86  83  99 108  90  90  94  85  91  83  90  94  95  96  92  95  92  74 109
 156 156 157 156 156 156 155 153 158 146  74  67  57  53  49  46  51 112 132 119 138 148 151 153 159 161 147 148 144 136 130 126 115 101 107 103 107 105 102 103 109  97  83  98  99 103 112 100 116 123 152 139 160 161 178 171 162 171 175 170 185 180 185 193 192 192 193 195 193 189 200  79  94  92  81  90  94  95 100  93  92  99  92  89  87  89  91  94  90  95  58  72
