P2
# Generated by OpenCV 4.2.0
92 112
255
 109 120 128 127 121 113  92  88 158 180 161 164 179 174 150 106  68  68  62  46  52  61  69  72  62  58  49  45  39  41  44  42  42  45  44  44  50  48  40  36  37  36  33  44  53  52  48  44  45  37  22  10  13  24  37  32  39  50  58  52  41  55  69  73  81  94  87  74  73  81  62  57  75  58  37  39  40  39  38  37  62  55  40  41  43  44  43  43  42  39  38  37
 101 108 113 113 109 101  78  85 154 177 159 159 176 169 140 102  67  75  74  50  49  56  65  67  61  56  49  45  47  52  46  44  44  38  40  46  47  37  30  27  29  37  41  44  38  37  39  37  30  25  18  10  21  32  36  35  38  42  45  39  33  31  33  31  37  65  87  78  72  70  64  68  69  53  39  39  39  39  39  38  55  54  41  41  41  41  41  41  41  38  38  39
  89  96 102 101  95  85  67  76 132 163 157 146 158 150 125  95  70  80  82  53  45  51  57  61  58  54  51  49  52  46  42  40  38  38  39  40  40  36  33  44  57  52  48  36  27  23  21  23  25  27  18  19  28  30  34  33  25  25  26  29  25  30  36  33  26  30  93  92  64  62  66  68  55  45  39  37  38  37  36  38  48  49  41  42  40  39  39  40  40  37  37  43
  79  87  92  93  87  77  66  70  93 115 135 130 131 123 103  87  75  81  77  55  41  47  50  52  54  52  48  45  45  44  48  51  48  41  36  33  32  34  34  29  23  24  23  12  11  13  15  19  23  24  22  21  17  21  18  16  18  19  29  29  24  20  32  37  41  23  84 105  64  60  63  63  49  40  40  38  39  37  35  40  45  44  41  42  38  39  41  40  40  37  41  45
  68  79  85  83  80  72  78  90  74  61  75  92  98  95  81  72  69  65  57  50  39  46  51  49  46  45  41  38  42  48  52  52  48  39  31  28  29  26  16  12  15  23  29  27  25  17  15  15  19  25  27  15  13   9  16  12  15  27  30  19  16  15  28  32  52  21  35  78  63  59  66  68  61  47  42  40  41  38  37  44  42  41  40  40  37  38  40  41  40  39  41  45
  64  69  74  74  72  79 105 121 102  63  42  50  61  66  60  57  55  40  37  42  40  42  48  43  40  37  37  41  42  35  30  37  35  35  32  34  27  18  21  30  36  40  42  39  31  27  19  13  18  23  25  15  13   8  15   7  13  33  18  14  12   8  22  32  26  24  65  36  49  60  68  70  77  63  43  39  41  39  41  42  42  43  43  42  40  40  41  43  43  41  41  40
  61  66  68  67  75 104 129 139 132 104  61  41  45  47  46  45  40  35  37  43  45  42  33  33  35  31  45  41  33  36  36  34  30  37  32  22  16  35  50  47  37  32  35  33  31  29  18   8  16  17  22  16  13  12  14  11  28  27  13  16  15   8  18  26  24  27  66  60  31  57  63  67  78  74  45  40  41  40  43  35  42  41  42  43  43  42  43  46  46  42  38  41
  61  64  64  74 102 126 136 141 143 132 100  62  44  42  42  38  34  39  43  48  49  33  27  31  25  43  47  43  43  40  27  17  32  31  18  18  47  66  50  39  34  33  34  28  25  15  10   6  13  18  22  17  14  20  16  23  37  17  12  16  17  13  16  20  25  31  59  47  37  68  65  64  66  64  45  39  40  40  32  36  45  39  41  43  41  42  44  46  45  41  39  43
  63  65  68  94 119 126 133 141 147 143 125  93  61  42  40  38  37  40  45  50  44  28  28  27  43  50  42  35  26  16  16  22  30  18  17  31  54  42  30  36  48  47  38  28  21  12  15  13  12  14  18  23  21  19  21  37  26  12  13  15  15  21  15  14  21  27  30  27  43  53  51  49  52  50  44  42  39  32  31  42  42  40  43  43  39  41  43  45  44  40  39  43
  70  71  81 106 116 118 129 140 147 144 133 113  79  49  42  42  40  44  49  50  36  24  26  45  54  36  25  23  16  14  12  22  19  17  20  31  30  34  40  39  36  31  24  18  13  16  22  23  19  19  19  22  23  24  38  33  19  15  19  11  15  22  16  17  18  23  19  27  37  36  25  20  24  28  34  41  37  36  44  43  42  41  44  43  41  43  43  46  45  40  38  43
  67  78 101 116 113 111 119 131 141 140 136 124  93  57  48  46  45  48  45  39  25  29  45  53  37  25  25  20  15  11  13  19  15  16  15  20  41  43  33  26  21  17  11  13  21  27  27  27  32  34  26  23  33  40  40  32  25  24  16  16  25  24  22  22  22  22  23  25  28  30  33  35  28  23  19  28  38  48  46  44  44  43  45  43  43  43  43  44  43  39  36  43
  65  86 118 117 106  99 103 113 130 136 136 127 102  66  54  55  50  48  38  20  26  43  47  34  23  30  23  15  12   9  21  18  10  14  28  46  40  27  20  23  13  14  20  28  34  37  39  33  32  28  26  30  40  44  39  37  31  24  25  26  23  25  26  25  21  20  23  22  27  22  23  25  35  40  39  30  28  41  42  42  44  42  41  43  45  43  44  45  43  40  37  41
  66  84 115 113  91  81  83  98 123 132 127 120 101  75  61  64  60  51  38  23  35  45  36  22  25  26  16  15  11  19  24  14  10  25  52  41  23  21  21  19  16  20  21  25  40  41  41  52  59  50  42  39  46  37  37  36  27  17  14  17  20  25  24  22  19  16  19  22  26  25  23  26  17  22  33  49  42  30  38  42  44  41  40  42  45  45  46  45  43  41  39  39
  61  76 105 112  83  60  50  56  87  98  92  85  76  76  73  58  57  57  33  28  37  39  29  26  27  22  20  16  15  21  19  12  13  40  44  23  17  25  16  14  17  18  13  27  31  38  56  56  41  39  38  38  37  33  30  27  13   6  14  16  17  14  17  18  15  13  17  22  26  25  27  28  28  20  16  22  42  35  31  43  45  43  41  40  43  47  48  45  42  42  41  44
  58  70  94 106  85  68  58  50  47  49  52  49  42  52  61  32  38  48  23  28  38  36  25  27  27  26  18  16  15  18  14  11  29  47  30  16  21  17  13  16  21  21  23  27  28  41  42  31  25  29  39  45  40  35  23  10  12  15  18  17  20  20  17  18  18  15  17  21  24  26  28  23  26  21  18  19  17  27  33  45  51  47  43  44  42  46  49  47  45  45  45  48
  53  63  82  99  92  86  97  93  64  43  37  37  34  37  40  18  26  35  21  30  37  28  27  34  33  27  21  15  19  16   9  14  50  35  21  22  19  17  15  19  18  24  25  28  36  31  25  32  34  36  38  36  33  22  12   7  15  15  18  24  16  16  15  18  14  18  17  21  22  26  24  21  20  15  20  24  22  23  28  44  51  50  47  48  45  43  43  48  46  43  46  46
  44  55  72  91  94  95 105 107  96  78  70  59  48  40  35  18  30  38  28  38  28  21  31  40  33  25  17  16  24  13   5  26  48  23  25  16  13  13  15  21  19  18  20  24  30  29  34  29  25  26  27  29  24  22  32  35  27  31  32  14  14  18  21  14  15  17  19  18  22  24  20  20  23  22  21  28  26  25  27  31  50  51  47  43  44  46  45  48  44  43  44  45
  39  48  63  77  89  97  97 101 100  89  79  75  80  56  45  32  40  38  32  26  20  24  37  34  29  22  21  31  20   8   6  30  39  22  19   7  14  13  17  17  16  13  16  15  18  20  25  27  26  21  21  26  35  34  29  47  73  58  39  32  31  30  24  20  18  20  20  18  21  21  21  24  30  23  21  23  27  31  32  29  46  54  52  43  41  45  48  43  41  41  42  44
  36  45  59  69  80  92  95  97  99  87  39  18  47  38  31  36  34  33  28  20  28  29  40  32  32  22  35  30  14   9  11  26  31  20  12  12  20  15  17  18  16  16  19  20  13  14  17  20  32  49  38  43  61  77  61  40  54  64  55  46  42  38  35  34  35  28  28  28  31  29  23  20  26  21  21  15  23  27  29  34  40  52  49  46  42  45  46  42  41  39  42  42
  32  39  52  64  76  90  97  93  91  83  38  23  25  33  35  35  26  28  21  24  39  33  26  39  32  40  37  24  16  14  14  25  26  14  11  15  17  15  16  22  21  18  14  18  18  15  18  26  45  71  77  54  60  67  71  52  37  31  32  30  29  29  35  38  41  41  40  35  28  22  17  19  27  25  24  15  19  30  31  33  39  50  46  46  43  41  42  43  41  37  39  41
  33  36  45  57  74  89  97  93  81  72  39  36  42  40  39  34  25  24  16  34  49  33  33  47  49  43  31  25  10   8  13  20  19  13  14  19  15  16  30  35  20  17  13  14  14  19  33  40  47  64  57  48  44  40  38  39  36  30  33  36  32  25  22  26  31  31  30  24  21  21  14  18  23  22  25  13  12  23  33  32  37  43  41  47  45  43  42  43  38  34  38  41
  35  35  40  52  71  89 101  67  16  18  23  24  27  27  21  23  24  20  16  44  47  37  57  60  54  35  33  15   9   9  17  18  18  16  16  20  19  22  29  28  29  27  19  12  14  23  45  71  58  43  41  37  34  27  25  25  27  27  24  29  29  29  26  21  23  18  17  16  17  17  14  27  22  20  16  12  12  17  29  25  23  37  39  49  45  43  43  44  37  33  38  41
  35  34  36  46  65  83  89  35  38  43  21  27  34  23  25  27  24  17  22  44  37  42  49  49  44  41  27  11   7  13  20  22  30  21  16  18  20  19  21  22  33  44  34  22  14  20  31  42  45  39  33  28  23  21  21  23  23  25  25  23  21  21  19  11   9   6   7   9  12  14  12  27  18  19  15  15  10  11  28  31  19  30  39  46  44  44  43  42  36  34  36  44
  35  34  34  39  54  72  82  41  43  35  29  45  33  29  29  24  29  15  32  38  29  30  28  42  42  28  16  10  12  24  33  37  26  24  23  17  15  13  18  30  51  49  27  19   9  10  22  26  19  17  18  26  27  21  26  23  15  14  15  14  18  14   7   7   4   5  10  13  14  14  18  19  22  17  14  15   9  12  22  36  24  27  39  46  42  44  40  35  34  34  37  48
  34  34  34  35  43  61  77  61  17  25  38  36  26  41  21  29  34  18  36  37  19  15  20  26  22  19  14  17  28  31  37  31  24  24  14  23  24  26  32  36  33  25  18  13  16  21  34  31  27  26  24  37  34  32  32  20  24  24  24  27  27  12   7  10   7  12  18  14  17  15  26  15  23  19  17  16  13  12  19  38  32  22  32  47  43  43  40  36  35  36  42  48
  35  34  34  35  40  49  59  46  21  32  38  27  34  28  21  37  37  22  44  32  11  10  18  26  23  23  18  24  29  43  37  27  33  32  37  44  48  47  42  37  36  31  26  29  41  38  32  34  35  27  36  41  33  28  23  31  31  36  43  45  37  10  10  11  17  20  13  19  20  21  26  16  27  24  22  19  20  11  20  40  30  24  21  39  46  45  44  40  38  41  47  46
  35  35  34  36  38  45  47  28  30  34  33  29  38  12  25  43  33  33  39  15   5  11  26  30  19  18  19  20  24  29  27  28  33  47  63  58  48  46  40  34  34  35  45  48  43  33  33  33  30  35  38  35  33  24  28  33  37  51  66  68  37  10  16  22  22  16  17  24  25  24  22  21  34  33  29  21  28   9  21  32  31  24  24  40  47  46  48  42  39  45  48  43
  34  36  35  36  41  44  37  20  36  34  25  35  27  15  30  44  28  36  28   8  16  25  27  18  12  15  17  15  15  18  20  25  31  33  38  41  38  41  37  39  44  52  56  44  36  29  27  27  38  39  32  33  32  28  30  44  66  95  90  69  40  16  24  26  19  17  25  24  32  34  30  26  37  38  34  24  23  15  23  22  26  21  24  36  45  46  47  41  40  45  46  43
  35  35  35  34  39  44  29  21  35  27  25  34  17  19  24  44  30  31  23  13  33  27  18  12  13  12  12  10  14  15  16  20  20  22  22  22  25  32  39  47  44  41  34  32  23  20  24  32  42  33  34  37  30  28  40  76 116 105  76  60  30  31  30  19  19  27  26  28  41  45  41  29  41  41  33  24  18  21  18  22  19  18  22  27  43  48  48  42  41  44  47  43
  34  35  35  32  35  40  26  19  27  21  25  30  16  21  21  30  23  24  25  25  36  18  14  15  11  11  12  13  15  18  18  26  36  48  50  44  41  35  20  23  26  29  28  34  29  30  32  43  40  33  37  39  30  34  53  84 116  66  65  39  29  33  34  22  27  34  29  44  53  59  47  31  46  40  36  27  21  20  13  28  21  20  25  22  31  50  48  45  43  46  48  43
  35  33  34  34  36  34  26  16  22  17  27  24  19  22  15  23  23  22  36  36  38  16  14   9   7   9  11  14  16  21  26  32  45  54  57  50  41  27  23  40  40  32  36  57  49  42  43  52  41  41  42  42  37  48  60  85 109  69  60  33  32  19  40  57  39  40  43  51  48  64  34  63  56  36  35  29  26  13  19  26  16  25  29  22  23  44  46  46  46  47  44  43
  35  34  33  34  33  28  22  15  21  14  26  22  18  21  14  17  21  19  38  42  34  16  11   8   9  11  13  15  17  16  18  33  57  57  47  33  24  15  31  58  52  40  51  79  58  50  55  60  47  49  47  46  45  54  57  98 120  57  41  36  20  26  42  65  56  52  48  41  46  54  57 103  55  29  32  32  20  12  23  21  14  33  30  19  20  42  49  47  42  41  40  44
  35  36  34  33  32  25  16  12  20  15  20  19  16  18  15  18  28  28  34  50  27   9  11   7   6   9  14  15  16  24  50  73  62  41  30  39  33  26  56  65  60  49  77 101  65  61  66  62  55  54  50  58  65  66  52  88  72  41  30  23  23  31  42  73  72  63  35  38  59  66 104 104  41  30  29  26  18  14  23  15  28  39  26  19  17  42  48  46  41  38  44  51
  35  35  34  34  33  23  12  12  19  17  19  20  16  20  18  23  38  32  36  55  21   8   9   4   5   9  12  20  34  66  70  49  28  22  41  55  31  41  64  61  57  61  78 105  70  61  70  62  58  56  53  57  63  54  47  52  43  41  28  27  29  27  32  63  57  54  49  77  99 108 100  82  45  25  24  31  13  19  21  23  37  25  22  21  20  40  51  47  43  43  48  48
  36  36  35  35  34  26  13   9  16  18  20  19  16  20  16  24  42  38  30  42  15   9   8   2   8  19  35  46  55  50  25  19  19  28  45  47  52  47  44  51  49  59  61  80  46  42  59  58  60  59  48  61  64  51  44  47  47  35  31  29  33  42  41  49  49  36  58  86  98  72  92 103  41  21  24  24  17  26  25  34  26  25  25  23  23  40  51  45  47  46  41  40
  36  35  34  34  35  30  14   9  11  16  17  20  15  19  17  26  39  34  33  29   7   7   5  19  43  45  35  28  23  22  14  13  24  21  37  70 110  86  59  38  37  41  42  34  30  44  45  52  54  57  45  79  68  48  41  48  32  35  42  40  37  36  44  51  42  26  36  55  57 102 163  86  26  21  24  16  24  31  39  35  35  27  20  22  24  45  51  47  48  45  37  40
  36  37  35  34  37  32  14   9  11  16  13  18  17  23  18  24  35  27  42  25   3   3   8  44  40  23  32  25  18  15  13  11  26  49  65 118 145  96  60  21  24  29  20  18  26  32  34  42  53  49  49  69  52  38  42  31  36  49  48  41  31  42  48  23  14  20  24  86 132 115 138  47  19  22  19  24  31  41  40  43  32  26  30  32  31  51  53  48  48  43  39  42
  36  36  36  38  36  34  18   6  10  15  15  13  16  22  22  21  28  22  35  25   2   6  23  30  22  26  47  30  16  11  17  15  46  83  91 146 158 105  43  12  15  13  12  28  22  20  34  37  47  41  53  67  48  39  38  41  51  52  50  48  50  54  40  37  51  17  13  76 178 132  53  29  22  19  24  35  45  46  44  48  42  49  37  39  38  43  48  47  48  43  43  46
  37  36  36  38  35  36  23   5  11  16  14  16  13  17  24  20  23  17  30  25   4  14  21  26  18  50  57  20  16  15  25  28  56  79 101 159 160  75  20   7  10   8  28  79  27  18  37  25  22  22  52  72  49  33  44  54  63  64  55  45  34  33  70  75  96  39   5  19  98  77  23  23  23  32  45  57  62  57  59  45  37  41  29  49  47  40  46  46  46  44  45  48
  38  38  37  36  35  37  31   8  10  15  14  17  13   8  15  20  18  18  22  22  11  16  21  20  23  58  48  17  23  21  27  33  54  74 116 131  64  26   7   9   4  42  96 120  19  28  34  10  13  38  68  53  29  36  53  59  79  63  52  56  46  69 122 128 133  98   4  12   8  13  22  22  47  88  84  68  58  61  49  27  28  34  30  53  51  48  42  43  43  47  50  49
  39  37  36  37  37  36  26  14  10  14  13  15  13  10   6  15  19  15  16  22  20  17  22  23  25  49  56  39  39  39  30  24  40  63 116 106  32   4  12   6  62 120 136  97   8  23  16  12  21  38  46  26  27  44  59  81  62  48  53  61  69  86 116 151 155 124  29  10  12  19  23  92 145 155 126 104  91  90  74  37  30  30  33  50  44  54  40  42  44  48  51  49
  39  38  37  38  38  35  17   8  10  11  14  15  14  17  12  21  29  19   9  29  25  21  24  29  34  38  54  37  20  23  28  23  30  67  92  72  69  64  45  36 163 140  88  18  11  15  17  25  29  36  41  30  35  42  76  73  52  47  49  65  78  91 134 165 161 151  88  27  49 105 108 179 187 191 183 171 151 142 119  53  35  26  31  42  32  48  40  44  53  53  52  51
  38  38  38  37  38  33  24   9  11   7  12  16  16  17  21  24  28  37  17  29  25  21  16  17  36  43  39  30  21  22  25  27  36  60  51  52  86 118  79  71 161 132  74   7  14  14  14  17  51  82  53  25  26  52  64  42  44  55  82 107 138 168 175 177 177 170 164 143 172 205 202 189 196 202 197 191 183 172 148  68  23  23  35  38  27  42  46  54  68  65  57  50
  39  39  39  36  36  29  19  10  10   8   9  16  20  18  25  26  23  50  30  25  15  13  11  13  27  49  37  27  19  21  21  23  33  39  30  50 119 171 104  84 132  94  23  16  22  11  17  69 117  58  16  21  42  50  45  85 122 139 151 171 192 197 193 191 194 199 205 209 215 213 210 206 205 203 196 191 184 179 161  92  23  25  38  38  29  46  57  65  66  56  52  49
  39  39  39  37  35  28  15   7   7   9   5  14  21  22  27  34  19  36  30  17  11  14  11  17  24  50  45  21  15  20  17  16  19  21  39  60 119 148  60  66  75  21  11  20  12  17  36  66  41  13  28  31  37  52  94 152 191 208 208 209 212 209 211 212 213 215 217 216 217 214 212 212 208 203 196 192 187 177 172 138  31  18  30  46  35  64  66  58  56  46  47  49
  39  38  39  39  36  27  11   5   8  15   8  12  26  27  31  41  40  20  31  19  10  11  10  16  23  46  62  31  14  15  14   9  18  34 100 115  37  32  30  49  20  10  17  13  13  28  36  29  22  33  40  43  61 118 170 203 214 217 216 214 217 215 215 216 215 216 215 216 217 216 213 211 204 201 196 185 169 157 168 148  31  11  28  50  41  66  59  51  48  43  45  47
  40  38  39  39  38  32  18   8  17  21  15  11  33  44  32  37  50  26  36  27   9   9  12  14  21  44  50  53  24   7   9  14  32  57  88  93  58  17  20  46  43  15  18  25  30  32  37  42  48  48  42  67 139 198 216 218 216 215 214 216 216 215 213 214 212 215 216 217 216 214 212 206 199 188 182 172 155 137 136 147  33   6  34  63  54  66  50  43  41  43  47  46
  41  39  41  40  38  36  32  19  25  22  21  17  36  60  30  37  44  34  36  26  10  12  13  10  15  54  35  59  65  14   7  26  42  53  43  41  39  30  24  27  38  33  23  30  44  51  49  39  34  52  52 155 214 223 219 215 215 216 212 212 214 211 211 208 210 211 213 215 211 207 204 191 171 152 141 137 137 130 110 121  39   1  34  75  68  62  48  47  40  43  45  45
  40  40  41  40  37  35  29  21  25  27  27  23  34  46  23  35  41  31  29  20   7  13  12   9  10  44  45  27  78  44   6  19  35  57  37  30  38  40  36  31  34  36  39  42  43  46  44  49  80  95  98 211 221 218 213 213 215 214 209 208 209 208 207 205 206 207 208 205 205 188 154 119  97  93  98 117 124 111 116 119  53   4  30  71  77  56  46  43  38  43  45  44
  40  39  40  39  38  35  25  19  28  44  36  31  32  27  15  26  35  22  22  16   7  12  11  12  13  28  55  22  36  54  16   9  18  28  24  15  16  20  31  46  60  79  89 100  90  88  96 119 136  80 140 203 208 210 210 208 210 208 205 205 207 206 202 203 202 200 198 188 154 117  88  76  85 103 137 160 160 160 149 131  75   9  23  70  91  42  41  38  39  47  50  49
  40  39  39  40  38  38  27  19  27  50  34  33  29  22  12  14  24  18  18  16   9  10  12  16  15  16  35  35  18  30  36  19  16  20  25  22  16  39  90 109 115 120 112 100  93  90  85 105  70  66 130 156 166 184 191 198 199 199 201 203 203 201 198 196 194 186 180 158 115 101  96 108 127 152 168 174 172 169 162 158 103  16  22  70  71  36  38  40  42  48  51  46
  39  39  39  39  39  38  33  17  24  38  21  26  24  16  11  13  15  13  19  17  12   9  12  11  12  22  32  28  28  19  29  35  31  32  41  49  54  98 125 115 115 123 117 113 107  99  96  62  54  86 121 125 138 154 167 179 186 194 197 199 199 198 196 192 184 173 159 142 127 116 113 130 145 156 164 168 167 162 155 151 115  11  20  59  48  40  42  45  44  44  47  44
  40  39  37  37  37  37  35  23  21  31  15  15  22  17  11  11  11  11  15  15  13  10  11   7  20  61 100  62  29  37  23  25  32  33  37  51  68  76  90  99 124 143 150 161 155 106  65  78  86 120 131 135 143 151 158 165 176 186 192 195 198 197 192 185 177 165 145 126 100  85  97 119 132 131 136 147 158 151 137 138 118  15  18  51  48  38  41  44  40  39  42  45
  45  42  41  41  40  40  40  29  13  18  14  13  16  14   7   9   9  10  14  14   9  10   9  16  45  96 131 126  62  35  49  36  31  37  36  43  56  46  51  62  91 112 112 100  85  85 109 103 123 144 140 143 146 148 153 154 164 177 185 191 198 199 190 181 168 142 114  85  96 130 130 123 125 125 137 129 118 137 137 138 133  27  24  59  51  42  38  37  35  39  43  41
  51  49  47  47  44  41  38  41  55  44  21   7  15  12   8   8  11   9  12  11   8   7  11  29  62 114 139 140 120  58  46  58  52  52  49  45  36  36  39  46  48  53  54  61  94 114 108 119 131 126 124 126 127 127 133 140 152 166 183 193 204 208 196 183 151 116  97 115 138 102  63  65  56  79  62  93 114 127 145 153 142  39  25  56  47  39  35  38  42  43  39  42
  52  54  54  51  47  46  59 122 160 158 117  60  17  12   7  11  15   9  10  11   8   6  16  33  67 119 146 143 139 115  70  62  71  68  76  91  91  87  90  95 104 104  94  90  99 114 130 133 110  99  97 111 122 122 123 133 146 166 188 204 213 213 207 186 138 116 129 119  76  89  73 102 102 143 127  55  64 123 157 164 147  35  27  54  34  30  36  47  49  41  36  41
  44  47  49  48  48  54 110 145 154 164 173 165  66   9   9  13  19  12   7   9   7   7  20  37  61 118 150 146 142 142 125 105 107 106 115 133 143 145 146 144 135 111 106 109 106 101 102 110 122 138 135 109 116 131 135 132 143 168 188 206 218 215 210 189 135 146 147  95 105  97  42  95  94 152 160 116  76  99 161 169 162  47  38  47  34  35  39  48  47  39  36  36
  44  50  47  45  46  59 111 119 132 145 156 174 128  24  12  16  21  12   6  10   7   9  22  43  54 111 152 150 149 149 142 140 135 135 144 144 137 140 143 130 107 110  95  56  41  61  77  80 110 113 119 140 128 131 144 148 145 165 185 203 215 215 210 193 151 174 136 148 130 153 140 139 130 154 145 139 137 120 148 170 172  70  45  42  34  39  44  47  42  41  37  37
  57  65  61  51  51  67 103  65  68  72  88 119 140  64  10  16  21  11   6  12  10  10  22  39  56 107 149 153 149 146 142 141 141 152 151 148 141 140 134 106 101  69  35  62  64  54  89 111 169 192 127 111 143 158 164 172 155 165 184 198 209 212 210 200 172 183 154 160 175 185 184 171 153 144 150 147 148 167 163 170 178  92  42  45  38  42  46  41  37  40  39  39
  76  79  74  61  63  75 122 110 114  90  96 110 108  66   8  17  23  16   8  11  15  12  24  38  56 109 140 146 142 143 146 153 159 159 160 158 152 146 133 103  61  72 101  89 107  88 117 124 199 200 162 138 132 178 190 175 159 166 183 192 202 206 206 205 184 179 199 180 149 147 164 168 162 159 156 146 165 183 181 175 180 121  43  42  42  45  44  40  38  42  39  36
  92  90  78  80  83  88 133 127 140 126 128 161 154 115  45  23  21  23   8  10  19  13  29  39  52 113 137 145 142 144 146 156 163 165 169 168 156 143 132  95  93 128 142 133 136 149 145 151 170 173 171 168 167 183 182 166 159 168 175 179 194 205 202 204 192 167 177 170 156 141 141 147 155 159 160 171 184 185 180 177 181 143  49  40  42  45  48  48  46  42  36  33
  98 100  95 102 114 100 139 134 144 128 128 157 168 181 123  50  19  20  13  13  16  16  24  29  52 108 138 144 144 143 150 161 165 166 166 164 153 152 154 137 130 139 145 147 139 152 161 159 166 165 162 165 179 176 170 164 160 170 171 176 189 201 200 203 197 168 178 184 178 164 158 161 167 171 174 177 183 181 176 176 181 153  53  41  42  46  48  46  43  39  39  36
 117 110 105 105 110 103 136 145 148 134 125 155 173 168 163 147  61  19  23  22  19  28  25  18  57 107 144 144 144 145 154 166 171 171 172 174 174 176 174 170 159 148 144 155 166 171 170 169 172 159 152 160 161 172 170 167 168 172 171 171 182 195 199 201 199 174 175 190 184 184 177 175 177 180 183 180 183 184 178 177 181 157  54  38  42  45  44  43  40  37  35  33
 128 104  98 118 116 107 122 140 149 153 125 151 173 162 150 131  78  52  38  59  27  30  26  22  57 109 144 142 146 149 157 166 172 176 179 182 188 186 182 179 175 166 155 153 156 161 166 160 154 156 170 172 178 179 175 171 171 174 166 166 176 194 202 201 201 178 170 189 196 194 186 182 180 185 187 187 189 187 183 177 183 157  46  34  39  37  33  35  36  35  34  32
 123 100 111 125 119 126 123 141 151 169 132 149 167 157 135 100 138 108  66 131  34  15  20  29  64 106 140 145 144 152 160 168 175 176 178 180 186 190 190 191 190 186 182 176 172 166 162 163 171 181 184 180 187 185 176 173 173 173 164 164 175 191 202 201 202 186 169 184 201 204 200 193 190 191 195 194 193 189 181 180 187 157  42  27  31  31  31  30  31  32  32  32
 113 101 111 109 100 116 117 117 156 158 142 154 169 156 156 141 175 151 108 163  65   8  12  24  69 102 137 144 142 150 160 170 177 178 179 178 182 190 196 195 196 195 202 199 195 190 186 189 190 195 192 192 192 182 176 175 175 170 163 165 176 189 200 206 205 195 170 177 193 203 203 199 196 196 201 202 198 194 185 182 189 163  53  37  38  39  37  34  34  34  33  34
 101  85  88 103  94 100 103 100 133 163 140 160 172 158 162 153 176 158 160 179 121  16   7  29  67 100 138 141 141 145 156 168 177 179 178 181 184 185 193 201 207 203 199 199 200 195 193 195 197 201 201 197 190 182 178 175 170 164 160 169 181 190 200 206 207 201 177 173 193 197 199 200 195 195 196 198 199 193 187 185 189 162  90  88  76  67  69  67  61  56  51  54
 104  93  86  92  95  97 103 109 107 151 146 162 175 155 158 160 181 161 166 175 169  59   4  32  55  95 140 140 137 143 148 164 175 178 181 184 181 183 191 196 201 204 202 203 203 200 199 200 200 201 200 195 188 183 183 171 162 157 165 173 182 191 198 202 205 201 192 173 183 207 203 201 197 195 193 192 193 192 190 188 186 160  96 104 103  92  98 103  98  94  84  85
 111 112 110 101 103 108 115 117 111 118 148 158 179 152 155 178 184 160 176 175 170 115  14  28  42  74 134 142 137 141 147 164 170 175 182 182 183 184 186 191 205 210 208 211 208 208 204 198 198 203 199 194 197 195 177 160 154 157 167 176 186 190 199 201 205 203 195 180 168 197 212 209 201 197 195 193 192 192 191 189 186 163  93  84  91  90  83  82  86  83  80  87
 108 113 111 106 110 110 109 114 113 104 136 148 178 153 154 193 194 174 162 188 174 149  60  25  36  62 124 140 141 142 145 157 166 175 183 183 186 187 188 194 204 209 214 216 209 201 196 199 200 203 202 207 205 181 154 154 156 159 165 178 189 196 201 200 203 204 197 183 169 179 205 213 210 203 199 193 192 191 189 188 185 161 101 113 108  98  97  95  88  79  75  85
  82  89  97  99 108 117 113 108 108 104 110 145 170 172 145 173 198 184 149 177 190 162 112  38  36  49 109 139 141 140 144 153 164 174 182 184 187 190 189 193 203 207 208 202 200 196 196 201 203 204 209 201 186 159 151 159 163 163 170 180 189 198 201 202 200 200 201 184 170 171 187 205 208 211 207 200 196 193 190 188 183 156 111 137 140 125 135 141 136 129 115 116
  71  66  76  81  75  92 101  85  87  99  75 134 149 184 168 151 168 159 138 144 187 167 144  55  31  55 103 134 142 141 142 152 161 174 178 182 185 191 197 196 204 204 197 198 195 195 199 206 209 210 201 186 172 151 161 166 167 170 171 180 186 196 204 206 204 205 211 192 170 177 176 195 206 209 208 203 200 196 192 188 177 154 106 114 123 117 124 131 130 127 118 122
  70  82  87  75  74  84  85  70  74  91  69 114 154 154 185 165 174 170 145 135 168 164 147  79  37  58  92 124 140 142 141 148 159 168 180 184 181 188 197 201 204 195 195 198 195 193 200 208 217 208 188 187 169 148 161 169 170 177 177 174 180 192 211 219 213 213 209 195 177 176 160 184 202 205 207 206 201 195 195 187 167 155 100  67  70  74  77  71  63  65  66  72
  72  95  94  88  87 105 105  85  81  75  76  92 156 160 150 164 175 177 169 159 153 155 146  92  49  51  64 108 133 140 140 146 157 163 171 179 180 185 189 195 201 195 196 199 197 199 207 213 212 197 186 191 167 146 160 169 172 176 178 167 167 180 200 212 208 201 195 180 152 120 140 185 200 201 202 202 199 195 192 178 158 155 100  52  55  59  58  42  42  41  43  46
  58  61  71 100  95  96 101  76  72  69  74  72 126 173 165 168 180 171 171 167 156 151 129  80  46  54  59  93 121 133 139 145 150 159 167 173 178 185 185 190 195 195 199 198 199 205 210 214 202 190 192 193 166 138 151 136  98  82  90 116 140 156 170 184 186 181 178 150  88 105 166 198 202 197 199 199 196 194 186 173 157 157 108  57  54  55  57  58  68  58  48  47
  58  54  81 100 111 107 102 100  83  75  86  74  91 147 173 179 189 184 173 172 165 160 124  68  40  63  63  74  99 136 143 145 149 155 164 171 175 178 180 187 190 191 195 198 199 204 208 208 197 186 198 200 176 133 111  95 101 105  88  80  83 100 128 141 142 145 133 105 115 159 189 200 201 194 194 194 193 189 179 165 158 153  99  64  55  52  55  63  70  56  48  45
 103  94  94 101 113 119 104  93  86  84  97  88  78 122 175 188 194 199 190 178 170 176 158  79  50  65  72  69  79 128 140 141 150 154 158 166 171 174 177 184 189 188 192 195 202 201 203 197 189 187 198 200 193 173 134 126 159 186 169 165 135  91  80  76  82 101  89  90 128 173 197 195 196 194 191 189 191 183 173 160 156 143  89  61  59  56  58  61  66  61  48  47
 102  96  89  80  89  92  85  79  80  78  83  84  82  95 153 180 192 197 194 182 178 181 165  91  49  63  73  75  83 114 130 144 150 154 153 162 166 172 172 176 180 187 191 192 200 201 197 190 184 192 196 195 196 199 190 165 147 145 117 129 150 140 116 104 112 115  89  79 108 174 185 190 194 193 189 180 179 181 167 155 148 120  74  61  66  74  74  69  74  76  62  63
  77  85  96  86  83  86  82  89  99  97  81  81  92  89 109 162 190 194 191 187 190 164  88  77  48  60  78  78  69  99 121 143 151 152 153 156 162 169 169 173 176 182 190 193 197 202 193 187 182 187 193 194 193 193 187 154 124 102  95 100 127 158 168 167 145 128 100  74  79 132 152 170 183 187 187 173 165 179 158 151 143 104  57  68  85  91  84  82  88  88  82  87
  91  96 102  95  92  88  91  95  92  96  88  88  98  98 100 124 162 184 188 186 172 104  34  61  52  46  77  73  81  85 120 136 145 155 153 156 159 165 166 167 174 178 187 190 194 198 190 181 181 187 191 194 196 188 183 139 110  94 106  99 115 123 153 158 124 108 100  76  77  86 117 133 152 172 179 165 158 174 150 153 130  85  57  73  90  89  86  90  95  88  92  98
 103  96  99  99  97  92  94  84  74  94 106  94  96 100 106 106 106 119 126 110  59  17  32  45  40  40  75  71  69  79 123 127 143 152 152 151 157 161 159 162 173 175 183 188 192 196 189 181 183 192 190 188 186 179 173 139 101 105  92  94 108 110 129 155 129 104 102  94  73  78  96 106 120 136 141 138 153 169 148 150 116  76  66  71  89  94 100 102 101  95  94  95
  99  96  98 104 100 100  95  83  79  91  99  99  93  92  98 102  92  86  84  78  56  38  37  36  28  36  63  66  73  83 111 124 149 146 142 136 154 154 149 159 167 171 174 180 190 193 189 184 189 193 189 170 161 173 162 129 107 107  95 111 116 111 134 165 137 112 115 113  96 108 106 102 118 118 111  92 127 167 147 139  97  71  71  71  89  97  99 117 115  98  96  95
 102 104 110 104 111 113 109  95  90  92  92  98  97  94 107 111  94  93  88  85  92  85  53  36  22  29  59  71  58  87 109 108 141 138 139 123 139 132 134 149 151 166 170 177 188 189 184 187 184 180 181 149 141 140 129 111 113 100  95 109 109 126 134 150 140 135 149 137 132 135 130  95 102  94  96  87 107 148 143 127  82  62  60  74  91  95 101 115 112 104 109 102
 101 100 113 104 122 122 115 106  98  99  94  92 104  98 101 107 103 100  98  98 105  92  60  43  20  36  62  61  67  88 103 107 131 118 140 134 138 122 115 132 142 156 166 179 190 182 169 170 166 161 152 124 118 110 121 121 139 141 137 140 149 173 168 170 166 168 161 150 153 154 143 124 105 100  96  94 124 146 128 122  80  64  52  76  94  98  99  96 104 108 104  93
 104  99 102 105 121 122 117 107 102 101 107 110 108 103 102 109 115 103 107 115 115  79  47  54  24  35  45  62  75  84  87 107 100 109 130 131 119 115 105 129 135 153 158 180 193 169 147 142 144 146 128 100  96 111 144 156 179 176 167 157 151 164 171 171 160 138 125 135 130 119 105 106 126 139 125 104 144 160 117 110  80  56  49  78  93  92  96  90  98 105  93  86
  97 101 102 116 132 136 121 104  93  98 105 104 101 102 106 117 127 122 126 128 117  89  41  56  28  24  40  59  70  68  87 106 102 119 113 108 102 108 109 119 131 151 145 179 185 153 142 132 108 115  99  86 118 146 173 173 164 148 132 128 128 121 123 122 114 108 111 111 105  97 111 165 189 178 164 145 153 155 102  99  81  52  48  85  88  88 101  91  94 106 103  93
  89  71  74  94 109 113  94  79  90  99  71  63  64  63  63  77 107 125 129 132 123 110  54  51  33  16  47  64  61  68  77  96 136 130 111  84  81 106 115 115 130 129 144 177 180 145 131 107  87 114 112 136 151 150 142 132 123 118 114 114 114 104  97  98 104 119 139 142 146 149 168 183 187 178 176 171 174 152 101  90  71  45  61  92  87  92 100 101 103 114 117 110
  84  61  50  57  55  77  83  67  81  71  68  77  77  84  89  74  66  79  76 103 121 120  85  63  42  11  34  45  43  51  70  81 118 130  83  78 110 104 115 124 124 112 135 174 187 145 115  86 116 139 128 118 100  84  83  88  98 104 119 127 127 124 125 131 153 166 164 156 156 171 176 183 190 184 179 165 173 149 105  88  61  38  70 105 102 100 101  99 115 124 133 135
  68  55  51  72  60  58  89  88  47  35  57  74  86  89  89  76  65  70  70  78  84  89  79  68  54  19  26  34  29  60  72  53  84 100  73 109 125 104 117 123 119 107 132 176 181 136 111 114 138 134 128 139 131 122 125 127 134 146 154 162 165 166 167 164 166 168 159 161 175 180 179 187 191 185 181 172 161 139  98  80  53  40  70  81  82  77  78  75  86  95 107 112
  50  54  51  69  71  50  65  78  77  81  88  79  93  74  52  65  67  71  87  68  48  52  60  58  64  36  23  22  34  60  48  54  72  79  76 116 113  82 116 117  95 108 141 167 186 150 121 129 151 166 180 180 177 177 176 173 172 171 166 166 168 170 170 159 158 159 163 171 180 182 183 192 193 184 178 172 152 117  85  65  36  48  57  49  47  52  57  53  65  80  72  68
  77  82  63  59  65  74  83  70  91  94  98  86  97  82  62  64  60  70  80  69  65  62  63  52  66  43  21  15  27  49  55  62  72  82  94 134 106  82 103  94  83  98 125 154 183 177 144 161 185 185 187 183 178 178 177 173 181 184 179 170 166 169 161 151 153 162 170 178 184 182 185 193 188 182 177 167 148 114  75  60  35  44  44  37  45  53  51  49  61  63  58  51
  57  67  65  61  60  62  75  81  82  77  84  77  90  82  69  72  74  58  55  62  65  54  59  52  64  52  19  16  19  33  49  60  68  67  75 114 119  99 103 119  97  67  84 134 172 184 170 189 187 180 191 189 187 189 184 176 174 179 179 176 168 165 161 163 168 170 175 182 181 179 189 191 187 181 177 167 148 117  86  54  35  49  52  50  49  55  56  57  47  51  60  56
  68  83  71  70  73  64  56  77  89 110  88  83  75  70  58  54  67  70  62  60  59  53  54  54  61  66  27  25  21  32  52  57  66  46  67 103 120 105 124 129  92  59  74 118 159 173 176 182 191 184 183 190 190 191 190 178 168 176 183 178 165 166 165 171 165 162 157 171 176 183 187 186 186 181 174 166 150  99  73  37  41  78  78  58  67  83  85  90  72  86  97  92
  83  83  82  87  89  89  75  76  93 109  98 105 104  93  92  79  76  98  97  90  95  92  90  92  80  71  41  27  17  26  39  38  58  71  75 119 111 117 136 107  84  42  82 127 150 159 179 184 196 191 185 188 191 194 192 185 178 172 165 148 144 155 147 143 143 161 153 160 173 185 188 186 184 179 169 152 131  82  45  50  58  73  80  73  73  78  99 111  90  99 111 106
  77  77  72  60  82 104  87  94 103  94  95  96  98  87  80  78  80 101  95  93 106 102  99 101  91  79  60  26  18  19  26  35  47  58  75  98 117 106 129 101  63  54  74 115 127 134 169 182 190 194 191 189 189 191 195 193 188 176 166 171 168 144 130 108 149 173 182 178 191 189 188 186 185 182 172 134 104  64  39  55  48  43  55  64  57  51  62  65  57  58  67  71
  85  82  72  57  55  73  65  64  72  71  71  70  68  61  56  58  62  74  77  72  86  92  85  81  78  74  83  43  19  24  28  30  39  66  77 103 116 115 146 119  83  63  87 111 133 137 158 177 173 177 184 188 189 190 194 193 193 189 186 183 177 167 126 129 162 177 189 194 192 191 188 188 186 185 183 123  72  52  41  40  34  34  33  32  32  31  30  29  29  29  31  31
  70  54  47  45  41  41  43  41  43  42  46  47  43  42  40  42  42  42  47  45  44  50  52  47  46  55  89  75  27  19  28  25  28  47  52  86 103 122 150 115  83  83  94 106 127 136 146 164 162 155 173 188 188 188 191 191 190 191 191 186 182 170 147 160 178 192 193 197 195 191 186 190 184 182 181 111  66  48  33  28  27  28  27  26  26  27  28  27  28  28  27  27
  37  36  36  35  36  35  36  36  35  35  35  34  34  34  35  34  34  34  33  34  33  33  36  34  30  53  87  88  44  23  28  28  22  29  48  77  75 107 140 114 111 101  95  99 125 140 135 149 177 173 173 183 189 189 191 193 192 192 192 191 190 187 176 191 194 200 202 203 201 195 191 193 182 179 166  92  50  41  28  27  28  28  28  27  28  28  27  28  28  28  28  28
  35  34  36  36  35  35  35  35  33  34  34  34  34  34  34  33  35  34  33  34  34  34  33  34  25  95 102  86  65  38  35  31  34  25  25  32  54 121 137 122 109 107  74 113 125 130 146 157 164 175 178 174 181 191 195 194 193 197 195 200 206 207 204 198 187 197 198 199 200 196 198 191 180 177 166  83  33  36  30  28  28  28  28  28  28  28  27  29  28  28  28  27
  35  35  36  36  36  35  36  35  34  34  34  34  34  34  34  33  34  34  34  34  34  34  34  34  21 121 137  83 101  58  49  41  38  42  27  37  60  87 108 101 115 115 108 110 110 120 129 148 153 174 181 175 178 186 198 196 196 201 202 210 213 210 201 194 183 182 190 195 196 189 180 177 164 150 133  62  39  36  27  28  27  27  28  28  28  28  28  27  27  27  27  27
  34  35  34  35  35  35  35  35  35  34  34  34  34  33  35  34  34  34  33  34  33  34  34  35  23 125 187  88 108  97  76  59  32  51  40  51  67  72  84  92 102 125 111  79  95  99 100 131 156 149 169 177 180 182 200 201 205 206 206 204 207 203 195 192 191 190 194 194 189 167 149 140 132 119  79  32  38  32  26  26  26  27  26  26  27  27  26  26  26  27  27  26
  34  35  35  35  35  34  34  36  35  34  34  34  34  34  34  33  34  34  33  33  33  33  33  31  34 138 213 138  81 106 106  65  41  35  51  60  53  66  47  59  73  78  60  72  83  83  64  99 129 136 150 165 189 183 192 200 197 203 200 198 197 198 195 180 179 200 197 178 171 144 115 103  99  94  54  34  35  27  27  27  28  27  26  26  26  26  26  26  26  27  27  26
  34  35  35  35  33  33  34  34  35  34  34  34  35  33  33  34  34  34  34  35  33  33  32  34  70 154 195 211 111  88 121  92  55  48  45  49  47  46  56  65  61  42  63 102  97  67  45  68  83 109 115 153 180 173 167 192 176 191 176 170 189 193 180 182 161 180 187 140 146 123  94  87  80  69  39  44  41  27  27  26  26  27  26  26  27  26  25  28  25  26  27  27
  35  35  35  36  34  34  34  34  34  34  33  34  34  35  34  34  33  34  33  34  34  32  46  60 106 165 180 220 203 109 106 111  97  62  45  37  42  45  53  65  75  75  80 102  85  68  50  42  44  65  97 126 153 141 138 157 157 173 181 163 173 185 173 167 139 160 168 120 123 106  82  78  59  53  42  52  43  28  28  27  27  27  27  27  26  25  26  27  26  27  28  27
  35  35  35  36  34  35  34  35  35  34  33  34  34  34  34  34  33  34  33  34  31  39  64  64 123 170 181 202 231 205 110 102 122  69  46  52  55  50  44  44  72  93  88  76  68  75  40  38  34  56  80  93 108 109 104 120 129 131 154 157 144 159 173 152 115 112 140 108  98 104  77  61  47  52  60  54  42  27  27  27  27  26  27  27  27  26  26  27  27  28  27  27
  36  35  35  35  35  34  34  35  34  34  34  34  34  34  34  34  34  34  34  34  37  53  64  68 136 171 186 202 214 239 205 105 111 112  64  72  87  59  35  46  63  61  66  80  79  68  47  38  31  51  54  58  85  94  69  87  80  96 135 135 103 124 144 132 110  92 100 103  91  88  69  62  39 127  88  60  49  30  26  28  27  27  26  26  27  27  26  26  28  27  27  27
  37  35  35  34  35  34  34  34  35  36  35  34  34  34  34  34  34  35  34  32  46  57  65  68 136 175 187 205 215 221 238 215 142 103 103  87 110  75  35  54  59  44  41  55  58  74  75  50  41  44  35  40  65  72  60  57  60  71 102 103  90  87 111 104  96  87  80  81  84  72  55  37 104 229 101  51  51  30  26  26  27  27  25  25  27  26  25  25  27  26  25  25
  35  36  36  35  35  34  34  34  35  35  35  34  34  34  34  34  34  33  31  37  52  55  65  66 121 181 189 206 218 221 227 242 229 144  98 116 121 121  75  62  72  72  45  41  36  37  43  50  47  41  31  27  37  48  49  48  52  54  63  65  90  81  85  81  89  76  72  67  58  54  30  83 209 239 114  53  53  29  26  26  27  26  26  26  27  27  27  27  26  25  25  25
  34  35  34  34  34  32  34  33  33  33  33  33  33  34  35  34  33  31  37  52  55  60  64  66 106 184 192 209 218 224 227 232 237 225 164 118 121 122 133 107  84  69  43  39  34  30  28  28  28  37  39  37  37  41  33  38  48  49  48  50  70  73  68  71  67  68  49  53  37  48  60 174 232 235 132  51  67  32  26  27  27  26  26  26  27  27  27  27  26  27  27  27
  35  34  34  34  34  34  34  34  34  33  33  33  33  34  34  33  33  40  60  59  55  58  68  78  95 176 197 211 220 227 228 233 233 237 251 211 132 124 145 131  94  72  57  54  43  41  40  22  20  18  28  32  40  39  32  32  32  41  44  43  49  55  57  68  48  49  53  56  74  81 117 206 229 233 162  45  69  56  28  24  28  27  27  27  27  27  27  25  27  28  27  27
  35  34  35  35  34  35  34  35  34  33  33  34  34  34  34  31  42  60  65  54  59  60  73  78  82 154 204 211 221 228 231 235 238 240 247 248 220 160 121 130 128 139 105  82  92  80  67  48  19  26  26  23  20  22  33  35  33  31  38  38  47  47  46  57  48  55  77 103 112  79 168 226 228 228 190  47  62  70  53  27  25  26  27  27  27  27  27  25  27  27  27  27
  35  35  36  35  35  35  35  34  34  33  35  33  33  32  33  46  67  76  70  63  66  67  69  73  76 124 206 210 218 226 231 236 239 241 244 244 251 254 202 141 136 145 144 122 130 119  77  89  63  57  47  47  44  31  30  34  34  29  31  41  49  59  78  96  77  81 112 128  85 125 218 230 228 224 215  59  51  79  76  53  30  25  26  27  26  25  27  27  25  25  27  28
