P2
# Generated by OpenCV 4.2.0
92 112
255
  70  61  61  58  59  55  60  57  66  61  67  60  62  57  58  57  66  57  57  61  59  61  60  62  55  64  51  48  37  35  42  51  42  43  40  42  29  17   7   5   3   2  10   9  11  17  28  34  16   7   3   7   5  14   9  13  43  50  45  20  40  58  60  64  55  49  37  43  43  44  36  54  53  50  56  62 161 220 200 128 107 121 139 114  98  96 103 106  88  77  77  75
  59  62  60  65  57  59  64  63  67  71  67  66  59  62  68  66  72  71  66  58  58  54  54  59  60  56  32  22  19  27  54  55  46  34  32  24  14   4   2  33  41  50  48  37  40  14   1   0   0   1   9  20  16  11   7  11  20  30  47  51  29  45  50  52  55  55  46  34  45  60  50  37  44  53  58  62 172 220 211 119 125 146 140  97  96  96 103  92  70  70  73  76
  70  65  68  72  67  62  67  66  66  85  71  68  60  62  77  67  66  67  66  62  58  58  62  59  48  33  27  45  60  65  62  57  57  45  42  27  21  40  68  71  86  52  29  10   5   1   0   0   4  14   8   7  19  16  14  11   9  10  10   9   4   4  28  56  42  42  46  48  37  60  55  49  49  51  68  62 162 206 218 136 110 135 145  96  84  94  89  71  68  66  70  74
  75  72  78  77  68  61  69  65  73  94  82  60  58  65  75  59  65  58  61  68  60  67  69  38  40  44  41  39  23  29  40  47  65  30  14  24  18  21  18  18   5   8   7   7   5   2   1  23  15   5  25  21  14  16  16   7   7   9  11   6   8   6   3  11  39  43  44  46  44  52  59  61  48  52  56  62 139 204 204 147 112 141 132  94  82  92  80  66  68  63  71  66
  70  69  80  73  69  67  70  62  83  80  59  61  64  65  58  56  60  63  65  62  63  66  31  47  50  41  15  15  14  18  19  14   8  12   7   7   3   6  14   2   3   5   3   7   3  32  13   6  15  22  28  10   5   1  12   0   1   0   1   3   8  11   3   3  17  23  24  39  40  39  56  64  59  57  64  66 159 219 213 130 120 135 145 115 103  75  70  71  70  63  65  76
  66  73  74  67  73  67  65  62  64  55  56  65  59  60  58  60  64  63  64  69  59  39  48  47  43  12  18  27  29  18  15  17  14   5  14   5   4   4   4   5   5   0   2   3   4   6   3   2   3   1   0   4   2   1   1   0   0   1   0   1   0   1   4   3   8  19  25  20  13  18  35  46  56  55  62  69 181 217 223  87 158 133 134 124  87  64  65  59  62  63  71  83
  66  69  67  72  69  61  61  56  54  55  58  64  64  62  62  59  63  61  71  66  59  41  39  47  27  41  44  32  24  30  25  10   5   9   6  32  32  21  12   3   3   1   1  12   6   0   2   0   0   1   2   6   0   0   0   0   1   1   1   1   0   0   4   1   0   4   9  20  29  26  25  21  30  38  65  97 184 220 138 162 170 123 128 110  75  60  54  55  66  77  72  71
  73  69  69  71  69  67  61  63  60  57  64  61  68  64  66  71  69  58  63  67  34  18  57  48  52  51  27  24  32  24  10  17  25  64  67  53  48  30  16  12   7   4   6  16   2   1   8   1   1   3   9   1   0   0   0   0   4   0   1   1   0   0   1  12   7   4   1   5   7  13  17  32  37  29  33  94 145  96 138 218 170 121 145 120  75  64  62  59  73  78  77  77
  68  73  73  71  72  74  58  70  60  68  72  85  67  66  75  65  63  44  54  26  44  64  66  49  39  31  24  36  18   8  15  22  58  71  65  69  76  54  32  13  10   3   2   4   1   1   8   8   5   8   7   3   1   2   0   0   4   6   0   0   0   0   0   1  18   5   9   6   0   0   0   2   6  19  14  12  55 192 206 171 142 132 146 127  84  62  62  61  67  71  69  73
  71  76  77  84  75  72  65  73  65  73  71  68  65  74  79  80  61  27  20  52  61  53  44  47  28  18  24  19  10  12  16  17  19  31  35  36  29  20  17   8   2   0   0   2   1   1   8  13  10  13   4   1   2   1   0   1   2   6   4   5   1   0   2   1  11  20   3   5   5   8   5   1   2  12  47  53  87 171 174 129 129 131 116 117 116  73  60  58  74  73  73  74
  71  72  73  73  69  67  68  78  69  84  77  75  70  76  86  67  47  38  27  62  56  51  48  26  13   5  24  12   8   5   9  20  41  59  45  45  28  20   9  10   7   1   1   3   5  14  18  15  17   7   1   2   2   1   2   7   1   8   3   3   2   0   1   1   1   9  28  15  10   2   1   3   1   3  29  72  40 123 119 103 115 125 125 123 125 131 144 140 128 110 107  76
  79  81  68  63  67  68  68  84  73  74  60  73  74  71  63  49  44  39  50  55  54  42  23   9   3  23  15   5   4  10  39  84  65  54  41  17   7   6   4   7   9  15  16   9  13  23  28  19  14   4   4   7   2   4   0   1   3   3   2   1   0   3   3   1   0   1   2  18  16   9   0   0   1   2   4  25  45  45  86 105  98  97 103 119 114 105 121 131 116 115 108  84
  85  69  71  58  61  72  73  76  73  63  61  66  62  59  62  51  53  39  59  46  35  19  13   7   5  28  10   9  18  79  90  68  31  45  20   0   3  17   7  11  14  26  32  30  21  34  28  16  16   6   9   3   2   1   1   0   5   0   3   1   1   2   4   2   0   0   0   3   5   4   7   2   0   2   2   9  29  23  51  50  54  63  60  60  69  70  70  71  71  84  93  80
  74  75  66  63  71  75  84  72  70  58  67  54  21  20  46  49  30  63  45  36  25  21  14  11  19  17   6  16  62  68  42  14  37  13   8  11  21  19  36  44  34  30  26  30  39  55  21  17  19  14   4   6   9   5   4   1   5   1   1   2   1   3   1   1   0   0   0   1   3   0   1   1   0   1   3   2   1  28  27  34  47  63  75  79  72  74  77  72  64  74  74  69
  68  65  66  60  69  73  80  76  66  63  74  17  10  12  84  49  42  48  36  26  30  21  14  13  20  11  14  69  71  28  28  37  12   9  17  10  14  20  17  12  20  43  29  59  70  34  37  29  20  16  26  18   4   2   4   7   7   2   1   0   1   2   1   1   2   3   4   6   2   0   1   0   0   0   4   1   2   3  29  33  19  37  85  86  65  73  74  74  67  67  74  68
  61  63  58  60  73  83  91  79  63  69  74  11  40  48  41  62  42  48  34  31  37  15  14  18  20  10  34  61  36  28  30  10   9  11   9   7  20  14  16  38  53  93  61  63  42  51  46  38  13   1   1   7  18   6   7   6   0   2   2   0   1   1   2   4   2   2   2   1   1   0   1   0   0   0   3   3   0   2   7  45  21  53  77  73  66  70  58  60  61  63  71  65
  61  67  61  69  64  79  84  71  62  50  28  15  25  40  52  56  27  35  44  64  32  17  19  32  10  18  54  36  20  22   8   9   6  11   7  26  21  10  16  27  24  20  58  66  47  25  17  10   0   2   9   2   3   2   3   2   1   0   1   1   3   2   3   4   4   1   0   0   1   1   0   2   0   1   5   2   0   2   7  25  23  61  66  65  62  59  56  55  65  60  69  66
  66  81  61  68  57  74  80  64  38  10  26  47  41  37  63  60  36  42  53  34  36  27  52  20  13  33  38  19  28   6  14  22  20   9  19  15  35  45  33  40  43  55  51  42  34  13   9   2   3   8   4   6   6   1   5   2   1   1   3   3   1   1   3   0   1   1   1   0   0   2   4   1   2   1   6   1   0   2   0  13  16  29  62  62  52  56  58  58  65  69  70  63
  68  70  62  72  62  66  72  67  11  39  33  21  23  30  41  26  41  38  50  48  26  72  34  23  13  53  17  24   3   9   8  20  12  10  42  70  45  18  12  62  79  55  29  25  11   8   3   5   4   4   8   5   4   1   6   2   3   4   5   4   3   2   4   0   2   1   2   2   0   3   4   8   2   1   8   2   3   4   0   6  11   9  54  63  53  55  73  81  72  68  64  69
  76  63  73  67  67  58  77  63  10  34  17  58  38  27  38  37  51  29  66  44  81  46  44  25  12  44   9   5   7  26  12  14   5   7  15  25   9   6   6  16  22  18  12   8  10  13  11  12  17  12   4   2   1   6   2   4   3   5   3   4   3   4   1   2   4   4   2   4   0   1   5  17   7   2   9   4   4   3   0   0   3   8  21  57  60  75  80  74  60  56  58  57
  72  64  73  62  69  62  98  76  10  18  72  54  52  24  13  44  31  79  80  75  64  71  37   9  22  34  13   8  21  17  11   8   3   3   3   3   4   3   2   4   7  12  10   8   8  15  21  20  18  14   5   5   4   5   7   5   7   7   3   4   3   5   7   4   3   1   1   1   0   4   4   3   6   2  10   2   0   4   3   0   3   4   7  77  78  90  80  66  58  55  59  55
  71  63  74  74  65  59  73  60  26  80  74  68  37  31  29  52  39  62  39  41  76  59   8   7  11  13   5  10  25  18  21   5  14   3   1   2   4   3   6   6  10  12  22  44  59  16  30  43  58  36  35  25  16   7  14  10   6  10  10  13  10   7   3   6   5   9   4   3   0   2   5   9   2   0   5   0   0   4   5   2   5   3  12  63  80  75  70  61  62  68  71  65
  75  70  75  72  59  64  56  40  69  81  51  49  62  28  26  38  25  16  23  57  58  19   7   7  18  15   7  36  23  31  24  24   4   4   3   9   7   9  12  19  10  26  32  45  65  59  50  44  70  89  58  46  45  45  42  28  21  16  13   8   5   4   6   4   3   8   8   2   1   2   3   9   4   1   1   0   1   4  14   2   6   6   7  58  74  78  68  60  65  70  63  59
  73  72  74  62  73  69  58  33  77  49  69  28  77  39  40  33   9  15  20  29  39  17  12  30  24  32  10  18  23  29  18  15   4   3   4   8  14  11  25  36  49  62  61  66  70  95  73  58  32  44  41  49  37  32  30  21  14  14   8   6   5   5   9   7   6   3   2   3   2   2   5   9   5   1   1   5   2   6   9   2   6   8   6  22  51  71  60  57  83  78  65  55
  76  76  67  66  68  53  40  77  83  76  22  79  78  53  27   6   5   6  35  23  36  21  38  38  38  40  15  12   2   3   6   9  12   8   3   7  15  23  19  34  69  78  81  66  65  71  69  59  47  34  32  31  26  22  20  10   9   4   4   4   6   8   9  10   9   3   4   4   2   3   5   9  13   3   0   1   2   3   4   1   4   6   9   5  15  40  52  57  78  65  61  54
  78  76  73  72  60  57  37  71  74  47  31  62  72  44  17   5   4  21  36  41  26  27  35  47  49  44  17   4   2   5   8  15  23  48  35  11  11  18  35  61  74  74  80  69  48  45  38  28  29  30  25  21  15   8   3   2   1   2   1   4   5  22   9  18   8   8  10   6   2   2   5  17  11   3   3   1   3   0   2   0   3   4   9   3   3  31  54  67  69  70  62  65
  69  66  74  65  60  53  49  51  46  35  30  65  50  29   5   3  16  73  20   8  17  26  43  71  40  54  24  17  13  23  23  34  53  74  25  44  24  65  62  46  48  61  52  40  35  35  36  24  21  29  25   9   5   4   1   2   1   2   3   6  10  17   9  28  12  13  10   8   7   4   8  19  10   5   5   2   2   0   1   0   1   3   2   3   4  48  57  68  73  75  61  60
  73  80  71  66  70  57  48  41  58  20  32  63  32  23  12  16  20  11   5   1  11  23  53  35  65  29  24  24  39  57  86  99  63  52  56  45  86  59  67  51  50  50  40  42  24  22  37  30  29  37  33   6   4   3   5   5   4   5   2   8  30  14  16  46  24  25  18  12  14   8   9  35   6   5   4   0   1   1   0   0   0  11  10   4   7  49  71  85  85  70  61  59
  71  81  62  68  56  53  35  27  40  25  27  45  37  26  22  22   7   0   2   2   3   3   3   4   9  13  13  23  45  60  63  63  63  53  37  47  56  71  54  50  52  48  50  32  31  35  60  57  51  60  55   7   6  16  10   6   4  10   8  29  35  12  23  61  31  37  24  21  27  11  11  15  10   4   4   1   1   1   2   1   0   6   8   3   5  21  66  71  65  55  58  64
  69  85  67  85  72  39  20  35  37  30  19  31  40  28  31  18   3   1   1   1   0   1   4   4   4   7  14  15  33  33  69  41  21  16  29  53  55  49  57  58  60  57  41  47  34  64  94  73  87 118  21  10  11  16  10   6  12  11  16  38  43  29  21  59  51  48  42  23  19  12  14  16   9   5   4   3   1   1   1   2   0   1   5   3  15  13  59  78  71  63  71  86
  62  67  87  86  57  46  10  25  24  34  22  18  30  32  37  13   3   1   0   1   1   1   4   4   3   4   9   7  11  17  16  21  24  25  28  32  45  64  76  62  57  55  37  44  36  82 120  89 119  91  14  17  15  16  11  18  10  26  28  63  48  58  42  66  71  51  37  21  20  15  10  17   8   3   1   1   2   0   1   2   0   0   3   0   9  21  42  64  60  67  71  71
  66  69  77  70  57  41  13  18  22  34  28  22  72  40  37   9   1   0   2   2   1   7   7   9   8  14  20  29  21  18  24  25  37  42  47  54  77  75  66  71  75  42  35  56  40 137 128  99  73  28  22  19  14  15  20  17  18  38  59  80  65  46  92  77  74  58  51  27  20  15  18  21   5   4   3   1   1   0   1   2   0   2   3   6   5  16  40  54  58  58  61  57
  73  75  71  78  50  32  13  23  19  27  22  30  77  47  39   3   0   2   1   4   7   4  10   8  10  28  28  22  17  16  42  42  66  65  54  62  91  82  89  78  59  41  35  82  51 126  61  70  34  25  26  23  20  34  20  18  36  63 113  79  64  59  95  96  49  60  43  28  24  20  21  22  11   7   4   4   1   1   4   1   0   4   5   4   4  23  50  54  60  64  72  57
  77  68  68  66  51  35  23  23  13  22  23  52  76  34  17   0   1   1   0   3   4   6  11  23  18  12  17  49  19  37  87  48  81  79  79  98 102  86  82  93  57  43  57  72  71 117  53  50  30  23  28  34  32  27  30  61  63  63  92  79  39  51 155  77  63  46  33  33  27  23  24   3   8  10   3   5   2   4   5   3   3   9   5   3   3  21  58  56  67  63  66  58
  73  68  61  52  36  26  23  19  13  22  19  60  74  14   1   0   0   3   7  15  14  19  17  18  40  29  32  15  11  56  82  56  90  98  74  83  82  88  90  94  90  61  77  59  67 101  65  55  27  27  50  44  31  39  89  85  48  59  49  30 155 157 157  82  44  42  28  30  22  25  18  17  13  10   3   5   9   5  12   6   4   6   7   4   5   6  55  53  53  55  55  55
  63  58  49  38  29  23  25  18  12  20  12  47  56   4   0   3  10  42  38  24  18  22  20  30  38  67  52  22  22  44  53  59  68  80  42  91  59  78  84  90  79  71  84  36  79  72  52  45  38  35  47  77  36  84  60  70  60  51  66  80  89 169  91  72  47  43  28  30  27  20  21  22  10   3   3  10  10   8  18  13   3   6   8   3   7   7  48  52  50  55  54  53
  69  65  55  38  27  22  18  15   7  11  19  21  47   4   7   1  15  30   9  11  27  17  12  25  35  71  50  87  78  42  36  71  36  31  20  67  58  43  89  64  65  66  59  77  73  53  46  56  38  46  54  61  63  52  53  31  54  63 129 132 143  99 126  63  43  29  30  28  27  35  39  16  14   8   5   7   4  15  21  14   6  11  13   2   3  10  50  54  55  54  55  52
  61  58  46  28  22  19  14  13  10   8  22  10  26   7   5  12  16  25  29  11   3   4   7  33  52  80  80 114  77  53  29  43  26  12  32  36  42  42  90  36  67  74  82  69  68  62  55  57  51  56  55  66  31  67  80  84  65 122  78  48 158 186 109  37  26  27  34  26  36  46  28  25  12  10   7   8   6  20  24  16  12  16   9   5   3  10  48  60  60  62  64  61
  55  59  44  27  21  19  11  10  11  10   7  11  12  13  12  13  17  37  16  13   4   6  14  42  80  95 137 151  97  25  17  13   4  12  23  21  36  47  48  23  43  84  70  68  61  64  68  59  66  61  51  56  33  34  54  60  60  29 142 194 198 123  54  29  21  26  26  52  54  60  46  32  23  12   9   7   9  27  25  61   9  25   9   5   2   6  64  75  75  77  77  77
  74  70  50  35  31  24  15   4  15  16   9  41  12  20  16  45  28  20   8   7   4   9  18  50  60  91 146 153  51  10   8   2  24  36  10  26  20  37  19  26  46  62  81  61  61  73  76  76  61  56  46  34  21   7  14  54 115 185 186 202 154  65  22  22  24  30  59  60  82  68  49  38  29  16  12   7  19  52  58  48  12  49  10   9   1   3  65  85  91  93  98  97
  91 102  79  49  34  30  15   5  25  19  36  19  11  13  34  62  29  16  10   7  12  36  31  60  71  75  93  64  18   2   3   8  85  59   7  50  10  16  10  26  76  63  82  69  61  69  87  72  66  39  20  16  22   9  13  99  85 157 207 134  73  24  21  25  39  81 103  86  57  88  76  49  39  30  34  11  23  57  59  31  17  63  12   4   3   4  67 104 105 114 116 108
 101 116  96  63  36  20  12   3  29  19  47  21  10  41  68  41  24   4  20  37  13  18  26  50  62  91  77   9   4   3  15  69 104  61   6  43   4   4  25  64  37  55  56  84  54  85  97  58  48  35  68 119  65   9   9  10  39  44  50  26  17  22  30  78 137 150  92  60  72  80  74  72  65  55  23  35  35  55  65  23  15  49  16   5   4   6  95 125 135 133 135 133
  99 106  84  57  52  43  25   3  33  28  55  18  17  38  31  31  84  56  32  15   9  12  22  48  62 104  66  18  60  22  77  87 116  22   8   4   2   6  15  17  37  28  77  35  59  81  65  32  49 161 147 156 161  46   7   4   7   8  16  13  24  80 164 186 194 169 129 116 137 153 137 114 117  50  33  28  49  43  69  20  22  30  12   6  14  16 120 134 142 147 142 143
  95 100  77  59  45  43  34   7  29  37  44  41  12  35  22  43  16  30  33  16  12  14  20  36  63 100 106  93  53  63 110  92  16   2   6   3   4   9  15  56  58  23  26  65 106  81  68 121 168 183 194 193 197 155  33  11   7  17  45  72 170 201 204 204 204 198 190 182 171 177 169 156  86  83  31  28  15  40  55  31  32  16  13  12  19  33 132 117 129 130 125 130
 125 113 100  74  66  52  43  17  23  58  32  59  10  15  41  37  18  24  31  26  16  17  20  38  63  69 100 155 164  70 103  98  11   7   3   4  15  64 132  63  12  22  50 106  79 118 169 200 208 205 211 210 204 196 160  93 117 177 177 184 206 210 208 207 207 203 199 195 185 180 178 166 128 134  60  16  17  14  39  58  37  18  17  22  31  48 100 107 118 126 133 127
 122 136 117  81  52  46  53  36  31  79  34  52  10  10  42  42  17  25  28  20  13  13   9  19  41  65  72 120 134  50  95  27   3  57   3   6  59 134  29  12  14  30  37  55 156 203 203 210 216 222 215 216 212 210 207 202 206 211 209 210 213 213 213 209 207 202 200 195 188 183 175 168 159 149 100  24  11   7  36  82  46  21  32  35  39  57 138 125 138 141 144 140
 125 142 130  95  56  49  61  49  31  37  25  52  13  11  33  71  22   9  14  17   7   4   8  24  63  91  36  28  12  13   5   6   5   2   6  17  41   7  13  15  32  33  54 174 209 215 215 220 225 226 223 226 217 226 224 226 218 220 217 216 212 211 211 210 207 204 198 192 184 181 174 165 159 147 122  83  13   8  24  74  54  32  36  43  40  88 174 147 151 147 151 149
 110 122  93  79  74  62  57  51  36  33  21  49  15  13  37  66  46  20   6   4   3   4  14  30  52  60  39  35   5   2   3   4   3   2  13  16  15  15  20  28  53  92 198 215 224 223 223 225 223 227 228 226 229 224 226 225 219 218 218 217 214 212 207 207 200 193 189 173 164 156 156 163 150 145 135 123  30   7  11  44  64  42  43  54  51 116 174 132 151 148 135 147
 132 134 113  92  86  74  57  37  30  23  10  27  14  12  16  25  41  60  16   4   5  10  18  31  36  42  23  26  48   6   1   8   7   9  11  12  12  16  25  39 120 189 209 217 226 228 224 224 225 226 227 224 221 221 226 222 224 220 218 216 211 208 204 194 186 183 176 168 155 151 120 115 146 143 136 128  65   7  11  31  63  41  38  63  85 159 125 125 143 148 123 138
 132 133 102  79  76  85  57  38  17  17  11  15   9  12  15   5  32  62  75   5   7  10  22  34  37  27  10  12  40  49  18  18  60  66  66  45  29  28 135  66 191 206 217 221 221 224 223 221 220 220 222 214 222 217 219 218 216 216 212 209 201 187 167 147 136 143 142 146 130 124 121 121 120 123 137 127  95  18  11  19  50  45  54  74 118 108 119 135 124 111 105 119
 129 126 102  80  74  69  62  37  10  12   7   6   8   9   6  12   7  30  68  33   7   9  11  21  31  35  42  33  25  37  52  35  52  47  37  24  72 161 104 146 197 210 212 216 216 216 219 215 216 217 217 213 213 211 212 210 208 205 200 174 153 113 107 106 119 144 175 161 181 171 159 144 125 125 131 129 120  45  13   8  52  53  57  98 125 143 163 106  91  82  91 107
 150 139  97  74  73  95 139  90  24  14   5   7   7  14   7  16   8  15  44  48  12  15  13  12  20  35  46  78 110  92  86  95  78  78 103 126 111 130  87 144 177 193 206 210 207 211 210 210 213 213 213 210 209 209 204 201 198 170 119 116 103 111 119 140 167 180 183 184 181 178 166 168 156 146 132 127 127  65  32   7  33  52  83 163 148 150 181 125  98  98 103  78
 100  76  53  34  50 136 166 168 131  21   6   4   8   6   4   7   9   5  15  33  39  17  35  60  56  69  78  74 124 118 108 121 114 120 125  99  98  84  94 123 134 143 166 177 192 196 206 208 209 209 210 205 207 201 194 187 181 159 149 136 136 140 147 153 164 166 175 175 173 172 166 162 153 145 133 128 131  87  43   8  27  62 132 177 153 157 160 129 118 105  81  62
  72  60  47  32  75 133 154 170 165  49  10   6   9   6   4   8  10  27  22  17  33  22  31  27  37  33  66  62  93 133 142 147 159 165 158 125  66 118 124 128 130 140 150 169 172 182 195 200 207 207 210 207 202 191 187 179 170 160 147 122 101  99 106  65  68  77 103 128 147 155 159 150 150 152 141 134 134  95  70  13  23  69 156 177 153 174 143 110 110 132 101  68
  67  62  53  33  70 107 108 148 163 126  28  15  12   7   3   9  17  28  50  52  31  37  37  35  40  54  69  36  35  66 124 152 145 128  54  75 167 162 155 150 145 146 154 159 166 167 182 192 198 202 210 207 197 191 180 168 148 127 108 131 128  79  85  95 112  63  76  67 121 112 148 147 157 162 156 140 134 103  60  16  24  66 162 179 147 185 108 100 109 107 108 102
  72  65  59  39  58 160 142 118  93 128  58  13  13   8   5   3  24  47  57  96 112  63  58  63  70  60  71  80  42  37  28  29  30  40  98 134 117 108 123 103 109 121 131 133 143 151 166 182 195 200 216 214 200 193 177 153 137 132 145 140  87 128 103  66 129  92 178 142  62 105 133 153 168 169 160 151 137 111  33  21  45  86 170 179 153 188  82  77  95 120 109 137
  74  74  57  50  48 171 165 156 128 143  70  23  14  13   3   4  17  47  60  97 133 124 106  91 101 107 128 136 132 113  94  91  95 122  68  53  61  79  83  92 150 138 112 134 140 140 149 175 195 207 217 215 208 198 171 152 153 161 159 160 155 153 107  91 136  94 172 162 121  83 131 165 171 174 170 161 143 125  27  19  51 141 178 184 156 174  84  71  83  94 104 128
  92  82  73  58  55 176 166 173 147 159 145  51  22  16   4  11  17  40  67 100 138 130 124 115 111 135 151 150 143 145 130 107 101  41  56 117  56  87 138 123 159 142 156 143 156 160 139 164 191 205 218 218 209 200 167 164 162 204 149 170 184 132 139 137 129 163 159 145 142 113 145 163 172 178 174 167 152 135  41  18  75 161 183 194 168 148 139 127 101 106 120 136
 109  86  87  77  66 167 162 186 155 157 177 134  52  17   9  13  22  51  38 111 140 136 132 133 149 154 158 160 150 151 120  97  44 142  83 135  92  98 146 157 214 192 129 174 174 176 163 155 187 204 217 217 209 199 172 179 182 195 155 169 171 182 191 178 158 150 139 147 140 144 172 170 176 182 179 171 154 142  73  20  93 177 182 203 172 132 137 142 142 137 132 122
 131 116  84  64  72  99 172 181 172 155 181 179 139  45  17  17  16  45  49 120 143 138 138 141 160 161 165 162 152 158 115  75 126 155 178 108 147 158 122 205 187 170 147 153 206 191 172 158 184 201 211 216 210 199 177 177 196 207 204 175 166 177 179 185 175 166 170 151 153 177 185 184 183 181 178 178 159 144 100  22  79 172 183 195 173 103 129 113 102  97 123 131
 118 109  84  66  73  54 177 171 195 152 181 186 159  91  33  32  26  26  58 101 138 138 139 156 162 166 170 169 156 148 142 108 143 152 153 150 154 181 174 177 194 181 181 194 205 190 166 166 183 199 207 212 210 206 179 168 180 191 187 174 166 165 173 178 176 173 166 171 182 186 191 185 184 183 182 177 165 146 113  33  94 164 184 174 176  94 108 101  87 108 106 112
 110  89  81  70  65  59  76 193 169 154 188 186 185 161  54  66  20  20  67 105 134 135 138 158 171 176 178 175 164 169 166 142 134 148 156 159 181 168 180 179 165 166 176 197 200 178 156 168 173 190 207 208 210 203 179 168 176 187 192 190 178 172 179 182 183 186 184 185 192 193 189 185 181 184 183 177 160 143 124  54  99 161 192 162 168 109 118 125 132 120 106 107
 127 100  96  64  61  67  66 126 194 156 194 192 192 177 105 119  27  22  61 109 136 133 145 161 176 182 182 183 183 184 181 176 161 146 153 166 171 177 176 179 179 176 187 196 193 172 158 167 170 187 202 208 208 205 180 172 174 188 193 195 187 184 184 187 188 190 184 187 190 188 187 186 186 185 181 177 163 140 116  56 132 158 173 183 158 115 116 130 138 131 141 131
 113 107  77  67  65  75  71  73 174 153 205 192 194 188 150 173  66  20  56 100 133 133 146 163 179 182 185 186 190 185 188 186 181 176 171 173 178 190 182 178 182 191 195 193 185 173 167 170 163 179 198 205 206 206 180 170 175 182 201 197 199 192 192 189 189 195 197 192 192 195 193 191 184 183 183 178 160 135 120  61 142 171 170 187 151 122 126 132 130 131 131 144
 127 104  68  66  80  74  69  68  91 149 210 193 194 205 160 181 137  13  61  91 134 136 145 166 177 182 185 185 187 190 189 190 195 192 191 193 192 190 189 194 194 198 202 194 186 175 170 168 157 177 200 204 207 200 183 160 175 179 190 207 210 208 201 193 194 195 196 196 197 195 194 191 189 188 178 178 159 131 125  62 177 184 175 183 145 129 119 128 140 149 149 142
 128 105  80  71  79  79  74  78  79 154 197 188 185 211 163 185 161  21  53  89 135 133 138 162 177 184 185 187 187 189 194 194 195 200 202 205 202 199 197 198 200 205 205 197 182 175 173 161 154 175 196 203 208 205 188 163 169 177 188 202 212 214 208 210 202 202 204 199 200 199 197 190 192 186 180 179 158 134 126  64 181 178 183 185 146 129 126 130 152 146 140 132
 140 116  92  78  80  86  79  79  78 149 177 187 176 196 154 181 182  70  48  68 133 128 132 148 174 184 187 191 188 189 194 199 201 202 203 203 204 201 197 204 206 212 206 193 183 178 170 155 161 180 194 208 211 206 190 170 161 171 183 192 207 213 212 206 209 206 206 204 203 201 197 195 192 186 183 176 152 133 125  73 164 183 194 194 150 121 126 134 136 132 135 119
 149 127  99  79  74  82  86  77  72 111 155 191 175 167 164 160 192 155  50  54 122 129 128 145 170 179 187 189 190 189 194 197 201 206 205 202 205 205 208 207 212 209 203 192 183 172 161 151 169 182 197 207 211 208 195 176 164 159 182 201 206 209 211 211 207 205 204 202 203 199 197 196 194 187 182 172 158 134 117  86 167 200 203 194 141 115 112 126 128 141 146 141
 146 150 101  89  88  78  85  80  76  96 170 178 193 167 183 165 183 179  67  38 121 129 126 137 165 173 186 189 191 193 193 198 205 205 208 208 208 212 210 207 207 207 202 192 187 162 146 161 173 183 195 199 205 206 202 187 172 158 158 196 213 214 212 210 207 204 204 201 199 200 199 196 192 186 179 170 156 138 114  73 176 203 204 186 122 122 118 126 134 149 137 103
 152 144 130  96  76  83  78  80  72  77 160 170 169 180 190 169 159 183 101  46 107 133 126 136 157 173 185 188 193 191 194 200 202 206 205 206 210 202 205 205 206 206 205 201 170 149 148 164 180 185 197 203 204 204 195 194 176 162 164 171 207 220 216 210 205 207 200 200 202 199 195 194 191 185 179 171 154 144 108  64 147 189 196 172 130 134 137 129  90  83  73  66
 157 149 136 108  85  80  86  76  76  78 134 176 165 181 179 176 166 170 133  51  89 128 125 130 152 171 183 186 189 190 191 197 200 202 206 208 203 204 207 207 210 212 215 193 146 151 150 170 182 192 199 203 206 204 199 185 178 164 168 168 196 215 221 217 209 209 202 199 200 194 195 193 185 181 179 169 155 144 117  58 155 171 178 123 121  94  96  95  98 111  79  95
 155 164 144 127 107  96  88  80  86  82 102 162 174 190 178 184 186 166 109  55  62 116 128 130 151 167 183 188 187 191 196 193 200 198 202 200 202 203 210 206 214 220 209 162 153 160 157 170 186 193 199 204 199 203 201 189 176 166 176 171 178 211 212 216 215 210 207 206 200 198 194 190 187 181 175 167 155 144 107  59 137 153  97  81  90  63  90 116 118 105 114 124
 152 165 161 149 111  92  85  76  78  83  95 174 189 194 197 186 185 164  98  37  48 112 123 124 144 163 172 184 182 190 192 198 200 195 203 200 199 203 208 215 221 214 199 154 156 163 167 173 183 194 200 209 210 212 209 192 171 172 181 172 162 210 210 214 216 216 207 205 203 197 197 187 179 175 172 167 154 142 103  73  54  47  90  69  73  60  74  95  89 107 118  88
 172 177 163 166 132  99  85  82  87  76  91 163 186 196 205 201 180 174 169  49  50  88 129 129 139 156 166 179 186 187 189 194 194 196 201 200 200 203 206 218 222 215 196 143 160 163 174 170 176 190 204 220 223 216 203 192 170 172 172 162 158 209 207 208 215 214 210 210 200 199 196 185 174 173 168 169 154 137 103  71  50  54  81  60  61  58  73  98  85  86  79  57
 155 165 160 155 140  86  77  88  78  90  92 116 178 195 202 198 182 187 165  51  63  73 115 133 138 146 165 176 182 184 183 189 193 198 194 198 200 204 213 219 219 207 195 146 156 156 161 158 160 179 197 206 205 205 196 183 156 148 109 134 174 205 208 207 208 212 204 205 202 194 194 181 173 172 168 164 155 133 103  57  51  93 101  98  72  69  62  59  70  88  79  57
 152 140 130 106 113  96  99  76  69  68  56  64 152 188 195 191 190 189 153  57  59  82 116 129 141 154 155 169 177 183 186 188 190 194 196 199 200 207 211 216 215 204 197 135 143 114 125 102 115 145 172 188 187 185 182 148 117 139 130 159 191 203 204 207 201 208 208 203 200 195 188 180 171 170 166 168 151 118  93  54  48  72  72  53  52  67  72  70  66  83  78  72
 104 122 114  87  99 115  61  51  65  43  51  46  49 152 181 186 183 170  90  49  50  60  99 125 141 149 146 164 173 179 180 187 187 192 194 201 198 204 211 213 206 201 193 181 128 142 168 167 151 108 113 138 141 153 130 134 129 139 164 187 201 202 199 200 197 200 202 203 197 195 188 182 166 169 166 158 129 112  78  63  40  76  72  74  83  93 108 117 104  95  89  94
  88 136  85  88 125 105  83  49  43  57  47  49  62  58  54  92  69  38  33  52  41  65  87 123 139 145 160 160 168 176 181 181 187 191 193 197 199 205 209 208 200 201 198 188 181 165 148 163 138 155 152 125 113 126 156 155 116 112 150 186 195 195 197 199 199 195 195 201 198 191 188 180 169 165 160 138  89  82  92  54  40  66  71  83  88  85  92  79  62  76  76  82
  94  93  81 118 120  92  68  50  50  33  29  50  52  51  49  36  35  37  30  21  39  58  70 121 131 154 157 160 165 171 172 182 183 190 193 198 201 203 204 198 198 198 198 196 181 164 122 103  96 143 161 163 173 164 152 146 105  71 101 157 166 178 186 194 197 195 187 186 194 196 185 169 169 156 152 145 101  90  65  50  43  76  69  81  74  75  80  87  66  77  95  68
  88  87 127 108  80  95  53  39  34  33  47  35  25  28  29  28  30  34  29  19  35  52  74 114 142 145 158 161 162 165 163 177 180 187 194 195 202 199 200 194 195 195 198 194 187 123 126  86 110 155 149 162 186 167 129 135 103  77  79 104 154 132 169 171 189 189 184 177 189 192 180 169 167 150 141  94  91  98  58  70  52  88 102 105  99 110 108 115 119  89  94 101
  72  98  88  86 163 108  70  40  30  31  29  25  24  26  26  26  26  26  27  20  28  45  80 107 130 138 150 152 167 160 161 169 173 186 189 194 197 196 191 191 189 184 187 185 177 115 122  91 107 118 137 120 177 166 131 114 107  88 101  71 122 112 123 144 163 169 171 170 172 192 177 164 172 154 119 115  84 109  85  55  40 100 113 113  82 107  97  86  91  95  93 104
 130 103  74  75  90  86  91  48  32  28  28  26  23  25  25  24  23  24  22  24  29  41  73  91 132 128 147 127 144 144 154 158 174 181 184 192 194 189 185 183 188 169 169 170 146 109 156 114 127 115 145 120 178 161 148 122 122 120 103 103 117 112 118 147 133 133 132 151 158 188 171 165 165 133 103 104  87 102  75  55  37  94  87  65  75  83  84  87 105  93  91  91
 102 103  86 103 103 101  96  65  42  40  46  39  41  38  34  37  39  41  39  37  26  46  76  64 116 104 138 137 123 119 129 140 159 172 187 190 188 180 167 175 165 148 143 139 122 119 123  87 126 118 136 143 160 172 146 147 142 147 147 141 157 130 111 137 120 125 123 109 151 188 163 155 151 129 105 101  62  97  68  35  46  70  75  64  80  99 100 103  98  90  78  62
 138 110 146 157 152 139 135 110  94  64  70  67  63  54  58  54  64  62  62  52  21  43  43  70  86 100 119 150 109 112 114 124 154 166 181 186 169 162 166 158 150 123 135 127 133 152 152 155 138 151 158 158 171 160 162 176 174 160 172 166 164 154 140 150 123 110 121  94 122 186 157 145 145 121 108  87  64  96  84  44  40  51  67  69  85  77  80  83  97 117  95  90
 129  94 138 151 151 141 151 121 110  76  78  77  73  66  66  60  66  65  60  63  39  35  50  77 118 124 106 114  87 117 112 130 152 141 179 178 157 150 128 138 136 110 125 157 154 183 177 181 175 167 185 197 208 196 175 155 153 158 153 151 141 136 135 126 139 150 121 125 129 174 159 139 144 126  97  82  70  56  66  38  42  47  58  57  57  54  56  59  73  74  59  64
 155 111 138 130 147 149 157 157 121  80  58  52  47  61  68  50  50  54  49  48  44  19  39  88 110 122 119  84  82 114 108 135 122 135 174 171 133 136 116 129 114 134 147 173 176 172 166 155 142 150 144 146 147 137 139 134 143 132 120 112 101  93 122 167 174 169 139 139 140 185 158 142 117 101 102  83  71  45  55  36  48  47  49  48  47  48  47  49  49  51  48  50
 134 144 143 138 157 122 142 155 102  52  44  49  58  77  58  50  57  45  37  50  38  19  34  60  80 108  81 108 131 111 113 114 116 131 169 183 149 111 106 143 148 155 152 140 138 143 137 143 139 146 141 123 122 120 101  97 115 129 148 153 149 150 176 192 190 185 172 149 154 188 160 126  94 101  94  51  74  61  27  37  51  47  46  47  46  47  45  47  47  48  48  48
 131 116 130 125 133 133 121 120  84  82  77  75  79  76  59  52  40  28  30  34  49  15  23  38  57  76  78 102 125 121 117 120 102 127 167 179 143 114 139 165 148 122 108  91  95  97 111 120 132 131 129 121 125 134 146 152 159 161 161 160 163 173 183 188 183 185 188 172 174 182 154 142 104 101  90  73  69  46  32  37  41  43  46  45  47  47  45  46  44  47  46  46
 100  92  96 101 111 102 107 108  85  87  74  67  61  57  55  47  31  30  28  24  27  13  22  56  49  80  94 128 126  92 117  83 109 135 167 178 144 133 140 161 173 184 178 165 161 148 146 158 163 168 169 167 161 162 171 177 168 167 166 182 177 183 188 188 186 187 184 170 184 182 160 127 110 103  77  51  61  45  30  45  46  47  46  45  47  46  45  45  47  47  47  45
  68  70  71  78  73  72  73  68  64  68  62  59  54  54  53  42  26  22  23  21  19  22  18  29  46  72  69 135 124 122  78  88  95 121 159 182 161 141 159 186 182 184 179 177 174 170 178 173 172 171 172 177 172 171 173 171 176 179 182 187 183 192 191 186 184 184 185 178 178 179 146 125  76 101  70  54  42  26  42  43  45  47  48  47  47  46  47  44  46  45  46  43
  60  62  67  67  59  64  62  61  65  60  56  57  57  56  56  42  25  19  19  18  19  21  22  20  33  37  55 103 128 104 113  91  70 101 155 176 171 163 190 184 183 181 182 184 181 175 178 176 175 170 178 176 174 170 169 170 175 178 188 191 188 191 194 189 187 179 181 179 174 155 151 118  79  67  74  45  26  30  42  46  46  42  44  45  46  48  46  47  46  48  47  42
  62  60  59  57  60  59  59  55  59  60  55  56  58  57  55  43  29  18  18  17  17  21  21  13  23  47  78 119 125 120 145  78  67  76 131 173 165 176 185 188 179 182 182 186 185 181 182 187 186 182 175 170 170 171 176 181 183 192 189 184 192 193 195 186 186 181 180 181 167 169 152 116  88  79  71  41  29  30  45  47  44  41  42  42  47  47  44  44  45  43  45  45
  57  58  58  57  61  59  60  59  58  57  54  56  56  58  54  46  30  21  18  17  19  22  21  21  17  25  55  94 103 118 139  79  52  84 145 165 173 181 183 191 181 178 180 186 186 181 180 187 187 182 166 177 175 168 169 172 171 181 188 190 197 193 191 189 184 183 179 179 175 158 131 111  92  81  66  26  23  37  43  44  42  43  43  45  45  43  42  44  43  43  44  44
  54  58  57  55  58  56  58  58  57  55  55  55  57  55  54  45  31  19  18  18  18  19  17  19  27  18  43  75 120 104 151  91  62  68 117 144 163 180 186 187 186 183 182 185 187 184 183 174 172 147 171 148 157 139 160 179 158 179 179 197 195 193 191 188 184 180 170 174 176 153 141  83  63  83  40  21  25  29  42  43  42  42  46  44  44  42  41  42  45  43  42  43
  55  57  55  55  55  52  57  52  54  52  54  55  58  51  54  48  37  20  19  18  19  18  18  18  25  17  25  37  81 115 154 113  58  88 117 142 162 179 185 183 182 184 182 185 189 191 191 178 174 189 174 162 126 123 180 193 195 187 200 196 196 192 190 185 181 183 161 151 151 137 103  81  49  76  31  27  26  34  40  46  47  43  43  42  43  43  43  43  44  43  45  46
  54  58  52  54  54  55  53  54  56  53  53  51  55  54  53  48  38  25  19  19  17  17  16  18  26  18  15  31  56  81 126 110 119  97  92 126 151 164 180 154 165 180 183 185 189 191 193 196 194 185 194 180 148 165 181 199 196 201 199 198 198 193 194 186 185 185 167 134 141 115  72  65  42  31  29  15  22  35  42  43  45  46  44  47  44  43  44  46  44  47  47  45
  56  54  57  54  55  55  53  54  56  55  56  54  52  55  54  53  39  25  19  18  18  16  18  22  19  28  19  20  22  78 123 101 120  87  96 121 137 144 173 183 174 178 184 185 189 194 194 194 198 195 192 173 184 194 197 203 205 205 204 199 194 194 194 187 183 192 183 136 110  90  60  47  47  49  56  16  24  36  44  47  43  44  43  46  46  46  46  47  42  44  44  43
  56  55  53  53  54  54  56  53  51  51  52  52  54  55  52  50  45  28  21  18  18  18  19  19  19  54  32  18  19  32 101  92  98  96 107 122 127 152 156 177 181 173 179 187 192 194 197 198 201 202 203 205 205 209 198 211 208 209 208 203 196 197 195 184 186 190 168 109  85  65  51  41  42 102 149  19  31  40  43  46  48  42  43  44  43  45  48  44  47  47  47  45
  56  54  55  54  54  53  52  54  53  52  52  50  49  56  55  53  47  36  22  18  19  18  19  17  18  33  55  23  24  41  52  82  87 109  91  85 123 134 159 160 183 177 174 182 190 196 199 203 204 213 214 213 214 208 191 204 204 205 204 198 205 196 186 183 177 183 157 100  44  50  41  33  53 141 186  29  34  46  45  43  47  45  42  46  47  45  47  47  44  47  45  45
  57  55  56  56  55  56  55  54  55  54  54  56  55  53  51  52  50  40  27  21  18  18  17  20  19  86  54  43  25  35  36  32  63  85  45  67  82  99 141 154 152 179 177 179 187 196 199 205 207 207 212 204 206 204 198 191 197 201 195 194 175 187 176 165 178 177 157  83  50  39  39  36  51 212 192  71  48  41  46  45  47  49  46  46  47  47  46  44  48  45  44  44
  55  52  55  55  58  53  54  57  58  57  54  56  57  56  58  56  54  43  30  21  18  21  18  19  21 174  72  77  47  30  38  39  43  43  32  63  68  74 100 118 130 151 181 180 182 185 197 199 200 204 209 205 207 190 202 210 205 202 191 173 174 150 152 143 128 130 107  49  46  43  38  44 142 220 195 133  68  69  49  48  47  47  44  48  47  47  47  45  46  45  44  42
  55  55  57  55  54  58  57  57  54  52  54  54  55  55  56  56  55  48  37  25  18  19  18  19  18 192 118  75  55  44  41  39  44  68  54  61  56  53  61  82 109 140 173 165 168 183 181 198 167 183 198 195 188 196 178 212 193 183 169 150 116 128 127 123  99  94  55  47  34  40  41  89 211 221 203 173  45  58  64  57  46  46  46  44  45  47  47  46  47  41  48  43
  57  56  55  56  58  54  54  55  59  59  53  53  56  56  57  55  54  50  42  31  22  17  20  19  18 187 189  66  62  39  45  43  36  50  73  72  58  61  44  48  74 127 144 161 145 152 155 186 163 179 197 192 175 179 166 190 164 140 155 119  94  94 108 101  97  61  42  43  39  35  60 160 230 222 208 183  51  39  58  70  63  47  45  43  44  47  49  44  46  44  47  42
  54  55  54  56  56  57  55  56  60  57  56  58  54  53  58  53  53  52  48  40  28  21  20  19  23 178 219 106  82  48  75  47  38  48  50  58  56  40  41  29  56  82 116 108 105 127 130 137 153 157 174 186 155 160 145 161 140 111 124 111 115  86  68  71  80  43  47  53  49  64 135 230 233 222 214 190 106  53  33  89  90  53  49  47  47  45  45  47  44  45  44  45
  57  56  57  56  53  55  53  57  58  56  53  57  54  52  57  56  54  54  50  43  36  24  18  19  58 170 214 169  90  99  79  79  38  62  51  51  56  71  52  29  46  59  75  64  76  89  81 131 153 131 141 152 166 145 104 130 127 102 125  92  78  63  73  53  46  44  42  63  99 113 231 239 230 226 216 194 169  47  53  76  84  65  58  48  45  43  45  44  45  44  44  42
  58  60  55  55  55  57  58  56  58  58  55  54  54  59  57  52  56  53  54  49  42  31  20  41  88 169 203 212  97  90 102 128  86  84  65  61  57  49  53  46  51  41  55  62  61  64  89 101 113 107 105 132 120 114 103  93  95 105 109  86  83  56  54  64  47  44  85 103 153 235 240 238 231 228 217 198 184  85  42  56  93  64  65  67  48  46  43  44  44  48  46  43
  54  56  57  56  57  59  57  56  56  58  57  58  58  54  56  55  55  54  55  53  45  37  29  69 100 173 190 218 208 117 103 104 144 107 102  54  47  34  42  43  33  29  28  51  51  53  58  87  64  89 100  99 129  98  93  98 107  90  76  71  73  54  52  50  61 118 122 129 238 245 241 238 234 230 219 206 191 154 150  40  85  71  69  87  51  44  47  46  45  46  42  45
  56  55  56  58  54  55  55  54  55  55  56  56  55  55  55  56  55  55  55  55  49  44  56  69 127 176 188 209 229 199 117 125 119 108 105  90  70  56  38  25  28  23  40  48  45  41  56  58  67  72  93  88  68  83  98  79  86  69  68  62  50  43  38  72 127 135 131 233 243 244 242 238 237 230 221 209 196 167 184 179 101  81  69  75  49  59  47  46  46  47  45  46
  56  57  55  57  57  56  54  59  58  58  56  59  58  57  57  58  56  56  57  56  53  53  68  78 128 180 191 204 224 225 190 133 148 105 149 141 100  78  86  55  22  23  22  28  41  32  45  48  50  53  63  60  94  94  69  77  67  46  55  64  52  66  88 129 170 141 225 242 245 241 240 240 238 232 224 212 199 178 119 202  95  76  71  77  56  62  59  47  44  44  42  45
  58  56  61  58  59  57  58  60  58  57  58  59  59  55  54  58  60  58  57  56  50  58  73 109 144 181 194 205 216 228 238 176 158 140 148 160 156 132 129  55  50  33  35  33  25  39  56  36  33  42  54  48  54  51  57  60  47  64  44  41  72  82 173 170 179 227 247 244 245 243 241 242 238 236 229 218 203 187 131 161 108  74  83  78  57  61  81  58  47  48  46  43
  54  57  56  58  56  57  56  57  55  56  56  55  57  55  55  59  57  55  56  60  53  68  76  80 152 181 199 205 212 224 236 235 180 164 152 150 154 158 126  93 123  57  77  64  91  34  53  41  41  33  41  38  44  62  52  78  69 103 105  99 119 155 163 171 231 245 248 245 246 246 243 240 240 234 229 220 205 195 153 125  87 104  85  84  61  67  70  57  58  58  48  44
  55  57  55  54  55  56  55  56  56  58  55  57  58  58  55  56  54  52  60  55  61  70  83  88 154 177 199 207 212 220 231 237 236 183 166 185 172 150 130 123 129 121  94 102 117 103  98  92  98 156 105 150 152 138 128 125 160 155 135 140 124 162 170 235 247 249 247 245 247 245 244 243 242 235 227 224 208 198 167 137 106  76  81  82  71  73  89  72  69  59  56  59
