P2
# Generated by OpenCV 4.2.0
92 112
255
 255 255 255 255 255 255 255 255 255 255 255 255 255 255 255 255 255 255 255 255 255 255 255 255 229 184 225 237 192 147 131 128 117 112 101 105 108 114 132 142 122 116  99  88  72  63  61  70  67  65  89  63  71 131 124  53  51  61  84 140 126 119 160 189 211 153 153 242 181 252 255 255 254 255 255 255 255 255 255 255 255 255 255 255 255 254 254 251 249 247 246 242
 255 255 255 255 255 255 255 255 255 255 255 255 255 255 255 255 255 255 255 255 255 255 255 242 210 216 204 171 133 132 130 131 130 129 128 130 138 130 104  77  72  68  54  70  73  70  69  66  65  63  74  87  65  76 113 112  72  44  39  94 142 134  97 148 148 118  88 144 167 188 255 255 255 255 255 255 255 255 255 255 255 255 255 255 255 253 252 248 247 244 242 239
 255 255 255 255 255 255 255 255 255 255 255 255 255 255 255 255 255 255 255 255 255 255 243 177 169 133 125 125 127 126 116 110 101  97 106 110  95  83  87  92  97 102 115 125 124 122 127 121 115 101  78  62  66  60  51  78  94  83  43  24  76 125 130 108  96 163 123 129 155 161 202 255 255 255 255 255 255 255 255 255 255 255 255 254 254 252 249 246 244 241 238 234
 255 255 255 255 255 255 255 255 255 255 255 255 255 255 255 255 255 255 255 255 255 255 198 177 150 119 120 109  87  70  69  71  78  90  95  99 104 116 119 109 105  99  92  94 100  99 103 100 100 109 108  91  82  80  69  47  48  64  83  58  27  19  65  63 100 115  86 139 149 145 164 217 251 255 255 255 255 255 255 255 255 255 255 255 253 251 248 243 241 237 234 230
 255 255 255 255 255 255 255 255 255 255 255 255 255 255 255 255 255 255 254 255 255 227 190 165 123 107  82  58  54  56  73  97  92  86  89  89 102 103 107 104 102  86  80  73  64  65  69  68  55  56  76  91  90  96 104  93  70  47  48  61  51  33  20  27  36  41  46  83 122 131 149 190 210 255 255 255 255 255 255 255 255 255 255 255 251 249 245 241 237 233 229 226
 255 255 255 255 255 255 255 255 255 255 255 255 255 255 255 255 255 255 255 254 250 176 141 118  89  56  48  43  46  65  75  61  53  64  79  96 117 108  91  81  66  59  58  52  46  46  57  61  65  58  61  60  55  48  50  71  73  67  57  48  41  41  35  35  32  35  40  74  93 135 126 191 212 232 255 255 255 255 255 255 255 255 255 253 248 248 244 239 234 229 226 222
 255 255 255 255 255 255 255 255 255 255 255 255 255 255 255 255 255 255 255 255 195 117 116  79  49  49  41  42  56  50  36  40  77 102 118 108  87  67  49  58  68  52  58  74  88  96  99  98 107 109 108  96  83  74  54  46  46  58  54  48  47  37  31  28  34  40  35  44  42  58 113 152 213 197 255 255 255 255 255 255 255 255 255 253 250 248 244 239 232 227 223 219
 255 255 255 255 255 255 255 255 255 255 255 255 255 255 255 255 255 255 255 201 110 121  80  50  57  43  50  52  35  35  53  99 105  91  78  56  55  70  78  93 100  95 119 118 104 100  82  71  70  63  56  58  65  68  68  65  60  51  36  36  47  52  48  43  29  30  32  33  42  55  84 138 198 164 172 238 255 255 253 255 255 254 254 252 250 247 243 239 233 226 221 217
 255 255 255 255 255 255 255 255 255 255 255 255 255 255 255 254 252 233 165  97 121  90  48  58  50  56  50  34  45  69 111  93  61  48  42  59  81  81  80  77  78  69  56  72  91  67  55  41  23  12  14  22  37  49  47  56  54  43  36  32  28  29  33  39  45  36  39  46  62  96  69 100 148 159 120 142 195 243 255 253 255 255 254 251 250 248 243 239 233 227 221 217
 255 255 255 255 255 255 255 255 255 255 255 255 255 255 252 237 199 148 112 121 106  59  67  50  65  75  48  60  87  96  60  34  57  68  77  75  62  46  49  52  63  61  49  71  77  69  53  33  30  34  73  90  87  79  63  54  45  34  29  36  36  29  27  27  39  48  48  47  38  62  55 113 203 248 230 231 181 223 223 252 255 255 253 250 249 248 244 240 234 229 225 221
 255 255 255 255 255 255 255 255 255 255 255 255 255 252 216 176 122 113 119 117  82  78  60  70  85  73  76  90  76  59  61  80  86  76  60  38  39  74  65  51  41  54  78  95  83  75  51  60  74 118 124 117  94  71  61  44  20  12  11  14  28  34  28  29  26  39  48  48  54  63  86 107 176 236 221 231 189 255 220 225 233 254 254 251 250 249 246 242 237 233 229 225
 255 255 255 255 255 255 255 255 255 255 255 255 248 200 190 144 129 133 116  99  86  71  75  89  76  80  89  76  75  93 101  74  43  26  32  58  84  62  46  46  43  99 114 116  81  77  87 104 134 117 102  79  58  56  39  24  27  26  29  21  18  28  38  27  31  44  35  33  42  59  74 101 105 130 177 186 199 208 229 194 195 255 254 253 251 250 247 243 239 236 232 230
 255 255 255 255 255 255 255 255 255 254 255 252 177 163 130 120 141 130 108  92  78  87  88  82  90  92  79  89  94 101  71  36  27  31  64  86  64  35  48  67 104 116 118 107  81  84 117 132 110  77  64  64  71  65  56  72  70  53  46  39  30  36  34  30  29  37  32  39  37  31  44  66  60  72 128 148 208 240 246 186 233 255 254 253 252 251 248 245 241 238 234 233
 255 255 255 255 255 255 255 255 255 255 255 206 131  83 108 146 142 126  99  92  87  78  76  94  92  77  77 105 106  62  21  28  39  71  87  45  39  59  81  91 120 124 104  93  77 106 124  99  73  80  89  71  60  72  69  50  37  29  29  36  35  33  35  39  32  34  48  41  41  32  26  21  42  80 117 100 140 178 197 217 252 251 252 253 251 249 249 247 244 241 237 236
 255 255 255 255 255 255 255 255 255 255 230 137 117 103 139 145 129 107  95 104  67  63  89  89  92  80 102 111  62  25  23  42  56  96  52  41  66  79  78  82 100 110  99  73  85 119 108  93 102 106  78  79  71  67  61  62  56  40  33  35  30  31  42  36  37  35  38  40  38  44  52  35  39  54  75  71  88  96 152 249 255 253 252 253 251 250 248 246 243 241 238 237
 255 255 255 255 255 255 255 255 255 255 178 104 116 127 133 111 116  98 113  63  56  83  74  81  71  95 116  80  30  43  49  56  78  73  39  66  67  56  71  88  87 101  87  71 106 122 116  82  70  74  82  80  56  43  39  35  38  41  37  33  41  36  35  35  40  40  44  44  41  38  47  51  46  59  67  63  62  55  70 187 251 255 251 253 253 250 249 246 243 241 239 237
 255 255 255 255 255 255 255 255 255 245 124 107 132 135 107 107 113 115  72  42  89  71  86  78  70 119  98  44  29  61  79  62  81  52  58  65  62  73  73  84  79  99  73  85 126 103  49  46  80  77  73  65  55  46  37  31  31  24  20  31  33  24  31  32  32  27  29  34  37  40  35  40  48  44  31  40  30  22  95 173 201 236 254 251 252 250 248 245 242 240 238 236
 255 255 255 255 255 255 255 255 255 193  88 124 121 115 100 112 113  88  31  75  90  96 107 106 107 110  65  44  37  64  85  75  78  56  70  54  59  77  75  87  76  91  93 124  88  43  54  69  60  46  35  44  54  49  28  21  24  24  14  19  25  23  23  27  30  26  18  20  20  23  27  31  23  22  27  37  40  39  88  79  96 175 234 254 249 251 249 244 242 240 238 236
 255 255 255 255 255 255 254 255 241 139 111 119 117 103 116 107 106  44  66  90 102 112 125 112 102  73  62  59  54  59  70  90  76  62  65  63  64  75  83  86  78  99 116  84  50  48  42  39  48  54  52  62  48  27  15  17  22  32  27  25  23  20  20  24  29  29  22  23  21  19  17  14  21  25  24  52  92  42  56  59  61 130 180 240 253 246 246 243 240 238 236 234
 255 255 255 255 255 255 255 255 187 110 108 117 102 107 111 105  81  54  91 103 113  96 107  95  68  49  70  60  64  60  74  93  80  78  65  76  76  80  92  76  95 111  80  44  37  34  63  60  45  46  52  44  31  10  15  26  30  46  41  31  34  28  23  25  34  35  29  29  29  29  23  13  21  38  38  56  74  32  59  79  76  75 144 171 237 249 243 242 239 236 233 231
 255 255 255 255 255 255 255 248 138 108 115 116 101 115 102  98  74  79 101 114  90  82  96  82  42  52  64  69  71  64  75  94  93  85  76  84  75  83  93  81 109  77  54  48  42  77  66  52  34  58  53  46  23  19  21  37  43  42  39  27  26  21  20  23  25  29  36  39  37  35  24  24  46  49  51  59  49  26  59  72  60  61 100 121 175 245 241 239 236 233 230 227
 255 255 255 255 255 255 255 232 118 105 123 107 111 102  92  87  79  88 117  99  84  92  88  63  31  39  68  83  71  72  81  90  95  92  90  86  87  89  85  88  76  47  41  44  92  54  49  41  56  58  54  55  20  26  45  61  60  42  46  64  48  45  27  25  25  32  35  31  30  33  40  44  44  37  53  58  45  44  76  63  45  80  81 110 145 206 243 236 233 230 227 223
 255 255 255 255 255 254 255 191  96 106 128 111  95  92  84  82  82 100 103  84  89  82  84  39  31  66  84  85  71  67  62  76  83  94  84  89  81  79  73  75  54  56  26  82  56  43  72  55  73  52  69  70  23  54  83 111  69  61 105  98  39  32  37  26  21  19  19  24  25  32  45  36  36  46  53  39  52  70  85  65  52  98  81 106 146 167 236 235 230 227 223 221
 255 255 255 255 254 255 250 141  96 121 126  96  95  83  85  85  87 100  78  80  72  71  57  24  58  87  71  85  66  57  55  74  74  89  80  87  76  70  66  61  82  26  63  74  31  59  59  73  72  55  83  59  41  70 101 100  80  96 104  58  30  19  31  44  28  21  22  26  32  36  32  25  30  35  30  37  47  72  65  31  48 109  88 114 137 147 214 235 227 224 221 219
 254 253 253 253 254 255 215 111 113 128 106  97  92  82  87  74  95  85  70  65  59  57  43  32  75  59  67  68  61  43  42  73  71  85  86  82  65  64  57  94  51  31  76  31  46  57  67  85  58  65  97  45  60  98 107  99  95 106  56  39  42  43  52  60  45  34  30  30  32  27  28  23  19  27  31  31  43  76  43  26  55  96  84  78 134 146 188 232 226 223 221 217
 252 253 253 253 253 254 173 108 123 116 102  87  94  87  79  83  89  72  69  64  55  59  30  45  61  60  64  52  33  33  53  58  66  83  80  65  64  54  77  72  17  62  38  46  47  53  88  83  58  83  86  44  93 102 108  93  97  60  35  41  39  60  81  47  46  26  16  21  24  25  28  23  26  25  22  19  58  50  47  46  67  81  69  57 126 146 167 228 225 222 220 216
 248 250 250 248 250 241 147 115 133 105  99  85  94  92  68  82  78  73  67  50  64  54  41  65  59  58  48  31  27  55  79  56  61  69  62  56  58  69  68  15  40  49  36  49  47  65  84  73  69  89  75  70 107 105 112 107  73  37  42  35  69  94  71  62  46  27  30  24  20  29  39  29  18  18  14  34  58  44  44  43  55  66  59  68 117 140 166 223 223 220 218 213
 244 245 245 245 247 226 131 121 124  94  95  83  90  87  71  75  71  67  46  56  79  82  81  69  47  39  41  43  64  89  76  47  59  60  56  54  55  63  22  24  54  43  42  47  67  59  73  56  67  83  63 103 101 107 131  95  50  53  42  68  77  76  75  57  33  37  33  29  21  21  29  27  17  19  38  53  47  42  36  32  41  62  54  57 110 129 158 218 224 220 215 212
 240 241 242 241 243 210 127 120 108  86  94  91  95  84  82  67  69  59  66  84  89  87  77  52  37  38  40  70  75  67  51  48  56  54  46  51  52  18  15  40  40  43  61  95  66  64  48  39  64  64  71 134 107 125 115  56  52  57  73  84  83  80  74  67  49  36  28  24  22  27  28  27  33  44  55  43  38  29  20  30  35  35  39  42  86 111 159 209 225 220 215 208
 239 239 240 241 241 205 116 111  98  90  83  85  86  85  65  51  53  60  98  77  77  63  48  37  39  42  47  58  56  48  41  54  44  45  44  45  24  19  42  44  33  51 105 102  57  52  31  46  60  56  92 131 111 111  63  54  68  87 112 111 103  85  68  58  39  29  25  26  25  27  26  31  37  49  50  39  26  16  25  37  31  26  23  42  82  92 180 209 224 218 212 206
 240 239 242 241 244 196 105 102  84  98  71  82  85  83  52  61  49  79  67  69  61  44  36  42  37  41  41  42  48  59  56  48  50  52  38  24  22  36  40  25  40  80  92  56  47  32  47  51  53  50 101 134 101  82  51  71  90 118 119 111  87  80  64  53  33  31  28  25  24  27  29  38  42  23  23  41  30  24  32  25  19  29  34  81 141  98 188 210 221 219 211 206
 241 239 240 241 245 196  99  95  88  87  77  88  95  69  54  58  68  67  54  59  37  39  48  43  42  39  35  41  48  61  56  48  43  30  18  16  29  35  25  38  63  74  56  43  27  38  48  47  49  60 127 114  86  95  62 104 138 149 125 105  81  70  72  69  61  46  26  22  25  30  34  32  28  33  59  52  32  25  20  20  20  28  36  69 118 124 201 217 218 215 210 205
 243 242 241 242 246 197 100  97  89  97  87  88  85  58  58  57  72  76  74  33  30  41  67  52  51  54  47  44  52  52  39  34  21  10  18  35  34  30  39  57  63  58  40  24  36  52  43  53  46 105 113  74 119 103  87 107 130 131 112  97  91  61  40  38  35  48  34  20  22  21  22  20  44  65  45  31  34  25  24  40  34  51  69  58  89 150 215 220 216 212 208 202
 245 245 244 244 250 196  93  95  95 104  92 100  61  61  61  73  70  63  75  62  33  30  76  83  75  73  86  72  68  51  25  23  25  28  34  35  38  49  51  55  52  30  19  26  49  45  40  51  81  91  56 110 124 113  97  80  74  57  41  59  59  53  49  41  28  20  38  39  22  18  23  40  75  61  44  41  35  32  24  48  53  70  50  51 102 127 207 222 213 211 204 198
 246 246 247 247 253 179  90 100  95  98  90  83  64  63  61  72  55  43  35  65  69  52  57  77  89  82  78  83  89  92  82  60  44  41  54  65  67  62  58  44  37  29  56  86  61  58  64  87  71  79 111 120  80  62  46  45  48  54  68  64  56  57  47  55  47  37  34  42  30  28  38  70  78  77  58  35  17  37  47  46  67  55  29  64 110 102 185 225 213 209 201 194
 247 247 248 249 252 155  91  91  79  92  84  83  74  52  59  55  67  42  36  26  47  54  50  47  60  77  63  48  43  54  80  81  62  71  78  63  57  60  66  52  54  68 129  87  91  79 103  75  82 116 113  76  36  27  32  44  65  66  69  66  64  53  47  42  40  52  46  36  28  37  50  70  60  54  39  30  23  32  42  64  83  21  49  58  76 102 189 224 212 205 197 191
 249 250 251 252 246 140  96  85  83  83 105  90  49  48  50  58  66  63  63  57  57  45  34  39  40  47  69  63  51  40  36  42  48  50  41  46  75  98  65  66  93 135 100  93  81  95  76  93 109  97  68  28  36  58  65  63  67  71  77  77  68  63  63  45  30  40  78  72  57  55  43  45  38  40  39  42  35  27  45  56  46  37  50  44  63 111 176 217 207 201 193 187
 251 251 252 254 237 123 107  98  84  92 113  64  40  40  55  45  57  72  65  53  48  39  35  30  23  27  38  50  50  58  62  59  54  69  75  91  87  85  82 110 129 106  92  90 113 101 102 122 121 111  43  37  61  85  94 112 120 117 114 113 112 103  82  47  34  38  50  68  92  51  46  48  34  67  67  52  49  51  56  64  40  39  34  29  61  91 162 212 204 195 188 184
 252 251 251 254 229 111 104  92  81  98  84  54  46  49  42  24  31  43  48  45  45  43  40  39  36  24  18  27  35  45  72  62  75  87  85  89  92 110 113 111  94  92  93 127 120 121 109 118 111  66  50  69 104 129 154 158 160 152 149 148 138 134 124  86  53  48  44  48  58  48  44  39  49  97  86  57  75  85  78  92  53  39  52  35  56  88 183 212 197 190 187 184
 252 251 253 255 217 114 101  95  87  91  58  62  43  39  26  35  26  18  27  35  28  27  29  23  23  22  26  23  63 109  85  69  71  69  93  89  89  81  79  96 110 112 130 145 124 122  92  63  57  58 100 149 167 171 174 167 172 172 168 158 142 143 148 113  82  62  47  42  32  45  41  33  65 105  64  66  98  94  92  76  69  39  66  33  66 118 198 203 192 189 185 184
 254 254 253 253 217 119  98 100  90  83  62  46  35  35  33  38  31  17  25  40  24  27  32  29  35  32  33  41  99 121  81  85 111 103  75  62  66  66  78 105 124 128 144 126  95  65  36  43  77 118 168 186 186 191 188 185 182 182 179 166 155 161 149 117 109  89  65  57  45  44  51  41  62  81  47  73  98  91  99  74  56  33  45  37  62 100 187 199 190 187 185 184
 254 254 254 255 229 111  92  86  96  92  55  43  41  40  40  37  37  39  39  40  29  28  28  27  36  35  59  78 144 124 111 111 130 133 135 124 122  89  69  70  73  86  93  82  66  74  65 107 159 188 192 191 195 194 192 188 185 183 180 176 166 166 144 144 135 105  71  68  54  47  56  45  52  60  58  81  94  91  98  82  37  31  47  40  64  97 175 196 188 186 184 183
 255 255 255 254 236 112  97 103 111  56  43  67  45  43  40  23  25  43  42  35  31  27  27  40  39  76 104 136 170 127 144 147 154 150 144 135 149 148 132 113  97  92  91 110 133 147 160 187 195 195 193 197 197 195 194 189 189 185 184 183 166 150 160 170 152 110  90  88  77  64  38  38  40  38  51  83  83  85  95  80  40  34  43  46  71 128 182 193 187 185 184 184
 255 254 255 255 244 128 100 111  80  38  63  60  40  48  35  25  24  36  33  29  21  22  37  53  47 117 119 171 171 161 177 182 187 192 191 186 200 201 200 188 175 167 169 176 183 189 196 196 195 196 199 199 199 200 198 197 195 194 190 185 176 169 167 171 157 123 110 120 108  77  31  30  38  36  47  74  94  85  98  62  49  46  51  40  58 136 194 188 185 184 184 184
 255 255 255 255 253 173  92 110  74  59  80  49  54  53  50  49  52  50  32  24  28  42  90  74  71 119 142 183 183 178 187 190 194 198 198 191 199 201 201 199 201 201 199 201 200 200 202 200 199 200 201 199 201 199 199 197 197 197 194 192 186 180 172 165 166 143 119 119 107  74  45  43  34  29  44  72  98  71  90  54  59  51  34  47  55 152 195 186 185 184 184 185
 255 255 255 255 255 212 107 112  70  79  74  61  49  60  59  59  48  41  32  41  66  97 156  79  76 131 168 183 185 189 190 192 199 199 199 197 200 201 198 200 199 199 199 199 200 202 203 202 202 202 202 201 200 197 199 197 196 196 195 194 191 187 183 177 174 156 131 112  97  91  72  43  31  36  51  79  90  77  85  49  67  33  13  54  52 125 195 186 183 183 184 184
 255 255 255 255 255 208  98 109  77  63  69  59  45  48  37  27  32  41  58  82 103 141 155  71  82 152 182 187 194 196 195 198 199 199 200 201 202 203 200 200 198 200 201 200 200 200 203 203 202 204 202 201 199 198 198 194 195 196 194 191 191 190 189 185 177 167 149 124 111 121  80  34  23  26  42  70  67  90  66  43  48  22  19  51  70 148 193 184 182 182 183 184
 255 255 255 255 255 221  99  90  92  67  70  42  52  51  38  34  38  57  77 117 145 169 168  73  88 168 188 189 195 195 196 198 197 198 199 200 200 202 201 199 200 201 202 200 198 197 200 201 202 203 204 202 198 197 195 191 190 187 188 185 178 175 170 174 177 174 166 152 128 134 103  49  22  21  58  58  60  80  48  40  43  29  27  47 102 166 189 181 181 181 182 182
 255 255 255 255 254 215 106  84  86  68  68  48  57  53  42  36  46  72 103 154 179 175 158  89  99 169 179 184 189 190 193 196 197 197 196 195 197 198 198 194 195 196 196 196 194 196 197 196 199 201 199 196 193 191 186 183 179 173 172 169 160 159 158 149 160 172 171 162 140 137 126  74  31  46  75  35  69  63  44  44  54  42  21  64 125 165 182 179 176 179 180 182
 255 255 255 250 243 247 164  88  77  79  52  54  49  50  45  39  57  83 128 170 171 150 138 118 114 150 159 159 170 173 178 180 187 189 190 190 189 191 189 188 189 190 192 190 190 190 192 192 192 190 189 180 167 152 145 141 136 134 135 136 144 142 144 138 131 135 151 165 157 148 136 105  59  71  36  46  56  46  46  38  49  77  28  65  81 167 222 221 205 182 177 180
 255 254 246 244 252 255 196  95 103  78  59  45  46  39  51  53  74 101 142 154 144 127 123 115 114 133 124 110 116 123 131 133 144 160 172 177 181 182 181 182 182 184 184 183 182 184 183 181 175 167 150 123 103  82  86  79  77  78  87 107 116 120 115 124 113 105 123 130 152 154 147 131  68  33  25  41  40  35  49  45  48  35  68  85 158 229 236 220 209 201 175 177
 255 253 252 248 224 206 166 111  97  75  62  49  44  35  40  65  90 123 132 126 118 108 108 118 130 133 116  95  83  90  88  93 104 124 136 151 168 171 174 176 178 179 178 178 177 176 168 164 158 141 107  85  79  67  70  74  92 106 130 144 146 142 143 136 121 106 114 110 131 159 151 143  96  33  35  23  31  35  41  45  35  12  43 115 215 226 211 198 172 169 175 175
 255 255 255 214 201 178 155 112  91  79  74  54  32  37  40  67 109 130 115 119 124 132 140 155 155 154 150 136 118 110  99  93 103 109 119 130 144 158 166 172 175 175 176 176 173 165 155 147 136 122 104  93  87  82  85 100 123 147 155 159 161 159 158 151 142 138 126 118 115 147 152 145 115  48  34  27  33  30  28  34  29  20  30 119 204 202 185 145  96 135 177 174
 255 255 253 189 182 187 189 132  90  72  80  38  24  41  50  85 132 124 119 135 145 153 155 160 156 157 159 152 139 121 112 110 109 113 120 124 125 142 158 166 170 176 177 174 168 155 146 136 120 108  99  93  85  80  86 100 117 130 142 150 153 153 148 143 139 137 132 123 117 135 151 149 123  56  36  38  32  24  28  40  25  23  47 136 178 151 104  72  56 138 177 172
 255 255 255 175 145 174 178 152  91  75  84  36  24  44  64 102 139 120 133 147 151 150 152 155 151 135 122 117 115 103  83  80  91 105 111 115 119 131 149 160 167 177 182 180 169 152 132 118 103  93  84  77  64  54  60  77  91  96  95  95 101 113 124 127 121 114 107 109 115 124 144 142 131  81  44  45  26  30  28  32  34  38  68 116  97  61  63  68  70 156 172 170
 255 255 255 186  92 115 149 153 109  74  72  41  32  44  77 119 142 124 138 141 142 144 143 125 104 106 117 128 123 112 101  70  59  65  87 104 108 120 139 159 174 187 194 190 180 162 131 100  83  79  76  58  52  80  98  88  79  79  59  61  75  70  65  83 106 104  97 107 118 121 131 135 138  92  35  26  23  24  18  23  47  57  66  63  53  55  67  61  89 170 169 169
 255 255 255 201  98  93  99 132 128  83  61  56  38  50  98 137 146 134 139 139 138 135 105  84 118 124  91  66  54  88  71  60  73  73  61  84 100 105 129 167 187 200 207 204 192 174 135  85  71  75  66  65  91  84  66  44  92  67  24  38  43  59  66  52  70 108 112 122 136 138 133 140 145  91  24  16  22  26  18  27  55  63  51  56  60  58  60  60 126 175 167 167
 255 255 255 213 112 102 111 128 126 110  65  43  31  54 118 148 156 152 146 145 142 114  82 104  84  60  78  66  57  61  32  54  58  78  83  79  91  96 115 171 198 211 215 214 202 180 137  87  79  79  94  94  82 117 112  92  55   3  41  75  71  66  50  64  81 110 131 144 148 145 146 149 150 100  27  17  20  26  22  42  71  58  53  57  65  64  59  89 157 173 168 167
 255 255 255 230 128 112 123 143 130 125  76  40  28  60 133 157 167 163 159 153 138 108  92  70  64 112 127  83  81  20  36 101 108 116  75  87 108 111 120 174 208 216 220 217 206 187 144 120 122 137 132  97 120 161 150 111  88  58  85  86 108 122 100  83  95 127 139 153 160 157 156 157 152 117  45  18  20  29  32  58  66  71  69  86 124 105  78 142 174 171 168 168
 255 255 255 253 155 116 128 154 146 140  91  45  33  74 150 167 171 167 163 155 136 122 102 114 129 138 150 112 102  97 110 118 142 156 117 111 145 155 149 186 213 218 222 219 210 192 158 147 155 179 162 158 165 164 173 155 159 161 143 141 142 124 120 121 122 129 138 156 165 166 164 164 156 131  62  26  41  43  40  59  48  71 101 142 169 153 142 177 175 171 169 169
 255 255 255 255 200 130 136 161 151 130  90  47  33  80 158 172 177 174 169 164 152 153 153 147 146 141 151 162 146 152 166 159 171 164 166 174 178 164 166 193 210 219 221 218 209 190 167 154 162 172 189 189 169 162 166 170 167 158 149 145 136 132 132 133 158 165 159 166 171 172 174 168 156 143  86  49  62  51  40  50  53  77 124 155 169 154 172 184 175 172 171 169
 255 255 255 255 245 164 146 167 156 131  92  41  36  87 167 176 179 180 180 178 175 181 173 158 159 155 149 158 156 159 159 156 156 156 169 176 167 161 175 193 208 219 217 217 202 179 167 159 165 167 167 159 149 146 145 153 154 148 148 149 146 128 128 150 169 176 177 178 181 182 182 170 161 152 105  59  49  36  44  65  64  90 139 167 177 166 180 179 176 174 172 170
 255 255 255 255 255 212 161 168 159 148 105  39  34  92 169 180 183 184 185 187 188 184 180 167 158 161 166 162 155 155 152 144 138 139 147 157 168 172 180 189 206 214 214 215 199 172 165 166 166 175 177 173 156 142 130 122 116 117 120 122 125 134 154 173 177 178 181 182 188 189 184 172 163 153 110  50  36  28  46 110 100 100 157 179 186 173 181 180 177 175 173 171
 255 255 255 255 255 251 185 171 160 152 115  49  42 103 172 183 185 188 187 185 191 189 185 180 163 151 150 149 146 138 131 123 133 150 166 178 181 180 184 189 208 215 215 212 195 170 162 169 168 175 183 188 183 167 157 144 135 133 137 142 153 153 170 180 177 181 184 184 190 189 185 174 166 151 113  48  39  38  55 143 128 132 179 189 190 170 184 180 178 176 175 172
 255 255 255 255 255 255 212 173 165 155 134  60  53 111 172 181 187 188 188 189 191 192 188 186 180 163 146 130 119 119 129 145 161 175 184 188 186 186 185 190 208 216 214 210 192 173 162 168 170 173 182 190 189 183 177 173 170 169 172 173 176 171 182 186 185 187 185 188 191 189 185 176 162 146 126  73  44  45  74 164 147 168 189 195 185 171 185 179 178 178 176 171
 255 255 255 254 255 255 233 177 170 159 159  73  52 118 171 178 186 191 194 189 189 196 197 191 184 178 170 163 158 163 169 173 181 190 194 191 189 189 184 194 208 215 214 209 193 176 165 169 175 175 179 189 195 192 185 180 176 175 178 182 185 186 189 193 193 191 192 190 191 187 183 173 156 143 137  85  44  35  81 169 165 186 188 199 175 178 185 179 178 177 175 172
 255 255 255 255 255 255 241 181 172 160 171  91  45 115 172 176 185 192 194 191 190 192 191 190 187 185 183 178 176 180 184 191 196 198 195 194 194 193 190 200 210 216 217 210 196 181 172 173 179 182 183 188 196 197 198 194 189 187 185 189 196 194 197 197 194 194 195 191 190 185 181 172 154 143 138  89  38  42 118 167 181 187 199 186 172 187 184 178 178 175 173 171
 255 255 255 255 255 255 246 188 178 161 168 136  50 105 176 176 182 190 193 193 190 188 190 194 193 191 188 189 190 192 197 202 202 199 197 198 196 193 198 207 215 217 217 208 199 187 180 175 174 177 187 191 198 201 205 206 203 203 201 201 202 199 199 197 198 196 192 190 188 181 178 165 150 142 132  75  33  63 126 142 171 184 183 166 185 188 182 178 176 173 171 169
 254 253 254 252 251 252 246 192 184 178 172 176  99  93 175 176 181 187 189 191 191 190 192 193 196 198 198 199 201 202 205 204 205 203 201 192 190 197 206 213 217 217 217 207 201 193 185 176 170 171 180 195 202 205 208 210 204 204 204 204 203 202 200 200 195 192 191 189 187 182 176 161 143 137 130  63  42  66  89 104 176 185 168 185 190 186 181 177 176 174 170 168
 249 248 248 247 246 246 243 195 172 188 191 165 149 115 169 174 178 185 187 188 187 189 193 194 198 201 201 202 202 206 206 205 206 205 191 188 196 202 214 218 217 217 218 208 198 193 183 175 173 176 170 184 202 206 210 210 206 203 204 204 203 202 203 199 194 193 191 188 184 177 169 156 146 130 129  82  56  63 114 175 191 170 181 197 189 188 179 178 175 173 169 166
 246 245 244 242 241 240 239 202 173 186 194 173 165 146 161 174 177 183 185 186 189 191 195 197 201 202 206 207 206 206 206 207 206 197 185 198 199 206 217 218 217 217 218 211 196 186 179 172 178 185 174 173 195 208 212 211 206 205 208 206 202 202 200 198 196 192 190 187 184 174 166 155 143 132 125  90  63  74 139 182 172 168 191 196 186 185 179 176 175 172 168 164
 242 241 239 237 235 234 234 209 197 200 189 193 173 151 162 174 177 183 187 190 191 196 200 203 202 207 207 205 208 211 209 205 202 190 198 205 201 207 214 215 217 215 217 212 193 181 177 175 183 188 180 172 190 204 211 212 208 207 207 202 202 201 198 197 195 191 188 185 181 174 166 157 139 136 126  94  70  94 147 161 169 183 199 194 188 182 179 177 173 170 167 164
 238 237 234 231 230 227 226 215 200 194 186 180 165 150 166 172 176 182 185 189 192 198 199 198 202 206 207 204 208 209 208 204 194 193 204 206 198 199 206 211 214 217 215 207 193 178 176 178 186 188 180 171 190 201 206 209 209 210 209 200 202 203 199 197 193 187 185 180 174 168 165 155 145 139 127 101  86 129 165 168 184 195 199 188 184 182 179 176 172 169 166 164
 234 231 228 226 224 220 221 202 188 187 181 169 168 166 162 170 175 179 183 187 192 194 196 200 204 204 205 207 204 205 206 201 197 189 187 193 188 184 195 203 205 209 204 196 184 173 167 174 180 174 168 161 188 204 203 207 209 211 208 204 204 204 200 197 194 186 178 176 173 171 163 151 145 139 127 110 109 159 175 184 200 205 199 181 182 183 179 177 171 167 165 161
 229 226 224 221 216 213 212 197 186 190 186 182 187 178 159 168 175 176 182 186 188 193 197 202 203 202 202 203 203 203 202 200 203 173 147 142 152 165 176 187 189 185 183 179 168 149 144 152 147 133 129 137 184 203 204 204 207 206 205 203 204 202 201 195 190 181 180 176 171 170 160 153 147 144 132 106 108 164 176 184 198 204 185 173 186 183 181 177 171 167 163 159
 223 221 217 215 210 206 203 198 186 195 195 196 189 169 161 165 174 174 180 183 188 191 196 200 202 202 201 200 203 201 198 201 207 170 112  69  47  86 137 159 163 158 158 154 127 105  91  67  51  67  94 119 183 204 206 202 203 203 204 202 200 194 195 190 187 178 173 172 165 165 159 155 150 146 125 110 104 119 157 177 183 173 165 184 187 184 181 176 171 166 160 157
 221 218 214 211 206 202 199 195 181 186 196 188 170 156 166 167 173 172 177 180 183 187 192 196 197 199 195 193 195 195 196 203 204 180 129  88  74  58  70 109 119 118 122 108  82  56  29  22  36  64  71 105 188 204 205 203 202 202 203 199 196 193 190 187 182 176 167 169 162 157 158 152 148 145 128 113 139 146 117 135 147 164 187 189 186 184 180 176 169 162 159 158
 220 217 213 209 205 200 194 191 183 168 167 156 138 137 167 168 175 174 175 181 180 182 188 193 195 195 196 195 193 193 197 201 199 182 160 127 111 111  91  75  84  91  92  80  54  37  38  46  50  56  75 148 195 203 205 203 200 199 197 193 194 191 184 179 179 172 166 168 164 161 156 150 145 139 132 114 149 199 179 171 182 191 189 187 185 182 178 171 165 161 160 161
 218 215 211 207 201 197 193 186 183 174 159 144 139 153 168 168 174 178 172 174 179 182 186 188 189 192 191 191 192 192 197 201 200 193 179 165 138 115 101  91  76  64  60  56  48  42  37  49  80 120 159 184 195 199 201 201 199 196 190 191 190 185 181 178 176 169 163 167 163 164 156 148 146 140 132 115 142 192 190 191 189 187 185 185 183 176 171 166 163 163 164 166
 215 212 208 204 199 193 188 183 178 175 171 166 164 163 167 169 171 176 172 173 179 183 184 187 187 188 188 188 187 192 198 201 203 201 193 180 146 125 126 108  95  81  77  72  59  67  87 114 140 164 176 188 196 198 199 200 200 194 188 188 184 178 178 175 170 168 163 165 163 163 147 142 154 141 126 116 151 189 185 185 185 184 184 182 177 170 166 165 164 165 168 169
 215 211 206 201 197 191 185 180 175 171 166 163 160 158 164 167 172 170 170 174 178 180 181 184 186 185 185 186 190 197 199 202 201 198 194 178 159 142 128 122 108  95  92  82  98 127 143 150 146 165 175 180 191 195 197 197 197 193 190 182 177 177 175 170 165 163 162 159 155 159 151 140 144 132 125 129 163 187 183 181 182 181 179 177 172 167 166 166 168 169 172 172
 211 206 201 197 192 186 182 177 171 167 165 160 159 157 167 166 165 173 166 171 174 173 176 178 178 180 184 187 194 197 196 195 193 189 175 163 171 166 147 139 124 103 104 113 144 149 151 164 152 156 170 174 177 181 187 188 189 189 185 179 171 175 172 161 157 158 159 151 157 158 149 145 140 129 128 134 157 185 180 180 178 177 175 174 172 169 168 170 172 173 174 174
 204 199 195 191 186 181 177 172 167 164 160 158 156 156 162 163 164 171 169 169 170 174 175 178 178 181 183 189 191 189 186 179 179 171 166 169 174 174 173 170 157 147 156 166 162 168 172 173 162 152 164 154 159 168 170 169 184 182 171 170 170 168 170 164 153 153 160 157 163 151 143 142 130 125 123 125 157 184 179 177 175 175 174 174 174 172 172 173 174 174 176 175
 197 193 189 184 180 176 172 168 164 160 156 155 154 157 160 165 161 164 167 167 168 171 173 177 181 180 183 186 182 176 173 167 165 168 175 179 188 191 188 188 175 174 182 175 175 187 179 178 178 173 167 159 158 162 165 161 170 163 152 152 168 168 169 164 160 155 158 154 155 138 134 136 120 123 119 119 160 185 178 175 174 174 175 176 178 177 176 177 177 177 178 177
 191 188 184 180 176 172 167 163 160 155 152 151 151 152 155 165 163 159 162 156 159 169 173 172 181 181 181 176 172 166 160 154 164 178 190 193 198 200 195 192 189 188 186 188 188 183 178 183 186 184 177 174 164 156 154 154 151 149 147 145 161 171 172 163 159 154 157 151 141 140 137 131 138 128 115 116 168 185 179 175 175 175 179 181 182 181 179 179 179 178 179 177
 187 185 181 178 173 168 164 160 154 152 150 148 149 151 147 157 164 157 165 158 161 164 168 172 181 183 172 166 163 158 151 154 176 186 187 183 172 163 156 155 168 177 180 171 150 138 137 142 149 157 158 158 160 147 139 140 141 142 144 144 158 172 173 165 157 152 155 151 139 143 137 137 139 126 106 114 176 187 180 177 177 179 180 185 184 183 183 182 182 181 181 179
 184 180 176 174 170 167 162 157 153 150 147 146 147 148 140 153 162 160 160 159 170 165 170 172 179 181 165 161 155 153 152 160 167 162 150 139 128 120 121 120 124 128 126 116 110 101 101  97  86  88  87  87  91  81  71  79 110 128 132 141 161 176 175 166 153 146 153 151 143 137 138 138 131 110  95 115 183 189 183 180 180 183 185 187 187 186 185 184 184 183 182 180
 179 177 174 171 167 165 160 156 153 149 147 147 147 148 140 145 154 158 159 156 164 167 171 172 180 183 169 154 149 144 120 104  99  93  95  91  82  72  75  76  70  80  81  69  61  56  60  64  62  66  60  55  56  80 116 131 140 136 140 145 161 177 176 168 159 153 155 151 147 130 127 128 119  95  86 132 193 188 184 183 183 186 190 191 191 190 189 187 187 186 184 181
 177 174 171 169 166 163 159 157 154 152 151 150 149 151 144 138 142 149 156 158 153 158 166 177 183 185 173 158 144 120 101  90  85  76  73  69  79  97 116 112 106  87  70  81 108 125 138 152 155 153 148 154 167 179 186 190 184 172 161 164 172 175 171 167 155 154 149 143 138 126 142 120 112  91  78 160 196 188 186 184 185 190 193 194 193 192 192 190 189 189 186 182
 173 171 169 167 165 161 158 157 155 154 154 152 151 152 151 133 130 143 155 154 156 159 167 181 182 186 179 158 150 153 167 178 178 174 169 170 173 178 184 181 181 176 166 171 181 180 174 169 166 170 177 177 177 179 184 183 181 172 168 174 178 174 170 162 136 141 142 135 126 126 127 104  90  73  97 186 192 188 188 185 188 192 195 196 196 194 192 192 191 190 187 183
 169 167 167 165 164 159 160 159 158 157 156 154 156 154 154 141 132 131 144 152 157 156 150 156 177 182 183 170 170 179 183 184 186 185 184 183 183 180 174 174 177 177 172 170 170 169 166 167 170 174 172 172 178 184 186 185 183 181 178 178 174 170 164 154 129 131 135 137 135 125 114 106  76  60 146 198 189 189 187 188 191 194 196 197 197 195 194 193 194 191 188 185
 165 165 164 164 163 161 161 161 160 160 158 156 156 154 153 146 127 131 139 149 150 152 145 124 159 177 179 179 182 182 187 188 188 189 181 180 175 172 162 161 159 156 153 151 154 156 156 156 160 165 166 172 178 184 182 180 182 180 180 175 170 165 158 150 137 128 133 132 126 117 109  98  62  88 183 198 188 187 187 189 192 195 196 198 199 197 196 195 195 192 189 186
 163 163 163 163 164 162 162 161 161 162 160 157 156 154 150 152 135 118 137 144 148 152 147 137 151 170 172 177 186 188 191 191 189 187 181 174 173 171 162 148 141 136 137 135 138 144 148 156 164 164 166 170 179 182 181 179 179 176 178 174 168 161 156 142 126 126 122 130 124 106  91  63  63 118  83 150 191 189 186 189 192 196 197 198 199 199 198 198 197 194 190 188
 163 163 163 164 164 164 164 162 162 162 162 159 156 153 151 150 148 127 125 134 140 144 142 139 147 161 171 178 184 191 191 190 189 185 177 171 171 171 165 154 146 142 145 142 142 150 155 165 162 159 168 175 176 181 177 176 174 175 176 176 168 158 148 134 120 114 115 126 110  87  68  43  98 130  14  46 136 190 190 190 195 197 197 200 201 201 200 201 198 195 191 190
 163 163 164 164 166 165 165 165 164 163 162 160 157 152 150 151 151 119 115 134 137 144 137 138 145 154 164 174 180 186 187 188 188 187 185 181 175 168 164 161 158 149 145 140 143 154 159 161 162 168 175 178 176 177 178 176 174 175 169 170 165 157 143 122 117 117 120 115 100  74  55  61 110 103  11  27  57 132 192 196 198 200 199 201 202 202 202 202 200 196 194 192
 162 163 164 166 166 165 165 165 166 164 162 159 155 152 156 149 101  49  71 119 134 139 136 135 140 151 158 170 175 183 183 184 187 189 189 190 182 173 171 169 166 155 152 149 159 164 169 171 174 178 178 178 178 179 178 178 174 171 169 170 167 154 135 111 112 118 116 106  75  50  62  64 112  84   6  27  31  57 150 203 202 201 202 202 204 203 204 203 201 197 195 194
 163 163 163 163 164 164 164 165 165 163 163 159 155 158 137  82  46  32  37  92 113 131 138 131 131 144 160 169 174 176 181 184 187 186 185 183 181 176 170 168 168 164 159 158 169 172 173 176 179 178 179 180 180 178 178 175 173 172 176 175 161 143 125 104 103 106 101  78  51  56  55  49 104  50   7  22  27  31  77 175 209 205 205 205 205 205 206 204 201 199 196 196
 162 162 162 161 162 163 162 163 165 163 162 159 161 128  68  47  37  27  19  76 105 113 138 137 127 134 152 165 176 176 177 184 189 188 185 183 178 175 169 168 170 171 167 165 174 177 177 178 180 181 182 182 183 183 180 175 175 175 175 164 147 136 115 102  99  87  78  57  57  61  37  54  70  13   7  20  29  35  45 104 195 213 208 207 207 208 208 205 203 201 199 194
 161 160 160 159 159 160 160 161 161 161 161 165 122  63  51  42  31  23  13  72 129  98 117 129 132 128 140 161 177 182 179 180 188 191 190 184 180 179 179 179 184 185 181 181 182 185 188 188 188 186 185 185 186 185 178 173 177 177 172 157 130 115 105  93  83  62  56  55  52  36  37  44  44   5   8  20  29  40  44  56 130 208 214 210 209 209 207 205 203 202 199 196
 158 158 158 158 157 156 158 159 158 160 164 118  60  52  45  34  28  22  13  49 136 106  92 106 122 131 129 151 174 185 187 184 186 193 193 190 187 186 188 190 192 191 193 195 190 188 188 192 194 192 191 192 192 183 178 176 178 172 167 149 123 103  84  65  55  55  56  50  37  33  36  40  74  16   5  21  28  41  52  52  73 156 215 212 210 209 207 206 203 202 199 196
 154 154 154 154 152 152 152 152 156 161 118  60  53  47  40  33  27  21  11  32 136 132  86  93 108 117 121 134 163 177 184 187 187 194 196 196 195 195 199 200 200 198 198 199 198 194 191 196 198 198 199 195 188 182 178 175 173 166 153 128 103  79  66  56  57  56  47  34  35  37  34  44  88  23   4  23  29  47  53  54  58  90 174 216 211 209 209 205 202 202 202 197
 155 153 152 152 152 150 149 151 156 114  64  63  55  45  41  30  21  19  12  18 122 144 110  91  92 100 108 122 140 166 179 188 189 193 198 199 200 200 203 204 203 200 200 202 204 204 201 204 204 197 192 184 182 182 177 175 172 161 133  99  68  54  51  55  61  52  36  32  34  36  33  53  88  17   5  22  30  41  37  36  45  63 106 185 216 209 207 206 204 203 202 197
 155 154 153 153 152 150 151 157 119  68  61  58  50  41  35  26  20  17   4  36 151 143 126  99  91  92 101 113 121 147 164 178 186 187 198 201 203 197 199 201 203 202 201 204 204 203 203 201 192 186 176 168 168 168 169 170 155 136  99  62  47  56  62  62  59  41  37  32  33  33  33  73  81  18   7  24  27  30  33  30  36  61  74 116 192 212 207 206 205 203 201 197
 153 152 153 153 152 152 157 125  71  62  53  43  37  33  29  24  20  14   0  71 199 143 132 112  95  95 100 106 113 125 152 172 176 180 192 197 197 197 196 201 197 194 194 190 195 196 183 180 173 169 158 150 153 147 148 147 127  91  58  49  56  59  64  60  45  36  37  35  33  29  52  84  68  36  13  26  28  31  32  30  33  50  62  74 127 198 209 206 206 203 203 197
 150 150 151 151 151 156 131  71  61  52  42  38  35  27  24  23  20  12   0  83 219 156 136 122 102  93  94  96 107 116 127 150 165 164 173 181 184 198 198 194 191 186 187 179 182 175 155 156 160 151 151 150 135 136 139 118  89  60  55  56  56  64  60  48  40  37  34  35  30  47  78  77  73  76  37  25  29  31  30  30  34  51  58  61  82 136 203 210 205 203 201 196
 145 146 147 148 152 139  77  60  55  42  41  37  34  29  21  21  17  11   0  68 218 174 137 131 115 106  99  86  95 107 103 110 144 147 145 165 169 180 181 179 182 182 171 164 173 164 150 147 144 135 135 124 114 119 111  78  64  58  65  61  63  61  51  43  37  35  34  29  48  82  90  98 128 144  58  21  30  31  30  30  37  48  55  55  73  96 154 205 208 202 200 196
 141 143 144 148 141  89  64  61  49  40  37  33  31  27  21  20  14  14   1  68 210 202 140 130 125 112 102  94  87  88 100  94 103 112 110 137 151 151 165 167 162 162 161 159 156 146 144 141 133 113 100  88  88  86  66  67  73  70  64  61  60  48  46  40  34  35  30  52  88 111 137 166 189 173  57  24  31  32  32  33  40  53  57  53  58  72  98 156 204 205 200 196
 139 142 144 142  92  63  62  57  46  36  33  30  30  29  25  17  14  15   6 112 203 220 175 130 132 122 109  99  92  92  81  90  85  87  90 110 118 125 144 137 142 133 142 146 144 128 132 118 102  85  65  71  64  68  79  83  74  57  53  52  45  38  42  33  29  34  64 100 132 170 190 196 194 163  49  25  33  35  32  33  44  58  57  51  55  62  67  98 159 200 202 196
 136 138 143 104  64  60  57  52  44  34  31  31  30  33  24  15  17  11  25 164 205 212 214 151 128 132 121 108 100 103  95  84  85  91  82  82 100 102 109 109 122 113 107 106 107 107 100  88  73  65  54  65  78  95  93  60  46  48  40  38  33  34  32  27  41  78 113 149 184 204 202 195 191 145  42  31  31  30  36  46  53  55  55  53  54  55  56  71 103 155 199 199
 139 141 116  72  61  58  52  46  42  35  30  27  28  28  20  18  18   4  56 194 215 206 222 208 140 125 126 121 111 105 101 100  90  78  89  85  78  83  81  85  77  86  83  79  73  77  78  75  69  74  83  89  86  66  45  38  38  41  32  36  35  24  30  59  94 126 161 190 209 212 203 193 190 121  32  34  33  36  47  56  53  51  54  51  52  49  52  54  72 104 158 196
 149 136  80  61  56  54  51  47  41  35  29  26  28  25  23  22  14   0  85 205 220 212 210 228 200 133 123 129 122 115 112 105 101  91  81  83  81  77  73  72  79  81  82  72  76  80  81  85  82  82  65  52  40  35  36  35  35  34  31  30  28  44  79 103 129 171 199 211 218 219 204 189 184  97  28  38  45  51  53  54  52  55  54  49  47  47  45  47  54  76 109 158
 146 100  62  59  56  53  52  46  42  37  30  28  27  23  28  23  10   1 109 205 221 219 213 212 229 201 143 131 130 124 125 121 117 120 103  91  86  82  72  68  76  80  75  68  66  71  69  65  57  42  36  40  41  36  34  31  31  31  30  40  70  99 117 143 180 210 219 222 224 220 202 185 171  73  37  49  50  50  52  51  48  49  50  49  44  47  48  51  51  59  70 105
