P2
# Generated by OpenCV 4.2.0
92 112
255
 143 156 154 108 115 127 149 154 103  83  82  78  75  76  81  72  74  74  75  79  81  74  82  84  85  54  56  70  28  58  55  68  40  51  56  84  72  70  28  11  14   1   5  14  39  17   7  29   3  21   5  11  21  37  22  59  62  49  39  55   2  84  70  76  79  84  69  85  79  76  59  81  66  59  81  54  60  61  73  81  71  73  73  71  74  71  72  69  71  73  72  68
 145 148 137 116 125 125 142 146 115  86  81  76  78  75  76  74  73  75  72  78  83  77  78  95  65  28  31   9  27  19  19  36   9  16  34  23  10  53   4   5   2  65  74   4  15  42  29  10  32  60  40  64  32  29  14   7   6   4   7   4  18   1  61  65  72  81  79  71  74  63  71  78  83  65  76  77  53  75  67  77  75  75  73  71  73  75  73  67  70  71  71  66
 153 154 148 129 126 128 150 148 133  94  83  78  77  75  76  78  77  73  71  81  75  72  54  73   3  61  68  42  58  62  27  45  11   6  23  11  25   4   8   8  18  13   4  29  54  20  12  37   2   4   4   2   7   8  33  31   6   7  21  13   0   1   1  56  42  57  62  75  72  68  68  67  77  72  65  70  80  54  58  64  79  75  77  74  73  72  70  71  72  69  70  70
 147 147 139 132 133 119 138 146 120  84  81  78  79  77  76  78  76  73  76  80  83  67  56  85  74  82  53  40  13  26  15   6  24  33  20   7   6   4  23  21   2   0   0   5  12  16  11  10   1   2   5   2   4   0   4   1  29  64  30   2   1   0   0  10  24  18  12  31  31  85  78  53  63  68  50  67  73  35  73  63  75  79  77  78  75  75  71  73  69  73  72  71
 123 113 109 138 134 114 152 153 113  88  80  79  79  80  76  77  76  71  75  80  57  83  93  72  75  61  30  35  14  86  93  74  35  27   9  14   9  15  44   7   0   0   0  13  15  11   1   2   0   3   1   0   0   0   0   0   2   2   2  14   9  10   0   0   3  30  12  27  35  18   8  52  34  68  43  41  66  30  74  63  65  71  75  73  70  73  71  71  72  75  70  72
 128 132 132 135 119 116 153 153 101  83  83  82  77  78  73  77  74  78  73  58  92  70  58  72  63  32  46  71 102  91  99  72  58  52  27  28  11  26   1   0   5  10   0  22  18   4   1   7   1   4   4   0   0   0   0   0   2   1   2   7   2   1   1   2  14   1   7   9  32  37  21  31  37  36  73  23  47  36  73  68  68  72  72  74  76  71  72  72  71  70  68  70
 139 141 134 121 101 120 153 142 109  87  76  78  79  78  78  78  82  52  97  43  82  85  70  55  35  20  31  26  23  26  73  38  45   8  16   6   9  13   2   0   6  37  56  39  11   2   7   2   3  13   1   3   1   3   4   0   0   0   0   3  18   1  22   1   2   0   2   1  10   6  40  41  41  22  48  83  16  56  75  70  67  70  71  73  69  73  74  75  73  72  70  70
 147 160 140 128 107 119 134 123 110  82  79  84  78  76  77  58  79  73  50  95  58  30  51  31   5   5  17  53  86  64  62  50   9  18   6   4   4  10   1   7  24  43  58  13  14   7   7   2   1  13   3   4   3   2   5   2   2   0   3   4  25   3   1   2   2   0   2   0   4   0   3  12  15  13  25  33  32  69  72  77  68  71  68  74  76  75  76  72  75  74  68  80
 145 147 135 132  99 119 122 108  91  80  80  80  79  82  59  77  84  43  67  40  30  94  12   6  15  53 105  76 115  46  37   5  35   6   8   5   5   6  31  11  51  37  27  18  42  20   3   7   9  17  13  11  16   5  20  10   2   2   2  12  24  50   1   4  20   1   1   0   0  25   3  25  55  12   8   3  54  67  68  66  77  81  80  78  79  75  74  74  74  73  70  74
 137 130 116 107  97 125 149 119  92  82  82  79  77  68  19  64  48  60  32   6   4  32   7  27  63 111 103  31  50  21   1   3   9  14  25  42  67  15  31  81  40  43  20  36  18  25  29   4   6  18   4  11   7   1  25   3   2   7  14   8  10   8  50  11  30  18   1   0   4   0   2   3   3   3   3   9  14  33  67  64  79  71  82  77  79  77  75  77  72  72  70  73
 125 124 110  85  91 123 148 155 116  84  81  78  75  68  88  75  36  15  14  54  50  19  27  77  85  54  55  15   6   3  57  35  11  38  90  51  67  70  50  55   7  10  49  31  28  24   8   2  16   3  18   9   3  34   3  12  13  15   6   2   6   1   3  42  54  39   6   2   1   0   3   5   4  36  28  23  11  24  41  72  75  86  75  77  74  75  77  75  74  73  76  78
 136 138 108 105  86 119 133 141 120  84  68  70  63  72  58  42   7  21  33  25  28  54  75  30  32  49   6  12  35  66  73  30  76  60  53  64  82 101  49  51   9  61  53   9  23  36  11   3  13  12   8  13  24   1   7   6   2   1   4   6   3   4  19  10  37  16  31  48  12   7   2   9   3   0  31  39  19  29   6  55  67  76  71  71  74  73  76  76  74  72  75  76
 147 138 121 113 106 127 137 124 104  81  79  83  69  69  64  14  31  26  25  39  13  62  45  46  55  14   2  12  17  65  31  36  21  52  76  62  96  69  58  64  33  25  31  64  28  20  10  14  45  10  10  11   5   2   5   4   1   3   2  19   2   1   7  16   2   3  23  12   2   5  12   4   2   4   5  44   4  24  38  38  38  71  59  77  72  72  73  73  74  76  74  72
 136 136 148 130 100 127 145 136 120  86  82  64  69  62  42  67  49  21  51   5  30  49  46  55   5  15  13  12  50  66  51  51  57 107  63  66  53  75  72  73  77  31   6  34  31  44  18  16  18  14   4   8   3   5   8   5   2   3   8  24  22  12  22   4   3   1   4   1   0   1  10   1   0   1  19  38  38  37  10  26   6  28  94  76  82  75  74  76  73  72  73  73
 124 123 146 132 101 135 147 129 114  92  74  32  66  58  57  54  47 100  31  28  31  48  65  26   9   7  10  16  50  13  26  27  19  20  52  95  73  44  43  25  12   6  33  13  17   3   8  19  11   4   3   2   4   5   5   4   4   4   9   6   9   7   3   2   2   3   1   0   2   3   8   3   8  11   1  16  83  18  26  18   1   7  42  77  69  76  75  75  78  75  78  74
 128 123 127 119 116 139 143 128 107  86  76  97  86  35  94  43 129  63  28  52  18  40   9  19  16  30  16  68  82  73  97  89  58 104  87  82  67  38  20   6  34  22   2  27  34  14  21  10  11   5   9   9  11   5  14  16  17  15   8   2   3   2   0   2   1   4  10   2   4  11  14   9   2   3   6   7  55  27  40   3  44  18   5  69  67  73  75  75  79  77  76  76
 115 135 136 129 126 132 137 125 117  90  36  72  38 102  88 104  53  65  38  50  24   1   2  46  30  34  55 120  46  27  33  91  95  65  86  54  21  22  24   5  28  45  39  42  19   8  50  25   4  13  13  20   6  10   8   4  10   6   8   2   1   1   1   1   3   6   0   0   3   7  11   2   2   1   4   8  17  46  49  25   1   5   8  16  77  80  74  72  76  78  76  74
 131 135 132 127 122 138 134 132 119  87  93  77  17  83  50  73  88  83  16  12  11  11  55  29   4  10  25  21  14   8  22  30  25  41  19  37  47  13  16  10  52  37  13  24   5  43  11  31   4  12  34  20  27   7   9  11  14   4   3   5   3   1   1   4   5   8   1   2  10  43   3   1   1   4   1   1  13   6  19  45   2  10  12   2  44  73  72  74  73  76  78  77
 110 112 122 132 123 134 152 140 110  72  28  55  51  14  22  93  90  19  23  16   4   6  24   9   4   5   5   6   9   6   7  21  29  46   9  27  24  39  55  27  11  19   7   9  22  13  49  19  47  49  24  27  10  10   7  12  35  16  21  10   1   5   2   5   7  27   0   3   4  31   3   7   5   1   2   0   2   2   6   4   1   1   3   1   4  63  71  75  73  78  76  76
 102 122 141 142 123 128 135 124  77  50  55  57  11   8  50  52  18   6  24   4   4  83  34  15  13  18   5   7   9   3  14   6  85  53  83   7  62  56  56  93  47  31  24   8  27  31  24  62  50  49  40   7  54  60  37  29  11   5  14   2   5   4   4  23  13  42   1   2  12  11   1   1   4   4   1   1   0   0   1   1  26   4   1   0   2  53  73  76  74  75  74  76
 113 123 127 121 101 111 113 116  80 102  42   4   8  16  47   9  40  44  41   7  65 102  59   7   7  22  20  10  17  26  18  47  42  74  55  91  98  49  95  47  79  81  84  53  35  16   5  39  12  47  36  57  67  36  24  26  52  14  17   7  14   3   3  13  11  15   7   2  46   8   7   2   0   6   9   1   1   6   2   0  30   3   0   3   5  31  64  75  78  76  75  76
 124 120 113 105 100 129 160  85  84  62   7   3   3   4  26  69  50  51  82  34  26  10   6  12   5  10   8   5  61  56  49  82  76  76  89  87  85  53  42  54  95 138  82  83  86  65  56  44  27  28  33  33  66  42  36  30  13   2  43   6   4   4  17  10  10   4   3   0   3   1   0   3   4  28  26   5   2   4   9   0   7   0   0   0   3   1  71  70  76  78  74  74
 133 123 122 111 105 149 155 104  88 120   2   1   1  63  94  58  83  67  41  18   3   8   5  31   9   9  12  48  40  37  81  79  87  82  74  85  87 118  95  81  56  64  50  68  57  54  56  15  33  13  10  16   8  27  42  37  17   4  18   2   5   5   4   8  17   6   3   3   2   4   0   4   3  40   1   3   2   4  19   2  15   4   1   0   2   2  42  41  70  69  74  73
 129 121 112  98 108 123  76  84  80   1   2   1   7  18  42  37  70  97 103  65   2   6   5  21  35  40  12  23  36  56  68  81 103  89  96  96  93  79  98  96  74  69  53  49  49  43  43  10  19  13   8  11  71  14  44  46  17   6   7   4   8   4  26  24  21   8   7   1   3  11   1   5   5  27   6   6   1  14   7   1   3   2   1   2  17   1  15  60  70  82  74  73
 106 110 114 100 113 112  59  79  65  15   5   4   3  32  53  56 113  63  75  48  26  15  40  58 101  70  89  79  97  77  69  69  81  73  90  81  72  75  44  43  49  44  23  25  20  11  10  12   5  12  20  10  10  17  11  42   9   9  13  10   7   3  20  28  35  31   3   4   0   2   4   6   4   3   2   1   2  11   3  19  17   3   0   1   7   1   2  59  68  77  79  77
 109 115 108 106 127 113  68  72  44  15   2  18   5   6  15  13  21   8  18  11  36  56  76  36  94 100  63  61  63 103  93  80  64  83  49  16  50  77  39  14  57   6  20  33   2   6  29   5  11   5  12  52  22   8  50  39  18  15   9   9   8  18  15  46   8  13   2   1   1   1   7   7   2   9  19   5   4  10   4  16   5   0   6   6   1   0   3  35  74  89  91  85
 112 110 107 118 136  69  61  69  55   6   1   2   3   5   5   5   8   8  20  36  55  27  71  96  34  22  44  59  80  94  76  78  84  55  74  36  47  66  69  69  77   6  32   5  12  59  11  32   4  24  42  30  11  26  73  77  35  22   7  46  12   8  30  47   9   4   2   4  11   7   4   2   1   5   8   1   0   2   3  14   1   1   9   0   1   1   2  35 109 106 111 107
 109 120 125 125 151  64  52  66  16  39   3   0   1   0   9   2   7   6   5  18  25  39   4  16  40  22  22  79 111  76 128 113   9  78  51  23  89  87  57 123 111  72   5  24  60  10  48   5  47  29  58  38  44  56  86  53  52  23  18  33   9  37  40  12  18  12   8   4   3   3   2   5   1   1   0   0   0   6   4  16   1   0   1   0   0   0   3  65 116 108 103 104
 104 110 121 137 144  38  43  59  29  26   0   1   6   2   1   8   4   8   4  12   7   8  12   6  16  45  70  84  91 103 107  77  44  65  30  53 107  83 126 187  34  51  25  23   7  59  33  28  42  66  73  50  60  53 104  69  81  51  54  39  19  42  54   7  41  58   9   6   2   3   2   2  14   0   0   0   0  39  26   9  30   3   1   0   1   3  15  94 107 104 102  96
 107 108 118 127 128  49  51  26  35   1   2   9   5   9   1   8   9  17  49   2   4  34  31  45  73  78 131 113  89 102 121  56  49  78  16  83 104 133 157  15  64  32  18  22  47  53  29  47  43 106  81  31  83  83 107  93  87  80  60  28  53  73  30  27  19  12   8   3   2   7   0   2   6   3   2   1   0  11   6   3   3   6   3   1   4   3  96 110 106 106  98 109
 100 109 114 119 123  71  58  28  12   2   0   1   2   2   1  22  17  11  14  26  89 114  35  89  81 126 121  55 114  96  90  38  85  98  41  87 161  86  37  38  34  42  30  55  21  53  43  65  59 118  88  46 154 151 104 121  96  80  40  38  36  22  80  37   4  10   4   2   4   4   6   1   2   4   0   1   2   0   1   2   2   2   2   0   0   3  83 108 118 130 124 110
 100 102 116 122 127 109  49  38   1   2   1   0   3  20   9  13  10  17  13  22  82  74  92  71  77  98  32  64  99  81  39   8 113 130 104 126  98  42  53  28  38  48  56  25  34  63  80  82 159 126  68 154  73 101  96  88  95  78  55  52   6  46  24   9  46   9   7   7  14   5   4   2   3   2   1   1   2   4   2   4  10   4   0   1   1   6  89  82  87 114 115  96
 100 104 118 129 134 109  50  12   1   0   7   4  10  10  18  13  65  41  22  35  39  67  81  73  56  89  62  78  72 111  86  72  88  79  76 112  88  57  65  48  84  56  50  45  87 116  76  64 123  80  61 145 114 142 139  82  68  65  64  36  24  84  60  14  25  12   8  10   9   4   3   5   3   1   3   1   2   5   6   3  20   7   0   0   6   4  78  79  94 127 107  98
 116 129 131 143 138 121  61  25   2   6   7   8  29  52  23  41  54  67  57  60  35  71  61  63  26  30  66  65  79  77  68 113  69  77 119  99  70  65  80  65  55  41  35  97 137 141  84 117  70  63 118  58 158 161 124  88  62  46  32  41  62  58  34  10  28  16  28  12  22  28   6  18  15   5   5   4  20   7  14   5   1   6   0   0   2   5  67  69  92 126 110 117
 127 124 132 131 124 111  47  23  42   8  14   4   9  25  23  40  82  83  63  87  50  55  12   7  46  35  37  67  74  49  86 105  95  79  65  82  88 102  85  80  55  55  79 157  59  83  53 112  90  82 173 208 134 146  72  49  71  46  62  41  38  49  37  52  39  21   9  12  26  43   5  20  13  11   5   3   9   3   8   6   4   8   0   0   4   8  59  70  88 121 119 110
 123 122 108 115 119  80  24  12  22  40  35  10   3   2   6  19  52  86  78 147  86  31  24   2  42  69  43  76  33  37  96  71  88  86  85  86  69  94 115  92  65  92  91  40  64 100  63 113  84 187 166  95 200 164  86  80  55  43  72  58  66  69  78  29   7   8   7  12  15   6  36  36  65  12  11   4  30  11   0   7   3   8   1   1   0  11  61  75  85 108 115 134
 119 108 124 126 102  90   9  57  15  30  11   6   5   4  25  31  73  82 139 159  39   4   6  14  16  62  49  55  33  53  95  76 114  90  97  82 103  64  79  97 110  73  36  79  96  91 132  57 141  51 158 171 151 130  60  18  34  60  61  59  62  36  62  54  45  18  12  18  39   7  33  42  45   5   8   9  33   1   3   4   9   1   1   2   0  23  77  99  98  98 102 120
 133 127 124 122 117  29  56  57  49   6   5   5   5  15  45  53  76  93 146 100   5   1   4  25   5  31  19  13  16  50  89  78  54  52  91 117  74  30  79  71  40  74  80  57  70  70  27  90 191 204 206 209 146  48  44  26  44  40  77  86  90  79  54  75  63  23  17  42  16  12  58  59  43  30   6   5  42   9  11   9   5   2   2   1   0  31 115 105 103  99  98 110
 156 155 159 159  85  10  67  50   4  17  23  28   9   1  84  47  66  66  42  17   6   8   5  14   2  13   8   9  11 103  59  35  65  72  74 101  53  94  53  59  44  25  60  94 123 159 177 184 177 223 222 119  44  43  36  24  33  79  75 108 112  80  72  51  48  18  37   8  10  14  82  48  46  18  49  27  26   5   8  16  25   1   1   1   0  20  79  89  86  84 118 131
 164 178 184 156 199  61  91  84  59  50   4   3   5  25  39  80  49  83  15   8   8  13  89   5   2   2   4   4  14  37  17   9  66  61 111 108  76  59  37  47  31  17  24  85 136 167 175 194 201 184  83  35  51  23  61  34  75  60  73  95 131  84  61  69  71  35  37  14  19  58  93  89  80  17  20  39  35   6  13  10  16   1   2   2   0   9  48 104 138 152 149 151
 160 157 129  75  93  45  48   4  34  13  28  28  20  15  57  53 117  64  18 109  19 125 110   1   3   1   4   7  13  21   9  32  51  85  98  60  63  77  88 107  43  15  10   9  46 113 156 148 114  64  49  37  45  53 109 112 113 113 111 109  95 100  92  71  64  59  40  20  44  71  71  71  75  57  65  45  20  10  17   8   3   2   1   4   2   9  54 124 139 156 149 139
 156 153 154  73  80  47  38  10  38  21  77  39  19  10   7  87 118  95  42 107  99 125   8   2   3   1   5   8  26  54  46  70 128 122  62  77  98 158 158 145 137  40  14   8   8  26  17  42  43  42  47  55 106 159 158 177 155  77  92 144 138 137 127  92 125  71  68  39  41  27  72  94  66  57  45  95  20  27  22  13  11   9  10   3   5  26  76 115 111 129 116 123
 127 143 125 126  84  40  39  19  34  26  70  17  34  14  48  48 101  63 144 157  44 105   3   4   1   1  10  84  25  27  48 109 105  65 145 177 146 152 169 171 171 171  50  14  13  23  43  65  60  53 151 188 182 199 199 198 195 162 165 163 168 181 159 166 158 105  91  59   8  52  39  79  53  65  51  60  24  20  15  20   5   5   3   2   5  22  73 116  94 104 101  98
  91 103 125 156 114  68  11  19  22  20  10  17   6  14  28  33  38  44 109 132  40  44  44   9   2   6  39  17  34  40  58  29  53 148 168 173 175 179 184 184 193 183 181 147  51  51  77  72  76 198 196 208 203 210 207 208 203 207 193 189 188 178 172 162 110 147 103  47  27  13  45   9  55  70  74  53  29  38  13  13  20   9  23  53   5  46 117 164 160 169 174 170
  86  89 124 158 121  65  54   9   4   9   6   2   4  11  13  25  59  72   7  10   7  60   3   3   2   3  12  15  64  27  42  21 156 162 169 175 171 187 197 217 205 212 214 221 202 186 197 212 199 198 200 213 208 209 208 210 205 203 206 192 188 191 186 178 144 151 150  92  16  17   6   4  34  62  81  30  31  24  28  17  19   5  52   7  36  46 129 137 155 168 177 178
 114 108 131 129 126  97  89  70  17   4   0   4  17  20  43  40  38  55  12   4   4  14   2   4  10  32  30  10  21  32  85 153 180 173 182 188 208 220 214 217 219 221 217 219 210 216 230 226 223 211 203 208 213 207 209 210 204 203 204 198 198 187 185 187 173 176 163 118  64  11   4   6  34  74  93  44  49  30  27  52  56  13  32  12  31  50 109 128 133 147 157 155
 124 129 134 111 109  71  81  74  59   5   6  10  52  29  30  35  63  23  12   5  10  10   8   9  11  13  11  30  64  70 153 174 180 218 220 219 208 222 220 217 227 220 224 221 216 215 217 221 217 217 213 209 206 206 207 207 204 201 192 211 191 186 186 173 173 175 164 147 157   7  15   7  31  71 114  62  47  44  58  62  77  53  18  16  65 158 158 146 110 137 148 152
 134 131 130 109  97 130  59  90 104  35  21   7   8  37  55  58  48  42  37  22  10  24  57  50  33  19  27 148  64 157 173 202 205 220 223 222 200 221 215 210 226 221 218 211 221 222 224 217 213 213 212 212 205 200 202 198 190 186 177 181 164 172 176 172 172 167 164 159 164 137  14   6   9  33 130  88  70  45  38  64  92  89  18  46 114 174 180 156  97 120 133 129
 135 126 115 114 112 116  99  63  63  55  28   7   7  11  39  48  66  43  54  77  59  62  80  40  28  82 149 103 133 177 192 203 208 213 223 211 214 209 219 206 214 218 217 212 221 225 217 217 212 208 203 198 200 189 182 185 183 182 175 164 157 144 141 174 168 167 161 163 161 159 104   8  11  47 102 102  67  34  32  65  63  45  38  78 166 194 160 146 104 111 130 110
 122 122 124 121 109 158 158  34  37  46  33  21  28  35  82  82  71  66 100  91  81 106 120 140 159 168 141  92 157 188 201 201 203 207 210 213 207 210 210 205 212 199 207 204 210 208 210 205 202 198 176 163 160 139 146 151 152 155 154 133 151 122 133 151 154 165 161 157 162 155 140  45  15   6  68  84  87  50  56  74  94  48 145 107 146 149  81 132 112 130 117  94
 129 128 127 136 121 155 176 113  16  61  55  62  13  29  42  97  88  77 111 132 110  98 129 130 119 112  50 118 141 161 180 192 200 197 203 204 203 204 203 207 203 205 197 199 202 193 193 178 154 131 131  99 116 122 123 143 174 169 172 175 178 163 147 150 146 147 155 162 157 152 155  92  27  24  22  98  85  66  71  77  67 148 153 151 136 131 140 144 101 115  98  89
 136 132 130 129 130 137 165 159   3  30  21  33  40  59  37  54  85  52 103 145 123 124 147 138 129  35 113 121 114 135 140 147 155 180 192 194 200 200 200 197 197 193 195 193 178 179 178 140 131 112 118 135 139 151 163 177 182 187 174 180 177 175 169 173 158 143 147 155 153 152 162 127  81  10  18  82  67  69  82  88 116 157 136 177 139 135 136 160  74  87 108 113
 140 131 131 130 133 153 129 124 102  27   3  19  27  37  61  66  75  43  20  78 124 156 152  58  96 164 160 133 131 117 143 159 179 156 167 188 187 195 196 195 194 195 189 180 184 178 162 157 153 157 159 146 143 155 161 171 172 176 177 178 174 171 168 167 162 161 149 149 149 144 158 143  60  57   6  49  80  68  62 124 156 164 183 178 149 142 143 166 104 110 128 134
 130 131 126 131 130 145 174 162 102  16   7  12  38  36  74  68  76  67  74  19  12  13  50 151 161 165 155 157 160 145 154 150 152 159 156 171 181 187 190 194 197 183 186 181 178 173 165 155 144 119 130 121 112 115 124 146 155 164 173 167 172 159 160 158 163 163 147 157 150 148 154 162  99  96   6  38  56  78  61 135 181 187 179 175 157 147 155 129  91 116 128 130
 136 133 127 130 138 132 183 156 167  64  38  28  60  80 109 111 107  86 113  93 104 138 154 166 148 139 141 137 127 118 132 144 130 141 148 154 170 184 182 193 195 196 186 175 168 158 144 141 137 122 119 162 150 165 104  96 123 160 145 113 159 155 157 155 162 166 164 154 153 157 159 149 105  88   8  29  50  73 129 149 178 177 181 178 155 137 157 104  98 117 131 126
 137 137 137 136 138 133 187 150 188 149  48  26  66  65 140 133 125 130 164 159 148 151 137 115 103 126 160 141 117 154 151 143 125 137 133 135 159 170 192 191 212 199 197 187 172 155 145 146 142 141 148 154  93  91 185  61  76  41  49 127 161 108 158 157 169 173 170 166 161 156 151 149 135  44  17  25  53  78 134 107 141 156 172 171 161 150 179  81 106 110 110 117
 137 138 142 132 137 135 160 160 187 162 165  26  57  42 129 146 149 156 168 165 151 134  97 119 127  14  43 140  93  26 109  49 147 155 130 154 143 173 189 198 208 203 199 189 166 160 149 147 151 155 131 172 164 154  98   0 103 129 158  89 107 147 147 159 178 175 170 170 168 160 157 153 136  51  43  39  61  97 121 138 157 154 169 170 165 152 164  93  93 100 117 128
 140 139 145 138 137 141 137 194 171 167 179  88  54  56 120 152 155 168 169 169 166 150 141  67  41 165  96 139  72   8 120 100 148 124 166 154 158 157 188 199 212 208 201 188 169 170 164 163 179  96 173 173 200 100 152 150 149  93 147 147 103 112 164 162 176 188 182 181 173 165 158 161 134  29  41  47  66 149 153 157 160 162 164 173 166 166 125  84  72  88 123 137
 144 142 147 145 143 144 138 160 195 160 181 152  52  90 129 153 161 168 170 175 164 155  67 121 135 173 179 142 140 151 166 159 166 134 170 191 179 161 186 200 210 205 197 189 170 170 180 188 169 155 155 160 174 186 162 170 183 161 151 156 153 132 155 165 168 176 185 179 178 167 160 153 142  85  36  45 108 165 164 189 169 155 160 178 154 171  76  96  73  94 106 135
 144 151 150 150 151 150 139 133 190 174 193 177  43  91 129 153 163 174 172 169 155 160 137 142 149 155 156 167 163 171 162 169 159 169 148 196 181 172 189 196 206 204 203 187 172 165 173 189 199 193 155 169 172 159 143 182 157 156 154 153 159 176 183 188 184 185 189 183 182 169 162 153 145  93  22  29  95 162 174 195 203 159 157 185 149 173  88  92  93 108 117 140
 144 145 147 148 150 140 141 140 125 177 199 179 155  82 125 151 163 175 176 179 172 173 173 148 158 156 157 142 153 162 166 155 153 180 195 185 166 174 181 196 201 201 200 183 173 166 173 176 177 172 165 159 166 171 163 167 170 160 155 158 185 183 194 191 193 193 184 181 179 171 164 151 146 132  28  40  74 167 183 175 172 157 158 185 158 116  97  92 103 115 124 145
 141 143 139 135 135 143 148 137 112 178 210 198 173  90 128 148 169 174 181 182 183 181 177 174 155 159 167 172 163 171 164 162 162 166 179 171 159 173 179 199 198 198 199 178 171 169 173 178 185 184 177 164 163 170 163 168 172 177 179 186 186 194 194 190 186 189 185 189 181 173 163 156 153 119  19  21  84 176 183 166 161 152 172 158 163 116 112 105 104 108 117 136
 138 140 137 136 144 146 147 134 105 150 204 194 167  47 115 150 168 180 183 180 183 185 182 179 173 170 175 177 182 163 152 165 174 181 178 171 163 167 182 189 196 196 196 173 172 174 174 180 186 185 186 178 181 171 180 176 178 183 181 189 188 193 191 191 186 186 186 187 185 170 164 150 157 131  34  28  85 172 171 153 141 159 187 142 176 115 115 118 114 118 129 148
 138 138 143 147 151 149 147 134 115 127 198 189 162  95 120 149 165 177 178 181 184 189 182 188 183 181 182 171 174 173 180 177 179 189 182 173 171 160 178 193 198 198 195 177 167 173 177 177 184 199 190 189 184 190 183 188 187 191 186 186 194 188 196 184 190 189 187 183 179 169 155 151 153 127  75  21  87 163 129 150 154 180 151 166 159 107 114 112 118 123 138 151
 147 144 150 148 143 145 147 143 120 129 183 191 172 157  87 150 157 179 180 184 182 182 190 192 190 186 188 188 178 181 184 189 189 187 181 172 171 164 179 195 196 198 194 176 166 173 177 177 185 185 198 197 196 192 189 185 192 189 188 195 190 191 192 198 190 184 198 185 176 166 153 153 152 126  77  10 101 149 143 151 164 161 161 178 117 105 119 110 112 115 132 150
 145 146 157 153 151 144 147 146 124 129 171 187 179  88  79 154 154 176 181 181 180 187 189 190 187 192 191 194 185 178 190 196 192 190 180 172 166 167 181 197 202 200 192 180 165 166 176 175 183 188 200 209 207 190 199 191 193 202 198 187 195 192 184 196 191 194 184 182 177 164 153 159 154  95  80  20 123 150 160 183 169 164 172 187 112 114 116 113 112 117 137 154
 122 140 154 163 170 149 144 126 104  98 178 180 185 167 109 156 152 168 183 184 182 186 188 193 194 192 193 190 191 191 191 200 193 184 179 170 161 170 184 198 199 201 193 178 170 163 168 176 180 185 194 199 200 202 196 201 198 190 201 203 194 197 198 187 194 190 183 180 174 162 154 154 142 115  97  83 160 171 179 171 177 182 181 171 114 111 112 117 119 123 146 153
 113 114 119 140 153 135  87  76  61  54 192 179 192 178 130 148 144 165 180 184 184 182 188 190 192 194 192 198 193 192 195 193 189 188 176 162 165 177 187 197 202 201 198 183 173 166 162 165 185 199 193 193 198 200 196 194 195 206 197 196 197 194 194 193 193 186 187 182 173 162 154 149 139  91  68 104 163 173 179 179 184 195 203 145 120 114 109 116 121 130 153 161
 135 103 106 116 105  93  87  91  98  83 176 185 187 182 150 137 144 167 179 179 185 183 188 191 188 192 192 189 191 187 186 188 188 193 168 158 171 178 189 194 201 197 196 188 178 167 161 160 168 184 203 204 203 200 198 194 195 193 196 195 196 196 196 194 192 189 183 176 168 160 153 159 137  76  78 116 165 167 175 188 190 200 191 131 130 121 119 122 119 135 152 160
 110 123 130 141 123 113 127 127 121  92 185 190 186 177 156 125 143 166 179 180 182 186 185 190 189 189 190 186 189 198 196 198 199 179 159 164 177 182 192 194 198 196 189 190 177 168 163 168 158 167 190 215 208 204 194 200 195 195 195 195 194 196 195 193 191 183 182 177 167 166 152 156 142 103  97 128 171 170 182 190 194 196 196 139 137 133 130 133 135 151 158 164
  89 117 127 128 118 122 138 129 116  99 188 192 202 178 172 101 141 159 176 179 181 182 189 188 191 190 187 188 194 195 205 207 194 163 160 173 178 187 192 196 194 195 191 186 181 168 175 171 170 154 185 192 212 212 206 193 197 197 193 194 193 193 199 194 188 185 181 176 173 161 160 159 151  77  87 113 179 174 176 186 195 193 145 138 138 144 139 138 142 160 170 168
 124 111 103  95  88  98 114 128 131 114 184 196 209 205 183  67 137 148 171 180 182 179 187 186 192 186 183 192 196 198 200 198 184 163 164 175 180 191 195 196 197 198 195 178 175 170 175 177 174 164 162 192 198 208 207 201 200 192 198 199 195 195 197 182 182 182 180 176 168 165 160 152 142  64  61 103 171 179 177 186 182 170 114 126 113 123 124 120 130 157 167 164
 132  99  99  96  96 107 120 134 138 140 170 197 201 199 169 108 160 153 167 174 178 186 184 186 190 191 190 192 196 206 203 200 155 166 170 171 178 189 205 201 209 207 197 173 172 174 179 178 177 159 152 198 196 199 202 203 203 201 201 194 196 195 194 189 180 178 180 171 166 166 161 143 124  61  60  79 135 167 167 171 136  93 106  89  84  72  69  79 112 126 128 137
 107 107 104 113 103 116 124 137 146 152 122 184 194 186 174  79 146 155 160 176 174 177 182 184 186 188 191 197 198 199 199 197 150 153 166 160 179 189 199 223 213 199 185 178 167 180 176 170 166 164 152 198 197 193 199 203 198 203 197 196 194 198 184 183 180 176 178 174 165 168 160 135 107 110  48  83  77  90 103 111  93  82 112  92  82  79  76  83 110 117 119 129
 124 150 158 143 118 109 113 115 129 137 138 125 184 182 176  59 126 153 155 166 176 180 183 182 184 188 193 194 191 195 197 195 158 148 115 165 162 189 190 188 191 188 184 167 151 152 137 114 135 135 166 191 199 195 195 198 199 203 198 196 198 193 190 179 173 174 173 175 169 164 150 137 104  90  78  60  83  87  94  79  64  59  71  71  70  72  65  67  89  85  95 102
 132 145 153 134 127 117 110 104 120 127 126 109 104  72  77  79 121 152 158 165 174 177 180 183 184 191 186 192 193 194 193 190 195 150 136 159  87 159 170 176 171 174 162 143 111 148 141 128 140 160 171 197 198 198 189 202 199 198 200 198 193 191 185 176 180 178 177 167 172 160 141 146  80  86  84  61  73  76  85 101  83  63  58  58  56  48  47  66  75  75  81  79
 136 132 142 149 150 136 131 114 110 116 130 116 103  99 103  50 109 144 154 168 168 177 181 189 187 190 193 193 193 192 194 187 200 184 178 159 172 169  96 123 149 145 115 142 153 127 143 141 165 187 199 196 193 198 191 197 197 194 197 193 187 186 175 176 176 180 172 172 162 143 144 131 103  62 100  53  70  71  86  76  72  64  59  56  55  56  50  69  81  90  85  79
 135 135 131 141 143 139 138 145 135 127 138 126 104  81  93  58 105 138 161 166 171 164 177 180 183 188 189 189 188 186 189 188 182 181 172 123 128 137 160 149 126 125 135 143 137 115 137 147 168 175 189 194 192 196 195 188 196 197 195 197 189 184 180 172 172 175 185 175 164 154 137 123 107  89  78  47  64  61  59  72  69  65  60  54  47  49  51  74  86  88  81  78
 125 130 111 111 100 116 138 154 142 118 119 111  85  73  66  59 106 149 161 155 165 164 177 186 185 188 189 189 185 184 184 190 182 180 120 107 108 116 148 163 165 161 137 141 117  98  55 110 146 170 158 190 188 192 194 192 186 194 193 183 185 185 180 174 174 171 164 151 123 117 123  73 108  81  71  57  84  86  86 101  99  75  73  67  61  58  63  93  94  89  91  96
 102  92 100 111  92  95 110 112 109 101  99  93  75  62  62  55 113 137 148 157 143 162 168 176 179 187 191 187 179 186 177 181 177 169 119 140 117 114 134 133 160 182 139 145 148  88 100  88 138 142 158 175 178 192 195 192 189 190 192 195 186 179 171 171 165 187 163 162 134  95  71 109  74  97  72  35 103 111  93 113 120 110 101  91  82  80  91 116 120 121 128 125
  80  71  79  80  78  79  82  87  84  84  82  78  68  47  51  75  97 130 139 127 141 155 163 176 178 185 187 182 181 179 167 146 162 138 111 106  93 127 130 147 143 188 157 110 121 115  77 106  91 119 124 125 148 185 177 187 187 186 180 187 186 174 173 173 160 166 168 134 127  93 108  96 115  84  89  46 106 106  93  91  99 103 104  89  91  89 107 123 127 130 134 131
  76  72  75  72  75  73  71  72  77  72  75  66  62  45  53  58  72 116 150 139 150 131 154 168 181 185 177 178 169 159 157 148 154 130 121 125 115 114 136 127 156 195 138 141 147 129 131 137 104 113 108 121 129 131 166 163 176 165 171 187 188 174 166 173 164 126 153 133 147 117 154 130  81  61  43  71 102 104  93  90  87  87  74  69  73  78  98 100 103 103 109 117
  73  73  73  74  71  72  73  72  72  69  69  67  58  45  46  66  50 115 138 125 117 113 146 168 176 169 166 148 161 167 148 155 142 134 136 163 135 135 139 155 130 154 183 134 152 148 148 146 154 169 140 130 148 140 149 127 140 154 173 190 182 165 165 172 148 127 132 120 122 125 104 104  99  51  64  64  86  88  81  98 111 100  90  90  79  68  74  75  75  75  82  88
  70  73  72  71  70  72  72  70  71  69  72  68  57  37  51  44  52 117 136 126 110 121 119 149 174 172 173 164 150 145 114 147 168 152 173 174 159 175 186 184 162 174 155 183 180 167 180 179 167 151 153 160 130 150 124 150 118 133 171 179 185 166 159 166 158 128 119 136  95 122 134 122 100  66  44  33  47  56  57  76  79  60  63  64  41  52  59  57  57  65  67  69
  75  71  72  70  70  71  73  72  73  75  74  70  63  38  51  44  55  78 145  78 123 156 140 151 174 162 148 137  90 127  85 152 165 174 166 167 152 158 148 164 164 159 157 151 158 152 158 154 156 160 163 161 157 157 124 132 142  96 124 188 179 148 170 171 136 135 100 126 116 127 116 100 101  32  23  20  37  36  35  35  33  33  29  27  39  53  55  51  53  51  55  55
  76  75  76  75  73  73  74  71  74  73  72  72  65  53  47  79  62  87 107  88 165 111 108 135 155 185 162 114 137 149 165 159 156 150 140 144 140 148 126 136 132 133 151 138 152 155 115 112 136 140 132 115 148 141 145 156 115 129 141 178 185 148 148 141 135 148 129  74 121  96 105 102 110  54  50  44  37  36  37  42  42  40  39  46  49  55  51  50  49  52  50  50
  71  72  72  74  73  74  74  72  75  74  74  72  74  60  59  53  45  60  93 102 137 105 124 118 156 175 147 114 147 163 138  94  87 112  91  59  46  20  20 109 118 117 136 125 124  75  77 118 144 126 110 107 160 173 173 163 148 148 130 185 179 166 172 150 151 149  92 118 104 104  99 127  97  29  14  33  36  35  42  52  54  53  53  55  57  54  52  52  51  47  49  49
  75  74  74  77  75  74  73  75  73  72  73  73  72  68  63  56  44  33  94 108 189  92  99 111 161 180 146 146 150 157 170 175 163 139 141 145 139 134 127 128 123 118 117 130 146 152 147 162 160 163 147 170 186 192 185 185 168 153 168 199 181 163 139 126 144 157 108 104  88 102  42  49  73  19  52  40  36  36  45  60  62  61  61  60  58  55  53  49  52  53  52  49
  75  75  75  75  76  74  76  77  76  77  74  72  71  71  70  60  51  36  68  98 122 135 119 108 145 173 165 146 160 186 183 184 175 167 154 145 158 162 154 157 153 153 151 163 170 166 166 171 159 166 177 189 186 187 183 185 189 178 179 189 183 158 147 100 126 140  98  56 100 120  77  60  27  41  47  37  37  35  46  62  67  66  67  63  61  54  55  53  51  50  52  50
  76  78  77  77  77  78  77  76  75  76  72  72  73  73  75  67  63  35  30  76 120 141 133  75 126 171 164 159 182 179 181 185 178 173 173 169 160 166 170 172 174 160 163 179 172 167 163 178 183 175 190 185 190 189 183 188 187 175 181 186 177 163 152 125 129 101 139  96  69 117  98  39  36  47  35  33  36  36  45  62  71  67  67  64  61  56  55  55  54  50  51  52
  75  76  77  80  77  78  78  77  75  77  72  73  72  76  73  70  68  44  21  71 124 117 121  68 107 165 169 180 184 174 180 179 177 180 175 177 174 166 172 176 172 170 163 170 171 183 181 181 188 184 190 191 191 186 185 190 185 184 191 187 172 167 152 120 127 104 133 100  58  92  84  16  22  39  35  38  35  40  44  61  67  66  66  64  61  60  53  55  53  53  51  55
  73  73  72  73  72  74  76  76  74  74  75  74  73  76  74  73  67  55  38  41  92 105 159  63  76 167 173 174 170 191 172 180 179 181 177 177 175 172 164 165 169 163 161 169 169 173 185 185 194 186 188 193 194 189 188 185 185 186 168 165 178 159 122 108  90 105 119  85  96  63  72  14  49  37  39  35  37  40  44  60  68  65  64  66  61  57  55  54  54  55  55  56
  75  74  75  73  73  75  75  76  76  78  76  74  73  74  71  72  67  64  41  15  82 141 179  98  77 143 162 166 190 186 183 180 181 182 178 177 181 182 177 183 173 172 180 182 179 182 181 187 177 187 191 192 191 186 188 183 181 180 172 175 157 154 174 138  97 133  94  60  54  47  30  62  82  41  36  36  38  41  42  60  69  68  65  63  62  55  55  55  55  54  54  54
  74  77  77  76  74  74  76  75  75  74  76  75  73  75  74  70  70  64  49  30  24 120 153  92  80 147 154 171 187 179 179 178 179 183 178 178 172 155 159 176 141 166 165 164 163 168 175 186 189 190 189 192 188 189 186 184 183 186 179 163 143 161  91 120 118 105 117  82  50  56  32 130  29  43  37  36  39  41  45  64  68  66  65  61  60  55  54  54  53  54  55  57
  75  77  76  76  75  76  76  77  75  73  75  74  76  74  74  72  70  64  54  51  25  63 110 137 103  89 133 154 180 168 178 176 180 184 184 183 165 185 172 151 144 153 152 172 185 153 163 175 188 194 189 186 192 184 186 181 170 164 176 168 148 145 102  55  73 104  91  81  77  30  89 130 100  40  39  36  38  40  48  64  66  66  63  62  58  57  53  53  55  53  55  55
  75  73  77  79  75  74  71  77  77  78  75  75  78  74  76  73  72  68  50  39  36  53  88  98 131 106 138 154 161 179 156 179 178 181 186 185 186 176 178 171 153 154 163 159 185 185 182 192 192 191 188 190 187 182 183 179 148 165 151 151 155 132 134  54  63 125  90  82  42  62  93 162 189  36  34  35  38  40  53  65  65  62  63  61  60  60  57  55  55  56  53  49
  76  73  76  75  74  74  75  76  74  75  76  77  75  75  74  72  74  69  50  40  37  44  54  87 114 117 119 156 157 178 174 174 179 183 189 184 188 185 190 191 169 162 196 168 185 186 194 192 191 193 189 194 186 184 184 186 156 144 179 159 110  93 104 105  88 102  81  39  26  55 120 186 191  35  31  32  37  40  52  64  67  65  64  62  60  58  55  51  52  55  53  52
  79  77  75  73  77  76  78  77  73  76  74  73  75  75  74  72  71  66  52  41  42  42  28  71  73 115 113 129 164 172 184 173 178 185 187 189 188 188 186 202 175 180 164 199 190 198 197 197 190 188 189 190 190 185 189 193 189 125 125 138 111  65  97  72  95  63  64  42  58 141 179 209 185  24  34  37  40  41  52  66  69  67  65  65  61  58  53  51  50  53  54  54
  77  75  77  76  76  77  77  74  74  73  73  72  74  75  73  74  70  67  55  40  39  32  72  35  54 112  67 107 130 168 182 175 172 183 188 189 190 189 198 200 203 197 203 194 205 207 204 199 196 191 191 197 186 187 196 185 184 119 112  90 115  64  78  65  77  78  39  51  86 142 209 203 191  99  67  54  37  46  53  65  66  64  64  63  59  56  53  54  53  54  55  53
  78  76  75  76  74  74  75  75  73  72  74  74  73  73  73  73  70  68  61  43  39  40  43  48  66  60  48  85 103 142 155 160 173 179 186 190 190 196 197 205 198 195 171 194 205 203 205 199 187 213 193 196 181 185 179 169 171 102  76  69  68  65  25  48  88  62  38  69 137 180 218 202 190 179  60  85  71  54  61  64  68  65  65  63  60  55  53  52  52  51  56  55
  77  74  75  75  72  72  74  76  74  74  72  73  75  75  75  74  72  72  63  49  40  39  41 120  39  77  63  67  35 133 163 176 183 176 173 192 190 194 199 200 200 203 203 187 194 198 196 199 193 189 178 186 175 186 162 191 148 109  78  57  41  57  61  73  61  65  71 104 118 223 212 206 194 186  46  54  83  72  63  67  69  67  62  63  58  55  56  55  55  55  55  54
  72  76  74  73  73  71  71  74  71  71  72  77  73  74  74  76  74  72  69  56  45  42  50 177  58  42 102  88  63  88 128 168 166 164 163 178 184 188 191 192 200 170 178 195 190 201 193 185 181 159 164 182 142 155 156 169 102  97  82  35  39  35  67  79  75  53  68 131 228 223 210 203 193 182 174  36  39  86  80  71  72  64  65  62  59  58  54  57  54  54  52  54
  74  71  73  72  69  70  72  73  72  72  72  72  72  72  72  74  73  73  70  58  46  40  36 204 105  42  58  77  56  35  91 118 175 149 160 169 180 160 180 197 187 201 145 177 194 187 179 172 136 157 129 146 120 133 138  84  81  77  52  42  38  96  63  54  67  43 103 209 215 214 216 203 193 184 182  53  26  73  78  76  57  60  61  60  54  54  55  52  54  54  55  52
  74  71  74  74  74  71  72  73  72  75  74  71  73  73  72  72  73  72  72  64  54  38  37 188 179  77  65  82  62  42 100 100 154 115 127 162 166 160 196 199 158 180 170 202 172 151 150 137 123 113 100  93 112 131 105  52  70  63  50  33  59  31  72  54  61  49 233 216 218 217 210 201 194 174 173  84  57  93  85  83  72  56  62  58  56  55  52  53  50  53  50  49
  77  76  78  75  76  75  72  71  75  75  74  73  73  72  72  72  73  70  69  66  57  53  84 196 231 100  53  55  71  73  53  33  71  88  85 119 133 110 165 166 150 142 104 151 145 144 127 129 121  95 103 117  94  66 104  25  67  74  64  35  59  18  43  42  64 231 227 227 222 217 211 202 195 192 184 122  60 114 122 109  75  86  51  65  57  55  51  52  52  51  50  54
  75  75  74  72  73  75  75  76  72  71  71  71  70  72  72  71  72  69  67  67  65  74 121 197 216 170 131 130  75  54  75  33  77  76 101  75 121 108 146 124 154 129 115 152 134 125 127 110  85  93  83  90  72  83  31  55  66  34  55  33  50  69 136 149 208 228 231 227 221 214 208 200 199 190 175 132  44 110  80  65  91  70  62  60  55  52  52  50  52  53  55  55
  75  74  74  75  76  75  72  73  72  71  72  71  71  70  71  69  70  70  68  66  84 103 158 197 222 234 130 139  94  75  44  40  65  79  67  94  90  82  88 131 106 127 105 110 104 122 119 112 104  91  75  46  37  61  51  41  29  38  54  93  83  58 192 217 232 224 220 223 222 217 205 206 204 200 164 130  97  85 104 115  90  81  96  55  53  52  52  49  51  55  55  54
  73  73  73  73  74  71  71  71  72  71  70  72  73  72  69  70  67  72  74 105  90 103 169 203 219 238 221 125 149 107  48  61  50  59  55  61  79  76 120  96 142 100 107 103 122 105  95  81  76  83  46  58  54  36  41  25  26  75 118 124  74 211 222 230 222 226 221 223 223 218 213 208 209 203 155 145 104  97  88  97  89  90 109  85  55  49  53  53  50  51  53  54
  73  73  73  73  71  71  71  71  71  70  71  70  70  69  67  71  67  65  97  99 113 118 184 201 218 246 247 160 135 151 139 101  18  43  52  39  51  63 100  83  74 106  94  90 105  79  84  58  69  59  42  27  84  41  46  65  70 112 139 125 191 234 226 227 226 225 224 225 223 220 216 211 210 202 156 148 106  93  99  81  92 121  82  85  77  57  50  50  48  47  50  50
  73  72  72  72  70  71  73  71  69  70  69  69  68  70  66  62  70 109  87 104 108 124 199 202 206 241 251 232 144 145 144 147  88  71  55  55  53  23  67  63  96  90  66  74  97  66  50  57  56  68  86  32  25  60  63 109 126 126 164 208 229 224 223 224 227 231 236 234 229 223 218 209 210 190 170 152 123 119 120 112 104  55  96 111  56  85  50  49  46  50  49  48
  73  74  74  73  72  73  71  69  71  71  69  69  72  68  62  90  99  98 113  98 117 139 194 202 213 231 244 251 218 189 145 127  96  61  70  59  41  46  36  59  63  87  66  80  95  43  79  72  59  98  81  63 124 102 142 123 118 187 211 219 223 222 225 227 226 233 236 236 232 224 219 218 210 164 166 151 103  98  72  86  99 126  97  52  98  92  76  47  49  52  51  47
  73  72  72  72  71  71  71  71  70  71  69  66  79  93  98  98  96 101 115 130 111  81 192 197 217 226 240 251 236 190 165 145 167 153 127  73 113 103  51  74  56  29  64  55  48  63 100  86 103  86 118  83 146 151 134 146 205 211 219 225 223 225 228 235 237 237 239 234 229 226 219 210 212 177 165 107 113 111  90  90  84  37  87 134 107  72  89  88  60  51  50  51
