P2
# Generated by OpenCV 4.2.0
92 112
255
  28  29  27  28  27  30  31  31  33  35  34  36  35  35  36  35  36  35  33  34  34  34  33  34  30  28  27  26  18  27  38  34  24  24  21  14  14   8   5   7   7  11   8  26  38  15  13  12   7   5   4   4   1  14  36  33  16   8  10   8  31  27  34  25   8  11  18  22  19  18  17  17  14  13  12  10   9   7   7   6   5   5   5   4   4   5   6   6   6   7   8  10
  31  30  30  29  29  30  31  31  33  34  35  34  36  36  38  36  35  35  34  34  33  32  33  32  31  26  22  16  19  28  34  35  28  23  17  13  10  11  11   6   9  12   8  19  19  13   9   7  13  14  12   9   6   5  16  22  14  21  20  13  10  22  23  25  13  14  14  21  21  19  18  16  15  14  11  10   8   7   5   4   3   3   3   3   3   3   4   4   5   6   6   8
  32  33  33  34  32  31  31  32  34  35  35  36  36  37  37  37  36  35  34  35  34  32  33  29  24  30  25  24  23  22  25  33  38  37  39  33  23  21  18  11  13  10   6  11  16   8   3   8  13  10  10  10   7   8   9  13  18  30  33  28  11  10  18  21  15  14  16  13  21  20  20  17  16  14  12  10   8   6   4   2   3   2   2   1   2   2   2   3   3   4   5   7
  32  33  33  34  34  33  33  34  34  35  36  36  37  38  37  36  35  35  35  34  34  32  33  34  28  32  25  21  20  20  19  28  34  38  39  39  31  29  22  17  11  10   9  10   8   2   1   7   5   2   2   3   3   3   6   7  10  13  20  24  19  11  10  17  15  17  22  13  16  21  23  19  16  14  12  10   7   5   3   2   1   0   0   0   0   1   1   2   3   3   4   5
  31  34  36  36  36  33  34  35  35  36  36  37  37  38  37  37  37  36  36  34  34  33  33  26  22  20  13  15  25  31  28  29  31  29  27  22  21  20  22  16  24  17  10   3   2  13  19  11   8   7   4   1   1   2   4   6   7   4   7  21  29  15   8  14  14  24  26  18  15  24  27  20  16  14  11   9   6   5   2   1   0   0   0   0   0   0   0   1   2   2   4   5
  34  35  37  37  37  36  36  36  36  37  37  37  37  38  38  37  37  36  36  36  34  26  22  20  17  14  22  34  34  31  28  23  12  11   8   4   4  15  22  18  24  10   9  12  19  22  18  10   6   6   7   2   2   2   3   4  14  20   9   6  14  16  11  11   9  18  24  16  12  20  23  21  20  16  15   9   7   5   2   0   0   0   0   0   0   0   0   1   1   1   3   4
  35  36  38  39  38  38  37  36  37  38  39  39  40  39  39  38  38  36  37  38  27  10  14  13  15  29  33  30  22  11  10  10  11   7   3   4   6   9   7  11  16  23  26  26  27  20  12   8   7   5   2   3   4   3   3   5   3  11  13  16   9   7   9  11   6   9  18   9   5   6  19  25  26  22  13  11   8   8   3   2   1   1   1   0   0   1   1   1   1   1   2   3
  36  38  39  40  40  39  39  39  39  40  41  41  41  41  41  40  40  39  40  34   8   8  13  24  23  15  13  10   7  11  13  12  11   9   5   4   4   7  20  30  35  28  25  22  18  17   6   6   6   6   9   7   5   3   3   7   5   3   6   8  10   6   3   5   8   6   0   4   4   4   3  15  23  31  23  16  11   9   5   1   0   0   0   0   1   1   1   1   1   1   2   3
  36  38  40  40  40  39  40  40  40  41  42  43  43  43  41  41  41  40  41  18   4  16  27  26  10   8  15  16  12   9   6   5   5   5   5   7   7  20  32  18  10   9  15  19  17  10  11  10   7   7   5   3   3   2   4  11   8   5   3   5   6   5   4   4   4   2   1   4  10  11  11   6  11  18  19  23  12   6   4   3   1   0   0   0   1   1   1   1   1   1   2   3
  36  38  40  40  41  40  41  40  40  42  43  45  45  44  43  42  42  42  36   7  13  27  25   9  13  17  13  10   6   6   5   3   6   8   6   7   8  16  16   9   9  13   9  10  13  16  14  15  23  19   9   5   3   3   4   6  11   6   2   1   2   2   2   6   4   4   2   1   9  12  18  11   8  13  13  11  16   9   4   7   2   1   0   1   1   1   2   2   2   2   3   3
  36  38  39  40  40  41  41  41  41  42  44  45  44  46  44  43  43  42  26   6  25  17  14  19  13  10   9   9   7   5   5  16  15  12  10   5   7  14  15   9   3   3   7  11  12  15  23  27  18  18  23  17   5   5   6   4   7  13   4   1   3   2   3   6   3   2   3   4  12  17  13   7   8  12  10   8  12  13   2   2   1   1   1   1   1   1   2   2   2   2   2   2
  35  37  39  40  40  41  41  41  42  43  44  45  45  45  44  43  45  31   3  13  21  17  22  11   8  14   8  11   6   9  35  32  17   9   6  14  26  25  19  14   7   3   6   9  16  39  55  51  36  14   9  11  10   9   8   4   3   4   4   4   5   4   4   4   4   2   2   2  15  14   7   6   8   8  12  12  11   9   5   1   1   1   1   1   1   0   1   0   1   2   2   2
  36  37  39  40  39  40  40  41  42  43  44  45  46  46  45  45  43  17   1  15  19  24  11  13  30  14  12  11  11  34  39  20   9  13  17  18  19  32  32  27  17   7   5  13  21  44  65  46  31  26  18   8   9   7   6   4   3   0   2   2   4   6   4   4   3   3   3   2   3   5   7   8   6   7  15  25  26  21  12   1   1   1   1   0   1   1   1   1   0   0   1   2
  36  37  37  38  38  39  40  41  42  43  43  45  45  46  48  35  16   2   3  11  18  11  14  29  29  14  10  16  37  33  14   9  27  36  30  28  29  29  27  28  26  20  12  10  17  44  61  44  33  19  20  14   7   3   5   3   1   3   3   1   6   6   6   4   4   5   3   3   1   6   9   7   5   7   4   8  16  18  24  18   1   1   1   2   1   0   0   1   0   0   0   1
  34  34  36  37  38  38  39  40  41  43  43  44  47  46  37  15   1   1   5  12  13  16  19  22  12  22  22  34  26   9  15  31  26  26  41  47  46  37  28  20  17  16  13  10   8  24  35  41  39  31  20  18  13   6   7   5   0   2   4   2   4   5   5   3   6   7   4   2   3   3   4   4   4   3   3   4  10   9  12  24  20   3   1   1   0   0   0   1   0   0   0   0
  33  33  35  36  37  38  38  39  41  43  44  45  47  50  26   0   3   4   4   9  18  18  13  13  17  19  25  27  11  15  14  15  21  44  52  51  43  37  29  19  17  13  12  12   8  10  23  48  42  26  18   6   8   5   4   3   3   2   2   3   2   5   2   4   3   6   5   3   3   3   5   3   2   0   1   3   8  13   9   6  18  10   0   0   0   0   0   0   0   0   0   0
  32  33  35  36  37  38  39  40  41  43  46  48  50  32   9   3   4   5   4  15  20   9  11  25  23  20  23  19  13   9  13  27  42  53  51  38  39  40  38  33  26  21  15  11  12   7  15  48  59  38  36  14   9   6   4   5   3   3   2   5   1   5   6   3   3   2   3   4   5   3   2   1   2   1   2   3   3  12  11   7  11  17   2   0   0   0   0   0   0   0   0   0
  30  32  34  36  36  38  38  41  42  45  46  49  51  17   0   3   3   6  11  16  13   5  16  24  23  19  22  24  13  11  20  25  22  27  33  32  31  30  30  37  31  22  23  21  18  15   5   5  25  34  28  17  12  10   7   6   4   3   1   2   2   3   3   3   3   3   2   2   5  10   6   3   3   3   4   4   7   8   6   8   7  15   7   0   0   0   0   0   0   0   0   0
  30  31  34  36  36  38  39  40  43  44  44  46  38   7   1   2   2  10  10  10  10  14  17  23  20  17  22  10  12  21  31  35  37  36  32  31  29  26  24  21  23  18  23  16  12  23  24  11   4   5  13  20  13   8   4   4   4   4   2   1   1   2   3   8   5   3   2   1   1  10  15  10   3   0   3   1   2   6   5   5   7  12   7   0   0   0   1   0   0   0   0   0
  30  32  35  36  36  38  39  40  42  43  43  35  11   4   3   3   8  15   4   9  17  18  18  23  12  21  11   6  12  14  27  42  40  30  14  11   6   5   6   6   7   8  11  11  17  22  19  32   8  10  15  10  14  25  18   6   4   7   4   1   3   8   8   6   3   3   3   6   2   1   4   8   4   3   2   1   2   2   5   7   6  11   8   0   0   0   0   0   0   0   0   0
  32  34  36  38  38  39  40  40  40  39  32  15   2   3   3   4  19  10   5  12  15  17  17  15   8   5   6   8  18  34  36  29  20  17  14   9   5   3   1   1   3   0   1   9  22  14   9  18  28  20  16   5   5  12  15  18  19  15   9   5   4   3   4   2   2   3   5   3   4   3   3   3   2   4   3   2   1   1   2   6   7   8   7   0   0   0   1   0   0   0   0   0
  35  37  40  43  43  43  43  40  39  28   9   4   3   3   3  13  19   7   8  12  23  19  10  10   5   4   6  17  33  40  36  25  16   8   5   6   6   3   3   6   8  12  19  22  16  21  24  19  19  17   9   2   7  23  19  11  17  17   7   5   4   2   1   2   2   3   4   3   4   2   3   4   3   4   1   1   4   4   3   6   8   6   4   0   2   2   1   0   0   0   0   0
  37  40  45  47  48  46  45  41  36  12   4   3   3   4   6  18   7   9   9  21  23   9   9   7   6   8  24  38  36  29  22  10   8   4   2   4   7   6   3   2   3  10  34  34  19  15  15  10   8   9   9   6   2  12  28  26  13   9   9   4   3   1   2   3   3   3   4   4   4   3   1   3   5   4   4   2   7   3   3   4   2   3   4   3   3   2   0   0   0   0   0   0
  41  43  46  48  47  45  43  39  29   3   3   5   3   6  15  12   6   9  15  20  11  17  13   3   7  20  32  32  23  20  17  13   8   7   6   9   9   7  11  27  42  37  30  22  13   9   6   6   4   3   6  11  10   4   1  11  25  17   9   3   4   4   3   3   4   3   4   3   1   2   1   2   3   1   4   3   2   1   3   3   4   3   7   6   1   0   0   0   0   0   0   0
  42  46  47  46  46  45  39  35  19   3   6   4   5   6   8  14  17  13  19  19  16  14   8   6  18  38  40  29  23  22  20  15  11  10  13  17  21  28  47  52  52  38  37  28  18  13   9   9   9   5   4   6  10  18  30  10  25  28  31  21   5   3   4   2   2   3   2   2   2   4   3   3   2   1   2   3   1   6   4   2   4   4   6   6   2   0   0   0   0   0   0   0
  41  45  46  44  42  40  36  27   8   6   4   3   4   5   7  16  19  22  32  31  22   8   4  13  29  43  41  37  29  24  24  18  12  17  26  43  49  51  54  40  26  22  17  16  10  11  11   9  12   9   8  12  10   5  19  13  16  25  21  29  16   5   5   4   2   1   2   3   2   2   1   2   3   1   1   2   0   2   1   1   2   5   3   5   3   1   0   0   0   0   0   0
  40  42  42  40  39  37  33  20   5  12  10  16  26  20  16  23  19  14  10   8   5   5   9  26  44  48  42  33  28  30  30  29  24  25  46  44  34  34  21  22  35  45  55  52  36  17   7   8  10  21  21  24   6   2   9  25  27   9   4  15  14   8   6   5   5   3   2   3   2   1   1   1   2   1   2   3   1   2   2   1   2   9   4   4   5   1   0   0   0   0   0   0
  37  37  37  36  35  33  31  14   5   7   9  21  36  37  36  36  28  26  16   7   4  13  22  38  50  52  45  32  37  34  24  22  22  32  30  22  13   8  16  27  32  51  63  62  69  68  46  27  27  27  27  24  39  26   9  23  59  62  45  10   6  10   6   6   4   2   3   2   3   1   1   2   5   4   2   4   1   1   1   1   4   8   6   6   5   1   0   0   0   0   0   0
  33  33  31  32  31  28  24  13   9  10  13  14  19  17  18  20  18  13  13  14  19  14  26  36  35  42  39  31  25  20  18  22  28  25  18  20  13  12  19  28  29  20  17  24  33  48 100  67  47  49  23  15  42  56  86  51  36  69  93  30   8  33  32  13   3   4   4   1   2   3   3   3   3   4   3   1   2   4   2   2   5   5   5   6   6   2   0   0   0   0   0   0
  29  29  28  27  27  23  21  15  14  24  29  24  19  13  19  23  29  25  28  30  15  14  20  24  35  34  22  16  26  27  28  24  25  21  27  23  18  27  35  36  30  30  27  32  57  88 105  95  65  64  21  39  31  24  64  62  49  55  46  68  33  32  57  32  16   7   2   2   3   3   2   2   2   4   2   1   2   5   3   3   3   7   8   6   5   2   0   0   0   0   0   0
  22  24  23  23  21  18  15  10   5   4   2   9  17  22  25  28  29  31  32  16   4  14  23  26  28  17  14  22  31  34  23  30  23  23  35  34  42  43  39  50  69  73  64  94 135 128 111  88 102 105  59  39  38  31  21  21  62  43  44  74  77  47  43  28  23  18   8   5   6   3   2   2   2   3   3   2   2   4   7   3   2   3   6   4   9   5   2   1   0   0   0   0
  16  19  19  20  16  13  13  16   7   8  14  19  12  11  19  22  27  28  13   4   6  14  20  22  21  19  24  27  29  22  23  38  25  38  42  51  57  81 102 118 119 104 122 127 103  67  64  83 100 126 125  96  96  92  66  61  43  52  83  67  81  49  26  26  18  12  10   6   4   2   2   3   2   2   1   4   2   2   4   4   2   3   4   3  20  19   0   2   1   1   1   1
  12  12  13  14  12  10  12  25  20  13   7   7  13  25  26  20  19  11   2   6  17  19  16  20  20  26  20  32  28  17  39  35  41  46  48  77 120 144 146 146 147 163 138  77  76  85 108 128 143 154 153 154 149 133 115 111 104 119  90  70  71  44  33  25  21  13  11  14  10   2   5   5   4   2   2   1   2   2   1   2   3   3   4   6  15  31   2   2   3   2   2   2
   6   6   7   7   6   6  10  12  15  18  18  14  21  35  30  26  21   7  13  13  17  14  14  22  21  15  24  27  19  38  44  44  46  45  92 147 164 161 155 152 178 169 154 160 174 184 171 160 172 167 169 180 169 166 171 139 130 126 112  90  75  54  44  40  31  21  20  19  14   7   8   5   4   2   2   1   1   1   2   2   2   3   4   6   8  27  15   4   5   7   6   5
   3   3   3   3   3   2   6  12  12   6  10  16  23  28  22  20   7  17  20  18  16  15  20  17  13  30  43  33  30  44  48  68  42  77 140 160 154 165 168 188 189 177 195 205 197 193 191 191 192 191 192 193 185 182 179 150 152 136 138 115 102  79  58  55  47  33  27  20  10   9   6   4   4   3   2   3   3   2   2   3   3   4   4   6  12  22  22   9   9  10  10   9
   2   4   3   2   2   3   3   6  13  16  12  17  16  15  12  11  11  20  17  13  17  17  20  30  43  45  28  20  35  45  56  76  55 130 151 152 168 186 196 198 195 201 201 202 207 210 211 208 203 201 198 187 180 189 174 171 176 153 159 139 129 109  79  57  49  49  38  25  16  10   5   6   4   3   3   4   3   2   1   3   5   4   4   5   7  21  20  11  14  14  14  12
   3   3   3   2   2   2   3   4   5  12  23  16   7   9  11  10  11  18  14  14  19  27  34  35  28  19  25  28  38  53 125  76 117 181 182 189 195 196 197 197 199 201 203 209 214 215 212 210 208 204 201 192 193 189 182 184 179 172 160 163 114 133  99  71  56  48  46  33  20   6   9   9   5   3   2   3   2   2   3   4   4   6   5   7   7  21  18  14  17  20  18  15
   4   3   3   3   2   4   4   5   3   5  10  19  22  19  13  12  14  15  16  17  19  18  16  21  25  21  42  40  34  94 139  58 166 189 189 198 199 200 201 204 204 204 207 212 215 218 216 212 210 206 204 200 197 195 194 193 191 193 168 178 143 117 116  84  64  49  27  27  34  17  14   9   5   4   4   3   3   2   4   5   4   6   5   5   3  18  16  15  19  22  21  19
   8   6   4   3   2   3   4   3   3   5   7  13  22  24  15  11  10  10  11  13  11  10  17  24  20  34  81  59  27 114  72  79 177 186 194 196 201 202 205 206 207 207 208 211 219 223 220 215 213 208 204 202 198 199 198 199 200 199 187 184 180 142 125  97  70  41  31  30  38  35  17   8   4   8   6   6   4   2   3   6   9   5   3   4   5  14  15  17  21  22  22  20
  11   9   6   3   3   2   3   2   1   3   6   9  10  10  10   9  13  14  13  12  11  13  17  21  47  91 115  50  28  85  48 115 185 189 193 196 201 202 205 205 209 210 206 212 220 222 222 217 215 214 208 205 202 204 202 202 203 198 194 192 185 181 162 115  89  51  20  42  40  32  20  15  14   8   8   5   4   4   4   6   5   5   5   4   7  12  15  18  19  22  22  20
  16  13  10   6   4   3   2   2   2   2   4   9  10  11  14  17  16  17  14  11  16  16  16  28  98 136 125  52  28  47  84 142 187 187 191 197 203 203 205 206 209 207 200 209 217 221 216 213 212 212 212 208 208 208 209 203 201 199 195 190 185 182 170 152 104  82  28  34  35  42  56  41  20  12   9   5   5   4   4   3   3   6   3   4  10  14  15  18  19  20  21  21
  22  18  13   9   6   3   4   3   3   6   1   7  12   9  12  15  13  10  11  12  11  10  16  50 126 149 128  61  23  58 109 156 185 188 192 199 204 203 205 211 210 210 211 217 221 221 219 215 214 210 208 209 211 208 207 201 199 197 193 188 182 179 174 167 120 101  69  30  46  77  75  40  19  13  11   9   5   3   3   3   5   7   2   4   8   9  13  15  17  19  19  19
  24  21  17  13   8   4   6   4   2  16  12  13  18  15  16  16   9   7   7   9   9  11  26  91 138 143 147  94  21  82 117 166 185 191 193 199 202 205 207 210 210 214 217 221 224 226 225 221 219 213 211 212 211 208 204 201 198 194 188 186 181 180 175 167 135 104  98  33  68  91  71  47  25  15  19  10   6   3   3   4   7   5   3   4   6   7  10  11  14  16  16  16
  29  25  20  15  11   7   4   4   4  14  18  20  28  18  13  12   9   5   3   6  10  18  66 121 127 144 158 130  23  50 113 175 181 186 190 193 198 202 206 208 212 213 216 220 224 226 223 221 217 214 213 213 207 205 204 200 199 192 189 187 182 179 173 165 155 137 120  49  63  80  75  61  40  18  22   8   5   5   5   5   7   4   4   3   6   6   6   9  12  14  14  13
  32  28  24  18  13   8   6   4   7  10  16  18  32  16   4   8  10   9   8   8  10  42  93 125 137 156 169 127  57  46  91 180 179 181 186 188 190 199 202 203 208 209 216 221 223 224 224 221 214 213 211 212 209 206 205 200 198 192 188 185 183 178 171 163 157 155 153 109  67  56  52  57  36  20  22   9   6   5   6   6   6   6   4   3   4   4   5   8  10  11  11  10
  35  30  25  20  15  10   6   5   8  13  14  21  29  11   5  10  10   7   7  11  25  53  98 132 149 159 169 106  94 126  98 176 180 177 183 187 191 195 196 200 206 209 215 217 219 221 222 219 215 212 211 211 207 206 204 201 199 192 187 186 183 179 172 164 161 158 157 151 110  59  43  45  34  23  31  11   6   4   7   7   5   8   5   3   4   4   4   6   8   9   9   8
  37  32  27  21  17  12   9   7   9  16  24  26  19  13   6   7   8   9   9  20  38  76 101 130 148 160 174  93 120 132 142 180 179 178 182 187 191 196 200 205 212 214 219 219 217 220 223 220 217 215 213 212 209 206 204 201 198 194 190 184 183 181 174 168 164 159 157 148 140  98  50  45  34  32  34  11   7   7   6   8   5   8   6   3   7   4   3   5   6   7   7   7
  37  34  28  24  18  14   8   8  15  22  35  30  11  13   6   3   6   8  22  28  59  88  96 132 144 157 162  87 138 118 169 176 178 180 180 185 190 197 203 211 213 214 213 222 222 221 222 218 216 217 217 212 210 202 203 201 199 196 191 185 187 182 175 168 163 159 157 143 136 114  68  37  36  38  41  17  10   7   5   9   7   7   4   6   8   2   3   4   5   6   7   7
  37  34  29  25  22  15  11  10  13  24  31  28  11   9   7   2   5  21  50  50  84  85  90 128 146 157 139  90 136 145 175 175 179 180 180 184 189 194 205 217 221 220 217 220 226 220 221 220 215 217 218 212 208 204 202 201 200 198 193 191 187 182 179 171 163 161 155 145 137 120  81  33  32  50  45  20  12   9   7   9   9   7   4   5   5   3   3   3   4   5   6   6
  34  32  30  27  21  13   8   5   8  19  27  25  14   9   5   5  11  53  77  83  97  86  89 126 144 157 117 106 166 173 172 173 178 183 183 186 189 199 209 219 223 224 226 226 228 223 226 223 218 224 220 211 208 205 203 199 198 197 193 190 185 183 178 173 165 161 153 144 136 124 100  35  35  52  49  23  17  10   9   8   7   5   5   5   2   2   1   3   4   5   5   5
  35  34  29  27  25  47  65  40  11  22  24  24  20   9   5  10  34  84  97  99  99  82  87 128 142 130  76 103 154 162 167 169 174 182 184 186 191 195 205 218 228 222 229 231 227 226 227 225 221 221 221 213 209 206 203 199 196 197 191 189 184 178 174 168 163 156 149 139 131 126 107  41  24  53  45  38  22  13  10   7   7   5   4   4   1   1   2   2   4   4   5   5
  34  34  32  26  46 100 134 124  38  15  24  25  25   8  10  21  55  81  91  99  97  74  90 108 101  84  79  92 107 122 136 154 166 175 184 189 191 195 199 211 221 224 220 228 225 226 229 227 220 224 220 216 216 213 205 199 197 195 187 185 180 175 164 154 150 154 144 134 132 124 108  59  26  36  40  41  22  14   8   8   7   6   7   3   2   1   2   2   3   4   4   4
  36  36  34  30  57 106 139 125  65  13  25  25  24   6  17  32  67  84  90  99  88  71  59  70  71  60  58  69  84  87  82  90 111 125 140 164 183 195 198 202 211 215 212 213 216 219 219 216 213 222 217 216 214 209 202 197 195 190 179 172 164 154 133 132 110 116 142 131 125 120 109  88  46  18  36  37  28  16  12   9   9   5   7   0   0   0   0   2   3   4   5   5
  38  38  37  32  72  95 116 133 116  25  22  30  31   9  13  31  74  91  91  93  78  54  43  74 102 109 106 109 123 127  93  80  83  91  83  98 122 162 186 190 195 199 200 201 202 206 204 205 205 205 206 204 198 196 177 152 136 138 126 122 112 111 114 116 102  88  97 115 119 113 105 104  53  22  33  32  33  15  10  13  10   7   0  21  58  48   6   0   2   3   4   5
  41  41  39  31  90 121  97 117 139  71  19  26  21   7  14  33  80  89  91  87  64  41  71 108 125 127 143 151 148 159 152 139 118 108  89  77  90 118 137 166 187 190 194 195 196 195 195 196 194 188 186 177 143 116  85  67  66  75  79  83  94 105 110 102  92  87  77  68  96 105 102 101  66  39  29  27  28  16  12  10   5   7  63 145 169 144  66   1   2   3   4   4
  43  42  41  31  94 142 136  99 105 102  23  24  17  11  17  37  80  88  91  79  59  71 108 115 124 131 139 144 147 155 163 162 157 144 136 118 116 131 127 139 173 185 190 193 195 197 192 183 177 173 165 151 108  77  67  81  95 110 112 131 151 157 157 158 131 107  98  79  59  88 102  98  86  54  29  23  24  14  11   6   0  84 180 187 176 146  89   5   0   2   3   3
  45  44  42  33  97 148 143 110 109  93  49  21  16  19  23  42  80  89  87  78  77 101 119 124 127 130 137 142 144 141 142 145 147 136 129 129 129 136 146 142 156 176 184 188 195 197 190 180 176 169 159 145 139 131 122 124 130 145 157 167 163 163 163 161 150 142 137 114  83  80  98  96  91  61  34  24  18  10   8   0  46 184 195 181 155 118  66   1   0   2   3   3
  46  46  43  33  81 148 149 119 127 145 103  29  16  17  29  43  74  86  89  86 102 126 132 118 116 121 126 116 114 104 102 106 122 124 109 104 105 117 125 134 150 167 178 184 194 197 186 178 169 162 155 142 130 117 106 104 115 132 145 146 150 154 155 151 149 145 138 128 114  89  97  91  93  93  49  18  17  14   5   9 128 188 172 137 100 116  54   0   1   2   2   3
  47  46  44  35  53 143 151 135 128 161 140  76  16  15  22  48  76  84  91 104 122 137 136 120 112 118  96  89  68  47  44  41  34  53  84 109 108 103 116 120 133 157 173 184 200 204 189 178 166 152 130 116 108  99 108 118 108 108 119 110 118 125 127 137 140 134 131 127 121 111 102  86  95  92  49  24  18  16   1  45 147 145 111 112 141 138  19   0   1   1   1   2
  47  46  43  39  31 120 159 128 132 162 142 114  24   8  23  49  77  88  94 119 134 142 144 129 123 109  71  27  57  78  72  47  36  61  78 100 117 117 116 122 115 137 169 183 202 209 194 179 156 128 118 121 117 125 117  90  64  48  42  53  46  80 100 101 119 129 124 130 135 126 104  89  98  91  38  19  17  11  13  82 148 162 126 139 165 111   0   0   1   1   1   2
  46  45  42  38  26  59 163 124 142 166 164 129  22   5  22  52  80  84 101 127 139 146 146 129 113  85  39  58 130 141  86  75  54  86 115 182 146 115 145 134 125 119 162 184 198 208 198 177 138 116 124 135 146 117 135 118  75  62  46  65  64  49  45  77  97 127 125 140 143 137 115 100 105  98  37  13  13  18  77 138 186 181 139 148 165  58   0   0   0   0   1   2
  45  44  42  36  30  21 120 144 154 178 183 170  55   4  17  55  82  87 106 133 143 145 141 125 114  93  71  94 102 109  94  99 127 117 131 159 131 117 149 162 139 116 156 182 196 201 194 174 130 121 137 169 144 126 191 158  95  67  44  77  93 145  76  33  79 121 136 149 152 141 129 111 102  92  46  19  15  42 120 170 179 173 135 162 149  10   0   0   0   1   1   1
  44  42  39  34  30  18  61 141 172 187 183 179  82   3  18  56  81  89 113 134 146 148 148 143 143 138 113 102 107  99 123 133 148 154 146 141 144 155 164 162 125 119 156 178 193 197 191 168 130 130 157 175 140 140 138 144 120 122 104  93 120 138 115  73  58 108 139 155 160 150 141 120 100  80  45  22  22  81 145 164 178 170 122 174 115   0   0   0   0   0   1   1
  42  41  36  32  29  22  28 114 189 193 185 161 109  30  21  63  84  89 116 139 148 149 149 154 151 152 146 128 127 139 151 154 151 157 148 139 144 170 172 134 113 130 152 175 191 192 187 164 132 125 145 183 183 165 145 152 149 157 135 120 111 102 102  98 106 121 128 154 165 156 144 123  97  80  48  27  35 136 195 189 184 171 138 175  51   0   0   0   0   0   1   0
  41  39  34  31  28  22  21  94 170 178 184 162 140  46  16  61  85  92 118 139 148 150 149 154 158 159 160 156 148 147 152 156 155 149 143 142 152 155 139 121 119 133 145 174 186 186 184 157 133 128 134 151 165 153 143 146 153 157 149 140 127 118 118 133 157 157 152 158 163 161 148 123 106  99  60  21  60 170 195 192 194 177 159 135   4   0   0   0   0   0   0   0
  37  35  32  29  25  20  18  80 158 157 162 152 163  70  10  59  82  91 116 139 150 152 153 156 162 163 163 166 169 166 164 161 153 152 154 160 165 151 139 128 130 129 141 169 178 180 177 150 132 134 138 151 159 159 152 146 146 151 156 156 148 142 154 167 167 165 165 164 162 165 154 124 105  95  58  13  83 172 201 193 199 183 162  65   0   0   0   0   0   0   0   0
  35  33  31  27  23  18  11  71 145 154 141 135 160 145  19  45  79  85 114 136 147 155 159 159 162 170 170 173 178 179 175 172 169 170 170 172 169 159 145 133 134 119 142 171 177 178 172 142 127 140 142 160 171 169 166 162 160 166 169 169 163 165 173 172 168 167 165 166 168 166 155 129 103  92  48  13 116 168 217 197 200 175 135  15   0   0   0   0   0   0   0   0
  33  31  29  26  21  16   8  71 137 164 127 119 141 182  66  31  79  88 112 131 147 160 160 159 167 172 176 181 183 180 179 173 175 179 179 174 170 157 144 138 125 114 144 168 177 179 172 145 124 141 147 156 180 184 180 173 175 177 183 183 171 169 177 171 171 171 168 170 172 168 153 126 103  85  40  26 146 161 188 182 191 162  99   0   2   0   0   1   0   0   0   0
  30  29  27  24  19  16   5  69 143 139 136 151 129 169  99  31  72  85 106 129 147 157 160 164 169 173 177 183 182 181 183 181 182 180 177 175 169 154 145 135 112 118 147 168 177 183 172 149 123 134 147 156 175 192 190 185 184 177 179 184 187 181 180 182 180 174 175 174 173 167 151 123  97  85  36  66 183 143 156 178 173 158  63   0   4   1   1   0   0   0   0   0
  29  30  27  23  20  17   5  54 132 125 153 162 130 153  95  26  72  81 104 132 150 157 163 165 168 173 178 186 187 187 186 178 174 176 177 174 165 154 143 117 108 131 156 173 183 183 176 153 127 122 141 155 170 191 196 194 191 187 186 188 191 188 187 188 183 180 176 174 173 164 148 114  94  74  33 139 171 111 150 190 160 153  31   4   4   3   1   0   0   0   0   0
  29  28  26  24  20  18   7  38 120 150 171 161 159 156  90  34  66  78 104 133 148 155 162 165 168 174 178 185 182 173 168 169 172 176 179 178 175 161 121 104 121 141 158 171 181 180 176 159 136 119 130 159 172 184 192 197 190 192 190 193 197 193 193 188 187 186 179 174 168 163 144 110  93  64  71 181 127 130 140 154 174 123   9  11   8   5   3   1   0   0   0   1
  30  29  28  26  22  19   8  42 146 167 178 167 166 159  84  29  60  81  99 124 148 158 163 166 171 176 172 173 174 170 170 171 177 178 187 193 182 127 100 112 138 155 165 171 181 181 174 167 146 126 117 151 186 189 190 195 190 184 189 189 195 198 194 192 186 180 179 176 168 160 137 103  89  60 102 161 134 179 156 151 174  81  10  13  11   7   5   2   1   1   1   1
  30  31  30  28  24  21  10  42 144 165 180 180 157 156  89  24  59  76  97 125 145 156 161 164 172 173 165 168 169 163 166 178 180 184 200 200 145 105 110 122 146 162 168 176 180 183 176 168 148 132 121 126 187 207 199 194 189 182 185 186 187 196 194 192 187 180 181 175 167 158 126  97  87  54  89 157 179 183 166 163 149  55  13  18  14  10   7   4   3   1   2   3
  32  33  32  30  28  23  15  25 119 159 179 175 148 167  93  23  51  79 102 125 141 150 159 161 166 166 166 168 166 166 173 182 195 202 207 175 112 121 122 133 152 166 170 176 178 185 177 161 146 137 140 125 162 209 215 203 195 187 187 187 188 190 187 189 186 185 181 175 167 153 122  98  81  51 102 164 173 182 185 191 125  28  21  20  16  13   9   7   5   4   4   5
  33  36  35  35  31  26  20  10  75 157 169 161 159 177  87  32  49  80 103 122 139 150 153 158 162 164 166 168 169 175 181 189 204 206 201 145 112 133 137 135 150 163 175 181 185 190 180 157 145 144 152 136 145 199 212 214 203 193 191 186 182 185 182 182 183 182 177 174 165 150 122 100  79  45 124 157 170 192 193 198 113  19  26  22  17  14  11  10   8   6   7   7
  36  38  38  38  33  27  22  11  14 103 164 172 177 173  80  36  51  83 107 115 135 145 149 158 160 160 167 167 172 179 188 194 205 200 190 134 125 132 143 138 146 166 185 203 207 197 182 158 144 152 156 142 133 190 209 210 210 205 197 186 179 184 184 184 183 177 170 169 160 145 122 103  73  56 143 159 174 197 193 181  85  20  27  24  20  16  14  13  10   8   8   9
  39  39  39  40  33  28  22  16   8   9  58 101 106  65  22  33  60  83 107 114 130 144 149 155 156 158 164 168 170 176 190 197 201 194 187 138 123 113 114 116 127 160 185 202 200 197 171 148 141 148 142 139 130 185 201 207 214 208 201 193 187 186 181 184 177 171 165 163 159 137 122 101  65  55 164 170 165 190 189 157  49  24  27  24  19  18  17  15  11   9   9   9
  40  40  41  38  33  28  22  16  10   4   0   0   0   0  12  34  62  77 105 121 128 142 149 154 151 159 162 171 173 175 190 198 195 185 183 163 114 125 153 132 102 128 161 166 169 168 140 115 110 116 113 119 134 195 199 204 210 210 201 194 192 189 185 177 169 169 164 157 155 134 119  93  70  54 148 181 169 180 179  97  24  28  26  23  20  21  20  16  12  10  10  11
  38  39  40  38  32  27  21  14  10   6   3   1   1   3  15  39  62  80 103 125 129 136 141 148 151 158 162 171 179 183 191 197 186 180 178 177 152 125 135 155 149 117 107 118 134 121 100 112 132 138 123 127 174 197 200 202 207 208 202 197 188 184 183 177 168 163 161 155 149 134 116  88  67  61  98 167 172 158  91  27  26  27  24  22  21  20  18  14  11  10  11  12
  37  39  38  36  32  26  20  15   9   5   2   1   2   1  14  45  62  82  99 121 128 132 134 143 150 158 164 171 179 183 181 186 185 182 176 174 167 146 124 117 137 156 130 104 107 120 140 141 130 128 143 171 186 191 196 198 203 206 202 194 189 182 181 174 162 156 156 154 147 131 118  96  66  48  27  62  78  50  21  26  27  25  22  20  20  18  15  13  10   9  11  13
  36  36  37  34  30  24  19  13   8   4   1   1   1   2   9  42  73  79 101 115 120 125 136 141 147 157 167 172 180 177 179 177 178 177 173 166 154 140 114  97 124 152 162 158 149 146 152 115 109 145 156 172 183 189 193 196 196 204 198 194 192 181 172 169 158 156 155 149 140 126 112  96  67  45  20  17  17  22  27  27  25  22  21  19  16  15  12  10   9  10  10  12
  33  35  35  32  28  23  17  12   7   4   0   1   1   0   7  33  70  86 100 107 122 125 130 134 139 152 163 173 178 174 175 174 169 163 161 155 140 117 121 136 121 148 166 173 159 143 148 131 103 119 145 166 176 181 186 192 194 196 196 198 190 180 172 168 157 155 154 153 143 129 109  93  70  44  21  24  25  26  26  24  22  20  18  16  13  12  10   8   9   9  10  11
  32  35  33  30  26  21  16  12   6   3   1   1   1   0   8  34  67  83  92  99 116 116 112 121 136 151 163 168 171 173 171 169 159 142 140 138 128 110 137 140 137 163 168 185 165 151 155 149 118 116 146 152 155 169 181 189 194 189 192 192 184 181 176 170 157 151 148 148 129 112 114  93  77  38  19  23  24  25  26  23  21  18  16  13  11   9   8   7   7   7   8   9
  30  32  33  29  25  20  15  11   6   2   1   1   1   0   6  33  70  90  89 103 113 108 115 126 138 144 159 168 164 162 156 161 139 117 127 138 134 146 143 140 154 160 168 205 189 160 154 153 156 159 145 127 134 154 168 177 184 189 184 180 185 180 174 164 153 146 148 144 126 105 106  85  69  33  17  23  24  25  24  22  19  16  13  10   8   5   5   5   6   6   7   8
  30  30  30  27  23  18  15  11   5   2   0   0   1   0   7  26  71 108  99  96 111 103 109 127 134 143 160 164 157 148 143 140 134 120 131 157 149 144 152 149 153 155 154 173 176 160 160 162 168 167 144 124 131 143 138 156 165 178 175 170 182 178 166 156 153 145 149 142 126 110 106  89  59  30  21  22  24  23  22  19  16  15  11   8   4   3   3   5   4   5   6   8
  30  30  29  26  23  18  14   9   5   2   0   1   1   0   5  24  60 100 109 102 108 125 111 118 127 144 160 161 147 129 132 135 140 133 138 156 159 162 167 166 168 171 160 154 154 165 177 176 172 161 159 151 141 144 139 142 148 156 160 165 174 174 157 145 155 142 147 134 115  99 111  84  60  29  20  23  22  21  20  17  14  12   7   5   3   2   2   3   4   4   6   8
  29  29  29  26  23  19  14   9   5   1   1   1   1   0   1  17  50  90 106 105 125  93 108 113 127 141 159 157 134 108 132 154 149 152 154 159 156 153 146 141 140 149 164 171 169 164 157 160 165 167 171 171 163 154 152 145 141 135 139 156 167 166 155 149 152 141 136 120 119 104 112  88  50  24  18  22  21  20  17  15  11   9   6   3   1   1   2   2   3   4   6   8
  28  29  28  26  22  19  15  10   5   1   1   1   1   1   0  11  53  86 100 111 115  91 104 122 121 136 159 153 131 109 141 160 152 147 134 126 120 115 115 117 122 115 115 122 122 115 114 122 124 132 142 151 165 161 165 155 144 132 119 145 166 163 154 151 143 134 131 111 115 129 114  86  41  16  17  18  18  17  14  12  10   7   3   1   1   1   1   1   3   4   6   8
  28  29  29  27  23  19  15  10   5   2   1   0   1   0   0   5  41  55  86 115 117 101 103  99 105 134 156 163 143 124 154 153 129  97  81  83  85  85  82  84  91  89  82  83  88  91  92  91  85  92  97 100 110 120 133 156 156 141 121 145 166 162 152 141 142 143 129 107 125 124 109  77  39  11  14  16  16  14  11  10   7   5   2   0   0   0   0   1   2   3   6   8
  28  29  29  27  24  19  14  10   7   4   2   1   1   1   0   2  26  60  82 114 118 120 121  97 104 137 160 168 152 138 154 160 155 142 113  88  90  96 100 103  97  94  96  90  94  92  95  98  96  99  90  84  77  96 114 144 160 149 132 153 169 157 142 131 139 135 103 105 128 112  87  70  26   8  12  13  11  11   9   7   5   2   0   0   0   0   1   2   3   4   6   8
  27  29  30  28  24  19  14  11   7   4   2   1   1   0   0   0  10  48  74  95 112 120 130  95  69 120 160 166 162 155 166 171 173 171 159 139 123 117 124 133 132 133 129 122 128 130 128 127 130 133 122 123 139 164 174 176 164 163 159 167 170 153 133 137 139 131  98 119 123 107  78  55  14   7  10  11  10   7   6   5   2   0   0   0   0   0   1   2   3   4   6   8
  27  29  31  28  23  19  15  11   7   4   2   0   1   0   0   0   0  29  68  87 100 118 132 106  64  96 154 164 162 166 173 166 165 166 165 157 150 144 137 136 139 140 136 128 138 146 140 139 134 140 147 156 167 170 179 178 177 175 169 175 170 148 138 121 130 127 123 120 111  83  66  25   4   6   7   8   6   4   3   2   1   0   0   0   0   0   1   2   3   4   6   8
  26  29  30  28  23  19  15  10   7   4   2   0   0   0   0   0   3  11  36  82  87 114 128 103  74 106 147 160 165 173 171 161 162 163 165 157 155 160 155 144 151 159 150 142 148 154 154 150 156 164 167 166 172 171 171 168 180 176 175 178 166 146 138 125 123 110 131 112 101  69  50   7   7  11   4   4   3   2   1   0   0   0   0   0   0   0   1   3   3   4   6   7
  24  28  29  26  22  18  14  10   6   4   2   1   0   0   2   6   9   8  18  57 100 113 126 110  82 106 142 155 163 174 169 158 159 161 164 159 155 161 164 156 156 157 155 153 155 156 156 163 170 167 166 171 175 176 174 175 180 182 179 174 159 145 134 132 132 122 123 105  75  63  19   0  10  12   8   2   0   0   0   0   0   0   0   0   0   0   2   2   3   4   5   7
  23  25  26  24  21  17  13   9   5   4   1   0   2   5   7   8   8  12  14  27  76 111 125 114  98 113 138 147 159 167 167 160 160 163 164 161 154 155 167 168 156 149 154 156 157 159 163 171 172 164 167 171 177 175 172 171 175 179 177 159 153 144 127 124 129 132 112  81  54  31   3   5  11  11   8   7   1   0   0   0   0   0   0   0   0   0   2   3   4   4   6   8
  21  22  23  22  19  15  11   8   5   2   2   5   9   7   7   8   7  13  30  16  42  93 122 116 103 111 130 143 153 160 164 162 159 162 166 169 162 158 165 168 167 155 151 157 157 166 168 173 168 170 174 174 177 176 172 169 170 175 172 157 152 139 129 120 123 130 107  65  40  11   3   8   9  10   9  12   9   0   0   0   0   0   0   1   1   1   2   3   4   5   6   7
  17  19  20  18  17  13  10   6   3   4   6   8   7   8   9   9   7  11  45  29  17  64 104 123 100  92 125 139 149 161 160 160 160 164 168 173 174 169 171 179 179 169 154 160 165 171 178 174 174 180 180 176 178 177 175 169 168 176 166 162 148 129 132 133 121 124  75  36  21  15   5   7   9   9  10  10  10   5   0   0   0   0   0   0   1   2   3   3   4   5   6   7
  14  16  17  16  14  11   7   6   6   7   7   5   7   8   8   8   8   9  45  43  15  32  69 108 105  98 111 122 147 161 158 158 161 164 169 172 175 177 178 182 184 177 170 172 180 185 187 185 184 184 182 181 181 181 172 165 165 173 173 158 142 120 118 132 121  93  48  18  30  19   3   8  10  10  11  10  10  11   4   0   0   0   0   2   4   3   5   4   5   5   7   7
  13  14  15  14  12   9   8   7   7   7   8   8   8   7   8   7   7   6  33  63  41  15  39  70 103 106 104 111 140 155 152 154 159 165 170 173 177 182 184 183 186 187 180 183 190 191 193 192 190 186 183 185 184 178 173 168 174 178 168 152 142 112 102 101 100  65  23  38  54  15   4   7   9   9   9   9  10  10  10   3   0   0   0   4   4   5   6   6   6   6   7   8
  11  12  12  12   9   9   8   7   8   8   8   7   7   8   7   6   6   3  30  63  64  26  18  39  70  83  93  93 127 151 161 154 153 159 171 177 177 185 189 189 190 195 189 189 192 196 200 198 193 189 186 186 182 176 173 176 176 174 152 141 131  96  95  72  67  26  27  80  51  24   3   7   9  10  10  11   9  10  14  10   1   2   5   6   5   7   8   7   7   6   7  10
  10  12  12  11   9   8   7   7   8   8   8   7   7   7   6   7   6   6  26  64  72  47  30  34  45  57  74  76 101 138 147 158 154 158 173 179 185 187 191 191 192 194 194 192 192 184 167 184 195 193 188 187 180 173 174 183 175 158 138 111 104  89  78  56  25  12  65  84  54  42   4   7   8   9   9  10   9  10  10  10   5   3   6   7   8   9   9   9   8   8  10  15
  11  13  10   7   7   8   7   7   8   7   7   7   7   6   5   7   6   7  33  57  79  60  44  41  36  33  51  64  75 116 145 156 157 162 173 178 187 186 186 190 190 189 189 190 190 167 143 155 190 189 189 187 181 173 175 175 166 146 118 103  83  45  39  23  22  51  82  63  65  56   7   7   8   9   9  10  10   9  10  10   9   9   9  11  12  12  12  13  11  11  14  22
  12   9   7   7   8   8   7   7   8   8   8   7   5   5   7   7   4  12  39  60  87  73  60  46  42  48  45  41  45  95 127 143 156 162 171 173 178 180 185 193 189 185 186 188 191 191 183 181 187 185 183 183 180 171 171 165 157 130  91  60  41  26  18  19  68  86  82  65  74  60  14   7   8   9   9  10  10  12  12  10   9  12  15  16  16  16  16  15  14  15  20  30
   9   6   7   9   7   7   8   7   7   7   7   6   7   7   5   7   5  16  43  61  86  84  80  68  57  56  58  48  32  65 104 134 147 151 162 167 173 174 179 186 186 188 185 190 197 196 191 190 181 174 168 174 177 173 168 154 133  92  53  30  26  24  42  80 100 107  83  73  79  58  24   8   7   9   9   9  11  14  12   9   9  11  14  20  21  21  21  20  18  20  28  41
   7   7   6   8   8   7   8   7   7   6   6   8   8   6   6   7   4  22  45  61  82  92  96  91  72  56  59  59  37  32  77 121 132 125 140 159 167 179 174 190 191 186 187 187 198 180 185 186 173 158 161 164 156 161 150 119  91  49  22  26  34  47  95 125 110 108  74  85  76  54  28   6   8   9   9   9  11  11  10  10  10   9   8  18  26  26  27  26  24  27  36  51
   8   8   8   8   7   7   7   7   6   7   7   7   7   6   7   6   6  28  44  56  78  94 100 101  91  75  57  62  53  29  29  71 112 111 121 139 153 171 177 186 202 192 189 184 185 155 160 170 159 147 137 142 137 143 116  81  45  21  26  35  52 101 130 111 104  76  76  87  70  54  27   6   8   8   8  10  13  11  10  10   9   8   8  10  25  32  33  32  31  35  46  60
   7   8   8   7   7   7   6   7   6   7   7   7   7   6   5   3  12  32  43  53  68  86 105 118 120 105  83  72  69  55  30  25  70  84  85 118 125 148 158 180 189 182 171 167 161 144 148 165 137 128 117 113 124  98  78  39  10  35  61  82 124 134 122 114  76  79  99  84  69  51  26   6   8   8   8   9  12  10  11  10   7   9  10   8  14  36  40  37  38  44  53  68
   8   8   6   8   8   7   5   6   6   7   7   6   6   5   4   6  21  36  42  52  63  79 102 120 127 111 107  95  93  73  69  35  16  52  70  76  88 120 139 161 155 149 151 157 150 139 135 136 121 106 101  95  82  49  21  24  52  81 105 132 147 128 121  83  74 103  91  83  73  47  18   5   7   9   9  10  11  11  12  11   8   9   9   8   6  24  46  43  45  50  62  77
   7   8   8   7   7   6   7   6   8   7   8   6   5   5   8  10  29  36  44  52  55  68  94 109 122 127 129 103 115  99  94  81  52  33  47  72  81  89 114 128 129 132 133 138 130 132 119 108  97  85  80  62  27  26  67 114 116 115 139 146 139 127  95  82 106 100  87  81  69  48  14   7   8   8   8  10  10  12  11  11   9   8   9   9   9   9  36  51  53  59  70  85
   8   7   7   7   6   6   7   8   6   5   7   6   4   7  13  10  33  35  40  51  51  61  77 108 122 135 140 131 131 118 103 107 110  83  33  25  44  62  77  93 112 109 101 108 113 104  85  64  56  40  34  26  58 115 148 147 135 136 140 144 122  94  84 108 100  90  85  80  69  46  10   8   9   8   9  10  10  11  11  11   9   8  10  10   9   8  13  48  62  68  78  92
   8   8   7   6   7   6   7   6   6   5   6   5   6  11  11   8  38  33  36  49  52  55  67  87 118 124 131 139 142 136 125 118 122 112  99  79  41  26  31  40  57  66  67  57  55  52  32  28  21  33  59 106 138 137 133 147 149 155 143 145 103  95 110 104  98  92  89  83  72  40   7   8  10   9   9  10  11  12  12  10   9   9  10   9   9   9   7  21  65  77  86  97
   6   8   7   6   6   6   7   4   5   5   5   6   9  13   6  17  44  34  37  47  52  60  64  72  91 121 135 142 136 146 136 126 123 129 129 142 144 125 107  89  65  61  57  65  62  73  75  81 111 139 156 154 143 131 147 162 149 150 142 112 104 108 101 100  99  98  95  85  71  26   7   9  10  10   9  10  10  11  12  10   7   8   8   9   9  10   9   6  30  79  92 101
