P2
# Generated by OpenCV 4.2.0
92 112
255
  20  32  40  53  66  76  87  94 100 105 107 110 112 114 114 116 118 115 112 108 109 106 106 107 101 103  76  95 106 108  78  43  38  51  55  63  59  55  78  45  46  62  58  46  35  34  38  42  28  22  26  17  25  16  19  21  24  34  55  47  49  51  32  56  50  67  79  69  71  81  83  91  82  81  88  76  77  75  74  73  74  74  74  78  81  83  88  90  93  94  95 100
  17  27  36  47  60  72  81  92  98 104 109 112 115 116 116 116 116 112 108 103 103 101  99  96 100  98  63 104  95  60  40  58  59  66  61  71  60  70  50  74  77  62  61  58  55  59  54  53  40  37  38  27  29  38  59  54  45  33  33  32  63  77  38  34  28  38  70  91  61  78  83  87  91  86  83  83  85  83  81  80  77  78  78  81  85  87  92  95  95  98  99 100
  14  25  35  47  57  69  79  93  97 102 110 113 115 119 118 117 116 109 106 102  99  98  96  91  84  78  87  88  63  43  68  68  59  70  70  97  89  69  39  34  29  27  33  57  68  66  60  48  31  34  30  40  66  53  21  22  27  35  23  30  36  36  69  77  41  34  31  66  65  60  83  86  96  83  90  92  87  83  85  81  80  79  80  83  87  89  94  96  97  99  99 100
  15  20  31  40  54  66  80  90 100 107 110 115 117 117 119 113 109 107  96  93  97  93  84  88  84  62  78  62  43  75  60  68  89  98  73  52  34  29  30  27  20  41  62  70  80  63  48  36  34  31  19  62  34  16  23  18  27  27  22  27  20  27  25  27  33  50  41  18  61  56  62  86  94  84  95  94  89  91  89  85  85  83  84  86  87  90  94  97  95  98 100  95
   9  17  26  36  50  63  78  87  99 107 113 115 118 117 117 112 109 104  94  88  85  80  84  77  63  73  61  53  39  46  67  68  61  47  46  37  43  29  13  22  43  87  73  54  42  37  33  25  34  28  53  37  30  32  34  22  15  28  22  31  37  23  17  19  30  28  28  30  33  49  53  71  88  99  93  96 101  89  89  88  88  87  86  86  91  93  94  96  96  96  96  92
  12  15  22  33  46  59  71  84  98 106 115 115 116 113 111 104 107  96  91  85  68  56  58  55  56  40  69  44  45  57  49  47  48  41  39  39  28  22  23  84  93  56  44  39  32  25  37  44  48  43  42  15  24  35  36  38  40  27  19  28  42  23  21  20  15  16  20  23  15  24  45  78  78 102  98  98 101  98  91  90  89  90  89  87  90  89  90  91  92  90  87  89
  10  12  17  26  40  55  69  84  95 105 112 114 116 110 103 102  98  91  50  37  50  48  49  73  51  65  43  49  69  76  65  56  51  43  47  27  31  54  90  77  52  44  38  33  47  28  25  27  33  31  33  30  31  34  47  34  23  30  25  24  17  38  52  14  19  12  21  30  18  38  41  31  84  87  95 104 102  97  88  94  94  91  88  85  84  86  86  86  85  85  85  83
  12  10  16  25  38  52  66  81  94 103 111 110 103 106  98  97  94  70  48  47  58  71  56  58  56  59  70  67  54  58  53  69  56  43  33  26  65  81  79  33  38  32  25  20  46  29  23  49  42  49  52  44  70  61  32  35  34  35  20  24  18  17  16  50  20  14  30  22  23  27  46  66  34 103  97 106  99 102  97 100  91  91  87  82  82  82  83  83  82  81  80  79
  12   8  14  19  34  49  64  78  91 102 104 106 104  95  94  92  71  53  46  71  63  50  59  53  57  54  39  70  59  50  53  53  55  30  42  48  56  58  37  30  26  17  21  54  36  26  26  67  53  69  75  69  38  32  40  42  34  36  31  25  13  16  19  20  39  25  41  32  23  42  50  69  37  62  38  96 109 106  95  96  97  88  84  79  78  77  78  78  74  75  74  75
  11   9  12  18  32  47  61  76  88  98 100 100  93  90  90  84  45  62  58  45  52  55  48  51  48  53  50  59  68  46  63  51  54  30  43  68  59  40  28  32  28  35  50  60  31  39  55  61  84  70  61  51  46  42  43  33  48  35  37  30  42  25  33  16  28  36  35  54  56  45  46  40  34  34  30  49  24  53  72  85  94  87  83  76  73  73  74  74  71  70  69  70
   9   8   8  16  31  47  61  76  81  89  93  90  88  89  74  63  60  56  55  20  23  21  46  51  44  41  74  79  59  44  41  42  47  31  57  46  47  27  32  43  42  58  60  30  58  82  81  59  62  47  31  46  37  23  34  42  22  31  49  41  54  25  37  20  23  20  38  21  29  43  26  20  19  31  34  43 113  70  34  85  86  79  83  77  71  72  69  68  66  67  67  68
   9   9  12  19  34  46  60  71  77  86  84  89  85  80  81  60  35  23  22  23  21  46  47  47  51  68  50  52  31  44  35  23  38  45  43  39  20  31  25  38  44  54  45  67  63  51  43  35  29  67  42  46  35  44  24  32  56  42  29  30  21  57  19  37  38  32  29  25  18  27  38  40  42  40  38  24  31  48  54  49  87  86  68  73  68  70  67  66  65  65  64  68
   7  13  19  26  39  50  63  70  73  80  79  74  79  77  54  24  16  41  33  42  40  48  55  44  62  61  26  29  37  34  22  39  35  41  37  31  25  42  43  62  64  57  43  55  47  32  48  41  53  34  47  40  48  44  55  64  42  44  29  32  38  32  43  30  20  18  29  30  21  23  19  25  13  21  19  20  28  43  43  45  66  86  84  69  67  65  65  64  65  66  66  67
  15  22  28  33  42  51  61  69  75  80  81  76  79  59  41  16  39  42  62  40  50  51  47  46  57  13  37  27  30  39  19  52  43  40  31  51  64  79  58  45  44  27  45  48  36  51  62  61  29  53  36  55  42  56  55  56  41  41  64  34  31  19  21  35  32  27  27  11  19  24  21  23  25  19  27  14  17  21  30  44  53  55  59  74  67  69  64  68  66  67  69  69
  23  31  35  40  50  56  64  67  74  73  75  53  55  49  33  28  52  66  58  57  55  55  40  40  25  21  27  33  51  27  46  48  39  38  49  79  54  52  42  47  23  51  52  34  54  56  58  29  64  38  53  39  64  52  57  35  55  43  17   9  25  24  12  35  17  29  25  10  19  15  11  18  10  30  32  31  18  19  36  52  39  51  39  68  64  70  66  66  67  68  69  69
  28  36  42  49  56  62  69  74  78  77  62  48  52  33  62  63  63  56  55  37  47  49  31  25  19  27  30  48  46  46  66  49  63  51  62  45  48  45  31  33  44  50  42  54  51  39  42  63  39  46  40  65  55  41  33  39  11  18  26  38  28  33  22  24  26  13  25  29  20  12  17  16  46  30  32  46  37  32  31  32  45  56  58  49  70  71  64  68  69  70  71  70
  38  44  48  53  57  64  68  71  68  50  54  47  43  83  70  63  52  55  35  49  48  40  37  29  30  36  56  67  40  59  46  65  47  56  69  51  41  25  46  47  55  53  60  54  42  67  51  39  42  53  51  66  33  55  40  32  30  32  43  29  25  25  27  29  23  18  18  16  19  20  27  23  33  20  33  25  21  15  19  26  30  37  54  54  63  68  69  72  70  72  72  71
  41  47  53  60  62  67  70  71  61  54  57  51  67  61  76  48  46  47  56  36  49  30  51  28  57  55  54  53  55  47  62  60  62  63  48  35  33  53  79  55  57  57  54  56  66  46  59  49  48  49  47  58  48  33  39  37  40  39  30  29  34  39  36  28  25  18  21  17  10  11  14  22  22  19  12  29  20  22  16  24  33  35  44  54  51  73  67  68  72  73  73  71
  48  53  59  64  66  69  72  72  54  73  52  51  49  68  50  48  49  52  48  44  39  52  38  49  48  68  58  68  65  73  74  79  70  54  44  47  66  82  52  46  67 102  74  68  64  53  52  47  37  54  48  35  52  36  27  19  19  40  38  36  30  35  40  38  25  31  17  14  19  19  12  15  18  15  25  35  40  33  16  16  24  28  26  41  47  70  68  71  74  73  74  71
  54  58  62  64  66  68  70  64  64  62  48  52  72  41  65  56  50  70  28  34  66  41  53  66  59  78  74  89  99  73  68  58  44  38  52  48  50  52  53  67  72  53  78  78  57  56  36  48  57  33  26  25  26  29  33  52  48  41  34  30  47  41  40  24  36  27  21  19  19  24  28  28  38  37  23  29  18  13  18  13  21  23  27  45  56  63  68  75  73  74  74  71
  56  58  61  67  67  67  69  54  63  52  58  40  51  59  38  44  43  50  60  67  48  35  63  57  67  72  62  59  54  43  24  24  29  27  30  35  42  36  33  57  78  92  67  62  33  57  70  46  26  27  28  31  32  41  43  27  44  36  31  50  41  37  33  41  36  36  28  21  13  15  22  10  16  19  24  24   6  22  19  12  24  29  29  31  32  52  72  73  74  74  74  74
  57  59  62  66  68  69  55  42  52  82  32  57  41  32  46  49  54  52  67  57  38  59  46  64  59  29  31  24  18  12  28  41  49  48  62  59  42  60  71  82  81  59  41  43  86  64  45  26  27  35  33  19  50  32  38  53  28  51  41  34  31  43  39  47  28  55  32  21  33  24   8  17  29  24  21  38  29  30  18  18  30  25  36  34  40  47  75  75  75  75  74  74
  56  59  63  64  64  72  49  41  69  47  43  56  45  47  36  48  51  72  60  53  50  59  64  41  14  24  16  15  17  32  44  39  46  46  56  82  72  63  75  59  61  27  57  61  34  37  32  26  40  34  24  58  22  39  64  47  46  34  31  30  41  21  51  55  58  40  32  30  27  19  20  29  35  26  35  33  25  31  33  22  24  39  38  30  32  69  72  74  76  75  75  74
  59  61  63  67  70  71  46  58  51  36  33  43  38  42  42  45  93  79  54  41  65  49  31  18  14  17  16  22  24  36  41  40  50  61  55  54  72  60  61  59  37  38  25  23  30  42  35  38  39  37  54  48  44  41  33  28  28  31  35  39  16  51  31  55  54  37  30  26  25  24  21  10  30  30  38  33  36  18  33  12  27  48  35  28  15  56  73  75  75  74  74  72
  58  62  63  65  67  68  59  41  57  47  42  38  48  36  44  94  86  58  57  51  54  37  12  16   9  19  29  20  22  21  20  24  34  41  59  73  45  68  49  39  32  46  29  46  42  48  37  41  45  69  54  58  52  30  30  31  45  38  14  33  38  36  42  44  57  29  20  28  21  27  34  20  24  34  28  26  38  25  27  24  34  27  29  25  31  40  64  82  75  74  74  74
  54  56  57  61  64  58  56  39  52  37  44  44  40  36  66  66  60  50  42  52  30  19  10  11  16  43  25  24  26  22  23  24  33  42  49  48  51  57  35  34  44  20  41  43  42  43  46  50  39  26  25  32  41  33  29  26  20  27  28  34  43  36  39  49  55  29  28  40  30  26  29  18  23  24  34  22  70  25  27  39  22  34  39  26  43  40  73  62  74  74  73  72
  56  57  61  67  64  54  60  52  51  45  46  49  44  57  65  65  67  54  65  55  28  15  16  17  26  41  22  27  34  32  24  32  36  41  34  43  55  35  39  51  29  36  47  51  37  46  33  32  45  37  33  38  20  23  46  47  25  39  28  35  55  45  39  66  51  63  76  53  50  37  31  36  37  27  34  25  62  29  33  32  31  44  46  28  46  35  44  65  69  71  71  65
  57  57  60  57  63  51  46  56  43  38  54  32  44  52  61  53  63  54  53  26  25  17  11  22  44  35  42  47  25  31  41  38  56  47  39  53  53  37  44  40  38  45  54  42  47  37  33  49  38  28  47  33  51  36  20  57  35  39  38  37  46  53  62  40  31  27  43  64  63  45  40  33  40  20  36  27  57  34  30  32  40  41  50  26  48  26  46  60  61  61  66  65
  52  55  56  60  56  43  37  56  42  38  50  48  38  49  40  57  66  61  31  26  20  23  19  23  40  44  39  46  37  55  55  34  43  40  37  45  32  37  55  36  36  56  55  44  40  40  35  40  39  54  35  34  48  35  36  38  40  42  38  41  54  43  49  51  27  33  44  48  34  55  55  51  56  35  35  31  68  33  40  29  26  41  42  38  39  30  40  61  62  63  62  62
  46  48  51  56  59  44  36  55  61  50  58  66  34  42  43  56  77  50  17  48  20  29  26  30  48  50  39  29  41  51  38  50  52  55  43  44  37  42  48  41  41  49  50  37  65  35  51  41  54  45  30  59  55  35  42  36  42  52  42  35  49  56  36  39  35  43  50  47  47  40  32  49  43  74  25  21  65  32  31  32  24  35  40  42  34  36  33  60  61  62  57  61
  39  40  41  47  48  46  39  49  49  54  41  52  34  34  50  53  51  36  29  47  27  40  23  32  38  46  27  34  41  41  38  48  53  41  47  32  44  71  44  34  47  58  44  50  64  53  39  51  43  45  71  58  49  42  47  43  41  42  33  39  47  38  42  35  29  36  43  47  43  43  41  37  34  59  40  37  54  33  43  26  38  24  31  25  23  27  45  40  52  57  54  55
  34  37  37  40  45  57  48  49  38  54  39  47  31  43  40  44  28  39  30  48  42  38  19  31  38  29  27  36  37  29  63  40  42  41  48  33  52  74  41  43  51  61  53  55  57  63  52  52  46  66 103  77  65  40  55  44  39  44  54  46  41  40  41  36  36  39  55  60  63  33  38  39  33  35  74  56  37  33  43  34  29  29  24  20  30  30  53  39  49  54  46  49
  31  31  33  34  38  52  45  50  40  31  43  45  33  44  36  32  47  37  46  47  57  27  17  34  36  35  29  35  34  40  64  41  45  44  38  30  79  72  58  43  54  74  45  56  68  53  59  45  63 102 121  66  58  53  64  41  31  60  53  42  41  50  37  40  43  41  49  77  57  37  24  32  22  40  57  39  43  31  49  27  40  25  35  31  39  41  42  36  45  41  42  42
  23  24  23  24  37  49  40  52  53  33  40  47  33  43  27  29  49  36  40  66  43  28  17  33  47  34  34  28  41  60  60  46  56  56  44  39  36  59  59  59  63  64  65  54  60  60  47  51  88 128 116  75  64  77  64  30  66  53  46  47  50  43  41  43  42  45  66  69  41  25  26  22  33  43  45  37  47  31  51  26  35  40  41  38  40  33  38  37  33  42  36  34
  14  15  15  19  31  49  48  48  52  38  38  46  29  25  10  31  45  38  32  65  39  37  33  38  45  33  28  32  65  52  56  51  57  51  43  26  29  60  60  56  44  60  56  58  81  45  47  74 120 128 119  86  52  64  54  49  42  49  55  51  48  47  43  43  42  62  63  50  33  23  26  16  15  37  33  40  41  31  41  29  37  47  31  34  53  35  38  43  34  27  31  34
   8   8  10  13  28  40  38  52  38  40  50  26  26  21  28  41  55  41  36  52  38  47  31  54  49  30  20  65  47  51  53  55  65  53  31  12  37  57  50  53  42  42  48  73  40  63  43  88 114 155 114  56  31  39  29  25  47  41  51  49  63  47  57  52  59  54  52  52  39  39  39  32  18  18  25  37  27  37  36  25  39  57  40  27  57  37  38  32  27  30  27  30
  10  12   8  12  35  39  38  47  43  42  42  38  37  20  30  50  47  41  32  48  37  45  30  53  72  54  54  26  32  54  52  53  55  39  10  28  49  58  30  34  37  39  50  47  49  53  60  83 143 173 138  56  53  32  26  33  45  50  58  55  44  50  74  47  43  41  51  70  43  26  22  13  12  21  23  53  29  39  22  29  50  46  39  31  46  40  39  22  35  18  20  20
   7  10  11  13  34  46  52  49  47  44  44  36  50  37  51  24  55  39  36  40  45  25  22  57  83  71  71  62  41  49  36  33  25  10  31  51  38  32  29  35  31  42  47  63  75  43 113  91 160 106  93  34  34  25  41  44  42  67  43  59  46  67  43  48  51  49  43  48  50  43  32  50  23  43  24  43  24  36  26  29  49  40  39  32  31  30  40  33  35  13  21  17
  31  27  22  26  42  43  46  42  43  36  43  36  38  34  45  41  32  38  27  38  42  35  63  49  75  57  53  38  34  48  32  28  42  57  44  47  38  25  40  29  29  30  55  56  69  74  97  67 177 140  50  44  30  42  33  41  51  51  45  44  51  87  65  54  50  35  34  91  82  71  32  35  48  47  25  27  27  22  34  34  46  38  38  36  27  32  42  28  39  29  19  20
  49  43  43  46  66  59  42  40  43  36  39  26  54  41  35  41  27  41  37  35  51  54  60  61  89  55  38  19  25  34  36  35  57  58  58  44  33  27  34  24  22  22  50  62  72 116  85 162 111  59  38  28  60  34  43  42  58  48  45  41 124  52  78  59  40  53  83  98  96  88  66  58  48  45  29  17  21  19  32  40  41  48  38  42  33  35  46  29  40  31  28  24
  75  73  77  83  88  49  48  46  48  32  32  48  46  36  40  43  38  36  44  62  73  57  54  71  50  29  34  22  40  29  47  38  56  54  36  26  15  27  13  21  13  40  60  51 148  97 119  90  50  46  30  47  26  38  64  49  38  52  50 101  86  79  71  57  83  96  89 112 117  91  69  52  52  46  29  15  27  18  40  38  41  38  42  36  30  34  47  36  48  41  35  33
 106 106 112 111 107  44  46  43  45  46  29  54  45  46  57  48  44  44  50  49  43  47  46  38  29  31  29  25  39  36  37  53  43  37  22  26  23  18  18  21  32  56  56  88 105  59  61  62  50  26  31  38  46  57  36  41  50  75  83 121  64  77  63 130 156 145 148 122  71  59  58  54  70  70  30  21  24  30  29  35  36  45  39  28  24  45  45  27  60  55  49  45
 132 135 142 139 132  38  41  43  54  53  26  46  59  48  34  43  43  35  39  43  46  51  56  45  33  37  28  38  39  34  35  41  42  43  26  24  22  18  26  25  46  54  39 118  83  80 126  44  33  33  22  23 133  73  28  31  62  89 116  40  88  70 146 170 174 157 137 125 110 105  71  54 107  78  42  18  30  22  21  34  33  44  34  33  23  40  31  36  75  70  63  57
 160 162 164 168 168  47  37  32  60  50  50  39  60  60  67  56  32  43  58  61  46  60  65  43  35  35  35  60  30  32  47  54  54  53  30  28  18  24  21  25  38  23  67 110 146 125  48  39  36  41  13 137  43  21  21  47 116 124  42  72  70 149 177 183 176 174 169 157 162 139 111 122 123  92  43  20  27   9  20  18  45  35  38  37  23  38  22  60  89  85  76  71
 176 178 180 178 181  54  43  33  44  57  42  41  52  54  49  53  46  51  61  68  79  62  47  50  37  47  37  28  42  44  31  48  54  40  37  30  26  22  21  34  28  36 117 163 124  60  46  32  42  15  81  63  23  28  57 129  71  47  47  67 136 180 186 179 181 179 173 168 146 158 137 132 120 102  66  37  30  32  25  36  33  31  37  44  39  26  25  73 105  93  87  80
 186 189 191 202 180 121  31  48  39  47  31  33  34  44  41  35  41  51  56  83  71  57  61  35  45  35  29  31  34  71  47  56  34  30  29  25  42  31  30  26  34  79 114  76  48  34  29  28  27  61 137  27  19  92 107  52  41  41  69 167 176 187 184 185 181 179 174 166 144 147 144 134 125 105  75  63  39  33  40  40  28  20  28  38  32  22  28  87 118 104  94  87
 197 197 200 204 200 194  26  37  41  39  28  27  44  50  36  43  34  34  33  49  63  68  59  42  37  50  38  44  45  33  37  46  57  42  23  31  39  62  43  47  64  55  51  33  28  29  14  22  25   4  15  32  79  61  43  31  45 121 184 189 190 192 187 186 187 185 179 173 166 164 146 145 143 106  89  72  57  38  38  48  39  29  29  29  32  21  44 101 117 107  94  96
 199 206 206 184 182 184  83  39  42  53  31  24  37  39  34  36  44  46  66  68  49  39  39  35  45  28  16  19  30  25  41  32  42  17  22  15  22  45  29  37  30  29  17  19  21  25  32  48  20  23  55  58  61  52  73 135 180 193 196 192 190 194 193 191 189 185 182 179 172 165 158 146 148 135  94  87  51  32  30  57  33  23  25  31  29  27  29 106 118 110 101  95
 204 208 213 150 173 189 156  31  32  39  38  25  48  51  53  36  40  42  48  47  50  55  61  51  35  43  32  47  23  31  28  20  53  18  25  27  36  25  38  36  78  62  41  42  45  83  35  32  24  27  29  64 168 175 188 197 199 202 195 196 200 197 196 195 191 187 184 183 179 172 167 156 154 140 108  97  70  33  40  37  38  32  21  30  23  32  55 128 120 110 102  96
 207 214 210 117 143 153 166  86  31  34  35  26  34  40  47  47  42  43  40  44  41  37  40  33  36  35  46  35  22  22  48  35  15  14  17  19  22  42  58  39  17  59  59  64  62  40  29  27  23  43 154 201 206 200 203 201 203 200 203 196 200 195 195 194 193 190 187 184 182 175 172 160 153 134 114  96  73  37  23  30  29  26  39  27  37  25 103 118 117 113 101  98
 214 210 213 138 108 113 146 144  57  38  33  38  37  67  45  46  27  39  36  20  32  41  51  33  19  24  17  43  37  36  42  23  15  17  18  22  55 127 148 137  72  44  27  24  30  40  21  56 159 194 205 197 210 204 204 209 205 203 202 203 201 199 198 195 194 187 189 184 179 177 171 163 152 136 117  96  49  29  27  33  37  32  31  19  20  30 131 105 122 113 103 101
 214 212 211 154 139 132 101 122 103  35  29  49  42  62  39  47  41  35  30  14  27  56  69  41  32  28  26  30  37  50  49  46  29  32  28  62 138 166 165 174 172 146  80  60  77 134 195 200 208 200 207 204 207 208 208 210 202 206 205 205 204 200 199 194 195 188 185 185 168 161 154 142 151 142 119  81  44  34  30  39  19  35  35  23  17  49  94 131 126 115 112 103
 214 213 209 167 140 140 115 137 100  48  30  67  44  53  33  61  48  29  12  14  21  55 103 116 109  64  30  19  19  18  13  16  30  34  57 124 115 152 154 166 173 179 180 190 185 190 193 200 201 198 190 202 202 201 203 204 201 201 201 202 202 199 197 192 186 185 168 157 150 148 130 117 113 144 112  85  53  35  27  17  32  32  30  20  19  69 126 138 129 121 112 104
 216 205 212 161 145 145 119 154 145 128  23  55  36  57  43  50  58  23  16  16  42  59 128 124 123 118 108  53  31  20  28  23  49  95 102 115 116 111  98 116  99 126 126 154 183 184 193 190 196 195 192 194 195 196 196 195 196 196 202 198 195 190 180 164 133 132 103 110 107  99 126 116 117  95  92  89  62  30  34  34  43  33  16  20  27  78 128 130 126 130 116 109
 214 208 211 146 138 159 128 160 171 162  91  45  50  55  48  41  40  32  15  22  58  63  80 128 130 116 103  70  86 119 122 117 133 144 147 141 155 107 106  98  90 101 103 120 124 153 176 184 186 187 190 191 192 193 192 190 188 183 185 173 161 136 100  82  80  84  98  91 132 121 101 103 102  86  92  76  71  24  52  29  40  29  31  20  55 129 149 148 139 134 123 113
 212 207 207 169 159 167 126 163 178 158 138  54  52  43  49  51  32  42  23  22  84  91 101 139 124 118 105 117 132 141 136 145 148 149 155 159 157 157 152 135 133 114 109 101 111 131 149 174 177 182 183 187 187 188 184 182 176 160 159 140  96  85  81  80  87 114 131 148 150 160 154 145 142 125 108  83  57  22  38  32  44  29  28  18  92 150 163 155 147 138 129 119
 212 204 204 204 162 141 138 169 163 160 135  77  40  41  52  55  33  20  20  18  86 113 135 131 132 129 131 141 140 144 145 135 149 149 144 150 150 145 146 140 133 129 134 144 141 136 127 139 161 179 182 183 184 186 181 177 169 162 148 142 118 120 121 121 123 131 145 144 151 151 152 152 147 131 124 109  53  31  53  40  22  19  27  27 107 168 166 162 154 149 138 123
 207 202 200 197 170 182 141 176 181 169 167 129  62  49  42  51  42  35  32  64  80  94 134 100 138 135 146 150 143 141 137 135 136 132 110 109 107 120 124 111  99  89  98 117 124 139 140 148 161 168 175 177 185 179 176 166 160 144 138 127 107  90  94 108  98  97 103 109 123 132 132 132 135 132 125 106  76  33  44  36  27  32  18  78 143 170 170 166 161 155 144 133
 200 197 194 192 192 166 144 185 185 180 169 150 106  40  38  41  26  35  51  93 112  92 135 113 149 146 152 150 144 133 126 124  95 103 105  54  39  40  46  62  53 111 113  89 111 119 125 133 152 166 176 182 192 183 177 160 149 128 107  86 106 106  60  54  46  49  26  49  94  89 108 123 120 120 134 122  89  48  34  28  40  34  31 116 165 173 170 171 164 160 149 140
 195 192 189 193 191 169 169 200 176 178 179 156 164  60  35  37  37  46  66  74 119 100 140 119 155 158 160 158 148 144 141 107 103  48  42  34  91  30 130  87  63 108  98 121 109 121 125 124 145 164 181 194 205 192 179 161 122 111 104 121 109  59  94  81  41  69  61  95  36  66  81 120 124 135 141 126  94  52  17  26  31  33  45 114 179 175 172 164 163 161 152 145
 189 188 185 188 190 192 158 199 178 175 168 181 151  64  33  50  57  68  81  93 108  90 129 155 160 159 155 161 156 140 129  95  58  82 119 122  98  83  87 116 114 175 148 106 133 134 130 126 130 167 186 200 211 201 188 150 107 119 153 114 173 120 117  57  44  95  63 143 131  56  69 111 130 149 144 128 102  69  36  23  24  31  33 119 162 179 175 170 168 161 150 143
 184 181 182 186 189 195 156 192 175 167 198 159 115  75  44  49  62  63  85 109 127 136 148 153 165 172 170 168 156 139 139 123 108 118 126 136 126 114 111 113 142 135 128 111 126 177 160 145 130 170 192 204 214 205 198 147 123 131 148 101 118 131 116 102  94  81 121 129 103 105  75 102 132 152 153 142 120  77  32  23  16  23  29  68 169 183 178 175 171 164 155 148
 177 174 179 184 187 197 158 174 180 153 178 170 110  95  45  51  62  63  99 111 136 137 153 165 169 174 176 174 172 163 163 158 147 133 130 134 126 140 136 125 132 128 140 141 152 177 162 144 141 171 193 205 212 207 199 161 131 174 164 169 155 155 155 152 163 109 115 109 116 116 128 131 132 152 154 152 122  86  38  18  25  18  49 161 181 174 177 177 174 170 162 154
 172 170 175 184 189 195 163 162 191 165 152 146 129 104  50  48  50  57 100 129 138 147 156 169 173 174 171 180 175 177 175 171 164 153 147 145 149 145 154 149 150 139 135 144 170 160 145 144 155 175 196 202 211 208 208 172 131 144 170 169 153 140 155 154 149 140 137 144 138 139 159 159 160 162 157 156 135  87  45  16  27  37  52 158 170 167 171 172 172 172 166 158
 166 167 172 181 188 196 177 163 188 192 158 180 128  68  61  59  55  49  87 123 137 144 155 171 177 181 180 176 177 183 179 180 177 172 162 155 155 156 155 154 147 138 136 143 153 144 145 143 164 176 189 205 210 206 204 171 138 146 146 159 138 142 138 140 145 151 145 141 148 161 166 163 164 165 163 158 140 100  48  26  21  31  57 136 160 162 166 169 170 172 168 164
 161 166 174 185 190 197 192 182 159 170 177 129  84 129 122  40  48  34  82 134 145 141 154 173 177 182 183 185 181 183 183 185 181 177 175 169 164 160 152 143 144 148 158 166 164 156 154 154 171 172 187 205 208 204 200 167 149 148 161 172 168 154 148 154 160 155 160 153 157 167 164 168 168 168 169 164 144 102  55  30  40  36  94 140 149 151 155 158 164 167 165 165
 160 167 179 187 196 199 197 167 198 190 200 187 174 126  85  16  40  35  72 126 142 152 159 166 173 181 182 185 184 186 183 190 192 191 186 184 180 171 164 170 168 172 175 179 174 163 163 168 173 168 190 197 205 202 197 167 156 160 164 175 174 168 160 162 166 163 162 159 169 171 173 172 170 168 169 163 146 101  49  35  43  44  96 129 142 144 147 150 154 160 160 159
 161 173 184 193 198 199 196 164 195 204 203 196 193 164 115  44  35  50  67 130 137 148 154 168 174 182 186 188 189 188 188 191 193 192 197 192 187 177 182 178 184 186 186 184 180 172 172 172 165 166 189 201 204 204 203 165 153 155 167 183 189 181 174 169 169 170 174 176 180 181 179 178 174 175 173 164 146 101  68  60  68 128 109 115 124 133 143 146 148 153 155 155
 164 176 189 197 200 202 198 163 194 196 202 196 192 179 131  65  60  31  43 101 137 143 152 163 173 184 185 185 187 186 187 191 197 201 196 200 196 197 192 186 190 191 189 186 184 181 177 174 163 171 190 201 203 204 200 171 151 159 172 187 193 195 193 188 185 185 187 184 185 187 183 183 180 177 167 168 141 102  57  65  87 158  78  88 101 112 127 133 141 147 149 151
 170 182 193 201 203 203 201 172 189 195 203 193 188 189 173  69  65  24  39 107 134 146 150 165 173 181 184 190 191 192 193 195 199 202 208 203 202 198 193 196 196 196 192 187 187 183 178 170 168 178 189 201 205 205 201 180 154 159 171 187 193 200 201 193 198 193 193 191 192 192 188 184 182 174 172 158 134  77  74  63 107 163  68  69  81  91 104 108 123 132 136 142
 180 192 200 205 206 202 199 154 173 190 203 204 198 194 173 103  56  23  45 100 134 152 146 162 172 182 185 185 189 191 196 200 203 199 203 203 196 191 200 196 196 197 201 197 188 177 166 165 170 188 196 205 210 206 206 184 164 156 167 194 196 200 202 199 197 194 198 196 194 192 190 187 178 174 166 158 127  68  48  69 124 154  51  60  62  67  84  96 105 116 122 130
 185 196 203 206 207 202 197 185 141 180 196 200 199 195 195 166 113  74  64  87 132 150 150 160 171 181 185 187 190 193 202 197 198 202 202 201 198 202 198 202 205 205 206 192 171 169 163 177 185 190 198 204 209 207 204 191 174 157 157 187 201 202 204 201 198 197 199 197 195 192 190 184 179 173 169 156 127  66  37 102 156 120  58  56  60  60  65  69  84  98 109 115
 192 203 207 208 208 201 197 184 141 123 179 187 192 189 183  75 133  96  99 108 128 138 156 159 167 178 182 186 190 192 197 193 194 201 200 199 201 202 200 206 214 203 190 170 161 171 171 175 191 208 204 205 209 210 204 199 182 160 156 172 198 204 208 205 199 200 201 195 193 190 188 183 178 173 163 151 123  57  67 142 160  59  56  61  59  57  63  66  72  80  92 100
 199 207 211 209 208 201 196 181 156 120  74 123 129 120  56  16  90 103 112 115 128 139 156 155 165 174 178 182 187 187 196 194 199 200 198 197 204 209 210 217 205 189 179 164 176 177 175 182 196 202 210 207 207 211 207 202 180 161 170 162 191 207 208 205 202 199 201 196 196 191 189 184 179 171 157 154 126  70 144 142  74  56  56  54  60  57  56  59  62  65  73  85
 203 210 211 209 207 198 190 173 155 129  62  70  60  46  38  24  52 104 107 114 135 132 153 164 156 173 179 178 173 191 191 196 195 202 203 205 209 204 210 206 196 198 179 173 185 187 183 187 195 205 206 209 210 207 209 197 179 165 173 168 179 201 207 206 204 200 198 195 196 190 191 177 164 164 161 147 124  75  96  61  58  54  56  58  56  56  56  58  58  61  64  69
 206 212 211 207 203 193 185 170 150 120 101  46  47  52  31  22  40 116 124 132 146 149 161 159 159 170 173 180 180 186 193 191 197 198 202 206 204 206 201 194 193 203 170 173 183 184 189 180 189 194 206 210 207 209 202 194 173 172 174 174 165 192 203 208 204 203 197 197 194 192 189 174 176 167 160 151 119  66  54  52  54  57  56  55  56  55  54  56  54  57  56  61
 208 212 211 206 202 190 179 163 144 116  89  65  57  31  20  20  28 109 119 129 144 157 154 160 159 166 172 175 180 185 188 193 196 197 201 200 203 206 195 189 200 197 167 165 163 170 176 175 179 187 198 213 207 205 202 195 171 163 170 166 162 190 196 205 203 201 195 199 192 193 187 175 165 159 154 141 124  78  53  53  58  55  55  55  54  55  56  56  54  53  53  54
 213 210 207 204 196 187 175 159 135 112  93  69  59  63  51  35  46 107 123 139 145 152 144 168 165 172 167 172 180 189 188 192 192 194 198 196 197 197 192 192 198 190 191 137 128 118 120 141 155 173 188 205 209 200 193 183 162 152 147 129 172 192 199 196 202 200 197 191 191 189 185 171 162 159 156 143 121  81  54  56  53  56  55  54  55  56  53  53  53  52  51  53
 211 209 207 200 192 182 170 155 130 107  89  69  62  61  37  32  46 111 128 128 149 138 157 159 167 157 159 170 173 182 188 190 192 192 198 197 197 191 191 191 193 191 186 179 138 127 156 145 121 141 164 182 177 175 174 154 129  99 102 154 189 195 199 199 198 195 193 193 193 186 180 172 162 159 153 135 121  73  54  54  53  53  53  54  53  53  55  53  53  52  52  52
 205 203 200 198 189 180 167 149 126 102  86  73  58  57  57  46  54  94 125 143 156 155 162 159 165 166 165 162 172 184 185 190 188 191 193 192 192 186 189 191 192 187 187 185 163 139 132 151 155 120 128 140 140 148 136 103 113 130 164 176 194 189 196 195 194 191 189 187 185 178 170 166 151 155 145 141 128  73  54  50  53  52  52  53  54  53  52  53  50  53  53  51
 203 201 196 194 187 178 165 142 120 101  84  68  66  51  48  57  48  87 113 147 140 166 163 151 160 164 160 172 164 173 175 184 190 185 189 190 187 185 189 186 194 186 190 181 164 153 129 124 131 147 138 111 110 112 117 104 113 153 161 185 183 189 191 195 194 192 187 183 185 177 180 167 156 153 142 112 116  77  52  52  52  51  51  51  53  53  53  53  51  52  52  53
 196 196 190 186 178 169 154 136 115  99  78  64  62  47  35  35  46  78 118 142 146 152 153 151 160 164 160 164 170 172 180 183 186 188 187 188 185 190 189 185 185 181 179 178 144 141 165 147 143 162 146 159 150 130 141 126 120 144 167 177 190 182 184 188 183 181 183 179 177 168 167 160 157 147 143 121 110  63  52  53  53  51  52  52  54  53  53  52  50  51  53  53
 193 191 186 181 172 160 145 128 109  92  78  74  53  59  54  30  32  94 104 125 157 149 161 150 158 162 159 155 162 170 182 183 185 186 185 182 182 184 179 179 171 172 179 164 155 158 157 157 159 163 144 168 148 153 160 143 128 131 145 159 166 182 185 176 187 184 173 175 176 174 161 154 154 150 135 115 118  65  51  51  52  51  52  51  52  52  52  51  51  51  51  53
 182 181 175 173 163 150 135 122 105  90  70  68  61  55  49  46  46  90 102 115 138 154 160 156 152 166 152 158 167 177 179 184 186 181 185 178 180 173 168 167 170 146 157 183 162 176 182 167 165 162 164 167 165 151 158 147 157 148 144 139 163 171 156 169 167 171 166 163 165 168 157 150 155 156 136 117 110  49  52  52  51  52  52  51  51  52  51  51  51  52  51  54
 178 172 167 161 149 140 128 115 102  86  77  65  62  52  55  48  35 110 105 109 136 151 153 156 134 162 171 160 162 166 174 179 183 182 181 174 162 161 160 161 164 162 171 183 180 179 177 176 160 159 163 174 152 163 173 168 162 173 165 166 154 161 152 151 167 161 148 161 166 160 162 161 146 131 139 125 115  49  51  51  50  51  51  51  51  51  51  50  51  51  53  54
 170 164 157 151 142 136 125 112 100  87  74  62  55  53  52  49  48 124  86 105 118 137 165 153 160 156 153 157 167 158 176 178 189 182 168 153 156 164 168 166 174 181 184 186 189 186 184 181 183 177 159 167 155 170 183 179 180 172 178 180 156 160 151 151 171 144 136 159 168 161 161 150 144 126 118 135 103  51  49  51  51  51  51  51  51  50  50  49  50  51  52  54
 168 159 152 140 132 130 122 112 101  89  80  68  63  56  56  51  47 112  84  96 132 152 140 155 162 161 159 153 170 157 168 178 183 187 158 141 155 171 172 166 176 176 171 165 156 149 147 147 139 163 174 178 178 158 147 159 160 163 166 167 160 159 155 165 162 144 138 161 165 161 151 150 143 113 147 112  65  48  51  50  51  51  51  50  50  49  49  48  50  51  51  54
 168 157 145 139 131 128 120 114 101  92  77  69  60  56  47  55  38 108 116  98 120 136 135 156 149 149 145 153 165 155 171 174 184 178 175 152 167 167 148 138 135 126 118 122 114 126 119 123 120 121 123 120 116 118 114 121 118 122 120 122 125 111 108 143 159 136 152 161 163 151 142 143 132 116 128 102  50  49  48  50  47  49  49  49  50  51  50  49  49  50  52  53
 167 156 145 137 130 128 119 113 102  94  82  72  65  52  56  52  44 119 131  74  99 125 134 137 164 153 151 163 156 165 179 182 184 192 171 161 162 143 128 134 109  83  79  79  77  75  64  81  84  93  97  93  99  96  79  69  71  73  82  81 103 143 163 164 156 159 154 172 170 145 142 151 130 129 115  95  55  51  49  49  50  50  49  48  51  49  50  50  49  51  52  53
 165 155 144 136 129 125 117 113 105  98  89  78  68  59  50  46  50 115 132 108  92 118 133 141 150 148 159 151 168 139 165 183 189 188 177 159 170 175 174 173 165 150 135 131 131 129 136 135 129 124 104 105 113 118 131 125 133 134 129 138 162 171 175 177 176 168 165 174 168 144 134 134 127 136 102  57  50  46  49  48  48  48  48  48  48  48  47  48  50  50  52  52
 163 150 141 134 128 125 118 114 106  99  92  80  69  56  50  46  46 109 135 135  61  99 126 117 144 144 160 160 160 139 101 175 177 190 186 183 180 177 184 184 177 177 170 166 160 152 157 159 151 144 144 146 154 151 138 152 137 142 160 162 174 179 177 176 176 169 172 171 152 148 134 135 130 112  85  50  51  49  49  49  49  49  48  49  48  49  48  48  49  49  50  53
 166 151 141 137 129 128 119 112 105  98  93  81  70  57  51  46  46 107 138 136 111  84 104 125 145 144 146 158 158 144 137 162 174 181 186 189 185 181 183 184 185 184 180 173 171 171 164 157 163 160 155 151 149 156 144 143 154 165 170 176 179 180 178 175 171 178 174 168 157 146 140 141 132  94  55  43  48  48  48  48  49  49  50  49  48  48  48  48  48  50  53  52
 162 149 138 134 127 125 117 110 102  95  90  77  66  56  51  45  46 107 129 143 131  76  91 108 144 146 155 154 148 138 147 164 170 179 184 190 192 184 182 184 187 186 181 175 176 165 152 149 156 151 144 146 148 148 154 157 166 167 169 178 182 181 176 176 176 170 167 166 154 125 129 122 105  75  49  50  47  49  48  48  49  49  49  49  48  48  48  47  49  50  51  53
 157 143 133 129 122 120 113 110 102  95  85  71  62  56  48  45  46  98 132 133 139 125  58  93 113 122 145 154 146 151 139 152 161 169 179 181 184 188 182 183 182 180 176 168 172 178 171 159 150 144 146 146 151 148 155 163 169 173 174 174 181 181 177 176 168 179 168 159 145 132 134 118  85  41  46  47  45  49  47  48  47  49  49  49  49  49  49  49  48  49  52  53
 153 138 128 122 119 114 111 104  96  89  77  69  59  56  49  44  51 100 144 144 141 128  96  77  92 127 147 147 135 136 142 159 159 161 169 187 182 186 186 186 186 183 179 178 171 177 170 163 149 148 152 157 160 163 164 171 171 171 178 178 184 180 178 172 174 167 163 149 141 130 114 107  49  47  48  48  48  48  49  49  48  48  49  48  48  48  49  47  49  49  50  53
 144 131 121 111 110 106 104  96  87  80  70  64  56  51  51  46  49 106 138 153 144 135 104  76  72 111 123 150 146 151 140 153 154 170 165 169 186 185 185 186 185 186 185 187 179 173 172 171 166 156 137 148 161 166 172 170 173 175 179 178 183 180 175 170 175 171 166 149 126 128 113  49  47  54  48  47  48  48  48  48  48  48  49  48  48  48  48  47  48  50  52  53
 136 125 119 108 104  96  91  88  79  72  65  60  55  50  52  48  77 105 145 146 151 136 142 107  80  87 111 122 139 147 120 143 152 163 178 177 181 185 185 185 185 186 186 186 183 175 176 177 169 158 157 160 170 176 179 176 178 178 183 180 186 182 174 170 176 167 150 137 117 118  56  47  43  49  48  49  48  49  49  48  48  48  49  48  49  49  48  50  47  50  51  54
 129 122 114 107  98  93  85  81  70  67  59  55  52  52  45  42 138 112 145 139 147 139 137 122  97  86  89  95 120 137 133 147 149 149 171 179 179 176 182 187 192 188 185 183 183 183 179 180 174 171 176 182 185 181 185 187 181 183 187 184 189 182 175 179 176 164 129 132 110  66  80  45  48  45  47  48  49  49  49  47  48  48  49  48  45  46  49  49  51  52  54  54
 121 114 108 100  92  87  78  73  64  61  57  55  52  53  58  60 120 110 147 152 152 144 150 136  93 102  99  88  85 122 133 135 132 140 157 179 187 187 185 186 187 193 189 184 184 182 183 182 190 183 183 185 186 186 188 185 186 186 187 186 186 179 179 180 170 141 119 105  68  99 123  59  48  43  47  48  48  50  48  48  49  48  48  48  48  48  49  50  51  54  56  59
 108 103  99  97  89  84  75  66  60  58  54  54  53  52  53  64  53 139 148 155 154 153 149 139 127 105  91  99 101  83 106 130 133 121 148 166 176 187 189 178 187 197 190 193 188 185 190 200 206 192 187 190 191 194 198 197 197 191 188 189 183 180 180 177 159 134 108  64  86  99  41  50  47  54  47  48  48  46  48  48  48  48  49  47  49  49  52  51  54  59  63  69
 102  96  91  91  83  76  69  62  59  58  50  53  53  48  46 110 162  96 146 155 152 155 156 142 144 130 110  92 101  96  79  94 107 124 120 148 167 183 183 183 189 194 196 197 193 195 199 203 204 201 195 194 192 194 188 196 193 194 191 191 182 177 176 168 140 104  47 110 116  94  52  45  47  50  47  48  48  48  48  48  46  48  48  49  48  51  52  58  66  74  80  81
 101  95  88  80  76  68  63  60  57  56  56  49  55  51  96 123 199 207 145 157 149 159 158 153 142 146 127  98  97 101  99  95  99 106  99 123 153 174 175 186 187 196 201 200 198 201 205 203 199 193 190 202 200 198 199 194 196 196 196 187 181 174 180 160 100  57 108 123 116 106 135  77  51  45  49  48  49  50  48  48  46  49  48  49  48  56  61  72  82  93  98  99
  96  91  86  83  79  72  68  61  59  56  59  53  50  71 116 149 170 194 144 150 158 162 157 162 150 146 129 122 102 101 109 101 103  95 106  89 125 152 162 184 184 189 197 202 197 196 202 200 204 187 194 205 205 201 194 202 199 182 183 178 174 174 158 122  58  86 113 124 122  70  78  93  52  44  47  48  48  50  49  48  48  48  49  49  54  65  76  87 101 109 117 115
  88  85  83  77  75  70  67  67  63  61  62  59  61  94 112 160 127 149 148 154 162 161 156 165 157 156 150 138 123 112 104 116  97  71  86  92  82 131 155 158 167 185 196 201 197 189 201 202 210 193 200 200 198 196 191 197 183 176 173 167 156 146 136  66  79 132 128 122 127  95  66 106  63  48  46  48  48  49  50  48  48  50  48  49  59  72  84  98 113 123 129 132
  93  87  82  79  72  73  70  63  63  65  61  58 170 183  76 143 211 183 151 155 158 161 157 160 169 161 153 132 130 127 104 117 106 104  71  84  86  89 119 140 147 159 177 182 197 198 193 203 194 192 206 190 189 197 172 173 179 164 142 151 143 117  72  81 143 135 138 128 124  56  72 140  54  47  44  49  50  47  47  47  47  48  48  52  63  78  96 111 120 132 137 138
  88  87  86  84  79  77  74  71  69  80 140 163 174 154 105 160 237 137 147 159 161 160 161 170 164 158 158 154 146 135 133 107 125 105 106  86  73  76  93 108 135 131 161 160 182 188 193 186 193 194 185 172 183 175 167 169 149 154 135 129 122  61  87 141 138 132 131 131 117 153  81  52  55 109  61  54  46  45  52  50  45  48  49  54  71  86 104 118 128 139 144 146
  84  83  80  86  78  73  73  84 167 143 182 196 152 117  71 183 149 192 126 159 160 162 168 159 160 160 152 160 160 158 149 142 130 122 118 116  98  74  79  85 103 116 128 146 131 164 178 175 182 182 169 173 168 157 148 159 138 121 107  98  67  96 134 141 141 143 132 122 104  54  47  46  46 119 143 140  87  49  47  48  52  46  51  58  72  89 106 121 131 142 147 146
  79  82  78  73  75 111 155 154 131 202 192 198 134 105  69 141 149 102  92 155 165 159 164 171 168 156 155 168 167 169 155 157 151 141 133 138 121 115 109  79  72  83 109 127 139 143 152 144 163 151 151 152 157 145 125 135 121  98  77  58 108 147 138 139 138 144 127 131  43  74  45  51 137 170 154 117 156 155 114  66  52  53  55  59  75  92 112 126 136 144 145 147
  77  75  80 141 162 175 133 180 207 198 199 200 107 169  62 133 146 114 143 158 164 167 162 171 172 164 167 160 170 172 162 170 165 149 151 145 150 145 147 148 121  80  55  75 105 122 128 145 130 134 136 143 143 121 123 114  77  58  58 106 142 142 140 140 148 141 132 109  45 177 117  65 103 135 185 184 110 156 150 154 143  84  52  64  80  98 117 125 136 142 145 141
  75 159 172 159 171 148 193 204 196 202 196 201  95 129  81 112  98 145 194 118 159 160 172 166 169 168 164 169 167 171 158 166 160 168 164 153 163 149 131 148 155 155 141  73  59  63 105 104 105 104 110 116 122 100  82  58  73  98 135 147 144 149 158 153 153 140 145  72  62  55  34  51  50 140 185 182 179 122 149 143 141 155 142 111  77 100 110 128 132 137 136 131
 175 156 165 154 168 158 205 207 203 198 203 201  97 182  54 139  56 170 202  43 164 168 170 169 173 169 168 177 168 167 169 177 165 172 160 162 160 149 164 161 148 151 163 162 166 124  82  63  81  71  69  71  61  81 104 118 130 128 137 154 149 151 151 152 155 152 106  59  66  55 137  83  48  60 178 194 188 145 132 143 145 142 150 145 152 146 122 120 127 131 130 126
 176 169 156 155 142 201 208 206 205 203 202 200 106 177 106 159  98 179 153 143 114 169 173 173 175 170 168 175 167 169 172 176 170 151 169 159 159 160 164 154 156 161 160 171 176 167 174 172 168 165 160 156 153 145 143 128 130 124 146 154 160 159 157 157 162 143  39  97  69  50  98  55  43  48 178 186 191 167 149 128 141 127 127 120 123 139 148 161 147 133 124 114
