P2
# Generated by OpenCV 4.2.0
92 112
255
 128 132 135 139 141 144 142 142 139 132 122 120 124 130 142 151 150 150 154 151 149 148 159 136 164 113 156 112  66  58  76  82  82  66  68  61  49  58  69  55  51  52  57  75  65  53  49  62  66  74 100  87  85 110  40  61  81  86  49 134  86 149 160 137 130 132 144 149 154 155 155 152 155 152 147 162 158 160 163 165 167 170 171 172 170 172 173 172 171 165 161 152
 132 132 138 142 146 147 144 145 143 138 133 129 128 134 142 153 148 150 151 149 150 152 139 153 146  81  57  70  83  92  74  50  49  63  55  43  44  55  54  57  60  66  50  44  59  70  65  53  31  39  40  67  71  86 106  59  43 116  80  56 104  56  83  76  69  63  82 102 119 139 158 162 149 150 155 155 158 160 163 165 165 169 171 172 172 172 173 172 168 163 158 148
 138 140 143 147 151 152 152 153 153 148 144 136 134 137 144 153 149 150 148 148 147 148 147 157  81  93  85  78  65  59  50  60  59  63  64  59  70  75  73  63  59  64  60  52  43  48  51  46  50  46  54  51  37  60  85  75  76  60  76  69  79  78 103 127 109 127 114  94  80  70  84 104 142 144 143 144 149 152 154 155 156 160 165 166 168 169 168 166 163 159 155 147
 142 146 146 152 154 157 158 163 158 156 148 139 137 138 142 152 153 149 156 148 153 146 136 107  81  75  76  59  51  50  47  50  60  61  41  56  60  59  53  55  62  61  49  67  66  68  69  56  65  54  52  50  58  53  58  72  75  66  62  81  78  97  76  74  74  71  72  70  53  71  53  67  88 141 117 133 131 132 136 138 141 146 150 152 154 156 155 152 149 146 141 133
 145 145 147 151 155 157 157 161 158 154 145 136 133 136 142 159 144 155 148 162 147 118 100  81  58  59  63  51  48  57  59  63  59  58  54  57  49  52  54  57  52  60  68  66  67  63  55  32  25  15  25  29  42  50  47  48  66  77  65  59  79  73  62  44  63  80 100 116 115 111  54  91  66  99 131 118 126 125 125 126 128 132 136 135 138 136 135 135 134 132 129 125
 139 139 140 143 148 151 153 156 153 146 133 124 126 134 147 151 152 152 128  71  94 126 115  74  48  52  51  47  54  54  53  49  57  60  61  56  54  55  57  50  55  58  57  53  50  48  49  52  54  55  43  27  25  32  42  40  51  56  71  66  82  76  63  78  65  52  78  58  79  79 101  69  73  60 135 136 136 137 131 131 132 134 134 133 135 132 131 132 131 129 127 126
 130 130 132 133 138 142 143 142 140 131 115 114 120 129 152 147 152  90 127 144  88  56  57  56  52  71  80  79  62  48  32  39  47  55  57  41  42  44  43  44  40  34  39  42  47  43  55  56  49  64  80  84  59  30  26  39  41  48  47  53  54  63  67  76  73  42  75  66  52  83 121  86  51  59 141 164 156 158 157 154 153 154 154 154 149 149 147 147 145 148 146 143
 114 117 119 123 128 132 135 136 134 124 110 110 118 130 144 140 106 150  91  71 100 104  92  50  53  49  60  50  52  59  55  41  32  43  38  29  27  33  32  35  38  32  40  82  70  52  42  47  44  41  39  39  43  70  53  40  25  40  41  41  46  75  71  43  47  67 105  87 120  65  64  99  49  66  82 116 138 163 178 178 175 174 175 174 175 174 172 171 171 171 170 169
 120 125 127 133 141 144 150 153 152 141 125 122 119 132 143 102 146  56  95  77  52  50  49  47  57  58  67  60  55  51  53  48  40  37  39  41  44  45  32  34  28  38  69  77  52  48  60  58  44  44  57  46  47  30  43  65  48  37  42  58  77  61  54  63  67  26  78  87 112 128  53  60  67  49 112 182 174 163 138 172 182 179 181 180 181 180 179 178 180 182 181 181
 138 144 142 147 155 160 162 166 166 157 142 136 128 131  87 133  50  78  48  69  61  43  46  58  61  49  51  49  54  56  51  45  44  39  47  48  45  43  37  31  30  51  66  63  61  58  63  72  88  99  95  90  61  52  55  45  49  64  85  83  64  48  47  48  47  63  25  55  67 111 136  52  63  58  89 173 166 173 183 151 155 188 178 186 184 183 183 184 182 182 182 182
 147 149 152 156 162 168 173 176 174 164 146 139 134 111  95  68  59  37  64  75  72  57  53  48  43  45  51  42  37  43  46  40  46  43  49  48  45  48  52  67  69  69  61  55  69  78  91  96  90  87  84  71  77  73  65  72  74  85  80  75  68  52  41  36  40  49  60  44  53  61  46  53  49  78  83 146 170 173 174 181 158 150 191 177 183 183 183 183 185 185 185 185
 154 158 159 159 163 170 170 173 172 162 149 139 129  91  84  74  35  55  65  56  43  59  39  40  49  41  27  41  37  38  46  47  57  55  61  65  59  54  48  48  49  48  46  62  68  59  72  86  86  73  64  71  73  70  64  59  48  46  42  32  36  30  35  38  35  21  49  36  44  37  45  38  54  48  44  42  85 138 178 180 188 141 173 183 183 184 184 184 183 183 183 184
 154 156 156 157 160 165 164 166 165 158 141 134 114  67  63  40  59  63  53  44  61  44  36  48  30  24  46  42  61  61  46  54  57  55  58  44  38  46  47  50  45  43  40  45  46  88  91  63  49  65  80  76  57  50  49  47  53  54  37  43  64  65  51  47  34  35  24  42  46  47  70  77  65  55  62  75  64  67  99 173 171 185 151 184 183 183 182 181 182 181 183 184
 149 149 150 151 155 157 159 158 155 149 132 120  57  46  65  45  71  41  54  54  56  28  51  58  28  36  41  44  39  25  32  34  28  31  44  51  51  49  48  41  32  35  38  34  50  46  51  67  86  77  52  42  47  60  56  58  65  68  75  79  73  66  45  45  51  39  45  36  56  67  60  95  86  47  86  93  73  84  54  86 174 182 160 179 185 184 184 183 184 184 184 184
 145 145 146 147 151 151 153 151 149 142 123  41  46  94  44  60  31  52  51  59  44  39  71  33  20  35  46  58  30  34  35  31  50  56  49  41  46  51  48  38  36  34  31  35  31  16  22  34  30  37  67  91  73  62  55  46  54  63  61  64  62  56  48  49  36  40  32  54  52  45  59  58  70  49  81  74 112  70  93  70 101 182 176 179 184 185 184 184 184 185 183 183
 143 143 145 148 148 149 150 148 146 144  46  58  69  75  51  33  46  60  53  58  39  48  43  27  48  51  49  46  53  43  57  55  47  45  52  46  39  38  29  36  40  45  39  37  49  33  33  44  31  29  35  35  51  64  58  55  55  56  46  32  32  28  47  50  46  38  54  46  72  65  61  52  50  50  40  48  74  88  97  74  55 163 193 192 198 198 196 197 193 194 192 192
 142 144 146 148 149 148 149 145 143  97  49  85  57  61  61  47  57  54  52  60  37  45  29  45  58  53  50  39  44  55  26  41  58  42  37  32  33  46  36  35  41  33  47  48  41  32  29  29  45  46  60  53  24  56  33  56  57  60  57  51  55  61  56  53  28  43  56  30  29  23  28  47  54  47  47  59  48  93  61  90  82  95 204 211 213 212 210 210 208 208 208 208
 143 143 144 147 148 149 153 151 149  64  75  62  55  57  50  55  66  58  59  53  31  46  50  54  42  38  41  55  45  23  46  53  54  49  51  41  36  25  32  37  32  35  31  41  46  54  65  67  64  72  72  76  73  51  36  45  44  33  29  36  32  33  39  39  45  38  16  22  23  34  18  36  49  49  52  54  58  59  56  58  79  46 202 218 222 221 219 219 218 217 218 216
 142 143 142 145 148 148 148 150 138  76  53  54  51  55  48  50  59  55  36  46  40  50  34  37  38  48  60  43  34  47  51  46  35  33  40  30  28  43  48  36  52  55  64  57  56  62  57  48  59  63  71  75  74  71  66  34  31  39  43  38  39  44  39  40  18  22  34  29  27  48  38  36  45  59  45  50  71  59  79  49  54  63 169 220 223 221 219 218 217 216 216 216
 140 144 143 146 148 149 144 145 132  62  55  59  47  51  56  55  66  62  35  47  38  53  35  47  60  48  29  41  43  53  36  38  36  45  30  39  42  44  50  52  70  64  64  56  74  76  75  80  77  69  65  67  75  70  58  56  47  38  34  38  39  38  33  25  38  59  40  31  38  40  40  56  39  41  50  50  55  55  69  63  57  60 120 207 207 205 203 202 199 197 199 197
 142 141 140 144 146 148 149 149 119  60  43  56  54  51  41  43  57  57  65  50  37  52  57  43  36  40  44  48  47  42  41  42  48  44  43  55  48  39  33  31  40  49  53  51  41  48  52  60  56  69  70  68  57  42  38  31  32  39  47  41  34  36  45  50  58  60  39  70  43  56  43  40  43  38  45  59  76  57  55  52  52  56  73 190 187 184 179 175 170 169 166 165
 140 140 141 145 148 151 160 146  85  58  60  66  58  67  40  32  42  63  47  39  57  37  20  25  38  47  47  43  41  40  42  42  41  38  47  48  38  26  35  57  61  61  55  49  40  30  33  34  43  51  58  66  78  81  60  50  36  32  32  33  38  43  49  57  61  66  63  57  37  51  66  59  40  27  45  47  77  61  44  43  82  64  57 136 165 157 155 146 143 142 140 138
 142 142 142 146 152 155 156 143  76  35  65  51  56  53  40  38  48  61  56  53  41  31  36  45  52  51  50  44  44  43  37  27  28  46  59  43  29  24  70  68  57  49  35  41  40  28  16  26  24  29  48  66  61  58  51  50  34  29  20  26  27  32  33  37  37  51  52  59  48  56  58  35  41  42  42  39  51  87  56  40  67  90  63  84 159 156 155 157 152 152 151 150
 146 144 147 153 159 162 154 114  68  46  53  60  49  39  45  27  40  55  36  40  44  49  44  52  54  46  44  31  26  26  23  32  52  56  65  25  67  65  53  52  44  46  46  41  28  24  31  26  34  44  42  43  62  65  56  46  39  46  27  27  26  29  38  35  51  42  53  65  70  68  54  54  39  53  32  36  34  70  58  53  30  77  75  58 146 165 162 166 165 163 165 164
 153 152 153 158 161 162 171 114  47  58  51  52  58  45  58  45  33  39  41  39  33  37  50  38  29  25  28  18  38  33  38  48  48  45  48  63  52  53  49  45  57  55  32  17  17  29  38  55  33  25  32  30  42  67  66  43  53  28  27  27  27  34  29  34  40  48  54  49  51  44  39  42  39  44  30  47  39  50  63  58  49  62  69  59 112 161 163 161 165 166 168 168
 150 149 149 156 162 162 165 101  52  49  56  45  50  49  71  48  28  39  36  38  30  42  33  33  41  45  38  56  31  48  42  48  47  45  44  53  48  39  41  51  47  32  30  28  44  50  43  43  37  43  37  40  37  43  70  54  52  32  24  29  25  29  27  33  42  32  39  43  45  55  43  31  48  44  42  33  43  47  68  48  44  38  70  60  90 166 165 165 167 167 169 170
 141 145 144 149 152 153 150 101  69  44  53  54  55  58  59  56  42  45  55  48  45  44  41  44  43  42  48  44  42  36  42  35  35  43  51  71  52  43  45  46  44  44  35  49  55  46  48  50  53  42  24  16  17  16  17  80  64  42  38  37  43  55  62  57  50  44  57  57  59  52  49  51  48  51  53  38  58  61  71  52  47  33  69  53  76 172 166 164 169 170 171 172
 131 133 136 137 137 135 136  97  77  48  49  68  60  53  46  54  47  53  48  58  54  46  38  43  41  41  44  31  37  28  33  35  40  50  51  34  73  44  54  46  36  45  56  51  43  50  51  38  21  25  29  30  19  23  22  17  85  42  43  51  70  78  86  77  78  65  51  40  39  47  50  50  45  40  41  29  41  42  69  54  47  39  77  50  74 171 168 167 170 170 171 173
 121 129 125 128 129 127 126 117  69  55  61  60  68  52  47  52  46  39  43  52  46  46  42  33  30  34  30  28  31  33  26  30  28  30  37  37  45  52  21  33  45  49  36  52  52  44  36  27  37  32  38  27  26  35  20  30  26  73  26  54  53  49  52  61  59  59  60  45  46  41  30  30  35  32  32  32  34  57  58  61  45  45  63  60  60 170 170 168 173 174 173 175
 135 138 139 142 143 142 145 144 110  55  61  55  45  42  48  55  51  35  32  30  32  32  25  26  32  33  32  35  29  23  28  32  26  29  36  36  36  44  53  46  53  43  55  54  61  52  35  44  41  40  29  30  33  17  37  29  23  70  52  34  25  17  22  27  23  24  38  56  51  44  28  19  26  43  60  40  36  62  55  65  44  44  50  53  56 152 169 172 174 176 177 178
 153 152 152 151 151 151 149 146 123  64  62  44  34  31  35  35  39  31  32  30  29  30  34  40  39  36  37  34  30  37  38  30  39  54  46  42  36  31  42  49  32  34  45  47  43  52  61  43  40  40  39  37  42  47  28  29  33  64  63  51  38  44  48  42  41  41  30  37  48  41  24  23  20  37  55  25  63  55  56  62  45  46  48  55  52 128 177 170 177 178 179 181
 162 160 158 155 154 154 158 153 129  92  47  44  34  36  44  41  24  29  48  47  48  50  58  55  45  36  33  31  26  32  39  39  42  33  22  28  38  49  34  42  54  47  38  38  43  42  38  53  52  48  53  60  49  42  39  52  56  46  56  52  49  36  43  57  20  15  24  26  24  33  26  20  23  41  59  36  58  25  46  60  51  36  45  65  57 101 178 168 175 177 179 181
 169 162 160 156 155 155 153 163 134  90  45  29  35  35  23  35  35  42  34  34  59  50  41  53  57  39  35  35  41  44  41  30  40  40  50  49  42  45  59  46  49  65  61  53  49  52  51  44  48  49  45  43  46  57  64  64  42  43  41  48  45  40  27  28  32  50  38  28  33  32  29  23  17  38  57  54  21  25  49  50  49  41  46  71  58  87 176 171 178 179 182 185
 162 160 156 150 152 150 151 150 152  78  50  37  27  43  45  31  38  31  35  32  49  60  59  32  51  47  40  33  28  31  35  35  41  35  42  49  49  48  46  48  54  45  60  60  57  54  50  45  43  42  43  42  38  36  35  32  33  30  22  26  44  38  45  37  34  22  27  21  30  22  28  24  22  43  55  64  20  21  51  43  52  34  44  78  71  96 174 173 177 178 182 185
 154 155 150 145 154 151 143 150 123  50  49  42  48  51  38  27  32  41  33  33  38  56  50  50  32  30  27  32  39  38  39  40  44  34  26  25  30  40  48  35  39  48  49  46  44  45  52  51  51  49  45  44  40  42  43  41  37  43  57  52  42  47  45  58  53  33  31  23  32  22  34  48  23  33  62  63  31  19  49  41  62  30  43  78  69 107 171 176 177 180 182 185
 147 154 138 138 155 152 151 149  79  51  52  36  44  44  21  26  32  40  45  48  47  53  47  39  34  30  38  37  40  40  37  38  41  40  36  39  32  16  23  40  45  42  47  61  61  58  58  61  56  57  61  65  72  76  66  66  63  46  43  37  43  50  42  50  36  36  41  45  27  30  25  50  44  41  72  54  30  25  52  49  53  30  49  65  69 126 170 177 179 180 184 186
 144 154 136 144 149 152 150 142  90  50  38  44  23  26  47  31  48  38  39  33  46  40  37  42  36  34  39  41  39  39  43  43  45  41  37  36  35  45  50  56  44  27  28  43  46  58  67  56  53  60  68  74  68  69  72  73  67  57  54  59  42  43  40  47  40  45  30  33  27  44  47  62  44  65  58  52  12  33  45  52  50  34  57  51  71 130 179 175 178 179 184 186
 132 152 133 142 150 139 145 141 124  46  33  42  33  34  38  46  25  17  13  57  38  65  51  46  38  33  30  27  27  33  37  37  32  35  39  46  57  55  51  50  58  67  70  55  45  47  54  57  61  58  63  68  62  54  51  48  46  54  63  69  64  58  49  30  36  35  48  38  43  29  41  47  59  63  53  51  20  43  42  50  61  44  64  54  80  97 181 184 179 181 182 185
 107 142 114 136 131 149 132 139 130  94  33  34  33  38  44  29  42  32  25  41  67  67  56  49  44  37  36  43  40  31  36  42  48  52  54  54  57  58  69  74  59  55  54  58  61  69  74  74  73  68  78  80  75  62  66  80  83 100 120 108 102  67  50  45  40  42  32  51  32  51  67  73  72  68  59  41  34  48  37  57  64  48  57  62 125 113 148 172 179 180 183 184
 113  88 115  92 129 119 119 116  96  64  55  49  51  51  44  55  45  52  55  53  59  50  83  60  57  57  41  30  32  39  41  41  44  46  46  52  56  54  44  47  63  67  67  80  86  93  95  91  87  91 103 112 111 118  95  63 131 184 166 148 114  80  63  61  64  44  49  40  54  67  79  52  67  61  72  34  45  41  39  61  55  49  47 102 159 171 174 180 180 182 183 184
 117 110  81 103  85  95  72  77  83  58  47  46  54  67  44  44  33  35  42  43  52  47  34  53  66  61  53  58  57  54  52  57  56  52  48  44  49  56  63  67  71  76  91 107 115 125 141 142 147 158 149 158 161 147 160 152 125  90  74  68  66  69  66  60  58  55  34  63  85  75  56  56  60  58  74  46  44  49  46  50  51  52  49 128 170 173 175 179 179 181 182 184
 137 113  96  64  70  47  43  58  60  54  47  57  65  54  40  38  43  55  63  35  36  43  49  45  40  49  53  58  54  49  51  55  53  62  64  67  76  68  75  83  97 124 133 144 159 167 157 158 170 178 180 175 176 168 142 129 123 118 114 109 101  93  88  76  53  48  57  86  80  58  43  70  63  67  60  54  62  57  48  53  59  46  54 171 181 182 182 184 182 183 182 182
 146 134 127 111  56  43  87  75  48  61  52  62  71  42  37  27  27  20  25  24  34  44  46  41  56  55  47  51  52  50  49  65  77  77  77  80  71  76 107 134 141 144 146 158 162 162 167 167 173 171 176 177 170 168 166 162 156 154 144 141 148 127  95  84  73  51  63  96  57  36  65  61  64  68  65  49  63  52  52  56  51  45  79 192 194 193 193 191 188 187 186 183
 138 139 133 113 124  99  65  33  47  40  36  51  74  53  40  31  34  34  33  35  37  46  42  52  63  50  47  52  64  81  90  89  77  76  80  83  89 124 151 149 154 159 169 173 176 171 173 181 178 179 182 182 185 182 177 176 179 177 172 165 137 107  98 103  81  68  60  66  43  52  81  52  60  65  66  46  72  33  53  63  50  53 132 205 206 204 202 201 199 197 195 193
 145 143 148 146 131 113  99  85  86  53  50  46  60  67  57  51  38  47  37  49  45  42  50  58  64  74  93 101  88  74  64  76  79  85  91 108 128 146 147 153 152 158 162 166 171 178 181 184 178 179 179 180 184 184 187 190 187 179 172 166 150 132 122 104  99  49  50  52  49  61  58  49  43  75  75  48  67  43  53  52  59  55 139 211 212 213 211 211 208 206 204 202
 143 145 147 144 148 142 136 130 132  71  59  52  50  55  60  51  66  68  69  69  69  76  86  89  89  78  73  70  61  60  72  92 105 119 128 140 153 157 159 162 163 166 168 173 175 175 177 186 186 188 191 190 188 180 188 189 187 185 181 173 164 143 148 148  72  86  40  44  52  48  54  45  44  60  77  59  66  52  60  55  57  60 148 216 215 214 215 215 215 215 213 210
 141 143 143 148 140 137 139 131 121  69  54  56  49  46  66  69  65  61  53  47  47  62  63  59  62  61  70  62  67  91 115 112 116 137 148 158 165 167 170 169 170 168 167 173 183 190 195 198 197 197 196 196 194 189 190 184 183 182 185 179 177 161 163 123 110 124  78  43  46  41  52  60  37  48  69  67  64  56  63  66  62  65 144 216 217 217 215 218 219 220 219 217
 139 138 139 138 134 160 156 130  97  70  66  66  67  50  51  70  52  65  64  62  64  68  65  58  61  74  98 113 117 129 122 124 145 152 157 165 170 172 175 175 171 174 177 182 192 196 197 198 199 197 195 196 196 195 194 188 186 181 182 181 178 165 162 133 124 112  72  51  50  56  41  42  54  42  53  78  55  67  58  72  69  73 140 213 214 217 217 218 218 220 221 222
 132 134 133 137 134 169 162 141 104  66  57  55  50  62  51  55  61  69  74  69  73  71  71  80  89  98 104 112 118 154 150 145 149 153 165 172 178 176 176 176 177 179 183 187 188 190 193 191 195 198 199 199 195 195 196 197 194 188 185 185 176 169 167 145 138  86  73  61  43  37  34  29  41  53  52  70  51  67  61  72  66  77 162 214 215 215 217 217 220 221 222 223
 133 136 137 144 149 137 156 159 132  91  78  68  63  52  47  52  78 121 108 108 106  96 101 109 109 118 125 155 163 152 148 152 156 166 165 169 174 177 181 185 191 195 195 197 196 197 195 201 201 199 199 198 197 198 197 200 200 199 193 189 178 172 167 156 139 128 129 102  56  35  31  36  34  50  45  55  62  60  64  63  70  69 174 211 214 216 219 218 221 220 222 224
 141 146 147 149 161 110 109 151 143 115  61  60  53  43  50  66  94 138 120 114 113 114 128 116 109 130 155 173 161 152 152 152 160 163 157 164 174 182 189 197 198 198 196 199 199 198 196 198 198 196 197 198 198 199 199 199 198 197 195 196 185 177 173 168 167 154 164 132  78  42  32  18  40  49  55  53  64  62  63  61  72 112 188 214 216 216 218 217 221 220 222 224
 151 154 158 159 165 127  60  76 133 127  59  50  46  47  47  66 127 141 148 132 109 108 100  99 113 119 135 141 139 148 145 153 150 156 174 186 193 194 196 195 197 200 202 197 196 198 201 198 200 202 203 199 201 201 201 201 199 198 197 198 192 185 182 173 179 157 165 149  98  49  39  31  41  43  53  45  57  51  58  62  69 143 206 209 213 215 216 215 220 221 222 224
 156 159 162 163 169 133  69  71  96 127  74  42  51  46  39  79 161 143 154 134  97  90  77  71  81  76  75  88  97 110 123 131 157 181 189 187 186 188 195 194 193 193 194 196 191 192 197 200 201 202 201 203 201 202 201 202 197 196 195 193 193 188 185 179 169 175 154 156 137  87  44  42  47  48  43  43  53  50  48  59  67 185 186 196 205 208 214 217 218 220 221 223
 158 156 159 161 163 134  74  94 137 110  99  49  50  42  48 119 150 144 147 111 114 110 108  95  94  95  85  69  70  71  84  93 124 159 177 184 185 186 189 190 188 190 189 190 190 193 195 194 197 199 197 192 194 196 187 183 182 182 169 169 177 181 184 183 172 169 169 162 163 142  77  42  42  47  49  42  48  50  50  59  88 160 185 191 183 188 214 211 217 218 220 221
 153 152 155 153 154 139  79  91 153 154 141  77  51  43  58 125 157 166 147 130 151 153 136 128 126 124 123 117 105  83  80  89  93 116 143 162 175 174 180 181 180 183 183 181 185 187 185 189 190 186 179 171 153 148 148 142 144 152 150 157 145 140 155 174 177 171 163 169 171 167 129  62  44  48  49  40  42  57  48  72 151 173 185 179 178 159 215 213 214 216 218 219
 152 149 148 152 149 144 111 108 153 147 154 155  63  41  78 160 171 159 135 150 153 148 142 139 137 132 131 125 111 101  98  98 100 104 113 134 157 166 171 175 172 176 176 178 179 176 174 168 152 130 115  90  85  80  74  89  90 103 115 121 120 131 131 142 162 175 170 168 172 175 159  76  48  46  48  38  43  55  64 157 182 172 168 163 112 138 217 208 210 213 214 216
 148 146 148 154 150 147 145 118 169 130 122 112  89  68  82 154 163 165 146 158 141 127 122 126 132 134 131 131 125 111  98  88  92 108 113 116 130 151 159 167 167 170 171 169 164 158 155 140 124 108 104 109 114 111 118 124 136 152 150 158 152 149 132 144 140 160 177 169 173 168 167  96  47  44  49  42  51  48 156 157 155 160  99  76  92 169 208 205 212 213 214 216
 149 148 149 152 150 147 145 143 156 133 111 101  83  52  79 173 169 158 163 154 140 131 119 127  89 113 136 153 166 143 113  73  70  82  84 104 112 128 149 157 163 172 166 162 153 146 139 133 129 124 120 118 112 116 121 139 133 141 154 156 162 156 163 160 139 141 163 170 169 174 170 109  49  45  48  50  44  98 175 133 134 162 115 106 126 188 205 209 209 210 211 212
 148 146 151 151 152 149 148 153 161 129 117 107  85  57  95 178 176 171 172 159 152 143 117  95 143 115  78  52  53  56  86 123 126  82  71  87  97 115 128 149 165 177 174 160 150 142 138 122 113 107  92  79  84  88 104 126 130 133 142 146 149 159 156 165 167 166 168 170 169 171 168 108  52  49  50  61  72 177 158 159 173 181 134 119 158 201 200 206 205 207 209 210
 149 149 151 153 151 150 144 152 156 125 118 110 169  47 102 173 179 180 168 162 153 133 126  88  62  86  94  71  55  57 104  70  89 112 105  83  80  91 134 161 179 187 186 173 163 147 129 120 114 111 104 129 125 124 132 149 134 109 111 126 147 139 144 147 155 161 168 173 173 174 169 108  63  49  46  64 135 166 201 179 179 180 143 137 167 203 204 203 205 205 208 208
 148 147 152 154 153 151 144 153 156 133 116 146 181  56 114 176 179 182 176 170 154 135 126 124 119 123 115  90  67  32  92  88 137  93 100 115 113  89 143 179 192 197 194 194 176 157 137 137 126 114 116  90  64  52  56  63  59 107 144 119 101 142 143 144 145 157 167 168 167 174 171 109  61  45  56  92 154 129 154 164 179 178 157 153 185 203 205 201 205 207 208 210
 148 151 151 152 153 151 147 148 164 135 116 171 173  55 125 173 178 177 176 178 171 167 163 158 149 138 160  90  94 119 112 115 156 131 113 120 150 159 160 189 202 204 205 203 185 159 152 148 140 106  85 101  70  67  34  56  69  93  80  92 132 108 145 152 153 162 170 169 173 173 163 118  57  43  76 161 120 115 138 149 163 179 162 163 197 203 204 205 207 206 208 209
 147 150 152 154 152 150 147 152 164 149 116 168 162  73 128 175 179 179 182 183 179 177 178 176 160 145 130 165 140 127 144 168 149 129 126 157 168 159 176 195 207 208 209 207 194 173 161 164 134  95  99 128  79  96  53  92  77 151 127  86  80 113 142 162 162 166 171 174 177 173 165 123  74  43 143 159 134 144 150 148 152 170 152 176 204 205 204 207 206 208 208 209
 151 152 154 156 155 152 145 150 166 172 132 151 173 103 126 173 178 180 180 179 181 182 179 170 164 170 151 143 139 135 147 147 165 161 169 164 156 165 181 195 206 205 207 209 196 178 165 163 168 138 116 121 125 103 103  94 113 143 136 147 137 129 126 152 163 174 177 178 179 173 167 129  58  44 193 198 175 153 145 141 162 171 164 196 202 203 202 206 207 208 209 209
 152 154 156 157 154 151 150 153 160 162 170 170 168 141 122 168 174 178 184 181 182 181 177 173 154 146 150 155 152 146 147 139 134 126 134 157 163 169 181 191 200 199 204 203 193 181 173 169 141 149 142 149 147 146 152 152 142 138 147 164 166 166 173 160 170 175 177 176 176 172 169 131  70  45 192 199 193 176 149 143 169 168 175 201 200 202 205 206 209 208 210 209
 155 156 157 159 156 153 144 149 182 148 186 151 155 149 131 175 174 184 184 181 175 178 186 182 175 150 122 114 110 114 117 123 131 148 166 169 175 173 182 192 196 201 202 198 186 185 182 179 162 139 142 136 139 147 152 161 162 173 172 168 167 174 180 180 175 173 177 180 175 173 171 140  74  68 203 192 187 173 150 154 185 166 186 201 202 203 206 207 207 208 210 212
 155 157 158 161 158 154 149 138 182 183 186 170 166 144 126 170 172 182 181 182 180 181 183 180 173 170 174 164 153 150 150 153 165 179 182 178 178 176 182 192 196 199 200 193 185 185 183 183 181 175 160 149 135 126 125 129 136 145 155 170 176 181 182 183 181 180 179 178 174 171 171 142  83 143 191 194 186 158 145 179 170 166 200 200 203 204 206 206 209 209 210 212
 149 150 152 154 152 148 143 138 189 197 183 176 163 127 117 167 171 180 182 184 180 179 181 189 186 182 179 175 177 177 177 181 188 192 188 178 177 175 184 194 199 202 202 191 181 184 185 186 184 191 189 173 166 159 151 152 157 159 168 170 172 173 176 181 179 182 181 180 174 169 171 146  67 199 187 190 168 142 173 192 157 179 203 200 201 204 206 207 208 209 210 212
 139 138 141 144 141 137 138 145 189 189 182 158 144 124 108 165 173 178 178 181 179 181 182 187 192 189 190 191 188 192 193 196 192 185 186 183 179 175 184 195 198 200 201 193 180 182 182 186 184 189 198 189 181 176 176 172 170 172 175 180 184 189 185 180 180 180 180 179 174 170 171 143 106 184 193 177 159 172 192 163 178 187 199 201 203 203 206 205 207 208 209 212
 130 130 132 132 131 130 125 134 183 190 185 158 159 164  95 166 169 177 181 178 177 181 181 187 191 193 191 193 195 196 196 192 190 194 188 184 174 176 187 194 201 203 204 193 182 178 183 184 190 194 205 206 205 196 187 188 187 186 187 189 190 189 190 189 185 180 179 182 171 174 168 147 158 187 187 139 154 183 176 175 175 200 196 204 204 205 206 207 209 210 209 212
 120 120 122 122 123 122 124 127 175 189 188 176 181 156  85 156 169 172 179 176 179 184 189 188 191 193 196 196 197 195 192 194 192 180 176 175 178 183 192 199 205 205 206 194 182 178 176 185 190 196 206 204 208 207 208 205 203 198 202 200 198 194 190 191 187 183 179 181 173 167 171 124 160 184 174 179 186 188 185 185 182 198 198 202 204 204 205 207 208 210 210 212
 123 123 124 124 124 127 136 135 153 180 190 177 175 138  82 147 172 167 175 175 183 187 189 191 194 193 191 193 195 192 189 184 168 164 173 178 184 186 190 199 202 203 202 200 188 181 177 178 175 192 207 205 206 204 203 207 203 200 202 200 198 196 192 190 185 182 182 178 173 166 169 111 153 168 185 192 191 190 190 182 189 198 200 200 204 206 207 207 208 210 211 212
 136 134 129 127 129 132 143 148 149 152 165 156 147 111  81 138 170 162 175 176 180 185 187 189 192 193 194 196 194 188 181 163 160 177 178 179 188 191 195 199 204 201 199 203 193 186 178 175 167 155 190 206 205 203 204 209 207 204 203 203 201 197 193 190 184 181 180 174 172 171 153 114 144 172 175 185 186 192 193 184 196 196 202 200 203 204 204 206 208 210 211 212
 149 142 138 132 135 138 148 160 159 155 138 113  88 111  93 144 168 162 171 173 181 183 185 187 189 191 192 187 183 175 166 163 165 182 178 181 191 191 201 202 201 201 202 197 196 180 179 180 177 150 164 194 206 206 204 207 205 203 205 202 203 197 194 188 186 182 179 174 168 163 123 114 140 175 187 182 188 190 191 178 197 198 200 202 204 205 207 209 208 210 211 212
 157 150 141 134 140 146 154 163 161 156 154 147 150 141  76 135 155 162 171 168 174 179 181 182 184 186 183 182 176 167 166 164 171 186 186 186 190 189 200 200 198 200 203 193 189 181 186 191 184 159 160 181 193 197 201 203 202 201 202 203 202 193 193 189 182 178 176 174 170 164 129  81 144 189 197 187 189 192 184 179 198 198 201 202 204 206 207 209 208 210 211 212
 161 152 144 137 142 148 156 161 160 152 148 146 147 131  92 129 157 163 164 170 178 176 179 182 184 182 179 176 165 165 173 156 162 171 172 170 174 190 200 204 201 202 205 189 184 182 191 192 184 164 157 176 182 192 202 204 202 202 204 202 205 197 192 183 176 177 172 176 175 155 130  93 147 187 188 196 190 193 178 189 197 197 201 202 205 207 207 209 208 210 211 212
 162 155 152 145 149 153 157 157 156 146 146 144 147 127  88 141 142 153 166 164 170 179 176 178 178 173 170 165 161 168 174 164 138 111 133 153 167 177 185 195 197 195 192 184 184 183 185 182 176 163 161 174 173 181 194 200 201 203 203 198 201 192 186 177 173 174 163 167 167 152 111  86 131 159 178 185 184 169 183 196 197 198 201 202 205 206 207 209 208 210 211 212
 159 153 155 153 153 157 159 159 153 144 139 144 146 114  90 135 139 151 148 148 163 175 175 177 172 173 163 159 161 166 167 167 148 131  66  82 131 150 176 174 176 178 173 172 167 169 161 143 146 171 166 168 170 173 185 193 194 197 198 200 194 192 187 181 180 172 158 165 158 151 109  91 172 134 129 141 160 185 195 198 197 198 201 202 205 206 207 209 208 210 211 212
 156 155 158 158 160 162 162 161 152 144 140 137 145 120  96 129 143 143 138 146 160 169 172 173 166 167 162 159 164 173 169 173 161 150 105  70  76 113 130 140 148 153 147 134 101  81  81 125 166 175 172 168 167 164 175 187 190 194 193 194 192 189 184 178 176 167 154 163 154 139 105  89 157 185 180 180 190 194 193 196 197 198 201 202 205 206 207 209 208 210 211 212
 155 157 160 164 165 166 164 161 152 141 140 139 148 113 116 135 128 122 136 151 158 163 166 171 170 163 158 166 171 173 179 172 163 137  90  80  72  60  75  86 105 109 103 107 113 120 153 173 167 174 174 173 169 161 168 180 186 190 190 187 185 184 178 177 173 173 160 165 149 129 107  89 160 181 181 185 192 194 193 196 198 199 200 203 205 206 206 209 208 210 211 212
 155 159 163 166 166 165 164 163 152 142 141 141 150 107 114 131 116 117 135 144 146 146 156 162 165 156 162 171 173 171 174 160 150 114  78  87  77  75  64  68  73  76 101 117  96 105 117 134 173 177 174 171 171 162 165 171 178 185 184 183 180 180 177 181 170 171 140 137 136 133 125  98 165 176 180 189 187 192 196 197 198 200 202 204 205 206 207 208 209 210 211 212
 156 161 165 166 166 165 164 162 153 145 142 138 149  97 113 131  90 118 115 142 145 147 159 164 160 158 169 163 160 164 137 136 124 116 105  99  89  80  91  94  95  82  86  91  84  80  89 118 147 163 175 177 173 171 167 165 172 176 182 182 179 181 174 172 165 178 133 140 142 141 116  96 147 186 183 184 191 193 195 196 199 200 202 203 204 206 207 208 208 209 210 211
 158 162 166 166 165 164 163 162 153 146 145 142 153 107 103 123  97 128  97 130 134 154 159 167 154 156 155 157 144 130 119 120 118 135 125 118 119 108 107 129 134  73  90  91  89  95  99 127 119 129 160 168 172 164 169 181 162 176 169 160 173 169 178 169 157 157 130 119 133 136 140  77 160 178 182 186 188 192 194 197 199 201 200 202 205 205 206 207 209 210 210 212
 160 164 165 166 163 161 160 159 151 145 144 139 147 118  96 122 117 112  92 132 118 144 155 170 153 156 138 120 115 106 113 125 143 151 141 132 135 134 117 124 152 122  86 113 119 134 117 102 113 111 141 144 151 164 164 173 166 165 174 159 156 167 167 159 161 145 144 119 142 107 126  91 183 173 187 184 189 192 195 197 198 201 201 203 205 205 207 208 207 210 210 212
 162 166 165 164 161 159 158 158 149 143 143 145 151 150  79 111 111 125  99  90 114 133 151 168 150 128 104  94  99 109 136 161 175 170 166 163 161 167 164 171 168 157 160 135 142 153 126 129 133 113 130 138 113 136 149 163 171 156 178 170 155 149 167 152 138 129 126 126 141 109 126  81 172 176 184 185 189 192 196 197 199 200 200 203 205 205 207 207 209 210 210 212
 163 165 166 163 160 157 156 156 148 145 142 144 146 153  85  99  86 114  72  98 130 121 156 169 139 101  85 115 115 124 148 138 132 129 122 121 123 121 136 153 162 160 143 155 152 155 161 164 160 151 135 121 111 126 123 151 155 161 177 162 168 133 158 142 114 112 111 128 146 131 130 107 176 186 178 185 189 191 195 196 199 202 201 203 205 206 207 206 209 210 210 211
 165 164 164 160 157 154 154 154 148 144 144 143 152 155  80  85  76  89  65  93 105 117 158 166 144 109 101 110  98  82  74  90  91  79  91  85 100 100  90  97 103 111 112 109 121 119 121 133 144 158 165 131 104 115 108 114 140 161 179 157 162 154 165 146 123  90 126 113 128 121 118 129 177 182 182 185 189 190 195 196 199 201 202 205 205 207 208 209 210 211 211 212
 167 164 161 157 153 151 150 150 143 140 144 145 153 159 115  78  75  79  96  98 107 127 157 165 159 123 118 117 115 114  92  58  50  49  33  30  31  40  46  53  63  66  62  51  50  46  55  79  95  90  94 101 103 110  94 109 133 161 177 164 153 152 151 152 130 135 108 123 137 119  98 143 179 182 183 187 189 191 195 196 199 201 201 205 205 206 208 209 210 210 211 212
 162 156 154 150 146 144 143 144 137 134 138 143 151 158 137  58  75  88 115 118  85  93 127 159 155 129 139 145 153 170 167 158 138 135 141 132 122 108  93  78  67  69  72  84  91  97 105 104 108 102 108 126 117 114 104 106 133 158 181 160 145 145 147 144 110 118 125 114 131 100  95 180 181 181 183 187 189 191 195 196 199 202 201 205 205 207 208 209 210 210 212 212
 157 149 145 142 139 138 138 138 132 132 132 142 150 156 161  84  72  89 122 108  98  84 101 154 155 146 155 164 169 174 169 169 159 153 144 148 151 154 135 139 143 147 142 151 150 153 160 151 143 152 163 165 152 151 131 125 153 163 172 158 144 131 138 132 114 107 106 109 108  93 108 185 180 181 183 186 189 191 195 196 198 201 202 203 206 208 207 209 209 209 211 211
 146 137 138 134 132 132 130 129 124 125 129 138 151 157 155 148  54  95 125 127 107  79  85 138 156 166 170 169 170 174 174 172 161 166 158 145 146 150 153 156 153 158 157 154 156 152 152 164 169 174 176 174 168 162 151 142 152 171 175 161 128 122 133 108 111 106  96 100 104  81 159 178 180 182 184 187 189 192 195 197 198 199 202 203 206 207 209 210 210 210 212 212
 134 132 129 128 129 127 130 125 117 122 129 138 152 156 157 153  69  79 104 122 108  86  92 140 151 173 181 177 170 171 175 173 169 165 155 151 140 139 144 145 141 146 147 148 145 152 173 175 178 181 181 179 176 171 164 166 166 175 163 159 138 124 143 109 121 124 104  84  81 116 175 178 180 182 183 187 189 192 195 198 198 200 201 203 206 207 209 210 210 210 212 212
 130 130 132 135 134 134 138 134 124 124 132 140 152 157 159 156 160  56  86 119 109  91 101 123 150 163 174 175 171 170 171 167 165 162 165 150 137 138 134 133 133 138 143 150 158 163 167 171 176 183 184 178 178 175 174 169 172 177 169 162 136 130 124  96  97 103 122  81  77 162 180 180 181 182 184 187 189 192 195 198 198 200 202 203 206 207 209 210 210 210 212 212
 140 142 146 146 143 141 139 140 134 135 137 142 152 156 151 159 156  73  56 105 101 111  82 134 148 167 164 174 175 169 170 167 166 158 163 160 153 142 139 133 132 133 139 145 157 166 171 170 176 183 183 184 183 176 175 179 170 175 151 141 131 139 129 123 101  76 105  74 139 180 175 178 180 182 184 186 189 192 195 197 198 200 202 204 205 206 209 210 210 210 212 212
 151 154 150 148 147 148 147 143 137 139 140 143 153 156 160 154 153 143  64  69 112 110 112 111 155 167 163 167 170 169 171 171 168 164 159 147 147 147 138 137 150 148 150 150 161 168 167 172 174 178 177 182 182 182 176 175 174 171 158 131 122 137 141 104  98  62  81 101 167 177 177 175 180 182 184 187 190 193 195 197 199 202 201 205 204 205 207 210 210 210 212 212
 157 158 157 155 155 153 150 149 143 140 143 146 153 158 156 159 151 151  72  40  75  89 114 110 134 154 173 169 170 172 170 170 173 168 160 159 142 141 121 118 123 137 148 148 153 162 168 176 176 179 182 179 179 177 176 179 177 166 155 127 119 125 141 107  92  67  68 153 178 174 180 178 180 182 184 187 192 193 196 197 200 202 201 204 205 206 208 208 210 210 212 212
 162 162 160 158 157 155 153 150 144 142 143 147 155 158 159 156 154 157 114  57  55  86 111 108 118 157 160 168 170 173 174 170 168 172 171 166 160 155 129 121 127 139 152 159 163 168 174 178 179 183 185 185 181 174 184 176 163 159 148 148 121 122 109  92  65  47 117 168 182 174 178 180 181 182 184 187 191 193 196 198 199 202 200 206 204 206 208 209 210 210 212 212
 163 159 159 160 157 153 152 148 142 142 140 145 154 159 155 161 153 156 140  94  53  43  68  93 104 126 161 176 176 171 179 176 177 175 172 168 171 158 140 127 124 152 165 174 179 182 180 178 183 186 185 182 183 174 177 169 146 148 110 117  97 123  89  63  68  75 133 165 178 176 176 180 180 181 184 186 191 193 196 198 199 202 201 204 204 205 207 209 209 210 212 212
 165 156 158 158 155 154 151 147 140 139 140 144 152 157 156 156 156 156 150 114  65  43  44  52  88  96 145 150 173 172 178 183 177 179 178 179 181 181 179 152 151 166 173 179 181 179 184 183 185 189 183 183 185 168 160 168 137 125 120 119  89  96  76  46  57  87 155 174 177 178 178 178 181 184 185 188 191 193 196 198 198 201 203 204 207 207 209 209 209 209 211 211
 166 159 159 158 155 153 149 144 138 137 138 144 153 157 157 156 157 155 154 125  86  50  42  49  60  70 113 124 165 176 175 184 186 190 185 189 189 187 191 182 177 177 183 191 194 193 185 187 190 191 182 184 192 171 138 129 126 130 113  84  90  70  47  55  91 117 168 180 178 179 178 178 181 184 185 188 190 193 195 198 200 200 203 204 207 207 209 209 209 210 210 212
 165 160 157 155 151 149 146 139 133 135 136 143 152 156 156 156 155 156 151 125 103  66  39  41  63  60  86 119 164 179 176 181 184 191 191 195 195 196 186 184 179 179 189 194 193 195 194 198 194 185 179 180 165 159 106 125 107 102  67  63  74  62  58  69 103 119 168 173 179 178 178 178 181 184 185 188 191 193 196 197 200 202 204 205 208 207 209 209 209 210 210 211
 159 157 154 152 148 145 145 138 131 133 135 143 154 156 156 157 156 155 156 136 108  87  55  51  44  62  60 109 154 153 153 174 182 188 183 190 194 188 183 188 188 190 188 185 196 192 190 186 193 184 178 183 170 161  86  88  74  65  58  63  69  71  84  81 125 130 173 181 179 177 178 177 180 184 185 188 191 193 196 197 201 200 204 206 207 207 209 208 212 210 210 211
 156 153 150 148 145 143 140 135 129 132 131 144 154 153 157 147 159 147 106 154 128  83  96  64  44  46  46  85 118 119 125 147 167 169 170 176 188 185 185 187 189 187 174 183 178 175 166 163 183 179 171 167 151 111  72  59  62  70  74  74  66  65  96  93 128 153 171 180 179 177 177 181 179 182 185 188 191 194 195 197 199 203 204 207 206 206 208 208 210 212 211 209
 149 151 147 147 144 141 138 134 128 127 136 144 156 160 148 134  70  42  35 155 138 119 107  66  51  50  46  49  81 103  86 119 143 147 170 169 171 176 178 157 176 182 153 168 143 167 118 131 151 145 149 134 110  64  52  56  64  50  66  66  69  93 109  87 134 153 172 181 182 181 176 179 180 182 185 187 191 194 195 196 200 203 204 206 206 208 209 209 211 212 211 208
 148 149 148 147 144 140 140 131 127 132 135 141 118  86  60  43  47  46 162 156 141 131 107  92  59  43  51  45  56  73  68  83 127 123 141 155 151 161 153 144 149 144 116 114 134 122 127  93 127 117 118  99  59  49  53  62  61  60  64  79 108  95 104 103 144 155 177 181 176 179 176 181 180 183 185 188 191 194 196 197 199 203 204 207 207 209 209 210 211 211 211 209
 151 151 151 149 143 141 137 135 128 126 116  71  51  51  51  45  36 137 169 164 149 133 116  99  74  67  50  42  41  51  45  69  82  95 110 134 134 142 114 128 128 119 104 125 114 105 104  87  98 105  75  53  49  54  47  51  45  73  73 106  97 103 113 128 146 163 178 194 173 183 180 183 180 183 184 188 192 193 197 196 200 203 204 207 208 209 209 211 211 211 210 209
 152 156 152 152 152 140 127 104  79  62  66  49  47  45  45  39  45 148 165 164 160 152 136 125  94  73  66  51  44  42  39  37  55  77  91 123 110 106  80 104  69  97 106 108 105  92  86  67  66  58  46  53  46  49  42  51  74 104 118 123 101 129 128 155 160 167 182 210 132  61  98 135 174 186 187 188 188 198 191 202 200 199 205 204 208 208 210 210 210 212 211 209
 160 162 157 132 100  66  67  61  60  68  52  47  49  47  39  42  50 142 158 169 163 161 154 146 133 117 107  84  61  56  48  34  37  37  72  76  87  74  70  76  72  84  85  81  76  60  44  42  38  45  50  44  50  61  75 101 100  82 117 129 138 148 151 166 167 171 178 200 205 171  31  24  38  70 116 170 198 196 195 196 199 208 200 207 207 209 210 211 209 211 211 209
 114  81  65  54  55  63  55  53  49  55  50  49  48  46  53  50  51 126 165 165 165 162 159 153 152 138 125 119 110  88  63  52  39  39  31  46  44  51  54  61  53  63  62  50  42  35  33  30  47  56  55  81  85 121 109 110 125 146 153 154 152 159 171 164 166 172 178 196 198 203 202  73  29  36  45  41  61 112 163 199 203 195 207 201 208 209 210 210 210 211 209 208
  57  64  56  59  58  58  49  43  39  53  49  47  44  48  50  52  57 110 163 167 165 167 164 158 156 153 153 145 127 120 116  77  70  53  47  35  36  41  44  33  40  40  42  37  37  52  65  74  79  89 102 112 126 142 143 159 175 155 147 163 168 171 168 173 172 176 177 192 200 206 202 209 130  24  28  50  54  62  46  62 134 192 200 209 207 210 210 210 209 209 209 207
  49  55  52  47  45  42  43  48  44  49  52  50  50  46  58  48  56  54 150 168 175 156 162 161 157 154 152 149 152 142 120 110  93  74  72  67  66  66  51  47  47  51  58  73  81  96  93  95 122 137 140 152 173 168 167 168 168 169 175 170 174 174 172 172 174 174 178 184 201 205 203 203 203 155  46  46  56  52  60  66  64  76 181 209 209 208 209 204 209 202 214 200
  51  46  48  40  39  41  42  40  42  40  51  45  48  50  43  52  43  49  46  94 183 157 157 153 156 153 145 143 142 146 150 142 123 101  92  79  77  74  75  71  79  89  98 106 116 127 130 147 143 156 163 153 164 171 174 177 179 181 178 175 176 176 178 175 173 173 176 182 196 202 205 205 204 196 113  44  56  53  63  46  47  63  63 175 209 210 202 206 206 211 207 197
