P2
# Generated by OpenCV 4.2.0
92 112
255
  86  94  97  94  93  93  91  91  90  91  93  93  97 100 102 103 105 107 105 114  88  53  55  75  75  51  39  41  47  47  49  46  35  40  32  32  35  40  36  62  76  57  53  47  41  52  45  49  52  41  26  41  67  70  44  25  45  62  70  63  37  50  50  58  42  29  78  83 103 143 115  63  55 103  51  59 138 197 199 197 200 201 201 200 201 201 202 202 202 202 202 202
  79  88  93  94  95  97  96  96  95  95  97  97  99 100 102 104 106 107 111 109  36  84  41  52  56  42  57  43  23  25  35  25  23  45  38  40  32  30  53  84  67  48  45  48  68  73  59  82  91  85  73  73  55  38  57  67  88  84  74  53  49  48  53  42  58  48  16  64  93  66 123 146  46  51  63  50 131 194 201 198 201 201 200 201 201 201 202 202 202 202 202 202
  75  80  88  89  93  95  97  96  97  97  98  99 102 104 104 107 107 110 113  72  42  50  52  59  62  67  48  49  45  46  28  40  42  35  28  24  33  42  66  70  56  62  69  92 106  96  99  83  83  78  81  64  60  69  74  76  66  70  56  40  34  34  29  33  40  39  58  37  44  70  79  48  47  48  55  68 117 161 212 201 197 195 206 195 201 201 202 202 202 202 202 202
  79  79  80  84  85  88  90  95  96  98  99 100  99 103 105 108  90  67  43  39  59  55  68  51  49  51  56  50  40  32  44  42  42  43  49  61  65  64  52  47  59  63  76  78  84  84  65  70  79  82  74  78  72  56  40  43  42  31  39  38  38  44  45  33  19  23  64  58  41  34  41  46  40  48  46  40  49  57 104 174 200 198 201 197 201 201 202 202 202 202 202 202
  96  93  88  87  84  84  86  88  89  92  93  97 101 103  83  50  72  58  41  49  56  41  41  40  49  49  47  41  44  43  48  50  60  63  52  46  47  47  47  55  60  75  61  48  53  60  77  86  83  66  55  53  45  53  63  55  48  55  73  64  40  29  27  35  40  32  29  50  58  54  49  55  56  51  46  57  78  80  56  67 101 195 197 203 200 201 202 202 202 202 202 202
 133 127 120 115 109 104 103  99 100 101 103 103 115  70  47  66 115  75  61  51  30  47  50  35  37  34  36  47  54  53  60  58  44  45  44  50  49  43  38  40  46  51  50  72  86  80  68  56  40  48  56  59  65  65  77  67  69  76  73  72  66  63  59  45  42  41  57  65  50  50  57  64  91  91  55  51  73  73  85  80  63  81 194 195 199 201 202 200 202 202 202 202
 163 158 154 149 145 141 138 134 134 133 133 129 119  40  69 125 101  71  42  39  54  34  34  39  29  51  55  44  52  41  42  39  41  49  53  39  33  35  34  31  32  32  34  41  41  42  55  71  88  82  74  71  62  61  61  69  58  49  49  42  42  47  44  39  52  45  58  70  67  63  64  55  56  76  55  53  79  95  81  60  87  66  89 205 196 203 198 202 202 202 202 202
 179 178 177 175 172 169 169 167 164 162 162 168  66 102 160  83  63  49  39  40  43  21  42  51  47  37  31  39  21  29  40  49  49  48  44  45  35  30  33  32  36  33  29  28  31  27  39  38  35  50  52  60  73  59  47  53  51  50  49  55  57  51  47  32  47  52  37  31  30  29  47  55  50  48  45  49  34  72  63  93  76  72  46 136 204 195 202 201 202 202 202 202
 185 184 184 186 184 184 184 181 180 179 179 166  31 192 119  52  68  28  29  60  25  31  41  35  33  32  35  28  48  60  46  43  42  48  37  26  39  43  35  35  40  42  40  35  32  37  45  53  37  26  35  48  37  35  49  57  52  53  39  41  37  39  38  44  26  23  11  17  33  30  33  42  49  51  49  40  52  60  72  92  70  82  63  74 184 195 201 201 202 202 202 202
 186 186 186 186 186 186 186 183 191 178 190  62  81  93  39  53  50  27  57  44  22  30  50  52  44  47  39  46  39  56  50  31  30  35  39  37  36  32  33  51  45  38  36  53  64  65  75  85  79  88  63  35  37  46  54  51  31  32  31  37  37  37  35  20  22  26  25  31  29  32  33  42  49  59  40  38  44  62  64  50  69  60  76  48 127 212 196 199 202 202 202 202
 187 187 186 186 186 187 186 184 184 194 198  43  78  37  55  54  45  40  60  28  30  57  49  52  43  49  33  41  61  37  38  37  41  31  22  26  33  27  34  39  36  48  58  60  64  64  65  72  79  75  82  80  66  45  33  43  54  48  42  38  34  29  27  30  41  41  29  19  21  48  66  36  36  35  50  39  45  52  63  68  67  60  66  69 102 195 203 199 202 202 202 201
 187 187 187 187 187 187 186 186 185 178 138  65  34  83  50  57  38  39  39  36  52  53  48  38  51  29  49  46  48  51  38  34  22  30  53  44  48  54  57  53  54  62  55  52  52  63  75  76  68  60  70  61  60  61  60  50  29  36  35  32  33  35  43  46  47  47  59  43  49  43  50  27  39  38  45  44  50  53  53  65  56  59  52  69  73 182 194 203 202 202 202 202
 185 186 186 186 187 186 187 186 183 191  68  72  85  47  55  58  36  47  36  45  41  36  41  56  31  43  43  50  36  27  43  34  34  46  35  29  52  52  58  55  60  64  61  61  61  62  64  58  63  60  45  41  48  34  26  37  44  48  51  46  50  55  41  59  63  42  67  45  42  44  83  40  37  32  37  37  44  77  46  40  42  47  57  49  72 144 203 199 202 200 202 202
 191 189 188 186 187 186 188 188 182 109  76  32  83  58  52  59  33  48  37  43  25  58  62  38  47  51  38  40  41  41  44  30  59  38  44  41  42  37  51  49  39  42  41  52  44  48  56  67  69  84  89  60  60  47  41  34  26  30  26  34  38  40  48  45  42  48  53  61  59  43  57  43  31  39  33  39  40  70  71  36  55  58  58  64  49  84 212 198 201 203 200 201
 202 199 197 196 196 194 193 189 191 113  66  55  58  65  50  44  44  50  40  51  61  46  22  51  40  46  47  40  42  46  44  52  40  38  34  45  46  69  54  49  46  40  36  35  32  36  43  55  62  65  53  62  51  44  31  28  34  30  33  35  37  39  49  47  40  43  45  49  48  53  52  56  43  49  25  42  43  51  68  64  45  27  68  80  65  52 166 198 199 201 202 202
 216 214 214 212 210 209 207 218  87 100  71  58  62  72  56  38  45  37  54  43  38  33  60  39  48  44  41  46  37  36  52  41  41  16  48  59  75  49  46  37  43  31  13  16  19  22  29  42  50  61  70  60  52  38  50  45  34  28  27  30  31  39  28  38  57  55  54  55  62  43  46  35  42  40  36  30  36  45  61  71  50  67  24  71  88  61  88 209 200 201 200 203
 215 217 219 223 222 220 221 207 100 124  70  51  50  57  51  52  44  50  32  26  34  47  41  52  41  43  40  34  27  46  57  30  29  43  64  58  51  39  40  40  36  21  26  27  36  48  46  42  38  51  68  67  54  58  41  28  29  27  24  28  31  30  45  47  35  37  44  41  49  62  40  40  46  44  27  34  53  33  59  62  51  48  56  47  78  62  52 194 202 198 199 201
 199 204 209 219 219 224 228 124 127  82  62  42  55  50  55  39  43  22  26  38  50  48  49  41  38  28  30  23  53  64  49  37  68  69  49  46  42  47  47  31  14  22  25  50  38  18  33  32  30  33  38  76  69  43  46  47  38  37  39  38  47  40  44  42  41  51  58  65  74  57  53  44  44  39  57  37  34  42  53  61  50  50  37  39  69  77  42 159 200 202 199 201
 164 176 190 200 210 220 232 107 111  57  54  41  49  55  61  50  45  36  42  50  56  45  31  24  22  37  33  48  52  39  42  54  47  49  43  47  50  46  30  19  27  52  50  43  43  42  47  39  35  18  24  16  66  68  59  44  46  40  59  62  82  84  82  77  71  58  45  32  46  56  55  48  51  50  41  29  34  50  56  68  46  47  43  50  69  67  63 118 201 200 199 201
 133 142 154 177 203 215 223  97  62  63  56  48  47  55  38  37  39  43  47  41  27  22  24  35  41  31  50  47  41  41  54  44  53  44  43  46  52  42  35  37  53  48  51  50  52  47  31  16  17  27  17  24  11  50  63  41  43  50  69  58  71  79  82  78  64  58  44  49  48  37  39  31  26  25  40  32  25  42  40  57  60  50  30  57  69  55  52  94 203 199 200 202
 145 145 152 167 197 213 226 145  59  63  53  53  34  38  41  30  30  30  29  24  34  43  38  53  37  39  47  29  40  43  36  70  33  51  33  45  38  34  45  52  52  39  48  48  26  28  28  31  32  13  29  28  21  29  59  50  29  55  41  28  18  35  29  30  36  57  58  53  52  41  25  18  30  42  64  52  36  46  38  50  67  51  32  43  51  57  53  75 204 197 201 202
 155 154 158 172 193 217 220 130  57  57  49  59  28  33  38  38  38  48  39  39  44  35  54  44  31  36  23  34  36  39  59  39  67  47  54  41  29  39  53  40  44  52  53  34  31  34  32  40  29  32  34  21  27  34  17  74  63  36  28  29  26  39  34  35  36  31  48  53  46  34  25  23  20  39  66  28  37  67  41  55  75  53  38  42  53  46  60  49 208 200 199 201
 167 161 164 177 204 208 239  98  39  52  58  62  30  36  38  48  54  45  40  40  45  48  34  28  34  29  39  32  38  33  34  35  53  49  26  41  39  40  51  60  46  50  44  35  47  43  42  33  33  34  26  32  34  25  43  62  64  49  39  42  44  54  55  47  27  25  27  33  41  37  27  16  15  45  55  39  58  44  29  47  53  49  50  26  44  49  55  32 189 197 200 201
 173 171 170 185 194 217 208  78  55  49  61  54  44  46  45  48  53  51  46  37  27  32  30  30  35  29  12  25  13  26  34  32  29  43  49  41  53  58  38  40  58  52  53  57  40  41  41  45  42  51  50  41  39  49  57  47  54  50  45  29  25  46  42  26  42  43  30  15  30  33  27  25  13  41  51  60  44  15  26  41  55  57  42  42  32  54  51  45 159 201 199 201
 176 177 178 188 205 210 224  62  56  63  53  43  36  31  36  39  33  43  35  33  27  28  32  33  26  27  33  30  39  48  46  40  41  40  28  53  31  39  46  43  40  37  41  40  54  47  47  49  62  63  62  65  58  50  40  33  41  55  54  41  27  33  35  26  28  23  22  29  24  24  19  20  22  39  51  69  38  24  17  40  54  48  49  39  33  52  60  64 136 205 196 201
 174 177 178 187 210 217 220  45  64  39  38  48  46  37  25  28  17  34  21  35  40  30  32  29  26  40  40  44  56  50  36  25  31  46  38  44  51  45  45  41  44  46  47  43  42  45  46  42  44  45  32  36  42  33  34  35  34  28  49  48  47  41  41  43  34  35  22  31  33  29  35  39  24  26  46  77  40  24  26  46  34  47  46  30  37  53  59  65 142 202 196 201
 176 176 179 189 202 221 219  42  43  46  35  35  40  34  28  22  43  32  54  47  37  37  26  23  19  28  43  37  27  34  28  43  49  41  51  43  50  53  59  68  61  52  53  52  48  44  44  42  42  46  46  43  40  40  33  34  44  54  45  51  50  43  53  44  36  39  27  38  31  14  30  46  30  27  63  66  54  21  20  48  41  48  48  27  31  60  63  68 159 201 199 200
 176 177 178 187 204 220 113  48  31  29  32  34  28  19  38  48  32  39  41  62  55  46  44  47  43  35  29  36  41  37  44  47  47  51  46  51  57  53  54  54  59  54  47  49  54  52  51  48  46  42  53  59  64  58  58  53  44  42  41  45  42  46  50  46  33  35  39  41  23  44  30  55  47  55  70  36  72  22  24  57  34  47  47  32  33  58  53  69 160 200 199 201
 179 178 179 189 204 222  67  45  39  33  40  26  27  30  38  31  46  36  38  31  53  49  42  34  31  40  41  40  32  30  38  36  43  40  45  43  44  41  46  51  51  48  48  56  63  63  61  60  66  71  60  68  57  57  55  50  55  53  51  38  45  42  44  45  41  39  43  35  64  30  48  56  59  64  53  32  61  21  29  45  34  53  46  34  31  67  44  68 148 202 200 199
 182 180 180 188 208 225 121  40  31  31  21  44  40  31  32  32  36  51  47  27  27  25  24  31  37  39  33  35  40  41  23  25  27  22  35  40  50  54  52  51  57  58  63  66  70  58  59  62  63  70  60  67  65  62  67  58  48  54  59  62  53  47  34  34  38  43  32  42  27  42  43  61  72  48  64  50  41  23  39  44  35  56  52  39  48  60  55  70 119 202 199 201
 186 182 182 187 200 218  46  44  25  30  42  44  28  35  47  33  34  46  42  47  34  29  31  37  38  35  38  38  39  40  45  41  36  30  33  45  51  43  28  38  46  41  47  48  57  61  66  67  72  78  70  55  63  54  71  73  82  87  95  80  66  48  36  42  46  35  44  41  46  62  90  65  60  63  56  61  36  36  45  44  47  58  53  53  49  50  57  93  76 202 198 201
 188 186 186 192 210 221  84  46  41  32  46  32  24  32  40  39  34  42  33  42  42  44  47  44  41  40  48  41  41  40  39  34  40  46  57  49  44  45  65  66  57  47  49  54  61  69  70  66  79  80  83  81  62  73 110 136 126 138 126 116  69  61  61  62  51  42  46  46  55  76  67  50  74  47  70  73  36  41  41  39  48  60  40  55  47  41  66 182 144 198 202 201
 189 189 185 183 206 149  29  77  38  49  32  26  27  49  31  30  31  27  46  40  37  36  33  34  40  38  39  40  39  29  41  49  47  52  55  69  77  68  56  54  68  68  70  77  83  83  83  87 108 109 117 126 129  92  59  87 125 123 105  62  66  68  64  55  59  38  35  73  83  65  38  55  57  43  61  72  56  44  45  37  39  54  42  49  50  40  94 192 178 205 195 201
 186 190 190 195 197  56  58  64  41  25  27  40  38  32  20  42  17  62  40  47  39  32  28  37  44  31  33  28  36  48  59  60  60  70  66  52  53  51  65  73  79  91 107 118 128 139 142 169 156 155 157 152 142 142 154 155 140 112 103 113 103  94  76  66  37  55  63  99  74  60  53  74  54  50  77  53  38  65  56  43  48  53  44  49  47  48 132 195 196 202 199 201
 190 189 188 186 202  71  46  34  34  29  36  48  33  24  16  25  71  33  53  39  51  48  43  40  42  42  47  46  42  41  36  44  48  51  49  42  57  69  73  86 111 133 143 162 166 147 178 179 180 181 182 175 166 156 144 140 140 143 129 141 134 111  96  72  76  44  83  81  57  47  76  64  50  54  71  56  54  54  55  40  49  47  49  51  39  60 204 197 204 197 201 201
 193 186 189 190 182 206  37  38  42  39  34  37  35  32  30  34  42  71  60  65  49  46  48  29  17  32  30  36  43  47  48  49  51  48  64  70  85  88 114 140 149 159 170 170 162 173 180 177 181 180 180 183 183 185 179 176 181 165 169 165 136 113 103 100  72  67  57  78  53  57  85  55  52  34  84  56  45  64  51  40  61  42  52  57  48  72 199 200 195 202 199 201
 183 194 194 192 187 196 127  35  36  39  39  41  38  42  48  52  62  55  49  71  73  77  67  48  58  60  58  53  47  63  61  73  66  75  73  91 105 137 135 145 156 156 163 172 175 178 183 182 186 185 186 188 191 196 196 192 184 179 181 160 156 125  95 112  97  57  49  59  43  71  58  48  28  41  71  75  56  68  54  46  54  48  39  58  61  87 205 201 200 197 197 200
 174 181 190 185 181 115  76  55  52  44  44  39  49  30  32  43  50  51  54  45  53  43  44  54  62  63  64  58  62  61  69  78  80  79  80 126 149 148 154 167 166 170 170 181 187 181 185 180 181 185 187 192 197 194 195 195 190 186 174 154 136 126 125 128  76  80  55  47  58  47  53  42  57  46  48  74  59  72  59  50  56  47  46  49  65  83 198 200 199 200 200 199
  96 168 118 104  82  80  75  53  57  58  59  55  47  38  52  37  23  36  38  50  31  46  50  54  40  43  43  78  87  91  82  81  81  87 122 141 144 144 154 158 163 169 180 179 178 184 188 190 193 191 188 185 184 188 187 189 185 181 175 176 171 146 164 145  81 113  77  37  51  48  36  53  48  54  43  69  80  62  65  49  62  52  59  47  63  75 192 198 200 198 199 200
 113  74  68  58  62  57  52  52  57  57  36  26  20  19  15  26  34  31  34  36  50  61  48  49  61  86 107  82  71  74  83  94 105 133 141 151 149 156 160 165 172 173 180 183 192 197 194 190 196 198 197 193 193 191 188 186 181 181 188 175 177 158 169 132 125 140 108  47  51  49  56  48  47  42  45  52  72  58  68  63  71  61  74  61  64  70 187 197 200 200 199 199
  71  52  52  92 113  65  58  43  51  67  45  36  32  33  32  33  42  38  40  41  50  52  71  86 100  73  61  62  73  95 100 114 138 146 153 154 150 161 162 165 175 185 188 191 190 190 196 199 197 201 192 198 196 199 194 192 187 186 184 184 174 169 169 140 142 137 101  53  56  57  50  25  43  35  44  55  52  66  60  59  65  53  66  61  64  76 169 200 201 201 203 201
 193 123  46  46  59  57  75 146 134  71  52  45  35  36  37  37  47  43  52  60  75  88  74  70  64  60  57  80 108 109 131 148 153 153 154 156 161 166 167 173 181 188 189 190 193 198 201 202 200 198 194 200 199 197 195 197 196 193 191 185 179 177 169 171 151 117  79  86  72  48  43  37  30  27  44  45  44  52  84  56  61  59  62  65  71  74 185 196 199 199 199 200
 191 186 184 180 188 192 192 186 139  66  59  56  46  52  60  64  65  62  62  71  67  64  65  62  63  82 101  98 103 133 146 147 155 156 162 167 165 172 181 189 189 190 192 195 199 201 200 197 198 198 198 201 200 198 197 197 195 195 198 192 181 183 171 166 146 138 131 138 100  70  36  37  23  24  43  54  36  60  63  67  60  61  61  68  77  75 177 197 201 202 200 200
 189 192 188 189 189 187 188 181  73  46  46  55  50  62  72  50  42  45  62  57  49  59  69  80  97 103 115 137 134 141 146 165 164 161 172 170 172 193 193 190 195 194 195 197 195 197 196 198 200 203 206 203 204 200 200 201 202 198 193 196 184 181 174 168 176 170 153 160 124  84  54  33  20  31  37  49  43  59  50  62  54  53  58  68  70  94 187 191 198 201 199 201
 200 193 189 188 189 185 188 141  68  43  52  48  69  63  58  52  54  58  59  61  60  70  78 105  93 130 161 148 138 139 159 160 171 172 168 182 190 196 198 198 196 200 199 200 202 201 204 207 204 204 204 204 204 202 203 201 202 199 196 194 191 188 186 179 174 176 165 153 142  99  72  50  39  36  44  47  50  56  49  57  52  53  56  63  76 112 188 187 197 196 199 200
 211 204 195 191 193 190 188  93  62  71  58  53  58  50  49  61  69  65  77  80  89  96 101 107 129 135 142 135 146 156 159 163 160 174 190 197 198 202 200 198 197 196 198 200 202 201 204 206 204 209 207 203 201 203 202 202 202 197 196 197 193 191 187 182 177 171 173 166 154 122  91  58  51  48  51  50  46  51  48  51  50  52  55  61  67 122 168 186 198 191 197 200
 214 212 205 195 189 180 127  56  77  51  58  50  44  46  49  92 103  92  94  93 105 122 131 128 155 162 143 151 142 148 150 162 189 196 194 201 198 196 199 200 199 199 200 201 201 202 203 205 205 203 204 205 206 202 202 202 202 202 199 199 197 195 189 185 181 174 166 169 169 165 146  93  57  50  50  53  47  49  48  49  51  58  51  63  92 163 173 187 181 177 195 200
 213 214 213 212 196 173 104  90  74  54  51  41  45  42  61 128 102 103 104 119 141 125 122 151 165 154 144 143 148 149 164 192 190 190 194 196 196 197 197 200 200 200 197 196 196 202 203 204 205 207 204 204 201 198 199 197 196 197 189 185 181 187 189 188 180 178 180 173 169 174 173 148 105  50  48  44  47  47  47  45  47  58  59  67 156 164 173 170 168 165 189 200
 215 215 213 209 206 172 151 121  76  54  50  46  40  52  88 149 108 112 113 124 125 127 134 129 129 127 134 146 146 171 187 189 187 190 190 193 195 195 196 197 196 194 193 194 195 195 201 201 201 192 202 188 193 188 179 174 175 174 161 164 161 154 154 182 189 180 177 175 173 179 176 174 156  96  52  51  44  48  51  36  54  61  48 143 168 169 160 152 103 120 190 199
 215 214 213 215 208 175 105 128 118  52  42  42  48  51 120 146 125 124 117 123 104  96  92  92  89  98 110 119 130 152 168 183 184 185 187 189 190 190 194 194 194 192 190 191 192 191 195 193 189 190 174 153 137 132 126 120 122 131 139 145 141 145 149 137 158 176 183 176 172 177 177 177 172 123  63  47  46  52  51  38  53  56 126 165 162 139 121  69  84 143 195 199
 215 215 213 212 217 185 130  58  96  94  51  47  51  47 141 141 151 138 106  93  74  66  74  81  78  77  83  79  92  97 103 138 164 180 176 180 183 185 187 185 186 184 185 186 185 181 180 171 154 129 102  97  93  87  87  91  97 120 128 130 128 131 128 135 142 150 170 175 175 179 177 178 175 144  71  45  44  51  50  48  49  82 184 154 132 167 141 120 111 160 196 199
 215 215 213 215 213 199 142  70  77 107  50  49  51  55 157 146 149 126 111 111 103 113 130 141 142 124 110  94  88  95 100 114 126 149 162 170 175 179 181 177 177 177 176 180 173 170 160 135 108 109 109 120 118 124 126 142 151 158 161 166 162 164 164 159 147 145 152 175 174 177 177 180 174 159  84  48  42  54  52  53  59 177 161 156 172 177 157 123 135 177 199 200
 217 215 214 215 215 208 158  86  88 149  81  45  40  68 155 141 142 127 125 142 158 146 158 154 153 148 142 131 117 101  96  99 111 120 138 156 165 171 169 169 173 173 169 167 159 148 142 134 134 130 135 130 126 136 137 145 149 153 161 165 169 170 168 174 175 164 162 167 172 174 176 177 173 157  87  54  47  50  56  70 133 164 194 194 182 179 160 126 145 183 201 199
 215 215 214 212 212 216 182 103  96 155 156  55  41  67 141 160 154 143 151 152 151 147 153 144 145 150 139 132 120 103 102 103 107 120 126 135 150 163 163 167 172 170 162 159 154 148 144 138 133 126 118 116 122 126 133 135 137 143 151 155 155 158 164 169 173 172 170 170 173 174 175 176 173 159  94  56  53  49  60  77 170 142 186 189 177 181 168 134 162 190 200 200
 216 215 214 214 212 216 203 129  99 164 152  90  55  82 166 152 155 157 152 147 146 142 134 140 128 112  96  90  85  82  92  93  93  96 105 117 133 146 152 164 173 171 159 154 150 148 141 130 122 111  93  80  71  88  95 109 114  95 107 126 143 147 147 147 154 161 170 173 173 174 173 174 171 157  96  54  44  52  68 150 147  84 135 151 166 174 170 144 180 193 197 199
 217 215 213 216 213 215 215 163 126 156 144  97  67  76 156 150 163 169 151 133 135 128 114  68 104 133 126 109 121 131 108  70  71  94  85 103 109 138 152 168 184 178 169 161 154 146 135 122 122 111 104 123 101  67  55  58  52  88 125 142  88 103 138 148 142 144 161 171 177 173 170 173 170 159 102  53  45  61 141 150 136 125 139 150 155 175 173 159 183 196 198 200
 218 216 214 215 214 214 214 189 147 161 138 115  52  78 161 167 169 156 157 147 130  92  77 112  61  53  66  59  47  65  66 110 114  83  93  83  96 126 162 181 190 191 191 182 167 147 134 137 123 106 111  77  56  87  61 101  90  71  64  70  95 141 108 150 158 153 160 170 172 174 176 173 167 163 111  64  38  67 176 184 148 140 154 146 149 170 162 173 191 199 200 201
 217 216 214 216 213 215 214 205 165 168 142 122  55  73 170 166 171 178 171 154 127  92  67  58 101  92  93  45  22  73  88 107  93 112 113  91  84 124 174 192 198 202 204 196 173 151 147 143 133 116  73 107  75  65  23  30  80  75 121 106  96  82 120 147 158 158 159 175 185 181 178 175 173 167 116  61  49  77 206 198 186 164 143 139 151 179 161 186 197 200 199 200
 218 214 214 216 214 214 213 209 179 162 142 126  69  68 165 173 180 149 136 133 137 126 135 111 132  99 100  70  72 108 112 152 142  84 111 150 149 146 182 199 205 208 211 202 186 172 162 152 139  95  92 115  78  93  78  84 110 125 138 146 172 161 149 131 144 154 164 165 175 175 176 172 171 165 122  72  51 119 202 195 192 189 159 140 155 181 176 191 200 200 199 200
 218 217 215 214 214 214 214 215 191 162 147 154  89  84 168 167 164 166 172 164 166 166 175 163 135 133 148 129 125 133 146 152 119 118 127 171 161 151 191 197 211 208 210 207 190 175 164 169 158 131 123 126 154 164 156 148 149 163 177 181 188 170 170 179 173 178 174 171 176 176 177 174 174 166 125  75  49 168 202 195 193 180 147 146 178 176 186 199 199 200 200 200
 218 217 216 215 214 215 215 217 200 166 152 166 124  77 161 173 177 184 182 189 181 173 166 172 176 153 136 137 137 150 149 166 168 172 179 158 160 171 194 200 208 206 210 206 194 178 176 166 146 147 152 146 150 150 152 163 171 176 175 169 169 177 185 190 187 184 182 184 184 180 178 173 173 169 131  82  89 197 192 193 189 165 137 162 193 167 200 200 201 201 201 201
 218 217 214 214 215 214 214 214 207 172 162 159 162  66 165 177 176 167 176 190 181 176 157 147 159 164 175 164 163 157 149 138 130 130 143 156 164 178 188 198 201 201 205 201 192 186 183 182 168 148 151 159 144 130 126 127 129 134 146 157 163 166 159 152 173 188 188 180 181 176 177 176 176 163 139  74 152 187 195 193 182 153 158 195 177 182 195 201 201 201 201 201
 218 217 215 214 215 214 214 214 212 175 173 139 178  72 166 168 168 174 178 160 180 183 177 168 136 122 124 132 124 120 119 112 127 156 165 174 169 173 187 199 200 203 207 199 192 190 190 187 192 195 185 157 136 140 139 144 148 151 159 155 163 159 176 190 182 171 178 183 183 178 177 176 174 166 140 108 178 190 187 194 157 167 190 188 163 198 202 198 201 201 201 201
 218 216 217 215 214 215 213 213 213 173 171 183 176 125 162 169 169 176 160 189 175 171 170 147 135 124 115 110 115 116 116 133 163 178 180 173 171 178 190 196 199 202 204 191 187 190 187 186 187 190 187 187 179 166 154 144 147 149 152 158 168 191 188 188 190 192 180 182 182 184 176 178 173 168 138 127 180 194 189 177 152 183 197 174 180 199 199 201 201 201 200 201
 218 217 217 214 215 215 214 215 213 175 165 184 165 133 148 164 173 163 178 169 180 195 201 197 189 182 169 159 152 147 162 182 188 188 180 175 176 174 190 199 199 203 205 192 187 191 191 200 197 196 198 201 202 197 189 186 188 193 202 202 202 202 206 205 190 190 186 183 180 183 178 173 173 166 122 114 178 186 186 177 191 199 199 190 188 201 199 202 201 201 201 201
 218 217 217 214 215 215 215 213 212 179 185 188 174 125 139 163 169 171 174 173 188 189 202 206 203 198 197 195 191 193 191 193 188 187 184 177 176 174 189 198 199 204 204 193 186 186 193 200 201 202 203 201 202 208 206 206 206 205 204 207 207 207 202 202 193 189 184 184 183 183 181 174 172 161 124  93 166 185 176 188 196 195 201 192 187 199 200 201 201 201 201 201
 218 217 217 214 214 215 213 216 209 193 178 181 159 122 119 164 170 178 168 180 188 189 197 198 202 200 197 201 194 192 194 187 190 187 188 179 174 180 190 198 202 208 205 195 184 180 191 185 186 194 203 204 205 203 205 207 203 205 204 206 201 209 206 203 197 189 188 182 181 178 179 173 173 146 136  90 165 179 178 182 191 200 199 196 192 202 199 200 200 200 200 200
 215 216 216 214 214 214 214 217 211 193 175 169 161 149  99 167 166 175 172 184 190 193 197 200 201 200 197 197 194 192 191 190 180 178 176 174 176 181 191 203 205 208 204 195 188 184 184 184 172 161 179 199 207 203 200 200 205 204 203 204 204 206 206 200 197 191 187 185 185 186 180 178 168 136 118  84 158 184 186 184 190 196 194 192 193 201 198 203 201 201 201 201
 217 216 216 214 214 215 215 215 209 189 178 174 180 155  93 162 169 173 179 189 191 191 199 198 195 197 198 198 189 186 186 176 166 165 174 178 183 188 195 205 205 204 204 201 195 188 185 185 180 161 158 181 193 199 201 199 200 204 198 201 205 206 208 205 202 193 185 183 182 182 177 180 168 145 110  82 153 189 187 193 192 191 191 188 193 201 201 200 201 201 201 201
 217 217 217 214 214 215 214 214 206 185 179 182 178 177  84 160 171 175 183 190 189 190 196 199 200 201 197 194 186 179 168 157 165 175 173 179 186 191 199 205 203 203 206 205 197 189 188 191 187 172 159 169 177 185 191 195 199 201 200 203 207 204 208 209 202 189 178 179 175 178 177 179 165 139 118  87 139 181 189 196 193 191 192 187 196 200 202 201 201 201 201 201
 217 216 217 214 214 215 215 214 207 182 181 178 174 142  87 156 166 173 180 190 188 189 194 196 198 195 192 179 177 163 157 156 173 179 177 183 189 193 201 205 203 202 205 205 195 188 190 195 191 189 157 172 172 170 179 187 195 198 202 206 207 206 206 204 198 193 187 182 181 175 171 177 167 136 111  87 145 134 173 190 192 191 184 181 200 199 202 200 201 201 201 201
 218 217 214 215 214 214 214 211 211 183 146 152 140 110  79 156 163 173 179 182 186 188 185 191 187 185 182 172 160 157 167 150 178 183 182 184 189 195 198 199 200 203 206 200 192 188 200 201 196 182 160 161 171 163 165 177 181 190 196 198 201 202 205 203 197 191 184 183 180 162 167 167 162 130 111  96 144 186 140 147 158 160 179 207 200 199 200 199 201 201 201 201
 217 216 215 215 214 212 213 212 203 202 176 140 112 106  92 149 164 171 176 181 183 184 184 185 186 184 171 155 148 162 160 151 183 182 183 181 186 193 202 200 200 206 203 193 190 191 203 199 187 184 160 155 167 166 154 155 172 178 188 190 192 194 198 195 192 189 182 183 178 166 162 164 157 130 113 102 139 198 205 201 201 207 205 195 200 200 200 201 201 201 201 201
 217 216 215 215 213 212 212 209 203 197 184 170 151 131  89 148 158 162 173 180 177 176 182 171 171 161 147 133 150 164 159 137 147 169 169 172 181 188 198 199 198 202 203 189 185 187 192 181 163 150 157 163 160 166 162 139 149 161 175 181 184 187 187 187 186 185 182 183 177 179 157 153 141 131 121 107 141 202 203 198 198 200 202 201 200 200 200 201 201 201 201 201
 218 216 215 214 213 212 209 205 200 195 184 169 152 129  97 146 145 153 167 169 171 171 173 169 155 137 114 118 147 153 154 138 122  91 129 158 166 182 188 188 190 191 187 177 174 180 152  97  94 154 167 167 166 160 164 149 126 141 159 174 174 182 180 182 180 179 176 188 180 179 148 144 143 135 143 128 134 206 200 203 201 199 203 200 200 200 200 201 201 201 201 201
 217 215 216 212 213 211 206 199 194 187 178 168 149 117  93 138 138 141 163 165 163 162 157 149 129  99 104 121 157 156 159 144 145 110  72  97 145 159 174 174 175 172 165 163 146 125 127 142 169 175 171 168 167 163 158 160 143 110 128 151 167 171 169 175 173 175 180 182 173 180 145 132 151 161 139 119 121 202 202 200 202 201 202 202 201 201 200 201 202 202 202 202
 215 215 213 210 210 207 203 196 189 182 175 165 146 117 111 144 116 147 149 157 157 151 141 125  90  99 103 141 156 158 170 150 124 113  82  62  67 123 135 138 144 147 140 127 122 108 132 132 141 145 167 160 163 164 153 159 156 141 103 107 147 163 168 172 171 163 168 179 167 157 160 109 153 134 148 120 126 204 203 200 202 201 202 201 201 201 201 201 202 202 202 202
 216 214 212 209 209 205 200 194 186 180 173 157 143 117 110  98 129 135 144 139 145 141 121  87  84 101 119 154 151 151 142 134 111  88  75  83  75  49  74  86 101 105 100 111 113 103  96 109 105 121 144 142 146 155 156 154 157 146 141 110  95 142 163 157 155 149 154 163 159 169 141 132 144 132 125 136 129 206 202 199 201 202 202 201 201 201 201 199 202 202 202 202
 215 211 208 208 205 203 196 191 181 177 170 158 145 115 107 104 112 122 138 142 136 128 114  70 100  88 121 138 121 126 128 118 114 100  88  86  62  72  57  62  77  83  88 102  89  92  96  86  97 127 120 127 119 137 149 151 134 149 145 142 129  93 147 174 169 151 121 159 157 132 111 151 139 136 128 121 106 201 203 201 202 202 202 201 201 201 201 200 201 201 201 201
 213 209 207 207 204 202 195 190 180 177 168 159 139 115 102  87  94 107 130 141 138 129  88  73  80  88 102  89 108 112 112 108 131 109 108  90  86  72  78  77  89  89  82  84  93  92  92 115 111 112 116 114 123 131 131 139 122 121 132 126 126  84 120 158 165 176 110 141 134 114 120 103 130 159 134 129 136 201 202 204 202 202 202 200 201 201 201 202 201 201 201 201
 213 208 206 206 203 201 195 188 179 174 167 159 140 115  93 107  97  95 111 138 143 135  77  65  75  87  71  93 105 112 122 141 144 138 125 123 121 114 105 114 129 108  86  86 115 126 126 140 134 120 137 128 126 131 131 130 102 102 110 111 101  75 119 156 168 162 114 144 156 132  76 125 115 136 128 104 170 199 197 200 201 202 202 201 201 201 201 201 201 200 201 201
 211 207 206 206 203 200 193 188 179 175 166 160 137 118  97  97  87  80  91 131 144 137  87  67  78  89  90  95 129 141 146 157 161 157 151 149 158 150 140 143 169 147 130 126 136 147 150 158 153 145 160 156 165 161 149 145 132 112  96  84  82  84 103 157 166 152 113 149 145 124 121 104 120 136 132  92 187 202 201 201 202 202 202 201 201 201 201 201 201 201 201 201
 212 207 204 203 202 197 192 187 178 170 168 148 149 137  80 107 102  58  91 112 137 150 118  77  96 110  78  36  38  61  88 108 108 119 125 140 135 153 154 162 172 171 157 136 146 143 142 146 137 137 133 137 127 111 109  77  70  66  95  95  90  85 106 164 171 127 116 131 145 102 121 126 108 138 110  84 204 201 203 202 200 200 200 200 201 201 201 201 199 199 200 201
 211 207 205 203 202 197 192 185 177 172 170 170 170 165  82  88  84  58  67  96 134 156 148  85 125 134 130  90  51  32  17   6  83  93  82  84  94  83  97  93 100 107 113 108 106  96 106  98 102 118 103  85  93  60  15  37  96 117 146 138 112 101 124 173 171 123 115 131 132  86  92 117 117 135 102 119 207 201 199 201 202 201 201 201 201 201 201 201 200 200 200 201
 210 207 204 203 201 196 192 183 176 172 173 181 182 185 116  76  77  62  52  76 129 154 158 106 123 158 162 158 128  83  23  16  76 119 118 109 130 101 117 106  92  88 109 124 142 143 166 149 171 173 148 148 118  66  53  94 111 160 162 154 135 103 158 171 163 121 109 129 114  97  88  91 113 100  84 171 197 202 203 199 202 201 201 201 201 201 201 201 200 200 200 201
 210 206 204 202 201 196 192 182 175 173 176 189 196 189 141  63  78  65  71  65 116 146 162 112 114 157 166 175 160 116 105  15  86 132 152 150 167 144 156 161 159 148 165 176 180 168 185 123 149 176 121 107 120 102 107 122 155 168 168 159 142 125 168 184 158 108 114 140  91 110 103  86 103 113  66 197 203 200 201 204 201 201 201 201 201 201 201 201 199 199 200 201
 209 203 202 202 197 194 188 183 174 171 176 183 193 198 196  59  75  78  87  66  83 123 166 155 136 154 162 172 171 151 122  96  57 109 153 109 148  83 179 187 177 146 167 179 195 150 116 145 147 159 148 139  98 128 139 161 169 173 167 158 139 127 179 183 156 121 125 123  87 110 116  90 104  80 163 206 202 202 202 200 200 200 201 201 201 201 201 201 201 201 202 202
 207 202 200 199 194 190 184 178 170 165 168 175 185 189 187  71  69  77  97  95  59  95 156 179 149 159 162 171 173 169 155 126 112 104 135 164 180 138 155 119 145 124 141 153 154 170 146 181 179 138 117 120 147 156 162 179 174 177 171 165 154 144 189 173 152 126 138 120  86  93 100 124  86  72 197 200 200 201 202 202 200 201 201 201 201 201 201 201 201 200 202 202
 204 199 197 193 190 187 181 176 165 160 163 166 174 178 177 161  49  80 111 115  91  80 133 177 172 168 164 167 172 177 166 149 140 133 132 116 127 110 174 149 187 154 193 196 149 155 131 138 148 144 148 153 169 167 180 178 182 182 174 167 148 162 188 159 140 140 142 131 131  73  90 105  65 134 207 198 200 200 200 199 200 200 201 201 201 201 201 201 200 201 202 202
 203 198 195 191 189 184 179 169 157 151 152 157 161 167 164 163 102  73  94 118  95  68 115 156 187 171 170 165 174 172 178 162 151 143 149 168 166 146 150 154 150 149 140 142 166 159 163 172 176 177 169 169 171 177 180 181 174 176 174 169 139 183 179 160 127 131 141 111 115  87  95  80  80 197 195 197 200 200 200 200 201 201 201 200 200 200 200 200 201 201 202 202
 197 193 190 188 186 182 174 165 153 144 150 153 158 159 156 161 149  53  79  90 112  86  97 147 184 181 165 169 173 178 172 169 161 157 158 162 175 195 188 186 177 168 176 181 182 179 182 182 165 173 173 181 187 185 183 180 181 180 182 164 150 186 172 156 131 142 130 126 101  80  71  74 155 195 199 200 201 201 201 201 201 201 201 201 202 202 202 202 201 202 202 202
 194 191 188 189 187 182 173 160 151 144 148 154 155 155 155 151 151 144  46  85  93 102 101 147 174 184 169 170 171 174 173 174 172 168 164 156 151 156 160 165 166 163 167 169 169 163 162 159 171 175 181 185 185 185 184 183 180 183 183 155 166 176 162 158 155 110 113 120  93  88  66  97 188 194 199 202 201 201 201 201 201 201 201 201 202 202 202 202 202 202 202 202
 193 191 189 187 185 180 171 162 153 148 152 153 156 155 152 155 159 151  89  36  91 103  99 129 162 179 175 171 169 171 175 174 175 174 168 159 158 160 156 151 149 147 151 154 156 163 167 167 173 175 185 190 185 181 184 186 184 180 175 170 179 164 159 140 134 117 129  89  97  67  71 163 193 198 202 199 201 201 201 201 201 201 201 201 202 202 203 203 202 202 202 202
 194 192 190 188 185 180 170 163 154 151 155 157 157 155 154 155 146 160 161  70  53  95 103 116 152 171 175 171 172 175 172 171 173 177 176 173 170 165 166 158 161 158 157 164 166 163 169 181 180 190 187 179 178 177 183 188 190 182 173 177 161 154 146 111 130  99 134  98  76  57 120 171 195 199 200 202 201 201 202 201 201 201 201 201 202 202 202 202 202 202 202 202
 194 192 190 188 185 181 171 161 153 149 151 152 152 152 152 155 155 155 152 146  27  75  91 121 138 165 184 178 173 169 173 165 166 167 173 165 167 170 167 168 165 170 175 174 171 176 170 176 178 182 181 176 177 182 189 190 194 189 174 183 175 156 141 125 120  89 112  85  50  58 166 167 196 201 199 199 200 201 201 201 201 201 202 202 202 202 202 202 202 202 202 202
 194 193 190 188 185 180 170 160 150 145 145 145 145 146 146 146 148 148 149 149 111  42  85 108 114 153 169 179 180 174 174 170 166 159 163 157 156 155 157 148 151 139 158 152 160 165 159 164 168 169 173 176 181 188 193 195 196 200 169 177 160 141 116 128  96 118  90  61  58 102 175 171 197 201 199 201 200 200 201 201 201 201 202 202 202 202 202 202 202 202 202 202
 193 193 190 187 183 176 167 157 146 138 137 139 137 139 139 140 141 143 141 146 143  65  37  87  97 126 157 180 185 179 174 177 174 167 165 167 170 166 161 138 140 131 138 143 151 161 169 168 176 170 176 180 187 191 196 197 199 194 169 158 142 134 118  97  88 101  56  62  59 139 163 180 199 199 198 201 200 201 201 201 201 201 202 202 202 202 202 202 202 202 202 202
 194 191 189 186 179 173 161 152 140 133 133 131 130 133 132 133 137 137 136 137 136 120  43  47  68 100 142 175 183 180 177 175 178 172 177 172 173 174 173 148 137 138 138 156 164 167 177 179 182 183 184 185 187 195 200 190 197 178 158 115 125 102  90  68  63  58  65  82  80 159 170 174 198 199 199 201 200 200 200 199 201 202 201 201 202 202 202 203 202 202 202 202
 193 192 190 186 178 169 154 140 129 123 120 121 121 123 125 127 129 130 126 128 130 132  51  37  43  66  86 142 158 183 182 181 178 178 174 176 177 180 170 160 165 137 147 157 173 174 180 185 183 184 188 188 196 200 189 190 176 170 128  99  71  72  76  66  69  72  92  63 118 157 167 178 198 199 200 201 200 200 199 200 201 201 200 201 202 202 202 202 202 202 202 202
 192 192 189 181 168 156 141 131 121 115 110 109 110 112 114 114 117 117 115 119 118 121  79  50  45  44  59 101 143 177 177 186 178 177 185 183 183 183 187 184 173 167 178 174 188 184 189 191 191 191 188 200 200 188 192 175 187 167 119  66  75  69  66  67  68  72  83  91 125 160 176 185 199 199 200 200 200 199 200 200 202 201 200 200 202 202 202 202 202 202 202 202
 193 192 186 176 159 143 127 119 113 108 104 101 101 103 103 103 106 105 105 100 106 110 104  69  32  45  55  75 124 172 181 184 184 185 184 187 193 196 191 193 191 184 183 180 184 185 193 194 193 189 197 198 194 190 178 179 158 110  62  57  56  56  57  72  77  89  92  99 151 167 171 187 198 199 199 201 201 200 200 201 201 201 201 201 202 202 202 202 202 202 202 202
 191 191 179 166 147 123 110 104 102  99  91  93  95  96  98  99  99  97  99  98  97  97  93  88  57  58  55  48 100 155 166 172 190 188 189 187 193 194 191 187 184 178 179 186 188 188 189 190 191 189 189 176 184 174 179 150 121  62  55  59  58  63  72  84 122 102  73 126 152 173 180 184 203 195 198 202 201 198 198 201 199 202 196 205 198 200 200 201 202 202 202 202
 194 189 175 154 130 105  95 100  98  99  96  94  95  97  96  96  95  95  92  96  98  93 106 109  76  58  55  51  56 108 130 156 180 187 186 186 196 195 189 184 182 187 185 185 191 178 172 192 180 175 166 165 174 156 144 115  58  47  50  49  60  79  87  89  95  84 115 139 164 179 181 185 199 190 212 195 197 200 203 198 199 202 200 199 199 201 201 201 202 202 202 202
 191 185 167 147 117  91  90  91  90  93  92  94  96  98  98  97  98  99  96  96  97  97  91 106 107  98  64  48  52  63  99 131 154 170 182 168 173 180 184 183 186 185 184 187 184 172 185 166 163 147 125 127 137 111 103  54  55  52  61  59  61 110  90 105  88 120 144 152 169 178 183 185 192 212 126 149 172 190 200 201 201 197 200 199 199 201 201 201 202 202 202 202
 189 180 159 135 104  80  82  81  79  84  86  86  88  90  91  93  95  95  98  97 103  91  70  55 142 103  78  61  49  56  59  86 116 146 148 172 166 165 170 175 180 175 172 174 176 144 156 139 147 146 113 103 104 104  55  57  48  60  60  69  84  88 117 112 125 146 159 163 171 180 186 183 191 196 209  68  56  94 129 174 197 200 199 200 199 200 200 201 201 203 201 201
 181 175 153 129  97  83  79  79  77  78  79  82  83  85  85  84  87  89  87  93  80  60  46 117 130 120  97  65  54  42  45  62  81 132 129 144 157 156 152 161 167 151 155 148 135 112 119 124 116 129  86  82  75  55  52  46  62  73  84  93  97  80 132 147 153 166 169 170 176 181 185 187 190 199 203 212  90  31  42  67 106 172 196 201 197 203 200 200 199 200 201 202
 178 167 149 128 110  93  83  78  73  72  73  75  78  79  78  79  79  86  77  68  49  51  61 178 150 137  86  78  67  61  52  38  48  74  94 104 131 151 134 143 126 113 133 126 127  99 119 125  83 106  73  55  51  47  61  73  78 114  82 117 119 130 141 155 166 169 168 174 178 180 185 189 190 198 200 203 208 144  19  26  44  67 106 155 181 208 198 200 208 198 202 201
 172 171 146 134 122 112 113 108  96  82  77  77  77  79  80  76  78  65  53  48  43  37 125 165 173 141 126 108  89  75  72  58  39  30  67  70 106 123 110 118 106 118  84  93  85 100  93 102  73  68  44  34  53  69  86 116 109 134 134 149 154 153 162 174 169 171 172 175 178 177 181 188 190 194 198 204 213 196 194  33  18  46  48  68  65  96 165 212 199 203 198 201
  71  87 117 145 141 142 147 145 133 114  99 106 123 119 108  89  65  48  46  45  46  28 141 163 157 147 151 135 113 110 103  89  76  42  49  34  72  75  87  82  79  68  77  71  82  76  68  69  40  44  59  74  92  99 124 142 167 162 155 167 165 167 174 168 176 172 175 179 182 177 176 184 190 191 196 206 202 213 201 198  81  27  39  49  56  60  56  62 154 208 197 201
  82  85  81  89 102 119 143 159 153 137 123 118  85  60  51  58  49  48  44  42  37  35 127 159 164 155 149 144 140 133 126 117 107  89  70  36  41  42  43  50  56  53  53  53  50  46  42  42  63  97 112 109 137 158 146 143 168 168 168 174 176 175 173 176 175 177 180 179 179 177 178 183 189 193 198 203 205 207 209 208 165  78  35  54  54  62  63  65  56  97 190 210
  68  66  68  66  75  74  73  74  98  86  55  63  55  43  38  55  42  41  43  40  42  31 119 166 161 165 158 158 151 143 137 144 139 128 123  78  56  48  37  40  50  50  41  45  56  68  84  94  97 108 122 141 140 152 168 165 173 171 174 176 177 178 180 182 183 181 183 180 181 181 182 183 185 192 198 199 206 208 210 207 184 128  50  48  54  55  49  37  59  73  67  93
  65  65  62  63  63  71  81  63  57  57  61  61  60  50  43  49  51  45  45  43  44  30 135 170 160 159 149 154 156 152 141 144 144 151 133 104  94  67  66  59  60  62  69  89  92  99 104 109 118 133 155 162 163 164 161 171 174 177 178 180 179 182 180 178 180 178 180 180 180 182 182 183 186 188 192 198 206 207 207 204 185 137  59  55  52  39  45  56  64  46  53  56
