P2
# Generated by OpenCV 4.2.0
92 112
255
  14  10   2  22  76  27  24  24  25  23  24  25  24  23  25  17  60 182 189 175 173 137 126  97  70  98  60  65 118 110 141 119 145 142  97 121 131 110  47  56  88 111 101  85  78 125  96  61  57  59  46  63 103 103 111  95 104 121 119 119 131  95  95 122 145 166 164 162 138 175 203 219 243 240 244 249 251 253 238 211 227 241 246 244 247 250 251 250 247 246 244 245
  14  10   2  27  76  24  24  24  24  23  24  25  23  24  17  20 139 192 180 164 146 113  88  63  77 102  80 105 109 146 147 131 133 124 135 132 132 112 102  96  96 115  97  95 111  85  43  46  51  49  51  61  70  59  88 109 135 133  79 116 146 124  71  79 120 150 166 178 122 116 176 198 224 250 248 250 250 254 236 215 235 245 248 249 250 252 252 250 246 246 241 245
  12   9   1  36  74  23  25  23  23  23  24  25  25  16   1  84 187 195 158 160 121 106  91  87  88  69 100 107 131 142 131 131 122 133 144 139  97 101 100  82  83  81 132 112  66  62  76  41  68  59  54  71  81 101 129 130 141 165 153  89 131 181  75  33  60 120 164 172 165 118 128 185 194 225 253 251 250 254 240 224 241 248 248 250 251 253 253 250 246 244 238 245
  11   6   1  48  67  21  24  23  23  23  23  23  18  25 101 198 199 174 167 141 123 100  97  74  65 112 138 142 155 119 109 105 107 145 138  84  90  86  69  76  94  66 100 117  52  61 123  98  71  25  42  73  92 113 103  86 101 128 164 150 103 164 143  71  65  90 142 171 161 161 124 128 188 194 232 254 251 254 241 227 240 246 245 249 253 253 253 250 247 242 234 244
  10   5   0  52  67  19  25  24  24  24  22  23  27 137 215 192 175 179 150 108  96  69  56  71 134 171 155 148 136  93  77 101 128 105  81  73 129 100  84  82 103  86  72 118 117  69  90 149 110  89  78 115 128  92  64  76  51  57  85 131 166 111 154 120 115 112 120 159 180 154 133 116 135 196 199 241 253 255 241 218 233 243 245 247 253 253 253 250 247 239 235 243
  10   6   0  48  68  20  26  25  24  23  16  14 108 204 192 175 182 152 126 104  77  85 101 160 173 134 115  92  67  76 100 126 124 118  87 111 138  96  62  56  47  62  91 103 127 118  94 112 101 129 145 126  68  36  53  69  78  68  44  62 136 161 125  96  66 103 131 148 185 172 139 127 133 161 199 205 248 254 236 200 221 238 244 247 253 253 253 250 244 240 251 250
   9   7   0  44  77  21  24  27  25  17   8 111 208 193 172 173 168 143 111  87 108 130 171 167 149 126 123 119 125 138 133 109 101  92  70  93 117  81  47  56  94 142 133 134 116  87  74  74  57  77  78  25  28  33  45  53  66  84  87  56  69 146 165 131  69  34  75 100 153 186 164 132 137 153 176 208 222 255 232 194 211 232 242 247 253 254 253 248 244 252 255 254
  10   6   1  43  75  22  21  19   9  15  98 188 186 156 150 157 157 134 121 127 156 177 165 135 115 110 105  93  92  76  63  63  62  76  67  89 105  80 101 148 150 114  86  48  35  60  61  55  55  83  41  39  49  60  74  78  80  82 100  80  58  93 146 173 138  88  70  98 135 171 183 160 134 153 170 190 212 234 238 223 227 234 243 248 253 253 252 253 255 255 255 254
   9   6   1  40  76  23  33  30  63 153 192 180 150 147 152 154 141 127 153 174 152 108  75  72  79  74  60  65  77  82  85  70  55  60  53  75  90 112 154 112  68  54  33  41  68  90  79  68  62  45  44  58  36  44  58  61  73  80 107 124  76  80 101 135 163 152 117  91 119 162 169 155 148 133 156 180 201 206 225 241 241 243 245 248 254 253 253 255 255 255 255 255
   9   7   0  45  75  23  35  99 182 189 168 146 142 145 156 137 139 154 142  82  61  71  97 119 114 108 115 119 107 114  96  81  82  86  91 103 139 131  78  50  55  43  49  67  77  70  64 125  90  42  51  54  40  35  41  57  68  67  73  97 125 117 113  78 113 142 146 136 106 149 174 127 130 151 140 164 190 204 209 240 243 243 244 248 253 252 254 255 255 255 255 254
  10   5   0  53  70  14  67 170 176 155 141 119 148 148 159 131 135 124  68  71  93  95  82  74  61  67  67  48  41  43  48  62  78  93  93 120 111  71  51  60  44  43  63  62  49  65  22 113 122  47  56  53  36  34  37  32  29  50  39  53  94 122 153 118  68  91 119 143 153 121 164 152 109 123 168 164 172 200 209 222 241 244 245 248 251 251 254 255 255 255 255 253
   9   6   1  44  71  63 148 176 123  98 117 132 151 165 128 103 126 102 104 103  94  74  64  56  69  84  68  50  52  73  91 103 100  99 106  85  55  45  36  26  46  77  71  33  37  80  47  75 140  80  83  61  39  37  40  47  48  58  51  26  47  85 120 164 110  61 100 135 163 163 140 172 116 100 128 178 159 172 215 229 236 244 242 244 245 247 255 255 255 254 253 244
   8   6   2  47  74  86 164 121  78 112 143 153 170 133 122 126 118  97 110 101  73  56  54  53  47  57  86 108 108 116 109  94  90  89  72  52  39  37  53  72  81  72  60  69  96 114  76  65 134  95  82  64  51  43  42  63  65  58  72  66  38  58 102 135 154  91  85 138 154 174 153 158 132 100 110 144 172 155 185 231 244 240 240 241 242 249 255 255 255 250 249 226
   9   6   4  59  40  96 149  79 129 133 147 152 136 122 114 122 109 110 102 107  92  94  84  85  89  80  73  77  80  72  81  91  97  78  67  66  87 103 111 100  98 111 114 114  92  83  60  58 135 100  72  71  59  48  51  69  75  64  63  98  80  51 108 120 151 133  89 130 155 145 170 142 160  86  97 113 151 169 162 207 245 244 240 242 245 250 253 253 251 247 247 212
   6   4   5  63  74 157 108 103 145 124 139 137 113 121 135 155 159 157 152 149 150 140 123  91  69  74  74  58  74  96  83  68  58  67  92 129 148 136 125 132 118 102  89  80  64  65  51  49 138  98  60  76  71  64  63  40  54  84  72  80 111  75  94 114 149 157  92 115 146 139 151 168 154 125  83  95  97 165 175 177 235 246 242 245 246 249 250 251 249 244 248 195
   5   3   5  47 133 150  95 122 118 117 146 130 127 139 162 156 132 116 108 109 101  86  77  89  90  66  44  88  94  62  66  98 124 133 137 126  98  86  79  72  70  68  74  66  56  63  52  61 134  79  69  85  84  69  85  94  55  61 105  79  94 100  98 107 134 161  86  87 132 138 132 150 174 128  95  98  90 128 187 177 208 241 242 246 247 247 248 248 241 243 243 181
   5   3   3  53 110 143 108 132 121 137 131 120 135 157 129  71  49  77  74  68  63  76  94 110  91  88 119 101  63 111 130 123  97  91 105  91  83  82  84  79  87  84  83  69  63  61  31  64 124  60  73  68  76  75  74 104 118  71  86 107  93 106 100 116 118 155 112  60 110 135 143 121 183 152  80  87 114  94 151 185 181 229 238 244 245 244 248 226 207 236 224 166
   5   4   4  66  94 124 110 131 133 139 108  93 129 145  61  18  65  88  90 102 104 103  86  75  64  73  63  53 112 121  86  56  67 100 123 121 111  99  91  80  60  45  33  35  41  38  20  79 100  62  71  65  87  75  75  94  99  96  74 100 106 105 110 107 120 143 128  70  84 127 146 125 149 183 116  69 100  83  97 171 185 225 242 244 239 232 230 168 145 200 190 128
   5   3   1  61  89 109 120 129 153 102  75 115 155  83  14  46  63  49  37  37  50  40  21  15  22  42  70 125 115  84  59  81 121 126  98  81  69  50  40  29  40  45  40  36  37  37  30 101  72  63  61  54  68  86  64  89 100 106  69  91 118 118  91  93 136 104 136  91  71  99 140 149 126 177 159  91  80  93  81 147 167 208 247 238 232 215 191 163 128 169 181 103
   5   1  10  54  89 118 113 125 115  70 106 154 109  34  52  69  36  27  24  28  39  40  38  45  41  85 143 122  94  76 114 130 104  64  52  43  42  44  52  59  65  51  39  37  43  38  50  81  60  62  77  46  41  71  72  81  98 109 107 114 109  89  71  94 130 104 136 113  76  81 126 147 121 145 181 141  83  95  77 146 158 197 243 233 227 211 181 187 170 187 180 108
   5   3   8  42 103 121  95 104  97 124 126 108  70  69  47  50  41  35  47  49  57  54  55  78 117 138 107  84  76 119 112  64  41  44  53  68  73  70  67  63  64  55  46  51  62  69  72  68  69  65  75  71  68  62  78  63  87 111 126  99  54  61  99 107 112 117 128 114  95  99 119 145 130 103 147 172 115  69  76 115 165 205 238 237 227 200 180 200 207 214 191 131
   5   3   1  32  94 132  82 109 118 119  72  76 104  97  72  85 116 131 113 103 110 104 123 151 128  96  84  94 111  79  43  50  71  80  80  80  61  57  63  74  75  82  95  89  83  61  55  64  55  62  73  65  83  73  83  78  82  98  83  67  44  65 111 125 100 104 105  96  90 115  92 127 132 117 116 141 152  84  89  95 128 204 239 230 213 181 189 213 218 228 213 156
   7   4   2  29  86 106 104 117 105  64  91 131 139 136 139 152 154 144 135 129 109 117 131  82  72  73  93  89  82  63  57  80  85  94  84  77  76  99 105  93  86  75  65  63  58  17  53  69  66  73  88  75  86  81  76  97  77 101  88  74  63  62  89 120  86  82  99  83 101 103  76 110 141 115 101 104 144 141 100 118 102 153 221 209 193 172 207 224 221 232 222 170
   8   4   1  23  96 101 113  86  98  68  91 104 107 134 147 134 112  93  91  76 110 114  53  79  82  73  81  58  64  58  86  96  92  97 101  96 107  96  74  66  53  41  39  48  70  72  62  78  60 100  93  82  86  93  55  93  95 114  81  66 100  60  73 120  77  61  89  80 108 127  94  92 133 124  89 101 141 140 134 140 126 103 197 199 181 178 223 229 225 234 224 181
   4   3   0  30 114 108  78  69 102  63  56  89 116  95  97 100  95 104 121 141 112  42  63  94  51  81  48  49  64 105 111 113 109  90  87  93  80  85  86  71  48  45  51 101 103  79  87  91  57 109 112  84  92 110  60  82 111 114  60  73 105  65  56 101  71  55  72  98  94 136 117  98 102 127  69  94 136 128 136 136 137 113 177 197 174 184 233 235 228 232 223 184
   4   3   1  30 123 107  75  97  53  61  90 109 103  83  88  84 110 137 134  99  39  62  97  63  86  87  47  90 115 112  88  64  61  72  80  80  88  85  64  38  40  45 110 129  70  46 109  74  65 130 104  93 102 115  82  78 116  97  65  85  95  75  51  93  54  64  61 117  82 125 127  75  90 115  46  59 118 122 140 139 122 135 173 186 174 186 233 239 239 238 222 185
   6   3   1  23 133 113  96  57  86 106 115 103  80  85  89 108 119  92  72  69  70  96  97 105 105  67  94 107  79  56  31  36  88  89 100  98  89  54  31  49  62  89 136  81  55  85  87  56 102 135  84 105 107 111  88  79 112  90  84  77  91  73  70  88  63  64  74 112  55 110 132  66  68  98  72  48  67 126 106 159 112 113 176 183 172 190 228 242 254 252 233 181
   6   2   0  31 132 109  69  94 115 105 101  88  85  98 108 100  51  49  58  77  99 109  84  57  78  95  76  39  69  56  38  82  88  94 104  74  44  42  63  71  76 143 105  89  88  83  81  91 125  97  90 113 114 119  83  85 109  91 101  70 115  65  76  72  74  78  87  99  49 100 130  75  64  72  70  53  55  99 109 125 140  88 151 184 175 195 232 247 255 252 236 176
   4   3   0  40 137  83  85  81  61 119  98  87  86  88  82  48  45  68 102 117  93  81  62  67  85  80  72  61  69  65  87 108  88 118  62  57  45  74  55  48 120 115 109  98  71  90 110 116  96  96 101 104 115 113  77  95 107  95  88  84 118  76  81  68  66  80  96  92  41  90 107  76  73  81  38  24  30  70 125 115 148  74 113 176 173 201 236 250 255 248 240 200
   5   2   0  83 126  68  79  66 106 102  65  59  61  46  57  58  65  94  91  49  57  50  49  65  59  59  54  52  61  96 114  92 115  76  53  64  69  50  45  97 133 112 113  62  75  98 115 100  90  91  87  97 115  96  83  98  92  98  97 109 110  89  88  73  77  85  92  86  47  92  94  71  56  70  45  14  22  36  91 125 154  94  94 148 151 213 239 254 255 240 240 213
   2  12  25 100 102  69 116 121 117  58  56  57  37  49  57  66  94  84  38  55  69  56  58  58  62  59  65  83 117 118  90  88  82  62  73  72  54  52  81 119 118 123  67  81 101 107  85  89  95  91  89 105  98  83  96  98 101  98 110 111  95  82  91  86  80  86  88  92  73  89  73  65  50  43  69  46  26  45  64 108 139 120  95 134 200 230 246 255 247 215 219 175
   4   8   7 113  88  73 130 118  82  53  49  36  36  44  61  99  93  37  56  95  77  67  66  73  79  83 106 147 128  94  92  76  78  75  65  68  63  63 103 136 134  84  82 103  85  85  84  95  92  85  87 105  91  78  89  95  94  98 101 100 104  93  91  89  94  89  89  91  71  76  60  69  61  41  59  74  43  32  84  95 138 115  73 139 228 238 254 244 221 209 206 123
   6   0  20 100 116  97  57  73  76  57  39  43  45  54  95 102  49  47  99  91  83  76  75  84  89 114 120  93  92  82  77  66  77  63  64  80  63  63 121 138 100  81  78  71  72  82  82  89  77  80  96 101  89  91  95  98  97 108 107 105 111 103  92  88  97  95  93 102  61  53  72  78  58  50  44  60  68  56  58 109 140 134  77 132 214 246 239 192 214 233 220 138
   5   5  32  67 137  71  71  85  58  50  47  52  57  82 102  59  47  94 107  92  97  77  78  91 107  98  75  85  77  76  80  79  77  73  78  87  60 119 131  95  78  66  74  76  77  77  81  79  74  85  91  87  91 102  98 102 111 117 123 115 110 106 102  96  90  96 101 110  64  47  84  82  62  54  44  45  53  81  78  88 141 142 110 124 207 244 198 176 231 242 215 137
   4   2   9  16 105 105  88  59  63  61  61  57  58  96  69  56  76 113 110 101  95  71  86 100  92  59  77  78  70  96  93  81  75  76  82  80 113 123  85  97  72  74  68  83  79  71  65  63  67  81  83  87  97  94 105 113 117 117 125 122 118 111 106 106 105 102  97 109  82  56 100  88  80  68  53  38  38  46  89  87 108 145 123 137 192 219 163 190 237 239 196 106
   4   3   0   1 101 122  60  53  52  59  65  68  76  86  67  71  83 128 113 105  79  65 101  95  83  91  92  90  99  97  94  93  93  90  90 100 106  78  98  90  81  78  78  85  74  65  64  78  86  90  94 107 109 112 122 126 127 138 141 127 122 116 111 110 112 118 107 110  78  72 119 100  78  75  72  53  38  40  38  85 113 135 132 143 175 183 128 205 246 241 183  91
   4   3   0  11 110 113  61  56  56  60  69  71  80  79  80  71  83 118 116 116  76  78 108  82 108 114 104 111 110 101 104 102  97  95  95  96  79  86  97  77  75  77  77  80  81  82  98 109 103 108 105 117 118 116 119 123 122 121 108 106 116 117 115 112 115 117 107 102  81  94 114 109  95  75  68  62  51  52  44  49 117 122 134 145 186 132  97 222 251 234 164  89
   3   3   5  15  62 104  71  51  50  51  74  83  92  82  85  80  73 136 127 124  77  89  88  81 101 103 110 107 109 106 100 101  94  89  87  75  81  93  83  82  91  95  97 102 104 106 110 113 112 111 101 109 106 101 107 112 115 118 124 131 145 147 143 139 131 122 101 108  99  99 118 112 100  89  76  63  66  63  67  56 102 126 124 155 191 128  89 230 245 212 153  91
   3   3   2   0  35  74  93  44  43  53  57  81  84  88  87  95  86 146 118 103  77  81  79  97 109 102 101  93  87  98 104 106  99  94 100  87  87 101 108 113 111 100 106 107 105 107 105 106 108 108 107 110 119 137 145 152 159 159 158 156 152 145 141 136 138 137 129 125 114 127 142 132 119 108  91  70  62  76  90  93  92 131 144 148 194 130 104 232 226 181 142  90
   3   2   2   1  41  70 104  59  54  40  44  75  94 111  99 115 106 122 114 134 111  83  92 144 142 136 129 122 117 111 111 109 104 105 110  92 100 107 112 114 110 104 109 114 125 122 129 138 134 127 137 141 148 149 154 161 158 155 158 150 141 144 146 144 149 141 139 148 147 153 150 150 135 131 111  92  75  72  93 104 102 128 154 151 192 150 144 222 191 159 137  91
   2   2   2   0  44  47  86  87  64  63  78 106 122 116 107 144 134 127 139 135 119  88  82 133 130 125 121 121 115 117 117 114 114 118 117 110 120 124 120 119 120 116 119 123 117 117 120 122 126 141 146 146 152 153 161 163 151 144 142 149 162 165 162 166 163 154 143 146 161 165 162 154 145 147 128 108  89  73  81 108 107 120 157 163 168 205 225 186 164 163 146 101
   2   2   1   1  49  28  75 100  52  68  69  67 112 132 127 134 137 143 135 132 130 110  99 121 127 120 115 111 107 105 100 107 114 117 111 106 116 123 115 115 115 113 110 112 115 119 134 139 138 143 150 162 161 159 145 134 147 165 172 166 175 172 175 179 185 176 155 142 152 162 160 151 144 143 133 131 100  69  70  91 100 109 106 138 171 199 226 179 149 173 152 109
   3   1   2   1  42  21  41  92  60  44  53  77 132 154 162 137 135 151 135 125 137 159 154 151 150 158 155 147 146 140 135 122 114 121 120 110 113 118 118 122 125 131 139 144 146 149 157 154 152 156 156 150 137 135 137 158 178 165 154 147 141 139 136 137 151 171 175 152 157 160 156 150 151 144 143 137 111  73  65  87  88 109  98 119 170 141 110 161 161 180 153 113
   3   1   1   1  20  17  18  78  72  42  48  70 142 150 165 155 154 155 139 156 167 170 165 150 139 151 150 158 161 166 170 171 168 164 159 156 154 153 155 153 151 162 164 157 153 155 158 156 149 138 135 136 155 162 167 173 174 170 171 178 178 174 165 157 133 127 148 164 155 162 155 159 154 153 154 150 120  76  60  86  92  96 133 142  85  43  45 148 183 188 145 106
   3   1   1   1  35  28   5  37  86  43  38  60 149 160 167 164 168 156 152 181 186 172 158 158 159 133 139 157 167 169 166 163 165 160 155 160 160 157 157 148 150 156 158 159 154 154 148 137 146 156 169 179 173 175 183 192 193 193 191 184 167 155 150 166 166 149 135 170 167 160 155 157 161 157 158 161 126  70  63  73  88 113 133 117  48  57  59 152 194 192 135  98
   3   1   1   2  49  48   0   0  60  73  37  51 145 170 168 168 167 160 171 193 193 169 155 160 172 157 132 137 147 152 159 168 172 168 154 145 152 153 148 147 155 159 155 154 147 143 150 171 176 175 172 172 178 186 179 180 177 174 166 148 145 135 123 133 153 164 160 152 184 162 163 164 163 163 158 166 144  71  68  89  93 119 118 105  71  53  72 160 185 185 129 103
   2   1   1   9  62  44   0   0  36  96  50  45 134 174 168 171 166 169 193 182 186 170 174 188 198 201 189 181 173 163 164 172 171 175 179 166 160 160 170 168 161 163 159 154 157 170 171 165 170 167 157 169 176 169 173 171 157 146 128 116 113 112 109 117 134 146 159 157 169 170 159 151 151 165 167 174 153  89  70 100 114 115  98 118  81  48  95 161 151 151 128 112
   2   1   0  16  63  31   0   1  17  82  76  54 115 168 169 166 168 183 190 180 179 170 178 194 195 191 187 175 171 181 182 174 167 162 167 160 169 164 163 159 155 156 150 149 153 161 153 149 149 157 163 152 156 160 149 137 120  99  87  97 105 112 120 113 115 124 131 143 161 165 154 155 154 160 166 170 147 100  82 112 122 109 111 128  81  57 116 157 126 158 141 119
   2   2   0  20  58  23   0   2   0  30  94  93 103 169 160 171 171 189 178 187 155 147 164 172 156 162 168 163 152 153 151 160 155 146 148 155 151 146 152 145 139 132 140 139 142 139 149 140 134 142 137 141 126 111 111  90  63  57  86 110 130 132 124 129 125 122 130 126 136 149 146 144 146 159 159 166 149  95  93 123 108 128 126 123  76  65 121 140 113 171 129 121
   3   1   0  19  61  29   1   1   3   2  56 119  96 170 161 167 164 183 177 164 136 132 140 139 138 142 141 140 147 144 143 141 139 128 121 137 151 148 137 126 120 119 125 125 129 129 136 132 128 127 124 104  70  64  62  55  59  92 121 139 146 139 138 133 135 133 124 123 105 130 134 131 140 149 158 159 162  97 100 126 112 104 121 124  81  69 125 120  67 124 106 111
   3   2   0  14  59  43   4   1   0   0  34 110  91 177 170 171 174 176 158 137 135 104  97  99 112 114 110 108 117 115 118 132 131 128 115 121 130 141 136 123 124 117 125 118 124 120 111 114 118 106  85  60  54  58  56  75 103 121 131 134 142 143 142 152 144 142 133 126 125 130 121 121 126 137 162 168 160 102 100 111  91  87  99 114  99  84 144  97  39  94  98  87
   3   3   0  10  53  54  14   0   1   0  19  67  94 177 173 169 174 155 124 119 126 108 105  86  74  73  76  80  72  64  63  84  93  90 104 108 111 123 127 124 130 124 127 118 117 103  82  78  81  74  70  68  71  73  80  98 120 124 138 149 144 139 144 144 137 120 115 119 127 119 115 117 118 139 160 166 162 117  95  63  66  91  79  94 110 109 118  90  40  91  97  76
   2   1   0   6  48  63  21   0   1   0   1  38  94 171 172 163 158 148  99 129 125 127 141 132 126 111 106  84  66  65  63  66  70  65  80  93  97 102 114 121 123 121 125 121 113 102  79  65  68  67  70  73  71  65  61  81  94  99  92  95 104 120 129 142 134 117  98  93  98 105  98 114 135 149 152 160 165 121  96  42  66  84  76 110 133 105  83  91  38  80  93  73
   1   1   1   3  42  58  16   0   0   0   0  31  96 169 178 150 137 143 112 117 128 128 135 155 147 145 146 132 109  97  87  78  74  76  77  82  83  89 100 114 120 121 121 123 121 116  92  64  62  66  65  48  40  34  44  42  13   3   0   4   6  30  22  53 113 125 107  86  84  91 119 138 140 136 150 155 155 107 102  63  54  78  85 136 149  94  81  91  35  70  91  69
   1   1   1   3  34  37   6   0   0   0   1  15  88 148 185 157 144 137 126 125 135 109 104 129 118 108 104 108 103  87  65  60  64  71  77  76  74  74  81 111 129 136 139 144 143 127  85  58  54  52  43  43  50  52  96 118  44  38  40  27  40  64  40  54  31  53  97  94  96 115 131 131 139 140 146 153 147 104 122  93  60  72 101 149 156  84  85  88  30  60  79  60
   1   2   1   2  30  34   7   0   0   0   0   6 106 143 174 163 148 128 108 107 122 106  96  67  46  40  13  11   2   0  19  23  46  38  48  57  57  50  62 129 166 172 171 173 169 143  82  58  51  44  62  68  68  64  91 133 111  65  61  56 103 115 125 126 108  69  60 109 124 125 126 142 146 149 154 153 139 115 160  95  61  78 136 145 164  79  86  80  27  54  72  52
   1   1   1   4  25  35   9   0   0   0   0   4 119 147 166 159 156 132 100  83 101  94  35   4  34  95  50  23  21  26  37  71 102  54  32  39  41  34  53 152 185 187 184 185 181 155  90  65  62  76  63  53  69  68  87  95 108 109 102 117 115 106 110 107 155 145 116 131 143 146 153 159 165 164 158 158 149 135 160  84  51 110 151 126 169  81  75  68  27  52  68  46
   1   1   1   5  27  35   9   0   1   0   0   0 104 149 169 161 155 149 115  91  97  54  29  91  73 110 131  66  53  69  63 113  91  53  49  38  50  45  62 167 189 193 192 190 180 155 109  81  90 103  78  78  76  80  83  85  84  90  90  87  93  98 110 141 150 143 148 161 165 168 170 164 166 165 152 150 153 139 158  80 111 167 124 135 178 100  61  54  28  54  65  46
   0   2   1   6  29  31   7   1   1   0   0   2 111 155 163 170 164 161 145 119  92  50 108 136 138 122 128 123  86  81 109 106  96  87  73  62  66  67  90 188 199 203 197 185 175 153 123  98 103 104  99  97  91  85  83  86  90  93  97 103 110 116 132 141 135 148 157 169 180 187 186 180 173 171 161 156 147 141 158 111 186 187 145 156 173  97  60  47  30  51  61  51
   1   1   1   5  26  28   4   1   1   2   0   0  98 190 146 170 175 173 172 146 122 119 155 136 121 113 108 106 107 106  94  83  80  83  96 104  90  72 126 202 206 202 194 179 164 143 124 113 114 108 106 107 110 103  98 100 109 111 112 110 119 130 129 131 144 154 171 179 186 179 176 175 178 178 169 167 162 158 150 131 192 197 181 178 161  70  66  47  32  51  64  61
   1   1   2   4  26  25   3   2   2   2   2   0  69 218 169 170 182 196 194 186 172 172 168 155 135 116 106  98  96  95  90  84  89  93  98  93  86  88 169 207 207 201 195 179 152 138 136 137 135 123 118 117 115 112 112 112 120 124 120 123 134 136 145 154 153 161 173 178 181 179 174 180 174 173 173 168 167 170 172 137 188 193 179 193 152  57  73  53  35  52  67  66
   1   1   2   3  25  22   1   2   2   2   2   0  42 214 201 176 175 186 196 203 200 184 168 158 144 130 118 105 108 113 113 112 113 114 108  97  97 128 192 213 212 209 205 183 156 141 145 150 147 146 144 134 122 115 119 116 119 126 134 147 138 141 160 159 159 175 187 188 187 179 180 172 164 173 171 166 168 164 159 155 158 174 174 200 128  44  67  54  37  49  66  68
   1   1   2   2  19  14   0   2   2   3   1   0  21 203 212 178 178 190 198 201 201 198 181 167 145 129 124 119 121 127 134 126 121 123 117 117 132 155 192 210 214 212 199 184 162 150 156 153 155 163 158 158 148 125 118 117 118 118 125 130 137 142 149 157 173 177 183 183 178 175 169 172 165 164 175 171 170 164 170 147 137 149 154 186 112  43  62  49  38  46  65  65
   2   2   1   1  15  13   0   1   3   1   1   0   0 179 217 178 188 191 189 204 216 215 206 176 159 141 132 132 136 133 133 127 130 121 136 149 158 169 198 215 214 209 194 186 167 154 160 161 162 166 156 152 157 150 136 121 117 123 117 117 137 144 156 173 185 182 179 177 172 167 165 160 168 158 163 164 163 168 174 163 136 146 155 177  88  44  63  52  36  46  63  59
   1   1   1   0  13  17   1   2   2   2   1   0   0 155 195 170 186 186 194 203 204 215 205 192 165 146 146 145 140 131 136 137 131 142 146 154 158 174 201 211 212 204 195 187 174 159 158 166 162 164 166 158 159 157 152 148 136 138 134 144 153 160 170 177 178 171 165 164 166 160 155 142 153 160 165 166 165 154 142 181 176 149 158 178  69  51  64  52  35  46  64  60
   1   1   1   2   9  16   1   1   2   1   1   0   0 126 203 163 181 185 191 192 199 203 199 194 188 164 162 158 147 147 144 142 154 161 152 161 171 174 195 210 213 202 192 186 169 154 161 165 170 162 161 168 168 162 152 157 156 158 156 158 158 170 173 174 169 162 152 154 158 159 147 145 153 161 164 153 158 151 105 162 180 151 174 173  58  51  65  53  33  41  64  59
   1   1   1   1   5  16   1   1   1   1   0   0   0  78 216 167 183 183 172 178 190 198 205 201 200 187 179 171 164 167 166 179 169 160 173 177 182 184 185 206 215 206 192 186 178 167 173 170 177 161 156 158 173 177 167 163 164 163 161 162 159 153 155 154 152 148 146 154 145 147 148 147 150 146 152 150 156 139 117 181 189 171 194 161  42  42  56  52  37  40  61  62
   1   0   1   1   3  11   1   1   1   1   2   1   0  42 218 181 174 174 170 177 185 191 187 194 192 190 186 175 177 181 184 179 169 171 188 174 172 192 194 209 215 208 194 194 195 188 183 177 177 170 145 133 164 175 177 173 167 164 167 162 160 155 147 141 138 137 142 137 145 147 145 133 128 148 151 148 143 143 140 172 202 195 212 119  35  42  49  49  36  35  62  65
   1   0   1   1   3   9   1   1   1   1   3   3   0  13 183 183 161 172 165 163 166 158 172 175 177 178 180 181 182 190 181 175 184 195 184 144 170 201 203 212 214 204 195 194 195 199 193 186 174 172 149 103 120 161 176 179 177 172 161 167 169 161 159 153 143 145 143 139 136 143 139 134 130 143 148 142 135 138 140 162 189 200 196  67  48  42  46  47  34  33  62  62
   1   1   1   1   3  10   1   1   1   1   3   2   1   0 119 186 154 170 160 160 160 153 166 163 166 170 177 185 193 194 187 189 190 192 166 102 155 203 207 219 215 206 202 203 201 198 195 192 177 170 165 124  78 133 159 174 177 177 175 169 166 162 159 158 152 150 143 137 133 119 132 133 128 136 140 135 129 130 141 160 157 170 111  46  58  39  46  49  35  35  59  57
   1   1   1   2   1   4   1   1   1   3   2   1   2   0  46 205 171 162 153 147 157 163 160 163 172 180 187 190 194 190 189 188 192 175 142  66 156 213 214 216 211 208 207 208 204 193 194 186 177 173 177 159  88  94 136 156 167 175 176 173 172 170 160 161 164 153 132 134 130 115 130 135 132 138 146 131 125 135 135 161 125  96  72  61  60  42  49  47  33  35  56  55
   0   1   1   0   0   1   2   1   1   2   1   1   2   0   1 135 196 166 156 139 153 155 155 167 176 174 187 194 193 188 192 187 175 157 119  56 194 217 219 220 207 204 202 197 191 187 184 173 169 174 181 181 136  84 104 143 157 162 169 175 171 165 171 158 155 147 143 139 131 118 126 133 141 134 131 124 141 125 114 157 103  75  87  69  64  39  45  43  30  35  53  52
   0   0   0   0   0   1   1   1   1   1   1   1   3   1   0  47 172 163 164 139 137 144 161 153 156 175 182 186 181 183 178 176 157 135  84 138 225 207 219 220 212 197 190 191 183 176 169 164 167 173 180 192 151  96  90 115 132 149 164 169 166 172 166 162 150 146 138 135 134 128 124 135 144 132 123 127 157 128 111 155  85  78  86  79  74  38  38  40  30  40  52  56
   0   0   0   0   0   1   1   1   1   1   1   1   1   1   0   5 107 146 169 148 138 139 151 155 170 180 182 177 180 168 167 161 142 115  81 203 209 203 215 217 203 195 192 182 165 159 157 155 160 166 171 180 160 114  95  85 122 147 150 157 162 166 157 156 149 148 144 138 131 130 133 124 120 144 128 126 143 123 107 158  83  74  84  82  76  43  34  38  31  36  53  66
   0   0   0   0   0   1   1   0   0   1   1   1   1   1   2   0  57 151 157 139 146 139 137 143 170 172 177 178 177 176 162 142 124  94  86 206 199 206 203 195 177 180 173 153 145 148 144 137 140 146 146 149 144 123 127  73  89 128 139 143 153 153 156 154 158 146 149 139 134 133 131 125 127 139 125 131 134 124  95 161  85  71  83  81  79  51  33  36  30  36  51  78
   0   0   0   0   0   1   1   1   1   1   1   1   1   1   1   0  35 147 155 148 132 147 142 142 162 174 172 177 165 177 157 136 112  84  66 164 190 207 177 157 150 153 148 146 143 144 128 122 113 105 106 112 122 131 141 114  68 102 126 143 147 155 152 146 154 153 132 138 140 133 138 129 137 142 135 126 135 124 106 159  83  72  81  81  85  69  37  35  31  35  47  82
   0   0   0   0   0   1   1   1   1   1   1   1   0   0   0   0  31 128 170 149 126 155 156 147 145 164 164 170 168 154 137 126  99  68  60 111 119 178 149 121 117 126 134 136 124 116 101  53  25  27  51  83 137 153 144 145 102  75 116 130 142 148 153 153 145 154 140 143 141 143 126 135 135 122 121 130 141 122 123 159  83  73  80  78  84  87  49  35  29  33  46  57
   0   0   0   0   0   1   1   1   1   2   1   0   0   0   0   0   2  86 181 143 144 151 152 153 145 157 167 159 158 154 136 110  85  48  95 152 140 125 105  97  92  97  99  98  98  92  48  41  64  67  74 124 152 155 157 154 154  83  82 117 131 135 150 147 144 142 138 142 136 140 132 138 129 119 136 137 115 124 122 163  88  69  79  77  81  94  52  32  27  33  47  41
   0   0   0   0   1   3   1   1   1   1   1   1   1   1   1   1   0  16 127 138 143 146 151 149 150 158 167 166 150 144 122 100  71  55 136 172 175 142  76  80  83  77  77  82  86  62  52  79  93  96 121 139 150 160 158 162 166 149  68  94 122 130 136 140 141 138 140 141 138 144 146 138 125 118 121 145 109 127 138 139  58  70  85  80  80  83  43  32  28  36  48  44
   0   0   0   0   2   4   1   1   1   1   1   1   1   1   1   1   1   0  96 160 124 131 154 144 151 158 159 162 139 132 114  91  54  91 168 180 170 153  96  58  72  76  70  54  47  52  67  87  95  96 118 117 140 151 145 156 166 174 126  63 105 129 136 140 135 140 142 148 138 134 139 150 137 136 135 124 131 128 142 123  76  71  62  59  63  50  33  36  29  37  50  40
   0   0   0   0   2   4   0   0   1   1   1   0   0   0   0   1   1   0  37 171 140 125 155 150 149 162 167 147 141 127 106  78  51 123 177 182 164 148 103  73  51  50  44  52  48  48  65  95  98 102 107 113 122 135 139 148 163 171 173 114  73 120 135 145 149 148 145 142 141 140 135 141 124 134 119 117 118 122 128 128  97  88 106  73  43  22  28  39  29  35  47  36
   0   1   1   0   1   3   1   0   0   0   1   0   0   0   0   1   1   0   1 129 172 131 143 151 146 164 164 157 137 124 100  63  80 156 172 173 147 126 113  90  75  58  66  61  68  85  81  90 100  95 115 115 113 143 141 145 160 159 170 168  88  89 127 134 144 145 138 145 136 131 142 136 126 124 126 119 107 133 142 101   0   5  31  69  96  71  28  31  29  38  48  41
   0   0   1   0   1   6   1   0   0   0   1   1   1   1   1   1   1   1   0  42 157 129 155 140 150 172 161 146 136 119  91  58 130 169 161 163 133 127 131 121 103  83  77  66  65  59 100 107  93  95 115 109 109 142 131 136 158 144 155 176 140  77 120 136 140 154 148 148 139 141 122 109 132 118 127 109 120 114 144  96   3   5   1   0  10  64  99  56  15  37  52  49
   0   0   0   0   5  12   1   1   1   1   1   0   1   1   1   1   1   1   0   2 122 144 146 150 145 155 162 160 135 108  84  99 172 159 162 140 144 119 120 130 109  96  84  87  68  58  93  95 107 111 118 123 123 150 137 138 151 152 153 170 160 100 108 134 141 144 136 139 135 133 120 116 134 114 109 124 128 104 149 109   9  19  10  18   5   0  29 124  34  34  53  54
   0   0   0   0   4  12   2   1   2   0   1   1   1   1   1   0   2   2   2   0  66 147 125 153 139 144 155 159 132  92  84 119 170 168 163 133 141 122 134 135 115 111  99  95  63  89  89  92 115 122 118 134 133 146 134 135 148 150 151 159 147 115 114 131 142 150 144 127 116 128 116 136 129 109 118 119 124 108 145  77   0  11  11  17  16   0   0 111 112  19  55  74
   0   0   0   0   0   6   3   1   1   0   1   1   2   2   1   0   0   2   3   0  41 153 134 134 134 142 158 144 126 100  99 154 173 147 147 151 156 163 162 163 120 108 113 100  52  81  83  88 124 118 119 119 134 152 152 134 139 141 125 141 143 133 105 135 141 151 149 128 120 123 127 137 125 113 112 106 117 110 135  69   0   0   4   6  16   1   0 101 159  74  50  82
   0   0   0   0   0   6   2   1   1   0   1   1   1   1   1   0   0   0   0   0   0  90 142 127 141 137 153 150 125 110 100 165 150 128 149 156 166 166 177 172 133  99 108 110  94  87 104 101 101 115 117 125 143 148 155 135 126 112 111 135 146 136 122 141 152 147 131 120 126 133 136 128 125 130 108 113 106 102 139  64   1   0   2   5  12   4   2  98 121 136  99  62
   0   0   0   0   1  10   3   0   0   0   1   1   1   1   1   0   0   0   0   0   0  33 144 108 124 127 136 152 138 132 122 138 143 138 142 138 163 148 129 124 117  85  76  92 114 107  88  65  56  71  84  80  88  97 101 106 101 104 104 122 133 136 140 130 148 142 121 111 134 115 125 119 115 127 115 127 113  89 143  68   0   1   1   3   8   8   4 103  98 117  94  82
   1   0   0   0   1  11   2   0   0   0   0   0   0   0   0   1   0   1   1   0   0   4  98 126 122 114 132 146 142 151 113 126 146 111 132 129 114  79  42  30  26  20  19  28  32  34  30  22  18  18  26  37  37  35  40  54  69  56  85 101 121 127 146 143 147 134 114 122 131 123 137 126 122 116 115 116 102  96 157  56   0   1   1   1   2   7   5  91 119  89  40 119
   0   0   0   0   2  14   2   0   0   0   0   0   0   0   0   0   0   0   0   0   0   1  35 137 118 109 119 134 152 153 126 135 144 105 102  73  40  32  34  51  61  58  62  62  62  53  65  77  79  86 106 126 130 142 136 139 132 100  76  84  97 112 136 149 141 140 126 122 123 123 129 120 127 120 104  92  82 115 175  54   0   1   1   1   1   2   8  87 130  91  10 116
   0   0   0   0   2  15   3   0   0   0   0   1   1   1   0   0   0   0   0   0   0   0   4 115 132 114 118 100 132 160 142 144 124  98  51  40  90 122 133 152 156 165 158 150 145 143 138 142 147 143 144 156 159 135 112 119 120 128 106  90  99 102 130 139 131 138 139 123 133 126 117 140 119 117 119  97  87 130 176  60   0   1   0   1   2   1   8  86 129 109   8  99
   0   0   0   0   1  14   6   0   1   1   1   1   1   1   1   0   0   0   0   0   0   0   0  86 127 110 104 103 112 141 143 127 119 105  55  92 137 136 132 164 176 178 172 165 159 158 159 161 163 144 137 125 117 104 110 116 125 138 127 107  95  99 119 126 143 141 128 134 136 121 124 146 114 104 130 106  84 131 173  60   0   2   1   1   2   0  11  89 125 103   5  95
   0   0   0   0   1  12  10   0   1   1   1   1   0   0   0   0   0   0   0   0   0   0   0  24 144 116 112 112 117 131 140 127 117 107  90 124 143 131 125 128 132 116 118 106 113 116  96  90  93 103 102  98 104 130 135 134 144 149 126  95  76  79  95 112 122 137 130 118 119 116 111 131 116  98 104  86 102 132 173  63   0   0   1   1   1   0  10  86 130 103   6  90
   0   0   0   0   0   9  11   0   0   0   0   0   0   0   0   0   0   0   0   0   0   0   0   0 100 136 112  97 101 133 132 117 116  90  94 117 139 123 133 130 112  94  79  68  68  81  85  61  75  78  84  93 102 116 131 123 124 125 129  94  87  85  91 103 108 126 126 107 107 124 110 115 103 108  99  96 112 140 155  90   0   0   0   0   0   0  11  90 122 110  11  82
   0   0   0   0   0   8  11   0   0   0   0   0   1   1   1   1   1   1   0   0   0   0   3   5  60 156 110  88  95 124 132 116  96  69  84 111 129 122 141 120 107  93  81  85  77  69  80  75  78  75  86  89  94  84 118 120 112 126 117 101 100  79  89 106 102 110 105 102 109 108 125 116 103 106 100  99 121 131 137 135  51   0   0   0   0   0  11  94 121 106  14  82
   0   0   0   0   0  10  14   0   0   0   1   1   1   0   0   0   1   0   0   0   6  21  22  28  95 113 132  98  84 103 127  95  95  59  83 103 109 121 122  99  85  67  66  73  63  51  61  48  51  60  80  70  74  79  88 112 106 103 104 102  92  84  74  94  94 105  92  99 107 113 117 116 109 107  86 104 130 126 131 118 125  33   0   0   0   0  13  93 114  99  16  84
   0   0   0   0   0  11  17   0   0   1   1   1   0   0   0   0   0   6  16  27  28  18  20  97  34  38 141  96 104 109 119 110  98  70  99 120  92 109 102  96  80  71  63  61  65  44  46  43  51  55  64  74  82  90  97 102 105  91 104 111 109 102 108 109 115 109  72  92 103  92  96 118 111  82  90 117 128 127 127 110 121 107  48   4   0   0  16  98 110 100  11  88
   0   0   0   0   0  13  19   0   0   0   0   0   0   0   0  14  28  28  19  14  37  77 143  88   0   0 107 119  90  95 112 122  89  70 101  98 102 100  99  97  95  85  73  57  58  39  50  61  60  84  99 114 111  98 108 124 129 115  90 111 109 114 130 113  95  98 111 109 108  85  94  97  96  66  98 120 124 126 116 106 118 107 107  74  27   0  17 101 102  97  15  90
   0   0   0   0   0  11  19   0   0   0   1   0  22  48  26  17   6  12  36  83 134 159 132   3   0   1  48 145  93  99 114 114  79  82 109  97  93 113 101 102 111 114 112 106  92  93 102 108 110 115 133 148 147 151 133 144 131 139 118 105  87 112 129 132 112 100 120 108  82  88  99  90  71  73 117 122 121 127 102 102 120 105  92  94  78  39  21  90 111 100  14  94
   0   0   0   0   0  11  23   0   0   0   0  37 101  54  11  36  80 106 124 133 128 146  36   0   1   0   4 123 101  77 105 115  95 103 108 114 108 104 105 123 142 166 159 147 139 134 141 136 134 148 150 164 157 159 167 153 133 120 138 115 104 102 113 117 119  98  96  82  90  82  91  74  56  99 112 111 123 116  94  98 118 110  93  91  77  62  35  82 118  85  23  93
   0   0   0   0   1  11  20   0   0   0  11  38  20  27  85 136 158 147 121 114 129  94   0   1   3   0   3  88 123  93 116 102 114 123 120 118  98  92 105 138 168 168 176 151 148 158 160 150 144 141 145 159 152 143 160 148 117 105 131 107  93 104 110 110 123 125  85  75  84  72  85  71  93 110 102 111 119 107  93 100 117 103  91  85  81  65  35  54 118  48  37  91
   0   0   0   0   0  11  20   0   1  26  29   8  72 135 129 121 126 131 113 110 136  24   6  16  14   5   0  30 126  74 103 118 129 127 118 132 135 120 114 138 170 163 171 170 160 157 162 159 166 139 138 157 149 137 148 131 120 117 113 112 119 106 113  97  99  93  68  70  91  75  58  86 106 103  99 112 120  97  92 100 112 104  91  78  79  70  36  25 137  52  44  83
   0   0   0   0   0  11  21   7  37  27   0  43 150 145 118 112 110 107  98 120  83   0  20  13  14   9   0   1 113 109  67 107 117 110 140 131 127 122 129 142 158 174 168 167 159 147 150 155 144 146 139 146 149 145 139 123 142 137 125 119 131 116  96  90  93  79  64  59  52  53  76  90  96  97 100 112 117  86 100 100 105 100  90  84  79  72  35  59 135  74  47  68
   0   0   0   0   0  12  24  25  21   0  33 103 134 132 112 113 111  98  84 108  14  17  14   5   4   0   1   4  62 142  95  77  81  99 128 120 122 114 139 159 161 152 145 159 145 137 143 149 142 146 129 119 133 134 126 117 120 120 129 130 119 113 108  75  71  71  61  51  41  67  81  89  97 106 101 114 103  86 101  94 105  93  91  88  80  71  42  89 104  82  60  55
   1   0   0   0   0  11  20   1  16  57 104 127 119 115 100 107 104  86 118  40   4  31   1   0   6  45  54  88  60  98 131  89  58  70 108 126 126 105 124 138 160 132 127 153 134 129 130 138 142 137 122 114 121 119 125 117 107 103 115 132 105 115 102  72  49  49  41  51  70  71  75  84  97 113 111 110  94  95 101  87  97  91  93  88  82  72  51 108  88  70  72  44
   0   0   0   0   0   3  36  48  81 106 115 121 112  92  71  76 104 153 116   0  30  17   0  42  67  50  49  33  38  46 114 129  82  73 101 105 110 107 130 137 157 143 132 126 125 118 114 142 126 126 119 112 110  95 112 123 110  99 110 119 111  86  69  49  37  40  42  61  66  68  95  47  68  68  75  73  67 109 113 104 101  97  92  88  82  76  43  93  57  85  66  32
   0   0   0   1   1  23 106 123 112 109 121 125 107  77  75 122 148 158  25   8  24  19  78  64  10  11  25  17  37  50 101 118 125  97  45  81 116 126 111 125 146 121 118 109  98 102 112 122 108 109 105 103  97  95 104  99  94  89 103  88  89  78  46  48  45  53  57  61  72  82  79  19  75  45  77  56  25  47  55  82 107 112 101  88  86  73  11  93  86 102  55  19
   0   0   0   0  32  95 114 114  95  97 102 108 108 123 144 144 159  89   0   8  54  97  39   4  28  26  17  27  17  33 102 101 118 115  79  78  87  83 109 110 109 115  95 103  93  87  87 101 101 100  78  84  88  82  80  81  91  99 102  81  61  63  50  46  55  61  63  73  71 105 111  35  60  34  62  48  49  71  16   7  19  59  97 109 107  45  29 118  77  94  32  15
   0   0   0  47 138 110  92  99  89  83  70 114 133 126 148 160 147   9  25  85  87   9  11  20  20  26  12  29  12   9  67  93 118 110 101  74  47  61  83  84  90  83  75  80  82  69  82  81  83  81  73  85  79  70  63  85  68  74  66  65  55  52  54  59  60  63  69  75  63 127  62  31  23  36  35  21  34  67  26  27  18   0  16  52  77  72  90  59   7  59  58  16
   0   0   6 112 117  79  89  78  66  93 126 117 109 151 142  73 126  78  83  40   5  41  28   8   9  14  10  11  21  15  36  99 121 107 104  90  64  46  51  63  72  72  80  78  68  59  61  72  78  63  66  76  57  46  48  56  47  58  63  63  70  64  64  64  60  59  68  71  78  71   4  23  19  43  29  17  26  41  17  17  22  25  23  15   9  14   0  42  25  41  74   5
   0   0  34 111  79  73  74  86 115 139 140 143 152  87  26  18  63  44   8  13  31  33  17   7  12  14  10   9  14   4  37  94 129 103 105 100  76  52  34  25  25  31  34  40  41  45  57  47  49  55  44  42  42  45  37  53  67  75  75  72  67  67  63  62  55  52  58  62  80  48  14  31  31  63  33  33  31  33  25  12   6  23  31  27  26  12  16  88  11  32  61  25
   0   0  57  91  78  85 128 161 150 137 120  93  38  18  27  13   5  13  20  17  13  19  11   7  10   6   9  11  15  11  29  81 114 115 101  96  82  61  50  41  32  22  22  21  25  32  40  34  40  43  41  47  55  61  65  75  77  70  69  71  70  69  63  58  50  51  56  57  83  36  23  32  42  43  27  51  36  32  25  21   7  11  22  23  18   6  30  25   0   0  31  71
