P2
# Generated by OpenCV 4.2.0
92 112
255
 101 101 101 102 101  99  97 100  99  98  95  93  94  93  93  93  96  96  97  98 103 102 101 105 105 103 105 108 107 100  89  85  80  78  63  49  40  23   9  46  67  78  72  49  39  50  35  49  47  59  44  56  89  77  73 102  96  93  98 102 104  94  89  74  71  86  96  93  91 107 103  97 100 102 105 103 104 105 104 108 105 104 107 107 108 111 111 110 108 107 107 104
 100 101  99  98 100  99  97  96  99  98  95  96  97  95  96  99 100  99  96  94  96  98  98  99 101  94  90  92  95  95  95  94  89  84  78  40  17  18  24  14  34  43  41  36  32  26  19  38  35  44  50  41  65  79  68  91  78  75  96  98 100  96  89  88  82  83  95  91  96 105 102 100 100 100 101 101 102 101  99  99 100 101 101 101 102 102 101 101 103 103 105 105
 100  98  98  99  97  98  97  96  96  94  92  91  91  90  91  94  95  95  94  93  94  94  98  95  82  79  76  87  92  88  80  76  73  71  67  43  10  25  44  23   3   8  11   4   6  21  12  19  29  40  33  33  28  52  58  60  74  62  81  95  86  82  85  95  88  83  87  88 103 105 102 100 101  99  99 101 100 101  97  98  97  97  96  96  93  94  94  94  95  96  97  96
 101 101  99 103 102 100 101  99  97  97  98  96  93  91  93  93  92  92  91  91  92  95  85  63  60  60  65  75  69  68  76  65  61  46  33  28   6  12  24  16   4   4   8   8   0  10  13   8  25  27  31  34  29  28  36  45  67  83  70  63  51  43  54  68  82  85  80  66  66  68  71  93 102 100  98  96  97  98  96  97  95  94  93  92  92  90  88  91  92  92  91  93
 102 105 103 104 103 101 103 104 101  99 101 101 100 101 104 102 102 103 101  94 103  86  59  70  71  68  69  63  59  62  68  59  48  35  18   8   7   3   5  13   9   0   5   5   7  14   8  14  39  24  19  39  16  18  27  35  51  74  62  68  56  56  52  53  61  70  59  56  72  63  58  64  81  90  87  92  92  93  92  93  92  88  89  89  87  90  90  90  90  88  88  90
 103 105 104 102 103 106 105 103 104 100 100 100  99 104 105 101 101 104 106 100  87  62  73  76  62  49  42  42  37  33  38  32  31  38  17   4  12   6   2   9   4   1   7   1  18  16   5  16  20  23  23  29  18   4  12  24  28  42  59  72  62  57  56  57  59  43  37  84 101  90  97  91  83  81  86  92  90  90  90  88  87  84  84  83  82  85  81  81  85  82  81  82
 112 112 112 113 116 115 115 115 113 111 108 106 105 108 107 103 101 103 102  98  75  73  72  62  49  55  56  42  26  31  38  37  44  43  10   7   4  14  15   3   0   2   3   9  23   7  11  10  23  17  24  20  12   4   4  10  17  30  47  70  68  55  43  49  67  76  72  54  70  88  95  93  94  77  90  94  94  97  97  95  95  94  92  92  90  90  84  80  86  80  79  82
 107 106 110 115 114 111 110 115 114 111 113 115 113 116 116 113 114 115 113 100  74  68  67  64  66  57  45  30  29  26  26  24  32  43  28  11   0   3  21  10   8   6   0  24  26   6  15  20  31  12  13  20   8   5   9  11  19  37  42  48  47  41  35  40  42  55  68  67  54  67  87  91  78  80  89  89  92  92  93  95  95  92  92  90  88  90  88  88  87  88  87  88
 109 110 112 112 111 113 116 112 113 113 113 112 113 110 112 115 113 110 107  79  52  67  63  58  51  50  44  43  31  23  21  13  19  23  16   7   4   7   8  19  16  11   8  29  18  12  20  23  26  23  18  20  16  14  16  15  27  37  41  37  33  42  42  45  64  68  65  60  68  62  75  80  80  94  94  91  85  87  90  94  96  91  88  90  88  87  87  88  87  86  86  83
 107 111 112 113 113 116 118 117 114 114 116 116 118 113 113 115 114 113  71  42  54  53  60  59  54  53  49  42  19  10  17  21  27  27  20  11  13   9  16  21  19  27  29  34  18   9  19  24  28  27  32  31  17  15  17  30  26  16  29  49  57  51  55  56  56  66  66  57  52  61  70  79  92 100  94  84  99 109 107 106 106 105 100 101  99  96  94  99  98  93  94  94
 109 112 112 113 114 116 114 113 115 113 111 114 116 113 113 115 116  79  42  56  43  47  66  55  52  47  32  18  10  22  16  23  27  27  16  15  13  19  33  23  27  24  27  25  12  12  22  27  25  21  20  26  31  20  17  27  47  32  17  24  42  47  48  51  57  58  59  60  56  54  52  68  75  70  83  95 104 107 104 103 107 108 107 110 110 103 102 105 104 105 107 105
 104 107 112 112 113 112 108 108 112 114 115 117 118 111 109 110  73  25  40  41  38  48  59  77  58  27  24  18  12  21  19  23  28  22  22  15  18  31  35  27  21  35  49  41  38  25  16  21  18  12  17  24  31  26  32  25  19  38  49  27  25  30  30  39  51  70  73  63  55  69  70  63  63  81 112 110 108 107 106 104 104 105 102 102 104 103 100  96  97 103 103 103
 107 106 107 110 112 113 111 107 109 113 114 113 109 110 109  80  23  21  35  37  38  52  48  44  64  48  29  27  23  29  27  27  21  23  29  27  35  33  31  27  40  44  37  27  51  40  23  17  24  27  33  28  23  26  23  21  13   7  27  40  38  37  42  44  31  43  72  77  68  50  47  50  47  63 103 107 105 106 104 104 105 108 108 105 106 110 110 104 103 105 106 110
 113 115 116 117 114 114 115 114 115 115 116 114 113 107  85  26  18  35  45  40  52  71  78  67  67  77  55  42  38  32  28  25  16  22  29  31  36  30  23  30  36  33  36  41  50  29  20  21  21  36  42  39  32  19  19  16  16  13  14  19  33  47  53  61  62  51  54  64  59  60  41  23  36  48  81 107 106 104 103 103 101 103 108 106 101 106 106 100 100 104 106 106
 100 102 108 109 108 108 111 112 111 106 107 111 105  96  58  14  18  41  62  75  81  68  58  49  45  52  65  47  27  25  22  18  24  18  27  39  34  29  36  50  38  41  47  44  45  31  22  23  24  29  20  38  37  35  32  23  17  20  21  18  15  27  51  51  55  59  50  52  61  56  43  32  10  25  54  94 101 105 101 101 104 102 104 104 103 106 107 101  98 101 103 100
  99 102 101 101 101 102 107 104 102 101 100  98  86  87  25  24  40  65  74  62  52  46  42  32  41  52  55  51  38  28  31  26  32  25  31  42  44  33  50  59  56  55  54  42  36  41  56  55  40  38  27  23  49  57  56  36  31  26  31  39  37  40  39  47  47  60  59  44  50  60  50  40  23  21  17  61  96 100  97  95 100 102 102 100 101 105 104 106 101  99 102 100
 103 107 107 109 110 113 114 110 109 112 114  98 100  60  17  28  60  65  46  45  56  51  48  54  61  55  39  33  41  39  40  43  35  37  36  35  41  45  63  52  55  55  44  51  43  24  15  30  40  25  46  43  38  54  57  45  35  31  39  47  48  42  36  42  50  57  62  63  57  40  43  52  28  31  34  25  94 103 102  99  98  97  96  96  97 101 101  96  95  97 101  99
 100 102 102 104 106 102  98 101 100 105 107 101  89  20  17  41  60  39  48  55  65  72  65  68  64  65  56  52  49  45  45  37  32  37  51  39  46  79  56  47  50  48  53  48  41  29  28  15  20  37  40  47  36  43  51  51  38  35  38  31  39  56  41  32  41  50  57  57  61  50  32  34  34  21  31  19  70  99  95  99  99  97  97 100  98  97  99  98  96  97  98  97
 110 109 108 107 108 110 109 104 104 109 110 110  52  19  38  53  39  62  72  56  57  51  55  54  70  79  76  65  48  42  36  37  38  39  60  62  57  66  45  67  68  58  50  53  52  41  50  47  40  44  34  27  34  34  38  42  52  43  47  37  11  33  29  37  54  54  57  46  42  40  43  32  24  19  14  14  36  89  90  91  91  90  90  91  93  93  96  97  95  96  97  96
 101 100 103 101 105 111 109 105 105 107 113  96  28  21  40  42  58  75  59  38  25  25  45  66  70  81  91  78  64  58  50  43  54  62  67  66  63  58  60  83  86  74  51  39  41  50  58  55  35  29  40  44  27  24  35  42  52  42  35  58  31  21  19  26  50  67  82  64  39  36  28  34  29  28  19  14  11  50 110 107 104 104 101  99 101 100  99  97  91  88  93  93
  98  96 100 103 101 100 100 100  99 100 103  46   9  30  42  41  57  55  33  20  25  30  30  40  61  70  86  87  76  70  62  50  46  58  57  72  90  74  73  81 109  83  60  52  48  50  56  63  52  43  39  33  35  29  35  31  42  50  40  48  67  36  23  25  34  33  58  68  59  44  29  21  22  23  14   5  11  13  53 109 108 108 107 110 109 111 111 107 108 105 105 107
 110 108 109 110 109 109 108 108 108 110  69   3  19  34  35  43  44  32  28  31  28  30  34  37  42  52  62  79  86  83  81  64  55  51  50  69  79  85 103 104 109  85  60  79  74  63  62  57  78  88  70  58  43  38  43  34  42  46  49  53  72  78  48  37  29  33  26  46  49  54  46  20  18  19  19  15  16  13   7  47 102  94  91  93  92  92  98  96  95  95  94  97
 115 114 113 113 112 113 116 114 118  87   9  17  31  24  38  34  30  23  28  30  29  33  38  39  37  38  39  48  67  72  73  75  63  58  61  78  85  90 100 106 106  92  77  72  67  70  71  61  57  65  74  78  77  61  37  48  67  64  63  62  72  88  71  59  44  43  44  33  44  41  44  43  24  17  16  18  15   5  10  13  54 102 100 100  93  88  92  96  97  93  91  90
 113 113 111 113 113 111 112 113 116  40   5  31  22  31  27  28  22  29  32  28  37  39  36  46  47  44  51  54  59  70  72  67  70  66  53  65  78  96 108 110 116  84  69  68  70  62  70  79  67  55  51  53  60  75  59  52  59  74  89  65  51  73  53  42  45  48  42  38  34  39  37  38  37  23  16  15  16  11  10  14   8  53 105 102  99  94  88  95 103 101 100  99
 113 112 116 117 114 111 110 116  91  16  27  21  28  27  30  25  26  30  30  33  43  36  49  54  54  58  62  69  66  62  65  74  80  73  65  61  65  80  97  98 114  80  74  72  77  71  67  84  80  70  57  49  51  62  66  72  69  62  71  80  61  65  51  36  30  37  37  40  34  42  37  36  34  30  24  13  19  17   9  16  14  12  63  93  91  91  85  85  91  94  92  94
 109 111 111 111 110 108 108 115  64  18  28  18  34  28  41  25  29  35  37  43  41  52  70  74  73  67  63  69  76  76  73  75  83  91  86  84  89  97  97 106 114  87  82  93  80  70  80  79  74  72  72  70  72  70  69  65  64  64  60  54  57  62  61  42  28  30  35  34  42  50  35  32  33  39  39  25  16  22  13  13  21  34  32  58  93  93  90  91  90  90  91  89
 100 106 106 104 105 105 109 100  27  16  17  31  36  34  36  33  33  36  34  48  53  85  92  84  87  95  96  98 106 108 110 106 109 120 117 115 115 118 114 123 134  97  92 113 100  84  84  87  88  83  76  82  87  79  73  64  55  54  60  58  43  38  56  51  39  36  33  42  43  42  35  33  26  39  40  31  27  23  23  20  21  32  57  72  85  99 100 100  93  93  97  95
 100 101 102 103 103 102 104  57   4  12  22  45  37  33  33  31  33  32  48  66  82  97  94 107 131 142 148 147 145 148 154 158 152 147 152 155 148 145 143 147 157 118 110 117 102 109 105  97 100 102  91  96  94  93  82  79  64  54  57  58  61  47  43  51  52  48  42  39  45  51  34  32  40  24  36  24  22  28  19  23  20  38  68  98 101 104 109 105 100 100  97  97
 105 107 107 104 104 104  95  21   8  12  36  40  34  35  42  30  35  47  74  89 108 114 123 142 151 149 152 162 167 172 171 177 177 176 178 183 177 181 182 178 169 145 133 138 110 118 115 114 115 118 104 100 109  97  88  79  84  74  56  62  65  66  43  52  47  45  56  47  39  48  40  25  44  29  26  30  14  23  24  19  14  25  65  93 102 104 106 105 101 103 102  96
  98 101 103 104 104 111  65   8  10  19  33  32  36  34  48  36  48  79 107 120 121 126 145 151 158 161 162 167 171 177 177 184 192 194 196 197 201 209 207 194 184 164 155 168 135 126 131 123 131 134 126  87  89 119 107  99  88  88  80  61  70  71  57  48  50  35  50  73  48  46  52  30  43  32  26  33  26  17  29  18  18  28  63  91  96  99 100 100  97  99 102  95
 102 103 100 101 106 107  35  11  15  27  24  32  33  32  45  47  63 102 133 142 124 146 157 166 175 174 172 180 181 184 190 192 194 195 206 211 214 213 212 210 211 193 173 187 170 147 151 141 146 140 144 136  91  92 131 118 115 105  93  84  75  77  72  55  68  48  38  64  69  55  61  36  41  30  20  27  35  15  18  27  31  41  41  78  94  93  94  92  94  97  96  89
  99 102 104 101 106  87  20  14  21  15  23  31  28  35  38  46  79 117 140 145 132 153 164 172 179 178 175 178 178 180 189 190 194 193 205 213 215 212 211 211 209 205 184 180 186 168 158 150 150 143 147 152 149 101  95 129 116 122 112 102 106  99  85  63  70  69  40  50  70  63  57  42  33  29  17  25  35  19  10  21  17  42  53  61  85  86  85  86  89  91  88  82
 106 104 107 111 114  69   8  18  11  13  30  23  32  34  38  59  96 117 140 147 145 154 165 170 174 176 170 173 177 178 186 193 193 187 199 212 217 215 210 205 205 200 203 176 186 177 165 159 155 143 137 146 154 150  87 112 136 125 121 119 114 110 101  78  70  76  58  50  64  60  56  48  30  25  20  24  34  24  12  17  15  23  44  58  71  85  87  86  86  84  81  80
 107 104 108 112 113  58  11  11  10  24  29  22  32  31  48  80 105 117 138 148 157 161 170 168 169 170 173 176 178 181 185 193 199 190 199 214 211 204 203 194 190 194 199 184 166 172 165 157 147 146 135 132 133 134 130 110 152 141 134 128 125 119 118 103  85  88  74  61  64  56  55  46  32  23  21  26  36  22  17  12   8  39  82  91  89  86  91  89  88  91  87  88
 105 105 105 105 112  58  10   6  19  23  17  22  28  37  60  84 109 124 137 151 162 168 168 167 168 172 175 182 178 177 181 182 191 192 199 207 209 203 198 203 201 200 188 184 160 157 168 164 163 162 153 141 136 135 140 150 161 157 152 144 142 140 135 122 116 110  87  75  77  61  53  45  34  27  27  30  24  15  16  13   5  18  66  84  89  90  92  87  86  91  90  91
 101 102 101 100 101  67  12   7  14  19  18  27  34  52  68  87 109 122 136 154 162 169 168 161 164 169 170 170 169 168 174 174 179 188 192 192 199 204 203 200 206 210 206 197 194 175 174 178 178 179 175 160 157 150 142 149 159 162 154 152 156 150 146 141 136 130 117 103  94  73  54  44  36  34  31  21  25  16  16  16  12  12  50  81  80  87  89  88  84  88  91  92
 107 105 104 104 104  77  14  12  15  14  18  30  39  55  70  87 108 122 139 152 160 169 173 159 160 168 178 176 179 184 183 182 182 185 190 194 201 203 203 202 202 198 203 191 192 194 180 180 177 180 177 167 171 168 160 159 152 160 162 164 164 157 151 150 150 145 133 124 118  93  75  56  40  37  35  22  25  13  16  20  21  22  37  72  89  90  90  87  86  87  91  92
 105 104 104 109 117  93  22  13  16  12  25  28  34  55  70  96 119 129 148 154 161 167 170 167 160 172 177 173 178 181 188 186 183 187 190 195 198 204 208 207 205 205 204 196 191 188 183 189 182 175 176 175 168 167 160 155 156 161 165 163 162 160 163 159 159 156 143 132 128 109  87  72  52  44  34  30  22  15  11  19  18  44  77  77  88  95  95  94  96  95  96  94
 100 100 100 102 109 100  30  17  15  13  25  19  35  54  78 101 120 135 148 159 163 167 169 168 157 157 165 167 172 174 178 180 180 178 178 189 197 204 203 203 209 207 207 205 199 191 187 187 184 181 182 185 177 176 179 176 174 171 167 166 159 165 164 156 158 157 146 131 128 120 105  79  63  55  40  29  23  18  11  18  14  44  88  97  87  92  91  88  92  94  91  90
  99 100  99  96 102  89  26  17  18  17  12  22  46  68  92 107 127 142 152 161 162 169 169 170 165 161 163 170 173 180 182 182 183 179 170 171 175 178 183 183 186 189 188 187 186 187 185 181 175 178 177 175 174 177 179 179 177 173 174 169 162 169 159 158 156 154 147 132 126 125 119 100  74  60  48  34  32  16  14  20  14  39  91  94  91  91  93  91  91  93  91  87
 102 103  98  98 103  84  19  15  21  16  12  32  56  77 103 123 139 150 152 159 164 170 171 172 174 177 171 163 172 179 183 188 188 191 190 191 188 186 187 188 193 193 188 187 187 184 183 187 187 187 180 176 176 180 177 174 176 173 170 163 169 166 161 158 157 153 146 134 113 124 125 112  91  68  49  42  36  20  13  19  13  32  90  89  87  90  88  86  87  86  89  87
 100  98  99 101 104  78  18  17  22  20  21  36  51  76 118 141 147 152 149 156 165 169 173 176 176 168 173 170 164 170 179 192 195 192 190 190 191 191 195 196 197 196 194 193 198 196 189 194 196 191 187 180 178 177 173 174 179 167 161 162 166 161 161 157 154 148 142 137 120 121 126 123 108  83  55  41  27  23  15  22  18  23  93  99  97  99  97  93  93  92  92  91
  93  92  95  94 100  60  15  17  24  17  20  36  55  85 132 148 146 149 148 156 159 166 174 181 171 164 169 177 171 165 172 182 187 187 189 196 198 196 191 192 195 192 186 190 189 192 191 191 198 191 187 181 176 173 169 172 176 162 163 171 165 158 160 161 152 146 143 138 129 124 125 122 118  97  67  46  36  23  17  22  22  18  83  95  97  99  99  95  95  97  95  95
  88  88  86  87  93  54  14  14  23  18  25  37  51  98 139 145 145 148 147 153 154 157 171 180 173 176 179 187 186 185 185 193 195 195 196 200 203 206 200 195 192 193 190 187 189 185 191 191 189 187 181 188 189 186 180 179 177 171 171 170 168 157 157 165 161 153 145 136 130 124 128 125 125 112  85  53  37  25  20  21  26  18  75  92  90  96  91  88  92  92  91  91
  85  88  86  84  90  52  15  13  21  20  24  30  53 111 138 143 142 146 145 146 156 159 164 173 171 181 184 188 191 189 186 188 193 194 196 198 203 208 208 207 202 199 200 197 199 198 195 193 197 199 200 200 199 197 192 177 175 179 176 173 171 158 158 164 167 158 150 134 126 125 125 122 121 115  98  66  35  23  18  25  28  15  66  91  89  93  92  89  89  89  87  86
  94  95  94  92  94  55  17  15  20  20  22  34  60 109 137 143 140 144 145 146 157 161 160 163 168 171 171 171 179 184 184 179 187 187 187 193 193 193 201 200 196 194 190 196 198 197 194 202 207 198 194 196 194 191 187 172 174 175 178 178 176 169 164 163 162 158 151 137 124 123 123 117 113 117 104  77  37  23  19  21  27  14  63  95  89  91  93  93  89  86  85  83
 105 104 101 100 104  69  28  20  20  18  25  36  59 106 135 146 141 142 144 149 159 153 149 147 149 150 145 161 163 155 151 148 149 162 170 181 184 178 185 192 195 186 177 174 181 181 182 198 195 195 190 186 187 182 176 173 172 171 175 173 170 168 161 155 155 157 150 137 129 122 120 110 112 115 102  82  38  22  20  19  23  14  47  94  86  90  93  91  90  90  89  85
  99  97  93  95  99  86  44  26  14  22  29  42  65 102 129 141 145 143 143 154 162 153 146 138 142 145 143 145 135 132 136 136 125 126 148 156 158 169 173 186 189 180 175 175 174 176 173 184 184 188 182 181 180 173 173 159 157 157 161 155 153 154 148 144 141 140 147 138 129 116 114 108 116 111  99  82  39  24  18  21  20  19  37  87  83  84  84  83  85  83  82  81
  97  96  92  93  96  95  73  42  28  20  36  51  62  97 123 136 142 143 146 151 159 161 154 161 171 179 184 180 170 155 138 128 125 120 129 131 139 154 167 182 178 171 179 186 178 173 168 179 177 173 174 172 167 156 146 129 119 128 134 126 127 139 142 137 125 130 138 136 131 121 113 108 115 104  98  81  44  25  21  22  16  15  34  84  82  85  84  83  83  82  80  78
  97  99  97  97  97  97 105  76  61  29  30  55  63  97 122 136 140 144 145 150 156 160 161 172 186 187 187 184 196 188 164 143 136 132 131 135 133 134 158 175 177 175 181 174 176 175 165 167 165 155 155 155 144 130 104  97  99  98 104 101 102 124 133 128 121 124 131 125 121 123 111 109 112 103 100  77  52  35  22  21  20  22  35  80  79  80  80  80  81  78  78  79
  95  95  94  96  96  93 105  89  88  58  30  53  53  95 125 136 147 142 153 151 152 159 161 164 170 172 175 174 184 191 185 170 149 136 128 131 134 142 149 160 163 176 180 176 174 172 167 153 146 140 134 130 118 106  96  98 104 109 126 144 147 151 141 141 134 128 119 120 120 121 110 111 109 100  99  71  53  47  23  23  25  30  44  86  90  85  84  84  80  77  75  76
  88  89  90  93  95  93 103  65  87  87  45  40  58 100 131 130 152 144 151 161 152 153 159 159 158 163 169 171 162 171 175 172 158 151 139 126 121 128 132 143 157 169 175 182 179 177 170 156 137 119 114 108  99  96  97 108 127 152 176 186 175 171 158 148 146 131 118 115 115 112 113 111 105  99  99  66  48  48  30  18  29  48  62  96 102  99  99  98  96  94  92  90
  86  84  85  89  87  81 117  89  61  94  49  43  62  91 134 132 151 157 143 159 151 149 153 155 149 158 164 177 175 174 167 157 148 147 148 147 128 114 109 118 136 163 173 179 184 182 172 156 121 101  96  91  92  96 114 136 160 187 188 178 169 165 159 149 147 136 126 111 107 101 111 108 109 110  99  67  42  45  32  22  36  75  94 107  97  95  97  95  94  95  98  96
  92  90  89  90  87  84 110 129  62  67  56  49  58  97 126 141 147 165 137 148 148 145 151 154 149 140 115  96  90  81  78  70  65  69  88 118 134 126 100  94 112 152 181 193 197 192 181 165 116  82  83  89  98 105 105 110 127 150 169 177 177 172 157 151 150 144 135 117 106 109 119 104 120 115 103  75  41  42  30  31  47  84  77  98  99  94  95  94  93  95  95  94
  90  86  82  84  84  82 107 151  89  77  60  41  61  92 121 143 147 151 153 134 131 138 145 145  88  37  33  11   6   1   5  18  54  54  39  55  84  99  93  94  98 149 176 183 192 194 179 156 106  78  79  78  70  55  39  33  22  29  37  57  83 113 139 153 155 141 122 109 120 129 109 117 127 107  97  74  46  34  37  51  65  75  63  82  98  82  85  87  89  91  89  90
  95  91  90  92  89  84  99 145  94  82  66  55  69  90 118 129 156 144 135 142 127 127 129  60  27  52  62  41  26  10  26  47 112 101  69  60  61  77  85  96 114 158 183 184 190 189 177 150  90  68  63  72  70  52  41  37  13   3   0   1   1  28  29  48 103 137 120 113 113 107 117 136 108  99  95  70  50  33  54  69  74  72  67 100  98  73  78  81  83  82  81  81
  99  98  96  97  93  88  88 135 123 114 108  62  62  93 118 122 141 165 154 135 128 115  69  78 118 135 149 155 144 130 133 136 134 129 128 108 102  91 130 133 130 169 178 190 195 178 164 148  96  79 120 112  72  86 111 104  83  78  78  65  61  61  48  39  29  64 111 113  95 109 128 107 107 116  98  79  53  42  77  79  77  72  73 107  92  74  77  78  77  78  79  78
  99  96  95  93  92  91  89 123 150 130 131  59  62  96 129 132 125 131 147 146 118  96 122 149 174 158 157 163 169 171 179 173 152 144 145 150 154 163 166 157 148 176 176 183 194 179 150 131 108 108 153 135 140 136 146 154 151 160 163 149 142 133 131 129  96  48  42  83  97 112 113 120 129 110  99  79  55  48  75  71  84  70  80 118  88  72  74  76  74  74  76  77
 100 100  98 100  98  96  93 112 147 132 126  60  73 107 126 130 138 154 166 171 158 146 129 113 140 175 175 166 162 181 188 187 178 163 152 149 143 162 166 146 154 169 181 182 178 164 141 124 122 118 156 196 185 171 162 159 165 170 169 155 152 149 143 140 141 110  79  68  84 121 135 126 106  95  95  71  52  59  64  71  86  69  97 134  86  67  71  72  69  70  73  74
 104 106 105 105 107 105 104 109 137 142 123  71  73 116 127 134 147 157 170 174 174 179 174 158 131 140 178 190 191 195 183 166 148 131 125 133 153 172 163 151 154 171 181 183 178 156 136 122 127 132 146 175 165 161 150 149 155 163 169 166 154 149 166 159 145 137 130 132 141 130 131 132 120 107  94  73  54  61  89  88  88  83 116 141  91  75  77  78  74  75  78  79
 106 102  98 101 104 107 106 105 147 155 121  89  82 111 126 130 140 154 160 163 168 176 178 172 164 155 140 142 133 111 105 107 110 126 154 179 198 180 162 152 158 174 179 184 185 163 135 122 132 133 143 158 164 154 143 145 138 126 131 138 146 168 168 136 117 111 124 146 151 153 149 139 126 114  99  77  50  62  97  99  94  96 123 131  81  77  79  80  78  75  76  79
 105 102 100 100  99  99  95 101 141 156 131 107  76 106 130 132 138 153 163 160 159 171 171 175 184 194 183 159 133 136 152 166 177 190 199 196 188 163 157 149 158 168 178 183 178 168 139 122 132 143 145 146 161 171 177 159 139 123 113 110 111 112 101 107 141 150 157 150 149 147 147 143 129 115 100  83  52  66  96 102 101 109 130 104  70  80  83  84  85  79  78  81
 102 103 101 102 102 101  96 101 138 161 137 110  71  96 125 134 140 151 160 160 160 166 165 164 177 182 190 195 186 194 195 194 197 195 197 190 177 168 159 151 155 161 176 181 171 163 142 125 136 150 151 150 151 166 180 189 197 182 169 158 155 158 175 187 181 165 149 136 133 140 142 144 131 119 101  86  56  73  95  99 104 111 123  92  82  87  90  88  91  89  91  94
 100 101  98 101 103 102  99 105 142 162 139 100  87  92 119 132 141 147 156 159 155 161 160 163 176 186 193 199 197 192 191 185 192 187 186 182 178 174 169 157 155 162 179 183 174 160 151 140 135 147 155 157 158 164 169 168 187 201 197 192 198 199 191 176 170 155 143 139 131 136 139 138 129 117 104  87  59  73  89 108 112 115 110  89  92  96  96  96  97  97  99 101
 104 101  97 101 100  96  96 108 146 151 154 109 105  96 111 132 137 143 155 159 160 158 165 173 182 192 197 206 202 196 193 193 194 196 182 176 170 163 165 157 154 162 180 188 178 169 164 158 140 142 146 143 154 173 177 167 169 183 187 195 194 194 192 183 168 159 147 140 135 133 132 128 126 117 108  88  59  68  86 117 117 116  99  92  93  94  93  97  99  98  96 101
 101  98  97  96  99  94  91 106 154 149 156 139 128 104 110 130 131 141 153 160 156 155 168 173 184 193 200 210 200 195 194 199 200 194 179 164 153 152 159 154 155 167 185 193 180 176 173 164 151 140 140 130 135 158 167 174 180 189 193 191 194 195 190 183 175 159 154 147 136 130 128 124 125 116 110  83  59  72  89 119 117 118  92  94  96  90  90  92  94  95  92  94
 100  99  99  98 101 102  96 106 158 165 156 157 139 116 108 128 132 140 152 154 154 159 164 173 182 188 199 208 202 195 191 188 182 171 160 148 149 160 163 151 159 171 189 198 189 178 174 166 158 140 135 141 134 137 151 170 190 196 200 201 200 196 196 182 174 158 154 146 136 131 129 121 123 114 100  77  57  72 108 121 119 116  92  99 102  97  94  94  93  98  95  95
  97  98 102 100  98 101  99 104 165 170 165 171 142 120 107 125 132 141 147 147 151 157 163 172 179 187 192 202 197 190 184 175 168 159 149 149 165 166 162 157 164 182 204 200 189 191 179 169 160 141 130 144 146 145 145 156 174 186 196 199 199 199 195 184 172 162 159 147 130 126 130 120 118 112  98  77  64  75 116 112 121 113  91  93  95  96  94  92  95  95  95  94
  94  90  91  90  90  88  85  94 161 173 166 173 156 128 109 117 134 140 144 147 150 154 163 170 178 188 186 186 190 184 175 166 159 143 138 157 164 164 161 164 170 194 215 202 196 192 181 166 158 143 133 141 151 142 148 145 154 173 181 190 194 195 189 185 179 165 157 146 138 127 119 119 113 111  99  71  76  90 102 113 131 107  90  95  92  94  90  89  91  89  93  94
  98  99  95  97 100  95  90  95 158 176 155 171 168 137 105 117 133 139 139 146 145 152 161 164 174 184 188 184 181 179 172 157 138 117 147 161 162 160 158 164 172 197 201 192 200 188 169 164 156 140 136 139 149 136 138 141 133 153 175 186 189 194 191 185 175 162 154 142 132 126 118 118 114 106  96  74  73 102 102 121 128 102  86  92  91  88  88  89  90  87  87  88
  92  92  92  94  96  93  87  85 150 190 161 157 163 138 110 114 129 135 138 143 144 147 157 158 167 179 183 178 172 167 158 139 107 137 173 155 158 155 157 164 176 185 181 178 183 173 161 159 141 131 126 129 136 126 139 155 125 117 154 175 183 182 182 177 170 162 153 145 131 122 117 116 109 108  93  76  83 111 113 122 122  96  86  89  89  88  83  84  87  84  83  85
  96  92  90  94  97  94  86  80 139 190 183 159 154 142 111 106 126 132 142 142 145 147 152 161 167 172 177 179 171 161 139 101 121 178 179 149 143 150 144 158 177 177 171 174 175 168 155 136 132 134 131 131 128 112 136 159 155 113 119 153 169 177 177 172 166 157 151 140 129 119 115 112 110 107  85  77 101 118 117 125 117  90  87  88  92  91  85  86  87  83  83  82
  96  96  95  99 100  97  93  92 126 181 189 177 164 152 112 101 127 129 141 145 148 148 152 160 171 175 175 174 162 144 106 114 178 184 181 145 108 107 109 131 158 165 158 161 164 155 133 120  90  59  72 111 111  90 136 157 161 152 107 129 157 166 174 169 159 154 148 139 125 115 113 112 108  99  77  84 113 118 115 130 113  80  81  82  86  82  79  84  82  77  76  79
  91  91  95  95  90  88  89  89 108 176 194 175 167 157 119 106 129 136 141 145 147 148 151 159 171 170 170 164 148 115  99 164 185 179 170 145  82  34  35  68 123 148 148 140 133 126 119  70  25  26  40  47  48  79 131 156 161 168 153 109 135 163 167 163 161 157 149 139 123 115 112 113 107  94  70  88 108 111 122 134 113  92  93  92  91  89  87  83  83  81  77  81
  95  96  97  97  96  93  96  94  89 150 191 182 177 166 119 107 135 143 139 150 149 147 150 158 169 174 167 154 122 101 138 173 175 166 161 135 115  84  53  38  63 116 134 133 121 113  69  41  42  45  48  52  64  92 131 149 162 163 176 153 108 134 157 157 161 152 144 133 118 115 111 109 105  89  61  87 103 113 123 134 106  87  91  94  97  96  95  94  90  92  94  95
 100 101 103 102 103 105 103 103  98 113 171 183 180 171 126 113 132 146 146 152 150 150 153 158 164 166 160 131 103 122 149 163 156 157 152 140 138 124  94  70  49  66 100 109  99  73  46  46  55  62  72  92 116 110 125 141 158 157 167 173 137  98 136 153 152 147 141 133 121 111 114 109 104  99  77  89 104 113 127 128  97  84  84  84  87  86  83  85  78  78  87  87
 104 105 106 106 102 105 105 106 106  98 130 171 175 169 144 109 123 140 145 149 147 150 158 157 163 159 134 111 128 145 150 156 153 147 136 129 131 121 111  87  63  62  61  62  65  60  46  56  81  86  94 101 120 109 127 139 141 149 166 157 158 127  98 138 147 148 139 133 120 113 110 105 104  96  83  88 101 117 130 123  98  95  93  92  94  92  90  90  87  87  90  90
 102 103 103 107 104 102 104 106 106 104 103 135 158 162 147 116 125 131 135 145 152 155 160 165 161 139 112 125 136 141 154 143 142 139 129 120 118 117 121 107  80  74  63  57  59  60  60  78  89  95 101  89 113 110 114 124 141 142 139 152 158 155  97 106 141 147 143 133 124 116 117 107 108  92  70  84 110 123 130 109  88  91  93  92  93  93  92  90  92  96  96  99
  98  98 101 103 101 102 101 103 105 101 102 102 110 119 115 108 121 134 129 146 155 156 157 167 162 138 128 129 127 140 143 134 140 130 119 119 115 115 124 123 113  93  73  80  76  71  74  95 111  95 103 101 103 118 116 120 128 129 117 124 151 151 113 101 133 145 143 138 127 120 119 119 107  91  82  94 117 126 128  88  81  80  81  82  83  86  84  79  82  82  84  89
  96  97  97  98  98  98  98  93  96  98 102 102 100  99 113 107 124 135 122 136 156 156 160 165 162 154 143 115 121 137 140 130 128 125 120 132 127 134 139 126 122 110 112 118 113 122 112 116 125 106 113 122 106 118 127 130 137 124 128 132 147 145 124 121 137 154 152 141 124 122 116 105 101  89  81 111 134 139 108  82  84  82  84  86  87  89  86  79  84  81  84  88
  87  88  92  93  92  91  92  91  92  94  96  97  95  96 114 136 132 121 126 144 158 157 163 173 167 163 150 116 124 134 136 127 115 134 141 139 148 152 138 130 136 119 140 131 120 143 135 135 134 128 128 132 114 122 144 132 122 127 143 137 144 133 110 121 162 165 151 128 122 121 115 107 110  93  82 112 134 108  87  91  89  88  92  92  95  94  90  88  90  88  88  89
  95  93  96  95  95  94  92  93  94  93  94  94  92  95  99 122 118 115 133 151 158 154 161 170 171 182 163 117 122 135 135 123 136 144 156 153 157 170 157 148 138 144 156 144 148 165 153 142 151 146 135 125 124 121 128 129 113 109 118 126 129 133 121 106 153 165 148 123 113 118 117 116 104  98  91  98  93  89  93  93  95  94  95  92  97  98  95  95  96  95  93  94
 102  97  96 100  99 100 101  99  99 101 103 101 100 102 106 114 116 122 135 149 154 150 157 163 179 188 151 118 125 136 123 130 140 136 146 149 142 148 157 150 137 147 149 157 174 178 160 147 146 137 129 132 133 125 129 131 120 117 110 104 113 119 106 116 150 167 150 130 109 112 121 109  92  89 102 112  90  90  90  92  94  93  94  93  93  95  94  93  96  94  93  94
 100 100 101 104 100  99  99  95  96  92  93  93  94  94  95 112 111 107 121 144 145 138 147 163 181 171 145 136 126 135 125 129 122 123 126 115 102  96  97  98  99 100 115 128 129 131 130 116 115 108  98 103  98  97  98  88  67  53  52  81  98 122 111 130 160 167 146 128 119 115 119 100  93  77  93 129 101  88  90  90  88  90  91  91  91  92  92  93  95  93  92  94
 101 102 104 103  96  92  98  99 103 111 117 125 129 129 131 126  99 105 128 141 123 132 131 144 168 161 153 135 118 117 113  90  76  76  81  95  97 101 108 104 108 101 106  99  93 100 105 103 119 110  97  94  94  85  71  55  60  59  56  90  95 104 123 149 166 157 135 119 124 120 123 112  98  78  94 132 132  90  81  84  83  84  85  85  86  86  90  90  88  88  89  92
 103 103 108  95 114 187 223 228 218 213 215 209 204 196 190 170 123 101 116 126 131 126 116 137 149 156 147 149 131 120 102  93 104 143 153 155 152 163 166 159 185 201 205 185 181 191 188 161 155 147 138 134 138 134 130 128 126 123 127 134 100 108 132 157 156 146 124 122 120 129 119 115  98  75 100 134 146 126  81  73  75  77  74  72  73  75  76  76  80  80  82  85
 104 104  99 129 232 253 255 255 254 220 201 192 180 172 166 165 133  95 126 110 128 120 118 122 130 147 154 163 147 120 112 131 157 165 165 159 155 169 175 175 181 184 190 183 176 166 174 159 165 158 151 155 150 138 140 149 149 160 165 146 108 109 152 162 147 134 114 118 128 125 110 104  98  85 115 138 144 152 134 118 102  85  83 118 142 155 148 104  71  77  84  84
 104 101 103 225 242 240 255 254 249 226 189 179 168 162 158 165 145 105 119 118 130 127 128 105 123 150 147 145 135 110 121 141 162 167 163 152 149 157 163 165 164 160 162 163 156 153 156 162 159 154 153 154 148 144 145 146 162 177 157 121 102 123 151 148 145 123 110 108 128 134 116 106  81  89 123 145 146 154 158 165 159 147 172 192 186 182 199 208 161  97  78  84
 100  88 171 255 228 248 255 251 243 222 185 172 162 161 159 161 162 125  91 108 115 139 118 108 118 139 145 132 129 112 134 145 162 164 162 157 155 155 148 146 148 137 138 150 149 146 144 148 143 141 145 144 142 145 143 151 161 157 140 118 128 138 126 132 128 111  98 108 124 133 110 105  76  91 142 153 150 158 167 168 161 188 206 197 186 175 182 212 228 210 155  93
  93 101 238 245 232 254 255 251 246 214 183 174 166 166 166 163 186 163  88  88 106 124 125 126 106 119 129 118 119 112 148 156 151 166 162 157 156 143 143 138 145 141 138 139 136 142 132 130 135 133 133 134 133 128 137 147 147 139 130 128 139 141 128 116 116 107  83 103 118 125 105  91  76 103 166 165 152 162 174 178 182 198 202 204 201 190 181 209 227 226 234 201
  72 156 255 236 235 255 252 249 244 207 185 180 175 174 175 176 209 210 123  92 108 114 123 111 104 113 126 117 110 133 150 162 153 155 166 157 141 132 125 123 140 126 137 142 125 127 123 126 122 129 124 120 128 126 132 136 140 131 128 146 142 138 136 103 113 113  89  90 117 125 105  84  72 110 181 179 159 165 178 186 188 188 194 209 218 213 194 207 232 227 221 229
 179 236 255 235 238 255 252 253 236 202 191 188 187 192 194 200 227 231 150  89 105 112 116 109 107 100 107 102 110 131 147 154 161 144 155 144 138 136 126 122 113 123 132 144 124 128 130 118 118 110 123 124 117 122 124 133 136 131 158 150 143 112 126 112 108 104  99  82 104 117 108  84  68 115 187 189 171 171 182 191 197 199 212 221 226 226 208 209 236 233 223 222
 255 255 254 233 241 255 249 255 238 203 202 204 212 215 210 219 235 235 139  81 103 106 109 100 114 100  83 116 135 134 149 152 170 155 141 151 156 147 140 123 118 132 138 138 129 123 120 117 132 118 121 125 131 133 128 134 135 154 147 132 152 124 108  95  97  90  91  93 105 104 102  77  42 121 189 194 179 182 189 196 204 207 217 223 228 232 221 216 238 237 226 226
 245 255 252 233 242 255 250 250 249 214 218 231 229 223 216 231 242 232 105  63 109 107 114  99 122  95  98 112 103 128 155 147 152 162 151 153 164 163 153 143 138 144 134 124 131 131 114 133 145 148 135 132 148 150 143 138 157 152 127 129 120 126 111  81  82  86  84 102 113 107  96  48  18 123 193 201 185 187 197 203 211 213 218 224 229 234 228 221 238 233 231 231
 253 255 252 235 244 255 255 249 254 240 234 239 234 225 226 238 245 229  92  53 103 104 119 115 120 103 102  97  87 127 147 152 148 149 159 165 173 177 168 168 148 146 135 130 125 140 133 157 165 165 161 158 152 160 159 160 165 144 145 150 121  99 101  80  76  84  87 101 107 109  84  21  26 133 197 205 191 190 202 210 217 222 219 225 231 239 233 227 245 244 236 235
 255 255 249 236 244 255 255 253 254 255 253 247 241 233 235 242 249 226  84  33  96 103 107 109 117 101 103  95 102 123 139 148 133 136 166 168 186 193 178 165 172 174 145 144 146 154 145 171 173 174 168 161 164 173 171 162 152 162 129 122 138 104  91  82  73  87 107 100 104  89  50   2  38 143 199 209 198 193 204 214 221 228 226 234 240 245 238 231 251 255 255 254
 255 255 246 237 245 255 255 255 255 255 255 252 244 239 239 245 251 226  79  17  89 101  88 106 113 109  96  81 102 118 126 137 132 138 171 165 190 187 179 164 167 177 176 161 170 161 157 161 173 157 162 157 150 160 167 161 162 142 131 102 115 108  91  80  74  79  98 119  93  61  37   0  51 148 202 211 203 197 206 215 226 233 232 240 244 247 239 238 255 255 255 255
 255 255 244 237 244 255 255 255 255 255 255 253 248 243 244 248 254 225  73   2  85 101 103  99  98  90  95 103 125 110 115 142 147 168 160 144 156 168 168 158 148 153 164 184 172 171 172 170 179 166 159 147 145 147 148 139 146 121 120 128 105 101 106  84  71  74  96 102  68  48  34   0  65 153 203 213 205 201 209 215 225 238 237 242 248 251 244 243 255 255 255 255
 255 255 244 235 244 255 255 255 255 255 255 255 250 245 247 253 255 232  72   0  77  99  92  78  93 117 100 105  95 106 124 133 152 159 139 142 157 158 150 145 149 158 165 179 180 179 175 173 168 173 152 136 135 140 144 134 117 116 116 119 124 110 109  77  73  83 104  72  53  47  32   0  78 160 209 218 209 202 211 219 226 239 240 247 250 255 251 243 255 255 255 255
 255 255 245 235 246 255 255 255 255 255 255 254 249 246 250 255 254 244  88   0  68  96  90  83  80 105 114  94  98 111 119 139 142 137 125 146 161 152 146 151 181 179 172 179 169 157 168 170 149 157 142 140 132 126 127 138 115 129 124 110 111  93  82  83  95  99  69  53  56  44  32   0  91 168 214 221 213 205 212 222 228 242 244 252 252 255 251 243 255 255 255 255
 255 254 245 237 246 255 255 255 255 255 255 255 252 249 254 255 255 252 116   1  61  92  90  85  79  80  96  97  98  99 122 117 128 141 133 149 149 155 159 165 166 164 168 164 170 141 139 154 147 142 128 139 135 125 127 155 127 128 131 111 114  91  72  75  99  83  55  54  49  41  28   0 102 176 220 226 217 208 214 223 229 241 246 252 254 255 250 248 255 255 255 254
 255 247 242 240 253 255 255 255 255 255 255 255 253 252 255 255 255 255 150   2  53  88  86  85  79  82  75  93  93 105 112 119 143 151 150 154 154 155 166 145 129 153 168 145 133 141 144 149 160 139 127 125 140 138 115 116 124 129 124 116 110  89  79  85  70  61  60  55  47  42  26   0 116 185 228 229 221 212 215 225 229 240 246 244 253 255 252 252 255 254 253 253
 255 246 242 245 255 255 255 255 255 255 255 255 253 255 255 255 255 255 188  17  43  85  89  81  82  79  73  68  92  94  97 134 146 140 140 134 147 157 144 136 128 136 155 137 126 127 148 142 153 135 130 115 135 134 110  96 108 123 106 106  95  73  70  67  56  60  57  55  49  42  26   5 136 194 232 233 224 215 216 227 232 241 247 240 246 249 250 254 255 255 254 254
 255 251 241 242 255 255 255 255 255 255 255 255 254 255 255 255 255 255 211  46  35  80  87  85  84  75  70  68  71  91  94 129 137 152 144 144 145 144 146 140 121 129 148 132 117 141 158 139 144 140 133 116 115 124 129  98 116 126 117  96  97  74  72  63  59  59  56  53  49  45  22  19 157 202 238 238 228 217 216 226 233 243 249 241 245 248 250 255 255 254 254 254
 255 255 249 240 250 254 255 255 255 255 255 255 255 255 255 255 255 255 231  87  23  73  87  90  89  78  74  68  67  78  80 117 137 135 146 149 145 124 148 135 124 129 143 122 115 136 140 137 145 142 139 110  95 105 121 113 107 108 115  91  88  79  69  66  63  63  59  53  49  46  18  37 173 213 244 242 231 221 218 225 234 242 250 239 244 246 253 255 255 252 254 255
 255 255 254 244 244 247 253 255 255 255 255 255 255 255 255 255 255 255 243 134  26  64  80  85  85  86  80  72  66  65  87  80 104 118 138 132 129 136 130 134 125 116 124 112 114 121 115 117 118 125 127 101  95  98 122 127 102 102  97  70  69  79  73  67  64  61  56  54  49  48  13  64 192 223 250 246 235 224 221 225 234 244 252 239 243 247 255 255 255 252 255 255
 255 255 255 247 234 246 254 255 255 255 255 255 255 255 255 255 255 255 249 179  38  58  75  84  86  89  85  77  75  67  68  77  84 105 134 126 121 125 124 132 118 105 112 120 109 102 117 110 105 110 114 103 102 110 118 122 112  91  81  71  69  73  69  69  67  61  57  54  52  47   6  92 207 235 254 248 239 227 222 227 234 243 253 242 240 247 255 255 253 251 255 255
 255 255 255 250 233 249 255 255 253 254 254 255 255 255 255 255 255 255 254 211  62  49  78  82  84  87  87  83  81  77  70  81  87  90 118 118 134 128 121 130 109 105 104  99 101  84 104 107 101  99  99  97  97  96 106 106  86  81  75  77  77  73  68  65  64  61  60  57  56  42   6 123 220 246 255 251 241 229 224 229 234 242 254 241 235 249 255 255 252 252 255 255
 255 255 255 254 240 251 255 255 255 255 255 255 255 255 255 255 255 255 255 233  95  37  75  85  84  87  93  84  84  82  86  76  78  89  95  92  99 130 102 117 104 108  93  99  86  83 107 107  96  82  77  81  90  91  87  98  86  86  88  84  74  68  70  63  60  59  61  60  56  36  10 156 232 253 254 253 244 233 226 231 236 243 255 244 239 252 255 255 250 253 255 255
 255 255 255 255 245 251 255 255 254 254 255 255 255 255 255 255 255 255 255 247 135  33  72  87  87  86  90  90  85  85  82  80  73  86  89  85  87  89  91 101  88 101  96  84  88  96 103  98  92  88  88  82  83  86  79  87  91  88  82  77  71  65  61  56  60  61  61  61  57  29  23 193 241 255 255 255 247 235 227 231 237 243 255 247 243 255 255 253 250 254 255 255
 255 255 255 255 249 249 255 255 255 255 255 255 255 255 255 255 255 255 255 252 180  41  65  85  91  90  85  91  89  86  85  82  81  80  87  91  95  97 102 100  99  92  91  91 107 113 111 107 102  91  82  80  88  91  92  92  91  84  75  72  66  61  61  58  60  63  65  61  56  20  53 226 247 255 255 255 250 237 229 233 239 244 255 245 240 255 255 253 250 255 255 255
 255 255 255 255 252 248 255 255 255 255 255 255 255 255 255 255 255 255 255 255 220  68  50  77  91  96  95  91  93  91  88  86  84  85  86  89  90  94  94  98  99  93  90  93 108 105 117 110  96  97 104 105 106  95  91  91  87  77  74  74  63  61  65  63  61  63  64  64  56  16 109 249 251 255 255 255 251 241 232 234 241 245 255 243 242 255 255 251 250 255 255 255
