P2
# Generated by OpenCV 4.2.0
92 112
255
 219 219 218 218 217 218 218 219 218 219 218 218 218 219 219 219 218 218 218 219 218 220 218 218 219 219 217 218 219 219 219 219 219 218 216 219 228 218 190 151 121 105  90  87 117 157 195 227 238 234 228 226 224 222 221 221 221 221 220 220 221 221 220 220 219 220 220 219 219 221 220 219 220 220 220 220 220 220 220 220 220 220 220 220 220 220 220 220 220 220 220 220
 219 219 219 218 218 218 218 218 218 219 219 217 219 219 218 219 219 219 219 218 219 219 218 218 218 217 219 219 219 219 218 217 218 222 224 204 157 121 105  97  94  94  94  85  81  92  92 121 170 187 208 212 221 233 231 234 228 220 221 220 220 220 219 220 220 219 219 220 219 220 220 221 220 220 220 220 220 220 220 220 220 220 220 220 220 220 220 220 220 220 220 220
 218 218 218 219 218 218 218 219 219 218 219 218 219 219 218 219 219 218 218 219 219 219 218 218 219 219 219 218 217 216 218 224 215 187 148 115 100 103 102  96  98 102 108 107  99  92  80  75  86 106 123 130 127 154 179 152 199 233 229 223 220 219 219 220 220 220 220 220 219 220 220 220 220 220 220 220 220 220 220 220 220 220 220 220 220 220 220 220 220 220 220 220
 218 218 218 218 218 218 218 218 218 218 218 219 219 219 218 218 218 218 218 218 219 219 218 219 218 218 218 218 219 222 202 160 123 101 101 112 117 123 127 129 127 125 119 121 122 115 111 108 100 108 101 100  88  95 107  72  97 181 204 219 232 227 221 219 220 220 220 219 221 220 220 220 220 220 220 220 220 220 220 220 220 220 220 220 220 220 220 220 220 220 220 220
 218 219 218 218 218 219 217 218 218 218 218 218 219 218 218 218 218 220 219 218 218 219 218 217 218 218 217 221 207 157 115 108 108 116 118 118 113 110 114 120 117 121 119 122 124 120 117 116 113 105 108  87  81  88  91  93  98 113 111 121 158 195 224 225 219 219 219 218 220 220 219 220 220 220 220 220 220 220 220 220 220 220 220 220 220 220 220 220 220 220 220 220
 219 219 219 219 218 218 218 218 219 218 218 218 219 218 218 218 218 219 218 218 218 218 218 218 216 217 213 178 125 104 109 111 107 108 104  97  97  98  99  96  98  97  94  90  95 102 111 108 111 113 114 113  87  81  89  85  97 110  85  95 106 115 145 205 232 222 219 220 220 220 220 219 220 220 220 220 220 220 220 220 220 220 220 220 220 220 220 220 220 220 220 220
 221 219 218 219 218 218 218 218 220 218 218 218 218 219 219 219 218 218 218 218 218 218 218 215 217 205 148 104 103 102  94  84  86  87  92  92  95  95  99 101  99  91  87  83  81  76  78  86  96  94 100 104 100  89  86  81  99 102  92 109 105 106 113 116 155 217 228 219 220 220 220 220 220 220 220 220 220 220 220 220 220 220 220 220 220 220 220 220 220 220 220 220
 219 220 218 218 218 219 218 218 218 218 219 218 220 219 219 219 218 218 218 219 218 216 212 216 193 126  98 102  92  85  88  93 101 102  99  95  91  96  96 106 105  98 101 104 102  80  72  72  80  86  82  88  95 104  97  88  98  99  85  86  83  83  80  96  86 117 203 232 220 220 220 220 220 220 220 220 220 220 220 220 220 220 220 220 220 220 220 220 220 220 220 220
 218 218 218 218 218 218 218 219 218 218 220 218 219 218 218 218 218 218 220 218 216 212 212 167 104  94  95  88  84  93  97  95  95 101 101 101 106 111 101  99  95  84  81  92 106 101 103  86  74  81  91  89  97 106 107 104  95  98  84  78  85 100 102  97 103  86  79 196 234 219 220 220 220 220 220 219 219 220 220 220 220 220 220 220 220 220 220 220 221 221 220 220
 219 218 218 219 218 218 219 219 218 219 220 218 219 218 218 219 219 219 219 217 215 211 160 103  92  80  71  78  92  98 101 108 100  94  87  82  84  84  86  93  88  80  67  54  47  49  71  92  85  71  79  99 100 110 102 108 102 102  99  86  89 100 103 112 117 125  99  79 207 231 219 220 220 220 220 219 220 219 220 220 220 220 220 220 220 220 220 220 221 221 220 220
 218 218 218 218 218 218 218 220 219 218 218 218 220 218 218 220 220 220 216 215 210 150 101  87  73  70  83 101 105  95  84  67  55  50  45  48  52  55  59  66  71  74  77  75  67  66  57  62  79  90  77  83 101 104 108 107 110 111 111 106 106 108 104  97  97 101 118 104  84 218 227 220 220 220 220 219 219 219 220 220 220 220 220 220 220 220 220 220 221 221 220 220
 219 218 218 218 218 218 220 219 219 218 217 218 219 217 218 220 220 218 217 211 146 101  84  67  71  86 106  91  63  44  37  37  37  33  35  37  44  53  55  58  67  73  78  81  85  71  66  62  64  82  95  84  90 102 100 108 105 101 101 104 110 110 109 104  96  93  87 120 101 130 225 222 221 220 219 219 220 220 220 220 220 220 220 220 220 220 220 220 220 221 220 220
 218 218 218 218 218 218 219 218 218 219 218 218 218 218 220 220 219 217 216 159  99  82  74  78  94 106  77  51  43  46  48  42  41  44  43  43  45  41  31  27  41  47  59  77  74  63  61  63  73  72  78 107  89  97 113 114 100  86  86  88  96 104  99 104 105 101  92  96 126 103 175 229 221 221 221 220 220 220 220 220 220 220 220 220 220 220 220 220 220 220 220 220
 219 218 218 218 219 219 219 218 218 219 219 219 218 220 221 219 216 216 178 101  79  76  82 101 107  78  66  58  46  40  43  45  45  49  56  54  48  43  37  38  38  33  19  38  64  73  61  68  73  82  79  87  98  90 108 112 101 102 103  92  90 104 101  93  93 106 104  96  99 124 134 216 225 222 222 221 220 220 220 220 220 220 220 220 220 220 220 220 220 220 220 220
 218 220 217 218 219 218 218 218 219 220 219 220 219 218 218 215 215 197 113  83  82  91 102  99  72  69  66  58  60  56  47  47  48  45  41  49  51  48  43  43  33  41  39  33  42  64  81  69  73  74  94  83  87  96 117 116 111 109 100  93  81  77  77  70  75  83  96 109 102 102 118 168 226 223 222 221 221 221 220 220 220 220 220 220 220 220 220 220 220 220 220 220
 219 219 218 219 219 218 218 219 219 220 218 219 219 218 214 212 210 138  92 102 103 102  67  39  33  27  24  25  30  32  39  43  33  39  43  33  30  51  57  41  47  43  46  51  49  49  72  82  66  78  87  94  90  95 124 128 106  96  89  80  73  61  61  62  66  62  61  81 101 100  97 130 211 225 224 222 220 221 220 220 220 220 220 220 220 220 220 220 220 220 220 220
 220 220 218 218 218 218 219 220 220 219 219 219 219 217 214 213 175 101 107  98  65  29  23  18  14  17  28  30  26  26  33  38  42  47  49  46  38  41  40  43  42  53  54  46  48  50  50  68  71  70  86  95  91  83 118 140 107  96  82  73  68  66  65  65  74  73  64  62  74 106 102  88 166 230 222 223 223 222 220 220 220 220 220 220 220 220 220 220 220 220 220 220
 217 218 219 219 218 218 218 218 219 219 218 219 219 218 217 202 129 119  95  43  24  30  29  26  25  33  42  43  48  53  44  51  56  56  62  63  41  46  48  44  47  50  64  73  63  61  67  61  76  74  83  90  97 102  98 135 102  71  71  68  68  69  66  71  75  80  84  79  79  94 112 102 106 212 226 224 223 222 222 220 220 220 220 220 220 220 221 221 220 220 220 220
 219 218 218 219 218 218 218 219 218 220 219 220 221 219 218 173 126  97  35  29  32  27  26  28  33  50  56  49  38  29  28  32  39  48  57  56  57  56  44  59  58  56  66  69  79  80  74  70  66  67  84  95  92 105 110 113  96  69  68  69  68  62  59  54  55  50  67  96 103  89  94 105 100 163 232 222 223 222 221 220 219 220 220 220 221 221 220 219 220 220 220 220
 218 219 219 219 219 219 219 219 219 219 219 220 219 218 205 145 109  49  33  42  39  36  41  49  51  38  29  25  27  21  21  34  41  61  69  71  74  86  75  64  67  80  80  69  67  84  89  95  90  84  79  81 100  96 126 105  95  78  81  81  69  57  58  58  61  63  57  62  84 103  95  98  97 110 215 228 223 223 221 220 221 220 220 220 220 220 220 220 220 220 220 220
 219 219 218 217 218 219 219 218 219 218 219 217 216 221 173 117  76  42  54  49  27  29  36  32  24  22  27  33  43  52  49  70  89  94  98  92  94  91  83  80  74  65  76  83  75  80  84  91 101 106 110  69  87  93 127 107 105  94  87  85  78  67  63  58  58  79  90  79  71  96 102  91 105  93 136 230 226 223 222 221 221 221 221 220 220 220 219 220 220 220 220 220
 218 217 218 218 218 219 219 219 219 218 217 217 222 197 123  96  48  49  34  22  18  27  29  18  18  21  19  19  35  53  70  84  88  78  66  60  72  91  78  75  87  78  65  84  96  86  90  97 105 106 114 108  94  99 110 120 112 105 103  93  89  87  71  56  64  79  72  55  52  52  76  99 110 109  94 164 231 224 223 223 222 221 221 220 220 220 220 220 220 220 220 219
 219 218 219 219 219 220 220 219 219 219 219 219 214 132  94  60  37  33  19  20  25  28  24  17  25  36  48  46  36  41  55  57  51  43  43  48  60  80  76  79  75  82  82  76  92  90  82 108 118 108 109 129 124 118 110 132 126 120 118 102  98 110  91  79  84  86  64  59  61  50  50  55  74  96 104 117 189 228 224 223 222 222 222 221 220 219 220 221 220 220 220 220
 220 218 218 219 220 219 219 219 219 219 219 221 169  98  74  30  30  29  20  22  27  26  27  52  75  73  58  56  63  73  52  55  75  76  80  84  78  76  82  80  82  82  94  94 105 109  96  99 126 119 115 143 139 128 122 141 138 126 120 111 115 119 114 109 106  81  84  85  61  47  59  53  63  85  92 100 141 216 228 225 222 223 222 221 220 219 220 219 221 221 220 220
 219 219 219 219 219 218 217 219 219 219 219 195 113  84  42  25  33  16  20  22  23  38  82  93  58  28  39  54  61  64  82  88  97 120 118 101  93  96  93  89  90  94  92 101 109 111 118 110 129 141 129 150 149 141 148 150 146 138 131 125 131 125 127 123 122 122 117 101  77  50  52  52  66  85  96 100 126 181 230 225 224 222 222 221 220 219 220 220 220 221 221 221
 220 219 219 219 219 218 218 220 220 219 215 148  97  66  30  29  10  16  22  22  48  71  54  25  29  73  86  94 113 125 121 123 128 130 142 147 132 129 118 109  96  92  96  95 108 124 125 134 147 160 157 155 151 160 167 159 158 152 151 138 128 127 137 137 133 135 130 120 102  67  40  40  46  56  73  88  95 144 213 230 223 222 223 222 223 220 219 221 220 221 220 220
 219 218 219 219 219 218 219 219 218 218 191 118  81  36  22   8  17  20  17  26  31  20  15  50 103 137 151 167 157 148 148 152 158 160 146 151 157 155 151 153 140 135 143 157 151 143 148 152 150 168 168 163 172 178 172 163 160 157 148 134 131 142 143 149 143 130 132 139 133 117  81  45  40  38  53  77  78 110 191 239 227 223 224 222 221 220 220 220 220 221 220 220
 218 219 219 220 219 218 219 218 217 212 159  97  50  25  10  12  20  13  13  17  22  36  75 124 150 165 168 167 169 175 169 165 176 174 178 161 161 170 167 173 181 163 169 175 176 166 161 169 167 180 177 171 170 173 172 167 157 154 146 141 142 143 146 142 146 150 145 153 157 153 126  71  56  36  32  50  90  99 129 199 217 223 225 222 222 221 220 220 220 220 221 221
 218 219 219 219 218 218 219 217 217 206 142  72  30  14   9  19  11  15  34  47  62  99 155 167 167 172 166 172 169 170 174 176 176 178 179 176 171 178 177 176 184 183 173 176 167 177 171 170 175 177 175 169 165 172 172 171 165 163 164 160 155 151 154 153 150 152 157 153 160 159 141 100  47  35  30  29  37  62  62 117 188 219 226 223 222 221 219 220 219 220 221 221
 219 218 216 217 217 218 218 216 215 193 112  56  21   7  15  17  21  29  45  78 114 157 175 163 168 164 159 167 168 167 170 173 170 171 176 175 174 174 176 179 180 181 181 179 176 183 180 174 172 171 168 166 171 168 171 170 171 171 165 160 153 155 155 151 150 156 158 151 156 159 160 125  58  32  32  29  34  41  59 102 165 226 226 224 222 220 219 221 221 221 221 221
 220 218 215 217 216 217 216 215 207 173  89  46   8  10  13  24  27  29  77 121 142 171 172 166 168 162 165 169 163 161 168 169 169 169 175 172 169 171 175 175 176 181 180 181 182 188 184 180 175 176 180 181 179 175 175 175 167 170 168 165 159 159 157 149 152 157 151 147 150 155 161 150  81  39  25  19  25  33  47  89 208 229 226 223 221 221 220 220 220 220 221 220
 219 218 218 217 217 215 217 217 198 137  73  28  10  20  30  28  36  73 102 124 150 166 165 164 162 164 165 164 164 171 171 163 166 174 177 176 170 172 176 174 178 181 180 183 184 182 176 179 179 180 181 182 178 175 181 178 172 171 173 169 166 160 157 154 157 153 150 151 152 153 144 138 117  59  32  28  32  49  17 106 231 224 225 224 225 222 220 221 220 220 221 220
 215 216 218 218 218 217 217 219 188 103  55  13  17  28  28  33  68 106 125 136 158 163 162 163 158 161 161 165 167 166 165 168 173 176 178 175 172 172 177 180 181 181 180 181 179 177 178 172 173 176 182 181 178 179 183 181 181 176 170 171 168 159 152 158 154 152 147 150 153 153 152 126 109  89  54  38  43  50  10  73 214 225 221 214 215 220 222 222 220 220 221 220
 214 213 215 219 218 217 217 219 166  97  31  11  22  13  26  56  88 106 122 132 147 152 158 160 157 159 159 165 165 166 172 171 176 179 177 181 182 181 181 180 181 180 181 182 180 182 183 180 176 178 182 179 175 175 179 181 177 176 170 168 166 157 158 157 151 155 154 152 151 152 154 142 116  87  66  62  77  63  28  59 192 222 211 129 109 151 228 220 221 221 221 220
 212 213 215 215 216 216 218 208 152  74  15  20  14  12  36  88 104 113 128 142 151 154 162 156 162 165 158 163 168 173 178 179 185 183 185 187 183 181 179 176 176 176 177 175 177 179 180 176 174 174 176 176 177 178 178 178 177 171 173 169 164 159 160 157 155 153 156 154 142 151 155 139 133 117  97  79  74  67  55  45 183 229 213 128 125 105 195 229 221 222 221 220
 212 213 214 214 214 214 214 190 145  34  15  20  19  27  52  94 100 112 131 142 147 155 160 156 166 165 158 164 172 173 180 178 177 180 180 180 180 182 181 181 180 176 176 178 179 176 176 176 176 178 180 181 183 180 180 179 176 173 171 170 160 165 165 160 157 154 152 150 145 150 151 134 124 128 116 102  87  57  67  71 182 229 214 118 109  99 144 232 221 221 221 220
 212 214 214 212 214 213 207 193 130  14  22  19  25  32  70  97 115 134 141 143 144 153 154 155 161 171 160 162 167 174 173 168 167 174 175 175 175 176 180 184 180 179 179 179 184 185 180 179 179 179 179 179 182 175 176 180 177 172 171 173 171 167 165 166 162 159 157 150 149 153 154 148 137 128 115 100  77  63  55  41 171 238 209 124 120 109 114 210 226 221 221 221
 213 213 213 213 212 210 199 195  78  18  29  31  27  47  67  85 105 116 128 143 145 149 151 155 162 162 161 163 165 174 179 174 179 179 183 176 171 172 176 179 178 177 176 177 177 176 175 172 172 172 173 171 171 172 168 167 165 164 163 162 159 155 157 161 156 153 155 148 148 153 158 153 134 130 124 100  80  70  60  38  85 232 214 125 115 114 102 158 233 220 220 221
 213 213 213 213 212 213 200 157  40  42  36  31  36  60  87 106 125 137 146 145 144 146 153 157 159 161 166 161 163 176 176 172 176 176 178 176 174 174 173 174 172 172 174 172 173 171 169 170 171 172 171 166 167 169 166 164 167 166 167 163 162 159 158 156 159 155 151 148 145 142 157 161 155 135 137 127 108  72  57  75  88 176 225 115 117 119 105 103 218 224 221 220
 213 213 213 213 212 213 200 113  64  39  30  39  56  42  71 110 137 153 163 158 150 146 154 154 156 165 168 167 160 164 167 170 167 167 169 169 170 172 176 177 176 175 173 172 173 173 172 173 176 177 176 173 176 169 169 168 168 166 166 164 165 163 164 163 161 155 154 149 149 142 151 154 159 164 155 143 113  62  49  72 123 156 216 118 114 112 116 106 164 235 220 221
 212 213 213 213 213 211 209 111  54  29  36  59  42  33  74 123 149 161 161 156 153 150 150 156 159 166 168 166 158 159 163 164 164 162 161 161 160 157 161 165 169 167 168 169 169 170 170 169 168 169 167 163 165 164 162 165 162 162 161 159 158 157 163 162 153 156 152 151 151 152 152 156 162 169 172 168 131  72  31  48 105 176 203 120 110 123 129 117 106 222 223 221
 213 213 213 213 213 211 215 170  46  28  50  61  32  43  79 119 162 167 160 151 152 145 149 155 160 161 159 163 166 166 161 166 167 161 162 164 164 164 163 162 164 163 166 166 167 168 167 168 166 168 169 169 170 165 161 160 161 166 168 156 155 158 156 155 155 154 150 149 149 153 155 158 161 162 169 178 143  78  38  35 143 184 205 125  98 157 177 102 104 174 234 220
 214 213 213 212 212 212 211 221 193  53  42  64  40  38  68 128 170 169 155 151 150 146 153 153 155 160 162 157 159 153 151 163 170 168 171 168 167 168 171 168 166 169 168 168 168 169 168 169 169 170 172 168 166 167 170 169 161 161 165 156 158 164 162 155 160 161 156 152 148 152 154 158 155 152 167 177 148  91  57  44  80 165 224 122  93 158 219 116 115 120 226 222
 216 213 212 211 212 213 211 212 237 156  39  62  36  30  56 130 169 165 153 153 148 145 149 152 148 158 162 157 151 153 159 168 166 164 168 171 172 169 169 166 169 171 171 171 170 168 167 168 170 169 171 172 172 165 168 167 162 164 167 167 168 166 163 158 160 164 163 159 155 154 153 156 155 145 161 173 150  88  62  47 104 233 224 116  97 152 244 157 114  95 177 233
 214 212 212 213 213 212 211 216 145  95  65  40  17  17  57 129 162 163 154 150 149 145 145 146 152 150 162 159 153 157 167 170 165 163 165 168 170 173 173 172 171 167 168 174 171 166 164 168 168 168 169 172 174 169 172 173 173 169 166 166 166 165 163 158 163 163 162 160 157 160 155 151 155 154 158 171 148  80  71  55 146 220 215 118 101 151 237 207 105  97 123 233
 212 210 212 213 213 211 217 186 105 143  60  26   8  27  71 118 158 162 157 149 147 147 143 144 158 154 168 166 162 167 176 177 174 173 174 175 173 173 174 172 175 177 176 178 172 170 168 171 174 173 170 171 172 176 175 173 172 170 167 169 169 173 173 165 157 151 149 163 155 153 155 151 155 157 160 166 140  85  53  90 141 158 167 153 104 139 233 232 139 114 116 183
 211 210 212 211 212 211 212 182 120  97  51  48  36  47  66 115 156 160 157 149 144 146 139 148 150 151 148 155 161 170 168 175 180 181 179 180 176 173 174 174 176 178 176 175 179 178 177 179 173 176 178 177 175 178 174 171 172 171 173 174 171 159 144 128 112 112 111 122 143 152 153 151 153 155 158 164 131  91  62  79 137 143 136 151 122 148 231 228 201 108 106 111
 211 211 211 211 211 212 213 187 119  98  87  56  52  60  77 113 149 156 155 145 142 144 140 150 143 134 113 106 117 131 133 135 143 155 158 169 174 174 172 177 173 175 175 172 180 175 171 170 170 169 178 173 172 171 171 170 173 168 153 134 122 116 103 106 101 105 103 100  94 122 150 154 153 153 156 166 123  84  70  89 127 134 126 147 125 145 233 221 228 133 112 117
 211 211 211 211 211 211 211 198 152 121 138 120  89  86  65 102 151 152 154 147 142 148 149 126 108 102 106 104  92  98 118 111 101 110 113 122 133 157 168 173 169 170 169 177 177 167 171 165 168 164 171 170 167 169 173 163 139 108  93  87  91  88 106 125 131 140 128 120 108  98 126 154 154 153 155 165 124  87  95 133 156 150 143 147 113 145 232 219 229 191 113 129
 211 211 211 211 211 211 207 202 173 136 147 154 106  76  71 105 148 152 147 150 148 153 138 104 104 130 145 154 150 150 151 149 131 126 109  96  95 103 123 142 155 158 163 173 167 161 169 169 169 154 162 161 155 160 146 105  72  65  82  99 120 137 160 164 157 157 153 142 124 112 114 149 156 154 160 162 123  91 103 133 161 155 154 144 108 138 234 221 222 224 129  98
 211 211 211 211 211 211 209 209 177 133 124 130  80  78  83  99 141 154 136 146 147 151 134 117 124 132 139 153 168 168 172 170 172 165 148 128 108  99 101 113 136 151 162 166 158 166 171 173 170 153 146 145 134 131 104  80  73  88 113 133 162 174 172 168 159 145 143 140 129 130 129 141 153 154 160 160 113  93  94 120 148 143 162 132 114 156 231 221 219 226 201 169
 211 211 211 211 211 211 211 211 190 128 119 106  80  83  92 100 132 153 142 149 147 149 147 145 138 133 132 139 153 160 161 166 174 173 171 155 137 119 114 113 123 139 153 156 160 172 173 174 166 159 150 129 113 103  96 101 120 134 149 170 182 187 176 166 149 143 142 145 142 129 124 141 153 153 162 159  97  88  97 131 149 142 167 134 104 142 233 221 221 219 226 232
 211 211 211 211 211 211 210 210 196 130 107  87  89  90  84  92 124 148 150 146 148 146 146 146 151 138 136 136 130 139 156 161 147 157 147 132 118 130 140 129 113 113 128 135 154 171 170 171 171 160 147 119 106 107 127 133 115  95  92 110 146 134 134 147 155 154 143 145 143 136 131 143 151 151 160 162  97  71 110 141 146 145 170 174 160 180 227 221 221 220 220 220
 211 211 211 211 211 211 209 206 190 152 129 125 112  89  81  80 119 143 153 143 147 144 136 134 137 134 135 141 137 106  82  40  81  62  92  60  94  42  66 122 136 122 107 112 144 165 167 169 166 158 147 120 112 102  96  71  46  89  48  21  61   7   0  26  54  95 132 137 137 127 124 138 140 153 161 168 106  50 115 139 153 157 180 230 237 230 221 221 220 220 220 220
 210 211 211 211 210 210 209 203 195 183 152 163 126  82  72  88 122 142 150 145 139 133 135 117 113 128 125  98  87  77  53  10  54  49  56  97 202 150  91  59  90 109 100 103 148 171 172 174 172 163 147 122 108  87  92 100  93 160 142  77  74  70  67  85 101  70  57 105 132 125 120 125 138 152 162 164 114  85 132 144 152 164 211 230 223 221 221 221 220 220 220 220
 212 211 211 211 211 210 211 206 203 197 167 164 132  95  78  96 122 140 148 147 153 135 112 109 105 121  86  52 104 151 155 137 100  84  89  96 121 115 123 124  87 106 104 109 146 164 169 166 167 161 143 114 130 135  88  88  90 109 117 125 143 151 142 135 132 122 100  78  86 111 122 133 138 143 153 152 121 140 152 144 152 177 233 228 224 223 221 220 222 221 221 221
 211 211 211 211 211 211 211 209 206 197 172 172 136  90  83  80 123 153 154 146 133 141 142 113 105  83  64 103 134 138 152 161 165 160 154 135 124 123 120 126 120 120 104 108 147 161 168 167 161 154 142 114 143 139 106 106 121 133 127 134 145 153 144 133 128 132 137 129 104 103 128 141 139 147 156 149 111 128 160 167 162 152 224 244 239 235 235 234 226 221 220 221
 211 211 211 211 211 212 211 209 207 197 167 165 141  79  81  85 132 155 148 144 135 129 135 135 100  94 126 122 143 147 156 151 146 154 150 148 146 140 142 157 165 109  92 120 147 158 168 172 169 149 139 120 128 151 143 123 130 141 145 149 150 148 142 135 136 139 137 136 140 132 131 141 145 152 155 153 126 145 167 183 165 108 173 165 142 149 147 171 203 224 233 221
 211 211 211 211 211 211 210 209 208 199 166 165 135  83  90 110 135 152 152 154 149 157 159 158 136 124 111 117 126 145 138 142 139 149 156 152 148 144 150 152 138 103 107 130 143 161 166 166 165 146 136 136 125 138 132 123 133 142 147 149 151 150 149 146 145 145 150 139 136 144 150 151 154 150 149 152 152 163 149 169 172  83 127 110 104 115 111  97 105 127 177 223
 211 211 211 211 211 211 210 209 208 203 171 170 147  97  71 122 127 151 154 149 148 151 151 149 148 159 149 143 136 141 144 149 154 155 151 144 137 137 145 153 134 114 119 127 135 162 167 164 153 139 129 142 139 129 131 135 132 135 142 141 148 153 158 151 151 149 143 143 154 146 140 149 153 159 158 157 157 137 157 172 165  76 128 121 103 111 101 104 124 117  72 155
 212 211 211 211 211 211 211 210 208 205 172 167 162  90  93 139 114 151 153 149 152 145 143 157 164 156 145 137 127 136 151 142 138 135 136 136 143 145 163 170 135 129 124 121 142 164 162 165 159 137 127 137 127 140 144 148 142 140 140 140 141 144 138 148 152 150 152 155 153 149 149 147 147 150 157 159 130 128 169 178 160  72 110 181 178 178 154 131 102  94 112 213
 212 211 211 211 211 211 211 210 208 205 173 154 163 130 129 142 113 140 150 150 149 153 160 158 150 147 151 154 162 163 156 151 146 155 155 162 166 167 173 165 128 136 128 120 145 163 166 166 165 144 123 140 139 140 137 143 156 165 167 156 152 152 152 153 161 163 162 158 147 141 148 151 150 148 151 159 130 134 166 174 162  76  81 220 245 235 237 231 205 129 178 232
 211 211 211 211 211 211 211 210 208 203 173 152 154 156 134 154 116 138 152 153 145 149 154 155 148 154 154 156 162 159 163 161 157 163 163 170 162 166 164 145 132 132 124 125 146 159 165 166 163 149 125 136 153 146 143 139 147 152 168 171 170 166 168 167 168 166 169 160 150 146 148 148 145 147 149 150 151 162 158 169 169  87  69 177 240 225 223 223 228 232 226 220
 211 211 211 211 211 211 211 211 208 203 174 159 166 174 124 138 132 141 151 149 144 147 149 155 147 157 155 159 165 160 165 167 168 167 163 167 163 163 156 138 135 135 126 129 142 157 167 166 159 152 131 125 152 154 150 145 149 149 156 164 169 170 166 164 164 162 165 162 155 153 150 149 144 149 154 146 144 169 163 172 170  90  72 141 243 225 223 222 222 221 220 220
 211 211 211 211 211 211 211 211 208 204 179 163 166 178 142 126 136 130 146 147 149 144 150 151 151 157 161 167 166 167 168 171 172 170 169 166 172 169 158 152 134 131 129 127 142 160 170 170 161 151 142 122 144 157 148 151 160 163 166 165 166 166 164 166 163 166 167 163 160 156 154 154 151 149 151 150 158 171 175 183 155  84  79 113 244 238 227 223 222 221 221 221
 211 211 211 211 211 211 211 211 208 204 186 165 158 171 164 132 116 133 146 147 147 146 141 148 153 161 158 164 169 172 173 171 169 169 166 170 175 174 163 142 120 127 131 128 143 163 167 168 160 150 150 142 133 144 130 136 153 166 170 173 171 167 170 168 167 169 168 163 158 154 152 154 150 143 150 140 156 174 174 188 141  85  97  99 176 184 216 233 235 224 219 219
 211 211 211 211 211 211 210 210 209 205 189 171 162 159 163 152 124 129 140 149 143 139 141 151 157 160 159 169 169 166 169 169 172 170 167 168 169 168 142 113 113 127 130 136 149 160 165 165 157 152 151 152 140 129 125 124 136 152 159 168 171 172 171 175 174 174 170 162 158 154 155 153 140 147 145 138 149 170 172 185 139 100 119 114 136  86 111 134 163 220 232 220
 211 211 211 211 211 211 210 210 208 205 190 171 171 155 156 145 127 126 132 147 139 135 142 158 155 156 162 168 169 166 170 173 165 168 165 165 165 151 117 114 118 123 126 144 147 160 164 164 159 157 153 149 148 130 124 121 131 134 135 152 161 168 169 170 170 170 169 165 156 151 153 155 147 144 144 133 145 172 173 184 131  93 127 116 158 122 114 106  90 100 191 229
 211 211 211 211 211 211 210 210 209 206 191 170 171 165 157 144 137 132 132 142 146 133 141 155 151 155 162 167 172 173 172 173 168 168 165 162 148 108 110 115 126 119 134 144 149 164 163 161 162 165 154 147 143 134 136 130 125 132 115 122 136 159 171 170 169 168 166 162 157 156 153 148 142 138 141 130 141 170 167 183 123  84 134 127 156 138  96 103 116 109 100 209
 211 210 211 211 211 211 210 210 209 209 190 167 181 170 158 155 130 131 131 142 136 125 145 147 142 153 156 151 173 176 171 170 168 168 163 143 101 112 104 123 132 127 140 146 154 164 162 163 166 168 154 146 141 141 138 136 130 139 132  96  97 129 161 170 170 168 165 165 155 153 158 148 140 137 136 124 146 165 172 182 120  87 130 142 139 216 203 151 106 121 104 153
 211 211 211 211 211 211 210 209 210 209 186 145 187 170 161 162 127 125 136 144 134 121 135 148 143 149 151 154 165 167 170 172 169 165 143 100 109 143 110 125 136 134 141 148 161 167 164 166 168 161 152 145 141 138 139 136 125 142 151 143  95  83 129 162 171 172 167 160 156 153 154 148 144 135 127 126 142 164 173 175  85 104 122 151 134 203 240 243 190 113 106 126
 211 211 211 211 211 211 210 209 210 210 188 119 167 179 175 171 130 129 140 147 140 130 134 148 148 149 155 161 164 166 169 171 162 143 108 114 145 144 125 107 120 127 135 152 165 164 160 164 167 160 148 133 124 112 114 114 125 146 149 153 156 107  77 131 167 168 164 163 154 150 151 143 134 141 136 138 155 166 183 162  48 114 117 147 142 195 232 225 226 124  90 135
 211 211 211 211 211 211 210 210 209 210 192 113 103 193 176 182 137 114 132 138 138 138 130 141 146 149 151 156 160 164 165 163 137  98 121 138 140 128 132 113  92  69  94 134 152 152 148 155 161 148 123 117  88  61  64 110 130 130 142 148 141 152 114  81 140 155 160 161 151 149 148 146 138 140 137 119 154 175 189 136  39 104 127 139 155 195 235 234 215 115 100 138
 211 211 211 211 211 211 210 210 208 211 193 126  31 121 186 179 149 118 142 137 144 141 137 140 142 150 149 150 160 163 165 144 107 125 151 133 128 121 117 121 115 102  70  73 122 142 140 133 130 115 109 100 104 102 113 122 118 119 138 135 134 142 158 104  85 145 153 143 138 146 142 143 140 138 138 125 154 186 165  95  57  82 138 135 162 205 236 203 136 107 103 156
 211 211 211 211 211 210 210 210 209 209 200 126  43  17  58  80  59 128 146 146 149 140 130 135 126 148 142 152 159 160 148 105 113 135 140 124 120 112 112 111 106 103  96  54  67 104 122 111  93  88 109 115  86  85 100 117 104 106 127 120 124 143 142 148  83 107 151 145 138 138 144 143 144 141 131 131 126 118 104  83  74  83 128 136 157 153 134 102 111 103 118 213
 211 211 211 211 211 209 210 210 209 208 206 126  55  23   0   0   0 108 142 139 137 137 126 140 132 148 142 147 155 148 118 103 137 140 132 122 106 106  91  96  93  95 100  85  86  81  93  91  99  98 105 123 103  98 101 108 106 103 112 124 118 122 139 139 124  78 139 149 149 136 138 142 141 139 128 126  44  32 103 106  75  90 118 142 158 136 118 114 101 116 203 229
 211 211 211 211 211 209 210 210 209 206 205 125  47  16   4   7   2  76 155 140 133 134 132 137 127 142 146 154 156 134  90  90 124 146 142 138 123 119 107 107 102  77  95  99 114 128 131 111 137 108 127 126 115 119 117 118 109 107 100 129 125 129 147 139 132  72 125 160 149 142 137 148 141 138 142 130  60  50 111 119  96  98 119 144 157 124 102 125 159 212 229 220
 211 211 211 211 211 209 210 210 209 205 202 118  44  15   5  13   0  28 138 153 144 127 132 129 127 135 146 155 155 146  98  96 130 143 119 127 130 132 137 118 118 110 118 135 136 125 138 152 157 114 117 147 122 126 109 123 128 119 123 136 121 122 138 132 115 101 117 164 147 141 142 138 145 145 144 136  71  60 119 121 104 101 113 161 182 199 202 227 236 227 220 220
 211 211 211 211 210 209 210 210 210 206 198 111  43  13  10  18   0  23 138 151 148 123 134 144 134 140 137 148 157 156 112 116 112 129 139 135 126 137 133 142 148 139 136 147 114 131 137 147 161 154 119 134 129 132 134 132 129 137 130 138 121 123 105 120 104  94 135 158 148 131 137 142 139 134 137 116  59  76 105 114 107 101 116 176 195 235 234 224 223 222 220 220
 211 211 211 211 210 210 210 210 210 206 198 114  45  15  18  18   2  18 106 144 148 130 131 136 127 137 140 150 158 176 111  95 116 122 136 122 125 143 134 162 166 156 143 140 158 152 150 154 161 166 153 159 155 134 146 141 144 154 137 131 123 124  97 110  95 128 154 154 149 134 138 135 137 139 135 139 105  94  94 117 109  92 117 186 195 224 227 222 222 222 221 221
 211 212 211 211 210 210 210 210 211 206 195 113  50  20  23  20   4   0  81 163 155 142 139 136 140 130 121 135 159 169 150  97 106 120 126 119 110 121 117 118 129 131 146 142 133 143 150 156 156 146 142 137 130 129 130 132 129 127 111  96  81  91 105 119  95 131 171 155 150 138 140 143 145 141 135 100  72 108  88 121  99  94 100 178 213 221 227 223 222 222 220 219
 211 210 211 211 210 210 210 210 210 206 192 117  60  25  24  20   6   0  50 160 146 131 136 135 133 118 118 138 155 156 177 134  89 126 101  94  87  83  75  68  53  63  78  87  96  87  97  99 102 109 107 113 100  97  90  81  87  76  81 112  96  59  91 108 124 151 166 157 137 141 141 139 149 147 128 104  81 112  86 109 105 104  86 164 227 221 224 222 221 221 221 221
 211 211 211 211 211 210 210 210 210 206 192 121  67  30  26  18   7   0   5 119 135 117 127 129 127 115 115 129 137 138 171 171 144 114  86  94 117 151 153 137 113 112 127 129 137 125 124 120 111 130 134 135 133 127 120 127 132 133 139 149 127 100  93  79 109 164 155 149 133 138 136 126 143 151 146 117 106 114  91  82  95  99  99 132 222 225 224 223 221 221 221 221
 211 211 211 211 211 210 210 210 210 205 192 128  75  35  32  15   8   2   0  78 121 114 114 125 130 117  98 106 116 128 153 158 146  97 102 106 132 148 144 150 147 151 146 143 140 149 154 150 148 156 151 150 139 131 131 139 132 132 129 128 125 119 108 100 138 160 143 135 130 134 135 136 143 142 137 101 116 107  81  72  70  79 105 120 210 228 223 223 222 221 221 221
 210 210 211 210 211 210 210 210 210 205 190 134  82  33  34  15   8   7   0  47 121 104 128 126 123 128  91 101 110 114 129 132 126  99 103 105 130 149 139 129 137 155 152 145 143 150 158 153 155 150 157 152 134 125 125 140 130 132 135 145 142 109  87 119 143 150 150 134 128 131 121 133 134 126 132  85 119 106  74  54  61  71  86 135 195 230 223 224 222 221 220 221
 211 210 211 211 210 209 210 210 210 205 185 133  92  34  42  15  10  13   1   8 100  93 110 127 118 123 125 102  82 101 122 126 115  96 106 110 129 140 140 120 122 134 136 143 146 135 153 155 148 137 136 136 141 128 123 136 137 137 141 144 139 107  85 115 128 141 135 131 117 132 127 125 121 120 103  66 131 104  63  53  62  60  74 136 183 232 222 222 222 221 220 221
 211 211 210 212 210 210 210 210 209 205 181 132 104  39  43  18  15  20  13   0  34  79  89 108  85 105 129 124 107 105 128 126 110 111 131 116 121 133 138 122 117 110 126 127 142 116 125 123 120 133 119 122 126 136 119 115 129 130 133 131 125  99 104 122 117 122 110 114 119 116 120 124 118 122 119  81 133  99  53  52  60  45  72 120 171 222 226 223 222 221 221 220
 210 211 211 210 210 210 210 210 208 204 172 135 108  52  48  24  15  29  27   0  12  92  96  78  95 106 126 125 111  86 104 124 105 130 136 135 122 114 139 136 125 114 120 127 121 128 129 118 105 123 123 121  93 117 119 113 115 128 125 129 123 112 114 122 120 105 120 112 104  98 113 116 112 114  92  75 135  88  55  46  50  46  48 106 171 218 228 223 222 223 221 220
 210 210 210 210 210 210 210 210 207 202 172 143 108  58  57  24  17  33  31   2   1  57  71  71  95 108 120 113 124 102  89  92  79 104 125 136 128 116 133 138 134 134 111 125 121 155 131 130 140 125 128 135 109 111 120 128 126 131 131 128 122 132 124 131 128  95 105 113 110 106 104 113 110 104  54  80 131  88  38  39  43  58  37  72 141 216 230 223 222 222 221 220
 211 210 210 210 210 210 209 209 205 196 176 146 112  65  61  32  21  43  30   3   0  37  66  79  85  90 106 103  93 122  58  79 108 123 131 124 132 126 114 130 143 143 127 148 131 142 142 137 145 137 138 145 142 137 126 131 140 138 130 119 118 133 139 135 128 109  75  76  95 126 111 115 109  94  24  94 120  86  46  35  34  52  48  49  95 211 230 224 223 222 221 221
 209 211 210 209 210 209 209 207 204 191 180 135 114  75  68  39  31  46  17   1   6  14  82  86  76  69 104 108 104 114  63  75 103  98 130 135 134 107 109 120 140 153 150 147 137 121 114  77 112 130 111 128 139 148 149 143 147 137 126 139 126 117 119 120  98  84  93  82  97  97 105 109 106  58   8  93 116  81  57  33  28  52  59  47  68 172 236 223 223 222 220 221
 211 210 210 210 210 210 207 206 203 194 175 126 120  85  75  46  45  40   5   4   5   4  67  74  81  70  87 107 107 109  58  80 102  95 128 132 133 127 113 111 146 160 157 146 147 147 137 117 124 126 140 143 151 142 143 148 156 131 126 133 142  99 112 122 113  78  82 106  86  78 116  90  98  64   4  90 116  92  57  45  21  44  93  69  53 111 232 221 221 220 219 220
 210 210 209 210 210 209 207 206 203 199 163 108 125 100  75  61  58  27   5   4   9   0  74  85  64  64  77 115 106  76  58  92 107  98 128 121 134 123 121 117 146 158 149 146 141 139 143 158 151 136 141 159 141 133 129 133 154 132 136 129 109 106 132 125  90  87  65  94  98  86  86  72 100  74   7  85 106 105  53  40  25  27  93 122  61  82 202 232 221 221 220 221
 208 209 210 210 210 209 207 204 198 200 145 116 131 112  76  67  75  21   4   2  15  11  46 109  54  66  53  81  79  98 119  76  97  85  94 121 134 151 129 121 125 124 120 135 134 140 151 155 156 153 149 147 144 134 120 121 130 114 120 120 109 106 123 120 100  78  65  82 104  96  52  87 116  87  26  72 103 110  80  38  35  23  80 155  91  59 164 238 222 222 222 221
 209 210 210 209 209 209 206 201 195 191 125 131 136 117  89  80  91  15   5   4   3  12  32 104  71  32  39  75  95 108  91  66  86  86  90 104 113 149 142 127 129 109 108 132 142 138 148 144 153 153 148 141 138 145 126 123 118 122 116 124 123 111 112 120 104  59  92 103 102  80  65 102 120 105  90  59 106 106  98  64  36  27  66 158 123  59 142 234 222 222 223 221
 210 209 210 210 209 209 205 197 192 177 117 144 131 118  97  90 100  15   5   3   0   0  21 100 105  50  22  35  60  94  46  77  89  91  79 103 125 114 132 137 136 125 133 140 153 152 146 146 161 146 131 136 129 140 140 133 119 128 139 125 132 125 128 102 103  94  86  75  96  65  85 103 117 110 135  60  93  98 101  94  57  37  38 160 156  75 120 227 222 221 223 221
 210 210 210 210 210 209 204 194 191 158 136 152 132 116  88  86 104  15   6   2   0   0  13  92 102  83  42  70  54  56  73  80  89  79 119 114 125 128 131 133 131 131 118 120 162 137 130 153 159 140 143 145 130 128 128 129 112 128 154 127 128 129 113 102 110 116  88  68  57  77 112 110 121 116 153  94  87  83 114  84  62  52  27 128 170  85 121 219 224 221 221 221
 210 210 211 210 209 208 203 194 185 151 138 142 135 121  68 101  89   7  13   1   0   1   0  90  87 105  67  67  48  38  47  59  90 101  85 112 120 141 133 142 138 135 113 119 137 142 146 145 152 147 142 144 136 117 141 127 125 108 139 118 124 134 127 116  81  81  75  65  62  85 117 128 125 120 146 135  84  84  87 103  59  48  44  79 162 100 149 235 236 235 234 225
 211 210 210 209 209 207 202 193 184 156 133 128 139 129  71 116  83   2  14   4   1   1   0  76 104 102 101  57  39  23  34  56  75  81  45 123 127 140 124 128 139 131 127 131 122 128 145 124 147 159 163 161 148 123 130 108 121 106 138 133 123 126 124  95  89  79  69  49  72 104 123 126 118 138 145 155  83 101  68  81  82  47  49  56 116 107 142 177 163 160 155 190
 209 210 210 209 209 207 201 193 180 157 119 125 131 122  74 123  81   2  12  19   4   1   0  43 113  95 105  84  32  30  31  20  24  78  54 108 112 134 140 131 139 134 137 137 137 119 104 119 156 166 156 154 133 151 119 109 127 122 134 147 121 120 106  68  75  56  52  87 103 120 127 123 110 168 164 161  98  70 111  73  75  65  50  46  87 108 146 117 105 101  88 163
 210 210 210 209 208 204 198 192 174 156  97 126  81 125  71 129  64   4  11  37  11  24  39  28 106  99  90 109  78  52  51  27  34  44  52  80 124 139 125 144 139 132 137 135 135 141 109 106 125 146 138 133 116 135 100 115 125 140 133 128 122 121  87  53  48  67  70  84 115 126 125 121 115 192 188 178 139  61  84 105  71  70  56  38  74 121 138 113 117  96  82 159
 210 210 209 206 204 202 196 191 172 131  89 126  47 132  63 127  63   9  15  39  36  95  73  17  97 114  91 101 117  75  57  76  48  38  39  33 111 119 111 143 133 140 145 132 119 136 120 134 114 124 134 110 129 125  89 117 121 148 136 133 111 115 104  56  65  88  95 119 131 121 120 119 131 204 191 179 158  90  58  88  69  58  57  37  66 114 155 185 180 173 162 198
 210 210 207 204 202 200 194 189 163  99 117 113  40 124  72 112  67  12  29  49  76 145 105  12  85 116 101  99 108 114  79  64  76  52  21  33  95  92  99 141 131 134 143 121 114 112  91 120 113 131 132 113 123 101  86 143 129 112 136 120 125  95  62  75  71  73 123 127 131 127 125 120 157 205 192 186 166  98  59  56  73  55  49  45  68 106  92 148 221 250 249 228
 210 209 206 205 205 202 192 187 142 101 120  85  41 115  84  97  74  20  59  71  89 126 126  16  84 112 112 105 101 121 116  71  71  90  80  51  55  37  85 105 137 133 128 108 100  98  98  98 108 122  94 114 117  95  78 121 127 122 125 100  84  86  56  82  64 104 137 132 129 128 132 128 181 199 194 191 190 113  49  24  50  61  49  48  57 109  83  45  52  98 171 228
 210 209 207 208 207 205 192 182 127 120  94  74  43 118  99  90  85  32  77  85  98 122 136  29  64 110 117 114 116 109 118 127  80  55  94  74  32  42  66  97 117 127 129 130  84  82 115 105 114  96  71 104 111 105  83 123  87 125 132 102  71  67  97  76 116 140 133 132 129 130 129 152 197 195 197 184 193 144  52  28  40  57  47  52  53  99  79  50  44  31  26  71
 209 209 207 207 208 206 191 172 130 110  77  60  45 104 112  83  96  41  70  91  93 133 156  42  39 109 114 120 111 125 124 119 123 112  80  54  63  58  61  65  95  84  90 108  79 107  80  85  92  83  65  68  54 113  97 113 109  92 105  86  87  90  82 127 144 130 132 133 135 130 134 169 198 193 195 190 200 172  58  21  31  46  47  59  56  77  65  40  41  44  41  30
 209 209 209 208 208 205 193 171 128  90  65  46  49  88 116  91  94  55  73  72  90 146 191  58  18 105 112 119 120 131 126 126 130 133 122  88  69  77  71  57  48  83  67  66  75 106  46  66  78  73  54  66  61  76  51  63 106  51  68  87  82  94 134 139 133 140 136 141 133 133 147 182 193 193 196 197 200 195  67   5  24  42  56  56  48  67  53  39  38  42  42  35
 209 209 210 209 210 221 188 155 121  93  54  38  37  75 117 106  96  79  82  73 101 169 214 108   9  86 118 113 124 127 132 129 127 127 134 124 110  98  91  65  57  82  81  63  80 111  83  78 118 120 119 117 120  99  64  64  77  93 101 112 108 123 147 139 137 140 142 143 131 135 136 193 196 194 195 197 198 205 104  12  29  55  58  49  57  58  37  33  35  37  39  34
 209 208 210 224 212 123  71 130 127  87  50  39  26  52 114 109 104  99 109  91 106 188 215 155  12  55 121 113 120 124 132 137 134 132 136 135 142 127 119 126 100  69  78  65  65 103 101 108 122 129 132 120 112 103  91  74 100 129 109 111 127 135 135 146 143 141 141 136 132 116 140 202 199 197 197 197 198 209 122   6  44  77  58  52  53  39  31  30  32  35  36  36
 208 220 214 148  59  20  53 128 124  84  44  29  38  44  76 110 111  97 127 106 127 195 202 192  46  31  95 131 119 123 129 134 138 143 139 132 143 131 124 127 140 126 119  93  88  87  85 101 110 117 117  91 100  85  93 105 121 118 118 118 130 136 142 146 141 138 141 139 140  88 163 202 200 197 197 198 198 207 147  10  51  78  59  52  44  32  30  29  30  32  33  35
 225 165  69  14  33  55  58 113 115  90  43  26  39  48  31  85 124 105 134 126 154 196 198 209 107  26  68 118 129 122 126 131 133 140 145 138 135 137 131 116 121 136 141 134 130 115 102  80  79  82  87  69  87 121 131 125 126 114 122 129 138 143 145 141 144 143 141 143 113  88 195 199 198 198 197 197 200 203 155  35  85  64  56  43  32  32  30  29  32  31  32  34
  80  22  19  39  47  44  45  73 108  99  44  31  26  31   7  34 121 109 132 147 170 194 195 207 183  57  58  85 128 129 125 131 130 131 140 145 139 136 133 128 119 121 124 132 152 132 122 123 117 123 126 122 121 117 123 119 116 119 131 141 150 142 138 144 145 146 140 130  72 131 207 198 198 198 198 200 202 199 157  81  81  68  46  33  33  32  30  32  31  30  31  34
