P2
# Generated by OpenCV 4.2.0
92 112
255
  74  74  76  73  75  74  75  74  74  73  75  74  73  73  75  75  72  73  72  73  73  71  71  73  74  75  73  73  74  78  78  71  70  68  65  66  71  73  76  82  91  88  73  47  30  41  40  42  69  91  75  20  35  39  34  39  57  72  70  66  66  67  63  63  70  71  70  67  67  67  66  67  66  66  67  67  65  65  65  66  65  66  65  64  64  64  63  64  65  65  64  64
  74  73  72  72  73  74  74  74  73  73  74  75  73  74  74  74  73  73  73  71  71  73  70  72  74  75  73  74  74  68  55  49  48  50  55  60  69  74  78  73  65  50  44  45  45  41  34  28  32  41  68  73  33  27  36  35  45  65  62  58  63  60  53  55  60  64  64  66  66  66  67  66  66  66  66  65  65  65  64  64  65  65  64  64  64  63  64  64  64  64  63  63
  73  73  72  74  74  73  74  74  73  73  74  75  75  75  75  75  75  74  73  72  71  73  71  71  71  76  74  60  45  36  39  39  43  51  64  66  74  76  66  56  41  35  34  35  30  32  31  29  28  24  28  60  86  49  31  36  37  53  48  44  51  53  49  47  44  52  62  63  65  65  66  65  66  66  66  66  65  65  64  64  64  64  64  65  63  63  64  64  64  64  64  63
  75  74  73  73  74  74  73  74  74  75  74  75  75  75  75  74  73  74  73  72  72  72  71  73  75  64  45  36  31  38  47  49  60  63  63  71  73  64  54  49  52  57  57  58  61  58  57  52  46  44  40  33  52  93  63  41  39  45  57  46  46  50  48  44  38  39  59  63  60  61  62  61  65  67  67  66  66  66  65  66  64  64  65  66  65  64  63  64  64  64  64  63
  75  74  72  72  73  73  73  75  74  75  75  74  74  73  73  75  72  72  72  72  72  74  72  64  47  26  21  20  24  39  52  56  58  59  71  72  64  67  81  96  92  82  64  55  49  39  38  37  36  38  47  51  44  45  83  60  44  45  55  55  46  51  47  42  34  28  38  47  48  56  59  60  65  66  66  65  65  66  66  67  66  66  65  67  68  65  64  63  64  64  64  63
  75  72  72  73  74  73  73  74  74  74  74  73  75  74  75  75  73  73  73  74  73  61  40  21  15  17  25  47  58  59  57  56  50  57  66  63  67  81  90  89  66  47  44  35  29  26  21  22  23  24  26  31  39  37  52  75  54  46  57  61  53  56  50  39  32  33  36  30  36  57  65  66  66  66  65  65  65  66  65  66  67  67  66  69  70  67  64  64  64  64  64  64
  74  71  73  74  74  72  74  74  74  75  75  74  73  75  75  73  74  74  75  68  39  19  14  17  25  37  56  62  55  57  60  60  53  50  52  59  63  55  52  38  30  29  26  26  28  31  30  24  21  20  23  28  29  32  38  65  68  49  60  71  74  58  51  46  47  46  39  30  40  57  64  65  66  66  65  65  64  65  66  66  66  66  67  68  69  67  64  64  64  64  64  64
  74  73  72  72  73  73  74  75  75  75  76  75  73  75  74  72  74  77  68  34  15  18  24  34  46  45  44  53  65  67  64  62  75  87  91  79  61  51  47  43  40  42  36  31  31  33  33  37  39  41  32  30  35  32  32  46  63  63  59  81  78  80  77  85  83  79  64  52  41  34  48  58  63  68  66  65  65  65  65  66  65  65  65  65  65  65  65  63  64  64  64  64
  75  73  73  72  73  75  73  74  73  74  75  75  74  74  76  76  76  70  37  17  23  36  39  42  45  48  54  63  61  66  71  77  78  64  71  66  57  49  39  42  53  54  44  40  42  49  45  41  38  39  38  34  38  44  38  43  54  57  61  71  87  94 101  99  91  88  93  90  87  79  55  47  54  61  67  66  67  66  66  66  64  64  64  64  64  67  65  63  64  64  64  64
  74  75  74  72  73  74  73  72  76  76  75  76  75  75  75  76  72  51  26  30  42  40  33  31  31  38  44  43  44  44  29  27  35  56  56  45  37  28  27  27  29  29  29  31  37  37  32  31  33  36  32  34  34  36  39  42  50  49  60  75  82  84  92  92  85  78  79  78  87  89  86  76  57  58  61  67  67  66  65  65  65  64  64  64  66  68  65  64  64  64  64  64
  75  75  75  73  73  73  73  73  75  75  76  76  76  76  74  73  72  41  33  41  34  27  30  30  26  31  38  45  44  26  46  71  76  64  50  41  39  41  43  45  41  41  42  40  34  26  29  33  31  34  40  41  45  38  36  41  47  51  56  58  71  91  90  85  91  85  68  55  59  73  72  78  65  48  55  64  66  65  65  66  66  64  64  64  66  66  65  65  63  64  64  63
  74  75  74  73  72  74  74  73  74  75  75  74  74  74  73  75  56  32  40  32  31  38  44  50  58  67  64  54  52  73  94  72  52  56  64  58  42  37  36  43  51  43  33  34  31  32  34  32  33  33  36  44  46  46  41  40  47  47  51  58  75  68  62  83  94  87  75  66  52  49  56  51  55  41  37  57  64  65  66  66  65  64  64  64  64  65  65  65  64  64  63  63
  73  73  72  73  72  74  73  75  76  74  73  74  74  74  76  65  34  33  30  39  53  58  64  77  85  78  64  73  94  75  54  63  70  64  56  48  38  45  58  49  41  33  32  30  29  34  36  35  36  37  41  50  54  57  51  42  46  46  49  56  53  60  83  87  83  78  79  72  65  54  47  39  35  34  29  33  57  63  64  64  65  65  64  64  64  65  64  64  64  64  63  63
  72  72  71  74  75  73  72  75  74  73  73  76  75  76  72  41  32  34  41  47  55  70  79  79  72  62  83  93  71  68  72  71  67  51  47  55  67  59  40  39  36  32  30  30  29  35  36  40  43  48  45  47  55  68  67  60  44  47  53  64  64  70  75  72  72  74  71  64  60  50  36  31  28  31  35  28  44  58  61  63  64  66  67  66  64  64  63  65  64  65  65  64
  72  73  74  73  74  75  74  75  74  73  76  77  77  75  61  36  35  37  44  55  66  65  66  56  62  86 100  76  78  97  92  73  56  54  58  62  46  38  42  41  32  35  31  31  32  28  33  40  44  50  50  59  64  70  74  72  45  49  61  62  70  76  78  81  72  65  65  54  42  35  35  34  30  29  38  42  43  59  58  62  66  65  66  65  64  65  65  65  65  64  64  64
  73  75  75  75  75  76  77  75  73  74  78  76  76  75  47  32  29  33  42  49  48  44  50  61  91 104  72  83  90  86  77  69  65  63  52  42  43  48  44  37  37  37  33  37  43  49  49  50  60  61  70  71  73  86  84  77  47  50  55  63  71  79  79  73  85  76  65  57  48  51  52  41  33  29  28  38  33  52  59  59  62  64  64  65  66  67  66  65  64  64  64  64
  74  75  75  75  75  76  76  74  75  74  74  75  79  62  31  26  29  32  32  39  45  50  61  83  95  65  81  96  85  87  83  69  56  51  52  53  47  49  47  44  42  43  42  43  44  52  57  58  79  80 106 103  90  92  81  72  48  50  51  57  55  53  51  60  66  65  69  68  72  63  47  37  28  24  23  30  32  37  59  59  61  62  63  64  65  66  66  64  63  64  64  63
  75  75  74  74  74  76  74  74  75  76  73  76  67  34  22  25  29  33  36  49  52  57  90  87  65  80  97  93 104  99  88  82  66  66  58  51  63  62  56  55  50  49  41  43  39  41  56  67  91 103 123 119 113  90  74  63  52  56  63  55  56  52  50  64  64  60  62  60  76  89  62  48  31  20  20  22  26  31  48  57  61  61  63  65  68  67  66  65  65  64  64  63
  75  75  74  73  74  76  73  74  73  74  74  73  46  22  21  29  29  32  38  48  54  68  60  56  77  86  85  86  72  82  85  81  81  77  67  94  86  71  61  51  40  42  39  37  40  40  37  43  63 101 130 133 128  96  81  71  62  70  70  57  53  52  57  54  48  44  33  35  52  57  61  57  42  23  20  21  16  24  40  51  58  60  61  64  65  66  66  66  64  64  64  64
  73  75  74  74  74  75  74  74  74  74  74  64  28  20  34  30  27  35  39  45  57  47  42  56  63  57  57  58  77  97 106 102  88  62  82  83  71  63  50  44  46  43  46  47  50  66  76  71  63  56 101 129 126 103  90  83  72  68  63  61  51  51  57  57  57  55  62  63  61  56  53  56  55  34  21  20  13  17  32  48  52  57  59  61  64  67  67  66  67  68  65  64
  74  75  75  74  74  75  74  75  75  73  74  52  18  26  33  30  34  37  38  52  47  32  47  47  42  53  61  79  77  75  72  53  50  58  66  70  68  58  64  58  51  52  59  79  91  93 110 112 119 110  83 114 104 111 108  93  81  77  76  63  64  62  63  64  63  67  78  81  73  77  76  63  55  43  26  15  13  15  21  39  48  53  55  57  62  65  66  66  67  67  64  64
  75  76  74  74  74  75  76  75  76  74  72  36  20  22  22  31  34  26  41  43  30  41  42  42  57  54  51  52  48  53  54  59  58  66  76  82  74  75  67  65  63  63  75  99 118 108  87  87 102 132 114 125 115 110 118 110 112 106  91  85  80  69  68  71  74  77  86  83  78  67  68  55  47  36  27  19  15  12  14  27  44  49  51  52  56  62  64  65  65  65  64  64
  75  75  74  74  75  76  76  74  75  77  59  21  20  22  25  28  24  34  34  28  35  39  44  44  34  34  40  49  72  89  85  79  79  89  83  89  80  79  79  97  92  75  80  93  89  93 112 126 113 109 143 140 143 131 138 136 137 137 127 116 103  96  97  93  86  79  75  70  70  60  54  54  46  38  28  22  16  12  14  22  39  43  48  49  53  60  64  66  65  65  66  65
  76  75  74  75  75  75  74  75  76  70  28  18  20  24  24  19  28  25  24  30  35  32  27  25  31  41  58  97 117 117 112  78  72  79  92  97 109 120 131 132 139 128 106  91  94 117 143 160 160 134 144 150 149 157 162 161 163 158 149 141 137 128 119 110  97  85  77  66  64  60  48  50  51  46  32  22  18  14  14  19  34  39  42  49  51  57  63  66  65  66  66  65
  74  74  74  75  75  74  75  76  76  41  18  21  22  24  15  29  22  21  23  25  24  23  32  39  40  67 113 155 153 138  76  65  82 112 130 149 154 164 170 176 171 165 143 122 135 130 145 168 182 174 164 178 167 175 183 177 179 175 167 158 151 146 141 131 133 128 115  98  86  77  58  50  48  54  44  25  20  15  12  19  33  39  39  44  49  53  60  64  65  66  67  65
  74  74  74  75  75  74  74  78  63  25  26  21  20  15  28  26  20  24  27  28  33  41  45  51  78 111 154 164 165  96  66  88 121 150 170 182 170 182 183 180 189 180 155 157 162 164 182 188 181 176 184 189 191 192 193 187 192 189 183 177 167 166 166 162 158 152 145 132 121 107  82  59  55  53  44  29  22  17  13  17  36  39  38  40  44  50  57  62  64  66  67  66
  75  74  75  75  77  77  75  73  54  35  23  19  13  24  28  21  26  29  34  40  50  52  67  80 102 143 170 179 146  67  80 125 159 178 179 182 188 189 196 201 196 183 168 168 180 204 205 205 200 192 192 189 186 190 195 197 199 194 194 189 186 184 179 177 167 161 162 153 138 133 114  75  61  64  57  36  21  17  14  15  35  39  38  39  41  47  53  61  64  65  66  66
  76  76  75  75  76  77  75  70  55  27  23  16  19  34  21  29  32  39  45  49  45  80  97  88 140 163 170 181 124  69 114 165 175 183 192 196 200 200 204 207 201 189 178 186 205 215 215 208 208 208 209 208 198 199 204 204 205 201 201 197 198 192 191 187 178 173 172 174 160 148 139 106  62  60  64  48  24  19  16  15  28  39  38  39  41  44  51  58  65  67  67  66
  76  75  76  76  76  78  77  71  47  28  24  14  40  30  25  46  46  45  43  46  85 108  83 120 168 173 181 191 109  69 154 175 176 192 199 204 206 206 206 207 199 182 176 201 216 214 211 207 211 212 210 209 206 206 204 205 203 198 200 202 202 192 188 183 180 176 172 171 175 162 145 120  73  56  53  48  29  21  17  15  23  39  38  39  40  42  48  55  62  64  65  66
  74  75  78  76  76  76  78  65  32  19  18  27  44  22  43  48  38  38  55  77 110  85  88 156 169 181 183 192 102  90 172 182 189 194 192 203 206 205 208 211 193 174 181 213 214 207 201 209 214 213 214 213 210 207 205 206 203 202 198 199 200 197 191 187 182 179 174 170 178 170 152 131  89  64  53  42  33  19  19  13  22  38  38  38  38  39  44  52  59  63  64  64
  76  76  79  77  77  75  75  56  22  15  21  43  34  27  54  29  37  58  74  90 101  72 133 175 177 185 189 194  95 118 187 189 191 199 195 205 210 210 217 217 195 179 199 217 212 210 212 214 214 214 218 217 210 209 209 209 204 200 199 196 198 198 192 184 184 185 177 172 177 176 153 134 103  66  58  41  27  20  17  13  23  38  38  38  38  39  42  49  57  62  64  64
  75  77  77  77  76  76  73  38  13  17  30  36  21  33  40  30  46  72  81  95  67 102 166 178 188 192 190 193  80 139 201 196 201 205 204 207 208 210 218 199 185 184 199 212 215 215 214 212 209 209 208 207 207 207 202 201 204 199 196 195 194 197 192 183 183 185 183 176 174 178 167 138 107  75  62  44  28  19  15  12  20  38  38  38  38  38  41  46  55  61  64  64
  75  74  74  77  77  78  63  20  14  21  31  24  20  35  34  35  53  75  94  78  80 154 175 180 193 195 191 184  73 134 206 200 199 205 209 208 206 207 210 180 186 190 203 204 205 205 204 204 203 204 204 205 207 208 204 200 198 195 196 198 196 193 193 188 183 183 186 179 175 180 164 144 118  78  63  52  33  20  17  12  18  35  40  40  39  40  40  45  53  60  62  65
  76  74  76  77  76  79  48  10  15  22  25  17  20  35  32  40  62  78  67  69 132 165 176 184 197 198 195 172  94 128 206 198 195 202 202 206 207 208 194 187 199 194 205 206 206 211 208 204 205 206 204 200 202 206 195 198 200 196 193 193 191 190 196 192 185 183 184 183 175 174 166 144 135  98  66  55  38  24  19  14  14  32  40  39  39  40  40  44  51  59  63  64
  76  74  74  76  74  76  37  11  16  21  21  15  22  28  33  48  55  50  69 123 148 168 180 190 196 204 200 163 120 121 197 195 193 202 205 207 206 207 190 192 195 190 197 196 201 203 203 200 202 201 199 198 197 197 193 193 197 198 193 189 193 195 195 193 192 189 184 183 177 168 172 148 135 111  82  58  49  31  21  16  14  31  38  39  40  39  39  42  50  58  62  63
  75  75  74  74  74  75  28  14  17  22  17  15  22  25  39  63  76  72 100 144 153 175 183 191 203 204 194 153 163 134 190 193 190 202 207 204 202 194 178 190 189 184 196 194 197 197 198 195 194 194 193 190 186 187 187 182 180 183 183 185 185 184 186 187 191 191 185 186 180 166 173 154 132 114  92  69  52  35  25  17  12  28  38  38  39  40  39  43  47  57  62  64
  76  77  76  75  75  70  20  13  15  18  16  14  20  24  37  57  87  70 116 157 163 177 184 194 200 199 195 146 187 141 182 197 197 202 202 201 201 198 194 197 192 193 199 202 204 201 201 200 197 198 197 191 190 191 189 185 182 182 182 184 179 177 182 181 183 185 183 181 176 165 169 163 139 119 103  82  58  38  28  18  11  23  38  38  38  39  39  42  48  58  64  64
  77  77  76  74  74  63  17  13  13  14  14  14  20  27  39  70 104  74 138 166 172 177 186 196 198 201 194 161 177 132 179 196 192 188 188 185 183 184 187 190 183 188 188 190 193 190 189 190 191 189 189 186 180 179 179 178 178 178 177 177 179 177 178 185 178 181 186 181 174 162 164 171 151 135 113  86  65  47  28  20  12  15  36  39  39  39  39  41  47  57  64  65
  76  75  75  75  76  63  20  15  13  12  13  16  20  29  47  85 122  97 159 179 176 178 182 194 193 195 192 194 160 154 189 191 189 185 181 181 180 180 181 182 170 174 177 180 185 188 185 183 183 181 184 182 183 182 178 176 176 174 176 180 179 174 171 181 184 181 181 179 176 159 155 172 160 150 133 107  79  55  35  21  13  13  34  39  39  37  38  41  46  55  63  65
  74  74  72  74  75  70  26  14  12  13  14  16  24  36  62 107 130 108 162 182 179 174 177 189 192 193 186 188 193 197 190 187 187 184 184 186 189 190 193 191 179 189 185 187 191 187 184 186 190 189 190 190 191 190 188 186 183 180 179 188 178 171 172 175 178 174 180 174 173 165 157 166 163 156 148 120  90  68  44  25  15  11  33  39  37  38  38  40  44  54  63  65
  74  74  73  74  75  72  29  16  13  12  13  17  26  40  68 124 136 121 160 177 186 170 162 186 190 185 182 183 188 184 181 185 188 189 189 193 195 195 194 192 188 194 190 192 194 186 184 185 188 192 193 192 191 194 193 190 187 181 177 183 178 175 178 175 167 172 178 173 170 165 161 159 160 160 157 135  89  62  50  34  17  11  28  40  39  39  38  38  44  53  61  64
  74  75  75  75  74  74  30  15  13  14  16  19  27  51  75 127 137 130 164 173 186 168 162 187 179 182 184 183 185 178 182 192 185 184 189 196 196 195 199 197 193 197 190 191 196 190 181 183 188 192 194 195 194 192 194 196 195 192 188 184 180 185 184 179 167 171 185 181 173 158 157 159 158 157 157 148 103  61  46  37  22   9  24  40  38  38  38  40  43  53  60  64
  73  75  75  74  74  75  27   9  12  13  15  20  39  63  81 127 130 128 165 171 182 169 173 176 168 177 188 189 181 180 190 188 186 189 198 203 199 200 205 196 195 202 200 203 200 197 191 190 196 200 201 198 199 197 204 206 202 200 195 189 184 182 185 180 171 175 185 191 189 168 151 152 156 153 156 150 120  73  46  33  27  14  30  39  38  38  38  40  42  51  60  64
  73  74  73  74  75  75  29   7  12  19  17  23  44  66  93 129 123 137 166 172 181 167 165 163 180 187 196 181 180 191 194 199 200 201 203 210 208 207 207 206 202 205 208 205 206 209 206 207 207 206 210 210 209 205 207 207 201 198 193 195 187 189 192 190 184 179 178 184 191 184 153 143 153 148 157 146 127  88  54  32  25  20  32  39  38  39  38  39  42  51  60  64
  72  73  73  74  74  75  34   8  12  16  18  26  44  69  94 128 123 140 174 168 177 170 158 167 183 176 173 173 174 184 187 187 195 198 198 194 203 204 204 211 208 206 212 209 209 207 205 203 207 205 209 213 209 210 205 202 199 191 191 190 183 186 190 193 184 171 168 166 179 181 164 138 143 145 160 139 130  96  60  31  20  16  25  40  38  39  38  38  41  49  59  64
  74  73  74  73  73  75  45   4   8  14  19  26  47  71  96 127 130 144 173 170 172 166 148 164 165 161 149 147 129 132 143 152 163 159 157 146 158 177 184 199 200 203 205 209 212 202 202 202 201 201 200 205 207 205 203 197 191 183 159 141 135 143 152 149 151 145 133 124 131 159 162 146 133 144 161 136 127  89  66  33  16  13  21  38  38  38  38  38  41  49  59  64
  74  73  73  74  71  74  45  33  45  12  18  24  51  73 101 133 128 142 171 167 169 163 144 159 168 142 140 147 129 134 148 151 139 128 127 146 131 139 144 146 174 192 193 205 207 197 203 206 201 193 198 206 197 192 195 189 171 139 109 103 109 113 122 124 128 138 144 144 145 145 146 150 128 148 158 137 124  86  67  33  13  11  17  37  40  38  38  38  41  48  57  62
  75  74  73  74  71  72  38  69  58  17  18  30  51  69 102 131 133 145 171 167 165 160 141 158 169 162 169 179 179 186 189 193 172 143 149 153 151 147 150 144 162 177 189 198 196 195 205 202 205 196 186 189 182 179 180 164 132 109 112 123 135 143 158 179 183 170 159 155 143 146 134 146 130 155 152 136 121  84  75  33  12  11  11  30  40  39  38  38  40  47  56  62
  73  75  76  74  71  68  63  88  91  24  19  33  40  69  94 129 144 145 163 176 160 161 147 148 166 175 185 187 192 196 208 207 203 198 193 182 166 153 156 160 161 171 182 186 187 199 206 203 205 195 187 177 169 165 157 138 127 132 154 166 174 188 203 206 199 194 180 169 152 132 134 147 137 154 141 136 121  81  62  29  14  15  18  26  39  38  39  38  39  44  53  61
  72  74  75  73  71  67  89  80  70  25  20  26  42  78 103 128 145 153 149 174 158 169 163 143 160 172 171 178 187 193 200 195 210 211 203 193 184 175 165 156 150 156 163 169 182 201 204 205 203 195 184 167 149 141 132 136 154 174 183 190 205 212 211 199 190 185 170 161 146 144 146 140 141 142 144 148 117  74  55  23  15  20  74  63  34  38  38  38  38  43  51  59
  72  71  71  70  69  63  99 138  45  16  21  24  45  76  85 117 144 160 151 161 166 174 175 170 170 165 162 171 180 186 196 204 204 204 201 191 180 183 186 187 165 144 138 147 165 190 198 200 201 192 181 152 131 141 164 184 192 187 189 197 213 214 207 197 188 174 173 160 149 143 140 147 151 138 162 144 116  86  50  20  15  37 115 109  33  37  38  38  38  42  50  59
  71  69  70  70  71  66  86 133  51  29  34  24  38  67  97 120 146 149 167 153 165 163 178 184 188 180 181 174 180 177 154 131 107 102 104  92  95 103 127 158 173 168 148 132 149 187 198 203 206 197 182 149 123 151 167 152 130 113  94  97 127 168 173 182 183 170 176 175 170 152 147 164 147 147 153 132 101  79  57  17  16  33 109 125  36  37  38  38  38  40  49  59
  69  69  68  69  70  68  71 161 123  54  46  27  30  80 100 101 143 141 165 169 157 173 165 159 179 181 185 159 131 102  65  54  31  32  59  94 153 110 108 114 129 142 152 140 150 184 190 194 194 191 177 136 109 120 132 124 112 109 119  75  64  47  43  67  94 119 151 177 173 153 171 160 148 152 134 137  96  74  53  20  17  59 126 127  33  37  38  38  38  41  49  58
  70  70  69  69  70  68  60 158 200 111  72  40  35  88  88 111 139 135 139 171 162 162 174 157 151 155 127 114 104 137 152 156 134 120 120 137 164 153 146 136 132 151 153 134 152 178 186 196 191 177 165 132 108 143 156 135 129 142 158 120 120 105 107 114 118 117  98 127 144 155 155 140 159 142 152 140  90  62  52  25  17  69 137 107  31  37  38  38  38  40  48  58
  70  70  70  68  69  69  58 121 216 160 129  41  54  88  97 109 134 131 135 150 173 171 161 152 127 114 122 144 162 160 169 176 182 181 172 154 144 145 143 146 146 168 173 128 156 175 188 195 198 176 156 130 120 179 149 138 139 146 151 152 165 175 166 155 162 162 151 137 119 121 126 145 166 161 145 133 103  79  56  25  23  53 148  89  31  39  38  37  36  41  48  56
  70  69  69  68  66  66  63  79 201 188 135  36  74  98  93 105 143 135 156 141 157 182 188 172 163 177 173 158 160 179 180 176 169 172 173 169 160 157 154 161 186 180 147 132 162 175 183 187 181 167 146 133 120 159 180 176 163 154 149 151 163 171 162 160 159 164 179 157 141 154 169 176 175 151 134 127  94  78  64  34  33  63 152  76  34  38  37  37  38  39  44  53
  69  67  67  65  66  66  65  57 139 195 137  85  73 103  84 101 146 134 152 159 178 197 185 189 199 193 184 180 176 166 182 188 186 182 176 176 167 168 162 159 171 159 131 143 159 175 182 183 174 151 132 140 138 136 167 173 173 170 174 179 179 174 160 158 183 186 162 170 179 170 167 182 177 167 153 137  91  80  60  34  54  88 134  59  33  37  38  37  37  38  42  52
  66  67  65  65  66  64  63  57  89 185 178 119  64  96  92  99 141 135 143 164 182 172 182 194 189 182 182 191 199 192 176 169 177 177 171 163 156 154 159 172 175 156 139 147 160 178 183 183 185 162 134 142 150 143 147 160 161 161 166 170 164 169 164 174 178 166 182 197 181 168 160 179 177 172 150 129  98  74  64  38  61 157 155  38  35  36  37  38  38  38  42  51
  65  65  64  64  64  64  64  61  70 163 193 118  53  77  89 101 136 138 146 167 178 174 195 187 174 177 182 186 189 190 192 175 163 162 154 158 165 172 187 197 183 160 154 147 163 179 188 188 188 171 144 137 152 155 162 165 169 165 161 152 145 145 158 169 180 200 198 197 185 173 165 161 181 166 157 125  94  60  68  45  64 178 105  27  37  37  37  38  38  38  41  50
  64  63  64  64  64  63  63  59  67 155 204 124  40  75  87  84 125 128 144 166 163 183 189 176 174 182 188 194 193 191 190 187 189 190 191 193 190 201 209 204 175 158 156 148 160 173 186 187 181 171 148 134 153 162 163 164 171 182 182 188 188 190 197 199 204 201 193 195 195 189 174 154 162 176 155 134  97  64  70  53  76 136  45  34  37  37  37  38  38  38  41  49
  65  65  66  64  63  63  60  54  61 150 190 131  36  76  86  86 128 124 144 155 165 187 179 166 181 189 192 199 202 202 198 193 187 184 187 196 199 205 203 188 170 163 153 151 158 171 187 186 177 168 152 138 143 168 171 172 171 177 179 183 191 198 201 198 200 204 205 203 197 194 184 164 154 173 165 140 101  90  75  57  89  85  28  37  37  38  37  38  38  38  42  50
  65  65  61  60  58  60  69  82  85 146 181 160  52  62  80 103 118 131 141 144 177 181 162 172 189 189 196 204 205 205 202 194 190 189 190 197 199 191 183 177 170 166 158 153 154 171 188 192 187 176 164 152 137 156 171 173 177 191 195 194 193 194 196 196 199 202 204 206 200 189 187 172 154 161 176 140  92  76  65  55  90  54  31  35  37  37  38  38  38  38  42  50
  59  62  72  91 115 140 167 188 193 173 169 191 111  61  88  97 104 128 130 146 180 168 153 176 187 192 198 205 204 202 203 197 193 194 198 204 204 195 188 186 168 162 158 150 155 180 194 195 192 184 177 168 152 140 154 156 168 187 198 207 208 205 201 201 202 204 207 204 198 193 189 176 154 140 164 147  84  76  60  74  92  39  34  35  37  38  38  38  38  38  42  51
 126 148 174 197 214 223 230 233 236 191 166 191 164 102 114  96  92 116 127 146 172 149 161 176 186 195 198 205 207 212 208 199 195 194 197 201 199 197 190 170 155 155 156 146 163 183 197 200 196 188 183 173 163 144 133 140 154 180 192 204 207 206 203 205 204 206 211 208 207 201 189 180 158 133 145 146  79  53  71 106 110  33  34  36  37  37  38  38  38  37  42  52
 217 225 230 233 233 234 234 235 238 187 175 174 166 154 156 120  81 106 126 155 162 147 167 173 187 192 198 208 218 220 214 203 198 186 190 192 193 188 173 159 154 157 147 156 168 183 198 204 202 198 193 176 166 151 132 139 141 158 179 196 198 197 195 199 202 207 212 215 206 201 192 186 166 133 134 134  71  61 115 148 118  29  35  35  37  37  38  38  38  38  43  53
 234 232 233 233 233 233 230 227 230 185 177 166 170 187 163 142  88 102 125 153 154 149 163 173 184 187 200 210 215 220 214 201 191 181 179 175 178 182 156 156 163 156 143 166 171 189 203 209 203 203 197 180 169 152 139 144 149 138 154 184 186 183 186 195 201 206 211 212 203 200 196 186 171 140 119 123  77  88 153 189 121  27  35  37  37  37  37  38  38  39  44  53
 234 232 230 225 215 199 175 151 146 149 172 170 185 205 170 132  96 113 122 146 140 158 165 176 185 194 200 206 213 217 207 193 186 173 161 163 180 175 153 167 166 156 155 166 175 191 216 217 213 208 189 176 168 150 143 143 153 141 146 180 176 164 162 178 193 198 204 205 199 199 196 185 176 151 112 112  88 107 166 203 109  27  35  37  37  37  37  38  38  38  45  55
 214 202 179 152 123  97  76  61  54  92 183 185 180 202 179 125 102 106 118 133 139 157 164 177 184 195 201 206 214 211 196 189 175 153 157 185 189 171 151 168 168 156 156 165 177 200 221 219 220 207 184 174 161 147 143 143 151 139 141 179 179 173 156 145 165 182 192 203 199 195 193 186 178 148 106 101 101 119 168 192  93  27  35  37  37  37  37  38  39  41  49  58
 121 102  77  63  56  54  57  59  52  78 188 198 175 179 173 128 111 112 122 128 141 153 161 173 184 193 197 203 206 196 186 167 142 155 187 193 188 178 138 146 162 152 139 154 182 200 203 200 209 201 188 169 140 128 116 119 133 118 145 182 179 180 180 171 151 155 182 196 193 193 194 188 182 143 101 102 104 122 177 182  75  28  36  37  37  37  37  38  39  43  52  60
  57  56  57  57  54  54  57  58  56  67 177 205 182 168 177 134  99 118 131 139 145 154 158 176 186 193 198 198 200 186 150 133 165 189 194 189 186 181 146 114 109 116 114 118 153 182 184 184 189 189 173 136  98  82  93 105 102 128 170 178 178 179 179 185 190 162 146 172 190 193 192 186 179 146  98 104  99 112 185 185  62  29  36  37  37  37  37  37  40  46  55  62
  60  60  57  62  85 120 125  76  52  77 162 199 187 171 173 130 102 108 137 139 145 145 158 174 186 193 199 200 177 138 137 173 189 183 187 181 173 174 172 153 131 131 123 109 111 145 174 175 170 158 129  94  94 128 139 137 138 156 163 169 167 172 179 176 187 192 167 142 172 187 188 185 174 143  98 106  99 112 192 185  58  29  34  36  37  37  37  36  42  49  58  62
  58  57  71 142 190 213 202 111  45 101 161 195 194 174 167 119 104 116 141 136 154 139 158 172 181 186 193 170 133 153 168 178 175 176 176 167 154 160 164 159 155 146 145 136 120 110 138 156 152 121  91 107 135 135 137 136 151 162 150 145 162 163 175 173 178 184 184 155 138 169 184 182 169 140 104 105 110 121 187 173  50  30  34  35  36  37  37  38  44  51  59  62
  70  54  95 199 229 231 216 122  45 100 164 186 193 169 169 119 102 118 133 137 158 141 157 176 182 182 165 127 154 169 189 172 164 167 156 160 153 161 154 145 153 159 144 127 121 124 112 113 106 104 129 145 149 139 144 140 137 159 154 143 162 169 173 167 172 168 183 183 151 141 185 187 174 138 112 108 107 122 185 160  40  32  35  35  34  36  37  38  45  54  59  63
 105  54  88 197 228 226 217 129  48  89 185 170 176 180 182 132 117 121 132 141 159 140 150 177 177 172 138 143 166 174 173 165 165 155 150 173 150 145 146 149 140 146 152 130 115 129 127 122 137 158 143 140 160 151 156 144 142 152 163 154 159 168 159 168 158 182 180 178 165 134 173 187 173 132 121 113 102 125 194 142  32  34  35  35  35  35  37  39  48  55  59  62
 120  58  80 188 227 227 218 137  50  79 196 187 154 183 193 153  94 117 132 153 171 143 141 170 175 171 141 165 168 179 162 150 158 152 163 165 156 163 159 144 131 149 161 167 149 148 161 173 181 181 178 155 166 158 143 145 142 162 164 168 163 167 169 174 165 172 181 174 149 137 179 192 173 134 131 114 109 126 181 116  27  35  35  35  35  35  37  39  48  56  60  62
 126  61  74 181 226 227 220 143  53  74 184 226 158 150 174 148  95 120 130 158 178 143 141 172 180 177 144 161 171 171 153 149 154 152 157 169 168 170 168 156 154 171 163 176 176 165 174 191 187 192 187 176 165 149 146 163 163 160 161 170 171 160 159 159 156 159 159 168 156 151 196 192 170 138 145 115 116 133 167  81  27  36  36  35  34  35  36  39  48  59  63  64
 133  64  67 174 224 227 221 152  56  67 174 228 219 172 144 100  89 122 134 158 179 144 136 168 182 189 145 140 167 166 144 132 141 155 152 153 152 154 158 172 164 170 172 170 175 178 185 183 178 193 182 168 167 161 154 162 162 148 150 145 130 122 121 120 130 155 161 172 157 164 206 195 160 144 156 122 104 132 147  53  31  35  36  34  34  35  36  40  50  61  64  64
 139  67  62 166 223 227 223 158  58  61 167 223 228 232 184  72  92 120 137 162 179 156 123 161 186 192 171 140 158 161 148 114  99  76  59  72  91  89  92 107 118 137 154 160 166 181 186 196 190 195 186 165 157 147 137 125 110  82  70  69  46  62  86 116 142 168 167 173 153 186 206 188 146 145 162 124 106 121  85  31  35  34  34  34  35  35  36  41  51  61  64  64
 149  72  57 158 221 225 223 162  61  58 162 222 225 227 186  92  88 116 128 158 178 171 134 158 179 188 192 170 165 163 173 159 153 112  50  63 102 103 116 171 137 185 127 144 144 131 143 149 152 138 142 131 128 138 119 175 150 121  90  97  42  79 131 158 152 164 169 173 184 203 193 174 136 154 156 118  92  58  32  32  34  34  34  34  35  35  36  41  52  60  63  64
 157  74  52 150 219 223 222 168  67  55 155 220 225 224 193 101  83 117 115 156 173 170 147 139 165 177 197 199 185 157 154 177 181 181 143  79 102 137 174 229 215 246 194 203 202 171 205 195 153 183 207 181 179 211 199 234 205 213 188 175  85 148 181 167 157 154 154 182 214 202 183 150 141 172 157 118  98  47  31  33  34  34  34  34  34  34  36  43  53  61  63  63
 165  79  48 143 217 222 223 175  72  53 148 218 223 224 198  95  64 107 110 142 158 177 160 114 146 167 184 193 173 152 164 177 185 180 179 155 128 140 174 223 219 238 226 208 220 219 254 254 214 240 253 231 218 220 210 215 198 199 168 149 161 177 166 165 168 144 151 199 203 195 164 136 162 186 148 125  87  37  31  33  33  34  33  33  34  34  36  42  54  62  63  63
 174  86  46 133 213 222 223 181  76  48 140 216 221 221 197 101  55 101 111 121 140 175 173 120 139 165 174 182 186 167 156 168 182 189 182 176 166 142 137 188 191 230 214 195 222 220 254 254 228 242 246 229 216 211 195 189 170 157 147 162 170 164 165 167 151 150 185 206 190 185 143 162 183 185 138 118  75  37  32  34  34  34  34  34  34  35  37  43  54  61  62  62
 182  94  44 125 211 222 223 186  81  43 131 214 221 222 205 108  41  78 100 112 145 172 180 156 117 150 169 187 179 171 159 170 171 188 185 178 176 168 157 154 155 197 126 124 148 146 221 219 194 195 207 185 167 174 140 158 148 157 164 164 156 165 172 161 137 164 187 197 193 167 142 181 184 171 126 112  69  36  32  33  35  34  34  34  34  35  37  44  55  61  63  63
 189 102  43 116 208 221 222 190  87  41 125 211 222 223 205 112  43  58  98 101 136 150 178 164 127 132 165 183 171 175 164 161 165 189 184 176 175 172 172 170 170 163 159 155 148 151 157 151 155 162 156 163 161 154 159 164 162 154 163 162 166 178 166 148 146 181 196 180 159 156 161 181 165 159 106  93  69  38  32  33  34  34  34  34  33  36  38  45  55  61  64  64
 196 110  43 108 205 221 221 194  92  41 118 209 222 222 207 117  48  60  86  92 106 132 160 170 160 123 135 177 165 162 177 168 172 180 183 182 177 162 170 177 173 171 170 175 181 182 176 178 177 184 180 176 172 166 165 162 159 152 155 169 170 170 155 148 164 174 191 170 141 164 172 167 162 150 115  97  51  31  33  33  34  34  34  34  35  36  38  47  56  60  63  64
 203 120  43 101 200 220 221 198  98  40 111 206 220 221 210 121  53  74  79  78  84 109 152 157 139 130 120 149 173 162 176 177 188 175 176 179 169 162 163 175 176 172 180 178 174 191 194 194 192 185 185 170 169 165 158 155 160 154 157 169 166 165 151 157 163 174 186 164 150 158 172 155 153 134 119  98  50  31  33  33  33  34  34  34  35  37  39  48  59  62  64  64
 208 131  44  91 195 221 222 200 105  40 103 202 220 221 211 125  52  63  76  82  86 100 126 134 150 151 140 119 151 173 182 176 181 171 160 176 172 163 157 161 165 163 180 190 185 196 200 199 193 188 186 174 168 162 158 144 150 149 156 160 161 157 171 167 148 174 173 139 144 169 168 144 137 108  93  71  43  32  33  34  34  34  34  34  36  37  41  51  60  64  64  63
 214 143  47  83 190 220 221 205 111  40  97 197 221 221 212 132  55  58  87  93  90  89  96 127 165 153 162 134 127 155 164 178 175 177 176 177 173 163 164 159 158 164 172 177 174 183 187 178 179 179 178 179 165 160 155 147 147 153 153 161 161 165 177 173 157 168 151 131 152 171 159 144 127  80  81  66  37  32  33  34  34  34  34  34  36  39  45  54  61  64  64  64
 219 157  55  76 184 219 220 206 117  41  90 195 221 222 213 134  68 113 158 101  82  85  91 117 144 141 167 163  97 136 162 173 186 190 173 170 173 175 175 167 165 160 161 169 174 190 175 169 176 171 178 179 161 150 159 157 156 165 166 166 159 158 162 175 173 143 120 117 148 162 165 133 111  88  84  54  34  32  33  33  34  33  34  34  36  40  49  57  63  64  64  63
 221 171  66  69 178 218 219 209 124  43  84 190 220 220 213 164 154 199 211 122  74  95  99  93 104 143 177 154 103 127 148 171 186 187 171 159 164 180 181 173 159 153 167 168 179 175 162 172 186 178 167 177 171 160 155 161 169 164 173 163 166 153 147 173 161 147 130 115 162 157 145 107  92  96  83  60  36  32  33  33  34  33  33  34  37  43  53  61  64  64  63  62
 223 183  75  63 172 218 218 211 132  44  78 184 219 218 216 209 214 220 222 174  83  92  99  96  95 143 163 147 151 115 125 154 168 173 171 158 163 170 187 183 176 176 179 174 187 170 179 197 186 181 170 169 175 178 173 172 171 164 165 160 160 157 146 167 164 119 123 129 154 152 126  86  88  81  71  35  33  34  34  34  34  34  34  36  40  46  56  61  64  64  64  63
 223 194  90  56 165 218 218 212 139  47  71 178 219 217 218 218 219 219 221 207 110  88 108 105  82 110 148 149 156 126 108 137 165 174 165 165 172 179 190 195 183 191 185 183 186 178 175 183 183 177 184 182 185 191 188 178 174 172 165 159 161 159 160 158 144 111 103 122 157 162 101  72  79  87  54  33  33  34  34  34  34  34  33  37  40  47  57  62  63  64  64  64
 222 203 108  52 158 216 218 213 145  50  66 173 219 218 217 216 217 220 220 217 160  95 109 100  92  96 124 149 142 143 116 133 169 173 178 180 170 184 192 201 193 194 187 175 175 154 154 178 189 173 179 192 184 189 194 184 183 177 169 168 164 166 156 139 121 124 139 153 146 135  82  62  83  91  29  31  33  34  34  34  34  34  34  37  39  47  59  63  63  63  63  64
 221 211 131  53 149 215 216 215 152  54  63 169 218 217 216 218 215 199 179 185 167 101 109 109 112  90 105 133 152 147 126 107 142 171 180 181 183 184 182 199 198 193 185 177 176 176 184 179 176 178 184 183 180 178 174 171 177 182 179 169 164 155 174 144 107 122 138 135 137 103  73  76 114  74  29  33  33  32  34  34  34  34  34  36  40  51  60  60  63  64  64  64
 219 215 152  58 140 214 218 216 159  59  58 162 218 217 217 211 170 111  76  75 104 107 111 103 105 103  96 112 134 137 111  91 141 168 176 178 190 182 174 183 190 184 182 182 191 183 186 195 189 182 194 178 170 170 154 159 164 160 182 169 165 152 158 126 106 152 149 131 115  96  62  97 117  37  29  32  33  33  34  34  34  35  35  36  42  54  61  61  61  62  63  63
 217 218 172  70 131 212 218 216 165  63  55 156 216 217 217 187  93  45  46  43  53 106 126  98 100  97  95  96 107 135 131 107 124 154 175 180 182 187 166 166 173 167 175 168 177 182 186 198 199 182 187 185 181 162 148 165 156 148 175 174 164 174 151 114 114 154 165 132  97  68  87 143  86  25  33  33  33  33  34  34  35  35  36  37  43  53  60  64  64  64  64  62
 216 219 190  88 123 210 217 217 172  68  51 151 215 218 219 179  77  46  53  50  50  92 123 116 101  96  96  78 100 118 126 124 118 149 167 182 189 166 173 182 187 184 181 179 171 177 175 173 179 189 180 175 174 159 154 169 157 149 156 175 177 185 164 115  98 125 151 107  76  73 120 149  70  22  35  33  33  33  33  33  33  34  36  38  45  54  61  64  65  63  63  63
 215 218 204 112 116 207 217 217 178  73  47 143 213 217 218 185  84  46  53  50  47  87 119 132 110 113  98  78  89 101 109 121 109 151 178 180 183 176 172 187 184 180 185 192 183 181 171 184 189 169 167 175 173 154 165 163 158 155 166 167 166 168 145 106 105 140 117  92  73  88 143 133 119  24  27  33  33  33  33  33  34  35  36  41  49  56  62  64  63  62  64  63
 216 218 213 140 115 203 218 218 183  78  43 137 213 216 218 190  91  46  51  48  54 110 112 127 127 109 104  92  82  91 117 115 102 124 169 165 165 160 184 183 178 170 178 183 184 193 184 179 191 177 179 177 180 156 165 167 157 154 161 175 163 156 135 108 103 119 105  78  79 111 140 126 196  58  16  26  34  33  33  33  34  34  37  43  52  59  63  64  63  63  63  63
 216 216 218 167 124 197 219 218 187  85  42 131 211 216 218 195  98  47  52  44  79 156 111 119 134 114  97  91  85  89 102 118 117 125 146 155 173 151 168 175 172 177 182 174 184 195 187 178 182 189 198 194 181 178 167 148 150 148 160 171 168 156 103 102 117  88  86  75  78 129 113 160 228  93  21  24  26  33  33  33  35  34  38  45  53  60  63  64  64  64  63  63
 210 215 220 189 141 193 218 218 193  92  39 122 208 218 217 200 106  47  50  42 111 190 114 128 129 130 111  91 101  95  95  97 109 110 125 149 171 175 161 166 176 189 183 183 185 192 187 194 201 197 194 192 178 168 157 147 151 155 164 172 150 131  93  94 121  85  79  76 110 138 110 212 223 133  31  31  21  25  33  33  33  35  40  47  55  60  62  64  64  64  62  62
 195 213 218 205 161 190 217 218 197  99  39 115 206 217 217 203 114  48  49  46 123 216 127 129 126 134 125 106 113 111  98  86  85 106 117 129 138 176 158 164 191 186 179 193 194 182 173 183 184 192 184 175 175 164 153 142 141 157 172 157 139 108 112 103  90  82  93  89 129 113 156 240 216 169  64  29  29  21  25  32  34  36  43  51  56  60  62  64  62  63  63  63
 170 207 217 214 188 197 216 218 201 108  40 108 203 217 217 205 121  50  53  34 115 231 153 119 133 126 128 122 109 115 106  90  83 103 110 104 131 145 149 167 178 176 175 168 193 168 166 180 174 175 174 167 172 162 147 130 141 158 154 139 117 104 105  81  89  95 102 113 128 116 220 233 213 175 101  28  36  27  21  26  35  39  46  54  58  61  62  63  62  62  64  62
 136 194 218 216 210 210 216 217 205 116  40 103 201 217 216 208 129  53  44  24 132 225 197 121 141 129 131 137 119 112 124 126  98  80  91 103 123 118 140 157 157 157 159 165 168 161 155 166 171 172 169 141 153 140 127 140 136 142 132 117  89  97  87  71  82  88 109 133 111 181 241 226 206 170 136  42  36  31  22  20  28  41  50  56  60  62  63  61  61  62  64  63
  88 172 217 218 217 215 215 218 206 121  41  97 197 218 215 210 139  52  28  34 147 211 230 152 135 144 129 135 135 116 120 117 104  79  78  99 116 117 125 140 153 137 145 147 151 149 145 157 167 173 152 145 162 152 128 145 123 124 109  93 108  96  79  78  99 102 132 117 158 235 231 222 200 170 163  81  33  35  25  20  18  28  49  59  61  62  60  61  61  61  62  61
  49 136 211 219 216 216 217 218 209 129  44  90 194 216 214 216 148  38  25  49 158 199 236 205 135 147 136 129 140 141 122 116 114  97  83  93 107 115 134 134 130 123 130 128 149 141 152 161 162 162 135 139 139 120 102 136 111 101  96  91 110  97  94  95 105 126 121 143 227 233 227 216 200 175 173 122  36  35  26  22  18  19  25  48  63  63  61  62  63  62  61  60
  39  94 194 219 217 216 216 218 212 136  47  85 189 215 223 205  73  24  27  74 168 193 223 240 177 141 147 138 141 144 147 131 120 124 109  91  82 104 119 127 109 112 106 130 133 117 131 131 115 113 109 108  97 102 101  92  96  95  93  97  90 107 117 110 126 121 137 219 237 227 225 214 201 185 175 148  44  35  31  24  22  20  19  20  36  58  65  63  62  63  63  61
  48  62 159 217 218 217 217 219 214 145  50  79 186 227 212  79  19  34  28 104 174 188 216 236 231 155 142 142 142 140 149 157 144 127 125 117  97  81  76 101 116 111 116 124 121 101  99  92  80  94  90  89  85  92 105  95  93  94  78  91 105 109 113 126 122 132 211 236 228 227 223 213 204 188 178 162  55  34  32  24  21  19  21  20  16  23  44  61  63  62  62  62
  53  48 111 203 220 218 218 219 216 152  53  74 195 209  80  19  33  36  34 128 175 187 211 225 241 220 148 148 142 147 141 150 158 153 137 134 132 122 109  88  82 102  96 113 133 129 121 138 135 127 115 123 117 119 107  97  82  77 100 111 112 125 135 131 136 209 236 227 229 229 221 213 207 189 182 170  62  33  32  27  23  20  21  21  19  18  18  29  51  62  64  64
  55  51  69 169 219 220 218 219 217 159  57  78 150  66  21  32  33  36  42 146 173 186 210 221 230 244 209 148 148 146 152 144 152 162 157 148 145 143 142 132 117 102  85  85 103 107 116 135 137 131 130 123 105 103  79  75 104 119 118 109 132 141 135 144 211 235 226 229 232 227 220 214 205 188 189 176  67  34  33  28  22  21  19  19  19  21  21  19  21  33  46  56
  56  57  50 117 207 221 218 219 219 168  71  56  39  26  34  32  34  36  45 154 177 187 207 220 225 231 242 210 151 140 159 162 150 157 163 159 152 146 149 150 148 144 127 109  99  93  93  89  97  92  90  85  83  86 107 121 129 120 111 138 146 134 154 210 233 226 230 234 230 224 220 211 202 189 193 184  75  34  34  29  24  20  18  19  21  23  22  22  21  20  29  36
  56  56  51  69 166 217 220 219 220 170  67  31  30  34  32  32  33  36  45 156 181 189 206 218 225 228 234 243 214 152 146 162 166 162 162 163 153 152 147 151 153 157 163 155 146 138 126 109 111 108 108 108 118 138 141 128 116 117 139 149 133 160 213 232 226 227 233 234 228 223 217 208 200 192 197 191  83  35  34  30  26  24  21  21  21  21  21  21  21  21  26  37
