P2
# Generated by OpenCV 4.2.0
92 112
255
   4   4   4   5   3   6   6   6   6   5   6   6   6   4   6   6   4   4   6   5   5   5   5   6   6   3   7  13  19  21  18  15  13  13  13  14  12  11  13  12  13  13  12  16  18  18  18  18  18  15  10  15  20  11  16  22  27  34  35  39  40  39  40  38  39  37  37  35  33  34  34  32  30  27  25  23  23  25  25  24  24  25  26  26  26  27  28  28  28  31  31  32
   4   4   4   3   3   3   3   4   6   6   5   5   6   5   7   6   8   8   7   6   6   5   6   6   6   9  12  17  14  12  11  10  10  11  10   7   6   8   9   8  11  11  12  11  10  14  16  17  17  17  14  15  18  13  15  18  18  27  35  42  44  44  44  43  43  44  43  41  38  37  36  36  34  32  32  29  31  30  31  32  33  34  35  34  33  33  31  33  33  35  35  36
   6   7   6   6   6   5   5   6   7   8   8   7   6   5   8   8  12  13  12  12  12  12  14  12  14  17  15  14  11  10   9   9   7   7   8   9   8   8   7   6   4   4   9  10  10  13  15  19  16  18  15  17  18  18  18  14  13  17  21  29  34  33  38  46  50  50  49  46  43  43  41  41  40  39  39  38  38  38  38  40  39  39  39  39  39  39  37  37  38  38  39  39
  10  10  10  10  10  12  12  11  11  11  13  13  13  14  17  18  18  19  20  21  20  20  17  15  18  15  11  10  12  11   9   9   7   7   6   8   9   9  10  12   8   7   5   6   6  10  12  16  22  20  15  13  18  24  21  20  16  16  16  23  22  13  12  23  41  52  53  50  48  49  48  48  46  47  47  45  44  44  44  45  45  45  45  45  44  44  44  42  43  43  45  44
  18  17  18  18  19  21  21  20  20  20  22  24  25  26  27  27  28  29  32  33  27  21  19  18  12  11  13  13  13  12  10  11   7   7   4   5   8   8  10  15  18  16  11  10  10   8  12  10  19  30  27  17  12  23  21  23  23  23  22  29  27  21  17  12  14  25  49  55  51  52  53  53  54  54  51  51  51  53  52  50  50  49  49  49  48  48  49  47  48  47  47  46
  26  27  28  30  29  30  31  33  33  33  34  34  35  37  38  37  38  41  42  31  20  20  18  13  12   9  10  11  12  11  10  10  12  12  11  14  18  20  19  18  25  28  26  23  19  21  11  13   8  22  40  27  19  21  27  25  27  38  38  37  36  28  24  18  10  11  23  48  58  58  57  59  57  55  55  56  55  54  56  56  56  53  52  52  52  52  52  51  49  49  49  49
  38  36  36  38  39  40  40  43  43  43  42  42  43  45  46  46  49  51  37  17  16  16  12  12  12   8   8  12  16  17  19  19  20  27  33  32  33  39  37  30  27  39  47  43  33  36  28  18  17  10  33  41  40  28  26  26  34  51  51  46  40  33  27  22  15  14  13  28  48  61  59  60  58  57  56  58  58  59  58  56  56  53  53  53  53  52  51  52  52  51  48  48
  45  46  47  47  47  48  49  50  51  51  51  51  52  55  55  57  57  44  22  18  12  14  10  10  12  12  16  19  23  24  23  28  31  26  31  30  22  25  29  29  26  27  42  56  51  42  49  25  23  20  13  29  56  53  37  29  44  47  43  46  39  30  24  20  17  17  12  11  26  50  60  59  63  59  58  57  57  58  56  54  55  53  53  53  53  52  51  52  51  50  48  48
  52  53  55  56  55  55  56  56  57  59  59  60  61  61  65  66  45  17  15  13   8   9   9  13  19  23  28  30  31  31  28  27  33  37  40  43  37  34  36  36  33  28  24  35  52  48  54  52  28  32  25  11  34  55  53  44  47  40  41  42  29  20  15  16  13   8  13  11  11  23  54  62  62  62  60  59  58  58  57  55  55  55  54  53  52  51  51  52  52  49  48  48
  58  61  62  62  62  62  62  64  64  66  67  67  68  70  69  48  19  14  11   6   7  14  24  24  24  20  17  19  28  39  47  50  39  35  39  40  37  32  37  40  34  33  35  31  26  30  43  44  41  37  39  25  17  37  54  66  50  49  52  41  34  29  25  38  38  29  15  12  10   9  29  60  63  61  62  58  57  58  57  55  55  56  55  54  52  52  51  52  52  49  48  48
  64  64  65  67  67  69  68  68  68  69  69  69  72  75  55  19  14  17   8   8  19  25  23  14  13  17  24  34  48  44  38  31  22  20  21  19  20  21  21  21  19  20  23  30  31  30  32  27  36  44  40  42  14  23  49  56  52  53  54  47  44  37  35  35  36  35  34  22  14   8   6  33  63  61  62  59  58  58  58  57  57  56  55  53  53  53  53  52  53  50  48  48
  67  67  68  70  70  69  69  69  70  72  72  73  78  54  17  11  14  13  15  23  31  27  18  16  21  29  28  25  22  17  18  18  19  24  32  34  34  32  33  38  39  39  33  21  26  37  44  48  41  40  47  44  28  14  43  52  47  38  40  44  36  32  31  26  32  33  28  25  17   9   6   6  40  63  63  59  58  57  58  58  57  55  55  53  54  54  54  53  52  50  48  48
  70  70  70  70  70  69  69  70  72  72  73  79  61  18  16  12  11  17  25  31  32  33  27  24  24  19  13  11  13  14  14  17  20  22  23  26  27  23  19  30  37  43  48  33  29  32  47  56  57  46  45  40  40  17  35  43  37  36  40  48  39  33  27  19  29  48  43  31  24  16  11   5   8  42  58  61  60  58  58  57  57  55  55  53  52  53  52  52  52  51  51  50
  70  70  70  70  71  68  68  70  70  72  75  68  21   9  13  15  15  27  32  30  30  24  17  13  10  12  12  10  11  12  11  12  12  15  14  19  22  22  18  18  16  20  29  46  45  28  30  46  51  45  30  41  45  21  28  44  35  34  36  39  35  36  30  23  14  17  37  46  39  24  18   9   4   9  40  59  61  59  58  57  57  55  55  53  51  53  52  52  52  52  52  51
  71  70  70  70  70  68  69  70  72  75  73  28   6   7  10  14  16  21  26  20  11   7   7   8   8   8   9   7   9  11  14  18  18  18  18  17  18  28  32  31  41  32  22  26  44  38  24  32  44  49  43  32  44  31  24  37  33  31  31  29  24  16  12  13  16  11   7  20  31  31  18  13   8   3  11  47  58  61  58  57  57  55  55  53  52  53  52  52  52  52  52  51
  70  70  70  70  69  70  72  71  74  71  30   5   9  11  11  13  16  13  12   8   7   7  10  10  10  11  11  10  11  11  11  16  22  26  24  27  24  25  35  38  36  42  40  35  33  39  40  30  33  44  54  37  40  37  25  36  31  27  37  38  25  13   9   8   8   9   9   6  14  37  37  21  10   8   4  19  55  60  58  57  57  55  55  55  54  55  52  52  51  51  51  52
  70  70  70  70  70  73  74  69  72  37   5   6   8   8  10  14  13   8   8   9   9  11  12  11   9   8   9  12  14  13  14  14  14  17  22  24  29  36  36  49  41  40  46  42  42  37  34  38  30  43  49  39  41  48  32  34  30  40  40  25  27  27  17  13  11   9   9   7   7  12  34  39  16   8   5   1  27  61  59  57  57  55  55  55  56  56  54  52  51  52  52  52
  69  69  71  72  72  72  73  74  53   9   7  10   7   8  10  10   9  10  12  13  11  10   8   5   4   3   5   8  10  11  14  19  19  23  17  21  24  34  42  46  50  43  45  55  41  44  41  35  36  39  52  44  39  51  31  35  43  47  29  32  28  29  32  27  17  12  10   6   7   5   9  29  28  12   8   2   4  43  64  60  60  57  57  57  58  56  55  54  52  53  55  52
  70  70  70  71  72  70  73  62  21   8  13   9   7   8   8   9  12  17  18  10   8   7   8   8   6  10   9   6   7  10  14  18  23  27  29  28  26  28  41  45  54  58  44  56  51  44  57  51  52  44  53  49  42  51  40  42  43  30  33  26  29  43  44  31  22  26  25  16   7   5   7  11  29  23   8   4   4  16  56  62  59  57  57  57  58  56  55  54  53  53  54  51
  70  72  72  71  68  70  71  34   6  11  12   6   7   5   7  13  19  16   7   5   6   8   9  16  15  12  21  23  13  12  17  20  27  27  24  30  35  39  43  54  55  55  51  52  55  46  60  68  62  64  57  54  46  52  52  47  42  40  42  32  47  41  31  35  36  31  22  14   7   8   8   7  11  28  22   6   5   4  29  63  61  59  59  57  58  56  55  55  55  55  54  52
  70  71  70  71  73  74  54  11   8  11   9   9   8   8  14  17  14   9  11  15  11  11  17  15  29  25  31  37  39  23  24  30  33  37  36  38  36  43  48  48  57  66  57  53  76  60  67  80  79  76  71  64  54  64  57  49  47  54  51  56  55  40  49  56  44  32  31  32  25  11   4   7   6  11  24  15   5   5   4  35  62  61  59  56  57  56  55  56  56  55  54  52
  71  72  71  70  76  70  31   8  12  11  11  11  10  11  15  17  13  19  26  26  29  27  27  27  31  48  48  43  51  43  35  36  39  54  48  50  55  54  60  60  59  60  75  60  78  86  79  93  86  86  94  74  66  81  76  65  54  63  73  81  66  64  71  64  59  50  36  39  34  26  14   8   6   6  18  25  12   6   2   8  53  62  58  57  57  58  57  57  56  53  53  53
  70  71  70  73  77  55  20  10  14   8   7   6  11  18  19  18  19  27  38  46  50  61  48  45  46  46  55  58  55  52  42  45  42  56  59  56  64  73  75  84  86  70  79  87  89 108 102 112 109 120 108  94  93 101  95  84  80  93  97  88  93 104 115 104  94  90  67  44  33  35  29  15   7   7   7  15  18   9   3   0  35  62  60  57  58  58  58  58  56  52  52  53
  71  73  72  74  71  33  10  12  13   9   6   8  19  22  20  21  26  37  61  70  76  71  74  63  70  62  68  71  70  71  70  69  65  62  61  64  67  84  91  92 101 100  97 103 109 120 122 133 141 140 131 132 122 124 114 115 108 111 117 122 140 142 132 127 123 117 107  80  46  31  35  20   9   5   6   5   8  10   5   0  24  59  60  58  58  59  58  57  56  54  52  53
  72  73  73  75  58  17   9   9  13  12   9  16  25  22  25  30  44  64  78  89  99  95  96  98  89  90  93  92  98  94  99  96  94  87  90  90  91  99 113 119 117 121 119 128 132 144 145 154 159 148 152 143 143 133 132 137 131 130 137 148 156 152 143 146 148 141 130 116  82  41  30  25  13   6   5   6   4   4   4   3  19  52  58  59  59  58  58  57  54  55  55  55
  71  72  74  78  43   9  12   5   6  11  15  21  18  23  31  40  57  77  97 109 112 113 117 117 120 107 110 114 116 126 129 128 132 132 129 127 125 129 139 141 138 139 136 146 152 163 163 167 163 161 165 169 160 152 154 153 149 150 156 151 150 149 149 148 154 147 142 137 121  77  33  31  15   6   6   6   7   6   7   4  18  50  55  63  59  58  57  57  54  55  55  55
  71  73  77  68  22   9  12   7   9  12  19  15  21  34  39  57  66  82 108 112 117 119 128 124 132 131 126 130 131 143 144 148 159 156 152 152 151 154 153 153 157 159 157 153 168 171 177 181 181 191 187 181 171 167 165 166 158 155 155 153 155 154 155 148 149 149 149 151 138 106  56  34  38  24   7   7   6   5   7   4  14  47  51  60  59  58  57  57  55  55  55  55
  71  74  77  44   7   9   8   9  11  14  16  12  30  39  49  66  77 109 117 115 117 121 132 139 140 141 139 139 140 149 155 156 157 161 161 166 159 156 162 168 173 169 171 169 177 183 181 183 186 188 186 184 184 184 173 167 164 159 159 160 160 156 143 143 153 154 154 153 149 132  81  45  45  47  18   7   4   5   8   6   4  32  56  59  61  58  57  57  55  55  55  55
  75  75  70  25   6   9   9  10   9  14  10  15  32  49  58  66  94 121 117 118 111 121 132 135 139 144 146 147 144 150 154 158 161 166 168 169 168 170 170 178 183 182 185 182 185 190 185 184 193 196 193 199 192 186 185 175 174 163 158 160 159 154 146 150 157 158 157 150 141 140  99  67  54  39  25  10   4   6   6   5   2  23  60  58  58  58  58  58  58  58  58  57
  71  74  60  16   8  10  11  10  10   8   9  21  36  52  57  73 105 116 114 115 118 129 134 135 141 140 145 147 149 151 154 159 163 168 167 171 174 178 177 184 192 188 182 189 191 193 195 198 195 195 196 196 190 186 181 179 174 167 158 161 161 158 155 155 152 160 157 146 137 131 112  79  68  49  28  14   6  11   7   3   5  11  51  59  57  58  58  58  58  58  58  57
  71  77  55  10   7   8   8   9   9   9  11  17  31  47  53  77 103 109 112 113 121 126 133 135 139 139 138 143 144 148 153 154 162 170 170 174 175 179 177 187 185 177 183 190 191 197 199 199 198 194 200 195 188 184 178 179 176 171 161 159 159 157 155 151 151 153 158 151 138 124 110  92  77  62  43  22   9   5   6   5   6  14  52  59  58  58  58  59  57  58  58  57
  74  79  50   9  10   9   7   5   8   9  11  22  39  54  69  85  98 108 115 119 124 126 131 132 133 138 137 143 145 150 152 153 163 171 174 178 176 178 175 178 178 174 182 185 189 193 192 189 188 185 186 189 185 178 175 171 171 170 166 159 157 157 154 155 148 148 157 151 136 127 109  99  85  70  47  30  18   7   4   3   7   9  48  62  59  59  59  58  57  57  57  57
  73  78  46  10   8   9   7   5   5   8  13  21  33  53  69  76  89 106 119 130 128 124 129 134 139 142 143 143 150 156 157 158 160 167 168 170 170 168 166 171 176 176 178 180 175 172 168 168 169 170 173 176 175 170 170 169 169 168 163 161 159 156 153 160 156 151 151 149 137 130 114 104  97  79  59  30  17  10   7   6   5   2  32  65  61  60  59  58  57  57  57  58
  70  76  50   5   7   6   6   6   6   7  12  22  33  55  76  72  87 110 125 130 128 125 129 137 142 144 144 144 151 154 159 158 160 164 165 164 163 158 154 158 159 163 165 166 169 171 175 180 189 183 184 185 182 176 176 176 170 168 165 165 163 156 154 158 157 152 150 147 135 131 124 112 100  80  61  36  16  12   8   7   4   1  23  63  63  61  59  58  57  57  57  57
  71  75  52   4   2   4   4   6   6   8  20  30  39  66  75  72  90 111 122 131 125 124 132 138 141 142 141 141 146 146 150 151 157 162 174 174 171 174 168 167 167 171 173 178 181 181 181 185 189 179 179 187 182 179 176 177 175 171 171 172 169 164 161 157 154 150 145 146 137 122 116 109 106  93  66  41  21  10   8   7   4   0  30  63  62  60  59  59  58  57  57  57
  76  74  35   2   2   3   5   5   6  12  26  39  51  77  75  71  91 105 117 130 129 122 126 136 141 141 138 142 148 147 151 151 153 163 172 169 171 169 168 165 167 168 174 172 176 177 176 178 178 176 183 184 179 172 168 168 170 167 167 166 168 168 162 162 158 145 140 145 139 129 122 106  99  92  76  51  35  13   7   6   5   1  35  64  62  60  59  59  59  58  57  57
  79  68  35   5   2   5   6   7   9  12  23  38  48  64  74  74  93 103 119 129 129 125 125 134 144 147 143 146 153 154 156 153 154 156 164 163 162 163 166 163 162 160 166 171 170 169 168 165 163 163 161 156 160 156 156 156 153 156 155 153 156 156 156 155 153 143 137 142 148 143 137 119 108  93  72  54  37  21   9   7   5   2  24  63  62  60  59  59  59  59  58  57
  75  71  46   9   2   4   3   5   9  12  22  34  46  67  86  85  97 109 124 123 128 132 125 136 142 143 145 150 152 154 155 152 153 156 162 159 163 164 166 162 160 160 167 168 169 174 172 167 171 171 164 161 165 164 163 164 161 162 164 163 160 162 161 154 151 144 134 131 147 147 143 135 119 103  78  56  36  22  13   8   5   3  13  62  63  60  60  59  59  60  61  58
  75  78  64  16   3   3   3   4  10  19  28  44  57  72  92  89  96 114 120 123 133 134 133 130 135 140 144 142 143 145 148 147 148 151 158 158 165 165 166 172 166 165 169 174 172 169 164 163 163 163 162 158 159 160 159 161 160 157 157 161 158 161 157 154 150 146 138 133 139 144 148 144 130 114  88  66  46  25  14   9   5   3   8  56  63  58  60  59  59  60  61  58
  80  77  75  28   1   4   6   6  12  16  32  53  73  84  95  92 101 111 112 126 136 140 134 129 131 135 139 141 140 140 142 142 140 142 142 147 147 150 153 151 150 151 151 150 157 157 153 152 158 159 157 159 157 156 159 160 160 157 160 162 157 157 155 153 145 145 142 141 137 141 148 149 140 139 112  73  58  32  16   9   5   3   4  44  55  58  60  59  60  60  60  59
  84  77  80  43   3   7   6   6   8  13  29  53  69  78  95  96 103 103 110 126 133 133 129 137 137 135 138 139 135 141 142 145 149 153 152 152 154 158 158 156 158 156 156 160 164 162 158 160 164 160 158 161 157 162 170 171 157 158 158 156 156 157 154 153 143 140 139 143 136 140 143 147 144 144 132  92  57  31  11   8   6   4   6  22  31  56  61  59  59  59  59  59
  87  85  82  58   9   7   5   7   9  16  32  60  74  74  89 101  95  98 115 123 123 128 132 129 135 132 134 139 140 146 149 150 153 154 155 160 165 164 156 156 156 156 158 163 163 163 158 159 164 171 173 173 165 159 165 167 157 161 164 160 153 155 162 157 151 142 137 141 139 141 144 142 139 143 139 124  69  40  16   6   5   4   8  51  57  57  58  59  60  59  58  58
  92  87  86  76  26   6   7   6   9  14  30  59  77  76  86 102  93  98 114 108 116 128 136 134 137 142 147 139 135 145 154 153 152 156 162 166 165 164 164 163 162 155 155 160 165 165 165 169 171 162 164 164 164 167 170 172 169 171 166 162 158 160 163 168 163 155 136 133 139 142 140 141 136 137 134 133  78  35  16   9   5   5   6  46  57  56  59  58  59  58  57  57
  96  90  85  88  49   5   8   6  10  16  29  52  74  76  83 102  91  96 101  96 113 136 141 141 140 151 147 141 147 153 155 156 160 163 165 171 172 167 161 159 158 158 158 163 168 167 164 161 162 173 184 184 188 183 178 182 176 175 175 167 164 163 163 161 160 155 147 132 137 141 140 141 143 134 123 128  87  38  18   9   4   6   2  20  48  63  59  58  59  59  59  59
  96  90  87  90  65  14   7   6  10  16  28  47  73  81  83  97  90  92  88 104 122 145 145 148 151 156 158 156 154 160 163 165 169 168 166 175 182 177 175 165 165 171 171 178 174 171 168 173 180 189 195 196 197 197 185 185 185 184 184 179 174 165 155 148 152 152 150 138 128 135 135 139 147 135 128 122  83  35  27  33  34  19  11  28  53  59  62  61  58  59  59  59
  97  91  87  88  71  39  13   7   9  17  25  45  70  81  82  92  90  82  88 114 106 112 125 139 155 156 160 165 164 162 163 165 164 169 167 171 184 181 175 169 173 175 180 184 171 171 177 182 193 190 191 191 192 188 186 185 183 175 170 166 142 126 113 110 115 125 137 140 131 131 136 139 143 136 132 121  76  33  25  34  42  29  76  94  70  82  58  60  59  59  59  59
  96  92  88  86  63  52  29  11  10  16  22  46  68  78  82  87  81  74  94  89  68  69  90 117 129 127 117 121 136 142 148 160 158 165 171 164 170 177 172 175 175 164 162 167 162 162 175 178 185 186 184 180 180 176 163 153 134 124 115  95 106 104 100  95 103 110 107 120 137 127 131 141 145 133 128 116  72  34  24  22  35  37  91 122  87 108  62  59  59  59  59  59
  96  92  89  86  78  76  44  12   9  14  23  43  67  76  79  80  74  74  91  83  68  74  65  63  78  81  68  60  61  84 105 116 128 141 153 153 158 163 169 170 164 162 163 159 156 151 163 167 172 174 176 169 158 121  83  83  76  69  65  82 105 109 119 124 124 126 121 106 123 131 128 134 138 134 129 111  62  31  32  34  46  65  52  60  52  98  77  55  59  59  59  59
  93  91  87  80  89 114  42  10  10  17  26  42  61  70  79  78  75  73  81  84  91  95  88  88  89  84  78  73  63  64  76  76  87 101 111 131 147 152 161 165 158 163 167 169 162 147 159 163 159 157 150 131  91  55  53  63  73  89 114 131 138 142 134 135 133 138 139 124 122 130 129 129 136 139 129 112  57  24  31  31  63  69  64  51  61  94  84  53  60  62  61  62
  93  92  85  78  80 105  46  13  11  13  24  39  57  68  82  74  76  71  77  92 100 114 119 131 145 151 157 147 126 108  97  87  87  89  99 107 124 141 150 151 156 164 166 174 175 155 142 145 137 130 114  92  78  83 103 111 136 165 179 186 173 159 154 154 146 142 141 137 123 125 131 134 138 142 129 106  53  27  24  22  57  55 111 124  95 115  80  55  60  62  61  62
  93  90  82  77  73  98  69  20  15  15  21  37  59  65  81  73  78  73  72  91 106 118 126 138 152 159 161 176 171 161 154 135 112  93  93  98 107 119 131 142 153 163 173 174 170 167 157 137 113  99  92  95 118 136 148 158 170 183 182 178 171 165 160 158 149 143 134 128 119 126 126 136 144 140 128 103  54  33  28  23  27  64 107 154 140 148  77  55  61  62  61  61
  91  83  76  75  69  88 107  57  19  20  23  38  62  65  78  86  83  82  77  92  99 108 111 126 144 153 159 171 176 179 180 176 167 149 132 113  96  95 105 120 147 157 169 176 176 170 163 139 118 113 127 142 141 139 136 151 174 181 183 180 177 166 157 159 157 146 135 135 135 134 128 144 144 133 124  94  51  42  49  32  26  45  90 123 163 156  66  58  62  62  61  62
  89  80  75  73  67  80 121  91  46  22  20  31  55  68  77  90  84  92  83  94  99 106 104 116 141 152 147 148 151 143 119 109 122 140 159 162 135  98  75  91 135 153 161 169 170 166 160 142 136 138 132 110  88  59  47  50  77 115 121 130 142 153 164 163 152 135 133 133 135 139 147 143 133 134 129 101  46  43  50  41  70  75  76  91 158 162  61  60  63  62  62  63
  84  77  72  70  67  67 115 103  75  43  22  27  52  76  86  88  94  94  88  82  94 103  97  99  82  59  47  38  63  40  61  96  57  55  76 111 131 114  75  80 130 149 161 171 169 163 153 135 126 107 105 111  82  72  77  45  29  17  22  27  55  61  80 117 140 133 130 121 123 141 143 132 143 141 127 108  51  34  50  52 102 122 125 124 172 148  55  61  64  62  63  64
  79  78  73  68  66  61  95 107  89  69  27  28  52  67  92  90  95  96  90  77  85  92  72  44  48  35  32  22  44  67 137 206 164 120  82  81 105  94  77  85 125 145 158 165 171 164 147 133 134 137 143 134 112 111 121  87  89  87 102 100 121 113  97  64  73 109 121 121 142 137 137 150 154 137 125 106  67  38  51  62 112 139 134 149 172 104  53  61  62  62  62  62
  83  77  70  67  68  64  73  95 100  87  31  32  49  59  86 119 110  92  91  80  81  76  49  63 111 114 103  90  96 116 152 164 152 154 133 126 124 120  76  86 130 146 158 165 165 165 149 132 154 184 151 127 136 129 125 125 129 147 154 151 153 152 142 115  93  75  90 114 135 143 160 156 146 133 118 101  65  40  47 101 144 148 141 164 151  67  57  60  62  63  64  63
  84  78  69  67  68  65  65  86 113 101  38  32  49  64  78 109 135 129  96  82  76  70  79  80  93 115 129 138 138 137 142 142 144 147 146 166 152 108  77  95 137 153 163 171 164 159 147 131 152 179 166 165 153 135 121 117 133 143 149 143 143 139 137 137 143 126 104 128 154 155 148 141 138 130 121 106  62  39  56 123 157 146 152 174 112  51  58  58  61  63  64  63
  84  78  69  64  63  65  64  89 125 110  45  31  47  66  79 101 110 129 124 112  95 104  96 110 100  99 117 127 141 152 152 154 146 143 150 172 162  92  75 106 140 152 160 168 165 154 145 139 139 165 179 158 147 138 132 135 148 148 144 140 137 141 145 146 132 134 145 152 151 156 159 155 148 135 118 104  72  50 100 143 156 166 166 165  80  50  56  57  60  62  60  61
  85  78  70  65  67  68  61  93 142 111  42  33  51  68  86 104 122 139 151 141 113  99 107 104 130 118 115 105 121 142 148 155 145 153 156 158 119  78  78  99 142 151 153 156 152 146 147 152 147 144 162 151 145 142 142 142 151 163 156 149 155 151 141 141 145 141 153 164 165 161 154 150 145 134 120 104  71  66 128 161 169 184 171 149  60  52  53  55  57  60  60  62
  85  78  70  68  68  68  67  87 124 106  55  42  52  67  86 105 121 149 155 151 146 117 103  99 118 128 125 133 136 150 157 153 145 144 153 148  98  80  79 106 144 147 157 160 154 141 148 156 152 149 151 155 149 139 144 146 148 160 155 158 154 154 151 151 143 142 156 161 164 159 160 151 140 129 114 103  67  78 142 166 168 178 175 134  49  52  54  56  57  58  60  63
  86  80  76  72  72  72  69  89 129 124  68  38  49  65  81  97 122 138 139 144 148 153 131 126 123 131 135 139 145 148 146 141 144 147 159 154  94  85  80 115 143 149 162 172 158 143 147 155 151 157 159 163 162 154 144 148 151 162 160 160 159 154 147 141 143 157 164 156 152 154 161 160 142 128 118 109  70 108 162 156 164 179 177 120  42  49  52  56  57  57  58  60
  91  86  84  78  76  73  73  86 127 135  61  39  48  62  78  96 121 117 135 148 157 155 147 135 128 130 142 142 147 150 153 156 157 164 175 138  86  83  82 114 138 151 165 168 162 150 141 152 159 156 154 161 168 176 169 158 156 161 150 156 162 156 152 151 151 156 156 161 157 156 153 151 148 125 115 101  79 131 152 153 179 174 176 101  40  50  50  52  54  55  58  60
  96  91  85  83  80  77  75  90 111 129  67  39  43  61  70  98 111 121 138 149 144 141 143 152 162 162 156 154 158 160 162 165 171 181 173 109  83  81  80 105 134 154 162 163 163 149 142 147 162 157 159 160 166 178 183 184 167 167 166 164 162 165 166 160 159 158 159 152 157 159 154 148 139 129 112  96  94 147 136 158 183 170 178  87  39  51  52  52  54  54  56  58
  99  96  90  86  84  81  74  96 115 111  73  38  41  57  64  91  92 125 134 132 138 133 147 156 161 166 163 160 162 165 172 181 178 181 153  94  85  84  78  98 137 155 163 163 159 151 147 144 160 159 164 161 161 170 173 178 181 181 175 176 177 175 168 176 169 161 157 154 156 159 153 151 133 127 108  89 112 149 152 171 170 175 172  74  39  48  50  52  52  54  55  57
 104 101  95  88  86  82  75  92 110  99 107  65  46  57  66  78  87 123 129 130 131 138 144 154 161 164 162 165 169 167 173 186 181 164 135  99  85  82  80 108 139 156 168 165 158 154 146 138 152 163 158 164 173 176 171 170 178 179 179 174 180 178 171 176 175 169 162 161 154 151 148 148 139 124 107  90 115 165 178 164 167 183 164  65  42  47  49  50  50  53  55  56
 102  99  94  90  88  82  75  88 103 108 139  90  44  54  63  73  91 116 130 125 132 136 144 160 165 163 162 171 179 176 179 180 176 160 143 106  83  82  84 120 144 159 167 162 162 157 154 149 142 152 153 158 173 181 186 179 179 175 175 174 181 180 185 182 179 172 168 161 155 156 149 153 144 125 107  91 106 157 180 172 173 183 148  52  46  47  49  51  51  52  54  56
 100  97  90  85  83  78  73  86 113 117 152 108  42  49  60  70  92 107 118 119 124 138 148 157 161 163 174 178 176 181 177 181 183 175 143  93  80  80  95 126 151 162 167 166 162 166 164 155 145 140 146 153 162 173 185 185 187 179 178 180 177 181 184 182 175 172 167 164 156 163 152 148 140 125 106  95 113 171 192 178 181 189 129  42  44  48  50  50  51  50  51  54
  98  94  87  84  81  78  69  90 124 112 142 116  48  46  58  69  84 105 105 118 123 135 143 155 163 171 176 176 180 183 185 191 189 174 126  82  78  82 101 130 158 165 166 169 172 171 166 159 152 141 142 148 159 165 175 177 184 186 186 185 186 191 192 179 174 174 168 158 155 151 143 139 135 119 104  87 105 183 192 176 190 194 111  36  45  48  49  50  51  50  50  53
  91  88  83  79  78  76  67  89 139 124 122 110  62  50  55  70  86  95  90  95 123 136 144 158 164 165 175 178 184 181 186 186 185 155 102  83  80  88 103 138 163 171 172 184 186 173 169 160 154 150 148 147 151 163 164 165 177 180 183 186 189 192 193 187 176 171 169 158 156 146 134 135 130 111 102  87 119 187 180 180 196 193  97  35  45  47  49  51  52  51  51  52
  84  84  78  75  73  70  63  78 130 139 117 104  71  53  55  68  85  86  81  86 116 136 143 156 169 165 178 183 184 186 188 190 173 120  96  83  83  87 102 144 179 193 196 196 185 177 170 161 160 156 154 153 144 159 165 152 165 171 185 182 189 190 193 186 178 170 168 157 149 140 138 135 128 113 103  86 119 180 174 190 198 187  79  36  46  47  49  51  51  51  51  52
  79  78  75  71  68  64  57  64 120 140 125 105  70  53  61  64  79  83  80  84 102 125 144 154 169 176 174 185 188 190 190 183 140 100  93  82  81  86 118 159 180 192 205 200 187 178 166 159 161 154 154 155 143 159 171 147 135 158 171 177 185 185 186 181 177 170 167 158 142 138 134 136 131 114 106  97 113 171 179 188 192 167  55  38  46  46  49  51  51  52  52  53
  75  72  70  66  61  56  49  52 117 148 124 101  73  57  62  63  75  78  76  81  93 117 140 145 167 175 175 179 186 188 185 163 108 114  93  81  74  78 127 163 169 168 177 185 184 164 147 139 117 111 135 148 135 161 177 174 137 118 150 167 177 181 183 180 180 170 162 158 142 136 136 144 130 114 100  84 109 169 179 187 196 136  43  41  45  47  49  51  51  52  53  54
  63  61  59  56  53  51  49  42  93 138 114 105  73  54  62  58  74  83  79  81  90 111 134 150 160 171 182 184 184 180 172 123 114 124  93  62  60  54  83 146 165 159 153 163 158 140 113  79  67  75  84 109 138 172 180 177 178 138 114 148 170 180 183 178 173 165 162 157 139 131 140 149 126 113 106  83 103 160 180 185 188 104  34  43  46  47  49  51  51  52  53  54
  50  49  48  49  50  46  47  44  60  99 114 125  85  52  61  65  71  81  83  85  89 105 126 151 158 168 178 182 178 169 136 113 125 116 108  80  61  57  48  86 146 158 139 122 119 123 123 127 140 140 108 136 172 171 175 177 178 182 145 107 139 167 172 171 174 172 166 153 136 132 135 138 124 114 102  95 124 161 166 184 169  65  34  43  46  46  49  51  51  52  53  53
  39  40  42  44  44  45  45  44  44  80 115 130  87  51  64  63  71  78  82  86  84  98 119 149 152 161 171 174 166 145 133 122 118 107 103  98  91  86  73  60  78 121 129 106 106 124 148 142 136 136 151 171 167 164 153 167 176 174 177 147 105 136 161 164 168 166 166 153 133 135 145 141 131 124 108  84 128 179 169 175 127  34  37  42  45  46  49  51  52  53  53  53
  33  34  37  38  42  42  41  43  44  53  93 124  79  40  59  57  71  83  86  89  82  95 120 142 150 159 171 169 145 130 138 109  99 100  86  89  90  77  73  62  60  62  78 106 131 130 139 128 118 129 142 163 158 145 146 153 167 160 162 177 132  94 143 163 163 166 160 150 133 140 147 143 133 123 117  83 121 183 177 157  63  27  38  40  44  47  49  51  52  54  52  53
  29  31  33  33  36  38  37  40  40  40  50  74  57  50  65  59  71  76  87  96  79  91 119 139 156 164 166 151 129 138 134  99  85  83  81 100  83  85  76  60  83  92 119 144 157 143 137 142 133 132 116 136 137 140 146 144 143 154 154 163 168 136 107 150 168 167 157 150 137 140 152 146 134 117 110  93 122 167 151  79  24  29  35  39  45  47  49  51  51  54  53  53
  28  29  32  34  34  35  34  35  34  35  35  36  42  51  64  62  74  72  88  99  78  95 114 136 151 161 160 137 133 146 146 109  90  81  89  71  73  82  90  98 104 119 145 164 164 146 131 166 144 134 120 128 143 131 141 142 144 140 147 138 159 165 123 116 155 165 162 155 142 138 145 145 139 115 117  93 101  80  44  20  24  30  34  38  44  47  48  51  53  53  55  55
  25  27  30  32  31  30  31  31  30  29  30  34  37  47  58  55  76  76  96 100  78  95 123 140 155 159 148 121 122 137 142 115  93 102  97  91  83  97 130 143 125 116 147 176 170 154 148 153 137 137 136 144 144 146 127 134 135 128 140 145 139 162 145 107 149 166 158 150 144 146 145 131 127 114 113  97  56  22  22  24  26  31  34  39  43  47  49  52  54  51  54  54
  22  23  22  24  26  26  26  26  27  25  27  34  38  50  69  64  68  73  96  99  79  90 127 149 160 157 142 108 110 134 123  98  88 110 114 115 108 106 118 145 152 133 155 154 175 167 151 152 147 142 157 147 147 158 139 128 136 129 124 151 148 151 152 130 146 166 161 157 146 143 148 137 122 117 103 101  58  21  28  26  27  29  33  39  43  47  51  53  53  53  54  53
  17  18  19  22  23  23  23  23  23  24  30  33  36  43  70  82  72  70  94 105  87  83 123 148 165 154 119 108 117 132 114 113 113 117 120 118 135 122 129 134 147 139 150 152 166 165 149 153 151 166 168 165 160 152 149 151 145 119 126 135 146 129 136 117 140 165 161 154 136 144 138 141 126 105  98  88  41  23  25  28  27  27  32  38  43  48  52  52  52  52  52  53
  17  16  18  20  21  20  21  20  22  25  28  32  35  34  49  60  66  83  97 106  89  81 113 145 167 148 104  95 113 134 142 127 108 121 122 132 142 127 137 127 136 160 164 178 185 178 159 154 158 156 154 155 149 148 136 133 130 105 117 107 122 133 153 137 150 162 165 149 141 152 150 145 121 104 112  90  35  24  27  25  26  28  32  37  44  47  50  53  54  54  54  52
  19  19  19  21  21  20  18  22  24  28  30  31  32  36  46  62  73  76  95 112  94  86 113 150 169 166 116 100 112 125 134 119 110 113 112 119 118 114 123 126 121 117 126 136 149 152 138 133 123 114 111 111 110 107 101 110 114  99  81 100 118 139 145 163 176 162 156 145 143 152 159 129 119 119 112  78  31  27  28  27  28  31  34  39  43  47  51  55  55  56  55  51
  21  22  25  26  26  24  22  24  26  28  32  35  36  35  47  66  66  70  91 116  99  78 114 151 166 174 143 105 124 118 118 101  90  77  69  69  76  92  95 115 125 116 128 126 127 143 154 160 152 142 143 138 139 137 144 154 160 161 132 116 109 125 137 152 163 164 156 141 143 152 159 138 122 106  96  70  29  31  31  31  31  33  35  39  44  49  52  55  56  56  54  51
  23  25  28  31  29  28  28  29  29  32  36  38  37  38  42  58  59  64  86 101 100  80 102 140 159 168 161 119 126 131 101  88  93 100 104 107 123 135 132 151 150 162 165 167 169 180 186 179 173 160 157 160 156 157 159 161 160 168 175 166 128 129 142 149 163 163 163 140 139 153 148 141 119 102  86  50  29  31  32  34  34  35  37  41  46  51  54  55  57  56  54  52
  23  26  30  32  32  30  30  31  34  37  41  42  41  41  43  55  48  69  92  96  90  86  88 116 151 168 178 159 145 129 126 124 129 119 119 123 130 137 130 132 145 159 164 173 173 171 180 171 166 162 156 153 154 157 150 155 166 176 175 173 141 130 143 167 162 163 145 130 134 152 140 137 117  99  78  39  31  33  36  36  37  38  40  42  45  51  55  55  57  56  54  52
  20  25  27  31  32  32  32  33  35  37  40  43  46  47  46  50  51  63  84  98  92  71  69 101 130 161 183 174 138 137 135 134 132 126 119 116 128 127 128 143 146 160 172 175 172 171 171 161 159 150 154 153 153 153 151 157 165 169 164 155 138 141 156 171 165 150 130 134 138 153 143 146 110  88  68  37  31  35  37  39  42  42  41  44  49  51  53  57  57  56  54  51
  19  21  24  27  30  30  31  32  35  37  40  44  47  50  45  54  51  56  79  94  95  90  69  74  99 144 159 163 147 156 132 123 127 121 112 106 118 114 110 129 145 141 142 143 140 145 137 137 145 140 140 143 142 137 146 154 156 161 161 153 125 148 161 152 164 152 139 121 136 150 145 122 103  87  66  34  35  38  39  42  44  44  45  46  51  53  55  57  57  57  54  51
  18  21  25  24  28  29  31  31  32  34  37  42  46  50  50  56  54  50  66  84 104 100  87  59  90 133 153 158 153 161 145 121 125 118 105 103 108 113 123 131 124 126 138 139 131 140 129 128 141 137 125 131 129 144 149 147 150 158 162 151 152 162 165 156 153 147 130 132 145 146 136  98 105  82  49  36  37  39  41  44  46  47  48  51  51  54  56  56  57  57  54  51
  15  19  21  22  24  25  27  28  30  31  35  40  44  47  48  48  54  39  48  64  88 105  94  72  69 118 138 133 151 154 159 145 114 111 109 101  90  97 104  98 115 128 122 132 140 148 147 128 128 126 125 128 145 154 151 148 157 163 166 163 159 151 152 154 154 129 128 145 135 136 123  94  95  88  47  37  39  38  41  47  50  51  53  52  54  57  58  55  57  56  54  51
  13  18  19  21  22  23  24  24  26  28  32  37  41  42  43  45  59  51  40  43  66  89  90  88  59  84 118 121 149 163 171 162 112 105 113 100 108 102  96  89 114 118 126 141 142 137 130 131 146 140 145 155 168 164 158 158 163 167 163 167 158 137 148 144 141 129 122 132 131 125 120  98  89  59  40  37  38  41  44  48  52  54  58  57  59  60  59  58  58  55  56  52
  12  13  14  15  15  16  17  17  20  22  23  28  34  35  35  68  64  52  35  37  68  86  95  89  76  58  94 112 132 152 172 169 148 128 112 112 125 125 111 133 125 111 127 120 107 134 139 126 147 161 168 169 164 161 157 164 174 165 154 153 166 160 159 148 111 129 128 118 122 127 101  88  99  54  35  39  37  40  45  49  54  57  61  63  66  67  64  61  57  55  54  51
   8   9   8  10  10  11  11  12  13  16  18  22  25  27  32 110  89  53  50  47  53  82  98  90  95  60  58 100 125 144 157 164 145 148 140 129 133 139 142 146 136 147 140 135 151 152 154 158 157 155 162 161 169 171 163 169 168 161 144 136 150 158 137 132 114 114 137 130 142 132  96  79  73  44  41  41  39  40  43  49  57  61  63  65  67  67  68  65  58  54  52  49
   6   4   6   5   4   7   7   7  10  12  13  16  19  20  43 130 124  49  56  52  45  67  92  94  97  62  58  90 110 135 153 151 138 144 141 142 144 149 148 126 124 148 146 157 171 164 160 171 165 157 151 141 161 176 164 169 163 151 147 144 146 149 126 120 115  98 137 124 111 114  93  90  61  41  42  40  41  41  42  50  60  64  66  68  69  69  67  66  61  54  53  48
   3   4   4   3   3   5   6   5   6   8   9  10  10  10  63 133 149  58  55  66  52  48  73 100  99  62  58  82 106 123 137 130 139 137 141 146 148 147 131 118 122 139 155 162 165 163 160 164 164 160 155 135 148 159 172 152 147 151 148 154 155 140 139 120 108 119 126 118  97  87  84  88  49  42  43  41  40  41  41  49  58  65  69  70  69  69  67  67  63  57  52  48
   3   3   3   3   3   4   3   4   6   7   6   5   5  14  86 133 164  95  47  69  57  47  65  88 106  87  65  64  76 100 117 118 122 138 139 127 126 120 107 126 138 145 159 154 164 157 150 166 163 160 156 147 135 143 165 154 151 149 162 142 134 144 136 119 110 109 108 122  92  71  86  88  47  43  46  43  41  40  41  47  55  64  69  71  69  67  69  67  63  57  50  46
   4   4   4   4   3   4   4   3   6   5   4   3  12  32 102 139 163 125  51  66  58  43  48  68  85  74  69  64  84 104 115 115 132 151 137 140 129 109 124 133 141 146 149 160 163 176 167 157 159 160 151 151 145 141 160 162 149 148 159 159 153 134 125 103  91 126 110 102  74  68 100  84  45  44  44  42  40  40  41  45  53  62  66  68  64  63  64  64  61  56  52  46
   6   6   6   4   3   3   3   4   8   5   2  14  20  42 114 142 155 158  71  61  64  48  41  51  66  76  71  65  88  97  78 118 132 135 151 151 126 122 122 125 139 147 149 160 168 161 165 169 159 148 148 146 147 145 162 166 165 169 160 146 150 131 114 122 102 114 108  79  59  85 108  78  45  46  42  44  42  42  42  43  49  58  63  64  61  60  60  60  57  53  51  46
   6   6   6   4   3   3   3   4   7   4  14  27  14  57 125 149 154 171 119  50  79  62  46  49  52  67  72  77  75  77  85 114 133 142 160 144 123 132 126 122 132 141 149 140 162 162 165 183 163 157 157 153 151 133 139 160 160 158 169 157 122 130 130 137 122  91  71  60  75 106 115  70  44  47  43  43  43  44  43  44  48  53  57  60  57  56  55  56  51  49  47  43
   6   7   6   4   3   2   4   3   0   9  30  27  17  77 131 153 158 159 168  81  64  75  62  48  42  57  65  72  71  77  88  86 120 137 138 152 145 132 109 116 120 136 138 148 155 169 151 169 163 156 151 136 144 150 132 160 175 161 157 156 138 128 109 115 107  82  57  66 105 116 113  62  48  51  47  43  44  46  44  43  46  51  54  53  50  49  50  52  49  47  43  41
   6   6   6   4   3   3   3   3   5  24  34  24  21  98 134 154 163 156 172 161  65  72  89  63  40  51  51  60  68  70  84  85 120 141 135 135 131 135 116 108 118 132 130 147 136 154 156 155 153 157 142 133 138 154 151 164 172 163 156 147 128 101  89  87  71  51  62  94 125 126 104  52  49  50  48  43  44  46  44  43  46  49  52  50  47  45  46  46  45  42  37  36
   6   6   6   4   3   6   3   1  21  34  30  22  28 111 135 152 164 160 158 186 148  67  83  86  50  46  40  60  65  68  74  91 116 127 137 136 139 134 133 107 116 127 139 124 132 138 144 151 145 133 137 138 138 142 158 145 151 154 152 134 113  88  76  72  62  62  82  98 121 130 108  51  50  51  48  46  44  46  47  46  47  48  49  48  45  41  41  42  40  38  36  34
   5   6   6   3   3   3   2  14  32  30  33  24  37 119 140 157 165 163 161 167 195 157  74  86  83  45  37  47  51  60  60  88 103 104 126 141 149 141 125 113 111 125 130 130 131 132 152 137 129 128 119 117 125 143 160 158 156 144 139 112  96  88  76  61  68  82  97 108 123 120 140  65  31  53  51  46  45  47  47  47  47  49  50  48  44  38  36  37  35  35  35  33
   5   6   5   3   2   2  15  33  32  31  31  22  45 126 142 161 167 167 165 167 182 214 166  81  85  90  62  48  42  51  60  78 103  92 104 122 140 134 136 123  99 107 103 124 132 125 140 129 127 130 109 127 145 139 147 158 131 125 116 101  91  68  65  65  78  92 109 126 130 121 184 100   4  29  46  47  45  45  49  47  46  50  50  47  42  37  32  33  32  30  28  27
   5   5   5   2   3  13  32  32  31  31  29  21  41 129 146 160 171 170 167 170 180 197 220 174  89  82  97  68  48  52  50  61  97 111  92 108 127 133 139 126 120 101  94 101 113 110 105 117 139 127 109 111 145 144 131 140 116 111  99  99  67  60  64  76  94 116 124 132 124 133 215 140  13   9  21  39  47  46  49  48  46  50  50  46  42  37  33  30  29  29  26  26
   5   5   4   3  17  33  34  32  31  30  30  23  32 127 153 165 173 170 168 168 178 191 207 221 184 101  78  94  87  57  48  54  63  89  98 112 116 131 132 121 109  85 101 115 113 103 108 115 115  97 104 121 133 126 118 134 107 105  86  58  54  57  59  87 114 123 130 132 115 158 231 168  35  19  23  19  31  48  53  48  46  48  48  46  42  34  31  29  27  29  27  24
   6   5   4  13  30  33  31  31  29  31  30  26  22 114 161 168 175 175 170 170 180 194 204 209 222 203 124  80  96  95  81  53  57  61  84  95 104 117 127 112  91 107 109 107 101  93 103 105 122  83  97 118 126 105  95 114  98  77  65  51  60  73  72  98 124 130 134 131 124 206 235 189  63  14  22  21  15  26  45  52  49  47  47  45  40  30  29  29  29  31  29  26
   4   3  16  32  35  29  29  31  32  29  27  25  16  92 163 171 178 180 174 171 176 191 202 208 214 221 223 162  94  84 107  95  74  57  60  68  71  96 104  97  88 106  97  78  59  66  83  64  73  67  74  69  72  81  74  73  76  71  86  98  92  99 108 119 136 141 137 134 151 237 230 198 100  18  22  20  18  12  17  35  46  47  49  45  40  31  30  31  31  32  31  29
   4  21  45  44  37  33  29  28  31  30  26  27  10  74 167 172 178 183 176 173 176 190 201 207 211 214 218 226 199 134  98 102  99  92  77  58  51  53  62  59  89  82  85  80  57  81  87  71  70  65  71  63  55  63  49  73 100 127 137 123 113 103 115 133 147 147 146 142 181 250 227 200 135  28  23  18  17  17  15  17  27  31  39  41  41  37  34  34  33  33  31  29
  25  49  57  53  49  46  38  35  34  30  27  29  16  49 159 174 180 180 178 174 177 187 198 204 208 211 214 216 225 223 183 116  91  92 106 102  85  73  62  63  70  60  63  77  85  94  97  93  93  81  77  61  57  59  88 128 141 141 135 128 120 109 125 144 152 154 155 150 215 250 222 195 159  39  28  27  20  19  20  19  16  18  43  41  32  33  34  37  36  34  30  28
  50  56  58  50  51  48  44  41  35  31  31  28  23  25 137 182 182 181 179 177 179 185 194 202 208 210 212 214 214 217 225 214 160 101  89 111 113  89  86  93  89  74  68  65  65  70  86  98  91  87  72  59  79 113 139 147 147 145 139 124 108 121 138 153 159 157 154 171 244 246 218 190 179  72  29  29  21  15  16  18  17  18  28  40  51  41  38  37  36  36  35  32
  58  54  55  54  52  49  48  45  45  44  38  35  27  16  96 184 184 183 178 180 181 184 191 199 206 209 212 216 216 216 214 218 222 187 132 102 109 107  93  97  98 103  98  91  87  82  80  69  72  78  79 102 138 149 152 154 151 152 138 110 108 128 143 155 159 159 157 202 253 239 211 191 193 127  44  33  27  20  16  17  17  21  20  21  40  54  51  50  47  40  37  31
