P2
# Generated by OpenCV 4.2.0
92 112
255
  63  60  61  59  60  63  58  56  53  52  50  49  47  43  44  40  42  41  43  42  47  56  68  66  73  69  64  55  49  47  48  53  81 105 112 101  96 102 101 106 117 117 119 115 102  98 105 108 119 139 160 158 144 145 149 140 108  79 107 112  97 120 137  89  73  62  49  38  36  32  29  31  36  31  39  35  39  37  35  34  34  38  41  44  42  45  45  45  43  46  45  54
  64  65  63  61  64  64  64  63  62  59  60  58  59  56  55  51  51  47  45  45  45  58  63  64  64  67  64  52  45  44  56  76  90  84  69  65  47  54  59  74  86 101 111 115 111  97  95 111 123 123 128 137 142 134 121 135 144 108 111 121 110 102 125 138  97  90  84  52  34  23  25  36  35  41  47  40  43  36  35  33  32  37  40  41  42  45  46  44  44  43  45  59
  63  65  64  64  66  66  66  66  65  66  64  64  63  62  60  60  63  61  59  57  56  62  68  69  66  66  67  52  53  79  94  76  46  28  21  37  40  31  47  66  77  79  89 113 110 113 106 100 111 126 133 136 135 132 119  99 115 128 125 134 126 111 109 127 142  97 106  64  49  26  42  45  32  42  54  46  49  41  37  32  33  36  39  41  41  43  43  44  43  44  45  59
  60  62  64  64  65  62  64  63  65  65  65  66  65  62  64  64  65  64  65  64  64  71  75  76  75  73  71  66  88  95  57  28  43  62  72  69  79  61  56  68  91  97  99  88  91  85  84  96 106 122 131 135 142 145 136 131 112 117 125 129 129 128 126 124 139 124 118  71  56  60  58  41  43  50  59  52  45  44  42  36  35  39  40  39  43  42  44  45  44  45  47  61
  54  59  61  61  62  63  63  61  61  61  62  62  63  63  65  64  65  65  66  66  67  74  78  79  80  80  85  90  70  23  31  61  67  86  90  85  96 101  82  83  87  92  97  86  92 102 105 122 124 120 124 132 136 139 142 146 162 158 149 142 140 141 151 150 154 151 143 119  93  98  96  94  74  60  46  48  49  36  35  30  36  38  41  41  42  42  43  44  45  44  47  64
  47  50  49  52  55  57  60  58  58  58  60  61  62  61  61  62  63  64  65  67  68  73  78  83  81  91  87  59  27  43  73  91 103 107 104  98  99 107 104 101  96 100 104 112 115 117 124 119 108  99 101 113 126 128 134 147 152 155 161 159 155 153 157 159 165 165 151 149 163 147 141 145 142 128  88  76  60  38  29  42  38  41  40  42  43  43  42  43  44  44  45  65
  38  40  42  42  42  43  46  46  49  53  51  53  56  54  55  59  60  61  63  64  68  72  76  82  87  81  67  72  83 105 124 127 112  97  94  99 102 109 109 111 116 123 130 130 124 118 101  85  95 109 115 128 139 140 143 138 143 137 136 138 141 140 139 144 153 156 158 152 150 139 132 132 136 147 142 136 122  91  86  93  64  55  43  41  41  42  43  44  43  45  47  72
  37  38  38  38  38  38  39  37  40  41  41  40  43  46  45  47  50  54  55  55  61  72  78  86  81  76 102 117 126 123 105  93  87  94 103 112 115 112 115 124 135 143 140 133 114  90  85  92 110 113 121 129 135 137 132 133 127 125 127 129 136 135 136 139 141 145 143 142 142 146 138 136 141 138 140 140 144 137 124 111  76  66  64  45  44  43  44  45  47  47  51  75
  36  38  38  38  38  39  38  40  40  38  39  39  38  40  42  41  41  43  44  41  52  65  73  76  80  99 117 127 116 107 105 107 114 113 109 112 123 134 128 117 117 106  94  91  93 108 112 118 126 131 138 133 133 130 124 118 117 115 109 102 101 106 115 118 117 107  99 110 122 125 128 129 124 125 131 119 123 125 121 110 115 105  95  72  65  44  44  45  47  46  52  82
  41  40  39  37  37  39  40  40  38  39  41  40  40  38  38  38  40  38  38  39  47  70  79  75  85 111 126 116 114 118 124 124 118 118 116 120 106  95  93  88  95  93  91  92  97 117 127 134 142 140 130 129 125 120 108  97  90  83  77  75  71  65  62  64  68  71  76  66  73  99 116 111 109 115 117 103 105 113 110 107 113 118 131  98  54  43  44  45  46  47  55  87
  41  39  37  37  36  40  38  38  38  37  40  39  38  38  39  38  40  37  40  39  56  79  65  80 114 123 119 116 108 111 123 121 111  99  96  94  81  86  96 108 106  98  95 113 132 140 140 142 137 130 128 116 106  94  84  68  63  62  54  61  46  30  36  37  39  47  63  78  72  72  95  97  99  97  94  95 106 118 107 102  93  95 101 133  93  43  43  44  45  47  57  87
  41  38  37  38  37  38  39  39  39  37  38  37  37  37  41  39  39  40  39  46  70  60  83 113 123 130 116 107 110 128 121  95  82  95 102  96  85  94 107 108  99  99 121 142 143 139 130 117  98  88  79  71  60  51  56  55  59  61  59  57  63  53  54  58  48  39  47  58  69  68  70  84  82  83  94 102 107 123 110  87  71  48  46  96 134  86  46  45  45  46  60  89
  37  36  38  38  37  37  38  39  38  40  39  36  39  40  39  39  38  38  46  74  65  77 109 122 138 124 111 116 124 121  91  85 107 107  94  88  97 115 115 106 115 136 145 119  94  97  92  80  71  64  60  72  71  67  60  67  75  73  72  67  61  59  48  53  63  62  45  43  57  66  61  66  66  71  82  99 104 112 102 102  77  32  44  58  78 128  74  47  48  47  64  94
  35  38  39  39  37  39  38  39  39  38  40  39  37  39  38  38  40  49  71  64  68  99 114 121 121 110 114 113 114  91  90 114 110 100  95 107 117 104 113 127 125 110  84  79  90  86  73  57  50  38  38  43  48  49  54  55  58  67  67  60  57  58  54  44  52  64  73  47  48  61  58  55  58  58  69  78  83 104 101  98  83  68  75  43  50  95 119  60  48  49  69  99
  36  37  38  38  37  38  37  35  37  37  39  38  36  37  38  38  43  66  69  67  90 103 108 113 106 102  99 106  92  86 112 112 102 106 111 118 108 105 109  98  76  65  90  97  64  36  18  11  13  17  20  21  26  41  45  52  47  46  57  58  50  49  50  52  39  53  69  74  47  51  50  48  47  54  61  56  67  85  95 102 100  86  74  76  46  58 105 103  49  53  73 102
  37  37  36  37  37  37  38  35  37  37  35  36  37  37  37  36  52  72  58  83  95 103 109  99  94  96 106  87  95 122 114 100  99  94  96 100  98  86  67  64  77 115  80  25  10  18  40  57  70  65  55  56  48  28  27  38  43  37  41  49  50  49  41  44  47  39  56  74  64  42  40  39  41  47  51  50  58  74  83  90  89  97  65  97  83  41  67 122  76  50  79 106
  39  37  36  35  36  37  38  38  36  38  37  37  37  39  37  39  72  61  78  95  97 106  93  87  92 104  95 104 123 112 114 116 117  93  66  66  56  55  84 107 127  73  11   9  43  88  80  58  40  40  37  51  62  65  46  27  37  41  36  38  44  45  44  38  47  44  42  61  69  47  36  37  38  38  44  49  56  63  75  88  86  79  73  83 111  59  43  93 111  64  82 110
  38  36  37  37  38  36  36  39  39  39  37  38  36  38  35  56  75  79  95  84 101  89  83  93 105  88  91 113 114 124 118 107  79  55  41  33  63 107 122 131  61  19  15  52 103  75  32  21  15  20  32  31  40  49  69  54  34  42  42  44  42  44  43  47  42  45  37  47  71  57  40  40  39  40  45  53  54  58  68  82  93  79  69  71 101  92  46  83 114  89  88 116
  37  37  38  38  37  37  36  37  40  38  35  36  38  39  44  75  80  88  82  91  89  79  84 101  92  79 108 124 126 105 105  99  53  33  39  89 102  94 136  75  33  18  28  95  81  32  48  28  28  23  26  34  32  37  46  70  47  41  45  47  44  45  49  49  50  49  44  39  64  63  41  45  45  48  54  57  56  60  60  61  81  77  68  66  71  94  76  62 111 108  97 119
  37  37  38  37  36  39  35  36  36  38  38  36  36  42  57  87  86  82  85  87  75  79  84  91  86 112 126 113  97 122 124  64  48  85 117  95  61 130 104  61  30   7  68 102  46  45  57  36  33  30  30  36  37  43  47  58  54  44  49  49  49  48  51  55  55  57  55  48  58  66  45  49  58  61  69  63  69  64  61  67  72  66  70  67  70  88  96  44  82 119 103 117
  35  35  37  38  37  36  34  35  36  37  40  38  34  44  79  83  73  80  80  77  73  76  93  97 117 113  95  94 129 106  36  49 107 128  86  55 119 130 101  53  14  22 109  82  49  76  45  42  36  34  35  41  48  54  54  57  59  66  61  53  56  49  54  66  68  68  64  54  58  67  55  64  71  73  77  69  75  74  67  76  54  49  55  57  65  76  93  80  59 114 118 117
  36  35  37  37  35  35  33  35  36  36  38  35  46  70  79  68  73  76  74  68  70  93 105 107  99  90 102 129  90  29  62 118 113  74  60  99 131 130 103  35  15  50 123  90  68  80  49  50  41  42  41  52  61  74  79  67  64  86  84  82  71  60  65  81  77  75  75  62  65  68  70  77  76  77  73  69  77  71  73  57  40  51  55  63  66  66  77  95  95 101 122 128
  38  36  36  36  35  36  36  35  36  36  35  40  61  71  58  74  81  71  60  73  96 106  95  91  98 114 120  77  32  67 116 106  59  46 101 114 104 132  84  36  36  80 129  88  98  88  78  67  53  59  68  76  91  92  95  91  77  86  96 102  94  79  86  93  84  86  86  77  76  77  84  80  76  74  70  73  73  70  54  37  45  44  49  58  66  62  59  83  99  99 118 131
  37  35  35  34  36  34  35  37  35  37  43  56  73  66  62  80  74  63  80 106  97  84  84  97 107 106  68  51  82 108  90  54  44 108 109 104  86 100  53  47  67 107 128  89 114 114 102  95  74  81  96 102 131 136 103 107  89 114 120 117 112  97 101 100 102 102  92  92  92  94  94  84  78  75  73  73  73  61  38  46  50  46  47  54  65  64  55  65  93 101 116 137
  36  35  34  35  36  35  35  37  37  36  61  73  68  64  80  77  67  88 103  89  81  85  88  90  87  73  66  92 102  82  55  36 107 110  93  95  89  79  61  77  84 111 123 100 118 133 119 122 108 101 121 125 121 156 139 109 100 118 143 129 136 124 113 124 124 128 134 122 107 107 102  97  94  93  88  90  80  63  50  45  43  48  55  66  77  75  76  75  87  97 102 130
  35  36  36  36  35  35  36  37  38  45  66  67  75  68  79  78  97  99  88  80  83  82  71  64  76  82  91  90  72  54  24  91 111  73  94  91  83  74 100 123 125 101 107 112 125 156 138 128 147 142 133 140 139 142 151 140 127 117 125 146 144 133 130 138 148 152 159 151 141 137 131 134 123 121 119 114 116 107  77  44  20  32  53  67  79  83  82  87  85  90  94 115
  37  38  37  36  36  35  34  33  39  58  58  76  75  86  95  97  91  80  76  73  62  50  61  88  91  90  85  72  42  20  76 117  62  83  94  99  85  82 128 151 151 101  99 132 125 156 160 159 157 170 167 158 168 158 153 160 157 155 142 143 162 157 159 154 158 169 178 175 169 165 167 157 146 143 145 152 135 125 117  79  24  13  28  51  68  76  78  86  94  89  93 100
  37  36  35  35  35  34  34  35  53  54  66  81  77  90  86  79  76  71  61  48  49  61  89  83  84  74  76  47  22  58 119  73  56  84  97 105  84  94 150 177 154 106  95 143 122 156 170 188 187 188 188 177 170 178 179 164 172 176 164 164 173 172 181 188 181 186 185 189 185 178 177 169 164 164 162 155 146 150 151 122  60  23  21  48  58  67  72  77  77  90 101 101
  38  34  32  34  34  34  36  42  61  58  76  85  86  79  74  70  67  59  34  44  83  91  76  78  69  69  52  25  47  99  84  48  60  91  97 113  89 101 170 193 161 115 109 136 133 167 183 197 200 197 200 197 194 199 200 191 188 184 177 182 178 185 194 186 189 194 200 196 191 191 188 186 180 172 171 169 165 168 163 156 107  37  22  41  63  56  61  74  71  75  95 102
  53  51  48  45  44  41  37  50  60  62  78  85  86  69  57  57  45  34  61  86  78  59  65  69  64  57  27  39  85  86  57  49  72  80 104 115  86 109 184 186 153 119 131 135 128 171 195 204 209 206 207 212 214 213 215 213 209 202 199 202 196 204 208 199 200 198 199 196 192 196 197 190 187 185 183 180 176 176 174 173 152  62  25  31  57  59  52  61  71  75  87  89
  65  64  62  63  63  61  61  76  72  78  80  81  75  64  50  34  39  67  78  64  47  50  64  52  62  42  28  75  82  66  51  60  86  68 114 104  81 128 195 182 156 121 135 146 108 176 198 213 222 217 217 219 216 217 219 218 218 213 208 213 218 218 217 216 209 203 203 201 199 194 195 195 193 190 188 182 179 174 173 170 169  98  20  29  51  65  52  48  51  67  87  82
  70  69  68  70  69  71  71  83  86  86  80  72  68  53  51  60  71  64  56  53  56  62  48  51  49  26  47  82  72  53  53  77  55  84 111  86  81 163 192 174 148 120 132 161  95 181 199 209 220 220 222 221 220 224 222 220 221 220 218 221 221 217 215 218 213 208 205 203 200 198 196 197 192 188 186 180 179 171 170 176 167 129  32  22  41  78  50  51  44  46  82  84
  69  69  67  70  71  73  78  84  85  87  79  71  62  46  52  65  58  59  62  62  62  52  43  45  35  41  66  71  52  47  80  44  47  88 104  76 114 183 181 170 155 126 136 175  99 178 204 215 221 226 227 224 225 225 220 219 220 220 222 225 213 208 212 215 207 208 205 205 202 197 195 194 189 187 183 176 178 176 174 178 168 135  55  26  18  73  60  51  52  38  65  84
  68  71  69  69  69  70  78  88  89  82  74  71  56  48  58  63  58  55  51  59  57  45  41  42  44  56  63  56  48  75  50  37  64  80  84  83 157 172 171 177 166 128 134 176 109 166 203 223 223 223 221 219 217 217 211 209 213 216 216 211 202 200 200 197 196 193 195 197 199 194 192 192 188 186 184 175 171 176 177 178 178 144  84  34  14  45  69  43  52  40  59  76
  59  60  66  80  72  69  78  83  82  73  62  52  51  57  59  59  58  57  64  61  47  35  35  45  52  47  61  55  72  63  45  47  61  73  66 108 153 165 172 192 169 124 137 175 107 161 198 215 218 215 217 219 215 208 207 201 202 199 194 196 199 196 198 200 204 207 201 202 201 198 192 190 187 184 179 178 171 173 179 177 176 147  95  53  26  20  65  52  54  46  59  69
  41  44  45  49  51  56  67  74  75  71  50  47  57  52  35  39  35  38  41  24  30  29  35  51  53  57  67  68  58  52  50  51  64  69  91 129 149 160 180 195 170 116 146 183 102 160 192 203 206 210 214 215 213 213 213 212 215 217 213 211 212 210 211 213 213 211 205 202 200 197 193 189 185 181 179 178 171 171 175 175 172 150 102  54  39  15  38  66  54  47  61  65
  37  37  33  40  46  47  52  68  74  56  50  46  56  47  43  34  24  40  25  31  31  32  44  59  62  72  63  51  50  52  54  54  59  81 104 133 156 170 181 189 167 113 158 188 105 176 194 206 209 210 213 214 210 209 207 211 216 216 216 212 206 209 212 210 208 206 199 197 200 194 188 185 184 185 184 181 175 172 173 171 171 153 118  71  38  24  16  53  61  49  55  71
  35  34  33  37  41  44  49  73  72  49  37  55  49  42  33  19  36  38  38  35  32  38  53  63  63  60  49  52  55  56  50  47  54  76 112 148 171 184 179 187 167 110 172 192 115 193 204 208 201 204 210 208 206 210 216 218 213 213 207 207 205 208 207 206 203 203 197 191 190 184 181 178 179 182 180 177 179 175 176 171 163 152 124  86  50  29  19  26  58  61  60  75
  36  33  33  35  36  38  49  66  56  33  45  60  43  34  29  36  38  36  33  29  35  42  62  64  50  50  52  56  55  44  39  39  62 109 153 176 186 187 187 187 156 115 189 187 133 200 205 215 210 209 209 213 212 212 212 212 211 210 207 205 204 205 206 207 203 201 202 196 189 188 188 189 186 181 180 178 174 170 174 168 158 155 136 101  64  46  28  16  43  70  92  77
  36  35  34  34  35  40  53  59  52  28  63  58  41  26  34  33  35  37  25  32  39  50  60  44  51  54  57  48  44  40  33  52 101 154 176 190 196 195 195 189 144 124 203 171 146 198 197 205 204 203 207 211 212 217 214 214 218 215 210 206 201 204 209 210 203 200 199 192 192 194 195 195 194 192 189 186 178 176 175 169 159 154 149 120  71  55  46  18  23  71  88  90
  35  35  33  33  37  44  61  66  42  44  69  40  29  26  29  32  36  39  37  32  52  57  39  39  61  58  54  52  45  48  38  95 143 166 184 194 197 203 204 186 128 129 210 134 163 195 200 200 196 196 195 196 195 201 194 198 200 196 197 194 192 191 195 197 196 194 189 188 191 192 194 193 192 188 186 185 185 182 177 173 163 153 152 138  96  46  46  45  32  54  82  83
  35  33  33  34  36  56  71  56  42  61  53  27  26  24  29  29  30  40  30  51  55  43  37  49  59  53  60  51  54  42  68 140 157 172 190 195 195 203 203 195 115 168 182 124 192 204 201 203 203 199 202 197 197 198 193 194 197 199 201 194 191 193 195 202 201 203 201 196 195 193 195 196 196 190 187 187 182 175 176 178 172 163 154 146 114  33  16  22  38  52  82  85
  32  33  32  29  53  79  51  43  52  67  35  25  27  27  28  26  29  25  39  56  45  35  39  48  55  67  63  53  47  43 118 159 159 179 192 194 202 208 211 186 120 199 126 161 203 211 206 205 203 202 203 205 203 199 199 196 197 199 195 194 190 195 196 203 204 205 205 200 196 195 192 199 197 186 188 190 183 183 177 177 177 170 163 158 140  49  16  17  16  40  80  94
  32  31  29  64  85  53  47  35  56  50  26  29  25  29  27  25  23  30  53  45  37  33  43  51  62  58  53  53  43  81 149 162 172 179 189 195 202 213 220 149 149 145 131 190 208 207 205 207 207 207 208 208 203 201 201 202 202 203 197 190 193 196 196 197 205 204 206 203 198 195 191 195 197 191 193 195 187 183 185 183 184 174 167 161 155  67   9  24  18  23  53 102
  36  41  71  90  44  37  45  31  59  33  27  27  27  28  25  25  20  37  40  36  34  40  52  58  56  53  63  50  57 123 158 167 169 177 189 196 203 210 194 131 136 137 184 206 207 194 200 204 205 205 210 208 206 202 200 198 199 205 203 194 192 195 194 198 201 199 201 200 204 202 201 199 194 194 193 190 185 180 183 187 193 185 168 161 157  78   8  18  27  34  42  78
  36  43  60  43  26  46  35  47  49  28  24  24  26  24  25  20  22  32  28  33  32  39  49  55  53  56  60  64  96 141 165 169 167 173 187 196 203 206 152 134 142 185 203 210 206 205 210 215 216 214 208 211 209 208 208 205 204 208 204 200 197 201 203 202 199 200 206 213 209 208 207 200 194 195 193 191 188 189 189 185 185 190 172 158 159  81   8  18  27  35  61  78
  33  34  41  33  34  53  30  56  35  26  25  25  24  21  20  20  26  22  29  35  37  39  47  58  64  64  67 102 140 145 169 172 172 178 187 198 209 167 120 160 196 206 214 218 220 219 216 216 215 210 206 211 210 207 207 211 206 204 209 200 204 206 202 201 205 210 212 211 207 204 201 196 190 190 194 195 197 196 192 191 190 182 176 161 162  82  15  21  28  37  55  76
  31  34  35  32  38  49  33  51  27  21  24  25  23  22  22  27  26  22  31  39  39  46  47  61  70  64  97 127 153 157 166 177 173 171 186 191 173 142 159 197 204 212 212 211 214 213 211 206 208 207 198 197 203 197 193 200 205 202 201 182 180 180 183 189 202 199 203 202 195 193 193 193 186 186 186 177 167 156 158 154 169 187 176 165 159  83  29  28  31  46  54  74
  31  33  32  31  40  49  39  46  34  19  22  24  21  23  28  30  23  25  39  40  36  42  60  69  63  89 114 148 162 165 166 178 169 165 169 161 161 169 170 171 172 179 175 174 169 169 173 173 180 186 191 190 193 191 184 190 195 197 188 170 172 171 174 176 190 191 194 193 185 189 185 169 159 145 134 125 117 113 123 130 135 162 183 170 165  81  36  39  36  52  52  83
  33  33  32  29  41  41  37  58  41  18  19  20  19  24  32  23  23  33  34  27  34  52  59  56  84  98 135 161 167 163 167 185 184 163 156 148 143 145 142 134 133 140 151 146 143 137 134 134 131 131 133 154 167 169 179 174 182 187 172 169 178 174 169 162 181 184 176 180 173 163 139 112 100  96  97  95 106 125 122 138 144 140 174 178 166  78  36  47  50  47  83 131
  31  30  28  28  43  42  49  55  43  21  18  18  24  26  22  21  31  33  29  29  46  48  51  79  92 116 146 156 178 170 173 191 188 147 124 136 163 166 160 154 156 156 148 154 150 136 127 108  99  99  99 108 125 137 153 158 172 174 162 174 176 177 173 147 159 156 148 154 134 100  75  67  73  89 107 123 149 157 151 150 145 139 152 178 170  79  43  57  65  94 138 154
  29  28  29  41  63  47  44  47  41  23  23  26  28  27  24  30  33  31  29  37  47  49  66  82 117 143 153 146 182 187 169 189 182 151 127 147 174 176 179 176 191 192 195 197 190 178 163 138 124 108  99 102 104 114 133 148 158 150 156 183 176 175 176 154 127 118 115 108  85  72  63  69  85 115 155 185 185 181 169 164 154 133 139 174 178  98  62  78 102 131 154 160
  28  30  35  57  73  29  39  46  34  31  36  33  32  30  27  30  34  29  30  40  52  57  64 100 134 154 168 156 175 197 168 180 184 178 153 144 156 167 177 181 186 194 199 195 198 202 186 172 150 122  92  74  79  96 110 124 129 140 173 186 187 187 180 166 135  90  77  60  49  55  79 105 135 168 194 194 188 179 167 152 147 136 138 163 188 118  81  88 116 140 158 163
  29  32  32  69  75  33  56  41  50  73  43  47  38  29  32  33  36  29  42  50  47  57  77 109 147 151 168 183 163 191 190 166 189 179 172 165 158 160 165 172 180 184 181 183 187 191 190 184 176 161 145 113  77  71  80  88 105 140 176 182 183 190 184 173 121  53  50  59  81 115 140 152 172 185 184 180 182 174 166 167 167 132 124 166 200 115  92 113 129 143 160 163
  29  31  34  70  55  44  57  26  30 102  61  58  49  37  37  41  37  40  55  44  41  73  86 109 148 148 161 191 189 166 204 180 160 164 161 167 168 173 178 175 177 178 183 189 188 182 175 159 127 107 104 120 117  94  75  63  87 145 185 198 205 206 198 184 123  64  87  95  90  83  76  83 115 163 192 193 182 167 162 163 169 150 137 167 192 107 103 119 129 149 161 163
  31  29  58  77  54  56  53  22  20  84  70  55  48  46  50  44  42  60  54  40  55  84  94 115 142 150 158 175 197 179 158 192 183 136 137 156 154 163 168 180 167 144 114 109  81  58  49  34  16  16  15  30  60  73  78  80 104 164 194 205 204 206 201 187 114  48  65  54  28  12  15  14  10  36  60  83 120 146 155 152 160 144 134 161 190 127  98 120 138 157 164 165
  25  38  77  61  63  70  49  26  26  56  94  64  62  63  55  45  41  60  51  60  78  92  92 122 143 148 160 158 169 203 185 149 154 165 135 139 159 125  84  56  38  37  26  22   6   0   0  19  50  71  40  56  67  82  87 114 124 170 199 205 205 203 197 182 111  74 101 100  87 107 139 122  50   0   0   1   1   9  67 130 156 142 136 145 192 147  99 117 146 160 165 164
  28  45  70  52  68  60  40  22  32  59  99  79  80  67  62  47  55  60  60  77  74  86  97 130 148 147 175 164 151 167 185 193 166 142 148 121  93  63  71  88 123 156 174 165 147 137 130 136 134 137 125 123 108 155 149 114 132 178 199 205 207 205 189 166 146 157 118 130 141 157 159 161 142 105  92  91  82  52  11  53 131 140 131 163 197 139  89 115 145 158 164 162
  33  56  75  56  71  47  33  19  41  50 107 112 106  76  67  51  72  58  64  72  75  90 110 137 157 152 160 175 163 148 149 167 176 159 121 107 123 140 171 191 181 182 192 183 172 167 162 150 143 141 138 156 178 171 149 129 149 182 202 207 201 205 192 161 144 154 160 162 145 146 145 138 140 152 149 145 142 149 118  42  65 111 143 160 175 122  82 105 153 156 164 166
  54  66  80  84  76  33  27  33  39  63 119 128 139  90  60  66  69  62  71  77  84  86 114 137 163 149 152 172 186 187 201 216 214 208 185 173 162 152 134 157 180 187 185 182 169 177 181 171 170 162 156 148 176 169 141 156 166 178 197 203 204 204 193 162 129 151 180 167 170 157 156 160 164 163 154 149 145 144 153 142 124 128 143 155 202 125  79  93 134 161 166 167
  57  73  95 101  65  36  33  47  34  47 131 152 158  99  70  80  77  81  73  84  96  93 121 146 160 152 148 163 169 172 191 201 197 199 203 209 200 184 180 164 158 171 184 172 169 175 176 167 152 138 135 148 177 162 155 166 167 170 191 201 204 200 183 158 135 141 150 145 141 128 134 151 165 167 152 135 132 155 166 169 174 182 185 181 181 129  74 109 125 153 165 165
  63  82 111  95  61  51  44  46  32  36 135 165 162 123  82  93 106  92  69 108  97  98 116 142 158 158 148 155 159 173 187 182 183 198 205 206 203 195 186 178 174 163 172 187 184 162 134 123 116 122 153 189 188 181 178 173 166 174 194 203 201 196 186 165 138 144 160 154 130 108 119 120 113 124 137 169 181 159 152 162 174 177 168 181 197 129  90 107 143 150 164 163
  62  89 103  83  72  69  55  47  32  18 126 173 162 166 113  81 106  96 102 124 100 100 109 135 156 158 148 154 158 171 176 182 193 195 196 197 198 203 207 205 199 184 152 129 115 108 120 138 153 178 203 204 186 179 186 177 167 173 194 204 203 198 193 179 146 152 160 162 170 154 134 117 110 124 137 149 133 127 159 179 188 191 180 172 188 147 109 110 146 153 162 164
  61  93  88  69  80  85  67  59  33  18 124 206 163 182 165 107 103 109 125 132 113 100 116 143 155 154 144 154 159 169 171 179 186 188 189 191 197 196 196 202 199 201 204 186 185 193 197 196 199 206 207 203 187 175 179 174 166 169 187 202 202 201 190 183 154 158 157 156 168 189 182 177 164 160 154 147 166 189 189 178 182 184 183 181 180 166 122 116 147 161 162 166
  81  74  58  60  89  89  74  66  53  25 109 216 179 178 188 169 137 120 145 137 116 105 123 138 145 152 146 152 156 159 169 177 180 186 181 179 188 186 188 200 198 199 199 196 197 196 195 196 191 202 206 199 193 190 184 179 170 172 182 198 202 200 190 185 167 155 164 160 168 184 186 199 193 195 196 200 198 197 189 181 175 182 181 175 176 166 125 123 145 164 162 166
  45  35  36  41  83  74  89  62  80  32  85 205 203 198 195 189 169 123 159 153 125 106 119 127 139 150 147 152 154 155 166 175 183 183 183 187 191 197 207 209 208 202 202 203 198 197 197 196 199 205 207 204 194 187 187 184 180 178 185 202 207 202 195 185 182 160 166 161 163 180 183 189 196 198 197 198 198 192 179 182 175 173 179 174 163 158 119 129 143 164 162 166
  30  29  30  39  64  70  83  65 103  42  51 200 211 207 202 208 188 108 150 176 144 100 106 109 139 146 144 149 154 155 164 169 169 177 191 185 193 202 207 211 210 207 211 209 201 201 200 200 206 207 196 199 184 173 181 181 180 179 185 202 208 204 195 183 180 177 167 145 154 176 187 189 192 195 196 195 198 193 187 182 178 181 178 176 173 158 121 134 151 164 165 166
  27  27  30  40  41  67  64  89  95  33  40 183 211 208 199 203 199 133 136 186 152 117 112 116 124 146 141 145 147 151 157 166 163 178 186 190 191 195 204 210 212 213 212 204 201 199 198 201 196 189 179 171 156 158 172 177 176 177 188 202 205 205 199 184 181 187 193 142 130 161 186 194 196 196 194 194 197 195 190 183 177 186 191 183 170 147 127 136 159 167 166 165
  27  28  30  33  31  56  56  95  75  33  31 132 214 207 187 189 199 185 165 176 156 144 116 136 131 132 142 142 147 149 152 152 161 173 175 186 191 194 199 205 210 207 206 203 200 197 192 188 184 177 165 148 154 167 174 177 173 178 187 197 205 203 205 199 185 181 201 173 129 149 173 186 187 190 196 197 195 195 193 184 176 182 184 176 158 145 133 145 164 168 167 168
  29  31  32  30  32  40  55  85  62  38  27  83 212 209 190 184 197 201 176 169 160 147 121 135 146 128 143 138 144 141 145 151 164 167 177 179 187 186 195 203 208 205 202 202 195 190 182 180 177 175 162 159 172 176 181 174 170 188 183 200 210 208 208 207 198 181 180 170 149 147 163 174 181 184 190 192 194 193 187 179 176 173 177 173 151 134 135 152 165 165 167 167
  31  32  31  30  33  34  59  72  49  44  29  50 196 215 212 194 191 193 163 165 161 153 139 145 146 150 150 141 139 143 147 145 155 163 171 175 179 189 193 196 202 199 197 195 189 182 178 171 162 156 154 153 172 181 180 172 168 184 189 206 215 220 216 220 206 178 167 165 160 149 146 155 172 176 182 189 191 189 191 186 177 168 174 168 148 134 145 158 166 164 165 167
  33  31  31  31  32  42  50  50  53  42  39  33 169 218 214 213 198 196 180 163 155 156 149 146 151 166 154 146 145 138 137 149 153 159 162 164 169 180 178 178 196 198 200 192 182 178 173 158 137 142 139 144 173 182 173 172 173 178 190 205 219 208 201 209 186 164 159 151 151 155 134 127 149 162 177 184 184 186 185 176 168 166 170 162 147 137 145 161 168 165 167 168
  33  30  31  31  35  38  39  53  58  31  35  20 127 218 214 212 208 208 200 175 159 154 149 148 150 155 155 147 146 139 145 151 152 156 159 158 164 170 172 176 185 187 185 185 179 170 155 123 135 156 130 141 164 168 164 159 161 168 184 194 190 174 176 182 172 163 145 125 131 138 142 120  91 134 158 174 180 178 176 171 167 163 168 159 141 130 144 163 169 168 167 169
  31  32  32  31  35  35  37  58  56  34  32  17  71 204 214 206 205 211 210 180 160 148 149 153 148 145 156 154 153 141 137 152 151 153 160 155 160 174 178 177 180 178 174 174 168 151 110 130 174 159 150 125 137 136 135 135 133 140 168 175 164 154 165 174 167 145 109  88  99 115 148 163 113  83 136 159 171 172 175 168 162 161 164 152 141 137 148 164 168 169 169 170
  29  30  31  32  34  33  32  49  60  39  22  24  31 151 218 210 211 217 216 190 160 143 145 151 153 148 161 166 161 151 160 147 148 158 155 157 164 167 172 174 176 174 169 162 145 106 132 183 177 161 169 121  83  70  44  40  70  98 114 135 138 133 136 143 123  95  43  26  54 108 154 161 175 112  91 134 158 169 169 159 154 153 152 140 143 138 150 166 169 168 169 170
  30  31  31  31  32  32  30  54  69  36  14  32  33  63 189 209 213 216 214 200 160 138 135 150 155 157 158 165 163 165 161 153 156 151 152 156 162 170 167 170 170 166 160 145 104 116 170 177 173 154 164 166 115  46  11   8   6  28  79  97 105 111  92  72  65  40  13  38  87 116 146 157 172 175 110  96 138 150 151 153 152 147 148 141 158 140 151 167 170 167 168 170
  32  33  33  32  32  32  33  62  63  32  16  38  45  26  93 190 200 199 194 197 161 138 136 142 150 157 154 158 169 166 155 161 167 153 151 155 156 159 166 167 165 156 143 101 114 164 172 173 169 160 162 161 169 156 118  79  56  39  25  60  76  79  63  45  50  58  71  96 119 132 138 150 160 166 165  98 103 131 139 145 140 135 136 146 173 140 153 166 168 171 171 168
  34  33  34  31  33  31  42  63  58  27  26  37  41  36  21  82 155 166 161 161 162 139 137 146 149 154 160 162 172 172 154 163 168 157 145 158 156 155 157 153 152 136  98 103 162 177 179 175 170 149 149 158 162 163 159 151 118  84  43  27  33  31  33  49  66  81 103 129 138 131 132 139 152 169 173 136  71 123 135 131 128 126 133 149 174 144 153 165 169 169 169 168
  32  33  33  32  32  33  49  63  50  23  27  39  44  30  26  16  31  39  41  25 119 136 134 138 151 157 161 159 159 167 156 163 166 160 155 158 158 158 156 146 122  90  96 140 160 178 174 166 162 141 140 147 155 151 152 148 149 120  75  55  23  33  46  59  88 112 127 122 131 126 125 147 151 158 167 150  93  93 128 136 125 125 139 150 166 150 149 164 169 168 167 168
  32  33  32  31  34  37  48  56  45  22  30  60  47  23  31  32  25   6   2   0  66 137 133 136 150 151 156 166 166 162 170 163 160 163 159 158 156 161 158 135 108 108 120 149 164 168 160 166 163 155 148 143 141 144 141 145 167 151 110  82  94  91  71  84 125 123 119 121 117 129 128 157 146 139 158 162 118  86 117 128 129 128 136 144 150 159 158 160 164 166 167 168
  34  32  32  32  37  39  44  52  52  28  45  69  33  27  25  39  40  19  11   5  32 121 134 133 144 145 153 174 172 149 164 165 159 164 158 160 162 157 144 134 127 109 129 155 162 160 152 154 160 165 163 163 156 150 144 147 153 174 153 143 147 167 154 137 144 140 135 134 128 150 140 151 153 151 152 150 126  95 129 129 124 129 134 146 141 152 162 168 162 165 169 167
  32  32  33  34  36  37  42  56  58  30  63  67  30  25  24  41  44  18  16  17   8  88 129 133 133 149 150 159 153 158 164 168 162 167 162 163 158 153 149 147 147 104 134 148 154 154 151 151 163 175 173 171 178 177 176 183 173 183 172 165 149 169 183 168 167 155 150 151 152 158 154 149 148 144 154 138 115 117 149 142 137 136 140 150 130 141 155 169 168 162 168 169
  31  33  35  34  30  37  37  57  54  38  68  52  29  34  36  42  41  21  23  27   6  48 120 133 135 142 148 156 147 166 162 157 166 163 161 161 151 155 155 167 180 142 121 144 145 146 152 156 166 174 178 183 195 194 181 189 171 170 190 187 180 182 191 188 184 174 155 157 163 160 161 150 133 128 126 118  96 129 156 138 128 139 150 159 124 145 150 156 167 166 161 166
  31  32  33  31  32  33  39  49  52  50  66  51  29  48  46  48  38  29  28  31  13  17  92 117 124 139 148 154 151 158 156 157 174 166 149 151 152 156 161 171 183 159 127 129 143 142 151 162 171 175 176 169 172 175 168 169 162 146 147 160 176 185 185 166 148 138 146 148 160 166 163 144 120 114  97  98 117 162 159 147 130 136 143 144 106 153 169 154 159 165 162 166
  33  32  31  32  31  33  38  44  51  57  67  57  33  51  31  36  30  35  25  31  18   8  55 124 132 142 152 144 145 153 141 152 166 157 152 151 154 153 165 181 189 161 130 122 122 107 106 111 128 127 110  95  83  81  81  85 102 109  99 108 114 113 121 120 105  88  69  70  80  98 105 104  84  80  95 100 141 177 155 144 127 123 127 147  77  91 157 175 163 158 160 166
  32  33  32  32  31  33  37  43  51  54  64  59  42  45  23  32  29  19  32  37  15  12  26 110 136 133 138 135 142 148 152 156 163 155 145 148 145 143 159 179 189 184 153 123 103  92  57  80  92  88  82  85  99 112 117 115 123 107  98  80  78  87  86  89  94  91  82  70  59  46  39  46  46  82 107 126 168 170 149 127 125 135 142 142  53  48  74 145 180 171 156 160
  31  31  30  31  33  34  36  41  55  56  61  57  51  40  26  34  22   8  45  37  16  23  15  78 138 128 136 128 128 130 153 162 158 149 132 135 149 142 144 164 169 176 162 137 115 121 143 177 187 192 195 194 202 208 204 211 206 197 193 169 150 163 163 166 167 153 152 164 155 132 114 115 101 110 126 152 172 167 144 111 119 132 147 121  40  40  40  54 128 177 169 162
  31  32  34  35  34  35  34  38  49  59  64  59  37  27  31  40  21  17  40  19  25  26  21  40 118 131 138 131 134 139 154 157 141 153 133 123 130 144 148 156 162 164 148 135 142 155 186 193 180 175 173 185 197 198 195 190 191 201 207 202 198 194 192 182 172 156 160 162 139 127 130 136 133 114 130 168 169 149 131 102 125 134 141 127  35  33  33  33  46 100 161 177
  37  34  36  38  35  34  33  41  43  57  63  63  23  19  36  41  23  22  32  20  25  29  31  26  95 132 132 120 125 127 139 151 146 145 146 138 121 124 140 148 154 161 152 150 148 155 180 182 178 168 157 165 181 180 178 176 170 170 175 166 154 149 153 150 145 146 144 137 121 122 141 147 118 109 157 170 163 141 118 103 123 130 142 103  26  30  30  28  27  32  73 163
  49  47  46  45  44  40  45  46  44  52  64  56  24  20  39  48  30  23  27  36  26  31  38  13  65 118 117 107 118 114 121 138 135 149 154 143 125 127 131 146 149 148 153 178 156 147 169 178 174 157 155 152 156 159 155 159 149 130 141 136 127 119 126 130 132 135 137 127 121 140 148 135 104 143 169 172 154 133 104 121 124 114 127  81  20  27  24  24  24  21  26  70
  57  54  54  54  54  53  52  55  60  53  63  65  27  27  38  44  32  32  21  36  36  29  36  14  35 104 118 105 111 113 115 127 133 145 150 147 138 133 124 145 149 145 167 184 183 164 161 172 179 170 155 145 141 146 145 138 131 130 111 109 113 118 116 128 133 127 121 120 130 135 134 121 129 177 158 161 148 118 106 128 122 114 119  49  23  25  22  21  20  17  18  24
  59  55  57  56  57  59  60  64  55  64 114 125  67  33  34  47  37  47  25  20  43  30  36  29  11  82 104  98 108 109 104 126 127 129 140 146 145 129 126 136 144 146 174 187 193 183 154 159 172 173 166 151 138 145 141 114 119 121 119 123 119 115 111 117 113 111 106 118 132 132 128 122 155 172 152 148 135 103 103 130 115 121 126  25  25  22  20  20  19  17  18  18
  57  55  56  57  57  59  60  58  55  58  85 112  81  40  38  49  49  53  38  14  42  38  32  31   6  44 102  99 105 105  99 119 133 142 153 134 143 128 115 124 139 160 175 181 190 186 172 152 155 168 171 168 161 152 142 151 158 155 147 157 146 145 130 115 111 116 124 128 126 133 125 143 176 172 162 151 125 109 115 123 119 129  98  13  25  25  23  21  19  19  19  19
  53  54  55  55  59  60  57  58  56  56  60  61  69  65  52  45  54  61  55  24  41  44  30  30  13  17  84  94 101  96  98 111 125 135 154 141 142 127 122 126 148 149 169 185 180 184 176 165 159 166 176 181 176 173 169 159 169 171 161 157 154 159 156 147 143 139 142 145 136 129 134 174 171 172 151 133 104 107 118 113 111 125  45  15  25  25  21  21  20  21  19  21
  43  47  51  49  51  54  52  55  54  57  66  64  65  71  67  64  54  65  64  41  29  47  27  32  19   2  55  99  79  89 102 106 114 126 138 149 142 130 126 130 133 141 141 174 186 184 179 186 182 168 182 193 192 190 192 176 169 171 162 147 166 162 156 166 169 160 152 155 147 142 175 176 172 161 155 129  95 106 128 116 124 109  17  21  25  24  21  23  19  20  19  21
  35  34  37  39  40  42  43  45  48  54  60  59  63  64  59  69  60  62  73  49  19  39  27  31  24   6  18 102  88  79  91 101 113 120 141 150 149 132 112 130 147 147 155 182 185 179 185 193 188 176 187 199 197 202 204 204 200 202 191 181 190 185 179 188 184 178 169 165 156 164 179 163 170 149 139 118  98 109 132 116 121  44  10  22  24  24  22  21  21  20  21  22
  32  32  33  33  32  31  34  34  35  45  52  54  52  50  56  65  72  62  70  56  20  22  28  23  27  14   1  87 104  74  74  93  98 115 132 139 135 139 129 139 147 152 161 170 177 185 179 183 183 186 192 198 199 211 206 207 207 203 205 196 197 195 192 187 180 173 173 177 169 168 171 162 162 168 145 103  89 113 112 111  97  14  15  24  23  23  21  22  21  21  21  20
  33  34  32  30  30  31  32  32  33  40  47  51  58  71  73  76  77  70  67  59  26  26  24  17  24  14   0  55 114  87  64  63  82  98 111 132 133 136 140 140 142 145 156 167 186 188 194 182 183 197 192 186 196 202 199 197 200 204 202 204 201 199 203 189 171 173 171 173 171 178 172 165 162 159 122  87  88 112 116 101  54   7  21  23  22  23  21  22  21  22  24  24
  33  32  33  32  32  32  32  29  34  51  65  70  84  74  66  65  68  69  62  46  26  27  16  16  19   9   0  24 112  97  73  58  67  86 118 131 134 133 132 135 134 152 155 153 179 176 181 181 186 195 197 188 194 200 201 200 197 198 199 199 207 198 198 189 177 177 166 167 161 174 170 155 154 132 112  93  83 104 102  68  25  11  22  21  21  23  22  20  21  22  23  24
  33  33  33  32  30  30  38  54  64  70  63  52  36  24  26  36  39  50  43  27  25  20  16  26  23   9   3   3  94 103  89  82  54  66  84  97 121 114 127 139 141 136 136 146 169 182 184 183 193 194 195 199 197 191 201 206 200 195 196 195 195 195 189 191 189 172 168 178 168 168 165 158 151 131 119  96  98  95  81  38  18  18  23  24  24  21  20  21  21  22  25  25
  30  31  29  30  46  57  66  69  61  39  26  18  18  19  18  18  25  30  24  23  23  22  20  36  22   9   3   0  76 110 100  93  69  62  59  76  88 106 125 134 136 113 131 166 157 181 180 190 194 187 187 194 190 185 186 195 197 204 198 196 196 190 184 188 181 168 169 167 157 172 165 159 150 124 105  96 102  89  40  30  22  20  23  24  22  21  21  19  22  26  26  27
  32  39  47  57  69  61  46  37  27  21  20  18  20  19  17  20  26  23  18  18  22  21  26  37  19  10   5   0  49 118  98  89  82  69  58  54  67  80  98 125 114 114 123 145 167 167 184 193 193 189 183 183 184 179 175 187 200 203 194 187 189 188 192 184 178 167 168 155 145 160 171 147 135 116 107  96  80  55  23  37  22  21  21  23  21  19  20  20  24  26  26  25
  62  70  65  57  49  43  32  27  22  19  19  19  20  22  23  28  26  23  18  16  22  21  28  30  14  10   8   0  27 109 105 101  96  77  66  53  51  59  75  99  97  98 105 134 162 163 184 185 180 185 188 173 175 176 174 177 173 185 176 178 180 195 199 184 171 154 161 154 144 154 155 157 136 109  97  78  59  14  31  33  20  22  21  21  22  19  20  21  23  25  25  26
  67  58  50  46  42  34  30  27  25  22  20  19  22  27  30  28  26  24  18  18  23  15  59 102  30   6   8   0  13 100 118 106 101  90  74  55  50  57  55  76  97  87  68 105 134 155 177 182 186 170 168 160 167 190 184 175 167 167 163 167 189 192 193 176 165 142 144 135 137 142 155 156 124 111  70  53  20  12  41  25  19  21  22  21  21  22  21  22  24  25  24  26
  53  50  55  43  33  31  28  26  28  27  23  21  23  27  28  28  29  25  22  24  29  17  83 127  58  10   9   3   3  86 117 109 107 102  81  60  62  49  43  45  65  69  60  92 114 137 153 162 168 170 162 175 173 166 173 160 163 158 155 158 172 167 173 164 162 151 128 131 138 149 152 127  97  83  58  21  35  93  44  16  21  20  20  21  21  21  23  24  24  25  26  26
  47  42  39  31  28  29  25  25  27  26  25  26  28  28  28  28  29  27  27  26  30  25  41  27  37  20  10   7   0  57 123 118 114 101  93  72  49  51  59  48  39  48  66  67  97 125 120 141 156 165 157 149 153 153 152 148 164 148 139 144 151 156 148 135 140 125 122 127 132 130 130  99  93  64  29   5  71 138  62   9  21  21  21  23  23  24  24  21  23  25  26  25
  39  35  36  34  30  27  27  27  27  27  28  29  30  30  32  31  29  28  27  27  26  19  89 106  26  15  12  11   0  31 111 125 114 106  88  78  59  46  43  48  41  39  44  74  77 101  97  99 122 134 146 141 138 141 137 139 157 142 139 140 137 149 126 114 114 105 111 114 121 126 105 104  72  15   0   7  25  82  53  11  23  21  22  25  25  24  25  26  25  24  26  26
  31  33  31  32  31  29  30  29  30  33  35  34  31  29  30  31  31  27  25  27  24  27 115 133  70  20  11   8   0  21 100 126 121 123 109  75  77  61  38  34  38  37  35  47  51  69  88  80  72  88 119 123 109  89 100 113 106  99 110 111 106 110  97 105  89  91 104  94  93 119  87  59  20   0  10  54  55  41  27  19  25  24  27  26  27  25  24  25  26  25  26  28
  33  31  30  30  30  31  32  31  34  38  36  36  34  31  29  30  29  26  25  27  22  30  56  42  63  25   8   5   1  15  89 126 128 134 119  98  92  86  65  45  39  32  32  32  38  42  58  40  56  99 108 104  81  75  57  84  90  82  89  98  93  85  71  85  94  70  69  67  88  65  50  11   0   1  43 117 122  33  13  25  26  28  31  28  26  25  23  26  27  29  32  31
  31  30  29  30  31  31  28  33  38  38  36  36  34  36  32  32  29  26  26  24  21  26  52  45  27  18  12   7   1  13  83 123 132 130 124 118 121 126 107  79  56  42  40  32  27  29  31  38  38  50  63  57  59  43  55  55  61  76  79  59  71  62  54  53  67  63  40  77  37   7   2   1   0   8  29  55 109  39   7  22  28  33  32  30  28  26  25  28  28  32  31  29
  31  29  28  29  30  31  27  36  38  37  35  35  36  37  34  32  28  26  24  22  21  28  49  42  44  43  10   8   4  11  71 118 137 133 134 136 122 118 113 109 103  79  55  46  40  35  29  28  31  34  33  29  23  21  30  27  26  24  37  28  32  25  33  36  30  44  22  13  14  17   4   1   1  13  31  32  64  20  13  21  25  30  32  31  30  26  28  28  28  30  30  28
  29  29  29  28  29  29  26  26  38  36  34  34  33  34  35  30  28  27  24  22  18  28  56  48  37  48  16  13   7  10  62 113 130 139 138 135 135 130 119 115 119 112  81  58  49  50  44  35  26  27  30  30  27  26  26  20  22  22  18  17  17  24  13  13   9   5   6  20  38  13   2   1   8  26  40  42  35   7  16  24  30  31  33  31  28  24  25  28  26  27  28  27
