P2
# Generated by OpenCV 4.2.0
92 112
255
 134 134 133 134 133 136 134 133 132 135 135 137 134 134 138 138 139 137 138 137 139 141 142 142 139 143 144 147 154 164 162 132  60  20  32  37  21  15  13  27  46  39  36  38  46  50  57  54  48  34  45  54  24  13  25  25  27  27  39  37  31  35  36  89 167 148 136 134 138 143 145 137 141 141 144 142 140 147 148 142 140 139 138 135 135 137 140 143 141 148 148 142
 131 135 135 135 134 136 134 131 133 134 136 135 133 136 136 135 138 142 143 137 137 142 143 141 142 147 151 153 148  97  42  18  17  20  17  17  19  27  33  37  27  29  34  35  39  44  50  60  63  54  48  52  53  42  28  30  32  38  34  29  23  22  27  28  74 141 158 149 146 148 145 140 139 137 140 141 139 142 146 140 138 136 133 136 136 134 136 140 144 147 150 144
 133 136 136 136 137 133 132 135 135 134 134 133 134 137 139 139 141 142 147 139 132 141 143 144 153 154 143 106  46  14   7  22  33  30  26  31  31  29  32  34  35  36  34  39  38  40  40  43  49  58  56  44  51  58  47  35  33  39  40  32  22  17  21  21  24  48  98 141 162 154 146 142 144 142 139 141 141 140 141 141 138 138 138 135 133 133 135 141 144 148 145 143
 131 132 138 137 136 135 134 134 137 135 131 131 138 138 137 139 137 141 142 140 136 141 144 153 122  81  49  17  16  29  42  47  48  49  46  39  42  47  46  43  51  51  48  49  50  44  37  36  41  47  54  62  63  53  47  49  41  49  38  42  35  22  16  23  21  30  31  52  92 146 155 144 142 139 140 143 143 144 144 141 141 139 140 142 140 140 141 141 143 146 144 141
 133 135 140 136 133 136 135 133 135 137 135 136 139 139 139 138 136 138 141 142 139 137 131  92  47  28  23  23  36  57  56  51  44  41  49  47  46  42  38  29  33  40  45  48  57  61  63  62  59  51  38  45  66  70  61  50  51  56  52  36  45  40  31  27  17  15  26  34  24  74 151 153 144 140 145 143 139 145 142 144 142 140 143 144 145 143 145 146 145 146 146 139
 129 137 142 139 134 135 138 138 136 136 138 141 140 141 140 139 139 139 139 141 136 140  83  29  23  26  32  49  58  52  47  42  51  53  52  57  49  44  45  48  44  52  54  54  55  50  49  45  50  52  53  46  45  60  65  58  58  61  64  58  33  51  44  36  25  22  15  17  23  27  59 138 153 147 146 143 143 146 146 145 141 140 141 142 145 147 148 145 143 144 143 141
 136 137 136 136 137 137 137 139 140 136 138 137 142 143 141 140 142 146 143 142 141 104  34  24  26  29  40  56  54  54  53  53  57  56  50  50  49  58  68  73  67  70  63  52  43  43  38  35  35  33  39  54  63  53  46  65  63  63  59  61  46  30  45  46  33  25  16  13  16  11  20  98 147 147 148 148 148 146 146 143 141 143 143 144 145 149 147 145 143 140 141 144
 140 141 138 136 138 141 137 135 136 138 139 138 144 142 144 143 144 146 148 151 108  40  26  27  31  42  48  54  54  65  65  59  62  61  70  69  61  61  57  54  54  53  58  54  46  46  44  47  53  58  54  48  55  69  45  45  63  60  55  44  51  43  38  44  37  25  13   5  14  10   8  67 134 153 152 147 147 149 146 147 147 145 145 148 148 148 147 145 146 146 143 141
 144 139 139 140 141 138 136 133 139 140 138 138 141 149 150 149 146 147 149 124  58  15  23  21  26  40  41  58  73  79  72  64  65  65  54  45  45  46  51  49  53  61  73  83  80  73  66  61  55  65  66  58  47  50  77  50  52  61  61  48  44  53  27  39  38  22  24  10  10  11  11  16  81 160 152 147 147 148 147 148 147 144 144 146 147 147 148 148 146 146 144 144
 140 135 139 137 140 139 140 137 139 140 137 138 141 149 155 153 150 153 137  66  17  21  21  23  34  47  54  60  59  56  59  58  61  51  53  60  68  69  71  68  70  73  70  66  70  75  72  76  80  75  63  67  54  38  55  71  55  64  60  59  50  42  33  26  44  49  44  22  11  10  19  17  12 105 159 149 146 147 149 149 147 148 146 144 146 147 149 150 148 147 146 147
 141 140 138 138 138 138 136 138 137 137 137 135 139 140 143 150 154 140  78  25  27  30  27  34  38  46  51  56  60  67  62  60  62  65  78  80  81  84  71  62  53  51  46  49  52  56  57  60  65  65  62  64  74  65  39  50  59  67  64  64  60  49  34  21  40  69  51  38  24  18  30  13   6  21 118 162 150 151 149 149 146 145 148 146 146 147 150 150 148 146 147 145
 136 138 133 133 134 137 138 138 137 138 138 138 143 139 138 152 141  87  27  22  23  26  31  33  44  51  47  54  68  63  60  63  62  61  56  49  52  53  45  43  41  46  46  39  38  43  41  45  55  70  71  53  60  90  88  49  39  56  75  74  69  52  30  22  29  51  54  54  38  22  24   9  12  10  29 141 162 153 151 149 150 144 146 149 148 148 150 148 146 145 150 147
 136 133 132 135 133 138 135 133 139 135 131 140 147 142 153 128  62  29  17  20  29  35  52  49  38  30  44  48  37  32  38  38  35  31  33  41  54  54  49  51  45  47  45  34  29  25  26  30  35  41  60  62  55  58  91 100  52  31  73  96  84  47  32  22  26  34  47  46  24  20  20   8   7  13  16  49 137 161 156 149 148 144 143 145 148 147 147 147 147 146 149 147
 142 140 139 139 138 139 135 132 140 134 131 141 145 152 136  42  12  15  26  30  32  34  30  22  26  29  32  23  31  38  40  42  43  41  43  49  54  55  55  53  51  59  61  53  52  45  30  33  39  57  62  48  41  43  50  95 108  52  45 100  97  59  34  37  31  36  50  44  49  39  20   7   8   7  19  19  64 117 143 154 146 146 142 140 147 148 147 147 147 144 148 149
 141 139 143 140 141 135 131 134 142 140 142 143 146 158  62   3  12  20  25  23  29  19  15  18  16  22  28  47  58  51  44  38  39  45  55  56  58  48  43  42  39  40  39  41  54  56  52  45  43  46  62  73  53  25  28  50 104  98  42  82  87  69  46  54  33  39  51  47  50  37  26  13  11  15  19  30  28  95 118 144 151 149 141 136 142 148 147 145 143 143 148 148
 138 137 139 139 137 133 130 129 137 142 145 145 152 126  18  13  13  11  17  22  10   5  12  25  32  45  49  42  27  21  24  41  58  74  83  73  56  51  42  38  39  44  46  42  37  34  55  64  58  54  58  71  67  49  28  27  63  96  73  63  89  72  62  67  36  37  45  57  56  41  24  23  21  16  16  17  17  43 150 150 154 148 147 141 140 148 150 147 145 144 146 150
 137 134 138 135 136 137 130 133 133 137 142 145 158  73   6  12   7   5  12   7  12  21  33  33  29  20  12  14  24  33  53  69  77  80  80  75  67  66  66  64  59  65  63  60  59  44  53  76  81  86  74  68  78  51  45  34  37  59  77  56  72  72  69  86  42  34  49  69  68  53  30  23  19  14   6   7  16  12  84 173 152 147 150 144 143 145 146 147 146 146 143 147
 135 132 140 140 137 137 137 137 137 139 139 147 142  32   3   8  13  10  15  14  13  14  16  16  20  24  29  31  42  51  51  51  52  55  53  47  48  44  52  56  61  65  64  76  78  73  70  62  86  78  79  76  84  70  47  51  51  37  62  62  71  65  81  90  34  49  65  78  80  69  53  41  20  11  10   4  11  17  22 117 161 151 147 147 148 146 147 148 141 138 141 141
 135 132 137 139 137 136 140 140 141 142 145 135  67   9  12  15  17  28  23  20  25  29  33  41  50  62  84 106 108 101  91  83  74  62  60  60  56  48  40  45  54  55  50  55  71  75  93  78  59  73  62  62  66  76  68  64  57  38  47  57  63  68  82  68  36  57  51  70  84  80  80  61  31  16   9   8  10  17  18  53 143 154 148 147 152 151 149 148 143 140 139 144
 138 135 137 138 139 142 144 138 141 144 156  82  22  12   9  15  18  26  37  45  49  58  71  82  80  87  85  82  76  71  74  70  65  66  69  63  57  67  69  53  58  65  83  74  61  82  82  96  69  69  61  60  50  58  68  78  61  48  41  53  62  67  72  49  52  49  54  71  80  91  90  67  47  24  15  13   8  11  22  18  97 142 147 146 153 149 143 145 146 147 146 148
 136 137 137 141 140 140 140 141 139 147 150  41  13  16  12  13  16  23  22  27  40  44  52  68  65  63  55  58  56  53  49  49  66  68  71  73  56  38  59  66  73  73  62  95  88  91 101  77  83  74  68  65  61  52  73  87  62  58  47  63  60  61  66  58  69  62  74  63  85  91  86  80  83  46  18  10   8   8  16  15  32 119 154 149 150 151 143 141 147 147 147 150
 137 139 138 138 139 138 137 141 148 148  84  11  12  23  22  15  23  35  48  42  42  46  44  40  56  41  42  50  47  53  50  46  56  74  65  57  62  55  45  67  69  84  86  60  81  82  97  97  75  92  90  75  74  80  82  88  70  53  58  62  65  66  74  83  71  83  73  76  84  90  85  98  90  66  39  17  12  10  10  12  22 102 155 158 155 151 146 147 152 153 149 148
 138 136 139 139 136 138 141 141 146 153  33  10  17  15  18  23  42  50  49  42  32  34  21  18  31  39  34  45  58  51  46  64  70  57  79  89  77  64  49  53  75  70  86  81  71  56  73  82  69 102 112  99 109 100  85  90  67  61  63  73  74  80  91  83  88  93  95  84  87  67  68  79  83  87  54  43  25  13  13  14  15  46 134 164 156 150 149 151 153 153 148 150
 139 141 142 141 140 142 142 145 155  97  13  13  12   9  23  43  44  50  46  37  48  51  44  40  50  39  44  57  67  76  63  68  88  87  61  72  88  89  73  61  79  84  80  71  70  82  58  82  92 101 124 121 134 114  99  90  82  81  78  79  87 104 104 101 108 112 104 101  87  74  74  77  87  80  79  75  50  23  16   4   0   3  60 142 154 151 148 147 150 150 148 150
 139 142 147 145 142 143 143 149 110  18  15  11  11  25  36  28  43  36  36  47  41  35  40  54  70  74  63  76  76  88  82  86  78 101  88  72  66  78  85  78  81  88  92  87  65  89  96  93 116 140 129 139 143 134 110 105 106  96  89  82 105 124 118 121 125 134 127 126 119 112  88  80  74  70  78  75  49  31  16   0   2   0   8 111 160 152 144 146 146 143 147 145
 140 141 145 141 138 144 147 135  44  13   8  14  27  18  15  35  35  34  52  47  35  44  54  72  92  99 114 106  90  93 108 122 103  99 102 100  88  79  90  88  82  91 106  99  81  83 123 118 133 165 164 155 168 141 138 143 132 116 100 117 132 137 149 147 148 144 139 146 147 138 115  74  58  63  69  70  71  52  21   5   3   6   0  66 172 154 148 147 142 139 145 149
 139 139 139 141 143 145 152 124  19  10  19  15   8  13  27  37  30  41  38  27  39  63 103 124 129 138 139 135 129 120 116 143 150 129 108 106 110  98  90  93  90  91 111 129 116 103 138 149 168 177 189 185 183 171 170 168 144 134 142 153 156 163 167 162 164 161 165 166 165 171 148 101  70  59  65  69  69  64  33  16  11   8   3  19 159 160 149 145 144 149 147 149
 143 139 140 144 143 147 150  83  11  18  11  10  15  13  17  28  38  37  30  48  75 110 141 157 164 165 165 164 163 163 157 152 158 155 144 134 127 121 128 118 129 131 137 152 157 129 157 173 189 187 200 192 197 196 197 186 173 182 182 173 175 179 189 194 181 184 185 175 171 182 169 135 101  83  73  71  74  69  54  19   7   6  12   9 132 157 147 148 141 153 154 154
 137 137 139 142 145 158 100  17  10   7  10  12   9  27  27  44  43  35  56  77 117 153 152 162 174 178 173 182 183 184 183 182 185 180 176 178 163 163 161 153 160 175 164 161 180 157 168 191 203 194 208 212 217 214 210 206 203 205 194 184 191 191 196 203 201 197 198 190 183 180 172 145  99  90  84  66  80  74  59  31   7   1   7   7 109 156 153 151 145 149 152 158
 138 139 140 143 146 152  84   4   6   3   0  13  35  31  44  46  46  59  83 109 162 162 164 168 173 180 182 189 190 191 193 201 201 193 193 201 194 185 192 189 188 190 186 182 185 181 186 209 216 219 218 219 219 218 218 212 210 209 199 203 206 203 201 197 203 202 194 193 186 183 179 173 137 103  96  81  72  76  60  40  14   2   4   1 104 159 147 147 148 148 147 148
 140 139 146 143 150 157  58   1   8   7  12  34  37  42  37  40  59  87 114 158 170 167 171 160 169 182 187 193 201 201 199 205 210 209 208 209 212 206 203 199 194 199 197 197 202 193 197 214 217 221 223 223 223 222 221 214 209 212 212 210 202 202 208 204 204 203 204 195 189 186 180 174 148 122  99  84  80  71  60  37  23   8   5   1  45 144 149 149 148 147 144 145
 140 140 145 146 150 134  17   0   2  13  20  21  35  46  43  53  69  92 142 171 163 168 165 168 183 186 185 201 206 209 207 213 214 209 209 209 215 214 212 208 204 205 204 213 215 206 210 221 221 218 218 220 223 220 216 218 220 216 214 213 210 209 209 206 201 200 203 194 189 183 177 177 144 114  96  81  80  72  61  45  27  14   7   7  11 104 154 149 141 142 145 147
 139 142 146 149 133  64   0   2   0   1  13  22  35  49  62  82 103 116 146 162 166 166 172 178 185 191 199 209 206 209 211 217 218 214 211 215 213 213 216 214 212 210 215 219 220 217 215 219 220 219 221 218 220 222 219 217 220 219 221 218 212 204 202 205 199 200 196 196 195 180 176 176 159 124 108  82  71  70  64  44  29  22  10   7  12  77 150 149 146 144 144 145
 138 141 147 142  86   1   5   4  11  19  27  36  47  62  80  96 123 131 147 145 161 170 182 184 186 194 203 203 207 211 214 214 215 213 212 214 213 212 211 213 214 213 219 219 220 221 219 220 223 227 226 223 220 220 224 219 225 221 220 217 210 210 206 207 203 197 193 194 200 186 168 160 163 134 111  99  77  59  58  43  27  21  18  13  23  91 142 153 150 145 140 143
 141 145 152 144  38   9  11  15  18  26  37  47  58  69  84 105 122 137 138 136 160 183 197 184 183 193 198 208 211 211 214 217 216 217 215 216 218 219 216 215 213 212 217 216 222 224 223 224 224 227 232 230 229 230 228 229 228 227 226 222 217 210 207 210 205 197 190 189 198 190 169 169 150 138 121  85  69  61  55  50  27  20  13  15  21 120 147 154 156 150 143 143
 144 149 151 129  19  12  10   9  11  24  38  43  51  64  81 101 120 136 136 148 170 184 191 185 182 192 205 217 217 219 220 219 221 218 213 216 216 216 217 214 214 212 217 219 221 225 227 226 222 218 219 216 216 220 219 222 219 216 215 216 214 212 208 207 198 204 199 193 192 185 170 158 160 136 118  92  66  51  41  35  26  15  12   8  11 104 152 152 154 153 142 142
 147 146 136 131  33   3   7   8  16  18  23  29  47  68  83 105 127 131 136 151 166 183 192 189 192 202 209 215 217 217 220 220 220 217 214 215 214 212 212 209 207 209 212 215 216 214 214 213 212 211 218 219 219 219 217 219 218 217 216 215 208 211 211 204 198 199 200 195 190 185 174 165 153 147 126  85  71  58  36  27  19  17  14  13  11  79 153 148 148 149 143 146
 142 144 146 142  96   2   3   4   8  21  38  54  64  70  84 108 128 142 146 155 159 176 203 185 182 192 200 201 201 197 203 205 207 210 214 208 214 220 222 218 213 213 214 213 214 215 218 219 221 223 227 229 227 229 223 227 229 227 224 217 215 218 213 203 201 194 193 184 189 191 177 170 168 145 133 104  61  60  47  38  21  16  12  12   8  59 145 142 146 148 147 145
 137 147 150 149 129  21   0   2  12  17  25  39  61  78  94 113 127 146 147 150 162 182 188 181 183 198 206 212 213 213 211 212 212 208 211 215 218 218 216 214 213 213 218 219 218 220 222 225 224 225 230 227 226 233 232 227 226 224 227 224 221 222 216 215 207 201 198 186 181 189 183 169 162 154 128 104  75  45  44  39  22   0   1   5   8  43 137 151 152 151 148 146
 138 144 143 146 134  33   0  12  15  13  29  45  67  92 112 124 145 150 141 151 174 175 187 192 183 196 207 208 211 216 214 216 215 212 211 212 213 213 213 213 213 211 208 210 217 218 220 218 218 221 220 215 213 216 213 202 200 198 199 197 196 196 197 199 190 189 193 185 176 188 186 175 170 146 135 114  94  52  24  16  20   8   0   1   3  35 130 153 153 152 149 151
 137 142 143 146 144  43   5  13   3  11  21  36  49  85 111 138 160 154 143 155 165 175 196 200 190 180 188 187 193 194 193 199 203 209 210 215 216 214 213 215 216 213 209 212 217 218 219 219 218 213 218 220 216 212 211 209 212 213 210 203 206 201 198 195 200 191 183 179 176 178 186 177 179 157 136 110  88  73  41  15   8   4   0   5   0  24 125 156 152 149 146 146
 143 143 145 149 142  47   7  11  16  20  27  39  56  87 123 141 155 153 151 152 161 179 190 190 186 186 188 190 188 187 186 188 187 184 184 197 203 204 208 211 211 216 215 216 220 221 219 219 218 210 214 216 214 209 213 212 207 212 213 209 210 212 212 209 203 196 191 184 176 163 174 179 181 177 150 120  96  64  50  36  14   3   1   9   2  15 125 156 156 152 140 144
 145 144 143 148 150  59   7  15  12  13  15  30  50  88 138 141 146 154 150 145 162 178 177 180 189 195 186 188 196 198 195 197 197 197 197 194 189 194 192 193 200 196 195 199 201 200 197 200 198 198 203 205 196 196 199 201 202 204 198 194 196 198 202 198 196 196 183 186 182 175 176 177 182 185 168 144 104  82  42  28  26  14   5   6   8  22 126 154 156 153 149 146
 145 148 147 149 157  70  13  11   8  13  14  33  52  91 136 144 145 153 148 147 165 165 168 184 188 183 173 180 202 208 210 211 209 207 207 209 207 205 209 208 208 207 206 207 205 209 211 210 208 208 212 211 204 208 207 211 216 213 205 203 206 207 195 194 197 190 180 175 178 185 177 178 182 187 177 174 137  77  59  40  19  15  10  10   9  34 130 152 149 150 149 146
 148 151 150 154 156  67  12  14  32  34  20  42  54  89 132 146 144 147 145 147 159 141 167 186 187 186 189 197 204 197 198 206 212 211 211 209 206 206 211 213 209 208 206 207 209 213 214 212 210 210 214 218 221 218 211 206 209 212 208 215 218 219 206 198 211 203 191 172 164 182 183 180 180 178 172 180 169  89  53  39  27  17  12  14  25  80 142 149 151 152 149 150
 149 150 152 152 152 108  26  23  57  45  31  47  50  78 132 147 142 143 145 142 143 149 166 201 201 197 202 217 209 209 210 213 210 212 216 218 215 215 206 205 212 212 205 202 204 211 213 213 213 216 217 213 215 215 211 215 218 216 214 218 219 207 201 207 203 208 203 197 168 168 183 174 171 170 174 172 174  97  54  43  23  19  14   9  22 101 148 150 152 150 153 151
 148 148 146 149 152 151  87  18  52  23  32  45  38  70 130 143 148 138 143 134 142 174 184 207 206 212 221 225 227 227 224 228 228 221 222 222 215 218 219 214 212 209 204 200 206 212 217 216 211 212 214 218 228 234 235 233 226 225 220 222 225 219 215 217 216 210 206 204 193 167 179 173 166 171 168 162 174 112  48  40  25  22  10  36 126 143 148 150 151 149 150 147
 144 144 142 143 147 149 146  49  21  16  33  39  44  80 129 139 149 137 134 124 159 180 185 181 185 193 201 198 206 220 225 226 226 222 225 223 216 214 221 222 221 214 210 211 214 222 223 221 217 218 222 228 236 240 240 240 233 228 229 236 234 231 220 212 203 202 214 204 201 173 173 171 165 180 162 155 170 115  53  40  21  21   9  88 181 190 151 148 149 146 149 149
 139 142 146 145 144 144 160 134  25  18  37  41  47  70 121 136 144 134 126 125 169 160 134 132 132 126 136 139 146 177 186 198 215 219 219 220 218 214 222 225 222 219 219 215 217 226 221 222 222 221 229 233 234 237 235 233 233 230 227 211 191 175 165 144 153 154 168 199 204 192 176 172 164 182 160 159 166 112  56  41  23  13   9  77 153 151 158 146 144 148 151 153
 142 142 145 146 143 147 150 155  63  22  47  34  45  64 119 133 145 135 131 138 140 114 109 113 126 125 116 111 111 106 116 126 151 180 200 210 220 213 215 221 225 224 219 214 209 215 217 218 220 222 230 232 229 231 228 207 184 156 147 145 129 126 136 127 125 137 138 146 175 203 183 167 166 179 163 160 165  91  56  41  19   7   5  76 129 111 164 149 149 148 151 153
 143 141 140 139 138 143 142 148 125  42  47  51  52  51 112 118 141 143 140 121 101 145 152 163 188 190 175 168 161 146 142 126 110 122 135 175 202 207 207 211 221 222 216 216 211 211 215 214 221 223 225 227 225 214 179 127 113 114 123 119 123 151 168 189 166 158 166 165 151 177 190 164 171 173 160 161 158  72  48  41  22   3  23 118 153 152 178 144 151 147 149 153
 142 139 138 135 141 148 146 146 149  84  53  56  47  66 118 113 132 144 140 133 130 171 179 193 202 214 220 222 219 213 200 174 147 129 120 135 166 188 195 208 213 218 217 219 219 220 216 210 223 217 212 211 195 143 105 102 108 127 155 180 201 220 220 220 217 210 206 194 176 156 188 172 166 168 162 162 155  73  42  47  22  22  82 139 164 165 172 146 150 142 145 150
 138 139 136 133 140 147 150 150 155 130  85  44  66  63 104 120 126 146 141 160 161 167 173 178 191 209 213 213 217 222 219 209 185 160 147 144 151 168 184 198 208 208 218 219 217 221 221 207 205 203 191 180 157 141 136 151 161 173 201 219 228 227 224 217 214 211 209 209 204 183 181 178 172 173 169 160 150  92  38  38  27  58 152 170 148 191 162 154 146 138 140 143
 142 138 136 133 143 145 145 149 156 148 118  57  60  51  90 122 128 147 147 164 166 170 166 173 179 190 202 211 223 229 229 230 223 213 185 163 149 151 162 177 193 205 215 221 224 225 222 220 206 187 170 156 151 154 166 168 180 197 215 220 217 223 222 215 215 211 211 200 192 187 179 179 177 178 169 156 129  88  55  26  39  51 173 178 151 202 161 153 141 136 136 142
 143 140 136 134 139 137 137 140 142 143 143  75  40  59  92 119 140 142 152 155 163 165 161 169 173 187 199 188 158 140 161 145 125 137 148 178 188 162 147 149 164 193 217 220 224 228 228 224 214 187 161 153 162 169 155 134 116 157 212 231 229 232 221 209 216 215 214 206 193 180 190 186 182 176 164 156 126  66  72  26  37  49 149 159 180 206 153 156 146 139 143 144
 136 137 133 136 139 137 138 138 141 143 138  69  47  58  90 117 140 142 149 159 152 148 151 154 158 117  76 100  54  85   0  98 103  98 105  64 115 158 144 117 129 182 214 214 220 223 224 226 213 185 157 149 136 111  80  61  80  64  72  87 128 134 181 214 213 208 199 192 190 191 194 183 181 169 162 157 136  64  78  29  34  46 130 141 193 179 138 150 152 147 141 142
 134 136 136 139 140 140 138 142 143 142 140  89  39  58  92 109 125 167 153 146 157 139 145 143  75  97 120 150 103  98  44 105 121 193 213 149  90  95  94  89 111 177 215 219 223 227 223 222 204 178 143 107 123 142 119 132 206 121  69  29  48   7  42  81 157 195 192 185 174 176 191 184 173 172 170 159 128  68  68  18  35  50 146 173 191 145 137 147 146 144 137 142
 138 137 135 134 138 140 136 139 144 143 154  95  39  75 102 115 125 162 187 164 141 145 132  87  97 149 198 201 182 139 133 154 162 204 189 160 125 102 121 104 117 173 209 212 214 220 222 217 196 174 167 160 163 181 145 145 187 167 114 111 126 131 157 143 110  98 161 185 172 187 190 180 182 188 170 159 127  66  60  19  16  52 157 202 174 140 148 147 144 145 140 142
 136 138 137 134 137 138 138 138 144 144 153 121  62  58  99 117 127 143 160 181 172 143 124 135 155 169 184 196 205 200 190 190 199 192 191 183 157 139 140 138 117 177 201 207 213 215 217 210 189 179 211 206 138 143 150 161 164 172 178 187 202 214 212 209 171 140 101 135 171 183 188 200 192 177 168 151 131  77  69  35  30  43 151 200 154 143 150 150 153 153 146 144
 137 139 139 134 139 142 138 137 144 146 143 141  80  61  98 113 130 154 173 182 175 157 171 160 168 188 185 198 199 196 198 197 197 195 190 179 183 193 148 118 132 174 196 213 219 215 204 201 179 172 207 191 178 183 166 162 162 168 179 199 202 207 205 191 188 197 178 136 164 199 202 190 174 165 161 150 136  90  84  48  88 128 180 191 143 151 150 148 152 153 144 146
 139 143 143 140 143 142 137 137 144 148 142 139 113  76  98 114 138 153 187 203 197 197 178 147 152 184 190 188 190 186 195 198 203 197 185 174 172 174 141 118 151 178 201 211 218 217 208 196 183 170 184 203 173 161 166 164 166 180 197 205 204 196 188 196 201 186 184 192 191 192 199 199 194 180 162 146 139  93  82  61 128 199 211 185 142 150 146 146 148 150 145 153
 141 146 144 141 143 137 134 140 144 143 146 146 114  60  85 114 126 148 178 182 189 202 199 166 159 175 182 186 193 194 193 194 192 178 172 165 168 165 134 134 150 175 203 209 213 208 199 195 192 185 180 188 176 152 157 170 173 176 197 204 198 193 196 191 186 186 192 197 210 207 202 195 188 177 158 149 139 106  77  82 171 219 208 178 151 147 144 145 153 158 155 158
 139 143 146 147 144 136 135 140 141 143 149 156 121  61  84 105 118 157 153 170 196 210 214 207 185 173 186 188 192 193 184 173 166 172 174 178 192 168 143 140 149 180 204 207 207 201 193 194 195 189 185 195 193 175 159 156 173 175 183 196 198 204 202 199 200 193 190 201 207 213 205 203 186 171 159 147 142  99  64 117 212 208 206 166 158 152 147 148 156 160 157 157
 145 143 145 148 142 139 138 143 142 138 151 167 150  83  86 101 120 147 151 181 200 202 200 200 197 193 192 192 188 187 190 190 193 191 186 202 201 162 151 139 154 191 206 210 217 210 193 193 198 188 190 199 205 207 194 178 180 178 185 199 197 203 203 203 195 192 199 205 203 198 200 196 194 174 152 150 141  94 113 187 212 207 208 158 158 153 147 149 151 155 156 158
 145 145 145 142 144 141 147 144 142 136 157 174 177 118  69 103 112 131 156 186 190 193 197 205 210 218 217 211 206 207 210 207 207 205 208 210 192 158 151 144 158 188 206 212 225 214 196 192 199 197 191 197 199 209 211 213 205 200 201 203 197 201 204 201 197 195 198 203 207 204 200 193 184 176 147 145 123 106 177 210 207 214 202 152 152 148 149 151 152 156 158 163
 141 145 143 143 136 141 146 141 140 136 162 168 171 168  86  94 106 120 156 179 187 194 199 208 213 219 217 215 210 209 210 213 212 210 214 207 178 156 151 150 150 184 204 212 219 214 199 194 196 200 193 198 204 210 219 220 218 211 208 210 199 203 204 198 198 201 206 201 200 205 201 194 180 171 149 131 118 172 211 204 204 212 191 149 151 149 150 158 156 158 161 161
 139 145 147 144 143 144 145 143 147 139 156 164 168 174 115  88 106 121 153 174 178 192 208 207 214 216 217 215 214 213 214 214 219 215 207 192 169 156 155 152 149 183 211 215 216 209 201 197 194 204 198 197 201 206 213 219 218 218 218 215 210 213 210 214 215 215 205 201 196 198 203 192 182 158 142 125 115 180 215 215 210 209 174 150 154 152 154 159 159 162 164 160
 139 143 146 144 144 146 144 146 149 143 153 158 162 163 132  93 100 129 146 166 173 189 206 215 217 216 217 215 220 221 219 217 215 209 199 182 173 161 159 150 151 190 210 221 220 207 200 189 185 204 207 201 203 212 217 217 217 217 221 218 218 218 217 219 223 221 216 204 194 193 199 189 178 160 141 126 135 206 221 216 219 215 166 154 153 152 156 160 162 167 165 163
 142 143 147 146 147 148 149 145 148 145 149 152 153 163 131  82  97 122 146 156 177 170 203 215 219 218 219 221 222 222 221 217 211 209 204 187 164 155 161 150 159 201 215 221 219 209 202 194 185 189 202 199 203 218 223 223 220 217 217 215 215 219 220 222 223 220 217 214 209 199 199 190 185 163 132 123 149 223 220 214 219 217 159 151 155 157 155 157 164 168 165 162
 143 145 148 150 152 149 149 147 145 144 146 164 137 155 140  94 100 116 132 150 167 189 203 212 221 222 222 224 222 223 221 219 216 214 197 163 132 146 154 149 174 207 216 220 211 209 207 203 193 181 191 193 199 208 216 220 221 223 220 215 214 218 221 225 228 219 217 215 213 203 200 191 180 159 131 116 136 217 214 220 218 202 153 157 155 159 160 160 162 163 162 156
 140 144 147 146 149 147 148 146 145 143 143 165 135 146 141 104  98 118 130 145 161 190 202 212 222 225 224 225 225 223 222 218 214 204 180 130 140 148 147 152 179 208 214 220 220 218 218 212 206 191 185 187 198 204 200 209 216 220 221 219 219 220 224 227 225 223 218 214 209 202 199 188 171 153 127 121 141 215 215 217 214 191 154 159 155 159 159 161 158 159 161 157
 137 140 144 143 143 148 147 143 147 147 140 146 160 160 145  99 101 106 120 139 159 181 200 211 222 225 224 223 221 220 217 217 212 188 142 123 151 149 150 150 190 216 219 221 228 233 221 214 212 197 192 189 191 207 200 192 203 214 216 220 221 226 227 228 228 226 220 215 209 205 193 178 169 145 129 120 127 208 213 213 218 176 152 158 161 160 159 159 158 162 163 161
 140 136 140 143 141 147 147 139 146 146 145 144 161 171 150  97 104 104 122 127 144 169 196 210 220 222 221 222 221 218 217 213 200 159 105 130 162 148 152 161 201 223 225 230 237 241 223 219 215 204 202 198 194 199 208 185 187 203 206 214 220 226 227 229 229 226 217 213 207 201 186 173 162 142 130 105 135 204 206 212 221 163 153 158 163 161 159 156 159 160 160 160
 145 141 143 144 145 149 147 144 147 149 152 149 146 153 138 100 109 105 117 125 132 157 185 205 218 223 222 219 220 217 217 203 177 131 102 137 163 149 152 168 219 229 225 232 238 235 225 223 209 207 200 201 202 200 215 200 161 176 199 209 216 221 227 231 228 223 218 215 203 187 180 165 158 143 131  98 129 200 208 217 204 153 154 156 166 162 155 159 162 164 164 164
 140 142 142 143 145 149 148 149 148 152 146 147 147 132  97  96 109 108 115 126 138 154 175 197 213 217 218 218 217 215 205 182 138 145 132 139 152 144 154 189 224 224 223 226 232 229 232 217 211 213 209 209 195 196 217 221 182 127 174 202 212 218 221 227 231 223 217 213 207 186 176 169 163 141 138 112 149 209 196 211 183 151 156 157 165 161 157 159 161 165 167 165
 140 139 142 141 143 143 149 149 148 149 147 146 151 146  93  60 109 114 118 124 135 154 171 191 208 214 215 214 209 203 183 140 146 167 162 149 133 116 137 190 219 217 219 227 232 229 219 204 189 153 148 181 182 200 218 219 221 165 114 177 205 214 222 227 224 221 216 208 206 192 172 171 163 146 141 105 147 228 208 198 166 156 158 164 166 162 162 161 160 163 164 164
 147 142 144 143 142 146 148 151 148 147 149 149 148 144 117  80 101 119 110 122 132 143 160 185 205 208 208 208 202 183 143 149 173 168 154 154 146 108  89 141 203 214 202 205 220 206 191 178 154 125  92 130 190 211 214 218 218 223 155 115 175 210 220 225 220 217 213 208 194 183 174 162 155 154 135  93 151 219 206 177 155 157 156 159 162 159 159 162 160 158 160 164
 143 143 143 141 141 144 145 142 140 145 152 152 147 147 134 108  99 114 103 124 128 132 162 182 201 207 206 203 186 144 144 172 165 165 161 153 143 148 116  97 138 191 198 177 167 170 179 177 186 184 186 195 208 200 201 214 214 216 222 148 119 184 208 215 220 216 212 203 177 179 179 165 159 156 133 110 149 169 159 156 157 154 156 157 159 161 160 160 168 161 162 163
 145 143 146 143 140 142 142 142 142 148 150 150 149 143 142 120  87 103  95 129 123 131 156 185 198 206 202 192 149 139 173 174 163 159 156 150 145 133 131 105  82 116 161 167 144 159 169 187 179 188 196 207 200 197 193 206 207 210 206 215 149 112 190 206 209 209 209 198 178 176 181 171 153 148 134 118 129 145 149 154 154 155 156 156 159 165 165 164 168 168 167 163
 142 141 144 142 142 145 146 147 146 148 147 148 147 141 141 129 107 107 102 130 123 132 151 175 198 201 194 171 139 172 184 174 161 152 131 138 136 138 140 122 118 114 139 154 173 171 174 193 203 193 193 208 206 199 199 198 201 202 208 207 202 132 129 201 208 207 203 194 181 177 182 169 158 136 122 104 134 153 152 155 156 156 155 153 156 163 168 164 170 169 165 166
 143 141 142 142 140 145 146 145 146 147 148 146 145 144 139 136 130 107 104 131 123 129 148 179 196 198 185 157 158 185 181 165 154 144 145 142 155 145 145 154 140 140 182 200 202 173 160 193 198 194 179 197 194 196 200 197 191 189 191 196 200 207 129 150 206 212 204 192 184 180 179 175 158 135 132 113 131 148 153 156 157 154 158 154 158 163 162 165 168 161 163 167
 138 139 141 144 144 143 142 148 147 146 148 148 145 145 146 143 130 111 107 138 133 130 149 180 196 197 186 146 164 190 179 150 153 160 172 173 152 152 133 167 178 183 198 204 212 187 173 193 205 180 194 191 199 199 191 200 193 172 190 189 197 210 172 119 193 210 205 197 183 182 176 170 162 137 110 135 143 147 155 155 152 159 161 159 161 159 157 163 162 156 164 168
 136 140 144 139 137 143 145 146 146 148 147 147 149 148 146 148 145 127 108 134 135 134 149 184 192 195 166 159 182 176 172 168 162 150 163 169 160 158 155 170 190 192 209 215 210 207 190 189 201 196 205 192 198 200 188 208 202 181 195 200 195 185 187 126 180 214 210 196 184 186 183 170 156 152 119 119 143 150 149 155 161 164 161 157 157 160 161 162 166 166 166 168
 142 150 152 144 143 146 148 147 143 147 147 148 150 147 148 147 149 120 117 136 135 129 139 181 192 199 173 155 170 177 176 165 162 156 162 164 178 178 182 188 201 207 199 206 205 208 194 196 207 205 210 212 204 210 211 199 204 189 177 174 194 193 193 162 183 212 208 193 188 183 176 173 161 137 125 131 141 151 155 159 162 165 163 164 162 164 165 164 163 166 165 169
 143 147 153 150 145 145 150 147 145 147 149 149 151 153 152 154 149 105 108 132 146 127 133 170 189 206 209 165 158 179 169 155 143 141 154 165 175 169 176 189 196 209 216 221 223 209 207 221 226 214 220 211 210 208 208 207 199 188 171 164 185 196 193 180 198 211 207 195 189 189 176 158 161 141 115  98 138 171 160 162 164 165 165 169 167 166 168 169 166 167 168 166
 142 141 146 149 142 142 143 148 148 147 151 151 153 154 150 155 154 123  99 129 143 130 144 161 182 207 218 193 174 184 167 117 101  89  44  39  53 113 149 154 150 144 170 193 205 203 189 173 182 188 191 190 188 183 178 156 134 122 140 172 181 194 179 188 213 206 206 191 186 185 170 168 155 116 133  65  20 119 180 182 187 185 180 176 171 167 168 169 169 169 172 170
 144 142 144 145 144 141 142 146 148 147 151 153 153 154 151 151 153 145 109 134 144 122 137 157 158 188 218 220 207 171 151 155 156 167 102  41  23  88 119 148 193 160 151 151 142 146 161 161 165 168 151  99 100  86  83 101 160 187 170 173 169 201 193 194 211 204 196 190 186 184 178 176 154 118 134  20   0   1  46  65  87 110 141 167 186 190 179 172 173 170 169 169
 145 146 145 144 146 147 148 148 147 146 150 153 156 156 154 150 149 151 119 127 137 130 112 143 141 171 207 220 197 160 172 183 190 183 179 151 122 131 125 134 161 166 213 212 193 196 218 221 183 173 153 142 167 162 172 199 215 218 210 187 172 181 192 203 206 202 185 192 192 175 175 166 148 146 110   0   0   0   0   0   0   0   0  13  47  98 156 189 188 172 169 172
 145 147 148 149 150 150 151 152 153 149 153 155 153 152 153 153 150 158 123  99 133 139 124 129 134 158 187 215 192 171 179 183 197 190 178 184 175 188 189 192 179 185 194 175 166 187 191 190 185 186 189 199 202 207 210 211 210 213 216 202 177 179 195 203 197 198 180 182 187 177 178 160 134 137  58   0   0   0   0   0   0   1   1   1   0   0   3  54 130 188 184 172
 147 145 147 147 148 149 150 152 152 152 153 150 149 150 156 168 172 167 101  64 117 127 142 125 117 151 174 191 192 175 168 173 191 185 177 172 184 200 201 191 193 203 198 191 195 198 207 207 212 214 218 218 210 212 213 209 215 219 216 191 177 185 198 201 194 186 164 181 175 178 166 145 128 113   9   0   0   0   0   0   0   0   1   2   1   2   1   0   0  49 155 193
 145 144 146 146 148 150 149 151 150 153 150 152 163 168 149 112  68  28   0  36  94 127 148 130 119 138 173 180 176 184 179 170 185 179 177 162 173 191 196 208 210 207 212 214 210 206 217 205 216 219 215 209 208 208 214 213 222 218 209 178 177 187 195 194 193 176 174 188 179 172 156 131 144  81   0   0   0   1   0   0   0   0   0   1   3   3   4   2   2   0   8  96
 144 147 143 142 146 151 150 150 153 159 167 159 116  58  14   0   0   0   0   6  78 129 136 123 105 115 167 171 169 202 198 183 172 186 175 161 160 168 182 201 197 202 214 201 208 211 208 210 210 213 211 206 206 209 213 215 212 210 198 176 193 191 194 188 175 175 166 178 168 162 152 120 136  24   0   0   0   0   0   0   0   0   0   2   6   5   6   7   5   4   2   1
 145 145 139 139 146 148 145 148 168 158  97  29   1   1   0   1   0   0   1   0  24 110 145 127 132 101 121 143 172 194 202 196 166 167 180 169 171 168 183 185 182 186 202 191 203 207 199 196 188 197 198 197 198 199 200 205 203 202 196 196 191 186 195 189 181 169 157 167 170 173 152 134  69   1   0   0   0   0   0   0   0   0   0   0   8   9   3   7  11  10   7   6
 141 142 143 145 144 144 157 160  98  23   0   1   1   1   0   0   0   0   0   0   1  74 136 137 142 116 103 126 167 193 201 200 174 164 175 175 173 166 177 175 183 194 198 194 199 195 191 193 180 192 197 193 181 192 200 202 205 199 204 204 193 195 199 178 167 163 173 160 157 153 119 120  18   0   0   0   0   0   0   0   1   2   0   0   2   9   6   3   8  10   7   7
 140 144 146 146 156 166 116  33   1   1   1   0   1   1   0   0   0   0   0   0   0  71 110 145 140 118  90  96 146 195 203 204 190 165 162 183 186 184 175 190 197 197 182 196 205 192 183 195 171 183 195 205 201 201 206 207 200 206 209 204 195 194 186 159 137 168 194 181 165 142 124  65   0   1   0   0   0   0   0   0   1   1   1   0   0  14  17   4   4   7   9  12
 143 149 159 156 134  61   2   1   1   1   2   1   0   0   0   0   0   0   0   1   0 107 127 119 132 109  77 119 143 159 184 189 194 178 177 188 196 197 204 202 183 196 185 189 205 200 198 208 205 210 207 213 218 213 216 209 207 205 208 196 196 180 173 169 140 165 189 176 163 129 119  17   2   3   0   1   0   0   0   1   1   2   1   0   0  11  18   6   1   2   5   9
 161 134  83  37   4   2   2   2   1   3   5   1   0   0   0   0   0   0   0   0   0 141 150  81 125 127 102 120 142 166 173 179 193 206 196 181 203 213 212 208 198 189 177 169 192 196 193 210 216 220 223 220 223 218 213 208 210 205 202 202 189 174 165 137 151 168 163 152 137 127  94   1   6   1   1   1   1   0   1   1   2   2   2   0   0   6  13   2   1   2   4   7
  50  18   4   4   5   4   3   3   7   9   3   0   0   0   0   0   0   0   0   0   0 144 193  85 121 127 100  93 134 144 165 184 178 183 182 193 205 208 207 208 212 216 203 196 203 198 206 208 216 215 213 216 222 219 211 211 201 203 188 196 195 171 144 127 139 157 153 140 102 141  59   1   9   4   1   0   1   1   1   2   2   2   2   0   0   2  11   3   1   1   2   7
   9  10   9   9   5   3   4  11   9   3   0   0   0   0   0   0   0   0   0   0   0 140 232 114  91 111  83  88 119 119 145 187 189 178 185 194 191 191 198 203 202 212 216 220 213 206 215 215 207 212 199 200 213 215 215 212 206 207 191 192 168 157 148 149 134 145 149 123 134 164  56   3  11   5   2   1   2   4   2   2   3   7   5   1   0   1  12   8   0   0   1   6
   9  10  13  12   9   8  10  13   4   0   0   0   0   0   0   0   0   0   0   1   0 137 245 176  77  79  87 105  98 101 129 162 179 189 201 189 169 175 192 197 194 211 222 217 213 215 216 213 209 205 205 202 197 186 212 197 196 198 193 184 163 161 149 121 157 149 120 117 146 189  43   7  11   6   3   3   3   6   4   3   5   7   6   2   1   2  11  12   1   0   1   4
  12  12  11  11   9   8   8   6   1   0   0   1   0   0   0   0   0   1   1   1   0 131 234 234 139  94  68  81  79 105 132 162 181 191 195 190 188 179 192 206 203 203 208 213 217 218 215 207 215 211 199 191 196 191 208 191 192 196 197 179 158 138 132 148 148 113 109 145 178 215  14  13  11   7   4   5   3   7   7   6   5   9   9   3   4   2   9  13   2   0   0   3
  12  13  12  13  14  11  10   5   0   0   0   0   0   0   0   0   1   1   1   1   0 120 234 239 213 105  91  71  85 105 117 148 173 187 170 184 193 176 195 203 206 207 203 212 218 206 195 214 222 215 206 204 191 189 201 206 189 193 184 178 149 134 138 146 119  94 135 154 240 185   1  16  14  13   6   5   9   8  11   9   9   8   7   7   4   1  10  22   3   0   0   2
  13  13  13  15  15  12  11   3   0   1   0   2   0   0   0   0   1   1   1   1   0 114 238 230 246 168 115  87  73  91 116 148 178 176 174 170 177 173 174 196 201 208 203 209 214 188 182 205 208 202 188 192 186 182 191 205 193 183 163 142 130 123 125  81  82 149 152 211 255 128   0  17  18  13   5   7   9  10  12  11   9   9  12   6   4   4   8  23   7   1   0   1
  17  16  14  16  16  15   8   0   0   0   1   1   0   0   0   0   1   1   1   1   0 104 238 231 239 240 124  99 105  73 102 143 162 155 167 174 167 173 168 177 193 195 195 202 206 206 205 196 200 190 198 190 184 176 175 187 179 188 166 149 123 101  60  97 140 153 196 255 255  81   4  20  19  16   8   7   8  12  14  13  10  12  13  10   6   6   6  25  11   1   0   1
  21  18  17  18  16  16   5   0   0   1   1   1   1   0   0   0   1   1   1   1   0  94 238 231 238 248 206 111 105 109  99 117 149 167 160 161 147 178 182 163 179 180 191 194 187 206 217 213 193 194 192 182 183 174 171 198 164 171 151 121  87  94 101 158 160 184 253 255 243  34  14  21  19  14   9   8   9  15  17  15  14  16  16  13   9   8   6  27  15   2   0   1
  21  20  20  17  17  14   2   0   1   1   1   1   1   1   0   0   1   1   2   2   0  86 238 231 237 242 251 179 116 119 120 120 134 131 167 156 162 179 171 176 157 158 164 187 190 205 210 196 194 189 167 167 186 175 171 186 163 155 126  91  97 121 158 159 182 249 255 255 198   7  19  22  25  18  11  11  11  13  16  18  15  16  18  15  10   9   6  28  21   3   0   1
  19  22  19  19  20  13   1   1   1   2   2   1   1   1   1   0   1   3   2   2   0  76 238 230 239 241 245 244 140 113 123 127 140 114 145 155 160 146 158 146 169 158 157 188 191 188 190 171 185 164 155 168 151 172 180 172 147 116 136 118 133 162 163 192 250 255 255 255 142   0  24  23  22  20  12  12  13  15  19  19  18  15  17  15  12  10   8  33  30   6   0   0
  25  22  21  21  23  10   1   2   1   2   2   2   1   1   1   1   2   4   3   3   0  57 235 230 238 241 244 252 226 121 115 120 130 124 117 141 156 142 142 137 153 160 155 155 157 170 158 147 157 145 125 152 146 153 163 142 122 111 130 141 151 163 208 255 255 255 254 255  79   6  25  25  26  18  14  13  13  15  19  19  19  17  18  18  15  13   8  37  37  10   1   1
  27  25  25  27  24   5   2   2   3   3   3   2   1   1   2   1   2   5   3   4   0  36 226 231 235 242 244 247 254 215 117 118 120 133 117 132 149 150 119 122 130 102 144 115 126 132 132 127 143 120 110 141 130 143 155 123 134 150 155 156 176 228 255 255 255 255 255 239  31  18  25  28  27  19  15  16  17  20  21  22  20  20  20  21  17  16   9  38  40  11   1   1
  27  27  28  29  23   4   4   5   5   5   4   1   1   3   2   2   2   3   4   6   3  20 207 234 234 242 245 248 248 254 209 127 124 132 133 129 128 130 139 121 115 110 121 111 126 108  99 110 127 134 119 149 123 145 146 147 158 165 164 189 245 255 255 255 255 255 255 184   4  26  30  28  27  22  15  18  17  20  20  21  21  21  22  21  17  16  11  38  42  15   2   1
  26  28  30  31  18   2   3   6   5   7   3   1   3   2   2   2   3   4   6   7   7   8 179 239 233 241 246 247 247 250 254 202 133 138 143 139 129 126 139 137 130 124  98  99  90  98  88 105  95 112  95 135 143 146 154 160 166 161 166 244 255 254 254 255 255 255 255 115   3  29  30  26  29  25  19  19  20  22  21  23  20  21  23  21  16  17  12  36  38  15   3   1
  32  32  32  30  13   3   5   5   6   5   3   3   3   1   1   2   4   7  10   9   9  11 146 242 233 241 245 248 248 249 251 254 187 136 144 143 135 133 134 143 138 137 126 101  89  74  93  83 108 132 148 153 156 156 160 165 172 174 224 255 255 255 255 255 255 254 248  51  15  29  32  32  27  25  21  21  21  24  23  23  21  23  22  23  20  17  13  32  33  16   5   3
