P2
# Generated by OpenCV 4.2.0
92 112
255
  46  47  49  50  49  50  48  49  48  46  46  45  46  44  44  41  44  71 130 154 189 223 131 139 190 158 110  76  61  59  62  57  62  67  73  64  61  64  55  58  55  61  68  74  81  75  76  77  93  82  61  56  54  52  62  67  82  70  66  72  63  69  86  97 114 148 166 131 118  95  70  57  48  52  60  57  49  44  44  43  41  44  43  44  45  44  45  46  43  44  44  45
  48  48  49  50  50  49  49  49  49  48  48  46  48  48  46  44  49  85 132 152 179 131 137 163 124 114  92  73  79  88  68  48  40  39  41  41  41  39  45  46  46  51  47  47  50  43  49  47  55  63  58  45  57  60  48  43  72  78  61  53  66  85  94 115 115 132 164 148 116  94  72  65  54  47  50  55  54  48  48  48  44  45  45  46  45  47  46  45  45  45  46  46
  49  51  50  51  50  50  51  50  50  50  49  49  49  49  48  49  58  91 124 144  97  86 123  87  87 100  96  91  85  73  48  28  21  24  24  22  26  36  26  23  23  19  24  27  32  35  36  35  47  67  84  81  85  63  49  57  58  65  49  51  67  71  83 108 118 106 134 152 124 106  87  82  72  59  49  49  52  48  52  50  47  46  47  46  47  47  46  46  46  46  47  46
  50  50  51  50  51  51  51  51  52  50  49  50  51  49  50  52  62  94 115  85  55  69  72  88  98  78  53  59  54  36  19  19  30  24  17  11  17  27  10  11  14  20  27  26  38  51  56  66  74  91 101  94  79  62  75  82  47  35  43  53  74  66  72  87  97 105 111 123 128 109  96  90  80  65  59  56  56  53  52  50  49  48  48  48  49  48  48  48  47  48  48  49
  48  48  50  50  51  50  50  50  50  50  51  50  51  51  49  48  72  87  63  51  61  60  71  75  55  31  20  19  29  23  12  21  24  23  15  22  16   7  17  20  15  13  22  44  45  40  49  47  45  47  54  51  48  64  65  43  38  45  64  65  78  78  71  74  87 103 120 113 121 132 103  85  73  72  70  69  78  74  65  61  54  50  50  49  50  50  51  50  47  48  49  50
  49  49  50  48  49  49  51  51  50  51  50  50  50  48  48  54  67  49  63  59  51  54  53  44  35  26  19  15  18  13  23  34  35  33  31  30  17   8  17  22  23  29  36  36  35  39  41  38  38  47  51  56  60  54  31  29  41  56  55  90  96  74  69  87  97  88  89 103  94 110 104  90  81  84  74  58  66  63  55  54  55  52  52  52  51  51  50  51  50  50  50  50
  47  48  48  49  48  49  49  50  48  50  50  50  49  49  52  59  45  49  49  37  49  41  37  35  28  25  20  16  20  36  44  46  36  32  24  13   7   9  15  27  47  44  40  38  43  51  67  78  91 106 114 127 122 104  89  79  71  65  70  66  90  59  43  55  84  80  64  62  69  60  74  85  75  77  77  63  55  66  67  58  59  56  53  53  52  53  52  52  51  51  52  51
  46  48  49  50  49  49  49  50  48  50  49  50  49  50  58  52  42  47  37  38  39  30  34  26  22  22  22  42  40  49  44  30  26  29  19   8   9  12  21  27  29  51  75  78  80  78  84  88  81  77  81  89  95  82  78  69  74  64  87  67  59  56  37  31  37  70  61  48  60  58  46  64  73  54  58  64  59  52  69  72  68  60  57  55  53  53  52  53  54  53  52  52
  48  48  47  48  51  51  49  49  51  50  50  50  50  53  53  38  41  39  31  37  25  22  26  21  17  28  47  53  36  35  35  26  23  18  10   6   9  11  16  35  51  63  55  52  55  53  58  53  42  51  62  53  38  38  47  42  46  62  61  33  42  41  68  71  43  30  39  45  52  65  50  41  41  43  46  55  59  55  50  58  59  59  57  56  56  55  53  55  54  53  54  54
  47  50  50  49  51  49  49  49  53  50  49  49  50  51  44  39  34  28  35  28  18  17  19  17  31  54  52  31  28  25  25  26  22  13  13  10   8  21  34  35  34  32  43  56  48  43  41  52  67  71  54  36  25  25  24  16  23  33  27  24  28  25  33  49  63  48  50  36  34  49  55  52  49  48  41  46  55  58  57  53  57  58  56  55  56  57  54  53  53  53  54  54
  48  50  50  50  49  50  49  49  48  48  49  48  51  48  39  36  30  31  37  20  15  17  17  35  47  37  20  30  35  26  18  17  14  21  23  14  16  14   8  16  35  48  53  37  33  46  48  42  34  33  33  32  25  17  18  22  25  30  34  24  28  46  43  20  22  38  53  40  33  32  42  47  56  53  35  34  41  50  51  55  58  55  56  55  55  54  53  55  53  53  54  54
  49  50  50  50  50  49  51  49  50  48  50  54  53  33  25  30  25  39  29  14  21  19  34  44  28  17  18  28  21  16  19  20  21  28  23  16  19  22  34  42  38  32  21  36  49  38  20  14  20  13  14  22  25  21  17  19  29  34  23  15  29  40  31  25  23  25  27  31  37  34  32  37  34  46  42  38  34  46  48  47  52  56  56  54  54  55  52  53  55  52  54  53
  49  51  51  50  49  49  50  50  50  49  52  56  39  22  30  25  27  36  18  16  18  23  40  25  13  11  15  20  17  17  25  32  33  27  28  33  39  44  39  22  20  29  35  42  25  15  14  14  10  12  16  15  17  18  22  25  23  26  19  15  25  27  22  28  25  37  27  21  24  30  33  35  34  27  35  38  39  43  43  44  45  56  57  56  53  55  52  51  52  52  51  53
  50  51  52  53  52  50  51  52  51  51  53  41  23  35  30  20  28  26  14  16  18  29  24  11   9  13  22  20  16  27  34  33  35  34  46  34  22  20  16  20  31  36  28  20  25  24  12   7   4   7   7  10  14  20  31  34  23  25  20  17  28  31  33  39  29  29  29  24  28  23  23  31  40  31  25  36  38  40  42  43  46  55  59  56  53  51  51  51  52  52  52  52
  50  54  54  53  53  53  52  53  53  54  45  25  27  37  25  24  32  22  13  14  26  29  16  10  11  22  25  16  27  34  30  40  39  49  33  16  18  25  26  37  43  32  29  31  17   9   6  12  11   9  20  21  21  22  27  29  19  17  20  21  26  26  35  31  23  19  23  18  26  22  19  25  35  38  28  29  39  40  48  42  41  49  60  60  53  51  52  51  52  52  51  51
  53  55  54  54  54  55  53  54  57  47  35  22  36  34  28  32  32  19  17  23  37  21  16  12  17  25  23  26  37  28  36  44  46  31  22  38  37  24  27  48  38  34  41  22   6  11  17  20  19  16  20  21  23  22  22  18  12   9  19  19  19  20  20  17  18  20  24  20  16  22  21  23  27  35  36  31  39  40  47  46  35  42  57  61  56  51  50  51  52  53  50  51
  55  54  53  54  54  53  53  54  54  48  28  24  38  30  37  34  20  14  15  25  23  13  18  20  24  33  30  29  25  28  42  41  38  32  45  52  33  19  39  41  39  39  28  11   8  14  14  14  21  28  26  34  44  27  15  17  20  16  12  17  18  11  13  14  17  17  18  22  17  22  31  29  31  27  32  31  44  44  41  54  44  35  51  56  58  55  52  52  53  52  52  53
  53  54  54  55  54  54  53  54  56  42  19  35  35  35  36  23  16  11  13  26  16  19  21  24  29  40  33  21  21  40  42  43  39  39  44  38  25  34  40  43  42  28  19  15  14  13  15  21  34  34  27  38  62  41  34  46  44  32  23  23  16  20  20  16  13  13  16  17  19  23  24  38  34  31  24  25  33  49  38  51  54  38  41  53  57  57  53  51  52  52  53  53
  52  54  55  54  54  54  56  55  52  31  27  39  35  38  29  11  15  10  16  28  22  34  22  24  31  35  21  19  38  43  46  42  38  39  39  28  22  37  29  40  43  22   7  12  21  18  15  28  30  26  27  41  33  39  46  56  45  43  38  19  26  29  22  14  14  15  16  15  17  18  17  35  33  31  25  21  18  38  40  37  49  47  37  48  57  56  53  52  53  53  52  54
  54  54  54  55  54  54  55  54  45  25  31  40  33  27  23  16  20  23  23  27  30  39  26  29  32  21  11  33  46  44  42  36  40  39  34  19  31  34  34  43  28   9   9  19  23  20  24  35  38  30  44  50  37  44  57  74  60  51  42  48  39  32  25  20  18  15  14  17  18  19  19  21  32  32  40  29  18  18  33  33  43  44  34  45  58  56  56  54  56  55  54  54
  55  53  54  54  52  53  55  53  37  24  27  35  22  25  31  16  30  26  24  33  31  33  36  27  23  13  27  42  46  41  34  40  45  34  17  25  30  38  39  28  13  12  20  24  24  22  27  30  30  35  47  45  45  49  61  59  54  59  71  64  47  43  39  36  32  23  19  19  20  17  18  21  22  31  39  40  21  13  20  30  35  42  36  34  52  55  56  56  55  55  56  54
  53  53  51  54  54  53  54  46  33  28  29  24  27  45  27  25  41  28  32  35  28  29  22  23  14  21  37  45  39  30  36  44  38  23  26  33  33  38  31  19  18  22  37  34  28  25  30  36  34  66  63  57  52  68  56  46  58  81  86  78  73  68  57  56  47  34  28  24  21  19  15  20  24  31  38  40  28  16  17  21  25  35  37  24  43  57  56  58  55  55  56  56
  53  53  53  51  53  53  50  42  35  25  26  19  41  32  22  46  46  39  44  35  22  26  24  20  17  29  34  40  32  28  40  41  30  35  34  33  38  33  33  25  32  33  56  39  36  43  46  47  61  65  60  65  71  64  65  91  96 109 106 105  97  89  88  83  68  54  46  32  21  20  15  15  20  31  40  39  35  25  18  20  25  24  33  26  35  57  56  56  56  55  56  56
  50  51  52  51  50  52  47  46  31  20  15  21  38  29  31  42  45  49  40  29  18  28  29  18  25  28  30  47  31  38  43  41  39  38  38  45  38  52  48  46  41  56  65  59  62  78  81  68  68  57  56  62  65  76 117 137 129 115 124 130 129 121 111 100  89  82  79  63  34  15  13  11  14  24  33  35  37  32  31  26  24  20  25  28  31  53  57  58  58  61  58  56
  49  51  51  50  52  52  49  44  20  13  11  24  30  32  33  30  35  37  31  27  20  41  31  20  27  24  47  49  38  42  54  54  41  43  58  48  52  74  67  74  66  85  85  93  95 105  93  82  71  75  95  99  99 113 141 148 147 154 154 149 151 146 136 128 122 123 124 114  83  35  21  17  13  15  23  23  37  36  38  34  24  20  20  24  24  48  58  58  57  59  58  57
  49  53  55  52  54  53  53  27  10   8  13  24  21  18  24  26  29  21  29  23  30  43  23  14  25  29  58  43  39  52  70  52  60  51  56  44  72  92  83  85  77 100 107 103 116 100  82  79  90 111 115 132 139 156 159 151 155 164 162 163 161 158 160 163 158 150 148 144 129  85  39  34  22  13  15  14  20  37  43  38  35  21  17  21  17  43  57  60  58  57  56  55
  50  51  50  51  51  53  48  14   6   7  16  19  13  13  21  22  17  22  29  29  37  36  13  19  25  28  43  40  43  74  76  62  76  52  47  57  90 105  95  99  94 114 106  88 107  75  93 118 115 129 150 163 167 179 176 175 168 162 165 165 175 169 167 161 162 164 162 161 154 125  75  53  49  24  17  14  12  24  41  44  37  27  14  17  18  36  54  56  56  57  56  55
  50  50  50  51  50  54  41   8   4  12  18  10   9  17  21  13  11  15  28  32  22  15  12  22  28  31  40  34  58  86  67  78  71  58  56  75  95 114  90 105 111 123 108  70 108 103 119 128 133 158 166 167 174 179 182 180 177 174 174 168 173 172 172 174 176 176 172 175 171 146 109  70  67  52  28  14  10  12  23  37  37  34  21  16  18  32  53  55  56  54  56  56
  49  50  50  51  49  50  23   3   6  16  10   4  10  21  15   8  12  13  23  22  10   9  19  23  43  30  36  34  79  82  68  88  70  61  73  96 119 125  92 126 131 125 108  90 135 143 134 154 157 161 164 171 177 177 176 186 184 182 175 176 180 181 182 179 180 181 180 179 173 165 135  90  69  72  42  17  10   7   7  19  24  31  29  19  18  29  52  54  54  54  55  56
  51  51  51  51  52  46  13   5   9   9   3   6  14  16   7   9  14  15  18  15   8  15  23  30  54  23  31  45  81  69  79  96  83  70  86 113 135 106 111 138 140 119 111 128 165 144 137 162 154 159 176 179 177 180 187 190 187 188 189 193 192 186 184 183 182 180 182 179 175 173 160 118  75  73  53  22  11   7   4   7  13  17  27  20  15  26  49  54  53  53  54  54
  52  51  50  51  54  41  10   5   9   5   3   6  11   6   4  14  14  13  10   9   8  24  29  39  49  21  34  58  79  62  97 105  73  95 100 111 144  87 126 135 148 127 116 138 160 143 136 151 144 158 175 176 174 174 176 179 180 184 184 186 188 187 183 185 183 181 180 177 172 174 170 145 100  68  63  30  12   7   3   2   8   8  12  15  14  19  45  57  54  53  53  54
  52  52  51  52  56  37   5   6   7   2   5   6   4   3   6  13  10   8   8   6  11  38  32  48  45  23  49  77  66  66 118 105  66 122 107 122 125  92 133 122 145 129 107 144 163 148 136 154 157 170 175 173 176 179 179 184 189 195 194 192 191 188 187 185 185 183 177 175 174 173 173 164 129  83  62  39  16   5   3   3   4   6   7  11  13  20  37  56  52  53  53  53
  50  51  52  51  55  35   5   6   5   3   3   3   3   4   6   7   6   4   8   7  19  51  38  61  33  17  63  83  52  80 139  90  87 142 112 133 102 111 138 129 144 121 121 155 166 135 139 159 164 175 181 177 173 184 187 184 187 195 193 187 194 192 187 183 180 177 177 177 173 172 175 173 152 107  60  39  20   6   4   3   3   4   6   8  13  15  29  50  53  53  52  53
  51  51  51  52  54  36   6   4   4   3   2   3   3   4   5   5   4   4   8  12  32  76  50  67  29  27  62  79  50 116 153  69 119 139 119 133  92 156 140 139 147 139 142 160 157 120 154 162 163 171 174 175 174 180 183 185 180 183 189 184 189 189 186 179 179 183 181 182 177 174 173 173 162 134  73  39  26  10   5   4   4   4   5   5   7  19  35  51  57  54  54  52
  49  50  50  53  52  27   4   4   3   4   3   3   3   4   4   3   2   3   9  18  50  82  58  69  37  66  59  55  80 152 136  78 146 149 114 116 130 178 130 145 150 153 135 155 124 133 160 167 159 165 173 176 174 173 176 178 172 173 175 175 174 175 174 173 175 176 175 176 178 179 177 179 171 147 102  42  25  22  11   4   4   5   3   4   5  14  32  55  60  63  56  52
  49  49  49  50  50  20   2   3   3   3   2   2   3   3   3   2   3  10  15  28  61  67  75  75  62  86  53  49 131 160  83 111 118 106 106 146 153 172 133 154 163 150 145 125 129 167 171 156 163 172 176 178 179 178 181 178 176 183 182 176 174 178 176 176 176 170 173 168 172 176 171 175 172 155 128  79  28  29  30   9   6   5   7   6   6  13  23  42  56  59  60  57
  49  49  49  50  46  11   2   3   3   3   3   2   2   3   2   4   9  14  21  45  71  83  86  91 102  92  47  65 161 118 112 131  96 115 155 149 155 142 140 153 151 121 113 132 162 163 152 151 161 166 166 169 177 177 180 174 172 176 175 173 174 174 177 173 173 173 174 173 174 169 173 168 165 155 143 139  88  40  40  27   9   6   7   8   6   9  12  28  51  55  53  57
  48  49  47  49  41   6   2   3   3   3   2   2   3   3   5   8  13  18  41  66  97 112 111 111 109  98  49  95 118 114 162 128 122 152 143 141 159 137 141 135 120 121 145 158 154 153 150 155 164 167 166 161 161 165 164 165 165 168 170 167 171 170 171 173 173 169 164 172 175 172 171 168 165 153 139 151 143  98  51  36  21  13   9   8  10  11  10  19  47  58  58  56
  48  47  47  49  35   2   2   3   3   3   2   2   3   6   7  12  20  41  62  90 112 117 126 119 103  96  72 118 134 160 145 141 161 170 152 156 149 146 158 154 156 165 167 168 166 165 162 159 165 168 167 165 168 172 171 171 172 175 173 169 171 169 170 177 177 167 163 169 172 167 168 167 162 156 141 144 148 142 102  56  37  24  12   7   8   8   9  18  42  56  56  55
  47  47  46  48  32   2   2   3   3   3   3   2   5   7  10  15  33  61  95 117 111 114 123 123  93  81 111 149 160 166 167 171 167 162 157 154 155 166 167 173 175 175 172 171 168 170 167 163 165 169 162 162 166 170 171 171 172 173 176 179 175 170 164 171 176 162 167 170 166 167 169 166 159 155 148 144 144 148 137  93  45  29  21  10   7   5   8  20  46  54  54  54
  47  47  46  48  32   1   2   3   3   2   1   5   8   8  12  20  41  82 115 122 116 114 121 117  90 108 152 163 160 166 168 168 166 162 162 168 170 163 164 170 174 172 172 174 173 170 170 164 167 170 165 159 162 167 170 170 173 175 171 172 175 173 169 168 170 170 177 172 163 159 168 169 164 154 149 145 142 149 145 128  72  26  20  16  10   5   5  20  53  53  54  54
  46  46  45  48  26   1   3   3   3   3   3   6   6  10  19  30  53  94 116 122 119 113 123 119 106 128 155 156 157 155 166 171 165 165 166 168 167 167 169 178 178 175 180 179 174 174 175 168 174 170 171 165 168 172 171 171 173 172 173 185 187 184 181 172 172 173 173 171 163 161 172 178 175 163 147 144 141 146 136 136 108  38  14  15  12   7   3  16  46  54  54  55
  47  45  46  47  20   0   2   3   3   3   3   5   9  14  25  36  66  95 112 120 125 114 128 120 109 129 145 151 163 154 161 155 159 170 170 175 179 179 182 185 187 186 185 184 181 180 182 177 172 174 175 175 179 179 173 179 180 184 188 193 193 187 185 178 179 180 178 181 176 171 167 171 176 176 155 141 140 137 130 135 128  50  10  12  10   9   3  13  43  53  53  54
  47  46  46  47  17   0   2   3   3   3   3   5  10  16  23  37  75  99 111 118 128 123 124 115 107 119 132 155 143 131 133 141 137 147 163 173 177 183 181 177 181 180 174 180 182 174 178 182 176 176 171 171 171 179 172 180 181 186 194 191 191 188 180 177 179 178 183 185 184 175 170 165 168 170 160 140 136 135 128 132 132  67  10  11   9   8   3   8  42  53  53  53
  43  46  47  46  15   0   3   3   3   3   3   7  10  13  23  47  75  97 109 119 126 127 121 115  98  98 127 137 120 115 117 125 118 109 126 133 139 130 135 142 143 154 156 164 174 166 168 171 177 176 167 168 166 170 166 168 176 179 182 182 180 178 174 160 151 157 166 170 164 159 145 129 123 145 152 139 131 128 129 127 126  83  19  12   9   8   7   4  33  53  52  52
  45  44  45  45  12   0   2   2   2   2   3   5   9  16  35  49  74  98 102 114 120 121 120 119 102  94 114 123 118 121 131 141 142 139 133 136 129 113 103 117 113 106 125 132 136 150 156 158 169 171 165 170 169 165 156 160 170 164 163 166 163 155 138 113 112 118 126 120 116 127 127 125 123 124 131 136 130 122 133 123 121  87  23  19  10   7   8   3  23  51  51  51
  46  44  45  43  12   0   1   4   5   2   3   5   8  26  38  52  75  97 101 108 118 120 115 120 110  97 103 123 131 138 149 155 154 160 163 159 146 133 122 114 114 109 113 118 122 134 141 150 158 162 166 168 166 166 152 146 152 141 140 143 134 119  99  94 103  97 108 114 125 136 136 138 132 122 117 123 130 121 130 123 122  79  24  22  12   5   4   3  24  49  52  51
  45  42  45  45  13   0   4   7   3   3   3   4  11  30  37  49  72  98 101 107 114 125 112 111 114 106  92 116 138 141 150 154 158 160 174 173 172 162 152 140 123 103  99 107 112 115 131 144 148 153 166 163 165 166 157 139 129 127 121 118 107  98  97 103 112 127 143 160 176 175 168 155 143 132 126 118 128 122 130 119 120  73  22  24  12   4   3   1  24  47  51  51
  45  44  44  44  13   1   5   6   2   2   3   7  17  25  29  45  76  94 105 112 102 120 120 101 123 114  94 104 127 126 137 147 154 160 166 167 174 178 172 166 150 124  94  79  80  97 114 127 135 153 167 169 173 174 165 154 128 107  96  83  73  81 100 121 134 155 175 184 183 177 160 150 138 132 133 121 122 122 123 116 120  68  20  22   9   5   3   1  17  46  52  51
  44  44  44  40   7   2   6   5   2   1   8  10  13  21  29  50  67  88 104 115 105 103 127 104 130 127 123 122 121 120 126 135 145 151 157 161 164 171 174 175 164 157 141 117  82  67  74  94 113 147 165 162 170 172 169 154 114  85  72  81 100 128 147 159 168 178 179 177 177 170 156 146 131 127 128 116 109 120 124 125 122  64  27  23   8   4   2   0  10  43  53  52
  45  45  45  39   7   6   8   5   2   4  11   7   9  15  33  46  64  89  99 111 119 104 115 121 115 131 124 140 138 143 144 144 142 147 154 146 128 125 129 105  85  89 102 126 132 101  66  58  89 140 162 168 174 175 166 155 115  92 111 129 139 135 128 132 148 168 181 188 178 171 155 153 147 143 126 106 112 116 127 133 119  63  28  22   8   2   1   1   3  35  52  51
  45  47  46  43  10   7  13   4   1   7   9   4   8  13  33  57  69  80 100  98 119 129 103 127 139 121 105 126 130 137 136 135 114  68  39  26   7   5   5  10  20  27  23  47  88 117 101  69  94 138 155 163 165 170 163 149 114  96 108 107  78  44  31  30  36  55  81  98 121 143 155 158 144 133 130 126 123 120 133 129 112  51  28  20   7   1   1   3   1  25  52  50
  45  47  46  44  12   6  16   7   3   8  10   6   5  12  30  56  72  80  96  91 101 124 128 109 123 140 104 108 132 100  85  48  44  54  75  67  62  34  37  54 100 122  68  59  76  96  88  92 107 137 156 164 167 169 160 143 113  82  79 102  82  63  70 103  54   5   0   0   0  14  43  95 132 125 133 126 127 139 128 119 107  41  25  20   5   3   3   3   3  27  51  50
  47  45  45  44  16  10  68  27   0  10   9   6   7  12  30  57  66  84  89  85  90  98 132 141 130 114 102  84  90  85 102 128 139 147 160 159 151 137 143 132 127 136 129 113 112 137 116  94 108 139 154 164 168 167 150 139 121 117 121 116 127 122 144 174 152 100  79  65  71  71  41  12  73 123 131 124 140 130 117 136 107  33  25  18   6   4   3   2   9  40  52  52
  48  46  45  47  30  14 116  74   2  12   8   8   4  10  29  58  59  74  90  92 104  87  92 118 143 137 107  75  83 102  97 129 154 159 154 150 148 152 155 152 139 138 142 154 162 148 125 101 115 140 155 163 170 165 149 128 123 145 131 134 141 139 139 134 133 139 144 153 150 137 130  98  83  75 101 118 129 134 139 133 109  41  29  16   5   9  10   4   9  45  53  50
  47  47  47  47  45  21  83 116  23  15  12  13  12  20  31  63  53  81  98  93 107 108 115 143 166 165 155 154 162 148 129 121 138 158 165 158 158 162 165 168 165 161 157 158 167 148 110 107 115 133 153 165 165 156 140 125 123 130 144 161 156 152 145 141 137 140 146 149 143 134 144 150 131 107  97 118 141 145 121 111 108  45  35  16   3  20  37   9   8  44  53  50
  48  47  48  47  47  37  40 125  70  29  14  15  14  16  26  53  54  76  97  84 100 119 118 140 138 132 152 162 156 150 145 146 140 127 145 159 167 165 161 156 148 142 142 144 152 134 109 107 112 135 158 161 165 158 137 123 130 131 140 147 148 149 145 146 151 160 165 157 144 152 161 139 124 142 160 161 155 149 134 122 107  42  34  16   3  26  54  15  12  46  51  51
  47  47  46  47  46  45  35 108 125  80  33  17  15  13  35  49  46  79  98  83  93 100 114 130 119 142 150 148 138 147 160 167 171 161 138 120 111 102 105 114 126 130 148 167 152 132 119 106 114 141 158 164 168 169 145 130 136 131 145 149 143 137 137 141 139 139 141 142 152 157 141 131 149 162 159 156 158 158 147 127 110  43  36  20   2  20  55  18  17  50  52  51
  48  48  47  47  47  47  39  87 140 123  85  38  25  20  38  47  48  74  94  89  90  96 121 116 138 147 140 127 136 147 154 160 160 166 171 162 163 158 156 157 159 169 178 177 136 119 122 104 110 137 154 165 171 166 151 131 133 140 146 149 155 151 145 136 126 119 113 118 129 135 158 176 178 163 155 148 152 153 150 125 103  44  30  18   4  22  58  23  30  50  51  50
  49  49  47  47  47  48  40  72 137 133 112  81  49  39  31  34  41  63  93  85  84 107 108 117 143 146 124 133 147 155 168 172 173 175 175 175 176 173 177 179 175 181 180 164 127 116 112 103 111 130 151 166 170 164 153 136 130 144 146 148 151 165 176 173 175 164 166 165 173 182 183 170 172 167 158 148 142 148 143 134 102  43  25  18  10  25  53  31  43  50  51  51
  48  48  48  46  48  47  41  69 129 142 116  96  82  89  32  28  35  64  90  81  86 101 100 126 143 130 121 140 156 162 170 178 181 179 182 179 177 174 174 177 176 174 168 150 135 130 118 113 116 130 152 164 171 168 158 148 138 142 152 152 154 162 167 166 173 178 181 179 177 176 179 179 176 171 166 157 139 136 143 133 109  37  21  20  25  43  44  41  47  51  50  52
  48  49  48  47  47  46  43  68 119 140 122  92  95 141  74  20  35  59  80  83  86  91 104 137 131 109 131 150 152 163 178 185 184 184 183 181 180 178 178 181 183 167 161 156 141 128 119 118 119 134 158 168 173 170 163 155 149 142 151 149 150 162 172 171 171 175 174 173 171 176 178 181 181 173 167 160 148 135 144 139 106  40  26  53  80  69  43  47  47  50  50  51
  47  47  48  47  47  45  41  66 128 136 139 102  89 127 121  56  28  49  72  80  85  86 108 137 111 105 131 152 154 166 177 183 180 183 186 184 181 181 182 186 182 170 159 145 124 115 117 113 119 142 159 168 171 173 166 161 156 144 141 142 138 154 168 178 181 181 178 174 175 178 177 184 185 175 166 160 149 137 141 139  98  38  45 117 139  68  44  48  47  49  50  51
  48  48  48  47  46  48  43  63 134 121 144 123  94 105 132 117  48  49  64  78  84  85 105 117  95 115 137 149 159 169 176 181 181 189 191 182 182 179 176 174 174 167 147 131 126 117 118 110 130 142 159 172 176 176 172 169 162 151 136 137 142 148 156 168 174 176 175 176 179 179 182 190 191 183 171 162 151 137 123 131  99  34  73 151 129  54  46  49  48  51  51  52
  48  48  48  47  47  47  44  62 131 126 127 134 122 109 126 136  77  59  67  79  82  83 107 101 101 125 132 142 159 162 175 183 185 189 190 185 178 170 170 166 168 161 137 138 136 131 118 116 137 141 163 175 181 177 177 174 161 152 138 132 143 150 154 161 164 169 173 171 173 175 180 184 191 189 175 163 155 136 118 124  95  48 102 157 115  45  47  48  49  50  51  51
  47  48  48  48  46  46  43  55 123 139 125 133 144 119 113 136  89  70  74  75  81  85 102  95 105 121 125 140 154 154 175 183 181 180 183 178 171 162 155 145 153 150 121 138 143 132 116 116 137 144 169 187 187 194 196 175 160 151 137 138 144 147 148 160 156 156 162 164 170 174 178 184 188 183 174 165 159 136 120 117  84  93 145 155 104  42  47  50  50  50  51  52
  48  47  49  47  47  46  45  48 115 139 130 142 158 132 100 130  94  69  75  80  79  84  87  93 112 121 126 141 152 163 172 174 175 178 176 171 163 151 129 137 152 118 113 136 141 126 121 118 132 148 174 181 180 196 194 167 157 147 136 136 137 145 138 156 149 133 139 153 162 168 172 177 180 180 173 166 157 142 119 107  98 140 155 150  92  42  49  48  48  49  50  50
  48  47  49  48  48  48  46  43 104 143 140 140 155 154 120 126  89  71  79  80  80  80  83  96 118 122 128 139 150 164 170 173 173 172 166 162 146 118 132 164 140  99 103 121 131 119 110 109 124 152 169 168 169 176 176 166 153 131 127 125 129 134 129 148 161 149 109 103 139 155 160 165 172 175 170 166 155 144 121 104 101 143 152 156  92  43  49  48  49  50  50  50
  49  48  47  48  48  48  46  41  92 149 146 133 139 150 134 121  91  78  73  79  86  81  75 100 115 114 125 136 148 160 161 166 167 159 154 127 107 125 165 166 136 114  93  88  96  91  90  90  98 133 157 153 153 157 163 155 126 108  88  79  99 104 124 150 159 168 162 113  87 118 141 157 165 166 167 162 155 140 117 104 106 145 153 156  87  41  47  47  49  49  50  52
  49  50  48  48  50  48  47  41  79 148 154 144 137 144 130 117  94  75  74  85  91  91  89 103 109 109 120 140 148 156 160 160 157 147 113  85 130 159 168 159 135 127 116  65  25  16  22  41  65  84 119 138 136 131 128 112  88  45  23  17  40  94 138 142 150 161 168 170 134  80 103 142 152 159 166 160 157 138 112 105 107 148 154 152  78  41  47  47  49  50  50  51
  49  51  51  50  51  50  49  43  69 143 153 155 142 140 134 114  88  76  75  85  91 100  95 106 105 103 120 136 150 156 160 157 139 101  98 139 162 158 158 152 130 114 118 102  60  45  38  26  25  47  78 107 118 103  78  84  79  88 100  91  96 129 136 137 137 152 161 161 172 143  78  89 137 153 159 154 150 138 113 107 101 143 164 153  74  44  47  48  49  50  50  50
  51  50  51  50  51  50  49  45  57 131 152 150 148 145 133 115  79  75  79  86  95 103  94 112  98  99 124 135 147 153 153 133  93 105 131 151 147 147 147 134 131 119 106 102 103  90  80  76  64  44  43  64  81  78  88 103 105  96  99 111 126 131 122 123 133 139 148 153 154 162 144  71  88 137 149 151 145 134 109 110 100 137 170 157  74  42  48  49  49  50  51  51
  52  52  51  52  50  53  50  48  48 114 158 152 142 139 134 112  71  74  86  87  97 101  95 110  96  99 121 138 148 145 129  91  98 131 154 135 140 129 123 124 127 125  98  93  91  92  85  71  57  58  45  33  45  80 108  96 111 104 107 114 105 123 117 111 133 136 140 148 149 145 158 137  67 104 141 149 142 129 111 110  99 142 174 156  75  42  48  49  50  50  50  51
  53  54  53  52  54  54  52  50  45  86 149 144 137 140 145 121  72  76  90  86  97  96  98 106  90  95 118 141 140 135 111  90 129 146 139 128 136 122 115 127 114 113  94  89  82  83  93  90  59  58  75  72  97 108  95  93 118 114 113 106 103 121 127 121 132 137 131 133 132 136 145 158 110  71 130 147 146 124 110 111  98 143 170 158  75  43  49  50  50  50  50  51
  54  55  54  54  54  54  52  52  49  55 115 139 145 150 156 132  77  76  83  88  95  94 102 105  92  90 115 135 140 139 116 125 138 150 137 120 124 119 126 123 123 127 116 104  96 101 103 106 111 109 121 145 150 141 128 105 119 125 107 107 108 120 137 135 126 127 131 136 128 135 144 137 124  73 123 148 142 119 111 114  88 138 171 155  72  44  49  50  50  50  52  50
  56  54  55  54  53  54  54  53  52  47  67 119 137 139 147 129  75  72  79  89  98  91 117 118  96  89 108 133 142 149 113 133 139 139 137 120 118 109 122 130 124 131 134 125 126 143 139 144 154 147 150 161 149 166 161 144 144 135 127 135 139 131 131 136 141 133 137 127 123 123 131 123 111  93 132 153 143 120 114 115  91 132 173 155  63  45  49  49  49  51  52  51
  54  55  56  53  54  54  52  53  53  51  45  65  97 104 104 105  74  76  77  89  99  90 112 117  90  85 110 137 147 161 114 113 133 136 121 118 113 118 121 125 123 126 133 142 135 133 141 145 155 160 165 159 152 173 170 162 155 152 141 146 142 135 131 140 138 129 123 115 111 107 108 131 117  95 151 152 139 120 121 118  96 131 163 144  57  45  47  49  49  49  51  50
  56  56  55  55  54  55  55  54  54  52  52  41  27  31  23  50  72  66  73  89  93  96 109 119  90  77 101 132 154 170 136  99 128 137 107  82  68  72  60  52  52  51  50  67  74  93 117 122 129 147 157 163 176 184 177 158 144 136 128 118 111 104  99  87  84  86  83  74  86 116 127 138 119 131 162 152 132 114 124 118  96 137 159 128  50  47  48  50  51  51  51  51
  57  56  56  56  55  55  55  54  54  53  53  48  14   0   1  26  70  64  71  85  91 100 115 125  94  75  97 125 147 162 158 126 124 131 128 108  80  20   0   1   7   7  42  33  83  90  52  95  93  86  96 104 113 114 113 107  98  97  75  90  77  25   6   1   3  18  41  79 118 138 126 129 116 161 163 150 120 109 129 119  99 127 147  97  45  48  49  49  51  52  51  50
  57  56  56  56  56  56  55  54  52  53  53  52  28   4   7  17  66  68  66  79  87  94 110 131  96  80  95 115 130 154 172 165 155 145 146 149 174 144  54   0  14  51 144 142 175 212 122 179 156 140 181 164 110 126 178 159 128 172 141 188 177 137  58  11   1  61 122 153 141 136 131 144 155 167 157 141 114 112 121 112  95  93  87  58  48  49  49  49  50  51  50  50
  56  56  56  56  55  55  56  54  54  55  54  54  37   7   9  17  53  68  67  74  84  88 109 122 107  81  80  94 116 143 163 176 161 141 135 146 166 172 171  90  65 108 151 178 182 234 189 189 211 206 249 250 201 219 255 233 203 210 193 211 192 209 183  75  65 154 180 155 141 137 127 152 181 165 148 124 109 115 123 112  87  60  47  48  50  49  49  50  51  51  52  52
  58  55  55  56  56  57  55  54  55  56  54  53  48  22   7  18  44  64  68  73  81  83 101 117 125  83  68  80 106 131 145 161 147 141 151 155 168 169 173 171 145 110 129 154 167 220 176 178 213 207 235 236 218 223 242 223 208 201 191 194 179 167 128 125 165 171 163 156 159 123 127 165 171 156 139 104 117 137 125 108  96  60  46  48  48  49  49  49  51  52  52  52
  55  57  57  56  57  55  55  57  55  53  55  53  53  39  12  17  34  64  72  69  76  77  89 113 123  98  78  80 102 119 137 148 156 132 136 146 156 171 169 166 170 155 140 129 140 179  72 116 131 133 201 199 180 178 196 185 157 169 132 153 147 142 149 166 166 162 160 159 140 129 149 170 155 145 123 110 134 143 124 107  94  63  46  49  50  49  50  49  51  51  51  52
  57  56  58  58  56  55  54  56  55  54  54  53  51  43  28  29  29  69  72  65  65  69  88 106 125 125  90  64  95 113 143 147 156 141 139 144 147 163 165 159 165 164 157 155 155 147 135 136 132 130 141 138 133 147 146 145 147 144 134 145 149 156 159 158 157 158 159 150 126 135 148 162 160 149 111 124 147 141 118  94  90  67  45  49  49  50  50  51  53  51  52  52
  57  56  56  57  56  56  55  55  54  55  54  53  53  50  41  35  22  59  72  70  59  64  76  89 119 141 115  73  86 105 144 149 143 147 149 135 143 160 160 154 155 154 158 161 162 158 161 164 169 177 170 170 168 174 178 172 170 156 157 160 160 147 154 157 156 164 155 141 127 145 154 157 148 131 112 143 140 128 109  89  87  72  47  50  49  49  50  51  52  52  51  51
  55  56  56  55  57  57  56  55  55  54  53  53  55  52  48  35  25  50  65  65  57  56  70  83 104 127 124  89  67  82 124 144 132 147 158 145 141 149 158 154 149 140 146 160 161 161 158 169 169 168 173 177 179 177 185 178 169 166 161 158 152 145 149 157 160 159 149 133 145 156 163 143 124 120 125 150 126 119  97  84  89  71  47  49  50  50  50  52  51  52  52  50
  54  57  56  56  56  56  56  55  55  55  55  54  55  55  51  34  32  47  74  66  55  57  58  65  87 120 121  95  78  68  92 134 128 143 145 158 157 145 146 150 140 132 138 147 153 150 161 170 161 164 178 177 177 171 173 177 171 165 157 153 150 144 147 155 151 152 140 144 147 144 154 141 122 117 136 135 120 116  92  95  95  61  47  49  49  50  51  53  51  52  51  51
  55  55  55  56  57  56  56  55  55  55  55  54  54  52  44  39  33  35  77  65  56  56  52  55  80 108 121 118  93  75  71 106 126 148 149 155 158 139 133 147 143 132 135 137 132 141 153 164 160 156 163 162 159 159 154 156 159 149 155 140 137 137 142 143 146 146 151 158 138 153 150 132 111 119 141 134 116 102  88  92  96  66  46  50  51  51  51  51  52  50  51  52
  54  55  55  57  57  56  56  55  55  54  56  55  54  49  45  44  33  33  75  87  70  55  55  55  64  78 105 130 108  87  67  78 116 123 145 151 156 154 147 140 139 131 131 124 128 141 138 143 142 152 155 146 143 145 143 148 141 128 146 132 124 128 136 142 145 144 164 161 136 147 134 111 105 128 129 125 112  90  85 100  91  61  46  49  51  51  50  52  52  50  51  51
  54  55  55  55  56  56  55  55  54  55  55  54  53  50  52  47  34  32  60  84  74  63  59  57  57  72 104 121 113 119  88  62  95 114 136 150 169 154 147 137 141 146 142 132 127 118 129 139 146 154 142 134 140 152 141 148 132 118 128 139 128 127 138 147 147 147 154 154 152 139 115 108 116 128 123 121 107  74  83 100  88  58  47  49  50  50  51  51  50  51  50  51
  54  55  54  54  55  55  55  54  55  54  54  54  53  53  53  49  40  35  48  73  74  64  59  67  62  61  82 103 119 130  82  62  94 111 128 152 162 159 144 133 140 146 149 145 138 133 135 135 147 139 130 149 157 156 133 139 144 132 129 136 145 142 151 146 153 147 135 148 147 124 102  90 124 130 131 111  97  91 100 109  90  47  48  49  49  49  50  51  50  51  51  51
  54  55  54  54  55  55  55  54  54  54  54  53  54  53  53  52  50  43  43  71  76  75  65  64  67  56  65  97 132 123  88  70  76  86 111 129 142 143 144 138 144 143 155 152 148 152 151 146 152 144 145 157 151 148 147 143 145 152 148 150 152 151 150 154 160 150 128 142 148 132  93  96 128 133 120  95  83 101 103 105  74  46  49  47  49  50  51  51  51  52  52  51
  54  53  55  55  54  55  55  54  53  55  54  54  53  55  54  53  53  51  45  65  83  82  78  70  67  70  57  75 106 112 111  92  72  75  90 117 136 144 144 152 155 153 162 161 153 163 154 143 142 137 123 136 145 146 146 154 151 160 162 156 153 157 151 155 154 138 141 143 138 107  86 100 112 133 110  85  89  97 108 107  71  45  49  50  50  50  50  51  51  50  52  52
  53  55  53  54  55  54  55  53  54  54  54  54  55  55  54  54  53  52  49  58  88  84  84  83  69  75  54  66  89 110 101  81  76  74  93 116 137 139 161 145 154 161 163 172 163 159 158 151 146 136 134 145 153 150 152 164 157 161 168 161 162 164 153 159 146 140 147 130 115  99  91  99 123 141  97  77  93 101  99 119 124  47  52  50  50  50  51  51  51  52  50  51
  54  55  54  54  54  54  54  52  53  54  54  53  55  54  55  55  54  52  50  54  82  86  90  83  80  85  72  63  75  96 103  93  88  84  79  90 126 135 153 157 163 154 158 164 161 159 152 157 161 158 163 166 161 152 160 162 148 144 145 143 153 164 155 149 139 140 142 131 109  90 109 126 123 113  83  80  92 105  98 143 192  52  48  52  50  50  51  51  51  51  51  51
  53  53  54  55  54  53  54  55  54  54  53  53  54  53  52  53  53  53  52  54  80  88  89  90  77  83  88  70  70  78  95  97  89  73  68  93 121 140 146 151 160 157 144 147 142 139 149 150 158 156 157 171 171 153 160 162 147 143 135 129 145 135 151 153 150 138 146 134  96  94 108 116 118  93  84  97 105 105 109 153 212  73  35  51  54  50  52  52  51  50  51  51
  54  54  54  54  54  54  54  54  54  54  53  54  53  52  52  52  53  52  52  50  73  91  91  84  84  82  88  85  64  75  77  83  90  75  70  89  99 135 137 150 152 155 145 145 137 141 147 148 150 153 158 152 155 165 160 153 151 153 140 138 144 131 147 154 146 145 133 116 101 128 121 116 104  97  84  99 109 108  85 144 224  99  24  40  56  55  50  51  50  51  52  53
  54  54  55  54  53  54  54  54  53  54  52  53  53  52  54  52  52  53  52  51  65  88  93  83  90  88  73  86  74  60  71  79  92  87  75  82 100 123 132 156 145 139 156 150 153 143 152 159 154 150 151 159 157 147 149 143 149 145 142 147 141 134 133 149 155 164 151 116  88 105 131 113  95  89  89 112 110 113  46 152 228 114  21  38  44  58  57  50  50  51  51  52
  56  56  55  55  55  56  54  54  53  55  53  54  55  54  53  55  54  53  52  52  57  75  97 101  88  98  81  88  85  58  64  76  76  82  71  74 109 127 140 137 145 134 153 147 144 143 143 157 156 164 167 156 168 155 155 150 161 142 145 148 139 130 140 144 144 157 142 113  85  95 117 107  83  96 108 120 121  97  31 176 225 133  21  36  38  44  61  61  53  51  50  51
  56  56  55  56  56  56  55  55  56  56  56  54  54  54  54  55  54  55  54  53  44  73  96  98  89  94  87  79  86  70  65  73  73  80  69  62  87 125 129 127 126 127 152 149 146 146 149 142 153 168 162 158 161 158 173 170 159 157 154 139 135 135 129 146 147 147 131  93  87 116 109  92  89 108 123 122 128  46  43 207 229 143  25  32  36  41  46  53  61  62  58  51
  59  57  56  58  58  56  57  55  57  56  55  55  55  55  56  56  56  55  57  51  28  66  88  95  92  88  86  76  81  74  70  67  76  77  73  67  82 110 116 132 132 121 133 140 138 149 149 141 150 160 164 159 168 170 171 176 168 148 148 137 135 130 134 154 158 144 115  94  93 104 102  87 106 109 107 123 109   5  97 237 239 148  25  31  29  36  36  39  46  51  65  64
  58  58  58  58  58  57  58  57  59  56  57  57  56  57  57  56  57  56  59  38  25  78  72  98 101  90  83  75  75  74  78  70  72  71  80  72  68  85 106 117 131 139 127 132 152 155 152 156 157 154 153 155 167 166 166 158 160 153 138 136 131 131 145 147 143 144  98  81 100  95  86  85  98 104 117 124  57   6 172 240 239 154  24  32  30  31  35  34  31  33  37  57
  57  57  59  58  57  58  56  58  58  57  57  57  57  57  57  57  58  57  44  25  18 105  88  85 107 104  92  80  75  88  84  76  77  70  73  63  66  85  89  87 121 134 121 128 142 142 142 144 161 146 136 146 141 145 150 147 158 146 134 123 121 124 157 154 135 109  95  93  98  92  91  98 111 106 123  89  12  45 208 236 241 161  24  31  39  33  37  39  33  33  31  41
  57  58  58  59  58  57  57  58  58  56  57  57  56  57  57  58  56  41  32  19  13  93 146  73  97 109 106  82  86  90  82  92  80  63  66  69  74  76  67  72  91 107 118 136 126 132 138 121 151 134 128 139 145 139 152 137 139 136 126 111 114 131 141 129 129 103 102 114  93  89  96 103 106 111 113  58   2 105 223 240 240 164  24  37  47  40  42  46  38  45  46  45
  57  56  57  59  58  58  57  58  57  58  58  57  56  58  58  59  45  32  26  18  15  59 181 124  79 102 115 107  82  85  84  90  88  76  66  67  75  73  53  76  83  76  97 114 111 113 110 124 118 118 123 123 126 144 137 120 136 127 112 119 131 116 116 108  86  88  86  85  96  90 108  99  97 106  97  31  16 162 228 239 239 172  33  42  40  41  41  42  40  44  42  49
  57  57  59  59  57  58  57  57  57  57  58  59  61  58  59  46  31  30  22  23  25  36 152 184 103  92 116 115  97  71  75  84  92  96  75  63  59  61  65  60  54  55  73  97 100  85  93  88 113 102 113 120 127 134 114 114 133 124 104 106 105  94  93  77  84  95  77  75  86 104 109  96 104 111  75   7  60 198 232 239 236 188  43  34  32  33  42  38  39  37  38  45
  58  58  58  57  57  56  56  57  58  61  59  50  43  34  39  29  28  29  23  21  21  22 115 195 156  84 100 112 113  94  68  79  85  89  88  75  57  56  68  76  60  53  68  74  67  83  86  71 101  92 105 103  96 108  86  89  82  83  68  90  89  98  78  78  97  84  81  89 100 101  93 101 108 106  41   2 111 215 236 239 234 199  47  34  38  39  42  42  46  40  44  47
  57  56  55  56  57  64  64  55  46  43  33  19  22  36  37  29  32  27  18  18  23  14  86 183 196 115  79  99 105 105  99  80  74  82  87  75  68  61  58  60  63  70  68  53  32  39  40  54  63  55  65  74  61  75  54  61  58  54  56  65  71  74  94  87  92  75  80  91  95  81  76 111 123  76  12  26 164 218 239 237 232 211  66  34  41  34  38  36  44  43  42  48
  56  58  61  62  62  56  38  29  22  16  10  18  44  43  32  32  30  22  17  19  26  19  65 160 197 177  96  93  99 101 115 110  88  73  83  85  75  71  64  53  53  55  68  60  52  46  39  31  14  14  18  17  19  23  19  26  25  34  48  61  84  81  85  82  74  86  99  89  80  81 100 121 102  40   3  77 194 226 241 238 234 220  79  28  39  35  40  38  40  47  43  50
  65  63  58  50  35  25  19  15  17  16  27  58  54  42  34  33  28  22  19  16  24  22  52 142 182 203 159  99 106 101 105 113 113  93  72  76  77  66  65  59  49  42  57  53  58  57  55  64  51  35  37  44  46  49  59  67  75  87  87  78  81  75  62  70  79  98  91  88  86 114 131 115  63  19   7 123 207 233 240 239 234 230  94  27  38  39  36  37  40  49  41  45
  57  50  46  52  45  46  47  42  42  46  61  55  43  36  32  29  24  19  16  18  25  21  34 123 166 213 210 153  99  97  96  98 108 112 102  83  73  68  69  63  61  54  47  43  55  59  47  64  71  77  84 105  94  90  94  94  92  85  77  74  61  58  75  90  89  79  84  87 112 128 125  91  36  15  35 175 209 237 240 239 236 233 107  20  31  35  35  35  38  46  50  49
  48  44  43  45  45  47  52  51  54  57  55  42  40  36  31  25  18  16  20  20  24  20  17  93 146 198 229 219 150 101 114 105 101 109 119 111 102  87  78  79  70  63  56  52  54  56  46  57  54  69  79  95  85  88  86  71  71  71  56  58  65  84  92  87  92  89  97 120 132 121 109  66  29  12  92 196 222 241 240 241 240 233 112  17  34  33  38  34  33  38  46  46
