P2
# Generated by OpenCV 4.2.0
92 112
255
  31  31  31  31  31  31  32  32  32  32  32  32  33  32  32  32  32  32  32  31  31  32  32  31  27  32  33  65 174 163 146 138 117  93  90 100 105 116 116 116 113 108  98  86  85  82  78  72  60  69  81 130  74  88 115 115 142 116 107 134 124 139 129 146 162 141 138  66  29  40  31  35  33  31  37  36  37  37  37  37  37  37  37  37  36  35  36  37  38  37  37  37
  31  31  31  31  32  32  32  32  32  32  32  32  32  32  31  31  31  32  32  32  32  31  31  38  29  28 131 184 159 150 153 143 131 131 131 114 108 115 120 124 123 135 134 115 101  93  79  79  87  52  61  81 102  85  78 110 114 129 125 117 120 121 131 124 126 138 140 129 103  38  33  33  37  36  36  37  37  37  37  37  38  37  37  37  37  37  37  37  37  37  36  36
  31  31  31  31  31  31  32  32  32  32  32  32  32  32  32  32  32  32  31  32  31  32  32  35  21 132 180 165 164 171 155 148 140 138 142 146 145 144 148 128 129 119 121 121 123 122 122 122  99 109  65  60  73  89  85  77 120 110 108 108  97 111 124 131 114 116 108 107 116 117  50  33  26  31  37  36  37  37  37  37  37  37  37  36  36  37  36  37  37  37  37  37
  31  30  29  30  29  32  32  32  32  32  32  32  32  32  32  30  30  32  31  31  31  32  30  37 147 175 185 172 167 159 146 141 164 152 140 131 110  99  82  78  67  72  70  78  89  91  85  86  92  97 138  76  63  72  85  84  90 111 123 109  91  97 112 121 106  94  97  87  87 119 142  41  42  32  36  35  37  34  37  37  37  38  37  37  37  37  37  37  37  37  37  37
  30  29  32  30  32  31  32  32  32  32  32  32  32  32  26  35  31  28  30  24  39  21 109 174 173 176 168 160 151 159 148 123 111 102  98  84  82  73  70  67  68  64  61  59  60  64  66  72  75  75  76 131 111  60  68  86  81  98 109 108  89  92 112 111 107  93  87  82  86 110 119 113  37  38  37  37  35  40  35  37  37  37  37  37  35  35  37  37  36  37  37  36
  32  32  32  31  32  31  32  31  31  32  32  32  32  31  35  29  31  30  28  32  24 143 182 171 158 154 138 118 115 117 106 103  98  75  64  71  70  68  65  60  60  55  50  48  45  43  48  47  51  57  63  65  96 113  66  71  78  80  99 107  88  86 104 105  95  79  98  67  79 110 107  92 115  33  35  36  36  35  36  35  36  36  37  37  36  37  37  36  37  36  36  37
  30  31  32  31  30  32  32  32  32  31  32  31  32  31  29  32  30  31  27  29 143 173 148 136 137 129 134 119 124 115  99 106 113 115 105  98  94  88  80  75  73  68  66  58  54  50  42  45  45  46  50  62  62  94  99  56  66  81  78 103  87  71  92 103  86  72  78  68  79 108 105  98 114 127  38  38  34  32  36  36  37  37  36  37  37  36  37  37  37  38  38  37
  32  32  33  32  33  30  30  32  32  31  33  32  32  31  30  32  31  33  81 185 159 128 134 131 149 148 140 149 157 167 156 137 132 132 125 122  93  87  81  70  68  66  67  61  54  47  57  52  49  48  52  52  55  53 101  81  57  71  72  89  89  66  84 104  84  83  67  77  76 109  82  88  87  90 108  35  38  32  36  36  37  37  38  36  36  37  37  36  38  37  37  37
  32  32  32  32  31  32  33  31  31  35  28  32  31  28  32  27  56 162 148 119 103 155 150 162 144 149 136 133 124 105 111 102 101  97  94  97 105  99  97 100  70  58  48  74  61  56  58  48  58  52  47  52  44  45  66 100  72  53  84  68  83  69  75  96  74  81  76  74  62 105  77  75 100 122 150 116  31  29  39  33  36  34  36  35  35  34  36  37  36  37  36  36
  32  32  32  32  33  32  32  30  32  28  36  27  31  31  27 105 166 119 105 148 145 147 126 121 128 131 143 146 130 118 109  95  92  80  64  54  51  43  48  58  72  74  65  46  68  57  58  59  47  53  58  52  41  43  45  72  86  56  65  64  78  59  78  83  68  85  80  66  66  97  74  80  91  91  99 133  65  39  34  38  34  37  35  37  36  37  37  36  37  36  36  37
  32  32  33  32  32  30  33  31  32  32  30  37  26  35  38 157 114 140 147 134 150 149 164 171 172 156 142 118 112  98  99  86  81  79  74  67  66  71  55  48  42  50  67  70  51  46  51  54  61  47  54  58  53  40  45  48  74  68  54  65  65  59  77  75  67  69  78  63  72  83  68  67  85  85  96  97 133  50  38  35  37  34  38  36  38  39  37  37  36  37  38  39
  32  32  32  32  32  30  32  31  30  32  32  28  33  23  91 148 155 141 149 160 153 147 146 127 110  92  85  80  83  87  69  55  44  45  49  60  67  60  59  56  58  41  40  55  63  60  42  47  48  53  51  53  53  46  48  47  54  65  53  66  59  66  70  71  71  60  69  65  75  86  65  79  70  76  91 107  98 103  36  34  37  38  33  37  36  37  37  37  37  38  38  38
  32  32  32  32  32  31  32  30  30  29  34  26  30  50 187 147 160 180 192 174 129  85  67  64  71  70  68  52  50  47  50  72  60  47  34  40  45  47  61  56  55  60  49  43  55  55  52  41  46  44  48  47  55  46  52  52  48  61  58  59  62  63  66  60  67  67  62  62  84  72  74  72  73  61  92  86 110 117 117  27  34  42  36  36  36  34  36  37  37  36  38  38
  32  32  32  32  32  31  30  32  32  33  29  35  24 165 172 165 165 144 114 110 101  79  62  52  49  44  45  45  47  46  44  46  53  50  45  38  36  43  45  52  48  51  58  51  46  52  58  45  48  45  48  44  51  53  52  57  48  56  53  59  57  61  59  63  64  62  65  69  65  75  65  67  62  71  89 101  88  92 117  82  29  39  36  37  37  37  37  37  37  36  36  36
  32  32  32  32  32  32  31  32  32  29  33  26 140 163 150 165 148 131  86  48  25  32  34  41  43  53  48  56  50  44  47  40  43  47  47  47  38  40  50  46  54  45  45  53  49  47  53  50  49  52  44  47  48  56  56  60  48  54  54  60  54  59  62  63  58  76  64  59  64  63  58  61  66  79  87  74  67  70  71  87  47  33  38  37  36  37  36  37  38  37  36  37
  32  32  32  32  32  32  32  31  31  31  29  93 163 148 146 108  91  53  46  36  30  30  38  51  53  50  47  43  55  54  46  50  36  44  44  45  44  35  41  49  48  51  45  44  55  55  57  51  59  57  55  53  54  55  67  62  53  54  58  59  56  63  64  59  59  80  60  61  61  59  55  67  65  75  73  71  78  74  81  94  84  31  41  36  37  37  37  36  38  37  37  36
  32  32  32  33  32  32  32  31  31  32  68 170 149 113 100  77  53  43  25  23  23  28  28  35  40  48  53  59  49  49  64  40  49  45  45  44  48  47  42  45  52  47  49  50  47  51  59  51  57  64  64  61  60  62  73  60  58  62  62  63  60  67  63  62  67  60  61  66  51  55  59  55  62  52  64  59  49  67  85  78  92  79  30  36  37  37  37  37  38  37  36  36
  32  33  32  32  32  30  32  34  34  43 150 124 127  89  70  70  50  29  46  45  49  48  53  55  47  41  47  62  60  49  58  59  61  48  44  46  45  49  54  59  55  57  55  54  54  51  56  62  58  79  73  71  70  70  77  63  68  68  69  62  67  64  65  71  75  65  67  61  63  55  56  49  45  58  53  52  55  63  60  62  76  87  44  39  35  37  33  37  37  36  37  35
  32  32  32  32  31  36  27  30  21 140 137 137  81  64  81  72  47  83  76  59  49  44  44  47  62  53  46  51  60  60  58  61  64  63  58  58  51  50  54  57  59  59  59  53  54  59  58  62  81  78  79  81  83  77  82  79  74  73  70  69  72  77  79  77  78  77  77  69  64  63  52  52  51  44  49  41  41  45  44  44  57  68  68  30  46  34  39  37  38  37  36  38
  32  32  32  32  32  32  32  31  84 145 120  63  79  74  88  71 104  82  50  46  52  56  55  58  55  73  72  78  71  89  83  78  76  66  63  63  64  62  63  58  60  65  70  65  61  71  74  70  89  84  95  92  90  88  91  88  85  81  76  79  82  87  82  90  91  86  82  92  85  80  68  52  44  49  45  47  54  51  47  62  76  78  76  57  29  40  35  36  36  36  37  37
  32  32  32  32  32  34  28  26 161 104  84  60  69  69  91  93  47  42  55  50  53  55  63  79  97  94 112 102 107 100 123 134 103  83  83  78  63  74  77  73  78  78  82  80  73  80  90  94  92 108 108 112 101 107 104 101 101  87  88  96  93 100  96 102  93 104 107 103  99  97  85  60  57  49  42  43  46  47  59  71  82  93  94 102  43  36  36  37  36  36  34  37
  32  31  32  32  31  30  31  56 126  92  85  92  84  97  58  44  59  52  42  58  78  91 111 122 130 142 138 147 142 137 141 140 145 127 110 114  96  93  96  92  97  95  97  97  88  89 107 106 105 120 121 123 120 126 114 119 108 110 115 109 112 110 120 110 122 122 119 122 123 117 102  81  59  45  48  49  49  51  52  56  49  62  79  84  51  38  35  39  38  37  36  37
  32  32  31  32  31  30  26 123  97 112 106  86  88  57  76  73  36  51  70  85 109 128 147 165 178 177 179 174 179 170 168 168 160 152 151 134 125 123 108 118 120 123 109 120 102 117 105 127 120 130 139 138 146 138 139 137 135 140 129 128 130 134 139 137 135 134 133 128 127 131 129 108  83  64  57  50  44  42  46  50  54  63  77  97  99  33  38  38  37  37  37  36
  32  32  31  33  32  37  37 144 138  99  84  80  93 109  52  34  44  73 108 125 147 152 166 183 185 187 190 188 188 191 188 181 172 167 168 164 151 152 145 142 143 139 135 129 122 133 125 140 134 141 144 146 153 144 149 149 153 143 132 135 143 149 143 151 145 148 145 142 143 145 144 127  98  61  56  51  49  44  43  43  45  47  56  56  85  40  35  37  38  37  38  36
  32  31  31  32  30  21  98 123  74  78  99  59  43  38  48  59  70 102 123 173 172 189 191 196 200 199 199 200 196 190 189 186 184 187 182 184 178 169 166 156 160 152 154 147 142 135 142 146 144 147 148 153 151 152 148 147 147 143 150 151 153 149 155 142 152 149 149 147 153 158 151 140 121  84  64  50  42  40  44  40  37  43  49  69  83  35  37  35  38  36  37  37
  32  31  31  32  32  27  90  68  62  55  59  76  68  67  58  60  94 131 168 189 194 203 196 199 204 201 197 198 198 194 196 193 186 185 183 183 181 179 173 164 165 158 159 152 150 151 150 150 150 150 152 152 148 149 142 145 152 149 145 151 145 152 152 155 154 155 154 151 152 151 151 146 138 101  73  58  49  46  47  46  45  48  57  63  87  37  39  36  37  36  37  37
  30  32  31  31  29  59  63  59  53  61  52  68  81  54  67  80 125 177 200 198 210 206 209 212 210 206 206 202 204 199 194 195 187 184 184 186 178 180 175 174 169 165 160 160 155 159 153 151 150 149 151 154 154 148 146 150 147 147 149 147 152 151 150 152 151 151 154 151 154 159 151 142 135 102  87  71  58  51  49  54  58  58  60  75 107  44  38  35  38  36  37  38
  37  26  31  35  37  69  43  32  41  34  41  57  66  98 117 137 159 196 202 208 207 210 213 215 213 212 209 202 189 191 194 197 194 191 185 180 177 173 171 172 174 167 160 161 160 162 156 154 149 145 137 141 146 155 139 143 152 149 148 147 151 147 149 150 148 150 151 144 149 160 156 150 142 109  82  74  66  55  51  44  43  62  54  66  58  37  38  38  36  35  37  37
  32  30  32  32  84  26  49  61  63  74  66  68  79 106 136 173 184 199 212 210 211 216 220 219 210 215 201 200 201 193 193 188 191 189 183 177 178 170 168 171 169 159 156 162 162 161 156 153 151 151 145 141 144 153 148 147 151 153 151 149 151 145 145 148 148 151 148 145 149 149 150 141 143 124  95  81  69  65  56  55  53  50  75  66  71  57  36  36  37  38  36  38
  32  30  32  46  84  79  67  72  80  92  86  75 100 146 164 190 190 203 204 215 220 217 216 217 211 208 206 201 195 193 192 186 187 183 178 173 173 167 168 167 165 157 157 161 162 158 157 151 147 150 143 143 153 148 147 148 145 151 150 147 145 142 144 147 147 144 146 145 145 151 149 139 132 133 104  82  75  66  65  61  63  65  67  83  78  70  34  38  37  36  35  36
  32  26  30  84  76  54  63  67  81  80  86 112 127 147 170 183 190 206 212 219 220 217 215 212 211 207 206 200 195 194 183 187 186 180 175 172 166 161 157 160 164 158 156 161 153 152 149 141 137 137 132 138 138 135 139 140 144 136 144 142 140 140 143 143 140 146 143 146 147 147 152 139 131 118 107  89  72  76  60  65  65  69  69  90  87  97  45  46  43  41  46  43
  30  29  29  54  56  68  75  71  89 104 101 114 139 162 173 194 198 205 215 211 220 214 213 207 206 203 200 199 193 187 183 177 180 179 178 174 168 171 166 166 168 164 160 160 160 156 155 159 151 158 151 149 148 151 147 149 147 146 142 140 133 138 140 137 143 145 142 149 147 140 143 139 132 123 103  91  78  66  59  56  61  80  86  86 104 105  59  40  38  39  40  40
  33  32  28  67  73  93 101 103  93  85  92 104 136 165 182 191 193 203 211 214 212 211 212 208 204 194 190 186 181 180 178 177 177 179 164 165 161 161 160 164 169 172 166 166 156 156 152 152 150 150 145 141 143 139 133 139 133 134 136 139 139 140 140 137 138 139 142 137 139 138 144 135 125 121 111  96  84  75  64  59  61  69  83  87  97 112  75  36  36  36  38  38
  29  33  40  75  74  61  39  49  62  90 106 131 149 157 178 194 201 207 209 212 219 201 197 209 203 195 195 193 193 190 185 181 177 178 174 169 165 165 166 165 165 167 166 164 160 157 156 150 150 149 149 143 147 142 136 139 135 136 142 143 142 140 141 140 138 137 136 142 140 135 138 141 135 123 109 100  87  84  74  60  54  47  53  66  78 103 102  26  36  37  36  37
  29  31  44  63  48  40  37  44  65  67  97 136 150 174 179 192 196 204 210 209 203 205 206 204 202 192 189 187 188 184 182 183 178 171 175 166 167 172 175 170 165 165 166 158 158 161 155 153 152 154 147 134 132 133 129 124 124 124 126 123 134 131 134 135 130 140 138 137 141 136 134 136 135 122 113 103  87  76  68  60  52  44  44  46  64  87  96  35  37  36  37  37
  32  33  34  63  43  41  47  87  87  95 116 141 170 190 196 200 204 208 208 207 215 203 197 185 196 195 189 187 191 183 182 186 179 181 179 180 177 169 174 167 170 174 176 175 165 161 159 153 143 156 154 154 152 156 157 154 155 149 147 146 144 141 139 139 132 119 123 131 135 139 134 132 134 125 113 101  96  83  62  63  54  51  45  39  54  66 102  30  37  35  36  36
  32  33  38  71  44  41  87  85  84 102 109 141 174 190 206 210 210 206 207 214 209 206 200 198 192 194 188 179 182 173 177 170 172 177 183 180 175 176 174 173 176 176 173 167 165 162 160 157 148 146 148 148 148 149 149 144 144 145 143 146 141 138 131 144 145 142 131 127 130 130 132 137 137 130 118 105  93  85  73  58  53  56  50  47  65  53  82  41  36  37  37  36
  33  34  39  77  47  70  78  81  95  97 104 142 178 205 206 207 213 202 204 212 209 202 192 191 190 195 195 194 189 184 186 183 175 175 175 173 174 168 166 171 167 170 169 166 164 160 159 160 160 162 160 152 154 154 150 148 146 143 143 139 134 139 147 141 138 139 139 136 134 122 135 133 127 133 123 110  97  83  74  67  59  59  68  76  67  52  75  46  37  39  37  37
  30  34  35  86  62  72  90  95  85  73  93 138 186 210 208 206 206 201 207 211 210 202 198 195 199 189 198 191 191 179 188 180 186 187 180 180 183 180 177 183 180 184 181 178 179 170 167 166 165 168 164 157 157 156 154 158 161 154 153 154 153 140 138 126 140 142 138 136 137 138 143 139 129 122 131 113  98  90  74  62  59  62  67  61  70 100  76  66  38  38  34  36
  32  31  30  84  53  90  88  72  72  73  92 135 198 211 205 204 200 202 205 205 207 202 194 197 187 176 186 197 199 194 198 192 191 189 187 183 174 176 177 178 176 175 173 174 174 167 170 172 168 168 164 166 163 159 152 151 151 140 142 145 164 155 143 151 143 144 143 144 141 143 144 147 145 135 132 128 114  86  80  67  57  58  60  78  72  61  89  66  36  36  37  36
  33  31  27  84  48  96  95  72  66  69  96 147 201 215 207 204 198 200 198 199 210 206 200 188 185 183 191 201 205 205 197 194 195 193 189 182 172 168 173 178 179 169 174 173 168 165 165 171 174 167 156 153 158 156 156 163 169 161 160 158 154 146 139 138 149 149 145 150 147 137 140 151 149 146 138 126 121  98  75  65  67  51  61  64  84  93  77  68  33  36  36  38
  32  30  30  64  63 105  95  73  62  84 110 150 201 214 209 197 201 196 196 204 210 205 192 180 181 187 199 196 196 204 198 190 198 195 190 180 172 166 163 173 176 180 169 167 173 168 164 166 168 168 166 177 170 168 168 170 160 159 159 157 152 133 147 137 118 116 128 147 150 143 136 143 140 143 139 140 128 105  72  59  55  74  57  65  82  78  76  80  33  37  37  39
  31  32  31  44  86 110  85  71  76  91 127 127 201 216 211 195 201 196 199 213 210 216 197 198 199 201 209 202 205 203 200 196 202 191 191 180 172 166 166 176 171 170 170 167 169 163 162 166 169 171 177 164 168 164 159 159 160 163 158 163 160 160 161 163 164 156 134 116 137 152 136 138 139 142 123 143 129 110  77  61  57  54  80  66  82  91  56  70  33  34  36  37
  28  32  29  42 112 106  87  72  82 103 110 142 200 208 207 204 196 199 206 218 208 210 199 187 206 204 209 208 198 192 189 188 188 183 181 177 163 172 165 160 176 162 163 156 153 154 161 167 171 168 165 162 153 156 152 145 144 141 153 151 147 139 145 135 132 129 144 141 124 138 137 134 139 136 134 138 126 120  78  57  59  54  64  80  76 109  48  68  35  36  37  37
  35  29  34  35 124 102  85  96 107  96 109 125 205 207 206 207 195 195 213 204 201 170 161 159 168 147 152 164 168 168 177 182 174 172 161 165 150 155 165 155 171 152 147 131 140 136 151 149 150 151 152 143 143 139 135 138 135 136 121  98 102  83  88  89 104  99 112 135 137 124 148 130 132 134 141 134 133 117  82  60  54  49  57  76  78 101  61  58  36  39  36  37
  32  33  31  31 139  85  94 102  95 100 114 164 182 211 207 205 196 204 210 192 145 139 134 126 118 120 119 120 125 116 106 122 142 146 156 149 142 148 153 165 149 135 122 114 117 117 135 135 140 140 129 124 121 121 105  87  74  67  63  69  74  82  73  77  84  94  90 101 125 131 153 135 135 135 137 138 134 124  82  59  58  52  45  72  86  76 112 114  58  34  38  35
  32  31  32  29 113 114 114  97  85 112 128 132 193 211 210 202 204 211 188 156 151 139 121 119  95  98  87  90  81  79  75  75  82  95 113 111 127 121 128 143 126 113 121 104 112 117 114 129 122 111 113 109  99  85  64  55  55  56  54  55  66  80  86  97  84  84  99 105 104 126 145 141 140 130 140 142 140 124  82  61  54  54  42  54  81  80  93 160 171  35  34  40
  35  32  30  32  81 136 110  87  98 125 115 146 174 214 203 205 209 207 178 154 159 167 162 181 172 140 131 110 104  83  64  67  64  64  72  86  99 103 130 118 113 103 123 112 123 118  86 108  96  80  87  76  58  46  45  43  50  61  72  83  91 108 114 112 113 118 113 103 100 107 130 143 141 131 139 139 142 124  76  57  59  58  48  46  81 116  57 129 161  55  38  36
  33  32  30  31  50 140 124 103  83 126 119 149 179 219 207 212 204 198 184 159 182 165 173 172 160 160 142 134 125 104  90  72  65  69  72  74  81  94  91 105  89 129 120 124 121 105  87  78  71  69  65  58  53  50  51  54  59  70  95 117 130 117 116 110 110 111 117 127 116 114 124 144 143 138 139 141 142 124  81  57  64  63  53  48  79 112  58  67 123  90  30  41
  38  39  34  30  28 103 102 112 140 113 146 152 187 214 206 210 199 196 196 177 165 162 155 162 161 153 153 148 145 124 104  82  73  67  68  72  76  81  89  81 124 152 154 147 138 123 107  86  64  56  54  53  50  50  56  60  77  97 117 114 111 116 109 111 113 118 110 108 101 118 117 136 143 140 144 148 144 124  99  54  66  72  63  73  98  95  50  60  83  81  34  39
  35  37  33  33  27 117  38 196 116 134 151 173 171 213 212 204 200 191 175 178 168 166 160 159 150 142 145 139 125 105  94  81  80  76  72  74  71  76  82 108 166 162 151 142 140 130 123  97  65  56  51  57  57  68  62  67  72 103 111 123 111 119 103 101 122 116 127 124 124  84 112 138 130 141 145 151 144 121  96  74  69  76  76 102 110  91  53  53  81  70  37  35
  36  36  33  32  29  95  41  96 125 151 148 164 178 211 208 196 202 178 163 171 167 164 148 171 144  99  62  30  22  22  27  27  38  33  34  59  74  69  71 110 178 191 186 179 165 150 140 108  67  56  53  51  42  33  25  27  20  25  32  41  60  89  99 116 108 115 115 106 101 117 113 129 127 131 147 143 145 113  72  94  63  76  92 104  86  93  50  58  71  64  35  35
  33  36  31  31  30  44  79  36 130 169 150 165 175 211 202 206 177 181 156 145 161 125 109  61  41  27  23  21  21  23  37  38  69  55  44  39  45  56  62  82 198 191 183 168 159 147 143 103  60  49  39  36  37  31  40  63  34  35  25  22  20  13  25  57  86 101 108 112  97  88  95 107 129 138 129 151 144 127  73  84  77  76  86  99  96 103  55  62  84  52  37  38
  33  36  29  32  31  25  59  24 160 182 164 152 175 205 205 198 197 143 146 174 164 100  33  91 177 191 162 108  84  72  70  61  67  58  48  50  52  60  68 100 195 198 176 161 155 147 131  94  57  52  47  53  41  47  60  63  57  33  37  36  36  39  46  30  33  74  98 115  99  80  94 111 112 110 145 149 151 111  88  73  85  66  89 100 105 103  53  59 105  40  38  38
  33  31  32  31  30  28  31  32 159 188 164 162 181 211 209 191 190 192 162 141  78  50 140 180 170 163 152 152 125 105  92  87  84  83  79  77  74  80 115 151 188 183 178 165 145 137 127  92  66  67  75  54  50  63  72  75  75  82  85  84  86  80  96  85  71  30  35  89 112 100 100  84 105 148 138 150 156 122  87  86  79  62  72 105 103 106  51  71 125  35  37  36
  31  33  31  32  30  33  32  30 163 181 170 162 177 212 202 179 154 142 138 122 149 177 194 176 168 140 146 129 113 100  90  94  80  79  82  88 102 101 137 182 189 182 170 165 148 130 116  93  71  73  89  79  84  76  78  75  82  83  84  87  95  95  94  94 104  99  66  35  58  68  89 114 111 127 138 145 144 121  72  87  86  54  63  91 116 111  58  86  96  36  38  37
  32  31  33  32  31  32  33  30 176 166 177 164 176 211 206 208 209 198 180 170 179 175 161 169 163 163 131 103  91 103 105 104  95  94  90  91 101 124 148 193 188 176 173 159 143 126 114 100  82  76  83  84  70  77  71  72  80  81  83  79  80  77  84  99 105  98  94  83  77  91  97  97 110 114 126 147 151 116  85  93  76  81  63  74 114 114  64  92  47  37  39  37
  30  32  30  32  32  33  34  25 188 181 187 177 179 210 210 197 197 195 186 171 175 150 167 167 146 127 147 154 159 135 111 100  81  85  91 108 145 151 176 187 186 181 173 151 136 120 111 110 105  92  79  81  73  72  77  77  83  92  89  81  74  85  84  91  88  97 114 106 115 107 104 111 117 142 140 143 146 117  89  96  69 102  76  85 110 121  85  72  31  40  39  39
  30  30  30  31  30  33  34  27 206 192 176 198 191 215 208 204 195 167 189 194 186 189 179 182 174 158 164 136 120  96  84  87  78  96 134 164 171 175 183 196 192 182 169 152 138 119 118 120 113 102  99  92  83  73  70  83  73  70  69  87 121 114 101 116 117 104 101 121 129 132 135 144 143 112 143 145 155 131  86  99  79 116  79  92 102 119  94  33  40  35  40  40
  29  31  31  31  32  33  34  31 213 202 171 199 189 214 207 199 181 208 190 199 180 162 164 158 166 161 146 133 126 131 124 127 138 157 165 171 182 188 183 204 193 184 165 153 143 129 116 119 112 113 116 112 113 103  88  83  76  85  88  99  86  89  97  92  89  96 111 114 112 119 127 129 142 146 141 149 151 143 102 102  80 101  94  78  91 130  71  35  38  38  40  45
  32  31  33  37  36  34  33  35 213 203 172 196 177 209 206 202 205 200 196 179 191 196 196 195 176 172 165 160 156 155 152 156 170 170 147 182 183 189 190 204 190 182 163 150 145 132 120 123 126 119 123 114 115 122 117 105  99  91  90  68  84 103 109 113 121 132 131 146 144 138 128 134 137 152 152 153 156 144 109 103 100  90  77  75  98 136  54  38  43  45  47  43
  32  31  34  37  36  38  35  32 207 195 206 186 191 209 211 191 195 201 188 210 187 196 192 177 179 167 170 149 160 166 161 156 143 160 173 181 192 191 194 205 194 183 162 149 145 134 126 124 129 119 118 118 117 121 123 132 124 119 128 126 131 127 130 127 132 138 150 140 138 133 130 131 126 148 154 161 156 143 113 132  78  62  57  76 116 127  51  45  46  44  40  36
  31  31  32  33  35  35  33  30 205 209 218 193 191 202 211 195 195 184 199 167 210 183 181 172 162 177 167 174 160 151 152 149 149 160 184 192 194 196 195 203 193 181 163 152 146 142 128 125 131 129 120 121 120 122 122 121 126 135 133 139 133 137 138 134 134 137 135 128 135 134 135 129 139 122 149 157 158 134 120 124  61  48  64 100 122 132  47  43  40  38  36  37
  32  33  33  32  32  31  35  30 208 227 224 184 196 202 207 198 190 196 181 214 185 200 188 190 183 176 174 170 157 161 153 154 164 161 196 189 196 200 198 206 193 178 166 156 151 147 137 134 138 135 124 119 122 128 132 130 133 135 140 142 140 141 117 132 128 130 135 134 134 135 121 131 126 143 135 161 159 136 117 152  62  45  83 117 105 127  37  36  38  37  37  39
  33  32  32  33  32  30  35  29 214 230 224 192 189 201 206 201 185 177 190 185 205 199 201 196 188 179 172 161 163 153 152 154 157 164 171 155 193 200 202 202 190 177 166 156 153 154 150 137 133 137 114  98 112 123 133 136 131 131 137 138 142 138 137 141 134 131 129 130 132 132 133 118 127 135 149 159 161 151 140 151  79 119 131 112 113 125  34  41  41  42  42  45
  29  30  31  33  33  34  33  29 205 224 205 212 195 205 207 193 191 174 207 213 182 200 192 189 185 177 167 163 159 155 153 144 140 137 116 139 194 197 208 200 185 172 167 156 154 148 150 154 137 127 119  95  84 104 127 133 138 138 137 131 139 138 137 138 138 139 141 136 131 135 132 124 127 140 147 162 165 158 142 142  99 127 155 125 120 124  33  45  44  42  42  42
  32  33  31  33  33  32  33  31 191 202 206 221 216 198 203 196 176 187 186 202 206 207 198 194 183 171 161 157 152 147 136 129 124 108  85 179 193 209 209 195 183 173 164 157 154 146 146 150 143 133 125 111  82  79 115 123 131 134 131 137 135 138 137 140 133 140 144 143 146 138 136 127 126 133 152 161 156 159 164 101 105 134 162 140 131 127  32  38  39  38  37  38
  33  33  32  33  33  32  36  29 178 206 205 211 191 208 199 183 169 190 196 191 194 198 193 193 174 168 159 150 147 134 124 118 101  92  90 199 195 212 211 197 184 169 163 155 149 139 143 143 146 137 136 125 100  77  93 109 121 127 129 134 136 133 136 127 137 136 141 133 126 135 118 132 110 132 145 162 159 153 163  92 120 120 155 142 157 105  33  39  41  40  38  39
  32  31  33  33  33  35  34  30 164 205 210 199 187 208 198 202 167 187 196 192 190 198 188 182 171 159 156 148 140 119 111  97  87  66 186 200 198 211 218 188 160 156 152 140 131 128 136 130 142 143 136 132 112  74  71  88 103 115 126 134 133 132 125 133 136 132 132 132 130 133 105 122 123 132 150 153 160 145 159 127 137 119 129 133 152  68  36  37  38  38  38  40
  33  33  33  33  33  33  34  34 143 204 199 210 214 215 206 204 171 191 188 176 191 192 180 180 169 164 158 137 120 115  91  85  65  70 195 182 193 210 196 160 137 133 130 122 126 123 115 117 116 122 130 130 110  71  68  65  89 101 118 125 130 134 135 123 124 122 118 130 126 131 121 114 120 127 148 148 164 144 160 133 147 123 109 123 149  43  37  39  37  37  37  38
  33  33  32  33  33  33  34  34  66 210 182 208 223 201 201 199 186 191 191 168 182 179 174 178 166 151 141 128 113  90  86  60  67  88 170 162 161 183 155 125 109 118 124 122 112 106  93  90  94  98  96 108  97  71  76  57  64  90 101 116 115 120 123 122 120 113 127 130 117 129 118 105 128 128 143 142 145 149 155 133 141 133 118 115 146  38  39  39  38  38  38  39
  33  33  33  33  34  36  32  34  29 188 207 219 220 212 205 202 168 188 188 185 172 178 178 164 153 145 131 105  93  77  59  57  95 104 127  87  72 135 123 105  86  95  99  93  85  84  78  35  25  43  64  81  80  81  86  77  47  67  91 109 108 113 115 122 116 117 123 124 132 124 118 106 127 127 149 133 149 137 158 144 146 129 118 137 117  37  38  40  38  38  37  40
  33  33  32  33  33  34  33  36  24 146 224 214 211 198 202 204 189 186 193 183 184 180 165 165 145 122 108  94  77  55  54  95 104 118 140 133  76  47 128  93  81  70  73  66  76  70  28  32  40  31  47  61  83  98  97  88  84  46  74  90 101 107 118 105 113 114 124 122 148 118 120 113 121 132 135 145 144 144 153 155 151 125 127 143  75  39  38  39  37  37  38  38
  33  33  33  33  32  33  34  35  32  31 217 204 187 207 205 201 199 183 187 190 168 183 165 146 132 112  94  69  53  46  88  96 117 131 154 152 147 144 111 107  75  69  60  66  49  51  53  55  51  58  60  84  95  89 100  98  90  69  55  72  99 106 101 104 105 103 113 112 128 119 113 115 120 138 138 144 138 142 158 142 158 130 142 147  43  39  37  39  37  39  38  40
  33  33  32  33  33  34  36  33  34  35  52 180 164 184 206 204 199 182 187 173 191 165 164 150 118  90  76  54  51  83  91 100 132 155 151 152 154 143 106 108  80  67  56  42  46  46  54  52  69  73  89  86  88  89 101 101  97 106  59  58  81  87  94 104  99 104 111 120 133 117 112 119 123 132 135 145 150 135 147 148 143 159 149 146  27  40  39  37  39  39  39  40
  33  33  33  33  33  33  36  31  32  36  27  38  61 166 208 204 201 183 180 167 181 176 160 136 110  83  57  43  78  98 104 128 137 140 146 143 153 132 141  98  83  73  46  53  46  58  65  75  72  83  97  95  93  96  98  96 102  95  88  59  58  84  84  92  94  98 107 119 127 111 111 122 128 136 140 142 141 135 155 131 137 143 171 119  37  39  38  37  40  39  38  40
  34  33  33  33  33  32  33  33  32  30  34  38  23 116 214 202 199 180 175 165 183 164 151 132  89  62  46  77 102 123 113 125 129 124 127 140 148 141 134 108  78 103  76  59  67  55  70  76  80  79  91  92  96  94  94  94 101 103  89  87  42  70  88  88  90  95 109 120 117 114 113 121 129 140 133 140 148 136 149 126 116 123 150  49  36  38  38  38  37  39  38  39
  31  30  32  33  32  35  33  33  36  35  34  33  40  58 213 203 186 192 171 161 181 170 152 112  77  56  60 105 121 123 119 143 130 145 131 149 152 125 129 135  93  74  96  72  79  78  98  81  73  89  75 103 100  93  98  96  97  93  99  86  77  37  78  89  97  92 102 122 112 114 115 118 135 138 139 143 143 131 150 129 101 126  59  38  38  38  38  38  40  40  39  40
  32  31  32  33  32  36  36  36  36  36  32  36  38  24 195 208 189 189 170 166 174 179 139 113  76  62  65 123 150 111 118 118 143 148 151 137 138 126 111 107 117 117  97 112 106  88  99  90  94  81  90  92  84  96  94  91  83  90  91 102  82  53  65  80  90 103 104 114 105 105 118 115 132 143 130 142 130 130 152  98  44  43  38  39  39  39  40  39  41  39  40  41
  33  33  33  33  32  32  34  36  36  33  35  31  33  26 129 208 186 189 179 162 183 174 137 104  77  72 125 138 133 108 132 135 143 149 147 168 150 149 141 133 114  99  98  91 132  94  94  87  94 102  97  96 112  87 108  97  84  86  89  97  96  71  59  79  92 100 104 110 105 100 116 116 131 134 140 143 119 127 154  74  40  38  37  38  39  39  39  38  39  39  38  41
  32  33  33  33  34  36  36  36  37  32  37  32  31  34  63 225 196 186 172 157 184 166 144 105 101  59  97 123 134  93 127 121 161 166 173 159 163 165 132 144 138 119 112 117 126 103 114 110  96 108  95 101 103 105  95  91  84  79  91  87  80  76  49  92  93 106 113 113  99 110 116 119 132 140 131 138 139 134 152  57  37  35  41  40  40  40  40  40  42  43  41  45
  33  33  33  34  33  35  33  32  36  40  32  34  37  36  35 231 193 192 172 170 168 170 134 128 100  92  89 109 107 107 123 133 171 163 155 160 151 141 127 133 130 110 141 113 139 123 104  99 104 101 108  98 105  93 106  82  76  70  76  80  79  75  65  76  92 101 104 115  93 105 114 125 129 139 142 139 123 125 157  48  38  44  44  44  44  43  44  44  44  44  41  44
  34  34  34  34  34  34  32  32  36  36  36  32  33  35  27 155 194 180 170 169 172 173 141 148 133 100  92 114 101  69 108  85 105  95  78  60  77  67  84  90  80  77  74  79  78  63  66  61  65  68  77  78  84  92  91  82  63  61  68  69  88  68  67  83  95 102 107 106 103 116 110 123 130 143 135 124 121 135 147  36  41  39  39  41  40  39  39  39  40  42  40  40
  34  34  34  34  33  34  34  34  37  35  36  34  35  35  32  69 193 183 177 168 163 179 150 142 140 106  97 111  90  79  65  90 110  94  90 100 107 102  88  75  63  53  45  44  47  46  51  45  45  36  36  37  42  45  50  50  41  59  69  70  79  66  86  89  92 101 103 100  99  91 101 125 132 137 123 128 122 131 124  33  39  37  38  39  39  39  39  39  39  40  41  41
  34  34  34  34  33  36  35  34  37  35  36  36  36  36  33  29 192 177 182 165 149 160 164 138 136 119 100 103  81  83 110 159 164 186 176 173 176 177 168 151 140 109  80  83  86  77  85  83  89  76  87  69  67  59  57  57  53  43  63  66  70  62  81  97  92  99 101  94 100 101 107 126 131 129 120 117 112 140  87  34  37  36  39  38  38  39  39  39  39  40  41  42
  34  33  34  34  33  36  35  34  37  35  34  36  35  35  36  29 165 198 187 158 142 142 156 147 128 107  96  83  84 106 157 181 170 173 170 178 177 170 164 151 138 125 111 109 115 109 105 101 101 105 110 100  99  96  96  90  80  54  58  66  78  77  89  92  90  91 103  87  94  94 110 122 140 119 106 129 117 129  71  40  39  40  40  39  39  39  40  40  40  41  40  41
  36  34  34  34  35  37  35  34  33  34  35  36  34  35  38  39  92 195 187 167 150 147 159 130 136 118 101  87  91 115 158 175 182 174 171 183 173 146 140 117 109 123 119 112 113 108 100 101  96 108  95 100  98  98  91  93  89  76  60  55  62  72  90  84  99  95  92  93  88 100 110 120 131 125 111 128 124 149  56  41  38  37  37  38  39  39  39  39  40  42  40  40
  33  33  34  33  32  37  35  33  35  32  33  33  36  38  38  40  25 185 171 157 135 151 146 131 144 129  84  85 113 126 164 175 167 165 170 161 143 141 126  97  86  75  69  76  60  69  75  86  93  90 100 102 102 105 101 110  97  83  64  58  66  87  90  86  95  87  80  84  90 104 109 119 124 118 130 122 126 136  48  39  38  36  37  39  40  40  39  39  40  41  39  41
  32  34  34  34  32  36  32  32  33  34  33  37  39  38  35  29  23 148 176 156 145 152 142 138 145 140 115  86 141 119 169 156 167 169 161 155 132 118 115  93 112  81 101  88  71  71  81  79  83  94  84  91 102 103 103 109  96  76  54  67  74  79  81  90  86  77  85  90  83  99  92 117 115 116 109 120 128 142  40  40  38  38  40  39  39  39  39  41  42  44  41  42
  34  36  36  36  35  35  33  32  34  35  37  39  38  35  32  33  38  85 198 171 142 148 145 118 130 159 132 130 157 171 167 160 163 161 162 149 127 139 109  92  94  98  66  88  81  80  69  74  89  76  77  78  90  86  96  88  89  77  58  78  78  86  87  85  86  81  84  85  85 108  91 125 115 124 100 116 121 124  35  39  39  38  41  39  39  38  38  41  42  44  41  42
  33  34  36  35  32  36  33  33  35  37  40  36  33  32  35  32  31  23 163 174 167 154 143 131 124 141 116 153 161 155 166 165 151 169 146 145 131 117 100 117  77  94  93  84  67  71  73  68  77  71  74  65  83  83  86  87  86  76  74  90  90  79  90  77  83  74  79  83  87  93  95 113 116 109 124  97 128  97  38  37  39  40  43  40  37  37  39  40  44  45  41  42
  34  34  35  36  36  35  33  33  38  38  35  32  34  34  33  34  33  34  51 189 164 174 134 145 132 145 154 156 180 172 158 154 156 153 159 161 138 114 107 107 105  80 109 103  83  79  80  67  73  70  77  80  80  93  86  88  84  83  92  91  78  85  92  91  85  71  74  75  99 101 114 110 105 111 111 117 131  55  29  39  40  36  38  40  39  38  40  42  39  43  40  45
  34  33  36  36  37  36  35  37  38  35  34  34  36  31  33  33  32  34  31 119 182 165 158 151 128 156 140 147 163 169 171 158 141 160 163 164 153 157 138 103  89  84 100  73  97  93  88  98  87  83  95  88  89  91  84  81  96 113 102  92  87  91  85  83  70  73  79  79  90  93 111 100 110 103 102 101 123   3  20  30  41  39  40  39  41  41  41  40  41  45  40  45
  35  33  37  36  36  35  37  39  37  33  33  36  36  34  33  33  34  36  38  19 195 155 172 154 125 143 168 148 179 159 153 167 168 161 169 174 157 157 159 143 140 119 105 123 102 116 113  97 107 103  92  99 107  97  84 101  99  92 109  94  93  75  87  57  73  85  91  85  95 104 107  96  97  92  98 101 125  14  14  25  37  42  37  39  41  42  41  40  40  44  40  45
  35  33  36  36  36  37  40  36  34  34  33  34  36  33  35  36  36  36  34  29 177 177 156 146 142 141 186 168 193 182 173 161 166 155 172 181 181 192 191 177 164 156 143 135 136 142 133 133 128 120 108 110 108 102 102 108 104 115 105 103  86  91  88  71  66  86  91  91  92 101 108 104  95  96  94 117 244   8  19  19  26  39  49  40  41  39  40  40  41  46  41  45
  32  33  35  35  35  39  38  32  32  34  33  33  33  31  36  33  33  35  36  30 128 181 158 142 147 151 163 169 178 171 167 156 141 149 169 171 186 183 182 162 164 165 153 145 133 141 138 129 134 114 127 118 117 113 118  95 108  88 117 104  83  99  68  66  76  78  75  86  99 108  99 104  94  89 106 159 229 132   7  19  21  29  47  47  38  39  38  43  41  44  41  42
  33  36  34  36  38  38  34  32  33  33  34  33  34  33  35  36  36  36  35  38  75 190 178 146 149 140 179 179 158 187 191 175 161 173 170 158 193 186 167 153 156 163 147 146 141 150 153 127 119 129 118 130 122 114 129 106  99  99 104 106  94  91  64  71  68  75  80  80  86  92 101  88  83  85  87 230 227 230  18  19  18  30  34  49  50  35  41  40  42  44  41  42
  36  34  35  38  42  38  34  31  34  36  36  34  33  33  35  37  37  36  33  36  49 189 178 159 139 138 173 185 169 169 172 171 171 180 185 181 183 185 167 163 136 150 155 150 142 146 125 124 126 105 111 105 107 123 102 104 114  97 105  86  88  85 102  68  65  72  85  88  88  94  92  97  90 103 178 229 222 216  90  11  19  22  28  40  52  46  38  41  41  44  41  41
  37  36  37  38  38  34  32  32  33  34  34  34  34  32  36  34  35  35  38  36  30 191 172 158 140 154 197 139 185 175 189 169 176 173 190 187 186 182 176 155 153 146 137 138 134 123 144 141 122 125 118 129 106 122 104 122 105 107  92  95 102  94  85  70  76  86  80  84  94  93  85  87  88  79 224 222 221 211 136  13  19  23  27  35  40  55  49  41  42  44  41  43
  32  35  39  37  33  32  33  34  33  32  32  33  33  36  33  37  38  39  39  33  26 177 183 169 138 135 165 157 184 171 178 179 185 173 191 186 176 163 160 155 152 139 137 124 112 116 129 121 114 115 120 104 128 107 134  95 117 105 107  80  79  92  79  72  83  79  83  95  86  79  90  90  81 207 219 221 221 205 161  11  16  25  25  32  36  42  51  47  41  44  43  42
  36  39  38  35  32  34  33  33  33  34  33  32  32  35  38  39  38  34  33  36  14 172 182 185 150 125 165 168 170 184 190 181 180 175 186 178 172 151 166 140 146 135 111 138 140 115 109 136 107  97 113 112  94 112 119 113 108  95 108  90  78  90  88  85  76  82  72  85  84  83  86  81 128 212 217 218 220 209 174  17  18  24  21  25  32  35  41  50  46  40  43  40
  38  38  36  33  33  35  36  35  34  31  32  36  36  36  39  36  34  33  34  37  10 179 180 183 166 147 157 172 169 191 167 202 176 169 186 154 187 165 146 131 110 123 112 135 138 129 136 108 102 129 102 100 103 101 112 110 114  84  92  72  94  82  82  78  67  73  81  84  83  80  90  92 229 216 216 217 219 210 180  17  20  18  25  28  33  35  35  39  48  50  39  40
  40  37  32  32  33  36  33  32  34  36  37  38  37  37  34  33  33  34  33  36  12 177 187 186 176 161 141 140 156 182 178 194 179 170 171 189 171 167 147 120 109  90 129 133 135 121  99  90 105  82  94 107  90 110 112 102 116  96  92  86  92  56  69  60  71  65  84  79  78  76  71 207 204 213 217 217 219 212 171   8  24  19  22  23  29  32  36  36  41  48  55  45
  37  35  33  34  33  34  33  34  36  39  38  36  35  32  32  34  36  35  34  27 120 231 200 184 170 171 167 135 134 182 182 171 175 158 173 166 155 133 150 123  90  96 126 130 134 106  91 103  79  94  97  89  99  80 115  90 100 100  87  81  78  75  59  62  67  73  73  73  70  67 197 202 207 214 216 219 218 208 156   8  20  19  24  25  28  31  33  33  36  41  46  56
  31  32  36  36  32  35  36  37  38  38  35  34  33  32  36  35  35  34  34  34 232 233 162 186 181 170 161 172 151 147 189 162 174 167 143 153 156 158 129 136  73 110  91 106  98  74  81  82  72  81  82  82 102  86 100 100  92  91  71  94  54  65  64  63  69  81  69  87  86 185 197 207 207 215 215 217 216 204 130   4  22  17  21  23  26  29  32  32  34  31  40  45
  32  34  34  34  34  36  38  37  34  34  34  35  34  32  35  35  32  35  32  34 242 254 162 208 183 169 175 169 129 138 189 168 189 138 175 155 153 123 113 108 108  99 103  72 104  82  76  77  66  65  80  76  96  94  98  94  85 100 106  61  55  59  68  66  64  72  77  70 186 195 202 207 210 213 213 214 214 203  86  11  15  19  19  23  24  29  31  31  32  31  35  38
  35  33  33  36  37  40  36  33  32  35  35  35  35  33  35  33  37  31  37  33 246 249 234 137 183 170 175 168 168 146 123 150 144 160 171 141 111 126 120  94  87  65  63  91  71  70  74  68  58  68 103  82  78 105  91  85  78  62  67  60  64  59  62  62  65  68  88 178 187 201 206 209 210 212 215 211 204 192  42  18  14  17  20  20  21  23  24  27  31  32  31  32
  32  35  37  38  40  36  32  32  34  36  36  35  36  35  33  36  34  34  46  34 250 250 255 174 194 174 165 177 179 144 143 113 113 140 135 190 123 119 100  97  85  95  96  69  76  60  80  78  76  56  64  82  80 105  76  84  76  62  60  63  57  53  57  64  70 115 179 189 197 204 207 210 212 211 212 206 196 170  24  19  19  15  19  20  23  23  25  25  28  29  28  28
  37  37  37  36  35  35  35  34  34  34  36  37  37  36  34  35  33  42  41  56 253 253 252 251 127 189 180 176 180 168 141 149 107 108 132 109 136 105 109 131  83  93 102  79  74  67  75  55  78  74 106  74  81  81  71  71  58  48  70  56  64  54  73  76 140 175 188 191 205 205 206 209 209 207 204 197 182 134  18  17  19  18  20  20  20  24  24  25  25  25  27  25
  39  37  35  35  34  36  35  33  33  35  35  36  37  36  34  35  37  41  37  78 255 252 254 251 248 130 197 168 184 170 162 157 158 153 148 131 153 143  76  76  55  66  55  54  54  44  56  50  60  56  46  60  58  52  56  51  43  54  62  59  65  66 101 167 168 185 197 198 204 208 207 209 209 207 195 188 177 105  19  17  18  18  19  21  21  23  25  25  22  22  25  25
  36  36  33  33  35  34  33  33  32  35  35  34  36  33  35  34  42  46  27 104 255 255 254 252 253 240 144 191 180 176 157 161 162 161 158 168 152 154 138 113  91  70  55  67  60  55  65  61  67  59  55  51  48  51  51  53  57  60  60  61  75 129 164 174 187 193 199 204 204 208 205 205 203 198 194 183 167  96  17  16  19  20  18  21  21  24  24  23  23  24  24  24
  35  36  33  34  37  34  34  34  36  36  35  34  36  33  37  33  52  35  31 162 250 255 253 253 250 254 240 151 164 180 163 171 156 159 172 165 172 157 152 124 123 140 104  65  60  64  64  71  76  58  54  56  47  51  54  52  51  62  61 102 151 167 179 178 199 198 202 207 206 206 204 204 201 198 192 180 151  92  15  16  19  18  18  21  22  24  23  24  22  22  22  23
