P2
# Generated by OpenCV 4.2.0
92 112
255
 220 222 223 225 223 225 226 227 228 228 228 231 242 207 142 129 119 109 101 110 115 112 114 124  97  35   1   0   0   0   0   0   0   0   0   0   1   2   3   6   7   7   9  11   7   7   5  10  10   8  10  16  21  28  73  44  38 122 117 102  63  60 147 211 210 212 204 201 224 230 238 241 237 235 241 247 216 186 170 156 145 132 120 114 113 108 103 102  99  96  94  93
 219 225 225 227 226 224 224 225 224 226 229 233 235 183 141 132 116 110 102 105 113 119  96  46   8   0   0   0   0   0   0   0   0   2   3   4   5   8   7   7   8   9   7   3   4   4   7   8  14  17  15  12  15  12  12  13  13  54  56  60  72  43  83 131 170 208 210 206 223 233 238 242 242 240 242 248 229 192 173 155 142 131 117 123 120 108 106  97  94  95  98  96
 222 226 227 230 227 219 222 227 227 228 229 239 225 163 138 125 111 106 103 105 119  70   5   0   0   1   1   0   0   0   0   0   1   5   7   7  11  12  12   9  12  14  14  15  12  10   7   7   8  15  27  30  26  18  13   8   8  15  26  16  48  40  70  61  76 166 210 203 215 239 242 243 242 242 243 246 241 200 173 159 145 132 117 117 112 109 108  99  94  98 101  97
 227 225 224 225 224 224 222 225 229 232 232 238 210 155 132 120 111 102 108 108  53   2   0   0   0   0   1   0   0   0   1   3   4   3   4   8   9  17  21  22  19  21  24  25  24  24  22  26  20  15  18  29  40  35  25  16  14  10   9   4  41  60  44  24  12  54 141 203 210 238 244 242 243 242 243 244 247 215 183 166 146 130 116 109 106 110 108 104 103  97  92  91
 226 228 226 221 217 224 225 225 227 233 241 239 194 152 134 121 114 111  86  30   0   0   0   0   0   0   0   1   0   0   1   2   5   8  12  15  18  22  28  36  30  28  27  28  26  28  36  38  30  27  25  23  31  42  29  24  24  21  14   5  32  45  18  15  20   8  30  96 170 241 246 243 243 242 241 242 248 229 192 174 153 135 118 111 111 113 109 106 102  97  94  94
 227 229 231 228 222 220 227 228 231 234 240 237 182 147 129 112 114  76  15   0   0   0   0   0   0   0   3  14  16  10  10   5   4   7  11  17  24  25  25  27  30  31  31  32  34  35  37  31  28  27  31  40  31  36  29  31  33  34  26  10  11   5   8  14  16  17  10  23  45 150 247 244 241 240 232 227 240 242 201 177 156 138 126 119 116 106 107 103  95  99  99  97
 231 227 224 223 224 225 229 230 230 231 236 226 170 145 129 125  79  12   0   0   0   0   1   2   7   8  12  14  17   8   4   6   9  11  15  21  25  28  26  22  22  23  27  33  33  36  37  28  20  28  30  35  43  34  36  37  37  31  30  17  15   6  12  18  16  18  15  27  18  14 155 239 234 226 223 213 224 242 210 182 162 138 127 122 117 108 106 103 100  95  93  95
 228 225 221 217 219 229 230 230 231 234 238 217 160 145 135  79   8   0   0   0   0   0   1   1   7  15  16  13   3   4   6   9  12  14  21  25  26  25  31  29  24  22  21  23  30  35  47  43  28  15  21  28  51  41  33  37  33  27  25  27  17  12  19  15  18  18   8   3   5   1  29 169 223 216 220 218 215 238 220 183 164 142 126 120 113 113 106 101  96  92  93  92
 217 216 215 213 212 222 229 233 235 238 242 211 157 150  75   2   0   0   0   1   6   5   6   6   4   4   3   2   2   7  10  14  24  28  27  30  29  31  31  33  32  29  26  21  21  21  30  46  48  30  14  11  43  63  28  30  29  20  31  35  19  17  19  15  21  14   6   4   4   1   0  46 184 227 214 204 198 231 230 187 170 152 137 123 115 108 101  99  97  95 100  95
 214 214 218 214 212 215 223 232 235 239 244 211 163  77   0   0   0   1   5   6  11  10   7   5   1   1   1   2   3   7  13  17  26  29  27  27  27  32  33  32  36  41  45  36  31  17  14  20  39  41  23   7  22  59  43  32  27  15  33  33  25  24  18  21  27  16   8   7   2   2   1   0  62 207 196 184 183 224 238 196 173 154 140 127 116 105 101 103  98  99 102  96
 224 223 220 216 218 224 228 231 234 237 246 214  79   0   0   0   0   4   5   7   5   2   0   0   0   1   2   2   6   6   9  12  13  14  18  23  22  19  21  23  20  19  21  36  41  41  24  19  20  26  32  20  11  39  55  31  35  22  28  32  25  24  20  30  28  17  12   8  11   8   4   1   0 107 194 183 183 223 244 203 174 154 137 126 115 108 100  98  98  99  96  91
 230 221 222 222 224 232 238 235 235 245 254 124   1   0   1   1   3   9   8   6   1   0   0   0   0   1   2   3   4   7   8   9  13  17  20  18  20  26  29  26  31  33  20  18  21  28  41  36  26  20  28  31  17  28  47  33  41  23  22  38  31  29  23  37  32  17  13  12  12   9   4   1   0  12 145 186 185 229 249 206 170 153 140 126 112 106 100  99  95  91  92  94
 226 222 229 233 232 236 241 235 233 253 149   3   0   2   2   1   3   6   3   0   0   0   1   1   2   2   1   3   4   8  12  14  16  17  20  26  28  24  28  34  28  38  43  39  28  17  25  45  38  24  26  35  32  29  39  32  45  20  19  39  35  33  35  37  26  17  16  19  20  16   8   5   4   0  44 175 203 233 247 210 171 153 142 130 121 109 102 100  93  90  94  99
 212 216 227 232 238 241 242 234 244 169   5   0   1   1   1   1   3   1   0   0   2   4   2   4   5   5   7   8  10  12  15  17  17  15  12  20  25  35  26  26  37  39  43  48  51  45  24  33  40  36  28  35  49  42  42  33  46  24  25  35  39  40  35  31  28  21  23  31  25  18  15   7   4   2   0 111 229 227 242 208 169 154 140 125 117 110 105 103  93  93  92  96
 206 211 216 221 230 240 233 236 206  25   0   1   0   0   2   0   0   0   2   4   3   2   1   5   6   7  10  14  15  17  22  25  27  28  27  23  20  21  33  23  22  43  44  48  47  47  48  35  34  39  35  39  48  45  43  41  43  29  35  31  41  37  27  30  30  23  28  25  24  24  16  10  10   3   0  17 170 235 237 206 167 155 142 125 113 112 109  96  92  95  92  93
 211 213 216 212 213 223 230 232  74   0   2   1   0   0   2   0   0   2   3   3   2   5   6   6   6   7  15  20  25  23  19  25  27  27  29  34  43  33  25  31  31  29  34  40  47  42  41  49  37  40  46  50  41  48  51  50  44  32  37  42  40  29  27  33  35  34  31  31  32  26  20  25  25  13   5   0  44 205 233 209 173 157 142 130 119 113 107  99  93  92  94  92
 217 218 212 196 191 200 235 139  19   5   2   1   1   2   2   0   0   3   3   1   4   3   2   3   6   9  13  16  21  30  33  30  35  37  25  23  33  44  39  39  39  35  28  31  43  46  38  42  43  54  55  58  47  51  58  55  47  47  47  42  41  34  39  42  39  39  36  38  33  31  27  35  31  17   9   2   0 105 235 213 177 159 140 126 114 105 101 102  97  92  95  89
 226 225 200 179 179 194 178  62  18   1   0   0   1   3   2   1   2   3   2   2   3   3   6   6   9  14  21  24  27  31  40  44  39  50  44  32  33  29  35  50  51  47  50  34  38  51  43  46  51  61  62  58  56  55  63  58  56  63  49  45  50  47  48  45  38  37  38  40  33  31  29  32  29  19  10   5   0  25 212 216 172 155 141 125 108  98 101  99  95  96  91  86
 234 225 212 202 202 209 119  40   0   2   1   0   1   2   1   1   2   0   2   4   6  10  18  27  27  23  27  34  39  48  49  49  51  50  54  46  46  46  34  47  63  63  68  58  41  52  55  50  65  71  80  75  70  72  75  77  75  64  56  61  65  61  55  51  49  49  51  42  37  38  41  43  34  18   7   4   2   0 142 218 167 152 139 122 111 103 101 101  96  95  89  87
 232 231 232 224 224 181  49   6   1   1   1   2   5   1   1   1   1   4   4   8  13  17  27  37  45  46  42  47  52  57  67  62  60  60  60  50  48  68  63  58  67  72  88  77  58  61  77  74  88  99 105 107 100 102 108 109  83  78  84  82  77  70  67  68  63  57  54  49  44  38  40  40  38  25  11   4   1   0  68 205 165 148 133 123 108 104 100  99  95  87  88  91
 237 238 239 239 247 118   0   1   1   1   0   2   3   2   4   1   1   2   9  16  24  29  39  50  62  67  66  68  73  75  84  86  76  72  79  74  67  79  82  86  93  87 102 106  90  89 110 119 124 131 134 136 129 125 129 123 117 109 104  98  92  93  92  87  73  72  78  72  58  41  35  40  38  24  12   6   1   0  12 163 167 139 124 116 104  95  91  94  92  86  88  89
 241 243 245 248 246  63   0   2   0   0   0   1   2   1   1   1   3  20  38  47  62  68  67  69  72  74  88  97 104 102 100 108 111 106  96  98  99 105 113 120 124 113 115 123 129 127 139 141 149 159 158 153 148 154 147 154 147 130 118 117 122 129 127 113 104 100 101  91  74  53  35  36  42  33  20  10   1   0   0 125 169 138 130 116 107  99  90  89  89  86  80  79
 245 245 247 253 217  24   2   1   0   0   0   0   2   1   1   7  26  43  50  70  93  99 102 107 101  97  97 109 118 124 127 120 126 140 137 127 126 126 132 142 138 140 147 143 143 145 161 164 172 173 173 173 175 171 163 161 155 149 145 144 144 143 139 134 134 130 120 109  98  76  52  36  34  43  22   7   1   0   0  79 168 143 145 121 110 103  95  88  87  86  80  79
 245 244 246 255 157   1   4   0   0   0   1   1   1   0   6  25  34  51  70  89 103 109 117 121 123 127 124 130 133 141 145 144 145 149 151 155 160 151 144 150 157 164 167 159 156 166 169 167 172 175 186 187 175 167 171 170 167 165 161 154 154 155 151 151 153 145 138 133 123 102  72  59  48  43  34  11   1   0   0  17 139 140 120 115 107  93  93  92  89  86  83  82
 248 245 244 253 101   0   3   1   0   0   1   2   0   7  22  39  52  71  95 108 110 114 125 126 132 133 136 137 136 143 153 156 156 160 166 170 175 176 171 167 173 179 181 176 171 175 172 171 177 187 190 186 186 185 186 178 176 178 172 169 166 159 155 153 158 156 147 144 143 134 107  78  71  51  34  15   4   0   0   0  68 142 117 110  99  92  97 100  88  83  82  79
 249 245 243 245  60   2   6   1   0   1   2   1   5  16  28  48  69  85 109 111 115 115 128 132 134 137 137 143 141 151 161 162 161 167 174 173 173 179 179 178 183 187 185 183 185 187 188 190 191 192 193 192 193 190 187 185 188 187 179 177 176 169 156 152 150 156 153 150 151 141 123  89  76  58  33  18   4   0   0   0  20 130 121 108 103 103 101  94  81  77  77  78
 247 246 251 216  30   9   8   3   1   1   2   8  11  19  36  58  77 104 113 117 114 121 134 136 135 143 143 140 145 159 163 165 167 173 176 178 180 182 181 188 186 183 183 188 191 193 195 198 197 194 195 200 193 189 187 187 188 186 182 179 177 172 167 164 158 155 160 150 145 143 133 104  78  67  42  18   9   0   0   0   2  97 128 111 106 103 102  95  83  77  79  82
 241 242 254 183  13  12   8   5   6   3   3   9  13  24  42  61  86 109 109 115 115 121 131 132 141 143 140 139 150 157 162 164 165 174 181 182 184 184 187 186 184 183 186 193 197 198 200 200 199 201 197 200 197 191 192 188 187 185 182 178 173 172 169 165 160 158 161 154 139 140 141 120  91  76  54  23  10   5   0   0   0  57 130 113 110 106  99  90  91  85  83  86
 242 241 254 178   9  13   6   9   6   3   6   7  18  31  51  67  92 109 110 113 119 125 128 134 135 137 142 144 152 158 166 172 174 176 183 183 186 189 191 184 193 200 199 196 198 197 192 188 187 186 184 183 188 188 188 188 182 186 183 177 175 172 168 165 163 160 159 159 146 134 127 120 109  83  58  34  10   7   4   0   0  30 120 116 109 109 107  98  94  92  92  90
 244 243 254 162   4   5   1   2   1   6   6  14  28  43  55  71  93 102 108 117 127 130 129 134 136 145 147 149 154 159 168 172 171 176 177 176 181 182 175 176 182 185 187 181 182 178 175 179 184 188 189 190 189 186 190 189 188 187 182 178 176 174 171 167 171 162 158 158 150 138 126 113 107  93  62  38  16   3   3   1   0  10 109 120 115 114 107  99  96 100  97  85
 244 244 255 159   1   0   1   2   5   8  14  23  34  46  59  73  88  98 112 122 130 128 130 134 137 146 149 149 150 156 162 167 166 175 174 185 187 183 183 181 182 182 182 182 183 186 186 189 189 190 188 187 192 188 190 189 187 183 181 180 182 175 172 171 172 166 157 155 148 138 129 120 102  85  68  48  27  13   2   0   0   0 100 131 118 112 106  95  92  95  91  83
 243 245 254 134   0   1   4   8   4   5  15  26  38  53  72  80  86  99 112 121 131 126 129 135 136 147 149 143 142 155 157 159 165 170 176 188 183 182 181 176 181 188 188 187 186 185 183 186 186 184 182 184 192 194 190 184 185 188 188 187 185 181 178 171 169 164 157 151 147 136 138 125 104  89  63  51  37  23   8   2   0   0  90 146 121 110 108  98  92  91  88  80
 245 248 246  92   0   6   7   1   0   9  18  30  45  55  71  80  86  99 111 121 132 130 129 132 141 146 145 143 152 159 159 161 165 174 177 177 178 175 175 176 177 181 183 184 183 180 178 182 178 173 171 171 172 168 170 172 170 173 176 177 176 178 177 172 174 168 158 150 149 137 133 129 112  98  77  50  36  37  25   6   0   0  60 147 129 116 109 104  97  90  86  81
 246 249 230  48   0   8   0   0   7  12  22  33  45  60  75  78  88  98 108 123 135 133 126 130 140 146 145 147 155 159 158 161 162 166 168 173 171 168 170 171 174 178 181 182 184 182 182 181 175 179 179 173 168 164 166 169 170 166 165 164 160 165 167 166 166 167 159 149 147 143 136 125 114 100  84  62  40  19  22  16   3   1  21 132 128 114 105 106  99  95  93  85
 246 251 213  19   1   0   2   8   9  10  24  37  51  62  77  85  90  98 108 126 133 131 129 131 140 146 145 146 151 155 157 159 158 160 165 173 176 176 169 172 182 184 186 191 192 190 184 181 176 173 173 170 164 166 172 168 166 169 171 172 169 161 165 170 163 158 155 148 146 148 148 134 114  97  81  68  51  31  12   9   6   0   0 100 133 116 103  97  91  94  96  85
 245 253 201  11   1   7  14  10   8  14  22  36  48  61  80  94  93  96 115 127 130 135 137 133 132 136 141 145 143 146 145 146 148 145 148 157 160 153 154 158 163 170 170 170 169 169 170 167 162 166 169 165 167 167 169 169 167 165 166 165 168 166 165 167 166 157 152 143 132 149 152 141 127 110  84  62  53  41  27   7   2   1   0  77 134 115 111 100  91  95  88  77
 242 250 185   6   4  13  10   7  11  13  24  39  51  66  87  97  91  99 116 124 131 137 141 133 128 132 140 141 143 142 142 146 146 150 156 156 155 155 155 160 170 175 170 171 173 173 179 172 171 175 171 171 171 172 175 179 177 170 165 166 167 168 164 167 166 154 158 151 140 146 148 145 136 127 105  73  48  31  21  12   4   0   0  65 140 118 113 104  99  97  86  78
 238 248 174   7   9  11   8  10   8  12  27  49  69  84  98 101  97 101 114 124 129 132 136 130 135 136 134 138 142 141 144 147 151 157 163 164 166 169 162 167 169 169 168 164 169 169 176 171 168 178 179 177 177 173 171 172 172 163 164 169 163 161 168 166 165 158 154 151 155 153 148 151 148 135 119  91  65  44  23  10   6   3   0  35 135 124 114 108 102  94  84  81
 235 245 174  13  16  10   7   9  13  17  34  56  77  92 101 104  99 100 113 120 125 126 127 135 137 137 132 136 143 141 148 155 156 159 165 167 175 173 167 168 176 170 163 162 166 173 179 175 176 180 172 173 175 173 171 174 176 176 177 176 173 161 166 172 165 159 151 147 156 152 150 144 150 144 138 113  76  57  38  21  12   4   0   2  83 128 116 106  97  91  82  82
 233 243 185  19  16   7   8  12  10  14  33  60  83  92  94 102  96  99 116 119 117 123 134 138 132 130 142 143 134 139 152 157 157 163 170 169 175 175 167 171 177 173 163 166 173 177 178 177 171 176 185 188 191 190 186 182 183 179 180 177 173 171 171 175 178 170 159 145 148 150 153 144 145 144 145 136  96  60  44  25  15   6   1   0  32 124 113 101  95  90  90  87
 209 223 183  22  11   9  11  12  11  22  38  69  89  92  94  99  96  98 115 108 104 125 145 143 136 139 147 143 145 151 163 164 163 171 174 170 174 180 175 183 185 183 180 184 189 186 187 184 183 188 192 195 198 197 194 192 193 194 191 192 182 177 175 171 172 176 174 154 141 146 152 144 139 144 148 134 117  70  48  39  21   7   6   0  12 108 113 100  98  96  88  85
 211 216 180  27  12  13  14  13  19  26  31  67  89  93  96 101  99  97 104  98 110 136 147 141 144 149 154 158 159 160 167 168 172 171 173 173 176 187 184 185 187 189 185 190 193 186 186 191 195 199 197 199 197 195 192 196 194 197 200 194 194 188 182 174 164 167 169 160 145 139 149 143 139 147 142 123 118  81  47  38  32  13   7   1   7 101 116 106 105 104 104  94
 213 218 189  38  12  14  17  15  19  20  33  63  88  93  96 102 101  98  94 110 118 122 130 132 142 150 154 158 159 157 155 164 171 165 171 177 174 175 188 189 190 183 180 178 182 180 175 185 194 198 194 193 189 190 187 182 178 179 175 174 175 178 166 156 137 133 147 150 142 140 144 138 138 153 138 124 120  93  60  44  40  24   4   0  24 114 114 109  99 119 188 125
 203 205 187  49   9  15  17  15  15  22  35  63  86  95  96  99 103  97  94 105  92  88 101 110 121 131 140 131 122 105 116 130 141 147 154 167 170 172 174 187 186 175 182 186 181 176 163 179 185 183 186 185 172 162 142 120 118 128 122 132 135 150 151 146 147 143 143 134 138 145 139 135 142 153 137 132 120  98  75  45  40  31  10   0  20 123 119 108 100 113 146 107
 203 205 194  60   6  20  16  12  13  21  39  64  87  95  98 100 103  89  96  92  89  81  90  96  99  96 104 107 105  91  96 110 111 118 121 137 150 161 167 174 179 173 179 185 191 180 161 168 166 161 168 168 144 117  92  90 101 104 109 126 134 146 152 152 144 145 141 131 124 142 137 127 144 153 135 136 125  98  79  46  43  38  16   1  11 123 131 113 107 105  99  93
 206 204 198  88  12  23  14  14  13  22  42  60  85  97  99  99 102  92  94  90  83  88 101 112 107 108 112 116 117 117 108 103 103 115 117 120 129 143 155 164 163 171 185 192 194 189 171 154 148 142 142 140 125 101 101 116 125 140 153 162 174 178 176 167 150 133 118 117 117 138 145 130 143 144 130 136 126 101  79  51  30  39  18   1  28 126 122 113 110 104 102  97
 212 210 210 120  26  34  16  14  13  25  42  66  80  95 100  98 101  96  88  93  86  86 114 125 126 136 145 156 150 143 133 124 114 106 112 116 115 128 140 149 156 169 179 190 194 190 187 170 145 129 119 109 102 110 119 133 134 151 178 185 189 181 179 164 156 148 122 125 133 136 143 132 140 134 136 139 129 105  73  56  35  21  18   1  48 125 109 108 107 103  93  91
 221 219 222 148  36  38  21  16  15  26  52  64  78  91 105  97  96 102  89  87  90  94 113 131 139 147 147 151 161 158 153 155 142 121 111 104 106 110 118 129 136 158 168 179 186 186 185 177 144 114 104 106 117 132 146 152 155 166 181 183 183 184 181 173 159 146 140 132 131 125 136 137 135 142 152 139 128  97  63  44  42  13  13   5  67 109 104 107 107 104  98  89
 233 231 234 184  39  41  34  13  16  34  49  68  83  86 101 103  95 108  97  89 108 110 116 125 133 141 143 151 163 176 177 173 165 158 148 129 109  97  96 101 112 142 160 171 178 181 178 170 142 119 121 134 143 141 133 128 134 157 179 186 185 189 179 170 171 161 156 148 131 126 152 144 136 160 152 137 123 106  66  30  41  15   8  20 115 120 102 105 103 101 100  94
 235 237 237 206  52  27  20  13  20  41  48  65  83  89  88 107 101 112 113 111 114 112 115 116 123 133 142 137 128 141 131 103  88  92 103 125 129 114  98  87  94 136 156 168 176 180 179 171 141 128 134 135 116  94  70  62  62  76  78 114 110 116 136 157 170 161 150 143 152 159 151 132 150 149 133 135 116  96  76  30  26  32  33  34  84  98 100 100  93  89  88  87
 231 232 228 230 111   5  17  11  26  36  41  58  78  93  88  97  98 104 108 119 117 119 118 122 121 103  83  72  49  29  52  15  20  31  49  63  83  95 103  94  90 128 151 161 167 176 171 159 127 112 104  99  94  76  93 114 148 149  51  50  15  16  34  55  92 131 132 139 151 133 128 157 141 124 140 143 114  77  76  52  17  22  34  33  91 101 105  96  92  84  78  79
 234 234 227 207 130  17  21  16  22  27  36  58  80  87 103  91  98 113 102  98 107 112 104  82  62  55  52  72  61  44  61  53  65  81  95  68  69  87 102  94  91 127 147 161 167 164 161 152 124 117 119 118 112 103 122 133 133 130 105 102 108 117 111  92  56  75 110 139 132 119 148 141 133 144 154 135 117  81  83  63  41  35  30  31  97 133 117  89  87  87  83  80
 239 237 234 224 161  51  27  20  26  29  36  57  74  80  99 100  91 100 113  94  91  89  74  73  85 105 118 121 119 123 130 135 122 117 120 102  94  97 120  87  91 132 148 160 170 171 157 144 129 129 168 140 119 125 118 118 123 124 140 144 147 144 146 142 143 128  93  91  96 116 141 155 158 138 131 127 123  90  73  56  52  53  52  31  73 137 110  86  86  86  81  77
 241 242 237 236 213 101  34  24  26  26  39  54  73  78  90 106 106 104 100  90  65  63  80 106 139 141 136 142 142 149 154 150 138 124 123 129 145 121 107  82  93 132 151 155 160 163 153 141 135 130 159 159 157 141 128 124 124 141 155 156 152 144 144 154 143 131 139 128 132 148 158 157 149 134 120 121 118  85  74  39  57  73  53  59  53 119 100  86  83  80  77  74
 246 244 239 231 224 148  34  21  25  23  38  55  68  80  89  89  93 111 109 102 113 118 102  87 112 131 144 140 142 151 154 151 143 140 143 145 142 124  91  82  95 135 150 147 151 152 143 140 149 141 143 156 145 133 135 131 129 136 152 154 147 148 159 151 136 138 135 148 160 170 165 163 157 148 143 135 120  83  74  36  48 116  78  60  78 127  91  79  83  75  77  76
 244 242 239 237 240 195  63  22  24  31  47  56  73  87  94  91 120 137 126 137 148 141 134 127 122 117 128 142 149 150 150 139 132 134 136 142 127 107  89  85 102 138 146 151 167 162 143 143 162 153 147 150 143 136 133 124 127 130 138 144 144 147 138 133 134 140 153 155 148 149 160 160 167 154 134 132 113  82  59  42  45 119 111  62  84 138  88  75  76  78  77  75
 248 248 246 243 238 226 123  36  26  35  50  62  75  84  93 103 120 114 127 135 124 127 145 158 165 152 131 117 118 117 115 121 128 133 148 151 125 105 100  86 105 134 148 158 168 166 149 138 156 157 155 163 164 160 150 143 140 134 124 125 123 120 130 151 162 166 172 168 159 147 150 158 149 154 144 125 106  81  67  50  48 112 122  88 112 119  74  77  71  71  77  76
 250 252 253 253 245 241 180  53  37  38  45  60  76  79  92 111 106 120 124 118 119 134 151 160 163 167 164 157 161 156 155 157 159 165 172 154 124 102 100  87 101 126 148 158 160 164 152 140 147 163 164 161 162 164 171 174 173 177 167 165 160 157 167 164 161 159 173 174 170 156 140 144 145 140 142 128 106  85  77  54  51 118 128 116 135 101  74  83  78  78  77  74
 254 255 254 252 248 241 216  92  40  38  47  52  71  82  94 106 107 129 118 104 126 143 157 164 162 164 167 173 172 164 171 175 169 178 167 136 114 102  96  90  98 124 149 160 163 158 153 145 143 158 174 168 168 166 169 171 170 172 172 173 169 161 161 164 166 173 174 173 171 164 146 132 134 141 137 132 114 105  81  60  54 116 134 146 132  79  77  80  79  76  77  75
 255 254 255 252 248 239 222 117  56  46  59  54  70  82  94  97 115 126  99 113 137 147 159 167 167 169 175 176 171 166 168 174 169 164 139 114 111 108  99  92  98 129 153 166 171 163 157 146 139 145 172 170 170 171 181 183 179 178 172 168 162 157 159 166 173 177 178 170 168 165 156 142 133 136 141 130 112  89  88  63  71 120 148 154 115  73  72  71  74  72  74  78
 255 255 255 252 246 238 222 135  96  62  51  59  69  85  89  99 113 104  95 123 131 144 159 171 173 173 171 173 172 169 172 173 174 157 132 126 116 106  98  91 107 136 155 166 170 163 162 157 151 140 150 163 159 163 175 179 188 188 182 178 170 167 168 170 176 175 175 176 174 167 156 142 137 127 143 131 105  84  91  72  98 154 168 154 100  71  68  65  68  76  77  73
 254 255 254 253 245 235 222 134 103  72  50  60  68  83  85 101 116  92  99 121 129 148 161 168 169 170 169 175 176 174 175 182 182 166 139 126 112 101  96  92 110 134 153 164 170 167 169 170 160 146 133 147 151 157 163 167 177 178 178 178 173 173 174 178 180 177 184 189 177 167 157 142 132 122 138 136 105  88  85  95 143 165 168 146  90  72  69  67  67  78  75  69
 247 250 250 249 241 226 219 137 105  98  58  61  61  82  89  97 110  91 101 117 133 148 162 168 172 180 171 174 170 170 173 176 177 162 133 107 100  99  92 101 113 141 160 169 169 178 184 175 166 151 139 137 142 147 159 168 172 164 164 166 162 166 168 178 182 182 186 192 180 168 156 144 130 124 130 132 101  91  81 106 147 169 166 144  85  78  75  71  69  67  72  73
 245 246 244 239 232 223 215 139 116 130  69  58  61  76  90  99 104  93 101 116 133 144 160 173 181 184 175 175 170 171 174 172 169 145 112  97 101  95  91 104 119 151 172 177 175 187 197 178 168 151 147 144 149 143 140 155 167 160 150 153 154 160 165 176 185 188 184 186 179 172 163 150 127 124 125 123 103  83  77 109 159 180 162 139  92  79  69  65  72  72  72  72
 238 237 235 233 233 227 220 146 108 139  85  59  56  68  87 105  99  92 101 117 126 135 159 171 181 185 178 173 174 170 163 154 142 136 108 103 103  94  96 104 124 155 186 187 186 194 192 176 166 153 153 149 155 155 144 139 167 162 137 131 141 150 158 167 175 179 179 181 178 168 162 155 130 116 119 117 105  89  71 104 172 176 159 139  98  81  71  67  75  77  70  73
 235 239 240 240 243 238 225 146 107 123 102  73  57  70  85 101  94  92 100 112 131 143 152 163 180 183 175 166 168 158 143 137 136 132 104 106 100  96  99 104 130 163 187 191 200 188 179 171 155 149 147 147 152 155 146 133 159 164 153 120 111 131 143 160 168 176 178 176 173 163 162 155 130 116 118 118 111  86  67 115 165 165 166 141 112  88  74  70  72  71  66  72
 240 239 233 230 232 239 231 141 110 108 136 105  59  76  87  92  92 100 103 115 131 142 150 157 174 179 170 161 154 139 131 142 140 132  99  99  95  96  93 102 134 158 165 163 178 179 172 152 131 126 113 107 121 138 125 129 158 166 164 156 126 104 121 138 160 169 170 167 168 164 162 152 131 116 118 120 117  91  82 143 158 164 171 145 124  91  69  67  72  71  71  75
 228 230 229 229 231 239 238 146 103 119 158 133  75  81  86  87  92  99 105 109 129 140 150 157 164 162 156 149 133 121 140 138 129 129 101  83  77  76  80  83 109 140 147 140 140 154 142 124  97  64  55  65  74  86 111 153 165 170 165 162 161 136 109 110 133 150 158 162 160 160 165 150 128 114 114 122 119  91 107 172 168 163 166 153 143  99  75  68  66  68  69  68
 233 235 234 232 233 239 237 153 111 125 152 140  88  82  87  87  94  96 103 110 123 139 144 151 159 154 132 108 115 146 137 129 122 123 113  80  61  53  55  53  67 106 131 132 120 112 108  91  77  91 107 100  89 107 149 157 158 165 167 163 160 160 141 111  99 123 146 154 158 160 159 154 132 117 113 120 124  90 124 198 175 172 159 160 163 108  79  74  68  67  64  66
 231 234 231 231 238 237 241 171 127 122 133 128  81  81  96  95  97  98 104 113 126 140 147 153 151 124 102 119 145 144 128 126 121 117 116 112 105  98  82  72  55  61  95 116 117  91  85 108 131 126 133 128 128 146 149 153 159 158 164 164 159 159 158 139 108  94 114 141 150 158 154 150 133 118 118 120 126  98 126 186 175 183 163 170 185 129  90  77  70  72  67  67
 235 238 238 238 236 234 244 174 134 134 120 117  81  80  98 103  94  93 106 112 121 135 145 147 119 105 130 146 142 128 124 120 116 117 116 111 114 109  94  91  93  66  60  73  83  97 128 125 129 132 127 133 133 152 150 144 156 154 155 158 163 163 158 153 135 112  94 111 140 154 151 147 136 117 120 122 121 103 114 171 181 187 158 177 204 152 106  84  78  74  70  66
 234 232 229 228 227 231 233 165 125 142 122 113  82  82 101 103 101  93 107 114 126 137 139 118 102 123 143 149 131 118 115 111 108 114 111 109 115 110 105  92  94  94  85  69  97 134 136 130 143 147 140 141 139 145 145 142 145 153 163 162 161 156 150 149 153 141 117  94 119 145 157 152 135 121 124 123 117  96 106 168 185 174 160 179 213 172 125  95  85  76  70  70
 225 220 218 218 217 217 219 180 122 143 132 108  73  89 100  98 109  93 105 118 127 137 127 106 118 137 144 140 123 121 113 111 110 104 101  97 105 107 114 117 109 109 121 125 123 133 142 146 153 159 144 145 142 155 146 148 150 151 165 164 156 151 155 155 155 157 127 100 109 145 153 148 134 128 127 129 117  98 102 168 176 172 148 177 217 196 152 113  90  73  67  70
 231 232 230 226 223 220 223 197 124 145 118  97  76  87  93  96 116  99 100 119 128 134 125 132 149 138 146 130 119 112 111 117 112 107 112 110 107 106 113 125 120 130 142 156 161 160 165 149 149 162 151 155 161 155 151 164 160 151 157 165 144 149 151 149 151 147 140 113 101 144 149 150 137 132 129 131 114  97 100 154 167 174 148 177 214 216 180 134  97  77  68  66
 233 236 231 227 224 221 223 217 135 107 109 112  84  89  89  99 121 106  95 113 123 141 124 123 156 148 143 128 116 118 112 118 118 117 116 128 120 118 113 117 142 149 155 168 162 174 164 156 160 158 153 160 165 162 158 161 165 163 160 164 147 145 147 139 139 149 161 125 105 150 152 146 131 132 136 138 119  93 106 151 154 151 146 188 205 227 204 153 108  87  75  68
 227 229 227 225 225 225 227 231 172  93 118 125  83  87  95 104 125 108  91 115 130 148 132 107 137 142 133 124 125 120 113 120 123 123 127 129 123 122 124 128 143 162 168 172 171 183 181 167 159 159 158 162 160 162 173 171 169 161 150 148 139 123 126 142 145 152 155 127 125 155 154 137 131 139 137 140 120  91 117 178 155 134 146 177 193 228 226 181 128  95  79  76
 211 214 212 210 207 203 200 208 204 121 105 117  84  89  93 105 128 113  86 111 134 155 151 116 117 132 120 108 105 104 104 104  97  88  90  86  86  94 102 106 104 119 141 152 168 188 185 161 148 133 124 121 119 119 107  91  78  72  60  65  63  62 105 145 143 142 153 127 149 163 153 137 136 140 141 134 120  88 113 171 156 122 147 151 173 219 235 203 152 106  84  75
 214 212 208 198 189 182 181 182 181 159 105  89  72  83  93 105 128 120  77 100 128 153 164 143 112 115 116  94  72  62  45  34  22  33  32  35  69  66 112  69  98 106  91 106 113 114 118 126 120 103 142 130 118 167 108  95  48  53  30  13  60 122 152 153 147 150 155 145 164 159 142 139 137 147 142 131 123  91 104 132 119 132 148 144 160 204 236 221 171 120  92  77
 229 224 216 204 194 190 192 184 169 167 154 136 114  79  95 102 123 126  88  98 115 141 172 172 140 125 120 121 124 108  72  32  17  35  51  75 163 148 207 155 191 195 162 195 204 145 167 222 236 194 234 224 224 232 202 189 146 136  91  94 167 177 160 156 147 150 164 172 162 153 132 119 141 152 145 139 119  94 103 115 124 136 135 135 138 184 234 236 188 133 100  79
 222 223 221 216 206 192 192 187 176 168 159 154 134  88  81  96 113 132  95  82 105 128 151 172 162 132 112 115 131 122 119 104  60  45  71 128 189 185 212 202 212 224 189 235 253 226 223 251 250 230 239 230 244 221 219 201 160 123 136 170 173 166 168 163 148 156 172 173 159 146 131 129 149 157 142 133 109  94 113 124 115 112 113 113 119 159 223 244 209 149 106  85
 219 220 216 205 194 190 191 196 196 183 170 162 152  92  71  92 110 126 119  78  93 110 130 153 163 136 112 124 126 131 132 130 126 110  89 116 169 168 202 192 212 227 201 246 255 233 238 252 246 222 232 211 208 191 162 145 132 153 169 163 165 170 168 156 153 163 168 165 159 144 128 143 165 160 146 133 107  89 124 129 116 107 101 102 114 139 203 248 231 170 121  92
 214 213 207 192 185 185 183 181 187 182 167 163 165  99  75  83  96 109 128  88  79 106 120 141 156 160 133 123 126 131 147 142 121 125 116 107 121 125 177 124 118 147 133 192 200 170 154 173 172 136 160 156 132 138 133 150 161 162 159 162 174 172 163 148 152 163 162 165 157 144 140 159 157 146 146 128  99  91 141 132 121 115 110 106 117 136 189 246 245 195 138  98
 207 218 217 207 197 198 203 198 187 175 161 156 149 103  78  83  98 112 135 121  81  90 118 142 152 159 147 126 125 128 145 148 130 117 116 116 117 122 124 101  75  60  55  59  61  62  85 102 116 129 142 147 155 160 159 154 159 161 163 177 176 167 155 160 166 164 165 153 149 144 145 164 155 135 130 112  85  97 148 142 128 119 116 116 129 149 187 240 253 217 154 106
 224 223 218 218 223 217 210 206 197 190 180 170 154 116  74  73  86 110 128 133 103  82 102 130 155 160 148 137 128 120 138 144 137 124 113 112 118 126 120 121 134 136 138 133 134 144 154 163 158 164 176 172 164 159 156 152 155 163 172 176 171 162 151 158 165 163 163 153 145 142 154 155 146 146 121  91  83 112 157 150 132 118 119 127 140 158 183 228 254 237 173 115
 223 220 228 236 224 206 202 203 195 185 175 163 168 133  77  65  62  82 113 129 124  93  87 108 144 151 144 154 135 122 124 137 142 132 108 103 113 115 113 105 126 133 150 164 169 171 167 174 164 154 167 160 152 155 153 157 157 166 172 167 167 156 157 161 167 172 158 155 148 139 158 153 141 139 110  88  78 107 155 149 133 119 118 124 138 158 179 215 250 249 193 127
 213 226 234 233 213 205 208 206 198 189 173 155 156 128  91  62  61  79 102 116 117 110  96  89 117 144 141 144 148 142 129 129 136 140 116 103 107 108 110 112 124 131 140 160 165 157 156 160 151 147 149 153 158 150 144 149 158 162 165 163 163 158 162 155 170 167 150 145 141 139 148 145 140 126 101  83  72 113 160 145 132 121 118 128 137 158 180 206 243 252 213 144
 176 222 230 227 216 205 210 212 207 197 182 176 161 133 106  70  64  74  92 106 122 127 116  90  89 122 128 145 142 144 142 121 129 136 132 117 112 109 110 123 129 137 141 140 135 139 153 148 143 145 145 147 152 147 147 158 161 155 161 161 160 166 170 160 161 150 134 123 142 146 143 134 132 113  89  76  79 149 167 151 140 128 122 129 138 155 184 208 235 252 234 162
 152 208 229 221 212 209 208 207 205 194 186 185 172 158 124  79  65  62  77  96 121 129 117 108  89  97 125 134 142 143 150 134 127 129 130 124 120 108 112 117 114 127 138 137 134 131 148 145 149 147 137 149 159 156 156 163 160 159 166 161 161 165 164 166 158 136 122 129 142 146 152 139 127  99  81  76  92 168 169 164 149 135 131 133 141 160 192 214 229 249 245 180
 173 196 228 223 215 211 205 201 198 195 195 185 176 164 129  82  68  62  71  85 111 125 121 118 111  75 103 116 131 144 153 143 132 123 128 126 125 120 121 118 119 129 133 132 137 128 150 155 154 163 157 165 169 166 169 164 165 166 166 167 159 162 159 162 155 135 119 134 144 142 146 135 110  89  87  75 124 177 172 172 153 140 138 142 159 179 200 216 227 243 251 201
 189 196 221 223 210 203 205 213 218 218 209 203 191 171 134  82  78  64  67  69  92 113 115 128 118  84  85 110 119 134 147 147 139 127 128 131 131 126 130 137 139 143 143 136 148 147 156 156 156 171 169 168 164 162 172 168 167 167 167 173 158 154 161 171 165 133 142 146 143 138 136 119  94  88  90  73 159 185 185 176 157 140 133 150 181 195 207 221 227 240 251 224
 175 205 219 227 212 214 225 233 229 221 214 215 206 189 160 104  77  71  64  66  78 105 122 135 128 113  81  86 107 122 133 141 144 144 137 135 139 131 132 141 141 147 148 152 158 157 155 157 169 170 174 175 169 168 168 174 167 168 163 158 153 152 165 162 139 128 132 147 158 148 137 105  85  88  75  96 188 192 189 174 162 144 145 174 202 212 215 222 224 234 247 236
 137 209 219 236 224 212 209 211 216 226 223 220 224 214 182 135  80  81  72  64  70  84 109 123 127 128  98  61  85 105 119 139 141 145 145 140 146 140 144 148 137 140 146 153 151 158 168 164 172 171 177 180 182 176 174 178 171 162 165 160 155 152 171 146 135 111 142 148 160 155 126  85  81  80  66 132 197 191 186 174 165 159 173 200 220 224 221 224 226 229 241 243
  98 196 219 222 222 210 211 223 238 244 241 223 216 221 206 182 103  78  85  67  62  66  90 111 117 120 113  78  77 101 120 137 148 150 147 142 152 150 152 143 148 163 154 134 146 160 167 167 169 170 181 178 174 173 169 181 173 168 161 155 158 150 161 141 119 113 151 173 149 132 100  83  83  66  80 166 196 190 184 176 176 180 194 217 227 229 225 225 229 229 236 246
  73 161 218 205 233 245 247 246 246 246 249 239 222 223 207 192 150  78  85  84  65  61  70 101 116 116 114 105  79  92 113 125 144 149 148 148 152 154 145 140 143 152 151 151 147 159 163 157 164 168 167 163 155 152 149 158 161 175 160 153 150 160 159 145 113 135 156 150 141 123 100  87  80  77  94 180 192 190 183 180 187 193 202 223 231 231 229 227 231 230 233 245
  82 121 214 203 219 249 247 243 245 247 249 248 237 222 201 190 176  98  73  92  80  71  62  82  98 108 120 120  76  68 105 118 127 142 156 159 149 147 133 134 132 138 147 149 149 169 169 162 172 172 163 150 141 146 143 152 162 169 163 156 161 159 151 128 134 146 158 142 128 107  94  91  77  92 105 184 192 192 185 184 194 199 206 221 229 234 233 231 231 230 232 244
  91  97 190 208 201 238 244 246 249 249 248 247 240 223 200 196 195 132  68  88  91  75  75  65  80 103 117 118  96  68  93 114 130 136 148 154 151 145 123 115 127 142 150 147 159 169 167 171 171 170 166 163 158 143 154 152 150 168 172 165 166 151 132 121 108 124 148 148 117 107 105  99 103 102 108 191 197 193 179 188 198 204 213 220 229 238 236 232 231 233 233 243
  86  89 156 205 185 220 244 247 250 250 248 244 239 224 195 194 198 157  71  78  88  79  73  77  68  89 104 107 114  75  72 104 129 144 143 142 150 148 125 116 135 143 150 144 158 159 172 173 161 174 163 149 151 145 155 150 157 165 169 166 173 159 135 112 107 144 149 128 113 104 105  97 101  96 118 201 198 180 179 191 201 206 217 224 232 238 237 234 230 231 233 240
  79  81 124 201 179 196 237 243 245 244 243 240 233 208 201 202 194 176  87  75  82  88  64  79  73  68  95  99 109  90  73 100 121 128 140 137 142 149 136 129 139 140 147 158 163 171 173 162 159 164 157 128 146 156 167 152 153 160 169 163 169 159 139 115 125 149 145 116 110 109 111 101 111  96 119 204 187 176 181 196 201 211 222 228 236 237 236 233 231 231 231 237
  79  81  98 192 183 175 227 243 239 239 235 229 219 217 220 209 193 187 109  83  78  91  81  78  90  71  70  89  99 103  70  84 113 121 128 140 142 144 139 134 131 138 155 162 168 172 167 163 172 171 162 165 174 171 157 156 153 150 171 168 160 145 123 103 136 144 123 107 109 114 102  96 116  92 134 197 181 177 182 194 206 217 224 226 233 232 226 222 228 233 231 235
  82  88  92 177 181 156 212 229 228 231 228 228 228 225 212 203 195 190 108  81  75  82  89  78  89  82  62  84 109 112  88  69 103 117 132 133 136 143 139 131 135 146 153 165 167 171 175 173 177 172 173 171 168 154 156 162 163 163 160 162 153 128 118 119 133 132 115 112 111 118  98  98 109 101 154 185 180 182 184 195 208 213 223 224 229 228 221 222 228 232 231 234
  91  98  89 150 188 156 185 224 238 233 221 216 209 199 186 179 185 182 122  86  74  76  98  92  91  87  80  84  88 109 112  88  88 113 129 136 126 132 152 147 131 144 151 163 172 170 176 174 175 175 166 154 151 157 158 161 164 168 160 154 135 130 114 124 128 125 120 104 112 110 100 103 103 126 175 176 179 186 191 198 204 212 225 225 229 230 223 223 234 234 233 231
  84 107  92 124 205 161 162 232 238 210 198 196 191 189 183 178 182 165 127 110  72  87  90  93  86  83 101  77  94  98  97  93  81 105 116 131 108 128 144 146 136 148 155 157 155 149 157 152 162 161 164 157 150 152 147 157 159 158 154 139 122 111 119 128 111 111 118 107 109 107 105 104 106 177 168 168 185 188 194 202 208 219 230 232 234 233 233 231 230 234 234 233
  63 108 118 106 208 176 148 216 227 209 208 211 214 201 194 192 195 154 123 129  98  84  88  95  76  82  99  97  94  77  95  92  81  98 110 117 111 123 131 137 134 143 153 151 145 146 149 145 157 145 149 151 151 139 138 153 147 147 134 122 108 112 130 107  96 104 109 103 100  98 107  95 150 204 159 164 188 188 198 211 214 225 232 237 239 236 231 231 224 223 231 233
  74  94 130  96 192 205 142 195 225 225 229 228 224 216 213 211 209 142 123 126 124 108  81  82  79  85  90  97 100  93  77  85  90  87  87 108 113 123 126 127 124 135 143 130 139 142 144 152 155 148 145 149 147 144 134 136 127 121 105  95 107 121 110  92  95  94  97 100  88 107 106 133 208 194 157 160 198 192 209 219 219 228 232 239 242 238 229 228 226 219 225 233
  82  78 121 104 169 226 167 192 233 237 235 227 223 224 225 235 221 123 123 125 118 130 117  85  69  77  95  86  98 100  92  83  90  88  95  88 107 126 124 125 113 123 134 117 126 136 137 140 143 143 137 140 129 116 123 111 105 103 101 110 111 113  92  86 101  99 102  91 102 115 125 202 207 187 162 132 163 209 214 218 224 230 231 243 244 241 234 230 229 227 228 233
  72  71 104 119 152 234 202 200 230 231 230 229 233 232 233 242 175 124 122 127 117 127 129 127  92  69  76  94  88  98  96  92  87  76  96 103 107  99  95 108 105  98 111 111 110 116 124 123 115 118 123 112 103  95 108 100  81  97 100 113 109  94  87  93  96  97  87 105 131 121 191 212 199 185 169 131  39 124 219 221 229 231 231 244 245 239 235 235 231 228 227 230
  58  69  84 109 136 227 225 214 229 233 236 238 237 241 235 111  82 126 125 127 117 126 133 133 133 123  90  74  87  96  98 101  85  72  81  81  98  99  90  77  75  83 103  92  91  97  94  98  93  90  94  77  90  80  70  90  98 111 111  95  78  80  91  92  91  84 100 130 125 179 212 205 196 186 171 158  61   0 107 232 233 227 234 244 244 239 234 235 230 229 229 228
  66  72  85  91 117 215 232 225 236 243 244 242 245 241  97  23  97 131 124 119 123 121 124 126 133 143 153 135 100  80  79  84  88  86  75  68  79  93  99  87  84  91  93  82  76  76  77  77  70  71  75  73  81  88  91 108 110  88  69  71  80  88  85  80  80 104 136 131 176 216 205 201 194 185 172 160 103  23   4  92 224 236 236 243 240 238 237 238 239 235 231 228
  67  66  80  79  93 185 234 226 242 250 247 248 252 116  10  23  99 124 117 123 122 122 124 127 131 138 149 165 170 151 120 100  86  87  90  86  72  70  75  79  95  97  99 108 110 103 105 100 100 101  97 103 105 104 101  90  74  66  85  97  89  84  83  81 117 142 132 169 216 210 205 201 195 186 176 158 123  33  26   3  65 216 250 242 238 234 237 239 238 236 234 231
  62  62  77  84  74 138 229 233 243 252 250 255 173  15  28  29 107 122 119 119 119 122 126 129 134 140 151 161 169 175 179 176 157 135 101  73  69  69  58  50  69  82  85  91 101 101 104 102  95 101 100  99  96  81  63  67  89 107 109 104 103  98  97 128 148 133 163 214 211 210 208 204 197 188 177 155 140  65  23  28   6  44 203 255 240 234 234 235 237 237 236 233
  64  65  75  96  79  96 203 244 242 252 255 240  58  20  27  28 106 119 119 117 117 121 125 131 134 142 155 162 169 174 179 183 191 198 190 153 107  82  73  69  64  65  75  78  83  88  89  89  84  83  79  68  65  72  88 111 117 113 115 114 101 100 126 149 134 159 216 215 214 214 212 204 195 189 177 156 141 134  66  27  24   3  28 174 253 240 230 231 237 237 235 233
  66  62  67  94  95  80 154 232 238 250 255 154  13  25  27  28  96 118 119 119 116 118 123 130 136 146 154 162 166 175 182 184 184 188 194 205 201 168 126  96  83  76  80  93  93  92  92  91  90  86  83  83  95 112 121 123 127 119 115 117 119 130 140 139 163 218 220 219 220 216 210 204 196 187 179 155 140 138 134  49  30  24  12  11 130 234 237 228 233 236 234 232
