P2
# Generated by OpenCV 4.2.0
92 112
255
  40  39  38  39  39  39  40  40  41  41  40  40  39  39  38  38  38  40  40  40  40  39  39  38  39  39  38  38  38  37  33  30  29  32  30  32  32  35  30  41  28  24  21  19  29  32  23  20  20  23  26  42  44 103 168 173 183 177 173 172 186 179 158 116  76  79  91 111 127 119 103  73  41  39  39  38  39  38  38  39  39  39  38  39  39  39  38  38  38  38  38  38
  40  39  38  40  40  41  40  40  39  41  40  39  39  39  40  39  40  40  40  40  40  40  40  40  40  39  46  48  50  48  47  45  30  29  28  27  28  26  28  35  34  29  29  25  38  21  13  18  31  24  18  34  42  47 138 178 157 157 146 154 170 185 167 127  82  83  99 118 133 122 105  77  42  39  39  39  39  39  38  39  38  39  39  39  39  39  38  38  38  39  38  38
  40  40  41  42  41  42  41  41  41  40  39  40  39  40  40  40  40  39  40  40  39  41  41  40  41  56  60  48  38  33  29  33  33  37  54  49  28  27  25  30  29  37  26  23  23  18  18  29  26  21  22  25  25  31  59 118 121 115  97 105  78  76  69  65  60  86 102 113 126 121 102  69  41  39  38  39  40  39  39  39  38  39  39  39  39  39  39  38  38  38  39  38
  40  40  42  42  41  41  41  41  39  41  39  39  39  40  40  40  39  40  40  39  40  41  33  35  34  36  42  30  24  22  22  42  67  54  35  37  28  22  18  23  26  24  21  24  21  26  38  36  27  26  29  27  29  33  47  47  86  65  37  47  34  26  27  20  21  41  89 110 124 120 100  65  40  39  39  39  39  39  38  39  38  39  39  38  39  39  38  38  38  39  38  38
  40  40  41  41  41  41  41  40  40  40  40  40  39  40  40  40  40  40  40  40  42  30  30  27  21  40  35  24  23  19  23  36  50  35  30  25  20  21  15  24  30  28  28  24  27  67  77  35  31  32  26  22  30  24  30  27  19  18  35  30  20  36  42  39  49  18  54 107 117 107  94  67  42  38  39  40  39  39  39  39  39  39  40  39  39  39  39  39  39  39  40  39
  39  39  39  41  41  41  41  40  41  40  41  40  40  40  40  39  40  40  40  40  32  24  26  28  49  55  34  35  24  17   9  16  21  25  27  23  21  24  19  22  20  22  18  18  23  35  44  22  23  31  33  25  31  55  53  36  30  45  47  35  28  26  35  62  68  35  26  63 104 117  97  69  43  39  39  40  40  40  40  39  39  39  39  38  39  39  39  39  39  40  39  40
  39  38  39  40  40  40  40  40  40  41  41  40  41  40  40  40  42  40  41  36  33  30  33  41  65  40  26  19  21  19   9  21  25  24  24  24  23  24  26  20  19  14  15  19  21  20  14  28  35  36  31  32  23  50  60  41  53  46  45  46  27  30  45  36  44  66  36  23  31  84 109  75  45  39  40  40  39  40  40  40  40  39  39  39  39  40  39  39  39  39  40  40
  40  39  40  40  41  40  40  40  41  40  41  41  41  41  41  41  42  40  40  36  43  41  49  35  21  15  19  16  21  17  18  20  30  25  26  29  29  27  21  24  16   7  10  18  27  31  32  47  47  38  28  30  24  24  31  35  39  39  36  35  37  36  22  23  23  33  39  28  19  21  58  74  52  40  39  41  40  40  41  41  39  39  39  39  39  40  39  39  39  40  40  39
  41  39  40  40  40  40  40  39  41  40  41  40  41  41  41  41  39  37  34  42  34  34  27  18  21  20  19  22  23  20  18  20  28  38  30  29  28  26  19  18  25  31  49  55  41  42  40  41  50  37  20  28  22  26  43  38  33  26  25  49  47  34  50  42  37  32  27  33  29  23  18  40  55  39  39  40  41  40  40  40  39  39  40  40  40  40  39  39  39  39  39  40
  39  39  39  40  40  40  40  40  41  41  41  40  40  40  41  42  41  31  33  41  35  41  34  22  20  24  20  28  26  18  17  19  27  35  33  30  21  23  22  33  45  56  60  47  30  31  37  50  59  41  37  24  24  28  61  63  26  31  21  40  61  80  47  41  34  33  32  33  28  24  17  22  50  42  39  42  41  41  40  40  40  40  40  40  39  40  39  40  40  39  39  40
  39  40  40  40  40  40  40  41  41  40  41  40  40  41  41  44  41  29  30  45  52  62  44  12  22  29  25  29  28  17  21  25  35  29  22  21  24  23  19  23  26  15  11  31  43  31  35  42  62  65  32  29  33  36  30  53  28  25  16  21  74  51  29  39  29  32  39  38  37  31  20  21  23  35  45  43  40  40  41  41  40  40  40  40  40  40  40  39  39  40  39  40
  40  40  40  39  40  40  40  39  40  40  39  41  41  41  41  41  34  20  25  45  45  43  39  35  31  26  25  28  27  26  19  26  31  28  19  22  26  28  19  20  28  32  19  24  51  51  40  41  53  59  53  39  35  35  32  26  27  18  15  35  64  27  31  26  33  35  34  29  35  32  34  33  33  30  37  43  41  41  41  41  40  41  41  40  41  40  39  40  40  40  39  39
  40  40  42  40  40  41  40  40  41  40  40  41  41  43  41  39  24  22  29  25  66  29  31  61  34  20  22  33  28  30  33  37  16  29  25  25  31  45  37  20  29  30  29  26  42  40  48  28  29  47  58  37  42  42  46  36  41  42  19  43  45  26  31  43  41  33  36  33  33  33  34  37  36  27  42  49  41  41  41  40  41  41  41  41  42  40  39  42  40  39  38  39
  41  40  40  41  40  40  41  41  40  41  40  39  41  43  41  29  26  25  18   3  49  31  22  70  44  40  16  35  37  25  36  29  17  22  37  44  45  47  36  26  35  49  36  22  31  45  43  39  13  32  62  41  33  51  57  47  47  55  40  26  29  31  48  60  51  33  39  40  46  40  35  40  52  61  40  39  43  42  41  42  41  40  41  40  41  41  40  40  40  39  39  39
  40  40  41  41  40  40  40  41  41  41  41  37  41  39  32  27  44  22  19  12  14  17  14  64  54  51  22  28  59  37  30  25  49  77  57  46  42  32  19  22  30  40  48  45  20  55  36  51  17  29  57  46  23  40  29  43  51  38  41  50  28  33  36  42  46  41  43  43  35  31  28  26  36  53  58  35  35  42  41  40  40  41  40  40  40  41  41  40  39  39  40  40
  40  40  41  40  40  41  40  41  41  41  42  41  40  35  26  33  46  23  23  16  15  17  15  50  56  28  28  33  35  24  29  38  47  63  36  41  26  29  24  27  30  20  45  64  36  47  42  67  25  33  36  56  34  33  31  51  50  36  33  66  54  31  25  12  49  62  50  37  44  40  32  37  31  33  33  50  39  36  43  41  40  41  41  41  41  41  41  41  40  40  40  41
  39  41  41  41  41  41  40  41  41  41  41  42  46  29  31  31  50  40  21  25  19  24  21  49  66  28  16  19  29  24  29  37  20  11  11  26  21  23  37  32  24  24  45  53  67  40  61  71  51  36  28  79  49  40  83  72  54  58  30  55  67  30  32  17  42  77  47  44  68  43  27  42  40  33  38  39  57  32  42  42  40  41  41  41  41  41  42  42  41  42  41  41
  41  41  42  41  41  42  41  41  41  38  39  40  36  31  33  22  61  84  28  33  21  21  25  45  54  49  24  17  19  10  16  30  25  13   5  11  18  14  26  30  35  39  38  47  49  34  67  69  71  31  66  99  75  66  86  56  47  64  38  53  73  40  34  32  46  65  24  24  45  45  21  46  44  28  31  33  46  44  34  44  42  41  41  42  43  42  42  41  40  40  41  41
  43  41  42  42  41  42  42  42  43  41  41  40  31  31  30  24  38  88  45  34  21  19  15   9  20  35  34  17   7   9  12  19  25  19  12  11  19  24  28  29  40  64  47  66  39  40  44  45  49  40  47  67  66  43  53  40  38  48  44  58  85  48  49  40  53  33  12  19  40  47  27  47  50  28  32  27  29  41  21  33  44  42  41  42  42  41  41  41  41  40  40  40
  42  41  41  42  41  42  42  41  42  42  44  37  19  22  24  22  23  32  26  15  20  29  19  13  44  42  49  37  12  14  27  22  28  32  34  29  31  41  50  47  53  78  73  78  49  61  42  45  63  35  31  49  38  31  42  32  30  36  58  62  85  58  74  58  46  27  17  16  21  44  32  42  54  36  27  28  18  26  23  19  32  43  41  42  41  41  41  40  41  41  41  41
  42  42  42  42  41  42  42  43  45  44  42  28  16  19  16  13  14  16  15  17  24  43  42  18  39  58  47  42  41  40  44  37  26  45  57  59  49  53  64  48  69  83  86  95  68  67  59  64  72  39  47  53  40  37  49  51  48  47  64  74  86  81  80  59  37  33  28  18  30  91  38  36  50  38  26  25  23  19  23  20  18  36  43  43  42  41  41  42  41  41  41  41
  42  41  42  42  42  42  45  45  42  44  44  26  19  22  15  11   9   8   9  30  39  25  37  27  44  68  64  40  28  81  38  27  78  78  43  42  52  55  84  65  66  96  97 115 104  81  86  77  85  65  74  74  54  58  87  91  76  67  78  76  75  87  78  60  46  37  33  30  58 113  61  54  40  36  27  25  19  13  16  20  23  36  44  41  41  42  41  41  41  41  41  40
  42  41  42  41  43  41  37  39  44  42  33  24  16  17  18  12   6   4  10  35  54  26  22  26  47  68  32  29  25  35  25  23  49  47  24  27  40  48  55  61  73  87 104 117 114 103 109  92 110 100 101  90  80  91 119 115  92  74  62  64  75  70  64  71  65  48  35  53  56  55  73  59  30  19  21  22  15  16  14  18  20  30  43  42  42  41  42  42  40  41  41  41
  42  42  42  41  42  41  34  23  39  42  22  29  30  17  19   7   2   5  25  41  31  44  42  38  30  32  27  25  28  25  25  31  24  27  29  26  30  33  33  61  81  88  86 105 112 123 131 127 128 136 124 105 110 127 129 125  94  75  71  80  74  69  67  71  77  74  61  61  37  40  65  49  35  39  21  13  17  21  23  17  13  14  26  44  41  41  42  41  41  41  41  41
  41  42  43  42  41  40  42  33  33  34  30  21  23  17  11   7   6  18  30  23  25  29  29  24  31  24  25  28  26  27  27  33  32  31  41  37  38  34  41  70  64  57  74 100 108 142 164 164 167 169 157 146 139 147 146 141 114  96  91  96 102  91  85  63  60  75  65  47  24  55  52  63  48  50  57  40  24  26  32  29  22  20  22  37  44  41  42  41  41  41  42  41
  41  42  44  41  42  43  41  35  30  39  53  42  33  22  16  17  16  16  11  14  25  23  31  39  36  34  30  33  39  51  57  57  62  61  64  67  77  56  48  62  66  69  73  91 128 161 171 173 181 176 166 170 167 163 165 163 143 136 127 130 136 121 109  82  62  64  67  38  37  55  37  44  54  45  41  36  32  45  43  28  30  25  21  24  40  42  42  42  42  41  42  41
  43  42  42  42  41  41  38  26  23  33  31  35  34  21  15  27  38  34  14  17  22  26  41  42  46  52  53  69  80  74  79  87 101 105 100  96  99  87  65  81  93 106 105  93 122 163 176 177 173 172 167 173 177 176 177 174 163 162 153 156 149 135 130 113  78  82  75  50  32  39  43  38  40  29  30  30  38  59  36  37  32  18  21  22  37  42  42  42  42  41  41  41
  42  43  42  43  44  45  32  24  29  18  39  37  11  13  20  38  45  44  21  19  22  31  54  50  51  63  72  75  91 105 122 142 152 153 150 144 146 144 115  89  99 109 121 129 138 164 177 178 174 176 177 175 175 176 176 173 171 170 168 163 163 154 136 148 131  94  86  59  39  38  50  39  40  43  38  28  47  45  23  35  29  11  23  22  31  43  43  42  42  41  42  41
  43  43  43  41  44  45  32  42  41  33  48  47  22  16  15  14  37  43  25  19  24  48  54  77  89  96  99 112 128 138 153 163 168 170 170 171 169 168 157 132 106 108 123 143 162 173 177 178 176 177 178 177 173 177 175 170 166 168 168 167 164 162 157 146 154 135 114  87  73  55  48  35  30  37  35  35  38  23  21  40  30  24  25  23  27  41  44  42  41  41  42  42
  43  43  42  42  41  51  46  39  34  31  27  33  35  30  25  15  33  22  13  18  30  49  78 121 119 117 118 126 141 153 163 166 169 169 173 176 177 175 175 173 156 140 140 155 173 178 177 180 181 180 178 178 178 176 175 174 170 169 167 164 166 164 165 165 165 155 138 124 101  70  51  54  29  28  31  27  26  27  34  40  29  29  21  27  24  38  49  43  43  43  44  43
  42  40  42  42  41  54  37  25  21  29  23  19  41  46  41  47  52  36  11  17  42  74 118 128 129 133 134 141 146 152 158 163 168 167 166 170 173 172 177 180 176 169 169 180 183 183 183 180 181 185 185 182 178 176 177 174 171 168 168 164 166 169 166 168 172 163 149 135 113  86  64  66  53  32  26  26  29  39  44  31  25  24  23  25  27  32  44  44  42  42  42  42
  44  43  43  43  43  40  21  24  27  27  30  16  18  58  40  54  49  24  17  19  56 103 121 131 133 136 134 142 148 150 153 163 164 166 167 166 169 174 178 181 177 178 185 188 187 188 186 184 187 185 187 185 181 180 177 174 170 169 169 167 171 170 171 165 170 167 160 149 115  88  67  61  49  38  32  32  36  38  30  26  30  27  26  26  27  29  39  44  44  42  42  42
  43  42  44  43  42  34  27  29  20  39  28   9  13  28  36  56  42  25  16  23  74 119 128 136 136 138 132 139 147 149 158 165 165 168 170 169 172 176 180 180 182 187 191 194 193 192 191 189 191 188 183 185 183 182 175 172 170 168 164 165 168 168 170 172 162 159 162 161 136  91  71  55  50  39  37  32  25  24  24  25  26  26  29  26  19  23  40  44  43  42  41  42
  43  43  42  44  38  23  40  42  24  20  15  10  16  10  19  40  26  13  19  47 105 129 130 134 139 135 134 140 144 148 157 166 168 170 172 173 174 182 184 184 189 192 193 189 190 197 192 191 191 184 184 189 184 176 176 172 170 169 167 164 168 171 169 171 161 156 162 149 134 109  84  57  53  44  23  25  24  23  20  18  25  30  28  24  20  24  34  44  43  42  42  42
  43  42  43  45  31  28  33  41  31  22  19  12  28  16  33  32  24  30  44  84 119 127 131 133 139 136 136 141 146 146 153 162 167 168 174 175 178 184 187 187 191 190 195 188 190 187 187 187 185 183 186 183 183 179 175 172 170 165 165 169 172 170 169 169 163 162 156 146 134 114  91  66  42  40  27  22  24  25  27  26  29  35  31  21  26  30  24  41  45  44  44  42
  42  42  44  43  28  27  28  17  29  21  13  14  29  19  32  29  43  50  68  91 124 130 128 135 138 134 139 142 142 143 152 156 162 170 173 172 176 179 184 184 185 185 187 185 192 193 190 187 187 190 190 182 179 178 174 173 167 162 161 167 172 174 169 167 165 164 159 142 125 110  92  74  50  28  23  20  20  24  26  25  24  39  44  23  28  26  25  28  43  43  44  43
  42  42  42  50  36  22  27  21  23  23  34  26  14  18  29  25  31  40  67  93 121 134 135 140 139 140 138 139 140 142 149 154 165 169 170 171 173 179 186 188 189 189 186 190 196 193 193 190 188 186 187 183 181 180 176 170 165 163 164 165 169 170 171 171 169 165 159 149 130 105  96  81  54  36  20  20  21  21  23  24  24  65  41  30  20  22  36  25  35  44  43  43
  43  43  44  45  34  16  27  23  16  18  37  26  17  21  27  29  30  39  65  85 116 137 139 138 140 147 138 140 147 147 147 155 161 163 171 166 170 180 188 186 189 187 191 196 198 193 189 190 192 188 186 186 182 175 172 171 165 164 167 169 168 168 169 168 167 164 161 145 125 106  87  75  57  42  24  16  20  24  26  25  33  33  27  32  26  22  27  25  31  44  42  42
  43  43  44  44  32  18  18  15  18  25  19  23  18  33  43  26  30  43  59  86 115 132 139 140 140 145 144 145 153 152 146 152 151 158 168 168 173 181 182 187 187 190 192 189 194 191 179 186 187 187 181 180 176 172 168 168 164 163 163 167 171 170 168 167 166 164 162 150 125 104  87  68  57  40  24  19  20  26  31  24  29  29  26  29  31  26  21  25  40  43  44  44
  44  42  43  45  38  26  24  15   5  11  16  11  19  49  33  32  38  45  68  93 119 130 134 140 140 143 149 144 150 147 146 152 154 161 170 174 181 183 182 187 186 192 187 183 183 182 185 185 181 180 177 174 172 169 167 167 163 160 162 167 171 170 168 170 168 164 164 158 137 112  94  76  63  43  25  21  25  37  26  27  29  30  31  27  28  24  26  37  44  43  43  43
  43  43  44  44  43  36  27  24  21  13  16  11  26  59  43  42  45  53  79  99 113 129 131 137 143 147 155 150 148 149 151 152 154 156 163 170 171 176 176 177 183 186 184 177 177 178 179 178 178 179 181 180 178 173 171 170 168 164 164 161 160 163 168 172 171 167 161 162 152 131 102  82  69  52  37  19  30  26  18  24  27  27  28  29  29  26  32  46  43  42  43  44
  43  43  44  44  43  43  32  16  12  10   8  12  21  61  50  46  42  51  70  83 111 129 133 138 144 150 157 156 152 150 151 148 150 154 162 172 172 174 176 181 187 185 180 178 179 177 178 182 180 180 183 183 181 180 175 175 171 170 168 165 165 163 165 170 169 165 159 163 151 140 114  87  70  47  42  30  25  17  21  31  28  20  18  22  30  27  33  43  42  43  44  44
  43  44  43  44  44  45  44  13   1   4   8  15  22  52  51  43  36  47  59  84 110 125 130 139 143 152 155 155 151 146 149 147 152 162 167 175 179 175 179 179 182 180 180 180 177 179 179 179 180 184 184 183 181 180 176 177 174 175 173 168 167 167 165 165 165 162 162 160 147 148 136 100  72  56  35  27  17  16  30  27  20  22  23  30  38  23  31  41  40  43  43  43
  44  44  44  43  44  45  46  28   6   6  11  15  41  45  52  40  30  37  59  79 102 121 129 136 142 149 150 153 147 150 151 153 153 162 167 173 177 179 180 184 186 188 185 187 184 180 177 181 185 186 181 181 180 179 178 177 177 178 177 174 173 173 168 166 160 159 157 154 150 152 150 127  76  59  47  29  17  20  19  23  25  26  30  31  25  19  37  44  43  44  43  43
  44  44  44  44  44  44  46  36  13  10  22  21  38  31  41  30  26  35  56  80 102 118 127 133 139 147 146 149 149 153 155 157 154 156 164 169 177 188 186 185 182 192 190 180 186 178 177 186 188 188 185 184 184 190 185 179 177 178 180 180 177 176 173 170 161 153 153 156 158 154 152 138 106  58  49  38  18  19  24  29  32  26  24  19  20  33  43  43  43  43  42  43
  44  44  44  44  44  44  44  41  15  16  38  28  23  17  26  23  21  31  54  78 105 120 123 133 136 141 149 152 155 157 155 159 155 153 163 166 177 196 189 186 186 190 187 188 190 183 183 188 189 181 189 191 192 186 183 180 176 174 174 175 173 169 169 168 164 157 154 153 155 153 150 141 129  84  44  36  19  13  21  45  31  25  23  21  31  44  44  43  44  43  42  43
  44  44  44  47  45  44  44  34  12  20  26  31  19  11  18  21  21  30  58  84 101 114 122 126 135 145 151 153 155 157 161 161 162 154 161 166 174 186 195 193 193 192 189 188 193 187 182 183 180 177 177 185 175 173 166 163 169 168 170 169 161 158 150 145 153 158 154 150 151 154 147 141 130 107  48  31  22  20  35  41  58  39  27  26  25  40  47  43  43  43  43  43
  44  44  44  45  45  44  43  35  18  17  26  20  13  10  11  17  23  37  70  97  98 111 117 121 139 154 161 157 156 159 161 165 165 163 161 166 171 177 179 189 189 188 185 187 189 179 179 177 178 167 160 147 147 152 125 121 110 117 130 131 128 130 126 115 110 123 137 150 144 149 143 136 133 110  54  28  22  26  34  42  38  28  26  23  28  40  45  44  44  44  42  42
  44  44  44  44  44  44  45  36  20  19  24  14   9   8  10  14  28  43  81 101 109 108 109 122 146 165 170 167 160 162 162 161 158 138 130 135 150 153 162 176 174 181 184 183 183 182 175 174 169 157 153 128 108 129 108  86  78  71  68  74  85  84 106 115  99  96 116 134 136 139 143 142 142 117  68  32  18  23  29  33  26  27  25  26  32  42  45  44  45  44  44  43
  45  45  44  44  44  44  46  42  23  22  20  18  16   9   8  17  27  53  93  96 110 109 105 128 153 163 158 156 150 147 135 102  87  88  93 102 118 132 151 155 155 170 175 173 168 168 173 167 167 150 139 117 106 115  91  76  60  55  60  57  57  68  79  75  70  69  83  96 122 132 138 144 142 122  72  38  18  25  35  36  40  39  33  40  42  44  43  44  44  44  43  44
  46  45  44  44  44  46  45  42  37  37  25  20  16   8   5  13  24  71 102 100 115 108 104 131 137 128 124 112  95  86  66  60  49  49  58  80 104 120 144 143 151 166 167 169 169 163 164 159 160 144 134 124 111  94  94  78  71  81  86  85  85  88  84  73  77  72  70  92 116 125 130 141 143 129  76  39  18  27  48  45  36  33  39  42  43  41  44  44  45  44  44  45
  45  44  44  44  45  45  45  42  37  26  16  12  12   7   4  13  24  66  99 103 113 103 106 107  96  96  89  88  76  58  54  51  52  62  78  75  87 113 128 137 145 154 156 164 172 161 152 153 144 139 122 111 102  93  74  65  73  70  63  60  63  72  79  86  98  97 103 106 114 128 130 139 142 133  79  43  24  26  38  40  39  17  12  31  51  48  44  44  44  43  44  45
  44  44  45  45  44  46  46  46  45  29  18  12   7   6   6  18  31  60  95 104 111 107  84  66  62  67  68  64  59  65  79  92  98  96  94  88  81  86  95 118 129 137 143 157 168 165 161 148 134 124 111  94  76  61  69  84  59  31  32  23  27  38  59  78  83 111 115 117 127 138 130 138 143 141  88  45  22  27  44  72 100 104  34  29  45  45  46  44  44  44  43  44
  45  44  45  47  50  51  46  51  51  35  21   9   6   7  10  20  40  53  93 109 104  93  67  59  53  51  58  77  94 109 110 100  77  59  49  54  50  53  65  82 101 115 134 151 170 180 174 155 138 123 101  80  81 108 108  92  64  40  59  51  57  77  52  56  77  91 109 118 132 143 133 139 141 143  94  46  25  39  90 122 149 175 137  45  41  44  47  47  44  43  43  44
  45  44  48  49  47  46  47  48  47  42  21   9   9   6  10  24  45  47  88 105  98  83  71  61  63  75  88  93  87  64  44  27  21  36  31  42  61  65  54  48  66  96 131 161 192 201 186 170 149 120  97  97 121 121  93 167 115  43  38  45  53 113  88  54  68  91 110 120 135 143 136 143 140 145 106  52  33  54 116 134 164 153 149  77  37  44  46  45  44  43  44  44
  45  45  44  44  45  46  46  47  51  45  30  20  10   9  15  22  38  45  92 104  97  91  83  76  77  87  87  66  43  47  55  37  45  59  53  70 124 100 121  97  59  77 126 169 191 199 186 172 149 128 129 158 136  89 109 147 125  85  85  89  96 105 122 114 105 112 126 141 151 148 142 144 142 146 121  61  35  51  74  85  76  47 135 104  39  44  45  44  44  44  44  45
  46  45  44  44  45  45  46  47  48  48  41  55  49  34  18  15  32  47 101 112  99  98  93  94  85  83  66  40  34  90 108  55  49  44  49  98 163 107  89 143 120  79 116 162 184 192 178 163 147 150 163 184 167 149 131 113 122 121 128 113 125 116 134 137 140 151 159 166 166 163 147 147 149 145 131  72  40  53  76 112  91  96 164 106  34  45  45  43  43  43  44  44
  46  45  45  44  44  45  45  45  46  45  61 126 137  95  23  11  20  55 106 114 103 107 110  91  92  90  70  47  75 100 100  91  95 114 130 119 118 134 146 154 134  96 113 159 183 192 175 157 148 161 165 175 176 165 144 126 127 132 136 122 130 138 138 141 148 163 166 165 167 163 152 147 149 146 138  89  46  55 128 174 160 148 164  99  34  45  46  44  43  43  44  45
  44  44  46  45  44  45  45  46  47  42  70  94 121 114  37  18  17  58 107 115 110 116 137 123 114 123  90  77  97 101 102 105 120 129 142 134 137 140 144 134 126 113 117 160 179 190 183 161 145 166 163 165 167 170 160 150 155 158 150 144 149 148 150 154 159 165 166 160 161 160 152 148 149 148 140 103  58  56 140 180 167 149 175  85  36  45  45  44  43  44  44  44
  45  45  44  45  45  45  47  46  46  40  77  90  39  66  55  35  25  67 107 115 116 127 148 158 152 144 128 118 113 113 117 119 120 128 138 150 146 147 142 140 147 119 118 156 180 183 176 161 138 157 172 168 169 172 175 176 180 180 176 174 174 168 169 172 170 171 164 159 156 157 151 147 144 144 139 114  69  59 126 176 165 155 172  61  50  48  44  44  44  44  43  44
  45  45  45  45  46  47  46  45  46  41  61 147  53  30  59  51  44  75 114 115 122 134 151 157 162 154 147 134 125 126 133 136 139 142 159 169 169 163 150 154 142 115 121 150 178 181 175 162 141 142 163 162 169 178 180 182 182 176 176 179 180 171 168 172 174 170 171 161 155 160 152 147 140 140 138 122  74  60 131 172 167 162 147  34  47  45  44  44  44  45  44  44
  44  45  45  45  45  46  45  46  47  44  42 147 120  51  58  52  49  77 115 117 125 132 145 153 155 158 159 159 150 145 151 157 168 171 175 180 179 167 158 153 133 115 123 150 175 179 173 163 149 139 152 161 160 178 182 179 185 184 182 185 182 172 171 175 174 172 171 161 156 157 155 145 138 139 136 123  83  70 132 187 174 170 122  23  42  44  44  44  44  44  44  45
  44  45  45  45  46  45  45  45  47  48  32 111 158 106 117  69  41  82 110 114 121 134 145 152 152 158 165 167 162 163 164 166 171 172 183 183 174 165 158 145 136 118 127 148 169 180 175 163 152 144 148 165 159 169 185 178 174 177 179 177 182 180 174 176 174 170 169 163 156 152 151 145 139 138 133 123 102  74 153 200 175 171 102  24  40  45  45  44  44  44  44  44
  45  45  44  45  45  45  45  46  46  47  27  79 177 141 144  88  39  73 109 111 116 126 140 147 147 153 166 167 169 170 174 176 174 174 181 179 168 171 152 135 130 120 124 145 171 177 176 165 153 148 151 162 161 167 180 182 182 178 177 175 181 182 179 177 175 173 171 165 161 157 153 145 140 138 135 116 107  96 169 209 172 173  83  29  39  45  44  44  44  44  45  45
  45  44  45  45  45  46  45  46  46  47  37  52 172 142 142 106  36  73 109 117 115 124 137 141 144 154 158 164 169 173 180 179 173 178 180 176 172 166 142 132 125 118 122 151 177 182 180 171 157 150 148 157 163 168 174 178 176 178 178 179 180 181 182 174 174 175 172 168 164 162 153 141 138 134 131 109  84 104 197 222 175 166  62  37  44  45  44  44  44  44  44  44
  45  45  45  45  45  45  45  46  46  48  49  38 153 156 144 104  38  71 103 116 111 120 132 140 151 152 155 162 164 168 172 178 180 182 173 173 176 159 140 133 116 110 122 155 178 185 181 173 163 152 142 147 166 172 176 174 171 179 178 182 180 180 182 174 174 170 166 166 162 157 149 141 136 130 129 103  65 114 195 209 175 150  46  40  47  45  45  44  44  44  44  43
  45  45  44  44  44  45  45  46  47  46  47  31 120 168 150  99  43  71  97 114 118 115 127 137 148 150 158 161 165 168 171 177 179 178 171 173 174 158 138 122 107  96 120 155 178 189 184 175 167 155 140 141 153 168 179 182 173 184 185 187 184 175 180 179 174 168 163 161 155 151 151 144 133 127 123  98  74 120 179 180 170 127  37  44  45  44  44  44  45  44  44  45
  44  44  44  45  45  44  45  45  45  45  46  37  79 168 164 114  50  68  94 104 120 114 115 127 141 146 148 159 166 168 171 181 177 180 177 177 170 157 142 114 105  98 118 152 176 187 190 178 169 158 149 149 139 151 172 177 179 190 194 187 185 178 180 174 170 165 162 154 154 154 150 141 128 130 119  79  81 151 162 155 183  90  35  42  45  45  45  44  45  43  44  44
  44  44  44  45  45  45  45  45  45  46  47  45  40 143 174 135  71  59  88 100 112 111 112 122 129 134 138 151 160 166 170 178 182 179 178 180 174 166 134 108 123 111 121 158 176 202 206 185 175 158 155 158 153 146 162 171 185 189 190 187 183 181 178 175 170 164 157 154 155 153 150 138 129 134 117  73  96 180 148 174 175  50  42  46  46  45  45  44  45  44  45  45
  45  45  44  45  46  45  45  44  46  47  49  49  29 108 172 131  75  54  85 102 102 109 118 121 118 125 136 140 147 160 170 174 180 179 176 178 177 178 137 119 139 115 121 156 175 210 217 194 184 159 161 163 167 151 161 168 167 181 183 182 183 182 179 175 167 158 154 157 151 149 149 137 135 137 116  77  94 169 156 191 142  26  41  46  46  45  44  45  45  44  45  45
  45  45  45  45  45  45  45  46  46  46  46  48  34  73 158 126  77  54  84 103 105 105 113 126 120 124 130 133 143 157 168 171 181 183 177 178 178 177 143 126 136 111 106 142 161 179 184 185 170 147 148 149 152 145 157 173 166 174 179 182 183 181 179 174 161 155 154 150 153 154 151 140 135 133 109  77  98 169 171 179 107  27  42  45  45  45  45  45  46  45  45  46
  45  45  46  46  46  45  46  46  47  45  46  49  35  43 161 116  86  53  77 100 106 105 110 127 124 122 125 130 143 149 159 170 177 181 174 174 180 176 134 109 109  94  82 105 134 152 162 165 145 116  80  86 118 122 160 179 172 171 178 178 179 178 171 165 163 155 153 154 158 155 149 139 135 130 103  77 107 174 184 173  72  37  47  47  44  44  44  44  44  45  45  45
  46  46  46  46  47  46  46  46  47  46  47  47  36  19 146 143  68  61  77  92 103 103 109 124 129 126 121 126 130 140 148 167 173 174 177 178 178 176 121  82  82  45  33  68 104 125 140 146 114  67  71  87  88 116 167 178 176 172 173 173 172 171 168 164 159 154 155 159 162 157 150 136 132 131 104  83 100 169 187 165  49  41  46  45  45  45  44  45  45  44  45  45
  46  45  45  47  47  46  47  47  46  47  49  46  36  21 104 170  75  63  62  85 103 102 109 120 131 134 122 120 128 136 146 158 167 173 177 174 179 176 145  71  78  92  53  28  64 102 113 111  76 121 166 151 133 159 171 175 179 175 168 170 169 171 167 163 158 159 159 156 157 157 149 141 131 126 101  71 102 164 188 120  36  49  46  45  46  46  45  45  45  45  45  44
  45  46  46  46  46  46  47  48  47  47  47  45  42  31  64 162  95  66  61  82  91  96 110 116 130 138 136 123 129 137 142 152 163 169 172 172 177 176 172 147 107 118 123  86  39  51  66  76 136 150 110 126 146 149 155 172 179 178 171 169 167 169 166 161 159 160 161 156 159 152 143 137 129 116  91  69  89 144 136  46  40  47  46  45  45  44  45  45  44  44  44  44
  46  46  47  46  48  48  48  48  48  47  47  47  49  41  30 121 103  57  56  73  76  92 105 115 126 134 132 124 126 135 144 150 159 163 167 174 175 173 163 153 136 118 109 111 116  89  84 120 140 102  70  62  83 115 134 166 173 175 176 170 172 170 166 163 163 167 165 162 160 151 141 130 132 123  92  72  60  50  22  22  45  47  46  45  44  44  45  44  45  45  44  44
  45  47  46  47  48  48  48  50  49  47  48  51  55  43  15  95 112  58  60  70  68  89 103 112 124 130 135 123 121 132 144 151 158 163 170 171 172 172 153 126 104  83  72  76 116 147 142 128  88  82  64  52  52  74 106 146 156 171 178 177 175 172 170 165 165 168 162 159 159 148 131 124 127 120  94  65  38  10  13  36  50  46  44  44  44  45  44  45  44  45  45  45
  47  47  47  47  46  48  49  50  49  47  48  49  52  41  17  51 102  59  47  64  71  91  99 108 120 122 128 127 124 136 145 151 153 163 170 172 170 166 152 103  73  52  56  66  96  94 109 117  73  68  72  53  48  58  63 100 129 141 159 169 171 171 173 176 169 167 162 163 154 136 119 121 121 122  96  59  33  19  21  41  47  45  44  44  44  44  44  44  44  45  44  45
  47  48  48  47  46  47  49  50  49  47  46  48  52  45  25  17  61  53  36  49  70  82  93 104 118 120 118 127 127 134 150 156 158 162 166 167 159 146 126  78  48  44  67  84  92  74 109 134 112  89  79  78  56  55  56  75 102 119 109 132 159 175 177 174 172 170 163 161 149 136 110 125 130 109  92  60  36  25  36  46  46  45  45  45  45  45  45  45  44  45  45  45
  47  48  47  46  46  48  49  49  49  48  47  49  48  49  41  24  14  23  25  39  59  75  91 109 109 125 119 121 132 135 150 157 157 162 156 143 116 108  84  55  48  62  86  91 109 158 166 168 171 157  92  81  64  71  66  77  85 108  92  91 117 153 176 174 179 172 166 158 136 134 121 112 129 104  80  53  39  43  48  47  47  45  46  45  45  45  45  45  45  45  45  46
  47  47  47  47  48  48  49  50  49  48  47  47  46  46  48  35   9  10  21  27  46  71  87  98 104 106 105 123 128 135 145 154 156 158 137 103  81  82  70  56  57  69  73  96 133 146 166 185 151 131 126 104  84  86  81 106  92  91  91  85  91 116 164 181 180 169 163 155 126 118 112 106 119 105  70  45  43  42  47  46  46  46  45  44  46  45  45  45  46  45  46  46
  45  45  46  47  48  49  50  50  48  48  47  46  45  46  47  41  16   7  17  30  41  67  96  91  95  93  97 111 128 137 147 151 152 125 100  78  71  77  79  62  60  79 103 118 124 119 116 134 120 114 128 136 120 101  96 110  90  96  88  79  78  93 135 174 176 165 148 138 125 109 104 116 116  95  67  47  43  44  46  47  46  46  45  45  46  46  47  46  45  45  45  45
  44  45  46  46  46  48  49  50  49  48  48  46  46  44  45  46  38  20  14  26  31  54  93  92  94  99  98 109 122 137 144 148 137 102  68  72  82  73  95  93  81  95 103 103 102  98  92 104 109  88  74  66  62  82  84  90  97 109 100  94  77  86  99 160 176 152 138 123 108  92 104 115 109  83  60  46  44  46  46  46  46  46  46  45  45  46  46  45  45  45  44  45
  44  45  45  45  46  47  49  49  49  48  48  48  47  47  45  47  48  41  28  25  24  43  76  77  83  87  90  98 103 127 141 150 114  81  70  75  70  69 109 106  85  72  51  33  43  54  52  41  58  82  54  25  28  42  69  69  72  83 115 113 100  82  87 135 163 151 124 117  88  84  95 102  97  71  47  40  46  47  47  47  46  46  45  44  46  46  45  45  45  45  44  45
  45  45  44  44  45  46  47  47  47  48  48  48  47  47  47  48  48  48  45  38  25  31  56  70  82  76  74  72  95 117 143 134  89  62  58  56  63  77  74  60  58  69  58  59  72  76  81  78  83 103 108 113 120 119 120 110 105 106 119 129 115 110  94 126 141 139 124 116  78  85  91  86  75  53  49  46  45  46  46  46  46  46  46  46  45  45  46  45  45  44  45  45
  46  45  46  46  45  46  46  45  46  47  48  47  48  47  48  48  48  48  48  39  25  25  50  60  71  66  62  68  91 115 117 112  94  62  78  83 113 102  81  71  86 114 121 130 130 124 134 137 137 142 147 145 144 142 137 136 149 166 164 163 136 118 116 157 150 127 120 120  93  75  72  83  71  45  57  53  45  45  45  45  45  46  45  47  46  45  47  46  46  44  45  45
  46  45  45  46  45  46  46  45  46  47  48  49  49  48  48  48  49  48  48  42  30  27  39  45  57  69  72  61  79  88  91 112  91  66  94 129 147 148 145 127 109 114 124 139 143 157 165 158 154 164 162 155 155 152 144 153 160 164 176 179 173 133 109 132 148 122 105  92  86  63  75  69  59  57  61  49  46  46  45  46  46  47  45  46  46  46  46  45  45  45  45  45
  46  46  46  46  46  46  47  46  46  46  48  48  48  48  48  48  48  47  48  47  38  30  25  29  45  56  61  61  72  72  80  92 103  98 114 146 165 156 145 143 130 115 121 140 148 167 179 176 168 169 164 156 158 155 148 156 165 167 174 175 179 180 137  95 121 116  84  92  69  61  74  54  47  69  63  50  46  45  45  46  46  46  46  46  45  46  46  45  45  46  45  45
  46  46  47  46  47  46  47  47  47  47  47  47  47  48  47  48  48  48  48  48  44  32  28  24  32  40  43  51  65  64  76  97 131 110 138 163 169 149 137 142 143 127 126 138 138 139 149 153 147 139 139 137 142 151 155 159 169 170 167 171 181 182 170 120  95  97  75  84  65  65  66  48  58  83  67  51  46  46  46  46  46  46  46  46  45  46  45  45  46  45  44  45
  46  46  46  45  45  47  47  47  48  47  47  48  47  47  48  47  48  49  48  48  46  43  33  22  25  31  38  42  44  53  68  92 115 126 145 163 160 155 144 137 141 136 120 129 121 107  99  96  96  94 107 122 138 151 157 166 170 166 165 173 179 172 166 148 101  81  71  64  51  58  55  51  86  92  71  53  47  47  46  46  46  47  47  46  45  44  45  45  46  45  45  45
  46  45  46  46  46  46  45  46  45  47  46  48  48  48  49  48  49  49  50  49  49  42  29  27  24  26  32  32  39  47  69  72 112 145 152 163 156 152 144 137 142 138 118 101 107 111  94  90  89  95 113 123 147 160 166 168 167 164 173 175 160 138 141 139 109  85  62  38  41  34  48  62  92  92  73  54  47  47  46  46  46  45  46  46  46  46  46  45  46  45  45  46
  46  46  45  45  46  47  46  46  45  46  45  46  48  49  49  50  49  48  48  50  50  25  30  43  22  20  25  34  31  35  50  70 104 122 136 157 163 155 150 142 142 146 122 115 115 112 104 111 111 118 125 153 165 169 168 171 170 167 173 174 152 133 112 104  82  79  49  37  30  33  54  80 100  92  73  58  48  46  46  47  46  45  45  46  46  47  46  45  45  45  45  45
  46  46  46  45  46  46  46  46  46  46  46  46  47  49  50  49  49  48  50  52  43   5  30  58  22  21  25  24  23  27  39  65  75  95 118 135 153 158 159 151 145 147 137 145 135 108 126 140 153 160 137 162 164 171 171 177 176 173 170 164 141 127  91  76  64  54  43  34  23  43  68  93 102  90  76  62  50  46  46  45  46  46  46  46  46  46  45  45  46  45  45  45
  47  46  46  44  46  46  46  46  46  46  47  47  48  49  49  49  48  47  48  50  37  11  25  63  32  19  19  18  19  23  35  44  66  83 106 128 130 160 163 162 158 157 156 165 171 143 149 154 174 183 178 173 180 187 187 184 173 170 173 164 129 103  76  66  53  40  32  28  30  52  83 104 103  94  80  66  52  47  44  46  45  46  46  46  46  45  45  45  46  45  45  45
  46  46  45  45  46  46  46  47  47  47  48  47  48  48  49  49  49  47  47  50  36  16  22  70  55  20  16  18  15  18  26  34  49  59  85 108 133 154 163 173 171 168 166 173 168 162 163 169 175 180 175 182 186 191 194 187 166 157 162 153 123  85  72  50  51  35  22  25  39  72 102 104  99  92  83  71  54  47  46  46  46  46  46  46  45  45  46  45  45  45  45  45
  47  45  45  45  46  46  46  48  48  47  48  48  48  48  48  50  49  49  48  50  36  21  23  64  65  27  14  13  13  15  19  27  38  50  71 100 120 125 147 162 178 167 172 169 159 151 154 161 166 177 165 174 171 178 184 180 153 145 137 124 116  96  65  41  41  31  20  24  37  90  73  97  94  94  87  73  58  47  48  46  45  45  46  46  45  46  46  46  45  45  45  45
  47  47  46  45  45  46  44  47  48  48  48  49  48  48  48  49  50  48  49  50  40  23  21  47  80  48  14   8  13  14  15  19  24  32  68  91  83 100 106 126 153 146 143 154 149 135 115 146 158 147 154 168 132 143 149 143 132 124 110  92  85  78  58  33  29  26  20  28  77 103  26  81  99  95  86  77  63  49  46  46  46  47  46  45  45  45  45  45  44  45  46  45
  49  49  47  45  45  46  46  46  47  47  48  49  48  48  48  48  49  48  48  51  40  19  24  20  49  68  40  18  13  13  17  18  17  21  51  66  72  83  78 104 115 108  99 122 134 121  89 150 144 122 121 138 119  94 110  98 103 105  88  84  63  54  39  32  27  25  33  57 108 106  16  55 101  97  95  91  73  53  46  45  46  46  46  45  45  45  45  44  46  46  46  46
  48  47  47  47  44  46  46  46  46  46  48  47  48  49  46  47  48  48  48  47  23  13  20  22  18  36  55  38  19  14  15  17  12  16  24  45  76  58  64  75  76  89 100  96 109 126 100 131 135 105  94 112 120  92  85  73  74  78  71  66  50  45  28  24  26  22  57  88 121  99  15  43 110 113 118 108  95  67  47  46  46  46  46  45  45  44  45  45  46  46  46  45
  48  48  48  46  46  45  45  46  46  46  47  47  47  46  47  47  48  48  48  34  18  16  18  20  22  18  24  43  30  16  14  13   9  15  24  41  50  49  59  58  68  87  80  74  81 106  93 116 120  92  81 111 102  87  83  60  65  60  61  52  40  32  35  32  26  24  60  97 141  89  16  41 127 131 131 130 124 101  62  45  46  46  45  46  45  45  46  45  46  46  45  45
  49  48  49  47  47  47  46  46  46  46  46  47  46  46  46  47  49  49  35  25  25  20  20  17  19  24  19  17  23  19  20  17  14  17  18  24  25  49  57  60  57  63  75  64  62  82  83  97  90  84  79  89  82  75  79  62  60  61  46  37  33  22  27  29  22  47  92 131 145  60  14  47 134 134 143 145 139 117  84  53  45  45  45  44  46  45  45  44  46  45  45  45
  47  48  48  48  48  47  47  46  46  46  46  46  46  46  45  48  49  36  26  26  26  19  21  20  16  17  22  23  11   8  15  16  13  13  17  15  21  30  34  49  44  51  61  68  60  62  79  87  63  76  74  69  67  67  63  55  53  52  37  23  24  22  27  27  36  80 124 153 115  28  17  76 146 136 143 151 140 119  92  65  48  45  45  46  45  44  45  45  45  45  45  45
  48  47  48  48  47  46  47  46  47  47  46  46  47  45  47  49  38  27  26  28  30  20  21  22  22  19  16  19  18  12   7   3   8  13  12  16  12  15  19  28  35  32  44  59  58  64  73  75  59  60  65  56  55  41  40  39  28  28  24  23  18  22  15  20  57 104 145 127  39  19  25  94 124 120 126 138 137 117  91  70  56  49  47  47  47  46  46  47  47  46  46  46
  47  47  46  47  46  47  47  46  46  47  48  47  46  43  41  34  26  27  27  29  32  20  21  23  26  22  19  16  18  15   8   2   4  10  12  16   7   7  15  17  34  34  32  35  44  51  70  61  45  36  46  51  44  30  33  33  23  22  20  14  17  15  18  30  61 126 106  39  18  23  23  82 105 107 109 112 110 105  96  83  72  63  59  57  56  56  56  54  54  53  52  52
  47  48  47  46  45  46  47  46  46  47  42  35  32  30  27  24  28  28  29  32  34  22  21  24  24  23  22  21  18  14  11   8   3   9   9   9   5   5  12  19  31  41  31  26  33  32  43  47  25  26  38  57  37  40  39  18  17  11  11  18  17  23  34  57  88  73  24  17  24  20  19  55  92  98 101  98  93  96  97  92  85  78  75  73  73  71  70  70  69  71  72  76
  46  47  46  46  47  46  45  43  38  31  25  23  27  27  25  31  31  29  29  34  36  24  21  26  23  23  23  22  21  17  13   9   3   1   1   3   3   3   9  23  21  27  28  19  17  20  23  20  19  27  25  37  35  35  25  31  17   9  10  11  25  40  44  49  29  15  22  21  18  21  23  33  51  70  81  88  89  94  95  94  90  84  82  82  83  80  78  79  78  81  87  88
  48  47  45  44  40  36  31  26  23  22  24  30  29  26  30  33  31  30  32  32  33  27  22  24  23  22  23  23  23  23  19  14   8   0   0   0   1   3   5  16  12  19  21  24  18  14  14  16  18  16  12  17  19  25  26  26  10  12  15  16  24  19  17  19  21  22  18  18  22  24  22  35  38  31  35  50  67  80  87  88  85  83  86  83  83  80  79  79  77  83  87  88
  36  33  28  27  25  24  24  24  24  26  33  34  28  26  31  33  34  34  33  33  35  29  21  24  23  22  22  22  24  25  24  22  15   4   1   0   0   1   2   3   1   3  11  17  12  23  15  15  22  27  16   8  13  15  10   6  11  10   7   4   9  17  21  22  19  17  20  24  24  24  22  34  43  34  27  25  27  38  49  58  65  70  72  73  71  70  67  66  68  73  78  81
  24  23  24  24  25  27  26  26  24  30  35  34  32  26  32  35  34  32  33  33  34  32  20  22  22  21  21  23  23  23  22  21  20  16   7   0   0   0   0   0   0   0   8   5   2   6   4   8  16  14   9   6   7   8   1   1   2   8   9  10  18  17  17  16  18  19  22  23  24  23  22  32  45  36  32  28  27  25  25  27  31  36  43  47  52  54  53  51  50  50  52  52
  26  26  25  26  27  28  27  26  30  32  34  36  34  29  34  34  34  33  33  33  33  35  22  22  22  20  21  24  23  22  23  21  21  22  17   8   2   0   0   0   0   0   2   1   0   0   1   0   6   6   7   0   0   3   5   2   3  16  18  15  15  13  18  19  21  22  23  23  22  23  22  28  44  40  35  29  27  28  28  27  27  24  25  25  28  32  37  43  47  47  45  43
  27  28  27  29  30  31  29  30  35  34  34  35  34  34  35  35  34  33  35  35  34  36  25  19  22  22  21  23  23  23  22  22  23  22  22  19  12   7   1   0   0   0   1   2   0   0   0   0   2   3   0   1   1   0   2   5   8  14  15  14  18  20  22  21  23  25  24  23  23  25  22  25  44  38  33  30  26  28  29  28  28  27  27  28  26  24  24  26  30  35  41  45
  28  30  29  32  32  29  31  34  35  34  35  35  37  34  35  36  36  32  36  37  34  36  31  19  22  24  22  22  22  21  22  23  23  23  22  23  20  16   8   5   1   0   1   0   1   0   0   0   1   2   3   3   1   1   5   9  16  18  21  21  20  22  22  22  23  22  22  23  23  22  22  24  43  41  33  31  27  28  29  28  28  27  27  29  29  28  27  26  26  24  26  30
