P2
# Generated by OpenCV 4.2.0
92 112
255
 209 199 183 174 130 134 129 130 130 132 134 133 132 130 124 126 134 137 130 134 129 129 124 122 185 192 188 186 212 226 226 223 225 223 224 226 225 223 222 224 228 226 230 221 222 220 219 233 225 226 226 227 230 231 228 228 229 231 231 229 233 231 232 232 233 231 235 233 235 235 236 235 236 233 237 235 236 236 236 235 239 235 234 234 234 235 237 236 238 236 237 237
 206 199 183 177 130 133 135 133 139 137 130 131 131 126 127 129 132 133 133 126 130 130 134 124 186 196 193 189 211 225 225 225 224 222 222 224 223 224 223 226 223 228 220 227 229 230 228 224 221 225 222 226 225 217 226 228 227 232 230 231 230 233 233 233 233 232 234 235 235 235 235 235 235 235 233 232 234 235 238 235 233 235 234 235 235 234 236 235 235 235 233 235
 209 202 185 181 130 131 133 133 140 138 135 132 133 132 129 129 129 126 130 130 128 130 132 125 187 201 196 190 211 225 226 224 226 219 225 223 222 223 224 222 223 221 228 218 213 152 193 203 219 216 222 225 226 224 227 229 229 229 227 228 229 226 228 231 233 231 232 231 232 231 234 233 231 234 233 233 234 233 235 233 235 233 232 233 235 232 237 236 234 235 234 237
 208 200 183 178 129 125 126 132 134 134 131 137 141 136 128 124 121 128 130 132 132 130 130 125 189 200 196 187 208 223 225 223 226 216 229 222 230 222 223 208 211 218 212 197 156 179 179 136 153 170 174 192 232 173 187 234 220 207 219 218 221 228 232 230 235 235 232 233 230 235 232 233 235 235 232 234 235 233 237 236 235 233 232 235 235 235 233 236 234 236 234 238
 208 201 179 176 131 122 130 131 133 134 134 135 138 133 129 128 129 132 135 135 135 132 129 122 185 199 196 186 208 225 223 232 221 228 201 198 199 162 114 134 100 112 108 117  72  73  81  96 108 112 150 114 168 191 157 118 222 223 213 202 208 222 235 226 234 234 231 232 233 231 233 234 233 231 235 234 233 235 235 235 234 236 236 235 236 236 237 236 236 237 235 236
 208 202 183 177 136 128 137 137 135 134 138 133 132 135 135 136 138 136 137 136 142 140 131 118 179 195 196 185 214 222 234 187  71  85  60 145 136 112 130 142  49  37 146  53 110  87  68 116 134 144 130 137 121 125 118 115 114 148 145 192 143 152 185 241 225 236 233 234 235 232 235 235 234 234 233 232 234 236 237 237 237 234 236 235 235 233 235 237 235 234 238 238
 209 204 186 179 139 132 143 137 135 138 139 133 133 134 138 145 138 133 129 134 139 141 133 122 182 191 195 190 223 186  90 114  72  84  88 111 106  98 109 120 119 112 120  54  80 102  76 120  74 100  84 104 115 106  71  78  95 144 136 140  88  91 101 197 235 229 233 231 232 234 233 233 233 234 235 235 234 238 237 238 236 234 237 237 235 236 239 237 237 234 235 238
 206 202 186 179 139 133 136 136 135 136 135 136 136 139 140 140 135 131 128 136 143 142 134 124 171 184 189 190 167  82  77  89  65  43  41  94  74  76  63  99  97  92  83  76  73  54  84  92  43  91  37  82  64  74  71  68  64  86 101 149  73  95 125 183 230 229 232 232 233 235 234 233 234 235 233 235 234 238 236 236 235 233 235 235 238 237 238 237 237 237 236 236
 202 199 185 181 141 125 135 138 140 138 134 135 140 137 132 132 135 137 135 136 139 140 130 121 166 188 192 127 116  85 105 116  83  81  68  85  87  84  56  57  41  75  44  40  74  48  77  72  92  86  39  91  55  67  45  81  89  87  64 130 147  66  85  75 185 214 232 231 234 234 231 234 233 231 233 235 234 239 240 237 236 234 237 239 236 236 236 235 234 236 236 237
 201 199 184 180 150 131 137 139 142 137 132 134 135 134 134 133 139 143 142 137 133 132 134 144 138  79  59 136  27  32  46  41 108  55  69  81  75 100  53  72  95  59  42  35  70  58  82  33  56  72  44  72  66  54  72  49  86  63  54 105 152  99  88  52 131 161 224 226 232 231 233 233 233 233 232 237 237 236 237 234 235 235 238 236 236 238 235 236 238 236 236 235
 200 198 186 187 151 134 136 140 137 133 135 134 135 137 138 140 140 145 144 135 134 131 140  41 157 135  41 150  91  78  45  88  43  89  38  70  82  92  82  70  94  87  42  24  55  56  83  56  87  53  59  54  78  64  46  67  45  88  56  75 111  84 101 117  81  92 152 216 218 228 230 231 230 228 234 235 236 236 235 234 235 233 235 234 235 236 236 234 233 237 236 235
 203 203 189 182 152 128 130 129 131 132 136 138 137 138 144 139 141 145 143 138 137 137 131 159 132  32  52 117  98  17  32  83  64  85  45  70  86 103  98  90  61  72  53  46  36  84  36  80  92  74  53  30  59  68  48  54  65  62  67  81  82  58  87  94  88  81 137 235 227 227 225 233 229 234 232 235 235 234 237 235 235 234 234 237 235 235 234 235 235 238 236 235
 205 201 194 188 155 130 132 133 133 135 138 140 136 138 141 142 136 144 139 134 145 139 132  84  44  51  68 123  48  95  25  85  60  42  80  61  65  79 110  92  59  60  37  21  49  66  54  51  93  90  71  41  55  55  61  33  57  42  76  71  51  60  61  73  90  56 134 142 235 234 225 226 230 237 234 234 234 233 234 234 233 235 236 235 235 236 238 237 235 235 236 235
 198 192 193 182 160 129 134 139 141 141 142 140 137 136 135 137 136 138 124  99  84 101  62  11 116  42  36 130  58  94  50 121  21  36  89  48  45  72 106  91  74  36  62  13  54  44  67  67  75  82  64  44  75  42  59  52  44  48  70  70  50  73  69  65  82  89 121  96 180 235 211 231 232 228 233 232 235 233 234 235 232 234 235 234 237 237 235 236 235 236 235 235
 179 174 185 186 161 131 133 136 143 142 141 136 135 138 136 136 139  94  53  66  98  43  82  19  30  87  29 111  75  48  39 102  22  34  65  38  46  62  97 102 106  38  50  14  64  51  94  83  43  80  61  29  70  64  51  54  30  61  55  56  49  61  48  38  40  57  75  91  91 119 127 195 235 219 228 237 233 232 234 233 234 234 233 233 234 232 234 234 233 233 232 233
 170 172 182 179 159 128 131 133 140 143 136 132 139 145 137 145 100  69  80 102  92  50  74  14  18  96  27  93  63  38  42  61  32  35  50  52  35  83  50  71  60  33  43  27  59  51  68  91  43  87  59  48  46  66  62  50  44  72  75  65  59  54  50  38  43  62  86  87  98  87 118 123 158 221 204 232 235 227 231 234 237 234 231 234 235 235 233 232 232 232 232 233
 169 164 172 169 143 131 127 132 136 136 131 129 142 145 136 111  97  58  88  94  80  51  64  57  28  58  43  49  37  33  50  40  36  27  42  34  19  77  41  51  56  44  41  67  94 103  72  54  30  81  39  79  70  60  58  38  71  62  67  59  42  60  48  42  60  79  71  69  54  51  71  82  68  96 157 172 235 235 236 234 232 232 231 233 234 234 233 232 233 231 233 232
 133 138 144 139 132 123 132 132 136 133 132 134 140 130 139  78 115  96  52 100  78  47  59  32  36  52  43  28  33  34  38  29  33  33  35  23  30  57  41  51  56  53  39  60  84  98  80  49  83  73  43  82  54  69  50  62  59  76  53  49  54  50  42  49  50  69  63  62  68  39  50  65  91  78  70 113 134 208 234 230 232 232 231 231 234 232 231 228 231 233 232 233
 108 108 112 111 115 124 128 136 137 137 133 139 141 145 118  60  28  78  64 106  43  47  48  61  42  34  36  29  40  35  33  31  37  45  41  45  44  51  34  51  56  49  54  68  92  91  67  69  64  61  68  60  65  65  68  32  58  51  29  35  46  56  55  35  80  84  41  66  55  53  71  51  47  54  76  69  88 124 153 211 233 228 229 228 233 232 230 231 231 232 233 231
 109 109 108 114 120 124 128 131 142 134 141 141 140 132  86  57  35  27  70  88  43  47  51  49  43  40  46  31  36  38  36  39  33  47  43  58  59  49  65  44  47  57  65  73  94 124  83  77  67  57 100  53  78  57  54  91  41  53  32  76  45  49  57  49  89  40  32  58  50  63  63  58  57  47  45  46  81  60  98 196 191 232 233 231 230 229 232 229 229 230 230 232
 127 125 127 123 125 131 125 129 132 138 142 124 111  89  93  76  72  45  40  75  61  42  38  39  42  50  53  34  35  38  53  38  44  52  51  57  75  65  67  57  62  80  80  76 103 158  99  99  86  88  80  62  64  65  61  77  40  81  78  32  54  49  40  66  94  28  49  73  45  57  52  48  89  46  52  46  68  60  70 120 157 217 230 231 230 231 230 230 229 229 231 230
 139 138 139 136 132 126 127 134 137 129 108 118  21  80 114  60  37  45  53  52  51  39  35  38  36  41  41  47  47  45  42  48  53  69  88  77 113  77 129  78 116 105  91  88 136 157 123 126 117 133  94  95  87  69  72  76  63  60  57  89  49  76  56  76  42  38  78  39  24  43  38  49  59  65  54  48  60  54 103  85 149 202 229 231 229 229 231 228 227 229 231 230
 134 138 142 137 130 123 127 124 136 134 114  15  20  70  61  67  70  53  52  58  36  33  23  26  28  29  31  48  49  55  56  63  71  75  88 108 112 152 127 107 113  96 122 125 133 139 152 153 141 152 128 141 108 113  97  87  85  67  73  81  94  38  85 113  41  36  55  39  32  25  20  33  54  59  69  30  39  77  74 121 196 223 234 227 227 228 225 229 230 227 230 227
 137 135 137 135 128 129 130 137 135  70  26  16  26  60  45  58  49  44  40  32  39  25  27  25  28  26  34  47  51  70  69  75  84  88 107 112 125 167 155 141 142 106 119 128 127 158 154 173 175 165 172 161 146 147 129 135 113  99  97  76  62  79  85  49  53  56  68  28  50  40  46  45  27  50  52  74  62  61  87 172 199 181 232 228 225 228 229 226 226 228 229 227
 139 136 136 141 135 133 136 144  82  28  13  54  65  27  67  26  34  22  11  13  34  33  26  26  36  21  26  44  47  55  90  97 101 121 125 160 170 162 155 167 151 114 147 150 143 129 170 181 177 180 177 174 168 163 157 151 138 134 115 101  91  98 101  68  51  53  59  60  56  58  47  57  52  51  62  64  77  60  59 189 146 198 232 230 229 227 228 229 226 226 225 229
 141 140 138 139 143 145 149 101  51  65  70  48  34  41  57  38  41  14  18  15  26  38  22  20  41  41  31  43  61  94 110 110 142 156 170 185 193 181 180 173 178 149 141 155 153 158 177 188 185 181 182 178 178 177 175 166 164 155 150 136 117 106  87  80  69  51  64  52  44  52  36  39  60  54  43  57  38  52  64 138 196 171 233 229 225 228 224 225 225 227 228 227
 139 138 138 140 142 135 119 103  70 126  64  39  48  55  29  38  27  14  15  16  16  28  37  37  35  48  40  44  94 114 115 134 154 184 192 196 207 216 204 195 193 169 169 161 169 172 182 187 189 186 187 188 183 182 184 177 170 166 162 154 145 125 118 107  79  68  64  48  54  43  46  50  57  61  64  40  53  54  61 176  89 137 225 229 227 223 227 227 226 227 225 228
 140 133 138 140 141 155 106  96  88  70  62  54  30  44  32  26  20  15  13  24  37  32  16  31  46  44  43  68  71 119 144 165 180 191 201 197 208 216 204 198 192 191 182 165 176 183 190 188 188 189 187 184 189 187 183 182 180 174 171 160 162 156 141 130 131  90  65  55  30  34  44  45  41  44  70  88  61  39  42  39  92 109 229 220 224 226 225 226 224 225 224 223
 137 135 136 139 142 129  83  73  66  22  59  31  41  27  26  51  24   5  20  37  25  28  23  38  47  63  64  77 129 153 171 184 197 198 212 208 212 212 210 212 207 196 193 183 185 186 188 190 187 190 189 186 186 183 183 179 180 175 172 170 170 166 160 151 131 121 101  66  48  32  21  43  39  57  55  37  41  33  44  44  66 113  63 208 233 225 227 227 227 228 225 224
 138 138 139 139 139 110  64  61  63  24  30  35  32  28  27  25  51   5  32  50  63  44  38  50  83  90 100 130 153 173 185 195 199 205 213 211 214 208 213 206 202 199 198 190 191 190 188 187 190 187 188 189 185 186 184 183 180 179 178 175 171 170 171 160 154 139 125 106  62  44  36  40  51  59  45  52  45  39  31  38  71  61  76 127 202 223 227 225 225 227 227 227
 140 143 142 135 135 126  56  44  58  43  39  24  10   5   7  14  19  14  20  53  54  34  56  81  93 130 142 159 168 186 193 194 198 210 209 205 211 210 204 203 202 202 199 198 189 191 186 187 187 186 186 185 186 184 181 183 177 177 176 176 173 174 175 169 158 165 148 120  84  64  55  36  65  54  45  41  38  45  44  50  65  76  67  45 202 208 223 226 225 225 226 227
 144 145 140 137 137 108  69  21  49  48  29  36  17  10  17  22  19  16  28  60  60  40  76 115 131 156 167 167 175 187 194 196 198 202 203 208 208 204 203 203 202 195 192 193 192 193 192 190 185 185 184 184 186 187 183 183 180 178 176 182 176 174 176 171 166 164 148 143 108  61  51  42  36  55  51  40  31  46  38  57  45  66 100  33 178 214 229 225 226 226 226 226
 140 144 138 146 142  92 106  42  34  57  45  26  34  32  37  25  18  31  38  66  40  62 107 141 151 166 168 175 182 188 189 193 197 200 198 201 198 197 196 194 191 190 192 193 193 193 188 189 188 187 186 187 185 186 181 180 180 179 177 176 178 176 178 177 176 175 160 152 135  73  55  60  38  51  56  41  48  33  43  42  59  67  55  78  93 214 228 228 227 227 227 227
 134 136 135 135 148  97 114  51  42  32  46  41  38  40  22  45  22  31  36  62  65  95 135 153 161 170 172 174 176 186 187 188 189 191 191 199 194 196 197 191 189 188 187 189 188 188 184 187 186 185 183 183 186 183 181 181 180 178 179 178 178 178 180 175 177 173 165 155 145  89  70  54  53  41  50  41  37  38  39  62  65  63  61  69 138 232 229 227 228 225 226 226
 139 134 135 134 139  73 109  84  33  73  50  44  42  28  23   8  14  33  60  59  75 125 151 160 168 171 174 173 171 180 182 185 187 191 191 192 191 191 193 195 191 190 192 193 192 188 188 187 186 185 183 183 185 182 181 179 179 178 177 180 176 176 179 178 177 173 168 158 144 119  84  68  52  52  47  50  54  40  43  49  41  56  84 106 185 219 221 226 227 226 229 227
 142 137 132 135 136  81 115  58  50  63  49  49  43  46  47  48  20  30  71  67  85 138 160 162 174 174 175 172 174 177 180 181 186 186 191 193 195 193 191 188 185 189 191 188 189 187 183 186 184 184 186 183 181 180 177 177 175 174 175 177 178 180 178 179 176 175 174 165 143 116  88  67  63  55  46  58  46  49  48  50  41  82  58  57 133 232 225 226 227 226 227 228
 144 142 135 139 137 128  92  53  44  65  29  22  27  19  20  17  19  36  73  71 103 140 166 169 174 174 174 173 175 180 177 180 179 186 187 189 193 189 188 190 187 190 187 186 184 187 185 184 184 186 183 186 182 184 182 178 178 177 172 176 172 176 177 176 177 176 172 164 157 122 103  77  58  64  39  49  53  56  52  55  51  47  36  23  23 209 223 227 226 229 231 229
 139 135 131 134 146 148  70  49  40  51  25  19  19  18  34  26  16  50  77  73 108 150 167 172 178 170 172 171 173 174 178 182 183 183 185 189 193 195 190 189 190 187 188 185 183 181 182 178 188 186 185 184 184 184 181 180 178 179 176 179 179 177 175 180 179 180 174 168 157 135  99  80  65  54  53  38  29  44  25  34  48  53  57  46  27 107 228 227 227 228 231 229
 139 131 130 137 141 138  98  82  71  45  13  14  17  12  25  29  29  42  63  80 111 152 164 173 172 170 170 171 170 171 178 182 185 188 191 196 193 191 193 191 193 191 192 188 183 183 185 191 189 185 187 187 186 183 182 181 179 177 176 179 177 177 178 176 178 180 175 171 159 136 104  75  71  56  59  35  40  32  43  29  33  46  63  94  86  76 239 226 226 227 228 230
 134 138 136 139 140 138 112  73  76  29  30  21  21   9   9  31  23  52  58  85 113 154 168 165 175 174 170 174 172 177 183 189 191 192 193 193 195 193 190 190 193 190 187 185 184 187 186 191 187 191 185 186 185 187 183 184 181 181 180 179 177 179 173 177 177 180 176 174 161 145 115  80  62  55  34  36  37  30  25  40  34  34  39  46  51 134 226 224 227 227 226 228
 135 137 142 137 141 128 124  98  71  37  42  17  15  20  15   9  27  35  63  93 133 153 169 170 172 171 169 170 178 179 187 186 192 192 191 196 195 196 194 193 192 192 188 183 182 187 188 191 189 187 190 188 188 185 183 185 182 179 179 182 184 179 177 178 179 175 179 174 166 139 122  80  60  49  41  46  40  40  33  38  37  44  53  83 114 118 211 226 225 233 225 228
 136 140 144 139 137 101 107  54  72  52  32  21  18  19   5  11  26  36  76  96 132 156 162 169 172 174 171 176 178 183 183 184 189 191 195 193 197 192 191 192 188 188 190 189 189 189 189 188 190 193 188 189 186 185 181 184 182 183 180 180 179 178 180 179 178 177 178 175 169 155 124  98  58  66  28  78  46  40  42  30  42  46  58  56  81 104 188 208 194 229 227 229
 140 139 139 141 125 112  65  41  62  23  28  31  24  11  11  15  31  54  59  86 127 149 165 166 166 170 172 173 179 178 182 184 187 185 189 193 191 193 192 188 189 189 186 185 187 190 191 190 190 187 188 184 184 183 182 182 182 181 182 180 182 180 176 178 176 175 177 178 177 166 149  96  81  46  33  65  43  32  31  36  36  39  28  36  81  70 173 202 217 219 230 227
 140 133 135 133 129 135 110  61  54  37  30  21  39   7  11   9  47  52  59  92 120 150 158 162 165 169 172 173 176 178 175 181 180 180 185 190 189 185 186 187 187 188 184 181 185 187 183 185 186 185 185 182 181 180 182 183 183 180 179 184 183 180 181 179 176 176 179 177 174 169 155 118  85  54  58  52  31  28  25  37  28  38  44  63  74  74 126 161 229 216 229 227
 139 136 139 132 133 116  84  69  59  46  37  34  22  36  25  59  47  36  57  82 115 138 155 163 161 167 173 173 174 173 177 171 175 173 173 178 178 181 182 177 182 179 183 181 183 184 183 182 179 177 178 181 179 182 181 180 182 178 179 179 180 180 183 182 181 179 176 176 176 171 166 144  79  94  51  38  30  23  20  31  45  30  56  40  60  83  87 111  84 218 228 228
 139 139 141 137  95 103  52  55  36  21   8  13  19  23  21  39  32  35  50  80 108 147 160 155 168 174 175 176 177 174 173 173 172 166 164 173 172 176 177 176 179 177 177 176 176 177 175 176 176 173 174 177 179 180 181 181 182 179 180 180 180 178 182 183 181 181 180 178 178 176 168 162 103  77  51  47  35  21  18  32  29  44  44  57  53  62  86 113 249 223 229 226
 131 140 137 138  95 118  53   7  30   9  11  12  10   3  30  28  26  32  54  79 105 140 144 157 167 174 180 179 179 173 177 171 169 170 169 167 165 167 164 168 173 173 172 168 173 174 168 168 168 170 168 176 178 178 180 181 179 182 177 181 180 178 180 182 180 184 179 181 177 181 171 172 120  80  79  36  28  37  26  23  35  40  38  36  50  77  54 146 228 250 228 225
 137 137 143 130  76  73  58   4   3  32  14   6  13  23  22  26  34  42  50  89 110 144 155 160 173 176 181 178 174 174 169 172 181 176 167 163 155 152 151 156 162 168 165 165 169 172 167 155 170 160 154 158 157 163 165 178 178 178 179 179 177 179 180 174 177 178 179 182 177 178 175 175 145  86  99  24  21  14  39  25  33  41  44  55  74  78  92 132  81 231 227 223
 142 144 143 133  74  99  46   8  10   6  13  17  18  24  24  22  34  35  54  85 133 149 153 170 174 178 179 174 177 177 177 179 172 174 148 121 114 133 129 150 154 165 165 166 168 168 161 157 150 153 136 135 146 139 138 138 140 154 160 156 153 162 155 161 168 175 178 182 179 177 178 176 164  91  91  28  14  21  29  38  40  39  36  68  73  88  82 102 191 234 227 225
 142 133 137 137 109  83  49  37  24  12  10  10  15  10  32  37  29  28  66  93 136 146 164 169 169 174 169 163 169 167 159 149 117  80 102  93  82  96 111 128 147 154 157 156 163 156 161 147 151 140 125 108  92 126 114  94  90  89  91  95 137 130 141 141 152 160 167 180 175 175 180 179 166  97  71  29  13  21  26  48  29  33  52  52  47  79  62 102 240 228 227 224
 133 129 136 131  72 102  41  27  11  10   7  15  16  13  24  31  25  32  72 102 146 155 163 169 162 147 158 131 115 124  96  81  67  50  65  75  80  79  86 125 137 142 147 157 161 153 160 148 141 130 130 127 119  99  65  62  67  56  60  66  84 122  94  88 119 138 160 175 179 177 179 179 167 105  70  29  15  13  20  59  33  42  29  56  73  62  62  71 220 227 225 224
 132 136 132 102 110 116  32  22  17  12   7  17  14  11  26  21  12  37  80 125 151 155 167 146 127 123 107  96  89  57  48  52  54  51  53  78  75  75  75 107 118 135 132 149 152 157 152 149 133 127 127 115 112 117  93  99  92 100  94  95  97  99 102 109 113 140 131 154 173 178 181 175 175 102  64  34  22  14  16  48  35  31  53  36  64  88 106 134 221 225 225 226
 135 130 138 106 116 121  17  24  22  23   7   6  42  25  32  27  13  35  94 133 151 167 159 132 108  81  59  61  59  72  66  88  79  92  96  89  79  75  77  93 102 114 130 141 153 162 163 154 140 130 131 128 121 113 110 101 104 109 122 125 127 129 134 128 133 129 146 160 177 179 179 177 173 116  63  44  27   5  17  31  40  38  42  51  76  84 123 138 221 229 226 225
 143 137 117 127 106 132  20  19  23  25  17   4  23  21  16  24  21  40 107 137 148 166 149 108  85  83  71  83  93  91 103 108 115 111  96  77  77  73  77  77  88  98 122 139 155 168 171 168 152 141 135 119 103  77  52  61  78  69  60  69  95  99 122 146 156 160 152 154 177 181 182 179 177 140  77  39  39  36  17  28  45  39  48  66  78  95 160 237 222 226 223 226
 146 133 139 135 105 141  22  12  21  10  22   7   7   6  22  26  29  41 123 140 151 166 140 119  89  87  91  92  97  97  88  65  44  41  53  74  66  50  55  63  74  89 121 154 177 178 175 174 161 148 121 107  73  67  74  55  17  24  54  42  21  38 102 108 136 158 159 155 176 176 179 180 181 153  91  44  39  32  46  24  33  42  38  43  64  69  60 204 213 218 226 226
 157 142 127 126 112 133  24  13  25  19  10  11   6   4  47  35  41  46 130 145 153 165 143 118 108 107  95  93  59  34  19  12  13  72  41  61  38  70  73  51  63  93 135 169 187 182 182 175 158 144 125  98  92  85  36  99  38  30  18  58  55  92  32  47 118 142 157 154 163 174 178 180 179 166  95  61  69  52  14   9  27  34  49  51  54  61  96 188 221 223 227 225
 163 139 136 123 129 123  33  10  18  21  12   9  11  24  39  26  40  63 136 154 155 157 128 111 108  99  73  37  20  21  21  22  23  15  47  80  62  49  50  77  65 105 145 171 188 185 179 175 162 148 121 128 103  63  77  73  94  94 102 115 101 113 124 123  90 101 146 149 158 172 178 181 185 163 107  56  23  51 140 155 171  39  35  40  49  70 110 225 219 226 229 227
 168 142 120 129 125 109  39  13   7  16  13   4  56  25  12  24  40  65 148 154 157 147 120 103  76  70  38  29  42  65  76  70  97 101 122 109 106 104 101 107  98 126 151 174 188 182 184 175 166 154 143 144 137 122 109 107 101 118 122 115 147 146 155 166 147 139 149 155 165 173 178 183 182 176 106  52  30 132 164 172 178 172  27  41  47  70 181 219 222 223 227 228
 166 158 124 146 128  90  25  11   9  12   6 148 159 136  45   8  48  75 148 160 162 151 144 126  95  78  71  87  90  86  94 102 117 127 120 114 108 100  98 110 139 146 155 180 191 184 183 179 169 165 152 145 132 123 113 114 119 123 127 136 146 154 158 157 155 159 161 164 168 174 178 185 183 177 115  78  71 156 169 190 172 188  20  53  44  67 123 217 220 222 225 227
 171 147 152 109 134 133  27   4   8   8  28 140 147 138  87  36  49  77 161 163 163 156 155 155 141 137 125 117 104  98 101 103 103 104 102 100 109 119 118 151 145 148 166 180 191 186 182 181 170 170 165 158 149 147 140 139 138 135 134 138 144 150 154 157 159 161 166 166 170 173 185 184 182 181 147  92  97 174 132  81  92 163  18  48  44  82 133 229 225 230 229 228
 180 155 157 130 150 146  30   7  10   6  76  72  69 145 102  37  43 102 160 163 161 157 163 164 160 154 142 131 114 103 103 108 111 119 131 134 137 136 152 151 157 157 173 187 192 188 183 182 174 174 171 168 167 164 159 156 154 147 153 158 159 159 162 163 164 165 170 169 171 176 175 186 183 183 168 141 162 171 159  90 100 159  32  30  49  72 103 169 236 230 228 229
 188 166 158 135  77 114  45  11  10   8  49  84  75  64 119  37  63 125 163 163 163 160 168 166 166 165 162 156 152 143 142 140 145 143 146 152 155 155 158 156 164 169 181 187 195 191 188 183 181 177 176 171 170 173 172 164 162 162 167 162 160 161 163 170 170 172 175 174 176 178 179 181 182 186 174 144 153 173 181 110 112 153  47  27  39  58 119 172 230 227 229 229
 195 172 162 138 138  24  24  18   6   6  29 113  79  71  97  80  83 148 167 164 161 166 162 166 169 177 170 170 165 158 158 155 156 158 160 164 166 163 159 164 166 170 184 188 194 191 186 182 177 176 177 177 170 174 175 169 171 162 161 165 167 166 169 169 172 175 175 176 178 180 179 182 183 185 176 145 175 177 175 144 113 166  25  37  39  86 122 214 232 222 230 232
 203 180 163 148 142  51  45  23  10   4  18 137  84 107 122 101  96 158 164 163 162 160 161 161 173 168 174 173 172 172 171 169 166 169 168 166 168 165 161 168 167 173 185 195 192 192 186 186 180 180 181 177 174 171 174 173 173 170 169 172 171 175 169 175 175 175 176 179 180 178 180 179 185 186 178 148 128 181 184 170 116 186  30  37  56  80 184 219 214 221 229 229
 205 191 166 159 132 142  37  16   7  11   8 155  79 146 150 146 105 167 168 163 165 162 164 164 158 168 168 173 172 171 171 171 172 172 174 168 166 166 168 167 166 171 183 184 196 189 188 182 183 182 178 178 176 173 173 173 173 176 176 180 175 176 176 174 176 176 178 181 183 177 180 179 186 187 185 135 113 159 174 181 123 183  30  25  90 125 194 231 200 210 228 229
 208 193 171 160 152 142  92  57  43  27   8 144  79 151 136  89  95 168 164 161 164 163 165 166 169 166 167 168 170 176 174 177 178 175 174 167 168 166 163 162 156 172 185 185 189 185 185 183 186 182 172 174 177 177 172 173 173 176 177 175 175 177 178 175 178 183 181 183 180 179 179 180 183 186 186 144 119 145 162 185 136 166  34  51  93 177 131 205 229 231 228 227
 211 202 174 163 166 153  99 114  36  25  16 142  88 146 123  87 104 167 159 163 160 161 156 163 169 163 167 168 170 169 175 177 179 173 172 166 166 160 146 152 157 174 184 179 190 187 182 181 181 187 171 166 166 174 177 175 179 176 178 179 180 180 181 183 177 182 179 183 180 180 178 183 183 188 185 150 117 140 160 189 144 130  35  35 134 175 213 217 218 224 224 226
 197 204 185 169 170 174 157 159  39  30  21 127 108 146 114  89  93 163 163 160 153 151 154 159 155 156 162 167 174 174 175 180 177 175 176 171 167 146 144 173 177 171 186 176 184 183 186 181 183 186 178 178 159 162 174 176 178 176 182 182 182 178 184 181 182 182 182 178 181 176 180 181 185 190 181 150 133 153 168 188 162  81  47  72 193 192 221 216 235 229 226 229
 199 206 189 167 171 168 150 127  54  38  18  95 122 145 101  85  92 163 160 158 153 151 152 153 151 157 158 168 170 171 176 174 172 172 174 166 157 138 174 179 178 167 171 168 174 179 183 185 185 188 180 178 177 158 162 174 173 176 180 182 181 182 182 182 179 182 178 179 180 179 180 183 185 189 173 152 137 157 173 184 177  44  50  93 189 213 214 234 223 230 228 230
 193 202 193 162 149 152 137 102  63  42  27  55 137 149 123 112  87 159 152 155 151 150 149 144 148 153 157 165 170 171 173 174 174 169 167 160 158 141 181 182 165 153 150 159 167 179 180 177 179 180 177 181 183 166 155 163 172 176 177 175 181 182 182 183 183 183 180 181 180 180 182 181 187 182 163 154 139 151 176 167 190  18  96 123  67 217 218 224 230 229 228 228
 189 191 178 151 149 147 116  77  38  11  29   5 156 155 148 142  95 150 159 155 152 150 147 146 145 151 157 163 165 170 174 175 170 166 164 162 142 155 149 138 130 123 119 130 149 160 159 164 169 167 167 166 178 164 158 159 160 167 176 173 180 182 182 179 183 178 178 180 180 178 185 188 183 183 146 146 170 167 182 140 188  53  63 114 143  55 231 229 227 227 227 226
 178 177 152 129 126 134  67  38  17  10  30   6 167 158 161 141  96 119 151 154 153 146 146 146 145 153 154 159 162 170 171 170 168 166 160 154 145 143 105  92  56  66 101 100 126 136 148 166 158  56  52 111 152 157 156 159 162 167 173 172 175 178 181 182 182 183 178 176 179 180 181 186 186 178 144 148 179 188 171 163  77  50  81 137 137 165 115 232 226 228 230 228
 158 135 124 136  98  57  45  56  30  22  27  33 152 146 181 163 137  96 144 143 153 147 148 141 145 152 152 157 165 166 169 168 166 166 160 154 153 145  90  86  64  33  29  87 106 129 145 150 119 117 110 111 140 152 163 166 159 160 160 170 172 176 177 180 180 178 181 177 177 182 183 187 179 163 139 169 182 181 149 180  43  38  54 109 173 144 164 241 230 226 225 230
 126 128 136 103  53  58  46  47  37  23  15  22  75 141 139 183 169  76 133 143 148 149 149 140 145 158 156 157 162 163 170 164 172 162 162 162 169 161 115  75  81  85  82  60  94 114 148 144 146 159 155 141 150 158 168 169 164 161 162 170 174 175 175 180 182 183 182 180 178 183 184 185 172 152 148 182 185 175 159 176  41  53  63  62 152 193 160 184 222 225 226 229
 127 132 119 106  58  50  44  42  38  23  22  28  26 172 117 156 169  70 104 133 151 149 148 145 151 154 152 160 165 164 165 168 163 160 161 170 172 164 156 132 110 105  98  78  81 106 128 137 143 142 148 155 164 168 172 178 173 160 164 163 170 175 172 178 180 181 181 179 179 182 184 186 173 150 148 179 181 177 163 161  44  57 106  46  71 142 220  87 231 222 229 228
 131 124 133  70  68  63  54  40  40  17  26  15   8 170 166 160 169  95 102 138 127 144 150 150 156 152 159 163 162 163 168 163 167 165 169 175 170 162 152 152 129 101 106 109 114 106 112 116 112  93 119 136 154 168 173 176 175 172 160 159 164 168 175 176 182 180 183 177 179 178 183 177 170 158 119 179 180 175 165  48  51  88  93 143  60  42 184  72 225 229 227 226
 130 123 130  67  66  63  57  32  23  20  22  17   6 161 182 178 180 127  88 127 132 138 147 145 154 160 160 160 161 165 161 166 162 168 173 176 176 173 155 137  96 106  96 106 116 110  99  83  96  97  99  96 121 154 160 174 174 175 169 162 169 169 176 173 181 177 182 183 179 178 180 174 167 146 131 176 182 177 186  73  58  50 162 182 173  47  69 115 240 226 230 225
 126 122 123  55  49  61  47  55  30  17  18  11  16  90 184 181 182 146  93 120 128 143 145 153 157 157 159 161 167 167 166 169 169 166 173 178 166 163 149  98  91  97 107  97  96 114 112  89  83  96 103  96 102 137 148 168 168 169 166 170 165 169 172 176 180 179 181 182 180 171 172 180 152 159 134 179 181 175 163  18  40 118 150 203 191 197  52 170 236 219 228 225
 124 122 107  59  46  50  44  44  27  12  16  18  19  19 182 176 163 138  91  99 135 139 151 152 152 155 160 162 162 164 163 165 171 170 156 137 154 143 123  93 109 123  88 142 128 117 128 117 119 127 132 103 112 104 125 150 157 160 156 161 165 167 174 177 180 181 180 180 176 171 167 170 150 127 120 162 171 175  18  37  53  92 130 194 176  94  65  82 243 209 228 231
 123 124 103  47  39  42  43  47  47  27  20  13  12   8 125 160 153  80  75 115 123 139 135 146 152 155 160 160 162 163 160 160 160 145 133 143 132 117 116 103 134 129 127 156 158 160 158 157 154 142 153 147 130 127 126 139 134 154 149 153 161 158 173 178 180 180 181 182 168 163 165 165 153 129  29  64  52   8  31  20  82  97  46 194  83  79 102  56 221 220 226 230
 121 128  91  47  39  37  35  58  67  55  22  21   8  20  15 112 115  97  48 105 129 128 146 137 139 148 159 160 161 158 161 153 159 125 116 111 130 133 121 130 134 115 102 114 114 132 147 131 135 141 143 140 153 151 140 135 137 144 151 134 150 151 161 177 181 179 184 181 174 166 170 170 144 110  28  20  22  15  39  37  36  69 104  82 111 145  35 110 234 205 225 228
 117 120  89  38  41  33  51  64  50  30  29  16  20  19  24  15   9   4  42 101 105 140 136 129 118 143 157 161 156 158 156 142 142 110 106 116 110 117 108 101  94 104 102 106 111  99 127 117 130 129 133 146 146 131 147 148 127 135 139 163 147 154 173 179 181 176 176 170 166 176 178 170 148  74  16  25  34  17  27  33  56  54  87  69  78  60 155 208 231 230 224 225
 116 120 115  40  28  48  53  46  62  26  30  37  30  26  30  31  11  11  33  64  97 138 143 133 134 144 147 157 152 147 135 132 129 109  91  89 101  96  81  71  82  80  77  74  77  84  99 114  99  75  88  86 121 119 115 131 113 118 136 158 156 158 164 179 177 184 167 162 166 163 172 169 139  44  30  19  43  27  14  39  38  53  49  92  51 173 167 228 216 233 221 227
 112 115 118  70  39  42  45  43  28  26  38  44  11  51  14  40  49  16  49  34  98 130 138 134 136 128 149 156 152 148 140 129 107 106  83  81  67  48  39  54  68  88  95 113 113 107  97 118 124 135 137 136 132 121  70  47  61 108 118 140 149 145 162 170 176 172 167 158 169 162 171 162 128  22  34  28  46  24  29  21  41  40  44  81 200 165 151 185 226 229 208 233
 135 119 134  85  44  42  45  24  17  44  36  20  18  50  43  34  34  32  12  36  78 104 119  96 113 117 130 147 156 152 146 117 133 108  88  55  56  61  91 110 119 130 134 137 143 149 152 147 145 153 153 151 150 150 145 146 117  73 110 130 158 153 164 177 175 177 171 162 155 158 173 149  91  29  23  22  38  36  20  28  40  52  57  80  84  58 129 127 200 227 236 236
 182 168 165 127  48  30  31  23  25  33  21  16  17  24  15  51  16  20  16  28  50  79 101 115  94 102 122 133 153 156 138 127 118 134 130 113 122 139 137 141 136 149 150 148 153 156 155 156 158 156 161 169 172 178 172 171 156 145 143 146 143 158 170 175 174 167 166 170 163 166 155 147  48  25  17  22  35  36  41  31  41  50  53  50  63 150 163 180  93 200 238 236
 210 209 198  41  45  35  40  26  26  30  25  34  10  11  56  34  41  16  46  26  36 105 105  92  79  99 105 136 152 144 121 129 141 147 144 139 142 154 147 144 153 152 151 151 159 158 158 161 164 166 170 173 175 171 173 172 170 173 171 170 158 162 169 169 153 167 159 170 146 157 164 112  19  23  14  28  34  29  34  29  33  45  54  54  50  96 137 189 171 130 239 237
 229 217 140  92 102  32  41  35  19  18  33  11  31  14  25  24  16  15  18   6  26  77  81  69  99 110  86 109 145 137 142 143 147 158 161 150 147 149 150 148 145 153 136 127 134 131 134 137 146 158 167 174 174 170 173 176 180 181 179 171 173 154 162 164 146 144 141 157 162 142 146  84  26  19  37  28  27  27  28  33  44  51  53  53 134  48  58  69 170 177 161 237
 234 225  18  52  74  58  44  24  18  41  67  44  20  18  30  42  18  29  17  33  25  44  66  76  74  95  92  99 108 140 137 140 153 156 160 160 153 150 146 137 139 132 123 122 123 124 131 126 141 149 156 170 175 174 177 182 181 181 178 178 173 160 157 145 148 141 145 149 141 130 111  40  23  21  31  37  28  28  15  34  33  48  46  56  62  93  47  75  67 173 170 226
 228 215  72  57 139 178  68  35  20  14  37  15  20   9  42  39  23  16  14  25  18  27  55  73  84  89  90  95  94 125 139 148 148 160 161 159 159 157 156 144 136 135 121 120 116 117 122 128 142 148 157 163 177 176 178 180 180 179 182 183 180 167 149 153 160 144 145 123 137 157  70  21  18  34   9  30  43  24  29  34  34  43  31  44  84 164 180  42  43 109 144 216
 229 208  40  84 135 206 100  32  38  20  28  36  38  14  45  34  36  14  16  14  12  24  44  65  72  87  93  75  72 104 131 145 149 158 160 158 158 156 151 154 151 135 138 143 128 126 143 144 149 162 168 168 176 178 180 179 179 181 175 171 169 167 168 132 126 136 149 127  97 127  54  35  18  25  13  28  46  17  42  36  56  65  42  48  65 185 151 151  29 119 177 236
 230 145  88 151 155 196 122  47  48  36  34  23  51  27  74  25  23  19  11  12  13  19  33  48  41  71  71  80  81  89 124 133 146 151 159 165 160 160 154 155 153 151 151 154 154 150 153 170 167 167 170 174 174 179 178 180 180 181 177 165 155 151 165 140 137 101 133 108 143 119  42  10  26  26  18  30  32  44  40  38  39 127  56  56  60 182 201 163 158 150 182 224
 233  77 100 227  91 156 103  31  84  57  36  31  39  28  43  46  19  17  20   5   3  20  21  55  53  58  53  64  72  67 124 121 145 146 160 167 167 166 160 164 164 165 168 168 170 166 168 170 171 176 176 178 176 177 180 182 181 171 168 157 159 150 147  95 137  77 118 121 125  99  18  20  18  21  25  16  23  56  34  36  38 100 192  37  67 209 112 142 179 136 199 232
 231 127 200 176 174 120  80 103  88  51  40  45  30  21  40  40  26  21  16  11   7  20  22  55  49  38  35  51  59  69  90 108 137 148 159 164 171 174 176 170 171 172 172 167 173 165 162 171 171 178 177 178 179 177 178 180 176 175 156 129 132 149 109 125 140  91  95  89 108  90  18  22  17  26  25  31  42  33  51  64 112  91 206  51  60 178 156 202 144 116 195 232
 212  89 222 183 203 110  51 206  68  46  46  54  44  36  43  42  36  14  16  13   6  12  21  73  42  33  43  56  61  50  71  91 126 134 154 158 174 172 171 170 179 173 162 160 159 164 166 167 171 169 175 175 180 173 170 172 171 173 126 127 110 127 114 109 113  71  59 122 151  83   9  19  12  29  18  23  30  16  36  36 141  86 165  55  42 227 235 156  58 222 213 234
 226  80 239 140 224 224  50  94 147  43  35  38  49  40  40  31  39  19  20   7  12  14  13  92  71  38  37  47  49  53  58  74  94  92 130 122 161 168 166 159 166 167 143 151 139 159 163 153 157 161 161 156 170 174 165 165 157 139 125 127  98  83 109 112  97  60 125 167 162  62   8  21  18  15  41  23  33 221  37  41 197 118 200  47  76 157 169 167 115 212 222 234
 236 213 122 230 204 121 116  84 157  76  33  62  28  28  39  26  28  14  18  15   8  11  14  63  92  66  35  32  41  39  51  62  79  84 103 111 120 139 157 152 143 151 136 146 139 147 145 145 151 151 153 144 133 129 147 136 122 126  92  90  85  86 117  88  76 130 156 167 161  43  10  15  18  30  31  30  83 194  34  34  97 177 175  59  85 192 171  50 232 240 236 236
 231 220 116 169 163 191 139  72 151  94  36  61  10  46  29  41  39  46  18  13  11   8  13  95 103  92  62  30  26  45  41  35  54  61  76  78  87  94 109 137 138 137 132 136 139 148 128 115 134 131 134 129 118  98 106 109  97  83  80  65  58  83  81  63 106 143 169 169 156  41  18  21  31  17  29  70 112 144  31  44  42 135  98  56 125 147  73 201 230 245 232 232
 225 239 242  89 140 137 127 116 117  62  57  48  13  23  18  28  46  56  24  17  10  15  10  90 104 113  72  64  22  24  36  35  23  38  71  54  64  70  80  87  97 109 110 115 143 137 132 122 119 101 112 115  96  74  79  88  67  77  50  52  54  93  77 139 145 152 173 165 155  39  20  25  29  30  34  29  81  41  46  28  41 165  70  56 211 125 128 196 237 242 233 234
 226 222 203 145 147  75  73  54  60  40 136  49  27  37  60 106  78  45  43  18  17  19   4  95 106 117 110  78  52  27  22  28  26  34  55  61  44  62  56  66  88  79  93 115 119 116 107  98  80 113 102  93  70  66  72  65  60  76  61  54  81  74  89 124 153 159 166 167 152  44  49  29  29  22  32  30  34  42  75 118 198 179  22 124 194  96 238 234 235 231 233 233
 227 189 152 217 223 129 175 130  27  81 161  29 160  88  52  23  64  99  14  21  11  20  12  94 111 121 120  90  77  41  29  32  36  18  30  40  37  43  53  49  50  71  68  92 107 105  91  94  94  83  67  76  51  58  58  53  60  58  59  67  84  98 132 150 173 170 172 168 156  34  29  33  19  18  23  29  28  51  64 110 126  34  65 199 154 228 210 232 236 237 237 235
 241 176 199 124 127  39 100 143 160  35  34  59 103 102  48  41  45  20  34  28  23  52   8  99 113 120 119 104  97  66  35  30  29  23  26  21  27  26  37  42  35  48  59  72  85  94  79  76  73  65  66  60  51  42  45  63  47 101  70 113  68 137 157 170 164 177 173 173 157  88  27  37  24  23  27  30  43  57  63  84  36  90 103 216 213 207 236 240 233 234 233 234
 222 215 156 110 108 123 219 202 143  25  53  48 143  78 184  34  36  30  21  32  29  23  13  99 120 125 120 119 107  70  43  21  24  21  25  29  22  19  33  37  25  38  51  56  53  56  65  68  54  44  40  27  46  38  65  50  69  84  83  82  82 142 145 153 176 174 174 173 162  11 118  18  34  41  22  43  59  58  95  69 184 176 176 186 220 246 233 237 235 235 234 233
 230 220 225 225 228 217 201 164  95  87 105  25  56 207  67  67 210  76 131  11   7  14  13 104 116 119 125 112 104 106  62  28  20  19  27  36  25  23  28  23  20  38  23  34  36  39  53  35  48  31  52  30  53  54  68  74  98  53  76  78  89 147 158 159 169 174 176 174 171   4 175 208 148  79 111  97 140 200 220 227 236 200 235 239 237 235 238 236 236 236 234 237
 235 228 235 210 228 231 206 217 196 170 165 107  25 127  97 223 127 163  34 172   6  12   9 104 124 130 122 119 105 118  85  81  41  24  19  25  22  20  22  30  32  22  21  26  32  43  39  31  47  24  41  41  68  66  77  97  74  70  93 108 147 143 168 171 176 178 175 174 179   3  12 240 222 190 225 193 213 227 224 221 240 235 227 237 235 234 235 234 235 234 236 237
 230 235 232 218 227 220 222 211 182 209 195  52  39  35  19  65 146  44 204   7   8  13   9 107 121 130 119 109 124  91  69  74  52  48  31  27  29  30  28  33  34  24  42  56  44  59  40  53  38  49  48  52  82  73  50 101  71  86 118  89 103 163 172 172 172 173 174 174 172   4  29  68 246 242 223 224 228 211 226 238 232 235 236 237 237 238 235 236 235 235 238 239
 235 230 237 228 227 218 229 233 231 222 200 220  21 123 156 162 146 149  12  17  17   8  16 109 123 131 122 112 118 113 102  98  74  52  44  29  28  37  36  35  56  64  63  62  65  46  67  37  43  64  85  63  65  73  91  68 106 120 133 135 134 163 170 173 173 172 176 172 175   7  26  47  72 246 236 229 235 235 231 239 231 236 237 237 238 238 235 234 235 237 238 236
 231 234 236 229 229 235 237 237 236 229 227 229 184 229 191 243  39  31  17  13   8  23  43 109 117 131 126 130 125 120  88  92  90  72  58  80  39  39  35  46  53  44  30  40  40  57  56  52  54  88  78  60  59 108  91 138 123 137 125 130 159 172 169 174 172 174 178 176 177  58  26  47  50  63 248 236 234 238 235 234 236 236 236 236 238 238 235 236 235 239 239 238
 234 235 234 226 235 241 235 230 232 237 230 241 252 249  98  31  32  25  18  13   9  39  55 106 122 134 134 132 124 120 125 104  93  90  78  69  66  77  64  53  43  43  46  53  63  71  61  67  94  66  86  99 123 108 127 118 141 133 139 163 170 167 166 171 168 173 176 176 177  58  29  45  51  48  39 189 241 238 232 234 236 237 234 236 238 234 233 235 236 240 236 236
 233 235 236 234 235 239 235 237 238 237 197  65  74  41  31  27  27  19  16  13  17  42  71 110 126 136 137 137 132 132 124 119 112 102  97  86  89  82  83  88  79  54  63  79  82  70  80  86  64  98 133 129 114 133 114 122 117 167 154 157 165 171 167 170 173 174 176 176 175  64  30  46  44  40  36  44 144 235 235 236 237 238 235 238 237 238 237 235 239 240 238 236
 233 235 238 253 241 205 139  83  82  74  74  64  43  32  27  31  23  20  16  12  39  48  69 112 131 133 140 137 137 142 127 131 117 109 102  88  91 101  95  90  96  87  78  81  96 110 109 103 130 125 131 141 141 138 159 159 159 154 159 161 169 170 171 170 173 177 175 176 176  63  30  42  40  38  45  36  36 244 244 235 237 238 234 235 238 235 234 235 239 239 235 234
 205 152  96  78  69  75  76  73  64  59  47  45  27  28  28  25  22  20  14  12  45  65  75 117 131 138 135 143 147 143 138 129 127 120 110 101  95  96  96  91 101 108 103 109 109 115 121 115 128 137 142 149 158 151 157 157 158 163 159 161 167 169 165 165 174 177 176 173 174  68  33  42  43  44  43  31  46  52  64 195 251 237 239 239 236 238 237 239 238 236 237 235
