P2
# Generated by OpenCV 4.2.0
92 112
255
 250 249 249 249 249 249 249 249 249 248 246 246 244 246 247 244 245 246 245 248 242 236 245 242 242 230 155 103  88  66  55  47  54  69  58  35  27  24  23  24  33  27  19  21  23  24  26  27  29  27  22  25  30  31  38  42  38  58 149 194 169 141 151 218 254 250 247 250 249 249 250 249 249 249 249 249 249 249 249 249 249 249 249 249 249 249 249 249 249 249 249 249
 249 250 249 249 249 249 249 249 249 248 246 244 245 248 244 240 240 240 244 241 221 229 216 163  88  74  65  59  51  36  42  42  31  25  25  25  21  18  17  17  25  27  31  32  27  25  24  28  25  23  25  28  30  30  32  37  37  41  71  97 150 143 123 160 208 246 252 251 249 249 249 249 249 249 249 249 249 249 249 249 249 249 249 249 249 249 249 249 249 249 249 249
 250 250 249 249 249 249 249 250 248 247 245 247 247 243 241 241 243 250 248 238 208 186 104  59  42  47  41  36  28  24  32  39  27  22  22  24  22  26  27  31  33  34  31  34  30  29  26  28  26  25  24  26  23  25  31  35  31  33  30  44 112  95  89 111 135 180 220 248 249 248 249 249 249 249 249 249 249 249 249 249 249 249 249 249 249 249 249 249 249 249 249 249
 249 249 249 249 249 249 249 248 248 243 244 246 244 244 244 247 255 228 192 177 136  74  45  31  52  69  30  30  23  26  26  26  25  21  22  25  24  24  27  29  29  31  29  32  32  32  27  24  23  19  22  21  18  18  20  25  28  28  27  29  40  41  58  48  59  79 113 204 255 249 249 249 249 249 249 249 249 249 249 249 249 249 249 249 249 249 249 249 249 249 249 249
 249 249 249 249 249 249 249 249 246 243 243 243 240 239 247 228 140 121 112  60  28  29  32  24  36  41  24  21  17  18  19  20  22  23  22  25  35  41  41  36  33  31  24  21  24  27  28  25  23  19  16  21  17  17  19  18  21  24  26  23  26  36  29  36  44  39  54 124 223 255 249 249 249 249 249 249 248 249 249 249 249 249 249 249 249 249 249 249 249 249 249 249
 248 249 249 249 249 249 249 249 245 240 244 241 244 248 195 117 149 194 152  60  18  20  18  21  28  26  23  22  16  16  22  21  17  17  28  34  28  21  18  18  21  21  18  16  13  13  18  22  18  17  15  18  20  17  17  19  19  18  22  24  22  31  33  33  38  30  28  84 127 239 251 250 249 250 248 249 248 249 249 249 249 249 249 249 249 249 249 249 249 249 249 249
 249 249 249 249 249 248 249 243 242 243 245 243 244 191  81 110  99  56  39  29  22  21  17  18  25  31  24  22  20  16  20  23  21  23  28  13  12  13  14  15  16  14  17  17  13  11  11  16  18  14  13  16  21  18  17  15  21  18  18  29  23  32  33  29  30  36  33  24  41 165 243 250 251 250 250 249 249 248 249 249 249 249 249 249 249 249 249 249 249 249 249 249
 249 249 249 249 249 248 249 246 244 240 241 226 188 100  80  57  35  27  21  23  22  27  23  21  23  32  49  43  25  20  19  18  21  17  10  15  16  15  12  12  10   9  11  13  14  13  13  11  17  15  12  16  22  18  17  13  18  25  18  19  22  29  33  27  26  32  35  40  31  37 136 236 251 246 250 248 248 248 249 249 249 249 249 249 249 249 249 249 249 249 249 249
 249 249 250 245 245 249 249 248 240 233 224 194 120  55  37  40  39  34  21  26  35  25  24  20  25  29  37  39  28  23  18  13  15  14  13  13  12  11   9   7   8  10  10  11  14  14  14  12  13  17  13  13  19  23  18  16  16  22  17  17  22  28  28  23  24  26  32  40  42  37  34 111 235 241 247 249 248 249 250 248 247 248 248 247 248 249 249 249 249 249 250 249
 249 248 249 247 249 249 249 241 226 214 173 157  57  34  19  25  30  33  30  41  39  26  26  26  25  25  32  31  24  22  15  14   8   8   8   8  10  16  18  11   5   9  12  11  14  20  16  13  12  16  14  13  17  21  19  17  15  20  21  19  24  27  27  27  29  25  27  35  40  38  38  32 111 236 253 246 247 246 246 246 246 247 247 247 247 248 248 250 249 249 249 249
 250 249 250 249 246 244 248 237 227 197 176  84  31  42  49  66  34  37  28  22  18  15  18  25  25  33  35  26  18  13  12  11  11  10  10   9  11  15  19  22  15   8  11  12  14  30  21  13  16  24  14  14  21  22  19  18  15  22  21  20  24  23  25  22  17  17  18  16  19  22  25  28  26 103 237 246 242 241 247 250 249 250 248 250 249 247 247 249 249 249 250 249
 250 251 251 248 244 246 248 230 202 187 139  39  33  30  34  36  33  29  17  18  21  22  29  27  28  30  19  15  12   9  13  11  11  10  12  14  15  12  14  22  16  13  10  17  16  18  19  14  21  32  19  15  24  25  18  18  17  21  21  22  24  19  17  18  20  16  14  17  19  19  18  22  28  25 106 200 207 237 234 230 239 247 247 248 247 249 248 248 248 249 249 249
 248 238 229 238 244 250 242 228 200 137  72  26  39  35  24  26  28  27  24  22  23  25  30  36  35  25  15   7   7   7   9  15  13  11  10  13  20  26  22  26  15  12  12  23  20  19  20  24  26  25  15  16  23  22  17  15  19  19  18  22  19  18  19  21  17  16  20  23  22  20  17  19  25  26  28  78 126 156 198 209 191 190 226 251 249 251 247 247 249 249 249 249
 239 231 222 225 213 208 223 207 155 106  60  32  32  28  27  21  18  24  25  27  24  23  29  28  27  29  29  27  21  10   9  10  22  20  13  20  30  31  29  23  21  14  22  21  17  22  25  33  20  18  16  14  20  20  16  20  18  20  17  16  17  25  25  18  16  16  26  26  21  16  14  15  21  21  27  48  90 137 129 151 156 145 150 231 252 241 237 248 248 249 249 249
 237 237 240 234 239 231 178 108  67  70  66  34  30  24  18  11  18  30  26  27  33  31  15   9   9  12  27  34  39  19  11  14  27  35  42  36  37  27  30  25  25  18  31  32  21  25  37  24  15  17  19  17  21  23  16  24  24  19  16  20  21  31  29  20  15  21  28  20  16  14  10  11  12  15  21  32  78 179 186 171 136 144 128 180 242 229 247 251 248 248 249 249
 206 231 210 217 233 199 103  41  58  59  47  38  31  18  13  14  30  21  22  38  30   8   6  13  15  11  18  29  28  15  17  29  40  34  49  39  31  24  18  18  28  25  24  46  33  34  35  28  26  22  27  30  22  31  18  29  31  22  19  30  21  33  35  26  17  21  22  19  17  13  12  10   9   9  14  31  34  76 120 127 143 157 173 185 208 139 158 233 253 250 248 249
 224 109  80 126 113  71  63  45  62  45  32  28  23  18  15  18  26  25  35  29   7   3   6  16  26  25  23  26  30  12  51  24  20  20  27  20  26  25  19  11  26  34  26  39  46  38  44  33  34  40  44  37  28  43  36  33  42  23  21  27  23  26  36  32  17  25  23  20  20  17  15  12  12  12  13  16  31  27  60  68  40  45  92 143 111 134 155 154 254 250 249 249
 148  87  42  25  73 118  99  40  22  29  23  17  16  17  20  27  34  42  33  12   3   3   5   8  14  30  32  13  12  13  31  11   9   6   9  13  18  21  16  17  25  31  31  35  49  41  49  35  41  56  45  44  38  49  37  40  40  26  24  31  27  21  32  26  21  33  17  21  29  18  15  14  12  12  13  18  21  25  16  50  75  43  29  75  59  91 114 150 253 247 249 249
  24  69  98  82  47  53  39  22  17  24  19  13  10  14  17  27  35  40  23   4   3   1  11  14  13  23  23  10   6   5   3   6   5   8  10  11  12  13  15  24  32  46  45  30  48  56  45  45  44  39  43  46  37  28  35  33  39  38  25  40  24  13  13  28  36  28  22  26  23  16  22  22  14  10   9  17  20  23  18  57 140 113  39  34  37  69  96 144 245 249 250 250
  64  42  70 143 103  46  19  14  17  24  19  11  23  21  14  17  27  23  15   2   6   5   8  27  34  28  22  10   8   7   4   5   7   9  13  16  13  13  16  25  32  43  63  51  50  76  43  50  49  39  39  37  39  37  42  32  42  45  41  37  15  11  23  41  30  21  30  36  22  19  23  30  21  14   7  14  22  17  14  15  31  48  43  39  46  62 112 129 240 251 247 249
 114  33  42  87  98  48  17  17  22  18  13  14  20  12  12  16  13   9  15  14  15  18   6  25  41  28  20  13  10   6   6   5   9  17  15  20  25  24  23  30  39  42  64  96  68  68  67  68  62  59  51  51  47  47  57  49  47  45  44  36  24  20  28  36  23  21  25  25  23  28  25  27  24  16  12  10  17  19  16  14  14  17  29  33  52  67  32 137 247 248 247 248
  66  55  69  36  37  25  22  19  20  17  16  14  10   7  12  11   8  11  12  33  40  30  26  19  24  17  16  16  16  16  13   8   6  10  17  23  46  46  42  55  56  67  72 103  96  93  89  83  82  78  73  71  63  64  78  58  48  48  42  47  42  25  28  36  21  19  19  15  32  44  32  32  24  17  15   9   8  14  12  11  13  19  19  21  25  46  67 129 218 248 249 249
  41  66  74  53  40  26  25  24  22  15  12  12   9   8   8  11  33  33  16  14  24  25  27  27  18  17  15  21  29  40  42  38  27  15  30  48  49  52  52  49  63  75  94 117 107 115 119 110 108 100 100  91  96  84 100  73  65  63  57  51  30  25  31  30  21  22  15  12  17  38  42  37  23  17  14  12  10  10  10  11   8  12  15  14  21  43  91  73 152 238 249 249
  33  53  42  37  32  28  23  26  16   9   6   8   9   9   7  16  26  20  18  11   5  11  24  37  27  18  20  32  43  42  44  47  47  38  55  48  33  30  49  50  49  63  86 109 110 120 138 141 134 135 128 118 118 105 112  92  95  89  73  51  37  33  37  37  29  21  18  10   9  22  35  41  27  14  14  16  17  14  11  12  11  14  17  20  28  37  57  71 115 207 244 252
  22  28  27  37  38  26  20  17   9   4   8  12  11   7  10   9   9  15  17  12   8  12  27  35  27  20  19  24  33  40  39  48  56  59  65  52  34  21  29  47  60  67  75  84 115 144 159 155 158 159 144 144 142 119 118 119 121 103  85  71  76  67  53  48  42  26  20  12   9  15  24  40  28  11  14  17  20  18  15  10  10  16  17  25  27  30  38  58  95 203 225 247
  19  23  26  22  23  15  19  17  12  11  15  18   8   5   7   8   7  11  16   9   9  20  37  24  22  21  17  21  33  48  70  83  93  93  93  89  71  54  37  39  56  81  78  87 116 153 168 169 167 167 156 156 148 138 137 143 128 109 107  94  81  69  64  60  45  28  20  16  11  17  26  33  23  11  11  16  18  20  18  11   9  12  13  20  26  27  30  35  58 130 168 211
  32  46  22  22  23  15  17  18  21  21  23  11   4   6   8   8   6  18  17   6  14  28  50  30  21  28  28  43  74 102 124 132 142 147 150 150 130 104  92  92  86  95  96 105 137 164 173 173 170 170 169 167 160 154 154 146 140 130 122 128 110  85  81  68  56  44  25  20  15  13  22  28  22  19  14  11  16  19  15  10  10  11  15  20  23  29  32  35  63 162 176 184
  19  22  29  31  19  17  22  25  22  19  13   5  17  14   7   5   6  26  19   6  18  44  60  54  50  50  63  89 122 139 146 150 153 156 156 154 155 147 139 129 129 112 121 138 154 172 175 175 173 177 174 172 169 166 158 155 156 144 129 137 141 120  92  84  77  59  48  22  20  18  29  33  19  17  18  11   8  13  15  13  10   7   9  11  15  15  19  29  39  95 149 151
  20  16  18  17  17  28  27  14  31  37  24  11  19  12   4   3   6  28  17   9  36  63  52  68  91  98 113 129 141 155 159 160 158 157 158 162 160 167 168 157 146 149 143 159 173 175 178 178 174 174 175 173 172 167 166 163 162 155 136 137 140 138 123 109 104  81  67  49  20  25  36  36  19  15  11  17   9   7  11  10   7   7   7   8   9  12  15  18  21  34  94 129
  13  26  16  16  26  21   9  19  26  19  19   9  28  13   3   3   5  21  17  16  47  61  63 101 112 123 135 145 146 154 160 161 161 162 162 163 163 160 162 174 174 166 166 174 179 182 184 181 180 178 176 174 173 171 169 165 162 161 152 143 141 144 139 128 127 109  78  82  33  34  42  29  21  13  11  13  16   9   9  10   7   7  10   8   9  14  19  19  19  27  36 109
  24  21  17  27  26  15  22  28  11   7   7   8  18   7   3   4   6  13  16  24  50  53  69 116 123 128 142 145 143 150 159 162 165 166 169 168 169 164 164 175 179 178 180 179 183 187 185 185 182 182 180 176 176 174 171 167 162 161 157 144 140 147 141 135 144 122 103  93  58  42  38  26  15  15  11  13  12  16  13   7   7   7  11   8   9  14  20  27  35  27  27  49
  22  17  32  39  17  22  38  12  12  23  11  13   8   6   5   5   7  15  20  26  49  49  82 124 124 128 141 147 148 153 160 162 167 171 172 172 172 170 169 177 181 183 185 190 190 187 186 186 187 185 184 183 180 177 175 167 165 164 161 152 139 145 148 144 139 126 122 112  76  53  36  19  16  18  12   8   9  14  17  14  13  13  10   9  12  13  12  19  31  24  13  26
  16  17  29  31  18  17  11   4  15  23  19  16   8   7   9   7   6  20  35  26  50  78 102 122 122 132 142 147 149 156 161 167 170 175 174 176 175 175 175 182 186 186 191 192 191 189 189 188 188 183 185 185 182 176 174 169 166 162 160 157 148 145 145 140 137 131 122 115  78  58  35  17  13  15  14   9  12  15  14  17  19  18  16  14  10   9  10  16  25  21   8  14
  18  17  20  30  26   9   6  11  22  20  37  23  12  13  10  14  10  18  43  39  59  71 105 123 126 137 143 148 151 158 162 163 168 176 178 177 181 181 188 187 188 194 195 192 192 192 193 191 192 188 185 186 181 172 173 171 167 162 160 160 160 155 144 141 149 134 107 113  72  51  38  19  13  12  11   8   8  13  17  16  17  16  13  10  11  11  12  16  17  11   8  11
  32  14  20  23  14   6   9  18  22  20  25  16  11  19  19  20  24  26  47  30  52  70  97 121 134 144 145 147 153 159 162 167 172 178 178 179 181 183 186 184 184 198 197 193 191 192 192 192 191 190 187 186 183 178 174 169 167 163 158 161 163 158 156 157 152 144 120 100  84  46  48  26  14  10   9   8   8   9  12  14  12   9  10  11  10  12  13  10  11  10  10  11
  39   9  13   7   6   8  14  16  17  25  12   5  17  18  31  40  35  39  55  21  32  70  95 130 140 141 143 147 152 158 165 172 174 176 175 183 182 184 189 186 185 190 192 195 197 196 195 191 194 194 190 187 184 179 179 169 164 160 157 162 165 165 159 159 155 145 140 117  92  49  43  31  17  10   7   7   7   7  10  12  12  11  13  10  10   9  10   8   8   7  10  15
  14   8   6   7   9  18  19  14  29  21   6   5  14  15  26  51  34  34  42  19  13  67 110 137 145 140 148 151 153 158 164 167 172 177 178 185 186 190 189 185 186 195 196 196 198 198 197 192 192 193 192 185 184 180 175 170 166 161 155 161 165 166 162 161 155 148 143 135 119  77  31  29  20  11   6   5   6   7  11  12  12  10  11  11  10   9   7   7   5   9  13  15
   9   8   8   5  13  17  11  22  31  10   2   4  10  15   9  22  30  20  15  13  14  65 117 136 145 147 153 155 153 158 160 159 167 179 180 185 188 187 182 184 188 200 200 197 197 198 196 196 194 193 192 185 181 178 170 171 168 162 160 163 168 168 164 161 158 153 146 136 123 101  41  13  16  10   6   6   7   8  12  11   9  10  12  15  16  13  14  10   8  18   9   7
   9   9  12  10  23  27  20  33  17   4   6  22  20   6   8   8  15   8   8   8  14  71 120 137 149 150 151 151 149 155 159 162 169 176 181 184 184 182 186 186 193 199 199 199 200 190 192 196 194 192 191 187 181 175 172 173 169 164 164 165 170 170 167 161 158 154 144 140 124 106  77  27  10  10   8   5   5   9  12  11  12  10  12  22  36  24   8  10   8  12   7  12
  11  12  17  10  17  25  36  20  10   6  11  23  19  17  10  11   8   6   7   6  12  75 130 142 147 148 150 151 153 159 163 163 170 178 182 184 184 184 189 188 194 198 198 197 192 188 189 192 192 189 184 185 180 175 172 170 166 161 164 166 167 169 166 165 163 156 143 140 128 107  82  47  17   9   8   6  12  21  11   7   7   5   9  22  34  30  15   8   6   7  15  26
  10  27  17  17  11  29  18   6   9   9  12  15  31  25  13  18  10   5   7   4  16  78 133 144 146 149 153 154 160 162 162 165 169 179 182 181 183 185 186 192 195 195 196 195 193 190 187 188 191 190 186 179 177 173 170 167 161 158 163 166 167 169 164 165 164 158 148 141 132 113  87  54  21  11   8   6  28  37   8   7   5   8  11  32  30  13  11  12   9  10  17  16
  35  33  22  25  16  25  20  18  12  10  14  21  23  20  23  26   8   6   7   4  24  91 134 143 149 153 155 153 158 158 160 164 166 173 176 180 185 184 186 194 194 190 194 193 188 188 189 188 189 188 191 185 179 174 171 168 165 161 159 160 160 162 161 164 163 158 151 144 136 119  98  67  33  14   9   7  21  32  18   7   8  13  17  33  40  10   5  10  11   9   9   9
  48  24  18  16  23  18  17  16  18  21  26  20  15  25  37  23   4   7   6   0  51 106 137 144 148 150 150 151 157 160 165 171 172 174 181 185 184 184 189 191 191 189 192 190 189 190 189 187 188 190 189 188 184 179 176 174 168 168 165 162 162 162 161 161 161 154 150 145 143 124 109  80  47  22  13   8  16  39  22   8   7  14  21  33  28  12   8   7   9   9  12  20
  17  13  14  21  14  10  14  22  29  29  30  25  23  34  30  12  20  10   7  29  79 113 139 142 146 151 150 156 162 166 169 173 174 177 183 184 184 189 189 189 189 190 189 189 190 189 186 186 188 189 188 187 185 181 178 177 173 170 169 166 162 164 163 162 161 156 148 145 142 122 108  92  53  25  16  12  13  29  27  19  12  26  36  35  39  17  15   8   7   9  11  13
  13  13  12   9   9  12  23  32  34  27  24  24  24  20   6  24  41  20  33  59  89 119 135 147 154 154 155 157 165 171 171 174 178 179 183 187 188 189 192 196 193 195 193 190 188 186 188 188 192 193 192 191 185 182 178 175 174 171 168 165 164 166 163 161 162 158 150 144 135 121 117 106  73  31  16  12  14  24  27  29  29  46  49  22  33  32  16   8   8   8  10  11
  14  12   7  14  27  31  33  41  29  18  16  15  10   2   6  23  30  28  39  71  94 118 138 154 157 157 156 161 169 171 175 177 176 178 187 191 190 193 194 198 198 194 196 191 188 188 190 196 201 198 196 192 190 189 183 180 179 173 171 170 168 168 165 162 158 155 149 142 133 126 118 119  99  51  17   8  14  16  31  24  32  40  30  21   9  30  37  19   8   7   8  14
   8   8  10  23  35  34  21  10   5   4   4   6   7   7  21  23  25  39  45  69  94 120 143 157 160 158 160 164 170 176 178 175 177 180 186 190 191 198 202 204 202 199 198 194 190 193 200 209 213 204 198 197 196 190 186 185 181 180 172 171 170 170 168 163 155 152 146 139 133 131 121 119 101  79  35  18  15  21  37  17  24  33  21  17   7   7  28  37  25   9   7  11
  10   8  13  13  17  19  23   8   4   6   7  21  16   9  13  16  33  43  50  55  96 121 150 164 161 160 161 166 171 176 178 176 181 181 183 185 190 194 210 217 204 202 204 198 191 197 207 209 204 198 194 191 191 188 187 186 178 175 170 166 162 160 158 157 154 148 144 134 129 130 125 116 103  92  60  32  21  24  29  17  15  22  16  12  14   9  12  29  24  15  11  12
  19  17  13  17  19  18  19   6   7  13  20  38  24  13  13  14  27  36  44  59  99 130 159 162 156 153 155 164 166 173 169 159 170 172 172 179 185 197 213 216 206 201 203 196 196 200 196 191 184 184 178 174 175 171 156 151 147 147 153 144 138 137 133 128 131 145 144 137 121 126 124 113 107  96  73  45  39  24  18  11  11  16  20  10  12  15  10  16  19  14  15  14
  19  27  22  25  11  11  11   9  13  21  31  27  17  14   9  15  26  45  64  77 112 136 128 126 124 123 117 106 107 117 107 113 144 150 155 161 173 180 203 210 202 203 202 200 199 193 186 184 178 172 154 144 147 134 122  98  83  73  87  92 103 104 103 106  99 103 123 137 116 121 120 117 104 101  79  56  46  23   8   8   7  18  17   9  10  11  11  10  14  21  12  12
  22  22  23  22  17  11  10  16  23  11  17  13  15  12  10  17  24  57  75  82 101  91  85  89  80  68  55  42  46  67  76  87 110 129 125 126 157 171 188 198 196 193 194 193 189 179 182 176 171 156 138 121 125 118  91  77  77  58  53  61  68  84  89  88  81  74  87 117 122 112 119 122 107 105  79  50  39  17   7   6   6  11  11   7   9   7   6  11  14  18  12   7
  18  16  16  18  13   9  20  20  11   8  22   9  18  19  14  18  35  65  86  79  49  40  55  62  67  53  51  45  50  61  63  73  83 105 110 106 143 161 180 190 186 183 183 178 181 174 176 175 160 138 135 122 110  76  69  61  66  71  71  60  65  73  69  72  61  62  80  92 107 107 111 119 109 106  91  55  34  13   4   6   5   6   8   8   8   6   5   6  10  11  10   8
  14  15  12  10   9  19  26  13   4  14  26  11  16  22  15  23  51  71  77  62  48  48  52  55  76  94  99  98 106 101  99  97  93  96 110 115 146 155 171 175 176 179 180 175 168 170 168 167 156 126 135 122 100  96 107 111 122 135 135 127 117 107  96  85  84  72  61  77 100 108 102 114 111 109 102  63  25   9   4   4   4   8   9   8  14  11   7   8   7   7  13  14
  15  22   9  11  19  24  12   6  10  20  15  17  13  18  12  24  50  77  77  51  40  69  82  91 102 125 145 152 157 158 148 136 118 105 103 107 132 140 158 168 174 180 181 174 168 167 162 155 148 138 123 114 116 117 117 126 134 132 127 126 125 120 120 124 114  95 100 108 112 118 103 112 115 116  99  61  20   5   3   8  13  24  22  11  13  10   5   6   6  11  14  12
  14  17  10  18  18  15   7  12  15  22  17  21  20  11  12  30  50  76  86  89  76  87 105 118 127 129 125 112  92  77  65  63  88 106  97  91  94 119 144 160 170 180 186 185 182 168 159 152 143 131 116 108 103 105 104  85  65  50  42  40  54  77  95 104 116 125 126 128 129 130 117 112 119 119 108  57  12   2   6  14  20  18  18  15  24  19   7   6   6   8   8  13
  16  15   8   8  10  11   8   7  18  22  11  25  21  11  12  30  49  73  99 123 121 110 117 117 102  78  52  37  17  24  49  68  35  69 102 123 103  91 111 142 166 180 191 194 183 168 156 151 144 120 115 113 119 114  91  52  37  89  61  20  41  51  46  65  95 123 120 144 152 152 127 116 124 118 108  61  12   4   4   4  27  39  30  33  22  15  10   7  10  10  14  18
  13  10   7   9  13  16   5   8  23  11  11  27  18  13  19  35  56  79 106 135 139 129 118  85  40  20  30  97  47  34  45  50  32 118 135 103 132 128 103 122 158 179 194 193 178 166 150 150 132 127 137 134 116  95 164 115  31  32  32  40  85  96  39  33  68 108 131 147 152 148 124 119 125 119 114  74  21   3   4   5  58  86  44  41  34  22  12   9  10  10  15  16
   8   7   7  11  23  20  16  14   9  17  16  27  12  13  25  37  71  84 104 137 138 130 105  68  54  59  81  89  76  67  63  73  74 130 136  93 100 145 136 117 147 172 186 187 176 163 145 135 135 160 159 117  92 108 127 115  91 101  98  99  96 119 116 112 116 123 128 145 155 153 139 123 124 121 119  81  32  11   8  21  92  94  41  50  36  18  12   8  10  15  18  17
   9   8   7   9  19  17  18  13   9  22  16  21  11  14  22  43  81  84 125 155 153 138 120 122 129 126 123 114 113 124 134 158 148 141 140 152 165 157 138 123 138 165 180 182 163 150 137 140 145 171 172 159 147 138 134 140 145 160 132 143 129 137 148 146 142 145 144 158 165 160 146 127 126 123 120  88  43  25  26  79 111  78  58  41  19  12  17   7   9  15  26  24
   8   8   8   8  12  11  21  23   9  16  15  18   9  16  31  66  91  89 122 149 153 150 146 138 139 138 146 147 142 146 150 159 161 156 156 162 161 142 139 125 139 165 176 176 162 146 136 145 154 159 160 161 165 160 152 149 160 176 156 153 155 147 145 141 148 161 156 159 162 157 145 128 130 126 123 103  55  37  64 102 102  85  60  26  11  31  16   8  13  17  25  20
  10  10   8   8  10   8  15  27  12   8  14  15   8  12  42  79  95  97 122 144 146 147 153 155 142 133 132 138 139 143 142 145 151 159 160 150 146 152 144 123 139 165 171 170 166 148 136 145 159 158 160 156 154 165 167 162 160 155 155 154 152 152 153 165 169 169 159 154 156 155 142 128 132 131 124 102  65  51  74 105 116  90  44  15  14  18   6   7  13  23  30  17
  15  12   6   9  15   7  10  15  11  14  17  12   9  14  37  80  96 100 124 139 142 147 154 157 158 153 151 149 151 156 161 167 176 173 156 154 154 145 133 125 144 163 170 166 159 147 138 142 153 153 158 166 166 160 166 176 176 172 169 169 174 176 170 170 170 167 162 151 153 156 147 128 128 131 124 104  67  47  71 104 112  67  19   7  12   9   6  15  26  24  34  20
  10  11   8  10  11   7  14  14   8  13  23  10  10  14  40  81  99 103 124 139 142 145 152 157 163 166 169 169 169 175 178 176 163 155 160 163 148 134 131 132 144 164 173 168 161 149 141 144 150 150 150 164 183 179 168 167 170 169 168 169 172 171 172 173 167 165 160 157 154 152 148 129 128 134 124 105  73  47  96 112  55  17  13   8  17   8   8  15  37  36  28  19
  10  14  12  11   8   7  11  15   8   9  11   8   6  11  39  83 103 104 126 145 151 143 149 160 164 169 175 173 172 173 169 164 155 162 166 155 140 139 143 135 147 167 173 173 161 154 148 149 152 150 148 150 170 186 186 180 174 169 163 171 172 175 177 173 167 165 158 158 159 156 149 131 126 133 123 103  74  66 128  76   8   5  25  39  24   9  12  13  41  34  22  13
  20  16  12  10  10   6  13  14  11   7   8   6   4  13  39  86 104 106 127 148 151 145 154 162 167 173 174 174 176 171 166 167 169 166 152 148 142 149 145 137 151 168 174 174 164 153 150 151 156 157 154 150 156 170 179 184 182 179 177 181 184 186 182 172 163 162 161 159 161 158 147 135 129 131 123 102  62  76  97  28  16  23  49  54  22  17  20  20  37  27  14  11
  15  20  13  14  11  14  14  10   8   9   8  10   3  17  37  84 100 110 129 147 142 147 160 164 168 176 179 179 181 179 180 176 170 160 151 149 149 149 141 136 150 169 174 172 166 153 148 149 154 155 159 161 164 166 171 177 182 184 184 187 188 190 186 178 166 163 164 162 158 157 149 140 133 129 117 101  61  70  40  25  54  37  43  54  21  18  18  21  23  15   8   9
  15  17  23  14  13  18  13  13   8   7   7  16   6  17  36  79 101 114 133 141 136 147 160 165 170 177 186 183 181 184 180 176 168 165 164 151 141 136 133 136 158 169 173 174 169 160 149 143 142 139 146 162 170 176 180 181 188 185 188 193 197 195 186 181 171 165 162 159 157 152 150 144 136 128 115  96  68  53  31   9  89  62  24  42  21  19  16  16  16  19   4   6
  15  15  16  14  17  15  22  12   6   6  13  13   6  20  34  66 101 115 136 132 133 143 154 165 171 175 182 185 178 180 182 183 175 172 162 142 126 124 126 136 159 170 176 178 171 157 149 142 130 130 139 140 164 181 185 184 186 195 199 202 207 200 186 175 169 167 164 162 155 148 150 148 140 127 106  87  68  37  80  23  67  68  49  28  17  16  14  13  17  21   7   7
  16  13  12  12  17  27  24  12  13  24  13  13   9  20  35  60  96 114 137 128 133 146 155 165 171 175 182 188 185 185 184 183 183 170 147 126 133 131 124 139 158 167 177 178 171 159 151 142 137 134 143 133 145 170 182 183 186 194 208 218 212 196 186 176 171 170 166 161 154 147 152 151 137 123 106  79  61  45 147  68  19  77  58  27  17  17  12  13  19  27   9   9
  29  12  10  12  14  37  28  21  28  28  12  17   5  11  35  55  91 112 130 125 134 147 157 164 171 178 184 186 187 185 185 183 176 166 132 124 144 140 127 136 152 169 181 183 176 159 149 143 145 144 145 138 124 146 171 177 176 184 203 208 203 190 183 175 168 168 164 157 153 144 152 154 140 116 101  77  53  57 131 111  17  45  43  10  19  18  18  12  13  29  11   8
  23  12   7  14  22  24  20  14  20  25  22  16   4  11  29  50  85 111 127 123 133 146 155 161 171 177 181 185 186 184 181 177 166 153 125 132 144 144 133 134 154 179 195 200 179 160 148 142 147 144 149 140 119 127 159 168 171 173 189 197 190 184 179 173 168 168 161 159 150 144 147 152 140 118  92  73  47  82 122 116  33  30  33  25  12  17  23  15  11  19  13  12
  13   8   7  14  12   6  23  31  13  16  16  13   6   7  27  48  74 104 123 120 130 145 156 162 167 176 181 183 184 186 176 166 163 146 122 130 147 146 131 137 156 175 202 218 187 166 149 142 147 139 141 134 112 136 156 162 160 167 180 186 188 183 175 172 167 164 159 156 149 142 144 149 137 114  85  68  49  95 146 118  74  35  32  35  44  33  32  17  10  15  12  19
  14  22  25  11  10  15  14  25  16  10  10  16  11   5  26  46  70  91 118 119 129 143 156 163 168 173 178 179 183 184 175 169 168 155 127 118 138 139 130 137 157 167 181 192 183 165 147 136 137 129 122 110 111 145 152 164 160 154 165 176 185 179 174 170 165 163 155 155 148 140 143 149 135 107  83  73  58 101 136 128 122  59  14  17  21  29  34  22  15  11  19  23
  25  14  21  10   5   9  12  10  12  11  16  21  13   6  24  47  63  83 115 116 128 142 153 164 167 168 174 175 179 179 170 169 164 150 130 109 106 112 113 125 146 161 170 172 173 156 137 120 109 102  98 106 135 144 149 160 164 150 151 171 178 178 175 169 165 162 157 152 147 140 144 149 133 109  83  70  52 108 128 112 129  76   4  24  22  15  29  23  25  16  19  16
   9   3   8   9   8   8  11  10  11  18  34  31  13   3  25  39  50  74 108 115 126 137 146 155 165 168 171 169 169 169 165 168 163 148 126 122 111 102 103  96 116 144 153 159 152 134 109 103 113 117 123 131 132 142 156 162 158 156 140 150 171 179 177 166 165 161 153 148 146 142 145 145 128 101  78  66  51 119 131 109 100  32   5  13  32  37  18   6  23  22  13  15
   9   5   8   9  11   9  12  10  10  20  46  26  12   5  26  32  50  74  99 117 125 133 144 152 162 167 164 160 155 152 163 164 161 157 141 126 119 124 117 110  93 111 137 141 132 106 106 128 121 116 124 124 113 137 152 154 152 156 147 127 147 165 169 166 160 156 151 149 148 148 141 140 126  98  80  68  45 109 105  95  55   4   9   7  12  42  32  10  12  18  13  15
  67  25   3  10   9  11  16  18  12  13  26  15   5   4  22  23  48  69  94 116 124 130 142 156 165 167 162 146 145 157 163 149 146 146 145 125 101 104 103 113 117 105 115 113 112 126 141 118  86  83  92  93  88 119 128 133 142 144 146 142 126 141 163 165 160 154 152 147 150 153 141 130 114  96  75  63  36  35  45  25   4   7   8   4  13  13  38  39   7  15  22  17
  34  22  13  11  15  19  20  22  15  20  14  11   8  11   6  20  44  57  80 111 125 131 137 154 164 162 148 144 147 150 140 128 124 113 116  90  71  73  77  84 107 143 133 138 148 147 127 100  74  72  70  69  77  91 110 117 135 131 139 142 144 131 144 165 166 157 151 145 154 155 141 122 110  93  69  52  23   1   2   0   2   5   6   8  11  11  12  33  40  13  22  28
  64  81  43  10  14  23  25  18  38  38  14   7  11  13   5  13  33  52  77 107 123 128 136 151 161 160 150 133 134 132 107 101 102  90  85  69  65  66  63  74  93  95 122 153 157 148 131 102  85  72  74  72  62  78  92 102 117 118 131 136 132 148 134 156 170 163 151 141 158 158 133 113 106  93  60  49  17   4   9   6   3   6  11   8  16  15   9   6  28  29  16  18
 111  57  12  12  13  19  22  32  54  31  13   7  12   7   6   8  26  50  72  92 104 124 133 149 161 163 148 122 113  95  76  89  93  86  88  69  69  82  88  87  92 121 137 136 151 145 154 154 122  93  81  75  65  75  93 104 106 107 126 127 125 124 133 146 171 167 149 140 158 148 124  95 103  88  59  45  13   6   9   8   9   8  10  14  24  16   9  15  24  30  35  13
  28   7   4  18  25  15  14  37  44  17  11  17  10   6   5  10  22  43  67  74  95 122 127 145 164 169 135  90  78  77  72  90  99  85  93  98  97 106  86 100 159 180 181 184 186 180 178 171 138 118 101  98  93 102 106 103  92  89  98 101 123 118 105 134 172 169 143 132 151 139 108  90  90  80  58  31  11  12   7   8   7   7   8  11  21  15  26  37  19  11  31  25
   8   6   7  25  24  12  13  21  19  14  16  18  14   9   5   7  17  31  53  70  84 106 114 133 163 154 106  72  84  73  75 102 109  88  98 114 118 124 114 135 147 149 160 177 171 143 133 126 121 115 112 107 104 101 102  99 103  98  85  94  96 107  94 116 173 170 141 114 140 144 102  90  92  72  52  27  23  19   6   5   6   7   8  12  13  14  20  20  14  14  13  26
  13   6   7  10   8   6  11  17  26  19  13   9  15   9   5   8  13  26  47  63  75  76  94 121 144 147 101  86  84  89 102  93  86  81  78  81 102  90  95  96 105 102 102 111 115  93  97  97  98 104  97 124 105  84  86  88  99 113 116  97 110 122  85 120 177 172 134 111 116 135  97  85  91  68  51  25  28  18   5   5   6   5   7  10  11  15  17  22  22  25  14  16
  22  35  26  29   6   8  11  19  27  15  11  13  21   8  11   7  14  23  39  54  67  58  83 114 128 120 112 118 107 141 146  84  71 101 128 123 177 139 147 130 120 174 153 124 134 181 185 134 161 173 152 207 145 145 136 154 111  61  96 119 103 127  98 119 166 166 121 110 106 121  87  80  68  57  42  20  18   8   6   6   4   3  14  19   8   9  14  19  22  28  17  15
  53  60  40  30   6  13  18  23  22  26  16  24  24  14  21  13  12  17  27  43  55  66  75  96 121 142 157 126 142 181 184 149 105  91 148 176 181 192 191 203 184 227 227 183 198 237 223 190 211 193 194 200 167 186 161 142  96 101 144 163 135 124 113 129 175 147 105 101  91 115  92  59  63  56  27  16  11   8  14  11   7   2  18  33  10  12  16  19  25  23  14  17
  25  36  27  17  10  16  23  23  16  19  22  36  18  16  18  28  12  10  18  31  49  55  64  74 120 150 147 137 168 186 185 168 145 107  95 111 139 176 184 220 217 221 223 217 219 225 220 213 221 186 190 182 138 125  99  94 124 165 179 183 179 156 145 132 145 127  92  93 117 117  85  48  49  42  25  17   8   7  13  13   7   3  13  22  11  17  24  30  33  21  18  21
  18  32  26  21  18  18  25  16  17  41  32  40  13  17  27  24  10   9  18  26  36  55  71  64  93 130 154 173 184 190 185 175 161 133 102  89  94 107 133 160 156 220 225 202 193 213 217 150 135 111 121 124 101  99 106 134 158 168 184 188 190 185 174 175 126  97  79  87 110 101  76  34  33  27  26  29  13  10  11   9   6  10  11  17  14  17  34  40  24  17  16  21
  21  26  27  34  27  19  25  18  18  12  22  44  11  17  34  13  10   9  21  21  31  60  68  52  60 114 153 173 184 186 187 181 165 149 122 100 107 107 108 104 110 147 139 109  93 122 138 115 102 112 122 119 125 123 138 153 156 177 185 187 195 195 161 169 138  77  65  89  96  89  62  35  31  23  13   8  23  19  13   5   7   8   7   6  14  16  25  24  11  22  29  22
  29  26  21  30  33  25  27  10   4   5  30  41  13  15  25  12   8   9  14  22  26  50  60  50  44  88 130 172 190 186 186 185 167 151 143 120 110 116 130 141 137 124 122 129 132 128 134 137 139 142 144 132 129 138 147 147 168 186 183 185 197 200 153 133 101  68  70  86  80  67  46  36  26  17  11  12  16  15   7   6   6   5   7  10  15  21  18  13  10  18  37  42
  10  10  12  22  25  15  20  11   5   5  23  42  19  16  11  14   7   9   9  14  21  32  41  49  46  72 121 169 181 185 186 181 175 154 149 139 126 117 129 145 156 163 161 158 152 159 161 166 161 148 140 139 145 146 138 159 184 185 184 184 191 194 164 104  66  76  85  87  76  41  34  29  19  10   9  11   7   9   4   9   8   6   8  23  18  21  26  17  14  12  20  28
  29  11   3  13  24  11  17  11   8  10  14  34  20  20   7   8  10   9   9  14  18  26  32  45  51  60 100 152 176 179 187 181 179 167 152 147 144 144 140 141 145 160 177 186 182 186 185 176 155 143 152 156 150 146 146 178 187 182 180 187 191 184 153  96  60  63  80  74  54  27  22  21  20  11   5   9  22  14   6   6   8  10   8  13  24  21  21  17  21  13  16  17
  34  10   5   8  15  14  11  10  17  13  10  27  22  14   9   8  17   8   9  13  17  20  23  34  40  49  78 120 164 172 184 185 180 177 164 149 145 144 154 157 149 147 157 165 169 168 168 165 163 164 162 160 157 151 162 188 188 185 177 172 177 167 130  84  62  64  80  63  34  18  20  25  20  11  14  21  16  14  13   7   8   8  17  18  27  20  18  15  23  17  11  18
  24  23  15   5  17  13  15  15  18  16  12  25  24  12  10  11  17   9   6  16  28  14  15  22  32  47  55 100 135 163 179 187 184 177 170 157 148 138 140 150 154 157 157 158 159 159 164 165 166 163 161 161 161 164 176 186 187 188 174 166 141 122 102  80  84  74  63  56  26  19  18  22  20   7  29  21   9  10  14   9  10  12  19  19  23  21  24  32  20  19  19  17
  17  12  17  15  30  13  13  22  28  21  18  31  23  14   9   8  12  13   7  23  24  11  21  19  29  39  59  78 107 152 166 182 188 178 171 162 153 142 144 149 148 149 146 149 160 156 155 158 163 161 158 162 164 175 183 187 188 189 171 137 130  93  68  58  85  62  40  38  18  21  21  33  25  15  23   8  18  13   8   8  15  21  12  19  23  19  18  32  20  18  20  16
  12  10  10  14  13  17  13  19  27  17  15  22  22   9   9   5  21  17   7  11   8  17  19  15  25  31  40  55  94 136 157 184 188 184 172 163 159 159 162 162 162 156 142 145 147 149 161 163 164 169 164 167 173 182 185 191 194 180 164 126 117  75  39  41  72  57  36  24  18  19  33  66  35  19   7  11  13   9   9  11  11  13  11  22  23  19  16  15  26  21  21  18
  16  15  10  21  23  16  18  19  23  27  31  24  14   7   7   5  10   9   8  10  32  25  11  16  18  36  30  43  76 117 157 173 185 191 178 168 159 164 170 165 163 154 158 164 154 176 164 176 177 180 184 176 181 183 191 197 193 179 151 113  88  75  38  30  61  42  20  18  23  34  51  82  53  23  10  10  10   8  13  12  14  11  16  16  16  19  18  15  23  22  20  21
  28  16  22  27  28  21  27  21  25  38  48  43  24  11   6   6  10   4   4   7  18  16  21  14  31  24  19  26  50  99 133 156 179 191 187 176 165 166 174 174 172 166 179 173 174 189 190 177 189 185 184 183 181 185 196 200 190 169 135  97  55  47  33  37  59  34  21  18  29  51  89  89  58  21  15  13   9   9  16  11  14  13  13  11  16  22  18  28  21  18  23  16
  18  14   9  17  51  33  11  11  13  22  18  16   8   6   5   3   7   6   3   5   4   7  10   8  40  26  22  26  37  62 101 127 162 184 190 183 170 168 174 179 177 180 170 184 189 181 191 193 190 184 184 184 186 193 195 191 181 156 108  93  51  34  28  35  44  24  13  32  70  84 104  85  50  22  17  13  10  19  19  13  20  15  19  11  22  29  24  28  16  19  23  22
  11  11  10  10  28  28  10   6   8  14   9   5   7   8   7   7   6   5   3   3   4   4   4   4  31  37  27  25  32  36  64  86 131 161 188 186 174 164 169 170 177 175 174 181 184 193 193 187 183 182 182 180 186 189 185 183 151 129 112  68  43  27  30  29  23  17  30  66  87 111 111  83  47  13  16  11  21  23  14   8  22  17  12  12  22  30  29  23  18  25  25  22
  26  10  17  40  26  11   9   5   7  11  13   9  11   9  11  10   6   4   4   3   3   6   5   1  32  61  21  16  20  22  41  74 100 153 180 178 176 167 168 167 159 168 178 174 176 178 190 177 176 177 177 180 189 185 151 144 133  97  75  56  27  21  26  27  20  24  58  93 116 126 112  96  48  17  19  13  23  34  20   9  22  29  10  11  25  26  21  17  17  30  25  21
  23  11  19  34  22  32  15   5  11  19  15  12   8   8  10  13  10   5   4   6   6   4   4   1  27  75  47  15  18  20  35  53  88 120 129 155 159 158 168 150 146 151 152 155 169 170 172 174 178 162 158 172 180 168 151 134 101  76  48  32  20  15  19  22  29  46  97 132 132 127 108  96  47  20  12   7  20  28  10  11  19  30   9  20  32  27  24  14  15  21  23  23
  16  12  28  29  22  36  15  14  25  22  12   9  20  18  22  24   9   4   4  11   7   6   3   7  28  83  85  35  13  18  28  47  68  87  93 120 130 132 143 134 148 143 136 141 163 155 148 178 155 141 136 136 149 122 117 118  75  53  32  21  15  21  19  13  50  86 116 142 133 123 110  95  45  21   8  11  14  21  19  13  13  15  11  19  23  22  25  23  20  19  23  24
  14  11  14  21   7  11  18  28  14  12  10  15  13  11  22  17   4   3   3   5   7   5   5  13  20  78  96  67  20  19  28  29  51  74  79  81 107 117 126 127 136 134 113 141 156 141 137 171 144 126 118 107  95  95 106  86  61  34  21  22  19  23  26  34  65 101 140 138 130 127 118  99  46  25  21  14   7  17  27  29  15  14  11  23  35  15  22  24  30  22  20  24
   9  11  12   8   7   9  17  16  11   5  12  13  11  23  24  17   4   3   3   3   8  10   4  10  13  72 102  77  39  21  23  21  37  56  56  73  87 108 113 113 103 141 149 135 137 107 124 178 132 108  91  97  91  68  77  70  44  27  13  15  16  27  30  74  92 126 130 138 136 126 113  99  54  18  30  17  12  12  22  27  19  15  11  19  58  37  28  24  23  34  33  24
  42  35  18  15  31  32  28  11   9   6   8  10  18  25  17   8   4   4   5   5   4  14  15  16  11  68 104  97  63  20  21  13  28  43  53  52  82 105  92 102 111 130 139 127 127  85 109 147 111  85  71  87  98  60  55  48  27  19  19  16  22  34  40  84 113 135 140 138 133 121 116 101  58  18  15  15  15  17  22  19  17  41  52  15  55  61  44  34  33  41  61  66
  84  93  50   9  26  37  13   7   5   5  10  10   7   7   6   4   5   6  10   8   8  15  25  22   8  61 109 116  99  50  15  17  18  24  51  43  63  85  83  95  87  94 113 120 113  98 109 115  95  49  67  86  75  47  30  23  23  21  22  15  14  32  89 113 126 151 146 138 135 123 117 103  62  17   9  13  11  25  31  16  13  30  88  40  12  69  73  56  26  47  92  82
  31  54  75  23  16   6  10   8  10  19  14   8   6   7   8   6   5   5   9  14  27  27  24  13   3  54 110 123 120  96  56  20  14  21  28  24  36  59  73  83  69  83  91 102  97  77  87  93  64  50  69  53  54  34  25  17  18  15  16  12  22  77 139 129 135 145 138 143 144 128 114 108  68  14  14  19  19  10   8   8   9   8  31  44   9  22  73 130  52  53  91  66
 109  66  63  41  71  53  37   8  13  17  14  16  15  10   8   6   8  12  14  31  39  20  16   6   2  49 109 126 129 107 106  71  30  15  22  20  21  25  43  53  51  59  71  77  69  64  69  48  44  48  53  39  35  14  23  24  17  15  19  23  49 116 157 149 129 147 135 141 143 133 122 109  70  22  24  23  27  18   6   7   6   8  10  10  21  21  66 101  62  48  78 102
 133 130 117  62  50 114 103  43  12  13  10  17  16   9   9  12  11  18  19  26  17  11   9   4   1  45 108 124 128 124 120 104  75  35  17  15  21  19  21  30  31  33  48  46  51  56  41  35  29  34  31  29  40  14  32  17  22  33  32  23  62 118 151 153 134 143 133 149 137 137 130 115  75  30  22  19  12  13   7   3   5  10  13  15  21  29  41  57  44  32  66  65
 134 154 174 140  38  61 111 105  36   4   6  15  18   9  10  13  12  14  20  21  14  14   8   3   0  45 106 122 132 132 129 109 100  93  61  37  19  23  20  16  16  22  31  21  24  31  24  29  33  38  22  18  23  13  18  25  24  39  29  45 108 149 163 149 128 149 138 149 144 141 136 121 100  43  10  11  10   8   9   8   8  15  18  19  18  25  31  51  39  29  59  66
 181 191 201 184 140  74  44  53  57  56  23  15  18  13  13  16  19  17  14  12  11  13   9   4   2  46 103 124 132 135 138 134 112 105 102  84  55  32  22  15  22  21  23  19  19  19  21  23  23  17  17  15  12  17  27  33  38  56  72 126 139 152 155 164 143 140 148 149 150 148 142 130 112  64  27  16   7   6   9  16  20  22  21  19  19  18  19  33  27  35  97 177
 208 196 201 187 177 188 161 136 127 130 101  53  29  24  20  19  22  20  11   6  19  16   6   6  11  51 101 125 133 137 138 134 133 110 108 101 109  99  81  64  44  39  32  32  20  25  27  28  29  36  31  39  50  58  71  80 116 137 160 157 128 149 160 158 152 146 155 156 154 148 145 134 119  77  30  40  17  12  14  28  31  30  30  27  25  17  11  13  12  37  70 124
