P2
# Generated by OpenCV 4.2.0
92 112
255
 203 200 206 204 207 212 212 214 213 214 215 216 218 217 217 220 221 221 222 222 220 223 224 222 226 224 225 223 224 225 221 218 216 215 214 216 218 217 214 211 213 212 214 218 218 217 213 212 214 207 205 209 211 214 211 212 211 211 211 212 214 211 213 214 213 214 213 212 212 212 213 210 210 209 208 206 205 204 205 205 204 205 203 205 206 203 201 203 202 201 202 202
 207 205 210 210 216 220 217 216 216 216 217 215 214 215 216 214 216 218 219 217 218 220 220 222 225 226 225 224 222 221 220 217 214 215 213 212 214 209 211 214 211 209 214 208 202 195 200 209 204 201 203 205 209 206 208 211 212 211 210 210 208 211 213 214 212 211 212 211 210 210 210 208 209 208 207 205 205 203 206 204 205 206 205 203 202 202 203 203 203 202 202 201
 211 213 213 219 217 218 218 216 216 215 212 211 214 213 211 213 214 217 219 218 221 221 221 223 225 225 222 224 224 222 218 217 213 215 208 213 208 202 205 202 183 189 177 202 175 149 150 116  94 130 187 187 186 195 211 208 212 208 208 209 211 213 213 213 215 211 212 211 213 211 208 207 208 207 204 205 204 206 204 206 205 205 204 204 204 203 202 203 202 201 201 200
 217 216 215 218 216 216 216 213 212 209 209 211 213 210 210 213 215 217 220 221 220 221 224 223 228 222 223 219 223 223 220 211 219 214 218 174 173 134 119 158 158 145 106  71 134 173 131  24  14  18  19  20 123 179 187 211 204 206 207 209 211 208 210 209 211 209 206 208 208 208 206 203 205 205 203 202 203 205 203 205 205 206 204 205 205 204 203 203 202 201 202 204
 214 215 214 215 215 214 209 205 206 203 206 205 206 206 208 210 213 218 222 225 222 218 221 226 229 226 222 223 218 210 181 159 131 122 104 162 125 153 127 147 107 131  94 103  73  38  27  17  16  22  52  31  43  37 131 165 202 205 203 205 205 208 208 209 207 208 208 206 207 204 203 201 204 204 202 204 203 203 203 203 205 203 204 204 204 202 201 202 202 201 202 202
 214 215 213 212 211 210 208 208 202 202 204 206 204 206 206 209 210 215 218 218 218 218 220 225 222 222 221 203 135 113  89  30  25  19  22  11  31  48  79  73  44  17  56  32  22  28   9   8  18  13  26  31  16  13  99  73 135 200 193 194 198 201 204 206 204 203 206 204 205 204 201 202 201 202 201 202 200 202 202 202 203 203 201 202 202 200 201 200 201 200 200 199
 216 214 211 212 210 209 208 206 200 204 203 204 203 203 206 206 209 211 212 213 211 217 219 222 222 179  65  32  81  47  18  10  11  10  20  36  53  42  24  32  47  19  30  30  39   9  18   8   9   8  14  15   4   8  28  53  54 175 196 189 203 201 203 201 200 205 204 203 201 200 198 200 200 199 199 203 201 203 200 200 202 201 200 200 198 197 198 196 196 197 199 199
 214 211 211 211 209 207 206 203 199 200 200 203 202 201 203 205 207 209 213 209 212 217 216 225 160  69 116 179  99  30  13  23  14  11  16  15  31  38   9   0   3   6  12  19  13  14  12  21  19  28  22   8   6  10   5  22  35 101 187 187 165 183 178 205 198 197 190 198 201 201 199 199 200 202 199 204 202 201 200 200 199 195 197 198 197 197 197 196 198 198 199 198
 213 210 208 208 206 205 204 204 201 198 198 199 200 201 205 208 206 208 209 210 215 216 216 174  84  92 106  66  45  41  19  16  11   5   3   5  10   7   3   9   2   0   1  13   9  32  41  52  37  38  22   8   4   2   8   9  22  25  68 115 115  92  93  94  92  97 168 207 195 194 199 196 197 200 197 203 199 198 199 199 198 196 196 197 196 196 195 195 194 195 197 199
 211 208 205 203 204 205 205 205 201 199 195 195 198 202 201 205 207 208 206 204 208 216 161  81  54  94  54  50  18  20  11   6   4   2   6   3   2   6  10   1   5  10   2   1   1   6  18  13  10   1   6  10   9   9   1   6  61  56  42  44  34  32  54  56  32  16  12  65 171 194 190 199 197 196 196 196 196 197 195 192 192 191 193 196 192 191 190 190 189 189 191 193
 209 205 198 198 199 198 198 198 197 196 195 196 198 204 202 203 202 199 204 197 200 131  83  34  97  18   1  23   8  20  13   0   1   2  12   7   2   6   5  10   5   2   3   3   1  11   9   8   4   4  10  10  10   8  11   3  35  44  45  40  39  48  29  37  61  88  26  28  36 161 175 191 179 179 180 192 186 185 188 183 185 185 184 186 184 181 180 180 182 185 181 185
 191 189 189 193 189 188 190 185 185 183 178 184 181 182 179 183 189 183 177 180 124  66  46  38  17  33  34  14  15   1  17   4   0   1   7   8  21  25  10   9  11  16  26  33  29  20  34  44  36  22  23  10  10   8   9   9  14  11  33  32   9  29  27   4  25  34  59  72  20  87 129 114 128 127 118 123 119 114 118 114 121 116 114 111 111 108 109 107 104 102 101 103
 124 129 117 113 110 112 111 104 103 100  95  91  88  87  88  86  83  82  83  64  75  45  43  27  22  14  11   3  22  16  16   8   0   7   8  28  17  22  25  47  64  66  75  40  11  23  18  28  34  51  40  39   4   2   8   5  16  16  15   3  21  20  13  18  12  21  33  31  47  17  26  35   8  28  22   5  10   9   5   6   7   3   2   4   7   3   4   2   2   4   3   7
  17  14   7  12   6   4   7   3   1   3   5   2   3   6   4   2   8   5  18  31  18  46   4  58   6  10  22   8  10  16  16  16   7   5   7  16  11  15  15  25  20  21  19   9   3  50  75  40  58  56  64  24  61  18   1   8  51  20   7  11  18  28  30  19  10  18  16  22   5  23  21  33 139 147 139 132 147 144 143 139 140 136 127 129 130 121 120 117 108 107  99  89
  14  16  13  13  10   7   8   4   3   5   5   4  10  14  13  23  30  41  48  27   8   1   4  80   0  37  26  13   1  56  29  72  25  41  27  25  32  25  27  35  37  29  27  11  11  18  36  58  40  49  63  82  28  41  14  13   8  71  14  23  14  34  27  53  40  11  10  13  12  26   3   6  12 152 163 188 189 191 190 192 193 191 193 196 196 199 200 201 200 209 206 205
  77  75  71  67  59  62  66  67  66  78  80 100 109 107 100 121 118  96  54  26   8   3   1  14   2  63  32  18  18  57  61  40  41  21  31  56  35  45  44  58  22  16  23  18  16  16  39  22  57  13  43  38  79  28  20  19  29  21  18   2   3  25  51  31  31  19   8  21  18   3  13   6  31  22 138 143 173 175 161 161 162 160 160 160 160 160 162 160 161 163 162 164
 122 120 116 110 112 115 117 116 119 126 125 128 132 119 119 114  96  69  72  23  14   9   9   9   2  40  55  17  27  31  47  26  49  73  87  51  38  16  10  19   7  15  20  52  19   9  24  20  46  16   5  44  61   4  41  26  43  46  56   4   4  12  62  17   8  14  16  15  50  37  13  16  12   3  65 148 138 161 150 139 139 138 138 138 140 138 137 136 139 141 137 136
 125 119 117 117 112 110 108 109 112 110 115 113 116 105 115  90  78  71  46  35   8  12  20  37  37  45  49  22  12  44  31  22  33  26  14  26  57  33  12  13   9  25  29  20  25  35  21  35  25  23  17  30  45   8  35  29  52  33  29  79   8  58  26   3  13  16  23  14  22  16  22  16  22  34  12  97 106 129 127 128 126 124 122 122 125 124 120 121 126 127 124 121
 117 113 109 109 104  99  98  94  93  93  94 100  78  85  73  65  27  35  46  81  37  10   4   2  22  30  29  28  10   8   7   3   6   6   2   2   1  18   8  13  14  29  11   4  28  28  36  21  35  24   9  38  25  11  12  27  14  39  19  18  13   2   6  23  41  37  21  18  22  21  25  27  27  29  23  60  93 105 100 105  99 101 102 103 100 100 104 113 119 117 109 110
 104 102  98  97  94  89  87  80  78  83  77  84  83  84  72  48  27  24  31  86  53  41   9   0   9  13   8  19   7   1  12   4   3  11  12   2   2   3   2   3  29  22  12  32  62  38  49  32  57  32  29  14  40  18  22  12  33  35  20  16  39  39  22  24  41  35  21  21  27  26  30  25  34  34  35  53  77 173 186 186 183 181 187 195 192 201 202 204 213 216 217 218
 106 116 119 121 126 126 128 124 124 127 124 129 133 121  52  19  18  22  31  25   7   8  25  27   4  10  41  26  50   9   9  12   7  11  16   3   2   3   3  18  21  21  18  24  23  61  32  61  70  48  39  27  54  48  18  64  56  39  21  11  18  57   4  16  14  19  36  43  42  28   6   5   7  16  46 119  46 166 197 194 199 205 206 210 208 212 215 219 222 224 225 228
 150 164 169 170 170 168 159 155 139 142 122 137 119 121  26  13  12  11   9   6   1   7  10  22  55  17  38  58  45  33   4  22  28  15  20  19  15  11  15  36  80  59  43  47  48  45  36  61  36  94  22  62  82  58  87  72  57  16  40  17  15  36  19   3   4  14  50  59  46  56  29  19  20  13  33  85  95  87 189 194 195 199 205 207 209 213 215 218 219 223 225 227
 148 158 163 164 164 163 158 152 129 148 146 151 141  86  18  21  10   6   1   2   1  25  44  23  58  62  39  72  70  67  67  90  45  36  36  47  45  31  26  49  48  85  78  77  60  65  55  50  43  50  22  31  79  64  68  85  22  26  39  14  31  48  16   4  15  31  58  45   5  29  43  22  23   9  19  24  88 149 120 195 196 199 203 209 211 211 213 215 219 222 225 225
 142 145 147 150 155 152 145 127 113  55 139 120 149  12  60  13   8   1   2   0  18  51  20   6  23  16 100  93  63  47  43  44  40  55  94  78  62  54  51  64  56  77  98  96  92 102  78  68  60  51  36  42  41  26  27  45  17  25  21  26  33  50  16  17  20  28  38   3   3  24  25   7  21  33  30  16  31  40  81 184 197 206 203 205 208 212 216 219 220 221 222 221
 139 144 145 146 149 146 141 144  82 114  86 126  68  28  14  15   5   3   6  21  28  33  35  26  36  54  33  35  42  42  41  29  34  49  21  37  40  56  62  76  63  88 111  96 124 149 121  92  82  65  51  49  44  39  35  51  19  20  27  38  62  51  31  37  27  29   9   1   5  21  26  28  25  23  20  10  11  35 114 140 199 205 207 206 212 214 215 216 219 221 222 222
 139 143 145 145 147 146 141 142  85 126  70  56  41  23  18   9   5  10  30  25  21  12  33  40  32  41  40  29  32  30  34  38  44  48  36  44  32  42  54  37  64  67  75 120 155 144 137 134 113 104  82  79  87  54  58  62  45  33  55  71  65  59  48  58  30  17   8   3   4  18  33  19  31  24  20   9  13  10  21  38 186 203 202 207 211 214 213 214 217 220 221 222
 137 142 144 143 144 142 138 141  91  69  59  34  35  36  23   5   4  16  22   3   4  20  33  51  59  47  42  37  45  48  63  63  75  78  77  68  69  73  55  33  53  54  59  95 122 139 165 156 155 145 144 135 120  92  91 102  85  68  80  68  72  55  58  50  31  18  16  13  12  73  80  21  33  16  21   5   3   7   1   7  18 189 201 205 210 210 214 216 216 218 220 222
 137 140 143 143 142 141 142 146  51  38  93  20  41   4   3   4  23  28  36  47  27  35  41  48  35  54  64  81  99  92  79 100 109 139 127 120 116  95  71  63  63  71  70  87 116 148 178 201 199 201 199 180 159 145 152 144 119  82  77  85  82  55  56  44  47  28  17  10  42  80  78  70  23  25  22   4   1   2   6   6  16  37 203 206 209 210 213 215 217 220 221 222
 137 138 141 143 143 146 139 100  92 119  51  26  63  25  10   2   6  29  31  65  14  26  45  53  44  73 120 134 137 148 156 179 208 219 218 198 187 175 161 127 111 137 163 133 128 179 211 212 218 218 212 204 208 190 178 177 148 121 106 105  95  74  67  47  50  50  44  38  44  41  59  39  34   6  15   6   1   1   1   3   8  12 175 206 209 210 214 216 217 221 223 224
 137 137 139 143 142 143 141  91 128  70  57  15  27  34  28  42  19  36  41  25  23  41  54  44  68 153 182 191 195 204 209 219 227 229 231 231 222 224 218 198 156 155 166 163 168 189 212 220 222 218 214 212 211 209 206 201 187 160 152 147 134 115  88  67  59  42  45  44  16  60  43  34  26  26   9   2   0   1   1   1   8   7  69 213 209 211 216 216 219 224 227 229
 136 136 137 140 142 140 119  93  55  65  25  26  21  31  57  75  42  21  73  16  17  46  40  69 171 199 217 204 206 216 229 231 235 234 233 233 233 231 229 226 196 173 154 184 206 211 221 222 223 221 218 216 215 215 211 208 199 191 181 173 159 136 116 100  67  55  44  33  30  41  28  25  26  22  16  13   7   5   4   6   1   3  18 210 216 217 214 219 223 227 230 232
 140 138 139 142 141 142 120  43  18  37  47  36  26  10  73  25  21  12  29  19  26  51  64 154 197 210 221 220 220 228 229 232 233 234 228 232 235 233 232 233 232 211 209 198 215 224 221 225 223 224 223 218 217 215 212 209 204 197 191 188 180 169 146 128 107  88  64  33  19  30  20  12  20  13  15   8  14  10   8  10  10   5   1 145 208 216 225 220 227 229 231 232
 137 138 137 140 141 139  89  44 116  67  68  23  25  21  11  23  30  29  25  16  27  61 109 192 213 211 221 226 227 231 227 234 232 235 233 233 232 233 235 236 236 235 226 231 227 224 226 227 226 223 225 220 219 214 213 207 202 197 194 193 185 180 170 166 142 119  96  67  27  15  26  16  16   9  11  11  16  15  12  10  11   1   5  40 203 222 221 223 228 229 230 233
 136 139 140 141 144 137  46  67  48  27  16  23  50  18  14  14  53  25  14  16  65 118 194 214 220 220 222 223 228 231 229 232 233 235 235 233 233 235 235 237 235 234 232 232 229 228 228 224 225 224 223 222 217 215 211 209 206 201 197 194 192 186 182 175 160 142 127 101  60  26  42  20  17  14  16  13  14  15  11  11   8   1   3   7 100 208 223 230 228 231 230 232
 133 137 136 139 130 120  50  72  64  24  14  18  16  37  11  39  50  25  32  67 140 188 214 217 221 222 223 227 228 227 231 234 237 237 237 235 236 235 236 236 236 235 235 235 234 230 229 226 227 226 224 225 221 215 212 207 203 202 197 194 191 192 189 188 185 162 146 128  82  56  52  19   9   7   9  16  16  12   6   6   4   1   4   9  71 207 229 228 230 230 230 236
 135 136 137 138 122  97  56  53  60  38  20  18  19  11  39  50  43  54  69 118 174 208 223 220 225 223 221 226 229 231 231 236 237 237 238 238 238 238 239 240 240 238 237 234 234 232 231 230 228 225 222 223 221 218 212 205 200 200 196 197 193 191 193 185 188 175 152 141 101  72  59  51   9   5   8   9   9   8   9  13   2   2   3   4  20 214 232 227 230 232 231 234
 135 137 138 139 130  86  76  65  28  10  17  20  23  20  32  57  28  33  82 142 179 217 212 222 225 223 225 226 226 230 231 235 236 237 238 237 238 237 238 240 240 241 238 236 231 228 229 227 225 226 224 223 222 218 213 205 198 197 194 195 194 192 194 187 187 172 162 148 111  70  65  62  34  12   8  14  13  18  15   8   3   6   1   4   4 137 224 230 231 231 230 231
 136 136 138 140 133  67  38  80  25   5   3  14  14  18  24  18  25  49  99 140 183 212 222 224 225 227 225 226 228 229 231 234 235 237 236 236 236 234 234 236 237 236 234 235 232 228 228 226 227 225 226 222 221 214 212 203 197 197 193 194 195 193 192 191 178 167 168 165 128  83  55  45  28  17  11  12  16  15  12   4   4   3   2   3   5  97 228 225 229 231 232 231
 138 136 137 137 146  51  55  25   2   3  17  23  35  29  26  13  36  74 102 146 190 214 220 224 225 227 228 228 230 232 232 236 235 234 236 235 234 233 236 238 239 238 235 234 231 229 228 226 225 225 224 219 217 214 211 203 192 196 196 195 199 195 192 190 176 169 159 148 129  87  66  44  31  11  12   7   9   6   3   3   2   1   5   4  11  95 194 222 223 226 228 228
 137 137 140 141 145  89  63  27   4   1   1   9  12  32  20  29  56  76 109 157 192 209 222 226 225 227 229 229 231 230 233 234 231 231 233 232 231 231 232 233 235 237 237 236 232 230 230 228 226 226 224 219 215 211 207 196 191 194 196 199 199 196 190 187 178 171 152 143 119  92  62  38  40   7   5   6   4   3   3   2   4   4   6   4  10  56 194 218 220 221 223 228
 138 124 128 128 126 124  64  42  12  10  16   6  20  39  24  60  70  91 123 175 196 212 219 225 226 226 229 230 230 231 231 231 232 231 233 232 232 230 231 231 234 236 233 234 232 230 230 230 228 225 224 220 214 211 207 191 190 192 193 200 197 198 192 187 178 176 152 131 106  90  67  35  22   8   3   2   1   2   2   2   9   3   5   4   4  27 140 135 144 148 148 152
  96  84  83  78  79  73  76  16   5   4   0   2  24  55  55  63  58  80 135 163 192 214 217 223 226 228 230 230 230 231 232 232 231 231 232 231 229 227 226 227 227 227 229 230 229 228 228 228 226 223 222 218 212 206 204 192 189 190 195 194 198 196 193 189 181 175 153 136 107  90  64  42  17   4   3   1   3   3   3   2   3  12   0   5  12  44 164 167 186 188 197 195
 121 126 130 128 117 128 124  50   1   1   1   2  30  69  58  56  54  87 127 162 198 215 217 222 227 229 230 231 228 229 230 230 229 228 229 228 227 226 222 225 225 223 224 227 229 228 227 226 223 223 221 217 212 205 200 192 192 190 191 194 195 196 193 189 179 177 151 128 102  76  63  40  24   4   2   1   2   2   2   5   2  52   6   2   3  59  84 214 218 219 221 219
 133 136 140 139 138 132 136  96   2   3   3   9  66  60  60  44  42  81 111 148 186 209 220 222 227 228 229 231 229 228 230 229 229 230 230 229 228 226 226 227 223 221 223 229 229 228 227 226 225 224 221 220 211 207 202 193 190 191 189 191 192 192 190 189 181 175 151 122  98  72  47  38  21   5   0   2   2   4   4   4  20  17   8   4  16  34  10 184 215 217 215 209
 133 141 145 146 139 141 131 125   7   1  41  19  52  47  43  40  42  82 113 167 192 207 216 221 227 227 227 227 227 228 230 230 230 231 234 231 229 224 227 229 227 220 223 228 228 227 229 227 227 225 221 223 214 208 202 194 191 191 186 185 189 189 190 189 178 176 158 133 110  79  43  35  19   8   1   0   3   5   6  13   8   3  22   2  22  57  91  68 189 178 181 176
 125 127 127 130 126 128 134  96  11  20  39  42  12  14  23  15  38  64 122 166 199 208 215 219 222 225 227 231 230 233 234 231 232 232 235 236 235 228 226 231 229 225 223 230 230 229 229 229 226 225 224 220 212 205 200 198 196 189 183 181 182 186 185 184 180 175 168 152 121  86  60  39  22   6   1   0   7   8   6   5   7   7   9  19  13   9  30  40 133 137 139 134
  90  89  90  95  96  92  81  59   1  36  12  33   8   9  10  19  41  80 129 183 200 206 215 216 221 225 227 230 231 234 236 233 232 231 238 241 239 232 229 234 233 224 227 233 233 232 232 230 228 225 222 218 210 203 199 203 199 195 191 185 179 181 182 180 176 174 164 144 131  97  61  37  31  13   3   3   7   2   5   8   8   9  14  12   7   6  23  99  97 101  98 100
  75  72  72  75  72  68  70  52  23  22   4  15   4   4   5  20  44  80 162 197 201 206 211 216 221 229 229 231 233 237 240 239 234 229 240 240 241 238 237 236 236 229 231 234 237 234 230 232 233 229 224 222 210 203 199 206 204 199 193 190 185 180 177 177 172 168 160 149 137 113  72  46  24  16   4   1   1   1   8   7  12   5   7   4   9  46 162 178 171 175 173 171
 101  94  99 102 102  99 104  58  14   6   2   4   2   2   4  26  47 102 180 197 202 204 208 216 222 233 232 233 234 235 237 239 235 230 234 238 235 234 237 231 231 231 233 237 235 233 232 231 234 233 226 217 204 199 200 209 210 204 198 193 188 184 171 175 168 162 160 153 141 137  80  49  32  12   6   1   1  12  15   2   3   2   8  18  13 138 172 178 176 179 181 179
 104  98 100 101 104 103 105  59  14  11   7  10   2   1   4  43  30 138 187 199 202 202 212 217 225 235 238 237 234 239 236 234 228 211 211 215 223 227 231 228 225 231 236 234 230 229 231 227 222 224 220 216 209 205 196 205 207 206 196 195 191 187 177 169 166 160 155 149 138 138  94  55  33  21   4   0   1   1   1   5   3   5  10  17  23  81 170 173 181 180 179 176
 105 100 100 103 105 106 100  69  35  44  30  13   4   1   5  19  39 178 195 203 200 201 210 213 215 208 210 210 211 214 194 148 140 147 178 180 198 210 219 215 223 229 231 229 225 221 225 219 205 201 201 180 182 181 187 193 196 194 192 178 173 184 178 169 165 155 150 148 138 138 109  66  27  21   4   1   1   1   2   3   4   4   6  20  29 141 156 164 179 180 179 178
 108 107  99 105 106  99  96  75  52  12   3  12   1   1   4  16  83 184 197 205 194 207 206 185 179 171 173 166 153 138 102  84  78 119 135 168 184 207 201 209 219 226 225 218 216 220 221 209 186 162 170 160 154 126 109 133 155 154 153 144 134 120 145 152 170 150 140 142 136 134 118  85  32  17   5   1   0   2   6   7   4   5   6   4  49 180 173 183 184 183 180 180
 107 106 104 102 101  97  69  71  56  27  15   1   1   1  10  31 108 192 198 200 196 194 170 137 138 139 156 158 124 121  92 103 120 144 155 146 185 195 199 206 214 225 223 211 206 209 211 199 180 166 166 137 121 111  98  74  67  90 100 130 131 112 111 124 136 141 130 132 129 126 117 100  38  12   3   1   2   9   6  14   8   7   4  57 160 166 171 183 183 182 180 180
 107 104 105 108 106 111 108 106  71  45  17   1   3   3  24  52 129 195 202 198 189 172 147 140 115 113 111 116 114 121 146 159 149 143 147 152 166 173 185 196 214 222 223 204 193 197 203 185 166 146 136 116  92  73  72  66  57  67  77  97  88  82  81  92 107 128 126 126 126 127 119 108  45  17   6   2   3   7  18  38  16   6  12  49 169 180 180 182 184 182 181 183
 106 106 107 107 106 110 113 110 106  37   6  18   2  11  24  60 136 192 199 196 189 180 159 142 155 161 168 174 175 181 170 123  88  70  81 126 156 168 178 189 212 226 223 206 190 183 177 157 134 114  93  91  62  49  74  89  85  91  96  87  71  85  73  87  93 120 122 122 119 125 121 109  51  27   5   3   2  12   7   5   5   8   6  37 151 176 176 183 184 185 185 183
 112 112 109 108 109 112 113 112 105  75  16   6   7   8  28  47 149 198 198 198 201 192 178 180 172 176 174 148 106  43  17   9  22  68 129 126 133 157 169 195 219 228 229 218 194 172 162 142 116 106  83  78 107 156 150  77  50  51  93 113 123 122 103 109 118 116 125 121 116 121 122 111  55  25   8   5   4   4  13   7  16   9  12  93 177 178 185 185 183 186 185 180
 111 111 110 109 110 109 109 106 113  94  37  44  24  19  20  50 153 206 201 197 201 194 184 185 171 133  55  30  77  57  36  69  93  60  89 134 173 169 181 204 223 235 240 228 204 177 153 133 121 127 163 189 188 114  97  29  18  20  21  39  87 111 133 119 130 133 130 122 116 121 120 113  56  17   4   1  11  17  21  22  18  13  76 152 173 178 184 187 184 182 184 181
 110 111 108 108 110 112 113 113 105 107 217 205 119  18  11  53 169 206 202 202 203 198 182 184 111  54  45  90 132  92  60  54  57  86 148 163 135 209 212 212 222 235 237 228 203 167 148 145 152 186 205 158 116 219 170  43  16  65  57  53  26  79 110 121 125 143 137 133 121 121 121 116  64  21   4   2  13  31  19  15  11  13 146 186 182 182 186 185 185 187 187 186
 108 109 107 107 111 114 113 113 114 164 203 221 160  61  28  55 182 206 203 206 206 206 186 181 153 141 152 172 176 182 170 172 178 175 179 191 210 223 217 215 220 229 233 225 198 159 146 161 189 212 155 145 165 195 187  88  65  64  78 118 107  55  80 130 135 151 154 138 129 131 123 116  69  21   4   4  18  30  17   5   6  21 104 177 178 180 184 184 188 187 187 187
 107 111 111 114 115 114 113 111 112 189 101 170 170 150  58  69 192 205 207 210 215 220 220 214 210 201 194 192 194 193 202 195 192 191 189 187 203 214 215 215 221 231 230 221 192 157 149 172 207 220 225 206 194 204 199 173 168 176 136 137 126 106 100 117 148 162 164 144 139 138 120 112  68  33   5  12  39  64  98  82  12   9 171 174 172 180 183 186 186 186 188 186
 107 112 115 117 113 112 117 115 113 178 141 151 149 192  83 107 203 206 212 212 215 222 223 223 218 212 209 210 214 205 200 196 200 207 211 220 211 222 221 218 220 231 226 216 193 152 149 180 189 204 213 209 196 199 200 191 178 156 156 142 155 144 161 171 165 181 177 158 147 140 123 115  75  23  10  21  88 107 120 134 110  71 182 158 172 183 185 187 186 187 187 188
 106 108 113 115 115 114 116 117 117 162 205 166 189 192 122 129 202 204 208 211 217 222 222 224 225 224 224 219 220 224 226 226 230 230 231 225 225 224 220 217 221 232 225 208 192 146 141 185 190 197 204 215 211 212 207 196 183 178 172 164 158 169 183 187 184 187 182 166 153 143 125 116  87  28   9  35  61 101 129 116 126 146 179 181 174 182 186 188 187 188 188 189
 107 111 117 118 118 118 117 112 116 127 226 161 218 223  77 153 198 200 208 213 220 224 224 228 228 228 231 228 232 230 233 234 235 236 233 231 225 223 220 221 226 231 226 209 187 151 139 180 191 195 206 211 223 220 218 217 212 211 199 192 196 190 198 195 184 185 185 166 156 145 131 120  96  31  15  40  64  97  42  47 125 107 166 178 183 188 189 189 188 189 190 192
 110 112 116 113 118 118 119 118 107  80 231 161 227 209  53 158 203 204 206 212 218 219 225 227 230 232 231 232 235 235 236 234 232 232 232 227 228 223 221 221 225 224 223 206 180 156 142 167 185 190 207 208 216 223 219 218 219 217 211 209 202 203 201 194 189 179 177 164 158 142 131 121 102  49  17  86 143 142  88  75 147 109 176 184 189 194 193 192 189 190 191 194
 110 112 117 119 122 123 123 114 101  52 229 161 226 209  59 172 204 205 210 212 219 221 228 229 232 234 234 237 236 234 231 233 233 231 231 228 223 223 223 221 225 227 219 206 179 152 138 161 188 184 203 211 210 217 218 221 223 217 212 210 208 206 203 196 187 180 177 164 156 138 129 121 101  47  32  85 151 146 110  87 138 149 168 184 188 191 192 193 190 193 194 190
 110 106 109 118 120 120 124 127 107  92 227 176 226 209  89 178 200 203 206 211 216 223 227 227 231 233 234 235 236 235 235 233 232 231 229 225 225 223 221 218 227 231 224 212 182 150 138 159 185 190 202 214 209 211 213 214 214 218 214 214 213 208 203 197 186 179 173 168 156 135 123 120 104  69  54 103 159 150 100 114 116  68 176 188 189 190 195 194 193 196 195 192
  84  80  83  89  89  90  94  88  94  85 197 198 224 205  87 179 199 208 208 209 215 225 226 228 232 235 236 237 238 238 233 227 229 231 227 223 222 220 217 222 231 233 225 217 189 152 135 147 182 189 200 209 210 210 209 212 214 217 214 211 211 207 204 197 183 179 170 162 149 130 121 121 111  78  59 108 140 153  90 136 100  77  73 131 128 130 139 142 141 141 144 153
  99 106 106 106 108 108 110 108 115 116 154 209 227 189  88 176 196 209 209 204 212 222 222 225 231 234 235 237 237 237 237 233 233 231 227 225 215 212 212 222 232 234 228 213 192 165 130 131 177 192 204 208 210 214 214 213 214 217 219 214 206 210 203 197 182 180 170 161 147 132 121 118 105  85  78  95 139 153  99 142  14 145 155 186 182 181 182 182 174 177 180 176
 134 137 137 132 135 134 135 133 135 133 130 221 234 213 127 165 198 205 205 204 211 220 220 221 225 232 236 239 241 238 238 234 233 230 227 219 207 210 216 226 230 235 228 217 199 176 133 122 160 201 207 210 208 210 213 215 213 212 212 209 206 204 198 192 185 180 172 159 140 129 120 119 104  86  68 120 141 160 122 126  15 129 183 188 197 203 201 200 199 201 202 201
 135 141 139 139 138 137 137 140 142 129 102 223 237 229 123 152 193 201 207 208 213 213 219 220 223 226 234 237 240 240 239 235 235 232 229 210 209 215 218 230 234 240 232 218 200 179 138 128 134 185 212 217 207 215 218 217 214 211 214 210 209 202 196 192 187 176 166 155 139 128 118 115  91  82  67 136 156 155 124  64  53  65 189 196 201 200 198 199 201 201 202 202
 137 143 142 142 144 144 142 143 133 128 118 218 228 220 141 147 192 201 203 208 214 211 217 218 221 227 232 236 240 240 241 237 234 230 227 213 217 217 217 227 237 243 237 229 208 177 150 160 162 152 208 216 214 220 219 220 218 211 213 208 204 198 190 184 183 170 166 154 137 122 117 113  85  62  90 149 167 148 143  37 169 105 183 198 199 199 200 201 201 202 202 201
 139 143 147 143 142 145 145 148 145 138 132 185 215 221 154 146 189 200 205 211 214 215 214 218 223 227 229 237 238 241 238 237 231 229 223 214 206 205 207 216 221 236 229 220 200 164 164 165 165 148 173 220 218 219 220 219 216 216 214 205 200 195 188 181 177 170 161 150 134 122 115 104  82  74 117 145 168 130 141  78 173  92 194 200 201 201 199 201 201 203 203 203
 145 146 148 144 148 151 150 148 148 142 139 128 221 217 151 137 176 190 205 211 215 217 217 220 221 222 223 231 238 236 238 235 228 225 219 200 176 144 175 200 211 212 215 207 168 141 149 141 154 154 139 209 215 218 219 218 216 215 212 206 198 191 182 179 175 168 161 147 127 120 115  95  65  79 119 138 152 128 106 107 180 162 189 199 201 202 202 200 198 201 202 204
 147 147 150 150 154 155 155 152 153 157 125  63 232 208 158 117 168 189 199 211 217 218 219 219 219 221 222 228 234 237 236 235 228 227 221 188 153  96  81 164 197 203 196 176 134  67  29  51 129 145 123 194 221 219 219 218 218 217 212 203 192 183 178 173 169 165 159 144 123 120 113  91  71 101 144 144 132 145 118 106 142 186 195 202 199 202 201 202 200 201 203 202
 149 150 154 156 161 154 155 150 157 150 110  83 238 220 130 127 151 167 197 208 215 220 221 220 220 221 223 226 232 235 233 232 229 232 227 200 180 210 207 183 177 180 169 144  86  92  93  91 139 124 129 201 223 219 219 218 217 212 208 199 189 184 179 170 168 167 155 136 125 122 109  90  74 134 164 129 131 138  92  58 109 180 200 201 202 200 201 204 201 201 202 202
 147 147 152 154 158 155 155 152 154 157 126  86 224 221 150  98 135 162 190 207 215 219 221 220 221 223 224 226 230 233 233 231 233 232 228 222 204 214 215 219 176 152 119 108 108 108 124 133 142 161 190 214 220 220 218 215 215 209 204 196 188 180 177 171 173 164 155 134 124 116 104  82  71 112 148 139 147  74  74 133 182 182 198 205 201 201 201 203 201 199 203 203
 145 148 152 151 154 152 155 156 154 151 134 132 178 226 164  86 118 156 185 202 214 219 221 220 218 222 223 225 227 229 233 234 237 233 217 211 192 182 182 199 209 188 165 176 157 125 119 160 165 181 197 212 216 220 217 212 211 209 201 193 186 183 174 173 170 162 154 133 127 119 102  79  80 138 140 142 149  49  32 155 179 194 192 199 199 199 201 204 202 203 203 202
 147 150 149 148 152 156 155 155 155 156 148 141 164 228 192  83 111 162 170 195 208 215 221 219 220 222 225 225 227 229 232 232 230 233 220 185 152 127 131 132 174 189 208 182 150  98  76  84 135 149 181 201 211 213 214 212 206 203 198 193 188 179 177 165 168 157 149 134 123 116  95  81  79 127 148 139 125  12  56 137 148 169 194 197 200 201 201 201 201 202 204 204
 147 151 151 151 154 158 154 153 156 152 144 118  57 219 206  77  99 152 164 190 202 208 215 220 222 223 226 227 228 229 229 232 230 217 183 136  86  82 100 131 119 137 172 130 122  97  68  57  77 126 175 193 204 211 214 210 206 201 194 192 189 185 179 167 164 149 144 134 125 109  92  66  96 119 142 145  75   4  26 188 203 194 195 200 201 201 203 201 201 204 205 204
 148 151 153 157 159 158 154 160 160 159 115 101  83  95 160  68 102 135 162 182 202 207 212 218 222 222 229 224 232 234 223 195 192 177 126  85  81  85 100 110  91 117 180 165 127  99  68  50  62  73 134 168 181 196 205 211 204 202 198 196 194 188 175 171 159 148 139 130 123 106  75  66  87 111 141 137  20   1  50 165 191 197 204 200 201 200 202 203 203 203 204 205
 150 154 155 157 161 161 157 157 158 151 143 134  99  36  37  30  54 144 160 179 192 199 210 215 221 223 226 218 219 203 173 148 149 131 126  80 106 109 134 151 195 185 204 203 164 141  95  58  49  66  76 120 142 168 181 197 202 205 202 193 190 186 172 165 153 141 125 120 117 100  75  64  63 111 130  67   7   0  47 171 193 199 201 200 200 198 202 202 203 204 206 206
 151 156 157 158 163 166 164 157 152 150 147 135 137 113  27  31  56 122 159 173 176 191 207 215 219 224 223 219 190 166 135 114 132 129 132 114 118 122 153 182 210 227 228 212 192 138 118  79  70  60  82  92 128 106 135 174 203 205 202 196 194 182 173 162 140 129 117 113 108  92  76  47   7  23  12   5   9   5  67 175 192 200 201 201 199 201 201 204 205 207 207 205
 151 155 156 158 163 168 164 159 152 150 150 155 146 143 114  28  48 119 169 159 173 187 192 214 217 219 213 209 163 110 116 131 134 145 179 154 146 173 185 187 189 201 192 166 171 170 160 131 105 102  93  83 101  98  99 131 158 198 199 197 188 181 169 153 135 117 112 120 106  93  61  41   5   5   9   3   8  22  63 179 197 205 201 201 201 201 201 204 206 208 207 205
 149 153 154 157 164 167 163 155 153 153 148 146 146 145 142  45  37  86 145 146 166 182 184 193 205 217 206 173 138 122 123 129 159 177 181 156 163 164 163 170 161 169 188 143 146 161 159 147 139 145 123 105  91 103  99 105 115 179 197 200 184 175 168 140 121 118 105 110  92  82  59  25  12   6   6  15  21  91 155 190 201 199 201 202 201 201 203 203 205 208 205 204
 147 150 153 156 158 161 160 154 156 154 148 146 149 149 141 108  39  67 107 144 151 151 154 182 209 207 184 150 116 117 123 119 150 151 125 119 127 122 112 115 124 116 122 115  88  97  95 111 120 128 141 127 113 108  99  90 106 142 185 190 179 163 159 125 108 106  99 109  86  73  50  21   8  12  23  30  51  96 163 198 200 197 202 200 199 202 201 203 204 206 205 204
 146 150 151 152 155 156 157 153 151 150 146 150 149 147 142 137  77  47 117 134 139 126 152 190 182 189 174 152 130 163 158 160 127 132 146 187 186 198 193 185 183 184 184 185 191 178 170 157 130  97 106 137 153 143 144  99  89 108 165 176 159 136 127 117  94  97  95  92  80  59  30  23  14  20  27  68 135 172 193 193 198 199 200 199 201 201 202 202 201 204 205 204
 147 148 149 149 152 151 149 147 146 147 147 145 142 149 142 139 106  52  92 110 155 128 133 162 165 161 185 172 146 182 206 214 218 214 203 202 204 212 220 212 200 191 191 196 193 185 174 175 161 145 149 146 155 164 153 138 116 112 128 165 149 134 120  95  83  81  89  81  62  45  28   6  31  37  30 122 171 189 194 195 197 200 201 203 202 203 201 201 201 202 203 202
 144 145 146 147 153 150 144 145 143 143 145 146 144 146 143 142 131  71  47  84 124 123 120 125 148 180 194 178 199 216 224 224 222 223 222 220 222 224 228 227 222 213 204 202 199 191 186 186 173 174 179 176 185 188 176 144 139 129 136 129 130 124  97  72  72  73  68  73  55  43  29   5  30  42 119 114 174 191 192 196 199 200 201 203 203 204 203 204 201 202 201 203
 139 140 143 146 149 145 143 143 144 145 146 143 146 146 147 146 143  95  40  68 106  96 108 125 139 174 196 184 205 228 230 226 222 223 225 221 215 221 216 208 205 207 200 202 199 194 191 189 178 185 182 180 193 198 196 167 138 155 157 131 121 123  88  73  68  62  53  47  48  40  32  29  32  74 103 145 187 195 192 197 197 200 202 205 205 205 203 204 203 203 204 202
 136 140 141 143 145 145 142 144 147 146 144 143 144 146 148 154 143 135  42  42  69  88  99  95 120 154 188 211 225 228 227 227 224 223 225 224 211 195 193 183 173 178 174 174 186 189 189 185 186 189 186 195 199 193 194 194 161 118 140 133 112 100  88  72  48  47  44  40  28  43  92  83 138 189 189 195 194 196 196 198 198 199 201 205 206 205 202 203 203 203 204 204
 135 139 142 143 143 146 141 142 146 144 145 143 147 146 150 149 151 157 104  43  59  74  74  98 110 133 189 208 215 224 230 226 221 224 224 223 211 196 180 177 148 160 150 166 178 177 190 188 195 200 202 199 194 195 192 201 172 125 122 117  79  80  61  57  39  53  40  36  32  30   2 150 162 185 190 191 197 195 196 199 201 199 201 203 204 205 204 204 203 200 200 200
 139 139 141 142 144 145 141 145 145 146 146 144 148 152 151 149 156 161 164  44  29  54  53  73  91 139 164 182 207 228 228 229 228 225 225 227 219 206 186 177 158 168 176 174 195 202 208 205 207 203 201 197 194 196 193 190 186 142  87  82  69  71  55  43  37  32  35  24  50  22   0  39 180 189 193 193 198 197 197 199 199 198 201 204 205 204 205 204 201 199 200 201
 136 138 139 140 145 143 142 145 145 144 144 146 149 152 152 152 155 162 146  99  31  62  40  44  86 119 128 156 187 201 224 230 229 229 229 230 232 231 222 197 199 190 213 197 195 212 213 213 210 207 201 200 199 187 180 158 158 143 107  75  58  65  48  34  30  29  26  32  53  15   3   0 188 191 198 196 196 197 198 200 200 198 202 203 205 204 203 204 202 199 200 200
 138 142 140 139 143 141 144 141 144 146 147 144 151 151 154 153 159 158 159 138  48  34  30  32  67  81 112 138 185 198 222 232 235 239 238 237 237 239 231 216 212 220 223 226 216 215 217 216 211 209 204 201 198 191 167 145 122 110  89  79  48  24  22  23  27  24  34  53  83  13   0   8 189 189 193 191 194 195 197 201 199 199 202 202 205 205 204 202 202 200 200 200
 138 144 140 138 142 139 144 144 143 143 145 149 152 151 156 156 157 166 163 148  74  38  14  25  47  61  66  98 132 206 204 226 237 243 239 240 239 239 232 228 220 227 221 226 220 225 224 222 216 213 208 202 200 179 150 119  79  76  54  50  31  18  20  12  15  27  35  64  86   3   1  23 192 187 191 196 191 195 198 197 200 199 201 203 203 201 203 204 201 199 201 201
 140 139 139 139 141 140 144 146 143 141 144 149 151 155 155 154 160 165 167 155 116  37  20  22  29  57  55  87 131 167 175 197 213 239 235 237 239 231 225 211 221 219 223 215 217 219 221 223 217 210 192 200 189 165 128  89  68  48  37  30  22  12  10  10  18  27  51  98  50   1   1   6 186 195 188 191 192 193 195 197 200 199 201 201 201 200 201 202 201 198 199 200
 141 141 138 137 139 139 142 140 142 141 142 147 150 158 157 155 160 162 165 157 151  96  19  15   9  20  38  59 108 116 147 147 174 207 212 189 217 218 209 187 206 224 206 205 215 198 208 214 206 196 191 184 176 148  97  66  43  45  20  14  15   2   4  13  26  48  81  89   6   1   1   0  37 196 191 189 192 194 195 196 198 197 199 199 200 202 199 201 199 200 199 197
 144 139 137 137 140 140 142 140 141 142 142 146 150 153 154 161 161 163 161 153 159 152  87  44  11  11  17  38  63  90 100 102 147 159 168 183 181 188 212 171 181 206 177 187 182 163 165 179 179 163 147 145 124 114  85  52  25  25  19   7   3   4  10  25  25  75  95  19   1   0   0   0   1 132 193 195 191 194 195 194 196 197 198 197 198 201 202 201 197 198 200 198
 142 140 137 137 140 142 142 141 142 140 143 147 148 151 155 157 159 157 156 157 158 160 133  81  39   6   6  31  42  88  78  89  79 108 145 144 144 149 199 172 162 194 153 133 149 158 122 133 113 125 136 115  96  67  56  41  17   9  12   6   2   4   7  32  64  88  19   3   0   0   0   0   0   3 189 197 193 192 191 196 194 196 198 198 201 200 201 200 200 200 198 199
 141 139 135 136 142 143 144 142 140 138 144 149 148 148 150 156 157 156 157 157 160 163 163 149  96  57  12  12  32  23  65  76  72  98 103 119 119 109 143 137 161 157 144  93 133 124 126  88  79  88  78  73  61  40  29  22   8   9   7   3   3  10  12  69  81   7   3   0   0   0   0   0   4   0  17 200 193 188 194 194 196 193 198 201 200 201 200 200 202 203 200 201
 145 142 135 136 141 140 142 141 141 138 143 146 147 147 150 150 155 155 153 158 164 166 159 165 140  72  15  11   9  25  48  43  58  66  85  95  84  88 112 130 118 119 121  91 107 108  85  94  60  54  57  57  32  28  21   4   3   5   3   1  11  36  94  29   5   0   0   1   0   0   0   0   0   0   0  57 201 196 193 185 194 197 200 199 199 203 202 200 200 200 198 201
 149 146 138 135 140 140 143 139 138 140 142 144 147 148 146 148 151 152 154 156 158 163 159 130 182 141  65  10   6   5  21  24  55  36  53  84  76  70  87 105  92  95 118  81  77  73  66  68  60  45  42  32  18  15   5   4  12   3   2  23  55  41   2   2   0   0   0   0   0   0   0   0   1   2   0   6 120 193 190 194 193 196 199 198 196 199 198 202 202 201 201 199
 148 147 139 137 136 139 142 138 138 139 142 146 144 146 149 148 153 150 151 153 157 159 155  44 164 179 135  30  10   5  11  12  17  39  28  56  61  68  78  76  77  79  86  66  60  61  51  36  31  35  30  12  12   3   4   2   5   2  13  18   5   0   0   0   0   0   0   0   0   0   0   0   0   0   4   1   3 160 189 194 188 198 194 196 193 197 200 201 200 203 203 199
 152 146 137 139 139 140 137 138 139 140 142 147 145 144 148 150 152 150 152 157 153 154 151   3 128 165 175  87  44   7   3  12  20  46  28  32  38  44  79  51  47  35  51  48  48  25  30  23  16   9  10   5   2   0   1   1   3   2   1   0   1   0   1   0   0   0   0   0   0   0   0   0   0   3   6   6  14  13 186 194 185 195 198 189 193 197 198 202 202 203 203 204
 150 143 136 136 138 139 139 135 137 138 141 148 148 146 148 149 149 150 153 154 154 154 135  12  90 187 189 114  70  16   2  22  18  29  21  17  20  25  28  40  14  14  23  37  39  19  16  26  11   8   3   5   2   0   0   0   0   0   0   0   0   0   0   0   0   0   0   0   0   0   0   3   2   6   9  12  12  11  43 197 194 195 191 196 201 195 193 200 200 202 203 202
 148 141 138 135 138 140 138 140 139 141 142 145 148 147 151 154 153 156 157 151 152 154 122  15  48 186 197 191  97  48  18  17   6  15  19  16  12  11  11   8   8   9  15  31  23  15  14   4   4   1   0   1   0   0   0   0   0   0   0   0   0   0   0   0   0   0   0   0   0   3   3   5   6   8   9  13  17   3   9   5  66  49  97 156 197 197 199 201 201 202 202 199
 148 142 141 138 138 137 138 139 138 138 140 142 148 149 152 150 150 154 152 149 151 149 132  18  11 175 201 182 186 120  82  60  18  24  18  10  10  16   7   4   4   2   3   9   5   7   3   7   2   0   1   0   0   0   0   0   0   0   0   0   0   0   0   0   0   0   0   0   0   3   6   6   9  13  13  11  13  12  10   9  16   8  11   8   0  83 191 197 199 200 199 201
 148 141 138 136 138 140 140 137 136 137 139 141 145 148 147 151 148 151 149 148 150 148 144   4   9  48 193 194 194 188 143 121  88  68  37  26  10  11  10   8   2   4   2   2   3  10   7   1   0   0   0   0   0   0   0   0   0   0   0   0   0   0   0   0   0   0   0   0   3   5   6   9  12  13  12  14  14  15  12   7  10  12  12  16   8  14  28 177 208 200 203 199
 144 139 139 138 136 137 137 137 139 138 139 143 144 148 149 149 150 149 147 148 152 150 143  57  16  11  20 144 194 201 168 160 147 153 120  71  49  26  10   4   9   1   2   3   3   0   0   0   0   0   0   0   0   0   0   1   0   0   0   0   0   0   0   0   0   0   0   4   8  11  11  12  12  13  13  16  17  16  13   9  13  12  12  10  20  10  17  12  30  41  81 145
 145 142 137 138 136 133 134 137 138 138 137 139 138 144 146 146 149 143 144 143 151 151 142 116  11   8  15   2  30 100 170 178 192 180 183 160 172 104  70  47  16   3   3   0   0   0   0   0   0   0   0   0   0   0   0   1   0   0   0   0   0   0   0   0   0   1   1   7  10  13  13  13   8  13  15  17  15  17  16  12  12  15  15  16  13  17  12  12  17  14  15  20
 145 141 134 134 135 134 136 136 137 139 137 137 141 144 148 148 141 142 147 150 144 152 143  53  19  13   3   9   7  16   2  21  44  79 103  94  68  32  17   7   0   0   0   0   0   0   0   0   1   0   0   0   0   0   0   0   0   0   0   0   0   0   0   0   0   2   6  14  11  12  11  12  25  18  16  16  16  17  15  15  16  16  12  14  17  16  14  15  17  12  13  11
 142 143 138 134 133 132 136 136 136 138 137 140 139 144 148 145 145 144 150 142 146  33  14  15  16   6   3   6   9  10   9   8   7   5  10   3   4   6   6   1   0   1   0   0   0   0   0   0   0   0   0   0   0   0   0   0   0   0   0   0   0   0   0   0   0   0  13  11  11  12  13  15  17  15  18  19  17  17  16  17  14  15  16  18  17  13  13  14  15  14  15  13
