P2
# Generated by OpenCV 4.2.0
92 112
255
 122 120 116 109 100  87  71  59  47  39  37  40  53  67  79  89  95  99 101 102 102 102 100  97  94  93  90  88  90  94 101 100  97  89  81  99 102  96  88  80  62  55  67  62  46  42  56  73  89 109 101  88  76  70  70  69  76  87 100 110 118 129 141 150 155 160 163 165 162 161 159 158 156 154 152 151 149 148 149 148 151 150 150 151 151 151 153 152 149 144 138 129
 127 126 121 116 107  97  85  72  60  52  44  43  52  67  78  91  97 101 103 104 104 103 102 100  98  95  91  90  91  97  93  85  93  95 100  99  83  74  54  45  47  48  49  59  55  47  50  51  55  75  68  51  46  38  42  51  61  57  62  86 110 125 132 142 150 157 162 164 163 162 160 159 157 155 153 151 149 148 147 148 147 149 150 150 151 152 152 151 147 141 136 128
 135 134 132 128 121 112 103  90  77  65  55  51  54  66  80  92  99 104 107 109 107 107 105 102  99  96  92  90  92  89  77  88 100 103  92  72  60  53  47  42  43  38  32  43  51  53  51  81  77  70  61  60  45  41  41  33  47  46  35  42  66  94 131 139 149 155 159 162 163 162 160 157 156 155 152 149 148 147 146 147 147 147 148 150 151 151 151 148 145 140 134 127
 143 144 143 140 136 128 120 107  95  82  71  63  62  69  81  93 102 107 107 110 110 109 107 104 100  96  93  88  80  81  90  89  83  70  57  41  40  44  49  50  54  53  47  43  47  55  75  80  50  55  60  56  54  59  49  36  48  48  38  34  65  65  95 149 149 160 163 165 166 166 163 159 156 155 152 150 146 146 146 146 146 146 147 147 149 149 149 148 144 139 134 127
 152 154 155 154 151 145 135 124 113  99  87  78  73  75  84  97 106 110 111 112 111 109 108 109 102  96  87  65  69  75  74  59  52  48  41  45  46  42  43  48  44  61  60  45  55  64  70  46  38  57  50  52  64  58  57  48  58  67  58  30  39  76  64 120 160 162 168 170 172 170 167 163 161 158 155 151 148 148 146 145 145 145 147 148 149 148 147 146 144 140 135 126
 161 164 167 166 165 159 149 139 127 115 101  92  88  87  89  98 110 113 115 116 114 107 110 106  90  83  68  68  74  67  47  43  43  40  38  33  35  42  52  58  49  42  50  52  52  61  59  32  39  46  50  59  41  46  51  48  51  61  61  46  34  42  86  86 143 160 168 171 173 170 167 163 161 159 156 152 149 148 146 145 144 144 145 145 147 148 147 146 144 142 135 126
 172 174 177 177 175 170 162 153 141 128 116 107 100  97  98 103 112 116 119 120 111 102  87  65  54  52  47  46  47  43  37  31  30  33  26  19  24  46  60  60  54  37  40  44  45  52  54  37  44  45  54  38  35  38  36  46  62  59  51  42  45  40  65  88 112 147 161 170 177 174 165 160 157 154 152 150 147 144 142 142 142 141 142 143 145 148 149 149 147 142 136 126
 179 181 185 186 183 179 172 163 153 141 130 120 113 109 108 109 116 117 105  87  67  46  26  17  18  22  23  24  31  34  35  36  31  26  19  22  26  43  63  65  54  35  34  37  46  56  51  45  42  48  42  28  39  30  45  66  57  44  40  42  43  45  43  64  91  99  81  93 110 135 167 163 154 150 148 146 143 140 136 137 138 139 141 143 145 148 149 150 147 142 135 126
 181 187 192 192 190 186 180 173 163 152 141 131 122 117 115 116  91  59  43  32  18  14   9  14  13  10  18  16  15  16  17  27  32  38  41  32  35  42  48  58  55  41  33  35  47  59  45  49  40  47  37  47  38  34  63  52  44  38  38  47  48  36  34  50  82  84  63  44  46  59  86 121 141 147 145 143 140 137 134 134 136 137 140 143 146 149 150 149 146 142 135 127
 183 190 197 197 196 192 187 180 171 160 151 141 131 123 124  77  35  43  42  18   9   9  10  12  10   1  70  63  51  11   6  11  41  38  27  45  48  55  58  39  56  50  42  32  53  54  43  55  47  50  37  56  37  41  51  48  45  44  53  47  42  36  31  43  68  54  59  58  58  72  63  66  87 119 138 143 139 136 134 133 134 135 139 144 146 149 148 146 142 140 133 125
 185 193 199 202 200 197 193 186 178 168 159 148 139 133  83  35  46  38  19   9   8  13  12  16  19  29  66  65  90  63  42   3  44  70  46  50  58  54  71  30  42  52  50  50  57  41  42  58  48  52  33  48  35  42  51  49  39  54  45  30  30  32  67  63  43  44  52  65  74  65  51  66  57  73 108 132 139 134 130 129 130 134 137 141 144 146 144 143 139 136 131 122
 186 193 200 203 203 200 196 190 183 174 165 153 150 110  43  46  38  19   9  10  17  11   1  23  50  48  41  51  68  63  48  17  47  58  44  34  57  42  58  47  23  53  49  48  60  37  34  56  47  55  39  35  34  41  55  37  42  49  22  32  24  64  63  39  43  53  61  71  77  61  66  57  42  47  62 103 132 128 127 127 128 130 134 138 139 140 139 137 136 132 127 118
 189 195 200 203 203 203 200 194 186 179 169 162 142  69  44  39  25  18  26  16  19  26   2  28  49  39  34  37  37  39  31  47  34  36  40  21  45  29  37  53  24  33  51  38  48  37  23  47  58  49  60  30  34  46  59  30  56  35  22  22  42  61  33  37  45  56  52  74  66  56  72  71  50  34  26  52 113 121 120 123 123 127 132 133 134 134 132 131 128 126 121 112
 190 195 200 203 205 204 200 197 189 181 174 172  96  37  42  27  22  29  26   6  19  44  15  30  43  36  25  33  33  25  34  43  25  23  32  19  37  26  24  44  39  21  42  51  43  41  21  29  49  39  55  40  28  50  58  29  59  32  21  25  47  45  29  32  34  40  58  75  63  67  66  66  54  46  37  26  48  96 113 117 120 123 126 128 128 126 124 122 119 117 113 104
 190 195 199 202 203 205 203 198 191 182 184 127  39  43  40  22  24  17  22  14  11  30  41  29  45  43  21  40  42  25  28  34  19  16  33  25  36  28  22  36  42  29  34  48  44  42  28  19  39  45  38  46  23  43  53  29  55  35  18  29  45  38  30  29  35  43  73  63  54  67  60  68  55  45  38  30  37  52  88 113 116 118 119 120 119 117 115 112 110 106 102  96
 191 196 199 202 203 204 203 199 194 186 159  48  36  44  23  20  15  19  53  47   7  20  40  30  49  42  22  34  32  34  27  46  21  19  38  33  35  30  24  29  39  34  34  38  38  41  24  18  29  42  31  44  26  37  46  25  52  40  24  30  39  38  27  29  43  54  57  56  65  51  64  40  42  32  25  24  29  40  50 101 111 110 110 111 108 108 104 101  97  96  90  84
 192 195 199 202 203 204 203 200 189 170  66  43  54  31  18  26  30  26  53  35  19  19  27  17  23  22  19  14  21  36  22  34  24  21  29  22  27  24  25  21  35  31  38  35  27  40  29  16  21  41  30  45  29  32  41  21  44  47  26  27  37  32  26  30  45  31  42  58  50  60  30  32  53  47  43  30  23  26  31  72 106 103 101 100  98  96  93  90  87  83  79  71
 191 196 200 202 204 203 202 198 184 111  43  96  39  23  28  40  48  16  30  33  29  23  22  15  12  14  12  11  13  16  10  13  17  15  16  15  21  20  21  24  34  26  31  29  30  38  36  22  16  41  30  44  33  29  45  24  39  48  23  28  40  40  26  33  38  18  38  47  43  40  12  41  54  58  60  27  22  23  22  48  96  93  92  89  87  84  80  76  73  69  65  58
 192 196 200 202 203 204 203 194 145  57 107  60  23  25  29  29  32  16  27  35  34  20  20  17   9  12   9   8   8  10  13  11  12  10  12  10  14  21  22  16  30  33  25  20  30  37  39  25  22  41  30  41  34  36  43  24  40  48  32  24  31  44  21  32  33  17  26  49  42  23  10  44  50  40  50  33  19  17  20  32  85  87  83  80  74  71  67  62  59  56  53  46
 191 196 200 202 202 203 200 186  85  90  92  31  23  22  26  24  34  22  20  26  16  20  18  17  14  12  14   9   7   9  11  12  14  14  13  13  16  26  25  20  26  37  27  22  24  42  39  25  25  43  36  38  25  37  47  27  32  45  43  23  20  41  22  30  33  14  29  41  38  22  24  45  37  34  46  44  35  19  14  21  58  86  75  69  65  60  53  51  48  46  41  35
 193 196 199 202 203 204 192 108  52 101  44  27  23  18  23  21  28  26  15  13  10  13  18  16  11  11  14  12   8   8  10  14  13  18  19  21  23  29  29  31  32  44  37  32  25  40  36  28  29  36  43  33  20  29  45  25  34  43  50  28  17  39  22  40  28  18  31  36  36  29  29  41  32  39  43  40  48  44  21  17  34  72  69  62  60  49  45  41  38  35  31  26
 193 196 200 201 213 184 120  63  60  53  27  28  32  13  11  11  13  18  19  13  13  10  12  15  13  14  18  16  11  13  12  16  20  21  25  25  27  30  40  40  40  46  52  41  38  39  45  37  35  33  41  30  24  27  40  29  37  44  63  33  22  39  31  43  28  25  30  34  37  37  34  38  30  39  34  33  39  29  39  42  29  54  62  56  48  40  36  33  29  27  24  22
 194 197 201 200 156  95  43  42  53  31  23  28  32  13   7   8  10  11  14  16  13  15  14  20  17  14  18  22  24  26  24  18  24  26  29  25  26  29  38  44  50  52  60  64  58  49  59  61  43  39  47  35  33  34  35  37  36  41  58  43  35  35  41  46  28  30  22  28  34  37  23  29  27  31  26  22  31  23  48  27  21  31  51  51  42  35  31  28  25  23  22  22
 195 197 208 189  40  37  36  32  28  23  15  27  29  17   7   5   7   8  10  13  18  20  24  22  21  21  21  23  26  28  33  27  22  22  24  26  27  36  43  45  53  63  79  77  78  77  72  76  62  56  64  55  45  41  39  56  46  36  47  58  55  40  44  47  33  33  18  21  28  27  17  30  24  21  15  24  24  28  41  18  15  23  47  47  41  31  27  26  23  21  20  21
 196 202 207 140  22  27  26  26  20  15  20  24  28  14   9   6   6   5   6  14  22  21  17  20  26  26  24  19  23  29  33  33  26  24  27  26  31  38  53  65  64  75  92  92  97 102  91  94  96  94  89  84  74  65  59  73  58  45  50  68  70  50  53  51  37  29  21  22  23  20  20  21  18  14  20  32  29  26  20  19  17  19  45  46  40  31  26  23  20  21  19  20
 197 206 129  18  24  35  26  24  21  17  21  13  19   9   8  10  10  14  14  13  20  21  19  20  22  21  17  22  34  41  40  39  35  32  35  29  28  39  51  64  74  88 112 114 119 141 141 135 135 133 123 119 106 103  88  87  77  63  67  83  75  58  59  60  50  38  26  23  23  20  22  16  14  13  20  33  37  28  14  10  12  12  29  57  40  30  25  22  21  19  18  19
 209 153  56  20  10  32  31  23  18  18  12  12   7  10  12   8  11  19  22  18  16  20  21  15  17  23  28  41  51  59  53  48  58  57  37  28  36  40  48  60  66  78  98 114 139 165 170 170 177 166 160 158 140 142 122 119 112 100 103 110 100  83  77  82  72  60  35  25  24  22  25  22  20  17  19  34  34  27  11   9   9   9  15  45  41  32  27  23  20  21  23  24
 207 135  47  33  14  16  23  21  19  20  17  16   9  17  15   8  17  21  17  19  19  13  15  23  34  43  50  50  62  80  89  84  93  86  66  56  62  61  61  70  73  69  86 115 162 184 186 190 191 184 184 182 174 168 166 154 143 134 138 146 128 118 117 107  90  69  49  38  32  30  24  25  26  19  24  30  34  33  18  13  14   9   5  23  44  40  32  27  25  29  33  35
 204 144  46  28  26  14  17  20  23  17  20  16  15  19   8   8  17  19  19  20  14  23  43  47  47  50  64  90 102 124 145 149 146 137 130 115 100  93  86  80  82  92 109 146 176 195 198 198 197 195 194 193 194 192 188 178 174 166 166 170 156 142 138 129 102  92  81  61  39  31  32  27  28  28  27  14  28  45  33  18  14  13   6   9  30  37  37  37  38  44  46  48
 208 141  48  22  27  22  17  14  20  19  25  14  20  14   5   6  19  21  19  18  28  47  46  47  61  80 101 133 156 168 179 179 178 168 156 158 147 141 134 124 110 123 142 166 192 198 199 200 200 199 200 199 198 197 195 195 193 183 183 178 175 169 155 153 130 102  88  77  55  39  44  40  37  34  21  13  17  34  42  27  16  17  11   4  23  48  46  47  55  60  61  62
 191 160  56  15  16  19  14  20  23  23  19  18  16   7   9   5   9  17  16  27  42  46  53  73  97 122 145 167 186 193 195 191 191 188 183 181 176 172 166 159 149 148 168 188 196 199 200 199 200 202 202 203 202 201 200 198 198 193 192 191 190 184 178 169 160 137 107  83  67  49  41  43  34  23  24  19  17  33  38  34  26  17  13   5  16  46  55  64  72  77  79  81
 164 158  45  38  44  17  15  23  27  22  14  27  12  12  13   8   7  11  23  37  58  72  97 126 142 158 178 185 190 196 196 196 198 195 194 192 191 190 188 186 178 171 184 199 198 200 201 202 200 201 201 201 202 200 199 198 197 197 195 198 195 194 192 187 181 171 149 111  73  51  38  33  39  21  22  24  21  19  25  29  33  29  18   6  12  41  74  78  82  89  95  96
 166 134  22  70  93  26  16  40  30  16  16  30  14  11  15  13   8  24  36  56  90 115 144 158 163 173 185 190 192 197 199 198 199 197 196 197 196 196 197 199 195 193 194 199 201 202 203 200 199 202 201 201 202 201 199 199 199 196 196 200 200 198 199 198 193 186 173 134  86  58  45  39  34  26  19  23  23  19  17  21  25  29  27  23  16  37  86  93  96  99 104 106
 183 113  17  64 106  45  21  54  24  11  16  19  13   7  10  13  23  32  49  92 125 146 165 169 169 174 186 192 195 200 199 200 200 200 198 198 198 200 197 200 200 200 201 200 202 200 201 204 204 202 202 200 200 198 199 198 196 198 197 198 203 200 200 202 201 193 185 154 103  66  47  43  46  28  20  24  24  23  23  19  19  21  36  44  36  31  78 108 109 110 112 115
  80  38  23  36  81  35  24  31  17   9  11  16  11   8   8  13  34  40  75 123 151 163 173 176 173 177 185 192 195 196 199 198 199 199 198 198 198 199 199 199 200 199 200 201 203 202 201 202 201 204 201 200 200 198 197 196 197 198 198 195 196 201 202 203 203 198 190 169 121  86  60  44  41  39  28  25  23  22  22  21  23  30  49  39  18  17  73 121 120 123 124 122
  10  19  32  37  18  10  21  20  12  11   8  15  10   4   4  22  36  52 101 146 164 173 180 180 178 181 187 188 190 195 195 194 197 197 197 196 198 199 198 197 200 200 199 200 202 202 201 202 202 200 201 199 198 197 194 195 195 196 195 196 197 199 201 202 201 196 187 177 133  95  68  55  37  24  25  24  25  26  26  26  27  31  34  36  34  15  67 133 127 129 132 130
  58  42  20  22  17  15  16  11   9   9  10  13  20   7  12  29  38  70 120 160 172 177 181 183 184 184 185 186 189 190 193 195 196 197 196 195 194 195 194 192 194 195 196 196 196 198 201 200 199 198 200 200 199 197 195 196 193 191 192 193 198 199 200 202 197 195 188 166 147 108  71  54  51  31  15  23  25  29  27  21  17  16  25  46  43  21  42 139 139 138 139 138
  99  70  43  24  22  14  13  12   9   7   8  16  18   9  26  36  44  77 133 172 177 178 184 184 183 182 181 183 187 191 196 197 197 196 197 197 198 195 194 193 196 196 193 197 200 198 199 199 201 200 200 199 197 195 192 189 188 188 192 194 197 198 198 201 199 196 186 160 129 103  72  48  34  34  25  21  21  21  21  19  17  18  35  46  38  22  20 121 155 150 149 149
 162 106  65  21  24  21  16  10   9   7   8  12   9  12  26  37  55  89 140 172 180 182 185 187 183 185 185 179 183 189 194 196 197 195 195 198 198 196 195 194 198 196 198 197 199 199 199 200 200 199 198 199 199 196 193 190 189 189 192 193 196 198 198 200 202 198 186 167 131  92  70  50  30  22  19  23  22  18  19  20  21  23  25  23  30  47  55  76 158 158 156 153
 169 140  66  33  22  22  14   9   8   7  10  11  13  14  26  36  58  95 143 173 179 181 185 187 186 186 185 182 185 186 187 191 194 196 196 198 197 196 194 195 197 199 199 199 197 196 200 200 198 199 199 200 199 194 192 193 192 194 198 198 197 198 200 200 200 199 189 166 134 107  75  52  36  26  12  13  19  20  19  20  21  23  25  32  38  58  31  39 163 160 159 154
 155 107  93  51  27  25  11   7   6   5   5  10   9  16  31  45  65 101 147 175 177 181 183 185 187 183 182 184 185 189 193 196 197 197 197 199 199 201 200 198 197 198 198 200 194 192 202 200 199 200 198 199 197 195 195 196 193 194 197 199 198 199 198 197 198 197 188 169 142 115  84  58  40  27  15  13  16  18  21  21  19  19  26  27  37  37   4  18 147 162 157 156
 116 112 117  74  34  21   9   6   5   5  12  14  10  20  28  39  63 109 151 176 179 181 185 186 186 187 186 188 191 191 193 195 195 196 197 195 198 202 201 199 199 199 198 199 199 200 198 198 199 200 200 198 198 198 197 193 195 196 199 199 197 197 199 197 196 194 188 165 140 121  92  65  44  27  19  18  19  21  20  20  22  21  25  31  34  27  19  11 104 154 145 157
  96 149 117  80  28  13  10   6   8  10   9   8  12  19  24  39  67 112 152 174 181 182 182 187 189 191 190 189 189 190 190 192 195 193 193 197 197 198 202 201 199 199 197 198 198 197 195 199 201 201 199 197 199 199 200 196 197 198 200 201 196 194 197 197 195 196 191 167 134 105  88  68  48  30  19  26  19  14  15  19  22  21  18  24  29  29  19   1  87 162 144 156
 144 156 102  75  16  11   9   5   9   7   4   8  11  18  25  40  66 107 150 172 175 179 182 185 189 191 189 188 190 194 195 197 198 199 199 201 199 199 202 204 198 201 200 198 199 199 201 202 202 204 201 199 202 203 202 202 202 200 198 197 196 195 194 197 196 195 191 172 147 117  89  68  52  37  28  28  22  22  17  20  25  22  17  19  17  19  23   1  68 151 148 151
 171 143  83  45  14  14   9   8   5   5   5   7  15  21  23  34  65 105 146 168 173 178 183 185 189 190 188 192 195 195 195 198 200 201 199 200 199 199 202 201 203 200 200 199 198 200 202 202 203 205 204 205 203 203 203 203 203 202 202 199 198 197 195 193 191 191 189 180 157 127  95  68  53  40  31  29  26  15  13  19  24  22  19  17  12  12  34  13  45 143 150 147
 165 117  59  27  21  15   9   7   7   7   9   9  16  14  16  35  68 106 142 163 173 179 182 185 190 192 189 193 196 197 198 199 198 196 198 198 199 201 201 199 201 200 199 198 198 200 202 203 204 204 204 203 202 203 202 202 203 202 201 199 199 200 197 194 193 191 186 175 161 143 105  67  48  43  33  24  15  14  14  19  25  20  20  17  15   6  42  35  24 138 149 144
 152 110  73  45  34  14   9   7  10  10  10  10  14  14  23  42  73 111 141 159 173 180 183 188 191 192 193 196 196 197 195 193 192 193 191 189 195 199 200 203 196 197 198 194 197 200 200 202 201 201 200 197 197 199 200 202 202 201 202 201 200 202 200 197 194 190 184 174 167 156 120  76  51  37  29  29  15  12  14  17  19  17  17  14  12   5  48  45  17 134 146 143
 137 146 106  39  44  23   8  11  10   9   9  10  13  16  29  47  79 120 145 155 168 181 189 192 193 194 197 196 195 192 190 191 183 185 186 185 186 195 196 200 195 193 194 192 193 195 194 195 199 197 196 197 197 197 199 199 199 200 199 202 205 204 203 200 198 192 188 182 177 164 138  89  53  39  25  24  16  13   9  12  14  17  17  13   9   5  44  34  16 123 144 143
 142  97  67  12  25  30  12   8   6  10  12  14  18  21  34  48  91 130 146 156 170 188 196 197 194 192 192 194 195 190 185 186 180 177 180 184 185 193 196 195 194 193 189 187 189 192 193 190 190 187 195 195 196 194 196 196 196 195 199 199 203 207 206 203 201 196 191 184 181 172 152 112  66  43  32  14   8   9  12  10  11  12  14  13   9   6  38  25  12 118 143 143
 152 124  58  64  26  22   9  10  10  11  10  10  18  22  31  56 108 140 149 159 177 194 200 198 194 191 191 192 192 188 173 172 169 171 173 172 180 190 193 191 188 188 185 182 181 180 183 177 167 176 177 186 184 188 192 190 192 193 195 192 195 201 205 204 203 201 195 186 182 175 158 132  82  52  34  11   7   8  11  10   9  10  12  15   8   4  32  29  13 118 139 143
 172 178 100 106  43  23   9  11  10  11  10   7  14  21  28  70 122 147 155 164 185 196 196 194 193 184 175 158 132 112 108 125 131 143 150 157 165 178 186 186 182 185 181 180 174 173 171 164 149 145 143 164 140 132 133 146 158 160 160 161 166 169 171 190 202 204 197 186 181 173 161 132  87  46  33  11   8   7   9   9  10   9  11  11   8   4  37  23  11 118 144 144
 195 187 136 109  65  14   9   9  11   9   9   9  12  22  33  87 135 150 160 171 182 170 155 150 133 118  89  67  57  48  53  66  94 105 111 142 149 160 173 175 175 177 177 173 168 165 156 148 142 112 101 109  85  69  59  58  64  65  73  91 104 118 131 132 146 174 195 192 183 173 162 131  88  38  29  16  10  10   8  10  11   9  11  10   8   5  31  18   1  98 155 148
 195 186 123  69  36   7   9   8   7   7  10  11  12  24  35  99 144 157 161 163 142 111  93  87  67  51  40  34  38  37  38  46  66  83  95 126 131 152 167 167 166 166 163 164 156 158 154 133 121  93  77  73  61  46  37  32  36  39  40  50  67  77  81  88 110 142 180 194 185 177 168 143  88  37  24  15   8  12  10  10  14  11  11  10   9   7  14  17  11  80 162 154
 193 190 144  66  16  11   9   8   9   9  12   8  14  26  35 105 147 160 163 129  79  63  61  58  48  47  42  43  55  58  63  69  67  74  87 109 123 138 152 155 159 161 152 153 150 146 143 116  97  96  75  71  64  59  51  50  59  56  49  55  69  75  72  77  86 101 137 179 185 180 174 150 102  40  26  17   6   7   8   9  15  13  11  11  11   6  11  45  40  81 157 163
 194 190 155  76  22   9   9  10   8   6  12   8  13  23  42 113 152 158 136  86  61  52  52  55  68  75  88  98 105 102  95  88  82  82  81  93 113 128 140 147 152 152 150 144 140 132 127 109  94  98  88  88  88  89  88  99 104 102 101 104 102  92  82  73  71  77 110 155 180 179 173 163 124  56  31  15  14   9   8  10   5   4   7  10  11   2  61  88  71  97 141 173
 196 192 151  72  18  13   8   8   8  30  10   9  12  25  48 116 151 160 127  73  65  72  74  81  99 106 106 100  90  77  66  55  56  60  70  80  96 112 126 138 148 153 156 152 138 124 113 104  97  92  88  80  68  62  60  54  48  49  58  70  79  97 106 101 103 105 117 151 176 179 171 169 146  75  40  13   9   8   7  27  66  40   1   6   8  31  94  56 121 123 129 182
 195 190 164  81  18  23  15   7  88 117  57  20  14  23  42 117 151 163 141  97  84  90  96  93  83  61  40  25  20  15  22  15  14  27  36  51  73  92 110 135 155 169 176 172 153 134 115 106  95  85  68  53  57  49  33  15  21  25  17  13  24  47  74 110 125 123 131 154 176 178 166 178 163  79  28  14  12  10  23 106 188 194  92   3   4  71  67  36 182 142 130 184
 195 189 168  59  19  26  33  42 135 129 103  43  14  18  41 128 154 156 146 118 105 101  91  60  29  16  24  43  30  31  45  42  16  32  43  47  47  73 107 146 176 190 198 189 172 151 133 109  88  73  70  75  63  68  79  27  24  29  32  25  27  20  40  76 120 122 133 155 173 176 175 183 172  87  16  19  18  22  85 149 182 199 201  60  11  41  43 131 197 155 130 185
 192 193 133  28  66  73  15  57  85  61 101  66  21  11  52 140 157 149 130 107  99  90  59  25  20  31  51  75  40  31  22  26  34  71  55  50  79  79 108 155 185 195 200 195 180 158 140 116 104  95  83  60  67 110 118  53  39  44  49  69  72  56  51  58  98 120 124 142 163 180 180 183 180 105  23  23  25  41 123 134 123 108 154 130  16   9  70 192 189 159 119 186
 192 196 117  38 122  75   2  52  86  31  50  83  41  14  70 150 156 159 145 127 103  81  62  66  83  93  90  92  89  90 100 106 101 101  99  99 120 108 114 153 185 197 198 190 176 159 145 133 137 131 113 102 101  97 100  98 101 103 110 115 136 140 129 110 114 128 142 152 170 184 185 182 184 142  51  27  31  59 107  88  40  32 115 121   7  76 108 182 188 155 115 187
 200 182  98  67 132  52   5  38 110  50  55  93  47  26  94 158 155 161 167 164 150 124 114 121 129 131 129 127 118 121 127 131 127 124 120 122 122 119 129 158 188 195 198 188 173 159 154 146 147 130 129 120 120 122 120 127 125 117 130 132 151 158 154 158 164 163 167 169 174 182 185 183 186 170  92  51  58 101 132 136  91  65 126 112   5  88 128 188 191 151 118 186
 196 178 159 140 145  46   8  25 121  71  74 129  58  35 114 160 157 160 172 176 170 160 150 137 128 129 131 128 121 117 115 113 118 115 119 130 142 147 143 166 192 195 197 192 175 163 163 160 158 147 132 121 116 118 127 126 125 125 132 135 140 146 153 164 176 179 179 180 180 183 184 185 188 185 130  84 112 146 172 170 123  88 132  99  44  85 134 191 191 140 126 186
 189 185 197 170 145  48   8  13 111  84  99 161  94  72 136 160 158 165 176 178 174 174 172 162 148 137 132 127 125 121 121 127 137 142 148 159 162 157 151 174 194 197 195 190 178 167 166 168 170 169 164 154 142 132 130 125 127 133 140 146 156 171 178 179 179 179 178 180 181 183 185 187 186 184 155 111 119 171 188 184 140  97 145 100  99  97 153 187 185 110 145 182
 194 185 194 186 134  28  13   7 103  98 107 142  97  86 144 158 154 164 169 172 179 182 179 179 179 174 169 164 163 163 165 168 168 167 174 172 159 154 160 181 198 200 197 191 184 173 168 172 175 179 183 181 175 174 168 160 159 162 166 174 178 184 187 188 188 181 177 180 182 186 187 184 185 184 165 107  65 116 167 180 153 108 155  93 132  89 173 186 151 100 174 177
 192 184 193 193 115  16  22   3  85 119 115 117  81  91 147 159 157 160 165 170 173 176 184 186 185 182 181 178 178 177 178 180 180 182 179 166 159 162 170 189 200 201 197 194 193 182 173 175 175 178 183 189 187 183 182 180 181 184 183 184 187 191 191 188 189 189 187 179 182 184 184 185 185 183 166 103  78  97 136 164 160 125 143  85  98 114 172 168 122 130 183 173
 193 186 192 195  79  14  21   0  65 133 129 105  67  87 146 157 157 159 167 174 171 179 186 188 189 188 188 186 187 184 183 185 186 182 174 162 167 172 177 191 203 204 200 197 192 190 184 183 181 176 177 185 191 190 189 190 184 186 189 190 191 195 197 195 191 190 190 186 183 185 182 186 184 180 172 111  87  99 130 166 163 139 131  46  82 150 158 152 115 170 175 172
 192 187 190 188  57   7  27   9  47 133 122  97  64  85 143 154 156 156 162 168 176 181 186 192 194 195 192 192 192 186 186 186 182 175 171 169 175 177 181 196 205 204 202 200 194 191 190 191 188 182 181 181 180 185 187 190 190 194 194 195 196 194 193 197 194 191 189 190 185 181 180 182 182 178 169 147 108 113 137 170 158 149  90  26 140 162 140 123 164 176 171 171
 189 183 189 177  32  63 115  25  19 127 130 100  66  84 137 154 156 152 153 165 171 174 185 193 195 196 196 193 192 190 187 179 180 180 177 173 173 176 184 200 202 202 202 204 202 196 193 192 185 184 187 184 183 183 183 185 193 196 197 198 200 198 195 194 194 192 193 191 187 181 182 182 177 176 161 169 140 130 153 179 156 155  64  77 144 121 111 167 177 171 171 169
 192 188 192 180  41 122 127  55   7 112 150 123  81  87 130 149 151 151 152 159 164 176 187 193 197 197 200 197 194 190 186 179 178 177 166 153 160 172 182 199 200 200 199 199 203 202 194 182 174 167 174 185 190 188 189 189 197 201 201 201 198 202 199 196 194 192 192 187 184 184 181 177 174 176 151 158 147 142 169 188 155 148  41  75 103 129 179 180 172 170 170 168
 193 190 189 162  51 160 151  90   9  89 158 152  96  72 124 145 147 150 150 153 166 175 184 194 198 196 196 195 188 187 188 182 174 156 147 153 160 168 182 193 192 194 195 194 199 204 197 180 177 161 151 165 174 184 185 190 197 204 204 200 199 196 196 198 193 194 188 184 180 180 178 178 172 171 133 148 158 151 180 183 159 139  37 104 159 187 181 176 173 169 168 168
 192 192 193 160  89 142 128  44   2  59 147 158 120  67 113 140 145 148 151 155 164 176 185 193 197 200 194 194 189 186 178 168 161 138 152 176 180 173 181 189 189 193 196 193 195 200 201 194 186 180 161 153 150 163 171 180 192 199 198 200 198 195 193 196 196 191 185 180 176 178 176 175 171 155 118 127 184 191 191 164 169 133  95 123 160 184 181 177 175 170 166 166
 192 192 195 146  66  40  13   1   4  31 135 130 146  76  98 136 143 147 150 157 162 175 180 184 194 198 191 185 184 178 171 159 146 137 172 188 186 176 179 192 189 198 207 191 191 197 199 197 197 195 173 147 140 140 148 166 180 187 191 197 195 192 192 194 192 191 186 178 174 175 175 170 173 141  90 151 196 205 168 157 164 124 134 103 158 185 183 179 176 171 168 165
 190 190 202 152  37   2   8   8   5  18 129 124 122  71  82 129 140 144 147 149 160 167 171 177 187 183 181 181 177 172 165 149 130 133 172 187 181 171 174 182 178 186 200 192 186 192 197 193 194 192 171 136 134 133 136 150 167 182 185 190 191 191 190 192 192 189 182 176 172 171 175 173 168 138 100 176 203 187 152 185 128  49 145 102 154 185 185 181 179 174 168 164
 192 191 167  71  32  11   9   4  30  62 106 156 125  77  73 115 132 142 146 144 156 165 171 174 175 178 179 174 169 164 151 140 129 125 145 156 160 154 154 159 161 168 176 177 170 171 176 174 166 158 144 139 147 138 128 141 155 170 177 177 179 181 184 187 187 184 179 177 174 172 176 174 162 134 117 189 206 189 177 197  76  21  72 106 155 188 184 183 180 176 170 165
 196 187  81   2  15  16  15   8  67  60  63 172 171  85  54 110 129 142 146 146 155 160 169 170 168 172 170 165 163 159 149 149 147 124 103  86  83 103 121 131 143 153 156 151 146 140 119  94  89 103 126 159 167 157 132 124 140 160 169 170 170 168 179 186 183 183 180 178 175 176 176 171 155 131 109 186 205 203 203 175  31  28  39 101 166 189 185 184 181 178 172 167
 195 184 135  42  11  22   7  48  88  19  18 151 192 101  46  97 121 138 147 146 150 158 163 166 163 166 163 154 153 146 145 154 155 137 110  68  39  50  77 104 120 127 131 133 123  93  72  68  74 109 152 164 167 166 151 127 130 148 162 169 169 169 174 181 183 180 180 180 178 177 176 170 149 127 121 192 206 208 213 136  11  12  32 114 182 186 183 184 183 179 174 169
 193 195 164  40  20  19  22  69  53  10   0 125 199 131  47  77 102 125 145 147 149 155 156 156 158 159 152 145 142 138 149 159 157 142 135 125 107  90  75  74  96 108 111 114  89 100 124 133 147 154 159 160 170 170 160 139 119 129 148 156 165 168 171 173 177 177 179 181 182 179 176 155 135 114 135 201 205 207 203  70  14  12  20 123 182 187 184 182 183 180 177 172
 192 194 136  35  30  19  94  47  26  10   0 101 192 136  58  67  95 119 144 148 147 148 152 154 154 152 139 134 135 149 164 169 169 152 139 125 117 107  88  63  66  78  81  84 100 113  99 106 121 133 138 156 169 166 162 154 128 110 129 145 158 165 169 175 174 178 179 183 182 181 172 146 125 117 114 188 202 209 162  22  23  33  44 114 180 188 184 184 185 183 180 175
 197 173 107  69  30  59 130  56   9  13   2  45 157 128  56  61  98 117 143 149 141 143 147 153 153 150 137 131 149 162 158 160 161 150 128 107  91  81  76  74  59  50  59  81  90  78  63  67  83  99 105 136 147 159 160 155 148 122 108 129 146 158 166 173 177 173 176 184 180 172 168 148 124 107 100 155 178 153  55  11  24  28  40 106 175 185 184 183 184 183 181 178
 195 181 165 176 164 160 143 111  36  13  12   3  54  80  44  67  99 118 137 147 138 144 145 149 149 144 142 148 148 130 125 128 130 114  92  78  67  66  70  73  70  80  91  97  71  65  60  68  76  76  83 102 132 148 151 141 145 144 116  99 132 154 168 174 176 169 175 180 175 159 152 146 119  92  52  63  69  29  17  26  29  45  49 119 177 183 181 180 181 181 179 180
 191 192 191 190 172 116  93  86  34  17  16   6   8   8  30  65 102 109 128 136 140 142 142 146 150 148 149 139 116  98  97 103  97  85  69  65  68  72  68  75  85 105 110 112  95  83  71  70  74  67  70  87 113 115 129 121 123 135 130  99 109 145 166 176 169 164 167 172 159 142 146 130 116  82  22   4   9  14  22  26  34  54  54 127 177 176 176 177 178 177 176 176
 191 193 200 157  24   4   5   3  20  23  25  29  18   9  33  46  79 113 117 123 129 137 144 146 150 150 132 112  85  83  76  87  84  86  78  78  73  74  91 139 153 155 157 151 159 158 119 109  93  80  89 101 107 114 113 102 112 123 113 113  98 138 163 174 172 168 164 164 151 119 135 124 110  73  22   9  17  18  20  21  32  44  58 155 170 167 171 172 172 173 172 176
 187 189 201 147  48  79  36  18  26  24  28  36  15  12  34  37  64 109 113 100 117 128 141 146 151 146 111  81  75  76  72  82  82  99 104 100  87  89 113 132 142 154 166 152 136 133 130 131 122 106 120 118 118 108 106  94  99 119 107 104 104 137 161 170 171 164 159 154 139 112 135 133 101  62  23  15  20  26  24  16  27  20  39 136 164 163 164 164 167 167 169 177
 184 187 190 190 130  84 120  68  22  22  22  18  12  11  19  27  47  90 107 100 104 106 126 144 146 128  87  69  72  61  57  74  93  93  92  92  94 100 107 113 114 116 122 112 100 101 105 105 105 102  99 100 104  89  79  81  82 101 107  93 100 140 166 165 160 152 149 139 123 123 143 122  82  57  22  19  17  20  20  19  28  45  52  32 109 161 156 157 158 163 172 177
 180 182 189 167  94 135 153  53  34  20  23  16  10  10   9  18  39  74  90  96  81  82 114 138 138 111  76  70  70  60  42  43  52  47  46  49  47  52  63  69  74  74  84  84  75  70  68  67  59  58  67  65  57  55  45  49  77  96 110  99  95 141 165 155 147 133 128 127 113 131 142 108  68  39  16  16  21  17  12  22  31  71 135 115  47 131 148 150 155 165 174 180
 175 178 188 120 129 193  91  58  37  22  24  14  14   9   6  13  30  55  80  83  67  73  97 122 135 124 105  90  95 114 100  79  62  59  71  88 105 116 118 117 119 126 127 127 134 142 141 144 143 135 125 111  87  70  71  64  78 105 109 110 111 152 158 146 139 115 113 124 113 123 128  87  64  28  11  10  17  17  12  27  44  99 134 118  56 106 145 148 155 164 172 179
 170 175 181  96 145 180  85  55  25  25  24  13  13   8   8  13  23  48  74  72  70  72  80 103 136 151 140 128 140 157 150 144 144 134 130 134 144 156 162 165 170 173 173 171 172 171 171 166 163 158 157 155 155 157 156 142 138 143 131 130 133 144 141 136 130 107 103 116 113 120  97  65  48  20  13  12  11  12  24  33  46  81  86  73  51 107 137 146 154 164 174 180
 162 171 179 102 112 155  83  31  23  18  15  10   9   8  10  12  20  45  60  68  71  77  66  82 119 144 156 156 167 173 166 158 155 156 156 154 158 160 160 158 158 164 167 170 168 166 164 160 162 169 170 175 178 175 171 173 181 172 161 150 143 148 130 121 114 100  96 116 121 101  74  53  43  22  21  20  19  22  46  41  48  75  87  63  78 119 140 148 156 166 176 183
 162 166 176 133  82 134  99  32  25  18  13   8   8   8   8  12  22  33  47  64  69  69  61  66  98 133 150 158 168 172 176 171 157 153 152 153 157 161 158 153 153 152 154 157 157 159 158 160 163 171 171 170 173 182 183 185 182 175 175 154 141 139 118 102 110 101  99 124 109  82  61  42  32  22  22  21  23  21  29  23  38 106 106  57  91 130 145 151 161 171 179 185
 164 170 157 133  88 104  91  28  25  15  10   9   9   9  10  10  17  21  38  51  65  61  59  60  76 105 125 148 166 173 176 177 168 163 156 147 141 142 139 142 140 139 142 141 138 138 147 150 154 167 172 176 185 191 189 182 180 181 178 149 122 111  94  86  92  91  95 114  81  69  52  35  20  27  34  14  15  14  14  12  22  63  47  54 119 140 147 154 167 177 184 189
 166 173 164 131  91  86  78  18  13  10   8   8   5   7  10   8  15  22  36  44  53  68  56  51  59  78 110 146 162 174 178 175 170 166 165 156 140 129 129 130 126 118 122 125 125 123 136 137 152 166 177 187 194 192 192 188 183 185 173 141 113  92  80  76  78  88  84  77  61  54  39  39  21  19  35  35  13  16  11   9  18  32  39 103 136 144 150 160 172 182 189 193
 167 171 182 156  76  54  61  16  10   7   6   3  30  31   9  16  19  19  34  45  44  44  53  49  49  70  93 135 155 167 176 174 172 169 168 165 158 146 137 136 134 121 122 119 135 140 149 155 156 165 180 189 193 191 189 185 177 163 158 137 114  78  70  83  80  88  73  61  59  42  36  61  47  19  23  29  14  14  13  24  49  71 101 130 142 146 153 166 178 187 194 198
 166 172 178 192 122  42  38  11  11  15  26  65 129  88  14  15  16  25  33  40  35  35  40  42  48  62  82 112 137 158 169 176 175 174 170 166 163 153 148 151 145 141 144 143 154 158 168 177 173 169 179 190 191 189 189 189 175 157 144 128 114  79  62  76  69  71  57  51  50  40  31  49  83  40  21  24  20  11  18  27  67  51 113 143 146 150 160 172 185 193 198 201
 166 172 178 184 186 111  11  20  28  44  58  89 112 102  35   6  11  29  36  47  32  30  37  40  43  57  75  99 126 154 159 175 178 177 173 171 171 171 171 168 157 163 170 159 173 180 182 183 186 185 183 188 190 191 184 187 169 137 117 106  96  74  71  76  59  58  41  40  45  35  33  52  60  56  27  17  36  28  19  18  54  54 129 146 149 155 168 178 191 197 202 204
 164 171 178 181 191 174 104  95  59  57  82  43  34  44  21  13  15  26  33  66  48  32  33  35  41  45  58  82 116 137 155 173 181 183 180 175 177 178 183 178 172 176 181 176 181 189 191 192 192 191 188 187 187 187 186 171 147 116  92  87  82  63  61  62  45  40  34  47  47  32  27  60  96  81  76  60  51  35  27  23  42 110 150 149 153 164 175 185 194 200 203 205
 162 170 179 182 184 187 193 156  79  71  59  47   8  27  26  21  63  47  49 100  52  24  28  33  38  46  55  62  92 123 148 162 175 184 182 180 183 182 182 180 181 178 179 178 184 184 188 193 192 194 190 191 190 185 179 158 118  85  76  71  61  45  58  46  36  32  35  70  70  26  23  44 125 138 126 118 104  97  98 107 131 147 149 149 161 173 182 190 197 203 205 205
 161 169 178 184 187 188 190 191 141  87  45  87 118  57  42  50  45  35 116 131  83  41  23  27  36  41  47  51  66  96 118 137 161 171 182 184 183 182 182 176 169 164 176 180 163 173 182 189 191 191 188 183 183 171 158 141 101  65  57  52  49  45  53  39  27  27  49 111 114  51  10  30 101 118  85  86 124 140 145 144 141 144 152 163 175 179 189 194 200 204 206 205
 159 168 176 182 187 189 193 192 196 176 139 127 139 139 147 165 139  52 169 132 115  82  40  22  26  35  37  41  44  66  91  98 129 142 157 169 170 166 167 155 152 136 160 160 146 159 162 170 171 168 176 164 165 151 119 125  99  52  35  42  56  50  43  25  24  41 109 146 146  85  18  33  78  85 110 146 156 151 148 148 151 157 166 175 181 186 195 199 202 204 205 203
 158 168 175 182 188 190 191 192 194 191 193 183 171 185 193 191  80  67 208 139 133 115  77  35  23  25  30  34  32  42  59  77  96 101  96 115 142 144 137 124 122 116 143 125 140 137 130 146 155 128 124 144 148 134  92  85  76  43  32  40  51  48  34  25  50  93 155 159 150  76  26  63 157 164 162 158 154 152 151 153 158 164 173 181 187 193 197 201 203 205 205 202
 155 165 174 180 186 191 190 192 191 193 192 187 191 198 204  90   0 111 233 157 136 135  90  52  31  25  27  25  26  33  48  61  69  77  73  81  93 112 112 105 111 114 137 134 134 117 116 117 126 103  84 101 103  80  80  73  53  38  30  37  50  35  21  44 102 148 168 157 107  51  27 105 168 162 159 158 158 157 157 161 166 172 179 186 193 197 199 202 204 204 202 198
 153 162 172 179 185 189 191 193 194 194 193 193 196 207  97   1   4 160 239 182 140 136 118  72  46  25  22  23  30  32  38  41  55  68  65  67  65  89  93  90 101 113 132 131 109 110 110  92  98  87  63  67  71  63  62  51  36  36  31  35  37  25  34  67 130 162 166 166 118  73  81 161 167 163 162 163 163 163 165 169 175 178 184 191 195 199 202 203 203 203 201 197
 150 159 169 178 184 187 191 194 194 193 194 196 207 114  10   5  36 204 238 212 148 142 131 105  67  37  25  26  27  27  28  30  50  52  48  51  64  79  74  81  98 104 115 118  99  93  99  80  74  74  66  49  48  54  48  35  25  32  25  21  24  38  72 125 157 167 164 190 183 131 158 172 169 166 165 167 168 168 172 177 182 185 189 195 198 200 203 204 204 203 200 194
 149 158 168 176 182 187 191 194 195 194 201 203 117  18  19   0 103 233 232 240 172 145 132 118  92  52  31  31  27  26  27  31  34  41  33  35  56  64  57  74  85  92  99  98  87  69  76  68  53  57  49  41  40  39  38  32  26  26  20  20  36  57 123 154 164 169 166 157 205 184 176 172 171 170 170 171 173 174 178 183 188 190 195 198 200 201 203 205 205 204 200 193
 149 159 170 176 183 188 191 193 199 206 181  88  21  23  20   7 176 236 230 245 219 146 143 127 108  82  41  31  22  23  27  27  33  39  29  31  51  41  43  54  65  77  84  86  66  62  61  50  45  46  42  36  31  36  34  24  28  26  20  32  61  99 143 153 169 170 171 110 193 210 175 175 175 174 175 176 179 180 184 189 194 197 198 200 200 202 204 206 204 204 199 191
 153 162 170 178 183 187 197 206 183 119  50  23  28  24   9  53 228 233 231 237 249 179 135 135 117 106  67  33  27  25  24  26  30  29  28  33  37  31  34  34  53  59  55  59  57  53  50  39  37  37  38  32  22  28  31  24  23  23  30  50  89 117 137 164 172 172 169  90 194 212 172 181 178 178 179 180 183 185 188 192 197 199 201 202 202 203 205 205 204 201 197 189
 155 163 172 179 185 198 190 121  51  25  31  33  28  23   4 117 245 234 232 232 242 238 145 125 120 110  96  54  35  26  25  24  30  23  30  30  25  27  31  34  41  35  39  38  41  38  42  35  31  32  32  28  23  22  26  27  25  34  42  63  92 120 146 168 173 175 163  62 210 187  98 191 182 182 182 185 186 188 192 195 197 201 203 203 202 204 205 204 201 198 193 186
 160 168 177 184 199 168  64  23  33  37  36  32  29  23   8 161 245 235 236 234 236 249 214 112 113 108 101  74  48  40  30  24  24  20  22  22  18  22  30  26  26  27  26  31  30  25  27  31  24  26  25  20  25  22  23  30  36  35  43  76  99 135 155 167 174 178 144  57 236 190  16 150 195 185 186 187 191 192 192 196 199 201 202 201 202 203 204 201 198 194 189 181
 170 181 189 188 155  51  25  38  38  37  34  31  28  20  21 183 242 234 238 237 234 237 251 191 104 103 103  88  67  52  40  36  23  21  21  24  20  19  22  21  22  20  18  22  25  20  21  23  17  19  20  22  24  25  28  48  47  43  64  84 117 154 163 168 177 181 106  95 255 199  16  65 187 194 190 190 191 192 194 196 199 201 202 202 201 201 201 200 196 191 185 177
 160 139 107  72  38  30  37  37  37  36  33  30  27  17  38 193 242 236 238 240 239 235 239 250 169  76 109 107  83  76  58  50  42  29  23  21  21  17  18  18  20  18  18  19  19  19  21  19  18  19  19  28  32  32  37  49  52  69  89 117 141 162 172 171 178 167  76 179 255 226  46  19 126 202 191 193 192 193 194 197 198 200 201 200 200 200 198 196 192 186 180 172
  55  41  36  35  36  35  36  37  37  35  33  31  26  17  56 201 241 238 240 240 240 238 236 239 242 140  86 113  97  92  87  73  67  54  43  33  23  22  22  21  20  19  18  18  17  23  22  21  25  25  36  34  38  47  53  54  78  94 119 153 154 170 172 174 175 121 112 248 252 243  67  15  56 184 197 192 192 192 194 197 198 200 199 199 198 197 196 192 188 182 175 167
  41  41  41  38  35  36  37  37  38  33  32  29  24  17  70 202 239 237 239 240 241 239 236 234 240 243 144  85 101  97  96  88  82  77  63  58  51  35  31  27  23  24  24  22  25  25  25  30  35  44  66  49  47  56  66  80 100 101 137 164 159 171 175 173 150 102 214 255 246 248  75  18  31 126 205 192 193 193 195 197 198 199 198 198 197 193 193 189 184 177 172 163
  42  40  37  35  35  38  37  37  35  34  32  29  23  20  75 186 232 235 236 238 238 239 236 234 233 240 241 145  85  99 101  90  83  82  78  75  76  64  52  44  36  33  32  33  30  29  33  41  51  69  75  74  85  81  86 104 107 131 156 162 166 171 172 154 121 198 255 246 243 251  81  16  36  62 174 198 193 195 197 198 198 198 197 196 193 190 187 183 178 172 167 159
