P2
# Generated by OpenCV 4.2.0
92 112
255
 205 188 138  98  75  77  76  78  68  68  68  68  46  54  61  73  69  60  48  47  53  64  63  47  45  51  57  48  48  34  28  25  22  23  18  13  12  33  60  78  59  55  45  47  53  79  86  67  64  71  40  49  58  50  63  54  49  60  66  82 102  81  68  77  69  63  75  78  59  70  87 112 131 146 160 178 191 202 212 217 223 225 228 227 223 221 217 215 211 206 202 201
 171 150 109  97  76  57  45  63  72  64  67  69  55  41  61  61  53  50  53  49  45  41  38  32  39  49  46  31  37  21  11  15  15  20  22  28  29  39  54  65  80  60  61  53  45  54  76  67  59  64  57  37  55  47  53  46  54  58  73  78  63  69  92  93  78  68  60  69  63  75  92 115 134 152 165 181 196 207 214 219 223 229 228 225 223 220 217 214 211 208 205 204
 110 100  90  69  55  48  39  40  59  66  67  66  64  41  51  61  55  62  54  35  21  18  24  25  34  37  37  32  34  36  27  23  20  18  22  28  28  33  50  50  71  76  61  72  66  48  58  71  52  53  59  48  57  49  50  47  59  65  61  57  59  77  80  63  44  42  50  57  51  65  96 114 135 156 174 186 200 210 217 222 226 228 227 224 222 219 217 215 212 209 207 205
 105 110  64  40  46  35  29  33  32  47  63  64  60  57  55  53  56  53  32  15  14  16  20  21  29  31  34  36  37  37  38  33  32  33  33  43  34  28  35  47  53  76  70  71  74  62  53  72  48  48  51  57  65  62  63  52  37  44  43  55  63  61  62  53  47  43  48  52  43  46  86 121 133 155 175 188 201 211 217 221 227 227 226 224 221 219 217 215 212 210 209 208
 112  74  49  64  52  37  28  37  42  40  51  61  61  60  52  52  50  31  22  23  24  24  23  25  28  39  35  33  37  38  35  31  47  48  33  49  59  44  32  40  46  75  68  66  63  72  60  65  59  38  50  55  70  75  66  48  30  25  35  43  49  42  35  33  37  35  36  35  35  34  41  75 120 146 164 183 197 212 217 222 226 226 226 223 222 219 217 214 213 211 211 211
  90  52  91  84  72  49  33  29  47  56  40  43  53  55  46  43  37  32  45  40  35  32  28  26  26  23  37  43  59  40  63  47  58  72  40  29  54  55  40  42  38  64  71  55  70  67  77  58  63  45  47  66  75  77  64  41  32  35  48  43  38  34  41  42  41  39  36  29  25  22  29  36  67 127 163 185 195 209 216 221 224 224 225 223 221 219 216 214 213 213 213 212
  78  61  64  33  34  49  42  34  39  49  48  37  42  45  39  36  37  42  48  44  41  35  23  19  40  19  53  77  74  68  72  68  66  80  55  30  41  57  41  37  55  62  70  47  66  60  66  65  59  42  51  68  75  67  48  39  43  56  52  34  27  39  50  57  64  56  45  34  27  26  20  18  46  96 148 186 198 208 216 221 223 226 225 223 220 219 217 215 215 214 216 214
  48  57  50 101  81  38  34  40  42  40  42  39  33  28  33  38  35  31  28  32  31  18  33  63  50  21  47  67  65  67  61  56  60  55  51  47  37  48  50  37  58  69  72  48  47  60  52  65  55  37  48  69  67  55  56  72  83  74  63  31  43  53  58  65  55  51  43  39  32  25  24  18  18  80 102 184 215 212 221 222 226 228 228 226 223 221 218 218 217 215 216 215
  79  70  85  99 109  59  32  39  47  39  37  38  25  28  39  41  29  40  38  24  29  28  46  69  58  28  49  56  64  61  52  53  53  49  39  39  36  42  46  39  58  70  71  52  34  53  51  62  62  36  40  68  59  48  77  90  85  95  70  35  52  57  69  55  44  48  43  36  34  34  27  17  10  30  42  85 188 207 205 227 231 233 231 230 229 226 223 222 222 221 220 218
 118  62 119  71  76  82  72  49  41  37  34  28  22  30  26  26  32  37  56  35  27  57  65  58  51  46  43  46  61  55  47  55  49  47  42  33  28  39  39  47  63  62  67  52  31  46  53  52  69  40  40  68  53  45  87  72  77  92  69  41  56  77  66  54  54  56  48  41  33  33  37  32  22  16  19  26  85 166 156 194 219 232 239 233 232 230 229 228 228 228 227 225
 137  77  84  97  77  96  87  55  37  40  38  25  30  30  23  28  26  19  60  66  41  52  62  47  39  43  34  37  51  44  38  42  42  40  40  46  35  33  28  55  64  48  55  55  37  38  55  48  69  47  40  61  51  47  79  54  72  83  73  49  67  59  36  47  56  55  52  40  33  26  24  28  30  21  21  23  51  79  95 175 180 198 224 240 236 235 234 233 234 234 233 231
 103  80  42  70  61  64  64  54  47  35  27  17  31  31  30  29  44  44  55  49  44  42  48  53  45  50  46  48  44  30  37  34  39  40  39  48  41  28  21  54  55  41  52  46  42  29  50  47  63  49  41  56  50  40  71  49  67  75  71  51  52  30  18  21  30  42  50  43  32  28  27  23  21  22  23  25  34  65  68 157 185 154 184 246 239 237 237 236 236 237 237 236
 100  78  39  39  44  42  38  35  39  31  20  29  35  32  36  31  67  62  46  40  29  35  53  51  36  34  37  61  58  34  47  32  32  38  39  45  36  22  26  54  39  39  53  35  40  24  44  48  52  48  40  48  50  33  64  47  60  69  72  49  44  27  16  15  19  37  47  50  38  33  28  26  23  20  22  23  26  35  46  93 193 136 140 214 247 237 237 237 238 239 239 238
 111  79 100  68  49  47  41  32  33  33  33  34  33  40  31  38  57  46  37  30  26  41  38  26  24  21  21  35  50  46  54  32  31  36  38  39  31  23  30  45  33  41  48  34  33  24  38  48  49  45  46  45  51  38  58  43  63  64  63  53  43  31  39  49  59  63  46  38  37  28  28  28  25  22  18  20  23  27  33  39 116 118 101  81 218 242 236 237 238 240 240 240
  89 102  87  52  45  32  35  31  32  36  30  32  36  31  26  51  50  45  41  43  33  29  25  15  17  19  17  25  26  42  39  32  37  37  44  38  30  27  34  44  45  35  38  47  28  28  40  40  48  50  38  50  49  41  49  47  63  59  61  48  33  40  69  81  74  61  54  43  40  30  18  25  28  24  19  17  20  25  27  33  36  71  80 115 152 238 234 236 238 239 239 239
 109  89  53  59  69  46  32  35  40  39  30  35  35  21  30  57  41  31  40  42  29  15  18  15  16  18  17  22  21  31  35  40  40  34  40  41  25  28  35  44  56  47  46  59  33  29  45  41  51  54  31  47  46  42  47  43  52  50  50  49  36  54  68  68  60  60  62  46  33  31  23  17  22  24  20  21  20  20  19  28  39  50  91 135 167 226 226 230 231 233 233 234
 113  65  57  66  51  29  25  28  39  39  32  34  26  23  30  27  26  26  32  25  25  16  16  17  15  18  21  24  24  22  35  43  38  35  26  39  28  22  36  49  49  58  53  59  39  34  46  53  56  47  34  45  45  41  47  40  44  45  58  51  41  51  53  61  38  37  59  60  42  28  27  19  17  21  21  19  19  21  19  21  41  25  30 148 194 209 221 224 222 225 227 225
  80  60  51  45  33  25  30  31  44  51  49  37  25  28  26  20  20  18  20  21  20  18  16  19  19  17  23  28  38  28  26  46  41  37  30  33  41  25  38  53  46  73  59  44  51  47  51  52  49  43  39  41  49  51  44  39  48  55  57  48  37  50  51  51  28  25  33  46  41  28  26  25  14  17  22  18  17  20  19  19  22  24  27  86 152 192 196 212 216 217 216 215
  71  51  38  30  26  26  32  26  30  43  52  54  38  28  21  15  17  18  20  24  19  20  20  20  26  37  38  40  44  45  35  39  42  40  36  32  39  45  48  57  49  67  84  45  53  61  58  54  57  46  47  46  50  57  42  40  52  48  52  49  41  39  57  47  39  36  37  35  32  29  25  25  16  14  20  18  14  15  19  26  22  18  25  18  50 130 171 190 209 206 203 202
  68  43  24  17  17  25  34  27  20  21  34  46  45  30  20  16  13  17  17  22  24  26  27  29  45  60  50  45  36  35  41  43  40  36  42  38  32  47  60  62  62  60  84  64  58  72  61  49  59  52  58  55  55  56  44  48  52  51  58  57  39  38  55  47  43  38  36  44  31  33  28  22  20  12  15  16  12  18  22  31  26  13  12  17  26  42 130 178 185 195 195 187
  40  38  41  42  30  31  32  37  32  30  42  38  35  20  23  21  16  18  19  26  42  40  40  43  43  44  39  38  33  34  39  35  37  38  41  48  54  57  64  70  70  78  81  76  68  83  73  60  60  68  74  54  54  53  67  59  58  58  57  55  45  43  51  44  43  38  35  44  33  22  32  25  21  14  13  14  16  21  30  39  28  18  16  12  12  15  39 163 181 175 188 171
  34  44  57  56  34  31  34  32  34  42  45  40  21  16  18  18  18  19  34  48  39  33  27  26  24  35  44  42  45  43  47  46  41  35  35  52  63  68  69  74  79  97  94  88  84  90  95  77  73  98  97  65  63  66  85  64  65  67  61  57  50  50  57  41  44  47  46  45  37  21  21  24  21  18  17  15  19  30  35  32  25  17  19  18  15  12   3  69 183 164 160 154
  54  54  43  40  33  36  34  32  42  39  44  33  17  15  21  23  22  23  38  39  24  27  27  22  20  35  50  50  55  51  51  55  54  43  34  45  65  82  81  79  80 107 100 103 106 104 118 105 105 108 114  91  90  95  95  78  84  71  67  65  60  64  61  43  49  61  64  46  38  30  19  17  20  18  17  19  23  27  27  23  26  34  23  18  16  15  12   9 100 175 144 129
  72  56  36  36  34  35  26  29  35  47  53  27  14  21  27  33  26  18  22  29  32  27  26  25  25  41  56  61  64  63  63  65  72  61  45  40  56  77  88  88  88 105 112 112 130 141 142 139 131 127 130 118 121 116 108 109 102  78  83  85  82  77  59  46  49  60  73  66  35  27  23  18  16  16  16  19  20  23  23  25  36  41  29  17  19  15  16  10  15 118 149 116
  39  40  35  30  39  33  20  15  20  44  42  29  18  20  28  35  22  15  19  28  32  25  22  27  38  59  69  76  80  83  94  91  90  87  63  48  57  67  81  86  95 114 117 130 150 156 162 168 155 146 155 148 138 128 134 126 111 106 100  94  83  79  71  66  59  54  65  82  48  26  23  19  16  14  15  16  19  19  18  28  36  40  31  19  17  14  16  16   6  26 107 112
  27  28  36  40  47  27  15  13  25  36  25  20  16  17  33  29  18  16  24  38  30  26  27  47  67  75  85 100 116 118 131 133 123 110  86  59  61  68  80  86  93 106 133 160 174 178 180 182 174 167 171 166 156 147 148 136 131 123 120 112  97  96  94  86  81  67  60  73  60  36  27  20  17  15  15  16  16  19  25  29  36  28  31  31  18  14  16  18  14   5  50 102
  35  30  27  50  38  18  11  17  27  33  24  15  15  21  29  19  16  16  38  55  38  41  56  77  94  98 108 125 146 165 174 175 173 159 137 100  81  87  99 103  96 103 138 169 185 189 189 188 187 184 183 183 177 167 158 152 146 142 140 131 123 117 106 108 110  95  76  64  57  42  32  23  17  16  18  21  23  30  31  32  30  32  32  28  18  16  14  27  24  17  22  78
  32  35  40  46  26  22  16  15  16  23  31  33  18  25  29  15  15  25  52  58  56  73  85  97 109 124 139 152 168 178 184 189 189 189 178 154 127 118 117 112 118 134 152 175 186 190 190 191 191 191 190 188 183 180 175 169 158 148 145 139 134 128 121 113 116 113 102  77  51  40  37  28  19  18  22  27  27  32  33  27  28  27  27  39  32  16  15  22  28  19  15  45
  31  52  49  18  16  18  17  15  14  14  13  23  20  18  22  14  19  37  54  63  76  90 109 112 126 142 161 176 186 190 187 192 195 193 186 176 165 152 134 130 134 151 173 186 188 189 189 190 192 192 190 186 185 182 176 168 161 155 147 143 140 135 130 126 118 116 107  92  62  42  37  30  23  21  22  24  24  25  26  22  23  23  34  49  43  17  14  15  17  22  18  31
  43  52  23  15  13  13  19  31  21  12  16  16  14  21  16  15  22  37  55  75  92 109 128 134 151 161 172 182 190 194 195 194 196 195 192 189 182 174 161 151 153 164 181 186 188 187 188 193 192 189 188 185 183 181 174 167 162 158 152 145 143 141 135 136 130 119 109 105  76  49  40  37  28  21  19  20  23  26  27  29  30  33  40  39  27  17  13  14  13  19  22  19
  39  36  26  17  17  27  32  33  23  11  19  18  15  25  21  18  23  40  66  84 100 122 134 143 162 171 176 183 192 195 196 195 194 194 195 191 187 186 182 172 169 180 189 190 189 190 190 191 189 188 182 181 178 176 171 167 161 157 151 148 147 146 143 141 135 125 114 109  86  57  44  45  36  24  20  21  26  29  31  31  30  33  35  31  32  31  20  15  13  19  28  22
  25  33  22  15  21  32  33  17  16  11  25  18  14  17  23  24  27  52  83  97 113 135 142 149 162 172 178 185 194 194 196 195 194 194 194 193 192 191 190 187 187 189 189 188 188 189 188 187 186 183 182 180 179 177 170 167 161 156 152 151 153 152 150 145 137 127 117 113  95  67  52  53  40  28  24  26  30  32  29  30  31  30  28  33  39  30  17  16  15  18  26  21
  18  13  26  28  25  27  25  17  15  14  28  16  13  17  26  33  45  71  93 104 132 143 147 150 161 170 178 188 193 195 195 194 195 195 194 194 194 191 190 190 193 191 193 190 189 188 186 186 182 183 183 182 181 175 168 163 160 156 153 152 151 151 151 146 137 127 124 120 105  78  59  55  59  36  25  23  23  26  27  28  26  28  29  26  18  15  15  14  15  15  19  19
  39  25  30  40  30  36  27  18  18  13  22  15  12  19  33  49  69  86 100 116 140 147 150 154 164 171 177 185 192 193 191 191 192 192 192 192 187 186 190 190 191 195 193 194 191 186 189 188 182 182 180 180 176 169 164 159 157 154 150 150 150 149 147 145 136 129 130 118 105  86  67  56  57  53  29  20  19  18  16  18  19  19  19  16  15  16  14  14  15  16  16  19
  45  37  28  31  32  26  22  20  20  15  15  11  12  29  41  57  73  97 109 130 144 152 157 161 166 169 174 179 183 187 189 190 190 190 190 190 187 187 189 192 195 196 196 198 195 195 192 185 182 182 179 176 172 166 162 158 153 149 148 148 150 151 149 145 138 134 130 117  98  80  68  62  53  51  36  21  16  15  14  14  15  16  18  18  20  19  18  17  15  15  15  25
  38  32  22  22  26  17  21  25  28  20  13  12  14  33  44  58  82 114 129 140 150 158 162 164 166 167 172 180 183 189 192 191 189 191 190 189 189 191 188 192 198 195 195 193 195 194 190 186 183 183 181 178 169 164 159 156 150 147 148 149 152 151 149 143 141 136 131 119 102  77  67  60  50  42  34  24  16  15  15  13  15  15  17  19  21  25  27  21  17  16  15  25
  32  29  20  21  23  15  15  23  34  26  11  10  16  32  41  65  99 125 139 146 155 164 164 166 165 166 169 176 183 189 192 191 190 190 190 189 191 190 189 191 192 192 193 196 194 191 188 188 186 184 178 174 168 164 159 151 147 145 147 150 152 152 150 146 144 139 136 123 106  87  68  56  46  40  29  23  18  16  15  15  16  15  14  14  14  16  20  25  22  18  17  21
  26  21  19  26  20  13  17  23  28  25  13  11  23  34  47  72 104 130 142 149 157 164 166 167 168 167 166 171 180 186 190 190 189 187 189 188 189 191 189 188 191 191 196 195 193 191 188 186 186 182 175 174 171 163 160 153 149 149 154 155 157 157 153 150 147 142 136 124 107  91  69  51  43  36  26  22  19  16  17  17  17  16  15  17  18  17  12   8  13  15  18  22
  22  19  23  28  18  14  20  20  16  21  16  11  26  32  48  79 109 134 142 149 155 160 165 165 166 168 169 173 175 177 185 190 189 188 187 188 192 190 188 189 193 190 192 192 193 190 191 187 186 182 177 173 167 162 161 156 152 152 155 159 158 158 155 151 147 142 136 121 103  89  73  56  40  31  26  21  20  17  17  17  17  16  15  16  15  15  15  10   7   9  12  20
  22  23  22  27  18  17  23  17  16  26  16  14  24  30  49  81 113 135 145 149 159 161 165 166 164 167 170 174 178 182 187 189 189 188 188 188 192 190 187 192 195 190 195 194 185 187 192 189 186 184 179 169 161 161 161 157 155 152 152 154 156 156 155 152 149 143 135 121 106  87  70  62  46  32  26  22  17  16  16  18  18  18  18  17  16  15  16  15  10   8  13  20
  30  24  25  29  19  25  23  18  19  21  17  21  24  32  49  83 115 136 148 154 161 166 166 167 169 171 176 179 181 185 188 189 189 188 189 190 194 193 193 192 193 194 195 191 188 193 195 190 186 185 180 171 166 166 163 157 158 154 155 156 155 151 151 151 150 143 137 128 113  97  73  56  46  39  29  22  16  15  17  18  18  18  18  18  16  18  18  16  15   9  12  19
  38  26  24  21  20  20  17  21  21  23  20  26  21  32  48  81 112 134 147 153 163 166 169 171 175 174 178 180 181 182 185 189 189 189 190 193 196 198 195 196 189 190 194 195 194 194 193 190 192 188 182 180 177 172 167 160 157 156 156 155 152 152 154 153 148 142 137 133 118 107  87  57  36  33  32  25  17  17  15  16  15  18  16  18  16  14  15  13  12  11  12  21
  33  23  20  21  20  18  19  18  17  30  31  25  20  30  45  78 112 137 144 152 160 167 169 172 176 175 178 180 183 184 188 191 192 190 193 193 191 193 193 193 191 188 193 192 190 188 191 193 193 193 188 183 182 177 172 167 162 158 158 153 152 155 153 153 145 139 137 134 119 106  93  68  43  27  27  29  21  16  14  14  15  17  18  18  17  14  14  15  13   9  12  22
  22  21  24  19  22  20  23  16  17  30  29  24  21  32  49  79 112 133 145 151 159 166 169 173 176 177 179 183 186 191 194 195 196 195 194 192 191 191 191 189 188 189 189 187 190 191 191 191 193 193 190 187 182 176 172 168 164 162 159 156 154 154 152 150 143 139 138 131 117 113 103  81  54  30  22  26  21  13  12  15  14  14  18  18  16  15  13  15  16  10  10  27
  23  23  26  25  32  23  25  17  18  24  28  24  21  32  51  76 107 129 145 152 157 164 169 175 179 180 183 187 188 191 193 193 198 198 196 194 192 191 189 185 186 187 190 189 190 191 191 191 192 190 189 189 181 177 174 169 167 166 160 157 157 156 153 148 143 140 136 128 118 115 106  97  71  42  23  23  21  12  15  15  15  14  16  17  16  15  13  12  14  14  12  29
  27  26  22  25  33  34  30  21  18  20  29  24  22  32  53  85 115 132 145 155 161 165 172 176 180 181 186 189 188 188 191 194 196 196 194 189 190 192 189 184 188 187 186 184 188 189 187 188 187 186 188 182 177 174 171 171 169 166 164 161 162 160 156 149 142 137 135 130 124 117 112 101  84  59  31  22  22  18  17  15  13  14  14  17  15  15  15  14  12  12  13  26
  26  27  22  23  28  37  32  22  16  17  27  23  21  33  66 102 121 136 143 152 163 170 174 179 182 183 186 188 186 184 187 189 190 190 188 189 192 191 190 190 189 190 185 181 185 185 189 192 186 183 180 174 174 167 167 169 169 165 163 163 164 162 160 154 145 139 133 128 123 119 119 103  91  77  37  22  21  17  14  17  16  14  12  14  16  16  14  11  10  11  14  25
  25  22  23  29  34  30  31  23  14  14  27  22  20  44  82 109 121 136 142 151 168 180 182 179 182 183 184 185 185 183 183 180 182 184 184 183 192 195 192 190 189 189 184 182 186 193 201 209 201 185 180 173 169 164 165 165 164 159 159 159 156 160 155 152 146 142 134 127 124 123 118 109  98  83  47  24  19  16  13  17  20  18  15  16  16  15  15  13  12  11  18  28
  20  20  25  35  33  27  27  21  12  13  26  23  22  55  88 110 124 134 141 156 174 185 183 179 180 179 182 183 182 182 177 175 175 178 181 183 189 194 197 191 193 189 186 186 186 199 210 201 189 182 173 166 165 164 162 158 157 154 154 148 145 143 139 138 142 139 136 126 124 122 118 112 101  89  53  26  17  19  16  16  15  15  15  15  14  14  15  16  15  11  23  43
  27  22  32  53  44  26  33  25  13  15  28  26  22  59  90 110 129 135 140 159 180 185 183 178 176 175 179 181 180 179 173 174 169 168 171 178 181 190 200 196 194 190 186 183 184 183 185 175 164 171 159 156 155 151 144 140 139 145 140 131 129 122 121 118 124 128 131 125 123 122 122 116 104  92  57  29  16  16  19  21  18  12   9  13  13  11  15  16  15  17  47  73
  35  26  26  35  33  21  33  26  14  15  25  30  22  58  91 111 134 135 141 163 176 171 170 171 167 166 172 174 173 165 156 163 159 159 160 162 172 180 182 182 188 186 181 177 173 170 165 150 146 143 136 127 124 105  91  89  91  98  96  97  95  94 104 106 106 104 117 125 122 121 124 120 110  97  63  31  17  16  25  26  12  18  15  12  15  13  15  17  13  25  81  91
  23  30  27  27  21  16  23  20  16  13  20  31  23  57  92 114 132 133 141 154 151 146 146 137 135 140 133 117 117 109 110 117 138 130 148 153 157 163 171 173 175 177 175 171 164 158 153 144 139 121 104 100  98  70  72  70  60  51  49  60  74  83  82  85  83  83  96 110 117 118 121 120 113 103  69  32  18  20  26  27  57  89  91  52  13  14  13  16  14  24  83  95
  17  25  32  32  25  12  19  14  15  19  17  28  24  60  99 115 132 135 127 120 118 121 123 105  98  89  75  63  65  69  79  88 108 115 126 134 145 148 161 163 158 161 160 162 156 154 154 138 127 110  95  92  82  60  61  60  63  62  61  61  64  70  59  68  63  56  67  93 111 115 118 119 114 107  77  31  19  20  16  63 115 120 128 123  45   8  13  15  17  19  68  94
  19  21  21  21  20  12  19  18  25  19  18  21  26  64 100 118 130 124  96  93  84  82  81  75  64  48  53  60  60  58  69  78  86 108 120 129 134 143 155 154 156 156 152 151 149 149 147 128 117 112 104  91  88  86  91 101 116 111 104 100  96  95  86  77  75  77  89 103 115 119 118 120 117 116  86  35  21  18  12  67 126 133 129 131  85   7  16  14  18  19  57  77
  22  18  17  17  15  17  30  39  33  17  17  19  26  68 102 122 128 107  87  75  54  53  67  73  76  83  94  98 105 104 104 100  92  94 105 127 132 141 147 150 155 155 148 142 141 138 136 126 118 109 104 102 100  95  96  88  80  72  69  74  82  89  97 106 108 109 110 113 121 124 117 120 122 120  95  41  22  18  16  78 125 111 104 121 106  10  12  14  20  25  55  62
  28  25  25  21  17  18  41  58  46  31  17  18  28  75 109 125 130 114  88  74  78  83  88 101 113 122 125 119 111 104  98  99 103  97  98 110 122 135 142 144 151 154 149 145 137 131 126 121 113 103  94  82  75  68  48  25  25  21  16  25  34  51  67  83 103 104 112 122 125 126 118 121 122 122 101  51  23  19  20  81 118 102 114 129 115  15  11  16  24  33  52  54
  28  27  30  28  25  24  35  56  66  64  19  14  38  90 118 127 131 131 113 105 106 112 111 103  89  70  49  38  26  32  28  34  58  79  90  93 104 118 131 142 151 161 163 152 136 125 119 113 100  89  80  80  73  78  53  23  42  32  27  43  62  26  34  55  78  94 104 113 124 120 121 123 123 120 109  68  31  20  28  84 125 111 120 132 115  15  11  19  30  36  48  48
  26  25  24  29  26  30  25  46  72  65  19  17  46  96 121 129 129 137 134 124 114 109  90  59  32  27  41  24  23  42  33  32  87  85  85  95  94 103 125 147 165 177 181 160 139 125 115 101  92  93  90  79  73 129  97  32  31  32  35  59  76  56  51  57  68  87 101 113 122 124 125 124 123 121 114  81  44  39  44  95 133 115 112 136 101   9  13  20  31  33  45  42
  21  27  26  27  24  22  20  24  67  73  24  26  55 107 127 132 131 133 128 117 106  93  61  29  33  61  76  46  41  37  40  51 105  89  73  82 109 104 118 150 176 187 184 165 143 122 108  90  98 113  89  67  74  81  84  76  89  80  78  74  82  96 103  99  94  99 111 128 130 130 127 124 123 120 118  91  60  56  88 138 143 125 107 143  72   2  15  24  31  39  43  36
  18  18  22  22  26  23  22  16  37  90  40  29  62 116 128 132 137 140 140 127 110  91  75  86  97  92  86  85  85  98 106  97  88  92 100 108 122 115 117 149 177 191 189 172 143 120 107  91 106 120 114 106  99  95  97 114 127 111 102 103 111 116 114 109 115 121 128 136 136 134 131 127 125 121 120 104  76  67 114 141 145 137 113 140  40   6  17  24  38  51  40  34
  25  16  16  21  28  28  24  29  22  67  77  40  76 124 129 132 140 150 153 152 135 122 121 126 126 123 120 116 118 126 122 116 112 113 112 116 117 111 128 149 181 193 193 167 140 119 114 104  99 103 109 108 106 107 119 125 130 122 117 118 117 113 111 121 133 132 132 135 139 134 132 129 126 122 121 109  85  75 116 139 155 147 125 131  21   9  20  47  63  56  41  33
  29  22  13  17  24  25  29  32  32  37  73  62  87 129 132 135 140 151 156 155 151 144 137 132 129 130 129 127 122 123 119 117 120 123 122 113 119 132 139 156 183 191 191 177 144 121 121 124 114 104 106 114 119 119 122 125 121 118 116 119 118 122 130 137 141 136 129 132 137 135 132 129 127 123 119 111  88  73 121 140 157 152 133 114  15  16  47  70  65  61  44  34
  31  31  23  21  25  23  36  46  41  36  39  64  91 130 134 138 142 151 156 156 153 150 149 144 137 132 129 126 123 121 126 131 140 138 130 132 146 148 144 159 185 191 188 181 152 122 122 133 132 131 129 123 126 134 135 133 129 128 130 130 132 137 142 144 144 141 136 134 136 136 134 128 124 123 121 107  88  79 128 145 163 151 139  96  15  39  63  64  64  57  42  33
  40  45  46  30  24  24  35  36  50  33  22  44  95 135 136 139 146 150 154 156 159 159 160 155 151 145 142 140 141 141 146 151 156 152 147 154 153 150 150 164 186 193 186 176 151 127 124 134 138 135 143 144 136 134 145 143 140 140 145 141 143 146 147 146 147 144 139 138 137 137 133 125 124 124 119 107  82  96 135 157 181 145 144  75  31  57  61  60  58  52  39  34
  33  35  38  25  23  23  26  17  55  59  15  34  82 135 138 141 146 151 155 159 164 164 163 160 158 152 144 144 147 149 155 159 158 159 161 159 153 154 159 172 190 199 192 183 156 135 130 138 136 133 139 154 151 145 144 148 145 144 154 157 156 157 156 150 150 148 143 139 137 139 134 123 124 126 120 106  81 105 137 163 182 139 142  57  44  59  57  56  46  42  35  31
  30  34  32  25  24  28  24  16  33  93  17  26  70 131 138 142 147 151 155 159 163 162 168 168 165 164 162 159 155 158 161 163 164 167 166 159 156 162 167 178 192 197 193 182 159 144 138 138 137 134 135 151 160 158 160 159 156 157 166 166 165 160 157 153 151 147 143 142 139 137 132 123 124 124 119 104  75 101 131 157 162 139 127  33  58  70  67  52  42  39  33  31
  30  38  37  30  26  23  25  22  13  83  35  16  63 128 140 142 145 150 158 161 162 164 168 171 171 170 172 168 164 167 165 168 169 168 164 158 159 168 171 180 195 197 197 186 160 146 143 142 143 136 138 151 161 164 164 165 167 170 174 170 166 160 153 151 150 145 144 143 141 138 131 127 124 120 118 105  75 110 145 152 142 142 100  18  42  61  74  56  38  34  33  31
  26  33  36  32  25  22  22  23   8  52  64  13  50 124 143 142 145 152 154 161 164 165 169 173 175 176 176 172 175 170 165 169 170 167 164 163 166 171 171 180 196 202 198 190 167 149 144 142 140 139 142 153 155 163 169 170 171 177 174 169 167 159 151 150 147 145 143 141 138 135 132 127 123 122 116 100  78 129 157 141 130 152  67  15  19  29  38  49  31  32  32  31
  27  28  30  30  25  21  19  22  15  22  71  22  46 121 142 142 145 147 150 159 161 161 169 173 176 178 180 176 177 174 171 170 172 170 166 162 164 167 170 185 199 202 198 192 174 154 143 136 128 132 141 151 161 165 169 175 176 182 179 175 165 160 155 150 145 144 140 139 134 133 132 129 122 120 109  90  86 157 161 132 150 142  37  25  20  32  29  28  32  33  31  29
  28  25  23  23  25  19  18  20  19  25  78  26  39 114 138 143 144 147 151 155 154 158 166 174 179 181 185 181 179 176 172 170 168 167 163 147 149 158 164 184 198 197 195 193 177 154 143 126 119 118 122 146 165 171 171 177 181 183 178 173 162 156 151 148 142 142 140 137 134 132 129 127 123 118 103  84  85 152 155 141 164 121  20  26  26  22  28  25  31  34  31  30
  29  19  18  19  16  14  16  20  18  51  91  17  33  98 133 141 143 149 151 151 156 159 161 169 176 179 186 185 181 174 176 174 170 163 148 140 147 155 161 183 192 192 185 181 169 156 145 129 128 127 112 129 146 162 170 177 182 182 180 168 163 159 150 146 143 141 139 136 134 131 130 127 120 117 103  81  81 142 155 152 160  94  15  22  39  33  23  27  30  36  33  31
  22  19  20  19  12  14  18  18  13  72  87   7  54  96 127 138 142 148 151 152 156 158 158 167 176 181 184 183 181 176 177 173 173 158 137 141 164 164 165 179 185 184 180 171 164 155 144 140 144 142 124 117 129 142 156 173 180 178 171 167 162 158 152 147 143 138 136 134 130 132 129 128 123 118 100  85  85 141 161 167 155  64  17  18  30  36  25  25  28  35  36  32
  20  18  21  23  18  12  20  22  16  35  30  53  91  91 123 134 141 147 151 152 154 156 161 167 174 178 181 180 181 179 177 174 163 150 137 160 177 173 168 178 185 181 180 166 155 151 139 140 146 147 134 112 122 135 133 153 168 172 169 167 161 155 149 142 139 136 132 130 130 131 130 130 123 113  99  87  94 139 151 149 145  45  17  21  19  21  24  24  22  31  34  32
  19  18  21  20  21  20  22  26  20  26  73 116  99  81 120 132 138 145 150 150 152 156 160 166 170 177 177 175 180 174 171 170 157 141 142 173 183 174 166 177 181 182 193 178 161 149 138 142 138 143 137 114 125 136 133 139 156 164 167 162 155 152 147 142 136 133 130 130 130 132 130 126 120 114 104  87 100 138 147 140 100  27  18  22  20  16  20  21  16  27  34  34
  17  17  21  23  18  23  23  25  22  22  85 134 133  86 105 124 134 144 149 151 148 152 157 162 169 173 175 172 175 174 169 160 149 142 141 162 172 167 160 164 166 172 191 183 161 151 135 137 136 131 123 113 137 148 141 136 148 157 161 156 153 149 143 140 135 132 131 133 132 134 128 121 120 112 109  85  89 137 145 139  67  17  23  24  23  19  21  18  14  23  38  39
  16  17  19  30  22  21  19  19  21  14  66 152 161  97  89 116 126 143 148 151 151 150 154 162 166 167 170 170 170 173 166 156 154 152 140 134 135 142 146 153 158 162 166 165 150 141 129 118 110 103 101 122 148 153 151 141 142 150 152 150 150 147 143 140 138 134 132 132 133 133 132 125 117 105 101  88  79 112 116  81  22  16  19  21  26  24  23  15  15  20  36  34
  15  18  18  26  30  22  22  18  20  11  49 153 177 113  79 116 118 137 147 151 151 151 153 161 163 165 167 169 169 167 164 158 164 167 154 121 104 105 109 128 142 148 148 146 137 127 102  92  95  89 107 138 148 155 158 151 142 142 146 149 150 146 142 140 137 135 133 132 135 132 129 122 120 103  88  77  38  33  28  14  12  14  17  24  29  26  22  19  22  24  41  38
  19  19  25  15  21  25  23  20  17  16  24 115 173 127  75 112 125 135 147 150 150 152 155 159 163 164 165 167 163 165 158 157 170 166 157 145 118 113 110 110 123 136 135 136 131  99  90  97  97 108 125 133 142 153 157 156 150 142 140 143 140 143 139 139 137 137 135 136 134 130 128 117 115 107  90  67  22   6   7  14  14  15  18  24  25  26  24  21  21  22  38  39
  16  24  29  18  17  23  21  20  16  14  18  39 100  99  67 102 129 135 144 150 151 151 152 157 161 165 165 160 160 163 165 169 176 165 147 144 140 133 123 124 114 117 126 127 110 100  99  82  83 100 109 118 135 148 150 153 155 147 141 143 142 143 140 137 138 139 136 136 135 132 128 109 107 107  89  61  21  13  12  18  15  13  17  21  25  28  27  22  20  19  25  31
  12  25  33  27  25  23  20  22  22  19  17  16  17  18  43 100 129 133 141 147 149 149 150 156 159 162 161 158 160 163 172 178 178 171 154 141 120 115 101 118 113 116 109 109 115 114  84  65  58  61  85  92 113 134 140 146 147 146 142 139 140 142 143 138 138 138 136 136 131 127 123 113 101 103  88  53  25  15  12  19  17  14  16  21  29  30  24  18  22  19  24  24
  16  23  33  32  31  30  25  23  28  23  24  28  24  21  37  86 129 131 130 141 147 147 151 156 157 160 161 159 162 168 173 167 163 158 151 125  91  77  79  97  91 108 102 115 107  88  78  62  53  54  69  80  88 110 130 132 131 122 131 134 138 142 147 143 139 136 136 133 130 122 120 113 103  99  80  36  25  18  15  19  21  18  19  22  26  24  19  23  25  18  21  18
  18  17  20  30  30  31  31  24  27  29  26  29  28  27  21  63 128 136 128 133 145 148 151 155 157 158 158 161 169 164 154 141 134 134 117  95  73  67  72  73  75  62  71  97 104  79  78  78  65  64  73  66  77  89 115 120 111 114 103 114 135 141 143 145 141 136 132 123 122 120 107 117 108  89  67  27  17  21  21  23  20  18  20  24  25  25  23  21  17  16  15  14
  18  16  18  25  31  29  29  27  26  26  19  23  32  25  26  48 111 143 130 115 131 145 150 154 156 157 156 159 159 147 125 122 110 116 105  91  79  75  77  81  84  66  79 101 107 108 108 114  92  79  84  77  88  85 100 109  97 112 108 102 123 138 142 145 141 135 131 123 110 114 105 107 111  87  57  20  21  26  27  22  18  24  22  24  25  22  22  21  17  16  12  13
  26  16  19  22  26  29  24  15  17  29  20  23  37  40  31  30  89 140 122 114 126 131 148 154 152 154 157 150 148 135 114 106  94 113 105  91 101 102 108 118 127 120 140 145 143 148 140 129 116 109 107 103 105  95  95  99  92 101 122  96 103 131 146 144 140 130 125 130 117 103 105 107 100  80  44  15  22  27  21  17  23  27  27  24  29  24  22  22  20  17  12  14
  34  24  18  25  31  29  25  18  25  38  27  29  35  40  23  21  72 129 120 130 116 118 142 151 150 146 151 142 134 111 103  98 103 123 118 112 122 123 126 126 131 135 143 155 144 126 122 119 120 120 112 114 116 109  98  94  88  97 113  96  95 118 143 144 136 126 110 115 124 114 113 107  86  72  30  16  20  20  17  15  20  21  21  22  29  26  24  22  14  12  12  14
  17  29  32  37  41  36  28  23  23  23  30  24  24  34  21  18  42 110 122 125 117 111 131 140 143 146 143 123 118  98  94 100 115 125 133 121 120 121 121 124 126 129 127 134 124 110 116 117 116 107  99  90  85  88  83  87  87  94 113 107  83  94 128 141 122 121 112 107 121 107 109 100  82  69  23  16  20  20  18  14  15  20  21  21  27  26  26  24  13  11  13  13
  15  15  21  22  26  36  32  28  20  23  24  16  27  30  19  15  26 105 123 113 118 100 110 139 149 148 122 104 103  98  95  88  83  91  87  87  98 104 106 110 109 110 108 112 112  93  91  95  91  87  84  76  67  57  61  75  85 103 112 118 107 116 126 134 118 106 114 114 116 100  97  83  85  63  19  19  18  17  19  14  17  19  19  21  30  33  27  18  14  12  13  13
  16  16  16  16  18  33  31  28  21  19  17  18  23  24  19  18  23  76 110 112 121 102 112 136 143 148 120 111 105 103 108 101  99  86  72  81  98 108 114 116 117 112 115 111 113 118 126 126 119 115 108 103  99  97 105 106 104 114 114 106 115 136 142 124 118 106 104 110 111  97  82  69  76  44  17  17  19  16  20  18  18  21  20  18  26  32  24  15  13  11  13  14
  16  15  15  15  18  30  30  23  22  17  13  19  25  17  17  23  28  44  90 107 112 105 109 125 135 150 144 128 115 118 131 133 135 133 129 125 126 128 138 145 150 152 150 147 147 146 144 137 125 123 127 130 136 139 128 125 131 140 138 122 132 140 135 108 106 112 101 101 105  86  64  65  62  37  26  18  18  15  20  21  21  22  24  28  26  19  16  14  13  13  14  14
  16  16  16  18  19  32  38  26  17  15  27  46  28  21  32  30  18  27  59  88  98 108 115 116 123 137 147 146 135 140 151 148 147 147 154 158 155 151 150 146 147 152 152 150 150 142 141 138 136 146 149 147 147 146 142 149 156 151 145 145 134 127 130 109  96 112  89  97  98  77  61  66  58  43  29  24  20  22  20  20  24  26  25  26  20  15  12  13  12  13  15  16
  16  16  18  18  20  31  35  33  30  30  38  45  33  34  44  29  16  20  33  74  93 107 123 103 106 116 135 150 141 153 164 164 161 156 157 162 165 167 165 160 154 157 161 163 159 155 151 146 149 149 151 146 144 146 154 160 159 150 146 151 135 107 116 101  83  95  87 100  88  64  71  63  69  53  30  33  28  24  28  26  26  28  19  17  14  13  14  13  13  14  15  16
  16  17  18  17  20  24  24  30  36  37  35  37  33  37  39  29  23  21  23  60  99 104 108  99  77  97 128 144 145 156 167 170 171 164 159 156 155 153 153 150 149 147 145 145 142 140 141 144 140 141 141 143 146 154 161 160 154 149 148 144 133  97  97  85  78  82  91  93  69  58  63  60  86  66  33  32  29  26  24  23  23  19  15  13  13  12  14  13  14  15  16  16
  16  17  18  17  19  18  18  18  21  26  32  34  29  33  39  48  36  23  24  35  72  90 100  77  65 101 124 139 147 155 165 169 171 164 161 158 151 143 133 131 133 129 121 122 123 122 121 127 126 131 139 146 155 159 159 159 153 143 138 138 127 111  87  75  73  85  87  81  56  60  58  77  99  73  45  30  23  25  19  18  14  13  15  13  13  12  14  15  15  16  16  18
  17  18  18  17  21  19  18  17  19  27  32  35  32  34  39  53  45  26  22  32  41  85  91  70  82  97 114 133 144 149 163 168 167 165 162 160 157 153 143 132 126 124 113 107 111 122 128 124 138 138 148 154 156 158 157 156 151 139 127 111 107 100  91  85  82  85  74  67  48  63  82  93 108  88  99  90  38  17  18  15  12  12  15  15  14  14  14  15  16  16  18  18
  19  19  18  18  19  18  18  18  18  23  32  40  39  39  42  45  45  42  27  22  30  57  69  72  94  90 104 115 131 143 152 162 166 167 164 161 159 159 152 148 145 134 125 128 128 142 145 149 153 153 156 154 157 160 159 154 150 132 122  98  80  88  84  78  89  68  57  47  49  71 105 113 110  90 102 109 108  28   7  13  12  13  14  15  14  15  15  16  17  18  18  19
  18  18  20  19  18  18  17  17  16  24  33  42  50  52  50  51  66  72  52  33  29  33  50  74  92 107  87 102 116 132 143 152 167 171 167 165 164 163 164 163 165 154 145 149 150 156 160 161 159 162 161 155 158 160 160 155 137 112 109  94  63  70  67  66  79  57  42  44  68  86 110 118 115  99 127 123 125 105  19   7  13  14  16  16  15  16  17  16  18  18  19  19
  18  18  19  19  18  18  16  16  18  26  34  43  53  63  71  69  68  70  71  63  80  73  60  58  80  86  76  89 110 127 131 145 166 176 175 171 168 167 169 172 170 167 157 157 162 161 164 166 163 163 163 159 156 159 159 154 137 101  74  77  62  55  55  61  67  46  36  54 100 113 122 122 117 106 158 148 116 145 107  14  11  16  16  17  18  18  17  17  18  18  19  21
  19  19  20  19  18  18  17  17  20  28  36  45  54  62  69  77  80  81  77  93 155 115  92  60  60  86  84  89 102 111 115 135 153 167 177 177 172 169 173 173 170 167 155 159 160 159 155 160 161 160 160 155 153 154 148 141 124  89  64  59  61  59  56  61  58  34  52  87 115 123 125 123 120 101 142 175 126 151 178  97   7  17  19  18  18  18  18  18  18  18  20  21
  19  19  19  19  18  18  18  18  22  30  37  46  55  61  69  75  81  82  80 154 160 140 141 115  70  64  91  82  79  85 103 114 130 142 156 175 171 169 172 174 159 147 155 159 161 151 147 150 146 146 149 152 138 136 129 115 109  83  53  48  49  54  63  56  41  49  79  97 116 127 127 123 121 108  66 122 156 170 190 187  73   7  20  19  19  19  20  18  19  19  20  21
  19  19  18  19  18  18  18  18  23  30  37  45  54  60  66  73  79  74 110 190 144 173 150 132 122  55  60  72  61  59  93  97  98 113 123 145 157 159 157 160 135 134 141 149 145 142 140 135 121 118 134 142 127 112 106  88  85  74  47  42  43  57  54  38  44  70  94 100 118 128 130 126 123 116  70  47 101 188 198 202 186  44  12  22  20  20  19  19  20  21  21  22
  19  19  19  19  18  18  18  19  23  30  37  44  52  59  64  71  74  68 169 183 141 156 141 132 144 105  45  50  49  44  73  80  81  99  91 100 125 133 132 129 122 130 135 142 140 127 126 113 100 111 104 108 100 103  76  68  69  50  43  43  45  53  43  40  62  83 112 126 131 130 132 129 123 118  84  53  90 205 210 206 218 163  22  16  21  21  20  20  20  22  22  23
  19  19  19  19  18  19  19  20  24  29  36  43  51  57  61  59  58 106 217 154 122 107  82 118 145 144  97  41  44  49  60  66  70  86  74  79  95 107 117 117 120 132 127 128 144 123 114 106  91  96  86  73  67  84  60  53  57  40  35  37  46  41  38  52  90 104 123 131 135 131 133 131 125 121  95  56 121 221 217 215 217 230 137  10  18  21  22  20  21  21  23  23
  19  19  18  19  19  20  21  21  24  29  35  41  44  43  51  97 169 229 223 106  67  69  67 108 146 139 129  84  41  44  46  54  67  73  58  75  83  82  98 118 114 123 116 119 134 107 112 108  83  90  89  79  59  69  61  61  46  37  37  36  39  37  45  62  99 119 122 132 136 137 134 132 127 123 103  63 151 230 220 220 223 226 232 127   8  11  21  21  22  22  23  24
  18  20  19  20  20  20  21  21  24  27  25  24  50 109 184 243 255 250 205  75  68  77  76  99 145 142 134 115  75  40  42  46  58  67  62  62  70  71  89 100 104 106 107 115 124 105  94  95  77  86  88  83  59  59  54  51  41  35  35  35  33  39  73  77  86 113 123 135 137 138 136 132 127 125 105  81 192 233 222 222 229 231 232 236 153  53   7  13  22  23  23  26
  19  20  19  20  21  23  21  19  11  19  67 143 215 255 255 252 247 248 192  74  79  84  81  94 141 148 135 128 109  58  42  35  37  51  60  63  65  66  68  74  88  92 106 103 107 103  76  80  73  75  82  66  52  55  48  39  31  34  35  34  40  44  81 107 103 119 129 135 136 137 135 133 128 128 102 106 223 233 224 224 232 236 233 234 246 229 149  52   8  12  23  27
  20  20  21  21  21  17   7  23  92 177 241 255 254 250 249 249 247 249 180  77  87  88  87  90 134 150 141 130 133 105  47  38  35  43  50  53  59  68  56  64  67  79  99  93  80  78  75  71  70  71  68  51  47  50  41  35  39  38  35  42  53  52  77 114 119 129 132 138 130 133 137 132 131 130  98 141 238 232 226 227 235 238 236 236 235 243 253 233 149  69  22  14
  20  21  22  14   8  36 115 203 255 255 254 249 249 249 249 248 248 251 161  82  94  92  91  92 131 146 144 135 135 128  84  52  40  35  37  39  50  47  49  62  52  64  81  84  68  68  69  58  61  59  49  45  37  33  32  34  43  38  44  54  42  59  96 112 117 132 134 137 134 137 137 135 132 129 100 184 242 230 226 230 236 240 238 242 238 240 246 250 255 242 189 109
  22  14   7  43 131 221 255 255 250 249 249 249 249 249 248 248 249 249 150  87  98  98  91  96 133 145 146 143 133 128 115  78  53  40  36  36  35  33  46  56  44  40  52  67  60  55  50  49  45  37  36  35  31  30  32  42  51  45  56  50  55  87 110 127 125 132 132 128 134 139 137 137 133 123 120 220 239 229 227 232 239 241 239 244 237 241 248 246 246 249 253 252
   6  49 140 229 255 255 250 249 249 249 249 249 249 250 248 249 249 249 144  93 102 101  92  99 131 146 146 150 136 136 135 105  76  66  54  38  32  26  31  41  39  36  39  46  41  40  40  43  38  36  35  36  33  36  45  60  72  74  80  73  98 115 121 134 131 133 136 135 137 138 137 136 131 114 156 240 236 230 227 237 241 242 242 244 240 243 247 246 246 246 246 248
 157 231 255 255 249 249 249 249 249 249 249 249 249 249 247 249 250 247 138  98 106 102  95 102 127 145 151 149 146 143 143 141 111  93  96  65  47  41  31  32  34  35  40  37  34  36  38  36  41  46  39  43  49  63  68  91  94  85  70  88 115 123 123 130 132 127 133 136 137 136 136 134 130 115 200 242 234 229 228 238 244 243 246 240 241 246 246 246 247 246 246 247
 255 255 249 249 249 249 249 249 249 249 249 249 249 248 248 249 251 249 139 102 109 104  96 104 126 143 151 149 148 145 145 138 126 112 108 109  88  74  67  60  50  56  62  60  46  47  50  54  62  61  67  76  98  95  76  89  96  83  90 105 119 124 128 134 134 128 136 135 137 134 136 134 124 140 234 238 234 229 231 242 245 244 246 242 243 246 246 247 246 246 246 247
 249 249 249 249 250 249 249 249 249 249 249 249 249 248 248 249 250 251 148 101 108 106 100 105 125 139 148 152 153 148 145 136 130 122 115 114 113 112 109 107  90  97 104  96  84  84  84  84  91 102 105 101 107 101  88  96  94 104 117 117 124 124 130 134 138 127 128 134 137 134 136 135 123 186 243 235 233 232 234 244 245 245 246 243 245 246 246 247 247 246 246 247
