P2
# Generated by OpenCV 4.2.0
92 112
255
  76  75  75  77  77  76  74  76  77  78  78  77  77  76  76  77  76  76  76  76  77  76  76  78  76  72  77  73  75  76  78  75  71  69  63  70  66  63  66  42  23  20  17  16  25  44  73  75  78  75  75  76  80  82  83  80  75  76  76  76  76  76  77  76  78  77  76  75  76  76  76  77  76  77  77  75  76  77  76  76  75  76  75  76  77  75  75  77  76  75  75  75
  75  76  76  76  77  75  75  76  76  77  78  77  77  76  77  76  77  76  76  76  77  76  76  77  77  75  75  71  72  75  74  73  76  70  72  70  52  41  38  30  19  16   9   7  13  17  40  67  60  62  74  78  65  33  27  63  77  76  76  76  76  76  78  79  77  79  77  77  77  77  77  77  76  76  77  76  76  77  76  76  76  75  74  76  76  74  75  77  76  76  76  76
  74  76  77  77  77  76  76  76  76  77  78  77  76  76  77  76  76  76  76  76  77  78  75  80  72  56  57  89  88  67  73  59  41  31  35  16  17  14  20  20  22  32  43  33  12  12  23  79  69  31  49  51  21  24  15  17  70  78  76  76  77  77  78  79  77  78  77  77  79  78  77  77  76  76  76  76  78  78  77  77  76  75  75  76  76  74  75  76  76  76  76  76
  76  76  76  77  76  76  76  77  77  76  77  76  76  77  76  76  77  77  76  75  76  77  78  72  43  60  58  83  91  56  38  24  34  50  69  46  48  32  24  31  26  22  39  70  30  20  18  49  66  27  26  17  20  40  62  15  43  85  77  77  76  77  77  77  77  76  75  77  77  76  76  76  75  75  75  76  77  76  76  75  75  76  76  76  75  74  76  75  76  76  76  76
  76  75  76  77  76  77  77  78  77  77  77  76  76  76  76  75  76  77  76  76  75  77  78  45  51  48  46  54  48  29  17  20  35  41  82  99  57  42  39  41  39  36  14   6  13  20  33  34  40  25  22  23  28  17  23  14  16  54  73  79  76  75  79  76  77  75  75  76  75  75  75  75  75  75  75  77  78  76  76  75  75  76  76  75  75  75  76  76  76  75  76  76
  75  76  77  77  78  77  78  78  77  78  77  76  76  75  76  76  76  77  76  75  75  78  53  41  28  39  56  42  29  27  14  20  29  14  19  54  59  27  32  39  41  30  19   9   5   3  15  39  47  21  26  31  23  13   6   8  23  17  46  53  53  69  78  77  76  77  74  75  76  76  76  74  76  76  76  76  77  76  75  75  76  77  76  75  75  75  76  76  76  75  75  76
  76  77  77  76  76  76  76  77  77  78  76  76  76  75  75  76  76  76  75  73  72  47  39  27  41  63  34  19  20  19  22  58  61  32  22  20  56  51  19  40  40  35  23  15  11   8   9  14  30  22  35  33  23  10   8   6   7  12  13  11  13  20  35  46  59  73  75  76  77  76  75  75  75  75  75  74  75  76  76  75  75  77  76  75  75  76  76  76  75  75  75  76
  76  76  76  75  76  77  76  77  78  77  77  76  76  75  75  77  77  75  75  77  49  29  42  52  49  19  12  15  10   4  12  32  33  22  19  23  25  61  45  49  51  36  29  23  17  16  10   8  25  33  37  32  22  11   6   8   8  12  18  16  19  18  15  13  10  36  68  76  76  76  75  75  75  75  75  75  76  75  75  75  76  76  77  76  76  76  75  75  75  76  76  76
  76  76  76  76  77  77  76  77  78  77  77  77  76  75  75  76  76  76  78  64  40  49  57  44  25  18  16  19  28  26   6  27  40  25  24  31  19  24  41  52  50  32  41  34  21  23  14  11  24  47  40  35  21  11   7  16  14  18  20  20  22  29  38  41  24  10  35  58  78  79  77  75  76  76  77  76  77  76  75  77  77  76  77  75  76  76  76  76  77  77  77  76
  77  76  76  77  77  76  76  76  79  76  77  78  76  75  74  76  79  71  48  47  53  47  27  20  32  31  21  14  17  27  22  52  58  51  29  38  36  26  23  46  54  43  57  33  32  29  23  18  23  53  45  38  24  10   9  19  23  22  17  22  25  18  16  14  19  15  12  16  44  67  79  78  76  75  75  77  77  77  76  75  76  76  76  77  77  77  76  77  77  77  75  76
  77  76  77  77  77  76  76  76  76  76  76  76  76  76  73  74  59  31  29  37  46  46  42  47  49  36  32  27  20  26  24  30  51  49  62  45  45  28  24  57  57  61  54  28  36  33  27  19  33  67  51  32  25  12  15  23  27  23  18  20  14  11  10  11  13  11   6   4   4  15  39  67  79  75  73  77  76  77  76  75  76  76  76  77  75  76  76  76  76  76  75  76
  75  76  76  77  76  77  76  77  76  76  74  75  76  75  73  60  38  64  59  35  50  43  41  33  38  45  36  39  32  41  43  32  24  36  80  52  46  34  34  59  70  49  37  39  37  31  26  18  63  81  40  28  29  21  24  24  20  17  19  17  19  18  17  22  20   9   6   8   8   6   4  16  57  78  75  76  76  76  75  75  76  75  74  75  75  75  76  76  75  76  76  75
  75  75  77  76  77  77  77  77  76  75  77  76  75  73  65  37  22  37  69  91  96  58  33  33  50  55  59  50  41  46  54  40  16  31  62  76  48  46  54  65  66  27  41  44  37  37  35  25  72  70  38  38  28  24  27  24  17  29  32  26  25  21  32  32  12  12  15  12   7   6   6   2  10  60  79  76  76  76  75  75  76  76  75  75  76  75  76  76  76  77  77  76
  76  75  76  76  77  78  76  77  77  76  76  75  78  61  35  15  27  10  26  89  84  58  52  38  70  72  53  79  57  92  97  62  15   9  56  88  36  76  64  67  43  32  57  46  37  37  32  21  71  52  42  42  29  28  29  21  23  29  29  33  24  26  35  20  15  22  15  10   8   6   4   3   2  12  64  75  76  76  75  76  76  75  76  77  76  75  76  76  76  76  76  76
  77  77  76  75  76  76  76  77  77  77  76  78  58  30  27  18  27  18  12  53  49  45  40  22  36  50  29  57  44 114 112  83  18   6  58  98  30  76  53  68  22  55  74  47  38  24  24  23  84  45  38  44  30  29  26  14  17  26  29  32  23  23  34  22  19  14  11  11  11   8   7   6   4   0  23  69  76  76  76  76  76  75  75  76  75  75  77  76  76  77  75  75
  76  77  77  77  76  76  76  76  76  77  77  64  28  31  30  31  20  17   7  24  24  22  12   8  16  19  15  20  13  67  76  62  26  20  47  88  37  70  53  67  32  80  62  46  37  27  25  38  81  34  43  41  31  34  25  12  16  27  33  34  19  27  33  25  14  19  23  21  10   6   6   7   9   5   0  41  78  76  74  76  75  75  75  75  75  76  76  75  75  76  76  74
  76  76  76  77  76  76  75  75  77  75  69  33  38  37  39  25  15   9   3  15  17  14  17  11  11  14  13  15  11  31  42  42  34  28  55  80  54  80  58  52  68  69  49  52  37  37  31  65  66  30  59  39  33  36  26  18  17  27  36  35  21  31  29  17  11  22  24  27  14  10   9   6  10  10   4  12  66  75  75  75  75  75  75  75  76  75  75  75  76  76  76  76
  76  76  76  77  77  77  76  77  80  76  48  36  51  64  41  20  12  10  10  14  21  14  15  16  12  14  16  16  22  26  34  43  40  41  53  73  71  79  62  53  71  65  58  49  41  47  36  66  53  33  53  41  42  33  27  32  23  34  39  28  18  30  20  14  10  20  28  33  20  21  16  10   8  12  10   3  43  79  75  76  75  75  75  75  75  75  75  75  74  74  75  75
  76  76  77  76  76  75  73  74  76  85  44  53  35  70  26  26  16  11   5  23  20  16  17  19  19  23  29  39  37  40  48  53  49  47  65  86  82  91  76  81  82  76  67  57  55  58  46  60  59  33  47  56  52  42  45  38  31  37  36  25  25  26  18  19  17  21  35  34  26  28  22  14   8   9  10   6  13  61  76  75  76  75  75  75  74  75  76  75  75  74  75  74
  76  76  76  76  76  74  73  75  82  65  40  35  25  39  18  13  12   7   2  10  19  27  34  33  34  54  49  50  61  53  48  62  58  63  98 105 106 108 100 107 107 106  86  71  86  70  59  62  61  52  57  67  63  74  55  37  42  40  34  30  34  23  22  17  15  28  35  27  28  26  26  15  11   8   8   9   5  30  61  74  76  73  73  75  75  76  75  75  77  77  76  75
  76  76  76  76  76  75  74  72  44  17  23  21  40  31  13   7   4   6   7  15  27  38  38  51  75  94  84  75  98  93 105  83  92 124 137 117 130 122 131 141 139 133 117 100 102  91  77  80  83  77  73  71  73  85  57  53  56  46  38  49  44  32  26  16  28  35  22  24  23  27  32  28  19  11   8   9   7  11  42  59  78  73  72  75  75  75  76  76  76  76  76  75
  76  76  76  78  76  74  73  59  17  12  20  21  19  33  31   5   7   8  33  38  44  43  59  95 114 101 111 128 134 129 114  85  88 121 129 141 149 143 163 172 170 162 154 144 127 119 114 112 106  96  97  84  91 101  82  71  66  62  69  57  44  36  23  23  35  28  16  17  16  24  23  31  26  14  11  10  11   7  20  39  68  76  73  75  75  75  77  76  75  75  76  75
  75  76  77  80  76  74  76  40  13  23  17  11   8  31  16   7   8  24  56  39  38  42  78 106 114 109 128 149 140 141  83  70  91 113 126 139 143 165 184 189 188 187 182 168 166 161 153 139 135 128 123 113 126 128 107 100  88  84  83  71  47  36  27  32  33  16   9  16  15  13  23  32  22  16  13  10  10  10   7  18  46  79  74  76  75  74  75  75  75  75  75  75
  75  76  76  76  77  75  70  18  22  21  13  12   7   8   6   9   4  50  63  43  48  61 105 136 141 157 170 187 179 164 120 115 113 106 112 136 159 173 195 200 199 198 193 186 185 185 179 169 168 159 150 153 155 137 127 116 106 101  89  78  65  51  38  35  26  17  20  16  10  17  32  28  12  12  14  11   9   8   8  10  24  69  77  75  75  74  75  75  75  74  75  75
  76  77  75  77  80  74  32  19  29  19  15  20   7   8   9   6  23  57  57  57  61  80 149 182 193 204 209 208 213 207 182 157 137 130 139 139 156 182 196 200 203 201 199 197 196 194 191 185 181 175 170 166 168 158 147 136 130 126 114 101  95  86  59  37  26  24  18  12  19  27  26  25  17   9   9  11  11   8   8   9  13  34  73  77  75  75  75  75  75  74  75  75
  77  77  74  75  79  41  22  39  38  18  12  68  17  10   3  16  41  56  73  63  60 119 174 206 221 223 225 224 222 221 214 198 178 166 161 172 178 191 200 200 201 201 202 200 197 196 194 189 185 182 178 169 175 168 161 157 146 143 140 130 119 106  77  52  36  25  20  22  22  20  25  31  23  13   9  12   9   8   7   7  10  15  57  81  76  76  76  76  77  77  77  76
  76  75  64  40  31  25  51  60  42  12  16  66  21   3   7  17  36  39  29  57 113 175 201 219 223 222 225 227 223 220 217 214 205 193 189 188 196 201 199 201 204 203 203 200 196 195 192 188 185 181 178 176 175 174 169 164 162 160 148 145 140 130 106  69  48  34  24  17  14  14  20  36  33  22  14  10   9   9   8   7   6  10  32  72  76  77  76  76  76  77  77  75
  79  75  36  13  10  54  77  69  29  13  17  43  10   9  12  12  17  19  19  88 175 201 219 221 222 222 221 222 224 223 224 219 215 213 204 202 201 204 202 204 202 201 199 197 194 195 190 186 183 180 180 178 177 175 172 167 167 165 160 154 154 148 131  92  52  37  29  17  11  14  23  25  35  34  25  16   9   8   9   5   4   6   6  37  62  75  75  75  74  76  76  75
  86  75  31  30  51 102  75  45  20  12  13  15  11  16  14  17  17  16  68 165 204 215 217 222 222 222 221 221 223 220 222 221 216 215 213 210 205 205 202 201 201 198 195 193 194 191 185 182 180 181 179 177 176 175 171 168 171 172 170 164 156 155 146 110  64  42  36  28  23  17  27  33  27  23  21  14   9   9   6   6   5   6  19  21  49  68  75  74  75  76  76  75
  58  48  31  24  83  93  66  33  15  13  13  14  13  14  19  16   6  54 120 172 212 219 221 224 225 222 224 224 222 218 221 220 216 215 211 208 207 203 203 200 199 197 195 193 193 191 189 185 182 179 177 178 174 174 172 168 170 175 174 169 161 157 156 123  73  48  40  34  29  23  20  26  21   9  11  14  11   9   8   7   7   5  12  10  24  51  75  75  77  76  75  75
  40  41  42  24  59  58  74  20  19  19  18  10   8   8  12   9  16  90 159 190 215 220 224 229 231 227 226 228 226 222 223 220 216 211 210 210 209 206 205 203 199 199 193 193 191 190 185 182 178 177 177 176 176 174 171 170 172 174 172 166 162 160 154 130  88  55  39  32  33  33  25  18  24  17   8  10  12  11   8   6   7   6   6   8   5  19  47  80  76  76  76  75
  36  56  45  28  53  48  37  12  27  21  18  11   8  15  16  23  52 101 188 205 218 222 229 234 237 235 230 226 226 221 224 218 217 215 212 214 208 203 204 199 199 199 196 193 191 183 184 180 178 176 176 176 175 174 174 173 172 173 169 159 158 158 156 134  97  76  50  36  28  28  31  30  20  16  11   6   8   8   9   5   4   6   9   6   7  13  27  69  77  76  76  75
  52  63  21  39  48  31  20  26  29  18  18   9   6  13  18  42  82 135 197 212 221 226 233 239 236 234 229 229 224 218 217 213 214 213 211 213 208 206 205 203 202 200 198 195 193 186 181 178 177 175 173 173 173 174 174 176 175 171 168 159 155 152 140 133 102  73  59  41  29  22  21  26  26  18  13   9   5   7   5   6   5   4  14   4   4   8   9  37  77  74  73  77
  54  37  27  58  31  17  17  36  23  20  19   9   9  15  38  80 114 138 202 220 221 229 231 231 232 233 228 225 220 219 216 213 214 217 215 213 208 205 207 202 204 201 198 192 190 184 181 179 174 173 173 173 172 175 176 174 175 171 166 164 154 147 138 116  99  75  57  42  28  18  18  20  16  17  15  10   6   4   4   4   6   7   2   6   6   4   5  16  56  73  74  74
  28  28  34  63  29  16  18  36  24  15  15  12  18  32  82 105 114 173 219 220 223 225 228 235 237 234 231 223 217 218 214 215 219 220 213 210 209 207 210 206 204 201 199 191 190 187 180 177 172 174 172 174 175 178 177 176 174 171 167 165 161 145 136 116  91  75  57  42  28  14   9  15  17  13  10   8   6   7   5   4   3   5   6   6   5   6   6   7  35  71  77  74
  46  36  33  39  19  21  15  28  18  24  19  16  20  57 108 113 134 212 220 222 223 225 229 232 232 232 228 221 218 216 213 215 217 215 212 211 210 203 208 211 207 205 202 195 191 185 179 178 175 175 176 175 177 179 177 176 177 174 169 165 160 145 129 107  86  75  57  39  29  14   9  10  11  13  10   9   8   6   5   4   4   4   6   7   7   9   8   5  17  54  75  76
  44  29  30  25  21  14  15  19  17  25  22  25  27  79 113 127 161 217 223 222 226 232 230 234 230 228 225 220 218 214 214 216 214 213 211 209 210 207 212 213 210 205 203 201 192 185 179 179 177 176 177 174 175 177 177 175 176 175 168 164 159 144 124 106  88  68  53  41  27  15   8   9   9   9  10  10   6   3   5   5   4   5   3   5   3   4   8   6   8  41  70  77
  41  29  27  18  21  11  18  19   9  13  29  30  44  81 112 134 187 221 223 226 227 231 228 228 228 226 222 221 216 216 215 214 210 206 205 206 210 213 213 212 210 207 204 197 193 187 180 177 177 176 177 175 175 175 175 175 174 175 170 162 158 146 123 101  86  68  53  41  24  14   6  10  15  12   8  11  11   4   4   5   5   4   4   5   2   5   4   3   7  27  65  78
  29  21  25  14  18  14  15  10  10  14  18  26  54  77 108 149 206 218 221 228 228 226 226 226 226 226 224 221 218 216 215 215 211 204 203 208 216 216 214 211 209 210 203 198 192 185 182 178 176 178 178 177 177 172 171 174 173 172 170 166 160 148 129 110  90  69  52  43  27  12   7   8   9  11  12  12  14  12   8   6   5   8  10   9   8   7   4   3  11  27  51  78
  21  24  19  13  15  14  17  11   9  11  20  25  51  78 117 168 215 217 224 228 225 225 226 226 226 227 223 216 216 217 216 215 214 207 205 211 219 219 217 213 211 209 206 198 190 182 181 179 177 178 178 177 173 171 171 172 171 170 170 163 162 153 134 120 102  79  56  42  28  12   8   8   5   7   9  13  17  14  15  15  15  15  14  11   7   7   6   7  11  19  37  77
  42  42  18  17  21  13  27  20   9  11  20  31  57  81 131 190 217 219 222 221 222 224 225 227 225 225 221 216 216 219 214 215 213 204 203 211 219 220 219 214 212 208 203 196 188 179 179 177 175 176 179 176 171 174 170 172 168 165 166 161 158 157 146 128 108  86  62  45  31  17  12   9   6   8   9   7  10  15  13  13  13  10  10   8   6   5   5   7   9   9  29  76
  55  48  22  18  22  13  25  20   9  10  12  31  56  81 145 207 215 219 220 222 224 224 226 226 231 231 223 220 217 213 212 217 213 197 200 216 220 216 217 214 209 204 201 193 185 177 174 172 173 174 175 174 175 175 172 170 169 168 165 159 158 150 146 137 124  99  78  50  37  18   9   8  10   8   9   8   6  11  16  13  11  10  10   9   8   8   7   6  12  22  11  54
  53  46  21  17  18  11  22  19   9   7  13  28  57  91 171 215 215 217 220 221 225 228 230 229 230 236 231 224 218 210 209 217 210 191 198 221 225 218 214 214 208 201 197 187 182 174 170 169 174 175 173 174 175 173 171 170 169 165 163 157 155 148 145 147 136 113  91  63  43  24   9   7   9   7   8   9   8   7  13  23  15  10   8   8   5   5   6   8  10  12  30  38
  43  31  17  19  18  15  25  23   9   6  11  24  56 116 197 213 212 215 217 222 230 233 232 228 218 222 232 227 216 206 206 213 206 191 198 219 220 216 209 210 210 202 195 186 179 171 168 170 177 177 175 175 175 174 174 171 170 167 159 159 153 150 150 148 141 129 109  79  51  30  11   5   5   5   5   6   7   7   7  13  20  18  13  10  11   8   5   5   7  11  46  54
  19  26  18  15  20  19  17  22  15   7   9  23  56 122 205 211 214 215 219 225 228 231 231 227 217 214 224 217 213 208 206 207 198 187 199 213 208 206 198 204 206 201 194 184 180 177 170 171 177 177 176 174 176 178 176 176 173 172 165 159 151 145 149 147 142 135 122 101  71  38  17   5   3   4   7   8   7   7   7   7  10  16  18  14  10   8   4   3   5   8  36  67
  10  22  14  10  16  13  13  14  18  10  10  22  53 121 211 211 211 216 220 226 227 227 228 221 217 220 217 209 204 202 202 196 185 186 207 210 194 190 191 190 192 195 191 188 188 187 180 178 180 178 174 170 166 168 167 173 173 167 166 162 148 141 145 145 140 137 129 118  94  50  24   8   3   3   6   9   8   6   6   7   7   8  13  14  11   7   6   4   7   7  15  43
  22  15  10  13   7  15  13   8  18  11   9  18  52 127 209 211 211 217 221 226 224 220 222 225 236 228 212 191 195 197 188 183 176 191 211 204 177 173 187 176 170 172 163 171 169 169 165 165 167 166 161 161 149 143 143 144 145 152 162 162 149 138 138 141 138 136 134 126 109  74  30  12   3   4   7   7   5   6   5   8   6   5   5  10  11   9   7   7   6  16  13  27
  28  27  20  14   6  13   8   9  16  13   9  19  56 138 206 206 214 218 226 229 223 222 229 237 225 200 185 170 179 187 172 171 165 191 205 184 167 150 180 170 156 139 125 145 131 122 115 107 117 104 108 118 118 125 118 111 106 114 130 144 145 138 132 135 138 138 137 128 117  91  42  15   3   6   9   7   6   5   5   9   8   5   6   4   5   8   8   7   6  13  11  27
  17  35  32  13   7  10   9   7  14  14  11  19  58 150 209 207 215 220 226 221 226 226 212 178 154 141 143 141 154 167 158 157 153 184 191 166 162 146 157 164 141 122 112 120 108 107  87  77  63  60  59  71  86  96  95  94 100 112 110 113 129 135 127 132 136 141 138 130 121 100  52  18   3   6   7   6   6   5   4   5   9   6   5   6   5   4   6   6   7   8   6  13
   5  29  42  20   7   8  11  14  16  11  10  20  58 157 206 208 215 215 207 202 194 170 145 123 107 111 107 115 127 146 146 145 145 176 180 165 154 145 136 136 125 118 104  95  89  80  66  56  50  55  54  62  74  81  82  88  88  85  84  97 121 126 128 130 130 136 135 134 126 108  64  24   3   3   6   6   4   5   2   2   7   8   8   5   6   4   5   6   5   8   7   9
   6  28  28  17   8  10   9   8  20  15  13  15  55 170 206 211 199 176 171 174 156 132  86  67  71  83 101  98 111 124 139 139 141 165 170 161 155 144 129 119 110 101  97  92  84  78  72  72  80  90  94 102 115 118 107 103  99  89  98 110 118 114 129 131 127 130 134 136 131 123  85  33   6   4   6   6   5   4   4   3   5   8  10  10   7   5   6   7   7   6   8  12
   9  27  27  10   9  13   9  11  21  13  12   8  61 180 209 196 172 162 146 128 117  90  72  74  92 106 114 111 112 115 120 128 140 157 162 160 158 150 131 119 108 100  94  88  80  64  40  42  66  71  78  89 100 105 113 121 122 127 127 121 123 128 131 132 128 131 133 134 131 130 106  53  17   4   5   7   9   5   3   3   5   6   7   8   8   7   5   5   7   6   9  10
  33  32  18   8  17  16  14  18  21  11  14   6  74 193 202 180 156 155 142 129 129 124 126 129 119  91  65  57  69  89 106 116 130 153 172 175 172 159 141 129 122 108  94  90  77  61  69  70  44  37  39  28  26  36  56  76  95 116 128 125 125 132 136 137 129 128 133 132 132 132 112  65  31   6   3   7   5   7   6   2   3   4   5   7   6   5   5   6   8   6  10  12
  39  29  17  14  26  29  25  30  15  13  18   6  94 203 195 174 158 159 162 165 156 143 130  95  63  55  70  71  68  70  81  93 113 168 216 208 191 170 151 134 124 104  96  88  84 101  76  50  31  22  21  20  21  26  30  24  34  54  91 117 115 123 137 140 132 130 133 135 135 137 121  69  35  14   3   4   2   3   4   3   6   3   3   7   6   4   2   5   9   7   7  10
  72  56  35  49  40  40  64  42  14  18  24  11 112 205 199 181 170 177 178 159 128  80  41  30  47  47  44  71  87 103 101  93 114 206 235 215 197 173 150 131 125 112 106 111 109  76  46  68  78  58  60  70  76  76  83  59  53  60  70  95 113 123 139 140 135 137 134 136 135 138 124  73  30  17  14   7   3   2   2   2   1   0   2   7   6   5   3   2   8   8   6  12
  68  54  43  53  33  51  60  38  15  18  24  13 119 207 205 191 190 185 151  91  40  15   7  14  20  38  55  89  63  65  97 118 139 222 223 207 193 172 150 130 130 120 123 140 129 109 111 111 118 123 123 117 129 118 123 125 126 127 122 122 126 141 147 146 145 142 138 137 134 138 130  82  28  15  16  11   7   4  10  19  34  23   0   4   5   4   3   2   4   8   5  10
  63  51  45  42  34  31  23  19  18  12  26  14 128 210 205 196 183 170  98  29  36  66  70  86  89 104 116 109 110 119 128 130 186 223 217 205 193 178 152 136 135 134 128 135 137 134 125 122 125 135 133 131 133 137 138 140 141 144 149 154 149 152 158 155 150 144 141 139 137 136 137 102  36   9  12  11   4  18  48  96 121 122  66   2   3   5   3   4   4   7   6   9
  60  48  32  32  28  29  12  22  13  12  26  24 137 210 204 196 178 141  70  96 142 159 154 159 152 145 143 135 131 129 126 177 217 217 217 205 193 176 156 141 141 148 140 130 130 131 133 130 137 138 133 133 138 143 143 145 149 154 155 158 158 158 161 157 151 146 142 138 136 137 137 115  59   8   6   8  10  38  87 148 158 146 139  51   0   6   2   4   4   7   8   9
  36  28  27  29  31  17   9  18  13  12  15  30 145 212 207 208 196 171 173 201 185 168 165 154 147 141 141 143 147 154 185 217 212 219 218 206 192 172 156 149 145 150 150 147 147 141 144 152 156 156 155 157 160 158 154 158 161 161 161 161 161 158 159 159 151 147 144 139 137 136 137 127  81  22   6   9  51  81  96  85  77  77 116 108   3   5   3   5   3   5   7  11
  24  24  25  39  34  27  19  15  16  11  25  40 154 213 208 211 211 215 217 208 205 196 184 170 157 162 165 169 175 193 218 213 211 217 216 207 191 172 157 153 151 155 159 156 157 162 155 154 159 159 160 165 167 168 167 166 168 170 168 165 162 159 158 158 154 147 144 141 139 135 137 137 104  42  14  35  87 106 114 102  66  45  84 139  24   2   4   8   6   4   7  11
  34  26  19  20  20  24  19  14  24 101  80  57 167 212 209 212 220 222 216 211 209 209 210 206 200 194 193 191 203 221 217 215 212 217 214 206 189 169 159 157 155 156 160 163 160 170 171 161 157 160 160 166 168 166 167 168 168 170 169 171 165 158 156 157 153 149 145 140 138 138 137 136 122  69  44  67  91 108 131 142 122  72  89 149  48   0   4   9   8   3   5  10
  67  42  22  34  31  22  18   5  52 171 131  61 174 211 209 215 221 221 222 220 220 219 217 207 207 203 203 211 223 227 219 216 214 221 216 204 189 174 162 157 157 163 164 163 165 172 178 177 167 161 160 161 167 169 170 171 174 174 173 173 167 159 157 155 154 148 142 138 138 138 137 134 127  89  73  97 113 124 145 163 138  90  93 145  59   0   4   8   9   3   6   6
  63  44  30  42  39  26  25   9  64 130 113  80 188 211 210 214 216 224 226 224 222 217 211 211 213 212 211 224 231 224 219 218 218 222 214 203 191 176 162 157 156 159 169 167 168 171 178 180 178 172 171 170 171 174 178 176 176 176 174 172 163 157 152 154 152 146 138 136 138 137 136 135 131  99  70 109 126 156 166 160 136 115 100 152  54   0   8   8  11   7   5   6
  58  60  36  41  50  31  27  10  60 129  56 107 200 209 211 213 215 219 224 229 227 221 216 218 218 218 221 228 229 223 222 220 223 224 212 201 189 178 165 159 154 149 158 168 172 174 173 179 179 177 177 175 175 175 179 179 176 177 178 170 163 155 151 155 151 144 139 138 138 138 136 136 129 114  89  91  61 101 149 141 152 123 110 157  43   0   9   8  10   9   4   5
  65  61  33  28  52  29  24   8  36 164  59  99 204 209 210 212 215 214 221 227 230 229 224 225 223 220 224 228 227 221 220 221 227 223 210 198 187 180 165 157 152 144 148 154 167 176 178 179 178 179 179 179 179 176 178 180 176 175 172 166 162 159 154 153 148 142 138 135 136 136 136 134 129 117  98  83  62  78 117 149 162 133 115 149  24   4  10  10   8  10   6  11
  64  50  41  31  48  35  21  14  12 157  84 100 210 209 209 214 214 214 218 222 227 231 228 226 221 220 221 229 226 213 216 222 239 228 210 197 186 180 164 153 156 152 151 146 149 166 181 180 183 183 183 185 183 179 180 180 178 173 169 161 160 160 157 151 149 143 139 135 136 133 136 133 124 112  97 100  87  87 111 139 162 145 127 137  11   8  10   9   9  10   6  30
  73  62  35  21  43  46  13  31   5 132 144 108 208 206 208 210 213 213 215 220 228 229 226 229 223 220 220 222 217 206 219 223 236 221 211 202 191 182 163 155 158 157 157 151 144 150 163 176 179 182 184 186 185 182 179 179 173 173 167 161 158 158 152 148 148 144 138 136 132 131 132 131 121 104  92 128 103  84 103 132 164 146 134 122   2  11  14   7   9   8   8  33
  72  71  54  31  31  20  16  27   4  73 135 108 208 206 207 208 211 209 212 218 229 232 232 230 222 221 222 213 199 205 224 220 218 210 205 195 186 174 158 156 158 154 157 155 147 146 148 161 173 179 184 185 182 180 181 178 173 170 161 157 153 153 150 149 148 143 140 135 130 133 133 130 119  84  87 143 123  93 101 127 160 144 144 102   0  13  21   7   7   6  16  56
  74  73  71  56  41  25  20  27   5  41 125 123 206 205 204 207 209 206 208 216 225 227 232 230 225 220 212 203 190 219 219 209 204 195 183 173 167 159 148 147 153 150 149 149 145 141 144 147 162 172 178 179 180 182 179 178 173 166 158 155 150 151 151 149 149 144 138 134 130 130 133 127 113  84  93 142 142 114 114 137 170 145 152  76   0  15  27  13   5   5  36  72
  74  73  74  72  53  29  18  17  13  20 148 149 200 206 205 204 207 206 207 211 221 230 233 232 224 216 204 191 193 213 206 208 196 178 166 157 155 152 141 124 114 126 135 140 137 130 141 144 154 165 171 178 179 180 176 175 168 159 153 152 151 151 146 147 149 145 139 133 129 132 131 118 101  90 104 138 145 115 121 144 170 139 153  46   1  15  17  12   6  11  52  68
  70  70  70  71  57  35  17  11  14  18 110 144 193 206 204 205 206 207 208 212 219 229 231 225 219 204 199 185 190 194 161 119 160 178 156 148 152 134  79  26   6  33  98 123 123 135 157 151 149 159 168 174 178 178 175 171 164 159 154 152 146 143 147 151 150 146 140 133 132 133 127 108  93  84 105 123 127 128 129 156 170 136 139  17   7   9  11   6   6  26  55  63
  73  70  72  68  42  32  16  12  10  12  65 129 188 205 206 206 206 206 209 212 217 223 223 222 216 202 192 179 196 176 117  45  40 151 152 136 140  87  73  88  89  85  93  98 113 152 169 171 154 155 162 170 174 176 172 168 164 161 153 151 146 144 150 151 150 145 141 136 133 135 124 106  90  85  93 106 127 132 104  91 113 147  96   4  16  11   9   7   8  25  55  56
  52  61  63  64  30  29  17  11  15   7  44 133 195 208 205 207 204 203 207 210 216 220 222 220 211 203 189 187 217 208 136 120 164 191 168 126 119 103 109 128 138 138 118 115 145 165 169 175 169 158 160 168 170 171 169 165 161 157 154 153 148 147 151 151 150 145 141 137 134 124 112 101  94  75 100 145 148 124  66  28  19  65  43  15  18  11   8  10  11  37  53  61
  25  27  33  38  23  21  17  15  11   7  29 134 198 205 207 208 204 198 207 211 215 219 223 218 210 199 186 213 232 231 202 198 221 206 174 125 104 115 125 111 105 119 125 147 157 164 169 175 176 165 161 166 170 171 170 165 163 158 154 155 149 150 152 151 149 144 139 135 130 116 107 102  83  74 106 151 139 100  56  92  75  24  20  18  16  13  16  16   9  40  59  67
  44  44  50  30  16  17  18  10   9  16  15 127 186 197 207 208 207 205 210 211 217 218 219 216 205 198 205 233 234 226 220 190 176 185 174 147 131 137 112  73  68  63  95 126 146 155 169 173 174 174 167 164 167 169 168 167 164 160 156 153 150 151 148 151 146 146 139 133 130 122 110  94  73  65 101 141 123 105  70  82  88  59  12  18  18  15  13  10   7  48  63  65
  75  42  37  40  21  23   9  16  12  16   8 135 184 189 207 205 209 213 212 213 216 215 217 212 208 207 221 236 227 207 158 113 127 137 143 128 128 150 131  93  64  49  61  81 104 127 149 162 168 175 177 169 168 169 169 167 162 161 161 158 151 151 149 149 143 141 138 128 122 120 105  91  69  61 114 138 124  99  70  81  80  42  10  12  11  13   9   5  18  57  55  39
  62  37  34  51  22  14  20  23  15  18  19 108 179 183 194 207 209 211 212 212 215 214 217 212 212 218 229 229 222 165 102 108 116 109  92  87 115 137 145 113  87  77  58  66  76  94 117 134 149 165 174 176 171 166 165 167 161 162 163 156 151 151 152 143 138 131 130 125 122 112  95  90  68  68 130 133 117  66  78  79  48  11  13  12  11  11  10  10  30  40  41  56
  67  53  18  36  30  22  26  43  26  25  15  89 146 162 191 203 208 211 212 211 217 217 217 214 217 228 228 208 185 137 102 114 113 110 116 103 126 150 175 169 122  95  82  73  70  77  93 108 127 132 139 155 174 170 165 170 166 164 162 157 152 150 150 146 138 124 122 112 112 105  82  86  70  72 129 137 104  77  82  49  13  13  10   7  10  12  14  21  36  34  56  65
  74  59  20  27  32  30  27  37  39  22  14  60 112 159 188 199 208 209 211 214 217 218 218 222 223 213 184 173 135 128 131 122 127 151 158 160 180 190 187 168 135 112 117 107  86  81  89 100 114 106 118 118 137 165 168 169 168 166 161 155 153 151 145 136 134 121 121 115 103  94  82  79  61  56  94 116  93 103  75  23  10  13   7   6   7   7  14  23  32  21  43  60
  80  48  15  37  33  19  29  25  28  16  20  45  99 137 189 203 203 204 210 213 216 220 216 211 201 173 164 143 132 156 140 137 139 150 158 177 194 160 131 129 128 129 129 124 116  99  93  94 101 101 105 112 101 131 167 168 167 167 162 156 151 151 142 130 115 109 114 115 105  87  77  74  56  26  34  53  69  71  32   7   9   6   5   6   5   6  13  14  27  26  48  65
  71  36  25  39  26  14  10  22  31  21  22  33  94 132 175 199 205 209 209 213 214 221 206 191 153 145 135 145 153 168 152 135 147 144 148 159 155 129 112 121 123 127 126 117 117 120 108 102  99  98 102  97  94  98 149 163 163 161 155 151 148 142 131 126 117 114 107 112  99  89  78  64  47  21   1   3  11   4   0   4   5   6   5   4   2  11  16  21  25  31  59  70
  73  54  37  26  28  11  16  37  23  23  15  34  86 129 171 191 200 199 206 213 217 204 187 158 135 138 129 149 158 151 128 135 149 142 131 127 133 129 107  85  94  95  81  93  95 102 119 118 108  93  85  97  91  88 107 162 160 154 152 145 141 138 123 111 118 116 102 107  91  83  78  59  40  17   5   9   4   3   2   3   9  10   7   4   6  19  25  36  31  38  39  43
  70  62  48  26  32  17  28  26  20  19  16  25  76 110 167 195 185 186 210 214 205 198 187 149 156 127 125 137 147 125 103  98  79  80  83  84  73  73  66  63  75  78  73  77  70  64  76 106 114 113  97  98  92  81  98 137 160 154 141 141 129 128 118 110 103 103 104 100  85  86  64  51  32  12  15   8   4   5   5   4  11  15   6   4   8  22  37  31  31  50  49  44
  73  72  58  32  25  20  10  12  18  21  19  17  49 100 157 184 169 185 203 208 210 200 167 147 150 127 116 123 119  73  69 118 145 149 150 153 143 139 146 149 145 140 141 134 123 101  67  55  65 103 123 116 108  80  79 117 151 149 136 132 126 113  98  95  97 100 101  98  86  74  58  46  20  16  12   6   4   4   5   3  10  13   6   6   3  11  23  25  31  38  30  47
  74  70  62  30  21  16  16  15  16  20  17  18  36  79 122 153 168 177 190 207 207 188 161 143 129 117 106  77  54  88 167 209 211 208 200 187 181 186 187 179 159 147 147 145 145 139 131 123 117 117 134 132 116  99  90 127 142 141 133 132 122 107  93  93  86  93  93  94  76  74  57  34  16  15  11  12   5   3   3   2  10   6   4  11   9   5  10  17  20  18  27  53
  74  71  69  36  11  10   9  16  15  20  16   8  21  54  94 147 174 165 170 199 204 186 169 137 127 127 117 109 159 205 221 216 216 205 197 188 185 183 176 167 159 158 163 161 159 159 158 152 153 155 157 147 123 105 100 121 138 128 123 123 114  98  81  86  89  81  86  81  81  67  46  24  16  12  15  16   6   2   3   5  10   7   4   9  10  10   6  10  10  20  47  54
  73  71  71  74  44  27  21  16  11   9   8   9  17  41  91 121 161 165 159 190 202 195 176 138 137 151 159 183 224 218 205 210 207 193 188 180 177 164 162 159 158 159 160 158 154 157 158 155 159 165 169 166 153 124 109 116 145 121 103 107 101  93  70  76  83  72  72  72  69  55  39  16  15  10  21  15   4   3   4   5   8  10   8  13   7  12   9   9  10  27  40  49
  74  72  71  72  62  36  30  18   9   8  10   7  13  44  65  93 137 158 161 172 191 193 162 152 164 176 183 210 215 211 207 202 192 173 159 143 138 132 130 138 144 145 152 156 156 158 159 164 167 169 168 166 164 149 120 108 134 123  95  89  85  79  71  72  67  69  66  59  59  49  32  11  12  10  22  13   4   5   5   6   8  10  13  17  11   8   8   7  10  17  25  46
  73  72  72  73  52  26  44  22   8  10   8   6   9  30  56  75 108 139 148 157 178 177 155 170 190 192 204 217 212 207 201 189 170 141 139 125 120 115 111 126 132 133 145 150 159 164 169 171 171 167 167 163 166 159 134 103 120 115  87  66  76  62  64  75  60  62  54  51  52  40  30   9   8   9  18  11   7   4   7   7   6   7  10  13   9   8   9   6   6   7  25  55
  73  71  72  77  45  11  32  36  10  10  10   9  10  17  50  88 109 110 139 149 158 177 164 175 193 195 212 215 211 208 200 193 166 150 141 126 114 114 120 127 148 145 149 160 167 171 170 170 170 167 166 169 167 161 151 120 105  97  72  56  69  57  53  64  52  46  42  46  41  36  31   1   5   8  12  10   8   5   6   7   7   6   6  10  11   9   8   6   3   8  41  59
  72  73  75  60  19  28  49  37  20  14  11  13   8  12  40  76  79  89 114 126 141 160 177 189 198 204 213 211 211 206 202 201 183 173 165 160 144 133 149 141 147 159 166 169 170 171 172 171 166 168 165 159 158 143 134 111 102  78  55  53  57  52  46  53  47  38  43  40  30  45  29   1   3   8  10   8   6   3   8   6   6   8  12  16  10   8  11   6   7  10  18  34
  73  71  73  51  23  26  52  36  21  22  17  13   5  11  33  68  55  81 105 104 109 141 167 196 204 213 213 213 211 207 206 207 199 201 203 205 180 173 179 174 169 168 177 177 172 174 174 174 167 164 168 150 145 124 100  99  99  77  54  49  48  41  44  52  42  40  38  29  33  51  23   0   2   6  10   8   6   6   9   8   6   9   8   8   7   8  21   8   7  15   2  32
  72  72  72  62  54  60  50  29  13  19  20   9  12  11  14  51  70  83  96  75 111 129 143 178 195 203 210 217 213 213 217 218 220 225 220 206 193 192 184 181 183 185 187 186 182 180 177 178 172 166 157 132 120 117  93  78  80  59  49  43  45  37  43  43  36  35  29  34  58  57  18   4   3   4   9   9   8   9  10   9  10   8   6   4   4   8  13  11  15  28  12  22
  72  72  72  71  69  67  51  31  11  27  22  12  23  13  12  28  49  68  73  58  91  95 117 164 181 193 213 223 225 224 224 227 231 226 218 199 195 181 181 186 185 187 187 190 187 184 179 177 172 164 148 115  90  90  77  61  48  47  45  37  34  33  35  28  26  37  32  45  79  60  10   0   3   4   7   8   8  10  10   7  10   8   6   6   6   9  13  21  24  25  16  36
  71  70  73  74  64  58  62  30  25  27  17  19  23  14  11  16  44  65  54  52  65  83 107 138 159 183 202 219 229 232 231 234 229 218 199 182 182 174 177 185 186 178 171 176 182 178 165 166 170 151 128  97  82  69  60  49  46  41  35  33  29  28  26  24  25  33  34  73  87  58   7   0   4   4   6   8   4   8  10  10  11   8   8  11  11   9  11  25  21  13  38  49
  73  70  72  73  70  65  56  25  30  25  12  11  13  10   8  15  38  51  47  42  62  81 109 109 136 156 168 190 216 227 217 228 221 195 178 156 163 155 158 169 156 149 140 150 163 163 144 146 149 122 113  81  74  61  50  34  36  35  26  21  23  22  16  23  23  30  69  97  85  56   4   2   6   6   7   7   8  11  10  11   9  11  12  11  12  10  11  13  12  16  42  53
  73  70  73  73  73  68  49  28  21  19  12   9   9  12  12  18  33  38  37  49  57  61 102  95 113 129 136 152 178 185 188 192 195 186 166 142 152 141 131 137 122 120 129 123 123 119 127 133 120  95  78  61  48  46  39  28  24  28  25  20  18  17  16  16  21  51  91 101  90  53   2   4   7   5   6   8   9  12  11   7   7   9  10  12  19   8   9  11  16  25  37  51
  71  72  73  72  72  69  52  25  24  58  34  15  10  14  12  20  16  26  54  41  38  51  73  75  87 109 119 129 131 146 164 166 167 155 147 127 135 135 114 108 103 102  97 102  87  83  89  99  93  80  55  40  37  27  30  26  21  21  19  18  15  14  14  20  50  78 104 103  91  49   3   6   7   5   6   9  10  10  10   8  10  10   9  22  15   8   8   7  28  25  47  48
  71  71  72  73  72  66  63  27  12  53  43  16  13  28  26  17   8  22  62  36  40  39  42  63  55  84 108  95 100 111 131 150 141 126 128 105 114 113 103  88  92  95  82  83  66  66  54  65  61  59  43  26  30  24  27  23  18  20  18  14  14  13  11  49  83 100 108 104  92  38   3  10   7   8   8  11   7   8  12  12  11  10  13  19  14  13   7  17  27  30  59  59
  72  72  73  72  69  65  67  49  13  15  19  33  28  28  29  14  11  32  35  36  40  32  50  56  39  70  66  70  86 101  99  97 117 107 109  97  84  86  88  75  83  79  63  66  54  57  43  46  45  41  37  25  20  27  19  25  22  17  17  15  17  16  35  88 103 113 111 105  86  29   7   9   6   7  10  10   5   5   5   7   8  10  16  15  11  15  11  14  24  51  64  54
  74  73  74  72  72  70  56  55  37  12  12  15  20  31  34  29  15  27  18  41  70  37  66  41  51  67  41  68  83  85  80  78  91  92  90  85  76  65  66  57  74  63  51  51  41  52  35  30  32  27  27  21  17  19  17  18  15  19  19  18  15  34  76  90 106 117 116 106  82  25   8   6   6   7  10   8   6   4   3   3   4   8  13  12  11  11  11  13  29  53  56  57
  73  73  73  72  70  72  60  40  37  24  15  15  22  27  28  25  15  18  12  29 138  99  40  14  45  51  37  54  54  67  77  68  68  83  78  70  67  56  46  45  46  50  39  36  26  31  29  17  20  26  20  20  18  15  18  21  15  15  16  15  29  71  93  98 114 119 115 107  78  21   6   6   6   7  11   9   6   6   6   5   4   8  10  12  15   9   8   8  18  31  58  64
  73  72  73  72  70  71  66  41  27  21  15  21  28  17  18  15   8  10   6  50 211 171  81  27  38  40  43  48  28  42  60  44  43  65  63  59  47  47  37  38  34  35  33  35  25  19  21  15  20  20  14  18  18  15  15  21  22  15  10  25  66  94 107 118 120 120 117 106  76  17   6   8   7   6   7  10  10   8   4   6   5   6   8  13  14  10  12  22  18  21  57  64
  72  73  72  72  70  69  70  50  31  37  18  14  17   8   2   4   5   9   0 126 245 212 164  63  40  47  29  24  27  29  42  38  38  49  37  38  37  31  26  28  32  21  25  25  26  15  17  19  21  16  15  16  16  13  15  15  18  13  19  68  86  97 119 122 125 122 117 105  76  21   7   9   7   6   8  12  19  14   7   7   8   8   8  10  10  10   7  22  21  16  43  62
  72  72  72  72  71  71  74  68  28  16  15  31  36  16   7  11  20  20  30 214 253 219 213 156  64  38  30  19  31  27  31  39  48  43  42  28  30  23  22  19  24  19  18  15  15  20  13  17  20  20  19  18  13  14  14  14  15  14  55  94  95 106 124 125 128 123 117 106  76  31   7  11   9   7  13  15  21  19  13  11   8   9   7   5   8  21  21  20  39  25  32  60
  74  71  72  72  72  73  71  71  58  28  13  22  28  14  13  18  41  19 107 255 248 225 202 206 177  84  39  25  26  30  36  40  43  20  26  21  28  27  19  17  21  20  19  15  15  19  15  22  18  15  19  16  15  19  17  15  23  47  83  99 109 115 126 130 126 126 119 106  76  57   8  12  13  13  11  11  13  14   8   8   9  11   7  11  18  33  41  21  44  41  28  57
  71  73  74  72  72  73  71  70  70  74  54  34  42  49  35  27  40  25 197 254 251 248 209 203 213 179 105  55  29  35  36  26  32  25  24  24  25  27  24  23  25  22  20  23  20  20  20  21  16  16  17  18  20  17  14  25  53  72  84 110 119 122 126 131 128 125 120 105  76  92  16  15  16  14  12   7   5   6   5   6   8  10   7  11  22  36  49  24  45  41  23  56
  72  72  73  72  72  72  72  73  69  69  44  42  69  67  56  47  38  55 246 254 254 255 226 208 207 205 191 132  75  48  35  24  31  39  38  33  35  25  23  27  29  27  28  30  26  23  18  21  20  19  18  19  20  20  21  39  61  73 109 120 120 132 134 130 127 128 120 101  84 128  32  10  17  20  16  10   8   6   7   8  10  10  20  36  42  46  53  27  46  35  29  59
  73  73  72  71  72  72  73  72  72  66  42  27  63  69  68  55  30  92 255 255 255 254 248 208 203 197 197 187 142 118  86  57  40  34  30  34  42  33  30  29  30  29  26  27  23  17  22  20  20  21  22  21  20  29  48  61  76  97 121 128 130 132 136 132 128 127 119  98 102 164  65   0   8  15  19  13  10   6   7  12  11  10  38  60  55  57  55  28  47  19  45  60
  72  72  73  72  73  73  71  69  70  72  57  17  36  65  63  53  23 124 255 255 255 255 255 232 196 205 196 189 175 153 145 108  76  59  40  38  33  26  25  27  26  27  24  25  24  21  21  18  27  27  29  25  31  44  75  77 100 118 118 125 134 134 130 134 129 128 119  98 131 184 105   4   3   5  10   8   5   5   8  10   9   8  40  52  54  58  41  21  20  32  58  60
  71  72  73  73  73  72  71  70  69  73  68  37  23  50  61  52  24 146 255 255 255 255 255 255 220 190 198 187 180 177 164 125 112 113  91  85  59  53  54  52  42  38  39  37  40  37  33  38  42  61  43  38  57  65  95 101 117 123 127 130 139 135 136 135 130 130 124  98 166 193 136  26   1   1   0   1   3   6   8   5   6  11  54  42  32  30  12  11  33  59  61  64
  72  72  72  72  71  70  72  72  71  72  69  48  44  60  64  50  24 149 254 255 255 255 255 255 255 209 179 192 186 181 179 170 160 154 147 130 108 100  83  78  69  57  58  62  63  64  59  64  76  92  63  54  80  92 116 113 118 125 132 134 138 136 129 129 130 130 118 116 208 190 156  53   0   6   4   4   4   8   9   5   6  23  62  59  44  18  22  44  61  62  64  66
