P2
# Generated by OpenCV 4.2.0
92 112
255
  84  83  83  84  83  84  83  83  83  83  84  86  84  85  86  84  82  84  79  80  79  60  26  22  32  26  22  19  13  11  18  16  15  14  10  19  26  23  26  24  21  17  20  17  13  13   9   5  13  19   9  14  24  25  13  14  13  13  16  21  35  70  88  87  85  82  84  84  86  86  85  86  85  85  85  84  85  84  83  85  84  84  83  83  83  83  81  82  83  83  82  82
  84  84  83  83  83  84  84  84  84  85  86  86  85  86  85  84  83  84  81  72  37  15  13  20  15  22  16  11  11  13  14  12  12  18  19  19  24  26  24  24  21  19  17  13  14  14  15  10   9  19  15  12  24  25  15  11   9  10  13  15  18  33  45  49  60  77  86  86  85  86  87  86  86  86  85  85  85  85  85  85  84  84  82  83  83  82  82  82  83  83  83  82
  84  85  84  84  84  83  84  84  84  85  86  86  86  86  83  85  79  83  64  27   5   8  16  17  15  12  14  19  15   9   7  13  14  11  19  23  22  22  28  28  23  16  13  12  17  21  16  17  15  16  15  16  21  27  16   9  10  11   9   9  11  11   8   9  14  31  55  74  80  85  86  86  86  87  86  86  86  85  85  85  84  84  83  83  84  84  84  84  84  84  84  83
  84  85  84  83  83  84  84  83  84  85  85  85  86  86  85  82  80  60  16  10  20  29  26  14  15  16  19  18  10   8   6   6  15  19  12  16  24  16  19  24  25  19  12  12  14  21  22  27  34  16  12  18  24  25  12  11  14  12  11  12  18  21  17  15  16  12  16  25  57  88  86  84  84  86  86  85  84  85  85  85  85  83  84  84  84  84  84  84  84  85  84  84
  84  84  83  84  84  84  85  84  85  85  86  85  86  87  85  84  80  28   8  38  54  46  38  32  35  29  25  21  16   8   7  10   7  17  22  18  16  21  20  22  22  26  15  15  10  14  16  27  42  20  12  22  24  19  13  15  17  18  19  20  29  41  30  19  14  12  12   8  28  71  87  85  83  85  84  84  84  85  85  85  86  86  85  85  85  85  85  86  84  84  84  84
  84  84  85  84  84  84  85  86  86  87  87  86  86  85  85  81  73  20  16  35  27  30  37  41  44  42  37  21  18  14  14  15  12  10  26  27  19  21  26  21  25  23  22  20  17  27  25  20  21  16  11  24  19  14  18  21  23  28  29  25  27  43  41  28  25  29  28  21  16  25  63  85  87  85  84  83  85  83  86  86  86  87  86  86  85  86  86  86  85  84  85  85
  84  84  85  85  85  83  84  85  86  87  88  87  86  89  81  77  61  13  17  23  25  32  34  26  18  16  24  15   9  15  34  26  16  14  24  34  26  16  20  17  21  24  29  22  23  28  35  24  16  16  15  22  16  17  23  30  33  35  31  20  22  32  40  47  52  49  37  28  24  20  30  53  73  86  87  87  87  84  84  86  87  87  86  86  86  86  85  86  86  85  85  85
  84  85  86  86  85  85  85  86  87  87  87  87  87  86  78  68  26  14  20  30  30  30  29  29  21  14  14  12  11  17  16  14   8  11  23  37  20  17  18  20  19  24  24  16  22  28  27  29  31  27  20  23  18  29  27  36  42  31  27  22  19  24  33  37  38  37  36  24  18  16  16  24  35  62  83  84  84  84  81  84  87  87  86  85  86  86  86  87  87  86  85  86
  86  86  86  87  87  87  87  88  88  87  87  86  83  80  65  26  19  22  26  27  30  31  36  24  27  20  10  13  13  13  13   9   7   9  21  32  18  15  26  24  21  21  18  16  33  35  31  35  37  23  27  29  24  31  30  38  44  28  27  27  23  27  31  33  47  54  44  40  35  24  15  16  24  29  44  79  88  85  83  83  87  88  86  88  87  86  86  86  86  87  87  86
  88  87  87  87  88  88  89  89  88  89  88  84  81  62  26  16  18  20  20  27  39  41  26  17  15   8   8  16  13  11  15  16  20  17  16  20  17  20  26  27  17  19  24  31  45  34  28  31  25  23  26  29  26  25  22  35  37  33  32  20  21  31  34  32  32  35  49  51  40  24  15  13  15  25  27  41  76  89  83  84  86  87  85  86  87  87  87  87  87  87  87  86
  88  87  87  87  88  87  89  88  84  85  89  82  50  21  17  21  19  25  30  42  49  38  23  14   5   7  12  14  12  10   9  18  26  19  15  16  16  28  41  20  19  19  29  54  40  40  25  21  30  26  21  33  28  22  18  27  30  46  30  31  34  34  28  27  18  15  20  32  45  29  13  12   9  14  17  26  35  62  87  87  84  86  86  87  87  87  87  88  87  87  86  86
  86  88  87  88  87  85  84  87  87  85  78  46  12  13  15  12  20  50  59  46  45  26  17  11  13  14   8   8  16  24  28  27  24  19  20  20  15  28  54  37  24  30  38  50  33  30  21  39  45  20  23  49  26  20  18  23  28  31  45  51  50  43  34  24  21  29  18  16  22  32  25  17  14  10  13  12  19  33  51  82  87  86  87  88  87  88  87  87  88  87  86  86
  88  88  88  88  85  85  83  85  86  75  34  18  22  10  12  14  36  42  35  30  49  17   8  12  24  29  31  16  13  36  44  31  23  31  31  25  20  26  44  36  34  41  52  22  28  25  42  55  35  19  37  52  23  19  24  23  33  32  34  32  54  49  31  28  41  42  34  11   6   5  12  20  26  13   6  13  15  18  30  46  79  85  83  87  89  88  88  88  89  88  87  87
  87  89  89  87  83  86  87  78  69  40  26  37  23  19  43  34  31  16  14  16  18  16  13  13  30  24  25  34  30  19  19  21  33  37  26  23  33  31  52  33  42  49  49  36  36  44  66  55  19  31  39  44  24  25  32  21  41  34  21  32  54  40  17  25  39  43  24  13  11  11  10  10  19  19  10   8  15  22  21  27  47  78  83  87  91  88  88  89  89  88  87  87
  88  88  88  84  82  87  80  72  45  24  31  24  19  35  36  13  11  17  19  20  27  33  33  32  13  11  14  17  23  17  14  15  24  40  20  24  35  43  60  41  48  55  38  48  49  80  52  39  26  38  39  51  32  30  34  26  40  31  24  26  41  36  21  26  43  38  25  25  21  14   9  10  11  19  18   8   8  16  31  26  30  49  80  87  89  88  86  88  88  87  87  87
  89  88  86  82  79  79  71  49  22  23  17  16  22  32  24  14  11  14  19  50  49  69  47  30  44  51  50  44  26  20  16  17  19  32  29  31  36  41  62  44  50  63  46  46  75  74  38  37  54  44  45  60  47  34  45  32  49  44  27  25  52  52  37  26  42  23  29  34  27  24  17   8   9  16  28  18   8  11  18  44  31  37  56  81  86  88  87  88  89  89  88  88
  88  88  86  84  84  61  40  19  13  11  13  14  29  30  19  17   8  11  20  43  32  31  36  24  48  67  50  52  66  29  20  22  23  39  51  50  52  48  61  50  67  58  57  60  71  54  38  54  83  44  38  54  53  39  42  49  67  57  36  41  70  51  43  46  38  16  33  37  23  22  22  18  11   9  24  34  15  12  12  23  52  33  37  65  84  86  88  87  89  89  88  87
  88  86  84  80  64  41  26  10  12  17  17  28  25  24  15   9  10  34  25  12  23  10  18  17  14  17  20  17  31  37  29  31  29  38  52  55  66  76  83  66  70  67  64  77  52  49  57  71  74  40  52  53  63  55  62  71  96  73  41  60  51  44  43  58  40  29  33  37  27  28  22  21  15   6  12  35  32  16  17  10  38  48  31  46  72  86  82  85  89  88  88  89
  85  79  73  69  43  34  10  13  18  14  29  30  25  32  17  13  31  47  27   9  15  15  13  15  15  15  18  20  15  36  36  36  42  42  54  54  55  81  91  80  70  78  80  79  55  53  70  82  60  57  60  62  63  71  74 101 111  61  53  58  45  49  44  54  37  28  31  50  49  46  28  17  18  10   5  20  36  26  17  17  13  50  41  38  46  79  83  87  87  89  89  88
  87  80  69  52  47  13   8  21  17  24  39  20  22  36  35  30  42  47  27  12  10  15  15  13  16  23  19  27  26  26  39  37  50  44  51  59  67  91 100  96  92 105 105 100  84  74  97  95  78  91  84  96  82  83  62  96  82  60  68  57  61  54  52  47  37  30  32  61  50  36  42  24  18  15   6   8  23  29  16  16  16  19  54  29  37  51  89  87  88  89  89  89
  92  75  54  38  28   8  13  20  20  55  35   8  21  40  39  38  34  39  41  26   8  18  24  35  44  35  43  49  44  36  59  47  48  58  63  71  68  90 111 114 112 125 126 120 124 119 118 115 110 120 125 120 103  97  75 109 109  82  74  79  89  76  69  47  36  33  36  45  23  31  42  37  22  13  12   6  13  20  19  11  17  11  37  46  35  42  70  90  86  90  89  88
  87  57  27  25  16   9  17  14  35  67  12   3  21  39  29  32  28  36  46  28  18  24  38  54  59  30  38  52  51  46  58  41  37  57  74  82  96 100 125 125 129 149 160 156 164 168 150 141 145 148 146 145 134 127 111 153 141 123 118 108  93  96  87  58  41  36  40  35  29  27  30  45  27  10  13   7   7  15  19  13  14  18  13  34  27  54  37  82  90  87  89  89
  86  67  39  32  15  14  12  10  40  41   5   4  16  40  37  19  19  27  27  33  36  16  27  26  23  24  31  39  37  39  42  30  24  57  67  77  90 102 117 139 153 171 178 180 183 184 178 175 176 166 159 173 170 163 159 171 153 140 134 130 122 117 112  95  59  46  48  47  37  45  51  43  52  15  10   9   6  11  17  15  11  16  13  10  15  41  53  45  90  89  89  90
  44  40  36  24  19  22   8  14  30  16   5   8  17  27  39  14  13  23  17  41  30  30  34  34  28  26  37  50  64  64  64  44  22  43  67  79  90 106 115 133 166 186 189 188 189 188 184 191 191 186 182 186 180 173 177 176 166 155 148 157 160 148 130 124  95  73  64  48  45  42  56  47  34  23  11  17   4   9  13  14  15  12  22  10  12  13  49  36  51  89  89  89
  26  20  13   8  10  11  14  17  20  16   9  12  26  24  16  13  13  14  14  38  31  30  37  46  48  59  73  82 105 112 101  74  33  36  52  68  87 108 128 142 167 185 191 190 191 194 193 192 192 191 191 188 183 176 181 188 181 180 171 169 173 173 168 165 145 101  77  48  42  38  37  40  28  20  22  12   6   7  10  11  16   9  26  33   6  20  30  30  27  67  89  89
  78  79  67  18  33  36  13  14  17  15  15  22  48  38   9  11  12  13  15  35  30  31  46  65  83  97 117 132 145 149 145 124  77  55  67  82  98 104 112 133 166 185 190 195 200 199 194 192 189 190 190 189 189 185 182 188 184 184 178 178 176 176 179 174 167 134  90  64  48  42  31  32  34  24  24  19   9   5   8   9  12  10  15  28  11  10  36  25  29  37  83  94
  85  85  79  44  48  25  13  17  24  18  13  26  89  40  15  12  10  16  16  24  25  52  72  85 107 129 150 162 169 167 170 162 144 125 115 120 125 128 145 160 179 196 196 203 202 198 194 192 192 196 193 190 191 189 188 188 190 186 181 184 184 180 176 175 179 166 110  72  57  52  39  31  28  25  21  19  13   9   6   8  12  14  14   9  10   8  12  31  30  38  72 107
  87  75  41  34  19  10  12  16  27  18   5  51  93  22  20   9  21  28  17  19  38  67  90 114 132 144 156 163 169 167 164 163 158 154 152 149 144 151 162 181 195 201 207 206 199 196 197 197 199 195 192 191 192 191 187 188 187 184 184 187 191 187 184 179 183 176 132  85  57  51  48  28  32  25  20  13  14  11   7   6   9  15  11  11  13  11   7  19  25  42  60 111
  71  34  21  22   5  10  13  19  19  11   4  41  46  20  18  18  40  18  14  21  61  84 110 127 142 154 159 165 168 170 170 171 172 178 183 180 175 170 179 196 204 205 206 203 201 201 201 202 200 199 195 193 194 193 187 186 190 186 183 189 190 191 190 184 179 176 144 109  70  46  53  42  31  27  22  14  11  15  11   8   7  12  11  13  12  11  12   9  21  39  56  86
  19  40  55  32   9  15  14  25  21  11   6  18  22  22  12  23  51  16  13  39  91 104 118 131 142 151 158 164 169 170 172 176 179 179 184 189 192 189 189 195 202 207 203 202 205 207 205 203 204 204 203 201 195 190 190 187 185 185 185 189 190 187 185 182 179 179 150 117  89  49  40  48  36  42  28  16  11  13  13   8   9  15  14  12  11  14  17  16  22  34  49  66
  44  63  43  15  23  15   6  16  16  13  13  12  37  32  10  14  26  27  26  81 105 109 118 132 144 147 161 167 169 172 176 175 179 181 182 184 193 196 197 198 202 205 206 207 213 210 207 206 203 203 202 199 191 188 190 189 186 185 187 185 187 185 176 175 174 166 161 127  91  57  41  45  31  50  41  18  18  10  16  11   4   9  13  13  14  14  19  16  16  30  43  84
  28  23  19  17  17  11   9  13  15  17  14  20  66  41  13  23  22  37  48  96 106 109 121 136 142 148 161 167 170 177 177 177 182 185 184 188 197 198 200 203 209 211 209 210 213 212 208 206 206 203 203 203 196 189 190 190 188 188 190 188 185 184 177 173 170 157 141 125  98  66  40  43  31  30  39  33  16  12  13  16  10   6   9  11  12  12  16  15  16  15  26  94
  18  25  28  17  11   9  19  20  15  11   8  41  59  44  34  22  24  39  59  85 103 107 126 135 142 151 162 171 173 175 177 180 186 189 194 197 198 205 206 205 209 211 208 204 209 208 208 210 207 205 205 202 198 191 187 189 190 191 190 188 187 180 179 177 165 158 138 111  92  70  45  43  32  22  27  32  22  12  10  12  13   7   6  11  11  12  13  16  15  16  16  45
  43  34  21  13   9  10  21  18  10  13  15  29  26  26  49  31  36  27  51  91  98 113 123 135 143 150 162 170 171 174 180 185 188 193 197 198 195 201 202 202 206 206 208 209 210 209 209 209 207 206 204 204 196 190 189 191 192 193 194 190 186 181 180 178 172 157 137 113 102  70  43  41  32  22  20  29  31  19  12  12  12  11   9   7  11  12  12  16  16  16  21  30
  28  20  14  17  12  12  15  15  13  13  15  19  16  15  31  38  46  24  27  81  98 117 123 135 142 151 158 166 175 177 182 185 191 194 193 196 192 197 198 202 211 213 211 208 211 212 211 207 206 203 204 202 193 188 189 188 191 196 194 194 189 185 182 180 174 155 142 117  98  79  51  44  36  20  19  14  16  20  14  14  18  13  10   8  10  11  13  15  15  16  21  23
  29  17  18  18  13  12  14  15  14  13  11  16  15  18  15  26  39  26  28  57 104 124 125 135 139 148 158 166 173 178 180 187 192 195 201 200 195 195 203 212 213 213 212 210 211 210 206 207 206 204 202 197 195 188 190 189 190 196 195 190 189 189 182 176 178 159 137 122 102  75  55  34  27  18  21  15  14  19  19  10  18  14   6   7   8  12  11  10  19  25  51  69
  23  11  12  16  14  11  15  15  12   9  10  13  14  22  14  28  47  34  47  78 114 130 130 135 137 142 156 167 170 177 183 187 192 197 198 199 193 200 210 214 213 214 209 213 209 207 209 208 206 202 197 197 194 190 188 187 190 193 193 195 193 189 183 178 178 170 147 123 108  77  55  36  31  28  13  22  14  11  19  14  10  14  13   9   5   8  11  11  12  15  46  34
  17   8  15  22  17  13  15  10  10  10  10  13  12  20  21  40  51  42  80 104 129 131 134 143 143 144 153 157 163 176 182 185 189 193 194 197 199 208 211 212 213 210 200 205 205 204 206 206 206 202 197 194 187 188 188 187 187 191 192 191 193 190 185 181 179 174 157 142 125  95  59  38  36  33  15  15  23  12  11  16  10  11  13  11   6   6   9  13  11   9  27  54
  14  15  28  30  16  12  10   7   8   9  12  13  19  34  21  32  34  73  97 109 122 137 138 145 143 142 150 155 164 173 180 187 192 194 199 200 204 208 211 211 205 204 203 205 204 204 203 204 202 202 196 194 187 184 188 190 190 190 189 190 192 190 186 182 181 178 165 153 143 113  61  35  31  38  24   6  16  18  11  11  12  12  13  10  10   8  10  12  12  12  18  75
  33  19  35  34  11  10   8   9   9   9  13  12  31  39  21  26  33  90 101 114 125 141 141 144 140 143 149 157 165 176 182 192 192 197 200 199 201 208 209 205 200 203 200 201 201 202 203 203 199 198 197 195 192 189 185 189 189 187 188 189 191 189 182 183 181 178 170 162 154 133  77  36  26  41  29   7  10  17  15  11  11  15  13  11  12   9  11  15  14  14  15  38
  34  23  28  19  12   9  10  11   9   9  13  13  12  13  21  33  33  92 105 122 133 143 144 142 144 147 154 158 160 172 184 187 192 191 192 199 208 207 207 209 201 200 202 203 203 201 203 203 204 203 198 198 197 197 191 190 192 190 191 190 190 189 186 183 179 178 171 168 160 140 100  40  19  33  33   7   7  12  14  12  10  15  16  15  13   9  10  12  15  16  23  39
  32  25  29  19  10  11  12  10  10   9  13  14  10  15  19  40  29  82 111 123 135 141 144 145 147 150 151 156 162 172 184 188 192 191 196 202 205 208 210 211 205 202 199 202 205 204 205 205 207 205 203 200 198 198 199 195 191 192 192 188 188 188 184 182 179 176 169 172 172 156 137  67  27  22  34  13   9  10  10  11  10  14  14  17  13  12  10  11  16  14  20  31
  19  21  26  32  13  10  15  15   9   9  11  10  10  16  23  31  36  52 110 121 135 141 146 147 147 151 149 155 168 175 183 190 192 194 198 202 207 208 213 211 202 199 200 205 205 207 210 208 210 210 209 204 200 199 203 202 196 194 193 191 188 184 183 180 178 175 174 174 171 169 155 107  43  23  33  16   9  12  12   9  10  12  13  14  13  12  12  13  15  13  22  36
  15  21  17  30  16  12  16  10  11  10  10   8  10  17  21  20  74  46  79 127 134 140 144 148 149 152 154 157 167 176 185 192 194 195 203 208 211 215 216 213 207 196 202 208 210 212 211 213 217 218 215 209 207 204 207 207 203 199 196 195 189 184 181 179 172 173 174 176 171 171 160 140  70  27  19  17  11  12  10  10   9  12  17  13  12  12  13  12  12  15  18  49
  18  17  19  21  19  15  25   7   9  10   7   8  10  14  13  22  30  34  88 122 132 138 144 149 153 154 158 160 167 180 186 192 198 202 207 209 213 221 215 209 205 197 204 212 213 211 215 221 224 227 221 215 210 205 210 206 200 193 189 188 188 186 181 175 175 170 169 174 168 168 167 153 100  36  18  19  13  14   9   8   9  13  17  14  12  12  12  13  12  15  18  39
  15  14  23  35  17  24  23   9   7   9  10   9  12  12  21  27  32  74 112 119 131 146 148 151 154 157 163 159 165 178 181 191 203 205 205 212 216 224 217 210 199 198 204 210 212 211 212 218 222 223 223 219 213 206 207 208 200 189 183 172 166 171 179 173 177 167 161 170 169 166 167 156 117  52  22  17  12  11  13  11  10  14  19  16  14  13  11  12  14  16  17  25
  15  18  19  40  18  25  33  13   7   8  11  12  14  17  26  37  72 100 106 117 134 147 150 152 156 163 167 166 161 174 185 188 197 203 207 214 217 221 223 215 204 201 203 205 208 206 196 203 201 208 197 203 198 185 187 182 170 166 162 144 144 134 133 141 153 162 158 161 167 170 167 160 126  59  27  15  12  12   8  12  12  15  16  16  13  11  11  11  16  16  18  24
  21  18  12  35  29  24  36  17  12   9  10   8  15  27  22  39  80  98  97 117 141 148 152 155 162 169 170 174 166 172 186 188 191 195 201 208 215 216 216 213 209 207 208 203 202 195 192 175 157 184 178 156 126 118 115 110  95 113 118 133 133 110 110 122 134 148 158 158 162 170 166 164 147  90  33  18  10  12  10  10  14  15  14  13  15  18  12  12  11  14  20  35
  19  16  10  28  44  15  24  15  11   9   4   9  21  21  24  41  73  90  93 119 144 158 161 159 164 169 175 181 177 177 184 186 187 183 185 201 210 214 212 211 208 209 207 203 199 187 183 163 141 160 145 108  89  78  67  75  71  80 101  95 100 106 105 119 120 125 149 147 155 163 166 166 163 141  53  21  11  22  19  13  11  17  28  12  11  18  11  13  10  13  19  39
  16  15  10  12  50  28  17  25  11   9   9  12  19  18  34  45  69  79  90 124 153 162 160 160 160 166 168 164 149 143 157 162 167 169 177 189 198 208 207 204 200 204 203 200 198 189 174 157 150 140 117 108  90  66  70  87  94  98 114 123 117 115 108  94 102 138 146 151 160 159 165 167 164 154  77  22  14  25  17  14  78 130 146 124  43   6  11  12  10  12  15  32
  17  17  11   9  28  41  12  21  16  11  11  14  19  24  43  48  65  76  95 137 148 135 136 131 129 120 101  86  92  95 109 125 141 160 172 178 192 198 199 199 198 200 204 198 191 165 151 155 154 138 122 115 110 110 124 129 123 123 128 133 134 137 131 136 146 149 153 164 164 158 164 166 168 164  99  27  19  14  22 110 180 182 185 193 156  31   7  12  11  11  13  33
  10  16  14   8  10  25  18  11  14  12  13  12  16  25  45  51  61  71  96 116 102  98  98  85  84  54  50  62  59  59  74 102 114 146 160 166 182 195 194 198 202 198 195 194 183 168 147 138 138 127 120 104  92 100  77  42  28  23  32  39  64 106 134 155 155 160 166 172 173 160 163 169 171 170 118  40  19  13  89 181 190 203 191 167 181 105   3  11  15  13  10  31
  13  15  15  10   7   7  12  12   9   9  23  14  14  25  46  50  59  70  81  69  65  73  64  65  54  37  50  55  52  57  76  87  95 115 142 153 168 184 187 193 199 202 201 193 180 166 151 138 128 126 111 109 132 111  90  36  64  67  28  32  40  49  92 132 155 156 163 176 175 166 167 170 169 172 134  54  19  23 141 200 188 154  92  60 142 164  22   6  14  14  10  25
  13  16  17  10   9   8   7   7   6  11  17  19  21  20  46  54  63  66  58  54  50  49  55  56  59  82 106 112 116 111  96  86  83  88  96 114 134 160 171 185 198 209 210 198 185 172 160 142 140 135 140 161 129 146 188  68  52  44  48  67 108  57  67 107 139 157 168 182 174 172 172 170 169 171 154  80  24  32 167 190 144 124 124  97 132 188  50   2  11  12  11  19
  12  16  17  14  11  10   7  10  10  11  23  22  21  18  43  56  59  56  47  50  61  70  90 108 130 142 134 115  91  60  38  41  49  57  67  79  96 124 158 182 199 217 217 203 196 183 161 151 151 147 162 131 141 211 214 127  82 106 108 141 159 141 132 142 151 166 182 183 181 178 175 173 170 170 163 114  36  31 123 148 158 184 182 160 136 188  71   1  11  10  10  14
  23  20  34  26  15  15  12   9   5  42  41  21  20  20  39  52  58  56  51  58  83 104 116 123  99  60  45  26  12  47  82  18  29  51  60  59  63  93 141 179 200 223 221 205 198 186 176 181 189 175 144 135 159 154 162 157 155 181 168 156 172 179 183 187 187 180 191 192 185 181 176 171 168 170 166 132  60  34 110 186 205 200 185 169 154 199  76   0  11  11  12  13
  21  13  13  16  23  32  26   3  16  47  37  28  23  18  37  53  59  65  73  79  98 109  92  49  21  49 116  81  50  47  45  50 103 126  77 105  91  79 122 168 191 210 213 199 193 188 189 202 214 200 184 173 161 158 164 174 172 171 174 171 186 188 188 191 194 188 191 194 187 181 179 173 171 169 170 154  90  61 129 214 220 203 199 184 159 204  75   0  14  13  17  19
  11  13  13  21  33  31  16  18  28  16  26  21  22  17  43  61  60  73  89  97  99  94  52  23  56 108 147 126  97 104 139 152 164 168 158 168 156  92 110 157 182 198 202 192 188 187 190 194 205 190 175 165 160 166 177 183 182 187 189 192 193 188 189 192 192 188 187 190 186 181 178 175 170 169 169 158 118  94  92 146 195 196 196 185 162 195  70   6  16  19  19  22
  28  27  17  23  29  26  40  40  17  22  27  15  27  28  46  60  63  81  88  87  91  81  47  72 116 136 130 123 150 166 194 187 184 190 198 190 146 100 109 153 176 190 201 192 186 186 192 189 188 187 185 182 183 187 195 201 201 202 200 191 192 193 194 197 192 189 185 185 183 181 178 175 170 170 167 160 132 105 110 130 164 188 198 183 166 189  68  14  17  25  24  28
  27  34  43  47  47  55  48  16  18  24  25  12  22  33  48  64  77  93 117 108 100  88  84 105 129 138 140 147 157 165 175 179 179 180 182 160 142 114 109 149 173 189 197 195 186 185 191 193 191 189 192 192 194 203 209 211 209 210 206 201 197 199 199 196 194 189 187 184 183 182 179 172 169 169 168 163 142 123 136 146 166 190 210 192 168 181  60  19  22  27  41  43
  26  34  41  40  36  32  16  11  27  27  23  15  19  32  52  71  86 108 138 139 126 124 129 132 139 141 149 159 158 162 166 176 187 191 178 156 151 119 112 145 175 184 192 189 187 186 187 191 190 193 198 197 198 200 201 201 205 210 208 205 199 196 199 196 196 188 185 186 183 181 176 171 170 170 168 161 145 136 171 179 176 199 213 195 178 175  58  24  27  30  45  42
  23  17  10   8  12  26  23  28  47  24  16  14  22  37  60  75  92 113 131 141 156 152 142 140 138 144 155 165 171 174 185 191 196 187 171 160 140 122 117 146 176 183 189 187 184 186 187 189 187 189 198 205 199 201 204 201 205 207 201 202 198 199 202 199 196 192 183 181 182 178 176 169 170 168 167 163 148 130 175 209 195 204 214 201 188 170  56  28  39  42  38  35
  18  14  23  36  37  33  15  38  58  26  16  24  21  37  66  79  99 114 132 147 158 157 156 152 151 154 162 170 178 179 184 189 191 175 177 154 134 122 121 149 175 186 191 190 187 187 189 189 188 187 190 211 209 200 196 194 190 195 195 192 192 197 203 204 197 188 180 180 185 180 174 170 168 168 167 162 144 120 179 217 206 203 222 203 193 155  45  27  51  57  41  31
  16  32  65  75  43  23  17  42  70  39  20  28  20  46  69  77  97 117 132 141 149 157 164 164 163 165 169 172 177 176 188 195 184 177 174 143 133 121 123 154 180 193 192 190 186 189 188 189 191 187 191 207 216 212 206 197 193 198 209 220 203 197 200 203 195 188 183 182 185 180 174 170 170 164 166 163 138 104 177 216 199 201 224 194 193 130  42  29  52  82  53  32
  17  31  55  54  26   9  15  47  44  41  21  35  22  49  68  76  96 117 129 137 141 154 163 163 168 172 178 179 180 183 194 190 177 180 164 133 130 119 124 159 187 194 193 190 186 185 187 190 192 189 190 200 209 215 213 210 207 205 207 216 213 204 200 199 194 187 187 184 183 182 174 170 167 163 168 168 141 103 171 201 191 207 212 183 203 100  28  33  47  82  57  36
  15  15  13  10   8   8  23  23  13  35  30  43  28  40  71  78  96 110 124 133 140 150 156 161 169 174 180 182 180 186 188 180 182 180 154 128 127 111 127 164 184 193 196 195 188 184 185 186 190 192 191 197 202 213 212 211 213 212 212 211 218 206 201 196 193 186 185 185 177 176 176 173 167 163 168 164 131 116 172 202 197 203 192 190 203  73  25  35  33  54  54  36
  18  16  14  13  14  16  30  24  10  30  35  43  37  34  65  83  94 107 122 134 141 148 150 161 167 172 175 181 184 187 181 179 186 178 148 133 119 103 125 167 183 194 200 198 190 185 181 178 183 192 196 202 206 205 208 210 219 224 223 217 217 210 200 197 191 185 183 177 173 175 175 173 167 161 165 144 120 108 192 224 206 179 190 209 181  45  27  35  32  38  39  29
  13  13  13  15  14  12  30  29  12  14  31  50  42  30  63  84  91 104 118 130 139 143 151 161 167 173 176 183 184 183 182 186 185 172 149 131 111  97 131 168 182 196 206 200 194 190 180 172 186 182 188 203 208 207 212 215 227 232 225 219 213 206 200 196 187 181 178 176 175 177 176 171 165 163 166 141 115 111 192 231 214 185 198 206 147  28  21  28  31  29  30  30
  11  13  16  16  15  17  27  34  14  15  25  45  42  33  60  83  89 100 115 123 131 138 148 159 169 171 179 183 182 188 185 187 180 168 156 124 105  94 138 166 182 194 212 208 194 190 184 180 181 181 177 195 206 207 207 211 219 229 223 217 216 205 201 193 186 180 181 176 174 178 176 171 164 167 167 139 116 114 182 189 171 184 195 198 126  28  28  26  27  24  24  22
  17  20  17  13  10  16  20   7  10  14  17  35  43  39  52  84  90  98 110 121 127 131 139 156 165 173 178 183 181 186 187 191 182 176 150 115 113 103 140 170 182 199 229 219 196 188 183 186 179 176 176 182 201 202 203 210 216 219 221 218 217 206 198 188 180 180 179 173 173 176 176 171 164 164 156 136 112 102  64  94 114 121 185 184  92  42  38  28  22  22  19  22
  19  22  15  15   8   3   9  10  11   8  24  45  45  39  48  80  91  97 109 118 120 125 132 145 157 172 174 179 185 184 187 189 192 191 148 114 129 115 137 169 184 202 233 232 201 189 189 189 179 180 177 176 196 195 194 205 211 213 216 213 210 205 195 184 180 179 173 175 174 176 176 171 166 158 139 131 100  34  42  82 108  85 117 126  44  35  21  28  25  17  19  23
  10  14  15  13   8   6   7  11  10  10  18  47  48  36  38  70  89  95 107 113 116 126 132 133 147 167 174 179 186 189 186 192 195 193 140 124 138 117 131 161 181 197 210 216 199 186 186 197 188 178 177 173 196 199 188 198 207 213 215 213 210 202 195 188 181 178 175 178 177 178 173 167 163 154 143 127  69  27  95  72  49  84  57  46  25  24  16  16  28  24  19  25
   8  13  12  10  13  11   8  11  21  14  16  44  48  34  37  66  85  91 105 116 114 125 128 132 144 161 172 180 189 191 184 188 202 185 123 124 130 122 124 147 171 187 196 197 186 180 172 130  95 130 163 164 199 209 194 194 202 207 211 212 207 201 195 187 183 181 178 180 181 176 173 166 162 156 141 120  68  40  66  54  20  44  28  13  21  19  14  12  23  26  19  25
  10  10  10  10  11  10   5   9  13  13  15  34  50  32  37  60  82  93 103 115 116 123 121 128 139 153 168 177 184 191 191 190 195 161 104 118  89  59  63 108 144 168 179 180 179 155  96  74  97 134 141 155 200 215 207 195 198 206 208 206 203 200 194 188 186 183 181 180 178 172 172 163 160 147 127 113  83  56  34  20  23  20  11  14  16  16  16  17  17  23  25  22
  14  10   8  10  10  12  11  10  10   8  10  17  51  45  39  53  75  92 101 112 117 121 113 120 132 146 163 178 186 189 193 199 191 150  79  87  87  39  15  45 104 139 162 170 151 112 157 201 209 176 150 181 198 207 215 204 198 203 208 207 205 200 197 190 184 184 184 180 178 169 161 162 160 149 118 101  94  60  18  15  13  20  14  11  14  19  17  20  21  16  16  18
  16   9   7  12   8  24  35  20  14  15  13   8  42  54  45  53  65  85  99 109 122 120 104 113 130 144 160 176 186 189 194 190 191 159 107  73  86  84  69  50  53  94 125 129 125 170 200 183 193 181 181 192 194 201 211 211 201 201 203 205 207 203 197 195 192 187 184 182 175 164 159 155 145 131 117  99  77  46  23  13  10  14  12   9  11  21  24  21  18  15  13  11
   7   8   7   8   6   6   7   8  18  26  20  13  33  53  45  54  58  76  90 103 119 122 111 111 125 143 159 171 181 185 193 195 196 164 143 131 115 101  91  70  51  44  69 100 164 191 154 147 143 173 186 182 190 197 204 208 211 203 198 201 207 204 197 197 197 190 182 182 176 171 152 157 133 108 111  87  62  37  21  14   6  13  10   9  10  11  21  29  19  17  17  13
  19   8   7   8   7   8   6   4   9  11  19  13  19  43  51  45  46  67  84 103 115 118 118 112 120 140 158 167 177 183 190 198 192 174 155 135 121 107  85  90 107 137 149 159 171 149 106  98  78 128 151 165 182 191 195 201 210 210 204 203 202 207 200 199 199 191 185 184 169 163 143 146 141 120 110  88  59  29  32  30   4  10  11   9  13  11  10  15  15  18  16  13
  52  35  15   9   7   8   8  12  17  16  15   8   8  37  41  39  43  58  77  96 111 117 119 110 120 136 154 167 175 182 189 193 185 175 167 132  98  71  66  86 112 170 169 168 135 104  89  79  78  90 100 127 156 167 176 190 200 211 210 203 203 208 208 203 199 193 188 181 172 151 133 132 141 117 105  80  56  24  54  28   3  10   9   9  11  24  17  18  13  18  20  18
  27  39  40  29  20  18  17  18  17  14  12   6   6  35  49  34  38  51  72  91 107 117 116 112 121 136 152 165 171 180 187 186 176 167 149 115  67  48  62  74 104 111 131 167 140 111  89  81  81  67  85 102 114 132 149 172 183 184 199 208 206 207 209 207 201 195 187 180 164 153 132 134 131 110  94  71  56  24  51  27   6  14  12   9   9  23  49  30  20  14  18  26
  10  11  16  22  23  22  21  14   8   9  14   6   3  11  46  39  31  44  70  88 102 110 107 114 119 132 155 165 169 178 178 172 162 138 110  74  52  56  71  82 107 169 160 163 156 156 174 140 100  86  98 106  94 109 123 147 148 153 154 176 203 208 209 208 203 191 185 173 152 135 123 126 122 113  82  72  46  22  50  29   8  14  15  11  15  13  34  44  25  19  16  30
  11  12  11   6  11  13  14  13  11  10  16   8   5   2  10  28  31  47  66  85  97 104 111 113 121 133 156 164 166 172 160 152 121 102  80  68  63  69  77 102 166 205 189 193 194 200 203 176 136 140 152 129 100 126 113 145 120 139 137 121 174 212 208 206 199 184 178 174 151 133 125 116 116  89  78  69  33  29  33  22   8   9  16  20  18  13  12  33  29  20  30  31
  11  12  12   7   5   7  11  14  11  12  13  16  11   9   5  11  25  36  53  78  92 105 102 105 120 129 147 163 164 152 135 111  96  83  78  82 102  89 103 143 167 168 179 196 187 165 166 167 173 176 169 152 142 142 119 157 132 121 123 115 124 198 214 206 193 186 165 157 131 121 123 111 114  84  78  57  31  38  20  13   9  12  12  18  20  18  21  20  21  35  39  19
  11  11  11   8   8  12  10  12  12  13  10   9   9  11   8   8  16  35  50  71  82  86  85 105 114 129 143 159 146 111 100  88  83  84  91  94 138 120 129 152 152 156 154 162 164 147 150 151 155 155 147 142 153 155 130 165 154 111 112 111 103 155 217 213 194 169 165 149 120 115 111 108  94  73  66  54  43  26  17  15  10  10  24  29  18  17  23  24  28  34  20  13
  12   9  11  11   7   9  11  14  16  14  11   9   3   4   3   7  15  30  40  60  67  66  79 104 113 131 143 146 114  89  77  89  75  88 100 113 124 123 118 117 118 122 118 122 136 128 110 113 119 111 114 114 104 108 129 153 155 130 127 110  84 112 188 200 179 170 158 143 112 100  97  93  85  77  68  59  47  16  21  18  22  31  37  22  19  16  14  19  24  25  12  12
  11  10  11  10   6   9  12   8  15  17  15  14  18   8   7   8   7  22  33  48  61  68  77  87 100 121 136 120  89  68  87  92  82  93 120 121  86  75  81  82  87 104 117 132 133 144 154 160 159 167 167 168 155 130 124 132 144 158 148 149 109  78 157 194 177 167 157 137  97  81  88  85  67  72  68  66  29  15  20  22  20  30  22  16  16  15  14  14  17  19  15  27
   8   7   9   9   8  10   8   8  10   8  10   8  28  18   8  10  11  14  29  39  59  67  67  72  90 106 125 111  74  63  89 102 108 121  98  75  80 110 126 143 154 164 178 183 178 177 189 201 188 185 184 187 190 195 198 197 184 180 170 169 138  94 145 186 159 145 135 115  93  83  79  77  62  59  69  63  22  15  30  23  19  28  15   8  13  17  21  19  15  17  19  35
   7   7   6   8   8   5   5  11   6   4  10   5   7  13  12  15  10  13  25  27  48  61  62  62  78 107 118 100  73  68 112 123 150 157 142 133 137 140 141 152 162 167 182 186 179 184 199 198 195 199 202 200 198 198 196 204 214 216 201 174 146 102 148 194 158 114  93  86  78  87  73  63  60  55  73  47  18  15  21  16  16  14  20  17  13  14  19  16  13  17  29  33
   5   6   7  12  12  10   7   7   4   4   7   7   5   9  18  13  14   9  17  32  43  52  56  61  74  89 103 100  64  98 138 160 182 180 162 154 156 155 158 168 178 177 184 193 195 191 198 200 202 203 202 198 197 200 202 209 214 212 210 204 180 127 125 184 162 105  79  89  74  77  63  61  56  62  89  44  14  21  21  23  22  18  21  20  11  11  19  17  13  18  22  25
   4   5   7   9   9  14   9   8   6   6  13  15  16  18  24  19  14  17  13  32  44  41  50  53  65  67  87  93  82 120 142 179 183 169 159 153 164 158 153 164 178 173 171 171 171 168 171 185 188 193 198 198 203 209 214 214 209 204 200 206 210 158 109 144 142  83  69  86  73  75  63  53  53  67  89  35  14  25  28  27  27  24  23  19  17  22  23  17  15  17  19  21
   5   4   8  10   8  11  11  12   9   8   9  19  23  39  27  19  11  21  12  22  39  36  42  50  57  59  75  76  99 130 157 178 179 170 162 157 162 157 143 143 157 156 154 147 148 147 151 163 168 179 197 204 213 214 215 211 206 202 202 206 207 186 144 118 111  75  68  56  59  65  55  49  48  85 104  25  15  27  28  29  23  23  25  20  28  32  24  25  23  14  13  15
   5   4   6   7   7   8  12  12  11   8  12  15  27  30  12  14   6  12  15  14  28  28  38  46  48  54  58  65 104 132 156 168 168 172 173 168 170 168 152 134 141 149 148 136 133 132 149 171 178 184 205 215 214 213 210 207 203 199 198 197 180 164 133 118 102  67  61  48  46  56  41  49  66 118 112  16  21  47  38  35  27  21  24  27  42  25  13  18  21  17  17  16
   7   5   6   5   5   7  10  10  11  13  11  11  23  12  10  10   7   7  10  10  28  28  28  41  40  41  46  62  95 124 148 164 163 172 176 175 174 178 177 171 161 157 149 156 144 151 173 180 194 209 213 215 212 211 210 205 204 205 189 186 156 135 131 116  83  57  60  49  51  47  41  49  83 147  92  12  27  58  70  28  32  24  23  19  29  22  13  13  17  20  23  21
   9   7   5   5   6   4   6  11  12  17  11  16  17   8  17   9   9   7   6   6  17  26  26  35  35  37  37  53  79 104 134 152 165 172 177 175 177 180 182 187 184 169 178 192 189 171 196 201 205 216 218 216 213 213 215 209 201 206 176 152 145 113 115  97  66  57  48  37  42  44  36  60 105 143 147 106  27  33  71  52  33  30  21  16  10  14  15  15  23  25  22  22
   9   9   4   5   4   4   6   9  12  17  11  21  17  11  16  11   9   7   6   6   8  24  29  28  32  30  37  47  47  73 101 121 148 165 178 176 180 183 184 190 194 194 200 199 196 193 189 217 215 219 223 223 220 217 216 212 205 194 163 119 115 102  83  70  53  47  38  35  30  35  44  99 152 151 241 199  38  38  41  67  54  37  35  25  13  14  15  16  26  27  23  20
   9   9   7   5   5   4   7   8  14  17  14  22  19  16  12  10   8   7   6   6   4  13  30  29  26  28  36  37  38  54  84 117 131 163 176 185 186 185 189 190 193 191 194 187 189 198 196 211 218 219 224 227 221 219 208 208 198 182 145 109  99  80  61  61  53  34  31  34  35  46  82 131 172 228 247 248 123  38  38  35  41  31  27  20  14  15  15  20  25  27  26  26
  11   8   6   6   7   6   7   7  11  15  15  26  19  14  16  10   7   8   7   4   5   5  25  29  26  27  33  38  38  51  67  94 124 149 164 181 186 182 186 189 185 178 180 174 181 187 205 195 212 219 213 215 218 208 188 199 184 168 127  96  87  60  40  41  35  29  30  38  45  59 132 158 226 255 245 254 233 110  46  41  43  40  21  16  14  15  20  24  30  29  26  25
   9   7   6   7   7   8   7   6   7  10  13  22  20  11  13  10   9   9   8   5   3   5   8  20  27  27  24  35  35  42  52  71  89 110 139 151 173 172 172 179 175 165 156 134 185 163 173 192 193 188 182 180 197 196 148 163 147 126 110  78  58  49  37  33  26  29  31  42  44 109 158 217 255 255 254 249 254 225 131  64  47  41  32  22  20  23  28  28  30  30  28  26
   8   7   7   7   7   7   5   4   6   5   9  15  26  15   8   7   7   9   8   5   7  11   5  13  25  30  26  24  36  34  35  51  68  86 101 119 133 141 141 148 148 148 119 123 188 144 142 165 140 152 151 151 153 155 136 133 120 101  80  55  39  32  35  29  38  27  38  35  86 151 217 255 255 255 255 255 252 249 229 188 142  58  23  23  27  30  30  29  30  29  28  28
  10   7   6   7   6   5   4   3   3   8   6   9  25  21  11   7   7   8   8   7   9   8   7   6  15  21  29  23  36  22  29  36  58  68  83  90  79 103 117 114 116 119 113 120 150 166 108 127 117 121 115 116 111 105 109  98  91  88  61  36  41  26  30  33  37  31  34  74 128 192 255 255 255 255 255 255 255 254 252 255 229  66  25  30  32  30  30  30  30  29  29  28
   9   9   6   7   6   4   4   3   3   6   6   5  14  28  21  18  13  12  11   9   7   6   6   5   6  13  17  21  34  31  19  22  32  48  60  60  62  79  85  85 104  87  93 114 138 128  97  93 120  89  85  88  87  70  74  70  57  67  49  39  26  36  26  31  29  31  51 113 191 254 255 255 255 255 255 255 255 255 255 255 150  20  31  31  32  31  31  30  30  30  30  29
  10   9   7   6   5   4   6   3   3   3   4   9   6  14  28  25  20  16  12   9   4   4   3   7   7   8  16  24  19  30  29  25  33  38  39  57  70  57  55  64  74  71  85 116 109  79  86  80  88  79  67  63  87  63  58  52  55  54  33  31  24  31  35  37  41  50 106 189 255 255 255 255 255 255 255 255 255 255 255 222  43  25  33  33  32  32  31  30  28  30  30  28
   8   9   8   6   5   5   5   4   5   3   4   7   8   5   9  15  13  11   9   8   6   6   3  14   6   4  13  19  20  23  29  33  35  29  32  45  50  40  45  51  63  65  80  83  83  82  87  64  47  65  56  67  60  43  45  40  50  50  46  30  24  33  39  47  59 104 198 255 255 255 254 255 255 255 255 255 255 255 255 102  17  33  33  33  32  32  31  31  30  31  30  29
   8   8   9   8   6   6   5   5   5   5   4   7   7   6   3   4   7   7   6   7   6   5   4   6   5   4   3  12  20  17  21  31  49  17  27  29  36  39  37  57  54  53  58  56  68  79  77  57  33  56  58  46  39  29  30  32  37  43  42  36  26  37  47  69  91 187 255 255 255 255 255 255 255 255 255 255 255 255 184  23  32  34  33  33  33  32  32  32  31  30  29  30
   8   8   8   9   7   5   3   4   4   4   5   7   7   5   3   4   4   4   4   4   4   4   3   3   4   4   3   8   8  11  17  29  44  20  31  31  32  34  31  50  50  38  43  45  49  54  48  42  32  37  38  30  43  32  26  33  37  45  38  33  38  44  47  89 189 255 255 255 255 255 255 255 255 255 255 255 255 247  66  24  34  35  34  34  33  33  32  32  32  31  31  30
   9   8   7   8   8   7   5   4   3   3   4   8   8   5   3   3   3   4   4   5   7   8   6   3   3   3   4   4   2   6  15  26  45  22  32  28  19  30  30  33  49  52  49  35  47  46  47  45  38  36  35  38  29  28  37  42  52  48  50  38  45  52  74 188 255 255 255 255 255 255 255 255 255 255 255 255 255 151  18  34  34  35  35  34  33  32  33  32  33  33  32  32
  11   8   7   8   9   9   6   2   3   3   6   8   7   4   3   2   4   3   3   4   5   9  10   6   4   3   3   2   3   2  12  32  34  33  30  16  18  23  29  36  33  45  42  36  38  54  55  51  54  36  35  34  23  20  42  49  45  41  59  47  53  85 191 255 255 254 255 255 255 255 255 255 255 255 255 255 229  45  29  35  34  34  36  34  33  32  33  33  34  35  33  33
  12   9   8   7   7   8   7   4   2   3   5   7   7   4   3   3   3   3   2   4   3   2   4   5   4   3   2   2   2   2   9  40  39  38  24  20  17  23  23  31  38  37  36  37  31  27  47  31  26  30  21  27  31  30  44  43  39  43  50  66  95 203 255 255 255 255 255 255 255 255 255 255 255 254 255 255 116  20  35  35  37  34  33  33  35  35  34  35  36  35  34  33
  14  11   7   7   7   6   7   5   3   3   5   7   5   4   3   3   2   4   3   4   5   3   2   3   2   3   3   3   2   0  20  44  44  37  27  24  26  25  15  22  30  33  39  32  34  28  26  33  31  24  30  40  46  51  47  43  44  47  51 111 220 255 255 254 255 255 255 255 255 255 255 255 255 255 255 207  30  32  34  35  35  34  35  33  34  34  35  35  35  35  35  33
  13  13   8   7   7   7   7   6   3   2   5   7   5   4   2   3   2   3   3   4   4   2   2   2   3   3   2   3   2   1  30  39  43  44  41  33  32  33  26  28  26  34  41  36  35  43  39  40  44  43  56  50  50  48  42  45  52  59 132 238 254 255 255 255 255 254 255 255 255 255 255 255 255 254 255  90  24  36  35  33  35  34  34  34  35  36  36  36  34  34  33  33
  13  13  11   8   7   8   6   7   4   2   3   9   7   4   2   2   3   3   3   4   4   3   2   2   2   3   3   2   2   1  37  36  42  49  47  45  41  38  35  37  31  29  36  38  36  38  50  48  43  49  49  49  43  43  55  75  94 157 247 254 255 255 255 255 254 255 255 255 254 255 255 255 255 254 180  22  34  35  34  35  35  35  34  35  35  35  35  35  34  35  35  35
  14  13  12  11   9   8   6   6   6   4   4   6   8   5   4   3   3   4   4   4   4   4   3   2   2   2   2   1   2   1  43  37  37  50  49  47  44  46  49  49  43  39  46  46  47  46  45  50  54  48  51  43  52  77 106 125 195 255 255 255 255 255 255 255 255 255 255 255 255 255 255 255 255 239  64  27  36  35  35  36  36  34  33  34  36  36  35  35  35  36  36  35
