P2
# Generated by OpenCV 4.2.0
92 112
255
 196 194 195 195 192 194 195 197 198 199 197 195 198 198 197 195 192 196 195 193 191 186 182 184 181 179 177 178 177 177 192 195 182 175 179 184 181 207 187  92  66  86  96  49  15  31  27 120 205 163 156 159 180 192 183 179 181 181 180 182 177 171 174 178 182 190 192 196 199 200 200 200 201 202 202 196 188 191 193 197 199 202 204 202 205 203 201 201 201 200 202 199
 195 194 196 195 195 196 197 197 198 198 197 195 196 197 195 195 195 195 195 195 190 186 182 179 181 182 180 178 172 173 129 121 148 140 147 179 190 127  88  77 105  80  99  91  94  81  41  33  56 132 180 180 162 155 158 183 184 179 181 178 173 175 177 179 182 189 194 197 200 200 200 200 201 201 200 196 190 192 193 197 200 203 205 205 204 203 204 202 201 201 201 200
 195 195 197 195 196 197 196 196 198 197 194 195 198 199 197 194 196 196 195 195 192 188 185 172 158 153 148 146 161 145  48  97 147 141 124 116  66  31  48  54  50  68  91  64  69  82 119 116  36  25  56 101 111 111 118 150 162 178 187 187 186 177 174 176 184 191 194 197 200 201 200 200 201 202 200 195 190 193 195 198 202 204 206 205 204 203 203 201 201 202 201 199
 197 197 197 196 197 198 195 196 199 197 195 195 198 199 198 196 197 198 197 197 179 153  97  86  88  73  64  55  41  32  30  51  63  48  37  33  30  34  28  31  32  32  25  27  26  32  49  80  79  57  63  24  19  29  34  31  34 133 125 105 122 175 179 178 181 193 197 197 198 199 201 201 200 201 199 195 191 193 196 200 201 205 205 205 205 203 203 202 202 201 202 200
 197 196 196 198 197 197 197 197 199 199 199 198 196 198 198 196 196 197 187 168 154 107 104 104  65  68  43   6  11  11   5  26  16  12  16  24  29  20  24  24  18  24  28  36  30  20  24  28  35  47  70  42  30  30  16  11  38  37  42  50  38  93 184 177 179 191 196 198 200 201 201 202 201 202 202 194 190 193 196 200 203 206 205 204 204 203 203 202 203 202 202 200
 199 197 197 196 196 194 195 196 196 197 195 195 197 199 199 195 192 179 180 182 124  68  54  34  29  31  17  17  14  12   6  14  28  25  24  30  30  31  32  27  26  22  31  38  39  34  20  28  33  24  29  35  30  24  15  18  22  15  19  14  37  28 104 166 184 194 195 196 200 202 202 201 203 202 199 192 190 193 198 199 201 205 205 204 204 205 203 202 202 204 202 200
 198 198 199 197 198 199 199 197 197 196 198 195 196 196 199 198 183 175 166 105  48  44  47  55  52  34  14  19  19  24  32  13  16  20  22  27  34  30  32  31  36  38  36  33  36  41  39  27  31  29  18  27  34  14  13  23  19  11  17  12  42  27  27  96 191 194 195 200 201 200 200 201 200 200 199 193 192 194 197 198 201 205 204 205 205 205 203 202 202 202 200 200
 199 199 199 199 198 199 199 198 197 200 198 196 200 199 198 195 172 174  96  84  51  96  59  45  39  38  15  25  23  27  22  20  13  11  18  28  32  30  25  31  30  36  41  38  38  33  30  40  27  28  26  20  29  28  16  23  25  19  16   7  29  30  65  46 117 207 197 193 200 194 199 203 199 200 201 195 193 196 198 202 203 204 206 207 206 204 203 202 203 204 203 200
 198 198 198 198 197 199 198 196 199 200 197 193 198 199 200 162 132  89  45  57  35  27  30  37  32  45  22  30  36  27  30  20  17  26  37  47  36  30  29  28  35  40  34  29  20  25  46  38  36  26  25  30  22  25  26  20  27  33  26  12  13  30  32  26  35 129 165 185 188 190 200 199 201 203 199 194 193 195 197 201 203 205 206 205 205 205 203 202 202 204 202 199
 197 197 200 199 199 198 198 193 197 201 200 194 197 204 177 110  60  54  44  32  25  36  30  26  26  31  38  27  41  35  27  28  31  37  37  30  33  25  28  27  47  52  35  31  29  13  26  49  38  38  31  19  27  22  21  18  21  29  27  31  18  34  32  23  26  29  30 151 194 194 199 200 200 202 197 194 193 195 198 201 203 205 205 203 203 204 202 203 203 202 202 199
 199 198 200 201 199 198 199 195 196 203 198 190 195 197 131  47  89  79  21  35  54  54  71  39  29  25  40  33  30  35  31  30  27  20  29  33  33  32  38  48  44  42  39  42  56  44  15  26  39  39  44  21  15  21  24  19   9  15  27  33  33  43  26  29  20  23  17  83 151 195 205 197 202 202 200 195 194 194 199 201 204 207 206 206 205 204 204 204 204 204 203 200
 198 201 200 200 199 202 207 197 197 197 195 192 192 166  82  61  84  31  35  40  36  43  51  33  37  32  32  32  26  29  27  23  21  25  17  18  19  21  40  53  53  45  36  46  42  45  43  25  37  42  53  33  16  14  15  22  16  18  19  22  27  30  21  33  68  34  14  21  26  72 190 218 202 198 199 195 195 195 201 202 204 206 206 207 206 205 204 204 203 204 203 200
 198 197 198 197 209 191 143 147 171 167 192 191 191 154  49  78  39  19  23  27  21  30  35  37  32  37  36  32  32  34  22  14  17  11  10   5  15  31  31  25  28  22  15  26  33  19  29  44  36  37  54  46  18  12  12  22  19  10  17  18  22  21  30  42  35  26  22  16  24   9  53 123 189 215 200 193 193 196 200 203 204 205 205 205 205 204 204 204 203 203 204 200
 197 196 203 199 168  47  44 112 120 137 194 182 138 116  34  26  42  42  36  39  27  17  28  32  30  31  35  34  31  24  19  25  37  36  33  37  48  46  31  24  36  36  34  27  31  33   8  34  49  27  38  59  19  19  23  18  12   5  15  18  21  23  26  27  17  24  19  17  15  12  21  25  52 186 206 193 194 197 202 204 206 206 206 206 205 204 205 204 203 202 202 199
 195 193 189 180  68  50 163 210 175 142 160 135 146 119  39  42  51  35  33  23  25  22  27  40  33  25  26  32  30  33  36  40  35  29  38  46  44  31  32  24  20  30  11  16  30  32  19   9  41  31  21  55  35  27  30  14   9  14  16  17  26  25  20  17  14  22  15  18  15  16  19   8  35  73 203 201 194 199 201 204 206 206 206 206 206 204 204 203 204 204 203 200
 194 181 171 166  55 147 158 152 127  96 129 139 142  87  39  33  26  17  22  14   7   9  14  20  36  29  23  33  30  26  29  26  23  20  27  31  36  44  35  38  30  31  39   5  19  32  32   7  18  37  14  45  49  43  24  15  10  22  19  17  29  22  18  19  15  25  17  15  17  18  12   6  31  52  79 174 203 198 202 204 205 205 207 206 205 205 203 205 203 204 203 199
 199 170 154 141  55 130  66  93 109  83  91  85  50  42  24  25  21  22  19   6   4   0   7  25  20  13   8  14  40  29  15  23  20  28  39  34  33  43  34  26  42  24  39  23   5  26  31  19  15  30  18  34  76  41  26  25  13  31  23  22  25  21  18  18  24  24  19  10  15  14  16  16  19  32  28  94 159 197 198 204 205 206 205 205 204 204 203 205 204 204 202 199
 196 139 183 132  24 115  70  49 112  85  55  55  39  21  37  27  12  19   3   0   5   1   6  32  35  20  16   7   9  45  28  11  12  15  11   8  13  34  37  16  34  35  26  34  13  17  36  28  22  31  15  28  82  33  34  35  15  30  19  24  25  19  21  29  29  28  17  15  16  19  15  10   9  20  22  97 141 162 203 204 205 206 205 206 205 205 205 203 204 205 203 200
 131 168 200 195  68  47  54  73  59  58  36  34  21  27  26  14  11   6  16   8  11  11   1  35  62  53  31  15  17  22  42   5  17   3  13  10   2  33  41  27  23  30  27  49  22   9  48  47  39  36  16  41  65  24  39  40  18  14  11  21  25  28  29  23  25  30  13  19  19  21   9  12   8  11  16  55 152  98 157 191 205 205 206 204 205 205 204 203 204 204 203 198
 101 143 159 177 105  28  39  74  54  47  39  26  26  24  12  15  11  10  32  25  35  27  18  34  69  68  60  29  15  30  44  42  33  22  33  17  13  49  59  33  23  38  35  58  22  32  60  44  42  40  23  48  47  28  32  37  23  10  11  24  33  37  36  21  31  32  26  22  24  24  12  16  14  14  19  12 133 154 134 165 194 205 204 206 205 204 203 204 205 203 203 198
 185 147 144 107  84  59  38  39  35  29  30  25  36  26   6  14  39  43  54  33  52  38  38  29  59  59  54  57  13  17  44  46  42  23   2   0  15  29  65  20  10  47  48  35  29  81  54  18  47  46  30  44  29  30  16  41  34  18  19  33  39  37  36  18  28  24  28  19  22  33  29  23  21  17  14  15  45 129 141 203 182 210 205 205 206 206 204 204 206 204 202 197
 192 211 166  93  78  56  52  28  38  24  31  31  48  11   0   8  49  54  65  37  53  43  48  43  30  31  39  38  39  27  28  24  21   4   0   9  11   9  35   6  13  62  42  15  55  68  28  13  56  48  42  41  21  16   8  47  55  27  31  34  42  30  23  27  17  10  15  17  21  40  42  26  11  19  11  14  16  40 114 208 184 201 206 205 205 205 205 205 205 204 201 197
  66 119 140 115 105  32  51  32  28  27  30  30  46   7   4   9  36  40  35  29  44  36  30  14  14  14  15   7   8  21  17  13   7   1   1  12  23  19  13  26  24  63  36  29  39  30  26  34  54  50  54  43  19   1   9  50  69  43  30  32  47  18  18  36  22  17  15  24  23  23  33  23  14  16  11  14  15  19 126 159 161 207 205 206 205 204 205 205 205 204 201 197
 130 111 126  64  40  38  36  37  29  41  19  33  37  27  27  22  35  31  16   7  20  22   9   6   1   3   5   3   0   1   1   9   3   1   5  13  43  27  17  43  55  63  53  35  27  33  37  48  34  54  49  31  34   6  24  48  65  48  31  42  46  24  22  42  31  19  23  22  21  10  26  20  14   8  11  11  14   2  53 133 176 202 205 205 204 204 205 204 205 203 201 199
 154 171 155  60  22  35  49  51  33  29  21  30  20  33  46  36  30  15  13   2   2   7   4   2   0   5   6   1   3   3   3  11   9   7  16  24  51  29  32  40  67  61  66  45  43  38  49  48  30  52  34  20  41  24  46  37  52  61  32  37  45  24  22  33  33  31  26  16  22  24  25  11  10  15  16  14   9   1   0  67 209 188 208 205 205 205 205 205 205 202 200 198
  96 153 167  87  39  23  24  27  28  19  29  28   2  28  47  46  32  18   7   2   2   2   2   5   8   6   6   3   2   8  11  17  23  22  29  28  37  42  42  50  76  69  63  75  55  62  62  51  45  53  40  33  27  58  73  30  36  63  26  32  45  28  16  32  30  21  12  26  33  22  17  16  12  17  16  11   4   6   5   0 161 194 204 203 205 204 203 203 203 203 200 196
 168  91 150 154  79  44  30  26  26  31  38  27  19  21  24  19   9  15   8   3   1   1   4  17  29  27  28  21  27  47  46  29  27  38  31  36  44  49  57  70  85 110  77  77  75  95  86  81  73  67  41  69  32  66  94  32  38  63  34  38  49  32  23  29  27  16  17  31  37  32  22  17  12  13   8   5   5   7  10   4  52 187 205 204 204 204 204 203 203 203 200 196
 220 157  74 101  59  28  24  33  36  42  17  20  24   8   3   5   3   3   5   6   3   8  19  46  46  32  31  23  48  55  51  41  46  52  45  40  48  73  76  81  88 136 115  88  92 111 115 102 106  92  58  88  66  73  87  42  43  68  53  46  69  45  30  36  23  26  27  29  28  24  18  14  15  11   9   1   4   3   3  11   0 126 221 202 205 204 205 206 205 203 199 196
 212 155  63  38  42  39  37  35  25  13  10  21   5  12  16   2   2   3   1  10  12  27  48  33  45  41  19  18  43  59  56  55  59  73  66  66  65  79 100  98  94 132 142 125 124 126 141 147 130 122 102 122 111  88  83  67  56  94  81  70  76  60  58  43  24  31  31  26  23  16  15  20  15  13  10   5   1   3  10   6  12  34 200 205 205 205 205 206 204 201 199 197
 215 104  46  54  63  40  23  15  14  15  31  36  16  11  14   3   4   9   8  14  26  29  23  40  32  37  20  29  45  77  71  74  77  73  79  53  50  58  82 102 112 141 156 170 179 174 170 179 171 159 146 157 134 114 115 104  89 114 108 114  85  74  60  50  47  33  39  36  26  24  23  22  20  16   6   5   0   2   6  15  24   1  98 217 205 206 205 203 202 204 199 194
 223  94  51 141  94  38   7  11   6  14  53  44  18   3   6   4   7  17  20  17  33  31  26  40  24   8  19  44  75 100 118 123 132 123 104  91  50  63  75  98 113 126 153 188 204 201 204 199 190 196 179 174 156 161 149 141 131 137 128 107 104  93  65  61  60  48  35  34  28  23  20  20  20  16  19  16   5   6   8  16  25  31  15 178 211 202 202 202 204 203 199 196
 205  76  73 133  63  35   9   1   0  25  40  27   8  13   1  12  11  26  20  37  40  38  39  21  15  35  62  91 107 133 165 187 190 176 138 143 117 100 101 109 116 128 161 202 213 212 210 206 200 201 203 198 187 182 170 162 156 151 135 126 119 120 103  75  71  46  26  24  25  22  19  17  13  11  19  17   6   6   9  12  14  26   5  98 217 203 204 203 201 202 200 196
 136 105 107  23  43  31  30  23  26  26  30   9  29  29   2  16  12  34  26  39  46  46  18  17  57  99 125 142 160 186 211 221 222 215 197 186 175 155 139 136 141 147 185 210 212 213 214 210 209 207 204 199 198 197 192 179 172 170 155 138 135 128 126  99  77  57  33  22  15  17  22  16   9  15  22   4   3   4  12   6   2  19  32  63 205 205 207 207 204 200 201 196
  97  96 131  83  32  28  21  12  22  21  11  13  36  25   8  20  18  34  29  34  46  41  35  86 119 141 167 190 207 218 222 223 226 226 221 210 207 197 172 150 169 188 200 216 214 215 215 213 211 207 204 203 199 197 197 184 175 175 164 157 158 141 139 138  97  69  46  33  25  21  18  22  27  26  10   5   4   7   7   1   7  13  20  34 191 207 207 206 204 200 198 196
  60  82 162  91  22  34  30  17   8  10   8   5   9  21  20  22  19  33  36  53  92  93 115 147 161 181 197 211 219 222 223 222 223 225 226 224 216 214 213 198 191 209 215 215 216 213 213 213 211 208 207 205 199 196 195 187 180 177 174 166 163 156 151 150 117  89  55  39  25  22  20  25  21  10  10   6   8   5   4   4  12  10   0   3 134 220 205 205 203 200 197 195
  81  54 135  88  24  29  50  28  17  24  22  10   8  15   7  28  29  37  47  87 154 172 175 187 197 205 211 217 218 220 223 223 223 223 226 226 224 224 222 219 210 213 219 216 213 213 213 211 210 208 205 204 200 198 194 187 183 177 177 173 171 163 166 157 137 125  84  52  35  22  15   8   3   4   9   5   4   6   4   6   4   7  13   2  24 184 211 204 202 200 198 194
 104  32  76  63  23  38  60  34  32  43  35   6  13  12   5  27  36  37  61 118 181 200 201 208 206 209 213 217 216 221 223 223 223 222 225 225 224 223 220 222 221 223 219 216 215 215 213 214 209 207 203 201 201 196 193 187 183 180 175 176 172 166 164 160 144 139 103  74  47  23  14   7   4   5  10  11  12   8   7   2   0   7  17   4   3 107 215 201 199 199 199 195
  50  36  47  38  22  41  44  32  35  36  18  20  13  12  15  20  36  45  83 158 202 205 208 210 210 207 213 217 217 220 223 224 223 222 225 224 223 222 223 222 222 223 220 219 215 215 216 211 210 208 208 204 199 194 191 185 179 179 177 173 173 171 160 159 152 140 119  86  56  23  18   7   2   7  11  14  11  11   7   3   2   4   6  13   7  25 177 215 206 203 199 197
  18  42  73  42  22  27  21  22  36  26  50  42   6   5  25  18  34  61 107 183 208 207 211 212 208 205 210 215 216 219 222 223 223 224 225 223 223 224 222 223 221 221 221 219 217 216 216 212 211 210 205 202 199 195 188 183 177 177 178 177 174 175 164 152 153 138 123  97  58  26   7  10   5   5   7   8   7  10   5   3   2   2  11  25  33   0 114 219 204 201 196 194
  11  73 122  51  18  19  13  10  28  38  63  25   8  11  33  40  51  81 132 189 207 208 209 209 210 207 209 211 213 217 219 219 221 222 223 222 223 221 219 219 220 221 219 218 215 213 214 213 206 207 206 199 198 192 189 180 175 179 180 176 177 176 167 154 156 139 112  92  52  27  10   4   8   9   6   2   0   2   3   4   3   3   6  19  30   6  69 210 205 201 198 194
  18  60 116  78  45  26  12   7  21  25  19  26  25  11  26  36  50  84 133 185 208 209 208 211 209 210 210 209 213 215 219 221 222 220 220 218 217 216 219 218 218 219 218 216 216 216 213 214 211 209 204 199 194 186 180 175 171 179 181 182 179 176 171 163 159 142 110  85  63  31  12   6   7   5   3   2   4   1   1   2   3   4   5  10   0  14  59 195 207 201 198 196
  29  21  73  70  31  20  11  15  15  10  16  32  22  20  25  33  46  86 141 187 206 209 207 211 209 209 211 209 211 215 218 219 222 221 221 221 220 219 219 221 220 220 219 217 217 216 215 214 214 207 202 199 194 187 180 176 175 179 184 186 184 179 172 166 159 144 115  87  63  41  13   5   8   0   0   2   3   1   1   2   4   1   4  14  23  17  29 185 209 200 198 196
  34  30  26  37  30  20  10  16  13   4  22  32  16  23  20  35  63 102 154 194 206 211 209 208 211 212 214 212 211 214 217 218 221 220 221 222 221 219 218 219 221 219 219 218 219 217 218 215 216 210 204 203 193 191 186 182 184 182 188 188 185 178 172 164 161 148 118  88  68  43  16  11   4   1   0   1   1   3   1   2   3   4   6  16  31  13  14 179 212 200 198 196
  30  36  27  24  24  13  11  18  15   7  25  18  17  25  23  31  66 115 161 192 208 209 209 207 211 213 212 212 213 213 214 216 220 222 222 221 221 219 218 218 218 219 218 216 210 216 219 216 214 210 204 199 195 194 191 183 185 183 186 187 184 181 173 164 159 147 125  87  55  48  37  17   3   1   1   1   0   1   2   2   2   2   3  15  20  18  25 173 211 200 197 196
  50  43  24  19  10  16  25  25  23   8  18  21  11  14  27  39  73 117 161 190 207 209 212 211 211 212 213 212 214 217 219 220 220 222 222 220 221 222 220 219 219 219 219 217 215 219 216 215 212 209 203 200 198 195 191 188 189 187 187 185 183 180 174 165 162 151 126  99  63  30  30  26   7   1  10   6   0   0   1   2   4   6   3  10  23  23  10 170 211 201 197 195
  46  34  26  20  27  26  23  32  31   5  13  19  12  24  28  26  61 110 154 186 206 208 212 210 212 214 214 213 216 217 217 218 220 219 219 219 220 219 217 217 218 217 219 219 220 216 215 216 213 208 204 201 197 194 190 186 187 188 183 181 182 180 172 163 158 154 137 113  81  44  18  13  14   6   6   3   0   0   1   2   2   6   8   9  12   3  38 182 209 200 197 194
  50  28  25  36  35  26  29  28  25  20  17  26   9  25  17  24  54  97 143 187 204 207 209 212 213 214 216 214 215 217 216 218 220 219 220 220 219 220 220 218 217 220 221 220 221 220 219 218 217 214 210 204 198 194 196 192 187 188 181 180 182 175 167 162 158 153 137 118  94  59  29   8   5   5   2   3   0   0   0   3   0   2  10   9  14   9  57 199 205 200 197 195
  28  39  36  43  41  30  21  15  10  40  21  37  13  26  15  28  52  97 146 188 201 207 209 213 212 215 214 215 215 217 219 221 221 223 221 223 221 222 222 219 218 220 221 221 221 221 219 218 216 215 212 205 199 200 194 193 189 185 183 180 180 172 167 161 155 147 135 127 109  77  45  22   9   2   3   2   0   0   0   1   1   1   9  24  18   3  64 211 200 199 196 196
  29  21  13   6   8   7  15  22   4  28  35  40  27  21  16  32  49  91 144 189 202 205 209 210 211 216 216 216 217 219 218 221 222 223 224 221 221 222 222 220 220 219 221 221 220 221 222 220 218 216 211 205 202 199 197 193 189 185 185 181 178 174 166 157 154 148 139 136 124 101  55  32  15   4   2   1   0   0   1   0   2   2   4  21  28   3  86 215 201 198 194 194
  41  30  21  22  21  25  24  16  17  13  26  19  23  18  21  42  50  93 151 189 202 207 211 212 214 214 216 216 217 219 219 220 220 222 222 221 220 221 222 219 219 221 221 220 221 221 219 219 215 216 210 206 201 198 195 192 191 189 190 187 181 174 167 160 153 147 144 138 133 110  72  44  22  11   1   3   1   0   0   0   0   2  13  25  19   2 103 218 198 197 195 195
  47  28  20  27  23  29  30   8  13  12   7   7   7  16  30  37  40  91 159 188 202 206 209 213 215 214 216 217 219 219 218 218 217 217 217 217 217 218 218 215 217 221 222 221 222 220 218 217 216 213 209 208 201 198 193 192 191 192 192 189 187 178 173 167 154 146 144 139 128 113  85  58  23  13   7   2   2   3   1   6   0   3  26  30  12   0 128 217 199 196 193 193
  83  55  28  23  19  26  35  14  12  16  14   2   6  13  29  27  34 103 171 192 201 205 212 216 217 214 216 217 216 216 216 217 215 215 216 217 215 218 217 215 218 217 220 218 217 220 216 216 215 212 208 203 201 199 194 191 188 189 188 186 179 179 172 166 155 141 137 137 123 107  88  69  23  15   9   1   2   9   1  15  21  15  19  13  15   3 158 212 201 198 195 194
  63 165  68   7  16  20  36  17  11   6  14   5   8  16  27  16  30 117 180 196 199 206 215 218 217 215 215 217 219 215 214 211 211 211 208 210 216 217 216 214 217 217 215 213 213 212 209 203 204 197 191 192 183 183 183 181 184 171 160 166 148 149 160 151 156 138 131 130 122 106  98  71  24  14   3   2   0  15  10   3  17   9   3  14   9  22 189 205 199 197 196 195
 112 155 123  17   8  22  35  18  11   3   9   3   8  20  24   9  34 133 185 198 201 210 217 216 214 216 215 214 207 208 191 169 182 199 195 208 208 214 214 211 212 214 213 213 210 205 192 187 176 167 172 160 125 137 137 136 119 127 122 108 123 121 122 112 119 127 125 127 121 108 104  80  27  12   2   5   5  14  12   0   0   2   2   4   1  54 209 199 199 197 195 195
 116 106  95  25  11  25  26  10  12   3   6   8   8  20  19   7  38 144 191 197 200 211 206 195 196 181 168 150 135 121 128 137 146 172 177 189 199 207 207 209 207 208 209 207 203 199 188 180 157 129 132 117 113 103  71  57  57  75  84  86  90  71  53  70  99 106 118 120 123 117 108  90  31  11   5   5   5   9  20  22   1   3   8   6   5  46 198 200 198 195 194 193
  83 128  47  13  24  20  23  15  12   5   7   5  12  16  18  12  49 152 191 199 196 173 151 153 145 110 102  95  81  71  69  94 121 146 155 159 186 194 202 206 203 200 198 198 194 196 187 170 139 116 108 104  86  65  53  46  42  45  49  59  56  45  53  59  59  79 104 119 124 122 116  99  38   9  12   9   3  31 109 139  93  13  20   7  30  81 154 207 197 195 194 193
 137 120  53  29  18  18  19  13  15   4  12   8  14   7   9  17  46 155 198 202 163 115 109 102 107 115  86  78  81  82  87  96 101 124 130 147 173 188 191 197 201 198 192 191 185 183 177 153 131 113 107 105  92  88  97 114 118 113 100  91  88  84  75  69  77  85 104 121 122 125 123 113  44  11   9  15  67 101 132 161 159  83  10  43  81 126 137 212 196 195 193 194
 228 160  41  35  17  22  28   8  17  15  14  15  16   8   4  23  46 157 196 193 146 111  97  95 104 129 134 133 146 152 153 148 143 141 139 142 162 174 182 188 194 193 185 173 172 167 161 141 122 114 108 100  91  97  99  83  76  75  80  85  98  99 100 103  99 102 116 124 121 126 128 123  58  17   1  55 157 149 138 110 100 114  18  94 124 121 113 211 195 194 193 194
 208 212 107  14  27  20  19  18  19  20  25  20  25  18   7  18  50 158 197 196 155 116 121 134 141 152 161 167 158 139 118 100 107 109 115 132 147 160 173 182 187 188 183 175 161 151 143 130 111  88  70  63  71  48  15  45  44   4  18  29  46  62  86 105 104 110 126 133 124 133 133 123  67  22   1  63 158 117  73  57  96 131  16  85 147  81 101 197 196 194 192 192
 204 203 193  35  23  29   6  18  30  31  24  54  63  52  37  26  47 159 199 197 185 156 149 155 153 139 118  76  40  19  31  63  25  63  83 100 109 134 162 181 193 200 201 185 159 139 121 101  79  68  83  88  83  89  26  41  35  11  42  84  30  39  70 104 113 121 137 134 133 136 134 129  89  29  14  57 112  85  94 101 125 133  22  39  61 121 159 173 194 190 193 193
 202 203 208  66  21  33  23  15  27  25  14  63  62  85 106  51  48 160 202 197 186 166 154 143 115  74  35  69  65  15  31  62  16  88 121 105 122 112 134 183 208 215 215 196 173 143 110  88  94 113 104  87 135 169  66  14  15  32  80 113  70  58  77 112 127 142 146 142 139 135 134 132 111  54  36  60 108 137 131 111 142 130  13  18  72 188 147 168 193 186 191 193
 207 207 217 112  17  25  33  31  24  14   3  56 105  74 111  59  56 174 203 197 193 174 150 131  80  39  58 124 120  76  27  20  58 138 152 101 123 155 138 182 215 220 217 207 186 145 120 118 150 158 118 127 123 132 128 121 125 120 115 120 118 109 123 143 147 157 158 150 143 139 134 136 125  72  60  73 141 157 151 125 161 111   3  17  92 163 132 174 194 190 185 193
 213 205 204 154  23  19  24  26  18  11   1  56 155 108 117  58  72 184 202 200 202 199 180 158 136 134 139 143 139 140 144 164 158 147 150 169 179 184 168 190 212 222 217 204 184 147 144 154 172 173 174 164 151 142 144 159 141 127 126 128 131 125 145 158 160 167 164 155 148 142 135 136 130  94  63  69 121 144 153 131 163  78   7  10  61 155  98 194 189 190 188 192
 210 206 202 155  53  23  18  27  26  13   7  29 157 127 139  62 100 195 200 203 206 209 205 202 201 185 168 169 174 168 167 170 175 168 172 183 200 193 192 202 214 221 216 201 184 154 157 167 165 169 173 167 155 151 154 151 140 131 135 130 137 146 156 164 165 164 164 156 146 144 136 136 130 109  68  89 118 138 162 140 163  53  20  21  27  91 136 198 189 188 188 190
 211 205 201 164  84  23  23  29  17  40  16  10 140 138 159  90 124 198 201 204 207 208 210 209 204 195 187 185 187 175 165 164 168 173 182 194 201 205 205 203 215 220 214 205 189 158 160 176 177 180 181 183 179 172 167 162 155 152 157 158 163 166 170 169 169 165 160 153 149 142 135 136 135 113  92 114 135 157 175 147 156  34  32  27  24 118 179 182 190 186 187 191
 212 207 210 173 108  38  27  29  12  27  19  13 118 165 164 114 140 200 199 203 206 209 210 210 210 207 199 195 195 189 182 184 190 200 200 203 211 211 205 206 214 219 211 201 188 158 160 178 183 192 196 187 188 191 190 185 178 181 181 177 175 176 178 178 173 165 159 153 148 140 134 137 131 111 101 149 161 175 183 148 149  12  13  24  21 132 184 174 184 185 186 191
 212 210 213 190 124  69  23  47  14  16  24  13  89 180 148 118 143 201 199 204 207 208 208 213 215 214 211 208 207 207 206 206 204 209 211 217 217 206 204 209 216 220 210 201 186 162 159 177 182 184 201 199 196 200 195 188 189 191 182 182 182 183 183 182 174 165 158 154 146 139 136 133 127 113  98 163 178 194 186 153 134   0  15  24  27 101 186 181 182 187 188 191
 212 207 206 211 140 117  15  51  24  14  23  17  47 164 141 114 139 205 201 204 205 205 207 211 214 216 216 212 209 208 209 210 214 217 218 217 216 209 208 209 219 222 211 199 187 168 163 172 176 179 193 202 201 200 201 197 198 198 196 196 192 188 185 183 174 165 157 153 144 137 133 132 127 107  99 158 179 197 175 163  99   0  17  27  28  62 179 185 186 179 185 188
 213 208 204 217 164  99  70   9  29  27   6  30  25 138 146 129 134 199 198 203 205 206 204 206 211 215 216 217 216 217 216 215 215 217 217 217 213 213 213 213 218 219 212 202 188 173 167 174 179 176 183 199 203 201 201 201 201 202 200 196 190 184 187 180 168 161 159 153 142 138 130 125 127 102  91 140 164 187 151 170  64  23  16  13  14  52 168 183 185 183 184 185
 211 211 206 205 194 108 138  73  31  31  36  35   7 117 158 153 131 189 197 199 205 207 207 207 209 211 211 212 219 218 218 218 218 217 214 213 211 214 214 214 218 218 209 202 189 173 163 171 176 175 184 197 197 202 205 204 202 204 201 193 185 180 183 173 165 162 160 151 142 137 125 123 120 100  90 162 161 146 149 163  33  55  17   9  22  56 157 185 182 182 183 189
 212 212 207 200 209 159 121 127  48  45  54  36  22  87 142 156 135 182 198 197 202 204 208 208 209 210 210 211 215 218 220 218 218 216 214 215 212 211 209 214 221 221 211 204 193 177 161 161 164 171 182 193 200 204 206 205 201 200 197 194 182 177 174 168 164 161 154 146 142 133 121 121 110  77 117 187 143 127 187 122   1  34  28  18  38  58 166 187 183 182 184 187
 213 213 210 206 205 189 120  48  50  37  25  32  30  43 140 160 142 171 197 196 197 200 203 204 205 210 211 213 214 214 216 216 215 213 212 210 204 204 208 213 222 223 213 202 195 178 156 149 153 163 177 192 200 203 203 207 204 200 197 192 184 174 170 165 159 154 151 144 140 130 121 116  86  76 118 174 127 155 191  73   6  24  27   8  26  73 178 185 182 181 183 188
 211 209 207 205 206 199  69  57  59  22  26  33  15  18 140 165 151 153 197 194 196 200 200 199 205 208 210 212 216 217 218 218 215 214 210 207 201 204 208 214 223 222 216 201 192 181 161 151 162 151 167 193 199 203 207 211 206 203 193 189 178 175 167 162 156 151 146 145 137 126 117 117  87  70 116 160 146 159 156  32  12  24  14   5  43  92 186 183 181 182 185 187
 212 211 203 191 198 175  56  79  29  16  28  34   3   0 111 195 148 131 193 193 193 198 196 199 204 206 209 213 214 217 216 214 216 216 210 201 207 215 210 213 224 225 217 200 190 180 162 167 179 163 152 181 196 199 205 205 200 198 196 189 178 172 165 157 153 147 140 141 133 123 121 114  97  76 126 167 163 170 111  12  17  28  10  15  34 102 193 183 182 182 184 186
 212 213 212 201 185 145  49  58  45  11   6  16   3   0  72 207 152 124 180 194 194 196 197 199 202 206 210 214 214 214 216 216 215 209 205 203 215 217 212 213 218 222 222 201 187 178 162 164 175 169 151 172 189 197 204 203 201 199 197 187 178 171 159 150 148 139 139 138 130 123 117 101  93  78 130 164 164 172  81   4  17  23  14  35  56 126 191 182 181 180 183 185
 213 212 210 209 210 186  51  37  37   6  11  12   1   0  26 185 186 129 165 187 195 198 196 197 202 207 209 213 213 215 214 213 212 209 202 208 212 214 208 207 208 214 219 205 189 170 159 158 159 160 150 163 188 189 197 200 199 198 194 186 178 167 158 151 144 139 139 137 127 122 114 102  92  69 131 163 164 154  36  10  22  19  26  74  92 143 192 183 181 182 185 186
 213 213 209 209 202 167 108  28  37  13   4   6   1   1   0 150 210 132 142 178 193 197 198 196 201 206 209 212 213 213 214 212 209 207 202 205 201 204 205 202 205 205 206 198 175 152 145 145 130 129 131 160 190 189 194 196 197 195 188 182 172 163 154 149 145 144 138 135 125 121 108 104  92  69 100 141 147  77   9  11  20  18  41  97  89 175 187 182 180 182 186 187
 213 213 211 208 208 186 175 100  11  21  10   2   1   5   0 117 198 151 127 162 186 197 199 198 200 205 209 211 212 213 212 211 209 202 205 199 164 141 141 179 188 196 191 174 146 122  88  69  91 120 112 164 193 192 194 194 195 191 185 176 168 163 155 151 146 146 140 133 122 116 110 102  84  47  17  51  39   7  10   9  15  25  36  74 122 198 182 180 179 181 185 187
 213 213 209 209 205 204 190 185 104  42  11   9   2   4   9  64 213 170 117 155 179 195 200 202 202 204 208 209 212 212 213 211 208 205 214 210 157 117  94 111 163 170 164 154 122  66  68  93 105 100 121 174 191 196 192 190 192 192 187 177 172 163 156 151 144 143 141 130 123 116 104  90  74  33   1  10  10   9  17  11  16  55  49  57 185 185 182 181 180 181 185 187
 213 212 209 209 208 202 202 176 156  58   8  11   8  11  18  11 129 166 108 147 170 192 198 200 200 206 207 207 210 210 211 208 208 212 218 217 198 167 171 153 137 142 139 125  69  85 125 130 126 139 167 177 190 194 194 194 190 186 183 178 172 161 159 154 147 146 136 128 115 113  96  75  53  24   9   6   4   9  21  23  36  38  26  99 181 182 182 180 180 180 184 187
 214 213 211 208 206 205 202 188  46  36  23  22  16  18  20   7  20  51  77 143 169 186 196 199 204 206 207 207 210 211 209 209 210 216 216 212 213 209 198 186 168 135 113  96 109 138 121 116 146 160 160 177 186 190 195 194 190 188 182 177 169 163 163 156 146 145 129 117 113 113  88  66  38  23   8   7   9  14  14  17  28  25  19  80 184 181 181 180 179 183 185 188
 214 214 212 210 203 199 211 124  48  77  36  36  36  28  24  25  31  26  45 141 175 176 197 200 202 203 206 209 210 211 212 211 214 218 218 213 209 202 172 159 161 154 117 118 140 131  88  83 120 132 146 171 188 190 192 195 191 186 182 178 169 166 163 154 150 141 123 106 109 104  86  70  39  11   8   8  12  13  20  13  24  18  26  53 156 180 183 178 178 183 186 188
 214 214 211 209 209 201 201 118  35  38  49 105 161  43  25  19  16  32  33  97 170 174 188 196 201 203 209 210 211 212 214 214 216 217 218 214 197 157 129 130 137 134 119 135 134 128 100  90  92 103 122 143 171 184 182 189 190 187 181 180 176 169 162 149 143 136 113 105 102  99  73  64  37   9   4   8   9  13  36   9  20  20  11  19 118 110 185 180 180 184 187 189
 214 213 212 210 209 208 210 141   6  18  78 179 170  71  11  30   2   2  18  78 157 172 182 192 201 205 209 209 211 213 215 214 212 210 204 197 165 136 126 127 145 105 121 158 148 135 124  89  96  87  94 127 148 161 163 164 174 182 180 178 172 172 158 146 143 114 103 106 102  93  76  55  26   5   1   4   9   6  14  10   6  14   1  20 120 144 187 181 179 182 186 189
 214 214 213 211 210 206 205 185  39  16  48 130  98  39   9  21  18  20  16  40 131 172 169 180 188 205 207 208 210 212 205 195 194 187 173 160 143 142 155 163 178 163 169 179 180 181 162 135 124 104 100 115 132 143 154 138 153 166 177 177 173 170 155 147 137 115  83  90  96  82  66  43  20   0   1   2   7   7  13  17   5   0  29  59 104 189 181 181 180 184 189 190
 215 214 212 211 209 208 203 216 102  13  45  68  79  27  23  37  21  17  20  17  89 163 165 172 175 203 206 207 209 201 193 187 174 159 158 148 166 175 193 195 192 200 204 206 202 188 155 154 148 134 131 127 127 133 141 139 132 132 161 177 175 169 153 130 122 104  89  85  77  69  49  40  15   0   8   4   3   6   4   7  16   9  32 124 142 180 181 182 183 186 189 190
 214 213 213 212 209 208 204 206 179  66  18  31  39  25  68  47  19  17  28  29  52 137 163 168 157 192 202 207 206 203 190 163 145 157 164 172 191 190 170 167 172 174 188 187 149 132 140 144 137 133 137 134 128 127 120 119 129 134 141 165 172 167 147 127  99  88  85  71  69  63  37  37  18   7  10   2   4  24  12   7  10   4  50 162 145 179 183 181 183 185 187 190
 214 214 214 210 210 206 205 203 191 185  75  83 120  72  43  29  22   7  20  24  28 111 162 139 131 170 193 203 199 185 164 153 163 154 172 184 162 138 145 158 161 154 154 152 121 116 125 118 106  96  86 102 117 111 121 120 139 129 123 136 169 163 135 130 103  86  81  65  62  50  41  39  10   7   9   3   4   7  15  22  17  47 139 137 157 186 182 182 181 185 187 192
 215 216 214 213 211 207 205 204 197 186 194 121 107  75  13  17  13  11  12  11  30  66 143 140 134 163 193 200 196 167 149 160 157 141 149 138  95  92  96  92 110 109 110 112 101  96 108 107 102  99  90  76  67  80 100 127 138 151 130 119 155 153 133 116  92  72  77  65  48  34  40  31   3   9   6  25  31   8  10   7  28 129 177 149 178 186 181 180 182 186 187 194
 216 216 213 213 213 210 206 204 202 197 181 158 161 126  21  19  19  23  11  33  46  29 110 137 143 143 184 200 203 170 153 168 144 130 102  88 100 148 168 175 183 180 176 162 159 181 185 180 168 156 154 135 124 136 138 146 137 140 145 132 152 142 126 103  80  62  60  51  39  34  43  32   9  14  18  29   6  15  29  37  22  67 162 175 187 183 180 179 182 187 187 194
 216 215 213 214 213 210 207 205 202 204 191 175 177 152  35  34  36  29  17  29  12  11  60 122 131 132 159 194 202 176 170 164 165 175 178 186 191 193 188 196 200 205 205 199 196 202 201 181 165 160 155 151 159 170 183 186 175 153 139 143 149 133 104  98  73  56  48  36  39  38  43  40  12  17  11   1   7  10  21  49  43  29 123 195 185 183 183 180 182 186 188 195
 216 215 215 213 211 210 208 204 204 204 186 191 193 143  31  47  38  28  25  20   5  16  32  88 122 138 138 174 190 186 177 183 193 201 203 204 203 194 187 193 193 191 190 193 194 189 181 167 162 159 146 150 153 165 184 191 186 177 154 141 145 109  86  75  58  53  43  37  38  41  57  58   9  17  13  17  19   9   7   8  15  28 132 199 185 183 181 182 184 187 188 197
 216 216 216 213 212 211 207 206 204 202 192 196 197 142  33  50  44  29  29  34  35  47  68  58 109 122 124 131 172 192 191 195 206 205 203 199 199 197 195 192 177 172 168 166 167 166 158 151 147 138 134 143 154 176 186 185 177 174 170 137 121  96  74  63  54  39  31  29  36  44  77  74   5  11  19  15  13  48  77  88  54  46 163 192 186 182 182 181 182 187 189 198
 216 216 215 214 211 210 207 207 204 203 195 196 196 131  30  24  29  25  23  48  45  26  83  59  59 110 103 115 160 182 195 203 200 206 205 201 197 191 182 173 151 137 124 121 118 120 128 131 134 140 148 159 177 187 181 173 176 178 164 138 112  95  64  56  49  26  24  30  41  61  98  85   9   3  12  18  13  35  95  76  33 112 197 190 184 181 180 182 184 187 189 199
 217 217 215 215 214 211 208 206 204 205 197 190 199 200  94  13  19  24  22  22  17  46  68  66  31  77  94 108 154 180 196 204 205 204 204 203 202 200 189 170 152 151 141 129 127 133 144 144 145 158 169 175 183 179 181 177 175 174 155 137 120  82  57  38  40  22  24  34  52  95 112  95  11   1   1  11  17  25  44  51 117 196 192 189 185 182 181 181 185 186 189 202
 216 215 216 214 213 212 209 206 205 204 204 180 199 203 183  45  28  26  31  23  15  25  59 116  74  38  67 112 135 164 183 195 204 202 203 205 202 202 201 195 187 187 176 172 175 175 175 180 173 178 183 184 185 177 178 179 169 154 136 109  91  65  45  31  28  17  22  57  86 113 120 106  24   0   5   9   5   3   4 141 221 193 190 188 184 183 182 181 186 189 189 204
 218 217 216 216 213 212 210 207 205 204 203 191 176 197 209 131  26  46  18  13   8   6  24  47  99  75  38  84 119 148 167 197 200 202 206 206 206 206 205 204 204 204 204 203 203 205 202 196 192 193 186 192 186 181 179 177 160 142 117  90  66  47  34  26  15  17  42  80 109 122 121 111  47   0   6  13   9   5   5  17 152 212 189 187 185 183 182 181 184 187 188 205
 217 216 216 215 214 212 211 209 206 203 202 204 189 174 183 199 104  36  43  32  19  27  48  78  85 118  67  50  89 129 149 185 191 204 211 211 211 212 213 210 213 212 209 209 210 203 204 202 202 201 195 191 188 186 180 170 140 106  85  64  53  35  28  20  16  40  81  95 119 130 124 111  74  37  11  15  14   9   8   3   8 139 212 189 185 183 182 182 185 188 191 205
 216 217 216 215 214 212 210 209 207 205 203 202 202 194 184 186 189 138 100 125 111 110 126 147 161 136 112  60  62 101 119 150 187 202 212 214 214 216 216 214 211 210 205 207 199 205 200 202 203 202 197 191 188 186 172 153 125  86  63  42  33  22  15  17  21  70 112 120 127 134 123 114  84  68  27  11  15  12  10   8   8   4 121 207 188 182 183 183 186 189 192 207
 216 215 215 215 214 213 212 209 208 206 202 203 199 198 199 194 182 185 175 169 181 176 171 169 174 182 173 111  39  65  96 136 168 178 195 205 217 214 214 213 211 199 196 186 189 196 193 199 200 198 191 187 177 175 159 134 100  68  50  30  23  17  14  18  59 106 126 135 138 136 124 117 100  70  22  14  17  14  11  10  14   9   0  93 198 190 179 184 187 188 194 208
 218 218 217 215 214 213 212 209 207 207 205 203 199 197 194 193 189 182 183 186 178 174 170 170 174 171 179 162  92  41  49  77 116 144 161 187 203 202 199 203 193 187 179 165 186 171 175 183 170 174 172 169 152 156 131 102  75  53  38  21  16  16  11  41  91 115 129 142 145 137 124 119 112  74  17  18  17  15  12  11  13  14  12   0  65 181 195 183 186 187 195 209
 217 217 217 218 215 212 211 211 209 207 205 203 201 199 197 194 193 190 185 188 179 179 179 177 173 182 144 121 166  69  37  55  91 112 120 132 157 168 176 179 165 175 173 148 171 154 164 160 140 144 139 115 125 128 100  64  43  25  21  20  12  14  20  80  96 108 133 144 145 139 128 122 123  70  12  18  18  17  16  15  13  13  13  15   1  34 125 173 199 191 196 210
 218 217 217 218 216 215 213 211 210 206 207 204 202 199 197 195 192 191 185 185 178 178 177 174 182 172  27  59 192 121  42  38  55  85  93 102 114 131 134 157 155 168 150 141 174 144 157 153 113 125 112  85  69  85  60  43  29  21   9   9  13  19  46 102 118 134 143 148 145 138 129 126 129  64  10  20  17  17  15  13  14  13  15  15  17   9   2  87 175 195 217 227
 218 216 216 215 216 215 212 212 209 208 206 204 203 201 199 197 193 192 186 181 182 179 177 182 182  54   0  41 183 164 109  40  30  54  63  93 106 119 111 137 145 142 123 131 150 132 129 136 102 100  90  75  51  38  39  25  19  17  12   8  17  47  74 116 130 134 146 149 146 140 135 130 132  60   9  18  19  17  16  15  16  15  15  15  17  16  15   5  19  49  94 151
 218 216 216 217 216 215 213 212 211 209 207 205 204 201 200 198 194 192 190 186 183 180 183 186  72   8   9   9 165 180 157 111  44  35  46  64  74  72  79 108 111 109 102 116 125 116  95 112  85  69  68  58  40  44  24  17  15  15  10  14  25  67 107 126 135 148 150 146 148 144 141 135 131  55  11  18  19  19  17  17  18  16  16  17  17  16  16  15  16  16   9   9
 220 218 216 217 215 215 213 212 209 209 207 206 203 201 200 198 195 192 189 186 183 182 190  85  15  20   4   0 134 191 158 147  86  43  35  32  42  43  67  76  74  85  81  93  98  86  74  71  57  55  48  30  25  21  14  17  14  11  21  34  42  84 118 140 147 153 148 149 149 144 144 139 134  47  13  20  22  20  17  17  18  17  18  18  18  18  18  19  17  19  23  23
 218 218 218 217 215 215 214 210 209 208 206 205 204 201 199 197 194 192 187 185 181 195 109  22  29  11   1   0 102 197 173 156 147  95  45  26  35  34  41  44  53  47  51  49  61  53  45  53  46  32  25  22  12  16  19  12  15  27  32  46 103 125 137 152 145 151 146 150 148 148 150 143 131  37  14  22  20  20  18  18  18  18  17  19  18  19  18  21  18  18  20  21
 218 218 217 216 216 214 213 212 210 209 208 206 205 203 200 198 195 191 189 185 197 138  29  35  21   3   1   0  70 195 183 173 166 147 102  55  36  29  34  32  25  26  26  32  27  26  26  31  28  23  22  19  16  16  25  28  29  40  46  93 133 138 149 151 153 151 150 154 152 154 155 149 121  27  19  22  19  20  20  18  17  18  18  18  18  19  19  19  20  19  21  21
 218 219 218 217 218 217 214 212 210 210 209 206 205 202 200 199 196 191 188 195 169  41  33  32   9   1   3   0  42 186 190 182 174 163 154 122  83  56  41  32  27  28  27  32  25  24  31  25  17  19  22  23  25  30  48  40  42  72 102 125 142 141 152 148 147 148 151 153 157 158 153 151 111  17  21  22  20  21  21  20  19  20  19  18  19  19  19  20  20  19  21  22
 218 218 219 218 216 216 215 213 211 210 209 209 206 201 202 200 193 190 195 188  62  30  37  19   2   1   4   8  63 174 193 185 182 173 162 142 133 117  96  74  59  51  58  53  43  37  44  36  30  44  36  39  64  58  58  71  98 127 135 143 142 150 152 150 145 154 154 157 161 162 157 159  92  11  20  22  24  22  20  21  21  20  18  18  21  20  21  20  20  18  22  23
 219 218 218 218 217 216 214 213 212 211 210 208 206 207 202 201 205 210 192  84  30  43  30   8   2   3   5  44 110 162 192 191 186 183 183 161 151 156 144 124 121 106  93  83  93  97  87  75  74  76  57  84 115 109 106 116 126 128 145 151 148 150 156 150 154 153 157 163 161 161 160 162  71   9  23  23  24  22  21  22  20  21  20  22  23  23  22  22  23  21  22  24
 219 217 217 219 218 217 214 213 212 211 210 209 207 206 206 200 163 107  53  35  43  36  14   3   2   5  18  93 135 159 185 195 193 189 184 182 165 155 145 140 141 136 131 125 126 126 115 122 117 104 112 121 112 119 124 126 133 138 152 151 155 153 158 156 152 159 162 164 165 161 163 159  53  15  24  24  23  24  23  23  21  22  23  24  22  22  21  22  22  21  21  24
