P2
# Generated by OpenCV 4.2.0
92 112
255
 239 239 239 239 240 238 239 240 240 240 240 240 240 238 240 240 241 242 228 235 233 223 221 209 220 218 207 200 175 149 128 133 114  85  46  47  36  46  60  60  48  60  72  75  74  59  50  35  39  42  44  69  98 109 173 195 204 218 226 236 228 234 240 241 240 239 239 241 239 239 239 239 240 239 239 239 239 239 239 239 239 239 239 238 239 239 239 239 239 238 237 237
 239 239 239 239 239 239 239 240 241 240 240 240 239 239 240 240 240 228 227 219 207 204 192 163 142 137 133 122 124 117  94  85  47  34  27  25  22  25  31  29  30  31  27  30  35  32  32  29  32  37  42  41  51  71 135 171 165 169 185 226 231 232 238 236 237 238 235 237 239 240 240 240 240 240 239 239 240 239 239 239 239 239 239 239 239 239 239 238 239 239 238 237
 240 240 239 239 240 240 240 240 240 240 240 241 239 235 233 235 227 218 223 193 145 117  78  63  51  52  52  44  44  42  36  33  22  21  16  15  15  16  20  22  22  22  24  23  25  27  28  30  29  31  35  40  38  42  65  87 120 152 101 148 211 222 236 238 239 241 238 236 238 237 238 238 239 240 239 239 240 239 239 240 239 239 238 239 239 239 239 239 239 239 239 239
 240 240 240 240 240 240 240 240 240 241 240 240 236 232 237 235 222 194 146  88  44  40  38  36  45  41  32  27  26  28  20  18  19  17  14  14  19  23  24  28  29  28  24  23  26  28  29  33  37  32  30  31  35  40  40  56  59 104  73  72 161 190 202 232 230 230 234 231 234 236 238 236 236 239 241 240 240 240 239 239 239 240 238 239 239 239 239 239 239 239 239 239
 241 240 240 240 240 240 241 240 241 239 236 237 232 233 239 234 202 125  58  45  48  49  56  36  28  27  25  27  22  23  22  17  17  18  22  23  23  25  25  29  33  29  27  27  26  23  23  23  26  29  26  26  26  30  36  55  37  46  43  38  83  96 127 219 228 222 230 235 233 233 236 238 237 236 239 240 240 240 240 238 240 239 239 239 239 239 239 239 239 239 239 239
 240 240 240 240 240 240 239 240 240 235 239 238 237 211 165 134  87  50  46  49  45  31  39  32  29  23  21  21  18  16  18  19  20  21  24  27  30  33  33  33  36  32  27  27  29  31  26  21  14  17  26  24  25  25  27  29  33  25  28  34  30  37  67 135 229 242 243 244 243 242 240 236 237 242 242 247 247 246 246 244 244 246 242 239 239 240 242 243 241 239 239 239
 241 240 242 241 241 239 240 236 232 233 239 229 173  96  99  83  36  31  36  30  18  17  21  23  23  21  18  16  16  18  20  18  17  17  23  30  27  21  18  16  21  26  24  19  12  18  29  26  18  10  15  27  23  23  23  24  26  27  25  33  29  32  56  76 181 237 190 171 180 184 190 214 235 220 193 199 207 208 212 218 221 219 228 240 241 236 229 230 236 239 239 239
 240 240 242 240 241 238 233 237 239 239 228 164  87 129 117  62  26  28  28  28  20  14  18  20  18  20  19  17  16  17  20  19  16  19  18  13   8   7   6   6   5   8  14  20  16  10  13  23  20  16   7  18  25  21  18  24  22  23  25  31  33  32  29  38 104 179 135  86  94  92  93 117 189 199 108  92  89  92  95 139 142 101 170 238 245 226 142 120 198 242 239 239
 240 241 241 237 235 231 231 245 233 206 169  74  67  48  30  28  26  19  17  20  21  18  22  22  18  21  26  25  23  20  17  19  19  12   7   8  12  11   9   9   7   7   6  11  19  17  13   8  18  18  14  13  25  23  17  20  24  21  25  30  35  29  27  33  41  68  96  85  86  80  82  87 138 174  94  89 120 128 120 150 131  78 164 240 244 224 109  83 190 243 240 239
 238 240 238 230 229 229 233 226 195 188  98  38  38  37  31  27  22  17  16  19  34  28  16  19  19  23  25  24  23  22  17  13  14  12  10  12  13   9   7   6   7   8   8   6  14  16  20  11   7  19  18  12  21  26  20  16  26  20  20  28  30  25  25  34  39  33  49  64  86  85  79  82 139 174  90 119 205 232 239 229 144  83 169 238 243 222 107  90 196 243 241 234
 235 236 229 225 228 231 226 186 192 123  45  28  26  21  14  20  22  16  19  33  35  32  25  19  19  22  26  23  20  21  17  13   9   9  10   9  11  14  12   8   5   7  10   9  11  15  19  18   7   9  18  11  16  24  22  17  20  18  17  25  24  26  31  34  29  27  28  36  56  77  81 119 192 181  86  90 124 142 154 188 136  81 172 240 243 219 105  91 199 244 242 227
 229 237 230 225 229 232 200 190 153  53  28  28  46  41  22  18  20  16  23  23  15  15  23  25  25  26  22  19  18  16  13  14  12   9  11  10  12  16  13  10   8   7  10  11  11  16  16  19  14   6  14  16  15  21  23  23  18  17  17  19  22  29  26  16  14  13  12  15  18  23  44 102 164 170  84  80  79  72  89 168 131  76 176 241 245 218  99  91 201 245 242 224
 238 238 229 218 227 219 182 178  99  29  29  40  63  46  31  25  24  28  12  11  13  12  16  25  24  20  17  16  15  14  11  10   8  10  13  17  16  17  16  10   9   9  11  12  10   9  13  18  17   8  13  19  16  19  23  21  21  19  17  17  20  21  19  21  16  13  14  14  12  12  14  39  95 123  79  97 160 170 178 193 129  81 178 243 244 216  95  96 212 251 248 229
 231 214 227 225 227 169  99  93  52  31  33  44  47  37  21  26  26  20  16  16  15  22  25  22  20  19  17   9   4   5   8  14  13  10  10  15  17  16  17  16   8   8  13  12  11   9  12  17  14   9  13  16  16  16  19  18  22  18  18  20  21  20  23  21  14  14  14  13  16  17  19  12  56  84  64 107 165 214 224 222 129  82 183 245 245 213  98  92 177 217 217 212
 187 197 203 193 175 102  49  40  40  30  30  41  35  28  20  19  19  19  22  23  21  20  17  20  19  19  22  19   9   6   7   7  15  13  11  12  20  16  16  15  11  12  15  18   9   9  14  16  12   9  14  12  16  13  19  18  20  18  20  19  20  22  24  20  19  19  16  12  12  10  17  15  22  66  47  69 110 159 214 202 109  83 180 243 246 211  87  62  77  86  85 132
 217 212 182 146 118 106  64  41  32  29  27  27  21  18  14   9  10  22  31  24  20  19  16   7   4   6  12  21  19  12  13   9  12  18  20  22  22  16  13  11  10  13  19  23  24  12  16  15  11   9  12  12  15  14  18  17  18  19  20  18  20  24  20  23  23  27  23  16  10   6   7   7   3  53 112  95  84 130 165 166 144 145 196 240 242 216 133 112 112 105  96 143
 208 213 121 109 107  82  77  69  32  26  31  24  18  16  11   7  14  23  19  22  22  13   2   4   5   5   7   9  17   8   8  13   9  14  17  17  16  16  10   8  11  19  20  22  27  18  21  15  14  16  17  18  14  16  21  18  18  21  19  18  16  19  19  20  24  26  22  17  10   9   6   5   5   8  71  73  96 127 158 114 110 138 202 243 240 240 244 241 240 238 234 235
 158 148  66  56  45  73  97  56  28  22  25  24  20  14   9   9  18  20  22  22  11   0   1   4  12  11  11   8   8   7   6  24   5   7   6   4   7  14  11   9  10  22  25  23  25  24  21  21  19  26  29  24  16  19  27  19  21  19  18  14  15  16  19  15  20  20  17  17  17  14   7   7   8   6  13  31  28  42  54  64 125 104 113 222 236 237 243 246 246 245 245 246
 117  82  49  33  48  68  46  19  21  23  17  14  14  14  19  19  21  26  22  10   1   0   0   0   5   8   8   6   1   2   3   8   2   3   3   2   4  10  11  12  16  20  28  30  29  26  23  23  24  25  28  25  22  21  22  22  20  22  17  20  17  12  10  10  20  19  14  20  21  14   8   6   6   8   7  19  36  26  12  37  59  67  85 138 129 133 144 146 158 218 239 186
  35  63  74  46  39  32  17  14  17  12   8  10   9  11  14  16  16  17  13   2   0   0   2   4   3   9   7   1   1   1   1   1   1   2   3   3   3   8   9  14  24  32  42  38  33  35  30  26  30  22  22  22  22  21  20  23  20  24  19  23  14   6   4  14  20  13  15  20  20  17  16   5   5   5   7  16  41  37  22  23  39  64  91 110  68  69  69  66  95 205 240 134
  63  33  26  26  26  16  11  18  18  11   7   6   8   8   8   9  12  12   5   1   0   0   3  10  14  12   8   0   1   1   1   1   1   4   6   7   7   6  11  16  27  32  47  67  42  46  48  35  35  26  26  25  26  24  26  24  18  30  24  20  11   5   7  17  14   9  14  19  19  22  21   8   7   3   6  13  20  21  23  42  60  96  85  99  69  70  70  69 102 210 239 130
 102  82  50  26  23  13  15  17  14  12   8   7   9   6   4   7  10   5   4   8   2   2   2   8  15   9   4   1   1   1   1   1   1   5  14  16  16  13  15  22  30  41  42  81  89  47  64  55  47  39  45  41  36  35  37  31  25  34  26  18  13  12  14  19  12   7   7  11  18  24  20  12   8   4   7   9  10  11  21  30  52  59  89 102  63  66  68  67 106 214 239 125
  41  48  36  36  36  14  16  15  10   9  11   8   3   4   5   7   6   5   3   5  10   9   7   5   9   5   3   2   2   4   2   3   3   3   7  14  22  33  22  34  52  60  72  86 107  78  86  82  75  61  69  64  59  55  55  45  38  39  34  30  18  16  16  17   9   6   8   9  14  27  26  13   9   5   3   3   5   8  13  17  18  71 166  95  60  67  65  63 106 216 236 124
  28  23  24  31  26  19  18  14   8   6   6   5   3   3   3   4   7   5   2   0   3   6   8   4   4   4   2   5   9  13  14  13  11   8  11  15  20  29  35  36  45  65  86 113 110 109 114 114 106  95  93  85  86  84  78  69  58  53  45  32  19  19  20  13  10  11   6   4  10  18  30  21  11   6   4   4   7   6   6  12  23  79 134  83  60  67  67  64 108 217 232 119
  30  29  28  26  25  21  15  11   6   2   1   3   3   3   3   6   9   5   4   1   0   1   6   8   8   6   9  11  16  21  19  24  27  26  25  27  27  28  33  43  43  51  69  96 111 118 134 141 136 129 124 112 109 106  99  86  83  80  56  39  29  27  23  17  15   8   2   4   7  13  21  21  13   8   9  10  10   9  12  19  19  50 103  82  62  63  67  65 111 217 228 110
  16  23  26  28  23  16  11   6   2   0   1   3   3   2   1   3   4   5   6   0   0   1   6  13  12  11  15  14  16  25  25  32  40  40  45  53  40  28  22  29  44  57  62  71  92 126 154 157 154 156 149 138 142 119 114 110 109  92  71  60  55  45  37  27  14  10   5   4   6  13  17  18   9   6   9  12  10   8  12  19  18  29  65  69  56  59  64  63 114 219 225 107
   9  16  19  17  15  10   6   3   4   4   6   8   5   1   1   1   3   5   6   0   0   2   9  14  14  15  13  14  22  30  45  57  72  78  78  79  71  55  44  37  43  56  72  78  99 132 164 171 167 166 161 153 152 141 137 139 123 107  96  85  67  57  49  40  23  13   8   5   7  13  15  12   5   3   6   8  10   9   6  10  18  22  30  42  47  48  58  63 111 212 217 106
  19  10   4  14  12   7   8   9  10   8  10   7   1   1   0   1   2   7   5   1   2   4  22  21  14  15  20  30  51  70  95 115 125 135 138 139 137 116  97  91  88  81  88  96 111 149 172 174 174 173 170 169 164 158 153 147 139 128 117 111  94  76  65  52  37  23  13   8   9  11   6   4   3   0   3   5   7   8   6   7  12  21  24  35  46  52  55  60 104 174 214  98
  11  10  22  17  10   7   9  11  12  11   9   1   5   0   0   0   1  10   6   1   6  17  41  43  36  37  50  68  96 121 135 144 147 152 156 156 155 150 142 136 130 125 115 124 143 163 175 177 175 175 174 174 173 169 162 157 152 144 127 123 120 102  81  66  51  37  23  13  12  18   8   5   3   2   1   2   4   5   3   1   4   7   8  14  25  37  45  51  80 125 197  98
  11  14  12  11  13  14   9   9  22  19  12   5   8   1   0   0   3   7   5   6  15  35  46  57  73  78  96 111 124 138 148 151 155 154 158 161 165 163 166 165 155 149 150 147 161 173 177 178 176 176 176 175 174 168 167 163 159 149 139 134 128 118 108  89  72  50  34  20  15  20  14   5   3   1   0   0   1   2   1   0   2   5   9  11  12  16  30  47  62  80 174  93
  12   8   4  13  14   8   2   8  15   9   5   3   7   0   0   0   1   6   3  11  21  37  53  87 103 110 120 132 139 142 150 156 159 161 163 164 167 168 164 163 171 173 166 166 172 179 182 180 178 178 178 176 172 170 169 164 160 156 148 139 132 130 119 111  96  73  47  31  22  15  12   4   2   2   2   1   1   2   2   1   2   4   8  14  15  20  25  39  54  59 131  90
  13   5  10  19  11   5   4   0   1   6   1   1   5   0   1   0   0   7   8  13  21  38  63 106 112 118 130 139 141 144 152 160 162 166 168 170 170 173 169 169 174 178 179 180 179 178 181 181 182 180 180 177 174 171 168 165 162 158 151 141 135 133 129 123 109  97  69  43  28  18   8   5   2   2   2   2   3   3   2   3   5   4   7  11  16  26  18  20  27 106 169  85
  12   8  16  19  12  12   4   0   7   9   3   1   1   1   2   0   1  10  13  16  23  36  81 113 115 119 129 139 145 149 156 162 165 170 173 174 175 176 177 174 178 180 182 181 182 183 183 183 182 181 180 179 178 176 172 167 162 159 153 146 139 133 137 132 115 107  86  53  30  20   6   3   3   0   0   2   4   7   7   7   7   7  10   7   9  19  16   3  14  97 179  78
  12   7  14  14  14   7   0   0   6   9   8   3   0   2   5   2   2  12  19  21  26  58  95 115 116 120 133 141 147 150 157 163 167 171 174 175 177 176 178 177 178 180 181 182 183 184 185 184 182 182 178 179 178 175 169 168 162 157 152 150 145 140 135 131 123 105  89  54  28  17   7   3   3   1   1   2   3   7   7   9  10   7   6   7   9  11  13   2  12  33 123  86
  14   5   8  11  15   3   0   4   8  11  13   4   1   1   9   8   5  13  20  18  34  54  88 114 120 129 135 142 147 152 158 163 167 171 176 178 177 178 179 181 182 182 183 184 183 184 183 183 183 183 179 177 179 173 168 169 163 158 151 148 149 147 140 137 135 113  87  64  31  18   9   4   2   1   1   0   3   5   6   6   6   4   7   8  10   6   3   4   5  26  43  68
  20   4   8   8   4   0   3   6   8  12   6   0   1   1  14  17   8  14  23  14  23  46  79 113 125 136 139 143 147 152 156 160 167 174 178 179 179 180 179 180 181 180 184 185 184 183 182 183 182 182 181 178 178 177 172 167 160 155 149 148 150 149 145 146 139 126 103  73  35  17   8   1   1   1   0   0   1   4   4   4   5   7   8   8   6   3   1   4   7  20  57  45
  18   4   5   1   0   0   6   5   6  10   3   0   0   0  10  22  15  14  21  12  10  39  77 117 133 137 138 143 146 149 156 162 168 174 175 174 179 182 179 181 181 181 183 183 184 185 186 185 183 183 183 179 177 174 168 166 158 153 148 147 152 153 149 148 142 133 122  92  48  19  11   4   2   0   0   0   1   3   4   4   5   5   7   4   2   1   1   3  11  10  32  44
   3   1   1   1   1   4   6   4   9   9   1   0   0   0   1  14  12   9  12   6   2  34  86 124 141 138 139 147 147 148 153 161 165 171 177 173 178 181 182 181 179 181 183 183 184 186 185 186 182 182 182 182 178 174 173 165 161 157 151 149 153 155 153 152 146 138 128 115  76  22   7   4   2   1   0   1   2   3   3   3   3   6   5   3   0   0   2   2   8  12  14  38
   1   1   1   1   3   6   2   6  10   3   0   0   0   0   0   3   6   2   2   3   1  32  94 126 139 143 145 149 149 149 155 158 159 166 174 176 179 181 181 178 178 179 185 185 184 186 186 184 185 185 184 183 179 176 171 164 163 159 155 155 157 160 155 152 147 141 130 119  94  43   6   1   0   1   0   1   3   3   3   4   6   6   7   4   3   5   6   1   2  22  18  26
   1   2   3   4   8   4   3  13   7   0   0   4   1   1   1   0   2   0   1   2   0  34  98 132 142 146 147 149 149 148 153 158 163 169 172 178 181 182 181 181 183 183 185 185 185 187 184 181 186 187 184 183 180 176 171 166 164 161 156 155 158 159 157 153 149 142 132 124  98  66  22   2   1   0   1   1   3   3   3   3   3   8  10   7   2   4   3   3  10  20  30  19
   1   7   5   2   2   3  13  10   1   0   2   4   2   4   2   1   1   0   0   1   0  37 104 135 143 145 148 150 151 153 157 160 164 168 176 180 182 183 183 185 185 185 185 184 186 185 181 185 186 186 184 182 180 176 172 168 165 158 155 157 160 160 156 153 151 146 135 125 104  72  39   8   1   0   2   7   3   1   0   0   4  16  11   4   3   3   2   7  15   9  28  39
   5  17   4   1   0  12   8   0   0   1   3   3   7   7   5   4   1   0   0   0   1  49 112 135 143 147 151 154 154 158 159 161 163 166 176 180 182 182 182 184 186 186 185 184 185 186 186 185 182 186 185 184 181 178 174 170 165 158 156 156 157 158 155 153 152 146 137 129 110  82  47  18   1   0   5  10   5   1   1   4   9  17  15   4   2   4   3   5   7  16  24  82
  17  20   3   0   4  11   8   8   4   4   4   6   7   6  11   9   1   1   0   0   5  72 115 136 145 150 153 155 154 157 158 160 165 168 174 179 180 184 184 184 186 188 184 182 186 185 185 186 185 186 186 188 186 179 176 173 169 164 160 156 157 154 154 153 150 144 137 130 116  94  58  27   6   0   3  10   7   2   1   7  14  18  14   2   1   1   3   3   9  35  23  84
  17  12   5   4  10   9   9   9   9   9   8   7   6  13  16   7   1   0   0   1  35  88 114 139 145 149 152 152 153 158 160 163 170 174 174 180 181 184 186 185 187 187 184 186 186 186 185 186 185 186 187 188 186 180 178 174 172 168 164 161 159 156 156 155 152 144 136 130 118  96  72  34  11   2   1   7   5   3   3   6  16  15  19   6   3   0   1   4   8  26  39  39
   8   6   7   7   5   7  12  14  11  10  12  12  11  19  17   3   4   2   1  14  73  94 121 139 144 149 153 154 155 161 164 168 170 174 175 182 185 184 184 186 187 185 185 186 185 186 186 186 185 186 188 188 186 181 179 176 172 168 166 163 160 156 157 153 150 147 136 127 113  98  83  40  14   3   1   7   3   2   5  13  23  12   8  10   6   3   0   2   2  11  28  30
   4   5   6   2   5  12  20  19  12  11  11  12  12  10   2   6  11  11  18  50  81  96 124 138 148 154 154 156 157 162 168 170 170 175 180 180 185 185 186 187 188 187 185 184 185 185 183 183 185 187 188 187 185 181 180 177 172 169 165 162 160 160 158 153 150 145 137 127 114 105  96  62  19   4   1   1   2   3   2  16  13   9   4   6   8   3   0   3   5   7  12  25
   4   3   1   4  11  19  18  12  13   8   6   6   2   0   0  10  12  17  33  66  80  98 123 143 153 157 157 158 160 164 167 169 172 174 176 179 186 185 183 188 188 189 186 183 186 184 183 185 186 189 190 186 184 181 182 178 174 170 166 163 163 161 160 156 150 143 136 127 117 109  99  77  36   8   2   0   5   2   1  14   8   4   3   4  10   7   4   2   3   5   4  18
   2   1   5  13  16  18  13   3   1   0   0   1   3   1   6   9  10  27  39  66  72 101 131 145 155 157 158 158 160 163 168 171 172 172 176 177 182 182 182 189 190 190 187 185 186 185 185 187 186 188 188 184 180 183 181 176 174 169 165 161 160 160 158 156 150 142 137 126 116 114 103  81  59  19   3   3   4   1   2   6   5   3   2   4   6  11   8   3   2   6   6  12
   3   3   3   4   6   6   7   1   0   0   1   7  14   6   4   6  12  37  47  56  65 109 134 151 159 162 159 158 160 164 167 170 167 171 177 178 175 177 179 184 188 189 186 187 186 186 182 182 181 178 174 170 170 168 170 169 166 164 160 159 153 145 143 138 136 141 139 127 113 112 100  88  70  28   6   2   0   0   1   4   4   2   3   2   2  10   9   4   6   6  11  10
   4   3   2   4  10   6   4   1   1   3   4  14  16  10   5   8  15  32  40  47  80 116 140 156 158 156 156 151 158 163 164 168 164 155 165 164 163 168 176 182 182 179 176 180 185 182 180 173 170 166 158 152 146 143 146 133 124 117 113 119 110 109 104 101  97 104 122 129 113 110 103  92  73  34  10   3   1   0   0   2   3   1   2   1   1   0   2   5   2   4   8  14
   8   4   5  13   6   1   3   2   5  10   6   7   5   6   6   8  17  40  52  66  92 123 142 131 126 132 125 123 119 110 116 120 109 111 136 137 142 152 161 162 171 174 173 177 179 175 171 166 163 159 152 139 111 111 104 100  78  61  47  46  56  65  68  78  82  71  74 104 113 107 107  94  75  31   8   4   0   0   0   1   1   2   1   0   0   1   3   4   1   2   4   8
   3   8   8   7   8   8   3   6  10   8   4   4   4   6   5   7  20  45  64  74  99 111  96  83  86  81  67  58  46  38  43  58  64  77  98 114 110 112 138 152 161 169 169 168 167 165 162 158 162 154 138 122 100  88  88  67  49  42  38  32  30  35  49  52  52  47  57  78  97 101 102  94  78  29   4   0   0   0   0   0   1   1   1   0   0   0   2   2   1   3   3   8
   4   8   6   5   6   4   6  13   5   1   3   2   3  11   8  10  23  55  67  80  88  58  38  46  49  54  47  39  33  29  30  38  44  58  67  90  93  89 125 144 156 163 160 161 158 156 156 153 153 150 128 111 107  83  61  47  45  45  54  58  54  56  53  47  46  44  42  50  80  95  97  94  81  34   7   1   0   0   0   0   0   1   1   1   0   0   0   0   1   2   3   7
   4   3   4   3   1   4  12  10   1   0   4   5   4   9  10  15  33  54  73  73  60  52  44  40  41  47  66  70  68  68  73  71  75  74  77  83  93 100 127 133 148 151 152 156 156 150 147 146 143 140 119 103 103  82  77  79  83  97 107 111 106  94  87  81  77  65  56  69  81  94  95  96  84  34   4   1   0   0   0   0   1   4   1   0   0   0   0   2   1   0   3  10
   3   3   1   0   5   8   5   2   0   3   3   9   9   4   8  16  40  59  74  70  42  40  56  63  71  75  93 113 122 126 129 120 108  93  85  87  91  97 113 121 136 146 151 152 152 149 147 140 132 126 115 101  85  79  69  66  75  75  64  58  65  69  74  82  92  88  86  86  85  99  97  97  89  37   1   0   0   0   0   0   0   1   3   3   0   0   0   2   0   1   2   9
   1   4   1   2   4   4   1   0   0   5   4   9  11   7   8  21  45  61  72  79  69  64  70  82  94 104 108 103  94  78  57  42  38  44  50  46  56  74  91 111 127 139 151 159 161 161 151 138 127 116  99  83  67  60  68  68  45  34  36  19  13  27  45  58  66  87  89  95 106 111 101 100  89  40   1   0   1   3   3   1   0   0   0   3   1   0   0   0   2   3   2   4
   2   1   1   2   2   3   1   0   1  11   3  10  12   1   9  27  46  65  76  91  94  91  86  93  96  84  67  41  23   7  15  33  44  13  41  52  61  60  63  88 110 133 154 167 173 173 157 136 122 106  83  74  83  91  78  76  35  46  48  32  13  47  27  28  50  80  96 106 112 114 104 103  92  41   2   0   2  10   4   1   0   0   0   0   0   0   0   0   1   2   3   4
   1   1   1   0   1   4   0   0   4   4   1  10  12   2  12  33  51  67  83 102 104 105  95  92  68  38  20  30  67  20  32  34  39  17  90  99  71  89  86  77  98 126 155 175 183 176 162 137 114  94  95 110 105  73 111 163  61  17  12  23  33  85  60  32  40  72  99 110 118 113 111 107  96  51   5   0   3   7   3   2   0   0   0   0   0   0   0   0   0   0   1   4
   0   1   1   1   4   9   1   2   3   0   1   8   8   5  16  41  61  76  89 111 103 102  98  86  47  21  30  67  98  50  28  24  29  40 112 126  79  80 121 109  95 120 150 172 181 178 163 137 112 111 135 133  84  85 109 120  98  70  69  71  78  95  89  84  89  93  99 113 121 121 118 108 101  62   7   0   4   7   4   3   1   0   0   0   0   0   0   0   0   0   2   4
   0   0   0   1   7   6   5   1   1   0   2   7   6   6  22  49  64  82 103 123 127 111  97  87  74  76  84  90  87  90  91  88  99 106 107 109 121 135 136 116 104 118 146 169 183 178 157 134 118 123 142 147 139 123 116 115 123 117 116 102 106  94 110 106 112 122 122 128 133 129 122 111 105  73  14  13  18  10   4   2   0   0   5   2   0   2   0   0   2   3   2   7
   0   0   0   2   4   4   6   1   1   3   3   6   5   8  31  63  68  89 112 128 135 130 119 113 111 107 112 114 117 117 116 119 122 125 124 129 131 136 125 120 119 121 148 169 180 178 160 139 125 132 133 138 140 134 122 121 125 128 124 114 119 112 106 109 122 134 134 140 141 131 126 114 107  88  27  38  44  15   4   1   0   1   4   1   0   7   2   0   2   4   4  10
   0   0   1   0   0   1   3   3   2   1   1   2   1  13  48  67  72  96 115 129 136 140 140 132 126 117 111 118 125 126 123 122 121 122 124 129 134 128 134 137 129 125 146 169 178 176 167 143 130 139 140 138 137 141 140 132 132 129 121 115 116 114 120 131 140 142 140 139 138 133 127 116 110  96  37  31  46  25   4   0   0   0   0   2   3   4   5   0   4   8   9  12
   1   0   1   1   1   1   1   2   0   1   1   2   0  17  55  70  81 100 114 126 136 139 142 144 144 136 126 119 120 122 122 124 130 138 152 149 139 141 143 138 133 129 148 168 179 174 163 144 133 140 143 146 150 145 149 156 156 148 146 145 144 147 148 151 151 147 141 138 136 133 127 117 110  99  44  26  37  18   5   1   0   0   0   3   8   5   2   0   3   9  11   7
   0   0   1   1   1   1   4   3   1   2   1   0   0  21  60  70  84  99 118 127 133 137 144 150 154 150 148 146 148 151 155 157 162 162 163 151 150 152 138 135 135 135 148 169 183 179 167 148 138 142 143 143 154 162 153 157 161 158 159 161 160 158 153 152 152 150 147 137 134 133 129 116 110 100  51  31  21   4   5   4   0   0   0   4  11   7   0   0   1   4   1   2
   0   0   1   0   1   1   3   3   1   1   1   0   0  23  65  77  89  99 115 127 134 138 140 150 154 157 157 159 161 160 161 161 164 161 153 154 158 147 137 140 143 140 151 172 185 183 166 150 143 143 141 142 147 164 162 155 159 157 156 160 159 158 156 157 154 153 149 141 137 133 128 115 113  96  55  27   3   9  14  11   0   0   1   2   8   6   1   0   0   1   1   1
   2   0   1   1   1   0   2   1   0   0   1   0   2  28  67  82  94 101 115 127 135 136 133 146 154 159 163 166 167 163 160 164 164 160 156 160 159 142 137 144 144 141 154 171 185 186 171 154 144 143 145 142 141 158 170 165 163 160 156 160 163 163 160 158 155 153 148 141 137 137 127 114 112  95  56  19  11  35  25  17   0   1   0   2   2   2   0   0   0   1   1   2
   2   1   4   2   3   4   2   0   0   0   0   0   2  28  67  87  95  99 115 129 137 140 140 146 153 159 162 165 170 166 165 167 162 162 165 166 152 141 140 146 141 138 152 172 187 185 175 156 145 142 146 143 142 156 165 168 169 167 164 168 167 166 159 155 155 154 145 143 142 135 124 117 110  93  48   9  39  57  13   9   1   1   0   2   0   0   0   0   0   0   0   1
   2   3   5   3   5   6   1   0   0   0   0   0   0  21  67  85  93 101 112 126 134 141 145 148 151 158 161 170 170 169 172 169 168 173 173 165 150 144 141 139 133 137 156 171 183 186 178 163 147 140 136 139 145 155 160 167 172 173 170 171 168 166 161 152 152 151 146 145 142 136 124 115 105  90  50   8  24  56  26   0   4   7   0   3   1   0   0   0   0   0   0   1
   4   2   3   5   8  11   4   0   0   1   1   0   3  19  63  85  89  98 110 121 131 136 143 147 153 158 163 168 174 173 174 174 176 173 171 164 155 142 129 123 126 135 153 171 182 183 178 162 148 135 125 128 142 154 161 167 171 175 178 174 171 167 164 156 149 148 144 144 139 133 125 115 104  85  46  18   6  31  33   2   2   5   4   0   1   1   0   0   0   0   0   1
   2   1   0   4   6  14   7   1   4   5   1   0   6  21  56  82  90  98 107 120 127 130 136 141 152 155 162 167 177 180 176 177 174 173 169 163 154 132 116 119 120 135 154 165 176 180 174 163 153 138 126 121 128 156 168 169 176 182 187 178 172 164 162 155 151 147 146 139 135 128 123 112 101  73  41  40  14  25  22   1   3   4   3   2   0   1   0   0   0   0   1   4
   1   1   0   4   8  16  13   5  11   5   2   0   6  18  48  81  89  96 105 120 123 126 132 138 145 152 160 164 169 175 177 173 173 174 171 163 143 121 132 137 128 135 151 165 178 180 174 159 149 142 141 138 124 142 161 166 171 178 180 177 170 167 159 151 149 146 141 136 131 127 121 106  98  65  34  57  33  21  16   9   3   4   8   6   1   1   0   0   2   1   0   7
   1   1   0   8  17   8   7   4   6   7   1   0   2  14  36  77  89  93 103 117 122 125 131 135 142 150 157 163 166 174 178 175 174 170 166 163 131 126 146 145 137 135 152 167 182 187 180 159 147 139 145 147 136 129 150 164 170 172 173 171 168 167 160 154 149 144 136 133 129 128 120 107  89  58  39  56  53  19   7   8  11  11  13  14   5   2   0   2   6   4   1  11
   0   1   1   6   6   4   6   2   5   6   0   0   0   8  31  66  87  91 102 115 122 127 130 133 141 148 152 158 167 174 175 174 171 169 163 147 118 132 146 147 137 136 150 164 181 185 188 162 145 138 143 142 139 122 137 156 163 164 166 166 166 163 157 152 147 138 133 131 128 126 116 108  87  53  42  64  63  37   2   4   3  10  15  18  10   3   5   3   4   5   1  12
   0   3   4   2   0   3   6   4   3   1   0   0   0   5  27  58  84  91 100 113 120 121 125 130 136 143 149 157 163 167 172 172 165 161 156 133 110 126 136 138 129 126 142 152 160 164 167 155 133 123 130 122 119 116 129 147 157 158 166 167 165 161 155 149 142 136 131 130 131 125 116 105  80  48  47  71  73  35   0   5   9   3   3   6   7   8   9   1   1   6   0  17
   9   5   1   0   0   0   1   2   1   3   6   2   0   5  23  52  76  85  99 108 120 122 121 127 133 141 147 154 161 166 168 167 165 158 149 128 104 103 100  83  80  99 117 134 150 153 152 133 111  91  72  78  91 109 129 141 151 162 162 164 163 157 152 146 139 134 130 130 131 124 114 101  74  47  54  76  62  26   0   0   5   9  11   5   1   5   5   1  13  18  29   7
   1   0   0   0   0   0   0   2   1  15  17   2   0   3  16  42  72  76  93 108 119 120 123 126 131 140 150 154 159 166 166 166 165 158 154 143 116  88  73  54  44  57  86 115 130 135 131 111  83  65  66  68  81 121 140 150 152 156 157 163 159 155 149 146 140 136 131 130 130 124 112 101  71  45  59  83  53  12   0   0   1   4  11   8   1   1   2  10  56  28  72  55
   0   0   0   0   0   0   0   1   2  18  18   1   0   3  15  39  62  66  88 107 117 122 123 127 131 140 151 154 154 162 164 162 160 161 165 160 137 110  90  97  98  81  69  87 115 118 108  84  87 104  99  86 109 136 145 154 155 154 156 160 161 158 149 147 143 137 131 130 131 123 110  92  67  42  51  63  28   2   0   0   1   3   4   9  11   1   1  13  55  33  91 146
   0   0   0   0   1   1   1   0   0   5   6   1   0   1   8  30  48  60  81 106 116 121 124 125 131 139 144 153 156 161 162 165 163 165 168 159 141 129 111 105 104  99  90  69  79  80  82  99 100  85  95 109 124 135 150 157 160 157 154 155 156 156 151 148 141 138 135 133 130 119 104  88  68  37  19  15   0   1   0   0   1   3   2   4   8  14   2  12  33  19  59 149
   0   0   0   1   1   1   4   2   1   6   3   1   1   0   2  22  46  65  81  97 112 118 124 126 131 138 140 153 156 157 162 165 168 171 168 162 146 130 112 102  89  89 100 101  89  90 110 115  93  64  75  97 102 133 154 157 162 161 154 155 156 156 154 148 144 143 138 135 124 112  96  82  59  29   1   0   0   0   0   0   0   2   0   0   0   5  10  11  13  16   9  45
   4   1   0   1   2   2   4   3  18  21   4   0   2   0   0  16  46  67  70  90 110 116 123 125 130 137 149 157 159 159 163 168 170 169 165 161 152 135  94  65  61  70  91 114 114 128 119 104  87  61  56  60  69 111 139 153 158 162 161 157 158 156 155 148 146 143 137 134 124 104  92  79  49  23   1   1   0   0   0   0   1   2   0   0   5   9   7  14   7   8   8  25
   3   0   1   1   3   4   4  15  25  16   3   1   4   0   0  13  46  61  65  83  96 112 122 124 131 140 148 156 160 160 167 168 166 161 145 139 121 102  64  56  51  57  72  64  83 117 119  97  77  66  53  56  56  71 103 131 142 151 161 160 158 158 160 154 150 144 139 132 115  95  89  73  40  19   1   0   0   0   1   0   2   5   1  12  22   8   4   4  13  10  10  11
   0   1   2   1   1   5  12  18  19   5   0   1   4   0   0   4  27  54  72  80  91 104 119 123 131 140 149 155 154 161 163 148 145 125 118 103  82  74  54  54  60  62  63  80 100 111 118 117 123  93  57  58  50  56  80 103 124 128 143 154 158 160 161 155 152 142 136 134 108  78  83  68  39  12   3   0   0   0   0   0   2   5   5   9   6   4  10   2   8  13  12  10
  15  12   2   3   3   5   8  10   3   0   0   0   2   0   0   2  22  49  74  78  83  91 101 113 129 139 146 151 155 156 133 130 112  86  82  77  67  69  61  61  64  64 120 153 147 147 147 154 159 123  89  68  53  64  80  82  98 112 118 137 155 160 161 157 149 142 135 115  87  67  73  63  32  13   7   0   0   0   0   0   3   6   5   4   6  10  16   9   5  14  16  13
  14   9   0   1   2   1   4   4   3   5   1   2   7   0   0   1  18  36  69  76  76  76  83 109 127 138 145 149 151 144 122 106  80  64  74  85  70  77  90 102 111 116 132 133 143 160 145 127 122 121 124 109  91  93  95  88  82  94 104 108 136 163 165 159 148 134 124 114  77  73  73  51  28   9   3   0   0   0   0   0   8  10   3   7   7  14  16   8   4  16  17  17
   0   0   0   0   0   1   2   3   5   5   0   9  10   0   0   0   5  27  61  71  72  60  71 100 117 129 139 146 147 128  85  75  63  61  79  95  86  93 108 112 120 121 124 123 118 125 117 101 113 120 119 115 102 102 106  86  76  71  85 103 102 143 164 159 149 133 106  99  72  62  67  41  16   2   1   0   0   0   0   0   8  13   6   9  10  18  18   8   6   7  11  13
  21   7   0   1   0   3   5   7   9   5   0  18   9   0   0   0   5  18  51  62  64  53  57  83 105 119 132 140 133  93  58  65  68  71  94 108  93  80  78  83  79  85  93  95  94 103 107  86  71  72  64  65  72  72  89 108  96  69  77  93  78  99 154 160 144 124 102  85  62  49  53  32   6   0   0   1   2   0   0   0   4   5   5  12  14  22  13   8   6   7   8   8
  29  14   5   1   1   6   9   7   4   3   8  25   5   0   0   0   1  11  39  49  56  53  48  59  83 118 132 129 112  82  63  67  80  87  73  61  53  56  65  67  63  75  77  78  83  82  80  84  87  89  85  81  77  57  48  67  94  99  76  98  86  81 131 147 133 114  94  72  56  35  37  24   6   1   0   0   0   0   1   0   1   3   3   8  14  12   4   5   7   7  11  12
   7  10  13   3   1   8   8   2  12  11  14  22   3   2   0   0   0   5  21  34  44  46  46  52  83 105 122 125 105  87  81  90 113 122 101  92  82  90 105 114 125 138 138 138 144 138 138 145 148 142 135 123 115 104  89  90  96 112  94 102 104  78 102 137 117 101  78  66  53  23  22  11   7   4   2   0   0   0   0   1   4  13   8   4   7   5   4  12  19  11   9  14
   9   9  10  12   4   4   4   5   7   1  16  15   3   1   0   0   0   2  13  23  36  44  39  47  68  84 108 131 110  98  91 130 157 162 153 142 126 115 115 118 131 144 152 158 157 153 154 155 155 144 133 126 126 132 142 148 146 147 128 108 101  96  88 118 108  87  68  63  44  22  15   7   2   2   5   0   0   0   0   1  12  22   9   7   9   5   5   7  11  10   6  11
   6   6   5  12   9   6   5   1   0   1  15  10   4   0   1   0   0   1   6  22  29  40  38  57  57  68  95 111 111  99 114 150 167 170 161 149 146 139 128 127 136 142 145 149 153 157 154 153 147 136 137 138 136 143 151 149 154 166 162 145 124 114 111  94  87  70  55  47  38  22  11   4   1   0   1   1   0   0   0   3  32  18   8   8   6   8   6   7   7   8   7  18
   1   1   2  10  10   3   2   0   0   2  12   9   8   0   0   0   2  11   7  16  22  30  49  62  47  57  69  92 120 130 147 156 169 175 165 150 146 146 136 137 140 142 138 140 142 143 142 140 140 136 137 137 137 141 147 157 167 172 169 158 149 128 115 106  71  55  42  38  22  15   6   0   0   0   5   7   0   0   0   0  10  19  13  10   3   5   8   4   3   7  12  19
   0   0   0   5  11   3   0   1   0   1   5   6   6   0   0   0   0  17   7   4  12  25  39  49  42  43  48  86 111 133 152 156 163 169 168 159 153 149 139 129 130 128 122 121 118 120 118 117 123 128 132 139 142 149 162 170 171 169 161 158 157 134 102  84  55  53  34  24  12   8   3   1   0   1   9   7   1   0   0   0   0   9  14   9   5   8  11   7   3   4  12  17
   2   1   0   2   7   5   0   1   0   1   3   3   1   0   0   0   1   0   0   3   9  17  28  36  33  35  42  68 107 139 146 156 162 162 164 163 157 157 150 132 121 119 120 116 106 109 110 120 124 130 135 145 156 166 171 172 169 163 159 159 149 137 101  66  44  40  25  13   6   9   1   1   0   9   9   1   0   0   0   3   4   6   9   9   5  12  12   5   7   6   9  10
   5   9   6   9  40   9   7   2   1   3   6   0   2   0   0   5   9   0   0   1   6  12  22  28  31  33  37  60  97 125 139 147 161 163 161 164 160 160 156 147 143 140 137 120 116 115 123 132 141 147 149 157 168 171 170 170 169 162 155 148 138 127  97  53  37  27  18  10   6   8   0   0   4  10   3   0   0   0   4  32  10   2   4   7   3   7  22  12  10  12   7  10
   8   3   9  13  38  23   9   8   4   2   4   3   3   2   0   0   0   2   0   0   7   8  10  18  23  31  32  49  72 102 128 143 154 160 163 165 162 159 160 159 162 155 147 140 146 140 150 150 152 165 166 168 170 172 172 170 168 164 149 128 109  92  78  52  34  22  14   9  21  14   0   0   2   1   0   0   0   0   3  24  10   4   1   7   5   3  48  47  11   9   8  13
   8   2   1   0  22  32  13  14  11   3   1   1   0   1   1   1  24  35   0   0  10  29   4   9  19  25  33  39  62  86 102 139 142 154 164 168 168 166 166 166 169 172 169 168 161 169 166 170 167 175 178 181 173 173 175 172 165 157 135 107  95  62  46  36  24  11   8  16  43  30   0   1   3   1   0   0   0   3   0   5   6   2   0   8   8   2  43  39   5   6  10  19
  16   7   6   9  12  20  22   9  12  15  12   7   1   0   0   0  16  15   0   0   4  45  32   2  10  22  25  32  40  60  94 120 139 155 161 169 172 170 171 174 173 174 175 172 167 176 174 177 177 180 183 182 180 177 176 172 165 152 121  85  72  49  24  18  12   3  14  44  66  39   0   4   7   0   0   1   3   4   1   6   6   3   2   4   4   6  14  11   8   9  11  18
  32   8  10  19  18   9   9   5   4   9  16  16   6   1   0   0   0   0   0   0   1  41  59  25   8  11  19  24  31  52  72 102 125 136 151 160 166 175 177 176 174 175 169 168 172 161 168 177 174 176 182 181 176 175 170 164 157 136  97  59  45  36  16  10   5  11  42  66  77  44   0   8  10   7   5   3   3   1   2  10   7  13   7   8   2   5  14   9  17  21  10  19
   7   3   2   9  18  13   4   1   0   1   2   3   0   0   0   0   0   0   1   0   0  31  66  67  37  10  16  18  20  34  41  66  92 104 119 139 157 173 172 173 173 178 151 149 149 159 158 158 167 173 170 174 173 163 145 149 135 113  78  52  28  16  10   6   8  32  69  86  77  50   2   7   8  12  12   5   4   0   0  10  14   9  10  14   9  10  13  10  12  15  14  21
   0   1   0   0   4   5   1   1   0   0   1   0   0   0   0   1   0   2   0   0   0  20  51  66  48  19  10  10  12  20  23  35  53  61  81 114 138 138 150 146 154 158 138 135 122 132 147 139 147 154 137 143 151 151 130 114 102  78  61  40  19  12   7   5  37  71  85  98  81  58   5   6  10   3  16   8   3   0   0   7  13  12   2  28  32  10  12   8  18  20  12  18
  14   6   6   8   0   0   0   0   0   0   0   0   0   0   0   0   0   1   1   0   1   4  41  76  69  42  14   7   7  12  14  18  30  38  55  78  86  90 107 112 120 122 127 119  98 115 131 115 128 130 111 111 106 105 104 103  75  51  27  20  10   6   5  30  80  99  97  97  80  54   6   1   9   3  10   9   8   0   0   2  10   9   1  18  12  11  16  13  16  17  15  16
  24  12  78  51   4   7   7   0   0   0   1   0   1   3   1   2   0   0   0   0   0  16  44  70  80  63  29  11   7   8   7  12  22  33  37  45  62  61  67  80  91  99  98 100 100 109 114  93 122 121  86  77  68  58  62  72  45  24  15   7   3   2  27  69  93 111  99  94  82  60   9   0   8   8   0   2   5   4   1   0   5  14  11   4   7   9  16  23  12  10  27  18
   3  31  63  28   2  15  19   6   0   0   1   5   5   6   1   0   0   0   0  12   8  49  44  68  79  79  61  29  11   5   5   7  12  21  25  38  44  37  44  61  74  69  76  85 108  95  85  60 100  98  62  52  51  39  40  40  26  10   5   6   3  20  47  89 108 109 100  95  82  68  17   0   4  12   5   0   4   8  16  10   1  57  67  40  25  16   8  57  70  23  22  20
   5  14   0   1   4   6   8   3   1   1   2   2   2   3   0   0   0   0   2   7   3   0  38  73  83  76  78  54  18   7   5   6   5  11  11  26  29  26  26  49  60  56  63  70  81  73  68  69  74  66  42  38  42  26  20  21  15   6   5   5  11  44  69 100 104 110 103  97  84  67  18   0   2   7   5   5   6   6  32  50   9  33 106  80  60  57  30 106 101  51  59  17
   6   1   0   1   2   2   1   0   1   1   2   4  11   6   1   0   0   0   0   0   0   0  38  73  81  87  67  64  42  16   3   9  10   5   5  15  22  25  24  26  38  42  46  44  52  60  58  61  54  36  25  30  28  19  10   7   7   6   5   7  30  65  85 104 113 110 105  98  84  68  20   0   1   2   3   6   9   6   0  14  55   9  67  79 110  86 112  54  70 102 101  18
   9   5   3   1   3   3   1   0   1   1   1   4   5   2   0   1   2   0   0   0   0   0  30  72  81  88  73  61  55  30   7   5   9   7   6   6   8  12  12  13  17  25  28  29  39  40  33  30  25  16  20  20  13   9   5   5   7   9   5  15  62  87  98 118 116 114 109  96  90  75  26   0   1   3   5   5   4   1   1   0   8   5   0  74  86 127 194 110 102 191 130  28
   4   5   2   5   4   1   0   0   0   2   0   0   0   0   0   1   4   0   0   0   0   0  20  71  83  90  91  76  70  50  33  15   7   3   5   7   6   8   9   8   9  13  14  16  18  19  17  14  10  10  10  10  10   4   8  12   4   3  10  39 101 102  99 112 112 111 116 104  96  81  29   0   0   5   6   6   1   0   0   0   0   0   0  13  81 164 210 168 122 235 108  75
   3   4   2   4   1   2   1   1   1   1   0   1   1   0   0   0   1   1   0   0   0   0  14  68  89  92  98  90  80  73  55  47  24   7   4   5   7   6   5   8   7   7   7   9   9   9  11  10  12  13  11   8   7   6  16  10   9  12  20  63 108 124 103 106 111 114 116 108 100  83  32   0   1   2   2   1   0   0   0   0   0   0   3   1  16  55 112 120  98 134  60 176
   7   8   5   5   5   1   2   1   1   1   0   3   1   0   0   1   2   2   0   0   0   1   9  61  87  95 101  98  81  83  75  68  49  36  19   7   4   5   8   8   5   6   7   6   8   8   9  11   9   9   8   6   4   4   7  13  21  13  25  78 117 125 103 112 110 118 118 112 105  86  42   1   0   0   1   0   0   1   0   0   0   0   2   4   0   0   0   1   9   6  48 158
   2   1   3  10   6   3   0   0   0   2   6   2   0   1   2   1   2   2   0   0   0   0  13  58  84  95 100 101  92  90  85  82  68  62  58  38  21  14  12   5   4   4   6   5   7   6   7   8   6   3   4   5   5   9  13  13  15  18  72 109 120 126 113 110 119 118 121 121 114  99  66  12   0   0   0   0   0   0   2   1   1   2   4   5   4   1   3   1   3  11  18  22
  40  44  21   3  56  93  71   7   0   1   3   0   1   1   0   0   0   0   0   0   0   0  11  58  89  96 100 101 101 100  88  84  81  76  69  66  52  38  26  13  13  13   9   5   6   6   4   6   7   8   4  10  17  24  22  37  51  82 108 101 119 125 125 112 120 126 125 123 121 112  93  31   0   0   0   1   2   4   6   6   5   7   5   3   3   2   2   4  10  14  18  19
 149 158 138  38  72 162 163  94  20  21   4   2   3   2   1   0   0   0   1   0   0   0  17  67  88  97 104 105 104 105 101  99  89  81  81  76  78  65  56  52  36  31  29  26  19  16  20  20  19  16  28  42  52  64  77  93 109 123 108  96 120 128 125 119 126 126 129 125 122 117 106  59   1   4   4   7   9   9   9   9  10  12   8   6   8   5   8  14  16  16  21  23
