P2
# Generated by OpenCV 4.2.0
92 112
255
   4   4   4   4   4   4   3   6   7   4   4   5   5   7  12  17  20  24  27  31  31  33  35  34  31  22  21  24  19  16  16  13   7  10  15  19  26  36  41  38  38  41  42  27  14  19  46  74  77  62  54  51  88 169 190  96  26  56 106 150 185  99  52  34  36  77 132 182 138  35 143 237 231 236 236 236 233 232 231 228 226 224 222 219 216 213 210 207 202 195 184 168
   4   4   4   4   4   4   3   5   4   4   4   6   6   7  12  17  21  24  26  30  32  34  38  37  29  24  23  16   9  13  11  10  14  17  25  27  29  35  41  41  42  36  25  21  13   8   8  19  45  65  64  56  58 109 115  52  33  31  52  98 100  38   8   5   9  12  22  47  96  64  40 164 235 240 235 241 239 238 237 236 235 233 231 229 227 225 223 219 216 211 204 191
   4   4   4   4   4   4   4   4   4   4   4   7   7   8  13  19  23  25  23  28  36  41  40  31  25  16   9  13  15  14  14  15  20  24  24  29  34  37  44  52  56  59  51  44  38  26  13   3   3  20  40  59  55  54  52  32  37  34  35  45  27  22  18  18  23  19  14   6  10  42  27  31 140 230 247 245 245 243 243 242 241 240 239 237 236 236 234 232 228 224 218 209
   4   4   4   4   4   4   4   4   4   4   6   7   7   8  15  20  24  30  26  19  24  23  20  21  14   5   9  17  13  10  11  12  13  15  18  21  18  17  22  27  31  39  48  57  61  58  54  38  15   2   2  17  43  51  45  45  52  47  41  52  46  46  28  29  23  19  23  21  14  11  20  22  25 103 193 222 247 250 246 245 245 244 243 243 242 240 240 238 235 231 226 221
   4   4   4   4   4   4   4   4   4   3   6   7   7   9  16  21  29  31  23   8   7  11  14  11   5   4   5   6   7   5   8   9   9  10  13  21  24  26  22  15  11  21  28  37  35  31  39  46  45  38  18   1   4  29  41  42  48  42  40  44  55  38  19  27  36  40  41  37  37  27  15  13  26  34  97 189 231 241 249 249 248 247 247 246 245 244 243 242 241 236 233 229
   4   4   4   4   4   4   5   4   4   7   7   7   7  11  17  25  32  41  37   9   4   7   8  13  17  13   8   5   4   4   4   1   6  16  19  14  22  34  44  48  26   9  17  29  37  41  22  20  24  32  45  34   8   2  17  27  35  38  36  37  39  23  29  48  55  46  44  42  30  21  23  20  16  39  41  84 200 250 233 249 249 249 249 249 248 248 247 245 243 240 237 234
   4   4   4   4   5   5   5   4   4   6   7   7   7  13  21  29  39  46  30   8   6   8  11  15  20  22  24  22  13  10  12   6   3   4  23  33  15  18  40  56  61  39  10  16  28  44  52  38  21   9  17  35  42  17   3  13  20  31  25  26  18  25  29  31  30  35  31  28  27  26  18  18  12  18  43  43  56 162 242 234 251 250 250 249 249 249 249 247 245 244 242 239
   4   4   4   4   5   5   6   4   4   7   7   6   7  15  26  36  34  13   1   1   1   1   1   4  10  19  30  35  43  30  22  22  26  20  13  35  47   8   9  37  60  67  48   7   8  37  46  49  51  30   9  18  34  38  19   8  11  21  22  18  16  27  32  41  49  50  50  42  43  23  15  13  11   7   5  16  24  26 116 216 245 254 250 251 250 250 249 249 248 246 244 241
   4   4   4   4   5   5   5   4   5   7   7   6   7  19  29  20   6   0   0   0   0   0   0   1   0   4  23  37  50  55  57  37  25  36  42  38  59  56   7   2  34  61  56  45   5  10  41  46  50  54  27   3  20  30  35  21   8  11  20  21  21  30  44  59  75  74  65  58  49  23  21  16  11  10   6   3   2   8   7  75 209 255 252 251 251 251 250 250 249 248 245 244
   4   4   4   4   4   4   4   4   4   6   7   6  11  22  15   4   2   2   2   1   3   2   1   2   1   2   5  31  44  60  62  70  43  40  52  53  56  75  54   8   3  30  52  47  34   1  13  41  43  47  46  12   3  22  28  27  18   8  12  21  24  23  37  58  75  70  63  69  55  38  33  19  16  10   7   9   9   8   5   2 101 238 255 249 251 250 251 250 249 248 246 245
   4   4   4   4   4   4   5   5   4   6   7   8  12   8   3   2   4  12  17  17  22  21   8   7  13  17  12  27  40  43  62  61  60  45  50  51  42  61  68  42   3   7  29  44  40  21   1  22  34  42  41  22   2   8  24  25  21  12  10  19  22  22  34  57  62  57  57  64  53  30  21  24  27  19  18  15  13  10   9  22  17  82 238 254 250 250 250 249 249 249 246 245
   4   4   5   5   4   4   4   4   5   7   7  10   8   3   0   0   0   7  29  49  57  61  44  22  24  36  31   9  32  23  39  60  48  55  41  46  43  35  59  50  33   4   8  30  39  27  14   9  24  29  34  26   8   4  16  25  21  14   7  16  24  22  26  42  38  41  36  49  34  28  46  61  42  32  21  15  11   7  10  34  54  15 116 255 252 249 249 249 249 249 246 244
   4   4   5   5   4   4   4   4   6   7  10  11   6   1   1   1   1   1  18  53  69  78  72  47  48  47  47  24  13  18  12  36  47  37  46  30  48  30  32  40  35  26   2  10  33  30  18   9  17  19  26  24  10   5  10  22  19  15   9  15  28  24  19  22  25  24  20  40  40  57  73  66  43  35  26  16  10  10  11   9  17  20  22 190 255 248 249 249 247 246 244 242
   4   4   5   5   4   4   4   6   7   9  12   9   3   3   2   1   1   5  11  41  45  46  62  69  62  53  48  35  15  18  10  14  32  28  28  37  30  39  20  24  23  30  20   5  16  32  17  11  18  12  19  22  14   5   6  18  17  18  13  14  31  29  12  12  15  13  27  42  56  61  61  42  35  33  25  19  19  19  13   9   4   0  57 117 232 250 246 245 244 244 242 240
   4   4   5   5   4   4   4   5   6  12  10   3   4   2   2   6   3   5   9  40  30  23  34  84  68  54  44  37  14  12  11   5  17  28  16  29  24  25  22  15  17  18  28  16   9  27  19  13  19  12  15  19  15   7   9  16  16  19  14  17  36  25  10   8  14  27  42  45  45  48  34  34  41  43  44  36  27  21  13  11   9  15 120 156 176 254 243 242 241 242 239 238
   5   4   5   5   3   4   6   7   9  12   5   4   2   6   5   4  10   2   7  39  22  13  15  68  63  47  46  37  29   3   8   7  13  19  17  17  24  17  17  15  12  16  18  27  14  17  20  19  19  16  14  20  16  15  12  14  19  20  15  28  35  22  14   9  27  39  39  37  36  32  28  34  30  27  28  25  25  20  17  14   8  18  55  76 156 251 239 238 238 239 235 234
   5   4   4   5   5   6   8   7   9   9   5   4   5   8   6   1   3   6   6  20  15   8   7  42  46  32  38  36  28  11   4   7  13  14  17  10  17  18  13  16  15  17  18  22  24  18  17  24  25  20  15  17  20  23  14  16  17  22  19  29  28  25  14  18  32  32  31  28  24  18  22  25  27  30  30  30  39  40  35  23  16  25   9  67 192 236 234 234 233 232 230 229
   4   4   4   4   6   6   7   7   8   5   3   8  11   8   6   8  17  28  27  19  14  16  11  24  34  22  20  31  20  15   7   8  15  16  18  13  17  20  16  17  16  19  20  25  26  29  19  25  31  28  23  21  28  25  19  20  18  21  21  30  27  22  17  23  29  28  26  25  17  21  30  35  49  59  64  63  56  53  48  39  23  32  29  77 216 217 225 228 226 225 223 222
   4   4   4   4   5   6   7   9   8   6  20  20  17  16  17  25  51  64  53  26  17  17   9  11  24  22  18  21  22  13   9  12  16  18  21  20  18  20  17  21  19  24  25  31  27  32  27  27  47  41  29  29  37  33  24  26  24  22  28  30  30  23  23  24  28  29  23  16  15  24  26  31  48  55  61  68  66  61  54  45  29  15  63  47  85 200 220 219 219 218 216 214
   4   5   4   4   6   7   6  12  17  24  19   8   7  10  15  10  40  47  46  27  18  10   7   8  16  19  17  18  24  23  15  16  22  28  31  29  28  25  22  29  30  31  34  36  36  35  42  42  65  50  39  46  57  47  35  33  30  29  33  34  32  29  30  29  30  25  24  24  23  16  20  26  31  35  38  41  43  37  32  38  32  20  44  96  42 107 192 213 209 210 209 207
   4   4   4   4   6   7   7  21  27  17   9  13  19  20   7   3  19  32  29  27  19  14  13  12  13  20  21  17  16  23  26  25  27  41  44  47  46  40  35  42  44  47  53  49  55  44  57  61  79  64  63  67  79  67  57  49  41  39  46  45  39  38  39  38  29  28  33  40  46  31  24  29  35  39  44  38  32  34  28  25  25  25  18  41  59  81 133 203 199 201 202 201
   4   4   5   6   7   6  13  25  13  13  20  24  26  23  30  39  30  25  21  20  20  18  16  15  17  23  28  26  26  25  26  30  35  46  60  68  69  65  62  56  63  68  74  68  71  65  77  84 106  93  91 101 103  98  89  72  66  61  61  55  54  51  45  43  39  33  28  41  60  66  48  37  36  37  45  48  43  38  36  29  17  16  17  14  13  53  93 172 189 193 197 199
   4   4   5   6   7   9  18   9   8  26  26  20  21  35  53  68  61  31  15  15  16  25  27  21  24  32  32  33  37  37  35  38  45  52  70  99 107 100 102  93 100  94  95  92  99  91  95 109 130 127 136 137 130 129 114 102 104  94  86  82  77  68  63  58  52  49  47  38  47  63  65  53  45  40  44  51  56  55  48  40  28  22  18   8   6  15  58 124 179 185 190 198
   4   7   7   6   7  10  13   4  26  33  25  30  43  58  56  50  39  27  19  18  21  26  37  38  33  37  41  39  41  49  56  58  64  75  85 106 132 145 147 132 130 126 115 114 113 108 114 135 151 156 163 162 166 172 163 151 155 146 138 129 113 103  92  81  69  61  62  56  40  41  49  56  56  49  46  49  49  48  55  52  44  33  26  12   9  10  16  88 161 190 190 200
   5   5   7   9   8   9   8  13  42  35  38  43  44  40  33  26  23  21  19  28  34  37  44  49  45  47  52  51  57  72  88  90 101 119 141 155 167 179 183 169 159 161 141 137 131 124 131 154 169 175 174 175 184 188 188 185 182 181 179 170 158 147 130 118  97  78  63  61  52  39  29  46  49  44  41  39  39  36  38  40  41  35  25  22  15  20  41  29  92 175 201 202
   5   4   6  10   8  11  11  32  41  25  19  17  30  36  37  29  19  19  21  31  48  65  74  81  71  68  77  84 101 112 126 145 156 167 179 188 190 193 194 190 185 183 169 154 148 141 151 169 181 182 183 182 188 194 192 189 187 187 187 184 178 174 164 153 133 109  86  72  56  41  28  24  36  39  33  32  33  33  30  30  30  28  24  23  19  15  38  47  31  96 190 208
   3   6   6   8  14  10  23  41  23  12   9  12  26  33  26  23  23  25  33  47  72  97 109 110 110 107 111 126 144 158 174 186 195 200 197 199 201 203 204 200 193 191 184 167 166 165 168 180 187 190 193 191 193 194 195 194 192 187 188 186 180 178 175 166 156 136 112  89  65  44  30  16  20  28  30  29  28  31  36  35  30  23  19  25  14  16  25  65  35  65 145 201
   4   8  11  15  14  17  36  32  14  10   7  12  22  32  42  44  44  40  49  70 101 128 142 132 134 140 148 160 170 181 190 194 196 201 202 202 204 206 204 203 200 195 193 183 182 181 183 186 193 195 198 196 197 197 193 193 192 190 189 185 180 179 178 171 161 150 133 112  83  50  35  23  15  14  21  28  30  33  32  29  27  22  20  31  23  25  30  25  30  88 135 185
   4   6  13  17  14  27  35  20  12   6   7  10  23  52  68  52  41  42  62  93 130 150 154 154 165 166 168 174 178 184 189 192 196 200 203 203 202 203 207 204 204 201 202 197 193 191 191 191 191 193 197 200 201 199 196 194 194 191 187 184 183 179 174 170 164 158 143 126  99  62  37  29  18  16  16  15  17  22  20  22  24  19  25  25  15  25  87  97  31  63 156 208
   5   7   7  14  20  32  28  19  10   5   9  11   9   6  19  32  41  58  75 111 146 160 163 167 173 175 177 180 181 181 187 191 195 200 201 202 202 204 206 207 210 208 204 202 201 200 198 199 196 195 196 199 202 200 198 196 196 192 189 188 183 179 174 168 164 158 147 133 111  78  44  29  23  17  19  18  19  21  19  20  23  11  16  14   8  30  88 146 126 130 187 212
   7   7  10  14  18  26  21  17   7   6   6   7   1   7  14  25  41  59  87 127 156 161 165 169 172 176 177 176 179 183 181 189 195 200 203 204 205 205 205 209 207 205 205 203 202 202 201 200 197 196 197 198 200 199 198 196 196 193 191 189 183 179 177 169 162 157 152 144 120  93  60  39  30  21  16  17  18  12  11  17  24  22  12   7  13  25  74 125 137 165 183 207
   6   6  12  11  13  21  21  13   5   5  11   2   5  16  23  31  45  62  90 134 157 155 160 161 169 174 177 178 178 180 180 188 193 197 201 204 203 205 203 204 202 202 203 203 200 201 201 201 198 198 198 195 200 198 197 198 197 193 192 189 185 180 177 170 162 157 152 145 133 106  75  51  41  23  18  25  26  23  25  24  24  19   7  10  25  22  80 128 139 170 145 196
   6   8  12  13  13  16  19  11   3  12  15   4   8  14  29  33  46  65  95 132 155 155 156 162 170 174 177 181 177 176 184 191 192 195 197 200 204 206 201 201 202 200 198 199 196 197 200 198 194 199 201 199 196 196 196 195 193 190 189 187 183 177 174 171 161 152 149 145 142 122  95  71  48  29  21  22  29  34  32  27  22  21  22  26  25  18  81 127 148 149 136 197
   8  11  16  14  12  16  14  10   4  21  13   7   6  12  27  40  48  69  99 134 153 155 154 164 172 170 173 178 176 175 184 189 191 194 195 197 200 202 198 198 201 199 198 199 195 194 198 197 194 195 199 197 193 196 195 191 186 188 187 183 183 178 174 169 158 148 148 147 139 129 109  84  68  37  21  15  16  27  25  25  30  28  31  28  18  17  40  65  91 112 177 212
  14  26  22   9  15  11  13   8   8  18  14  10  10  21  31  39  49  70 100 132 152 154 158 164 167 169 173 175 178 179 185 186 187 190 192 196 198 199 199 200 201 201 197 199 198 196 200 199 196 199 200 199 197 195 191 191 187 186 186 184 183 180 176 168 157 148 147 147 140 128 117 105  86  56  28  13   7  15  21  10  13  18  18  14  12  13  80 142 162 188 200 206
  45  32  20  18  13   7  11   6  14  14   3  12  17  19  25  34  51  72 103 137 153 151 159 165 166 170 172 177 174 180 185 186 189 189 191 194 195 197 200 200 197 198 197 195 197 200 198 197 196 197 194 194 197 192 190 190 190 192 192 190 185 180 176 169 155 151 151 145 135 124 124 122  98  65  38  19  10   5  11  16  14  13   6   2   1  33 143 181 186 181 195 210
  66  32  11  16   8   5   7   6  15  16   1   6  14  17  26  37  54  73 103 131 148 150 160 166 165 172 176 176 180 182 184 186 188 189 189 190 192 197 199 197 197 198 199 200 197 198 200 198 193 194 194 194 192 191 192 190 189 190 191 189 183 180 174 168 159 155 150 144 132 130 129 122 109  81  47  22  12   8   4   7  13   9   6   5   2  82 160 169 176 171 204 210
  21  27   5   2   2   3   6   6  19  16   7   6  11  21  26  37  56  74  95 129 145 151 160 164 168 174 175 177 182 182 183 185 187 190 190 191 190 194 194 197 197 194 195 195 196 193 197 196 196 198 195 193 191 193 193 193 193 190 189 188 185 178 174 168 159 155 150 143 136 132 135 129 113  90  56  27  15   9   5   4   8   9   7   7   7  82 126 155 146 188 203 207
   4   7   4   0   0   4   5   6  21  10   1  10  17  22  27  36  55  71  94 124 141 152 155 158 165 172 174 176 180 178 184 188 187 192 193 195 193 195 195 198 197 195 193 194 196 194 196 193 196 194 192 191 191 193 193 192 193 188 190 188 187 180 173 165 157 155 150 143 138 136 135 124 114 101  70  36  20  15   9   6   4   5   7   6   6  51 117 120 168 197 199 209
   4   2   3   6   1   2   4   6  23   9   1   5  12  23  27  34  50  69  92 118 136 150 155 160 165 167 174 178 182 182 184 189 192 192 192 195 195 196 196 196 200 199 197 196 198 197 196 193 194 194 193 194 194 193 193 191 188 186 188 186 183 181 174 165 161 156 153 150 145 140 131 119 109  95  74  39  19  10   5   5   2   1   2   6   5  73 105 134 190 193 202 208
   8   8  10   9   2   1   2   4  17   6   1   2   5  17  26  32  46  66  82  97 134 150 159 163 166 167 169 176 183 185 186 191 191 190 189 191 194 193 194 194 196 197 197 197 197 194 194 190 192 195 197 194 194 195 192 190 188 189 189 187 183 178 171 166 162 156 155 154 149 141 132 124 114  96  71  46  20  10   7   4   0   1   2   5   6  44  75 151 186 194 202 207
   7   7  10  10   2   2   3   4  12   6   4   3  10  14  16  26  42  64  76  88 136 144 156 162 168 171 171 174 179 182 186 190 192 189 191 192 196 192 194 195 196 196 195 194 192 192 194 194 194 196 193 192 191 192 190 190 187 187 186 186 184 179 168 165 160 158 155 154 147 142 131 119 111  99  76  54  23  12  10   5   0   0   2   8   8  34  99 145 185 196 201 208
   7   7  10  14   5   4   2   1  10   7   4   5   8  10  14  24  40  63  88 111 131 139 153 166 171 172 175 175 175 180 184 186 188 191 192 191 194 195 195 194 197 198 195 193 191 192 193 194 193 194 191 190 189 189 186 188 184 182 183 183 182 175 171 165 162 164 160 154 147 140 128 111 104  94  84  63  31  14  10   7   3   4   7   8   5  36 103 166 190 195 201 207
   8   9  11   8   5   0   1   0   6   4   3   5   8  10  15  24  38  60  86 111 125 137 151 164 171 172 174 175 174 179 185 181 185 188 186 188 191 192 191 191 192 192 194 196 191 190 192 190 191 192 189 188 186 186 181 182 177 179 178 175 173 170 165 163 165 166 160 155 148 137 124 112 100  95  91  72  38  16  12   7   3   4   5   3  14  66 153 183 189 195 201 207
   7   7   8  11   2   1   1   0   2   3   1   3   6  11  12  20  42  64  85 107 119 132 149 159 166 170 174 174 173 177 178 179 180 181 180 183 184 185 185 188 187 191 192 196 191 185 186 186 188 188 188 185 184 181 182 176 168 171 169 171 168 161 155 157 168 170 166 161 154 140 120 105  96  94  93  77  46  15  13  10   4   4   2   1  27  93 163 181 188 197 201 206
   7   7   9  12   1   1   1   0   2   2   0   2   8   7   8  21  56  77  94 104 117 130 142 149 160 169 171 172 176 172 173 174 172 171 176 181 180 177 179 185 185 185 192 192 189 186 185 181 186 191 188 183 183 181 182 171 160 156 165 167 164 161 163 164 163 159 155 153 149 139 124 107  91  97  92  80  56  17  12  13   8   3   1   4  34  82 162 179 188 195 201 205
   7   7   9  11   5   2   2   0   1   2   2   5   5   5   7  27  68  87 101 106 116 128 139 150 159 165 167 173 176 173 177 172 169 169 172 176 178 180 180 178 181 181 187 187 186 188 188 177 178 182 182 180 182 182 180 170 159 157 170 171 166 169 164 147 120 103 105 110 113 115 111 102  92  96  91  83  67  27  10  11  10   5   1   5  42  89 128 172 185 194 200 205
   7   7  10  10   9   1   6   4   1   3   2   4   6   6   7  32  78  91 104 108 117 129 141 155 158 165 173 176 175 178 181 178 178 172 172 172 176 180 181 182 183 184 183 178 180 178 183 168 166 173 180 179 179 182 175 169 165 165 170 168 158 142 121  90  80  84  77  75  69  66  64  59  69  87  90  86  75  33  13  11  10   8   4   4  45 105  98 145 184 194 198 204
   8   8   8   9  11   4   2  10   8   1   2   2   4   6   7  38  86  94 103 110 116 130 143 147 154 165 150 147 155 163 179 181 180 177 176 173 175 177 178 181 178 178 173 167 171 172 179 161 155 166 168 175 178 177 177 168 152 134 133 125 108 105  92  78  69  61  65  77  68  49  41  53  60  74  88  86  79  37  15  13   9   8   5  26  72  93  73 103 172 193 197 201
  10  10  10  10  11   7   2   6  12   6   2   2   4   5   7  40  92  99 106 111 113 129 130 130 137 114  93  99 107 124 136 146 159 164 168 166 161 169 172 169 166 163 159 155 159 167 172 160 133 143 149 155 157 148 148 134 110  84  69  60  59  67  75  63  68  82  93  89  78  66  61  67  61  64  82  89  85  46  15  14   7   4   4  43  93  64  74  89 153 192 194 198
  10  10  10  10  11  11   3   5   2   3   2   1   3   6   7  45  96 105 107 107 102  93  82  77  77  70  68  72  80  86  84  91 100 104 103 101 105 107 107 119 131 126 127 131 154 164 170 162 122 105 117 118 115 107  86  65  50  41  41  48  53  60  63  73  92 111 112  99  96  88  88  83  70  65  80  90  92  58  18  13   6   6  12  22  41  63  99  81 161 188 188 193
  11  11  10  10  13  13   8   8   3   0   2   1   3   5   9  48 100 108 111  98  88  64  43  46  45  45  55  63  67  66  65  63  59  53  47  44  45  40  48  66  81  82  81 111 143 161 173 167 127  87  84  78  73  65  50  40  42  45  43  47  56  64  73  80  79  89  98 102  95  95  92  88  81  77  86  89  92  73  24  13   4   6   8  18  57 102  62  70 162 178 182 189
  13  13  12  10  13  16  10   2   2   3   1   1   2   3  12  52 106 114 117 101  78  68  73  76  68  70  70  75  77  70  63  57  50  45  40  33  32  35  41  52  57  66  69  99 128 148 171 169 140 110  78  65  67  57  48  42  32  35  36  40  44  49  67  79  78  72  63  62  79  89  92  95  92  86  90  93  94  83  33  14   6   8  10  52  85  55  40  98 159 177 180 185
  12  12  12  12  12  17  15   3   5  10   9   1   1   5  13  55 111 118 121 112  96  89 100 103  93  94  99  97  84  71  64  61  53  45  40  35  33  34  33  41  56  66  74  93 117 140 169 173 158 138  98  73  66  60  48  30  34  37  38  21  22  48  31  30  47  70  83  63  54  80  92  97  95  94  97  98 101  90  43  16   8   7  11  22  25  24  73 137 167 173 176 180
  12  12  12  13  16  20  20   6   8  13  13   5   1   5  14  63 117 126 121 117 110  98  99  97  92  87  80  67  62  71  66  48  33  31  19  29  39  38  39  31  40  54  67  90 121 151 177 177 167 152 117  84  65  53  44  45  43  45  69  23  45  48  31  15  36  42  50  69  78  91 102 106 103 105 106 104 102  95  56  20   8   7  15  30  25  43 134 162 162 169 172 174
  13  13  13  13  17  25  27  22  14  16  12   6   1   7  22  66 121 129 124 122 118 107 103  94  78  65  52  68  75  54  34  10  45  61  33  25  74  56  46  46  46  56  61  80 121 159 184 190 180 159 125  85  63  54  58  46  49  74 103  52  29  25  31  29  81  77  56  56  77  97 108 113 115 122 120 113 106 100  70  28  10   8  28  46  33  69 149 155 161 166 169 171
  13  13  13  15  16  16  26  33  31  25  16  16   7  13  29  73 119 134 132 126 127 119 109 104  91  82  83  71  44  48  60  17  32  25  36  40 111  87  52  50  67  73  70  87 121 162 188 198 188 169 134  89  74  75  70  62  74  91 115 111  86  95  98  96 103  96  85  73  93 113 120 127 130 136 137 127 111  99  78  34  12  10  33  39  32  78 151 154 162 166 168 169
  15  15  15  16  17  13  21  52  42  31  17  12   9  17  34  76 121 132 139 139 140 136 123 119 110 100  82  58  55  81 112  56  31  37  38  81 121  95  77  80  79 100 104 105 125 167 190 198 189 173 140 104  99 113 110 109 100 111 122 134 130 133 128 119 106 106  91  97 127 146 151 146 147 147 149 137 119 101  83  43  13  17  39  29  43  95 153 157 163 168 168 168
  17  17  17  17  17  15  23  80  59  36  22  11   9  19  32  81 121 128 140 151 156 150 140 136 133 129 107  87  90 106 123 119 117 130 126 127 119 108  95 103 123 132 132 132 137 167 186 198 194 175 147 122 125 136 141 126 113 113 115 121 121 121 120 118 107 100 111 134 149 158 161 158 159 156 154 142 125 104  84  49  16  18  32  35  58 105 160 157 163 168 168 167
  19  19  19  18  18  16  19  81  68  52  44  15   9  18  35  83 120 131 143 155 167 162 158 159 162 153 138 118 106 113 116 123 126 135 134 128 119 100  99 117 138 147 151 154 146 160 176 194 193 173 148 125 139 145 139 137 136 139 143 137 130 126 124 125 135 143 156 161 160 170 169 169 169 162 158 149 133 107  88  54  18  19  36  53  74 124 165 158 164 170 169 167
  19  19  19  18  19  18  17  72  88  77  61  15  10  20  39  83 116 126 143 161 172 174 171 171 173 165 152 143 122 107 108 119 120 120 114 106 113 125 136 141 149 162 172 166 149 156 171 184 189 177 151 126 140 161 158 155 157 159 171 175 175 178 177 172 176 176 176 178 177 178 174 173 176 173 160 150 137 109  86  59  20  19  57  71  86 133 172 165 171 175 175 173
  20  20  19  18  19  18  14  51 106  89  46  13  21  26  40  83 112 124 146 162 172 179 181 177 177 175 170 168 157 150 142 135 136 136 142 156 170 167 162 161 170 184 180 166 150 157 166 182 191 179 151 127 136 156 173 171 173 175 176 177 179 182 183 184 187 185 185 183 183 180 177 177 178 173 163 151 135 112  86  57  20  26  79  84  83 139 180 174 176 181 181 182
  21  21  21  21  21  21  17  30 105 100  55  17  29  25  41  86 111 124 142 163 176 180 180 184 183 182 186 180 176 183 187 187 190 190 189 187 180 179 182 181 184 188 179 163 152 157 164 185 195 178 147 126 132 147 164 176 179 179 179 182 180 179 180 182 184 180 184 181 178 177 179 179 178 173 164 151 133 111  84  53  17  38  90  88  89 155 192 186 186 191 193 194
  21  21  21  21  21  21  21  21  90 123  68  21  29  22  43  86 110 122 143 164 176 180 185 189 186 185 188 186 185 189 191 191 187 184 187 186 184 187 190 192 191 183 172 160 153 157 172 189 194 177 147 126 131 142 157 173 184 182 182 183 185 185 183 185 184 182 185 182 180 178 181 176 178 174 158 148 130 108  84  51  16  43  87  81  90 167 195 193 198 203 203 202
  22  23  22  22  22  21  20  20  69 131  72  23  32  31  43  81 106 126 142 159 171 180 187 188 187 187 184 186 187 189 188 187 186 189 188 189 188 191 196 198 187 179 167 158 155 158 168 185 191 178 148 129 134 144 152 167 182 186 185 187 191 192 189 190 190 188 186 182 178 177 176 169 172 170 156 139 127 105  84  47  17  43  84  76  96 171 198 201 207 210 211 211
  23  24  23  24  23  21  21  24  52 129  92  22  35  42  39  74 104 124 136 152 171 181 182 186 185 186 184 185 185 187 189 190 190 187 188 194 199 201 201 193 186 176 162 155 155 161 171 188 191 176 155 135 134 140 151 166 179 189 188 193 193 195 194 187 188 189 184 179 178 176 173 170 165 159 151 136 119 102  79  43  22  38  82 104 107 175 206 207 212 215 216 216
  22  23  23  23  23  22  21  28  49 130 121  29  37  35  33  70  99 115 135 148 164 175 182 184 183 186 187 186 189 191 190 191 189 190 191 197 202 200 200 192 183 172 161 158 157 167 180 189 191 177 161 146 140 140 148 160 176 183 185 189 191 192 193 191 192 187 188 186 179 173 170 167 158 151 142 127 112  94  73  39  28  46 101 116 109 183 211 210 215 218 219 219
  24  26  25  24  24  22  22  29  56 132 135  39  35  29  34  61  94 107 128 147 160 170 174 176 180 185 188 188 191 195 191 193 196 198 199 202 201 201 196 188 180 172 163 157 160 170 178 189 190 179 168 154 145 138 142 153 174 181 189 192 191 193 191 195 192 190 186 186 183 173 168 165 154 144 134 121 107  89  63  31  27  55 108 105 118 191 216 213 217 219 220 222
  25  25  25  25  25  23  23  33  58 134 137  69  36  35  36  51  87 107 121 140 154 166 166 172 178 180 185 189 190 190 195 196 197 199 200 201 199 199 195 189 177 169 158 156 160 167 178 188 187 183 173 161 151 135 131 147 170 185 189 191 196 198 193 190 191 193 190 185 177 171 165 159 148 137 127 113  99  84  54  24  22  49  97 102 121 197 219 217 218 221 222 222
  25  25  25  25  25  24  23  37  56 130 141 104  50  22  27  41  75  99 117 134 147 159 164 171 177 180 183 188 190 191 194 196 194 196 197 198 199 199 197 189 175 163 146 152 163 169 180 186 192 185 170 162 154 140 121 137 165 182 186 187 194 193 192 191 190 188 186 182 174 168 163 157 145 133 121 109  92  75  45  23  27  43  96 113 126 206 220 220 221 222 223 223
  25  26  25  25  25  24  25  40  59 131 162 130  82  35  25  35  64  91 112 130 141 152 161 166 172 177 185 184 187 193 190 194 195 196 198 198 201 199 196 186 174 151 136 150 166 171 184 197 202 190 174 162 155 142 122 124 161 179 188 191 193 195 192 187 192 186 180 175 167 165 156 149 137 124 117 101  82  66  34  25  37  50 106 116 134 214 222 222 223 224 224 225
  25  25  25  26  25  24  28  43  60 129 168 145 101  61  39  28  53  87  99 117 137 146 154 162 171 176 181 181 190 193 193 193 194 196 197 197 196 195 193 184 162 145 141 151 167 178 191 201 204 199 181 167 157 142 129 129 146 175 184 191 191 192 192 189 190 186 180 170 163 159 147 140 128 120 105  85  73  55  26  25  31  69 129 120 142 217 223 222 224 225 225 226
  28  28  28  27  26  25  30  47  61 131 173 163 133  63  40  28  44  79  93 107 129 141 146 156 168 167 175 182 189 192 193 191 194 193 192 193 191 190 186 176 157 151 150 153 166 176 191 205 199 194 190 171 159 144 130 135 142 163 176 185 188 188 187 188 187 180 173 171 161 152 148 141 121 111  95  78  68  45  22  20  34  93 131 115 155 222 222 222 224 224 224 225
  27  28  28  28  27  25  33  50  59 126 175 170 160  89  32  29  42  71  88 103 119 134 142 153 165 164 174 178 177 185 191 193 193 193 192 187 184 184 177 170 161 158 150 152 161 170 183 192 187 179 178 162 143 127 120 128 130 148 171 178 187 188 184 186 184 181 171 169 160 148 144 132 113 103  90  80  64  35  23  24  50 105 124 111 185 219 216 220 222 222 223 224
  29  29  29  28  27  26  35  52  62 102 158 162 160 115  30  26  33  62  82  98 111 121 129 149 158 163 173 179 178 183 185 191 192 190 189 183 184 182 176 169 156 155 143 138 145 154 167 176 177 171 159 141 113  94  79  90 103 124 167 172 181 185 182 183 185 183 169 160 154 146 139 127 109  98  83  70  57  28  20  21  57 100  95 150 215 214 215 219 220 220 221 222
  30  29  29  29  28  27  38  53  68  78 106 133 145 119  32  19  26  53  81  93  97 109 124 141 148 154 168 177 178 182 185 186 191 188 188 188 183 174 179 168 132 112  82  71 103 124 140 155 158 145 134 115  83  31  23  43  71 104 162 173 180 183 180 176 179 177 167 160 152 144 135 125 105  92  78  68  51  22  18  14  57  92 140 204 212 212 214 217 218 218 219 219
  31  30  30  31  29  29  41  55  70  82  87  90 101 109  45  20  26  50  74  86  93 103 119 133 144 154 163 171 177 178 181 184 188 189 187 188 179 179 192 172 110  72  39  22  28  77 111 122 117 107 105  81  28  18  50  66  73 102 159 177 176 178 175 173 172 168 164 161 151 142 134 120 101  86  71  66  47  20  16  21  85 155 199 204 206 210 213 215 217 217 217 216
  31  31  31  31  29  30  42  56  70  83  95  99  97  84  40  23  29  48  63  79  87 101 118 124 139 152 161 166 174 176 183 186 184 183 179 178 181 190 194 176 116  81  81  76  61  60  79  83  73  69  72  55  50  69  88  88  79 119 163 181 180 180 177 175 172 169 164 159 154 145 130 113  99  81  72  62  39  24  24  72 165 185 188 195 202 207 211 215 217 217 217 216
  31  31  31  31  29  32  43  57  68  82  92 101 110 100  64  33  30  42  61  70  78  96 110 120 129 144 151 158 168 175 179 184 181 183 177 182 190 195 193 181 150 108 109 115 108 102  84  72  63  64  63  76  92  93 100  96 115 146 162 175 182 183 178 177 171 171 162 153 149 139 125 112  98  78  72  56  30  22  27  94 159 158 174 188 197 205 210 214 215 216 216 215
  32  31  31  31  29  33  45  57  70  82  91  98 105 103  66  27  24  35  54  66  72  98 106 111 128 144 138 150 164 171 177 175 176 181 177 182 193 192 190 186 177 160 147 130 131 112  94  97  95  96 100  93  97 102 108 134 146 162 167 171 178 185 180 174 173 171 165 158 146 134 124 106  93  80  66  54  30  18  28  81 128 136 162 180 192 201 207 212 215 216 217 216
  32  32  32  31  30  34  45  55  67  79  88  94 100 107  67  21  22  27  46  59  72  97 106 111 124 136 143 152 162 167 170 172 174 176 178 187 190 186 189 187 181 169 146 126 126  94 101 111 116 126 118 106  94  93  96 122 137 157 167 170 174 181 179 176 171 166 161 157 151 137 125  98  83  78  56  44  31  18  25  70 102 125 151 171 186 197 204 210 214 215 216 217
  32  32  32  31  30  35  45  54  66  76  86  91  98 105  84  33  22  31  41  53  63  87  99 104 120 132 134 146 157 162 165 168 171 175 181 187 185 185 186 184 167 151 117 107 108  86 100  94 113 137  89  87  83  76  90  94 126 136 159 171 174 176 179 178 169 164 152 150 147 131 115  94  81  68  54  37  31  19  28  59  82 114 142 164 182 193 201 207 211 213 214 215
  33  33  33  31  31  35  44  52  63  74  82  88  95 100  88  38  15  22  38  58  59  77  95 102 115 135 129 135 154 162 163 167 172 177 176 177 182 169 171 168 152 124  93  89  83  75  87 100 118 136  91  76  87  75  86  85  99 113 151 160 166 165 163 168 171 164 154 148 132 115 107  92  80  60  52  37  27  19  31  51  69 101 133 158 177 190 199 205 209 212 213 214
  33  33  33  31  31  36  43  51  61  72  78  85  91  94  94  53  11  16  34  53  56  70  86 101 115 123 141 142 149 159 165 168 178 170 157 159 156 140 146 134 117  94  78  78  72  74  74  93 130 130  97  82  86  72  70  70  74  92 120 131 127 144 139 138 151 158 153 143 124 117 107  90  75  53  42  36  21  18  33  34  55  90 122 148 169 184 195 203 207 211 213 212
  33  33  33  31  31  36  43  50  59  68  75  80  87  90  90  70  16  16  28  41  54  60  72  90 106 118 136 145 150 156 164 174 165 136 140 142 121 115 115 101  86  72  72  73  68  68  63  85 135 142 106  81  94  74  63  67  65  73  84 108 100 112 124 122 117 137 151 138 122 115 101  77  60  51  34  30  20  19  34  14  38  79 113 141 164 180 190 201 206 210 212 212
  33  33  33  32  32  36  42  48  55  64  71  76  82  82  82  72  32  17  21  32  51  51  74  90  94 115 126 132 148 159 166 165 127 115 112 114 107  91  87  82  87  67  71  72  73  83  96 109 160 163 145 106  88  86  68  80  67  67  80  88  87  91  96 111  99 106 133 131 128 115  95  71  55  49  34  27  20  22  29   7  25  68 104 134 157 175 188 196 204 208 211 212
  33  33  33  32  33  36  42  48  54  61  67  72  76  76  73  72  40  11  16  30  48  54  67  79  85 104 113 133 145 156 159 136 104  89  89 101  90  74  64  76  82  78  77  72  72  93 134 162 184 183 179 146  88  71  64  63  80  78  71  71  74  79  83  77  84  75 106 128 120 107  88  65  57  41  33  27  17  25  24  12  21  56  95 127 152 171 185 195 202 207 211 212
  34  34  33  32  33  36  41  47  53  59  63  68  72  71  69  68  51  14  20  24  38  49  63  63  80  92 111 130 144 156 136 104  75  71  78  77  76  59  60  71  66  87  96  67  63  80 116 151 164 149 142 122  69  46  60  76  82  73  65  57  59  74  70  58  74  68  71 117 111  96  83  57  53  41  29  25  18  28  24  13  18  48  87 121 149 169 185 195 201 206 211 213
  35  36  33  32  33  36  40  45  52  56  60  65  67  67  66  61  54  21  24  22  31  46  61  60  74  92 107 125 136 149 124  71  53  59  55  68  63  55  58  59  60  91 103  72  61  68  75  84  95  90  77  65  57  51  52  75  80  75  67  52  52  64  66  51  50  55  58  95 109  93  77  56  48  38  29  26  19  29  17  11  11  42  87 123 150 169 184 193 201 208 212 214
  35  35  34  32  34  36  39  44  49  53  57  60  63  63  62  55  52  32  23  24  30  51  53  55  67  81 104 124 134 151 117  51  41  50  55  58  57  54  54  54  55  55  53  52  58  58  56  55  53  51  48  50  53  52  48  46  46  48  48  46  53  59  54  51  40  35  50  86 107  93  66  53  49  37  26  19  17  28  14  10  12  41  95 130 154 171 184 193 201 207 211 213
  35  36  34  33  34  36  38  42  48  51  54  57  58  58  57  52  48  34  23  23  30  41  42  59  58  72  91 109 131 138 102  44  41  47  56  62  61  55  49  51  57  71  95 113 125 128 130 124 119 114 122 130 127 121 111 100  86  72  70  74  73  76  80  74  54  41  57  93 102  82  56  44  40  36  24  17  22  27  12  15  24  45  96 133 155 171 183 194 201 206 210 212
  35  35  34  32  34  36  37  41  46  49  51  53  54  54  52  47  41  37  21  13  26  37  42  47  51  71  73 102 113 114 100  55  38  56  67  88 100 104 104 112 123 132 146 154 156 166 174 173 179 183 178 170 163 155 141 135 128 125 118 118 120 114 107  98  78  76  91 101  94  76  61  45  39  31  18  17  31  24  12  22  33  51  92 132 156 171 183 193 200 204 209 211
  37  36  34  32  34  36  37  40  43  46  48  50  50  49  48  42  37  32  21  13  25  32  35  34  50  61  73  87 103 107 105  61  45  73 108 127 140 144 133 134 139 145 151 153 152 156 156 163 170 170 166 157 159 152 141 132 124 121 126 136 135 128 119 112 100  94  98  96  84  74  63  38  32  28  18  22  31  16  16  28  41  58  86 125 154 170 182 192 198 202 207 210
  37  36  34  33  32  34  37  39  41  44  46  47  47  45  43  40  34  28  26  23  18  22  28  28  42  54  61  67  88 115 100  70  78 109 136 148 154 156 151 143 139 134 126 128 139 139 143 152 156 155 145 142 142 130 116 111 116 126 137 139 134 131 122 114 103 100 101  90  71  61  58  32  28  21  19  31  29  17  18  32  47  65  87 113 148 168 180 189 197 201 205 207
  37  36  36  33  33  33  35  37  38  41  43  44  42  41  39  35  30  25  22  44  32  20  27  23  30  47  46  50  70  86  94  78  86 121 144 151 154 148 147 149 144 136 116 100  95  88  85  77  79  84  74  77  84  84  90 110 127 133 131 129 130 123 112 105  96  86  98  84  58  55  54  37  24  17  26  37  30  17  18  34  52  67  87 110 136 162 177 185 194 199 203 205
  36  36  34  33  33  33  33  35  36  38  39  40  39  38  35  31  26  22  19  66  55  21  27  21  31  40  38  39  56  67  90  82  87 115 137 147 150 143 140 136 129 128 122 112 107  83  61  53  64  65  60  56  75  91 108 115 113 108 115 120 118 108 100  99  86  74  83  71  42  38  38  30  22  14  30  40  30  14  19  36  53  68  84 108 131 151 171 181 190 196 199 201
  36  36  34  33  32  32  32  32  34  36  36  37  36  34  31  28  24  19  18  72  93  40  16  22  25  38  40  35  44  67  74  68  83 106 123 134 140 140 129 122 121 117 115 108 103  92  80  80  86  86  88  90  95 105 109 112 114 114 114 110 105 100  92  84  84  73  66  54  35  34  34  20  13  17  42  42  24   9  15  35  53  69  81 100 125 144 163 178 187 192 194 195
  36  36  33  33  32  32  31  31  32  32  33  32  33  31  27  25  22  16  19  90 118  69  16  18  16  26  37  27  36  58  62  64  74  95 111 123 131 131 129 130 128 127 126 129 129 128 125 124 127 131 134 138 133 131 129 128 126 119 110 106  98  93  87  80  76  63  53  48  35  32  27  17  13  27  48  38  19   6  12  32  53  69  82  96 116 138 155 170 181 186 189 190
  36  36  33  32  31  29  30  30  29  29  29  30  30  28  26  23  20  14  23 101 128  96  40  21  16  17  28  30  39  50  50  63  84 100 109 108 123 129 133 136 139 143 145 153 161 168 173 173 174 178 175 176 169 156 149 141 133 121 112 104  98  93  91  78  66  59  47  43  31  27  24  16  13  39  48  32  13   5   9  27  50  68  81  95 108 126 143 157 171 179 183 186
  35  34  32  31  30  28  28  27  27  27  27  27  26  26  23  22  19  13  26 107 129 124  92  39  15  17  20  31  39  43  45  63  91  99  95  99 120 138 143 150 157 157 169 176 180 184 184 188 191 192 187 180 175 169 164 156 148 131 124 111 102 103 104  81  61  53  39  33  20  22  22  14  20  48  40  24  11   4   9  25  44  63  79  92 102 114 130 145 157 169 177 183
  34  33  32  31  29  27  26  25  25  24  25  25  25  23  21  19  17  10  32 114 132 129 124  68  18  15  15  21  29  34  42  56  68  76  82 110 121 130 149 155 155 173 181 187 183 184 184 184 183 184 184 174 178 178 169 165 161 145 136 120 114 113  95  72  45  34  29  31  20  26  23  18  37  44  31  19   9   6  12  25  38  54  70  83  95 104 115 132 147 160 171 179
  33  32  31  30  27  26  25  24  23  22  23  23  22  21  19  17  16   7  41 121 134 132 129 107  47  23  15  13  17  25  36  43  56  55  73  88 100 121 140 155 155 168 176 180 180 179 183 170 167 180 178 177 177 170 167 166 161 147 131 121 115 102  86  65  38  21  23  24  22  21  21  28  44  37  25  15  10   7  14  25  35  49  63  75  86  96 106 119 135 149 162 172
  31  31  29  28  26  25  24  22  21  22  21  21  20  19  18  16  11  18  83 126 131 134 131 125  82  32  16  11  12  14  25  36  41  41  61  74  94 111 122 145 169 166 168 167 168 167 162 161 173 174 170 172 162 159 163 156 145 136 123 116 100  69  61  38  27  19  25  21  16  10  21  40  41  31  23  15   9   9  15  25  37  47  59  69  79  89  99 109 121 138 152 163
  30  30  27  27  24  23  22  22  21  20  20  19  18  17  15  11  16  81 122 125 134 138 133 131 123  85  40  14  14  15  16  26  32  32  42  54  76  85 101 123 145 148 150 150 150 148 144 158 160 155 144 152 146 143 144 141 130 115 103  95  77  42  36  25  15  13  25  16   7  19  46  44  36  28  20  12  10  11  18  27  37  48  58  66  75  83  95 104 114 125 141 155
  29  27  26  25  24  22  21  20  20  18  17  18  22  24  20  32  91 137 123 123 140 142 138 132 131 116  89  40  15  16  16  23  20  25  31  43  49  61  74  92 109 123 129 118 121 134 135 144 144 142 137 129 136 125 113 114 120  84  80  64  46  31  22  22  15  13  22  12  21  52  57  40  31  24  18  12  12  15  22  31  41  51  62  69  75  82  90 101 108 114 129 147
  27  26  25  23  21  21  18  19  17  17  23  31  35  29  52 112 149 144 124 124 141 143 140 134 131 127 114  91  49  14  12  13  13  20  19  26  31  43  53  71  82 105 103  96 100 122 104 111 124 123 118 106 108 102  86  81  80  72  54  42  29  20  13  17  13  19  20  39  62  70  57  33  27  22  17  13  13  19  25  33  43  52  60  69  76  80  85  93 103 109 119 137
  26  25  24  21  19  18  18  19  25  36  43  42  38  79 137 159 156 148 127 127 143 145 143 141 135 130 122 107  95  75  41  23  19  27  16  13  29  34  38  59  71  79  84  80  75  88  77  90  95  98  96  87  79  73  72  64  51  53  42  25  21  19  10   7   6  18  55  68  75  75  64  30  24  20  15  15  17  21  27  35  44  51  59  67  74  79  81  86  96 105 113 128
  25  22  20  21  25  30  36  42  46  50  50  45  86 155 166 163 160 152 129 131 144 148 147 145 143 134 126 117 111 108  87  70  33   7  13  15  20  24  26  35  51  60  62  55  58  66  53  71  74  77  67  60  61  49  53  47  34  36  23  16  17  21   9  20  36  60  74  75  78  76  74  40  21  19  15  16  19  23  30  37  44  51  58  65  71  76  77  77  87  98 109 124
  23  28  32  40  45  47  47  45  47  50  49  53 134 173 170 166 163 154 132 135 145 149 151 147 145 143 133 123 120 109 101  98  71  29  21  23  22  18  20  28  30  46  43  38  48  44  34  45  49  50  37  38  37  31  33  36  26  24  14  12  11  25  30  56  67  75  78  79  82  78  79  63  22  18  15  16  20  25  30  37  43  50  57  63  68  71  72  71  74  87 103 119
  41  47  46  48  47  45  45  40  50  52  44  64 156 178 173 168 165 152 134 140 149 149 153 150 144 142 139 129 120 114 108  97  84  75  62  44  28  19  30  29  36  34  35  26  30  27  19  23  25  30  24  23  16  24  24  28  19  23  17  17  37  55  56  69  74  77  82  83  83  80  81  87  40  14  15  17  21  25  31  37  43  48  53  59  65  68  68  68  66  75  91 109
  49  47  46  48  46  46  47  46  50  49  46  68 163 180 173 171 170 154 138 145 150 154 156 152 148 145 143 140 128 119 115 104  95  89  84  69  53  37  25  33  36  23  30  28  20  18  15  18  15  21  18  13  15  18  19  24  16  23  36  53  65  66  66  69  76  82  86  86  85  81  84  98  78  24  12  17  21  26  32  38  43  48  51  57  62  64  64  64  63  63  76  98
  44  47  49  48  49  48  49  50  53  52  49  62 159 185 175 174 172 154 142 147 153 157 156 154 153 153 149 144 137 128 119 113 104  98  95  87  82  71  55  62  52  35  37  44  36  28  29  37  31  24  26  23  30  33  45  44  45  56  65  66  67  70  72  73  82  86  88  90  89  85  86 100 103  70  23  16  20  26  32  40  44  49  51  55  59  62  61  59  59  56  59  79
