P2
# Generated by OpenCV 4.2.0
92 112
255
  23  21  19  18  16  16  20  28  37  41  33  25  23  23  25  22  12   7   8   9   8   4   3   8  10  13  12  23  23  28  23  27  70  78  56  46  50  54  37  37  91 139 125  67 130 156 105 100  92  82  77  63  61  57  90  96  96  82  71  78 109 125 127  91  59  24   6   5  19  12  21 183 250 250 249 157   7   2   8   9   6   6   7   7   7   7   6   5   4   5   3   3
  20  20  21  22  20  20  21  29  35  33  31  23  24  27  32  28  16   7   7   8  20  24  23  23  21  14   6  15  16  23  32  39  53  75  82  60  32  51  64  38  89 121 143 110  94 141 100  69 103 123 109  82  70  60  80  91  84  72  66  82 124 143 140 117  70  37  13   4  21  24  42 219 250 250 251 162   7   1   6   6   5   6   6   7   7   7   6   4   5   5   3   3
  17  20  22  24  23  21  22  26  27  24  25  19  23  31  34  31  28  16  11  12  19  24  32  41  38  43  52  32  20  16  29  44  38  69  93 103  56  30  62  76  83 115 128 127 115 126 116  52  56 107 131  96  61  63  56  80  67  55  51  60 108 148 154 121  76  43  31  19  27  59  43 194 252 252 249 154  10   1   3   3   3   5   6   7   7   7   6   4   5   5   4   3
  18  20  26  28  23  21  20  20  23  24  23  18  21  28  30  25  16  16  10  16  28  22  30  45  59  39  66 103  76  60  52  58  70  54  87  98  88  28  33 109  93 106 118 116  92 123 127  74  35  35  64  71  51  46  43  60  61  42  44  56  77  96 101  80  57  49  44  27  28  66  40 136 237 244 236 131   4   3   4   4   4   4   4   6   6   5   5   5   4   5   4   3
  19  20  24  26  23  19  16  18  24  26  26  24  19  16  18  14   4   8  16  19  32  65  69  54  71  80  45  84 109  99  89  73  97  99  86  86  72  46  17  87 111  93  99 107  65  70 138  91  47  21  21  40  42  29  38  54  61  59  74  77  75  69  65  66  56  61  59  43  37  52  63 125 211 225 225 125   2   3   5   4   4   4   4   4   5   5   5   5   4   4   4   3
  18  22  24  21  19  15  17  27  33  29  27  22  12   7  13  10   5   3  13  40  60  71 102  85  58  91  85  69  91 104 116  84  95 132 100  65  51  56  20  66 103  79  83  91  62  36 103 120  44  26  12  21  25  27  39  60  71  82  98  95 100  92  75  53  44  48  55  54  46  58  62 106 197 213 203 146  13   2   5   4   4   4   4   3   5   6   6   4   5   5   4   3
  14  18  20  18  17  16  24  33  40  40  28  15   8   9  12  12   9  10   9  57  82  77  83 111  82  77  95  88  74 101 125 103  84 103 129  65  32  37  23  62  90  61  56  71  57  26  49 100  54  21  13  15  14  26  37  63 101 103  84  70  83  91 101  81  69  55  45  50  36  31  38  82 165 192 186 131   9   3   4   4   4   4   4   2   3   4   4   4   5   5   5   3
  14  15  16  21  22  24  27  31  34  30  14   6  10  13  12  17  17   6   3  24  77  84  86  86 112  88  88  88  67  82  90 101  82  71 118  94  33  22  24  52  76  45  32  45  47  25  27  69  68  24  15  10  14  27  50  86  85  63  71  84  87  97  98 113 107  90  80  64  51  38  35  38  81 130 129  58   5   6   5   4   4   4   4   4   3   4   3   5   5   5   5   3
  13  13  15  22  25  26  25  28  34  19   7   9  13  15  17  22  45  48  33  11  51 102 103  86  84  89  70  82  65  49  72  76  65  51  78  92  30  19  24  38  51  28  22  25  31  26  16  41  61  35  21  13  16  46  74  58  37  59  83  89  83  91 113 116 102 104  89  75  81  82  39  30  44  53  42  19   5   8   6   5   4   4   3   3   3   3   3   5   5   5   5   3
  13  13  15  18  21  18  16  14  10   8   7   8   7   7  11  15  24  74 105  59  29  81 105  83  71  64  50  49  56  33  55  57  47  38  44  71  43  20  24  37  37  19  17  19  19  23  16  25  39  35  30  18  29  57  45  29  52  64  62  76  92 105  93  81  97  86  60  73  86  60  56  80  94  91  79  45  33  11   3   4   4   3   3   3   3   3   3   4   4   3   3   2
  15  13  14  14  14  12   8   5   4   7   5   5   5   6  14  15  20  37  83  94  42  52  76  72  53  55  37  35  37  32  37  51  36  24  28  40  50  24  21  31  26  14  13  15  15  19  16  22  27  27  27  27  40  32  18  37  46  34  46  75  95  81  81  88  88  65  64  65  57  80 106 109 112 117  87  78  41  12   4   3   3   3   3   3   4   4   3   4   4   4   4   4
  16  14  12  11  11  10   6   4   6   5   3   6   5   3   9  24  21  30  32  74  64  44  41  52  44  43  41  30  28  27  26  36  32  23  22  25  37  25  17  29  22  14  12  13  15  16  17  21  24  24  25  29  20  13  28  24  23  48  66  72  59  66  76  69  59  63  53  66  89 102  91  85 107  90  58  42  29  21   9   5   5   5   6   6   6   6   3   4   4   4   4   4
  15  12  10   9   8   6   3   4   6   3   5   4   6   7   4   8  32  42  40  42  60  45  39  28  36  40  35  26  28  27  22  27  28  30  23  19  29  28  13  25  18  19  15  14  19  24  23  22  20  27  27  19   8  17  16  18  37  71  65  51  41  53  58  57  61  56  57  75  90  70  53  80  84  31  36  60  42  12   3   5   6   5   6   7   6   6   5   4   3   3   3   3
  12  10   9   7   5   4   4   7   5   8  14  20  14  28  43  28  26  48  53  51  45  37  30  37  23  27  29  24  24  28  18  27  25  32  31  22  21  19  11  22  22  28  20  17  23  25  29  21  18  27  24  15  11  11   9  26  61  57  46  39  41  45  43  53  54  48  52  57  52  42  54  68  33  36  78  64  21   6   2   3   5   5   6   7   7   7   5   5   5   4   2   2
  15  13   9   4   4   4   7   6   3   5  10  32  68  56  54  60  45  26  31  49  36  34  24  29  35  28  32  28  26  29  22  22  25  26  35  27  21  17   9  19  25  30  25  30  35  25  39  20  23  28  15  15  10   7  19  60  71  34  35  29  36  40  37  48  47  51  50  47  42  44  47  33  28  63  60  34  23  13   8   8   8   8   7   6   7   7   6   5   5   4   2   2
  18  16  10   6   6   9  11   4   1   3  13  49  70  86  58  51  54  43  29  27  32  26  22  29  26  30  25  26  29  31  30  25  27  27  30  26  24  20  11  23  38  31  32  34  36  31  36  30  41  33  14  14  11  23  48  59  41  39  33  39  44  40  40  41  47  48  44  45  47  42  29  24  39  39  29  31  13   7   6   7   7   7   6   6   6   5   3   3   3   3   1   2
  19  15   9   5   8  12  12  11  15  17   8  24  64  66  85  66  43  47  41  28  22  22  24  30  30  31  33  28  26  35  37  33  37  35  29  16  32  32  15  37  53  24  32  28  28  41  38  41  41  33  14  14  17  36  39  36  34  26  42  45  37  37  33  43  45  41  45  43  43  30  33  37  27  19  20  34  24   8   2   3   4   4   3   3   3   3   3   2   2   4   3   3
  13  10   6   7  13  11  13  31  50  69  76  27  24  60  61  79  45  32  29  27  28  21  31  33  33  28  38  27  28  31  38  31  37  39  34  15  41  52  21  50  56  17  32  23  21  33  30  34  34  32  28  18  19  29  34  32  35  49  44  31  34  34  41  48  39  48  54  46  36  34  44  26  17  13  14  25  24  17   8   4   3   4   4   4   3   3   4   5   5   5   4   4
   7   8   9  14  12   9  20  56  70  68  79  78  30  34  46  43  45  26  23  27  29  24  19  34  34  26  32  32  33  32  23  26  38  34  48  20  27  59  32  48  42  16  26  20  20  22  20  21  25  43  41  14  20  26  24  40  70  50  36  34  29  47  59  46  47  49  44  41  34  30  22  13  11  10  11  18  20  16  17   6   4   3   4   4   5   6   5   5   5   5   4   3
   6  10  13  13  16  29  43  57  75  73  50  40  48  37  37  33  31  29  20  29  36  33  22  20  39  35  13  23  25  34  27  19  35  30  40  32  17  38  32  47  24  17  20  17  16  16  15  15  24  51  28  16  20  24  44  65  45  33  29  30  55  56  40  46  44  33  40  41  27  24  19  10   8   8  13  15  19  24  17  15   5   3   5   7   7   7   7   6   5   5   5   3
   6   9  11   9  17  39  71  88  78  62  51  25  12  25  31  28  21  24  24  23  30  29  29  17  20  32  17   7  11  20  26  19  27  34  29  38  16  25  21  32  14  11  12  13  14  14  14  16  27  45  32  25  27  52  59  37  26  29  39  56  58  42  34  34  36  41  34  23  24  23  13   9   8   9  13  11  11  18  20  18   9   5   6   7   7   7   6   8   7   6   5   3
  11  13  12  15  18  31  45  64  81  78  57  38  27  17  14  23  26  20  29  29  23  23  23  18  10  19  22   8   8   9  18  19  15  28  22  28  17  19  23  27  11  12  11  17  17  12  19  20  47  69  46  44  55  48  28  28  39  46  53  59  49  36  33  33  36  24  19  22  16  13  15  11  10   9  11  10  12  14  16  17  12   9   7   7   7   7   6   6   7   6   5   3
  17  15  18  33  28  25  45  45  44  60  61  42  37  35  28  19  24  25  25  38  32  28  26  18  11  10  12  10   9  10   7  11  14  21  21  20  23  23  25  21  11  19  16  24  25  19  40  54  89  66  43  39  34  30  42  44  49  48  43  38  32  35  31  23  23  19  20  15  17  30  28  16  13  11  11  10   9  13  12  17  18  12   6   7   6   6   4   4   4   5   4   5
  19  13  16  29  47  48  31  32  33  32  42  44  41  32  33  34  28  22  21  29  37  32  29  24  19  13  11  12  12  13  12  11  20  23  23  24  32  27  24  18  18  33  31  41  47  44  82  83  79  46  32  32  33  39  37  37  40  35  34  32  27  24  24  24  21  25  24  30  38  58  40  16   7   9   9   7   8  10  16  12  14  16   9   7   6   6   4   4   3   4   3   4
  24  18  19  28  39  48  42  31  28  30  37  38  35  38  33  28  34  31  23  20  26  34  28  25  23  20  14  15  17  25  32  26  22  35  28  31  40  40  29  24  36  64  59  75  76  93 111  93  79  73  56  53  45  43  39  38  43  49  43  38  37  28  19  19  24  40  34  30  22  22  18  13   9   9   9   6   6   9  17  17  13  16  11   6   5   5   4   3   3   3   3   3
  30  25  14  20  35  29  26  26  32  34  34  34  34  32  36  36  34  36  35  29  23  30  35  37  29  21  18  21  20  38  58  61  45  51  46  43  57  58  54  36  57  98 101 111 122 135 131 122 119 114 108  98  76  77  75  72  67  54  46  38  35  38  33  36  41  34  30  28  24  22  13  10   6   5   4   4   6   6   8  12  13  13  11   7   5   5   3   4   3   4   4   2
  26  20  11  10  20  28  23  20  21  25  31  36  42  37  34  37  33  33  38  41  34  36  33  35  47  43  27  28  46  62  83 112 113  96  86  75  76  84  96  63  84 125 143 142 155 157 155 161 166 163 157 147 141 125 116 111 101  93  79  69  76  70  64  55  54  39  34  26  18  12   8   6   4   4   3   3   6   8   8  13  20  16  11   8   6   5   4   5   4   6   5   3
  25  14  11  11  13  18  20  20  23  28  32  33  31  33  33  35  36  33  31  35  35  44  48  48  49  48  46  41  56  95 118 129 146 152 134 119 108 108 124  84 103 149 167 167 173 185 190 202 204 195 189 180 173 158 150 143 142 137 124 107  98  89  80  82  70  51  39  28  16   9  11   6   3   3   2   3   5  10  10  25  27  12  15   7   7   5   5   6   6   5   5   5
  27  17  15  17  14  14  15  16  15  19  29  34  33  31  28  27  24  28  29  34  39  43  50  70  76  71  77  92  98 114 148 170 173 172 169 160 143 133 132 114 131 161 178 185 192 200 211 218 215 208 199 195 188 178 165 155 150 145 140 127 120 114 106  99  91  77  54  33  21  13  13   9   3   3   3   2   3  13  25  46  17   7  11   8   6   6   5   6   7   5   5   7
  27  20  19  17  18  16  15  15  18  21  21  23  25  25  23  20  21  30  35  47  58  64  76  93 105 115 122 129 147 165 174 184 189 187 188 188 174 159 155 149 156 175 189 196 207 208 216 217 216 210 206 204 199 188 178 169 159 149 144 137 132 133 125 111 106  99  68  43  25  17  11   8   4   4   4   3   4  16  17  30  14   5   6   7   7   6   6   7   6   5   6   6
  14  13  18  18  18  15  14  13  14  18  16  13  13  12  13  17  22  32  44  60  77  88 111 133 147 161 173 176 176 182 190 191 195 195 196 195 192 179 174 178 175 185 197 207 213 212 214 216 213 210 210 210 206 197 188 181 171 157 145 143 137 132 129 124 115 102  70  48  37  22  11   7   6   4   4   2   4   9   6  23  14   4   5   6   7   6   5   8   6   6   5   3
   9   6   6  10  13  13  14  12  12  11  14  13  12  14  19  26  36  51  68  86 100 111 135 150 165 177 185 191 192 192 193 196 198 198 200 197 194 192 187 186 192 197 204 207 208 207 209 211 209 206 206 208 201 194 186 180 174 166 157 149 143 137 129 127 120 112  84  46  26  20  16   7   5   4   4   3   4  16  20  30  20   3   4   6   6   4   5   7   7   5   4   4
   8   8   8  14  17  15  12  12  14  20  17  16  17  22  26  40  67  95 120 130 135 140 146 160 175 181 185 192 197 198 198 200 202 200 202 203 198 199 196 195 201 205 212 209 210 211 215 218 216 217 217 215 211 200 190 181 179 173 165 156 152 145 133 125 122 116 102  71  33  14  13   7   5   4   3   3   3  15  31  26  13   4   5   6   5   5   5   6   5   4   4   4
   6   8  16  19  13  11  12  14  18  20  14  14  20  22  37  73 108 130 144 154 151 151 155 167 177 183 187 194 200 203 203 204 206 205 206 208 205 199 201 206 210 213 214 214 213 213 218 218 215 213 212 207 201 198 192 188 184 179 169 159 154 148 142 131 128 119  97  71  39  17  10  12   6   5   3   3   3   8  16  22  13   5   6   7   7   5   5   6   3   2   3   4
  13  20  22  15   9  11  16  15  12  12  12  12  14  23  49 107 143 146 153 154 148 153 163 170 178 185 190 192 201 204 205 207 207 207 206 205 206 202 202 208 213 213 214 213 211 203 202 205 202 200 194 188 185 183 178 177 173 176 173 164 158 157 147 139 133 125 106  70  31  16   7  11   5   3   4   3   3   4  17  28  21   5   6   7   6   6   5   5   5   5   5   4
  12  14  11  10  11  12  12  10   9  11  10  11  16  27  74 135 143 146 151 154 153 158 164 172 179 184 189 194 199 203 204 209 207 202 203 202 198 198 193 194 196 198 194 193 195 197 199 204 204 200 198 185 186 183 182 180 173 171 170 160 157 158 152 143 135 131 123  90  44  15   6  11   5   1   3   3   4   3   9  18  11   2   6   7   7   6   5   5   4   4   4   4
   9  11  12  13  15  13   8   8   9   8   8  10  21  41  95 139 138 143 150 155 159 164 168 171 179 188 188 193 196 198 203 208 204 201 206 206 202 203 198 193 199 204 206 207 215 217 219 221 217 217 215 210 207 204 201 194 184 177 170 159 157 157 152 143 138 135 128 104  61  24   9   8   4   2   2   3   6   7   5  17   9   3   7   7   7   7   7   6   5   3   4   4
  10   9  11  13   9   5   5   5   6   4   4  11  29  48  96 136 143 143 149 158 161 167 170 169 175 184 187 192 193 194 200 205 204 207 210 212 212 208 210 215 215 216 215 213 213 211 211 203 197 194 189 188 189 187 185 183 177 173 172 169 166 160 154 146 145 140 130 110  75  31  11   6   4   3   2   4   5   5   4  18  13   2   5   5   6   6   6   5   6   4   4   5
  13   6   7   7   5   4   3   4   3   3   7  18  28  52 100 136 144 144 151 155 156 164 167 173 177 182 190 192 193 192 193 197 200 199 198 199 203 203 197 196 194 195 195 196 199 198 200 197 197 197 198 195 192 188 184 182 174 166 163 161 162 161 155 150 148 143 130 122  96  44  14   7   5   3   3   5   4   4   3  16  14   1   4   5   5   4   6   5   6   4   4   4
  15   2   3   3   3   3   3   4   3   5   9  16  28  52 102 137 142 147 154 153 154 161 168 175 185 188 191 191 185 183 182 184 187 193 196 195 193 188 189 189 194 198 202 208 213 213 216 218 216 216 214 211 205 201 199 192 185 180 171 167 163 158 155 155 152 143 131 123 101  65  21   7   5   3   3   4   4   4   5  17  14   1   4   4   4   4   4   7   6   5   4   3
  31  32   7   2   2   2   3   3   4   4   4   7  23  62 110 137 144 150 156 154 158 161 171 178 182 184 179 179 176 179 181 191 196 204 208 210 211 212 214 213 216 214 210 213 213 210 206 203 203 202 203 201 193 190 187 183 184 180 177 177 171 164 161 162 155 145 139 128 106  67  30   8   5   4   4   3   5   4   3  23  18   2   2   3   5   4   5   6   6   5   3   3
  84  72   5   4   2   2   3   2   2   3   4   8  26  60 102 135 145 153 155 155 161 163 168 171 172 177 181 189 193 201 204 203 196 196 200 201 202 206 206 202 204 208 202 204 209 208 205 201 205 205 203 205 194 185 181 176 178 175 170 171 168 164 163 163 157 147 140 133 115  85  36   9   5   5   5   3   5   3   3  18  15   3   3   4   4   4   5   6   7   5   4   3
 146 113  28   1   1   1   3   2   2   3   4  10  25  55  99 133 147 152 154 157 160 160 164 167 174 185 192 194 193 199 198 190 189 187 193 199 201 202 196 192 191 197 201 203 203 205 211 214 217 214 208 202 189 179 174 172 174 172 170 166 164 162 163 162 160 150 137 131 116 102  65  16   5   5   6   3   4   6   4  16  12   3   3   4   4   4   5   6   7   5   4   3
 179 178  59   3   3   3   3   1   3   3   6  10  23  57  93 129 148 151 150 154 156 160 167 173 180 183 182 183 185 192 198 198 204 205 206 208 205 204 199 192 192 198 197 198 202 208 213 210 200 193 192 189 180 171 169 173 175 167 160 158 165 165 166 164 157 151 136 127 118 109  90  39   5   5   5   3   4   4   6  15   8   2   3   4   4   4   5   6   7   5   4   3
 187 203  98  46   1   3   4   2   3   4   5  10  19  51  98 130 148 154 154 158 157 162 171 172 174 174 174 181 190 196 201 203 202 201 199 203 205 206 208 202 196 196 195 198 201 202 201 197 198 198 194 190 188 185 188 183 173 168 162 161 174 175 175 170 158 146 134 121 116 112  95  63  13   4   4   4   4   4   7  17   5   1   2   3   4   7   7   7   7   5   4   3
 193 209 180 154  28   0   3   2   3   5   4  10  21  57  84 120 150 155 157 160 164 166 167 169 169 168 177 179 180 185 186 189 191 196 194 196 202 203 201 192 191 191 191 190 188 191 194 190 190 192 185 177 172 171 183 189 179 175 167 160 160 163 161 164 162 148 132 120 119 115  96  78  31   3   4   4   4   4   8  17   4   2   3   4   4   6   6   7   7   5   4   3
 192 213 232 232  69   0   4   3   3   2   4   7  19  52  86 121 139 148 160 163 168 169 167 168 173 176 174 168 167 172 180 191 194 196 197 196 195 193 192 189 188 189 184 180 181 177 175 170 165 152 139 141 130 121 135 150 146 134 123 121 132 144 147 144 145 143 133 122 122 116  97  88  47   8   6   6   6   4   7  17   5   3   2   4   5   6   6   7   7   6   4   4
 195 206 220 229 121   1   3   3   2   3   3   5  14  45  93 126 132 145 157 165 169 171 168 169 172 169 164 165 170 177 189 193 190 190 182 181 183 177 185 183 182 190 184 173 167 154 148 133 135  97  71  65  71  68  69  77  94  96  94  98 112 114 108 102  99 108 108 104 110 114 106  99  68  13   7   7   4   6  11  17   4   3   2   3   5   6   7   7   7   6   4   4
 175 182 190 206 151   4   2   4   3   3   3   4  14  43  90 122 130 140 149 162 172 172 172 168 169 165 167 170 174 176 174 171 164 163 160 156 164 174 171 178 183 192 189 173 148 123 123 114 110  68  59  57  58  62  66  55  55  62  80  85  64  69  80  75  77  71  69  82  91 114 115 103  81  23   7   9   4   6  11  13   4   4   3   3   5   7   6   7   7   5   4   4
 136 138 137 139 143  33   0   5   3   1   3   4  25  69 101 119 125 137 143 153 166 170 175 174 171 172 175 174 174 162 144 123 101 101 106 117 127 146 157 175 182 187 185 172 142 116 120 130 107  79  93  99  95  89  95  90  90 100  97 101 117 123 121 117 103  81  73  79  85 112 120 111  96  40   7  10   6   5  16  19   3   2   3   4   4   5   6   8   7   5   4   4
  93  88  83  76  96  70   1   3   3   3   4   5  45  90 102 111 117 132 141 149 162 171 173 172 175 176 174 171 152 110  70  60  59  65  81  97 117 122 149 169 181 183 180 162 143 127 117 136 124 123 133 122 125 122 138 149 159 160 155 148 152 150 139 138 134 126 112  93  83 105 123 121 109  62  13   7   9   7  24  34   5   0   3   4   4   5   9  10   8   6   4   5
  81  81  78  72  81  86   5   3   3   3   3   6  56  98 104 113 116 123 135 148 163 164 154 156 155 149 148 127  88  59  57  64  68  78  83 108 117 130 144 161 169 177 175 158 150 144 129 145 143 147 149 139 138 142 144 143 147 148 155 154 154 154 149 138 139 129 121 110  99 106 122 124 117  81  27   8   8   4  73 184 160  52   0   3   6   6  10  12  10   8   5   5
 101 104 104 103 114 110  21   2   4   3   3   6  56  99 107 113 115 119 129 140 138 124 114 116 106  91  81  56  44  57  71  82  96 103 108 117 131 122 133 148 161 167 171 161 153 149 144 148 147 143 134 127 112  99 103 116 127 138 134 131 129 136 141 138 133 129 130 126 116 119 132 128 126 102  46  18   6  22 140 216 215 186  42   1   6   6  11  12  10   7   5   4
 116 122 128 130 137 140  90   7   3   3   4   6  55 102 109 113 111 109 105  97  81  78  76  76  79  72  64  65  80  94 109 124 130 139 143 144 136 132 133 146 155 163 167 167 161 152 150 143 136 125 114  96  87 100 112 111 102  92  83  82  91 109 110 116 128 132 132 127 122 123 134 136 136 126  72  30  12  57 165 196 181 171 119   2   3   6   8   9   7   5   4   4
 133 139 144 147 150 148 126  33   1   3   3   6  54 105 110 115 108  85  67  56  57  53  53  60  68  93 117 127 138 141 141 131 122 125 134 143 141 138 142 150 156 165 162 171 165 148 141 129 119 116 104  96 104  93  92  39  10   7  10  33  49  57  91 103 119 130 129 128 124 128 138 143 144 148 105  40  18  63 165 164 131 121 105   6   3   6   7   6   5   4   4   5
 144 147 151 153 156 151 131  61   2   3   3   7  48 105 114 116  90  56  48  52  64  77 101 122 138 149 155 151 139 132 124 114 102  92  91 105 116 127 134 145 152 164 173 180 172 147 129 122 120 113 113 113  87 105 135  50  32  41  11  36 120  81  45  82 110 121 130 130 131 137 145 147 153 161 131  57  19  68 152 135 149 142  94   4   4   7   7   8   8   8   8  10
 151 153 157 159 158 152 131  95  29   2   4   9  44 108 121 120  91  63  72 102 112 130 147 156 158 149 135 137 136 131 123 121 117 117 108  99  97 109 116 123 146 163 180 187 178 146 118 119 118 126 126  92 106 156 155  47  20  19  14  48 139 102  66  69  96 111 121 127 138 150 159 161 162 165 151  77  29  49 133 133 149 148  91   3   4   9  11  16  18  17  17  18
 149 152 153 157 160 156 135 102  48   3   3   8  48 111 123 126 108  99 105 126 135 139 149 148 125 122 125  93  50  27  16  47  98  88 104 117 121 111 116 116 133 160 177 189 185 149 115 116 122 138 129 107 116 135 160 116  33  38  44  88 105 103 113 111 116 128 134 141 154 163 169 169 168 165 157 100  38  39 113 123 133 151  91   3   6  11  15  20  23  23  25  24
 137 135 136 143 148 144 118 132  84   7   2   7  44 112 130 129 120 118 122 127 123 122 123 111 117  92  52  25  21  23  28  16 132 151 106  99 127 140 117 126 123 151 181 193 190 162 125 123 132 138 134 132  98 108 124 139 117 133 128 123 121 135 133 129 139 150 157 155 163 171 174 172 171 168 161 123  48  42 131 126 115 153 100   4   6  11  15  18  21  22  22  24
 122 121 123 126 135 133 113 145 128  32   2   7  42 110 135 134 130 128 128 130 121 113 111 112  83  41 101  57  25  25  33  17 126 194 150 114 120 146 142 136 124 144 179 193 194 177 140 126 137 151 157 145 126 125 131 145 149 158 150 151 146 140 135 147 154 164 173 171 172 174 177 178 177 171 164 137  61  35 129 144 120 148 110   6   6  10  12  12  14  15  18  21
 125 129 130 130 131 130 103  82 128  65   2   6  46 106 134 134 134 134 132 131 133 134 128  86  44  75 141 118  21  11   9  49 153 149 117 107 115 131 153 139 129 147 182 199 205 190 156 135 135 143 156 155 141 136 135 143 151 156 152 148 141 144 151 161 168 177 179 177 180 185 183 184 182 170 165 143  67  39 139 157 144 150 113   7   7  11  10  10  11  11  14  18
 149 153 153 152 146 141 121  83  73  84  11   7  50 103 132 138 140 141 141 135 135 133 106  77  80  90 107 141 104  55  75 113 132 113 112 128 156 158 148 142 134 149 185 199 205 199 175 144 143 146 137 143 152 150 148 148 151 152 150 151 152 163 176 182 187 188 185 183 185 190 189 185 181 170 165 146  70  33 141 164 157 163 122  11  10  15  14  12  12  11  12  17
 164 168 168 166 155 152 145 135  92  82  22  10  45 104 132 137 145 150 145 138 134 131 127 123 123 124 113 109 113 123 144 147 146 131 130 147 160 151 150 150 139 152 184 200 205 206 187 157 148 155 159 151 156 161 162 165 171 173 174 177 179 180 185 191 189 184 185 188 191 192 190 186 179 169 165 147  69  35 137 171 166 163 147  19  11  20  17  15  14  14  18  22
 168 171 171 164 156 150 150 143 108  94  42  13  46 100 131 138 147 156 155 145 140 142 142 141 137 135 134 143 139 140 142 148 144 144 148 154 155 148 157 154 146 156 181 197 207 209 191 165 153 156 165 168 166 167 167 171 174 177 177 182 185 186 189 194 190 186 189 193 194 194 190 184 177 169 162 146  67  47 149 168 174 176 164  29  11  23  20  17  22  25  28  34
 174 175 173 168 162 158 154 139 111 114  65  13  44  98 127 136 146 157 160 152 146 148 149 151 144 141 143 144 145 141 137 144 154 162 164 160 150 160 163 158 150 154 175 196 208 210 191 164 155 160 167 173 177 175 172 174 175 179 181 187 191 192 196 195 190 188 188 188 188 190 188 177 171 165 160 145  64  49 156 159 171 185 174  36   8  22  22  26  32  44  46  48
 187 187 185 182 181 173 164 134 125 123  52  11  47 101 120 134 148 154 159 156 149 153 161 159 154 153 151 151 150 152 156 162 166 169 168 158 162 168 166 161 153 155 175 197 207 209 187 163 161 162 166 172 174 178 180 183 186 185 187 191 191 194 190 185 185 187 185 184 186 185 180 174 164 157 153 140  53  53 140 147 186 183 182  40   9  20  24  30  31  51  58  53
 194 195 192 190 189 183 167 136 151 125  52  11  43  96 116 132 147 154 158 157 158 159 167 168 165 163 162 162 163 162 166 170 171 169 168 171 176 173 169 160 155 159 174 194 209 210 188 167 162 163 167 168 173 180 182 187 190 192 196 198 194 194 188 189 183 183 182 182 180 177 173 165 158 147 144 132  39  54 140 171 203 176 184  43   8  23  22  27  36  55  57  45
 195 193 190 187 184 178 163 135 162 128  52  13  36  91 116 129 146 156 160 162 164 165 167 166 166 166 167 171 174 175 173 170 165 176 183 182 179 177 168 160 156 163 179 196 212 213 197 176 166 163 168 173 178 182 182 184 190 196 197 202 205 199 191 188 187 184 177 177 173 167 163 157 150 143 137 121  35  70 185 222 181 178 196  44   8  22  20  21  31  43  41  32
 178 177 174 173 167 159 145 122 159 135  52  19  32  85 111 130 144 155 164 167 167 166 167 169 173 174 176 179 180 180 179 176 179 187 186 183 180 175 167 159 158 165 180 199 211 215 209 191 177 169 167 171 175 185 186 189 192 195 197 197 200 200 197 191 188 182 176 171 169 161 158 152 143 133 127  99  24  91 213 213 195 217 196  44   7  22  22  20  26  32  27  21
 130 128 126 121 116 114 104  95 149 151  67  31  29  79 106 124 139 155 166 167 171 171 174 176 175 179 182 181 184 184 185 186 188 189 186 181 180 175 168 160 160 169 183 200 210 216 217 203 189 177 165 164 174 186 189 188 194 195 197 196 196 197 196 194 187 181 177 174 170 161 154 149 139 123 122  81  22 119 198 169 201 224 192  46   6  21  23  24  27  25  18  15
  80  76  69  66  61  72  79  87 140 156  71  30  26  69 101 119 139 152 160 170 172 174 178 178 178 182 183 180 186 189 189 190 189 187 186 183 181 174 168 158 162 174 190 204 211 217 218 205 193 188 172 159 170 183 187 188 190 191 192 193 194 197 194 188 181 174 174 166 165 155 148 141 130 111 107  68  48 143 181 174 204 217 180  33   8  21  26  26  25  20  14  13
  61  67  73  65  46  48  65  87 133 159 102  50  29  54  99 113 136 150 158 166 165 171 173 178 180 182 183 183 186 188 188 186 186 186 185 187 185 177 162 149 162 179 194 204 209 214 213 204 197 191 180 165 160 174 184 186 188 190 191 192 189 193 190 186 178 171 168 162 158 147 144 133 114 106  95  50  75 168 194 199 203 200 137  17  10  20  26  26  23  18  14  15
 121 147 168 157 118  67  59  83 139 147 141  93  29  39  85 111 131 145 156 160 165 172 176 178 181 185 186 186 186 186 188 187 187 188 189 191 188 178 155 147 166 178 192 198 203 204 206 205 199 187 181 185 176 166 175 180 187 186 187 188 186 186 183 176 176 169 163 161 156 142 136 126 110  97  79  42 105 194 204 205 200 169  59   2  13  24  28  30  26  16  12  15
 180 186 198 196 169 114  60  70 141 143 149 122  35  24  70 105 127 141 149 154 160 167 171 175 180 182 186 184 187 189 188 190 188 187 190 193 190 172 150 164 168 174 191 196 197 198 203 205 199 189 181 183 192 187 169 170 175 184 186 181 183 182 180 173 173 169 159 158 151 138 129 116 106  92  70  46 135 193 192 183 169  92   5   6  16  25  31  30  24  12   7  12
 199 196 200 198 178 130  59  56 132 148 163 152  62  11  53  99 120 134 140 150 157 165 170 174 176 182 188 188 191 190 188 188 189 190 193 195 189 162 164 177 166 170 185 194 194 201 200 197 183 173 164 161 167 171 175 168 166 178 179 179 182 181 181 173 167 162 159 154 149 135 128 112  94  87  69  59 149 176 169 150  87   8   1   8  13  23  27  26  18   9   4   7
 197 193 197 190 166 115  63  51 138 162 170 161  97  14  37  85 110 123 133 145 154 161 165 169 172 179 185 188 189 188 189 189 187 186 188 192 182 165 176 165 157 163 175 185 190 202 195 180 164 143 128 110 115 131 150 172 165 167 175 177 177 176 176 168 166 158 156 150 147 131 123 109  92  81  60  58 126 143 113  65  30   4   2   5  12  19  21  18  12   7   4   6
 182 170 167 156 129 104  76  56 146 168 172 169 122  41  18  69 101 112 126 139 146 156 160 163 171 170 175 180 186 188 192 191 182 181 191 190 176 164 164 148 140 148 151 162 175 180 167 155 143 123  76  77 100 118 137 173 176 168 169 173 171 171 166 163 165 160 153 152 143 129 116 103  91  78  48  43  45  43  31  15  31  28   5   5  10  14  15  10   8   5   3   4
 164 160 151 139 124 105  81  54 129 166 165 171 154  79  16  50  89 108 120 129 137 150 154 160 171 172 173 179 183 190 187 183 184 187 190 188 179 153 138 115  89  99 128 145 152 152 145 143 129  80  65 124 140 134 143 181 187 179 168 170 170 170 165 165 157 158 155 149 141 129 112 100  84  73  58  42  26  29  35  30  23  34  27   6   9  13  12   8   7   4   4   4
 146 145 133 123 108  90  78  48  71 141 158 164 168 108  34  33  79 104 111 120 128 140 145 150 166 170 170 178 176 178 183 185 192 196 190 189 190 150 129 112 102  70  80 119 135 133 122 120 117 103 114 136 140 123 147 190 191 189 180 172 174 170 167 166 152 153 152 145 134 126 112  97  85  63  54  47  30  31  35  35  29  24  35  21   8  13  12   8   6   4   3   4
 133 126 114 103  86  77  67  54  27  44 103 149 165 145  67  37  66  94 102 111 124 133 142 150 157 165 168 170 175 177 178 180 188 194 188 191 195 161 127 137 144 134 119 108 109 107  99 108 127 136 126 125 124 122 160 192 188 187 186 180 173 168 169 166 162 154 147 143 134 123 102  94  74  64  51  43  24  24  31  34  34  28  24  36  21  11  12   7   5   3   2   3
 117 111  99  90  77  71  59  49  25   0   7  64 133 154  81  34  54  83  97 102 119 128 137 149 154 160 164 171 173 173 175 179 183 189 189 193 194 172 141 130 141 141 146 140 128 131 132 139 130 108 112 106 116 126 167 191 186 187 190 186 176 173 167 160 156 153 152 144 135 115  97  85  65  62  53  42  19  21  28  34  36  36  26  29  36  18  11   6   2   2   2   2
 109 105  93  82  65  50  46  32  12   6   3   0  21  54  30  26  51  69  92 100 110 120 128 143 147 154 160 165 171 170 173 177 181 187 190 191 189 174 160 141 132 131 134 115 120 143 157 155 128 105 110 115 125 145 168 176 181 188 190 188 185 176 165 156 146 150 147 134 125 106  94  82  64  65  62  46  17  21  27  29  30  32  34  30  31  33  13   5   2   2   2   2
  64  63  55  45  32  19  17  12   7   5   5   5   1   0   1  17  42  62  80  94 105 112 123 137 137 144 154 159 166 165 168 174 174 183 188 189 184 174 164 147 126 104 110 102  99 116 147 141 123 116 113 128 144 158 164 158 172 184 184 185 180 175 167 158 152 145 133 125 122 104  93  81  65  64  67  42  14  17  20  27  28  32  36  32  24  36  23   4   3   2   2   1
   7   7   6   4   4   3   3   6   6   5   5   5   4   6   4   5  38  55  74  90 101 105 119 132 137 145 151 154 159 163 165 171 175 183 184 185 181 169 156 146 126 105 115 120 108 111 134 137 128 130 125 129 140 150 151 153 167 169 169 170 165 163 161 158 151 141 129 131 121 106  89  76  75  68  70  33  13  18  18  22  31  33  36  32  28  28  41  15   1   4   3   3
   6   6   4   3   3   3   4   4   4   4   4   4   6   9   3   0  32  61  74  85  92 100 111 128 131 139 151 152 155 159 163 169 175 178 180 177 172 166 151 130 120 127 128 121 114 126 136 136 138 131 140 137 133 143 136 141 154 154 160 154 144 143 143 147 151 136 130 130 117  95  86  80  75  81  68  20   8  15  18  23  29  29  32  32  34  28  34  32   6   3   7   8
   4   4   3   4   4   4   4   4   4   4   3   5  12   9   3   0  13  53  71  77  78  95 102 117 130 132 148 154 155 158 165 171 173 172 169 169 156 147 135 124 131 133 126 110 123 133 138 142 140 140 143 138 140 136 135 129 139 133 138 140 133 134 141 123 130 137 133 127 111  93  83  80  72  73  60  14   6  13  18  22  26  31  31  32  35  32  25  35  26   9  13  16
   4   3   3   4   3   2   4   5   4   5   7  15  11   6   3   0   2  41  72  80  79  96  99 107 132 141 141 146 154 159 167 162 159 155 156 158 143 137 135 124 126 111 117 122 142 133 140 137 150 162 155 146 142 138 135 116 122 123 114 122 125 116 121 115 119 139 130 116 111  89  81  75  78  67  45   9   7  11  14  17  21  28  35  33  32  30  27  28  36  25  20  24
   4   3   3   2   3   3   3   5   5  11  23  17   5   7   4   1   0  29  76  75  73  89  99 108 128 140 141 148 153 158 157 154 154 156 156 144 128 125 135 131 129 116 128 149 162 144 143 147 167 175 165 162 151 150 144 122 115 108 108 106  98 103 112 112 110 121 127 111 103  79  76  74  78  72  27   5   9  15  12  16  20  27  34  33  33  31  31  28  28  37  27  26
   3   3   3   3   3   3   3   4   9  21  21   7   6   7   5   1   0  12  61  70  73  83  87 102 128 129 133 146 151 152 146 144 145 151 149 143 125 108 126 132 132 136 155 147 151 162 167 159 156 149 132 139 142 150 148 131 123 103 102  97 103  90  99 103 114 127 127 116  97  75  74  75  76  61  24   2   8  12  14  16  21  31  34  34  34  31  32  28  25  33  32  25
   3   3   3   2   3   3   4   9  19  27  11   5   6   4   6   2   0   4  41  75  86  79  85 108 114 120 129 140 148 143 133 127 131 140 135 126 118 117 121 134 150 146 133 117 117 124 130 125 109 103  99  94  92  99 101 101  99  93  97  97  96  96 102 109 114 132 127 108  79  70  73  70  65  47  12   3   8  11  14  16  21  29  32  32  33  31  31  32  27  26  35  29
   4   3   3   2   3   3   7  18  29  17   9   8   6   5   6   2   1   0  28  74  86  86  93  98 102 112 128 143 144 128 114 124 119 123 130 115 104 126 135 141 131 107  95  90  88  85  82  81  83  87  90  90  91  94  93  86  94 108 113 119 130 132 117 118 129 129 121 104  81  71  69  73  57  34   8   6   8   9  12  15  20  25  34  33  35  32  30  29  30  24  30  36
   4   3   4   3   3   4  15  31  23   9   8   7   6   6   6   4   1   0  11  55  80  83  85  93 107 108 127 138 142 122 115 119 111 111 121 110 103 107 108  94  83  83  97 102 109 112 107 103 115 134 133 133 127 126 122 122 127 128 139 142 142 137 135 137 132 127 114 100  80  73  71  79  59  32  18   5   8   9  12  15  19  29  33  37  36  32  30  30  31  27  27  36
   4   3   3   4   2   6  24  28  11  12   8   6   6   6   6   5   2   0   1  29  76  88  88  99 103  98 109 125 138 132 127 122 117 130 120 112 105 101  97 102 113 128 134 141 145 144 141 135 141 144 147 146 136 129 127 124 128 135 142 139 132 129 129 131 135 111  96  93  78  73  82  64  44  29  19   7   5   7  13  14  21  31  29  35  33  30  30  29  30  31  24  27
   3   3   4   3   2   9  24  14  11   8   6   6   7   6   6   6   3   2   0   5  59  92  89 101 105  96  96 117 135 135 135 129 132 147 148 147 145 131 129 126 126 134 132 137 139 141 151 149 155 154 150 153 145 137 134 136 138 141 142 137 128 125 127 116 134 117  92  76  73  83  76  48  36  25  19  10   6   8   8  13  21  24  26  27  31  31  28  29  30  33  30  26
   3   3   3   3   1  15  18  13  11   5   6   6   6   5   6   6   5   2   2   0  30  74  90  97 105  97  93 106 133 139 142 140 142 153 156 153 153 142 134 132 133 131 135 138 137 147 151 156 149 136 136 133 132 139 145 139 138 143 140 132 122 126 129 117 131 123  89  83  87  84  74  43  37  17  18  11   7   5   7  10  17  22  24  30  33  31  28  26  27  28  29  27
   3   2   2   2   9  18  11  13   7   6   6   6   6   6   6   6   5   3   0   0   9  55  84  97  96  91  90  99 119 135 133 141 137 147 153 158 157 154 149 147 143 133 133 133 129 124 111 109 111  99 101 118 129 134 139 130 131 139 135 127 124 124 122 130 130 109  87  81  89  89  71  44  45  13  17  12   7   5   6   9  14  18  24  28  29  30  29  30  32  29  30  29
   2   2   1   6  18  17  15   9   6   6   6   6   6   6   6   6   5   4   0   0   0  28  60  89  92  83  83  99 110 126 128 124 127 139 146 150 147 149 148 145 145 144 140 139 127 111  99 110 131 104 102 118 127 130 133 134 136 134 128 130 125 109 116 117 108  99  96  81  88  88  43  65  43  11  12  11   8   6   5   9  15  17  22  27  28  29  26  28  30  32  31  31
   2   2   2  17  19  15  11   6   6   6   6   6   6   6   6   6   7   7   2   1   0  15  43  75  85  82  88  98  98 120 129 130 124 130 135 142 143 140 135 139 138 138 135 132 121 116 122 126 139 137 137 145 150 145 141 137 134 128 128 125 120 119 116 114 103  96 100  93  85  62  43  89  21  15  10   8   7   4   5   9  15  17  23  31  31  28  25  26  28  29  30  33
   2   2   8  21  18  13   7   7   6   6   6   6   6   6   6   6   7   6   5   3   1   8  41  53  77  84  96  92  91 109 115 124 125 129 125 133 137 136 133 139 136 138 143 143 144 149 155 150 152 152 154 154 154 145 143 137 131 132 127 122 126 132 120 122 110  97 102  87  63  40  98  66   7  12  10   9   7   4   6  11  17  18  22  27  31  28  25  26  23  26  34  32
   6   9  20  19  15   8   6   6   6   6   6   6   6   6   6   6   6   6   5   4   3   3  26  49  44  72  92  92  91 100  99 117 128 133 126 129 134 137 139 137 140 143 147 152 159 166 166 155 161 158 163 163 152 145 141 133 127 134 126 126 132 133 116 110  90  89  92  72  32  71 109  15  10  10   9   9   8   4   5  12  17  18  20  26  27  28  25  25  23  27  27  30
  11  20  25  16   8   6   6   5   6   6   6   6   6   6   6   6   6   6   7   7   5   6   9  41  42  42  78  87  86  98 100 113 134 135 129 127 134 142 141 141 141 146 148 153 158 165 169 168 169 164 159 159 152 146 143 138 136 137 128 131 129 123 109 102  72  78  84  36  46 130  39   4   9   8   8  10   8   2   5  13  14  16  20  23  26  28  27  24  28  25  25  27
  14  23  19  10   6   6   6   6   6   6   6   6   6   6   6   6   6   5   6   8   6  12  23  14  50  35  43  69  75  88 105 115 126 128 125 125 134 143 147 146 145 152 153 150 150 166 165 164 168 168 156 155 149 140 138 141 139 138 131 124 118 116  85  76  68  84  47  29 123  62   3   9   6   7   7  10   8   2   6  12  14  20  21  23  28  27  27  29  28  28  26  23
  19  23  13   5   5   6   6   6   6   6   6   6   6   6   6   6   6   6   6   7   7  12  44  27  24  58  32  38  57  85 110 117 106 113 133 140 128 135 149 145 135 145 149 151 151 162 166 164 166 165 165 147 146 146 135 128 127 129 129 115 102 109  65  44  61  58  33 120  66   1   8   7   7   7   7  10   8   2   6  12  15  19  23  24  28  26  29  26  27  29  28  23
  25  17   7   5   6   6   6   6   6   6   6   6   6   6   6   6   6   7   5   4   9   8  49  62  27  38  68  30  25  55  85  96 103 108 105 109 112 129 133 146 150 149 149 146 150 157 164 165 162 155 157 149 143 133 128 109 118 125 112  83  80  70  46  33  29  40 118  73   0   7   7   7   7   7   9   9   7   3   4  10  14  18  22  23  26  30  26  25  24  25  26  26
  26  13   6   6   6   5   6   6   6   6   6   6   6   6   6   6   6   7   7   4  10   4  41  76  72  43  56  68  33  17  39  58  78  84  75  90 109 116 124 129 139 138 141 139 150 157 153 147 155 151 145 149 137 121 115 108 109 110  94  65  56  36  17   7  50 122  54   0   6   7   6   7   7   7   9  10   8   4   5   9  12  15  19  21  26  28  27  30  27  25  26  26
  23  10   7   6   6   6   7   6   6   6   6   6   6   6   6   6   6   6   7   3   7   5  24  75  98  92  71  75  66  37  13  19  37  52  57  77  96 108 116 120 124 131 127 135 143 148 143 138 143 152 141 137 124 107 105  94  93  89  73  63  43  13   4  78 124  38   0   8   7   7   7   7   7   7   9  10   9   6   7  11  14  15  21  21  25  27  26  25  26  24  23  25
  14   8   7   6   6   6   6   5   6   6   6   6   6   6   6   6   6   6   6   2   4   8   9  63  97 108 111  99  89  72  51  17  12  24  28  46  71 105 116 106 108 121 115 123 129 130 135 147 140 130 127 118 117  96  93  85  87  75  57  32   7  22  95 102  18   0   7   6   8   7   7   7   7   8   9  11   9   7   6  11  13  16  18  23  24  26  26  25  26  24  23  25
   9   7   7   7   6   6   6   5   6   6   6   6   6   6   6   6   5   6   6   3   3   8   3  35  90  98 109 122 135 113  77  55  25  10   9  18  31  71  99  97 100 118 110 104 115 119 128 137 134 124 104 107  88  92  93  77  68  49  25  10  45  97  56   1   3   7   7   7   7   7   7   7   7   7   9  12  11   9   4  10  14  16  20  22  24  25  26  26  26  23  24  26
  10   8   7   6   6   6   6   6   6   6   6   6   6   6   6   6   6   6   5   4   1   5   7   6  65 109 104 119 144 147 122  91  63  47  21   9  12  24  55  73  85 100  97 100 105 102 105 102 113 118  86  76  68  82  92  76  28  11  30  67  71  18   0   6   6   7   7   7   8   8   7   7   7   8  10  11  11  10   5   9  14  17  20  22  23  27  25  23  26  22  26  25
   8   8   7   6   6   6   6   6   6   6   6   6   6   6   6   6   7   6   7   6   3   5   7   6  16  87 118 108 135 155 148 139 114  88  64  39  17   5   8  25  58  82  75  73  82  72  67  65  67  65  39  44  45  35  33  23  25  45  50  21   1   4   5   6   6   5   6   7   8   8   7   7   7   8  10  11  11  10   5   8  13  15  19  21  23  26  25  24  23  22  22  23
   6   9   8   7   7   7   6   6   6   6   6   6   6   6   6   6   6   6   7   7   5   6   4   6   2  20  93 126 118 139 149 148 146 131 108  83  58  39  17   6   7  23  32  39  36  22  16  17  12   9   7   8   7  11  33  51  42  19   2   4   7   6   6   6   6   7   7   7   7   8   8   7   7   9  11  12  13  12   5   7  12  14  19  19  23  23  25  25  20  21  23  25
   8   8   8   7   7   7   6   6   6   6   6   6   6   6   6   6   6   6   6   4   4   7   4   3   6   4  15  82 116 113 125 139 141 134 130 128 110  97  78  57  39  23  19  16  24  22  15  21  25  30  41  45  60  72  52  19   3   6   6   6   6   6   6   7   7   7   7   7   8   8   8   9   8   9  11  12  13  13   6   7  12  15  18  19  21  26  25  24  22  21  22  24
