P2
# Generated by OpenCV 4.2.0
92 112
255
 195 178 170 153 138 114 106 102 100  97  91  99  98 105 113 116 123 129 135 138 142 147 151 146 146 147 154 148 155 125 105  77   5   0  15   9   9  16  12   3   6  10  15  22  21  14  25  22  20  20  10   8  10  12  18  13  19  10  37  35  78 125 153 108 205 200 219 222 226 229 229 229 222 237 236 232 229 227 228 225 226 219 216 208 200 192 178 166 152 137 121 118
 196 186 170 154 137 118 107 103 102  97  94  97  98 104 113 115 122 128 133 139 141 148 152 146 140 139 138 155 122  99  48   9   7   7   7   3  11   5   4   8  13  11  11   4   5   8   4   5   8  12   9  19  16   9  11  24  32  23  13  72  30  67  96 116 168 175 189 169 244 150 173 160 227 228 228 237 224 228 228 227 226 219 216 208 200 192 178 169 154 138 121 119
 196 185 174 160 142 121 108 103 103  97  93  97  98 104 114 115 121 128 134 136 142 146 147 154 148 136 142  56   4   7   7   5   5   3   2   4   3   5   1   8   8   8   4   5   5   5   5   5   9  10  12   9  32  23  18  12  23  31  11  39  34  45  74  91 103 120 164 162 171 152 186 161 180 162 159 194 235 227 227 228 225 219 216 208 200 190 182 168 154 140 123 117
 196 187 177 162 145 125 111 103 100  98  95  94  98 106 112 117 123 127 134 136 141 134 133  72  65  94  64  25  10   9   4   3   4   8   7   7   2  15   2   4   4   4   5   5   5   5   5   5   7   4   9  13  16  24  15  15  15   9  19  23   8  29  37  75  75  84  41  30  41  33  44 102 182 199 156 184 119 216 224 224 224 221 217 208 202 191 183 169 154 138 123 118
 201 192 179 166 148 133 112 104 101  98  96  93  98 104 113 116 123 126 132 141 119  89  10  15   8   1   5  11  12  12   6   5   6   5   3   5   6   4   6   9   7   7   4   5   5   5   5   4   8   6   4  12  20  18  17  21  20  11   8  18  25  20  26  41  65  25  25  34  28  91  69  67 120 222 213 199 186 240 224 215 225 219 217 208 203 190 183 170 154 138 123 118
 200 193 182 169 150 136 117 105 101  98  96  94  98 105 113 115 123 126 133 130   3  31   1   9   7   8   7   1   5  12  11   3   5   3   6   5   6   6   6   5   5   5   6   5   5   5   7   6   8   7   6  19  19  40  24  29  24  15   9  25  25  29  37  28  47  34  11  11  10  26  97 129 146 140 159 205 149 210 207 228 227 220 218 210 201 193 181 169 157 139 120 118
 203 196 185 171 155 141 120 104 100  98  92  91  96 101 110 116 121 133 111  53   4   1   2   2   3   1   6  12   8  11   6  11   7   4   6   7   4   6   6   5   5   6   4   5   5   5   4   3   7   9   8  24  20  31  53  23  33  27  13   7  39  21  44  35  35  34   9  23   9  19  21 106 157 186 181  94 138 214 209 217 224 224 217 210 202 193 182 170 157 140 121 117
 205 199 188 172 159 145 124 106 101  98  92  95  99 106 112 111 116  74  16  13   3   8   8   6   8  10   6   2   2   7   4   5   5   3   5   2   5   7   4   6   4   7   6   5   8   7   8   8  10   5  17   7  30  44  66  28  28  23  25  18  16  49  32  38  39  22  21  13  15  18  16  18  53 157 198 228  86 218 235 234 215 214 217 210 202 194 182 171 158 141 122 116
 210 201 191 177 163 150 130 112 100  98  92  93  98 103 111 110 117  77  26   7   8   7   5   7   1   7   7   6   6   7   5   7   3   3   5   7   7   4   4   9  12  13  16   9   7   5   6   3   3  12  23  18  37  49  52  61  25  44  16  27  24  42  37  36  28  26  33  12  21  14  29  70  17  59 176 196 144 151 219 220 226 216 215 212 203 196 183 172 156 140 125 118
 210 203 193 182 167 153 133 113 103  98  94  94  98 102 110 116 108  85  21   1   8   8   2   6   7   4   1   2   6   6   7   4  11   1   3   7   9   5   5  10  13  11  10  26  15   6  12   5   6  12  11  35  44  60  53  76  34  36  35  38  32  34  28  34  29  20  17  28  32  32  22  16  64  56  69 134 147 227 194 217 225 226 216 211 205 196 185 173 158 143 127 117
 210 205 195 183 170 156 136 116 102 100  95  93  98 102 117 104  96  35  14   6   0   7  10   6   5   7   7   6   5   6   6   4   9   6   6   5   3  12   9  10  27  21  24  23  21  12  14   2   6  14  13  43  45  83  73  94  34  33  33  45  30  25  32  44  39  13  13  32  25  27  24  32  42  65  57  55 177 235 248 212 212 221 217 212 204 197 184 172 160 144 128 116
 211 207 199 188 175 160 140 121 103  98  96  93  98 102 110 106  35  10  17  12   9   6   5   5   6   5   6   4   4   4   3   4   3   5   5   6   6   6  12  13  29  36  31  25  39  24   7  14   8   8  15  61  42  93  63  53  61  16  62  44  44  26  47  44  31  13  18  19  24  20  48  47  60  52  36  44 137 173 213 223 208 215 219 212 206 197 186 174 159 141 125 119
 215 210 200 188 177 162 146 126 107 102  95  93  96 102 108  62  20  15  13   6   3   1   1   2   2   5   5   6   4   7   5   5   7  10   3   6   7   7  10  19  21  51  38  28  24  38  25  10  11   4  24  56  56  79  87  69  12  32  49  56  56  17  27  55  19  11  13  24  28  25  28  33  26  22  26  34  47 213 218 224 217 217 211 212 206 197 186 175 159 142 126 119
 216 212 204 189 179 167 149 130 110  98  95  99  94 103  76  40  18   7   8   3   6   4   2   3   4   5   5   4   7   5   7   8   8  14   8   8   4  10   4  22  35  49  51  39  40  57  38   4  12   9  20  28  86  60  76  60  17  29  29  66  81  19  35  41   9  21  12  26  26  36  38  36  40  28  32  21  25 103 218 220 231 210 219 211 206 198 187 175 160 144 127 119
 217 213 202 191 181 169 151 133 113  98  96 104  94  84  20  29  11   9   6   5   3   4   6   1  10   8   8  12   9   7  11  11  12  21  23  15   9  18   5  38  35  32  35  61  48  50  58   3  20  13  24  14  89  14  54  43  18  17  17  48  81  27  35  26  21  17  19  32  29  26  47  57  48  42  38  33  38  51 178 218 218 219 217 215 204 198 185 174 157 144 128 119
 219 215 206 194 185 172 155 136 114 103  97  96  70  11  17  25   1  10   6   6   5   5   4  10   3  12  11  10  10  12  14  10  15  13  30  18  10  14  21  31  38  57  51  29  49  65  40  12  25  28  31  13  76  25  44  33   6   7  15  37  61  26  42  15  20  28  32  15  34  49  42  61  41  47  59  39  51  69 119 185 218 217 217 215 205 198 185 174 160 145 128 120
 222 217 207 198 190 174 160 143 120 102  98  79  24   9  10  20  16   8   7   7   5   6   5   5  11   5  10  14  19  23  21  14  24  18  34  37  13  21  29  42  62  72  85  29  46  43  53  13  27  36  47  30  39  31  23  25   5   8  23  23  45  39  12  29  26  17  54  54  40  50  63  51  58  44  37  50  69  81  50 202 193 203 222 214 205 199 187 176 161 147 129 120
 223 217 208 201 193 179 164 146 124 103  98  71  12  11  13   8   4   9   8   6  10  10  14  11  11  15  22  11  24  24  28  29  24  21  25  61   9   8  37  30  77  82  87  60  19  10  55  14  24  52  44  34  32  22  12  17  15  11  21  22  38  29   4  34   3  35  28  41  63  50  62  55  39  56  37  30  31  59  95 100 201 209 213 216 207 198 187 178 162 148 130 121
 223 219 211 201 192 180 165 147 126 113 103  26  13   8   6   7   7  12  13  10  11  15  20  12  21  17  25  31  10  40  29  36  30  21  23   9  37  11  37  47 104  91  62  58   6   8  31  25  28  64  19  27  20  15  11  20  20   9  14  21  26  32   5  25  10  55  60  55  27  49  45  40  56  36  38  43  33  33  43  87 175 196 211 216 208 198 187 178 162 148 129 122
 224 220 212 203 194 181 166 152 134 108  36  26  12  12   7   9   8  12  14  14   9   9  18  26  17  32  26  28  44  27  21  34  19  44  24  27  38  10  23  38  72  65  27  44  30  15  11  25  12  49   9  22  10  11  10  20  19  10  22  19  21  13  10  23  40  43  53  41  54  63  48  52  46  42  41  45  41  44  32  50  67 236 216 216 208 199 187 178 164 148 132 121
 225 220 212 206 195 183 170 156 137  96  11  10  28   7   5   5   5  10  13  17  12  13  18  18  28  23  30  25  32  41  47  45  35   9  22  26  30  17   6  57  35  30  26  24  35  10   8  28  19  39  17  17  12  22  13  32  21  43  13  10  12   9  19  21  33  48  44  55  49  50  60  52  30  49  39  27  54  38  25  48  28 194 212 204 207 198 187 178 165 149 133 122
 228 223 216 206 197 187 175 160 142  49  13  24  14   9   5   7   5  10  14  16  16  16  14  18  22  36  23  32  42  51  52  40  37  33  26  14  40  25  38  51  29  25  27  27  18  36  18  29  26  20  26  21  20  33  26  45  47  16  20  12   9  16  16  20  44  31  42  26  43  70  75  77  76  54  56  62  52  38  53  30  43  68 209 182 207 196 187 178 164 149 134 122
 229 222 215 211 201 190 179 165 144  22   7  28  12  10   5   6   5   3   7   8  10  17  16  11  16  12  41  38  41  35  37  52  22  13  17  21  12  46  17  30  19  22  26  28  18  31  30  29  26  35  36  34  46  33  39  71  28  31  11  21  14  14  20  18  18  36  33  41  45  59  56  54  65  67  77  53  34  39   9  27  53  21 188 184 199 198 185 173 162 150 134 123
 229 223 217 208 198 188 180 168 146   0   8  29  10   8   6   5   8   6   8   9   6   9  10  17  22  30  21  34  46  42  51  31  27  25  17  19  22  32  40  39  27  26  27  28  35  33  57  44  37  60  48  48  70  57  73  40  30  27  19  20  15  22  25  13  19  27  40  48  52  46  53  52  69  83  78  61  43  23  19  22  27  31  74 200 195 192 182 171 160 149 134 124
 229 221 217 209 199 189 178 168 146  18  10  14  21   9   2   1   3   4   6   6  12  12  11  17  16  16  26  49  49  47  28  20  21  30  24  23  33  43  37  50  48  40  41  39  59  61  85  69  90  85  84 104  89  92  69  65  42  21  23  25  20  22  27  26  31  18  20  25  47  55  38  88  93  74  76  83  40  38  44  24  35  47  64 172 182 179 177 167 157 149 134 125
 226 219 214 205 194 184 171 158 141  40   2   7  11   8   9   6   4   5   4   6   8   8  14   8  13  22  26  32  45  59  68  74  33  39  42  46  56  78  58  54  61  64  58  79  87  86 122 117 124 134 128 131 121  93  82  57  80  77  48  31  39  38  42  38  30  55  54  63  22  22  66  59  81  47  50  43  58  19  12  12   6  15  13  88 173 183 169 159 154 142 134 128
 218 209 205 198 187 178 170 160 136  34  12  20  10   7   3   5   6   4   8  12  17   9  10  16  19  12  17  29  30  48  44  66  55  59  50  86  86  95 107 104  89  97  91 123 119 126 155 150 152 174 177 159 144 137 126 120  92 105  80  91  86  82  65  56  70  56  50  34  18  34  32  69  53  55  38  23  33  23  10  29  16   9  26  29 169 167 168 157 151 143 135 129
 210 201 197 191 182 172 167 141 113  28  19   2   6  10   6   9  11  10  13  15  29  19  17  16  17  21  29  36  39  60  73  79  99 108 118 141 152 135 140 136 114 132 123 139 152 152 173 187 188 197 195 180 191 187 181 183 169 161 158 156 150 136 121 117  93  78  62  52  33  35  39  36  54  37  30  25  21  29  12  27   9  16   9  37 131 159 157 149 146 142 134 130
 204 195 192 188 178 170 160 152  67  22  18   8   6   8   3   5   9  11  21  22  30  41  36  43  53  55  58  63  87 113 122 143 152 147 142 162 170 169 172 165 166 148 156 161 173 175 194 193 205 200 195 197 205 202 199 195 212 200 183 172 158 162 171 145 136 113  99  74  66  63  57  47  52  44  32  22  16  28  22   6  29  12  14  21  24 158 150 145 141 135 134 130
 194 185 181 178 168 162 154 119   1  25  16   4   7   8   7   8   4  12  16  16  20  31  45  55  69  80  88 106 122 135 158 170 175 175 177 176 176 183 183 180 181 176 177 171 182 171 186 194 196 205 202 200 206 205 208 207 204 208 212 207 205 196 194 184 172 153 136 102  82  58  35  25  21  29  36  17  14  11   6  14  16  33  18  14  22 118 153 140 136 134 133 131
 183 178 172 167 157 155 143  92  23  17  14   9   6   7   6   9   7  10  16  18  36  65  75  83  99 103 108 117 136 148 165 174 180 184 187 180 188 185 180 179 179 182 179 184 170 190 182 189 204 207 202 210 207 209 207 209 208 212 211 214 211 207 202 202 194 184 171 165 132  98  64  23  25  34  25  21  12  12  30  17  27  17  28   3 100 101 136 134 132 132 132 132
 172 170 164 161 152 148 137  35  11  19  16  13   6   7   5   7   7   9  22  20  56  86  99 114 119 114 117 131 137 150 166 168 176 181 185 187 190 188 187 185 186 189 189 185 191 196 194 199 204 210 211 212 210 206 209 209 206 212 213 207 218 207 212 203 206 196 200 184 173 145 106  58  26  26  37  18  14  13   2  28  18  21  12  37  93 126 140 134 134 135 136 135
 156 153 151 150 144 147 131  30  18  19   6  10   7   5   6   8  10  15  18  46  85  93 109 113 122 117 122 125 140 156 157 176 177 183 188 190 194 193 193 191 194 194 201 204 199 205 202 206 209 203 209 206 206 211 207 204 208 212 210 212 215 197 211 210 209 203 202 196 186 170 134  85  56  60  68  29  19   7   9   6  11  19  13  26 129 118 123 136 135 136 137 136
 143 142 142 140 142 134 114  22  27  12   8   7   7   5   7   9   8  18  26  63  90  95 104 112 124 124 126 125 142 147 164 166 174 180 186 194 196 194 195 194 192 204 203 196 209 207 210 209 209 212 203 205 204 205 209 210 209 212 213 214 226 213 209 219 211 208 207 205 200 193 161 123  87  37  41  74   4  11  12   7   7   3  14  11  65 132 129 136 137 137 137 137
 140 137 136 136 135 138  86  10  15  17  22   2   6   4   6   9   9  14  42  50  86  95 106 103 125 126 126 133 135 151 167 164 171 177 188 197 203 195 200 200 203 200 205 208 212 209 214 209 219 208 210 208 204 211 215 219 216 218 218 213 220 215 214 206 216 211 204 204 204 195 181 141 113  93  49  29  31   5   6  13  11  11  16   7  35 124 136 139 133 138 138 138
 139 140 141 145 136 137  58  16  20  15  16   8   6   7   8   4   8  17  36  82  89  99  94 115 117 114 121 130 137 155 167 169 170 175 187 196 199 195 198 201 207 204 208 196 196 201 207 201 200 195 203 200 211 213 214 221 226 223 227 222 218 219 208 217 211 209 210 205 204 201 182 158 129  94  74  33  23   9   9  10   8  11  25   5  26 127 132 131 136 138 138 138
 141 142 142 142 140 143  65  22  10   7  12   6   7   8   9   4  11  18  48  73 100  90 107 112 115 115 127 131 146 158 172 173 173 177 184 196 192 201 197 197 200 208 206 208 206 204 210 208 208 202 212 212 212 212 224 213 220 216 219 218 215 218 221 210 214 210 210 211 210 206 188 178 148 102  62  48  14  10  17   5  12  15  13  10   2 120 132 125 141 137 138 138
 141 141 140 142 143 143  57  21  23  13  17   5   6   7   7   7  11  27  49  79  95  99 108 116 115 119 123 134 148 158 171 176 175 177 175 190 198 196 195 198 201 219 205 198 203 204 211 206 205 202 214 213 219 223 219 217 217 223 217 218 221 219 214 214 215 216 214 210 208 208 188 165 142 120  83  66  21  15   8  12  10   9   8   9  10  82 130 137 136 136 138 139
 142 142 142 141 149 146  98  24  20  15  13   6   4   6   6   8  17  22  51  73  91  93 110 112 116 119 127 136 142 156 165 177 177 179 170 180 177 198 200 204 205 198 198 193 192 187 195 206 197 205 206 204 209 205 205 217 221 222 212 220 220 218 212 212 211 214 214 209 210 210 201 168 159 114  90  45  35  15   9  10  10   9   9   8   5  73 139 138 137 138 137 139
 140 142 143 142 139 142  98   8  13  12  10  11   8   7   3   6  17  20  48  76  89  99 108 115 115 122 134 132 144 166 167 171 173 174 181 181 190 195 202 200 208 209 205 202 205 201 202 205 214 216 212 210 215 213 220 221 214 212 215 222 218 220 216 217 213 212 212 212 209 206 193 186 141 130  75  44  18  15  10   9  10   7   8   9  25 121 131 139 139 138 139 141
 140 142 143 142 135 139 138  12  10   5  14   6   3   5   6   8  14  21  52  75  99 102 109 106 125 119 130 136 145 159 165 162 168 174 183 184 186 193 187 197 203 205 202 198 204 212 204 213 213 206 211 212 212 220 222 215 218 223 221 221 216 216 212 215 219 216 213 209 214 206 214 190 171 115  85  42  16  14  12  13   9  12  11  12  82 137 137 139 140 139 141 142
 142 141 141 141 145 141 135  24  12  20  15   7   6   6   5   9  15  26  48  68  98 113 115 118 117 123 132 133 147 156 164 158 159 173 187 192 197 189 197 198 209 207 205 201 197 211 197 205 203 212 209 208 213 212 217 224 218 225 221 215 219 218 216 219 220 218 215 213 209 208 207 194 176 127  74  34  24  13  16  10   8   8  18  13 133 132 131 142 142 141 142 142
 141 142 141 142 137 144 142  60  32  13  16   9  10   9   7   7  14  30  29  87  92 107 110 128 122 123 129 142 142 154 162 155 158 173 185 187 196 198 198 208 210 204 203 198 204 199 190 206 212 211 214 214 216 217 220 225 219 213 215 216 217 219 224 222 220 220 220 214 212 209 207 187 161 128  62  35  15  17  14  13   9   9   7   4 113 143 134 143 142 142 138 139
 140 140 141 140 139 146 140 109  19  13  15  16  14   8   3   6  13  28  50  74  85 100 116 128 124 124 128 145 150 152 162 145 141 161 181 183 192 196 190 202 206 214 216 200 196 196 196 202 208 210 214 220 216 216 215 208 218 214 220 223 221 220 214 217 215 215 215 213 216 209 208 199 177 150  80  35  16  10  11  14  11   1  17   0 134 138 141 141 142 142 144 144
 137 139 142 143 142 142 141  98  28  14   8  13  14   9   6   6  17  32  53  72  84  96 113 125 131 133 133 145 152 158 151 154 130 155 177 190 186 199 198 206 205 214 212 202 200 201 197 197 206 208 210 217 213 211 216 217 208 218 222 217 216 219 221 220 216 214 211 220 212 210 208 194 188 165  88  40  19  16  13  21   5   9   6  13 128 140 143 140 142 142 144 144
 140 140 141 143 141 142 144  50  15  14  16   3  10  10   5   7  23  37  52  64  77  90 109 123 135 137 136 140 151 153 148 156 126 159 172 180 192 194 195 193 193 211 210 198 203 196 189 192 195 200 205 203 211 213 215 223 211 215 214 209 210 212 216 218 217 217 215 208 203 201 205 201 197 172 109  46  16  16   7  15   9  13  10  12 130 142 140 141 142 141 142 143
 138 140 141 142 141 142 141  32  24  16  12   7  20  11   3  11  31  43  53  62  69  79  94 116 127 138 146 143 151 152 146 133 135 143 166 165 175 171 174 181 190 199 205 201 208 197 184 178 172 179 179 170 186 187 189 190 210 207 209 210 205 203 209 210 212 212 211 203 206 193 201 202 196 191 127  52  22  13  15  12  11   6  13  26 141 141 142 141 143 142 143 143
 139 140 140 140 142 142 141  81  27  19   9  12  10   8   4  13  35  49  55  60  69  74  90 107 124 144 149 147 146 148 130 137 141 122 105 101 139 145 138 139 179 184 197 200 203 199 190 159 146 142 158 162 108  88 100 118 143 167 179 175 162 141 158 180 169 190 200 211 197 194 202 197 198 189 148  63  28  14  10   9   8  18  13  67 138 140 143 143 144 143 142 143
 139 140 141 141 142 142 141 111  19   4   8  10  13   4   5  18  40  56  59  60  65  77  91 100 127 114 112 110 120 124 121 116  71  45  75  63  89 121 133 153 146 178 195 203 199 202 191 137 135 141 138 129 132  93 100  90  95 113 124 135 152 132 142 183 170 176 176 184 205 190 199 205 199 188 180  79  35  13  12  12  13  10  17 106 144 141 142 144 144 144 142 143
 138 140 139 141 141 141 141 123  31  12  17  13  12   5  11  23  48  55  58  58  63  60  69  59  46  66  69  82  92  93  66  43  51  61  76  86  87 105 115 136 158 175 186 199 205 213 197 173 147 174 169 133 146 150 132 115 107  97 107 112 122 132 140 151 152 136 118 139 153 150 190 205 200 195 189 126  45  20  11  22  10  44  13 111 141 143 142 143 144 144 142 143
 138 139 142 143 141 142 141 135  63  16  15  17  12   6  12  34  56  60  58  54  62  45  29  26  46  55  53  67  58  57  38  57  78  74  88  99 110 117 141 130 143 166 173 191 207 208 198 191 177 188 177 181 176 158 163 150 164 165 169 164 158 174 191 181 177 179 165 144 143 171 184 199 202 193 192 138  74  13   9  17  26  16   8 119 144 141 143 143 143 143 141 142
 138 139 142 142 141 142 142 135  53  31  12  21  13   6  11  43  57  59  56  44  42  21  30  30  35  53  53  59  79  99 112 114 119 123 107 105 114 120 136 151 149 153 164 191 205 209 208 189 182 201 185 188 180 171 168 170 173 186 202 196 195 194 201 211 193 203 187 173 160 169 177 192 201 194 185 154  85  20  17  20  34  49  24 135 135 144 145 146 146 146 144 144
 138 139 141 141 141 142 142 150  84  21  19  17  11  11   9  36  58  61  59  46  35  29  33  43  61  68 102 125 134 145 151 146 141 126 110  92  93  99 120 125 135 154 169 184 198 214 202 201 188 194 190 179 167 163 152 132 142 151 174 181 204 189 199 206 200 201 195 198 177 167 169 201 204 201 193 165  84  35  14  26  30  16  20 144 142 142 143 143 146 146 145 144
 142 141 140 141 140 141 143 143 128  78  10  19  15  11  13  43  57  64  56  43  48  56  70  87  94 117 120 135 152 144 133 126 125 111  76  47  55  74  80  96 112 124 143 178 188 214 214 206 199 190 176 164 148 144  97 104 125 140 150 147 148 187 199 201 193 192 197 200 199 184 190 184 204 197 196 170 116  29  29  22  24  30  38 139 143 144 144 145 146 146 145 144
 141 142 140 142 141 142 142 146 119  32  20  12  20  11  13  45  59  61  60  54  52  71  83  85  94 109 121 128 115 138 156 153 165 158 147 127  89  60  60  65  69 106 129 157 201 219 225 211 197 189 173 164 159 114 125 140 121 121 127 171 191 197 156 172 201 193 198 194 204 201 183 201 200 198 203 189 110  79  26  25  31  19 126 152 138 145 145 145 146 146 146 146
 142 142 143 143 143 145 144 129  50  41  24  18  13   6  13  50  57  60  55  64  72  85  82  79  80 106  64  90 100  52  19  28  28  72  82 130 129 119  84  66  63  69 102 157 197 226 227 209 199 190 172 162 143 135  86  81  33  30  38  59  53 118 175 182 143 190 196 195 198 208 202 195 206 203 198 192 137  85  41  44  37   9 143 143 146 145 145 145 145 146 146 146
 143 143 143 144 145 143 155  88  58  62  39  20  12   9  18  53  63  64  59  65  86  90 108  80 100  67  80  48  44  26  24  17 117  96 176 151  81 118 132  83  51  57  89 149 197 224 226 206 209 195 184 171 154  99 113 116  65  37  15  57  82 133  75 113 183 173 182 188 206 204 211 203 212 209 198 191 154  78  39  54 137 194 203 181 148 146 146 145 146 146 146 146
 142 141 144 144 145 144 150  47  22  29  60  31  12  10  20  54  66  70  71  81 103 102 100 100  99  51  39  67  89  23  42  25  36 130 204 172 155  92  92 132  81  70  81 148 195 228 227 216 217 208 208 185 153 139 144 138  64  54  51  76 128 143 134 125 119 161 184 205 208 214 214 206 207 205 204 193 145 103  50 103 191 210 207 199 172 144 145 142 145 145 146 146
 144 144 143 143 142 151 151  32  19  20  27  45  20   9  18  54  63  72  77  92 107 101 102  94  72  74  97 109 103 127 118 125 148 160 160 164 143 131 119 138 133  76  85 152 192 211 228 213 220 215 213 197 181 157 153 144 160 158 168 183 174 195 192 188 194 183 195 193 206 210 211 220 208 204 203 193 157  88  71 145 222 217 219 193 198 143 149 144 146 146 146 146
 144 144 143 143 144 148 142  35  20  28  35  46  24  11  25  60  66  79  90 109 115 117 116 107 110 108 110 113 113 137 133 155 156 172 181 161 152 146 149 139 130  86  90 161 196 219 216 215 219 217 225 209 180 170 159 157 162 159 180 195 204 203 207 202 199 213 217 219 213 213 219 223 207 205 198 189 169 106  60 185 219 199  95 108 176 150 149 143 145 146 146 146
 146 146 146 147 146 145 149  51  21  32  43  43  13  16  30  60  65  82  93 116 116 131 129 130 132 131 117 129 144 149 154 165 162 163 158 158 158 162 150 126 126  95 103 164 189 212 216 214 216 220 223 204 208 183 173 155 156 169 184 198 199 210 203 206 211 217 216 226 217 222 218 220 208 201 193 193 174 134 113 200 216 208 165 130 175 151 147 142 146 147 147 147
 147 147 149 148 150 147 153  56  35  43  66  53  14  12  32  61  67  84 107 117 121 130 129 148 163 165 155 146 138 134 134 147 157 175 184 181 177 159 135 134 121  99 108 159 197 206 217 226 214 223 222 221 204 210 202 201 202 195 190 184 195 195 205 214 216 219 222 218 221 219 219 219 212 205 203 185 186 137 101 175 210 216 186 144 201 147 146 146 147 147 147 147
 149 149 148 148 148 148 154  82  58  66  68  46  17  21  42  64  65  84 110 121 130 128 139 156 172 176 179 187 186 184 185 174 189 191 190 188 178 148 141 142 120  99 110 161 194 205 215 217 216 217 219 222 222 208 204 207 207 207 207 205 213 216 209 217 214 219 222 222 225 222 220 220 212 207 195 192 181 128  76 182 214 204 183 170 204 144 146 147 146 146 147 147
 149 149 148 147 148 149 145 125  76  67  75  47  17  16  49  64  70  87 114 118 131 139 155 160 169 181 176 188 186 183 185 191 190 187 193 181 163 163 152 128 116  98 112 159 194 209 217 218 217 218 218 223 219 222 215 207 207 209 208 207 207 215 203 212 212 220 223 224 222 221 222 219 208 206 198 189 179 146  84 152 213 221 204 182 206 146 149 147 147 147 147 147
 149 151 150 151 152 152 150 144  67  74  61  41  25  19  52  68  69  85 112 129 136 139 144 167 171 174 182 185 185 188 186 188 180 169 189 181 175 163 146 124 111 101 116 151 192 204 213 214 217 218 220 216 222 220 215 214 206 210 208 207 209 208 210 210 215 216 223 226 226 225 224 218 209 207 194 188 183 141 101 145 181 209 217 180 201 148 148 149 147 147 147 147
 150 151 150 152 153 150 153 158  80  79  62  34  33  24  55  67  69  90 107 133 138 141 156 162 170 173 185 181 183 189 188 192 183 189 197 192 183 152 145 121 109 103 123 155 193 204 213 211 209 213 214 218 217 221 218 217 221 216 210 205 211 212 213 212 217 222 224 220 224 224 222 216 217 203 199 182 180 135 116 176 189 216 220 177 202 150 147 148 148 149 149 148
 150 151 150 151 153 153 156 155  94  89  75  48  39  20  50  68  69  85 103 123 131 134 150 156 166 175 176 184 187 188 186 195 195 198 195 196 177 160 133 123 105 102 129 170 185 202 212 211 207 212 214 221 218 218 216 215 212 213 211 209 208 212 215 215 209 219 219 223 225 217 223 219 208 207 199 178 177 133 147 175 201 210 223 191 195 147 148 149 148 149 149 149
 151 150 150 151 151 153 153 153 101  92  71  54  44  28  51  74  71  80  95 114 124 128 153 150 166 170 176 179 187 195 191 196 199 195 193 187 176 158 135 111  97 105 143 170 190 200 210 207 211 216 214 219 222 223 220 219 212 214 203 215 213 211 214 216 221 225 221 225 224 217 221 216 210 206 196 170 172 135 152 191 198 208 223 197 189 150 148 148 149 149 149 149
 152 152 152 153 153 153 153 154  95  81  75  49  53  23  46  72  68  78  95 110 120 135 137 150 157 167 178 181 183 199 196 198 193 198 195 194 176 152 136  98  89 116 149 177 192 204 210 205 204 210 213 221 224 223 217 214 220 215 210 207 213 219 217 222 222 223 221 225 221 220 216 211 214 203 197 170 159 104 141 202 199 208 224 198 183 150 149 148 149 149 150 149
 153 153 153 153 154 154 155 154  92  64  88  60  35  29  29  68  69  83  86 101 121 131 137 147 160 165 171 177 188 190 194 203 196 202 202 197 180 154 126  85  92 126 156 184 193 205 217 216 205 211 212 220 221 221 218 218 214 212 210 216 212 212 214 216 219 221 221 224 220 217 212 213 203 200 191 170 154 121 210 209 204 206 221 198 176 145 150 149 148 149 149 149
 154 153 154 154 155 157 155 157  92  59  73  70  39  19  29  70  62  71  84 103 117 120 141 144 155 165 182 186 192 196 197 197 196 200 201 195 175 149  87  85 105 127 161 183 196 207 223 224 214 213 213 213 215 218 215 215 214 215 208 205 217 218 220 219 218 222 216 222 220 215 210 211 203 200 189 166 141 113 218 197 199 209 222 205 168 149 152 150 149 149 149 149
 154 154 154 155 155 157 155 155  96  80  71  81  64  26  28  60  68  65  81  97 100 113 131 130 153 160 175 176 184 197 198 191 192 203 207 187 179 116 103 102 105 146 174 186 204 217 220 221 217 211 207 196 209 207 205 208 213 216 217 215 216 221 217 220 217 220 216 216 212 210 207 203 195 192 183 164 129 128 187 203 210 223 212 208 159 149 151 149 150 151 150 150
 153 153 154 156 157 156 160 155  97  72  72  72  76  44  20  59  64  63  74  85  98 112 126 147 151 160 167 178 189 188 202 195 196 204 193 188 134 108 119 107 116 145 165 184 199 206 226 231 224 216 216 217 208 200 194 197 198 206 216 215 216 220 217 221 221 221 211 217 205 208 203 195 194 188 169 149 125 132 172 203 217 221 198 206 152 151 150 149 150 151 151 150
 155 155 157 156 155 158 157 160  86  80  76  92  74  51  21  42  64  64  63  75  90 103 115 133 146 157 167 169 178 192 195 189 192 201 192 153  90 107 105  97 109 131 165 177 205 210 213 219 216 215 211 200 209 208 186 191 195 203 206 212 220 218 226 221 223 218 211 214 207 202 199 194 185 184 173 126 101 188 224 230 222 207 214 193 150 153 150 150 150 151 151 150
 155 155 155 156 156 159 156 155  79  67  74  85  84  47  23  24  63  59  63  64  80  97 113 125 139 148 162 169 176 185 189 197 210 196 181 115 107  83  71  58  84 111 133 170 190 203 203 202 203 182  86  88 146 201 200 183 190 199 207 213 215 223 221 218 216 215 214 210 209 197 195 194 188 187 158 111 112 219 226 225 219 224 205 180 157 150 151 150 150 151 151 150
 154 153 157 156 157 156 157 158 130  54  68  72  80  48  21  25  51  57  55  65  76  95 111 124 136 157 162 169 178 186 190 196 199 193 174 139  94  95  31  22  16  61 104 143 181 187 190 198 178  52 105 126 142 196 198 203 186 191 202 202 209 219 213 216 213 219 216 207 205 201 202 184 186 174 150 102 103 219 223 225 222 220 210 165 150 150 149 151 150 151 151 150
 155 157 157 157 157 156 157 158 158 115  42  60  73  52  27  21  46  53  45  59  69  85 102 118 142 150 161 169 176 178 192 189 202 179 170 169 129  71  68  33  24  22  55 113 154 153 167 187 157 157 176 179 186 196 211 212 202 185 196 207 214 209 215 221 219 217 216 208 203 200 192 193 184 178 129  93 134 220 220 219 220 217 201 154 148 153 150 149 150 150 150 149
 157 157 156 156 156 155 158 157 155 163 156  77  43  52  21  16  31  48  50  52  65  76  99 112 129 150 160 170 175 182 187 189 189 184 166 159 153 148 108  62  36  36  33  65 133 102 170 206 205 197 208 195 191 206 217 222 217 200 198 207 216 210 219 214 220 217 217 207 201 183 193 181 178 164 123  98 153 221 220 214 214 208 172 153 152 152 152 152 152 151 152 150
 157 158 155 156 156 158 159 157 158 161 161 157 138  23  25  20  26  30  39  52  58  73  97 114 127 134 152 162 169 178 186 192 181 187 165 159 150 140 141 115 107 102  97 108 116 137 191 202 185 190 192 205 209 213 218 223 223 218 206 205 213 215 217 215 214 216 213 206 196 186 184 181 162 152 130  98 164 223 211 209 194 169 150 152 153 152 152 153 151 149 150 149
 158 157 157 157 157 158 158 158 157 161 160 161 157 164 125  22  17  34  37  54  51  74  92 108 125 144 152 159 171 177 180 180 178 166 163 161 150 137 124 107 120 101 117 154 165 179 193 177 143 193 192 188 203 209 223 224 224 222 219 205 216 216 214 218 216 211 211 205 205 191 181 166 162 142  98  95 147 202 193 176 156 154 156 152 151 152 152 152 154 151 152 152
 157 157 157 158 158 158 157 157 157 160 160 160 167 160 147   7  26  33  36  37  48  63  84 104 124 136 150 160 169 174 182 184 168 175 156 153 127 106 104  90  91 112 107 126 166 179 156 147 146 165 161 170 199 201 209 217 219 223 221 219 217 215 214 215 216 215 209 215 191 193 177 156 164 111  91  92 135 152 154 154 155 156 156 154 154 154 152 153 153 153 153 153
 156 156 156 155 156 156 158 158 157 160 152 167 160 111  23  13  21  32  27  43  52  56  85 103 119 135 149 159 171 175 167 170 160 137 143 134 119  91  93 102 105 106 113 157 162 173 152 145 151 143 161 151 195 176 199 205 217 219 214 220 221 220 210 214 215 214 201 201 190 182 173 157 145 122  90  96 148 166 156 156 156 156 156 154 154 154 152 153 153 153 153 153
 156 156 157 157 157 157 158 158 157 155 163 138  39   4   5  17  23  31  32  42  50  57  82  98 116 137 146 153 158 164 150 153 124 123 122  91  91  91 110  96 114 111 120 136 164 154 124 143 154 155 128 140 170 166 186 178 194 198 201 203 215 217 214 221 206 203 203 198 189 185 169 156 141 129  94 104 144 152 155 156 155 155 155 153 152 154 151 152 153 153 153 153
 156 156 158 155 157 157 157 158 157 151  62   1   2   7   5  24  25  23  39  36  52  52  79  93 113 128 137 133 130 140 137 139 142 118 104  78  89  93 115 107 112 120 133 161 173 164 133 152 176 145 142 135 153 155 167 170 174 176 167 194 201 214 216 211 207 207 202 196 192 185 170 149 132 101  82 120 152 155 156 157 157 157 157 157 154 156 153 154 153 152 153 153
 156 156 155 156 153 156 153 165 106   1  11   6   6   6   5  19  23  27  24  38  55  57  80  84 105 130 137 117 105 101 119 123  95  67  78  73  82 106  98  98 128 138 177 185 182 181 174 187 186 143 157 134 166 150 160 163 168 178 141 191 189 182 218 210 202 204 200 200 185 177 159 152 141 112  91 128 161 160 156 157 157 157 157 157 154 156 153 154 154 152 153 153
 156 155 155 161 154 154 153  36   3   2   0   9   6   6   5   7  22  24  33  37  43  48  57  81 105 117 111  91  85  83  79 109 101 105  73  76  93 116 113 120 132 153 170 195 194 189 194 197 196 195 178 182 160 152 144 138 146 143 155 172 176 176 193 217 211 207 206 191 179 181 173 169 131 126  77  62 129 164 155 155 156 157 157 157 154 156 154 153 154 152 152 153
 153 155 154 157 156  80   6   5   6   2   1   7   3   4   4   3  16  20  38  34  36  58  58  68  98 112  90  69 101  84 108  74  84  65 102  79  93 123 123 128 117 118 112 135 173 166 162 172 156 171 195 206 188 170 136 144 152 152 130 147 163 173 185 197 212 201 193 183 164 166 171 162 140 120  75  38  32 135 158 155 156 156 157 156 157 154 154 152 155 153 154 154
 153 154 158 129  26   2   4   4   5   4   6   6   2   3   3   2  15  22  29  30  35  46  52  63  84  92  82  62  88  82  89  95 102  75  77  90  96  90  84  79 103  90 105 100 110 142 145 144 143 147 137 157 169 173 165 158 139 145 128 138 158 144 179 209 210 189 184 182 160 156 164 156 145 106  65  32  41  35 136 156 156 156 156 156 157 154 155 151 156 152 154 154
 152 155  86   0   5   2   5   5   4   5   6   6   2   3   2   1  11  23  20  30  23  37  52  52  69 100  94  80  88 114 105 132 125 130 121 107 105 113 134 141 150 158 166 170 163 149 166 178 160 188 182 183 177 167 158 146 141 132 142 148 155 161 158 222 205 197 168 178 149 153 153 158 135  82  46  26  22  37  45 134 158 155 156 156 157 154 155 153 156 154 154 154
 145  16  12   8   2   0   5   4   5   5   6   2   3   2   3   3   4  11  16  29  33  39  43  34  61  88 114  99 130 143 160 156 159 144 137 124 132 133 152 141 151 174 172 190 193 182 193 199 198 204 191 198 198 208 204 201 207 202 197 182 154 185 175 197 210 187 174 176 162 171 143 151 128  54  35  32  24  30  31  40 146 161 158 154 156 157 156 156 156 154 154 154
   8   6   3   5   4   4   4   4   4   2   3   3   2   2   2   3   4   9  12  22  24  32  40  28  63  81  99 138 145 158 169 155 166 156 149 126 122 124 130 146 160 167 175 181 185 191 201 194 197 195 206 206 202 206 213 217 220 219 218 213 204 207 208 203 197 194 159 163 161 135 154 148 117  75  28  23  24  31  29  37  43 153 152 158 157 157 156 156 156 154 154 154
  16   6   6   3   4   4   4   4   4   3   3   3   6   6   6   3   4   8  12  20  24  36  31  29  47  72 103 126 148 167 149 146 148 157 152 147 135 132 133 126 128 152 170 177 178 186 190 190 187 186 184 204 209 218 215 220 222 217 214 209 210 211 215 206 199 174 156 158 154 157 151 133 107  64  32  24  28  29  27  31  30  69 152 156 156 155 160 155 156 154 154 154
  14   5   4   4   4   4   4   4   4   4   3   6   6   4   2   3   4   2   6  21  19  30  32  30  37  62  94 127 143 151 154 130 145 147 148 151 144 142 130 141 145 147 147 138 119 155 141 144 175 191 212 206 210 205 219 218 220 214 205 212 206 207 199 186 172 173 149 155 136 161 152 106  87  29  24  24  27  22  30  28  39  22  82 161 153 157 155 156 155 155 154 154
   9   4   9   3   4   4   4   4   4   6   6   6   6   5   3   4   3   3  16   8  20  24  34  38  35  51  80 105 133 146 129 131 121 134 145 140 153 156 140 145 142 155 161 150 154 179 170 142 166 178 189 199 215 216 215 212 216 205 212 211 204 208 201 181 178 162 164 163 173 133 143 109  56  22  19  20  29  30  24  27  31  37  16 110 167 150 154 156 155 155 154 154
  10   6   6   6   4   4   5   4   4   6   6   6   6   5   3   4   4   3  26   5  12  23  34  31  28  46  63  76 113 125 130 113 123 119 139 143 150 162 168 165 160 167 168 162 162 159 186 175 186 193 208 212 215 213 211 207 210 206 204 200 210 196 200 162 165 177 158 154 134 138 108  84  41  21  27  22  26  26  26  27  27  33  41  34 125 158 153 156 154 154 153 153
  10   8   6   6   4   4   4   4   4   3   3   3   5   3   4   2   2   4  24  22  14  18  27  22  26  29  56  63 110 132 125 116 109 127 131 135 148 162 161 174 185 191 196 191 191 195 199 199 199 204 205 203 211 212 207 210 204 202 195 192 203 186 169 154 160 158 158 154 154 112  75 134   4  18  14  23  23  26  23  29  27  26  26  35  40 148 151 156 155 155 154 154
  12   8   6   6   4   4   4   4   4   3   4   4   4   4   4   2   0   5  25  35  20   6  15  28  20  35  42  59  79 122 114 125 126 122 141 131 148 156 161 174 188 198 200 208 208 207 214 217 221 216 214 215 213 207 210 208 204 210 205 199 190 184 160 165 150 158 156 140 126 111 100 178  32  10  24  20  25  24  23  32  29  22  31  31  36  52 160 154 155 156 153 154
  12   9   9   5   4   4   4   4   4   4   4   4   4   4   4   3   2   5  24  29  34  14   7  13  17  30  38  53  67  81  90 106 123 129 140 130 152 169 174 181 180 182 194 207 210 219 217 219 220 226 224 219 219 205 213 212 206 207 202 190 192 177 165 157 152 157 131 133  94  76 206 168  13  14  14  21  29  26  25  32  29  30  27  30  33  33  67 152 155 154 154 154
  12   9   9   9   6   4   5   4   4   4   4   4   4   4   4   4   3   2  22  30  38  33  15  11  16  21  42  46  51  48  63 111  99 121 128 138 132 162 165 181 179 189 199 199 211 211 220 228 228 226 228 227 228 219 221 216 210 209 195 184 185 166 166 174 159 147 129 115  78 164 207 161  10  12  17  15  22  35  25  26  26  28  29  32  29  36  25  97 151 153 154 154
  15  11  12  12   6   5   4   4   4   4   4   4   4   4   4   4   1   1  26  25  35  34  21   9  10  14  25  24  33  43  54  63  77 107 114 129 143 149 169 166 169 187 195 199 201 214 215 219 213 223 224 228 228 227 217 215 206 198 186 152 171 144 160 154 138 118 107  98 137 198 215 140   5  11  14  19  28  12  30  27  30  26  28  30  28  31  27  25 116 147 154 154
  15  10  11  12   7   6   4   4   4   4   4   4   4   4   3   4   2   2  29  33  33  36  30  17   9  13  14  22  23  26  34  55  98  77  80 103 130 145 153 157 179 190 187 187 203 209 211 215 207 224 222 220 217 210 216 202 191 181 155 139 136 134 150 141 123  77  87 101 202 216 215 136   7   8  15  18  13  25  23  27  30  34  24  30  28  27  30  24  31 133 155 154
  11  11  12  12   9   9   6   1   3   2   4   4   4   4   4   4   3   2  27  34  37  39  35  32  19   9   8  11  14  13  29  42  30  58  75  91 124 131 145 147 167 165 185 187 191 190 189 201 204 206 205 210 192 191 196 194 178 142 122  89 128 118 126  93  85  71  92 190 213 214 210 118   2   8  11  15  17  21  23  24  24  30  25  30  30  32  34  32  34  43 150 147
  12  12  12  12   8   9   5   6   5   3   4   4   4   4   4   4   2   4  27  33  37  34  39  40  39  18  12   6  10  12  22  36  33  45  33  89 100 112 111 137 160 162 166 161 181 179 195 186 197 193 183 180 171 175 167 171 162 131 107  64  92 123  96  83  77 103 213 215 219 217 210 113   6   6   9  14  17  20  22  33  25  29  26  32  27  28  30  29  35  29  55 151
  13  12  11  12   6   9   9   6   5   3   4   3   4   4   5   5   2   2  24  35  33  38  39  41  40  28  31  13  11   9  11  10  19  23  40  70  93 106  91  99 121 149 131 152 167 172 178 162 177 174 166 165 155 149 163 130 110  76  27  50  82  69  61  52  98 209 232 224 225 209 206 123   4  11   8  17  17  16  20  23  28  24  31  26  27  27  29  32  31  26  29  80
   9  12  12  12  12  12  12  12  12   9   0   6   2   4   4   4   6   1  28  38  32  39  40  43  35  40  37  34  12  12   8  12  13  31  20  19  61  56  95  91 118 121 112 151 139 161 160 149 152 155 150 125 140 118 114 107  64  49  44  76  38  61  53 144 190 224 228 224 220 217 207 118  12   6   4   9  12  16  24  24  26  26  26  26  30  27  26  31  31  32  30  33
  12  12  12  12  12  12  12  12  11   9   4   3   5   4   4   4   7   1  26  35  33  39  39  43  41  39  39  30  30  24  10  15   9  15  17  30  47  43  79 108  96  98  88 118 130 136 136 143 128 105 140 122 111  71  90  36  74  46  44  43  60  37 174 212 217 224 232 224 219 217 214 120  33   6   7   7  10  13  17  25  24  29  29  22  30  26  25  26  29  33  26  25
  13  11  12  12  12  12  12   9  14   8   7   0   5   5   4   4   5   2  26  35  34  36  36  36  43  36  43  45  38  36  24   9  16   7  13  25  24  32  35  54  54  65  89  83  83  86  84  67  74  60 103 115  78  47  63  25  37  40  33  37  95 166 209 229 220 226 222 225 217 215 211 121  49  15   6   7   7  11  17  15  22  28  25  32  28  29  27  27  27  32  28  31
  12   9  12  10  12  12  12  14  14  12   9   6   3   6   6   5   4   4  27  36  36  34  40  30  35  40  31  39  40  40  30  25  14  15  12  16  60  34  22  46  24  36  52  26  48  36  22  25  58  39  62  80  57  39  38  33  42  66  49  89 179 218 221 218 227 225 224 222 217 213 204 112  43  27   6   6   6  11  17  16  18  18  25  28  29  25  26  32  26  32  30  26
  12  12  12   7  12  12  11  13  14  12   9   6   2   6   6   6   2   4  26  37  35  37  37  34  38  36  44  33  41  40  43  31  26  21  11  18  11  30  28  30  17  24  20  27  20  27  19  20  28  25  30  39  25  47  38  43  47  62 123 170 215 220 226 222 224 226 224 222 215 213 208  74  39  36  22   3   6  12  16  17  20  26  24  18  31  20  27  33  29  34  28  28
  12  11  17  11  12  12  12  14  13  11   7   9   3   3   6   3   3   3  23  39  36  41  39  37  37  40  38  39  38  38  38  38  32  35  28  18  14  16  19  16  12  23  19  18  16  27  19  20  17  32  29  29  38  47  56  55 114 180 170 210 217 221 231 211 224 225 224 222 214 216 209  55  47  44  29   1   2   8  10  13  16  18  21  17  25  20  28  21  31  30  31  30
  15  15  12  12  12  12  12  12  12  12  12  10   6   2   5   3   3   3  21  41  43  41  38  38  38  39  37  38  41  36  41  38  36  42  27  38  39  25  19  17  22  26  17  19  17  20  26  27  35  25  36  23  49  74 116 168 190 210 211 217 221 223 224 224 224 222 223 222 210 213 205  41  37  37  36  14   3   5  10  11  15  19  20  20  23  22  28  26  28  25  29  31
  15  16  12  12  12  12  12  12  12  12  12   9   5   2   5   3   4   5  19  45  44  47  40  39  39  39  38  39  35  42  34  40  36  34  33  39  41  41  45  40  42  45  31  30  17  28  31  41  38  36  57  97 121 135 181 184 205 218 221 219 221 225 224 223 223 223 223 222 216 216 211  29  49  32  39  28   4   6  11  12  15  18  16  21  22  28  35  27  26  26  30  29
