P2
# Generated by OpenCV 4.2.0
92 112
255
 187 183 183 189 194 187 181 183 187 183 176 175 176 176 178 181 181 177 173 171 168 167 168 166 164 164 162 160 152 108  34  12  10   8   7   8   7  10  38  39  30  54  70  66  60  55  45  39  31  21  21  18  16  15  15  46  74  85 100  98  83  81  76  66  65  75  74  75  73  75  81  77  87 113 108  80  60  59  66  71  59  50  59  75  70  57  51  49  48  48  47  42
 186 183 184 189 195 189 182 186 188 181 179 179 177 175 177 180 183 179 174 171 168 167 166 165 165 163 161 165 158 110  37  16  10  17  21  17  20  34  40  41  53  57  52  53  58  58  53  41  36  27  17  14  11  11  11  12  46  77  91  76  60  56  47  55  72  72  52  46  48  60  72  82  91  93  88  74  60  56  61  75  68  53  51  62  65  58  50  47  48  49  45  41
 187 184 185 190 195 188 182 187 189 181 181 180 177 175 177 181 184 178 177 174 168 166 162 160 165 165 153 168 151  72  31  21  19  20  22  26  29  31  27  28  30  32  33  31  33  33  35  38  35  33  25  13   7   4  11   8  14  39  53  32  24  19  26  47  56  56  52  43  35  37  41  70  95  84  72  70  59  56  60  79  76  55  47  53  60  59  52  46  47  47  42  40
 185 185 188 192 193 186 182 186 186 178 178 179 176 175 175 178 181 176 176 175 172 167 165 155 121  90  48  66  60  16  19  18  21  22  25  23  20  18  19  25  34  34  32  27  25  23  22  33  29  28  30  25  15  10   6  17  11   7  14  14  13  16  20  43  62  50  40  40  36  35  35  42  66  63  69  74  61  53  58  77  71  52  47  50  58  59  52  44  43  43  41  40
 187 185 189 192 191 186 182 184 183 176 175 179 180 179 176 177 178 174 171 175 177 174 167 109  46  17  13  21  24  17  16  17  22  30  25  17  15  16  17  17  31  42  34  24  26  23  20  21  25  23  26  30  23  15  10  11  17   7   5   7  11  11  15  27  48  43  31  33  34  26  36  48  44  42  52  65  59  51  58  77  68  52  52  55  61  65  56  45  40  41  42  41
 187 186 189 193 189 188 182 182 183 180 178 177 179 180 179 179 179 176 177 155 129 126  76  33  24  16  16  22  21  17  19  21  21  13   9  10  12  31  31  30  36  39  36  38  26  16  14  14  14  16  19  24  20  19  17   9  16  14   5   7   9  11  13  23  33  39  28  24  33  36  24  36  37  33  44  45  49  52  69  87  72  64  67  58  56  66  61  47  41  41  42  43
 188 187 190 189 187 187 183 181 185 185 182 178 181 184 179 176 178 177 146  70  26  28  17  16  20  21  16  17  22  20  18  20  14  20  22  30  36  39  38  38  32  21  15  17  18  11   8   8  10   9  11  18  17  22  19  14  16  20   5   7   8  10  19  25  36  34  26  21  21  32  33  22  27  25  46  45  39  48  72  84  69  73  77  58  51  61  58  45  43  43  42  42
 189 184 186 185 183 185 180 181 188 186 184 182 184 187 181 177 175 117  59  27  17  14  15  22  29  27  23  22  21  18  15  19  31  48  47  35  44  35  23  26  26  17  20  19  19  11  10  10   9   9   8  10  18  17  15  16  22  19   5   8   8   9  19  25  37  33  23  25  19  22  26  24  23  21  29  44  40  41  59  75  70  77  76  57  54  63  56  43  42  43  41  41
 185 184 187 186 183 182 178 182 186 184 184 181 186 187 180 182 171  68  36  20  16  12  22  28  12   9  11  14  28  45  51  50  47  42  33  29  28  22  25  29  23  19  16  24  20  19  12  14  11   7   8   6  11  14  12   9  16  14   6   9  11  16  16  25  28  22  19  25  28  23  29  24  18  19  20  29  38  44  51  70  77  82  73  56  58  66  59  44  41  40  38  38
 185 186 189 187 187 183 174 178 181 181 181 180 184 185 183 188 152  59  24  25  18  16  25  10   5   3   3   7  31  47  54  59  43  32  34  28  26  29  24  28  32  28  21  25  20  15  22  19  20   8   7   9   9   9  11   7  19  12   8  13  18  18  19  28  27  22  19  23  36  29  24  25  17  12  13  15  31  43  45  66  93  92  70  57  63  66  55  42  39  38  37  38
 184 184 185 186 192 189 176 177 182 183 180 178 184 182 182 157  63  25  25  27  14  22  19   3   8   9   6   6  10  12  17  23  25  37  52  49  29  26  26  18  21  29  18  19  17   6  24  30  19  17   6  13  15   8   9  10  21  10  10  13  12  18  36  33  19  15  20  20  33  43  28  19  19  10   8  12  21  34  49  73 106  96  66  61  68  61  49  42  41  40  39  39
 184 185 185 190 194 190 180 178 182 183 179 180 183 184 170  68  20  26  24  17  14  16   8   2   5   8  10  17  23  14  12  13  20  21  42  65  43  21  28  18  10  17  24  15  10   3  12  34  20  23  10  15  18  10   9  11  17  12  14  14  11  15  26  26  23  20  17  27  29  33  46  28  17  14   8   5  13  24  52  92  99  85  61  61  65  56  48  45  43  42  43  40
 187 188 189 192 194 190 183 179 178 178 177 180 184 180 129  24  20  28  26  17  12   6   4   4   6   9   4  32  46  16  10  13  17  42  34  47  59  27  14  17   8   7  13  26  10   6   1  20  17  20  18  19  36  15   8  11  13  15  16  24  22  21  17  14  17  23  29  26  44  36  25  38  27  13   9   5   5  13  52  92  82  67  57  57  58  52  50  48  46  43  43  41
 185 187 189 191 194 193 183 177 173 174 180 191 184 111  64  41  25  22  19  16  16  14  16  15  18  18   4  12  33  22   4   6  13  33  64  37  41  40  15   8   7   5   2  14  15   8   3   7  13  14  22  24  45  20  11  18  12  16  19  22  26  32  34  25  21  24  40  38  32  45  20  15  24  16   8   7   4   6  40  75  68  56  50  55  57  53  51  48  47  44  42  42
 182 186 191 189 190 191 180 175 170 173 189 185 111  47  40  36  14   9   6   7  10  18  22  38  38  25  12   4  15  17  15   8  13  21  40  53  25  21  18   7   4   4   2   4   9   7   4   4   6   9  28  28  45  25  20  23  13  20  37  27  18  20  27  31  24  36  56  57  37  21  26  14   7  10   9   5   4   4  19  50  61  55  47  51  56  58  54  47  46  45  42  43
 187 191 196 190 186 187 180 176 169 170 178 126  57  49  48  17   9   8  11   7   7   6  11  36  43  24  22  18   5  15  27  34  21  27  25  31  29  11   9   8   5   3   2   2   5   6   5   5   3   8  35  30  34  34  27  21   9  13  29  39  38  38  28  29  20  16  47  69  35  18  14  22   9   4   7   6   5   4   8  39  66  57  49  52  57  58  55  53  51  46  42  43
 190 195 194 187 184 182 177 174 176 183 164 100  50  35  30  12   8   9  14  25  31  22   5   4  25  22  26  36  16  14  36  42  30  24  33  13  19  11   6   7   3   3   1   2   3   3   4   5   3   9  24  19  25  43  29  18   7   7  19  33  30  52  51  32  25  18  18  47  45  17  10  13  18   4   3   4   5   4   4  28  65  58  54  58  57  53  53  55  53  46  41  41
 192 195 188 183 185 182 176 176 184 176 109  54  40  32  12   8  19  31  33  34  29  32  26  11   6  16  29  30  11  16  41  41  23  15  14  12  12  10   5   4   3   3   2   2   3   4   6   7   3  11  23  11  22  32  22  20  13  14  14  17  17  23  39  36  23  22  20  16  26  22  10   5  12   9   2   3   4   3   2   8  49  57  55  58  54  51  52  49  47  44  39  40
 196 196 184 180 183 183 178 181 157  90  32  24  15  11  10   6  30  48  36  21  19  20  27  28  18  18  29  32  17  13  35  40  21   9   4   5   9   8   3   3   3   3   3   3   4   4   6   7   3  14  15  10  18  21  21  17  22  30  15   9  12  13  34  34  16  11  23  22  21  17  10   5   5  10   4   3   3   3   3   2  20  55  54  54  50  51  52  46  44  42  37  44
 199 194 181 180 182 182 184 179  97  21  12  14  15  23  15   7  11  27  30  19  24  26  26  29  39  36  31  34  21   9  12  26  28  10   5   5   8   8   4   3   3   3   3   3   5   7   8   6   8  13   8  11  13  11  10  13  27  30  28  23  24  17  19  29  26   8  10  21  19  12  10   6   4   5   7   4   2   3   2   4   3  37  56  52  49  49  51  48  44  42  34  65
 196 188 184 184 184 184 182 112  53  28  11  18  27  25  18   9  11  11  16  17  25  42  47  37  33  43  34  35  28   7   4  14  28   5   3   4   4   6   4   4   3   2   4   7  10  15   8  12  10   8   7  10   9   8   8  13  29  41  40  34  33  33  28  22  23  18   7   7  16  13   7   5   4   2   5   5   3   2   2   3   2  11  55  57  50  48  52  50  44  41  33  75
 193 188 186 183 184 164 113  50  32  16  18  18  30  33  24  13  10  12  12  20  27  46  48  24  27  31  18  31  27  11   3   6  13   9   4   4   3   5   4   4   4   4   6  16  22  20  17  12   9   6   7   9   8   8  10  18  27  50  56  54  52  45  35  31  19  12   9   9  11  13   6   6   3   3   4   4   3   3   2   3   2   1  33  63  50  49  51  47  42  40  32  79
 190 190 189 187 161  79  18  10  13  10   6  14  24  30  35  36  31  27  19  24  45  58  56  30   7  17  11  15  30   6   4   9   9   8   4   7   9   6   5   6   5   7  11  26  37  25  15   8   7   7   8   7   6   7   9  17  24  31  37  47  47  39  26  16  19  10   5   7  10  11   7   5   3   3   3   3   4   4   3   3   2   3   6  47  52  46  47  41  39  40  33  85
 189 194 198 173  55  19  12   8   5   8   8   7  10  18  25  31  49  58  38  24  36  57  32  20   9   4   7   7  25   7   3   8  10   6   8  11  17  14   9  11   8  18  21  53  44  16   9   9  10   8   6   5   5   7  11  17  20  30  44  48  36  16   9   7   7   8   4   4   6  10   7   5   2   2   2   3   6   4   4   4   6   3   2  20  48  47  43  39  38  40  33  92
 191 199 196  99  17  10   4   3   3   3   6  10  11  12  15  21  35  49  38  19  20  27  21   8   7   4   5   5  17   8   4   7   8   8   9  18  20  26  16  18  21  36  41  64  35  15  10   9  10   7   5   6   8   9  12  22  28  33  38  40  43  29  12  10   7   5   5   4   3   7   6   3   2   3   2   3   4   4   4   5   5   3   3  11  40  47  41  42  41  37  33  98
 191 202 181  59   9   8   7   7   5   3   4   6  10  16  19  17  20  31  32  19  10  13  14  11   6   5   5   6   8   9   6   8   9  12  12  27  27  41  32  35  41  60  78  67  24  10  11  12  10   9   8  12  13  14  16  18  21  33  53  55  43  33  20  14   7   5   4   2   3   9   4   2   2   3   3   3   2   3   4   4   3   2   1   5  26  43  43  44  41  37  32 103
 189 200 176  69  13  14  11  10   8   4   4   6   8  14  18  22  27  27  25  18  10   7  10   8   8   6   5   6   8  10  10  14  16  23  22  29  50  57  67  79  64  98  82  39  21  19  23  18  15  13  19  22  17  19  21  20  23  20  32  48  46  32  20  18  12   7   6   4   4   4   2   2   2   2   2   2   2   2   4   3   3   2   2   4  16  41  46  44  39  39  33 107
 187 193 176  71  20  24  21  10   7   5   5   5   8  13  12  15  20  19  14  10   8   6   7   8   9   8   7   8  11  13  14  28  46  45  41  46  83  86 104 127 121 116  82  58  59  62  53  47  51  52  51  48  48  42  34  29  30  38  32  28  25  18  20  18  15   8   5   4   4   2   1   1   2   2   2   2   2   2   3   2   3   3   1   3  17  46  47  43  38  39  33 112
 187 202 165  45  20  19  22  19  12   6   6   8   9  16  23  24  22  19  15  14  10   6   5   4   8  11  12  12  12  23  26  44  79  81  78  74 114 131 144 163 160 137 136 134 138 137 144 153 139 129 126 118 127 126 107  97  81  72  68  46  30  18  21  27  23  11   5   4   3   3   1   1   2   3   1   2   3   2   2   3   4   2   2   2  11  36  43  42  39  38  34 120
 191 198 132  20  22  16  16  17  16   9   8   9  10  16  21  20  28  36  48  40  22  14  11  10   8  15  28  40  34  38  49  63  84 129 123 117 144 162 171 176 171 177 196 197 193 201 208 206 196 194 188 186 184 179 168 158 142 123 101  84  57  26  16  23  18  14   6   3   3   2   2   1   1   1   1   3   3   3   2   4   5   3   3   5   7  24  41  43  39  40  36 126
 190 195 114   9  17  19  14  16  11   7   7   7  10  16  22  32  43  46  50  37  25  20  16  19  25  32  60  84  92  91  84  82  93 148 143 149 169 177 176 189 192 198 204 204 211 212 214 211 210 203 202 198 193 193 188 179 170 164 145 116  91  48  20  23  19  19   8   3   3   3   1   1   1   1   2   4   2   3   3   3   2   2   3   4   3  12  33  40  39  38  35 131
 190 191  85   8   8  16  15  14  18  18  17  14  16  20  28  30  30  27  25  25  28  31  39  61  88 111 138 159 163 151 142 120 125 129 145 163 171 176 189 201 204 207 210 212 211 209 209 209 205 202 203 199 191 192 192 188 184 182 172 156 126  80  35  28  23  19   6   4   3   3   1   0   2   0   2   4   2   3   3   2   2   2   2   3   4   4  20  37  39  39  34 136
 192 178  51   8   7   9  12  13  15  12  11  10  11  15  23  22  20  29  35  56  83 110 130 147 160 183 198 201 194 185 176 165 161 144 150 167 176 189 202 207 208 211 212 212 214 214 214 212 209 205 203 196 189 191 191 187 185 185 178 170 158 127  66  37  26  17   5   4   3   2   2   1   2   2   2   4   3   3   3   3   3   2   3   3   4   6  21  38  43  44  41 143
 197 162  46   8   9   7   5   3   6   6   5   5   9  15  20  15  25  40  64 113 140 167 187 201 204 205 203 203 202 200 185 183 179 182 186 192 195 196 206 212 214 213 212 210 211 211 211 208 206 202 200 194 190 196 193 189 187 184 175 174 170 155  97  41  22  11   5   3   3   3   1   2   2   2   2   3   3   2   2   2   3   2   2   2   3  10  36  42  48  54  49 150
 191 169  68  12  10   2   8   5   4   3   4   7  10  17  14  13  29  74 118 141 168 188 195 200 197 198 202 205 206 206 202 196 197 200 201 204 204 205 208 209 211 209 207 207 211 212 211 209 204 199 198 199 194 195 192 189 185 186 181 175 174 167 108  29  17   9   6   3   3   2   2   2   1   2   1   2   3   2   3   3   3   3   2   5   4   8  42  47  53  59  51 154
 186 186 121  12  14   7   6   8   7   7   8   7  13  14  10  32  90 135 145 157 182 190 193 198 200 204 205 207 209 208 209 205 202 208 209 209 211 214 214 209 208 211 209 212 214 214 209 212 210 207 202 198 199 197 189 185 190 188 181 181 177 174 118  26  15   7   6   4   2   2   0   1   1   2   1   2   3   2   3   3   2   2   2   4   7  11  38  50  49  53  50 160
 187 188 133  25   6   8   5   4   3   4   3   6  13  14  33  94 143 155 158 169 184 190 196 201 206 207 210 210 209 207 206 208 207 206 211 214 213 213 213 207 204 206 205 207 207 199 200 204 201 204 200 196 198 195 185 186 190 188 181 179 181 180 133  32  15   7   4   3   1   1   1   1   2   1   2   2   2   2   1   2   2   2   3   5   5  12  37  46  46  51  53 167
 190 177  92  35  11   8   6   3   4   2   3   9  12  27  77 136 157 161 164 175 184 191 198 202 206 206 212 209 205 205 205 203 203 200 199 202 200 196 200 201 199 204 208 207 211 209 205 208 209 210 202 201 201 193 184 187 188 188 179 176 184 183 153  45  13   8   5   3   2   2   2   2   1   1   1   2   2   2   2   1   2   3   3   5   6   8  23  38  46  47  55 152
 193 147  96  44  10   9   6   5   4   3   5   6  12  49 113 146 161 167 168 177 187 197 201 201 201 206 214 208 204 208 207 204 204 198 197 202 204 207 210 210 210 213 213 213 212 209 209 208 208 206 204 200 197 199 193 192 190 191 184 177 181 178 157  70  16  15   5   4   3   2   2   2   2   1   2   1   1   2   2   2   2   3   2   2   5   8  11  20  42  46  43  82
 182 145 103  25   8   7   7   5   5   4   3   4  15  72 128 156 169 166 170 178 187 197 199 200 201 207 211 210 209 206 208 211 207 209 208 204 207 205 207 206 207 202 200 201 200 198 199 198 199 198 198 196 198 192 186 190 193 190 188 181 177 171 159 100  17  16  11   5   3   2   2   2   2   2   2   2   2   1   2   2   2   3   3   2   5   8  14  28  40  43  42  37
 180 163 100  21  14   6   5   5   5   3   3   5  27  96 140 162 170 166 169 179 189 195 201 202 203 204 206 207 205 204 202 201 200 198 195 195 192 195 201 201 203 204 204 207 207 206 205 202 202 203 202 204 200 196 196 193 192 190 188 183 179 174 171 152  67  18  23  16   8   5   3   3   3   2   2   2   1   1   1   2   1   1   2   4   5   8  35  44  38  41  41  40
 176 173 116  40  19   8   4   3   3   3   3   4  43 120 150 165 170 169 170 180 193 197 202 199 197 193 198 199 204 207 204 197 199 202 201 204 202 206 209 211 209 210 210 208 211 208 201 205 206 204 203 200 195 199 197 195 191 189 188 186 182 176 172 170 143  62  25  19  12   9   7   3   2   1   1   1   1   1   1   1   3   2   2   4   6  12  41  42  38  43  42  40
 170 175 164  93  19   9   6   3   3   3   2   7  59 135 158 168 170 174 174 184 191 193 196 196 195 196 204 201 206 211 210 212 213 210 207 211 207 209 210 210 208 204 207 203 203 208 206 206 204 199 204 202 201 199 195 195 192 190 189 185 181 172 165 164 159 140  85  49  35  17   7   4   2   1   1   1   2   2   2   2   3   3   2   5   7  16  39  39  41  47  45  42
 174 174 182 121  36  12   7   3   2   3   3  10  67 135 159 167 172 176 175 183 189 193 197 199 201 206 205 199 201 204 204 206 206 205 203 207 208 208 209 206 209 208 209 210 207 208 199 199 199 200 205 201 193 189 192 194 192 191 188 181 175 170 164 160 160 159 147 115  83  50  13   6   3   1   1   1   0   2   2   2   2   2   3   4   9  17  33  40  46  50  45  46
 174 170 176 146  75  18   6   4   3   3   3  11  68 131 161 165 172 177 175 182 191 197 198 194 196 203 200 202 201 204 206 209 206 199 198 201 206 205 206 209 211 213 211 209 210 206 201 191 199 209 202 195 193 192 192 196 192 189 186 182 170 166 160 163 160 157 153 150 128  98  46   9   4   2   1   1   1   1   2   2   1   2   2   5  10  15  26  47  52  49  44  49
 173 170 174 148 106  26   6   5   3   3   3   9  59 132 160 166 171 174 179 185 189 194 195 195 198 204 207 206 204 204 206 209 209 205 203 207 204 203 208 209 209 209 209 207 206 207 205 199 203 207 198 192 189 177 166 157 165 169 168 170 165 166 152 152 155 157 154 150 138 127  94  30   5   4   1   1   1   2   2   2   1   1   3   7   9  11  25  46  51  44  42  50
 173 171 170 161 140  40   8   8   5   4   4   7  48 117 161 166 173 176 177 183 186 191 196 195 197 201 206 206 206 202 204 208 210 210 206 205 206 206 203 208 208 206 206 206 204 199 190 182 190 190 180 165 139 105 112 125 139 135 131 135 138 138 141 136 147 158 157 152 141 131 128  75  12   4   3   1   2   2   2   1   3   3   4   6   9  17  31  43  46  40  40  50
 171 168 168 164 138  46  12  10   5   3   4   6  43 114 158 165 175 180 178 183 190 192 195 189 187 197 203 204 207 204 204 205 208 207 206 207 204 203 201 198 203 197 177 175 159 129 107 104 122 118 119 124 100  82  82  79  70  70  75  70  74  67  86 112 131 145 154 153 146 136 137 109  33   6   2   3   2   2   2   2   4   3   5   9  12  26  40  44  47  40  38  46
 168 163 165 168 150  65  14   8   5   5   4   4  47 122 151 166 175 181 180 184 191 192 189 190 185 199 204 206 204 200 202 200 204 206 200 207 204 192 189 179 171 166 125 121  67  32  31  49  58  55  59  64  75  82  82  90 111 109 106  85  69  66  86 105 125 134 150 154 145 142 141 123  58  12   5   2   2   2   2   3   4   5   6   3   0  13  44  47  48  41  37  41
 188 184 184 183 179 112  29   5   7   5   4   2  34 114 144 160 172 180 182 183 187 188 188 190 187 194 194 188 182 177 183 190 196 197 200 207 208 191 147 132 146 136 111 101  64  66  72  71  61  72  86  87  90 113 148 173 180 182 175 162 152 140 118  96 102 124 142 153 150 155 145 132  87  23   7   3   1   1   2   3   3   3  20  79  77  25  37  47  49  43  38  41
 232 231 228 227 226 202 141  28   3   5   2   1  21 107 140 150 162 175 181 185 186 189 189 183 184 179 149 116 120 119 130 153 173 191 199 203 208 201 155 110 141 152 141 131 119 121 117 108 111 139 158 170 185 189 184 187 190 184 178 179 170 166 145 115 107 122 139 153 153 156 151 137 102  42  10   4   2   2   4   3   3   7  54 154 174 124  48  42  51  47  44  44
 247 247 246 246 246 246 222 112  16   3   3   1  13  98 134 145 157 170 179 186 187 188 180 180 175 112  62  62  74 103 109 133 160 186 199 205 205 203 176 152 144 165 164 165 161 151 143 147 164 176 173 171 168 170 168 171 175 176 171 173 173 164 157 145 135 131 144 159 152 152 154 147 118  65  20   5   3   2   3   5   9  21  96 177 163 167 109  38  44  44  43  43
 246 245 245 245 246 247 242 185  73   1   3   2   6  91 132 143 153 170 176 155 161 161 155 146  88  40  43  62  76 119 133 132 164 175 188 203 203 199 187 178 157 173 172 165 164 155 145 147 140 114 100 100 110 118 122 126 135 145 155 155 158 158 158 158 154 142 153 164 157 156 156 154 129  81  36   9   3   3   3  12  29  66 139 103  79 105 126  88  81  78  57  41
 244 245 244 244 244 245 247 231 114   2   3   3   3  80 133 136 140 141  96 104 111 100  96  51  22  53  64  92 117 134 158 148 155 173 183 197 204 196 187 182 170 171 173 160 148 135 129  98  60  91 133 159 174 172 158 150 140 124 120 139 152 155 157 158 156 158 164 165 163 162 159 154 135  95  49  19   5   4   3  20  95 136  77  45  47  75 152 177 188 180 131  56
 244 244 244 245 244 244 245 246 168  19   2   3   1  68 131 120  94  63  67  73  51  55  41  26  46  79  95 111 133 149 160 164 162 176 179 194 203 202 190 183 181 171 158 140 124 123  98  76 115 143 122  92  66  63  70  92 120 140 127 131 156 162 165 167 163 171 172 172 166 164 162 156 143 112  56  27  13   5   3  13 114  98  99 126 118 150 177 206 230 223 177  71
 244 244 244 244 244 244 243 248 232  89   0   4   1  57 128  85  39  39  38  36  49  56  60  83 112 130 126 114 115 131 144 151 154 166 176 191 198 202 204 188 179 160 137 120 124 118 101 129 116  93  68   7  36  18   9  60  61  51  91 134 157 163 170 170 174 178 181 178 172 167 162 157 143 124  71  31  20   7   5   9  65 103 161 170 160 182 183 206 230 225 177  69
 244 244 244 244 244 243 242 243 249 139   7   3   1  47 118  55  30  29  41  68  86 110 141 155 132  97  72  60  48  47  75 106 123 141 163 183 197 205 209 194 171 141 133 133 127 120 139 130  75 164  84  10  49  28  11  99 147  72  52  94 143 155 169 176 179 186 190 187 182 171 158 154 142 133  95  37  21  11   6  13  71 169 180 175 158 171 187 201 229 223 173  69
 243 244 244 244 244 242 242 242 249 187  54   4   1  41 124  83  71  83 111 138 155 164 145 113 115 134 143 139 122  92  52  51  71  91 120 166 194 208 211 198 161 142 142 134 136 157 143  90 132 200 118  23  16  21  30 140 163 132 113 121 154 174 180 185 190 191 196 195 184 175 167 156 139 134 106  45  21  18   7  26  45 103 165 179 167 159 183 199 228 222 171  74
 244 244 244 243 243 242 242 242 242 238 127   5   2  37 131 117 118 130 135 144 148 118 110 114  87  55  38  42  99 116 119 110  95  84  86 131 189 211 213 202 157 146 152 144 171 176 133 144 164 186 189  96  51  75 111 155 147 153 157 167 178 191 197 193 194 196 197 194 185 179 168 154 140 135 124  62  20  22  11  41  77 102 155 181 188 159 176 201 227 221 170  80
 244 242 242 242 242 242 242 242 241 240 137   5   2  36 135 130 126 126 116 113  93  91  88  44   7   4  70  38  75 168 136 113 137 150 111 113 178 214 216 203 169 162 167 172 202 183 164 165 154 161 170 165 163 181 170 159 169 167 175 184 193 197 201 199 198 196 194 193 186 182 169 153 137 135 129  81  23  18  10  56 117 132 166 187 197 169 172 201 226 219 165  77
 243 242 242 242 242 242 242 241 241 239 141  17   4  38 137 141 136 131 115  94  87  83  25  78  24  14  32  24  64 212 198 162 139 160 165 134 169 208 214 205 179 168 182 182 198 202 196 166 154 153 162 162 171 183 184 178 178 176 189 195 196 203 202 202 203 199 195 190 187 180 169 158 139 133 125  87  26  12  10  88 151 161 160 185 202 175 170 199 225 216 156  65
 242 242 242 242 242 241 240 239 240 241 215  66   8  37 139 148 143 141 134 125  94  34  44 138  69  17  19  16 121 205 178 157 156 160 181 154 168 208 216 207 184 167 182 187 189 193 190 171 163 161 165 167 174 176 177 180 190 195 202 204 202 204 203 202 205 204 196 189 182 177 164 153 137 126 120  88  33   7  18 124 168 193 178 186 208 184 173 196 224 214 148  57
 242 242 242 241 240 240 239 238 237 237 239 117  11  35 140 157 154 150 141 132  91  57  92 147 163  91  64 112 187 176 161 158 180 192 178 159 172 204 210 205 191 173 174 191 197 191 183 188 185 186 187 187 187 191 196 198 202 204 204 202 203 205 205 204 205 202 196 190 182 176 165 149 132 120 111  95  40   7  26 142 174 196 192 188 204 189 175 197 222 211 141  53
 242 243 242 240 240 240 239 237 236 236 241 155  15  36 140 164 168 161 153 151 136 123 125 120 128 138 161 173 161 163 165 172 185 182 176 162 172 199 205 207 193 177 174 187 199 205 195 190 195 199 198 201 201 203 200 202 201 201 204 199 199 205 208 207 208 202 197 191 183 173 164 152 130 115 106  85  44  12  37 154 175 185 189 184 195 189 179 198 222 210 137  54
 242 242 242 241 240 239 238 237 235 234 240 176  16  37 144 170 176 173 171 166 161 157 144 132 145 147 161 163 167 165 173 176 182 183 182 161 173 198 205 203 192 182 174 182 195 205 206 203 199 195 198 202 202 201 201 202 199 198 205 205 203 206 209 206 209 205 196 185 182 173 161 150 128 111 102  70  38   9  48 155 156 163 172 181 195 177 180 198 221 206 130  58
 242 242 240 240 239 239 237 236 235 233 240 182  18  34 141 171 180 177 175 172 172 169 165 163 165 166 164 163 174 182 187 188 181 186 181 159 173 195 203 202 193 180 173 183 192 203 210 212 206 201 199 200 204 202 205 208 206 206 207 208 207 208 204 205 204 200 195 184 176 172 160 143 123 105  86  57  30  10  49 130 110 162 174 177 185 173 184 198 220 203 124  58
 241 242 241 240 239 239 237 235 231 231 237 193  25  32 142 172 178 179 175 177 184 180 177 175 176 177 179 189 192 194 196 191 187 189 174 159 172 197 202 203 190 175 175 184 191 198 206 209 211 208 207 207 208 204 202 204 209 207 206 204 209 208 205 203 193 192 189 182 175 168 155 140 122 104  71  41  20  17  45  88 128 183 187 169 178 191 179 197 218 199 118  54
 242 241 240 238 239 237 236 229 212 200 204 184  32  26 139 174 180 179 181 183 189 188 191 189 189 186 188 194 196 194 193 193 195 187 171 160 168 192 203 201 185 172 172 178 187 197 197 208 214 209 210 211 210 208 206 205 205 209 213 213 209 205 203 198 194 189 186 180 173 168 152 134 117  98  64  38  21  16  35 121 190 196 183 179 193 182 167 203 215 196 115  53
 242 240 239 239 238 237 237 224 178 143 131 129  37  23 138 175 181 185 189 187 188 188 189 187 187 191 198 192 171 181 199 198 193 186 168 160 171 193 201 198 187 177 175 175 185 195 202 209 211 209 210 208 209 202 207 210 207 208 209 213 211 204 200 196 191 184 180 175 167 163 149 130 116  86  54  33  23  13  27 144 201 190 191 197 202 176 165 210 213 192 112  54
 240 240 239 239 237 236 236 221 171 136 113 108  59  20 137 175 181 186 187 188 189 189 188 189 195 199 198 187 184 200 205 200 193 184 166 160 176 193 195 193 188 179 177 174 181 192 197 210 215 212 213 213 211 205 201 209 213 212 209 205 203 202 199 195 189 183 179 172 165 156 143 123 105  83  39  24  19  16  32 151 196 195 199 201 198 167 182 210 211 189 112  56
 240 240 239 238 236 236 235 218 172 142 122 111  83  35 135 173 180 186 186 190 194 191 195 196 197 200 198 197 199 205 204 198 196 183 165 161 180 193 195 194 188 183 178 169 171 182 192 207 215 210 211 213 206 209 208 209 208 206 209 205 201 199 196 193 185 179 178 167 156 147 135 113  95  73  30  21  22  20  40 152 193 194 194 196 178 160 198 207 209 187 114  59
 240 240 240 238 236 235 235 216 162 131 120 108  96  61 131 170 173 182 186 192 196 193 199 196 194 200 201 201 204 203 202 200 193 179 160 164 181 196 200 197 191 182 176 171 159 167 186 204 211 209 210 213 214 212 209 211 211 205 204 199 198 195 189 190 182 179 175 161 149 141 129 113  94  63  28  21  17  16  66 167 193 190 186 172 154 181 202 205 207 185 112  60
 240 239 238 237 236 234 234 215 145 100 106 101  96 102 125 165 172 175 180 187 193 196 198 194 196 202 202 204 205 204 202 205 196 178 155 169 187 196 203 202 195 187 183 174 158 153 168 195 206 208 208 210 213 214 209 210 212 208 205 200 194 193 191 187 178 177 167 159 148 140 127 106  82  59  24  16  16  16  84 168 190 182 159 145 174 196 197 203 205 179 106  61
 240 239 237 236 235 234 233 214 141  87  89  90  96 133 133 158 166 173 182 188 189 194 198 199 200 205 206 204 204 207 207 205 199 175 153 176 190 199 206 207 200 193 188 177 167 163 159 175 201 201 203 205 207 209 208 209 208 202 202 201 195 191 191 185 177 171 164 153 143 136 117  97  80  48  25  14  19  22  81 153 170 145 144 172 190 192 196 202 204 174  94  60
 240 238 237 236 234 233 232 213 147  99  87  88 100 147 135 154 163 171 178 181 186 190 194 199 201 202 205 207 205 205 209 204 198 173 160 181 193 202 213 219 206 197 191 183 173 174 171 166 185 198 197 200 209 205 208 208 208 207 199 199 193 190 188 183 175 168 160 153 131 128 114  95  78  46  29  17  21  27  55  80  82 123 173 181 186 190 194 200 202 167  82  62
 238 238 236 234 234 232 232 209 149 105  88  84 102 157 125 142 159 167 175 181 185 189 198 202 203 202 206 204 201 202 207 207 200 169 165 185 193 203 217 224 219 200 191 185 177 180 183 172 167 191 195 196 202 204 206 207 210 206 198 194 192 190 187 185 173 167 158 151 133 124 116  95  78  47  29  21  18  29  43   3  19 137 179 178 183 188 193 198 200 161  76  67
 239 237 236 234 233 232 230 208 147 107  92  83 102 168 130 125 151 161 170 178 181 189 196 202 201 202 204 203 197 198 205 204 191 160 170 182 192 205 214 209 206 193 178 172 145 115 129 154 155 171 199 196 199 204 202 202 204 198 198 198 193 188 187 183 175 164 157 144 136 123 119  92  80  52  27  23  22  38  42   1  29 150 175 177 181 186 191 197 199 156  70  62
 238 237 235 234 232 231 229 206 145 102  91  87 100 165 146 111 138 155 165 175 180 188 186 194 200 203 204 202 195 199 205 206 177 159 164 172 186 198 203 199 193 178 165 109  18   9  55 126 146 155 201 203 197 196 199 200 198 199 202 201 195 193 189 178 173 165 150 137 138 122 119  89  70  59  30  23  25  50  42   0  29 149 172 175 179 184 189 195 197 152  67  54
 239 236 234 233 232 231 228 206 145 101  88  88  86 131 148 101 129 141 160 172 179 189 189 194 196 202 202 196 199 202 204 206 166 121  95 133 167 184 191 184 178 167 120  11   7  76 153 171 141 165 207 211 206 200 202 204 202 204 196 193 194 194 186 178 171 166 158 142 134 118 108  79  57  67  32  23  24  52  44   6  93 155 170 174 178 182 189 195 194 148  67  53
 237 236 234 233 232 231 228 204 145 102  88  86  77  84 111  91  99 130 152 164 170 185 186 192 195 192 200 198 205 207 203 206 165 108  57  48 101 153 162 148 147 129  59  88 134 175 185 162 156 194 204 208 210 208 205 205 204 208 202 196 194 188 183 178 171 161 148 153 129 113  98  74  61  59  37  26  22  56  44  13 135 168 166 171 176 182 188 194 193 143  63  51
 237 236 234 233 232 230 226 200 138 100  87  80  78  81  82  79  68 117 137 159 171 179 188 191 195 196 196 197 200 206 206 206 182 135 117  94  61  83 105  89  92  91 120 174 180 177 178 181 197 201 203 206 210 212 207 202 207 204 202 200 196 193 186 184 167 150 141 144 125 103  85  70  66  61  45  25  23  51  73  80 138 167 167 171 177 181 186 194 191 137  56  48
 237 235 234 232 230 230 226 196 130  96  84  80  85  87  80  72  45  90 128 151 169 176 185 192 196 197 195 201 200 207 205 200 196 180 155 141 126  93  65  86 119 149 177 169 175 164 175 186 186 197 201 202 204 210 208 207 206 200 196 192 195 195 184 172 163 145 138 135 124 100  84  73  69  64  42  26  25  54 102 150 158 164 168 171 176 181 186 193 190 134  55  49
 236 235 233 232 231 229 225 192 118  93  88  86  89  86  78  72  41  54 119 140 156 166 180 190 193 195 195 199 199 203 201 195 194 191 186 162 155 133 122 169 179 187 177 158 149 136 162 166 176 182 192 198 202 203 207 206 206 205 199 197 192 185 178 171 164 149 139 138 124 111  94  77  73  67  42  23  21  56  99 154 163 164 168 171 175 180 186 191 189 130  57  56
 236 235 234 232 231 229 225 188 112  93  91  87  85  79  79  76  58  42 104 132 150 163 173 183 189 192 192 196 198 201 195 191 193 189 175 142 129 129 141 146 170 176 153 156 112 116 150 134 164 164 175 187 185 185 183 194 203 204 199 198 190 180 180 172 168 153 133 131 115 111 104  90  76  63  38  19  19  64  95 147 162 164 167 171 176 182 185 193 187 125  57  61
 236 235 233 232 231 229 224 187 116  98  92  90  90  84  86  82  68  45  80 118 144 162 171 182 185 191 194 197 199 195 190 187 190 169 147 116 108 119 111 150 183 168 122 133 125 110 146 118 136 134 157 159 165 163 154 167 179 193 196 196 188 181 180 173 158 145 123 111 125 110 109 100  82  63  38  22  22  73  97 148 162 163 167 171 176 181 185 193 186 120  53  57
 236 235 233 232 230 229 224 186 122 106  93  93  97  89  87  82  67  59  63  92 129 152 161 179 187 190 194 195 192 188 185 175 164 133  96 102 127 115 119 158 170 163 129 137 133 118 128 117 117 129 154 127 142 149 139 144 165 150 175 187 185 185 180 171 158 130 121 105 105 117 104 102  80  61  36  19  26  77 105 155 162 164 167 171 177 182 186 193 184 117  51  54
 236 235 233 232 230 229 224 185 120 100  91  93  94  84  82  78  65  62  48  73 109 143 163 174 184 190 193 184 178 176 165 166 140 119  88 107 146 107 104 137 176 176 140 162 143 137 123 129 125 113 142 129 119 151 138 119 142 135 139 171 183 186 172 164 163 137 113 115  93 102 107  88  77  51  37  22  37  78 120 156 162 164 168 172 177 182 187 194 183 116  56  60
 237 235 234 231 230 228 223 181 111  96  90  91  90  81  89  84  70  64  53  60  93 135 163 170 179 188 189 160 161 150 146 135 120 124 103 115 144 115 146 177 188 177 183 188 156 164 134 150 150 111 132 109 102 132 126 120 109 124 126 148 168 185 168 162 153 139 113 105 113  92 103  91  67  54  35  21  51  80 133 160 161 165 167 173 178 183 188 194 182 113  56  61
 235 235 234 231 231 229 222 180 111  98  94  90  90  93 103  92  73  74  57  52  89 121 152 162 177 184 160 143 142 122 116 101 102 106 121 117 148 169 187 202 200 192 200 194 173 174 167 182 175 143 140 120 100 109 122 113 110 122 111 126 162 185 172 167 143 126 121 101 103  94 102  93  60  49  28  23  62  86 139 162 162 164 168 174 179 184 189 194 181 108  48  54
 236 235 234 232 230 229 223 179 112  97  96  97  99  99 100  88  79  78  62  53  80 106 131 151 170 169 142 132 120 105  93  92 102 112 136 154 166 171 169 181 190 181 170 164 152 145 142 155 156 130 143 120  92  94 108  96  86 119 118  88 147 183 176 166 135 110 110 100  95 114  98  78  62  40  16  38  75  91 140 162 162 165 169 174 179 185 189 196 180 105  48  55
 237 235 234 232 231 230 223 178 111 100 100 104 105  91  87  81  79  78  74  57  66  87 116 146 163 163 124 107  91  89  92  96 101 118 158 173 155 134 120 115 115 121 117  98  99  98  97 104 109 106 100 101 113 103 114 127 121 109 123  87 121 178 166 155 137 106 104 106  98 122  99  69  54  25  17  55  82  94 143 163 163 166 169 174 180 185 190 196 179 103  50  59
 238 236 234 233 231 231 223 176 115 108 102 112 109  82  83  83  75  70  78  66  60  78 103 135 158 161 110  87  80  79  80  91  95 112 131 115 103 103 104 113 118 112 114 136 165 169 174 175 174 173 177 184 185 175 168 174 178 168 152 141 127 164 151 136 136 104  95 122 108 109  85  56  43  16  29  67  90  84  89 160 164 166 170 175 180 185 190 196 177 100  50  58
 237 237 236 233 233 232 224 178 119 105 104 122 112  80  86  89  79  74  80  79  52  66  86 106 148 141  91  83  74  76  88  86  92 103 119 141 159 174 185 190 199 197 197 201 201 193 190 180 177 183 185 188 191 195 190 186 188 189 173 169 176 158 137 119 120 119  93 118 118  89  62  47  33  19  51  77 100  84  10  96 171 167 171 175 180 186 191 196 176  98  50  56
 237 236 235 234 233 232 224 177 116 102 110 125 112  88  89  87  82  84  87  84  56  67  81  79 126 138 100  83  75 105 121 135 165 184 189 180 178 183 184 185 190 197 195 199 190 195 193 183 179 183 186 192 195 194 192 189 181 183 181 167 169 160 143 110 113 115 103 106 103  73  46  33  20  37  65  89 109  87   8  16 142 172 170 175 180 186 192 196 172  94  50  58
 238 237 236 234 234 233 225 177 118 109 118 130 114  92  89  89  83  87  95  85  66  68  78  63  96 146 123 102 117 147 163 177 187 180 175 171 171 174 178 180 187 194 196 189 183 185 174 170 179 191 192 192 192 189 188 180 176 179 172 161 162 165 139 101 112 105 107 100  79  48  38  21  23  55  77 104 113  84  15   0  86 181 173 174 180 186 191 196 170  89  53  65
 239 238 236 236 234 234 224 178 122 110 123 140 120  94  95 101  85  85  97  85  73  57  65  74  76 128 146 143 146 164 178 184 186 185 182 181 170 161 161 158 153 137 135 126 119 129 152 171 182 185 177 175 185 183 178 174 176 169 161 162 149 151 123  96 100 102 102  94  73  33  27  23  43  65  91 114 115  78  19   1  18 103 172 181 180 184 191 196 168  86  54  71
 239 238 237 236 234 234 224 183 131 113 130 147 122  98 104 108  89  85  96  86  77  68  63  75  65  96 132 126 142 166 176 180 179 177 179 179 179 169 163 155 140 115 111 133 119 119 148 156 166 173 175 177 180 175 174 173 169 153 143 155 139 132 124 107  92  98  93  79  45  22  14  37  58  76 107 122 118  69  10   4   3   2  60 165 187 184 190 194 165  84  54  68
 239 239 237 236 235 235 224 186 139 119 135 142 117 102 104 109  96  90  92  84  83  83  63  60  74  74 102 120 126 153 167 171 173 169 164 168 170 163 157 157 151 131 139 158 151 145 145 159 169 177 183 180 177 174 173 171 168 167 148 132 126 111 116 126 102 106  76  55  22  17  29  53  67  95 120 128 119  48   3   5   6   9   1  52 174 188 189 194 162  84  58  64
 239 239 238 237 235 236 225 178 128 124 139 135 113 112 111 110 101  90  84  83  95  91  68  52  63  62  70  93 105 132 154 159 166 164 161 166 165 166 165 162 155 141 155 172 159 176 171 187 185 186 188 183 181 181 178 172 172 173 167 118 123  98 104 118 108  83  44  30  12  27  50  61  81 113 131 134 107  18   5   7   5   6  10   0  89 192 189 192 168 119 106 108
 240 239 238 237 236 236 223 167 120 127 137 125 111 121 119 107  95  87  84  90 101  94  78  70  49  50  57  65  79 109 145 152 160 164 167 164 170 177 180 182 181 175 184 178 189 193 196 203 204 198 195 187 186 191 181 174 179 180 166 108  90  97  72  92  81  46  24  15  20  45  59  74 100 131 139 137  65   2   7   7   5   3   9   9  18 163 196 192 188 180 181 183
 240 239 239 238 237 237 223 163 123 130 134 121 110 123 124 107  91  86  86  87  95  90  83  84  63  33  41  47  52  96 138 145 145 163 172 172 179 188 190 196 194 199 200 183 200 204 206 206 208 207 206 201 196 194 182 180 178 164 144 101  64  69  44  58  48  25  14  23  39  55  68  91 119 140 141  83   8   4   7   5   5   2   6  17   1  83 197 194 197 202 206 209
 240 240 239 238 237 237 223 168 132 131 130 123 114 123 127 117  99  92  85  84  93  89  83  81  82  47  26  39  61  80 108 123 135 163 176 179 185 196 198 192 195 208 200 196 208 206 208 210 206 208 208 206 197 189 182 177 163 157 129  65  36  35  31  32  28  18  26  41  51  58  75 105 135 126  58   4   3   6   5   5   5   3   7  16   6   7 139 204 196 200 204 208
 241 240 240 239 238 238 222 169 138 132 123 122 118 121 127 122 104  97  90  94 103  93  82  76  77  70  47  26  46  61  63  94 129 141 170 176 176 189 196 195 198 198 196 203 207 209 207 199 205 206 200 195 188 176 175 168 140  93  81  41  16  16  17  15  16  30  43  47  56  67  88 107  84  24   0   4   5   5   5   5   4   4  11  16   9   0  35 178 204 200 203 206
 242 240 240 239 239 239 222 166 136 129 122 126 124 122 123 118 103  99  94 100 106  91  81  79  76  77  67  27  16  35  46  56  76 117 153 172 178 188 189 193 193 187 194 197 197 200 198 190 198 194 194 172 166 162 151 136  92  47  23  21  11  11  10  13  24  39  45  49  52  57  47  20   0   0   6   5   4   4   5   5   5   5  13  13  10   9   0  65 196 204 203 207
 242 241 240 240 239 240 222 166 137 130 131 130 122 119 120 122 110 102  98 105 106  89  84  84  83  79  45  15   8  14  23  30  41  67 111 139 159 172 177 183 189 184 188 185 182 179 186 188 188 180 173 157 140 133 111  81  45  25  19  10   8  10  22  27  33  34  32  24  16   8   0   1   4   5   5   4   4   4   4   6   4   7  16  12   9   8   7   0 102 209 204 206
 242 241 242 241 240 240 222 166 137 133 137 130 119 115 117 125 116 105 104 118 113  90  81  84  86  54  13  10   7   7  19  21  30  25  68 101 135 148 140 171 180 169 184 179 174 175 176 180 169 155 143 136 107  92  68  37  23  16  11   4   9  17  24  22  16  10   5   1   0   3   4   4   5   5   4   4   5   5   5   5   4  11  18  12   8   7   9   4   9 147 215 206
 242 242 242 242 240 241 221 164 133 130 133 124 118 116 116 123 117 107 105 118 109  86  83  89  67  19   7  10   8   3   8  23  22  18  35  66  82  98 114 146 161 154 155 174 168 159 151 148 155 120 110  88  67  52  27  18  13  11   7   8  12  10   6   3   1   0   1   2   2   3   4   4   3   4   5   5   5   5   5   4   5  18  18  13   9   9  10  10   2  28 172 215
 242 242 242 242 241 241 222 167 132 127 130 127 124 121 121 122 112 102 102 111 101  87  91  79  31   8   7   7   8   4   3   7  10  15  23  31  38  60  94 113 123 128 133 145 151 131 114 104  96  89  67  45  30  21   9  14  15   9   6   4   2   1   0   0   1   1   1   1   2   4   3   3   2   3   5   5   5   5   5   4  10  19  13  12  10  10  10  10  10   0  44 192
 242 242 242 242 242 241 223 170 136 132 131 133 133 130 131 127 109 100 104 109  96  84  74  43  13  10   6   5   7   5   2   2   3   8  18  22  23  40  61  84  67  64  81  89  96  82  46  42  35  33  29  43  14   8   7   8   6   2   1   1   1   1   1   2   1   2   2   2   2   3   4   4   4   5   5   5   5   5   5   4  18  21  16  11   9  11  13  12  10   9   0  80
 243 242 242 242 243 241 222 167 140 139 135 132 135 133 136 129 115 110 110  96  73  61  47  22  11   9   3   3   7   5   4   4   2   0  10  13  14  28  35  51  29  22  32  27  23  25  12  10  15  11  26  32  10   4   2   2   0   0   1   2   1   1   1   1   3   2   2   3   3   3   4   4   4   5   5   4   5   6   5  12  25  23  17  12  10  11  14  14  13  10   9   9
 244 244 243 243 243 242 221 166 141 143 138 137 140 136 133 130 112  94  77  61  55  48  31  18  14   8   1   2   6   5   4   2   2   2   2   1   5  18  20  20  23  18  20  10   7   7  10   4   8   5  13   8   2   2   1   1   1   1   1   1   1   1   1   1   2   2   3   4   3   5   4   5   6   5   5   6   5   6   5  20  25  21  17  14  12  14  15  15  13  11  11   9
 245 244 243 243 243 242 222 169 143 143 143 141 139 129 113  93  70  62  56  53  51  39  23  17  13   6   2   3   6   5   4   2   2   3   3   2   1   3   2  10  13  12   8   5   3   2   3   1   2   1   2   0   1   2   1   1   1   1   1   1   1   1   1   2   3   3   4   5   5   4   4   5   5   5   5   5   5   4  12  27  24  20  16  15  14  16  18  18  15  12  13  12
