P2
# Generated by OpenCV 4.2.0
92 112
255
 101 100  98  97  96  97  98  98  98  97  97  98  98  99 100 101 101 102 102 102 102 102 102 102 104 103 104 102 101  99  92  72  36  37  18  10   9   9  10  14  22  25  22  30  27  32  37  44  46  48  54  58  64  70  72  80  95 101 103 105  99  99 103 103 104 103 104 103 103 104 104 104 104 102 102 101 101 100  98  97  97  97  96  96  97  97  97  97  98  99  99 101
 103 101 100  98  99  99  99 100  99  99  98  99  99 100 101 102 101 102 103 103 104 102 102 102 102 103 103 101  99  89  46  15  16  22  14   9   8  12  17  17  20  26  22  29  37  42  44  49  48  41  39  44  47  51  54  57  61  75  76  73  71  79  84  93  99 101 101 106 106 104 105 105 104 103 103 103 102 102  99  97  98  97  97  97  97  98  98  98 100  99 100 102
 102 103 102 101 101 100 101 100 100 100  99 100 101 100 101 102 102 101 103 103 103 102 103 102 102 102 103  94  77  41  15   6   7   8   7   7   8  12  21  25  27  25  30  32  27  29  30  29  27  24  23  24  33  37  40  43  42  40  44  38  40  47  47  57  79  90  84  75  88 104 106 106 105 106 106 104 103 101 100  99  98  98  98  99  98  99 100 100  99 100 101 103
 103 104 103 103 102 102 104 103 101 102 102 101 102 101 102 102 102 102 103 103 103 102 103 104 104 108  95  67  43   8   4   6   7   7   6   7   8  13  14  23  31  30  24  21  21  23  26  24  23  24  24  22  24  28  30  29  30  35  38  43  32  24  24  25  33  39  35  29  34  53  75  84 106 106 104 105 103 101  99  98  99  98  98  99 100 100 100 100  99 100 102 103
 103 103 103 103 102 102 103 103 103 103 103 103 103 102 103 103 103 103 103 102 103 101  99  99  97  84  47  23   9   6   6   6   5   5   6   7   9  13  14  15  22  27  24  23  20  20  19  18  19  19  19  18  17  17  21  22  21  21  35  50  37  12  16  16  12  12  17  23  57  64  76  69  65 104 104 102 102 101 100  99  98  99  99 100 101 101 101 101 101 100 101 103
 104 103 104 104 104 105 103 104 103 103 103 103 104 103 103 103 103 103 103 103 103 103 101  95  78  25   6   3   4   5   6   6   5   5   5   7   7  10  15  30  29  24  24  28  26  20  20  20  18  15  13  16  17  16  17  18  19  20  24  42  52   9  11  14  12  12  14  18  55  83  89  96  76  77 108 101 101 101 101  99  99 101 101 101 102 103 103 102 102 102 103 104
 104 104 104 104 104 104 103 103 103 103 102 103 104 103 103 103 103 103 103 105 103  71  66  49  21   8   7   5   4   6   5   6   7   5   6   6   7  10  18  17  16  13  13  17  19  19  20  17  16  20  20  16  15  15  15  19  19  23  24  34  54  25   8  13  12  23  18  14  17  52  89  90  91  62 103 101 100 102 102 102 102 101 102 103 104 106 105 104 102 103 104 104
 105 104 105 105 105 104 103 103 103 103 103 103 103 104 104 102 103 103 106  96  57  16   6   5   5   8   6   5   5   6   5   5   6   5   5   7   9  11  10   6   7   8   7   7   9  11  13  17  18  16  28  24  17  14  14  20  21  22  25  27  37  37  10  11   8  13  16  19  21  19  49  88  89  58  96  99 100 103 102 103 104 103 104 107 108 108 108 107 105 104 105 105
 106 106 106 106 106 104 105 104 104 104 104 103 104 105 103 104 103 107 101  48  10   5   5   6   7   6   6   6   5   6   6   6   6   5   7   9   9   9   7   9  10  11  12  11   9   8   9  16  23  21  18  30  21  18  14  15  23  22  31  26  23  40  15  11   7   6   9  19  27  31  29  44  64  61 102 101 103 104 104 104 105 105 106 108 109 110 109 108 107 106 106 106
 107 106 105 106 105 106 105 103 104 105 103 103 105 104 103 104 105  95  49   1   6   7   6   6   6   6   5   5   5   8   9  11   9   5   7   8   7   8   9   9  11  11  12  15  14  17  11  11  20  29  24  19  26  26  18  11  19  21  25  30  19  27  17   7   9   7  10  16  23  28  39  33  46  44 101 106 103 102 103 106 106 106 108 109 109 109 109 109 107 107 107 107
 107 106 106 105 105 105 105 105 104 104 104 105 103 103 104 102  78  23   4   4   6   6   6   6   6   5   5   5   6   7   9  12  16  14  10   9   7   7   8  10  14  17  19  15  13  18  21  14  16  20  36  30  20  36  28  17  15  23  26  31  22  21  24  10   9   9   7  10  18  24  41  47  30  29  76 105 103 103 105 106 107 107 109 109 110 110 109 108 107 107 108 107
 107 106 106 106 106 106 106 105 104 104 104 105 104 104 104 102  43   1   7   6   6   7   7   6   6   6   5   5   4   5   5   6   8  10  12  11  11  12  14  17  18  19  23  33  24  16  18  16  18  21  32  45  23  24  32  21  15  20  29  29  24  17  23  24  12  10   6   8  11  22  35  40  24  20  82  96 106 104 104 105 107 109 108 107 109 109 108 108 108 108 107 106
 105 106 105 106 105 106 106 105 105 105 104 105 104 104 103 102  47   3   6   7   7   8   9   7   8   7   6   4   5   7   7   6   6   5   7   7  10  12  15  22  24  27  22  17  38  33  18  16  19  24  27  48  39  17  27  25  18  16  32  27  19  19  20  33  27  16  22  24  22  23  28  24  18  12  57 102 102 105 105 105 107 110 109 108 109 109 108 108 108 107 106 106
 103 103 103 105 104 105 107 106 106 106 106 104 107 105 103 100  43   8   7   7   7   9  13  12   8   7   7   7   6   9   8   5   6   8   7   8  11  15  14  21  38  50  38  19  12  22  28  19  24  32  34  47  48  25  21  26  30  19  23  26  26  19  16  23  32  25  34  55  40  22  17  23  21  22  25  84  99  98 104 107 109 109 108 108 108 109 109 109 109 107 106 106
 103 102 103 104 106 105 106 107 106 107 107 107 107 108 106  83  20   7   7   6   5   6   8  11   8   7   6   8   9  14  13   6   4   8   8  10  13  17  18  16  23  46  43  36  31  10  21  35  32  43  46  52  42  36  22  21  38  23  21  20  28  23  16  29  31  26  47  51  31  18  15  21  25  20  18  43  96  96 102 108 109 110 109 109 109 109 109 109 110 108 107 108
 104 103 104 104 104 103 105 106 106 107 107 107 106 106  99  41   6   7   7   7   6   5   3   5   5   5   5   6  11  14  23  24  11   5  10  14  15  19  23  23  18  18  24  28  47  24  16  36  51  53  64  60  46  31  20  22  39  30  21  23  31  32  17  15  27  34  38  26  21  26  23  18  17  33  26  12  65 103  99 108 109 111 110 109 110 109 110 110 110 109 108 108
 103 102 103 103 104 103 105 107 107 109 107 107 108  76  46  10   6   7   6   7  10  15  16  11   8   5   7   8  10  13  17  26  28   9   8  17  19  22  32  40  33  23  17  13  42  37  13  18  49  58  70  68  50  24  21  21  45  47  20  20  38  32  14  14  24  31  40  43  22  20  19  14  13  24  31  13  32  87 103 108 111 111 112 110 110 110 110 110 109 109 108 108
 104 103 103 103 103 104 105 107 108 108 107 110 101  27   5   8   8   8   7   6  10  23  30  26  26  15  10  10  12  15  13  19  18  15  10  13  19  19  35  48  51  48  29  23  32  41  21  17  24  62  57  68  40  20  19  17  49  64  24  13  32  24  14  19  22  28  31  48  42  24  18  12  16  22  26  19  16  64 107 109 111 112 111 111 112 110 110 110 109 109 108 108
 104 104 103 104 105 105 106 108 108 107 109 101  35   5  12  10   8   7   6   5   5   4   6   9  18  22  17  18  17  20  23  23  18  12  14  16  18  24  35  53  49  59  42  48  27  30  43  25  14  57  54  53  34  17   9  11  39  68  37  19  26  22  14  20  26  26  26  28  22  15  12  18  16  18  25  17   9  25 100  99 112 111 111 111 111 110 110 109 109 108 108 108
 106 105 105 105 105 105 107 107 108 108 108  54   2  10  18   9   6   6   6   6   7   6   9  10  13  17  23  23  22  26  29  32  31  26  19  20  19  27  43  47  34  56  57  39  39  19  41  32  23  31  44  35  27  13   9   9  20  54  46  27  30  22  22  36  47  40  22  20  16  15  14  14  14  13  14  14  12   3  73 100 107 112 111 111 111 110 109 109 108 108 107 108
 107 107 108 107 108 107 107 110 111 112 102  22   4   8  11   7   7   7   7   8   9   9  14  16  15  17  24  35  30  33  38  38  46  40  37  36  21  25  48  62  31  28  49  59  37  26  33  30  42  17  34  20  21  12   9  10  17  42  42  36  21  25  35  42  38  29  17  23  26  19  13  12  14  12  11  14  15   7  31 109  98 114 111 110 111 111 109 109 109 108 108 108
 107 108 109 108 109 108 109 109 110 114  82  14   5   6   9   7   7   7  10  12  15  16  17  19  22  22  26  36  53  39  40  53  72  62  31  46  43  22  47  76  75  20  20  55  40  22  30  30  46  22  24  13  14  12  12  11  17  33  35  40  19  29  29  37  33  23  26  22  18  19  15  12  11  13  11  10  11  14   2  76 106 110 111 111 113 111 111 111 111 111 110 110
 110 109 109 110 109 107 110 110 112 102  28   9   8   7   8   7   8   8  14  17  19  23  25  22  26  36  34  40  57  58  42  47  52  87  50  21  68  39  46  73  88  44   9  21  46  27  25  43  43  36  15  12  12  14  14  11  13  27  28  23  17  29  40  47  31  37  28  20  18  21  14  12  12  14  17  10   8  11   5  24  98 105 110 111 112 112 111 110 111 111 110 110
 111 111 111 110 110 111 110 110 116  71   1   9   9   9   9   9  10  13  15  21  21  29  36  34  29  46  44  46  55  67  63  51  34  40  59  13  67  73  52  72  54  54  16  11  26  29  25  49  30  39  14  12  12  13  12  11  14  21  23  18  19  45  63  44  38  51  30  22  15  17  15  15  10  11  16  18   8   8  10   4  61 109 108 108 110 112 111 112 111 111 110 109
 112 112 111 110 111 111 110 112 114  43   1   9   9   8   8   9  13  19  15  23  32  39  46  53  46  58  54  49  59  52  45  50  40  23  36  30  32  74  57  59  31  38  30  19  18  22  31  48  21  29  13  14  13  13  13  15  14  16  20  19  33  53  59  37  36  38  47  37  32  17  15  15  11  11  15  15  11   8   8   6  34 111 109 109 110 111 111 111 110 110 110 109
 111 111 110 111 111 110 111 114 106  26   4   9   7   8   7  10  15  22  20  24  38  52  66  56  57  57  79  73  57  62  36  25  31  20  21  28  18  46  55  42  24  20  28  35  23  20  38  41  25  26  18  21  15  15  19  15  13  17  19  21  35  48  49  47  46  55  50  31  25  19  18  18  15  14  13  12  10   7   6   6  10  82 117 110 110 111 110 111 110 110 110 109
 110 110 110 111 110 110 111 112 104  23   4  10   8   7   7   9  16  23  28  28  34  45  60  63  49  60  59  68  58  40  41  22  23  26  20  25  27  35  54  38  19  21  16  46  47  26  41  33  32  27  28  27  17  24  27  15  14  17  18  23  38  60  66  59  73  73  52  50  31  26  26  26  22  11  12  13   9   7   6   7   7  28 106 113 111 112 112 111 111 110 110 109
 109 108 108 109 109 109 109 106 102  32   4  10   8   7   7   9  13  20  30  38  36  39  46  63  56  37  34  42  49  37  24  25  21  29  32  39  35  47  54  38  21  25  19  28  79  51  42  36  38  36  36  35  29  37  25  17  17  18  19  27  40  50  54  53  57  54  53  57  51  30  17  17  19  12  11   9  16   8   6   6  10  12  70 118 111 111 112 111 111 111 110 109
 108 107 106 107 107 106 107 107 107  47   3   8   8   7   7   9  13  20  27  36  43  48  48  48  53  46  31  29  31  29  25  21  22  26  33  50  45  60  55  48  31  28  27  19  71  85  56  54  53  41  63  52  48  38  23  21  23  21  22  27  33  39  46  47  35  37  50  38  30  29  19  12  10  13  11   9  12  11   7   8   3  27  76 113 110 111 112 111 110 111 110 109
 107 107 107 107 107 107 107 111 103  31   4   7   7   7   7  10  16  26  30  33  40  50  56  56  52  48  38  28  24  23  22  23  28  36  55  71  71  84  74  69  60  43  40  36  62 103  71  71  71  75  86  71  58  45  39  34  32  29  31  36  41  46  64  68  51  34  33  39  37  30  19  14  10  10  11  11   8   9   8  11   4  60  94 105 110 110 111 110 111 111 110 110
 107 107 105 108 108 108 109 111  91  17   5   7   7   7   8  11  14  25  39  38  34  39  45  55  63  63  58  44  31  26  25  26  37  59  82 124 136 115 109  85  86  66  72  79  77 120 104  96 112 108 102  88  68  64  64  62  58  56  59  60  61  68  74  68  58  49  48  47  44  32  20  19  14   8   9  13   7   7   6   8   4  64 104 100 106 109 109 110 111 111 111 111
 108 107 106 107 107 109 109 115  55   5   8   9   7   7  10  14  19  31  48  53  44  37  40  45  59  69  74  66  56  45  40  39  49  66  97 137 164 168 151 121 112  94 124 119 104 130 125 138 161 151 147 139 131 131 133 124 115 110 105  95  93  92  83  83  73  68  67  57  50  35  20  15  13   9   9   9   7   6   6   6   8  21  86 103 108 109 108 109 110 110 111 111
 108 107 106 106 108 108 110 111  40   7   8   8   8   9  12  18  31  49  63  68  66  59  58  57  57  64  70  72  70  68  64  75 100 114 131 169 181 193 187 155 141 138 149 140 136 148 153 170 181 175 186 193 189 186 183 180 167 153 143 141 140 130 119 117 109  98  87  81  63  48  36  21  13  10   8   7   6   4   7   6   9   7  69 105 106 110 109 109 110 111 112 111
 106 106 106 106 107 108 111  94  22   8   8   8   7  10  15  25  45  63  63  61  73  84  94 102 106 108 107 109 125 138 150 151 155 174 187 202 208 202 204 191 174 174 165 157 152 151 176 187 187 186 195 198 197 194 194 193 187 185 183 175 168 160 150 143 137 126 121 116  96  68  44  35  20  11   9   6   4   5   5   7   6   2  43 108 101 107 109 109 109 110 111 111
 106 105 106 106 106 107 112  91  17   8   9   8   9  10  16  30  40  48  63  71  84 106 124 139 141 141 148 159 168 180 196 208 207 202 205 207 207 206 204 203 192 192 193 161 152 163 171 183 193 195 197 196 197 197 194 191 187 183 179 177 173 171 164 156 159 151 137 130 105  79  57  38  22  12   9   7   3   5   5   7   9   3  16  92 104 105 108 110 110 110 111 111
 106 105 105 106 106 106 110  86  12   9   7   9   9  11  15  17  32  53  69  85 111 139 152 161 170 171 177 177 183 192 203 207 208 207 209 207 208 207 204 202 201 194 197 173 164 164 178 196 194 198 202 199 198 199 197 193 186 179 179 176 167 165 163 160 160 155 146 139 115  81  63  40  18  14   9   7   5   5   5   5   7   6   0  78 110 107 110 110 110 111 111 111
 107 106 105 106 106 105 110  79   8   9  10   8   8   8  11  14  28  43  62  88 132 166 174 179 185 182 180 182 187 195 201 203 205 204 206 207 208 207 204 201 202 198 196 189 173 180 186 200 202 203 207 203 201 202 202 196 187 183 180 172 165 160 162 162 159 150 148 141 119  89  57  33  18  12   9   7   6   5   5   5   5   4  30  83 106 106 107 111 110 111 112 112
 107 106 107 107 106 107 111  54   1  10  10   9   7   7   9  14  22  39  61 104 159 176 181 186 189 185 184 185 186 194 199 202 203 204 206 208 208 209 208 205 203 203 200 198 192 196 194 194 199 203 204 202 201 202 198 194 186 184 182 179 172 167 162 162 158 145 148 142 122  95  65  40  20  10   8   7   6   6   5   5   5   0  55  98 101 106 107 110 111 112 112 112
 107 107 107 106 107 107 113  61   4   8   9  11   7   7   8  13  22  37  66 120 165 175 177 182 186 186 185 183 189 191 196 200 202 207 209 209 210 212 210 205 204 202 203 206 206 207 205 201 199 200 203 202 204 205 200 197 189 182 183 180 175 170 165 160 160 149 147 143 122  97  61  33  21  12   8   5   4   6   5   5   5   2  50 103 102 104 106 110 111 112 112 112
 108 108 108 108 109 107 112  73   7   8   9  11   7   7   9  13  20  37  74 123 161 174 175 178 183 186 186 185 186 188 194 199 202 205 208 212 212 208 208 206 206 208 207 209 210 207 205 205 207 206 205 206 206 200 196 198 194 189 185 180 178 169 163 164 158 155 148 143 126  96  62  33  18  11   8   5   5   5   5   5   5   4  63 102 100 103 105 108 110 112 112 112
 108 109 108 109 110 110 114  98  13   8   8   9   7   7  10  13  20  41  74 126 163 173 174 176 183 183 185 185 184 189 196 199 202 202 206 213 211 207 208 207 204 203 196 198 203 202 198 200 202 202 202 202 201 200 194 196 192 193 187 183 181 168 164 166 157 154 153 148 133 101  70  36  16  11   8   5   5   5   5   6   6   8  79  99  99 102 104 107 110 111 112 112
 108 109 108 110 111 111 113 102  20   8   8   8   8   8  10  13  19  39  78 133 166 171 174 178 182 181 179 183 186 190 196 200 203 201 206 212 212 208 207 207 205 204 201 200 202 203 202 205 203 204 205 202 202 201 200 198 195 194 188 182 178 166 163 165 161 153 154 151 138 108  68  32  17  11   7   5   5   5   7   6   7   5  70  99  97  99 102 106 109 110 112 112
 109 110 110 111 112 111 112 111  33   4   9   7   7   8   8  10  17  45  89 133 165 173 176 180 179 179 178 181 187 193 196 202 203 201 202 207 208 208 206 207 209 204 204 205 206 205 203 205 201 201 197 197 198 193 193 194 193 193 188 179 179 170 165 164 161 154 155 151 142 121  87  46  18  11   7   4   5   6   6   6   7   1  52  98  97 100 101 105 108 110 112 113
 110 110 112 112 112 112 111 118  48   1   8   7   7   8   9  10  22  53  85 120 160 171 175 179 178 178 180 183 187 190 194 199 201 201 197 201 201 205 206 204 199 197 197 195 198 198 199 201 199 198 196 193 190 185 184 186 187 190 187 181 175 167 168 168 163 159 152 144 136 124  92  53  21  11   8   6   5   6   7   6   7   6  63  96  96  98 101 103 107 109 111 112
 112 111 111 113 113 112 110 117  92   7   7   7   7   7   8  11  21  38  71 121 156 171 176 177 179 178 179 184 184 188 193 198 201 201 200 202 201 204 206 205 203 204 203 202 203 204 204 205 203 202 201 199 195 192 186 188 190 184 181 180 173 171 168 168 166 160 152 142 135 124  94  62  28  12   7   7   5   5   6   7   5  10  66  95  94  96  99 102 106 108 111 112
 111 111 111 113 113 111 111 112 111  28   4   7   7   6   8  11  20  40  80 125 157 172 177 177 179 179 180 183 185 189 195 195 194 198 202 201 201 202 203 203 204 205 203 205 207 205 206 205 200 198 197 198 194 193 189 188 188 182 180 178 175 176 171 166 167 160 153 145 134 128 101  73  36  12   9   7   5   5   3   6   5  22  85  92  93  95  97 100 104 107 110 111
 110 111 112 112 111 112 111 112 108  30   6   7   7   8   9  11  18  39  74 103 148 173 180 182 181 181 183 185 187 190 192 190 190 192 201 201 201 200 199 199 200 199 199 202 203 204 204 204 202 201 199 198 194 189 187 186 183 184 186 180 178 174 173 169 166 160 154 140 132 123 102  82  54  24   9   8   6   5   4   5   5  22  88  93  93  94  96  99 103 106 109 110
 110 111 111 111 111 110 110 112 107  23   9   7   7   8  10  13  16  32  73  94 142 169 178 182 183 184 182 184 186 188 191 192 191 192 198 201 201 199 197 198 200 195 195 199 203 200 202 201 204 203 199 197 196 191 180 179 185 189 185 176 173 175 176 173 166 160 152 131 120 114 104  89  73  45  15   8   7   6   5   5   6  32  94  92  92  93  94  98 102 105 108 110
 111 111 111 111 111 111 109 111 114  33   6   8   7   7  10  12  16  27  70 120 150 162 174 181 183 186 184 184 189 188 193 194 186 189 196 198 200 201 197 199 200 198 198 199 201 202 203 202 200 199 195 195 197 191 180 175 194 186 175 172 168 178 179 172 164 154 141 127 113 109 103  92  76  64  24  10   8   6   7  10   5  32  94  91  91  92  92  97 101 104 108 110
 109 110 111 111 111 111 110 109 118  56   3   8   7   9  11  12  14  37  78 118 144 157 167 175 183 189 189 187 190 190 191 191 187 186 196 199 198 201 199 197 197 199 196 200 203 203 201 199 200 194 195 195 194 190 181 172 187 181 168 166 156 146 143 140 142 142 134 118 106 108 106  91  77  71  41  12   8   7   7  15   9  52  93  90  91  93  93  95  99 102 106 108
 109 110 110 110 111 111 111 110 115  81  10   9   7   8  10  11  18  69 105 125 140 150 161 169 181 189 190 189 187 189 188 190 192 186 192 197 197 196 194 194 190 195 194 196 204 200 196 188 190 181 178 166 167 157 148 144 153 158 143 121 104  97 106 116 115 113 110 112  90 100 105  91  82  78  43  15   7   6   8  14  12  77  92  89  91  92  94  95  97 102 104 107
 110 110 110 111 112 112 111 111 113 110  36   7   8  10  11  10  29  95 117 128 135 146 157 164 177 184 187 191 188 188 190 193 186 176 177 185 180 183 180 173 184 187 194 197 202 199 184 162 166 144 129 118  81  74  79  80  85  90  95  86  85  82  78  77  77  68  60  67  63  85  99  94  87  85  47  16  10   8   9  10  12  82  92  89  89  92  93  94  97 100 104 107
 110 109 109 110 111 113 112 111 112 111  41   6  10  11  11  10  38 107 124 133 137 140 152 164 170 180 189 189 189 189 191 184 181 171 143 115 115 148 152 146 157 180 193 199 201 200 182 140 136 137 115  94  70  58  65  67  70  62  64  77  77  80  92  99 102  92  68  59  67  78  91  95  90  88  60  25  10   9  10  10  25  81  89  90  90  91  93  94  96  98 102 107
 109 108 110 111 111 112 111 111 110 117  81   6  10  14  11  13  44 115 128 132 135 135 144 154 163 173 172 160 160 167 169 169 161 127  88  66  73  97 118 129 142 168 193 199 200 197 187 166 138 153 136 106 110  98  91  85  99 112 121 116 122 145 150 143 142 133 121  91  65  56  85  96 102  96  68  31  16  11  10  32 110 116  90  86  89  90  91  92  95  98 102 105
 110 109 108 110 111 112 111 111 111 110 112  40   7  13  10  18  45 116 133 132 131 126 131 131 127 111 103 106 115 119 127 118  83  69  74  82  89  96 114 130 141 164 182 192 198 196 182 182 161 155 149 145 139 127 125 138 153 162 171 170 166 165 165 158 153 147 140 121  89  70  79  97 104 100  85  43  19  15  10  75 153 145 108  84  89  90  91  92  93  96 100 105
 109 109 109 110 109 111 111 110 111 110 119  79   5  11  14  19  43 118 137 137 129 104 104  81  64  75  91  93  95  91  85  63  63  81  86 104 123 135 144 151 141 155 171 185 197 197 188 176 164 161 156 145 134 126 124 126 131 140 149 157 159 160 160 155 147 146 137 134 114  91  92 107 103 104  91  59  22  12  22 117 167 135  89  83  88  90  91  92  93  96 100 105
 110 109 109 110 108 110 110 110 110 109 130 154  59  13  14  15  44 120 138 141 123  83  56  54  65  80  84  83  83  87  93 109 124 130 132 123 130 147 154 157 157 162 169 187 195 195 187 173 163 150 135 122 112 102 104 123 138 145 151 153 144 143 140 139 139 138 140 142 138 120 106 109 106 107  95  61  32  11  43 154 142 103 106 112  88  90  91  92  94  96  99 105
 110 109 109 110 109 110 110 110 110 111 132 165 173  53   7  14  43 120 143 144 123  95  82  91  98 105 118 126 127 135 147 155 153 138 119 101  94 101 123 139 148 159 171 184 195 194 188 169 152 131 116 114 111 120 139 125  97  70  68  66  76  95 115 115 121 139 145 147 143 136 124 115 113 108  98  72  39  17  56 142  98 124 148 138  84  89  90  91  94  96 100 105
 110 109 109 110 110 110 109 110 110 115 117 110 181  95   4  14  46 122 150 143 133 120 127 142 146 146 156 167 168 160 145 142 129 120 117 117 120 108 101 105 123 139 161 177 194 198 191 162 128 124 119 123 139 141 103 135  83  57 103  19  30  50  59  88 111 139 152 153 152 150 140 129 116 110  98  84  47  27  53 106 102 125 162 137  82  89  89  91  94  96 100 104
 110 109 109 110 110 110 110 110 109 121 144 147 155 117   9  18  49 117 151 147 143 145 149 152 144 137 142 146 135 129 101  63  69  56  34  81 105 117 134 132 120 123 142 175 195 201 195 149 119 126 126 156 148 116 141 202 129  31  41  38  52 105  85  57  77 123 143 155 162 160 154 145 126 108  96  85  56  36  47 121 114 105 164 141  83  89  89  90  92  95  99 103
 109 109 109 111 110 110 111 111 107 118 166 172 164 152  42  14  56 119 148 153 144 152 162 160 151 136 135 125  99  65  56  20  58  81  28 120 186 114 116 166 157 133 144 166 193 202 196 144 123 140 154 166 137 139 146 157 150 105 110 112 104 112 124 116 108 132 152 157 165 166 167 158 136 114  93  91  68  37  41 125 144 113 150 140  81  89  88  90  92  94  97 101
 109 110 110 110 109 110 111 111 110 112 165 178 170 179  80  10  57 120 145 154 154 161 173 168 162 150 135  83  47  61 114  64  41  41  60 123 160 133 126 140 181 171 154 160 194 201 197 153 130 154 184 175 165 155 150 151 158 166 167 158 149 141 146 142 154 170 174 169 169 173 170 159 143 120  95  88  77  35  62 136 154 146 139 140  80  86  87  87  90  93  96 100
 110 110 110 110 110 110 110 111 110 104 155 179 169 193  88   7  59 121 144 154 162 173 177 169 164 152 129 107 114 127 126 119 129 151 148 144 129 135 150 171 195 192 163 161 190 201 195 160 128 154 179 184 180 170 165 164 167 169 172 166 164 159 153 168 177 182 182 175 172 173 169 162 148 127  99  85  79  34  66 155 169 168 137 134  79  86  86  88  90  91  94  99
 110 110 110 111 111 110 110 110 110 103 134 179 177 192  86  10  61 121 143 156 165 178 183 178 172 170 163 160 164 157 155 160 166 179 170 159 145 143 164 189 192 189 165 161 191 199 195 169 132 144 170 174 175 180 178 180 175 175 173 173 173 177 184 192 187 189 184 180 177 174 167 159 148 129 103  82  72  39  73 152 171 175 140 132  79  84  86  87  90  90  94 100
 110 110 110 112 112 111 110 111 111 107 117 174 193 199 105  10  70 120 138 155 170 180 185 185 184 184 178 171 162 162 162 165 163 161 160 165 166 168 182 186 181 189 165 160 190 192 190 178 139 137 165 179 175 186 193 197 196 197 196 195 194 196 199 198 195 193 189 182 180 174 166 155 142 122  98  81  68  39  98 161 175 187 145 131  80  85  86  88  89  90  96 100
 110 110 109 111 112 111 110 110 111 109 107 159 198 192 139  21  75 116 134 156 171 181 184 182 183 187 191 189 183 180 175 173 176 179 189 192 191 188 189 182 188 183 162 164 187 191 187 181 150 134 150 175 182 183 191 199 201 200 200 199 198 198 197 198 194 192 192 188 183 175 168 158 141 122  89  72  67  43  94 150 169 184 148 130  82  86  86  87  89  91  96 100
 110 110 109 111 112 110 111 110 111 111 105 140 199 191 187  68  68 115 133 152 172 181 184 185 188 192 196 195 197 197 196 195 194 193 197 196 193 193 188 187 190 177 160 164 182 187 186 179 154 137 145 168 185 188 185 188 194 198 199 201 199 196 194 198 196 189 192 190 184 178 166 158 142 119  89  67  59  37 100 129 148 174 153 129  80  85  86  87  89  92  97 100
 109 109 109 110 111 109 110 110 111 110 107 137 200 193 195 103  64 108 129 152 171 180 185 189 190 195 197 198 196 196 195 193 192 193 189 186 187 187 191 190 183 173 160 161 179 188 187 178 147 139 148 159 178 186 186 188 189 195 198 196 199 198 196 192 193 190 186 181 180 178 169 154 142 120  87  67  48  34 103  98 140 161 145 123  82  86  87  87  89  92  97 100
 109 109 109 110 110 109 110 110 110 110 107 137 193 182 178 108  59 104 124 146 164 179 187 187 187 193 197 197 193 192 193 194 192 188 182 183 190 194 193 187 178 166 161 161 173 187 188 172 140 135 147 157 168 181 189 186 191 195 195 193 192 194 193 188 185 186 180 178 175 170 165 151 138 120  89  69  42  47  97 117 141 150 155 116  84  86  87  88  91  93  97 100
 109 109 109 110 110 110 110 110 110 111 107 139 183 188 165 134  59  98 117 147 162 174 184 187 188 191 195 193 191 191 190 194 192 191 190 196 200 196 190 181 172 162 157 159 171 182 184 171 144 131 140 157 167 180 189 185 188 192 190 188 191 188 188 191 189 182 179 177 171 165 158 146 139 116  86  70  37  56 113 148 137 147 157 103  84  87  88  88  91  93  97 101
 109 109 109 110 109 110 110 110 111 110 106 141 180 184 180 159  57  88 116 139 162 173 179 182 182 186 190 192 193 193 186 189 192 194 199 198 199 195 189 183 172 160 155 160 173 177 177 172 148 135 134 153 167 185 194 190 191 191 190 183 188 190 190 189 189 185 177 175 168 161 153 142 131 110  82  70  28  84 160 168 141 161 135  96  83  87  87  89  90  94  97 103
 109 109 110 110 110 110 110 111 111 110 106 139 186 176 192 185  65  67 114 136 156 168 175 175 178 183 187 190 192 192 189 190 194 198 201 198 198 196 190 180 171 157 153 161 173 176 172 169 155 140 127 139 164 187 198 195 193 193 192 188 185 187 188 185 181 178 174 170 162 157 149 138 125 101  79  58  24 105 166 164 167 177 140  87  84  87  88  89  91  94  98 102
 110 110 110 110 110 109 110 111 110 109 106 133 178 178 198 207  99  51 111 137 155 164 171 175 179 181 184 185 187 191 193 195 196 197 196 198 198 199 193 180 167 152 152 161 171 179 176 170 160 141 126 124 155 187 198 200 200 198 193 192 191 188 183 181 178 174 170 166 157 147 144 132 114  96  80  44  30 118 162 164 175 180 134  84  85  87  89  90  91  94  98 103
 111 110 109 109 110 109 110 110 109 109 105 135 189 192 204 209 152  46  98 127 149 160 168 174 177 178 179 184 184 190 195 195 198 198 197 199 201 204 197 185 163 146 150 165 176 181 182 178 165 149 134 118 136 178 198 200 203 202 199 195 191 192 184 178 172 170 166 157 149 144 139 118  97  86  77  33  36 119 149 157 165 161 106  82  86  87  87  90  92  94  98 103
 111 110 109 109 110 109 110 110 110 109 104 137 190 199 202 201 191  58  80 121 140 155 164 165 174 177 178 183 191 195 202 200 201 200 200 197 202 205 198 183 154 142 154 166 179 186 186 183 177 161 141 128 127 156 190 194 200 201 199 197 193 187 182 178 171 168 161 157 146 139 127 113  91  78  66  25  46 133 157 156 149 119  88  85  86  88  88  90  92  95  99 103
 110 110 110 110 110 109 109 110 110 109 106 117 173 188 193 198 201  79  73 114 132 147 158 161 169 174 176 180 187 198 201 202 202 202 200 197 197 198 195 173 149 149 161 174 184 195 198 186 183 173 152 142 141 139 162 184 189 197 201 195 196 187 181 176 173 167 161 156 144 131 119 104  89  71  50  23  57 144 160 147 114  88  84  86  87  87  88  89  92  95  99 103
 110 109 110 110 110 110 109 109 109 110 109 104 130 170 180 188 200  97  57 105 124 139 149 159 165 171 177 177 180 189 195 201 203 205 199 194 192 188 186 162 156 158 167 177 184 207 219 197 186 177 162 153 144 140 134 165 181 190 196 195 195 191 184 173 167 162 157 151 143 128 115  95  80  75  45  28  51 126 123  91  92  85  86  85  87  89  87  90  92  94  98 102
 110 110 110 110 110 111 109 110 109 109 108 107 104 118 139 171 194 123  42  91 114 127 137 154 161 163 172 176 175 186 190 198 201 198 197 192 188 189 173 150 154 159 166 174 181 197 217 196 181 167 151 125  87 106 127 145 183 186 194 193 189 190 182 174 167 161 157 152 140 125 108  90  78  69  43  31  27  29  16   5  66  93  85  86  87  87  87  90  91  93  97 102
 110 110 110 111 110 110 109 110 108 108 108 108 106 104 106 127 154 123  39  74 101 114 127 147 157 162 168 169 171 181 184 188 195 196 199 188 185 198 161 125 100 103 141 162 172 181 184 179 168 148 105  58  90 124 134 149 191 191 190 190 186 181 175 173 171 164 158 150 133 112  99  87  75  63  35  30  20   4   8  10  11  77  90  86  87  87  88  89  91  94  97 101
 109 110 110 110 109 109 109 108 108 107 107 106 112 112  90  42  28  45  47  64  88  99 123 140 153 164 168 170 173 176 183 186 191 189 190 186 196 201 169 128 129 124 103 119 148 164 165 157 148 107  59  94 148 158 141 172 196 199 192 191 188 184 180 173 171 169 161 147 129 102  83  77  71  58  33  27  18  12  12  11   7  20  88  89  87  88  88  89  90  92  96 101
 109 110 110 110 108 108 109 108 107 107 110 112  93  52  17  15  11  21  47  53  76  86 112 135 146 158 165 171 176 176 181 183 188 186 187 194 200 194 182 154 155 160 135 128 123 127 121 118 111 101 116 131 153 149 159 180 188 198 200 195 190 185 183 173 169 163 156 144 132 105  83  62  58  48  32  26  15  13  12  11  11   5  36  94  89  88  88  90  90  91  94  99
 110 110 111 110 109 107 107 107 109 115 100  57  18  14  20  20  15  17  50  47  63  76 105 123 137 154 155 165 174 177 179 179 185 186 189 198 193 186 178 173 165 155 156 160 151 127 109 111 118 142 145 138 148 158 169 178 180 190 201 197 188 185 180 177 175 164 154 146 123 100  83  57  55  46  27  28  14  11  11  10  11  13   3  57  96  87  88  89  89  90  94  98
 109 109 110 110 109 107 110 114 100  64  24  15  20  23  18  17  18  22  48  52  61  72  98 115 131 151 159 166 171 178 179 176 183 189 193 196 186 178 177 171 167 152 159 144 143 169 161 160 166 148 118 139 141 144 154 170 176 178 192 196 188 184 178 173 173 169 156 142 114  91  76  61  50  43  31  33  14  11  12  11  12  11  10  12  79  90  87  88  88  91  93  98
 108 109 109 109 110 115 106  66  28  17  22  21  19  18  19  19  21  21  33  51  61  69  88 103 120 146 155 166 174 176 177 179 181 189 192 187 180 179 171 157 148 132 132 111 111 141 160 177 151 128  96 116 114 121 143 150 166 174 177 185 188 184 179 172 171 165 147 128 110  90  68  66  52  43  32  22  11  12  12  11  11  11  12   7  31  93  88  87  88  91  93  97
 108 109 109 113 111  78  33  15  23  23  18  18  19  20  21  20  20  19  25  41  60  63  80 104 111 134 149 163 174 177 178 181 184 186 183 176 168 170 160 138 136 110 100 107  81 109 147 176 127 107 100  93 105  99 129 123 148 155 160 158 171 178 179 175 169 154 144 132 108  90  67  64  58  43  26  17  11  12  12  11  11  11  12  12   5  58  97  88  89  90  93  97
 107 112 117  96  42  13  18  23  20  17  18  21  21  21  20  20  19  19  20  45  58  61  74  97 106 127 150 165 169 176 180 187 187 174 167 150 150 149 140 124 125 108 112 113  95 118 139 167 133 111 112 103  93  88 109 115 140 125 130 130 143 159 170 173 167 153 144 123 100  84  78  70  55  44  26  16  10  12  12  12  12  13  13  12  14  17  85  92  89  90  93  99
 117 104  60  20  15  21  19  16  18  20  20  21  21  21  21  20  19  18  16  36  54  58  73  91  94 124 144 157 170 176 181 180 162 154 140 134 142 114 108 110 120 107 123 120 104  97 147 177 118 127 138 116  99  88 105 101 114 124 124 115 125 137 142 159 157 152 141 119  88  75  80  74  53  40  27  14  11  11  11  13  13  13  13  12  15  11  43  96  90  91  93  99
  66  29  12  19  19  15  17  18  19  21  23  22  21  21  21  18  18  18  17  24  47  61  69  88  95 121 138 146 167 174 175 158 139 129 119 117 109  95  94 104 112 108 125 133 138 140 151 170 160 155 148 112 104  97 115  96  97 108 112 108 111 129 120 131 156 150 132 106  80  75  71  69  57  41  21  13  12  13  12  13  13  13  13  13  13  19  11  71  97  91  92  98
  12  17  21  17  15  17  21  22  20  21  22  22  22  20  20  19  18  18  17  18  49  69  72  80  90 113 126 143 157 172 166 140 114 118 113  96  96  90  88 109 116 114 132 146 163 171 168 167 180 170 152 150 123 136 129 101  85 101 101  90  97 114 106 114 151 136 115  94  73  73  68  63  57  35  16  10  12  13  13  13  13  13  13  14  14  17  13  31  96  91  94  98
  20  17  15  16  19  21  22  23  24  22  22  21  21  19  20  18  18  18  18  16  41  62  63  74  88 114 116 138 155 161 130 124 109 115 101  99  93  94  92 102 126 132 125 126 129 146 161 151 145 134 126 137 144 154 147 126 100 104 107  97  87  96  77 104 145 139 106  83  70  74  65  60  51  29  14  10  12  13  12  13  13  13  13  15  16  15  18  11  68  99  93  99
  13  15  17  19  21  21  22  23  23  22  21  21  20  21  19  18  18  18  19  18  24  42  65  78  81 101 109 125 148 154 111  96 105 113  94  99  90  96 101 115 114  97  97  96  95  94  94  97  93  94  97  90  95  97  99 102 105 110 108 108 106  89  90  97 143 144 108  74  82  68  61  56  41  26   9  11  12  12  12  14  13  14  13  15  16  16  16  15  27  95  94  99
  16  17  18  20  20  21  24  23  21  19  21  21  20  18  18  18  17  19  19  21  20  24  55  82  88  93 100  96 132 159 136  97 108 110 120 127 124 123 117 110 109 119 119 118 123 119 104 108 125 129 129 129 131 127 122 130 140 148 150 143 144 117 135 117 132 135 104  66  78  66  69  52  35  14  10  12  12  13  13  13  12  14  15  15  15  15  14  21  10  66 103  99
  18  19  19  20  22  23  23  23  20  20  21  21  20  19  18  18  21  19  20  21  21  27  45  71  84  85  92  85 122 153 162 134 147 153 171 175 178 164 151 146 146 150 149 152 157 158 159 159 165 164 158 153 144 144 146 148 151 164 174 175 164 165 170 148 135 122  93  58  67  76  68  51  33  13   8  12  13  14  16  15  14  15  16  15  14  14  14  18  15  28  97  99
  20  20  21  22  22  23  21  21  19  20  19  19  19  19  18  20  20  21  21  20  22  26  33  59  81  95  91  83 109 140 159 173 178 177 182 186 185 170 155 148 147 148 148 149 153 161 167 165 165 163 160 155 144 143 144 151 165 174 171 162 158 167 168 155 131  97  77  64  68  77  59  48  23  12  11  13  13  14  16  16  15  16  14  14  14  13  13  16  20  10  69 104
  20  20  22  23  22  21  19  19  19  19  20  20  21  19  20  20  22  23  23  23  24  21  23  42  79  94  84  79  90 133 158 165 172 177 173 175 177 178 174 168 159 147 149 147 155 161 165 161 150 150 150 146 147 158 161 166 168 170 163 150 150 157 160 153 115  82  81  78  73  66  54  27  19   9  11  11  12  14  15  17  17  15  14  14  13  13  14  16  19  14  31 103
  20  22  22  22  20  21  21  20  20  19  19  21  21  20  21  22  22  22  24  24  20  13  33  47  47  85  91  77  93 118 149 164 167 171 167 168 170 172 174 173 170 164 162 154 147 137 129 131 129 131 145 154 168 165 160 164 166 162 151 143 145 151 157 150  98  73  85  73  78  58  43  34  27   7  10  11  12  15  14  16  17  16  17  14  14  13  14  13  16  18   9  68
  20  21  21  22  20  20  19  19  19  19  19  21  21  21  22  23  23  22  23  22  19  11  43  82  32  62  88  73  87 111 143 146 159 160 159 162 164 166 166 171 168 162 162 165 150 138 147 153 152 149 156 162 168 164 166 169 160 153 146 138 136 147 146 130  82  72  71  72  63  46  40  51  32   7   8  12  13  16  15  16  17  16  17  16  14  13  13  12  15  15  14  33
  22  20  20  20  20  19  18  18  19  19  20  21  21  21  22  24  25  23  22  21  18   9  42 127  48  27  70  73  76  94 124 125 154 158 158 159 160 161 162 172 173 172 170 170 164 162 163 158 166 177 178 177 175 173 169 164 156 150 148 135 137 139 127 101  74  68  80  67  52  38  40  69  29   5   9  11  13  16  16  17  17  16  16  15  14  13  13  13  15  15  19  17
  20  21  19  19  18  18  20  20  19  21  20  21  21  22  23  23  22  22  23  20  15   6  35 138 104  28  44  64  67  93 109 124 149 161 154 157 164 167 168 170 175 176 181 183 189 192 187 184 186 194 190 183 177 175 167 162 159 152 144 144 148 131 123  83  88  86  83  53  43  34  66  73  25   2   9  10  13  14  16  17  18  16  16  15  14  15  12  13  14  16  18  18
  22  20  18  17  17  18  19  19  19  21  21  21  23  23  23  22  21  22  21  18  14  10  43 134 147  70  24  48  63  74 108 113 139 155 148 157 169 167 164 172 176 178 182 188 193 197 195 197 195 195 194 187 182 175 166 163 162 147 147 154 147 112 101  80  88  81  65  37  34  45  87  76  19   6   8  11  14  15  16  18  19  17  15  16  15  15  14  13  14  15  16  20
  20  18  18  17  18  20  20  21  20  20  21  23  23  23  22  22  21  23  19  15  15  18  37 130 151 128  51  25  46  76 104 119 123 115 133 155 163 170 175 176 182 186 186 184 189 198 198 201 198 192 189 184 183 180 173 170 161 151 154 148 127  87  85  66  76  66  46  30  48  82  99  68  16   8   8  11  14  17  17  18  19  16  16  16  16  16  15  14  13  13  15  18
  18  17  17  19  19  25  22  21  21  21  21  22  23  22  23  22  19  20  17  15  22  18  30 127 148 155 120  30  27  50  78 103  83  92 111 132 143 166 179 166 176 186 187 178 190 197 194 196 197 189 189 186 181 183 180 170 159 145 142 131  97  62  61  64  59  40  32  43  98 109 100  58  11  10   8  12  15  17  18  19  19  16  17  15  16  15  15  16  14  14  15  17
  17  18  18  20  21  21  20  22  21  21  21  22  22  22  21  20  19  19  15  19  27  16  33 120 149 156 161 111  35  19  45  67  64  61  85 108 132 149 157 173 177 183 180 179 189 191 187 191 195 193 184 179 179 173 168 154 150 142 121 101  58  38  45  43  40  29  40 102 123 113  98  46   9  11  10  13  16  18  18  18  19  18  18  17  17  15  15  15  14  14  15  17
  19  18  19  19  21  20  19  20  20  22  22  21  21  20  20  19  18  16  14  27  25  22  23 113 153 156 163 156 106  45  15  33  43  42  56  82  91 106 125 160 166 170 170 184 187 180 179 189 181 184 178 173 169 166 147 135 132 123  94  65  38  24  36  30  28  48  92 132 119 111  92  27  10  13   8  12  16  18  19  19  19  19  18  17  17  16  17  14  13  14  16  17
  18  18  20  20  20  23  23  19  23  22  22  22  22  20  18  16  15  13  18  26  23  25  16 104 151 157 158 156 146 124  48  16  25  32  46  45  75  99 117 142 148 152 153 165 170 168 169 169 176 174 173 162 148 145 115 111 107  85  73  38  29  26  19  18  49 115 130 128 121 113  74  14  14  13   9  13  16  18  18  20  20  19  18  17  15  15  16  15  13  14  14  16
  18  19  19  20  20  20  23  23  21  22  21  21  21  19  16  15  15  15  26  25  25  17  26 112 151 159 162 162 157 154 126  60  21  21  27  32  56  68  88 111 124 135 131 147 161 144 150 159 164 154 143 145 130 119 107  90  85  58  45  33  17  13  30  63 112 149 135 128 126 111  40  10  15  14   7  10  16  19  22  22  19  20  19  17  16  15  15  14  14  15  14  14
  19  20  19  18  19  20  19  22  22  22  20  21  19  17  14  13  14  21  30  24  26  12  58 123 150 160 168 168 167 158 151 129  75  28  18  27  34  61  52  69  93 126 120 128 147 122 130 142 152 147 115 123 106  87  86  68  52  38  35  22  10  31  93 137 145 145 135 136 133  81  15  12  16  16   7   9  15  19  21  22  21  20  19  18  17  15  16  15  14  15  14  14
  18  19  19  19  19  19  20  21  22  20  21  19  18  17  13  12  15  27  26  24  23  15  90 119 147 162 171 171 170 171 157 149 133  82  35  24  27  40  32  75  68  91 107 104 120 105 112 126 134 115  98  80  80  71  56  42  31  21  26  31  55 115 146 151 147 142 139 147 123  34  13  12  19  16   8   8  16  21  23  18  19  19  19  18  17  17  16  15  14  14  14  15
  19  20  20  20  19  21  20  20  21  21  17  18  16  15  12  11  19  29  24  27  18  40 115 118 146 164 169 173 171 167 162 152 144 123 100  49  23  25  26  53  50  62  85  63  81  77  92  92  76  60  59  44  38  60  47  26  23  22  40  90 142 156 151 148 151 152 152 152  72  13  15  15  21  16   9   8  14  21  21  19  19  18  17  18  19  17  15  15  15  14  14  16
  20  19  20  20  20  20  20  20  20  21  17  16  14  14  11  14  26  27  24  26  12  75 131 120 147 163 169 167 176 167 165 156 147 139 128 114  79  50  27  37  42  41  46  42  38  46  35  36  30  23  24  39  30  32  32  23  40  74 125 151 154 147 148 156 157 161 168 113  17  17  11  18  21  16  10   9  16  19  19  18  20  18  19  18  18  16  15  15  16  15  13  14
  21  21  21  20  20  21  19  19  17  17  17  14  13  10  10  20  29  24  24  24  23 112 131 122 147 161 172 174 178 181 170 168 157 149 143 132 133 113  80  56  40  33  41  27  28  22  18  21  21  21  21  30  26  40  59  85 123 148 152 154 155 154 158 165 164 175 155  34  15  14  12  19  21  16  10  10  16  20  19  18  21  21  20  18  17  16  16  16  14  14  14  16
  20  21  22  20  20  21  19  17  15  14  14  13  12  10  16  24  30  21  26  21  47 130 134 129 145 158 172 175 173 176 180 168 161 148 151 145 147 142 136 130 107  74  61  70  56  57  71  66  64  63  62  84  94 127 144 158 155 152 151 155 157 164 169 172 177 169  56  10  18   9  15  21  20  17  11   9  15  17  19  20  21  21  19  19  19  17  16  15  14  13  14  16
