P2
# Generated by OpenCV 4.2.0
92 112
255
  40  40  40  40  39  40  40  40  40  39  38  39  40  39  39  39  40  38  39  39  39  39  39  38  38  37  39  41  40  36  24  22  20  17  14  19  21  16  19  20  18  19  19  17  16  16  16  15  13  12  13  13  13  14  13  14  12  13  11  11 108 191 149  75 123 186 203 202 200 190 141  62  39  43  48 104 175 200 205 205 205 200 200 206 207 206 206 205 182 128 113 156
  40  41  41  40  39  39  40  40  39  39  39  38  38  40  39  38  38  38  37  38  38  37  38  38  38  39  39  37  29  21  20  17  17  16  15  17  19  18  20  21  19  19  18  16  17  15  16  14  13  12  14  15  12  12  15  12  11  10  10   8   9  62 110  79 126 187 202 199 200 189 137  56  32  35  29  79 168 200 206 206 206 200 192 197 208 209 207 209 197 159 117 122
  40  41  41  40  39  39  40  40  39  39  38  38  38  39  39  38  38  38  39  39  38  38  38  38  39  37  32  23  20  17  20  17  17  16  16  16  16  20  19  21  21  20  18  17  17  15  14  15  13  12  14  15  13  15  12  11  12  11  11  11   9   3  16  51 130 190 199 198 200 191 139  61  41  43  42  93 172 202 207 207 208 195 174 181 205 211 208 210 208 190 158 127
  40  41  41  40  39  39  40  40  39  39  40  38  38  37  39  39  38  38  40  40  38  37  38  39  36  26  16  13  15  14  16  19  18  18  14  16  17  18  19  19  15  19  18  18  17  15  14  14  13  11  13  15  14  15  11  11  12  11  14  12  11  10   7   8  68 175 207 201 204 195 158 114 106 109 114 150 192 210 210 210 212 194 154 166 200 210 210 209 211 207 197 176
  39  40  40  39  39  40  40  40  40  39  40  38  38  38  39  39  39  38  40  39  38  39  39  35  24  17  15  14  11  11  15  17  19  18  16  15  20  20  18  20  14  17  18  16  16  19  15  16  15  11  12  13  13  13  10  12  11  13  13  13  13  12  12   9   2  63 181 209 208 204 187 176 177 177 180 194 208 213 212 213 214 192 128 130 185 205 210 209 210 213 213 209
  39  40  40  39  39  41  41  41  41  39  39  39  38  38  38  40  40  38  39  39  40  37  29  19  13  15  16  14  13  14  13  17  17  17  18  14  17  23  19  21  15  17  19  17  18  19  17  18  15  11  12  12  13  12  12  13  14  14  13  12  14  11  10  11  10   0  39 170 214 209 208 206 208 209 209 210 214 213 213 215 211 182  96  73 155 194 207 210 211 214 215 216
  41  41  40  40  39  41  41  41  41  40  39  39  39  39  38  39  38  39  39  38  33  23  17  15  16  15  14  15  16  14  14  14  17  15  17  17  13  21  25  20  17  17  19  20  18  20  20  17  19  13  14  10  15  13  12  12  15  14  13  11  12  12  12  12  12  10   0  41 174 211 213 210 213 213 213 214 214 214 215 215 205 157  65  33  98 167 194 207 214 217 217 216
  41  41  40  42  40  41  41  42  40  39  39  39  39  39  38  39  38  38  36  29  20  15  14  14  15  17  15  14  15  15  15  14  15  16  14  17  17  16  26  22  17  19  21  22  18  23  28  18  18  18  15  13  15  11  13  15  16  13  15  14  13  13  13  13  11  10   9   0  47 167 215 212 214 214 214 217 216 217 215 209 184 110  37  30  45 104 161 192 207 214 216 217
  42  40  40  40  40  41  42  41  40  39  40  40  39  39  38  38  38  35  23  12  13  14  13  12  15  17  17  16  14  14  12  16  16  16  16  17  18  16  20  24  19  22  21  22  20  24  30  21  21  25  14  15  18  15  14  19  18  15  14  13  13  12  12  12  12  11  11  11   3  31 148 214 210 212 213 214 214 211 204 184 130  54  33  35  33  45  92 146 182 198 210 213
  40  40  41  40  40  40  41  41  40  39  39  39  39  38  38  37  37  24  12  13  12  14  13  13  14  14  16  16  14  15  15  15  16  16  17  17  18  19  20  23  23  23  24  26  23  25  24  23  25  25  18  20  20  18  18  18  15  14  13  12  12  12  14  14  13  15  14  13  12   1  34 163 188 192 192 193 191 184 159 112  55  34  36  36  35  32  38  70 116 155 181 194
  39  39  40  40  40  39  40  41  40  39  39  39  39  39  37  38  29  15  13  13  12  11  13  15  18  16  12  13  16  18  19  16  15  18  21  22  23  24  25  23  27  26  32  33  26  29  29  24  27  22  20  24  23  21  18  15  15  13  13  14  14  14  15  14  14  13  12  11  11  13   5  60 118 117 125 126 120 102  70  41  34  36  36  36  36  34  33  34  46  75 109 138
  39  39  39  40  41  39  40  41  39  39  39  39  38  39  36  31  18  12  12  12  11  12  13  14  19  19  15  15  16  16  18  18  18  16  26  29  33  36  32  29  34  31  36  33  32  36  32  30  31  26  25  26  25  22  19  13  15  17  16  13  13  13  12  12  14  13  12  11  14  16  14  15  41  43  44  45  42  35  32  33  36  36  35  35  35  35  36  34  34  34  40  56
  39  39  39  39  40  39  40  40  38  38  38  39  38  38  34  19  14  14  13  14  15  13  14  14  16  20  23  24  19  16  17  17  19  20  23  33  39  42  39  38  37  36  39  33  31  40  35  32  32  26  27  28  25  21  18  18  20  16  14  12  12  15  15  13  12  14  16  14  15  12  12  12  18  32  34  33  35  33  35  36  37  35  34  35  36  35  36  36  35  35  33  34
  39  39  39  39  40  39  39  40  39  39  39  38  39  36  25  12  11  12  11  11  13  14  14  16  18  19  23  28  26  20  15  16  19  27  30  30  36  41  44  42  38  37  38  37  33  40  36  32  32  28  32  32  27  21  21  22  19  16  15  16  16  16  15  15  14  15  15  17  14  12  13  11  10  20  35  36  36  36  37  35  35  35  35  36  35  35  37  36  35  35  36  35
  39  39  39  40  41  40  40  40  39  39  39  38  38  32  13   9  10  10  10  10   9  11  12  13  17  20  23  25  29  32  23  19  25  33  43  40  39  51  49  52  45  44  38  39  36  39  38  37  29  35  41  35  27  26  23  20  17  17  16  18  17  15  16  18  18  18  23  16  14  14  14  13  14  13  26  36  36  35  35  34  35  35  35  35  35  35  36  35  35  35  36  35
  38  39  40  40  41  41  41  40  40  40  39  39  38  29  12  12  12  10  11  10   9  10  11  14  17  20  25  30  32  36  31  27  32  37  40  46  48  45  49  48  55  58  43  40  39  48  52  44  31  40  52  35  29  29  24  21  23  26  21  17  16  17  17  14  11  12  17   9  10  10   8  12  14  12  17  29  35  35  35  36  36  35  35  34  35  35  36  35  35  35  38  37
  40  40  38  40  40  41  41  40  40  40  40  39  38  25  17  12  11  11   9   9  11  11  12  14  15  20  24  31  32  34  38  36  33  31  35  39  49  44  48  46  60  77  48  42  48  52  63  54  35  46  56  42  38  30  27  31  32  27  20  18  19  14  11  10   8  13  19  12  10  11  11  13  13  10  12  19  33  35  35  36  36  35  35  35  35  35  34  35  36  36  38  39
  40  40  40  39  40  41  40  40  41  41  41  39  29  17  13  12  10  10  10   9  12  13  14  14  19  24  27  31  33  34  37  39  49  39  37  39  42  43  46  58  64  68  65  47  64  52  73  59  53  57  62  55  56  51  51  43  31  26  21  26  22  18  17  13  10  16  17  12  11  10  12  15  12  12  12  13  25  33  36  36  34  36  36  36  36  35  35  35  37  36  37  38
  39  39  39  39  39  40  39  39  40  41  40  33  15  12  13  12  10   9   9   9  13  17  16  17  20  25  27  31  33  37  38  40  53  62  54  44  48  46  40  71  77  79  80  69  65  71  74  74  82  75  83  86  79  78  68  48  37  32  34  29  25  29  23  20  16  17  16  13  13  14  17  18  13  10  11  14  20  31  37  36  34  37  36  36  37  35  35  36  36  36  36  37
  39  39  39  39  39  39  38  39  39  39  38  21  11  13  12  10   9  10  10  10  13  13  13  15  17  20  24  29  35  39  43  47  49  59  75  70  75  81  57  66  87  96  88  96  85  92  93 108 107 100 107 119 109 102  93  82  62  47  46  49  41  41  36  29  22  21  21  15  12  12  15  14  11  11  14  14  18  29  33  33  33  35  34  36  37  35  35  34  36  37  36  37
  40  40  40  40  40  39  39  39  39  38  31  15  12  12   9   9   9  11  12  12  11  12  12  15  17  26  28  31  37  42  45  49  61  72  78  99 106 105 108  74  91 100 110 116 115 108 114 138 139 135 145 151 146 145 137 119  93  90  89  85  76  66  53  44  49  49  37  27  20  14  12  12  10  10  16  18  13  23  29  32  34  35  34  35  35  35  35  35  36  37  36  35
  40  40  40  40  40  38  39  39  39  35  18  10  11   9   9  10   9   9  10  11  11  12  14  18  20  25  33  37  37  39  48  48  57  82 103 119 137 141 146 128 117 116 133 132 144 128 140 161 158 167 182 182 180 180 167 151 147 143 134 121 109  92  97  97  87  75  59  42  32  21  16  12  10  10  13  16  12  19  29  31  33  34  35  35  34  35  35  35  36  37  36  35
  39  39  39  40  39  38  38  39  37  25  10  11  10   9   8   9   9   9  10  11  15  15  23  29  33  36  38  46  54  58  65  66  83  95 120 148 168 174 173 172 164 155 155 152 161 149 165 177 178 191 201 201 199 198 194 187 183 177 167 159 147 140 136 131 126 114  94  71  53  36  24  14  12  11  13  15  13  15  30  30  32  34  35  35  35  36  37  36  36  36  36  35
  39  39  40  40  40  38  38  39  33  20  12  10   8   8   8   9  11  10  14  19  27  37  49  58  71  81  77  79  89 107 114 111 121 135 141 157 186 197 199 194 191 187 173 174 170 170 177 189 195 208 208 207 206 208 206 202 198 199 198 189 182 174 170 169 161 153 135 118 104  91  68  41  19  11  10  14  13  11  23  30  31  32  33  35  36  37  37  36  36  36  36  35
  40  40  39  38  38  39  38  39  31  19  11   9  11   9   9  11  14  14  17  25  33  46  61  76 103 128 134 142 143 141 154 158 156 165 181 192 201 208 210 207 204 204 197 191 190 183 187 191 202 209 208 208 208 210 208 207 206 208 207 205 203 201 201 199 191 176 165 156 147 140 114  80  38  17  11  13  13  12  16  28  31  32  32  35  36  36  36  36  36  36  36  35
  39  38  38  38  38  39  38  38  31  17  12  10  11  10   9  12  13  14  19  30  53  79  92 102 119 139 154 170 181 185 189 195 193 194 195 205 209 211 211 211 210 209 208 202 197 200 196 197 208 211 211 210 209 210 209 209 209 208 208 208 205 203 199 198 197 192 178 169 158 155 136 104  66  24  13  12  14  17  17  26  30  31  31  32  35  35  35  35  35  36  36  35
  38  38  38  38  39  38  38  37  32  16  12  13  10  10  11   9  10  16  30  57  92 121 136 150 160 164 169 172 185 196 205 210 214 214 210 208 210 213 213 211 211 209 209 207 205 207 205 206 209 211 211 210 209 207 206 206 208 207 208 208 204 202 201 195 198 196 189 182 171 166 162 135  96  41  13  11  14  19  18  24  27  29  31  32  34  34  34  34  34  35  35  35
  38  38  37  37  38  38  38  39  37  14  11  12  11  10   9   9  12  28  60 101 135 159 171 178 182 186 189 190 195 201 210 214 215 215 212 211 210 211 212 211 213 212 208 207 208 207 209 210 208 208 209 207 208 207 205 204 204 204 204 205 203 201 201 195 193 197 192 188 176 172 165 145 106  60  22   9  12  17  17  22  26  28  31  32  33  35  35  34  35  35  35  35
  38  38  37  38  38  39  41  38  32  14  10  10   9   8   7   9  20  44  88 128 159 179 189 192 198 199 198 197 200 204 209 212 212 213 212 212 211 208 212 213 213 211 209 208 207 207 208 211 209 206 209 208 209 208 206 207 206 203 202 203 204 204 201 196 193 193 191 188 179 175 168 147 110  64  30  14  13  15  16  23  28  27  28  30  31  34  35  35  35  35  35  36
  38  38  39  39  38  39  38  40  29  12   8   7   7   7   8  12  26  54  87 125 169 189 189 194 202 202 200 202 206 206 211 212 212 213 211 211 210 207 210 212 209 210 211 210 208 209 209 211 210 209 209 209 211 210 207 209 209 206 205 206 206 202 201 196 195 194 193 190 177 176 174 155 116  65  29  15  14  17  17  23  29  27  27  29  31  32  34  35  35  35  35  36
  38  38  38  38  39  39  38  40  26   9   6   7   7   6   6  12  28  60  95 151 187 190 192 196 203 202 201 201 203 205 207 209 213 212 213 212 212 212 210 210 212 212 213 211 210 211 211 211 211 210 208 208 207 209 207 207 209 210 208 206 204 200 202 198 194 195 195 191 180 175 177 161 121  79  38  13  11  17  18  21  26  27  27  29  31  31  32  34  36  36  36  36
  38  38  38  38  39  39  39  37  20   6   6   6   6   7   8  12  28  71 117 163 184 184 188 195 202 202 201 200 198 201 205 207 210 211 212 213 213 211 212 212 213 211 215 214 213 214 213 213 214 213 211 205 208 210 207 207 211 210 209 208 205 204 204 198 194 194 191 189 183 176 175 162 126  84  43  15   9  18  19  18  24  27  26  27  31  31  31  33  36  36  35  36
  38  38  37  38  38  38  38  33  15   7   9   9   8   7   7  14  35  73 112 162 183 188 187 192 199 200 200 198 199 202 203 208 209 211 212 212 213 212 212 210 214 214 217 215 215 215 218 216 214 213 216 215 215 214 209 210 211 210 211 210 207 205 201 199 196 192 193 189 183 179 175 165 134  83  34  16   9  16  16  15  25  28  27  28  30  31  31  33  36  36  37  37
  38  38  38  38  38  38  37  32  11   8  10  10   8   9   8  16  33  68 123 163 184 189 187 191 198 199 197 201 200 199 199 207 210 211 213 213 213 217 216 213 216 218 215 212 212 213 217 216 213 213 217 218 213 214 214 211 211 209 213 208 205 205 204 201 196 194 196 192 185 181 175 169 149 102  45  14   9  12  13  16  24  27  27  29  30  31  32  34  37  36  37  37
  38  38  39  38  38  38  38  32  12  11   8   8   7   9  10  16  35  78 126 165 185 189 187 190 195 196 197 198 198 197 197 205 207 207 208 212 216 220 218 215 217 220 217 215 214 213 214 214 213 212 216 216 215 212 211 211 212 208 211 207 206 202 201 201 197 193 196 192 183 177 177 171 150 106  56  17  12  12  17  20  26  28  27  28  31  32  32  35  37  36  38  38
  39  39  40  39  37  37  39  33  15   7   7   9   9   8  11  22  52  91 131 165 187 187 186 191 194 193 194 195 196 196 201 203 205 205 202 209 216 221 219 218 218 217 215 214 213 213 212 213 213 212 213 213 214 214 210 210 210 211 212 210 208 205 201 200 194 189 192 193 181 176 177 174 154 113  51  19  13  14  18  22  27  27  29  27  28  30  32  34  36  36  38  38
  40  40  39  38  38  38  39  33  19   7  10   9   7   7  12  30  56  90 127 165 187 187 187 191 193 191 194 195 198 195 203 204 206 210 205 207 212 219 219 219 215 216 213 215 214 212 212 216 212 207 211 213 214 209 210 210 208 210 209 207 210 206 201 202 197 192 190 190 181 176 178 174 155 128  67  21  11   9  13  16  26  27  26  28  29  28  31  33  34  35  36  38
  39  39  39  38  37  37  39  36  24  12  10   7   7   7  13  24  51  89 126 159 182 185 186 189 189 192 195 198 201 202 203 206 206 207 206 203 206 213 217 216 215 216 215 214 211 212 212 213 213 213 212 211 208 207 206 206 206 206 203 205 209 208 201 198 194 191 191 189 185 179 181 172 155 141  89  29  11  10  11  13  24  27  25  26  28  29  30  34  35  36  36  38
  39  39  38  38  38  38  38  38  30  17  10   8   7   7  10  23  52  78 120 158 176 184 186 187 187 193 197 198 200 203 204 206 207 206 206 206 204 208 212 211 214 215 213 210 212 212 212 213 211 211 209 205 208 208 205 207 206 204 202 204 204 205 202 197 192 193 192 189 186 183 180 172 159 137  95  39  12  10  11  16  28  38  39  31  29  28  28  32  34  35  35  37
  39  39  38  38  41  41  39  42  33  19  18   9   9   9  10  20  44  80 124 153 173 185 187 186 187 192 195 196 198 201 202 206 207 208 206 209 212 213 214 212 213 215 214 212 214 215 212 213 211 210 210 210 210 207 204 207 205 202 203 206 203 202 201 199 196 194 192 190 190 184 179 173 163 144 109  54  12   9  12  21  40  60  75  64  43  34  30  30  34  34  35  36
  38  39  39  38  39  39  40  41  30  15  25  15   9  10  10  18  44  73 112 147 171 185 187 185 189 193 194 199 201 200 199 202 208 207 206 208 213 213 212 209 210 213 211 213 214 211 212 212 210 211 211 208 207 202 205 204 205 203 204 204 201 202 198 196 198 195 190 191 188 184 179 175 166 147 122  70  16  11  11  15  41  82 104  94  75  63  51  40  33  34  35  36
  39  38  38  38  38  38  40  39  34  18  13  14  12   8   8  16  39  69 115 121 162 184 185 186 190 194 195 198 203 200 198 201 204 203 204 203 210 212 209 210 208 212 211 213 209 210 212 213 211 212 211 207 208 204 207 204 205 206 201 202 201 203 199 199 200 196 190 190 187 185 180 173 164 148 132  93  26   8  12  14  57 103 112  88  87  84  77  72  52  36  35  37
  38  38  37  38  38  38  40  42  36  21  10  10  12  13  10  16  36  82 113 117 163 178 182 187 192 194 196 196 198 198 199 200 202 203 206 205 207 209 211 212 212 214 211 214 211 209 211 213 214 211 209 207 207 209 210 208 203 205 203 204 200 202 201 201 196 197 194 189 189 188 179 168 159 149 139 114  47   7  11  19  73 100  80  50  74  96 106 112  98  66  40  35
  38  39  38  39  39  38  38  39  32  19   8   8  11  11  12  15  36  76 117 148 162 174 182 187 193 193 194 196 196 200 204 202 203 206 204 203 205 212 213 213 211 210 211 212 210 207 206 210 209 206 208 208 211 213 211 210 208 203 198 200 201 201 198 195 195 196 193 191 189 183 175 165 154 148 140 126  66  10  10  20  68  95  68  34  47  80 123 138 134 114  73  40
  39  38  39  40  39  39  39  37  29  21  12   8   7   5   9  16  44  79 118 149 161 168 181 187 193 193 194 196 196 200 203 202 204 204 201 199 202 208 210 211 211 208 207 210 210 210 209 209 209 210 212 211 213 212 210 209 208 202 192 200 202 198 195 192 193 199 197 196 192 183 167 155 149 148 142 136  86  13   9  18  65  90  63  29  35  63 108 141 154 145 111  63
  40  38  39  38  38  39  39  37  32  25  16   7   7   9  11  23  64 106 130 147 160 164 173 185 189 192 196 196 195 197 200 201 201 200 199 199 201 207 208 208 213 211 209 210 212 210 212 215 213 213 206 208 209 211 211 208 206 202 196 202 202 192 193 191 191 192 188 182 183 178 164 151 143 146 144 139 100  20   7  15  69  92  60  31  29  44  96 133 156 155 135  92
  39  38  39  39  38  39  39  36  32  21  15   8   7  10  11  37  97 130 140 149 158 163 171 177 182 190 194 195 196 194 198 198 198 198 199 195 199 209 208 210 214 213 212 209 211 212 210 215 212 209 205 202 204 209 212 208 206 201 195 193 194 197 190 182 172 152 146 144 141 138 138 140 136 142 145 143 114  33   9  14  61  72  52  25  27  26  65 122 138 144 141 114
  38  38  40  44  41  40  39  39  34  21  11  10   6   9  12  46 117 136 146 152 155 159 168 175 180 187 190 194 200 196 200 198 199 199 200 196 201 203 204 207 207 205 208 205 209 208 204 216 211 201 202 195 201 204 190 190 194 184 171 176 174 174 163 136 115 107 116 121 114  97  95  95 102 122 144 145 129  49  11  16  31  70  86  32  23  24  31  82 116 128 132 116
  38  38  39  44  43  38  39  39  31  22  12   8   7   9  12  51 124 143 148 154 156 161 163 169 178 184 190 197 200 198 201 202 200 198 198 193 190 193 196 189 184 188 190 196 202 200 205 213 210 195 188 185 188 167 137 144 132 121 118 120 116 112 104  96 100  99  92  93  84  77  79  84  87 107 141 151 143  73  11  10  25 123 168 111  28  24  24  41  92 120 126 110
  38  38  38  41  42  37  35  30  29  19  11   6   7   7  13  53 128 148 150 154 154 157 163 169 173 182 186 183 183 183 184 189 189 189 192 180 166 158 144 140 155 165 168 171 190 199 203 207 208 194 162 148 163 132 117 106  74  68  80  79  76  83  93 109 114 121 126 121 113 109  97 109  98 110 131 151 150  97  18   4  23 126 175 171  71  19  26  28  72 121 133 117
  38  39  39  39  40  37  36  28  23  16   8   7   7   9  14  49 129 151 153 155 154 159 160 160 161 164 144 134 137 146 146 151 156 150 141 122 107  91  86  85 118 143 156 145 176 195 202 207 207 191 153 134 147 131 119  90  93 103  98  90  99 114 128 135 142 167 176 163 155 146 143 139 127 123 139 151 151 113  34   7  14 103 162 148  97  21  30  24  54 119 145 133
  40  41  40  40  40  38  35  42  35  35  12   6   5  11  13  51 131 156 157 157 156 147 137 132 127 117 112 110 108 112 111 105 105  97  85  77  72  72  79  92 108 125 142 139 173 189 200 206 204 191 166 151 152 148 140 133 135 121 111 117 130 150 160 167 169 174 180 172 163 161 157 152 150 144 150 153 155 129  56  11   8  67 116 127 103  22  30  28  37 105 151 147
  38  43  43  45  48  43  58  83  48  57  27   5   5  12   9  57 136 158 160 156 147 126  97  85  80  81  83  92 100  98  97 101 103  98  94  91  81  83 101 112 122 141 136 143 169 182 192 200 200 188 176 159 161 163 154 142 121 101 100 118 130 136 141 145 142 143 148 149 151 153 157 162 163 153 154 157 158 142  69  16   6  57 120 155 109  16  29  30  29  77 143 157
  40  48  50  49  52  54  81  95  53  40  30  12   7   6  13  64 142 159 161 160 143 122 104  92  89  89  88 107 119 115 117 121 123 119 108 108 108 105 110 125 136 147 146 155 154 175 188 200 202 191 185 173 166 151 132 115 106 113 114  95  74  71  71  73  88 106 122 121 129 150 162 167 165 164 162 161 156 148  88  19  10  67 114 177 110  19  28  28  26  60 138 166
  41  45  47  45  45  53  87  93  65  39  30  14   6   6  20  73 142 166 164 160 151 138 130 133 130 127 130 147 156 161 160 155 149 149 143 133 124 106  91  88 102 119 131 141 153 171 187 198 202 196 186 173 154 134 124 129 136 114 117  61  44  83  59  39  76  80  74  98 129 160 170 173 171 173 170 166 155 148 111  32  30  82 106 193 102  15  26  29  26  53 136 175
  41  42  44  43  41  45 106  89  78  62  32  20  11   7  21  73 138 168 166 161 158 153 149 147 147 146 147 155 158 147 139 133 116 104  94  89 105 121 120 112 105 106 112 123 139 163 182 196 207 204 186 163 145 142 154 157 124 137 194 109  44  41  42  49 150 142  95  84 114 154 167 170 178 182 180 173 159 147 124  56  45  92 108 186  98  17  28  28  26  46 129 177
  39  42  40  43  39  41 138 145 123  76  51  30  15  10  23  74 140 167 168 167 164 162 156 152 143 132 127 129 122 114  96  74  43  28  76  61  81 168 136 120 127 135 133 128 130 149 177 199 210 209 192 158 145 159 180 158 150 167 191 171  86  67  75 114 162 144 139 136 143 167 181 182 186 188 189 178 163 149 134  81  38  77 108 167  95  17  28  28  27  42 121 176
  42  42  40  42  41  36 135 170 165 115  78  41  19  12  21  76 139 166 170 173 167 168 159 157 155 140 138 134 110  85  63  77  39  33  53  45  87 219 198 153 136 150 171 146 141 146 172 197 210 212 193 159 156 178 176 163 156 147 157 181 163 154 157 161 148 158 167 168 173 185 190 191 193 193 189 179 168 151 134  96  43  68 102 149  85  19  29  28  27  40 123 182
  42  40  38  37  42  36 110 182 176 148 104  61  38  14  19  77 136 166 169 174 175 172 172 165 163 159 158 132  91  70 104 155  98  50  40  47 147 205 179 165 158 148 169 171 156 154 169 195 212 211 197 168 165 184 190 188 171 163 164 181 196 171 169 179 179 178 171 174 184 192 196 193 195 195 189 181 172 151 131 101  55  62 108 126  72  20  27  27  27  40 126 186
  43  41  39  40  43  34  69 192 187 178 132  65  45  10  25  88 141 164 169 176 182 186 182 174 167 164 164 149 136 134 141 147 148 120 132 145 176 165 159 157 164 183 187 181 167 161 171 195 208 207 201 174 167 180 189 188 176 167 166 167 173 172 175 176 174 172 174 189 192 195 198 197 202 199 189 182 173 152 131  96  81 110 123 134  85  16  26  27  26  41 130 192
  40  38  40  40  40  37  38 163 186 191 176  79  33  12  35  97 147 161 168 178 186 193 192 185 179 181 180 176 172 169 158 145 150 151 175 192 180 172 160 164 177 200 199 179 172 166 173 195 208 210 199 180 166 177 183 177 183 181 183 179 174 174 174 174 176 182 196 201 198 200 202 202 203 199 191 182 172 154 131  94  71 123 150 162  97  14  26  26  25  47 140 197
  39  41  40  39  38  39  30 113 200 193 191 114  36  17  41 102 145 159 165 178 188 195 197 193 189 186 182 180 174 167 165 163 168 170 174 180 172 163 165 170 180 192 184 182 180 171 174 196 204 202 199 186 167 176 191 188 187 194 201 202 202 199 198 195 196 198 198 199 195 197 202 204 205 202 195 185 170 153 128  88  74  97 156 171  86  17  27  25  24  52 151 197
  39  40  40  39  38  38  33  66 188 197 182 140  84  27  39  96 143 156 168 178 188 194 199 196 194 191 190 192 189 177 170 168 164 162 162 164 175 184 189 187 186 184 183 191 182 173 181 195 204 203 202 191 172 173 186 196 194 192 195 204 208 208 204 202 200 194 193 198 198 197 203 205 205 205 195 187 174 156 128  79  72 111 170 177  79  16  26  26  24  61 159 191
  39  38  39  39  38  39  37  37 153 203 194 170 129  29  30  90 138 158 165 175 187 196 199 197 198 198 197 200 203 199 196 193 189 188 186 196 201 200 200 199 191 184 194 194 185 175 181 192 201 203 202 189 176 172 182 195 202 201 193 199 204 207 205 208 207 203 200 203 204 200 204 203 204 204 196 184 175 160 125  68  72 146 181 186  77  16  25  26  24  81 170 181
  38  39  39  39  39  39  38  30 133 208 192 181 122  19  30  93 132 154 166 177 184 194 199 199 202 203 202 200 201 201 199 198 198 197 196 198 201 202 200 196 196 201 201 194 188 179 179 190 204 204 201 191 174 174 182 193 203 204 201 198 200 205 204 204 206 206 205 200 199 204 204 202 204 201 195 183 171 156 123  53  74 154 175 189  69  16  24  25  26 105 184 169
  39  39  38  38  38  37  38  28 122 204 187 158 101  29  30  84 131 149 165 173 180 193 200 203 206 204 205 203 200 200 200 199 200 200 203 202 200 196 197 203 208 207 201 195 188 181 178 185 201 205 202 191 169 176 183 190 197 203 207 204 205 206 205 206 203 204 205 204 204 204 206 204 202 194 191 182 171 157 119  42  60 145 178 188  64  18  27  21  40 136 189 150
  39  39  38  38  38  37  37  26 113 202 196 172 137  52  28  78 127 146 156 169 177 192 201 205 208 205 204 205 203 202 201 202 202 204 203 202 200 203 210 213 211 205 201 193 185 182 179 185 200 207 203 190 171 171 180 188 197 206 209 204 204 206 204 202 205 206 204 208 211 210 206 205 200 193 187 181 170 159 111  33  80 160 188 183  56  19  25  19  70 166 185 118
  39  39  38  38  38  38  37  27  94 204 191 187 171  78  27  64 115 144 151 168 182 190 194 200 205 204 206 207 208 204 208 206 200 203 206 206 205 210 214 212 210 207 202 195 186 181 179 188 202 208 200 191 176 171 177 189 198 209 210 209 205 206 207 205 209 210 211 210 211 211 209 203 201 192 184 177 167 154 101  29  94 183 193 190  53  19  23  30 115 182 167  75
  39  39  38  38  38  38  38  29  76 204 197 191 191 107  30  59  97 140 152 163 176 184 191 199 200 201 206 208 209 208 208 207 202 206 209 208 212 210 214 214 209 207 204 196 186 179 182 191 204 207 198 193 182 174 170 183 195 212 218 214 212 212 213 210 208 211 215 214 212 206 206 203 199 191 184 175 164 150  86  24  96 191 194 181  45  19  21  68 157 179 123  37
  38  38  39  39  38  37  38  31  59 190 201 194 206 137  34  46  80 130 146 159 174 183 189 196 195 201 205 207 209 211 208 209 210 213 211 209 211 213 214 213 211 207 202 193 182 178 182 195 203 206 200 192 189 179 168 174 191 207 220 216 216 215 213 213 214 211 211 211 212 207 205 202 198 186 181 173 155 140  70  34 121 184 196 133  21  20  47 130 174 153  65  25
  38  38  38  39  38  37  38  33  52 182 214 207 204 116  33  49  68 113 140 156 173 182 186 193 197 198 202 204 208 211 210 216 212 212 213 210 211 216 217 217 219 211 199 185 176 177 184 196 202 206 202 198 194 185 173 169 184 201 213 216 220 222 221 217 213 215 214 212 208 203 201 196 192 184 180 168 145 130  59  66 157 179 159  56  14  42 113 165 165  94  28  27
  37  38  38  38  38  39  38  34  48 182 213 212 185  86  36  57  56  92 132 153 166 174 181 191 193 196 200 201 209 208 212 215 212 212 214 214 214 216 218 220 220 211 195 177 169 174 186 198 207 208 205 203 196 190 183 168 175 199 208 211 217 218 218 220 213 212 214 211 207 204 200 196 191 183 172 161 145 113  47 108 166 157  65  16  48 110 156 164 111  36  24  28
  39  38  38  38  38  38  38  36  36 156 207 206 190  98  53  67  43  71 120 144 157 168 177 183 185 193 199 200 205 210 216 217 217 214 214 215 217 214 214 218 217 206 182 167 167 173 186 199 207 213 209 204 199 193 183 171 172 190 202 203 210 214 214 213 213 213 211 208 206 204 197 194 190 176 166 152 141 102  56 120 133  78  28  62 116 150 154 108  38  22  26  29
  39  39  38  38  37  38  38  37  32  74 173 201 197 132  77  88  48  56 105 136 152 159 167 177 181 191 195 196 206 209 209 214 217 216 218 214 213 210 208 212 208 192 173 169 174 175 184 197 208 215 215 212 206 198 188 174 172 181 195 198 201 213 217 212 214 216 214 210 203 200 195 191 186 175 163 149 134  93  52  85  90  77  80 121 146 137  90  34  22  26  27  27
  39  39  38  38  37  38  38  37  38  31  63 142 186 157  90  90  56  52  89 127 146 152 163 171 178 189 193 197 205 205 201 208 212 215 215 217 214 204 202 206 196 185 175 180 180 179 186 197 204 219 222 214 214 202 187 176 173 174 181 197 198 208 213 215 213 215 216 210 204 197 194 191 185 173 162 145 127  83  52  92 121 116 113 129 114  65  28  23  27  26  26  27
  39  39  38  38  37  39  38  37  36  38  30  35 100 155 124 113  75  59  71 111 141 148 153 160 173 184 185 194 201 202 202 207 207 214 213 210 207 202 205 200 186 186 178 182 180 178 184 189 195 211 222 210 207 197 179 165 142 150 164 195 207 205 213 214 209 210 209 205 204 200 193 191 184 167 150 138 121  74  61 113 134 112  90  73  40  22  25  26  27  27  26  27
  39  39  39  38  37  38  38  38  37  38  38  34  30  65  89  88  75  66  64  94 130 135 142 154 167 176 183 191 197 200 200 205 206 203 211 207 209 211 204 191 190 185 168 159 142 146 170 180 188 200 207 201 194 185 159 116 110 143 161 195 218 212 213 212 210 210 204 205 203 200 194 192 180 167 140 124 116  75  57  87  85  56  36  25  23  25  26  26  26  27  27  28
  38  38  37  38  37  38  38  38  38  38  38  38  37  31  29  28  57  75  72  86 113 122 133 152 159 172 186 191 193 197 201 204 205 205 206 206 205 206 204 203 202 182 150 130 113 106 120 152 172 184 190 184 182 163 124 129 170 173 169 203 217 218 217 215 211 211 206 207 200 197 194 189 179 170 151 123 109  74  46  32  26  24  23  24  25  25  26  26  26  27  27  28
  38  38  37  38  38  38  38  38  38  36  38  37  38  38  33  27  44  69  75  87  97 110 121 139 156 165 176 187 189 194 198 203 207 208 203 207 200 202 209 217 207 190 161 145 165 157 133 127 138 160 165 153 153 141 137 171 184 172 185 200 208 217 219 217 212 208 209 208 201 197 190 184 177 166 143 125  98  70  38  25  25  25  25  24  25  25  26  26  26  26  26  28
  38  38  38  38  38  37  37  37  38  38  38  36  37  35  36  32  30  65  68  84  88  95 114 131 144 156 171 179 181 192 196 197 204 206 202 207 203 207 215 215 209 199 186 170 164 166 169 161 133 133 126 122 142 152 160 168 170 181 195 197 203 210 217 218 210 207 208 206 204 198 193 186 176 153 128 109  92  62  37  24  26  26  26  26  26  25  26  26  26  25  26  28
  39  39  38  38  38  37  38  38  38  38  38  37  36  37  36  31  33  64  63  79  84  85 115 128 143 154 168 175 181 186 192 195 200 201 202 206 205 210 216 209 205 204 199 185 166 158 157 145 152 176 168 176 174 141 143 141 144 167 174 192 199 204 211 214 211 210 206 203 198 195 191 186 171 151 128  95  82  61  34  24  25  26  26  26  25  25  24  25  26  26  27  29
  39  39  38  38  38  38  38  39  38  38  37  37  37  36  36  34  35  49  59  81  80  90 110 119 131 150 166 176 180 186 192 194 197 198 201 205 207 213 210 203 202 199 192 171 147 139 137 122 128 174 194 196 176 119 108 119 133 128 153 173 190 198 201 206 208 207 205 202 198 195 185 176 169 148 127  92  79  56  33  25  25  26  26  26  25  25  24  25  26  26  27  29
  39  39  39  39  39  38  38  38  38  38  37  37  38  37  36  33  31  39  60  84  84  98  98 105 132 138 161 167 169 184 188 190 193 198 200 205 211 205 202 196 195 190 167 158 131 129 123 117  99 132 170 185 134 101  95 106 122 106 149 147 181 185 190 190 191 189 193 200 197 189 180 173 167 146 122  95  91  67  30  25  25  26  24  25  25  25  24  25  25  26  27  29
  39  39  39  39  39  38  38  38  38  38  38  38  38  36  36  33  31  34  55  79  84  96  84 102 129 135 147 159 170 180 184 189 194 198 203 203 197 184 188 182 170 161 147 137 120 118 114 120 110 113 156 191 119 109 104 102 118 120 117 124 140 153 160 165 167 162 170 188 195 184 177 170 154 130 105 102  93  72  29  23  24  25  24  25  25  25  24  24  25  26  27  29
  38  39  39  39  39  38  38  38  38  37  39  38  38  36  36  34  30  32  52  75  93  99  82 103 117 133 145 161 171 180 185 192 194 198 198 177 166 159 161 163 157 123 121 111 128 105 114 128 106 103 147 168 128 101 117 102 126 116  90 113 118 119 136 151 158 160 148 165 183 182 179 170 140 116 109  96  97  62  28  24  24  25  25  25  25  25  25  25  26  27  29  31
  39  39  39  40  39  38  38  37  38  37  39  38  38  36  35  34  30  30  49  70  95 109  85  91 119 118 143 158 163 169 186 192 194 191 171 147 151 141 145 139 120 103 114 111 113 117 118 119 108  89 152 159 132 115 122 123 114 116 106  94 127 112 122 124 126 141 131 130 168 186 172 161 132 109 113  99  94  47  23  24  25  25  24  24  24  25  25  26  27  28  30  33
  39  39  39  40  39  38  38  37  38  37  37  38  38  36  34  34  32  30  40  59  93 109  82  94 107 111 140 149 156 167 182 193 187 174 151 144 125 127 138 111  98  92 104 118 111 118 122 121 131 115 153 152 133 115 136 127 108 114 118  90 112 105 115 121  99 114 130 110 136 176 167 148 128 108 105 108  81  39  22  26  25  24  24  24  24  25  26  26  28  29  31  33
  38  38  40  41  40  39  39  38  38  38  37  37  37  37  36  35  34  31  31  55  78  99  95  99 105 116 125 127 154 166 177 188 159 142 132 126 110 120 108 103 102 105 110 117 126 116 116 147 162 162 187 161 171 152 144 136 109 128 131 106  99  98  99 120 104  96 107 115 131 167 165 148 129 105 104 103  73  31  25  25  25  25  26  25  25  25  27  28  30  31  32  34
  38  38  40  41  41  40  39  39  39  40  39  37  37  37  36  35  34  33  32  46  66  85 102 101 107 111 124 133 152 156 169 177 156 125 105 102 107 113 117 104 103 110 123 131 138 139 125 137 152 170 186 169 165 165 140 133 117 132 136 111 100 100  94 108 104  92 108 109 133 176 168 132 118 109 100  96  57  29  24  25  26  27  26  25  24  26  27  30  31  31  33  34
  39  40  39  40  41  40  40  39  39  40  40  37  37  37  36  37  34  33  31  37  53  72  95 100 108 114 126 125 145 153 160 180 160 110  95  98 107 103  99  99 109 104 115 125 129 124 116 112 115 118 126 130 124 120 120 120 119 121 121 128 120 113 109 106 117 105  97 134 132 164 166 128 106 110 102  88  48  25  26  27  26  26  25  26  26  27  27  29  32  34  35  35
  39  39  39  38  38  38  37  38  37  38  37  37  37  37  37  37  34  33  32  34  45  62  86  92 107 117 113 111 122 141 154 182 163 125 105 103 104 102 113 108 116 114 122 117 119 128 134 137 138 136 134 137 148 157 163 162 159 158 166 174 167 159 161 156 163 138 119 151 146 151 153 125  97 102  99  85  40  22  25  27  26  26  25  26  26  26  27  30  32  34  36  35
  39  39  39  38  38  38  38  38  37  37  37  37  37  37  37  37  36  35  34  31  51  73  72  88 107 113 114 109 109 128 143 170 165 151 115  99 121 141 156 166 172 168 168 160 159 165 167 175 180 180 180 178 181 180 178 173 169 171 179 179 187 193 191 188 179 156 128 155 157 140 128 106  94 100  98  74  43  22  24  25  26  26  25  26  26  26  27  31  33  34  35  35
  39  39  39  39  38  38  38  38  38  38  38  37  36  36  37  37  37  37  35  22 142 126  49  83 109 110 112  98 106 111 125 158 168 168 119 110 153 191 192 194 190 183 175 171 170 169 171 172 175 180 186 181 185 179 179 180 177 183 185 180 188 196 194 188 176 165 125 142 165 131 112 106 102 106  87  55  32  23  24  25  26  26  25  26  26  27  27  30  33  33  34  35
  38  38  37  39  38  38  38  38  38  38  39  37  36  36  36  37  36  36  33  42 212 157  61  68  96 108 111  93 105  93 114 144 157 162 131 120 173 193 191 193 188 187 185 180 175 163 171 171 176 179 182 178 170 169 170 176 182 190 184 175 188 192 187 180 174 164 130 133 162 121 103 108 103  96  72 112  42  22  25  25  26  26  26  26  26  27  27  30  34  34  35  35
  38  38  40  40  39  39  38  39  37  37  36  36  37  36  36  35  35  35  27  72 235 174  87  53  78 100  98  95  90  93 114 127 140 153 125 126 174 172 183 188 185 183 180 177 178 171 174 171 167 158 144 143 143 139 158 171 177 178 177 176 176 176 176 177 161 146 131 127 144 116 104 105 105  78  51 171 103  14  26  25  26  26  26  26  26  28  27  30  33  34  35  35
  38  38  39  40  41  39  38  38  38  36  35  36  36  36  36  35  35  37  26  96 243 207 123  67  60  94  97  95  89  91 115 109 131 149 118 116 156 167 178 181 179 175 178 170 168 160 163 153 148 137 125 144 148 122 142 146 160 168 178 181 176 168 168 170 156 134 116 112 126 112  94  84  87  61  62 190 161  15  25  26  26  26  26  26  26  27  27  30  33  34  35  35
  38  38  39  39  39  39  38  38  38  38  37  37  36  37  36  35  36  36  21 126 237 236 177 122  52  72  79  87  93  90  95 101 117 134 104 127 141 155 171 179 177 173 179 167 165 163 147 123 107 105 119 136 132 116 125 142 157 174 182 182 177 174 170 164 163 138 105  92  93 100  75  71  57  55  99 214 198  31  21  25  25  25  25  24  25  26  28  31  33  34  34  35
  38  38  38  38  38  38  38  38  38  38  38  36  38  36  36  35  36  34  23 156 230 240 224 163  85  50  55  85  93  88  82  90 102 111 108 136 130 137 160 175 175 172 174 171 174 168 161 129 111 121 126 154 143 148 164 176 180 184 185 177 176 175 166 168 158 120  96  82  81  93  72  60  53  83 148 225 220  73  15  25  25  25  24  25  25  26  29  32  34  34  34  35
  38  38  37  37  37  38  37  38  39  38  38  36  36  37  36  35  35  31  26 174 227 235 250 215 151  71  43  71  80  80  92  94 101  95 118 131 127 129 149 168 170 173 180 182 182 180 181 168 178 175 157 173 195 188 206 195 196 195 190 181 180 171 167 161 132  99  93  68  77  90  64  47  82 125 183 233 224 146  19  24  25  25  24  25  27  27  30  32  34  34  35  35
  38  38  37  38  38  38  38  37  38  39  38  36  35  35  35  33  35  32  29 181 227 230 244 249 214 138  54  47  66  76  93  88 100 119 110 101 128 128 142 160 178 185 189 194 194 193 194 196 199 203 186 191 201 192 205 201 197 198 197 192 180 170 164 136 114  82  70  54  69  75  58  73 119 147 208 231 217 205  56  16  25  26  25  25  26  28  29  31  34  34  35  36
  38  38  37  38  38  39  39  39  40  41  40  37  35  35  36  31  33  33  35 182 227 232 240 247 248 214 112  41  42  61  77  80  96 108  83  88  93 112 125 134 170 183 180 194 200 199 197 193 195 202 194 201 199 188 199 194 191 198 196 192 170 168 137 104  84  65  52  62  68  43  61 121 147 155 222 227 211 222 130  14  24  26  25  25  27  28  29  31  34  34  34  34
  38  39  39  39  39  39  37  38  39  41  40  38  37  35  33  31  34  32  38 180 227 233 238 243 245 248 208 112  52  42  62  69  83  78  66  88  65  79  93 114 142 164 175 182 193 196 196 191 189 197 187 195 203 197 196 186 190 196 186 168 150 154 115  65  58  43  49  59  46  52 106 151 147 181 235 223 213 220 201  45  18  25  25  25  26  29  31  32  33  35  35  34
  38  39  39  39  38  37  37  37  38  39  38  39  37  33  33  33  33  33  33 168 227 234 238 240 244 247 249 212 117  59  45  58  64  54  55  59  51  64  74  84 114 135 152 172 177 187 180 185 182 191 190 191 189 186 189 178 179 180 168 138 126 118  97  53  32  37  49  45  58 111 152 163 149 214 230 218 217 219 231 119  12  25  26  25  26  29  32  33  34  35  35  33
  38  38  39  40  39  38  37  36  37  38  36  36  34  35  33  31  31  34  27 153 229 233 237 239 241 243 245 249 207 126  65  44  44  45  44  37  38  46  56  70  93 105 136 149 142 157 156 178 178 176 181 174 174 176 179 173 163 146 134 114  99  86  70  49  34  38  40  58 119 160 169 150 181 234 223 218 222 226 236 197  36  20  25  25  26  28  31  30  32  31  34  35
  38  38  39  42  40  38  37  36  37  37  34  34  34  33  32  31  32  36  22 123 227 230 237 240 241 243 244 246 247 218 129  66  53  45  47  39  32  33  40  64  93  97 107 104 118 138 147 154 159 159 165 146 162 169 156 153 153 131 103  85  78  55  39  35  34  38  67 113 158 169 161 156 224 232 222 222 227 231 235 235  91  13  25  26  27  27  30  40  57  75  88  94
  38  39  39  38  38  38  37  36  38  35  32  34  34  31  32  32  33  35  24  88 224 229 237 240 242 243 243 244 244 246 222 147  91  63  49  45  40  29  33  41  62  74  92  91 112 125 124 119 140 157 148 138 138 149 139 136 129 111  87  83  54  37  35  36  41  57 113 161 171 169 149 203 238 229 224 227 230 235 238 246 156  15  25  25  26  40  73 112 142 162 174 178
  37  38  38  37  37  37  37  37  36  35  35  34  32  32  32  32  32  33  29  52 202 228 234 238 242 244 244 243 244 245 250 241 181 126  88  64  45  34  39  29  38  53  74  77  88 102 108  94 115 137 140 148 121 131 135 118 103  72  69  71  49  33  39  45  80 119 153 168 166 146 179 237 238 229 228 233 234 238 240 243 206  43  19  28  58 109 155 184 197 204 210 212
  38  37  38  39  38  38  37  37  35  35  34  33  33  32  32  32  33  34  34  27 163 232 233 238 242 245 245 245 244 244 246 247 247 218 160 114  76  48  44  46  33  38  39  57  83  78 109  89  90 103 123 117 113 113 112  96  81  54  53  42  39  31  55 100 140 165 166 166 147 163 234 245 237 232 234 235 236 240 242 243 238 108  13  74 134 175 199 207 207 207 210 215
  38  38  38  39  37  37  36  36  36  37  36  35  34  34  33  30  32  34  34  20 105 228 229 235 240 243 246 246 244 242 243 244 246 247 237 197 132  94  75  54  42  41  37  54  63  66  75  69  72  87  96  69  81  80  79  63  56  47  48  42  45  70 116 152 165 166 167 152 146 225 248 241 234 234 235 236 237 240 244 242 238 185  26  76 178 208 205 207 207 206 208 212
  40  40  38  38  38  38  38  38  38  39  36  34  34  33  33  34  34  32  34  28  54 207 231 235 239 243 246 246 245 243 244 244 244 244 246 244 211 161 115  84  77  57  52  55  59  55  60  68  62  70  68  55  61  61  60  47  52  50  52  78  96 130 155 160 164 168 154 137 208 250 243 235 233 237 237 237 238 242 244 244 238 231  78   9  75 173 214 208 206 207 207 210
  42  39  39  37  40  41  39  40  38  38  37  37  37  35  35  35  35  33  35  34  31 163 229 232 238 242 245 247 246 246 246 246 245 244 244 244 246 232 176 136 128 105  88  79  74  61  68  65  59  60  58  48  49  48  53  57  69  89 107 131 145 155 158 161 163 154 129 195 250 244 237 235 237 238 236 239 240 242 244 244 241 244 126   7  12  31 120 203 210 202 200 198
  39  38  38  40  40  41  38  39  38  35  37  37  37  38  36  37  37  37  36  36  23  98 221 230 237 241 244 246 246 246 246 246 245 245 245 244 244 245 242 210 170 147 138 131 115 100 108  99  81  82  80  83  82  94 105 115 129 146 147 150 155 164 162 164 157 139 192 248 246 241 237 237 238 239 237 240 241 243 244 245 242 249 159   8  21  14  11  78 153 160 147 139
