P2
# Generated by OpenCV 4.2.0
92 112
255
 245 246 245 247 247 245 243 247 247 245 247 247 247 247 247 245 244 196 156 158 162 165 175 184 192 202 207 217 226 233 239 220 192  54  32  34  30  24  18  12  13   4   6  14  36  49  79  61  68  51  41  40  42  40  14 112  37 123 177 207 190 209 213 187 180 178 200 192 239 251 244 239 236 243 245 248 249 248 249 248 246 248 246 245 246 247 247 247 246 246 246 247
 242 244 245 246 247 246 247 246 246 246 246 246 244 247 246 247 244 185 161 159 159 160 158 159 159 160 160 160 131 110  70  30  25  19   9   6   4   6   7  11  16  17  29  34  39  42  15  20  33  35  20  15   8   9  17  13  41  86 114 213 149  96 202 237 232 231 220 217 227 212 239 249 248 248 246 247 247 246 248 247 249 249 249 249 249 248 247 247 247 245 248 247
 244 242 244 245 245 248 247 246 247 247 246 247 245 247 245 246 244 184 167 164 166 165 161 164 165 167 150  85  23  22  24  18  25   7   9   6   4   3   6   8   9   6  12  13  25  19  27  36  63  53  49  41  26  22  11  11  10  12  31  79 121  99 161 113 106 134 228 223 223 225 237 242 245 246 247 247 246 247 246 248 247 247 247 248 248 247 248 248 246 246 245 246
 240 242 243 245 247 247 247 247 246 246 248 247 249 249 249 247 240 201 195 187 180 172 171 171 174 121  34  12  17  12   7   7  15  22  24  12  11  16  18  13  16  15  13  10   7  24  37  24  26  23  24   1   8  13  11  12   5  12  17  16  47  42  29  40  40  36  41  73 206 220 230 245 248 245 244 245 243 246 247 246 246 246 247 248 247 246 249 248 247 248 247 247
 241 244 242 244 245 245 245 244 244 243 244 245 245 246 245 246 240 225 225 226 227 218 212 165  39  23  18  14  19  16  10   9   7   5  11  57  57  20  13   8   6  13  15  18  14  14  20  41  25  31  18  20  12   1  10   3  12  28  31  40  24   4  26  20  20  31  36  34  29  61 199 241 242 248 248 244 246 247 249 247 249 248 248 248 248 246 246 247 247 247 248 248
 244 244 242 244 244 245 246 244 244 244 245 245 246 247 245 248 243 223 220 220 231 205  77   8  10  11  12   8   7   7  13  17  17  16   6   7  16  15  11   8   6   6   8  13  11  16  14  15  19  26  24  32  38  44  34  42  36  43  20   9  17  10  21  11  16  27  25  34  35  53  41 102 187 202 208 223 228 234 238 241 244 247 246 246 249 249 246 246 247 246 245 246
 244 243 242 241 245 246 246 244 243 243 245 246 247 247 246 249 232 202 212 184  68  18  11   6  10   7   7   7   8   3  15  21  21  40  56  57  26  13  11  10  11   7   3   2   7  19  14  14  13  18  29  36  48  59  67  54  66  70  45  29  11   2   3   5  12  11  14  24  34  19  46  53  45 149 149 158 162 164 168 172 180 190 198 206 213 221 230 236 240 242 245 246
 244 244 244 242 244 245 245 246 243 244 244 246 248 248 246 245 227 159 102  22  16   9   8   2   6   5   9  17  20  31  40  42  45  41  31  16  15  13   7   9   7   7   9  10   7   6   7  10  12  19  12  21  29  21  32  33  36  41  30  35  36  35  29  21  13  19  10   4   7  24  22  34  44  29 153 160 157 156 154 154 155 159 157 157 158 160 159 162 168 174 181 192
 244 243 245 243 244 244 243 243 244 245 247 246 247 247 246 249 213 130  23   7   7   7   6   5   7  16  17  23  21  24  27  21  16  14   8  12  18  23  14  18  12   7   6   8   7   7   9   7  12  15  10  11  13  27  42  47  39  46  64  44  40  26  27  39  25  17  25  12   8   6  16  23  23  45  62 156 158 196 193 182 157 154 159 156 151 150 149 149 149 154 155 153
 246 245 246 243 242 244 244 242 245 245 247 245 247 246 247 246 183  22  11  15   8   6   4   9  13  20  29  25  32  38  19  15  19  19  14   5  12  10   6   6   7   8  12  12  13  17  18  15  18  20  29  14  11   9   6  14  30  65  39  39  34  29  25  18  27  35  18  17  11   9   8  10  19  32  41  96 177 238 246 239 162 209 235 231 226 218 209 200 188 178 168 161
 244 245 245 246 244 243 244 244 245 245 247 248 246 247 242 217  17  19  14   4   4  11   7  12  12  15  13  20  17  10  14  11  13  12  10   4   7   4   5   7   8   5   3  12  16  14  22  25  39  38  32  29  25  20  19  13  14  24   9  10  26  27  25  20  11  19  27  18  19  13  15  26  18  30  45  48 159 242 249 237 204 232 245 245 244 243 244 244 243 242 239 239
 243 245 246 246 244 243 244 245 245 247 246 247 245 247 242  22  23  17  22  15  14  14   8  14  10  11   9  12   6   8   6   3   4   9   5   7   5   2   4   8   3   4  13  21  33  35  51  40  27  30  18  29  17  23  30  32  26   7  21  10   8  15  12   7  19  15  12  28  19  12  17  13  19  23  27  54 122 168 243 241 227 230 242 240 244 244 243 245 240 247 242 245
 244 245 246 246 244 243 244 245 246 247 246 245 242 252  13  23  11  13   7   2   4   7   5  11   8   5   3   2   5   4   3   4   4   2   3   5   7   4  12  32  45  52  48  32  30  28  32  29  28  22  12  19  17  52  37  16   9  21  14  16  13  12  14  23  15  11  18  14  24  20  10  20  18  30  24  53  50 170 234 231 217 220 222 225 225 244 242 243 234 233 234 234
 245 246 246 246 242 242 243 245 248 248 249 244 240 143  27   8  11   9   8   4   5   8   4   6   3   1   3   2   2   2   2   1   1   1  12  17  18  33  45  62  35  34  30  11  22  18  25  23  16  17  15   8  21  12   7   8   5   4  13  23  15  20  12  16  26  18  10   9  15  29  25  22  19  37  34  13  67 136 164 213 164 169 175 183 201 242 246 242 220 208 215 218
 245 244 246 244 240 242 244 246 246 246 248 233 224  29  10   9  15  22  11   5   4   6   5   8   2   3   3   1   1   1   3   4  11  11   2   3  12  34  40  46  42  30  22  48  49  40  31  18  21  17  12  11   7   2   4   3   2   7  13  11  11  16  21   4  21   8  13   5  11  19  27  25  24  23  48  32  32  84 149 210 153 155 162 157 185 240 239 239 184 161 164 166
 246 245 245 242 242 245 246 245 247 246 245 237   5  12  12  22  22  10   5   8   5   3   4   9   5   3   2   2   1   3   3   5   6  11  19  13  33  33  32  21  13  30  64  40  43  52  41  31  23  15  10   8   8   5   2   2   8   4   6   3   3   5  10  40   8  26   7  13  12  17  22  27  22  24  41  54  41  47 133 175 149 154 162 161 190 241 242 236 173 156 156 156
 247 246 242 243 244 244 247 247 247 246 241 174  49  19  13  28  18   8   5   4   4   3   2   2   4   3   2   2   2   4   7   6   4   6  12  19  15  19  26  29  36  49  96  81  53  36  23  19  20  25  19  17   9   7   5   3   4   4   3   0   1   2   6   2  42  21   8  14  17  10  21  23  17  23  41  46  62  40  73 171 133 158 155 158 194 243 243 234 167 155 158 160
 248 246 244 243 245 246 247 246 247 247 247  11  35  12  21  15   7   8   6   5   2   4   3   3   3   3   3   3   3   5   4   4   4   3   4   4   6  10  18  27  34  54  77  90 101  83  67  51  43  27  27  36  43  33  27  25  10   5   2   3   1   1   2   3  14  20  26  24  20  12  16  19  17  32  43  37  49  36  31 100 125 147 152 150 200 243 243 232 160 154 156 157
 247 246 245 245 245 247 247 248 247 244 217   7  11  11  22  14   4   3   4   2   7   4   3   5   4   3   3   1   1   2   1   1   1   4   3   2   4   6   9  14  20  23  29  40  50  62  54  26  34  33  45  48  36  33  38  34  35  22  12   2   2   3   2   7   2  31  23  30  21  15  15  20  40  53  41  28  40  38  45  95  59  98 155 152 214 244 245 228 152 151 153 155
 247 245 246 246 245 247 246 246 247 247 118  31  16   9  22  15   4   3   3   2   2   2   7   9   7   2   3   3   2   2   2   2   1   3   3   3   4   6   5   3  13  18  18  12  11  24  24  39  33  62  47  32  16   8  11  21  16   9   7   8   4   3   5   4   6  15  23  21  24  14  18  23  29  36  53  21  43  35  19  30  94  71  92 159 220 246 244 224 149 153 152 153
 246 244 247 246 246 246 246 246 235 224  41  19   5  13  13  14   5   2   4   4   5   6   5   4   8   6   1   2   2   2   1   1   2   3   5   7   6   9  12  13  13  15  24  29  30  46  69  59  55  46  24  30   9   8  14   9   7   9   4   2   4   4   5   5   7  12  28  30  24  16  30  27  38  17  42  54  23  33  23  15  31  71  59 157 225 245 243 217 147 152 146 151
 246 244 247 248 248 247 246 240 238 212  32  22  13   8  16  16   5   1   2   2   4   4   4   8   6  10  10   6   2   1   2   2   2   4   5   6   6   9  16  20  35  40  41  43  42  53  71  55  34  20  22  11  21  18  19   5   4   4   5   6   4   7   4   4  11  17  32  27  21  25  38  33  43  41  23  59  39  26  21  28  23  77  67 161 232 247 247 211 150 156 154 153
 246 244 246 247 247 247 246 247 242  98  17  26  10  14   5  12  11   4   2   3   3   4   4   6   7   7   7   8  11  12  17  18  17  26  31  25  17  17  11  11  14  19  34  54  62  67  47  35  26  16  16   2   2   4   3  11  11   8   7   5   4   7   8   4  12  17  27  28  18  33  25  35  46  35  27  25  28  18  20  11  28  38  72 167 238 245 244 198 153 151 155 152
 246 245 247 247 247 247 247 244 219   1  16  21  10   9  10   7  11   8   5   3   3   2   4   4   4   7   5   4   4   5   6  10  17  24  22  33  36  29  25  18   2   5  13  14  14  36  60  22  26  13   6  10   4   8  10   9  13  12  12   8   8   4   8   7  11  17  28  21  25  39  16  44  45  47  24  15  15  14  22  17  14  23  51 161 236 244 237 174 155 149 150 153
 244 245 244 247 247 247 247 244 146  28  15  11   9   6  10  10   5   9   8   2   1   3   3   3   4   5   5   7   7   9  12  14  18  18  28  37  27  26  22  20  23  12   1  19  40  19   2  26  24  17   7   8   4   5  22  21  25  21  17  10   8   5   7   7  11  19  31  27  32  31  47  42  30  29  23  17  14  14  13  20   9  13  42 112 168 178 176 153 150 151 151 150
 243 244 245 245 247 247 246 239  28  25  16   7   4   6   7   9   3   8  11   8   5   3   3   3   3   2   4   5   8   7   7   9  12  24  32  35  39  37  28  43  35  20  20  13  11  79  42  27  10   6  12   7   8   7  10  36  34  32  21  13  11   9   7   7  13  32  22  40  41  35  31  35  50  25  23  11   7  10   7  14  20  25  35 144 168 169 161 159 152 149 153 150
 246 245 245 244 243 247 243 205  31  22  11   9   4   1   5   9   8   4   3   3   5   4   2   2   2   3   3   5   6   9  10  20  22  30  38  51  60  51  63  64  40  42  38   2  12  10  53  28  28  20  16   9  11  16  22  23  37  36  28  18  17  13  14  15  25  19  39  38  48  41  24  23  19  12  11  10   3   7   7  11  14  17  21 149 220 222 222 221 219 217 211 203
 245 244 245 247 247 245 247 203  19  17  11   6   6   4   2   2  11   7   4   6   6   6   4   6   6   9  10  12  13  12  18  22  26  35  40  44  73  68  41  31  25  22  28  30   9  17  20  43  16  27  32  41  28  38  34  62  65  57  30  25  21  24  24  26  32  47  35  36  35  40  30  16   9   6   5   3   4   7  12  17  13  25  36 105 219 240 238 236 233 230 228 222
 245 244 246 245 247 245 242 150  33  12  13   4   2   2   4   1   7  11   5   3   4   6   7   8   7  11  13  13  15  20  20  15  22  32  43  51  62  67  54  38  30  18  17  18  22   9  25  28  35  31  39  75  58  49  71  92  83  55  50  33  34  40  35  38  42  34  41  54  44  46  33  26  14  12   7   3   8   8  10  10  19  23  31  57 246 243 247 248 247 247 246 245
 245 245 245 244 243 246 244 139  32  15  13  11   5   3   2   4   7   7   5   4   4   6   5  18  27  19  28  25  23  30  31  45  38  29  34  43  55  73  69  58  41  40  36  26  25  30  28  32  48  52  48  75  91 111 112 110 109  89  65  77  77  74  64  66  66  68  64  65  52  52  60  36  31  21   8   6   8   8  11  13  22  30  30  66 245 243 246 246 246 247 245 244
 245 245 245 245 243 246 242  32   9   6  13   8   8   4   4   5   8   4   4   6   6   7  11  14  24  35  51  56  55  60  61  56  61  74  59  49  45  75  61  21  49  44  40  35  30  39  59  59  38  65 109 113 128 156 160 165 150 155 144 142 154 138 131 126 111  86  93  88  81  72  48  44  31  26  22  13  11   9  14  14  22  44  45 116 230 240 238 246 246 247 247 247
 245 245 245 246 243 242 232  58  16  23  13  10   8   4   4   4   4   4   4   7  17  27  34  35  57  69  73  79  91 101 100  99  93  95 121 133  97 100  86 120 103 124 115  75  70  50  59  75 117 125 128 140 156 163 181 192 196 190 196 196 186 188 177 164 163 157 147 131 108  97  83  58  40  33  26  16  13  14  16  27  27  25  16 204 224 227 242 247 247 246 247 247
 245 245 245 245 244 244 229   8  18  18  10  12   7   7   4   6   5   7  12  12  25  49  74  83 104 131 139 130 112 121 136 143 155 147 157 166 182 175 176 164 166 156 138 133 120 122 127 122  97 138 171 168 180 200 189 198 200 205 202 201 200 198 195 188 184 175 170 164 144 131 117  83  64  38  28  22  18  14  18  13  14  22  32 210 213 218 239 245 248 245 247 246
 245 245 246 245 244 247 207  58   7  16   9  12  10   7   6   6   5   6  14  25  34  48  73 118 149 163 166 169 170 158 163 154 167 177 189 187 189 191 182 194 197 196 189 178 174 160 147 142 165 138 176 169 187 197 199 203 204 199 203 202 202 197 195 187 182 183 176 172 162 151 142 110 102  58  24  20  19  23  15  24  21  33  43 206 208 211 225 244 248 248 247 246
 244 245 244 246 246 241 208  62  24  17   6  15   9   8   6   6   6   9  15  21  31  62 107 146 165 178 177 183 180 180 174 182 179 182 193 201 199 198 198 191 196 200 199 200 205 204 197 169 181 187 186 197 199 199 206 205 206 201 204 205 202 201 195 188 186 187 176 173 169 159 153 131 116  85  37  13  18  20  18  32  16  28  46 180 205 211 228 245 245 246 246 246
 245 245 245 243 243 243 224  65  18  17  12  17   5   9   9   4   6   5  10  23  45  76 137 165 170 179 180 185 186 181 184 191 190 197 200 198 200 201 195 198 190 181 185 193 193 191 188 190 198 197 202 201 200 201 206 205 203 204 201 201 205 199 196 192 193 188 178 171 168 163 158 140 123 104  55  17  10  29  24  19  19  43  41 191 202 208 223 242 247 245 246 246
 244 245 245 245 245 245 238  86  22  16  21  13   5   9  10   7   6   5  11  24  51  93 141 167 175 177 180 187 189 187 188 189 192 196 198 201 203 206 209 208 207 209 211 207 207 202 207 192 204 201 202 209 202 205 201 201 203 202 200 199 200 196 192 188 181 184 178 176 173 164 161 144 136 111  70  23  10  19  20  13  31  35  42 201 200 205 219 242 247 245 247 247
 245 245 245 245 245 244 231  80  19  17  18  12   6   7   8   6   8  10  15  29  56  94 139 164 179 178 181 186 190 187 189 192 194 197 199 204 206 209 208 206 208 210 205 205 205 208 204 204 207 207 210 204 206 206 201 201 203 203 203 202 198 195 196 196 190 182 176 172 165 164 159 152 137 107  73  33  10  11  33  21  28  32  56 203 201 200 216 241 247 247 247 247
 244 245 245 245 244 246 236 112  20  18  16  11   8   9   9   5   9  10  16  28  57 106 143 165 176 175 181 185 189 185 188 192 191 198 203 205 206 206 206 208 211 213 204 206 205 209 195 204 203 203 203 199 197 199 196 196 199 201 201 198 189 193 191 191 189 182 182 176 166 167 159 154 147 138  86  38  13  14  30  29  33  41  85 200 200 201 214 239 245 246 247 248
 246 245 245 244 244 245 228 165  22  19  20   9   9   9   8   9   6  10  20  42  73 112 154 175 172 177 178 181 182 182 186 190 191 196 199 204 206 207 204 206 210 208 210 212 209 208 197 203 199 199 200 200 202 202 202 203 206 202 196 200 197 192 190 191 188 183 179 173 167 167 159 150 153 141 107  46  23  11  14  27  38  43 100 202 197 203 215 238 247 246 247 247
 245 245 245 246 244 240 237 158  27  19  21  11  12   6  13   6   7  12  25  38  72 113 139 168 174 176 182 181 180 184 188 188 195 202 201 206 210 205 206 204 210 207 207 205 207 205 200 202 204 205 199 200 200 204 203 204 200 198 199 197 194 195 192 192 187 185 185 172 160 166 159 148 153 142 116  62  19  15  17  26  22  55  95 195 196 201 214 238 244 245 248 247
 245 245 245 245 244 246 234 165  17  20  18  12  12  11  13   7   7  13  18  36  59 106 141 163 175 180 180 180 180 185 189 194 195 199 196 198 196 194 198 191 196 198 203 205 200 192 184 193 195 194 196 196 194 192 192 194 190 189 188 187 184 183 184 184 190 179 179 174 170 163 163 151 150 143 125  83  33  15  19  33  29  37 153 200 201 201 217 240 245 246 247 247
 245 245 245 245 244 242 240 193  11  19  16  10   8  14  13  10   9  14  21  42  71 106 142 165 177 181 177 181 183 184 185 192 195 195 192 194 197 196 199 203 207 206 205 211 206 204 202 200 204 199 206 201 202 200 200 200 202 200 200 197 190 191 191 189 182 184 176 165 161 164 164 155 147 132 122 103  46  14  17  34  22  37 190 201 197 204 221 242 244 246 247 247
 245 244 245 244 244 246 248 209  28  17  18   7  11  12  12  10   9  14  24  42  61 107 134 164 174 182 181 176 182 185 188 193 195 200 204 203 198 193 199 203 203 205 200 204 204 204 206 206 204 202 206 203 206 201 202 197 193 199 197 193 198 190 195 189 181 183 176 172 166 161 163 156 148 136 131 102  52  22  23  38  33  62 200 196 199 203 230 243 246 248 247 247
 245 244 245 245 244 243 239 234  25  25  24  14  12  15  11  11   9  13  21  50  82  88 108 170 174 181 179 182 187 189 190 191 192 195 198 200 199 195 201 206 202 201 199 203 203 201 203 200 199 202 205 202 205 202 196 198 196 195 192 190 196 191 189 188 185 178 169 173 167 158 160 157 145 140 139 118  68  22  26  39  36  95 199 199 199 206 231 243 247 246 247 247
 245 245 245 245 245 243 247 240 110  26  24  12  12  12  10  15  11  18  30  40  76 118 144 163 168 178 181 186 187 191 189 189 191 193 194 197 201 201 203 204 207 207 203 203 199 200 201 199 198 201 202 206 204 204 200 201 202 202 202 202 192 183 185 177 182 179 180 172 165 159 162 154 149 139 135 119  81  23  30  34  38 138 200 196 202 204 233 243 247 246 247 247
 245 245 246 244 246 245 247 240 202  35  18  17  13  13  12  15  14  26  32  65  99 122 141 156 170 178 179 185 188 191 189 191 196 195 198 198 196 195 197 199 204 204 206 203 200 204 198 204 202 198 203 203 199 203 202 206 203 196 196 194 187 180 176 185 184 176 169 165 167 163 163 155 144 131 130 123 103  31  28  33  36 195 197 200 200 206 235 244 244 243 247 246
 245 245 245 244 246 245 244 242 242 164  23  15  11  15  15  15  14  34  69  85 106 123 142 146 162 171 176 184 189 190 189 185 192 195 194 187 190 192 196 203 203 202 204 199 197 202 205 198 198 204 204 203 204 203 202 194 197 194 193 193 190 178 175 185 178 169 160 159 169 162 159 153 135 131 126 125 109  33  24  40  41 202 198 199 200 208 237 244 245 244 246 245
 245 244 245 244 246 245 243 244 247 237  31  22  13  12  17  16  16  58 101 116 124 131 146 150 160 166 167 181 187 188 188 183 190 189 194 193 196 193 198 199 197 199 200 195 197 194 194 198 194 202 207 200 201 195 195 193 193 190 185 173 168 165 159 170 164 155 147 121 127 135 137 139 132 122 127 127 117  42  17  35  86 198 200 200 200 211 238 244 245 244 246 245
 246 244 245 244 245 244 247 244 234 238  37  25  17  13  15  18  23  80 118 131 134 136 140 144 157 157 165 174 179 180 185 189 186 189 194 190 187 183 161 176 164 159 173 170 180 182 183 192 195 199 206 196 197 191 180 174 168 152 127 130 126  99  91 118 129  98  80  70  75  91 112 119 120 117 119 128 118  49  22  38 121 200 199 198 199 212 240 243 243 244 245 244
 244 245 245 245 246 244 245 243 243 238 126  42  24  13  15  14  24  89 122 132 137 140 138 146 145 153 161 159 172 178 178 172 177 185 175 178 177 168 150 116  94 105 123 126 116 178 172 189 190 207 208 198 187 154 154 121 110 108  59  44  50  64  49  48  53  66  71  54  60  85  91  63  64  86 114 124 119  61  26  43 190 199 197 199 202 213 240 245 245 244 247 247
 245 245 245 245 247 244 243 224 150 143 147  28  22  26  21  14  33  97 125 131 134 140 141 143 150 139 142 156 158 142 126 148 145 140 154 148 137  87  55  71  60  64 111 118 115  86 160 184 197 201 202 194 175 138 105 129 132  82  67  69  57  77  73  69  54  66  55  58  58  47  50  53  49  54  85 118 122  81  26  34 164 177 200 198 201 218 241 246 245 245 245 245
 245 245 245 244 247 242 238 135 159 162 182 112  34  23  20  20  40  99 127 133 137 139 142 137 140 128 118 125  87  63 102  89  85  88  91  68  47  63  66  64  80  87  89 140 129 145 161 184 199 196 200 189 161 135 141 147 136 125  93  91  98  81  96 106 112 101 116 137 131 108 106  87  58  56  90 121 119  92  29  40 102 153 143 205 203 222 242 244 243 244 245 245
 245 245 245 246 240 243 174 144 152 175 188 176  43  19  18  22  46 108 132 138 138 137 140 130 114 103  68  38  64  71  76  67  63  77  67  67  81  82  77  90 123 116 124 148 160 140 162 185 186 194 198 184 171 181 144 158 140 144 138 119 119 137 140 157 163 147 155 158 157 152 142 125 114  83  76 117 126 111  28  40  78 153 145 173 204 229 245 246 245 247 245 245
 245 245 245 245 244 245 123 129  94 148 182 188 107  32  16  26  42 107 134 139 139 137 132 115  71  42  43  42  58  54  54  59  39  76 108 113 123 135 145 130 145 146 154 145 157 182 158 189 187 192 195 182 176 173 166 165 140 147 133 117 128 132 140 146 144 155 154 154 157 151 146 134 126 112  98 108 126 119  33  27  75 163 114 167 217 233 244 245 245 245 244 246
 245 243 243 242 241 249 141 121 138  89 145 185 160  18  25  26  52 115 138 138 143 138 116  88  80  69  99 101 106 114 139 145 157 153 147 148 141 119 115 119 119 135 146 167 157 158 170 195 192 189 197 191 176 178 162 154 134 117 108  95  85 102 119 103 110 106 113 131 140 139 142 135 129 121 111 125 122 130  47  34  65  88 107 182 216 239 245 244 245 247 244 245
 244 243 241 241 239 242 155 157 168 114 117 131 182  31  30  26  70 116 143 145 143 141 130 113 111 126 130 139 139 152 153 149 147 137 117 122 137 125 110  76  72  85 109 129 146 153 163 175 184 187 191 191 178 166 146 115 105 101  83 122 140 129  98  81 121 133 132 117 110 131 126 136 136 137 134 134 130 127  66  38  32  77 150 198 223 240 245 246 245 244 244 245
 245 243 245 243 239 247 151 156 169 136 164 128 132  51  25  30  67 117 146 146 143 142 142 139 131 134 133 128 125 127 137 118 107 132 129  86  60  86 109 130 129 113  90  95 109 134 149 168 178 188 187 188 171 146 112 111 101  91 141  86  49  23  29  43  14  39  50 102 120 107 141 140 142 133 137 135 136 125  79  29  38 102 170 206 233 242 245 243 245 244 244 244
 244 245 245 244 248 242 173 173 195 153 174 176 135  73  30  32  81 121 146 150 153 144 150 154 144 145 142 129 108 116 108 127  81  33  15  10  39  31 118  80  97 126 133 118 114 120 120 155 180 190 195 196 168 117 118 113 117 158  94 146  70  35  94  11  30 108  87  38  64 116 146 150 145 143 143 139 132 133  98  38  30 132 163 214 239 245 244 245 245 245 245 244
 245 245 245 244 241 242 215 180 177 163 177 180 120  78  35  37  73 117 149 150 155 153 151 166 160 155 148 149 168 139 104  42  54  56  35  14  33  38 135 194 123  94 115 153 148 115 137 136 174 194 194 195 161 121 117 123 174  99 169 188 127  45  39  55  22 137 112  92  71  76 116 143 146 155 149 147 140 128 100  48  26 135 157 215 241 243 244 245 245 245 245 245
 243 242 242 245 243 241 244 181 160 186 179 154 139 112  41  38  87 119 146 148 153 164 165 164 170 160 162 159 140 107  60  78  96 130  30  40  38  35 180 178 149 124 173 133 198 166 159 147 167 196 196 202 158 132 137 175 127 134 119 148 160 152 155 159 138 111 120 138 128 114 151 163 167 160 163 158 141 136 111  57  43 138 156 221 237 244 244 243 245 245 245 245
 243 243 240 241 245 248 242 177 159 198 178 166 174 165  40  32  95 118 138 150 159 165 167 175 174 164 157 160 156 159 146 136 145 119 130 136 164 160 144 142 137 156 162 164 197 200 172 162 164 195 200 201 168 139 156 183 181 178 159 152 158 181 189 155 145 160 158 148 147 156 164 173 171 175 170 160 143 136 120  62  49 144 162 220 229 238 241 244 245 245 245 245
 243 242 245 244 244 243 244 205 162 192 173 174 192 182  40  39 100 118 135 144 155 165 177 183 183 181 176 181 175 176 158 169 143 144 169 152 177 182 169 166 139 142 163 196 201 194 175 170 165 193 201 200 181 132 166 180 177 165 162 162 156 160 154 166 169 164 165 153 160 163 182 181 176 172 167 162 152 136 123  48  61 148 170 217 223 232 240 243 244 245 245 245
 243 242 245 244 244 244 242 224 151 206 187 198 225 190  26  45 105 121 128 148 157 171 172 180 188 181 181 184 181 174 176 155 164 166 158 171 172 160 138 141 155 163 186 191 181 193 185 167 167 188 205 204 179 136 164 179 169 188 172 181 181 166 151 145 149 150 163 175 187 184 182 180 176 176 169 163 155 141 130  49  70 148 167 207 207 217 233 241 242 245 245 245
 244 242 244 245 245 243 246 232 160 203 187 193 227 180  30  44 102 120 127 145 149 164 177 182 184 180 184 187 187 195 189 184 181 168 161 157 159 176 179 188 184 178 182 188 187 199 188 163 171 187 194 189 183 154 149 182 188 186 197 199 200 197 194 196 194 195 194 194 190 189 187 189 184 177 168 162 155 139 141  56  83 157 158 199 199 205 230 241 245 245 245 245
 244 243 242 243 243 244 247 229 154 197 177 182 218 175  58  47 100 120 124 138 150 161 174 181 183 179 187 192 192 192 195 192 192 190 194 195 191 196 201 197 196 197 191 190 194 194 182 161 171 185 198 194 192 163 138 168 191 192 186 198 204 204 201 197 194 195 188 187 193 188 189 189 182 176 167 166 151 140 144  57 101 169 158 193 196 200 226 242 244 245 245 245
 244 244 243 244 244 244 241 239 167 172 193 162 191 170  82  38 100 116 121 140 151 158 174 179 182 183 190 191 193 193 193 192 198 196 194 195 197 198 200 198 199 195 196 200 199 190 177 163 173 180 193 193 188 166 138 159 183 194 195 189 198 197 203 201 206 205 200 200 195 197 185 191 182 180 175 162 150 139 137  55 114 153 165 204 198 203 229 244 245 245 245 245
 244 243 244 244 244 243 242 236 171 160 176 168 177 147  93  41  84 117 117 132 144 153 166 177 191 192 186 191 195 197 194 195 196 200 204 205 202 198 195 194 202 201 203 202 192 185 171 166 170 181 198 193 189 168 135 152 174 192 197 195 193 197 203 202 201 199 203 200 194 189 191 185 178 178 170 161 148 140 132  57 134 150 174 199 199 206 233 243 245 245 245 245
 244 244 243 242 244 243 243 239 160 183 170 174 189 151  82  43  73 113 120 130 143 156 167 180 180 183 190 194 194 198 196 195 199 196 197 198 200 199 200 206 207 204 203 200 192 182 169 165 164 172 194 195 190 166 135 154 168 184 193 202 201 199 199 199 194 193 197 197 194 188 184 184 179 170 168 161 148 134 140  53 140 167 179 200 199 207 236 242 245 245 243 243
 244 244 244 244 244 243 238 242 162 178 165 184 199 194 109  37  58 103 116 124 138 151 164 178 180 185 182 188 191 195 199 197 198 188 191 198 198 202 202 205 206 205 201 196 187 178 167 166 167 172 188 192 191 167 138 150 166 179 192 199 200 197 199 198 196 198 195 187 190 192 187 176 173 171 163 158 146 135 129  74 150 158 182 198 199 211 237 242 245 245 244 244
 244 244 244 242 242 243 241 241 168 186 171 188 195 204 178  34  49  96 111 129 139 149 161 168 180 180 183 187 191 195 202 197 197 195 199 196 201 201 205 207 207 208 202 195 186 178 170 168 165 178 189 197 183 171 145 141 161 180 197 203 206 201 202 201 193 190 197 197 195 187 184 178 175 166 161 151 138 134 125  97 161 164 187 198 199 212 238 242 245 245 245 245
 244 243 242 242 242 242 243 243 156 183 192 195 197 202 191  46  47  81 108 115 132 150 159 166 176 180 181 186 190 191 194 197 199 196 198 199 200 203 201 202 202 208 199 192 185 175 165 165 168 178 190 190 180 174 150 138 150 171 191 201 206 203 207 204 197 195 196 195 190 185 179 175 170 160 157 148 137 126 110 128 174 168 188 195 198 214 239 242 243 243 245 245
 244 243 242 242 241 241 245 242 191 170 180 191 196 195 200  67  39  82  94 114 130 145 151 164 166 177 180 184 183 190 194 191 197 199 198 201 201 199 201 204 206 209 203 197 186 176 164 161 166 184 182 192 179 174 162 146 136 166 190 200 209 206 209 204 207 196 195 190 185 183 175 177 165 161 150 142 135 123 102 135 178 149 197 198 199 214 238 245 241 243 244 244
 243 243 244 242 243 243 240 237 246 149 164 178 182 191 192 108  38  67  96 113 124 138 153 157 163 169 175 183 185 189 195 199 200 205 203 203 207 204 208 206 207 208 206 198 178 164 156 156 169 171 189 191 184 179 169 152 138 149 189 199 211 209 211 205 207 199 194 191 191 184 174 171 161 154 144 140 122 115  85 146 152 166 200 196 199 217 240 243 240 242 243 243
 243 243 241 241 242 240 244 244 240 242 149 148 171 185 187 136  38  73  95 110 123 134 148 153 162 166 169 183 181 189 196 192 202 203 204 204 205 205 200 200 208 205 202 191 170 155 152 159 170 184 189 194 189 184 172 160 146 143 182 195 200 207 206 205 200 198 193 191 188 182 177 171 161 157 140 137 121 115  69 143 141 199 197 198 198 218 240 244 242 243 243 243
 243 243 241 241 242 243 241 244 243 245 234 187 130 164 176 131  49  63  86 100 116 127 145 149 153 164 172 176 187 190 188 191 196 200 204 205 205 203 198 193 196 195 194 178 158 156 150 162 167 182 191 197 198 191 179 166 150 147 161 192 196 196 200 203 196 199 195 192 186 179 178 168 160 154 138 130 124 120  58 145 193 195 200 200 198 217 240 244 242 243 242 242
 243 243 241 241 240 243 243 243 243 239 239 215 188 128 125 111  67  52  94  95 112 122 129 148 146 161 171 171 174 189 190 192 196 201 204 203 202 202 191 190 188 185 190 162 164 161 154 164 174 190 201 202 200 195 185 169 156 145 152 158 196 191 203 204 196 195 196 196 188 175 171 163 158 150 134 124 118 103 140 199 193 197 199 198 198 220 240 245 243 245 245 245
 243 243 243 243 243 243 243 242 243 242 234 214 192 202 203 196 153  54  93  83 102 115 121 138 149 154 165 173 177 181 185 186 194 197 198 199 196 194 189 184 185 191 187 157 169 163 155 169 182 189 196 203 203 195 188 171 157 137 147 139 188 196 193 200 198 193 189 196 182 181 166 164 153 149 134 119 109  88 190 196 201 200 199 197 199 219 241 245 243 245 245 245
 243 243 243 244 243 244 244 243 242 243 240 217 196 199 195 200 177  67  92  72  82  96 110 129 144 150 159 172 176 178 184 191 188 189 189 197 195 192 191 178 189 200 166 156 159 170 154 159 172 184 193 200 200 187 178 157 136 114  92 118 171 202 197 191 193 185 188 184 174 177 169 161 157 147 131 112 100  83 192 195 196 198 196 199 199 221 240 244 243 244 244 244
 243 243 243 243 244 244 245 244 243 242 239 218 199 195 198 197 179  85  86  71  87  97 109 130 134 136 157 164 173 178 186 187 189 194 192 189 189 181 183 185 206 199 168 129 102  78  94 134 156 169 182 193 191 180 164 130  93 100 140 129 188 197 203 192 186 186 182 179 182 172 171 160 156 144 125 118 111  99 179 196 197 197 199 199 200 222 243 243 244 245 245 245
 243 243 242 243 243 244 244 243 245 243 241 222 199 198 194 179 139  74  84  69  76  82 115 117 132 141 150 165 166 174 180 185 184 188 186 190 188 181 187 196 207 203 187 132 127 145 107  82 105 141 159 172 161 155 142 102  90 153 138 169 186 192 199 195 192 188 188 175 183 157 167 159 148 139 129 113  98 100 159 190 196 198 199 200 201 223 244 243 244 245 245 245
 243 243 244 244 244 244 243 244 244 245 241 225 201 197 187 157 107  82  92  91  61  87 110 123 135 136 153 164 165 169 176 179 187 182 186 188 181 175 195 199 202 201 189 189 175 152 146 142 114  93 131 140 124 131  96  86 135 164 180 180 188 187 195 199 194 185 178 181 177 175 168 152 147 137 123 103  79  92 142 180 198 194 197 199 202 226 244 244 244 245 245 245
 244 243 244 244 244 244 242 245 246 244 240 230 205 200 177 123  91  75  88  66  80  75 108 105 114 133 154 161 166 171 174 178 179 182 180 186 181 192 200 195 192 194 190 183 180 167 157 158 144 121 100  93  85  99 110 143 149 146 155 156 163 186 186 195 192 186 182 179 181 167 166 159 146 135 116 100  64  90 118 173 197 197 199 198 207 231 243 245 244 242 243 243
 240 243 244 244 244 244 243 245 244 245 242 231 213 199 172 109  90  71  75  82  60  77  77  98 123 122 149 151 153 171 174 176 180 181 180 184 185 196 193 195 194 185 182 174 164 160 166 178 157 140 136 130 136 141 147 138 146 121 136 131 147 173 175 181 190 187 181 177 168 165 158 151 138 122 111  95  66  77 102 152 190 199 197 201 215 235 243 244 245 244 244 244
 241 242 242 242 241 243 244 245 245 243 243 236 227 208 175 114  85  75  74  67  80  79  76  89 101 120 132 155 160 170 171 174 177 180 186 191 191 180 183 183 176 173 166 154 143 137 157 145 138 155 137 145 163 151 133 126 103 120 106 120 130 159 179 163 180 181 183 174 175 170 152 142 134 116 102  87  50  78  95 133 178 196 200 186 204 240 245 243 243 244 244 244
 242 243 243 244 242 245 246 245 243 244 244 241 231 218 178 130 106  90  63  87  74  51  77  80 107 127 143 145 159 159 167 173 179 180 190 189 162 158 160 167 174 166 138 146 147 106 126 128 152 128 148 143 153 138 113 147 115  94 112 112 120 140 127 152 125 168 160 176 166 164 151 135 127 114  87  73  72  84  90 111 160 195 206 164 198 239 240 245 242 242 243 242
 245 244 243 243 242 245 244 244 244 243 244 243 241 227 194 156 137 109  61  81  75  49  65  86 108 111 133 143 154 157 171 176 180 179 181 186 160 153 155 149 139 112 165 110 130 145 150 163 151 126 125 157 169 145 145 126 147 116 130 116 119 103  88 121 142 116 144 142 159 156 146 139 120  96  58  88  73  85  90  94 132 190 214 157 222 225 239 244 243 244 243 243
 242 243 243 243 242 245 245 245 244 244 244 242 238 228 208 186 165 148  73  67  63  61  88  63 102 108 128 136 144 155 173 178 173 168 158 147 144 144 140 137  99 110 145 117 133 160 139 149 157 163 119 180 191 171 122 149 147 118 120 123 113  79  85 121 113  95 127 132 130 141 156 125 110  91  97  87  68  89  84  89 117 192 225 142 234 226 226 242 242 242 243 243
 243 243 243 243 244 244 243 243 244 244 243 243 240 228 215 206 197 188 125  55  75  74  92  79 104 109 121 134 147 162 173 181 161 154 123 147 111 134 123  87 102 103 122 111 132 128 175 139 193 161 175 185 187 195 186 168 154 136 115 113 106  78  96  61 110 109 126 100 112 136 147 116  98  85  87  75  78  85  87  90 119 193 210 128 223 234 211 241 244 241 243 241
 243 243 242 243 243 243 243 243 243 243 245 241 235 224 219 218 214 211 202  55  70  82  66  87 104  92 125 131 151 159 171 158 141 141 139 105 114  89 111 101 119  88 110 130 132 159 171 153 160 179 182 189 186 184 182 153 151 144 117 125 113  88  91  65  99  98  74 110 131 132 136 126  94  73  70  82  80  90  87  91 122 197 197 125 177 241 212 229 243 241 243 241
 243 243 243 243 242 241 243 242 244 244 245 239 230 220 220 220 219 219 219 117  62  71  67  86  94 120 123 125 126 142 167 178 133 133 107 125 110  90  98  94 113 114 125 116 138 131 127 112 118 123 128 143 137 119 118 110 102  88  83  83  76  72  95  85 108 124 110 108 118 137 140 117  78  79  75  70  89  85  88  93 128 195 160 146 161 235 223 222 239 242 242 242
 243 243 243 243 244 245 242 242 244 243 243 236 227 219 215 217 219 219 226 139  51  53  72  85 100 114 113 100 122 135 169 172 147 135 123 102 115 117 134 123 112  94  87  80  86  87  91  96  90  83  83  76  78  90 104 102 109 114 121 119 135 132 144 158 177 159 171 149 153 127 129 108  69  83  72  74  89  89  91  94 139 197 129 171 173 215 237 212 237 241 240 244
 243 242 243 242 245 244 243 243 244 245 241 234 223 218 216 223 217 229  62 141  50  50  71  82  99 127  98  95 115 124 168 157 166 169 142 162 185 181 182 164 156 151 137 139 145 149 155 169 178 176 168 170 171 173 166 155 147 134 133 140 143 152 169 190 174 181 176 188 156 142 108 102  75  76  84  86  87  86  91  95 148 188 111 179 180 175 241 216 232 241 242 242
 244 243 243 242 245 244 243 243 245 244 238 230 221 220 221 214 220  19  50 150  94  48  59  84 101 115  93 102 108 116 134 167 170 176 179 188 194 192 202 191 173 159 158 159 157 159 149 149 170 161 172 160 166 164 156 154 150 149 146 150 158 160 185 176 169 170 162 174 152 121  80  73  89  69  69  88  87  90  90  97 155 168 103 176 188 165 231 229 220 242 241 243
 245 243 243 243 242 243 245 242 241 242 236 227 220 219 215 215  13  17 147 150 150  36  46  69  84  97  96  78 107  97 151 165 165 173 165 182 187 193 198 196 184 174 166 162 156 163 161 166 174 177 178 179 169 162 159 157 152 147 161 162 156 178 183 177 161 165 162 154 148 111  74  87  69  71  87  87  88  89  88 102 154 143 111 172 204 193 208 234 215 237 243 242
 245 243 243 243 243 243 245 244 242 243 234 226 221 218 227   9  29  31 171 164 186  67  39  46  78  91 102  88 108  93 128 150 158 169 156 162 179 186 193 191 188 180 174 170 174 174 172 166 160 155 143 136 137 137 142 165 161 169 152 159 161 175 168 164 161 153 145 144 131  83  76  72  78  72  87  88  87  89  90 104 155 117 117 169 205 228 183 242 217 229 240 242
 243 243 242 243 243 243 245 245 244 243 235 223 218 215 141  29  28 111 176 177 184 124  67  40  61  71  78  98  95  82 107 126 147 147 144 163 172 181 186 185 180 184 182 183 159 158 174 173 162 159 164 159 172 166 153 152 151 156 160 166 173 170 169 157 146 127 143 134 111  76  73  84  68  75  90  88  90  90  90 107 149 101 132 165 211 241 185 230 226 218 242 242
 244 244 243 243 243 246 245 244 245 243 233 224 220 210  15  31   1 146 176 194 190 203  93  41  46  53  73  97  94  94 100 132 138 148 151 164 165 171 181 182 181 182 185 181 176 162 147 150 132 143 152 160 153 150 142 163 168 175 171 169 165 163 159 147 136 139 122 110  99  85  76  72  67  55  82  90  86  90  95 114 141  93 140 166 218 238 216 200 241 215 235 243
 242 243 243 243 243 245 244 242 241 245 237 221 208  22  23  28   0 151 173 196 201 202 167  61  42  43  49  79  96  88  97 125 139 139 149 168 159 167 172 180 179 181 178 184 184 180 180 171 179 155 173 153 160 170 177 188 174 172 175 162 165 155 148 140 143 139 133  84  91  75  63  61  84  44  76  90  87  89  96 126 128  92 147 170 223 242 232 178 244 220 227 242
 243 243 243 243 242 245 244 245 246 239 237 182  18  32  22  27  23 154 179 205 212 216 206 134  81  29  32  60  64  88 104 117 136 122 166 161 157 160 163 183 182 181 183 185 182 185 184 192 195 196 174 189 175 180 181 177 185 177 170 152 155 150 133 142 125 115 112  84  82  67  52  75 103  40  68  88  90  90 100 137 115  98 149 180 228 241 239 193 223 232 211 237
 243 243 243 243 245 241 243 245 236 250 158  22  29  25  23  26  40 167 181 207 213 222 222 188 111  59  29  40  60  99  89 111 114 140 154 133 131 164 167 179 176 181 184 192 194 191 196 196 202 198 197 188 181 187 186 180 181 177 172 162 164 142 146 126 100  80  83  73  67  51  53  95 132  44  59  87  90  89 102 144 105 112 151 195 236 245 243 222 195 241 215 232
 243 243 244 242 241 240 244 243 243  75  30  25  25  22  25  27  21 165 184 202 217 228 223 218 215  96  50  34  44  80  78 111 115 102 103 130 138 163 158 160 187 181 181 190 195 196 184 188 197 199 199 196 196 185 186 187 181 176 180 165 153 140 128 101  74  64  39  64  45  57  43 144 148  71  46  82  87  94 119 148  93 120 156 207 237 242 243 239 177 237 223 194
 243 242 242 243 242 246 246 208   3  32  27  25  26  26  24  27   0 170 181 209 218 228 232 235 220 200  89  52  37  55  49  84 102  94 106  83 117 125 136 171 153 175 181 171 187 190 190 190 200 196 184 191 191 188 179 170 181 172 171 146 142 126 114  99  40  53  44  36  55  60 145 161 151  56  41  76  90 103 136 150  83 131 158 214 240 242 243 241 203 216 236 141
 243 240 245 244 243 249  88  18  24  29  25  26  25  23  27  26   1 176 181 209 218 226 235 244 238 216 200  96  53  50  43  49  64  64  66  76  80  97 130 132 139 164 173 170 175 175 176 190 191 189 171 185 193 186 183 168 163 166 141 145 101 130  63  55  40  42  42  48  62  62 192 159 151   6  27  62  89 113 156 138 108 138 159 221 242 240 244 240 232 188 213 146
 241 240 240 247 180   1  26  27  27  27  27  23  24  25  25  25  18 174 193 209 221 225 235 241 245 230 205 203 118  67  40  39  46  53  38  43  50  81  86  97 107 138 169 152 154 155 181 183 189 175 181 178 170 173 166 157 163 137 132 131  95  70  48  36  45  38  50  65  67 151 174 158 157  13  24  28  77 106 135 117 138 144 163 226 243 244 244 244 237 169 151 153
 251 248 171  54  21  28  25  26  27  26  27  25  23  26  26  26  22 145 187 211 221 227 234 239 244 244 230 215 207 150  67  53  47  45  32  36  51  40  93  93  89 114 130 130 150 140 153 161 175 170 162 176 169 152 167 149 143 112 106  98  78  64  39  24  30  41  60  85  96 176 170 159 154  18  13  39  70 142 193 206 177 133 164 226 240 242 244 245 241 209 152 166
   1   5  26  27  23  21  26  26  27  27  25  23  23  26  25  26  33 121 190 212 223 229 234 239 244 245 247 237 227 216 186  67  59  41  45  37  25  42  44  63  95  90  78 133 145 143 110 157 161 148 150 161 148 148 117 145 116 111  63  72  48  42  50  32  41  67  99  93 177 171 177 165 165  30  21  12  93 159 206 208 186 162 180 225 240 245 244 242 243 238 222 190
  14  17  26  25  26  25  27  26  27  27  24  24  24  25  26  27  28  48 194 213 222 230 234 241 243 248 247 247 239 234 217 204  96  74  47  35  41  36  24  47  60  76  89 101 118 101 108 141 128 141 149 128 142 140 100 118  84  80  67  33  27  77  35  27  75 111 114 167 194 179 174 177 171  42  21  12  45 210 208 215 211 209 211 231 237 244 243 245 243 241 235 221
  18  20  19  26  26  27  27  27  27  27  27  26  25  26  26  26  22  31 200 212 223 230 235 241 244 245 249 249 250 237 237 217 218 121  80  59  45  34  36  38  36  27  60  67  86  75  73 103 101 114 117 111  95  97  81  68  69  58  30  32  32  31  32  87 118 125 152 196 184 189 191 183 174  92  25  21  11  93 215 221 219 220 229 239 244 245 243 243 242 241 241 237
  18  23  24  24  25  26  23  24  23  27  27  25  26  26  26  26  28  20 204 211 222 230 235 242 243 247 247 249 250 247 243 241 234 215 158 100  79  61  34  51  38  44  38  47  53  54  59  63  57  65  76  66  60  51  51  46  26  40  33  42  28  36  83 124 128 144 207 201 199 208 192 184 174 113  20  23  13  29  10 204 219 222 234 241 244 243 243 244 244 243 239 241
  18  24  26  27  27  26  23  25  25  25  26  26  25  26  27  25  31  15 177 213 223 232 236 242 247 248 250 251 251 251 250 246 238 232 228 183 108 121  91  35  35  40  59  35  51  39  46  30  34  22  40  39  46  32  36  43  34  37  23  30  69 110 134 147 145 208 208 205 209 203 195 188 182 116  20  18  17  17  22  33 137 201 227 232 234 235 240 239 240 240 242 242
  22  26  26  26  27  27  24  26  25  27  27  25  27  27  26  28  23  20 158 208 219 229 236 244 248 249 250 251 250 249 248 246 249 246 240 222 211 124 126 114 104  55  43  40  35  39  34  29  31  23  27  30  30  30  36  38  35  43  80 100 122 139 135 139 209 216 213 214 212 204 201 191 183 146  18  26  21  16  16  28  23  64 160 171 183 199 204 209 213 219 224 227
