P2
# Generated by OpenCV 4.2.0
92 112
255
 178 178 178 178 179 176 143 102 104 133 202 214 172 159 174 177 178 179 178 178 179 181 178 145 119 132  45   2   1   0   1   0   2   3   0   5   2   2   1   1   3   2   1   1   0   0  11  21   8  17  24  25  16   2   0   1  30  28   4   3   3   6  11  16  43 107  63 118 160 146 133 177 191 181 166 140 164 180 180 182 180 179 185 188 190 191 191 191 191 190 189 187
 179 179 180 179 179 173 132  99 110 120 187 218 185 157 173 177 177 179 180 180 180 185 167 116  76  49   7   1   0   0   0   0   3   6   1   0   2   1   0   0   1   2   2   5   7   2   8  23  19  27  19  19  37  23   7   1   9  24  16  18  14  10  16  11  16  37  42  75  64  77  99 112 140 171 173 162 144 180 188 187 191 192 192 190 191 191 191 190 191 190 189 188
 179 180 180 180 181 167 118 100 119 117 170 220 200 161 170 177 178 180 180 182 193 161  72  17   1   0   1   1   2   2   5  12  24  26  32  23   5   3   1   1   0   2   3   5   6   3   4   5  11  20  25  24  33  45  42  33  23  24  32  37  37  28  27  13   5  18  13  15   8  20  20  19  35  78 153 188 166 170 184 181 185 189 191 194 192 190 191 191 191 191 190 189
 180 180 180 179 181 156 107 105 125 127 157 214 213 170 166 178 181 180 183 184 136  55   1   0   0   1   5   4   6   4   6  14  17  17  22  21   4   1   1   1   0   1   1   5   5   2   3   5   8  11  15  16  15  32  54  68  63  27  14  29  29  19  11   6   3   3   6   4   6   2   2   4   8   7  32 116 180 169 189 194 192 191 190 190 192 192 193 192 192 191 191 190
 182 181 180 181 179 142  99 110 130 142 150 202 221 182 161 178 181 183 183 137  59   7   0   1   4   5   6   7   5   4   9   8   2   3   5   2   1   0   0   0   1   2   2   1   1   0   0   1   3   8  14  18  13  14  23  34  53  53  27  13  10   0   0   1   1   1   5  15  18  11   1   1   6  10  15  27  97 165 189 197 194 195 195 194 191 194 194 193 192 192 191 190
 182 182 181 181 173 129  97 114 134 158 153 188 223 198 162 175 182 197 149  40   8   5   9  10   9   8   5   4   3   2   2   0   0   0   2   0   0   0   5  14  26  26  26  19  12   9   8   7   9  13  12  11  15  12  13  18  29  34  46  30   3   0   0   0   0   0   0   2   4   5   2   1   4   5   8  20  31  94 176 192 194 194 195 195 195 195 194 193 193 192 191 190
 182 182 183 183 166 116 101 120 140 169 163 175 220 213 168 167 183 143  42   4   6  12   7   4   3   4   2   0   0   0   0   2   7  14  19  30  32  33  46  52  52  47  41  30  24  29  32  27  19  10  11   6   2   2   6   8   7   7  14  24  21   3   1   1   0   1   0   0   0   0   0   1   3   0   3   8  24  50 137 195 195 195 196 197 195 194 194 194 194 193 192 191
 182 183 183 184 155 105 105 124 148 176 171 166 212 222 180 174 158  37   3   4   3   2   0   0   0   1   1   0   0   1   9  16  20  23  29  35  30  31  42  49  53  47  46  40  43  46  49  39  35  31  21  15   9   6   6   7  16  23   6   4  15  18   4   4   7   0   0   0   0   0   0   1   1   0   0   5  12  27  81 191 195 196 196 196 196 195 195 194 195 194 193 192
 183 184 184 180 140  98 111 130 155 180 179 163 199 228 198 164 124  23   1   1   0   0   0   1   0   0   1   1   1  15  26  20  28  34  37  41  51  53  41  34  29  25  18  20  21  16  23  23  26  40  48  33   9   9  15  12   4  32  42   9   3  20  32   5   3   3   0   1   0   0   0   4   0   0   0   2   7  16  36 109 197 197 194 197 197 196 195 195 195 195 194 193
 185 185 185 174 125  95 115 134 162 182 184 161 181 196 174 114  32   4   5   1   0   0   0   0   2   5   3   1   9  20  18  29  33  29  28  29  38  37  34  43  48  39  21  14  10   7   8   8   9  13  29  32  30  19  14  22  18   3  20  28   6   6  21  21   2   5   4   0   0   0   0   1   0   5   3   1   7  20  44  32 145 208 197 197 196 196 195 195 195 195 194 193
 184 185 185 165 112  98 118 140 169 184 187 168 139 144 117  23   4   1   2   1   0   0   0   2   5   3   1   3  13   9   4   6   9   8  15  22  39  67  76  69  63  42  41  31  24  20  15  10   6   5  11  10  29  46  17   4  25  20  17  28  13   2   9  21  17   6   6   1   0   0   0   1   2   8  17   6   5  19  40  44  67 194 200 197 197 196 195 195 195 195 194 194
 184 185 185 153  99 100 121 148 177 186 188 140  38  39  32   2   0   0   1   1   0   1   1   1   0   0   1   1   1   1   2   3   7  10  16  22  43  62  74  87  92  71  61  56  40  30  19  12   9   5   3   1   2  22  41  16   5  20  20  20  22   3   5  12  19  12  10   7   1   0   0   1   4   1   6   9   8  16  40  54  40 150 204 198 198 196 196 196 196 196 195 195
 182 185 178 135 110 117 127 157 181 188 152  36   1   1   0   0   0   0   0   0   0   0   0   0   0   0   0   0   0   0   0   1   1   5   9  14  19  23  33  52  54  48  47  47  46  30  22  19  12   2   1   1   0   0  19  32  11   7  21  11  14   8   4  10  17  11   5   6   3   2   1   0   0   7  13  16  16  15  27  43  34 131 203 198 198 197 196 196 196 196 195 195
 173 175 155 135 143 138 136 166 185 192 113   1   0   0   0   0   0   0   0   1   0   0   0   0   0   0   0   0   0   0   0   0   0   0   0   1   1   1   2   6   9  12  21  19  25  21  28  45  46  16   6   0   0   0   0  20  12  10  17  18   6  14   6   7  18  10   3   3   2   1   1   1   4  10  13  10  20  31  25  33  30 105 194 197 199 197 197 197 197 197 196 196
 163 167 161 154 146 129 139 171 189 192 104   2   0   0   0   0   0   0   0   1   0   0   0   0   0   0   0   0   0   0   0   0   0   0   1   1   2   3   4  11  16  14  27  28  19  25  34  38  45  44  16   4   1   0   0   6  12  10  16  20   7  17   9   7  18  12   2   1   1   3   3  10  13  11  19  22  20  32  31  45  39  45 175 200 196 199 197 198 197 197 196 196
 164 169 173 164 141 127 143 172 191 162  55   2   0   0   0   0   0   0   0   0   0   0   0   0   0   0   0   0   0   0   1   2   3   5   5   5  10  12  10  17  21  20  13  26  28  21  21  37  31  26  17   3   2   1   0   0   6  16  29  17   7  16   8  10  19  16   3   1   0   3   1   7  26  20  30  55  52  34  31  35  56  26 101 205 195 194 198 198 199 198 197 197
 177 177 176 170 159 152 156 170 183 166  38   1   0   1   2   0   0   0   0   0   0   0   1   0   0   0   3   6   5   2   0   2   6   7  10  10  12  15  21  34  39  50  33  20  17  16  14   9  11   4   3   2   1   2   0   0   3   8  21  28  11  12   8  10  16  15   6   3   2   4  20  30  39  26  34  50  47  26  21  23  50  44  32 162 204 194 195 198 197 198 198 198
 188 185 184 182 181 180 176 174 178 153  31   8   1   1   1   0   0   0   0   0   0   0   0   0   1   2   7  14  23  30  21   4   0   3   9  10  24  42  48  56  49  14  17  19  25  26  12   4   1   1   0   1   1   0   1   0   3   7  21  37  21  21   8  18  17  14  14   0   0   0   7  24  39  30  29  27  22  20  17   8  26  50  32  81 201 200 198 199 197 199 199 198
 189 188 188 189 190 190 183 171 163 127  28  17   8   1   0   0   0   0   0   0   0   0   0   1   1   3   6  14  28  31  24  20   3   3   5   4  17  47  67  58  48  29   5   0   0   4   6   7  11   5   1   1   1   0   2   2   3   9  29  35  25  19  12  30  14  18  16   7  11   5   1  12  24  13  21  19   7   9  26  18   7  25  39  34 165 203 198 199 198 199 199 199
 171 175 180 184 188 185 169 147 129  96  22  21  11   1   0   0   0   0   0   0   0   0   0   1   1   2   6  11  20  25  23  20  14   5   4  17  24  17  51  62  27   9   6   4   3   5   3   2  16  15   4   1   1   1   1   2   3  10  25  33  24  11  21  27   9  14   6   4  14  20   8  10  17  20  31  47   9   5   4  14  10  16  30  17 120 207 200 199 200 199 199 199
 130 135 144 154 161 154 128 101  88  51  17   8   6   7   2   0   0   0   0   0   0   1   1   3   4   8   9  11  15  25  30  35  43  26  11  19  33   4   5  38  36  10   4   2   1   6  18   6  12  31  13   1   2   2   2   2   7  10  22  29  14  16  30   9  10   7   5   6  22  47  53  40  21  19  29  58  13   5   6   9  11  13  25   8  98 206 200 201 201 200 199 199
 117 117 118 121 119  97  65  50  51  24   9  12   4   4   4   1   1   1   1   1   2   3   4   7  11  16  19  31  45  32  25  30  43  29  20  14  52  42  12   5  17  13   4   2   1   1  12  26  30  53  27   4   4   3   3   4   6  10  20  18  20  28  14  11  17  10   6  18  37  43  61  45  33  13   9  17   8   5   3   7  12  17  20  11  44 184 202 201 201 200 200 201
 134 130 126 123 106  63  29  23  31  22  10  17   7   2   2   1   1   1   1   1   3   5   6   9  13  17  21  28  50  63  48  45  60  47  15   3  22  48  24  11  11  10   3   4  14  13  13  38  63  57  24  15  14   7   4   6   9  15  11  14  30  23  13  19  34  21  19  22  43  55  56  24  10   5   3  10  12   4   3   2  10  15  17  14   6 137 211 201 201 200 200 201
 163 159 153 148 120  63  27  22  28  16   8  12   4   0   0   0   0   0   2   3   5   6   8  11  18  17  20  24  36  47  45  41  33  37  35  11   5  29  29  11  18  29  33  18  31  60  48  60  96  58  31  29  18  10  11  21  18  14  14  25  20  20  47  59  61  41  31  34  21  31  38  20   6   1   8  11   7   4   2   3   5  10  18  11   5  89 205 201 199 200 201 201
 186 184 182 176 139  78  45  40  34  19  11  10   4   2   0   0   0   2  16  23  18  30  27  23  36  29  24  30  50  56  56  57  45  18  24  19  12  16  27  22  24  45  90  78  61  99 110 127 101  62  52  37  31  30  32  33  22  20  29  23  21  28  39  68  80  50  27  28  25  11   4   2   1   5  10  13   7   3   2   2   5  15  25  21   6  74 196 204 200 201 201 201
 193 193 193 187 148  87  61  56  32  12   5   8   8   2   0   1   2   9  23  39  41  37  48  57  66  75  58  56  56  65  57  44  52  43  27  29  29  26  26  33  47  48  74 121 126 137 147 140 105  86  70  68  68  65  57  51  50  42  47  37  32  40  40  51  61  40  20  17   8   4   1   5   2   5   5   1   3   4   0   0   2   6  15  25  25  60 194 204 201 201 201 201
 190 183 175 164 125  70  52  51  31  14   5   8   4   1   1   9  23  44  53  59  62  68  71  78 102 117 129 123 102  93  96  79  66  58  45  38  43  52  64  66  71  98 107 125 156 180 179 147 136 137 127 129 125 121 109 101  86  71  68  63  49  39  41  54  61  50  37  20  10   3   1   3   1   1   4   5   2   3   1   1   2   8  15  15  27  28 155 211 201 202 202 202
 155 150 149 134  97  52  32  37  25  17   8   5   1   1   4  17  38  70  97 104  97 100 101 108 125 137 146 165 171 154 150 148 143 131 113  88  67  60  76 101 108 121 160 167 173 185 180 175 185 193 187 180 179 175 165 142 126 119 115 117 105  87  72  63  59  64  60  43  14   4   1   1   1   1   1   1   3   3   1   2   6  15  10  11  27  32 146 202 203 202 201 202
 142 156 158 131  88  44  24  28  24  16   7   3   1   3   7  20  55  98 121 128 135 130 123 126 131 143 156 158 173 179 177 176 177 171 160 153 146 134 114 128 145 156 173 186 187 188 189 189 202 203 206 207 206 204 198 186 179 176 171 167 153 137 124 112  86  68  59  56  42  23  22   6   0   1   1   2   4   3   1   1   5   5   2   5  21  26 143 193 203 202 202 202
 161 163 152 115  68  32  26  30  25  12   8   4   2   3   8  36  94 130 137 139 144 139 138 146 151 164 171 172 172 175 181 185 188 188 190 188 181 164 152 157 157 164 179 184 190 195 198 197 201 209 208 210 208 208 207 203 197 193 190 182 175 163 152 145 137 117  77  50  46  32  28  19   3   1   3   3   2   3   5   6   6   2   3   4  12  23 146 202 200 204 202 201
 149 151 144 108  62  31  32  35  20  13   7   1   1   2  13  56 118 134 137 145 147 142 149 159 169 177 179 179 179 170 171 178 185 187 185 183 176 172 188 189 186 187 191 190 204 206 205 207 203 207 206 205 204 204 200 197 198 199 197 193 190 181 170 158 147 136 129  88  50  29  13  12   8   2   2   5   7   0   3   5   2   4   5   6  17  17 113 206 200 204 203 204
 147 166 159 111  62  33  35  38  18  11   7   2   0   3  23  73 125 140 142 147 154 154 157 163 169 173 181 187 191 191 189 187 186 186 188 190 190 194 199 193 198 199 201 197 205 209 210 209 207 206 209 210 212 207 201 197 197 197 192 191 192 188 182 174 161 147 143 131  73  35  17   7   4   3   0   7   8   1   3   2   3  10  10   8  18  14  80 198 204 204 205 203
 173 187 165 104  56  32  37  38  15   8   5   1   1   4  31  88 132 141 145 152 159 159 160 167 174 183 189 192 195 196 197 205 206 204 203 200 199 200 199 201 203 204 207 202 203 204 203 204 200 197 201 203 204 203 206 202 201 201 194 191 192 188 187 184 173 158 150 145 117  47  21   8   4   3   4   7   3   3   6   4   3   7  11   8  14  14  77 189 207 204 204 205
 190 192 157  93  51  32  40  38  15   9   6   3   2  10  51 107 135 140 146 152 155 156 164 170 181 191 191 192 191 194 202 209 204 200 204 201 200 207 206 205 208 206 209 208 207 202 204 206 203 202 206 207 205 203 201 197 195 199 196 198 194 189 187 184 178 166 154 154 133  79  30  13   5   4   3   5   1   3  10   3   6   5  11  11  15  16  99 195 205 204 204 205
 196 190 147  84  44  32  43  36  17   9   5   1   2  21  66 116 140 141 147 151 155 159 166 173 183 188 190 192 191 196 203 206 200 203 205 200 199 203 200 200 202 202 202 205 206 201 202 206 206 208 207 207 207 208 207 203 197 195 194 194 192 194 187 188 180 176 158 147 134  99  55  19   7   3   1   1   2  13  14   7   6   7  12  15  18  12 117 205 204 204 204 204
 200 187 137  74  41  36  42  35  20  10   3   2   4  25  69 117 139 144 151 152 158 162 168 178 184 188 194 195 195 196 201 204 206 205 203 202 204 202 198 197 200 199 198 199 200 199 200 201 201 202 204 198 199 202 201 204 200 198 200 194 189 191 191 186 183 181 173 148 128 102  65  23  10   2   1   1  10  16   7   4   5  14  13  13  16  14 121 209 205 205 205 204
 201 182 122  65  37  42  44  37  24  12   4   4   5  23  73 118 141 148 152 156 159 166 174 180 186 188 191 188 191 190 196 199 205 201 199 201 207 203 204 205 202 202 201 203 203 202 206 207 205 205 207 206 203 204 202 202 198 199 197 195 191 193 191 184 183 186 180 166 136 105  62  24   8   4   1   2   9  14   8   3   7  17  17   8  15  17 134 212 205 204 205 204
 201 175 111  59  36  39  41  38  24  14   7   7   6  30  80 124 147 151 151 158 161 168 177 180 185 185 186 185 188 188 192 193 197 202 200 197 196 201 198 195 198 198 198 200 199 200 202 200 203 202 199 201 204 204 204 203 200 200 197 191 186 191 191 185 181 186 183 177 155 117  73  31   9   5   4   4   5   6   5   5   7  18  13  13  18  25 157 209 204 203 205 204
 200 168 105  58  34  39  41  38  29  16  10   7   9  40  78 123 148 152 155 160 164 168 175 181 188 190 187 187 192 197 197 191 195 206 205 205 203 201 199 198 197 194 196 199 197 199 200 197 197 197 194 195 195 195 197 201 199 196 198 195 190 190 189 184 180 187 185 177 165 128  81  38  12   4   3   4   4   6   9   7  11  12  10  21  24  73 193 206 204 204 205 202
 195 162 107  60  34  41  38  38  34  18  12   5  13  46  80 129 149 153 157 162 163 169 173 181 185 188 187 185 195 194 193 192 193 198 200 203 207 206 202 205 204 203 201 204 205 202 202 203 204 205 203 202 204 200 199 199 198 195 193 185 188 192 190 187 181 184 185 179 169 142  91  57  19   8   4   5   8   7   4   9   9  11  13  22  28 132 207 204 204 204 204 201
 190 159 112  61  35  42  37  37  35  19  15  11  17  59 106 131 144 152 159 164 165 168 173 178 184 188 187 188 194 195 194 196 195 198 198 200 202 200 200 203 207 202 205 204 202 202 198 203 201 204 206 204 204 207 204 200 199 196 193 190 189 191 192 189 184 181 179 173 168 156 110  56  23  10   9   8   7   4   8  11   9   8  13  18  30 138 213 204 205 205 205 200
 183 156 115  59  35  42  36  39  40  22  16  16  26  68 110 129 143 155 163 164 165 170 176 178 180 184 185 191 191 196 197 198 195 198 201 205 204 198 198 200 205 203 206 203 202 202 201 202 203 203 205 205 204 205 199 197 197 192 194 196 191 190 191 191 184 180 179 177 169 154 132  76  23  10  12  14   8   2  11  14   8  10   7  15  37 144 211 205 204 205 204 201
 179 153 118  59  37  42  35  40  47  27  14   9  32  82 113 128 139 151 159 165 166 168 176 179 176 177 182 185 190 192 194 198 194 198 203 205 207 201 197 201 202 198 201 201 204 206 209 209 210 210 206 198 200 198 197 199 199 198 196 195 192 188 189 189 185 182 184 183 178 161 135  98  45  16  14  16  10   4   7  12   7  11  12  16  33 145 207 205 204 205 204 199
 173 152 124  61  39  41  35  42  52  32  15   7  31  95 116 130 137 142 155 164 167 168 173 177 174 179 181 186 193 193 194 199 199 197 202 206 208 206 202 201 202 200 202 203 204 208 209 207 204 203 202 196 192 197 199 198 197 195 193 193 194 192 190 186 184 185 182 181 181 171 148 114  59  21  16  19  10   3   8  12   6   9  15  18  44 170 203 203 204 205 203 198
 169 155 129  63  40  39  35  43  52  36  18   5  33 104 116 123 132 137 150 160 168 171 171 178 177 176 176 180 187 188 191 194 194 197 199 201 208 205 206 204 203 203 197 199 203 203 205 205 203 198 200 197 194 198 197 191 191 187 185 190 190 188 190 189 187 183 176 176 173 171 159 135  85  25  19  17  12   4   6  12   8  11  16  21  54 194 207 203 203 206 203 201
 166 162 135  68  42  38  34  43  52  46  23   3  38 111 118 123 127 131 144 157 159 160 168 166 162 168 164 156 165 160 161 171 172 179 189 195 202 199 203 205 201 199 196 189 195 195 191 192 185 186 184 177 181 186 188 186 186 180 173 179 188 189 191 187 183 178 175 172 171 169 167 153 118  44  20  18  12   6   5   6   9  11  18  24  74 202 209 205 204 205 202 200
 155 163 140  75  47  38  37  45  44  42  26   5  47 111 118 123 118 118 130 120 121 134 140 146 153 154 138 111  86  91 110 123 122 140 179 192 196 198 202 208 200 189 180 177 170 164 156 150 132 137 131 122 125 143 160 159 147 144 138 139 153 165 178 182 173 170 169 165 167 168 168 159 137  75  28  20  11   7   3   6  11  14  25  18 120 211 208 205 205 205 202 199
 136 149 132  78  49  34  32  35  60  77  31   8  55 112 115 116 105  91  68  70  90 100 101 106 105  77  50  50  57  68  78 108 104 111 137 167 192 200 204 207 204 182 143 145 139 126 135  97  72  58  62  70  77  89 100 107  99  90  99 107 132 144 153 164 167 165 158 166 169 168 166 160 144  98  38  19  14   8   5   7  14  19  25  37 172 213 206 207 207 207 202 201
 128 132 119  78  42  27  19  56 131 115  21  11  65 116 114  97  65  37  40  64  62  70  70  58  45  39  58  72  88  81  72 106 122 122 133 159 182 197 204 207 195 173 140 123 133 136 129 102  88  79  85  83  80  85  84  84  86  83  83  76 101 128 120 118 131 146 156 161 169 168 162 157 148 116  44  20  16   9   6   7  12  29  16  81 210 208 206 206 207 206 200 202
 149 141 130  95  50  31  31 104 149 101  14  14  72 120 107  66  29  28  39  40  44  44  56  78  91  84  96 107 106 109 104 108 128 134 142 162 181 192 201 205 192 173 162 142 143 157 145 132 128 126 123 111 107 107 113 112 116 122 121 106  88  81  82  75  70  89 119 148 162 165 163 158 153 132  63  22  18  13   6   5  13  30  15 112 214 207 206 206 207 205 200 202
 178 170 156 122  73  41  47 115 126  90  18  11  80 121  92  51  43  63  70  81  91  90 118 144 147 145 143 142 133 129 135 136 138 147 150 160 176 188 196 200 192 186 190 166 158 164 161 162 161 149 147 149 160 166 169 170 168 175 183 173 153 133 130 117  83  72  86 124 150 163 165 160 157 137  70  33  21  18   8   6  24  35  21 140 217 206 207 207 207 204 200 204
 196 192 183 157 104  54  55 119 106  74  20  23  95 120  95  74  94 116 118 137 153 157 159 157 156 149 138 126 119 114 121 136 147 146 153 171 186 187 193 204 198 189 188 181 175 175 170 173 165 156 158 165 168 173 179 180 185 180 186 192 182 177 167 144 119  98 104 126 149 160 165 159 158 142  86  38  28  24  10   7  42  35  41 182 213 208 207 207 207 203 201 207
 199 199 197 182 134  75  69 143 146  76  14  34 106 118 115 104 112 125 131 138 144 148 147 135 127 129 136 140 128 106  91  97 124 140 145 164 178 184 193 202 202 193 189 183 176 171 166 157 150 142 133 129 132 134 142 157 174 179 181 185 185 177 174 167 158 133 111 114 144 164 165 163 164 147  96  46  31  22   9  14  63  17  76 199 212 209 207 207 207 203 203 209
 198 198 200 191 145  88  74 147 152  73  16  47 117 125 125 125 126 126 116 113 125 127 117 122 106  92  88 103 112 125 129 109  94 106 129 145 165 179 188 193 201 195 187 177 166 154 146 140 128 115 115 130 139 139 147 153 146 143 159 170 172 170 175 171 163 155 139 134 143 155 166 166 165 152 103  50  36  25  12  33  79  97 153 158 169 204 209 208 206 202 204 210
 198 200 201 188 143  89  71 141 160  82  25  54 124 128 129 135 133 138 126 127 126 106  87  58  47  18   9  14  19  42  99 127 125  98 101 114 148 174 192 196 202 194 180 163 153 143 139 135 126 130 139 128 120 105 112 133 139 141 138 138 155 163 165 168 166 165 156 154 153 167 167 163 163 154 118  54  29  28  13  76 169 190 185 169 152 167 208 208 206 202 204 209
 198 200 196 172 123  82  65 121 170  97  32  54 124 131 138 144 143 145 140 144 108  63  41  86 116  30  12  42  24  43 149 128 121 144 114 106 121 166 193 202 204 193 171 155 155 149 143 142 144 133  96 112 100  18  12  28  32  61 110 144 137 147 162 167 169 173 172 165 166 173 170 167 164 157 120  66  32  28  27 144 207 198 195 180 160 152 189 211 206 203 205 210
 199 199 184 138  91  72  64 104 167  99  31  69 127 135 146 151 143 140 139 122  92  80  83 120 152  62  23  11  19  83 202 180 128 132 151 116 116 151 191 201 207 190 158 161 157 150 160 158 127 114 134 192 113  13  38  25  16  51  74  82 135 147 163 168 172 172 170 174 176 175 173 168 161 157 124  70  35  22  68 186 204 195 167 134 138 141 175 213 207 203 207 211
 201 198 167 103  71  69  66  85 151 106  37  80 126 136 151 160 153 150 152 147 139 138 125 111 120 115  93  94  95 142 156 136 124 116 148 155 128 145 188 205 208 186 161 169 165 175 185 149 129 139 172 195 138  34  16  19  24 106 143  54  73 140 164 173 176 175 178 181 179 177 171 168 162 154 129  75  41  16  99 198 199 172 132 133 161 150 181 211 205 203 208 211
 202 196 153  85  67  69  68  73 141 115  39  84 124 138 153 163 163 162 168 161 150 149 143 144 137 131 159 169 186 172 153 147 152 160 176 176 138 145 188 203 207 186 168 179 180 198 183 159 145 132 144 161 168  99  78  83  89 125 130 124 109 128 155 166 174 178 184 182 181 178 173 165 161 153 134  86  49  25  96 189 167 174 164 150 175 172 190 210 204 203 210 211
 202 195 148  83  68  69  68  68 137 115  34  90 125 141 154 165 166 168 172 170 163 147 150 154 158 161 163 160 172 165 157 161 177 189 179 166 137 150 191 205 204 185 164 182 186 199 200 191 167 154 146 147 149 157 178 174 149 151 164 169 169 169 182 189 184 185 184 189 188 181 174 163 157 152 135  93  50  24 103 170 163 171 176 164 177 181 195 210 205 204 210 210
 200 195 152  87  69  68  67  71 147 122  37  93 124 142 162 168 164 174 180 189 188 180 166 154 151 149 147 149 152 159 168 171 185 185 168 164 135 158 190 201 201 187 163 178 190 193 191 185 170 159 155 162 166 172 188 193 182 182 181 180 183 190 197 197 192 192 192 192 187 178 171 166 156 145 140 101  54  28 107 150 195 191 177 161 175 186 200 209 204 204 210 210
 201 196 158  93  68  69  67  77 154 127  38  95 127 144 163 168 170 180 187 187 189 190 188 185 184 174 172 176 182 187 192 190 183 177 179 159 133 163 188 193 200 187 168 173 196 202 191 190 192 185 179 171 171 171 169 171 174 178 177 182 188 194 201 199 195 194 194 191 187 178 171 165 155 146 143 107  54  41 127 156 155 188 190 164 169 182 203 208 201 204 210 210
 200 198 168 104  70  69  65  90 157 121  39  97 128 142 164 173 175 179 186 187 189 190 192 193 190 187 191 196 198 196 196 189 181 185 178 146 138 169 190 197 200 187 171 171 189 204 205 196 199 204 205 203 202 194 185 181 183 187 195 202 201 202 202 201 199 197 194 189 187 181 174 163 152 147 145 101  42  56 155 173 177 191 200 178 166 182 206 207 202 206 210 210
 200 199 177 117  73  69  65 102 163 111  46  99 129 146 166 174 177 181 185 189 189 191 193 195 196 197 199 195 194 197 194 192 192 185 164 139 144 170 190 197 195 186 173 168 182 201 207 205 200 198 204 210 210 209 211 208 207 205 203 203 201 204 207 205 201 197 193 190 185 181 172 164 153 146 141  91  41  75 175 177 181 200 208 184 168 186 208 204 203 208 211 210
 200 200 185 132  76  68  65 113 169 107  52 100 130 149 164 170 176 180 185 189 189 194 196 194 197 199 199 196 199 203 201 198 193 180 153 136 142 173 194 195 193 181 170 172 182 198 207 210 207 201 200 204 209 207 208 208 206 199 200 203 204 203 208 206 201 198 194 192 183 176 171 160 152 144 140  90  43 104 199 215 187 202 212 185 169 191 208 204 203 209 210 209
 200 200 191 143  83  68  66 125 163 118  52 101 129 147 161 169 171 178 183 188 192 194 189 190 198 198 198 201 204 204 202 194 188 169 145 137 143 172 195 199 193 174 169 178 188 196 206 207 207 205 202 204 207 204 204 207 207 205 205 207 207 205 206 202 203 200 194 190 184 174 167 160 149 142 139  92  39 132 198 224 199 203 217 184 173 191 209 202 203 210 209 208
 198 200 195 152  88  68  71 145 165 141  57  95 128 145 159 169 172 179 183 187 191 192 189 194 197 198 201 204 204 205 201 192 181 160 144 137 150 178 196 198 192 173 169 175 183 196 202 208 211 208 208 207 205 204 203 201 203 205 202 201 202 206 201 199 201 200 196 186 181 175 164 161 147 139 133  82  45 152 201 207 201 201 215 183 171 194 211 202 204 210 210 208
 199 200 197 156  90  66  83 160 179 158  57  86 129 141 155 164 169 173 178 184 188 193 191 197 199 199 203 204 204 203 200 188 175 158 142 139 159 183 196 193 187 172 168 170 182 195 205 210 211 208 207 206 205 202 201 202 201 201 205 202 199 203 201 200 197 196 194 187 177 176 166 157 142 136 119  72  67 187 197 185 191 193 210 182 173 200 209 202 206 211 210 209
 200 201 197 153  87  66  85 159 179 155  70  85 124 139 151 159 168 170 177 184 188 192 196 198 200 201 203 205 204 204 203 189 175 155 138 146 167 186 189 188 184 170 166 165 180 193 202 212 213 211 209 206 207 200 200 207 203 201 203 205 206 200 199 198 194 193 190 184 177 172 164 154 141 133 103  50  98 204 168 162 177 197 198 175 179 206 207 201 205 210 208 208
 201 202 195 146  82  68  75 140 167 161  85  83 121 135 146 151 164 167 177 185 194 195 200 199 201 203 204 205 207 210 207 195 174 145 136 151 169 189 191 189 183 173 168 160 170 189 200 215 215 210 210 212 209 205 197 203 207 206 203 201 201 200 199 196 193 189 186 181 175 171 163 150 141 129  87  36 120 173 163 181 178 203 177 172 185 210 205 202 207 210 208 207
 203 203 192 136  77  70  69  96 142 157  91  72 116 129 141 149 162 170 176 180 189 198 200 201 202 203 204 205 210 212 209 198 166 133 139 161 178 190 194 191 186 174 168 161 161 180 199 212 211 209 210 209 208 207 206 204 203 203 202 200 195 194 192 191 190 187 181 176 170 168 157 145 137 115  65  51 135 162 187 195 183 182 181 175 191 211 204 202 209 210 208 207
 202 204 186 123  73  69  70  67  96 133  93  63 109 121 135 149 161 171 176 178 187 196 201 201 204 203 202 204 209 212 208 191 153 131 145 168 187 195 199 196 191 181 174 165 155 168 193 206 204 207 207 210 209 208 203 206 205 201 199 194 195 195 190 186 184 180 178 175 169 163 153 144 132  98  51  71 164 208 207 197 185 184 183 172 199 209 203 203 209 209 207 208
 202 204 180 112  72  71  71  70  70  98  88  55 101 114 134 149 157 166 176 181 187 195 202 203 204 204 199 203 206 205 205 179 140 133 154 175 192 200 204 205 197 187 181 170 158 160 182 200 199 200 202 205 207 208 204 206 205 204 200 194 195 193 186 183 179 177 172 167 161 156 149 136 119  76  55  89 193 216 204 198 198 197 175 173 208 207 203 205 211 209 208 208
 203 202 170 101  72  71  73  71  70  71  74  64  84 110 128 142 158 163 170 179 186 191 197 201 199 202 203 206 206 204 193 152 135 140 163 184 198 203 207 208 202 191 182 173 165 164 171 190 192 194 195 201 205 205 205 205 204 201 200 197 191 190 187 181 173 174 169 158 154 152 141 129 103  59  61 114 209 210 203 204 200 195 171 192 210 205 202 206 210 208 208 208
 204 199 159  91  71  72  72  71  71  71  72  64  71 102 124 140 156 162 173 182 185 189 191 196 202 206 211 205 203 208 170 142 139 148 165 182 195 204 205 211 205 193 184 177 174 175 170 178 192 191 192 201 201 201 206 207 207 202 199 197 192 186 188 179 169 170 167 160 151 149 138 120  93  64  66 139 215 200 196 196 200 179 173 207 207 204 201 206 210 208 207 207
 204 195 149  83  72  71  72  72  72  71  73  65  66  97 118 134 152 163 173 181 185 191 194 195 197 203 207 204 211 210 150 129 126 140 160 181 195 207 206 204 197 184 179 173 166 170 172 170 188 194 193 197 198 201 204 209 209 201 195 193 189 188 185 178 164 166 168 159 152 147 132 115  86  65  78 170 213 201 188 185 179 166 197 210 206 203 200 207 210 208 207 206
 203 193 146  87  73  72  71  71  72  72  74  66  58  94 118 135 154 157 169 177 184 190 189 195 199 201 207 210 211 205 165 123 113 111 137 163 187 201 198 191 182 169 148 116 118 137 155 165 180 199 196 195 199 198 199 206 206 199 198 190 191 185 184 177 165 163 163 155 146 143 128 112  79  63 100 194 206 198 183 164 159 190 210 208 208 203 202 208 210 207 207 206
 203 194 156 105  79  72  72  71  73  73  74  68  57  89 111 139 153 159 168 173 184 186 189 196 199 201 208 209 201 196 184 153 138 123  95 134 167 179 176 177 167 144  95 113 156 164 159 160 189 205 204 194 195 196 198 199 198 196 200 194 188 185 182 177 164 159 153 150 144 137 125 107  76  65  96 168 185 170 152 132 161 204 210 208 207 201 202 209 209 208 207 207
 203 199 175 136  99  78  73  72  73  73  75  69  57  75 104 135 150 160 168 175 179 184 186 193 199 200 205 205 192 187 184 175 149 132 114 104 131 147 142 149 140 133 147 165 181 177 165 178 198 209 214 203 195 198 201 199 201 198 197 195 191 189 183 167 164 156 148 146 139 123 107 101  73  63  77  99 116 101  80 105 175 206 208 208 207 200 201 209 208 207 208 207
 202 201 192 168 135 101  79  73  73  74  74  74  46  62 100 124 143 153 169 174 178 183 186 190 196 202 202 198 187 182 175 170 160 141 140 128 115 125 122 128 143 174 183 173 177 177 187 201 204 209 213 211 201 198 201 202 205 194 190 194 190 184 177 172 166 163 155 150 134 117 111 102  71  68  71  62  63  61  68 128 190 206 205 208 206 200 203 208 207 207 207 206
 202 202 201 189 168 134  95  76  74  74  75  70  46  55  90 121 146 158 165 173 179 183 186 190 196 198 197 190 183 173 166 154 143 149 147 146 139 152 153 164 179 176 179 171 162 180 177 191 201 208 210 213 207 195 198 203 203 201 197 191 183 182 175 170 164 157 154 141 120 109 112  88  59  67  71  67  66  64  89 155 198 206 206 208 205 200 203 208 207 206 206 206
 202 202 202 200 192 167 120  82  74  74  74  73  50  54  96 121 142 153 158 170 176 180 186 191 184 179 175 168 171 160 139 135 120 128 135 140 143 150 167 182 183 163 143 155 157 160 162 174 191 200 207 209 209 203 200 201 198 195 193 191 187 183 180 170 163 148 143 117 114 101 106 101  87  82  66  66  65  71 121 181 205 207 206 208 203 200 204 207 207 206 206 206
 200 201 201 202 201 188 142  89  75  74  74  75  50  46  81 109 133 142 159 170 174 174 179 180 165 152 152 165 163 136 127 110 106 111 128 131 136 159 170 161 146 162 155 126 145 135 151 158 172 194 199 204 205 203 204 200 197 191 189 189 190 176 172 167 160 154 132 103  89 105 107 107  97  83  64  66  68  97 157 198 207 208 207 208 203 201 207 208 207 207 207 207
 199 200 202 202 204 196 156  98  75  74  74  75  56  45  69 102 121 135 157 169 169 160 161 158 148 150 151 148 116 129 128 116 132 133 158 141 141 172 180 168 152 137 159 133 139 135 147 147 167 180 183 180 192 200 202 200 197 194 192 182 180 170 167 160 155 145 138 106  85  97 107 106  90  73  67  73  93 140 185 205 206 207 207 207 203 202 208 208 208 208 208 207
 202 201 202 203 205 200 165 104  77  75  75  76  63  50  73  88 115 139 158 169 157 138 140 142 129 143 139 111 102 125 125 127 136 139 153 146 154 171 185 175 153 159 172 152 136 154 135 138 139 146 157 163 156 183 183 192 195 194 191 178 175 174 169 160 148 136 138 108  84  99  97 103  86  71  83 106 142 181 200 206 206 205 206 205 200 202 208 208 207 207 207 207
 200 201 201 202 204 202 170 107  78  77  76  75  73  63  63  80 117 132 152 161 133 122 139 118 118 120 112 102 112 113 123 128 135 147 152 168 172 178 192 180 163 167 175 139 131 141 148 142 131 128 134 157 149 152 170 162 181 193 184 179 177 172 163 148 139 131 121 114  86  89  96  90  78 108 127 155 183 201 206 206 206 206 207 204 199 202 208 208 207 207 207 207
 200 201 201 203 205 203 173 110  78  77  77  75  79  53  51  85 100 105 136 159 142 125 112 120 113 117 111 118 106 119 132 132 158 165 179 187 192 201 192 192 191 193 185 166 149 138 152 123 121 129 103 142 151 132 149 157 165 176 186 185 176 168 161 141 113 126 128 105 101  88  93  65  88 159 175 191 202 208 206 206 206 207 208 203 200 205 208 208 208 207 207 207
 202 201 202 204 205 203 176 115  79  76  75  76  74  51  50  93  80  83 127 159 143 128 117 113 107 117 103 111 111 126 136 145 149 144 145 153 173 190 190 186 190 182 176 186 168 159 156 138 118 132 102 126 131 127 129 146 144 167 185 188 166 158 154 144 127 120 127 113  99  92  80  59 130 195 200 204 205 205 206 204 205 206 208 203 201 207 208 209 207 207 206 207
 202 202 203 204 206 204 180 120  80  77  77  77  77  63  49  89  78  78 122 155 154 149 135 131 140 134 130 119 106  98  99 101  99 104 106 108 114 127 143 137 142 137 136 139 146 158 154 137 123 137 119 114 133 128 116 134 142 159 185 186 168 153 146 135 122 134 118 116  99  90  71  71 179 209 205 207 206 204 204 205 205 206 206 201 201 207 208 208 207 206 207 207
 202 202 204 205 205 206 185 127  82  78  77  77  78  75  54  79  80  75  96 137 162 172 170 176 182 174 166 150 140 131 123 125 128 124 123 117 111 104 105 109 109 104 103 102 101 111 109 109 119 133 126 117 125 131 143 125 138 160 188 188 179 159 145 130 109 128 114 106 110  84  60  86 191 211 206 207 205 205 204 206 206 206 205 201 202 208 208 208 206 206 206 207
 201 203 204 205 205 207 189 133  85  78  78  78  78  79  60  63  85  68  95 138 156 170 181 182 181 183 186 171 150 149 154 158 159 154 167 176 178 176 162 163 168 165 157 155 149 150 148 157 165 171 171 176 179 175 173 163 157 166 183 187 169 148 120 132 113 112 105 105  96  73  67 118 194 210 206 206 205 205 204 204 206 206 205 201 204 208 208 208 207 206 206 207
 202 203 205 205 206 208 192 139  88  79  79  79  79  80  72  50  65  67  96 122 140 161 169 176 176 184 189 185 167 158 157 157 164 165 163 170 177 183 180 190 187 185 181 173 166 167 172 174 179 183 191 202 198 194 193 195 188 190 182 171 151 141 112 115 120 112 103 103  82  59  97 147 198 210 206 205 205 205 205 205 205 206 205 201 205 209 208 207 207 207 207 207
 203 205 205 205 207 208 195 147  93  79  78  79  79  78  81  63  58  64  82  91 129 150 153 153 169 177 183 186 178 167 166 167 173 176 172 176 179 182 186 184 185 182 184 177 176 181 185 188 190 194 204 204 195 189 193 191 192 190 177 155 135 134 131 108 113 109 101  93  76  61 130 153 202 208 206 206 205 205 205 206 205 207 205 201 206 210 207 207 208 208 208 208
 204 205 205 205 206 208 198 158 103  80  79  80  79  79  81  72  55  70  73  77 111 135 144 159 162 167 175 176 176 176 168 162 175 186 183 172 165 160 160 160 163 167 175 183 189 192 191 188 197 205 203 200 187 187 194 182 190 185 155 135 116 120 124 124 110 103  97  84  61 101 151 154 206 206 206 206 205 204 204 206 207 208 203 201 207 210 209 208 209 208 209 209
 204 205 204 206 206 208 201 171 117  82  79  80  80  80  80  79  51  49  79  77  96 126 146 156 153 157 168 172 173 180 172 158 159 169 178 172 167 164 167 175 162 167 182 187 185 184 190 188 199 200 197 191 185 189 189 176 178 184 154 126 112 116 112 120 118 100  96  67  75 150 149 161 218 206 206 206 205 205 204 206 207 207 202 202 209 209 210 209 210 209 209 210
 204 205 205 207 208 208 205 184 132  88  80  80  80  80  80  80  74  37  69  79  92 109 139 160 156 156 162 172 172 173 176 173 163 152 149 153 150 165 173 169 154 157 168 177 184 190 195 199 198 193 191 188 184 179 168 175 181 177 147 125 121 118 106 122 108  97  79  61 130 167 142 164 214 213 205 205 204 204 206 207 207 206 202 204 210 209 209 209 210 209 209 209
 206 205 206 207 208 209 209 194 151 101  82  80  81  81  80  85  67  30  50  76  86  91 130 153 143 147 163 177 176 177 179 178 180 176 180 174 168 172 169 171 172 178 187 192 196 194 195 193 191 190 189 186 177 168 165 172 166 163 140 126 128 127 119 125  88  82  52 104 167 163 144 166 204 206 207 205 206 206 207 208 208 206 201 204 209 208 210 208 209 209 209 210
 205 206 206 207 207 209 209 202 171 119  85  81  80  81  84  77  13  42  50  62  81  96 108 112 126 160 166 171 175 178 182 181 183 191 198 197 204 184 182 184 195 194 197 197 195 193 191 188 188 187 186 178 175 180 180 167 147 150 142 131 120 122 121 117  77  49  78 160 171 161 148 159 189 193 208 205 206 206 207 208 208 206 201 206 210 210 210 209 209 210 210 210
 206 206 207 208 209 210 210 205 187 140  96  82  80  82  84  38   1  87  67  46  65  90  82  86 114 148 143 164 175 177 189 190 189 191 198 206 209 189 195 196 203 201 203 204 200 195 187 182 189 186 176 177 181 172 161 171 145 143 146 128 122 114 121  88  60  58 147 175 169 165 151 166 174 181 212 205 207 206 207 208 209 205 201 208 211 211 210 210 209 210 211 210
 207 206 207 210 210 211 210 210 199 162 112  85  85  87  56  11  24 132 112  58  47  64  79  69  86 105 131 152 167 177 181 186 190 186 195 205 205 204 206 207 205 207 205 204 200 200 193 189 191 184 180 183 169 151 147 149 143 127 137 126 109 106 102  59  62 135 183 177 171 169 150 171 183 204 211 204 205 206 208 209 208 204 202 209 212 211 210 209 210 210 210 210
 207 207 208 210 210 212 212 212 206 182 136  97  76  50  21  10  47 174 159 112  54  30  46  46  57  85 117 132 151 175 177 183 181 182 196 203 197 199 205 209 202 208 207 202 199 201 201 192 190 183 181 173 144 136 125 129 102 125 120 114  91  85  73  44 111 176 184 178 172 169 152 167 210 231 202 204 205 206 208 209 209 203 204 211 212 211 211 210 210 210 210 210
 201 203 205 207 208 209 210 211 214 210 151  64  22  17  19   9  71 185 194 182  97  32  32  35  48  67  92 101 122 164 165 164 164 184 194 195 187 190 201 206 206 203 195 199 195 192 195 183 184 176 162 151 144 107 100  97  75 124  96  96  78  67  53  97 177 188 189 181 178 176 146 156 237 229 198 207 211 206 208 209 207 202 205 211 211 211 211 209 209 210 210 209
 195 196 198 200 201 202 208 215 203 131  42  13  21  18  19   7  98 190 208 211 177  91  41  32  44  38  68  79 117 139 137 146 160 174 190 184 182 184 192 189 196 192 188 190 189 178 179 160 160 171 140 108 123  88  74  92  86 115  82  79  59  48  90 167 190 191 189 185 183 173 150 209 243 223 194 117 204 214 209 209 206 202 206 213 213 212 211 210 210 210 210 210
 196 195 199 202 206 205 173 106  46   7  16  24  24  19  19  11 128 194 207 221 228 175  68  30  29  42  47  81  98  89 132 151 147 149 177 177 171 184 186 177 187 185 188 179 168 164 164 164 126 132 128  90  67  73  58  85 100  97  61  64  49  93 162 188 193 193 190 186 182 170 213 249 232 223 203  41  87 221 211 209 206 203 209 214 214 212 212 212 211 211 210 210
 200 199 193 173 149  82  22   4  13  19  22  23  22  20  17  23 154 197 209 223 232 225 168  59  23  39  32  63  69 104 136 140 117 135 163 158 160 173 172 169 165 174 179 166 143 140 139 141 127  96  99  80  47  34  55  81  81  78  58  51  96 162 189 195 198 193 192 188 176 217 252 240 232 225 203  61   1 144 224 208 206 204 211 214 214 211 212 213 212 211 210 210
 110  70  35  17   7   6  16  20  20  21  22  21  19  20  11  44 173 198 213 225 230 236 239 174  52  24  37  36  47  75 100 106  96 129 136 146 162 155 159 169 150 143 154 141 140 120 115 118  95  82  68  52  39  36  63  71  64  63  55 107 167 184 192 199 197 192 191 184 220 251 243 238 230 220 203  67   4  33 199 215 206 206 212 214 213 212 212 212 212 211 210 210
   0   0   0  10  16  17  18  16  18  22  22  20  16  20   8  70 184 201 216 227 232 235 242 239 152  54  23  30  32  53  70  79  80 104 110 127 141 143 142 138 140 138 131 110 115 104  78  73  52  59  53  35  45  54  74  62  50  48  89 173 191 189 198 199 201 195 196 226 252 246 242 235 227 216 205  75   9   1 104 225 206 207 214 214 213 213 211 212 211 210 210 210
   2  12  19  17  17  16  16  18  19  19  19  20  19  21   8  94 188 204 220 228 233 235 238 240 235 155  60  28  38  39  48  59  72  74  90  96 117 123 115 113 122 118 106 102  84  90  62  46  43  41  48  41  53  71  62  44  52 100 159 193 197 197 199 200 196 212 242 252 248 244 240 234 227 214 205  92   6  13  17 186 214 209 215 214 212 212 212 211 211 210 210 210
  17  19  18  18  19  19  18  19  19  20  20  18  20  20  11 112 191 206 223 230 234 236 238 240 243 240 193  83  35  34  38  51  48  45  53  52  65  82  87  82  84  76  61  66  55  49  36  39  46  49  41  55  57  53  47  66 124 183 189 195 202 201 198 203 231 253 253 250 246 243 238 234 226 213 206 116   5  20   0  91 220 210 215 214 213 212 212 212 212 211 211 211
  21  21  17  17  18  20  19  16  18  20  18  17  20  19  17 134 189 206 226 232 234 238 239 240 242 243 244 219 164  86  35  32  40  44  49  46  44  65  68  61  52  52  51  47  43  46  34  43  61  54  47  43  39  62 120 165 180 185 193 203 197 197 217 246 255 253 250 247 244 241 236 233 225 214 204 147  18  20   7  12 178 220 216 215 214 213 212 213 213 212 211 211
  20  19  17  17  22  19  17  20  17  18  18  20  22  19  27 145 188 207 228 234 235 238 239 241 244 243 241 244 248 229 169  59  28  48  55  60  61  74  68  72  80  66  61  57  64  58  60  55  58  43  36  59  94 144 187 189 183 193 202 194 207 236 255 255 252 250 249 246 242 240 236 232 225 215 200 166  38  16  14   0  90 229 218 215 215 214 213 213 213 212 211 211
  20  20  19  19  18  17  14  19  19  20  19  20  23  20  24 146 191 208 228 235 236 238 240 242 244 247 245 242 243 248 252 222 129 100  77  56  50  58  49  52  56  50  47  53  56  46  45  57  55  61  98 154 180 186 186 187 196 200 201 223 251 255 254 253 251 250 248 245 243 239 237 233 227 216 198 175  61  14  15   6  10 145 222 216 216 215 214 214 213 212 211 211
