P2
# Generated by OpenCV 4.2.0
92 112
255
 217 217 217 217 218 219 220 219 219 220 221 221 222 222 222 222 222 222 223 224 224 222 223 223 224 242 248 138  20   5   6   7  17  11   7  10  12   7   8   9   9   8   6   4   4   4   7   8  11  26  27  60  67  52  97  57  25  25  34  73  93  82 101 194 247 244 235 235 235 235 235 235 235 236 236 235 233 235 235 233 234 235 235 234 235 234 232 234 234 234 234 233
 217 217 217 217 218 219 219 218 220 222 221 221 222 222 222 222 222 222 222 223 222 222 224 227 234 182  84  14   8  11  11  15  13   9  10   7   5   6   8   5   4   5   5   7   5   2   5   7   7  11  12  12  22  45  38  24  21  21  34  36  37  57  55  72 112 194 232 235 234 234 236 235 234 235 236 236 234 234 234 234 234 235 236 236 234 234 233 234 234 234 234 234
 217 217 217 217 218 219 219 218 220 221 221 221 222 222 222 222 222 222 222 222 221 222 231 225 122  21   3  13  13   8  11  11   9  10   6  10   9   5   5   4   5   2   3   7   5   3   5   6   6   4   5   5   9  10   4  12   9   4   5   9  10  13  29  30  44  80 161 230 236 235 236 235 235 236 236 236 234 234 235 234 234 235 236 236 234 235 233 234 234 234 235 235
 216 216 217 217 219 219 220 219 221 221 222 222 222 222 222 222 222 222 222 222 221 235 198  67   0   3  11  10   6   4   5  12   6   4  15  19   9   7   5   3   3   3   4   3   6   6   4   4   5   6   3   4   5   3   4   5   4   4   7   7  14   8  14  15  13  26  55 152 233 239 234 235 235 235 234 235 235 234 234 233 234 235 235 234 233 233 232 233 235 234 234 234
 217 217 218 218 219 219 219 218 220 222 222 222 221 222 222 222 221 222 222 225 235 181  43   0   8   9   4   5   6   6  12  10   9  18  17  18   7   4   3   3   3   4   7   4   4   4   4   4   8   4   4   5   3   5   6   4   7   6   3   4   4   8   8   9  12  22  15  40 100 214 241 233 235 235 235 235 235 232 234 233 232 233 232 232 232 232 231 232 233 233 233 234
 217 217 218 218 219 219 219 219 221 222 222 223 222 222 222 221 222 224 233 231 136  22   2  12   7  12  10   7   5  12  12   8  22  22  21  13   4   4   4   2   2   9  11   5   6   5   5   4   7   4   4   6   6   4   6   7   6   7   2   4   5   6   6  11  12  14  14  18  27  71 208 238 229 230 232 234 233 235 232 228 229 230 229 229 230 229 229 228 228 229 229 231
 217 217 218 218 219 219 219 219 221 222 222 222 221 222 221 221 224 235 191  84  13  23  29  25  13  19  18  14   7  10   6  15  28  33  24   9   2   5   6   2  16  18  17  15  15  12   9   7   3   3   3   3   4   7   4   6   7   3   3   5   7   9   7  10  13   9  13   9  35  44  79 213 232 225 228 229 231 231 229 225 225 231 230 230 231 231 230 229 229 228 223 225
 217 217 218 218 219 219 219 219 221 220 221 222 221 220 220 227 220 120  25   6  22  34  44  58  54  22  21  20  23  14  20  33  45  36   9   3  12  10  12  21  20   8  13  16  11   9  13  10   4   4   5   3   3   6   6   3   9   7   8   5   8  14   5   7  14  17  14  13  19  39  37 100 226 233 228 227 226 226 224 223 227 231 234 234 233 234 233 232 232 230 222 223
 217 217 218 218 219 220 220 220 219 219 221 221 221 219 228 211  89   4   9  17  10  20  34  48  38  54  33  24  35  29  23  38  72  43   5   5  14  13   7   5   0   2   5   7   8  10   6   5   4   3   3   2   3   4   6   4   7  11   5   9   7  17   4   6  12  26  21  20  24  20  33  33 143 247 233 233 229 226 222 219 221 226 230 234 236 236 235 234 234 232 222 221
 217 218 218 218 219 220 220 220 219 220 221 221 222 230 195  58   6  15  22  17  20  29  18  16  10  21  32  31  21  21  50  58  43  20  19  22   9   6   3   3   2   6  14  17   9   9   4   3   3   4   2   3   3   4   6   5   6   6   5   6   5   8   9   5  12  28  47  37  20  13  24  21  54 188 243 235 235 231 225 220 213 218 226 231 233 236 235 235 235 232 223 223
 217 218 217 218 219 219 219 220 220 221 222 222 226 212  69   8  26  28  27  18  23  25  21  19  10  24  32  19  23  48  50  32  27  18  29  24   8  18  13   7  13  11  12  13   6   4   4   2   3   3   4   4   4   3   5   6   6   8   3   3   3   7  22  21   9  32  61  47  36  21  14  18  45 100 218 237 235 235 232 224 220 222 227 232 233 234 235 235 236 233 224 224
 216 218 218 218 219 219 219 219 221 221 221 223 224 102   6  18  22  14  10  23  35  25  15  13  14  14  19  29  34  23   9  21  26  55  68  49  28  23  21  11   9  10  12   9   7   5   5   4   4   5   6   4   2   3   5   6   6   9   5   3   4   5  12  47  38  10  51  69  37  27  31  15  36 101 157 239 233 235 235 232 229 230 235 234 232 232 234 235 235 232 224 224
 216 218 219 220 220 218 219 220 221 221 221 232 156  12   8  11   6   8  23  25  24  15  12  12  11  13  19  18  28  43  59  59  34  25  17  16  17  29  39  18  10  10  11  18   9   5  12   8   7   6   4   3   3   5   4   4   4   5   5   3   3   4   7  24  48  13  11  43  42  30  54  45   9  89 146 217 236 233 234 234 233 234 234 235 232 232 233 233 234 231 224 224
 218 219 219 219 220 220 220 220 220 223 224 211  45   4  12   7   4  31  28   8  14  15  12  20  24  13   9   9  13  19  51  70  30  12  11   9  17  33  46  60  46  18  14   7  10  12  11   5   5   7   3   2   3   3   3   3   3   5   4   3   3   4   4  11  45  64  22  22  25  47  68  65  22  32 143 199 230 233 233 233 233 233 234 235 235 232 232 233 234 231 223 224
 219 218 218 219 220 220 220 220 219 218 234 145   3  15   9   2  32  42  12  10   9   9  16  15   8   9   9   7   6   9  27  36  43  25   7  10  20  26  39  45  42  33  14   9  28  24  10   4   2   6   9   6   4   6   3   3   3   5   3   4   2   3   5   6  27  74  62  12  17  27  61  61  46  21  49 151 221 224 231 233 233 233 234 233 234 233 230 229 232 230 224 225
 218 217 218 218 218 218 219 220 219 223 215  53  16  11  14  59  67  19  12   9   9  13  16  24  17   8   6   7   7  10  24  38  46  49  36  27  33  47  52  44  26  11   6   6   8   8   6   5   3   5  11   8   7   5   4   3   3   3   3   4   4   4   4   5   8  51  86  43  15  23  46  56  31  44  26  21 169 221 220 230 233 232 233 233 234 232 225 222 227 228 224 226
 217 218 218 218 218 219 219 220 221 235 119  12  23  23  29  29   8   5   8   9  12  13  16  20  14  11  14  16  22  24  31  34  35  74  92  48  33  39  37  38  37  27  19  14   5   4   4   3   3   5   8   8   3   3   3   4   3   4   3   3   6   6   5   6   3  23  77  69  34  10  21  61  65  15  27  10  32 182 211 217 230 232 233 233 233 228 221 215 222 226 225 227
 217 218 219 217 218 219 219 220 230 187  22  20  24  19   8   6   9  12   8   9  12  13   7   6   8  10  13  18  30  31  11   5  11  20  32  26  21  22  32  52  64  64  52  21  11   7   7   7   6   7  10  11   4   3   3   3   3   2   3   4   7   7   7   6   7   4  26  54  25  22  11  18  63  28  14  27   2  63 199 203 219 231 234 233 231 228 219 214 218 223 224 229
 217 217 218 216 217 218 219 220 231  86   2  21  11   6  10   8   7   8   7   9  10  10   9   9  10   8   6   8  12  20  30  19   9  12  30  49  51  59  44  32  36  29  25  20  12   4   6  15   8   6   5   4   4   3   5   7   7   7   5   5  11  13  14  14   8  10  10  44  82  23  10   9  22  23  17  12  20   0 139 206 204 223 233 233 233 233 224 220 216 223 227 229
 216 216 217 216 216 216 216 230 174  10  14  12   7   6   4   5   6   6   7   9  11  10   9   8  12  12   8  11  17  23  33  37  23  26  32  68  66  45  38  21  12  10   9  13  10  11  12  18   4   3   4   5   6   8   6   8  17  16  13  12  13  20  23  30  26  18  32  40  93  62   9   6  11  13  12   9  12   9  61 205 196 212 227 234 235 235 232 224 220 222 229 232
 216 217 217 217 217 217 217 228 104   0  12   6   6   5   8  10  14  16  11   6   7  10  10  10   8   8  12  16  19  23  23  37  44  49  43  17  21  36  26  18  12  13   9   5  15  26  34  28   6   2   5  13  13   8   9  13   8   7   6   8   7   9  17  20  45  40  32  55  89  95  40   7   4   9  14   8   9  13  30 178 204 202 220 233 234 234 235 229 224 225 231 234
 218 219 218 218 219 219 218 217  52   1  16  12   9  10   9   8  14  13  11   8   9   9   6   7   7  11  19  22  25  34  39  66  53  25  26  15  32  60  39  16  14   9  11  14   8  15  40  26   4   7  12  14  16  14  14   7   2   2   5   6   6   7   9  16  31  45  40  44  61  60  35  17   8   6  10   9   8  10  13 163 218 197 212 228 234 235 235 233 225 223 230 234
 219 219 219 219 221 218 224 193  18  11  21  12  11   8   8   9   6   6   7   8   8   8   7   8   7   8  10  10  15  22  27  29  22  20  29  33  49  51  38  30  19   9   8   5   9  15  20  14   7   9  12  31  27  12   5   3   3   3   3   6  14  14   8  10  22  36  56  46  46  33  12  13   9   7   6   8   7   9   5  87 215 208 208 224 231 234 234 232 226 222 226 231
 213 216 220 219 219 219 234 126   4  18  13   9   8   8   8  10   6   7   7   6   6   6  15  17   8   6   5  12  16  12   8  13  20  25  32  34  38  46  41  27  25  22  10   9  14  12  11  13  24  11  42  36   8   1   3   2   4   3   3   7  11  10   7  10  10  18  45  56  34  36  17   7   5   5   6   6   6   6   8   5  84 194 209 216 221 222 224 224 220 219 221 228
 190 201 213 219 219 224 209  39   9  14  10   9   7   7   7   8   8   8   8   6   7   8  11  16  12   9   8   9  12  15  17  29  33  26  21  42  48  36  35  25  13  14   7  10   8   7  13  27  30  42  31   5   2   3   3   4   9   3   3   2   4   5   7  16  18  17  18  34  46  21  16  12   4   4   4   4   4   8   6   5  20 105 182 198 198 199 201 200 202 208 213 224
 175 180 197 214 218 231 108   0  11  13  13   8   9   6   7   7   7   9   7   7   7   8   7   8  10   9  10  10  17  29  37  33  28  17  15  21  31  29  31  27  17   7   6   7   6  12  15  17  36  25   3   3   5   5   3   3   4   7   6   3   4   6  12  33  42  29  18  33  62  40  12  15  13   3   5   3   3   6   6  11  17  29  83 170 175 173 175 175 177 196 208 219
 193 177 182 205 223 201  22   7  13  15  12   8  11   8   7   6   6  10  11  18  12   5   5   8  12   9  13  13  11  17  19  33  38  29  16   8   6   7  18  24  21  13   7   4   5   9  15  22  18   5   4   7  11   6   4   3   4   4  11   7   4   7  18  23  42  50  34  40  76  63  17   8   5   3   4   4   4   5   6  17  11   3  51 178 183 177 171 167 169 191 205 217
 210 187 175 198 230 133   0  12  11   7   6   9   8   9   7   6   7   7   7  18  31  17  13  11  13  13  13  17  19  15  13  32  57  47  44  36  26  26  33  20  28  35  25  14  10  14   9  11  16  13   7   6  16  13   4   6   8   6  24  18   3   8  31  28  33  37  31  35  71  60  19   8   4   3   3   5   4   7   4   7   5  10  66 183 208 205 191 175 169 188 205 216
 209 187 174 198 227 101   4  13   6   5   7   8   9   9   7   7   7   6   8   6   7  11  17  19  13  10  11  16  21  24  32  34  27  27  38  45  52  61  57  28  20  13  13  16  22  20  23  29  61  61   7   8  22  32   7   9  12  12  30  27   7   6  40  46  47  48  41  24  27  39  17   9   5   3   4   4   4   5   7   5   4  11  89 198 218 223 214 190 172 187 206 216
 193 177 180 206 223  78   2   7   5   5   5   8   7   6   6   8   6   7   7   8  10  16  22  17  14  16  12  15  21  28  39  41  26  16  18  21  36  33  17  17  12   5   7  10  27  45  36  76 140 104  14  20  46  46  17  17  17  18  60  53  22  10  54  63  63  69  55  36  20  19  15   9   7   2   4   3   4   4   5   6   5  11  54 145 206 228 225 200 173 185 204 216
 176 179 195 220 186  23   5   5   3   4   3   6   4   6   6   8   7   5   7   7  11  23  44  44  26  12   8   9  17  27  43  40  22  14  30  27  38  46  29  34  18  12  18  20  39  43  54 109 131  75  29  28  47  36  26  36  18  45  70  69  41  13  73 112  90  67  67  54  32  16  10   9   7   4   3   3   3   3   5   5   4  10  17  92 200 229 225 199 171 185 203 216
 188 199 211 227 146  11   5   6   5   3   5   4   5   4   4   8   9   8   7   7  11  17  21  42  45  30  22  14  17  38  45  45  43  30  24  32  27  32  39  27  19  25  39  41  42  64 114 156 156  81  57  24  74  43  38  32  35  83  72  71  37  29  96 155 148 115  66  62  38  15  11   8   6   3   3   3   4   4   6   5   6   8  20 103 207 224 216 190 168 187 204 218
 210 215 218 224  81   0   5   5   6   4   5   3   3   5   6  10  10  12  12   9  10   9  13  22  35  45  52  41  28  20  27  29  30  34  27  22  33  29  37  32  27  30  36  57  76 101 135 146 103  52  37  63  99  48  60  32  54 111  80  59  49  55 135 163 150 161 126  57  52  24  10   9   4   3   3   4   6   3   8   7   4   8  24 117 195 206 196 175 168 191 207 219
 216 217 218 223  72   0   4   4   5   5   4   3   3   5   9   9  11  14  11   4   1   5  13  15  17  25  29  38  38  40  38  37  38  52  56  47  51  53  31  25  27  34  72 108 135 134 124  89  49  38  71 124  95  87  83  71  89 121  70  52  56  82 162 166 153 161 167 116  41  35  13   6   3   4   5   4   6   4   9   6   5   5  25 118 166 172 169 166 172 196 209 220
 215 215 220 208  41   0   3   4   5   4   5   3   3   3   6   6  15  36  53  81  82  29   4   7  14  26  26  38  46  42  47  49  56  69  71  60  60  44  24  35  58  90 136 146 145 126 102  71  62 125 158 148  88  94  86 148 115 114  63  64  72 115 173 170 156 157 160 151  90  35  17   4   4   5   4   5   5   5   9   7   4   8  32  83 125 149 161 166 177 199 212 220
 213 213 221 188  19   1   3   4   7   4   3   3   4   5   4   8  34  82 113 148 153 108  68  57  52  47  45  47  58  69  72  76  65  70  66  50  40  39  48  90 105 162 185 176 158 129 105 116 154 185 186 146  65  75 158 170 121 107  73  84  84 161 174 174 164 159 160 153 127  54  21   6   6   5   3   4   3   4   8   6   6   9  46  79 114 151 169 177 187 200 212 221
 214 213 221 186  20   1   6   6   6   6   3   1  12  17   6  24  71 105 137 126 125 140 151 153 160 161 152 138 138 146 149 124 103  94  85  68  71  94 118 142 160 192 195 192 167 128 139 186 202 196 194 117  85 167 199 137  97 100  95  87 145 185 176 175 172 159 162 153 134  76  25  14   7   5   3   3   2   3   7   9   6   9  44  77 124 167 191 196 195 204 217 224
 217 217 223 204  35   2   6   7   6   7   4   3  18  22  21  59 121 141 128 118 133 159 166 174 178 183 181 185 192 173 161 161 158 154 121 111 127 118 187 184 199 204 198 198 186 177 202 205 207 203 179 141 193 200 161 109 122 122 112 141 180 180 181 176 175 165 161 160 134  80  37  18   8   5   6   4   3   4   8   6   6   4  30  76 127 173 202 203 201 210 223 229
 218 217 220 222  65   0   5   7   6   4   3   6  18  16  27  63 123 159 159 157 170 172 174 176 179 183 180 188 184 171 179 186 178 150 124 163 125 156 207 185 209 210 204 206 204 207 203 206 210 202 191 201 197 179 142 148 172 159 169 172 180 179 181 177 170 165 166 162 144 100  39  15   8   5   5   4   4   7   6   5   8   7  21  72 116 167 196 199 200 215 229 232
 217 217 218 228  98   1   3   7   6   4   3   6  10  10  22  64 126 159 169 164 164 169 171 176 179 182 184 190 187 187 191 187 145 145 183 165 148 199 190 196 203 203 207 205 200 200 201 198 192 188 190 201 196 192 175 179 183 184 186 173 176 179 181 177 167 168 169 162 142 112  56  16   7   5   4   4   7   9   5   6   7   9  35  63  92 145 171 180 197 218 228 230
 218 217 218 230 142   3   5   7   5   4   4   7  13  12  26  67 126 157 164 162 165 170 172 180 182 182 184 189 190 190 176 134 141 201 180 139 190 195 193 204 203 202 204 204 198 199 200 201 197 191 191 194 198 194 186 186 189 186 184 177 177 177 180 180 170 163 169 163 145 131  89  27   5   5   6   5   7  10   4   5   6  11  33  56  74 112 137 167 196 218 225 229
 217 217 218 226 169  12   5   5   3   3   4  12  15  14  29  75 135 159 162 166 165 163 175 177 180 186 187 187 179 161 142 141 188 199 137 166 194 190 202 199 207 205 202 201 194 199 199 204 201 199 196 193 192 191 188 187 191 188 179 183 179 179 180 179 174 167 166 158 149 135 103  41   8   3   5   7   8   8   5   3   5  10  38  58  53  69 104 155 193 212 221 228
 217 216 218 226 183  21   2   6   3   3   6  12  14  13  35  89 126 157 162 163 166 170 175 175 180 187 191 183 162 165 158 181 197 158 131 192 190 202 202 204 205 201 202 202 198 201 199 198 198 195 192 186 184 184 184 188 188 187 185 183 181 181 179 181 178 169 166 162 154 137 106  53  13   4   5   6  10   9   5   6   6  13  44  54  35  39  80 143 182 204 219 227
 217 217 218 224 191  29   6   7   5   2   4  12  12  15  36  74 123 154 159 165 171 174 177 177 182 185 191 183 187 175 177 192 172 117 177 197 194 202 197 198 198 198 199 199 198 198 201 200 199 198 193 191 187 189 193 189 188 187 182 181 183 180 177 180 176 172 168 162 153 138 105  67  20   5   6   5   7   8   7   6   6   7  39  42  21  25  62 123 164 193 213 226
 218 218 218 219 206  49   2   8   6   2   4   8   9  15  32  70 121 151 164 167 167 171 176 178 183 185 188 190 178 175 195 186 126 151 198 193 197 202 201 199 201 202 200 198 198 203 202 202 198 199 193 192 191 191 191 191 188 186 183 182 183 181 177 178 175 171 166 159 151 138 119 100  51  10   5   7   7  10   6   4   6  12  32  29  15  20  48  91 139 181 208 225
 217 216 218 218 224  87   0  10   8   3   4   4   8  14  33  65 109 145 164 166 166 174 176 177 181 185 187 190 176 184 189 148 146 190 194 190 196 198 200 197 199 200 203 200 202 205 202 202 200 199 193 191 191 191 193 192 186 188 187 183 182 183 182 177 175 172 165 154 148 137 130 110  83  43   5   5  10  10   4   4   4  20  34  19  13  23  36  60 111 167 202 223
 216 216 218 219 222 114   0   8  10   5   3   4   5  10  25  57  76 136 165 165 168 177 176 176 178 181 186 186 187 191 178 167 176 193 192 191 198 197 202 198 200 200 200 202 205 207 204 205 203 199 198 197 194 190 187 189 187 184 185 181 180 182 181 177 177 170 160 150 136 134 131 110  89  75  20   4   8  11   6   6   7  16  43  26  18  27  31  44  89 155 198 220
 216 216 217 219 219 165   6   4   9   6   4   5   5   6  20  65  96 140 155 160 167 175 177 175 177 183 184 187 191 190 189 191 187 192 194 194 197 198 203 198 197 197 198 201 200 203 204 205 204 200 200 196 189 189 184 187 188 180 178 179 173 177 179 178 175 170 156 139 126 134 133 113  97  78  31   7   5   8   7   4   6  26  42  22  26  28  31  39  76 145 194 219
 216 216 217 217 218 205  34   0   6   8   5   6   5   5  20  70 114 135 154 162 170 173 177 177 180 185 185 189 189 189 191 190 192 192 194 193 194 201 201 199 199 199 198 201 201 204 205 202 200 199 197 193 187 187 182 181 182 178 176 174 163 161 164 158 155 158 147 135 121 130 134 120 106  81  31  11   6   6   5   4   7  20  34  26  28  29  30  35  70 140 191 217
 216 216 217 217 219 225  85   0   6   6   5   6   5   6  19  60 111 136 147 160 166 172 178 176 177 183 183 184 185 189 188 190 192 191 193 195 193 199 201 199 198 200 203 203 205 200 198 198 196 196 196 191 185 177 169 170 173 160 155 154 143 132 132 140 140 122 115 118 106 113 128 125 113  87  44  10   7   8   8   7  10  46  62  29  27  31  31  34  70 141 192 219
 216 216 217 217 216 225 145   5   6   6   5   4   5   6  30  81 111 136 144 154 161 173 176 178 179 181 184 186 185 188 187 189 189 190 194 192 194 196 194 196 194 196 201 201 201 197 193 192 189 179 174 169 156 134 127 128 119 110 123 114 100  89  81  87  97  85  58  53  46  80 112 126 119 100  62  22   8   8   7   7  42 129 143  85  24  30  29  35  74 144 193 219
 216 216 217 218 218 218 196  47   1   6   6   6   5   6  48 103 114 126 140 149 156 167 173 178 181 182 179 180 182 183 179 179 184 181 184 185 186 184 188 193 194 193 200 201 193 191 186 183 168 149 134  95  65  63  78  81  80  77  85  92  98  87  80  91  96  97  69  53  52  77 105 126 126 110  79  39  11   9   5   1  67 161 144 137  61  23  29  35  79 148 195 220
 216 216 216 217 217 217 222 155  39   2   6   6   5   6  50 106 121 122 136 143 149 160 172 176 171 172 174 172 176 176 170 155 139 134 142 149 151 160 180 187 191 195 201 201 192 172 158 164 141 130  99  67  72  76  91 105 114 111 124 128 136 154 164 156 147 137 121 116  96  80  97 127 125 116 103  65  23   9  10  10  96 154 129 148  99  21  27  37  83 152 196 220
 216 216 216 216 217 217 220 224 159  15   6   6   5   6  48 109 125 127 132 135 137 154 151 123 130 144 149 147 146 139 111  65  70  82  83 106 123 129 162 179 192 194 198 200 189 169 148 141 151 143 124 112 133 136 133 137 160 175 181 182 181 180 180 177 166 163 161 150 128 103 107 136 124 121 111  64  33  16  10  20  98 125 170 181 133  22  25  38  87 156 199 221
 216 216 215 216 216 217 217 222 215  77   0   5   5   8  52 112 123 125 127 118 110 116  82  63  93 107 114 108  83  60  57  73  84  84  73  96 125 130 149 173 190 185 186 198 189 175 164 149 157 160 152 161 156 152 154 161 167 171 174 173 173 170 171 171 165 164 162 155 155 144 128 133 129 126 114  78  41  23  16  38 128 144 189 196 149  24  25  38  88 159 200 222
 216 216 216 217 216 217 218 222 171  77   9   5   8  13  50 112 125 124 116  89  63  47  62  84  82  85  86  76  75  80 104 107 108 109 117 117 141 146 140 167 180 178 183 195 181 178 174 163 167 166 160 151 135 124 136 148 149 152 161 149 145 147 147 143 152 157 162 162 162 156 150 141 134 131 116  97  52  25  16  59 160 145 176 200 155  24  24  36  86 158 200 222
 216 215 216 216 216 217 224 185 132 122  28   8  11  16  52 113 128 121  92  42  27  43  70  67  77  92 112 127 140 142 152 156 147 138 140 142 151 156 153 161 174 181 190 193 191 189 181 173 166 152 142 135 125 144 141 109  60  51  46  39  55  89 119 133 142 160 167 163 160 160 165 153 138 133 119 102  67  27  24  89 165 147 148 196 165  30  23  36  84 158 201 223
 215 215 216 216 216 217 219 157 143 143  44  14  16  17  49 110 128 120  83  54  63  84  90 121 144 160 171 172 169 165 161 159 151 135 121 117 119 131 143 156 170 189 196 192 191 190 180 171 158 145 143 146 155 128 130 136  36  42  34  19  47  73  45  69 120 154 163 165 164 169 169 161 150 132 118 104  84  39  28  87 180 170 136 175 173  40  24  36  86 159 202 224
 215 215 216 216 216 217 217 149 131 135  84  23  18  22  55 113 131 127 109 109 128 150 152 159 164 162 154 145 147 152 143 130 125 132 140 141 127 119 122 135 157 180 193 194 195 192 176 158 151 144 155 167 133 138 191 185  73  36  46  66 108 130 109  92 105 142 163 167 173 170 172 169 156 138 122 108  91  45  32  90 179 183 166 159 175  43  26  39  88 160 202 224
 214 215 216 217 216 216 217 160 149 171 122  45  18  23  57 112 130 129 130 137 141 143 137 136 138 136 129 133 111  62  28  27  26  53 120 130 135 158 155 131 136 166 190 197 198 194 175 150 147 146 173 159 141 146 158 161 134 132 157 151 137 150 162 153 155 166 178 174 176 178 174 168 157 142 123 113 106  49  28  97 192 197 189 157 170  47  26  41  94 164 204 225
 214 215 216 216 216 216 218 175 166 178 150 112  24  23  55 111 135 132 139 152 154 154 140 137 147 137 113  64  58  29  19  36  30  64 189 171 131 135 179 156 135 151 183 195 198 194 173 145 155 164 173 162 165 149 150 157 168 180 183 183 176 170 167 168 173 179 180 176 176 177 170 167 158 145 126 114 110  62  31 103 184 199 197 161 171  50  23  42 100 167 206 225
 215 216 216 216 216 216 221 183 165 174 150 149  48  16  55 108 132 138 142 156 156 162 161 159 145  86  40  59 132  83  38  37  49  92 161 153 143 137 140 172 158 148 172 190 196 193 174 147 160 170 183 186 170 158 157 167 173 179 183 182 180 178 175 179 179 182 182 181 178 178 171 164 157 147 128 119 113  71  28 122 190 205 211 168 181  61  19  42 104 172 208 225
 215 215 215 215 216 216 220 200 168 171 154 168  78  11  52 106 132 145 151 160 162 158 158 149 125  97 112 132 126 115 115 143 159 155 145 143 146 163 177 185 172 156 165 187 193 194 178 145 153 168 172 170 172 172 177 181 182 182 179 178 179 185 188 187 185 184 187 185 180 177 173 166 154 146 130 118 118  84  29 103 193 203 210 174 179  62  19  46 111 176 211 226
 214 215 215 215 216 216 217 214 179 159 165 176  90  13  51 109 133 147 157 166 168 164 164 162 157 158 162 161 147 159 157 173 183 173 161 150 154 168 184 176 176 163 161 186 193 191 178 153 142 168 178 172 174 184 192 193 194 193 191 189 192 187 187 187 182 180 186 187 186 182 175 167 159 146 131 125 127  88  40 106 177 196 200 178 174  57  22  53 120 180 212 227
 215 215 215 215 216 216 217 222 191 161 179 188 121  15  53 110 127 145 159 169 175 171 172 171 165 161 158 160 165 168 168 169 170 165 169 168 169 168 171 171 182 160 158 181 184 184 180 158 143 160 172 182 175 174 179 188 194 193 191 191 191 185 181 185 185 180 183 179 180 179 176 165 157 149 132 122 118  72  52 122 148 184 194 175 173  53  25  57 124 182 213 227
 215 214 215 215 215 217 218 220 204 165 184 192 152  27  45 100 125 142 158 165 171 170 173 170 171 172 167 167 168 169 171 170 173 179 182 185 183 172 165 182 178 157 161 179 185 186 181 162 147 155 165 178 184 180 175 176 182 189 188 188 189 186 181 173 173 170 174 177 175 171 171 166 155 148 135 121 112  74  85 157 162 176 190 175 171  54  26  56 119 179 209 224
 215 215 216 216 216 216 216 217 215 167 181 191 175  53  35  94 125 139 157 166 169 168 173 175 178 179 178 175 175 175 177 176 179 184 184 183 180 171 179 183 175 158 164 177 185 187 181 165 151 153 163 174 186 187 183 178 183 185 183 182 175 176 175 174 171 165 169 175 176 169 168 164 158 151 136 124 116  71 102 180 190 172 173 181 161  60  27  52 112 171 204 221
 215 215 216 216 216 216 216 216 220 174 179 194 180  76  34  94 122 138 153 165 168 171 174 172 173 174 173 171 169 171 174 176 179 173 167 173 176 183 184 181 173 162 164 177 187 187 180 162 149 157 166 171 179 187 190 184 185 184 181 178 179 178 174 178 178 183 183 178 177 173 166 160 155 148 141 122 109  71 127 200 196 183 177 170 137  46  27  48 102 160 197 217
 215 214 216 216 217 215 216 218 221 181 170 180 165  86  35  92 114 136 152 162 171 170 171 169 173 173 170 171 170 170 173 173 170 169 175 182 186 185 183 182 171 164 162 169 182 182 176 157 147 155 164 170 176 189 192 186 185 183 185 181 183 182 184 183 180 178 177 175 175 169 165 158 153 149 136 126 106  78 152 206 197 196 191 184 120  28  29  44  88 145 187 212
 216 215 216 216 217 217 218 216 220 183 160 180 157  86  32  82 110 138 155 160 165 165 165 169 171 172 169 171 171 162 171 173 176 178 185 186 187 183 181 176 168 163 161 169 179 180 172 159 147 147 162 171 178 191 198 196 192 193 191 190 185 184 185 182 182 179 173 173 169 167 159 155 153 141 128 118  97  62 156 203 195 195 192 185  99  21  30  39  73 128 176 207
 215 215 216 216 217 217 217 216 220 192 165 174 175 139  46  77 116 136 153 160 162 162 164 169 171 173 172 170 167 161 173 178 182 186 185 188 187 183 183 177 168 162 161 169 177 176 169 161 149 145 152 168 177 193 203 201 195 197 191 192 190 191 189 184 181 179 175 176 170 164 159 155 152 136 123 116  90  66 161 195 189 188 190 177  69  22  30  36  58 105 161 199
 215 216 215 215 215 216 216 216 220 196 170 164 171 189  95  69 122 136 150 159 161 165 167 171 172 170 170 171 172 172 179 178 184 187 186 187 186 183 181 179 165 158 160 165 172 175 167 162 151 144 137 157 180 197 204 203 200 201 201 198 195 193 195 192 186 184 181 176 173 171 162 154 148 137 126 113  81  61 169 194 188 183 181 125  34  26  30  33  42  78 141 193
 215 215 214 214 215 215 216 216 220 203 162 163 178 200 154  70 113 138 150 153 162 168 167 169 171 172 168 174 173 177 181 183 183 187 187 190 195 189 185 179 162 156 159 162 170 177 173 166 157 143 134 138 167 197 203 201 197 200 198 198 199 196 197 196 191 189 183 177 173 171 164 152 147 138 118 105  76  61 177 203 190 174 140  51  22  29  30  31  32  57 125 186
 215 214 214 214 215 215 216 216 219 202 161 174 188 199 185  88 107 133 143 151 155 159 167 170 171 173 179 180 183 183 182 186 188 191 193 198 199 196 190 175 154 149 159 168 173 178 183 172 161 153 144 126 136 172 200 195 191 192 193 195 196 199 198 201 196 189 182 174 174 170 164 154 142 136 116  98  75  70 178 195 182 139  57  23  29  30  30  30  31  49 116 181
 214 214 214 214 215 215 216 216 220 197 166 183 192 190 193 113  96 128 141 151 152 157 168 168 170 173 182 186 187 187 189 189 190 185 189 197 201 201 190 163 141 145 165 171 180 188 187 180 172 163 155 137 134 141 174 194 187 186 191 194 192 199 199 200 198 189 181 177 175 172 168 157 143 127 117 101  70  66 156 156 104  42  29  29  30  30  30  30  31  45 110 178
 214 214 214 214 215 215 216 216 220 198 162 182 187 185 191 125  83 128 141 150 155 162 169 172 176 176 181 186 189 189 190 194 192 184 184 191 197 197 173 143 140 149 171 177 184 195 198 187 178 172 161 148 150 154 147 180 191 187 189 191 196 196 195 197 191 188 185 179 174 174 163 153 139 117 112  98  71  60  52  40  24  24  28  29  28  28  28  28  29  41 104 174
 214 214 214 214 215 215 216 216 217 215 169 162 182 184 190 153  75 121 142 146 154 161 166 168 175 178 183 187 188 191 193 193 191 184 188 189 192 188 156 151 150 158 178 184 187 204 216 201 185 174 167 157 158 160 149 155 193 193 188 186 187 191 193 189 189 190 186 181 179 173 162 152 138 121 116  94  67  51  25  23  27  27  25  28  26  26  27  28  27  39  99 172
 214 214 214 214 215 215 216 216 216 217 211 168 154 168 188 181  83 110 134 141 151 159 165 169 175 178 181 188 190 195 195 189 190 190 187 187 194 182 156 167 165 165 175 182 185 204 225 205 189 172 160 140 128 142 152 151 191 202 198 187 184 188 192 191 195 189 177 178 174 171 162 155 142 123 113  96  63  45  29  28  29  27  25  26  24  25  27  29  29  37  96 170
 214 214 214 214 215 215 215 215 215 214 217 217 185 155 167 179  90  92 124 141 149 160 166 169 174 177 182 185 187 188 190 192 189 190 184 191 199 178 153 164 157 155 168 174 182 193 200 190 181 166 124 114 163 176 163 160 189 198 200 195 187 184 188 191 195 190 181 180 171 166 163 150 140 122  95  86  68  44  27  29  29  26  25  25  24  25  26  29  29  38  93 168
 214 214 214 214 215 215 215 215 215 215 215 217 214 190 149 149  93  64 113 136 148 154 161 166 173 176 181 185 189 185 184 185 184 187 193 200 198 182 147 134 134 133 139 155 170 179 178 176 171 139 127 158 176 170 156 174 183 188 193 193 193 184 181 185 184 185 184 180 178 169 155 146 137 119  93  77  71  43  25  26  26  25  26  25  25  26  28  30  29  38  92 167
 214 214 214 214 214 215 215 215 215 216 217 216 213 200 166 101  66  61  94 132 141 144 161 162 170 175 180 183 185 184 185 187 185 190 196 193 190 182 167 151 159 158 147 145 148 160 156 148 142 140 173 171 164 167 171 174 181 184 187 187 191 189 179 177 180 182 179 178 174 166 150 139 122 114 109  89  87  49  23  24  25  25  25  25  25  28  31  31  30  37  92 166
 214 214 214 214 216 215 215 215 216 216 216 216 213 203 178 116  68  55  74 125 135 144 161 164 168 172 175 178 178 180 184 183 183 190 190 184 185 181 179 172 167 164 171 173 162 145 135 130 146 176 176 172 171 170 170 167 172 176 177 184 183 184 185 178 175 181 181 179 168 163 154 144 115 106 116  97  73  44  22  25  25  25  25  26  26  28  31  31  30  38  92 166
 214 214 215 214 215 215 215 214 215 216 216 216 214 207 189 142  78  51  64 111 129 142 157 163 168 170 173 176 177 175 178 178 182 185 181 182 182 176 175 172 170 168 172 169 175 182 173 169 178 178 174 154 169 162 148 155 164 172 171 166 171 166 172 173 163 164 178 177 172 165 154 139 111 104 113 101  80  40  23  25  25  25  27  28  28  29  31  33  32  40  96 169
 213 213 214 214 215 215 213 214 214 214 215 215 215 210 195 158  88  56  66 105 119 129 150 152 163 171 175 174 175 175 176 181 181 179 177 175 176 173 165 158 160 158 172 166 165 176 185 188 180 161 170 162 158 171 146 152 152 157 163 148 157 159 152 159 154 149 170 177 174 166 156 135 120 113 114 102  86  37  24  25  27  27  28  28  30  30  32  33  34  44 102 172
 213 213 214 214 215 215 213 214 214 214 215 215 214 212 200 169 100  58  58  83 108 107 132 154 157 168 172 174 175 179 180 170 163 166 169 165 162 167 156 153 136 154 168 165 153 158 177 193 185 152 172 168 157 157 150 143 140 147 148 135 141 155 145 138 136 144 160 183 180 161 153 136 120 119 109 102  72  32  26  28  27  28  27  27  29  30  32  33  34  50 111 177
 213 213 214 214 215 215 215 214 214 215 215 215 215 213 204 176 114  55  63  79  98  98 121 148 154 166 173 175 178 176 164 161 157 156 157 146 144 155 152 147 146 149 163 152 158 166 182 186 196 164 165 155 161 155 162 147 144 162 147 126 126 155 126 129 129 135 165 190 178 168 150 127 113 116 117 103  68  30  28  28  27  27  27  27  27  28  30  33  35  58 122 182
 213 213 214 214 216 215 215 215 215 215 215 215 215 214 206 182 125  59  56  63  90  98 131 141 150 167 176 180 174 151 149 147 130 149 145 130 130 150 144 150 150 154 164 155 163 169 182 181 189 174 173 157 168 159 159 158 162 157 142 130 108 114 125 135 161 160 177 195 185 176 151 124 125 113 106  90  62  28  29  28  28  28  28  27  27  27  30  32  39  74 137 188
 213 213 214 214 215 215 215 215 215 215 215 215 215 215 208 185 133  61  58  64  85 120 140 131 151 168 178 179 146 120 131 124 123 124 128 125 132 144 145 148 147 168 171 176 172 176 190 182 186 191 182 163 164 156 151 149 149 135 114 108 129 148 175 173 178 191 194 189 183 173 143 108 124 124 110  78  46  24  27  28  28  28  28  28  29  29  30  36  53 101 159 198
 212 213 213 213 214 215 215 214 214 214 214 215 215 214 209 189 139  65  49  60  94 129 134 134 142 164 179 168 138 117 117 117 102  99 116 109 123 144 143 151 147 157 157 160 162 166 177 177 166 161 154 143 138 135 126 128 124 126 140 150 169 190 194 184 185 196 196 189 177 164 136 116 125 123 107  69  33  24  26  28  29  29  28  30  31  32  38  51  84 134 178 208
 212 212 213 212 214 214 214 214 214 214 215 215 215 214 210 192 145  68  39  68  91 115 131 149 136 157 172 171 162 139 145 156 145 154 137 101 106 115 121 131 129 132 132 134 137 136 137 141 144 149 153 153 150 148 138 135 144 152 159 169 185 192 188 179 185 190 195 180 167 147 111 133 130 113  93  59  32  26  29  29  27  28  29  32  39  50  67  93 127 164 193 213
 212 212 213 213 213 214 214 215 215 215 215 215 215 215 211 194 149  75  34  57  80 106 130 136 130 147 165 179 183 173 178 188 195 192 178 159 151 142 140 142 146 151 152 157 163 166 163 170 177 179 174 168 157 155 152 155 164 167 167 177 189 188 181 178 186 183 193 173 154 127 115 133 123  97  66  38  27  28  29  29  27  27  31  40  61  89 115 139 163 186 203 218
 212 212 214 213 213 214 214 215 215 215 215 215 215 216 212 197 158  89  37  38  68  97 124 132 116 129 158 171 187 186 182 180 189 196 193 177 164 156 155 152 153 152 153 158 168 174 172 178 176 174 172 170 167 172 174 179 175 167 171 186 185 183 180 182 179 184 186 173 142 126 133 123 120  87  51  32  26  28  28  28  27  28  32  51  90 130 156 172 185 199 211 222
 212 212 213 213 213 213 214 214 214 215 215 215 215 215 212 200 170 113  58  38  57  81 104 136 114 120 145 163 178 185 181 178 182 190 193 190 176 165 165 166 171 172 169 172 177 177 179 181 178 175 179 181 185 182 184 178 167 170 178 184 181 182 177 173 177 183 182 168 140 130 129 132 107  73  56  29  26  27  27  27  27  29  34  63 117 157 180 191 200 207 217 223
 211 211 212 214 213 214 214 214 215 215 215 216 215 215 212 203 181 142  98  64  51  74  97 125 117 115 118 156 172 182 190 177 179 182 186 188 184 175 171 173 175 182 183 183 181 180 175 171 184 182 181 182 181 172 169 170 174 178 181 181 178 178 171 167 172 174 169 158 142 132 135 128  86  60  49  26  28  27  27  27  29  31  38  76 138 177 195 203 209 214 220 225
 207 207 209 210 211 213 214 213 214 213 213 214 215 215 213 206 191 166 138 111  84  65  83  99 112 121 115 145 165 178 184 176 182 179 180 183 179 178 178 173 169 171 178 176 172 174 171 182 185 177 167 163 171 172 170 180 183 177 177 178 178 171 170 172 163 164 158 153 145 130 126 108  67  55  50  26  30  27  27  29  30  32  41  86 151 189 205 212 216 222 224 226
 206 206 205 204 205 212 214 213 213 213 214 214 215 215 214 209 198 184 168 150 129 104  69  70 110 121 121 124 149 167 173 172 177 179 178 181 177 175 177 172 174 168 168 169 159 157 163 168 177 177 170 165 181 181 182 178 177 174 175 172 169 168 174 162 153 161 152 155 144 124 115  95  53  50  96  30  29  28  28  30  32  33  43  96 160 196 212 219 222 224 226 225
 211 212 209 200 200 209 213 213 213 214 213 214 215 215 214 212 205 197 186 174 161 155  91  47  91 120 113 115 141 156 168 171 178 182 179 177 180 178 175 176 179 176 178 183 181 181 166 171 182 181 181 186 185 184 184 177 174 168 174 168 166 174 173 154 141 156 149 155 131 111 101  70  52  81 153  46  25  28  28  30  31  32  45 103 167 202 218 224 226 226 226 225
 214 214 211 200 199 209 213 213 213 213 213 213 214 214 214 212 209 205 198 190 191 144  55  62  53 100 121 117 130 151 164 170 179 180 170 172 180 177 176 180 180 179 184 191 192 191 193 194 190 191 191 188 184 183 182 179 173 169 172 169 176 172 157 152 141 140 135 155 128 103  71  42  91 122 185  76  20  27  26  30  30  32  51 114 174 206 221 227 226 226 225 225
 215 215 211 200 199 210 214 213 213 212 212 212 212 214 214 213 212 210 206 211 193  31  83 142  44  60 106 116 131 146 149 158 166 170 169 179 179 179 175 171 180 181 184 185 187 191 193 193 194 191 187 185 185 182 175 172 173 171 173 174 175 159 156 142 133 130 145 132 110  77  29  66 138 133 199 105  18  28  27  28  29  32  53 118 178 208 223 226 225 224 224 225
 214 216 211 201 200 210 213 213 212 212 212 212 212 214 214 214 213 212 224 207  63   0 137 196 100  34  66 106 124 141 149 154 155 153 169 176 169 179 184 173 177 179 178 177 181 189 188 186 194 193 186 186 181 174 171 169 168 167 174 170 162 143 135 116 115 132 146 102  81  40  63 143 145 144 205 128  19  28  27  28  30  33  57 122 180 209 222 225 224 224 224 225
 214 214 211 202 201 210 213 211 211 211 212 212 212 213 214 215 215 232 197  54   0  40 169 204 154  95  33  84 107 129 150 158 152 146 147 152 164 173 170 180 178 176 180 171 171 175 187 191 190 186 185 186 179 166 165 165 154 159 161 162 152 124 110 119  88 115 110  75  42  58 153 171 139 168 203 144  28  19  30  28  30  33  61 130 184 211 222 225 225 224 224 224
 214 215 211 202 201 210 214 212 211 211 212 212 212 212 212 217 233 167  32   2  10  82 183 205 182 147  74  45  66 107 130 143 148 136 120 130 155 156 159 165 169 176 175 174 167 172 181 183 180 181 181 181 174 165 159 154 152 154 136 138 140 117  92 100  76 103  73  41  70 154 182 163 146 199 193 152  41  10  32  30  28  34  68 137 187 212 224 227 225 224 224 224
 212 215 211 202 202 209 213 212 211 211 212 212 212 211 217 227 130   9   5  16  13 119 193 198 207 157 149  79  37  60  93 115 124 115 101 104 131 142 145 155 161 159 161 169 163 166 170 162 167 182 179 170 168 154 151 137 139 133 127 106 106  97  83  61  70  72  53  85 168 190 177 160 168 220 181 163  47   6  22  30  30  34  76 146 191 213 223 227 225 225 224 224
 208 212 211 201 201 209 212 212 211 211 211 211 211 221 220  95   0   9  15  14  24 145 208 192 218 181 165 153  84  46  47  74  84  86  79  83 110 127 134 137 141 149 157 153 154 158 164 154 165 173 172 165 160 149 137 131 130 117 122 115  75  60  59  60  57  46  98 173 191 180 176 163 203 216 180 170  54   5  15  18  27  39  86 154 194 216 224 226 225 224 223 223
 199 206 209 204 203 209 211 210 211 211 211 211 225 206  70   0  14  16  17  17  37 162 214 201 206 215 168 181 165 116  67  55  46  65  57  62  86 101 105  95 123 135 138 142 134 144 154 155 158 165 161 158 149 142 129 135 127  93  82  78  52  56  54  49  48 118 183 187 184 184 172 188 228 199 190 169  53   7  14  15  14  35  99 161 199 218 224 225 225 224 222 220
 187 199 206 204 205 210 210 211 211 211 216 230 174  42   0  13  16  17  18  18  51 173 215 213 201 223 198 168 177 181 153 108  47  49  48  53  51  55  69  89 110 113 129 138 129 133 143 154 153 159 141 137 143 132 121 121 118  91  61  53  46  44  44  57 127 189 185 187 188 184 183 227 217 199 201 165  49   9  13  16  13   9  77 178 203 218 224 226 225 223 218 215
 188 192 201 202 206 210 210 211 211 224 208 110  13   3  16  15  16  18  17  19  59 180 214 217 210 209 226 185 175 181 181 175 136  69  45  45  38  39  58  85 101 114 119 125 126 131 125 137 140 137 135 128 138 107 121 111 108  76  57  54  43  41  81 158 192 191 188 187 189 183 219 231 210 213 200 155  43  11  11  15  14  10   8 107 217 224 223 224 223 219 210 206
 197 192 197 203 207 210 210 219 224 153  42   0  11  19  18  17  16  15  16  20  64 183 211 216 217 213 226 225 179 180 179 183 190 158 105  62  40  44  46  50  75 107  90 119 116 114 108 113 111 108 112 110 111  98  89  68  54  50  53  47  64 128 181 193 190 189 189 193 187 212 239 219 219 219 195 148  36  10  12  13  14  14   9   2 105 230 231 222 220 213 198 197
 201 198 197 207 215 225 222 189  93   3   2  16  15  15  15  15  15  15  15  16  65 188 211 217 221 221 219 233 211 172 179 190 189 190 183 153 104  58  42  39  37  46  61  66  76  85  76  79  92  98  95  89  86  84  62  53  48  36  51 102 171 199 192 190 191 190 193 189 211 241 228 225 227 216 191 140  30  13  10  12  13  12  10  10   0  79 220 234 217 206 184 188
 206 200 208 221 201 144  73  18   0  10  13  13  12  12  13  14  14  15  15  12  68 191 212 222 223 224 226 227 237 205 180 186 189 186 184 187 174 135 102  68  42  37  45  44  50  70  58  76  89  90  95  73  62  55  58  49  60  94 149 189 197 190 192 194 192 195 188 206 242 236 228 231 227 213 184 133  28  14  13  12  12  12  11  12  13   0  51 192 233 199 175 183
 226 205 159  93  33   0   0   7  12  11  12  12  14  12  11  13  13  12  16  12  66 193 216 226 226 228 230 231 234 238 196 183 188 182 181 186 187 179 167 158 127  89  69  61  55  47  49  58  62  55  48  40  43  73  88 107 142 175 188 190 189 194 193 192 200 193 206 239 240 235 234 230 227 209 180 123  24  15  14  12  13  12  12  12  12  12   0  19 138 203 179 183
 119  57   8   0   5  12  11  12  12  13  12  12  12  12  12  13  14  14  18  13  65 192 219 229 232 234 231 232 233 238 236 198 190 190 188 186 185 185 175 170 175 163 159 147 123  92 105 111 105 116 119 112 131 157 173 180 178 184 189 191 195 196 194 199 196 206 239 242 237 237 238 232 225 204 175 109  20  16  13  12  13  12  13  12  12  11  11   5   0  76 165 187
