P2
# Generated by OpenCV 4.2.0
92 112
255
 177 178 175 175 177 179 178 175 172 159 137 123 123 124 123 127 132 148 163 164 155 160 173 183 183 180 178 187 151  37  13   8  15  31  38  32  27  20  19  21  23  21  22  23  23  23  21  21  17  13  15  19  24  27  35  39  38  35  24  16  13  28  54  25   1  25  18  33  28  18  26 155 197 182 182 174 170 174 181 181 179 175 168 164 153 158 163 166 163 156 143 131
 176 175 174 175 175 177 177 175 174 163 144 124 119 121 127 132 140 155 172 177 169 170 177 184 189 195 195 182 118  34  19  25  27  22  17  13  18  19  22  25  27  35  39  34  28  33  39  32  22  20  21  19   9   7  11  18  27  32  41  40  22  13  24  43  36  20  25  22  33  20  17  33 148 190 179 171 166 171 182 183 176 171 164 160 150 151 157 159 147 139 128 126
 176 175 173 174 176 176 176 175 176 170 159 140 128 132 140 152 163 171 181 184 180 181 183 190 165 115  71  46  27  19  16  13   8   8  13  17  22  25  28  29  29  29  27  40  41  32  32  36  37  34  25  27  28  24  17  11  10  12  15  30  43  25   5  19  39  43  33  25  39  26  14  13  30 160 186 173 172 177 183 183 177 173 166 158 148 145 153 158 153 144 140 141
 176 176 176 175 176 178 179 179 180 181 174 163 156 157 164 172 180 182 185 182 183 187 201 123  38  22   7  16  17  14  16  16  17  20  24  29  34  33  31  35  33  30  28  29  39  54  47  34  38  40  45  50  34  30  23  17  12  13  15   9  20  41  24   4  15  34  45  39  31  39  22  29  14  51 182 185 180 181 183 183 183 180 169 156 148 152 161 172 174 170 166 167
 178 178 178 177 177 180 181 183 182 182 179 176 176 176 178 182 184 184 186 190 194 170 119  30  16  22  17  16  16  15  14  22  32  40  41  36  32  28  26  25  22  18  18  15  15  18  30  34  41  40  31  42  52  38  28  27  18  18  16  15  10  21  39  19   6  15  35  46  39  41  38  27  28  11  92 190 184 182 183 184 185 182 166 155 159 168 176 181 183 184 182 181
 180 181 179 180 179 179 181 182 183 181 178 177 180 180 179 178 182 183 170 150 103  29   5  14  16  19  17  10   8  16  26  31  31  21  12  13  21  26  27  28  29  30  31  25  20  21  17  13  14  23  34  33  31  29  40  37  10  17  26  19  15  13  33  41   8  13  19  37  42  52  42  25  24  26  22 140 184 179 184 184 185 178 166 162 173 179 182 184 184 184 187 185
 181 181 180 181 180 181 181 180 180 179 179 177 180 179 179 174 157 129 143  75   9   8  10   9  13  15  12  13  25  32  20   9   6  11  21  29  28  28  27  27  33  34  36  39  33  29  29  33  30  13   6  14  33  38  28  39  38  15  14  25  26  13  14  51  29  10  20  27  39  43  40  26  24  29  13  49 170 186 186 182 181 177 169 173 180 181 179 181 184 183 185 182
 182 181 180 180 181 180 181 182 179 178 178 180 180 178 178 177 176 188 115  20  19  19  22  17  15  20  30  25  14   9  12  14  16  16  15  13  12  11  10  10  12  17  22  28  35  33  35  31  34  48  27  14   4  19  33  30  41  58  35  13  29  23   1  40  46  16  22  25  30  42  42  35  24  31  22  19  88 146 170 186 172 167 168 177 178 171 168 169 173 173 176 173
 183 181 181 182 181 180 181 180 179 178 179 180 179 175 170 171 186 122  28  24  29  23  14  19  32  30  14   9  16  20  19  15  18  15  15  15  15  16   9   6   5   7   8  12  22  36  35  39  40  34  46  41  24   9  10  30  37  40  66  42  23  22  12  16  41  34  18  29  31  39  45  37  23  27  27  23  45  41  51 105 158 160 159 170 167 156 149 149 151 153 155 154
 181 181 180 181 182 181 181 179 178 179 180 179 171 164 163 171  98  26  27  26  21  18  21  24  23  16  24  27  22  16  14  11  11  11  10  16  17  12  18  13  10   5   5   7   8  18  31  42  46  39  41  63  37  13   9   9  27  37  59  65  44  28  26   7  28  48  35  30  40  33  48  35  31  30  29  24  42  58  38   9  45 143 163 162 155 142 136 135 140 137 137 149
 180 179 180 181 182 181 180 179 179 180 178 174 164 152 160 109  30  26  22  17  18  26  24  17  20  24  17  13  13   6   5   5   6   7   6   4  21  23  12  20  13  17  14   8   9  13  14  23  53  44  44  64  65  22   7  11  21  32  44  59  55  37  43  15  15  50  41  26  44  32  43  39  37  39  33  27  35  55  72  46  21  81 169 164 157 149 153 157 156 152 149 163
 176 178 179 180 182 180 175 173 174 177 178 172 161 149 125  61  33  23  15  16  20  22  24  22  17  11  10  14   7   7  10  10  16  20  16  12   5  23  21  17  22  19  26  24  15  14  15  13  25  62  45  43  52  47  22   7  12  25  36  62  56  34  40  26  11  56  43  24  46  34  43  41  39  43  44  34  34  52  82  67  48  43 118 175 166 170 175 177 176 173 173 178
 179 180 180 180 180 175 166 157 159 163 168 169 166 130  67  29  19  14  14  22  31  27  21  20  21  17  18  23  18  14  17  21  21  27  21  10   7   4  42  30  27  27  16  34  26  20  11  10  15  36  75  44  44  31  48  17   7  11  42  49  51  33  31  34  14  55  41  24  41  41  52  50  42  45  66  33  37  41  88  81  42  31  39 128 189 186 190 185 182 180 181 181
 180 182 182 182 178 169 153 141 137 143 155 166 167 129  41  15  19  30  28  27  21  14  14  11  10  10   8  13  23  28  12  13  24  24  19  19  11   4  16  46  34  41  29  16  34  28  25   7   9  26  58  87  36  42  46  59  13   9  32  60  36  28  31  41  15  46  46  27  33  45  63  62  42  54  59  37  44  34  86  91  52  38  27  48 112 104 166 193 173 170 170 171
 180 182 182 180 172 161 145 138 134 141 154 163 149  99  38  16  23  27  22  18  19  18  14  13  14  13   8   6  14  33  41  13  11  27  32  35  25  20  11  25  29  50  62  22  24  22  35  21   6  22  18  96  55  38  56  55  37  14  16  66  48  29  32  54  18  57  62  28  31  43  71  77  52  46  41  49  45  40  58  90  61  34  26  37  39  26  47 155 171 150 151 162
 179 180 181 176 162 145 136 138 140 152 163 158 108  71  43  26  25  21  22  21  21  19  24  18   5   7   5   5   4  15  35  40  21  15  29  46  33  20  12  19  29  31  87  41  31  34  26  28  14  14  24  37  81  19  64  58  41  28  15  54  57  50  38  68  27  83  62  44  34  35  75  79  56  39  42  63  42  54  44  89  75  38  38  30  45  84  56  70 166 146 148 163
 180 181 177 168 147 131 132 136 142 152 153 146 118  66  27  24  23  27  20  15   6   4   7  25  24   4   9   5   3   6  18  34  38  24  16  32  52  39  31  12  30  16  59  64  37  37  38  29  23  18  33  16  66  34  47  83  52  46  24  43  55  72  45  59  41  83  45  52  27  34  75  73  59  37  72  72  44  51  34  59  56  56  50  35  37  57  47  74 170 149 150 167
 180 179 176 165 147 138 143 149 152 156 157 154  90  23  21  21  26  18  10   9  11  12  12  12  44  22  14  16  17  12  14  18  33  37  27  16  31  52  56  58  39  35  40  64  43  31  54  37  30  23  41  36  45  62  24  76  62  53  39  45  56  87  60  41  59  64  46  53  23  53  73  72  60  65  94  61  55  35  31  51  64  61  62  50  38  35  30  68 174 155 152 169
 180 179 176 168 162 160 163 170 172 173 171 105  19  18  23  23  17  14  13  12  12  18  17  20  19  32  26  20  25  26  25  22  21  34  36  37  30  36  52  68  59  41  38  73  38  37  50  50  37  35  48  61  35  70  49  45  67  61  55  51  62  84  56  60  69  57  68  53  33  67  68  65  66  77  70  65  44  33  40  78 104  90  74  53  39  35  30  47  93 164 166 174
 180 178 173 171 170 171 176 180 184 175 121  14  14  27  21  19  17  16  13  15  22  22  19  17  17  14  24  27  23  24  28  32  30  31  39  44  44  46  44  55  68  59  49  73  63  51  56  63  62  52  52  71  55  61  79  51  66  74  70  71  85  78  91  79  75  84  82  55  47  60  68  65  61  69  70  56  39  40  42  86 109  87  67  52  39  32  32  46  79 176 178 178
 180 177 170 168 173 178 178 181 188 113  18  14  24  25  22  21  23  20  17  16  16  20  23  24  21  23  22  27  30  28  30  28  33  36  39  47  49  54  56  57  65  63  66  71  72  68  85  89  84  88  80  68  78  76  92  79  65  95  81 101  95  90 115  99  97 104  80  61  59  65  69  62  75  91  76  56  53  48  57  89  87  72  61  48  37  32  37  38  75 158 184 180
 178 177 169 168 174 179 180 182 193  56  17  21  22  25  24  26  17  11   8   6   7  12  19  26  30  28  32  31  32  34  32  33  33  37  41  44  49  57  71  78  74  80  79  85  87  82  88 110 110 115 121  99 102  96  86 109  76 101 100 115 111 118 129 123 126 125 101  94  80  78  89  92 107 102  80  84  71  53  69  89  92  84  72  56  40  36  34  35  30 111 186 176
 176 174 167 165 173 178 179 187 131  18  20  20  27  27  24  13   5   5  10  16  19  20  20  20  23  29  32  30  32  30  33  40  44  43  45  50  55  61  64  82  87  91  95  97 110 111 116 117 138 151 144 139 133 111 101 112 105 103 123 119 121 158 168 169 159 151 135 117 113 112 107 111 118 103  99  98  83  80  95  96  92  75  64  53  44  43  41  60  54  63 163 169
 170 169 162 162 170 178 182 176  40   8  16  22  25  20  11   6  10  14  15  13  12  10   9  10  13  15  21  27  29  37  45  52  54  59  65  72  75  76  91 112 122 131 135 141 142 142 151 157 164 176 179 170 167 156 134 123 134 128 144 136 155 188 188 194 186 183 173 168 167 149 138 127 122 126 127 122 103  82  72  73  79  81  78  70  69  50  44  71  47  42 108 168
 168 167 162 162 166 172 186 128  13  12  21  22  15  12   9  10  10   7   5   7  10   9  10  11  13  17  17  22  34  47  61  73  81  87  94  99 106 109 119 134 137 153 166 175 181 178 171 177 183 184 185 186 183 181 168 157 157 145 146 161 189 196 198 200 196 199 200 195 191 184 176 163 157 160 160 149 129  95  81  74  79  86  76  70  72  59  45  63  35  65  95 177
 169 171 166 157 155 163 183 128  16  19  22  20   8   6   6   5   5   5   7   7   7   6   5   6   7  10  16  29  43  67  88  99 103 107 125 128 126 120 129 134 148 156 168 172 183 185 187 187 182 186 189 188 184 188 188 178 173 169 171 184 195 194 197 196 195 200 199 193 197 199 201 193 191 184 188 175 149 124 113 102  94  90  88  84  75  65  43  27  40  66 123 185
 170 172 169 160 154 162 174 188  68  18  16   9   4   5   6   7   8   8   7   7   7   8   6   6   9  14  25  41  62  90 109 112 117 129 138 132 127 127 137 141 153 163 167 169 179 184 186 186 187 186 186 186 186 183 183 187 188 190 194 193 196 198 198 200 200 199 199 197 198 200 201 201 199 203 202 193 181 163 142 119  92  89 112 123 105  84  66  43  39  56 174 176
 169 172 172 168 167 174 182 166  64  14   7   5   6   8  12  12  12  12  11   8   9   8   6   7  12  21  33  50  80 104 101 114 119 125 140 138 129 132 141 145 153 159 162 168 179 182 186 191 187 187 186 186 188 187 184 191 195 193 194 193 194 198 200 197 197 197 195 196 198 195 198 198 198 198 196 199 197 187 168 148 114  72  73  67  60  52  44  40  38 118 193 176
 169 171 173 170 169 174 186 112  20  17   9   5   9   9  10  10  10  11  10   8   8   6   7  10  17  26  36  60  83 101 117 115 117 128 135 138 133 134 138 142 150 148 159 172 174 181 187 187 190 188 185 183 184 190 188 191 196 195 195 193 195 195 200 199 199 197 193 195 197 191 196 196 195 197 195 196 197 190 184 162 134  76  68  62  34  28  27  38  34 148 179 177
 160 165 167 166 168 175 188  91  24  30  15  13  11  11  10  11  11  10  10   9   8   8   8  12  20  27  43  68  89 110 117 115 117 127 134 125 129 135 137 137 143 152 161 168 168 180 182 187 188 188 186 187 187 188 192 190 193 198 200 194 199 197 195 199 201 198 196 195 195 194 193 193 193 197 195 191 192 195 190 177 147  90  64  63  50  34  30  31  27 135 167 159
 155 162 167 171 174 179 174  45   6   6   8  12  12  13  14  15  13  12  11   9   8   8  12  17  21  30  48  73 102 112 114 112 109 127 138 127 123 137 140 138 140 154 167 167 169 175 176 180 186 196 188 182 183 184 198 198 194 197 206 201 203 202 198 195 194 196 194 195 196 193 193 194 196 199 192 192 193 191 189 188 158  99  83  61  41  36  34  17  24 111 135 153
 163 167 173 175 177 184 152   9   1   9  10   7   6   8   9   8  10  12  11  10   9  10  13  17  24  37  59  78  98 111 107 110 115 124 126 128 133 131 136 142 141 157 161 163 167 172 177 181 193 199 189 181 188 196 197 198 203 205 209 206 212 209 201 191 191 194 192 193 196 195 195 196 195 194 195 192 193 195 190 185 175 119  82  69  43  32  30  26  25  37 118 175
 170 173 177 179 178 190 114   1  10  25  29  15   9   9   9  10   9  11  11   9   9  10  12  19  27  42  60  78 101 111 112 116 120 124 119 125 127 128 130 137 153 152 154 158 163 169 175 183 186 195 187 186 194 193 194 199 203 201 207 214 209 207 203 194 196 199 189 193 198 201 201 198 193 194 197 190 191 196 193 182 185 134 101  78  46  28  22  22  30  47 162 186
 171 176 178 179 177 186  76   0  10   9  11  12  15  14  12  10  10  11   9  10  10  12  16  23  32  45  57  80 101 110 105 113 120 123 117 129 129 129 137 143 154 156 158 169 166 170 174 178 185 187 190 194 195 197 203 203 196 189 197 205 202 202 199 199 201 199 200 208 207 206 209 205 199 195 194 191 189 192 193 186 183 140  91  93  53  33  55  42  35  48 168 188
 169 172 176 177 178 186  69   0   6   3   2   4   8  12  15  14  12  11  13  14  14  15  19  22  28  39  59  82  94 106 110 112 118 119 129 134 130 133 143 148 153 156 159 167 166 166 169 172 178 186 192 191 190 198 200 195 200 202 199 203 200 197 198 196 199 198 202 202 206 200 208 205 198 195 194 194 187 193 193 190 184 143  83  63  50  46  66  48  15  47 180 185
 167 171 176 179 180 192  96   2   7   4   8   8   6   5   9  10  11  11  13  13  14  14  17  20  28  42  62  77  94 108 116 111 112 113 132 137 130 135 140 146 153 156 158 163 160 159 160 155 173 179 186 186 188 197 202 202 198 197 198 197 197 195 198 196 200 204 200 202 207 198 202 199 200 191 192 193 190 197 192 190 186 154  86  49  36  45  50  41  10  65 188 183
 170 175 177 179 181 192 133  13   2  11  10   7   6   7   8   7   9   9   9  11  12  12  17  23  31  44  67  84  96 107 115 112 111 119 132 133 132 131 140 143 149 157 156 165 159 162 163 162 169 167 173 181 183 193 197 202 200 194 199 201 193 193 197 202 206 205 208 209 206 209 206 205 200 197 192 188 188 195 195 189 188 172 106  54  32  31  47  48   3  75 192 183
 175 176 176 177 179 186 160  34  20  25  14  12  12  11  12  12   9   9  11  10  10  13  16  21  32  52  67  71  98 110 112 116 116 129 130 128 134 139 140 142 150 160 164 165 165 168 172 172 174 170 175 186 187 190 195 195 196 190 193 192 195 198 199 204 208 203 206 205 206 206 204 199 199 195 191 192 189 192 190 186 190 178 106  56  39  28  41  54  16  88 194 184
 175 178 178 177 178 185 151  77  57  24  13  12  12  12   9   8   8  10   9   8  10  11  15  23  36  55  66  74 101 103 105 117 122 127 136 133 129 138 143 141 150 152 155 160 157 152 175 175 167 166 164 186 191 194 200 197 193 191 192 192 194 194 190 194 196 195 196 196 198 198 193 196 200 195 185 190 194 197 189 183 188 184 119  62  44  35  31  39  47 122 193 181
 178 180 178 177 178 182 155 113  59  12   9   7   8   8  10  12  12  10   8   9   8  13  19  24  37  55  72  82  92  99 106 119 132 135 137 132 132 136 145 145 143 150 160 160 165 164 176 177 169 178 172 177 186 187 194 197 194 191 193 190 192 197 200 199 201 201 205 206 202 201 195 196 193 193 189 181 187 197 193 186 183 180 123  63  47  42  38  63  74 161 181 174
 179 181 181 179 179 179 170 146  52   7   7   7   5   7  10   9   7   7   6   8  13  15  23  35  38  55  73  82  87  99 109 116 131 134 138 135 135 136 145 150 146 152 163 165 166 176 179 182 183 185 178 180 190 189 191 195 191 190 196 194 189 196 201 201 199 201 199 203 202 198 200 201 195 194 190 184 188 193 193 189 182 178 126  50  47  40  53  97 118 177 170 167
 178 181 180 179 178 177 175 158  58  16   9  10   9   9   7   6   6   5   5  12  14  18  31  50  60  65  74  87  85  94 109 119 125 133 138 135 132 139 151 154 154 155 156 164 168 176 174 180 178 183 184 184 187 196 202 195 190 189 194 201 189 198 198 201 202 202 199 199 205 198 197 194 195 196 188 189 194 191 192 190 184 175 123  47  35  32  57 116 175 174 175 172
 178 181 181 177 177 175 180 163  50  15  11   9   8   7   6   5   4   4  10  14  14  23  42  58  70  75  75  84  87  92 105 109 116 130 138 138 143 138 148 149 151 150 154 163 171 168 168 172 173 183 183 180 192 198 203 204 188 185 193 196 194 200 199 202 204 204 204 202 203 202 200 198 194 197 195 192 194 190 189 188 185 188 122  42  37  23  68 142 179 177 178 175
 179 180 179 176 174 175 179 170  44  18  16   7   7   7   6   5   5   7  11  16  20  32  52  64  72  77  78  78  81  88  94 100 114 129 137 144 151 147 150 147 157 155 160 162 165 167 171 174 175 177 183 178 188 201 199 202 194 187 194 195 189 195 198 203 206 210 211 216 214 203 197 201 191 200 201 196 197 193 191 188 187 188 111  38  32  35  86 143 165 175 171 165
 179 178 178 176 176 176 182 168  40  27  18  10   7   5   5   6   6   9  11   9  18  36  60  68  75  81  79  79  82  84  89  97 108 133 139 146 153 157 157 157 163 158 160 156 169 172 172 176 180 180 188 183 189 202 204 206 201 194 190 191 191 196 199 205 209 210 214 215 209 203 192 199 197 200 196 195 197 195 191 190 185 183  88  33  34  26  55 128 166 166 157 152
 179 178 177 176 177 177 190 140  14  24  13   9   9   8   8   7   7  10   6  11  23  42  67  73  75  77  79  79  81  83  89  97 103 123 129 128 130 140 143 146 153 151 157 157 160 158 166 174 178 186 188 189 198 203 205 210 203 198 194 197 197 196 197 203 207 211 215 209 205 205 200 204 201 191 199 193 198 193 194 189 180 176  69  25  40  67  61 104 174 167 161 158
 178 178 178 177 175 182 189  82  12  26  13   9   7   7   7   6   7   5   7  18  24  46  71  76  77  78  77  75  80  84  87  89  93  87  69  65  78  96 104 118 125 125 136 131 134 141 149 156 164 181 181 180 185 191 201 207 198 194 198 195 196 190 197 207 202 208 212 208 204 201 196 197 199 197 196 186 192 190 196 187 178 166  49  31  37  98 113  88 171 178 174 170
 178 178 178 180 183 169  98  17  18  37  30  14  11   9   8   6   5   7  10  16  26  57  77  80  81  80  76  73  76  70  68  67  58  56  53  56  62  66  73  74  76  77  78  72  67  71  82  99 115 139 160 167 173 182 190 196 192 194 202 189 190 190 191 191 200 195 194 198 197 186 184 189 191 185 159 137 143 147 174 187 173 153  35  28  35 129 112  90 177 173 167 168
 177 178 180 175 131  51  18  12  27  75  69  48  13   6   7   5   8   8  11  20  34  65  82  82  83  79  74  72  61  50  36  44  50  47  50  51  51  58  65  58  55  51  44  46  59  55  51  52  75  98 118 138 151 161 173 187 190 194 202 190 182 181 177 179 186 166 157 153 150 135 125 128 129 119  98 101 132 150 158 165 175 143  32  26  24  99 100  96 168 155 143 150
 176 177 180 176 124  68  34   7  41  79  61  52  40   9   4   9   9   9  16  24  39  76  84  82  84  81  68  65  58  50  44  43  49  58  69  82  72  64  64  78  73  68  67  65  59  61  60  57  56  74  94 119 142 141 160 186 193 190 198 189 175 145 159 161 134 118 103  78  73  79  83  83  83  99 103  95  94 116 124 122 141 134  35  26  36  45  45 117 151 141 133 139
 178 176 176 179 167 114  50  10  58  61  31  36  51  32   5  10  14  15  18  24  47  78  88  86  83  82  72  64  58  61  63  69  73  86 109 132 145 146 143 151 151 134 117 115 101  84  78  75  70  81  86 107 135 148 164 179 195 195 195 187 164 124 142 134 110  95  65  65  75  81  94  96 104 112 113 128 148 131 100 101  96  99  34  25  50  54  35 130 151 146 146 155
 176 176 177 178 177 104  56  30  65  53  32  41  61  48  11   9   9  14  20  31  56  78  93  88  84  77  77  73  64  70  83  96 104 116 135 147 155 166 174 159 154 146 133 122 115 112 105 108 101 105 110 106 112 146 162 168 173 195 198 185 156 135 148 145 130 121 116 125 119 118 128 142 165 169 172 180 179 152 145 127 125 111  35  21  44  63  31 139 164 160 165 170
 175 177 177 179 181 160 129  57  65  51  30  47  73  52  21  11  12  15  24  35  59  76  92  86  84  84  82  78  77  84  85  88  94 108 122 142 148 133 118 115 125 142 149 142 110  80  70  87 103 105 117 117 118 132 160 162 160 184 192 182 168 160 167 165 166 181 173 159 155 163 171 185 195 198 192 196 194 185 178 172 137 120  44  24  39  34  67 176 169 174 173 178
 174 176 178 177 178 182 144  41  59  51  29  64  79  62  35  10  17  17  23  35  60  80  92  92  90  83  83  85  82  88  86  83  81  90 109 103  79  73  95  94  89  83  93 120 127 136 105  54  67  85  91 102 113 129 148 162 174 188 202 193 184 181 184 182 180 160 116  95 103 111 126 137 137 155 171 186 193 184 186 183 158 149  57  25  15  65 172 172 175 178 177 181
 177 176 176 177 178 182 165  43  49  61  41  85  86  80  40   8  19  18  26  44  71  84  90  90  95  90  90  95  91  89  96  94  99 113  84  54  63  59  49  29  25  11  62  66 111  94 112 114  64  64  69  74  88 111 136 157 171 186 204 203 203 196 181 165 129  82  82  86  88  85 105 139 151 148 129 143 175 180 182 178 173 169  70  21  67 177 177 165 183 181 182 182
 174 176 176 177 178 179 181 120  47  62  65  97  69  47  25  17  20  21  30  45  68  84  91  90  95 103 107 106 103  98 107 103 116  98  61  57  51  54  53  42  32   5 113 118 218 182  89  90 108  72  59  59  64  80 113 144 168 191 208 208 201 191 168 131  97  96  74  38  22  27  39  48  79 105 155 131 126 166 173 184 188 176  78  28 137 184 161 182 182 181 181 181
 170 172 174 174 176 177 180 187 121  64  76  79  55  35  20  19  27  23  29  50  74  83  92  94 100 105 124 124 110 103 108 112 104  82  63  64  71  77  88  46  42  34  38 124 231 215 180  97  77 108  65  46  54  64  92 134 171 200 212 213 200 184 158 120 109 107  72  36  13  63 113  67 169  92  66 140 148 164 177 185 188 185  85  56 179 160 156 178 171 170 173 178
 170 173 172 173 176 178 179 183 193  99  73  65  41  29  20  24  23  25  34  58  78  81  86  91 103 115 131 141 128 119 122 124 120 112 102  87  84 100 119 113  69  61 111 213 218 195 156 122  84  76  95  52  53  56  81 128 172 200 216 213 196 183 167 146 102 122 111  53  39  51  61 100 219 187 102  81 150 174 186 189 189 191 102  67 170 138 168 168 159 157 160 173
 172 173 174 175 176 179 181 180 193 123  69  61  38  30  26  28  33  28  34  62  77  79  83  89 104 120 133 145 136 125 131 128 126 125 136 119 109  94  95 117 117 133 176 172 157 146 131 117 119 102 108  77  61  57  75 126 172 197 212 209 197 194 180 149 108 119 151 104  52  53  93 203 207 159 123 121 124 165 185 193 193 194 122  48 124 146 171 171 164 153 156 171
 173 175 175 176 177 179 180 180 188 130  71  73  41  31  34  37  38  27  41  62  74  77  84  87 104 116 127 142 136 133 135 131 136 139 141 127 131 116 115 119 109 123 141 142 156 157 158 160 180 166 118  89  72  64  76 127 164 187 206 212 201 198 189 162 134 124 132 151 127 138 183 174 139 140 148 166 180 185 190 193 199 199 136  48  68 146 169 173 166 161 162 172
 176 176 178 179 178 179 181 181 189 131  67  79  46  29  38  50  49  30  43  67  76  79  82  88 103 118 135 143 136 139 145 140 139 149 140 133 130 133 135 143 150 157 165 175 175 177 172 174 174 146 121 110  90  71  82 121 162 195 211 210 201 197 203 197 160 138 132 134 143 151 165 164 159 178 184 185 189 199 195 198 203 200 147  56  51 153 170 164 168 165 168 176
 178 178 181 180 180 179 182 177 183 131  64  75  73  54  46  69  50  23  40  62  77  79  83  91  99 118 132 134 138 149 152 152 149 157 160 159 155 146 132 127 137 147 155 160 159 162 163 167 155 130 138 126 104  77  86 118 157 185 203 207 200 198 197 188 174 155 154 160 170 181 192 195 194 194 189 193 193 201 199 201 200 202 152  57  62 152 166 167 173 172 169 175
 179 178 180 180 180 179 182 166 159 126  70  59  71  94  82  68  39  21  39  61  75  81  87  90  97 113 122 127 138 152 153 155 157 148 158 164 165 164 160 153 154 163 164 167 173 175 174 157 141 150 151 127 110  86  96 117 155 177 196 208 201 205 205 192 186 181 175 175 175 183 185 181 181 188 193 196 193 200 202 203 198 201 164  54  74 130 153 173 174 173 165 166
 178 177 179 179 178 179 181 175 103  98  84  69  76  99  80  48  23  24  32  53  74  82  81  86  99 108 120 130 140 148 150 153 157 156 157 160 164 166 167 165 170 175 179 183 179 172 164 156 159 162 150 130 113  89  98 120 150 179 195 207 199 205 206 205 193 194 195 192 194 194 196 192 187 191 196 197 199 202 203 206 200 200 170  57  49 100 141 154 165 167 159 158
 176 175 175 175 177 178 179 183 130  66  91  92  91  88  80  60  23  27  31  47  71  82  82  85 100 110 116 122 133 145 153 160 164 160 158 165 168 170 176 177 180 181 178 169 167 170 169 174 168 160 143 128 108  92  99 117 141 175 197 202 197 202 204 208 204 195 193 194 198 193 199 201 199 195 195 194 194 203 207 205 200 195 175  63  35  89 126 128 141 145 148 150
 174 175 177 176 177 178 178 179 168 116  84  89  88  73  74  75  52  37  25  41  70  83  81  86  94 107 115 122 130 139 143 158 163 167 165 167 178 180 180 183 183 184 179 169 174 179 180 174 168 158 142 124 112  99  99 114 145 182 195 203 198 199 204 208 211 204 196 195 194 197 194 197 198 189 191 194 195 200 210 211 203 196 181  73  37  88 121 120 127 135 137 146
 175 176 178 178 176 177 175 176 179 154  77  89  91  83  78  77  62  38  25  45  63  78  80  83  89 102 112 119 131 128 135 155 155 162 170 175 177 180 183 186 187 187 185 184 186 183 184 172 161 155 139 122 112 101 103 112 139 178 193 202 190 201 203 204 206 206 202 195 194 199 194 196 199 198 196 199 198 202 205 210 205 198 186 106  87 116 123 128 132 133 134 144
 178 179 179 177 176 175 175 178 180 175  81  76  86  81  78  71  55  33  27  44  61  79  78  81  89 101 108 115 126 128 140 151 153 159 166 179 178 174 176 187 187 186 189 189 192 188 180 172 165 152 136 122 107  98 103 115 136 173 190 199 189 195 202 203 203 211 206 203 203 201 199 197 198 200 199 199 200 200 202 207 206 197 184 124 129 127 128 136 140 137 131 136
 178 179 179 177 176 175 177 178 175 185 135  63  76  79  78  72  60  32  26  40  55  75  81  78  86  97 104 109 120 129 133 140 149 155 167 174 174 176 183 191 188 187 189 193 190 191 177 168 163 147 138 116 104  96 103 118 144 174 193 195 190 193 202 203 205 210 204 202 200 200 198 196 200 200 202 201 199 203 205 202 201 199 177 126 132 133 134 141 140 134 127 128
 177 177 178 175 172 173 176 176 172 176 180 109  63  75  72  69  67  41  22  38  48  74  80  75  79  90  99 109 116 120 131 135 141 156 171 166 179 182 182 189 192 191 194 192 193 188 179 174 156 142 131 106  97  98 111 118 148 175 186 189 191 190 200 204 209 210 207 207 200 199 199 202 200 199 205 207 207 204 202 196 196 196 174 120 123 129 136 140 134 126 122 126
 172 173 173 170 169 172 174 174 169 175 177 125  60  62  68  64  59  41  26  40  44  67  75  77  74  86  94 104 111 116 129 137 138 155 161 165 181 179 185 187 190 192 193 196 194 191 190 175 151 138 106  90  92  99 113 130 145 173 191 188 190 191 195 203 211 215 209 208 208 204 201 196 203 209 205 208 211 205 200 195 194 192 165 124 127 136 141 142 132 121 119 127
 168 171 171 168 166 171 174 172 170 175 184 156  70  26  58  64  60  43  25  37  39  60  74  73  73  80  91 102 112 116 129 134 129 145 156 173 185 184 186 187 188 194 194 193 192 196 186 168 151 113  81  78  88 100 121 136 149 172 189 195 196 190 189 201 210 213 203 205 208 206 203 200 203 208 208 204 202 203 198 197 190 188 155 140 145 146 146 147 141 126 122 126
 162 167 169 165 162 167 170 167 167 171 180 179 141  61  32  39  36  26  32  32  32  50  68  75  73  80  87  93 105 116 129 134 134 146 156 158 172 182 183 188 188 188 191 190 194 190 181 161 120  84  81  85  88 103 127 142 163 174 188 199 196 186 185 196 204 206 205 204 208 208 205 204 206 205 207 209 203 202 201 193 188 184 150 151 152 148 149 147 141 129 122 123
 153 156 163 161 154 157 162 162 159 165 173 172 150 100  44  22  23  33  32  30  35  44  61  73  71  74  74  87  98 112 124 125 139 145 149 153 167 175 181 183 188 191 183 183 189 185 167 140  87  84 111 107  89 103 124 146 158 181 189 198 201 195 191 192 196 202 203 204 206 207 207 205 209 210 207 200 198 196 195 192 186 166 144 154 146 145 147 152 140 126 124 131
 156 157 159 158 146 147 156 154 150 156 166 172 166 133 109  97 110  99  46  27  33  40  51  62  67  66  70  84  93 105 117 119 130 142 149 151 170 173 181 188 191 190 182 176 185 178 150 101  75 114 127 116  94 103 122 147 161 175 193 211 209 198 192 188 187 186 189 200 201 204 207 209 211 211 206 203 199 195 193 189 182 143 139 142 136 142 154 155 147 136 138 149
 166 164 165 162 152 144 147 149 148 154 164 174 176 148 143 126 130 143  66  22  32  35  44  58  67  62  65  80  89  96 107 121 127 134 144 153 170 175 173 181 186 182 181 185 186 171 125  67  93 117 125 107  95 111 130 149 163 176 194 218 220 208 198 193 190 182 174 186 198 202 203 206 209 204 201 206 197 197 195 180 175 129 131 132 133 140 152 156 155 155 152 163
 175 169 172 170 161 151 151 155 153 154 166 178 183 160 119 111  95  92  45  25  31  34  38  58  62  52  65  76  80  86  98 116 129 134 145 154 159 172 169 176 180 184 194 196 183 163  97  59  96 107 118 108  89 106 122 143 156 174 198 205 222 217 200 198 196 190 168 174 195 200 201 206 208 210 200 203 193 190 186 176 158 125 143 143 147 147 151 152 161 167 166 168
 176 174 174 173 166 160 156 154 153 156 170 180 182 178 142 100  56  16  25  33  31  34  38  46  54  57  64  67  75  83  92 108 124 133 140 154 158 171 177 171 176 181 189 192 184 170 101  56  97 108  89  74  75  95 109 131 152 174 199 204 208 202 193 172 159 185 179 166 183 196 200 203 208 210 197 193 193 196 187 177 142 142 163 162 160 153 149 157 167 174 172 170
 174 175 175 170 167 165 161 154 147 154 171 180 180 177 180 177 161 114  30  30  29  35  37  41  55  54  63  69  70  81  94 109 118 132 141 149 155 170 178 169 179 181 191 195 184 172 136  65  86 113  68  31  21  54  90 107 139 171 193 196 193 189 151  85 106 180 194 173 175 191 197 198 201 198 203 195 194 197 188 173 136 164 170 172 168 156 154 162 171 178 176 174
 170 174 172 164 160 159 157 146 139 146 165 178 182 181 181 182 186 188  76  19  31  32  36  43  53  50  57  57  63  79  98 108 122 129 140 143 158 168 171 173 184 188 193 191 176 168 158 125  80  86  77  49  35  25  50  85 120 162 182 176 174 170 151 148 171 200 207 190 171 186 196 202 197 195 205 201 198 194 181 140 124 175 169 171 170 161 158 162 167 171 174 176
 164 172 171 159 142 140 140 133 128 133 152 172 180 180 179 181 182 185 132  23  29  32  41  37  46  53  53  58  60  68  94 100 117 128 138 145 154 161 170 177 190 191 187 181 172 167 163 156 130  89  74  67  65  58  46  55 105 135 132 147 177 184 193 181 191 202 211 209 183 181 194 202 200 204 199 204 199 185 177 109 112 173 160 162 169 164 166 168 165 165 171 173
 168 172 170 159 142 132 130 127 123 126 142 164 174 176 176 178 178 184 160  35  27  36  40  37  43  53  58  64  64  64  83  98  98 123 138 148 153 159 173 180 182 183 179 174 166 171 170 160 141 112 103  95  94  81  79  89 105 123 154 192 192 179 182 192 203 205 209 214 202 185 193 197 204 202 192 197 192 182 171  93 112 166 157 158 165 166 166 168 168 166 167 166
 169 171 170 161 151 145 145 143 136 134 146 162 170 175 175 176 173 169 156  58  23  37  38  37  41  51  55  51  59  71  89 103 108 123 138 150 157 161 167 173 174 172 172 168 168 172 164 149 134 113 109 110 104 102 108 145 155 172 203 180 156 154 166 176 195 210 209 213 214 198 191 202 204 207 202 197 192 182 144  78 127 159 155 153 158 157 160 166 172 172 164 161
 168 167 168 163 154 151 156 149 147 147 156 167 171 174 178 179 176 168 169  94  18  36  40  39  44  51  54  52  57  74  90 102 113 125 138 148 155 158 164 162 155 153 150 155 157 160 149 137 122 104  96  90 103 121 100 134 173 173 150 148 144 125 142 165 172 197 211 210 215 208 199 201 201 198 200 202 192 179 108  80 142 154 156 151 147 146 150 161 171 169 156 154
 169 169 168 160 149 149 146 145 143 144 161 173 175 172 175 178 175 175 175 139  25  34  42  39  49  51  53  63  62  77  89  93 100 121 135 142 141 144 149 134 122 127 129 141 139 122 116 114  92  89  91  91  98  91  87 112 166 155  91 116 124 113 132 142 155 170 206 208 209 211 208 204 197 192 199 192 184 171  95 102 140 144 153 145 137 138 140 153 163 157 144 134
 169 170 168 159 148 143 138 133 132 139 161 174 174 172 172 166 161 166 172 154  44  24  40  41  45  41  50  60  58  64  74  90 100 115 133 136 124 125 118 110 116 105  93 109 106 101  96  76  82  83  80 105 100  80  93 113 168 137  86  86 124 132 128 126 115 144 177 187 206 198 204 206 197 199 189 184 185 154  76 122 138 135 144 143 134 129 137 144 146 139 127 123
 165 163 168 160 151 147 142 129 128 143 162 171 170 170 168 157 143 150 159 164  63  18  37  45  42  42  58  58  63  57  73  94 100 109 128 122 105 103  96  83  96  88  95  92  88  73  64  77  74  75  81 101  97 104 102 118 159 119  67 112 125 131 115 122 106 137 152 150 183 177 170 192 201 198 182 183 180 113  67 128 131 131 137 134 127 126 132 135 128 119 117 117
 163 159 164 162 153 151 146 137 136 148 162 165 167 171 171 156 138 140 149 162  87  23  35  39  39  45  55  53  61  58  77  82  94 115 119 100  83  81  68  59  92  89  85  66  69  55  57  72  72  71  81 108  87 107 108 126 155 122  63 135 127 115 114 115 120 113 124 120 145 159 158 176 195 192 186 187 152  83  82 136 128 127 129 128 124 124 127 127 118 111 113 115
 165 164 165 162 152 144 143 141 138 147 160 163 166 172 173 162 144 137 145 152 103  34  27  36  36  47  51  53  54  62  63  78  91 103 103  82  67  62  57  72  77  76  66  52  71  65  71  84  84  86  97 114 108 128 158 191 166 139 119 156 121 100 130 129 128 113  94 101 131 149 137 153 193 196 194 178 119  70  90 128 129 125 124 125 124 122 123 123 119 115 114 115
 174 171 171 164 150 138 138 140 138 150 161 169 171 174 174 164 147 139 150 163 113  49  20  33  35  45  51  50  41  55  53  66  92 102 102  83  62  66  75  75  67  62  59  72  89  94  93 108 119 117 122 120 118 129 190 210 186 179 193 190 126 138 157 148 110  95  94  87 101 120 128 134 168 194 184 150 101  66 107 132 129 126 124 124 125 122 120 123 127 123 117 117
 171 173 173 165 151 139 135 137 139 151 166 175 176 175 172 166 161 159 138  91  81  77  33  26  32  43  50  41  39  49  54  64  81 103 101  83  78  79  75  76  67  75  72  74  83  88  90 106 109 110 115 111 106 111 131 156 168 160 178 155 149 168 174 174 104  92 106  92 100 102 109 112 168 194 182 132  82  79 117 134 131 127 124 124 122 124 122 131 132 131 125 122
 164 166 170 162 150 140 136 136 138 147 167 177 179 176 179 179 146  82  25   0  58  83  60  21  30  41  45  44  41  47  44  53  76  93  94  94  87  72  76  94 116 109 105  87  75  66  64  66  74  71  84  88  88  86  77  84 101 108 110 114 113 107 133 141 120  99 108  97 120 117 107 111 159 200 172 106  59  91 131 132 130 128 128 126 129 132 134 139 138 133 128 130
 158 162 163 158 148 144 139 137 138 145 161 172 177 186 176 107  24   0   0   3  54  78  76  29  20  35  46  48  44  45  40  50  68  81  95 107  86  84 111 140 153 139 130 123 106 103 107 100 111 122 139 152 151 152 131 123 116 131 131 139 138 129 129 117 115 127 116 108 134 115 125 148 176 191 135  88  67 124 139 137 137 138 138 139 143 149 150 148 147 140 136 143
 158 163 168 162 151 144 143 139 140 143 153 165 185 153  52   0   0   3   3   1  56  85  80  55  19  33  45  41  47  42  40  55  58  82 100 105 109 113 134 147 157 153 145 135 123 107 106 116 126 138 138 156 173 182 185 177 169 182 182 176 178 172 167 169 173 182 178 176 167 127 113 148 182 146  95  77 102 149 145 142 138 141 148 151 156 161 161 159 162 155 154 157
 161 169 177 170 160 153 151 147 143 140 148 173 134  24   0   4   5   4   3   1  55  81  76  76  35  25  37  41  41  43  42  51  54  72 100 110 107 103 142 146 147 146 139 130 134 133 117 112 112 123 139 145 156 163 174 169 179 178 184 181 176 171 170 174 191 199 201 197 181 166 146 162 175 101  79  71 141 157 151 146 134 135 154 162 166 169 173 171 175 171 166 166
 164 174 178 178 173 165 159 156 148 145 160 126  23   1   3   5   5   4   3   1  50  80  74  78  68  20  21  39  44  47  47  56  55  78  93 112  81  96 137 135 141 142 133 128 129 134 138 139 125 112 127 136 153 169 166 173 185 177 170 175 171 171 176 190 199 200 197 195 176 154 173 163 129  91  73  49 105 159 158 154 139 137 158 174 175 178 182 182 181 178 171 165
 169 175 180 177 174 171 163 156 153 166 126  24   5   8   3   3   4   4   3   1  45  80  75  77  80  52  11  27  38  41  51  54  62  73  85  91  70 100 117 116 128 130 130 124 118 125 129 137 138 143 134 131 141 140 122 140 142 143 151 161 166 182 196 196 197 196 186 189 161 153 182 144  95  86  63  42  44 112 168 169 148 139 155 174 179 182 185 185 184 182 173 166
 170 173 171 164 161 159 157 151 163 130  28   8  10   7   3   3   5   4   4   0  48  79  75  74  78  81  38  20  29  39  51  42  57  62  76  72  79  99 110 115 123 122 124 120 117 128 130 127 125 135 136 131 125 116 121 131 123  93 132 158 180 183 182 185 189 187 186 186 164 156 158 102  74  73  52  34  40  43  84 151 165 138 149 172 181 181 183 184 185 185 179 173
 164 166 154 143 140 141 145 154 133  32   9  13   9   6   2   3   5   4   3   3  58  77  72  75  76  83  61  25  22  30  39  48  58  65  70  78  98 100 102 107 113 116 129 125 127 129 138 132 136 140 140 135 121 120 140 135 128 116 139 153 162 176 181 185 179 183 180 159 156 158 125  82  60  70  37  31  38  47  45  58 118 154 160 173 178 179 182 185 186 179 173 170
 158 156 142 130 130 135 149 140  41   8  15  10   7   6   4   3   5   4   0  21  75  75  71  76  76  83  67  46  28  22  39  46  51  59  67  68  83  76  78  91 104 116 139 136 131 133 143 140 150 158 167 170 170 158 158 152 158 159 170 175 173 182 183 179 177 179 173 143 141 134  97  64  67  60  25  27  36  43  52  51  44  90 163 179 174 172 174 179 177 162 154 157
 153 145 136 134 135 145 153  56   9  17  14  10   6   6   3   3   4   3   2  54  78  74  76  77  77  81  78  64  55  30  25  31  41  48  50  51  54  57  72  98 107 119 137 135 140 144 148 148 154 167 171 176 184 181 179 181 190 186 188 184 179 181 179 180 181 181 166 114 111 116  81  58  71  36  19  23  33  38  44  54  53  41  72 144 173 165 158 165 161 153 147 153
 143 139 143 142 145 158  87   9  16  16  15  11   9   7   4   2   4   0  23  75  76  73  73  78  75  75  79  72  73  59  28  21  24  33  44  46  47  42  60  87  86  99 115 131 124 147 155 154 164 157 165 179 192 194 199 188 195 203 199 193 185 183 181 184 181 176 147 102  82  86  63  54  54  28  16  25  33  34  39  47  51  49  40  53 118 167 157 150 155 160 160 161
 136 135 143 147 153 129  22  16  17  16  16  11  10   8   7   3   2   8  58  77  74  73  73  78  78  75  77  77  74  72  66  34  15  25  32  31  33  40  58  67  76  89 102 129 118 130 144 151 153 148 169 183 181 194 198 197 196 205 204 203 199 189 188 187 182 139 110  91  60  45  92  90  32  10  17  26  30  33  37  41  48  48  49  48  43  91 158 157 157 164 167 161
 136 138 141 145 150  76  12  22  18  16  15  11  10   9   8   3   3  41  71  73  74  72  76  75  78  80  78  78  78  78  75  63  34  22  20  21  29  28  37  42  56  69  89 104 122 143 140 145 143 153 165 174 177 187 191 190 194 202 194 202 203 196 189 183 151  96  76  71  38  89 151 136  50  13  17  24  28  33  36  36  41  44  50  55  53  41  78 150 161 161 161 156
 139 140 145 148 140  36  15  22  19  18  13  12  12  11   7   3  29  66  72  74  74  73  73  74  78  84  84  83  82  80  81  82  67  34  27  20  20  20  26  34  49  62  61  95 110 124 130 130 143 152 159 161 162 180 183 184 194 193 191 191 185 178 174 167  97  62  38  46  87 161 177 166  86  25  20  22  27  38  36  28  35  42  48  51  56  54  42  66 141 158 150 148
 146 146 148 155 111  13  18  22  21  19  16  14  12  11   8  14  52  72  74  76  76  70  74  73  74  79  83  83  86  85  86  92  84  69  66  34  15  25  36  33  44  49  65  86  81  97 102 115 128 155 163 154 155 176 162 176 190 180 176 181 166 159 145 116  61  42  45  95 163 184 183 175 116  39  21  22  28  38  34  29  33  37  46  50  51  55  57  45  59 128 149 136
 152 157 156 162  66   9  20  22  22  21  19  16  15  14  10  25  66  76  76  75  75  72  74  75  75  78  81  86  91  90  86  94  95  92  86  69  46  29  24  24  37  38  52  54  69  90  89 106 124 145 148 146 159 166 164 171 173 170 153 157 139 132 114  73  37  57 112 175 192 189 181 182 141  62  25  21  25  33  30  31  35  38  44  49  52  54  57  57  47  51 113 144
 158 160 168 130  26  18  22  20  21  23  20  19  19  18  12  34  74  75  76  77  74  73  74  75  79  80  81  87  95 100  98  98 103 106  99  93  86  53  37  29  30  32  37  45  62  78 106  92 109 120 135 130 149 160 158 154 151 154 143 131 108 109  79  47  70 154 183 195 194 189 181 183 160  87  31  22  24  28  28  35  36  37  39  41  52  53  55  60  58  47  51 109
 165 169 148  48  14  20  21  20  22  25  22  21  19  19  14  41  79  77  80  80  72  73  72  73  77  79  87  89  93  96  94 102 105 108 110 107 100  86  72  55  35  31  25  46  50  70  92  88  99 108 117 127 135 146 135 139 141 114 112 114  82  58  49  77 164 194 195 195 194 191 187 185 169 112  42  18  22  26  32  36  36  33  30  38  46  49  52  56  58  55  50  55
 169 153  56  15  20  20  20  20  24  25  23  23  20  19  15  46  79  80  86  87  75  73  72  73  78  78  85  91  95 100  97 103 108 110 112 109 111 105  97  86  60  40  38  40  42  58  72  77  86  84  95 106 115 119 111 111 113  80  66  78  60  66  87 165 203 200 198 195 190 191 191 185 172 131  56  13  17  26  36  35  33  30  27  35  42  51  51  54  57  58  56  53
 166  74  16  23  18  20  21  20  22  24  25  25  23  22  20  49  85  88  86  88  80  75  75  76  79  79  84  91  93 103 108 109 115 118 118 119 116 114 112 111 105  87  69  64  54  55  63  59  64  59  69  80  73  55  67  70  57  54  47  58  93 149 170 193 200 200 195 191 191 191 191 183 176 147  73  12  16  29  39  37  30  28  28  33  38  47  53  57  60  58  56  56
  80  23  19  19  19  20  20  19  23  24  26  26  25  25  26  53  88  93  84  92  86  81  72  74  81  82  85  92  97 108 111 111 116 119 124 126 124 122 117 119 126 130 123 125 107  94  86  93 104  82 111 130 108  81  79  92  78  83 108 115 171 193 194 197 197 196 192 192 192 192 192 186 181 160  93  15  10  25  35  37  35  31  34  37  35  40  50  58  58  54  57  57
