P2
# Generated by OpenCV 4.2.0
92 112
255
  44  46  51  53  55  55  53  72  85  59  49  47  49  49  52  71  75  62  68  73 106 102  87  97  96 105 174 192 143 132 146 163 143 166 210 235 244 245 196 152 193 188 149 182 186 139 123 124 131 128 109 108 100 100 105  78  51  55  70  77  76  79  89  98 104 102 100 106 109 112 112 113 110 106 104 108 107 105 103 101 105 110 114 115 115 110 112 123 126 125 117 112
  44  46  51  52  55  58  54  79 106  95  77  59  48  51  56  73  78  73  92  83  88  94  79  90 104  99 125 130 155 192 185 199 197 177 188 204 221 222 184 174 205 187 173 185 166 120 124 137 114  86  76  76  48  58  95 104  74  56  65  75  80  82  85  91  97  96  97 104 109 109 111 113 111 106 107 111 107 102  99  98 103 106 109 112 116 112 110 117 128 128 119 117
  45  46  49  51  54  55  52  67 106 119 116  96  66  55  65  65  68  65  81  79  63  83  89  73  90  90  78 100 179 200 157 157 143 104  96 117 141 169 200 216 206 183 179 144 118 101  87  84  69  67 100  79  63  68  69  76  76  70  67  69  81  90  89  87  91  93  95 101 104 101  98 104 110 110 108 108 103 101 105 106 109 109 110 115 115 112 113 122 130 128 120 115
  53  52  49  50  53  52  52  62 104 134 143 141 104  69  66  68  66  68  63  67  63  78  88  62  75  97  86  95 132 113  72  63  53  47  44  45  58  86 140 164 122  82  89  67  91 101  65  51  72  58  79  99  94  75  52  62  57  70  51  62  66  79  85  88  92  95  97  98 103 108 101  99 108 109 104 105 105 107 112 112 111 114 116 118 116 110 112 120 121 121 116 109
  66  64  55  52  54  51  50  57 114 162 169 169 145  98  74  63  65  76  76  74  71  61  67  67  67  99  99  82  67  60  65  58  60  66  71  72  62  67  69  46  34  59  68  55  96 105  69  90  89 104 127 107  78  59  67  68  57  71  42  57  50  55  81  88  89  92  97  98 102 117 116 109 108 108 106 102 105 107 109 111 112 111 110 116 118 113 112 113 112 117 116 113
  78  67  54  53  53  50  52  54  98 166 179 174 176 145 118  87  52  61  80  81  70  58  68  90  83  84  79  72  69  66  75  81  81  92  84  92  92  89  85  77  83  88  84  87  92  94 102 103 124 137 109  86  83  75  71  62  67  78  64  68  54  53  82  76  88  91  95 101  99 104 110 116 115 112 113 107 106 104 102 107 116 118 119 120 118 114 109 111 115 117 114 115
 101  79  50  52  51  50  53  55  84 166 194 193 209 194 154 118  83  63  59  67  57  51  64  89  91  88  82  82  95  92  89  92  92 112 106  99 110 111 100  86  99 110  98 108 106  98 114 130 138 114 102  98  92  82  74  75  78  86  76  67  61  77  67  51  49  74  93 101 104  98 100 111 118 119 117 110 103  99  99 102 114 118 115 111 111 108 112 121 119 117 113 118
 107  86  57  54  51  53  57  57  82 164 196 198 216 207 160 120 122 113  77  77  68  58  70  87  97  93  93  98  96  99  96  95  93 106 126 112 102 119 111 100 115 125 100 114 107 109 126 142 121 111 109 100  91  88  87  81  87  91  76  68  75  77  65  45  37  38  81  92 100 112 106 103 108 118 112 113 109 106 107 110 116 114 111 112 110 108 118 126 116 111 117 123
  91  75  61  57  53  56  60  61  79 148 187 197 210 206 173 145 148 150 127 101  93  86  83  85  87  97 111 117 120 106 106 105 112  95 117 115  96 123 115 108 123 123  99 123 106 105 133 136 105 116 100  91  79  78  92  96  96  84  82  85  77  80  59  48  44  39  59  68  75 102 112 109 108 108 104 119 131 128 122 117 117 111 117 122 119 115 118 117 106 114 126 131
  70  68  65  57  58  56  62  67  80 152 199 204 211 213 203 194 175 166 157 125  94  89  87  96 108 117 125 119 123 120 114 107 117 118 102 104  95 117 108 110 119 123 103 115 104 101 131 104 100  99  83  83  89 100 109 103  87  85  88  82  79  70  55  55  53  59  60  40  61  81 105 111 107  99  95 110 121 121 118 115 117 118 121 121 116 113 112 111 111 120 129 131
  61  68  69  60  63  65  71  74  82 154 196 201 203 205 202 191 181 181 162 127  86  86  92  98 101 100 104  89  73  76  83  90  87 106  92  78  92 110 110  96  99 115  98 104  95  94 101  91  90  88  85 108 113 119 102  95  94  98  86  79  80  69  71  67  68  67  67  62  72  73  79  96 102 101 101 105 108 112 115 115 118 120 123 126 117 109 111 113 118 127 131 133
  69  71  66  66  69  72  76  79  86 150 195 203 206 200 192 191 194 189 167 108  90  78  69  68  86 100  85  69  53  43  46  68  67  88  80  70  82  95 109  82  94  97 101 103  88 102 110 109 100  96 113 117 128 113 101 106 105  92  91  87  73  76  72  78  82  89  89  93  81  73  63  86  99 106 113 115 111 111 116 119 120 116 119 122 120 114 117 122 121 123 127 131
  82  74  73  77  74  71  73  78  86 153 210 221 220 212 204 192 191 192 158  90  75  66  58  74  92  86  73  54  48  46  43  59  78  92  78  85  90 100 101  92 100 109 111 118 119 133 145 131 118 129 137 133 115 115 123 123 115 105 104  95  78  75  81  88  95  91  84  85  85  84  68  61  82  97 108 112 114 118 115 116 120 116 112 110 111 116 121 129 125 118 122 128
  93  83  86  87  79  78  78  79  94 161 214 223 223 221 202 183 196 209 114  62  54  41  46  76  71  62  61  56  48  58  64  77  89  93 108 113 110 116 125 124 124 134 128 137 138 145 144 143 140 142 137 134 136 129 127 121 116 119 119 115  94  73  73  73  65  65  80  86  83  79  78  71  59  64  88 105 109 116 114 106 109 112 108 103 104 108 116 125 124 123 128 135
  80  74  86  91  96  91  86  81 102 174 217 223 219 221 212 210 224 188  63  51  31  27  49  62  62  59  57  62  83 100 101 106 109 120 136 133 137 142 147 146 148 153 149 144 154 155 159 152 148 146 146 149 141 139 137 134 128 119 119 124 115  84  68  63  63  78  93  98 105  97  87  88  70  54  46  78 101 107 116 110 102 104 104 105 110 114 119 123 119 118 124 130
  99  72  80  90 101  93  82  82 117 197 232 236 228 228 214 223 227 126  46  25  24  52  65  75  68  56  74 101 117 130 133 133 131 137 143 151 145 155 161 161 162 161 163 165 166 164 160 159 162 162 160 157 149 151 145 141 131 120 121 118 118 124 111  83  84  98  98  98 102 113 103  84  71  64  43  42  78 103 117 115 108 104 102 105 110 117 128 131 123 117 120 125
 105  85  84  87  92  84  76  83 153 213 234 238 235 236 204 221 184  58  33  22  50  83  91  78  62  86 108 115 121 129 139 145 145 142 142 149 154 156 156 163 165 165 172 174 167 166 164 173 172 161 160 157 151 154 154 148 141 135 137 130 122 116 123 121  94  81  88  85  82  81  83  77  63  41  39  37  38  87 112 113 110 107 106 109 112 114 119 123 122 121 123 126
  91  90  87  90  91  83  74  92 173 217 234 238 237 240 208 188 133  26  26  47  77  90  85  72  95 117 111 110 124 139 144 148 147 149 152 148 149 149 153 164 164 170 173 174 175 177 172 169 174 169 168 166 160 161 160 157 150 149 145 144 138 127 122 125 130 114  83  78  85  99 101  93  70  55  45  55  36  56 106 109 103 106 111 113 111 116 123 124 120 125 133 131
  96  97  87  91  91  82  72 113 204 234 239 239 235 236 234 153  41  15  39  72  85  75  68  99 117 113 116 124 133 142 138 139 147 155 157 154 147 156 161 162 169 173 175 177 178 181 179 174 170 170 168 166 162 161 162 159 160 161 155 151 150 143 138 124 125 130 126 101  79  89 125 130 109  88  54  51  55  42  98 110 105 104 111 113 114 123 130 133 127 127 135 135
  97  97  91  93  89  81  77 138 217 239 240 240 238 234 244 142   7  18  64  79  68  60 104 113 112 122 128 126 132 139 141 144 153 155 154 158 158 161 163 157 163 170 172 179 179 174 180 175 170 170 166 170 163 163 167 167 158 154 157 153 152 154 149 136 130 125 129 142 119  85 106 139 134 112  88  52  62  39  78 105 112 107 109 121 125 121 118 126 133 130 132 139
 104  97  94  88  79  74  97 182 232 241 241 241 238 242 171  31  13  51  78  75  77 106 115 113 115 129 128 129 135 143 149 148 153 152 155 163 161 163 163 170 174 175 177 180 183 180 178 173 174 172 171 168 169 164 162 163 163 162 161 156 154 149 150 142 138 131 121 126 143 118  95 121 157 128  88  62  55  46  62  93 105 109 116 124 123 119 116 121 132 136 135 141
 107  99  95  84  75  73 138 221 241 242 242 243 245 227  53   4  41  86  85  91 117 114 115 113 121 130 129 135 142 149 147 153 156 157 162 163 165 171 171 171 178 180 181 183 184 185 182 180 179 178 174 174 170 165 167 165 164 164 164 167 160 155 153 146 142 139 132 124 127 134 101 102 137 148 112  74  47  47  55  89 105 113 118 117 120 124 124 126 133 136 141 149
 103 100  95  82  74  95 184 237 242 242 243 243 249 216  25  18  75 104  91 112 115 113 120 125 130 130 132 137 146 144 147 154 161 161 164 170 172 175 170 172 177 177 184 187 185 186 191 190 187 183 179 180 179 175 171 173 172 171 167 163 160 155 158 151 147 143 135 134 130 129 136 112 111 134 122  81  51  41  55  97 112 112 106 111 117 116 123 133 139 141 141 144
 102  95  91  84  75 117 204 240 243 243 243 245 247 190  39  57 112  97 109 118 114 125 120 123 130 132 134 139 148 147 153 155 161 163 168 172 170 174 176 181 187 185 189 190 190 192 195 193 191 189 182 181 182 174 169 179 185 181 176 174 167 159 153 150 153 146 139 133 132 126 131 141 115 118 128  87  56  41  44  78  94 105 108 110 114 118 124 131 136 138 135 137
  90  81  80  78  94 172 229 242 243 243 243 242 188  89  30 103 111 108 114 108 117 124 123 128 131 132 138 144 149 151 157 157 163 170 170 173 178 181 184 188 190 193 193 194 198 197 196 193 192 188 181 180 181 179 179 181 180 190 187 181 175 169 155 151 152 149 145 139 137 133 121 137 146 126 131 105  53  42  38  59  89 110 118 117 125 132 129 123 128 132 137 146
  82  77  74  78 138 215 239 242 243 242 247 226  70   8  60 106 120 121 106 113 121 119 127 125 131 138 144 145 149 159 163 166 175 177 178 184 187 188 190 192 193 195 196 196 197 198 191 188 186 185 190 188 191 191 190 187 179 179 185 181 177 170 162 156 153 151 150 144 138 139 128 126 149 146 147 141  59  36  32  44  77  97 120 127 126 125 129 130 138 144 147 150
  85  76  70 100 189 236 240 242 244 243 246 233  80  34  92 117 134 109 107 122 121 126 123 126 132 140 142 150 163 167 170 175 181 184 185 184 183 187 186 188 191 190 192 190 192 193 195 197 194 194 193 189 193 192 192 193 191 184 184 180 182 175 166 153 157 156 151 149 138 139 135 123 139 147 141 156 103  32  27  33  54  80 115 123 123 127 134 139 144 149 152 149
  82  72  78 155 230 242 241 243 243 243 246 193  66  56 103 122 118 109 114 122 126 126 126 129 135 143 150 159 170 171 169 175 177 176 179 181 184 186 190 196 195 196 195 196 201 202 204 202 200 196 195 192 192 194 197 196 193 189 187 186 185 179 174 156 153 153 150 149 143 138 135 126 135 151 139 144 127  40  17  29  48  81 116 134 142 147 149 147 143 135 141 147
  75 110 161 212 239 240 241 241 241 244 239  96  44  87 107 116 112 113 108 119 127 129 130 139 139 142 154 162 169 172 168 180 186 188 185 189 194 191 199 202 201 200 201 204 204 207 205 202 200 197 198 199 201 199 201 204 197 194 191 191 188 178 173 163 155 153 152 150 150 139 139 139 136 143 139 142 138  65  14  14  33  87 118 143 144 142 143 144 141 132 140 148
  87 171 232 233 230 238 241 241 242 247 164  26  69 102 106 112 116 111 112 123 126 128 134 144 144 146 155 167 171 168 177 188 192 190 192 193 198 202 201 205 203 203 203 205 207 208 210 206 204 204 202 201 201 196 197 199 193 192 188 185 179 174 173 169 163 153 153 153 152 141 139 135 137 141 130 126 137  91  31  14  29  81 113 130 127 125 131 144 155 155 152 151
  95 172 230 231 233 242 245 243 246 222  46  32  77  91 112 118 119 113 113 121 127 129 139 148 147 150 152 167 171 175 180 185 190 196 198 198 207 211 210 208 206 202 198 202 206 200 199 198 196 191 191 193 191 191 193 195 194 189 188 185 178 173 166 165 163 160 151 152 153 137 136 142 139 140 139 132 137 111  48  26  23  43  91 119 133 138 143 154 162 165 156 154
 153 200 237 241 243 239 234 224 211 104  17  50  79 108 111 117 124 115 109 125 128 134 144 148 149 152 159 168 172 183 191 190 193 193 198 202 205 203 196 195 195 191 190 196 197 195 195 192 195 193 194 193 192 195 195 199 193 188 190 190 186 181 174 169 161 162 154 151 153 142 132 135 144 134 132 138 131 115  56  27  35  30  80 118 138 150 152 155 159 163 160 160
 198 208 216 216 207 198 196 191 130  30  27  61  85 105 109 119 127 117 118 129 129 140 146 147 149 154 165 167 170 184 187 184 186 182 187 192 194 198 197 197 196 198 199 201 201 206 204 203 198 194 193 191 187 188 186 189 183 181 183 187 181 173 172 174 167 163 162 150 147 142 139 138 142 139 129 125 119 106  60  30  33  42  71 103 135 157 162 158 159 163 163 164
 181 183 187 194 197 195 204 193 100  28  37  66  89  99 104 121 128 117 116 128 131 142 148 155 151 156 161 164 169 172 176 178 181 175 183 186 188 187 190 194 194 199 205 203 205 205 204 204 198 195 193 190 188 184 181 181 181 181 178 182 181 177 173 172 168 166 164 153 147 142 141 145 144 140 138 138 117  95  56  26  19  29  63  97 125 152 162 160 159 162 166 165
 202 207 215 222 221 207 200 157  57  28  45  69  96  97 103 116 128 121 124 126 132 150 151 158 159 152 157 162 174 177 182 179 178 178 185 186 184 188 192 193 196 199 203 203 205 207 204 199 197 199 194 190 187 187 184 182 182 181 182 185 183 179 177 171 171 169 164 157 150 147 140 144 148 140 126 131 125  87  52  45  30  27  38  81 112 144 153 157 158 161 167 166
 204 208 204 206 207 193 166 107  27  31  47  77  92  96 106 114 126 123 127 124 134 147 148 158 156 153 156 158 174 178 179 174 178 177 183 186 188 195 197 197 193 196 197 197 198 201 196 183 180 181 182 179 179 179 180 183 183 182 183 187 184 180 180 175 172 169 158 157 150 148 136 142 149 143 129 122 116  95  54  62  51  48  39  68 100 118 149 156 159 164 168 169
 191 188 176 173 175 168 141 112  44  54  56  85  86  97 111 111 122 129 128 124 135 146 149 158 158 160 167 163 168 172 175 177 177 173 178 182 185 185 181 182 178 181 185 185 191 195 192 182 182 183 183 182 183 186 190 187 183 183 180 179 178 175 173 166 168 160 163 161 148 145 141 142 145 144 135 126 119 102  59  58  58  64  60  45  82 108 145 158 159 168 172 172
 167 165 164 175 179 174 144  86  49  40  68  95  82  97 105 111 120 129 130 128 136 150 148 150 161 165 171 170 171 171 172 176 172 174 178 178 183 182 184 184 186 184 183 187 195 198 186 178 185 186 183 186 188 199 201 191 187 182 180 181 181 181 176 169 165 158 162 159 152 148 147 141 138 144 143 139 119 107  69  54  64  48  55  43  57  83 112 148 162 169 176 173
 146 138 141 155 162 173 146  42  21  37  85  90  85  84  93 108 122 127 126 130 133 152 151 149 158 167 165 165 167 169 172 172 176 178 180 191 191 195 192 191 191 189 185 187 195 192 179 179 186 185 184 193 199 201 199 198 188 181 185 184 187 188 181 173 170 163 157 159 151 145 144 136 138 144 142 149 136 108  73  58  75  69  60  62  42  62  75 109 163 181 180 183
 217 179 131 119 116 120 110  42  24  58  94  77  73  78  95 112 119 129 133 136 136 146 153 154 160 163 165 167 167 168 175 176 178 181 181 192 198 203 198 199 197 196 189 191 195 195 175 183 190 194 204 204 199 198 194 199 197 189 190 190 188 188 183 179 174 170 165 159 154 145 146 143 141 137 132 139 135 123  79  55  56  76  85  85  68  73  72 111 140 184 187 189
 243 200 141 156 160 138  90  40  44  77  78  63  70  77  95 113 120 131 134 138 139 144 155 154 160 162 164 167 168 174 180 176 176 178 185 187 193 196 201 200 199 198 190 201 202 197 174 189 200 209 209 205 204 204 201 194 204 201 190 191 188 190 188 182 179 179 171 161 160 152 150 144 138 127 133 138 122 113  89  49  51  48  44  63  66  48  70 145 144 168 193 192
 208 143 133 159 141 110  57  37  54  70  64  66  64  76 103 117 121 130 134 135 143 146 157 156 162 166 164 165 172 179 181 175 178 184 185 191 200 201 203 197 203 204 198 204 207 202 176 196 210 214 213 211 216 218 219 213 203 189 180 180 180 184 187 183 178 177 173 165 160 160 157 146 134 129 134 131 111 100  87  52  49  58  25  22  30  36 114 168 134 152 194 193
 217 177 180 172 102  62  67  45  59  66  64  56  60  85 109 118 122 127 133 135 146 145 153 159 171 170 168 173 175 180 176 178 181 186 190 201 207 207 205 203 211 210 204 200 204 204 182 194 217 215 217 221 219 209 196 186 181 170 160 163 165 172 180 183 183 177 173 173 164 162 160 151 142 131 132 129 115 104  86  64  45  48  44  28  23  65 141 144 136 132 192 195
 225 220 195 152  57  83  99  42  58  69  51  51  74  93  94 106 123 125 137 134 145 150 153 165 171 175 175 179 176 181 179 170 168 173 180 186 188 196 202 206 209 209 205 198 205 205 186 191 212 215 216 209 194 180 170 157 154 164 160 155 163 162 163 169 170 173 168 162 169 166 163 153 143 130 131 129 113 103  93  55  42  41  40  33  34  65 127 153 133 123 198 205
 152 184 206 158  58 142  96  31  50  60  49  53  71  98 102 104 117 127 139 141 144 151 162 162 171 183 177 175 170 169 163 153 157 162 161 174 181 179 193 199 206 208 202 201 213 209 196 198 204 209 215 207 192 170 149 143 137 143 141 133 146 161 164 173 177 177 175 168 164 168 163 149 143 136 137 131 118  98  89  51  29  39  49  40  27  64 126 146 116 134 198 206
 122 135 177 145  70 144  85  35  49  54  51  53  77  99 102 106 117 126 137 143 148 159 160 162 181 182 164 161 166 155 146 143 145 147 156 164 166 167 183 196 203 202 196 201 210 208 199 208 205 206 204 187 169 148 136 128 117 108 111 119 132 145 152 166 171 175 176 176 171 168 168 145 138 134 133 125 124 104  85  50  29  26  36  46  31  43 114 117  98 144 189 199
 200 201 181 147  68 114  53  33  45  50  43  55  87 103 105 110 116 125 136 143 154 167 165 173 181 170 160 162 162 154 147 138 135 131 140 141 143 156 173 187 196 201 201 188 202 211 198 211 211 202 195 169 140 123 115 115 124 148 165 175 174 161 159 146 144 154 165 168 172 168 169 150 135 136 135 127 123 108  93  56  29  27  30  39  35  30  79 100 100 149 174 188
 214 226 194 147  59  79  44  32  37  45  38  61  83 100 104 110 118 125 135 141 156 167 176 173 177 167 170 175 178 167 161 155 149 142 138 126 123 135 151 164 188 204 197 184 195 209 209 210 201 195 176 140 113 112 133 153 171 180 186 191 202 207 198 180 159 145 151 162 168 169 171 157 134 133 129 129 122 112  95  49  25  18  24  32  31  24  56  75 120 155 163 182
 161 174 165 123  61  47  31  26  36  35  37  50  76  99 109 114 119 121 133 146 160 166 171 175 173 170 169 172 187 196 197 201 200 196 186 168 140 126 121 125 158 185 194 194 188 204 214 208 193 177 143 117 128 165 189 188 172 157 160 163 167 168 181 198 190 171 167 165 161 161 165 163 142 135 132 132 130 115 105  57  21  12  13  25  39  25  36  88 142 160 170 184
 135 167 183 130 105  36  19  30  33  27  30  42  74  99 111 114 119 121 133 149 157 170 175 173 168 173 172 175 193 203 208 212 208 202 199 196 192 160 132 114 122 158 194 198 193 206 218 205 183 162 123 117 157 186 180 163 159 161 167 181 193 185 162 149 176 188 184 185 165 161 166 165 152 142 136 130 132 127 104  55  19  14  20  27  34  33  23  81 141 171 185 187
 149 184 205 151 119  18  19  32  28  21  23  38  72 101 108 116 122 119 137 149 156 163 166 173 172 176 175 183 195 204 209 181 166 162 148 157 172 180 179 152 118 132 173 192 197 207 212 206 184 154 122 130 167 166 162 163 151 124 108 125 139 138 170 164 139 157 182 184 181 177 172 161 153 147 141 131 127 129 115  54  24  39  36  22  29  42  30  71 142 182 191 192
 151 168 184  95  27  24  37  41  25  16  19  37  74 108 113 119 126 126 130 140 151 153 151 162 168 176 182 186 178 154 120 109 104 114 131 145 147 171 173 168 148 135 149 179 192 200 204 202 182 151 137 146 172 177 182 158 173 150 151 122  99  98 103 136 153 125 153 177 179 177 173 170 165 154 141 134 133 133 116  70  30  24  18  38  48  28  28 103 160 182 193 193
 193 163 123  47  38  48  47  40  30  18  15  35  78 111 118 123 122 127 134 137 140 150 165 169 172 173 177 156 106  80  99 125 140 124 160 154 155 174 165 164 154 139 148 174 183 193 203 196 176 157 144 165 195 180 126 152 223 165 131 113  95  98  95 129 121 135 121 157 172 176 183 185 175 163 148 143 140 134 125  86  34  12  47  63  35  31 102 155 162 177 192 192
 211 166 131  67  45  31  24  22  29  32  13  37  87 108 118 126 127 131 139 144 145 152 172 180 172 160 131 108  87  85 113  74 131 137 215 208 146 142 181 185 164 146 149 168 179 191 200 195 173 158 149 181 200 176 156 165 184 172 145 158 147 126 140 150 115 120 121 131 161 173 170 166 164 159 153 151 146 135 135 106  44  36  47  42  70  94 151 158 160 174 187 186
 215 190 191 132  42  37  31  23  22  43  26  40  90 109 121 130 132 134 149 159 155 153 161 170 154 120  93 105 148  99 111 119 132 142 207 198 162 152 180 203 172 148 151 156 176 195 200 196 178 157 154 161 197 203 196 174 169 170 177 178 167 161 150 136 137 142 155 161 147 147 154 164 165 163 161 154 151 140 145 121  57  32  36  69  95 136 162 160 155 165 178 183
 210 216 206 202 105  32  28  33  31  39  37  43  81 112 124 131 135 138 156 164 166 168 163 148 122 116  99 120 162 131 127 148 161 171 170 172 184 201 201 193 156 154 154 155 179 193 196 196 186 168 149 155 172 181 181 177 179 182 183 181 174 171 173 169 172 184 190 189 181 179 174 172 173 173 169 160 151 139 137 122  61  31  41  56  95 145 167 163 155 156 168 187
 202 211 201 166  96  42  44  48  46  25  28  48  93 117 123 134 136 139 145 147 148 146 138 147 156 140 128 134 131 141 161 174 169 175 178 177 181 183 188 179 153 156 152 160 192 198 197 200 192 181 158 159 180 183 188 183 184 187 190 188 182 179 180 181 180 179 174 171 173 176 184 182 175 173 165 154 144 137 127 114  67  39  50  73  97 133 170 164 161 155 167 195
 196 199 192 109  80  55  46  50  78  58  26  56  99 116 124 135 143 149 155 154 161 166 163 166 175 168 166 161 153 161 170 186 193 188 180 171 174 184 189 171 155 159 156 160 189 195 199 193 193 190 164 159 183 199 197 193 190 190 188 189 190 185 181 186 189 186 182 180 181 182 182 183 186 186 175 160 152 138 131 114  74  67  74  92 114 155 176 168 160 155 168 194
 187 202 155  95 137  85  52  45  57  72  45  59 109 116 122 134 139 150 157 155 167 178 173 169 171 179 179 182 187 189 189 189 182 181 183 184 193 199 197 168 157 163 155 161 184 196 196 193 192 185 165 154 167 195 199 201 196 198 194 190 191 191 184 187 189 191 190 187 193 191 185 182 184 180 168 155 151 138 135 123  81  79 105 127 147 170 184 176 164 154 165 192
 172 196 121 135 194 103  63  59  49  51  31  56 113 119 120 130 141 155 162 161 164 175 170 169 175 172 173 170 170 171 176 182 190 195 200 198 200 204 194 168 153 165 157 167 186 207 200 194 189 186 168 157 154 185 201 207 202 202 202 200 198 189 176 175 168 166 167 169 182 189 186 178 182 176 170 155 143 137 140 126  96 120 151 150 163 167 180 176 168 162 171 194
 173 188 125 173 203 139  85  67  65  49  40  58 106 117 123 135 140 156 165 167 166 169 174 167 161 161 172 176 182 182 187 193 201 204 206 204 204 204 186 164 148 156 160 162 177 190 193 189 181 172 170 163 147 171 194 207 210 204 205 207 205 208 207 200 196 192 193 194 186 182 182 175 180 175 166 153 150 137 138 128 115 119 152 134 157 171 174 172 172 177 189 202
 164 169 120 167 182 152 110  79  72  69  48  70 105 117 125 136 139 154 165 165 165 169 171 174 178 178 178 177 178 177 193 202 203 202 206 206 210 201 178 160 151 156 153 165 173 178 185 183 181 166 164 164 151 165 192 202 207 207 203 200 199 196 196 194 192 191 193 192 186 180 172 170 172 167 159 149 149 137 139 123 135 128 129 126 164 173 170 173 180 193 207 214
 149 162 127 168 176 154 143 103  64  83  73  73 105 119 123 132 141 151 162 160 169 169 171 191 196 186 180 183 195 210 212 203 202 200 205 210 206 193 171 154 150 147 150 170 182 186 187 185 180 168 166 164 159 157 175 197 201 208 209 204 198 194 193 188 188 189 193 190 182 180 174 174 172 164 153 148 144 132 139 114 133 142 120 124 171 166 165 170 182 202 216 219
 153 161 147 171 184 164 140 136 115 109  93  74 106 121 123 132 136 152 163 166 167 170 183 194 181 177 180 192 197 201 197 194 198 203 206 206 198 184 157 147 144 142 156 174 184 180 184 185 182 169 163 164 162 155 168 192 201 205 207 204 203 206 204 194 190 183 184 185 181 175 170 168 166 161 153 143 140 131 147 136 165 169 146 128 161 161 159 166 178 203 221 220
 166 161 156 170 190 174 148 148 144 123 109  84 107 124 119 129 135 150 161 163 166 176 174 171 172 187 189 193 191 191 193 194 202 205 205 204 204 176 149 146 143 141 154 166 175 182 183 182 178 168 154 160 162 152 162 192 204 200 204 208 207 206 205 203 198 187 179 179 178 173 163 158 157 155 149 138 134 130 153 173 178 180 174 158 161 164 159 162 174 201 222 224
 182 175 173 163 184 172 150 149 139 129 123  90 107 120 120 125 132 148 157 160 172 166 165 170 174 191 194 181 181 187 195 202 206 206 205 209 204 172 154 149 146 137 150 161 178 181 188 186 174 164 155 157 163 160 155 183 201 202 206 206 208 207 202 202 202 193 184 181 179 171 170 158 153 150 142 132 128 136 154 183 170 183 194 176 173 167 161 160 173 204 222 223
 200 194 202 161 159 162 149 149 128 134 147 128 103 118 120 119 129 147 151 160 163 168 160 163 175 177 179 184 193 199 199 205 202 201 206 207 206 177 153 153 146 138 155 170 188 193 192 196 180 155 148 157 174 171 160 184 193 189 186 197 208 208 202 201 195 190 188 180 177 171 167 158 151 154 149 128 128 137 159 180 162 194 203 181 167 161 161 159 174 209 224 222
 203 193 189 189 148 146 180 165 128 137 159 139  94 117 116 120 130 139 151 164 162 158 148 162 173 176 188 200 203 206 210 210 208 204 208 205 205 173 152 158 142 144 156 172 188 202 201 196 181 162 148 156 177 178 157 171 201 192 178 186 195 205 207 203 194 187 190 180 171 163 156 145 148 157 151 129 125 136 156 168 172 182 190 176 158 162 160 163 178 211 227 226
 191 191 190 203 172 121 179 168 130 149 168 151 103 120 115 125 127 132 153 164 151 152 163 167 174 182 197 205 208 211 214 211 205 203 202 204 202 154 151 154 140 148 164 175 194 215 218 202 182 166 152 157 169 171 158 157 195 195 189 182 182 200 209 206 201 192 188 182 177 165 155 144 143 160 152 131 135 129 153 165 163 166 184 173 154 158 163 167 184 212 223 226
 187 195 201 205 156 131 157 147 111 141 175 171 112 110 120 128 125 133 150 153 149 164 168 167 179 182 198 206 213 215 209 207 202 199 195 207 186 146 159 155 141 140 160 177 196 214 218 203 181 172 159 155 163 163 150 148 192 197 185 173 172 187 200 205 201 195 193 183 177 169 159 144 145 164 156 136 135 134 143 171 174 174 167 159 160 146 154 168 190 214 221 224
 195 203 209 204 129 159 196 145 109 152 173 156 118 118 123 127 123 131 146 145 142 169 171 169 182 187 194 200 208 213 210 202 192 188 199 211 179 142 162 165 141 133 150 173 178 173 179 184 171 164 142 151 144 134 123 155 192 187 184 175 166 171 188 196 199 193 191 183 179 166 156 149 149 167 164 142 135 129 135 178 184 176 142 156 160 154 148 168 200 221 221 220
 206 208 215 187 124 189 193 106 115 150 163 142 130 125 122 125 122 132 145 135 143 164 168 171 180 185 191 196 206 212 214 198 184 194 207 200 182 135 130 136 128 118 127 149 162 145 148 156 147 137 124 102  90 101 128 174 183 188 194 193 170 154 171 188 199 196 189 183 173 167 159 149 151 167 173 149 139 132 129 172 174 172 163 162 137 152 155 168 206 224 222 216
 210 210 214 202 135 159 119  50  95 144 151 165 160 139 123 122 124 136 140 134 147 155 162 173 179 181 187 198 210 210 197 183 182 195 199 192 179 156 121 103 100 101 106 112 127 126 126 126 123 109  87  90 125 148 170 175 180 186 194 198 189 162 156 169 186 190 189 182 173 166 158 148 155 173 180 156 133 133 140 172 176 181 175 135  78  82 122 170 206 222 221 219
 211 214 213 217 208 117  33  26  89 147 138 173 169 153 128 130 129 132 129 129 147 160 161 168 174 183 185 188 199 191 170 162 181 193 190 187 177 165 155 138 136 125 111 106 105 110 113 119 106 109 113 136 139 151 165 166 164 169 189 195 194 188 173 155 162 177 185 178 173 167 153 148 156 168 177 159 133 130 152 179 174 171 160 138 111  83  47 140 202 216 218 217
 214 215 212 214 165  34  38 107  88 128 158 175 163 156 128 127 124 128 126 130 136 145 155 166 174 180 178 174 167 149 154 180 187 174 175 176 170 161 150 134 141 132 151 160 154 156 160 165 160 162 141 142 122 135 160 152 146 154 176 178 194 187 186 170 145 159 173 174 171 160 153 152 167 159 170 160 135 133 150 181 168 155 140 140 153 119  56 156 202 220 218 211
 210 211 216 195  45  73 177 122  18  86 158 179 176 149 119 119 124 133 136 140 138 127 149 165 168 170 171 146 124 152 179 186 174 160 164 162 156 143 138 148 152 155 173 169 166 174 172 169 163 170 172 155 137 141 148 147 146 140 163 162 187 185 183 189 164 135 157 171 166 162 155 155 182 165 166 156 146 134 128 164 158 130 125 149 129  93 113 178 205 221 220 215
 204 205 204  81  20 191 153  30   1  28 128 157 166 160 123 105 116 130 137 140 143 135 147 163 163 162 137 118 152 177 175 166 160 163 157 141 142 136 141 162 162 170 185 173 174 184 185 191 179 174 174 173 161 152 150 145 148 143 157 163 165 178 176 182 191 154 134 164 169 163 152 165 187 169 163 156 146 147 119  83  90  81 100 132 117 121 146 166 201 219 220 219
 204 208 172  33  75 181 105  20   5   0  60 140 156 168 133 101 115 121 131 146 156 141 140 160 160 142 119 152 172 171 176 165 158 157 153 149 147 142 151 158 167 179 188 180 175 181 194 196 197 187 184 182 160 156 167 165 159 161 157 164 161 162 174 183 186 181 141 158 173 162 149 158 183 172 155 151 127 139 104  62  85  87 119 102 126 148 140 155 193 213 220 220
 207 210 191  69  62 119  68  30  14   2   2  71 124 134 119 108 116 121 130 151 167 134 137 157 163 138 149 167 164 168 169 155 155 152 149 151 153 158 163 158 168 184 198 199 198 202 204 203 199 194 197 190 177 171 176 176 169 177 163 162 153 160 166 171 179 182 149 155 184 176 162 147 177 169 154 143 125 123  97  72  86 101 109 108 114 159 145 143 185 200 212 219
 211 212 211 183 112  87  82  34  21   5   0   4  54  56  87 113 119 118 133 156 161 133 141 157 161 145 160 178 175 168 159 153 160 161 163 157 160 166 172 178 180 189 191 200 206 210 205 213 211 203 190 183 180 180 169 170 174 169 163 155 145 162 167 171 180 184 164 165 194 179 151 147 180 170 153 140 127 113  72  31  41  71  84 111 124 144 152 141 157 183 200 215
 213 215 217 220 205 114  97  51  21  29  10   7  48  46  79 104 111 125 134 155 160 137 144 168 160 162 182 189 186 173 168 152 136 143 150 152 154 162 162 165 163 166 171 185 200 205 200 194 196 178 156 145 141 143 136 127 123 108 108 104 105 124 165 183 181 185 173 174 199 176 141 150 183 166 157 145 127 111  63  29  19  25  55  87 123 134 157 134 135 173 192 208
 219 222 222 220 221 170 106 112  29  37  42  39  39  22  43  89 116 129 118 146 155 136 155 173 156 177 206 187 185 171 145 111 116 102  92  95  99 100 103  99 103 116 130 141 142 142 139 140 139 129 118 118 111  97  97  92  68  72  93 124 141 121 157 177 191 194 180 188 205 172 145 156 175 157 154 149 117  97  58  47  33  37  54  69  82  90 128 138 131 174 197 209
 227 228 228 224 220 193  97 114  55  17  43  54  52  10   7  73 101 114 121 139 164 154 139 164 159 179 208 191 175 153 140 155 174 157 132 119 114 111 120 107 107 126 132 131 124 129 137 136 133 140 136 137 140 136 137 140 137 153 166 176 185 161 168 185 200 205 184 196 196 167 145 166 168 154 142 144 106  75  47  65  56  47  61  98 101  64  42  88 110 174 202 204
 224 224 225 224 221 191 103 134 125   8  17  44  61  41   6  49  88 117 122 136 163 153 129 150 156 177 201 198 186 174 179 182 180 170 158 151 154 159 165 161 173 181 186 187 185 184 185 191 189 190 197 192 191 181 173 170 171 170 175 177 176 170 171 192 201 201 182 185 176 154 148 167 171 157 134 122  98  69  45  62  82  64  73 113 110  93  39  34  90 128 170 195
 222 223 221 222 215 179 120 145 161  89   9  21  46  57  29  36  80 116 124 133 163 155 132 146 155 173 200 204 184 188 187 185 180 172 163 155 160 166 167 175 185 194 197 202 211 208 206 209 214 210 205 200 192 183 172 171 176 178 179 185 186 183 188 191 209 196 185 178 165 140 152 174 162 147 136 112  90  82  50  54  73  76  78  98 130 116  54  14  41  63 135 200
 223 222 217 220 222 180 153 162 161 113  31  30  42  56  45  29  60 108 117 133 160 164 131 134 150 163 194 205 182 195 189 181 180 174 168 162 167 172 175 183 182 185 187 197 210 202 204 213 200 203 199 193 185 180 174 174 184 177 182 185 190 192 197 196 210 194 182 178 166 139 153 171 154 141 120 103  89  96  64  47  56  76  66  78  97  97  72  57  78  85  98 186
 228 223 221 220 200 191 185 169 143  73  72  62  50  52  55  34  49 107 112 121 137 164 150 133 148 151 184 198 195 191 180 177 184 177 167 166 170 175 182 180 178 183 183 184 189 188 192 202 181 180 180 178 174 181 180 171 179 184 185 186 181 194 197 197 194 180 168 172 164 139 156 164 154 121  97  82  88  78  60  49  50  64  55  44  43  49  47  65 138 175 135 123
 212 207 208 198 201 211 193 174 109  82 115  89  74  74  58  25  36  79  98 119 133 150 153 140 144 151 171 197 202 193 185 172 175 171 166 166 164 177 187 186 185 194 194 189 194 180 184 186 187 183 178 177 170 186 184 174 181 188 184 180 182 196 205 193 186 170 168 171 152 150 163 149 130 107  84  78  95  52  53  48  44  54  47  25  57  45  30  23  37 110 176 134
 214 213 211 212 217 211 199 153 118 144 132 129 141 103  75  27   5  48 104 115 127 149 166 148 129 136 155 183 203 204 187 177 167 166 168 170 164 173 186 184 197 197 188 194 188 183 177 173 177 181 183 185 188 177 172 179 183 185 181 177 189 197 205 197 174 167 175 157 152 158 147 150 122  95  77  82  98  47  40  48  32  38  48  35 107 102  39  40  13  12 108 133
 217 220 220 222 215 200 168 138 143 166 169 164 166 119  79  53   2  28  82 103 110 140 159 152 119 130 143 166 198 203 192 183 168 165 162 161 170 179 187 191 201 196 197 190 167 181 188 178 180 188 197 194 194 186 175 182 183 183 184 183 193 202 193 176 166 178 168 135 148 160 152 140 107  83  78  96 112  48  32  29  26  30  59  49  49 107 111  74  55  11  39 131
 204 208 216 207 191 199 177 137 141 168 176 167 158 123  63  48   6   7  58  86 108 124 146 165 147 124 133 147 166 187 195 188 175 167 162 163 171 180 193 200 207 197 190 182 175 189 195 189 194 199 206 200 190 191 184 184 186 185 184 188 194 199 179 164 168 171 149 140 152 153 146 112  83  64  77 102 125  48  24  23  15  33  62  56  37 102  99 127 129  43  37 137
 202 200 200 204 214 221 205 109  99 174 178 165 155 105  64  32   5   2  43  71  91 115 139 152 148 128 128 121 144 171 180 184 177 172 164 161 170 180 193 202 203 208 183 178 194 196 181 187 194 200 207 201 196 188 186 185 189 187 191 184 184 182 164 161 166 140 142 160 159 149 121  88  71  76  93 120 133  58   9  19   9  22  61  64  35  52 102 153 152  52  55 144
 226 224 221 218 211 211 221 148  41 166 203 177 159  99  56  21   1   1  26  63  69  99 121 137 156 149 124 111 122 154 171 187 184 169 161 159 173 182 196 197 203 207 199 193 200 207 203 198 198 201 203 188 201 194 187 186 187 187 191 187 185 171 154 146 152 134 154 168 153 133 100  67  55  77 110 136 135  77   6  12  13  23  51  63  20  71 136 142  87  50 132 162
 227 226 224 218 209 206 209 213 101  59 168 195 167 128  46   7   2   2  28  58  69  87 115 133 154 152 132 121 107 136 170 189 186 170 157 164 175 186 191 195 196 199 202 195 194 195 204 203 204 197 202 201 200 200 188 186 182 184 187 194 179 163 146 135 141 152 166 161 132 104  78  67  67  86 119 135 135  86   2   3   4  54  66  54  61 127 145 130 111 144 164 172
 224 224 223 221 217 213 208 214 204  80  35  80  93  68  17   9   7  10   9  17  50  79 108 121 132 142 138 134 118 133 168 177 181 167 160 162 172 188 192 187 181 180 184 194 188 186 201 199 204 199 202 203 194 199 195 184 178 183 186 186 171 146 131 126 145 171 162 148 121  83  62  64  85 102 136 145 127 119  31   0  13  43  40  74 123 162 169 172 173 161 160 174
 224 223 219 217 217 214 217 219 225 205  99  30  23  20  14  13  17  15  33  11  27  72 100 114 119 146 140 136 121 121 144 163 182 177 163 165 179 180 181 176 177 179 173 188 183 188 185 198 198 198 203 197 191 190 194 190 178 182 178 177 164 143 122 138 158 165 151 116  96  70  75  82  97 126 151 137 125 146 154  16  17  18  23  38  45  71 115 175 187 170 162 170
 223 223 219 217 218 219 218 222 219 211 195 158 127 112 113  54   1  29  63  46  22  48  90  93 110 131 151 134 105  91 122 176 175 172 165 163 173 166 169 166 171 173 167 186 187 189 188 196 196 189 188 191 188 185 188 186 180 172 169 168 157 141 116 130 164 162 130  88  71  51  90 110 104 135 144 132 133 126 219 122   1  21  18  22  17  14  13  64 142 178 175 169
 222 222 220 218 222 223 219 215 210 195 192 203 213 217 223 176 106  80  77 129  72  23  44  62  85 116 135 129 120 103 131 169 160 159 162 154 160 171 165 166 163 163 165 183 200 187 188 185 189 190 182 174 179 184 184 168 173 168 161 159 150 127 112 127 159 147 102  65  56  79 103 116 126 144 142 136 140 120 212 229  45   0  12  19  18  24  28  19  24  84 166 190
 219 220 218 217 220 220 215 214 211 195 184 199 218 223 224 215 189 161 116  50  25   9  14  52  67  84 107 121 138 121 122 145 152 158 156 155 165 155 164 169 157 167 170 179 203 198 194 186 171 178 180 172 178 176 182 175 167 164 166 152 138 118 119 140 146 114  80  57  63 102 111 128 142 151 140 141 147 125 194 247 171   6   0   7  12  21  28  35  30  23  49 150
 217 216 217 217 219 216 215 216 217 207 184 192 214 219 221 209 180 168 156  69  18  42  35  49  67  61  89 109 121 101  97 138 151 154 152 157 164 157 157 175 171 179 169 169 194 187 183 182 168 177 184 184 177 179 188 185 190 169 157 139 122 104 112 120 107  87  63  66  99 133 150 139 144 150 141 154 139 126 186 245 237 107   0   4   5  16  24  30  33  35  25  41
 219 219 221 221 221 222 220 216 218 216 198 188 197 211 216 202 178 164 163 151 113 133 112  32  75  66  57  86  99  91 104 151 137 155 160 159 162 160 181 178 176 172 161 158 180 184 180 177 183 180 187 184 175 188 187 188 191 164 143 139 132 110 107 110  75  64  54  94 132 142 149 147 155 145 155 162 136 129 175 246 233 217  58   1   4   7  17  25  33  36  35  33
 225 224 224 224 225 225 223 221 223 222 212 192 185 194 200 192 176 164 163 170 168 156 138  80  87  82  65  68  78  86 102  99 125 148 148 159 163 165 185 178 173 176 167 175 188 181 177 178 177 177 178 184 186 186 177 179 181 169 138 111 108 112  95  85  69  59  97 140 145 146 150 161 160 149 164 160 138 128 183 248 231 235 183  17   6   6   9  24  34  37  35  34
 227 225 224 225 225 225 226 227 228 228 224 209 192 185 185 182 173 166 165 167 170 166 163 162 127  85  77  70  62  62  77  96 145 133 146 172 152 148 166 164 171 172 171 175 181 170 184 185 181 187 178 181 195 170 157 178 172 167 144  89  90  88  68  57  63  86 138 153 161 164 166 160 151 155 165 152 146 128 209 248 233 230 237 100   0  10   9  21  32  35  35  33
 222 225 225 226 225 225 227 228 229 230 228 224 215 200 190 185 183 183 178 173 178 183 175 171 151  98  77  70  71  66  61  88 104 122 156 170 162 152 158 152 168 174 169 157 179 178 180 177 168 187 184 168 175 174 185 185 158 136 117  85  76  66  54  60  79 120 152 169 171 170 161 158 153 158 156 146 144 138 234 244 235 234 236 189  25   3   1  14  32  32  35  31
 221 224 225 227 226 224 227 229 229 228 227 227 226 220 211 207 208 210 206 201 196 190 180 168 164 118  84  80  79  72  72  78  69 114 148 168 169 161 159 159 164 164 168 166 167 176 181 169 173 176 177 158 170 162 174 179 150 116  86  78  64  53  57  80 105 152 169 174 171 165 161 156 158 163 158 147 129 166 248 239 235 235 231 225 177 136  95  44  19  30  33  33
 224 224 224 225 224 225 229 230 229 228 227 227 228 226 223 223 225 225 224 221 212 195 178 170 173 139  93  85  82  88  79  67  67  77 120 138 152 154 156 158 162 182 172 159 152 166 170 165 175 162 159 157 165 155 150 162 131 102  76  60  59  60  77 109 138 167 172 171 167 161 162 161 164 160 150 145 131 213 248 239 235 235 234 227 221 195 208 176  35  23  30  31
 227 227 227 228 227 230 230 230 228 228 229 228 228 226 225 226 228 229 228 226 222 209 189 184 188 164  97  97  93  94  92  82  66  63  76  95 126 141 153 140 160 171 159 158 155 165 164 149 168 161 143 160 162 153 135 115  98  58  48  53  68  91 108 129 166 167 169 167 165 165 159 158 159 157 150 140 164 246 243 239 237 237 235 231 230 197 180 193  82  19  26  28
 228 230 230 231 230 230 230 227 225 226 227 227 228 227 226 226 227 229 228 225 224 219 212 211 208 189 109  98  96  94  97 100  79  76  65  56  92 100 123 133 147 143 151 153 158 157 136 131 151 157 118 137 118 103  89  62  67  64  71  84 102 116 131 155 171 168 160 163 170 167 159 162 162 157 149 140 218 249 241 239 238 239 234 235 232 219 188 201 123  24  27  29
 228 229 230 230 229 228 228 227 225 226 228 228 230 229 227 227 228 229 229 227 225 223 222 221 219 213 137  95 104  93  90 101  99  85  79  69  69  69  83 102 141 142 128  99 124 144 107 105 144 137  89  87  66  52  50  52  75  98 121 124 128 140 158 166 170 165 162 164 165 167 166 160 165 161 143 165 247 243 240 239 240 238 235 236 237 225 193 202 151  28  28  26
 228 229 230 229 229 227 227 227 225 226 227 228 229 227 226 227 228 228 229 230 229 227 224 223 234 182  70  93 116 107 101 100 106 104  98  87  79  69  54  61 109 119  91  87  97  91  79  73 100  58  39  52  62  77  75  83 110 129 139 141 142 158 165 170 169 164 163 166 168 163 163 164 163 150 149 228 249 242 239 240 240 240 238 234 237 228 198 212 168  32  25  30
 234 230 229 230 229 227 225 225 224 225 226 227 228 228 227 227 227 227 227 230 230 229 229 238 181  34  24  96 109 119 108  99  99 109 113 103  92  80  85  76  62  50  60  62  53  73  75  74  71  87 114 102 122 127 127 138 144 147 150 149 160 162 163 164 162 157 164 161 158 160 168 166 160 145 199 251 244 240 240 241 241 240 239 237 238 229 196 218 169  32  26  29
 239 235 230 230 229 229 228 225 226 228 229 228 228 229 229 229 228 228 228 230 230 230 233 180  37   1 106 143  96 119 111 110 114 113 112 109  95  96 101  94 103 110  99  90 127 152 164 171 161 152 165 161 158 149 165 166 155 155 159 158 159 158 163 162 159 160 162 160 160 166 166 166 155 178 246 246 241 241 241 241 241 239 240 237 239 229 198 223 150  26  29  32
