P2
# Generated by OpenCV 4.2.0
92 112
255
 154 158 169 172 185 192 182 159 159 165 160 162 171 174 167 166 176 183 172 148 154 159 160 149 117  97 112 113 105  98  86  90  78  91 104  84  91  69  41  59  75  57  79 103 102 137 143 145 151 155 148 137 128 107 112 132 128 126 128 134 139 123 117  99 108 149 157 167 164 177 176 171 182 186 191 187 188 204 199 187 178 185 205 214 200 194 191 184 177 179 175 166
 148 157 171 173 169 186 185 167 168 168 147 157 170 167 165 170 165 165 156 153 151 141 127 109 114 117  99  86  80  86  96 103  77  86 112 112 107  77  69  94  98  96 120 108 127 144 156 162 155 143 109  88  76  83  83  98 108 122 115 105 112 114 117 114 113 121 141 156 162 182 180 190 189 162 156 169 192 216 214 208 204 209 213 212 208 204 196 196 197 188 180 157
 153 155 182 190 165 169 176 170 164 159 158 168 163 152 163 163 153 147 151 152 139 115 122 126 119 100  80  85  85  76  74  98  98  86 100 130 122 105 127 126 128 145 116 120 147 152 161 158 143 132 107 102 109  99  96  85  85 103 102 101 102  98 106 114 115 115 126 139 153 165 174 204 210 173 148 163 195 213 216 215 213 212 211 216 218 207 199 199 209 203 196 176
 167 175 199 209 197 164 131 140 153 158 177 169 156 152 149 159 150 144 146 136 129 121 115  97  78  75  79  81  86  92  94  83  99  84  79 123 122 132 137 119 153 155 119 121 149 152 150 150 151 138 135 140 129 120  95 105 121 119 113 111  98 106 109 125 118 106 115 137 148 157 162 202 219 206 200 198 206 210 218 222 220 213 203 206 221 213 196 186 182 185 191 196
 203 219 228 221 213 163 121 129 146 149 153 156 158 151 155 166 138 137 127 122 112  96  86  84  83  87  89  90  82  80 104 117 111  98  63 126 134 152 115 121 154 149 123 127 148 121 146 149 133 130 154 139 123 113  99 141 127  88  77  85  93 118 136 126 102  99  96 113 129 145 143 174 219 214 203 186 203 215 220 224 223 215 192 189 203 206 186 162 154 170 193 198
 193 212 215 178 149 131 125 132 147 168 140 142 141 139 148 150 145 124 111 112 103  93  84  75  75  74  78  85  96  85  91 121 125 114  85 127 131 150 102 123 145 147 122 129 135 129 146 124 103 128 149  95 126 136 154 136  91 101 109 119 136 129 108 104 106 110 109  83  84 109 122 144 191 206 173 145 186 214 212 216 222 225 196 181 185 189 178 154 163 191 204 203
 143 152 159 131 111 123 129 128 142 168 160 141 136 140 131 132 121 102 104  98  81  69  73  76  83  82  79  87  91 116 109 112 132  97  87 123 116 124 109 126 131 150 108 144 143 140 134  90 101 134 111  76 147 168 157 102 104 102 121 158 170 137 122 152 174 162 114  73  65  59  89 112 156 184 181 140 173 202 208 205 208 224 211 190 183 193 191 175 183 197 204 211
 109 130 151 145 129 126 123 116 131 155 168 159 148 148 135 114  98 104  93  69  66  69  64  65  72  90  93  88  95 105 123 113 127  91  85 115 106  98 119 104 132 138 117 152 132 143 107  89 111 115  76 107 166 163 118 113 134 143 150 144 120 102 115 120 129 137 120 103  77  65  57  65 105 149 172 153 173 189 195 196 197 212 203 193 194 198 197 193 200 197 201 210
  85 115 144 134 118 102  98 104 123 133 140 162 153 145 136 107 106  91  64  67  71  70  71  68  70  65  78  71  78  97 106 109 113  95  93 112 100  96 121  90 133 132 127 151 129 142  98 102 116  86  88 128 161 131  88 106 110 108 112 116 111 111 121 136 146 157 150 129 111  75  46  45  67  86 121 173 188 197 202 200 207 214 196 193 196 192 189 197 204 204 199 196
 102 118 126 111 112 113 102 112 132 139 146 150 145 158 127 100  86  66  67  57  62  67  68  67  58  54  58  67  57  92  95  98  99  99 111 107  88 114 102  99 134 135 137 154 136 131 106 105 105  90 115 135 149 108  86  91  92  94  97 102 115 129 133 150 150 139 138 120  88  70  48  39  58  82  78 128 191 192 207 211 217 219 202 196 185 183 194 191 195 206 199 192
 114 116 111 106 120 124 117 132 128 125 137 136 142 143 101  81  54  51  50  59  64  64  60  50  51  52  55  65  67  84  91  84  94  96 113 108  87 121  93 114 124 138 137 144 134 130 106 110 105 107 123 135 140 106 101  99  97  95  97  96  93  99 101 105  98  85  81  71  57  62  77  71  57  73  76  73 130 173 197 195 198 200 196 204 186 175 190 177 177 199 198 192
  90  89  91 100 114 121 121 129 120 112 123 124 125  97  75  52  42  46  53  58  58  49  42  43  45  55  71  81  81  88  88  89  95  99 108 111 103 110 105 117 120 132 133 133 139 137 108 114 113 119 132 132 140 114 109 117 120 119 113 103  91  79  79  70  65  73  70  61  77  98 111  62  37  57  88  73  83 124 174 175 175 171 170 189 186 161 160 154 161 186 191 191
  92  89  89  98 110 123 135 133 121 110 101 103  96  71  50  42  43  44  43  56  46  38  44  41  46  74  95 100  96  96  94 100 102 104 111 113 118 104 116 122 125 136 138 132 134 132 116 125 127 138 134 134 137 135 135 142 146 145 138 129 115  99  87  87  84  66  50  60  70  76  60  44  27  32  72  86  99  93 147 183 175 176 176 181 182 173 167 161 160 172 164 169
  93  93  96  89 104 120 116 111 115 115  96  89  81  54  41  37  40  33  55  50  38  43  41  48  77  99 108 114 113 107 113 112 110 116 116 117 120 117 118 125 132 144 147 140 133 134 132 133 139 135 129 143 157 153 154 161 161 162 162 156 146 142 137 112  96  76  65  71  75  56  31  52  75  43  33  78  91 107 114 192 188 188 192 195 194 196 200 196 185 187 175 165
  89  91 101  90  90 101  97  95 100 103 100  95  66  40  37  40  29  40  56  42  41  43  46  80 104 105 110 120 115 115 126 120 121 128 126 127 130 129 125 138 144 149 150 145 144 141 146 147 145 142 149 161 160 165 171 165 165 165 162 164 167 161 160 152 129 113  84  68  61  70  88  58  45  77  49  48  83 106  88 130 169 181 189 184 171 174 178 171 167 186 190 179
  83  88 102 103  92  85  85  85  86  91  91  80  50  38  38  31  30  45  42  38  41  54  85 101 106 109 119 123 124 124 127 130 134 132 135 133 137 134 137 147 152 152 158 150 153 152 159 158 165 166 175 180 178 180 174 174 177 170 169 169 175 174 171 173 164 152 123 104 109  90  83 112  96  63  71  41  67  91  85  95 148 142 165 168 149 137 141 135 119 132 165 161
  90 103 101  94  90  83  80  81  83  84  84  62  40  38  32  30  37  41  34  32  56  94 108 107 110 115 124 131 132 133 129 131 133 138 141 140 142 143 148 153 154 163 159 159 169 169 169 177 182 182 186 185 189 183 182 180 180 175 171 175 175 179 177 178 181 178 156 115 114 126 106 110 132 120  65  63  61  83  81  84 159 159 168 185 183 178 177 180 158 127 131 137
  93 102  91  83  84  85  82  84  85  81  75  46  37  34  33  34  40  34  31  55  96 111 109 113 118 125 130 130 136 138 139 138 143 141 142 149 146 149 160 158 162 169 161 168 176 174 179 183 184 184 183 187 188 188 197 190 188 182 180 180 179 177 180 183 191 193 189 158 101  92 128 131 128 146 116  49  61  78  72  57 162 192 169 179 194 182 175 200 193 167 154 141
  82  83  80  83  83  83  86  90  83  78  58  37  35  32  36  43  39  31  62 102 114 116 116 126 121 127 131 129 137 145 144 136 137 137 144 149 149 156 159 158 162 167 175 179 172 176 186 179 187 192 193 190 195 198 201 203 199 196 194 189 183 181 180 184 189 192 194 194 155 117  96  96 115 156 147  85  46  74  69  44 142 195 171 164 162 162 163 174 182 173 167 159
  87  84  80  81  79  78  84  93  86  69  44  40  35  35  43  44  38  68 103 115 117 112 120 124 126 132 136 135 142 147 146 137 141 145 148 150 157 159 161 169 171 175 180 179 175 183 191 184 192 195 197 196 201 201 201 205 203 204 205 198 199 196 194 199 193 186 195 201 184 152 149 121  81 101 146 135  71  57  62  47 118 182 158 166 171 171 165 168 173 172 162 158
  81  82  81  80  82  77  80  81  78  53  43  43  32  41  50  47  66 101 115 117 120 121 125 130 135 138 139 142 150 147 149 147 145 153 149 155 164 165 169 176 180 181 180 183 186 186 187 192 190 188 191 194 200 205 207 207 205 210 211 207 208 203 200 206 197 190 195 200 197 167 150 164 153  86  99 135  95  73  55  47  90 162 158 143 157 173 171 169 169 173 162 153
  78  77  75  75  77  76  81  85  72  43  45  38  37  51  53  65 101 115 116 125 123 128 128 135 135 138 139 145 147 145 150 150 150 152 147 152 159 163 172 176 182 188 182 182 181 185 180 179 190 195 191 190 195 203 205 206 209 211 215 213 211 210 203 201 200 199 194 197 202 196 166 135 163 170 101  93  76  57  73  61 105 161 186 163 156 162 157 164 170 162 165 183
  83  77  77  80  84  78  82  83  61  37  48  37  46  52  58  90 117 117 123 125 127 132 131 130 138 138 140 149 148 148 152 147 148 151 157 158 159 165 170 173 183 180 177 180 177 181 183 178 183 183 185 184 193 200 205 208 206 208 214 212 209 214 216 210 204 203 199 197 201 204 189 163 126 158 167 104  79  48  41  57 119 156 208 195 183 168 143 157 174 156 170 187
  83  89  86  89  94  84  86  76  46  38  49  40  48  53  78 113 122 118 122 126 129 131 131 133 140 139 143 147 146 149 152 152 152 152 157 158 161 165 168 173 179 179 174 174 181 176 180 178 179 180 178 186 196 195 197 208 213 212 213 213 211 213 213 217 216 207 202 196 201 206 197 192 172 129 144 149 114  71  28  37 119 154 213 198 185 161 121 140 158 137 166 181
  80  82  80  84  88  91  92  72  38  40  53  52  55  71  92 122 124 126 125 126 129 132 132 140 141 141 140 148 148 151 149 148 149 147 153 157 162 166 170 171 176 183 180 178 174 178 178 173 181 188 183 186 197 197 193 200 212 215 215 216 215 213 212 210 217 216 206 195 201 208 205 188 193 170 119 131 140 112  59  38 102 145 189 183 178 172 133 140 153 126 148 179
  82  77  77  77  81  89 100  71  33  48  55  54  62  81 114 125 125 130 129 129 131 133 134 136 140 144 146 152 152 157 154 153 155 153 155 150 160 166 167 167 171 179 180 177 169 176 176 179 183 186 181 191 197 202 202 203 208 207 212 216 216 215 212 211 217 213 210 198 204 212 209 196 186 191 157 108 121 130 103  66  59 112 150 147 154 181 172 150 153 134 153 178
  84  82  86  92  94  97  97  60  32  45  48  57  75 103 125 126 124 128 128 129 130 133 137 137 141 141 145 151 151 155 156 157 157 157 157 155 162 164 165 169 172 173 172 169 162 166 169 163 171 182 186 189 194 204 207 208 210 209 209 210 213 219 217 211 214 209 208 202 204 210 205 198 186 190 170 141  98  87  83  72  60  89 143 147 146 150 150 143 155 161 155 184
  92  89  97 109 112 111  96  48  29  57  63  71  91 104 127 127 129 129 132 128 131 135 141 143 144 146 152 152 151 154 155 155 154 156 157 160 157 161 163 169 168 166 164 163 154 163 166 154 166 173 176 185 190 196 204 209 212 212 217 212 207 213 215 214 210 206 204 202 202 206 204 191 189 186 176 150 109  62  45  50  44  69 120 161 162 153 157 166 170 162 126 161
  89  90  94  96  95  86  67  35  49  70  57  81  92 107 130 127 128 131 131 131 132 137 143 144 141 144 150 151 151 148 146 147 151 152 150 152 152 155 160 161 160 162 160 160 160 167 170 167 178 177 172 179 185 187 180 187 201 215 215 215 218 211 205 209 213 203 197 199 202 208 206 191 185 191 180 139 129  91  46  56  43  52 121 120 133 174 191 196 186 131 106 138
  77  83  85  80  76  63  57  48  72  60  66  92  94 116 133 129 130 130 131 137 133 140 140 144 140 141 144 146 149 150 151 153 158 157 150 153 153 153 162 167 168 167 163 156 153 154 161 163 172 180 179 190 195 187 192 191 192 193 198 200 210 215 210 205 204 201 198 197 203 206 200 199 178 180 187 151 112 110  71  54  58  43  65  92 122 159 182 186 150 109 108 124
  67  63  59  58  54  54  62  78  82  61  83  93  99 120 134 132 131 130 134 134 129 137 140 141 143 150 149 150 151 151 151 154 159 153 152 155 156 158 163 164 162 163 164 163 156 157 156 160 162 169 168 174 185 192 192 195 207 204 204 200 198 194 207 212 202 195 195 199 202 202 197 194 185 174 181 156 112  98  91  51  66  72  81  84 125 135 151 146 127 122 119 119
  93  81  69  61  66  71  88  95  82  65  96  96 101 127 136 130 131 132 132 131 131 135 144 142 140 145 144 148 148 152 156 158 156 150 152 156 154 153 158 159 159 159 162 164 162 165 166 168 171 176 171 179 189 196 194 199 206 209 206 204 210 211 207 203 200 194 192 192 198 201 202 198 191 181 178 149 120 109  91  61  62  68  93  93 105 138 148 142 141 121 120 122
 121 104  82  87  91  92  90  83  67  64  92  90 103 129 138 132 132 132 132 138 139 141 143 144 144 144 145 149 151 153 157 156 153 151 151 151 157 158 155 156 154 152 152 152 154 153 147 147 153 155 155 161 172 173 176 180 186 200 202 199 192 190 206 202 180 190 193 197 200 195 193 193 192 182 193 151 112 106  92  73  60  67  67 122  99 136 124 126 141 122 111 120
 106  80  80  86  89  90  82  82  59  62  88  90 106 127 133 133 132 133 135 135 138 140 141 148 149 146 139 145 148 147 144 145 144 142 142 142 143 149 150 149 147 142 138 137 139 143 147 150 159 164 158 158 154 156 172 171 171 173 171 191 209 202 188 195 189 174 186 199 200 186 185 182 186 179 183 150 114 110 118  88  77  83  58  59  73 131 118 100 115 117 117 115
  86  85  88  86  91  91  86  77  60  61  90  89 104 126 135 133 133 132 137 135 129 132 133 135 134 135 131 134 135 139 145 148 152 150 147 149 154 159 162 155 154 161 158 164 158 153 157 156 161 168 173 177 177 186 194 196 199 203 206 190 182 199 205 193 190 197 191 197 201 193 178 186 181 185 163 140 115 129 120 110  91  58  51  61  45  97 148 110  85 107 122 124
  84  87  83  83  87  89  85  70  57  65  86  84 104 134 137 134 134 132 136 131 126 131 136 141 143 139 137 140 144 149 155 156 151 148 153 155 156 158 161 158 156 152 159 165 161 154 148 142 146 146 148 146 148 152 153 161 163 169 178 193 198 189 183 187 189 191 197 197 193 189 179 175 177 164 175 154 110  85  80  88  92  67  49  58  51  64 130 121  89 105 130 145
  85  86  81  80  85  86  78  74  57  63  84  85 109 134 137 137 132 134 138 134 129 132 141 147 142 139 146 154 155 156 159 155 154 154 159 161 160 150 153 157 154 154 162 169 176 178 177 176 185 191 197 197 194 197 198 204 208 205 204 193 187 199 201 183 183 191 194 195 191 183 177 170 158 150 180 163 100  62  76  94  85  69  57  38  55  87 121 125 108 135 173 174
  85  82  82  91  97  96  76  63  56  61  83  86 114 135 139 135 133 133 134 136 140 139 138 144 145 144 145 152 157 160 157 160 156 159 156 156 162 158 152 153 145 145 142 145 148 154 153 153 160 163 167 167 168 173 170 168 171 173 183 210 209 178 176 189 178 189 203 197 194 193 177 172 170 148 149 144 108  79  78  87  99  88  71  56  84 129 114 124 120 125 147 134
 119 106 100 110 120 109  88  81  68  66  84  97 124 137 140 136 132 132 131 140 144 139 135 136 138 134 137 142 143 151 154 149 146 153 148 141 146 147 150 146 149 154 159 162 160 163 172 177 181 181 181 164 161 161 168 174 175 174 156 154 190 204 179 171 191 195 198 195 202 199 184 175 176 167 142 119 103  91 102  98 106 107  90  74 140 123 125 150 159 136 131 126
 142 129 118 108 110 115 115  90  50  65  86  92 121 137 138 136 132 137 134 134 131 131 138 142 144 144 151 163 160 167 168 168 160 169 168 157 167 166 162 154 156 162 164 164 168 178 187 189 189 204 208 197 202 205 203 208 211 223 221 190 163 182 204 191 175 180 180 192 197 188 184 179 176 166 138 100  80  99 125 126 102  83  78  83 115 107 140 167 186 170 156 152
 133 139 146 125 101 106  99  69  44  69  82  83 119 135 138 135 135 137 131 132 140 142 145 148 144 143 145 156 161 171 175 177 170 173 175 153 164 162 147 148 155 152 141 151 163 168 170 166 182 192 190 185 192 192 190 196 196 178 198 223 207 180 181 199 187 182 189 192 186 177 177 179 174 170 136  91  68  83  94  80  72  63  59  73  77 117 136 137 152 167 165 159
 140 135 140 146 114 103  90  68  43  70  75  81 123 140 135 137 135 135 135 139 141 142 146 145 140 143 139 145 150 158 165 173 174 174 178 158 168 155 144 154 157 155 154 165 164 158 167 164 170 179 176 187 192 198 199 204 218 204 161 173 206 204 188 187 201 196 192 191 193 189 183 174 173 175 144  87  61  63  65  57  50  47  50  47  56  94 139 132 128 131 140 143
 174 165 165 164 132 110  77  59  47  64  71  79 124 141 137 138 135 138 142 143 143 144 147 142 144 146 146 152 154 153 153 160 166 177 162 165 171 161 147 157 161 163 159 159 158 159 172 176 179 181 183 188 183 182 177 171 173 183 183 146 176 198 196 189 192 193 185 186 197 197 189 172 171 172 139  94  66  62  69  77  70  64  57  63  88 110 137 144 149 126 122 138
 184 187 182 175 154 117  58  49  57  63  69  75 129 140 138 137 139 138 144 146 147 147 147 148 150 151 154 157 158 159 156 153 164 174 160 162 171 164 146 161 159 162 156 159 157 156 166 168 170 177 173 167 157 155 157 157 158 178 187 185 148 190 197 199 192 191 189 192 195 194 189 175 165 167 141  90  71  65  78  93 108 126 124 114  95 123 133 150 165 139 125 134
 169 174 169 165 164 115  58  55  44  56  65  78 129 137 138 139 139 143 146 144 142 144 142 148 153 151 153 156 154 156 157 153 162 169 158 153 166 160 145 159 155 156 151 153 158 163 166 161 158 153 161 155 141 146 149 170 171 177 197 203 187 170 203 198 194 189 191 187 191 197 190 181 167 163 139  87  75  95 109 110 107  97  93  89  70  99 146 146 157 146 145 145
 168 163 166 159 162 120  53  48  51  59  66  83 133 139 138 141 138 139 140 141 139 135 127 129 134 139 140 134 137 146 152 152 156 163 157 145 161 158 140 155 152 146 143 146 152 151 145 140 135 138 140 131 131 139 151 166 194 191 185 198 217 191 194 200 192 186 188 188 194 192 193 188 178 165 137  91  73  61  57  49  48  51  59  72  91  82 163 174 156 141 141 147
 143 127 132 124 127 121  71  61  60  60  70  92 134 137 141 143 142 140 140 143 136 125 117 106 110 121 118 122 125 135 145 147 152 163 154 146 156 153 136 150 150 146 146 149 145 132 126 132 129 132 127 136 144 150 156 158 171 201 197 190 208 219 194 201 189 191 188 190 191 189 191 188 182 170 144  96  68  65  61  51  39  36  30  61 113  82 141 177 160 149 143 138
 148 126 112 111 106 103  80  63  48  55  78  97 135 140 146 145 138 135 131 133 123 113 101  94  96 103 109 120 124 129 138 141 151 158 147 152 152 151 144 151 150 151 147 144 144 135 130 133 132 131 137 146 146 143 143 147 144 163 190 192 201 207 212 203 196 191 189 190 187 192 194 189 181 179 145  89  78  78  68  75  95  95  84  81  96  96 131 176 172 177 156 128
 161 155 145 140 131 111  73  68  58  63  86 104 136 142 145 142 132 131 133 126 125 125 113 116 112 103 109 111 116 125 135 139 146 151 140 148 145 146 145 155 154 153 152 149 141 134 134 130 130 129 121 112 104 100 102 116 127 137 157 183 193 198 211 214 201 190 189 193 185 193 194 192 185 183 142  86  85  92 116 129  97  96 135 103 114 160 105 177 187 191 163 129
 165 160 150 144 146  84  94 104  62  78  89 106 140 145 142 140 138 136 132 127 125 125 130 136 129 122 115 112 107 112 126 138 145 144 138 141 145 145 139 149 151 152 156 149 137 128 121 120 115 111 112 108 106 111 102  89  99 114 135 158 175 183 193 205 201 194 192 194 192 194 194 196 192 187 149  91  96 102 112 101 108 156 195 168 145 157  82 164 179 181 180 166
 179 175 170 165 162  66 105 148  86  94  84 109 142 145 143 134 131 134 131 132 132 143 150 143 114 100  96  96 108 104  99 115 141 140 141 144 147 151 147 146 151 151 146 138 118 110 119 130 118 104 105 104 113 123 135 146 128 101 113 143 150 166 178 192 201 195 191 198 189 190 191 196 192 190 162  99  96 123 122 128 150 151 138 157 124  98  68 133 159 137 158 177
 195 193 190 189 186  83  91 168 106  89  87 118 145 147 141 128 129 129 131 141 155 145 111  73  49  54  61  72  77  90  98  87 105 137 144 144 148 154 158 157 159 154 133 102  85 107 121 110  97  85  90 102 115 129 142 138 165 153 112 127 140 145 160 176 188 198 193 190 191 187 188 191 189 178 176 112 111 133 161 173 164 137  97 149 137  80  58 115 172 160 151 164
 189 190 193 195 203 117  77 176 129  87  89 118 147 148 137 132 138 140 141 146 119  81  58  48  83  69  72  73  87  82  91  84  78 121 153 150 153 160 163 163 168 152 117  91  81  96  94  98 103 109  94  80  82  85 110 149 152 175 164 120 131 134 151 169 187 195 194 186 194 193 193 194 189 176 179 157 104 118 163 166 155 153 108 126 139  83  56  89 156 184 155 151
 190 182 191 196 199 146  84 159 131  84  91 121 147 151 144 138 141 146 133  84  56 108 100  81  97  70  98  65 101  98 101  83  87 109 146 154 157 162 172 179 174 149 121 102  77  91 109 112 120 161 125 122  73  76  80  75 143 140 169 172 138 127 149 167 185 197 202 202 196 195 192 196 189 183 172 175 116 105 148 150 156 174 117 117 139 103  62  72  95 118 123 124
 185 179 190 203 190 142  86 110 116  90  94 129 147 148 146 148 149 126  82  69  72 122 143  83  88  99  81  74 102  77  91 119 105 114 141 149 154 158 175 189 175 148 124 114 115 118  86  84 137 169 110 107 116 112  89  90  92 111 114 158 181 153 158 166 175 194 198 200 198 197 199 198 193 178 169 165 150 108 123 139 163 180 105 128 141 118  65 103 121 121 114 115
 182 183 195 201 166 128  92  98 104  88 103 134 148 148 144 139 126 106 106 115 119 113 124 114  94  95  99 109 103 100 109 133 127 120 142 143 153 165 178 191 176 148 137 142 140 121 112 124 134 141 127 102 115 115 117 140 138 138 119 115 150 164 159 166 177 189 201 203 200 197 198 195 190 180 165 164 161 119 110 148 186 180  97 153 163 114  68 141 161 155 130 118
 184 188 190 157 117 125  99  81  90  91 106 137 145 147 144 140 137 143 142 136 133 127 120 123 121 116 115 103  99 111 130 123 116 123 139 142 153 166 182 193 177 155 137 125 125 128 113 108 119 128 132 134 140 144 162 165 178 187 164 164 153 156 159 179 192 198 196 194 196 197 193 193 191 179 166 157 152 131 107 132 179 175 114 173 199 125 122 187 164 143 135 133
 198 198 187 123 111 128  97  89 110  95 101 141 147 147 146 142 140 150 148 145 145 142 137 132 128 124 117 105 102 104 109 119 117 128 136 145 155 165 182 197 182 164 148 136 113 108 106 110 115 122 126 136 143 149 149 166 181 185 194 196 188 182 172 180 189 196 197 199 198 193 191 193 191 178 163 146 137 122 121 129 160 173 133 187 185 120 165 212 189 163 163 159
 199 199 170 112 138 127 106 101 113  98  89 135 151 151 149 146 141 140 143 145 143 141 137 132 129 122 116 112 105 108 118 123 118 129 136 148 153 163 183 199 189 169 154 147 133 119 118 122 125 127 126 134 140 153 160 168 176 188 191 192 195 189 187 188 197 208 206 203 199 194 190 192 190 181 154 137 121 114 136 147 157 176 159 192 163 117 187 196 188 183 169 169
 175 143 102  94 110  97 105  96 123  95  83 131 150 147 148 148 145 141 141 142 144 142 137 134 132 126 125 119 112 122 134 124 126 130 143 149 147 158 182 198 199 179 166 164 152 150 128 125 131 135 133 128 130 139 148 159 173 180 190 190 186 184 196 199 202 206 200 197 197 189 189 191 191 172 154 136 105 111 119 134 151 178 172 181 141 131 201 192 195 201 196 190
 100  78  77  96 100  95 114 110 132  97  78 128 151 144 146 149 152 150 142 140 141 143 144 141 136 132 122 114 119 135 134 127 130 130 146 149 148 155 176 190 201 189 177 175 156 156 151 126 128 133 140 143 144 154 172 177 187 188 192 189 191 193 201 204 203 206 205 204 197 188 190 193 187 161 159 132 102 106 124 146 151 177 175 142 113 157 182 175 183 185 181 187
  90 100 108 123 146 121 137 136 142 111  71 125 151 145 146 150 149 148 147 140 138 143 138 131 127 123 120 121 133 134 132 129 127 124 144 146 149 154 165 187 194 196 182 181 162 145 161 149 126 127 133 145 145 154 168 179 185 186 187 195 200 199 197 203 208 207 205 200 194 191 190 194 185 159 155 133 104 104 129 130 126 174 178 139 125 175 174 178 187 184 175 173
 124 126 124 142 149 121 137 133 123  85  72 116 147 144 143 147 146 148 152 144 139 140 133 127 124 122 125 137 140 133 132 126 124 131 145 151 153 165 168 181 195 199 189 181 166 141 155 168 147 131 130 135 146 155 159 169 181 183 184 193 206 211 211 204 202 203 199 195 191 188 186 189 182 158 158 159 153 136 101  96 124 174 170 106 116 149 177 191 189 188 174 188
 137 131 125 110 114 106 111 104 104 106  66 108 147 144 142 146 147 146 146 147 144 140 134 129 126 130 139 144 140 138 132 123 123 131 140 156 157 171 181 178 186 199 191 184 167 139 142 165 171 148 143 138 136 139 156 172 183 184 193 189 197 201 208 211 201 197 196 193 192 192 189 187 184 173 171 177 192 149  89 121 170 189 144  88 116 116 145 157 153 144 122 115
 123 124 139 117 121 133  84  85 118 113  55 106 148 143 143 146 145 141 140 143 141 138 134 128 132 139 145 146 138 133 129 128 124 131 137 150 160 177 180 185 194 202 195 189 181 148 133 149 170 168 159 150 147 144 151 164 165 169 182 192 194 197 197 202 200 195 194 194 190 190 188 186 180 184 173 187 187 164 154 175 208 180 128 115 125 112 110 109 100  93  87  85
 124 126 143 143 118 112 120 120  99  76  49 108 148 141 140 143 144 144 141 143 142 137 133 132 139 143 146 144 139 130 128 127 128 143 148 161 167 191 196 196 203 206 201 196 189 156 130 143 162 173 172 162 162 165 158 159 160 166 174 183 189 191 199 195 192 195 192 192 189 187 189 184 181 186 177 199 194 191 214 200 171 165 132 134 128 127 102 112 118  93  82  93
 117 104 102 118 114 112 122 133 113  75  63  99 142 138 137 140 143 145 140 142 139 133 135 143 139 143 143 137 130 129 128 129 137 153 161 173 179 196 207 208 211 212 207 198 190 163 130 135 155 165 173 170 163 170 174 162 161 166 173 179 182 181 191 189 187 191 193 193 188 186 189 185 183 180 170 204 217 213 213 179 168 159 115 131 129 113 115 130 135 129 114  98
 146 131 121 138 139 132 129 125 101  68 100 103 132 140 140 139 138 136 138 133 129 131 135 139 142 141 138 134 129 127 132 134 140 151 158 171 181 195 208 208 200 200 203 196 183 156 131 125 141 162 168 162 160 171 180 178 165 162 170 178 179 179 181 179 182 182 188 186 187 188 189 181 176 178 166 162 181 184 197 191 196 123 101 131 135  99 110 138 117 119 122 123
 158 156 148 146 144 147 141 130  92  80 115 124 133 141 138 133 132 131 133 137 137 138 143 143 139 133 129 129 128 128 129 132 136 144 159 174 187 192 207 203 189 191 200 201 180 137 128 127 138 156 174 167 150 161 174 188 186 182 174 180 179 175 176 175 178 181 189 184 186 189 180 170 165 183 197 175 176 182 202 219 171  91  99 131 139 128 108 109 109  96  98  97
 149 153 154 147 140 155 150 118  84 108 130 137 135 138 132 130 138 141 138 140 140 145 147 146 140 132 129 130 126 124 127 129 136 150 156 171 188 200 211 211 200 197 205 211 187 137 120 118 128 146 167 177 157 149 164 179 182 190 184 185 185 182 175 175 180 181 186 184 190 191 174 160 166 189 208 217 211 200 208 201  97  89 106 112 121 143 152 115 108 106 103  91
 149 142 134 150 144 142 147 102 118 154 153 148 130 138 132 133 139 141 139 137 144 150 145 142 138 129 128 122 126 129 130 132 145 155 155 165 186 201 210 214 209 209 209 218 197 140 118 113 115 136 154 168 169 154 156 171 172 169 172 173 171 178 173 176 180 182 185 186 192 192 174 163 166 188 184 201 204 201 189 111  74 104 112 100 111 109 159 155 140 140 129 109
 138 129 133 153 146 145 131 112 168 175 167 154 130 136 132 135 139 137 137 139 140 148 146 143 137 130 122 123 130 131 134 133 142 148 151 159 175 193 205 213 211 215 216 216 202 143 118 115 115 122 141 159 172 172 164 168 171 166 161 155 160 175 173 174 182 185 191 192 196 191 165 154 177 181 149 161 178 154  78  56  70  94 100  72 121 116 122 136 137 140 145 150
 147 147 153 148 147 150 133 143 169 174 170 156 121 138 131 134 134 135 138 142 142 145 146 142 132 126 119 128 135 135 132 135 136 142 146 155 163 184 199 206 205 211 211 210 202 151 127 121 114 117 134 152 171 186 190 185 179 182 180 171 168 180 186 177 185 189 187 195 193 183 165 144 181 175 106  93  80  63  42  69  79  92  94  60 100  96  98 110 127 124 124 145
 158 161 154 144 138 139 140 146 160 169 166 112  83 138 137 134 131 134 143 141 143 147 148 138 132 120 127 139 135 135 130 131 140 142 140 148 164 182 197 193 190 187 188 184 185 153 138 130 120 118 128 143 157 177 195 201 197 197 189 193 187 185 192 186 185 191 185 191 189 181 163 162 188 176  82  63  46  52  65  78  92  93  95  80  60  73  99 111 125 140 123 115
 155 155 147 143 138 137 141 146 155 161 164  89  56 135 141 130 131 141 140 141 142 150 149 137 128 127 134 145 139 129 124 129 138 133 130 142 152 170 174 172 173 154 133 139 155 153 149 143 133 121 120 132 146 168 178 195 201 206 202 199 201 186 189 194 191 195 191 189 183 181 164 167 192 175  60  50  49  54  66  79  92  90  83 104  61  86 153 139 135 144 144 145
 146 142 141 139 142 148 156 148 149 157 151  63  63 133 138 135 136 140 143 147 148 144 142 136 127 129 140 140 137 126 114 118 124 120 116 126 132 144 152 153 132 118 115 135 158 157 154 148 148 131 117 129 147 164 179 195 200 196 207 203 199 201 191 191 195 194 186 191 191 184 168 160 186 161  65  64  52  68  71  87  87  91  89  98  83 105 148 138 126 131 132 143
 140 133 130 136 139 149 155 148 152 153 142  73  55 120 138 138 134 135 144 146 148 143 139 135 133 139 138 134 131 120 116 113 111 110 111 117 121 130 131 108 119 136 136 148 159 157 160 156 153 149 128 121 136 151 173 186 199 202 203 203 196 198 202 194 197 197 187 191 192 182 170 161 187 144  63  94  61  93  93  70  96  83  96  83  94 125 119  99  92 110 135 125
 133 131 134 135 136 146 146 140 151 144 138 140 109 116 135 136 134 141 143 141 148 143 135 131 141 133 126 126 125 119 109 120 111 108 109 106 113 106 104  99 120 135 132 136 152 156 158 154 154 153 147 127 124 139 162 181 189 202 203 200 196 185 200 194 190 194 193 192 191 177 171 170 202 143  47  62  74  97  88  82  89  77  94  68 112 124  99  97  91  82 130 142
 139 138 147 146 141 139 136 139 144 137 124 112 132 132 132 136 135 135 139 143 144 126 121 139 135 123 121 120 124 108 107 110 120 123 117 117 113 110 112 108 121 129 139 142 143 148 148 143 150 147 147 151 125 126 145 171 186 191 193 192 189 178 196 194 181 192 191 188 181 178 169 180 196 133  66  70  68  66  65  65  75  89  94  89 105  95  97 124 132 110 140 173
 141 147 154 152 143 140 135 139 146 140 106  91 114 116 127 136 131 133 142 142 129 120 133 138 125 122 120 116 114 115 116 118 124 127 126 123 119 114 115 113 122 131 143 151 129 138 137 129 135 139 151 165 161 126 126 158 173 189 194 183 184 163 181 191 187 186 187 187 183 168 162 183 194 125  72  70  54  53  51  62  66  86  97 110  92  85 106 132 133 123 126 151
 129 145 155 158 158 156 148 138 132 134 113  74  67  89 130 134 129 134 141 138 125 134 136 128 124 123 116 117 116 122 121 124 126 126 124 124 123 116 127 142 130 131 142 136 132 140 127 143 127 128 145 160 173 164 118 138 161 179 184 184 178 155 173 182 186 184 187 188 180 163 167 178 198 117  58  59  45  59  61  62  64  74  97 111  98  95 116 130 127 116 116 133
 174 174 168 166 161 153 149 137 110  97 116  86  67  92 126 130 129 137 141 132 137 145 132 133 126 116 119 127 131 124 118 134 138 140 130 126 127 133 136 143 143 140 141 143 152 142 128 138 133 132 138 149 171 187 152 115 157 173 183 175 167 148 168 177 182 185 185 181 176 172 172 184 202 124  73  60  52  64  71  62  62  56  87 109 111  93 117 116 110 108 105 128
 192 187 180 175 174 169 165 156 135 107 120 103  80  94 127 128 131 139 138 136 145 148 139 132 124 126 132 131 135 133 134 139 144 140 140 137 131 139 145 140 150 153 153 155 160 149 142 135 123 128 139 145 162 178 177 115 147 170 180 177 165 148 168 177 181 186 183 179 172 167 171 186 199 135 108  84  65  57  94  89  63  45  92  99  96  89 118 127 111 101 125 144
 184 189 182 179 178 193 190 159 133 126 131 110  84  90 118 128 131 132 137 143 147 148 141 132 127 136 142 137 137 139 141 143 145 144 143 138 136 144 147 156 158 160 167 163 162 161 156 144 120 126 137 137 147 172 186 137 137 167 171 175 168 147 165 174 181 184 181 177 172 164 171 188 193 138 116  92  83  83 101 121  63  49 116  92  80  80  94 114 116 109 135 153
 187 189 183 174 160 175 181 156 146 137 133 105  55  79 118 129 122 131 143 150 148 144 138 120  94  91  95 102 112 117 119 126 131 138 139 138 140 144 142 140 138 140 142 140 137 131 116  95  78  75 101 131 142 166 183 155 137 169 175 175 155 146 157 165 174 177 174 169 168 162 171 194 183 120 135  92  79 110 118  97  54  97 130 105  81  72  81  92 106 113 104 119
 177 176 186 177 167 157 163 166 164 142 129 122  58  82 127 124 120 128 143 149 145 142 117 101  97 113 106  84  81  72  73  82  92  98 103 104 105 110 111 105 109 106 100  98  93  91  90  90 106 101  90 119 147 165 180 166 148 163 169 173 145 152 160 166 170 172 168 159 154 173 183 194 159  86 132  83  89 135 155 106 121 142 118  90  81  70  83  98  96 106  97 107
 191 183 182 170 164 160 159 155 147 141 140 134  83 125 142 127 129 128 138 147 146 133 115 121 133 136 136 132 123 109 105  98  97  88  83  85  92  95  99 112 120 126 136 144 155 159 160 155 145 128 110 115 143 155 176 168 149 170 172 173 139 154 162 157 162 167 166 153 156 169 177 191 148  71  83  77 110 145 154 150 151 151 120  86  78  66  62  69  87 102 101 108
 199 190 166 151 162 169 165 161 152 136 137 129 104 157 153 136 132 136 138 144 150 130 127 131 136 136 139 143 146 146 146 143 143 144 146 146 154 157 160 172 183 188 192 194 188 184 176 169 158 141 120 113 135 154 173 172 153 168 176 167 138 151 152 148 155 162 153 154 159 162 166 185 135  58  63 101 138 145 142 137 137 139 118  82  69  89  79  50  50  66  81  86
 158 153 132 123 135 145 172 191 185 154 129 120 116 166 137 120 129 133 136 142 142 131 140 138 137 138 139 139 148 150 149 151 148 158 161 160 166 164 167 169 178 188 190 190 184 183 183 175 166 156 135 129 138 159 174 168 162 171 177 149 143 154 155 158 164 164 145 150 159 157 164 178  98  63  75 137 154 157 155 151 145 138 123  93  77 118 136 103  60  52  64  66
 150 136 133 131 131 140 157 181 190 164 136 125 124 163 130 109 125 126 130 140 140 138 137 138 140 138 137 144 147 148 151 146 144 143 146 146 149 149 152 161 173 179 184 185 187 182 183 178 170 161 139 135 140 158 166 164 156 168 180 145 147 167 157 153 142 143 140 145 144 156 166 175  69  55  71 126 149 163 167 169 164 160 151 129 130 119 114 110  96  87  81  84
 159 151 153 146 148 153 143 147 173 165 144 131 106 128 112  81 111 124 127 135 134 136 136 137 141 139 139 147 144 148 147 138 137 136 135 135 138 135 143 151 157 165 171 181 190 174 176 179 173 163 145 140 144 157 163 155 156 166 163 148 153 163 160 143 114 114 125 129 134 151 167 153  56  60  56 122 147 144 146 147 144 151 155 142 146 153 131 117 108 110 121 132
 155 171 175 166 163 154 139 123 150 165 142 124  87 113 106  79 128 130 128 133 131 135 139 138 138 135 141 142 141 145 140 136 137 140 138 133 134 147 138 156 155 162 164 175 184 177 173 177 169 162 152 149 158 154 154 154 169 167 155 145 152 161 151 132 114 122 125 121 147 147 176 109  54  69  64 116 142 136 133 115 109 116 112 133 126 149 154 151 125 105 103 102
 130 159 183 185 181 160 129 122 153 171 135  80  70 106 102  97 152 141 125 131 130 135 140 136 134 133 135 139 142 140 135 134 139 138 126 133 134 148 141 158 154 152 162 176 178 175 172 172 168 162 161 159 163 151 151 162 169 148 143 152 157 151 127 106 110 105 107 137 144 154 154  46  54  66  68 103 121 137 148 133 123 120 110 111 118 108 109 121 113 114 129 121
 128 127 139 164 173 166 143 145 151 149 121  69  76  94  97  79 139 153 123 126 126 133 139 139 138 138 137 138 138 140 141 137 141 133 134 131 138 145 147 147 150 155 162 172 172 170 176 169 165 169 168 175 171 156 150 160 154 142 151 162 157 156 109  95 106 105 125 149 141 175  89  32  58  62  69 108 118 114 111 109 132 131 123 117 115 114 115 120 109 115 114 128
 127 130 132 139 145 138 140 149 133 119 107  85  95  93  88  72 119 143 122 122 126 132 135 140 137 138 137 136 135 139 141 139 137 133 136 125 127 144 161 152 152 155 161 165 167 167 171 161 161 174 176 176 180 165 152 159 143 141 152 163 149 125 111 109 108 124 157 149 152 136  42  48  56  50  67 106 105  85  82  72  93 116 118 122 122 122 129 128 122 125 114 112
 125 132 147 153 150 142 135 122 126 122 119 125 117  97  83  85 150 180 136 113 117 126 131 140 138 135 135 138 137 135 136 144 145 143 134 133 129 149 157 145 157 157 157 164 168 173 162 159 164 166 175 173 177 172 160 157 154 158 155 150 126 114 114 102 114 144 150 137 155  74  47  57  63  51  56 111 118  89  80  80  75  82  98 111 123 116 114 111 106 127 143 143
 131 142 159 160 164 155 138 127 136 125 120 131 108  90  75  68 145 170 127 108 113 122 127 134 137 135 139 137 137 136 134 140 144 143 136 141 148 149 154 155 161 164 159 165 171 176 164 159 164 164 171 175 173 175 167 151 154 154 152 125 119 119  99 108 137 149 125 139 106  51  45  62  61  60  54  87 132 130 111  91  83  81  89  95 106 117 127 122 111 107 133 147
 126 135 153 143 152 165 154 136 124 117 117 120  93  85  98  71  82 104 112 112 117 121 126 133 137 137 138 138 138 134 139 139 136 146 145 136 147 157 164 167 165 166 167 173 178 176 171 170 165 164 164 169 170 170 158 159 157 154 142 126 114  97 109 138 143 122 129 110  68  48  49  70  64  61  60  56  84 121 134 110  98 101 115 114  93  74  97 105 101  94  99 120
 127 130 128 118 131 147 153 138 121 127 143 113  85  97 106  93  98 106  94  76 104 129 134 133 132 134 136 136 133 138 141 138 133 140 139 134 145 165 175 170 169 171 169 176 183 177 176 168 162 157 155 162 166 165 161 158 147 130 114 118 101 110 131 133 107  97 105  69  49  44  43  51  56  55  57  56  53  76 114 119 109  91  98 117 111  76  81  77  68  96 114 114
 122 128 125 137 141 129 132 128 120 117 121  90  88 113 108  98  98  83  44  37  76 115 127 131 132 137 137 134 135 138 141 138 132 143 143 149 157 163 176 179 175 175 176 187 182 179 173 170 163 150 158 168 163 162 158 149 122 107 114 102 110 123 124 108  90  99  73  52  51  40  63  54  55  49  53  52  53  55  73  98 113 106  97 116 130 106  91  77  68  76  97  98
 111 134 146 155 147 135 120 116 115 112 109 110 108 113 122 111  70  30  28  24  37  90 119 124 131 141 137 130 134 133 146 134 127 145 156 152 153 157 171 175 180 174 178 184 172 168 167 161 154 154 162 181 170 151 143 131 118 108  92 105 112 117 106  85 103  90  50  59  49  53  57  59  53  46  50  51  55  53  55  57  68  90 107 121 137 127 119  98  92  97  80  79
  95 119 142 145 136 123 106 111 119 114 126 134 122 116 112  91  30  17  22  23  18  45 103 116 117 124 124 136 126 125 144 147 121 123 143 157 145 154 161 167 176 175 178 180 164 159 165 156 152 153 166 157 142 132 109  98  96  90  90 107 113 107  82  87  97  60  58  53  40  60  67  63  52  48  54  56  45  47  57  55  54  57  68  86 127 148 157 154 134 128 108 105
 113 116 116 113 107 104 103 119 130 123 142 152 148 127  63  31  24  20  15  16  16  17  70 118 111 118 125 133 121 122 126 137 124 118 126 151 138 144 155 161 169 161 170 183 174 164 160 155 157 151 140 137 108  91  97  84  84  96 106 110 108  85  83  99  69  52  64  36  40  60  69  56  54  45  48  53  50  48  50  52  55  53  50  53  72 136 171 172 155 141 138 121
 148 148 134 128 123 123 121 129 136 129 142 156 129  56  33  25  24  20  17  12  17  11  42 117 120 128 118 125 125 140 123 121 124 112 113 124 141 143 151 156 162 159 190 176 166 174 164 150 150 133 112  95  92  87  99  80  93 108 109 103  89  85  95  81  53  66  52  33  48  46  56  47  54  53  43  44  45  53  56  48  50  52  51  50  52  70 135 169 166 155 170 162
 156 164 158 157 148 144 142 136 132 127 122 104  59  21  25  24  22  19  15  13  13  16  12  51 121 130 122 126 118 130 134 123 115 115 126 138 135 140 140 141 148 163 165 168 149 169 156 137 119  90  88  80  83  85  94  94 103 104  96  91  84  91  82  54  63  62  41  42  60  67  55  44  51  59  38  44  43  44  51  54  50  40  46  50  57  61  75 130 153 144 149 155
 147 157 156 153 148 144 148 143 136 130  87  40  28  23  17  19  20  18  16  12  11  15  13  12  46 121 140 125 129 133 128 126 128 121 137 146 132 129 137 147 149 147 150 168 146 142 133 100  80  81  80  80  79  84  90  95  94  90  87  85  86  86  61  61  67  51  35  46  62  66  54  40  41  61  41  31  47  39  41  50  53  48  44  43  49  64  58  87 143 155 138 134
 132 133 124 134 139 133 140 145 142  83  35  33  27  24  18  13  19  18  17  12  10  13  16  11   4  65 125 125 121 134 124 123 125 116 130 134 131 120 132 150 148 134 153 158 143 126  92  75  77  85  84  82  85  88  92  92  90  88  82  82  84  69  62  65  61  38  40  47  67  68  53  45  38  51  47  39  34  36  38  42  47  48  54  50  48  52  56  57  91 133 145 135
 106 107 119 133 133 122 133 145 100  33  22  28  25  21  21  22  15  18  17  14  11  11  16  13   4  33 104 109 110 119 129 129 119 116 133 127 144 131 112 137 120 135 153 117 104  95  81  92  94  92  88  86  83  85  87  87  85  83  82  80  77  65  64  66  45  33  37  49  51  54  61  45  42  41  50  53  45  37  36  41  38  42  49  50  52  59  53  53  57  72  97 126
 109 122 129 127 133 138 124  75  39  33  24  18  23  20  23  27  12  16  18  16  12  10  13  13   6  23  98 107 101  94  99 128 123 124 124 106 133 136 119 115 116 152 114  79  89  91 100 102  98  94  91  85  78  80  88  90  84  81  77  83  73  62  64  54  41  43  54  62  54  42  66  45  41  44  52  50  48  49  38  35  44  38  36  41  54  60  48  51  57  52  57  71
 131 126 128 131 144 149  65  31  33  29  24  17  15  20  18  16  12  13  16  16  14  10  11  13   8  14  86 111  99  81  83  94  89 101  97  91 112 144 122  96 118 112  92  91  94  99 105 100  91  89  83  81  80  89  87  82  81  81  86  77  64  67  58  48  45  49  60  66  64  44  52  44  40  38  35  46  48  46  52  39  33  39  38  36  47  63  44  48  58  51  58  59
 144 137 147 152 127  86  36  25  24  25  22  20  16  17  18  18  17  12  16  17  15   9   9  12   7   9  76 112 104  92  90  93  89  86  92 105 109 112  97  92  93  89  97 102 100  98  92  88  88  82  78  82  84  85  85  83  85  90  77  63  70  61  52  49  42  44  61  73  72  53  46  53  34  39  43  40  43  43  46  48  44  36  32  44  49  48  41  44  50  49  49  54
 150 144 150 120  54  35  35  28  20  20  23  21  18  13  19  19  18  14  13  17  16  10   7  10   9  32  75 107 114 105  96  98 102 103 112 110 109 107 102  97  91  96  98 102 101  93  85  83  85  84  84  88  86  84  87  93  94  82  70  70  66  56  54  45  38  46  57  50  61  56  45  51  41  29  42  37  36  40  42  42  49  51  49  43  50  48  44  43  53  54  57  54
