P2
# Generated by OpenCV 4.2.0
92 112
255
 129 125 121 111 108 129 128 116 105 102 102  98 103 107 106 101 102  96  94  92  90  92  94  93  95  93  91  97  99  93  95 102  97 100 108 112 118 116 102  83  76  94  99  76  62  68  66  80  80  80  74  74  86 102 103  83  57 109 122  76  73  70  68  70  68  63  66  71  54  50  50  52  54  58  56  74  63  54  67  74  80  84  85  74  64  64  66  66  64  63  63  60
 137 132 127 116 108 118 117 112 111 109 105 101 101 102  97  96  94  92  91  94  98  98  98  92  93  92  87  93  90  84  98 111 117 117 115 105  98 104 115 125 113  94  89  90  84  81  93  90  91  74  82 100 108 120 125 117 100 107 126 112  87  77  71  68  70  69  69  70  51  48  52  53  55  59  60  74  65  61  65  77  81  86  84  76  72  69  67  64  66  65  67  59
 138 132 126 120 117 115 118 118 124 117 102 103  99 101 100  97  89  90  93  95 102 100  99  93  90  92  93  93  92 101 119 118 114 103 103 107 100  82  82 107 142 135 113  92 111 111 119 115 122 110 102 109  97 103 129 130 120 111 104 103  78  97  90  70  70  67  65  58  47  51  56  58  58  60  66  71  71  75  66  71  75  82  86  81  84  77  73  70  65  61  61  57
 135 131 121 123 125 118 123 122 114 109 104 107 114 121 115 104 100  95  91  94 100  99 100 100  90  87 102 118 132 136 128 114 106 111  92 103 122 124  99  93 123 144 129  85 125 141 128 135 139 102 114 132 131 142 153 152 142 126 101  91  84 119 102  71  73  63  48  46  53  58  60  58  61  67  76  77  78  86  90  78  77  81  85  90  94  84  81  77  69  66  58  54
 135 132 123 127 129 120 121 130 118 104 107 107 113 118 110 108 113 101  93  95  98  93  93  95  97 113 128 124 115 116 116 116 115 119 117 106 113 129 110 106 125 134 137 112 142 147 130 144 128 132 131 145 158 174 171 156 132 110 101  85  80 129 110  79  83  83  57  51  46  51  55  62  73  77  81  87  84  92  97  93  90  91  87  92  98  94  92  82  73  67  58  51
 123 119 121 134 135 123 123 125 120 113 117 111 111 109 103 108 115 101  94  97  97  91  89 102 120 125 109 110 110 111 118 122 117 114 117 118 118 128 117 110 125 133 124 124 151 150 129 139 129 131 140 157 169 175 158 136 125 115  97  80 105 126 109  85  99  90  68  83  56  60  75  80  88  85  88  94  92  94  98  96 100  99  93  87  86  95  94  88  75  66  60  53
 119 123 127 132 136 127 124 115 117 121 120 114 117 110 100 104 100  93  94  95  98  94 101 116 121 102 108 111 108 107 114 117 123 116 117 112 119 128 115 105 124 128 126 132 149 142 127 127 134 126 153 159 165 149 144 132 105 105 101 100 118 122 100 102 106  79  66  78  79  78  97  89  87  91  98  98  98  99 104  99 104  99  98  97  90  89  86  81  73  66  60  52
 122 129 130 130 137 134 131 124 116 119 121 112 117 107 100 102 102  97  98  99 100 103 114 123 108 107 108  92 103 107 108 108 103 110 107 103 116 122 107 104 121 118 128 130 145 123 115 128 115 129 149 148 137 131 128 108  93 110 111 117 118 121 113 111 104 102  83  54  79  87  92  94  88  93  98 102  99 103 105 103  99 101 101  99  91  89  83  80  75  66  59  51
 130 134 134 146 159 145 128 122 120 117 115 113 113 109 105 100  99  99  94  98 100 112 112 105  73  73  81 104 115 106 100  94  77  80  93  95 101 119  93 104 121 107 121 115 132 105 104 116  93 129 125 121 109 126 100  96 100 125 124 117 108 119 113 113 111  98  72  57  92  99  96  95 102  99  90 102 106 107 113 116 117 108 103  93  96  94  86  83  73  65  55  51
 141 144 140 142 151 137 131 132 131 125 125 118 110 104 102 101  94  95  89  88 106  96  96  70  61  72  89 101 102 105  90  79  64  62  76  80  91 101  82  99 113 102 109  96 116  98 105  97 108 113 116 101 106 103  96 114 130 121 115 112 116 110 105 105  90  77  82  66  97  93  88  98 107 105 100 105 110 106 108 112 113 108 104 104 109 101  90  90  78  69  60  53
 148 147 142 141 131 123 125 123 117 121 125 127 117 106 103  98  95  98  92  91  88  84  82  53  63  77  98  99  92  79  76  76  63  59  69  78  95  91  88  97 104  95  97  98 103 103 109 105 114 105 117 110 107 105 119 125 125 130 132 126 115 108 113  98  91  87  79  83 105  90  93  99 102 120 116 108 107 109 108 108 107 105 108 114 114 102  99  95  81  68  59  56
 141 143 141 141 134 126 125 117 123 128 126 118 113 113 113 108 102  95  95  91  65  74  49  53  78  99 100  88  77  71  63  68  73  71  78  91  98  97 107 108 113 106 110 109 116 118 122 125 116 135 134 124 122 127 134 136 143 136 125 123 117 113 102  89  90  79  84  96 101 109 102  88  83 114 123 109 117 117 116 113 112 109 111 117 109 103 104  92  79  67  60  58
 137 139 146 147 144 139 136 142 152 138 125 118 114 113 113 113 114 114 102  67  54  50  49  72  95  93  79  78  78  82  75  80  92  95 102 107 113 124 125 124 128 137 133 124 134 133 132 136 139 143 138 135 136 143 143 141 127 121 124 123 116 114 112 108 101  93 100  98 109 117 104 100  92  89 102 110 124 126 125 119 119 125 129 126 120 114 104  95  78  70  64  61
 147 148 153 151 141 139 139 139 140 130 122 124 121 117 115 114 120 111  68  49  48  47  68  85  85  83  92  92  85  85 103 119 125 126 129 129 135 144 141 144 148 151 150 148 147 145 140 147 147 148 150 141 139 138 136 136 127 124 126 124 126 126 121 103  90  83  81  84  85  89  94  99 104  90  96  99 123 135 132 119 117 124 123 110 120 119 105  98  80  72  61  58
 153 156 152 146 138 132 132 143 138 123 123 122 121 124 118 107 116  65  41  39  41  56  85  99  99 101  86  79  96 117 128 136 145 148 150 147 149 153 159 155 163 166 162 161 158 156 154 159 157 155 148 148 151 149 149 144 143 140 140 134 124 126 131 117  87  76  78  75  82  90 103 114 113 108  97  70  74 117 127 116 125 125 124 116 115 115 115  99  79  71  61  58
 151 155 151 147 147 146 155 152 134 132 138 127 121 120 112 106  74  26  37  43  65  79  89  95  98  79  78 108 124 130 139 147 156 166 165 166 162 160 165 170 171 167 169 169 163 166 166 162 156 153 157 160 154 151 150 144 146 143 139 135 128 125 125 126 129 112  94  93 100 105 110 106  99  98  88  81  66  63 105 119 124 126 128 128 128 126 119 111  92  72  64  60
 144 145 148 149 155 160 162 154 147 144 136 123 121 117 115 113  41  22  42  59  58  70  93 100  89  95 117 132 139 141 151 162 172 171 171 174 177 176 173 168 165 164 171 170 170 170 169 166 164 160 159 161 156 154 157 150 148 152 149 140 136 136 135 128 125 131 116  93  92 101 100  94  97  89  80  73  79  67  62 121 140 139 138 135 144 137 116 114 100  77  69  64
 147 145 150 151 149 149 157 168 163 139 135 128 118 114 121 138  97  40  52  48  65  86  93  80  98 122 136 144 153 164 167 172 173 170 174 177 179 179 176 168 171 172 171 174 175 175 172 170 170 167 162 159 161 160 158 157 156 153 152 148 147 142 138 138 130 126 133 125  95  84  91  97  94  85  71  51  67  81  50  84 141 146 143 144 146 135 123 116  97  81  72  65
 161 159 159 155 152 153 155 160 155 141 138 140 141 139 137 130  81  49  60  74  89  87  76  98 134 144 145 159 169 173 169 175 177 175 176 177 175 174 179 177 173 174 170 169 173 171 170 172 170 167 167 161 159 158 157 158 150 156 156 154 153 150 144 142 138 136 126 133 131 101  91 101 111 109 100  72  64  99  75  56 134 143 132 143 144 143 141 125 106  84  74  67
 171 166 161 158 154 153 158 156 151 142 135 147 172 174 153  96  41  54  91  96  91  91 113 138 143 149 153 169 172 174 179 179 173 173 177 175 174 175 177 176 173 172 174 174 174 171 170 172 171 166 164 160 160 159 158 160 156 154 156 156 148 149 147 142 144 143 134 129 131 138 126  90  99 120 117 114  89  89  91  58 114 142 140 139 138 144 146 136 113  87  76  71
 174 163 156 158 159 161 168 164 158 144 142 156 160 157 143  93  43  95 129 114  95 119 144 146 153 157 159 171 173 174 176 170 171 176 181 178 174 174 173 173 173 172 170 171 172 173 172 173 174 168 165 164 163 162 160 158 156 155 154 156 157 152 150 146 142 142 137 133 132 127 146 124  95 117 136 122 111  94  89  63  94 130 141 146 141 143 140 141 133  99  83  75
 160 158 160 157 164 175 173 161 159 151 152 153 148 148 144  88  77 119 134 102 123 147 145 154 159 161 165 169 168 171 170 175 178 175 173 172 171 169 169 170 172 170 166 168 168 170 173 174 170 170 171 169 168 165 164 165 161 161 161 161 158 155 153 154 146 146 140 137 135 130 129 144 119  97 124 145 127 101  87  87  86 122 128 151 146 145 146 146 135 106  90  81
 154 155 161 152 150 157 165 160 152 151 151 154 163 163 122  71 106 135 117 125 148 144 147 160 158 159 160 161 170 174 176 175 172 174 172 173 172 170 173 174 172 172 169 170 169 171 172 171 169 171 172 170 169 166 164 164 163 159 158 163 161 157 155 151 147 146 146 139 140 136 132 134 136 103 108 136 142 119  91  85  89 121 120 149 153 147 152 155 133 116  96  85
 164 162 158 149 149 159 158 160 154 147 150 158 160 146  81  83 128 128 131 141 144 141 155 154 155 157 159 168 167 168 170 171 173 173 170 170 170 169 171 171 170 171 170 169 169 171 169 169 171 172 169 170 169 166 162 166 164 155 158 164 166 165 160 159 153 145 142 145 141 136 133 132 136 138 110 116 136 126  99  71  73 120 112 138 151 147 149 147 137 131 112  89
 170 166 161 157 169 184 165 157 153 155 169 172 152  96  69 114 132 140 152 138 142 149 153 153 152 155 156 162 166 171 170 167 168 166 165 167 167 166 166 165 166 166 168 167 168 168 167 169 171 170 167 166 165 165 166 165 166 166 166 163 161 170 168 162 158 153 144 143 144 137 135 134 131 137 142 117 126 130  97  74  68 110 114 130 146 149 155 153 148 136 122 100
 167 165 161 161 172 176 162 157 157 159 168 165 129  69  88 126 140 152 143 135 141 153 151 158 156 151 152 158 167 169 164 163 159 159 159 161 165 164 167 166 167 168 168 168 165 166 167 165 167 168 170 168 167 168 167 165 168 168 170 168 161 161 165 162 161 153 148 143 142 142 140 137 135 127 142 139 121 129 107  79  65  80 112 144 153 146 155 161 146 135 118 102
 174 167 162 166 168 165 161 159 161 163 168 151  88  76 105 134 141 147 137 135 138 144 151 152 154 153 152 148 153 155 156 158 159 158 163 163 161 163 165 167 165 166 168 168 166 167 166 166 169 172 171 171 170 170 167 166 166 168 168 168 166 162 163 163 165 159 150 144 147 142 142 137 135 133 134 151 142 135 118  74  57  57  83 126 145 150 156 156 151 143 130 114
 164 159 162 168 168 167 167 165 168 174 178 110  64  91 128 131 142 139 136 129 130 141 147 153 154 159 159 148 148 152 151 153 153 157 157 159 160 161 163 169 165 168 170 168 167 166 167 169 171 173 172 169 167 168 166 169 168 169 170 172 169 166 165 166 163 161 156 146 146 144 140 138 135 134 129 144 144 143 138  79  48  53  73  96 144 163 156 152 160 151 146 123
 153 157 169 169 164 164 165 165 171 178 153  63  72 108 129 130 142 141 136 128 132 142 146 150 158 160 151 140 141 151 157 157 155 154 158 159 163 164 161 166 169 169 170 169 167 166 166 171 170 172 170 169 166 166 164 166 166 163 161 163 165 166 166 170 169 163 157 150 145 144 141 143 137 134 133 141 147 135 142 103  46  43  66  89 128 152 153 159 158 154 143 126
 164 166 169 168 172 171 166 166 172 168  79  47  81 113 119 135 142 142 134 130 128 139 140 145 147 142 142 146 151 156 154 153 156 156 156 159 161 161 164 169 171 171 168 167 165 163 163 170 168 168 168 166 163 160 158 156 157 160 161 162 160 158 154 154 149 151 153 155 149 144 146 144 140 136 136 140 143 136 139 118  53  33  50  86 133 136 151 167 161 155 145 133
 167 167 169 173 181 175 170 172 171  90  45  59  85 103 129 138 136 139 140 131 130 138 139 141 142 142 150 149 146 149 149 151 158 159 157 156 157 161 161 166 165 162 163 163 161 158 164 166 166 166 162 164 165 163 165 163 162 165 167 170 170 167 164 163 159 154 147 146 148 148 142 144 137 133 138 138 144 132 130 134  81  45  50  92 119 130 141 158 159 152 145 136
 165 167 175 178 176 171 171 174 123  49  54  68  85 106 135 141 139 145 141 131 129 137 138 142 146 149 143 138 141 143 143 145 150 150 149 151 148 154 158 160 164 164 165 164 165 165 167 166 168 170 167 166 163 163 164 163 160 158 157 155 156 157 161 165 166 162 159 153 144 148 143 144 139 132 138 138 139 138 126 130  86  48  37 103 123 125 143 152 160 167 148 139
 175 173 170 172 171 169 172 160  92  60  60  72  87 120 134 127 136 143 142 132 128 132 139 145 144 147 145 136 137 137 140 145 148 153 153 154 153 161 160 161 160 161 161 162 165 168 169 168 166 169 167 167 162 164 165 166 163 162 159 157 154 152 149 151 153 151 152 158 155 148 145 142 138 134 131 143 136 132 133 132  90  44  37  64 114 127 133 148 161 160 147 147
 172 171 165 169 170 173 182 141  76  62  63  74  97 125 126 127 132 142 145 132 132 130 135 141 142 146 147 140 138 142 148 152 153 152 151 155 160 163 163 163 163 164 164 165 169 169 168 169 171 169 167 166 165 165 164 163 164 163 162 162 163 164 160 160 159 158 154 154 153 153 148 140 139 137 138 140 137 130 123 123 100  54  47  45  84 128 135 154 160 152 159 162
 164 164 166 174 174 179 180 122  58  62  87  86 108 120 119 128 132 136 138 131 130 128 132 138 140 147 147 145 142 138 142 151 155 155 156 159 155 159 163 165 167 166 165 165 166 165 166 166 168 168 165 162 163 165 165 164 163 163 162 160 160 161 163 165 164 161 160 158 155 152 149 144 141 137 140 145 138 133 130 114  95  61  39  50  92 127 133 152 160 157 157 162
 165 162 168 175 171 174 168 114  83  95  86  82 112 117 115 126 133 130 137 135 133 129 134 138 138 141 146 146 148 149 148 148 151 152 153 154 159 163 166 165 168 165 164 163 163 164 165 164 169 168 164 161 163 165 165 165 165 165 166 166 162 162 159 157 155 154 156 155 156 154 145 144 142 136 138 145 138 125 127 124  90  57  53  58  88 111 113 140 150 150 151 157
 176 178 168 166 172 170 149  99  96  84  63  96 113 108 118 125 128 127 135 131 135 128 133 141 136 132 142 146 148 146 144 148 154 158 164 165 169 169 168 170 169 169 170 171 169 166 163 166 172 168 161 160 165 163 163 166 164 168 173 168 166 168 165 162 158 154 150 146 149 146 154 143 137 134 137 146 142 129 116 114  93  67  54  53  70 103 110 151 154 154 165 167
 174 180 172 171 175 177 145  72  54  43  79 114 106 111 113 114 120 129 133 134 130 126 126 135 137 136 141 143 142 142 150 158 163 163 161 160 157 156 162 164 169 168 171 172 169 167 164 166 170 159 160 162 165 165 164 167 168 169 169 164 166 168 167 166 167 167 164 158 150 143 148 146 138 139 140 140 139 132 119 113  90  79  68  60  61 100 111 136 156 158 165 165
 169 172 171 181 179 176 144  59  54  77 103 108  99 101 104 111 119 126 133 137 132 132 130 133 143 143 141 143 149 153 157 158 161 160 159 160 161 160 163 163 168 165 170 172 170 167 166 167 172 159 157 163 165 167 169 170 168 165 166 166 165 169 171 169 168 169 165 162 159 152 144 147 141 140 134 137 140 141 127 115  94  73  80  74  78  75  73  83 128 163 162 164
 167 169 165 167 172 166 129  72  88  98  92  88  87  98 101 110 120 126 134 134 135 139 131 135 143 139 146 152 152 158 163 160 161 158 162 165 168 167 163 165 166 166 166 170 171 168 167 170 174 160 154 162 165 173 171 169 169 169 169 165 172 174 169 170 170 168 167 165 161 159 153 147 140 136 135 137 139 141 137 122  99  69  83  90  76  59  69  72  94 136 155 161
 162 163 170 169 165 158  96  64  71  83  84  78  87  96 100 112 124 131 133 135 135 130 131 134 143 150 157 157 163 166 162 162 164 162 162 164 162 161 162 167 168 169 164 168 173 169 170 170 175 163 153 166 170 177 176 175 176 180 180 176 175 169 162 160 165 170 169 166 162 167 158 152 147 141 141 138 134 133 129 126 107  69  66  92 102  94  92  86 104 105 141 157
 166 174 180 181 185 120  70  66  70  79  82  81  80  77  95 111 126 135 126 131 127 125 136 134 146 154 159 169 171 164 163 165 163 156 150 152 154 161 167 169 169 168 165 171 171 173 168 166 174 169 156 169 174 173 178 180 181 177 170 162 159 150 139 144 146 153 161 163 163 162 161 154 151 145 141 133 130 134 131 112 113  76  59  46  57  62  56  60  79  83 113 144
 166 179 176 179 165  74  61  67  70  76  75  64  64  82  99 102 109 124 127 129 129 129 136 144 153 156 165 170 161 159 155 151 152 143 138 141 145 147 153 156 159 166 169 170 170 172 166 165 170 170 155 167 175 173 174 176 166 153 149 141 139 142 139 135 141 145 150 154 161 161 159 158 153 153 143 132 132 135 130 107 100  87  70  64  48  40  53  82  79  69  87 107
 159 165 172 176 122  59  50  51  66  70  72  62  68  83 102 105 106 115 126 127 133 136 135 150 156 159 161 162 153 148 144 136 133 122 123 128 133 134 146 149 148 159 165 169 170 171 166 170 173 170 161 170 169 171 174 170 160 144 133 124 121 128 133 126 136 141 142 153 151 158 153 153 156 157 147 139 132 135 131 110  94  83  71  62  51  50  93 124 109  88 113 125
 154 162 188 184  90  63  55  56  64  64  60  53  67  89 104 105 111 116 122 125 134 138 150 160 158 161 166 161 146 135 135 132 121 116 113 118 120 130 132 136 138 152 163 168 168 161 163 168 171 170 165 169 171 172 169 160 148 132 122 120 113 110 110 109 124 143 147 155 159 160 161 156 155 159 150 139 131 133 130 109  91  76  66  60  52  50  66  90  90  89 114 144
 160 171 199 177  90  77  44  50  56  61  56  52  70  87 104 106 113 120 119 132 136 146 159 167 163 160 156 147 139 139 136 127 118 114 112 112 111 119 120 121 132 144 154 160 163 163 157 160 167 166 169 173 166 166 160 142 131 119 115 106 101 100 101 106 113 120 131 142 149 154 157 159 157 157 149 139 134 137 134 108  87  67  59  64  58  53  53  64  74  87 111 129
 168 174 188 155  75  59  43  53  54  55  56  51  70  87 105 107 111 120 122 130 137 150 159 164 160 149 152 145 141 141 145 136 133 125 122 116 113 109 106 109 121 129 140 155 165 160 149 158 168 168 167 167 168 162 149 125 111 105 104 107 118 128 130 131 128 123 111 111 129 145 151 154 156 155 148 137 134 133 133 115  88  66  55  56  60  55  60  74  78  88 121 134
 163 167 175 141  72  70  50  49  44  44  47  50  61  86 100 107 114 121 121 124 141 154 160 157 151 151 150 142 137 136 143 150 149 153 152 149 143 130 113 101 105 109 115 139 154 157 155 153 163 172 172 168 158 148 123 102 100 110 121 133 145 150 155 159 166 162 143 126 117 123 142 149 153 155 149 138 138 134 132 121  90  65  52  52  54  53  59  74  78  76 128 146
 169 165 159 108  59  64  58  57  46  43  43  47  55  83 101 111 114 120 121 129 142 152 147 147 146 146 141 140 140 139 148 159 162 164 162 158 154 148 140 125 103  93  96 115 138 157 161 157 169 178 176 168 156 128 105 111 133 147 148 135 128 130 129 130 133 153 177 164 143 132 137 140 145 147 149 137 136 130 133 122  94  64  49  44  53  46  50  87 116 132 159 152
 165 163 139  79  58  44  56  62  56  39  40  43  58  83 102 108 115 123 120 129 148 144 137 135 136 140 139 139 139 146 156 163 171 155 142 133 129 133 143 137 126 107  94  93 124 154 161 162 174 181 177 164 145 113 105 127 143 137 129 124 129 144 157 161 145 119 125 166 166 159 154 139 134 142 148 143 136 131 134 122 111  69  45  40  41  47  47  77 127 144 130 106
 171 166 128  78  59  59  60  46  39  38  41  40  60  88 107 111 118 126 124 130 135 133 132 127 123 129 134 142 150 155 153 140 125 112  97 102 104 103 106 121 134 125 111  97 108 134 157 165 171 175 177 165 137 111 113 128 128 121 119 118 106  91 113 129 146 163 128 114 154 165 164 149 141 146 147 145 141 133 135 130 107  82  49  35  37  56  44  73  92  80  89 121
 175 170 127  56  66  52  25  29  36  43  33  39  65  91 111 119 121 124 125 133 132 127 122 125 135 136 141 143 149 136 105  88  81  83  87  86  97 111 111 113 121 116 117 105 107 124 150 158 166 171 173 162 135 122 125 126 135 139 122 119  96  96  82  83  89 115 145 125 110 155 162 162 157 151 144 146 142 136 133 133 119  74  50  48  47  52  47  59  68  80 160 163
 172 171 126  50  80  62  38  45  45  38  34  39  73  97 107 119 124 126 130 134 133 128 124 129 142 144 140 136 115  93  82  63  84  72 101 113 140 137 110 121 130 119 116 111 107 128 147 154 163 170 170 157 139 129 143 155 141 108 134 161 104 105  69  69  79  76 108 133 107 122 154 155 149 150 152 150 144 138 133 134 123  77  46  49  41  28  36  62  74  98 137 142
 174 172 156  81  59  57  62  57  52  41  28  46  85  99 109 122 128 133 133 137 142 132 127 126 134 140 131 103  84  89  97  73  84  66  91  89 144 179 122  90 117 147 136 117 112 126 139 154 165 170 169 158 143 136 163 161 120 107 143 159 102  98 103  94  72 101 112  99 115  97 136 156 156 159 159 153 148 141 140 139 118  83  46  32  46  65  61  74 101 117 104 120
 164 161 164 112  72  64  67  68  66  50  40  53  82  97 114 125 131 136 134 141 155 147 143 139 138 125  98  90  82  97 131  88  80  97  98 104 152 147 128 124 138 154 143 115 120 126 134 155 166 168 169 160 146 136 151 169 163 147 129 139 134 127 129 113 113 139 124 105 111 106 110 137 149 148 147 150 152 150 142 137 125  97  53  51  70  73  50  67 129 136 112 125
 153 160 156 106  83  68  65  61  52  70  50  50  80 101 119 127 133 133 132 133 137 132 128 125 117 114 109 109  96 103 120 117 100 112 124 135 130 131 138 153 156 151 127 116 127 125 140 163 164 166 168 167 151 137 142 154 153 146 136 133 135 141 138 135 133 120 118 131 141 143 141 125 129 140 144 144 146 148 147 141 136 108  65  56  51  65  90 104 126 128 129 128
 153 163 152  97  82  48  56  75  62  58  63  52  87 106 118 128 137 139 142 142 133 132 128 125 118 131 133 122 113 112 107 107 124 132 129 130 138 137 138 136 141 140 122 122 130 127 143 163 164 165 169 170 162 144 145 152 147 145 142 146 147 148 143 139 138 143 147 156 167 169 166 161 155 152 157 159 159 152 146 142 140 112  71  43  69 104 114 112 104 109 123 141
 170 143 108 151 108  83  92  84  77  78  68  56  87 110 116 126 136 139 143 142 137 137 142 141 140 142 144 142 139 135 125 125 131 141 151 153 146 135 131 136 144 134 123 126 134 130 137 158 160 164 164 171 166 147 150 164 165 158 149 148 153 156 155 150 156 161 161 163 164 163 161 161 164 162 156 155 152 152 148 140 136 111  66  71  95 110 116  90  89  98 118 134
 160 118 125 170 137 104  95  93  69  70  69  58  96 112 120 125 132 138 142 146 146 146 150 150 146 145 145 149 149 150 153 154 155 155 150 144 142 138 144 152 154 136 124 132 135 131 144 158 164 163 167 168 163 148 144 162 171 169 160 151 150 152 157 158 156 152 155 156 151 149 151 153 161 165 164 165 160 150 141 140 129 108  76  85  89 104 119  86  82  90 105 113
 135 114 141 161 146  99  86  89  77  66  65  61  91 112 119 126 134 141 148 153 150 148 149 154 148 150 151 148 148 145 142 141 143 145 149 151 151 150 154 159 153 139 126 132 137 137 142 155 170 165 166 166 162 150 141 153 171 172 170 162 155 152 150 155 159 163 168 171 174 170 167 167 165 163 166 168 162 154 150 140 134 112  91 110  76 100 122  85  84  89 106 121
 128 110 141 170 155 115 107 100  93  88  76  71  94 107 119 128 137 139 142 153 152 153 151 153 154 147 139 134 140 140 143 147 150 152 157 158 158 158 160 160 149 136 127 126 138 139 148 157 159 161 162 159 151 150 142 144 161 168 173 174 167 158 156 157 147 140 146 147 151 157 160 170 166 160 161 163 158 149 144 141 136 117 104 114  92 121 116  75  85  98 123 145
 132 119 140 163 156 124 114 114 111 106  84  75  88 103 120 124 134 136 143 151 151 152 153 147 148 148 147 146 151 150 150 142 145 154 156 157 163 161 162 160 145 133 126 134 136 145 161 163 159 161 159 158 149 148 146 141 156 163 168 173 173 170 165 159 160 163 160 154 153 151 151 158 165 161 162 163 159 151 142 139 145 127 120 140 124 142 109  70  79 106 118 130
 128 121 143 161 146 129 117 115 114 112  89  75  91 104 120 122 129 137 141 142 149 149 146 145 154 162 163 151 142 140 145 154 164 162 159 158 162 165 163 156 141 129 127 131 135 149 162 166 162 162 162 158 150 146 147 144 153 163 166 168 171 168 169 168 167 167 166 167 165 167 168 160 154 157 160 158 156 148 144 140 143 136 133 149 128 148  97  70  72 102 107 106
 134 126 140 160 141 128 120 120 121 116  95  84  95 108 118 117 129 134 138 148 148 144 150 155 158 161 151 151 155 164 162 167 162 155 156 158 162 164 156 148 132 124 127 126 133 147 156 161 159 160 161 159 150 148 150 145 146 159 163 164 170 169 168 162 161 161 161 161 162 164 162 160 156 149 152 154 149 147 142 141 139 141 143 139 118 152  89  67  66  96 122 119
 140 132 140 152 136 129 118 123 115 127 122  93  96 111 117 113 124 131 136 140 141 148 153 150 146 149 157 164 157 159 162 159 156 156 157 160 160 161 161 145 125 122 126 123 132 147 151 158 162 160 159 156 151 141 146 146 142 159 165 164 169 169 168 167 168 162 159 159 161 166 162 158 155 153 152 151 146 144 141 142 124 123 142 138 121 152  75  66  70 101 122 115
 148 137 144 145 139 136 118 112 120 126 118  87  89 113 116 113 119 126 134 138 144 147 143 140 148 159 162 164 165 156 154 151 155 154 160 162 162 161 161 141 124 125 128 123 134 147 150 158 158 161 163 155 146 143 144 142 140 151 168 162 163 166 169 170 171 168 164 160 157 159 158 156 153 151 152 145 145 142 139 146 125 118 139 140 136 139  60  64  73 101 111 106
 160 155 141 146 146 143 121 105 118 123 120  91  88 113 113 114 117 123 132 140 140 136 145 154 157 147 144 146 154 150 147 151 155 159 161 159 161 163 161 138 126 132 136 126 136 140 144 153 160 163 168 159 142 137 144 149 144 145 160 164 168 167 169 170 169 166 168 164 159 155 155 151 147 143 143 142 142 139 136 148 149 141 150 145 154 124  60  55  68  98 104 104
 159 164 151 137 143 146 127 104 119 128 134 113  89 114 110 117 119 123 132 138 135 145 152 148 133 126 135 142 147 156 159 162 162 160 162 157 158 156 155 143 136 146 142 131 135 135 140 150 164 166 167 164 151 137 145 157 150 147 153 154 154 158 166 168 169 166 164 164 162 159 158 152 148 139 139 138 136 136 136 148 165 146 146 158 164 107  74  73  72 109 100  94
 158 162 157 137 132 144 137 111 127 141 143 113 101 117 109 121 119 122 125 128 146 151 135 123 123 135 151 154 157 163 166 163 164 165 163 160 159 160 155 141 142 150 142 128 131 140 146 161 174 175 168 167 157 141 145 155 155 143 153 157 144 149 159 163 165 167 160 156 160 156 154 151 150 146 139 141 138 133 136 147 162 145 157 163 163  88  69  74 101 134 116 106
 159 161 161 148 136 140 125 115 137 152 148 114 107 115 109 123 125 124 120 134 143 136 119 129 149 153 153 154 158 165 168 167 164 167 158 155 152 152 151 134 138 143 135 123 120 131 144 158 172 171 162 156 157 143 145 150 149 139 147 156 150 147 147 160 167 166 163 155 156 153 145 143 138 135 141 143 142 133 133 149 145 142 159 165 158  83  63  67  91 140 138 117
 161 159 161 155 140 134  94 115 145 143 134 116 106 118 116 122 126 122 121 133 130 121 123 146 155 149 148 150 151 161 167 169 166 158 156 151 147 154 150 125 131 140 132 118 114 120 136 139 132 138 145 140 139 132 143 140 133 127 149 158 152 144 139 154 161 165 166 162 158 154 150 138 134 131 138 146 141 135 136 143 136 135 149 163 146  86  67  66  95 123 111 100
 154 154 161 160 150 119  65 109 134 139 118 114 120 119 121 127 123 120 122 125 122 114 129 141 153 146 147 153 154 157 161 163 161 155 149 145 147 151 149 121 110 114 113 105 101 107 118 125 113 118 122 120 122 121 103  90  99 134 163 156 147 141 140 148 155 159 162 163 163 156 153 145 138 134 138 150 143 136 141 139 143 144 151 164 145  89  67  67 107 113 101 107
 152 156 159 163 146  79  63 114 126 141 141 152 143 135 123 124 121 125 126 126 122 120 128 133 142 149 149 149 152 155 160 164 164 158 146 148 156 149 142 132 102  85  90  82  85  93  96 102 102 102 106 107 105  87  83  94 119 156 161 158 158 150 137 136 148 153 161 160 162 159 154 145 141 139 143 153 147 138 136 131 155 168 159 151 137  88  77  74 125 127 118 125
 150 156 165 168 110  75  93 123 127 125 156 168 158 143 124 127 126 127 126 126 118 128 133 136 140 145 146 149 150 155 164 167 159 149 148 151 150 148 143 135 125 106 101 100 101  90  79  88  89  95  95  91  92 102 118 132 149 152 155 159 162 161 141 131 142 154 162 163 159 156 150 145 142 141 146 154 150 140 135 121 152 166 158 145 129  83  84  86 140 140 133 127
 152 157 163 124  74 105 118  87 132 126 150 146 138 132 120 128 121 127 125 119 122 126 131 145 142 141 147 150 154 149 160 161 151 141 140 147 149 145 141 135 129 118 110 108 102 106 111 114 118 126 120 113 114 116 122 123 140 144 144 153 165 166 155 137 134 145 154 159 163 157 150 149 143 142 151 156 154 140 137 129 150 158 163 155 115  91  93  84 131 143 127 123
 154 153 125  64  80 150 101  46 108 148 153 150 143 139 124 115 118 124 120 121 131 128 121 129 132 138 147 149 153 148 153 150 137 138 147 140 135 138 138 134 124 116 110 110 114 127 128 130 133 133 139 137 129 128 108 113 137 132 129 143 156 161 163 154 137 136 144 155 159 156 153 147 140 145 148 160 155 140 132 142 161 164 166 148 105 100 105 101 130 138 124 131
 158 158  82  51 134 139  74  43  59 141 145 157 157 150 127 108 113 119 120 131 135 135 128 115 119 141 143 144 149 150 137 124 128 144 144 132 130 128 126 121 112 115 122 120 130 137 136 139 146 142 135 136 145 138 121 123 127 131 126 131 140 151 160 158 154 134 139 149 153 154 150 145 140 150 147 154 151 138 139 144 162 159 157 139 102  95 106 125 136 153 147 135
 154 159 102  70 135 111  71  66  43 103 139 144 148 149 132 103 106 116 120 129 133 135 129 118 124 139 144 144 145 129 111 125 140 136 131 131 130 118 117 116 114 122 129 130 141 145 133 143 145 146 145 146 143 146 139 130 128 127 126 125 132 141 154 153 163 151 127 140 150 150 143 145 140 152 153 150 146 139 135 139 154 150 145 108  92  97 110 136 144 158 141 134
 149 154 154 111 111  91  71  74  64  50  93 123 127 125 121 105 110 117 121 121 127 136 131 122 120 134 142 141 128 107 127 137 139 133 129 125 125 123 126 125 123 123 129 138 148 149 141 141 146 148 147 155 152 149 136 132 140 135 135 130 137 136 140 148 153 167 142 127 145 148 148 145 141 157 158 152 144 144 140 121 133 135 109  70  75  55  69 130 157 156 148 140
 148 150 156 163 163 108  61  63  63  47  31  54  62  59  98 106 116 120 119 121 124 134 140 120 118 131 142 138 115 122 136 134 139 135 128 124 120 120 128 127 137 132 134 141 159 156 154 154 156 151 147 150 159 155 144 140 148 145 142 143 130 136 134 142 154 165 162 131 140 148 143 140 148 158 158 149 143 135 135  82  91  85  69  77 101  81  58  91 147 145 142 137
 148 151 151 147 153 122  72  66  63  41  41  35  23  27  81 111 106 118 120 115 128 135 136 115 119 130 139 130 125 135 138 136 137 123 121 123 128 126 132 134 139 143 147 151 155 155 153 157 152 153 161 156 157 155 155 150 149 148 149 144 135 127 133 141 147 156 164 142 135 152 148 145 136 151 153 149 140 130 116  69  97  80  74  82  86 104  67 110 139 165 169 148
 148 149 153 152 150 130  85  69  57  49  37  43  55  43  71 107 106 121 123 123 124 132 133 118 118 134 140 126 131 139 144 139 130 124 124 129 130 130 133 135 136 136 131 134 137 148 153 153 147 143 153 147 136 130 132 140 134 136 142 139 128 116 129 137 143 151 157 150 139 156 157 149 134 149 153 145 135 131 106  73  80 102  86  85 102  80  92 150 155 170 179 152
 148 148 154 152 146 133 106  69  62  47  43  37  44  50  63  99 104 115 126 121 114 131 128 116 125 138 132 137 148 152 153 148 135 120 100 102  98 101 105 102  99  93  88  97 105 113 119 121 117 119 123 118 109 109 107 105 101  96  93  91  92  92 116 139 145 151 157 158 149 158 151 138 134 153 154 144 137 131  75  57  77  94 115  91  97  90 103 143 156 151 160 151
 151 151 152 151 147 137 136  97  72  57  37  33  37  44  64  91  90 108 112 119 114 129 133 126 122 135 136 142 162 158 148 146 121  87  87  84  69  62  65  66  84  86  87  97 105 104 100 101 109 115 103 103 102 102  99  92  88  82  72  74  82  83  85 129 146 154 161 162 153 161 152 138 132 155 149 141 139 124  50  48  76  87  98 111 104 101 102 127 132 135 164 162
 151 149 150 155 151 145 144 137  90  84  52  35  31  38  59  84  94 103 114 118 114 126 139 126 114 132 134 144 159 162 148 128 105 112 130 127 118 114 124 132 143 145 149 159 154 155 149 147 146 148 145 145 150 149 147 141 137 136 136 141 140 133 103 121 143 160 164 163 157 164 148 134 134 149 140 134 147 108  26  53  78  71  97 120 116 114 107 106 120 144 157 151
 149 144 147 151 154 162 156 151 118  86  90  44  38  37  54  75  95  99 111 115 117 128 139 118 114 129 133 147 155 165 153 134 134 140 138 134 134 132 141 150 147 150 155 160 163 166 167 169 167 164 166 167 166 167 167 161 152 153 156 158 154 142 120 117 149 163 170 164 154 150 145 135 138 143 141 127 136  79  16  68  80  72  95 116 127 140 119 104 123 153 156 156
 149 145 145 146 149 155 156 154 142 100  96  72  37  44  57  78  95  98 115 113 117 129 138 120 113 121 133 140 155 171 151 150 146 144 142 139 139 137 146 152 149 154 156 151 156 156 163 168 159 162 164 159 160 164 164 159 153 158 164 161 159 157 140 132 148 168 168 157 146 140 136 129 138 147 139 132 121  53  46  74  81  73  67  91 132 150 136 106 130 161 175 180
 150 149 154 153 151 153 156 156 152 130 109  78  39  41  54  71  89 106 112 109 115 114 131 130 112 122 132 134 150 167 152 159 155 147 146 145 143 142 151 152 154 152 151 147 145 148 147 153 154 154 143 144 147 150 150 157 155 160 165 161 162 163 159 155 158 167 173 158 152 143 139 133 140 139 123 135  94  31  60  81  71  80  61  56  84 129 148 107 108 146 179 180
 153 152 152 152 152 156 162 160 156 151 124  64  35  34  44  47  77  80  88 109 111 116 124 128 121 121 131 128 145 156 158 158 149 149 154 147 143 145 149 153 157 156 150 149 155 146 142 143 146 154 151 143 144 147 147 161 161 159 166 167 164 162 158 160 161 164 164 148 149 150 137 127 133 130 124 120  72  39  56  69  70  72  67  38  35  64 124 119 110 142 168 172
 148 146 143 148 154 152 145 135 137 114  78  44  43  45  46  50  64  74  94 117 113 118 125 134 127 124 129 128 138 149 154 153 152 146 147 146 147 152 149 149 158 157 157 159 156 151 151 144 142 140 149 146 153 152 155 157 159 164 166 167 160 156 159 167 161 151 150 136 147 147 135 129 130 121 117  96  47  46  52  51  70  72  61  49  35  28  50  79  94 129 157 168
 144 144 149 154 158 147 111 119 129 100  72  52  81  64  47  47  63  75  87 101 107 108 126 135 128 111 117 124 128 139 154 155 151 147 141 143 147 147 153 154 159 158 161 163 160 149 138 137 144 140 143 154 160 164 168 159 160 168 164 161 156 156 164 166 167 155 143 140 145 145 140 126 125 113 110  70  44  40  50  57  53  60  57  47  51  39  30  37  42  58 122 164
 142 148 153 154 159 157  96 121 132  93  72  50  86  64  48  35  59  76  79  90  96 111 115 126 134 117 120 125 125 131 147 154 152 147 140 141 144 144 152 157 161 162 169 163 156 144 135 148 155 149 155 163 168 167 167 167 163 164 162 160 159 161 165 164 155 142 137 148 139 134 137 122 123 123  96  32  42  50  37  61  48  42  51  48  38  42  56  55  41  24  59 140
 145 147 153 156 161 166  88  71 127  82  52  49  61  42  44  35  40  68  74  76  88 102 113 125 133 120 116 123 126 124 132 142 150 147 143 143 145 147 152 155 159 166 166 168 151 140 150 153 145 147 156 165 171 169 165 166 164 164 161 160 157 158 165 162 146 136 144 144 130 130 128 125 120 106  69  26  61  54  43  41  45  39  58  71  63  40  71  99 101  85  84 133
 144 145 153 154 154 157 124  52 128  68  35  41  34  38  77  54  17  45  79  63  73  88 107 115 121 122 116 117 118 114 123 134 142 149 144 144 144 146 153 156 162 162 166 169 158 151 161 162 154 155 159 166 162 164 166 162 162 161 163 160 159 153 154 153 142 147 138 131 135 127 125 117 106  90  52  38 101  89  80  48  46  46  68  93 103  67  38  86 131 122 111 142
 149 151 151 150 152 153 161  82  59  64  32  26  29  50  79  40  23  47  81  67  68  86  96 109 121 130 122 112 111 107 113 125 140 151 150 142 144 149 156 159 159 164 165 166 163 159 160 160 161 164 164 164 162 166 171 165 160 159 158 156 156 160 153 147 136 137 129 122 136 134 124 104  93 105  50  45  94  91  89  80  62  41  72  79  90 100  67  60 131 114 124 132
 151 152 149 150 153 150 156 155  55  29  36  33  35  50  45  25  21  32  69  87  67  73  99 108 115 123 119 117 112 103 109 124 143 147 149 142 143 148 154 162 162 160 154 153 159 157 153 153 160 162 166 165 171 170 170 169 162 156 154 155 158 155 145 139 131 125 128 132 131 117 112  95 102 106  56  43  59  97  85  97  92  61  57  64  88 124 116  71  98 123 130 126
 150 151 151 151 155 156 152 159 139  67  35  35  48  53  38  24  22  27  63  95  75  69  90 100 106 113 120 116 121 111 107 127 133 142 145 146 146 152 158 159 157 155 155 152 149 153 154 152 159 164 164 169 172 169 164 165 164 157 154 156 155 148 139 133 123 123 136 134 129 110  88  96 118 113  60  67  50  82  86 114  96  66  43  65 110 120  96  61  74  99 121 133
 145 145 146 149 153 153 150 148 146 128 101  48  25  28  24  20  20  19  51 100  89  77  77  94  99 110 118 114 114 110 101 109 128 144 146 150 147 155 157 150 151 152 155 149 146 156 154 155 157 167 163 164 165 166 162 161 163 163 154 153 149 146 138 124 120 131 136 127 116  96  90 108 126 111  64  96  76  61  99 109 108  71  35  41  63  66  70  85 100 130 147 154
 137 139 148 150 152 149 148 148 148 129 128 121  62  40  26  23  24  16  45 110 102  84  71  62  79  93 115 120 107 103  94 103 137 143 140 142 142 148 151 150 149 150 148 147 150 159 159 154 158 159 164 167 163 160 157 160 160 149 156 145 143 139 129 117 107 133 136 117  84  82 102 118 129 108  53  90 109  54 102 120 102 106  96  96  94 110 142 146 130 148 154 153
 140 142 144 149 154 153 149 151 153 141 124 125 116  93  37  23  22  16  44 116 110  98  83  61  55  81  96 104 106 107 105 113 128 133 133 137 139 140 150 153 153 146 140 146 148 156 163 156 158 157 156 158 157 149 156 158 155 146 145 144 140 135 121 114 109 127 129  93  75  91 114 123 132 102  42  85 108  60  76 132 153 158 142 152 144 130 128 144 154 150 138 146
 146 143 142 145 151 155 152 151 154 151 138 127 106  45  24  23  20  12  72 129 115 107  89  68  58  61  73  95 104 111 106  98 111 128 131 132 132 144 146 139 149 145 145 147 145 150 161 155 152 148 146 149 156 153 158 156 164 162 152 145 135 123 115 109 120 125  97  71  81 106 118 132 131  93  37  86 118  54  95 138 155 148 140 145 133 115 126 153 184 157 130 144
 145 142 145 148 150 150 153 152 151 152 155 129  50  25  27  24  19  15 133 136 112 117  94  85  76  63  62  75  89  92  91  86 114 123 124 132 136 143 141 144 143 143 145 146 137 140 149 142 146 149 146 151 159 158 151 161 161 169 165 136 124 117 107 101  97  94  74  84 102 120 131 136 124  83  26 100 110  58 134 129 146 147 150 144 135 115 128 137 164 157 146 158
 142 140 143 145 144 148 152 152 154 160 151  66  28  30  26  22  10  40 180 145 107 112 103  92  94  81  66  63  73  83  85  92 106 106 121 130 131 142 143 139 155 144 141 138 133 130 140 144 150 147 144 146 154 152 150 165 161 160 156 136 113 106 104  96  87  71  83 102 116 123 133 131 122  60  38  98  55 110 175 142 138 151 154 147 136 133 140 140 160 170 171 164
 147 146 141 143 147 152 154 154 157 161  89  30  34  30  25  19   2  88 200 165 115 104 108  94 102 101  92  79  72  64  62  73  77 112 115 111 137 135 125 146 157 139 143 137 130 141 141 137 147 142 140 140 141 153 166 147 146 154 148 146 103  86  89  76  77  83 103 111 115 132 138 125 118  62  64  53  76 150 186 153 137 148 157 156 150 156 161 165 167 163 174 169
 147 146 147 147 150 152 150 153 148  83  38  37  34  28  25  15  18 140 198 188 126 108 101  93  87 105 110  95  77  67  62  63  79  99  97 112 137 128 116 128 136 131 135 135 128 140 136 131 150 144 141 149 139 147 159 147 150 155 128 129  95  72  71  72  80 104 116 119 124 134 136 124 118  63  67  91 104 128 179 160 152 159 155 161 165 170 162 168 166 163 165 174
 147 142 147 149 150 149 151 154  85  33  39  36  30  25  26   9  62 167 194 204 151 117  98 106  97  99 113 114 100  87  73  66  74  69  86 114 129 139 126 123 119 123 130 131 129 127 136 137 149 133 129 152 143 133 146 146 164 152 116  89  72  66  67  76  95 120 126 127 132 136 134 126 114 110 127 132 110 128 177 148 153 171 154 156 180 201 179 163 170 185 186 171
 146 145 149 151 149 151 151  94  41  41  36  36  32  26  24  21 106 173 192 203 187 121 112 101 106  97 106 108 110 101  93  81  70  66  70  95 115 123 126 121 120 123 128 130 133 125 125 133 135 133 134 135 133 129 140 127 141 131 100  81  62  66  78  97 121 129 129 130 134 137 133 122 114  93 123 134 130 141 146 140 159 167 163 155 177 205 185 156 171 196 199 171
 148 147 148 150 157 138  81  39  38  36  34  34  28  27  23  44 127 178 191 196 209 155 111 101 106 105 106 109 109 113 104  98  84  67  62  70  81  96 108 121 117 114 132 142 123 122 115 134 124 130 134 127 121 136 138 125 107 100  67  54  65  78  90 118 130 131 129 133 133 130 130 119 143 120  61 124 147 148 127 159 186 167 167 160 164 187 173 151 170 184 190 178
 148 148 149 156 125  61  39  44  40  35  33  34  27  26  25  59 136 182 190 197 204 199 126 113  99 101 104 106 111 118 115 108  95  88  76  68  59  70  82  97 104 109 128 123 117 118 120 122 116 117 141 100 106 120  94  85  70  72  69  72  96 102 109 117 126 130 133 135 135 129 124 117 134 198  53  54 137 171 157 173 192 171 163 169 163 174 167 156 167 173 180 182
 148 150 151 105  46  43  44  41  39  34  36  33  27  26  23  68 147 182 191 197 202 214 169 115 107  95 111 105 110 111 120 121 110  99  93  81  76  69  62  68  84 104 114 110 108 104 125 103  93  96 144  91  79  72  60  58  64  84  96 103 107 114 122 122 129 129 134 138 133 125 121 114 125 204 136  13  61 158 178 174 172 166 174 164 156 157 169 163 161 160 173 181
 150 158 103  38  41  42  42  38  35  36  36  31  29  27  25  76 157 183 189 197 202 205 205 137 112  96 110 119 112 108 117 115 120 118 102 100  90  83  79  67  65  88 103  92  74  74  97  82  69  91  94  57  58  52  67  72  84 106 118 116 117 122 129 126 128 129 133 131 126 116 120 115 116 180 194  45  18  54 157 165 159 173 190 171 159 166 173 167 164 157 171 190
 156 118  45  36  38  39  37  35  34  37  36  31  29  28  26  84 157 183 189 194 200 202 209 191 126 113  99 115 112 110 114 115 118 129 124 112 103  95  89  82  78  72  69  69  71  62  71  81  86  97  86  80  82  84  93  95 103 119 128 127 128 128 126 125 130 133 129 125 123 120 123 112 115 157 208 101  21  24  58 146 173 172 185 179 172 183 168 162 160 150 172 202
