P2
# Generated by OpenCV 4.2.0
92 112
255
 125 111 125 123 132 128 138 149 141 119 142 133 124 136 149 151 162 152 125 112 114 116 129 123 106 107 109 105  99  91  89  83  83  81  85 101  89  99  79  74  75  68  74  82  84  89  96 106 106 115  93  84  90  70  83  67  64  35  56  70  88  87  87 101 122 115 114 120 132 140 135 146 200 225 226 223 225 224 223 225 224 223 221 201 217 221 225 232 235 215 212 205
 130 114 117 121 137 135 118 119 124 127 130 129 138 135 123 139 152 141 129 118 118 104 109  99  97 112 103  94  81  83  67  81  89  93  78  88  86 101  96  92  90  84  95  86  92 103 101  97 108 115 106  96 101  96  97  96  89  84  85  85  49  41  57  83  97 106 118 125 126 135 133 142 173 216 222 224 229 227 221 227 229 226 224 217 220 226 210 215 228 227 218 213
 125 122 122 124 126 135  99 117 132 118 123 112 108 129 125 142 164 130 110 114 108 100 109 108 107  99  92  91  89  81  86  68  87 108  98  87  64  99  95 106  96  85 123  76  99  88  94  98 106 110  91  94 100 112  86  75 100  99  92  77  90  91  79  62  63  91  82  99 121 107 109 129 152 173 197 227 227 227 210 226 231 235 229 220 213 190 131 152 227 230 218 210
 111 105 117 115 111 112 114 121 134 121 113 112 111 124 124 124 145 126  99  95  95 104 102  90  83  88  85  79  74  81  75  98  58  84 114 102  70 109 100 110  93 107  91  96  99  91 103  95  97  96  83  93 108  83  70 111 113 124  85  95 106 105  83  92  89  74  77  83  98 117 109 115 123 135 171 214 213 190 193 199 205 218 212 224 212 184 131 133 221 226 220 215
 129 118 113 122 122 120 122 122 124 119 118 110 111 119 116  99 112 117 105 103 102 101  86  84  85  89  92  87  87  85  91  90 102  86  97 108  64 111 102 106 102 110  85 108  97  87 117  88 109  87  90  95  87  73  98 118 129 104 104 113 115 110 113  87  61  57  61  57  53  84 110 115 121 151 198 229 197 108 141 151 172 181 189 214 222 215 152 138 177 228 226 222
 148 144 111 101 114 130 134 126 111 121 124 121 105 109 122 124 113 105 101  96  91  77  82  72  72  69  77  86  97  90  85  96 113 106  66 120  73 104 105  95 115  87  90 112 107  89 114 107  99 100  84  91  68  92 103 120 118  82  88  92  81  78  78  73  82  92  93  83  58  43  64 102 115 154 212 213 215 128  97 142 161 177 181 153 188 213 184 121 133 213 226 222
 160 133 118 115 106 112 128 119  96  98 101 102 101 115 126 107 112 100  98  82  81  87  83  76  76  77  71  66  83  68  76  97  91 105  82 107  86  94 111 100 117  81 109 110 114 106 118 103  95  96  93  76  84 100 115 113  86  83  83  78  85  96  92 108 102 105  86  85  71  59  58  59  73 124 197 211 206 187 143 120 166 177 189 174 174 211 205 148 119 152 209 225
 132 127 118 116  94  95 121 118  99 114 118 112 108 107 100 102 105 103  83  78  75  77  71  69  68  63  61  57  68  62  68  88  82  93 108  89 103  97  99 121 103  86 112 104 114 104 117 101 106 105  87  94  96  98 110 101  92  78  72  77  71  67  81  82  93  91 102  96  77  63  49  48  59  64 139 210 219 171 165 189 203 176 179 177 172 197 214 181 126 111 136 209
 108 117 111 104 103 112 108 100  98 111 106 109 103 103 101  85  94  77  70  63  64  73  67  63  63  55  48  55  54  67  73  85  93  82 109  96 104 107  94 126  99 105 113 105 120 110 111 110 103 101  97 104 105 105 105 100  96  75  79  81  76  72  66  75  73  87  84  77  66  59  53  46  37  38  52 121 220 192 170 165 184 173 155 149 170 187 195 204 137 117 102 179
 111 115 108 105  98 113 113 118 106  94  92 103 104 103  91  93  76  60  65  67  79  61  42  33  28  30  40  52  66  73  86 102  97  96 110 105 109 116 108 117 110 117 123 117 129 127 125 117 114 113 116 120 115 109 109 109  96  93  91  71  65  58  44  46  62  72  66  54  62  49  28  29  34  33  48 118  93 208 195 179 174 183 165 147 145 176 188 201 173 128  95 139
 128 133 126 130 118 115 121 120 118 107 108 127 124 100  89  75  51  62  62  65  58  44  41  36  39  45  57  73  97 103 103 106 118 119 113 120 126 120 127 129 126 121 134 130 133 138 138 125 129 130 124 125 115 113 115 118 112 113 108 109  96  69  51  49  48  45  62  71  53  39  50  61  43  24  39  65 169 104 189 189 193 208 196 186 168 171 200 206 201 143 100 139
 106  98 104 110 118 119 127 123 104  99 106 107 103  84  81  67  52  49  43  59  54  37  32  38  36  52  85 104 119 127 121 124 133 133 130 134 137 132 139 135 132 136 141 142 140 146 138 135 141 140 137 136 132 135 129 130 129 132 117 118 112 106  86  70  71  63  54  60  46  54  64  59  44  34  27  48  63 150  98 204 196 209 205 222 198 195 218 215 212 182  97 144
 156 147 140 123 113 120 116 115 110 107 109  98 100  75  61  50  42  34  56  63  40  42  48  40  60  94 114 113 128 131 125 130 131 136 138 139 140 144 140 141 141 145 150 147 146 150 149 153 148 143 145 150 151 150 146 144 138 131 128 129 125 115 112  97  73  67  72  69  61  70  66  55  43  27  22  51  59 102 114  91 209 201 209 201 194 206 214 223 216 205 122 147
 170 153 161 163 160 154 162 182 178 165 164 101  87  59  52  45  34  42  68  49  34  42  35  57 101 114 112 123 129 132 136 136 134 135 138 144 146 144 148 145 149 154 150 149 155 155 153 157 152 154 155 151 151 147 144 149 143 147 136 127 124 114 122 118 113  95  67  81  67  58  36  33  39  58  51  24  51  88  95 100 111 177 184 182 165 203 210 212 214 218 141 129
 182 168 175 171 171 167 193 213 208 206 186 133  77  45  37  39  18  60  56  50  48  48  65  98 111 114 120 129 134 136 137 138 142 143 138 140 134 149 147 151 153 154 153 156 149 157 170 157 150 153 152 148 153 154 148 146 143 145 146 140 136 130 124 118 123 119 105  76  75  93  85  74  85  57  49  51  53  51 115 121  58 164 160 160 172 219 210 203 211 211 193 158
 174 178 178 167 172 174 192 206 212 210 178 149  59  40  38  27  34  63  50  48  50  79 104 113 113 125 125 132 131 130 135 143 146 144 134 141 143 147 151 157 157 157 162 164 162 158 168 162 165 162 162 164 164 160 155 149 154 144 145 146 140 136 131 122 122 129 127 117  88  69  86  99  92  96  85  58  47  46  66 126 119 107 178 184 172 213 220 219 214 212 211 217
 157 178 171 167 161 181 209 201 194 178 165 101  64  38  34  28  52  44  44  45  84 113 121 117 133 130 125 136 135 136 140 150 146 148 143 147 147 149 153 159 158 160 160 168 168 167 162 164 164 163 157 160 159 151 154 153 154 150 150 147 141 150 137 133 134 131 129 137 131  99  48  76  92  93  87  83  55  54  38 108 114  77 191 183 202 212 220 213 204 212 215 186
 171 173 181 183 168 170 212 200 195 163 150  71  44  37  23  35  46  49  46  86 113 122 121 125 130 131 135 138 143 141 153 140 145 151 147 150 150 147 151 150 156 162 166 167 173 166 162 161 159 159 155 152 159 163 158 145 148 155 143 149 148 145 146 143 137 131 141 135 129 139 111  97  70  80 109  95  72  52  54  57 113  78 153 166 188 203 182 186 207 218 223 193
 184 163 180 174 152 153 172 153 133 107  86  51  37  29  30  51  50  38  77 118 122 125 123 131 129 138 136 140 138 142 147 142 143 147 145 148 149 154 157 159 162 167 166 165 169 158 164 154 162 160 162 161 160 151 158 154 150 151 148 147 144 146 142 139 142 136 139 134 139 139 146  84 118  82  47  93  83  70  48  62  95  77 142 164 168 184 173 142 167 204 207 177
 146 122 106  96  94  91  92  91  88  80  55  43  29  40  46  52  43  87 118 122 129 128 133 137 136 137 139 141 138 142 142 145 147 154 154 153 151 156 157 162 159 163 164 165 168 169 166 168 164 158 159 157 157 156 156 161 159 154 149 149 147 146 145 148 144 145 145 138 138 139 136 130  92 131 104  55  99  72  56  60  86  83 124 173 174 187 198 191 191 198 185 168
  99  98 104  90  87 107  96  86  87  69  50  39  29  41  65  57  88 114 119 128 131 131 134 136 135 132 144 142 142 138 149 147 153 152 152 155 153 156 154 160 163 168 168 166 168 170 174 169 161 169 165 163 165 160 155 159 159 161 158 156 150 148 147 147 151 143 141 149 142 139 137 153 120 106 114 121  78  85  49  70  57  94 134 183 172 169 190 211 205 198 187 188
 123 143 117  98  93  95  91  87  74  57  47  36  39  63  75  88 119 126 125 129 131 135 134 133 137 138 141 144 146 146 149 151 154 156 155 157 154 160 163 157 167 166 165 166 170 173 168 165 162 161 166 158 156 163 168 171 168 166 162 157 157 152 150 150 141 145 139 141 149 143 140 143 142 138 109 107 111  78  52  49  61  51 132 179 180 161 188 193 211 196 196 205
 129 118 143 134 130 131 132 130  76  45  45  31  59  84  89 118 131 123 127 133 134 133 135 138 140 139 142 142 145 147 151 154 156 159 160 161 161 161 163 166 166 167 168 173 171 169 168 164 156 162 159 151 156 165 169 168 171 170 170 164 158 155 151 156 149 146 142 139 148 146 142 144 152 143 142 121 105  84  71  58  52  46 137 160 164 169 193 203 207 202 188 196
 138 141 153 158 159 161 160 138  57  40  33  33  78  87 108 126 131 134 135 136 136 137 138 139 144 144 150 150 153 154 157 158 159 162 163 164 164 163 165 167 166 165 168 167 164 163 161 160 159 162 168 162 162 165 161 161 171 176 174 172 164 161 154 151 151 156 150 146 145 145 143 143 151 151 124 148  95  91  77  51  36  41 120 159 167 167 187 207 211 209 199 177
 127 155 179 173 153 132 120  69  41  36  23  67  62 103 119 133 133 131 137 133 136 133 137 142 147 155 156 154 158 162 164 161 159 158 158 160 163 164 160 161 161 160 169 169 170 165 164 160 160 160 165 164 167 169 163 165 172 164 162 158 165 168 159 159 155 153 152 144 147 143 145 149 150 147 146 140 133  67  93  71  52  53  92 172 162 156 184 190 194 201 208 162
 125 146 168 181 161 121 107  73  27  34  54  65  90 103 123 134 133 136 139 137 141 142 142 147 151 151 154 152 153 158 155 160 159 158 161 160 164 165 163 166 165 169 166 170 168 166 168 166 163 165 162 161 165 167 168 167 173 167 176 175 169 157 163 158 158 154 153 145 146 143 139 146 150 150 147 129 143  91  72  72  70  65 100 170 158 169 183 173 184 192 193 141
  73  76 117 129 115  95  85  52  23  52  64  76  96 125 136 140 136 136 140 138 140 147 142 146 156 156 163 159 158 165 161 164 164 162 164 162 166 163 162 168 167 164 174 169 171 169 166 166 162 164 170 170 167 169 164 160 165 170 170 166 172 160 159 154 157 151 160 147 146 145 143 148 156 158 145 135 143 122  63  39  42  55  84 147 166 177 178 177 180 176 169 115
  79  76  74  85  86  80  65  43  40  57  62  84 106 122 134 137 137 133 141 141 138 147 146 149 157 159 160 158 165 166 162 162 159 164 165 167 169 163 165 168 171 169 170 166 163 168 163 168 161 167 164 161 168 168 166 158 168 172 175 173 173 168 158 158 153 155 158 158 148 144 144 148 153 148 152 133 129 135  91  49  29  38  60 140 150 165 176 191 195 179 151 114
  71  84  92  94  80  79  60  38  47  58  85 103 118 117 137 140 140 138 142 142 148 147 146 145 152 157 157 157 158 164 162 166 168 169 168 169 165 164 164 166 166 168 170 173 168 168 159 157 158 160 159 153 155 154 154 153 157 158 162 166 166 171 167 157 158 167 152 160 147 147 142 143 150 156 141 146 125 133 109  75  37  61  41 145 130 159 174 180 185 173 126 110
  80  97  92  77  75  73  54  38  65  84  94 111 110 125 139 144 141 143 143 147 147 152 150 157 162 157 164 164 168 161 160 163 165 163 161 164 160 157 158 162 159 162 163 162 156 159 157 160 161 156 162 162 168 173 170 168 165 160 156 151 152 157 158 163 150 146 158 156 137 137 145 149 149 150 158 148 136 133 100  80  45  44  49  71  85 110 137 116 133 130  90  80
  96 105  90  86  75  74  57  60  81  76 117 110 116 129 135 142 141 146 141 147 144 148 154 156 160 156 161 161 162 158 156 158 159 158 160 161 159 163 161 163 165 170 173 170 164 163 162 163 165 161 162 158 162 167 169 172 159 166 167 169 169 167 154 158 157 156 156 153 140 135 137 151 149 141 139 147 135 137 114  74  74  52  85  50  95  75  83  82  86 103 100  81
  77  77  77  80  84  75  60  68  70  87 123 116 119 133 145 146 142 145 142 151 155 157 152 154 156 157 156 154 153 154 150 151 150 158 163 165 164 160 163 168 168 167 166 171 168 161 166 165 167 162 160 155 156 150 152 147 161 162 157 164 168 172 166 162 152 158 149 153 146 148 146 153 150 144 139 138 137 131 121  73  73  49  78  82  58  94  91  99  96 117  99 113
  82  78  76  72  72  65  67  69  77 108 127 111 114 132 140 144 143 142 145 147 151 157 149 146 148 155 159 160 156 150 144 157 158 160 162 163 162 164 167 169 170 170 163 171 168 161 163 160 166 160 164 156 168 167 172 168 161 159 165 165 160 158 163 159 163 150 152 150 143 147 146 145 148 138 135 134 138 133 124  73  69  54  67  87  58  90 109 101  93 108  97 116
  70  69  69  70  55  58  70  71  69 114 114 114 123 129 141 144 146 144 152 149 152 153 146 147 144 154 154 159 152 152 156 159 161 164 165 167 166 162 165 165 166 170 163 165 161 161 159 157 161 158 161 159 166 166 171 173 168 171 169 167 171 164 159 158 158 153 153 151 145 144 150 150 138 138 133 143 145 130 122  88  63  65  52  54  60  58 110 103  91  82  94 103
  81  65  59  56  43  54  84  58  83  96 120 109 118 128 146 143 148 144 146 150 149 157 150 156 156 156 153 156 157 156 156 155 160 160 162 161 159 162 163 158 160 160 161 160 161 164 155 160 159 157 164 164 161 163 167 161 165 170 171 168 170 166 161 160 159 153 154 150 139 141 152 147 148 147 135 126 128 132 114  94  59  58  54  42  70  95  77  88 109  92 100  94
  63  52  54  54  64  80  64  56  78  90 111 109 115 136 147 148 148 144 146 154 149 153 155 159 156 158 155 156 157 152 155 160 158 159 166 165 158 164 165 160 167 174 169 159 158 162 160 161 161 162 174 174 169 178 176 172 165 157 153 146 146 158 157 153 159 151 145 144 141 146 149 151 149 150 135 132 125 116 104  89  69  48  54  53  51  97  59  97 107  93  87  83
  68  84  96  91  77  72  53  50  72  89 110 114 117 139 147 145 151 146 147 151 149 148 153 155 152 149 158 161 160 157 157 165 164 166 166 169 167 165 169 157 162 169 154 153 164 167 154 156 165 168 173 168 170 173 175 167 172 176 175 175 169 163 153 152 156 159 150 149 149 148 141 148 152 149 144 130 129 110  90  74  59  57  56  51  44  76  69  91  96  97 103  90
 158 132 117 117  86  86  65  58  59  84 110 110 124 138 140 147 149 149 147 148 156 152 152 155 156 160 159 158 155 154 158 160 168 164 171 167 173 166 176 161 168 177 147 160 162 167 160 166 168 163 167 167 170 169 177 172 176 175 176 179 174 169 164 158 155 157 154 148 142 137 139 148 146 147 144 136 125 119  81  61  51  33  64  55  61  44  63  82 112 111 113 111
 162 160 157 147 109  83  69  50  51  75 101 112 133 144 144 148 148 148 148 151 154 150 150 153 156 156 164 165 161 158 160 158 167 166 168 166 171 171 176 160 168 177 141 163 172 169 171 170 167 162 169 172 165 171 167 171 173 174 169 171 174 167 172 161 159 157 153 150 146 147 146 143 137 143 143 138 131 106  90  52  52  39  45  58  52  54  65  70  93 113 110 127
 177 169 156 173 110  75  61  56  53  77 105 114 130 137 146 145 145 150 147 153 151 149 152 154 156 163 166 162 158 158 161 165 169 166 167 165 168 174 169 159 170 180 139 171 171 173 170 170 167 162 167 174 169 173 168 176 171 173 174 171 180 168 161 165 162 155 162 153 152 149 143 138 148 141 145 136 126 112  78  51  45  53  53  52  51  44  55  51  87 121 132 137
 196 170 167 164 129  88  56  50  49  78 102 103 132 140 146 145 146 146 150 147 153 154 155 155 161 160 162 160 164 171 170 173 172 169 170 169 169 175 174 161 169 178 140 174 173 173 166 174 171 170 171 172 172 167 165 159 156 153 148 145 152 159 158 157 156 155 150 155 151 145 143 142 154 147 146 130 124 108  78  47  36  40  34  41  43  38  46  47  93 135 127 136
 192 176 180 155 104  56  69  54  44  79  99 100 135 139 143 150 145 150 151 147 148 153 159 162 161 158 157 167 168 165 167 171 167 167 170 168 172 169 172 144 163 173 136 166 178 168 165 172 170 167 166 161 155 153 150 140 136 134 140 145 143 154 161 167 154 162 157 156 156 147 147 147 146 143 141 135 117 108  84  52  32  35  34  27  24  29  50  64 124 128 122 115
 174 167 176 163 162 102  45  42  38  77  94 102 138 143 148 145 147 147 150 151 153 158 163 160 156 157 156 146 149 151 155 149 148 153 164 167 169 170 169 142 173 171 139 168 172 169 171 168 160 155 149 143 130 129 132 129 124 121 120 133 136 148 159 160 168 167 158 153 152 145 142 140 145 149 145 137 113 105  78  48  44  40  53  49  45  55  77  66 104 118 109  97
 155 164 162 160 196 181  38  42  43  71  91  99 139 142 142 147 145 150 150 148 165 161 164 159 150 145 139 129 129 133 134 140 146 153 164 160 167 172 154 149 175 160 141 157 169 168 168 159 158 146 126 126 117 117 118 103 106 114 134 140 152 141 148 152 158 172 165 164 145 145 142 142 146 145 147 140 124 107  82  39  35  42  44  42  41  29  57  69 113 118 106  90
 164 158 177 153 163 105  44  47  48  68  89  99 138 140 141 144 147 152 155 162 158 150 149 153 147 137 123 114 120 119 124 133 139 141 153 162 162 157 141 161 173 162 149 152 157 158 162 155 150 133 123 121 114 115 111 130 125 139 129 139 143 154 137 136 154 164 168 165 155 137 143 143 146 142 148 143 135 105  86  39  42  41  42  59  68  52  57  56  94 115 111 101
 105 114 113  99  77  45  40  37  44  64  84 104 139 144 144 141 152 160 157 153 151 153 153 156 159 153 136 140 130 125 127 129 129 133 145 154 160 151 159 165 169 171 161 161 163 155 155 147 129 115 116 115 122 126 135 135 139 136 146 143 133 123 143 135 135 155 155 155 156 146 139 140 145 147 143 138 139 114  85  39  27  42  45  44  39  34  52  72  94 113 114  89
  69  70  75  71  64  48  43  46  40  57  87 102 142 141 139 147 153 154 161 160 161 156 161 154 170 154 157 156 145 140 139 137 130 133 131 135 154 158 164 165 164 169 168 164 154 152 140 123 106 106 114 127 135 144 148 161 157 162 154 159 148 153 127 137 133 145 148 161 156 143 141 142 141 141 143 140 135 124  85  37  30  17  24  37  44  41  56  56  77  94 104  88
  74  80  75  74  46  49  45  46  60  68  90 117 141 144 144 145 154 157 166 159 155 162 161 168 158 162 161 155 146 143 141 139 142 127 119 123 135 150 163 162 162 167 167 167 158 140 126 107 101 116 132 136 140 115 108  98 117 135 157 166 167 161 157 139 142 138 140 149 149 146 143 143 143 149 146 141 140 124  85  41  33  27  27  15  23  22  38  75  59 105 119  93
  90  77  62  60  50  43  40  49  54  64  94 120 141 144 148 143 155 160 155 156 166 158 160 160 172 169 153 119  88  89  86  98 117 130 127 116 118 142 166 164 166 169 166 163 147 141 113  93  89 106 122 112  97 111 108 112 112 129 113  97 128 164 177 158 148 148 144 145 153 154 144 144 141 140 141 144 149 123  89  37  49  39  29  28  18  32  42  89  75 102 111 105
  92  79  73  71  43  42  50  44  41  86 102 121 144 139 145 147 158 153 153 154 155 158 163 170 150  90  65  62  76  78  97 115  91 114 125 110 125 136 153 165 165 167 168 169 166 136 119  95  92  93 101 118 125 120 128  89 105  80  67  96 104 113 160 167 160 148 148 144 144 148 153 144 141 140 141 142 143 131  91  57  54  51  61  42  41  22  57  52  64 103 105  99
 128 110  76  87  60  63  42  38  43  99  95 126 143 143 151 154 160 150 158 162 161 158 154 113  65  54  91 124 102 117  92 130 122 129 118 108 120 140 148 160 160 166 166 169 160 138 122  93  92 106 130 116 115 159 133 133 136  59  88  65  78 100 108 161 164 163 153 146 144 155 150 144 143 142 144 144 141 127 122  39  34  61  41  53  33  61  54  25  73  96  97 104
 156 159 140 124  47  53  60  53  63 103  99 129 144 149 145 156 156 153 163 160 161 147  96  63 144  85 120 137 105 113  79 150 116  94 141 138 133 140 150 158 157 164 167 168 162 142 118 119 132 129  96  91 118 139 139  98 122 112 104  69  90  68  87 100 152 161 160 160 163 161 157 154 151 147 145 143 143 123 124  79  62  53  54  63 111  88  55  85  57  79 101  99
 168 187 160 137  66  57  43  47  83  97 101 133 146 150 152 161 165 157 162 163 138  93  77  91 142 131  89 101 100  95 111 125 115 119 134 162 140 139 149 154 156 164 167 175 167 145 131 117 131 133 138 127 134 138 137 126 121 106 111 119 138 115  94  79 110 159 170 168 165 155 158 154 149 147 146 141 143 131 108 103  69  76  92 110  96 101  75  90  43  89  92  97
 189 186 165  68  52  66  59  59  96  94 103 135 147 146 152 155 159 163 162 140 114 124 135 144 134 134 137 145 134 143 136 130 126 146 151 147 134 142 148 151 159 165 167 172 169 150 141 120 124 129 123 119 121 121 139 141 135 142 146 134 138 138 144 115 111 119 135 131 137 142 146 147 151 150 147 151 142 133 105 116  63  95 126 124 104 108 102 131  47  98 114 114
 185 189 117 119  80 136  95  66  99  94 101 131 144 147 157 160 163 158 147 147 152 148 155 151 150 139 146 145 142 136 130 123 126 135 139 141 134 147 145 153 158 158 166 173 174 156 141 133 125 119 125 117 130 132 129 139 145 147 151 145 149 150 161 151 157 152 154 151 156 161 161 157 148 148 147 147 143 130 112 115  80  83 116 105  56 109  95 114  63  77 120 111
 166 159  46 153 102 133 112  73  89 102  98 136 143 151 164 161 156 157 161 164 165 161 163 161 156 157 154 153 154 145 140 131 129 132 146 139 137 150 147 162 159 159 161 171 177 165 149 140 144 134 134 133 130 139 142 139 139 144 146 150 148 151 160 167 164 169 166 162 164 158 155 152 153 150 148 142 139 134 109 126 102  81 101 116  67  99  95  92  69  59 128 118
 140 119  67 158 115 115 119  83  92 106 104 147 143 149 157 159 159 160 159 159 162 162 159 158 156 153 150 150 145 142 146 140 139 151 150 142 145 147 147 161 161 158 160 165 174 171 151 152 155 151 153 141 141 141 145 149 141 134 133 141 154 162 154 157 163 162 156 170 163 160 165 162 152 150 143 143 142 133 108 121 111  76 118 118  72 105  75  59  62  50 117 106
 164 103  81 133 114  90 115  89 100 103 114 141 145 148 159 162 163 161 158 154 158 162 160 166 166 163 164 162 161 153 147 145 152 154 155 145 146 139 145 157 161 162 161 160 169 168 158 147 155 150 154 157 141 146 146 150 155 157 159 168 167 168 169 172 168 165 165 168 169 172 165 156 148 149 144 141 141 125 118 109 108  57 128 133  94 118  89  68  58  45 110 104
 163 110  65 161 117  83 108  88  92 108 120 142 151 151 160 160 164 164 163 160 162 161 164 161 161 165 166 160 157 154 151 152 162 158 156 149 141 143 151 162 166 164 165 168 167 166 159 148 151 161 153 162 157 142 144 149 153 155 154 165 165 170 172 171 170 169 171 169 167 167 164 160 153 147 142 140 142 128 108 103  95  69  99 132  82 133 142 127  69  56 109  99
 161 102  73 124 140  92  94  82  99 105 115 143 145 152 155 161 161 164 166 172 164 164 162 164 175 168 161 161 153 153 156 158 162 157 154 146 136 143 144 149 157 165 167 169 164 168 162 147 147 155 149 160 165 157 149 148 145 154 159 162 168 172 170 174 177 181 179 171 167 172 160 160 156 150 144 140 141 120 100  92  81  95 105 142  81 148 134 145  94  56 111  91
 145 111 100 139 151  88 125 111  98 111 105 146 146 157 158 157 161 166 168 162 168 170 170 168 174 169 163 164 159 158 161 161 158 156 150 145 141 130 144 149 149 163 163 168 164 171 170 153 149 154 145 153 167 168 158 155 153 152 150 155 166 174 178 183 181 178 178 173 170 169 162 153 156 146 142 141 142 111  99  81  71  88 117 132 108 148 133 105 107  82  91  92
 150 123  94 121 147  98 140 115 106 102 104 137 146 150 159 156 165 167 163 165 175 173 175 171 174 170 164 162 162 162 163 161 161 161 149 146 140 142 153 158 163 162 169 170 165 168 167 154 152 162 150 149 155 168 164 162 156 153 153 156 165 169 167 172 173 171 171 174 167 162 158 152 147 144 139 135 141 105 106  70  65  80 120 131 116 151 152 105 114 117 113  89
 133 124  88 100 129  80 108 117 106 103 112 135 150 148 151 159 160 162 165 169 167 172 170 171 169 165 157 156 158 157 166 165 161 151 147 143 148 151 159 159 164 167 172 175 172 173 169 162 155 157 154 146 158 162 169 167 163 164 167 153 160 161 163 166 166 171 172 169 166 160 151 150 146 142 143 136 127 118 104  66  66  81  95 125 141 130 147 140 116 172 164 108
 142 117  99  96 118  88  86  88 117 109 120 133 147 148 153 159 158 167 168 173 165 167 170 165 167 162 153 156 159 162 164 163 162 151 150 145 148 147 153 153 163 167 169 171 165 160 159 159 157 154 158 144 151 163 164 164 168 166 161 166 163 159 166 163 166 160 160 161 162 154 147 149 145 139 143 138 133 132 122  75  68  79 106 150 142  94 132 133 102 185 186 137
 153 126 102 115 114  92  59  66 117 119 121 126 144 150 152 155 163 169 168 173 166 167 167 165 162 161 158 154 157 160 163 159 158 150 148 150 143 142 154 158 160 168 174 174 166 156 156 162 152 150 149 142 145 156 160 166 167 166 163 166 164 158 158 157 165 161 159 157 155 147 153 144 148 139 142 138 132 136 127 112  91 104 128 155 138  82  93 109 117 151 159 125
 114 143 100 112  97  97  51  38 123 118 129 114 142 148 152 155 157 165 164 173 167 166 160 162 157 153 159 157 165 160 161 157 159 153 142 144 143 152 159 161 161 167 171 166 154 156 155 165 153 148 137 135 136 151 158 165 165 161 162 165 167 167 159 157 160 158 152 149 148 146 147 153 144 138 143 135 130 144 139 125  93  97 120 157 131 103  72  81  94 135 137 136
 147 161 115 120 119  83  30  40 125 112 117 111 150 151 149 153 156 160 161 171 164 166 157 158 153 152 162 156 161 154 160 151 155 142 136 139 145 152 157 160 160 166 174 175 156 155 157 170 158 151 131 121 135 147 157 165 172 166 157 161 167 169 167 164 154 159 152 148 143 142 141 143 138 139 141 136 136 152 148 135  96 105 126 149 136 113  47  71  79 169 155 122
 174 167 154 130 159  74  38  26 122 129 102 115 142 149 149 153 157 160 160 163 156 158 161 155 156 160 166 159 167 159 154 157 154 139 146 146 152 156 159 164 163 165 164 172 164 155 149 165 171 156 132 118 121 137 153 161 166 167 158 157 163 164 160 162 159 163 153 144 142 148 145 148 137 140 139 135 128 143 156 145 102 109 151 155 134 108  51  94  81 154 149 134
 135 188 166 127 158  95  20  30 124 138 124 115 139 149 147 152 158 157 157 158 154 157 157 156 161 164 168 167 162 156 151 150 147 145 147 143 152 161 165 169 163 166 168 171 166 155 159 166 169 159 135 119 119 134 149 156 165 169 163 158 158 163 154 155 149 149 143 137 146 146 149 139 142 140 139 128 121 138 158 152 152 152 166 142 103 101  72  69 115 108 139 152
 123 192 179 127 162 121  42  38 121 134 153 116 125 148 148 147 155 157 155 157 161 158 155 158 168 167 168 166 159 152 146 149 150 150 156 146 155 168 174 162 158 162 159 168 161 150 149 155 157 159 138 122 125 139 148 156 165 170 174 167 163 159 151 145 144 139 142 147 148 148 149 141 143 143 135 114 115 131 153 170 168 161 138 145  83 126 112 119 124 110 111 118
 174 145 185 146 126 107  36  27 103 141 160 117 128 153 146 148 152 156 153 153 159 156 155 157 169 171 168 165 156 149 146 155 150 149 153 144 147 157 159 146 144 153 150 148 141 137 146 139 134 143 140 137 134 140 147 156 163 168 175 175 172 163 162 154 148 143 140 149 154 151 153 145 142 142 135 112 119 134 135 146 151 146 134 132  74 126 119 116 119 130 124 102
 179 155 151 126 150 132  52  27 108 148 165 138 126 144 145 147 155 153 151 149 164 157 157 159 163 169 165 163 148 146 148 163 157 138 123 132 139 142 143 138 136 138 132 132 131 125 100 101 120 143 157 152 149 142 149 157 166 164 174 176 179 168 167 156 155 153 150 165 161 156 155 145 146 149 130 117 119 155 149 145 153 152 157  90  84 181 151 124 138 130 144 113
 173 164 115 182 166 131  67  22  87 142 164 145 118 146 149 147 152 148 150 150 163 156 162 165 168 169 164 161 148 148 158 158 154 143 126 126 131 133 128 127 125 129 131 121 122 102  97 107 125 156 165 163 157 148 148 146 156 159 174 172 171 173 174 161 163 160 161 156 159 158 159 143 141 138 126 114 126 167 165 162 158 158 147  56  61 156 190 167 149 147 141 131
 148 113 141 148 150 108  86  45  38 113 155 150 111 141 146 148 151 153 150 152 153 158 161 162 162 171 169 157 149 155 159 155 152 146 139 133 130 124 115 123 125 130 114 107  99 121 122 131 151 162 161 165 163 163 148 147 157 165 175 174 175 174 168 165 163 160 158 165 165 160 158 146 140 136 119 102 134 151 157 159 153 157  89  25  56  99 144 178 165 157 145 128
 177 174 148 137 106  80 100 114  72  64 145 148 110 145 143 147 147 155 145 154 157 160 160 164 163 170 162 153 149 153 155 151 149 136 131 136 138 128 130 128 128 137 120 119 110 112 130 126 143 154 157 164 166 165 165 146 151 161 164 172 170 174 167 169 166 158 162 156 159 164 158 146 138 135 118 109 137 126 131 144 144 110  57  26  53  71 113 130 129 134 151 118
 197 194 160 133 100  90 162 133  89  57  71 100 108 141 138 145 149 153 151 154 162 158 163 165 168 164 161 157 159 153 144 137 142 137 127 132 136 137 131 132 133 135 139 131 112 115 117 119 131 141 151 158 157 160 167 160 150 154 157 170 175 172 167 172 156 158 163 159 159 161 157 144 136 138 113 119  92  60  80  84  53  64  74  26  58  74  94 128 111 122 147 130
 198 207 181 124 107 134 170 127  75  55  49  51 115 134 142 143 149 151 156 154 154 158 161 164 167 163 162 156 149 139 138 140 137 132 117 131 139 146 148 139 142 136 137 131 100 115 123 133 139 135 139 143 143 150 161 157 162 147 156 163 167 172 165 163 160 157 163 160 158 156 154 148 138 146 123 129  72  26  38  30  18  24  62  39  37  83  75 119 118 125 132 110
 196 190 177 115 130 160 166  77  69  64  58  60  93 132 140 135 147 155 155 155 153 160 158 166 167 157 158 157 145 139 139 131 131 132 142 141 145 129 136 142 138 142 136 143 140 132 122 132 134 123 117 129 130 138 152 153 172 164 149 155 166 172 163 160 154 151 156 162 158 148 148 146 138 137 114 115  73  31  46  40  16  40  51  49  46  77  73  96 109 100 100 103
 193 197 161 126 177 189 110  69  73  79  63  59  79 127 139 139 146 152 160 151 155 158 159 167 157 147 149 146 139 140 136 133 135 133 142 137 146 152 151 136 145 144 145 138 157 137 124 138 127 125 131 126 135 134 133 150 158 169 172 139 160 162 162 163 151 152 155 159 152 147 147 140 134 124 115 107  62  34  42  45  25  49  48  33  52  79  83  82  95  99  92  89
 200 201 152 179 196 145  55  68  79  69  64  60  40 105 132 136 144 150 160 148 155 162 165 164 150 153 147 141 142 138 137 141 147 147 143 150 155 155 148 146 145 147 157 155 151 143 141 145 134 137 140 130 135 138 141 145 154 163 175 151 147 157 162 153 150 143 151 155 150 148 142 140 136 125 113 133  55  46  57  39  46  62  42  48  41  66  84  89  92 102 107 105
 210 201 175 183 184  70  50  67  70  65  56  49  43  88 140 134 142 148 162 151 155 159 163 157 151 155 146 149 144 134 142 145 151 153 152 153 159 159 148 149 150 144 152 157 154 151 149 150 148 153 140 132 132 137 142 146 151 161 173 169 138 156 160 151 143 146 144 147 144 147 140 137 136 122 109 125  64  43  46  40  62  69  44  22  36  61  77  88  85  83  85  87
 200 173 169 186  91  54  59  69  46  63  72  66  44  59 136 129 145 147 160 143 159 156 161 160 155 150 154 149 147 150 152 151 150 151 158 157 161 157 157 150 148 148 160 161 162 155 151 153 160 151 152 143 140 124 142 148 151 152 162 173 138 148 160 156 140 142 133 149 145 141 138 133 135 106 111 116  31  25  42  46  46  55  48  48  41  64  52  78  60  64  63  48
 184 184 187 125  49  54  64  56  50  66  76  61  16  55 116 130 136 151 158 144 154 157 161 156 158 161 158 150 150 160 158 155 153 154 151 143 147 147 156 153 155 147 150 149 138 133 134 145 146 143 147 142 140 129 132 144 159 139 163 173 152 153 158 141 143 147 142 148 144 142 139 133 127 105 120 109  35  41  59  41  19  58  37  60  66  56  75  64  78  52  54  49
 189 177 117  62  58  55  59  41  49  62  70  66  33  64 114 131 137 143 158 149 152 155 156 162 158 166 159 154 155 157 151 151 148 132 129 128 132 133 131 131 125 122 124 125 120 124 122 121 117 107 103 100  92  82  84 121 139 147 156 168 162 146 161 157 141 138 145 137 141 138 140 133 119 113 123  99  39  46  47  17  13  37  42  71  59  74  57  74  61  56  47  45
 180 145  71  52  53  57  57  25  36  57  52  62  54  68 111 123 139 141 153 145 145 156 159 166 160 161 153 141 107 102 100  88  89  81  87  91  91  91  91  98  97  97  95  92  97  99  97  86  93  86  76  85  82 108 103 112 135 153 163 169 170 148 162 143 143 139 140 140 134 134 130 132 117 105 130  85  31  19  37  18  23  40  54  47  47  53  70  76  58  47  37  42
 188 100  52  50  52  49  48  55  44  48  52  63  62  73 102 133 132 145 154 139 151 163 165 166 165 152 140 122 118 140 133 128 133 129 136 138 138 143 149 152 152 157 158 158 156 164 151 155 152 153 154 152 144 133 135 123 133 152 161 165 163 152 156 143 139 142 145 145 134 133 125 122 105 105 129  83  15  24  38  28  28  39  50  41  44  42  72  53  62  49  42  42
 184  55  51  51  51  52  50  52  58  59  61  71  71  69  91 118 138 140 144 138 147 155 157 161 163 141 141 132 151 153 153 159 155 155 157 156 162 161 164 164 172 163 167 165 163 163 169 169 166 157 160 162 158 151 136 126 130 142 164 164 160 154 150 147 144 132 139 141 133 120 117 106 101 121 131  73   6  23  34  27  24  34  41  46  40  40  50  46  56  49  43  39
 182  37  56  52  50  52  55  54  60  63  61  65  61  68  82 119 140 134 148 136 140 154 162 169 163 148 151 157 154 151 157 152 158 164 164 164 166 158 157 149 164 147 150 158 156 164 164 163 160 162 157 166 163 159 155 143 141 148 164 168 157 150 141 140 142 135 135 134 115 108 112 101 107 117 134  67  28   7  16  41  20   7  27  52  51  40  37  35  43  44  47  47
 204  77  52  57  55  57  67  58  59  68  66  60  66  75  75 108 138 141 147 151 148 157 159 171 159 155 153 154 154 153 154 161 164 161 161 160 152 155 155 150 153 148 144 143 149 152 152 157 157 163 159 167 164 163 161 151 150 154 160 166 152 151 149 153 131 133 127 126 119 106 108 100 125 125 136  60  24  32  23  30  35  39  33  33  46  44  34  38  46  43  42  39
 212 179  78  40  63  51  67  60  54  59  59  65  75  82  75  92 125 145 146 145 144 154 158 161 153 163 161 158 156 154 158 160 164 161 166 164 156 156 155 149 152 142 146 144 153 145 156 153 156 163 160 159 163 164 163 155 149 156 160 162 149 143 132 143 137 126 138 125 111 110  96  99 120 125 130  65  16  10  14  19  26  35  32  34  28  31  37  41  42  40  44  40
 204 205 183 140 157  86  51  52  62  60  55  59  75  94  92  88 120 141 146 145 147 150 155 160 157 164 157 159 162 160 152 165 160 164 159 157 152 154 155 141 149 151 147 148 158 148 151 151 150 161 159 160 163 161 158 158 156 165 158 151 146 143 140 134 143 132 132 115 106 103  99 114 123 130 121  75  27   0   8   2   9  15  15  11  19  32  47  42  38  41  38  46
 205 204 208 203 195 133  69  65  66  69  58  59  66  71  74  97 103 131 144 142 137 146 155 152 157 160 158 159 159 155 155 164 163 161 160 156 155 155 152 147 149 147 142 144 147 145 145 151 152 156 159 153 156 155 160 162 160 162 154 143 152 146 145 137 139 133 124 115  91  83 101 113 123 121 126  67  13  14  10   1  10  12  15  16  28  36  45  51  45  41  44  50
 209 204 204 202 205 202 174 157 150 152 133  96  72  76  92  98 113 122 137 144 140 151 152 149 155 160 158 158 155 156 158 156 162 163 160 160 157 152 145 152 141 146 149 157 151 148 147 152 153 153 157 156 155 158 157 159 163 159 152 143 150 136 128 132 135 125 109 106  83  93 110 119 119 107 123  71  16   6   3   6  13  15   8  15  26  39  46  45  46  44  47  43
 210 207 205 205 207 205 205 206 208 198 198 193 147  76  95 106 101  85 134 138 140 144 151 149 153 158 157 157 154 159 158 161 160 156 156 156 157 152 151 150 143 129 144 150 150 150 144 149 149 151 154 153 151 153 162 162 166 161 146 142 140 135 134 128 135 126 106  93  84  90  93 101 117 114 134  61  20   7   4   8  12  10  13  23  33  31  29  37  50  57  47  57
 204 205 200 199 199 204 204 203 197 200 197 181 193 161  65  90  98  94 111 143 147 144 142 152 146 153 156 157 159 162 157 158 159 161 160 154 156 159 160 151 144 148 148 151 152 148 150 150 151 152 154 155 155 154 160 167 159 159 148 143 133 128 132 132 138 123 111  75 103  97  98 106 112 114 127  63   9   4   4  12  12   6  14  22  23  16  35  39  50  64  70  61
 198 202 194 192 189 192 194 190 192 189 186 179 194 196 147 100  82  45  70 135 140 143 143 137 138 152 151 160 157 159 156 156 160 158 147 152 145 146 154 145 146 148 148 147 151 158 150 153 154 157 158 155 152 153 157 156 152 149 145 141 130 140 137 127 126 115  93  81  85  86 104 113 112 126 124  72   6   4   5  12   8  12  19  20  11  20  26  34  44  54  61  63
 201 197 196 191 186 172 179 189 179 175 175 184 193 192 190 125  32  40  66 105 139 143 139 145 148 143 157 155 155 151 157 156 160 155 147 150 151 149 149 158 141 130 144 156 161 158 158 161 159 160 163 163 156 153 156 148 155 143 140 139 139 143 140 128 104  90  83  91  87  96 111 117 128 133 128  73   5   4   6  12  12  14  17  14  13  27  30  41  32  46  71  84
 203 205 198 190 194 190 193 190 179 183 183 184 198 181 162  24  24  21  37  67 116 136 132 127 132 141 143 152 158 153 155 154 151 149 151 147 147 145 136 141 140 145 156 160 155 153 158 156 159 168 162 160 158 157 155 151 131 141 139 139 141 138 122 108  93  81  84  98 113 118 120 134 138 133 127  71   4   4   8   8   8  16  13  13  18  25  33  22  29  37  66 104
 209 209 199 194 193 186 187 191 185 191 196 188 184 157  31  22  17  17  10  48  86 127 132 132 134 141 141 151 153 150 150 149 145 145 145 145 151 139 147 147 146 150 150 149 156 156 160 160 162 170 161 164 164 154 145 138 130 135 127 130 138 129 120 104  90  94 101 110 125 113 125 135 138 137 122  75   2   7   6   9  10  17  10  17  22  25  26  26  36  45  58 102
 212 206 199 200 202 191 194 204 208 203 199 199 171  37  38  32  20  16   9  14  61  91 126 125 135 150 147 147 146 148 146 149 141 140 144 154 140 134 143 154 155 144 151 151 162 158 161 152 156 163 162 157 153 154 143 129 138 131 128 129 128 113  89  90 102 110 115 122 126 129 142 137 135 130 123  94   1   1   1  12  18  11  13  18  24  19  14  28  37  41  42  58
 211 205 205 203 204 199 202 209 207 206 202 188 104  30  12  17  15  13  10   9  17  53 109 131 134 138 138 145 137 147 144 137 144 132 142 149 156 128 127 144 145 150 141 152 152 154 158 155 163 152 149 150 148 144 136 125 129 131 122 123 118  88  87 103 110 117 113 114 124 125 134 139 140 130 131 101  16  14   9   5  15  14  17  20  18  16  21  33  36  43  38  51
 204 206 202 200 208 212 207 200 195 200 201 164  39  31  31  10  21   9  16   7  13  35  98 100 124 127 134 129 136 132 132 137 146 138 140 130 139 136 133 131 140 141 135 147 149 161 157 147 152 162 154 146 141 136 126 133 123 125 126 104  92  84  90 108 108 116 131 135 135 135 139 138 149 129 127  99  31   7  11  14  11  15  20  19  15  21  29  26  30  26  37  32
 176 193 200 195 207 211 199 193 196 190 189  27  33  39  21  14  10  13  10   4  10  25  91  94  96 116 141 127 128 131 132 139 137 138 148 134 137 136 131 120 128 135 141 146 145 148 152 137 171 150 159 148 148 125 130 111 106 108  87  78  87  93  99 114 114 135 135 133 129 125 132 134 142 128 125 105  51  14   1   6  16  14  21  13  21  24  27  26  23  41  48  54
 166 178 203 214 219 214 200 169 172 163 126  30  23  16  22  19  13  10   9  10   6   4  78 105 105  96 116 131 129 138 137 130 141 137 138 151 134 123 127 126 139 138 140 144 139 144 146 153 176 140 151 160 135 122 125 113 103  88  68  80  87 107 112 120 133 137 134 127 122 131 131 140 140 136 122 102  68  19  15   2  14  20  15  17  26  27  21  13  33  37  43  43
 142 163 187 210 202 200 198 151 137 161  59  36  35  21  13  16  14  12  10   7   2   2  64  92  98 102 108 126 134 141 147 139 137 145 139 150 134 137 130 126 157 143 134 140 136 143 130 146 143 144 130 149 123 109  95  82  69  82  83  87  92 104 125 131 134 134 131 125 127 134 135 134 134 132 123 105  73  33  13  14  13  18  16  26  25  15  20  30  30  38  36  46
 148 144 147 152 163 162 162 145 101  69  40  30  33  24  21  19  13  11  12  10   1   9  35  94 100 104  98 101 136 135 152 139 144 145 142 138 133 140 136 132 131 149 126 129 142 139 151 150 139 148 117 130 105  90  72  71  70  74  85  96 103 125 134 126 132 130 134 129 132 140 139 135 132 131 121  96  76  37  19  19  16  17  19  23  18  16  27  35  27  22  28  39
 164 157 149 133 143 159 149 152 156  46  32  19  16  21  20  18  11  12  10  10   3   3  18  87 108 101  99 113 109 126 144 144 131 133 143 142 130 130 128 117 140 145 133 138 116 135 141 137 142 137 124 107  82  70  71  72  80  91  97 110 126 133 131 133 132 134 135 133 134 138 132 126 130 130 115 100  78  47  22  18  16  14  28  16  20  27  30  27  18  29  41  51
 138 136 122 130 137 139 162 178 133  40  41  29  25  14  17  21  14  13  11   9   7   2   7  77 101 110 101 107 116 115 116 115 130 121 123 138 137 134 122 133 135 118 150 128 120 134 129 119 143 104 108  81  77  66  74  85  95 103 110 129 143 143 137 134 133 133 132 128 132 136 132 127 133 122 113  99  73  50  28  22  18  25  17  20  28  29  25  16  25  37  46  47
 120 130 130 124 127 127 145 159  52  40  38  29  26  22  10  16  14   9  12   6   5   6   3  65  92 106 104 100 111 120 121  99 109 123 118 119 141 138 118 133 127 129 138 119 128 100 124 130  94  86  91  97 101 103 101 103 107 122 137 142 144 145 135 134 135 136 135 135 132 133 130 131 126 118 106  95  65  53  33  17  20  22  20  26  25  23  13  33  34  31  44  21
 129 143 145 142 134 124 131 118  43  35  21  19  23  21  13  12  16  12  16   8  11   1   2  47  83 108 113 111 118 113 120 120 113  92  92  92 107 108 112 123 104 109 131 137 111 106 136 113  70  83 102 107 109 116 114 128 123 137 141 143 143 131 137 131 131 132 132 131 132 134 135 132 121 116 107  92  65  52  36  25  23  18  21  28  20  14  28  28  37  26  19  44
 113 133 142 139 135 137 125  45  45  35  34  24  18  20  16  12  17  18  12  10   7   4   1  38  76  92 109 107 113 118 114 120 115  99  87  88  76  91  82  91  93  93 119 101  97 102  88  85  96  98 107 117 120 121 121 127 129 141 143 142 137 134 133 129 140 130 135 133 129 130 130 124 122 107 109  84  67  52  35  28  25  23  26  20  17  33  24  32  14  22  37  44
 120 128 139 134 126 119  66  56  32  25  28  26  19  13  18  17  17  13  14  10   7   3   3  22  67  78  96 114 114 116 121 120 118 106 105 106 113 113 112 112 101  96 113 110 120 107 111 123 117 116 128 127 119 123 132 133 142 137 132 133 133 128 130 130 130 130 132 128 129 133 131 122 110 111 101  79  63  49  36  28  28  23  23  16  28  26  27  18  27  34  46  44
