P2
# Generated by OpenCV 4.2.0
92 112
255
 188 188 187 189 188 189 190 188 189 188 189 189 188 187 186 186 189 188 186 187 186 184 184 185 184 183 180 182 182 182 182 181 177 182 192 186 171 153 146 137 148 166 182 186 154 152 173 126 160 142  73 166 148 168 180 195 190 187 180 175 176 177 182 178 178 179 178 181 179 178 178 179 177 180 182 180 177 179 179 179 179 178 177 180 178 178 177 178 177 178 180 178
 187 187 188 189 187 188 188 190 188 186 188 188 187 188 187 187 189 188 188 184 184 185 185 184 184 183 181 183 181 180 183 184 172 157 117  85  69  78  87  93 110 121 112 155 156 157 144 144 119 118 112 112 119 144 120 107 118 134 157 172 179 173 155 170 181 175 178 180 179 177 178 178 177 180 180 181 179 179 178 179 182 180 179 179 178 180 179 178 177 178 178 179
 188 187 188 189 187 187 189 188 189 190 188 188 188 186 186 187 187 188 187 185 183 184 185 184 184 182 184 178 169 168 146 116  94  75  71  73  72  63  71  82  86  93  88  81  98 156 145 134 112 117 136 150  89  90  96 103  79  85 109 138 147 139 157 153 158 183 180 177 175 177 178 179 178 179 179 178 180 179 177 178 180 180 180 178 180 181 181 182 180 179 180 182
 187 188 189 189 187 186 189 188 188 189 188 188 188 187 188 188 187 187 186 185 185 185 184 184 184 186 163 159 151 109  59  52  77  87  90  84  90  92  89  93  88  92 105 108  94 107 141 130 115 119 125 104 101 103 104 111  77  44  66  93 101  98  93 100  94 126 147 170 178 178 178 177 177 178 177 179 181 180 179 179 181 182 182 179 177 177 175 177 178 180 181 180
 189 189 190 189 187 187 188 189 189 187 189 189 188 188 188 188 188 187 187 186 187 186 183 182 184 160 167 160 111  66  53  55  77 103  99 107 103  93  95  91  96  93  99 104 109  91 103 140 117 122 110 101 115  98  97  78  69  61  64  64  83  92  72  72  74  68 133 113 181 182 176 176 176 177 178 180 178 179 179 179 180 181 184 196 201 207 210 214 220 226 228 229
 187 188 189 189 188 189 188 190 189 189 189 187 186 188 188 186 186 185 185 184 184 182 181 183 165 171 149  85  49  49  71  87  99 103  95 103 111  89 100 100  98  92  99  99  99 102  92 124 111 120 105 104 103 106  95  86  78  84  76  82 101  96  92  76  74  56  76  88 107 153 175 174 178 179 177 178 180 179 179 180 181 178 192 243 251 252 253 253 253 252 251 253
 186 188 188 191 190 190 188 189 189 189 188 187 187 188 187 186 186 186 185 185 183 182 186 171 163 143  93  74  74  94  97 101  99 102  94  88  91  95  90 101  94  87  97 106  87  84  90  96 101 112  94 102 107 112  93  93  91  87  90 108 104  98  86  84  78  73  67  85  73  57 132 179 176 178 178 178 178 179 179 178 178 177 183 182 156 122 119 138 182 241 253 249
 189 187 188 190 189 188 189 189 188 189 188 188 189 187 185 188 185 187 185 184 182 182 182 145 125  78  68  55  79  90  94  87  89  94  98  92  72  85  78  87  92  83  94 110  81  79  89  85  98 100  83  95 114 110  90  92  94  92 114 106 106  86  87  85  85  83  77  63  65  49  83 169 171 174 178 178 176 177 180 177 179 178 174 164 154 104  45  22  22  62 183 252
 188 191 190 188 189 188 190 191 191 189 190 189 189 187 185 184 183 185 184 183 182 184 166 115  68  47  42  76  80  81  81  77  68  76  76  82  69  63  73  79  92  79  83 110  84  85  97  96  96 101  89  98 113  87  82  94  85  98 105 104 104  96  90  96  90  85  80  69  61  61  64 119 175 176 177 177 176 177 179 179 177 174 170 162 156 149 133  96  66  41  40 190
 189 192 188 189 189 190 190 190 189 189 190 189 189 187 185 184 185 183 183 182 178 184 127  63  35  45  74  93  92  84  75  72  73  62  62  65  66  57  70  82  93  78  86 112  93 101 105 112 101  99 109 111 100  76  92  88  85  98 104 105  93  92 105  97  89  87  77  65  61  54  52  52 130 176 175 176 176 178 180 179 174 173 169 165 160 148 138 132 120  98  75 124
 190 188 188 189 190 190 192 190 189 188 189 189 188 187 186 186 185 184 183 181 176 173  50  30  56  72  91  93  93  87  78  69  70  73  64  66  69  78  91 104  99  98 103 111 112 117 120 125 118 114 129 121 109 107 103  97  93 101 101  88  86 100 100  94  92  88  74  67  66  58  39  24  73 161 173 172 178 177 175 175 176 174 171 169 165 160 153 145 137 132 131 137
 189 186 189 189 191 190 189 189 189 189 188 190 189 186 186 186 184 184 182 178 184 120  26  72  69  78  80  82  76  64  62  70  69  73  90 104 107 109 119 118 118 124 114 125 133 138 133 142 144 141 141 143 141 133 121 112 104 105 105 104 101  88  89  96  99  93  83  76  68  51  36  35  43 129 179 173 176 176 175 175 174 174 171 169 166 165 159 155 151 143 140 145
 189 188 189 192 190 190 190 189 190 190 189 191 189 187 187 185 184 183 181 176 171  60  49  51  65  70  71  68  67  72  77  76  96 122 133 140 142 140 140 142 152 149 150 155 154 160 156 162 157 152 151 160 158 151 137 133 130 128 122 114 111 115 112 107 100  96  88  81  71  57  42  38  43  87 160 171 174 175 175 175 175 174 171 167 167 165 162 159 156 150 147 148
 188 188 188 190 190 190 190 190 191 190 189 189 188 187 186 185 184 181 178 179  77  25  43  56  66  76  81  91  91  78  86 123 150 159 161 166 168 169 166 172 173 169 177 179 177 178 177 174 172 160 170 166 164 162 154 150 148 145 141 136 133 127 123 118 105  90  84  79  70  57  46  43  44  65 149 160 172 175 176 173 174 173 173 169 168 168 164 161 158 156 152 153
 185 186 186 187 189 189 189 189 191 192 190 190 189 187 186 185 182 180 172  72  19  41  43  57  74  93  96  85  75 101 146 160 164 171 173 177 180 181 183 186 188 189 189 189 190 190 187 186 181 177 180 179 181 176 168 165 163 160 158 150 144 143 137 126 112  84  72  75  76  59  50  44  44  51 127 163 164 174 173 174 172 173 171 171 167 169 166 165 162 159 156 155
 185 184 186 187 189 189 190 190 189 191 189 190 190 186 185 185 178 176  78  11  30  38  52  72  86  85  78  80 127 161 167 168 172 176 181 186 191 191 193 192 192 195 195 199 197 196 196 193 189 190 190 185 182 180 177 176 172 170 168 168 159 149 146 134 123 117  99  73  79  86  69  52  48  48  84 150 163 170 171 173 173 172 171 169 169 169 168 164 163 159 157 157
 183 184 187 187 187 190 188 187 187 189 187 188 188 186 185 180 187 106   2  18  32  51  73  88  96  86  93 142 162 168 171 175 181 185 191 192 192 195 197 200 199 199 198 196 194 198 198 195 194 194 191 189 185 189 188 181 177 176 173 172 169 159 153 145 136 130 124 112  78  78  94  88  72  59  67 117 143 168 173 171 172 173 171 172 170 168 166 162 163 162 160 160
 182 185 185 185 187 190 187 190 189 187 187 187 186 184 185 183 163  19  15  27  41  72  95  99  95 104 150 165 169 173 176 189 188 191 188 186 193 195 201 202 201 199 195 197 196 198 200 201 197 197 197 197 194 191 191 189 189 186 184 185 186 178 167 160 158 153 139 132 126  96  76  90  91  71  61 103 124 138 172 171 172 172 171 169 169 168 166 165 164 163 163 163
 184 184 183 185 188 187 188 187 189 187 188 186 185 183 181 187  81   6  34  56  84 107 106 103 128 162 169 174 178 182 191 192 190 192 198 198 196 198 203 203 201 201 199 197 200 196 198 201 201 198 199 199 198 196 190 193 194 191 191 192 188 185 180 175 166 161 159 148 140 134 106  79 101 100  72  55  99 126 149 171 172 172 171 170 170 170 168 166 164 164 163 162
 182 184 185 185 185 187 187 187 187 189 188 187 185 182 184 152  20  30  61  93 106 110 112 144 168 172 178 185 183 189 191 191 195 199 203 199 199 200 202 203 201 202 200 198 196 196 196 200 197 197 200 199 197 198 193 192 194 190 189 187 189 191 185 178 175 167 162 159 154 145 145 114  85 117 114  70  41  92 139 164 171 171 170 170 171 170 169 168 164 165 164 164
 183 183 184 184 186 186 187 188 188 189 188 186 187 182 193  90  22  63  78 101 121 112 153 179 179 180 184 186 189 194 193 195 200 202 198 198 198 201 202 200 199 199 200 198 198 199 199 200 199 197 198 200 197 196 193 196 193 193 194 190 190 188 188 176 177 174 165 162 161 155 148 148 120 100 109  98  74  35  98 159 162 170 170 171 172 171 170 168 167 165 166 165
 182 181 182 182 184 184 182 184 186 188 185 184 184 181 175  63  72  81  98 142 119 159 183 183 179 187 190 187 191 196 199 197 196 196 198 201 200 200 198 198 197 199 199 200 200 196 197 198 201 198 196 199 197 198 195 196 195 193 194 192 187 186 188 187 178 177 172 164 159 156 152 147 146 130 117  85  59  54  46 128 159 169 171 173 172 170 170 169 167 166 165 165
 180 181 181 180 182 185 184 185 186 184 185 182 181 188 122  77  92 104 143 138 156 180 183 179 182 193 191 190 192 195 196 197 197 197 201 201 200 198 197 199 197 196 197 196 198 196 196 198 199 199 199 198 195 198 199 196 196 194 195 193 192 193 189 188 181 176 175 169 163 160 155 153 149 142 128 120  72  34  49  83 147 166 171 172 172 170 170 169 167 167 165 166
 178 180 181 180 181 183 184 183 183 183 183 183 178 122  81  86  96 114 150 153 178 179 179 183 190 189 190 193 194 193 197 196 200 200 198 199 201 199 198 197 195 196 198 199 198 198 197 200 198 199 195 196 196 198 196 196 195 194 195 196 190 191 192 191 186 179 172 167 166 160 159 155 149 148 141 127 113  66  30  56 120 163 169 172 172 172 170 168 169 168 168 166
 179 178 178 180 181 182 181 182 181 179 180 170  94  70  73  84  87 132 165 181 179 180 179 187 185 189 192 191 194 195 199 198 201 200 198 200 199 197 197 197 197 198 198 198 200 199 198 199 200 200 198 198 197 197 196 197 196 192 193 196 186 185 192 193 190 185 181 174 167 159 160 155 149 146 146 138 131  99  50  63 108 151 172 172 174 173 171 170 170 168 167 168
 177 175 176 179 180 181 181 181 180 177 178  97  59  72  78  88 114 165 171 183 181 183 184 187 192 191 193 193 195 195 194 197 200 200 201 200 199 199 199 198 200 198 197 197 199 199 200 199 201 200 197 196 197 197 196 195 194 195 195 195 192 191 193 190 188 188 183 179 170 163 159 154 153 149 148 145 144 133  76  66 115 133 169 169 173 171 171 169 169 168 169 169
 177 176 175 176 177 181 182 180 175 181 142  60  62  68  85  84 141 162 175 179 182 180 181 187 191 190 194 195 192 192 195 198 199 200 200 200 197 195 197 200 198 196 197 196 197 198 198 196 199 200 199 197 197 197 197 195 194 195 195 197 195 195 194 189 188 187 182 178 171 165 158 156 154 149 148 147 144 150 123  50 118 152 150 171 172 170 172 171 171 168 167 167
 174 175 176 177 180 180 179 180 177 180  80  51  66  68  73 103 154 163 180 182 183 179 179 185 190 191 194 194 196 198 197 196 201 199 198 203 200 199 198 196 196 196 196 198 195 198 199 200 201 201 202 202 200 199 199 198 196 195 195 197 196 196 196 194 189 189 185 182 175 162 159 158 157 149 148 145 144 146 149  76  74 169 144 170 171 171 172 173 170 170 168 166
 176 174 173 178 182 178 177 176 182 129  46  62  70  78  85 125 154 175 182 184 183 182 182 186 190 192 195 193 196 199 193 193 199 202 199 202 200 202 199 198 199 198 200 200 200 200 198 200 203 205 201 204 201 199 198 197 197 196 196 196 198 197 195 193 187 185 189 185 178 168 160 158 157 152 147 144 140 146 142 123  70 121 149 157 173 170 171 171 169 170 169 168
 174 173 174 178 177 177 178 177 167  68  52  69  79  86  91 142 165 174 182 187 182 183 183 183 191 194 194 195 198 196 193 194 198 200 200 199 198 199 202 202 203 201 201 202 203 200 202 202 201 205 204 203 203 201 199 199 201 197 197 198 196 195 195 192 188 187 190 186 178 168 160 157 154 152 150 144 144 144 146 136  98 105 140 149 175 169 170 171 170 170 167 166
 174 173 174 175 176 175 173 179 113  57  76  75  85  79 100 155 165 175 182 186 187 183 181 186 191 193 194 197 199 197 197 200 197 199 199 200 200 202 202 204 203 202 202 204 205 200 202 201 205 205 203 202 203 201 200 198 199 196 194 194 195 193 193 190 188 187 186 181 175 170 164 157 158 155 151 146 142 145 146 136 109  63 138 138 170 172 170 171 170 168 168 168
 173 173 172 173 173 173 171 168  77  59  66  69  89  80 114 153 166 172 183 188 189 185 182 186 189 192 194 197 197 198 195 196 199 197 197 202 204 203 204 200 203 203 199 198 195 193 196 196 196 198 197 199 199 197 197 199 196 198 196 194 195 195 196 190 189 186 183 178 169 166 165 159 156 156 154 143 142 141 146 133 112  48 122 145 156 171 172 171 170 169 168 166
 168 170 171 174 169 169 156 107  72  74  73  80  77  75 123 149 162 170 177 187 190 188 183 186 188 192 193 197 198 198 196 195 198 197 195 199 203 203 198 195 195 198 196 195 198 197 197 199 199 199 201 202 203 201 199 198 197 197 194 194 195 195 194 190 188 186 187 183 176 168 163 162 156 153 153 142 138 142 143 136 115  62  76 157 149 171 169 171 171 171 167 168
 167 169 171 171 167 163 133 102  70  66  71  73  73  83 123 153 161 170 181 186 190 185 186 186 187 190 194 196 196 199 198 192 195 195 194 197 197 199 197 193 193 194 195 197 197 195 195 198 201 201 200 200 201 201 203 198 198 196 194 193 194 192 189 187 185 187 186 180 175 172 169 160 161 155 152 142 134 142 144 135 115  81  51 152 143 169 170 170 171 170 168 168
 166 167 170 170 171 128 103  61  55  63  61  72  78  82 134 141 152 167 177 184 188 187 190 184 184 189 192 194 195 197 199 194 196 196 197 201 201 198 196 197 197 198 199 200 198 194 192 197 201 201 200 201 200 199 202 200 197 197 196 195 196 194 190 187 183 183 183 185 174 174 169 164 161 155 151 143 143 139 143 140 114  81  57 141 145 167 171 171 170 170 170 167
 158 164 171 168 159  82  70  79  55  70  69  65  64  92 131 143 157 165 176 181 184 187 190 187 185 191 191 194 196 198 199 196 196 196 196 199 200 197 197 200 198 199 198 198 198 195 194 198 196 199 200 199 199 199 199 199 199 198 197 196 195 193 189 186 185 185 185 182 180 173 168 163 160 155 151 144 142 141 142 131 127  91  54 137 146 168 168 168 169 169 168 166
 146 163 167 166 144  68  92  55  53  45  55  68  61 100 131 141 151 165 173 180 183 185 188 190 185 190 191 192 194 196 198 196 200 199 199 198 199 199 199 198 199 198 199 197 197 194 193 195 192 195 200 196 197 199 199 197 196 198 197 194 195 194 192 190 185 187 186 182 182 176 169 166 159 153 151 142 140 142 138 131 122 105  49  96 155 166 167 169 170 169 168 166
 134 155 164 165 116  90  67  31  44  51  58  63  63  96 126 131 145 157 169 183 185 187 191 191 183 183 192 194 191 192 195 198 200 198 197 199 200 200 201 198 199 201 199 198 196 196 196 196 194 194 198 199 201 201 199 196 199 198 198 196 197 196 192 189 184 184 184 180 180 175 169 165 158 154 148 143 139 143 139 131 123 104  68  38 126 170 167 169 169 169 169 166
 130 146 160 165  82  95  28  22  41  55  49  59  65  85 109 122 143 156 173 184 183 188 191 191 188 187 189 194 195 197 195 198 197 195 198 200 201 198 199 198 196 200 200 198 196 197 198 197 196 191 195 199 195 198 201 200 198 199 197 196 198 194 191 188 184 182 181 179 177 172 167 161 160 154 147 146 144 140 138 130 123 105  79  40  82 158 167 165 169 168 168 166
 132 136 154 150  78  75  19  30  49  53  66  62  62  69  89 116 142 157 170 179 184 187 187 191 191 188 189 195 196 197 197 197 198 200 201 199 200 200 198 196 196 197 199 197 198 199 199 199 198 187 196 197 190 198 201 200 199 198 198 197 195 193 195 186 183 183 183 182 178 173 167 162 160 155 149 146 140 135 138 135 121 108  79  46  63 154 164 165 166 167 166 166
 135 128 144 119  87  44  21  30  36  44  50  60  56  54  77 113 141 161 171 180 183 185 189 190 190 189 191 193 199 197 197 199 200 199 201 201 202 200 199 195 196 197 198 198 198 200 200 200 198 189 200 200 188 198 203 203 203 201 198 195 194 195 196 184 183 183 181 183 176 170 168 164 159 155 149 145 137 136 138 134 127 102  78  55  51 146 164 167 167 166 165 164
 132 131 134 104 109  30  18  30  41  47  49  50  49  43  75 116 146 159 167 177 178 182 188 186 189 192 190 194 200 198 198 201 201 200 200 201 201 201 199 201 202 200 200 198 198 198 196 201 196 191 199 204 186 194 207 207 205 201 201 197 199 197 193 192 187 186 179 177 172 166 164 162 160 153 150 147 144 141 133 125 121 100  75  58  46 134 164 165 168 166 165 164
 129 130 121 102 104  35  23  30  32  40  48  48  38  44  76 121 151 162 160 170 177 180 184 184 188 192 190 195 197 198 201 202 201 200 202 200 203 203 205 205 205 209 211 207 202 199 200 208 201 192 191 207 187 193 211 207 204 206 207 204 203 203 199 191 188 186 182 178 180 172 162 160 157 153 150 146 144 139 132 129 115  87  73  49  42 137 162 162 164 165 164 163
 127 127 115  93  99  44  24  33  36  45  50  38  28  41  84 129 148 164 169 169 176 179 182 187 190 190 195 201 200 199 200 203 196 196 196 196 194 193 194 189 191 197 194 200 205 198 205 205 196 183 184 204 189 186 215 206 200 204 209 201 195 189 183 175 168 156 155 156 156 157 159 158 153 150 150 147 143 138 133 131 113  84  63  47  36  94 154 159 164 164 164 165
 127 127 113  95  90  36  29  35  41  38  31  26  28  41  94 124 152 165 172 174 178 180 187 190 191 192 197 199 196 197 195 195 189 182 177 175 174 169 159 155 152 149 160 175 186 199 198 199 191 173 192 206 181 181 202 198 200 195 191 180 167 157 151 146 146 145 144 133 121 134 140 154 159 151 144 150 143 138 136 130 117  87  55  44  37  44 116 147 156 162 163 162
 133 128 109  98  72  24   7  20  30  23  23  28  30  49  95 124 155 168 175 178 178 180 188 188 188 193 200 195 193 193 190 184 181 174 163 157 157 146 136 136 127 134 145 156 169 178 184 195 180 172 203 198 173 173 182 187 192 187 176 164 143 127 117 120 119 111 112 124 125 122 119 134 147 154 142 141 143 137 135 129 117  86  55  39  35  39  64 129 146 159 160 160
 134 130 100  89  55  11  14  19  23  35  36  33  37  54  92 127 157 166 170 179 178 180 183 183 184 197 198 199 191 187 182 180 181 176 167 151 136 127 128 117 115 121 129 135 147 157 174 175 167 182 190 187 178 182 186 178 177 168 155 131 113  95  85  81  74  74  86 101 111 124 130 128 139 147 147 140 138 136 133 129 119  88  55  40  29  38  47  62 135 152 161 162
 156 135  91  69  38  10  13  19  28  35  39  35  36  57  90 130 161 167 173 179 180 181 182 180 184 200 197 191 186 183 184 183 179 181 181 157 148 141 121 103 101 101 108 111 129 143 159 173 183 183 183 191 182 187 189 176 167 149 115  86  73  67  65  74  92 108 112 120 120 114 128 138 138 146 146 143 139 134 134 127 118  95  56  37  28  35  87  54  82 147 161 160
 211 143  91  52  40  14  10  18  23  28  32  37  43  59  91 134 163 169 173 180 179 182 182 178 189 197 193 189 185 180 178 175 176 177 181 189 191 177 159 153 138 118 102 100 109 118 145 168 176 180 181 184 186 188 177 163 144 107  75  63  69  88 113 135 150 154 162 153 148 131 122 128 140 138 137 140 141 131 131 128 119  98  55  35  30  22  73 107  65 108 154 160
 245 176  93  48  55  12  18  25  37  37  37  36  43  59  95 144 167 169 176 180 182 178 180 179 185 181 179 172 175 174 169 177 181 185 197 199 189 168 171 163 146 143 127 101  92  99 118 150 171 185 187 189 191 184 168 143 101  71  69  95 123 137 133 141 162 183 182 178 168 159 145 123 133 132 134 139 142 131 131 127 120  94  56  33  28  25  73 103  90  91 146 158
 251 219 118  67  67  20  28  29  33  39  44  39  43  55 100 145 169 174 178 179 183 180 175 172 173 168 162 158 164 165 173 177 186 199 204 188 152 130 116 109 110 132 134 131 109  95  98 127 177 193 194 198 197 186 159 123  76  71  98 129 126 116 113 121 126 143 168 181 181 159 158 152 136 133 133 129 135 133 132 128 121 100  57  28  25  26  53 121  98  91 133 153
 249 247 156  68  72  31  44  48  44  49  45  42  40  54 107 156 170 177 180 183 180 182 176 169 167 164 163 161 164 168 177 186 192 175 132  86  73  81 100 100 108  99 115 127 118 110 116 134 163 188 201 203 199 188 166 117  82  96 121 122 118 132 117  96  95 105 108 122 152 175 159 151 156 148 137 130 134 134 132 129 123 101  52  27  24  23  28  86 124  66 119 155
 248 253 173  60  36  10  27  45  46  45  34  31  31  52 120 158 171 179 183 183 183 183 176 174 166 164 170 180 181 177 174 166 127  78  59  82 118 114 106 128 116 121 128 118 102 125 142 145 161 187 193 199 195 186 164 120  97 114 125 145 144 122 126  99 130 120  85  79  87 115 152 152 146 150 146 137 132 131 134 130 125 109  51  24  19  22  30  82 110  82 104 155
 250 253 182  70  12  11  20  32  39  45  44  36  36  62 126 157 172 180 185 186 184 181 182 176 166 169 176 179 182 169 139  89  68  66  77 102 103 112 114 191 168 118 127 156 146 147 151 146 170 193 196 197 196 189 164 131 112 139 156 118 107 167 166 112 137 101  96  72  81  84  89 135 148 152 155 145 136 136 136 131 125 113  65  21  19  19  25  73 111  90 116 139
 250 252 190 114  12  30  36  34  29  26  35  48  46  66 130 155 175 180 182 184 186 182 189 192 196 187 186 174 144 104  83  67 106 124  81 102 108 113 130 181 169 144 132 152 187 178 156 154 175 189 194 197 196 188 172 138 126 157 150 134 145 164 162 133 134 123 109  93 113  95  82  75 125 153 149 156 162 148 141 135 129 120  76  26  24  28  22  67  90 104 120 146
 250 245 172 113   9  37  61  57  49  49  44  45  50  71 133 162 177 183 187 186 182 181 169 167 168 170 160 139 110 115 129 136 142 154 145 149 154 158 168 162 161 166 177 183 181 172 150 167 179 186 195 200 195 190 179 148 126 142 162 167 157 158 163 172 171 164 151 154 150 138 122  98  78 112 149 152 143 141 140 138 133 126  90  29  27  28  24 111  89 103 120 154
 254 219 165  68   5  67 104  73  53  57  51  51  53  80 146 164 176 182 186 190 194 197 187 177 165 149 141 150 172 171 171 174 170 163 169 175 180 173 170 163 155 153 161 171 175 165 159 173 183 182 195 196 193 188 183 160 133 135 149 157 148 155 159 166 170 169 166 162 154 146 143 145 138 113 110 119 138 132 133 137 139 129 103  44  32  33  68 122  97  79 126 154
 254 209 181  96  23  64  69  85  61  70  75  77  63 102 153 164 175 179 184 181 181 182 180 187 192 191 187 185 181 184 183 182 183 183 179 177 180 173 154 149 144 155 166 177 173 165 165 178 183 185 200 198 192 189 184 169 145 140 152 162 161 161 163 162 159 153 154 159 161 160 166 169 169 167 165 159 152 150 154 151 141 130 111  66  34  33  70 133 112  99 120 153
 253 201 176  75  20  68  67  81  84  75  85  83  73 113 143 162 175 180 182 185 192 200 203 199 184 179 183 192 192 194 191 189 184 181 172 163 153 147 157 170 173 181 188 188 175 170 169 185 177 186 199 194 192 182 179 174 149 143 160 173 176 173 173 171 168 159 151 142 146 150 152 149 149 154 152 166 168 153 145 136 136 128 104  75  34  39  74 136 119  96 105 155
 245 200 171  61  22  77  89 109 118  78  81  70  74 109 145 166 172 180 183 183 191 195 193 188 191 200 199 185 171 167 165 165 166 162 162 167 176 187 192 194 193 195 194 191 182 175 174 187 176 189 194 198 191 183 179 168 145 142 161 170 182 181 182 181 178 179 180 174 177 182 186 187 180 176 166 158 162 167 163 147 134 128 107  75  44  49  80 120 114 111 110 155
 228 184 193  56  28  90  99 124 147 125  96  83  86 108 141 165 173 178 180 180 188 198 200 202 203 196 180 174 183 190 190 189 193 189 187 189 193 199 199 199 199 200 198 189 183 175 175 184 185 191 195 199 194 185 179 168 147 142 157 172 183 184 186 185 186 182 181 167 165 161 158 160 167 178 179 169 163 162 159 146 139 129 115  73  53  59 100 109 118 117 120 149
 205 178 203  45  28  89 110 136 162 150 121 101  99 114 137 162 173 176 181 184 193 195 200 202 194 185 192 203 206 197 180 173 180 184 190 198 202 201 198 202 202 200 198 188 186 179 172 178 184 187 192 194 193 187 177 162 151 142 150 168 183 189 189 189 190 187 187 183 180 180 178 173 171 165 166 174 167 164 155 148 131 128 113  81  75  82 113 115 121 116 112 135
 208 186 199  40  40  80 125 144 176 166 154 125 116 127 145 161 170 172 179 183 191 200 202 189 189 203 207 202 190 187 193 198 200 202 200 198 198 198 201 203 203 203 196 189 181 176 179 177 177 189 194 187 188 182 174 165 155 145 145 164 177 187 192 191 190 190 192 188 185 189 189 189 190 187 168 166 167 162 157 149 133 126 113  99  95 102 118 137 128 115 112 129
 206 191 197  91  47 106 117 154 178 182 163 116 123 141 151 163 168 169 175 180 189 194 191 197 208 203 197 198 201 203 198 197 198 196 195 195 196 200 200 202 200 196 194 185 175 178 178 180 188 194 194 192 190 186 178 167 159 150 147 160 175 186 193 193 190 190 189 191 192 191 191 189 187 184 178 166 162 163 151 146 130 128 119 106  97 110 139 143 127 123 112 122
 197 199 200 112  46 124 113 147 177 165 145  99 101 166 153 162 167 169 172 176 186 192 200 205 199 201 205 208 208 198 203 203 200 197 198 197 195 199 198 196 198 195 187 181 177 179 177 180 196 195 193 191 189 186 182 169 160 155 150 154 172 184 196 197 195 197 196 196 193 191 191 190 188 181 177 170 163 158 150 143 130 124 114 110 101 126 140 145 135 120 108 129
 189 208 189  76  77 147 133 129 171 169 159 136 121 186 162 162 165 165 169 177 186 195 197 198 207 211 201 199 200 200 203 203 198 197 199 199 200 195 195 195 191 195 185 176 177 184 179 178 194 195 191 192 192 187 177 169 153 149 149 151 167 182 190 191 194 198 198 200 196 196 193 188 182 177 176 167 163 153 147 143 132 114 101 112 111 139 133 146 145 118 107 129
 217 211 184  63  75 123 151 144 167 175 165 143 143 203 172 158 164 166 171 179 184 188 197 206 202 189 188 197 202 203 203 201 202 204 202 200 198 187 188 193 191 190 183 178 177 185 179 177 191 193 193 195 192 186 179 169 152 147 151 145 160 182 188 193 196 198 196 198 197 198 195 189 183 178 174 166 155 151 143 140 132 119 111 118 122 140 140 150 139 121 117 126
 230 226 123  49  57 164 168 158 179 178 167 156 172 208 172 155 168 174 172 174 178 194 201 193 178 193 203 203 204 203 203 206 206 206 206 202 194 189 185 187 189 192 184 177 179 185 179 182 195 191 195 193 190 189 184 165 151 155 161 152 153 172 184 191 195 196 199 198 196 196 194 189 182 176 169 166 155 147 139 135 136 143 119 126 140 133 137 149 139 119 127 123
 244 190 119  37  65 212 183 161 195 170 175 163 181 203 170 158 172 176 173 172 181 190 183 173 188 202 203 202 201 202 205 209 210 207 204 199 188 187 184 183 184 185 181 183 189 188 179 187 191 190 190 197 193 191 184 164 149 157 168 161 154 164 177 179 188 196 198 196 197 192 188 189 183 172 166 161 151 143 142 131 137 147 130 142 146 105 115 141 126  97 128 129
 134 206 148  16  79 205 184 163 197 160 164 169 182 198 159 163 170 175 172 171 177 177 172 180 189 194 199 196 200 201 205 212 211 210 200 189 185 181 175 174 177 189 182 190 192 189 182 187 190 191 204 213 203 187 181 165 150 151 161 163 152 159 171 177 185 192 195 202 195 190 186 186 181 172 161 153 146 139 140 136 141 142 143 153 153  82  72 130 107 118 130 137
 167 228  87  47  73 181 198 157 190 170 147 177 178 193 165 165 170 174 171 174 174 168 171 178 170 189 196 197 201 202 204 204 204 202 192 181 179 173 167 175 189 186 177 189 190 188 174 169 171 185 200 200 190 181 172 164 146 140 148 152 148 155 161 173 179 180 193 198 193 193 188 186 180 170 161 149 135 134 139 138 143 134 138 151 148 111  41  77 109 131 139 143
 149 145  80  38 110 152 148 162 184 189 179 202 180 184 165 161 170 173 173 175 172 167 178 176 178 185 191 193 191 192 195 198 200 195 189 182 169 164 168 185 193 183 162 168 176 174 158 153 155 163 166 158 158 163 152 141 120 121 130 127 127 152 156 158 164 171 185 189 189 188 186 184 178 169 163 153 135 132 139 138 139 130 134 152 144 105  72  46 128 141 146 147
 114 110 133  32 129 148 104 176 161 186 205 203 210 197 149 157 169 174 175 171 169 168 179 185 189 185 181 182 184 187 190 199 198 192 177 164 160 160 181 195 195 184 159 124 109 115 127 132 136 139 142 133 134 134 122 104  98  89  71  77 132 154 151 154 157 159 170 182 180 184 178 178 174 169 163 154 141 134 141 141 141 128 151 155 143 119  96  62 106 148 142 150
 108  97 112  60 166 141 131 165 173 168 205 187 195 181 141 144 165 172 175 166 168 176 175 169 179 176 174 180 182 183 186 182 179 172 152 136 151 174 190 194 194 185 176 135  98  92  90  97 103 108 108 109 109 104  92  83  64  51  72 115 145 148 156 166 170 159 155 171 179 179 178 175 172 164 157 151 143 136 141 141 142 121 156 145 139 141 121  93  80 135 147 152
  26 115  76 106 152 175 142 122 182 188 203 196 190 192 148 146 159 172 171 166 170 173 169 167 163 152 169 176 176 177 174 167 149 125 120 148 175 184 184 186 188 177 177 164 148 145 130 111  90  89  74  67  70  72  68  57  61  90 115 130 139 155 160 171 177 172 157 147 162 171 172 174 171 162 157 147 141 143 144 143 141 114 138 153 149 141 137 114  88  94 148 146
  72 107  23 158 177 159 143  40 107 179 193 207 205 197 139 139 153 167 169 169 176 174 173 166 142 154 177 172 168 165 159 125 101 127 162 176 177 173 170 175 177 177 171 149 147 151 145 136 133 122 102  98  97  91  93  95 100 114 112 135 123 139 155 165 167 173 174 155 135 152 162 168 164 159 153 143 144 147 151 142 136 118 153 160 142 145 141 134 102  64 130 147
  94  57  26 152 148  66  52  33  65 159 178 196 196 192 153 136 152 162 162 166 176 175 173 155 142 169 173 166 157 146 108 111 141 160 152 154 165 165 165 165 168 161 156 151 150 148 159 151 137 127 134 138 134 136 130 119 112 107 107 128 122 132 138 141 149 159 162 170 152 124 146 154 162 155 147 137 138 147 152 143 132 136 154 153 112 138 143 141 112  69 118 143
 101  28  41  57  47  22  78  63  72 133 160 152 156 163 144 128 149 157 159 165 171 171 173 162 148 169 169 164 148 102 123 165 155 144 145 153 150 161 157 152 153 154 151 154 153 156 154 151 151 141 145 144 149 143 142 133 123 110 102 113 127 124 112 120 124 146 147 161 167 145 114 145 156 160 145 132 128 148 151 147 134 131 140 139 117 117 143 141 129  73 116 141
  45  21  43  59  37  73 127 132 107 139 128 125 124  59  95 116 143 158 158 161 162 165 170 163 148 167 163 160 121 130 183 163 141 145 146 136 137 139 143 143 152 139 134 147 149 151 154 161 144 142 146 163 162 156 144 140 126 111 109 110 110 126 115 123 132 130 143 147 155 163 124 127 149 153 147 139 142 145 154 143 137 119 115 128 128 117 125 148 130  82 111 146
  39  23  45  35  54 141 136 123  73 107 170 146  41  13  63 109 145 153 157 157 160 160 169 169 158 170 164 149 127 176 177 167 151 141 138 126 130 129 134 143 146 144 141 148 155 158 158 162 159 169 174 179 174 163 162 147 129 111 110 110 117 128 133 112 111 120 130 133 144 151 150 123 161 150 145 127 140 143 150 144 122 106 104 138 129 108 116 137 134  93 111 146
  48  30  49  36  67 133 144 120 119 166 109  64  25  39  43  99 135 151 152 151 154 164 173 168 151 170 167 151 170 188 174 162 150 144 119 112 131 127 133 136 163 165 155 159 164 171 176 182 189 192 191 186 182 174 166 150 127 111 114 117 130 123 120 111 103 107 122 133 146 150 156 124 153 154 145 128 128 144 137 139 122  86 102 140 125 118 111 110 137  94 111 149
  45  60  72  70 100 127 143 119 146 129 117  48  19  43  34  86 123 147 147 144 150 160 167 167 148 169 167 174 183 196 167 156 149 137  88 102 106  88  96 111 124 129 139 145 148 157 161 167 177 180 179 174 165 163 151 138 126 110 110 111 115 111 101  97  95  81 101 136 151 155 153 134 155 160 141 135 129 138 133 121 126  78  91 115 110 134 122  99 120  90 103 148
 101  56  74  83 111 114 137 141 156 156  87  42  58  84  28  70 105 135 146 144 147 161 165 159 148 162 179 179 181 194 166 162 151 115 124 151 148 132 118 109 102  92  92  99 100 116 125 133 137 135 133 125 126 125 112 101  95  87  81  76  68  62  57  67  78  74  99 137 139 152 152 137 165 152 134 116 137 135 132 122 100  98  76  90 120 121 115 111 102  97 103 147
 152  63  70  99 115  79 111 131 139 133  65  83 112  80  16  44  96 136 147 153 153 154 169 154 139 152 168 172 189 196 170 154 136 145 163 167 169 174 170 171 168 163 157 157 155 158 164 161 149 144 141 139 137 136 122 107 108 108  99  99  96 103 111 121 131 121 134 143 144 157 156 150 182 151 134 114 126 137 131 121  80  72  82  99 114 118 119  87 102  77 106 143
 109 113  60  81 123  91  98 130 211  99 125  73  85  26  20  30  85 125 141 149 140 152 166 149 131 141 148 173 184 198 178 151 161 167 173 175 177 179 178 181 182 186 186 188 191 191 191 197 192 187 184 184 187 188 184 181 174 170 158 148 144 140 144 144 140 145 152 153 156 166 155 158 180 146 116 118 119 127 119 113  62  77 120 110 108 106 113 107 106  70 113 141
  98 141 109  56 126  74  92 141 126 125 128 110  42  34  20  22  70 119 139 138 137 156 162 148 127 134 138 161 177 195 191 162 173 180 181 181 181 183 182 183 186 190 190 191 194 191 194 193 196 201 198 195 195 190 190 185 183 175 163 154 147 148 151 152 151 155 156 157 162 183 160 161 161 141 108 106 115 118 110  79  45  66  97 114 109 100  82 104 112  68 106 134
 141 127 140  64  89  71  99  79 115 159 130  76  45  30  17  24  84 117 134 141 137 152 154 141 132 132 143 155 172 188 193 174 177 184 179 184 183 182 185 189 190 188 187 189 189 192 195 190 187 193 184 185 189 185 180 181 174 168 162 151 149 151 152 156 161 162 169 163 179 188 161 159 148 127 125 107 115 109 109  55  29  50  57  78  92  90  74  58  95  63 111 133
 142 135 131 117  73  61  81  75 115 181  99  48  54  25  29  26  32  71 126 137 145 149 147 149 141 113 137 145 162 177 181 175 173 183 181 183 185 185 184 186 188 187 188 192 190 183 187 183 175 177 171 173 171 168 167 171 166 156 163 149 151 154 152 156 159 164 173 174 181 166 158 152 142 116 130 117 114 113  96  48  33  45  39  48  99 117  79  29  59  66 108 131
 133 141 103 101  98  42  62  95 111 135  34  57  34  20  17  19  24  81 114 135 148 143 144 146 144 117 134 151 159 167 188 191 186 183 186 182 183 182 185 189 184 185 187 192 186 184 183 174 168 168 165 156 149 157 157 162 155 153 160 153 147 152 153 157 158 167 177 175 174 154 150 137 126 110 102 108 108 108  84  30  26  36  41  15  14  48  76  36  30  52  88 127
 134 126  99 116  98  35  46  61 102  47  30  37  32  18  17   6  31  51 101 128 137 126 136 142 140 123 128 143 151 161 173 187 195 189 187 183 180 179 182 186 187 184 184 184 188 186 179 162 164 159 158 152 145 154 153 158 155 153 146 145 148 148 152 153 162 174 183 178 163 150 146 129 108 109  98 101 102  94  82  59  12  35  42  27  17   6  30  48  29  69  91 140
 143 109 111 131  60  21  55  63  40  26  33  34  22   8   5  39  73  32  65 116 127 129 132 134 132 122 127 137 145 152 163 179 185 194 191 187 184 182 183 185 189 188 188 188 193 186 173 169 164 159 164 159 145 153 161 152 155 150 145 147 144 146 150 155 170 180 182 170 144 143 137 114 114 103 115 108  99  88  76  66  44  54  49  29  33  18  20  57  47  99 103 142
 147 117 113 116  37  28  73  59  16  24  33  21   8  12  15  27  32  19  28 106 122 130 129 139 137 125 132 145 146 156 156 164 172 183 191 187 186 185 185 185 189 189 193 194 197 189 177 175 170 165 162 157 156 153 163 161 157 156 149 144 145 150 156 163 176 184 176 155 144 142 106 113 116 102 105  94  97 103  99 102 120  61  86  60  38  39  32  55  76 123 104 142
 154 108 100  84  45  39  68  30  28  26  13  12  10   7  21  49  54  34  11  92 130 123 125 135 140 148 150 156 146 149 145 148 171 181 188 190 185 186 183 183 188 190 194 193 194 196 185 174 178 178 168 158 158 158 167 172 163 158 154 150 152 154 158 169 180 180 168 142 132 120 110 108 111 103 100  94  98 121 119 112 114  89  77 106  46  44  61  88  80 123 105 142
 148 104  93  72  38  30  47  29  16   8  15  11  10  63  72  50  19   4  15  86 132 124 129 140 144 145 152 161 161 148 144 144 163 169 182 191 189 185 185 184 186 187 191 194 197 199 186 183 188 182 168 172 172 170 173 165 169 161 159 153 157 158 164 172 176 173 152 132 112 106 118 115 110  93  96  92 101 120 126 119 122  90  72 118  74  42  53  68  70 107 106 167
 148 130  70  73  41  33  34  14  12  29  22   9  23  49  49  25   4  20  29  89 131 127 130 145 141 139 146 148 162 154 147 150 157 170 188 192 191 187 186 187 187 190 192 193 194 188 184 182 182 179 172 179 179 171 166 168 168 166 161 155 157 160 166 173 170 163 146 129 117 109 118 119 107  89  87  88  95 120 127 123 113  94  82 119  92  23  44  92 105 154 134 190
 145 140  57  49  37  34  10  18  31  19   7  10  26  53  79  25  22  25  27  77 139 128 130 131 129 150 148 159 170 165 153 159 153 173 177 186 195 190 189 188 187 191 194 192 189 183 176 173 176 177 171 180 179 173 172 173 168 170 164 160 160 166 170 167 166 148 119 117 132 126 113 115 109  92  81  92 128 136 107  99  82  96  77 107 109  36  20  62 123 193 166 208
 148 144  68  20  27  27  14  19  13  11   4  18  42  26  52  28  19  13  22  76 144 139 133 128 135 139 150 159 171 163 145 151 151 153 173 185 189 191 191 190 192 193 192 191 184 179 175 172 175 165 164 177 178 175 180 175 168 172 170 166 164 169 171 168 162 140 113 122 125 125 115  95  93  77  70  89 139 118  68  66  46  76  62  99  86  32  41  41  54 106  98 130
 144 139  91  19  21  25  12   8  12  19   3  22  30  28  42  28  43  48  82  88 145 153 138 117 123 120 139 159 169 170 154 150 144 149 169 177 182 186 189 189 186 184 183 183 181 174 170 167 166 167 171 177 177 176 177 174 175 174 173 170 165 165 169 162 144 130 123 122 130 117 106 101  83  68  80  56  37  47  34  40  37  55  49 109  54  10  47  77  14  32  33  23
 144 127  78  48  20  13   4   9  16  17  12  14  32  49  21  74  62  89 113 106 142 153 153 127 119 128 136 143 154 165 167 153 148 148 156 179 182 183 184 181 185 184 178 170 174 175 172 169 165 171 175 172 174 176 173 169 171 171 170 171 167 161 158 148 139 126 119 121 124 111  95  78  75  77  91  55   8  24  42  39  39  46  50  73  38   9  60 108  55  23  48  54
 115 104 110  81  31  14  22  12  32  35   7   9  35  33  50  59  65  99 114 121 148 161 158 145 125 113 129 138 146 154 161 157 152 150 156 175 169 172 179 180 177 180 169 166 174 175 172 158 159 176 174 175 172 161 167 167 160 170 170 165 161 151 143 143 127 119 122 121 111  92  84  73  74  87  97  50  16  11  36  41  44  32  52  45  17  33  35  76  99  24  53  90
 123 115  90  78  51  19  27  34  28  36  21  14  12  50  85  58  99 101 121 131 152 166 165 157 138 126 121 131 139 148 147 138 138 140 156 161 161 168 172 181 173 173 173 178 168 169 175 163 161 172 179 181 168 166 166 169 161 162 173 170 149 143 139 134 120 106 107 109 100  84  70  77  94 100 101  43  19  12  12  31  48  22  55  28  26  94  83  19  72  41  53 118
 144 141 123 118  86  20  30  44  81  35  21  21  22  42  42  72  91  91 112 128 154 167 163 160 149 140 129 122 136 141 142 141 126 129 142 157 161 161 171 177 168 177 181 186 173 174 176 170 168 169 182 179 169 169 162 165 159 153 164 168 159 146 137 125 113  94  99 100  91  74  76  97 110 111 100  31  21  16   7  24  32  16  26  25  82 104 116  85  39  22  70 126
 146 144 144 141 110  33  17  37  55  89  27  36  28  18  12  28  40  40  45  65 149 170 166 161 152 144 139 132 126 126 130 134 134 117 138 165 156 152 170 174 169 173 178 177 173 176 176 168 157 162 187 181 162 161 157 164 161 155 162 156 158 139 131 110 100  94  84  94  96  86  94 108 110 117 103  26  13  19  12  14   7   2  26  62  95 119 125 116 103  64  84 130
 151 149 146 140 136  99  20  21  35  63  64  57  82  44  11   5   6   8   2 128 170 169 170 172 162 144 140 143 131 126 131 131 129 120 145 148 154 151 167 170 153 169 168 160 167 166 173 168 153 168 172 171 161 164 156 157 151 159 144 156 153 143 109 105  84  79  76  64  81  97  99 107 118 123  97  32  21  13  11   4   2  29  32  74 126 128 130 122 111  77 108 133
 151 149 147 147 141 137 106  35  18  33  47  19  54  49  20   5   5   8 148 213 151 172 175 171 164 155 149 144 141 138 130 126 123 126 126 137 150 158 159 169 150 162 156 165 158 157 167 165 161 158 162 163 157 158 149 155 150 159 142 151 140 131 106  89  79  71  69  72  93 100 103 120 134 123  92  22  20  13  11  12  24  24  68 129 131 130 131 132 119  96 129 134
 149 149 149 148 147 140 137 126  68  39  28  18   7  12  23  44  45 130 227 176 171 168 177 173 167 157 153 149 148 143 137 131 114 112 124 127 137 145 160 166 160 140 151 159 155 156 164 155 153 153 158 153 149 146 143 143 141 149 156 153 132 112  91  79  76  67  69  90 108 114 120 131 136 126  89  23  23  30  15  16  51  94 126 129 131 133 135 137 131 127 136 135
 150 150 150 149 149 146 143 137 132 115  97  85  71  27  62  89 131 236 184 186 157 169 175 176 170 156 147 150 158 149 141 134 119 106 110 119 127 124 145 149 154 146 147 141 144 154 151 149 152 152 149 143 144 137 140 138 151 132 140 124 119 104  83  74  76  80  92 107 120 124 129 137 139 129  98  17  41  79  47  27 115 122 129 134 137 138 140 137 135 139 139 138
 151 151 150 150 149 148 150 146 144 142 137 134 130 118  78  78 225 200 197 160 146 173 173 176 172 169 153 149 153 157 150 139 130 116  99 102 118 120 135 132 133 142 146 129 139 142 140 144 138 141 135 136 143 129 132 136 131 120 136 105  98  77  68  74  87  96 110 121 119 127 131 136 139 126 143 106  13  66  60  26 123 131 135 134 138 138 139 138 139 141 140 138
 151 152 149 150 151 151 150 148 147 148 144 137 134 148 113 178 221 196 181 142 139 175 173 172 176 170 162 160 150 151 157 146 135 125 107  94  96 104 109 110 119 121 130 121 130 129 133 131 127 126 125 128 124 120 120 123 131 125 113  90  80  63  67  89 100 114 120 122 126 129 132 134 138 131 149 218  43  46  61  32 133 136 136 137 138 138 138 140 139 139 140 141
 151 150 149 150 151 151 150 148 150 146 143 148 142  86  74 236 193 197 175 121 156 172 174 175 173 175 170 159 152 149 154 156 143 129 119 104  89  88 100 118 110  98  96 100 100 109 103 104 108 109 109 104 107 111  99 119 118  93  93  70  76  78  88 103 115 124 127 130 130 133 138 139 136 133 158 241 131  10  19  85 132 133 136 139 139 137 138 139 142 139 140 143
 149 150 151 149 149 148 151 150 147 143 146 122  68  34 179 227 179 196 160 129 159 172 177 179 177 175 171 162 157 157 155 160 156 142 132 123 110 104 109  96  99  87  89  84  81  81  75  86  85  91  93  84  80  82  82  99  85  78  79  82  87  96 108 121 124 129 133 133 138 141 139 136 140 139 168 224 206  28  27 116 126 136 138 138 140 140 139 141 141 142 143 144
 150 149 148 148 147 146 145 143 141 132  92  49  43 102 243 199 176 192 138 149 142 175 176 175 179 182 173 167 159 159 156 163 166 155 150 140 125 123 111 103  91  90  86  77  77  76  79  71  72  88  73  70  70  75  70  66  76  82  80  92 104 110 121 127 131 134 139 136 137 140 141 139 145 147 152 221 244  88  11  54 126 130 136 138 140 143 141 141 143 141 144 144
