P2
# Generated by OpenCV 4.2.0
92 112
255
 246 245 245 245 245 245 245 245 245 245 245 245 245 245 245 245 245 245 245 244 245 246 244 244 247 247 247 247 247 242 239 240 235 244 251 252 247 228 217 195 182 198 244 243 189 163 180 147 137 115  98 134 153 148 182 196 212 217 222 239 247 212 173 213 229 239 244 242 234 234 243 248 245 245 245 245 246 245 245 246 245 245 245 246 245 245 245 245 245 245 245 246
 245 245 245 245 245 245 245 245 245 245 245 245 245 245 245 245 246 245 245 244 245 246 246 244 245 248 247 245 240 241 243 236 223 215 190 153 131 129 128 159 155 142 168 158 159 181 158 131 130 106 103 111 120 120 139 157 179 203 224 223 222 224 218 207 238 245 243 247 246 243 238 242 246 246 245 245 245 245 245 245 245 245 246 245 245 245 244 245 245 245 245 245
 245 245 245 245 245 245 245 245 245 245 245 245 245 245 245 245 245 245 245 245 244 245 245 243 239 240 238 235 240 243 216 190 142  95  67  61  63  92 104 112 167 138 144 144 146 137 127 113  88 112 125 122 143 151 174 191 194 176 184 201 225 234 246 227 205 241 247 245 245 247 246 243 243 246 245 245 245 245 245 245 245 246 245 245 246 245 245 245 246 246 246 245
 244 245 245 245 245 245 245 245 245 245 245 245 245 245 245 245 243 244 245 245 244 243 240 243 242 234 238 243 230 164 112 111  66  76  87  81  56  57  80 101 147 171 177 184 144 143 153 123  97 121 112 122 124 147 159 204 203 186 181 161 203 231 239 247 224 214 247 245 243 245 246 245 243 244 245 244 245 245 245 245 245 245 246 246 245 245 246 245 245 245 246 246
 244 245 245 245 245 245 245 245 245 245 245 245 245 245 245 245 245 243 242 244 245 244 237 236 236 242 231 180 100  65  75  72  50  68 101 114 115  94  83 146 184 165 176 187 137 154 177 134 117  98  95 104  90  90 100 151 119 145 168 147 167 195 210 225 242 227 229 248 246 244 245 245 244 246 245 245 245 245 245 245 245 245 245 245 244 245 245 244 245 245 245 246
 245 245 245 245 245 245 245 245 245 245 245 245 245 245 245 245 245 245 243 238 241 243 242 244 246 215 148  99  86  52  72  52  51  70  93 131 158 160 156 132 158 152 147 171 133 132 170 108  97  77  73  83  90  80  90  91  87 127 141 162 189 190 198 192 199 212 213 225 230 234 238 240 241 247 246 245 245 245 245 245 245 246 245 245 245 245 245 245 245 245 245 245
 245 245 245 245 245 245 245 245 245 245 245 245 245 245 245 245 244 244 245 242 240 244 245 238 179 118  73  45  52  60  41  44  45  56  98 116 124 127 154 180 154 145 123 128 118 110 158  89  76  74  64  93  78  63  72  93  94  98 109  89 102 154 185 172 173 180 205 216 232 238 239 236 233 240 245 245 245 245 246 245 246 245 245 245 245 245 245 245 245 245 245 245
 246 245 245 245 245 245 245 245 245 245 245 245 245 245 245 245 246 245 245 245 247 243 223 163  84  53  45  29  38  44  57  56  75  84 124 132 134 138 106 137 167 177 124 101 103  92 118  90  73  68  89  72  64  66  71  85 112 107  85  57  85 132 118 138 151 130 186 196 210 234 238 239 240 243 243 246 245 245 246 245 246 245 245 245 245 245 245 245 245 245 245 245
 245 245 245 245 245 245 245 245 245 245 245 245 246 245 245 245 246 246 245 243 231 211 139  73  44  31  34  36  38  43  58  89  89  97 119 110  92 123 130 100 109 156 163 116  90  79  98  88  85  74  86  68  59  63  77  81 113 140 111  72  75  83  80 135 137 145 170 182 181 207 223 227 237 240 243 246 247 246 244 245 245 245 246 245 246 246 245 245 245 245 245 245
 244 245 245 245 245 245 245 245 245 245 245 245 245 245 245 244 246 246 242 227 219 138  59  43  35  33  31  32  37  49  56  80  88  67  65  77  88  78 109 115  95 128 164 131  89  94  92  78  89  81  71  69  59  62  63  70  85 105 149 123  57  66  76  63  78  88 159 159 174 170 205 226 235 235 236 246 247 245 245 247 246 245 245 244 245 245 245 245 245 245 245 245
 245 244 244 244 245 245 245 245 245 245 245 245 245 245 245 244 246 243 227 223 150  70  41  29  29  29  31  35  40  48  60  67  81  80  60  62  82  68  83 101 109 113 127 104  99  93  85  80  82  65  68  68  67  66  67  67  74  94  96 164 120  55  85  75  58  46  88 142 163 172 169 195 216 227 242 243 244 245 244 245 246 245 246 246 245 245 246 245 245 245 245 245
 244 244 244 244 245 244 245 245 245 245 245 245 245 246 245 243 245 233 237 173  77  44  31  30  31  30  30  33  43  53  61  62  56  61  67  74  65  63  83  95 112 102 101 103 101  91  89  80  76  73  70  70  69  71  71  79  91  92  84  94 143  99  51  53  55  66  53  82 141 173 174 175 200 211 227 240 244 245 246 247 245 246 245 245 245 245 245 245 245 245 245 245
 245 244 244 244 245 245 244 245 245 244 245 245 245 245 245 243 239 254 204  85  65  34  30  29  31  30  30  41  60  65  53  51  48  55  53  69  74  64  73  86  98  97 104 105 106 102 107  90  84  81  76  79  85  85  87  91  94 111 128 114 106 132  97  51  45  64  68  67  86 169 182 170 191 201 204 219 233 241 243 245 245 245 245 246 246 245 245 245 245 245 245 245
 244 244 244 244 244 244 245 245 245 245 245 245 245 245 246 239 244 241 105  47  61  39  26  30  33  32  40  57  59  56  46  43  51  55  59  61  71  75  76  84  97 103 106 114 114 114 108  93  92  91  89  93 102 111 128 137 132 124 123 129 136 145 134  88  40  55  60  61  49 116 193 187 193 198 187 214 225 230 238 246 247 246 245 245 245 245 245 245 245 245 245 245
 244 244 244 244 244 245 245 245 245 245 245 245 245 245 246 239 247 154  55  40  46  41  28  34  31  34  53  57  55  51  52  58  63  65  69  73  74  80  81  87  96 104 111 118 124 118  99  95 105 112 110 110 114 123 133 137 138 143 136 119 130 142 125 129  80  51  63  71  58  65 174 193 204 196 184 200 224 225 228 232 243 244 243 245 245 245 245 245 245 245 245 245
 244 244 244 244 244 245 246 245 245 245 245 245 245 244 244 254 194  74  48  37  40  38  32  29  31  48  54  50  52  60  63  68  74  80  82  85  86  87  89  91  98 105 113 119 119 114 109 113 118 128 125 120 133 139 151 165 164 164 172 173 163 141 141 116 126  69  54  72  74  77  99 170 188 187 202 195 207 229 237 229 235 247 246 244 244 244 245 245 245 245 245 245
 244 243 244 244 243 243 243 245 245 245 245 245 245 243 250 232 100  60  39  34  32  35  33  30  45  52  49  54  63  73  75  77  85  92  93  91  96  97  98 101 104 109 116 121 121 117 118 131 137 145 152 151 165 177 184 200 216 219 224 220 211 201 192 145 148 140  90  67  51  82  69 122 159 174 175 203 202 217 236 243 234 240 244 245 245 245 245 245 244 245 245 245
 244 244 245 242 242 243 244 243 244 244 245 244 243 245 251 131  68  55  38  32  30  32  34  41  48  47  52  65  77  86  90  92  95  94 101 102 105 106 108 108 110 116 118 121 121 124 130 150 157 173 165 162 159 170 189 210 221 230 231 229 232 230 227 193 156 145 134  82  59  62  60  80 130 174 164 195 197 179 215 241 240 237 246 246 245 245 245 245 245 245 244 245
 245 244 244 244 244 245 245 245 245 245 244 243 242 255 176  60  67  45  38  29  30  32  38  44  46  57  69  80  87  91  95  99 102 104 108 104 104 113 114 116 118 122 121 124 125 133 141 151 162 179 155 164 180 192 197 201 213 223 233 236 243 245 249 247 206 176 153 130  86  79  64  59 104 174 182 172 209 198 185 222 238 243 245 246 245 245 244 245 244 244 244 245
 244 244 244 244 245 244 245 245 245 245 243 242 254 221  75  60  56  41  38  26  30  39  40  46  60  72  78  86  90  94  98 106 108 112 111 105 106 114 118 121 122 125 129 132 134 139 149 159 170 163 157 173 186 194 206 205 213 222 231 241 250 250 253 253 249 223 195 166 145  95  77  55  85 150 185 176 187 209 219 198 218 233 244 246 244 242 243 243 243 245 244 245
 244 244 244 244 244 244 244 243 244 245 245 247 245 112  49  55  47  36  37  23  35  41  45  57  72  82  85  93 102 102 108 115 115 117 116 114 118 114 117 121 126 129 134 135 140 151 163 163 162 153 164 191 195 198 212 217 222 225 226 232 248 254 254 254 255 241 223 193 185 154  98  75  82 137 172 166 183 183 211 226 204 222 229 238 239 238 241 242 243 245 245 245
 244 244 244 244 244 243 245 245 244 244 245 254 184  62  49  49  43  40  38  28  39  46  55  69  81  89  97 104 109 112 119 117 114 118 122 116 113 117 119 124 125 130 134 138 147 159 166 164 157 160 164 194 200 195 199 219 223 233 242 241 241 250 254 255 255 255 239 230 193 198 143  96  76 114 150 157 136 174 189 221 216 221 234 236 242 244 243 243 243 245 244 245
 244 244 243 244 243 244 245 245 245 245 250 228  93  41  51  47  36  41  38  30  45  55  66  79  87  99 107 112 111 110 117 113 114 120 121 119 116 121 126 125 128 130 135 140 155 161 162 153 154 157 180 186 195 197 190 213 222 230 242 253 254 253 252 252 254 255 254 238 224 202 196 125  69  87 120 160 123 147 196 196 213 201 230 237 242 243 241 243 243 245 245 245
 244 244 244 244 244 244 245 245 245 252 231 118  40  43  58  45  31  40  39  37  54  62  76  89  97 103 109 112 110 114 120 117 119 120 123 124 123 124 125 125 129 128 132 140 156 156 150 155 158 163 184 187 195 202 196 210 217 217 222 240 248 255 255 254 254 254 255 250 225 193 199 179  84  73 110 146 143 128 158 182 217 206 201 230 240 241 243 244 244 246 245 243
 244 244 244 243 244 244 245 245 250 246 144  43  43  51  63  42  30  40  37  48  62  71  86  98 104 109 109 114 115 116 118 122 121 125 124 124 121 120 123 125 131 132 134 135 145 147 150 155 140 152 167 171 183 180 179 198 205 201 221 226 229 240 247 255 255 253 255 255 245 198 193 210 132  66 119 161 121 145 125 130 176 216 207 220 239 242 240 239 244 245 243 241
 244 244 244 243 245 245 242 247 246 155  67  58  54  57  54  39  33  37  38  52  67  83  93 104 114 118 119 117 117 118 120 122 123 125 124 123 124 123 126 122 126 131 132 132 135 137 141 142 132 140 147 140 160 172 163 168 182 206 222 228 231 242 235 234 248 255 254 255 254 226 189 211 181  82 114 182 137 126 151 116 121 188 207 211 230 248 238 238 245 247 243 234
 244 245 243 243 244 244 248 252 178  77  58  60  51  58  51  42  38  34  39  55  75  91 101 113 118 122 117 115 118 121 122 126 125 125 127 126 127 128 130 129 129 129 131 134 138 138 135 133 128 131 134 126 142 155 155 176 180 195 214 232 235 228 239 239 237 250 253 251 248 245 193 190 193 110 102 174 188 131 131 151 140 149 165 198 224 235 233 235 243 241 224 211
 245 245 244 244 244 243 239 202  99  65  53  46  55  56  51  44  36  29  40  66  88 104 111 117 118 121 120 119 123 122 123 127 124 126 126 129 129 128 130 132 129 128 130 132 133 133 129 129 128 130 134 130 139 155 162 176 183 177 180 200 226 226 226 241 234 231 244 247 246 242 205 179 188 147  97 155 207 176 128 124 134 141 146 164 186 211 225 223 219 198 195 216
 245 245 244 243 244 222 219 184 110  77  62  53  58  53  73  45  35  28  42  79 103 112 114 124 124 125 127 126 126 127 130 131 129 126 126 125 126 128 128 130 129 128 130 132 130 132 129 126 127 126 131 131 139 147 154 174 196 193 196 209 224 220 215 217 229 218 236 245 243 238 221 191 171 165 112 141 191 200 151 139 140 155 156 172 166 186 184 193 200 212 224 221
 245 245 243 242 239 223 223 232 167  66  57  56  52  76  72  36  32  30  52  92 110 122 128 129 137 134 135 133 128 126 124 126 124 124 127 126 124 129 129 129 130 129 133 134 132 133 132 131 126 124 128 134 137 142 144 149 167 182 181 196 221 228 219 218 223 216 231 243 236 234 234 213 192 169 148 129 164 186 176 152 166 181 144 188 202 205 217 223 231 220 209 222
 245 244 244 245 237 230 214 217 161  60  58  52  70  83  53  43  28  37  67 106 119 126 131 132 133 140 132 134 132 128 128 125 125 128 129 128 126 131 130 130 130 131 134 134 134 133 132 132 129 130 130 133 136 139 135 138 150 170 172 178 197 215 216 218 222 220 225 241 234 232 236 220 200 189 161 143 141 147 158 155 137 143 145 171 214 209 202 198 195 201 224 229
 243 241 242 243 234 223 220 211 118  65  55  59  71  59  59  42  30  44  85 120 126 130 132 135 131 142 136 132 130 134 133 132 133 130 132 133 132 129 130 132 133 131 131 134 133 131 127 130 132 133 129 129 136 138 137 139 143 154 170 178 180 196 209 219 218 204 214 229 227 232 233 231 207 207 182 156 148 127 105 118 134 116 107 111 162 175 181 201 218 218 211 216
 239 239 238 239 235 220 232 209  99  61  52  51  53  77  61  28  39  58 104 130 135 145 143 133 136 136 135 133 134 132 134 135 135 132 133 137 135 133 130 128 130 130 132 133 134 131 129 129 129 130 129 125 132 133 134 135 138 137 152 161 170 176 189 217 220 197 194 224 222 230 235 234 216 209 190 169 151 130 103 103  97 112 133 132 135 182 186 208 204 210 224 228
 236 235 234 236 233 228 231 176  76  64  62  66  91  85  34  32  47  75 125 143 141 140 143 140 143 138 137 134 134 134 136 135 135 133 134 135 134 130 129 126 122 126 130 128 128 127 124 125 126 124 127 128 132 138 136 133 136 142 169 184 186 183 179 213 233 209 201 226 226 228 233 233 224 216 210 170 144 138 116 115 116  92 105 110 120 163 178 208 216 219 223 212
 230 230 229 229 227 226 228 148  70  63  75  82  89  51  34  41  58 103 142 147 139 138 142 143 147 148 141 133 135 137 134 129 132 130 131 127 124 126 125 123 123 128 130 129 127 126 128 126 129 125 128 128 130 137 138 133 137 151 183 195 196 200 204 201 222 214 202 225 235 229 234 232 224 214 218 181 142 145 133  82  76  97  92  92 104 124 143 172 180 184 183 172
 222 222 222 221 221 217 200 105  67  72  78  85  64  33  32  50  89 125 149 149 141 144 145 143 147 149 146 137 130 130 128 124 122 121 125 126 127 129 126 126 125 129 131 130 130 129 125 127 129 128 132 129 130 130 133 132 137 150 179 198 192 199 211 219 207 214 208 223 228 229 232 229 221 221 207 183 138 134 120  97  86 107 122 129 125 129 169 190 194 198 193 198
 214 213 212 211 211 204 180  79  61  63  64  58  38  33  55  90 112 140 150 154 147 145 147 144 140 142 139 138 131 127 121 118 119 124 124 126 127 128 125 127 131 132 127 123 130 129 122 126 127 129 133 134 153 170 181 184 171 185 202 217 216 211 218 220 210 226 217 224 229 229 230 229 222 217 213 185 155 130 106 129 119 119 102 116 130 136 177 209 208 200 200 207
 206 206 206 205 202 205 143  61  65  54  42  30  26  61  97 112 133 146 150 152 149 144 146 144 133 135 136 137 137 130 121 123 126 129 127 126 127 125 128 131 131 131 129 124 128 125 120 124 127 128 130 144 181 205 213 216 195 195 194 203 221 216 219 221 211 214 216 211 225 227 230 231 229 213 207 189 156 133 110 154 155 140 118  93  98 113 184 205 201 200 205 205
 206 205 203 204 203 188  87  66  61  55  37  33  59  93 111 128 138 148 154 152 145 147 146 145 136 134 137 132 134 130 127 131 131 129 130 132 130 126 127 130 122 127 124 120 120 120 121 122 128 127 134 156 172 189 200 193 180 183 186 190 206 220 220 218 220 216 208 207 235 240 234 235 234 230 214 191 160 128 120 173 190 165 145 138 126 102 144 192 204 204 204 204
 187 197 205 209 207 155  64  65  57  40  42  62  84 100 123 138 146 153 154 155 149 147 145 147 142 140 138 137 138 137 132 130 129 128 130 132 130 124 123 128 120 124 127 120 121 123 123 126 129 131 141 161 168 186 206 187 185 166 170 181 204 215 220 214 230 233 228 210 222 219 231 234 223 217 225 203 172 121 103 148 174 145 125 135 145 145 178 203 200 202 203 203
 182 177 174 164 161 104  51  49  46  49  60  65  86 111 133 148 150 156 157 155 151 149 144 144 146 147 142 143 141 138 137 132 132 134 130 130 130 128 123 132 126 124 132 120 116 123 124 127 131 130 138 146 143 164 185 166 179 174 178 201 221 220 231 223 229 233 235 222 214 222 234 228 217 200 194 198 183 131  88 106 120 109 113 108 116 126 186 203 204 203 205 204
 204 201 192 182 164  82  52  57  60  54  63  74  95 124 137 148 153 155 153 157 149 146 146 140 145 145 143 141 142 139 138 136 138 139 131 131 132 132 126 133 130 123 134 108 115 126 126 124 130 134 138 139 144 166 174 162 174 167 167 189 214 223 224 237 240 230 234 237 233 229 224 222 223 205 169 167 177 153 103  98  82 104 128 119 120 106 155 193 203 208 208 201
 201 201 201 192 150  79  52  64  59  64  73  79 106 138 146 155 154 154 155 159 152 147 146 142 140 144 143 146 143 139 139 137 137 141 134 133 136 132 130 138 131 127 136 107 114 129 129 128 133 135 136 139 142 158 160 155 165 165 162 178 206 226 218 225 251 239 237 241 240 229 218 226 227 203 175 179 177 162 128 166 120  93 107 122 154 161 158 152 161 177 184 188
 201 200 194 180 155  74  55  69  63  57  55  68 110 139 152 159 160 159 161 159 153 149 147 137 138 139 141 143 146 141 139 137 134 138 137 133 135 132 132 140 128 136 141 108 119 135 136 132 135 131 133 139 137 150 176 180 172 173 171 176 191 211 210 211 220 242 242 237 235 230 222 225 220 201 181 191 184 172 137 128  90  67  67  97 124 165 201 182 180 173 168 179
 202 200 195 178 151  81  56  69  52  49  56  72 100 137 146 155 164 164 163 161 151 145 141 137 137 132 135 139 140 137 134 133 133 135 134 133 135 130 133 139 134 137 141 110 124 140 140 134 135 134 134 142 151 151 158 169 152 147 142 144 155 169 177 207 203 216 245 242 240 233 228 226 218 206 192 190 186 180 146 143 123  78  70  76  93 159 171 193 203 200 195 198
 202 200 203 173 135  77  57  65  48  51  69  67  98 139 145 154 165 163 162 161 151 142 139 139 135 130 129 130 129 134 136 136 135 137 137 138 137 130 137 143 139 124 139 114 125 146 139 137 141 145 144 145 149 145 139 128 118 122 112 110 131 159 166 176 200 210 220 247 248 237 228 225 213 206 205 207 199 177 140  86  85  96  78  81 104 146 192 201 197 195 182 197
 203 201 201 193 110  62  65  66  47  62  75  67  99 138 152 158 159 162 161 154 146 141 137 136 136 132 123 121 127 138 139 134 137 139 137 139 138 135 140 144 131 112 141 125 122 150 141 139 141 148 143 134 118 105 108 113 109 105 108 111 118 122 136 152 163 187 206 216 236 237 238 225 208 211 214 211 201 168 144 109  56  68  78  67 103 146 210 202 203 202 204 206
 203 202 201 202 121  65  52  61  47  67  81  67  97 141 153 159 160 165 159 148 146 140 130 129 130 131 121 125 128 125 118 119 127 123 125 134 138 141 145 146 119 122 146 123 118 148 146 144 141 139 131 109  93  88  89  88  87  92  98 110 116 116 115 126 144 162 185 192 218 237 236 223 205 213 223 211 198 167 142 118  83  69  77  71 102 144 208 205 206 204 205 205
 202 202 203 202 102  46  41  58  48  58  83  69  90 144 156 161 162 166 161 150 147 139 131 124 129 119 117 121 111 102  94 102 107 122 125 136 142 145 148 139 106 137 143 125 106 116 138 149 144 139 123 105  96  90  86  89  95 105 108 108 109 116 124 126 131 143 158 181 201 235 225 215 212 219 232 225 205 165 136 105  86  86  58  77  97 137 208 206 206 207 205 207
 202 202 205 195  69  38  36  45  43  45  81  74  91 147 159 161 162 167 166 161 149 146 138 127 124 115 117 124 115 105 103 107 108 118 125 134 145 151 146 123 123 146 143 138 132 130 129 142 144 122 100  92  91  98 104 111 119 128 126 129 128 138 133 136 136 138 145 166 186 226 234 224 219 224 232 227 214 183 147 142 122  80  59  76  80 128 207 208 208 209 209 208
 202 201 211 162  45  38  41  37  33  43  80  80  91 145 161 163 164 169 165 156 154 144 137 126 115 118 130 133 114 111 110 108 111 114 114 115 128 142 145 141 149 148 146 143 142 144 143 137 120  94  85  90 100  89  79  83  96 118 135 144 141 154 162 150 143 140 147 153 168 212 235 222 226 225 227 226 214 200 161 153 148 129 139 196 206 149 200 212 211 210 210 209
 199 198 211 112  41  46  47  34  28  43  80  93 100 146 161 162 170 171 168 161 155 151 147 143 140 134 135 130 131 132 118 106  93  99 112 102  98 112 132 146 144 136 136 137 140 143 140 120  92  73  73  83  75  72  73  65  66  77  84 103 135 163 172 163 162 151 140 145 159 183 222 217 214 225 225 229 217 202 162 164 140 157 198 218 241 205 193 215 212 213 215 211
 201 203 184  69  53  52  42  33  30  38  70  99 109 148 164 164 170 176 177 166 155 152 156 152 154 150 151 150 127  92  73  72  65  67  79  94  87  86 104 134 144 138 133 130 134 142 129 109  80  60  61  75  81  80  93  72  71  73  67  59  59  97 152 174 164 161 155 147 144 168 209 232 223 228 226 227 223 204 167 146 133 183 207 196 198 213 210 216 214 214 214 213
 200 208 139  62  53  39  34  33  33  27  51  96 114 151 162 163 167 175 174 164 155 154 157 162 164 161 125  79  56  58  79  74  75  88  77  89  76  65  86 123 142 140 132 128 133 143 123 107  76  63  78  73  58  63  88  67  68  67  55  55  47  53  74 126 162 163 161 150 160 191 223 232 230 233 233 227 224 216 170 141 143 194 189 153 151 204 219 216 216 217 215 216
 207 198  91  60  49  38  31  35  42  36  43  90 118 154 162 165 171 174 168 165 167 158 165 168 145  89  63  69  83  69  74  65  66  80  57  66  82  71  85 114 139 134 125 128 134 140 129 108  84  97  91  75  74  81  84  86  87  87  83  84  92 104 115  86  93 136 157 160 163 164 190 216 234 234 237 226 229 222 173 131 167 201 181 156 120 169 207 217 218 217 218 218
 216 150  73  71  42  36  64  69  44  38  50  94 118 158 165 170 177 169 149 146 164 170 159 121  67  45  73  82  75  79  69  67  77  78  69  74 104 107  88 115 138 133 123 127 134 144 133 110  93  89  95  90  78  79  91 105 116 120 124 131 137 143 143 118 112 102 119 128 135 157 191 219 238 238 234 222 233 217 180 158 185 189 155 162 134 149 202 215 215 218 218 218
 212 109  84  64  37  61 115 104  76  41  62  98 121 158 164 164 172 170 164 163 161 147  98  77 103 122 110  97  95  99 100 103  95  84  84  97 111 101  95 124 135 130 127 125 134 144 140 117 100  86  80  83  84  87  95 107 120 129 139 144 143 144 139 147 148 134 139 143 152 169 186 218 228 230 227 223 232 224 180 172 198 154 138 162 148 152 199 218 212 214 218 218
 147  83  82  55  65  99  82  70 101  74  77 100 124 161 165 168 170 163 155 152 134 116 126 131 140 149 148 138 133 130 127 113  97  84  82  88  98  96 108 131 132 128 123 120 131 145 147 127 106 109 103  99  97  99 103 105 106 114 115 122 126 127 129 128 132 141 145 156 177 189 213 230 235 233 226 228 231 223 200 186 191 143 143 180 140 156 202 218 216 212 213 215
  92 113 109  78  82 116  89  59  89  91  87 110 130 160 165 171 172 162 146 137 134 137 150 148 143 143 142 141 138 138 127 112 104  97  97 103 107 104 116 134 135 131 124 121 129 144 148 149 126 124 128 120 108 102 108 110 114 120 122 127 131 134 145 146 154 153 159 194 200 198 218 227 229 228 221 232 233 227 210 190 177 170 198 202 140 169 206 216 217 216 213 211
 148 130 142 118 102 125  82  63  75  75  85 114 133 161 164 166 161 156 155 150 136 139 143 143 142 144 142 136 129 125 120 118 117 113 114 118 120 118 125 132 137 133 122 122 128 140 148 160 139 129 135 125 128 117 110 116 116 124 125 129 137 143 146 147 152 187 217 201 206 226 220 225 231 224 220 233 235 231 208 174 158 176 196 207 155 182 204 217 217 217 218 217
 208 119 139 134 100 139  92  57  69  82  76 116 142 165 166 169 169 159 150 147 140 141 152 151 144 135 130 125 126 124 124 123 119 118 125 126 128 128 132 129 135 135 123 122 134 141 148 163 155 136 138 123 130 134 118 116 118 120 127 131 130 132 134 134 140 161 197 215 215 215 234 232 224 219 230 230 234 239 216 145 139 159 163 193 166 199 207 217 217 216 217 218
 231 165 133 137 108 130  92  70  83  92 101 129 146 167 170 170 163 154 148 147 145 142 135 135 140 142 141 135 132 129 128 126 121 122 129 126 131 133 128 133 140 135 129 127 136 143 149 159 163 148 138 120 122 133 129 121 121 121 123 129 130 132 133 138 155 159 160 184 227 220 213 232 222 220 229 228 233 240 218 130 131 160 150 179 182 206 211 220 216 217 217 217
 163 201 151 176 103 103 146  74  79 124 134 114 134 169 172 170 163 154 151 150 143 136 135 140 144 140 140 133 131 134 131 125 123 128 126 125 131 136 126 126 126 122 122 123 131 144 149 158 165 156 140 125 113 121 130 128 126 122 122 126 128 133 132 140 155 166 172 179 198 229 226 219 219 227 229 226 233 228 227 123 122 146 138 167 197 206 210 222 219 216 217 217
 178 170 154 161 109 111 167 106  89 143 117  96 110 166 175 174 166 157 151 146 144 143 145 136 131 132 136 136 131 126 123 121 127 129 122 131 134 130 131 116 112 116 113 120 130 144 150 157 162 160 144 128 111 115 129 132 132 128 128 127 132 131 136 144 152 166 180 189 197 206 228 212 220 232 231 230 236 211 224 162 114 135 135 156 201 203 216 218 219 217 217 216
 220 210 181 143 109 122 170 150  98 140 122 102 106 163 175 175 169 161 151 147 151 150 138 133 135 134 134 130 122 116 119 122 126 126 122 130 131 130 135 123 119 119 118 127 130 146 153 159 164 164 149 132 112 110 121 129 132 134 133 131 136 141 143 145 151 172 180 186 200 204 205 217 225 233 230 227 228 200 211 172 108 121 127 153 205 213 217 217 218 218 217 218
 212 215 224 181 139 135 141 172 109 128 114  98 113 160 175 177 172 163 154 152 153 143 138 138 130 127 129 123 118 119 119 124 124 120 124 128 132 137 144 142 127 119 119 124 132 145 161 169 170 168 151 132 114 106 111 124 134 136 131 135 140 146 150 149 157 167 177 184 193 199 193 214 229 230 230 229 223 191 201 169 105 106 116 153 205 218 217 217 216 217 217 217
 215 215 218 198 173 189 140 150 128 124 101  84 126 151 173 178 173 165 159 154 147 145 140 141 133 127 122 118 120 120 120 121 124 122 122 127 131 145 149 136 121 115 121 126 133 142 164 169 167 165 149 125 112 107 110 123 133 138 138 134 137 144 153 163 170 163 174 186 197 196 200 214 224 233 228 231 226 183 203 190 142  99 123 173 209 219 215 216 216 216 216 216
 215 216 218 199 174 222 181 148 144 121  85  68 115 144 172 178 174 170 159 154 150 150 144 148 140 126 119 121 122 120 123 117 120 122 122 125 125 140 140 125 120 119 118 123 136 147 165 174 164 156 149 125 105 105 106 118 130 138 140 137 133 141 152 167 170 170 171 190 199 196 205 210 227 234 225 228 215 180 219 219 219 193 195 216 209 217 214 215 215 215 215 215
 215 216 217 206 171 214 215 143 105 122  79  62  84 141 169 178 174 172 165 160 155 145 137 136 131 130 130 129 130 125 126 122 118 116 121 126 116 117 134 130 125 124 118 120 134 146 166 176 161 151 156 144 105 104 103 111 123 133 139 140 136 139 152 162 163 172 166 177 200 200 198 210 229 237 225 228 209 176 224 255 236 248 208 190 210 215 214 215 215 214 214 215
 214 216 215 214 172 213 213  98  69 125  87  81  88 126 167 179 175 172 167 157 148 141 134 136 134 137 138 131 131 132 125 120 114 118 120 121 120 120 138 134 121 116 120 124 131 142 165 180 171 163 164 159 110 100 103 112 119 129 137 142 143 145 151 158 162 166 167 181 197 192 195 210 226 236 230 223 206 171 180 212 209 213 193 190 198 213 215 214 211 209 213 213
 214 214 214 218 172 209 172  98 150 107 131 137 112 116 160 178 177 173 168 155 147 142 142 140 139 140 140 137 132 129 122 116 112 111 113 127 126 132 150 137 117 119 123 129 131 142 160 181 179 170 169 166 120 104 106 106 114 127 135 141 145 153 158 159 165 171 172 189 195 178 188 208 232 238 229 221 199 158 145 163 178 223 227 180 193 218 213 201 202 211 214 212
 212 212 211 217 178 188 185 103 144  88 114 166 157 130 144 175 178 171 164 158 147 144 149 149 145 141 143 139 135 124 119 110 108 110 117 140 139 149 156 145 133 132 131 129 135 139 157 173 172 162 163 159 123 108 109 106 109 122 134 137 142 149 165 168 173 177 197 207 195 174 187 209 231 236 223 215 198 171 172 178 187 236 185 153 216 200 189 191 202 204 205 210
 211 209 209 209 198 164 181  65 137 144 105 160 166 132 142 173 176 170 162 161 156 153 152 151 147 143 141 138 131 123 112 106 109 113 115 158 165 167 172 164 146 142 136 136 137 139 150 157 160 147 140 132 114 110 113 112 110 112 126 135 143 149 161 170 181 198 205 215 199 188 188 209 226 237 226 208 193 175 213 227 219 212 113 187 186 165 171 191 209 212 214 214
 209 209 208 208 216 133  88 108 132 157 140 157 148 134 142 167 174 169 159 164 160 153 152 152 150 142 140 141 135 125 117 111 114 115 108 132 148 145 154 157 150 144 133 136 137 138 147 147 117  84  86 101 110 111 113 119 117 106 114 133 142 147 160 177 194 209 210 215 208 192 199 213 225 234 227 203 190 164 174 198 200 103  93 148 142 164 196 213 215 212 211 215
 209 208 205 209 170 102 109 170  77 164 168 156 147 133 139 164 173 164 160 157 153 156 156 152 148 143 141 140 132 121 114 112 113 112 110 105  97  85  96 118 138 139 132 132 133 132 127  98  81  80  89 107 112 110 115 114 120 115 100 114 134 141 155 178 210 211 215 211 223 200 195 214 226 232 229 210 180 137 134 116  72  76 105 100 160 211 216 216 210 206 213 217
 209 208 205 200 123 139 175 114 116 161 138 165 163 152 132 162 173 165 162 156 158 160 158 158 151 149 143 137 125 115 115 115 116 110 105  97  95  77  64  60  72  90 103 108 112  97  70  70  79  85  92  98  89  91 105 105 111 116 110 100 113 137 149 174 205 215 219 200 204 219 195 218 224 235 231 207 187 109  71  36  59 117 126 176 198 200 201 187 197 212 216 215
 210 206 206 188 119 192 164 135 137 116 108 155 160 154 129 160 172 168 162 164 162 150 160 157 150 150 142 127 113 118 119 107 103 105  99  89  75  57  51  53  56  60  81  86  83  71  56  59  75  75  77  79  72  74  80  89  91  96 121 121 102 118 142 165 197 212 212 200 181 221 209 213 222 231 231 199 170 129 121  85  95 132 187 197 167 149 177 199 216 215 215 216
 212 208 204 186 121 183 155 195 165  88  84  87  80  74  98 163 173 167 164 165 154 151 165 156 151 143 124 111 113  99  91  82  88  95  92  73  67  63  56  55  51  64  83  87  86  69  48  50  60  52  58  71  68  72  72  60  75  83 100 127 126 102 126 151 179 211 212 197 171 200 218 210 222 232 231 200 157 122 164 143  76  69 133 183 197 176 212 221 217 217 216 216
 212 213 200 188 127 142 187 206 198 131 136 107  89  34  57 157 166 163 162 167 150 156 163 160 153 132 106 117  92  70  67  61  69  80  75  61  71  64  60  57  56  70  84  91  88  72  46  41  47  51  60  79  74  78  78  58  62  73  76 113 135 125 105 139 166 200 212 183 151 180 210 213 219 230 230 197 150 117 149 182 152  97  94 137 184 175 171 217 217 217 217 217
 213 215 208 189 105 107 190 202 206 139 148 146  64   8  51 139 170 160 161 164 142 155 167 161 141 110 117 102  66  59  53  52  59  72  69  71  70  68  67  74  78  77  84  85  90  92  67  46  43  58  69  82  86  83  72  58  66  66  74 100 115 146 110 125 161 194 201 175 145 165 204 212 220 229 226 199 134 107 116 140 189 175 126 157 210 210 166 218 217 216 217 217
 214 215 217 173  61 130 185 183 179 118 150 107  21 107 119 121 169 160 161 159 133 146 161 153 125 117 115  68  50  47  40  52  73  77  87  91  94  84  73  77  88  81  77  77  82  86  85  70  61  67  82  99 105  91  73  60  69  59  70  84 101 149 133 112 154 193 200 147 131 165 194 211 220 230 223 192 133 105 118 132 188 193 127 147 193 220 175 196 222 218 218 217
 175 206 205 130  82 165 195 181 173 143 106  24 138 192  53 103 161 160 163 158 130 138 156 148 124 131 101  52  47  40  49  69  89  90  99 104 105  95  84  91  95  89  90  86  81  98 109 104  95 108 122 125 115 104  89  76  69  77  74  80  95 137 153 115 153 188 193 144 132 166 186 212 223 226 217 186 150 102 113 123 185 207 152 104 180 203 201 171 216 219 217 217
 161 169 183 155  93 175 218 211 178  83  32 125 214  81  14  81 155 163 165 155 127 142 157 132 132 139  85  56  53  61  84  98 112 117 124 127 119 127 121 125 123 120 116 107  98 109 114 110 110 114 111 111 108  97  85  71  58  71  86  97  95 133 154 122 142 181 193 135 129 156 175 201 221 225 204 188 154 165  84  94 148 193 202 107 164 202 213 184 196 222 216 217
 214 181 135 123  60 142 155 105  53  52 144 204  90  16  18  60 144 160 159 153 123 138 152 133 146 142  94  66  68  86  69  63  75  91 105 106 103 103 103 105 100 100  95  91  90  88  91  91  93  95  91  90  84  66  46  50  61  52  75  95  89 122 154 129 141 167 177 121 114 142 169 194 216 224 203 197 140 170 141  62 116 137 197 159 154 196 207 205 184 210 218 216
 143 132 106  60  43  48  55  71 123 195 183  77  13  18  17  65 133 157 158 151 120 129 152 136 145 137  93  70  79  71  67  82  81  74  73  68  67  68  70  73  69  68  69  70  74  75  74  80  81  84  88  90  93  93  95 100  94  73  70  80  80 117 153 132 141 165 163 109 113 146 168 191 214 213 195 200  98  99 202 146  82 120 159 188 155 189 201 214 195 186 218 217
 179 128 110 102  61 106 124 158 161 116  55  14  26  32  28  97 132 142 155 147 123 117 146 137 145 138 104  85  85  83  85  94 106 120 122 117 116 108 108 109 108 106 101 101 104 111 112 120 126 130 137 136 137 135 127 115 103  82  64  68  85 129 150 141 140 162 149 110 118 139 166 202 209 198 204 205 142  45  82 176 167 111 114 180 185 191 201 215 212 185 200 218
 222 157 184 159 118 182 140 124 118 117  46  35  89  58  46 137 118 120 155 146 127 112 136 143 150 143 110  83  90  96 101 106 115 130 134 138 131 120 121 116 115 110 113 119 117 115 112 118 127 138 144 144 142 139 134 122 112 100  80  82 107 134 147 143 152 156 122 108 117 136 183 209 207 205 225 201 176 154  80  51 102 139  90  85 144 190 192 206 216 204 179 214
 199 163 181 110 170 220 210 210 191  86  87 102 119  58 150 120 100 104 136 140 122 110 124 144 145 144 110  98 106 116 119 121 127 138 140 141 131 128 125 114 106 100 106 108  98  94 108 106 113 118 135 138 140 141 139 133 124 112  99  97 111 137 142 147 144 137 125 109 118 148 197 206 203 209 229 194 155 174 207 161  96  93  93  57  56 120 179 205 216 216 179 203
 213 157 115 128 212 207 210 210 103  89 181 133  87  49 158 146 103  89 125 140 136 113 111 127 141 146 124 109 114 128 139 137 133 138 142 140 136 135 119 106  93  88  91  92  78  92  96  94 100 106 117 129 138 141 141 140 133 121 103  99 117 136 137 152 157 143 125 119 138 168 207 213 215 210 226 198 130 147 169 192 196 174 151 122  80  63 129 215 218 218 187 194
 213 198 178 206 210 207 213 176  67 176 164 156 111  49 153 159 139 112 127 143 126 117 105 131 148 149 120 114 114 126 142 142 140 142 140 138 133 120 108 107  82  67  80  78  70  82  92  88  99 101 105 132 138 142 141 143 136 124 113 122 128 130 125 134 161 142 117 127 168 197 200 205 196 210 227 201 157 157 175 148 161 155 159 121  74 120 172 202 208 215 191 193
 208 210 214 210 208 207 218 137  95 192 160 168 111  51 184 180 167 125 113 133 130 128 108 135 149 149 125 122 120 124 138 146 148 146 143 132 128 107 116 110  69  63  76  79  62  69  75  87 105  92 106 134 139 141 140 137 134 125 126 134 139 132 124 132 137 123 124 137 182 203 204 190 190 204 224 189 147 146 156 135 144 136 110  97  99 170 181 172 124 203 187 199
 208 208 209 207 208 208 217 129 101 192 151 181 113  29 154 195 139 163 114 111 137 136 120 123 142 147 141 127 125 124 130 145 150 147 142 134 126 107 117 102  62  63  69  80  71  74  71 104 108 107 119 139 141 141 141 136 132 130 133 144 140 124 132 135 114 120 136 163 192 198 198 191 187 213 227 164 131 132 163 141 115 122 127 143 122 152 111  79 124 211 171 215
 209 210 209 209 209 209 214 146  75 180 149 188 131  30 119 173 184 196 136  99 148 138 130 127 138 143 151 134 126 125 128 141 150 147 141 138 129 124 124  99  64  70  88  89  76  82  81 105 125 128 133 140 140 140 135 131 130 136 140 145 138 122 135 131 109 123 162 194 199 189 178 168 188 222 229 152 125 169 115 154 156 122 125 104  56  56  93 155 215 170 188 219
 211 211 210 211 211 210 208 195  74 131 146 191 159  47  65 188 206 204 152  87 124 142 139 129 130 137 148 139 129 129 129 137 145 146 140 135 134 130 129 105  75  86  99  89  83  81 100 110 126 134 132 132 137 138 132 129 133 135 143 142 134 133 129 125 119 138 182 207 198 185 167 173 200 223 226 154 119 130 148 168 160 186 191 159 130 183 220 208 166 184 219 214
 213 212 212 211 211 212 208 212 167  78 122 181 189  56  52 134 212 198 165  84  84 140 155 125 122 125 131 131 129 134 133 132 143 145 140 130 129 129 124 102  88  86  87  81  90  98  93 119 128 134 130 131 136 138 130 126 133 137 139 145 133 129 129 129 137 160 177 198 195 145 150 182 210 225 219 137 133 146 110 143 203 139 207 207 171 191 167 168 199 219 214 215
 212 212 212 212 211 210 211 201 213 181 111 122 173  87  52  73 173 174 129  72  81  99 136 135 124 123 120 126 131 130 133 128 137 140 134 132 128 121 106  92  89  77  75  85  94 103 103 119 129 130 133 134 139 134 133 130 130 129 140 151 138 132 127 137 158 191 184 164 148 133 163 189 211 220 218 143 137 154 148  90 141 185 140 214 156 148 179 217 218 215 214 215
 213 213 213 212 212 212 210 205 203 218 180 138 162 137  43  57  70 150  62  39  74  91 124 153 149 130 124 131 123 126 133 132 134 135 132 127 121 113 102  90  75  76  68  79  94 101 111 121 122 130 128 135 140 131 131 128 124 123 146 154 145 129 132 150 174 205 192 159 132 145 166 198 212 222 211 150 124 141 172 171 106 149 160 214 200 182 211 216 214 214 214 214
 214 212 213 212 213 211 210 209 202 205 208 169 194 210 134  36  32  33  41  42  59  79 113 144 152 133 105 100 118 119 123 126 130 132 128 117 106 103  97  88  73  79  68  74  91  98 110 121 121 125 129 135 135 126 124 126 119 126 140 133 134 134 144 174 184 168 153 130 128 161 179 197 210 219 208 131 118 130 164 153 162 144 208 216 218 220 215 213 213 215 215 214
 213 213 212 212 212 212 211 211 209 197 208 190 169 197 212 127  23  11  30  59  54  34  92 128 148 133  98 101 107 117 113 118 120 117 113 100  95  88  88  81  80  79  70  81  97  97 102 116 126 124 128 133 127 120 119 121 116 125 137 139 117 134 158 175 165 142 107 112 139 159 180 197 202 221 216 129  89 107 167 134 182 177 206 218 214 214 214 214 215 215 214 214
 213 212 212 211 211 211 210 208 207 209 205 207 181 172 196 172  68  91  55  76  60  49 106 142 122 143 115  91 103 104 100 109 105 104  95  85  93  89  78  67  79  75  70  77  90  95  96 100 117 124 123 121 114 112 111 117 112 116 118 103 122 144 167 161 145 131 124 138 150 169 184 188 205 225 220 132  79  68 147 133 191 195 209 217 215 215 216 215 215 215 215 214
 212 211 210 210 210 211 210 210 211 211 209 208 207 189 173 174  63 110 190 205 154  66 115 141 112 107 112  98  86  76 104 112 104  79  68  90  86  82  78  71  69  68  67  73  85  88  90  93 113 110 111 107 107 116 109 108 111 115 124 116 129 139 158 142 136 123 129 136 154 181 180 191 213 226 239 166  41  29 112 156 165 177 214 217 216 217 216 216 215 216 216 216
 211 211 211 211 210 210 211 211 211 211 209 211 209 213 202 196 154  50  91 186 212  85 109 158 146  83  75  88  74  72  99 105  89  55  57  81  86  72  75  72  59  58  59  65  72  76  76  88 120 113 102  98 111 105 109 117 120 110 101 122 140 134 106 109 115 128 124 134 158 174 169 191 217 225 239 159  42  69  93 109 130 192 222 217 217 216 217 217 217 216 217 217
 212 213 212 212 211 211 212 212 212 212 212 212 213 213 213 208 211 178  78  52 116  97  76 157 150 116  87  79  72  79 102  90  92  64  52  72  76  81  71  74  61  46  54  60  64  70  76  80 102 108  88  94 113  92 118 133 126 115  92 113 112 105 114 123 111 121 130 149 170 159 162 188 215 221 240 170  34  84  92 134 206 225 220 220 219 219 219 218 218 217 217 217
 215 215 213 214 213 213 214 213 213 213 214 213 214 213 213 212 210 215 214 160  92  67  49 131 159 150 131  98  71  92  95  97  93  78  61  67  72  96  79  68  65  42  48  65  64  63  76  83  91  93  97  87  91  98 126 135 118 104  93  91  90 105 122 113 114 124 131 156 162 165 178 191 207 218 240 217  49  77 156 215 226 220 221 221 221 221 220 220 220 218 218 218
 215 215 215 215 216 215 215 215 215 215 215 215 215 216 215 214 215 215 214 219 221 201 159 119 156 150 145 137  97  73  88 105  97  86  78  61  83 106  83  68  59  43  37  58  65  66  77  86  92  78  89  79  71  81 111 143 105  95  76  87 104 115 110 103 108 118 137 154 157 168 179 185 200 219 236 249 145 118 190 223 219 221 221 222 220 219 221 220 221 221 220 220
 216 216 217 216 217 217 217 217 216 216 216 216 215 216 216 215 215 216 213 215 215 219 228 208 164 143 145 136 121  78  81  93 103  94  84  68  69  97  84  65  62  49  33  46  66  74  80  74  77  76  68  81  78  82 107 110  93  80  69  95 104 100 117 113 104 125 132 130 143 155 171 184 200 217 234 247 231 160 217 220 220 220 221 222 221 221 220 221 222 222 221 221
 217 217 217 217 217 217 217 217 217 217 216 217 216 215 216 216 214 216 215 216 214 216 217 223 180 145 143 143 121 105  87  77  92  96  78  72  58  76  77  56  69  49  38  45  58  70  70  64  67  73  66  77  93  84  79  73  67  79  90  99  97  96 105 117 117 129 125 122 140 165 172 186 205 220 233 241 246 200 216 218 219 220 220 221 221 221 220 221 220 220 220 220
 217 217 217 217 217 217 217 217 217 217 216 217 217 216 216 216 216 216 214 217 215 218 217 222 189 149 142 143 126 126 117  89  81  83  76  61  67  62  66  50  65  61  45  42  57  57  57  59  61  77  83  90  87  80  84  94  93  94  99  91  98 104 103 103 122 121 116 123 149 174 179 187 206 220 229 236 247 241 229 220 217 215 217 219 219 220 219 219 219 218 218 218
 217 217 217 217 217 217 217 217 216 216 217 217 216 216 216 215 216 216 216 216 214 217 217 223 198 151 142 143 135 129 126 120 108  90  72  66  72  75  62  51  57  61  59  48  50  47  54  60  69  81  85  81  76  92 103 105 103  97  91  93  97  99  98 109 116 119 117 128 147 161 178 188 207 215 226 233 245 244 231 240 230 227 219 214 214 218 218 218 217 217 217 217
 217 217 217 217 217 217 217 216 215 216 215 215 215 215 215 214 215 215 216 216 215 217 217 219 201 153 144 138 138 127 127 130 130 112  79  92  81  75  67  53  48  52  53  47  47  40  45  64  68  81  87  96  97 108 114 108  98  95  95 102 100 102 104 111 111 116 120 130 140 161 179 187 203 213 223 232 241 246 208 223 242 240 243 236 227 214 215 218 217 217 217 217
 217 217 217 217 217 217 217 217 216 216 214 214 215 214 214 214 214 215 216 216 217 217 216 218 209 156 146 136 134 134 125 130 136 126 115 124 114  84  86  68  58  55  49  56  53  48  72  92  88 102 109 111 117 121 118 105  98  99  98 103 101  97 103 113 112 113 112 132 141 159 179 190 202 212 221 229 239 244 221 158 248 236 242 244 247 238 220 213 217 217 216 216
 217 217 217 217 217 217 216 217 216 215 216 214 214 214 214 214 214 214 215 216 216 216 216 217 213 161 143 140 134 136 135 129 132 140 141 144 142 131 123 110  97  90  90  93  80  88 103 107 112 114 117 117 119 119 113 105  97  94  92  97  99 100 104 114 108 109 115 127 141 159 173 187 204 206 218 225 232 239 231 134 206 243 226 238 239 247 249 227 214 214 214 214
