P2
# Generated by OpenCV 4.2.0
92 112
255
 249 249 249 249 249 249 249 249 249 249 249 249 249 249 249 249 249 249 249 249 249 249 249 248 248 249 248 249 247 248 255 255 255 255 245 172 119 112  92 157 217 201 167 170 208 223 190 154 169 145 123 118 112 131 148 179 217 235 235 231 228 242 243 188 226 233 235 240 250 248 249 249 249 249 249 249 249 249 249 250 249 249 249 249 249 249 249 249 249 249 249 249
 249 249 249 249 249 249 249 249 249 249 249 249 249 249 249 249 249 249 249 249 249 249 247 249 249 249 250 248 251 253 238 220 211 176 138  86  81 105 133 134 185 185 171 182 165 156 164 168 146 141 102 100 129 136 170 186 202 197 204 225 218 228 236 235 199 228 247 248 248 249 249 249 249 249 249 249 249 249 249 249 249 249 249 249 249 249 249 249 249 249 249 249
 249 249 249 249 249 249 249 249 249 249 249 249 249 249 249 249 249 249 250 249 249 248 247 248 247 250 250 253 230 192 138 101  84  82 103 103  79  63  82  99 171 180 198 209 147 180 197 141 114 124 123 147 161 158 191 231 225 209 184 189 219 230 241 244 236 212 235 251 248 249 249 249 249 249 249 249 249 249 249 249 249 249 249 249 249 249 249 249 249 249 249 249
 249 249 249 249 249 249 249 249 249 249 249 249 249 249 249 249 249 248 249 249 249 247 248 249 249 252 246 188  82  63  49  48  62  87 120 156 163 124 103 161 183 167 194 200 150 204 199 149 130 110 112 115 109 104 151 168 155 198 183 151 155 204 230 233 253 241 215 246 249 249 249 249 250 249 249 249 249 250 249 249 249 249 249 249 249 249 249 249 249 249 249 249
 249 249 249 249 249 249 249 249 249 249 249 249 249 249 249 249 249 249 249 249 249 249 250 255 253 216 111  41  28  18  31  32  47  96 123 161 184 204 188 176 187 172 177 180 146 200 150 125 111  87  87  90  65  82 134 103 100 156 144 154 188 184 216 233 246 250 231 230 250 248 249 249 249 249 249 249 250 249 249 249 249 249 249 249 249 249 249 249 249 249 249 249
 249 249 249 249 249 249 249 249 249 249 249 249 249 249 249 249 249 249 248 248 250 250 255 236 149  71  23  18  23  30  32  48  49 106 148 167 134 128 192 196 198 145 145 137 125 170 112  87  92  77  81  74  68  61  88 116 102 112 124 129 143 206 222 211 208 228 239 232 239 251 249 249 249 248 249 249 249 249 248 249 249 249 249 249 249 249 249 249 249 249 249 249
 249 249 249 249 249 249 249 249 249 249 249 249 249 249 249 249 249 249 248 249 252 253 196  98  31  20  24  21  25  32  42  70 117 152 162 145 173 121 126 156 208 146 123 110  93 119 111  89  80  94  55  63  66  59  65 105 130 118  77  82 108 154 145 173 187 174 204 216 218 240 243 243 245 247 248 249 248 249 249 249 249 249 249 249 249 249 249 249 249 249 249 249
 249 249 249 249 249 249 249 249 249 249 249 249 249 249 249 249 249 249 249 252 249 177  65  17  24  26  16  14  24  37  61  77  87 103 137 101 117 158 113 107 183 169 117  90  88 106  97  94  71  83  57  50  45  56  68  75 116 161 102  34  80  84  93 154 156 131 188 197 197 216 238 231 232 240 242 246 244 246 249 250 249 249 249 249 249 249 249 249 249 249 249 249
 249 249 249 249 249 249 249 249 249 248 249 249 249 249 249 249 249 248 252 249 155  64  21  20  18  21  36  25  25  43  64  89  90  61  85  77  71 101 114 101 143 155 123 121 112 113  96  88  65  68  69  56  48  44  50  97  99 126 174  99  44  66  72  92 141 140 180 195 198 204 226 251 243 248 248 249 244 242 245 247 249 250 249 249 249 249 249 249 249 249 249 249
 249 249 249 249 249 249 249 249 249 249 249 249 249 249 249 250 249 252 249 162  85  23  18  21  19  13  21  50  33  39  58  62  85  61  47  60  64  83 104 112 123 125 134 130 102 109  93  99  68  69  71  55  54  52  50  69 101  75 109 170  69  66  66  26  40  47 134 205 183 186 179 215 240 234 243 248 247 249 249 246 246 248 250 249 249 249 249 249 249 249 249 249
 249 249 249 249 249 249 249 249 249 249 249 249 249 248 249 249 250 255 184  84  65  13  17  21  16  10  11  23  49  58  60  54  55  44  40  48  60  75 108 120 115 116 131 112 114 105  83  86  85  63  72  73  60  66  70  72  76  83  82 119 171  89  46  30  47  37  32 167 170 173 191 181 220 245 245 243 243 247 249 248 249 248 247 249 249 249 249 249 249 249 249 249
 249 249 249 249 249 249 249 249 249 249 249 249 249 249 249 249 255 228  94  98  32  15  20  20  15  11  17  32  69  81  48  43  42  46  50  55  65  74 104 109 108 124 128 115 126 110  97  89  76  72  80  84  71  73  73  73  96 125 104  92 128 165  68  36  39  53  31  70 136 151 178 189 172 215 238 247 248 249 247 248 248 251 247 248 249 249 249 249 249 249 249 249
 249 249 249 249 249 249 249 249 249 248 249 249 249 248 249 252 254 129 111  85  19  18  19  14  13  16  38  65  73  56  41  50  54  55  85  87  76  81  96 109 118 128 131 132 122 106  99  93  84  87  85  86 101 103 112 107 105 119 139 148 112 133 140  42  34  37  57  59  54 149 174 194 196 193 210 219 239 248 250 248 249 249 249 248 249 249 249 249 249 249 249 249
 249 249 249 249 249 249 249 249 249 249 249 248 248 248 248 255 217  82 113  23  22  18  12  10  12  40  67  70  56  48  55  64  68  71  78  82  86  88  98 114 120 126 132 134 116 104 106 112 107 103 104 107 130 133 141 142 140 134 132 152 153 128 135  93  32  32  48  48  25 102 197 184 204 194 205 214 223 235 244 248 249 247 247 248 249 249 249 248 249 249 249 249
 249 249 249 249 249 249 249 249 249 249 248 249 249 249 247 255 163  80  40  17  18  16  10  11  36  60  60  52  59  65  71  81  91  90  94  96  98 103 109 114 119 129 131 125 120 117 117 120 127 130 136 132 139 141 145 146 138 143 154 164 180 180 123 134  83  40  42  48  40  50 160 197 210 194 187 196 201 218 235 239 243 250 248 248 249 249 249 249 249 249 249 249
 249 249 249 249 249 249 249 249 249 249 249 249 249 249 252 248  94  41  22  19  15  13  10  34  56  51  51  62  79  86  90  94 101 100 107 110 112 115 118 122 128 133 134 130 126 135 143 143 149 154 154 155 159 174 176 175 175 180 172 163 171 176 141 127 158  82  46  55  57  55  95 187 206 209 172 181 184 186 203 212 231 241 249 250 249 249 249 249 249 249 249 249
 249 249 249 249 249 249 249 249 249 249 249 249 249 248 255 187  39  31  19  15  12   7  34  53  44  55  71  87  93  98 103 106 112 116 112 120 123 123 126 131 132 133 131 138 140 145 146 157 165 159 168 169 170 179 204 210 220 229 227 218 212 192 168 139 139 151  77  42  45  72  69 147 172 196 166 170 218 204 184 212 222 223 241 249 249 249 249 249 249 249 249 249
 249 249 249 249 249 249 249 249 249 249 249 249 248 250 255 114  30  31  15  13   8  29  46  44  59  77  90  94  98 108 114 116 122 114 114 126 130 133 132 136 139 141 138 140 148 149 160 171 171 164 180 180 195 197 207 224 224 229 235 240 240 240 229 190 144 154 133  68  37  44  78  96 134 192 173 159 185 230 217 205 233 235 233 243 249 249 249 249 249 249 249 249
 249 249 249 249 249 249 249 249 249 249 249 249 247 254 234  64  36  29  11   9  28  43  45  66  84  91 104 110 113 123 126 128 128 124 127 126 129 135 137 142 145 145 145 147 151 161 171 176 172 169 181 188 206 215 207 210 233 223 233 247 247 252 252 245 203 166 183 124  75  57  63  62  96 176 203 178 155 197 216 226 218 240 240 234 247 249 249 249 249 249 249 249
 249 249 249 249 249 249 249 249 249 248 249 247 245 255 182  37  29  31  12  26  40  44  63  84 100 111 117 121 130 130 128 130 133 127 128 128 131 136 140 144 143 144 153 157 160 174 175 164 156 177 185 194 206 217 224 223 218 232 234 250 252 254 254 253 249 217 188 184 139 100  64  56  73 167 202 209 176 182 185 206 212 224 249 237 243 249 248 249 248 249 249 249
 249 249 249 249 249 249 249 249 249 248 249 248 250 255 115  29  30  23  22  43  42  64  83 100 117 121 122 124 129 125 126 133 134 129 127 136 137 136 140 145 147 151 157 162 171 174 160 153 160 190 206 195 204 219 228 235 239 232 236 244 255 254 255 253 255 232 226 207 208 162 105  61  70 153 192 211 192 169 201 200 217 203 231 242 242 250 249 248 248 249 249 249
 249 249 249 249 249 249 249 249 248 249 249 247 254 230  55  29  32  22  27  44  61  85 100 111 119 123 122 127 133 129 133 136 137 137 137 137 137 137 139 142 149 153 158 164 173 160 154 165 178 197 204 200 198 218 222 233 238 246 243 242 250 255 254 254 255 246 229 235 204 204 146 110  75 138 176 201 169 161 201 211 202 213 198 234 239 248 248 248 248 249 249 249
 248 249 249 249 249 248 249 249 249 249 249 253 252 142  31  25  27  21  33  58  80 103 118 121 122 124 128 127 132 132 134 137 138 136 132 131 136 140 142 144 145 152 160 160 156 150 152 163 175 197 201 207 203 210 205 207 216 232 241 249 248 246 251 255 254 255 245 250 219 214 188 142 103 104 132 193 174 162 180 211 203 225 224 215 234 238 247 246 248 249 249 248
 248 249 250 249 248 248 249 250 249 250 253 255 167  66  33  26  23  26  50  72  94 114 127 132 132 126 129 131 134 135 135 138 137 135 134 138 135 137 143 143 143 148 152 150 151 142 143 156 165 178 193 183 183 201 211 226 238 236 240 249 253 247 247 254 254 254 254 249 239 207 231 161 100  91 112 163 190 148 146 184 229 193 233 215 233 239 240 245 245 246 246 245
 249 249 249 249 248 248 249 249 249 251 253 194  93  62  37  26  19  29  58  85 108 123 134 135 128 130 132 132 138 138 135 139 140 137 138 143 142 142 142 144 145 151 151 149 147 141 144 148 140 150 175 175 183 189 199 218 226 230 241 252 250 252 251 253 254 254 255 247 222 189 217 207 115  87 116 170 161 170 133 142 198 210 200 236 208 241 242 248 247 248 248 247
 249 249 249 249 246 246 247 249 249 254 199 130  74  49  37  26  16  35  76 105 125 135 138 137 133 137 135 137 140 138 138 138 143 140 140 143 147 144 141 143 148 148 147 143 145 139 142 145 137 146 159 164 171 171 180 206 222 229 222 242 253 249 248 255 254 254 254 254 226 193 198 224 167  84 128 188 137 155 158 121 153 206 194 226 220 217 241 245 246 246 248 247
 249 249 249 249 248 248 248 249 248 226 171 113  42  42  38  23  19  53 103 123 132 143 145 146 144 137 137 142 148 143 137 137 136 137 140 139 145 143 140 144 145 143 146 142 141 141 140 144 140 149 155 158 179 192 180 183 197 225 225 220 243 250 246 247 254 252 253 252 251 196 216 199 189  95 120 186 167 131 171 169 133 143 188 207 234 211 231 244 248 246 246 247
 249 249 248 249 248 248 244 234 222 195 137  70  53  61  33  15  26  80 121 137 144 152 153 148 149 143 137 137 137 136 137 139 135 136 141 139 143 144 143 146 145 144 145 145 143 137 136 140 145 149 154 155 171 197 196 199 208 228 223 209 208 237 241 237 249 250 253 250 250 210 211 209 188 124 109 176 203 157 138 176 180 139 133 188 219 227 212 239 249 249 248 244
 249 249 249 248 248 248 239 223 239 240 158  50  76  53  27   8  43 112 132 141 149 148 154 150 147 148 143 141 136 141 141 142 139 136 140 141 143 143 147 149 147 145 147 145 143 138 138 140 144 147 151 150 152 166 179 177 194 221 235 224 211 226 237 234 247 249 245 247 247 223 189 189 187 162 115 159 208 205 151 141 172 166 131 154 196 230 211 229 249 248 247 235
 248 248 249 249 249 246 242 228 240 208 116  73  65  44  23   9  69 130 143 150 153 150 157 154 147 146 149 148 145 148 145 148 147 142 139 143 146 147 142 145 147 146 144 141 142 141 141 138 143 148 150 145 148 154 169 168 175 195 218 220 221 218 243 230 246 247 241 239 242 239 210 188 173 176 125 158 204 207 185 162 168 168 157 150 154 202 220 227 246 244 236 228
 249 248 249 249 249 246 245 232 181 126  95  56  64  53  16  29 105 146 156 166 155 153 151 151 147 148 146 148 148 148 147 150 151 147 145 140 141 145 145 144 146 148 143 142 141 143 144 137 140 147 145 146 148 153 158 168 178 182 201 210 227 207 224 238 238 241 238 237 240 241 218 205 180 174 153 137 179 203 191 179 183 190 191 175 138 182 214 221 240 229 214 216
 248 248 249 249 249 250 241 219 191 131  79  79  88  25  12  56 135 164 159 158 160 164 157 152 148 149 151 150 148 147 149 149 148 143 143 139 137 136 143 140 143 141 138 136 136 134 136 138 136 144 146 143 144 143 143 154 158 167 180 189 226 218 201 216 223 230 231 237 237 240 224 201 205 177 160 152 146 151 171 182 173 180 189 177 167 184 195 197 218 203 208 235
 249 249 249 249 248 251 242 227 193 146 102  97  54  10  26  97 160 165 160 159 162 163 166 158 147 147 150 146 144 145 142 143 137 134 136 136 134 136 142 141 140 136 138 136 138 136 136 139 141 147 152 145 143 149 158 174 178 184 181 178 216 231 211 212 211 223 228 235 239 246 234 217 216 205 171 158 155 123 127 143 156 157 135 137 152 151 180 175 188 204 221 233
 249 249 249 249 249 244 238 237 188 119  94  74  22  23  80 133 169 164 162 164 162 161 163 161 152 142 143 139 135 134 134 136 137 138 138 136 137 138 142 143 141 142 138 137 138 136 138 140 136 138 144 143 140 149 161 193 198 202 209 210 209 228 230 227 216 235 235 238 241 241 242 224 216 216 195 163 153 142 108 128 116 141 135 120 134 112 153 194 193 216 233 239
 246 249 248 249 243 239 232 210 170  84  73  29  32  80 118 147 168 169 163 165 160 156 156 154 156 144 138 133 132 135 137 134 138 139 139 136 141 143 142 135 139 142 136 139 140 140 142 144 146 149 146 145 140 151 168 190 198 193 205 215 230 214 224 224 213 236 239 238 242 240 240 229 220 233 190 172 136 145 116 124 132  93 119 137 145 112 133 209 212 238 249 242
 248 247 248 246 240 252 230 161  84  48  22   7  77 123 137 157 168 168 164 162 161 149 151 150 152 150 139 138 140 141 140 136 138 138 140 142 142 144 142 136 139 140 133 136 139 139 140 144 153 163 172 189 182 186 197 214 224 222 224 224 222 232 227 226 229 235 232 236 239 242 235 225 215 224 200 155 142 122 110 104 102  87 101 115 130 121 107 167 185 214 222 207
 249 249 246 247 252 239 239 180  73  34  21  52 111 132 150 165 172 165 164 165 165 153 152 151 148 150 144 145 145 141 141 145 142 138 139 142 135 138 139 131 132 132 133 135 140 139 139 147 162 179 191 200 185 183 185 189 196 217 222 229 238 230 212 225 237 234 233 234 238 237 231 227 228 218 208 165 148 118 103  75  86 108 113 131 163 171 149 170 190 208 236 234
 251 249 248 246 247 240 252 139  45  28  55  96 122 148 162 169 173 169 164 163 164 160 160 155 155 153 152 146 144 142 141 143 143 134 133 140 132 135 139 133 133 137 136 139 142 141 147 161 174 192 206 182 166 156 162 166 174 191 207 218 235 238 202 202 222 230 234 236 238 238 240 220 211 225 198 170 140 115 102 103 101 122 125 107 144 139 125 135 217 234 251 238
 232 239 246 251 251 237 175  55  37  57  67  97 131 162 169 173 172 168 167 163 162 164 163 159 160 154 154 148 149 149 143 143 141 140 135 145 137 137 146 132 131 136 137 138 143 141 150 158 153 171 191 172 175 173 176 196 211 224 226 224 217 233 230 220 220 233 242 241 242 242 240 234 221 225 201 169 139 113 110 149 153 141 123  83 111 153 152 128 206 211 231 242
 214 201 201 202 164 149 104  61  58  60  73 109 145 165 171 172 175 169 165 164 159 163 162 161 158 156 154 149 153 154 144 145 146 142 138 150 141 138 145 116 131 140 137 136 145 145 148 149 155 172 171 162 180 181 180 187 201 225 243 251 239 230 236 232 231 225 225 221 238 242 230 230 232 229 209 172 126 113 142 175 144 173 150 138 104  89 166 200 202 200 242 243
 227 224 219 191 174 223 149  89  60  81  86 121 161 169 172 174 177 173 165 164 160 161 162 163 163 155 154 152 153 155 147 147 148 143 145 153 140 145 146 114 134 144 140 142 149 147 148 148 157 162 158 158 168 168 168 173 188 205 211 229 251 249 239 239 235 239 234 236 243 230 219 200 209 235 217 180 128  99 124 209 187 144 139 155 145 115 150 110 171 204 238 235
 213 213 197 204 216 209 126  81  72  76  79 124 167 176 178 179 178 171 168 163 156 157 158 160 163 158 153 153 148 153 147 146 146 145 148 150 142 154 147 113 143 147 149 145 147 141 150 150 148 156 162 166 167 171 171 175 190 213 208 190 210 250 248 245 241 245 245 234 228 225 227 214 198 203 213 195 137  90  79 110 124 139 118 122 144 151 174 154 163 191 211 201
 211 212 192 212 203 177 117  69  47  64  68 118 162 175 182 182 182 170 164 159 156 154 151 153 154 153 150 148 148 149 145 147 147 142 152 149 150 151 146 115 151 150 151 145 150 148 151 156 158 158 162 165 155 154 148 151 163 177 182 192 179 195 245 247 241 236 235 230 226 234 229 219 199 172 170 189 157  93  76  63  82 110 134 126 106  85 119 128 128 170 194 195
 212 216 191 206 212 164 104  56  49  74  63 114 163 172 181 183 183 170 162 159 155 152 145 144 145 153 154 150 152 153 152 152 149 145 157 156 143 138 149 117 155 155 152 152 157 158 157 158 159 154 148 134 124 130 119 120 136 164 179 185 188 186 212 249 246 241 231 226 230 233 227 213 195 178 171 175 161 116 126 131 103  97 138 154 160 110 134 119 172 201 210 213
 212 216 199 196 213 170  91  47  64  74  62 110 167 175 180 184 178 166 158 156 155 151 137 137 147 154 151 149 152 151 150 152 150 153 156 156 126 138 155 124 153 159 154 153 157 161 154 141 125 117 120 123 117 115 118 120 130 139 157 171 182 208 201 220 252 249 237 229 222 217 219 219 195 180 183 181 170 127 130 112 105 106 100 117 151 147 137 112 199 213 216 213
 210 211 213 198 198 157  74  56  75  79  69 113 166 177 184 184 169 164 148 143 147 148 136 141 138 129 125 132 139 134 145 147 153 157 161 149 120 155 153 122 152 164 157 154 155 152 134 114 103  98 101 104 105 115 118 126 132 134 133 144 164 179 206 206 224 246 240 235 228 224 228 220 197 187 183 190 181 133 149 109  50  51  66  91 131 130 174 184 204 215 210 211
 209 209 209 208 198 127  57  66  72  85  69 112 170 177 188 182 166 161 155 143 144 134 129 136 123 111 107 115 129 140 146 154 159 161 163 129 130 162 146 120 118 142 163 160 152 148 132 120 111 111 109 110 114 125 133 128 124 134 143 146 150 166 183 202 200 235 239 244 237 227 234 219 199 198 197 197 185 143 113 108  93  78  66  68  93  85 130 170 203 204 209 211
 208 208 208 208 211  99  46  70  67  91  69 108 175 180 189 185 172 169 159 146 139 132 135 145 129 119 119 124 124 137 143 157 166 165 148 125 153 158 149 142 140 137 147 159 151 134 121 116 113 110 109 114 118 124 125 132 126 124 127 144 149 155 164 188 196 220 242 232 235 226 227 218 202 210 207 199 180 142 108  62  50  72  70  67  90 113  99 150 175 211 204 209
 208 208 208 208 206  68  32  63  61  89  75 111 176 184 190 179 175 168 159 149 135 136 149 149 128 124 120 117 122 126 127 136 153 164 156 164 167 161 157 152 152 152 152 148 134 116 108 101 106 115 123 127 134 143 142 138 132 145 139 134 144 150 157 169 190 207 241 228 233 228 226 212 206 214 210 198 172 139 132  84  53  39  52  65  77 101 127 144 205 208 200 197
 208 208 208 216 166  38  42  51  55  86  81 111 179 191 191 184 178 170 168 163 162 155 149 142 143 145 132 120 109 115 125 111 113 139 160 166 155 152 151 154 155 153 146 130 111  87  84 101 114  99  85  80  91 116 139 152 161 165 166 152 148 146 154 161 172 191 237 242 237 239 231 216 219 226 219 198 161 135 112  88  80  70  59  66  72  85 120 195 215 202 206 208
 207 207 206 219 105  29  72  47  44  84  96 126 182 192 195 191 179 172 176 172 172 166 166 166 149 108  82  77  62  64  92 106  96  99 130 160 155 146 141 143 147 148 131 119  86  71  73  90  81  81  81  75  80  92 102 113 137 167 179 169 161 155 152 151 165 173 212 243 223 244 233 217 223 231 226 207 170 142 124  94  79  76  55  58  67  74 148 205 214 210 208 208
 206 204 208 193  80  53  48  19  35  87 107 139 184 191 196 189 180 175 178 178 179 179 157 103  58  60  76  76  76  86  73  96  87  74 108 152 155 144 141 143 152 145 120 112  73  60  64  82  93  90 103 106  69  81  76  79  79 113 160 183 168 160 157 154 155 165 185 229 225 220 228 214 228 232 220 209 187 157 158 154 149 110  53  33  63  79 149 209 210 207 209 208
 208 207 216 155  91  43  24  22  28  64 111 149 186 193 193 185 187 180 181 188 175 122  69  61  73  80  68  90  51  75  71  83  81  62  98 147 153 141 141 144 150 142 125 106  72  75  85  74  63  64 103 102  71  79  58  57  44  63  97 143 174 169 162 153 152 158 190 228 242 225 215 213 234 234 227 215 188 163 179 149 153 183 134 126 188 173  98 197 215 212 210 208
 208 210 209 116  63  30  21  28  37  51 113 155 191 197 182 166 178 190 185 157  94  37  65 114  94  89  68  55  56  71  54  55 106 102 103 150 152 138 139 147 153 146 130 102  92 109 100  82  79  89  91  87  83  86  79  72  77  77  89  93 111 158 170 166 168 173 201 233 236 238 227 225 237 233 226 215 187 167 151 150 161 194 206 209 235 255 149 186 217 211 210 207
 212 214 164  85  57  24  49  46  39  66 116 163 192 194 188 179 180 180 132  84  91 112 105  91  84  91  95  99  95  80  83 110 127 110 120 151 147 140 138 148 155 149 130 115  94  89  96  90  82  89 106 118 124 124 128 131 141 147 148 106  88 105 138 149 145 152 164 193 220 234 223 229 240 233 224 222 196 170 151 147 155 211 215 174 176 202 216 191 214 210 209 210
 222 201  87  69  46  19  84 119  55  81 120 168 192 189 179 177 169 139 128 127 145 161 158 144 139 136 131 117  98  85  87 100 110 114 142 150 144 136 134 146 155 155 136 116 108  97  85  90  92  96 108 125 140 147 153 155 149 151 146 148 155 132 120 131 138 152 173 214 235 243 220 232 236 234 227 223 207 162 150 154 182 212 181 176 137 140 227 202 208 208 208 208
 204 127  64  74  58  49 102 120  90  98 120 174 193 194 178 157 148 147 167 167 158 158 156 157 154 152 140 121 106  94 102 113 118 122 147 149 143 136 133 149 155 157 150 127 128 129 123 107 103 107 111 117 124 131 135 141 144 148 145 146 146 149 155 156 159 166 181 195 218 226 211 230 231 232 225 225 205 178 153 183 215 203 176 167 128 119 203 206 207 211 209 207
 137 100  97 131 134  59 129  91  75 101 136 177 191 184 173 170 157 156 159 160 158 162 161 152 145 140 132 124 123 122 128 134 135 135 147 153 142 134 135 143 153 161 167 143 135 144 139 132 115 113 117 119 123 126 130 132 133 132 141 139 142 147 151 154 172 193 212 217 233 233 220 230 235 227 223 234 205 178 179 184 198 189 153 152 163 111 154 201 208 211 211 209
 183 161 104 168 149  91 138  95  66 101 147 178 190 184 174 170 159 158 172 170 161 151 143 137 136 134 137 134 132 136 144 144 145 147 147 153 144 135 139 150 153 162 173 155 138 148 137 138 140 123 121 126 129 137 138 148 154 159 163 165 170 166 165 182 220 214 209 227 227 228 227 237 233 225 225 234 218 185 178 197 187 165 126 151 170 121 144 205 215 214 213 210
 219 178 118 175 160 128 122  66  67 105 146 186 192 183 170 167 168 164 155 153 155 155 154 147 144 142 143 139 135 142 147 146 151 148 153 156 146 141 143 151 156 162 171 166 149 151 136 135 147 138 125 127 128 134 140 139 139 141 143 144 150 168 208 224 216 230 221 220 228 231 230 228 228 223 232 232 216 205 195 190 186 138 128 153 175 129 148 201 220 215 214 213
 210 194 127 174 160 112 115  86  89 112 146 189 192 180 173 172 166 157 150 157 165 160 155 145 146 149 145 138 143 145 141 147 153 142 147 141 136 136 138 150 156 162 170 171 160 151 137 128 139 145 138 131 131 132 137 139 140 144 143 145 147 153 181 227 233 209 233 241 229 225 238 225 218 225 240 228 216 215 196 181 185 159 148 167 173 114 159 210 219 216 216 216
 211 214 153 167 150 101 158 117  81  99 148 189 192 180 172 168 163 160 159 152 149 147 150 148 145 142 139 138 146 140 141 151 149 144 129 131 126 132 138 150 155 163 168 171 166 152 141 126 127 142 142 143 137 134 137 136 142 144 143 148 162 169 174 183 221 231 204 232 233 229 227 229 214 234 238 232 230 214 190 170 156 173 179 197 189 118 181 215 222 221 219 219
 145 193 208 164 127 107 180 147  89  90 150 189 193 183 173 166 169 167 151 147 147 150 146 142 134 132 136 142 142 138 143 151 151 147 136 134 132 138 138 154 159 163 167 171 169 158 145 126 124 138 143 146 145 143 139 142 143 144 149 152 161 171 176 182 195 229 232 220 231 228 225 213 219 235 235 233 231 214 192 147 123 160 175 182 198 136 205 214 227 226 224 225
 219 173 188 163 136 135 149 156 125 113 147 186 195 185 175 171 171 162 153 153 146 143 144 138 135 135 140 142 137 139 143 151 159 163 145 132 133 136 142 154 165 174 176 177 173 158 147 127 119 129 139 145 148 147 144 146 149 151 155 156 169 175 178 187 194 202 229 227 223 230 218 218 232 231 231 235 233 241 186 110 131 155 151 160 187 149 225 218 231 229 229 230
 225 232 209 142 158 162 149 158 154 128 147 179 196 187 178 174 169 160 158 156 144 142 142 137 139 139 139 138 138 137 143 153 168 158 138 131 135 138 143 150 170 177 176 175 174 155 144 130 118 123 137 147 149 144 146 150 153 155 155 158 164 172 180 185 196 202 209 233 225 228 221 228 233 230 234 238 227 236 192  94 109 140 146 149 187 178 230 220 233 229 229 229
 223 224 242 161 175 197 156 145 177 140 134 166 198 191 181 174 171 166 163 168 153 142 140 140 138 140 135 136 139 138 142 151 160 148 137 134 133 138 145 154 172 179 176 171 167 149 136 124 121 124 138 146 150 148 145 147 154 157 159 162 165 171 177 180 192 199 203 214 230 224 226 231 226 225 232 242 212 205 218 108 109 135 142 141 186 200 223 221 231 228 228 228
 220 221 231 168 217 214 198 147 158 152 118 150 200 191 184 179 174 167 161 159 153 147 145 145 141 141 138 135 132 138 146 135 149 149 141 138 131 137 147 156 173 184 174 161 156 156 135 120 116 115 131 143 151 152 146 144 152 157 160 166 165 167 173 185 200 202 203 205 219 222 233 231 227 227 226 239 198 193 219 124 111 125 136 138 180 213 215 222 226 228 225 224
 216 219 226 165 216 223 224 202 149 156 104 136 200 190 187 178 174 164 155 155 152 156 150 147 146 141 139 133 134 140 141 135 156 149 135 133 136 141 146 155 174 188 176 163 160 170 151 114 114 114 122 136 148 151 150 146 149 156 161 163 165 168 174 197 195 196 201 203 219 226 238 225 223 232 234 231 186 190 210 142 116 113 119 132 184 214 215 222 223 224 222 221
 216 218 224 173 216 220 213 227 165 136  98 127 200 193 187 177 172 165 161 158 159 157 152 147 146 142 138 131 134 140 143 152 171 149 135 138 141 143 146 155 170 190 184 171 170 175 163 114 112 115 124 133 144 150 154 151 151 156 161 161 167 173 168 195 200 189 190 203 225 234 236 225 222 232 229 221 175 196 213 169 126  95 111 136 187 213 218 223 223 224 224 223
 219 220 228 175 215 222 221 211  97 113 114 138 191 194 186 179 171 160 166 166 161 161 156 150 142 137 130 126 130 152 160 170 174 161 150 148 144 145 149 156 173 182 183 173 172 177 165 121 116 120 118 128 141 148 155 157 162 162 163 166 167 174 171 189 190 184 190 206 219 234 238 225 225 230 224 208 169 212 215 203 204 130 132 171 199 218 227 224 224 225 224 224
 223 223 233 176 216 222 235 147 122 124 153 152 182 193 183 179 169 167 172 172 163 160 157 150 139 131 122 121 128 165 186 185 190 180 162 157 151 154 151 155 165 169 173 166 163 161 153 124 123 123 119 121 138 149 152 155 164 169 166 170 173 172 172 179 180 178 184 202 226 233 238 232 228 227 228 203 163 211 255 249 250 241 198 217 198 228 227 226 227 227 226 227
 222 225 236 174 211 226 236 163 138 141 145 170 179 193 183 181 179 173 171 172 166 159 158 147 141 132 122 127 133 148 168 168 179 180 168 158 152 157 152 155 160 164 149 118 109 126 126 123 125 128 129 122 128 143 149 156 161 171 172 174 174 174 183 184 173 175 189 204 227 236 238 229 226 216 227 201 161 175 213 224 207 238 193 173 205 228 230 225 223 222 228 226
 224 225 236 183 201 232 228 224 109 144 163 171 177 190 178 178 177 171 172 171 167 159 158 153 138 128 126 128 131 130 132 113 129 158 166 156 151 152 146 148 155 124  96  79  79  93 112 124 124 128 135 128 118 136 153 156 164 169 172 179 182 178 191 186 183 177 189 208 228 239 236 227 219 215 229 192 158 148 164 172 190 234 168 186 227 222 222 213 217 223 224 225
 219 225 228 200 180 236 216 165  74 102 182 159 174 191 182 176 169 175 176 172 168 163 155 143 130 122 126 130 126 124 123 111  98  97 108 121 133 134 141 133  96  73  86 100 102 111 124 124 122 128 131 133 122 121 144 154 161 170 179 181 189 189 195 193 185 184 194 208 221 237 238 229 215 211 232 187 170 164 161 169 208 205 151 229 228 202 201 207 213 214 216 222
 217 220 219 222 167 205 135  76 156 117 173 167 171 189 181 177 176 176 175 175 172 165 150 133 125 132 130 126 119 108  98  81  66  59  67  69  96 103 107  89  62  69  86  88  99 104 105  98 108 123 121 132 129 111 121 145 159 167 183 202 201 206 198 207 199 179 199 214 225 235 238 229 211 211 227 175 165 181 202 200 208 121 190 213 176 173 193 216 221 222 222 221
 216 215 218 223 202 147 123 186 172 119 169 178 167 190 184 179 178 172 178 174 170 158 138 121 126 121 106 104 115  99  66  58  51  58  60  64  92 103  96  88  61  51  72  76  79  86  79  74  84 101 103 106 123 131 112 129 152 165 185 210 215 216 201 200 219 188 199 220 227 235 235 232 214 215 214 168 156 172 197 213 123 100 187 143 161 197 220 225 220 219 220 219
 215 215 217 215 210 130 170 204 138 147 152 172 170 189 182 182 173 172 181 176 165 143 123 117  91  75  76  87  93  63  68  70  61  55  50  70  89 100 101  80  44  40  58  53  54  71  71  70  79  69  77  90 104 140 132 113 138 157 185 207 215 210 203 182 219 212 201 220 222 235 238 236 214 211 204 167 154 151 141 104  80 121 100 145 210 227 223 221 222 220 219 217
 213 215 217 212 208 122 185 167 198 152 103 127 163 185 182 182 170 174 182 179 161 128 122  85  64  58  52  64  75  62  69  62  64  66  67  76  90  99  99  94  53  34  41  48  57  82  79  76  86  63  53  76  77 120 143 136 117 150 168 193 218 213 203 176 201 223 208 216 223 231 238 232 209 208 201 180 169  89  47  34  88 115 146 199 185 212 216 214 217 217 221 219
 213 215 218 216 197 126 136 190 225 188 112 143 139 186 180 180 164 177 183 173 140 121 105  58  46  40  49  70  69  87  90  85  77  80  96  88  92  90 105 108  84  51  37  55  67  88  92  88  80  59  55  65  64  99 126 152 124 129 161 187 209 213 196 161 188 210 215 207 226 232 238 232 205 204 198 197 159  99  54 123 194 141 166 224 177 156 205 225 220 222 220 219
 218 218 217 218 202 105 126 218 219 206 142 201 166 178 181 178 154 168 175 163 129 124  62  40  36  35  64  86  95 112 113 103  82  85  97  91  88  86  91  99 100  85  66  75  88 110 120 102  83  60  63  62  66  91 110 137 149 119 157 181 203 205 187 163 175 204 213 215 224 229 238 230 205 210 202 212 134 112 117 152 165 144 125 188 219 207 184 223 218 204 211 219
 208 203 216 223 194  69 146 180 182 171 126 153 126 176 184 180 150 160 174 158 139 112  46  43  36  59  87 105 118 128 123 130 119 124 122 113 115 106  95 118 129 121 109 121 137 142 130 118  97  66  59  66  70  82  90 127 153 127 140 174 206 201 170 149 169 201 211 212 224 228 237 227 204 221 199 216  82  68 134 164 103  81 104 156 200 201 173 161 179 193 215 217
 211 166 212 206 134  90 195 206 193 162 148  70  52 175 189 175 149 167 170 148 153  98  63  50  74 108 132 143 146 154 145 151 147 147 144 142 133 124 112 127 131 124 124 126 127 132 132 128 119  99  78  96  85  83  84 127 161 146 135 178 194 195 161 139 177 188 210 219 226 229 238 226 202 220 198 222  75  35 137 160 186 119  89 116 167 201 204 193 216 224 217 215
 219 195 172 180 124 110 219 223 218 129  43  33 147 179 179 172 145 165 164 157 167 111  67  88 115 101  89 104 122 124 120 119 121 126 119 119 110 103  98 100  99  97  98 104 100 100 101  89  79  70  64  79 101 109  96 131 160 155 136 168 187 188 157 146 169 185 203 222 228 228 234 222 198 194 209 198  71  32 118 136 180 201 153 113 149 212 216 207 201 224 217 217
 201 168 149 147 102  82 154 128  73  41  86 186 223 170 178 167 143 158 165 159 161 108  88 110  97  64  70  64  59  69  67  75  75  80  74  69  73  72  71  65  71  74  75  81  76  73  69  65  52  46  55  50  68 110  98 121 157 158 142 158 185 188 143 128 155 170 186 208 230 224 231 212 191 178 218 187  57  49 123 121 161 183 203 152 146 211 228 228 197 218 222 221
 212 136 106  79  40  41  60  72 108 183 233 204 117 143 169 163 142 148 159 160 162 123 106 102  83  87 115 128 128 121 121 119 121 124 113 106 105 106 111 111 118 125 125 127 134 133 131 127 122 119 113  90  67  89  86 110 155 157 143 164 170 170 130 121 147 169 187 205 225 221 232 206 186 190 228 196  71  85  95 122 149 191 190 164 139 180 217 232 201 201 230 224
 222 221 201 163  76 111 136 174 197 185 133  83  66 102 159 166 141 140 155 168 165 126 107 104 102 110 125 143 154 156 154 141 140 135 138 136 133 133 140 132 136 142 148 155 155 155 157 154 148 137 124  99  71  69  81 124 157 159 140 156 171 166 122 122 148 169 184 211 218 220 232 202 188 207 238 209 116 144 128  76 121 204 211 206 109 165 209 225 219 179 222 226
 224 228 190 173 118 214 173 133 122 124 134 104  27  89 139 158 143 130 154 167 163 127 116 119 126 130 136 153 158 162 155 144 145 132 130 124 136 130 122 120 128 131 143 153 155 157 157 156 151 139 128 115  85  75 106 137 155 157 150 162 160 140 120 123 140 159 204 214 212 215 222 190 191 222 234 195 123 131 209  85  91 153 194 224 146 142 211 219 222 194 197 228
 224 197 180 114 153 241 228 222 225 229 134  42 100 101 110 155 154 127 141 154 168 143 131 142 149 147 145 155 160 162 153 153 141 128 111 115 119 103  93 116 115 117 120 135 148 150 154 156 153 146 141 128 112 103 112 140 154 155 155 146 153 136 118 122 140 169 209 210 213 228 202 184 195 236 224 197 157  86 175 180  75 126 137 203 200 153 204 214 222 218 182 217
 231 186 137  99 223 220 222 225 232 160  56 166 146 108 123 151 155 130 138 159 169 145 143 143 159 161 152 156 159 158 158 153 127 118  93  88  98  81  85 107  96 101 113 111 133 149 154 154 155 156 149 138 119 109 116 145 152 151 156 150 150 135 119 135 146 179 213 207 210 216 195 195 215 241 209 162 199  50  92 188 179  97 130 182 213 160 198 207 223 225 199 194
 223 190 143 197 226 218 217 220 213  69 155 202 138 118  99 135 160 137 147 165 161 151 150 143 155 167 163 164 160 154 152 131 125 120  76  72  85  75  69  92  85 112 106 103 137 148 154 155 155 158 152 144 129 124 138 145 145 141 150 173 155 134 129 150 167 196 212 211 224 210 188 204 228 238 198 115 168 122  56  60 143 197 122 108 186 200 204 210 222 222 219 188
 214 220 228 225 218 218 218 231 147  78 205 176 166 140  69 138 158 153 146 154 164 165 154 145 146 161 168 165 162 151 148 123 139 107  59  71  84  74  65  66  87 117 106 102 140 149 155 156 155 152 149 141 137 142 153 150 139 136 145 159 137 136 128 166 190 207 200 216 208 185 196 211 227 240 210 139 137 147 165 122  62  97 156 105  77 147 199 205 219 223 230 206
 215 215 218 219 218 218 220 234 111 121 211 165 193 140  55 122 148 165 151 160 167 168 154 147 143 155 171 168 162 155 145 128 139 101  63  66  81  83  82  71  97 127 126 128 146 153 155 156 157 153 147 145 144 151 155 148 140 143 145 132 122 134 138 166 199 207 203 203 187 179 196 218 228 243 164 157 138 138 176 217 176 129 120  98  67  57 134 195 221 225 227 222
 214 213 213 217 218 217 220 233 110 135 209 159 202 132  39 139 166 163 160 156 162 165 160 151 146 153 165 165 159 158 150 145 143  97  69  87 111  96  83  91 103 134 144 145 149 152 153 152 151 148 146 151 153 155 156 145 132 150 148 125 125 147 165 182 200 199 214 195 174 194 195 216 226 237 178 165 156 127 166 162 176 209 192 167 142 108  85 164 236 223 226 226
 213 212 215 216 216 219 220 233 118 130 209 152 206 140  42  96 157 169 164 145 148 152 164 159 152 150 160 161 156 151 152 147 146 107  80 108 110 101  90  95 119 129 145 149 146 145 150 152 148 143 147 149 156 158 146 143 139 144 140 126 136 167 187 199 191 190 186 173 184 192 200 217 228 236 134  99 117 168 181 193 165 165 158 166 147 104 134 190 221 225 222 224
 214 214 216 218 218 219 219 228 165  95 208 161 204 172  46  73 133 153 161 146 140 141 161 158 155 146 154 157 152 144 148 148 135 112 100 103  97  94 108 105 115 139 144 148 146 147 151 153 143 139 147 149 151 148 146 133 138 140 141 142 149 174 206 209 183 186 177 165 171 178 210 224 238 224 139 100 101 152 169 163 141 156 130  90  94 126 180 198 186 144 208 225
 217 216 217 219 218 218 220 222 223  92 154 175 201 208  40  90 116 162 161 170 149 143 151 156 156 151 152 152 147 148 146 135 109 103  94  77  88 100 109 113 120 141 142 145 147 149 151 150 147 143 146 143 141 147 149 142 133 147 147 149 165 172 186 216 196 169 161 166 169 184 210 225 240 217 116  74  88 114 151 154 154 120 119 145 176 149 166 144  87 118 231 200
 218 218 218 219 218 219 218 218 218 198  91 119 180 223  84  71 112 136 164 175 142 123 142 149 148 150 151 148 145 144 138 126 104  89  82  75  85 105 108 116 131 135 139 142 143 152 152 142 145 142 137 133 143 152 151 142 135 143 155 163 182 193 189 174 174 152 137 150 175 189 217 222 237 203 115  75  68  88 137 157 150 144 119 130 109  65  63  63 132 221 221 161
 219 220 221 220 219 217 217 217 210 227 198 129 128 188 174  57 101  90 125 151 146 116 129 146 141 144 146 145 135 125 127 116 104  79  88  71  80 101 109 117 132 136 137 139 140 152 148 137 140 139 132 127 132 140 138 144 139 153 166 172 188 200 193 154 150 136 146 163 178 199 216 223 235 204 109 114 104 104 132 161 189 164 172 181 154 120 147 208 246 206 163 203
 220 220 221 221 219 217 215 218 216 211 226 225 160 154 171 140  35  71  50 106 151 115 119 127 129 128 129 130 114 108 104 106  98  91  87  76  92 106 109 116 132 138 136 134 142 147 140 129 129 133 128 119 136 145 119 119 141 159 175 182 165 142 142 146 138 139 148 155 184 204 211 221 236 186 128 135 173 123  93 129 119 186 128 197 213 183 211 197 178 185 213 228
 222 222 223 219 218 217 216 215 218 210 212 224 214 176 194 206 144   8  12  67 115 119 100 105 126 125 119 106  97 106 100  85  77  95  83  76  89 102 108 108 109 125 135 137 138 132 125 122 120 129 120 117 122 113 114 120 151 167 173 161 147 120 131 128 121 127 158 173 181 207 213 223 227 180 187 200 148 164  42 117 103 101 182 129 207 176 202 194 207 223 225 218
 223 223 222 219 218 216 216 217 218 222 214 211 223 190 182 214 151  89  85  40  78  90  80  94 126 109  78  79 105  99  92  82  76  82  82  72  84  94 102 105 105 117 127 123 122 115 119 120 112 104 116 115 117 101 117 128 150 173 151 134 117 134 137 115 120 138 160 173 192 206 212 226 224 190 205 226 182 183 130  74 151 117 136 155 192 181 155 186 220 223 220 220
 224 223 219 217 217 216 216 218 219 219 220 215 215 220 193 185 106 127 211 191 161  98  74  93 108  85  58  72 103  92  81  86  76  63  65  63  75  81  88  88 102 130 127 122 106 102 108 114 119 124 123 108 108 113 125 141 145 136 103 104 145 150 136 144 142 148 163 176 182 191 210 225 222 200 111 161 217 189 187 131 158 177 121 162 221 217 204 216 219 221 218 219
 223 222 220 217 217 218 217 217 217 218 215 219 218 217 223 208 180  59 168 234 217 142  82 100 107  92  71  65  93  91  88  76  78  58  49  55  60  73  77  79  92 122 124 112  90 106 100 104 132 141 132 124  93 114 135 128  93  69  78 123 147 134 130 145 148 153 178 173 179 200 219 225 216 231 205 125 127 177 142 118 114 149 147 169 226 216 218 215 217 217 216 221
 222 222 222 222 220 220 218 217 217 215 213 215 217 219 223 219 227 137  34 146 226 206 135  86 102  95  91  74  87  81 112  83  80  61  37  50  66  64  74  77  88 102 110 108  96  97  94 106 134 134 116 118 105 113 108  80  72  79 122 154 132 123 136 128 139 161 175 159 182 213 222 227 221 223 222 232 196 171 155  72  50 153 154 185 226 217 217 217 217 219 221 224
 223 223 224 224 224 222 219 217 214 211 211 213 217 222 224 226 221 227 150  48  77 172 161  96 101  99 102  86  78 109 124  87  74  60  33  42  64  58  66  82  96 101  84  99  86  65  78  90 132 127 101 118 112  98  82  86  89 108 127 132 115 126 129 143 156 169 155 152 179 218 221 228 229 231 213 219 223 227 220  57  43 125 130 164 223 216 216 218 221 223 224 224
 220 221 222 222 223 222 220 216 215 211 211 213 215 222 225 226 226 223 235 210 121  89 147 144 106 102 101  92  72  96 121  90  76  61  41  27  48  69  76  83  80  87  84  76  82  65  76  94 123 129 116 116  91  63  71  96 107 119 119 120 118 133 131 154 159 162 165 166 178 203 216 230 218 210 222 211 217 220 213  73  63  80 106 188 223 216 218 220 223 224 224 224
 220 219 219 220 220 218 217 217 217 215 215 217 218 220 224 224 223 222 221 227 238 231 192 157 142 110  96  89  72  71 100  83  66  68  42  31  43  62  75  69  66  76  77  63  73  91  88  94 109 112  99  84  61  57  82 113 113 120 125 115 117 122 135 152 160 157 169 171 182 198 213 228 216 209 241 224 219 222 178  94  60  97 156 224 219 219 219 223 224 224 223 222
 223 222 221 223 221 221 221 221 223 223 222 223 221 220 223 224 224 223 221 224 224 239 215 167 160 142 108  77  64  72  68  80  54  74  50  36  42  60  58  55  54  61  78  81  89 105  81  91  83  68  79  69  74  89  98 114 112 107 122 140 115 126 137 136 136 140 150 165 174 193 213 229 240 242 248 238 231 218  79  79 104 178 195 226 222 223 223 224 224 224 224 223
 225 226 224 226 226 225 224 225 224 225 225 223 224 224 224 225 227 225 224 223 223 230 224 173 160 152 139 102  86  81  82  68  47  63  63  50  44  51  46  49  57  70  81  91  79  69  64  70  74  96 113 109 110 111 114 112 108 114 120 131 129 128 134 126 130 141 152 163 175 196 212 226 241 245 235 237 208  95  36  63 171 186 222 226 228 228 228 227 226 225 224 223
 225 226 227 227 227 227 225 226 226 225 224 225 224 224 226 229 230 228 226 222 224 226 224 175 165 159 153 145 154 119  94  71  48  47  50  52  42  40  41  42  60  66  69  72  78  85 101 106  98 110 122 123 122 118 110 107 113 118 114 112 121 129 123 127 134 150 160 160 180 196 216 230 239 245 240 230 127  35  71 135 177 209 235 229 232 232 229 229 228 227 226 226
 224 225 225 226 227 225 223 222 224 224 224 223 224 224 227 228 229 227 226 224 224 226 227 178 166 162 156 153 159 154 141 119  88  65  60  51  57  53  42  50  73  72  87 100 115 122 121 118 121 130 133 128 119 113 114 117 111 111 111 116 122 123 126 130 138 144 157 170 178 201 215 229 235 242 249 253 242 212 194 176 197 240 231 232 232 233 230 228 228 228 228 230
 219 218 218 222 221 221 220 218 220 222 223 222 223 224 224 224 226 225 224 224 223 224 226 181 164 163 164 156 153 165 170 166 159 141 116 106 115 100 100  91  94 108 123 125 130 129 130 130 135 136 133 123 119 118 116 117 115 115 113 116 119 125 126 133 136 136 158 168 183 204 213 224 233 240 247 248 243 231 252 234 242 233 231 230 231 230 230 228 230 230 231 232
