P2
# Generated by OpenCV 4.2.0
92 112
255
 193 192 194 194 194 196 212 220 227 230 226 219 209 196 173 177 182 193 199 198 201 199 198 196 201 205 194 184 177 163 147 141 137 146 162 171 169 175 160 171 173 171 169 191 192 189 202 200 189 194 195 189 195 203 183 185 166 154 151 148 144 138 133 143 163 175 166 186 188 159 144 145 129 117 125 129 135 138 137 125 106 107 106 116 125 122 101  92  98 105 121 128
 194 194 195 193 195 197 206 214 220 216 210 202 193 185 177 184 188 194 195 197 200 196 196 199 194 181 176 168 147 139 137 140 139 136 151 164 162 159 166 163 159 165 165 163 181 191 193 168 160 169 158 176 195 174 170 162 149 141 136 131 126 114 149 147 130 147 166 179 168 180 156 123 126 121 122 125 131 132 134 129 112 107 104 107 118 119 103  88  98 104 119 128
 196 195 195 194 194 195 202 205 210 210 205 195 185 181 178 186 192 196 196 197 198 198 198 195 188 182 156 120 106 110 125 141 148 148 147 148 152 146 146 156 155 154 160 156 160 174 170 148 164 136 158 163 161 147 139 126 120 132 115 126 112 116  98 102 109  95 107 141 176 151 169 146 124 122 123 125 130 127 128 127 111 104 100 100 106 110 100  84  92 100 114 128
 198 196 195 195 194 195 203 207 212 210 208 204 193 182 175 186 192 197 198 198 197 200 198 187 171 138 110 114 126 118 124 132 135 144 139 143 144 140 138 141 151 153 163 153 154 156 155 152 149 141 144 159 133 150 135 109 122 125 116 117 119 126 123 120 117 108 103 112 148 168 131 159 146 125 123 124 122 127 128 124 111 100  94  90  95  95  97  83  81  98 112 119
 197 196 196 195 196 196 202 213 218 218 212 201 197 190 180 187 192 198 200 200 198 198 183 153 137 120 119 122 118 120 119 129 129 133 135 133 133 131 127 129 141 138 152 145 148 138 136 145 141 154 145 149 111 146 140 120 130 124 131 120 120 125 117 115 115 128 130 106  92 155 162 121 168 141 138 132 135 126 120 116 113 105  95  87  89  92  89  79  76  91 107 105
 199 196 197 196 196 198 202 208 211 216 215 205 196 192 186 185 193 192 203 197 188 176 156 143 120 109 113 116 115 127 125 123 135 134 131 122 120 119 113 112 122 116 129 128 127 120 120 124 129 140 121 131 118 131 124 132 132 125 103  93 102 110 107 113 112 109 127 148 127 100 162 150 139 155 138 138 125 123 114 114 116 105  96  88  85  84  80  74  74  86  96  98
 198 198 196 194 195 197 201 204 202 196 203 204 194 191 188 183 187 192 192 181 172 170 155 126 106 113 122 117 110 120 123 115 126 121 109 105 105 107  93  86 101 103 116 106 118 118 107 112 128 124  98 113 142 115 111 112 112 103  80  85  84  93 107 101  96 103  94 108 139 116 115 174 145 151 146 138 125 123 117 116 120 108 107  88  79  78  76  78  82  89  93  91
 200 198 197 197 196 198 197 196 192 187 187 192 191 183 183 183 184 183 178 188 180 163 143 122 120 123 120 109 116 118 111 102 100 109 103  99  90  99  90  81  90  94 104  93 121 112 105 101 125  96  92 114 125  98  96  93 101 103  73  78  62  61  61  80  98 106 104 107 120 134 113 138 168 133 149 130 123 118 118 119 119 109  97  73  68  78  80  75  82  87  84  82
 196 199 198 199 197 197 194 191 190 188 185 187 187 179 175 180 180 176 188 168 159 159 133 111 116 111 102 106 127 123  99  89  83  92  95  96  93  89  93  91  89  96 105 111 115 127 110 124 110  96  86 128 103 100 101  95  97 102  75  91  72  71  64  68  68  82  94 105  99 125 128 113 143 157 144 128 118 105 114 120 124 108  85  67  67  73  74  74  80  86  82  78
 198 199 198 198 199 197 196 195 194 191 190 190 184 184 178 181 181 181 186 159 171 147 124 115 107  94 117 133 122 106  97  89  86  89  91  99  94  89 100  97  98 104 113 131 129 143 123 134  99  94 117 121 103  96 105 102  98  96  72  80  66  63  65  64  62  84 100  97 113 102 115 124 113 167 139 129 101 111 109 121 124  97  83  70  64  63  67  67  71  78  77  75
 198 199 198 199 199 200 197 197 195 194 191 192 186 187 179 177 175 181 164 159 161 133 111 112  96 104 128 116 103  98  98 101  97 101  96 102  95  97 115 103 114 112 144 141 157 174 131 141 123 125 122 115 106 110 111 107 101 104 110  96  79  59  52  66  58  71  83 103 115 115 105 118 112 147 159 137 113 117 116 122 123 103  81  69  58  55  58  57  63  70  71  71
 198 197 200 199 197 198 197 198 197 197 194 195 196 191 180 183 178 176 160 158 155 116 113 113  90 118 129 108  99 111 122 131 120 112 106 106 105 112 124 127 132 136 170 160 178 167 174 171 147 128 130 122 111 119 117 107 116 132 142 133 124 103  77  57  60  68  73  94 103 113 116 111  99 121 160 145 134 125 117 117 114  94  73  62  54  51  51  58  62  71  72  68
 198 199 199 199 199 199 199 198 197 197 196 192 194 189 192 179 175 166 151 163 134 113 113  94 117 123 117 121 133 149 147 135 127 123 135 137 141 146 142 158 141 160 162 155 173 198 190 185 153 146 143 141 134 127 127 127 142 154 152 150 157 146 122  79  62  58  63  72  95 104 111 103 110 113 142 150 135 132 122 115 107  87  67  53  51  52  49  58  60  68  69  63
 197 200 199 199 200 200 199 196 197 198 197 195 198 193 192 184 170 155 162 155 128 117  99 103 124 114 120 149 166 163 150 143 141 148 160 159 163 169 158 163 149 167 168 169 186 190 172 175 164 153 151 153 145 139 145 145 152 154 152 157 163 155 149 150 118  91  71  66  61  82 121 122 106 101 117 146 124 135 124 109 108  84  69  63  58  52  54  64  60  61  64  60
 198 197 199 200 200 201 199 200 199 197 195 194 192 194 191 184 163 158 172 131 129 106 101 115 122 135 164 171 159 157 156 163 164 167 174 173 170 171 167 168 161 170 173 180 179 182 170 174 172 162 157 159 156 155 158 159 161 163 155 152 154 157 158 154 146 124  80  53  76  43  66 127 119 106 111 141 143 100 130 111 108  84  71  65  65  59  53  65  62  61  64  56
 200 199 198 199 200 199 199 199 198 198 197 193 193 198 190 176 157 163 149 136 118 110 105 109 124 172 168 153 155 161 168 171 170 165 166 171 171 172 177 178 171 177 182 191 187 182 183 176 168 169 164 164 164 162 161 162 156 157 156 157 153 152 150 153 157 153 134  82  53  81  41  66 118  92 122 117 162  86 111 118 103  83  73  66  66  61  63  58  55  61  70  61
 202 201 199 199 200 200 200 200 200 198 198 201 195 193 191 170 159 159 134 132 120 104 101 133 169 160 153 158 166 168 170 170 171 170 170 174 173 173 174 176 175 179 184 191 193 178 187 180 172 167 165 166 163 173 170 165 165 168 165 167 165 163 156 154 153 153 159 136  89  62  68  36  64 119  92 128 134 129 108 124 103  88  73  67  65  61  64  58  54  53  63  65
 203 201 201 200 200 199 199 200 201 199 197 200 193 189 180 148 151 149 125 123 112 110 137 162 154 151 165 166 163 171 169 168 170 176 176 170 172 173 175 172 172 177 177 181 187 175 188 180 176 173 171 172 168 172 176 169 169 169 165 168 170 171 164 164 161 154 154 154 151 102  72  70  53  83 104 114 140 134 111 114  91  87  63  65  67  67  65  61  65  49  64  68
 200 202 202 200 199 198 200 200 199 199 196 201 180 173 164 148 155 135 122 111 107 123 153 152 162 178 164 164 170 170 166 172 177 176 175 175 177 178 176 173 173 179 182 187 193 178 185 181 182 174 171 175 174 172 175 172 171 176 177 172 167 171 172 168 164 165 157 154 151 152 118  66  63  58 102 101 130 133 121 116  97  67  70  73  68  77  69  66  70  47  54  63
 196 201 201 200 201 199 200 199 199 200 200 184 191 190 169 158 140 128 125 103 127 153 160 165 172 168 168 171 170 172 167 172 177 177 174 181 175 177 175 168 173 176 187 189 196 183 186 183 186 171 166 175 172 170 174 174 169 172 178 178 171 176 174 170 173 162 162 163 163 150 147 108  68  61  71 103 114 136 114 119 117  88  71  67  69  87  82  73  73  47  41  50
 194 198 201 200 201 199 199 198 201 198 191 194 197 178 157 152 133 126  99 131 158 163 171 167 168 168 168 168 165 166 169 174 177 174 176 173 168 170 172 170 174 174 182 186 192 182 182 179 183 174 175 180 171 167 173 174 169 169 180 180 179 178 172 173 167 169 166 161 161 159 158 144  99  66  67  98 105 129 120 118 127 125  88  69  70  82  79  75  77  57  43  41
 189 193 198 203 202 201 198 198 200 195 190 195 195 164 146 142 130 113 116 161 162 171 166 166 171 166 167 170 168 166 169 173 174 171 172 174 176 174 172 176 177 175 185 187 190 183 179 181 186 185 182 174 171 172 173 179 177 175 179 186 186 195 189 177 173 171 170 165 163 157 153 155 133  79  65  80 119 107 125 113 109 121 100  74  66  69  71  92  78  72  53  38
 191 191 194 202 202 202 200 200 202 196 190 192 185 158 142 128 119 110 161 169 171 173 161 163 168 164 162 162 169 168 170 172 173 169 171 171 172 171 167 169 180 178 182 184 184 184 178 184 184 185 184 181 176 182 180 175 175 178 181 181 175 182 190 187 186 176 173 171 173 165 153 155 154 129  91  67 125  91 122 123  99 100 115  77  51  57  60  96  81  67  73  44
 189 189 192 198 202 202 201 200 201 194 183 183 168 145 131 123 115 145 169 172 171 164 168 166 166 170 167 169 175 176 171 171 171 168 172 173 176 175 174 176 177 179 181 180 182 185 180 184 182 182 189 186 178 178 178 177 178 188 195 194 187 183 182 181 182 177 174 167 168 175 160 155 157 161 124  75 105 112 100 135 114  97 113 113  46  51  47  94  86  80  67  50
 186 187 190 195 197 200 204 202 204 191 185 173 154 131 119 123 134 165 171 174 170 172 166 165 168 170 175 173 176 177 174 180 180 174 177 177 178 179 180 180 180 183 181 179 181 183 180 181 180 181 194 185 168 167 175 179 177 185 195 198 199 200 186 183 175 173 177 178 179 174 171 157 155 163 142 124 104 133  78 114 134 118 131 131  65  43  45  81  90  94  62  49
 182 186 189 193 195 199 202 201 206 205 170 165 140 125 128 125 159 176 177 179 172 172 168 168 170 168 172 171 177 183 184 186 185 178 179 177 177 180 180 181 181 182 181 182 183 181 177 178 180 183 194 188 173 177 184 180 180 183 183 187 188 190 194 189 181 179 179 177 178 176 168 159 159 163 154 140 110 138  67  87 124 120 131 118  90  53  45  65  74  83  67  51
 183 185 187 191 194 195 199 200 209 171 161 148 114 135 112 140 171 180 175 176 171 173 170 168 169 172 181 181 181 179 181 182 182 181 180 176 176 178 174 175 178 177 177 179 178 180 180 178 179 181 181 178 178 181 184 172 182 188 186 181 179 182 183 184 182 184 180 170 175 177 167 158 159 161 165 141 112 137 104  52 109 102 127 133  97  67  14  69  77  75  75  52
 185 183 186 189 191 195 198 201 197 164 165 119 118 111 105 178 175 181 171 175 173 178 179 177 174 182 181 186 183 177 181 178 179 180 178 174 174 179 181 177 181 179 175 178 180 180 178 178 179 181 180 177 179 183 181 169 177 185 189 187 188 183 175 174 174 182 178 170 170 171 165 160 157 159 158 150 121 109 146  40  78  95 115 149 147  90  80  34  96  75  69  56
 190 184 184 189 190 192 195 198 204 162 134 112 124 136 171 180 176 176 168 174 175 176 182 175 171 181 180 177 177 179 180 177 178 175 173 177 179 181 182 179 182 181 177 179 180 182 183 180 179 177 181 175 178 181 177 168 165 170 179 184 176 183 182 177 171 173 171 172 171 167 163 158 157 156 157 157 148  99 132  97  53 103  93  99 153 100  42  34  64  79  75  58
 192 187 184 185 188 190 195 202 186 141 114 117 135 146 148 166 179 177 172 177 174 176 183 172 169 177 178 176 175 177 175 177 177 172 175 182 178 180 180 177 180 178 178 178 182 181 178 175 176 176 179 176 177 179 180 178 172 175 181 179 179 173 170 173 177 174 170 170 169 166 162 157 159 161 158 150 150 132 121 110  54  85  60 106 130 125  72  26  47  63  65  57
 195 190 185 185 185 193 191 199 158 167 120 135 155 148 160 176 181 175 176 174 174 178 173 170 170 176 176 177 177 175 175 178 176 174 175 183 180 180 178 176 180 177 178 179 182 181 178 173 173 174 177 175 172 174 174 172 174 173 177 176 173 172 171 167 172 173 170 171 170 162 165 158 153 155 154 151 132 125 135 121  87  39  94  56  92 115  73  40  40  50  52  58
 196 194 188 186 184 189 189 184 177 144 114 152 138 144 154 166 180 172 173 175 174 177 172 172 171 176 174 175 175 175 172 173 175 172 172 173 173 171 167 164 169 172 175 177 174 169 171 169 169 172 167 169 172 175 177 173 172 166 164 162 167 163 164 163 166 168 168 168 165 154 156 158 159 155 145 151 145 114 119 122  81  75  62  56  62 138 125  59  43  52  57  60
 198 197 195 185 186 182 191 191 158 140 133 154 131 146 160 169 181 173 168 172 172 175 173 170 168 173 170 170 170 169 166 162 164 166 167 170 171 175 177 176 174 175 177 179 178 176 179 175 179 177 175 176 173 176 175 170 172 173 176 175 169 163 167 168 168 168 168 163 164 154 143 153 158 153 145 137 138 131 104 116  82  69  87  84  53 143 138  80  61  52  65  58
 203 202 201 190 189 184 188 179 179 124 143 139 134 150 162 165 171 170 167 169 167 170 175 171 162 161 166 162 166 171 167 166 168 173 173 178 177 176 177 178 177 177 178 178 178 179 180 173 173 174 169 170 167 167 168 163 167 166 165 165 163 164 168 168 166 165 168 159 157 155 160 154 156 155 144 144 141 130 119  94  94  62  66  90  88 134 138 101  72  70  79  64
 201 198 200 199 192 192 186 180 155  92 150 125 146 143 150 165 169 169 166 168 169 170 170 170 162 166 171 173 175 171 169 174 172 173 173 178 175 174 177 181 181 179 180 180 178 181 176 173 174 174 172 167 168 168 171 167 166 166 161 162 167 168 168 165 168 168 164 160 159 157 159 151 155 153 145 141 133 130 126  98  93  73  50  54  91 107 176 119  93  76  83  73
 199 197 198 201 197 186 163 152 114 123 152 126 125 135 156 166 168 167 167 167 163 167 174 175 167 164 166 171 175 169 168 178 175 177 174 178 175 173 177 179 179 179 180 179 175 174 177 174 172 169 170 172 170 172 172 167 172 169 165 168 170 167 166 165 169 166 161 163 161 154 153 154 154 147 147 142 131 132 133 111  83  69  62  56  61  72 107 125 116  93  84  67
 196 196 195 191 198 197 178 144 109 143 135 112 118 140 152 159 165 166 165 165 168 166 172 174 170 169 170 175 175 174 171 177 173 175 175 176 175 177 179 175 172 173 175 173 171 172 171 167 171 172 177 174 174 175 172 171 174 172 176 174 171 171 171 167 166 164 159 161 160 149 154 156 155 148 146 140 131 129 124 117  95  64  73  68  55 107  85 116 116 106  86  62
 189 189 190 204 200 185 167 146 119 143 102 109 130 135 143 163 170 167 162 161 167 165 164 170 173 178 173 170 169 168 168 168 174 172 169 172 168 162 167 169 164 176 176 176 177 176 177 174 180 183 183 180 184 180 175 175 168 166 169 167 162 170 166 164 164 160 154 154 151 146 154 154 152 147 142 131 126 120 112 116 102  60  73  66  66 103 146 104 121  98  74  75
 189 187 190 197 206 198 155 116 100 130 107 117 126 131 145 160 168 167 165 163 169 167 166 170 170 164 166 171 173 172 174 179 180 182 182 182 174 170 175 172 166 177 176 172 175 176 177 173 179 182 179 180 184 182 177 176 174 172 171 166 165 167 163 160 162 162 158 156 153 151 153 150 156 154 151 137 131 112 102  98 112  77  57  85  99  95 152 139 128 110 108  95
 192 191 195 194 191 190 164 127 122 119 123 114 122 139 150 166 170 167 172 162 166 172 165 165 170 171 178 179 177 175 175 177 182 185 187 184 176 177 171 177 166 172 172 167 171 175 174 171 177 179 178 179 177 178 181 178 174 173 175 178 177 171 167 159 161 161 159 155 154 146 144 149 159 146 145 152 132 127  96  81  85  92  56  83  96 118 127 119 141 117 132 136
 187 192 196 201 202 158 122 115 121 118 107 116 126 144 155 163 166 167 165 164 168 167 164 170 175 174 176 179 176 172 174 173 173 176 178 181 174 179 178 177 162 174 176 170 173 178 177 173 176 175 171 174 173 171 171 173 171 174 175 176 175 173 172 168 167 163 159 156 156 153 152 157 153 143 141 144 137 117 102  91  80  88  62  77  93  84 130 160 145 158 163 183
 179 193 199 197 195 161 167 114 119 122 108 109 121 137 156 166 165 164 162 169 167 169 173 176 178 176 175 175 174 171 173 174 179 179 176 178 175 174 185 179 162 176 177 168 176 177 175 177 174 175 172 171 173 173 171 173 172 174 176 174 174 174 174 172 173 170 168 163 161 157 155 152 137 144 143 135 134 114  98  83  87  81  82  54  58  98 140 123 147 137 196 201
 181 196 197 201 201 164 156 110 119 116 109  91 108 130 152 168 167 162 167 165 162 172 173 173 178 181 178 179 182 181 178 178 182 174 173 180 178 169 181 173 165 173 180 164 167 173 172 172 173 178 176 177 182 182 181 179 182 185 187 185 180 184 184 178 173 171 171 165 160 157 153 147 145 148 147 131 114 115 104  70  69  82  72  79  88  86 126 130 155 175 208 214
 180 196 198 198 207 162 121 126 112 115 101  72 115 141 153 163 167 167 168 167 172 175 175 178 176 174 179 183 183 182 183 180 184 180 180 181 177 176 174 173 167 160 184 166 159 171 170 167 172 178 177 179 180 179 178 176 175 171 171 172 167 162 171 179 179 178 177 169 164 161 154 152 155 152 143 140 131 110 110  74  63  70  72  65  80  87  60 193 148 174 209 213
 175 190 194 192 173 174 141  94 113 119  84  87 104 148 164 164 167 170 169 177 176 170 164 166 166 163 162 160 166 166 173 176 172 169 169 170 168 166 163 171 160 153 178 165 153 167 163 161 163 166 165 167 166 163 164 167 163 158 159 155 153 158 164 169 169 169 176 164 163 160 151 154 150 151 146 141 135 113  99  87  63  69  76  47  58  75  77 112 152 203 202 206
 168 173 195 174 172 148 130 115 106 119  79  82 118 154 161 168 169 169 167 175 167 171 168 165 163 154 154 152 156 152 153 150 149 153 155 160 164 161 160 168 156 157 168 165 146 162 156 162 160 159 149 145 142 134 141 144 137 135 141 137 129 137 136 147 160 172 171 159 160 158 150 154 146 148 146 145 136 123  89  87  61  51  58  56  45  48  60  72 143 154 195 197
 154 149 178 189 159 132 124 109  97 105  74  78 114 156 160 168 164 170 178 181 174 171 156 146 143 138 138 132 129 120 118 120 124 136 134 144 151 157 162 154 150 160 165 152 142 153 156 157 159 150 131 119 115 102  99  97  91  90 105 122 135 138 135 135 143 158 167 163 164 159 150 150 147 147 143 146 136 133  88  78  69  58  51  63  33  39  44  74 114 126 186 193
 155 146 155 168 144 144 113  81  99  98  71  81 109 159 166 167 165 173 181 172 162 150 143 147 143 145 136 113  96  91  89  95 109 109 109 125 141 155 150 148 147 152 157 155 145 153 153 152 145 129 107  97  96  87  75  73  80 100 109 113 123 117 131 130 128 139 154 157 164 157 150 143 148 149 141 149 135 132  97  71  67  54  45  48  51  33  44  48  73  89 180 182
 170 168 162 161 164 152 132 108 109  83  70  74 117 163 165 162 165 170 172 167 156 151 154 147 136 141 146 141 141 124  97  85  92  88  90 109 122 136 147 147 145 150 156 161 155 157 151 144 127 100  80  75  65  64  77 108 132 158 162 151 151 138 131 148 138 129 133 144 156 149 150 143 152 143 142 148 134 132  97  65  70  44  59  37  57  58  58  66  72  66 168 168
 197 186 173 169 172 156 126  96  80  83  90  77 134 163 169 169 168 170 160 150 145 150 141 141 149 161 167 168 169 164 159 144 119  94  86  77  87 119 139 154 150 149 156 166 164 157 144 123  94  73  64  60  72 106 143 167 184 186 166 182 170 167 158 146 149 140 143 145 153 150 150 142 149 144 141 143 138 136  97  67  68  40  46  43  39  54  60  59  81  84 149 149
 208 199 189 176 166 159 125  89  60  82  97  87 136 169 164 164 167 164 145 135 140 150 143 149 161 175 175 177 172 166 165 162 163 161 131  93  67  68 110 154 160 156 161 170 170 160 146  99  78  59  77  99 131 119 101 113 120 145 177 170 166 154 168 160 151 150 147 130 131 138 147 144 148 147 142 146 144 141 104  71  65  37  36  40  44  54  57  59  76  83 137 147
 213 205 201 181 163 169 135  84  67  86  97  93 141 168 168 165 168 165 140 133 135 137 147 169 184 180 175 161 137 115  93  70  77  94 122 125  82  58  58 134 165 168 174 173 172 162 136  85  79  84  97  99  72  95 114 107 145 137 129 153 181 167 164 164 167 167 147 143 138 139 149 148 151 148 139 143 144 136 113  68  67  36  56  31  47  44  48  64  86  86 140 151
 217 207 201 192 176 151 134  88  72  88  97 111 151 167 167 165 165 162 141 145 159 158 159 168 184 155 110  54  29  66  86  91 130 116  99 112  88  75  79 124 162 175 176 174 172 170 138 112 111 105  94 128 129  85  40  62  55  61  99 106 113 166 166 155 156 154 154 150 140 132 144 154 149 149 142 143 139 140 119  71  56  39  46  40  50  62  65  72  69  65 132 136
 213 205 196 192 175 142 120  87  85  76  94 113 146 168 169 167 164 157 142 148 156 164 169 154 111  44  33  19  42  67 125 150  97 104 136 125 113 104  98 141 181 171 177 173 171 161 139 142 146 153 157 114  60 102  74  81  13  64  55  83  82  95 146 166 162 154 159 150 140 146 148 148 148 144 144 144 146 147 127  82  49  40  41  42  48  51  60  60  71  77 125 139
 211 204 197 193 176 172 142 105  77  79  84 110 150 169 168 174 167 170 169 161 157 137 132  79  60  51  81  81  88 102 131 163 161 107  80 123 165 156 126 153 182 169 182 171 170 152 145 140 172 178 142  99  93 132  69  92  91  98  67 125  95  76  62 100 146 151 143 148 153 157 158 150 153 153 151 149 147 145 129  94  49  59  69  62  48  54  59  57  56  65 116 128
 196 192 200 193 183 198 127 117 109 112  80 112 152 173 169 171 162 148 134 151 144 106  67  79  60  82  65  73  78 117 150 136 168 140 151 156 161 141 146 164 171 177 173 173 169 156 145 150 153 167 169 156 136 150 144 127 117 111 102 138 125 119 115  86  62 105 153 149 138 130 139 147 150 154 152 150 152 145 133 100  58  56  57  49  52  55  56  72  76  78 135 124
 195 199 196 188 198 212 113 110  95  86  92 119 157 167 170 172 167 167 159 133 108 105 110 116 129 148 145 136 147 149 131 137 139 148 147 148 150 141 165 165 178 177 173 171 167 157 142 145 151 164 164 159 154 143 142 155 157 147 160 141 137 134 131 139 142 118  97 114 139 159 161 150 158 155 152 152 150 145 135 107  72  56  52  56  64  66  67  74  90  69  97 137
 199 199 193 191 196 202 122  95  93 102 108 125 154 168 170 176 172 163 168 176 174 187 176 166 156 133 119 111 119 127 136 146 148 146 139 146 148 160 173 168 177 172 171 173 170 164 145 137 150 167 159 154 153 160 156 152 149 147 139 136 145 153 171 171 167 182 178 162 156 148 154 159 158 156 155 156 144 133 130 102  81  63  62  73  75  80  79  85 110  81  90 112
 204 201 185 190 186 194 137  89  97 125 117 120 156 169 171 175 179 176 176 173 171 177 181 185 184 178 172 170 169 166 157 148 138 136 147 156 151 164 165 167 180 177 173 174 167 167 153 143 147 170 174 168 150 149 163 157 163 169 169 173 171 173 172 172 172 168 169 168 170 164 158 157 159 155 149 146 144 137 134 103  86  82  76  78  80  93  83  80 100 102 109 109
 202 177 172 170 176 181 141 104 126 121 111 116 157 174 171 176 179 176 177 176 178 176 170 172 172 173 172 170 163 153 149 148 141 148 155 161 158 169 168 163 167 168 169 167 164 168 152 141 148 172 179 181 165 144 154 161 162 162 160 158 163 166 166 153 153 154 155 158 168 169 167 169 159 154 155 147 140 137 132  99  86  87  92  88  89 100  58  66  81 132 101 147
 187 171 190 174 171 177 143 121 116 109 113 121 152 174 174 178 178 175 176 176 175 173 178 177 176 173 162 157 152 146 148 145 140 149 165 165 169 166 167 165 168 178 171 165 168 158 155 148 142 166 175 178 176 156 148 152 158 163 172 166 169 165 155 158 162 163 170 174 163 173 172 169 157 150 149 143 141 138 127 100  92  86  91  96  94 100  47  89  98 159 101 190
 181 169 186 199 192 167 147 109 113 115 123 128 154 173 172 175 175 177 179 178 180 172 164 157 159 152 147 143 143 144 144 145 147 165 159 163 170 159 169 164 161 173 168 167 168 160 153 156 135 158 169 168 182 175 164 155 149 151 157 155 164 175 185 176 174 167 165 169 170 165 167 160 161 157 146 143 140 135 127 101 103  81  91 109 106 114  57 106 126 156 119 208
 179 171 188 187 198 196 149 114 102 123 125 115 149 177 171 169 175 178 181 178 180 181 175 173 169 162 150 143 144 143 144 149 170 167 165 168 161 161 162 164 163 163 166 165 158 153 152 157 130 146 163 158 170 178 171 161 156 159 154 144 143 146 147 159 162 177 183 176 166 170 174 160 158 149 147 143 139 141 126 103  95  68  83  94 104 117  69 126 145 145 145 209
 170 168 185 203 182 161 150 120 121 137 127 103 150 167 176 175 179 176 178 178 173 187 185 159 147 145 146 148 149 145 154 171 169 168 164 170 159 164 162 168 167 161 160 163 161 161 165 164 140 139 158 161 162 171 171 173 173 159 165 173 172 167 169 171 173 170 168 172 171 168 168 155 157 150 147 141 138 139 120 124 103  38  79  89 112 126 100 134 146 134 158 208
 176 127 130 139 154 149 131 138 128 137 129 107 158 165 173 167 171 175 177 178 178 164 159 160 175 169 164 151 145 155 174 174 164 160 158 161 154 160 172 172 165 165 164 165 165 166 161 161 151 141 153 162 162 161 172 172 170 168 162 162 168 169 166 166 168 168 164 160 165 166 166 153 150 152 147 137 132 138 133 152 163  35  86 106 113 129 128 134 155 144 155 218
 182 155 151 140 147 164 170 156 129 131 121 111 154 162 171 174 169 172 172 177 162 162 173 169 165 164 154 151 169 180 180 173 169 166 163 154 156 158 169 168 159 163 161 162 160 162 162 159 156 141 150 160 156 161 171 167 171 167 168 168 164 166 170 170 167 166 168 165 162 163 159 154 152 148 145 138 134 138 136 166 192  60  98 114 109 137 142 114 175 144 154 217
 174 150 145 198 203 196 185 165 141 145 114 113 151 166 170 170 170 169 171 167 170 173 171 177 180 166 159 169 174 168 172 170 163 158 157 155 155 158 164 165 162 169 162 161 159 154 149 148 153 138 141 161 157 159 165 164 171 170 176 169 167 163 164 170 166 164 161 157 163 158 148 154 152 145 141 142 134 135 137 166 169  90  98 108 129 150 145  95 178 161 167 219
 189 173 163 168 196 187 191 179 157 156  93 115 142 166 172 175 174 162 169 170 176 165 176 167 163 143 161 178 177 176 171 163 160 155 157 154 154 156 172 171 164 165 160 162 159 154 151 149 153 142 130 152 160 158 157 165 169 168 169 170 173 165 155 155 155 162 159 157 152 147 144 150 155 144 142 145 130 125 154 166 147 127  97 104 132 154 140 170 129 209 176 208
 201 177 178 167 191 197 184 183 152 150  99 106 143 165 168 164 166 164 174 173 165 146 149 134 143 162 179 186 176 172 165 161 159 156 159 164 160 161 174 167 162 167 163 161 154 151 153 152 157 158 142 147 164 162 160 166 169 173 164 168 167 172 168 160 161 151 153 152 147 146 141 148 145 146 141 137 128 115 138 158 142 142 103 124 150 155 130 216 143 203 193 204
 204 209 192 205 171 200 186 188 136 169 134 144 143 162 169 164 167 174 175 148 135 141 158 163 182 186 181 180 179 176 163 161 158 156 165 162 163 166 161 146 159 170 164 163 158 153 153 154 163 163 150 148 152 151 154 161 172 173 167 165 170 169 167 167 169 163 162 152 142 142 146 151 141 137 141 138 127 124 139 146 156 146 139 131 164 154 148 210 180 185 191 217
 205 200 202 207 205 190 189 192 137 138 173 158 134 152 164 161 172 167 145 143 170 180 180 180 183 186 181 176 171 160 159 158 154 154 165 171 163 166 161 150 158 161 164 158 159 158 145 163 163 155 147 146 162 153 150 158 165 168 173 167 163 162 161 156 161 161 158 144 141 144 152 150 146 139 142 130 116 120 121 142 165 166 172 160 169 131 150 176 197 174 196 203
 206 208 194 200 211 188 193 187 160 101 170 160 136 156 163 165 169 155 147 170 176 173 170 175 176 179 173 173 170 163 158 157 156 155 166 164 158 160 153 154 157 152 157 157 159 162 151 143 145 151 148 136 161 152 151 152 156 172 176 175 162 159 158 149 144 139 143 139 135 146 147 149 147 140 145 130 117 121 133 148 156 162 160 158 123 144 158 140 176 148 185 191
 206 209 204 203 205 204 185 188 166 143 166 144 124 149 162 171 163 148 167 152 162 173 172 174 168 171 173 170 163 156 155 152 152 149 149 156 145 147 153 142 138 134 145 151 147 134 129 139 135 127 130 144 167 162 151 152 157 170 173 176 176 171 162 161 152 137 140 142 144 140 151 157 153 145 149 133 109 109 138 141 133 134 153 143 150 162 152 131 149 138 176 172
 206 207 205 196 201 207 193 193 136 156 166 156 129 160 160 170 163 153 172 154 161 168 177 179 169 170 171 166 165 155 149 151 155 150 117  84  99 127 129 129 115 118 127 122 122 119 114  69  47  76 109 153 157 163 145 150 156 163 163 174 175 174 171 166 157 152 144 140 154 143 151 159 151 148 147 129 112 103 148 167 164 157 158 156 165 147 130 141 123 131 153 148
 206 209 210 196 197 203 188 142  96 157 158 181 147 135 158 172 158 163 172 162 167 172 166 160 167 175 174 166 159 154 148 152 158 157 146 103  57  62  89 103 107 107 105 100 106  85  37  31  50  91 127 155 162 171 159 147 143 157 160 167 168 163 164 168 160 164 158 144 156 156 155 162 154 146 141 126 116 108 141 170 172 164 155 156 154 121 131 133 113 129 141 145
 207 207 206 175 171 167  97 119 108 105 175 165 150 133 156 166 161 174 153 164 173 164 170 175 179 166 165 161 152 147 148 170 165 139 152 150 116  69  38  39  48  42  67  71  50  36  59  91 115 140 143 155 167 176 170 160 137 144 159 170 168 163 163 163 161 165 160 146 149 164 160 161 155 144 143 126 115 112 143 150 157 153 152 145 108  97 128 122 118 123 117 124
 208 208 211 196 167 152  87 153 142  82 120 148 120 123 152 166 167 170 151 166 165 166 171 175 175 152 154 153 135 147 165 159 157 154 150 141 127 110  94  69  44  47  50  53  72  95 117 128 121 134 141 151 160 163 169 167 154 142 142 160 164 166 164 162 164 159 155 156 162 160 168 161 154 147 133 130  99 115 134 129 133 148 126 109  36  73  82 111 126 122 112 124
 207 208 202 214 206 160 168 167 121 119 109 159 133 125 154 160 168 163 173 158 144 163 175 166 159 160 141 132 150 163 149 148 157 154 143 138 132 110 105 107  88  75  61  98 110 109 122 123 121 155 142 145 140 152 162 164 163 153 135 146 157 165 160 159 159 155 149 150 164 158 166 160 156 142 135 122 115 127  66  54  78  50  92 109  86  91  81 100  85 130 139 146
 206 207 209 207 205 170 145 132 114 158 134 193 150 115 154 158 167 170 167 148 158 178 159 168 155 131 119 145 165 144 141 141 143 137 134 141 140 140 127 124 128 144 140 113 121 134 135 126 130 138 127 129 120 143 140 149 148 164 154 117 146 154 163 155 150 153 151 145 168 160 157 160 149 141 135 120 111 121  94  78  81  55  22  65  55  78  69  83  57 112 161 171
 208 208 205 210 209 188 116 165 136 149 157 179 146 111 153 153 167 168 164 148 161 157 168 154 140 109 156 158 142 133 141 131 136 138 135 136 143 149 144 128 136 140 132 114 126 126 133 121 128 104 124 115 104 126 139 142 147 151 167 159 113 148 154 156 155 144 142 134 172 162 150 158 143 143 138 112  94 113 112  59 138  79  82  75  63  86  54  71  66 164 186 197
 209 208 209 205 215 183 147 128 156 129 171 207 163 132 143 151 162 167 162 146 163 157 166 140 112 149 158 147 138 132 125 136 129 132 129 137 134 140 141 123 134 140 137 127 139 132 128 125 120 115 117 116 108 120 138 131 137 138 142 169 139 124 139 152 143 142 140 135 163 152 149 147 140 136 141 101 104 118  88 103  93  91 116  94  75 116 158 163 188 181 192 205
 209 208 210 216 210 199 168 118 134  82 213 188 180 161 124 156 164 154 167 139 158 163 144 135 154 156 141 150 133 119 127 132 132 142 139 135 142 133 142 139 142 148 157 134 138 132 131 140 125 131 125 125 116 110 131 131 130 135 129 143 164 123 137 147 149 143 140 134 153 150 153 142 141 137 128  97 101 132  72  72  62  87  84 120 113 130 183 197 206 206 195 201
 208 209 209 209 202 210 196 175 120 138 195 180 198 158 116 177 152 166 162 146 162 160 158 130 168 150 151 142 125 122 125 131 145 142 153 142 146 140 144 149 156 159 164 146 135 129 132 143 140 143 139 132 120 114 116 108 136 126 154 142 159 133 129 151 153 143 136 131 161 151 146 143 136 132 128  98 104 121  70  87  72  69 111 133 122 121 182 208 214 221 215 201
 208 209 210 204 210 212 198 210 173 120 138 191 204 151 111 168 159 171 157 136 157 163 134 167 165 157 143 116 129 121 135 143 146 139 145 138 135 137 143 149 160 160 156 158 145 140 144 142 149 146 133 132 131 120 105 100 122 121 137 146 154 151 136 155 148 136 138 130 156 141 144 144 138 128 116  90  94 125  72 114 131  87  86 166 108 137 184 205 213 213 217 209
 210 209 210 209 209 211 197 188 178 204  94 185 206 168 130 161 158 158 158 151 160 158 163 170 162 145 139 145 111  73  73  71  82  95  95 101 104 109 119 129 132 127 119 129 132 120 110 114 107 106 104  91  84  63  62  57  72 125 134 144 148 167 145 159 144 136 143 127 149 137 127 135 134 124 106  88  96 130  58  89  94 117  68 179  65 159 170 198 202 216 204 200
 210 211 209 208 208 211 210 192 160 151 215 189 208 139 108 139 150 167 158 147 155 160 167 174 150 149 132 102  83 108 129 109 123 135 118 112  97 111 101 106  96 102  97  93  94 101  84  85  84  83  93 104 112 110 128 124  67 110 114 138 142 166 145 162 145 135 137 140 140 135 126 124 127 119  90 102 108 116  74 150 119 114  78 114  56 181 169 185 174 184 190 182
 209 210 210 206 209 210 207 201 192 135 177 198 146 123 172 130 161 150 156 149 146 161 163 169 149 158 121 135 155 154 153 160 180 182 182 188 182 183 178 172 167 155 158 157 151 154 154 151 156 149 153 158 164 158 161 150 133 121 132 137 146 163 141 152 148 138 122 142 133 139 122 121 125 110  84 107 123 123  56 129 117  99  98  80 122 176 148 162 159 171 176 174
 211 210 210 210 213 208 210 212 213 205 130 154 151 174 183 120 163 153 147 142 144 152 158 160 165 158 127 144 145 150 164 176 169 178 181 176 166 166 172 176 178 173 178 181 175 169 174 173 167 162 157 161 161 162 159 155 153 136 143 136 154 159 144 137 137 135 120 140 132 124 111 122 122 104  96 113 125 106  72  89  82  70 103  99 153 138 149 148 139 149 155 156
 210 210 211 210 209 208 210 209 214 200 181 150 208 201 190 150 145 159 149 143 155 158 157 156 166 144 136 153 167 175 171 167 172 177 169 168 165 163 157 154 152 161 160 156 156 158 164 167 159 158 152 159 163 164 166 162 161 153 142 147 156 151 140 131 132 128 127 134 131 112 109 109 102  92 104 124 122  83  85  68  50  67 130 171 157 209 204 178 112 127 132 124
 211 211 210 211 211 208 210 210 214 154 146 172 165 167 177 160 173 145 143 146 138 157 145 148 154 145 146 154 167 177 174 172 173 175 169 169 165 146 144 138 134 143 155 151 145 146 153 142 150 154 150 153 162 163 164 162 160 149 145 149 155 138 128 131 129 115 121 124 127 110 111 104  97 101 113 120 126  66  67  53  45  81 107 114  90  90 126 232 162  71  90  79
 212 211 210 211 211 211 211 210 216 165 131 116 149 196 171 145 131 149 149 135 139 152 148 161 152 147 157 156 169 176 172 168 166 168 166 166 160 128 142 138 139 145 147 149 138 125 139 135 147 155 156 155 161 164 159 155 157 159 157 145 141 131 124 129 129 120 113 115 111 111 105 103  94 102 118 120 136  47  33  37  65  56  64  92  61  31  52 170 232  99  55  46
 211 212 212 211 211 211 211 211 211 205 188  79  83  79 154 204 146 143 148 131 135 145 152 149 144 145 150 156 164 165 165 172 171 165 159 144 140 129 133 123 133 138 127 132 151 131 133 141 152 147 155 157 163 163 158 157 164 166 165 148 133 123 128 132 120 117 117 116 107 106 104  83  87 101 127 127 143  61  35  32  39  37  35  58  59  63   4 187 204 216  62  61
 210 211 212 211 211 211 211 211 209 211 208 192 104  71  73  91 111 128 144 136 134 144 148 157 152 147 162 165 166 162 166 168 170 160 160 149 150 149 154 135 132 136 140 119 138 137 130 128 146 146 156 153 158 154 153 160 162 153 149 140 119 133 132 124 113 119 126 119 118 104  87  86  97 124 129 129 130  61  37  29  35  39  60  59  66  83  26 189 200 214 165  22
 210 211 211 212 210 210 210 210 207 213 204 212 192 117  89  73 131 124 142 151 126 135 149 145 145 150 163 160 165 167 165 163 166 161 167 161 163 156 150 142 133 137 140 125 127 143 147 139 147 147 153 151 155 162 163 161 162 154 144 129 130 139 134 122 117 118 124 116 105  98  86  87 115 141 133 134 128  63  40  34  38  27  55  41  67  72 121 206 206 192 220  61
 213 212 212 212 210 211 210 210 208 212 209 203 198 190 177 121 115 101 116 149 138 137 133 136 135 148 156 161 170 166 168 168 164 165 166 161 160 163 148 140 140 151 126 121 140 159 153 155 159 156 156 158 156 156 162 163 157 158 147 128 134 121 110 104 126 132 119 111  97  86  87  95 131 140 134 128 117  55  39  55  46  31  76  29  61  68 200 204 207 200 222 149
 212 211 211 211 211 210 211 211 209 208 211 212 206 211 188 180 191 139 125 143 146 142 125 115 137 153 152 164 170 166 166 167 169 168 166 169 166 158 164 162 158 147 146 145 152 160 150 157 160 156 160 163 159 158 163 161 142 145 136 130 128 104 102 111 125 119 112 104  92  83  84 116 135 131 135 119 112  46  26  60  53  32  67  31  40 141 194 204 207 203 201 223
 213 212 212 212 211 211 212 212 209 212 210 208 208 208 182 135 127 177 184 154 140 131 134 135 141 148 141 159 174 170 169 171 167 171 172 173 168 164 159 160 155 151 163 157 155 155 158 161 162 160 163 164 163 162 154 155 138 129 127 115 115  97 113 131 122 115 117  91  77  83  98 132 127 142 138 125 120  40  40  58  29  43  49  54  32 205 192 205 202 189 192 207
 212 211 212 212 212 211 212 211 210 209 210 212 210 210 210 220 210 181 170 171 139 118 130 138 150 151 148 152 170 170 171 172 172 174 172 171 170 165 158 158 156 149 146 147 156 159 164 163 165 165 167 164 156 167 155 151 128 120 123 113 113 131 130 127 120  96  98  86  85  98 119 140 135 141 139 121 117  35  43  43  50  36  39  29 128 178 202 199 190 188 187 209
 213 213 210 210 212 212 212 212 211 211 210 210 211 208 208 210 149 139 164 168 169 148 129 119 119 128 140 155 158 168 169 170 176 173 170 176 171 160 161 144 143 155 153 161 158 161 166 164 168 171 171 167 155 153 150 140 121 106 116 114 118 133 142 116 100  96  86  81  89 119 139 138 135 144 139 118 120  54  47  63  73  42  45  84 159 186 204 197 183 196 188 211
 213 213 213 213 213 211 212 212 211 211 210 210 210 210 209 211 199 168 142 133 131 110 122 119 127 131 132 143 154 164 165 166 170 170 158 160 160 156 151 142 151 153 161 158 157 165 169 166 169 166 167 158 151 147 137 127 122 109 115 111 126 137 132 100  89  97  86  91 112 137 132 135 141 144 130 126 116  92  65  81  79  52  28 173 158 183 208 202 196 199 196 197
 213 212 213 213 212 211 211 211 211 211 210 210 211 209 210 210 206 205 206 215 204 189 148 119 123 130 146 154 151 151 158 162 162 163 157 156 154 143 143 153 150 146 153 139 155 154 153 156 159 154 158 150 142 132 123 122 117 100 104 117 131 127 107  99 104  95  88 103 143 151 128 133 141 143 126 125 109 102  97  76  87  36 130 165 156 181 212 203 200 200 194 191
 213 213 213 211 213 210 212 212 211 212 210 209 208 210 210 211 209 210 206 204 205 204 181 140  98 119 147 149 147 157 155 168 165 168 160 150 149 149 142 140 143 148 150 138 149 145 159 160 150 154 159 139 135 127 110 102 104  90  91 114 114 103  97 102 105  98 100 117 149 141 132 141 136 127 135 126 106  84 103  71  72 101 178 149 172 170 205 200 198 195 194 202
 214 214 212 212 212 210 211 211 210 210 210 212 208 209 210 211 211 207 204 201 204 207 204 188 136 116 118 140 139 161 144 171 156 142 147 143 134 145 139 127 140 147 146 145 141 139 157 152 126 155 167 146 137 133 111  94 100  87  91  90  99  90 101 107 105 103 111 158 137 133 147 143 137 128 139 119  97  74 104  65  72 139 178 174 175 177 190 202 208 203 203 204
 211 213 213 213 213 212 210 211 211 212 209 209 212 210 210 210 208 206 204 202 204 203 204 186 121 121 147 156 142 143 139 166 157 146 163 152 131 122 129 133 136 134 150 136 135 137 177 129 157 161 151 131 128 129 104  91  92  80  75  82  82  86 107 104 107 106 147 151 125 140 151 143 133 124 138 113  84 105  91  92  50 173 188 183 169 201 197 203 207 220 241 244
 212 213 213 213 213 211 212 212 213 210 211 211 209 210 212 209 207 205 205 207 202 198 205 207 198 107 106 110 150 126 139 164 156 146 162 143 129 134 109 119 121 127 147 123 134 136 128 125 153 145 154 157 136 120  94  93  84  78  66  79  79  88  79  89 101 144 148 125 136 149 149 139 127 129 121  98  66 103 114  77 150 187 197 187 205 129  48  44  41  39  70  78
 214 214 213 210 212 214 213 213 212 210 212 212 210 210 210 209 206 204 205 201 205 204 204 204 209 148 103 123  99 119 142 151 132 135 147 117 119 131 116 119 131 136 143 127 113 132 108 151 129 147 134 120 108 106  79  86  81  85  82  79  79  78  87 112 134 134 123 144 153 148 150 122 122 139 105  80  95 101 106  91 172 196 192 183  86   2  27   4   0   1   0   1
 214 214 214 213 213 213 214 214 213 214 213 211 212 211 209 208 206 204 204 207 199 201 207 201 195 117 124  97  82 124 175 141 142 126 137 113 137 133 110 105 129 144 139 119 126 125 138 130 110 125 129 111  94  91  78  75  81  80  75  70  76  83  95 113 116 117 149 152 150 148 145 129 142 130  96  92  88 102  98 147 183 196 218  62  13  34   6   2   0   0   0   0
 214 212 214 215 215 214 213 213 213 209 210 211 210 210 209 206 207 205 204 196 208 199 207 205 164 116 104 112 106 109 139 109 163 123 124 119 133 135 113 100 112 111 116 101 119 112 137 124 116 147 137  99  98  88  77  71  69  72  69  78  83  95 106 116 130 148 152 146 153 154 143 141 142 121  88 103  78 109 173 183 192 199 196   3  21  12   3   0   0   0   0   0
 214 217 214 213 214 213 212 212 212 211 211 210 210 210 207 206 207 205 203 203 202 206 197 190 137  92  73 106 110 123  90 115 123 111 121 125 125 114 123 109 120  95  94 122 112  86 106 108 106 118 118  64  82  72  67  63  62  63  79  76  85 110 128 134 151 154 154 154 152 150 144 147 141 109 105  90 101 163 163 169 186 219  90  20  21  18   2   0   0   0   2   1
 215 216 214 214 214 212 212 212 212 212 212 211 210 209 209 205 208 205 203 206 201 209 196 178 129  89  80  86  97  98 105 124 119 128 125 112 106 116  92 108 112 101  86 119  84  95  89  98  93  86  88  57  55  59  62  48  54  60  67  96 121 121 121 139 147 146 147 146 150 154 159 154 124  80 111  90 127 172 187 179 193 181   0  11  15   0   0   0   0   0   0   0
 216 216 214 214 214 213 212 212 212 211 211 211 210 209 208 205 203 203 203 205 206 204 198 173 126  83  93  56 103  90 104 100  96 107 102  90  80  89  75  76  87  79  85 128  71  96  39  52  47  54  52  45  61  56  75  79  93  99 108 102  97 116 141 146 150 153 152 146 153 154 157 132  86 122 100 113 179 180 179 189 222  84  23  34  16   0   1   1   0   0   0   0
 217 214 213 215 214 214 214 213 212 211 211 210 211 207 208 205 206 205 203 205 204 195 200 174 126 124  86  89  56  99  82  97  91  90  95  85  76  67  71  68  69  64  59  87  51  67  55  61  52  70  56  56  53  53  63  73  78  81  85 115 136 147 142 145 146 140 148 157 154 155 122  90 113 122 120 182 180 180 195 193 174  20  43  27   4   1   1   0   0   0   0   0
