P2
# Generated by OpenCV 4.2.0
92 112
255
 204 210 210 209 209 207 210 215 211 208 203 202 202 198 201 208 207 202 201 205 208 207 207 206 202 197 175 132 160 159 118  90  70  79  67  64  67  64  71  74  71  74  86  93  80  89 100  95  99 100 116 108 120 122 111  98  94 100 108 115 109 107 115 118 135 142 167 183 185 205 202 190 192 177 180 197 201 200 202 202 203 205 204 204 203 202 202 202 202 202 200 198
 204 210 210 209 209 207 211 214 211 208 203 200 200 199 201 208 207 203 201 205 207 208 207 205 203 186 156 140 133 114 103  83  70  61  68  57  54  63  66  68  71  75  79  98  99 111 112 127 128 129 131 125 126 108 106  95  96 101 107 107 101  99 106 110 114 130 139 158 176 182 188 181 179 183 182 199 201 202 202 201 201 204 205 205 204 202 202 202 202 202 200 198
 206 210 209 210 209 207 211 214 211 208 202 199 200 199 201 208 209 203 201 204 207 207 208 206 197 169 142 145 128 115  88  68  63  72  47  50  50  60  67  78  86  86 107 128 137 144 134 154 168 171 163 160 157 137 133 113 110 113 115 108 107 113 112 124 138 131 136 145 156 176 175 169 166 182 193 201 202 202 201 202 203 204 204 203 203 203 203 203 202 202 202 199
 205 210 209 210 209 207 211 214 210 207 202 200 200 199 200 207 209 203 198 202 206 207 207 208 186 148 146 137 118  98  72  50  57  51  48  43  64  83  92 112 118 122 140 150 157 158 164 179 180 183 183 186 181 172 168 155 154 130 119 117 116 115 110 114 114 129 139 145 154 162 157 150 139 159 204 202 203 202 202 202 202 203 202 202 203 203 203 203 201 202 202 197
 204 209 208 209 209 207 210 213 210 206 202 201 201 199 201 207 208 202 201 205 208 207 207 203 170 131 138 119 104  85  53  35  43  51  75  92 105 118 129 137 143 147 158 166 173 177 184 187 188 189 196 197 192 193 184 182 184 172 156 137 117 105 102 110 116 117 130 142 146 157 151 149 134 155 197 200 202 202 202 201 200 202 202 203 203 203 203 202 202 203 203 197
 205 209 208 210 208 205 209 214 211 207 202 202 202 200 202 207 207 203 201 206 209 206 207 188 141 130 128 103  88  53  33  29  65  96 117 129 140 146 150 154 167 170 168 178 186 190 191 191 193 200 204 201 205 202 203 199 201 203 192 174 165 137 117 124 125 123 132 156 140 132 147 151 151 170 187 195 204 202 201 202 202 202 202 203 203 203 203 203 203 203 203 196
 204 209 209 210 207 205 209 213 212 208 204 202 202 201 202 207 208 203 203 207 208 206 200 159 132 131 108  98  61  26  46  75 113 133 142 156 163 168 172 178 182 186 188 184 186 192 193 193 198 206 208 208 210 209 210 214 208 212 213 205 192 184 164 136 121 135 132 152 164 147 139 147 163 168 174 186 203 202 202 202 202 201 203 203 204 204 203 204 203 203 203 196
 204 210 211 209 209 206 210 215 213 208 204 202 203 201 202 208 208 204 203 205 208 204 174 138 123 122  98  69  28  57  98 119 127 154 173 179 183 184 186 191 194 191 193 194 193 192 190 195 200 204 208 213 214 215 212 216 217 216 212 215 213 209 204 186 144 123 129 128 148 155 144 130 159 177 170 175 189 199 200 202 202 202 202 204 204 203 203 203 203 203 204 196
 204 211 211 210 207 206 210 215 213 208 204 203 203 201 203 209 209 205 202 205 204 178 152 129 115 114  77  38  62 106 127 145 163 179 190 189 186 193 198 198 199 198 198 200 199 196 198 201 204 209 212 211 216 216 219 220 221 223 221 218 219 218 214 211 204 169 126 108 121 133 131 121 128 169 179 171 183 196 201 203 203 202 203 203 202 203 203 203 203 202 203 197
 204 210 211 211 211 207 211 215 213 209 204 203 203 202 203 208 209 205 202 202 178 161 141 122 111  88  44  72 118 135 156 171 177 184 192 192 194 201 200 201 203 201 196 196 197 199 200 203 207 211 213 213 214 220 222 220 220 220 220 223 222 220 219 217 215 213 190 133 100 121 133 125 110 116 157 157 173 197 199 201 204 203 202 202 204 203 203 202 203 203 202 198
 204 209 210 211 210 208 211 215 213 209 204 203 203 202 202 208 208 206 200 180 162 148 127 118  99  62  81 116 144 158 172 179 181 185 187 189 197 202 199 203 204 203 200 200 199 204 204 207 209 211 213 214 216 221 221 221 222 222 224 219 221 220 221 223 223 220 217 213 163 108 131 137 125 113 137 164 162 185 206 200 202 204 203 203 202 200 202 202 203 202 203 198
 204 210 212 210 209 208 210 215 214 210 205 203 203 202 203 206 207 201 175 158 145 131 120 103  83  95 127 141 164 168 170 173 182 185 189 190 193 197 199 198 202 199 201 201 199 198 202 204 205 210 213 213 218 226 225 228 227 227 225 226 226 224 224 223 220 222 223 222 227 186 133 132 129 113 131 180 170 172 191 200 200 204 203 202 203 202 202 202 201 200 202 197
 204 210 213 211 211 208 210 215 214 210 204 203 203 202 203 207 204 179 158 140 135 122 109  90 102 128 144 158 164 166 168 170 183 185 186 190 190 195 199 197 202 201 199 201 199 199 202 202 202 208 214 215 223 225 228 229 227 223 221 225 224 225 227 224 224 220 219 223 223 228 195 141 128 132 126 151 167 167 183 195 197 202 202 203 203 203 202 202 200 200 201 197
 204 211 213 211 209 208 211 215 214 210 204 204 204 202 202 205 181 159 145 131 131 110 100  98 139 142 152 156 161 169 173 171 180 185 186 191 189 193 203 202 204 205 204 204 202 204 205 205 207 210 213 220 228 228 230 230 231 226 223 226 224 223 224 226 223 227 225 222 220 222 229 205 147 124 150 155 163 166 179 191 201 201 204 202 203 203 203 202 200 200 200 197
 204 209 213 211 208 205 211 215 213 210 204 204 204 202 203 183 159 148 134 129 116 104 104 134 151 149 153 157 164 171 174 177 180 182 189 187 183 191 201 200 200 203 204 206 203 206 207 204 204 206 214 222 223 230 231 231 227 224 219 222 222 221 223 226 228 229 227 228 223 223 220 225 205 127 128 153 171 165 173 186 198 201 203 203 203 202 203 202 200 200 200 197
 205 208 212 212 209 206 210 213 214 211 206 203 204 205 191 160 141 129 129 118 105 116 133 145 148 152 155 153 160 171 176 180 182 181 183 180 181 189 195 198 196 196 199 199 199 200 201 201 199 200 209 217 218 221 219 221 218 218 214 217 220 222 224 229 234 231 231 227 223 223 223 222 228 193 124 136 168 172 171 186 198 202 203 203 202 202 202 201 200 200 200 197
 205 208 210 211 210 209 210 213 212 209 205 204 206 199 169 147 128 126 117 107 113 135 146 152 163 158 148 158 158 164 167 169 177 184 181 182 184 185 193 197 198 198 203 203 200 205 209 206 202 202 208 213 218 220 220 223 222 223 220 216 223 228 229 226 228 233 234 234 229 225 223 221 222 228 182 134 149 166 176 190 197 201 202 204 201 201 202 202 200 200 200 197
 204 208 211 211 211 207 209 214 213 209 205 202 205 182 142 121 130 124 106 110 129 149 149 149 157 151 154 157 147 152 156 167 168 176 178 181 186 190 193 195 196 198 204 202 202 208 209 206 200 201 207 209 219 224 220 224 221 222 214 213 214 222 227 225 227 227 232 229 231 227 223 223 223 221 224 191 157 149 174 185 199 202 202 202 200 201 202 202 200 200 200 197
 204 208 211 212 212 207 209 214 214 210 205 204 192 145 122 133 115  90 107 127 140 144 145 150 157 154 168 162 149 151 154 163 167 174 171 175 179 179 187 187 192 196 202 200 203 204 202 202 194 195 204 204 210 217 218 218 216 219 217 219 220 223 222 223 224 230 232 230 228 224 218 221 223 220 222 217 190 146 166 185 199 205 204 203 200 201 202 201 200 200 200 195
 204 208 211 210 211 207 209 213 214 211 204 200 160 131 131 107  78  98 127 139 141 142 147 148 157 161 166 154 141 143 150 163 170 172 173 170 176 178 181 187 191 191 196 199 201 204 201 200 191 196 206 205 206 208 214 214 210 215 218 214 221 223 222 228 232 228 231 234 232 229 224 216 221 221 221 223 212 179 160 186 196 207 208 205 203 203 202 201 200 200 200 194
 204 210 213 211 210 207 209 215 213 210 204 187 146 125  87  73  82 123 138 135 138 138 145 148 156 152 150 141 146 154 157 163 163 168 175 176 177 178 178 180 186 188 193 194 196 194 190 190 189 190 198 201 202 204 204 203 199 199 205 205 209 209 209 215 221 227 227 230 232 229 225 220 217 218 220 217 225 200 163 174 193 204 208 205 202 203 202 201 202 201 201 195
 205 210 212 211 209 207 210 215 213 212 200 159 118  68  52  66 119 141 137 135 136 139 145 148 149 141 137 145 149 151 150 154 154 162 166 163 167 171 174 174 173 176 183 185 192 199 198 192 190 192 193 199 201 203 204 204 200 196 201 201 203 204 211 214 217 214 209 214 219 222 218 217 219 216 217 218 221 218 189 174 185 200 205 204 203 203 202 201 202 201 201 195
 203 209 213 212 208 206 211 215 212 209 171 119  55  54  69 114 133 136 135 135 135 141 142 144 145 143 142 140 138 145 147 147 144 150 158 155 154 160 157 171 177 178 189 195 197 207 207 202 198 206 206 212 212 216 214 216 214 210 223 222 213 215 215 219 225 228 218 213 204 201 209 215 216 217 214 215 218 220 214 186 179 195 202 203 203 203 202 201 202 202 201 195
 203 208 213 212 209 207 211 215 211 178 126  80  73  81 107 124 126 137 142 140 137 134 137 143 145 145 144 145 138 136 138 135 140 152 166 173 176 182 179 185 188 192 192 197 197 204 200 194 196 201 200 200 207 208 211 209 207 210 216 214 208 206 204 206 209 214 220 221 225 217 209 207 212 213 213 213 216 216 220 202 181 195 202 203 203 201 200 200 200 201 201 196
 204 209 213 212 209 207 209 212 194 143  77  57  93 105 113 122 128 136 139 138 133 138 137 145 142 144 147 143 126 131 141 147 155 157 165 165 162 175 179 184 193 196 198 200 200 203 201 196 197 200 198 194 198 203 207 205 205 209 217 218 219 215 205 200 200 200 203 210 215 218 219 214 207 209 214 212 215 216 219 214 185 190 204 204 202 200 200 199 201 200 200 194
 203 209 214 212 209 207 203 201 177 110  84  99  96  96 115 113 120 135 137 135 135 130 137 146 144 139 140 138 131 131 137 142 151 149 160 168 172 177 182 189 196 198 200 202 204 201 204 204 199 197 200 201 199 202 202 202 202 207 210 219 218 223 225 229 228 223 209 200 200 206 208 213 216 208 209 212 212 216 217 217 190 180 197 202 202 200 200 201 201 199 200 194
 203 209 213 212 209 203 201 192 123  73  73  72  86 110 112 119 123 133 138 134 135 125 138 140 141 141 143 144 146 143 140 144 153 155 163 173 178 173 172 179 187 194 203 201 201 198 196 200 193 189 198 199 193 196 193 193 193 197 197 206 215 218 219 224 225 227 228 226 218 216 210 210 213 213 209 210 208 211 215 216 203 182 192 198 200 200 200 200 199 198 198 193
 203 209 213 212 207 201 198 152  73  59  69  72 102 109 114 122 123 131 140 136 131 130 140 140 137 139 140 143 142 150 150 150 149 147 149 161 170 170 183 196 200 201 207 210 211 207 207 211 206 199 206 204 205 205 201 204 212 209 214 212 211 212 212 216 221 224 225 223 225 220 218 217 213 212 210 210 207 208 211 213 204 192 189 197 199 199 199 200 199 199 199 194
 205 210 213 212 204 204 181 105  75  76  70  84 113 121 118 119 122 128 133 128 132 131 132 139 140 135 137 140 142 144 141 141 142 156 165 177 186 186 184 194 202 208 215 217 220 218 213 220 223 211 216 213 211 207 195 201 204 209 209 219 218 220 223 224 223 219 214 212 219 220 217 212 213 209 210 210 207 212 212 212 203 187 192 195 199 199 200 200 200 198 199 194
 206 211 213 210 204 201 135  65  71  51  76  97 119 113 108 107 114 124 127 126 133 131 131 132 137 139 142 141 142 141 137 149 160 169 174 174 176 176 168 177 191 194 203 214 218 217 214 217 223 209 213 216 207 194 189 203 204 199 203 210 212 219 227 227 229 229 224 216 208 205 204 210 210 211 210 209 209 207 212 210 199 187 185 193 198 200 200 201 200 199 199 194
 207 211 213 207 202 180  75  59  77  71  78 113 111  98 102 102 108 122 130 133 136 134 132 133 140 143 140 140 141 146 154 155 159 162 168 174 173 173 170 176 186 191 192 198 207 212 214 216 225 212 218 219 208 185 189 199 208 200 203 215 216 218 220 217 220 226 225 228 227 223 209 202 204 209 209 208 209 208 209 211 200 187 180 189 199 200 201 200 199 200 200 193
 206 211 211 206 204 131  50  69  64  58  91 121 100  97  97  99 114 119 129 126 131 138 136 135 141 142 133 139 148 148 151 155 159 165 171 174 181 180 184 186 194 197 199 203 199 201 210 220 220 212 222 223 209 178 190 196 205 205 203 210 215 213 213 214 206 214 223 227 224 228 227 221 211 202 207 210 203 204 208 211 200 182 178 186 198 201 200 199 199 199 200 193
 204 209 209 204 185  81  76  71  48  65 110 114 102  96  98  98 115 124 130 129 133 138 135 136 141 137 141 150 150 150 156 158 164 171 174 175 179 179 179 185 188 193 196 202 204 193 206 220 218 213 213 221 213 168 183 192 197 204 197 202 210 213 223 228 224 225 227 224 222 222 220 217 217 213 206 210 205 202 209 209 204 185 175 182 194 199 200 199 199 199 200 194
 203 207 206 205 138  72  98  50  53  91 123 113  98  97  97 106 110 120 133 138 137 134 136 133 139 140 147 154 165 166 166 167 171 174 174 169 169 171 180 181 180 181 179 182 192 188 197 208 212 209 199 214 217 158 175 187 190 192 192 196 205 209 210 214 219 222 221 223 222 223 222 218 216 216 211 209 209 203 209 207 204 194 181 173 185 198 198 199 198 200 200 194
 203 206 206 181 116 105  70  44  82 117 115 114  95  90  92 110 118 123 127 135 130 132 141 133 140 142 155 175 180 178 173 176 174 170 168 170 177 175 173 168 170 168 167 175 180 177 191 198 204 202 188 205 217 160 170 184 184 183 184 183 191 198 205 201 201 213 212 211 209 216 218 219 217 213 216 211 208 203 201 209 202 183 188 183 173 190 197 199 199 200 200 196
 203 207 203 147 112 107  54  58  94 118 102 112  96  91  94  97 118 123 125 132 130 133 136 137 140 141 150 163 164 172 173 160 153 151 161 167 157 164 157 151 152 158 161 174 182 175 173 193 199 194 186 196 210 162 164 180 181 179 180 177 176 184 188 191 191 195 201 199 194 200 201 204 209 212 212 216 212 204 201 209 207 191 173 177 181 180 194 198 200 201 199 195
 204 206 193 127 124  95  55  64 106  98  99 112  88  86  93 101 109 119 130 130 133 135 131 140 140 147 157 157 169 163 149 147 145 144 131 122 123 122 125 129 139 139 143 155 169 174 176 187 194 191 188 188 197 159 158 170 176 181 180 172 168 168 172 169 170 178 187 193 189 192 192 198 202 212 210 213 213 209 206 207 202 198 178 167 168 165 187 199 200 201 199 195
 205 202 171 120 129  90  45  73 104  86  94 108  87  75  92 102 113 120 124 131 135 137 138 145 146 146 155 158 150 145 142 137 130 118 107  98 100 100 108 117 125 129 131 143 153 162 170 184 184 183 181 184 193 159 156 169 168 176 174 168 163 159 150 147 148 162 166 171 177 185 191 197 199 208 212 210 214 211 208 202 197 191 160 160 172 147 167 199 200 201 200 195
 202 198 155 141 120  74  60  77  90  88  95  97  78  71  96 109 120 122 128 135 136 135 144 149 154 152 150 148 156 147 142 137 113  94  94  94  94  90  98 104 111 113 121 131 141 148 162 176 176 175 177 181 188 161 153 163 168 166 162 162 150 145 144 138 136 131 136 145 153 168 185 199 198 204 211 215 211 210 206 199 200 190 158 140 165 153 149 192 201 199 199 194
 201 194 149 141  94  60  65  54  85  77  85  86  76  84  99 116 116 122 132 134 133 138 144 149 149 139 137 144 142 137 138 131 114 104  94  87  81  77  88  89  97 104 117 123 130 143 151 165 166 159 157 171 178 158 173 157 159 161 155 148 137 134 129 122 117 114 117 125 133 150 171 185 200 205 208 214 213 212 208 206 205 184 148 136 154 162 153 183 199 200 200 194
 200 191 142 129  91  67  62  46  82  78  79  73  69  79 103 118 121 128 130 133 133 139 147 150 146 144 140 144 134 131 132 118 121 124 121 106  92  87  77  79  86  91  99 110 115 133 148 159 144 143 154 169 181 163 153 168 154 158 150 138 128 121 116 118 114 117 123 130 129 147 165 180 184 204 204 205 213 214 210 208 206 188 132 118 149 154 144 180 195 199 200 195
 201 185 135 136  92  44  65  50  82  73  77  63  64  74 102 114 125 127 128 133 137 143 146 148 143 146 141 124 122 128 114 124 134 143 141 131 134 117  95  80  69  73  86  87  94 117 132 137 138 142 149 166 183 182 166 161 156 147 133 120 113 107 106  97  79  69  65  77  90 108 134 146 161 180 194 193 209 215 210 205 205 195 135 107 128 152 133 167 196 199 199 197
 199 161 146 140  84  35  50  65  63  65  67  58  58  73 106 113 125 126 129 136 138 141 139 141 137 136 126 114 116 120 132 143 144 144 144 145 141 140 132 116  95  66  62  70  71  92 120 131 142 146 149 169 180 187 181 166 154 129 114 107  88  82  80  79  96 110 112 103  87  70  89 106 127 157 183 187 196 212 210 206 206 195 139 101 119 152 138 141 192 200 199 197
 188 160 167 130  69  36  31  49  48  51  61  59  44  71 105 116 125 128 127 133 132 133 131 131 122 117 114 112 122 134 141 139 150 151 136 120 112 120 139 152 129  96  52  55  71  70 101 135 150 160 169 182 190 193 183 172 137 110  97  83  95 111 113 147 142 145 161 165 175 169 111 114 115 127 167 183 184 201 211 208 207 195 133 100 107 147 146 136 175 201 200 196
 182 167 175 121  66  29  27  47  55  51  52  56  44  67 106 117 123 130 128 129 127 129 125 116 112 114 118 126 134 137 143 148 132 124 113  96  88  82  80  94 119 122  99  46  62  66  70 127 159 177 182 194 204 203 195 166 113  85  72 102 122 127 121 115 125 133 155 155 155 164 187 153 138 138 140 171 177 193 211 208 207 200 128  99 101 136 110 127 157 202 199 191
 187 179 174 121  63  38  40  46  44  42  49  47  58  78 108 121 125 130 131 128 127 120 115 115 123 128 130 130 134 137 122  95  85  83  86  79 103 101  89  58  70 106 113  64  32  66  80 109 150 178 186 202 215 219 207 151  97  85 106 118 114  96  86 103 132 160 194 209 189 157 138 202 159 150 163 160 161 172 200 207 207 202 122  90 117 134 101  91 150 199 198 191
 195 185 157 111  69  45  37  38  60  56  45  43  61  74 113 124 128 133 133 128 130 117 118 128 134 138 138 132 113  97  71  53  36  22  60  50  36  55  81 101  83  71  80  79  59  78 101 107 153 175 186 197 215 220 215 145  95  98  98  95  82  87  97 107 113 137 177 211 229 207 144 139 203 154 175 173 160 168 195 210 205 201 129  94 110 110 114  87 133 199 199 191
 194 188 150 113  85  39  49  74  80  53  41  44  56  80 118 122 131 133 138 132 128 118 118 114 121 126 118  77  66  73  43  21  36  28  25  70  73 122  95  70  97 118  85  76  84  81 104 115 148 166 185 195 217 225 217 153 100 107  93 107 119 103  82  47  37  73  77 109 177 195 202 127 159 195 163 173 165 177 193 209 208 199 133 105 104  87 112 126 141 199 199 191
 187 175 149 131  98  76  90  75  51  48  34  41  57  88 121 126 135 135 140 147 144 144 137 133 132 113  63  49  71  39  64  52  47  37  31  66  47 130 152  88  42  78 129 129 105  93 106 116 139 165 184 199 216 224 222 165 117 136 142 113  79  92 101  48  54  28  33  35  84 143 186 180 101 199 184 182 180 178 184 207 212 198 140 119  90  68 102 134 154 200 199 193
 181 166 132 124  94  63  69  63  52  50  28  38  64 100 125 130 131 131 131 132 127 128 133 137 117  81  59  81  57  40  86  71  49  49  47  71  85 135 125 115  95 103 135 139 105 100 113 124 133 160 188 202 215 223 219 191 141 157 142  85  74 123 108  61  61  19  50  51  59 120 145 189 118 152 207 172 167 179 193 209 212 198 136 136  77  38  94 112 141 196 201 194
 135 124 115 117 111  82  84  68  47  30  35  40  63 105 126 130 135 137 135 128 118 115 100  86  76  93  96  86  86  96 111 117  99 102 112 131 133 123 107 109 123 133 136 120 100 114 117 124 132 168 194 199 213 226 220 208 166 149 160 160 127 122 129  88  70  57  75  64  97 105  76 144 130 111 194 199 192 202 208 209 210 198 151 114  83  60 110 112 132 189 202 194
 111  94  85  72  68  58  47  40  28  32  34  49  71 110 128 135 142 144 143 135 128 134 134 126 125 136 130 112  97  96 101  95 101 111 118 103 113 105 104 110 114 115 122 114 113 120 123 124 137 175 193 201 207 220 221 213 193 169 155 159 152 122 123 138 144 137 123 127 147 150 135 152 129  95 133 197 190 188 199 215 213 203 160 111  79  80  69  82 159 195 200 193
  47  68  65  49  51  45  49  44  39  35  41  55  72 112 127 132 137 135 135 136 140 144 143 138 139 135 133 135 133 126 114 116 116 119 131 134 130 122 107 103 102 118 130 118 114 125 126 124 135 161 187 198 204 209 213 217 207 204 172 143 139 148 144 138 140 136 151 168 168 174 179 189 165 141 117 119 144 164 171 195 214 209 153 140  87  88  58 114 169 196 199 194
 113  65  54  55  51  46  39  41  42  37  47  64  74 118 128 133 136 146 152 147 140 129 130 134 137 144 140 143 141 142 144 141 139 142 138 125 115 106 104 110 117 132 141 116 118 125 131 115 129 158 181 196 198 202 214 216 208 214 207 183 143 138 161 166 173 174 183 180 172 179 190 213 222 222 202 183 180 192 200 204 214 212 162 121 131 114  95 125 173 195 197 192
 123  52  44  41  41  43  38  45  51  49  54  73  79 116 128 140 139 138 146 143 135 137 143 143 135 126 129 122 123 118 116 109 107 107 102 104 108 110 107 123 137 132 136 113 121 131 122 116 134 168 188 198 204 211 208 210 212 207 205 209 186 133 129 148 155 160 175 192 199 205 205 207 214 211 212 218 213 192 180 203 218 214 163 123 121 114 129 146 159 189 198 192
  76  62  37  48  44  42  41  46  60  53  66  66  77 117 130 137 137 139 150 147 148 151 147 137 123 110 108 125 132 129 124 121 123 120 117 117 125 126 128 135 138 130 125 112 122 128 123 128 131 148 181 201 202 212 209 208 212 210 194 189 209 182 128 125 135 154 176 181 181 185 190 180 175 176 187 194 206 217 203 192 206 214 168 133 124 130 152 178 173 191 200 193
 146 101  28  56  64  43  38  44  51  53  73  60  78 119 131 138 142 148 147 148 150 142 128 135 146 153 136 125 114 116 116 110 115 123 127 124 128 136 140 142 134 125 120 115 122 116 130 131 145 167 182 202 207 211 204 205 211 209 197 183 193 210 178 132 127 124 127 151 180 206 211 219 219 220 218 210 204 205 217 215 207 208 174 122 141 143 151 180 174 203 202 192
 154 123  43  56  70  42  55  55  41  56  79  72  90 120 131 138 139 146 150 150 137 137 148 152 150 143 135 129 127 126 131 135 135 136 137 135 138 143 147 143 132 127 120 116 124 136 132 155 182 188 197 209 219 212 207 213 211 206 201 178 176 194 208 179 144 135 134 129 127 150 174 182 184 189 208 217 210 209 204 209 210 212 181 141 147 146 105 173 182 203 198 191
 173 128  41  67  78  47  44  66  49  60  78  83  99 117 132 137 141 147 143 139 142 156 149 144 140 138 142 149 153 148 143 146 141 136 142 143 148 153 147 136 135 125 113 115 126 139 140 156 185 193 206 222 220 222 222 216 214 209 202 184 162 171 195 208 199 181 164 156 146 142 145 155 163 183 184 188 213 210 212 205 208 209 183 151 134 146 102 170 192 201 196 191
 148 137  60  63  83  50  42  77  85  84  77  84 109 119 132 136 142 139 140 149 151 148 144 143 149 148 147 153 150 153 150 152 150 149 149 154 150 149 143 139 133 119 115 119 127 131 139 151 174 192 202 214 220 220 220 218 216 213 209 198 171 155 173 194 211 219 217 207 204 210 217 216 216 220 215 190 187 214 208 214 211 209 176 122 122 143 110 167 200 200 197 190
 122 170  97  32  87  65  51  86  81  82  60  63 108 113 130 136 136 139 147 145 143 147 150 149 148 145 142 150 150 143 154 159 159 160 162 160 150 144 145 145 128 117 115 119 123 122 136 144 165 181 195 216 212 216 219 216 214 212 211 206 187 164 165 182 191 209 220 221 221 225 225 221 220 218 215 214 185 191 211 205 212 206 177 117 129 128 114 169 202 201 197 188
 100 161 151  24  78  76  59  92  82  75  51  69 108 111 121 130 136 143 145 141 151 152 146 130 128 135 138 142 150 152 163 170 175 175 178 164 151 145 141 136 123 113 113 120 120 121 132 149 164 179 192 211 217 213 213 210 207 209 209 210 203 178 172 179 179 188 202 211 216 219 221 217 215 218 215 211 211 185 201 208 211 201 176 109 150 123 124 171 203 203 199 189
 165 142 164  47  63  91  60 101  86  78  55  97 115 106 120 130 138 140 142 148 145 135 119 119 135 145 149 158 164 164 171 181 184 180 174 158 150 145 136 132 123 112 118 124 112 117 133 153 166 179 193 201 215 213 215 213 210 207 207 203 203 189 176 174 182 184 189 195 206 211 218 212 203 200 207 214 211 207 189 205 212 194 173 118 161 122 143 172 200 200 198 189
 197 149 126  74  49 116  69  99  91  68  60 113  98 106 118 133 134 135 145 142 128 114 127 143 144 150 151 158 168 175 174 181 183 183 176 160 146 142 140 138 117 115 127 123 114 120 138 147 159 180 189 192 208 220 208 210 209 204 211 195 188 194 176 175 177 183 189 191 190 199 211 217 212 200 198 201 205 208 195 201 212 190 177 137 183 113 146 179 200 200 198 188
 187 176 133 109  44 131  88 106  94  73  67 111 109 109 115 130 131 140 140 125 116 124 139 141 145 148 146 155 164 171 177 180 181 178 171 167 148 140 139 128 114 127 136 129 120 130 130 134 149 162 188 197 194 205 208 209 208 217 218 203 161 169 168 168 172 177 183 195 196 192 199 211 214 211 205 201 199 201 196 202 212 182 177 174 170 120 155 184 199 201 198 188
 193 179 163 138  66 101 108 115  95  69  50  89 126 114 120 134 134 139 129 116 120 128 136 140 143 146 148 150 159 163 174 180 177 176 168 153 141 133 130 128 119 129 135 129 127 129 135 135 142 146 169 188 195 191 200 207 208 217 217 215 166 142 148 145 151 171 179 187 198 201 197 200 206 208 210 206 205 204 192 202 214 172 180 189 167 129 163 189 198 203 197 188
 192 182 182 176 101 107  99 119 100  66  52  85 123 117 124 130 132 137 122 113 123 121 134 133 136 146 143 146 148 154 161 170 171 170 160 149 140 137 141 132 121 122 125 124 126 118 125 130 136 150 161 168 180 194 201 204 204 212 213 208 181 160 149 139 146 152 169 183 191 197 198 196 202 205 201 203 198 200 198 203 211 171 191 198 172 140 170 191 196 206 196 187
 193 194 185 173 106 121 104 116 104 100 109  90 113 116 121 128 133 129 118 115 124 126 131 132 135 142 140 141 140 146 160 172 170 154 145 137 135 145 146 124 114 121 127 126 120 115 118 125 131 136 139 143 165 183 190 200 198 199 198 198 183 166 151 140 143 144 157 176 188 196 200 200 201 203 198 192 193 188 192 213 209 178 198 195 178 164 186 188 198 207 196 188
 193 193 189 197 138 133 120 105 119 149 136 124 118 114 119 129 136 125 112 119 126 134 133 135 129 132 134 135 138 148 157 159 145 132 126 132 143 145 145 114 103 116 127 128 115 109 111 117 124 122 112 123 145 155 174 178 183 189 181 175 184 177 152 136 129 131 141 162 176 187 198 205 204 202 205 193 187 179 184 213 197 178 202 193 174 176 189 184 198 205 197 187
 194 193 199 211 146 161 147 106 107 142 138 131 111 109 117 130 135 123 114 127 120 133 127 122 130 130 135 139 139 143 139 129 113 108 115 125 136 140 138 104  79  88  78  79  89  98 104 107 111 114 107 110 117 131 147 151 164 145 122 145 204 189 155 122 119 119 129 146 159 171 185 194 202 204 204 201 185 178 183 212 193 184 209 189 177 182 187 187 203 203 196 187
 194 193 199 208 168 169 165 119 117 140 127 118 112 105 115 121 126 116 123 124 122 125 114 117 133 131 134 136 129 125 116  93  83 105 128 135 134 136 134 113  71  46  31  28  33  44  70  97 100 102 102 108 115 123 137 129  80  54 116 197 207 189 165 140 130 111 118 130 142 157 174 183 196 203 206 205 197 170 187 210 203 211 219 180 172 188 181 176 204 201 194 186
 195 196 195 197 196 204 172 116 130 140 132 125 116 104 110 117 125 123 134 126 125 113  96 121 131 133 130 123 117  95  74  92 118 127 122 133 129 130 127 115 105  76  50  39  41  32  26  41  69  82  84  95 111 112  96  50  52  85 185 210 204 196 177 156 140 120 102 116 132 153 169 181 185 195 198 206 203 175 186 206 205 219 217 173 171 187 183 182 202 199 194 187
 194 179 178 189 199 200 129  93 134 132 138 139 125  92 104 119 120 126 133 132 124  98 110 133 130 127 120 116  76  60  99 118 120 116 120 119 115 120 105 113 119 105  82  66  58  38  40  37  36  39  41  44  48  42  37  62 106 128 196 202 200 197 192 170 147 139 122  93 110 134 157 177 184 191 192 205 204 189 183 208 203 208 215 172 179 193 181 194 201 198 195 188
 147 173 193 202 191 143 121  76 108 138 136 138 126  98 105 122 116 128 131 132 128 103 115 130 126 115 108  72  77 112 116 113 106  98 104 100 104  97  94 101 105 105  92  78  66  77  72  62  53  56  50  47  47  56  77 117 147 165 189 187 182 190 195 173 151 142 144 123  81 105 134 160 173 184 191 200 209 207 192 202 202 208 219 165 186 185 176 197 201 198 195 188
 126 188 159 155 137 128  86  51  65 107 123 129 118 102 112 120 121 131 128 132 129 107 118 125 125 113  80  77 107 105 118 120 104  95  91  83  81  90 102  91  85 101  98  78  92 113 104  83  65  70  63  62  54  87 123 146 163 169 170 186 178 184 181 177 158 134 137 141 121  72 116 147 176 177 190 196 206 208 203 199 209 216 206 166 183 171 176 204 199 199 195 186
  92 104  96 100  92  76  67  85  66  48  43  55  60  59 105 119 125 126 126 129 129 110 119 122 116  98  83 120 117 105 109 115  94  83  79  85  80  97 102 101  93 105  91 102 119 109 108 116 111 102  84  91  99 117 141 148 154 159 148 175 175 170 166 170 173 146 130 131 150 118  78 126 160 182 181 186 200 206 206 202 206 215 193 173 190 158 188 206 199 199 194 186
 128  56  39  56  68  87 102  83  45  33  25  34  29  37  99 119 128 124 117 129 131 105 122 125 103  85 122 124 113 119 115 105  78  84  99  90  84  98 105 100  97  95  99 108 102 107 118 123 115 114 120 114 111 122 146 166 151 153 156 150 171 163 165 147 158 166 146 137 146 155 100 100 143 177 189 178 191 205 201 203 201 208 180 179 157 172 203 202 201 199 193 186
 195 177 181 184 127  88  94  65  53  33  37  44  29  31  91 122 118 116 116 133 123  99 126 119  99 118 139 130 120 113  93  87  93  82  82  82  89  95 102  92  93  89  97 103 107 111 117 113 129 138 134 119 116 128 152 160 155 147 165 159 170 172 140 148 176 150 165 145 149 153 134  96 135 167 191 184 180 202 200 203 199 184 176 160 139 190 200 197 198 199 194 186
 192 198 195 188 137  90  81  64  44  28  36  39  26  26  78 121 121 119 124 131 122 101 117 114 120 129 141 130 104 106  89  69  51  47  63  75  91 102 103 105 104 105 106 111 121 123 124 129 141 143 147 141 131 129 144 131 148 151 156 152 166 151 142 149 160 132 134 146 144 165 156 112 132 169 187 181 174 196 200 199 170 166 167 145 187 190 200 197 197 199 194 186
 190 192 198 153 108 106  79  94  59  48  70  32  29  28  69 114 118 122 120 129 134 109 116 121 124 128 138 122 113 103  72  35  34  39  32  35  56  83  86  97 114 105 102 109 101 101 121 133 135 145 152 148 148 125 143 152 142 157 151 168 156 143 135 138 118 129 114 123 150 173 171 119 135 173 184 173 173 192 198 185 162 160 151 198 195 186 199 197 197 199 193 184
 185 191 164 118 149 116  90  97  54  60  57  43  38  34  61 104 127 120 123 133 124 102 104 115 116 131 137 124 103  91  83  91  89  90  82  68  56  46  55  56  73  73  69  86 101 104 109 117 116 118 123 124 127 126 124 137 130 130 140 154 148 127 120 106  63  83 108 115 148 182 184 139 145 172 182 161 173 188 193 177 160 170 198 202 184 195 197 197 198 198 192 187
 187 173 126 140 136  93  94  70  32  27  21  45  27  50  61  93 117 117 130 121 126 113  98 114 119 124 134 138 110 105 119 130 120 118 114 116 112 100 100  73  64  61  52  56  72  89  96 102 106 111 112 118 123 126 124 124 122 115 115 126  86  63  55  63  26  50  91 131 153 176 178 151 154 180 175 151 173 179 189 178 183 199 195 190 183 197 197 198 198 197 192 187
 151 120 104 105 117 121 117  62  34  45  65  37  37  92  85 117 109 124 130 125 122 118  88 120 120 115 134 138 113 118 128 133 130 123 122 126 125 129 121 118 122 117 108 107 106  95  89  79  86  85  90  94  94  93  89  95  93  89  92  89  83  98 104 112  88  62 111 121 152 167 182 161 157 175 174 150 162 176 188 194 196 198 199 180 186 199 198 197 197 199 191 186
 144 102  89 121 164 123  96  66  48 107 116  51  74 145  83  94 114 123 128 123 115 119  93 109 122 118 128 130 126 127 124 128 132 133 130 124 124 126 126 127 131 135 139 136 137 145 150 149 159 161 157 166 169 174 184 179 173 167 171 150 152 151 140 127 123  95 108 126 153 179 179 162 170 174 160 149 168 180 188 193 200 196 192 185 193 200 197 197 197 199 189 186
 164 102 100 184 185 116  98  61  33 145 141  62  83 149  42  55 105 119 122 116 113 115  91  95 112 115 125 130 133 137 128 123 133 135 128 129 130 126 127 130 129 131 126 132 144 175 184 187 190 200 205 209 218 225 230 224 209 199 194 188 181 171 155 139 129 123 125 145 170 183 183 161 178 165 146 153 170 178 188 194 201 197 189 186 152 196 198 197 197 198 189 186
 172 109 123 178 182 157 115  59  20  98 131  48  72  83  43  66 110 122 114 113 119 118 104 100 108 113 126 128 129 144 138 125 128 135 135 130 124 127 128 127 131 125 128 131 143 156 159 171 182 187 186 192 194 196 200 205 203 198 197 195 195 190 183 168 145 134 137 158 184 179 183 164 172 157 140 155 162 180 192 197 199 194 193 198 131 175 203 197 198 198 188 186
 191 122 103 181 199 198 136  47  24  78 113  68  46  45  29  61 114 118 113 123 122 120 104  78 105 115 123 129 135 145 139 132 122 127 130 132 129 129 128 121 122 127 130 118 136 135 157 163 182 163 171 174 180 183 190 194 199 199 201 203 207 208 201 190 163 139 142 169 170 178 167 167 176 152 147 146 167 179 187 197 201 202 209 154  89 174 198 197 197 198 188 186
 193 158  99 133 174 184 153 100  97 168 127  51  49  40  24  42  89 101 115 119 116 114 113  85  95 116 114 124 134 147 144 131 123 126 130 131 133 128 127 121 121 126 122 120 131 153 146 149 158 163 174 173 172 168 175 182 188 198 197 205 210 210 210 199 178 159 160 170 174 179 174 179 170 139 150 147 179 166 183 169 149 133 124  90 137 174 185 197 197 197 188 184
 185 187 132 113 140 142 128 109 178 185  96  37  48  34  30  63  66  93 111 111 118 122 115  88  92 102 108 115 124 134 144 141 126 125 125 126 131 128 119 121 121 114 118 127 135 130 138 141 159 167 161 152 157 175 172 177 184 193 199 207 208 208 207 200 184 175 174 176 170 167 173 172 169 150 145 172 168 156 181 169 139 136 122 136 178 159 186 199 197 198 189 181
 182 185 188 157 106 140 155  93 163 192 112  31  42  82  72  42  89  86 100 109 119 121 114 109 101 104 102 106 111 127 133 142 133 123 126 125 126 131 125 129 127 126 123 129 140 142 137 143 164 155 156 172 158 153 169 179 188 187 199 208 203 204 201 197 193 182 177 173 158 176 174 164 157 150 160 187 146 148 191 194 190 165 137 185 160 157 194 197 197 197 187 184
 183 188 193 195 184 155 168  97 109 177  67  28  76 169 137  37  73  85 103 117 119 118 122 123 111 100  98  98 101 120 131 143 135 124 126 128 129 130 132 135 133 131 129 130 130 131 157 140 136 153 149 168 163 157 163 181 183 188 192 199 200 198 201 203 199 191 177 157 159 171 171 162 150 157 180 174 171 153 159 172 177 171 189 167 148 191 196 194 194 196 185 187
 182 187 192 193 195 198 202 158  53 119  32  57 117 146 159  72  62 139  99 107 114 117 120 127 118  99 109  99 102 116 117 138 142 124 124 127 124 132 134 133 137 135 135 129 134 133 131 136 132 127 132 138 149 154 165 176 183 187 193 196 197 198 203 208 204 194 177 161 147 168 154 156 163 174 174 184 172 174 173 170 175 172 158 163 194 196 194 194 193 196 184 187
 181 186 192 192 192 194 195 191 128  25  44 109  96 123 154 141  46  71  81  99 111 107 111 121 116 110 112  92  99 111 116 135 141 134 123 123 127 130 132 132 135 135 140 135 130 142 133 130 134 131 125 145 162 167 170 182 188 188 195 195 197 202 200 201 199 190 171 161 156 156 155 155 174 183 164 168 167 173 181 173 172 158 175 199 195 193 194 194 193 195 184 187
 182 186 192 191 193 194 195 189 190  90  18  59 101 133 162 104  70  45  48  87  94  99 107 115 117 114 101  94  99 109 114 127 130 137 128 129 133 131 131 134 130 138 141 146 144 151 149 141 133 130 143 157 168 176 178 185 188 191 198 202 206 204 199 199 192 190 172 148 145 143 154 172 172 176 169 152 158 171 192 198 193 152 178 196 196 195 194 194 194 195 181 184
 181 185 190 190 193 194 194 193 185 180 108 106 131 143 154  92  97  51  40  93  95 108 107 115 117 114 104 104 103  94 109 120 125 134 131 128 133 135 134 132 139 138 141 142 151 153 159 156 148 157 157 170 170 171 184 189 192 196 204 206 207 202 194 189 188 184 171 151 148 149 160 172 186 143 129 150 147 174 194 192 168 158 191 196 193 194 194 194 194 194 181 184
 179 183 188 189 190 193 194 193 189 193 198 187 184 167 176 144  64  60  26  91 101  90  97 116 116 117 110 106 100  98 114 114 120 122 130 129 133 133 136 138 137 137 141 148 158 154 148 166 170 175 173 177 182 180 197 204 199 203 208 208 204 201 197 188 181 172 168 171 158 156 165 182 174 145 127 138 151 163 170 166 173 194 196 193 193 194 193 193 193 194 180 184
 177 181 186 187 188 191 194 190 190 189 189 187 183 177 180 185 113  39  31  89 107  88 101 116 114 111 114 107  94 112 110 106 114 123 132 127 133 134 133 137 128 134 147 175 176 163 164 170 180 182 182 182 189 198 203 203 203 208 212 210 204 202 194 188 177 163 169 171 158 164 170 174 172 159 166 175 180 169 170 184 197 195 192 193 193 194 193 192 193 195 179 183
 177 180 186 187 187 189 190 189 187 187 188 187 182 178 175 176 181 108  56 102 108 103 110 107 104 110 117 105  95 113 105  99 108 117 122 126 131 142 137 136 139 139 155 163 172 171 169 163 174 182 178 196 200 200 200 201 208 211 213 214 205 202 190 178 170 164 171 167 169 167 166 158 167 180 187 191 196 196 197 196 194 194 193 192 193 194 193 192 193 194 181 184
 174 179 183 186 187 188 188 188 186 187 187 185 179 177 175 171 189 150  79 105 110 106  99  97 100 112 114 103 100 101 101  96 119 106 118 125 136 140 133 145 146 152 150 164 181 167 176 176 177 187 192 200 214 212 207 211 210 215 210 206 200 196 191 171 174 171 171 177 168 169 172 165 178 184 188 192 193 193 193 194 192 192 193 193 193 193 193 192 193 194 183 185
 171 176 183 184 185 188 189 188 186 187 186 182 178 177 172 179 169  89  85 102 109 106  92  94  92  95 119 114 105  96  99 122 140 115 114 130 142 151 149 147 146 148 168 162 172 168 167 182 174 182 187 196 211 221 220 217 212 205 201 194 186 185 181 169 160 168 178 173 162 175 187 175 175 176 188 191 193 193 193 194 193 191 191 193 193 192 193 193 193 194 183 187
 167 174 182 184 183 185 188 188 185 185 184 180 175 174 187 147  94  76  90  99 106 103  93  88  85  85 105 110 110 102 100 131 120 106 123 134 134 165 162 149 155 136 177 167 152 158 156 172 174 162 177 186 202 208 210 212 209 195 195 190 179 174 174 150 148 169 173 164 172 184 202 187 195 190 192 185 186 188 192 194 191 190 191 192 190 190 193 194 194 191 182 190
 168 172 180 181 183 185 186 187 185 184 184 180 171 184 109  75  92  85  93 101 103 105  96  94  89  82  88  97 109 105 115 112 106 119 120 137 145 155 151 167 164 146 156 155 147 162 151 146 164 155 171 184 190 189 192 203 192 193 202 196 187 179 171 158 157 163 170 165 169 187 215 224 246 245 236 224 211 194 186 189 192 189 192 191 190 189 193 195 195 191 184 185
 168 171 179 180 180 184 185 185 185 184 184 179 184  98  36  98  87  84  96 104 103 101  92  93  96  85  81  78  98 102  91  99 115 125 120 129 115 129 155 139 128 133 128 151 141 165 148 132 153 168 161 171 184 179 185 192 182 188 197 196 189 181 178 148 156 158 158 160 176 182 219 251 240 239 240 242 245 242 224 197 187 186 185 184 185 188 186 183 180 174 170 169
 167 169 177 180 179 182 184 184 182 182 182 186 130  14  86  95  89  85  97 103 105 101  98  94  86  77  81  80  73  79  91 122 132 119 106 123 130 114 148 123 134 128 130 159 153 162 168 143 144 179 169 152 171 178 185 185 184 201 196 196 185 181 165 150 161 160 141 148 179 189 199 252 242 238 239 237 237 240 248 243 233 229 229 215 189 161 154 154 151 149 154 156
 165 167 176 176 176 181 185 185 180 182 188 187  42  44 103  92  91  91  98 101 102 102  96  94  87  89  79  76  79  83 100 116 126 107 133 139 140 110 130 131 129 127 130 141 154 171 155 139 136 149 164 159 156 181 185 194 185 191 195 184 181 181 151 145 151 151 158 156 179 187 188 246 250 242 241 240 237 237 239 242 244 245 246 248 248 235 212 189 177 162 147 145
 164 164 174 176 176 178 181 184 184 186 161 140  30  63 100  88  91  99 101 101 102 102  98  94  88  82  91  88  78  78  80 100 106 117 144 143 133 125 115 133 134 120 129 135 132 154 113 145 142 170 136 164 168 160 178 171 172 190 197 175 176 181 142 159 151 156 166 165 185 154 141 239 252 247 240 239 238 239 240 240 240 240 242 242 243 246 249 249 248 241 224 201
 163 164 173 175 175 177 180 183 193 143 105 115  33  62 105  94  90  95  99  99 101  98 101  98  90  81  86  86  82  76  78  85  87 115 130 162 140 138 124 125 126 121 128 129 120 137 139 137 137 150 171 158 159 173 168 174 178 191 184 183 167 152 157 174 166 162 169 169 184 141 121 215 253 248 241 240 240 240 240 240 240 242 241 240 242 243 242 244 244 243 249 252
 170 166 172 174 172 179 185 194 177  88 121 114  37  44 102  96  96  99  98 103 102  97  99  99  92  89  86  87  82  73  83  82  85 113 128 135 150 147 136 142 116 110 126 136 134 124 130 107 143 131 146 161 167 176 184 169 179 192 182 166 164 164 177 179 173 163 174 175 193 146  86 179 254 250 243 240 241 241 240 240 240 243 242 240 243 244 243 242 244 243 241 243
 198 191 182 175 171 183 193 194 183 101 116 121  68  28  91 102  95  96  98 105 103 101  99  93  92  91  84  84  81  81  85  78  76  90  95 120 121 144 146 132 119 111 136 128 118 129 134 132 149 132 135 143 156 169 172 159 179 173 174 146 150 166 179 176 175 166 174 178 199 179 109 164 252 252 246 241 241 240 241 240 243 243 243 243 243 243 243 242 241 241 241 243
 200 201 199 191 180 189 195 196 203 194 130 112 106  20  50 110 101  96 101 103 101 103 101  93  90  85  87  84  81  79  82  84  76  75 100  86  86 125 143 123 130 118 126 155 139 125 125 142 115 132 144 139 145 160 158 180 155 143 139 135 153 168 175 176 173 169 174 183 202 197 117 114 245 252 247 242 242 242 240 241 242 243 241 242 242 243 243 242 240 241 241 242
 201 201 200 201 196 192 199 199 202 204 200 149  99  69  26  85 106  99 101 100 104 105 101  96  91  86  83  82  82  75  72  80  83  76  83  81  83  87  89 111 118 139 127 150 131 136 149 149 132 136 157 152 166 147 160 132 133 141 139 142 158 176 180 182 174 168 172 187 203 205 129  90 228 254 250 244 242 243 241 242 240 243 243 243 244 245 243 243 241 240 240 243
 203 201 201 200 201 195 194 199 200 198 199 210 172  88  44  40 100 102  99 101 106 105 103  99  89  87  85  82  82  78  75  73  80  86  84  80  82  78  71  86  90 115 116 128 118 147 145 134 139 159 140 144 129 138 130 117 120 119 131 153 170 183 178 178 174 172 175 186 204 203 142  90 208 255 251 248 241 240 241 240 241 243 243 243 245 246 245 244 243 244 243 242
