P2
# Generated by OpenCV 4.2.0
92 112
255
 240 241 240 239 239 239 238 242 241 239 241 240 237 239 237 236 235 235 234 234 237 245 208 102 195 209 215 241 139  65 109 105 104 116 133 118 112 122 107 108 118 115 115 115 115 121 108  99 106 100  99 107 105 102 111 111  98  99 102  99 117 147 159 167 190 184 178 180 180 184 181 184 188 189 190 186 186 180 164 140 118 187 213 247 251 254 254 254 254 254 247 226
 238 238 239 237 239 240 239 241 240 240 240 240 238 238 239 237 236 238 238 235 233 247 181 124 213 192 210 159  88 125 122  91  95 102 103  99  91 102  92 100  99 103 112 111 116 112  98  97 101  91  93  95  93  95 108 104 102  99  90  93  98 115 141 155 164 179 183 186 186 186 184 186 187 187 188 190 189 178 164 139 115 188 213 247 251 254 254 254 254 254 245 224
 238 237 237 237 238 239 240 239 239 239 238 239 240 240 238 239 237 240 239 234 236 245 197 123 113 144 160  97  95 133 120  86  77  85  79  74  75  88  85  96  98 108 120 123 115 108 100 101  99  91  88  89  83  90  95  90 101 104  96  91  95 106 121 138 140 162 184 188 188 186 187 188 187 187 187 189 188 178 162 136 118 189 215 248 252 254 254 254 254 254 245 225
 237 237 237 236 237 239 237 238 238 239 238 239 239 240 238 237 238 237 236 233 237 245 195 115  95  89 107 102  86  91  99  82  69  71  71  68  75  88  99 115 122 139 143 140 133 139 132 121 113 104 101  97  87  99  88  79  90 102 110 110  96 101 109 117 125 144 167 183 189 189 190 187 188 188 189 188 187 178 161 135 121 192 215 248 251 253 254 254 254 253 244 224
 237 235 236 236 237 237 236 239 238 239 239 239 240 239 238 238 234 234 237 232 236 228 166 206 138 132 143  95  75  76  75  74  77  76  83  92 110 122 138 143 157 158 158 160 158 171 157 148 134 128 128 120 119 112  89  84  89  97 105 116 102  81  86  94 108 115 137 169 184 186 188 188 187 189 189 189 188 175 162 137 121 190 215 248 251 254 254 254 254 253 245 223
 237 235 236 236 236 237 237 236 239 238 236 238 238 238 238 235 234 235 236 235 233 206 148 170 189 179 174  79  71  73  75  82  96 108 116 132 143 152 167 168 176 175 176 185 183 188 182 177 171 169 158 157 152 127 117 112 109 102  99 105 112  99  77  78  90 102 106 139 174 177 178 181 183 187 188 189 188 176 161 134 119 194 217 249 251 254 253 254 254 253 244 220
 236 236 237 236 235 235 235 236 235 234 234 236 235 235 235 236 236 237 236 237 224 221 136 153 207 162 107  57  73  86  96 109 131 145 153 158 169 173 184 190 196 196 197 200 205 205 205 201 202 198 191 188 186 173 165 151 141 131 118 107 107 113  95  69  73  88  97 100 137 165 168 166 172 180 186 188 186 175 163 130 121 195 217 251 252 254 254 254 254 253 244 222
 235 236 235 237 236 235 235 235 236 236 235 235 236 236 235 235 237 238 237 235 235 164 170 217 198 113  63  71  88 124 147 158 164 172 177 184 191 195 200 206 211 215 213 211 214 216 220 218 217 214 211 207 210 206 200 195 183 168 153 137 121 115 108  94  78  76  80  78  92 116 134 154 170 170 177 186 185 172 159 130 125 191 219 250 252 253 253 254 254 253 243 222
 234 235 235 235 235 235 234 235 236 236 236 236 236 236 234 234 235 237 235 243 194 182 193 173 130  68  66 102 147 173 184 182 188 191 194 200 201 204 209 215 221 225 226 228 226 224 228 230 229 231 228 225 225 226 224 218 214 207 202 191 162 135 118 102  96  91  91  91  95 100 103 119 145 161 174 178 184 173 156 125 125 192 219 250 252 254 252 253 254 253 241 222
 234 235 235 234 234 234 235 235 235 234 235 235 236 237 236 234 236 236 243 213 189 242 208 113  67  66 115 163 179 189 192 197 200 202 204 205 210 212 213 218 224 227 231 231 233 234 233 233 233 233 233 234 233 231 233 232 232 228 225 227 217 197 169 125 100  94  96  95  95 103  97 101 113 124 153 166 177 170 156 123 125 191 215 249 252 253 252 254 254 253 239 220
 238 236 235 235 233 234 234 236 233 233 235 235 235 236 235 235 234 241 230 190 236 238 171  89  74 133 176 184 188 191 197 204 206 209 211 211 211 213 214 222 223 228 231 234 234 236 233 233 234 232 234 233 233 233 236 235 235 239 239 234 236 235 223 197 157 110  90  83  87  83  77  77  88  98  97 135 172 167 156 121 127 189 217 250 251 253 253 254 254 253 241 219
 237 235 234 234 234 234 236 235 232 232 235 235 237 236 235 233 234 244 191 225 244 207 128 100 155 185 184 189 196 198 205 210 212 212 213 213 215 213 217 221 224 226 230 233 233 233 231 234 232 232 235 236 236 236 236 236 237 239 239 239 239 237 239 235 228 196 137  95  90  78  70  67  71  95  90 124 163 169 155 122 128 187 211 248 251 252 252 253 254 251 241 220
 235 235 234 233 234 235 233 233 233 233 234 233 236 236 236 235 240 218 198 251 222 123 104 167 192 188 192 196 199 203 209 211 213 215 213 218 217 215 216 216 221 225 227 229 227 229 229 231 230 230 235 234 236 238 239 239 240 241 239 237 236 239 240 238 239 236 226 177 103  85  83  75  69  83 116 133 191 191 166 120 125 181 208 248 251 251 251 252 253 249 242 221
 236 236 235 235 234 234 234 235 235 234 234 233 236 236 236 233 242 195 222 245 142 115 177 189 188 189 196 201 201 206 209 214 214 218 216 219 217 216 218 217 218 220 221 222 225 225 224 225 224 224 231 230 228 233 237 238 239 238 239 239 237 238 240 239 238 238 239 237 194 123  88  92  84  80 109 145 234 229 218 193 174 171 205 249 248 249 250 251 252 248 242 217
 237 236 236 235 235 236 235 236 234 234 233 233 235 237 235 235 234 190 239 189 114 183 195 189 190 190 199 203 203 205 210 214 217 221 220 219 216 216 218 217 216 216 217 218 220 220 219 219 221 222 228 228 222 227 232 233 232 232 237 239 240 239 239 239 239 240 236 238 237 215 146 104 100  92  81 127 225 237 232 237 236 216 222 238 246 248 249 250 252 248 237 214
 235 234 235 235 235 236 235 236 234 235 233 234 235 235 234 237 223 184 199 135 184 193 185 190 193 197 200 204 206 206 211 215 216 218 217 213 214 214 214 213 212 211 213 217 216 217 219 217 217 218 219 224 224 227 230 226 232 231 228 230 234 237 239 238 234 238 240 238 238 237 218 153 124 104  94 123 189 238 234 236 234 234 225 222 230 236 241 248 251 247 236 212
 236 236 234 234 234 234 235 235 236 235 234 234 235 235 231 237 219 160 150 184 195 182 183 190 195 199 201 204 207 206 210 214 213 213 214 214 213 216 213 212 212 211 214 217 215 214 214 215 214 213 213 214 218 221 225 227 230 231 231 227 226 232 236 236 234 236 240 238 239 239 237 215 169 133 101  96 173 234 236 237 239 238 232 231 230 231 230 231 236 236 232 208
 236 235 234 235 235 234 234 234 236 235 234 234 234 231 233 241 212 135 180 194 186 185 189 188 193 197 203 206 206 207 206 209 210 211 214 213 212 210 209 210 209 207 209 212 210 209 209 210 212 211 210 210 215 217 219 217 218 223 227 227 230 231 231 227 229 235 234 235 238 239 234 235 210 179 126  87 147 238 237 234 235 236 236 236 236 237 233 230 230 228 225 219
 236 234 232 233 234 235 235 236 235 235 235 234 233 234 238 212 157 159 197 187 187 186 186 187 190 194 204 208 206 207 205 204 207 208 212 210 207 201 202 205 205 202 203 204 204 203 202 203 205 205 203 203 205 207 209 209 211 217 223 222 221 223 228 227 226 229 230 234 239 237 234 231 234 214 183 121 113 207 234 235 234 236 238 234 237 239 237 239 236 235 230 229
 222 231 235 235 235 234 234 235 234 235 235 234 234 232 201 184 146 188 189 187 188 188 188 184 188 196 199 203 201 203 202 203 205 203 206 204 200 199 196 197 197 199 199 202 199 196 197 199 198 195 197 195 195 201 201 199 199 202 204 207 212 213 215 222 222 225 228 230 235 234 233 230 232 229 209 164 114 196 226 227 237 238 237 237 235 236 239 241 240 239 236 237
 221 219 215 217 227 235 236 235 235 235 236 236 230 215 208 165 170 192 182 187 185 187 185 174 185 193 200 201 199 201 201 200 199 198 197 198 195 193 194 195 197 199 201 204 202 201 206 206 209 203 201 202 204 207 205 200 199 197 194 192 187 196 207 214 217 220 227 232 232 232 231 229 229 231 216 191 137 139 230 225 237 239 239 238 236 238 237 239 239 239 238 239
 238 235 227 214 211 218 222 228 232 235 235 233 223 227 171 141 190 186 185 187 186 186 179 180 186 190 198 200 200 199 191 193 190 189 192 196 198 203 204 201 204 208 213 208 209 207 207 206 209 208 203 203 202 201 203 202 199 199 204 204 197 200 200 204 215 218 217 225 229 229 228 227 230 230 219 193 166 116 175 238 233 241 241 240 240 237 236 237 236 236 238 240
 228 228 231 232 226 226 229 223 218 219 222 222 234 197 125 169 191 183 185 186 183 180 182 185 186 190 192 196 195 190 186 186 193 196 198 201 201 202 201 204 204 202 202 201 203 204 205 207 211 212 212 212 209 206 198 196 192 197 193 192 198 205 207 204 208 219 218 214 219 220 222 221 226 225 218 200 167 136 122 209 230 241 240 241 240 240 240 239 238 237 239 239
 231 230 230 229 231 231 234 232 229 228 222 216 212 129 131 179 182 182 183 182 184 183 180 177 181 182 182 190 195 192 198 195 201 205 206 205 204 205 202 204 204 205 201 199 201 205 204 208 214 217 220 223 223 222 215 208 204 201 201 197 200 201 204 209 210 209 218 215 213 215 213 223 225 220 212 198 169 143 110 153 236 239 240 242 241 241 240 240 240 237 237 239
 232 233 232 231 230 231 232 232 231 235 230 226 142 107 156 177 182 181 180 182 185 184 182 176 176 179 181 188 196 197 198 205 209 212 211 209 206 205 206 202 201 204 201 200 201 204 208 210 215 217 221 224 225 222 221 217 217 215 210 212 211 209 209 209 209 209 210 212 214 217 218 220 221 216 208 194 171 142 120 112 196 246 240 241 241 242 242 243 241 239 239 238
 231 232 229 230 229 231 231 232 234 230 230 194 107 122 161 172 179 178 176 182 180 182 187 178 179 180 189 191 197 198 201 206 212 215 216 218 211 208 209 203 199 203 203 205 209 215 217 219 223 223 225 229 229 225 223 220 215 217 214 208 209 209 208 211 207 208 210 211 214 213 216 218 216 214 206 195 173 143 122 102 121 237 244 239 241 242 243 243 242 241 241 240
 234 233 230 227 230 231 232 233 230 230 232 152  98 123 152 173 177 176 174 177 174 182 186 184 182 180 188 195 198 202 203 207 215 219 222 225 223 219 223 222 213 217 217 213 213 217 217 217 222 224 225 227 225 226 227 224 220 212 211 206 208 207 204 203 204 204 203 208 209 211 212 214 215 212 202 191 171 144 121 106  98 188 253 236 241 242 240 240 242 241 241 240
 234 232 230 229 229 231 231 232 219 227 194 108  96 131 153 169 173 171 173 174 172 180 185 185 188 186 189 195 195 205 206 209 218 218 222 225 227 222 221 222 210 218 215 206 213 216 215 215 221 219 216 216 217 219 220 221 221 218 215 211 209 208 203 195 201 203 199 197 200 206 212 213 212 205 201 191 168 143 116 103  91 139 241 239 238 240 240 240 240 241 240 240
 232 233 230 230 229 232 231 228 221 228 160 105 100 132 154 165 174 169 169 170 171 170 176 182 185 184 191 200 201 202 204 204 210 212 216 221 223 219 220 210 211 225 215 199 212 217 220 218 217 209 208 208 207 211 214 213 215 218 219 218 217 215 208 203 203 203 205 200 198 211 213 216 212 204 197 190 172 143 112  93  90 102 205 247 237 239 239 241 239 238 238 238
 233 232 233 232 231 230 231 226 219 214 137  93 100 131 150 163 169 169 163 171 177 176 175 181 185 189 196 199 200 198 199 198 204 211 212 216 216 216 218 206 214 222 221 197 210 214 216 208 206 205 207 213 203 203 213 213 216 217 216 217 217 215 212 211 210 207 206 207 196 201 211 213 211 205 198 191 173 144 111  85  81  83 146 241 238 238 238 240 238 238 237 239
 232 234 233 233 232 231 229 222 222 200 115  89 106 130 143 159 164 167 168 174 179 182 180 183 188 191 194 197 196 197 201 202 206 211 209 208 208 211 213 201 201 210 212 188 202 200 200 205 211 209 205 212 220 218 217 226 225 223 221 220 225 221 217 216 213 210 211 211 205 196 200 212 215 215 200 192 178 146 111  83  74  80  99 214 244 237 237 239 239 237 237 239
 233 233 235 234 233 233 227 222 232 205  97  89 108 130 142 157 162 167 167 173 178 182 185 190 189 194 197 198 202 204 206 208 211 207 203 199 199 202 198 195 180 198 200 173 193 188 185 191 199 209 203 192 202 208 196 192 198 204 202 207 209 215 217 218 217 214 212 214 213 208 203 210 206 202 202 194 178 145 111  83  64  73  92 175 238 241 236 237 239 237 237 239
 232 232 234 234 233 233 226 226 235 193  78  88 111 131 145 158 162 165 167 174 182 185 195 199 198 199 200 204 203 195 187 187 182 181 184 185 185 185 184 182 170 191 186 161 181 182 176 172 164 169 170 160 156 150 159 155 150 155 152 158 166 178 194 207 217 221 215 215 215 212 208 198 193 188 188 193 179 149 112  86  57  60  83 141 216 237 236 239 238 237 238 239
 231 232 233 233 233 232 230 224 235 177  71  92 115 130 144 160 160 159 170 178 183 191 195 197 195 187 182 172 162 154 145 140 136 142 151 163 168 167 172 164 165 188 169 150 164 163 169 158 142 131 118 111 105 108 115 126 123 117 124 126 140 148 169 187 207 217 221 220 218 211 202 199 196 198 184 179 177 151 105  84  63  54  64 106 181 236 238 237 235 236 237 237
 232 231 231 233 233 229 232 227 235 175  67  90 113 133 144 159 157 158 170 184 190 189 182 175 165 153 138 126 116 114 113 108 114 120 132 142 149 160 160 143 166 176 155 142 146 149 152 143 128 110  87  81  73  79  78  76  85  88 102 116 126 130 138 161 185 208 220 226 226 215 201 201 204 203 194 169 162 148 107  75  65  62  58  93 144 219 243 234 234 234 236 236
 230 233 233 233 232 229 231 231 235 141  63  85 112 130 142 154 153 160 177 189 185 182 174 160 139 126 110  92  90  92  88  90  97 102 111 124 138 144 136 137 159 155 153 150 155 141 135 123 110  86  73  66  65  62  57  61  64  73  90 114 128 142 139 135 154 185 209 218 228 218 202 199 199 202 193 169 156 148 108  74  62  62  71  92 147 181 219 235 234 233 235 236
 231 232 231 233 233 231 230 234 238 113  61  84 109 125 138 150 149 169 190 184 181 177 167 154 140 119 100  84  77  78  77  75  73  81  90 108 120 128 125 135 143 146 155 158 155 141 127 110  91  71  62  56  55  54  51  50  52  60  85 106 120 132 143 141 136 154 179 206 219 222 204 194 192 196 193 171 151 146 114  77  64  61  72  87 134 185 191 218 228 233 238 236
 232 232 232 231 232 232 230 228 237 128  53  79 108 130 142 149 156 181 190 183 175 163 156 150 138 126 106  96  88  75  68  65  65  68  74  87 100 118 130 138 138 148 162 166 155 135 119  94  73  60  54  51  46  44  45  46  50  54  58  70  97 122 147 157 147 136 148 178 208 220 217 196 189 189 194 179 145 134 114  65  59  71  82  88 117 193 213 215 232 221 235 237
 233 232 230 230 232 231 230 223 236 121  47  73 105 138 151 150 160 188 193 181 167 159 149 137 132 129 131 136 115  84  76  69  65  65  64  71  84 111 138 151 152 160 172 171 156 136 107  78  59  50  48  48  47  51  56  67  77  90 101  95  82  83 116 149 155 143 133 154 185 208 219 196 187 182 188 185 151 128 111  70  49  70  85  87 115 184 225 211 233 226 220 235
 233 233 232 232 232 231 231 220 234 108  43  65 105 142 156 152 166 190 187 173 157 146 136 140 143 158 161 132  85  77  77  69  72  72  62  58  65  91 140 178 185 189 187 178 160 136  96  61  51  46  49  55  59  61  74  91 112 124 117 118 129 112  78 105 145 149 136 130 151 180 212 201 185 181 188 183 157 134 104  71  53  57  65  74 100 172 226 213 223 235 228 227
 234 232 232 232 230 231 230 217 230  96  40  61 107 138 147 156 174 180 167 149 143 133 138 153 173 169 126  88  76  71  67  68  78  81  79  62  57  65 123 183 196 201 203 197 176 144  88  54  49  50  61  63  64  68  78  86 103 133 156 153 130 135 127  74 106 145 149 130 125 156 201 208 189 182 185 178 159 135 104  65  58  49  54  62  88 163 224 217 212 230 231 227
 232 232 234 232 231 228 228 226 210  67  42  60 102 139 147 157 172 164 144 129 127 135 156 171 142 106 105  99  93  99  96  91  81  81  88  74  58  69 117 176 194 202 206 207 185 145  91  68  60  55  65  76  79  71  57  63  83  77  92 125 152 140 129 137  84 110 141 138 130 142 180 207 195 185 181 182 165 133 103  60  54  59  71  63  74 107 174 196 215 233 229 231
 231 231 232 232 233 230 226 237 210  49  39  62 101 139 149 158 162 145 129 125 132 148 155 118  86  78  69  75  72  78  91  91  89  89  86  73  67  89 127 183 193 203 214 210 193 154 108  85  82  80  88  88  71  88  70 100  92  80  59  62  89 137 125 120 145  94 114 139 138 139 165 204 203 188 180 184 169 144 105  56  50  53  67  63  76 100 160 150 158 204 228 235
 232 232 232 232 231 231 236 229 143  37  45  60 104 140 150 160 156 134 129 136 149 146 111  73  59  43  63  80  98 102 140 130  94  92 111  95  98 115 142 178 194 207 214 211 199 163 124 104 115 121 115  66  76 115  86  92  50  73  74  69  79  80 117  85 115 151 116 116 135 153 164 195 201 193 186 184 176 150 111  58  50  53  62  60  62  99 186 194 199 167 175 207
 230 231 231 229 227 240 201 168 126  33  43  58 110 148 155 163 155 136 131 136 144 117  69  66  53  54  76  55  86  92 134 148 114  88 112 145 147 139 154 175 198 208 208 211 204 177 137 116 132 138 125 103 108 128  94  89  95  88  71  90 107  78  76  84  61 122 164 148 136 151 177 192 203 199 192 193 182 153 118  58  41  50  53  59  63  78 192 218 210 210 182 179
 230 231 231 227 231 209 170 210 120  33  36  62 119 155 162 167 153 140 136 140 116  76  67  60  74  76  86 100  96  96 139 145 140 132 140 163 152 146 165 179 206 206 204 209 208 190 154 126 127 145 149 140 130 136 138 125 117 104 112 139 140 123 120 118  92  76 109 141 139 138 155 185 204 204 196 196 181 158 131  59  38  48  54  59  65  69 182 238 230 209 216 205
 226 228 225 227 221 158 190 167  90  31  29  71 126 159 168 171 153 144 145 130  94  74  87  86 111 119  90  91 104 140 158 153 149 155 164 157 149 155 165 183 206 200 200 199 201 200 173 141 138 142 143 140 133 130 138 143 144 143 153 150 141 137 155 160 154 144 115 113 137 146 147 173 201 208 205 199 185 161 143  86  54  57  58  57  73  74 140 237 232 229 213 221
 225 224 226 235 180 165 156 189 109  32  28  78 133 162 171 166 149 131 123 106  94 110 129 135 140 144 146 150 153 148 141 142 145 147 149 154 156 164 164 179 205 197 193 186 193 194 181 157 157 156 145 143 142 144 146 141 134 132 136 133 140 156 177 192 195 190 177 158 162 171 181 190 206 213 212 206 190 158 143 111  77  69  55  49  77  85 116 195 245 230 225 216
 234 231 237 207 150 179 166 234 110  30  32  82 137 169 175 171 160 154 147 138 150 165 170 157 141 130 130 134 129 135 149 153 142 143 150 170 164 167 162 181 202 199 195 192 187 186 178 167 163 174 170 154 149 154 159 161 165 166 169 174 175 187 192 192 192 192 193 188 185 183 184 190 198 209 213 208 195 161 154 115  72  64  46  42  80  89 130 161 213 229 226 225
 232 232 230 178 170 181 236 198  54  41  44  80 142 171 179 174 166 166 175 179 180 182 182 180 173 161 159 162 172 171 164 148 139 149 170 171 165 165 166 179 197 202 198 196 189 183 181 177 165 175 181 174 154 148 156 168 173 182 183 188 188 188 186 180 183 189 193 196 198 198 198 197 198 203 209 207 193 167 160 123  70  56  54  80 126 113 140 159 179 231 224 238
 233 229 223 171 184 204 184  81  75  75  45  92 152 174 180 175 177 181 184 187 185 182 181 184 184 183 183 186 180 165 148 136 142 164 178 171 159 164 176 194 204 206 206 200 188 179 182 180 166 173 173 180 177 149 142 151 168 178 181 186 187 185 186 187 188 199 202 202 203 201 205 212 215 210 208 210 191 160 150 120  83  77 125 216 245 193 182 177 143 231 233 236
 233 231 216 162 232 209 120 173 133  59  58 102 150 177 179 184 184 184 187 188 189 187 184 186 186 186 184 177 168 153 138 130 157 177 175 167 162 166 190 210 214 218 214 210 201 192 190 182 166 168 165 170 182 173 145 138 148 161 167 172 179 186 194 201 206 208 208 210 208 207 205 210 208 208 209 206 192 166 147 116  94 104 170 202 191 209 213 217 134 217 242 233
 228 233 201 168 253 171 157 204  72  53  80 110 154 182 181 186 188 189 192 194 193 192 186 181 180 177 172 163 153 139 132 146 173 176 171 165 165 171 193 214 218 219 219 216 210 205 198 189 173 169 161 161 172 184 173 147 135 144 152 148 151 168 181 191 197 203 212 211 207 211 210 207 208 206 204 198 193 171 145 118  99 127 169 158 127 124 218 238 159 184 243 235
 232 227 210 177 250 158 141  81  54  63  84 107 155 180 180 188 189 190 193 196 196 193 189 184 179 167 158 146 137 132 145 171 178 176 172 162 162 173 195 211 218 220 219 217 210 206 199 192 178 170 162 156 163 177 182 170 150 138 140 146 147 154 164 170 183 196 202 205 209 208 212 211 206 206 199 193 193 172 142 107 105 139 153 110  72 101 208 251 185 165 242 233
 235 218 228 178 235 136  66  84  69  73  77 108 157 176 179 185 189 189 190 195 197 184 179 170 159 148 138 133 130 140 168 183 176 175 165 157 159 174 196 214 220 220 221 213 210 198 187 185 180 169 166 157 156 168 179 180 174 162 150 149 158 163 167 171 185 190 190 192 201 208 205 204 201 197 194 188 190 170 139 112 107 145 130  98  72  88 195 252 208 159 245 236
 234 218 232 204 215  84 141 119  58  67  79 107 157 171 171 177 184 186 189 186 181 174 167 161 157 152 140 131 142 170 184 180 174 168 162 158 161 183 201 211 212 211 214 216 211 202 190 183 183 164 166 159 153 163 175 178 182 177 168 160 160 163 165 173 178 182 181 186 188 198 196 189 191 191 189 184 182 159 134 112 108 131 110 130  99  78 190 252 213 162 247 236
 234 218 228 230 177  31 183 149  55  61  94 104 150 165 167 174 176 183 183 178 169 171 162 159 158 149 143 143 167 183 184 178 176 169 160 163 167 182 191 195 201 203 207 208 205 205 198 195 191 168 157 161 157 162 171 173 178 178 177 173 165 161 166 170 169 170 173 176 177 180 183 184 186 189 187 179 180 165 118 107 110 116 127 159 123  83 188 253 206 168 249 235
 232 221 228 242 155  26 172 153  56  69 101 103 140 158 165 165 169 176 175 167 164 171 169 159 154 156 155 171 180 183 183 179 171 164 167 172 174 181 186 185 187 192 199 202 203 207 203 206 204 186 143 150 154 154 164 171 173 174 176 175 175 166 162 162 158 160 159 157 166 168 169 180 183 187 185 180 174 155 110 108 124 143 162 184 136 104 162 233 189 179 251 236
 230 226 222 245 160  27 141 150  52  80 106 101 130 154 162 161 165 166 167 162 160 161 167 172 159 160 170 182 182 182 182 178 168 166 177 177 165 173 178 179 172 171 179 186 204 204 202 204 210 204 151 137 151 153 159 169 173 168 167 175 175 169 155 148 145 152 150 149 155 160 161 173 181 187 188 180 174 148 117 116 117 165 193 199 136 121 207 189 155 214 242 235
 232 229 221 245 179  19 141 157  57  89 122 100 118 150 160 158 159 155 158 157 152 152 162 165 157 159 176 183 184 181 176 171 168 176 185 165 145 152 158 154 139 144 148 154 169 169 176 183 194 205 167 128 138 145 151 164 176 176 160 163 169 171 157 146 141 143 147 145 148 149 156 168 180 191 193 184 177 138 160 117  86 122 157 190 142 141 231 175 135 250 236 235
 233 229 224 236 199  25 140 172  64  94 137 100 110 150 159 157 154 151 152 148 147 146 140 132 151 172 186 190 183 179 167 168 169 173 174 149 127 124 129 123 109 116 118 119 121 124 142 150 153 168 163 135 136 137 141 157 169 179 169 156 159 163 160 150 140 135 139 138 140 144 154 163 173 188 195 189 173 131 186 150  79 101 122 170 155 149 193 168 164 249 233 236
 234 225 214 229 221  40  74 135  88 105 138  94 109 154 156 152 149 149 146 146 142 143 141 143 162 181 184 185 181 171 166 165 165 147 136 123 104 104  97  93  85  89  89  86  95 110 105  85  92 112 141 140 140 135 136 150 161 174 176 158 146 148 147 140 134 130 133 140 136 142 152 163 175 185 194 194 165 131 178 175  90 107 119 156 168 161  98 170 195 230 233 236
 236 221 203 236 242  72  24 180 135 112 138 100 115 154 151 142 146 147 141 140 145 146 152 159 169 181 180 179 180 168 162 162 174 131  82  57  56  70  70  68  65  64  64  68  81  72  34  25  42  87 138 151 146 138 136 141 156 168 174 162 143 136 136 129 125 121 121 136 136 143 151 162 174 181 192 192 161 135 169 160 102 114 119 156 188 133  87 244 203 216 238 236
 235 227 178 253 198 132  42 187 191 122 141 110 115 154 151 142 144 144 140 143 152 155 154 162 170 177 176 178 176 170 161 162 178 165  88  51  43  46  53  50  48  52  53  54  53  46  44  43  54 107 159 169 159 148 135 139 149 158 168 172 157 137 128 118 114 105 112 125 134 143 155 164 175 182 193 183 156 131 156 139 107 116 120 138 156  99  88 248 205 204 242 235
 232 240 172 192 169 238  69 114 227 145 153 127 112 147 150 143 144 140 138 142 155 157 151 157 164 171 172 175 166 160 155 168 180 184 155  85  75  83  71  52  51  51  50  47  51  65  76  83  92 141 179 179 170 156 135 136 144 153 161 169 169 150 131 119 112 107 116 131 137 148 155 166 175 178 188 170 146 126 156 137 109 109 120 140 178 113  80 239 202 193 243 235
 231 233 225 103 195 253 137  67 213 167 159 127 102 135 150 145 142 140 137 140 149 151 149 154 162 167 176 172 164 155 161 180 184 173 168 136 118 111  91  82  78  72  73  65  59  69  94 118 143 155 173 179 179 171 154 134 136 146 159 166 168 163 145 123 112 112 123 138 145 149 156 163 173 178 182 165 121 119 175 174 139 123 132 161 186 150  92 234 193 186 246 235
 232 224 247 133 128 211 196  77 134 163 162 114  96 130 149 142 141 144 141 141 134 135 147 157 166 168 177 172 162 161 173 184 182 168 153 133 125  89  82  88  92  89  89  82  70  76  94 117 138 151 166 177 184 179 171 141 131 141 162 167 166 166 155 136 124 122 126 137 146 152 157 163 172 177 179 158 109 107 166 224 224 206 175 184 181 166  92 240 177 190 246 236
 231 223 234 138 165 143 149  98  87 147 154 132 102 117 146 138 140 143 142 146 138 132 151 160 161 170 178 167 156 159 175 177 170 149 118 128  93  66  73  80  88  94  97  85  75  74  81  95 111 137 152 158 174 181 178 162 129 132 149 168 178 173 165 156 141 139 134 139 150 156 160 163 167 176 176 144 106 105 123 166 186 202 219 196 181 151  78 243 159 210 240 235
 216 219 233 124 200 189 129  88  90 138 150 132  99 110 143 139 139 140 144 144 153 155 159 161 164 168 169 162 158 166 168 165 159 130 116 124  75  68  72  74  82  93  93  83  75  69  68  69  93 114 126 133 156 173 175 175 146 131 138 157 178 179 175 170 154 146 144 145 148 158 160 161 169 176 177 128 103 117 119 126 143 182 169 176 192 118 123 244 133 233 235 234
 194 205 227 126 185 210  98  81  98 130 136 104  89  99 143 140 134 139 145 144 142 158 166 167 171 169 162 159 161 173 160 150 135 106 108  93  75  60  61  71  81  92  87  82  76  64  59  66  76  79 105 106 140 157 163 169 169 140 132 152 174 183 182 174 162 148 152 149 148 158 160 162 170 179 173 123  95 144 179 176 175 189 172 196 185  87 182 202 153 248 233 235
 218 192 192 147 159 178  62  28  42 108 150 104  83  85 138 142 134 136 144 147 138 151 163 170 172 165 160 156 169 160 138 133 110  82  87  74  69  54  51  73  88  97  96  89  77  64  54  57  57  63  77  90 120 135 148 156 167 157 130 140 161 180 178 177 174 151 152 156 150 154 161 162 170 181 169 118  84 131 177 193 189 210 232 208 140  98 223 141 202 244 234 235
 234 210 191 156 102 100  44  24 106 102 133 101  66  70 133 144 135 133 140 146 154 143 154 169 169 164 155 157 161 125 119 118  98  75  82  80  67  57  56  79 102 109 110 103  99  81  61  51  48  55  59  75 105 123 123 141 149 164 143 130 155 172 180 174 166 149 154 158 153 151 155 160 168 182 157 107  84  98 132 156 170 197 212 149 104 169 191 137 242 233 234 234
 226 208 210 178  98  71  62  23  51  61  88  99  63  56 126 145 133 132 136 143 151 143 156 165 165 161 147 149 131 107 103 106  94  69  85  99  72  59  75  96 123 141 135 124 119  98  71  48  46  48  53  63  83  90 103 109 132 154 160 130 141 168 180 170 165 147 152 155 152 148 150 154 165 175 149  91  66  84  84  86 101 130 117 108 166 196 132 204 242 231 233 236
 168 154 127  93  75  58  43  16  13  17  26  51  49  54 109 144 136 127 130 142 151 145 153 158 160 150 144 139 112  99  90 102  96  65  90 105  93  73  89 113 135 142 133 128 114  91  64  51  45  47  51  55  61  69  79  83 115 141 165 139 127 159 175 170 168 146 146 155 148 143 140 150 158 163 142  80  59  92  43  40 100 122 145 185 188 170 172 236 228 232 232 235
  86  89  85  82  86  59  42  55  12  13  34  48  45  55  90 139 140 130 127 135 149 146 146 156 155 135 146 130  97  78  78  90  92  75  84  89  88  87  96 104 106 100  95  98  91  79  65  54  48  51  56  58  57  54  57  63  94 120 152 157 122 152 171 169 160 144 144 151 149 141 141 147 156 159 130  73  62  63  64 133 172 171 179 173 171 173 227 222 230 231 224 232
 188 198 215 230 206 148  86 152 122  42  24  44  48  59  78 127 141 136 133 131 140 140 143 152 149 144 142 108  84  64  61  71  82  82  69  72  81  85  82  78  76  74  72  70  71  67  65  59  55  54  58  57  57  49  45  48  79  92 131 163 126 143 170 166 158 142 144 149 149 141 144 148 154 155 116  71  55  53  98 164 192 189 160 159 171 210 214 217 225 231 220 223
 232 226 229 236 216 175 175 159 181 216 135  87  85  69  74 113 141 137 139 132 140 137 136 147 143 145 137  99  72  53  49  62  68  68  59  58  61  53  40  33  31  28  29  32  34  35  37  44  49  51  47  46  49  45  39  41  53  71 103 163 135 135 167 165 155 136 142 147 147 142 141 142 147 150 109  75  53  62  94 156 169 191 200 195 204 203 210 194 212 231 217 231
 224 220 224 231 212 178 189 233 181 187 174 153 115  64  76 106 136 136 136 135 138 138 135 145 141 142 135  92  68  49  46  58  57  52  50  37  20  11  10  12  15  14  16  17  16  15  17  19  23  33  34  35  37  39  39  39  47  60  90 155 146 134 156 166 155 134 141 144 143 140 139 139 147 142  89  71  59  65  98 171 215 222 189 199 207 196 197 201 193 218 215 233
 217 219 220 227 210 187 191 230 220 214 173 127 124  73  79  99 127 133 132 133 137 137 135 147 146 143 121  83  70  49  47  51  48  37  24  11   4  10  17  20  23  26  28  28  25  27  22  19  19  17  14  14  18  25  36  42  53  65  86 145 151 140 150 165 157 133 139 141 146 138 133 136 142 125  75  61  52  60  62 115 181 149 157 193 199 212 188 210 171 195 220 216
 228 219 223 216 209 190 218 224 225 237 195 119  90  74  78  93 119 131 131 134 144 135 135 146 150 149 129  81  68  50  47  38  22  12   6   6  15  28  34  39  40  41  39  40  46  48  49  41  35  29  19  12   8  21  31  44  56  64  78 141 157 139 151 158 152 130 136 138 147 139 133 133 138 106  65  62  54  53  46  55  69 105 173 196 222 228 207 201 160 199 221 202
 221 226 209 207 195 192 229 241 210 135  89 110 143 103  88  92 107 124 128 133 148 141 130 146 153 153 127  83  62  57  58  51  32  12   3   8  32  53  62  62  66  64  55  63  73  75  75  71  65  49  25  15  33  66  68  55  65  63  69 135 160 138 146 158 147 129 135 132 135 130 127 132 129  94  74  59  44  43  32  33  41  88 130 176 225 224 172 142 155 224 224 187
 165 195 201 186 174 217 246 194  76 102 186 226 212 109  82  89  97 112 127 133 145 147 136 143 151 150 125  80  62  69  79 107  98  82  48  21  50  79  99 106 109 102  96 101 101 105 109 106  96  74  62  84 100 115 114  84  77  63  67 130 158 142 141 156 151 131 133 129 134 127 121 126 112  79  64  38  39  39  38  42  52  58  64  82  92  77  74  92 154 230 202 190
 166 167 188 193 211 245 177  74 132 221 205 211 204 111  73  74  83 103 120 123 138 149 142 142 147 152 141  79  67  80 105 134 141 135 135 116  98 107 124 117 103 111 130 128 126 127 128 126 120 126 139 141 141 138 127 110  89  66  75 134 155 142 142 149 144 131 131 135 132 126 125 119  99  80  53  30  38  50  62  59  49  43  51  80 100 104  83 117 183 213 192 213
 214 181 143 208 237 200  87 146 192 209 194 227 195 109  64  60  75  95 111 114 137 150 143 144 149 150 142  86  67  96 130 148 158 157 158 158 154 155 153 150 141 138 147 150 142 151 159 158 166 170 165 160 156 152 141 128 101  83  92 135 148 136 142 150 142 135 135 136 129 121 120 108  85 111 102  41  40  59  70 100 119  73  28  36  65  87 122 166 183 214 206 226
 142  99  55 138 229  92 119 181 207 198 191 231 174  96  50  57  58  72  97 114 130 146 140 146 145 148 133  86  88 117 144 161 164 162 163 170 175 178 179 175 176 176 184 186 175 173 183 186 177 173 167 162 161 157 151 140 116 102 105 124 138 136 143 148 140 131 136 141 128 116 114 102  82 184 166  52  46  62  80 111 168 154  90  77  38  34  90 163 194 189 207 231
  83  55  62  62  82  73 128 140 184 191 212 222 142  61  44  53  59  65  83 108 125 147 144 145 142 147 127  95 106 128 154 164 165 165 159 161 160 163 161 157 158 158 158 155 149 142 149 158 157 157 156 159 165 163 155 146 125 112 112 122 129 133 143 146 136 131 140 144 125 107  98  89  74 191 125  52  79  46  60 137 228 199 184 122  99 116  84  95 174 206 217 232
  73  44  65  61  34  53  78  90 108 118 143 153  69  44  47  56  61  60  71  98 121 149 149 145 145 140 119 112 119 134 156 162 165 165 161 154 148 137 131 132 126 120 121 120 116 117 123 130 137 141 149 159 163 161 161 149 131 126 129 127 122 127 138 140 135 134 141 140 117  99  75  70 115 100  55  60 126 102  39 122 223 217 200 149 213 122  85 118 195 236 226 225
  99  52  69  73  47  37  32  48  63  79  83  56  27  40  66  62  61  58  71  92 116 146 154 140 140 130 123 120 127 136 154 161 165 164 162 152 138 128 105 114 100  88  91  97  94 100 104 103 118 126 144 157 160 157 154 140 133 134 134 132 125 128 136 135 132 136 143 141 108  84  70  77 165  93  27  50  65  65  59  85 200 240 194 177 159  60  98 164 229 228 228 223
 107  64  78  71  60  89  71  46  37  37  30  13  23  54  65  56  62  62  75  89 116 142 150 141 138 136 133 133 141 143 150 157 161 158 159 153 143 126 107  98  90  75  74  82  87  88  91  90  95 116 138 148 155 149 143 139 141 143 137 132 125 131 130 133 132 144 147 133  98  78  71 120  89  23  21  22  73 116 194 159 116 171 175 119  43  86 156 193 241 230 230 220
  99  78  83  76  63  92 105  99  86  79  72  39  34  35  47  51  62  72  71  88 113 133 152 146 133 132 132 139 148 148 143 148 154 156 154 148 141 126 112  96  83  72  64  65  76  77  81  88  92 118 140 144 144 142 138 139 145 153 152 137 125 130 127 125 132 142 138 122  89  72  75 127  54  15  21  30 107 181 224 241 171 194 170  36  79 147 161 235 231 230 236 225
  95  88  91  76  69  95  96  79  61  58  57  51  35  29  39  60  67  84  80  83 104 120 147 143 126 122 135 143 150 150 142 149 150 150 152 145 135 126 118 102  77  67  65  63  70  71  71  95 103 123 136 137 135 137 137 142 152 153 151 136 127 127 128 129 136 139 130 106  78  70  95 106  21  57  36  75  53  65 111 182 216 254  86  30 176 142 207 241 228 235 237 225
  96  94  87  66  76  86  58  55  54  49  39  34  39  27  38  68  71  78  78  82 100 113 141 151 128 116 125 141 146 155 152 149 150 150 147 143 138 135 128 112  84  66  60  60  61  62  76  92 113 126 133 137 134 132 134 139 146 146 141 129 123 131 134 135 137 135 118  96  79  79 120 103  51 112  72 178 228 130  52 156 254 165   6 179 170 158 237 232 233 236 235 227
  93  99  72  80  69  45  59  75  67  55  40  19  26  31  40  52  57  73  72  67  86 111 133 155 131 118 121 131 143 156 146 147 152 151 144 142 139 137 134 114  88  67  69  61  54  57  77  98 113 119 131 137 137 134 136 138 137 134 132 122 126 139 143 143 138 122 103  80  72  83 129  81  89 183 100 253 197 122  66 164 255  71  97 246 125 224 234 230 235 236 234 228
  96  92  65  91  97  66  83  91  59  57  53  54  34  31  37  47  47  57  62  60  78 105 125 150 137 116 121 129 137 149 149 145 149 146 142 143 142 146 143 124  96  78  83  74  70  67  78 108 117 117 125 134 139 142 145 143 137 130 126 113 121 148 147 142 126 105  90  78  74 104 128 110 214 124 127 152  63  74 152 241 222  41 216 200 153 247 235 234 225 229 233 228
  94  88  61  91  95  77  81  93  58  52  54  69  52  27  32  41  47  48  49  64  68  86 108 135 143 118 112 126 134 141 153 148 148 147 145 145 148 149 146 133 115  96  94  96  87  85 104 118 122 123 130 141 144 152 154 148 134 120 109  96 129 149 146 131 114  95  79  74  80 124 131 182 184  52  52  47 140 216 249 245 212  57 209 165 188 238 229 223 219 228 236 228
  95  91  63  88  95  88  72  92  80  48  47  56  39  28  35  41  52  55  38  52  57  72  93 119 139 113 106 118 129 132 144 152 153 154 148 152 159 155 143 130 120 102 101 103 110 114 127 128 130 140 147 154 157 157 154 143 132 106 105 104 134 146 138 121 109  91  74  70  97 143 135 101  67  68 137 213 247 244 236 231 236 115 123 125 176 207 209 202 205 233 237 224
  95  97  67  74  99  96  81  76  83  62  51  42  30  36  41  41  40  32  24  66  80  62  80 101 108  92 102 105 119 130 141 157 162 163 161 162 160 155 132 115 113 107 105 111 129 134 143 148 157 151 162 162 163 159 150 137 119 105 111 119 118 130 129 112 104  86  70  83 123 150 109  31  63 175 211 238 233 234 231 227 239 214 141 113 150 173 177 196 231 241 235 222
  95  96  88  58  84  94  94  78  67  70  49  38  39  43  43  40  33  26  21  66 113  61  71  81  75  91  96  98 110 123 138 154 161 167 168 169 152 132 111  96 101 103 105 120 135 141 157 175 170 168 167 163 154 146 143 131 108 101 112 116 102 108 113 108  99  84  85 106 130 149 166  90 206 225 177 189 229 236 231 232 233 244 245 180 165 221 233 244 238 235 220 211
  96  94  96  82  64  59  68  64  50  44  38  41  41  41  43  39  33  23  20  33  77  96  58  66  81  88  91  85  92 111 123 136 146 155 156 152 152 125 111  92  90  89  98 114 132 136 146 157 155 156 151 143 134 128 124 107 104 101 108  98  86  97 106 105 100  85 103 122 133 150 127 118 228 229 207 148 238 238 230 232 233 230 237 242 185 224 242 240 233 212 190 215
  93  93  93  95  92  79  73  81  58  45  44  41  41  39  40  39  34  22  15  27  32  79  83  63  63  64  75  78  89  98 114 116 124 128 132 135 130 114 111  87  78  80  82 100 110 114 125 132 136 139 127 117 121 118 113 100  96  89  87  83  83  98 102  96  94 104 121 128 138 137  64  94 104 119 139  99 185 219 238 245 244 243 244 236 233 182 189 198 191 202 226 233
  92  92  92  92  92  91  93  74  53  48  45  43  40  39  40  40  36  25  16  22  29  32  74  84  44  50  53  70  80  82  88  98 102 108 113 109 108 107 102  86  71  67  71  80  87  96 106 115 115 102 112 109 105 105 101  94  84  71  72  75  87 102  96  92 101 121 131 134 146 122  73  97  87  83  69  72  95 106 119 141 168 194 211 221 252 253 230 226 235 243 240 233
  89  92  92  93  90  78  64  50  49  47  45  45  43  40  39  39  36  30  22  17  24  33  44  70  64  45  39  56  60  61  69  85  94 102  98  93  91  94  87  76  67  63  67  70  72  75  88  96  85  75  92  92  93 101  92  87  67  55  64  66  80  85  93 102 111 130 141 144 141 103  99 112 107  57  45  93  98  90  82  76  74  81  94 105 137 171 205 230 243 250 252 248
  89  92  93  89  85  68  54  49  49  44  46  44  42  43  43  39  36  31  20  12  24  30  33  37  47  51  36  41  46  56  64  75  84  86  82  75  71  79  72  66  61  60  62  60  58  60  68  75  64  60  77  84  79  73  76  79  57  49  62  70  75  90 113 121 132 141 147 150 141  88  96  78  40  40  89 106 104 100 101 100  99  96  87  81  76  74  85  97 116 144 174 201
  91  92  92  85  65  54  52  50  44  43  45  44  42  41  43  42  39  33  21  13  24  31  35  40  36  42  32  32  42  49  58  67  72  69  68  59  58  63  64  62  54  57  60  61  54  52  55  59  58  52  55  72  71  56  62  72  55  56  68  69  83 115 135 130 135 143 149 155 133  43  38  40  63 102 105 102 101 104 105 104 105 102 100  98  96  93  89  86  82  79  76  85
  88  92  84  65  53  52  49  49  43  45  46  44  43  42  41  42  41  36  26  14  21  35  40  39  36  31  30  31  35  40  50  57  67  62  54  48  53  57  61  52  39  45  49  56  49  43  45  45  45  45  47  57  60  49  57  65  60  69  81  95 118 138 142 134 138 146 153 151 121  65  88 107 108 101 101 103 101 103 104 105 101 102 104 105 104 103 101 100  99  96  92  89
  58  70  64  52  49  50  49  48  47  47  46  45  45  43  44  42  41  39  31  16  18  34  38  37  31  24  26  28  28  36  43  43  50  54  48  35  44  48  51  42  33  35  37  41  42  42  42  37  37  44  42  40  47  48  60  64  77  99 113 135 146 153 145 135 142 150 151 158 129  87  96 106 103 103 102 101 103 102 103 102 101 103 102 100 102 103 101 100 102 103 105 102
  53  59  58  55  51  49  47  46  46  47  47  44  45  44  41  41  43  39  33  22  14  29  39  38  33  29  26  25  28  28  34  36  34  43  41  31  36  37  37  36  40  39  36  34  36  38  34  32  32  43  39  34  41  46  53  62  77  96 121 143 154 153 146 143 148 154 150 163 203 120  92 108 110 106 101 102 104 103 104 102 101 101 101 102 102 100  98 101 102 104 104 101
  55  58  58  55  52  51  49  45  46  47  47  46  45  45  44  44  43  42  37  24  12  22  37  37  36  30  28  26  22  24  26  29  30  33  27  29  33  35  35  36  39  40  36  30  31  30  28  26  29  38  36  34  39  43  48  50  61  92 126 152 155 150 145 146 151 153 154 143 179 219 117 103 108 104 104 103 103 102 101 103 103 102 102 102 102  99  99 102 102 102 101 102
  58  59  54  53  52  48  49  48  48  50  49  48  47  46  45  44  43  43  37  28  17   7  23  36  35  31  29  27  21  22  22  20  24  23  26  24  26  31  34  31  32  35  29  24  26  23  21  22  26  30  28  34  36  48  70  77  88 108 129 150 154 150 148 150 151 151 155 148 129 205 195  99 106 107 105 103 102 102 100 102 101 102  99 101 101 101 102 102 100 102 101 102
  57  58  56  55  51  47  46  45  47  46  48  49  47  45  45  44  44  41  37  32  26  61  29  24  38  35  31  26  24  21  17  16  20  20  27  29  28  30  31  30  31  27  24  22  24  23  20  22  26  28  30  38  52  72  91 110 114 123 138 146 153 153 149 148 153 157 158 150 139 162 238 113 101 103 103 103 100 100  98  99  99 101  99  97  99 100 101  99  99 101 100 100
  54  55  59  75  54  47  44  43  44  46  47  47  49  47  47  46  44  41  40  35  19 108 163  71  28  35  35  30  27  24  20  15  14  15  13  41  57  39  41  41  41  33  31  33  28  27  28  30  35  37  41  55  74  86  99 112 122 131 138 146 150 156 151 149 158 159 164 153 146 189 255 186 100 101  99  97  97  96  97  98  96  99 102  97  99 100  99 100 102  99 100  99
  54  53  54  55  51  50  46  45  46  46  45  46  49  49  49  45  45  43  41  38  23  51 181 207 133  56  35  34  31  28  22  18  14  15   8  51 115  68  68  70  69  67  67  66  59  44  38  39  41  44  50  70  85 102 111 115 122 131 137 142 144 149 151 154 161 166 162 134 159 242 255 231 111 101  99  99  98  97  99  99  99  99  98 101 102 100  98 100 101 100 100 100
