P2
# Generated by OpenCV 4.2.0
92 112
255
  50  52  53  56  64  67  67  73  83  87  86  89 100 110 122 127 124 120 125 135 138 141 139 133 144 162 172 172 110  59  43  46  55  46  55  64  65  50  42  36  17  19  42  37  38  40  32  35  49  79  76  56  67  92  90 131 160 186 199 197 200 198 191 192 191 191 193 195 197 196 193 192 193 193 196 197 197 199 202 202 200 193 189 187 188 195 194 191 190 183 178 176
  49  52  53  57  63  66  68  75  82  85  88  91 100 111 122 131 123 118 131 142 141 148 147 140 142 146 147 124  68  40  36  34  27  33  45  58  58  57  51  46  41  25  27  38  44  39  44  41  42  50  68  84  68  58  83  92  92 114 147 195 199 199 192 190 190 191 192 195 198 199 195 191 194 195 197 196 196 197 201 203 200 193 190 192 193 193 192 191 191 186 180 179
  48  51  54  56  60  62  73  80  82  81  89  93 100 113 127 135 125 120 138 144 142 149 153 150 142 130 104  55  29  33  42  43  34  37  42  52  60  60  54  62  61  56  39  22  48  51  35  45  53  43  46  67  96  77  57  87  92  73  68 117 187 200 192 185 185 190 191 193 197 198 197 193 197 200 201 197 196 197 199 203 204 200 194 195 194 190 186 189 192 188 183 180
  49  53  57  59  60  60  71  89  87  79  84  87  93 104 117 126 121 115 126 129 127 126 114  90  65  48  35  31  24  22  30  40  39  32  39  49  55  64  60  50  62  58  64  45  32  65  46  44  59  65  53  62  67  86  73  58  82  89  60  51  90 177 188 179 181 191 194 193 192 194 194 193 197 201 202 200 200 200 200 202 205 203 195 195 196 189 186 192 193 187 181 178
  51  53  56  60  63  62  70  87  88  78  77  83  90  98 110 120 110 103 108 117  97  69  50  40  39  43  39  35  35  35  29  25  42  39  24  29  47  59  65  69  52  49  56  78  46  51  77  45  57  65  67  66  66  75  91  54  48  85  76  46  28  71 148 174 179 182 199 196 190 190 192 192 193 197 201 200 198 200 198 198 200 197 194 192 194 191 190 194 191 181 179 177
  48  51  54  62  66  64  66  76  84  92  86  86  95 105 119 121 115 105  94  78  59  48  44  53  56  47  43  50  57  47  36  35  36  54  44  34  33  48  66  68  70  59  40  65  70  46  72  62  46  55  73  70  68  73  83  78  41  45  89  59  32  20  52 109 146 167 200 197 193 189 188 191 193 195 196 194 194 196 196 198 196 194 195 195 191 193 193 192 188 183 180 179
  49  50  55  62  63  63  65  68  85 104 102  87  91 105 116 114 102  75  59  44  44  38  38  46  55  62  50  40  41  49  42  38  42  50  66  52  45  28  49  71  73  68  47  31  67  49  59  85  56  49  66  82  82  78  81  70  74  35  51  75  46  26  22  39  56  97 160 188 191 187 187 190 192 190 191 192 198 200 198 198 197 192 197 199 197 196 196 194 191 189 186 180
  50  50  54  60  60  60  65  70  83 106 105  92  93  97  92  82  54  38  31  29  23  25  27  43  53  56  69  67  45  35  44  51  38  49  72  74  68  51  29  57  83  76  53  23  41  43  44  84  65  39  60  81  95  88  73  63  65  75  22  53  58  34  22  21  24  25  66 135 169 187 187 185 189 190 192 196 199 202 196 193 194 193 195 199 198 196 197 196 194 193 188 180
  48  49  52  56  57  60  65  72  79  92  97  93  91  92  77  55  25  15  17  10   8  20  29  28  38  51  56  66  63  57  49  53  49  42  55  54  70  71  53  45  67  92  86  37  15  43  24  60  75  37  46  58  83  90  65  53  48  58  52  25  45  36  17  16  19  19  15  44  89 151 181 185 191 194 198 196 195 199 195 188 191 195 196 194 192 194 198 199 193 190 184 176
  48  49  52  54  55  59  66  72  77  85  91  91  89  82  67  46  29  25  28  21  14  12  24  35  36  39  48  55  73  70  63  64  64  59  52  38  48  76  51  52  43  67 105  77  11  22  27  33  67  46  35  34  58  82  64  30  39  32  51  35  25  32  18  12  17  23  18  15  18  45 129 191 195 196 197 192 193 199 197 193 193 196 194 191 195 197 197 194 189 182 176 176
  48  51  54  55  57  60  67  72  77  84  88  91  89  82  57  32  25  35  41  42  39  37  29  27  37  40  42  52  58  79  71  56  57  72  55  40  32  40  49  28  56  39  81  81  34   7  19  29  45  57  46  25  35  62  54  29  13  34  35  48  32  22  21  13  10  13  15  13  11   8  54 162 193 197 197 192 191 198 199 195 197 202 198 198 199 198 191 188 189 186 181 184
  51  51  53  56  58  62  67  75  84  83  84  87  77  62  54  48  51  50  49  50  53  51  37  22  15  23  48  58  52  50  81  71  45  54  76  53  35  24  27  15  33  45  45  57  47  21   7  21  23  32  44  28  15  44  52  33  13  21  22  36  33  18  20  19  13   9   7   9  13   6  23 124 170 190 193 192 197 200 195 189 193 200 200 197 198 193 192 189 190 190 187 189
  51  51  54  61  60  61  65  76  85  82  76  63  54  46  40  37  37  39  39  41  42  43  48  48  47  18  22  49  51  41  39  86  71  47  54  86  60  32  19  13   6  28  33  44  34  28  12   6  17  18  26  26  12  26  38  41  14  18  11  19  29  31  19  20  15  11   8   9  11   6  13  78  63 106 168 202 200 201 191 182 188 197 195 192 195 198 200 196 187 186 188 189
  48  48  56  64  64  62  65  73  81  80  73  58  45  31  25  25  32  24  37  43  46  52  56  52  61  68  56  24  19  34  26  47  67  60  43  50  83  70  33  23   8  10  27  30  29  15  18  11  11  14  19  16  12  17  24  33  26  12  21  29  21  28  30  22  26  16   9   5   6   4   6   4   0  22 158 199 199 195 191 187 192 198 193 193 199 200 199 196 188 187 190 190
  49  47  51  62  67  67  69  74  79  81  77  52  27  26  28  30  29  32  30  31  35  38  35  30  23  24  48  71  57  29  23  27  48  54  47  35  42  71  57  28  22  13  20  28  26  19  16  21  18  16  18  17  13  14  19  21  32  17  19  33  28  22  26  19  25  22  15   6   3   1   4   1   3  35  98 170 189 188 193 192 195 200 196 192 198 198 194 191 185 186 191 192
  50  48  51  56  63  66  68  73  74  67  62  48  26  28  30  34  40  44  45  48  47  39  41  41  28  14   8  24  60  77  66  51  51  57  46  45  39  30  37  38  26  24  24  32  30  27  29  41  39  33  34  29  28  24  22  19  29  33  28  38  36  30  22  17  20  18  20  13   4   2   6   3   4   6  11  96 180 195 185 182 195 203 199 192 198 199 196 192 188 188 190 192
  51  52  56  58  60  64  70  75  67  47  45  37  34  38  43  44  50  58  60  66  71  62  55  48  39  33  25  16  19  36  58  66  63  62  60  43  32  33  31  29  31  28  29  32  38  57  49  59  59  57  66  56  39  40  40  36  29  42  47  38  36  41  37  26  22  21  19  12   6   6   7   9   5   1   4   7  97 171 178 182 194 203 200 195 198 202 198 191 189 193 189 185
  51  54  58  60  62  64  71  74  54  33  35  40  39  39  39  30  30  32  37  45  57  72  77  70  57  41  32  20  19  33  55  67  61  58  61  61  44  34  33  36  35  34  37  51  58  73  79  76  93  85  92  87  64  71  68  60  62  56  55  60  56  39  38  39  33  28  25  23  22  12   9  10   7   5   5  12  49 128 167 182 198 201 201 198 198 198 194 186 188 193 185 177
  50  51  56  62  64  66  67  58  34  25  38  37  40  34  26  31  37  42  49  53  53  52  55  57  59  49  39  32  29  31  52  86  96  99  93  77  67  56  45  45  52  58  62  68  88 101 109 113 146 140 146 134 120 127 115 105 111  90  82  96  76  54  51  44  38  26  33  32  24  15  11   7   3   4   5   3  14  64 141 183 198 200 201 202 199 193 189 189 193 189 180 177
  51  52  57  60  65  67  61  44  22  24  39  38  28  25  25  31  32  38  47  52  60  60  55  51  47  45  43  45  48  51  64  89 119 137 151 140 114  83  69  61  68  78  83 102 115 149 157 157 177 181 179 177 168 173 170 157 156 128 123 123  97  83  67  58  57  46  24  21  20  20  14   9   6   3   6   3   3   8  54 159 199 200 198 201 199 191 189 195 197 189 182 185
  52  54  56  60  64  58  45  31  18  27  38  30  31  26  24  26  37  40  42  48  54  57  51  51  54  58  64  68  79  96 113 122 150 164 169 171 166 143 120 106  98 102 126 136 144 174 193 194 192 198 197 196 195 192 195 192 182 161 147 139 129 114  97  94  87  70  46  29  19  17   6  10  13   4   4   3   2   0  20 142 204 199 194 196 198 194 191 195 197 187 185 189
  55  55  55  62  67  56  33  19  17  30  34  34  25  24  32  38  42  39  44  40  44  50  56  71  87  94 107 116 128 140 149 160 170 174 190 192 185 184 177 170 170 170 170 185 187 192 201 206 203 201 204 202 198 195 197 195 189 179 168 156 153 137 122 123 111  94  79  51  23  16  15  14  13   3   2   3   3   0   9 115 193 195 194 198 199 194 190 192 193 185 181 189
  58  56  54  60  61  44  28  19  13  28  43  35  31  36  37  36  41  43  44  50  57  71  82 105 123 136 146 155 164 174 181 187 191 187 192 192 191 195 198 194 193 195 201 205 208 210 207 204 208 207 206 203 202 198 196 192 190 192 186 181 176 163 149 137 130 119 106  86  57  25  15   8   3   2   3   3   4   1   3  59 157 186 192 200 197 190 187 192 193 186 186 191
  58  54  56  57  48  37  22   9  13  48  40  31  30  26  30  37  48  53  58  73  85 103 121 140 159 170 173 180 189 192 197 196 196 196 194 195 200 202 203 202 204 205 207 208 212 214 211 208 212 211 208 207 202 200 199 199 197 193 189 188 184 178 172 158 151 142 132 119  97  60  22  13   9   7   6   4   2   2   3  17 106 173 187 196 194 185 186 196 198 192 192 190
  56  56  58  61  54  41  20   5  29  50  26  28  32  49  53  57  54  50  67  91 118 140 157 173 178 184 187 190 192 193 196 201 199 198 200 200 203 202 205 210 211 210 211 214 217 216 215 214 214 213 210 206 205 203 204 204 201 197 191 188 188 185 176 169 164 156 148 142 131 111  64  26  14  13   6   9   6   3   2   7  77 158 180 190 188 184 191 200 202 197 194 188
  55  56  58  65  57  25   8  17  45  43  35  41  53  52  46  41  35  67  97 122 149 162 174 180 185 186 187 191 192 193 195 198 201 203 201 201 204 209 208 209 211 212 212 213 215 216 216 213 213 210 211 209 209 208 206 206 204 202 198 193 188 186 182 180 173 165 159 152 144 138 105  66  32  13   5  11  12   7   8   5  29 110 168 182 187 189 193 198 200 198 195 189
  57  58  60  63  41  15  20  37  37  28  32  41  47  39  30  29  59 108 133 154 168 169 175 181 186 188 189 190 196 195 197 199 198 201 198 204 208 211 211 212 213 212 213 213 215 216 215 211 214 215 214 213 212 210 209 209 204 204 205 199 192 190 188 185 184 169 166 162 148 145 131 101  66  22   8  10  13  11  15  10   8  53 124 173 192 197 191 191 198 196 191 190
  57  57  61  62  34  21  26  30  32  28  42  54  48  36  28  45 112 146 159 163 170 172 175 184 187 187 191 195 199 200 201 202 202 201 204 208 209 212 213 214 215 213 217 218 218 218 216 213 213 216 215 212 210 211 211 211 209 207 207 203 197 193 191 185 183 174 173 172 160 145 136 121 103  61  18  10  20  16  10   4   6  14  75 162 190 198 186 185 196 197 190 190
  54  57  62  54  33  30  26  38  34  45  60  57  47  35  38  97 146 161 160 167 167 172 175 186 189 188 196 200 201 205 206 205 206 207 207 210 212 213 215 217 218 218 218 219 221 220 218 218 216 219 218 213 212 212 212 213 212 212 208 202 198 194 191 186 184 181 179 175 170 154 139 131 121  88  46  17   7  21  18  16  12   8  39 138 180 190 185 187 195 197 193 194
  53  56  60  53  44  29  39  39  29  58  68  60  48  38  72 136 155 160 163 170 169 175 180 189 191 196 202 204 202 206 207 207 209 209 212 215 215 214 217 220 219 221 223 222 222 224 223 222 222 220 217 214 213 213 214 213 212 211 207 204 195 195 194 192 191 183 179 176 174 160 148 139 137 114  70  43  25  17  18  29  20  14  49 129 162 182 190 193 197 193 194 197
  57  60  61  48  37  47  41  33  41  67  82  59  40  59 108 152 155 161 163 173 177 179 187 194 195 198 201 204 208 208 208 211 213 213 215 216 216 217 217 219 219 221 220 220 221 221 221 220 217 219 218 216 214 213 212 212 212 213 207 203 202 199 194 192 193 184 178 176 173 163 151 148 144 128  93  53  34  25  17  19  12  12  29 104 156 179 195 198 194 189 192 195
  59  62  57  41  58  55  38  41  59  82  79  48  57  88 134 156 158 160 166 178 180 185 189 193 196 196 202 206 207 209 211 214 214 214 215 217 216 218 220 220 220 220 219 221 222 222 221 222 220 222 221 219 217 213 209 209 211 209 206 204 202 200 194 191 191 187 182 177 174 168 156 154 147 137 102  66  45  31  29  14  10  14  20  65 143 177 194 197 192 190 191 193
  56  61  57  61  61  51  52  51  69  86  63  64  83 109 147 159 157 158 176 182 183 188 188 194 195 198 204 208 206 209 213 216 217 216 217 218 218 220 222 219 221 220 222 221 222 222 223 224 223 222 221 219 216 216 212 209 210 211 208 203 201 197 191 191 190 187 186 180 177 167 157 163 156 144 118  68  48  43  25  18   9  11  23  76 139 166 187 195 192 190 189 192
  58  61  69  65  57  52  58  60  83  74  59  70  90 124 153 161 155 162 179 181 185 189 190 195 194 198 203 210 209 211 215 218 219 218 220 221 220 222 223 224 222 223 223 224 224 225 224 224 224 223 222 219 217 216 213 211 213 211 209 204 200 195 193 187 189 189 186 181 179 168 159 163 162 153 128  85  40  40  36  16  12   9  16  60 132 155 176 191 195 191 188 192
  58  62  70  66  60  54  59  70  83  60  59  80 108 139 157 162 157 161 178 184 184 187 192 195 201 202 203 208 208 208 210 213 216 216 219 220 221 221 222 223 224 226 227 225 224 226 225 223 225 225 222 219 219 215 215 213 213 211 210 207 200 195 194 188 189 190 187 173 175 172 164 165 163 165 142  99  66  34  33  22  12  12  18  52 125 152 162 179 191 193 191 194
  59  63  66  71  64  60  63  84  69  60  72  95 125 145 154 161 161 161 177 185 187 190 192 197 200 200 202 204 203 209 209 213 212 214 217 218 216 220 221 221 220 224 226 225 224 224 223 223 224 221 220 218 218 216 215 213 212 210 208 203 198 195 194 191 190 187 185 177 176 173 167 164 164 163 150 108  73  53  29  23  17  13  18  46 114 148 154 165 181 194 198 198
  59  65  67  57  51  62  74  82  58  68  83 103 128 145 157 162 159 163 177 187 188 189 195 196 197 199 202 204 209 207 212 212 212 214 216 217 216 220 222 222 222 225 225 226 226 224 223 221 222 223 220 219 219 219 214 211 213 209 204 201 198 194 193 191 188 186 184 181 179 176 168 164 165 160 154 121  87  65  42  24  17  12  19  53 123 148 151 156 174 193 200 200
  58  64  64  48  45  64  66  61  62  68  92 109 127 143 159 164 163 166 180 188 188 188 194 195 200 199 204 204 207 208 211 212 214 214 217 217 217 219 221 222 225 225 225 224 224 225 224 222 222 223 222 221 220 215 216 210 211 210 206 200 198 196 194 188 186 186 186 182 180 176 169 167 166 161 156 123 101  75  55  30  21  17  12  35 117 150 149 153 168 187 196 198
  58  62  64  58  50  59  54  55  64  72  89 101 121 141 152 165 168 168 183 186 189 190 193 194 198 200 203 203 206 207 210 213 216 217 217 219 219 220 221 221 222 224 225 225 225 224 224 223 224 224 223 221 218 217 216 211 209 207 204 200 196 196 192 190 189 186 185 182 179 177 169 169 167 155 154 139 108  74  49  39  26  21  21  35 106 151 146 146 161 183 194 196
  57  60  63  63  56  45  45  55  73  78  85  96 112 130 148 164 169 172 185 185 187 189 191 190 196 199 198 199 202 205 205 212 214 213 216 219 218 220 220 223 223 223 223 225 223 225 223 222 222 223 224 223 220 218 219 214 210 204 203 202 200 197 192 192 190 187 188 187 187 179 171 170 168 156 152 148 124  87  53  37  37  26  29  47 105 149 146 146 159 184 197 196
  57  58  58  60  45  38  52  56  69  74  88 102 120 138 147 166 168 174 182 187 190 189 192 194 194 195 198 199 203 207 209 213 215 215 219 219 219 219 221 221 221 221 222 222 222 223 221 222 224 226 225 221 219 220 219 213 211 206 202 203 204 199 196 194 192 187 189 187 184 181 174 171 166 159 152 145 129 103  72  46  41  32  34  50 107 146 147 147 161 184 196 197
  59  60  60  60  47  46  46  46  58  72  86  99 126 144 150 160 170 174 178 187 191 189 190 192 194 198 201 203 206 207 211 213 216 218 220 222 223 221 220 222 222 220 217 218 220 223 222 224 226 225 220 222 221 221 219 215 215 210 205 205 205 201 200 197 195 190 191 185 182 181 176 171 163 155 147 144 130 111  80  53  46  42  36  54 115 144 142 146 159 182 195 197
  59  64  64  63  53  46  38  52  63  72  87 109 121 138 154 159 168 172 177 189 191 192 193 192 194 199 205 206 205 208 211 213 217 217 220 223 224 223 224 224 223 222 220 218 222 223 221 223 226 229 227 223 221 219 220 217 211 210 207 206 206 208 205 199 196 193 191 186 182 179 172 168 162 152 148 145 136 112  85  63  44  44  43  59 117 143 141 145 157 180 195 197
  57  61  64  68  60  39  40  53  63  81  96 103 115 144 159 161 167 170 177 189 192 192 192 194 197 201 205 207 209 211 214 215 217 220 220 223 223 225 224 228 226 223 222 222 225 224 226 226 227 229 228 227 222 221 219 217 210 207 206 205 207 206 205 206 199 194 188 189 185 177 174 164 159 152 148 143 138 115  80  66  52  45  49  64 129 144 140 145 155 178 194 195
  56  58  57  63  58  44  44  51  71  80  90  98 119 146 158 160 164 167 177 186 192 191 193 197 200 201 204 209 213 212 211 214 217 222 223 224 225 226 227 230 228 223 220 219 219 222 226 226 227 229 229 227 225 221 219 211 209 205 205 204 202 203 199 196 192 192 186 180 185 182 175 164 155 153 151 143 135 115  82  67  54  46  51  62 122 144 141 143 154 178 195 195
  55  57  58  60  62  54  48  49  64  78  90  96 119 141 154 160 165 165 177 188 187 189 192 192 197 205 207 209 211 211 211 213 213 218 219 222 225 229 228 230 229 226 220 214 216 215 221 225 225 225 224 223 224 224 219 213 209 199 197 199 195 192 188 184 185 180 183 173 175 173 175 171 154 150 151 143 134 120  86  71  56  47  54  76 128 142 140 141 151 176 195 195
  53  56  61  62  62  60  47  46  63  85  86  95 124 140 153 158 164 164 177 183 183 191 197 198 202 206 207 207 208 211 212 210 213 217 217 222 224 225 225 229 228 222 217 211 216 213 216 221 222 219 215 210 206 207 202 191 178 157 141 143 147 148 149 143 144 158 175 169 155 155 165 168 159 151 149 143 135 123  85  66  56  54  62  82 129 140 140 142 150 172 192 196
  54  54  60  65  64  59  54  59  63  77  84  96 133 144 152 154 158 166 173 180 186 191 189 188 194 200 196 199 202 202 193 196 205 207 212 213 215 217 220 222 221 222 218 213 213 217 216 216 215 206 202 191 178 174 150 123 113 109 104 102  84  79  97 108 102 113 132 132 109 122 138 150 160 153 145 141 139 125  88  67  57  57  59  92 134 136 138 144 150 170 191 197
  56  56  58  64  65  63  67  62  54  72  89 102 139 145 153 153 154 160 169 183 183 177 182 183 184 180 168 149 139 136 142 140 147 152 162 178 178 181 190 208 214 220 219 215 214 217 212 216 207 198 179 174 160 147 134 101  82  88 103  82  86  99 119 130 130 122 105  90  93  95  96 110 133 149 149 145 145 130  90  69  63  61  60  90 137 137 137 139 148 169 191 199
  57  57  60  63  66  64  59  61  56  73  87 114 138 146 153 153 148 157 173 179 164 153 147 143 156 156 115  90  88  88  91 102 109 112 113 125 147 165 174 185 201 213 217 217 216 212 212 212 208 196 162 162 148 149 123 101  99 105 137 153 170 189 194 188 183 168 144 134 126 114 105 103 112 134 145 143 146 129  92  66  69  64  69  94 136 138 136 137 144 169 192 198
  54  56  60  65  67  67  60  63  62  70  89 116 141 149 149 149 145 160 169 149 134 145 138 126 120  99  76  80  95  79  83  79  88  99 107 130 138 160 175 183 192 208 218 216 211 211 212 210 205 190 173 162 153 138 141 153 164 180 195 205 210 206 203 196 193 185 175 168 164 153 141 141 129 130 141 146 145 125  91  70  71  67  72 106 139 136 138 137 145 172 194 198
  53  55  59  62  67  67  59  60  61  74  88 111 139 149 148 144 149 160 133 105 118 125 119 121 119 134 158 167 178 177 177 165 149 141 133 142 148 156 171 189 197 209 219 220 214 213 212 211 199 187 179 160 151 155 160 147 137 152 161 168 171 159 154 160 160 167 173 175 170 160 157 153 144 143 146 149 147 120  89  62  64  66  76 112 139 136 139 137 146 173 193 197
  51  54  56  58  63  65  56  52  61  76  89 109 135 151 150 148 149 131 112 104  98 102 125 163 185 200 209 216 221 220 213 198 182 173 169 160 154 161 175 186 196 207 218 220 217 215 207 205 196 184 167 153 159 153 139 143 142 117  96  89  65  62  65  87 100 108 133 161 174 169 161 160 162 155 148 148 149 115  78  56  60  68  79 115 140 137 138 137 146 173 191 194
  51  54  56  57  61  64  60  50  60  73  87 111 131 150 149 155 141 114 112 118 140 155 169 184 198 205 205 195 184 177 155 149 154 141 143 160 165 165 165 180 195 204 217 221 220 215 208 202 189 172 157 152 155 166 167 131 132 109 100  85  36  63  64  81  91  57  77 105 154 170 171 171 163 158 149 146 150 113  80  65  57  68  87 128 143 138 137 138 150 175 189 192
  51  53  56  58  62  65  62  50  64  76  91 105 126 149 149 145 127 118 129 142 166 179 180 190 181 166 135  93  81  89  93  91 107 137 147 164 169 163 168 173 188 202 217 221 222 218 207 198 182 166 159 160 180 166 115 116 183 177 112 107  89  93  76 143 141  98  72  80 138 167 170 172 165 162 158 150 150 118  78  65  59  63  88 130 143 139 136 137 152 176 189 191
  51  54  56  58  63  67  67  58  63  74  85 100 123 151 151 137 139 149 156 165 172 180 182 159 134  93  62  48  87  56  75 101  97 151 127 141 178 182 170 176 178 200 214 219 219 216 205 191 174 172 176 186 190 135 128 155 161 177 160 152 150 138 135 151 148 154 141 135 150 158 161 167 168 165 161 153 152 121  78  60  54  76 101 133 141 141 136 134 150 176 189 191
  50  53  56  58  62  66  69  64  63  78  82  93 115 152 153 144 153 166 177 182 181 186 158 117  64  83 138  82  93  68  78 124 135 208 168 112 120 183 185 181 175 197 210 215 219 212 202 185 170 176 181 200 198 191 198 199 190 193 200 195 186 186 162 168 173 170 163 174 175 168 165 173 180 174 164 156 153 130  86  57  53  78 126 148 151 155 151 134 151 179 192 191
  51  52  55  57  60  62  63  65  67  69  81  90 107 152 156 148 156 168 180 185 183 175 138  82  87 132 171 123  94 114 130 130 162 184 167 163 172 186 191 185 174 192 205 210 214 211 200 188 171 177 184 194 199 197 195 194 193 198 202 198 191 191 186 181 172 169 183 196 194 187 184 183 186 177 168 159 151 140  88  55  53 109 164 172 175 169 153 141 154 184 196 195
  49  52  55  56  56  61  68  65  73  68  73  82 104 153 155 156 166 171 178 182 179 168 149 131 144 151 161 169 164 161 180 187 194 194 193 203 210 202 186 184 176 189 205 208 208 209 201 184 171 178 187 190 193 190 189 189 189 186 181 178 173 170 173 172 176 190 201 199 192 186 188 187 186 182 172 161 153 144  95  57  92 171 185 186 166 107 111 141 160 187 196 198
  49  52  54  55  64 115 137 112  89  77  75  76 107 149 156 160 167 173 181 180 171 170 178 182 170 176 184 187 194 191 196 209 207 205 200 195 196 190 185 182 177 184 202 207 203 201 195 179 171 176 190 193 197 192 196 200 202 207 207 203 199 197 199 202 205 203 199 197 196 190 189 190 180 180 174 166 157 147 102  67 133 189 186 168 104 109 134 144 166 189 196 196
  51  51  53  50 100 167 167 165 147 111  78  70 113 154 158 163 169 177 187 187 185 188 192 195 193 190 190 191 195 200 200 207 206 204 202 198 194 192 191 186 174 179 198 207 203 199 197 177 171 180 191 194 199 199 199 203 208 208 213 212 211 211 213 212 209 205 203 198 201 200 192 189 186 181 174 167 158 153 115  75 143 190 170  99 112 148 144 147 173 192 196 197
  51  51  52  51 106 137 168 184 179 166  92  63 115 154 157 166 174 176 185 187 192 190 194 199 199 201 198 195 199 205 207 212 212 208 205 203 195 193 192 184 174 178 192 203 205 202 198 181 170 175 192 195 197 201 204 205 209 209 208 208 214 214 216 215 211 206 205 201 199 202 195 187 186 182 175 168 159 156 127  83 139 173 111 114 159 157 139 150 177 195 197 197
  49  52  54  51  83 107 126 177 185 194 152  77 105 152 159 170 177 177 191 193 193 194 196 202 208 208 207 205 212 215 215 213 208 208 206 205 197 189 187 183 173 178 186 196 204 206 200 185 173 171 188 190 195 199 204 209 212 213 212 207 211 215 217 216 215 211 206 204 198 201 198 191 184 181 175 166 161 156 137  93 126 130 118 175 177 153 135 151 176 190 194 197
  49  55  56  55  61 114 128 136 179 189 178  92 108 154 162 171 176 179 191 197 194 194 199 203 203 206 209 210 214 213 211 208 211 210 209 207 199 190 186 179 175 180 194 201 206 205 201 185 178 170 179 189 196 197 198 207 210 215 218 216 212 211 212 209 214 212 206 204 201 199 197 191 186 175 171 164 153 150 141 103 123 124 163 196 173 142 139 149 167 175 181 190
  47  52  59  61  56  70 145 148 151 177 176 102 115 155 163 168 176 182 191 194 196 197 198 198 203 206 208 208 211 211 212 211 212 214 210 205 198 190 185 178 178 181 190 203 210 208 201 189 181 175 171 182 195 196 199 207 209 213 217 218 215 211 212 208 208 206 207 201 195 197 194 186 185 177 171 165 152 141 138 110 117 149 162 181 158 139 142 147 151 153 158 175
  48  51  57  61  60  49 123 187 156 154 168 106 113 158 163 166 176 184 187 189 197 202 197 198 205 208 210 212 212 214 214 210 212 213 210 204 195 188 184 177 176 182 191 203 210 212 204 193 187 180 170 173 190 199 204 208 214 214 214 217 214 214 215 212 208 206 205 202 198 188 189 186 187 178 166 160 150 141 140 118 139 170 156 173 139 137 139 140 140 140 144 166
  49  51  52  55  57  49  90 187 173 149 153 107 117 158 159 165 177 178 187 192 198 201 199 199 205 211 211 212 212 214 214 213 214 210 209 208 195 189 185 174 175 186 196 203 212 215 208 200 192 183 173 166 180 198 206 210 214 212 215 217 217 215 217 218 208 202 199 198 195 189 189 184 184 179 167 156 146 141 135 123 165 180 169 156 135 136 137 137 138 139 143 168
  50  52  52  52  54  54  62 163 186 162 154 118 122 153 157 166 173 176 190 195 198 200 200 201 206 211 212 211 211 209 213 214 213 212 211 208 196 190 182 171 174 190 202 212 216 216 210 205 198 189 178 169 172 188 208 212 218 216 217 219 219 217 216 218 212 204 201 198 191 190 188 184 181 174 169 154 147 139 130 135 164 175 158 143 138 141 139 139 139 142 154 180
  51  52  52  52  53  56  51 125 183 166 172 143 117 151 155 164 166 179 188 194 194 201 199 201 200 205 208 213 214 210 212 214 213 214 214 210 200 187 176 170 184 198 204 212 215 218 215 208 205 197 190 175 170 178 206 218 219 218 215 221 220 217 217 216 215 211 204 196 191 188 184 179 175 173 168 154 146 141 131 152 167 181 153 139 139 141 141 139 138 144 165 191
  51  53  53  54  54  56  52  93 178 170 184 167 124 141 156 161 166 181 186 187 195 198 199 200 199 204 208 210 214 216 216 216 216 219 218 218 201 180 176 174 192 206 209 214 219 221 219 214 204 197 192 179 172 171 193 221 222 222 219 222 221 218 218 215 211 210 205 198 191 185 180 177 171 170 162 153 143 140 131 159 175 199 158 134 139 140 139 139 139 150 174 196
  50  53  54  55  54  55  55  69 162 182 190 174 142 134 151 158 164 179 183 186 196 196 199 199 197 204 212 211 216 217 217 219 220 223 221 223 199 175 177 177 191 202 211 217 227 233 225 214 200 188 180 182 181 175 178 213 227 227 227 227 223 220 221 217 213 206 203 197 193 187 181 175 166 164 158 154 143 138 134 161 168 198 160 132 134 137 139 139 145 161 183 195
  51  52  56  56  56  54  56  55 135 186 194 176 154 130 143 154 162 176 182 186 194 194 192 196 200 203 211 215 216 216 219 223 224 224 226 224 196 181 183 177 179 184 193 205 219 224 218 206 186 169 166 177 185 180 171 202 221 225 231 230 227 224 221 218 210 206 202 198 193 186 178 174 166 162 157 152 142 137 138 157 167 191 154 129 130 136 140 141 151 175 192 193
  50  54  56  57  57  58  58  57 105 182 198 180 160 130 140 152 165 175 180 182 186 187 189 198 200 205 210 214 217 218 220 224 225 226 230 223 189 184 197 187 175 167 171 185 196 196 190 180 165 120 102 145 178 183 171 201 214 219 223 224 223 223 222 219 209 206 201 198 190 184 178 173 166 157 158 154 142 138 139 161 180 172 145 129 130 134 138 142 161 186 195 190
  51  53  55  57  57  59  60  62  86 175 191 180 170 133 137 147 164 171 179 179 182 185 191 199 199 206 212 215 219 220 223 226 229 232 231 216 185 181 195 184 144  89  92 150 170 171 168 158 101  38  57 124 174 173 166 203 211 215 221 222 224 225 223 217 212 206 199 192 184 183 177 170 160 156 159 148 141 137 134 167 182 154 139 128 131 135 136 147 174 193 193 190
  50  51  54  55  55  58  61  59  79 160 181 165 176 139 136 144 158 171 175 176 182 183 190 194 200 204 211 214 216 221 225 226 231 233 225 213 192 176 188 166 114  83  77  98 145 148 145 129 101 122 156 167 162 149 180 208 208 213 218 219 222 222 217 214 214 208 202 192 183 181 174 168 161 160 157 145 141 138 130 161 180 159 132 129 132 137 137 153 181 195 193 194
  51  52  54  54  54  59  64  61  66 130 177 169 174 147 135 143 153 168 173 173 180 184 188 195 204 206 209 213 218 220 223 227 232 229 221 210 201 174 171 171 177 177 164 151 147 140 136 138 162 159 161 164 149 162 198 205 207 211 212 218 219 219 216 212 211 206 202 195 187 179 170 163 159 160 155 150 142 138 136 175 192 166 129 130 133 135 139 158 183 192 193 197
  51  52  53  53  53  57  64  64  64 112 172 188 177 152 134 143 149 163 173 175 179 183 185 194 202 204 207 210 216 223 224 224 225 222 212 213 204 192 165 159 177 178 166 178 177 167 171 186 170 158 158 170 179 188 195 196 202 209 211 216 217 217 216 215 210 205 199 195 188 176 166 161 161 160 155 148 141 136 140 178 181 161 132 133 134 134 140 163 184 190 192 194
  51  53  53  53  55  58  62  65  64  91 162 183 179 157 138 144 148 161 172 176 176 176 184 194 197 198 208 212 215 218 219 221 222 218 213 212 202 196 189 180 170 151 149 156 179 198 201 187 169 163 175 181 186 185 183 182 194 202 208 210 215 218 213 213 210 202 197 194 184 177 166 160 161 160 155 150 143 139 141 174 164 145 134 133 130 134 140 163 183 189 190 192
  52  53  53  54  58  61  62  65  68  67 136 183 182 164 138 142 146 160 170 173 174 176 187 193 195 200 205 209 210 215 218 216 216 215 214 208 195 188 191 189 175 145 146 163 167 188 203 188 176 175 175 172 171 184 183 179 182 192 203 208 207 213 210 206 208 201 197 193 186 177 163 160 160 156 154 150 144 139 134 163 149 134 132 129 128 132 137 161 185 190 188 191
  51  52  53  54  57  61  61  65  69  63 113 188 191 181 144 142 143 157 170 171 174 178 183 192 197 200 204 207 209 215 216 218 213 208 205 201 186 184 187 173 169 165 161 168 174 187 201 180 176 181 174 163 164 168 170 172 176 183 194 199 193 200 205 202 204 202 197 191 185 176 163 158 159 157 157 150 143 136 121 134 134 132 131 128 128 130 139 167 190 194 191 195
  50  51  53  53  55  58  60  65  65  65  86 167 179 180 155 139 147 153 168 170 170 175 181 190 193 198 203 206 210 213 213 211 207 194 197 196 179 177 181 171 165 167 174 169 164 175 200 177 167 170 168 167 167 164 160 169 160 173 178 178 183 184 183 190 196 200 196 189 185 174 161 157 159 158 157 153 145 142 134 132 135 136 136 131 127 128 146 173 193 197 197 197
  48  50  52  53  54  57  60  63  65  67  66 104 163 183 163 136 150 155 163 171 169 171 182 187 190 196 202 208 211 212 204 194 197 182 190 187 178 172 172 167 159 161 180 183 176 188 195 187 180 166 166 166 166 165 154 159 154 156 169 151 161 167 159 171 183 195 196 192 183 169 158 157 161 158 157 153 148 140 135 137 139 140 138 133 127 130 153 181 192 196 198 197
  48  48  51  52  54  55  60  64  68  67  68  67  94 138 152 137 146 157 164 170 169 169 177 185 192 195 202 205 206 203 192 183 185 177 179 175 173 173 165 163 174 183 183 188 192 192 197 186 168 191 193 182 182 169 164 169 167 153 168 152 160 155 159 158 165 187 193 189 180 163 157 158 162 159 155 154 148 138 135 141 142 140 136 132 128 134 161 186 193 195 198 197
  46  48  50  51  53  56  58  62  66  70  71  71  64  50  57 130 150 157 163 170 170 168 172 180 190 195 202 204 199 182 175 173 178 176 173 165 169 172 169 164 183 194 201 208 200 195 200 193 195 212 217 213 207 195 184 178 180 169 157 158 154 146 154 161 164 174 187 184 176 161 154 160 161 155 153 153 146 140 136 141 140 138 135 131 127 138 168 190 194 196 198 195
  46  46  48  51  53  56  57  59  62  69  73  73  70  51  30 113 151 156 164 169 167 168 169 176 185 195 199 198 188 177 167 167 169 175 168 155 164 170 186 189 197 207 217 223 211 213 201 205 219 220 220 213 209 200 196 188 187 181 169 163 163 161 161 162 163 165 181 184 173 158 157 161 161 157 155 153 151 139 136 138 134 133 135 134 128 141 170 189 192 196 196 191
  47  47  47  49  52  55  57  57  59  67  73  74  73  59  32  97 152 157 167 171 172 172 169 174 184 192 197 188 178 175 161 164 161 172 174 168 169 188 194 196 211 211 210 213 221 224 217 220 219 205 186 175 174 184 190 188 189 180 172 171 173 170 173 173 165 156 170 184 169 148 156 163 160 159 154 150 148 136 136 135 130 128 134 135 135 148 174 190 192 195 194 190
  48  48  48  48  51  53  56  56  59  66  70  72  75  67  40  80 152 159 166 170 175 171 170 171 180 187 193 186 173 170 166 181 179 173 183 175 176 191 199 203 197 181 167 168 174 177 184 182 161 141 126 118 118 126 145 166 183 182 172 168 171 169 173 174 169 159 170 176 158 144 156 163 157 159 154 150 142 134 135 133 128 128 134 139 147 161 182 194 195 194 192 190
  45  47  48  49  50  53  54  56  59  65  69  71  75  71  50  62 143 158 164 167 173 173 167 170 177 185 193 178 163 182 184 183 177 172 180 180 183 191 178 159 130 116 110 113 112 111 111 107 101  99 102 106 107 102  83  92 107 129 135 136 153 170 180 180 168 158 169 176 154 142 157 164 160 156 155 154 142 136 135 131 128 130 136 149 163 178 190 195 196 194 192 191
  42  44  46  46  49  52  55  56  58  64  69  71  73  71  58  53 129 160 166 171 170 175 167 158 172 188 195 180 165 182 186 180 174 159 150 160 152 125 108 104 113 122 130 130 135 131 129 130 139 152 158 162 160 158 136 115 109 119 135 153 173 188 186 175 170 164 171 171 151 140 159 165 158 155 159 151 141 134 134 131 127 128 139 158 178 191 197 197 195 196 197 195
  42  42  43  45  48  49  53  56  58  63  66  69  70  73  71  53 112 160 166 170 172 173 169 158 169 186 192 188 169 171 181 178 179 165 142 137 130 125 138 157 167 173 177 180 177 181 179 176 180 184 183 177 174 175 169 166 167 172 183 191 201 201 187 177 171 171 176 162 148 148 163 159 158 158 157 149 136 131 131 131 129 126 136 164 188 197 199 196 195 196 198 198
  42  43  44  47  49  49  52  54  57  62  65  67  68  74  77  60  93 154 163 169 172 171 173 165 164 181 190 192 185 183 185 192 194 199 196 184 181 183 181 179 183 182 181 181 183 185 179 176 185 193 194 188 184 178 177 175 174 180 189 194 204 200 185 182 179 179 172 159 144 149 160 161 161 159 155 147 133 131 130 131 129 126 136 166 192 197 195 193 192 194 197 198
  42  43  44  46  49  50  52  54  56  59  63  66  68  70  73  68  76 138 161 172 173 173 173 168 163 175 188 188 189 196 193 199 204 206 202 195 191 191 191 187 186 191 194 194 198 197 197 199 195 196 191 184 179 175 173 172 179 186 193 196 199 192 187 183 180 178 164 154 147 154 162 161 160 158 152 142 129 131 130 130 130 129 137 168 195 200 195 192 192 194 196 196
  41  41  42  43  47  49  51  53  53  53  57  65  71  74  79  85  86 124 158 170 174 173 173 168 162 171 184 190 188 191 184 191 199 201 199 200 197 195 198 198 194 191 187 189 185 181 186 182 165 171 176 179 183 187 182 181 184 191 191 193 194 189 187 178 174 177 167 148 137 155 161 157 159 157 147 131 130 133 134 132 131 130 140 174 196 199 196 192 192 193 193 195
  42  41  41  42  44  47  50  52  58  91 121 137 148 153 160 168 176 159 144 163 171 175 172 170 160 162 176 188 189 186 176 182 196 199 200 200 197 197 195 194 193 191 191 190 183 169 152 145 157 174 176 179 182 178 174 179 193 192 191 189 186 184 186 172 164 169 157 146 140 159 162 158 157 155 140 126 129 136 133 132 131 132 143 172 192 194 192 192 193 193 193 193
  39  40  41  42  44  46  49  51 106 183 212 218 220 223 225 227 230 218 145 152 166 174 174 169 162 158 168 183 189 180 170 185 189 191 201 199 194 193 193 188 181 183 177 170 157 159 151 149 160 168 149 159 175 175 180 191 193 186 181 182 182 179 175 178 169 162 150 143 149 156 163 157 152 149 131 118 129 136 133 130 130 130 144 170 186 187 189 192 195 196 195 194
  39  40  41  41  43  45  47  51 130 208 228 229 228 229 230 232 234 241 181 137 164 171 175 171 156 160 163 178 188 180 178 181 182 186 194 194 197 193 191 190 192 186 183 168 156 155 153 160 162 158 158 173 184 191 195 192 188 185 175 180 185 179 172 171 158 152 143 142 145 148 155 149 147 137 117 119 128 134 131 128 129 132 146 172 186 186 186 191 196 196 196 197
  39  40  40  40  41  44  47  48  85 151 175 174 173 176 183 197 214 229 224 145 149 164 170 171 154 152 156 169 181 181 182 179 179 181 186 181 192 196 194 191 191 189 194 187 176 170 161 165 169 173 183 190 193 196 194 187 180 175 177 184 177 172 168 160 150 149 143 142 145 147 148 146 135 113 110 126 129 133 129 127 128 133 151 180 192 190 188 191 194 193 194 198
  39  39  39  39  41  44  47  50  51  62  73  74  76  80  88 105 134 184 229 192 132 153 161 168 160 149 159 163 173 169 171 174 174 174 189 187 182 197 200 197 197 198 191 191 190 181 184 189 192 176 191 200 195 200 196 191 180 180 186 180 169 165 165 162 156 145 138 133 151 144 145 138 119  89 116 126 132 134 129 125 126 131 155 183 194 192 191 193 195 194 194 196
  38  39  39  38  40  44  45  49  51  51  53  55  60  63  67  71  73 102 188 230 162 129 158 165 166 161 157 161 167 164 162 159 168 176 180 188 184 189 203 204 199 201 200 201 210 206 191 199 200 189 198 204 197 198 198 198 190 186 187 182 182 171 158 147 147 142 130 134 151 137 128 116  90 100 132 125 130 133 131 129 129 135 158 182 192 192 194 196 197 197 196 196
  38  39  39  39  42  44  46  47  50  54  54  57  62  66  70  81  85  75 142 223 222 142 141 159 164 162 156 158 165 161 162 158 163 181 185 189 182 183 197 194 196 205 201 198 209 206 203 208 205 203 199 203 201 200 204 195 193 173 178 175 171 168 149 138 128 139 124 140 143 130 109  85 102 142 137 129 130 128 127 129 132 143 166 182 190 193 194 195 197 198 196 195
  39  39  39  41  43  45  46  47  50  54  55  58  62  65  69  84  92  80 128 213 235 202 124 138 153 159 162 154 145 155 143 148 162 174 181 177 188 187 190 186 192 193 196 196 208 214 212 213 208 203 198 200 201 198 198 192 193 185 175 167 168 160 152 132 120 131 119 133 130 111  82  96 151 149 142 133 131 126 123 123 128 146 171 186 191 195 197 197 198 197 194 194
  38  39  39  40  42  43  46  47  50  53  55  58  61  64  71  83  88  78 123 209 232 228 145 107 140 151 159 146 139 140 134 150 156 175 180 179 183 193 191 179 176 188 204 200 210 218 218 215 213 205 206 208 205 200 193 182 195 183 168 147 156 154 149 127 111 107 115 123 111  81  92 149 160 145 154 165 126 126 122 123 128 150 178 190 191 195 196 197 197 194 192 193
  38  38  39  40  39  42  46  48  49  53  55  57  58  63  73  81  83  75 119 207 232 232 175 110 110 131 149 137 137 132 142 142 145 155 161 178 166 182 185 176 181 186 199 210 210 213 216 213 211 206 207 205 197 200 188 186 190 178 156 143 148 139 139 108  98  88  96 110  83  90 148 165 164 148 146 204 141 124 128 128 138 164 186 193 192 193 193 194 195 192 191 194
  39  39  39  39  40  41  44  47  49  53  55  56  58  63  72  79  82  75 123 210 233 234 189 135 116 100 122 129 128 135 127 146 138 152 157 156 157 169 173 182 188 180 192 193 204 204 209 209 201 202 205 202 197 192 180 175 164 170 158 141 144 129 111  98  82  81 101  83  93 142 162 167 169 152 138 207 183 120 127 131 152 179 193 192 193 192 192 193 192 191 192 195
  38  39  39  39  40  42  44  46  48  50  54  55  58  65  71  76  80  76 131 214 234 237 197 135 145 119 104 120 114 123 123 145 135 148 145 152 158 167 168 174 176 179 190 183 194 186 185 193 197 193 198 190 191 173 175 160 162 162 147 136 139 119  92 101  80  88  86  91 138 156 166 170 170 156 142 196 210 124 123 131 160 186 192 189 190 192 192 195 195 192 193 193
  38  38  37  39  40  43  45  46  47  50  53  56  59  64  69  72  76  76 143 219 233 237 206 136 148 152 121 104 109 112 106 114 123 133 144 144 143 159 154 159 173 170 171 177 193 179 171 175 182 179 184 187 170 166 165 153 163 150 129 132 125 109  98  93  93  87  91 132 154 162 169 171 171 158 144 192 224  95 110 143 167 184 187 190 192 194 192 195 196 195 196 196
  37  38  38  39  41  42  43  44  46  50  53  54  56  63  69  70  71  75 155 223 233 237 213 140 143 161 148 114 100 101  99  94  96 102 130 127 141 137 150 155 154 161 169 166 181 170 159 163 165 175 177 171 157 158 160 161 136 135 131 109  93  93  88  84  89 101 132 153 165 170 172 176 171 157 143 192 238  87  49 152 183 190 189 191 195 192 194 197 198 197 197 197
  38  37  38  38  39  42  43  43  46  50  51  52  55  63  69  69  68  80 169 226 233 238 197 138 150 159 158 144 124 104 108 100  89  81  94 117 138 138 133 135 142 136 164 163 157 158 158 155 148 159 153 152 152 143 146 140 111 111 107  94  68  68  89 100 107 128 152 164 171 173 173 173 171 156 152 203 239 141  16  91 189 197 192 192 191 191 195 200 200 198 196 196
  38  37  37  38  39  42  42  45  51  51  50  50  54  62  67  68  67  90 184 228 235 228 182 140 153 159 164 162 153 132 116 110 105  81  79  94 117 128 111 115 125 126 134 141 140 136 133 114 129 139 140 138 142 131 117 128 106  97  77  69  68  95 110 114 130 150 162 172 174 177 178 177 172 155 167 219 233 193  50  21 129 199 196 195 192 191 196 200 200 198 196 196
  38  38  37  38  39  40  41  44  49  52  50  52  56  60  64  68  66 104 198 232 234 210 187 143 156 164 166 165 160 151 139 125 122 115  94  78  84  86  96 100 103 120 112 115 117 120 108  97 116 120 111 112 112 102  93  81  68  74  67  90 114 122 123 127 149 164 173 172 176 177 176 177 176 166 191 232 226 212 108  15  43 159 206 200 196 195 198 200 199 199 197 196
  38  37  38  39  40  40  40  41  45  48  50  54  57  59  62  67  66 120 209 233 227 205 167 135 158 167 171 169 159 158 153 139 123 130 130 114  98  82  84  87  88  87  93 101  97  99  99  95  94  96  91  76  72  73  60  66  72  86 104 126 135 130 133 147 165 176 180 178 176 171 178 179 176 177 214 236 218 214 158  35  26  53 139 200 200 196 196 197 197 198 198 198
  38  37  38  39  40  40  39  43  44  44  47  53  57  58  58  63  66 140 218 235 223 207 151 137 158 166 172 174 165 155 158 151 143 138 141 137 129 119 108 102  90  87  92  98 101 106 112 110 107 100  95  89  96  96  99 114 118 128 136 142 143 141 144 160 175 177 183 186 182 181 181 181 176 195 228 235 214 214 192  68  26  29  39  97 168 195 195 193 192 194 197 199
