P2
# Generated by OpenCV 4.2.0
92 112
255
 108 108 107 115 119 120 126 119 114 114 135 200 209 220 209 199 129 139 194 205 210 195 157 123 119 120 120 120 121 120 120 122 122 125 126 117 121 121 130 125 126 121 154 182 161 156 138 131 158 138 128 130 131 143  93  98  64  59  62  97 143 160 146 133 118 102 122 146 157 157 232 233 237 221 212 187 185 165 156 123 120 124 120 119 118 120 115 116 113 120 112 116
 106 111 109 110 110 112 116 112 114 112 123 179 196 201 196 178 152 191 213 218 207 170 140 123 118 118 120 121 119 119 119 119 123 128 123 122 126 123 126 125 118 122 116 138 158 139 160 136 103  99  96  90  83  70 105 124 100  90  75  43  71 112 149 122 150 145 133  97 129 169 172 220 230 217 199 183 180 146 139 128 121 113 119 119 117 116 116 118 114 116 116 114
 106 113 105 110 105 106 113 113 108 110 116 133 162 162 172 143 189 209 223 213 172 130 124 113 118 117 120 125 122 122 120 116 121 131 130 125 121 125 125 125 128 160 174 174 176 117  71  48  32  20   9   8  13  54  79  58 111  88  87  84  84  70  79 127 113 124 127 159 131 137 145 214 167 219 201 184 185 164 135 126 128 118 121 121 115 118 119 119 114 115 120 116
 109 109 104 105 102 100 112 113 112 112 118 114 122 132 120 150 206 223 210 198 138 153 143 118 113 119 122 120 123 127 121 122 119 131 129 133 118 125 137 180 163 164 141 107  66  70  66  40  54  23  21  18   9  20  70  74  68  92  61  89  46  69  72  71 114 105 125 105 145 111 149 156 232 152 217 194 192 156 126 123 122 124 120 116 119 120 120 118 114 119 119 117
 112 110 107 101 107 106 108 110 111 107 111 116 116 116 108 162 206 214 192 163 134 180 178 129 114 116 117 117 119 122 125 121 124 130 127 116 123 159 143 112 165 114  77  97  94  11   4   4  13  73  20  41  14   4  60  28  79  74  82  19  37  44  63  86  70 122  98 113 124 130 110 164 160 226 149 200 174 170 154 119 121 130 120 126 119 121 121 120 116 116 115 116
 110 107 108 103 103 103 110 116 115 113 111 114 110 114 130 192 210 207 158 128 119 172 174 124 115 118 118 115 116 129 130 126 127 123 117 125 157 132  87 109  70  72  56  49  58  74  70  63  28  25  85  24  53  15  56  43  43  94  86  44  35  74  32  88  56  84  93 105  97  93 116 113 162 207 190 164 166 148 122 122 119 117 116 121 120 119 120 120 119 115 117 116
 106 109 105 106 108 113 126 135 129 114 113 114 114 115 154 191 210 202 152 116 109 141 139 113 112 117 118 116 121 118 129 127 134 122 131 119  66  73  91  72 104 100  91  89  91  87  57  55  33  45  33  85  35  31  30  62  41  78  73  85  33  20  50  33  82  65  99  58 138  75  91  87 106 129 221 155 177 135 122 122 125 119 120 120 122 118 118 123 118 121 119 118
 107 106 105 107 109 114 122 131 137 112 110 114 111 112 140 180 192 180 152 117 142 174 156 114 117 121 123 122 120 121 132 124  91  74  72  56  55  70  74 112 115  80 105 110  69  36  42  36  19  11  51  68  50  35   3  55  70  73  80  62  67  35  27  42  71  63  94 108 105 103  74  93  64 182 198 193 112 148 133 119 116 118 117 121 121 120 118 119 122 119 117 117
 113 108 110 106 107 107 106 120 117 109 114 113 112 112 112 132 145 150 138 121 157 174 165 113 119 120 119 118 117 119  92  67  73  70  66  61  59  73  81  58  46  85 108  56  56  42  31  21  23   6  20   7 104  37  15  89  88  29  96  52  65  60  28  66  52  90  95  84  52 101  79  95  73 132 122 176 151 122 124 122 122 122 124 119 123 119 118 119 116 117 119 116
 132 117 113 112 115 107 107 106 104 109 112 114 112 107 110 120 129 145 136 122 137 155 132 115 119 121 122 118 118  71  65  66  83  93 104  97 118 119 103 122 115 123  71  88  79  35  20   9  11   8  14  32  96  28  46  83  70  54  71  58  69  32  46  74  67  96  94  47  85  99  79  85  77  89  98 184 128 114 130 120 121 118 122 120 121 121 120 119 119 120 123 118
 141 123 128 112 108 107 105 107 109 111 111 115 110 110 112 109 115 120 125 125 125 124 116 120 119 119 121 121  73  84  86  44  28  15  21  17  19  45  64  90 113 110 136 100  55  23  24  15   3  11   3   2  83  93  54  87  62  67  73  91  29  27  47  75  66  75  88  60  92  84  74  61  80  91  98 143 136 135 116 124 120 117 123 120 117 125 122 119 116 115 117 117
 143 134 125 114 116 113 107 108 111 112 113 113 111 105 109 110 114 116 118 121 121 117 115 118 119 118 144  98  62  65  52  49  45  37  33  38  37  29  60  45  47  92 128 107  80  59  32  16   7   1   1   1  51  79  70  52  54  83  47  92  22  31  55  82  61  97  86  59  81  91  68  58  82  87  80 142 124 126 115 121 120 121 124 121 121 118 119 120 121 118 117 119
 134 123 105 113 107 109 110 110 111 111 113 112 107 105 114 115 115 111 116 120 121 117 119 118 118 124 104  37  78  30  33  24  23  22  17  10  31  30  18  41  57  42  64 127 126  94  61  12   4   3   1   5  26  97  61  50  90  65  27  64  36  20  45  87  55 105  72  54  68 110  63  50  87  92  80 110 124 136 105 123 118 119 117 117 117 118 119 120 118 120 121 117
 126 115 111 110 108 110 109 111 112 114 114 114 106 108 109 112 110 115 112 110 115 119 121 119 122 110  75  52  76  24  21  32  42  62 104  87  64  41  19  13  42  53  51   6  60 108 111  67  15   4   1   6  10  87  72  45  86  40  34  52  50  18  35  82  69  96  56  49  64 104  65  45  81  68  94  76 122 116 103 128 121 124 121 119 120 121 120 120 116 117 115 114
 115 105 112 113 108 111 108 113 112 110 111 111 102 113 108 113 116 115 114 110 116 119 120 124 112 105  73  96  28  43  63  54  62  74  73  74  74  73  54  26  13  10  70  81  26   4  49  65  46  18   2   5   4  66  60  38  80  30  43  58  74  15  38  74  82  83  43  31  61  72  53  50  58  39  85  96 114 124  99 124 122 122 122 120 123 122 120 118 120 124 117 115
 108 105 113 119 121 112 109 112 112 114 115 110 108 109 111 112 117 114 112 120 123 115 120 108 115  79  61  47  41  59  62  77  80  44  50  69  61  38  12  22   8  16   4  62 100  33   7  18  42  38  20   2   1  47  54  31  59   5  40  80  33  10  25  61  59  90  33  19  54  88  64  33  61  45  75  92  86 119  97 121 124 119 122 123 120 120 119 119 117 118 115 118
 108 106 106 114 124 117 109 113 119 124 125 111 110 111 113 114 108 115 112 113 116 122 153 128  85  63  56  70  67  74  88  78  81  87  69 105 109 107  69  37  21  21  20  13   2 124  15   9  13  19  25  13   4  29  20  37  18  40  29  41  27   1  26  44  52  86  28  11  41  84  62  34  44  34  72  66  66 121  84 126 118 121 119 119 120 120 118 120 119 120 120 118
 109 106 111 113 109 112 110 113 119 122 126 107 110 115 112 115 120 113 120 112 122 134 193  66  58  61  65  71  79  54  55  74  79  65  52  39  13  21  33  46  16  16   8   9  13   1  99  48   7  19  13  19   8  13  23  39   4  28  13  22  11  14  12  44  28  37  23   4  42  64  44  39  46  31  68  75  55 119  91 120 117 120 124 124 123 121 120 120 119 119 118 119
 109 111 107 109 113 113 116 113 112 118 116 109 111 114 117 129 133 123 118 116 118  98  89  86  71  92  85  69  49  54  59  46  45  30  44  75  91  85  40  34  31  15  10   4   4  15   7  50  34  12  13  12  19  12  16  12   5  33   9  15  12  14  13  46  11  27  30   8  51  42  43  26  26  35  74  57  55  72  85 121 120 124 123 121 119 119 121 120 118 118 119 119
 109 108 110 111 109 112 113 113 108 113 107 107 112 111 122 155 184 165 128 125  52 106 110 127  72  61  67  68  90  48  49  58  36  63  60  59  45  61  30   5   3   2   2   1   4   5   4  56  20  23  16  13  16  14  11  15   3  21   8  14  13  12   7  41   9  24  17   8  42  32  15  33  16  64  53  49  59  71 111 130 121 123 121 121 119 122 122 120 118 119 118 118
 108 103 109 107 111 113 113 112 112 114 109 110 109 116 164 206 211 195 122   1  98 123 102 101  89  39  27  58  45  74  27  73 106  93  88  57  28  11   4  18  67  62  46  38  29  17  19   9  38  15  20  12  14  17  17  17   6  14   8  18  10  15  10  23   9  20  16  13  24  21  18  32  39  53  33  70  49  67 100 127 117 120 119 120 117 120 122 120 120 120 118 118
 110 109 110 110 111 108 113 114 115 112 110 114 109 125 196 220 218 153  27 113 100  74 115  47  37  41  35  61  83 109  96  82  78  80  64  42  19  60 124  88  39  27  30  18  18  15  17  17  20  21  18  21  23  26  25  16  13  15  15  20  15  11  16  19  17  17  12  13  20  16  29  23  52  53  25  67  65  62 101 120 123 123 120 121 123 119 120 119 117 120 120 117
 109 107 107 110 108 108 114 115 115 107 111 110 110 126 202 226 145  65 116 101  92  89  42  45  48  35  91  86  83  89 106  84  82 111  71 113 129 104  54  65  58  58  53  46  38  33  27  20  19  29  23  31  30  32  27  19  19  20  21  23  19  28  12  14  22  17  15  17  18  17  25  47  36  52  63  39  52  44  77 128 121 124 120 120 119 126 122 119 121 117 121 119
 110 110 108 108 109 110 114 114 111 103 112 116 112 113 162 186 125  85 113  85  70  25  60  27  75  73  53  85  72  59  83  94 135 107 118  94  69  87  79  71  75  47  31  34  29  33  31  32  32  38  37  38  46  31  32  33  30  31  36  40  32  27  26  19  27  22  17  14  19  18  30  32  49  29  30  73  18  34  63 128 121 124 120 122 120 117 121 123 118 120 115 116
 105 107 106 105 106 107 111 114 114 108 114 111 114 112 123 140  74 115  86  68  36  57  28  51  43  64  69  49  67  70  64  55 116  62  96 104  76  66 102  67  24  43  51  47  47  35  46  46  40  45  50  44  65  62  54  51  47  48  50  62  52  36  33  31  30  19  21  21  15  24  22  41  24  31  48  24  23  19  43 118 122 121 117 123 121 121 121 120 116 121 118 121
 110 107 107 104 109 107 111 107 108 109 113 108 113 116 112 130  93  89  81  46  76  62  72  55  55  44  64  59  51  63  71  79  57  56  58  50  41  16  20  21  41  44  65  84 106 111 104  99  76  69  70  91  92 101  87  93  93 103  97 113  81  89  64  53  40  32  27  24  25  17  45  29  22  24  23  14  16  13  16 101 129 124 123 118 120 122 122 121 122 121 121 123
 110 114 111 111 109 107 109 109 105 109 111 115 110 111 126  48 102  91  75  69  66  59  55  66  62  91  92  79  77  61   5  90  20   6  14  13  21  36  46  54  65  83  93 121 122 128 120 114 117  79  99 100  91  87 107 144 116 147 149 145 134 129 106  93  69  74  62  49  22  25  19  15  11   9  17   4   6  15  13  68 121 124 120 121 117 121 117 117 120 118 120 118
 108 115 111 112 109 106 111 109 107 111 111 114 110 108  54  71  87  72  55  41  39  49  86  82  55  44  50  45  21  17  17  62  21  14  20  42  53  74  85 111 117 121 143 127 140 155 156 139 131 124 128 133 135 150 166 171 174 178 178 178 173 171 168 150 104  91  74  50  47  53  18  13   6  12   7   6   7  18  11  60 126 121 127 122 125 119 123 124 123 118 121 119
 109 105 105 105 104 108 113 109 107 112 112 112 117 133  23  82  84  26  38  62  55  54  16  15  29  28  66  37  18  17  60  20  36  60  80  92 129 125 143 150 155 160 159 163 154 164 167 171 170 169 173 169 170 180 186 195 200 193 189 187 185 185 178 167 152 138 135  98  70  51  34  19   7   5  17   2   2  12  16  35 122 120 120 125 122 119 119 121 121 120 119 121
 111 105 106 104 107 110 113 112 112 111 112 110 120  59  32  90  68  31  15  43  14  24  18  40  38  84  35  27  13  25  57  57  92 110 125 141 150 145 154 154 158 166 165 174 174 178 173 183 184 186 190 186 188 192 195 204 202 201 196 192 194 186 191 183 181 168 161 132 114  93  56  28  18   3   1   5   5   6  14   4 116 124 122 125 123 120 120 120 121 121 122 120
 108 108 104 104 105 103 113 109 111 115 114 115  73   0  97  67  47  37  63  28  26  39  46  45  87  39  20   7  38  65  94 101 121 134 143 147 149 157 160 162 163 168 180 184 185 179 186 193 200 200 203 203 210 210 209 209 205 204 201 199 196 191 196 186 187 179 181 165 128 122 109  66  10  11   2   4   1   2  10   0 114 124 119 119 121 119 120 120 118 118 120 118
 105 108 106 107 103 101 102 106 103 109 110 135   2  50  65  71  74  66  20  18  42  38  42  63  45  22   8  48  81 103 101 114 122 136 150 152 157 157 164 174 175 183 184 187 187 193 201 205 208 206 209 205 203 207 206 205 202 205 203 197 195 193 193 194 196 185 188 181 155 142 123 103  77   6  15   3   4   5   8   5  95 121 121 123 123 120 120 119 121 119 121 122
 106 108 105 106 105 104 106 108 108 107 117  39  40  57  59  66  49  27  30  42  36  41  58  30  17  14  57  84 106 108 114 124 136 140 145 152 156 167 178 187 190 189 201 202 198 209 209 216 219 228 221 220 220 221 211 209 207 206 206 200 196 198 198 198 195 193 185 179 158 158 135 128 111  46   9   6   6   5   8   6 126 110 120 116 117 121 116 117 120 118 118 119
 103 102 107 108 109 105 108 107 105 103 112   8  55  50  50  50  28  14  35  41  34  44  24  30  23  46  73  91 114 113 121 123 136 143 155 164 168 184 189 190 203 200 202 212 208 210 215 222 228 221 231 219 227 226 221 215 207 205 205 203 198 201 201 200 197 193 192 183 172 163 157 139 118 101   7   9   2   6   3   5  37 125 122 117 119 120 120 119 119 118 121 123
 108 107 110 109 110 106 107 107 108 113  69  17  59  33  57  50  23  20  45  35  34  20  20  20  44  72  86  99 117 115 130 139 147 155 167 178 182 185 192 196 198 201 204 214 210 223 221 221 219 221 218 222 219 219 219 213 213 210 207 202 200 201 201 204 199 197 188 180 171 168 157 148 135 116  60   9  12   6  13   7   3 120 122 119 120 117 120 121 120 118 121 122
 102 101 102 103 109 108 108 104 111 119  37  50  54  65  69  30  22  35  32  27  23  24  13  32  61  83  97 107 115 125 140 149 160 171 174 186 189 195 201 204 208 209 217 208 222 222 226 229 224 224 218 225 221 219 215 214 212 207 205 206 203 200 201 203 195 189 186 179 175 170 164 156 143 125  95  39  10  12   5   4  11   3 130 117 123 122 122 120 119 121 120 120
 104 102 107 103 104 108 109 108 109 114  32  44  42  64  35  58  23  28  27  14  18  23  14  47  76  97 108 103 119 139 154 166 179 178 180 183 192 196 201 204 214 217 215 215 219 221 222 224 223 219 219 216 215 209 211 212 213 211 206 203 202 198 200 198 198 195 181 181 177 172 170 157 150 138 108  93  13  18  10   4   6  51 122 123 122 122 119 117 115 120 120 123
 109 101 101 103 104 107 111 110 113 132  27  44  26  64  29  51  20  41  10  16  29  25  46  62  78 111 113 119 132 148 165 164 175 181 187 185 193 191 205 205 208 212 216 218 213 216 216 223 222 217 217 213 213 212 208 210 209 202 204 203 200 198 192 193 197 191 186 180 174 172 172 153 146 135 115 100  58  20  13   3   5  11 108 112 123 118 119 122 121 119 116 121
 108 100 101 104 105 105 102 111 117 143   1  58  25  53  33  56  42  21  11   7  29  40  58  78 102 113 133 127 130 159 166 179 181 184 187 190 193 195 199 201 201 207 210 206 204 215 223 222 219 218 214 211 211 206 207 205 208 209 203 200 197 197 190 192 200 194 180 180 173 168 160 160 149 144 118 115  73  29  13  11   7   7 108 124 114 117 119 121 120 119 118 120
 111 105 110 106 104 105 107 114 110 105  36  51  30  51  48  36  52   6  30  18  45  62  66  86 112 131 129 141 150 159 176 181 185 188 187 191 191 196 200 208 211 213 215 215 217 213 220 221 224 220 213 214 210 205 204 208 204 202 205 201 197 190 195 194 195 196 185 174 174 158 161 162 154 143 113 114 109  40  29  19  13   4 102 117 119 123 121 117 118 119 119 121
 109 110 104 108 105 109 107 110 112  81  73  40  30  40  37  33  37  28  31  43  51  53  71  77 114 130 144 146 156 168 175 188 186 191 189 195 195 194 195 207 209 212 213 216 218 216 217 219 214 216 212 209 207 207 207 205 206 204 202 197 198 192 195 194 190 191 182 176 172 163 162 156 147 142 117 126 120  52  34  36  37   5  51 122 123 122 119 119 120 117 118 117
 108 109 105 105 109 104 105 108 107  82  80  25  33  36  29  43  15  36  30  60  50  53  80  96 120 135 144 155 158 173 174 184 187 190 192 193 196 198 197 203 203 211 216 212 215 213 220 213 217 217 213 210 206 206 202 204 209 210 208 202 203 199 197 198 195 190 180 173 167 166 162 155 144 137 127 123 119  73  32  27  46  18  61 118 119 125 124 121 124 118 120 118
 104 107 105 105 105 109 110 107 107  86  56  16  50  28  19  58  15  28  62  50  36  73  80 104 132 145 150 163 167 178 179 182 182 182 185 193 193 196 195 200 204 207 210 210 211 217 223 220 218 219 211 205 205 205 209 209 209 215 209 202 200 195 195 190 197 190 183 172 170 164 160 156 150 146 132 123 113  85  57  14  36  15  20 130 125 121 121 118 118 117 119 116
 106 103 106 106 101 105 109 109 108  86  43  12  24  31  28  46  32  35  70  54  67  72 100 117 133 137 150 153 168 172 179 186 183 187 191 193 194 200 202 202 203 206 212 217 215 216 214 212 214 211 210 209 202 205 210 213 212 214 212 212 207 200 201 188 193 186 170 170 171 163 163 161 155 150 128 126  99  88  55  38  27  18  19 139 130 128 125 125 123 120 120 124
 105 102 104 106 102 107 105 107 107  83  51  21  21  44  24  30  38  27  54  41  65  79  85 126 137 142 153 160 170 175 181 184 184 191 188 191 195 198 197 199 202 208 212 215 215 220 222 215 215 214 210 206 200 202 212 206 212 213 211 211 205 197 199 191 188 181 181 172 163 163 161 160 159 155 132 124 101  89  62  50  25   9  69 122 129 123 121 126 124 120 121 121
 105 106 102 105 107 110 108 106 109  85  34  13  39  40  25  23  35  46  44  47  62  56  81 115 136 151 157 159 168 168 184 189 188 190 190 193 196 201 197 201 198 205 207 207 211 220 220 219 209 207 210 201 200 206 213 213 211 214 206 211 206 201 198 188 188 179 174 180 174 173 167 165 162 157 140 124 109  82  56  49  35  14   6 208 191 145 120 114 119 121 122 122
 107 107 105 104 108 107 108 104 105  96  16  24  63  25  30  34  40  74  45  47  62  70  89 106 132 156 156 162 168 169 180 194 192 193 194 193 194 197 202 201 205 204 206 206 210 215 216 210 215 212 209 205 197 206 209 208 210 211 216 203 201 204 194 189 185 178 179 183 175 184 173 168 168 160 140 140 106  71  64  47  37  21  24  85 217 219 226 197 179 155 126 122
 103 106 104 104 107 102 106 105 108 106  18  28  95   8  37  51  47  72  68  55  49  71  79 104 130 141 159 170 164 172 186 189 190 192 188 196 206 201 205 203 198 201 203 208 217 219 217 216 218 208 205 194 191 204 209 206 200 201 209 201 202 199 186 192 183 176 178 184 184 190 180 176 171 165 138 132  90  63  37  49  42  16  46  36 160 178 192 202 215 237 243 240
 104 101 101 104 104 103 108 108 108 123  14  13  67  38  38  41  50  61  66  48  69  56 100 103 128 138 155 163 165 177 178 186 186 196 195 196 199 197 199 197 202 204 192 206 208 217 207 212 212 211 204 195 185 186 189 195 203 208 196 201 198 188 186 179 175 181 176 180 179 183 176 177 174 159 152 130  99  57  40  42  26  18  29 129 173 173 178 176 183 186 196 200
 106 126 140 127 115 110 104 105 105 113  55  19  62  34  42  43  50  70  59  53  78  70 104 114 122 145 144 163 163 180 182 184 195 180 181 176 188 187 183 190 190 182 188 199 207 201 206 203 207 205 202 189 181 174 176 183 200 201 193 178 191 202 191 182 178 174 166 175 166 169 168 174 163 154 150 133  95  63  50  37  19  15  25 142 167 173 167 176 174 176 180 179
 142 189 195 177 160 138 123 103  96 101  96  10  45  38  59  48  45  40  76  63  57  90 108 122 124 145 143 158 161 174 177 174 168 164 157 173 177 179 145 167 153 145 151 147 181 187 181 195 189 186 189 186 173 176 176 178 164 181 177 168 176 163 158 161 157 145 158 169 167 155 149 143 150 126 143 133 105  57  49  40   9  18  14 151 167 173 166 174 174 175 177 172
 173 205 210 203 194 183 159 117  99  95  90  21  18  42  58  49  49  26  52  54  73 101 107 119 128 142 141 151 159 169 156 167 150 158 131 139 113 126 100 116  92 107  96 121 114 110 114 135 158 164 186 179 176 169 175 173 176 179 151 125 148 123 113 109 113 125  71  76  87 110 113 115 110 111 107 115  99  58  55  33  24  16  35  96 160 168 165 171 167 171 170 171
 148 194 207 203 184 189 154 123  95  97 100  28  23  47  48  33  47  32  52  44  56  99 106 121 129 134 138 148 145 150 149 104 113 106 114 101  77  46  51  51  49  42  53  64  77  92 109 123 140 147 170 185 175 182 170 167 163 162 145 128 106  95  88  67  69  57  60  61  82  51  61  70  96  86  81  83  94  62  44  27  25  14  40  96 143 149 165 162 163 165 171 171
 115 171 189 177 164 141 119 110  96 136 168  13  24  57  41  40  30  50  38  58  60  96 113 128 133 139 133 138 128 109  90  81  77 123 135 139 154 157 154 157 148 123 100 105 107  99 112 120 147 152 167 184 184 156 183 176 169 158 119 116  97  84  78  79  79  92 121 127 135 139 137  97  66  47  48  56  82  56  44  28  22  29  39  93 115 132 149 160 160 165 168 167
 103 155 180 162 145 168 152 139 172 169 154 131  42  59  32  26  41  43  48  53  62 103 118 123 132 134 136 110  97  99 108 133 139 148 147 152 171 186 179 164 139 142 139 136 114 110 119 128 142 157 177 190 187 189 186 183 164 146 130 118  95 102 120 117 128 110 120 133 142 152 135 132 115  92  99  71  69  56  37  32  21  38  35  91 107 104 107 112 128 147 161 173
 133 190 198 174 157 181 187 173 156 166 165 169   7  34  34  41  35  44  45  51  60  98 119 133 132 137 128  98 101 112 114 139 146 148 167 146 123 110 112 108 117 118  86  77 110 123 115 124 136 156 179 201 202 196 188 171 156 125 108 101 110  67  96 128 108  63  66  94 118  90 103 122 118 105  85  85  75  48  47  31  25  39  76  98 106 106 106 111 106 106 106 118
 152 192 202 182 173 179 168 169 168 172 173 192  29  29  42  37  38  32  48  50  67 100 124 138 130 113 136 124 127 135 136 145 150 121  90  97  38  24  17  48  32  85  81 120 103 107 118 121 128 164 188 206 213 206 188 178 153 107  97  93  95 114  63  15  41 102  41  15  22  33  63  83 118 113  94 112  90  62  51  34  32  35 102 100 109 109 110 113 109 109 108 108
 177 175 173 181 181 170 167 178 172 173 174 183  29  32  45  29  31  43  27  70  72  96 127 148 135 116 129 144 143 150 148 161 122 119  63  62  50  65  13  57  82 110 170  53 120 167 126 125 130 157 187 203 210 202 196 179 131 112 102 128  94  83 148  54  54   0  49  47 125  67  18  38  98 123 111 101  91  60  45  24  32  60  99  99 110 107 104 106 109 109 111 111
 162 174 187 184 173 173 175 173 177 178 171 132  34  32  50  40  46  38  28  56  79  85 127 142 139 139 135 147 167 164 149 145 109  58  75 129  89  60  45  60  91 168 152 121  56  68 156 147 168 147 188 200 211 209 195 176 131 135 143 133  90 119 111 141 135 131 142  99 100  99  99  72  83 126 144 131 104  67  46  28  33  73  96 103 104 103 108 110 106 107 107 106
 174 184 187 176 177 174 176 177 174 170 170 103  82  51  49  36  41  35  26  51  63  93 127 143 144 145 153 152 159 156 144 136 147 129 146 112 144 158 134 189 172 155 150 145 173 171 176 165 187 153 176 192 204 208 192 176 141 155 173 163 173 179 170 164 151 176 158 143 146 153 140 117 126 111 115 122 126  85  49  22  38  79  97 102 106 108 107 109 107 109 109 108
 180 184 181 183 180 173 171 171 176 172 161 131 148 118  83  75  47  39  33  42  66 104 128 149 149 159 156 166 175 171 159 178 179 184 169 178 189 189 186 156 177 181 186 175 186 192 182 187 185 166 179 197 204 195 197 183 140 164 168 169 164 160 161 168 180 176 170 161 144 131 115 134 152 150 135 146 127  97  45  24  48 104  97  98 103 105 105 106 105 107 108 108
 177 184 182 181 173 172 171 167 166 167 133  62  33 142 143  80  91  37  36  46  75 107 129 146 153 170 157 167 177 186 188 173 173 167 171 174 173 179 182 218 207 187 182 168 179 185 194 191 183 174 175 188 202 201 190 184 146 157 171 181 182 183 170 151 127 115 120 114 112 123 133 156 165 155 169 155 146 107  54  39  63 103  89  99 100 105 107 111 103 106 106 104
 178 180 183 175 176 169 164 169 170 166 158  72  85  26 149 146  95  61  21  46  81 121 130 149 162 169 178 178 186 192 178 191 186 170 153 142 142 147 158 159 146 152 184 202 201 191 196 198 179 170 164 185 197 206 193 185 145 143 172 183 177 191 195 190 198 180 173 173 178 178 165 168 171 171 165 166 150 120  59  41  79  28  87  91 103 104 109 105 112 109 110 112
 179 178 179 175 170 170 168 168 164 152 149 100  99 104  37 136 147  69  32  43  77 127 128 148 159 171 179 184 190 195 195 196 192 198 194 201 195 196 185 204 206 208 209 209 201 200 184 183 176 170 165 182 194 204 190 190 152 140 165 178 175 185 197 200 198 195 203 195 193 191 190 178 166 175 161 170 158 130  61  51  27  76  80  97 106 101 104 103 105 112 111 108
 175 178 176 169 167 166 161 166 157 140 133 109 132 113  92  43 117 121  38  35  88 125 128 150 160 171 185 184 192 192 203 200 198 196 206 201 206 209 205 207 211 210 214 207 206 193 181 178 174 163 171 174 190 196 199 190 157 154 160 165 174 183 189 200 202 199 198 196 194 193 187 181 181 178 176 167 155 129  56  37  60  68  83  91  98 103 103 105 105 105 105 104
 173 173 165 164 159 155 160 157 150 138 128 106 150 124  82 111  81 101  64  41  90 125 133 148 163 174 177 181 196 193 203 193 197 202 205 208 210 207 210 213 207 206 216 211 203 183 183 177 166 169 176 181 190 207 203 187 168 152 148 156 168 177 184 189 200 201 199 197 189 193 186 189 175 175 166 171 148 133  73  58  52  61  76  88  98 103 105 103 108 104 106 105
 170 162 159 155 153 150 152 148 141 123 115 101 121 134  84 136 129  78  67  47  79 116 127 146 157 179 171 191 198 193 191 196 198 196 204 200 204 208 206 212 216 216 211 204 199 183 181 170 166 161 175 185 194 200 207 192 165 165 150 139 160 179 182 190 197 197 193 200 203 194 185 185 181 169 161 152 151 127  81  53  48  61  74  86  96 100 103 102 102 109 107 104
 161 157 158 150 141 139 141 139 131 116 100  75  58 157 103 145 137  99  80  43  67 116 119 133 152 153 172 188 184 188 191 194 189 203 198 202 208 207 214 216 218 219 215 204 205 182 182 167 162 164 178 189 197 204 208 197 177 177 160 137 162 169 183 190 189 199 205 200 200 199 188 174 174 174 167 148 156 121  85  39  48  58  71  84  95  98 104 104 104 105 105 106
 152 153 150 139 137 137 131 122 109 104  90  73  52 159 116 159 151 133 104  64  73  98 119 130 145 146 174 181 184 189 191 197 193 186 197 206 205 215 217 220 222 216 217 211 196 182 172 153 152 164 178 188 195 208 217 203 184 183 175 149 142 172 181 188 189 191 204 200 197 198 192 181 179 169 167 151 144 123  67  37  45  57  68  84  88  97  99 102 104 101 102 104
 148 141 134 133 137 127 125 112 105  93  81  69  49 115 123 169 142 133 124  68  80 101 112 116 133 151 168 177 181 184 181 183 193 194 199 208 214 216 223 224 226 215 219 211 204 176 154 154 153 174 193 191 202 213 212 201 187 181 177 161 150 162 188 190 189 198 196 199 203 194 191 181 177 172 152 144 133 116  59  36  46  55  68  81  87  95 102 100 102 103 101 102
 135 134 125 117 126 117 108 114  97  92  81  69  49  70 133 173 158 142 146  80  84 105 109 110 120 156 158 168 171 178 183 188 194 191 198 200 207 217 219 223 220 219 219 213 202 161 164 181 164 174 186 195 203 209 222 206 192 185 180 160 147 155 184 185 188 190 194 202 195 193 188 183 175 166 159 138 119 106  52  37  44  50  67  78  90  96 103 102 104 104 105 105
 120 119 119 115 115 111 101 106  91  84  73  62  48  36 145 170 160 134 163  98  81 106 111 105 115 152 157 164 167 172 183 184 187 194 195 206 207 219 221 212 206 202 208 200 198 151 182 180 157 164 169 176 188 192 226 197 192 177 151 133 131 158 166 189 190 197 198 199 193 188 185 178 171 165 152 131 120 101  41  37  42  52  64  78  87  91  99 102 103 101 103 107
 107 116 107 106 106 106 101 101  92  87  77  61  47  28 124 174 142 110 165  93  87 105 112 107 106 144 152 154 158 170 177 189 189 194 191 204 209 216 225 216 208 200 191 204 190 140 171 183 171 148 132 127 151 168 179 177 171 157  97  97 131 130 165 180 181 192 185 195 189 188 176 174 166 158 148 126 113  96  34  36  43  52  65  77  87  93  98 102 100 104 103 105
 110 112 106 101 107 104 102 100  90  84  75  63  48  41  67 151 163 157 137 105  82 104 114 114 102 132 147 140 161 164 170 179 187 186 190 196 205 213 207 199 181 180 187 204 194 133 156 162 153 134 117 110 116 128 137 130 124 109  62  76 101  95 180 169 172 175 179 176 183 186 173 162 165 146 140 115 110  86  24  34  41  47  58  73  85  93  98 101 100 103 102 106
 112 111 102 106 106 107  96  97  91  82  73  60  50  43  41 138 185 183 126 121  81 100 117 120 101 132 140 143 141 153 156 169 178 178 185 184 191 197 203 186 181 180 193 195 192 158 131 134 102  34  42  28  42  91 103 107  98  28  80 110  98  90 179 170 177 179 175 180 172 178 183 164 161 149 133 108  95  71  15  32  37  46  58  72  80  94  95  99 102  99 105 100
 104 104  96 103 100 102  98  94  93  85  75  63  53  43  24 124  87 143 129 121  75  98 113 118  93 124 136 128 141 147 160 166 169 176 181 186 189 187 189 178 174 197 198 199 189 197 101  98 100 146 128 121  81  94  96  80  49  93 107  79  79 135 172 177 172 177 181 172 164 166 165 157 154 139 122  95  83  64  22  33  36  47  54  69  82  90 101  99 102 100 103 104
 106 103 101  98 100 101  99  97  94  83  80  69  53  44  38  59 111 143 143 132  73  92 110 121  94 124 130 126 127 144 142 155 163 171 166 170 173 178 174 177 181 201 188 196 196 172 129 116  92 103 106 121 125 111  90  99 124  90  76  60 104 127 142 174 177 173 176 176 165 158 158 147 145 131 109  86  77  66  23  33  37  45  53  67  83  91  94  99  99 103 102  98
 104 105 105 101  98 104 104  93  90  87  78  68  54  48  35  29 117 143 152 172  81  92 107 120 104 121 139 125 121 131 136 147 151 156 156 161 168 172 171 198 195 194 197 196 186 160 144 131 122  92 109  91 105 125 133 119  99  89  87  93 102  98 112 154 153 185 184 184 173 168 162 142 141 116 101  82  69  66  28  32  34  43  54  69  80  86  96 103  98 102 102 107
 104  98 103  97 100  95  99  96  92  87  82  72  57  44  39  30  41 123 147 161  95  88 103 118 117 116 137 130 121 123 132 135 150 156 154 168 171 178 190 195 194 189 175 177 146 143 145  90  79  82  88  99  91  94 117 120  88  94 109  57  97  96 108 119 159 167 174 183 174 174 158 141 125 111  93  82  71  60  25  29  34  43  52  72  78  86 102 103 100 103 101 101
 102  96 102 100  98 101  93 102  90  93  84  72  60  45  39  34  29  38  94 117 113  86 102 118 115 125 137 140 124 126 126 140 148 157 166 168 174 178 144 160 187 165 166 156 148 124  85 119  75  88  92  87  81 100 117 119 101  84 101  78  90  92  80 110 120 126 164 151 171 169 150 138 132 106  84  83  76  53  24  30  30  43  56  70  82  91  95  97  99 103 103 104
  96  99  93  95  99  98  99  95  93  91  84  76  60  48  40  34  29  33  24  17  30  81 103 113 120 124 134 139 124 123 135 141 155 161 161 165 175 144 152 138 116 113 152 106 120 107  83 123  84  90  74 106  87 131 120 130 110  83  83 104  70  70  98  80 113 109 124 126 128 148 148 142 134  95  84  83  76  39  27  31  36  45  58  70  80  97  95 100  99 101 103 102
  96  94  97  95  96  91  94  95  89  87  86  73  67  52  40  33  32  26  28  29  21  69  97 119 123 124 143 149 144 126 133 147 158 163 164 167 149 111 104 108  93 109 104  91  90  81 100  96 102  84  91  94 103 105 143 131 101  88  95 111  95  90 100  91 100  67  74 106  80 118 146 136 127  85  98  87  80  28  29  30  36  42  59  71  83  92  98  97  97  98 100 108
  96  92  96  95  93  99  95  98  93  89  83  78  66  54  43  33  31  25  26  26  29  51  98 114 121 127 136 139 142 140 131 147 159 168 176 131 116  79  81  87  85 101  85  86 103  85 120  86  99 112 115 129 117 135 134 149 120 141 140 143  97 119 106  77 120  72  82  74  81  81 108 149 127  79 110  85  74  21  29  30  38  49  61  78  85  92  97  97 100 102 100 104
  94  93  92  96  93  97  95  98  88  93  87  76  67  53  43  36  30  27  28  22  27  37  91 118 123 124 139 145 143 145 122 152 162 173 149 104  85  76  76  68 103 100  91 108 119 111 144 107 151 159 160 146 165 187 160 185 181 178 165 159 146 135 123 110 109  74  73  88  69  85 109 120 116  86 100  77  68  18  28  30  36  51  65  78  88  95  98  99 101 101 101 103
  95  95  93  94  96  96  94  93  97  87  84  79  64  49  39  32  30  29  25  25  26  26  85 113 125 130 134 143 135 143 125 133 158 170 110  66  68  72  73  77  90 118  99  91 127 140 142 136 162 149 140 129 142 160 169 162 136 128 112 100 117 126 113 118  99  75  59  79  71  71  64 129  82 108  92  81  63  22  26  34  38  54  66  79  87  91  93  98 100 101 102 101
 101  89  96  94  93  97  94  94  95  92  84  79  64  53  43  34  31  28  26  25  25  22  69 106 124 134 132 144 138 142 127 121 156 119 116  97  98 113 105  94  98  78  88 112 112 115  99  82  76  75  71  81  85  93  88  87  75  67  57  55  52  57  83  98  68  89 112 114 107  70  86 131  72 116  84  73  58  20  30  36  46  55  71  79  86  93  99 102 101 101 102 100
  94  90  93  92  93  92  92  90  91  89  84  74  63  49  40  32  29  29  25  28  24  24  51  96 121 134 136 139 133 136 137 114 135 111 121 115 109 136 134 140 135 133 114 101  85  93 107 125 139 136 124 109  98  77  73  79  88 116 125 138 138  89  71  77 101 131 131 120  92  95  74  84  78 103  80  77  36  26  30  38  45  57  74  83  92  92  97 100 103 104 104 103
  99  89  89  95  93  93  95  91  92  89  83  74  63  49  40  32  32  30  25  27  25  24  30  90 120 131 143 145 135 136 129 118 122 148 144 142 157 157 160 157 156 154 141 142 149 158 151 148 153 162 176 182 174 173 174 170 176 183 167 144 130 129 118 103 105 137 139 135 125  99  76  63  88  89  78  75  22  29  32  41  51  60  80  85  91  96  97  99  99  98 101  99
  92  90  89  96  93  95  94  93  95  91  84  73  61  52  44  33  30  30  25  24  26  24  19  72 106 116 138 146 144 133 130 112 123 138 155 152 145 154 144 157 162 171 156 159 164 157 165 167 166 174 171 172 164 165 159 163 165 169 149 152 136 130 120 114 132 140 148 139 117 109  91  56  92  86  83  65  23  28  33  42  58  67  86  87  89  95  96 101 103  98 105 100
  89  93  92  96  94  92  92  91  91  85  81  72  61  52  41  30  30  29  24  25  24  23  19  55 102 112 130 141 145 141 132 126 105 123 143 156 158 155 155 165 176 175 167 173 161 154 158 156 148 150 148 153 153 150 153 158 147 141 136 131 116 120 124 124 152 146 140 150 134 120  84  68 103  86  80  43  22  29  34  45  62  75  82  88  97  93  95  99 105  99 102 100
  93  90  92  92  94  91  91  86  89  86  83  74  64  54  41  34  30  27  26  25  21  10   0  44  77 106 127 136 144 138 133 122 117 108 133 149 159 155 155 170 168 171 172 168 159 157 148 154 152 152 151 145 142 141 133 125 130 128 133 140 143 114 124 147 153 151 149 132 130 111  62  94  89  84  81  26  29  29  38  52  68  78  83  90  93  92  95  95 100  98  97  98
  89  88  91  88  89  90  93  92  90  87  80  77  62  54  41  32  27  29  27  21   4   0   0  39  52  97 120 130 139 145 139 111 106 104 123 138 152 159 158 160 161 162 169 163 154 150 148 142 139 137 145 135 128 119 110 118 137 130 140 137 120 115 143 140 149 157 154 132 120  91  61 101  87  79  63  21  24  33  46  60  71  81  84  93  92  94  97  96  99  99 104 100
  93  88  93  92  97  95  95  87  89  85  85  78  70  56  45  37  31  24  10   3   0   2   0  46  34  77 104 118 125 138 136 131 114 105 118 130 140 148 149 151 149 162 152 160 160 158 147 147 142 146 146 124 131 125 125 131 129 124 114 117 122 129 137 151 147 148 139 129 108  57  83  93  80  80  33  24  27  38  48  59  73  86  89  92  98  95  95  97  99  94  97  99
  89  90  95  88  92  90  93  91  91  89  82  80  69  60  47  38  28   4   1   2   1   4   0  62  35  48  88 102 123 135 139 134 121 117 111 129 144 130 135 142 137 148 161 166 162 158 158 153 151 147 144 137 133 112 121 146 125 124 144 140 142 143 152 150 151 143 141 107  75  75  85  92  74  62  22  27  31  40  50  64  78  87  93  96  96  94  99  96 101  98  97  97
  93  92  91  89  88  95  91  90  91  86  83  78  72  62  52  41   3   1   4   2   4   3   0  72  68  31  66  88 110 122 130 131 125 125 104 125 127 129 136 141 145 162 154 150 167 170 164 178 174 154 156 143 107 109 104 114 108 162 152 166 159 162 167 145 157 144 112 100  62  71  88  72  65  21  26  28  33  43  52  62  78  88  92  95  96  92  99  96  98  98  98  95
  89  92  92  93  92  92  89  91  94  85  87  80  72  66  54   4   5   2   4   2   3   4   3  74 103  45  36  69  96 102 119 124 129 127 118 111 123 126 113 131 131 147 161 158 172 176 177 187 187 172 176 155 151 145 146 146 130 155 165 172 179 171 164 154 146 132 126  65  52  75  75  68  16   0  13  29  32  46  57  68  81  89  94  95  97  99  91  94  94  94  98  97
  85  86  91  89  93  91  90  91  94  81  85  82  72  74  15   2   3   6   2   3   4   4   4  88  98  84  30  46  75  87 101 113 109 123 121 106 100 104 117 117 153 153 139 168 163 169 169 167 166 186 166 158 183 191 195 149 172 159 171 170 184 176 148 154 142 113  92  47  36  72  65  20   0   1   0   6  31  51  55  67  85  86  86  92  93  94  95 101  92  96  94  97
  94  90  90  88  89  90  90  90  94  88  87  85  89  37   0   2   4   4   7   7   4   8   0  80  98  99  77  26  54  71  87  90 102 107  94  84  78  76 117 120  89 142 137 161 178 175 161 161 187 173 165 180 190 182 162 173 186 171 174 157 174 165 160 145 119 101  62  53  45  48  25   0   0   0   1   2   4  23  65  65  81  88  93  88  91  96  93  94  93 100  95  96
  90  87  86  90  90  89  91  93  95  88  87  87  62   1   8   4   6   9   6   6  10   2   0  86  97 105  97  61  31  52  67  82  83  99  85  93  88  66  92 110  97 109 144 145 169 156 156 169 178 180 172 183 162 188 175 171 165 165 169 167 151 135 134 118  99  75  30  23  35  29   0   0   0   0   3   4   5   3   4  65  81  89  87  91  96  95  92  96  91  95  96  96
  85  88  88  89  85  88  91  90  88  89  82  94   7   6   5   4   2   6   9   7   7   1   1  88 104 114  93  98  63  44  49  70  72  83  91  78  73  64  69  93  90 114 125 118 154 142 143 159 149 176 149 163 154 159 166 154 159 163 142 145 129 122 118  84  85  53  24  27  39  17   0   0   0   0   3   1   5   3   7   2  52 107  87  97  96  87  95 101  95  94  98  99
  91  92  87  86  85  87  89  91  92  91  88   6  10   3   6   8   4  10   5   7   4   3   6  98 109 109  95 121  87  59  40  53  68  73  64  83  71  54  78  69  69  63 120 127 124 120 150 121 144 133 145 139 150 126 161 155 137 150 142 122 113 111 100  91  73  41  26  39  20  21   0   1   1   8   3   4   6   2   0   6   1  42 102  86  94  93  93  93  97  93  95  96
  90  87  85  88  87  84  88  84  96  56   1  15   2   6   7   6   7  10   6   9   2   7   0 101 117 111 123 113 105  85  65  54  52  57  58  48  64  55  51  71  69  76  77 101  87 118 118 123 136 138 130 126 138 135 118 123 147 141 125 112 115  71  70  69  48  28  30  23  28  18   0   1   7  12  13  10   5   1   4   3   4   3  14  96  91  92  94  99  91  94  94  97
  86  87  88  89  83  91  90  63  12  13  12   9   5   5   7   8  10  10  10   5   1  13   0 105 119 112 127 123 118 107  86  71  57  56  62  46  47  46  32  40  61  48  71  79  77  89  91 111 103 104 110 107 117 109 122 124 116 127 105  90 110  63  78  81  37  45  32  20  36  31   2   0  10   9   8  10  12  12   5   4   2  10   8   0  81  95  96  93  91  99  97  96
  81  85  81  90  94  50  11   6  14   5   9   7   3   2   6   8  11   9  16   3   2  12   0  95 117 117 127 127 125 118  99  81  69  58  67  57  41  26  35  29  57  50  68  71  64  93  80 106 101  89 102 102 112  87 110 103  98 110  78  80  79  61  38  43  19  30  23  27  65  43   6   4   3  14  10  15  11  13  15   6   4   4   5   3   1  57 105  98  96  95  91  88
  84  91  92  36   9   8  11   8  12  14   9   3   5   9   6   5  11  11  13   2   2  13   2 101 120 121 128 129 123 113 112 100  92  69  59  66  65  37  24  19  27  39  32  46  50  76  61  67  72  79  69  90  69  97  63  95  75  49  59  51  46  29  57  18  21  21  29  53  80  38   9   7   2  11  10   9  14  16  17  19   8   7   4   8  11   0  10  71 102 109  88 116
  94  60   1   5  14  10  10   4   9  10   8   3   3   7   6   5  10  17  14   0   5  16  11 117 121 131 128 133 134 114 113  97 100  89  69  74  77  52  38  33  11  27  28  29  43  30  33  50  69  53  48  46  55  34  42  52  56  46  49  58  42  22  24  20  19  18  48  76  76  35   8  10   5   1  15  10   7  15  17  12  19  13   5   7   5  10   4  14  10  29  57 185
  69  14  11   7   9  10   9   7  12  10   4   5   3   5   6   7   9  20  12   1   3  15   3 118 127 133 128 135 133 128 126 122 117 106  89  82  79  69  63  44  33  27  28  24  17  31  29  34  37  45  35  32  46  51  27  28  30  35  26  41  20  26  22  22  21  32  69  89  77  33   7  10   4   3  10  10  13  13  13  17  16  15  16   5   5   4   7   1  14  21  19  11
   0  16   8  10  10   8   8  11  11   6   2   2   3   4   5  10  13  19  18   0   5  19   0 123 130 132 141 133 137 141 127 115 117 112 102  97  88  88  74  70  50  37  22  20  33  31  31  28  30  29  27  33  26  27  51  27  30  32  19  16  27  23  20  20  37  52  87  90  82  37   5  10   7   5   2  15  15  17  17  17  16  19  17  16  18   1   6   2   3  11  17  17
  18   9   8   7   8   9   6  10   9   6   4   5   5   7  14   9  19  23  20   0   4  17   0 126 133 136 138 128 142 140 135 131 127 131 119 116 106  92  93  78  82  58  43  27  22  15  22  13  26  19  24  27  34  29  35  24  21  24  24  26  17  23  23  43  71  78  98  89  85  37   2  12  12   4   3  11  12  16  16  19  18  17  22  21  21   8   9   6   3   9   6  11
  16   9  10   7   6   9   9   8   6   6   7   3   5   5   9   6  22  25  20   1   5  14   2 113 133 143 146 148 146 143 130 142 138 134 129 125 119 108 106 101 104  95  88  45  35  36  18  34  25  45  32  51  52  44  41  44  37  33  23  31  31  27  58  85  95  88  92  86  80  40   3   8  11   8   3   6  17  19  19  17  20  16  25  23  20  19  17   5   8   5   6  11
  10   6   5   6   7  10   8   9   8   6   6   7   6  10   7  14  23  22  22   0   3  15  11  91 136 146 143 145 148 150 135 143 141 138 143 139 130 115 111 111 106 102  92 116  81  82  70  80  98 102  92  97  90  91  72  73  79  66  65  59  51  67  84 101 100 100 101  93  78  32   7   6  11   7   8   0  16  17  19  20  17  20  21  19  19  18  20  16   5   8   4  11
  13   9   6   5   8  12   5   5   1   8   9   2   8   6   9  20  24  25  23   1   5  13  17  10 148 145 156 146 157 142 147 145 138 145 144 132 121 129 123 114 116 111 114 100  80 111 110 120  96 137  89  89 132  88 106  91  85  86  83  72  76  86 105 102  99 107  95  89  80  48   3   8  12  13   9   1  11  19  16  21  16  21  20  20  18  22  19  24  18   6   6   8
