P2
# Generated by OpenCV 4.2.0
92 112
255
 202 202 204 205 202 202 203 201 204 199 207 200 212 193 202 206 209 197 169  79  14  11  11  15  17  13   8  10  14  20  16  14   5   8   1   6   2   5   5  13  16  15  12  17  19  23  33  10   7  17  45  30  21  44  60  27  12  29  78  21  28  62  38  52  32  23 196 211 126  93 222 209 203 220 215 212 215 217 215 216 216 216 215 215 215 214 215 215 214 220 217 216
 203 203 203 203 203 203 205 205 205 208 204 196 205 209 208 247 193  84  35  17  14   5  12  13   4  14  10  14   7   5   3  10  12   3   6   3   6   4   5  11  14  28  28  13  20  18  40  22  16  21  12  36   9  41  86  44  10  40  47  48  16  54  51  51  77  31  45 167 194  95 114 193 221 210 212 213 214 214 214 214 214 216 216 215 215 216 216 217 216 215 217 214
 206 201 203 208 205 204 206 203 203 206 210 194 213 220 204  78  17  12  27  15  12  15  17   9   5   4   8  13  13  10  10  16  22  10   3   4   5   9  11   7  13  15  28  24  16  28  29  43  15  12  18  22   8  26  58  67  21  19  41  43  26  47  61  40  79  70  53  53  94 155  78 182 161 222 217 217 213 212 213 213 214 214 215 214 216 214 215 214 216 217 218 218
 210 203 204 203 204 204 204 205 204 209 204 211 158  59   0   8  34  30  26  17  14  12   2   3   1   3   2   1   3   9  20   6  16  21  20   3  13  13  12  16  11  21  28  31  44  23  33  63  37  13  20  32  27  21  41  62  26  19  22  48  39  54  73  55  66  79  77  79  75  57  76 131 133 142 253 211 209 217 215 213 213 216 214 216 214 216 216 214 217 214 214 216
 204 208 203 202 202 205 207 203 197 205 200 169  20  33  33  21  23  21  10   8  11   4   2   2   4   1   3   4   6   4  13  31  27  27  15   5  10  16  24  29  11  19  33  38  49  51  18  49  84  19  14  21  17   7  49  52  31  34  18  69  55  64  92  69  99  44  75  78  75  76  32  84 137  95  94 197 198 206 214 216 216 213 212 214 216 214 215 217 216 218 218 218
 204 211 202 204 201 205 210 207 206 203 203  98  20  18  18  12   3   2   2   3   1   4   3   1   5   5   5   5   4  12   6  10  30  31  30   9   3  13  13  39  44  26  20  46  61  80  63  22  81  41  47  29  50  13  26  76   7  13  30  36 101  37  99  60  90  46  81  78  42 104  55  57  56 118  81 152 233 204 209 212 214 214 215 215 216 217 215 216 219 218 215 213
 203 210 209 204 206 203 207 204 203 202 163  42  24   9   7   4   3   1   2   4   2   3   4   1   2   0   7  12  26   8   8  15  20  57  59  17   8  18  42  14  75  32  38  41  95  61  91  77  15  81  45  31  51  21  14  57  15  19  13  32  93  58  55  61 110  51 106  76  56  74  82  42  77  42 103  29 201 215 218 214 213 215 217 216 216 218 217 215 217 218 218 218
 191 204 206 205 203 202 202 194 197 128   7  22   0   6   1   3   2   0   3   3   2   3   3   2   6   4   4   8   6  33  20  27  27  36  66  82  12   7  40  31  55  54  81  32  89  98  64  85  58   7  50  93  37  37  12  65  28  32  11  22  90  80  33  54 110  60  84  73  90  32  75  37  76  38  92  93  97 226 206 215 214 215 217 217 215 216 218 216 214 219 219 217
 202 208 208 211 206 198 209 169  35  33  12   9   7   1   3   3   1   0   3   3   2   1   1   2   6   6  10  11  14  11  42  26  33  18   8  33  36  25  30  48  12  92  34  95  74  85  69  49  82  31  11 135  49  57   8  36  49  17  21   6  83  45  22  54  64  81  37  65  98  37  50  36  50  60  58  77  53 203 212 210 215 214 207 212 214 215 217 217 214 220 220 219
 205 207 203 205 206 217 144  81  27  13  19  12   4   1   2   1   4   2   1   1   3   4   2   4   7   7  15  15  30  27  17  39  34  47  25  18  29  34  34  98  12   7  67 111 123  90  45  40  81  60  37  79  37  78  27  11  48  29  21   7  56  62  29  38  58  80  13  75  79  74  23  45  39  47  56 105  53 163 210 205 213 207 216 216 215 215 214 214 213 219 219 217
 206 205 206 203 188 113   1  20   7  10   5   1   3   3   4   2   2   2   6   6   2   3   6   4   5   8  19  25  22  42  34  45  42  66  22  39  10  27  54  39  69   0  95  39  93  12  99   7  28  85  21  47  32  97  32  28  39  26  28   7  39  66  25  35  42  48  15  48  69  82  18  48  38  57  52 123  82 153 219 204 210 209 209 212 214 214 215 217 214 216 217 216
 203 204 201 203 156  23  16   5  14   8   8   9   3   6   6   5   3   3   4   5   2   3  12   9  12  15  19  27  28  30  21   7  48  23 100  26  51  12  52 105  28  21   2  79   0  90  83  12  11  62  27  28  35  52  60  34  44  28  38   5  31  69  28  17  43  51  15  45  50  81  28  31  42  49  66  89  88 147 204 213 207 207 204 210 213 213 214 216 213 214 216 216
 205 204 206 212  48  29  10   4   8   4   6   6   4   4   5   5   4   7   4   3   8   4   5  12  20  20  40  32  63  35  45  39  15  73  70  67  80  34  50  90  55  61   2  41  16  48   6  57   2  32  42  13  16  59  67  30  21  26  34   8  35  45  25  15  28  29  18  43  34  79  47  25  45  59  57  91  69 128 202 208 205 206 210 211 213 212 209 213 213 213 214 216
 204 204 201 189  55  19   7   7   7   6   4   6   7  13  15  15   6   9  11   7  10   8   7  13  35  49  34  62  29  58  36  59  71  60  78  47  23  83  21  37  83  25  34   8  35   8  48  27  23   2  44  16  21  57  76  16  13  32  22   7  18  34  18  14  18  20  24  51  30  61  59  21  38  57  47  87 104 144 180 187 187 197 204 200 205 208 212 212 214 214 214 215
 204 205 203 207  53  39  19   8   3   6   4   6   4  12  16  25  28  19  15  10   7  16  10  18  16  61  45  51  77  47  34  29  46  18  76  23  28  12  48  12  15  32  27   4  16  14  15  12  27   7  24  14  12  30  54   4  17  29  19   4  12  29  16   9  16  22  21  43  30  50  64  20  34  43  50  92 102 162 191 195 191 180 188 200 202 204 207 208 209 211 213 213
 204 204 199 192  62  21  17  10   6   7   8   6   3  12  17  22  41  39  22  25  19  18  29  11  27  36  91  39  53  84  53  60  30  34  31  70   4  31  16  28  25  19   7  20   8  13  17  17  21   9  12  20   6  28  41  12  14  32  15  10  25  24  12  15  13  17  17  38  26  41  54  23  29  38  52  53 107 160 163 158 186 184 182 192 194 193 196 199 201 205 209 213
 203 204 208 189  94  33  16  10  10   4   6   4   9  14  16  27  31  37  40  12  12  13  20  30  21  31  61  58  28  39  60  67  86  20  26  34  37   8  15  13  23  12  17  21  19  10  17  14  17  21  10  28  14  21  31  17  14  34  24  10  28  25  13  15  14  13  12  32  25  38  54  23  27  39  38  41  51  65 105 170 174 194 190 185 198 198 195 196 198 201 204 207
 204 205 204 213  93  39  40  19  12   9   9  10   9  16  24  27  34  48  71  84  31  27  26  34  38  33  42  66  40  17   6  18  37  51  11  11  23  24  20  12  25  18  22  23  21  26  23  17  26  28  22  25  18  31  31  28  22  36  38  25  20  23  17  23  13  13  14  31  20  29  42  20  20  24  13  21  42  67  67 111 140 172 193 188 195 198 195 196 199 198 197 203
 205 204 209 194  72  42  14   6   3   5   7   7   8   8  14  27  40  48  55  59  43  26  24  30  39  53  56  97  52  32  21  16  14  39  24  11  13  15  18  22  27  32  25  30  29  40  38  38  37  33  37  31  33  41  40  42  32  38  39  33  27  32  28  24  15  15  22  22  15  23  22  28  24  14  10  19  25  32  62  61 113 144 189 185 186 197 196 196 196 197 197 199
 203 207 211 150  49  23  14   9   9   4   7   7   5  10  15  19  24  43  75  86  78  46  27  20  40  58  60  76  61  50  32  19  17  10  17  21  13  23  22  28  32  34  34  43  42  46  49  49  69  41  51  53  64  49  63  59  50  55  58  61  46  38  37  30  24  25  21  17  17  29  11  10   2  11  13  22  22  30  34  56  75 119 163 192 189 193 197 195 195 196 197 198
 207 200 202 140  52  25   8   5   5   1   3   6   4   6   7  13  19  33  48  66  76  39  36  33  10  27  31  57  47  44  41  31  23  23  20  21  24  28  41  40  45  67  70  81  80  74  86  80 116 102  64  74  90  87  78 101  68  69  75  75  70  55  60  55  41  34  26  25  22  16  17  11   7   8  19  22  37  28  36  37  55  74 126 168 200 191 195 196 196 194 195 196
 202 211 186  97  33  26   5   4   3   2   7   5   4   4  12  18  26  37  46  62  59  65  28  29  33  23  33  44  39  34  41  42  30  33  31  42  65  62  52  74  84  76 110 158 140 141 122 144 131 174 144  95 109 117 120 108 129  85  96 110  98  90  85  88  77  53  39  31  20  17  20  19   6   6  17  32  44  55  38  46  55  59  82 181 193 191 199 191 192 195 195 193
 205 212 136 114  38  20   7   2   3   7   3   4  11  18  29  39  41  31  34  37  41  52  51  53  62  71  69  68  88  85  67  58  47  45  51  44  44  65  86  84 124 156 152 186 190 203 195 192 191 193 179 160 155 131 173 149 135 130 109 112 114 118  86  93  87  76  58  40  29  36  21  15  27  41  36  22  36  38  61  38  46  53  72 115 188 197 197 198 192 200 196 195
 199 190 163  50  55  51   9  10   7  10   4   9  22  32  42  44  38  42  57  60  70  76  82  85  74  84  92 106 124 131 132 116  82  71  60  70  90  85 120 162 184 196 185 202 204 206 197 206 205 204 202 192 177 170 183 170 154 160 160 147 119 102 117 127  99  95  84  57  42  24  26  26  18  27  66  88  67  71  40  82  55  57  80  59 193 190 193 199 198 199 198 195
 190 189 130  83 117  28  10   7   7   4   8  10   8  15  23  23  30  57  69  83 102 101 121 141 152 164 182 183 189 180 177 181 179 170 179 178 174 174 187 200 200 208 199 209 199 202 205 202 205 209 208 194 188 204 186 181 173 198 139 171 147 123 123 138 148 103 106  73  54  41  28  29  28  31  22  52  75 109  78  55  84  54  72  58 176 192 193 199 197 197 198 197
 190 181 145 130 119  42  26  19   7  10   6   8  18  35  39  35  70  84  84 108 124 145 168 182 177 190 188 198 196 192 191 189 195 202 198 189 198 208 205 203 206 194 200 207 203 203 200 198 197 207 198 200 192 205 196 183 188 194 158 177 165 157 140 143 153 141 131 108  71  51  42  35  39  41  42  31  45  84  75  73  89  90  23  91 105 197 194 197 199 197 199 202
 182 168 157 121  91  27  21   8   7   9  10  14  27  36  33  45  60 105 123 134 151 166 173 177 181 184 188 187 190 194 193 197 195 204 207 205 210 207 205 206 204 205 209 211 206 211 207 203 201 206 202 204 202 199 204 187 182 195 176 180 181 156 156 138 156 162 140 128 103  70  58  45  33  46  50  75  68  42  84  72  74 109  56  63  81 198 193 196 198 197 196 196
 173 149 125 101  76  25  22  11  18   9  13  24  31  36  32  74 116 126 130 134 160 164 165 172 178 184 187 190 194 195 193 198 204 206 205 211 207 206 203 211 208 211 211 214 214 213 209 204 203 204 205 203 198 198 194 197 180 192 179 178 190 159 166 146 174 165 151 132 119  95  46  49  58  49  69  31  76  45  51  55  59  87  62  44  91 188 184 198 198 199 192 199
 155 124  98  83  63  49  33  26  11  11  21  32  34  41  71  98 111 114 125 136 150 160 172 179 182 183 184 185 191 197 197 197 201 201 202 203 210 209 206 212 208 215 210 212 210 211 209 205 207 206 205 203 201 199 200 198 182 185 191 188 175 177 167 147 166 162 148 142 142 114  65  44  41  41 104  61  72  58  59  52  38  68  90  71  61 176 201 200 203 200 197 201
 146 114  86  71  71  71  45  19  19  20  40  43  38  73  92 101 108 118 124 141 151 166 170 174 184 189 191 192 197 196 198 199 208 206 207 201 207 202 202 203 212 209 210 217 216 209 207 208 209 205 205 204 205 200 194 199 191 188 191 188 182 187 172 160 176 161 154 140 146 126  66  53  46  37  30  68  48 103  30  68  52  25  93  60  90 161 206 199 199 199 200 197
 123  90  76  64  64  72  49  15  24  32  49  40  51  73 105 101 101 124 141 148 159 167 167 178 185 189 195 193 199 196 198 197 201 205 203 202 208 212 210 211 215 205 203 211 217 210 213 215 212 211 211 203 206 206 204 195 190 190 190 185 187 183 179 171 171 158 159 146 141 129  78  59  25  39  13  55  45  59  66  35  30  37  36  70  79 131 199 196 196 195 199 197
 109  85  67  64  60  72  56  38  37  46  45  42  58  74 109  87 109 135 148 150 161 170 177 180 178 186 189 189 197 198 201 209 201 210 205 212 211 214 212 217 214 214 221 217 218 211 209 210 212 213 214 214 209 202 202 197 197 193 198 192 189 186 177 177 172 156 156 138 142 133  72  53  30  20  26  15  70  29  43  48  47  36  22  61  66 123 208 195 202 200 200 198
 118  89  69  65  64  65  49  43  42  46  49  63  57  85  78  85 122 143 150 157 168 172 175 177 186 189 191 198 193 203 205 205 205 210 205 213 219 220 218 221 224 222 232 222 223 219 216 216 220 219 214 210 210 207 199 195 202 198 197 194 182 187 172 177 173 164 162 139 133 120  77  54  49  21  33  16  48  53  48  36  51  42  24  47  78  99 193 196 196 196 198 192
 122  93  79  69  67  62  86  54  33  59  64  59  60  73  68  93 128 148 156 151 169 169 178 181 182 192 194 196 197 203 207 205 208 212 212 212 213 215 216 217 218 222 219 218 219 218 216 220 215 217 217 221 209 204 208 202 194 199 202 197 188 185 178 176 174 163 162 155 140 114  85  56  51  29  26  17  25  49  50  13  37  47  32  34  53 121 198 200 195 200 200 192
 117  92  71  57  74  56  77  32  37  71  76  63  56  62  81  97 135 148 155 159 171 174 179 184 183 194 193 192 195 200 202 205 213 208 212 211 219 224 222 223 226 229 225 224 231 226 219 217 218 224 217 214 211 203 201 202 201 202 196 190 188 186 182 176 168 166 166 165 147 118  87  54  52  21  23  12  15  31  47  31  26  37  32  38  58 121 202 193 196 195 196 193
 108  88  70  66  68  64  56  35  59  80  74  57  41  62  85  85 133 148 149 161 164 176 180 190 183 190 196 199 202 202 204 211 219 215 222 212 218 222 222 223 227 229 228 232 238 232 225 226 218 222 224 214 209 207 203 198 197 201 195 193 193 190 186 180 174 172 172 165 140 132  85  53  45  25  14  16  20  10  26  30  16  35  29  39  66 102 202 197 196 199 195 195
  99  75  77  63  65  64  66  52  53  62  69  40  41  64  82  97 140 157 156 164 169 178 180 187 187 192 192 194 202 204 206 211 212 220 219 217 220 227 222 228 229 227 223 233 232 233 225 219 215 218 224 219 215 210 202 205 202 198 200 195 192 189 189 186 168 167 171 162 155 136  91  61  42  32  21  26  25  11  19  14  18  21  39  36  54 127 199 203 196 203 191 197
  98  82  64  69  60  67  64  48  57  69  60  34  53  67  86  95 143 159 152 166 172 174 176 183 182 188 186 195 200 203 205 205 206 211 213 216 220 225 224 232 224 231 232 230 231 224 232 223 221 217 215 215 210 207 198 204 199 197 197 189 191 187 185 185 179 178 171 177 162 159 102  68  50  32  25  27  28  11  26  10  12  27  37  47  75 196 192 206 195 197 191 197
 100  78  70  65  59  64  60  61  71  65  50  39  46  56  90 107 142 145 151 160 172 173 175 185 188 187 194 194 199 199 198 210 209 216 217 218 213 215 219 221 218 224 223 222 226 222 221 220 213 214 217 216 205 207 205 201 201 194 194 194 193 191 192 186 175 173 174 165 157 154 115  64  54  51  18  32  29  24  14  22  13  25  29  43  70 212 191 198 198 199 198 194
 101  76  63  64  65  60  66  78  50  62  48  44  30  61  97 109 143 149 159 159 172 174 174 177 185 190 193 193 196 204 203 211 209 220 220 224 225 225 223 226 218 221 223 228 226 221 221 221 216 210 207 203 203 204 199 198 199 192 195 195 192 189 189 185 171 169 176 160 149 145 139  76  66  74  37  25  38  36  17  21  34  35  40  44  78 207 198 201 202 195 191 201
 109  84  70  64  58  57  60  58  64  57  41  30  35  64  93 105 141 145 149 152 164 168 174 179 183 190 193 196 202 200 205 207 213 220 221 221 228 224 221 222 215 223 223 226 226 222 222 217 216 216 217 209 205 204 199 196 196 189 190 193 192 194 192 187 174 171 175 161 144 151 147 109  49  79  54  29  37  48  26  30  26  46  36  47  86 201 197 196 194 195 192 197
 119  91  75  65  62  68  60  61  57  48  48  22  33  60  91 110 142 157 152 162 158 166 176 181 176 183 190 196 197 200 210 214 212 219 220 222 230 232 223 223 217 217 227 222 220 218 222 215 210 212 209 202 201 198 199 194 196 195 194 195 194 190 190 183 178 177 173 159 149 148 132 132  65  79  60  36  49  44  32  38  42  36  39  46 111 201 193 197 200 197 193 192
 140 103  83  62  62  64  61  72  55  64  40  27  37  70  99 109 144 156 156 151 157 168 178 183 186 182 193 193 194 209 202 209 211 225 222 225 228 224 219 221 216 211 217 222 218 218 223 218 219 209 209 202 204 203 200 197 199 201 194 198 198 191 195 181 181 172 167 159 140 147 143 134  84  80  70  48  58  43  56  40  52  49  58  46 117 197 202 199 194 186 194 199
 141 107  85  63  67  68  65  53  75  73  36  22  44  72  96  97 141 151 160 152 162 175 176 180 179 191 194 194 197 200 208 214 217 218 215 224 228 220 221 213 208 214 219 229 227 221 223 219 218 215 205 202 206 201 196 201 200 198 190 195 195 191 193 183 175 173 168 157 147 157 142 128 101  77  64  63  55  54  44  53  51  52  58  52 126 201 191 190 191 194 196 198
 157 121  95  70  63  63  60  60  74  54  44  30  42  74  99  93 140 161 158 165 162 177 173 178 182 188 187 196 202 208 211 215 220 223 228 227 218 220 218 219 216 215 219 219 221 218 225 217 214 218 205 208 207 205 198 197 194 197 195 198 186 188 187 183 183 172 166 153 152 155 144 123 105  65  68  64  48  40  49  52  60  38  61  58 124 205 195 194 193 196 201 202
 161 126 101  73  61  63  65  61  69  58  49  31  47  78  89 106 138 154 163 166 166 170 178 184 188 193 185 200 199 207 211 213 218 222 227 231 230 229 223 226 219 222 221 224 227 231 225 223 220 213 207 210 209 212 208 197 198 198 197 196 196 190 185 182 180 171 149 149 155 152 148 127 118  97  70  72  60  54  50  42  51  50  45  78 135 202 199 196 194 197 197 197
 170 135 102  82  64  69  62  63  66  52  51  42  46  70  72 112 130 147 162 155 171 176 187 187 183 186 195 208 200 208 211 211 220 225 229 232 230 217 209 222 218 222 220 230 228 226 222 223 218 212 212 203 212 208 202 196 199 196 197 184 195 186 187 179 176 175 152 144 150 153 143 133 125 117  76  91  62  45  53  61  52  64  57  75 164 196 188 197 199 191 194 197
 171 149 122  87  71  60  59  64  67  65  66  36  44  71  70 107 132 155 165 168 173 173 172 179 193 186 187 194 202 207 215 216 219 220 224 226 218 217 210 216 214 215 214 222 221 220 219 219 220 217 207 206 207 215 197 205 197 169 180 148 158 171 178 183 172 167 132 140 151 149 141 136 132 110  93  71  69  68  39  60  71  56  63  77 177 193 195 194 196 196 196 196
 174 158 130  90  74  63  58  60  59  79  63  52  45  66  72 125 127 137 150 149 167 171 173 177 182 181 180 195 202 196 206 214 211 214 220 221 217 204 202 203 209 211 211 207 216 214 213 214 208 205 204 201 182 188 191 171 161 161 132 156 169 162 155 164 162 168 147 144 133 154 142 134 131 129  87  70  80  53  45  58  43  92  33  87 182 203 198 191 193 200 198 196
 179 161 129 100  76  64  61  57  61  76  67  71  29  70  79 112  90 107 108 125 148 142 153 175 158 158 176 191 194 203 207 209 209 216 212 214 211 207 209 201 210 206 205 202 201 207 213 202 198 173 140 143 152 115 151 139 158 148 154 141 124 137 140 122 102 149 158 149 124 145 143 135 132 127  88  68  54  56  64  64  55  62  72 100 192 201 198 207 184 199 198 196
 181 166 137 105  80  65  63  52  62  64  63  78  33  73  69  62  74  57  76  96  57  90  75  75  83 101 131 143 172 191 193 201 207 209 212 218 214 215 215 212 197 203 197 173 145 156 141 122 104  96  96  83  68  51  52  74  76  69  90  82  71  46  57  56  82  85 135 130 132 142 142 143 139 117  77  60  64  54  54  65  48  63  84 147 203 201 198 200 191 194 198 198
 184 163 140 101  76  68  64  66  58  57  59  67  35  77  45  47  40  60  40  42  33  14  31  15  29  36  68 117 108 101 130 145 175 197 206 213 209 215 209 215 203 193 196 158 141 128  80  61  74  46  61  42  56  70 117 142 175 148 135 124 135 159 122 129 126 117  87 106 140 146 140 146 137 105  64  58  50  79  49  65  69  57  61 171 200 199 199 202 192 192 197 199
 189 168 148 112  78  71  64  65  65  52  71  72  44  70  39  48  51  35  57  99 122  99 110 100  80  57  43  60  70  80  91 131 152 171 195 210 208 212 214 220 207 212 195 159 127  88 103  77  78  99 134 154 188 211 212 206 197 189 192 189 193 174 170 170 170 155 127 135 128 142 138 150 143 102  58  59  45  62  51  65  48  68  74 134 180 203 199 202 191 190 198 195
 194 177 149 121  89  71  66  64  61  96  76  59  50  60  44  63 109 139 144 168 181 194 201 204 190 190 172 115  60  62  73 113 152 180 189 203 214 202 222 208 213 206 183 168 161 150 146 160 122 107 133 111  54  30  22  26  28  95 101 120 163 183 173 164 165 168 168 145 152 148 140 154 145 104  53  54  40  39  45  65  68  77  82 140 153 153 203 190 190 191 204 192
 198 171 140 123  94  69  69  61  60 107  77  45  46  60  51  86 117 131 147 143 122 114  63  50  30   1  62 102 161 139 105 108 113 163 181 204 217 216 217 221 218 209 193 185 163 166 154 124 159 146  94 158  74  80 105  39  63  41  31  61  77 132 172 181 179 172 164 165 170 151 152 150 144  94  72  28  45  38  41  57  96  95 146 166 161 152 188 196 197 195 194 201
 185 180 141 121  93  73  69  64  67  61 102  70  59  67  73 111 135 145 155  75  40  23 112  62  72  72  86  96  30 100 158 127 109 129 173 201 206 213 215 219 201 199 185 167 168 169 183 205 139  74 228 224  65 118  65  78  37 181 153  62  46 114 163 175 180 178 172 173 179 158 149 154 141 100  60  52  33  34  38  77 121 128 177  92  62  79 180 194 199 193 190 201
 181 176 150 135 107  81  65  68  66  67  66  86  61  86  90 103 135 143 142  51  55 108 205  78  84  72  53 117 128 222 133 149 125 111 155 200 210 220 208 214 206 196 186 173 187 190 222 120 123 162 180 205 172  72  91  72 112 191 151 117 109 137 157 169 178 182 181 177 176 162 156 144 139  97  56  47  30  34  73 108 125 160  91  96 151 145 208 201 202 192 193 200
 186 177 164 136 111  83  66  64  64  71  69  67  75  97 102 126 124 128  87  44 117 138 178 196  56  68  98  85 181 176 159 118 175 116 157 189 204 214 212 199 200 184 176 188 194 221 200 186 193 167 158 159 187 173 170 141 153 159 151 147 154 184 172 172 175 186 186 183 179 168 164 140 143 104  59  41  26  37 123 149 168  98  93 161 156 189 191 192 198 191 195 195
 199 186 167 145 116  90  76  65  64  68  71  71  88  99 109 144 157 126 122 129  74 108 125 152 158 179 183 204 205 196 194 180 173 122 149 191 206 212 205 196 192 177 181 191 197 221 216 219 197 184 201 196 216 175 195 168 178 171 172 175 198 207 203 199 193 194 195 186 183 175 165 148 140 111  61  31  28  59 150 167 131 118 156 179 185 192 197 197 197 194 198 199
 201 189 171 151 130 101  81  65  70  67  66  78 102 104 116 142 155 153 155 142 131 130 161 165 157 164 195 202 203 207 194 203 168 120 155 187 200 209 201 193 183 172 184 189 187 201 212 204 200 187 187 186 185 180 191 179 176 172 186 204 207 201 199 198 201 196 194 191 182 181 164 159 151 116  63  42  33  92 160 141 144 141 184 194 196 198 194 198 203 197 200 195
 202 189 172 157 142 112  87  70  69  71  64  88  79 120 128 150 164 170 154 163 163 153 165 170 184 184 200 204 198 203 186 177 136 116 157 187 189 207 196 191 183 172 182 190 190 188 197 194 201 202 214 212 214 202 200 203 199 204 204 209 207 200 198 199 203 194 188 189 180 171 163 154 147 132  82  38  52 124 142 134 185 136 176 202 196 199 190 197 202 199 202 203
 202 190 179 177 151 119  92  73  66  65  65  70  79 110 129 147 166 176 160 168 178 183 187 191 199 200 209 196 207 207 185 154 143 116 160 188 190 200 185 187 178 165 187 199 198 195 187 198 211 211 215 223 223 221 222 219 213 211 208 202 205 202 202 197 200 197 192 181 171 173 168 153 146 139  89  52  64 150  90 181 190 150 193 202 195 197 195 197 199 201 199 196
 199 194 186 179 154 125  93  73  73  71  68  74  69 108 125 148 168 171 162 167 185 194 193 192 200 200 202 208 205 201 156 151 138 109 156 189 191 188 192 175 171 166 187 191 193 197 191 194 204 209 217 220 220 220 220 217 216 210 207 206 204 203 206 200 195 192 190 182 170 175 169 145 144 140 106  65 100 124 145 185 197 159 199 192 200 197 194 196 198 199 198 201
 206 198 183 179 164 133 110  84  72  61  67  71  61 101 127 148 162 161 159 166 173 182 189 196 201 201 201 204 202 184 155 144 124 117 167 184 192 187 193 169 170 163 180 190 190 194 198 198 205 210 205 213 220 224 228 219 213 209 207 201 193 200 203 198 192 188 185 183 175 165 158 151 135 140 121  84 133 169 165 192 207 158 188 193 200 195 196 198 199 199 197 198
 205 199 189 181 168 148 121  95  74  64  69  66  69  97 130 148 157 166 165 168 175 185 190 193 198 198 199 196 193 179 154 134 110 114 153 186 193 192 187 172 178 163 178 184 181 186 198 200 204 219 210 211 211 223 228 224 221 214 210 208 201 203 206 196 193 193 188 175 171 165 160 154 132 140 127 111 174 167 177 188 213 157 177 194 196 194 197 198 200 200 199 201
 202 199 190 186 177 162 126 104  80  64  65  70  68  92 122 150 152 171 173 170 177 186 195 191 198 200 191 193 192 173 148 128 109 118 165 182 191 201 188 177 180 155 174 178 183 188 186 200 205 215 220 225 220 222 222 219 219 220 212 206 207 204 200 191 196 191 188 175 176 170 159 145 137 141 125 123 183 175 190 188 224 158 159 181 198 196 192 200 200 196 199 201
 202 197 201 189 179 158 121 100  79  70  70  72  66  85 127 159 152 164 167 173 181 192 192 195 190 194 190 197 185 167 139 119 109 135 172 189 195 196 185 174 179 162 161 178 188 186 193 194 205 215 218 225 218 216 211 217 213 205 218 209 206 199 195 192 196 193 186 178 179 159 155 141 135 138 121 125 179 166 159 178 223 144 136 173 187 193 199 198 198 200 198 195
 199 197 199 186 179 160 129 101  79  74  69  70  67  80 129 147 149 162 165 174 183 192 188 189 190 192 192 190 177 169 130 115 108 138 175 191 197 192 187 168 171 167 149 168 185 187 199 202 207 217 217 216 217 215 215 207 209 213 214 211 212 203 197 195 192 192 190 182 172 163 155 139 139 140 121 122 177 142 128 175 213  98 114 169 185 192 197 203 198 196 197 198
 200 201 200 191 182 158 131 104  75  71  72  68  69  71 137 144 152 165 171 171 177 184 187 188 189 196 193 186 181 167 139 110 113 157 179 188 204 193 188 186 176 173 159 157 184 195 201 204 206 215 217 215 212 213 218 220 209 206 207 211 216 207 207 207 196 195 192 184 169 164 148 131 140 141 116 126 128 161 188 182 179  60 115 162 184 199 199 199 198 198 195 196
 200 198 195 192 183 169 139 105  76  67  65  65  68  71 129 141 147 165 158 168 176 180 194 189 190 189 191 186 185 170 146  99 124 161 173 196 208 189 188 185 174 170 152 143 167 191 206 213 213 222 219 220 217 213 216 220 212 208 214 208 211 206 209 194 201 189 189 182 174 158 141 126 139 136 123 122 158 208 199 170 149  59 129 167 184 194 205 196 201 199 196 201
 199 199 191 200 186 171 143 110  82  71  70  73  70  68 118 139 146 160 165 168 164 178 182 189 195 192 201 197 196 188 125 106 144 176 198 194 205 197 190 185 182 177 164 142 156 167 214 222 224 221 218 223 223 221 218 216 218 214 209 210 207 206 200 195 198 195 188 180 171 149 129 130 139 134 116 129 186 199 177 162  85  84 143 179 189 197 200 194 201 196 202 189
 198 203 201 203 184 173 147 125  94  78  71  62  73  59 102 132 142 150 157 167 170 184 191 193 192 191 199 194 196 201 106 123 161 179 199 192 217 199 188 192 188 189 179 152 151 132 209 223 219 225 224 226 221 218 217 215 221 218 214 213 208 199 197 196 188 190 179 175 165 148 134 136 145 131 117 144 174 197 204 163  61 115 161 187 196 203 201 195 197 199 198 199
 195 199 200 198 190 178 154 129  99  82  68  67  69  62  81 126 135 145 158 165 168 180 184 193 196 203 205 201 205 203 101 137 169 183 194 208 215 203 198 196 203 192 180 170 166 137 187 226 223 224 224 223 230 222 223 216 217 216 211 209 211 204 194 192 194 193 179 172 161 143 137 136 145 129 116 165 182 200 197 117  75 141 178 190 202 196 199 197 198 197 198 202
 199 197 197 195 196 179 164 141 105  81  70  71  71  62  75 116 125 141 151 170 173 182 186 195 192 202 202 203 206 181  99 127 164 195 207 229 242 231 196 196 193 183 182 175 180 143 189 220 223 227 235 229 225 227 225 219 216 212 212 211 210 199 199 190 195 177 175 170 162 140 139 136 142 128 108 184 191 178 180  71 121 165 191 197 194 198 193 197 198 194 200 197
 198 196 196 202 199 186 173 142 112  81  72  68  68  70  59 113 120 133 152 161 173 179 195 192 203 206 208 210 208 144 133 132 114 163 202 208 206 218 200 175 171 179 199 199 185 134 210 213 228 222 215 219 224 226 222 217 212 215 213 207 203 198 194 190 187 175 176 162 140 151 140 141 137 122 114 189 185 176  97  68 139 176 191 196 193 196 194 198 195 197 196 191
 198 194 199 194 199 187 179 151 116  82  73  67  70  68  62 100 121 122 150 160 177 186 185 188 201 199 206 201 193 132 145 137  79  86 177 194 187 182 180 121  45  16 146 183 186 134 220 219 224 221 228 225 220 225 221 217 208 207 205 203 202 190 185 185 181 180 173 155 146 145 140 148 134 126 129 124  99  80  34 122 154 190 194 193 191 197 197 201 193 194 195 198
 198 203 208 202 195 186 177 150 121  86  74  70  65  65  69  83 118 108 134 155 175 182 183 201 197 203 209 208 190 165 120 176 170 133  72 136 130 155 113  81 169 192 152 174 145 169 212 211 222 221 223 223 221 220 215 215 213 209 209 201 202 184 186 179 172 167 162 157 151 140 153 151 138 121  91   0   0  30  79 132 176 195 193 195 192 196 198 198 193 195 196 195
 203 203 202 199 200 189 180 153 123  92  77  71  72  69  69  74 116 107 128 154 168 171 190 197 206 210 201 201 181 194 148 116 160 173 144  86 111 115 139 195 188 188 162 143 143 218 202 206 211 217 223 222 220 215 212 219 210 207 208 199 193 184 180 178 172 164 156 147 151 150 158 143 136 124  51   0  20  54  97 150 179 197 193 192 193 195 197 199 193 197 198 190
 196 200 200 201 201 188 180 153 124 101  77  71  68  69  69  72  96 110 114 144 169 172 184 190 202 199 195 187 192 192 176 170 147 133 166 169 169 186 207 198 178 172 175 181 196 189 202 211 205 211 216 218 218 222 212 215 202 206 201 195 189 180 168 166 163 160 154 159 158 153 154 145 142 127  47  11  26  61 118 169 187 198 193 190 195 194 197 197 197 199 198 199
 198 204 200 203 199 193 181 159 129 104  79  74  71  71  70  78  97 102  98 143 164 178 182 194 199 200 188 182 182 185 157 138 152 102 141 166 187 201 201 183 182 153 171 178 181 183 193 202 197 205 204 215 210 220 210 213 202 208 198 197 187 175 161 159 158 161 163 161 160 157 157 146 136 132  18   5  33  73 125 180 190 198 195 197 202 196 200 195 195 197 198 200
 198 208 207 206 201 197 184 167 130 102  75  70  66  69  72  84  92 108  91 120 156 169 179 190 190 187 181 181 175 168 157 150 136 123 146 167 180 199 198 179 178 188 173 183 169 187 194 190 198 205 204 217 207 208 207 208 202 202 191 196 182 170 157 163 157 158 163 160 163 163 159 145 137 127   3  15  45  83 149 185 194 200 195 194 200 195 200 194 195 198 199 198
 195 202 204 206 202 198 184 167 135 111  87  73  71  70  62  89 104 103  93  97 151 163 175 189 182 179 178 170 157 138 145 161 162 157 169 163 189 207 191 175 176 188 178 178 171 174 192 188 195 198 194 200 201 197 202 208 199 193 192 188 176 165 154 162 157 172 164 162 164 165 157 141 130 112   0  29  53 103 160 184 195 201 196 193 193 197 200 196 197 197 198 198
 206 202 206 204 202 201 186 173 147 116  86  72  59  67  67  92 115 108 109  80 131 157 169 170 165 156 166 158 157 146 147 139 151 144 158 181 190 203 188 194 180 194 187 174 180 188 182 193 194 199 195 186 187 191 194 202 197 196 194 181 174 159 152 165 167 172 167 166 170 157 159 138 126  96   1  36  70 134 169 193 202 203 193 199 196 194 194 198 198 197 197 199
 209 202 205 200 207 203 193 179 151 125  96  84  64  72  65  89 119 121 118  85 111 147 164 167 150 145 147 139 155 131 151 155 161 179 181 197 198 201 179 187 199 199 187 190 179 192 182 177 191 175 177 179 179 185 180 193 198 202 186 179 167 152 163 169 168 172 170 167 169 159 155 141 128  89  11  43  92 149 179 197 198 197 193 199 200 199 196 197 197 194 191 202
 205 202 205 196 209 204 193 182 159 129  99  79  69  69  72  79 120 129 124 105  95 138 153 139 136 149 138 139 138 147 147 161 176 185 204 204 200 199 187 207 213 204 203 206 193 196 182 185 183 183 182 182 169 182 177 176 196 189 187 174 157 152 170 172 169 173 170 171 168 157 148 138 121  78  16  66 119 163 190 194 199 198 193 195 197 195 191 194 196 194 192 200
 201 206 207 199 206 203 193 182 164 134 100  78  72  73  70  69 117 123 130 115  80 136 137 133 108 137 150 141 141 169 181 180 190 188 211 203 206 205 187 209 213 220 215 211 212 200 201 208 185 186 178 165 144 155 165 178 187 188 180 170 153 160 167 174 169 171 176 178 171 161 150 137 107  65  39  84 139 176 194 196 201 196 194 197 195 193 191 196 198 197 196 194
 206 207 204 203 203 202 200 184 166 134 101  79  76  75  70  67 106 136 134 123  88 129 136 126 125 155 152 167 160 181 184 185 195 203 208 216 218 194 209 216 213 213 215 220 212 203 204 194 193 184 182 193 181 169 158 175 187 189 181 162 147 161 172 173 174 178 177 173 166 165 154 131 109  55  72 115 159 180 195 197 198 195 197 198 195 194 197 196 199 196 192 195
 206 208 203 211 209 204 197 193 166 140 112  89  74  73  72  70  86 132 130 127  87 118 138  98 148 173 162 162 164 176 185 182 178 157 154 170 186 210 185 173 161 145 150 173 194 201 210 204 190 189 193 186 180 165 164 170 187 181 182 157 146 164 176 173 175 175 169 170 167 153 141 114 116  73 101 145 171 187 198 200 198 193 196 198 195 194 196 193 193 194 190 195
 205 209 207 212 208 204 192 186 170 149 116  85  74  71  67  67  66 124 137 121  96 104 152 103 155 167 155 134 148 158 142 104  92  84  92  90  91 118 109  91  93  94  87  88  98 137 178 186 174 166 161 176 180 178 146 169 177 187 170 154 152 168 171 171 177 172 162 166 169 162 132 108 122 100 141 170 185 199 196 196 196 191 194 196 196 195 196 194 194 194 192 196
 206 206 206 212 207 208 194 188 173 151 119  91  76  70  65  73  67  98 133 133  99  88 144 118 151 157 185 146 100  75  84 117 128 137 117 128 125 120 114 125 127 141 146 149 134 112  68  90 108 143 171 192 186 172 167 175 175 182 167 152 157 176 179 178 177 174 170 172 161 151 122 105 125 146 167 184 191 197 198 199 197 193 200 199 202 198 195 198 196 193 191 195
 205 204 211 212 205 204 200 190 173 158 125  96  75  72  70  72  70  73 119 138 103  83 136 134 156 165 186 189 155 142 143 146 155 168 160 168 165 176 159 151 161 174 170 166 155 153 183 188 189 204 207 198 187 177 183 184 185 179 161 146 155 179 176 174 176 175 172 173 156 131 107 111 125 157 182 196 197 196 197 194 190 196 198 198 197 197 198 198 195 191 193 193
 206 207 208 209 209 206 198 199 173 160 130  96  82  73  70  69  72  62  94 126 112  72 128 149 144 163 180 174 156 155 163 164 162 152 169 166 160 166 160 172 190 201 188 182 183 185 194 183 190 202 205 205 191 178 185 191 180 171 153 148 162 175 175 178 176 175 167 171 145 113  97 118 132 190 191 200 197 197 199 195 193 199 194 199 195 199 199 197 197 199 196 194
 203 207 210 208 210 205 201 200 182 147 134 109  76  72  67  70  76  67  69 107 117  65 110 153 144 149 150 157 158 159 164 154 160 176 185 186 187 180 186 205 198 194 186 180 175 180 186 185 197 202 195 205 188 180 185 189 187 176 153 156 169 174 174 176 170 168 164 151 113  98 112 123 136 202 196 199 195 196 195 192 192 194 198 199 193 201 199 195 193 188 180 188
 205 208 210 210 210 207 202 195 189 169 130 116  81  68  70  70  71  75  64  87 122  86  90 143 143 151 153 154 161 173 178 164 154 155 158 147 160 183 169 159 153 162 169 181 183 192 190 197 191 192 192 186 189 189 190 184 186 164 149 156 170 179 169 169 167 164 157 120  89 103 125 122 131 196 193 198 193 196 196 190 188 200 197 198 193 203 200 199 196 199 185 186
 207 204 203 206 209 210 204 193 191 182 145 106  87  75  72  70  73  73  68  66  94 100  65 140 140 144 147 153 162 165 165 163 166 166 174 169 143 124 135 160 167 170 182 191 177 190 193 196 192 195 183 180 189 185 194 188 182 162 151 155 170 175 168 169 169 158 127  88  89 126 137 133 130 193 199 197 194 195 199 194 187 195 195 198 200 201 203 193 201 196 197 197
 204 205 207 209 208 205 201 199 193 188 160 119  83  74  71  69  73  69  75  70  72 100  57 121 141 146 129 153 159 164 169 165 166 164 172 174 165 179 181 171 170 176 181 187 186 188 185 188 187 191 178 185 184 183 184 176 166 161 153 158 173 170 166 161 155 142  99  88 120 134 139 137 131 203 198 199 196 201 199 197 196 193 199 190 196 201 201 199 195 194 197 190
 201 202 204 206 204 203 205 203 196 192 165 134  81  74  72  74  70  74  73  72  63  77  71  85 126 140 132 149 150 162 173 168 172 181 184 190 177 166 162 179 189 182 182 196 199 189 183 188 190 180 173 188 176 177 170 165 166 155 151 152 162 162 154 150 139 108  82 113 142 150 151 138 131 196 201 196 194 193 195 195 192 192 196 191 187 198 195 195 196 193 197 190
 197 200 202 201 198 196 200 195 197 197 176 145 110  63  74  68  72  68  69  70  73  63  72  78 104 122 139 150 156 161 175 174 182 187 191 194 191 184 177 191 193 200 205 202 192 194 195 196 191 186 198 177 204 175 161 165 158 151 150 159 155 162 150 137 124  84 104 141 156 164 151 128 136 199 195 199 200 194 193 199 202 200 195 192 192 206 195 195 194 198 197 189
 208 203 196 204 206 198 201 189 184 181 171 144 122  72  62  71  74  74  75  72  74  68  64  67  91 124 132 140 157 154 176 188 190 194 201 203 204 187 206 207 202 210 202 204 205 203 203 195 196 196 201 172 186 164 158 150 139 150 140 157 158 139 131 110  77  97 144 158 170 165 162 140 135 194 195 193 197 198 193 194 198 198 193 199 196 198 193 200 194 196 196 187
 211 207 207 212 179 191 185 189 177 172 147 134 102  76  70  78  77  75  74  68  73  72  64  51  70 108 122 136 151 165 184 184 196 196 197 194 198 196 202 213 208 209 208 208 215 209 208 201 197 199 194 185 174 169 147 133 135 150 140 155 143 129 107  82  99 146 173 173 168 172 157 130 131 183 196 198 194 196 195 189 199 194 189 198 195 189 185 191 201 193 196 190
  94  86  93  64  72  56  88  67  64  46  43  39  32  83  55  49  59  50  56  60  72  72  76  59  62 114 114 128 135 158 186 179 185 193 191 191 197 199 200 210 213 213 211 211 215 213 208 209 208 198 205 173 162 150 144 131 142 126 142 129 117 100  79 101 145 161 170 172 174 167 154 137 131 159 199 199 198 199 191 192 196 196 195 200 189 196 190 197 191 186 191 193
  65  82 106  90  71  91  73  58  39  75  35  81  61 105 108  80  70  82  28  28  21  34  39  42  40  77 109 110 134 143 185 179 182 191 191 198 208 205 202 213 213 210 214 210 209 215 212 210 210 187 186 167 168 140 130 122 127 108 119 110  96  74  98 144 165 179 179 175 173 160 161 139 137 143 194 199 199 195 195 192 195 196 193 193 193 195 192 192 195 192 190 196
  80  85  61  64  59  61  67  73  63  55  54  47  58  79  75  75  59  70  59  30  17  11  32  38  41  53  98 132 133 132 163 174 179 186 181 188 197 199 198 202 208 207 206 206 211 207 203 203 192 177 167 168 169 131 135 116 105 104 102  85  74  97 153 185 178 188 178 174 180 169 158 144 133 129 182 196 196 190 191 197 199 198 196 195 194 195 194 197 197 196 193 191
  60  63  64  71  61  70  53  76  56  84  96  47  66  70  76  60  68  55  57  55  18  40  22  25  42  49  58 110 124 135 145 168 169 176 175 194 197 197 205 196 198 204 201 202 201 200 190 195 181 166 159 155 143 116 119 112 102  92  80  76 112 165 184 184 185 185 176 178 173 167 153 144 135 147 156 202 197 190 185 194 196 195 194 198 198 185 195 198 198 200 199 186
  83  48  57  48  64  42  62  64  56  63  69  84  73  31  52  47  58  61  57  58  80  47  26  33  51  51  51  72 106 106 147 146 169 176 184 181 187 173 178 188 197 196 198 191 196 195 186 188 164 166 166 155 123 106  88  85  79  80  81 125 176 186 187 190 190 185 180 180 169 170 160 156 132 157 143 193 201 190 190 199 194 194 191 192 200 185 191 195 197 191 185 199
  53  63  49  49  67  43  58  59  70  73  65  68  56  64  50  44  66  55  69  57  95  82  46  27  63  57  49  56  62 110 116 138 150 146 166 181 177 180 169 173 188 186 188 188 184 184 158 159 162 155 130 120  97  80  72  70  81  77 131 187 194 190 195 197 187 182 185 177 170 171 153 157 129 164 162 164 208 191 195 196 194 197 193 197 197 190 196 194 197 195 188 188
  65  57  69  55  74  72  69  79  59  46  95  34  71  50  74  71  51  68  58  69  66  86  49  44  66 106  44  60  45  77  96 109 117 128 138 165 166 161 154 159 158 168 178 159 168 178 143 156 162 134 112  74  69  59  77  91 112 164 195 200 194 198 194 199 188 186 183 172 177 170 165 160 133 165 171 156 194 189 195 197 196 197 192 199 197 193 198 191 197 196 192 194
  47  47  60  50  59  40 104  58  67  49  66  26  61  38  42  72  67  51  68 105  61  83  97  52  56 134  98  62  53  45  56  81 103 124 126 134 135 134 137 140 139 139 143 138 141 147 147 142 114  84  76  55  59  86 112 144 184 198 203 204 193 204 197 193 188 189 182 177 178 170 166 158 125 175 171 170 156 193 196 192 195 196 192 197 193 194 196 195 196 196 192 191
  75  60  57  62  49  79  58  84  76  74  64  54  65  40  53  73  61  63  83  89  87  88  53  22  53 129 150  90  62  47  49  53  63  78  97  96 101 118  96  93 106 101 122 104 111 104  82  73  62  47  44  78 119 134 158 187 200 207 198 205 201 201 197 187 184 187 183 181 172 172 165 160 137 176 181 176 148 121 218 202 199 215 190 198 194 196 194 197 194 201 196 196
  34  65  56  70  52  85  42  76  61  52  70  47  54  60  57  59  49  85  58  96  67  75  64   9  51 116 149 162 108  65  48  52  55  50  40  37  39  46  51  51  52  46  46  57  36  32  34  34  27  73 129 151 156 177 198 211 208 206 202 210 202 202 197 194 186 190 187 182 171 174 171 162 144 180 181 190 172  98  87 169 208 199 207 195 193 195 197 190 196 199 196 195
  63  47  78  47  87  49  50  89  60  51  46  38  51  69  54  65 108  74  99  72  63  71  11  43  54 116 145 167 171 143  89  59  54  65  66  63  58  52  39  24  11  17  13  14  18  11  42  78 131 168 171 177 189 192 210 211 206 208 210 211 199 198 200 196 186 190 186 180 173 168 179 166 146 183 191 190 180 166  90   6  94 163 212 191 207 190 196 205 195 201 193 202
  29  91  57  51  85  93  72  84  63  56  60  68  56  69  50  66  68  85  53  73  92  54  56  40  53  97 151 166 174 169 159 127 102 114 139 155 166 180 175 184 173 160 154 136 149 177 189 181 189 190 186 196 202 207 212 203 206 211 204 202 197 202 194 183 192 189 184 184 173 173 178 166 156 179 190 200 193 167 163  15  73  45 114 201 182 200 197 195 196 198 197 200
