P2
# Generated by OpenCV 4.2.0
92 112
255
 148 152 150 155 154 153 148 148 148 149 157 153 151 148 152 154 156 154 151 147 159 154 147 145 152 147 150 141 140  80  34  25  37  39  24  30  19  10  12  23  24  12   6   4  13  21  26  21  20  18  15   8  10  21   9  15  12  28   5  32   5  38  83 129 114 142 138 158 151 150 151 148 151 153 151 151 156 156 149 151 151 150 149 154 153 150 154 149 149 152 151 151
 153 151 149 148 149 151 151 154 152 150 151 149 151 155 147 151 152 150 151 153 148 151 152 152 145 150 141 138  75  38  16  12  12  28  28  28  22   8  12  13  13  13   9   7  16  16  21  24   9   6  10  14  17   7   7  14  15  12  12  21   6  11   4   0   4  74 115 135 152 150 155 152 153 149 150 152 150 149 153 153 151 150 150 148 153 149 153 158 153 151 153 151
 155 148 149 154 155 148 151 151 149 148 150 152 149 152 149 150 153 154 153 150 147 149 146 148 130 127 129 115  46  19  10  29  42  28   7   6   9   9  14   9  18  20  11  14   3   1   3   8   7   9   8  17  13   6   9  13  10   6   9   6   4   5   9  10  14   8  33  94 143 144 134 133 142 152 150 151 155 150 152 157 153 150 151 150 152 151 152 152 149 149 152 148
 153 152 153 151 149 154 155 151 150 152 149 153 154 151 151 147 151 151 153 150 152 152 134 114 146   7  18  27  14   6  29  32  18  26  35  32  26  25  19  16  20  25  16   5   8   7   3   3   4   4   5   5   3   4   6   8  14  15  17  13   8  10   8   8   9  10  16  88 132 148 144 150 150 150 149 149 149 150 147 147 153 153 151 155 150 148 150 149 150 152 153 151
 152 148 148 151 152 149 152 153 149 151 152 153 151 153 154 152 155 152 153 152 149 124 155 132  51  43  18  19  17   5  31  29  34  30  20  17  26  22  27  24  24  15   2   3   6   7   2   4   5   4   4   2   3   3   2   6   8  10   2   5   6   6   9   7   4   7  18  94 120 123 112 156 147 140 149 149 150 155 149 152 149 152 151 156 151 153 151 151 157 155 151 148
 149 146 149 150 151 149 146 149 149 154 150 154 152 152 152 152 153 152 150 154 152 133 105  48  12   4  10  29  28  30  23  21  15  14  20  26  17  25  22  14  11   9   5   2   4   4   1   2   2   0   3   3   6   2   3   7  13  10  12  13   8   8   1   4  12   7   6   6  31  67 109 131 135 151 148 151 152 156 153 155 151 149 151 154 152 152 152 156 148 151 152 152
 152 150 156 149 151 155 152 154 150 152 157 155 151 154 151 152 150 152 155 148 138  87  76  38  18  15  19  32  41  18  17  26  25  25  21   8  10  15   4   1   3   3   5   4   5   2   1   3   2   4   7   8   8   6   5   3   3   4   7   6  15  14  11   3   3   3   5   4  13   9  33  47 131 152 151 153 146 146 149 148 151 156 149 152 154 154 152 153 155 154 151 152
 151 154 155 151 153 153 152 148 149 152 153 150 149 154 154 150 153 151 153 149 112  53  19  11  14  14  30  30  17  14  14  20  23  17  25  31  17  17  21   9  10   8  10   5   3   7   8   4   6   5   3   5   7   8   2   5   3   9   9   7  11  12  11  11   9   7   6   7  12   8   5  12  22 106 136 149 151 157 148 151 151 150 150 151 154 153 153 154 147 147 154 155
 148 148 152 150 154 151 150 149 153 153 154 149 151 149 153 150 155 152 156 130 101  34   9  29  16  39  30  25  11   9  17  10   4  13   6  12  14   6   5  10  14   7  11   8   9   7   9  10  12  12   8   9  14  10  19  13   9  15  12   9   6  12  14   9   6   6   7   6   7   7   6  15  13  64 137 140 153 150 150 151 149 150 153 148 152 152 152 154 151 154 154 152
 153 152 151 151 153 151 152 150 150 148 153 149 152 152 145 154 153 151 144 136  69  22  33  30  35  35  16  10  12  18   2   2   4   6  12  17  17  19  13  12   7   8   7   9   8   9  10  10   8   3  13   9  13  12   4   5   6   9  11   5   4   6   4   4   3   1   2   5   2  12   6   4  12  24   6 104 146 151 150 154 151 148 151 153 152 154 152 151 153 151 153 153
 153 152 151 149 151 152 149 149 152 154 156 149 152 151 151 157 154 144 139  51  30  29  28  34  37  30  17  11   4   1   1   4   1   1   6   6  10  10   6   4   6  10  18  16  12  13  13  17  21  17   8  10   5  11   5   7   1   1   5   4   2   3   3   9   9   5   4  10   2   6   5   9   4  20   9  43  87  82 152 148 151 152 156 150 156 154 152 151 151 150 153 155
 151 154 151 156 151 153 155 153 150 154 156 150 156 154 153 151 136 113  91  26  31  30  39  26  47  21  11  10   3   4   1   1   0   2   0   1   5   4  16  15  16  15  12   1   5  11  12   3   4  11  12   8  13  11  10  13   7   9   4   1   3   2   1   0   5   5   1   6   1   2   4   9   2   6   8   7  52 120 142 134 157 156 153 153 155 151 155 148 153 151 150 149
 152 150 152 152 153 153 152 153 153 153 150 152 153 151 151 153 152 121  38  23  15  41  32  45  35  19  23  12  10   7   2   1   0   0   0   0   2  10  10  27  21  20  19  18  17  15  17  24  23  12  16  15  10  12  13  10  18  16   8   7   4   7   4   1   2   7   1   4   8   3   4   5   1  15   5  11   6  79 139 147 156 150 150 157 152 150 152 153 155 153 153 154
 153 153 152 149 152 151 150 156 153 153 150 151 156 145 143 143 105  54   9  20  20  29  35  28  23  18   6   6   5  10   6   1   0   1   4   5   8   7  12  16   9  12  17  18  19   8  19  12  11  15   8  13  11   9   6  13   5  21   2  33   4   2   1   3   6   0   2   1   2   3   4   7   1   2   7   9  16  37  79 138 139 156 153 152 152 154 156 154 149 157 150 153
 148 149 151 152 156 153 154 152 151 149 155 147 156 145 137 119  52  20  21  22  29  41  31  31  20   7   8   9  21   3   3   6   7   3   1   1   0   2   9   3   6   6  14  10  19  12  10  11   4   9  11   2   2  13   6  17  13   9  12  14  32   5  16   4   5  11   5   6   3   1   3   1   1   2   5   9   3  13  68 127 148 145 156 151 153 156 153 153 156 153 153 150
 157 151 153 152 150 152 152 151 150 148 152 154 156 162 152  89  29  10  13  19  43  22  15  29   4   5  10  24   3  11  19  14  20  10   5   4   5   3   2   4  12  14  12  12  24  15   5   8   5   7   9   9  12  10  24   3   4   9  17   4  27  14   2   5   9   5   3   2   7   7   1   6   4   7   7   7   9   2  29 117 135 155 151 153 152 155 153 153 154 153 151 157
 155 155 152 152 151 151 153 151 152 154 151 147 150 120  91  39  18   7   5  38  26  17  39  18  10  10  26  13  11  21  11  18  10  14  13  13  13  16   9   2   2   3  20  20   1  17  24   8  14   2   6   6   4   1   3  25  13   3   3  16   3  24   9   8   5   3   6   2   1   3   4   2   5   6   1   4   5   4   6 101 148 156 153 154 156 153 154 157 155 158 154 155
 148 152 155 151 151 153 153 149 156 153 152 156 148 108  13  42  10  10  27  31  18  29  35  17  14  17  19  12  14   5  14   6  10   9   6   9   9  19  18  10   9   2   3   3  20  12   8  12   3  10   4   3   3   5   2   4  21  24   3   3   7   4  10   8   5   5   3   4   3   0   1   3   4   3   8  10  11   2  16  10 128 155 160 151 153 156 151 154 155 151 157 152
 153 151 152 153 154 155 154 154 149 156 147 144 133 103  25  25  14   9  29  22  12  16  35  16   8  22  13  15  10  17   3  17  20  22  21   9   3   8  17  26  18  10   1   1   0   8  12  10  29  25  28  17   3   3   2   3   1   4  15   4   7   5  12   8   4   7   7   2   7   3   1   7   1   3   5   4   7   2   4   5  49 142 144 158 152 156 155 153 152 154 153 152
 151 155 153 152 155 150 151 156 160 156 154 151 134  48  30   5  15  25  17  15  21  24  30  11  19   9  29  14  16  10  15  25  15  15  27  20  17   3   4   7   8  12  19  12   3   6   2   9  12   6  13  22  24   5   6   7   6   5   5  12   9   5   2   7  13   3   7   8   2   5   4   2   3   4   2   6   7  11   7  14  12  71 146 148 154 153 155 154 150 161 158 155
 154 151 150 153 153 155 152 151 157 160 157 138  98  38  22  12  17  29  20  18  22  25   7  18  11  21  15  10  12  14  23  17  23  31  27  18  14   9  15   3   9   4   2  11  12   7  12  18   1  15   9  10  20  27  26  15  10   6   8   2  14   8   4   9  12  18   3   8   5   1   2   1   1   1   0   0   3  11   6   9  19  33  86 149 157 152 153 154 160 151 152 155
 154 158 155 153 152 159 145 151 149 157 156 142  93   6  20   9  15  23  18  26  20  10  12   8  20  29  15  16  19   7   8   7  19  23  21  21  30  16  12  12   8   6   5   3   1  10   9   2   8  17  16  16  10   4   7  18  16   8   4  10   3   9  12   6   6  18  21   6   3   3   1   2   1   5   4   3   1   4   8   5   7  21  77 141 146 153 153 152 151 155 153 152
 152 153 152 153 152 155 152 154 153 152 153 145  80   6  19   8  23  22  11  28  19  16  12  17  26  17   9  20   7  13  23  25  22  14  22  19   8   5   9   4   7  11   5   6   4   3   4   7   4   9  10  14  12  15  15  14  17  13   9  10  10   3   9  11   7   8  14  22  10   9   8   4   4   2   1   3   5   6  11   8   8   5  56 122 149 151 152 153 156 153 157 155
 156 151 153 155 153 153 153 153 152 148 145 110  36   5  13  15  13  20  18  30  18  13  14  22  30  15  10  10   4   6  17  11  17  26  26  31  42  29  25  34  24  28  23  17   6   5   4   8   6  11   8  17  15  17  17  19  19  19  22  14  19  10   7  13  17  10  10  11  20  10   3   3   4   2   1   0   1   1   7   4   4   9  83 142 152 155 154 153 156 152 154 153
 158 161 154 151 154 156 149 153 155 155 142  69  11  15  12  17  18  14  14  17  14  13  17  19  19  13  16   6  14  10  12  18  23  25  23  26  18  26  34  30  36  29  31  22  17   8   7   8   8  10  19  20  27  33  34  39  38  37  32  31  28  29  22  10  17  19  11  14  16  21  11  10   8   5   2   5   4   1   8   1   2  17  68 155 148 157 153 153 151 152 157 157
 151 156 151 156 153 148 157 151 152 154 147  69   7  14  11  12  13  22  14  12   9  18  19  16  12   9  16   7   5  13  18  21  15  12  19  19  25  31  35  23  24  24  25  27  25  27  23  21  24  27  37  49  44  49  46  42  50  45  42  45  40  41  36  27  24  31  22  16  15  25  11  10   5   7   8   1   1   1   1   6   9  10  12  88 153 155 158 151 156 151 149 154
 156 152 153 154 152 160 151 150 153 160 121  31  16  14   8  12  17  13  12   7  29  11  11   7  20   8   7  16  27  29  29  15  19  21  25  30  30  28  28  39  39  40  34  35  38  35  33  39  40  51  57  61  58  63  61  64  60  56  58  54  56  47  39  40  38  38  37  34  32  27  25  15  14   4   5   5   1   0   0   0   7   4  15 125 152 148 153 154 150 152 157 156
 149 150 154 157 153 152 156 156 155 154 103  11  22  11  11  12  17  20  15  18  18  14  12  15  15   8  19  37  38  33  26  32  36  36  40  38  38  46  44  43  43  43  46  52  50  52  53  56  66  72  75  82  84  73  77  75  74  68  68  63  66  55  57  58  53  48  46  46  47  41  29  27  23  10   4   5   6   3   0   2   3   8   6  51 162 158 156 152 152 155 153 157
 150 155 153 149 153 154 151 151 148 156 136  29  13  15  22  16  15  18  12  20  14  11  20   6  11  12  40  39  41  38  39  41  46  50  46  46  42  47  54  52  55  60  59  59  64  63  73  79  86  93  98  91  93  92  91  90  87  81  80  75  72  73  71  70  73  71  64  63  58  53  46  39  30  24   9   4   5   5   1   3   5   0  12  30 137 150 145 156 155 152 159 150
 155 155 155 153 152 151 155 155 147 158 126  25  14  12  15   8  14  11  16  12  11  15  17  15  11  35  53  50  41  47  53  54  56  58  58  62  60  63  63  66  70  68  76  81  81  86  92  98  98 104 103 102 101  99  95  96  94  91  92  89  87  92  88  83  77  77  78  72  69  60  61  53  46  35  16   4   2   1   2   4   4   2  13  21 116 151 149 150 152 151 151 153
 154 152 153 154 158 158 157 154 163 147  65  22   7  11  16   4  19  13  14  13   9  17  22  35   8  54  61  58  54  65  72  72  74  77  72  78  77  86  86  89  88  87  90 104 104 106 105 108 109 117 117 116 109 109 111 108 106 106 106  98 103 101 101 102  98  97 100  92  85  83  74  66  61  54  32   7   3   4   7   1   1   7  12  12  82 150 147 150 153 153 155 149
 155 156 155 155 152 151 149 156 146 159 101  13  19  11  16  13  25  15  11  15  24  25  32  39  29  73  69  67  74  85  88 100  98 101  98  96  95  97  99  98 102 106 108 108 118 113 109 115 124 128 122 123 121 120 118 118 115 110 108 111 114 112 115 114 109 108 106 102 104  96  93  85  71  66  42  17   6   5   4   5   7   1   9  10  62 163 159 146 155 155 154 156
 159 155 154 156 156 155 152 154 154 144  87  16  27  15  18  12  21  14  14  22  24  36  40  56  60  86  73  80  95 101 100 110 108 110 113 113 110 110 112 111 115 121 116 122 120 126 126 123 128 127 130 129 123 122 127 126 121 120 115 120 122 118 120 121 119 114 115 113 110 107 105 101  92  78  55  25   9   7   2   6   7   3   1   9  32 130 148 152 154 155 154 151
 153 154 153 154 155 151 152 152 155 153  40  18  18  13  22  17  15   5  20  20  30  40  57  66  79 100  90  95 102 113 114 114 119 122 122 125 129 125 122 122 127 125 124 128 125 124 123 129 133 131 133 133 132 131 130 130 128 120 127 124 122 130 128 125 125 117 115 120 114 111 109 107 101  87  66  40  20  10   3   6   7   4   1   9  27 139 154 150 151 153 150 155
 152 154 159 152 152 155 158 158 156 149  78  28  22  20  12  21  21  10  21  28  38  44  70  77 103 101  97 113 120 119 115 124 123 125 128 130 131 124 133 130 133 139 136 137 132 132 132 124 126 124 128 130 128 130 128 126 129 118 130 131 134 133 128 128 126 124 117 119 118 114 119 108 107  98  71  42  22  17   3  11   5   7   6   7  24 124 150 150 153 155 153 153
 158 151 150 152 147 155 162 155 153 162  92  29  25  28  22  26  22   8  15  31  46  65  87  95 108 104 108 116 122 115 126 130 132 131 129 145 138 139 131 139 140 143 137 132 133 134 139 132 136 139 141 138 137 139 138 137 140 128 131 127 126 126 123 122 117 118 118 122 119 117 115 111 108  98  81  58  34  20   9   7   9   4   7   8  13  99 158 153 153 151 157 150
 156 151 152 150 151 153 153 153 158 149  96  30  32  22  27  28  24  16  21  37  55  74 104 100 111 108 117 127 124 124 133 131 138 136 135 135 134 145 138 145 143 140 144 138 140 134 132 128 130 134 132 131 129 130 132 134 133 133 128 128 129 131 125 126 121 121 119 114 122 114 115 113 107  95  97  72  40  26  20   9   9   7   8   6  39 129 150 153 156 153 153 154
 155 158 151 159 155 155 149 155 157 158 105  51  32  44  31  32  28  29  25  43  69  92 109 109 117 116 126 127 129 122 128 126 127 123 127 127 132 127 128 138 136 140 144 143 135 141 134 134 133 131 132 133 133 130 128 130 131 129 127 127 127 128 120 121 121 118 115 115 115 116 111 108 108 102  97  85  53  32  26  14  15  10  15   7  18  93 154 157 147 154 156 150
 152 153 155 158 157 158 158 149 157 161  93  56  40  41  41  34  29  34  47  54  82 106 110 123 118 127 127 128 128 135 139 138 137 150 138 145 142 147 149 151 143 138 133 136 132 133 135 136 137 130 129 130 128 133 129 132 121 129 125 121 122 129 125 120 118 119 115 119 116 114 113 109 106 104  99  89  64  40  25   9  13  13  12  22  34 116 152 148 154 155 154 155
 158 155 152 157 158 152 147 158 156 158  93  65  54  43  41  42  35  42  56  63  91 117 117 125 120 126 128 130 131 133 133 135 136 145 140 144 149 145 151 140 141 148 153 140 134 129 135 133 132 128 130 130 133 133 129 130 129 127 125 121 127 127 127 123 122 113 118 113 115 116 111 109 109 103  95  94  78  44  32  19  12  13  14  19  52 137 163 156 151 157 149 155
 153 158 157 156 153 157 161 156 152 155 139  66  67  60  45  43  33  48  64  90 108 119 115 124 122 126 130 122 125 128 129 133 136 141 145 140 146 148 148 147 146 142 139 140 137 133 132 132 127 132 133 131 132 133 132 127 129 127 120 132 128 125 122 122 119 115 115 111 114 108 106 109 105 102 102  95  72  53  44  28  19  17  23  33  63 124 148 153 150 157 152 154
 158 153 153 156 154 156 153 155 154 159 133  67  62  54  49  42  42  59  76 100 109 118 121 122 127 127 125 128 129 131 130 135 137 140 143 152 149 145 153 151 150 142 138 134 137 131 133 131 130 133 133 132 134 135 136 134 132 134 138 136 132 134 125 121 119 119 119 114 110 109 108 111 107 103 104  96  76  61  50  36  27  19  18  33  78 144 157 150 153 154 150 150
 156 158 152 154 158 152 153 157 159 150 143  81  59  63  55  46  51  55  85 109 111 117 121 127 129 125 124 128 133 125 137 137 140 142 139 140 142 147 143 147 150 145 134 142 137 138 133 129 125 123 121 122 131 132 138 134 136 138 137 132 136 132 132 125 119 116 120 114 111 107 107 110 105 101  99  95  73  64  55  54  33  22  27  36  91 140 155 153 154 151 154 150
 159 151 157 161 150 161 156 157 150 158 130  79  60  66  44  55  43  67  91 106 119 121 124 127 132 131 127 129 132 130 140 133 135 140 143 144 155 153 155 135 143 147 140 144 133 130 123 132 129 123 127 132 134 130 136 133 128 128 131 130 128 134 125 121 123 116 112 110 112 110 110 110 105 102 105  95  70  51  63  67  58  27  37  44 117 149 152 151 154 150 150 153
 156 158 156 155 153 157 152 155 156 150 157  82  56  66  55  52  56  70  96 114 119 120 123 120 127 126 127 130 130 133 132 133 138 143 146 143 157 152 151 157 155 144 141 143 133 139 133 127 129 129 136 134 133 137 138 138 135 131 136 132 129 126 120 115 114 114 111 112 111 107 109 110 104 102  99  91  81  50  57  66  54  31  50  60 129 148 149 153 150 154 155 154
 156 157 156 154 154 156 157 155 153 155 148 104  66  65  53  39  43  74 107 116 115 121 120 118 131 130 133 131 137 136 136 136 136 140 141 147 148 149 153 154 146 149 145 148 136 124 133 128 127 136 131 142 141 144 146 136 136 133 137 126 127 126 123 118 120 115 112 115 115 113 109 108 106 105 103  96  80  56  57  44  64  43  38  84 148 155 155 152 151 152 149 160
 155 158 149 156 153 151 151 154 152 156 158  94  62  61  40  41  49  85 113 117 122 122 123 127 129 127 133 133 133 130 132 137 139 138 147 146 140 143 144 148 147 144 147 138 138 138 129 129 135 139 142 140 139 145 135 135 132 135 135 126 124 122 117 125 123 113 118 120 114 116 114 108 108 103  98  95  82  60  44  43  51  40  58  92 149 151 154 152 154 150 157 150
 164 160 155 154 156 159 153 156 154 156 152 110  55  56  50  49  40  90 118 119 115 120 120 124 130 132 132 127 130 132 135 139 141 138 140 139 142 143 137 146 134 138 135 135 135 130 129 132 135 134 135 135 141 140 139 141 137 133 129 127 126 124 119 125 125 112 117 125 118 121 119 110 108 103  99  93  84  62  47  46  52  41  54 118 149 153 153 152 158 151 153 153
 157 155 155 157 158 154 158 158 162 156 153 129  69  46  46  54  43  94 113 116 119 122 124 121 129 130 139 138 133 132 135 133 133 132 134 133 136 136 133 135 134 129 125 129 126 123 128 124 130 142 138 132 132 133 128 123 123 128 125 126 123 119 117 120 121 122 119 123 127 123 118 113 110 105  98  94  90  53  36  42  46  45  66 114 153 149 154 152 152 153 153 151
 156 160 158 154 155 157 158 151 154 156 159 124  59  52  62  48  46  90 120 120 118 116 118 133 126 133 136 129 131 132 133 129 125 128 126 127 126 122 133 125 127 132 129 132 124 117 116 117 119 125 121 124 125 124 127 123 123 119 118 124 120 116 116 122 118 121 123 120 122 122 125 115 110 105 100  96  91  43  32  35  45  45  82 155 157 157 158 153 152 156 154 153
 155 155 156 153 152 154 153 156 154 151 141  80  63  59  59  64  45  95 122 126 116 119 125 124 128 114 104 109 102 109 106 112 119 115 112 116 119 125 121 122 121 125 123 121 123 116 120 109 114 118 119 123 123 116 118 123 121 119 114 116 117 112 108 113 115 118 119 117 117 117 118 115 109 106  96  97  93  44  31  47  53  45  74 144 151 151 157 154 157 156 153 155
 155 157 154 156 155 154 156 153 161 150 135 101  65  67  65  58  54  94 124 126 116 124 115 113  97  91  93  80 105  93  97  84  98  87  94 100 114 117 115 115 119 123 119 114 120 117 116 104 103 112 116 116 116 113 118 112 113 112 111 109 106 104 101 100 103 104 105 106 109 118 106 118 110 100 101  99  89  37  34  40  47  60  92 153 154 154 152 153 154 151 150 154
 159 155 155 157 156 153 153 162 153 156 117 139  94  76  68  64  54 101 121 128 111  98  74  83  63  60  62  64  63  63  38  54  48  46  51  68  79  88  99  99 107 109 115 117 115 117 113 104 112 108 114 112 114 113 107 108 108 108 104  99  96  87  83  78  69  78  85  80  93  92 109  91 106 103  97  95  85  40  44  41  43  61 118 159 151 156 152 155 155 154 157 155
 156 157 158 160 158 155 156 155 153 172 118 119 104  89  67  64  56 106 121 123 119  92  72  69  59  40  51  57  47  22  26  12  23  27  28  39  51  57  73  75  88  93 108 105 118 114 111 107 103 108 114 105 105  99  95  98  88  84  79  71  67  59  47  44  46  62  50  45  54  49  72  73  73  89  95  95  81  32  55  48  49  66  83 154 154 153 151 150 155 156 155 153
 156 154 154 154 152 150 152 157 155 156 162  69 119 111  83  72  57 106 125 116  88  87  86  62  65  82  65  68  67  76  70  72  53  50  48  33  34  41  55  62  61  82  86 101 106 110 109 106 107 112 111 103 104  84  80  81  65  59  51  45  45  32  19  18  30  30  40  48  64  54  42  61  64  71  81 106  78  35  52  45  50  52  89 153 155 155 152 156 157 155 155 155
 150 156 156 154 153 155 156 156 157 156 155 131  58  97  95  76  58  98 123 113 113  92  89  85  86  85  90  87  95  86  87  75  71  60  60  61  69  68  58  77  65  77  85  95 108 108 114 105 107 109 109 104  96  84  72  67  59  52  46  33  30  35  50  58  64  65  68  51  54  50  37  42  55  58  84 102  68  31  60  32  61  62 113 132 154 149 154 154 157 154 155 152
 157 152 153 157 156 155 155 159 163 156 156 151  46 106  95  64  55 104 129 125 116 107  96  91  93  95  91  61  37  28   8   5   3   7  11  24  25  28  69  68  79  83  89 100 107 109 117 109 109 108 104 100  85  78  74  69  67  74  55  49  51  40  40  46  49  70  68  72  73  73  69  78  71  77  95 102  67  35  43  56  60  82 103 151 153 152 153 155 153 156 154 153
 156 157 157 154 155 158 161 154 158 156 157 159  89  80  95  81  58 126 128 125 114 108 106 105 107  90  26  33  11  52  14  23  14   0   9   2  24  34  29  60  70  85  92  99 117 124 118 120 119 112 105  96  92  81  73  65  47  15  23  13  17   1   6  12  17  24  36  41  77  81  78  76  72  81  98 105  61  39  49  53  61 103 159 158 153 158 157 153 157 156 155 153
 157 152 155 154 154 157 159 154 155 151 155 162 115  96  90  75  59 125 131 124 119 119 103 110 102  81  48  32  34 102  44  20   3   1  32  13  59  12  46  42  55  74  93 109 121 146 136 131 120 113 110  96  87  69  62  34  25  22  29   1  17   0   3   4  18  39  21  31  39  85  84  81  78  83  94 105  60  43  39  66  84 158 148 153 154 155 156 155 154 153 156 157
 156 154 156 153 157 156 151 157 156 157 156 164 123 111  90  64  75 137 133 131 123 123 118  95  80  85  93  79  82  78  79   8  33  44   9  43  45  15  12  39  66  75  94 116 135 151 148 140 125 117 102  89  67  60  42  27   7  13  53  17  10  23  32  34  44  42   8  11  25  60  84  91  84  90  99 111  61  57  57  67 147 153 155 153 158 152 157 150 155 152 150 154
 157 158 155 150 155 157 152 157 155 155 154 155 147 118  95  79  82 133 136 131 126 123 114 111 108 130 131 122 101 108 101 117  93  92  81  78  64  47  48  25  83  85  97 127 142 155 152 141 134 124 102  78  68  44  56  12  22  38  49  64  26  25  20  23  62  61  56  52  48  57  75  87  87  87  98 109  59  60  64 106 161 151 156 148 156 150 152 152 157 158 155 152
 153 153 152 155 152 155 151 156 159 154 155 152 153 125  91  79 101 132 134 133 134 133 127 131 135 119 124 127 128 128 119 104  84  84  82  82  84  81  92 112 105 102 101 132 147 159 157 142 140 119  98  76  63  83  71  68  82  86  79  75  77  83 100  75  72  82  85  86  86  72  71  92 101 100 100 107  67  50  77 166 155 153 150 155 155 153 152 154 153 153 150 152
 158 153 155 152 156 155 158 157 153 156 155 160 161 130  80 119  90 128 130 135 133 131 136 120 116 130 127 124 119 116 121 112 102 110 106  96  92  75  89  88 105 115 115 131 149 166 163 147 145 115  95  85  82  89  77  82  77  73  80  93  82  85  96 100 110 100 101  93 102 102  98 100 101 101 107 109  71  66 116 158 154 154 154 151 153 148 151 148 152 154 150 150
 156 153 158 153 157 155 152 154 155 157 149 154 155 129 103 155 114 131 133 134 134 134 132 137 136 121 106 106  97  97  98  93 100  89  83  73  71  84  98 119 115 121 124 130 151 156 154 148 136 115 100  95  96  93  94  85  87  79  73  71  89  99  93  96  97  92  92 107 102  97 104 109 107 103 105 107  89  74 147 155 152 155 155 154 155 155 156 154 152 152 153 154
 158 158 158 156 156 155 152 153 158 155 156 154 161 124 138 137 128 126 135 133 138 135 137 133 123 121 138 132 135 118  99  91  89  84  80 107 113 128 123 120 134 123 129 138 145 163 151 149 142 123  95 102 106 105 102 100  97  93  86  79  71  70  68  78  80  86  98  92 103 106 111 111 112 108 105 111  89  78 155 147 153 152 154 154 150 154 150 150 153 151 155 153
 157 159 154 157 155 156 154 157 150 152 154 158 156 121 140 134 123 124 132 134 139 137 137 142 147 145 145 143 138 139 148 137 134 129 131 131 136 137 134 132 129 133 124 127 144 161 147 151 141 112 103 107 115 109 121 103 115 107 100 100 107 102 101 102 107 109 107 112 110 109 112 110 111 105  97 116  97  68 160 150 154 152 154 154 150 154 157 150 155 151 150 153
 154 158 151 154 154 154 153 152 155 159 150 157 157 134 148 125 127 128 133 128 138 141 137 143 140 143 143 145 153 153 143 148 144 146 147 142 140 144 137 125 129 126 130 127 151 162 155 150 146 108 102 108 115 117 124 129 121 119 116 113 112 114 119 117 120 117 122 116 111 116 112 113 113 109 103 109 100  84 165 156 150 155 156 155 151 152 152 152 155 155 150 156
 153 151 152 156 155 153 161 156 156 150 157 156 156 147 139 149 127 124 131 136 137 138 135 140 139 144 144 154 152 154 151 153 154 148 156 149 152 140 132 133 135 134 126 134 145 158 154 154 139 119 108 111 115 119 123 120 120 130 131 122 115 128 128 133 129 126 123 121 119 119 119 113 111 105 100 111  99 124 160 153 151 159 154 153 153 155 152 155 153 154 155 154
 160 156 160 158 155 154 154 156 154 154 157 153 157 162 127 132 124 125 127 134 135 137 138 139 139 144 147 154 154 152 150 154 156 157 157 153 145 132 131 134 135 129 125 135 139 166 162 149 135 116 112 111 114 116 127 122 124 129 132 136 140 131 130 138 137 131 133 125 124 116 110 113 113 105 104 106 102 159 154 153 149 153 152 150 152 151 151 151 151 153 153 150
 150 155 156 154 152 160 160 160 151 160 150 158 151 153 138 135 117 119 131 135 135 128 139 136 135 142 139 151 153 154 157 154 154 150 152 146 144 132 134 135 132 133 132 132 138 157 154 152 140 125 124 113 112 123 120 121 125 129 131 131 132 134 134 134 135 135 133 132 122 113 108 105 107 104 103 106 102 150 155 152 153 153 156 149 153 153 153 154 153 151 154 150
 153 159 155 155 154 149 158 156 153 155 154 154 155 163 130 139 133 121 128 131 133 133 132 139 143 141 138 149 145 156 150 155 153 151 146 142 146 136 130 135 133 129 136 139 145 159 157 145 139 126 121 118 117 117 126 127 123 131 135 135 139 128 137 137 138 130 124 120 120 111 106 101 107 105 102 109 112 162 152 155 154 153 153 152 151 153 151 150 154 152 152 152
 159 153 151 157 156 155 152 152 157 156 155 158 156 156 142 125 127 123 125 126 130 128 132 133 133 141 142 153 153 151 150 148 147 141 142 137 139 131 130 136 129 134 137 137 148 169 161 158 144 132 129 118 111 110 121 123 118 128 132 132 137 144 132 137 141 129 127 114 112 111 114 103 102  95  99 109 106 155 153 146 146 155 150 153 150 155 152 154 151 150 152 155
 161 151 158 151 153 154 155 153 156 157 150 155 156 156 158 118  94 122 119 128 121 129 130 135 139 137 141 146 149 149 151 144 145 139 140 135 132 128 122 117 128 133 136 138 154 168 160 154 145 142 133 122 116 106 108 119 108 126 127 132 128 136 135 139 135 126 125 126 116 111 106 101  97  96 101 109 108 155 153 156 151 153 156 154 153 157 156 155 154 153 151 152
 155 155 152 156 152 153 155 154 155 158 154 155 158 160 147 167 149 118 118 123 122 125 129 133 133 137 134 135 136 145 139 137 141 135 134 125 120 118 122 119 126 137 134 138 154 158 161 155 134 144 139 127 112 100 105 105 113 123 123 123 129 133 135 138 132 130 121 118 111 112 105  98  92  98 103  94 135 151 151 151 154 151 150 152 153 153 153 149 155 152 148 154
 152 151 156 153 155 156 158 152 153 157 157 155 154 153 158 152 156 115 121 115 122 127 129 129 132 130 132 140 136 134 132 131 133 130 126 120 115 115 124 134 133 142 141 153 144 160 162 144 140 140 143 133 124 124 117  98 105 112 115 122 125 124 125 128 123 125 117 116 111 104  99  93  99  72 101  96 156 153 149 154 153 152 154 157 146 153 153 153 149 154 149 153
 158 155 154 151 153 152 154 153 154 153 156 156 153 157 159 153 156 114 118 112 118 123 126 128 132 126 127 129 133 130 131 122 124 118 112 115 116 112 139 140 136 142 143 146 152 159 149 150 143 140 143 133 127 126 121  96 101 107 112 113 118 124 125 123 119 119 117 110 110 110 100  95  95  98 101 166 158 150 155 152 151 149 150 151 147 153 154 154 152 153 156 153
 158 160 156 154 158 155 160 155 158 156 153 154 155 154 153 150 159 120 120 114 114 120 115 118 123 121 127 126 128 124 119 117 114 112 110 108 120 110 143 144 131 138 144 149 155 162 151 142 140 143 136 125 113 117 126  92  90  98 108 117 114 117 119 121 116 113 109 108 108 104  96  93  89  85 102 166 154 154 154 144 152 152 155 148 153 155 152 150 150 153 152 153
 156 157 155 155 152 158 158 156 152 157 152 153 157 158 154 152 157 121 120 112 106 118 117 122 112 122 116 122 122 121 116 109 108 103 108 111 122 110 138 146 124 121 123 135 149 149 140 134 131 125 115 112 103 109 116  77 103 104  98 101 104 113 113 116 111 115 111 113 104 100  93  96  91  83 106 140 147 159 154 154 153 153 154 150 155 148 149 155 153 150 155 153
 157 154 157 158 154 153 153 155 156 153 152 157 156 154 156 158 160 126 122 108 104 103 108 114 111 118 110 113 117 110 110 107 104 107 112 119 122 111 124 125 119  98 101 117 122 130 124 119 123 114  98  88  97 105 104  74  96 104 103 103 104 109 112 120 109 104 103 103 100  94  83  89  85  90  80  53  46  52 123 170 152 148 153 149 156 149 154 154 149 153 149 151
 158 153 155 157 158 155 158 157 155 161 154 156 159 155 159 161 158 132 112 117 115  98  98 109 112 107 111 109 107 103 106  99  99 109 120 128 129 124 105 104  94  70  63  93 109 117 111 115 109 103  74  63  92  98  87  95 104 105 102 101 101 105 108 106 113 109 108 105  98  97  89  91  88  99  58  52  50  52  63 105 125 142 159 157 160 147 159 152 160 153 150 155
 157 153 158 157 161 156 154 153 156 155 151 159 155 157 156 155 154 141 113 115 115 109  98 104 102 107 102 103 103 105 100 110 116 125 127 130 132 120 113  62  45  51  54  53  81  95  91  89  90  56  25  28  46  67  91 104 110 111 101 103 104 102  99 105 107 104 107 100  97  88  86  85  89  97  39  41  49  37  53  72  82  87  92 103 113 116 120  93  94 123 148 158
 158 154 150 156 157 159 154 156 156 151 160 150 153 157 158 168 170 129 120 116 116 111 103 104 107 108 109 105 106 105 113 122 121 128 130 135 130 113 104  94  66  56  66  74  82  84  83  82  75  48  38  38  45  78  90 101 106 109 110 103 109 103 104 105 104  99 100  95  97  86  77  81  92  91  33  38  42  28  42  41  43  51  69  91  90  74  42  27  42  41  48  67
 157 153 156 155 159 157 158 157 156 156 155 164 156 146 127  91  75  66 126 112 115 117 108 106 108 105 113 112 107 105 113 114 130 130 135 128 117 115 106  84  82  62  74  71  79  82  82  75  59  48  47  50  65  74  86 103 109 104 111 114 111 105 107 104 101  97  99  92  90  79  77  89  96  81  29  36  34  29  45  38  40  34  43  52  64  43  44  43  56  60  49  51
 155 154 153 159 157 160 152 160 164 130  68  53  34  44  52  70  82  56 122 113 112 118 111 110 112 108 110 108 112 118 108 112 119 115 109 111  99  97  99  91  64  69  74  60  62  65  70  66  66  50  49  57  77  86  93  91 102 108 113 116 111 113 112 108 101 101  95  90  85  83  84  87  81  63  43  35  37  30  44  47  26  36  42  37  43  45  41  48  56  46  42  45
 155 160 157 149 160 158 142  83  39  60  61  43  44  55  86  69  70  22 116 112 112 113 112 111 116 109 103 113 119  94 101  87  83 104 115  93  96 108 103  91  88  74  76  70  68  75  71  73  61  52  44  68  73  78  92  89 105 104 112 108 105 109 112 100  98  98  95  89  83  82  90  89  97  30  51  29  35  32  38  47  32  31  49  35  39  45  40  50  42  46  45  47
 155 157 156 166 153  76  38  49  62  67  48  43  70  87  49  63  11  76  87 111 110 112 112 114 117 115 116 107 108  76  68  70  81  87  89  98  76 106  89  90  92  69  72  76  72  82  89  80  69  62  59  75  68  77  78  91  81  88  84  93 102  93 105 108 105  99  98  90  86  82  84  86  88   5  50  25  29  38  40  48  32  36  39  45  47  45  44  55  43  44  48  60
 159 151 166 122  60  56  50  48  66  68  49  43  74  52  63  47  27  82  59 115 111 110 117 111 115 119 117 109  89  76  65  77  78  91  85  96  91  99 108  89  99  78  88  89  84  86  89  86  84  77  75  82  74  80  96  91  75  74  82  66  93  86  89 103  99  93  89  89  87  85  87  85  67   4  41  36  23  31  34  49  38  37  37  39  45  50  42  63  47  57  46  50
 155 164  89  48  49  60  45  56  67  54  49  57  60  75  84  25  66  51  32 101 109 109 110 116 113 118 121 107 101 106  79  83  91  97 108 104 110 116 120  97 111  92 100  98  85  97 104  97 103  96  82  85  82  89  97  89  76  72  74  68  60  76 102  88  97  94  88  89  84  82  79  88  29   6  39  32  36  20  34  51  37  36  36  37  43  42  43  39  45  49  51  61
 143  75  42  41  44  40  42  39  59  72  46  59  79  57  68  37  72  55  36 117 103 110 110 110 108 118 125 110  86  86  90  79  76 104 117 108 109 118 118 114 112 110 123 114 109 112 106 121 115 108 110 110  99 103  96  88  88  79  72  71  59  71  82  73  95  96  88  80  85  81  79  80  15   9  33  30  37  36  43  46  35  39  30  32  36  33  46  44  52  49  57  53
  52  38  37  35  34  39  49  68  58  75  41  37  68  61  58  40  69  45  30 143  95 101  99 120 106 111 122 113 100  97  93  81  81  35  76  95 108 115 116 107 120  99  98 110 114 123 115 115 119 109 106 104 111 112 101  93  88  86  79  77  67  63  69  72  88  92  82  83  84  79  84  52  11  13  27  38  19  35  33  51  28  40  34  40  52  46  60  36  52  46  43  48
  38  36  36  34  48  53  80  52  40  63  48  41  57  65  52  77  64  41  76 138  91 102 109 106 110 104 117 119 110 102 103 102 102 104  98  69  35  28  34  37  49  59  75  79  74  83  91  81  76  70  73  66  74  82  90 102  94  82  69  76  73  73  72  68  95  93  85  84  79  80  73  21  13   6   5  17  27  26  38  42  39  30  35  42  46  44  45  58  59  54  52  40
  43  39  27  46  56  67  58  50  54  60  60  50  52  76  12  84  68  28  76 133 112  83  97 103 108 102 111 115 111 108 106 110 121 123 117 111 110  89  84  86  81  41  14  16  21  34  27  32  25  20  16  16  23  18  18  19  22  25  28  63  71  66  70  68  89  89  82  80  77  84  51  14  32  17  44  40  34  39  68  70  57  21  35  36  71  60  82  71  90  82  75  36
  40  41  45  43  69  30  39  45  40  51  70  44  66  81  18  50  58  37  85 125 116  98  91 109  96 106 103 111 113 106 107 109 125 117 124 121 127 122 104 105 107 137 128 110  83  71  59  70  71  85  92  82  65  53  61  68  61  70  67  67  73  74  76  83  90  84  78  84  81  68  24  37  39  22  17  19  10   9   5  55  93  40  41  23  36  45  35  33  46  45  52  53
  46  44  54  53  63  59  46  46  45  67  57  59  73  81   4  57  63  43  78 123 114 119  82 100 106  97 106 107 107 109 108 111 131 129 125 123 127 125 129 114 102  92 100  98 106 109 112 110 114  96  84  76  76  85  93  85  92  97  92  94  87  90  91  92  80  79  83  80  83  31  11   5   5   1   8  28  27  33  54  49  18   1   8   0  17  32  48  44  65  53  37  30
  42  40  54  61  56  50  46  56  47  46  57  51  75  69  21  59  58  46  69 117 115 121 112  85  99  85 104 103 111 107 112 118 122 126 131 121 117 119 122 113 118 107  89  91  99  95 100  96 101  89  93  94 101 104  94  81 103 101 103 100  96  90  90  88  80  82  79  77  46  41  27   3  16  12  14  11  34  24  33  50  24  17  19  18  30  35  36  47  33  36  38  40
  53  46  57  55  56  48  44  61  46  41  47  47  86  68  20  37  46  43  70 116 112 115 114 100  94  95 101 110 110 111 113 114 115 119 121 115 116 109 112 108  99 102 104 104 103 103 103  97  98 101 103  99  96  97  95 101 106 110 100  91 101  97  87  82  85  85  80  58   6  15  44  34   6   8  12  17  25  32  26  40  28  34  34  27  37  32  32  36  51  40  44  48
  44  49  57  52  55  33  47  44  51  47  55  49  93  83  32  40  52  41  59 117 120 114 107 111  94  91 102 100 103 116 106 111 115 119 114 112 109 101 106 106 106 101  99  96  92  89  88  85  90  86  94 103  99  97  99 106 107 102 102 103 104  97  84  89  78  79  62  40   6  21  10  21   7   6   5   7  28  32  33  56  33  35  37  19  29  34  33  30  50  42  34  43
  44  46  47  58  57  42  45  46  53  45  51  49  91  59  33  49  56  39  50 111 110 109 110 107 107  77  97  99 109  90 105 110 107 113 111 111 108 101 102 106  86  82  86  81  84  72  82  90  75  77  89  90  91 100  98  98 111  96  92  93  89  78  81  86  82  62  33  36  30  19  10  15  15  11   4  16  34  30  37  38  30  33  36  34  28  26  27  31  40  35  37  36
  39  47  43  49  53  33  34  35  48  73  54  48  66  46  37  50  46  30  62 116 117 109 109 108 103 101  83  94  96 110  88 112 111 122 119 114 118 110 108 100 107 102  90  91  86  80  90  89  86  89  94  92  94  92  96 100 103 102  96 103  89  86  81  88  60   4  46  28  48  29  24  29  28  22  16  15  23  37  35  20  17  36  22  37  36  31  28  29  39  39  45  39
  42  41  41  41  43  45  39  43  45  58  43  73  30  86  36  71  50  29  60 111 110 109 106 106 103 100  92  81  93  90 103 105 115 117 119 119 121 116 113 108 102  97  96  89  78  72  84  75  91  98 104 100  96  98 106  95  98 101  89  92  85  76  83  56   3  10  34  36  59  13   8  20  37  24  14  23  19  25  34  40   0   9  21  21  31  37  34  48  50  38  40  37
  39  39  44  51  37  43  28  36  39  43  48  87  74  35  49  52  50  33  53 102 112 110 105 105  99  94  97  83  79  86  67  83  97 118 124 119 129 129 127 123 128 121 106  97  89  81  83  79  96 106 104 106 103 105  98 100  95 109  92  89  79  71  75  13   6   6  34  37  64  19  10   1  15  22  10   9  14  16  30  41  10   6  10  24  24  38  42  37  35  58  39  32
  38  39  54  54  42  42  35  39  31  16  37  61  61  20  14  34  51  36  54 105 113 110 107 104 100 101  95  95  82  65  78  85  94 106 118 124 131 137 138 136 129 133 124 119 109 113 115 105 104 110 112 114 110 107 107 110  98  92  87  80  60  63  73  56   4   8  28  41  73  34  24   7   3   4   6  10   9   5  27  44  10   7   7   4  14  28  32  35  44  37  47  34
  37  33  40  46  37  48  60  21   0  63  45  47   9   5  32  30  65  40  50 106 107 113 107 101 100  98  89  98  94  69  69  70  87 106 118 122 137 138 136 138 135 126 121 130 115 122 119 119 117 116 122 115 116 114 112 110  85  85  94  51  54  71  76  76   8  10  26  41  67  33  30  21   0   5   6   6   9   6  12  59  17   1   4   6   9  12  22  19  30  43  34  36
  36  35  30  44  60  40  61  68  63  52  48   6  20  31  44  28  72  42  25 107 108 109 102 100 102 101  90  90  90  94  71  52  89 100 100 122 128 134 134 130 132 128 122 121 127 110 111 114 118 111 121 119 110 114 107 102  83  79  79  41  76  68  78  71   5   9  14  38  41  43  23  26  20   5   1   8   3   2   7  55  28  18   9   7  11  13  28  25  27  19  27  26
  49  42  53  27  61  71  54  69  29   8   3  28  37  50  51  26  54  44   0 113 101 107 102 103 100  99  94  91  95  87  95  45  47  76 100 108 111 116 122 124 124 116 111 109 110 115 116 114 111 109 114 118 107 111 105  92  76  59  46  61  74  66  82  80   0   6  13  35  37  57  27  29  27   8   6   8   7   6  12  45  23  10   6   9   6  22  18  20  29  25  21  16
  49  50  29  68  80  55  27  15  25  41  37  38  48  57  46  48  38  46   3 119 102 102 103 105 105  99 100  93  89  94  87  91  63  56  78  90 102 110 115 115 115 112 114 110 105 111 104 109 109 108 108 108  99  88  90  72  63  44  62  74  71  67  85  85   2  12  10  35  22  57  34  25  21  19  12   6   2   2  11  41  34  11   5  13  18   5  13  17  17  29  23  18
  13  73  95  57  91   1  46  56  40  35  26  30  41  47  34  38  60  59  25 104 104 111 105 107 104 101  98  94  92  90  90  86  78  60  52  81  92  97  95 105 102 104 105 106 104  97 106 105 104 103 102  94 101  79  71  65  51  58  80  68  77  63  83  87   6  14  14  29   9  32  48  17  27  17  13   8   7   6   8  38  29  17   7   5  12  10  15  11  16  21  21  23
  67  41  63  25   0  50  29  52  39  37  38  45  61  56  45  37  54  55  28  74 107 101 101 101 104 104 104  96  99  92  87  89  84  86  70  36  62  88  79  81  90  75  86  83  82  81  89  97  96  93  82  82  74  73  55  32  47  70  65  69  69  69  85  81   2  12  13  32  31  29  49  32  36  15  23  19   4   2   6  44  30   9  12   5   5   9  14  13  10  23  26  31
  41  55  11   0  21  23  35  27  46  32  38  42  46  56  39  47  37  47  36  34 110 105 102  98  98  96  96  95  98  90  89  86  87  87  81  51  48  51  61  51  66  79  76  69  65  66  74  71  76  79  70  77  57  44  38  66  75  67  68  69  67  75  84  82   3  10  18  27  33  13  46  56  41  13  15  24  19   0   2  40  31  12  18  15  11   8   9  15  30  18  28  13
   5   8  33  28  32  32  45  49  40  35  28  31  45  38  47  34  31  43  40   5 113 100 105 107 100  98  99  96  90  99  91  89  81  79  78  75  75  51  57  55  66  61  61  54  56  62  58  63  51  56  48  43  37  49  65  69  68  67  70  67  70  80  90  80  14   8  14  23  56  19  19  52  43   9  10  20  30   8   2  27  34  14  11  20  15  11   5   9  21  30  32  22
  11  30  31  29  35  39  42  37  40  40  28  32  50  36  43  36  33  36  45  19  96 101 105 102 102 100  96 103  89  94  96  88  87  81  83  75  77  74  77  61  65  66  65  61  70  73  70  67  63  70  52  64  63  61  65  71  68  63  71  66  67  82  85  74  20  10  16  25  50  26  21  41  44  17   7  19  34  10   3  18  35  15  17  23  18  20  14  14  16  24  26  18
  24  16  12  23  25  37  24  39  36  30  29  32  48  46  38  24  28  37  45  39  46 115 101 102 100  96 100  94  95  91  89  86  91  86  80  76  74  73  73  71  73  65  75  71  72  78  72  65  72  73  70  65  59  64  68  67  69  72  68  71  76  87  88  79  10  13  12  26  58  34  20  20  49  24   5  17  34  16   5  24  36  12  10   9  15  24  19  13   8  20  26  19
