P2
# Generated by OpenCV 4.2.0
92 112
255
 236 236 236 236 236 235 236 236 236 236 236 236 236 236 236 236 236 235 228 197 143  97 102  54  24  10  17  30  48  35  18   7  17  25  19  24   8  11  33  28  11  20  43  39  39  47  63  82  77  59  71  68  68  59  53  68  57  84 195 242 247 238 237 233 232 236 239 236 236 236 236 236 236 236 236 236 236 236 236 236 235 236 234 235 235 235 234 235 235 235 235 235
 236 236 236 235 237 238 236 236 235 235 236 236 236 236 235 236 237 235 223 194 136  89  50  47  28   8   3   9  22  47  44  12   6  11  19  20  23  11  11  28  33  15  23  43  44  33  47  57  77  83  73  70  64  71  74  61  58  58  97 150 189 228 240 236 231 222 226 237 238 236 236 236 236 236 236 236 236 236 236 236 236 236 235 236 235 236 236 236 235 235 235 235
 236 237 236 236 237 237 236 236 236 236 235 236 236 237 236 236 235 237 235 238 200 123  64  27  15  10   5   6   5  19  50  38  11   7  25  20  17  23  14  15  25  40  13  22  48  43  27  43  43  72  89  83  68  58  69  78  69  64  72  72  73 166 223 238 241 232 200 193 223 242 235 236 236 236 236 236 236 236 236 235 235 235 236 236 236 236 236 236 235 235 235 235
 236 237 236 236 236 235 236 236 236 236 236 235 235 238 237 237 237 231 208 165 140  83  43  14  14  13  12   9   5   8  29  55  39  19  19  33  24  19  25  25  27  25  42  20  25  50  42  25  50  48  70  90  85  71  55  70  88  73  72  76  60  53  84 184 228 222 190 156 156 238 234 235 236 236 236 236 236 236 236 235 235 235 236 236 236 236 236 236 235 235 235 235
 237 236 236 236 236 236 236 236 236 237 236 239 228 229 246 246 229 179 124  70  34  24  19  12   9   6   9  14   7   5  14  42  61  39  20  18  35  22  17  37  48  27  25  52  22  22  53  37  27  59  55  78  93  80  71  57  78 100  82  75  61  41  22  43  71  88  96 133 102 177 240 234 236 236 236 236 236 236 237 236 236 235 236 235 235 235 236 236 236 236 236 236
 237 236 236 236 236 235 236 236 236 238 238 236 241 216 164 145  96  80  73  45  32  23  20  19  16  10   5   4   7   3   9  25  61  62  34  25  31  43  15  21  52  55  19  38  47  14  17  52  22  42  67  74  76  74  79  71  47  84 102  82  62  36  22  18  18   8  12  54  99 102 211 238 237 236 235 236 236 235 236 236 236 236 236 236 236 236 236 236 236 236 236 236
 236 238 238 238 237 236 238 238 237 230 217 177 122  95  53  33  22  17  15  16  12  11  15  18  18  11   6   5   2   0   6  16  45  71  44  29  35  37  43  15  31  55  43   9  47  36   3  20  35  18  48  80  66  66  76  88  58  45  98 103  80  60  36  23  21  18  18  10  37  54 122 235 237 231 235 237 235 236 236 235 236 236 236 236 237 236 236 236 236 236 236 236
 238 238 238 238 238 238 238 236 235 234 201 114  41  20  18  17  14  15  12   8   5   4   6  12  14  17  12   3   4   2   0  11  26  60  58  35  39  48  44  32  14  47  56  29  12  61  28   0  25  21  22  67  88  53  69  76  83  45  54  95  88  75  69  49  22  16  24  17  18  55  64 155 238 232 235 236 233 236 236 236 236 236 236 236 237 236 236 236 236 236 236 236
 239 236 238 238 237 237 238 237 243 241 184  78  13   8   5   4   4   7  11  15  14   9   6   8  10  17  21  13   3   4   6   5  15  41  60  32  28  60  56  34  18  27  59  47  12  31  52   7   3  22  16  33  68  64  54  79  66  66  40  66  84  67  68  75  57  30  20  21  26  40  60  67 207 238 234 230 232 236 236 236 236 236 237 236 236 236 236 236 236 236 236 236
 237 238 238 238 237 236 238 237 213 119  48  40  35  28  12   6   4   5   7   7  13  15  17  14  12  13  11  15  16   6   5   7   8  25  54  34  20  37  71  37  22  12  42  52  27   9  33  24   1  11  19  20  36  59  46  64  71  56  39  40  77  77  51  59  62  61  51  28  15  31  52  45 151 242 228 226 236 236 236 236 236 236 236 236 236 236 237 236 236 236 236 236
 237 238 238 238 237 237 237 212 137 108 100 104  89  37  11   5   4   2   5   8   5   9  17  17  19  20  15  10  15  23  17  11   8  13  34  37  20  15  56  58  16  18  12  54  32  11   8  30   9   1  23  20  26  47  43  35  68  69  35  21  56  94  77  49  52  56  54  56  29  12  33  42  90 204 209 227 235 235 236 236 236 236 236 236 236 236 236 236 236 236 236 236
 238 238 238 238 238 239 235 209 174 138  87  62  23   6  15   4   3   5   3   5  11   8   8  19  19  17  18  13   9  12  22  21  14   9  15  34  19  12  26  58  27  10   8  21  47  12   2  15  12   1  14  25  12  25  36  31  37  66  59  24  18  68  75  62  52  59  55  46  53  22  13  28  56 171 200 210 230 233 237 237 237 236 236 236 236 236 236 236 236 236 236 236
 238 238 238 238 238 239 241 209 169 146  74  27   9   6  14  22  12   8   5   4   4  13   7  10  17  17  14  18  18   9   8  26  22  15  13  26  23   9  13  27  35   9  10   2  28  31   2   4  13   4   1  19  12  12  26  32  27  35  75  47  14  24  59  50  44  46  52  46  38  41  14  26  35 138 205 187 214 231 236 229 231 236 236 235 236 236 236 236 236 236 236 236
 236 236 236 238 239 238 236 198 185  99  38  10  14  22  19  10  15  13   8   8  11   7   7   4   6  12  16  12  16  18  10   8  25  23  18  10  20  16   8  13  25  22   6   6   3  28  15   1   6   6   1  10  11  10  13  23  33  29  43  62  32   4  25  45  40  35  41  47  40  32  21   9  31 104 182 191 196 231 210 212 237 237 236 236 236 236 236 236 236 236 236 236
 237 238 238 237 236 238 237 231 125  85  61  27  21   7   7   4   8  15   9   5  11  10   5   4   3   4   9  15  13  12  18  16   8  18  26  13  15  14   9  10   7  26  15   9   6   7  16   6   3   6   4   8  11   9   9  12  20  36  27  58  52  21   6  35  45  41  41  44  46  36  30  12  14  68 152 168 184 201 178 211 240 237 236 236 236 236 236 236 236 236 236 236
 238 238 238 238 237 236 239 223 159 110  36  22   4   4   3   4   3   5   9   7   7   6   6   2   4   1   2   6  13  12   9  19  25  11  19  24  12  16  13   8   7   7  24   9   8   2   7   7   5   6   7  10   8   9   7  10  11  22  28  35  47  38  19  12  43  35  33  34  48  46  25  26  27  54 116 123 130 115 135 188 239 237 236 236 236 236 236 236 236 236 236 236
 238 238 238 237 236 234 228 212 162  55  32  12   2   2   2   9   6   2   0   2   5   3   3   2   3   3   1   2   5  10  13   9  16  30  15  21  22  11  17  11   8   4   6  14  11   7   7   8   6   6   7  12  14  10   9  13  15  17  24  18  35  39  30  16  23  40  29  27  30  47  40  19  24  55  82 115 128 134 113 191 237 237 236 236 236 236 236 236 236 236 236 236
 238 237 238 238 236 233 224 200 136  54  27   8   4   4  16  19  15   6   4   3   1   3   4   4   1   5   2   2   3   3   7  10  12  15  25  21  25  23   9  13  11  11   5   9  12  15  14  17  25  20  20  21  22  21  20  20  25  29  32  31  32  40  35  17  20  25  30  23  18  25  46  37  24  41 104 168 139 105  83 193 237 237 236 236 235 236 236 236 236 236 236 236
 238 238 238 238 240 236 227 193  99  18  20  13  13  29  32  15  11   8   6   3   4   6   5   6   5   4   7   9   8   4   4   5   6  11  18  25  19  30  30  13  11  17  20  23  26  26  34  37  41  52  58  51  49  43  45  43  46  49  47  49  60  51  51  37  21  23  24  12   9   7  24  44  30  51  76  76  79  87 120 180 231 238 236 237 236 236 236 236 236 236 236 236
 238 238 238 238 238 239 217 143  16  22  10  19  38  38  11   7   6   3   4   5   5   8  11  10  10  12   9  11  12  12  12  11  12  14  20  30  37  37  39  39  27  24  32  40  51  59  68  84  91 100 114 103 101  89  90  84  80  81  76  77 100  92  81  74  54  36  27  25   8   5   3  28  35  29  30  33  49  72 100 155 234 236 237 236 236 236 236 236 236 236 236 236
 238 238 238 238 239 240 182  51   9  12  13  45  49  11  10   9   6   4   3   4   6   6   7  10  15  18  23  25  25  28  30  37  41  48  56  59  56  52  46  40  39  39  39  48  68  92 109 130 149 146 161 165 163 153 146 142 134 130 116 118 124 125 119 102  94  81  61  42  14   6   4   5  26  33  30  15  23  50  47  77 202 240 236 236 236 236 236 236 236 236 236 236
 238 238 238 238 240 236 106   6   5  14  43  46  18  13  18   9   6   8   9  12  13  11  13  15  19  24  32  40  48  55  62  71  75  82  82  87  98  92  85  79  74  76  91 107 119 134 158 173 179 185 187 189 189 188 183 178 174 168 156 149 140 141 138 138 146 141 126  84  41  12   8   8  14  28  24  25  16  36  73 143 197 231 236 237 236 236 236 237 236 236 236 236
 238 238 238 238 241 220  81   3  13  37  51  22  19  20  12   9  11  10  15  18  15  12  17  28  37  49  64  78  83  88  94 100 110 123 123 127 134 137 142 144 147 150 158 168 174 186 191 190 190 194 191 192 192 191 189 184 184 178 172 165 160 164 163 167 172 160 148 141 103  40  10   6   4  16  19  18  12  17 104 209 231 228 236 236 236 236 236 236 236 236 236 236
 238 238 238 238 245 214  52   6  18  40  28  19  19  13  10  10   7  18  22  14  14  20  33  45  58  76  91 105 114 124 134 139 145 151 151 150 154 158 163 166 173 180 182 186 190 188 190 194 188 189 194 196 194 193 191 190 189 185 184 182 182 180 184 186 182 178 177 173 160 101  32  14  13   8  24  26   7  11  92 203 230 234 235 236 236 236 236 236 236 236 236 236
 239 238 238 239 243 202  56  14  31  18  21  16  15  16   9   6  18  16  10  11  14  29  45  63  83 102 116 124 126 138 146 154 157 159 159 161 161 162 168 175 181 185 190 190 189 190 194 196 198 198 203 202 203 200 199 197 193 192 190 188 191 192 191 191 187 187 188 182 177 152  80  26  18   7  11  21  21  15  27 116 239 235 235 236 236 236 236 236 236 236 236 236
 238 238 238 238 243 197  87  24  25  15  26  18  17   8   5  17  18   4   8  14  26  44  63  78  98 118 122 125 133 147 154 157 157 162 166 167 169 171 175 177 181 185 189 191 193 193 196 199 201 205 205 208 207 202 202 200 199 197 194 193 194 197 195 193 193 192 192 185 180 172 125  57  23  13  19  22  28  21  13  49 188 244 236 236 236 236 236 237 236 236 236 236
 238 238 238 238 238 240 136  30  13  19  31  25  11   3  13  21   8   4  13  31  44  58  77  87 106 122 128 133 141 149 155 157 160 166 168 172 172 174 177 179 183 187 190 190 189 192 197 198 201 202 201 202 205 204 205 201 200 198 198 199 197 195 195 192 195 194 191 188 182 176 149  99  43  33  26  17  36  20  12  29  94 233 240 236 235 236 236 236 236 236 236 236
 238 238 238 238 238 239 203  63  15  32  38  16   3   6  24  17   2  10  24  44  53  73  80  89 104 124 129 135 144 153 161 164 165 172 173 174 173 176 180 181 183 188 188 190 192 193 196 201 205 200 206 207 206 206 206 207 206 202 202 205 204 199 200 198 197 198 192 191 184 178 160 129  69  30  20  22  31  22  13  33  53 166 244 237 236 235 236 236 236 236 236 236
 238 238 238 238 239 235 240  93  19  35  32   9   3  12  29  10   7  19  36  52  67  75  83  97 108 122 132 137 148 157 161 168 170 172 174 173 173 176 180 181 185 186 190 193 196 196 200 205 204 203 206 206 209 206 207 206 208 210 209 209 207 205 202 200 197 197 197 195 190 184 166 148  95  32  17  34  35  27  15  21  56 123 193 239 237 236 236 236 236 236 236 236
 238 238 238 238 237 235 242  91  21  29  26   8   4  16  28  14  16  26  39  55  69  86  95 107 112 120 136 146 151 153 159 166 168 170 172 173 178 182 181 183 186 186 191 195 197 197 200 205 207 207 210 212 211 209 208 206 206 208 211 212 210 206 201 201 200 199 197 196 194 189 175 161 121  58  24  38  43  30  18  24  41 140 197 217 238 237 236 236 236 236 236 236
 238 238 237 239 236 238 215  69  21  22  13   9   7  21  26  20  25  33  43  54  76  92 104 113 116 125 133 142 144 152 163 161 163 170 171 175 183 185 184 185 188 188 191 197 201 199 199 206 210 210 211 210 210 212 212 211 211 209 213 213 210 204 202 204 202 202 196 197 198 192 178 165 141  81  41  26  43  35  27  25  21 124 228 230 234 236 236 236 236 236 236 236
 238 238 239 239 237 245 172  42  27  15   9   4  12  27  23  19  31  35  42  61  85  98 106 112 115 126 131 135 146 153 157 160 167 172 172 176 179 183 188 188 189 192 194 195 198 200 199 201 206 207 207 210 214 214 213 215 213 213 214 213 209 208 207 206 204 203 198 194 195 194 184 175 156 103  48  29  41  44  32  30  19 112 234 237 237 237 236 236 236 236 236 236
 238 238 238 238 239 244 156  25  25  14   4   2  14  30  21  27  30  38  43  66  88 101 107 111 115 126 130 137 146 150 154 163 168 169 170 172 179 183 183 190 192 190 191 197 200 202 203 203 206 209 209 214 219 219 216 211 214 216 212 210 209 207 205 204 203 202 199 197 195 193 186 183 168 125  62  27  42  61  28  33  34 100 222 241 236 236 236 236 236 236 236 236
 238 238 238 239 238 245 179  21  21  17   1   3  18  30  26  22  31  39  43  66  93 101 104 110 121 122 128 138 147 153 155 162 166 169 170 172 177 178 185 191 192 193 195 196 198 203 202 205 207 209 207 215 223 220 218 213 210 215 215 211 211 209 204 202 202 199 199 199 198 194 188 184 177 149  84  34  36  51  40  30  31 142 227 239 236 236 236 236 236 236 236 236
 238 239 238 238 239 247 181  33  23  16   4  18  20  30  25  20  32  44  45  66  93 102 100 109 120 128 134 136 145 152 153 158 164 170 168 171 175 177 181 187 192 194 195 196 198 204 204 207 205 208 208 212 217 217 216 214 214 214 216 214 211 209 204 205 204 201 200 198 197 195 190 188 182 162  99  51  41  45  30  33  30 128 239 237 236 236 236 236 236 236 236 236
 238 238 238 238 239 245 188  49  32  21  24  37  25  20  19  21  37  47  49  66  95 104 105 110 119 131 131 133 141 145 150 157 160 169 168 173 177 180 180 185 189 194 194 196 200 201 203 205 204 203 209 210 212 214 213 215 213 215 215 215 213 209 207 205 200 202 199 201 197 196 191 189 186 170 115  65  53  43  29  20  36 138 239 237 236 236 236 236 236 236 236 236
 238 238 238 238 238 245 205  62  32  29  30  43  20  16  17  24  41  50  55  67  93 104 104 112 119 122 132 135 142 149 156 161 167 168 174 176 176 178 184 188 194 196 195 197 199 198 199 202 202 204 204 205 207 208 209 211 213 212 211 212 209 208 206 205 201 201 200 200 198 199 194 191 188 174 131  72  59  43  35  20  42 158 240 238 236 236 236 236 236 236 236 236
 238 238 238 238 239 243 212  68  44  39  35  35  15  17  16  29  43  55  61  74  93 100 103 109 115 122 129 136 140 150 156 162 166 170 175 177 179 179 182 187 193 198 198 199 200 199 197 201 198 201 206 208 210 208 209 212 215 212 212 210 206 206 203 202 199 198 198 200 198 201 194 192 188 173 131  86  55  50  42  34  45 152 242 238 236 236 236 236 236 236 236 236
 238 238 238 238 239 244 212  64  32  29  47  22  18  15  21  35  42  53  62  79  94  93 101 106 114 122 128 134 137 145 152 161 166 170 172 180 183 184 186 189 197 200 202 206 205 196 201 197 194 199 205 207 209 211 211 213 212 214 216 212 207 207 206 205 198 196 199 198 195 200 197 195 191 178 143  94  59  57  48  43  60 154 234 239 236 236 236 236 236 236 236 236
 238 238 238 238 239 244 213  57  18  32  40  22  21  13  25  33  43  54  57  75  89  93  94 104 108 115 126 130 131 135 147 155 162 165 168 175 179 187 189 193 197 201 203 207 204 204 201 198 194 196 199 206 208 210 210 213 211 211 211 209 204 202 206 203 201 198 200 198 197 200 198 197 192 184 157 113  75  57  55  48  49 166 241 236 236 237 236 236 236 236 236 236
 238 238 238 238 238 244 210  55  20  27  23  34  18  18  27  36  43  52  59  69  88  99  97 103 107 114 121 126 131 134 147 151 159 166 171 177 183 183 187 192 197 203 205 207 205 202 198 197 192 194 200 203 208 212 211 212 214 212 210 208 206 205 204 200 203 204 202 200 201 200 197 196 193 186 172 127  97  67  50  46  60 170 240 236 236 237 237 236 236 236 236 236
 238 238 238 238 239 243 216  63  25  23  23  31  15  30  31  36  46  53  61  67  89 105 105 102 105 114 119 125 132 135 140 151 157 165 174 180 185 189 193 198 199 203 203 207 205 197 196 192 191 192 202 206 208 208 210 216 211 211 208 206 208 209 206 204 204 203 202 203 201 200 198 196 193 187 178 145 108  80  59  52  58 162 244 237 236 237 236 236 236 236 236 236
 238 238 238 238 238 242 232  85  26  26  28  21  29  36  32  44  50  56  59  67  91 110 110 114 107 110 121 128 138 138 139 147 156 165 173 178 183 187 194 196 202 205 205 210 206 198 195 194 189 195 200 204 206 207 212 212 213 213 210 206 208 208 204 206 206 205 202 203 203 202 200 199 191 190 186 153 104  92  73  53  75 197 241 236 236 236 236 236 236 236 236 236
 238 238 238 238 238 242 240 105  25  24  27  35  28  18  38  48  55  56  56  68  90 110 113 118 119 117 122 135 138 140 145 149 153 162 170 175 180 184 191 194 201 204 207 213 210 200 196 196 194 195 197 198 209 208 213 212 214 213 210 207 208 208 209 209 207 206 205 201 201 200 201 200 193 191 188 161  97  87  74  57  89 213 241 236 236 236 236 236 236 236 236 236
 238 238 238 238 238 239 248 140  27  23  24  22  13  19  37  49  56  57  56  65  88 108 116 121 126 129 129 133 140 145 149 151 155 159 171 176 181 185 186 189 197 203 211 215 214 200 187 200 200 196 195 201 209 204 209 214 215 212 209 206 206 207 207 211 206 201 203 203 202 200 199 198 193 193 189 168  95  83  64  59 121 228 239 236 236 236 236 236 236 236 236 236
 238 238 238 238 238 239 247 181  34  22  23  18  10  15  34  52  60  57  56  69  91 104 116 127 124 129 137 139 146 149 150 148 153 156 168 176 181 185 183 188 196 201 206 212 212 201 177 188 194 190 195 202 204 209 209 208 207 207 203 200 199 200 202 202 200 194 189 185 195 203 202 198 192 191 190 167  91  79  64  57 133 238 238 236 236 236 235 236 236 236 236 236
 238 238 238 238 238 239 244 208  54  23  25  17   7  13  36  54  63  61  57  69  91 102 114 125 131 136 138 140 144 146 149 142 144 152 161 168 172 179 183 187 190 195 205 208 205 199 176 176 184 185 190 195 196 202 202 199 199 196 188 185 188 183 178 178 181 173 168 162 174 185 196 202 194 191 192 166  83  80  72  60 141 237 238 236 236 236 236 236 236 236 236 236
 238 238 238 238 238 238 241 230  80  25  24  13   8  11  34  61  65  61  59  70  87 101 111 119 124 130 125 129 132 134 140 143 140 152 159 160 170 175 182 185 187 192 196 201 198 195 181 165 176 181 188 186 182 189 191 189 186 176 165 151 136 135 126 130 136 137 138 135 146 158 176 196 196 186 191 162  84  72  70  66 144 240 237 236 236 236 236 237 236 236 236 236
 238 238 238 238 238 238 240 239 127  34  26  14   8   9  32  64  65  62  61  69  81  88  98 110 108 106 107 109 108 107 106 113 108 120 136 138 155 170 175 177 184 188 192 199 198 192 187 169 172 177 178 173 165 159 156 130 117 103  96  84  80  81  86  95 104 112 107 101 124 132 132 153 189 189 190 153  82  72  57  68 153 240 237 236 236 236 235 236 236 236 236 236
 238 238 238 238 239 238 238 244 183  60  32  20   7   9  30  63  67  65  64  67  72  69  80  95  91  91  96  87  83  72  64  61  63  66  79 102 124 139 147 159 175 176 187 197 198 198 194 174 171 175 164 151 142 125 102 103  82  61  55  56  53  61  74  84 103 112 106  99  94 101 107 129 162 184 194 144  78  69  55  67 181 242 236 236 236 236 237 236 236 236 236 236
 238 238 238 238 238 238 237 245 195  59  34  28   8   7  25  65  70  67  65  58  58  62  70  62  51  54  49  34  31  31  31  31  45  59  52  51  66  85 110 126 148 161 174 189 197 201 198 184 174 180 164 141 129 111 111 100  76  72  78 108 137 160 172 173 169 165 153 146 153 141 134 147 162 180 194 139  72  64  56  76 178 244 237 236 235 236 236 236 236 236 236 236
 239 238 238 238 238 238 238 244 217  81  36  23  12   9  21  63  72  71  63  53  46  46  48  42  45  51  54  55  63  63  61  54  45  48  50  48  52  71  95 113 133 145 160 183 193 197 199 202 188 187 163 146 144 130 126 126 115 105 107 108 110 106 134 145 161 174 182 189 190 184 177 183 191 195 195 136  73  58  56  80 163 232 238 236 236 236 236 235 236 236 236 236
 238 237 238 238 238 237 238 243 243 109  37  20  21  12  20  61  79  71  59  45  44  48  49  55  65  85 113 137 150 154 149 130 107  85  65  66  65  63  72  97 119 132 154 176 196 200 207 208 205 189 173 167 157 153 145 109  77  60  36  24  30  82  20  41  57  80 121 168 194 193 188 189 192 193 198 132  72  61  58  84 136 182 219 238 236 236 236 236 236 236 236 236
 237 238 238 238 237 238 241 240 193 114  44  21  23   8  21  58  81  74  62  53  59  66  63  67  80 102 109 100  87  65  54  42  62 100  95  68  64  64  57  65  88 107 138 168 189 197 210 208 205 194 186 173 167 156 132  91  73  62  47  29  18 119  29  83 105  37  52  82 164 195 197 195 195 197 199 141  68  60  60  91 159 196 204 236 237 236 236 236 236 236 236 236
 238 238 238 238 238 239 245 150  55  49  41  24  23   9  20  56  80  82  66  59  70  68  64  71  85  68  42  26  11  21   3  85  88  29  95  97  84  72  56  47  60  85 122 166 186 203 208 207 203 194 188 178 172 172 136  63  75 109  61  62  33  42  42 144 169  97  70  85 145 188 197 194 196 199 199 151  74  60  68 112 187 166 175 241 236 236 236 236 236 236 236 236
 238 238 238 237 239 244 217  86  53  48  32  22  24  10  18  53  79  83  66  70  77  62  66  77  50  25  33  46  26  50   3  52  90  64 169  91  53  81  68  45  49  69 110 161 185 204 214 208 201 194 191 187 192 175 112  95 103 127 123 121 129 134 112 152 158 171 165 166 164 172 186 191 194 199 202 161  85  58  89 166 177 137 222 240 236 236 236 236 236 236 236 236
 238 238 238 239 239 244 214  69  54  53  37  28  23  17  16  53  80  86  70  75  79  69  82  66  34  51  57  69  40  48  52  52  74 115 175 125  43  34  92  63  49  62 107 157 183 200 211 204 199 195 196 196 205 187 172 162 137 133 143 157 162 173 161 166 177 191 196 201 188 180 189 200 203 201 201 176  93  66 130 174 150 208 243 236 236 236 236 236 236 236 236 236
 238 238 238 238 239 238 247 148  37  55  41  34  29  20  17  58  82  87  71  74  81  81  88  71  38  49  78 106 104  96 101 118 146 154 162 156 133 114 111  82  54  59 108 159 184 199 206 202 196 196 196 192 204 200 190 166 144 146 158 165 172 182 190 187 190 191 199 205 204 200 199 203 205 204 202 185 104  69 147 159 193 243 236 236 236 236 236 236 236 236 236 236
 238 238 238 238 238 238 241 252 104  33  60  36  28  19  20  63  84  83  72  77  83  82  80  72  59  50  77  93 111 129 132 152 162 171 174 171 162 151 117  77  65  62 108 162 181 197 205 200 200 193 193 194 197 192 182 177 167 156 156 156 156 161 172 178 187 200 205 203 199 202 206 202 201 202 201 194 120  80 144 183 230 239 236 237 236 236 236 236 236 236 236 236
 238 238 238 238 238 239 238 252 183  27  52  58  34  22  26  67  83  77  72  85  97  98  87  82  85  79  75  97 116 136 152 155 163 166 164 166 154 133  92  79  70  66 104 162 183 193 205 202 197 196 194 197 196 192 187 188 191 202 204 200 197 196 199 201 203 203 199 202 203 201 202 204 203 201 200 198 139  96 152 218 241 236 237 236 236 236 236 236 236 236 236 236
 238 238 238 238 238 238 238 243 227  52  20  64  46  28  37  73  80  75  71  86 103 107 102  95 101  99  98 104 112 127 142 149 156 158 152 152 146 117  98  83  72  67  96 157 184 190 196 197 197 197 197 201 196 194 190 196 197 202 210 213 211 213 217 216 209 205 205 204 206 205 201 203 204 200 200 202 150 109 175 236 239 237 236 236 236 236 236 236 236 236 236 236
 238 238 238 239 239 238 238 239 251 117  13  51  52  35  40  78  80  76  77  93 106 110 112 107 119 124 133 131 136 146 157 156 162 160 157 153 139 118 101  87  73  65  88 147 180 189 194 198 195 196 200 201 198 196 198 199 198 197 198 200 209 210 208 208 207 205 205 202 205 202 200 201 202 202 203 201 162 116 184 244 238 236 236 236 235 237 236 236 236 236 236 236
 238 238 239 238 238 238 238 238 251 185  24  47  53  33  43  83  77  75  81  95 112 115 113 121 127 131 140 152 158 166 168 167 164 157 155 151 138 116  94  83  73  65  84 140 175 187 191 200 195 193 196 200 196 196 197 200 203 201 196 197 200 205 208 205 205 205 205 204 203 203 202 202 199 199 200 201 169 139 203 243 237 236 236 236 236 236 236 236 236 236 236 236
 238 238 238 238 238 238 238 238 243 227  54  48  52  39  55  86  75  77  84  96 109 120 125 122 124 134 143 155 157 165 164 163 165 164 157 146 139 113  91  78  73  67  88 133 170 188 194 196 195 194 193 198 193 198 196 198 203 204 203 203 202 202 203 200 204 205 203 203 199 199 198 201 200 199 199 198 176 174 221 240 237 236 236 236 237 236 236 237 236 236 236 236
 238 238 238 238 238 238 238 238 239 248 107  42  47  45  71  94  76  80  84  96 110 121 133 126 131 141 152 156 157 159 165 165 162 158 162 148 133 105  87  76  70  71  90 129 162 184 197 200 197 196 195 194 194 195 192 197 198 198 204 209 208 200 199 199 201 202 205 200 198 196 194 200 201 201 198 195 182 196 228 238 237 237 236 236 236 237 236 236 236 236 236 236
 238 238 238 238 238 238 238 238 238 250 170  36  42  59  85 104  80  74  86 109 111 116 125 125 133 140 152 159 161 158 163 162 157 160 156 149 126  96  82  75  70  74  94 130 163 185 196 199 196 197 195 191 192 196 195 200 200 202 203 204 205 204 204 200 201 203 203 202 201 198 197 198 199 200 199 195 189 201 227 238 237 236 236 237 237 236 236 236 236 236 236 236
 238 238 238 238 238 238 238 238 238 245 217  51  28  74  87 106  85  73  93 105 111 112 120 126 133 138 152 159 157 157 159 162 163 162 150 147 124  92  76  67  66  75 105 132 166 184 198 198 197 197 196 189 192 199 201 203 207 204 202 204 205 204 206 207 205 202 200 201 200 200 199 197 198 198 195 197 186 202 231 237 236 236 236 237 236 236 235 235 236 236 236 236
 238 238 238 238 238 238 238 238 238 241 236  73  30  70  84 110  90  76  88  97 103 112 117 124 129 136 146 154 159 162 158 165 165 157 152 142 120  87  72  61  62  78 113 143 166 185 198 198 195 199 199 196 193 198 203 205 212 210 207 206 203 205 205 210 207 201 200 201 202 200 198 195 197 198 194 190 177 216 239 236 236 236 237 237 236 236 236 236 236 236 236 236
 238 238 238 238 238 238 238 238 238 239 248 122  43  71  79 111  99  74  82  89  96 106 110 121 127 132 144 151 161 165 163 166 165 157 152 138 114  83  65  54  62  84 118 150 168 186 200 202 200 201 198 195 189 188 196 207 212 210 206 208 210 208 207 209 208 207 204 202 201 198 198 195 197 197 193 187 177 224 239 235 236 236 236 237 236 236 236 237 236 236 236 236
 238 238 238 238 238 238 238 238 238 239 250 179  66  55  78 110 106  79  76  82  92 100 112 119 129 130 142 158 159 165 167 167 167 160 154 143 116  78  54  49  67  97 128 157 175 188 201 205 200 199 201 201 195 188 187 201 205 209 208 211 212 210 210 208 208 208 206 203 202 197 197 196 195 194 195 184 188 232 237 236 236 236 236 236 236 236 237 237 237 237 237 237
 238 238 238 238 238 238 238 238 238 238 242 226  90  47  72 109 109  86  73  79  84  95 107 111 121 133 141 158 164 169 166 166 168 162 155 142 114  65  62  64  77 109 137 162 179 187 198 206 197 200 201 204 204 196 190 192 194 196 204 211 214 213 212 211 213 208 204 203 203 202 198 194 194 192 193 180 190 231 238 237 237 236 236 236 236 237 238 237 237 237 237 237
 238 238 238 238 238 238 238 238 238 238 238 246 154  61  71 102 110  92  75  74  80  92  97 102 119 130 139 155 163 166 169 169 170 162 154 138  95  57  79  75  78 113 146 159 176 192 202 209 208 206 203 208 205 201 199 186 192 186 189 199 208 211 209 210 211 205 203 204 203 201 198 194 193 193 192 181 185 231 238 236 237 236 236 236 237 237 237 237 237 237 237 237
 238 238 238 238 238 238 238 238 238 238 238 247 196  60  57  97 109 100  79  73  77  84  91 103 119 129 143 152 157 163 166 169 167 160 151 130  73  59  85  69  62  93 127 150 173 193 209 223 219 203 201 198 197 205 206 189 197 188 178 181 191 200 206 210 205 204 203 204 202 200 200 197 195 191 190 179 189 237 238 236 237 237 237 237 237 237 237 237 237 237 237 237
 238 238 238 238 238 238 238 238 238 238 238 244 220  68  52  90 104 104  83  72  74  82  84 101 113 125 142 151 159 162 169 171 171 160 151 112  53  57  81  69  59  72  86 118 155 185 199 212 213 198 192 185 189 201 203 191 200 196 182 173 179 189 198 206 203 199 200 201 198 200 200 198 195 191 187 170 202 241 236 235 237 237 237 237 237 237 237 237 237 237 237 237
 238 238 238 238 238 238 238 238 238 238 238 239 248 140  44  81  98 100  84  74  73  77  85  94 111 129 140 146 151 159 167 170 168 162 139  93  46  50  78  83  78  73  60  74 127 173 181 180 188 186 137  98 140 177 187 193 200 200 195 176 172 184 192 196 203 202 200 199 196 200 197 197 195 192 179 170 228 238 236 236 237 237 237 237 237 237 237 237 237 237 237 237
 238 238 238 238 238 238 238 238 238 238 238 237 243 236 112  67 101 100  92  75  74  77  81  89 107 130 139 143 151 159 165 167 168 162 132  86  49  42  76 100  87  41  18  30  80 131 149 153 156 158 121  79  90 143 180 195 193 202 198 191 176 175 182 188 197 203 201 201 200 196 197 196 193 187 174 181 235 237 235 237 237 237 237 237 237 237 237 237 237 237 237 237
 238 238 238 238 238 238 238 238 238 238 238 239 237 244 237 145  95  94  92  76  71  78  78  84 102 120 128 140 151 161 167 167 167 155 129  99  71  44  48  82  77  37  16  13  37  85 108 123 154 175 159 127 120 150 169 180 186 201 199 199 191 180 181 187 193 198 199 199 197 194 197 194 189 185 179 202 237 237 237 237 237 237 237 237 237 237 237 237 237 237 237 237
 238 238 238 238 238 238 238 238 238 238 238 238 238 238 248 204  95  87  89  77  72  79  77  83 100 113 123 142 152 160 163 166 161 151 134 114  92  73  60  48  41  34  37  49  53  77 109 144 176 144 116  84 112 139 151 145 168 196 199 200 200 193 185 186 193 195 196 198 196 198 194 189 186 184 181 203 238 237 237 236 237 237 237 237 237 237 237 237 237 237 237 237
 238 238 238 238 238 238 238 238 237 238 238 238 238 238 242 225 113  79  83  77  71  80  83  80  95 112 126 139 152 155 162 164 153 143 134 116  87  69  72  60  36  36  49  70  84 116 152 171 147 110 113 103 102 119 133 125 129 167 189 199 195 198 199 187 190 198 194 197 196 197 193 184 187 184 176 195 240 237 237 237 237 237 237 237 237 237 237 237 236 236 236 236
 238 238 238 238 238 238 238 238 238 238 238 238 238 238 239 247 150  78  76  75  66  75  82  77  90 102 124 138 146 153 160 156 146 129 120 100  79  61  59  46  40  41  44  70  83 103 147 161 117  89 100  95  91  93 110 114 111 152 169 181 180 179 192 196 189 193 197 195 197 197 191 188 186 184 175 199 240 237 236 237 237 237 237 237 237 237 237 237 236 236 236 236
 238 238 238 238 238 238 238 238 238 238 237 238 238 238 239 248 163  85  73  68  63  68  78  78  82  97 120 138 146 148 146 132 124 112 101  83  60  49  53  41  26  40  55  62  70  87 115 132 107  86  86  69  75  89 108 101  91 113 131 137 156 161 168 194 196 191 196 198 197 190 182 190 183 176 176 208 241 236 236 236 237 237 237 237 237 237 237 237 237 236 236 237
 238 238 238 238 238 238 238 238 238 238 238 238 238 238 239 244 185  93  77  66  62  64  70  76  81  93 122 136 141 138 118  92  89  86  74  63  43  33  35  36  27  37  49  53  73  81 105 118  86  55  56  70  82  84  81  82  87  78  99 105 112 133 140 159 195 195 193 203 194 182 182 190 179 175 171 210 240 237 236 236 237 237 237 237 237 237 237 237 237 236 237 237
 238 238 238 238 238 238 238 238 238 238 238 238 238 238 239 241 216 104  77  64  62  60  64  75  81  94 118 127 124  99  73  69  64  61  54  40  31  29  30  32  36  40  40  58  66  75 105 108  74  67  56  50  87  81  78  70  90  84  85  75  77  97  99 115 150 198 189 188 187 182 185 186 177 169 172 224 240 236 236 237 237 237 237 237 237 237 237 237 237 236 237 237
 238 238 238 238 238 238 238 238 238 238 238 238 238 238 238 241 236 121  76  61  58  60  59  70  75  87 109 118  97  59  55  58  48  43  43  35  21  33  43  36  28  52  57  59  68  88 121 101  79  80  76  63  93  94  99  87  73  88  91  76  81  85  87 113 128 169 195 190 183 175 182 187 176 168 170 230 238 237 237 237 237 237 237 237 237 237 237 237 237 237 237 237
 238 238 238 238 238 238 238 238 238 238 238 238 238 238 238 240 242 153  74  62  56  55  51  63  72  82 106  95  61  48  49  45  36  36  43  28  29  37  39  36  43  67  79  81  77  83 108 104 105  74 103 142 132 120 127 114 107 108 111  97 102  91  82 104 127 151 185 191 178 175 184 176 167 169 172 236 237 236 236 237 237 237 237 237 237 237 237 237 237 237 237 237
 238 238 238 238 238 238 238 238 238 238 238 238 238 237 238 238 245 197  78  65  57  53  50  47  67  76  87  68  44  46  37  34  38  40  36  36  50  44  57  54  71  85 101 115 101 108 119 118 150 128 154 187 166 162 169 162 150 128 131 114 111 103  91 100 116 140 180 174 164 179 177 167 170 168 194 241 237 236 236 237 237 237 237 237 237 237 237 237 237 237 237 237
 238 238 238 238 238 238 238 238 238 238 238 238 238 237 238 237 243 218  99  68  58  53  49  45  59  70  72  62  44  34  39  38  39  38  39  47  50  67  72  76  99 112 131 145 147 167 171 152 164 159 156 156 148 152 169 179 172 169 159 145 120 108 112 108  95 125 173 183 163 155 164 171 169 165 215 241 236 236 236 236 237 237 237 237 237 237 237 237 237 237 237 237
 238 238 238 238 238 238 238 238 238 238 238 237 238 238 238 238 240 235 134  68  60  50  50  45  47  69  76  70  31  34  58  61  62  53  53  53  58  75  81  95 103 108 114 115 119 127 126 131 120 115 106  90  84  69  44  66 102 130 126  97 103 116 139 106  87 121 166 177 160 134 157 173 160 164 227 239 236 237 236 237 237 237 237 237 237 237 237 237 237 237 237 237
 238 238 238 238 238 238 238 238 238 238 238 238 238 238 238 238 239 247 189  72  63  53  52  42  41  65  76  62  31  40  64  91  93  78  37  36  53  50  49  45  36  37  32  46  57  60  72  64  86  94 104  99  52  46  40  57  69 112 154 134 116 133 117 122 111 113 171 170 157 144 163 172 144 175 240 237 237 237 236 237 237 237 237 237 237 237 237 237 237 237 237 237
 238 238 238 238 238 238 238 238 238 238 238 238 238 238 238 238 239 244 217  90  61  58  54  41  34  53  67  62  49  59  83 113 121 114  67  38  32  23  23  34  43  42  31  39  46  60  75  66  91  96  93  90  88 110 130 136 147 172 188 193 169 146 123 127 144 148 165 156 152 168 164 169 140 207 242 237 237 236 237 237 237 237 237 237 237 237 237 237 237 237 237 237
 238 238 238 238 238 238 238 238 238 238 238 238 238 238 238 238 238 239 242 168  62  56  55  45  41  47  58  64  58  72  95 111 127 131 106  71  54  60  67  79  92 104 106 108 121 124 122 123 115 113 118 133 152 158 163 160 178 181 188 193 193 166 140 139 156 165 159 150 151 173 173 147 156 239 239 237 237 236 236 236 237 237 237 237 237 237 237 237 237 237 237 237
 238 238 238 238 238 238 238 238 238 238 238 238 238 238 238 238 238 238 242 234 105  49  54  50  43  43  53  67  76  77  92 109 129 132 122  87  62  63  78  95 102 114 126 138 143 146 153 145 138 143 158 175 184 174 173 183 186 185 195 198 196 182 159 145 166 170 149 156 166 161 162 120 189 245 237 237 237 236 236 236 237 237 237 237 237 237 237 237 237 237 237 237
 238 238 238 238 238 238 238 238 238 238 238 238 238 238 238 238 238 239 238 244 183  61  52  49  47  39  53  65  76  77  80  96 122 122 124  98  72  61  67  82 105 120 125 132 144 149 159 150 149 165 178 191 188 179 182 181 182 183 195 200 192 175 171 149 164 160 142 152 177 147 132 137 235 238 236 238 237 237 236 237 237 237 237 237 237 237 237 237 236 236 236 236
 238 238 238 238 238 238 238 238 238 238 238 238 238 238 238 238 238 238 238 241 238 127  43  48  47  34  43  59  71  75  60  77 111 122 123 108  88  70  64  71  86 108 122 134 148 158 164 164 164 169 174 173 171 173 178 173 180 186 198 189 183 178 173 145 146 152 133 156 158 126 132  60 174 254 237 236 236 237 237 237 237 237 237 237 237 237 237 237 236 236 236 236
 238 238 238 238 238 238 238 238 238 238 238 238 238 238 238 238 238 238 238 238 244 219  79  42  50  40  39  57  71  67  59  68  98 107 113 113 104  89  78  76  83  98 107 120 133 136 142 151 152 139 148 155 163 170 173 169 184 189 189 181 173 158 162 141 128 137 145 152 122 105 156  21  16 173 255 238 235 236 238 238 237 237 237 237 237 237 237 237 237 237 237 237
 238 238 238 238 238 238 238 238 238 238 238 238 238 238 238 238 238 238 238 238 238 248 178  48  48  44  39  53  62  64  64  76  89  87  95 108 108 100  93  94  80  89 108 122 124 121 107 109 117 128 134 136 153 155 163 178 186 180 173 172 177 150 146 137 124 138 143 119  76 116 181  40   0  12 160 252 245 235 236 237 237 237 237 237 237 237 237 237 237 237 237 237
 238 238 238 238 238 238 238 238 238 238 238 238 238 238 238 238 238 238 238 238 238 239 234 101  37  42  38  46  54  49  49  57  61  70  85 102 107 109 100 102 104  97  99 109 100  97 106  97 108 113 111 108 139 166 180 178 178 176 173 163 147 138 146 138 118 102 115  86  81 177 190  44   0   1   6  99 219 254 239 236 238 237 237 237 237 237 237 237 237 236 237 237
 238 238 238 238 238 238 238 238 238 238 238 238 238 238 238 238 238 238 238 238 239 236 251 130  38  50  35  37  50  38  38  40  35  50  84 105 101 111 117 113 109 111 105 105  90  97 100  92  91  97 101 121 155 181 186 178 174 171 159 161 144 125 125 115 103  98  94  74 130 193 195  52   0   5   6   2  36 155 247 244 236 236 236 237 237 237 237 237 237 236 237 237
 238 238 238 238 238 238 238 238 238 238 238 238 238 238 238 238 238 238 238 237 238 239 247 123  47  46  33  26  38  36  28  35  36  58  80  93  94 111 129 128 123 115 108  96  96  96  78  79  78  96 120 144 170 185 180 167 166 159 147 149 147 143 113  74  82  99  79 115 182 188 192  63   0   4   9  14   2   1  90 227 251 236 235 236 237 236 237 237 237 236 237 237
 238 238 238 238 238 238 238 238 238 238 238 238 238 238 238 238 238 238 238 238 237 254 135  45  61  36  31  24  27  27  26  26  36  62  67  85  93 107 123 125 118 114 113 101 104  99  90 101  95  92 128 161 162 176 173 165 161 161 156 125 120 134 142 100  76  57  94 179 187 183 192  76   0   5   7   8  11   6   1  47 196 254 239 236 237 237 237 237 237 237 237 237
 238 238 238 238 238 238 238 238 238 238 238 238 238 238 238 238 237 238 238 238 253 189   4  37  65  40  39  25  22  28  23  24  36  44  58  72  88  90 100 103 104 108 111 114 135 128 132 145 118 119 140 155 166 167 163 170 163 140 153 130 114 121 107  83  58  56 143 188 187 184 189 129   3   2   6   8   9   7   8   1  15 150 249 246 237 237 237 237 237 237 237 237
 238 238 238 238 238 238 238 238 238 238 238 238 238 238 238 238 238 238 238 246 227  41   0  37  62  41  35  32  28  30  17  22  21  33  44  62  75  84  85  86  91  96 113 117 140 147 157 155 143 148 155 139 156 154 161 163 172 154 132 125 103 106  92  55  39 126 181 185 185 182 181 178  52   1   6   8   8   5   8  12   2   2  88 205 252 244 239 238 236 237 237 237
 238 238 238 238 238 238 238 238 238 238 238 238 238 238 238 238 238 239 239 252  92   0   0  33  60  39  35  36  30  24  18  15  21  30  33  55  67  85  87  82  81  97 111 120 142 155 140 154 165 170 171 168 170 165 165 146 147 152 122  95  99  98  66  44  95 165 181 179 187 182 180 184  96   0   5   7   8   9   5   7   9   5   1  21 128 221 242 251 252 245 240 237
 238 238 238 238 238 238 238 238 238 238 238 238 238 238 238 238 238 239 254 181   0   1   0  31  59  38  33  28  30  24  17  17  24  21  24  40  50  69  72  77  86  95 107 129 138 140 147 163 151 150 162 174 172 165 141 139 105 134 112  84  81  75  55  61 151 184 186 184 184 182 182 180 119   1   3   7   8  12   7   6   7   7   8   6   3  35  71 105 146 201 231 248
 238 238 238 238 238 238 238 238 238 238 238 238 238 238 238 238 238 244 245  55   0   1   0  28  61  40  32  27  23  25  18  16  17  15  20  27  43  52  63  73  66  77 110 119 125 129 148 150 139 144 147 152 160 156 131 124 105 117  91  73  72  39  61 127 173 183 189 186 184 181 181 180 136   7   2   5   6   6   7   6   7   7   7   9   7   3   3   2   2  19  50  98
 238 238 238 238 238 238 238 238 238 238 238 238 238 238 238 238 241 253 111   0   0   0   0  26  61  39  32  29  29  24  24  18  15  12  14  13  36  43  52  62  53  79 105 108 113 117 136 126 129 127 128 126 134 131 107 111  89  86  70  52  48  50  99 170 184 191 191 184 184 180 181 179 144  16   2   9   8   6   7   7   6  10  10   6   6   7  10   9  10   6   4   2
 238 238 238 238 238 238 238 238 239 238 238 238 239 238 238 238 255 137   0   2   1   0   0  26  58  37  31  31  28  25  25  26  14  11  10  16  28  34  50  52  58  77  88  93 109 124 121 100 101  99 105 116 106 103  88  91  86  78  58  41  48 112 158 183 188 191 186 185 182 186 180 177 159  28   1   9   7   7   6   7   6   7   7   6   5   6   6   9  12  10   9   9
 238 238 238 238 238 238 238 238 238 238 238 238 238 238 237 253 192   5   1   2   1   0   0  27  58  39  32  33  31  27  25  23  24  15  10  11  17  25  27  37  52  61  70  72  85 101  97  80  84  90  88  98 100  92  81  74  59  45  39  62 116 169 178 180 189 184 181 178 182 185 180 177 169  41   1   7   7   7   7   8   7   6   6   7   7   7   9   7   7   8  10   9
 238 238 238 238 238 238 238 238 238 238 238 238 238 238 243 245  58   0   3   2   1   0   0  28  56  43  34  34  32  32  29  23  24  22  18   7   9   9   7  21  42  36  45  52  62  71  63  62  52  68  66  60  62  64  54  44  28  39  85 136 159 174 181 186 188 188 187 179 179 186 182 177 175  52   1   7   7   7   6   9   8   6   7   6   6   8  12   8   8   6   7  10
 238 238 238 238 238 238 238 238 238 238 238 238 238 239 255 124   0   2   2   1   1   0   0  26  55  44  38  34  33  35  31  31  31  28  26  19  12  11  15  18  13  19  23  24  29  38  36  50  38  37  35  38  31  41  32  33  48 109 146 159 161 175 180 189 188 184 186 178 184 189 183 177 175  52   1   7   7   6   6   6   6   7   7   6   5   6   7   7   8   7   6   9
 238 238 238 238 238 238 238 238 238 237 238 238 238 255 167   3   1   2   2   1   1   0   0  21  53  44  40  35  38  38  36  41  39  36  34  25  21  21  23  25   8  11  21  18  19  30  25  36  25  21  32  47  48  51  57 103 133 163 163 165 168 178 187 188 185 187 179 181 188 189 183 176 169  51   1   6   7   9   9   6   7   7   7   6  10   6   6   7   7   6   7   9
 238 238 238 238 238 238 238 238 237 238 238 239 246 184  16   0   1   2   1   1   1   1   0  10  45  44  42  38  39  45  43  48  47  44  42  34  26  27  29  32  28  24  30  33  41  47  52  53  63  61  88 104 110 116 139 157 162 172 164 173 177 181 182 184 185 185 178 186 187 185 182 174 162  45   1   7   6   9   8   6   7   6   7   6   8   7   6   5   6   6   6   7
