P2
# Generated by OpenCV 4.2.0
92 112
255
 237 237 237 237 237 237 238 238 238 238 238 238 238 238 238 238 238 238 238 239 240 240 240 240 240 240 240 239 234 240 242 247 253 250 181  72  61  96 128 118  65  30  47  43  26  40  81  64  58 138 192 153 141 139 195 255 247 243 243 239 242 240 240 240 240 240 240 240 239 238 238 238 238 238 238 238 238 238 239 239 237 237 237 237 237 237 237 237 238 238 238 238
 237 237 237 237 238 238 238 238 237 238 238 238 238 238 238 238 238 238 240 240 240 240 240 240 240 239 243 240 227 198 172 151 174 191 167  66  28  29  24  26  19  17  11   8  16  17  33  41  32  37  69  58  53  60  56 107 188 236 222 242 233 239 239 240 240 240 240 240 241 240 240 240 240 238 238 238 238 238 238 238 238 238 238 238 238 238 238 238 238 238 238 238
 237 237 237 238 238 238 238 238 238 238 238 238 238 238 238 239 239 239 240 240 241 240 240 240 241 240 229 225 197 125  58  23  25  24  38  37  13   9   9   7  18  20   8   4   9   7  20  30  20  11  11  18  19  19  19   7  37  95  94 201 196 205 218 237 241 241 240 240 240 239 240 240 240 239 239 239 238 238 238 238 238 238 238 238 238 238 238 238 238 238 238 238
 237 237 237 238 238 238 238 238 238 238 238 238 238 238 239 240 240 240 240 239 240 240 239 238 238 222 205 181 108  75  70  25  24  22   6   0   9   7   7  17  22  26  28  23  24  23  24  21  19  14  17  28  30  18  27  30  20  18  15  44 128 120 126 224 234 236 240 240 240 240 240 240 240 240 240 240 238 238 238 238 238 238 238 238 238 238 238 238 238 238 238 238
 236 237 237 238 238 238 238 238 238 238 238 238 238 239 240 240 241 240 240 239 239 239 238 243 208 108  75 108  54  19  43  31  16   2   5  11  13  18  23  23  20  27  25  21  24  19  23  28  30  31  28  26  32  32  23  18  28  30  30  26  50  64  60 168 178 233 244 239 240 240 240 240 240 240 240 240 239 238 238 238 238 238 238 238 238 238 238 238 238 238 238 238
 237 237 237 238 238 238 238 238 238 238 238 239 239 240 240 240 241 240 240 240 240 237 190 148 102  44  17  13   7   6  10  22  18  15  30  23  26  27  19  26  26  24  21  15  18  16  16  23  24  20  17  22  26  24  28  31  28  26  26  26  26  35  39  69  78 195 198 221 242 241 240 239 240 240 240 240 240 240 239 238 238 238 238 238 238 238 238 238 238 238 238 238
 237 237 238 238 238 238 238 238 238 238 239 240 240 240 240 240 240 240 240 240 239 231 165  34  14  20  13   6   8  25  27  23   9  27  31  28  28  21  27  23  16  19  11  11  16  14  13  19  16  13   9  10  11  15  22  22  21  15  20  21  22  22  31  24  27  59  90 172 230 230 240 239 240 240 240 240 240 240 240 239 238 238 238 238 238 238 238 238 238 238 238 238
 238 238 238 238 238 238 238 238 238 239 240 240 240 240 240 240 240 240 240 242 243 198  97  15  19  17  12  14  21  27  28  21  19  22  19  20  14  20  15  10   8   7   1  11  10  11  19  13   9   4   2   4   8  12  16  15  12  17  18  22  23  23  23  21  35  19  19 118 140 154 233 238 240 240 240 240 240 240 240 240 238 238 238 238 238 238 238 238 238 238 238 238
 238 238 238 238 238 238 238 238 240 240 240 240 240 240 240 240 240 239 243 249 180  63  10  12  22  16  17  22  30  25  10  21  28  19  17  14  15  17  11   8  10   7   5   8   9  20  17  15   7   2   4   8   9  12  10  11  15  20  21  22  26  27  22   5  10  31  42  43  33  40 164 240 242 240 240 240 240 240 240 240 240 239 238 238 238 238 238 238 239 238 238 239
 238 238 238 238 238 238 238 239 240 240 240 240 240 240 239 240 239 248 225  98  20  13  20  16  10  17  17  28  26  18  14  20  19  20  18  16  17  13  11  12   9   7   7   8   7   9   5   8   6  11   9   5   3   3   4   6  14  13  15  17  14  16  27  23  14  25  29  35  38  24  61 198 245 240 240 240 240 240 240 240 240 240 239 238 238 238 238 238 238 239 238 237
 238 238 238 238 238 238 239 240 240 240 240 240 240 240 241 240 247 217  97   5  10   9   9  13  24  18  16  32  18  11  12  19  21  20  18   5  14  14  10  10   8  13  13   8  11   9   7   0   4  16  10   4  11  11  19  12  11  15  12  13  22  18  18  32  31  25  10  16  34  41  52 199 239 240 240 240 240 241 241 240 239 240 240 238 237 238 238 238 238 239 237 233
 238 238 238 238 238 239 239 240 240 240 240 241 240 239 239 249 211  80  12   6  17  12   8  15  29  13  17  24  18  15  21  30  26  18  10   1   6  13   6  13  14  17  16  12  16  17  14   7  12  13  13  15  13  18  21  14  11   8  10  17  15  17  16  13  17  30  19  20  19  26  35  88 113 231 248 240 240 240 240 240 240 240 240 240 239 238 238 238 238 239 236 232
 238 238 238 238 238 239 240 240 240 240 240 239 238 238 245 216  72  18   4  12  20  15  15  21  18  13  24  19  20  23  26  27  16  19  14   5  14  17  16  12  17  20  23  18  19  21  14  12  15  12  16  18  21  25  24  14  14  10  13  15  17  14   8  10  13  14  23  21  13  18  23   5  56 167 221 242 240 240 240 240 240 240 240 240 240 239 239 239 239 239 237 233
 238 238 238 238 238 240 240 240 241 240 240 239 240 241 222  89  16  24  12  20  18  16  26  17  12  17  24  26  25  17  21  23  13  16  15  15  19  21  18  15  18  18  24  22  14  13  16  15  13  22  24  25  34  27  16  13  13   9  12  16  15  25  20  14  14  10  11  20   7  11  36  21  11  25 149 244 242 240 240 240 240 240 240 240 240 240 240 240 240 239 238 234
 238 238 239 240 240 240 240 239 240 240 240 240 240 241 154  17  23  21  22  20   7  11  16  13  25  22  23  28  28  20  19  15  20  24  19  26  19  22  17  12  15  21  16  18  18  14  14  12  28  26  17  18  22  25  19   6   4  10  10  13  11  15  11  13  17  12   9  17  15  10  27  35  27   9  73 226 238 238 240 240 240 240 240 240 240 240 240 240 240 240 239 236
 239 239 240 241 240 240 240 240 240 240 240 240 247 208  58  19  24  25  20  13   1  18  11  16  28  36  25  26  28  24  17  13  23  27  33  24  25  23  19  15  14  15  12  21  27  40  26  22  16  11  21  21  15  21  31  38  19   5   2   3   7   9  11   6   9  10   8   9  11  15  27  36  33  33  24 122 234 241 240 240 240 240 240 240 240 240 240 240 240 240 240 238
 240 240 240 240 240 240 240 240 240 240 241 241 237 112  20  15  22  19  11  10  14  26  17  24  35  33  24  27  21  26  25  21  23  33  38  43  38  28  21  19  12   8  15  18  26  32  30  36  29  21  22  30  21  17  11  20  40  39  22   9   3   1   4   6   4   3   8  13   9  12  16  15  10  28  32  36 165 210 240 238 240 240 240 240 240 240 240 239 240 240 240 238
 240 240 240 240 240 240 240 240 240 240 240 245 207  49  20  20  22  13  12  12  24  24  19  37  32  30  36  32  30  27  25  26  20  20  29  47  46  30  18  13  10  11  14   9   9   8  26  35  29  32  19  10  20  20  26   9   6  20  30  23  15   4   3   5   4   6  10   7  10   7  11  23  12  10  14  20  50 157 236 241 240 240 240 240 240 240 240 240 240 240 240 238
 240 240 240 240 240 240 240 240 240 240 241 237 141  25  29  14  11  11  12  16  27  15  30  41  38  36  36  42  40  39  41  39  31  34  44  50  49  34  32  37  36  42  30  31  24   8   9  25  22  12  25  21  14  17  18  27  11   5  15  21  19  15   9   7   7   9  10  14  10  14  21  21  24  18  10  17  36 136 236 243 241 240 240 240 239 240 240 240 240 240 240 238
 240 240 240 240 240 240 240 240 241 240 242 219  82  27  28   4  12  13  10  21  29  23  42  44  43  26  34  44  34  31  42  45  51  52  46  32  24  26  28  53  50  59  57  32  32  24  15   8  14  17  15  26  24  21  22  26  35  17  14  21  15   9   7   7   8  12  15  17  13  14  19  14  23  29  15  19  22  71 203 231 237 240 240 240 240 240 240 240 240 240 240 239
 240 240 240 240 240 240 240 240 240 240 231 139  45  37  19   5  14  15  13  29  31  48  54  50  33  36  43  49  51  55  55  62  58  42  39  30  30  32  36  53  69  53  56  49  34  26  21  14  14  24  24  31  35  34  30  28  44  35  30  25  30  17  10   7   9  12  18  17  17  16  15  10  12  26  24  17  12  29  85 197 231 239 241 240 239 240 240 240 240 240 240 239
 240 240 240 240 240 240 240 240 241 239 171  56  33  28  17  11  13  17  20  36  64  67  63  49  36  48  50  51  55  62  60  56  59  52  57  56  54  68  83  90  99  94  61  61  53  35  22  20  24  31  41  50  72  61  53  51  57  56  42  40  39  33  21  16  18  17  15  16  12  11  11  15  35  29  13  23  18  13  22 132 243 241 239 240 240 240 240 240 240 240 240 240
 240 240 240 240 240 240 240 240 240 248 170  43  26  22  17  11  17  23  35  67  75  71  62  42  49  61  70  75  81  94 101 101  93  89  96 110 108 104 112 124 134 139 127  84  67  50  38  29  31  32  38  55  80 102  79  84  88  86  72  58  57  49  35  29  23  24  20  14  15  13  12  18  30  10  19  25  31  20  28  70 194 241 240 240 240 241 240 240 240 240 240 240
 240 240 240 240 240 240 240 240 239 243 170  57  33  23  16  19  23  31  54  65  67  70  47  51  61  74  96 108 115 117 126 137 141 140 146 148 153 139 134 139 142 141 149 142 103  77  60  51  43  43  51  52  81 110 108 120 128 118 106  87  88  75  63  50  40  36  34  27  23  22  21  20  20  27  42  29  31  20  21  58 135 226 243 240 240 240 240 240 240 240 240 239
 240 240 240 240 240 240 240 240 241 243 181  54  30  27  25  25  22  46  65  63  69  52  58  80  86 110 124 135 144 151 162 165 169 174 170 174 173 172 171 171 164 159 163 154 146 119 100  86  68  59  72  93 108 130 138 145 157 146 136 131 125 105  87  70  59  57  54  49  34  28  26  20  12  15  16  21  21  21  12  17  95 219 242 240 240 240 240 240 240 240 240 239
 240 240 240 240 240 240 240 241 242 242 138  41  38  37  27  23  29  61  67  62  64  62  99 106 131 150 151 158 166 175 180 185 187 185 182 184 182 181 184 183 183 181 181 178 167 161 146 130 121 115 111 122 142 161 171 169 170 170 161 155 147 135 129 106  82  86  71  68  55  50  41  32  25  17  10  13  18  31  24  19  36 172 246 240 240 240 241 240 240 240 240 239
 238 238 240 240 240 240 240 240 244 212  88  41  37  35  25  27  34  66  68  58  61  95 119 132 164 163 164 171 179 182 188 189 191 190 190 192 192 188 188 189 185 183 179 177 175 173 171 163 156 159 164 162 167 173 179 181 175 175 170 165 160 158 156 142 113 101  92  78  76  77  68  58  45  29  13  11  13  33  23  11  19  78 212 246 240 240 240 240 240 240 240 240
 231 235 238 238 239 240 240 241 243 160  55  43  36  35  34  24  35  71  65  59  91 123 132 159 173 171 173 181 186 188 192 195 198 196 196 196 199 194 193 198 195 192 191 190 192 191 187 184 180 179 180 181 185 182 184 186 181 177 173 170 166 162 156 146 123 107 107  90  75  91  87  81  70  48  25  11  20  31  32  18  15  53 181 244 240 240 240 240 240 240 240 240
 225 228 232 236 239 240 240 240 243 155  49  45  36  34  33  22  49  68  59  83 120 140 149 168 180 179 180 184 190 193 197 198 198 200 199 199 200 198 197 199 201 200 199 199 201 197 195 193 191 190 191 191 190 191 190 189 186 182 179 175 171 168 159 153 155 156 140 121  98 101 101  94  90  73  46  25  22  17  35  30  15  30 166 243 238 240 241 240 240 240 240 240
 220 222 226 232 238 240 240 242 240 122  48  40  40  38  33  44  69  63  75 107 142 154 163 175 186 184 188 191 195 199 204 206 200 200 202 204 205 202 202 202 202 204 205 205 203 200 201 198 196 196 197 197 196 192 194 191 188 184 180 177 177 174 172 170 162 158 149 138 129 121 113 107 106  93  67  37  21  15  34  32  13  32 126 230 240 239 240 240 240 240 240 240
 217 219 222 228 235 238 240 241 244 141  49  46  41  38  51  57  76  73  95 132 164 168 174 179 184 190 195 200 201 202 206 207 206 209 207 206 208 208 209 208 206 207 207 208 207 205 204 202 199 199 200 199 197 192 192 191 185 183 180 179 178 179 178 175 167 159 158 151 141 134 126 118 112 104  81  54  38  23  27  35  18  19  95 222 238 239 240 240 240 240 240 240
 213 217 219 224 230 236 240 241 243 141  48  47  42  51  53  63  84  92 121 154 172 179 181 181 188 197 201 200 203 203 205 207 205 206 208 208 211 209 213 211 209 209 210 211 210 211 210 205 201 203 205 198 199 195 194 193 189 187 183 183 182 181 179 178 171 161 156 153 147 141 131 125 117 108  94  72  54  32  21  34  21  20 106 230 237 237 240 239 240 240 240 240
 209 213 218 221 227 234 241 242 243 136  55  48  52  45  58  82  92 105 134 162 178 187 187 184 193 199 201 201 202 201 203 204 204 204 206 211 211 211 213 213 212 215 215 214 213 212 214 210 202 206 207 203 198 194 193 195 191 186 186 187 185 183 178 179 175 161 157 156 149 147 134 131 122 112  97  83  70  37  20  24  24  31  74 203 238 236 237 239 240 241 240 240
 211 212 216 219 224 232 239 243 234 115  68  55  46  50  73  91 101 115 141 167 186 191 191 187 193 199 196 201 202 203 203 201 204 204 207 210 212 213 217 214 213 216 217 216 215 213 213 210 207 207 209 208 200 198 199 197 193 185 185 188 185 186 184 180 176 166 161 159 151 147 139 137 131 120 101  89  84  51  20  24  19  27  35 162 242 235 236 237 239 240 240 240
 210 212 216 219 222 231 238 243 227 115  74  56  50  55  84  98 102 122 145 173 191 194 191 186 191 198 199 197 201 203 200 199 205 206 210 209 212 216 215 215 216 214 216 215 216 214 211 208 206 206 208 208 205 203 200 197 193 189 188 188 188 188 185 181 175 168 162 158 152 148 143 143 134 125 108  94  93  69  27  29  34  18  20 104 232 235 236 236 238 239 240 240
 209 212 217 219 222 229 237 243 229 119  69  57  57  73  90  97 105 126 153 175 192 195 192 193 193 199 201 201 201 201 201 201 203 208 212 208 212 216 216 218 216 216 217 215 214 213 211 211 207 205 207 206 205 203 197 199 195 190 187 186 188 187 185 179 175 167 161 158 154 153 145 144 137 125 111 100  94  78  38  21  45  38  28  64 195 236 235 236 238 239 240 240
 211 212 217 219 221 229 237 242 236 133  73  69  70  82  95 101 112 129 152 175 190 194 196 193 195 198 202 200 201 200 199 200 200 202 202 203 205 210 215 213 215 218 220 222 218 212 211 211 208 206 205 208 206 205 202 201 195 190 185 184 186 186 184 177 171 169 164 157 156 154 144 140 138 124 112 105  99  83  39  24  41  46  38  78 203 238 233 235 237 238 239 240
 212 211 215 218 221 229 238 242 238 129  73  73  72  87  99 101 111 132 157 176 186 193 196 191 196 198 201 197 201 202 200 202 205 206 204 208 209 207 210 209 211 213 214 214 215 213 212 209 207 208 207 207 205 204 205 200 193 188 185 180 182 185 180 174 172 168 165 158 156 155 145 139 135 124 117 112 105  88  51  26  37  39  42  97 220 235 233 234 236 238 239 240
 207 207 213 219 223 231 239 244 228 101  80  80  77  90 103 103 113 132 158 174 184 194 193 193 197 198 199 201 202 201 204 204 206 205 208 212 214 216 214 217 216 217 216 214 211 207 206 208 209 205 205 203 203 204 204 199 190 184 185 183 182 185 185 178 173 165 161 157 154 151 149 142 136 121 115 115 109  91  58  37  30  33  37 101 226 234 233 233 235 237 239 240
 200 204 212 218 223 233 239 246 209  92  78  81  92 100 105 110 111 130 161 178 182 191 193 192 198 200 198 199 198 199 203 205 206 205 208 211 213 213 215 216 217 215 214 219 219 210 206 206 202 201 200 202 199 199 200 197 192 188 186 185 187 189 184 179 171 162 159 156 150 150 151 144 135 120 115 116 111  93  60  44  42  33  31 136 236 231 232 233 234 237 238 240
 199 203 210 214 220 234 240 248 180  76  74  82  95 106 103 111 117 141 169 185 188 187 194 196 198 202 200 198 199 200 200 201 202 203 205 206 213 215 216 216 216 214 212 212 214 209 206 205 202 204 202 200 201 199 195 193 190 190 185 186 187 186 183 180 174 164 160 153 153 153 148 139 133 123 118 118 111  98  66  48  47  45  32 129 238 232 232 232 233 235 237 240
 202 206 212 212 216 229 236 246 175  74  79  88  99  99 105 117 130 158 178 186 191 189 193 197 201 203 202 199 201 203 201 202 204 203 205 205 207 211 212 215 217 215 212 210 211 206 205 204 201 200 202 201 204 203 200 200 192 191 193 191 187 186 184 175 169 163 161 153 155 153 144 136 132 127 122 120 111 101  75  54  50  46  43 131 231 233 231 232 233 234 236 239
 212 213 215 213 216 225 229 242 187  80  78  90  99  98 105 125 155 170 182 187 191 192 195 198 201 205 203 203 201 201 204 204 205 204 207 209 208 213 215 214 213 214 213 210 208 204 201 199 201 201 201 206 208 208 208 203 197 195 192 187 189 189 183 172 167 159 159 155 155 151 141 138 138 131 121 117 106  99  85  72  54  47  57 155 232 233 231 232 233 234 236 238
 221 220 219 218 219 222 224 236 181  73  65  91  97 102 105 137 174 179 185 187 189 194 193 197 202 205 204 204 202 202 206 208 207 205 207 206 211 214 216 216 217 215 206 206 204 203 200 200 199 200 205 210 210 212 210 202 198 193 189 187 184 184 180 171 165 162 161 153 150 151 146 142 137 128 124 114 100  94  92  80  68  45  54 177 239 231 231 231 232 233 236 238
 228 226 222 220 220 219 222 230 193  81  76  96 102 106 113 146 175 184 185 187 191 194 195 197 204 208 207 206 206 207 207 206 207 206 205 207 210 214 216 215 217 213 209 208 206 203 198 196 191 200 208 210 214 213 209 206 201 193 192 191 183 181 175 166 161 161 156 152 152 152 150 145 138 128 125 113 103  89  86  78  68  51  71 190 238 232 231 231 232 233 235 237
 230 227 223 220 220 220 221 226 199  91  90 110 107 109 120 145 176 185 186 189 188 191 195 202 206 206 207 207 204 208 209 209 210 209 207 210 210 210 211 212 217 212 213 209 206 203 200 187 193 203 210 212 214 214 207 203 198 193 193 189 183 178 171 165 164 160 154 157 157 156 154 153 142 129 122 114 104  90  82  78  73  52  97 225 235 232 231 231 232 233 235 237
 229 229 229 223 219 219 220 225 206 104  95 107 102 106 123 148 177 184 185 191 187 190 193 200 203 203 208 211 211 210 211 211 210 211 207 205 210 210 213 211 212 211 212 207 204 204 197 190 195 207 214 211 214 214 205 201 195 193 193 184 180 176 167 166 168 165 163 162 161 160 159 153 142 130 122 112 103  94  81  73  72  56 102 228 235 233 231 232 232 232 234 236
 226 229 230 227 221 218 215 221 208 115  98 101 102 113 123 154 178 182 188 195 188 191 194 200 203 204 209 210 208 209 210 209 206 206 204 203 204 205 212 215 212 211 209 207 205 201 193 190 193 209 212 204 211 210 207 198 192 190 187 183 182 178 167 168 170 170 172 169 164 164 162 155 142 134 122 107 104  98  78  67  72  61 136 235 234 232 230 231 231 232 234 236
 220 223 223 223 223 208 195 195 184 115  99 108 107 113 129 155 183 185 190 193 188 189 194 196 201 202 201 200 190 193 197 199 200 200 204 201 198 201 203 205 208 209 206 204 205 195 186 182 182 190 198 194 201 205 200 193 189 184 184 185 177 175 171 176 174 178 177 174 170 169 162 154 143 131 117 106 106  99  77  67  69  69 168 237 232 232 231 231 231 232 234 236
 215 219 219 221 212 196 200 204 181 123 110 106 107 110 127 163 186 186 191 192 189 191 190 196 192 185 180 178 177 175 174 170 173 182 180 178 184 196 200 199 199 197 196 198 198 192 183 177 173 179 187 193 198 199 193 194 194 187 185 181 177 174 170 176 179 180 181 177 172 171 166 154 142 132 114 106 106  99  75  67  61  74 185 238 233 232 231 231 231 232 234 236
 216 219 218 223 191 158 197 213 212 158 113 103 104 114 132 169 185 187 192 196 187 182 182 176 162 151 140 136 146 151 146 137 134 138 138 135 150 160 170 185 184 189 187 192 194 187 178 171 170 172 178 188 186 188 186 183 189 188 184 179 177 173 173 173 177 173 175 175 170 163 162 154 141 130 111 107 112  99  71  69  57  80 205 238 232 232 232 231 231 232 233 235
 224 225 220 222 211 131 144 207 210 175 134 113 101 117 131 162 187 189 190 192 175 154 142 133 126 120 111 112 107 104  94  89  82  82  95  99  99 116 119 133 157 159 165 178 182 184 178 171 169 170 179 180 180 180 175 173 180 182 180 176 170 163 162 163 170 168 171 163 158 167 154 150 141 127 111 107 114  96  72  67  60 105 220 235 232 232 232 231 231 232 233 235
 229 231 226 221 226 195 142 176 203 195 179 119  98 115 127 161 188 193 190 175 160 147 137 127 125 122 121 135 138 137 129 114 109 107 101  82  74  83  88  94 114 131 142 151 164 177 178 172 171 173 179 177 172 165 159 158 149 142 147 139 129 120 108 117 130 139 136 139 137 153 142 124 128 123 110 108 116  92  64  61  52 117 232 234 232 232 231 231 231 232 233 235
 231 229 226 223 229 217 168 156 186 202 195 137  98 106 125 161 187 192 187 183 183 166 149 133 137 150 158 166 166 150 134 123 114 102  99 107 106 104 102 107 114 124 136 149 159 177 177 174 170 170 177 173 165 152 137 137 115 110 107  96  84  82  65  57  65  81  85  84  96 116 116  98  91 105 110 108 114  85  65  55  53 107 229 236 232 232 233 231 231 232 233 235
 232 226 221 222 229 225 177 158 169 187 197 166 107 100 126 169 188 189 191 187 191 187 177 167 165 171 156 122  79  61  43  43  55  57  52  66  97 106 116 128 125 131 143 154 169 182 190 180 170 173 173 165 155 137 123 107  99  94  80  62  65  74  78  77  89  93  91  81  74  81  75  79  78  88 103 115 114  78  61  51  56 124 227 230 235 231 232 231 231 232 234 236
 230 221 217 218 223 227 194 172 172 174 185 181 122 100 133 177 189 190 193 188 184 193 190 187 184 158  97  54  75 136  81  82  63  57  84  91 125 102 120 130 139 143 151 160 179 192 199 191 185 176 170 155 142 126 110 103  96  87  83  74  61  63  73  83 103 125 132 126 107  95  82  70  72  81  98 116 116  70  53  51  58 104 142 146 201 236 232 231 231 232 234 236
 226 218 214 216 221 221 205 179 185 178 167 183 135 108 148 183 189 192 195 196 194 191 191 189 175 146 116 122 140 156  91  74  56  64  94 118 175 116 109 148 147 149 155 170 188 202 209 200 184 171 164 146 125 107 101 104 106  96  88  55  65  63  38  40  40  58  63  95 124 131 116  96  87  88  95 115 114  66  53  47  55  80 120 134 147 225 235 231 232 232 234 236
 220 216 214 219 220 214 206 181 190 185 162 170 145 121 161 185 190 196 198 191 190 195 184 173 165 172 181 180 165 159 145 118 117 114 105 147 157 126 107 129 168 162 166 178 194 209 218 211 185 172 157 131 106 102 115 121 104 111 149  88  83  45  43  65  71  98  50  35  80 123 122 107 106 108 105 120 113  62  50  40  53  92 136 127 128 224 233 232 232 232 234 236
 218 216 217 219 215 210 206 190 198 185 165 168 158 136 167 187 193 199 201 200 197 199 195 198 198 195 195 196 192 189 181 183 171 166 159 151 152 149 163 153 174 181 178 177 199 214 217 208 192 172 147 113 112 129 144 100  94 133 156 110  86  78  75  62  99 122  95  56  50 102 123 118 120 116 113 121 109  63  43  42  70 108 114  97 187 237 231 232 232 232 234 236
 223 221 219 216 210 212 211 195 201 184 170 180 159 159 178 190 194 197 201 208 207 207 208 203 200 196 198 195 194 193 193 191 186 184 186 177 171 166 180 192 189 188 186 182 203 216 216 204 189 168 136 110 136 165 157 138 152 153 152 158 153 141 127 109 119 119 117 103  90 118 131 129 129 120 115 130 104  65  46  59  96  97  90 190 241 232 231 232 232 233 235 236
 227 221 216 214 213 218 215 194 200 178 178 195 169 173 183 192 196 198 203 209 204 202 203 205 208 202 191 184 178 174 172 173 173 173 172 164 163 168 172 180 186 193 191 187 206 212 211 204 187 164 127 118 147 168 166 168 177 177 175 184 181 160 161 151 132 140 137 120 119 125 125 127 128 117 118 132 100  56  52  83  98  85 177 242 233 232 231 232 232 233 235 237
 219 215 216 217 218 222 218 201 205 185 193 198 180 179 186 195 197 200 204 202 206 210 212 212 201 197 200 198 195 186 176 175 174 175 176 180 185 188 187 190 197 193 189 194 207 215 209 201 188 166 131 124 147 162 164 163 162 165 164 166 168 165 158 160 148 137 130 132 147 141 134 139 143 134 122 129  99  63  75  93  86 155 237 234 232 232 231 232 232 233 235 237
 213 218 220 220 222 223 220 200 212 193 194 198 182 182 186 192 198 200 202 206 212 212 214 214 210 208 209 211 209 207 208 204 202 201 201 202 202 201 201 202 204 199 195 197 206 216 208 196 188 166 128 126 149 162 164 171 174 171 165 156 153 146 141 136 132 130 141 156 152 141 152 152 143 143 130 133 106  74  89  88 119 222 237 232 231 231 232 232 232 233 235 237
 218 221 222 221 223 227 230 196 210 203 192 200 181 178 184 191 195 196 200 209 212 213 213 212 213 211 211 210 205 209 209 207 206 208 209 209 207 208 208 204 202 200 197 195 206 217 210 195 183 162 124 129 155 164 169 171 183 184 178 182 176 168 164 161 159 157 153 150 153 161 154 155 149 143 130 134 115  81  77 100 193 239 232 232 231 231 231 232 232 233 236 238
 221 222 222 222 226 231 237 200 193 211 200 202 186 179 184 192 193 195 204 210 210 210 211 213 210 211 213 215 212 211 211 212 210 208 209 216 213 211 208 203 200 198 198 198 210 217 213 197 187 156 120 132 153 163 170 175 180 187 188 182 182 186 182 179 175 168 167 166 161 165 156 152 158 148 132 132 122  92  73 150 238 233 232 232 231 231 231 232 232 234 236 238
 217 218 218 224 229 233 235 215 195 211 201 203 193 178 184 188 191 198 206 209 208 213 212 211 212 214 214 214 214 212 213 215 214 212 216 215 213 209 203 202 201 199 195 197 208 215 215 197 183 155 125 130 152 160 166 173 182 189 193 190 184 189 188 187 183 174 171 166 162 164 166 162 156 153 135 134 127  96  90 207 238 233 232 232 231 231 231 232 232 234 236 238
 215 215 220 225 228 228 225 217 200 203 208 201 191 179 184 187 195 200 205 207 208 212 213 213 214 212 214 213 216 216 214 212 216 214 214 212 211 204 202 204 200 198 199 202 204 211 209 198 181 156 136 130 148 155 163 172 180 188 196 201 197 188 190 183 183 184 175 170 169 167 167 165 155 143 135 130 131  98 106 227 235 232 232 232 231 231 231 231 232 234 236 238
 216 217 220 223 223 221 217 216 205 196 192 191 181 182 183 185 196 200 202 205 204 206 209 211 214 213 216 218 215 217 217 214 215 212 210 209 210 208 205 203 199 199 201 205 208 213 212 199 182 158 144 131 140 153 158 166 177 181 190 198 202 194 192 186 183 183 177 173 166 164 158 159 157 142 130 129 129  97 113 225 235 232 232 232 231 231 231 231 232 234 236 238
 221 220 218 219 219 219 218 218 207 201 196 178 171 185 183 184 194 200 200 198 200 206 210 215 216 212 216 221 220 220 218 214 212 209 208 208 212 205 208 207 201 199 200 207 211 219 219 203 181 163 148 138 138 153 160 168 179 187 190 194 198 199 202 198 188 184 177 175 169 160 156 153 152 141 122 121 128  96 126 230 234 232 232 232 231 231 231 231 232 234 235 237
 221 218 217 219 220 220 222 224 213 192 203 199 186 182 184 185 193 198 196 193 200 205 210 213 211 212 215 220 223 219 213 212 207 205 208 212 213 205 203 198 196 198 203 210 214 217 217 205 182 166 157 147 132 143 162 172 179 185 186 193 199 204 202 202 196 186 179 174 168 161 158 149 144 135 116 122 123  88 144 237 232 231 232 232 231 231 231 231 231 233 234 236
 222 221 220 223 226 228 229 230 232 199 184 201 200 182 183 185 191 192 192 192 199 202 205 208 209 207 213 219 225 220 211 206 202 201 203 205 206 196 196 196 195 198 204 212 215 214 218 207 181 170 165 152 130 127 156 176 181 188 186 191 200 205 202 201 200 188 181 176 168 162 157 148 136 128 112 125 115 106 201 238 234 232 232 232 231 231 231 231 231 233 234 236
 228 228 230 231 234 236 236 238 239 234 187 179 187 182 182 184 188 188 189 195 194 196 203 206 202 202 211 221 229 222 207 200 196 192 196 198 200 192 201 206 198 201 208 214 217 217 220 204 182 176 168 156 139 136 144 166 182 186 187 191 204 204 202 201 198 196 183 175 170 161 151 142 130 124 111 123 102 136 238 233 232 231 232 232 231 231 231 231 231 233 234 236
 235 236 238 239 239 241 242 241 242 244 234 193 172 180 184 183 185 186 184 187 184 190 198 201 200 203 200 209 216 211 201 192 187 181 186 196 191 192 211 209 201 204 214 215 216 219 216 204 184 177 173 166 151 148 146 147 178 185 190 192 200 201 204 204 196 191 184 174 166 157 146 135 124 119 110 124 101 179 239 232 232 232 233 232 231 231 231 232 232 233 235 236
 240 240 242 242 242 243 243 242 241 240 239 237 217 187 182 181 184 181 184 185 183 190 195 195 197 198 196 201 198 184 182 179 175 174 185 194 185 191 214 210 199 202 214 215 216 217 213 202 188 184 177 167 147 145 150 132 164 178 185 193 199 203 203 201 192 188 181 172 164 156 145 132 121 113 112 123 102 198 238 232 232 232 232 232 232 232 232 232 233 233 235 237
 242 241 242 243 243 243 242 241 240 237 231 226 225 194 181 183 182 179 180 183 182 184 188 191 193 192 191 189 185 175 169 165 161 173 186 192 185 185 208 210 196 183 192 204 213 227 224 206 195 182 165 149 130 138 146 117 154 170 174 185 192 196 197 197 190 183 174 170 162 152 139 125 118 109 112 117 100 199 238 232 232 232 232 232 232 232 232 232 233 235 236 238
 240 240 239 240 241 241 241 241 239 233 224 215 211 191 180 183 181 178 179 179 176 179 185 189 185 182 182 180 171 161 151 148 165 186 198 198 192 178 182 181 170 153 157 177 190 211 212 206 192 166 137 121 122 132 130 104 147 169 169 172 177 184 191 194 185 177 172 169 156 145 133 122 115 105 112 107 114 222 236 233 232 232 232 232 232 232 232 232 234 236 237 239
 232 231 232 233 235 239 240 238 236 228 217 203 193 185 181 180 182 180 181 177 173 177 179 179 174 173 170 161 150 140 143 165 190 198 199 196 197 182 149 125 115 110 107 135 166 178 175 175 168 132  90  84 100 118 106 106 154 168 172 173 176 183 188 186 182 174 166 160 148 140 127 117 112 103 110 101 173 240 232 232 232 232 232 232 232 232 232 234 235 237 238 240
 217 219 220 222 225 230 233 234 230 225 211 191 173 179 182 181 184 185 181 174 175 177 176 171 166 162 156 146 142 155 178 188 192 195 192 180 172 173 156 131 132 141 138 121 128 137 136 134 118  73  52  66  85  88  89 130 158 167 170 174 176 178 175 176 183 173 164 155 143 133 121 112 105 101 106 164 236 234 233 232 232 232 232 232 232 232 233 235 236 239 239 240
 201 203 205 208 211 216 223 226 223 218 208 186 166 174 184 179 178 186 183 174 180 179 177 168 159 159 154 156 162 166 184 179 184 177 161 164 166 159 150 140 132 127 149 151 138 109 101  98  74  66  78  81  99  98 109 132 145 163 166 176 178 172 170 170 173 169 163 154 140 125 113 105 102 101 107 208 240 233 233 232 232 232 232 232 232 232 233 236 237 238 239 240
 186 190 194 197 199 203 210 217 217 211 203 189 169 176 185 175 178 185 184 181 179 178 177 169 164 165 165 162 149 147 156 160 164 152 148 145 152 150 142 135 115 100 119 147 151 129 105 101 105 104 101  78  79  94  98 116 137 158 168 174 179 177 169 170 168 163 153 148 133 118 106 101 101  98 120 225 236 233 233 232 232 232 232 232 233 233 234 237 238 239 240 240
 178 185 191 191 191 193 198 204 207 204 196 187 171 173 185 177 179 183 184 181 180 179 182 178 175 170 165 147 132 130 125 136 143 140 142 129 124 135 138 129 113 111 111 124 123 145 141 129 120 104  85  76  77  88  96 117 126 141 162 173 177 182 175 168 166 155 147 137 124 110  98 100 102  97 138 236 234 233 233 232 232 232 232 232 232 233 236 238 240 240 240 240
 183 193 200 201 195 191 191 195 196 195 192 183 171 171 182 179 180 183 183 181 179 184 185 183 162 142 132 129 106 113 112 122 137 123 119 130 118 132 132 134 118 100 104 105 113 144 146 127 108 100 101  95  63  87 105 112 122 127 141 159 153 167 171 164 163 154 145 130 118 104  98 104 104  97 157 240 233 233 233 232 232 232 232 232 232 234 236 238 240 240 240 240
 196 206 215 217 211 198 190 190 188 186 186 181 171 169 181 179 176 176 178 178 178 188 189 181 153 135 128 120 112 115  98 129 134 132 136 139 129 128 126 142 106 104 104 102 123 148 138 117  99 100  96 102  77  80  93  96 102 109 114 125 132 151 161 161 155 158 146 128 110  97 104 106 103  93 182 239 233 233 233 232 232 232 232 232 233 235 237 239 240 240 240 240
 206 216 226 228 222 211 195 189 185 181 181 178 171 167 177 178 175 174 179 179 174 181 189 196 179 141 130 122 130 128 125 144 134 148 155 157 153 133 135 147 148 139 114 118 144 149 129 112  96 104 101 106  87  80  78  90  90  99  96  93 107 128 144 146 149 158 152 125 103 103 114 109 102  97 201 240 233 233 233 232 232 232 232 233 233 236 238 239 240 240 240 240
 211 222 234 236 230 219 203 189 185 179 180 180 173 166 169 174 177 173 174 178 162 178 191 195 160 129 130 136 128 123 139 146 152 162 167 173 171 160 155 164 180 182 156 133 135 142 148 124 121 105 127 117 105 109  88  90  94  92  94  81  82  97 112 121 141 156 154 123 101 116 119 111 101 111 221 237 233 233 232 232 232 232 232 233 233 236 238 240 240 240 240 240
 208 222 235 241 234 221 207 190 187 184 184 184 178 171 168 172 176 177 174 171 167 170 183 187 173 155 132 148 146 141 137 132 152 166 177 178 182 180 179 179 188 193 189 184 174 162 173 164 157 157 163 149 139 132  99  96 103  92  98  87  88 100 113 116 119 162 152 110  98 117 112 103  96 135 236 235 233 233 233 233 232 232 232 233 234 235 238 240 240 240 240 240
 205 220 232 237 232 220 203 189 190 189 190 187 181 172 167 168 171 176 177 173 176 169 175 184 188 176 157 164 161 164 168 169 153 140 128 125 122 123 126 128 135 149 157 171 178 180 180 176 168 168 164 161 159 148 120 120 106  94  95  89 101 114 111 103  99 153 143  95  95 115 109 102  93 164 241 233 233 233 233 233 232 232 232 233 235 236 238 240 240 240 240 240
 201 215 226 229 226 215 199 189 188 185 183 182 179 171 160 167 167 172 178 179 180 170 171 178 184 177 168 162 175 183 188 195 187 173 158 140 130 127 118 110  97  96 100 105 111 122 119 119 115 113 113 116 125 136 134 132 110  94 102 107 110 112 112 101 107 150 124  83 100 114 104  98  93 194 240 233 233 234 233 233 232 232 232 233 235 237 238 241 240 240 240 240
 193 205 215 218 217 208 191 181 174 173 175 177 176 165 147 160 167 171 177 179 173 166 167 176 186 180 156 153 175 189 197 196 195 194 195 191 185 181 174 165 158 148 136 113  96  86  86  81  81  80  78  76  73  72  84 100 101  93 102 113 116 114 118 108 122 142 104  84 114 111 103  90 111 224 237 234 234 233 233 233 233 233 233 234 236 238 241 240 240 240 240 240
 181 193 202 206 205 193 174 159 155 161 166 169 167 153 134 140 162 169 173 174 173 164 168 170 182 181 167 148 168 193 202 198 199 199 192 194 192 188 190 188 190 192 189 181 169 154 146 140 138 129 122 119 104  81  76  86  97 114 143 141 126 122 111 104 125 116  82  99 116 100  98  86 145 241 235 234 233 233 233 233 234 233 234 235 237 239 240 240 240 240 240 240
 167 178 186 189 184 169 147 134 136 145 150 155 150 136 124 126 156 163 164 172 179 151 153 168 172 180 172 146 174 192 193 203 206 200 191 187 192 187 186 189 190 189 186 183 175 176 175 173 168 155 140 132 124 118 123 120 124 140 173 168 144 125 125 118 115  95  75 107 110  98  93  86 191 242 234 234 233 233 233 233 233 233 234 235 237 239 240 240 240 240 240 240
 153 160 166 165 156 136 117 114 118 119 123 127 125 126 132 136 155 155 161 171 177 165 157 166 166 171 160 171 178 177 187 197 200 197 194 187 186 190 186 182 179 179 179 176 170 170 179 176 173 156 148 139 135 134 132 130 142 162 170 161 140 122 125 126 109  78  81 112 105  95  82 117 233 236 234 234 234 233 233 233 233 233 234 236 238 239 240 240 240 240 240 240
 141 143 143 137 123 109 101  96  90  83  87 103 123 145 160 171 202 157 156 169 174 168 168 166 169 162 146 150 164 180 183 188 191 193 191 186 181 180 182 178 175 172 167 167 171 161 150 158 158 154 150 142 136 133 132 136 159 171 161 155 142 114 120 113  90  73  95 112  96  90  81 186 242 234 235 234 234 233 233 233 234 234 235 238 238 240 240 240 241 241 240 240
 133 129 125 116 106  96  86  75  66  62  87 124 153 173 180 208 210 162 143 157 167 164 168 168 170 162 150 146 145 160 168 186 191 190 186 184 181 174 171 173 175 171 161 157 156 145 136 150 153 153 150 150 141 136 137 150 167 163 152 148 126 107 124 101  80  83 105 109  92  78 121 237 236 233 234 234 234 233 232 233 234 234 236 239 238 240 241 240 240 240 240 240
 130 125 118 110  97  82  69  60  59  84 121 154 178 190 200 219 161 175 154 139 156 161 159 171 170 156 135 144 140 161 174 181 178 186 191 189 182 179 171 165 156 147 152 140 132 137 150 160 156 152 145 143 134 141 150 154 159 156 148 139 115  97 108  87  76  88 106 102  90  80 199 242 234 234 235 234 234 233 233 233 234 234 237 238 239 240 241 241 241 241 241 240
 127 122 114 105  92  72  58  55  71 104 139 168 194 167 201 202 134 178 175 140 140 155 151 154 164 152 129 131 138 159 169 172 170 181 187 191 184 176 171 163 146 136 143 143 138 139 143 145 132 135 137 139 144 149 155 151 149 152 142 121 106  93  87  80  79  93  96  86  80 137 243 235 234 235 234 234 234 234 233 234 234 236 238 238 240 240 241 241 242 241 241 241
 120 119 118 117 111  96  79  68  81 111 146 179 147  94 217 168 122 179 178 160 135 147 149 152 157 145 124 129 145 150 167 180 176 173 184 191 185 182 176 167 152 137 133 133 139 145 134 134 130 138 147 151 152 152 157 152 143 139 133 103  79  81  79  74  92  95  83  72  70 195 246 233 234 234 234 234 234 234 233 234 234 236 238 238 240 241 242 241 241 241 241 241
 116 127 140 147 145 135 118  98  90 109 151 133  53  95 236 136 116 183 171 168 152 136 153 148 154 146 132 140 150 160 167 173 170 167 180 184 183 182 181 178 162 151 144 139 135 138 128 136 148 155 153 158 158 158 150 148 148 136 107 100  72  65  75  75  87  93  80  72  28 104 233 237 234 234 234 234 234 234 234 234 234 236 238 238 240 242 243 243 241 241 241 241
 120 139 160 171 173 166 154 134 112 113 117  67  28 115 243 122 117 185 175 170 168 138 139 151 149 148 150 147 145 144 154 165 178 172 180 181 176 176 182 176 177 171 164 153 146 142 140 141 160 158 160 161 166 161 143 125 138 138  98  77  62  53  70  78  84  82  72  82   7   8 153 246 234 234 233 234 234 234 234 234 235 237 239 239 240 242 243 243 243 242 242 241
 130 151 175 188 193 192 182 162 142 118  65  44  16 139 249 139 125 182 178 177 172 158 129 138 147 135 136 142 148 146 160 168 172 174 180 179 170 172 185 192 192 187 187 173 169 167 166 157 164 158 165 167 169 159 140 128 126 128 101  71  44  51  71  75  71  66  81 118  40   4  47 210 242 235 234 234 234 234 234 235 236 238 239 240 241 242 243 243 243 243 242 242
 144 163 185 201 208 208 201 186 162  89  52  33  14 168 249 165 126 177 178 181 174 168 145 124 134 127 103 117 123 149 157 157 178 174 167 166 177 192 188 186 194 194 189 186 185 179 173 167 166 160 168 166 161 142 134 126 118 117  86  53  33  51  74  71  61  60  96 135  60   7  10 102 239 238 234 234 234 234 234 235 237 237 239 240 242 243 243 243 243 243 242 242
 161 174 191 206 218 219 211 204 132  57  47  14  38 203 240 202 138 172 175 181 176 172 163 139 124 112 100 101 101 141 151 146 169 183 163 163 183 193 193 188 190 189 178 186 194 189 182 174 169 167 167 161 159 149 136 113  92 100  64  38  35  68  65  61  58  71 108 134  82   6  15  26 176 246 235 235 235 236 235 236 238 238 239 241 243 243 243 243 243 243 243 243
 174 183 192 207 221 224 222 185  71  46  34   1  96 226 228 230 155 173 176 179 176 166 162 153 134 129 118  94 100 119 136 144 152 165 166 164 176 185 196 180 179 184 181 189 194 182 182 175 172 172 166 154 160 150 117  98  86  78  50  39  48  66  58  54  71  80 116 127 108  18  15  16  65 210 243 234 235 236 236 237 238 239 240 242 243 243 243 242 243 243 243 243
 184 188 190 204 221 229 224 122  56  51  25   9 168 226 220 240 190 163 184 178 177 166 163 154 142 135 126 110 100  88 108 131 143 151 149 152 168 176 186 179 177 169 175 177 177 174 179 176 170 169 154 141 141 138 116  87  80  63  45  44  55  54  58  74  73  88 123 121 122  41  12  21  23  95 228 241 235 236 237 238 238 239 241 242 243 243 243 242 243 243 243 243
 191 192 190 204 219 234 185  67  63  50  11  46 212 221 218 233 229 166 179 179 175 174 167 160 150 144 134 127 105  76  77 105 133 138 136 129 150 153 159 160 177 164 160 161 159 169 172 169 162 152 153 127 106 116  97  72  68  46  42  51  52  57  77  79  70 110 122 118 124  60  11  18  29  31 110 235 241 235 237 238 239 240 241 243 244 244 243 243 243 243 243 243
 196 196 196 204 216 223 122  56  61  46   5  94 227 219 216 223 242 200 165 178 178 178 173 169 167 153 143 138 131 101  75  76 104 109 123 117 125 127 144 143 142 154 150 144 152 151 158 158 150 136 140 110  89  94  76  64  49  39  48  48  58  76  79  74  88 128 115 117 121  67  11  14  26  34  31 120 236 244 239 238 239 241 243 244 244 244 244 244 245 243 243 243
 199 200 200 203 217 178  67  59  60  41   4 134 230 218 216 217 231 236 176 170 185 179 170 171 169 157 153 139 136 125 100  79  75  79  97 105 108 118 122 127 117 123 137 134 135 138 135 141 128 125 116  99  84  85  62  52  43  47  55  59  69  77  75  72 120 125 111 115 118  71  14  18  24  33  34  30 114 216 243 248 247 245 243 243 244 245 244 244 244 243 243 243
 202 204 203 208 205 101  52  58  57  37  17 167 228 222 218 216 220 236 223 166 176 179 181 173 171 161 153 143 141 136 129 103  80  73  78  90  90 103  94 101  98 103 111 113 119 115 117 115 111  96  86  78  72  57  49  43  51  55  64  73  77  80  71 106 132 111 113 115 117  71  17  27  25  32  33  31  32  69 119 160 203 235 251 252 248 246 246 244 244 244 244 244
 208 208 208 214 134  54  59  61  55  35  60 194 225 225 221 217 218 221 238 211 163 171 182 173 165 171 165 155 149 145 134 132 118  92  76  66  61  73  70  65  80  83  76  80  90 102 100 102  83  66  67  56  47  46  46  51  58  66  75  80  84  73 104 140 117 114 117 113 117  73  21  24  23  29  28  28  35  35  31  33  52  87 134 181 220 246 253 253 249 246 244 244
 216 210 196 151  65  59  54  57  56  36  80 203 225 224 225 221 218 218 222 240 211 164 177 177 178 180 172 166 155 155 148 139 130 122 102  73  61  57  61  58  69  58  56  60  64  81  83  74  54  55  43  44  43  48  62  65  73  77  81  83  75 102 140 124 118 122 120 118 123  71  24  23  25  24  28  29  28  33  37  31  29  30  28  37  63 104 151 198 228 250 253 250
 152 119  97  70  61  58  55  60  58  40  90 208 224 225 227 227 223 221 219 226 241 206 165 183 183 181 179 171 156 154 151 144 144 133 119 117  95  81  69  60  56  57  58  60  60  61  55  54  60  54  51  58  61  64  72  78  79  79  84  74  93 139 130 120 125 127 124 129 134  71  29  25  23  22  23  26  26  25  28  28  33  33  31  29  30  26  34  51  76 120 169 218
  55  56  64  63  58  56  55  62  58  37  90 209 223 225 229 228 227 225 223 220 226 240 200 168 175 176 182 174 170 162 161 151 146 148 134 126 112 110 116  98  79  80  75  72  71  65  66  66  67  70  73  75  75  75  80  82  83  82  73  90 135 132 123 128 134 143 137 141 136  63  28  22  21  22  24  23  25  25  27  27  34  37  34  33  36  35  35  33  32  32  36  65
