P2
# Generated by OpenCV 4.2.0
92 112
255
   6   6   8   9   9   8   8  12   8   5   5   4   9  11   8   6   7   8  10   9  10  10  10   6   7   6  17   1  29  50  48 103 130 169 182 117 137  79 146 161 168 191 176 150 120 167 168 196 138  62 172 205 161 176 136 217 114 167 122 118 126 123 101 136 130 137 161 115 115  57  72  63  49 101 108  79  80  80  70  74  72  75  75  71  77  75  76  76  74  75  84  87
   6   5   7   9  10   7   5   5   7  11  10   8   8   9   6   7   8   8   9   9  10   7  11  11  26  41  10  15  38  25 163 183 174 140 150 158 172 168 173 170 163 105  53  62 143  92  94 146 143  98 100  69 130 140 200 118 157 168 137  83 131  81 106 146 117 179 170 152 104  90  88 146 161 127  97  81  92  85  88  82  73  69  72  70  72  71  80  79  79  80  85  84
   5   9   8   9   9   6   8   7   8   9   8   8   9  11   4   7  10   5   9   7   6  12  11  12  11  48  40  41 155 188 158 147  99 123 182 168 167 176 152 123  75  95  90  60  39  71 111  76 142  96  55  74  64  66 112 172 112 136 160 130 122 118 156  95 159 140 137 111 129 139 195 146 120 132 131 124  83  81  78  73  71  75  71  73  70  75  75  77  81  79  82  84
   2   6   5  10   9   6   8   7   8   9   9   9  11  16   7   7   6  10   7  10  17  14   7  10  36  51 132 181 144 119 168 146 180 191 166 158 156 135 105 100  68  52  16  45  63  33  22  99  62 133  80  39  65  82  62  98 133  90 113 119  96 105 106 123 126 166 152 140 183 136 108 127 113  90  66 109 101  97  99  92  79  74  78  78  75  68  76  77  79  81  83  85
   2   5   5  10   9   6   9   5   8   9   9   9   9  11  11   6   9  13   8  17  11  18  11   8 136 144 100 121 141 153 151 182 156 118 105 133 137 143  92  69  63  32  34  44  17  39  41  35  73  62  89  90  29  52  83  71  88 123  61 125 108  64  87 103  94 118 161 150 108 123 154 130 161 159 143 138 116 107 121 126  99  74  71  68  76  81  77  76  80  82  83  85
   9   6   8   8   9   9   9   6   7   9   9   9   8   4   8   8  13  29  25  14  26  22  66 125 193 120 160 143 192 166 166 127 111 172 123 112  70  78 112 122  52  51  32   4  12  18  23  36  91  34  59 108  57  17  50  94  97  82 104  43 145 123  36  60  59  51 109 154 172 113 161 172 180 174 172 167 181 160 138 100  67  59  71  78  77  76  75  77  82  83  85  87
   8   5  10   8   9   9   9   5   7   9   9   9   8   6   9  11  16   4  80 127 178 150 166 106 181 163 174 143  87  82  56  60  93  78  69  85  89  57  58 101  94  54  35  38  18   0  13  38  19  55  57  63  93  28   1 113  43  73  87 112  83 115  85  44  53  13  61  59 140 160 129 153 130 178 159 135 147 130 105  88  92  99  93  82  70  73  78  81  85  85  85  87
   9   5  10   8   9   9   9   9   5   8   9   9   8   5   9  11  16   9 118  79 132 158 143 104 194 167 134 119 183 163 139 103  69  46  66  45  64  81  61  37  96  80  53  26  17  11   0   4  14  86  30  79  90  62  21  29  86  98  92  59  70 127  83 111  33  64  75  50  54  78 151 135 145 145 160 137 114 118 134 123 110 108 104  79  63  77  75  77  82  83  85  87
   9   5  10   8  10   9   9   8   5   5   8   9   7   6  12  10  17  71 132 106  96 181 162 177 108 181 164 146  86  70 103  94  88 110  40 101  39  66  92  54  54  94  56  57  27  11  14  12  13  73  21  68  47  75  50   3  94  38  94  66 117  80  90  85  86  42  42  59  58  92  41 120 161 148 137 124 142 132  92  92 101  89  63  61  65  74  74  76  79  81  85  88
   6   5   9   9   9   8   8  12   9   9  11   9   9   5   1   4  53  29  60 118 194 137 157 178 229 194 167 162 144 167 105 102  38   3  36   4  93  79  40  57  54  40  81  65  45  14  23   1  10  18  60  19  73  51  52  30  24  53  81  92  92  55 108  92  89  60  68  24  50  28  38  79  98 153 107 178 131 125 107  77  56  64  81  77  73  72  76  78  83  84  83  86
   6   6   8   9   9   8   8   9   9   8  11   4   7  11   3  34  14 128 125 186 143 152 178 132 104  96  96  42  49  43  83 100  71  57  33  25   3  98  30  55  44  40  60  68  52  30  42   0   8   7 111  32  46  37  72  49   1  86  67  87  50 122  25  90  65  89  39  63  20  30  41  60  67  82 124 107 110 122 142 121 100  89  66  67  68  68  70  80  83  83  84  86
   6   9   9   6   8   9  10   8   9   9  11   6   9   6  29  34  38 127 218 147 171 188 178 219 157 132  67  70  64  64  71  54  55  75  62  26  27  14  93  37  65  38  24  78  47  52  40   8   3   4 115   6   7  83  47  61   1  35  28  83 100 111  65  50  83  13  63  67  52  10  11  10  27  58  78  60  88 105 109 101  94  82  77  71  70  68  72  76  82  82  87  87
   8  10   9   8   8   9   9   7  10  11  10   8   4   1  22  16 151 208 123 144 155 207 200 182 175 146 123  91  71  29  14  37  60  61  54  66  40  16  43  65  21  64  45  38  70  41  64  17   8   5  66  41  16  44  31  35  31   7  54  80 110  44  99  43  83 103  27  60  77  36  43  20   2  56  69 115  65  80 105 107  82  77  58  63  58  69  69  80  77  80  86  87
   8   9   9   9   7   9   9   5   9   8  11  10  23  18  28  69 207 122 133 189 207 189 186 193 175 142  96  80  26  32  37  32   6  58  63  31  47  34  17  70  55  45  40  38  62  43  53  40   4   2  41  66  10  26  31  27  21  14  51  47  94  56  75 122  11 132  84  41  50  87  36  56  29  24  31  88  54  67  87 113 105  98  84  75  91  86  76  75  82  85  84  87
   8   9   9   9   5   7   8   7   9   9   1  10  15  35  45 200 189  91 217 156 173 206 215 137 135  45  54  17  67  29   9   0  12   0  39  74  22  47   4  69  35  34  64  17  38  64  24  52  12   0  31  79   6   6  43  18  23   5  42  17  97  65  77   7 129  25 131  60  68  60  76  80  77  49  44  10  44  43  49  88 103 115  86  96  98  89  70  70  84  83  85  85
   8  10   9   9   5   5   6  12  11   9  16   6  12  19 188 159 142 192 176 169 210 189 137 106  28  65  29  45   1  32  40  32   7  11   5  36  79  15  14  45  29  57  49  25  44  14  47  32  30  12  34  54   6   8  30  12  23  12  20  18  57  71  53  67  56  22  40 122  41  48  32  23  67  87  50  65  55  47  69  71 111 114 124  80  59  58  62  68  73  84  85  86
   8   9   9   9   9   9   7   9   7  11   5   7   5 163 124 178 134 199 164 170 184 169  92 111 104  26  58 113  73  52  20  12  10   5   7   0  56  34  30  19  40  47  24  70   6  39  38  16  20  15   9  48   4  19  19  12  17   7  20  10  35  75  51  51  12  79  14  59  78  48  64  15  22  24  62  35  22  38  47  63 103 143 121 104  70 101 128 120  82  78  88  88
   9   9   9   9   9   9   7  13   3   8   4  11  60 194 135 135 187 172 152 184 150 146 127  45  60 141  86  52  65  42  36  21  12   5  10  10   1  48  35  11  55  16  40  51  27  22   9  35  13  23  17  25  18   7  17   8  18   7  16  12  25  59  48  53  21  63  29  10  84  34  40  54   7  13  41  33  45  38  40  39  76 118 105  87 130 147 121  75  85  70  89  88
   9   9   9   9   9   9   7  13   7  11   7  76 140 124 121 161 199 164 186 151 178 118  77 133 121 102  99  87  66  30  30  20  15  10   4   4   8   8  43  14  40  19  18  31  47  14  15  16  15  21  20  17  28   7  17  11  13  10  12  17  11  46  43  44  20  34  43  18   5  95  51  32  42  21   3  40  41  35  44  33  33  90 104 106  59  44  62  77  65  70  85  89
   9   7   9   9   9   9   8   7   8   7  31  71 161  94 134 179 197 154 172 200 156 123 139 151 137 110  91  59  54  80  51  37  26  22   8  11  12  12  26  29  26  24  17  30  47  13  12  19  18  15  25  22  21  10  16  13   9  13  12  21   8  33  40  44  31  19  38  28   8  25  97  30  55  32  41  20  19  30  47  25  54  20  95 124  85  82  88  83  72  81  82  89
  10   5  10  12   8   9  11   5   4  37 141 158 120  79 111 139 195 117 156 205 166 145 159 122 121  84  41  94  35  16  19  17  26  20  12  13  16  24  33  38  26  35  30  29  28  37  15  20  20  17  28  28  27  18  16  15  11  14  10  16  11  25  38  30  40  13  17  25  24   1  29  93  39  46  28  53  43  25  38  21  40  43  73 108 101  85  73  76  89  90  90  93
   8   5  10  12   8  10   9   8  13  14 139 139 122  96 133 170 183 155 176 179 152 166 158 161  54 103  71  48 112  64  32  17  21  15  15  20  31  37  49  49  35  49  41  40  27  38  29  23  28  25  25  33  29  35  31  21  18  20  13  17  10  31  40  14  41  19   4  22  22  20   2  35  86  39  43  33  33  23  21  36  47  33  74  84 101  71  80  72  73  77  85  85
   9   5  10  12   8   9   9   9  14  78 162 117 112 111  83 171 192  61 208 185 174 178 146  94 143  69  94  80  33  20   3   6  27  43  50  52  56  46  52  76  65  75  54  50  44  38  50  35  42  38  42  57  43  46  47  42  31  33  25  26  17  28  30  23  33  17  26  18  11  17   7   8  29 102  47  44  35  20  14   6  33  61  73  91  95  84  76  82  79  82  83  85
   9   9   4  12   8   5  10  16  29 162 158 123 101 141 115 168 200 150 163 188 185 112 144 119 104 119  98  83  49  78  56  27  44  59  70  76  64  78  90  98 107 110  97  60  47  47  34  38  50  54  51  67  85  69  69  59  54  46  39  34  35  42  32  40  29  40  15  18  24  12  30   1  13  37 105  56  25  41   1  11  30  28  42  78  96  71  66  75  77  79  82  85
   9   9   5   8   8   9  10  19 161 127 148 140  65  86  85 109 161 173 171 194 104 110 164  54  27  38  11  16  34  37  57  79  89  95 104 109 119 130 127 123 124 129 123 108  80  62  73  64  69  80  93 100 107 109 118 118 102  82  77  69  65  48  37  39  49  30  20  31  25   9  12  24   2  11  44  86  74  30  33  15  17  21  25  91  99  76  74  76  75  78  83  85
   9   8   5   5   5   9  14   8 128 179 125 116  60  76  38 134 167 151 210 122 138 154  24  58  58  33  49  55  68  75  95 111 116 130 130 134 146 145 148 146 145 149 147 137 132 125 124 110 107 114 125 133 139 145 145 140 139 128 120 104  94  80  79  51  54  46  48  30  31  21  12  15  15   5  21  41  70  63  51  21   0  24  22  75  92  96  75  75  78  86  84  87
   7   9   4   8   6   6   9   2 116 175 160  87  55 106  74 110 164 163 154 152 103  90  63  67  38  47  65  68  88 108 113 130 133 141 147 151 156 160 154 156 159 165 158 156 156 150 143 146 150 151 156 161 164 157 157 154 153 139 136 128 120 119  94  97  87  64  55  56  48  50  30  35  15  10   3   4  55  46  44  51   0  19  34  57  94  89  83  74  77  83  84  87
   9   4  10  13   8   6   7   1 120 179 148 127 124  96  75  99 141 195 103 149 154  43  81  37  73  67  77  91 104 118 128 141 147 156 165 161 163 170 173 169 169 168 171 172 170 169 174 168 173 167 174 175 171 171 173 167 161 153 144 149 135 138 130 115 115  95  87  79  68  59  56  44  31  16  11   4  21  37  28  39  22   6  40  41  76  91  75  81  79  85  90  84
   9   4  11  10  11   8   6   4  23 150 168 121 107  99  58  91 138 207 115  95 119 125  36  77  76  74  85  99 112 140 140 151 156 163 171 169 170 172 169 176 174 175 179 177 180 178 167 176 176 183 178 179 177 174 174 173 169 165 159 164 153 154 153 140 134 119 120 102 102  94  82  68  54  44  24  11  16  10  28  10  24  25  75  18  78  97  73  72  78  83  89  84
   9   8   9   6   7   8  15  11  80 191 178 132 107 114 104  49 199 157 133  70 108  88  79  81  69  89 107 126 132 151 155 160 163 169 176 174 174 179 176 180 179 181 184 185 185 182 181 183 177 178 183 184 182 178 178 178 175 173 171 174 171 168 166 162 164 151 139 134 126 123 111 102  87  75  44  13  10  11  16  24  17  35  34  49  69 104  84  75  81  83  88  83
  11   7  12   3  12   8   5  36  32 174 165 172 129 128 136  76 168 154 116  72  93 107  95  84  98 106 123 137 149 158 167 169 173 176 179 181 185 184 179 184 184 187 185 187 179 180 181 185 188 186 182 180 180 185 188 187 185 175 179 180 178 174 170 172 169 169 157 157 147 141 132 122 117 111  82  26  28   7  25  16  22  32  20   8  72  76  86  72  81  81  89  81
   8   8  10   3  11   8  12   7  30 151 146 134 156 114 129 133 160 158  91 128 125 124 118 110 121 126 141 148 158 165 174 176 174 178 179 182 184 179 181 186 185 184 181 184 187 183 187 190 190 187 192 190 188 189 185 184 184 183 183 182 179 178 178 175 175 174 167 168 162 158 156 143 135 133 106  51  19  25  43  25  37  56  28  14  53  89 110  82  83  76  89  82
   9  10  10   7  11   8  10  10  28 230 173 158 138 119 134 159 142 167  77 140 165 139 141 122 128 142 154 158 165 171 175 178 178 182 184 185 185 179 183 187 191 185 186 196 191 189 185 188 191 193 185 185 183 188 190 190 187 190 187 185 181 184 186 179 178 172 174 174 171 161 160 155 157 145 115  60  35  42  44  31  40  59  32  19  41  71  94  75  81  83  87  85
  12  11  13   7  12   9   7  20  60 203 181 175 143 140 144 152  85 131  96 117 164 145 156 142 153 151 157 168 172 175 177 179 183 186 189 189 192 189 188 186 195 190 196 188 182 186 191 188 186 186 187 191 190 193 192 193 189 194 188 186 187 188 188 183 181 174 177 174 170 169 175 168 162 143 122  78  53  60  21  30  53  36   8  24  35  77 104  88  73  88  85  87
  12  12  12   9  12   5  16  10   0 191 179 170 160 165 149 187  79  73  99 151 165 159 166 152 159 161 162 171 171 173 180 183 182 185 188 184 186 186 183 187 190 190 188 193 195 192 188 189 192 184 188 191 186 184 184 185 186 189 191 193 190 189 187 186 185 180 176 178 172 172 170 169 161 149 116  93  83  64  26  41  38  13  14  28  33  66  96  84  76  79  84  86
   8   8   7  10  12   9  15   8  12 147 182 181 158 169 155 183  85 113 146 165 173 170 178 164 165 169 173 173 174 175 176 185 187 187 191 188 192 187 193 191 189 191 194 188 190 188 185 189 196 187 191 189 187 190 191 192 187 187 189 190 189 187 185 184 184 180 179 182 172 175 175 173 165 144 125 108 104  60  39  39  21  10  27  21  31  71  93  82  82  84  84  85
  10   9   8  10   8  12  11  10   9 130 204 168 185 159 179 187 108 157 167 160 182 176 179 175 174 169 173 176 170 178 175 182 181 180 179 176 177 183 187 183 185 189 192 189 190 188 193 185 187 185 188 188 184 187 191 193 187 184 187 188 186 185 185 182 181 178 180 185 172 173 171 168 156 151 144 128 117  86  32  27  19  20  21  32  32  76  98  79  82  82  87  89
   9   9   8   8   9  10   9  17  12 134 186 194 167 186 181 178 125 151 166 177 180 178 175 176 180 171 175 182 177 189 185 187 189 190 197 196 189 198 189 186 188 184 180 185 186 186 185 187 190 187 191 193 188 184 186 189 187 183 186 186 186 181 178 177 175 173 175 178 170 170 165 166 159 163 156 139 124  87  47  35  24  27  30  18  36  90 110  83  85  82  85  87
   7   9   8  11  11   8  13  13  23  50 223 210 189 193 189 195 159 155 170 175 180 183 182 180 179 183 180 179 183 182 183 187 191 188 189 189 187 192 188 190 190 192 185 184 184 185 184 185 182 186 187 181 180 183 183 181 184 187 189 191 189 184 178 180 179 176 178 172 169 171 169 165 159 163 163 151 131  96  64  43  34  24  37  24  34  81 103  76  83  81  85  87
   5   7  12  13  15  11  11  15  31  16 217 199 177 197 204 184 179 194 171 185 184 182 184 185 183 182 178 180 181 182 186 189 189 191 195 196 189 189 193 188 189 193 187 187 185 185 176 183 181 183 181 182 187 192 189 188 185 184 186 186 183 184 183 177 180 176 176 173 174 174 172 170 161 162 166 160 145 108  67  48  38  28  30  29  47  93  85  73  80  83  86  88
   7  12  12  12  14  12  12  18  34  26 225 198 194 206 204 202 198 191 183 196 184 190 191 189 186 176 179 186 182 181 184 186 185 188 192 195 191 193 193 191 188 191 187 186 189 188 187 187 183 188 187 189 185 180 181 182 177 189 184 183 186 189 186 181 181 174 175 174 170 167 167 167 164 167 166 156 148 114  75  51  44  32  32  44  65  91  76  74  81  79  83  86
  10  14  11  13  12  12   8  18  21   0 214 193 204 195 205 202 199 190 192 192 186 198 195 193 182 186 186 189 180 186 191 192 191 190 184 188 190 189 192 188 189 188 187 187 185 182 184 180 178 179 180 187 191 193 189 186 189 194 190 184 180 177 176 176 178 173 169 172 168 167 168 162 165 167 171 165 155 116  90  68  55  39  34  42  74  92  74  76  77  80  84  87
  12  12  11  11  12  11  11  13  30  22 216 197 201 197 203 202 187 202 204 202 198 200 196 194 186 188 189 185 187 189 192 189 193 193 189 194 193 189 186 191 188 186 185 185 189 189 188 186 184 184 188 191 191 189 186 186 191 183 185 188 191 185 178 176 177 174 170 166 164 164 168 167 165 168 169 161 152 122  96  78  65  50  55  61  83  96  67  73  80  83  84  86
  11  10  13   9  12  14  11  12  33  32 231 193 209 188 195 191 201 201 201 199 199 203 194 193 190 193 196 188 189 190 190 187 191 192 188 193 195 190 187 189 194 192 184 183 184 184 178 181 185 186 187 191 194 194 190 185 185 187 186 187 185 180 173 177 178 168 163 167 172 167 168 166 159 162 163 158 152 134 110  84  71  53  63  58 100  89  72  74  76  80  84  86
   4   7  13   7  10  15  14  14  29  64 225 209 198 197 195 185 208 208 202 201 208 211 198 199 199 201 202 198 184 187 188 187 187 186 184 190 191 193 193 191 181 183 189 194 191 184 185 186 185 180 190 191 189 189 189 186 188 191 188 186 183 177 167 168 166 174 175 166 167 164 169 167 156 164 166 156 153 144 121 104  93  66  60  80 102  81  70  77  81  84  84  86
  12  12  10  11  14  13  12  11  31  38 220 199 200 200 199 194 214 213 203 206 204 213 210 202 206 203 198 193 195 195 197 198 191 195 195 192 188 190 187 183 188 184 188 192 189 185 186 189 191 186 189 189 191 184 182 182 186 178 182 181 179 179 180 175 172 173 176 175 171 168 171 169 158 159 158 165 155 144 119 110  90  76  51  77  85  69  76  75  77  82  82  86
  15  15  15  12  16  11  12  15  25  32 229 206 205 206 198 198 215 208 207 205 210 222 215 210 207 204 203 197 193 193 187 192 189 188 184 188 190 190 182 184 181 180 187 187 185 186 180 188 193 186 189 184 189 185 184 185 187 186 186 182 176 176 178 179 180 183 173 170 179 178 168 169 168 164 166 161 156 144 123 111  93  70  89  80  93  68  76  75  78  81  82  84
  15  15  14  15  15  11   9  19  33   3 228 197 203 218 192 198 214 206 215 208 220 219 204 203 201 195 189 187 180 190 181 183 180 180 177 184 182 186 183 183 184 179 183 179 174 177 178 182 184 181 185 181 186 183 184 186 186 178 184 183 179 178 173 170 171 179 185 180 182 178 171 167 170 162 150 154 154 141 128 108  90  84  88 100  85  66  74  73  77  78  83  84
  14  13  11  18   6  13   8  23  33   2 233 203 196 213 185 206 218 220 217 220 222 207 208 206 184 175 171 166 151 171 167 178 175 175 177 183 175 180 178 177 181 182 181 181 177 176 174 167 174 176 177 177 173 180 181 180 184 184 185 178 176 178 181 182 178 182 179 185 182 181 179 174 166 157 156 162 154 141 130 115  97  93  93 115  77  71  70  71  74  78  80  84
  15  12  12   9  14   8  16   8  37  21 221 201 214 222 186 204 219 220 219 216 208 213 208 169 161 150 148 153 161 151 141 154 149 147 146 170 176 173 169 171 172 176 179 179 179 169 164 166 169 178 173 175 177 180 180 178 178 174 176 177 178 174 172 179 180 182 183 177 187 188 179 173 169 156 157 165 158 149 128 109  88  92 101 116  74  71  72  73  76  78  80  84
  15  13  11  17  10  15  18  10  17  96 222 206 217 214 192 219 222 220 214 206 213 182 152 141 149 122 107  94  81  65  78 102  97 100 119 137 157 154 157 166 167 171 173 175 175 166 158 164 164 172 171 169 164 166 172 176 174 174 168 170 164 169 170 164 165 156 161 171 170 178 176 169 167 152 164 163 161 154 121 113  94 100 106 112  67  68  73  74  77  79  81  84
  15  14  12  12   9  11  44 221 207  93 228 207 209 212 193 217 220 226 215 204 183 150 146 124  88 104 112 104  91  71  48  51  59  71  82 102 109 110 117 134 150 163 165 173 174 172 164 162 167 165 164 162 145 156 158 160 162 162 150 148 135 140 142 140 144 151 148 155 160 169 174 173 168 144 159 163 157 153 118 109  88 117 118 120  68  75  71  70  75  77  81  84
  10  13  10  14  15  22 227 213 214 193 195 197 201 210 202 221 217 222 202 197 177 133 121 133 124 131 135 141 130 132 130 111  99  82  61  67  73 107 106 115 132 137 148 163 164 176 172 162 170 158 164 141 122 140 134 110 111 112 111 113  95  87  86  94  98 111 116 124 143 148 140 158 157 154 158 164 158 150 123 100  92 108 119  94  71  69  73  73  76  76  78  81
  11  12  12   6  34  73 228 214 196 219 205 186 213 216 208 223 222 221 201 175 155 143 151 148 155 147 195 180 134 140 139 145 100 102  99 124 105 111 105 113 128 135 148 166 167 168 166 164 159 160 141 136 105 119 100 105  93 107 107  98  78  63  56  69  71  73 101 123  97  88  81 131 149 156 152 166 159 141 114 101 115  98 125  77  77  70  73  74  76  77  79  82
   8   9  15  18  18  40 158 145 199 179 173 194 199 217 209 227 225 218 182 179 165 157 150 161 163 113  76 104 108  47  15   3  24  34  64  40  80 103 107 121 129 135 150 163 168 172 160 172 166 157 146 118 122 106  87  88  66  61  63  70  76 111 126 123 117 103  98  99 109 115 106 119 127 142 154 161 162 142 125 105 126 109 138  65  67  73  72  74  76  77  79  82
   8  10  17  14   8   5  98 125 164 191 193 202 189 216 214 225 223 216 193 177 172 172 173 154  89 103  59  24 109  48 115  61 100  59  17  58  65  77 117 118 128 144 165 179 180 181 180 174 167 156 129 135 114 108 113 115  93  86  72  66  94 107 124 138 132 138 138 146 136 143 127 115 116 143 158 166 165 129 109 106 113 103 124  63  73  75  74  74  76  77  78  82
  14  13  16  11  16  15  20 179 127 187 182 190 193 205 221 228 228 217 190 184 171 160 155 123 100  71  56 114 150  29  59  44  55  64  74  86  37  91  98 124 135 156 172 186 191 186 180 178 173 159 144 125 110 109  92  55  53  61  28  59  20  36  27  43  71  97 123 138 146 143 144 134 137 144 157 157 161 117 113  80 117  98 145  62  62  84  74  73  77  79  84  85
  14  14  16  12  21  17  16 197 119 154 173 183 193 209 222 228 226 210 196 189 175 150 133 136 146 170 142 127 144 109  85  76  89  52 139  66  49  29 124 125 141 157 181 193 196 191 189 182 175 156 128 119 112 105  96  61  54 106  20  75  19  36  27  33  30  66  68 102 134 144 143 140 147 161 162 163 167 114 122  89 101 110 101  77  85  75  73  71  77  82  84  84
  15  14  14  10  19  11  11 135 127 152 177 175 198 219 229 228 228 211 199 190 180 179 174 186 191 184 189 173 168 149 135 136 138 153 121 123 135 124 126 150 154 160 195 196 195 190 191 181 172 153 146 130 142 114  20  29  70 125  48  60  52  73  32  85  54   8  41  63 104 140 148 145 149 157 159 162 162 113 103  90 100 109  62  73  79  56  70  77  79  79  84  85
  14  11  11  11  18  10  20  98 156 172 187 177 200 220 228 225 222 211 200 197 192 186 195 188 191 188 189 176 181 173 164 150 159 160 151 134 151 158 158 156 161 159 192 198 200 191 188 184 169 153 152 157 153 129 126 138 119 129 131 148 125 126 117 129 119 104  72  71 110 132 140 148 159 161 160 168 153 118  98  87 112 100 156 198 192 182  65  80  75  76  79  86
  14  13  13   8  18  11  17  56 165 191 171 168 201 217 219 224 218 211 204 197 190 198 197 198 190 183 181 174 180 175 175 166 160 153 138 139 136 146 157 161 166 172 202 196 191 193 188 180 165 155 154 161 163 150 150 131 131 159 152 131 108 107 107 136 144 149 142 122 114 126 151 159 155 167 167 166 152 118  91  92 104 144 178 169 172 206 106  77  69  79  81  82
  15  13  12  14  14   5  10  46 175 199 154 146 210 220 217 221 219 216 212 201 201 197 195 199 195 190 176 169 146 147 149 142 149 143 155 166 161 170 171 168 171 178 200 197 187 190 190 178 164 158 165 165 163 148 137 135 126 134 139 140 144 162 173 162 164 160 165 177 161 142 153 163 172 166 167 166 153 100  80 108 137 172 174 188 164 134 102  77  72  80  81  82
  12  13  12  15   8  12  24  20 186 208 166 130 215 213 214 216 220 216 216 203 209 202 199 186 190 195 188 194 186 185 188 183 171 174 177 173 179 172 178 181 179 180 197 199 186 184 192 178 164 162 168 166 167 160 159 155 140 144 120 114 115 133 138 144 152 169 170 180 172 175 163 164 159 163 164 162 158  93  98 137 175 163 173 142  59 141  68  83  75  70  81  85
  16  15  13  15  10  13  11   4 190 203 140 171 218 214 206 218 218 215 209 212 210 210 203 201 205 204 199 193 194 192 187 186 181 182 182 184 184 182 183 187 183 196 209 199 194 187 189 167 166 164 181 173 169 163 165 167 168 173 174 170 160 162 160 163 167 172 174 177 165 174 175 175 176 174 168 164 161 103 110 161 158 169 116  74 131  73  73  75  77  75  76  80
  16  15  13  15  10  13  10   2 198 180 122 222 221 214 202 216 213 220 222 210 205 212 215 213 208 204 199 201 194 193 189 187 186 187 187 189 191 189 190 184 184 192 201 198 195 190 189 168 167 168 173 174 173 173 179 177 166 168 172 178 175 179 183 181 177 173 173 173 172 175 176 176 174 174 167 163 157 110 130 162 155 124  96 130 103  67  73  73  76  76  80  84
  16  15  13  14  11  13  12   6 196 178 121 222 220 212 202 210 213 219 207 205 212 205 207 207 206 205 202 201 195 194 192 191 189 191 189 185 183 186 191 192 194 195 198 195 192 191 186 172 175 166 174 179 171 174 179 183 178 176 175 182 186 186 185 180 183 183 182 179 184 178 178 177 169 166 167 157 159 115 131 139 146 122 112 129  60  76  73  74  73  73  77  80
  13  12  13  12  12  12  20   2 183 181 133 201 216 211 202 204 216 217 210 208 207 206 211 208 204 205 200 197 193 194 194 193 189 187 189 185 193 195 195 197 199 202 204 199 193 194 184 175 179 166 167 177 174 179 179 189 186 188 181 178 185 189 188 186 189 180 176 183 184 179 179 179 175 167 164 154 158 121 143 163 157  79 171  65  80  74  76  75  75  76  79  82
  14  12  12  13  13  10  15  10 161 164 218 201 213 213 199 202 215 215 209 207 211 209 203 197 201 203 199 200 194 193 192 195 195 190 187 186 195 194 192 195 202 203 198 202 195 195 184 177 176 165 172 176 165 174 176 181 178 187 186 182 185 182 187 189 187 185 184 181 185 183 183 178 173 169 166 159 159 135 125 155 135 171  80  72  82  69  76  73  76  78  78  81
  14  12  11  16  15  12  10  15  98 194 207 175 211 207 196 200 212 214 210 203 202 205 201 200 206 199 200 198 197 193 190 195 190 184 189 190 197 194 193 199 211 210 199 204 199 195 181 181 174 170 164 177 179 180 173 179 185 181 187 183 181 181 182 181 187 182 180 182 180 178 180 176 166 165 162 160 156 158 108 177 164 128  74  84  70  76  73  75  77  79  78  81
  14  12  12  14  12  14   9  20  25 226 191 192 216 203 197 200 206 207 207 204 203 203 205 201 202 195 203 189 196 194 192 191 192 185 189 186 188 187 190 203 210 208 202 202 198 193 176 185 177 181 169 171 177 180 174 182 179 184 187 185 188 186 187 184 184 184 184 181 175 165 174 177 171 169 163 156 157 173 113 162 164  82  81  83  73  75  73  74  79  81  78  80
   8  11  12  12  13  11  12  20   0 233 201 192 218 202 200 197 199 200 199 200 198 196 199 203 201 202 201 200 201 192 192 187 190 189 188 182 181 187 196 212 210 207 205 199 200 193 190 182 181 173 164 165 174 173 178 179 185 187 187 190 184 189 190 182 183 181 180 180 174 165 169 171 163 160 156 160 161 181 115 164 141  75  77  81  76  74  71  71  76  78  78  83
  14  11  13  13  14  12   9   0  25 224 195 187 194 210 203 199 198 201 199 196 197 195 201 202 198 199 192 194 191 188 189 190 189 182 178 167 187 203 205 215 210 201 196 196 193 191 191 185 185 179 174 168 165 171 181 181 179 188 182 187 188 189 188 182 180 181 180 179 181 168 164 165 161 157 161 164 165 170 116 180  93  86  79  81  77  76  72  72  77  78  78  83
   9   8   6   8   7   7   6  10  11 152 200 206 199 210 199 198 195 193 191 190 194 198 195 196 197 196 199 192 194 192 183 184 184 175 176 170 201 206 203 198 200 201 202 194 199 189 192 187 186 183 170 178 167 166 174 178 178 184 182 187 187 190 188 185 181 184 183 180 171 165 166 164 162 157 159 159 173 163 124 186  86  90  79  82  78  77  74  71  76  76  77  84
   9   9   9   9   7   8   7   1  14  17 225 210 196 203 197 196 192 192 189 193 200 194 199 197 191 190 191 189 190 189 183 187 176 172 177 168 208 208 183 163 173 184 191 197 192 191 194 183 174 167 166 180 162 156 168 176 178 181 184 187 186 185 183 182 182 181 181 173 166 161 163 161 164 158 156 163 169 166 161 161  88  87  79  81  77  77  73  73  75  76  77  85
   9   9   9   9   9   9   7  13   6   8 110 179 176 215 198 193 194 184 183 192 196 193 193 185 184 188 188 187 180 176 174 173 171 168 176 173 200 188 166 144 139 156 180 174 177 176 180 160 147 161 168 179 167 156 166 172 177 175 182 181 185 187 185 185 185 175 179 173 165 161 164 159 159 155 156 159 168 158 185 124  81  81  80  78  77  75  76  76  74  77  77  86
   5   5   4   5   5   5   4   1   5  29   3 100 153 208 199 196 193 189 186 190 190 184 187 187 190 184 184 182 180 174 172 173 173 170 172 162 180 156 139 102  94 173 148 146 144 147 161 160 155 145 152 172 164 160 164 165 170 172 183 183 183 182 179 180 183 177 175 170 163 160 159 157 157 156 160 159 186 167 186 105  89  81  81  80  78  76  71  71  72  77  76  84
   5  10   9   5   6   6   7   2   1   2   2  23  44 210 201 196 193 186 184 188 187 188 183 177 179 179 175 178 180 172 170 173 174 177 185 162 159 131  88  50  62  53 156 111 121 121 131  21  17  48 131 163 146 165 171 172 169 164 170 173 179 178 175 177 176 174 169 165 164 162 160 156 160 159 162 159 166 173 157  89  85  82  82  80  79  77  73  74  73  80  77  83
   3   2   6   2   3   3   3   2   3   7   3   6  18 232 194 200 192 187 175 181 183 177 181 182 180 177 177 174 169 162 168 173 184 184 181 175 144 109  95 101 118 130 148 126 112 117 107 108  45 123 131 128 149 160 168 180 173 165 174 178 175 179 177 166 163 163 166 159 161 154 154 160 149 161 157 161 173 183 149  72  94  86  81  78  74  74  73  73  75  76  79  80
   1   4   4   1   2   2   2   4   2   5   5   6   4 226 195 191 190 181 172 178 183 176 173 175 177 169 173 174 170 172 183 183 186 181 185 180 173 155 130 131 137 134 131 116 116 144 133 126 118  90 109 139 166 173 179 175 175 174 169 166 168 171 174 167 165 158 160 159 158 160 159 154 150 159 152 173 182 184 135  82  93  88  86  84  80  81  82  80  82  84  85  88
   4   4   3   6   6   6   5   4   3   4   5   4   3 217 199 193 193 182 178 176 175 178 173 174 177 176 177 174 178 183 191 189 185 191 186 173 171 154 147 132 138 128 145 142 145 148 142 131 131 137 155 160 169 178 179 172 175 174 167 166 171 172 172 169 163 157 159 160 154 158 155 153 153 163 157 162 173 175  94 100  97  95  95  93  88  89  90  89  91  93  95  98
   6   6   2   5   5   5   4   2   1   5   1   6   8 215 196 193 190 177 179 179 178 178 179 178 176 172 177 179 190 186 188 185 182 178 174 173 176 155 152 145 145 158 137 144 146 147 124 134 131 140 149 150 161 176 168 172 176 178 175 170 170 174 170 167 160 160 165 158 160 158 155 157 149 162 157 143 163 133  96 117 100 104 108 104 101 102 102 102 104 106 110 109
   6   6   5   5   6   6   5   4   5   6   3   1  23 200 198 192 187 176 178 175 181 181 178 179 179 171 180 178 182 174 188 187 188 169 167 167 177 168 169 166 158 143 130 164 154 151 134 124 137 132 166 154 164 177 168 178 185 177 182 176 170 173 171 167 165 162 165 158 155 156 149 156 154 160 162 122 124 110 119 116 118 113 113 112 111 113 114 114 114 114 119 120
   6   6   5   6   6   7   6   5   5   6   3   1  26 164 199 193 186 178 178 177 183 181 176 179 178 181 187 183 181 174 173 170 177 170 173 171 160 160 158 152 151 163 149 163 163 155 137 150 149 143 143 147 158 169 174 171 178 178 181 185 171 172 171 171 170 157 167 154 151 155 149 164 155 166 158 119 125 126 135 127 126 127 128 128 128 128 125 128 133 134 133 134
   6   6   6   6   4   6   6   9   9   9  11   5  26 121 199 195 184 177 178 177 183 187 175 177 172 178 173 176 167 166 162 161 165 167 166 164 152 153 156 158 151 166 158 152 152 148 149 175 157 154 148 154 150 150 168 166 177 169 172 177 176 168 163 165 166 158 160 152 155 154 158 163 155 158 155 130 136 139 133 141 138 139 140 141 140 139 140 140 141 141 141 141
   8   6   8   8   8   8   6   6   8   6   9   9  17  98 204 180 183 179 176 177 181 187 178 175 173 181 172 166 145 152 158 165 166 164 161 165 171 164 172 176 178 172 157 159 154 147 179 174 153 155 164 158 171 164 165 162 149 155 161 167 181 169 164 166 170 155 160 154 154 153 156 156 159 163 149 143 143 146 145 145 145 146 142 144 145 146 149 147 146 146 147 147
   8   8   8   8   8   7  10   8   6   5   6  13  22  43 213 185 174 173 173 174 179 189 183 180 175 175 167 165 158 159 157 164 164 177 188 192 191 180 188 186 193 176 175 173 169 175 189 189 186 184 175 166 157 155 159 157 148 149 153 155 170 170 169 166 163 165 160 146 158 156 157 158 162 161 149 148 150 151 148 151 152 152 151 151 152 154 154 152 151 154 156 156
  11  11  11  11  11  11  10   8   6   9   6  15   4   4 223 173 178 176 176 176 181 191 188 183 178 176 163 166 153 150 148 159 165 171 171 170 176 172 168 159 165 178 177 187 185 181 177 177 183 181 178 171 166 170 154 149 139 125 131 141 161 164 166 160 157 162 155 159 161 159 159 158 159 159 155 155 158 160 158 160 161 161 160 162 162 164 160 161 161 162 163 163
   9   9   9   8   8   8   7  10  11  10   9   5   5   5 182 170 173 178 174 176 180 189 188 183 176 175 159 157 147 134 128 140 155 157 153 141 126 107 103 101 107 114 124 140 131 131 122 125 121 135 159 168 162 166 153 165 147 146 141 140 155 166 167 163 162 158 156 160 159 157 158 155 155 157 161 159 161 164 162 164 165 165 163 163 164 164 165 166 168 169 167 168
  10   9  10  10  12  12  12   8   7   7  11   9   8  18 128 185 177 176 175 168 178 190 185 177 180 170 158 145 127 129  94  94  97  74  54  58  54  43  39  38  43  49  54  73  82  78  77  75  68  85 101 142 155 159 155 155 148 145 146 146 156 167 166 168 163 154 156 155 156 156 155 154 157 168 167 165 169 172 171 169 169 170 169 170 169 170 172 171 170 171 171 172
   8   9   8  12   8   8   8   9   9   9  12   9   4  10  34 214 178 175 171 170 178 189 188 181 181 177 164 151 150 145 158 178 177 179 174 157 158 155 145 133 105  96  76  69  66  61  62  70  67  66  36  34  69 131 138 138 145 131 135 138 148 161 165 167 158 152 154 156 159 159 161 154 160 170 171 167 170 172 171 170 170 169 172 172 171 170 172 173 171 171 171 172
   9   9   8  12   7   7   6   9   8   8   8  11   7  11   4 177 175 167 170 180 172 186 189 182 180 176 166 157 158 168 183 180 174 173 180 184 174 161 159 158 163 151 154 144 134 141 133 138 135 126 131 111 100 101  87  80 110 131 135 135 141 159 163 163 158 158 154 159 157 151 157 152 167 173 170 170 171 171 169 173 173 173 172 171 171 169 172 172 173 173 171 172
   9  10   8  12   8   5   6   8   9   9  10  11   6  13  17 111 184 173 172 178 175 178 182 177 173 176 167 164 166 181 184 181 189 184 170 163 166 167 158 150 146 144 148 151 157 161 160 156 154 150 153 158 155 144 152 144 135 131 140 140 151 161 162 160 156 157 151 156 154 158 158 147 168 176 178 176 176 175 172 173 173 172 172 172 174 174 173 172 174 174 171 173
   9   9   8  12   8   6   6   8   8   7  13   5  10   8   9  12 203 164 170 168 179 167 178 181 167 171 170 164 170 180 178 185 184 178 168 166 153 136 137 150 149 155 162 160 161 157 152 155 152 145 151 154 151 171 166 159 151 146 142 140 156 166 160 163 155 156 152 155 145 146 153 157 171 176 168 172 173 172 174 173 173 173 175 176 173 173 172 173 172 173 175 175
   5   9   8  12   9   5   6   9   9   6  10   3  11   0  15  59  64 170 154 171 180 174 179 175 170 170 167 172 176 182 181 181 173 168 156 150 156 152 134 123 123 116 127 135 123 118 125 125 130 136 143 158 156 166 160 170 172 153 140 154 164 159 154 153 154 154 154 150 149 150 170 111 201 166 171 179 177 177 177 173 173 174 174 174 175 175 172 173 173 174 177 177
   9   9   8  12   8   5   6   7   9   8   8   2   7  20  48  20  51 191 155 171 169 168 178 181 185 173 166 170 167 175 178 173 168 161 152 153 147 135 130 132 126 119 110 108 118 124 135 143 153 160 150 155 163 167 167 168 159 160 153 158 168 153 151 148 154 153 155 149 158 149 139   3 132 185 171 172 172 173 173 174 175 174 175 174 175 176 179 179 178 178 174 174
   9   9   8   9  11   4   6   4   7  10   0  29  62  48   6  17  56 208 153 162 167 174 177 184 182 174 164 164 159 169 165 168 162 159 156 155 149 150 148 141 132 134 127 130 130 135 126 134 135 138 150 165 166 166 162 165 158 155 153 159 160 153 151 157 154 146 155 153 152 159  26   5   2 151 193 163 182 178 173 178 180 175 178 178 179 177 181 180 178 179 178 178
   9  10  11   8   5   6  12   8   3  18  47  66  33  17   4  16  80 216 182 149 159 166 175 184 187 177 171 165 165 170 169 173 168 161 152 152 151 152 150 147 136 128 122 127 126 136 128 140 147 153 160 156 159 164 150 165 161 157 158 163 158 152 153 156 148 155 148 145 149 149   6  13  13  10 117 196 171 182 168 175 173 175 176 175 177 177 177 176 177 179 181 179
   8  11   9   9  12   4   3  12  44  54  46  42  25   5   1  17 122 203 201 172 138 174 180 180 185 176 168 166 174 170 175 176 170 167 163 159 152 156 153 144 139 131 130 134 136 152 149 156 156 157 152 157 158 159 152 161 157 162 153 160 149 150 152 155 153 137 144 137 124 163   3   6   3  16  29  98 201 183 177 182 187 178 182 181 178 175 179 178 181 180 180 180
  12   7   4   9   5   4  20  59  56  37  36  26   7   5   4  67 148 197 194 187 154 159 169 165 175 173 163 163 177 171 178 177 180 176 172 177 177 176 174 170 167 155 158 164 163 165 159 164 159 157 163 158 156 157 157 159 159 153 137 156 153 149 148 157 141 148 137 114 130 160   1   0   0   7  25  12  41 166 219 176 173 185 172 172 176 177 178 177 176 174 173 177
   8  10   7   7   8  40  52  48  49  41  25  12   4   5   5  62 168 195 196 185 180 143 148 166 185 172 159 164 177 169 179 181 184 184 183 183 184 181 181 175 171 166 169 166 170 166 170 162 167 166 164 163 163 164 174 163 161 154 157 153 150 144 140 143 144 131 119 146 139 144   1   1   2   7  15  11  23  12  41 149 210 151 185 186 185 185 182 183 183 183 183 182
  11   4   7   2  48  39  47  52  51  28  15   6   4   4  45  53 195 192 200 179 175 165 142 152 172 167 155 164 182 162 180 180 180 184 184 186 183 179 180 174 178 174 172 177 178 170 172 170 174 165 162 168 172 173 174 166 157 152 151 146 151 140 127 135 128 115 136 151 149 121   4   1   6   1   3  15  13  25  23   4  55 198 177 172 178 173 176 175 176 175 175 177
  10   2   9  21  56  27  58  53  44  24  11   7   3   4  67  23 208 193 195 179 174 168 159 142 166 172 161 162 178 165 175 182 184 186 184 187 186 182 178 181 182 177 175 172 174 168 173 177 180 172 167 176 176 173 164 166 155 159 142 146 150 135 131 133 122 116 141 149 152 112   1   0   5   1   5  15  13  17  18  30  21 163 194 186 181 183 178 179 179 177 179 178
   1   4  36  43  20  33  60  52  29  14   6   4   0   1  84  19 211 201 192 182 167 171 168 147 140 166 161 165 170 173 174 174 176 176 178 183 177 174 173 176 177 171 172 176 173 167 177 177 177 181 173 179 177 173 166 163 150 154 146 151 135 132 128 116 128 147 149 148 156  83   5   1   2   6  12  14   8  18  16  19  24  10 100 199 187 186 185 183 185 182 180 181
   6  42  38  12  21  39  66  50  22  13   4   3   1   1  86  15 222 184 194 182 174 167 166 161 140 145 158 166 164 180 170 169 175 171 168 176 174 172 173 168 173 172 176 171 169 170 173 177 175 165 172 177 177 167 155 155 144 132 137 133 135 124 104 120 141 147 145 156 158  41   7   0   2   4   6  10   9  15  20  18  10  15   8  36 185 181 182 189 180 181 181 183
  52  38  14  21  26  45  59  39  13   7   3   2   0   2  92  20 205 190 186 185 169 168 152 162 159 135 129 145 164 157 168 158 165 163 166 172 169 162 159 169 168 164 168 165 163 169 173 165 176 170 163 161 152 155 153 155 144 126 128 114 122 106 120 144 144 149 153 152 163  19  14   0   0   1   1   3   9   8  24  22  18  13  16  18  13 178 190 170 188 180 184 182
  21  13  19  22  24  58  48  30  12   5   2   2   0   2  90  30 152 193 185 179 172 169 163 160 163 149 139 119 132 158 154 153 152 153 156 159 154 151 151 150 148 146 154 163 161 159 168 157 175 159 159 160 153 152 142 140 123 118 108 100 104 117 135 141 158 152 150 153 120  11   4   0   0   4   7   8   6   9  15  23  12   9  10  11  13   7 144 208 176 185 183 180
  13  16  15  26  35  67  38  17   3   5   5   2   0  17  75  45  85 200 179 177 168 157 154 156 164 158 149 136 120 126 133 141 142 142 138 124 127 136 142 138 141 133 140 153 156 150 165 150 155 146 140 139 131 144 143 115 106 107 100  98 114 136 137 149 148 143 146 156  54  31   2   1   3   7   5   0   7  10  16  22  16   8  16  16   7  17   6 103 214 183 185 191
  15  18  16  34  35  59  34  18   4   5   1   3   0  26  60  39   4 180 179 179 167 162 156 159 160 160 152 141 137 125 115 111 125 121 105 108 111 118 122 125 127 119 123 134 132 132 146 139 154 124 124 145 124 127 116  96  96  89  97 117 136 133 141 153 164 138 151 140  13  24  11   0   4   5   1   0   5   9  17  24  13   9  16   9  15   7   2   7  32 202 186 189
  13  15  18  29  51  51  22  14   5   7   3   0   0  32  51  43  21 112 189 168 175 159 155 167 163 156 158 152 137 129 127 117  96 109 102 105  98  93 100 101  96  94 112 118 121 121 123 117 128 119 127 123 104  86  88  89 105 117 115 127 142 143 151 150 139 149 145  38  22  10  17   1   2   5   2   1   6   8  19  14  11  15  14  12  30  29  42  35  19   0  97 232
  10  18  31  39  58  30  18  11   4   8   5   0   2  33  33  59  45   5 142 165 169 166 162 164 159 161 161 154 146 130 126 117 105  94  91  80  78  85  82  85  83  76  83  93 103 103  99 102  98  97  93  84  82  90 103 106 116 121 138 151 155 141 148 137 149 142  92   3  26   8  16   1   1   2   1   1   5   6  19  19  19  17  12   5   4   3  13  24  23  43  23  31
  17  23  27  44  50  24  21  10   3   2   0   2   3  32  39  39  36  31  30 144 158 162 168 156 158 161 160 158 156 145 134 120 110  97  87  75  70  85  82  88  84  81  78  76  73  75  73  76  72  69  77  90  99 103 109 115 121 136 148 145 150 158 144 155 148 107   2  19  18  15  12   1   2   2   0   2   6   2  14  22  20  17  15   9   9   9  15  16  10  15  14  35
  15  17  33  53  39  20  19   9   3   2   0   4   3  32  36  37  29  33  20  65 141 152 157 159 170 166 160 162 162 155 143 137 129 114 105  98  90  85  81  77  82  81  80  78  75  75  78  82  81  86  95 102 105 109 118 124 131 149 151 140 153 147 154 147 124   8  23  14  16  19  12   0   2   0   0   4   5   2   9  18  17  17  16   9  13  11   9  12  16  12  21   9
