P2
# Generated by OpenCV 4.2.0
92 112
255
  40  39  39  40  38  39  38  39 161 136 181 188 150 184 195 160 177 232 250 205 210 243 225 233 137  35  24  40  43  54  61  27  12  11  10  12  12  22  36  29  47  35  26  27  45  43  39  44  29  60  84  34  41  65  61  34  40  39  57 102  69  57  95  37  23  19  23  28  27  24  24  30  39  40  41  38  37  37  39  38  38  38  38  38  39  38  39  39  40  40  40  38
  36  38  39  39  39  38  38  29 207 252 221 205 138 207 204 108 121 168 185 149 212 223 179 130  42  21  34  36  45  46  49  18  10   8   7   8   8  16  29  33  39  54  48  42  31  47  45  46  45  34  74  63  32  62  84  47  41  39  47  63  87  51 103  65  49  23  21  23  28  25  17  17  34  40  39  39  38  38  38  37  38  39  37  38  38  39  39  38  39  39  39  39
  36  38  39  38  37  37  38  27 130 198 164 230 189 230 186 204 234 134 103 193 221 198  73   3  17  34  31  36  37  38  33  27  37  50  43  37  30  20  18  28  37  43  55  64  38  31  52  52  54  52  42  63  37  48  94  62  47  64  42  51  66  72  76  79  64  44  25  25  20  26  22  12  30  40  38  39  39  39  37  37  37  38  38  38  39  40  40  38  40  38  37  37
  38  39  39  38  38  39  39  31  85 125 207 224 212 178 181 186 145 163 231 181 134  64   4  23  26  34  42  45  50  48  42  36  29  41  54  59  57  46  26  24  35  38  45  61  54  23  44  56  55  52  64  43  42  44  71  70  40  67  44  52  60  66  80  77  44  45  36  28  20  17  20  22  20  34  38  38  38  40  38  37  37  39  40  38  38  40  39  39  38  38  37  38
  39  39  38  37  37  38  40  29  94 171 233 227 205 157 236 174 148 214 241 151  42   9  21  43  58  53  47  45  44  46  60  77  68  52  37  42  41  48  49  30  35  37  46  52  58  47  24  53  66  54  60  64  33  34  54  83  30  43  36  51  62  55  71  92  33  38  34  27  26  17  16  19  16  27  38  40  38  39  38  37  38  38  39  38  38  39  40  39  38  38  39  39
  39  39  39  38  37  38  40  28  76 199 222 209 177 136 129 168 223 246 200  59  22  28  60  84  60  36  30  33  35  33  47  71  85  77  54  34  34  35  44  47  33  30  48  65  59  60  27  34  63  58  56  59  31  19  45  86  45  28  21  59  68  72  47  88  61  20  29  19  27  23  15  13  15  25  37  39  38  38  39  38  37  37  37  38  39  39  39  39  39  38  39  37
  38  39  38  38  38  38  38  28  66 151 133 113 227 247 132 133 181 157  49  20  43  72  83  44  11  11  10  11  15  17  28  40  48  56  70  69  35  41  46  31  31  23  29  62  74  66  41   9  37  49  68  55  32  17  37  72  56  29  15  35  58  85  52  62  77  24  25  23  20  19  14  12  15  17  33  44  37  38  38  38  37  37  38  38  39  37  37  38  39  39  38  38
  38  38  37  38  38  38  40  30  63 100 104 105 151 189 215 184 105  20  21  47  65  72  25  10  14  19  12  13  17  22  22  25  40  56  73  83  76  50  48  46  21  18  23  35  73  79  70  22   8  28  58  68  27  17  25  68  59  31  16  18  62  65  71  50  80  44  19  17  16  15  13  12  14  14  23  41  38  38  38  38  38  38  38  38  37  38  37  38  39  39  39  40
  37  38  38  37  38  38  40  33  56 138 157 153 122 156 226 132  39  26  46  58  74  27   7   7  10  19  27  18  18  30  32  26  22  34  53  70  69  57  45  43  42  25  27  34  36  50  71  55  11  15  23  61  37  19  14  60  58  36  26   7  52  72  60  40  66  54  20  18  13  12  11  11  12  12  16  31  39  38  38  39  38  38  37  37  37  37  38  39  38  39  40  40
  39  39  39  39  39  39  41  33  51 138 141 227 159 191 222  63  22  36  57  63  29  13  14  17  33  46  51  39  27  31  36  41  38  34  39  51  73  76  67  44  45  43  24  43  35  20  38  50  38  12  12  33  37  25  13  39  68  38  25  16  39  77  59  34  52  56  30  23  18  12  12  10  10  11  11  15  22  31  38  38  38  38  37  37  37  36  38  39  38  39  40  40
  38  38  38  39  39  40  39  34  45 155 225 233 173 122 106  21  28  52  58  40  23  19  24  38  59  79  82  80  51  34  35  47  64  42  37  40  50  61  63  61  44  48  34  35  52  31  13  28  38  25  17  23  25  24  21  26  51  36  30  15  30  64  60  26  43  60  43  20  19  12  11  11   9  10  13  14   9  14  33  39  39  39  38  38  38  38  37  39  38  38  39  41
  40  37  38  40  39  39  39  35  38 221 245 177 147 131  41  19  40  51  53  35  27  30  39  48  62  70  69  70  65  42  31  31  48  65  49  30  53  72  68  62  40  35  58  41  46  28  19  19  28  26  29  30  21  24  25  28  28  32  30  15  22  47  50  22  30  58  35  24  17  13  10  11   9   9  16  14  11   7  17  39  39  38  38  39  37  38  40  39  39  38  39  42
  38  39  38  38  38  40  39  37  30 162 150 106 148 131  20  31  50  66  49  25  25  31  38  48  50  62  69  72  71  50  41  32  31  45  72  52  34  54  70  70  72  45  29  48  62  37  25  28  28  29  32  52  28  30  31  31  29  29  26  18  19  41  41  26  24  40  46  23  20  15  11   8   8  13  19  13  12  10  13  32  39  39  37  39  39  39  40  40  39  38  39  41
  38  38  39  38  38  39  39  40  25 120 139  88 104  42  25  29  65  92  35  23  30  37  48  55  64  68  71  83  74  57  51  36  35  33  35  64  49  29  38  55  44  55  37  41  44  40  35  38  32  40  35  59  57  42  55  42  32  34  29  38  40  36  37  27  24  30  54  26  19  16  13   7  10  15  15  11  12  12  11  29  39  38  39  40  40  39  39  40  39  38  39  40
  39  39  39  39  38  38  39  40  19 144 206  73  42  28  30  37  75  62  27  32  37  44  50  60  70  64  66  65  56  42  37  33  31  40  38  47  70  54  29  40  43  30  29  32  35  30  37  43  50  48  58  56  78  66  79  65  38  42  43  58  56  34  37  26  28  27  48  40  21  14  12   9  12  16  15  12  12  12  12  29  40  38  38  39  40  40  39  40  39  38  39  39
  39  39  39  38  39  38  40  40  21 106 167  63  36  32  28  43  56  29  25  27  48  56  54  68  52  45  56  53  47  45  46  33  27  32  51  50  64  89  74  45  35  42  40  41  35  34  40  55  78  63  74  98 106  93 105  99  59  65  66  91  65  48  47  32  34  32  35  45  23  17  11  11  13  18  15  12  12  10  11  18  39  42  38  40  40  40  37  40  40  40  40  39
  38  38  38  38  38  39  39  40  29  62  74  45  39  29  33  46  32  21  21  48  76  62  66  57  66  68  68  61  47  39  42  56  53  52  51  80  74  67  78  80  56  46  54  67  76  86  72  71 106 110 100 138 152 134 139 122 105 107 108 114  89  77  60  45  45  42  31  45  25  18  13  12  16  20  18  12  13   9  10  12  27  40  40  41  41  41  38  40  40  41  39  39
  38  38  39  38  38  38  39  40  38  39  49  46  30  41  64  39  17  21  32  63  50  50  54  54  61  49  41  42  45  60  65  68  82 104 113 101 107  99  89  78  70  59  60  66  75  85 112 113 120 147 137 165 175 169 158 145 157 147 145 135 117 101  76  77  72  61  37  47  33  23  14  13  17  20  23  14  14   8   8  10  16  38  43  42  41  39  39  40  39  40  40  40
  40  39  39  38  39  38  39  39  41  36  49  41  35  57  70  25  18  27  62  44  33  38  60  55  33  34  47  66  74  89 102 102 107 112 129 136 149 136 135 115  89  81  70  61  68  87 111 135 159 161 154 170 182 183 178 179 181 166 167 167 124 109  91  91  98  75  49  42  40  25  16  18  13  17  19  16  14   8   9  11  12  23  40  41  39  38  38  38  38  39  39  39
  39  38  38  39  39  38  39  38  38  36  45  41  42  59  49  15  28  42  36  22  35  69  77  42  50  79  96 109 123 136 150 155 158 158 155 167 166 155 153 141 135 123 123 132 143 145 148 165 180 183 184 184 187 187 189 191 187 183 176 185 151 125 103  96  93  94  83  56  50  28  24  23  11  12  19  17  14  10  11  10  11  15  32  40  39  38  40  38  38  39  39  40
  39  39  38  39  39  39  39  42  35  40  55  43  40  68  33  23  37  35  22  28  56  79  59  63  87 110 115 132 146 157 157 163 177 177 179 176 173 169 169 172 175 181 185 185 180 183 190 194 194 189 190 189 189 190 189 189 184 179 180 183 171 156 150 133 118 122 124  84  62  44  30  21  10  11  19  20  16  11  12  12  10  12  22  36  38  38  39  40  39  40  41  40
  41  40  39  39  38  38  41  49  32  48  56  40  60  69  26  34  32  21  23  35  71  71  63  90 114 124 139 151 159 166 164 169 177 179 182 183 183 184 185 186 188 189 190 187 187 192 194 195 195 193 187 188 191 190 188 186 183 186 185 180 178 177 167 163 155 146 144 105  51  52  43  18  11  14  20  13  12  12  11  11  12  10  15  30  39  39  39  40  41  40  41  40
  41  40  39  40  38  38  45  41  27  65  50  56  84  63  27  30  22  21  29  46  93  76  87 116 129 140 155 163 169 169 173 180 184 186 187 190 191 191 191 188 186 194 196 197 198 197 196 197 198 194 191 190 192 190 189 185 186 187 183 181 180 179 174 171 165 155 149 133  65  33  29  19  17  18  19  11  11  10  13  11  10  10  16  24  36  38  38  39  40  39  40  41
  39  39  39  40  39  37  40  27  38  54  52  67  80  49  26  28  19  24  29  63  82  85 117 123 141 151 158 167 171 174 178 180 182 184 186 189 191 194 192 192 194 193 195 197 197 198 198 200 200 196 194 193 192 189 186 186 185 184 185 185 182 180 179 176 169 163 151 140  93  56  39  34  26  21  20  11  11   8  14  13   9  10  23  26  33  39  38  39  40  38  39  40
  39  40  39  39  39  35  31  15  46  48  58  61  68  26  27  22  20  25  36  80  73 107 116 132 143 149 159 168 172 174 179 183 186 187 188 189 190 194 195 197 196 195 196 197 196 197 196 199 199 196 194 191 187 187 185 184 185 185 187 185 183 180 178 175 170 163 157 145 133 123 106  90  40  28  19  14  13  10  12  15  10  11  25  32  31  39  39  39  40  41  41  41
  40  40  39  38  36  32  22  12  51  57  50  69  42  23  20  19  20  29  61  64  84 113 126 141 145 152 160 168 171 175 183 188 191 191 192 192 192 194 195 197 197 198 198 199 197 197 198 197 197 194 190 189 190 189 188 188 187 187 187 185 185 183 177 174 173 168 164 148 146 139 132  84  41  37  19  17  13  15  14  14  12  11  24  33  32  38  40  39  40  40  41  41
  41  40  38  36  33  26  16  13  54  58  45  53  26  26  17  16  18  34  72  53 101 123 134 143 150 157 163 170 175 180 188 192 192 194 194 194 195 195 196 197 198 200 200 200 198 200 199 196 195 195 191 192 193 190 188 189 189 189 188 186 186 185 179 178 177 170 168 153 153 145 120  68  61  30  18  19  15  16  18  14  12  11  23  35  34  38  39  39  40  39  40  40
  41  38  37  33  26  19  14  11  49  68  53  40  34  22  17  22  21  54  67  57 114 130 138 148 158 161 168 175 181 186 190 191 194 194 194 195 195 195 200 200 199 202 204 204 203 202 202 201 199 198 196 197 193 190 188 189 189 188 190 188 187 186 183 178 177 170 167 157 157 152 127 100  60  24  29  30  17  16  18  15  12  12  16  29  37  40  39  39  39  39  39  40
  39  38  35  27  18  14  12  13  48  76  46  41  41  23  16  25  25  64  44  82 119 129 146 156 164 169 171 178 182 184 187 191 195 195 196 197 197 199 201 200 199 201 204 205 209 211 206 209 209 206 205 204 199 193 190 191 191 190 190 188 187 186 183 177 177 172 167 160 159 154 140 113  54  57  80  63  26  17  17  14  12  13  16  23  39  41  39  39  40  39  39  39
  41  38  29  20  15  14  14  14  47  68  44  44  46  25  17  19  35  54  49 111 114 136 156 162 164 170 171 178 181 184 188 191 193 196 198 198 199 201 201 199 203 203 203 203 205 204 204 207 208 207 203 200 200 195 193 192 193 192 191 191 189 187 183 178 178 174 171 165 161 157 152 110  88 106 111  80  35  18  22  21  16  19  20  18  33  40  40  41  41  40  40  41
  39  34  23  16  13  13  18  11  45  53  46  55  55  25  17  20  49  49  69 117 120 145 161 163 165 170 174 177 179 184 188 190 192 198 199 199 199 198 199 200 202 206 204 204 205 205 205 206 206 207 204 201 202 198 195 191 190 193 193 192 191 186 185 183 177 172 172 166 160 158 150 129 119 117 110  81  46  30  21  24  22  16  17  17  31  39  39  40  41  41  41  41
  40  33  21  14  14  16  22  19  21  35  52  61  48  19  21  26  49  49  99 128 123 147 164 163 165 171 176 177 182 184 188 191 191 196 199 200 199 200 202 202 205 205 204 206 207 208 207 205 207 210 209 206 204 201 198 195 191 191 194 192 188 187 185 183 177 176 175 168 162 156 150 134 127 122 111  92  50  33  20  21  26  15  11  15  32  39  40  40  40  41  40  39
  38  31  16  12  12  18  23  20  19  19  59  58  24  30  32  31  39  57 119 132 121 148 168 168 167 171 174 182 184 184 189 192 191 196 198 200 200 201 204 204 207 208 208 208 209 209 208 208 208 209 210 207 205 203 198 199 194 191 193 192 187 189 185 179 176 178 174 170 168 160 149 134 135 132 115  93  58  31  27  16  21  24  16  15  32  41  39  39  40  39  40  40
  36  24  14  12  11  15  18  19  24  22  54  51  25  44  22  30  39  83 127 129 127 148 170 169 169 172 176 182 183 184 186 185 190 192 195 197 198 200 202 203 205 208 209 211 214 213 211 210 211 211 210 208 206 202 201 197 193 193 192 192 189 185 182 179 177 174 174 172 167 163 152 136 136 135 129  99  61  36  31  20  13  20  22  16  31  39  38  39  40  40  40  40
  33  21  12  12  11  12  15  22  25  28  49  43  47  33  20  29  56 110 124 130 135 151 168 171 169 176 177 178 181 184 187 189 191 193 196 195 198 199 199 202 205 205 207 209 211 212 210 209 211 210 208 208 205 202 200 198 196 193 194 193 188 185 182 180 178 174 174 172 166 160 152 139 138 137 131 105  67  43  33  26  15  16  22  20  33  40  39  39  40  40  39  39
  32  18  12  13  11  11  16  25  29  29  50  52  54  19  28  30  76 113 123 137 139 155 167 169 168 173 176 178 180 184 187 190 190 193 195 194 196 197 199 201 205 206 208 209 210 211 210 208 207 206 206 205 203 197 198 196 195 191 190 190 187 184 183 182 178 175 174 172 166 158 153 143 139 139 131 113  79  49  32  32  22  16  17  26  37  41  39  40  41  40  40  40
  27  15  12  11  11  11  15  27  36  31  39  52  49  34  20  41  92 108 125 140 141 160 164 166 168 174 175 178 180 185 186 189 190 193 196 194 196 200 198 201 203 204 208 210 210 210 210 211 209 204 204 204 202 197 196 195 194 189 187 188 186 183 182 179 176 174 174 170 166 163 155 146 140 140 133 118  87  55  37  28  21  18  26  28  38  40  40  41  41  40  40  41
  23  15  12  12  10  11  13  31  44  37  40  65  68  35  21  52  84 104 127 142 144 162 167 165 166 173 173 177 181 182 185 187 189 192 196 196 198 200 199 200 203 205 205 208 210 208 209 211 211 207 205 204 203 201 198 193 192 192 193 189 184 182 180 177 175 170 170 170 167 163 157 146 142 139 128 123 100  70  40  33  22  23  23  25  36  40  39  39  39  38  39  40
  20  13  12  12  11  10  14  34  38  38  48  49  61  27  37  69  90 112 121 143 147 161 167 166 166 174 176 177 178 181 182 186 188 191 194 194 198 198 199 202 203 204 206 208 209 209 209 208 208 207 206 206 203 202 197 193 191 188 189 188 183 176 178 178 174 169 168 169 166 163 156 147 145 138 122 127 108  77  55  32  25  22  24  31  40  37  38  39  38  38  38  39
  19  13  13  12  11  10  11  30  43  48  50  50  37  26  69  70  98 116 123 141 150 159 166 169 170 174 178 177 177 180 182 186 189 190 193 196 198 197 197 198 202 204 207 208 207 207 207 209 207 205 206 204 205 203 199 197 195 189 187 184 182 175 177 177 176 173 170 168 168 164 158 148 145 137 122 120 110  81  56  36  30  26  26  32  43  39  39  39  37  38  39  39
  18  12  12  12  12  11   9  34  62  47  54  54  52  68  80  74  99 117 127 141 146 157 168 171 173 176 176 177 178 182 183 186 188 193 195 199 200 199 201 203 205 204 203 202 203 204 205 208 205 205 206 208 207 206 199 198 197 191 187 184 183 181 181 178 178 175 171 171 169 166 155 146 144 136 125 120 108  87  71  45  33  28  27  32  39  40  40  39  39  40  41  40
  17  12  12  13  11  10   7  40  64  66  59  74  83  80  73  83 101 120 128 140 144 156 169 170 175 177 175 177 181 186 183 187 190 190 195 199 201 203 207 210 205 206 206 202 199 201 205 204 203 205 206 207 206 205 202 203 198 193 189 181 182 183 182 180 179 176 171 170 169 165 157 147 140 134 121 116 108  83  65  56  40  29  30  36  40  39  40  39  39  40  40  39
  14  13  12  12  11  12   8  33  68  68  61  68  81  80  76  96 103 119 127 140 140 153 169 172 173 175 178 179 182 185 186 190 192 193 196 200 201 206 208 209 210 209 207 204 202 203 205 204 202 206 210 207 208 207 206 204 200 196 192 186 185 185 182 182 179 176 171 168 166 164 158 147 140 130 118 116 106  88  77  54  38  34  34  41  41  39  40  39  39  40  38  39
  14  12  11  12  12  12   9  27  70  59  58  70  83  64  83 102 103 117 126 138 140 158 171 168 172 173 174 181 182 185 190 191 190 193 196 200 202 204 204 209 210 214 213 207 205 207 210 206 208 209 215 216 213 209 208 204 203 196 191 187 187 187 186 186 183 176 172 168 162 160 156 148 135 123 116 114 104  93  77  61  40  30  40  50  43  38  38  38  38  40  38  40
  14  11  11  13  12  11  10  22  60  45  57  77  66  69  89 106 107 115 126 133 140 159 166 166 172 176 177 182 185 187 190 190 188 189 192 196 203 206 207 209 214 216 213 206 205 209 210 209 212 211 218 217 215 213 208 205 203 197 189 186 187 186 185 184 183 173 170 171 165 158 155 145 130 119 115 111 107  94  77  48  36  35  38  50  42  38  38  38  37  38  40  41
  13  13  12  13  12  12   9  15  53  65  59  69  64  78  92 101 105 117 123 131 140 153 160 170 176 178 179 180 184 185 185 185 187 187 192 195 199 203 204 210 214 214 213 211 205 204 202 204 210 214 217 216 211 209 208 205 199 194 189 187 187 185 183 179 177 167 164 162 163 160 154 144 129 116 114 106 109  98  75  50  32  42  47  48  38  38  39  39  40  40  40  41
  13  12  12  12  13  12   8  15  53  64  60  67  68  74  88  99 105 116 121 130 137 153 161 163 165 168 174 177 180 182 185 188 184 183 190 194 198 197 202 206 206 207 207 207 202 199 200 199 205 208 206 205 201 203 204 203 199 200 190 188 182 180 180 174 169 159 161 155 152 154 151 145 127 114 114 105 106  98  73  46  32  34  49  52  41  39  39  39  42  42  41  41
  14  12  12  12  11  12   9   8  34  58  63  85  72  81  89 100 103 115 122 126 138 150 152 155 155 157 159 159 158 164 159 148 148 164 173 181 190 193 195 201 205 205 202 202 199 195 196 196 199 200 198 198 190 188 191 193 185 173 162 154 138 130 142 150 144 145 151 154 145 140 142 142 129 114 106 102 112  91  74  45  35  37  39  51  40  39  39  42  41  41  41  40
  13  12  13  12  13  13  12   9  18  52  55  72  69  86  89 102 105 112 115 124 138 142 152 160 147 140 148 128 109 111 113 107 116 117 125 143 157 166 170 181 189 196 200 203 199 197 197 197 199 194 191 184 185 182 162 150 133 122 129 125 101 101  98 100 117 114 114 131 128 121 128 135 131 111 102 103 120  93  56  59  41  41  41  45  40  38  39  40  42  42  40  39
  13  12  12  13  12  13  13  11  19  55  54  58  70  91  89 111 105 112 118 131 123 117 128 132 107 108 111 103  92  84  81  83  87  88  89 111 122 119 132 162 167 177 195 201 197 197 200 195 192 192 188 179 169 145 129 122 113 109  96  87  82  88  93 107 108 103 105 103 100  90  99 111 116 113 101 100 109  78  48  45  48  49  47  46  40  38  39  41  43  41  41  40
  13  12  12  12  12  11  12  11  19  48  58  65  63  81  94 106 100 113 116 116  98 101 102 108 115 123 120 136 135 130 130 120 113  96  88  95 103 123 130 155 175 180 184 195 197 203 202 196 195 194 191 168 142 138 143 112 103  95  95 118 146 159 176 175 172 157 141 120 110  90  77  84  93 109 102 104 103  61  54  36  38  47  55  47  40  39  38  40  42  41  40  40
  12  12  10  12  11  12  11   6   8  47  59  64  59  76  90 109 102 107 115 100 100 111 125 129 134 154 168 181 192 201 209 207 201 184 164 147 125 126 128 143 174 181 183 193 203 201 196 195 195 193 183 162 154 148 130 139 150 150 170 187 196 203 197 192 187 183 170 162 155 137 114 100  91  97  96 108 101  65  48  39  40  50  49  45  40  40  39  39  40  41  41  41
  12  12  11  11  11  11   6  26  81  70  44  65  61  82  84 109 110 103  95  96 108 125 142 151 157 163 177 187 192 187 176 169 164 166 153 146 151 144 132 144 165 174 183 194 204 203 200 195 193 188 176 168 154 146 156 150 138 138 144 128 117 110 132 149 153 166 169 165 160 152 147 134 118 109 104 107  96  59  39  32  40  52  55  37  33  39  40  40  39  40  40  39
  13  12  12  12  11   9  16 110 167 124  65  69  63  77  84 108 111  95  94 112 127 145 156 159 159 166 160 132 113  72  60  87  79  96 135 140 139 150 145 140 150 166 176 195 203 201 199 192 189 182 171 155 148 156 148 143 134 109  71  74  91  46  52  72  81  91 126 159 160 151 148 154 148 119 105 103  79  49  37  33  44  52  75 107  69  36  40  40  40  40  40  39
  13  12  12  11  10   6  32 131 161 167 101  72  70  63  71 107 112 106 120 150 160 168 162 159 162 133  94  71  70  55  67 101 116  72  97 128 148 158 152 142 143 158 171 191 201 205 198 190 185 172 156 151 151 161 167 130 126 150  99  89  62  72  66 110 115  51  70 113 155 158 156 159 146 130 105 101  74  49  33  30  37  64 120 156 129  44  37  40  41  41  40  39
  12  13  12  11  12   7  24 104 108 177 114  75  63  59  67 101 113 112 133 149 169 172 166 162 131  78  68 124 141  76  84  56  89 101 167 180 117 136 176 150 145 149 170 190 200 204 201 190 179 163 156 156 169 172 121 109 152 178 110  98  89  80  73 146 151 106  74  92 151 161 162 165 152 130 107 104  73  43  33  25  41  83 147 133 110  41  37  41  41  40  40  40
  13  11  12  12  11  11   2  85 116 106 133  82  52  48  73 110 122 123 136 147 162 178 174 167 134 102 124 135 153 106  93 109 116 119 172 169 143 110 143 175 153 144 168 188 198 200 196 187 172 159 162 171 190 162 141 163 155 156 166 162 158 133 124 136 137 146 139 141 158 159 162 157 146 137 114 103  74  46  36  26  47 111 130 140  95  32  39  41  40  40  41  41
  15  12  13  11  12  13  10   8 149  92 108  80  52  42  76 110 122 131 141 158 175 166 165 162 158 152 141 150 155 164 158 162 180 171 172 169 175 179 178 171 159 146 167 186 194 198 191 182 167 157 165 175 192 187 195 192 179 181 187 191 173 181 155 160 162 159 154 161 157 158 158 165 156 141 117 103  72  33  25  33  68 107 155 149  38  36  39  39  40  40  40  41
  16  13  13  12  12  12  13   0  99 180  61  97  98  43  61 107 119 137 146 151 170 177 174 168 172 171 168 173 181 176 175 177 193 195 191 184 185 196 190 164 158 146 163 182 188 194 189 182 167 153 164 173 178 181 184 185 180 179 183 190 183 180 175 169 160 161 171 176 172 172 170 169 163 144 119 105  77  29  28  60  95 152 189  57  29  40  39  39  40  39  40  42
  17  14  13  13  12  12  11   2  47 210 113  85 139  57  68 111 119 144 158 155 176 183 184 179 169 165 170 173 176 179 185 186 194 192 184 186 184 181 168 160 158 148 160 180 186 191 189 181 165 153 167 172 175 174 179 182 180 175 172 169 162 159 160 160 162 173 180 175 171 174 175 166 161 150 124 107  82  29  56 106 167 215 116  19  42  39  39  39  41  41  41  41
  20  15  13  14  12  12  13  10  10 178 190  92  91  62  86 114 124 146 154 163 179 182 177 176 178 178 171 166 166 170 176 178 181 180 182 185 184 174 172 164 156 147 157 182 186 186 185 176 158 151 167 172 179 180 178 188 189 191 193 190 183 182 182 182 183 179 174 177 181 170 173 169 159 147 128 104  85  41  76 131 205 175  29  36  39  40  39  40  41  41  41  41
  23  16  12  12  12  11  13  13   0 118 201 140  97  58  87 116 130 142 157 169 174 176 180 184 182 179 174 182 182 184 187 188 188 187 189 187 181 179 170 169 158 145 153 181 188 184 184 174 155 152 169 178 178 182 181 181 188 190 193 190 192 192 192 187 182 182 178 176 182 172 167 169 161 147 128 105  96  46  94 146 201  77  24  40  39  39  40  40  39  40  40  40
  25  16  12  13  13  12  12  12   0  63 186 156 159  69  91 116 129 145 165 168 172 178 188 184 178 180 188 190 187 190 191 189 189 189 188 187 188 181 169 162 155 145 153 180 187 184 181 172 155 150 168 180 181 183 186 186 186 188 186 186 192 193 193 189 183 182 178 172 177 174 170 164 163 149 130 104  87  58 152 174 141  17  40  40  39  38  40  40  39  40  40  40
  27  17  12  13  14  11  11  12   7  32 166 178 171  87  90 111 130 155 164 166 176 183 186 183 181 183 188 188 187 190 191 192 191 194 195 192 189 179 168 159 152 145 154 175 185 186 179 171 158 147 167 180 181 185 186 188 192 191 192 185 185 187 185 188 186 181 179 175 172 177 171 164 155 145 128 103  81  78 188 156  49  31  40  40  39  37  40  41  39  40  40  40
  25  15  12  11  11  12  13  12  11  12 128 194 166  91  95 109 129 154 163 177 183 180 180 183 181 184 189 192 192 192 196 196 191 198 197 193 183 173 166 158 149 146 159 172 179 185 181 173 161 152 160 175 180 183 186 189 193 196 198 197 186 184 179 180 184 182 178 172 170 168 165 165 153 144 128 101  83  97 192 104  28  41  41  40  38  40  40  38  39  38  40  42
  22  14  13  11  12  13  13  13  12   4  85 213 165 113  97 106 132 149 165 177 172 175 180 180 182 185 192 195 194 194 197 200 198 197 195 192 185 172 160 156 148 150 166 175 185 187 181 172 162 154 156 166 178 183 185 190 188 192 196 201 193 189 188 183 181 180 179 173 169 165 161 164 159 144 127 101  83 107 196 101  26  40  39  39  41  41  40  39  37  38  39  40
  18  13  12  12  12  12  12  12  13   0  75 227 159 124  90 103 130 144 169 170 171 178 180 181 181 187 193 197 199 198 198 202 200 197 196 194 186 169 161 153 146 152 164 180 188 190 182 173 165 160 152 156 174 183 188 191 191 192 193 197 195 194 196 191 184 180 179 177 171 170 164 161 159 140 125 100  82 127 211 109  24  40  38  39  39  40  39  39  40  40  39  40
  16  12  12  12  13  12  12  12  13   1  69 213 158 134  86  95 124 143 164 160 171 178 181 184 185 189 194 196 199 201 202 202 201 200 199 196 185 170 162 149 144 154 167 179 188 190 183 173 168 163 154 149 169 185 192 194 196 192 196 196 197 195 198 198 185 181 177 174 172 169 163 159 157 143 123  99  83 148 207 108  26  41  39  40  40  40  40  40  41  41  40  40
  16  13  11  11  12  12  12  12  12   6  40 178 164 139  98  96 114 143 153 160 172 175 179 184 186 190 195 198 201 204 203 205 205 206 206 199 188 170 154 143 143 159 174 180 188 191 186 175 170 165 155 145 161 180 196 199 200 199 199 200 200 198 198 200 190 185 178 176 173 168 162 156 152 144 116  91 104 153 181  94  27  41  40  40  41  40  39  39  41  40  40  40
  18  14  12  10  12  12  11  13  12   9  25 137 186 155 104  92 107 139 152 161 167 171 178 184 187 190 195 200 204 203 205 213 213 214 211 205 189 162 149 137 147 168 179 188 193 196 188 176 171 166 160 152 156 165 189 207 208 205 202 208 204 203 199 195 193 188 180 177 170 163 157 151 148 140 111  82 128 166 157  46  34  40  41  42  40  40  40  40  41  39  41  43
  21  15  12  11  11  12  11  12  11  10   9 118 189 164 104  90 102 136 151 157 164 172 181 184 186 192 196 200 202 205 211 219 221 220 215 206 177 151 155 141 158 176 184 190 194 197 191 179 177 172 166 157 154 155 173 201 210 215 213 213 212 206 206 197 191 188 184 176 170 161 152 144 141 134 107  83 142 166 130  24  40  40  40  40  40  40  41  40  40  41  42  43
  26  17  13  13  12  12  12  10  11  12   1  73 174 161 104  92 101 134 143 152 161 171 179 184 186 190 196 201 204 209 216 222 222 220 216 201 163 153 157 149 164 180 186 191 198 199 194 188 182 173 168 158 152 154 159 188 198 206 214 220 217 211 210 200 192 186 183 177 172 162 150 136 132 131 101  88 136 178 110  28  39  41  39  40  41  41  40  40  39  40  40  41
  33  21  13  14  14  13  11  12  12  11   1  59 190 181 114  89  96 125 140 148 159 169 177 185 188 190 193 199 205 215 227 224 215 211 210 189 154 162 163 150 163 175 184 192 209 219 207 194 184 173 166 159 158 157 151 181 191 192 198 212 219 214 209 202 192 187 184 179 171 162 146 131 127 125  96  88 151 190 113  28  39  39  39  40  41  41  41  40  39  38  40  39
  37  27  14  12  12  12  10  12  11  12   4  41 178 183 128  88  95 121 137 145 155 166 175 183 188 188 188 194 201 212 215 206 204 206 203 182 150 163 168 153 149 155 170 184 203 220 212 195 177 158 157 163 164 155 158 186 185 189 187 190 202 209 211 201 191 185 183 176 167 159 142 129 126 115  86 103 170 174 101  29  39  38  38  41  40  40  41  41  41  41  40  40
  39  31  17  12  12  11  11  12  12  13  10   5 122 178 138  93  94 121 131 134 148 160 172 178 184 185 187 193 200 202 198 198 197 200 188 182 154 155 167 153 129 120 140 171 186 188 186 182 151 119 124 148 161 147 165 188 182 189 189 185 192 203 203 197 190 183 177 170 165 155 141 127 124 106  86 128 178 150  48  35  41  39  39  41  41  39  40  42  40  40  41  40
  42  36  20  12  12  11  12  12  12  12   9   4  25 156 168  90  93 119 128 130 143 157 166 172 179 182 188 191 195 193 189 189 191 189 186 183 163 137 153 138 143 110  92 135 166 166 160 146 120 130 141 113 124 138 174 179 183 190 189 188 186 190 193 192 190 182 177 170 165 151 133 123 117 105  84 132 194 103  29  40  40  40  41  41  41  40  41  40  41  40  41  40
  42  37  21  12  11  11  12  12  12  12  12  12   1  37 109  83  94 116 128 125 139 152 163 171 178 180 184 185 186 183 182 185 188 185 184 179 175 145 123 141 175 168 137 105 126 136 130 125 149 159 154 136 126 146 154 161 175 184 192 193 187 184 187 189 185 182 177 172 163 144 129 123 114 106  87 103 106  36  39  42  39  38  41  41  41  41  41  42  40  41  39  40
  45  40  24  12  12  12  12  11  12  11  12  12  13   3   0  53  99 115 132 123 133 145 156 167 176 178 180 180 181 180 184 185 185 186 181 166 160 156 140 129 134 142 157 146 117 116 122 156 152 135 131 141 146 129 142 146 164 180 189 193 197 188 186 186 184 179 175 167 155 138 129 122 113 104  99  53  24  37  40  40  40  39  40  40  41  40  40  40  39  39  39  40
  44  41  30  15  12  12  12  11  12  11  12  12  12  13   5  42  95 113 135 127 131 139 150 160 169 175 178 181 180 181 187 187 179 172 166 154 157 153 134 117 110 121 130 158 165 156 166 162 133 118 124 115 128 127 139 137 157 167 184 188 195 192 186 183 180 177 175 162 152 136 128 124 113 108  95  53  39  39  38  38  38  38  40  41  41  40  39  40  42  40  39  40
  41  42  33  17  12  12  11  12  12  11  12  12  12  12   8  24  83 115 142 132 134 138 145 159 169 174 178 184 182 170 173 179 162 157 137 141 138 131 127 135 100 103 127 138 152 170 157 131 122 112 128 117 120 125 124 134 138 141 171 174 176 184 185 182 181 178 172 160 150 131 127 123 115 111  91  49  40  41  40  38  38  39  38  39  40  41  41  41  42  41  38  40
  41  40  34  19  12  12  12  11  10  11  12  12  12  12   8  24  89 112 141 139 136 139 145 159 171 176 177 176 152 152 156 150 129 130 136 140 134 134 131 133 120 128 124 125 135 157 165 125 107 128 136 134 135 122 119 123 125 131 149 166 161 175 178 179 181 176 170 160 146 131 129 121 116 109  93  46  40  41  41  40  39  39  40  41  40  42  42  41  40  40  39  38
  40  40  35  20  12  12  12  12  12  12  12  12  12  12   9  15  84 108 134 148 134 136 145 161 172 175 168 154 134 144 146 130 117 132 123 133 140 129 122 117 130 129 123 106 126 160 158 126 114 123 148 131 120 112 117 122 117 139 134 131 147 145 155 173 179 178 170 158 140 133 136 125 117 107  85  41  40  41  40  40  39  39  40  40  41  41  40  39  41  41  41  39
  39  40  38  22  13  11  11  11  11  11  12  11  11  12  11   7  66 105 133 147 137 130 142 162 176 171 146 145 133 122 137 123 121 126 106 132 142 119 116 124 137 126 135 120 144 168 144 134 120 123 137 127 121 121 108 135 112 109 124 115 136 139 132 149 175 177 171 153 135 134 135 132 120 101  75  38  41  40  38  39  39  40  40  41  41  41  41  39  40  40  40  41
  38  40  38  25  14  12  11  10  11  12  12  11  11  11  11   7  62 111 126 139 138 121 141 162 171 147 125 139 131  98 106 113 116 103 110 133 132 123 121 150 127 129 128 141 150 168 141 108 127 142 133 131 117 118 127 116 112 118 112 116 105 129 136 134 153 178 170 147 126 135 139 131 112 102  71  37  41  40  40  42  40  40  42  42  42  41  41  41  39  39  40  40
  38  39  38  28  15  12  11  12  12  11  10  13  11  11  11   5  52 107 123 136 135 123 137 158 166 153 125 127 128 120 119 124 113 122 122 121 136 131 146 153 150 145 160 175 179 167 162 135 177 196 172 156 141 136 136 128 131 124 112 119 126 119 142 138 131 170 165 142 125 143 132 123 109 106  70  38  39  40  40  43  41  41  41  40  42  41  41  41  40  41  40  40
  39  39  40  29  16  12  11  11  11  11  12  11  11  12  12   6  37 103 123 136 134 121 119 151 175 158 116 134 138 138 141 141 139 135 134 139 146 143 163 165 176 182 198 209 222 188 197 204 211 197 184 171 164 162 149 156 148 133 134 134 135 128 129 135 125 153 168 129 120 139 130 121 110 102  57  37  39  40  41  39  41  41  40  40  42  44  43  39  41  41  40  41
  39  39  40  31  19  12  12  11  10  10  10  10  12  12  12   6  25  91 115 130 129 117 120 148 172 154 132 139 157 166 159 151 132 128 143 152 154 162 164 158 157 161 165 178 197 194 192 181 166 151 150 143 153 159 158 157 153 138 150 157 154 152 136 128 129 151 154 114 114 137 128 120 110  93  42  36  40  40  40  40  42  41  40  41  42  43  41  39  40  42  42  41
  39  39  40  35  23  15  12  12  12  10  10  11  11  11  11   9  15  73 121 126 135 126 116 131 166 164 155 145 158 169 172 185 162 127 112 106 110 109 105 104 103 113 118 123 122 126 121 115 110 103  99  97  98 100 111 121 128 132 138 153 167 163 151 125 127 149 140  91 110 140 124 120 112  87  36  39  40  40  40  40  41  41  41  42  41  41  41  40  42  42  42  41
  39  39  39  38  27  21  15  12  12  12  12  11  12  10  11  10   6  60 117 132 136 129 116 112 152 168 166 161 158 162 179 179 179 161 136 115 109 110 113 113 113 112 115 114 107  99 100 103 104 106 108 120 117 100  87 100 127 155 172 164 165 160 157 138 134 146 116  82 133 138 117 115 101 110  74  31  41  41  41  40  39  40  42  40  40  41  41  41  43  42  41  40
  41  40  40  38  33  27  18  13  11  11  10  11  12  11  11  11   5  36 110 130 141 140 126 109 135 167 167 165 170 168 166 180 178 167 158 154 153 150 143 144 152 155 159 158 154 150 146 142 145 144 145 140 135 127 126 135 151 164 179 185 178 164 159 146 131 141 100 101 133 127 126 113 103 127 127  52  34  41  40  40  40  40  40  40  40  40  41  42  41  41  40  39
  41  40  40  38  35  30  24  15  12  12  11  11  12  13  12  11   8  21  90 126 138 146 133 108 127 159 172 172 161 156 169 179 176 166 160 158 163 163 156 151 150 151 163 165 165 160 157 156 158 153 147 141 136 143 146 140 153 169 181 192 188 163 155 157 147 133  94 116 139 132 129  98 109 175 120 115  42  37  40  40  39  41  41  40  41  39  39  40  40  41  40  40
  40  40  40  39  38  36  30  18  14  11  11  10  11  12  12  12  11   6  59 119 139 142 138 115 115 144 169 169 155 148 165 165 170 167 163 160 160 168 170 164 165 162 166 173 171 167 165 174 170 166 156 149 151 154 149 150 161 173 176 183 181 164 148 153 137 118  94 134 139 126 125  84 163 185 180 146 105  34  38  40  38  41  41  41  41  40  40  39  40  41  41  40
  38  40  42  40  39  39  34  21  13  11  11  10  11  10  12  12  12   7  34 102 132 142 146 101 109 133 163 169 162 150 166 163 166 168 165 161 160 165 171 173 171 169 168 167 170 174 173 163 163 161 163 163 162 153 154 155 165 173 171 173 181 167 163 151 125 100 107 141 129 119 106  88 182 142 219 195 134  96  31  40  40  40  41  41  41  40  40  40  40  41  40  41
  41  40  40  41  40  39  37  23  12  11  12  10  11  12  12  12  12  12  11  63 118 133 146 120 108 117 143 157 141 157 158 159 160 163 165 161 160 162 160 165 168 171 174 167 161 160 160 161 163 166 168 165 158 153 161 164 170 169 174 168 165 156 155 149 120  99 119 139 121 121  89 164 160 173 240 175 139 147  83  29  41  38  39  39  40  40  41  40  38  40  42  42
  40  40  39  39  39  38  38  23  13  12  12  12  12  11  11  11  11  11   6  30  93 120 139 139 117 115 120 143 137 135 146 149 159 162 161 164 161 162 160 159 161 154 150 155 146 138 142 149 159 154 155 154 156 162 165 166 171 166 171 167 148 148 145 134 107 122 123 130 113 108  97 177 232 204 247 165 155 200 157  68  30  40  40  40  39  40  41  40  40  41  42  42
  39  39  39  39  39  40  39  26  14  12  12  12  12  10  10  12  11  10  10  12  54 109 131 140 127 126 114 128 137 131 135 134 152 166 163 167 168 168 168 167 166 164 144 142 150 144 140 133 134 141 163 167 167 169 168 167 167 168 162 156 136 138 131 117 103 127 114 119 114  73 186 187 172 179 207 172 166 246 223 151  57  29  40  39  40  40  41  41  41  41  41  41
  40  40  40  40  41  39  40  28  15  12  12  12  12  12  11  11  11  11  12   7  20  80 108 128 122 125 116 115 133 139 129 144 143 151 163 168 174 175 174 175 175 173 162 143 137 147 143 127 138 157 174 177 175 172 169 169 168 168 153 152 143 137 126 100 108 126 117 105  95  84 200 213 126 190 195 123 186 224 176 170 145  52  32  41  40  41  40  40  41  41  40  41
  40  40  40  39  39  40  39  30  16  12  12  12  12  12  12  12  11  11  12  12   5  26  97 124 116 120 117 107 127 124 132 143 136 146 157 166 173 182 184 183 179 171 165 156 147 146 147 130 145 169 176 180 181 174 171 162 168 172 154 144 131 139 112  92 122 122  99  84  70 130 219 255 168 170 212 167 210 187 140 212 199 140  47  33  42  40  40  41  40  41  40  41
  41  40  39  39  39  39  38  31  17  12  12  11  11  12  12  11  12  12  11  11  10   7  62 101 113 119  98  89 104 118 137 140 143 142 149 154 163 178 179 182 181 174 172 166 152 153 166 149 158 180 165 175 179 176 166 167 164 160 160 138 121 109  96  99 112 114  90  81  82 182 229 225 199 150 218 226 212 141 237 208 220 172 136  40  33  42  41  41  41  41  40  40
  38  39  39  39  40  38  38  33  19  13  12  12  12  11  12  11  12  12  11  11  12  10  43  63 101 116 105  92 103 118 127 137 148 148 143 149 155 160 160 157 167 176 183 175 160 170 176 173 178 176 163 173 175 165 163 165 160 152 151 134 119  91  90 106 102  98  85 120 112 144 191 159 219 204 211 221 216 159 176 141 201 180 159 139  39  33  42  41  42  40  39  41
  39  39  39  38  38  38  39  35  22  13  13  10  12  12  11  11  11  10  10  11  12   3  62  68  74 109 110  99 107 105 106 120 138 140 141 146 154 151 139 147 163 176 189 196 193 189 178 181 180 173 157 147 161 149 162 159 152 146 143 122  99  88  85 106 110  84 118 149 111 153 221 165 173 238 177 195 237 254 165 152 224 222 230 229 136  37  35  41  39  40  40  40
  38  41  40  39  38  38  38  36  25  14  12  11  12  11  12  11  12  10  10  12   5  37 106 111  82  77 106  95  97 106 110 115 138 142 139 142 132 139 153 156 171 184 189 195 199 195 193 184 184 177 173 150 155 149 155 155 153 144 122 113  90  79  93  99  95 107 149 146 109 161 202 233 216 179 168 224 221 216 187 210 212 188 214 224 193 133  41  34  41  39  40  40
  39  40  40  40  40  39  39  37  27  16  12  12  10  10  12  12  12  12  12  12   0 145 136 109 132  80  79 100  88  79  98 112 118 141 144 126 124 136 143 153 167 179 189 186 184 191 197 187 187 169 157 159 155 149 139 150 144 131 113 108  91  77  90  84 109 145 143 143 109 177 172 156 237 222 177 180 177 140 219 221 210 139 193 197 194 224 128  45  34  41  41  40
  39  40  42  40  41  41  39  38  30  20  13  12  10  11  12  12  12  12  12   6  20 218 142 102 140 133  84  82  84  76 102 110  97 114 127 133 136 149 131 146 168 173 184 182 183 184 179 183 181 172 162 159 153 145 145 148 126 117 105  81  75  81  84 109 144 144 145 140 109 171 197  96 154 250 217 210 151 206 234 162 204 203 150 168 144 212 179 139  46  33  41  40
  38  40  40  40  39  39  40  39  35  22  13  11  12  11  11  12  12  12  12   0  72 242 160 104 137 143 131  89  86  87  92  90  93  94 122 139 128 129 149 163 155 169 175 164 164 170 167 170 170 165 161 155 137 133 134 115 105 119  95  73  69  83 103 140 147 145 146 136 114 154 204 133 105 146 204 238 208 215 233 218 125 161 172 125 172 222 167 196 173  48  28  41
  39  39  38  38  38  38  38  40  37  27  16  12  12  10  11  12  12  11   3  43 145 240 184 105 137 144 143 129  97  89  91  71  76  89 119 124 107 138 144 149 145 146 163 163 153 162 165 166 162 158 141 142 150 131 125 105  80 100  84  67  83 103 130 148 149 151 148 138 110 165 210 140 141  94 168 242 228 175 225 183 158 152 210 192 241 216 175 158 246 164  64  28
  39  38  37  37  38  37  38  39  39  32  21  14  11  11  12  12   9   0  79 146 163 231 207 115 135 146 148 142 126  95  87  75  60  74  97 101 110 131 124 124 142 139 142 148 149 145 154 154 144 145 138 148 134 112 124 105  85  77  62  83 110 125 145 150 152 150 145 139 122 209 195 132 143 124 111 238 229 230 165 172 242 153 148 170 234 157 187 172 236 236 180  68
  39  39  39  38  38  38  38  38  37  33  24  16  13  12  13  11   1  78 166 130 168 224 233 139 129 143 146 146 144 121  99  94  76  63 101  89 106 110 115 110 129 139 135 133 126 127 135 138 147 133 131 127 109  91 115  93  79  65  80 114 122 146 155 150 153 150 146 131 162 233 182 140 138 155 105 184 245 237 228 202 197 159 162 143 180 159 217 250 194 177 224 205
  38  38  38  38  39  38  40  39  38  35  29  21  14  13  12   3  79 162 159 133 177 213 246 191 130 145 148 151 152 142 120 101  87  70  67  71  79  94  98  96 110 125 126 114 109 119 118 129 139 129 117 113 105  83  80  67  70 100 115 116 140 155 157 155 154 152 148 138 215 220 174 146 135 153 137 105 231 255 197 193 207 170 199 158 133 188 222 234 184 139 217 196
  38  40  39  38  37  38  39  39  39  37  33  26  19  15   3  49 166 172 155 150 186 207 234 239 159 146 153 158 156 151 136 116 105  95  79  68  70  71  67  82  96  88 102  88  99  96  93 100  99  98  85  75  75  70  63  86 109 126 120 129 154 158 158 160 154 154 138 184 236 202 175 151 140 151 139 111 116 205 231 186 213 184 181 158 150 189 191 197 238 178 228 172
  40  40  39  39  38  38  38  38  39  37  34  31  25  13  22 142 166 169 137 166 192 204 223 248 220 151 156 157 158 159 153 133 123 116 106  99  84  69  54  65  77  67  76  81  71  84  81  64  59  58  57  62  77  93 102 121 125 128 129 149 160 163 164 160 160 149 160 232 218 194 176 159 137 155 144 133  95  78 145 221 238 200 210 145 207 172 185 152 248 245 226 219
  39  37  38  39  38  38  38  38  38  38  36  34  29  24 102 169 170 137 140 189 197 206 217 234 251 203 158 162 160 161 161 152 134 131 125 115 113 110 100  90  87  87  94  91  94  94  93  85  86  89 102 111 114 123 130 134 128 128 143 156 162 165 164 163 157 157 224 229 207 193 177 157 146 162 160 139 123 104  85 119 145 143 223 181 191 166 209 201 190 206 225 196
