P2
# Generated by OpenCV 4.2.0
92 112
255
  39  39  41  41  41  40  38  38  38  38  38  39  40  39  38  37  36  35  35  35  35  35  35  34  36  36  36  34  45  42  51  49  76  71  51  54  62  31  31  32  32  48  65  62  82  94  99  91  70  74  64  47  65  72 117 132 110 100  37  24  33  36  36  34  34  35  35  34  34  34  34  34  34  34  34  35  34  36  33  33  33  34  33  34  35  32  33  33  30  32  34  33
  39  39  39  39  40  38  38  38  38  38  38  40  40  39  39  39  38  37  37  37  36  34  35  34  35  35  35  46  46  47  68  70  74  69  58  63  48  46  55  59  67  90 113  99  80  81 106 110  83  59  69  62  54  64  73 106  96  92 100  74  44  33  29  31  34  34  33  33  33  34  32  34  34  34  34  33  34  35  33  33  33  34  33  35  33  33  32  33  31  31  32  33
  40  40  38  37  40  39  38  37  39  39  38  38  38  38  39  39  38  38  37  37  36  36  37  36  34  36  59  51  50  68  77  67  56  53  59  51  53  66  85 111 150 164 153 126  92  65  90 115  99  49  61  78  58  78  67  53  64  66  72  87  87  74  60  45  38  38  36  34  32  31  34  33  34  34  34  34  34  33  33  33  32  34  35  34  33  33  33  33  32  32  32  33
  41  40  40  41  40  39  38  38  38  39  39  38  38  38  38  38  38  38  38  37  37  36  37  36  44  65  55  58  67  55  48  51  52  60  73  80  93  99 124 151 160 147 120  84  67  48  60  91  93  58  64  97  63  85  70  29  47  42  63  56  70  69  72  61  49  40  38  38  37  36  34  33  35  34  33  34  35  34  34  32  34  35  34  33  33  33  33  33  34  33  32  34
  41  41  41  41  41  40  39  39  39  39  39  38  38  38  37  39  39  38  38  38  37  36  44  55  63  62  65  68  48  36  41  50  68  85  90  93 113 134 143 157 134 100  74  60  44  47  52  76  52  54  65  87  77  71  57  25  38  41  46  41  41  50  53  58  44  38  32  31  38  40  36  31  32  33  34  33  34  33  34  34  34  34  34  33  33  33  33  33  34  36  33  32
  42  40  40  41  41  41  40  39  40  40  39  38  38  40  38  39  40  40  39  39  37  43  63  60  59  46  44  56  67  82  96 101 105 106 107 118 122 122 127 107  94  64  52  54  46  55  30  60  36  33  45  66  80  68  34  24  53  35  22  28  29  30  32  43  41  33  31  29  32  37  35  41  35  33  32  34  34  39  40  34  35  34  33  34  32  32  32  33  33  33  32  32
  42  42  42  41  40  40  39  40  40  40  39  39  40  41  40  39  39  39  40  39  39  40  38  50  51  59  85  99 102  84  74  62  52  59  78 119 130 127 124 104  91  83  53  36  45  37  25  33  27  27  28  38  56  51  21  37  39  17  19  22  33  41  46  57  70  64  51  39  35  43  40  35  42  34  33  33  33  43  36  34  34  32  32  33  33  32  32  32  31  32  32  30
  41  41  41  42  42  41  40  40  40  40  41  40  41  39  40  39  38  37  39  37  38  38  67  64  67  68  45  38  33  29  36  43  43  49  61  75  89 111 137 157 147 121 107  66  37  28  27  24  20  24  25  44  54  38  28  27  13  15  10  44  85 121 127 132 123 116  93  80  61  44  41  35  38  46  36  33  35  36  31  32  32  31  32  33  32  31  31  32  32  33  34  32
  41  41  41  42  42  40  40  40  38  39  40  41  40  39  41  44  47  46  49  51  49  46  56  40  28  26  29  30  29  27  26  31  53  66  63  55  47  39  39  64  91  96  80  69  64  33  22  19  19  17  23  45  45  41  26  10   9  11  55 106 109 105  94  95 101 107 110 109  90  68  49  32  33  39  38  34  41  35  32  33  34  32  32  32  32  32  32  32  33  33  33  33
  43  43  44  43  41  40  40  40  39  39  40  41  41  39  39  41  42  41  47  52  43  38  32  21  21  20  25  27  30  31  36  69  94  56  31  23  22  25  24  24  21  42  84  76  42  44  26  21  15  17  27  33  42  45   9   9  15  38  52  37  34  35  62  74  66  59  62  60  63  78  99  80  39  27  35  36  43  31  32  33  34  32  32  32  32  31  32  32  32  32  33  33
  43  43  43  43  41  41  41  41  41  41  40  40  39  38  39  40  37  39  34  23  23  27  14  18  36  43  41  32  28  36  46  56  40  19  10   5   7  10  12  18  22  19  22  64  61  31  30  23  18  13  28  32  66  22   7  15  28  25  19  35  51  90 110  87  56  52  54  42  35  31  43  62  58  49  32  33  41  35  33  34  33  32  32  32  32  31  31  30  32  32  33  33
  43  43  43  42  41  43  41  40  40  40  40  39  39  39  40  38  41  29  15  14  15  12  29  45  39  23  14  33  61  58  52  42  38  41  40  22   9   9   8  11  17  21  14  12  63  51  30  31  19  14  30  84  67   7  15  19  18  18  44  81  95 103  74  66  68  66  56  50  52  44  42  34  36  39  35  28  30  38  34  34  32  32  32  32  32  31  31  31  32  32  33  33
  43  43  43  44  42  41  40  39  39  39  39  38  39  40  40  38  42  30  15  14  17  38  39  19  12  30  81 108  98  96  88  59  47  45  47  48  23  13   9  11  13  16  22  13  28  68  31  37  23  18  44  81  30  18  18  23  54  86 102  97  95  98 102  98  87  85  74  64  48  42  37  43  51  39  24  26  24  31  36  33  33  32  32  32  32  32  31  32  32  32  33  32
  43  42  43  43  41  41  41  40  40  41  40  39  38  39  37  38  45  53  31  19  29  21  15  40  91 130 103  82 107  96  54  31  25  19  19  31  39  27  19  20  20  17  24  22  16  50  37  33  24  37  55  40  28  27  43  70 104  99  72  82 111 122 117  99  82  74  74  61  51  44  42  32  33  40  41  21  23  20  29  34  33  34  33  33  33  32  33  32  33  33  33  32
  44  43  42  43  42  41  42  41  40  41  41  39  38  39  39  43  49  47  29  20  14  23  47  78  97  61  56  93  92  50  32  29  26  19  16  22  34  33  31  31  47  31  24  30  26  38  36  29  31  50  64  45  36  46  64  67  58  62  71  77  85  81  78  75  63  46  47  47  53  60  53  44  40  32  39  32  17  17  19  38  37  33  33  33  33  33  32  33  33  33  33  33
  43  43  43  43  42  41  42  40  40  41  41  39  39  40  38  48  49  31  21  19  36  42  46  52  55  75 110  95  65  38  31  30  28  25  14  23  32  40  38  36  76  52  30  60  40  35  34  29  36  53  65  68  50  42  43  48  50  47  45  45  60  92 118 117  97  96  87  77  55  48  60  66  56  41  36  38  31  26  21  29  38  32  33  33  33  32  31  33  33  33  33  33
  42  43  42  42  42  43  41  40  40  41  41  39  39  40  40  48  34  29  29  39  34  35  51  71  79  94  85  78  53  38  34  29  23  28  51  72  56  47  45  66  95  49  53  72  39  34  35  35  47  61  67  67  48  49  44  43  37  40  34  38  46  56  43  51  67  88 111 126 102  69  46  58  63  44  29  26  26  23  19  17  35  38  33  33  34  33  33  33  33  33  33  33
  43  42  43  43  42  42  41  40  39  41  40  38  39  40  40  43  31  33  36  36  55  87 115 108 108  92  84  64  52  41  34  29  26  39  71 114 112  66  64  96  79  58  76  59  35  43  42  43  48  63  65  67  63  54  49  48  47  41  38  41  34  28  42  56  58  49  54  68  92 104  85  58  54  72  51  34  29  22  18  12  26  38  32  36  36  33  33  32  33  33  32  32
  42  43  41  42  42  41  41  40  40  41  38  42  42  37  33  27  29  31  43  70  98  89  63  44  79 101  84  59  55  42  33  38  40  57  79  99 130  93  97 113  85  90  69  42  46  55  50  52  57  81  89  83  80  71  68  61  52  57  55  45  38  36  36  40  42  43  54  52  43  47  77  82  53  52  70  48  31  27  24  17  13  36  44  35  32  31  32  32  33  32  31  31
  43  43  43  41  42  42  41  40  40  39  40  40  30  22  20  22  33  49  71  66  45  44  44  53  88 119  60  60  57  33  32  48  64  83 105 135 154 146 149 148 133 125  79  60  68  68  59  66  84 111 107 129 134 116 108  87  83  75  71  65  49  44  39  40  42  51  67  88 106  69  42  55  72  49  56  78  42  32  26  24  14  23  35  32  30  32  31  30  31  31  31  31
  42  45  42  42  42  41  40  40  40  40  41  30  20  19  24  36  47  45  46  53  81  75  55  57 105 124  62  67  48  38  57  79  94 116 136 156 172 178 177 181 168 144 117  93  79  79  94 104 136 159 159 185 182 171 157 144 135 120 115  97  75  58  47  40  41  54  69  75  81  95 100  82  65  67  45  50  65  38  27  27  23  15  30  33  31  31  31  33  31  32  32  31
  42  43  42  43  43  41  42  41  42  41  45  34  20  25  36  46  40  40  76 117  80  38  28  45 133 125  77  67  47  73 119 138 145 155 165 171 176 185 187 186 182 166 141 112 109 132 145 150 183 192 192 203 205 199 194 185 184 175 162 140 111  92  76  58  49  44  46  56  73  79  81 100  98  75  65  38  49  48  37  30  25  15  27  31  32  30  31  33  31  32  32  31
  43  43  42  42  42  41  41  40  38  47  54  28  22  33  42  33  40  77  84  53  29  21  32  66 138 121  89  64  68 131 165 173 179 180 183 191 192 195 198 200 197 186 158 140 168 182 181 189 198 207 208 208 208 208 204 202 199 197 191 176 153 140 122  94  72  54  44  40  45  65  79  68  87 103  84  53  32  45  38  29  24  22  35  37  31  32  32  32  32  32  32  31
  43  43  44  41  42  42  40  38  44  45  26  18  31  40  27  31  72  83  58  46  29  33  65 100 115 117 100  70 114 177 183 186 185 191 197 197 197 196 200 204 204 202 190 184 190 196 201 207 209 208 208 211 210 209 206 203 199 196 194 189 177 160 148 130 103  77  63  58  56  56  61  81  74  80 105  69  32  36  41  29  26  31  45  53  34  32  32  32  32  32  32  31
  43  42  43  41  42  43  40  39  44  33  19  25  36  29  23  62  85  65  61  40  32  75 117 113  98 130  99  86 160 187 185 186 190 189 195 199 198 202 204 205 208 210 207 208 206 203 202 206 211 212 213 213 212 207 207 206 204 201 198 195 192 187 172 153 130 109  94  84  72  80  66  72  97  71  83  96  54  37  40  33  23  24  32  74  50  31  31  32  32  32  32  31
  43  43  43  41  41  41  39  40  35  23  25  32  30  23  54  69  54  60  61  36  71 127 147  95  81 124  90 136 188 186 187 190 193 190 198 202 203 206 207 211 211 209 211 213 209 210 212 212 214 215 217 215 212 210 209 208 206 205 203 201 198 197 193 184 167 138 114  99 102  85 100  71  82  88  76  87  77  46  34  36  20  22  23  83  86  38  31  32  33  32  32  31
  42  42  42  41  40  40  41  40  25  26  31  30  24  52  63  47  58  75  45  64 119 152 147  72  77 115 105 173 189 189 192 195 199 197 205 206 210 210 212 215 215 214 215 214 211 212 214 217 217 215 216 216 213 213 211 208 207 209 209 208 203 199 199 192 183 168 144 110  95 105  85  94  69  90  91  91  84  47  35  33  23  23  25  58  92  69  29  32  32  32  32  31
  42  41  41  41  40  40  41  34  28  32  27  21  40  48  40  42  75  64  51 100 137 156 136  51  77 102 141 195 190 191 196 203 203 203 209 212 211 212 216 218 219 218 221 219 217 218 218 218 220 217 218 217 214 215 210 207 210 212 208 211 206 202 199 195 186 180 171 150 104 103  97 101  87  86  89  87  92  68  41  31  26  18  23  52  72  80  42  29  31  32  31  31
  42  40  41  41  40  39  41  32  28  28  23  29  40  36  38  50  66  51  79 122 140 161 119  43  79 112 176 200 198 199 201 201 205 207 212 212 212 213 219 220 220 221 222 220 220 222 219 220 222 218 218 220 217 212 208 209 211 212 209 210 211 204 198 197 195 187 180 171 135 109  94  90  98  85  88  88  86  73  45  36  24  17  14  50  67  72  49  35  33  31  33  31
  42  41  40  40  40  38  42  30  24  26  24  39  34  36  46  51  54  63 113 141 140 160 102  53  93 150 196 199 200 204 204 205 206 208 211 211 212 217 222 220 222 223 222 224 222 223 222 223 221 218 219 220 216 211 206 206 208 214 214 213 211 206 204 202 198 189 185 174 157 132  99  79  98  80  73  91  91  82  51  38  26  16  13  36  69  63  67  37  33  32  32  31
  43  43  41  40  40  41  44  42  22  25  32  34  31  35  47  57  71  97 136 147 144 153  67  67 116 175 199 198 198 201 204 204 206 210 212 213 214 218 222 221 223 224 223 225 227 225 224 224 224 223 223 219 215 214 208 206 211 215 214 211 210 210 207 202 198 193 187 182 167 145 132  81  97  96  55  82  83  96  67  39  35  16  12  25  89  70  61  48  31  35  32  32
  42  42  41  41  42  40  47  35  24  29  36  29  31  32  50  68  84 122 141 141 155 141  46  88 141 192 201 197 201 203 203 202 207 213 215 211 212 215 220 220 221 224 224 224 224 226 224 225 223 223 220 220 217 214 209 207 213 210 211 211 209 208 206 205 200 198 192 186 169 152 140 101  87 106  65  60  78  80  79  41  31  20  11  19  76  97  54  40  31  31  34  32
  42  41  41  40  40  41  38  29  26  31  31  25  31  35  47  75 102 130 138 145 163 106  42 104 161 202 200 196 199 201 206 205 209 213 211 211 213 216 217 219 224 224 222 221 223 224 226 227 224 224 220 222 217 212 210 209 211 212 212 211 208 207 207 205 201 204 195 186 172 158 146 118  88  95  82  50  64  65  73  42  27  21  16   9  75 105  56  28  23  20  22  22
  41  40  39  39  38  40  34  24  23  31  25  25  27  39  51  76 110 130 141 159 155  46  61 121 180 199 197 197 197 201 206 205 207 212 214 213 214 216 216 222 224 224 226 226 225 223 224 224 226 225 224 223 218 217 212 208 208 212 210 207 207 206 205 204 202 202 198 190 176 160 152 128  99  82  94  66  55  59  67  39  31  18  14   9  65 101  68  24  12  10   9   8
  39  39  39  40  39  38  28  20  26  30  23  20  30  50  72  89 108 126 152 169 103  19  84 142 193 194 197 197 196 201 205 204 206 208 212 213 215 216 220 219 223 226 230 230 228 226 227 227 228 227 227 224 219 214 213 211 209 210 212 213 208 208 204 203 201 198 196 195 180 162 155 134 114  87  83  74  56  52  63  35  32  18  22  18  43  88  68  20  14  18   7   5
  37  38  39  40  39  39  23  19  28  26  20  21  34  48  64  85 106 132 156 151  40  33 121 165 194 196 193 195 199 202 207 206 208 211 213 212 214 217 218 221 222 226 228 229 228 227 225 229 227 227 225 222 216 212 211 210 211 210 212 210 210 206 202 201 198 195 196 196 185 168 155 134 117  89  89  77  57  45  56  38  32  16  25  26  35  67  58  26  24  12   5   8
  38  37  38  38  38  41  21  22  25  20  17  24  33  50  62  79 112 131 159  98  18  63 153 184 188 196 194 195 204 203 206 206 206 211 211 212 214 215 216 224 226 228 226 227 226 225 223 224 225 224 221 220 213 213 209 212 211 213 211 211 211 206 203 200 196 199 198 196 186 170 157 135 127  94  94  75  60  39  48  33  28  16  16  30  41  60  49  27  13   9   7   7
  39  38  38  39  41  40  19  21  20  18  14  23  34  57  64  79  99 132 137  55  28 101 176 193 184 193 194 196 200 200 204 206 209 212 211 215 218 218 218 222 224 227 229 228 229 228 227 225 225 225 222 218 215 214 213 215 213 214 211 208 207 206 202 199 196 197 195 193 185 173 163 143 135 109  92  64  50  40  39  30  21  16  19  47  48  50  37  15  15   7   8   7
  38  38  38  38  37  38  25  17  17  16  18  22  50  54  63  71  97 135  90  26  48 138 192 192 175 184 194 195 197 199 204 203 208 212 211 213 216 220 223 224 225 227 228 229 227 225 227 228 227 227 226 220 219 217 213 213 211 214 209 206 206 206 201 200 199 196 192 190 185 179 168 149 138 118  98  60  45  43  41  32  24  17  14  54  63  36  27  15  11  10   7   7
  40  39  37  37  36  38  27  16  17  13  19  35  56  44  54  66 103 120  39  37  97 177 198 192 183 177 187 194 199 201 206 205 204 212 214 212 217 218 220 227 225 227 225 224 227 225 225 227 226 227 229 224 220 216 211 213 210 210 209 205 199 203 202 200 195 194 195 191 188 180 164 148 132 117 103  68  44  39  38  37  22  16  15  67  96  39  19  13  12   8   7   7
  38  39  37  36  36  37  29  16  15  13  21  45  45  41  48  66 116 113  74 102 156 189 194 193 190 183 180 194 198 199 205 205 208 211 212 215 220 222 222 224 225 225 223 221 222 224 225 227 226 225 227 228 224 217 217 215 211 211 208 204 199 198 200 195 194 193 194 191 188 182 160 153 132 117 107  81  46  40  35  35  22  15  25  74 116  51  16   9   9   7   7   7
  37  37  37  36  35  37  30  16  17  17  33  56  42  43  49  78 117 135 142 151 173 185 193 190 193 189 190 197 205 204 203 205 208 209 213 214 220 223 224 223 225 223 219 216 216 222 224 224 224 224 226 226 223 219 216 215 210 209 207 203 203 203 198 195 196 193 193 193 193 189 159 160 137 118 112  85  46  36  35  30  24  25  30  85 127  59  10   8   8   7   7   7
  37  37  37  36  36  36  35  22  23  23  42  48  39  41  59  91 120 139 151 153 163 179 187 188 191 195 195 201 203 204 205 207 208 208 210 213 216 221 225 225 229 228 220 214 218 221 223 225 224 227 225 223 222 218 217 214 209 207 205 202 203 205 202 199 197 196 195 197 193 189 163 157 141 127 114  83  54  41  36  31  29  48  48  90 114  61   6   7   7   7   7   7
  36  36  36  36  36  36  36  33  24  16  33  39  43  43  68 106 122 140 149 150 155 176 183 187 189 192 197 200 201 206 207 204 207 208 212 215 216 219 222 226 228 226 220 219 221 228 226 223 225 228 229 226 220 217 212 211 210 208 205 203 203 203 201 203 203 199 196 197 194 190 166 156 135 133 110  79  51  44  30  24  29  56  50  78 105  60   9   6   7   7   7   7
  36  34  35  35  36  36  36  37  28  19  38  48  45  44  84 116 126 138 151 149 158 173 180 189 195 193 199 203 201 205 205 202 204 205 209 214 217 220 221 223 227 224 217 218 218 222 218 223 223 226 229 227 219 212 210 212 209 202 202 202 205 206 206 206 201 199 198 196 193 188 171 150 132 130  96  75  46  35  29  23  29  63  43  70  97  50  13   7   7   7   7   7
  36  36  35  36  36  36  36  36  31  25  40  47  43  45  82 115 127 138 139 148 162 177 187 196 196 198 200 201 203 202 202 206 204 204 206 209 216 218 221 222 225 221 217 213 209 208 208 216 219 223 226 221 221 218 215 209 205 200 200 200 203 205 204 205 202 200 197 199 193 183 172 145 128 126  88  69  40  32  35  27  42  72  50  77  82  37  13   5   7   7   7   7
  36  36  35  36  36  36  36  35  33  34  47  49  41  44  81 114 127 139 138 150 165 182 191 196 190 189 193 194 200 202 203 202 200 206 208 209 213 212 215 214 218 220 215 207 202 205 202 208 214 215 216 214 215 217 211 206 203 201 202 203 202 202 202 202 199 194 194 194 191 186 168 146 123 120  93  57  34  42  42  40  51  54  65  82  59  25  10   6   6   7   7   7
  35  35  36  36  36  35  35  37  32  37  53  43  40  41  82 117 124 133 135 151 174 182 175 173 182 192 191 187 184 186 187 186 182 184 195 208 210 210 210 210 213 212 209 204 202 205 201 201 208 208 208 203 203 209 213 209 206 201 197 191 198 194 195 196 191 188 188 176 176 174 160 146 126 113  99  58  43  49  57  50  40  40  85  79  53  24   9   6   5   7   7   7
  35  35  35  36  35  34  34  38  33  30  67  47  41  47  77 113 130 130 132 151 168 162 151 144 154 147 156 150 129 133 130 136 135 142 150 165 178 185 191 200 207 209 211 208 204 203 203 202 203 198 198 192 182 189 192 176 166 161 148 142 158 163 172 175 157 162 165 150 150 148 138 143 122 114  97  75  50  49  67  45  32  43  74  78  66  32   9   7   7   8   7   7
  35  35  35  35  35  35  36  37  28  25  79  69  46  52  78 119 130 130 132 133 121 127 131 144 118 106 102  73  80  78  66  82  87  91 110 118 123 141 159 173 189 201 208 207 207 208 205 200 202 193 183 172 165 145 130 126 113 112 111  85  95  93 110 113 111 128 142 133 123 123 122 129 119 102 103  91  78  65  73  44  42  43  51  98  79  38  11   5   6   7   7   7
  36  35  35  35  35  33  35  35  25  25  60  79  49  48  83 120 129 133 103  93 113 112  99 111 114 133 148 142 133 122 115 109 105  91  90  90 106 127 147 164 182 192 204 205 207 204 208 202 200 197 181 160 138 131 121 100  95  93  85  87  90 106 109  99 107 119 108  96  97  93 102  90 100 105  94  95  92  88  72  47  49  45  52  83  74  54  17   4   7   7   7   7
  36  35  35  35  34  33  35  35  28  31  45  70  70  59  81 123 124 123  95  91 101 105 122 142 162 172 190 203 205 203 198 183 169 148 135 130 125 129 148 169 184 194 208 215 211 204 208 204 200 191 176 158 141 134 125 119 111 116 140 161 174 187 188 182 175 165 140 118 105  87  80  77  82 101 101 100 102  93  65  46  44  33  58  58  55  52  19  11   7   6   6   6
  35  35  36  35  35  34  38  39  34  31  37  56  79  71  84 127 127 111 109 107 111 134 157 169 174 172 163 140 111  87  85  90 119 139 134 132 143 143 147 166 182 195 208 217 214 214 208 207 196 184 176 158 144 141 132 125 124 128 106  95  90  95 118 138 151 167 168 155 134 118 118 116 106  94  97  97  98  82  60  49  44  37  59  54  39  49  13   8   7   5   6   7
  36  36  35  34  35  34  39  38  45  41  40  56  75  68  84 129 133 123 134 144 153 149 159 170 146 120  92  63  45  32  32  35  49  93 126 136 146 148 145 153 177 195 210 217 219 215 204 203 194 180 162 142 142 136 137 131 113  80  46  37  29  28  49  61  69  99 135 156 151 137 138 135 130 108 102  98  88  77  58  52  36  37  57  47  44  57  11   5   7   6   6   7
  35  35  37  36  34  32  37  49  82  75  48  64  82  62  87 126 129 130 142 159 170 162 164 153 103  61  82 126  78  39  35  35  56 120 165 132 143 164 147 146 169 195 211 219 223 214 207 201 189 166 145 140 154 167 138 117 176 133  68  33  33  28  73 120  80  49  81 142 157 146 153 158 145 123  94  93  85  72  65  47  31  38  48  44  51  69  13   4   6   6   5   6
  36  36  37  35  35  34  35  58  92  93  58  67  72  60  94 131 132 143 154 161 171 172 167 128  87  91 138 174 104  65  24  31  90 164 211 155 104 152 167 150 166 199 213 220 223 217 208 198 181 160 153 161 177 135 107 144 194 162  89  37  20  53  92 161 130  79  61 113 158 163 163 158 154 137  95  95  85  64  63  45  32  45  53  59  48  45  20   4   6   6   5   6
  35  35  35  35  33  34  30  59  84  83  79  79  68  63  96 135 141 149 161 171 169 163 156 145 135 137 146 162 151 129 129 139 137 174 168 159 157 156 175 164 169 197 212 221 221 214 205 191 168 165 169 186 175 147 156 153 153 165 154 145 132 124 135 148 141 134 114 130 160 161 162 163 153 145 109  97  80  64  63  39  28  46  58  74  95  39   8   6   7   6   6   6
  35  34  33  33  32  32  31  29  88 100  84  92  76  66 107 143 150 158 168 180 179 173 174 178 178 167 165 171 184 185 184 202 189 187 185 192 202 193 176 176 172 195 208 217 219 208 200 184 166 175 179 188 188 193 197 188 182 186 200 187 187 172 153 158 160 155 153 155 149 154 162 166 159 147 118 101  81  61  56  37  30  43  74  95 135  69   0   5   7   6   5   6
  31  28  27  29  32  31  31  26  35 135 103  95  72  71 118 142 160 172 174 183 184 188 185 187 190 186 182 188 193 192 189 202 210 203 196 193 197 189 180 181 177 195 209 216 215 211 199 185 167 180 187 187 187 189 191 185 182 187 195 193 191 185 179 174 161 163 177 181 169 168 174 179 166 151 123 101  84  57  43  28  40  59  74  71  80  42   2   7   7   7   4   5
  24  21  25  30  34  34  34  31  16 122 172  96  75  85 126 148 166 178 180 191 192 192 185 188 193 192 188 188 192 194 195 196 189 192 196 193 190 185 185 181 180 193 210 215 213 207 195 178 166 181 191 192 189 186 193 191 187 176 173 170 168 166 164 161 167 182 188 177 172 179 178 177 172 155 129 106  86  49  32  23  55  87  52  67 103  13   3   6   6   6   5   5
  19  21  27  33  36  36  36  33  13  79 202 138  81  85 129 150 165 175 184 191 196 193 191 191 193 193 193 188 192 190 190 195 197 198 199 199 193 192 192 184 174 189 206 217 212 201 188 173 167 182 194 198 197 192 199 203 206 206 198 190 184 181 184 189 190 188 187 184 177 182 182 175 168 154 135 106  83  44  26  34  62  54  53 123  43   1   6   6   6   6   6   5
  18  22  27  33  36  35  33  30  23  37 190 175  90  87 136 152 162 179 188 195 198 195 193 193 195 198 203 204 207 205 206 204 205 206 206 203 195 188 188 184 177 191 203 215 209 202 188 171 166 183 193 197 200 199 202 205 205 208 208 206 205 204 204 202 196 194 192 193 189 181 182 179 170 152 137 106  90  51  33  47  46  58 143  88   8  10   7   5   6   6   6   5
  19  23  26  30  32  32  31  28  25  15 144 180 118  84 130 154 163 181 188 196 196 202 200 198 200 202 203 204 208 207 207 210 208 206 205 203 193 188 185 181 177 186 199 211 212 200 188 173 165 176 192 191 195 196 203 208 209 209 203 210 209 208 209 206 200 197 191 188 191 184 180 181 176 155 138 109  92  58  37  43  67 152 138  21  18  14   9   6   6   6   6   7
  20  22  25  29  32  30  30  28  24   9 100 180 127  75 123 152 168 178 190 194 196 202 201 199 201 205 207 207 208 209 209 206 208 209 204 197 191 188 183 177 182 188 198 211 212 203 188 180 173 173 181 187 193 194 199 207 211 213 210 207 207 207 205 206 202 197 194 189 189 189 185 178 173 158 140 111  91  51  43  69 137 188  44  16  21  16  11   8   5   5   7  10
  20  21  23  26  27  29  27  25  22   9  68 178 157  93 120 147 167 180 195 196 196 198 198 200 203 208 208 206 209 210 207 204 208 203 200 194 188 182 179 178 186 195 205 214 213 200 190 183 175 171 177 185 189 189 196 199 205 211 214 211 206 205 198 202 200 201 196 191 189 185 184 178 164 155 138 111  84  44  46  99 177  99  12  24  18  14  10   8   7   7  11  13
  21  20  22  25  24  26  27  23  19  11  39 166 188 106 115 141 157 174 189 191 192 196 199 202 199 205 207 206 207 208 210 209 204 201 200 194 186 180 175 178 186 194 206 216 216 202 192 187 181 170 167 180 188 193 198 202 205 209 212 211 211 210 204 199 196 198 196 188 183 178 179 177 165 152 141 113  80  43  48 108 115  19  21  22  17  13   9   7   8  11  13  13
  20  22  22  24  24  23  23  22  19  13  15 158 207 118 106 127 152 178 183 187 195 196 196 198 199 203 206 208 206 207 210 207 205 202 199 195 187 179 171 177 189 199 206 215 217 203 194 194 187 174 160 167 189 194 200 203 205 208 213 212 212 213 211 203 199 195 195 188 182 179 174 174 165 151 136 100  82  50  52  99  46   7  23  22  14  12   9   8  12  15  15  13
  22  24  23  24  22  20  19  20  16  10  14 159 203 139 102 115 148 174 180 188 196 195 196 195 195 204 204 206 209 209 210 209 208 206 202 194 182 167 165 179 195 203 209 217 219 205 200 197 188 178 161 153 181 198 200 208 207 210 211 212 210 211 214 205 196 193 188 185 185 177 172 170 163 145 129  87  65  58  68 113  38  10  20  20  13  11  10  12  13  14  13  12
  21  22  22  21  20  18  18  18  14  12   7 128 192 151 112 109 144 169 178 189 191 191 193 198 196 203 205 208 210 209 212 213 211 209 210 196 171 167 168 188 199 204 216 218 217 206 199 197 194 185 175 161 164 196 207 210 208 209 215 214 210 211 211 208 200 195 189 186 184 176 170 161 160 140 116  81  58  67 111 152  39  10  20  19  12   8  11  13  13  13  13  13
  25  26  25  22  20  18  17  18  15  12   5  73 186 175 122 101 142 166 177 184 186 188 195 198 199 203 206 208 209 213 218 216 216 216 213 189 172 179 175 193 202 204 212 220 217 208 203 200 194 187 177 170 164 183 211 215 216 214 219 215 212 211 208 206 203 195 190 187 178 174 164 157 155 130  98  68  62  71 137 176  33  11  20  20  13   9  11  11  13  13  13  13
  32  32  33  30  25  23  22  21  18  14   7  51 175 183 123  94 132 164 171 181 185 192 194 196 201 204 207 209 210 214 218 221 223 222 212 182 180 179 173 187 197 205 209 220 222 212 204 196 189 179 167 168 169 169 202 218 220 219 221 218 215 212 206 203 201 198 192 188 175 166 159 151 147 122  87  67  61  89 159 145  17  17  21  20  16  13  12  11  13  13  13  12
  35  37  40  38  36  33  31  28  23  18   8  32 142 169 122  95 122 157 163 177 181 188 194 197 198 203 207 208 214 218 220 223 221 221 206 177 182 185 167 167 177 194 206 225 230 215 200 184 168 160 162 169 165 162 199 210 216 223 226 221 215 215 207 203 200 194 189 186 179 165 155 150 138 119  81  68  59 115 175  64   8  20  21  20  19  15  13  12  11  12  12  12
  36  38  39  40  40  40  35  32  26  18  11  18 145 190 141  93 113 151 161 169 179 186 194 199 199 199 201 205 209 216 217 218 217 215 203 174 173 186 169 152 147 165 189 202 199 198 185 156 138 147 164 168 154 158 199 207 208 212 213 217 216 216 207 201 199 194 191 184 173 161 152 141 130 114  75  71  63 129 133  20  15  21  18  18  16  13  11  12  10  10  11  10
  36  38  41  43  43  39  35  31  24  16  10   8 132 189 153  98 110 145 153 165 173 182 189 193 199 197 201 205 208 213 215 215 212 204 197 180 155 167 152 105  78 110 158 175 172 164 152 104  66  86 136 160 140 160 201 202 205 206 203 210 214 211 205 200 194 192 186 180 171 157 145 130 125 100  73  74  64 148 129  13  14  15  15  15  12  10  10  10  11   9  11   9
  39  40  39  35  31  28  25  23  17  12   9   3  69 175 162 104 108 137 145 154 165 180 183 189 193 199 201 204 208 207 207 210 208 201 199 189 145 144 138 132 104  78 106 141 142 135  96  50  90 130 135 136 118 180 199 198 204 206 204 207 209 205 205 201 193 188 180 176 168 146 136 128 121  88  77  72  73 154 133  15   7  10  11  10   9   8  10  12  13  13  12  11
  37  32  26  19  13  12  12  11  10   8   7   8   4 110 175 109 107 133 142 146 163 177 182 187 193 199 200 203 202 200 202 206 204 203 201 193 156 120 133 164 165 149 121 117 120 104 104 136 150 154 133 113 141 189 192 198 199 201 205 205 201 199 198 199 199 190 181 175 162 144 133 122 112  89  84  71  84 160  96   4   8   7  10   9   9   8   8  11  14  20  20  20
  23  16   9   5   5   6   6   6   8   7   7   9   7  24  90 109 112 131 135 135 155 167 181 188 192 194 195 194 197 197 201 203 200 201 198 183 154 136 133 129 137 159 162 142 139 147 166 146 123 112 124 135 147 167 181 196 198 202 204 205 203 202 200 197 195 188 181 171 155 139 127 121 110  94  95  73 100 151  38   4   9  10  10  10   9   8   9  10  12  18  25  27
   9   6   6   6   6   6   7   7   7   7   7   8  10  11  20  96 117 128 137 126 145 161 173 179 185 191 194 195 195 203 207 201 198 198 184 162 146 122 112  89 112 127 158 176 177 180 155 127 121 115 126 136 141 151 166 188 198 201 202 205 203 200 199 195 188 187 176 165 151 127 119 119 109 102 102  69  55  44   5   9  11  10  10  10  10   9   8  10  10  11  20  29
   6   7   7   7   7   6   7   7   7   7   8   9  10  11  20  89 117 134 143 128 133 153 166 180 186 191 197 198 201 198 195 199 200 188 161 138 129 113  88 102 107 117 135 160 176 168 129 106 134 119  94 113 127 141 149 166 186 200 199 202 201 197 196 194 190 189 173 164 147 123 120 117 111 106 101  58   3   2  10  10  10  10  10  10  10  10  10  10   9   7  12  26
   7   8   8   7   5   7   6   7   7   7   8  10   9  10  11  80 119 133 143 134 128 148 163 178 190 191 196 195 181 175 187 185 176 163 150 124 114 122  97 115 116 109  99 148 181 166 123  96 117 116  89 113 135 117 122 150 160 176 179 186 195 193 196 194 190 184 173 162 143 125 120 121 118 108  99  52   9  10  11  10  10  10  10  11  11   9  10  10   7   7   8  18
   7   7   7   7   7   8   7   7   7   8   7   8   8   7   5  70 120 131 149 144 130 142 160 177 189 194 191 173 155 155 155 143 151 132 125 106 125 119  92 129 127 114 116 154 176 159 127 104  88 121  98 109 105 100  96 130 135 141 162 159 171 183 190 193 189 184 174 157 137 126 126 123 122 112 103  42   6  11  11  10  10  11  11  13  11  10  10   9   8   6   7  14
   7   7   7   7   7   7   7   7   7   7   7   7   7   8   3  60 121 132 151 154 138 131 158 176 186 188 172 159 145 137 130 141 125 104 107 107 118 108 115 142 120 124 144 154 166 157 122 102  98 110 125 120 111 109  91 108 123 124 134 148 146 158 173 190 191 187 169 148 129 129 132 132 120 111  99  32   7  11  11  10  10  10  11  11  12  10   9  10   6   7   8  13
   7   7   7   7   7   6   7   7   7   7   7   7   7   8   2  47 123 135 149 155 146 131 156 177 191 179 144 129 113 118 127 136 121 103 117 118 102 125 142 157 134 125 134 153 168 167 132 115 105 115 139 128 111 103  94 106 104 111 116 117 145 153 146 173 189 185 165 139 127 134 138 133 119 112  91  24   6  10  10  11  10  10  11  11  13  10   9   9   6   7   8  10
   7   8   7   8   7   7   7   7   6   7   7   7   7   9   1  32 117 136 147 152 153 130 147 170 177 155 122 123 116 114 116 127 119 121 131 133 132 133 167 167 161 144 143 164 174 186 160 143 154 165 178 141 110 101 101 123 105 107 127 117 148 153 138 148 178 183 156 128 126 143 137 130 121 113  83  16   9  10  10  10  10  10  11  11  12  10   9   9   7   7   7   8
   9  10  10   8   6   7   7   7   7   7   7   7   7   7   4  19 106 135 148 153 157 136 135 167 175 151 124 130 113 109 120 120 123 132 139 153 162 155 185 181 181 187 193 194 183 201 194 184 188 191 190 161 143 135 139 143 126 112 126 123 146 147 127 132 165 177 147 116 136 147 136 130 119 114  72  10  11  11  11  10  10  10  10  10  11  10   8   9   7   6   7   8
   9  10  10   9   9   8   8   7   7   7   7   7   6   7   6   9  88 136 148 155 160 147 133 171 183 146  95 124 123 133 133 112 115 142 150 160 161 158 162 155 156 161 176 185 191 187 173 162 152 146 150 158 161 154 151 140 134 121 121 127 136 137 123 117 161 160 141 114 141 146 132 125 115 112  58   5   9  11  11  10  10  10  10  10  10   9   8   8   7   6   7   7
  10   9   9   9   9   8   7   7   7   7   7   7   7   7   7   1  60 133 148 149 156 151 133 162 184 130 111 103 138 151 167 157 124 115 114 106 104 103  98  94 101 108 110 118 132 122 113 106 100  96  88  91 103 120 125 125 116 129 122 123 138 113 105 123 169 159 117 117 147 145 135 126 117 109  37   5  10  10  11  11  10  11  11  11  10   9  10   9   9   9   8   7
   8   8   8   9   8   7   6   6   7   7   7   7   7   7   7   1  34 115 148 153 152 151 131 150 172 160 136 116 157 160 184 184 167 141 132 124 125 132 126 121 114 107  99  90  88  85  85  92 107 106 111 105  94  92  97 110 130 152 152 123 149 135 107 124 164 152 105 127 149 141 133 130 118  90  16   8  10  11  13  11  11  12  11  11  11  11  11  11  11  11   8   7
   9   8   8   9   9   8   7   5   7   7   7   7   7   7   6   5  14  90 135 152 153 152 140 140 162 170 132 140 158 181 183 180 178 164 162 169 166 166 168 172 179 171 158 151 138 136 147 158 164 163 152 158 147 144 147 152 166 184 194 165 141 152 121 111 148 132 106 143 148 136 132 125 120  69   7  10  11  11  10  10   9  11  11  11  10  11  11  11  10   8   9   8
   8   8   7   8   8   8   7   6   7   7   7   7   7   7   8   7   2  58 125 147 155 149 140 129 149 161 151 124 153 170 165 184 180 175 168 173 174 172 172 177 184 187 185 180 173 178 188 194 187 181 172 168 167 162 156 156 168 190 196 174 161 141 121 130 129 104 102 150 148 139 133 127 112  39   4  10  11  11  10  11   9  10  10  10  10  11  12  10  11   9   9   8
   7   9   7   7   7   9   7   6   6   7   7   7   7   7   7   7   2  26 109 140 156 150 139 132 144 164 149 124 145 169 174 183 185 184 176 174 177 171 170 175 179 184 188 189 188 189 191 191 186 177 166 162 160 160 166 164 171 189 193 164 142 149 128 136 128  92 113 153 144 136 134 127  83  12   8  10  11  11  11  11  10  10  10   9  10  10  11   9  11   9   9   7
   7   8   8   8   7   9   7   7   6   7   7   7   7   7   7   7   5   2  71 130 146 153 136 130 133 157 153 148 141 163 174 180 187 186 179 177 177 178 176 172 170 172 170 174 178 176 172 168 168 166 165 167 164 170 171 176 184 186 180 174 138 135 158 144 100  84 127 150 140 139 135 115  42   6  11  10  10  11  11  10  10  10   9   9  10  10  10  10   9   8   8   7
   7   7   7   8   8   9   7   7   6   7   7   7   7   7   7   7   6   1  29 107 130 150 139 127 130 145 150 134 155 159 163 174 183 185 180 177 178 170 169 171 174 167 156 149 147 151 162 171 171 170 172 168 169 175 181 185 182 180 170 164 132 122 152 137  96  95 136 146 138 138 129  82  14  10  12  11  10  11  10   9  10   9   8   9  10  10  10  10   9   9   9   8
   8   7   7   7   7   8   7   6   7   7   7   7   7   7   6   6   6   6   3  60 119 138 146 140 127 136 133 123 142 136 151 165 172 177 180 179 179 174 170 168 159 144 151 144 139 143 159 153 155 166 167 169 178 180 178 175 178 177 179 164 147 138 142 114  91 115 146 144 132 131 116  41   6  10  10  10  11  10  10   8   9   8   7   9  10  10  10  10  11  10   9   8
   7   7   7   7   6   6   7   7   8   7   7   6   6   6   6   6   6   6   4  13  88 129 136 141 132 131 132 126 118 125 126 154 175 170 180 184 182 177 179 178 159 133 138 144 148 153 156 135 144 164 175 181 181 178 178 175 174 175 167 150 135 132 119 100 103 130 144 133 128 121  84  27   8   9   8   9  10   9   9   8   8   7   7   9  10  10  11  10  10   9   8   8
   6   6   6   6   6   7   7   7   7   7   7   6   6   7   6   6   7   7   6   1  31 101 127 133 137 135 149 115 117 117 114 153 175 172 178 187 186 189 187 182 161 148 137 138 139 136 137 139 151 176 189 185 185 176 179 174 165 162 144 129 122  96 101  94  96 127 131 124 119  91  50  30   8  10  11   9  10   9  10  10   8   8   8   9  10  10  10  10  10   8   8   9
   7   6   6   6   6   6   7   8   7   7   7   6   6   6   6   6   5   7   6   6   1  50 107 119 126 132 122  94  95 105 121 148 167 169 177 184 188 189 187 180 168 164 140 129 136 138 129 153 173 182 190 190 188 181 167 165 154 139 119 115 116  79  80  83 100 123 119 116  94  53  41  34   6  11  11  10  10   9  10   9  10   8   8   9   9  10  10  10  10   8   8   9
   7   6   6   6   6   6   6   7   7   7   6   6   6   7   6   6   6   6   5   5   5   7  66 105 113 115  99  82  96 123 101 136 155 170 177 180 182 188 183 183 161 170 162 141 172 162 144 173 186 183 190 192 182 171 156 166 157 152 117  96 105  86  64  63 110 117  96  90  61  39  55  64  23   6  10  11   8   9   9   9   9   8   9  10   9  10  10  10  10   8   6   6
   7   7   7   7   7   7   7   7   7   6   5   6   7   7   6   5   6   5   4   6   6   2  39  74 103  98  91  89 109  96  92 123 152 162 169 182 167 170 180 185 179 172 185 178 180 184 180 173 179 184 195 187 180 174 154 170 148 140 131  95  66  77  66  85 110  91  79  60  38  77 102  98 105  14  11   7   9   9   9   9   9   9   9   9   9   9   9  10   9   8   6   7
   7   7   7   7   7   7   7   7   7   6   6   6   6   6   6   6   7   5   5   6   5   2  42  50  70  89  83  95  94  89  96 103 130 159 172 184 161 170 182 189 183 196 205 194 188 182 190 188 187 183 187 191 191 168 155 161 139 124 104  94  67  51  68  83  92  74  64  41  80 139 114 121 175  48  20  15   8   9   9   9   9   9   9   9  10   9   9   9   8   8   6   7
   6   6   6   6   6   6   7   7   7   6   6   6   6   6   6   6   6   5   5   5   6   0  56  83  51  72  87  84  91 101  80  87 124 151 160 168 169 179 180 189 186 194 203 196 199 196 184 177 184 191 188 189 197 176 155 145 126 112 113  83  59  48  54  69  81  58  47  84 150 156 117 131 195  95  25  32  17   9   9   9   9   7   8  10   9   9   9   7   7   8   6   7
   6   6   6   6   6   7   7   7   7   6   6   6   6   6   6   6   6   6   6   6   7   0  52 125  96  56  67  67  70  80  79  91 128 142 149 149 154 168 161 174 176 190 189 196 198 190 187 176 186 192 194 181 175 178 153 125 117  95  89  78  47  43  51  62  60  53  97 154 164 151 112 135 196 127  50  29  28  13   9   9   9   8   8   9   8   9   9   7   6   7   7   8
   6   6   6   6   6   6   6   7   7   7   7   6   6   6   6   6   6   6   6   6   6   0  42 134 143 103  58  51  55  58  73  98 109 137 145 141 162 157 154 174 173 178 176 185 181 179 171 176 198 185 173 159 146 136 134 118 108  99  76  53  50  53  64  59  61 113 155 164 159 153 111 141 197 135  78  30  31  25   9   9   8   8   7   7   7   8   9   7   6   7   7   7
   7   6   6   6   6   6   6   7   7   7   7   6   6   6   6   6   5   6   6   6   3  12 102 127 145 144 102  60  53  43  65 100  89 115 131 131 147 145 154 167 169 177 166 162 171 176 164 170 184 168 156 135 115 122 127 105  93  84  64  52  54  60  61  62 113 153 167 164 160 151 110 160 197 133 105  45  29  28  24   8   9   7   7   7   7   8   9   7   7   7   7   6
   7   7   6   6   6   6   6   7   7   7   8   7   7   6   6   6   6   6   6   3   4 144 186 116 144 146 134  92  58  48  51  60  74 100 111 116 127 129 126 144 155 154 157 157 159 155 155 160 147 141 157 128 105 119 101  81  84  73  44  55  60  60  72 119 161 162 166 166 162 147 117 187 187 132 120  54  30  29  31  17   8   7   7   7   8   9   7   7   7   7   7   7
   6   6   6   6   6   6   6   6   7   7   7   7   7   6   6   6   6   6   5   0 106 228 159 116 142 141 137 121  90  64  56  34  56  86  81  89 102 114 114 120 137 147 141 122 117 134 146 131 132 138 141 132 101  83  74  76  56  47  48  56  62  81 128 163 165 170 167 164 162 139 140 207 178 135 132  56  28  26  32  31  15   6   7   8   7   8   7   7   7   7   7   7
   6   6   6   6   6   6   6   6   7   7   7   7   6   6   6   6   6   6   0  42 210 192 124 116 144 145 144 140 130  90  63  53  57  54  61  65  67  85  90  93 103 129 135 108 109 117 118 102 123 122  94  97  69  63  59  64  47  52  60  62  77 126 164 168 170 170 172 171 157 134 173 209 171 138 137  59  28  25  26  27  29  16   5   7   7   7   7   7   7   6   6   5
   6   6   6   6   6   6   6   6   7   7   7   6   6   6   6   5   6   5   1 143 219 152 123 120 142 147 148 148 147 122  91  72  62  62  53  45  53  69  59  63  71  91 109  80  89  91  93  75  90  95  61  67  62  48  52  60  56  62  61  66 119 164 173 173 177 178 174 170 158 144 201 204 166 138 137  51  32  29  26  27  32  33  13   7   7   7   7   7   7   5   5   4
   6   6   6   6   6   6   6   6   6   7   7   6   6   6   6   6   6   0  48 213 187 110  96 133 142 149 147 146 151 145 131 102  73  66  59  47  46  50  50  54  51  55  57  58  57  61  74  57  62  71  50  51  50  50  59  60  62  58  70 107 161 176 176 182 182 180 173 171 157 165 213 195 161 144 133  42  33  31  29  30  27  30  31  19   7   6   6   6   7   4   3   4
   5   6   6   6   6   6   6   6   6   7   7   6   6   6   6   6   4   6 130 228 146  68  89 134 140 142 148 154 154 156 146 134 109  77  68  61  57  54  63  57  54  53  52  50  54  55  62  54  54  55  50  53  60  55  57  55  58  65 106 158 178 175 179 185 181 178 175 172 153 194 214 189 159 152 125  41  34  34  31  27  27  28  32  34  26  10   5   3   3   4   3   4
   6   6   6   5   4   5   6   7   8   7   7   7   6   6   6   5   6  39 177 220 118  63 101 135 148 149 152 158 157 158 155 146 134 112 102  77  64  62  66  58  53  56  54  50  52  55  56  55  49  51  52  53  56  49  53  75  93 121 153 175 181 179 182 182 172 171 175 164 164 213 206 185 159 158 127  41  35  31  27  26  27  30  31  33  37  34  32  29  23  15   6   4
   6   6   6   6   5   4   4   5   7   7   7   7   7   6   5   6  26  71 201 212 119  83 117 133 149 149 153 155 155 163 164 154 145 141 137 119  95  84  84  82  99  93  96  83  92  80  65  63  56  57  56  64  80  84  98 132 151 167 178 179 181 185 186 181 178 173 170 163 194 216 198 179 161 171 120  39  37  32  27  26  28  29  32  29  31  35  39  40  42  38  35  31
