P2
# Generated by OpenCV 4.2.0
92 112
255
  73  80  86  78  67  55  50  51  51  57  58  48  32  21  30  49  59  52  35  20  23  40  51  47  35  19  15  15  28  50  59  51  68 116 135 111  94 100 106  89  79  86 104 102 117 108  95  98  82  70  94  98  84  74  85  84  71  73  90  91  92  97  97  95  90  98 109 113 115 109 102  97  87  88  95 108 119 126 132 132 130 128 127 127 125 125 129 127 117 108 105 114
  72  76  81  74  64  54  47  47  53  58  56  46  29  18  34  53  59  46  31  20  25  38  46  41  29  18  14  22  50  48  46  75 112 124 121 116 111  92  70  61  90 119 129 125 119 109  96  88  87  80  74  78  72  63  79  81  73  79  90  92  93  95  96  94  94 107 114 112 116 114 109 101  89  87  97 110 122 131 135 133 129 126 127 129 129 131 131 130 119 104  98 102
  74  80  84  77  61  44  37  49  65  71  63  48  30  21  44  69  71  50  28  18  26  38  45  39  23  14  18  48  51  45  76 102 108 117 101  85  69  63  82 104 121 118 105 101  98  88  86  77  69  68  58  50  63  46  54  64  66  76  85  85 102  98  89  90  96 104 109 110 108 109 108 101  94  93 101 113 123 130 134 132 128 125 128 131 132 132 125 119 110  95  84  87
  88  95  94  85  69  43  33  51  72  86  81  56  32  32  59  76  78  58  28  17  28  41  44  40  30  21  45  49  53  78  91  98  99  90  81  84  84  99 109 117 122 123 113 117 110  95  89  72  57  59  49  39  49  43  36  41  57  68  87  69  79 104  84  74  86  92  91  92  96  94  89  90  91  94 101 110 117 123 128 128 125 123 125 129 132 127 118 111 104  90  73  71
 105 106  98  86  76  53  45  59  79  90  87  63  35  45  72  84  83  63  29  19  33  42  44  33  20  39  61  57  75  74  79  74  82  86  84  83  99 119 127 128 115 104  94  85  66  55  52  51  46  39  43  31  34  37  28  28  65  57  68  60  63  74  90  65  64  77  79  86  81  84  84  81  81  85  94 103 108 115 121 121 123 123 127 129 129 123 119 112 103  91  73  62
 126 124 108  84  67  52  51  64  86  97  88  62  37  52  82  93  86  63  25  20  38  48  48  38  31  66  67  68  58  63  73  71  73  67  78  99 122 133 117 106  93  81  72  65  51  45  29  25  31  30  23  28  24  33  18  28  75  60  51  48  59  55  72  73  62  68  79  80  80  86  84  79  74  76  88  96  99 111 116 121 124 124 128 130 131 126 121 117 111 100  81  62
 142 142 121  83  60  48  50  60  83  93  74  53  36  57  87  94  82  58  24  25  42  56  58  49  60  80  80  70  68  64  68  73  80  89  99 112 121 127 116 106  94  75  53  51  46  44  39  25  21  22  25  20  25  28  11  34  70  77  62  56  57  56  60  76  77  78  79  81  90  93  88  77  75  80  87  92  97 108 114 121 123 125 129 131 131 129 126 123 121 108  86  64
 147 146 124  83  59  47  48  56  71  73  57  41  35  64  89  94  81  59  27  32  45  58  60  68  78  92  71  61  53  48  66  78  79  67  79 110 151 129  93  86  81  81  86  82  74  69  61  48  35  19  20  15  23  23  29  34  51  83  50  29  25  38  42  60  85  90  95  93  87  93  90  80  79  86  90  95 103 105 112 118 116 120 123 128 129 129 126 124 121 107  87  68
 155 154 127  86  58  45  49  58  66  63  49  30  37  69  87  93  86  57  31  38  45  51  56  88  92  70  50  39  31  53  58  52  50  74 100 105  98  82  85  97 103 104  90  68  53  50  49  48  40  33  22  11  20  41  28  21  31  78  36  13  19  28  54  87 111 112 109  99  85  77  76  79  82  92  99 103 106 105 111 111 106 111 115 119 122 121 119 116 113 104  89  67
 168 163 134  97  66  53  55  64  68  65  45  32  49  78  89  93  82  51  33  38  45  53  84  85  59  47  30  40  59  38  28  35  51  50  53  69  88  98 112 109  82  65  55  52  48  54  52  42  31  24  21  26  30  29  14  24  27  72  19  16  41  89 120 118 122 131 136 135 114 101  77  62  64  80  98 101 103 105 109 105  97 100 103 110 114 113 111 107 103  95  83  68
 177 168 142 105  72  63  68  76  76  69  53  49  74  95  98  95  75  43  31  35  51  62  79  37  28  24  40  47  25  31  44  93  82  59  79 104 109 102  84  69  53  48  58  68  80  66  48  45  39  30  29  30  31  23  19  17  36  43  27  62  93 100  85  90 112 131 139 134 133 136 135 124  80  53  63  89  95 102 107 102  90  85  91 103 107 107 104 101  99  93  86  77
 177 169 136  94  66  64  71  80  79  69  57  64  91 105 102  92  70  42  36  45  55  59  49  18  26  39  37  37  50  50  76  94  94 103 108 102  87  73  68  64  70  92  96  78  60  53  56  58  46  32  37  30  35  33  21  16  34  52  81  87  64  77  95 107  99  86  85  95 114 128 147 156 132  91  54  54  89 107 109 105  93  83  91 101 102 105 107 104 101 100  97  93
 176 163 118  75  53  60  68  74  75  64  58  70  95 104 101  89  71  55  51  57  54  59  40  25  47  31  33  53  51  70 104  98  90 101  87  74  67  70  73  79  92  84  67  66  63  61  57  54  50  39  31  37  35  29  25  29  65  63  57  71  91 115 119 104  80  61  56  54  56  65  95 126 147 132 105  65  47  90 111 110 100  92  94  95  98 100 109 112 110 110 109 106
 176 154  96  52  39  48  58  67  64  57  56  68  90  99 102  94  77  66  64  66  58  73  75  53  37  23  35  53  72  95  99  86  87  73  64  70  84  89  96  87  70  79  92  96  88  78  64  56  57  49  33  23  38  33  32  39  40  36  75  89  66  64  62  62  72  74  76  84  90  67  40  55 105 137 115 100  66  41  88 103 105 103 101  99  96  97 104 113 114 112 111 107
 182 154 102  52  37  48  55  61  60  57  59  68  85  96 103 101  84  70  67  67  47  68  95  60  31  29  35  49  74  82  83  86  74  67  66  77  88  97  77  71  97  87  51  29  22  24  41  22  29  42  47  34  31  35  26  21  27  68  61  38  23  25  39  38  50  72  81  85  89  95  75  44  41  89 123 106 105  65  51  98 102 103 106  95  88  87  92 107 110 109 103  90
 189 164 116  61  46  58  62  62  64  62  66  76  90  99 107 101  65  54  50  56  46  52  59  53  37  35  48  74  77  72  97  94  69  60  66  79  98  82 103 109  47   9   5  10  12  27  41  45  18  28  25  37  35  31  27  21  31  40  39  70 104 107 110 110  98  92  87  82  85  80  89  87  61  53  81 104  88 102  65  60 102  93  95  83  76  71  72  92  94  91  86  71
 198 173 118  56  48  69  72  66  66  69  71  79  90 102  97  59  30  23  37  39  43  41  36  27  25  40  88  78  65 112 118  69  70  78 102 100 103 135 117  39  12  22  20  19  17  28  22  35  34  22  23  26  31  34  28  26  41  76  97 115 116 110 122 128 128 115 100  89  94  82  65  81  90  70  61  93  92  83 104  40  76  89  81  72  60  57  55  67  73  72  66  55
 197 169 104  42  49  75  84  83  75  73  72  80  88  91  73  30  20  32  37  39  31  36  38  26  39  96  83  75 129 127  74 104 123 128 113 105 120  91  40  25  26  14  15  18  29  38  22  18  45  24  23  24  27  31  25  37  58  58  49  44  48  58  80  90 106 111 115 120 107 110  91  63  75  82  59  74  91  76 100  87  34  84  77  60  49  42  43  46  55  60  51  44
 188 151  82  26  45  76  89  92  81  66  63  82  87  78  49  11  18  36  41  32  26  33  29  49 103 106  85 117 120  71 104 136 127 102 117  96  65  37  30  15  12  15  24  19  37  31  15  15  49  26  23  31  30  29  31  38  33  29  31  31  35  47  54  64  75  78  82 104 121 110 107 101  80  78  69  59  70  77  73 102  51  44  72  56  49  38  36  40  45  47  45  43
 177 130  61  17  41  75  91  93  83  63  56  72  83  70  27  19  34  41  31  28  34  34  45  77 107  96  84  92  71  81  89  97  87 103  77  44  34  22  17  16  12  24  21  25  33  24  17  20  45  22  29  41  36  40  38  39  41  36  34  32  34  41  45  61  80  90  87  78 100 133 109  94  89  67  81  68  64  64  63  70  73  27  60  63  55  46  42  45  48  47  43  45
 159 109  50  18  44  76  98  99  84  65  64  74  76  50  57  46  34  31  29  33  42  47  62  66  98  65  69  77  62  64  63  53  89  72  41  38  17  17  25  22  23  24  21  33  42  21  18  31  42  23  41  44  50  51  48  52  58  56  47  39  36  34  35  37  44  61  94 106  95 100 119  98  96  85  83  87  64  63  50  57  74  36  45  61  55  55  54  53  51  47  46  45
 133  94  43  20  59  92 113 112  92  68  66  78  65  36  51  46  31  25  33  37  47  55  51  55  45  43  50  41  49  48  34  56  69  39  29  33  33  46  68  73  56  38  37  41  38  23  27  52  40  30  50  61  75  76  85 105 113 103  82  62  52  44  40  41  39  50  70  83 109 105  92 107  88  95  76  78  83  65  54  46  66  47  33  64  61  58  60  57  53  47  45  47
 124  90  41  27  66  97 113 108  90  64  60  72  58  29  35  60  43  33  31  41  44  36  34  34  33  38  36  39  36  28  40  51  46  43  34  36  68 112 133 120  84  55  42  37  50  56  58  66  49  53  80 107 118 131 142 159 166 154 125  98  87  65  52  41  36  36  48  68  80 104 104  92  88  89  92  62  89  76  56  46  53  62  31  58  62  57  59  62  60  52  49  48
 130  84  38  38  67  97 108  96  73  50  55  61  50  32  33  51  56  56  43  42  36  27  28  31  35  36  31  26  26  35  48  48  44  35  44  66 131 158 163 161 136  72  56  70  66  85  88  83  78  99 136 160 172 177 180 187 184 180 163 143 128 111  89  65  45  40  48  58  74  90 101  94  91  81  77  66  72  93  57  44  35  61  35  47  65  60  59  65  61  57  55  48
 137  80  43  47  66  95 101  84  59  39  47  50  44  41  27  23  49  63  53  50  39  25  27  36  32  25  20  24  32  39  41  39  32  35  64 131 166 176 175 172 170 125  88  87  91  92 117 119 123 153 177 188 193 190 189 189 185 178 174 161 145 141 124 101  85  60  50  60  62  77  97  95  83  83  69  70  59  90  65  37  30  44  43  48  61  58  60  63  58  56  54  44
 137  74  47  53  64  79  79  65  50  41  48  43  45  38  20  21  42  39  28  38  28  24  32  30  21  20  22  31  37  38  38  36  38  70 113 159 174 177 179 181 177 168 148 134 128 132 139 146 164 180 198 206 201 197 196 193 190 183 180 177 170 162 147 124 113 104  68  45  65  71  82  90  81  73  71  62  48  63  63  39  29  32  45  40  54  55  57  58  53  49  45  36
 120  66  45  54  64  66  62  58  52  41  36  24  33  40  20  31  33  25  30  28  21  28  28  20  21  25  32  37  40  40  41  53  78 130 159 167 173 176 182 186 187 190 184 179 172 175 182 186 193 195 204 207 207 204 200 197 192 191 184 178 172 168 160 148 132 119 103  69  54  77  77  87  86  73  68  57  48  51  61  37  29  27  35  36  53  51  51  49  42  39  35  30
 103  55  36  45  56  62  70  71  54  34  28  30  23  52  39  23  23  26  27  25  19  21  18  18  26  33  37  39  48  56  75  99 141 174 170 171 180 182 184 186 188 190 190 189 190 192 197 196 195 200 201 207 208 207 204 202 197 198 195 183 174 169 167 159 153 139 125 105  65  65  84  85  83  79  78  51  52  42  51  35  28  22  32  46  51  51  52  45  34  32  31  28
  95  45  31  41  53  69  90  82  56  33  28  29  30  31  45  30  25  26  26  21  13  16  17  24  32  39  42  45  67  99 121 153 179 185 181 173 179 182 189 190 191 194 194 191 193 195 194 195 198 202 207 212 213 212 212 208 203 200 200 190 181 174 170 165 160 149 136 122  94  62  83  95  84  72  79  54  58  41  32  32  27  20  33  54  53  52  50  43  35  29  26  26
  88  44  36  48  66  79  84  83  60  44  44  29  31  25  22  27  24  26  28  19  14  16  33  46  34  47  71  80 110 131 156 181 184 183 184 181 182 186 189 189 193 195 196 196 198 199 201 202 203 206 210 212 212 213 213 212 210 204 203 198 187 180 175 168 167 156 143 137 114  73  77  95  79  68  83  54  54  52  21  28  22  15  35  60  59  53  44  39  34  26  22  22
  87  48  48  57  74  82  80  61  54  40  58  59  28  22  15  18  23  28  26  23  25  22  46  47  52  99 103 114 139 164 183 185 183 185 185 186 190 195 196 197 201 204 205 204 204 205 208 205 206 208 211 212 211 211 212 211 212 211 207 201 193 188 183 174 166 157 145 144 129  92  79  92  77  65  83  49  43  55  16  26  22  17  27  57  54  48  40  36  30  22  19  21
  79  49  52  60  71  77  81  58  40  29  32  64  60  41  30  24  27  32  26  27  32  48  48  49  99 111 114 148 173 182 185 186 187 187 189 190 196 200 199 201 207 209 210 213 213 212 215 213 214 216 213 211 213 211 211 212 212 211 208 204 199 192 184 179 173 161 150 140 134 109  88  91  75  64  74  47  43  57  17  17  24  18  24  53  48  38  33  31  28  22  19  19
  60  44  47  58  65  73  70  49  37  33  27  28  36  42  42  36  30  29  29  38  41  60  68  81  92 113 162 181 182 183 186 187 190 193 192 192 198 202 200 206 207 209 211 209 209 213 215 214 213 213 212 212 213 209 211 212 209 209 209 204 200 194 189 185 181 168 157 148 139 111  92  94  77  68  80  49  34  61  19  13  20  16  27  45  40  27  26  26  29  26  20  22
  45  43  47  58  62  65  61  56  40  24  21  17  13  16  21  21  32  48  38  51  52  71  85 106 114 155 183 183 186 187 187 188 192 196 197 194 201 204 204 209 210 211 213 213 214 214 215 215 216 215 215 214 212 212 210 210 213 211 207 203 200 199 192 187 185 175 159 152 146 122  94  93  70  78  79  47  33  61  27  12  13  14  21  31  27  24  26  30  33  28  25  24
  42  47  53  58  58  56  53  52  43  25  19  16  17  17  17  21  48  79  69  88  76  89  93 115 132 172 183 185 186 190 189 191 196 201 202 202 206 207 210 214 215 217 216 216 216 214 214 218 218 216 215 212 210 211 209 208 210 210 206 203 201 199 192 188 185 178 166 155 145 125 107  93  71  74  80  51  33  56  27  12  19  24  30  41  46  37  35  37  34  28  27  27
  45  50  57  58  53  51  51  48  49  22  16  16  16  17  18  26  51  77  92  96  92  90  92 115 139 181 183 184 183 187 186 188 189 197 200 204 208 210 210 215 220 222 223 220 221 220 220 222 219 219 215 211 208 211 211 208 209 210 210 204 202 197 191 187 184 178 172 161 151 128 114 107  87  75  78  47  32  55  29   5  14  20  34  42  43  32  29  31  32  32  29  30
  49  52  54  52  45  41  45  56  45  17  16  17  17  21  23  31  62  75  82  89  97  85  82 114 149 181 178 178 182 185 187 189 192 197 200 202 205 207 210 213 217 219 222 224 222 220 223 221 220 219 215 212 210 209 208 211 212 210 210 208 202 193 190 185 185 181 174 165 152 132 118 117 101  83  73  36  34  50  26   8  12  16  20  24  35  31  29  31  32  33  33  32
  43  52  63  69  55  38  41  54  30  19  29  20  22  22  23  37  74  68  74  89 100  68  88 110 157 179 179 181 185 188 190 189 195 198 202 205 207 208 215 219 220 220 224 221 222 222 220 218 220 217 214 211 211 209 208 209 212 210 207 204 200 194 190 183 186 181 178 163 151 140 125 140 106  99  69  34  30  42  17   9  14  16  18  26  38  31  29  27  29  31  32  30
  41  52  83  89  75  46  35  54  30  20  21  22  20  23  23  43  74  64  79  99  90  64 102 128 172 182 182 184 187 187 191 193 196 199 203 207 208 208 214 218 221 224 224 222 224 224 222 221 219 217 218 214 215 214 213 211 212 209 205 201 197 194 190 186 187 181 177 166 155 146 136 132  98  92  58  30  27  33  11   9  13  13  22  31  34  29  27  26  27  28  28  26
  40  78 115 118  98  58  29  66  44  18  19  24  18  20  31  50  68  52  87 104  62  82 126 149 176 180 181 184 185 188 190 192 198 200 205 210 212 214 215 218 220 222 224 223 221 224 223 224 221 221 218 215 215 211 211 210 212 211 206 201 198 193 190 186 186 182 174 167 163 151 126 118 105  75  47  29  25  25  13  14  17  19  23  28  33  28  25  25  26  26  26  21
  52  95 134 149 125  76  39  68  40  17  20  29  18  27  34  44  64  57  87  79  60 104 128 163 178 182 180 181 185 189 193 192 196 200 203 208 212 215 218 219 221 221 222 226 223 223 222 221 222 224 219 217 215 211 211 210 208 207 204 197 195 194 191 185 183 179 175 168 166 147 110 126 103  65  49  23  26  21  15  25  26  26  21  27  35  30  25  23  24  24  27  26
  46  84 126 142 121  77  60  78  32  22  27  24  22  36  32  41  64  56  62  53  89 119 141 169 177 182 185 186 188 194 195 196 200 205 207 212 212 212 214 216 220 221 221 220 222 223 224 223 222 222 221 221 216 215 213 211 209 206 202 198 193 194 189 190 185 182 179 171 170 133 121 136  99  67  42  23  23  18  19  26  37  39  18  26  41  39  37  29  23  27  44  47
  34  60  97 114  96  53  54  65  25  28  22  21  27  30  33  45  70  64  49  77  99 132 161 169 179 182 186 192 194 196 197 199 204 208 212 215 216 219 220 219 220 218 213 215 220 221 220 221 221 224 223 218 215 214 214 210 209 205 202 201 201 195 188 187 185 184 180 179 170 120 136 133  95  51  29  24  19  13  20  26  42  56  18  24  55  58  55  55  42  42  66  65
  37  37  46  53  44  30  40  61  36  27  28  23  30  28  32  36  49  52  73  88 119 162 166 169 180 185 186 191 192 195 199 202 204 210 214 215 220 224 222 223 223 218 213 214 218 223 220 222 223 223 219 218 217 214 211 210 210 207 203 203 202 194 193 188 185 182 182 179 163 131 147 125  81  40  27  28  16  12  25  38  42  67  21  21  59  73  67  67  63  64  80  73
  45  44  40  34  28  22  39  70  68  24  24  23  26  33  35  42  61  57  76 115 155 170 162 167 177 180 184 193 193 196 201 205 208 212 217 214 216 222 224 224 228 218 215 214 224 225 218 220 226 229 226 217 216 209 210 212 209 204 202 204 199 195 196 194 189 184 179 178 150 133 142 109  77  40  30  27  15  21  28  47  53  71  28  15  44  60  61  62  65  71  79  70
  41  45  48  42  28  19  33  55  58  27  20  22  24  32  34  43  64  60 121 153 162 166 157 169 181 184 191 196 199 202 204 206 206 212 219 217 218 225 225 228 228 218 214 214 223 223 226 221 224 230 225 222 216 210 212 210 204 202 201 205 203 201 200 197 194 190 183 177 142 132 119 108  86  40  36  23  20  24  33  60  65  71  32  10  34  45  48  51  55  60  65  65
  41  46  46  38  25  19  28  42  51  32  22  26  30  34  31  58  80  86 142 145 160 165 164 181 185 188 192 198 199 199 205 205 204 211 215 219 223 227 226 229 224 220 215 208 212 214 219 223 229 226 224 222 218 212 209 204 204 203 202 199 201 200 201 199 193 187 188 181 153 110  95 107  89  34  32  36  27  28  44  62  66  56  29   8  32  41  36  39  43  43  45  52
  52  56  54  41  25  19  25  38  53  37  24  32  32  41  49  87  93 101 140 145 160 164 164 173 174 181 183 189 198 197 200 195 199 211 216 216 219 221 221 221 224 220 213 207 207 205 210 220 220 219 214 215 217 215 210 204 202 197 193 198 198 192 193 191 190 188 176 173 169 137 100  89  83  32  30  41  32  36  56  63  59  46  19  14  26  35  31  31  32  31  34  39
  63  63  58  44  27  18  26  35  46  35  26  31  30  44  64  98 100 107 131 144 169 154 151 156 163 175 171 169 167 168 164 166 172 177 197 206 211 212 215 218 216 212 211 206 206 205 204 209 209 209 207 201 199 206 194 187 177 152 152 167 167 174 180 172 168 178 165 144 152 150 129  89  82  42  40  35  35  53  60  51  62  45  17  21  27  28  25  24  23  21  24  29
  64  66  58  45  29  20  28  39  42  30  28  31  33  46  65  99  98 112 130 150 147 136 146 140 136 139 127 121 108 104 119 130 123 143 155 160 169 181 195 204 210 216 212 209 205 206 205 204 203 190 184 176 170 157 143 131 112 113  94  99 104 127 124 113 125 131 140 143 125 118 121  97  75  62  51  44  46  54  58  40  59  36  19  18  23  20  19  20  20  18  17  19
  58  60  56  47  32  24  30  40  42  31  32  35  35  38  63  93  95 121 131 121 108 114 129 113 114 116  91  79  75  62  63  70  88 103 112 113 130 153 167 182 195 209 211 205 205 203 203 204 200 180 162 162 149 125 115  96  93  89  77  78  84  93  98 113 112 102 103 112  93  88  91  92  74  64  55  58  54  55  60  39  65  36  23  18  20  14  14  15  15  15  14  13
  48  51  53  48  39  33  36  44  45  31  31  41  35  37  61  82  97 125 105  92 108 108 109 112 132 143 150 165 157 152 152 142 129 107  99 111 129 155 167 179 190 204 212 209 203 204 204 205 198 183 161 144 138 124 103  97 109 116 143 159 163 158 154 159 153 129  92  90  85  91  84  79  86  71  61  66  60  66  58  45  61  34  27  20  20  12  10  12  11  13  14  12
  39  44  48  48  44  44  50  54  47  30  20  36  41  35  55  74 118 124  97  87 105 129 145 153 170 180 193 200 203 212 207 190 170 151 142 142 140 149 172 186 195 207 214 214 203 208 208 201 191 177 165 149 137 135 139 135 142 168 189 194 187 186 185 178 169 157 141 120 121 110  96  85  78  82  73  70  60  80  61  51  58  38  25  20  19  12   9   9  10  12  14  13
  38  41  42  46  47  51  61  64  52  27  19  37  50  40  44  76 132 121 108 111 133 159 168 175 183 181 176 165 133 116 127 126 135 146 139 140 150 157 169 184 194 205 214 214 212 207 206 201 187 179 161 141 141 132 127 131 136 128 115 107 109 123 125 136 150 158 153 142 132 128 113 101  84  88  78  69  68  69  48  51  57  38  29  31  27  13  13  13  14  16  18  17
  37  40  40  42  45  52  64  65  51  29  26  39  62  48  33  81 137 127 131 151 166 169 175 182 158 141 123  84  54  35  36  38  73 117 133 147 153 150 159 176 193 204 215 215 214 207 204 197 178 161 141 134 130 143 149 127 101  60  44  28  26  61  71  71  87 124 152 144 133 134 138 122  95  93  76  62  67  59  48  52  57  41  32  42  37  17  19  17  16  18  21  19
  37  40  41  41  42  46  59  59  53  48  53  38  65  63  51 101 136 131 140 159 177 180 180 170 135  86  78 130  93  37  42  26  68 131 151 131 164 165 154 168 186 201 212 218 218 211 206 194 169 144 130 134 158 147 115 166 162  90  32  20  36  78 118  89  61  64 117 149 154 155 147 134 108  92  75  55  78  58  49  61  53  33  41  54  35  17  17  14  16  19  19  18
  37  39  41  39  41  43  51  54  62  65  76  47  60  67  63 109 135 140 150 164 176 182 175 147 100  77 138 195 126  60  14  36 102 168 206 144 127 170 166 165 179 202 211 218 218 213 204 189 163 148 144 166 140  91 137 195 190 118  59  38  65 103 147 120  87  63 102 155 165 166 157 146 120 101  79  60  72  53  55  61  32  28  37  33  25  15  16  18  21  21  19  16
  36  37  38  40  41  44  46  47  50  73  75  54  67  66  61 103 139 144 154 172 179 172 163 149 134 136 151 179 164 105  87 101 132 185 171 151 143 164 178 167 176 198 208 216 215 211 197 176 168 162 168 181 151 152 159 159 172 160 148 132 118 140 150 142 132 123 134 146 155 159 155 148 134 113  87  65  64  49  52  43  27  50  79  63  14  15  19  22  21  17  15  13
  34  34  36  39  41  44  45  44  39  67 110  57  80  71  71 106 139 148 160 178 185 177 173 180 182 164 158 162 172 171 165 175 175 180 173 181 189 188 176 174 173 194 201 212 214 208 193 171 174 175 174 186 187 195 198 186 188 202 180 180 168 157 168 167 159 164 179 169 164 168 173 161 141 115  98  71  63  46  44  32  42  90 104  84  17  19  23  21  17  12  11  10
  30  32  35  37  39  41  42  43  45  39 119 129  87  77  82 109 141 159 163 179 184 186 186 188 191 187 184 185 193 184 182 203 201 197 194 191 194 182 177 176 175 194 201 208 213 206 190 170 175 183 182 183 183 185 188 191 195 200 191 188 184 184 176 165 164 183 188 182 183 177 176 172 149 121 102  73  64  41  36  37  56  53  58  60  17  21  23  21  15  11   7   8
  29  30  32  35  36  37  39  42  45  34  92 187 128  74  71 122 148 166 168 179 183 185 188 188 193 195 194 197 203 202 204 209 206 203 196 185 180 180 181 176 176 192 201 205 210 200 185 170 176 188 190 191 185 186 193 191 183 176 177 173 169 166 165 171 185 194 192 180 184 186 176 172 159 130 106  78  61  44  38  52  44  41  65  28  21  23  21  22  16  11   9   9
  28  29  31  32  33  34  35  39  42  38  55 176 173  76  74 129 152 165 172 178 185 186 186 191 194 195 193 192 196 196 196 199 196 194 191 188 183 189 188 176 171 189 199 209 208 199 179 167 177 193 196 199 197 194 200 201 199 199 193 189 191 193 199 204 200 193 194 196 184 184 184 175 157 134 107  84  59  44  44  42  32  56  34  22  26  23  24  22  17  12  12  12
  30  30  33  34  35  33  33  36  40  39  27 140 184 109  72 132 153 163 175 179 182 187 189 189 188 189 194 197 199 197 198 193 194 192 194 195 188 184 182 173 172 186 198 208 209 202 181 167 174 195 196 200 205 204 202 206 203 205 203 206 208 211 209 205 204 201 193 196 187 181 184 180 157 133 109  88  60  52  39  28  47  46  19  23  23  23  25  21  16  14  15  19
  29  30  33  34  35  35  34  35  37  39  26 104 183 119  72 135 155 168 174 178 182 187 190 185 189 192 195 195 198 196 194 196 197 197 197 194 186 181 180 171 173 185 193 207 214 202 182 169 171 189 191 196 201 205 208 211 213 208 204 210 213 212 210 208 202 200 192 194 195 190 182 177 162 135 112  81  59  54  37  35  53  22  22  22  23  24  24  18  14  16  20  22
  28  31  33  35  36  37  36  36  38  38  27  74 181 129  83 134 156 168 172 185 185 190 189 186 191 195 194 198 199 199 200 197 203 202 193 190 186 181 178 175 178 185 191 205 212 204 185 178 171 180 185 193 197 200 207 213 217 217 216 208 211 205 208 208 205 201 199 194 190 189 182 167 159 138 109  76  54  53  41  42  30  18  22  22  23  25  20  17  18  21  22  22
  30  30  31  33  36  39  37  37  38  38  32  57 158 165  98 130 153 163 177 186 184 187 188 190 191 198 200 199 199 202 203 201 203 197 194 187 183 177 175 174 183 189 198 208 211 202 190 183 172 176 181 189 191 196 203 206 214 217 217 212 212 207 206 204 205 203 196 192 183 179 183 169 153 143 110  67  47  51  49  33  16  18  18  21  22  20  16  20  23  24  23  20
  30  30  30  32  35  39  38  37  38  37  35  41 139 195 121 127 149 160 178 180 182 188 191 190 191 196 200 198 198 203 206 206 200 195 195 189 182 178 174 175 184 191 200 209 213 202 192 185 177 167 174 185 193 199 202 207 212 215 213 214 217 214 210 206 203 199 196 187 182 176 177 168 154 140 110  62  48  55  50  20  16  18  17  18  19  18  19  23  24  24  22  18
  29  29  28  29  33  35  40  39  38  36  35  29 132 203 143 122 139 160 179 178 188 192 190 192 189 190 196 203 202 201 204 203 202 199 196 190 184 177 169 175 188 195 202 212 214 202 197 193 182 168 166 184 195 198 203 206 208 212 215 215 215 216 213 206 200 195 192 191 183 174 171 166 151 128  96  72  55  58  49  18  18  17  17  17  17  18  19  20  20  20  19  18
  27  29  28  27  29  31  37  38  39  36  33  26 117 193 158 126 132 161 177 182 192 193 191 188 186 195 199 202 206 206 205 207 206 203 199 194 185 169 165 179 193 200 206 215 216 207 203 195 187 171 156 173 194 200 205 207 209 213 217 216 213 216 212 210 202 198 192 192 185 173 164 160 145 122  88  78  57  61  43  15  17  17  16  14  15  16  16  18  17  18  19  20
  24  25  25  24  25  26  30  36  38  36  35  26  81 176 167 137 133 160 173 182 186 186 189 189 187 198 203 202 209 206 211 213 218 210 207 197 171 157 164 188 199 206 212 213 216 208 206 202 194 181 167 158 182 204 208 211 209 218 220 217 216 214 210 209 204 198 195 189 180 170 159 155 137 105  82  82  66  74  42  14  17  16  19  17  16  16  16  16  15  17  20  22
  24  23  23  20  20  19  26  33  36  38  37  29  58 166 184 138 128 158 173 183 186 186 191 191 194 201 204 208 209 212 219 223 222 216 210 189 162 167 174 196 202 204 211 214 219 213 211 208 199 187 175 166 169 199 208 214 215 220 222 221 218 212 208 206 203 198 193 186 175 165 151 148 128  93  81  88  97  90  33  19  19  19  21  18  16  16  15  13  14  16  19  21
  37  31  29  28  23  18  21  29  34  36  36  31  49 145 192 145 123 156 171 178 186 189 191 190 198 204 206 212 214 220 223 227 225 223 213 182 174 175 182 198 204 206 214 227 223 216 211 201 192 180 175 180 162 186 210 214 220 224 224 221 218 214 209 206 204 196 194 186 177 162 150 139 122  91  81  93 115  69  17  20  19  19  19  17  16  16  15  14  14  15  16  16
  71  64  64  67  60  40  25  24  32  35  35  32  35 127 191 154 118 149 168 176 185 191 188 192 198 203 210 212 218 225 226 225 224 223 210 178 184 186 180 185 193 200 216 232 224 215 205 180 165 171 178 183 157 177 203 209 218 223 222 223 219 215 206 205 201 199 193 186 173 161 147 131 112  83  81  89  84  36  14  20  17  16  18  17  16  16  14  14  14  13  14  13
 108 107 113 120 113  90  54  31  36  39  37  33  26 122 190 163 120 144 168 174 186 191 191 198 203 204 205 211 216 221 222 221 223 219 205 179 186 195 180 164 162 182 199 203 200 200 179 139 124 148 170 175 143 177 200 203 210 214 215 218 218 214 206 201 197 196 188 182 171 157 139 125 103  86  80  68  73  23  16  19  17  16  17  17  15  15  13  13  13  13  13  11
 133 136 147 157 156 136  99  60  39  38  41  34  22  80 169 156 122 139 160 167 177 186 192 196 200 202 204 209 214 216 219 221 220 211 199 184 175 179 148 103  86 135 169 175 169 161 124  59  62 123 154 149 123 188 197 198 203 211 213 216 214 212 210 202 196 191 183 177 165 144 130 119  93  84  87  87  82  21  15  17  17  16  16  15  14  13  13  13  13  13  12  11
 142 148 158 166 172 164 138  99  58  39  38  31  26  25 124 169 122 132 153 162 172 185 191 194 195 202 208 209 215 215 214 215 215 205 201 189 167 152 144 160 145 128 134 139 139 120  66  71 142 164 142 116 156 203 196 200 197 201 206 209 206 206 207 203 198 191 181 175 154 135 126 108  94  87  92 103  67  14  16  15  16  16  16  15  14  14  13  13  12  13  11  10
 145 151 160 166 174 175 160 127  83  45  31  28  24  16  35 106 127 131 149 155 168 182 188 195 199 202 206 208 210 210 208 210 208 204 200 186 169 142 150 173 175 173 158 131 120 110 132 153 140 132 128 149 191 192 195 202 196 200 202 206 204 205 202 199 193 186 181 166 146 128 119 109 100  92  86  83  36  17  17  15  17  18  17  16  15  13  13  12  10  10  10  10
 145 152 162 167 169 167 157 126  83  46  29  26  22  22  11  24 118 134 145 150 159 174 186 194 197 198 201 202 205 206 208 206 201 199 194 177 151 148 148 134 138 162 174 167 157 172 172 143 119 119 136 154 164 167 184 196 198 199 202 204 200 199 202 194 187 184 173 160 136 117 113 110 101  96  61  33  19  21  19  17  17  17  18  17  17  16  14  13  10  10  10  10
 148 153 158 157 149 135 119  97  68  43  33  26  23  20  19  19 108 137 148 151 151 167 177 187 194 195 201 204 204 203 207 200 197 197 183 155 150 146 136 112 113 124 156 179 185 176 148 134 128 120 134 136 146 150 163 183 192 197 201 205 200 193 195 192 185 180 166 154 128 118 113 113 105  92  32  13  19  18  18  16  15  16  15  17  17  16  14  13  11  11  11  10
 149 151 141 125 108  88  71  61  51  42  36  28  23  20  20  17 100 136 148 155 151 162 176 188 196 197 201 205 205 197 195 194 191 188 164 139 129 114 112 124 121 114 126 151 174 166 129 119 142 132 114 124 133 139 140 158 176 190 186 190 196 193 190 189 185 175 163 143 123 123 118 117 106  84  25  15  17  18  17  16  15  13  13  13  14  13  13  14  13  13  13  10
 134 126 107  81  60  51  50  52  50  44  38  31  25  21  22  13  88 141 143 159 154 157 174 188 194 199 200 196 174 168 177 178 173 161 137 125 111 110  94 113 121 103  99 134 177 174 130 119 124 134 116 116 131 124 112 128 136 151 163 157 173 183 190 186 185 179 162 131 119 130 122 116 104  76  18  14  16  17  17  16  15  13  13  10  10  10  11  11  13  12  12  12
 102  88  62  43  41  49  53  55  52  45  36  32  27  24  21  12  80 144 146 163 163 156 170 187 194 202 197 175 156 147 153 137 145 130 115 110 104 111  87 126 104 126 112 134 167 165 125 110  94 131 112  97 100 112  93 111 113 118 134 143 143 160 169 186 189 183 153 120 128 139 128 117 101  70  15  14  15  17  17  16  14  13  11  10  10  10  10  10  10  10  10   9
  63  46  31  33  42  48  51  51  47  39  31  27  24  21  21  11  58 146 153 161 166 154 166 186 193 201 175 146 132 126 128 129 119 108 106 103 110 105 110 128 106 116 125 133 165 167 138 109 100 113 117 103  94 100  90  96 105 108 102 116 140 138 139 179 186 180 144 116 141 141 127 114 100  58  13  17  17  15  15  15  13  13  10  10  10  10  10   9   9  10  10  10
  34  22  24  32  38  44  51  54  50  44  35  27  24  21  19  13  44 139 153 161 162 153 156 179 194 194 151 126 119 112 111 116 113 111 115 121 102 107 132 152 133 140 125 138 162 177 147 121 120 121 136 121 108 102  87  98 105 100 108 121 144 137 124 154 182 177 127 120 155 140 116 111  98  42  11  17  17  14  13  14  13  12  10   9   9   9   9   9   9   8   8   8
  22  21  26  30  36  48  59  67  66  60  48  39  31  28  21  14  29 130 157 163 166 160 148 176 196 191 136 127 124 122 109 122 112 106 118 141 151 127 152 176 136 144 155 171 162 181 183 167 136 142 174 143 127 112 108 112 109 101 113 123 132 139 103 123 169 167 116 127 157 127 113 108  93  35  14  18  18  15  14  14  14  12  10   9   9   9   9   9   9   8   7   7
  23  23  26  34  45  62  75  83  81  75  63  51  41  33  29  23  18 107 157 165 170 166 152 175 200 180 109 120 143 121 109 116 105 110 155 173 171 157 178 190 152 166 193 197 194 196 198 189 167 159 164 153 148 130 127 114 106 103  97 102 102 117  95 113 168 154 107 143 154 121 112 105  83  27  20  21  20  17  15  16  14  11  11   9   8   8   8   9   7   8   7   7
  24  29  37  47  64  78  86  88  83  77  68  57  48  40  33  28  16  81 153 167 169 166 155 164 197 164  95 116 117 118 140 130 114 135 160 163 159 153 146 138 137 144 149 152 165 163 145 130 117 107 100 106 105 106 106  95 107 138 138  99 120 114  91 132 174 140 102 155 149 122 116 104  72  25  24  24  22  20  20  18  15  12  12  10   8   8   8   9   7   7   7   6
  29  44  60  71  81  86  87  85  78  72  64  57  48  43  36  30  17  55 141 162 172 169 161 153 187 170 109  98 135 159 173 181 167 153 141 124 121 122 119 119 116 118 114 109 106 109 102 100 108 117 114 114 109 104 110 121 150 177 191 151 127 153 142 140 165 116 109 156 132 118 121 101  56  27  29  28  26  26  23  19  16  13  12  11   8   8   8   8   7   6   6   7
  34  57  81  89  89  86  79  76  71  67  61  55  49  41  36  32  22  27 121 157 172 177 166 152 174 182 140 118 162 187 188 188 184 176 171 170 166 162 163 161 159 159 152 151 145 147 151 159 167 169 163 160 157 157 149 144 160 184 197 172 149 148 147 145 145  94 121 154 127 121 115  83  43  35  34  34  31  28  26  21  17  14  12  10   8   9   9   9   7   6   6   9
  31  55  82  90  85  77  69  65  61  58  55  51  46  39  36  34  25  15  86 156 168 179 169 149 157 175 165 136 147 186 189 188 185 181 180 187 185 178 180 179 182 187 186 186 179 178 183 188 187 180 177 169 167 160 156 161 175 189 189 161 152 147 132 145 117  81 140 148 127 123 104  66  47  44  41  39  38  34  30  25  19  14  13  12  10  10   9   7   6   5   6  13
  19  40  63  72  70  65  59  54  49  48  48  46  43  39  36  31  27  16  39 135 161 172 172 149 146 169 154 123 135 170 190 191 187 186 184 187 191 187 182 185 185 184 190 189 191 192 187 184 180 178 173 169 168 163 168 178 187 189 177 175 138 133 142 135  99 103 152 138 126 118  87  72  66  58  53  50  46  42  38  30  24  18  14  13  12  10   8   7   6   6   8  18
  15  27  42  52  53  52  51  48  42  40  42  41  40  37  32  31  27  20  37 104 148 160 175 150 139 165 154 139 159 173 185 187 192 190 183 184 187 191 193 190 190 188 185 179 179 176 174 181 183 183 182 179 169 171 181 189 186 185 180 170 144 135 155 122  78 129 149 132 125 106  76  93  85  75  70  64  62  56  52  45  36  28  19  14  13  11  10   8   6   7  11  24
  16  24  35  43  44  44  43  42  39  37  36  36  37  34  31  26  28  51  69  72 122 157 171 169 148 147 165 143 144 161 167 181 185 190 187 184 187 185 184 181 183 179 170 167 156 157 166 182 178 178 180 170 171 181 180 170 183 186 181 165 124 141 135  93  96 142 140 126 117  82  88 103  94  87  82  80  79  74  69  62  52  39  28  21  16  13  11   9   7   8  15  29
  16  22  34  41  40  38  37  35  35  35  34  35  35  31  27  36  54  63  62  86 137 137 165 169 161 144 156 142 128 137 156 166 180 183 187 184 187 188 183 177 166 149 152 160 159 158 162 161 148 170 178 180 181 182 178 177 180 188 168 141 126 131 110  85 123 147 131 115  88  76 108 106 104  98  92  88  86  84  81  74  65  53  39  29  23  17  11   8   8   9  16  29
  16  18  29  39  40  36  33  31  30  32  32  33  32  30  45  64  59  62  50 142 159 112 143 163 161 149 138 124 112 128 131 143 182 180 183 191 191 190 191 186 170 149 148 152 156 156 157 161 149 170 183 194 189 181 185 185 185 170 140 130 117  90  78  92 134 136 118  95  63 103 114 108 110 109 102  96  92  89  85  80  72  64  53  39  28  19  13   8   9  10  18  28
  16  17  26  38  40  35  29  27  28  30  31  31  34  56  71  63  62  59  59 173 148 124 121 147 153 155 139 103 106 109 109 148 176 176 181 196 198 199 201 194 169 150 139 140 138 147 147 144 159 169 190 195 190 188 181 182 194 150 123 111  91  68  69 104 128 116  95  66  90 122 117 112 113 112 109 104 100  94  89  84  76  70  63  49  35  22  14  11   9  10  19  28
  15  15  24  35  37  30  26  24  24  29  29  39  61  73  66  59  66  41  88 184 147 141 126 131 148 148 127 109  95 109 117 129 168 157 178 190 193 194 196 186 171 168 149 125 144 141 140 141 183 176 195 201 192 183 184 180 174 153 101  93  83  59  64 114 120  91  60  83 123 116 118 117 115 116 113 110 104  98  93  86  79  71  65  55  42  28  15  11  10  13  23  31
  14  15  22  28  30  25  22  21  21  23  45  69  71  69  64  61  62  31 129 185 146 139 148 116 137 144 131 113 102 123  87 117 147 158 178 181 174 182 180 169 160 164 160 168 177 170 154 165 176 184 196 194 189 182 172 173 149 135 109  78  69  56  77 111  88  58  54 100 122 119 120 118 115 115 113 108  99  96  92  87  81  74  67  58  47  34  16   9   9  17  29  39
  14  14  20  24  23  17  16  15  20  52  71  69  69  69  65  64  46  65 170 180 151 137 162 136 116 127 114  93 100  95  93  99 127 149 165 176 153 159 172 173 177 169 190 199 174 186 192 189 183 190 184 187 190 174 154 158 132  99  90  61  46  55  76  81  56  52  64 106 123 120 120 120 118 117 117 111 103  99  93  89  83  75  66  59  49  36  17   9  11  20  33  42
  13  13  17  21  19  16  12  24  61  74  71  69  70  70  65  60  37 135 174 178 160 142 166 160 122 117 129 100  88 113 100 102 112 140 152 170 160 164 174 178 185 192 211 201 181 197 190 182 184 196 190 189 191 175 145 138 109 104  82  50  43  50  63  62  53  59  68 119 144 148 151 157 159 165 168 168 165 162 158 154 144 131 116  92  66  43  16   4   6  20  36  44
  13  13  17  20  18  10  32  71  76  71  67  66  68  69  63  51  67 178 169 176 169 141 166 169 152 122 122  99  86  90  72  95 112 144 135 150 146 169 173 171 179 194 189 192 203 195 187 167 180 192 192 177 166 170 128 126  90  84  60  38  33  41  49  54  57  64  73 113 137 205 200 200 206 209 213 214 213 212 211 211 206 199 192 175 151 124  94  63  38  34  39  45
  13  14  16  17  17  42  75  75  67  63  61  64  67  66  61  41 102 189 171 168 183 149 159 172 168 141 122 112  68  68  65  95  94 130 143 139 150 164 147 153 158 184 179 188 188 183 183 168 189 191 176 153 138 143 125 113  99  75  45  39  32  43  52  56  60  69  76 110  66 144 222 215 215 219 219 220 219 219 218 216 214 210 204 200 193 181 171 155 128 106  90  77
  14  13  11  20  53  75  71  64  62  61  62  65  63  61  59  40 131 186 171 167 172 173 159 167 165 157 137 131  96  55  73  97  96 105 132 135 142 143 144 165 163 178 160 161 162 174 175 166 174 171 163 145 124 139 132  92  85  56  39  46  47  50  54  57  68  81  83 129  76  34 158 233 221 220 220 219 218 218 217 214 211 208 202 196 186 178 171 161 148 138 126 119
   9   7  30  67  78  71  65  60  62  63  65  63  59  60  58  48 155 183 176 171 193 177 135 160 166 164 154 132 134  89  64  70  91 114 115 119 123 138 131 147 155 167 154 151 151 162 150 155 150 137 155 150 120 110 112  76  64  41  33  47  53  51  54  65  83  96  84 153  96  23  46 176 229 213 210 206 204 206 208 200 191 192 194 184 168 162 156 143 133 123 120 117
  11  43  74  78  72  66  63  62  60  65  65  60  58  60  53  58 166 181 174 188 164 158 174 157 175 171 168 149 136 138  92  48  69  97 101 103 107 117  98 114 137 153 135 127 119 135 139 141 127 129 128 123  90  96  96  67  43  27  46  53  52  54  61  78  99 104 101 183  95  28  40  57 189 209 196 190 185 184 188 190 183 177 178 165 142 138 138 134 130 121 117 111
  63  74  75  73  66  63  63  62  63  66  61  62  59  62  48  62 165 179 184 178 161 194 145 150 170 180 178 170 148 142 139  97  57  63  73  81  79  84  79  92 112 133 126 101 105 113 118 105 111 114  88  90  66  75  57  44  29  44  52  50  52  58  74  98 121 109 117 194  95  26  54  24  74 193 203 199 198 192 187 191 194 184 174 161 142 126 123 123 121 115 114 109
  69  73  73  68  63  62  61  62  67  62  61  63  60  61  43  80 166 179 193 145 186 144 202 173 142 177 181 181 168 152 145 137  91  50  54  66  54  60  64  63  73  73  87  74  92  91  81  73  68  82  61  62  52  42  40  40  47  53  51  52  59  75  97 116 129 115 146 189  92  25  59  37  32 110 218 222 218 217 211 207 205 195 180 169 159 134 115 112 111 109 107 107
  75  71  65  62  64  61  62  66  65  61  65  63  63  57  41  83 189 190 147 186 149 184 161 149 183 169 184 181 172 163 159 152 140  93  59  55  48  50  45  51  66  62  54  54  52  64  53  58  52  57  54  43  35  40  48  51  53  51  54  65  83 103 119 132 136 121 173 166  91  29  57  45  44  52 132 232 226 223 221 217 209 196 193 188 176 153 132 114 103  98  99  99
  71  64  62  64  62  60  67  67  63  63  60  60  66  53  39 113 185 151 198 157 169 167 157 205 156 138 180 185 182 175 164 159 158 148 115  85  58  40  49  61  51  41  43  44  54  57  46  54  55  47  40  42  42  46  51  55  54  60  74  98 117 131 140 148 136 146 183 139 103  29  50  50  44  58  54 140 228 221 216 212 204 197 195 193 178 164 157 140 119 105  97  93
  66  65  64  63  61  64  67  65  61  56  58  64  67  53  41 105 174 198 157 176 181 149 200 135 178 200 153 186 189 180 170 169 166 158 158 143 120  95  70  52  54  62  50  54  63  60  54  54  50  45  42  43  51  54  61  67  72  83 107 125 141 149 151 149 124 174 186 125 127  28  40  56  43  57  63  55 144 221 209 201 191 183 179 178 170 163 163 163 154 142 129 111
  65  66  65  66  66  67  65  58  55  55  60  69  65  51  41 135 187 163 202 181 153 205 146 181 191 136 157 179 186 185 179 179 171 159 166 171 172 161 133 100 108 112  89 101 107 100  92  79  79  69  58  67  76  82  86  90  99 119 138 144 154 155 151 134 172 164 139 131 142  38  36  60  45  52  63  60  57 152 225 210 197 184 169 155 141 135 141 152 158 157 150 135
  66  65  67  68  68  68  62  55  55  58  66  73  63  49  41 157 170 200 170 172 207 163 175 188 136 192 197 144 164 185 179 173 178 166 167 175 178 183 176 166 172 172 157 167 160 152 141 136 136 113  96 103 109 113 119 126 133 150 158 162 159 150 144 161 165 171 122 142 150  48  28  60  49  48  60  63  59  60 153 220 213 206 196 178 154 135 122 120 121 123 123 116
